<!DOCTYPE svg PUBLIC "-//W3C//DTD SVG 20010904//EN" "http://www.w3.org/TR/2001/REC-SVG-20010904/DTD/svg10.dtd">
<svg version="1.0" xmlns="http://www.w3.org/2000/svg" width="200px" height="200px" viewBox="0 0 2000 2000" preserveAspectRatio="xMidYMid meet">
<g id="layer101" fill="#fcfcfd" stroke="none">
 <path d="M130 1990 c0 -32 26 -122 47 -160 30 -56 76 -82 193 -109 135 -31 322 -98 346 -125 36 -38 63 -98 54 -121 -4 -12 -29 -38 -55 -59 l-47 -39 29 -18 c15 -10 40 -19 56 -19 32 0 32 0 13 -130 -21 -134 -36 -167 -91 -190 -25 -11 -57 -31 -72 -45 -16 -14 -30 -25 -34 -25 -3 0 -15 -17 -27 -39 -19 -33 -22 -54 -22 -140 0 -84 4 -109 21 -144 21 -41 91 -136 133 -181 27 -30 138 -86 170 -86 13 0 26 -6 29 -12 6 -21 254 -18 298 4 19 9 59 28 89 41 100 43 158 102 198 199 24 57 32 92 32 137 0 33 -4 63 -10 66 -5 3 -10 13 -10 22 0 21 -59 114 -84 132 -11 8 -42 35 -69 61 l-49 46 -10 124 c-5 69 -14 130 -20 137 -8 10 0 13 36 13 28 0 53 6 62 14 12 13 7 21 -42 63 -73 62 -81 84 -52 132 12 20 32 46 43 58 23 26 213 94 345 124 117 27 163 53 193 109 21 38 47 128 47 160 0 6 -327 10 -870 10 -543 0 -870 -4 -870 -10z m1028 -657 c-10 -2 -26 -2 -35 0 -10 3 -2 5 17 5 19 0 27 -2 18 -5z"/>
 </g>
<g id="layer102" fill="#e2d9dd" stroke="none">
 <path d="M130 1990 c0 -32 26 -122 47 -160 30 -56 76 -82 193 -109 135 -31 322 -98 346 -125 36 -38 63 -98 54 -121 -4 -12 -29 -38 -55 -59 l-47 -39 29 -18 c15 -10 40 -19 56 -19 32 0 32 0 13 -130 -21 -134 -36 -167 -91 -190 -25 -11 -57 -31 -72 -45 -16 -14 -30 -25 -34 -25 -3 0 -15 -17 -27 -39 -19 -33 -22 -54 -22 -140 0 -84 4 -109 21 -144 21 -41 91 -136 133 -181 27 -30 138 -86 170 -86 13 0 26 -6 29 -12 6 -21 254 -18 298 4 19 9 59 28 89 41 100 43 158 102 198 199 24 57 32 92 32 137 0 33 -4 62 -9 65 -5 3 -12 17 -15 32 -9 33 -55 105 -80 123 -11 8 -42 35 -69 61 l-49 46 -10 124 c-6 69 -15 131 -20 138 -8 9 0 12 36 12 28 0 53 6 62 14 12 13 7 21 -42 63 -73 62 -81 84 -52 132 12 20 32 46 43 58 23 26 213 94 345 124 117 27 163 53 193 109 21 38 47 128 47 160 0 6 -138 10 -356 10 l-356 0 5 -21 c6 -22 -18 -79 -55 -132 l-20 -28 -25 23 c-19 18 -23 29 -19 55 3 18 9 49 12 68 l6 35 -71 0 -71 0 6 -27 c3 -16 10 -45 16 -66 8 -32 6 -42 -8 -58 -9 -10 -21 -19 -25 -19 -17 0 -78 125 -72 148 l5 22 -356 0 c-218 0 -356 -4 -356 -10z m804 -219 c14 -14 26 -28 26 -32 0 -5 -34 -27 -76 -50 -82 -45 -103 -74 -105 -141 l0 -33 -18 39 c-15 35 -16 46 -3 105 12 63 59 227 69 244 3 4 22 -18 42 -50 21 -32 50 -69 65 -82z m265 44 c45 -139 60 -219 46 -245 -11 -20 -12 -19 -24 19 -14 47 -50 78 -133 115 -32 14 -58 28 -58 31 0 3 16 19 35 36 19 17 50 56 67 85 18 30 34 54 35 54 1 0 16 -43 32 -95z m-151 -455 c13 0 22 -6 22 -15 0 -16 -43 -21 -74 -9 -26 10 -20 37 7 30 12 -3 32 -6 45 -6z m110 -27 c-10 -2 -26 -2 -35 0 -10 3 -2 5 17 5 19 0 27 -2 18 -5z m-283 -95 c-1 -58 2 -78 12 -78 8 0 13 12 13 29 0 15 3 49 6 75 6 44 8 46 40 46 l34 0 0 -65 c0 -36 4 -65 9 -65 5 0 13 29 16 65 4 36 11 65 15 65 4 0 22 -3 39 -6 31 -6 31 -7 28 -62 -1 -37 2 -56 11 -59 9 -3 12 12 12 56 0 59 1 61 26 61 l27 0 -7 -75 c-6 -64 -5 -75 9 -75 12 0 15 14 15 76 0 66 2 75 18 72 14 -3 18 -18 23 -98 8 -135 19 -160 97 -226 76 -64 102 -102 127 -180 21 -67 10 -146 -31 -230 -52 -106 -220 -199 -381 -211 -62 -5 -85 -2 -171 26 -114 36 -167 72 -229 153 -98 126 -124 252 -73 353 24 47 45 65 152 130 53 32 73 88 94 258 5 47 6 48 37 45 l32 -3 0 -77z"/>
 <path d="M945 969 c-13 -21 14 -89 36 -89 5 0 15 12 22 26 l14 27 7 -26 c6 -26 37 -44 56 -32 13 8 13 46 0 79 -11 30 -44 35 -58 9 -9 -16 -11 -16 -27 0 -19 19 -41 22 -50 6z"/>
 <path d="M782 823 c-19 -7 -42 -58 -42 -92 0 -41 28 -109 50 -121 19 -10 72 -4 103 12 38 19 60 115 37 159 -21 37 -102 61 -148 42z"/>
 <path d="M1135 821 c-75 -31 -81 -122 -12 -189 31 -30 36 -31 66 -21 60 21 99 116 71 170 -12 22 -61 49 -87 48 -10 0 -27 -4 -38 -8z"/>
 <path d="M600 736 c0 -21 35 -126 42 -126 10 0 10 -1 -3 59 -6 27 -17 55 -25 62 -8 6 -14 9 -14 5z"/>
 <path d="M1378 623 c-21 -24 -31 -59 -23 -83 9 -29 28 -25 21 5 -4 15 0 38 10 56 18 36 14 47 -8 22z"/>
 </g>
<g id="layer103" fill="#d2cfd2" stroke="none">
 <path d="M130 1990 c0 -32 26 -122 47 -160 30 -56 76 -82 193 -109 129 -30 323 -98 342 -121 9 -11 19 -20 22 -20 8 0 26 71 26 101 0 29 59 241 69 249 3 3 7 20 7 38 l2 32 -354 0 c-217 0 -354 -4 -354 -10z"/>
 <path d="M926 1973 c3 -16 10 -44 15 -63 13 -52 12 -56 -21 -72 l-31 -15 42 -43 c39 -40 41 -45 24 -54 -10 -6 -26 -18 -36 -28 -9 -9 -20 -14 -23 -11 -3 4 -6 1 -6 -6 0 -7 -4 -10 -9 -7 -5 3 -23 -4 -41 -17 -36 -24 -54 -64 -63 -142 -6 -44 -12 -55 -57 -95 l-51 -45 29 -17 c17 -10 42 -18 56 -18 31 0 31 -1 12 -130 -21 -134 -36 -167 -91 -190 -25 -11 -57 -31 -72 -45 -16 -14 -30 -25 -34 -25 -3 0 -15 -17 -27 -39 -19 -33 -22 -54 -22 -140 0 -84 4 -109 21 -144 21 -41 91 -136 133 -181 27 -30 138 -86 170 -86 13 0 26 -6 29 -12 6 -21 254 -18 298 4 19 9 59 28 89 41 100 43 158 102 198 199 24 57 32 92 32 137 0 33 -4 62 -9 65 -5 3 -12 17 -15 32 -9 33 -55 105 -80 123 -11 8 -42 35 -69 61 l-49 46 -10 124 c-6 69 -15 131 -20 138 -8 9 0 12 36 12 28 0 53 6 62 14 12 12 5 22 -47 68 l-62 54 -6 72 c-8 88 -25 108 -129 158 l-75 35 49 50 c27 28 42 47 34 44 -10 -3 -25 4 -39 19 -21 22 -22 28 -12 82 6 32 11 61 11 66 0 4 -32 8 -70 8 l-70 0 6 -27z m144 -623 c0 -25 -6 -27 -47 -21 -25 4 -39 12 -41 24 -3 15 4 17 42 15 36 -1 46 -5 46 -18z m88 -17 c-10 -2 -26 -2 -35 0 -10 3 -2 5 17 5 19 0 27 -2 18 -5z m-278 -93 c0 -47 4 -80 10 -80 6 0 10 26 10 59 0 80 5 91 46 91 l34 0 0 -60 c0 -77 18 -79 22 -3 3 62 13 71 64 59 22 -6 24 -11 24 -66 0 -33 4 -60 10 -60 6 0 10 27 10 60 0 58 1 60 26 60 26 0 26 0 22 -72 -2 -50 1 -73 10 -76 9 -3 12 16 12 72 0 69 2 76 20 76 14 0 20 -7 20 -22 3 -116 10 -189 23 -218 9 -20 44 -59 82 -90 129 -107 164 -245 98 -390 -47 -104 -147 -175 -303 -216 -94 -25 -163 -20 -277 18 -93 31 -102 37 -170 105 -99 100 -138 180 -138 283 1 116 43 179 159 235 54 26 92 99 101 193 11 120 12 122 51 122 l34 0 0 -80z"/>
 <path d="M951 966 c-15 -18 12 -90 31 -84 17 6 22 66 7 84 -15 18 -23 18 -38 0z"/>
 <path d="M1027 973 c-13 -13 -7 -72 9 -88 38 -38 68 7 44 66 -12 27 -38 38 -53 22z"/>
 <path d="M773 806 c-23 -20 -28 -32 -28 -73 0 -56 20 -110 46 -124 26 -13 93 5 119 33 26 28 37 102 19 135 -15 28 -64 53 -103 53 -14 0 -38 -11 -53 -24z"/>
 <path d="M1134 820 c-70 -28 -71 -133 -2 -197 35 -32 83 -13 117 48 23 43 24 49 12 88 -10 34 -20 46 -46 57 -39 16 -51 16 -81 4z"/>
 <path d="M604 726 c3 -10 11 -38 17 -62 6 -24 15 -44 20 -44 10 0 -19 101 -33 115 -8 7 -9 4 -4 -9z"/>
 <path d="M1372 618 c-15 -20 -23 -54 -16 -72 10 -25 22 -19 16 9 -2 14 3 36 12 50 17 25 7 36 -12 13z"/>
 <path d="M1167 1968 c3 -18 19 -76 35 -128 16 -52 33 -125 38 -161 10 -67 18 -99 27 -99 3 0 12 9 21 20 19 23 213 91 342 121 117 27 163 53 193 109 21 38 47 128 47 160 0 6 -137 10 -355 10 l-354 0 6 -32z"/>
 </g>
<g id="layer104" fill="#ecc4b8" stroke="none">
 <path d="M130 1990 c0 -32 26 -122 47 -160 30 -56 76 -82 193 -109 129 -30 323 -98 342 -121 9 -11 18 -20 21 -20 9 0 17 32 27 103 6 38 23 113 39 166 16 53 32 108 35 124 l6 27 -355 0 c-218 0 -355 -4 -355 -10z"/>
 <path d="M925 1983 c2 -10 9 -42 16 -71 11 -50 10 -54 -10 -68 -28 -20 -27 -27 14 -73 l36 -39 -28 -20 c-15 -11 -52 -32 -81 -46 -59 -30 -79 -62 -93 -151 -7 -43 -15 -56 -59 -95 l-51 -45 29 -17 c17 -10 42 -18 56 -18 31 0 31 -1 12 -130 -21 -134 -36 -167 -91 -190 -25 -11 -57 -31 -72 -45 -16 -14 -30 -25 -34 -25 -3 0 -15 -17 -27 -39 -19 -33 -22 -54 -22 -140 0 -84 4 -109 21 -144 21 -41 91 -136 133 -181 27 -30 138 -86 170 -86 13 0 26 -6 29 -12 6 -21 254 -18 298 4 19 9 59 28 89 41 100 43 158 102 198 199 24 57 32 92 32 137 0 33 -4 62 -9 65 -5 3 -12 17 -15 32 -9 33 -55 105 -80 123 -11 8 -42 35 -69 61 l-49 46 -10 124 c-6 69 -15 131 -20 138 -8 9 0 12 36 12 28 0 53 6 62 14 12 12 5 22 -47 68 -59 52 -61 55 -68 116 -9 72 -29 105 -86 135 -22 12 -59 32 -82 45 l-42 23 40 40 41 41 -27 28 c-26 27 -26 30 -16 86 6 32 11 61 11 66 0 4 -31 8 -69 8 -61 0 -69 -2 -66 -17z m145 -640 c0 -23 -3 -24 -37 -19 -21 3 -41 5 -45 6 -5 0 -8 9 -8 20 0 17 6 20 45 18 40 -1 45 -4 45 -25z m88 -10 c-10 -2 -26 -2 -35 0 -10 3 -2 5 17 5 19 0 27 -2 18 -5z m-277 -97 c-2 -55 0 -76 8 -72 6 4 11 31 11 61 0 74 6 85 46 85 l34 0 0 -60 c0 -33 4 -60 10 -60 6 0 10 27 10 61 l0 60 43 -3 42 -3 3 -62 c4 -80 22 -82 22 -3 0 57 1 60 25 60 24 0 25 -2 25 -76 0 -47 4 -73 10 -69 6 3 10 37 10 76 0 62 2 69 20 69 11 0 20 -6 21 -12 1 -7 2 -51 4 -98 3 -117 21 -154 104 -223 93 -78 126 -143 125 -247 0 -107 -37 -185 -117 -251 -61 -52 -90 -67 -197 -101 -112 -37 -241 -22 -375 43 -112 55 -221 213 -232 339 -10 112 41 198 150 250 44 21 56 33 79 80 18 38 29 79 33 130 9 109 10 112 53 108 l37 -3 -4 -79z"/>
 <path d="M957 973 c-13 -12 -7 -62 9 -77 21 -22 34 -11 34 28 0 41 -24 68 -43 49z"/>
 <path d="M1027 973 c-4 -3 -7 -21 -7 -39 0 -25 7 -38 25 -50 33 -22 49 -9 42 33 -9 51 -38 79 -60 56z"/>
 <path d="M777 810 c-33 -26 -42 -71 -27 -125 18 -64 45 -86 94 -75 53 12 83 43 91 95 8 56 -13 99 -56 114 -46 16 -73 14 -102 -9z"/>
 <path d="M1128 814 c-34 -18 -48 -43 -48 -84 0 -58 47 -120 91 -120 33 0 84 54 94 99 9 44 -18 94 -58 109 -41 15 -46 15 -79 -4z"/>
 <path d="M605 723 c3 -10 9 -30 12 -45 3 -16 9 -28 14 -28 4 0 1 20 -8 45 -8 25 -17 45 -20 45 -3 0 -2 -8 2 -17z"/>
 <path d="M1366 600 c-7 -18 -11 -41 -9 -51 8 -28 21 -23 16 5 -3 13 0 34 7 46 6 12 9 24 6 27 -3 3 -12 -9 -20 -27z"/>
 <path d="M1166 1973 c3 -16 19 -71 35 -124 16 -53 33 -128 39 -166 10 -71 18 -103 27 -103 3 0 12 9 21 20 19 23 213 91 342 121 117 27 163 53 193 109 21 38 47 128 47 160 0 6 -137 10 -355 10 l-355 0 6 -27z"/>
 </g>
<g id="layer105" fill="#c2c1c0" stroke="none">
 <path d="M130 1990 c0 -32 26 -122 47 -160 30 -56 76 -82 193 -109 129 -30 323 -98 342 -121 9 -11 18 -20 21 -20 9 0 17 32 27 103 6 38 23 113 39 166 16 53 32 108 35 124 l6 27 -355 0 c-218 0 -355 -4 -355 -10z"/>
 <path d="M925 1983 c2 -10 9 -42 15 -71 11 -49 11 -53 -10 -70 -19 -15 -21 -22 -12 -39 13 -24 69 -73 83 -73 5 0 27 18 50 41 l41 41 -27 28 c-26 27 -26 30 -16 86 6 32 11 61 11 66 0 4 -31 8 -69 8 -61 0 -69 -2 -66 -17z"/>
 <path d="M1166 1973 c3 -16 19 -71 35 -124 16 -53 33 -128 39 -166 10 -71 18 -103 27 -103 3 0 12 9 21 20 19 23 213 91 342 121 117 27 163 53 193 109 21 38 47 128 47 160 0 6 -137 10 -355 10 l-355 0 6 -27z"/>
 <path d="M915 1621 c-16 -4 -45 -16 -64 -27 -18 -10 -41 -23 -51 -28 -12 -6 -20 -26 -23 -55 -4 -39 -12 -51 -57 -91 l-51 -45 29 -17 c17 -10 42 -18 56 -18 31 0 31 -1 12 -130 -21 -134 -36 -167 -91 -190 -25 -11 -57 -31 -72 -45 -16 -14 -30 -25 -34 -25 -3 0 -15 -17 -27 -39 -19 -33 -22 -54 -22 -140 0 -84 4 -109 21 -144 21 -41 91 -136 133 -181 27 -30 138 -86 170 -86 13 0 26 -6 29 -12 6 -21 254 -18 298 4 19 9 59 28 89 41 100 43 158 102 198 199 24 57 32 92 32 137 0 33 -4 62 -9 65 -5 3 -12 17 -15 32 -9 33 -55 105 -80 123 -11 8 -42 35 -69 61 l-49 46 -10 124 c-6 69 -15 131 -20 138 -8 9 0 12 36 12 28 0 53 6 62 14 12 12 5 22 -48 69 -59 52 -61 56 -66 111 -4 44 -7 54 -17 46 -9 -8 -15 -8 -20 0 -3 6 -25 20 -47 31 -45 23 -170 34 -223 20z m200 -110 c22 -10 58 -34 79 -54 21 -21 42 -37 45 -37 4 0 22 -14 41 -31 21 -18 27 -28 17 -25 -11 3 -29 9 -42 12 -13 3 -25 14 -28 25 -3 10 -13 19 -22 19 -11 0 -15 -5 -12 -14 5 -12 1 -13 -24 -4 -16 5 -29 14 -29 19 0 12 -137 11 -145 -1 -10 -15 -35 -12 -35 5 0 8 -7 15 -15 15 -8 0 -15 -9 -15 -20 0 -23 -38 -28 -57 -9 -7 7 -19 8 -30 4 -10 -5 -38 -9 -62 -10 -35 -2 -42 0 -30 9 8 6 35 28 60 48 25 21 61 44 80 52 49 22 174 20 224 -3z m-45 -167 c0 -24 -2 -25 -37 -20 -21 3 -41 5 -45 6 -5 0 -8 9 -8 20 0 17 7 20 45 20 42 0 45 -2 45 -26z m88 -11 c-10 -2 -26 -2 -35 0 -10 3 -2 5 17 5 19 0 27 -2 18 -5z m-277 -97 c-2 -55 0 -76 8 -72 6 4 11 31 11 61 0 74 6 85 46 85 l34 0 0 -60 c0 -33 4 -60 10 -60 6 0 10 27 10 61 l0 60 43 -3 42 -3 3 -62 c4 -80 22 -82 22 -3 0 57 1 60 25 60 24 0 25 -2 25 -76 0 -47 4 -73 10 -69 6 3 10 37 10 76 0 62 2 69 20 69 11 0 20 -6 21 -12 1 -7 2 -51 4 -98 3 -117 21 -154 104 -223 93 -78 126 -143 125 -247 0 -107 -37 -185 -117 -251 -61 -52 -90 -67 -197 -101 -112 -37 -241 -22 -375 43 -112 55 -221 213 -232 339 -10 112 41 198 150 250 44 21 56 33 79 80 18 38 29 79 33 130 9 109 10 112 53 108 l37 -3 -4 -79z"/>
 <path d="M957 973 c-13 -12 -7 -62 9 -77 21 -22 34 -11 34 28 0 41 -24 68 -43 49z"/>
 <path d="M1027 973 c-4 -3 -7 -21 -7 -39 0 -25 7 -38 25 -50 33 -22 49 -9 42 33 -9 51 -38 79 -60 56z"/>
 <path d="M777 810 c-33 -26 -42 -71 -27 -125 18 -64 45 -86 94 -75 53 12 83 43 91 95 8 56 -13 99 -56 114 -46 16 -73 14 -102 -9z"/>
 <path d="M1128 814 c-34 -18 -48 -43 -48 -84 0 -58 47 -120 91 -120 33 0 84 54 94 99 9 44 -18 94 -58 109 -41 15 -46 15 -79 -4z"/>
 <path d="M605 723 c3 -10 9 -30 12 -45 3 -16 9 -28 14 -28 4 0 1 20 -8 45 -8 25 -17 45 -20 45 -3 0 -2 -8 2 -17z"/>
 <path d="M1366 600 c-7 -18 -11 -41 -9 -51 8 -28 21 -23 16 5 -3 13 0 34 7 46 6 12 9 24 6 27 -3 3 -12 -9 -20 -27z"/>
 </g>
<g id="layer106" fill="#dca696" stroke="none">
 <path d="M130 1990 c0 -32 26 -122 47 -160 30 -56 76 -82 193 -109 136 -31 323 -98 343 -123 24 -29 31 -17 45 80 6 42 24 120 40 172 16 52 32 107 36 123 l6 27 -355 0 c-218 0 -355 -4 -355 -10z"/>
 <path d="M931 1958 c4 -24 12 -55 18 -70 9 -25 7 -30 -14 -44 -14 -9 -25 -21 -25 -26 0 -14 75 -88 89 -88 6 0 30 19 53 42 l41 41 -28 24 c-29 25 -29 30 -9 131 l7 32 -70 0 -70 0 8 -42z"/>
 <path d="M1166 1973 c4 -16 20 -71 36 -123 24 -78 46 -189 48 -235 0 -5 4 -17 9 -24 8 -13 13 -11 28 7 20 25 207 92 343 123 117 27 163 53 193 109 21 38 47 128 47 160 0 6 -137 10 -355 10 l-355 0 6 -27z"/>
 <path d="M915 1621 c-80 -21 -130 -64 -139 -119 -5 -32 -16 -48 -57 -82 l-50 -43 28 -18 c15 -11 40 -19 56 -19 32 0 32 0 13 -130 -21 -134 -36 -167 -91 -190 -25 -11 -57 -31 -72 -45 -16 -14 -30 -25 -34 -25 -3 0 -15 -17 -27 -39 -19 -33 -22 -54 -22 -140 0 -84 4 -109 21 -144 21 -41 91 -136 133 -181 27 -30 138 -86 170 -86 13 0 26 -6 29 -12 6 -21 254 -18 298 4 19 9 59 28 89 41 100 43 158 102 198 199 24 57 32 92 32 137 0 33 -4 62 -9 65 -5 3 -12 17 -15 32 -9 33 -55 105 -80 123 -11 8 -42 35 -69 61 l-49 46 -10 124 c-6 69 -15 131 -20 138 -8 9 0 12 36 12 28 0 53 6 62 14 12 12 5 22 -47 68 -58 51 -62 57 -67 107 -3 38 -8 51 -18 47 -7 -3 -16 -1 -19 5 -4 5 -25 19 -47 30 -45 23 -170 34 -223 20z m200 -110 c22 -10 58 -34 79 -54 21 -21 42 -37 45 -37 4 0 22 -14 41 -31 21 -18 27 -28 17 -25 -11 3 -29 9 -42 12 -13 3 -25 14 -28 25 -3 10 -13 19 -22 19 -11 0 -15 -5 -12 -14 5 -12 1 -13 -24 -4 -16 5 -29 14 -29 19 0 12 -137 11 -145 -1 -10 -15 -35 -12 -35 5 0 8 -7 15 -15 15 -8 0 -15 -9 -15 -20 0 -23 -38 -28 -57 -9 -7 7 -19 8 -30 4 -10 -5 -38 -9 -62 -10 -35 -2 -42 0 -30 9 8 6 35 28 60 48 25 21 61 44 80 52 49 22 174 20 224 -3z m-45 -166 c0 -21 -5 -25 -29 -25 -42 0 -61 10 -61 31 0 16 8 19 45 19 41 0 45 -2 45 -25z m88 -12 c-10 -2 -26 -2 -35 0 -10 3 -2 5 17 5 19 0 27 -2 18 -5z m-277 -98 c-4 -95 12 -92 19 3 l5 67 41 3 40 3 -4 -61 c-3 -40 -1 -60 7 -60 7 0 11 22 11 60 l0 60 45 0 45 0 0 -66 c0 -41 4 -63 10 -59 6 3 10 31 10 61 0 51 1 54 25 54 25 0 25 -2 25 -77 0 -54 3 -73 10 -63 5 8 10 43 10 78 0 55 2 62 20 62 24 0 22 8 25 -105 4 -123 20 -158 105 -228 94 -78 125 -140 125 -252 0 -73 -3 -86 -38 -150 -30 -57 -49 -79 -104 -118 -137 -98 -302 -124 -457 -73 -105 35 -163 73 -221 147 -65 83 -97 152 -103 225 -9 119 37 197 149 254 73 38 105 97 114 218 8 98 10 104 53 100 l37 -3 -4 -80z"/>
 <path d="M953 964 c-9 -23 10 -69 27 -69 19 0 26 51 9 71 -15 18 -28 18 -36 -2z"/>
 <path d="M1033 973 c-7 -2 -13 -20 -13 -39 0 -25 6 -38 26 -50 22 -15 27 -15 35 -3 11 16 4 66 -12 86 -12 14 -16 15 -36 6z"/>
 <path d="M783 815 c-45 -32 -48 -127 -5 -184 16 -21 26 -25 53 -23 64 7 93 37 105 108 5 36 3 45 -22 73 -35 39 -96 51 -131 26z m0 -120 c5 -28 4 -34 -3 -20 -8 19 -14 73 -6 64 2 -2 6 -22 9 -44z"/>
 <path d="M1130 812 c-59 -30 -65 -110 -14 -172 45 -52 96 -35 137 45 41 82 -42 168 -123 127z m63 -162 c21 11 21 10 3 -4 -11 -9 -23 -16 -26 -16 -3 0 -15 7 -26 16 -18 14 -18 15 4 4 16 -8 28 -8 45 0z"/>
 <path d="M1370 611 c-5 -11 -9 -35 -9 -53 l1 -33 8 35 c4 19 11 43 15 53 10 23 -2 22 -15 -2z"/>
 </g>
<g id="layer107" fill="#b1b0b0" stroke="none">
 <path d="M130 1990 c0 -32 26 -122 47 -160 30 -56 76 -82 193 -109 136 -31 323 -98 343 -123 24 -29 31 -17 45 80 6 42 24 120 40 172 16 52 32 107 36 123 l6 27 -355 0 c-218 0 -355 -4 -355 -10z"/>
 <path d="M931 1958 c4 -24 12 -55 18 -70 9 -25 7 -30 -14 -44 -14 -9 -25 -21 -25 -26 0 -14 75 -88 89 -88 6 0 30 19 53 42 l41 41 -28 24 c-29 25 -29 30 -9 131 l7 32 -70 0 -70 0 8 -42z"/>
 <path d="M1166 1973 c4 -16 20 -71 36 -123 24 -78 46 -189 48 -235 0 -5 4 -17 9 -24 8 -13 13 -11 28 7 20 25 207 92 343 123 117 27 163 53 193 109 21 38 47 128 47 160 0 6 -137 10 -355 10 l-355 0 6 -27z"/>
 <path d="M808 1557 c-15 -13 -29 -37 -32 -59 -5 -28 -19 -47 -57 -79 l-50 -42 28 -18 c15 -11 40 -19 56 -19 32 0 32 0 13 -130 -21 -134 -36 -167 -91 -190 -25 -11 -57 -31 -72 -45 -16 -14 -30 -25 -34 -25 -3 0 -15 -17 -27 -39 -19 -33 -22 -54 -22 -140 0 -84 4 -109 21 -144 21 -41 91 -136 133 -181 27 -30 138 -86 170 -86 13 0 26 -6 29 -12 6 -21 254 -18 298 4 19 9 59 28 89 41 100 43 158 102 198 199 24 57 32 92 32 137 0 33 -4 62 -9 65 -5 3 -12 17 -15 32 -9 33 -55 105 -80 123 -11 8 -42 35 -69 61 l-49 46 -10 124 c-6 69 -15 131 -20 138 -8 9 0 12 36 12 28 0 53 6 62 14 12 12 5 22 -47 68 -56 50 -61 58 -69 108 -4 30 -8 49 -9 41 -1 -11 -6 -10 -26 3 -20 13 -54 16 -187 16 -154 0 -164 -1 -190 -23z m322 -53 c25 -13 59 -35 75 -49 l30 -25 -23 -6 c-14 -4 -21 -12 -18 -20 4 -12 -1 -11 -30 1 -59 24 -125 29 -168 11 -36 -15 -38 -15 -43 4 -7 26 -23 26 -23 0 0 -22 -33 -27 -60 -10 -9 5 -19 5 -27 -1 -7 -6 -26 -8 -43 -4 -18 4 -30 3 -30 -4 0 -6 -7 -8 -16 -4 -35 13 110 118 186 134 54 12 140 -1 190 -27z m150 -115 c24 -20 28 -28 15 -24 -11 3 -32 9 -47 12 -19 4 -28 12 -28 24 0 27 21 23 60 -12z m-210 -44 c0 -21 -5 -25 -29 -25 -42 0 -61 10 -61 31 0 16 8 19 45 19 41 0 45 -2 45 -25z m88 -12 c-10 -2 -26 -2 -35 0 -10 3 -2 5 17 5 19 0 27 -2 18 -5z m-277 -98 c-4 -95 12 -92 19 3 l5 67 41 3 40 3 -4 -61 c-3 -40 -1 -60 7 -60 7 0 11 22 11 60 l0 60 45 0 45 0 0 -66 c0 -41 4 -63 10 -59 6 3 10 31 10 61 0 51 1 54 25 54 25 0 25 -2 25 -77 0 -54 3 -73 10 -63 5 8 10 43 10 78 0 55 2 62 20 62 24 0 22 8 25 -105 4 -123 20 -158 105 -228 94 -78 125 -140 125 -252 0 -73 -3 -86 -38 -150 -30 -57 -49 -79 -104 -118 -137 -98 -302 -124 -457 -73 -105 35 -163 73 -221 147 -65 83 -97 152 -103 225 -9 119 37 197 149 254 73 38 105 97 114 218 8 98 10 104 53 100 l37 -3 -4 -80z"/>
 <path d="M953 964 c-9 -23 10 -69 27 -69 19 0 26 51 9 71 -15 18 -28 18 -36 -2z"/>
 <path d="M1033 973 c-7 -2 -13 -20 -13 -39 0 -25 6 -38 26 -50 22 -15 27 -15 35 -3 11 16 4 66 -12 86 -12 14 -16 15 -36 6z"/>
 <path d="M783 815 c-45 -32 -48 -127 -5 -184 16 -21 26 -25 53 -23 64 7 93 37 105 108 5 36 3 45 -22 73 -35 39 -96 51 -131 26z m0 -120 c5 -28 4 -34 -3 -20 -8 19 -14 73 -6 64 2 -2 6 -22 9 -44z"/>
 <path d="M1130 812 c-59 -30 -65 -110 -14 -172 45 -52 96 -35 137 45 41 82 -42 168 -123 127z m63 -162 c21 11 21 10 3 -4 -11 -9 -23 -16 -26 -16 -3 0 -15 7 -26 16 -18 14 -18 15 4 4 16 -8 28 -8 45 0z"/>
 <path d="M1370 611 c-5 -11 -9 -35 -9 -53 l1 -33 8 35 c4 19 11 43 15 53 10 23 -2 22 -15 -2z"/>
 </g>
<g id="layer108" fill="#d69b89" stroke="none">
 <path d="M130 1990 c0 -32 26 -122 47 -160 30 -56 76 -82 193 -109 136 -31 323 -98 343 -123 24 -28 32 -15 41 64 4 33 19 99 33 146 14 48 31 111 38 140 l13 52 -354 0 c-217 0 -354 -4 -354 -10z"/>
 <path d="M936 1939 c8 -34 17 -65 19 -69 3 -5 -7 -17 -21 -27 -26 -19 -26 -21 -10 -44 8 -14 29 -35 46 -47 l30 -23 35 26 c46 36 54 63 25 87 -20 16 -21 24 -15 66 3 26 9 57 12 70 5 21 3 22 -65 22 l-70 0 14 -61z"/>
 <path d="M1175 1948 c7 -29 24 -91 38 -138 13 -47 28 -112 32 -146 9 -80 18 -95 42 -66 20 25 207 92 343 123 117 27 163 53 193 109 21 38 47 128 47 160 0 6 -137 10 -354 10 l-354 0 13 -52z"/>
 <path d="M808 1557 c-15 -13 -29 -37 -32 -59 -5 -28 -19 -47 -57 -79 l-50 -42 28 -18 c15 -11 40 -19 56 -19 32 0 32 0 13 -130 -21 -134 -36 -167 -91 -190 -25 -11 -57 -31 -72 -45 -16 -14 -30 -25 -34 -25 -16 0 -49 -82 -48 -121 l1 -44 13 48 c21 75 55 119 122 155 32 17 66 39 75 49 32 35 55 108 60 187 6 89 17 106 68 98 l30 -4 -5 -82 c-3 -53 -2 -72 4 -56 5 14 9 49 10 78 l1 52 44 0 44 0 -5 -62 c-5 -45 -3 -59 5 -54 7 4 12 31 12 62 l0 54 45 0 45 0 0 -60 c0 -33 4 -60 10 -60 6 0 10 27 10 61 0 52 2 60 16 55 9 -3 20 -6 25 -6 5 0 10 -33 10 -72 l2 -73 9 73 c9 67 12 73 32 70 19 -3 21 -9 22 -88 1 -113 16 -161 62 -202 96 -86 130 -127 152 -184 64 -167 -25 -343 -215 -429 -72 -33 -199 -59 -254 -52 -73 9 -216 61 -259 95 -75 60 -153 177 -177 266 l-14 51 0 -43 c-1 -25 8 -60 20 -85 21 -41 91 -136 133 -181 27 -30 138 -86 170 -86 13 0 26 -6 29 -12 6 -21 254 -18 298 4 19 9 59 28 89 41 100 43 158 102 198 199 24 57 32 92 32 137 0 33 -4 62 -9 65 -5 3 -12 17 -15 32 -9 33 -55 105 -80 123 -11 8 -42 35 -69 61 l-49 46 -10 124 c-6 69 -15 131 -20 138 -8 9 0 12 36 12 28 0 53 6 62 14 12 12 5 22 -47 68 -56 50 -61 58 -69 108 -4 30 -8 49 -9 41 -1 -11 -6 -10 -26 3 -20 13 -54 16 -187 16 -154 0 -164 -1 -190 -23z m322 -53 c25 -13 59 -35 75 -49 l30 -25 -23 -6 c-14 -4 -21 -12 -18 -20 4 -12 -1 -11 -30 1 -59 24 -125 29 -168 11 -36 -15 -38 -15 -43 4 -7 26 -23 26 -23 0 0 -22 -33 -27 -60 -10 -9 5 -19 5 -27 -1 -7 -6 -26 -8 -43 -4 -18 4 -30 3 -30 -4 0 -6 -7 -8 -16 -4 -35 13 110 118 186 134 54 12 140 -1 190 -27z m150 -115 c24 -20 28 -28 15 -24 -11 3 -32 9 -47 12 -19 4 -28 12 -28 24 0 27 21 23 60 -12z m-208 -44 c-3 -20 -10 -25 -32 -25 -41 0 -60 10 -60 31 0 16 8 19 49 19 46 0 48 -1 43 -25z m86 -12 c-10 -2 -26 -2 -35 0 -10 3 -2 5 17 5 19 0 27 -2 18 -5z"/>
 <path d="M1033 973 c-32 -12 1 -103 37 -103 18 0 22 47 6 79 -17 31 -21 34 -43 24z m27 -58 c0 -17 -2 -17 -10 -5 -5 8 -10 24 -10 35 0 17 2 17 10 5 5 -8 10 -24 10 -35z"/>
 <path d="M950 948 c0 -13 6 -33 14 -44 19 -25 39 -7 34 32 -2 21 -9 30 -25 32 -18 3 -23 -1 -23 -20z"/>
 <path d="M776 807 c-21 -21 -26 -36 -26 -77 0 -54 19 -103 46 -118 22 -13 83 2 106 26 25 25 41 93 28 126 -11 31 -47 55 -93 63 -29 4 -40 1 -61 -20z m117 -25 c15 -13 18 -27 15 -64 -3 -26 -11 -54 -18 -63 -14 -17 -65 -20 -75 -5 -9 15 -27 12 -19 -2 5 -10 4 -10 -6 -1 -8 7 -16 39 -18 72 -4 52 -2 60 19 75 28 20 73 15 102 -12z"/>
 <path d="M1109 801 c-19 -16 -24 -29 -24 -68 0 -97 80 -157 133 -100 75 80 48 187 -48 187 -22 0 -47 -8 -61 -19z m109 -17 c33 -23 31 -92 -4 -128 -15 -14 -34 -26 -44 -26 -29 0 -62 46 -67 93 -5 38 -2 47 18 61 30 20 68 21 97 0z"/>
 <path d="M1372 608 c-7 -7 -11 -28 -10 -47 l1 -36 4 35 c3 19 9 41 15 47 13 16 6 17 -10 1z"/>
 </g>
<g id="layer109" fill="#a59e9c" stroke="none">
 <path d="M130 1990 c0 -32 26 -122 47 -160 30 -56 76 -82 193 -109 136 -31 323 -98 343 -123 24 -28 32 -15 41 64 4 33 19 99 33 146 14 48 31 111 38 140 l13 52 -354 0 c-217 0 -354 -4 -354 -10z"/>
 <path d="M936 1939 c8 -34 17 -65 19 -69 3 -5 -7 -17 -21 -27 -26 -19 -26 -21 -10 -44 8 -14 29 -35 46 -47 l30 -23 35 26 c46 36 54 63 25 87 -20 16 -21 24 -15 66 3 26 9 57 12 70 5 21 3 22 -65 22 l-70 0 14 -61z"/>
 <path d="M1175 1948 c7 -29 24 -91 38 -138 13 -47 28 -112 32 -146 9 -80 18 -95 42 -66 20 25 207 92 343 123 117 27 163 53 193 109 21 38 47 128 47 160 0 6 -137 10 -354 10 l-354 0 13 -52z"/>
 <path d="M1210 1530 c-1 -25 -4 -37 -7 -27 -2 9 -14 17 -26 17 -12 0 -40 7 -62 15 -22 8 -74 14 -115 14 -41 0 -93 -6 -115 -14 -22 -8 -50 -15 -62 -15 -15 0 -23 -6 -24 -17 0 -15 -2 -15 -8 2 -7 18 -9 16 -15 -12 -5 -22 -24 -46 -57 -74 l-50 -42 28 -18 c15 -11 40 -19 56 -19 32 0 32 0 13 -130 -21 -134 -36 -167 -91 -190 -25 -11 -57 -31 -72 -45 -16 -14 -30 -25 -34 -25 -16 0 -49 -82 -48 -121 l1 -44 13 48 c21 75 55 119 122 155 32 17 66 39 75 49 32 35 55 108 60 187 6 89 17 106 68 98 l30 -4 -5 -82 c-3 -53 -2 -72 4 -56 5 14 9 49 10 78 l1 52 44 0 44 0 -5 -62 c-5 -45 -3 -59 5 -54 7 4 12 31 12 62 l0 54 45 0 45 0 0 -60 c0 -33 4 -60 10 -60 6 0 10 27 10 61 0 52 2 60 16 55 9 -3 20 -6 25 -6 5 0 10 -33 10 -72 l2 -73 9 73 c9 67 12 73 32 70 19 -3 21 -9 22 -88 1 -113 16 -161 62 -202 96 -86 130 -127 152 -184 64 -167 -25 -343 -215 -429 -72 -33 -199 -59 -254 -52 -73 9 -216 61 -259 95 -75 60 -153 177 -177 266 l-14 51 0 -43 c-1 -25 8 -60 20 -85 21 -41 91 -136 133 -181 27 -30 138 -86 170 -86 13 0 26 -6 29 -12 6 -21 254 -18 298 4 19 9 59 28 89 41 100 43 158 102 198 199 24 57 32 92 32 137 0 33 -4 62 -9 65 -5 3 -12 17 -15 32 -9 33 -55 105 -80 123 -11 8 -42 35 -69 61 l-49 46 -10 124 c-6 69 -15 131 -20 138 -8 9 0 12 36 12 28 0 53 6 62 14 12 12 5 22 -47 68 -56 50 -61 58 -69 108 l-8 55 -2 -45z m-90 -14 c19 -9 53 -32 75 -51 38 -33 39 -35 18 -41 -14 -4 -20 -11 -16 -21 5 -12 -1 -12 -33 3 -46 19 -150 22 -183 5 -20 -11 -23 -10 -28 8 -7 26 -23 28 -23 2 0 -23 -45 -34 -61 -14 -9 10 -15 10 -25 2 -8 -6 -27 -9 -44 -7 -16 2 -31 1 -32 -2 -2 -4 -11 -4 -21 -1 -15 6 -5 17 55 63 40 31 89 61 108 67 49 15 168 8 210 -13z m161 -123 c25 -26 29 -34 14 -29 -11 4 -32 10 -47 13 -27 5 -38 30 -21 46 11 12 18 8 54 -30z m-209 -48 c-3 -20 -10 -25 -32 -25 -41 0 -60 10 -60 31 0 16 8 19 49 19 46 0 48 -1 43 -25z m86 -12 c-10 -2 -26 -2 -35 0 -10 3 -2 5 17 5 19 0 27 -2 18 -5z"/>
 <path d="M1033 973 c-32 -12 1 -103 37 -103 18 0 22 47 6 79 -17 31 -21 34 -43 24z m27 -58 c0 -17 -2 -17 -10 -5 -5 8 -10 24 -10 35 0 17 2 17 10 5 5 -8 10 -24 10 -35z"/>
 <path d="M950 948 c0 -13 6 -33 14 -44 19 -25 39 -7 34 32 -2 21 -9 30 -25 32 -18 3 -23 -1 -23 -20z"/>
 <path d="M776 807 c-21 -21 -26 -36 -26 -77 0 -54 19 -103 46 -118 22 -13 83 2 106 26 25 25 41 93 28 126 -11 31 -47 55 -93 63 -29 4 -40 1 -61 -20z m117 -25 c15 -13 18 -27 15 -64 -3 -26 -11 -54 -18 -63 -14 -17 -65 -20 -75 -5 -9 15 -27 12 -19 -2 5 -10 4 -10 -6 -1 -8 7 -16 39 -18 72 -4 52 -2 60 19 75 28 20 73 15 102 -12z"/>
 <path d="M1109 801 c-19 -16 -24 -29 -24 -68 0 -97 80 -157 133 -100 75 80 48 187 -48 187 -22 0 -47 -8 -61 -19z m109 -17 c33 -23 31 -92 -4 -128 -15 -14 -34 -26 -44 -26 -29 0 -62 46 -67 93 -5 38 -2 47 18 61 30 20 68 21 97 0z"/>
 <path d="M1372 608 c-7 -7 -11 -28 -10 -47 l1 -36 4 35 c3 19 9 41 15 47 13 16 6 17 -10 1z"/>
 </g>
<g id="layer110" fill="#d08b78" stroke="none">
 <path d="M130 1990 c0 -32 26 -122 47 -160 30 -56 76 -82 193 -109 136 -31 323 -98 343 -123 24 -29 33 -15 42 71 4 36 20 108 36 161 17 52 34 112 38 133 l9 37 -354 0 c-217 0 -354 -4 -354 -10z"/>
 <path d="M930 1977 c0 -13 6 -45 14 -70 14 -46 13 -47 -12 -66 l-25 -18 20 -29 c12 -17 33 -36 48 -44 23 -12 29 -12 53 2 15 9 34 28 42 43 14 25 14 27 -9 46 -21 17 -23 24 -16 67 3 26 9 57 12 70 5 21 3 22 -61 22 -63 0 -66 -1 -66 -23z"/>
 <path d="M1171 1961 c5 -22 20 -75 34 -118 13 -43 30 -115 36 -160 15 -102 21 -114 46 -85 20 25 207 92 343 123 117 27 163 53 193 109 21 38 47 128 47 160 0 6 -137 10 -354 10 l-354 0 9 -39z"/>
 <path d="M1210 1530 c-1 -25 -4 -37 -7 -27 -2 9 -14 17 -26 17 -12 0 -40 7 -62 15 -22 8 -74 14 -115 14 -41 0 -93 -6 -115 -14 -22 -8 -50 -15 -62 -15 -15 0 -23 -6 -24 -17 0 -15 -2 -15 -8 2 -7 18 -9 16 -15 -12 -5 -22 -24 -46 -57 -74 l-50 -42 28 -18 c15 -11 40 -19 56 -19 32 0 32 0 13 -130 -21 -134 -36 -167 -91 -190 -25 -11 -57 -31 -72 -45 -16 -14 -30 -25 -34 -25 -15 0 -49 -82 -48 -116 l0 -39 13 40 c28 88 68 134 143 164 68 28 102 93 114 225 5 49 13 94 18 99 4 4 25 5 45 2 27 -6 36 -12 37 -29 1 -17 2 -17 6 -3 3 13 15 17 50 17 44 0 45 -1 40 -28 -3 -15 -2 -34 4 -42 6 -11 9 -2 9 28 l0 43 47 -3 47 -3 -3 -57 c-1 -36 2 -58 8 -58 7 0 11 24 11 59 0 57 1 59 25 57 21 -1 25 -6 26 -31 1 -29 1 -29 8 -5 5 18 14 25 31 25 24 0 25 -2 27 -86 3 -135 12 -157 96 -233 149 -133 176 -250 96 -414 -41 -84 -127 -149 -249 -189 -117 -38 -204 -38 -323 1 -106 35 -167 79 -230 168 -55 78 -67 101 -83 158 l-12 45 -1 -38 c-1 -21 9 -57 20 -80 21 -41 91 -136 133 -181 27 -30 138 -86 170 -86 13 0 26 -6 29 -12 6 -21 254 -18 298 4 19 9 59 28 89 41 100 43 158 102 198 199 24 57 32 92 32 137 0 33 -4 62 -9 65 -5 3 -12 17 -15 32 -9 33 -55 105 -80 123 -11 8 -42 35 -69 61 l-49 46 -10 124 c-6 69 -15 131 -20 138 -8 9 0 12 36 12 28 0 53 6 62 14 12 12 5 22 -47 68 -56 50 -61 58 -69 108 l-8 55 -2 -45z m-90 -14 c19 -9 53 -32 75 -51 38 -33 39 -35 18 -41 -14 -4 -20 -11 -16 -21 5 -12 -1 -12 -33 3 -46 19 -150 22 -183 5 -20 -11 -23 -10 -28 8 -7 26 -23 28 -23 2 0 -23 -45 -34 -61 -14 -9 10 -15 10 -25 2 -8 -6 -27 -9 -44 -7 -16 2 -31 1 -32 -2 -2 -4 -11 -4 -21 -1 -15 6 -5 17 55 63 40 31 89 61 108 67 49 15 168 8 210 -13z m161 -123 c25 -26 29 -34 14 -29 -11 4 -32 10 -47 13 -27 5 -38 30 -21 46 11 12 18 8 54 -30z m-205 -39 c-3 -9 -6 -20 -6 -25 0 -10 -50 -12 -74 -3 -9 3 -16 15 -16 25 0 16 8 19 51 19 43 0 50 -3 45 -16z m82 -21 c-10 -2 -26 -2 -35 0 -10 3 -2 5 17 5 19 0 27 -2 18 -5z"/>
 <path d="M1163 1195 c0 -22 2 -30 4 -17 2 12 2 30 0 40 -3 9 -5 -1 -4 -23z"/>
 <path d="M1032 968 c-19 -19 -14 -55 10 -78 19 -18 24 -18 37 -6 12 13 12 20 0 52 -16 41 -29 50 -47 32z m34 -65 c-11 -11 -26 10 -26 35 l1 27 15 -28 c9 -16 13 -31 10 -34z"/>
 <path d="M950 948 c0 -13 7 -33 15 -44 13 -16 16 -17 25 -4 18 26 8 65 -17 68 -18 3 -23 -1 -23 -20z"/>
 <path d="M788 815 c-15 -9 -31 -27 -34 -41 -10 -38 1 -110 21 -140 15 -23 21 -25 63 -20 26 3 54 14 65 25 22 21 36 84 27 120 -12 52 -93 83 -142 56z m85 -16 c30 -16 37 -28 37 -71 0 -79 -39 -114 -89 -81 -22 14 -24 14 -18 -1 10 -26 -9 -18 -21 9 -18 38 -15 120 4 139 18 19 56 21 87 5z"/>
 <path d="M1110 800 c-11 -11 -22 -31 -26 -45 -9 -35 22 -112 53 -132 78 -51 167 104 98 172 -31 32 -96 34 -125 5z m94 -4 c25 -10 35 -22 40 -46 8 -45 -20 -102 -58 -115 -25 -9 -31 -6 -57 23 -21 24 -29 42 -29 70 0 42 6 54 35 70 26 15 29 15 69 -2z"/>
 <path d="M1364 596 c-3 -8 -4 -27 -2 -43 3 -23 5 -20 9 15 5 43 2 53 -7 28z"/>
 </g>
<g id="layer111" fill="#939292" stroke="none">
 <path d="M130 1990 c0 -32 26 -122 47 -160 30 -56 76 -82 193 -109 136 -31 323 -98 343 -123 24 -29 33 -15 42 71 4 36 20 108 36 161 17 52 34 112 38 133 l9 37 -354 0 c-217 0 -354 -4 -354 -10z"/>
 <path d="M930 1977 c0 -13 6 -45 14 -70 14 -46 13 -47 -12 -66 l-25 -18 20 -29 c12 -17 33 -36 48 -44 23 -12 29 -12 53 2 15 9 34 28 42 43 14 25 14 27 -9 46 -21 17 -23 24 -16 67 3 26 9 57 12 70 5 21 3 22 -61 22 -63 0 -66 -1 -66 -23z"/>
 <path d="M1171 1961 c5 -22 20 -75 34 -118 13 -43 30 -115 36 -160 15 -102 21 -114 46 -85 20 25 207 92 343 123 117 27 163 53 193 109 21 38 47 128 47 160 0 6 -137 10 -354 10 l-354 0 9 -39z"/>
 <path d="M978 1543 c12 -2 32 -2 45 0 12 2 2 4 -23 4 -25 0 -35 -2 -22 -4z"/>
 <path d="M832 1500 c-41 -30 -42 -30 -43 -8 -1 20 -2 19 -14 -8 -8 -17 -35 -48 -60 -69 l-47 -38 29 -18 c15 -10 40 -19 56 -19 32 0 32 0 13 -130 -21 -134 -36 -167 -91 -190 -25 -11 -57 -31 -72 -45 -16 -14 -30 -25 -34 -25 -15 0 -49 -82 -48 -116 l0 -39 13 40 c28 88 68 134 143 164 68 28 102 93 114 225 5 49 13 94 18 99 4 4 25 5 45 2 27 -6 36 -12 37 -29 1 -17 2 -17 6 -3 3 13 15 17 50 17 44 0 45 -1 40 -28 -3 -15 -2 -34 4 -42 6 -11 9 -2 9 28 l0 43 47 -3 47 -3 -3 -57 c-1 -36 2 -58 8 -58 7 0 11 24 11 59 0 57 1 59 25 57 21 -1 25 -6 26 -31 1 -29 1 -29 8 -5 5 18 14 25 31 25 24 0 25 -2 27 -86 3 -135 12 -157 96 -233 149 -133 176 -250 96 -414 -41 -84 -127 -149 -249 -189 -117 -38 -204 -38 -323 1 -106 35 -167 79 -230 168 -55 78 -67 101 -83 158 l-12 45 -1 -38 c-1 -21 9 -57 20 -80 21 -41 91 -136 133 -181 27 -30 138 -86 170 -86 13 0 26 -6 29 -12 6 -21 254 -18 298 4 19 9 59 28 89 41 100 43 158 102 198 199 24 57 32 92 32 137 0 33 -4 62 -9 65 -5 3 -12 17 -15 32 -9 33 -55 105 -80 123 -11 8 -42 35 -69 61 l-49 46 -10 124 c-6 69 -15 131 -20 138 -8 9 0 12 36 12 28 0 53 6 62 14 12 13 6 21 -45 66 -42 36 -62 62 -69 88 l-10 37 -1 -33 -1 -32 -42 30 c-22 16 -45 30 -51 30 -5 0 7 -11 28 -25 61 -42 177 -137 172 -141 -2 -3 -25 1 -50 8 -31 8 -48 19 -52 32 -6 18 -8 19 -12 4 -4 -16 -7 -16 -44 -2 -40 16 -154 16 -191 0 -12 -6 -17 -2 -20 16 -4 23 -5 23 -16 -4 -12 -28 -45 -38 -57 -18 -3 6 -13 10 -21 10 -8 0 -13 -4 -10 -9 3 -5 -16 -7 -42 -5 -26 2 -55 3 -65 4 -19 0 38 50 120 106 20 13 31 24 26 24 -6 0 -29 -14 -51 -30z m242 -154 c-5 -20 -12 -26 -34 -26 -41 0 -60 10 -60 31 0 14 9 18 48 21 26 2 48 2 50 2 2 -1 0 -13 -4 -28z m84 -13 c-10 -2 -26 -2 -35 0 -10 3 -2 5 17 5 19 0 27 -2 18 -5z"/>
 <path d="M1163 1195 c0 -22 2 -30 4 -17 2 12 2 30 0 40 -3 9 -5 -1 -4 -23z"/>
 <path d="M1032 968 c-19 -19 -14 -55 10 -78 19 -18 24 -18 37 -6 12 13 12 20 0 52 -16 41 -29 50 -47 32z m34 -65 c-11 -11 -26 10 -26 35 l1 27 15 -28 c9 -16 13 -31 10 -34z"/>
 <path d="M950 948 c0 -13 7 -33 15 -44 13 -16 16 -17 25 -4 18 26 8 65 -17 68 -18 3 -23 -1 -23 -20z"/>
 <path d="M788 815 c-15 -9 -31 -27 -34 -41 -10 -38 1 -110 21 -140 15 -23 21 -25 63 -20 26 3 54 14 65 25 22 21 36 84 27 120 -12 52 -93 83 -142 56z m85 -16 c30 -16 37 -28 37 -71 0 -79 -39 -114 -89 -81 -22 14 -24 14 -18 -1 10 -26 -9 -18 -21 9 -18 38 -15 120 4 139 18 19 56 21 87 5z"/>
 <path d="M1110 800 c-11 -11 -22 -31 -26 -45 -9 -35 22 -112 53 -132 78 -51 167 104 98 172 -31 32 -96 34 -125 5z m94 -4 c25 -10 35 -22 40 -46 8 -45 -20 -102 -58 -115 -25 -9 -31 -6 -57 23 -21 24 -29 42 -29 70 0 42 6 54 35 70 26 15 29 15 69 -2z"/>
 <path d="M1364 596 c-3 -8 -4 -27 -2 -43 3 -23 5 -20 9 15 5 43 2 53 -7 28z"/>
 </g>
<g id="layer112" fill="#c16d56" stroke="none">
 <path d="M130 1990 c0 -32 26 -122 47 -160 30 -56 76 -82 193 -109 136 -31 323 -98 343 -123 24 -29 33 -15 42 71 4 36 18 100 30 141 13 41 30 101 38 133 l15 57 -354 0 c-217 0 -354 -4 -354 -10z"/>
 <path d="M930 1977 c0 -13 6 -45 14 -70 14 -46 14 -47 -13 -66 l-26 -20 40 -40 c21 -23 46 -41 55 -41 18 0 80 60 80 77 0 7 -10 19 -21 27 -19 13 -21 21 -15 63 4 26 10 58 13 71 5 21 3 22 -61 22 -63 0 -66 -1 -66 -23z"/>
 <path d="M1177 1943 c8 -32 25 -92 38 -133 12 -41 26 -105 30 -141 9 -86 18 -100 42 -71 20 25 207 92 343 123 117 27 163 53 193 109 21 38 47 128 47 160 0 6 -137 10 -354 10 l-354 0 15 -57z"/>
 <path d="M978 1543 c12 -2 32 -2 45 0 12 2 2 4 -23 4 -25 0 -35 -2 -22 -4z"/>
 <path d="M832 1500 c-41 -30 -42 -30 -43 -8 -1 20 -2 19 -14 -8 -8 -17 -35 -48 -60 -69 l-47 -38 29 -18 c15 -10 40 -19 56 -19 33 0 33 -6 12 -140 -21 -127 -36 -157 -91 -180 -24 -11 -56 -31 -71 -45 -16 -14 -30 -25 -34 -25 -14 0 -49 -81 -48 -111 1 -31 1 -32 8 -9 26 84 77 143 152 174 67 28 96 87 109 220 5 49 13 93 19 99 15 15 81 -1 81 -21 1 -15 2 -15 10 -2 5 10 23 15 46 15 32 0 39 -4 44 -25 l6 -25 6 28 c4 20 1 30 -13 38 -32 17 -11 37 42 41 48 3 50 2 47 -22 -2 -19 -10 -26 -33 -29 -28 -5 -28 -5 10 -10 l40 -6 -3 -57 c-2 -36 1 -58 7 -58 7 0 11 25 11 60 0 57 1 61 23 58 12 -2 27 -7 34 -11 6 -4 13 -3 15 3 1 5 13 7 25 4 20 -6 22 -12 22 -92 1 -138 8 -156 100 -242 148 -139 173 -259 87 -416 -25 -46 -49 -71 -104 -111 -58 -42 -149 -82 -194 -87 -3 -1 -10 -4 -14 -8 -13 -14 44 -8 73 7 15 8 56 26 91 41 34 15 62 30 62 34 0 4 18 19 40 34 85 56 147 255 106 340 -9 19 -16 37 -16 40 0 13 -56 91 -74 105 -11 8 -42 35 -69 61 l-49 46 -9 90 c-5 49 -9 104 -9 123 1 18 -4 39 -11 47 -10 12 -4 14 35 14 28 0 53 6 62 14 12 13 6 21 -45 66 -42 36 -62 62 -69 88 l-10 37 -1 -33 -1 -32 -42 30 c-22 16 -45 30 -51 30 -5 0 7 -11 28 -25 61 -42 177 -137 172 -141 -2 -3 -25 1 -50 8 -31 8 -48 19 -52 32 -6 18 -8 19 -12 4 -4 -16 -7 -16 -44 -2 -40 16 -154 16 -191 0 -12 -6 -17 -2 -20 16 -4 23 -5 23 -16 -4 -12 -28 -45 -38 -57 -18 -3 6 -13 10 -21 10 -8 0 -13 -4 -10 -9 3 -5 -16 -7 -42 -5 -26 2 -55 3 -65 4 -19 0 38 50 120 106 20 13 31 24 26 24 -6 0 -29 -14 -51 -30z m326 -167 c-10 -2 -26 -2 -35 0 -10 3 -2 5 17 5 19 0 27 -2 18 -5z"/>
 <path d="M1032 968 c-19 -19 -14 -55 10 -78 19 -18 24 -18 37 -6 12 13 12 20 0 52 -16 41 -29 50 -47 32z m38 -61 c0 -16 -3 -17 -15 -7 -8 7 -15 24 -15 39 1 25 1 25 15 7 8 -11 15 -29 15 -39z"/>
 <path d="M954 939 c8 -43 24 -59 37 -39 17 27 6 65 -20 68 -22 4 -23 1 -17 -29z m29 -12 c-3 -5 -9 -3 -14 4 -4 7 -5 17 -2 22 3 5 9 3 14 -4 4 -7 5 -17 2 -22z"/>
 <path d="M795 819 c-11 -6 -26 -19 -32 -27 -19 -23 -16 -101 5 -142 14 -30 22 -35 52 -36 42 -1 86 19 100 46 6 12 10 44 8 72 -2 41 -8 55 -28 69 -33 24 -80 32 -105 18z m59 -9 c7 0 25 -11 39 -24 22 -20 25 -30 21 -67 -3 -23 -10 -51 -15 -61 -12 -22 -57 -34 -72 -19 -16 16 -27 13 -21 -6 5 -15 3 -15 -10 2 -53 64 -28 201 32 180 8 -3 19 -5 26 -5z"/>
 <path d="M1122 808 c-13 -7 -27 -27 -33 -49 -10 -32 -9 -43 11 -84 38 -79 97 -84 140 -13 59 96 -19 193 -118 146z m87 -13 c74 -38 25 -181 -55 -161 -52 13 -75 130 -32 160 28 20 51 20 87 1z"/>
 <path d="M521 707 c-1 -21 8 -56 19 -78 21 -40 95 -142 134 -184 27 -29 139 -85 170 -85 13 0 26 -6 29 -12 3 -10 8 -10 16 -2 9 8 -3 15 -46 28 -32 9 -67 22 -78 28 -97 52 -210 198 -234 303 l-9 40 -1 -38z"/>
 <path d="M1364 596 c-3 -8 -4 -27 -2 -43 3 -23 5 -20 9 15 5 43 2 53 -7 28z"/>
 <path d="M910 340 c0 -5 21 -10 47 -10 55 0 54 5 -4 14 -27 4 -43 2 -43 -4z"/>
 <path d="M1050 340 c-24 -8 -23 -8 8 -9 17 -1 32 4 32 9 0 11 -5 11 -40 0z"/>
 </g>
<g id="layer113" fill="#828280" stroke="none">
 <path d="M130 1990 c0 -32 26 -122 47 -160 30 -56 76 -82 193 -109 136 -31 323 -98 343 -123 24 -29 33 -15 42 71 4 36 18 100 30 141 13 41 30 101 38 133 l15 57 -354 0 c-217 0 -354 -4 -354 -10z"/>
 <path d="M930 1977 c0 -13 6 -45 14 -70 14 -46 14 -47 -13 -66 l-26 -20 40 -40 c21 -23 46 -41 55 -41 18 0 80 60 80 77 0 7 -10 19 -21 27 -19 13 -21 21 -15 63 4 26 10 58 13 71 5 21 3 22 -61 22 -63 0 -66 -1 -66 -23z"/>
 <path d="M1177 1943 c8 -32 25 -92 38 -133 12 -41 26 -105 30 -141 9 -86 18 -100 42 -71 20 25 207 92 343 123 117 27 163 53 193 109 21 38 47 128 47 160 0 6 -137 10 -354 10 l-354 0 15 -57z"/>
 <path d="M941 1413 c-1 -19 -7 -23 -34 -23 -18 0 -39 6 -46 13 -11 10 -12 9 -6 -2 6 -11 -6 -12 -67 -7 -63 6 -77 4 -89 -10 -11 -14 -11 -18 6 -30 10 -8 31 -14 47 -14 34 0 34 -6 13 -140 -21 -127 -36 -157 -91 -180 -24 -11 -56 -31 -71 -45 -16 -14 -30 -25 -34 -25 -14 0 -49 -81 -48 -111 1 -31 1 -32 8 -9 26 84 77 143 152 174 67 28 96 87 109 220 5 49 13 93 19 99 15 15 81 -1 81 -21 1 -15 2 -15 10 -2 5 10 23 15 46 15 32 0 39 -4 44 -25 l6 -25 6 27 c4 20 0 31 -13 40 -27 19 -9 40 35 40 20 0 33 4 30 9 -3 5 2 6 11 3 10 -4 15 -16 13 -33 -2 -20 -9 -27 -33 -30 -28 -5 -28 -5 10 -10 l40 -6 -3 -57 c-2 -36 1 -58 7 -58 7 0 11 25 11 60 0 57 1 61 23 58 12 -2 27 -7 34 -11 6 -4 13 -3 15 3 1 5 13 7 25 4 20 -6 22 -12 22 -92 1 -138 8 -156 100 -242 148 -139 173 -259 87 -416 -25 -46 -49 -71 -104 -111 -58 -42 -149 -82 -194 -87 -3 -1 -10 -4 -14 -9 -13 -13 44 -7 73 8 15 8 56 26 91 41 34 15 62 30 62 34 0 4 18 19 40 34 85 56 147 255 106 340 -9 19 -16 37 -16 40 0 13 -56 91 -74 105 -11 8 -42 36 -70 62 l-50 47 -8 88 c-4 49 -8 104 -7 123 0 18 -5 39 -12 47 -10 12 -3 14 40 14 71 0 68 23 -4 40 -31 7 -55 19 -55 26 0 7 -5 16 -12 20 -8 5 -9 2 -5 -9 8 -21 9 -20 -43 -2 -48 17 -156 20 -165 5 -10 -16 -43 -11 -48 8 -4 13 -5 11 -6 -5z m217 -80 c-10 -2 -26 -2 -35 0 -10 3 -2 5 17 5 19 0 27 -2 18 -5z"/>
 <path d="M1032 968 c-19 -19 -14 -55 10 -78 19 -18 24 -18 37 -6 12 13 12 20 0 52 -16 41 -29 50 -47 32z m38 -61 c0 -16 -3 -17 -15 -7 -8 7 -15 24 -15 39 1 25 1 25 15 7 8 -11 15 -29 15 -39z"/>
 <path d="M954 939 c8 -43 24 -59 37 -39 17 27 6 65 -20 68 -22 4 -23 1 -17 -29z m29 -12 c-3 -5 -9 -3 -14 4 -4 7 -5 17 -2 22 3 5 9 3 14 -4 4 -7 5 -17 2 -22z"/>
 <path d="M795 819 c-11 -6 -26 -19 -32 -27 -19 -23 -16 -101 5 -142 14 -30 22 -35 52 -36 42 -1 86 19 100 46 6 12 10 44 8 72 -2 41 -8 55 -28 69 -33 24 -80 32 -105 18z m59 -9 c7 0 25 -11 39 -24 22 -20 25 -30 21 -67 -3 -23 -10 -51 -15 -61 -12 -22 -57 -34 -72 -19 -16 16 -27 13 -21 -6 5 -15 3 -15 -10 2 -53 64 -28 201 32 180 8 -3 19 -5 26 -5z"/>
 <path d="M1122 808 c-13 -7 -27 -27 -33 -49 -10 -32 -9 -43 11 -84 38 -79 97 -84 140 -13 59 96 -19 193 -118 146z m87 -13 c74 -38 25 -181 -55 -161 -52 13 -75 130 -32 160 28 20 51 20 87 1z"/>
 <path d="M521 707 c-1 -21 8 -56 19 -78 21 -40 95 -142 134 -184 27 -29 139 -85 170 -85 13 0 26 -6 29 -12 3 -10 8 -10 16 -2 9 8 -3 15 -46 28 -32 9 -67 22 -78 28 -97 52 -210 198 -234 303 l-9 40 -1 -38z"/>
 <path d="M1364 596 c-3 -8 -4 -27 -2 -43 3 -23 5 -20 9 15 5 43 2 53 -7 28z"/>
 <path d="M910 340 c0 -5 21 -10 47 -10 55 0 54 5 -4 14 -27 4 -43 2 -43 -4z"/>
 <path d="M1050 340 c-24 -8 -23 -8 8 -9 17 -1 32 4 32 9 0 11 -5 11 -40 0z"/>
 </g>
<g id="layer114" fill="#828081" stroke="none">
 <path d="M130 1990 c0 -32 26 -122 47 -160 30 -56 76 -82 193 -109 134 -31 323 -98 343 -122 10 -12 20 -19 23 -17 3 3 12 45 19 94 8 48 24 115 34 148 11 34 27 87 35 119 l14 57 -354 0 c-217 0 -354 -4 -354 -10z"/>
 <path d="M930 1977 c0 -13 6 -45 14 -70 14 -46 14 -47 -13 -66 l-26 -20 40 -40 c21 -23 46 -41 55 -41 18 0 80 60 80 77 0 7 -10 19 -21 27 -19 13 -21 21 -16 60 4 25 9 57 13 71 6 25 6 25 -60 25 -63 0 -66 -1 -66 -23z"/>
 <path d="M1177 1943 c8 -32 25 -92 38 -133 12 -41 26 -105 30 -141 9 -86 18 -100 42 -71 20 25 207 92 343 123 117 27 163 53 193 109 21 38 47 128 47 160 0 6 -137 10 -354 10 l-354 0 15 -57z"/>
 <path d="M941 1413 c-1 -19 -7 -23 -34 -23 -18 0 -39 6 -46 13 -11 10 -12 9 -6 -2 6 -11 -6 -12 -67 -7 -63 6 -77 4 -89 -10 -11 -14 -11 -18 6 -30 10 -8 31 -14 45 -14 15 0 29 -2 31 -5 9 -8 -31 -229 -47 -263 -11 -23 -29 -39 -60 -52 -24 -11 -56 -31 -71 -45 -16 -14 -30 -25 -34 -25 -14 0 -49 -81 -48 -111 1 -31 1 -32 8 -9 26 85 77 143 153 174 64 27 94 89 108 225 5 46 13 88 19 94 16 16 81 -1 81 -21 1 -15 2 -15 10 -2 5 9 25 17 45 18 31 2 38 -1 43 -20 5 -20 6 -21 12 -3 4 13 1 25 -12 35 -26 21 -8 42 36 42 20 0 33 4 30 9 -3 5 2 6 11 3 10 -4 15 -16 13 -33 -2 -20 -9 -27 -33 -30 -28 -5 -28 -5 10 -10 l40 -6 -3 -57 c-1 -35 2 -58 8 -58 6 0 10 26 10 60 0 57 1 60 24 60 14 0 28 -5 32 -11 4 -8 8 -8 13 0 4 5 16 8 28 5 20 -6 22 -13 22 -92 1 -138 8 -156 99 -242 91 -85 104 -105 127 -183 21 -72 9 -145 -38 -231 -26 -48 -49 -72 -105 -113 -58 -42 -149 -82 -194 -87 -3 -1 -10 -4 -14 -9 -13 -13 44 -7 73 8 15 8 56 26 91 41 34 15 62 30 62 34 0 4 18 19 40 34 58 39 113 155 118 254 3 43 0 72 -6 72 -5 0 -12 13 -15 30 -7 35 -54 109 -81 129 -11 8 -42 36 -70 62 l-50 47 -8 88 c-4 49 -8 104 -7 123 0 18 -5 39 -12 47 -10 12 -3 14 40 14 71 0 68 23 -4 40 -31 7 -55 19 -55 26 0 7 -5 16 -12 20 -8 5 -9 2 -5 -9 8 -21 9 -20 -43 -2 -48 17 -156 20 -165 5 -10 -16 -43 -11 -48 8 -4 13 -5 11 -6 -5z m217 -80 c-10 -2 -26 -2 -35 0 -10 3 -2 5 17 5 19 0 27 -2 18 -5z"/>
 <path d="M1031 966 c-17 -20 -6 -68 18 -83 15 -10 22 -9 31 3 10 11 10 22 -1 51 -16 42 -31 50 -48 29z m39 -59 c0 -10 -5 -15 -11 -12 -14 9 -28 48 -21 59 7 12 32 -24 32 -47z"/>
 <path d="M950 956 c0 -24 19 -66 29 -66 14 0 23 36 16 60 -7 23 -45 28 -45 6z m32 -34 c-4 -13 -7 -12 -12 4 -4 10 -5 23 -2 28 7 13 21 -16 14 -32z"/>
 <path d="M795 819 c-11 -7 -26 -19 -32 -27 -19 -23 -16 -101 5 -142 14 -30 22 -35 52 -36 42 -1 86 19 100 46 6 12 10 44 8 72 -2 41 -8 54 -28 69 -33 23 -80 31 -105 18z m59 -9 c48 -18 65 -44 60 -91 -3 -24 -10 -51 -15 -61 -12 -23 -52 -33 -78 -19 -17 10 -20 9 -14 -5 4 -11 2 -15 -5 -11 -6 4 -18 27 -27 51 -14 35 -15 51 -5 84 9 36 30 61 52 62 4 0 18 -4 32 -10z"/>
 <path d="M1180 807 c58 -16 78 -51 61 -108 -22 -73 -95 -90 -126 -29 -20 39 -19 99 2 122 16 18 16 18 0 12 -9 -3 -22 -23 -28 -44 -10 -33 -9 -44 11 -85 38 -79 97 -84 140 -13 46 75 10 159 -67 157 l-38 -1 45 -11z"/>
 <path d="M521 702 c-1 -18 8 -51 19 -73 21 -40 95 -142 134 -184 27 -29 139 -85 170 -85 13 0 26 -6 29 -12 3 -10 8 -10 16 -2 9 8 -3 15 -46 28 -32 9 -67 22 -78 28 -97 52 -196 177 -231 293 l-12 40 -1 -33z"/>
 <path d="M1362 560 c0 -19 2 -27 5 -17 2 9 2 25 0 35 -3 9 -5 1 -5 -18z"/>
 <path d="M910 339 c0 -5 21 -9 47 -9 25 0 44 2 42 4 -10 8 -89 13 -89 5z"/>
 <path d="M1050 340 c-24 -8 -23 -8 8 -9 17 -1 32 4 32 9 0 11 -5 11 -40 0z"/>
 </g>
<g id="layer115" fill="#727171" stroke="none">
 <path d="M130 1990 c0 -32 26 -122 47 -160 30 -56 76 -82 193 -109 134 -31 323 -98 343 -122 10 -12 20 -19 23 -17 3 3 11 45 19 93 8 48 25 123 39 168 13 45 29 99 34 120 l10 37 -354 0 c-217 0 -354 -4 -354 -10z"/>
 <path d="M930 1977 c0 -13 6 -45 14 -70 14 -46 14 -47 -13 -66 l-26 -20 40 -40 c21 -23 46 -41 55 -41 18 0 80 60 80 78 0 6 -10 16 -21 23 -19 10 -21 17 -15 63 3 28 9 61 12 74 6 21 4 22 -60 22 -63 0 -66 -1 -66 -23z"/>
 <path d="M1172 1963 c5 -21 21 -75 34 -120 14 -45 31 -120 39 -168 8 -48 16 -90 19 -93 3 -2 13 5 23 17 20 24 209 91 343 122 117 27 163 53 193 109 21 38 47 128 47 160 0 6 -137 10 -354 10 l-354 0 10 -37z"/>
 <path d="M941 1413 c-1 -19 -7 -23 -34 -23 -18 0 -39 6 -46 13 -11 10 -12 9 -6 -2 6 -11 -6 -12 -67 -7 -63 6 -77 4 -89 -10 -11 -14 -11 -18 6 -30 10 -8 31 -14 46 -14 15 0 30 -3 32 -7 4 -9 -30 -221 -40 -243 -3 -8 -7 -17 -7 -20 -4 -18 -24 -34 -63 -51 -24 -10 -51 -26 -59 -34 -8 -8 -23 -20 -33 -27 -26 -18 -61 -92 -60 -125 1 -26 2 -26 11 7 15 58 60 113 118 146 104 59 123 93 140 246 5 45 14 86 19 91 13 13 81 -1 81 -15 0 -9 3 -9 12 0 7 7 27 12 46 12 26 0 35 -5 40 -22 5 -21 6 -21 12 -3 4 13 1 25 -12 35 -26 21 -8 42 36 42 20 0 33 4 30 9 -3 5 2 6 11 3 26 -10 15 -57 -15 -65 -24 -7 -24 -7 6 -8 16 -1 35 -6 42 -13 9 -9 12 -9 12 0 0 7 19 10 58 9 l57 -2 2 -70 c4 -167 4 -168 108 -269 83 -82 94 -97 115 -159 19 -60 21 -75 11 -128 -24 -138 -125 -253 -263 -300 -38 -13 -68 -26 -68 -30 0 -7 116 33 160 56 60 31 127 104 159 175 35 76 50 168 33 203 -6 12 -20 45 -32 72 -14 33 -43 71 -87 113 -37 34 -70 62 -74 62 -4 0 -10 8 -14 18 -10 23 -26 157 -25 211 0 24 -5 50 -11 57 -9 12 -3 14 40 14 71 0 68 23 -4 40 -31 7 -55 19 -55 26 0 7 -5 16 -12 20 -8 5 -9 2 -5 -9 8 -21 9 -20 -43 -2 -48 17 -156 20 -165 5 -10 -16 -43 -11 -48 8 -4 13 -5 11 -6 -5z m217 -80 c-10 -2 -26 -2 -35 0 -10 3 -2 5 17 5 19 0 27 -2 18 -5z"/>
 <path d="M1097 1260 c-4 -14 -6 -36 -6 -50 1 -18 4 -14 10 14 10 44 6 75 -4 36z"/>
 <path d="M1031 966 c-18 -22 -4 -74 21 -82 12 -3 24 -1 28 6 11 17 0 57 -20 75 -15 14 -19 14 -29 1z m34 -37 c4 -17 5 -33 2 -36 -9 -8 -39 45 -32 57 11 18 23 11 30 -21z"/>
 <path d="M954 957 c-6 -17 12 -67 25 -67 5 0 12 12 15 26 10 38 -27 75 -40 41z m30 -14 c4 -9 2 -21 -4 -27 -7 -7 -10 -7 -10 1 0 6 -3 18 -6 27 -3 9 -2 16 4 16 5 0 13 -8 16 -17z"/>
 <path d="M771 794 c-27 -35 -27 -93 0 -145 20 -39 22 -41 57 -34 62 11 72 15 87 45 24 46 19 107 -10 135 -13 14 -32 25 -42 24 -15 0 -14 -2 4 -9 12 -5 29 -20 38 -34 21 -31 12 -99 -16 -127 -22 -22 -59 -25 -78 -6 -10 10 -11 8 -5 -8 7 -18 6 -18 -9 -6 -23 18 -40 87 -32 127 3 19 16 40 28 49 12 8 16 15 10 15 -6 0 -21 -12 -32 -26z"/>
 <path d="M1172 811 c49 -10 66 -26 74 -66 7 -38 -14 -85 -48 -107 -20 -14 -28 -14 -50 -2 -48 25 -66 116 -31 158 l18 21 -22 -19 c-45 -37 -36 -113 20 -165 21 -19 30 -22 54 -14 38 13 73 67 73 113 0 54 -25 80 -80 85 -43 4 -43 4 -8 -4z"/>
 <path d="M521 692 c-1 -25 14 -58 36 -80 17 -18 17 -3 -1 17 -8 9 -19 32 -24 51 -8 26 -10 29 -11 12z"/>
 <path d="M570 585 c0 -10 83 -119 109 -143 40 -36 37 -16 -3 24 -21 21 -51 57 -67 81 -28 40 -39 51 -39 38z"/>
 <path d="M720 419 c0 -5 24 -21 53 -34 55 -26 82 -32 72 -15 -3 6 -17 10 -29 10 -13 0 -40 11 -60 25 -20 13 -36 20 -36 14z"/>
 <path d="M1055 340 c-18 -8 -17 -9 8 -9 16 -1 26 3 22 9 -3 6 -7 10 -8 9 -1 0 -11 -4 -22 -9z"/>
 </g>
<g id="layer116" fill="#c74022" stroke="none">
 <path d="M130 1990 c0 -32 26 -122 47 -160 30 -56 76 -82 193 -109 134 -31 323 -98 343 -122 10 -12 20 -19 23 -16 3 2 12 46 20 95 8 50 28 134 44 187 47 152 86 135 -320 135 -215 0 -350 -4 -350 -10z"/>
 <path d="M930 1982 c0 -10 6 -41 14 -70 13 -52 13 -53 -13 -72 l-26 -19 40 -40 c21 -23 46 -41 55 -41 18 0 80 60 80 77 0 6 -11 18 -24 26 -21 14 -23 21 -16 54 4 21 10 53 14 71 l6 32 -65 0 c-56 0 -65 -3 -65 -18z"/>
 <path d="M1170 1982 c0 -10 14 -64 31 -121 16 -56 36 -140 44 -187 8 -48 16 -89 19 -92 3 -2 13 5 23 17 20 24 209 91 343 122 117 27 163 53 193 109 21 38 47 128 47 160 0 6 -135 10 -350 10 -332 0 -350 -1 -350 -18z"/>
 <path d="M941 1413 c-1 -19 -7 -23 -34 -23 -18 0 -39 6 -46 13 -11 10 -12 9 -6 -2 6 -11 -5 -12 -65 -7 -49 5 -77 3 -86 -5 -35 -29 -3 -46 102 -55 44 -4 81 -10 84 -14 8 -10 91 1 84 11 -3 5 -11 6 -17 3 -7 -4 -2 3 11 16 15 14 36 22 58 22 19 0 31 4 28 9 -3 5 2 6 11 2 12 -4 16 -15 13 -39 -4 -37 13 -48 45 -30 12 8 23 7 37 -1 10 -7 22 -9 24 -4 8 12 -18 21 -60 21 -19 0 -34 4 -34 8 0 13 124 -8 132 -22 6 -8 8 -8 8 2 0 8 17 12 50 12 70 0 67 23 -5 40 -31 7 -55 19 -55 26 0 7 -5 16 -12 20 -8 5 -9 2 -5 -9 8 -21 9 -20 -43 -2 -48 17 -156 20 -165 5 -10 -16 -43 -11 -48 8 -4 13 -5 11 -6 -5z"/>
 <path d="M1233 1294 c-11 -29 3 -208 19 -239 9 -16 40 -49 69 -73 159 -129 188 -287 83 -453 -15 -25 -19 -36 -9 -33 15 6 50 68 72 129 19 56 26 125 15 149 -6 12 -21 46 -35 77 -22 50 -104 149 -123 149 -13 0 -54 51 -54 67 0 7 -4 13 -8 13 -4 0 -6 16 -4 36 3 26 1 35 -7 30 -6 -4 -11 -2 -11 3 0 6 5 11 10 11 6 0 10 9 10 20 0 11 -5 20 -11 20 -7 0 -8 18 -4 55 7 53 1 72 -12 39z"/>
 <path d="M770 1211 c0 -22 -4 -51 -10 -65 -5 -15 -5 -28 0 -31 5 -3 11 4 15 14 11 35 14 121 4 121 -5 0 -9 -18 -9 -39z"/>
 <path d="M742 1084 c-7 -7 -12 -16 -12 -19 0 -3 0 -9 0 -14 0 -5 -24 -18 -53 -30 -29 -12 -58 -31 -66 -42 -11 -19 -9 -19 21 3 18 14 48 31 66 38 18 7 40 26 48 42 17 33 16 43 -4 22z"/>
 <path d="M956 962 c-8 -13 9 -65 22 -70 7 -2 12 1 12 8 0 6 -4 8 -10 5 -9 -5 -14 16 -13 53 1 14 -4 16 -11 4z"/>
 <path d="M1060 951 c7 -13 10 -34 7 -47 -2 -13 0 -24 4 -24 15 0 10 55 -7 76 -14 18 -15 18 -4 -5z"/>
 <path d="M900 785 c19 -20 22 -32 18 -70 -3 -25 -12 -54 -19 -63 -8 -10 -4 -7 9 6 29 31 31 99 2 130 -12 12 -24 22 -27 22 -4 0 4 -11 17 -25z"/>
 <path d="M1230 781 c29 -38 22 -92 -16 -133 -15 -15 -24 -28 -20 -28 15 0 55 54 61 82 9 40 -3 86 -27 99 -19 10 -19 9 2 -20z"/>
 <path d="M753 730 c0 -25 2 -35 4 -22 2 12 2 32 0 45 -2 12 -4 2 -4 -23z"/>
 <path d="M1084 727 c3 -10 6 -25 6 -32 0 -17 58 -85 72 -85 5 0 -7 15 -26 34 -20 18 -36 42 -36 52 0 11 -5 26 -11 34 -9 12 -10 12 -5 -3z"/>
 <path d="M760 673 c0 -7 10 -22 23 -35 12 -13 17 -17 11 -8 -6 8 -16 24 -22 35 -6 11 -12 15 -12 8z"/>
 <path d="M1323 447 c-44 -33 -58 -56 -23 -37 23 12 73 60 68 65 -2 2 -22 -11 -45 -28z"/>
 </g>
<g id="layer117" fill="#585453" stroke="none">
 <path d="M130 1990 c0 -32 26 -122 47 -160 30 -56 76 -82 193 -109 134 -31 323 -98 343 -122 10 -12 20 -19 23 -16 3 2 12 46 20 95 8 50 28 134 44 187 47 152 86 135 -320 135 -215 0 -350 -4 -350 -10z"/>
 <path d="M930 1982 c0 -10 6 -41 14 -70 13 -52 13 -53 -13 -72 l-26 -19 40 -40 c21 -23 46 -41 55 -41 18 0 80 60 80 77 0 6 -11 18 -24 26 -21 14 -23 21 -16 54 4 21 10 53 14 71 l6 32 -65 0 c-56 0 -65 -3 -65 -18z"/>
 <path d="M1170 1982 c0 -10 14 -64 31 -121 16 -56 36 -140 44 -187 8 -48 16 -89 19 -92 3 -2 13 5 23 17 20 24 209 91 343 122 117 27 163 53 193 109 21 38 47 128 47 160 0 6 -135 10 -350 10 -332 0 -350 -1 -350 -18z"/>
 <path d="M1036 1412 c-12 -11 -50 -14 -186 -16 -131 -2 -160 -7 -160 -26 0 -18 38 -29 116 -36 44 -4 81 -10 84 -14 8 -10 91 1 84 11 -3 5 -11 6 -17 3 -7 -4 -3 2 8 12 17 17 86 44 110 44 4 0 5 -18 3 -40 -4 -43 11 -55 45 -36 12 8 23 7 37 -1 10 -7 22 -9 24 -4 8 12 -18 21 -60 21 -19 0 -34 4 -34 8 0 13 124 -8 132 -22 6 -8 8 -8 8 2 0 8 17 12 50 12 81 0 61 22 -48 52 -99 28 -185 41 -196 30z"/>
 <path d="M1233 1294 c-11 -29 3 -208 19 -239 9 -16 40 -49 69 -73 159 -129 188 -287 83 -453 -15 -25 -19 -36 -9 -33 15 6 50 68 72 129 19 56 26 125 15 149 -6 12 -21 46 -35 77 -22 50 -104 149 -123 149 -13 0 -54 51 -54 67 0 7 -4 13 -8 13 -4 0 -6 16 -4 36 3 26 1 35 -7 30 -6 -4 -11 -2 -11 3 0 6 5 11 10 11 6 0 10 9 10 20 0 11 -5 20 -11 20 -7 0 -8 18 -4 55 7 53 1 72 -12 39z"/>
 <path d="M770 1211 c0 -22 -4 -51 -10 -65 -5 -15 -5 -28 0 -31 5 -3 11 4 15 14 11 35 14 121 4 121 -5 0 -9 -18 -9 -39z"/>
 <path d="M742 1084 c-7 -7 -12 -16 -12 -19 0 -3 0 -9 0 -14 0 -5 -24 -18 -53 -30 -29 -12 -58 -31 -66 -42 -11 -19 -9 -19 21 3 18 14 48 31 66 38 18 7 40 26 48 42 17 33 16 43 -4 22z"/>
 <path d="M956 962 c-8 -13 9 -65 22 -70 7 -2 12 1 12 8 0 6 -4 8 -10 5 -9 -5 -14 16 -13 53 1 14 -4 16 -11 4z"/>
 <path d="M1060 951 c7 -13 10 -34 7 -47 -2 -13 0 -24 4 -24 15 0 10 55 -7 76 -14 18 -15 18 -4 -5z"/>
 <path d="M900 785 c19 -20 22 -32 18 -70 -3 -25 -12 -54 -19 -63 -8 -10 -4 -7 9 6 29 31 31 99 2 130 -12 12 -24 22 -27 22 -4 0 4 -11 17 -25z"/>
 <path d="M1230 781 c29 -38 22 -92 -16 -133 -15 -15 -24 -28 -20 -28 15 0 55 54 61 82 9 40 -3 86 -27 99 -19 10 -19 9 2 -20z"/>
 <path d="M753 730 c0 -25 2 -35 4 -22 2 12 2 32 0 45 -2 12 -4 2 -4 -23z"/>
 <path d="M1084 727 c3 -10 6 -25 6 -32 0 -17 58 -85 72 -85 5 0 -7 15 -26 34 -20 18 -36 42 -36 52 0 11 -5 26 -11 34 -9 12 -10 12 -5 -3z"/>
 <path d="M760 673 c0 -7 10 -22 23 -35 12 -13 17 -17 11 -8 -6 8 -16 24 -22 35 -6 11 -12 15 -12 8z"/>
 <path d="M1323 447 c-44 -33 -58 -56 -23 -37 23 12 73 60 68 65 -2 2 -22 -11 -45 -28z"/>
 </g>
<g id="layer118" fill="#c52703" stroke="none">
 <path d="M130 1990 c0 -32 26 -122 47 -160 30 -56 76 -82 193 -109 134 -31 323 -98 343 -122 10 -12 20 -19 23 -16 3 3 10 38 15 79 6 40 26 125 45 189 19 64 34 123 34 133 0 15 -32 16 -350 16 -215 0 -350 -4 -350 -10z"/>
 <path d="M930 1982 c0 -11 7 -41 15 -68 15 -49 15 -49 -11 -72 l-27 -23 39 -40 c21 -21 45 -39 54 -39 17 0 80 59 80 75 0 5 -11 18 -24 30 -24 20 -25 21 -12 88 l14 67 -64 0 c-55 0 -64 -2 -64 -18z"/>
 <path d="M1170 1983 c0 -10 14 -63 30 -118 17 -55 37 -140 45 -189 8 -49 17 -91 19 -94 3 -3 13 5 23 17 20 24 209 91 343 122 117 27 163 53 193 109 21 38 47 128 47 160 0 6 -135 10 -350 10 -327 0 -350 -1 -350 -17z"/>
 <path d="M1036 1412 c-12 -11 -51 -14 -189 -16 -138 -2 -176 -11 -150 -37 16 -16 88 -28 150 -25 32 2 53 -1 53 -8 0 -6 5 -5 12 2 7 7 20 12 29 12 10 0 24 6 31 13 7 7 33 19 57 26 45 13 65 4 55 -24 -3 -6 1 -12 8 -13 158 -13 238 -14 238 -1 0 25 -274 91 -294 71z"/>
 <path d="M1233 1180 c0 -30 2 -43 4 -27 2 15 2 39 0 55 -2 15 -4 2 -4 -28z"/>
 <path d="M776 1193 c-2 -10 -7 -34 -10 -53 -8 -44 8 -11 17 38 7 34 2 45 -7 15z"/>
 <path d="M1241 1097 c-1 -23 28 -75 46 -81 10 -4 10 -1 0 14 -6 11 -15 20 -19 20 -4 0 -12 15 -17 33 -5 17 -10 24 -10 14z"/>
 <path d="M1310 995 c0 -2 20 -19 45 -39 25 -21 42 -31 39 -23 -3 8 -16 20 -30 27 -13 7 -24 19 -24 25 0 6 -7 12 -15 12 -8 0 -15 -1 -15 -2z"/>
 <path d="M1434 848 c26 -53 31 -74 30 -133 0 -48 -7 -85 -22 -117 -11 -27 -19 -48 -17 -48 11 0 46 84 50 120 3 23 6 44 7 48 8 30 -53 192 -72 192 -4 0 7 -28 24 -62z"/>
 <path d="M1241 771 c6 -13 9 -40 5 -60 -4 -25 -2 -31 4 -21 15 23 12 64 -6 86 -14 18 -15 18 -3 -5z"/>
 <path d="M1091 698 c-1 -9 9 -27 22 -40 12 -13 17 -17 10 -8 -7 8 -16 27 -22 40 -6 17 -10 19 -10 8z"/>
 </g>
<g id="layer119" fill="#734230" stroke="none">
 <path d="M130 1990 c0 -32 26 -122 47 -160 30 -56 76 -82 193 -109 134 -31 323 -98 343 -122 10 -12 20 -19 23 -16 3 3 10 38 15 79 6 40 26 125 45 189 19 64 34 123 34 133 0 15 -32 16 -350 16 -215 0 -350 -4 -350 -10z"/>
 <path d="M930 1982 c0 -11 7 -41 15 -68 15 -49 15 -49 -11 -72 l-27 -23 39 -40 c21 -21 45 -39 54 -39 17 0 80 59 80 75 0 5 -11 18 -24 30 -24 20 -25 21 -12 88 l14 67 -64 0 c-55 0 -64 -2 -64 -18z"/>
 <path d="M1170 1983 c0 -10 14 -63 30 -118 17 -55 37 -140 45 -189 8 -49 17 -91 19 -94 3 -3 13 5 23 17 20 24 209 91 343 122 117 27 163 53 193 109 21 38 47 128 47 160 0 6 -135 10 -350 10 -327 0 -350 -1 -350 -17z"/>
 <path d="M818 1333 c12 -2 30 -2 40 0 9 3 -1 5 -23 4 -22 0 -30 -2 -17 -4z"/>
 <path d="M1233 1180 c0 -30 2 -43 4 -27 2 15 2 39 0 55 -2 15 -4 2 -4 -28z"/>
 <path d="M776 1193 c-2 -10 -7 -34 -10 -53 -8 -44 8 -11 17 38 7 34 2 45 -7 15z"/>
 <path d="M1241 1097 c-1 -23 28 -75 46 -81 10 -4 10 -1 0 14 -6 11 -15 20 -19 20 -4 0 -12 15 -17 33 -5 17 -10 24 -10 14z"/>
 <path d="M1310 995 c0 -2 20 -19 45 -39 25 -21 42 -31 39 -23 -3 8 -16 20 -30 27 -13 7 -24 19 -24 25 0 6 -7 12 -15 12 -8 0 -15 -1 -15 -2z"/>
 <path d="M1434 848 c26 -53 31 -74 30 -133 0 -48 -7 -85 -22 -117 -11 -27 -19 -48 -17 -48 11 0 46 84 50 120 3 23 6 44 7 48 8 30 -53 192 -72 192 -4 0 7 -28 24 -62z"/>
 <path d="M1241 771 c6 -13 9 -40 5 -60 -4 -25 -2 -31 4 -21 15 23 12 64 -6 86 -14 18 -15 18 -3 -5z"/>
 <path d="M1091 698 c-1 -9 9 -27 22 -40 12 -13 17 -17 10 -8 -7 8 -16 27 -22 40 -6 17 -10 19 -10 8z"/>
 </g>
<g id="layer120" fill="#424041" stroke="none">
 <path d="M130 1991 c0 -33 26 -123 47 -161 30 -56 76 -82 193 -109 134 -31 323 -98 343 -122 10 -12 20 -20 23 -17 2 3 11 47 19 99 8 52 26 128 39 169 13 41 27 92 31 113 l7 37 -335 0 -336 0 20 -71 c11 -40 25 -81 30 -91 6 -11 8 -22 5 -25 -9 -9 -47 87 -54 136 -4 24 -13 46 -20 49 -6 2 -12 -1 -12 -7z m116 -180 c-3 -5 16 -18 42 -29 32 -15 40 -21 25 -22 -12 0 -38 8 -57 17 -28 13 -33 19 -25 30 13 15 23 18 15 4z"/>
 <path d="M930 1982 c0 -11 7 -41 15 -68 15 -49 15 -49 -11 -72 l-27 -23 39 -40 c21 -21 45 -39 54 -39 17 0 80 59 80 75 0 5 -11 18 -24 30 -24 20 -25 21 -12 88 l14 67 -64 0 c-55 0 -64 -2 -64 -18z"/>
 <path d="M1175 1963 c4 -21 18 -72 31 -113 13 -41 31 -117 39 -169 8 -52 17 -96 19 -99 3 -3 13 5 23 17 20 24 209 91 343 122 117 27 163 53 194 109 24 45 53 157 43 167 -12 12 -25 -9 -30 -49 -5 -46 -44 -144 -53 -135 -3 3 -1 14 5 25 5 10 19 51 30 91 l20 71 -336 0 -335 0 7 -37z m573 -185 c-18 -9 -44 -17 -58 -17 -19 0 -14 4 23 21 41 18 46 23 35 37 -8 10 -4 8 10 -3 l23 -20 -33 -18z"/>
 <path d="M1233 1180 c0 -30 2 -43 4 -27 2 15 2 39 0 55 -2 15 -4 2 -4 -28z"/>
 <path d="M776 1193 c-2 -10 -7 -34 -10 -53 -8 -44 8 -11 17 38 7 34 2 45 -7 15z"/>
 <path d="M1241 1097 c-1 -23 28 -75 46 -81 10 -4 10 -1 0 14 -6 11 -15 20 -19 20 -4 0 -12 15 -17 33 -5 17 -10 24 -10 14z"/>
 <path d="M1310 995 c0 -2 20 -19 45 -39 25 -21 42 -31 39 -23 -3 8 -16 20 -30 27 -13 7 -24 19 -24 25 0 6 -7 12 -15 12 -8 0 -15 -1 -15 -2z"/>
 <path d="M1434 848 c26 -53 31 -74 30 -133 0 -48 -7 -85 -22 -117 -11 -27 -19 -48 -17 -48 11 0 46 84 50 120 3 23 6 44 7 48 8 30 -53 192 -72 192 -4 0 7 -28 24 -62z"/>
 <path d="M1241 771 c6 -13 9 -40 5 -60 -4 -25 -2 -31 4 -21 15 23 12 64 -6 86 -14 18 -15 18 -3 -5z"/>
 <path d="M1091 698 c-1 -9 9 -27 22 -40 12 -13 17 -17 10 -8 -7 8 -16 27 -22 40 -6 17 -10 19 -10 8z"/>
 </g>
<g id="layer121" fill="#653220" stroke="none">
 <path d="M130 1991 c0 -33 26 -123 47 -161 30 -56 76 -82 193 -109 134 -31 323 -98 343 -122 10 -12 20 -20 23 -17 2 3 11 47 19 99 8 52 26 128 39 169 13 41 27 92 31 113 l7 37 -335 0 -336 0 20 -71 c11 -40 25 -81 30 -91 6 -11 8 -22 5 -25 -9 -9 -47 87 -54 136 -4 24 -13 46 -20 49 -6 2 -12 -1 -12 -7z m116 -180 c-3 -5 16 -18 42 -29 32 -15 40 -21 25 -22 -12 0 -38 8 -57 17 -28 13 -33 19 -25 30 13 15 23 18 15 4z"/>
 <path d="M930 1982 c0 -11 7 -41 15 -68 15 -49 15 -49 -11 -72 l-27 -23 39 -40 c21 -21 44 -39 51 -39 7 0 30 15 51 34 l37 35 -27 28 c-26 28 -26 28 -13 96 l13 67 -64 0 c-55 0 -64 -2 -64 -18z"/>
 <path d="M1175 1963 c4 -21 18 -72 31 -113 13 -41 31 -117 39 -169 8 -52 17 -96 19 -99 3 -3 13 5 23 17 20 24 209 91 343 122 117 27 163 53 194 109 24 45 53 157 43 167 -12 12 -25 -9 -30 -49 -5 -46 -44 -144 -53 -135 -3 3 -1 14 5 25 5 10 19 51 30 91 l20 71 -336 0 -335 0 7 -37z m573 -185 c-18 -9 -44 -17 -58 -17 -19 0 -14 4 23 21 41 18 46 23 35 37 -8 10 -4 8 10 -3 l23 -20 -33 -18z"/>
 <path d="M1233 1185 c0 -22 2 -30 4 -17 2 12 2 30 0 40 -3 9 -5 -1 -4 -23z"/>
 <path d="M1473 730 c0 -25 2 -35 4 -22 2 12 2 32 0 45 -2 12 -4 2 -4 -23z"/>
 </g>
<g id="layer122" fill="#572717" stroke="none">
 <path d="M130 1990 c0 -32 26 -122 47 -160 30 -56 76 -82 193 -109 134 -31 323 -98 343 -122 10 -12 20 -20 23 -17 2 3 11 47 19 99 8 52 26 128 39 169 35 108 42 150 24 150 -20 0 -90 -238 -88 -298 2 -64 -1 -100 -7 -84 -3 7 -39 38 -80 68 l-75 56 37 38 c39 40 39 41 -17 59 l-37 12 26 70 c14 38 23 73 19 76 -11 11 -22 -9 -44 -74 -19 -57 -19 -63 -4 -76 10 -8 28 -18 41 -22 l23 -7 -32 -33 -32 -33 34 -30 c18 -17 44 -40 58 -52 l25 -21 -25 7 c-14 3 -36 12 -50 19 -30 16 -219 71 -275 81 -22 4 -52 13 -67 21 -34 16 -75 94 -90 169 -6 29 -15 54 -19 54 -5 0 -9 -4 -9 -10z"/>
 <path d="M294 1948 c-9 -29 -27 -69 -39 -88 -35 -56 -36 -60 -30 -60 20 0 106 182 92 196 -3 3 -13 -19 -23 -48z"/>
 <path d="M930 1982 c0 -11 7 -41 15 -68 15 -49 15 -49 -11 -72 l-27 -23 39 -40 c21 -21 44 -39 51 -39 7 0 30 15 51 34 l37 35 -27 28 c-26 28 -26 28 -13 96 l13 67 -64 0 c-55 0 -64 -2 -64 -18z"/>
 <path d="M1175 1963 c4 -21 18 -72 31 -113 13 -41 31 -117 39 -169 8 -52 17 -96 19 -99 3 -3 13 5 23 17 20 24 209 91 343 122 154 35 202 78 229 207 13 64 14 72 2 72 -4 0 -13 -25 -19 -54 -15 -75 -56 -153 -90 -169 -15 -8 -45 -17 -67 -21 -56 -10 -245 -65 -275 -81 -14 -7 -36 -16 -50 -19 l-25 -7 25 21 c14 12 40 35 58 52 l34 30 -32 33 -32 33 23 7 c13 4 31 14 41 22 15 13 15 19 -4 76 -22 65 -33 85 -44 74 -4 -3 5 -38 19 -76 l26 -70 -37 -12 c-56 -18 -56 -19 -17 -59 l37 -38 -75 -56 c-41 -30 -77 -61 -80 -68 -6 -14 -6 -8 -10 92 -3 81 -65 290 -85 290 -11 0 -13 -9 -7 -37z"/>
 <path d="M1685 1973 c10 -44 50 -126 74 -153 24 -27 20 -15 -14 40 -12 19 -30 59 -39 88 -18 55 -33 72 -21 25z"/>
 <path d="M1233 1185 c0 -22 2 -30 4 -17 2 12 2 30 0 40 -3 9 -5 -1 -4 -23z"/>
 <path d="M1473 730 c0 -25 2 -35 4 -22 2 12 2 32 0 45 -2 12 -4 2 -4 -23z"/>
 </g>
<g id="layer123" fill="#323030" stroke="none">
 <path d="M130 1990 c0 -32 26 -122 46 -160 29 -53 75 -83 154 -99 30 -6 64 -13 75 -15 43 -9 288 -96 301 -107 15 -12 19 -1 6 16 -4 6 -27 25 -52 44 -44 32 -45 32 -10 2 41 -37 37 -38 -39 -7 -70 30 -256 86 -285 86 -11 0 -40 9 -64 20 l-44 20 22 32 22 33 -26 -30 -25 -29 -20 44 c-12 25 -26 71 -33 103 -7 31 -16 57 -20 57 -4 0 -8 -4 -8 -10z"/>
 <path d="M558 1929 c-22 -70 -22 -71 -3 -85 10 -8 24 -14 29 -14 6 0 2 6 -9 12 -11 6 -21 12 -22 13 -2 0 6 23 16 51 29 78 33 94 22 94 -5 0 -20 -32 -33 -71z"/>
 <path d="M778 1867 c-22 -77 -38 -155 -38 -186 0 -29 -5 -61 -11 -73 -9 -18 -6 -38 5 -27 3 2 12 47 20 99 9 52 27 129 40 170 30 92 41 150 30 150 -5 0 -26 -60 -46 -133z"/>
 <path d="M930 1982 c0 -11 7 -41 15 -68 15 -49 15 -49 -11 -72 l-27 -23 39 -40 c21 -21 44 -39 51 -39 7 0 30 15 51 34 l37 35 -27 28 c-26 28 -26 28 -13 96 l13 67 -64 0 c-55 0 -64 -2 -64 -18z"/>
 <path d="M1170 1987 c0 -8 16 -67 35 -131 19 -65 39 -152 45 -194 6 -42 12 -78 15 -80 2 -3 12 5 22 17 20 24 209 91 343 122 117 27 163 53 193 109 32 58 57 170 39 170 -4 0 -13 -26 -20 -57 -7 -32 -21 -78 -32 -102 -18 -39 -22 -42 -38 -30 -15 13 -16 12 -3 -3 12 -16 9 -20 -30 -38 -24 -11 -54 -20 -65 -20 -29 0 -215 -56 -285 -86 -76 -31 -80 -30 -39 7 35 30 34 30 -10 -2 -25 -19 -49 -39 -53 -46 -16 -25 -27 -2 -27 54 0 58 -68 323 -82 323 -5 0 -8 -6 -8 -13z"/>
 <path d="M1406 1978 c3 -13 15 -45 25 -72 10 -28 18 -51 16 -51 -1 -1 -11 -7 -22 -13 -11 -6 -15 -12 -9 -12 5 0 19 6 29 14 18 13 18 15 -5 85 -12 39 -27 71 -32 71 -5 0 -6 -10 -2 -22z"/>
 <path d="M1691 1960 c-1 -17 35 -100 43 -100 3 0 -3 19 -13 43 -10 23 -21 49 -24 57 -5 13 -5 13 -6 0z"/>
 <path d="M608 1821 c11 -6 6 -14 -17 -30 -38 -27 -39 -41 -3 -72 l27 -24 -22 25 -21 25 28 34 c29 33 31 51 7 51 -8 0 -8 -3 1 -9z"/>
 <path d="M1376 1822 c-3 -5 8 -24 24 -43 l28 -34 -21 -25 -22 -25 28 24 c35 31 34 45 -4 72 -23 16 -28 24 -17 30 9 6 9 9 1 9 -6 0 -14 -4 -17 -8z"/>
 <path d="M1233 1185 c0 -22 2 -30 4 -17 2 12 2 30 0 40 -3 9 -5 -1 -4 -23z"/>
 <path d="M1473 730 c0 -25 2 -35 4 -22 2 12 2 32 0 45 -2 12 -4 2 -4 -23z"/>
 </g>
<g id="layer124" fill="#471b0b" stroke="none">
 <path d="M130 1990 c0 -32 26 -122 46 -160 29 -53 75 -83 154 -99 30 -6 64 -13 75 -15 43 -9 288 -96 301 -107 15 -12 19 -1 6 16 -4 6 -27 25 -52 44 -44 32 -45 32 -10 2 41 -37 37 -38 -39 -7 -70 30 -256 86 -285 86 -11 0 -40 9 -64 20 l-44 20 22 32 22 33 -26 -30 -25 -29 -20 44 c-12 25 -26 71 -33 103 -7 31 -16 57 -20 57 -4 0 -8 -4 -8 -10z"/>
 <path d="M558 1929 c-22 -70 -22 -71 -3 -85 10 -8 24 -14 29 -14 6 0 2 6 -9 12 -11 6 -21 12 -22 13 -2 0 6 23 16 51 29 78 33 94 22 94 -5 0 -20 -32 -33 -71z"/>
 <path d="M778 1867 c-22 -77 -38 -155 -38 -186 0 -29 -5 -61 -11 -73 -9 -18 -6 -38 5 -27 3 2 12 47 20 99 9 52 27 129 40 170 30 92 41 150 30 150 -5 0 -26 -60 -46 -133z"/>
 <path d="M930 1988 c0 -6 8 -39 17 -72 16 -59 16 -60 -5 -74 -12 -8 -22 -20 -22 -27 0 -14 65 -75 80 -75 6 0 27 15 48 34 l37 35 -28 29 c-26 27 -27 32 -18 73 20 86 19 89 -49 89 -40 0 -60 -4 -60 -12z"/>
 <path d="M1170 1987 c0 -8 16 -67 35 -131 19 -65 39 -152 45 -194 6 -42 12 -78 15 -80 2 -3 12 5 22 17 20 24 209 91 343 122 117 27 163 53 193 109 32 58 57 170 39 170 -4 0 -13 -26 -20 -57 -7 -32 -21 -78 -32 -102 -18 -39 -22 -42 -38 -30 -15 13 -16 12 -3 -3 12 -16 9 -20 -30 -38 -24 -11 -54 -20 -65 -20 -29 0 -215 -56 -285 -86 -76 -31 -80 -30 -39 7 35 30 34 30 -10 -2 -25 -19 -49 -39 -53 -46 -16 -25 -27 -2 -27 54 0 58 -68 323 -82 323 -5 0 -8 -6 -8 -13z"/>
 <path d="M1406 1978 c3 -13 15 -45 25 -72 10 -28 18 -51 16 -51 -1 -1 -11 -7 -22 -13 -11 -6 -15 -12 -9 -12 5 0 19 6 29 14 18 13 18 15 -5 85 -12 39 -27 71 -32 71 -5 0 -6 -10 -2 -22z"/>
 <path d="M1691 1960 c-1 -17 35 -100 43 -100 3 0 -3 19 -13 43 -10 23 -21 49 -24 57 -5 13 -5 13 -6 0z"/>
 <path d="M608 1821 c11 -6 6 -14 -17 -30 -38 -27 -39 -41 -3 -72 l27 -24 -22 25 -21 25 28 34 c29 33 31 51 7 51 -8 0 -8 -3 1 -9z"/>
 <path d="M1376 1822 c-3 -5 8 -24 24 -43 l28 -34 -21 -25 -22 -25 28 24 c35 31 34 45 -4 72 -23 16 -28 24 -17 30 9 6 9 9 1 9 -6 0 -14 -4 -17 -8z"/>
 </g>
<g id="layer125" fill="#391102" stroke="none">
 <path d="M137 1986 c-4 -10 -2 -26 3 -37 6 -11 8 -24 5 -29 -3 -5 0 -12 6 -15 5 -4 8 -13 5 -21 -3 -8 -1 -14 5 -14 6 0 7 -4 4 -10 -3 -5 -1 -10 5 -10 6 0 8 -4 5 -10 -3 -5 -1 -10 5 -10 6 0 9 -3 7 -7 -3 -5 1 -14 9 -21 19 -18 18 -8 -7 40 -11 22 -26 68 -33 101 -8 41 -15 55 -19 43z"/>
 <path d="M580 1976 c-15 -41 -10 -56 6 -17 8 18 13 36 10 39 -3 2 -10 -7 -16 -22z"/>
 <path d="M810 1959 c-6 -24 -23 -80 -36 -124 -14 -44 -27 -111 -29 -150 l-4 -70 9 68 c6 38 21 101 34 140 30 91 48 168 42 174 -3 3 -10 -15 -16 -38z"/>
 <path d="M930 1988 c0 -6 8 -39 17 -72 16 -59 16 -60 -5 -74 -12 -8 -22 -20 -22 -27 0 -14 65 -75 80 -75 6 0 27 15 48 34 l37 35 -28 29 c-26 27 -27 32 -18 73 20 86 19 89 -49 89 -40 0 -60 -4 -60 -12z"/>
 <path d="M1175 1970 c4 -19 21 -78 37 -130 15 -52 33 -124 38 -160 l9 -65 -3 65 c-2 36 -20 121 -40 189 -36 122 -56 172 -41 101z"/>
 <path d="M1405 1980 c12 -41 27 -60 20 -25 -4 17 -11 35 -17 40 -7 7 -8 2 -3 -15z"/>
 <path d="M1850 1976 c0 -22 3 -27 11 -19 8 8 8 16 0 30 -9 16 -10 14 -11 -11z"/>
 <path d="M1840 1925 c0 -11 -11 -44 -25 -73 -29 -62 -30 -67 -11 -50 8 7 12 16 9 21 -2 4 1 7 7 7 6 0 8 5 5 10 -3 6 -1 10 5 10 6 0 8 5 5 10 -3 6 -1 10 5 10 6 0 8 5 5 10 -4 6 -2 16 4 23 6 8 6 18 1 27 -8 12 -10 11 -10 -5z"/>
 <path d="M246 1765 c6 -15 82 -41 92 -31 3 3 10 2 16 -4 7 -5 18 -5 26 0 9 6 -2 11 -36 15 -27 4 -61 14 -76 21 -24 12 -27 12 -22 -1z"/>
 <path d="M1730 1766 c-14 -7 -47 -17 -74 -21 -34 -4 -45 -9 -36 -15 8 -5 19 -5 26 0 6 6 13 7 16 4 10 -10 86 16 92 31 6 18 8 18 -24 1z"/>
 <path d="M1526 1711 c-11 -4 -15 -10 -10 -13 5 -2 20 1 34 8 26 14 8 18 -24 5z"/>
 <path d="M535 1681 c3 -5 41 -21 85 -36 48 -16 86 -35 95 -48 8 -11 17 -18 20 -16 3 3 -11 23 -31 45 -19 21 -33 33 -29 27 9 -19 -8 -16 -71 12 -60 27 -79 31 -69 16z"/>
 <path d="M1390 1664 c-63 -27 -74 -29 -65 -11 4 6 -10 -6 -29 -27 -20 -22 -34 -42 -31 -45 3 -2 12 5 20 16 9 13 47 32 95 48 44 15 82 31 85 36 9 14 -15 9 -75 -17z"/>
 </g>
<g id="layer126" fill="#0e0c0c" stroke="none">
 <path d="M930 1988 c0 -6 8 -39 17 -72 16 -59 16 -60 -5 -74 -12 -8 -22 -20 -22 -27 0 -14 65 -75 80 -75 6 0 27 15 48 34 l37 35 -28 29 c-26 27 -27 32 -18 73 20 86 19 89 -49 89 -40 0 -60 -4 -60 -12z"/>
 </g>

</svg>