<!DOCTYPE svg PUBLIC "-//W3C//DTD SVG 20010904//EN" "http://www.w3.org/TR/2001/REC-SVG-20010904/DTD/svg10.dtd">
<svg version="1.0" xmlns="http://www.w3.org/2000/svg" width="200px" height="200px" viewBox="0 0 2000 2000" preserveAspectRatio="xMidYMid meet">
<g id="layer101" fill="#694543" stroke="none">
 <path d="M174 1954 c15 -115 93 -221 181 -246 22 -6 45 -17 50 -23 12 -14 120 -46 180 -53 58 -6 104 -45 133 -113 15 -36 33 -61 49 -68 30 -14 25 -21 -32 -58 -54 -34 -59 -59 -12 -66 17 -3 52 -10 77 -16 77 -17 138 -14 152 9 19 29 98 28 116 -1 13 -21 18 -21 125 -14 60 4 116 9 124 12 18 7 16 43 -2 43 -9 0 -37 17 -64 38 l-48 38 28 16 c15 9 34 32 42 50 18 43 91 134 119 149 12 6 61 17 109 25 48 7 105 17 126 23 56 15 117 63 147 113 23 39 56 143 56 175 0 11 -159 13 -831 13 l-832 0 7 -46z"/>
 </g>
<g id="layer102" fill="#c52602" stroke="none">
 <path d="M174 1954 c15 -115 93 -221 181 -246 22 -6 45 -17 50 -23 12 -14 120 -46 180 -53 58 -6 104 -45 133 -113 15 -36 33 -61 49 -68 30 -14 25 -21 -32 -58 -54 -34 -59 -59 -12 -66 17 -3 52 -10 77 -16 77 -17 138 -14 152 9 19 29 98 28 116 -1 13 -21 18 -21 125 -14 60 4 116 9 124 12 18 7 16 43 -2 43 -9 0 -37 17 -64 38 l-48 38 28 16 c15 9 34 32 42 50 18 43 91 134 119 149 12 6 61 17 109 25 48 7 105 17 126 23 56 15 117 63 147 113 23 39 56 143 56 175 0 11 -159 13 -831 13 l-832 0 7 -46z m126 -159 c19 -19 32 -35 29 -35 -3 0 -20 16 -39 35 -19 19 -32 35 -29 35 3 0 20 -16 39 -35z m1440 32 c0 -2 -17 -19 -37 -38 l-38 -34 34 38 c33 34 41 42 41 34z"/>
 </g>
<g id="layer103" fill="#714234" stroke="none">
 <path d="M174 1954 c15 -115 93 -221 181 -246 22 -6 45 -17 50 -23 12 -14 120 -46 180 -53 58 -6 104 -45 133 -113 16 -38 33 -61 50 -69 l26 -11 -39 -34 c-22 -19 -46 -34 -52 -35 -15 0 -18 -30 -3 -30 6 0 10 4 10 9 0 20 72 31 215 34 201 3 345 -12 376 -39 13 -12 16 -12 16 1 0 8 -4 15 -9 15 -5 0 -30 17 -57 38 l-48 38 28 16 c15 9 34 32 42 50 18 43 91 134 119 149 12 6 61 17 109 25 48 7 105 17 126 23 56 15 117 63 147 113 23 39 56 143 56 175 0 11 -159 13 -831 13 l-832 0 7 -46z m126 -159 c19 -19 32 -35 29 -35 -3 0 -20 16 -39 35 -19 19 -32 35 -29 35 3 0 20 -16 39 -35z m1440 32 c0 -2 -17 -19 -37 -38 l-38 -34 34 38 c33 34 41 42 41 34z"/>
 </g>
<g id="layer104" fill="#b62905" stroke="none">
 <path d="M174 1954 c15 -115 93 -221 181 -246 22 -6 45 -17 50 -23 12 -14 120 -46 180 -53 58 -6 104 -45 133 -113 16 -38 33 -61 50 -69 l26 -11 -39 -34 c-22 -19 -46 -34 -52 -35 -15 0 -18 -30 -3 -30 6 0 10 4 10 9 0 20 72 31 215 34 201 3 345 -12 376 -39 13 -12 16 -12 16 1 0 8 -4 15 -9 15 -5 0 -30 17 -57 38 l-48 38 28 16 c15 9 34 32 42 50 18 43 91 134 119 149 12 6 61 17 109 25 48 7 105 17 126 23 56 15 117 63 147 113 23 39 56 143 56 175 0 11 -159 13 -831 13 l-832 0 7 -46z m1611 -56 c-27 -83 -60 -124 -128 -158 -33 -16 -67 -30 -76 -30 -9 1 9 14 40 30 68 35 133 106 156 171 23 65 29 54 8 -13z m-1483 -103 c25 -22 57 -48 69 -58 l24 -18 -25 6 c-51 13 -104 60 -131 115 -15 30 -29 69 -33 85 -4 18 5 7 22 -30 18 -37 47 -76 74 -100z m412 -24 c-15 -28 -38 -60 -51 -73 -16 -14 -7 5 23 49 27 40 50 73 52 73 2 0 -9 -22 -24 -49z m-44 -144 c8 -7 22 -21 30 -32 11 -15 7 -14 -15 5 -17 14 -34 28 -39 32 -6 5 -6 8 0 8 5 0 16 -6 24 -13z"/>
 </g>
<g id="layer105" fill="#683b30" stroke="none">
 <path d="M174 1954 c15 -115 93 -221 181 -246 22 -6 45 -17 50 -23 12 -14 120 -46 180 -53 58 -6 104 -45 133 -113 16 -38 33 -61 51 -69 l26 -12 -22 -18 c-65 -53 -85 -71 -80 -76 3 -3 16 3 28 15 15 14 36 21 60 21 25 0 41 6 47 16 8 14 10 14 15 1 8 -20 186 -12 203 9 10 12 12 11 17 -6 4 -14 14 -20 34 -21 15 0 44 -2 63 -3 19 -1 41 2 48 7 7 6 12 6 12 -1 0 -6 15 -14 33 -17 17 -4 38 -12 45 -17 6 -6 12 -7 12 -2 0 5 -24 27 -54 49 l-53 40 28 17 c16 10 35 32 42 50 18 43 91 134 119 149 12 6 61 17 109 25 48 7 105 17 126 23 56 15 117 63 147 113 23 39 56 143 56 175 0 11 -159 13 -831 13 l-832 0 7 -46z m1611 -56 c-27 -83 -60 -124 -128 -158 -33 -16 -67 -30 -76 -30 -9 1 9 14 40 30 68 35 133 106 156 171 23 65 29 54 8 -13z m-1483 -103 c25 -22 57 -48 69 -58 l24 -18 -25 6 c-51 13 -104 60 -131 115 -15 30 -29 69 -33 85 -4 18 5 7 22 -30 18 -37 47 -76 74 -100z m412 -24 c-15 -28 -38 -60 -51 -73 -16 -14 -7 5 23 49 27 40 50 73 52 73 2 0 -9 -22 -24 -49z m-44 -144 c8 -7 22 -21 30 -32 11 -15 7 -14 -15 5 -17 14 -34 28 -39 32 -6 5 -6 8 0 8 5 0 16 -6 24 -13z"/>
 </g>
<g id="layer106" fill="#8d330f" stroke="none">
 <path d="M174 1954 c15 -115 93 -221 181 -246 22 -6 45 -17 50 -23 12 -14 120 -46 180 -53 58 -6 104 -45 133 -113 16 -38 33 -61 51 -69 l26 -12 -22 -18 c-65 -53 -85 -71 -80 -76 3 -3 16 3 28 15 15 14 36 21 60 21 25 0 41 6 47 16 8 14 10 14 15 1 8 -20 186 -12 203 9 10 12 12 11 17 -6 4 -14 14 -20 34 -21 15 0 44 -2 63 -3 19 -1 41 2 48 7 7 6 12 6 12 -1 0 -6 15 -14 33 -17 17 -4 38 -12 45 -17 6 -6 12 -7 12 -2 0 5 -24 27 -54 49 l-53 40 28 17 c16 10 35 32 42 50 18 43 91 134 119 149 12 6 61 17 109 25 122 18 160 30 207 64 49 36 86 95 106 175 18 68 20 85 7 85 -5 0 -14 -24 -20 -52 -26 -121 -85 -198 -177 -228 -59 -20 -60 -5 -1 23 30 15 70 44 88 64 32 38 72 115 84 166 l7 27 -800 0 c-754 0 -801 -1 -805 -17 -4 -17 -5 -17 -6 0 0 9 -6 17 -12 17 -8 0 -10 -15 -5 -46z m114 -145 c17 -19 47 -44 66 -54 35 -19 47 -35 26 -35 -23 0 -89 41 -113 69 -26 31 -67 128 -67 159 0 9 13 -10 29 -44 16 -33 42 -76 59 -95z m443 -14 c-22 -49 -80 -129 -88 -121 -3 3 18 39 46 81 28 42 51 82 51 88 0 5 3 8 6 4 3 -3 -4 -26 -15 -52z m-40 -182 c41 -46 36 -60 -6 -19 -25 24 -45 47 -45 50 0 10 33 -10 51 -31z"/>
 </g>
<g id="layer107" fill="#66321e" stroke="none">
 <path d="M174 1954 c15 -115 93 -221 181 -246 22 -6 45 -17 50 -23 12 -14 120 -46 180 -53 58 -6 104 -45 133 -113 16 -37 33 -61 50 -69 l26 -11 -45 -39 c-24 -22 -47 -39 -51 -40 -5 0 -8 -5 -8 -10 0 -6 17 1 37 15 21 14 46 25 57 25 10 0 25 8 32 18 13 15 15 16 27 1 16 -22 176 -15 194 8 13 17 33 9 33 -12 0 -20 107 -31 136 -13 6 4 18 -2 27 -13 9 -10 25 -19 35 -19 10 0 23 -5 30 -12 7 -7 12 -8 12 -2 0 5 -24 27 -54 49 l-53 40 28 17 c16 10 35 32 42 50 18 43 91 134 119 149 12 6 61 17 109 25 122 18 160 30 207 64 49 36 86 95 106 175 18 68 20 85 7 85 -5 0 -14 -24 -20 -52 -26 -121 -85 -198 -177 -228 -59 -20 -60 -5 -1 23 30 15 70 44 88 64 32 38 72 115 84 166 l7 27 -800 0 c-754 0 -801 -1 -805 -17 -4 -17 -5 -17 -6 0 0 9 -6 17 -12 17 -8 0 -10 -15 -5 -46z m114 -145 c17 -19 47 -44 66 -54 35 -19 47 -35 26 -35 -23 0 -89 41 -113 69 -26 31 -67 128 -67 159 0 9 13 -10 29 -44 16 -33 42 -76 59 -95z m443 -14 c-22 -49 -80 -129 -88 -121 -3 3 18 39 46 81 28 42 51 82 51 88 0 5 3 8 6 4 3 -3 -4 -26 -15 -52z m-40 -182 c41 -46 36 -60 -6 -19 -25 24 -45 47 -45 50 0 10 33 -10 51 -31z"/>
 </g>
<g id="layer108" fill="#4f2f27" stroke="none">
 <path d="M174 1954 c15 -115 93 -221 181 -246 22 -6 45 -17 50 -23 12 -14 120 -46 180 -53 58 -6 104 -45 133 -113 16 -38 33 -61 51 -69 l26 -12 -22 -18 c-107 -86 -111 -101 -8 -29 100 70 130 82 217 87 95 5 145 -10 225 -70 32 -23 68 -48 81 -55 39 -21 23 1 -32 42 l-53 40 28 17 c16 10 35 32 42 50 18 43 91 134 119 149 12 6 61 17 109 25 122 18 160 30 207 64 49 36 86 95 106 175 18 68 20 85 7 85 -4 0 -15 -30 -24 -66 -40 -161 -104 -211 -315 -246 -62 -10 -65 -10 -105 19 -28 19 -56 54 -86 105 -43 77 -43 77 -66 60 -13 -9 -31 -29 -41 -44 -17 -25 -20 -26 -36 -12 -9 9 -14 22 -11 30 2 7 -7 38 -21 69 -14 31 -23 62 -20 70 5 13 -9 15 -89 15 l-95 0 -5 -27 c-13 -67 -38 -138 -55 -155 -18 -19 -19 -18 -42 15 -13 19 -32 40 -42 46 -15 9 -21 5 -39 -31 -20 -38 -68 -107 -116 -165 l-18 -21 -70 19 c-38 10 -79 19 -91 19 -30 0 -135 54 -161 82 -28 30 -60 101 -74 166 -14 66 -34 70 -25 6z m651 -168 c29 -46 64 -91 76 -99 27 -20 21 -28 -49 -71 -68 -41 -87 -70 -79 -122 6 -35 6 -36 -13 -19 -10 9 -22 31 -26 47 -3 17 -26 50 -50 74 -27 26 -44 51 -44 66 0 12 20 51 44 86 24 34 49 76 56 92 7 17 16 30 21 30 5 0 34 -38 64 -84z m444 34 c14 -27 42 -66 63 -87 21 -20 38 -47 38 -58 0 -12 -20 -43 -45 -69 -25 -27 -53 -67 -64 -91 -22 -50 -45 -71 -28 -25 10 25 8 34 -9 57 -11 16 -42 42 -69 60 -27 18 -55 39 -64 48 -14 14 -13 17 7 31 13 9 48 54 77 100 30 46 58 84 62 84 5 0 19 -23 32 -50z m-254 -67 c11 -76 33 -112 91 -149 74 -47 88 -73 21 -37 -24 13 -57 17 -127 17 -70 0 -103 -4 -127 -17 -67 -35 -53 -11 21 38 59 39 80 74 91 148 4 26 11 47 15 47 4 0 11 -21 15 -47z"/>
 </g>
<g id="layer109" fill="#7e2001" stroke="none">
 <path d="M174 1954 c15 -115 93 -221 181 -246 22 -6 45 -17 50 -23 12 -14 120 -46 180 -53 58 -6 104 -45 133 -113 16 -38 33 -61 51 -69 l26 -12 -22 -18 c-107 -86 -111 -101 -8 -29 100 70 130 82 217 87 95 5 145 -10 225 -70 32 -23 68 -48 81 -55 39 -21 23 1 -32 42 l-53 40 27 17 c23 14 70 89 70 112 0 18 -21 -8 -39 -48 -22 -51 -45 -72 -28 -26 10 25 8 34 -9 57 -11 16 -42 42 -69 60 -27 18 -55 39 -64 48 -14 14 -13 17 7 31 13 9 48 54 77 100 30 46 58 84 63 84 5 0 17 -19 28 -41 10 -23 20 -37 22 -31 2 6 -6 29 -18 52 -21 42 -22 42 -43 23 -20 -16 -41 -40 -59 -67 -12 -18 -36 14 -36 49 0 19 -9 51 -21 71 -12 19 -21 44 -21 55 0 17 -8 19 -90 19 -87 0 -90 -1 -89 -22 1 -23 -30 -119 -51 -157 -15 -29 -24 -26 -51 13 -12 18 -31 39 -41 45 -15 9 -21 5 -39 -30 -21 -42 -51 -86 -103 -150 -26 -33 -31 -35 -65 -28 -20 5 -61 14 -91 20 -151 32 -224 89 -259 204 -12 37 -21 76 -21 86 0 10 -5 19 -11 19 -8 0 -10 -15 -5 -46z m651 -168 c29 -46 64 -91 76 -99 27 -20 21 -28 -49 -71 -68 -41 -87 -70 -79 -121 8 -50 -12 -33 -48 40 -15 32 -39 62 -56 72 -45 27 -39 64 26 163 30 46 55 87 55 92 0 25 27 -2 75 -76z m190 -33 c11 -76 33 -112 91 -149 74 -47 88 -73 21 -37 -24 13 -57 17 -127 17 -70 0 -103 -4 -127 -17 -67 -35 -53 -11 21 38 59 39 80 74 91 148 4 26 11 47 15 47 4 0 11 -21 15 -47z"/>
 <path d="M1806 1963 c-24 -136 -87 -216 -194 -248 -34 -10 -62 -23 -62 -28 0 -4 8 -6 18 -3 9 3 35 10 58 15 91 24 159 100 188 216 18 68 20 85 7 85 -5 0 -12 -17 -15 -37z"/>
 <path d="M1370 1697 c0 -7 7 -22 15 -33 13 -17 14 -16 4 14 -11 33 -19 41 -19 19z"/>
 </g>
<g id="layer110" fill="#58260f" stroke="none">
 <path d="M174 1954 c15 -115 93 -221 181 -246 22 -6 45 -17 50 -23 12 -14 120 -46 180 -53 58 -6 104 -45 133 -113 16 -38 33 -61 50 -69 l26 -11 -39 -35 c-38 -32 -38 -34 -10 -22 17 7 46 25 67 40 52 40 110 58 188 58 85 0 136 -18 209 -74 32 -24 69 -47 82 -51 15 -4 3 10 -32 37 l-56 44 27 16 c23 13 70 88 70 112 0 18 -21 -8 -39 -48 -22 -51 -45 -72 -28 -26 10 25 8 34 -9 57 -11 16 -42 42 -69 60 -27 18 -55 39 -64 48 -14 14 -13 17 7 31 13 9 48 54 77 100 30 46 58 84 63 84 5 0 17 -19 28 -41 10 -23 20 -37 22 -31 2 6 -6 29 -18 52 -21 42 -22 42 -43 23 -20 -16 -41 -40 -59 -67 -12 -18 -36 14 -36 49 0 19 -9 51 -21 71 -12 19 -21 44 -21 55 0 17 -8 19 -90 19 -87 0 -90 -1 -89 -22 1 -23 -30 -119 -51 -157 -15 -29 -24 -26 -51 13 -12 18 -31 39 -41 45 -15 9 -21 5 -39 -30 -21 -42 -51 -86 -103 -150 -26 -33 -31 -35 -65 -28 -20 5 -61 14 -91 20 -151 32 -224 89 -259 204 -12 37 -21 76 -21 86 0 10 -5 19 -11 19 -8 0 -10 -15 -5 -46z m651 -168 c29 -46 64 -91 76 -99 27 -20 21 -28 -49 -71 -68 -41 -87 -70 -79 -121 8 -50 -12 -33 -48 40 -15 32 -39 62 -56 72 -45 27 -39 64 26 163 30 46 55 87 55 92 0 25 27 -2 75 -76z m190 -33 c11 -76 33 -112 91 -149 74 -47 88 -73 21 -37 -24 13 -57 17 -127 17 -70 0 -103 -4 -127 -17 -67 -35 -53 -11 21 38 59 39 80 74 91 148 4 26 11 47 15 47 4 0 11 -21 15 -47z"/>
 <path d="M1806 1963 c-24 -136 -87 -216 -194 -248 -34 -10 -62 -23 -62 -28 0 -4 8 -6 18 -3 9 3 35 10 58 15 91 24 159 100 188 216 18 68 20 85 7 85 -5 0 -12 -17 -15 -37z"/>
 <path d="M1370 1697 c0 -7 7 -22 15 -33 13 -17 14 -16 4 14 -11 33 -19 41 -19 19z"/>
 </g>
<g id="layer111" fill="#3c251c" stroke="none">
 <path d="M174 1954 c15 -115 93 -221 181 -246 22 -6 45 -17 50 -23 12 -14 120 -46 180 -53 58 -6 104 -45 133 -113 16 -38 33 -61 51 -69 l26 -12 -30 -24 c-48 -39 -12 -28 52 16 71 48 150 64 246 49 60 -9 84 -22 218 -118 40 -28 17 0 -30 37 l-48 38 27 16 c23 13 70 88 70 112 0 18 -28 -17 -35 -42 -8 -31 -33 -62 -51 -62 -8 0 -11 12 -7 38 5 41 1 46 -118 142 l-43 34 33 8 c25 7 42 24 78 81 25 40 55 84 67 98 12 14 2 5 -21 -20 -34 -36 -45 -42 -56 -32 -8 6 -15 27 -15 46 0 19 -9 51 -21 71 -12 19 -21 44 -21 55 0 17 -8 19 -90 19 -87 0 -90 -1 -89 -22 1 -27 -44 -155 -60 -171 -8 -8 -23 1 -54 34 -23 25 -33 34 -21 20 12 -14 42 -59 68 -99 36 -57 52 -74 76 -79 37 -7 30 -17 -50 -76 -74 -55 -81 -65 -76 -109 4 -38 -5 -47 -30 -30 -6 4 -23 33 -38 64 -17 36 -39 64 -57 75 -37 22 -40 70 -5 116 31 43 65 101 42 72 -123 -150 -118 -147 -182 -120 -19 8 -52 16 -73 19 -59 6 -147 53 -186 99 -33 39 -75 143 -75 188 0 10 -5 19 -11 19 -8 0 -10 -15 -5 -46z m841 -191 c16 -94 34 -120 123 -176 40 -26 42 -29 42 -78 0 -45 -2 -50 -17 -44 -45 18 -122 35 -163 35 -49 0 -132 -20 -169 -40 -24 -12 -24 -12 -18 26 4 22 7 47 7 57 0 10 22 32 54 52 66 42 94 76 101 124 11 67 15 81 25 81 5 0 12 -17 15 -37z m-45 -14 c0 -20 -4 -28 -12 -23 -7 5 -9 1 -6 -13 4 -16 1 -20 -21 -19 -14 1 -25 5 -24 9 2 8 55 75 61 76 1 1 2 -13 2 -30z m124 -51 c-11 -17 -33 -7 -48 24 -25 49 -19 55 19 18 19 -18 32 -37 29 -42z"/>
 <path d="M1806 1963 c-24 -136 -87 -216 -194 -248 -34 -10 -62 -23 -62 -28 0 -4 8 -6 18 -3 9 3 35 10 58 15 91 24 159 100 188 216 18 68 20 85 7 85 -5 0 -12 -17 -15 -37z"/>
 <path d="M1250 1865 c1 -16 39 -82 40 -68 0 7 -9 27 -20 45 -11 18 -20 29 -20 23z"/>
 <path d="M1370 1697 c0 -7 7 -22 15 -33 13 -17 14 -16 4 14 -11 33 -19 41 -19 19z"/>
 </g>
<g id="layer112" fill="#292324" stroke="none">
 <path d="M174 1954 c15 -115 93 -221 181 -246 22 -6 45 -17 50 -23 12 -15 122 -46 182 -53 55 -5 114 -59 138 -124 13 -39 22 -49 47 -56 l31 -8 -32 -27 c-48 -40 -21 -33 46 13 71 48 150 64 246 49 49 -8 77 -20 130 -57 105 -72 116 -78 67 -33 -25 22 -48 41 -52 41 -19 0 -6 19 14 22 23 3 68 69 67 98 0 8 -8 -1 -18 -21 -36 -78 -73 -95 -64 -31 5 41 1 46 -118 142 l-43 34 33 8 c25 7 42 24 78 81 25 40 55 84 67 98 12 14 2 5 -21 -20 -36 -38 -44 -42 -57 -31 -9 7 -16 27 -16 44 0 18 -9 49 -20 71 -11 22 -20 47 -20 57 0 16 -10 18 -91 18 -83 0 -90 -1 -84 -18 3 -11 -1 -32 -9 -47 -8 -16 -18 -45 -21 -66 -4 -20 -15 -45 -26 -55 -19 -17 -21 -16 -62 27 -23 25 -33 34 -21 20 12 -14 42 -59 68 -99 36 -57 52 -74 76 -79 37 -7 30 -17 -50 -76 -74 -55 -81 -65 -76 -109 3 -25 0 -38 -7 -38 -22 0 -36 15 -55 61 -11 24 -36 59 -56 77 -47 41 -48 78 -3 141 38 52 50 71 44 71 -2 0 -19 -21 -37 -47 -19 -27 -40 -52 -47 -56 -7 -4 -13 -17 -13 -29 0 -18 -5 -20 -42 -16 -124 13 -257 67 -309 126 -37 43 -79 145 -79 193 0 10 -5 19 -11 19 -8 0 -10 -15 -5 -46z m841 -191 c16 -94 34 -120 123 -176 40 -26 42 -29 42 -78 0 -45 -2 -50 -17 -44 -45 18 -122 35 -163 35 -49 0 -132 -20 -169 -40 -24 -12 -24 -12 -18 26 4 22 7 47 7 57 0 10 22 32 54 52 66 42 94 76 101 124 11 67 15 81 25 81 5 0 12 -17 15 -37z m-45 -14 c0 -20 -4 -28 -12 -23 -7 5 -9 1 -6 -13 4 -16 1 -20 -21 -19 -14 1 -25 4 -24 9 3 8 56 77 61 77 1 0 2 -14 2 -31z m124 -51 c-11 -17 -33 -7 -48 24 -25 49 -19 55 19 18 19 -18 32 -37 29 -42z"/>
 <path d="M1805 1958 c-22 -132 -89 -215 -197 -245 -32 -9 -58 -20 -58 -25 0 -5 8 -7 18 -4 9 3 35 10 58 15 91 24 159 100 188 216 18 68 20 85 7 85 -5 0 -12 -19 -16 -42z"/>
 <path d="M1250 1865 c0 -5 9 -23 20 -40 26 -39 26 -25 0 17 -11 18 -20 29 -20 23z"/>
 </g>
<g id="layer113" fill="#481b07" stroke="none">
 <path d="M174 1954 c15 -115 93 -221 181 -246 22 -6 45 -17 50 -23 12 -15 122 -46 182 -53 55 -5 114 -59 138 -124 13 -39 22 -49 47 -56 l31 -8 -32 -27 c-48 -40 -21 -33 46 13 71 48 150 64 246 49 49 -8 77 -20 130 -57 105 -72 116 -78 67 -33 -25 22 -48 41 -52 41 -19 0 -6 19 14 22 23 3 68 69 67 98 0 8 -8 -1 -18 -21 -36 -78 -73 -95 -64 -31 5 41 1 46 -118 142 l-43 34 33 8 c25 7 42 24 78 81 25 40 55 84 67 98 12 14 2 5 -21 -20 -41 -43 -43 -44 -62 -27 -13 12 -27 16 -43 11 l-23 -7 23 17 c19 14 22 23 17 44 -4 14 -9 35 -12 46 -3 11 -7 32 -10 48 l-5 27 -90 0 c-84 0 -89 -1 -83 -20 3 -10 -1 -32 -9 -47 -8 -16 -17 -45 -21 -65 -4 -20 -16 -45 -26 -54 -19 -17 -21 -16 -62 27 -23 25 -33 34 -21 20 12 -14 42 -59 68 -99 36 -57 52 -74 76 -79 37 -7 30 -17 -50 -76 -74 -55 -81 -65 -76 -109 3 -25 0 -38 -7 -38 -22 0 -36 15 -55 61 -11 24 -36 59 -56 77 -47 41 -48 78 -3 141 38 52 50 71 44 71 -2 0 -19 -21 -37 -47 -19 -27 -40 -52 -47 -56 -7 -4 -13 -17 -13 -29 0 -18 -5 -20 -42 -16 -124 13 -257 67 -309 126 -37 43 -79 145 -79 193 0 10 -5 19 -11 19 -8 0 -10 -15 -5 -46z m842 -172 c3 -94 27 -134 110 -187 54 -35 54 -35 54 -86 0 -45 -2 -50 -17 -44 -45 18 -122 35 -163 35 -49 0 -132 -20 -169 -40 -24 -12 -24 -12 -18 26 4 22 7 47 7 57 0 10 22 32 54 52 30 19 63 46 74 60 20 25 24 37 37 118 7 43 30 50 31 9z m-46 -33 c0 -20 -4 -28 -12 -23 -7 5 -9 1 -6 -13 4 -16 1 -20 -21 -19 -14 1 -25 4 -24 9 3 8 56 77 61 77 1 0 2 -14 2 -31z m124 -51 c-11 -17 -33 -7 -48 24 -25 49 -19 55 19 18 19 -18 32 -37 29 -42z"/>
 <path d="M1805 1958 c-22 -132 -89 -215 -197 -245 -32 -9 -58 -20 -58 -25 0 -5 8 -7 18 -4 9 3 35 10 58 15 91 24 159 100 188 216 18 68 20 85 7 85 -5 0 -12 -19 -16 -42z"/>
 <path d="M1250 1865 c0 -5 9 -23 20 -40 26 -39 26 -25 0 17 -11 18 -20 29 -20 23z"/>
 </g>
<g id="layer114" fill="#361407" stroke="none">
 <path d="M915 1980 c3 -10 0 -32 -8 -47 -8 -15 -18 -44 -22 -63 -4 -19 -18 -46 -31 -61 l-24 -25 27 -42 c15 -23 31 -42 34 -42 4 0 29 25 54 55 26 30 53 55 59 55 6 0 19 -12 28 -27 9 -16 30 -41 47 -57 30 -29 31 -29 46 -10 9 10 22 31 30 45 13 24 12 28 -10 49 -17 16 -30 20 -47 15 l-23 -7 23 17 c19 14 22 23 17 44 -4 14 -9 35 -12 46 -3 11 -7 32 -10 48 l-5 27 -90 0 c-84 0 -89 -1 -83 -20z"/>
 <path d="M1795 1913 c-18 -95 -89 -172 -185 -200 -33 -10 -60 -22 -60 -26 0 -5 8 -6 18 -3 9 3 35 10 58 15 91 24 167 111 180 204 8 56 -1 63 -11 10z"/>
 <path d="M194 1904 c8 -86 79 -173 161 -196 22 -6 45 -17 50 -23 12 -14 115 -44 187 -54 l46 -7 4 43 c3 44 -14 56 -20 14 -3 -20 -8 -22 -45 -19 -105 11 -246 64 -295 111 -37 35 -59 72 -78 132 l-13 40 3 -41z"/>
 <path d="M880 1611 c-73 -53 -98 -88 -85 -117 8 -15 10 -12 13 19 3 33 10 43 49 70 49 34 101 77 93 76 -3 0 -34 -22 -70 -48z"/>
 <path d="M650 1617 c0 -2 15 -16 33 -33 l32 -29 -29 33 c-28 30 -36 37 -36 29z"/>
 <path d="M1172 1565 c9 -11 21 -31 27 -45 7 -17 10 -20 10 -8 1 10 -11 30 -26 46 -16 15 -20 19 -11 7z"/>
 <path d="M1266 1517 c-10 -26 -25 -52 -34 -58 -13 -7 -13 -9 -2 -6 18 4 63 82 58 99 -2 6 -12 -10 -22 -35z"/>
 <path d="M711 1548 c-3 -25 44 -98 62 -98 6 0 3 6 -7 13 -10 7 -26 31 -36 52 -10 22 -19 37 -19 33z"/>
 </g>
<g id="layer115" fill="#151111" stroke="none">
 <path d="M915 1980 c3 -10 0 -32 -8 -47 -8 -15 -18 -44 -22 -63 -4 -19 -16 -45 -28 -57 l-20 -22 27 -41 c14 -22 31 -40 36 -40 5 0 26 23 47 50 20 28 44 50 53 50 8 0 31 -21 50 -47 19 -26 40 -48 47 -50 6 -3 24 14 39 36 26 40 26 42 8 62 -13 14 -25 18 -44 14 l-25 -6 23 17 c19 13 22 22 17 43 -4 14 -9 35 -12 46 -3 11 -7 32 -10 48 l-5 27 -90 0 c-84 0 -89 -1 -83 -20z"/>
 </g>

</svg>