<?xml version="1.0" encoding="UTF-8" standalone="no"?>
<!-- Created with Inkscape (http://www.inkscape.org/) -->

<svg
   xmlns:dc="http://purl.org/dc/elements/1.1/"
   xmlns:cc="http://creativecommons.org/ns#"
   xmlns:rdf="http://www.w3.org/1999/02/22-rdf-syntax-ns#"
   xmlns:svg="http://www.w3.org/2000/svg"
   xmlns="http://www.w3.org/2000/svg"
   xmlns:sodipodi="http://sodipodi.sourceforge.net/DTD/sodipodi-0.dtd"
   xmlns:inkscape="http://www.inkscape.org/namespaces/inkscape"
   version="1.1"
   id="svg140"
   width="200"
   height="200"
   viewBox="0 0 200 200"
   sodipodi:docname="Trustee3.svg"
   inkscape:version="0.92.2 (5c3e80d, 2017-08-06)">
  <metadata
     id="metadata146">
    <rdf:RDF>
      <cc:Work
         rdf:about="">
        <dc:format>image/svg+xml</dc:format>
        <dc:type
           rdf:resource="http://purl.org/dc/dcmitype/StillImage" />
        <dc:title></dc:title>
      </cc:Work>
    </rdf:RDF>
  </metadata>
  <defs
     id="defs144" />
  <sodipodi:namedview
     pagecolor="#ffffff"
     bordercolor="#666666"
     borderopacity="1"
     objecttolerance="10"
     gridtolerance="10"
     guidetolerance="10"
     inkscape:pageopacity="0"
     inkscape:pageshadow="2"
     inkscape:window-width="640"
     inkscape:window-height="480"
     id="namedview142"
     showgrid="false"
     inkscape:zoom="1.18"
     inkscape:cx="100"
     inkscape:cy="100"
     inkscape:window-x="32"
     inkscape:window-y="68"
     inkscape:window-maximized="0"
     inkscape:current-layer="svg140" />
  <path
     inkscape:connector-curvature="0"
     id="path230"
     d="M -0.3050827,100.84746 V 0.8474576 H 99.694917 199.69492 v 100.0000024 100 H 99.694917 -0.3050827 Z"
     style="fill:#fdfdfd" />
  <path
     inkscape:connector-curvature="0"
     id="path228"
     d="m 13.127677,196.09746 c 0.362916,-2.6125 2.10151,-7.65238 3.863543,-11.19973 3.750975,-7.55152 7.462813,-9.92828 19.703697,-12.61662 11.13423,-2.4453 33.315241,-10.18843 34.753747,-12.13211 1.946606,-2.63023 3.091241,-0.55171 4.2557,7.72784 0.577879,4.10884 2.291945,11.43444 3.809034,16.27911 l 2.758344,8.80849 4.817455,-7.60481 c 2.649599,-4.18264 5.902683,-8.31587 7.229073,-9.18495 3.081925,-2.01936 2.339659,-2.91404 -6.385645,-7.69692 -3.754479,-2.05806 -7.383371,-4.6339 -8.064204,-5.72408 -0.680833,-1.09019 -1.620626,-5.03037 -2.088427,-8.75596 -0.803535,-6.39938 -1.239243,-7.25826 -7.882649,-15.53836 -3.867655,-4.82051 -8.022689,-11.20521 -9.233407,-14.18823 -1.781343,-4.38894 -2.646995,-5.42367 -4.537446,-5.42367 -1.937879,0 -3.014453,-1.40644 -6.315037,-8.25 -5.922249,-12.279419 -9.116538,-20.390262 -9.116538,-23.148441 0,-2.383602 1.86007,-5.054918 4.021472,-5.775385 C 45.393892,81.4478 44.819561,77.736886 43.117225,71.340989 39.737096,58.641401 40.181122,52.401551 45.190696,42.202713 51.954008,28.433495 62.332874,19.74901 78.694917,14.168157 92.559136,9.4392747 103.87013,8.1962112 115.10412,10.166833 c 10.58724,1.857172 20.12852,6.251155 24.57787,11.318681 l 3.15818,3.596968 3.10282,-2.867512 3.10282,-2.867512 -2.17544,3.80716 c -2.79645,4.893944 -2.7574,5.045139 0.82455,3.19284 3.63432,-1.879382 3.89496,-0.689397 0.53944,2.462945 l -2.46055,2.311574 3.82785,2.772881 c 6.0268,4.365792 8.60543,10.696547 8.53437,20.9526 -0.052,7.496696 -2.06156,17.686224 -4.97989,25.25 -0.46851,1.214292 -0.19033,1.75 0.90874,1.75 0.87116,0 2.34161,1.156352 3.26765,2.569671 1.58036,2.411943 1.5774,2.90693 -0.0483,8.064197 -0.95259,3.021989 -3.23731,8.382504 -5.07714,11.912244 -1.83983,3.52975 -3.87406,8.02038 -4.52053,9.97918 -0.86319,2.6155 -1.88141,3.70488 -3.83352,4.10143 -2.10231,0.42706 -3.3197,1.93399 -5.82199,7.20662 -1.74012,3.66667 -5.97654,10.01352 -9.41426,14.10413 -5.93904,7.06696 -6.2818,7.76438 -6.8806,14 -0.3466,3.60939 -1.15743,7.51695 -1.80184,8.68346 -0.64441,1.16652 -4.78691,4.0018 -9.20555,6.30063 -4.41864,2.29883 -8.03389,4.51863 -8.03389,4.9329 0,0.41426 1.6101,2.30398 3.57801,4.19937 1.9679,1.89539 5.20808,6.07614 7.20039,9.29056 l 3.62239,5.84439 2.76954,-8.84439 c 1.52324,-4.86442 3.24234,-12.20617 3.82022,-16.31501 1.16446,-8.27955 2.3091,-10.35807 4.2557,-7.72784 1.43851,1.94368 23.61952,9.68681 34.75375,12.13211 12.24088,2.68834 15.95272,5.0651 19.7037,12.61662 1.76203,3.54735 3.50062,8.58723 3.86354,11.19973 l 0.65985,4.75 h -35.693 -35.693 l 0.66303,-3.01878 c 0.52947,-2.41064 -0.10074,-4.32443 -3.12832,-9.5 -2.08523,-3.56467 -4.0694,-6.48122 -4.40925,-6.48122 -0.33985,0 -1.62831,1.07552 -2.86324,2.39004 -2.094,2.22896 -2.17314,2.78049 -1.17431,8.18366 1.6343,8.84072 1.92589,8.4263 -5.928993,8.4263 -3.85,0 -6.993349,-0.3375 -6.985219,-0.75 0.0081,-0.4125 0.69781,-3.64782 1.532623,-7.1896 1.46095,-6.19823 1.441803,-6.51564 -0.510813,-8.46825 -2.482545,-2.48255 -3.52523,-1.64004 -7.483812,6.04704 -1.856331,3.60477 -2.45086,5.91871 -1.991235,7.75 l 0.655272,2.61081 H 48.189781 12.467829 Z m 94.038713,-62.60744 c 2.64878,-1.12961 1.85292,-1.26088 -7.328623,-1.20883 -8.977216,0.0509 -9.936806,0.21364 -7.471474,1.26722 3.682389,1.57371 11.041147,1.54468 14.800097,-0.0584 z M 71.301906,92.265671 c -0.333844,-0.869984 -0.606989,-2.316412 -0.606989,-3.214286 0,-1.497339 -0.137776,-1.494722 -1.664097,0.0316 -1.37467,1.374669 -1.440336,1.933714 -0.377556,3.214286 1.675887,2.01932 3.427634,1.998421 2.648642,-0.0316 z M 130.54889,89.1715 c -1.36172,-1.640774 -1.38017,-1.623448 -2.28828,2.148804 -0.71112,2.954022 -0.70254,2.960976 1.3558,1.098208 1.60247,-1.45022 1.81359,-2.185343 0.93248,-3.247012 z"
     style="fill:#e3c8ad" />
  <path
     inkscape:connector-curvature="0"
     id="path226"
     d="m 12.694917,199.89668 c 0,-3.08401 2.584354,-12.21562 4.577008,-16.17249 2.887037,-5.73288 7.55074,-8.64938 16.922992,-10.58301 10.385828,-2.14274 35.80697,-10.99304 37.251945,-12.96916 1.921429,-2.62771 2.983412,-0.65445 4.130822,7.67544 0.568203,4.125 2.336471,11.775 3.929486,17 1.593015,5.225 3.175696,10.9625 3.517069,12.75 l 0.620678,3.25 h -35.475 c -21.758991,0 -35.475,-0.36761 -35.475,-0.95078 z m 79.715745,-2.79922 c 0.324502,-2.0625 1.165165,-5.40609 1.868141,-7.43019 1.205619,-3.47139 1.140207,-3.77057 -1.152874,-5.27306 -1.337057,-0.87607 -2.431012,-1.9331 -2.431012,-2.34896 0,-0.41586 1.646082,-2.45083 3.657959,-4.52216 l 3.657959,-3.76605 -2.364479,-1.70479 c -1.300463,-0.93763 -4.826085,-3.05479 -7.834716,-4.70479 -7.081784,-3.88381 -9.079483,-6.73905 -9.8347,-14.05641 -0.562106,-5.44627 -1.151207,-6.60004 -7.104082,-13.91355 -3.570132,-4.38614 -7.788432,-10.74703 -9.373999,-14.13531 -2.350069,-5.02198 -3.415127,-6.26697 -5.762969,-6.73654 -1.848952,-0.36979 -3.125729,-1.39629 -3.566127,-2.8671 -0.377305,-1.2601 -2.641286,-6.34109 -5.031069,-11.29109 -2.389782,-4.950002 -4.92266,-11.182581 -5.628616,-13.850178 -1.260172,-4.761814 -1.23278,-4.893853 1.503576,-7.247567 l 2.787132,-2.39739 -1.993522,-7.252433 C 40.64398,62.091861 40.328746,57.825375 42.123987,50.817865 44.271189,42.436513 48.818268,34.723448 55.619459,27.925928 70.393145,13.160213 99.005806,6.0646754 120.88664,11.740585 c 9.67472,2.50963 12.38758,3.921466 17.65329,9.187178 l 4.22592,4.225921 3.13998,-2.903113 3.13998,-2.903113 -2.21608,3.876032 c -2.536,4.435582 -2.28746,5.297238 1.02954,3.569271 l 2.33565,-1.216738 -2.32274,2.527601 -2.32275,2.527601 5.02589,4.701132 c 6.05026,5.659311 7.55289,9.606905 7.42833,19.515101 -0.0792,6.297273 -2.62073,19.43758 -4.91694,25.421393 -0.39474,1.028682 -0.054,1.578607 0.97817,1.578607 0.87116,0 2.32109,1.125043 3.22206,2.500096 1.52045,2.320499 1.51571,2.877229 -0.066,7.75 -0.93725,2.887447 -3.46403,8.865716 -5.61507,13.285046 -2.15103,4.41933 -3.91097,8.51208 -3.91097,9.09501 0,1.47458 -3.36061,4.36895 -5.07874,4.37414 -0.78169,0.002 -3.11175,3.29741 -5.1779,7.32233 -2.06615,4.02492 -6.45365,10.52209 -9.75,14.43815 -5.57968,6.62867 -5.99336,7.46596 -5.99336,12.13062 0,8.56103 -2.24339,11.22041 -14.12746,16.74707 -2.54511,1.18359 -4.95927,2.68886 -5.36481,3.34503 -0.44074,0.71313 0.72362,2.6892 2.89454,4.91242 l 3.63188,3.71938 -2.60255,2.44036 c -2.72588,2.556 -2.74295,2.85048 -0.7935,13.69035 l 0.58448,3.25 h -7.048422 -7.04842 l 0.590004,-3.75 z m 16.583918,-64 3.20034,-1.75 -6.25,-0.29772 c -3.4375,-0.16374 -9.062503,-0.16374 -12.500003,0 l -6.25,0.29772 3,1.70996 c 4.112166,2.34389 14.545833,2.36611 18.799663,0.04 z M 71.694917,89.824405 v -4.023053 l -2.5,1.638063 c -2.955714,1.936658 -3.003283,2.194441 -0.845012,4.579302 2.51088,2.774492 3.345012,2.227305 3.345012,-2.194312 z m 16.274478,3.415242 c 0.710188,-0.710188 -1.398174,-4.392189 -2.515025,-4.392189 -0.417699,0 -0.759453,1.125 -0.759453,2.5 0,2.312579 1.808835,3.357831 3.274478,1.892189 z m 26.725525,-3.027048 v -3.634858 l -2,2.542588 c -1.1,1.398423 -2,3.034109 -2,3.634858 0,0.600749 0.9,1.092271 2,1.092271 1.63318,0 2,-0.666667 2,-3.634859 z m 16.41468,1.339237 c 0.82296,-1.304675 0.56153,-2.172613 -1.17856,-3.912703 l -2.23612,-2.236119 v 4.305555 c 0,4.454044 1.31879,5.165936 3.41468,1.843267 z M 83.248768,86.93459 c -0.369537,-0.597922 -1.33616,-1.087132 -2.148052,-1.087132 -1.191357,0 -1.258565,0.406591 -0.348342,2.107359 0.76679,1.43276 1.454415,1.780769 2.148051,1.087133 0.561125,-0.561125 0.717879,-1.509437 0.348343,-2.10736 z m 43.269472,0.245734 c -0.48655,-2.508769 -2.82332,-2.853244 -2.82332,-0.416199 0,1.228337 0.64569,2.083333 1.57332,2.083333 0.93124,0 1.44138,-0.68037 1.25,-1.667134 z M 45.950692,60.097458 c -0.417043,-9.243424 -0.287548,-10.048221 2.492373,-15.489831 1.61275,-3.156907 2.351692,-5.257992 1.642095,-4.669079 -2.701586,2.242117 -5.622992,10.069617 -5.678401,15.214481 -0.05288,4.909821 1.077286,14.694429 1.697268,14.694429 0.15761,0 0.08861,-4.3875 -0.153335,-9.75 z m 106.115748,-4.25 c 0.029,-6.768286 -0.4349,-9.563173 -2.27714,-13.718515 -1.27247,-2.870183 -2.91583,-5.71834 -3.65192,-6.329239 -0.73609,-0.610898 -0.12427,1.287433 1.3596,4.218515 2.47291,4.88474 2.69794,6.304497 2.69794,17.02192 0,8.021042 0.28812,11.004153 0.91754,9.5 0.50464,-1.205975 0.93394,-6.017681 0.95398,-10.692681 z M 81.694917,18.503409 c 7.72714,-2.793072 9.591096,-3.07088 20.500003,-3.055368 9.78852,0.01392 13.10574,0.418041 18,2.192858 4.09213,1.483938 5.36857,1.693338 4.01423,0.658535 -3.61196,-2.75978 -14.4309,-5.451976 -21.90947,-5.451976 -8.925761,0 -17.031248,2.03456 -26.104763,6.552561 -7.570461,3.769582 -7.276722,3.721696 5.5,-0.89661 z M 116.3656,197.59746 c 0.34137,-1.7875 1.92405,-7.525 3.51707,-12.75 1.59301,-5.225 3.36128,-12.875 3.92948,-17 1.14741,-8.32989 2.2094,-10.30315 4.13083,-7.67544 1.44497,1.97612 26.86611,10.82642 37.25194,12.96916 9.38372,1.93599 14.03102,4.84727 16.95791,10.62321 1.79806,3.54831 4.54209,13.67765 4.54209,16.76673 0,0.17399 -15.96375,0.31634 -35.475,0.31634 h -35.475 z"
     style="fill:#dab997" />
  <path
     inkscape:connector-curvature="0"
     id="path224"
     d="m 12.694917,200.53112 c 0,-3.08908 2.744028,-13.21842 4.542093,-16.76673 2.918784,-5.75994 7.559253,-8.67795 16.905165,-10.63025 10.886196,-2.27407 34.603095,-10.33703 36.76493,-12.49887 1.074963,-1.07496 2.206374,-1.70258 2.514246,-1.39471 0.307871,0.30787 1.197641,4.28287 1.977266,8.83333 0.779625,4.55047 2.701119,12.54857 4.269987,17.77357 1.568867,5.225 3.12517,10.7375 3.458451,12.25 l 0.605966,2.75 H 48.213969 c -19.535479,0 -35.519052,-0.14235 -35.519052,-0.31634 z M 92.88935,195.778 c 0.506772,-2.7882 1.296571,-6.0507 1.755109,-7.25 0.659263,-1.72428 0.280975,-2.63582 -1.807918,-4.35644 l -2.641624,-2.1759 4,-4.14082 c 3.90964,-4.04729 3.95482,-4.17503 2,-5.65498 -1.1,-0.83278 -4.475,-2.77855 -7.5,-4.32393 -3.025,-1.54538 -6.242775,-3.64649 -7.150611,-4.66913 -1.959695,-2.20751 -3.836013,-8.58337 -3.843812,-13.06154 -0.0044,-2.49778 -1.337486,-4.69757 -6.06029,-10 -3.330092,-3.73879 -7.673526,-10.0603 -9.652075,-14.0478 -2.346168,-4.72839 -4.186181,-7.25 -5.2903,-7.25 -2.080907,0 -4.521075,-2.66265 -5.498652,-6 -0.402766,-1.375 -1.552126,-3.85641 -2.554133,-5.51424 -2.413417,-3.99303 -7.950127,-17.885283 -7.950127,-19.947803 0,-0.895877 1.128472,-2.75734 2.507715,-4.136583 l 2.507715,-2.507715 -2.145641,-8.196831 C 39.59003,57.36014 41.042689,48.195263 49.433393,35.518534 56.60869,24.678049 65.315042,18.676657 81.694917,13.280282 c 7.549634,-2.487239 10.009405,-2.807745 22.000003,-2.866581 15.47251,-0.07592 25.12294,2.18002 30.55501,7.142721 1.68025,1.53507 2.35525,2.280966 1.5,1.657548 C 117.67214,6.0365645 75.772066,11.182418 57.774074,28.790381 52.101826,34.339707 46.233422,43.805346 44.540064,50.13662 42.893061,56.294582 44.489091,67.391 48.597712,78.347458 l 2.999962,8 0.04862,-7.916667 c 0.02674,-4.354166 0.274335,-7.690952 0.550208,-7.415079 0.275873,0.275873 1.247328,4.513373 2.15879,9.416667 l 1.657204,8.915079 1.235187,-6.038128 c 0.679353,-3.32097 2.571932,-8.986256 4.205732,-12.589524 l 2.970546,-6.551397 -7.488508,-2.203156 c -8.758369,-2.576755 -9.270415,-3.887219 -0.632844,-1.619618 9.651655,2.533825 22.764945,3.523699 31.784981,2.399331 15.5863,-1.942869 32.67483,-6.295453 40.39965,-10.290114 2.28513,-1.181687 3.2938,-2.549553 3.7762,-5.120929 1.18433,-6.313054 1.9378,-4.465723 1.61233,3.953068 -0.29939,7.744243 -0.0718,8.837201 3.67661,17.657839 2.19766,5.171445 4.31504,11.149722 4.70528,13.28506 1.00221,5.483896 1.99663,3.026956 3.59508,-8.882432 l 1.34218,-10 0.5,9 0.5,9 2.75,-10.719559 c 4.23506,-16.508337 3.68646,-29.805303 -1.47248,-35.690569 -1.80751,-2.06198 -1.58988,-1.978384 1.0677,0.410128 1.83587,1.65 4.27463,4.8 5.41946,7 3.46736,6.663157 2.37637,21.115827 -2.84965,37.75 -0.36085,1.14856 -0.019,1.75 0.99453,1.75 2.32586,0 4.87516,4.496334 4.08279,7.201037 -1.3227,4.514967 -5.52342,14.419875 -9.22737,21.757265 -2.57984,5.11058 -4.4573,7.62881 -5.96436,8 -1.4888,0.36668 -3.34095,2.8033 -5.73271,7.5417 -1.94333,3.85 -6.19347,10.11274 -9.44477,13.91721 -5.64901,6.61013 -5.92925,7.19691 -6.31263,13.21769 -0.49086,7.70891 -2.41044,10.10178 -11.98611,14.9414 -3.67157,1.85565 -6.98573,3.87573 -7.3648,4.48907 -0.37907,0.61334 0.94514,2.78888 2.94267,4.83454 l 3.63188,3.71938 -2.60255,2.44036 c -2.72588,2.556 -2.74295,2.85048 -0.7935,13.69035 l 0.58448,3.25 h -6.974777 -6.974776 z m 16.10523,-62.68054 3.20034,-1.75 -6.25,-0.29772 c -3.4375,-0.16374 -9.062503,-0.16374 -12.500003,0 l -6.25,0.29772 3,1.70996 c 4.112166,2.34389 14.545833,2.36611 18.799663,0.04 z M 71.694917,89.120185 v -4.727272 l -2.689328,2.689327 c -2.62889,2.62889 -2.64788,2.735126 -0.845012,4.727273 2.783253,3.07546 3.53434,2.503948 3.53434,-2.689328 z m 17,3.838057 c 0,-0.489069 -0.836684,-1.922477 -1.859297,-3.185351 l -1.859297,-2.296134 -0.46751,3.18535 c -0.411212,2.801764 -0.187311,3.185351 1.859297,3.185351 1.279744,0 2.326807,-0.400147 2.326807,-0.889216 z m 26.190223,-2.607102 -0.40817,-3.496318 -1.89103,2.404047 c -2.51008,3.191055 -2.38576,4.588589 0.40818,4.588589 2.03836,0 2.25289,-0.396653 1.89102,-3.496318 z m 16.40476,0.941512 c 1.0968,-1.685029 0.94106,-2.185497 -1.16442,-3.741879 l -2.43056,-1.796685 v 4.130018 c 0,4.402087 1.31188,4.916095 3.59498,1.408546 z M 83.694917,87.288441 c 0,-0.792541 -0.9,-1.440983 -2,-1.440983 -2.249789,0 -2.564807,1.035193 -0.839919,2.760081 1.378498,1.378498 2.839919,0.699691 2.839919,-1.319098 z m 43.000003,-0.5 c 0,-1.067541 -0.675,-1.940983 -1.5,-1.940983 -1.48325,0 -2.09673,3.069938 -0.86052,4.306147 1.04259,1.042588 2.36052,-0.277936 2.36052,-2.365164 z M 81.396623,76.347458 c 6.803071,0 9.867596,-0.333144 9.198805,-1 -1.669755,-1.664926 -16.942434,-1.070505 -20.900511,0.813459 -1.925,0.91626 -2.375,1.333066 -1,0.926235 1.375,-0.406832 7.090768,-0.739694 12.701706,-0.739694 z m 48.298297,-0.257809 c -4.07377,-1.856082 -18.52717,-2.319523 -21.28561,-0.682513 -1.31906,0.782804 0.50992,0.952079 7,0.647864 4.83209,-0.226498 10.36061,0.04356 12.28561,0.600133 5.1428,1.486928 5.98317,1.249319 2,-0.565484 z M 116.29143,198.09746 c 0.34904,-1.5125 2.10199,-7.925 3.89546,-14.25 1.79346,-6.325 3.56027,-13.97888 3.92623,-17.00861 0.90845,-7.52082 1.78744,-8.78575 4.33491,-6.23828 2.18982,2.18982 25.83499,10.24311 36.79963,12.53357 9.34591,1.9523 13.98638,4.87031 16.90517,10.63025 1.79806,3.54831 4.54209,13.67765 4.54209,16.76673 0,0.17399 -15.98357,0.31634 -35.51905,0.31634 H 115.65682 Z M 139.77387,64.264125 c 0.048,-1.164943 0.28494,-1.4019 0.60416,-0.604167 0.28887,0.721875 0.25335,1.584375 -0.0789,1.916667 -0.3323,0.332291 -0.56864,-0.258334 -0.52522,-1.3125 z M 84.694917,57.838418 c 12.684366,-0.724462 20.107543,-2.001764 31.500003,-5.42019 1.1,-0.330066 0.50749,0.09502 -1.31668,0.944631 -7.46546,3.477057 -14.76381,4.707622 -29.683323,5.00487 l -15,0.298851 z m 53.252183,-3.49096 c 0.0111,-2.2 0.21589,-2.982253 0.45508,-1.738341 0.23919,1.243913 0.23011,3.043913 -0.0202,4 -0.25027,0.956088 -0.44598,-0.06166 -0.43488,-2.261659 z m 10.90571,-1.5 c 0,-1.375 0.22698,-1.9375 0.50439,-1.25 0.27741,0.6875 0.27741,1.8125 0,2.5 -0.27741,0.6875 -0.50439,0.125 -0.50439,-1.25 z M 98.456576,49.140197 c 1.243911,-0.239193 3.043914,-0.230112 4.000004,0.02018 0.95609,0.250292 -0.0617,0.445996 -2.26166,0.434897 -2.200003,-0.0111 -2.982256,-0.215885 -1.738344,-0.455077 z m 6.988344,-0.95502 c 0.6875,-0.277412 1.8125,-0.277412 2.5,0 0.6875,0.277413 0.125,0.504386 -1.25,0.504386 -1.375,0 -1.9375,-0.226973 -1.25,-0.504386 z M 70.694917,45.347458 c 1.375,-0.786021 3.175,-1.427461 4,-1.425423 0.825,0.002 -0.01416,0.661093 -1.86481,1.464565 -4.258346,1.848794 -5.401141,1.827844 -2.13519,-0.03914 z m 7.617939,-2.48231 c 1.164867,-0.470545 4.314867,-1.10466 7,-1.409144 4.73415,-0.536834 4.70028,-0.510315 -1.117939,0.875289 -6.732858,1.603425 -9.050608,1.813783 -5.882061,0.533855 z m 13.132061,-2.679971 c 0.6875,-0.277412 1.8125,-0.277412 2.5,0 0.6875,0.277413 0.125,0.504386 -1.25,0.504386 -1.375,0 -1.9375,-0.226973 -1.25,-0.504386 z m -37.75,-2.715274 c 0,-0.207656 0.7875,-0.995156 1.75,-1.75 1.586056,-1.243871 1.621426,-1.208501 0.377555,0.377555 -1.306369,1.665748 -2.127555,2.195479 -2.127555,1.372445 z m 70.000003,-5.622445 c -0.90129,-0.58246 -1.02463,-0.975486 -0.30902,-0.984687 0.65504,-0.0084 1.4691,0.434687 1.80902,0.984687 0.7673,1.241525 0.42112,1.241525 -1.5,0 z m -7.1875,-2.683114 c 0.72187,-0.288871 1.58437,-0.253344 1.91667,0.07895 0.33229,0.332292 -0.25834,0.568641 -1.3125,0.52522 -1.16495,-0.04798 -1.4019,-0.284941 -0.60417,-0.604167 z M 78.42825,26.72337 c 0.678334,-0.683418 1.485241,-0.990671 1.793128,-0.682784 0.307888,0.307887 -0.247112,0.867048 -1.233333,1.242579 -1.425198,0.542685 -1.540062,0.427821 -0.559795,-0.559795 z m 45.76667,-2.959916 c -2.75,-1.578103 -4.64457,-2.879789 -4.21016,-2.892637 1.28864,-0.03811 8.52174,3.862759 9.20133,4.962351 0.78773,1.274573 0.96384,1.347602 -4.99117,-2.069714 z m 19.22281,2.444516 c -0.30986,-0.501354 0.52575,-1.959801 1.85691,-3.240992 2.84333,-2.736615 3.17391,-1.657466 0.54113,1.766512 -1.00907,1.312318 -2.08819,1.975833 -2.39804,1.47448 z M 84.194917,24.311343 c 1.65,-0.755522 3.9,-1.363871 5,-1.351885 1.1,0.01199 -0.025,0.659857 -2.5,1.439715 -5.552059,1.749421 -6.443976,1.718087 -2.5,-0.08783 z m 50.372443,-1.213885 c -1.24387,-1.586056 -1.2085,-1.621426 0.37756,-0.377555 1.66575,1.306369 2.19548,2.127555 1.37244,2.127555 -0.20765,0 -0.99515,-0.7875 -1.75,-1.75 z M 92.963949,22.154467 c 0.972967,-0.253543 2.322967,-0.236869 3,0.03705 0.677032,0.273927 -0.119032,0.481372 -1.769032,0.460992 -1.65,-0.02038 -2.203936,-0.244498 -1.230968,-0.498042 z m 16.543471,-3.990123 c 0.72187,-0.288871 1.58437,-0.253344 1.91667,0.07895 0.33229,0.332292 -0.25834,0.568641 -1.3125,0.52522 -1.16495,-0.04798 -1.4019,-0.284941 -0.60417,-0.604167 z"
     style="fill:#caa178" />
  <path
     inkscape:connector-curvature="0"
     id="path222"
     d="m 13.233812,197.09746 c 2.722018,-16.21482 7.594928,-21.2575 23.961105,-24.79589 11.490779,-2.48432 31.628875,-9.36001 34.155472,-11.66161 2.065132,-1.88122 2.178004,-1.88659 2.69304,-0.12801 0.295662,1.00953 0.829386,4.08551 1.186054,6.83551 0.356668,2.75 2.4073,11.22886 4.556961,18.84191 2.14966,7.61306 3.908473,14.02556 3.908473,14.25 0,0.22445 -15.995391,0.40809 -35.545313,0.40809 H 12.604291 Z M 92.88935,195.778 c 0.506772,-2.7882 1.296571,-6.0507 1.755109,-7.25 0.659263,-1.72428 0.280975,-2.63582 -1.807918,-4.35644 l -2.641624,-2.1759 4,-4.12735 4,-4.12734 -2.5,-1.91771 c -1.375,-1.05473 -5.027966,-3.27543 -8.117702,-4.93488 -3.089736,-1.65944 -6.062287,-3.58502 -6.60567,-4.27905 -1.251666,-1.59868 -3.276628,-9.8137 -3.276628,-13.29288 0,-1.83596 -1.853033,-4.68369 -6.056234,-9.30718 -3.485871,-3.83443 -7.633472,-9.87712 -9.772487,-14.23765 -2.298428,-4.6855 -4.206649,-7.41237 -5.00163,-7.14738 -1.405674,0.46856 -5.169649,-2.49378 -5.169649,-4.06865 0,-0.54003 -1.757606,-4.63279 -3.905791,-9.09501 -2.148185,-4.46221 -4.709873,-10.422307 -5.692639,-13.244644 -1.691458,-4.857574 -1.695256,-5.271311 -0.07116,-7.75 0.943634,-1.440163 2.336582,-2.618478 3.095444,-2.618478 1.099689,0 0.949029,-1.370103 -0.742244,-6.75 -1.524436,-4.849192 -2.130668,-9.425212 -2.152801,-16.25 -0.02792,-8.608453 0.261412,-10.110006 3.082985,-16 4.296327,-8.968521 9.704443,-15.311567 17.525313,-20.555009 16.23011,-10.881354 39.127596,-14.9678533 58.679896,-10.472563 8.26322,1.899805 5.52873,2.172824 -3.88251,0.387641 -14.45497,-2.7419078 -31.464408,-0.09339 -46.814648,7.289462 -14.165593,6.81308 -25.937933,22.026594 -27.650426,35.732924 -0.686098,5.491342 1.504943,16.848564 5.712306,29.609636 2.473542,7.502336 6.738214,17.430041 7.252139,16.882211 0.193125,-0.20586 1.13368,-5.999302 2.090122,-12.874302 0.956442,-6.875 2.783719,-15.31122 4.060615,-18.747156 l 2.32163,-6.247155 -4.492421,-1.131205 c -7.169374,-1.805269 -4.61648,-1.910477 5.118387,-0.210935 5.907366,1.031325 12.035906,1.38646 17.965803,1.041075 11.459621,-0.66746 30.619633,-4.913097 41.250003,-9.140524 l 8.25,-3.280814 v 2.281735 c 0,5.858554 10.82284,46.068465 12.03672,44.719846 0.8126,-0.902794 7.06237,-20.818565 9.39209,-29.929212 2.0451,-7.99763 2.05431,-21.26334 0.0181,-26.137774 -0.85413,-2.044834 -2.76663,-5.067881 -4.24996,-6.717881 l -2.69695,-3 3.3761,3 c 7.67436,6.819439 9.14679,18.269079 4.63612,36.050663 -1.36828,5.393913 -2.38078,9.890659 -2.25,9.992771 0.13078,0.102111 1.25028,0.712444 2.48778,1.356295 1.67316,0.870519 2.25,2.056224 2.25,4.624934 0,3.673333 -4.19702,15.307639 -7.02564,19.475339 -0.93321,1.375 -2.23223,4.1515 -2.88671,6.17001 -1.3206,4.07293 -3.36317,6.23815 -5.28154,5.59869 -0.76348,-0.25449 -2.73146,2.56912 -4.98717,7.15546 -2.04932,4.16671 -6.39424,10.6325 -9.65538,14.36841 -5.57752,6.38953 -5.95496,7.14684 -6.36123,12.76343 -0.55186,7.62938 -2.59604,10.37181 -11.20381,15.03079 -9.46592,5.12345 -9.58026,5.3051 -5.79657,9.20887 3.76507,3.88457 3.89686,4.76195 1.09602,7.29667 -2.15733,1.95237 -2.20368,3.90502 -0.31231,13.15767 l 0.66434,3.25 h -6.988488 -6.988485 z m 12.95509,-61.36968 c 2.00723,-0.33758 4.19983,-1.27688 4.87244,-2.08732 1.06605,-1.28451 -0.35967,-1.47354 -11.113804,-1.47354 -11.033739,0 -12.17632,0.16041 -10.817962,1.51877 1.564068,1.56407 9.248171,3.46601 11.909806,2.94787 0.825,-0.1606 3.14228,-0.5682 5.14952,-0.90578 z M 71.694917,89.120185 v -4.727272 l -2.689328,2.689327 c -2.62889,2.62889 -2.64788,2.735126 -0.845012,4.727273 2.783253,3.07546 3.53434,2.503948 3.53434,-2.689328 z m 16.993411,3.977273 c -0.0036,-0.4125 -0.849591,-2.028617 -1.879927,-3.591371 l -1.873338,-2.841371 -0.419272,3.591371 c -0.373823,3.202059 -0.170035,3.591371 1.879927,3.591371 1.264559,0 2.296234,-0.3375 2.29261,-0.75 z m 26.178122,-2.90647 -0.42688,-3.65647 -1.85009,2.40647 c -2.49775,3.248899 -2.36105,4.90647 0.40464,4.90647 2.05756,0 2.25434,-0.384285 1.87233,-3.65647 z m 16.49673,1.029584 c 1.18338,-1.782275 1.04773,-2.291296 -1.16442,-4.369508 l -2.50384,-2.352234 v 4.757647 c 0,5.048988 1.19509,5.688877 3.66826,1.964095 z M 83.694917,87.288441 c 0,-0.792541 -0.9,-1.440983 -2,-1.440983 -2.249789,0 -2.564807,1.035193 -0.839919,2.760081 1.378498,1.378498 2.839919,0.699691 2.839919,-1.319098 z m 43.000003,0.05902 c 0,-1.833333 -0.53333,-2.5 -2,-2.5 -2.28494,0 -2.40366,0.377237 -0.96482,3.065741 1.44583,2.701543 2.96482,2.411691 2.96482,-0.565741 z M 81.913651,76.366192 c 12.024889,0.02102 13.402137,-1.692254 1.883559,-2.343112 -7.294418,-0.412171 -16.020404,1.501085 -19.602293,4.297991 -1.633556,1.275557 -1.175501,1.23782 2.5,-0.20596 3.325304,-1.306218 7.298057,-1.762763 15.218734,-1.748919 z m 54.781269,2.925036 c 0,-0.305927 -2.1375,-1.522158 -4.75,-2.702736 -3.7142,-1.678431 -6.75509,-2.156812 -13.94497,-2.19377 -5.85111,-0.03008 -9.63117,0.387102 -10.39442,1.147156 -0.93002,0.926116 0.79851,1.075327 7.69497,0.664246 8.20196,-0.488899 13.11292,0.333638 21.14442,3.541482 0.1375,0.05492 0.25,-0.150452 0.25,-0.456378 z m -21,121.148142 c 0,-0.22444 1.75881,-6.63694 3.90847,-14.25 2.14966,-7.61305 4.2003,-16.09191 4.55696,-18.84191 0.35667,-2.75 0.8904,-5.82598 1.18606,-6.83551 0.51503,-1.75858 0.62791,-1.75321 2.69304,0.12801 2.52659,2.3016 22.66469,9.17729 34.15547,11.66161 16.36618,3.53839 21.23909,8.58107 23.96111,24.79589 l 0.62952,3.75 h -35.54532 c -19.54992,0 -35.54531,-0.18364 -35.54531,-0.40809 z"
     style="fill:#b6895e" />
  <path
     inkscape:connector-curvature="0"
     id="path220"
     d="m 13.233812,197.09746 c 1.690685,-10.07126 5.357967,-17.40158 10.107911,-20.20412 1.794058,-1.05852 8.046048,-3.07749 13.89331,-4.4866 14.317692,-3.45038 31.461152,-9.38447 34.159065,-11.82392 l 2.19918,-1.9885 0.543147,2.37657 c 0.29873,1.30711 0.996171,5.35733 1.549868,9.00049 0.553697,3.64316 2.292621,10.84316 3.864275,16 1.571654,5.15684 3.155655,10.61358 3.520003,12.12608 l 0.66245,2.75 H 48.168656 12.604291 Z m 79.59367,-1 c 0.480894,-2.6125 1.293694,-5.97117 1.806222,-7.4637 0.804145,-2.34176 0.563813,-2.98369 -1.753459,-4.68351 l -2.685328,-1.9698 3.958549,-4.07223 c 4.704072,-4.83917 4.600867,-5.02598 -5.958549,-10.78562 -7.588632,-4.13923 -8.872583,-6.18695 -10.195883,-16.261 -0.451901,-3.44025 -1.579534,-5.58466 -4.740056,-9.01414 -5.565409,-6.03901 -10.271477,-13.02926 -12.690494,-18.85006 -1.533406,-3.68979 -2.490476,-4.77907 -4.149676,-4.72292 -1.710134,0.0579 -2.928904,-1.47516 -5.887217,-7.40524 -4.488071,-8.99655 -8.526746,-18.54532 -9.383258,-22.185124 -0.457705,-1.94505 -0.06397,-3.226104 1.459926,-4.75 2.285002,-2.285002 4.086658,-2.714537 4.086658,-0.974304 0,2.570924 9.390961,20.938828 10.069613,19.695298 0.790404,-1.44831 2.459793,-9.756524 3.417021,-17.00582 0.610809,-4.625788 0.708127,-4.732888 6.316866,-6.951812 4.677696,-1.850586 7.559772,-2.242661 16.114728,-2.192236 8.582002,0.05058 10.116252,-0.159403 8.704902,-1.191408 -4.657511,-3.405655 -16.791079,-2.399381 -25.804444,2.140043 l -4.681315,2.357662 1.985645,-7.165441 c 1.092105,-3.940993 2.1838,-7.486061 2.425988,-7.877931 0.242189,-0.391869 2.13024,-0.320075 4.19567,0.159544 12.534526,2.910674 40.484449,-2.140684 56.505329,-10.212142 l 5.75,-2.896901 v 3.140609 c 0,2.613549 3.13831,18.26831 4.53935,22.643543 0.26586,0.830218 -0.85806,0.617946 -3.31868,-0.626792 -8.16026,-4.127984 -20.46804,-4.904884 -24.92557,-1.573369 -1.53688,1.148648 -0.35663,1.313098 8.2049,1.143219 12.57003,-0.249415 20.13276,1.943197 21.15165,6.132352 1.24972,5.138226 6.53122,18.16923 7.36404,18.16923 0.81134,0 3.78043,-7.174119 6.26875,-15.146982 1.28909,-4.130408 1.78388,-4.422009 4.7813,-2.817836 1.31738,0.705038 1.93426,2.096335 1.93426,4.362462 0,3.197214 -4.68052,15.921786 -7.39064,20.092386 -0.71836,1.10548 -1.86038,3.70092 -2.53782,5.76765 -1.19952,3.65948 -4.24687,6.37003 -5.96661,5.30717 -0.46956,-0.2902 -1.78026,1.7018 -2.91266,4.42667 -2.45003,5.89543 -7.12859,12.88458 -12.61484,18.84493 -3.5332,3.83852 -4.06896,5.08467 -4.66599,10.85282 -0.77756,7.51236 -2.63159,10.50503 -8.41144,13.57728 -2.2,1.1694 -5.95881,3.20892 -8.3529,4.53227 l -4.3529,2.4061 3.6029,3.6897 c 4.18156,4.28231 4.34613,5.1228 1.50623,7.69286 -1.80128,1.63014 -2.00472,2.60294 -1.44408,6.90499 0.35891,2.75414 0.9012,6.02003 1.20507,7.25753 0.53314,2.17119 0.30802,2.25 -6.42681,2.25 h -6.979302 z m 13.009198,-61.27269 c 2.00297,-0.55635 4.19557,-1.67884 4.87245,-2.49443 1.07623,-1.29678 -0.30607,-1.48288 -11.014213,-1.48288 -10.785423,0 -12.096116,0.17926 -10.996684,1.504 2.532463,3.05143 10.774736,4.2409 17.138447,2.47331 z M 71.851429,89.347458 c 0.196845,-2.475 0.0956,-4.5 -0.224992,-4.5 -0.320591,0 -1.635345,1.120285 -2.921676,2.489522 -2.270635,2.41698 -2.285768,2.548104 -0.519327,4.5 2.657723,2.93675 3.267352,2.52276 3.665995,-2.489522 z m 16.836899,3.75 c -0.0036,-0.4125 -0.849591,-2.028617 -1.879927,-3.591371 l -1.873338,-2.841371 -0.419272,3.591371 c -0.373823,3.202059 -0.170035,3.591371 1.879927,3.591371 1.264559,0 2.296234,-0.3375 2.29261,-0.75 z m 26.178122,-2.90647 -0.42688,-3.65647 -1.85009,2.40647 c -2.49775,3.248899 -2.36105,4.90647 0.40464,4.90647 2.05756,0 2.25434,-0.384285 1.87233,-3.65647 z m 3.82847,3.215487 c 0,-0.242541 -0.45,-0.719098 -1,-1.059017 -0.55,-0.339919 -1,-0.141476 -1,0.440983 0,0.582459 0.45,1.059017 1,1.059017 0.55,0 1,-0.198442 1,-0.440983 z M 131.2044,91.83698 c 1.76644,-1.951896 1.75131,-2.08302 -0.51932,-4.5 -1.42191,-1.513549 -3.44655,-2.489522 -5.16447,-2.489522 -3.15866,0 -3.76592,1.974787 -1.24947,4.063253 1.30629,1.084129 1.73178,1.062285 2.48468,-0.127555 0.65379,-1.03321 0.91277,-0.524583 0.92379,1.814302 0.0177,3.746548 0.95702,4.076883 3.52479,1.239522 z M 83.694917,87.288441 c 0,-0.792541 -0.9,-1.440983 -2,-1.440983 -2.249789,0 -2.564807,1.035193 -0.839919,2.760081 1.378498,1.378498 2.839919,0.699691 2.839919,-1.319098 z M 116.05274,199.09746 c 5.98135,-21.2494 7.60093,-27.57713 8.12643,-31.75 0.34632,-2.75 0.87158,-5.82598 1.16724,-6.83551 0.51584,-1.76132 0.62468,-1.7568 2.69304,0.11193 3.14954,2.84557 34.92204,13.22358 40.48428,13.22358 0.79867,0 3.45319,0.99938 5.89892,2.22084 6.07664,3.03482 9.84702,9.79228 11.73338,21.02916 l 0.62952,3.75 h -35.6127 c -33.43785,0 -35.58262,-0.10687 -35.12011,-1.75 z"
     style="fill:#92614a" />
  <path
     inkscape:connector-curvature="0"
     id="path218"
     d="m 13.322929,197.59746 c 2.10035,-11.80968 5.270697,-18.15245 10.364137,-20.73507 1.929318,-0.97826 7.557851,-2.78424 12.507851,-4.01328 14.340194,-3.56057 32.806518,-9.94098 35.153915,-12.14625 2.053445,-1.92911 2.182107,-1.93828 2.679223,-0.19091 0.287206,1.00953 0.809656,4.31051 1.160998,7.33551 0.351343,3.025 1.934134,9.775 3.517315,15 1.58318,5.225 3.305434,11.4125 3.827232,13.75 l 0.948722,4.25 H 48.11362 12.744917 Z m 79.504553,-1.5 c 0.480894,-2.6125 1.293694,-5.97117 1.806222,-7.4637 0.804145,-2.34176 0.563813,-2.98369 -1.753459,-4.68351 l -2.685328,-1.9698 3.952948,-4.0665 c 2.174121,-2.23657 4.673346,-4.06649 5.553832,-4.06649 1.755303,0 7.993223,5.96431 7.993223,7.64262 0,0.57607 -0.9435,1.90126 -2.09667,2.94486 -1.80128,1.63014 -2.00472,2.60294 -1.44408,6.90499 0.35891,2.75414 0.9012,6.02003 1.20507,7.25753 0.53314,2.17119 0.30802,2.25 -6.42681,2.25 h -6.979302 z m 24.022368,0.5 c 0.51829,-2.3375 2.03549,-7.72919 3.37156,-11.98154 1.33608,-4.25235 2.89265,-10.77735 3.45904,-14.5 0.5664,-3.72265 1.27423,-7.83792 1.57296,-9.14503 l 0.54315,-2.37657 2.19918,2.05591 c 2.50482,2.34164 22.05538,9.13626 35.30144,12.26871 16.31219,3.85752 19.72446,7.55584 22.76973,24.67852 l 0.57801,3.25 h -35.3687 -35.36871 z M 92.194917,163.9731 c -8.352468,-2.20242 -13.14045,-6.53334 -14.059142,-12.71706 -0.571432,-3.84631 -1.696202,-5.98697 -5.197386,-9.89167 -6.134907,-6.84197 -10.232751,-12.97947 -12.297153,-18.41793 -0.957414,-2.52221 -2.349506,-4.63275 -3.093536,-4.6901 -0.744031,-0.0573 -1.883884,-0.17279 -2.533008,-0.25657 -1.29422,-0.16702 -6.60622,-10.72179 -11.317194,-22.486894 -2.324623,-5.805471 -2.798719,-8.071415 -2.082757,-9.954539 0.941851,-2.477255 3.868377,-4.299977 4.973304,-3.097513 0.33378,0.363244 0.01686,0.870506 -0.704259,1.127249 -1.058609,0.3769 -1.036481,0.783879 0.114891,2.113095 0.784312,0.90546 3.352011,5.33706 5.705996,9.848002 2.353986,4.51094 4.701803,8.11094 5.217371,8 0.515568,-0.11094 2.157885,3.84829 3.649592,8.79829 1.491708,4.95 3.736442,11.04136 4.988297,13.53636 3.310713,6.59838 13.245214,18.22707 19.798512,23.17485 5.673991,4.28391 5.690303,4.28879 14.336472,4.28879 8.647133,0 8.661853,-0.004 14.340543,-4.29186 6.95018,-5.24743 15.84318,-15.77934 19.68258,-23.30991 1.57081,-3.08097 4.03898,-9.83097 5.48483,-15 3.40096,-12.158659 3.60835,-12.710245 4.19181,-11.148232 0.87729,2.348682 2.0537,1.250602 4.28531,-4 1.22724,-2.8875 3.33056,-6.7125 4.67403,-8.5 1.9862,-2.642649 2.14183,-3.25 0.83277,-3.25 -0.88545,0 -1.33179,-0.45 -0.99187,-1 1.60385,-2.595078 5.5,0.875346 5.5,4.89902 0,3.13121 -3.36487,11.827373 -7.91385,20.452532 -1.69738,3.21835 -3.08615,6.46501 -3.08615,7.21481 0,1.51106 -3.29669,3.60906 -5.02382,3.19714 -0.60766,-0.14492 -1.90548,1.80309 -2.88404,4.32891 -2.15672,5.56682 -7.04485,12.83673 -12.73715,18.94343 -3.68408,3.95229 -4.26836,5.20664 -4.54151,9.74981 -0.18139,3.01703 -0.78858,5.21404 -1.44104,5.21416 -0.62015,1e-4 -1.71505,0.70808 -2.4331,1.57328 -3.73077,4.4953 -17.801633,7.56649 -25.439343,5.55255 z M 56.734893,113.98685 c -1.098637,-3.83072 -2.851258,-7.05533 -5.688387,-10.46593 -1.684475,-2.02496 -2.174372,-3.531369 -1.727481,-5.311925 0.668011,-2.661567 -2.222413,-10.361537 -3.889526,-10.361537 -0.576683,0 -0.687573,1.901575 -0.276995,4.75 0.79037,5.483271 9.46696,24.223582 11.222607,24.239382 0.823619,0.007 0.93232,-0.85367 0.359782,-2.84999 z m 91.861587,-6.39309 c 3.01124,-6.32566 4.54133,-10.983593 4.84405,-14.746302 0.43844,-5.449775 0.42645,-5.478092 -1.31268,-3.100931 -0.96534,1.319489 -1.96039,4.694489 -2.21122,7.5 -0.30496,3.410833 -1.20165,5.929263 -2.70633,7.600933 -2.8296,3.14362 -5.93433,12.00168 -4.20468,11.9963 0.65411,-0.002 3.17,-4.16453 5.59086,-9.25 z m -51.460433,31.7855 c -1.799394,-1.36099 -1.612552,-1.46819 2.55887,-1.46819 4.171423,0 4.358263,0.1072 2.558873,1.46819 -1.06762,0.80751 -2.21911,1.4682 -2.558873,1.4682 -0.339757,0 -1.491249,-0.66069 -2.55887,-1.4682 z m -0.17738,-3.24938 c 1.520062,-0.22986 3.770063,-0.22371 5.000003,0.0136 1.22994,0.23736 -0.0138,0.42542 -2.763753,0.41792 -2.75,-0.008 -3.756313,-0.20172 -2.23625,-0.43157 z m -10.804869,-4.34895 c -0.362533,-0.58659 -0.444683,-1.281 -0.182555,-1.54313 0.262128,-0.26213 0.743066,0.21781 1.068751,1.06653 0.676184,1.76211 0.09985,2.07206 -0.886196,0.4766 z m 10.291119,-15.04856 c -3.328507,-2.48334 -3.361387,-2.96909 -0.5,-7.38656 2.931032,-4.52498 3.680703,-4.40059 3.023174,0.50165 -0.52776,3.93475 -0.485051,4 2.618209,4 3.13519,0 3.14458,0.0155 1.51666,2.5 -1.97119,3.00842 -3.05749,3.07122 -6.658043,0.38491 z m -21.75,-17.65102 c -0.825,-0.289937 -1.849401,-1.117484 -2.276447,-1.838992 -0.427046,-0.721508 -1.327046,-1.10781 -2,-0.858448 -0.672954,0.249362 -2.972967,-2.069303 -5.111139,-5.152589 -3.107418,-4.480957 -3.492282,-5.48051 -1.917781,-4.980783 1.294052,0.410716 2.595117,-0.06577 3.792574,-1.388944 1.002522,-1.107775 3.076466,-2.014136 4.608764,-2.014136 1.532297,0 3.031271,-0.396866 3.331054,-0.881923 1.572651,-2.544604 12.536225,-0.297684 16.142147,3.308237 3.403594,3.403595 2.350676,9.269647 -2.198911,12.250651 -2.646578,1.734105 -11.222331,2.663237 -14.370261,1.556927 z m -2.843488,-9.733892 c 0.196845,-2.475 0.0956,-4.5 -0.224992,-4.5 -0.320591,0 -1.635345,1.120285 -2.921676,2.489522 -2.270635,2.41698 -2.285768,2.548104 -0.519327,4.5 2.657723,2.93675 3.267352,2.52276 3.665995,-2.489522 z m 16.843488,3.407729 c 0,-0.600749 -0.850961,-2.174092 -1.891024,-3.496318 l -1.891024,-2.404047 -0.408175,3.496318 c -0.361869,3.099665 -0.147334,3.496318 1.891024,3.496318 1.264559,0 2.299199,-0.491522 2.299199,-1.092271 z m -5,-5.466746 c 0,-0.792541 -0.9,-1.440983 -2,-1.440983 -2.249789,0 -2.564807,1.035193 -0.839919,2.760081 1.378498,1.378498 2.839919,0.699691 2.839919,-1.319098 z M 112.0204,98.417844 c -8.84025,-3.927515 -7.7235,-14.039761 1.83471,-16.613521 4.78354,-1.288073 15.38066,0.566579 18.39681,3.21971 1.5769,1.387106 2.33156,1.534869 3.23333,0.633092 0.64699,-0.646984 1.40807,-0.944598 1.69131,-0.661365 0.69362,0.693628 -6.79962,11.340542 -8.01877,11.393614 -0.52958,0.02305 -2.31287,0.728115 -3.96287,1.566804 -3.96713,2.016477 -9.25759,2.201862 -13.17452,0.461666 z m 2.84605,-8.226856 -0.42688,-3.65647 -1.85009,2.40647 c -2.49775,3.248899 -2.36105,4.90647 0.40464,4.90647 2.05756,0 2.25434,-0.384285 1.87233,-3.65647 z m 3.82847,3.215487 c 0,-0.242541 -0.45,-0.719098 -1,-1.059017 -0.55,-0.339919 -1,-0.141476 -1,0.440983 0,0.582459 0.45,1.059017 1,1.059017 0.55,0 1,-0.198442 1,-0.440983 z M 131.2044,91.83698 c 1.76644,-1.951896 1.75131,-2.08302 -0.51932,-4.5 -1.42191,-1.513549 -3.44655,-2.489522 -5.16447,-2.489522 -3.15866,0 -3.76592,1.974787 -1.24947,4.063253 1.30629,1.084129 1.73178,1.062285 2.48468,-0.127555 0.65379,-1.03321 0.91277,-0.524583 0.92379,1.814302 0.0177,3.746548 0.95702,4.076883 3.52479,1.239522 z"
     style="fill:#8e5b44" />
  <path
     inkscape:connector-curvature="0"
     id="path216"
     d="m 13.322929,197.59746 c 3.045266,-17.12268 6.457533,-20.821 22.769724,-24.67852 13.152101,-3.11023 32.78981,-9.92073 35.257736,-12.22765 2.05427,-1.92025 2.179991,-1.92867 2.677666,-0.17934 0.287206,1.00953 0.809656,4.31051 1.160998,7.33551 0.351343,3.025 1.934134,9.775 3.517315,15 1.58318,5.225 3.305434,11.4125 3.827232,13.75 l 0.948722,4.25 H 48.11362 12.744917 Z m 79.504553,-1.5 c 0.480894,-2.6125 1.293694,-5.97117 1.806222,-7.4637 0.804145,-2.34176 0.563813,-2.98369 -1.753459,-4.68351 l -2.685328,-1.9698 3.952948,-4.0665 c 2.174121,-2.23657 4.673346,-4.06649 5.553832,-4.06649 1.755303,0 7.993223,5.96431 7.993223,7.64262 0,0.57607 -0.9435,1.90126 -2.09667,2.94486 -1.80128,1.63014 -2.00472,2.60294 -1.44408,6.90499 0.35891,2.75414 0.9012,6.02003 1.20507,7.25753 0.53314,2.17119 0.30802,2.25 -6.42681,2.25 h -6.979302 z m 24.022368,0.5 c 0.51829,-2.3375 2.03549,-7.72919 3.37156,-11.98154 1.33608,-4.25235 2.89265,-10.77735 3.45904,-14.5 0.5664,-3.72265 1.27423,-7.83792 1.57296,-9.14503 l 0.54315,-2.37657 2.19918,2.05591 c 2.50482,2.34164 22.05538,9.13626 35.30144,12.26871 4.89376,1.15728 10.54048,3.02233 12.54827,4.14456 4.41193,2.46601 8.3693,9.89888 9.66315,18.14967 l 0.88355,5.63429 H 151.14983 115.90751 Z M 90.146765,163.05327 c -1.126484,-0.38819 -4.135025,-2.03978 -6.685647,-3.67019 -4.247334,-2.71497 -4.695702,-3.3876 -5.329368,-7.9949 -0.557999,-4.05714 -1.567484,-5.999 -5.217072,-10.03562 -5.46414,-6.04362 -10.902422,-14.32793 -12.688462,-19.32876 -0.72215,-2.02199 -1.830346,-3.55776 -2.462659,-3.41284 -2.302523,0.52774 -4.936708,-1.8343 -6.140179,-5.50582 -0.677441,-2.06673 -1.813311,-4.65768 -2.524155,-5.75768 -2.620028,-4.05438 -7.546942,-16.811955 -7.630725,-19.758731 -0.0534,-1.877998 0.619543,-3.555562 1.761131,-4.390312 2.19074,-1.601908 3.465288,-1.730992 3.465288,-0.350959 0,0.55 -0.675,1 -1.5,1 -1.182119,0 -1.088865,0.411135 0.440044,1.940044 1.067024,1.067024 3.846969,5.769173 6.177655,10.44922 2.330687,4.680048 4.529945,8.328508 4.88724,8.107688 0.357295,-0.22082 1.674461,3.1452 2.927035,7.48004 4.206672,14.55825 10.018325,24.11253 20.782417,34.16604 7.388326,6.90058 10.532742,8.2524 19.293609,8.29454 9.157753,0.044 13.596673,-2.19427 22.160813,-11.17458 10.2714,-10.77052 16.85086,-23.76307 20.33011,-40.14613 0.48192,-2.26925 0.98142,-2.95769 1.5171,-2.09094 0.53659,0.86822 2.01386,-1.13879 4.50235,-6.116857 2.03705,-4.074986 4.3985,-8.196565 5.24767,-9.159065 1.3997,-1.586519 1.38382,-1.75 -0.17007,-1.75 -0.9427,0 -1.43589,-0.45 -1.09597,-1 1.60385,-2.595078 5.5,0.875346 5.5,4.89902 0,3.13121 -3.36487,11.827373 -7.91385,20.452532 -1.69738,3.21835 -3.08615,6.46501 -3.08615,7.21481 0,1.51388 -3.29651,3.60785 -5.03322,3.19714 -0.61283,-0.14492 -1.83333,1.5365 -2.71221,3.7365 -2.32026,5.80799 -7.70107,13.99395 -12.73849,19.37936 -3.85594,4.1223 -4.42721,5.32571 -4.7026,9.90629 -0.17242,2.86768 -0.6824,5.21405 -1.1333,5.21416 -0.45091,1e-4 -2.92219,1.44665 -5.49173,3.21454 -4.31127,2.96624 -5.36728,3.233 -13.68018,3.45582 -4.954551,0.1328 -9.929942,-0.0762 -11.056425,-0.46436 z M 57.694917,116.3677 c 0,-1.91867 -3.846559,-9.60427 -6.140788,-12.26958 -1.596549,-1.85478 -2.548561,-3.89663 -2.218202,-4.757531 0.905279,-2.359121 -0.482874,-7.74366 -2.705166,-10.493131 l -2.020655,-2.5 0.436635,5 c 0.489171,5.601598 1.174966,7.593333 6.241598,18.127302 1.959535,4.07404 4.186033,7.3727 4.976353,7.3727 0.786624,0 1.430225,-0.21589 1.430225,-0.47976 z m 91.301553,-9.60283 c 3.98267,-8.357677 4.75012,-10.872651 4.5,-14.746755 l -0.30155,-4.670657 -1.75,3.20034 c -0.9625,1.760187 -1.75,4.988161 -1.75,7.173275 0,2.783987 -0.75181,4.866407 -2.5122,6.958517 -1.38171,1.64207 -3.18171,4.88318 -4,7.20245 -1.79627,5.09116 -1.79028,4.96621 -0.2378,4.96217 0.6875,-0.002 3.4107,-4.53749 6.05155,-10.07934 z m -51.301553,32.69917 c 0,-0.21089 1.111382,-0.59588 2.469743,-0.85555 1.35835,-0.25966 2.2318,-0.0871 1.94098,0.38343 -0.51208,0.82856 -4.410723,1.24587 -4.410723,0.47212 z m -1.25,-22.94011 c -3.335832,-2.73126 -3.354743,-3.35095 -0.219004,-7.17647 l 2.45907,-3 0.005,3.75 c 0.0047,3.54472 0.178735,3.75 3.179277,3.75 h 3.17432 l -2.34866,2.5 c -2.823523,3.0055 -2.795723,3.00472 -6.250003,0.17647 z m -9.75,-19.676472 c 1.958372,-1.265597 3.282182,-1.265597 2.5,0 -0.339919,0.55 -1.378976,0.993109 -2.309017,0.984687 -1.457275,-0.0132 -1.48367,-0.149288 -0.190983,-0.984687 z m 23.500003,0 c -0.33992,-0.55 -0.16803,-1 0.38197,-1 0.55,0 1.27811,0.45 1.61803,1 0.33992,0.55 0.16803,1 -0.38197,1 -0.55,0 -1.27811,-0.45 -1.61803,-1 z m -42.408666,-2.5 c -4.041538,-4.543411 -6.556891,-9.523796 -4.017309,-7.954248 0.590715,0.365082 2.149821,-0.34687 3.464679,-1.582116 2.208925,-2.075176 2.975466,-2.192906 10.083957,-1.548751 9.130169,0.827354 12.895097,2.527587 13.828035,6.244709 1.116772,4.449572 -2.205588,6.149289 -12.75532,6.52561 -7.796191,0.278098 -9.032362,0.08164 -10.604042,-1.685204 z m 4.065175,-5 c 0.196845,-2.475 0.0956,-4.5 -0.224992,-4.5 -0.320591,0 -1.635345,1.120285 -2.921676,2.489522 -2.270635,2.41698 -2.285768,2.548104 -0.519327,4.5 2.657723,2.93675 3.267352,2.52276 3.665995,-2.489522 z m 16.843488,3.407729 c 0,-0.600749 -0.850961,-2.174092 -1.891024,-3.496318 l -1.891024,-2.404047 -0.408175,3.496318 c -0.361869,3.099665 -0.147334,3.496318 1.891024,3.496318 1.264559,0 2.299199,-0.491522 2.299199,-1.092271 z m -5,-5.466746 c 0,-0.792541 -0.9,-1.440983 -2,-1.440983 -2.249789,0 -2.564807,1.035193 -0.839919,2.760081 1.378498,1.378498 2.839919,0.699691 2.839919,-1.319098 z m 37.500003,8.789291 c -8.99883,-0.303402 -12.51009,-1.186325 -8.5,-2.137367 2.21081,-0.524322 2.44216,-0.997771 2,-4.092907 l -0.5,-3.5 -2.3768,3.8232 c -1.68549,2.711201 -2.68745,3.512551 -3.44485,2.755148 -1.65144,-1.651436 0.45334,-6.374873 3.489,-7.829824 1.44144,-0.690869 6.06602,-1.547352 10.27684,-1.903296 7.16578,-0.605731 7.75635,-0.503928 9.22289,1.589843 0.98915,1.412222 2.25145,2.057992 3.4236,1.751466 1.71483,-0.448437 1.74813,-0.283035 0.43569,2.163957 -0.78158,1.457228 -2.45725,3.774506 -3.72371,5.149506 -2.13722,2.320379 -2.87745,2.480621 -10.30266,2.230274 z m -2.5,-2.671257 c 0,-0.242541 -0.45,-0.719098 -1,-1.059017 -0.55,-0.339919 -1,-0.141476 -1,0.440983 0,0.582459 0.45,1.059017 1,1.059017 0.55,0 1,-0.198442 1,-0.440983 z M 131.2044,91.83698 c 1.76644,-1.951896 1.75131,-2.08302 -0.51932,-4.5 -1.42191,-1.513549 -3.44655,-2.489522 -5.16447,-2.489522 -3.15866,0 -3.76592,1.974787 -1.24947,4.063253 1.30629,1.084129 1.73178,1.062285 2.48468,-0.127555 0.65379,-1.03321 0.91277,-0.524583 0.92379,1.814302 0.0177,3.746548 0.95702,4.076883 3.52479,1.239522 z"
     style="fill:#865139" />
  <path
     inkscape:connector-curvature="0"
     id="path214"
     d="m 13.881235,195.21317 c 1.296923,-8.27038 5.251575,-15.68868 9.663155,-18.12655 2.00779,-1.10952 8.503777,-3.22 14.435526,-4.68996 14.590857,-3.61579 32.62092,-10.03828 34.184758,-12.17695 1.202237,-1.64416 1.309178,-1.63302 1.831188,0.19081 0.304912,1.06532 0.841849,4.41194 1.193191,7.43694 0.351343,3.025 1.934134,9.775 3.517315,15 1.58318,5.225 3.305434,11.4125 3.827232,13.75 l 0.948722,4.25 H 48.240007 12.997692 Z m 78.946247,0.88429 c 0.480894,-2.6125 1.293694,-5.97117 1.806222,-7.4637 0.804145,-2.34176 0.563813,-2.98369 -1.753459,-4.68351 l -2.685328,-1.9698 3.952948,-4.0665 c 2.174121,-2.23657 4.673346,-4.06649 5.553832,-4.06649 1.755303,0 7.993223,5.96431 7.993223,7.64262 0,0.57607 -0.9435,1.90126 -2.09667,2.94486 -1.80128,1.63014 -2.00472,2.60294 -1.44408,6.90499 0.35891,2.75414 0.9012,6.02003 1.20507,7.25753 0.53314,2.17119 0.30802,2.25 -6.42681,2.25 h -6.979302 z m 24.022368,0.5 c 0.51829,-2.3375 2.03549,-7.72919 3.37156,-11.98154 1.33608,-4.25235 2.89265,-10.77735 3.45904,-14.5 0.5664,-3.72265 1.27423,-7.83792 1.57296,-9.14503 l 0.54315,-2.37657 2.19918,2.05591 c 2.50482,2.34164 22.05538,9.13626 35.30144,12.26871 12.38285,2.9283 15.55017,4.91368 18.80727,11.789 1.46941,3.10174 3.03618,8.00202 3.48172,10.88952 l 0.81006,5.25 H 151.15187 115.90751 Z M 80.483607,156.4837 c -0.941221,-0.71508 -2.027264,-3.27601 -2.413429,-5.69095 -0.524197,-3.27815 -2.050437,-5.9802 -6.022882,-10.66288 -6.180061,-7.285 -9.368627,-12.18773 -11.565073,-17.78241 -0.86371,-2.2 -2.18169,-4.06059 -2.928844,-4.13465 -0.747154,-0.0741 -1.943924,-0.18656 -2.659489,-0.25 -0.715564,-0.0634 -2.000169,-1.80285 -2.854676,-3.86535 -0.854508,-2.0625 -3.338938,-7.50355 -5.520956,-12.09123 -2.182018,-4.587673 -3.715067,-8.998545 -3.406777,-9.801936 0.313892,-0.817991 0.125562,-1.191888 -0.428018,-0.849757 -0.579217,0.357975 -0.988546,-0.833159 -0.988546,-2.876633 0,-3.476084 2.083245,-6.657785 4.321429,-6.600037 0.648214,0.01672 0.381606,0.494382 -0.592461,1.06146 -0.974068,0.567079 -1.455216,1.542054 -1.069217,2.166613 0.385998,0.624559 0.587436,3.290575 0.447639,5.924481 -0.203672,3.837375 0.529021,6.430964 3.687486,13.052979 2.167914,4.54523 4.215734,9.06177 4.550712,10.03674 0.650924,1.89456 3.346945,3.36812 4.341912,2.37315 0.330685,-0.33068 -0.138723,-2.53882 -1.043128,-4.90697 -0.904404,-2.36815 -1.644372,-5.15318 -1.644372,-6.18896 0,-1.03578 -0.300982,-1.58225 -0.668848,-1.21438 -1.561444,1.56144 -4.331016,-2.75391 -4.326029,-6.74051 l 0.0051,-4.095012 2.462027,4 c 1.354114,2.2 4.302979,9.479192 6.553033,16.175982 4.791858,14.26192 9.909314,22.26479 20.799552,32.52714 8.282318,7.80479 12.1151,9.24467 22.801238,8.56584 8.58163,-0.54515 11.50234,-2.15349 20.43369,-11.25221 9.4829,-9.66062 13.46252,-16.34346 17.71684,-29.75128 2.59185,-8.16843 4.11904,-11.59077 5.02532,-11.26146 0.71606,0.2602 1.0336,0.0389 0.70564,-0.49175 -0.32797,-0.53066 0.06,-2.213007 0.86205,-3.738549 l 1.45836,-2.773713 0.73744,2.921378 c 0.59983,2.376274 0.28934,3.310434 -1.66399,5.006454 -2.18168,1.89428 -5.91849,10.30303 -5.90637,13.29079 0.0124,3.04778 3.26632,-0.55553 6.3818,-7.06699 5.7271,-11.969838 6.74732,-14.985992 6.49187,-19.192396 -0.13496,-2.222421 0.0618,-4.537768 0.4372,-5.145216 0.37543,-0.607448 -0.0542,-1.387196 -0.95479,-1.732774 -0.90056,-0.345578 -1.35074,-0.914972 -1.00039,-1.26532 1.12141,-1.12141 4.64926,2.910108 4.64926,5.31303 0,2.572796 -4.50292,14.188236 -8.44747,21.790526 -1.40389,2.70571 -2.55253,5.50238 -2.55253,6.21481 0,1.53496 -3.65656,3.696 -4.92613,2.91136 -0.48664,-0.30076 -2.25783,2.38725 -3.93597,5.97335 -3.00704,6.4259 -9.87113,16.16467 -14.01606,19.88599 -1.45712,1.3082 -2.12184,3.09733 -2.12184,5.71104 0,2.62761 -0.67764,4.43737 -2.18856,5.84501 -2.03326,1.89427 -3.43477,2.0367 -19.750003,2.00716 -12.824704,-0.0232 -18.023021,-0.38249 -19.27275,-1.33196 z M 53.378031,101.65996 c -0.319226,-0.79773 -0.556183,-0.56078 -0.604167,0.60417 -0.04342,1.05416 0.192928,1.64479 0.52522,1.3125 0.332291,-0.3323 0.367818,-1.1948 0.07895,-1.91667 z m 42.99428,14.64141 -2.822606,-2.48288 2.154166,-3.48552 c 2.681807,-4.33925 3.356016,-4.39749 2.726363,-0.23551 -0.272507,1.80126 0.134111,4.47586 0.91218,6 1.731406,3.39161 0.731776,3.46024 -2.970103,0.20391 z M 65.742958,91.417283 c -3.261746,-4.740786 -3.89957,-6.521421 -1.674508,-4.674784 1.076516,0.89343 1.730229,0.595544 3.023053,-1.377555 1.288585,-1.966629 2.489859,-2.517486 5.489977,-2.517486 6.115963,0 14.444627,1.893348 16.095929,3.659073 1.033735,1.105366 1.084861,1.378434 0.160374,0.856564 -1.041777,-0.588078 -1.203772,-0.214164 -0.697144,1.609134 l 0.65999,2.375229 -1.945932,-2.228739 -1.945932,-2.228738 -0.406123,3.478738 c -0.330753,2.83314 -0.07222,3.478739 1.393076,3.478739 0.989559,0 1.799199,0.45 1.799199,1 0,0.596135 -3.81732,1 -9.451959,1 h -9.45196 z m 6.108471,-2.069825 c 0.196845,-2.475 0.0956,-4.5 -0.224992,-4.5 -0.320591,0 -1.635345,1.120285 -2.921676,2.489522 -2.270635,2.41698 -2.285768,2.548104 -0.519327,4.5 2.657723,2.93675 3.267352,2.52276 3.665995,-2.489522 z m 11.843488,-2.059017 c 0,-0.792541 -0.9,-1.440983 -2,-1.440983 -2.249789,0 -2.564807,1.035193 -0.839919,2.760081 1.378498,1.378498 2.839919,0.699691 2.839919,-1.319098 z m 28.000003,7.559017 c 0,-0.55 0.80964,-1 1.7992,-1 1.47808,0 1.72392,-0.644788 1.37744,-3.612709 l -0.42177,-3.61271 -2.34147,2.86271 c -2.44318,2.987058 -3.15796,2.622448 -1.37822,-0.703032 0.77188,-1.442265 0.70829,-1.955008 -0.25,-2.015833 -3.39476,-0.215474 5.96206,-2.972385 11.93356,-3.516125 6.39577,-0.582373 6.91841,-0.469953 9.19384,1.977625 2.00022,2.151534 2.68096,2.383579 3.98274,1.357587 1.16689,-0.919677 1.08264,-0.46701 -0.328,1.762487 -4.93647,7.801974 -4.23166,7.434311 -14.31732,7.468575 -5.52095,0.01876 -9.25,-0.371716 -9.25,-0.968575 z m 7,-1.440983 c 0,-0.242541 -0.45,-0.719098 -1,-1.059017 -0.55,-0.339919 -1,-0.141476 -1,0.440983 0,0.582459 0.45,1.059017 1,1.059017 0.55,0 1,-0.198442 1,-0.440983 z M 131.2044,91.83698 c 1.76644,-1.951896 1.75131,-2.08302 -0.51932,-4.5 -1.42191,-1.513549 -3.44655,-2.489522 -5.16447,-2.489522 -3.15866,0 -3.76592,1.974787 -1.24947,4.063253 1.30629,1.084129 1.73178,1.062285 2.48468,-0.127555 0.65379,-1.03321 0.91277,-0.524583 0.92379,1.814302 0.0177,3.746548 0.95702,4.076883 3.52479,1.239522 z"
     style="fill:#5f5955" />
  <path
     inkscape:connector-curvature="0"
     id="path212"
     d="m 13.881235,195.21317 c 1.29385,-8.25079 5.251227,-15.68366 9.663155,-18.14967 2.00779,-1.12223 7.621661,-2.97948 12.475269,-4.12723 13.598134,-3.21558 33.636057,-10.13036 35.663985,-12.30708 1.743649,-1.87159 1.843382,-1.87665 2.334456,-0.11842 0.282144,1.01018 0.819578,4.53669 1.194297,7.83669 0.37472,3.3 1.731696,9.375 3.015503,13.5 1.283806,4.125 2.996359,10.0875 3.805673,13.25 l 1.47148,5.75 H 48.251372 12.997692 Z m 78.813682,3.29322 c 0,-1.28759 0.675263,-4.55009 1.500585,-7.25 1.49171,-4.8799 1.485145,-4.9215 -1.110046,-7.03424 l -2.61063,-2.12531 3.726408,-4.12469 c 2.049524,-2.26858 4.333386,-4.12469 5.075249,-4.12469 1.705637,0 8.418437,5.83375 8.418437,7.31603 0,0.60986 -1.1162,2.02574 -2.48045,3.14641 -2.22486,1.8276 -2.39111,2.44974 -1.61338,6.03756 0.47689,2.2 1.13185,5.4625 1.45545,7.25 l 0.58838,3.25 h -6.475003 c -6.12278,0 -6.475,-0.12735 -6.475,-2.34107 z m 25.493613,-6.40893 c 1.29214,-4.8125 2.83547,-10.01886 3.42961,-11.56969 0.59415,-1.55082 1.54594,-6.05082 2.1151,-10 0.56916,-3.94917 1.26691,-8.25241 1.55055,-9.56274 0.51415,-2.37521 0.52137,-2.37636 2.37979,-0.38158 2.06379,2.21522 21.99422,9.11022 35.7066,12.35282 12.3074,2.91037 15.48104,4.90452 18.73427,11.77167 1.46941,3.10174 3.03618,8.00202 3.48172,10.88952 l 0.81006,5.25 H 151.1177 115.83918 Z M 80.483607,156.4837 c -0.941221,-0.71508 -2.027264,-3.27601 -2.413429,-5.69095 -0.524197,-3.27815 -2.050437,-5.9802 -6.022882,-10.66288 -6.180061,-7.285 -9.368627,-12.18773 -11.565073,-17.78241 -0.86371,-2.2 -2.18169,-4.06059 -2.928844,-4.13465 -0.747154,-0.0741 -1.943924,-0.18656 -2.659489,-0.25 -0.715564,-0.0634 -2.000169,-1.80285 -2.854676,-3.86535 -0.854508,-2.0625 -3.338938,-7.50355 -5.520956,-12.09123 -2.182018,-4.587673 -3.715067,-8.998545 -3.406777,-9.801936 0.313892,-0.817991 0.125562,-1.191888 -0.428018,-0.849757 -0.579217,0.357975 -0.988546,-0.833159 -0.988546,-2.876633 0,-3.476084 2.083245,-6.657785 4.321429,-6.600037 0.648214,0.01672 0.381606,0.494382 -0.592461,1.06146 -0.974068,0.567079 -1.455216,1.542054 -1.069217,2.166613 0.385998,0.624559 0.587436,3.290575 0.447639,5.924481 -0.203672,3.837375 0.529021,6.430964 3.687486,13.052979 2.167914,4.54523 4.215734,9.06177 4.550712,10.03674 0.650924,1.89456 3.346945,3.36812 4.341912,2.37315 0.330685,-0.33068 -0.138723,-2.53882 -1.043128,-4.90697 -0.904404,-2.36815 -1.644372,-5.15318 -1.644372,-6.18896 0,-1.03578 -0.300982,-1.58225 -0.668848,-1.21438 -1.561444,1.56144 -4.331016,-2.75391 -4.326029,-6.74051 l 0.0051,-4.095012 2.462027,4 c 1.354114,2.2 4.302979,9.479192 6.553033,16.175982 4.791858,14.26192 9.909314,22.26479 20.799552,32.52714 8.282318,7.80479 12.1151,9.24467 22.801238,8.56584 8.58163,-0.54515 11.50234,-2.15349 20.43369,-11.25221 9.4829,-9.66062 13.46252,-16.34346 17.71684,-29.75128 2.59185,-8.16843 4.11904,-11.59077 5.02532,-11.26146 0.71606,0.2602 1.0336,0.0389 0.70564,-0.49175 -0.32797,-0.53066 0.06,-2.213007 0.86205,-3.738549 l 1.45836,-2.773713 0.73744,2.921378 c 0.59983,2.376274 0.28934,3.310434 -1.66399,5.006454 -2.18168,1.89428 -5.91849,10.30303 -5.90637,13.29079 0.0124,3.04778 3.26632,-0.55553 6.3818,-7.06699 5.7271,-11.969838 6.74732,-14.985992 6.49187,-19.192396 -0.13496,-2.222421 0.0618,-4.537768 0.4372,-5.145216 0.37543,-0.607448 -0.0542,-1.387196 -0.95479,-1.732774 -0.90056,-0.345578 -1.35074,-0.914972 -1.00039,-1.26532 1.12141,-1.12141 4.64926,2.910108 4.64926,5.31303 0,2.572796 -4.50292,14.188236 -8.44747,21.790526 -1.40389,2.70571 -2.55253,5.50238 -2.55253,6.21481 0,1.53496 -3.65656,3.696 -4.92613,2.91136 -0.48664,-0.30076 -2.25783,2.38725 -3.93597,5.97335 -3.00704,6.4259 -9.87113,16.16467 -14.01606,19.88599 -1.45712,1.3082 -2.12184,3.09733 -2.12184,5.71104 0,2.62761 -0.67764,4.43737 -2.18856,5.84501 -2.03326,1.89427 -3.43477,2.0367 -19.750003,2.00716 -12.824704,-0.0232 -18.023021,-0.38249 -19.27275,-1.33196 z M 53.378031,101.65996 c -0.319226,-0.79773 -0.556183,-0.56078 -0.604167,0.60417 -0.04342,1.05416 0.192928,1.64479 0.52522,1.3125 0.332291,-0.3323 0.367818,-1.1948 0.07895,-1.91667 z m 42.99428,14.64141 -2.822606,-2.48288 2.154166,-3.48552 c 2.681807,-4.33925 3.356016,-4.39749 2.726363,-0.23551 -0.272507,1.80126 0.134111,4.47586 0.91218,6 1.731406,3.39161 0.731776,3.46024 -2.970103,0.20391 z M 65.742958,91.417283 c -3.261746,-4.740786 -3.89957,-6.521421 -1.674508,-4.674784 1.076516,0.89343 1.730229,0.595544 3.023053,-1.377555 1.288585,-1.966629 2.489859,-2.517486 5.489977,-2.517486 6.115963,0 14.444627,1.893348 16.095929,3.659073 1.033735,1.105366 1.084861,1.378434 0.160374,0.856564 -1.045253,-0.59004 -1.198662,-0.220248 -0.667554,1.609134 0.675114,2.3254 0.64065,2.318783 -1.642866,-0.315421 -1.282845,-1.479857 -3.457446,-2.829857 -4.832446,-3 -2.536048,-0.313811 -2.570882,-0.191186 -1.261462,4.44065 0.272098,0.9625 -0.0078,1.75 -0.621907,1.75 -0.614147,0 -1.116631,0.50246 -1.116631,1.116577 0,0.651791 1.040651,0.917644 2.5,0.638672 1.375,-0.262848 2.5,-0.121606 2.5,0.313872 0,0.435477 1.0125,0.986793 2.25,1.225146 1.2375,0.238353 -2.115882,0.494651 -7.451959,0.569551 l -9.70196,0.136182 z m 10.401959,2.44383 c 1.516667,-0.01062 1.683333,-0.280322 0.75,-1.213655 -0.66,-0.66 -1.2,-2.01 -1.2,-3 0,-2.030919 -2.628202,-2.472742 -3.271696,-0.55 -0.230089,0.6875 -0.22733,0.0125 0.0061,-1.5 0.494891,-3.206194 -0.368345,-3.405982 -3.484435,-0.806438 -2.680709,2.236335 -2.751229,2.895821 -0.633029,5.919975 1.14498,1.634687 2.239598,2.14147 3.75,1.736161 1.173197,-0.314814 3.01056,-0.578533 4.08306,-0.586043 z m 39.658323,0.617551 c 4.28219,-1.05115 4.53677,-1.29044 3.59719,-3.381206 -0.55613,-1.2375 -1.61737,-2.25 -2.35832,-2.25 -0.74096,0 -1.36548,-0.7875 -1.38783,-1.75 -0.0302,-1.29987 -0.80184,-0.859456 -3,1.712226 -2.99919,3.508822 -3.8107,3.497027 -1.92418,-0.02797 0.77188,-1.442265 0.70829,-1.955008 -0.25,-2.015833 -3.39476,-0.215474 5.96206,-2.972385 11.93356,-3.516125 6.39577,-0.582373 6.91841,-0.469953 9.19384,1.977625 2.00022,2.151534 2.68096,2.383579 3.98274,1.357587 1.16689,-0.919677 1.08264,-0.46701 -0.328,1.762487 -4.96253,7.84317 -4.17408,7.445365 -14.56732,7.349781 -9.19568,-0.08457 -9.35238,-0.123606 -4.89168,-1.218575 z m 14.89168,-2.131206 2.34863,-2.5 -2.34863,-2.5 c -3.948,-4.202449 -9.88172,-3.02084 -7.07721,1.409316 1.04921,1.65738 0.27079,4.328357 -1.02757,3.525923 -0.49237,-0.3043 -0.89522,-0.106605 -0.89522,0.439322 0,0.545927 1.2375,1.18006 2.75,1.409185 1.5125,0.229124 3.00906,0.484014 3.32569,0.566422 0.31662,0.08241 1.63256,-0.975168 2.92431,-2.350168 z"
     style="fill:#77452f" />
  <path
     inkscape:connector-curvature="0"
     id="path210"
     d="m 13.803671,195.59746 c 0.445535,-2.8875 1.998617,-7.75914 3.451293,-10.82586 3.168767,-6.68954 6.778861,-8.91109 19.439953,-11.96278 13.015405,-3.1371 33.035202,-9.99656 35.0469,-12.00826 1.542988,-1.54299 1.880472,-1.58475 2.375781,-0.29399 0.317526,0.82745 0.577319,2.97068 0.577319,4.76271 0,3.12602 1.075953,7.62341 6.418352,26.82818 l 2.434082,8.75 H 49.684843 15.822334 l 1.981346,-7.14993 c 1.089741,-3.93246 2.440256,-8.0074 3.001145,-9.05544 0.56089,-1.04803 0.819908,-2.44306 0.575596,-3.10007 -0.54101,-1.45489 -4.639786,7.63237 -5.324801,11.80544 -1.000941,6.09768 -1.417975,7.5 -2.23041,7.5 -0.457382,0 -0.467075,-2.3625 -0.02154,-5.25 z m 10.391246,-14.75 c -0.339919,-0.55 -0.478976,-1.00196 -0.309017,-1.00436 0.169959,-0.002 3.459017,-1.14832 7.309017,-2.54649 6.472853,-2.35069 6.66112,-2.49705 2.5,-1.94352 -2.475,0.32924 -6.186321,1.31798 -8.247381,2.19719 -2.962055,1.26356 -3.512702,1.88134 -2.627555,2.94787 1.301399,1.56809 2.282181,1.81726 1.374936,0.34931 z m 23.229167,-8.60417 c -0.332292,-0.33229 -1.194792,-0.36781 -1.916667,-0.0789 -0.797733,0.31922 -0.560776,0.55618 0.604167,0.60416 1.054166,0.0434 1.644791,-0.19293 1.3125,-0.52522 z m 15.270833,-5.39583 c 0.825,-0.53316 1.05,-0.96937 0.5,-0.96937 -0.55,0 -1.675,0.43621 -2.5,0.96937 -0.825,0.53316 -1.05,0.96937 -0.5,0.96937 0.55,0 1.675,-0.43621 2.5,-0.96937 z m 30,31.65893 c 0,-1.28759 0.675263,-4.55009 1.500585,-7.25 1.49171,-4.8799 1.485145,-4.9215 -1.110046,-7.03424 l -2.61063,-2.12531 3.726408,-4.12469 c 2.049524,-2.26858 4.333386,-4.12469 5.075249,-4.12469 1.705637,0 8.418437,5.83375 8.418437,7.31603 0,0.60986 -1.1162,2.02574 -2.48045,3.14641 -2.22486,1.8276 -2.39111,2.44974 -1.61338,6.03756 0.47689,2.2 1.13185,5.4625 1.45545,7.25 l 0.58838,3.25 h -6.475003 c -6.12278,0 -6.475,-0.12735 -6.475,-2.34107 z m 24.661343,-3.40893 c 0.80932,-3.1625 2.52187,-9.125 3.80568,-13.25 1.2838,-4.125 2.64078,-10.2 3.0155,-13.5 1.06023,-9.33703 1.25413,-9.76335 3.44441,-7.57307 2.03363,2.03363 21.98876,8.88072 35.07307,12.03443 12.66109,3.05169 16.27119,5.27324 19.43995,11.96278 2.70814,5.71712 4.91816,16.07586 3.42976,16.07586 -0.81244,0 -1.22947,-1.40232 -2.23041,-7.5 -0.68502,-4.17307 -4.78379,-13.26033 -5.3248,-11.80544 -0.24432,0.65701 0.0147,2.05204 0.57559,3.10007 0.56089,1.04804 1.91141,5.12298 3.00115,9.05544 l 1.98134,7.14993 h -33.84136 -33.84136 z m 57.0072,-17.36984 c -1.7427,-0.89092 -5.41854,-1.91134 -8.16854,-2.26761 l -5,-0.64777 6,2.09741 c 7.40634,2.58902 7.98332,3.12843 6.50381,6.08045 -0.92006,1.83578 -0.6267,1.69359 1.32591,-0.64264 l 2.50737,-3 z m -19.93937,-5.48433 c -0.3323,-0.33229 -1.1948,-0.36781 -1.91667,-0.0789 -0.79773,0.31922 -0.56078,0.55618 0.60417,0.60416 1.05416,0.0434 1.64479,-0.19293 1.3125,-0.52522 z m -15.72917,-5.39583 c -0.825,-0.53316 -1.95,-0.96937 -2.5,-0.96937 -0.55,0 -0.325,0.43621 0.5,0.96937 0.825,0.53316 1.95,0.96937 2.5,0.96937 0.55,0 0.325,-0.43621 -0.5,-0.96937 z M 92.927908,155.92221 c -2.346854,-0.39255 -6.34821,-2.18069 -8.891902,-3.97365 -3.602335,-2.53916 -4.811232,-2.966 -5.467678,-1.93051 -0.601774,0.94924 -0.847164,0.68364 -0.858098,-0.92876 -0.0086,-1.26869 -2.534831,-5.2733 -5.765313,-9.13924 -5.326552,-6.37433 -9.921464,-13.10259 -8.948116,-13.10259 0.228226,0 2.122829,2.5875 4.210229,5.75 4.770069,7.22686 15.863448,18.25127 20.65196,20.52357 4.970686,2.35874 18.66399,2.37639 23.60775,0.0304 1.96575,-0.93281 6.53375,-4.40189 10.15113,-7.70908 3.61738,-3.30718 5.11455,-4.43505 3.32705,-2.50638 -2.44608,2.63927 -3.27927,4.48435 -3.36831,7.45908 -0.10606,3.54269 -0.1838,3.65746 -0.75,1.10719 l -0.63169,-2.84519 -2.69155,2.1218 c -5.71504,4.50527 -15.78737,6.61329 -24.575462,5.14334 z m 37.204272,-20.4036 c 1.54006,-2.01913 3.00235,-3.67115 3.24952,-3.67115 0.69466,0 -3.63455,5.84969 -4.91477,6.64091 -0.62418,0.38576 0.12518,-0.95063 1.66525,-2.96976 z m 4.56274,-6.67115 c 0.5887,-1.1 1.29537,-2 1.57037,-2 0.275,0 0.0183,0.9 -0.57037,2 -0.5887,1.1 -1.29537,2 -1.57037,2 -0.275,0 -0.0183,-0.9 0.57037,-2 z m -75.182716,-8.52868 c -0.865373,-1.90923 -1.2223,-3.47132 -0.793172,-3.47132 0.793506,0 3.241169,6.06805 2.67574,6.63348 -0.170039,0.17004 -1.017195,-1.25293 -1.882568,-3.16216 z m 78.213346,3.02868 c 0,-0.55 0.43621,-1.675 0.96937,-2.5 0.53316,-0.825 0.96937,-1.05 0.96937,-0.5 0,0.55 -0.43621,1.675 -0.96937,2.5 -0.53316,0.825 -0.96937,1.05 -0.96937,0.5 z m -84.030633,-6.5 c -1.1,-1.1 -1.986316,-2.5625 -1.969591,-3.25 0.01672,-0.6875 0.546558,-0.35 1.177408,0.75 0.630849,1.1 1.854665,2.54819 2.719591,3.2182 0.864926,0.67 1.235092,1.2325 0.822592,1.25 -0.4125,0.0175 -1.65,-0.8682 -2.75,-1.9682 z m 86.000003,1 c 0,-0.55 0.47656,-1 1.05902,-1 0.58246,0 0.7809,0.45 0.44098,1 -0.33992,0.55 -0.81648,1 -1.05902,1 -0.24254,0 -0.44098,-0.45 -0.44098,-1 z m -43.731135,-2.25 -2.07976,-2.25 2.467539,-3.5 2.46754,-3.5 -0.653631,3.6447 c -0.376904,2.10166 -0.176613,4.53602 0.473091,5.75 1.484456,2.77372 -0.05411,2.69049 -2.674779,-0.1447 z m 47.731135,1.87244 c 0,-0.20765 0.6853,-0.9463 1.52289,-1.64144 1.27335,-1.05678 1.41968,-0.99492 0.89301,0.37756 -0.53789,1.40173 -2.4159,2.38422 -2.4159,1.26388 z m -87.842108,-8.78033 c -1.186541,-3.9468 -1.983563,-7.34978 -1.771159,-7.56218 0.212403,-0.2124 1.364687,2.83531 2.560632,6.7727 1.195945,3.93739 1.992967,7.34037 1.77116,7.56218 -0.221808,0.2218 -1.374093,-2.82591 -2.560633,-6.7727 z m 85.957328,3.15789 c 0.0553,-2.24509 2.72056,-8.75935 2.8087,-6.86481 0.0418,0.89935 -0.58131,3.14935 -1.38478,5 -0.80347,1.85065 -1.44424,2.68981 -1.42392,1.86481 z m 5.88478,-1.6422 c 0,-0.53655 0.69982,-1.84905 1.55517,-2.91667 1.46637,-1.83031 1.48719,-1.7984 0.36454,0.55887 -1.45781,3.06103 -1.91971,3.62834 -1.91971,2.3578 z m -100.000003,-5.3578 c -0.588702,-1.1 -0.845368,-2 -0.570368,-2 0.275,0 0.981666,0.9 1.570368,2 0.588702,1.1 0.845368,2 0.570368,2 -0.275,0 -0.981666,-0.9 -1.570368,-2 z m 103.564293,-1.29313 c 0.37553,-0.98622 0.93469,-1.54122 1.24258,-1.23333 0.30789,0.30789 6.4e-4,1.11479 -0.68278,1.79313 -0.98762,0.98026 -1.10248,0.8654 -0.5598,-0.5598 z M 50.944917,102.69832 c -1.378273,-1.37922 -1.676651,-4.47453 -0.5,-5.186885 1.382244,-0.836822 2.853866,1.811277 2.298981,4.136885 -0.439312,1.84122 -0.798691,2.05098 -1.798981,1.05 z m 95.797123,-1.35086 c -0.009,-1.650002 0.41972,-3.675002 0.95288,-4.500002 0.55616,-0.860594 0.9759,-1.002025 0.98469,-0.331787 0.008,0.642516 0.25024,1.780429 0.53738,2.528693 0.28713,0.748265 -0.14856,2.247576 -0.9682,3.331786 -1.42765,1.88849 -1.49096,1.84527 -1.50675,-1.02869 z m -80.268042,-9.070354 -2.59728,-3.650374 3.420696,-3.003412 c 3.218752,-2.826101 3.75947,-2.963856 9.1591,-2.333406 9.173716,1.071106 11.738403,2.164738 11.738403,5.005478 v 2.457845 l -2,-2.393539 c -1.1,-1.316447 -3.125,-2.532747 -4.5,-2.70289 -2.536048,-0.313811 -2.570882,-0.191186 -1.261462,4.44065 0.272098,0.9625 -0.0078,1.75 -0.621907,1.75 -0.614147,0 -1.116631,0.50246 -1.116631,1.116577 0,0.656437 1.04658,0.916511 2.539635,0.631095 1.603245,-0.306479 2.40335,-0.07293 2.170009,0.633423 -0.212658,0.643743 -3.33458,1.242063 -7.351455,1.408916 l -6.981829,0.290012 z m 9.670919,1.584007 c 1.516667,-0.01062 1.683333,-0.280322 0.75,-1.213655 -0.66,-0.66 -1.2,-2.01 -1.2,-3 0,-2.030919 -2.628202,-2.472742 -3.271696,-0.55 -0.230089,0.6875 -0.22733,0.0125 0.0061,-1.5 0.494891,-3.206194 -0.368345,-3.405982 -3.484435,-0.806438 -2.680709,2.236335 -2.751229,2.895821 -0.633029,5.919975 1.14498,1.634687 2.239598,2.14147 3.75,1.736161 1.173197,-0.314814 3.01056,-0.578533 4.08306,-0.586043 z m 39.550003,0.986345 c 0,-0.55 1.11535,-1 2.47856,-1 2.28089,0 2.38772,-0.199385 1.33949,-2.5 -0.6265,-1.375 -1.74185,-2.5 -2.47857,-2.5 -0.73671,0 -1.3537,-0.7875 -1.37108,-1.75 -0.0254,-1.40628 -0.50246,-1.215147 -2.42892,0.973122 l -2.39731,2.723123 0.28571,-2.679736 c 0.32501,-3.048452 2.01187,-3.727782 11.86508,-4.778294 5.78695,-0.616982 6.36916,-0.488783 8.6024,1.894187 1.31745,1.405776 2.82484,2.290522 3.34977,1.966101 1.41239,-0.872904 -1.17496,3.800056 -3.54441,6.401497 -1.74278,1.913415 -3.07043,2.25 -8.87503,2.25 -3.88379,0 -6.82569,-0.431004 -6.82569,-1 z m 15,-2.5 2.34863,-2.5 -2.34863,-2.5 c -3.948,-4.202449 -9.88172,-3.02084 -7.07721,1.409316 1.04921,1.65738 0.27079,4.328357 -1.02757,3.525923 -0.49237,-0.3043 -0.89522,-0.106605 -0.89522,0.439322 0,0.545927 1.2375,1.18006 2.75,1.409185 1.5125,0.229124 3.00906,0.484014 3.32569,0.566422 0.31662,0.08241 1.63256,-0.975168 2.92431,-2.350168 z m 24.43553,-1.25 c -0.33142,-1.5125 -0.77034,-3.298089 -0.97538,-3.967975 -0.20504,-0.669886 0.0649,-1.48848 0.59984,-1.819098 0.53495,-0.330618 0.65391,-1.132529 0.26436,-1.782025 -0.40349,-0.672738 0.0198,-0.590314 0.98369,0.191543 0.93058,0.754844 1.66033,2.104844 1.62167,3 -0.0549,1.272423 -0.27586,1.191156 -1.01244,-0.372445 -0.69498,-1.475287 -0.83995,-0.753806 -0.55256,2.75 0.43271,5.275342 -0.005,6.217553 -0.92918,2 z m -112.123,-2.583333 c -0.810639,-2.641305 -0.741668,-3.333334 0.332219,-3.333334 0.869281,0 1.355248,1.195272 1.355248,3.333334 0,1.833333 -0.149498,3.333333 -0.332219,3.333333 -0.18272,0 -0.792582,-1.5 -1.355248,-3.333333 z m 0.687467,-5.666667 c 0.825,-0.533156 1.95,-0.969374 2.5,-0.969374 0.55,0 0.325,0.436218 -0.5,0.969374 -0.825,0.533156 -1.95,0.969374 -2.5,0.969374 -0.55,0 -0.325,-0.436218 0.5,-0.969374 z"
     style="fill:#622f1d" />
  <path
     inkscape:connector-curvature="0"
     id="path208"
     d="m 14.153906,196.15942 c 0.513337,-6.16336 3.868834,-14.44581 6.883481,-16.99066 2.131763,-1.79955 2.137086,-1.79698 0.445668,0.2153 -2.454886,2.92057 -4.925516,9.04031 -6.444662,15.9634 l -1.316591,6 z m 44.075373,3.58117 c -2.437473,-6.623 -4.469118,-13.29171 -4.147384,-13.61344 0.215687,-0.21569 1.639047,2.78595 3.163022,6.67031 1.523975,3.88436 2.484262,7.34907 2.133971,7.69936 -0.350292,0.35029 -0.867616,0.01 -1.149609,-0.75623 z m 23.207975,-0.39313 c -4.686518,-14.56868 -7.72467,-27.47096 -7.615532,-32.34129 l 0.126805,-5.65871 0.785954,6 c 0.432275,3.3 2.4153,11.60549 4.406722,18.45665 1.991421,6.85116 3.467463,13.15116 3.280093,14 -0.258801,1.17245 -0.495289,1.0627 -0.984042,-0.45665 z m 11.257663,-0.28207 c 0,-0.98014 0.656337,-4.24264 1.458527,-7.25 1.451821,-5.44279 1.44668,-5.47773 -1.118192,-7.59974 l -2.576719,-2.13181 4.118192,-4.11819 c 2.265005,-2.265 4.552534,-4.11819 5.083396,-4.11819 1.420769,0 8.034799,6.02236 8.034799,7.31603 0,0.60986 -1.16862,2.04067 -2.59693,3.17956 -2.39233,1.90758 -2.51863,2.38326 -1.60302,6.03757 0.54666,2.18176 1.25403,5.42934 1.57194,7.21684 l 0.57801,3.25 h -6.475003 c -5.544392,0 -6.475,-0.25613 -6.475,-1.78207 z m 24.000003,0.54002 c 0,-0.86645 1.61426,-7.12895 3.58724,-13.91666 1.97298,-6.78771 3.94092,-15.04129 4.3732,-18.34129 l 0.78595,-6 0.12681,5.63036 c 0.0876,3.88795 -1.1014,9.8871 -3.84196,19.38543 -3.86601,13.39894 -5.03124,16.4658 -5.03124,13.24216 z m 23,0.56778 c 0,-1.02888 1.51404,-5.54618 3.92627,-11.71442 2.1167,-5.41256 2.0673,-1.98108 -0.0643,4.46508 -2.03633,6.15813 -3.86197,9.58505 -3.86197,7.24934 z m 44.59488,-4.32203 c -0.72838,-5.49082 -3.79625,-13.38177 -6.41636,-16.5037 -1.65297,-1.96956 -1.64568,-1.97228 0.47901,-0.1787 2.86376,2.41748 6.05376,10.02161 6.90911,16.46951 0.38006,2.86505 0.46602,5.20919 0.19102,5.20919 -0.275,0 -0.79825,-2.24834 -1.16278,-4.9963 z M 61.001141,182.161 c 0.338383,-0.54752 -0.717088,-1.98052 -2.345491,-3.18445 -3.082226,-2.27879 -3.783811,-4.50237 -1.806225,-5.72458 0.743989,-0.45981 0.881805,-0.27228 0.387582,0.52739 -0.474123,0.76714 0.454541,2.50115 2.432398,4.54178 2.304223,2.37735 2.852004,3.51552 1.95791,4.0681 -0.729385,0.45078 -0.987654,0.35664 -0.626174,-0.22824 z m 76.288349,-0.16052 c -0.2879,-0.46583 0.82212,-2.13612 2.46672,-3.71174 1.6446,-1.57563 2.75875,-3.46786 2.4759,-4.20496 -0.28286,-0.73711 -0.0694,-1.06527 0.47426,-0.72924 1.82533,1.12811 1.0118,3.34017 -2.02321,5.50129 -1.65646,1.17951 -2.75491,2.56015 -2.44098,3.0681 0.31393,0.50794 0.34577,0.92353 0.0708,0.92353 -0.275,0 -0.73555,-0.38114 -1.02346,-0.84698 z M 26.194917,176.11952 c 1.08792,-1.11114 15.550839,-4.55455 16.239099,-3.86629 0.232087,0.23208 -3.101765,1.19418 -7.408561,2.13798 -4.306796,0.94381 -8.280538,1.94859 -8.830538,2.23284 -0.666667,0.34455 -0.666667,0.17637 0,-0.50453 z m 138.675213,-1.47059 c -4.57863,-1.09188 -8.13748,-2.17253 -7.90856,-2.40146 0.61917,-0.61917 15.0802,2.70971 16.18335,3.72535 0.5225,0.48105 0.7475,0.82665 0.5,0.76799 -0.2475,-0.0587 -4.19615,-1 -8.77479,-2.09188 z M 45.194917,170.84746 c 1.1,-0.47269 2.675,-0.85943 3.5,-0.85943 0.945479,0 0.760639,0.31771 -0.5,0.85943 -1.1,0.47269 -2.675,0.85943 -3.5,0.85943 -0.945479,0 -0.760639,-0.31771 0.5,-0.85943 z m 106.000003,0 c -1.26064,-0.54172 -1.44548,-0.85943 -0.5,-0.85943 0.825,0 2.4,0.38674 3.5,0.85943 1.26064,0.54172 1.44548,0.85943 0.5,0.85943 -0.825,0 -2.4,-0.38674 -3.5,-0.85943 z m -93.500003,-4 c 0.825,-0.53316 1.95,-0.96937 2.5,-0.96937 0.55,0 0.325,0.43621 -0.5,0.96937 -0.825,0.53316 -1.95,0.96937 -2.5,0.96937 -0.55,0 -0.325,-0.43621 0.5,-0.96937 z m 7,0.71703 c 0,-0.18857 1.35,-1.63623 3,-3.21703 1.65,-1.5808 3,-2.42462 3,-1.87515 0,0.54947 -1.35,1.99713 -3,3.21703 -1.65,1.2199 -3,2.06371 -3,1.87515 z M 131.234,165.35575 c -1.62851,-1.33088 -2.7207,-2.66 -2.4271,-2.95361 0.2936,-0.2936 1.82271,0.81149 3.39801,2.45575 3.44425,3.59502 3.05998,3.79206 -0.97091,0.49786 z m 8.46092,1.49171 c -0.825,-0.53316 -1.05,-0.96937 -0.5,-0.96937 0.55,0 1.675,0.43621 2.5,0.96937 0.825,0.53316 1.05,0.96937 0.5,0.96937 -0.55,0 -1.675,-0.43621 -2.5,-0.96937 z m -73.095424,-74.691887 -2.595421,-3.640662 3.233675,-2.839205 3.233675,-2.839204 7.856451,1.092732 c 7.078917,0.984586 13.105431,2.805408 9.558024,2.887815 -0.767432,0.01783 -1.006614,0.547577 -0.578106,1.280409 0.402001,0.6875 -0.163469,0.467844 -1.2566,-0.488123 -1.093131,-0.955968 -3.433309,-2.027283 -5.200396,-2.380701 l -3.212884,-0.642577 1.778502,3.254515 c 1.341688,2.455182 1.471492,3.367376 0.528501,3.714034 -0.6875,0.252735 -1.25,1.322019 -1.25,2.376185 0,1.623478 -0.726599,1.912749 -4.75,1.891055 -4.309125,-0.02323 -4.990896,-0.363522 -7.345421,-3.666273 z m 9.967866,1.774116 c 1.103823,-0.06614 1.129654,-0.374776 0.131975,-1.576905 -0.682257,-0.82207 -1.004486,-2.39707 -0.716064,-3.5 0.383249,-1.465546 0.03369,-2.005326 -1.298642,-2.005326 -1.002676,0 -1.998893,-0.527538 -2.213816,-1.172306 -0.25517,-0.76551 -1.483645,-0.364309 -3.540217,1.156181 l -3.149448,2.328487 2.041289,2.866726 c 1.58522,2.226237 2.636841,2.768269 4.706883,2.42605 1.466077,-0.242373 3.283195,-0.477681 4.03804,-0.522907 z m 43.406148,-1.155116 c -0.63794,-1.690086 -0.91149,-3.720189 -0.6079,-4.51134 0.39579,-1.03141 0.0675,-1.252525 -1.16027,-0.781398 -0.99814,0.38302 -2.09517,0.07495 -2.63035,-0.73866 -0.76285,-1.159735 -1.14848,-1.094865 -2.28081,0.383673 -1.16164,1.516824 -1.44778,1.557739 -1.93914,0.277275 -0.6548,-1.706382 3.22248,-2.96368 12.37338,-4.012352 5.03779,-0.577319 5.74508,-0.408908 7.89536,1.87996 1.29902,1.382748 2.81598,2.233427 3.37101,1.890398 1.24893,-0.771885 0.24184,1.053781 -2.99829,5.435329 -2.05258,2.775645 -3.02074,3.25 -6.63323,3.25 -3.80385,0 -4.3467,-0.309495 -5.38976,-3.072885 z m 10.72141,-0.427115 2.34863,-2.5 -2.34863,-2.5 c -1.435,-1.52749 -3.45243,-2.5 -5.18613,-2.5 -2.7678,0 -2.82119,0.102027 -2.17339,4.153141 0.48212,3.014989 0.34833,3.957977 -0.48818,3.440983 -0.63377,-0.391687 -1.1523,-0.26549 -1.1523,0.280437 0,0.545927 1.2375,1.18006 2.75,1.409185 1.5125,0.229124 3.00906,0.484014 3.32569,0.566422 0.31662,0.08241 1.63256,-0.975168 2.92431,-2.350168 z"
     style="fill:#21140d" />
</svg>
