<?xml version="1.0" encoding="UTF-8" standalone="no"?>
<!-- Created with Inkscape (http://www.inkscape.org/) -->

<svg
   xmlns:dc="http://purl.org/dc/elements/1.1/"
   xmlns:cc="http://creativecommons.org/ns#"
   xmlns:rdf="http://www.w3.org/1999/02/22-rdf-syntax-ns#"
   xmlns:svg="http://www.w3.org/2000/svg"
   xmlns="http://www.w3.org/2000/svg"
   xmlns:sodipodi="http://sodipodi.sourceforge.net/DTD/sodipodi-0.dtd"
   xmlns:inkscape="http://www.inkscape.org/namespaces/inkscape"
   version="1.1"
   id="svg332"
   width="266.66666"
   height="266.66666"
   viewBox="0 0 266.66666 266.66666"
   sodipodi:docname="Trustee3xeye.svg"
   inkscape:version="0.92.2 (5c3e80d, 2017-08-06)">
  <metadata
     id="metadata338">
    <rdf:RDF>
      <cc:Work
         rdf:about="">
        <dc:format>image/svg+xml</dc:format>
        <dc:type
           rdf:resource="http://purl.org/dc/dcmitype/StillImage" />
        <dc:title></dc:title>
      </cc:Work>
    </rdf:RDF>
  </metadata>
  <defs
     id="defs336" />
  <sodipodi:namedview
     pagecolor="#ffffff"
     bordercolor="#666666"
     borderopacity="1"
     objecttolerance="10"
     gridtolerance="10"
     guidetolerance="10"
     inkscape:pageopacity="0"
     inkscape:pageshadow="2"
     inkscape:window-width="640"
     inkscape:window-height="480"
     id="namedview334"
     showgrid="false"
     inkscape:zoom="0.88500003"
     inkscape:cx="133.33333"
     inkscape:cy="133.33333"
     inkscape:window-x="0"
     inkscape:window-y="0"
     inkscape:window-maximized="0"
     inkscape:current-layer="svg332" />
  <path
     inkscape:connector-curvature="0"
     id="path380"
     d="M 1.3898318,133.16384 V -0.169491 H 134.72316 268.05649 V 133.16384 266.49717 H 134.72316 1.3898318 Z"
     style="fill:#fdfdfd;stroke-width:1.33333325" />
  <path
     inkscape:connector-curvature="0"
     id="path378"
     d="m 19.300178,260.16384 c 0.483888,-3.48334 2.802013,-10.20318 5.151391,-14.93298 5.0013,-10.06869 9.950417,-13.2377 26.271595,-16.82216 14.84564,-3.2604 44.42032,-13.58457 46.338328,-16.17614 2.595475,-3.50698 4.121658,-0.73562 5.674268,10.30378 0.7705,5.47846 3.05592,15.24592 5.07871,21.70548 l 3.67779,11.74466 6.42327,-10.13975 c 3.5328,-5.57685 7.87025,-11.08783 9.63877,-12.2466 4.10923,-2.69248 3.11954,-3.88539 -8.5142,-10.26256 -5.00597,-2.74408 -9.84449,-6.17853 -10.75227,-7.63211 -0.90777,-1.45358 -2.16083,-6.70716 -2.78457,-11.67461 -1.07138,-8.5325 -1.65232,-9.67768 -10.510193,-20.71781 -5.156873,-6.42735 -10.696918,-14.94028 -12.311209,-18.91764 -2.375124,-5.85192 -3.529327,-7.23156 -6.049928,-7.23156 -2.583838,0 -4.01927,-1.87525 -8.420049,-11 -7.896332,-16.37256 -12.155384,-27.18701 -12.155384,-30.86458 0,-3.17814 2.480094,-6.7399 5.361963,-7.70052 0.903337,-0.30111 0.137562,-5.249 -2.132219,-13.776859 -4.506838,-16.932783 -3.914804,-25.252583 2.764628,-38.851033 9.017749,-18.358957 22.856237,-29.93827 44.672291,-37.379407 18.48563,-6.305176 33.56695,-7.9625941 48.5456,-5.335099 14.11632,2.476229 26.83803,8.334873 32.77049,15.091574 l 4.21091,4.795958 4.13709,-3.82335 4.1371,-3.823349 -2.90059,5.076213 c -3.7286,6.525259 -3.67653,6.726852 1.0994,4.25712 4.84576,-2.505842 5.19328,-0.919196 0.71925,3.283927 l -3.28073,3.082098 5.1038,3.697175 c 8.03573,5.821056 11.4739,14.262062 11.37916,27.936799 -0.0693,9.995595 -2.74875,23.581632 -6.63986,33.666663 -0.62468,1.61906 -0.25377,2.33334 1.21166,2.33334 1.16154,0 3.12214,1.5418 4.35686,3.42623 2.10715,3.21592 2.1032,3.8759 -0.0644,10.75226 -1.27012,4.02932 -4.31641,11.17667 -6.76952,15.88299 -2.4531,4.70633 -5.16541,10.69384 -6.02737,13.30557 -1.15092,3.48733 -2.50854,4.93984 -5.11136,5.46857 -2.80308,0.56942 -4.42626,2.57866 -7.76265,9.60883 -2.32016,4.88889 -7.96872,13.35136 -12.55235,18.80551 -7.91872,9.42261 -8.37573,10.3525 -9.17413,18.66666 -0.46213,4.81252 -1.54324,10.0226 -2.40245,11.57795 -0.85922,1.55536 -6.38255,5.33573 -12.27407,8.40084 -5.89152,3.0651 -10.71185,6.02484 -10.71185,6.5772 0,0.55234 2.1468,3.07197 4.77068,5.59916 2.62386,2.52718 6.9441,8.10152 9.60052,12.38741 l 4.82985,7.79252 3.69272,-11.79252 c 2.03099,-6.48589 4.32312,-16.27489 5.09363,-21.75335 1.55261,-11.0394 3.0788,-13.81076 5.67426,-10.30378 1.91802,2.59157 31.49269,12.91574 46.33833,16.17614 16.32118,3.58446 21.2703,6.75347 26.2716,16.82216 2.34938,4.7298 4.6675,11.44964 5.15139,14.93298 l 0.8798,6.33333 H 203.43526 155.8446 l 0.88404,-4.02504 c 0.70596,-3.21419 -0.13432,-5.76591 -4.17109,-12.66667 -2.78031,-4.75289 -5.42587,-8.64162 -5.879,-8.64162 -0.45314,0 -2.17108,1.43402 -3.81766,3.18672 -2.792,2.97194 -2.89752,3.70732 -1.56574,10.91154 2.17906,11.78763 2.56785,11.23507 -7.90532,11.23507 -5.13334,0 -9.32447,-0.45 -9.31363,-1 0.0108,-0.55 0.93041,-4.86376 2.0435,-9.58613 1.94793,-8.26431 1.9224,-8.68752 -0.68109,-11.291 -3.31006,-3.31007 -4.7003,-2.18672 -9.97841,8.06272 -2.47511,4.80636 -3.26781,7.89161 -2.65498,10.33333 l 0.8737,3.48108 H 66.049649 18.420381 Z"
     style="fill:#e3c8ad;stroke-width:1.33333325" />
  <path
     inkscape:connector-curvature="0"
     id="path376"
     d="m 18.723165,265.22946 c 0,-4.11201 3.445805,-16.28749 6.102677,-21.56332 3.849383,-7.64384 10.067653,-11.5325 22.563989,-14.11068 13.84777,-2.85698 47.742625,-14.65738 49.669259,-17.29221 2.561905,-3.50361 3.97788,-0.8726 5.50776,10.23392 0.7576,5.5 3.11529,15.7 5.23931,22.66667 2.12402,6.96666 4.23427,14.61666 4.68943,17 l 0.82757,4.33333 H 66.023164 c -29.011988,0 -47.299999,-0.49015 -47.299999,-1.26771 z m 106.287655,-3.73229 c 0.43267,-2.75 1.55355,-7.20812 2.49085,-9.90692 1.6075,-4.62852 1.52028,-5.02743 -1.53716,-7.03075 -1.78274,-1.16809 -3.24135,-2.57746 -3.24135,-3.13194 0,-0.55448 2.19478,-3.26778 4.87728,-6.02955 l 4.87728,-5.0214 -3.15264,-2.27305 c -1.73395,-1.25018 -6.43478,-4.07306 -10.44629,-6.27306 -9.44238,-5.17841 -12.10598,-8.9854 -13.11293,-18.74188 -0.74948,-7.26169 -1.53494,-8.80005 -9.472109,-18.55139 -4.760176,-5.84819 -10.384576,-14.32938 -12.498665,-18.84708 -3.133425,-6.69598 -4.553503,-8.35596 -7.683959,-8.98206 -2.465269,-0.49305 -4.167638,-1.86172 -4.754835,-3.8228 -0.503074,-1.68013 -3.521715,-8.45478 -6.708092,-15.05478 -3.186376,-6.6 -6.563547,-14.91011 -7.504821,-18.4669 -1.68023,-6.34909 -1.643707,-6.52514 2.004768,-9.66343 l 3.716175,-3.19652 -2.658029,-9.669908 C 55.988581,81.489711 55.568269,75.801063 57.961924,66.457717 60.82486,55.282581 66.887632,44.998495 75.955886,35.935135 95.654134,16.247515 133.80435,6.7867992 162.97879,14.354678 c 12.89962,3.346173 16.51677,5.228621 23.53772,12.24957 l 5.63456,5.634562 4.18664,-3.870818 4.18664,-3.870817 -2.95478,5.168043 c -3.38133,5.914109 -3.04994,7.062983 1.37272,4.759027 l 3.1142,-1.622317 -3.09698,3.370135 -3.097,3.370134 6.70118,6.268176 c 8.06701,7.545748 10.07052,12.809207 9.90444,26.020134 -0.1056,8.396364 -3.49431,25.916773 -6.55592,33.895193 -0.52632,1.37157 -0.072,2.10481 1.30423,2.10481 1.16154,0 3.09478,1.50005 4.29608,3.33346 2.02726,3.094 2.02094,3.8363 -0.088,10.33333 -1.24967,3.84993 -4.61871,11.82095 -7.48676,17.71339 -2.86804,5.89244 -5.21463,11.34944 -5.21463,12.12668 0,1.96611 -4.48081,5.82527 -6.77165,5.83219 -1.04225,0.003 -4.149,4.39655 -6.90387,9.76311 -2.75486,5.36656 -8.60486,14.02945 -13,19.25086 -7.43957,8.83823 -7.99114,9.95462 -7.99114,16.17416 0,11.41471 -2.99119,14.96055 -18.83662,22.32943 -3.39348,1.57812 -6.61236,3.58514 -7.15308,4.46004 -0.58765,0.95084 0.96483,3.5856 3.85939,6.54989 l 4.84251,4.95917 -3.47007,3.25382 c -3.63451,3.408 -3.65727,3.80064 -1.058,18.2538 l 0.77931,4.33333 h -9.3979 -9.39789 l 0.78667,-5 z M 63.064197,78.830507 C 62.50814,66.505942 62.6808,65.432879 66.387361,58.1774 c 2.150333,-4.20921 3.135589,-7.010656 2.18946,-6.225439 -3.602115,2.989489 -7.497322,13.426156 -7.571201,20.285974 -0.0705,6.546428 1.436381,19.592572 2.263024,19.592572 0.210146,0 0.118146,-5.85 -0.204447,-13 z M 204.55185,73.16384 c 0.0387,-9.024381 -0.57987,-12.750897 -3.03619,-18.291352 -1.69662,-3.826911 -3.88777,-7.624454 -4.86922,-8.438985 -0.98145,-0.814531 -0.16569,1.716577 1.8128,5.624686 3.29721,6.512987 3.59725,8.405996 3.59725,22.695893 0,10.694722 0.38416,14.672203 1.22339,12.666666 0.67285,-1.607966 1.24525,-8.023574 1.27197,-14.256908 z M 110.72316,23.371776 c 10.30285,-3.724095 12.78813,-4.094506 27.33333,-4.073823 13.05136,0.01856 17.47432,0.557387 24,2.92381 5.45618,1.978584 7.1581,2.257784 5.35231,0.878047 -4.81595,-3.679707 -19.2412,-7.269301 -29.21263,-7.269301 -11.90101,0 -22.70832,2.712746 -34.80634,8.736747 -10.093948,5.02611 -9.702296,4.962262 7.33333,-1.19548 z m 46.22757,238.792064 c 0.45516,-2.38334 2.5654,-10.03334 4.68943,-17 2.12401,-6.96667 4.48171,-17.16667 5.23931,-22.66667 1.52988,-11.10652 2.94586,-13.73753 5.50777,-10.23392 1.92663,2.63483 35.82148,14.43523 49.66925,17.29221 12.51163,2.58132 18.70803,6.46303 22.61055,14.16428 2.39741,4.73108 6.05612,18.23687 6.05612,22.35564 0,0.23199 -21.285,0.42179 -47.3,0.42179 h -47.3 z"
     style="fill:#dab997;stroke-width:1.33333325" />
  <path
     inkscape:connector-curvature="0"
     id="path374"
     d="m 18.723165,266.07538 c 0,-4.11877 3.658704,-17.62456 6.056124,-22.35564 3.891712,-7.67992 10.079003,-11.5706 22.540219,-14.17366 14.514928,-3.0321 46.137459,-13.78271 49.019906,-16.66516 1.433284,-1.43328 2.941832,-2.27011 3.352328,-1.85962 0.410498,0.4105 1.596858,5.7105 2.636348,11.77778 1.0395,6.06729 3.6015,16.73142 5.69332,23.69809 2.09182,6.96667 4.16689,14.31667 4.61127,16.33333 l 0.80795,3.66667 H 66.0819 c -26.047305,0 -47.358735,-0.1898 -47.358735,-0.42179 z m 106.925905,-6.33749 c 0.6757,-3.7176 1.72876,-8.0676 2.34015,-9.66667 0.87901,-2.29904 0.37463,-3.51442 -2.41056,-5.80858 l -3.52217,-2.9012 5.33334,-5.5211 c 5.21285,-5.39638 5.27309,-5.5667 2.66666,-7.53997 -1.46666,-1.11037 -5.96666,-3.70473 -10,-5.76524 -4.03333,-2.06051 -8.3237,-4.86199 -9.53414,-6.22551 -2.61293,-2.94334 -5.11469,-11.44449 -5.12509,-17.41538 -0.006,-3.33037 -1.78331,-6.26343 -8.080381,-13.33333 -4.440123,-4.98506 -10.231368,-13.41374 -12.869433,-18.7304 -3.128224,-6.30452 -5.581575,-9.66667 -7.053733,-9.66667 -2.774543,0 -6.0281,-3.5502 -7.331536,-8 -0.537021,-1.83333 -2.069501,-5.14188 -3.405511,-7.35232 -3.217889,-5.32404 -10.600169,-23.84704 -10.600169,-26.59707 0,-1.1945 1.50463,-3.67645 3.34362,-5.51544 l 3.34362,-3.34362 -2.860854,-10.92911 C 54.583315,75.18075 56.520193,62.960914 67.707798,46.058609 77.274861,31.60463 88.88333,23.602774 110.72316,16.407607 c 10.06618,-3.316317 13.34587,-3.743659 29.33333,-3.822108 20.63002,-0.101229 33.49726,2.906694 40.74002,9.523628 2.24033,2.04676 3.14033,3.041288 2,2.210064 C 158.69279,6.749318 102.82603,13.610455 78.828706,37.087739 71.265709,44.48684 63.44117,57.107692 61.18336,65.54939 c -2.196004,8.210616 -0.06796,23.005839 5.410197,37.61445 l 3.999949,10.66667 0.06483,-10.55556 c 0.03565,-5.805554 0.36578,-10.254602 0.733611,-9.886771 0.36783,0.36783 1.663104,6.01783 2.878386,12.555561 l 2.209602,11.88677 1.646916,-8.05084 c 0.905804,-4.42796 3.429243,-11.981675 5.607643,-16.786033 L 87.695222,84.258442 77.710545,81.3209 C 66.03272,77.885227 65.349992,76.137942 76.866753,79.16141 c 12.868873,3.378433 30.353257,4.698265 42.379967,3.199108 20.78173,-2.590492 43.56644,-8.393938 53.8662,-13.720152 3.04684,-1.575583 4.39173,-3.399404 5.03493,-6.827905 1.57911,-8.417405 2.58374,-5.954297 2.14978,5.270757 -0.39919,10.325657 -0.0957,11.782934 4.90214,23.543785 2.93022,6.89526 5.75339,14.866297 6.27371,17.713417 1.33628,7.31186 2.66217,4.03594 4.79344,-11.843247 l 1.78957,-13.333333 0.66667,12 0.66667,12 3.66666,-14.292745 c 5.64675,-22.011116 4.91528,-39.740403 -1.9633,-47.587424 -2.41002,-2.749307 -2.11984,-2.637846 1.42359,0.546837 2.44783,2.2 5.69951,6.4 7.22595,9.333333 4.62315,8.884209 3.16849,28.154435 -3.79953,50.333329 -0.48114,1.53142 -0.0253,2.33334 1.32604,2.33334 3.10114,0 6.50021,5.99511 5.44372,9.60138 -1.7636,6.01996 -7.36456,19.2265 -12.30316,29.00968 -3.43979,6.81411 -5.94307,10.17175 -7.95248,10.66667 -1.98507,0.48891 -4.4546,3.73773 -7.64361,10.0556 -2.59111,5.13333 -8.25796,13.48365 -12.59303,18.55628 -7.53201,8.81351 -7.90567,9.59588 -8.41684,17.62358 -0.65448,10.27855 -3.21392,13.46904 -15.98148,19.92187 -4.89543,2.4742 -9.31431,5.16764 -9.81973,5.98543 -0.50543,0.81778 1.26018,3.7185 3.92356,6.44605 l 4.8425,4.95917 -3.47006,3.25382 c -3.63451,3.408 -3.65727,3.80064 -1.058,18.2538 l 0.7793,4.33333 h -9.2997 -9.2997 z M 110.32544,100.49717 c 9.07076,0 13.15679,-0.44419 12.26507,-1.33333 -2.22634,-2.219901 -22.58991,-1.42734 -27.867347,1.08461 -2.566667,1.22168 -3.166667,1.77742 -1.333333,1.23498 1.833333,-0.54244 9.45435,-0.98626 16.93561,-0.98626 z m 64.39772,-0.34374 c -5.43169,-2.474778 -24.70289,-3.092699 -28.38081,-0.910019 -1.75875,1.043739 0.67989,1.269439 9.33333,0.863819 6.44279,-0.301998 13.81415,0.0581 16.38081,0.80018 6.85707,1.98257 7.97756,1.66576 2.66667,-0.75398 z M 156.85184,262.8305 c 0.46539,-2.01666 2.80265,-10.56666 5.19395,-19 2.39128,-8.43333 4.74702,-18.6385 5.23497,-22.67814 1.21127,-10.02776 2.38325,-11.71434 5.77988,-8.31771 2.91976,2.91976 34.44665,13.65748 49.06617,16.71143 12.46121,2.60306 18.64851,6.49374 22.54023,14.17366 2.39741,4.73108 6.05612,18.23687 6.05612,22.35564 0,0.23199 -21.31143,0.42179 -47.35874,0.42179 H 156.00569 Z M 188.16176,84.386063 c 0.064,-1.553257 0.37992,-1.8692 0.80555,-0.805556 0.38516,0.9625 0.3378,2.1125 -0.1052,2.555556 -0.44307,0.443054 -0.75819,-0.344445 -0.7003,-1.75 z m -73.4386,-8.567609 c 16.91249,-0.96595 26.81005,-2.669019 42,-7.22692 1.46667,-0.440088 0.67665,0.126693 -1.75557,1.259508 -9.95395,4.636076 -19.68508,6.276829 -39.57776,6.67316 l -20,0.398468 z m 71.00291,-4.654613 c 0.0148,-2.933334 0.28785,-3.976338 0.60677,-2.317788 0.31892,1.65855 0.30681,4.05855 -0.0269,5.333333 -0.3337,1.274784 -0.59464,-0.08221 -0.57984,-3.015545 z m 14.54094,-2 c 0,-1.833334 0.30264,-2.583334 0.67252,-1.666667 0.36988,0.916667 0.36988,2.416667 0,3.333333 -0.36988,0.916667 -0.67252,0.166667 -0.67252,-1.666666 z m -67.19497,-4.943015 c 1.65855,-0.318924 4.05855,-0.306816 5.33333,0.02691 1.27479,0.333722 -0.0823,0.594661 -3.01554,0.579862 -2.93334,-0.0148 -3.97634,-0.287846 -2.31779,-0.606769 z m 9.31779,-1.27336 c 0.91666,-0.369883 2.41666,-0.369883 3.33333,0 0.91667,0.369884 0.16667,0.672515 -1.66667,0.672515 -1.83333,0 -2.58333,-0.302631 -1.66666,-0.672515 z M 96.056496,59.163841 c 1.833334,-1.048028 4.233334,-1.903281 5.333334,-1.900564 1.1,0.0027 -0.0189,0.881457 -2.486414,1.952753 -5.677794,2.465059 -7.201521,2.437125 -2.84692,-0.05219 z m 10.157254,-3.309747 c 1.55315,-0.627393 5.75315,-1.47288 9.33333,-1.878858 6.3122,-0.715779 6.26704,-0.68042 -1.49059,1.167052 -8.97714,2.1379 -12.06747,2.418377 -7.84274,0.711806 z M 123.72316,52.2808 c 0.91667,-0.369883 2.41667,-0.369883 3.33333,0 0.91667,0.369884 0.16667,0.672514 -1.66666,0.672514 -1.83334,0 -2.58334,-0.30263 -1.66667,-0.672514 z M 73.38983,48.660434 c 0,-0.276874 1.05,-1.326874 2.333333,-2.333333 2.114742,-1.658494 2.161902,-1.611334 0.503407,0.503407 -1.741825,2.220997 -2.83674,2.927305 -2.83674,1.829926 z m 93.33333,-7.496593 c -1.20172,-0.776613 -1.36617,-1.300648 -0.41203,-1.312916 0.87339,-0.0112 1.9588,0.579583 2.41203,1.312916 1.02307,1.655367 0.56149,1.655367 -2,0 z m -9.58333,-3.577485 c 0.96249,-0.385161 2.11249,-0.337792 2.55556,0.105267 0.44305,0.443056 -0.34446,0.758188 -1.75,0.700293 -1.55327,-0.06397 -1.8692,-0.379921 -0.80556,-0.805556 z M 106.3676,34.331724 c 0.90445,-0.911224 1.98033,-1.320894 2.39084,-0.910379 0.41052,0.410516 -0.32948,1.156064 -1.64444,1.656772 -1.90027,0.72358 -2.05342,0.570428 -0.7464,-0.746393 z m 61.02223,-3.946554 c -3.66667,-2.104138 -6.19276,-3.839719 -5.61355,-3.85685 1.71819,-0.05081 11.36232,5.150346 12.26844,6.616468 1.05031,1.699431 1.28512,1.796803 -6.65489,-2.759618 z m 25.63041,3.259354 c -0.41315,-0.668472 0.701,-2.613068 2.47588,-4.321322 3.79111,-3.64882 4.23188,-2.209955 0.72151,2.355349 -1.34543,1.749757 -2.78426,2.634444 -3.19739,1.965973 z m -78.96375,-2.528836 c 2.2,-1.007362 5.2,-1.818494 6.66667,-1.802513 1.46667,0.01599 -0.0333,0.879809 -3.33333,1.91962 -7.40275,2.332561 -8.59197,2.290782 -3.33334,-0.117107 z m 67.16326,-1.618513 c -1.6585,-2.114741 -1.61134,-2.161901 0.50341,-0.503407 2.221,1.741826 2.92731,2.83674 1.82992,2.83674 -0.27687,0 -1.32687,-1.05 -2.33333,-2.333333 z m -55.47121,-1.257321 c 1.29729,-0.338058 3.09729,-0.315826 4,0.0494 0.90271,0.365236 -0.15871,0.641829 -2.35871,0.614656 -2.2,-0.02717 -2.93858,-0.325998 -1.64129,-0.664056 z m 22.05795,-5.320164 c 0.9625,-0.385162 2.1125,-0.337792 2.55556,0.105266 0.44306,0.443056 -0.34445,0.758188 -1.75,0.700294 -1.55326,-0.06397 -1.8692,-0.379922 -0.80556,-0.805556 z"
     style="fill:#caa178;stroke-width:1.33333325" />
  <path
     inkscape:connector-curvature="0"
     id="path372"
     d="m 19.441692,261.49717 c 3.629357,-21.61976 10.12657,-28.34333 31.948139,-33.06119 15.321038,-3.31242 42.171832,-12.48001 45.540628,-15.54881 2.753509,-2.50829 2.904005,-2.51545 3.590721,-0.17068 0.39421,1.34604 1.10584,5.44735 1.5814,9.11401 0.47556,3.66667 3.20974,14.97182 6.07595,25.12255 2.86621,10.15075 5.2113,18.70075 5.2113,19 0,0.29927 -21.327188,0.54412 -47.39375,0.54412 H 18.60233 Z m 106.207378,-1.75928 c 0.6757,-3.7176 1.72876,-8.0676 2.34015,-9.66667 0.87901,-2.29904 0.37463,-3.51442 -2.41056,-5.80858 l -3.52217,-2.9012 5.33334,-5.50314 5.33333,-5.50312 -3.33333,-2.55694 c -1.83334,-1.40631 -6.70396,-4.36724 -10.82361,-6.57984 -4.11964,-2.21259 -8.08304,-4.78003 -8.80756,-5.7054 -1.66888,-2.13158 -4.36883,-13.08494 -4.36883,-17.72384 0,-2.44795 -2.47071,-6.24492 -8.074979,-12.40957 -4.647828,-5.11258 -10.177962,-13.1695 -13.029982,-18.98354 -3.064571,-6.24733 -5.608866,-9.88316 -6.66884,-9.52984 -1.874232,0.62475 -6.892865,-3.32504 -6.892865,-5.42486 0,-0.72004 -2.343475,-6.17706 -5.207722,-12.12668 -2.864246,-5.94962 -6.27983,-13.89641 -7.590185,-17.65953 -2.255277,-6.47676 -2.260341,-7.02841 -0.09488,-10.33333 1.258179,-1.92022 3.115443,-3.4913 4.127259,-3.4913 1.466252,0 1.265372,-1.82681 -0.989659,-9.000003 C 58.935396,92.364917 58.127087,86.263558 58.097576,77.16384 58.060352,65.685903 58.446125,63.683833 62.208222,55.830508 67.936658,43.87248 75.147479,35.415085 85.575306,28.42383 107.21545,13.915358 137.74543,8.4666929 163.81516,14.460413 c 11.01763,2.533073 7.37164,2.897098 -5.17668,0.516854 -19.27329,-3.655876 -41.95254,-0.12452 -62.419524,9.719283 -18.887457,9.084106 -34.58391,29.368791 -36.867233,47.643897 -0.914798,7.321789 2.00659,22.464752 7.616407,39.479513 3.298056,10.00312 8.984285,23.24005 9.669519,22.50961 0.2575,-0.27448 1.511573,-7.99906 2.786829,-17.16573 1.275256,-9.16667 3.711625,-20.41496 5.414153,-24.996208 l 3.095507,-8.32954 -5.989895,-1.508273 c -9.559165,-2.407025 -6.155306,-2.547303 6.824516,-0.281247 7.876488,1.3751 16.047871,1.848614 23.954401,1.3881 15.27949,-0.889946 40.82617,-6.550796 55,-12.187365 l 11,-4.374418 v 3.042313 c 0,7.811405 14.43045,61.424618 16.04896,59.626458 1.08347,-1.20372 9.41649,-27.75808 12.52278,-39.905613 2.7268,-10.663507 2.73908,-28.35112 0.0241,-34.850365 -1.13884,-2.726445 -3.68884,-6.757174 -5.66662,-8.957174 l -3.59593,-4 4.50147,4 c 10.23248,9.092585 12.19572,24.358771 6.18149,48.067549 -1.82437,7.191883 -3.17437,13.187543 -3,13.323693 0.17437,0.13615 1.66704,0.94993 3.31704,1.8084 2.23088,1.16069 3,2.74163 3,6.16657 0,4.89778 -5.59603,20.41019 -9.36752,25.96712 -1.24428,1.83333 -2.9763,5.53533 -3.84894,8.22668 -1.7608,5.43057 -4.48423,8.31753 -7.04206,7.46492 -1.01797,-0.33932 -3.64194,3.42549 -6.64956,9.54061 -2.73242,5.55562 -8.52565,14.17667 -12.87384,19.15788 -7.43669,8.51938 -7.93994,9.52912 -8.48164,17.01791 -0.73581,10.1725 -3.46138,13.82908 -14.93841,20.04105 -12.62123,6.83127 -12.77368,7.07347 -7.72876,12.27849 5.02009,5.17943 5.19581,6.34927 1.46136,9.7289 -2.87644,2.60316 -2.93824,5.20669 -0.41641,17.54356 l 0.88578,4.33333 h -9.31798 -9.31798 z M 111.01481,100.52215 c 16.03318,0.028 17.86951,-2.256337 2.51141,-3.124147 -9.72589,-0.549562 -21.360538,2.001446 -26.13639,5.730657 -2.178075,1.70074 -1.567335,1.65042 3.333333,-0.27462 4.433739,-1.74162 9.730747,-2.35035 20.291647,-2.33189 z m 73.04168,3.90005 c 0,-0.4079 -2.85,-2.02954 -6.33333,-3.60365 -4.95227,-2.237906 -9.00679,-2.875747 -18.59329,-2.925025 -7.80148,-0.04011 -12.84156,0.516136 -13.85923,1.529542 -1.24003,1.234823 1.06468,1.433773 10.25996,0.885663 10.93595,-0.651867 17.48389,0.44485 28.19256,4.72197 0.18333,0.0732 0.33333,-0.2006 0.33333,-0.6085 z m -28,161.53085 c 0,-0.29925 2.34508,-8.84925 5.2113,-19 2.86621,-10.15073 5.6004,-21.45588 6.07594,-25.12255 0.47556,-3.66666 1.1872,-7.76797 1.58142,-9.11401 0.6867,-2.34477 0.83721,-2.33761 3.59072,0.17068 3.36878,3.0688 30.21958,12.23639 45.54062,15.54881 21.82157,4.71786 28.31879,11.44143 31.94815,33.06119 l 0.83936,5 h -47.39376 c -26.06656,0 -47.39375,-0.24485 -47.39375,-0.54412 z"
     style="fill:#b6895d;stroke-width:1.33333325" />
  <path
     inkscape:connector-curvature="0"
     id="path370"
     d="m 19.441692,261.49717 c 2.254246,-13.42835 7.143955,-23.20211 13.477214,-26.93883 2.392077,-1.41136 10.728064,-4.10332 18.524413,-5.98213 19.090255,-4.60051 41.948201,-12.51263 45.545419,-15.76523 l 2.93224,-2.65133 0.724192,3.16876 c 0.39831,1.74281 1.32823,7.14311 2.06649,12.00065 0.73826,4.85755 3.05683,14.45755 5.15237,21.33334 2.09554,6.87578 4.20754,14.15144 4.69334,16.1681 l 0.88326,3.66667 H 66.021482 18.60233 Z m 106.124888,-1.33333 c 0.64119,-3.48334 1.72493,-7.96156 2.4083,-9.9516 1.07219,-3.12235 0.75175,-3.97826 -2.33795,-6.24468 l -3.58044,-2.6264 5.33334,-5.51587 5.33333,-5.51585 -3.32929,-2.71983 c -1.8311,-1.49591 -6.82448,-4.4842 -11.09638,-6.64065 -8.70512,-4.39434 -10.79181,-7.75555 -12.35089,-19.89467 -0.76543,-5.95969 -1.89663,-8.27373 -6.464298,-13.22378 -7.420012,-8.04118 -13.698608,-17.36332 -16.927716,-25.13342 -2.044541,-4.91972 -3.320635,-6.37209 -5.532901,-6.29722 -2.280179,0.0772 -3.905205,-1.96688 -7.849623,-9.87366 -5.984094,-11.9954 -11.368994,-24.72709 -12.51101,-29.58016 -0.610273,-2.5934 -0.08529,-4.30147 1.946568,-6.33333 3.046669,-3.04667 5.448877,-3.61938 5.448877,-1.29907 0,3.42789 12.521281,27.91843 13.42615,26.26039 1.051988,-1.92763 3.280839,-13.01265 4.546959,-22.61395 0.80138,-6.07705 0.973379,-6.26765 8.422488,-9.33333 6.427936,-2.64541 9.753456,-3.10698 21.495366,-2.98346 11.43193,0.12025 13.48657,-0.14958 11.60654,-1.524292 -6.21001,-4.540873 -22.3881,-3.199175 -34.405922,2.853392 l -6.241753,3.14355 2.647526,-9.553923 c 1.45614,-5.254658 2.911733,-9.981415 3.234651,-10.503908 0.322918,-0.522492 2.84032,-0.426767 5.594226,0.212725 16.712702,3.880899 53.979262,-2.854245 75.340432,-13.616189 l 7.66667,-3.862534 v 4.187478 c 0,3.484732 4.18441,24.357746 6.05246,30.191391 0.35448,1.10696 -1.14408,0.82393 -4.4249,-0.83572 -10.88035,-5.503982 -27.29072,-6.539849 -33.2341,-2.097829 -2.04917,1.531529 -0.4755,1.750799 10.93987,1.524289 16.76004,-0.33255 26.84368,2.59093 28.2022,8.17647 1.66629,6.85097 8.70829,24.22564 9.81872,24.22564 1.08179,0 5.04057,-9.56549 8.35833,-20.19597 1.71879,-5.50721 2.37851,-5.89601 6.37507,-3.75712 1.7565,0.94005 2.57901,2.79512 2.57901,5.81662 0,4.26295 -6.24069,21.22904 -9.85419,26.78984 -0.95781,1.47398 -2.4805,4.93456 -3.38375,7.6902 -1.59936,4.87931 -5.6625,8.49338 -7.95548,7.07623 -0.62608,-0.38693 -2.37368,2.26907 -3.88355,5.90223 -3.26671,7.86057 -9.50479,17.17944 -16.81979,25.12657 -4.71093,5.11803 -5.42528,6.77956 -6.22132,14.47042 -1.03674,10.01648 -3.50878,14.00671 -11.21525,18.10304 -2.93333,1.5592 -7.94508,4.27856 -11.1372,6.04303 l -5.80387,3.20813 4.80387,4.9196 c 5.57541,5.70975 5.79484,6.8304 2.00831,10.25715 -2.40171,2.17352 -2.67296,3.47059 -1.92544,9.20665 0.47854,3.67219 1.2016,8.02671 1.60676,9.67671 0.71085,2.89492 0.41069,3 -8.56908,3 h -9.30574 z m 30.96701,4 c 7.97513,-28.33254 10.13457,-36.76951 10.83524,-42.33334 0.46176,-3.66666 1.1621,-7.76797 1.55632,-9.11401 0.68778,-2.34843 0.8329,-2.3424 3.59072,0.14924 4.19938,3.79409 46.56271,17.63144 53.97903,17.63144 1.0649,0 4.60426,1.33251 7.86523,2.96112 8.10219,4.04643 13.12936,13.05637 15.64451,28.03888 l 0.83936,5 h -47.4836 c -44.5838,0 -47.44349,-0.14249 -46.82681,-2.33333 z"
     style="fill:#94624a;stroke-width:1.33333325" />
  <path
     inkscape:connector-curvature="0"
     id="path368"
     d="m 19.560514,262.16384 c 4.060355,-22.83024 8.610044,-27.76134 30.359631,-32.9047 17.536135,-4.14697 43.719746,-13.22764 47.010314,-16.30353 2.73976,-2.56101 2.907281,-2.57219 3.587451,-0.23912 0.39242,1.34604 1.12787,6.04735 1.63434,10.44735 0.50647,4.4 2.66926,13.7 4.8062,20.66666 2.13694,6.96667 4.39443,14.91667 5.01663,17.66667 l 1.13129,5 H 65.948101 18.789832 Z m 105.845136,1.33333 c 0.009,-1.65 0.85208,-6.1412 1.87416,-9.98045 1.83625,-6.8975 1.81798,-7.00987 -1.53761,-9.45424 l -3.39594,-2.47378 5.01027,-5.54576 c 2.75564,-3.05017 5.81957,-5.54577 6.80872,-5.54577 2.48898,0 11.22458,7.86613 11.22458,10.10739 0,1.00712 -1.4309,2.76869 -3.17976,3.9146 -2.79136,1.82897 -3.05276,2.68773 -2.14007,7.03073 0.57183,2.721 1.42991,7.19728 1.90684,9.94728 l 0.86716,5 h -8.72709 c -8.16611,0 -8.72607,-0.19284 -8.71126,-3 z m 32.19075,-2.66667 c 0.69105,-3.11666 2.71399,-10.30558 4.49541,-15.97538 1.78144,-5.6698 3.85687,-14.3698 4.61206,-19.33334 0.7552,-4.96353 1.69897,-10.45056 2.09728,-12.19337 l 0.7242,-3.16876 2.93224,2.74121 c 3.33976,3.12219 29.40717,12.18168 47.06858,16.35828 16.05905,3.79766 20.81571,6.6669 24.99413,15.07655 1.86595,3.75548 3.77734,9.22815 4.24751,12.16148 0.47017,2.93333 1.14291,6.38333 1.49496,7.66667 0.60088,2.19038 -2.25645,2.33333 -46.64136,2.33333 h -47.28146 z m -37.57114,-45.33185 c -1.85051,-0.91748 -5.56448,-3.1656 -8.25328,-4.99583 -4.19383,-2.85466 -5.01903,-4.27512 -5.80546,-9.9932 -0.73747,-5.36199 -2.0967,-7.97061 -6.950342,-13.33898 -7.28552,-8.05816 -14.536563,-19.10391 -16.917949,-25.77168 -0.962867,-2.69599 -2.440462,-4.74368 -3.283546,-4.55045 -3.07003,0.70365 -6.582277,-2.44574 -8.186905,-7.3411 -0.903254,-2.75564 -2.417748,-6.21024 -3.36554,-7.6769 -3.49337,-5.40584 -10.062589,-22.41594 -10.174299,-26.34497 -0.0712,-2.504 0.826057,-4.74075 2.348174,-5.85375 2.920987,-2.13588 4.620384,-2.30799 4.620384,-0.46795 0,0.73333 -0.871351,1.33333 -1.936335,1.33333 -1.413086,0 -1.142861,0.85847 1,3.17683 1.614984,1.74726 5.291918,8.01741 8.170964,13.93368 2.879046,5.91627 5.6605,10.49365 6.181008,10.17196 0.520508,-0.32169 2.571223,4.65815 4.557141,11.06632 1.98592,6.40817 5.366215,14.95121 7.511767,18.98455 6.804796,12.79205 24.655468,31.6783 32.906238,34.81523 4.03062,1.53244 20.52113,1.53244 24.55176,0 4.54815,-1.7292 14.11824,-10.02125 21.50421,-18.63241 10.94512,-12.76073 14.9488,-21.03317 21.63008,-44.69226 1.46234,-5.17828 2.58338,-7.24637 3.29972,-6.0873 0.74124,1.19936 2.59844,-1.35445 5.86258,-8.0615 2.62769,-5.39934 5.76685,-10.91006 6.97589,-12.24604 2.04536,-2.26009 2.0393,-2.42906 -0.0871,-2.42906 -1.25693,0 -1.91452,-0.6 -1.46129,-1.33333 2.13846,-3.4601 7.33333,1.16713 7.33333,6.53203 0,4.17494 -4.48649,15.76983 -10.5518,27.27004 -2.26317,4.29113 -4.11486,8.62001 -4.11486,9.61974 0,2.01851 -4.39535,4.81047 -6.71096,4.26286 -0.81711,-0.19323 -2.44444,2.04866 -3.61628,4.982 -3.09368,7.74398 -10.2681,18.6586 -16.98466,25.83914 -5.14125,5.4964 -5.90294,7.10095 -6.27013,13.20839 -0.22989,3.82357 -0.85043,6.95206 -1.37899,6.95221 -0.52856,1.3e-4 -3.7256,1.95025 -7.10454,4.33359 -5.78604,4.08118 -6.89388,4.35281 -19.03898,4.66814 -8.28566,0.21514 -14.09821,-0.2615 -16.26003,-1.33333 z M 77.977433,151.49717 c -1.479987,-4.79772 -4.718253,-10.70698 -8.065065,-14.71732 -2.274204,-2.72506 -2.899683,-4.73029 -2.343278,-7.51231 0.779626,-3.89813 -2.768332,-13.43703 -4.997848,-13.43703 -3.182246,0 0.198894,13.37096 6.931206,27.40996 3.223608,6.72222 6.204203,11.2567 7.399251,11.2567 1.460595,0 1.75118,-0.81038 1.075734,-3 z M 200.45856,141.05372 c 5.31022,-11.14357 6.33349,-14.49687 6,-19.66234 l -0.40207,-6.22754 -2.33333,4.26712 c -1.28334,2.34692 -2.33334,6.65088 -2.33334,9.56437 0,3.5763 -1.00782,6.52168 -3.10218,9.0662 -2.58583,3.14163 -7.56448,13.53792 -7.56448,15.79596 0,0.35183 0.75,0.63774 1.66667,0.63535 0.91666,-0.003 4.5476,-6.04999 8.06873,-13.43912 z m -79.05759,36.14523 c -5.72243,-3.61784 12.29487,-6.84456 22.62187,-4.05135 5.56048,1.50397 5.79257,1.74081 3.41183,3.48167 -2.95272,2.15908 -22.83165,2.59408 -26.0337,0.56968 z m 8.65552,-23.42296 -4,-3.29195 2.82906,-4.93645 c 3.94772,-6.8884 5.76373,-7.05808 4.87817,-0.45579 -0.72086,5.37445 -0.6998,5.40537 3.68296,5.40537 h 4.40799 l -3.13151,3.33334 c -3.79293,4.03738 -3.69389,4.03801 -8.66667,-0.0545 z M 93.38983,122.89398 c 0,-0.51509 1.846325,-2.84145 4.102945,-5.16969 l 4.102945,-4.23316 -4.241068,-4.83031 -4.241068,-4.83031 h 4.883479 c 2.685917,0 4.554677,0.53201 4.152797,1.18225 -0.40187,0.65025 0.0831,1.85764 1.07774,2.68311 1.35839,1.12737 2.18136,1.05148 3.30709,-0.30493 0.82427,-0.99319 1.10387,-2.20058 0.62135,-2.68311 -0.48253,-0.48253 1.09389,-0.87732 3.50315,-0.87732 h 4.38047 l -3.58111,4.69508 -3.58112,4.69509 4.20157,5.30491 4.20157,5.30492 h -4.7787 c -2.62829,0 -4.68345,-0.45 -4.56703,-1 0.11643,-0.55 -0.25365,-2.06532 -0.82238,-3.36737 -0.80472,-1.84232 -1.44308,-2.0279 -2.87834,-0.83674 -1.01436,0.84185 -1.84429,2.35716 -1.84429,3.36737 0,1.15193 -1.491352,1.83674 -4,1.83674 -2.2,0 -4,-0.42144 -4,-0.93653 z m 58.66666,0.35215 c 0,-0.32141 1.8,-2.55512 4,-4.96381 2.2,-2.4087 3.99723,-4.69573 3.99383,-5.08229 -0.004,-0.38657 -1.8338,-2.65286 -4.06757,-5.03619 l -4.06142,-4.33333 h 4.57874 c 3.60892,0 4.75782,0.63543 5.42422,3 l 0.8455,3 2.52374,-3 c 1.44395,-1.71644 4.03002,-3 6.04427,-3 h 3.52052 l -4.06141,4.33333 c -2.23378,2.38333 -4.06142,4.63333 -4.06142,5 0,0.36667 1.79723,2.58413 3.99384,4.92769 4.92798,5.25766 4.9454,5.73898 0.20786,5.73898 -2.83292,0 -4.20502,-0.91968 -5.45056,-3.65335 -1.59002,-3.4897 -1.747,-3.54062 -3.50464,-1.1369 -1.01204,1.38404 -1.52388,3.02805 -1.13743,3.65334 0.38645,0.6253 -1.43276,1.13691 -4.04271,1.13691 -2.60994,0 -4.74536,-0.26297 -4.74536,-0.58438 z"
     style="fill:#855038;stroke-width:1.33333325" />
  <path
     inkscape:connector-curvature="0"
     id="path366"
     d="m 20.304922,258.98478 c 1.725133,-11.00105 7.001636,-20.91154 12.884207,-24.19956 2.677053,-1.4963 10.162214,-3.97264 16.633691,-5.50297 18.130845,-4.28744 44.848075,-13.50715 47.551979,-16.40944 2.324865,-2.49545 2.457843,-2.5022 3.112611,-0.15789 0.37619,1.3469 1.09277,6.04892 1.59239,10.44892 0.49963,4.4 2.30893,12.5 4.02067,18 1.71174,5.5 3.99515,13.45 5.07423,17.66666 l 1.96198,7.66667 H 66.13177 19.126865 Z m 105.084908,4.39096 c 0,-1.71678 0.90035,-6.06678 2.00078,-9.66666 1.98894,-6.50654 1.98019,-6.562 -1.48006,-9.37899 l -3.48084,-2.83375 4.96854,-5.49958 c 2.7327,-3.02478 5.77785,-5.49959 6.767,-5.49959 2.48898,0 11.22458,7.86613 11.22458,10.10739 0,1.00712 -1.4309,2.76869 -3.17976,3.9146 -2.79136,1.82897 -3.05276,2.68773 -2.14007,7.03073 0.57183,2.721 1.42991,7.19728 1.90684,9.94728 l 0.86716,5 h -8.72709 c -8.26201,0 -8.72708,-0.16635 -8.72708,-3.12143 z m 33.99148,-8.54524 c 1.72285,-6.41666 3.78062,-13.35848 4.57281,-15.42625 0.7922,-2.06776 2.06125,-8.06776 2.82013,-13.33333 0.75888,-5.26556 1.68922,-11.00322 2.0674,-12.75032 0.68554,-3.16695 0.69516,-3.16848 3.17306,-0.50878 2.75172,2.95363 29.32562,12.14696 47.60879,16.47043 16.40987,3.88049 20.64139,6.53936 24.97903,15.69556 1.95921,4.13565 4.04824,10.66936 4.64229,14.51936 l 1.08008,7 h -47.03804 -47.03802 z m -50.27323,-47.48501 c -1.25496,-0.95344 -2.70302,-4.36801 -3.2179,-7.58793 -0.69893,-4.37087 -2.73392,-7.9736 -8.030512,-14.21717 -8.240081,-9.71334 -12.491502,-16.25031 -15.420097,-23.70988 -1.151613,-2.93334 -2.90892,-5.41412 -3.905125,-5.51287 -0.996205,-0.0988 -2.591899,-0.24875 -3.545985,-0.33333 -0.954085,-0.0845 -2.666892,-2.4038 -3.806235,-5.1538 -1.139344,-2.75 -4.451917,-10.00474 -7.361274,-16.12164 -2.909357,-6.1169 -4.953423,-11.99806 -4.542369,-13.06925 0.418522,-1.09065 0.167416,-1.58918 -0.570691,-1.13301 -0.772289,0.4773 -1.318061,-1.11088 -1.318061,-3.83551 0,-4.63478 2.77766,-8.87704 5.761905,-8.80005 0.864285,0.0223 0.508808,0.65918 -0.789948,1.41528 -1.298757,0.75611 -1.940288,2.05607 -1.425623,2.88882 0.514664,0.83275 0.783248,4.38743 0.596852,7.89931 -0.271562,5.1165 0.705361,8.57462 4.916648,17.40397 2.890552,6.0603 5.620979,12.08236 6.067616,13.38232 0.867899,2.52608 4.462593,4.49082 5.789216,3.1642 0.440913,-0.44091 -0.184964,-3.3851 -1.390838,-6.54263 -1.205872,-3.15753 -2.192496,-6.87091 -2.192496,-8.25195 0,-1.38104 -0.401309,-2.10966 -0.891797,-1.61917 -2.081925,2.08192 -5.774688,-3.67188 -5.768038,-8.98734 l 0.0068,-5.46002 3.282702,5.33333 c 1.805486,2.93334 5.737305,12.63892 8.737377,21.56798 6.389144,19.01589 13.212419,29.68638 27.732733,43.36952 11.04309,10.40638 16.15347,12.32622 30.40164,11.42111 11.44217,-0.72686 15.33645,-2.87132 27.24492,-15.00294 12.64387,-12.88083 17.95003,-21.79128 23.62245,-39.66837 3.4558,-10.89124 5.49206,-15.45436 6.70043,-15.01528 0.95475,0.34693 1.37813,0.0519 0.94085,-0.65567 -0.43729,-0.70755 0.08,-2.95067 1.1494,-4.98473 l 1.94449,-3.69828 0.98325,3.89517 c 0.79977,3.16836 0.38579,4.41391 -2.21865,6.67527 -2.90891,2.5257 -7.89132,13.73737 -7.87516,17.72105 0.0165,4.06371 4.35509,-0.74071 8.50907,-9.42265 7.63613,-15.95978 8.99642,-19.98132 8.65582,-25.58986 -0.17995,-2.96323 0.0824,-6.05036 0.58293,-6.86029 0.50058,-0.80993 -0.0723,-1.84959 -1.27305,-2.31036 -1.20075,-0.46078 -1.80099,-1.21997 -1.33385,-1.6871 1.49521,-1.49521 6.19901,3.88015 6.19901,7.08404 0,3.4304 -6.00389,18.91765 -11.26329,29.05403 -1.87185,3.60762 -3.40337,7.33651 -3.40337,8.28642 0,2.04661 -4.87542,4.928 -6.56818,3.88181 -0.64885,-0.40101 -3.01044,3.183 -5.24796,7.96447 -4.00938,8.56786 -13.1615,21.55289 -18.68808,26.51465 -1.94282,1.74427 -2.82912,4.12977 -2.82912,7.61472 0,3.50348 -0.90352,5.91649 -2.91808,7.79334 -2.71101,2.5257 -4.57969,2.7156 -26.33333,2.67622 -17.0996,-0.0309 -24.03069,-0.50999 -25.697,-1.77595 z M 72.967316,134.24717 c -0.425635,-1.06364 -0.741578,-0.7477 -0.805556,0.80556 -0.05789,1.40555 0.257237,2.19306 0.700293,1.75 0.443055,-0.44306 0.490424,-1.59306 0.105267,-2.55556 z m 49.262544,42.79016 c -4.11726,-2.50733 -0.0276,-3.83265 11.82663,-3.83265 10.39986,0 15.68122,1.38828 13.51771,3.55333 -1.73917,1.74039 -22.56819,1.96995 -25.34434,0.27932 z m 8.06316,-23.26828 -3.76348,-3.3105 2.87223,-4.64736 c 3.57574,-5.78567 4.47468,-5.86332 3.63515,-0.31402 -0.36335,2.40168 0.17881,5.96782 1.21624,8 2.30853,4.52215 0.97569,4.61366 -3.96014,0.27188 z M 93.38983,123.24613 c 0,-0.32141 1.8,-2.55512 4,-4.96381 2.2,-2.4087 3.99722,-4.69573 3.99383,-5.08229 -0.003,-0.38657 -1.833805,-2.65286 -4.067581,-5.03619 l -4.061412,-4.33333 h 3.746852 c 2.348575,0 4.391961,1.03299 5.475511,2.76802 1.38224,2.21333 2.11155,2.45024 3.63938,1.18225 1.0509,-0.87216 1.58192,-2.11777 1.18005,-2.76802 -0.40187,-0.65024 1.13527,-1.18225 3.41587,-1.18225 h 4.14654 l -3.55944,4.66666 -3.55944,4.66667 3.49159,4.5777 c 4.27437,5.604 4.30402,6.08897 0.37227,6.08897 -2.06591,0 -3.65309,-1.1715 -4.6999,-3.46901 -1.30295,-2.85966 -1.92606,-3.1823 -3.54736,-1.83674 -1.08172,0.89774 -1.96676,2.4588 -1.96676,3.46901 0,1.15193 -1.491352,1.83674 -4,1.83674 -2.2,0 -4,-0.26297 -4,-0.58438 z m 62.79369,-4.70752 4.25268,-5.2919 -3.59104,-4.7081 -3.59104,-4.7081 h 3.91235 c 2.91784,0 4.12726,0.76259 4.75782,3 l 0.8455,3 2.52374,-3 c 1.38806,-1.65 3.84878,-3 5.46827,-3 2.91663,0 2.9106,0.0445 -0.63659,4.69508 l -3.58112,4.69509 4.20158,5.30491 4.20157,5.30492 h -3.79587 c -2.57717,0 -4.21844,-0.91462 -5.11204,-2.84876 -0.72389,-1.56681 -1.91617,-2.84875 -2.6495,-2.84875 -0.73334,0 -1.92562,1.28194 -2.64951,2.84875 -0.88768,1.92133 -2.53591,2.84876 -5.06283,2.84876 h -3.74666 z"
     style="fill:#77452f;stroke-width:1.33333325" />
  <path
     inkscape:connector-curvature="0"
     id="path364"
     d="m 20.201504,259.49717 c 0.594046,-3.85 2.664822,-10.34552 4.601723,-14.43448 4.225023,-8.91939 9.038482,-11.88145 25.919937,-15.95037 17.353873,-4.1828 44.046935,-13.32875 46.729199,-16.01102 2.057317,-2.05732 2.507296,-2.113 3.167707,-0.39198 0.42337,1.10326 0.76976,3.9609 0.76976,6.35028 0,4.16802 1.4346,10.16454 8.5578,35.7709 l 3.24544,11.66667 H 68.043065 22.893054 l 2.641795,-9.53324 c 1.452988,-5.24328 3.253674,-10.67653 4.001526,-12.07392 0.747854,-1.39737 1.093211,-3.25741 0.767462,-4.13343 -0.721347,-1.93985 -6.186382,10.1765 -7.099735,15.74059 -1.334588,8.13024 -1.890633,10 -2.97388,10 -0.609842,0 -0.622766,-3.15 -0.02872,-7 z M 34.056498,239.8305 c -0.453225,-0.73333 -0.638635,-1.33594 -0.412023,-1.33914 0.226612,-0.003 4.612023,-1.5311 9.745356,-3.39532 8.63047,-3.13426 8.881493,-3.3294 3.333333,-2.59136 -3.3,0.43898 -8.248428,1.7573 -10.996508,2.92958 -3.949406,1.68475 -4.683602,2.50846 -3.503406,3.9305 1.735199,2.09078 3.042908,2.42301 1.833248,0.46574 z M 65.02872,228.35828 c -0.443056,-0.44306 -1.593056,-0.49042 -2.555556,-0.1052 -1.063644,0.42562 -0.747702,0.74157 0.805556,0.80554 1.405554,0.0579 2.193054,-0.25724 1.75,-0.70029 z m 20.36111,-7.19444 c 1.1,-0.71088 1.4,-1.2925 0.666667,-1.2925 -0.733334,0 -2.233334,0.58162 -3.333334,1.2925 -1.1,0.71088 -1.4,1.29249 -0.666666,1.29249 0.733333,0 2.233333,-0.58161 3.333333,-1.29249 z m 40,42.2119 c 0,-1.71678 0.90035,-6.06678 2.00078,-9.66666 1.98894,-6.50654 1.98019,-6.562 -1.48006,-9.37899 l -3.48084,-2.83375 4.96854,-5.49958 c 2.7327,-3.02478 5.77785,-5.49959 6.767,-5.49959 2.4411,0 11.22458,7.84628 11.22458,10.02692 0,0.96287 -1.48066,2.85071 -3.29035,4.1952 -2.95892,2.19832 -3.1756,2.98175 -2.15116,7.77788 0.62653,2.93333 1.4922,7.28333 1.92367,9.66667 l 0.7845,4.33333 h -8.63333 c -8.16371,0 -8.63333,-0.1698 -8.63333,-3.12143 z m 32.88178,-4.54524 c 1.0791,-4.21666 3.3625,-12.16666 5.07424,-17.66666 1.71174,-5.5 3.52104,-13.6 4.02067,-18 1.41364,-12.44938 1.67217,-13.0178 4.59255,-10.09743 2.7115,2.71151 29.31834,11.84096 46.76409,16.04591 16.88145,4.06892 21.69492,7.03098 25.91993,15.95037 3.61085,7.62283 6.55755,21.43448 4.57301,21.43448 -1.08325,0 -1.63929,-1.86976 -2.97388,-10 -0.91336,-5.56409 -6.37838,-17.68044 -7.09973,-15.74059 -0.32576,0.87602 0.0196,2.73606 0.76745,4.13343 0.74786,1.39739 2.54855,6.83064 4.00154,12.07392 l 2.64178,9.53324 h -45.12181 -45.12181 z m 76.0096,-23.15978 c -2.3236,-1.1879 -7.22472,-2.54846 -10.89139,-3.02348 l -6.66666,-0.8637 8,2.79655 c 9.87512,3.45203 10.64442,4.17124 8.67174,8.10727 -1.22674,2.4477 -0.8356,2.25812 1.76788,-0.85686 l 3.34316,-4 z m -26.58583,-7.31244 c -0.44306,-0.44306 -1.59306,-0.49042 -2.55556,-0.1052 -1.06364,0.42562 -0.7477,0.74157 0.80556,0.80554 1.40555,0.0579 2.19306,-0.25724 1.75,-0.70029 z m -20.97222,-7.19444 c -1.1,-0.71088 -2.6,-1.2925 -3.33333,-1.2925 -0.73334,0 -0.43334,0.58162 0.66666,1.2925 1.1,0.71088 2.6,1.29249 3.33334,1.29249 0.73333,0 0.43333,-0.58161 -0.66667,-1.29249 z m -61.02268,-14.567 c -3.12914,-0.5234 -8.46428,-2.90759 -11.85587,-5.2982 -4.80311,-3.38555 -6.41497,-3.95467 -7.29023,-2.57401 -0.80237,1.26565 -1.12956,0.91152 -1.14414,-1.23835 -0.0115,-1.69159 -3.37977,-7.03107 -7.687077,-12.18565 -7.102069,-8.49911 -13.228618,-17.47012 -11.930821,-17.47012 0.304301,0 2.830438,3.45 5.613638,7.66666 6.360092,9.63582 21.15126,24.33503 27.53594,27.36476 6.62759,3.14499 24.88532,3.16852 31.477,0.0405 2.621,-1.24374 8.71167,-5.86918 13.53484,-10.27877 4.82317,-4.40957 6.8194,-5.9134 4.43607,-3.34184 -3.26144,3.51903 -4.37236,5.97914 -4.49108,9.94544 -0.14142,4.72359 -0.24507,4.87661 -1,1.47625 l -0.84226,-3.79358 -3.58873,2.82907 c -7.62005,6.00702 -21.04983,8.81771 -32.76728,6.85778 z m 49.60569,-27.2048 c 2.05342,-2.69217 4.00314,-4.89487 4.3327,-4.89487 0.92621,0 -4.84607,7.79959 -6.55303,8.85455 -0.83224,0.51435 0.16691,-1.26751 2.22033,-3.95968 z m -47.24968,-1.78273 c -6.36533,-1.10036 -7.58897,-2.06788 -4,-3.16276 6.64327,-2.02666 27.09999,-0.61631 23.3199,1.60774 -1.93375,1.13774 -15.44353,2.2251 -19.3199,1.55502 z m 53.33334,-7.11214 c 0.78493,-1.46666 1.72716,-2.66666 2.09382,-2.66666 0.36667,0 0.0244,1.2 -0.76049,2.66666 -0.78493,1.46667 -1.72716,2.66667 -2.09383,2.66667 -0.36666,0 -0.0244,-1.2 0.7605,-2.66667 z M 81.146213,159.1256 c -1.153831,-2.54564 -1.629734,-4.62843 -1.057563,-4.62843 1.058008,0 4.321559,8.09074 3.567653,8.84464 -0.226718,0.22672 -1.35626,-1.67057 -2.51009,-4.21621 z m 104.284457,4.03824 c 0,-0.73333 0.58161,-2.23333 1.29249,-3.33333 0.71088,-1.1 1.29249,-1.4 1.29249,-0.66667 0,0.73333 -0.58161,2.23333 -1.29249,3.33333 -0.71088,1.1 -1.29249,1.4 -1.29249,0.66667 z M 73.38983,154.49717 c -1.466666,-1.46666 -2.648421,-3.41666 -2.626121,-4.33333 0.02229,-0.91667 0.728744,-0.46667 1.569877,1 0.841132,1.46667 2.472887,3.39759 3.626121,4.29093 1.153235,0.89334 1.64679,1.64334 1.09679,1.66667 -0.55,0.0233 -2.2,-1.1576 -3.666667,-2.62427 z m 114.66666,1.33334 c 0,-0.73334 0.63542,-1.33334 1.41203,-1.33334 0.77661,0 1.0412,0.6 0.58797,1.33334 -0.45322,0.73333 -1.08864,1.33333 -1.41202,1.33333 -0.32339,0 -0.58798,-0.6 -0.58798,-1.33333 z m -58.30817,-3 -2.77302,-3 3.29006,-4.66667 3.29005,-4.66667 -0.87151,4.8596 c -0.50254,2.80222 -0.23548,6.04803 0.63079,7.66667 1.97927,3.69829 -0.0721,3.58732 -3.56637,-0.19293 z m 63.64151,2.49658 c 0,-0.27686 0.91373,-1.26173 2.03052,-2.18858 1.6978,-1.40904 1.8929,-1.32656 1.19068,0.50341 -0.71719,1.86897 -3.2212,3.17896 -3.2212,1.68517 z M 76.267023,143.61999 c -1.582054,-5.2624 -2.64475,-9.79971 -2.361545,-10.08291 0.283204,-0.2832 1.819583,3.78041 3.414176,9.03027 1.594593,5.24985 2.657289,9.78716 2.361547,10.0829 -0.295744,0.29574 -1.832124,-3.76788 -3.414178,-9.03026 z m 114.609767,4.21052 c 0.0737,-2.99346 3.62741,-11.67914 3.74493,-9.15308 0.0557,1.19913 -0.77508,4.19913 -1.84637,6.66666 -1.0713,2.46754 -1.92566,3.58642 -1.89856,2.48642 z m 7.84637,-2.1896 c 0,-0.7154 0.93309,-2.4654 2.07356,-3.8889 1.95516,-2.44041 1.98292,-2.39786 0.48605,0.74516 -1.94374,4.08138 -2.55961,4.83779 -2.55961,3.14374 z M 65.38983,138.49717 c -0.784936,-1.46666 -1.127157,-2.66666 -0.76049,-2.66666 0.366666,0 1.308888,1.2 2.093824,2.66666 0.784936,1.46667 1.127157,2.66667 0.76049,2.66667 -0.366666,0 -1.308888,-1.2 -2.093824,-2.66667 z M 203.47554,136.773 c 0.50071,-1.31496 1.24626,-2.05496 1.65678,-1.64444 0.41052,0.41052 8.5e-4,1.48639 -0.91038,2.39084 -1.31682,1.30701 -1.46997,1.15387 -0.7464,-0.7464 z M 69.723164,135.63165 c -1.837698,-1.83896 -2.235535,-5.96603 -0.666667,-6.91584 1.842992,-1.11576 3.805155,2.41504 3.065308,5.51584 -0.585749,2.45496 -1.064921,2.73464 -2.398641,1.4 z m 127.729486,-1.80114 c -0.012,-2.2 0.55963,-4.9 1.27051,-6 0.74155,-1.14746 1.3012,-1.33604 1.31292,-0.44239 0.0107,0.85669 0.33365,2.37391 0.71651,3.37159 0.38284,0.99769 -0.19808,2.99677 -1.29094,4.44238 -1.90353,2.51799 -1.98794,2.46036 -2.009,-1.37158 z m -100.085328,-15.30492 4.201568,-5.30491 -3.581115,-4.69509 c -3.547184,-4.65059 -3.553215,-4.69508 -0.636587,-4.69508 1.61949,0 4.011862,1.3181 5.316382,2.92911 l 2.37185,2.92912 1.82927,-2.92912 c 1.07414,-1.71997 3.17584,-2.92911 5.09132,-2.92911 h 3.26206 l -3.58279,3.73962 c -4.44925,4.64402 -4.50149,6.93246 -0.24945,10.92704 4.12974,3.8797 4.21592,5.33334 0.31617,5.33334 -1.81204,0 -3.54287,-1.16382 -4.33334,-2.91375 -1.91714,-4.24417 -4.38732,-4.45382 -6.17772,-0.52432 -1.05639,2.31853 -2.618705,3.43807 -4.797836,3.43807 h -3.231353 z m 56.022508,4.13484 c 0,-0.64354 0.93276,-1.94419 2.0728,-2.89034 4.65548,-3.8637 4.95869,-6.5429 1.28549,-11.3587 l -3.494,-4.58088 h 3.08045 c 1.69426,0 3.82988,1.2 4.74583,2.66666 0.91595,1.46667 2.21984,2.66667 2.89755,2.66667 0.67769,0 1.61304,-1.2 2.07854,-2.66667 0.54707,-1.72363 2.01738,-2.66666 4.15771,-2.66666 h 3.31133 l -3.55944,4.66666 -3.55944,4.66667 3.49159,4.5777 c 4.25751,5.58188 4.29701,6.08897 0.47443,6.08897 -1.78188,0 -3.55603,-1.16634 -4.33334,-2.84876 -0.72389,-1.56681 -1.91617,-2.84875 -2.6495,-2.84875 -0.73334,0 -1.92562,1.28194 -2.64951,2.84875 -1.27743,2.76492 -7.35049,4.15186 -7.35049,1.67868 z m 55.24737,-2.49659 c -0.4419,-2.01667 -1.02712,-4.39745 -1.30051,-5.29063 -0.27339,-0.89318 0.0865,-1.98464 0.79979,-2.42547 0.71326,-0.44082 0.87188,-1.51004 0.35248,-2.37603 -0.53799,-0.89698 0.0264,-0.78709 1.31158,0.25539 1.24078,1.00646 2.21378,2.80646 2.16223,4 -0.0732,1.69656 -0.36781,1.58821 -1.34992,-0.49659 -0.92664,-1.96705 -1.11993,-1.00508 -0.73675,3.66666 0.57695,7.03379 -0.007,8.29007 -1.2389,2.66667 z M 59.139875,116.7194 c -1.080852,-3.52174 -0.988891,-4.44445 0.442958,-4.44445 1.159042,0 1.806997,1.5937 1.806997,4.44445 0,2.44444 -0.19933,4.44444 -0.442958,4.44444 -0.243627,0 -1.056776,-2 -1.806997,-4.44444 z m 0.916622,-7.55556 c 1.1,-0.71087 2.6,-1.2925 3.333333,-1.2925 0.733334,0 0.433334,0.58163 -0.666666,1.2925 -1.1,0.71088 -2.6,1.2925 -3.333333,1.2925 -0.733334,0 -0.433334,-0.58162 0.666666,-1.2925 z"
     style="fill:#622f1d;stroke-width:1.33333325" />
  <path
     inkscape:connector-curvature="0"
     id="path362"
     d="m 20.365836,262.49717 c 0,-2.56667 0.274393,-3.61667 0.609764,-2.33333 0.335369,1.28333 0.335369,3.38333 0,4.66666 -0.335371,1.28334 -0.609764,0.23334 -0.609764,-2.33333 z m 59.06981,2.52417 c -3.253357,-8.83989 -5.958554,-17.72254 -5.52838,-18.15272 0.288388,-0.28838 2.155543,3.74446 4.149231,8.96188 1.993688,5.21743 3.273412,9.8377 2.843829,10.26728 -0.429583,0.42959 -1.088689,-0.0548 -1.46468,-1.07644 z m 30.086764,-3.8575 c -0.91295,-3.3 -3.14506,-10.8 -4.96026,-16.66667 -1.81519,-5.86667 -3.54437,-15.16667 -3.84261,-20.66667 l -0.54226,-10 1.15662,8 c 0.63614,4.4 3.32908,15.47399 5.98431,24.60887 2.65523,9.13488 4.61088,17.53488 4.34589,18.66667 -0.26499,1.13178 -1.22875,-0.6422 -2.14169,-3.9422 z m 16.49044,-0.84043 c 0.5092,-3.39556 1.60695,-7.66868 2.43945,-9.49583 1.34206,-2.94549 1.08528,-3.66362 -2.26534,-6.33532 l -3.77898,-3.01325 5.49092,-5.49092 c 3.02001,-3.02 6.07005,-5.49092 6.77787,-5.49092 2.03196,0 10.71306,8.09095 10.71306,9.98477 0,0.9397 -1.55288,2.72602 -3.45084,3.96962 -2.81028,1.84136 -3.28276,2.92169 -2.5454,5.82001 0.498,1.95741 1.36126,6.40893 1.91838,9.89227 l 1.01294,6.33333 h -8.61893 -8.61894 z m 31.37698,4.51769 c 0,-1.15526 2.15234,-9.50526 4.78298,-18.55554 2.63064,-9.05028 5.3002,-20.05506 5.93235,-24.45506 l 1.14935,-8 -0.43879,9.33334 c -0.26572,5.65198 -2.35889,15.87957 -5.30685,25.93006 -4.83147,16.47198 -6.11904,19.78554 -6.11904,15.7472 z m 30.66666,0.95102 c 0,-1.98954 6.90704,-19.49902 7.46986,-18.9362 0.6928,0.6928 -4.85624,17.31712 -6.31128,18.90792 -0.69287,0.7575 -1.15858,0.76886 -1.15858,0.0283 z m 60.30933,-3.29495 c 0,-2.56667 0.2744,-3.61667 0.60978,-2.33333 0.33536,1.28333 0.33536,3.38333 0,4.66666 -0.33538,1.28334 -0.60978,0.23334 -0.60978,-2.33333 z M 21.446385,255.16384 c -0.04236,-3.7034 5.666324,-15.57891 8.652793,-18 1.818303,-1.47408 1.655097,-0.89059 -0.620641,2.21892 -1.698227,2.32041 -4.193327,7.42041 -5.544667,11.33333 -1.351341,3.91293 -2.470709,5.91441 -2.487485,4.44775 z m 224.367355,-3.45899 c -0.86685,-3.24605 -3.19234,-8.29572 -5.16776,-11.22147 -2.67634,-3.96386 -2.90074,-4.70066 -0.88054,-2.89114 3.23456,2.89724 8.62001,14.88582 8.03672,17.89054 -0.22679,1.1682 -1.12158,-0.53186 -1.98842,-3.77793 z M 83.199497,241.47181 c 0.488594,-0.79057 -0.9187,-2.72413 -3.127323,-4.29681 -4.172865,-2.97134 -5.122425,-5.83644 -2.476333,-7.47182 0.991985,-0.61308 1.17574,-0.36304 0.516776,0.70319 -0.632164,1.02285 0.606054,3.33487 3.243197,6.05571 3.072297,3.1698 3.802672,4.68736 2.610547,5.42413 -1.024979,0.63347 -1.316971,0.47568 -0.766864,-0.4144 z m 101.649753,-0.104 c -0.38386,-0.62111 1.09616,-2.84816 3.28896,-4.94899 2.1928,-2.10084 3.67834,-4.62381 3.3012,-5.60661 -0.37714,-0.98281 -0.0925,-1.42036 0.63235,-0.97232 2.43377,1.50415 1.34907,4.45356 -2.69761,7.33505 -2.20862,1.57268 -3.67322,3.41354 -3.25464,4.0908 0.41857,0.67726 0.46102,1.23138 0.0944,1.23138 -0.36667,0 -0.98074,-0.50819 -1.36462,-1.12931 z M 37.081098,232.93924 c 0.774802,-0.7748 2.195758,-1.14639 3.15768,-0.82575 0.998594,0.33287 0.394204,0.93725 -1.408735,1.40873 -2.217793,0.57996 -2.738369,0.40644 -1.748945,-0.58298 z m 192.975392,0.2246 c -2.17388,-0.93415 -2.25001,-1.16323 -0.41203,-1.23962 1.24006,-0.0516 2.62547,0.50628 3.0787,1.23962 0.94754,1.53317 0.90121,1.53317 -2.66667,0 z M 49.389831,229.7736 c 4.033333,-1.00656 7.933333,-1.79262 8.666666,-1.7468 2.678846,0.16738 -9.434282,3.59844 -12.666666,3.58784 -1.833333,-0.007 -0.03333,-0.83447 4,-1.84104 z m 165.999989,0.0943 c -7.07005,-2.3301 -4.50045,-2.38198 4.66667,-0.0943 4.03333,1.00657 5.83333,1.83504 4,1.84104 -1.83333,0.007 -5.73333,-0.78006 -8.66667,-1.7468 z M 62.056497,226.49717 c 1.466667,-0.63025 3.566667,-1.14591 4.666667,-1.14591 1.260638,0 1.014185,0.42362 -0.666667,1.14591 -1.466667,0.63025 -3.566667,1.14591 -4.666667,1.14591 -1.260638,0 -1.014185,-0.42362 0.666667,-1.14591 z m 141.333323,0 c -1.68085,-0.72229 -1.9273,-1.14591 -0.66666,-1.14591 1.1,0 3.2,0.51566 4.66666,1.14591 1.68086,0.72229 1.92731,1.14591 0.66667,1.14591 -1.1,0 -3.2,-0.51566 -4.66667,-1.14591 z M 78.723163,221.16384 c 1.1,-0.71088 2.6,-1.2925 3.333334,-1.2925 0.733333,0 0.433333,0.58162 -0.666667,1.2925 -1.1,0.71088 -2.6,1.29249 -3.333333,1.29249 -0.733334,0 -0.433334,-0.58161 0.666666,-1.29249 z m 109.333327,0 c -1.1,-0.71088 -1.4,-1.2925 -0.66666,-1.2925 0.73333,0 2.23333,0.58162 3.33333,1.2925 1.1,0.71088 1.4,1.29249 0.66667,1.29249 -0.73334,0 -2.23334,-0.58161 -3.33334,-1.29249 z M 92.056496,217.8305 c 1.722327,-1.83333 3.431504,-3.33333 3.798171,-3.33333 0.366667,0 -0.742511,1.5 -2.464837,3.33333 -1.722327,1.83334 -3.431504,3.33334 -3.798171,3.33334 -0.366667,0 0.742511,-1.5 2.464837,-3.33334 z m 85.163254,1 c -1.6585,-2.11474 -1.61134,-2.1619 0.50341,-0.50341 2.221,1.74183 2.92731,2.83675 1.82992,2.83675 -0.27687,0 -1.32687,-1.05 -2.33333,-2.33334 z M 96.959056,119.49717 c 4.690824,-5.21062 4.799844,-6.26441 1.143887,-11.05762 l -3.515491,-4.60904 h 3.40119 c 2.000026,0 3.401188,0.75667 3.401188,1.83674 0,1.01021 0.88504,2.57126 1.96676,3.46901 1.6213,1.34555 2.24441,1.02292 3.54736,-1.83674 0.86932,-1.90796 2.68427,-3.46901 4.03323,-3.46901 3.31844,0 3.09012,1.1887 -1.06043,5.52095 l -3.51308,3.66686 3.71002,4.4061 c 3.12719,3.71391 3.35939,4.47487 1.47809,4.84392 -1.22756,0.24081 -3.41618,-0.95919 -4.86361,-2.66666 l -2.63168,-3.10451 -2.54705,3 c -1.40088,1.65 -3.60547,3 -4.899086,3 -2.14383,0 -2.112963,-0.26555 0.348702,-3 z m 60.244694,-1.47467 4.33702,-4.47468 -3.40881,-4.05113 c -4.05484,-4.81891 -4.19951,-5.66618 -0.96744,-5.66618 1.34275,0 3.24017,1.4926 4.21652,3.3169 1.37035,2.56052 2.18185,2.97937 3.55863,1.83674 0.98092,-0.81409 1.78349,-2.30669 1.78349,-3.3169 0,-1.10441 1.42852,-1.83674 3.58279,-1.83674 h 3.58278 l -3.58278,3.73962 c -4.43632,4.63053 -4.44918,5.6928 -0.13094,10.82474 l 3.45187,4.1023 h -3.36201 c -2.191,0 -3.6568,-0.92882 -4.20838,-2.66666 -0.4655,-1.46667 -1.5616,-2.66667 -2.43578,-2.66667 -0.87419,0 -2.33884,1.2 -3.25479,2.66667 -0.91595,1.46666 -2.97797,2.66666 -4.58228,2.66666 -2.71824,0 -2.62152,-0.30478 1.42011,-4.47467 z"
     style="fill:#1c0c07;stroke-width:1.33333325" />
</svg>
