<?xml version="1.0" encoding="UTF-8" standalone="no"?>
<!-- Created with Inkscape (http://www.inkscape.org/) -->

<svg
   xmlns:dc="http://purl.org/dc/elements/1.1/"
   xmlns:cc="http://creativecommons.org/ns#"
   xmlns:rdf="http://www.w3.org/1999/02/22-rdf-syntax-ns#"
   xmlns:svg="http://www.w3.org/2000/svg"
   xmlns="http://www.w3.org/2000/svg"
   xmlns:sodipodi="http://sodipodi.sourceforge.net/DTD/sodipodi-0.dtd"
   xmlns:inkscape="http://www.inkscape.org/namespaces/inkscape"
   version="1.1"
   id="svg244"
   width="266.66666"
   height="266.66666"
   viewBox="0 0 266.66666 266.66666"
   sodipodi:docname="Trustee3smirk.svg"
   inkscape:version="0.92.2 (5c3e80d, 2017-08-06)">
  <metadata
     id="metadata250">
    <rdf:RDF>
      <cc:Work
         rdf:about="">
        <dc:format>image/svg+xml</dc:format>
        <dc:type
           rdf:resource="http://purl.org/dc/dcmitype/StillImage" />
        <dc:title></dc:title>
      </cc:Work>
    </rdf:RDF>
  </metadata>
  <defs
     id="defs248" />
  <sodipodi:namedview
     pagecolor="#ffffff"
     bordercolor="#666666"
     borderopacity="1"
     objecttolerance="10"
     gridtolerance="10"
     guidetolerance="10"
     inkscape:pageopacity="0"
     inkscape:pageshadow="2"
     inkscape:window-width="640"
     inkscape:window-height="480"
     id="namedview246"
     showgrid="false"
     inkscape:zoom="0.88500003"
     inkscape:cx="133.33333"
     inkscape:cy="133.33333"
     inkscape:window-x="127"
     inkscape:window-y="126"
     inkscape:window-maximized="0"
     inkscape:current-layer="svg244" />
  <path
     inkscape:connector-curvature="0"
     id="path318"
     d="M 0.528554,134.01694 V 0.6836092 H 133.86188 267.19521 V 134.01694 267.35027 H 133.86188 0.528554 Z"
     style="fill:#fdfdfd;stroke-width:1.33333325" />
  <path
     inkscape:connector-curvature="0"
     id="path316"
     d="m 18.4389,261.01694 c 0.483888,-3.48334 2.802013,-10.20318 5.151391,-14.93298 5.0013,-10.06869 9.950417,-13.2377 26.271595,-16.82216 14.84564,-3.2604 44.42032,-13.58457 46.338328,-16.17614 2.595475,-3.50698 4.121656,-0.73562 5.674266,10.30378 0.7705,5.47846 3.05592,15.24592 5.07871,21.70548 l 3.67779,11.74466 6.42327,-10.13975 c 3.5328,-5.57685 7.87025,-11.08783 9.63877,-12.2466 4.10923,-2.69248 3.11954,-3.88539 -8.5142,-10.26256 -5.00597,-2.74408 -9.84449,-6.17853 -10.75227,-7.63211 -0.90777,-1.45358 -2.16083,-6.70716 -2.78457,-11.67461 -1.07138,-8.5325 -1.65232,-9.67768 -10.510191,-20.71781 -5.156873,-6.42735 -10.696918,-14.94028 -12.311209,-18.91764 -2.375124,-5.85192 -3.529327,-7.23156 -6.049928,-7.23156 -2.583838,0 -4.01927,-1.87525 -8.420049,-11 -7.896332,-16.37256 -12.155384,-27.18701 -12.155384,-30.86458 0,-3.17814 2.480094,-6.7399 5.361963,-7.70052 0.903337,-0.30111 0.137562,-5.249 -2.132219,-13.776859 -4.506838,-16.932783 -3.914804,-25.252583 2.764628,-38.851033 9.017749,-18.358957 22.856237,-29.93827 44.672289,-37.379407 18.48563,-6.305176 33.56695,-7.962594 48.5456,-5.335099 14.11632,2.476229 26.83803,8.334873 32.77049,15.091574 l 4.21091,4.795958 4.13709,-3.82335 4.1371,-3.823349 -2.90059,5.076213 c -3.7286,6.525259 -3.67653,6.726852 1.0994,4.25712 4.84576,-2.505842 5.19328,-0.919196 0.71925,3.283927 l -3.28073,3.082098 5.1038,3.697175 c 8.03573,5.821056 11.4739,14.262062 11.37916,27.936799 -0.0693,9.995595 -2.74875,23.581632 -6.63986,33.666663 -0.62468,1.61906 -0.25377,2.33334 1.21166,2.33334 1.16154,0 3.12214,1.5418 4.35686,3.42623 2.10715,3.21592 2.1032,3.8759 -0.0644,10.75226 -1.27012,4.02932 -4.31641,11.17667 -6.76952,15.88299 -2.4531,4.70633 -5.16541,10.69384 -6.02737,13.30557 -1.15092,3.48733 -2.50854,4.93984 -5.11136,5.46857 -2.80308,0.56942 -4.42626,2.57866 -7.76265,9.60883 -2.32016,4.88889 -7.96872,13.35136 -12.55235,18.80551 -7.91872,9.42261 -8.37573,10.3525 -9.17413,18.66666 -0.46213,4.81252 -1.54324,10.0226 -2.40245,11.57795 -0.85922,1.55536 -6.38255,5.33573 -12.27407,8.40084 -5.89152,3.0651 -10.71185,6.02484 -10.71185,6.5772 0,0.55234 2.1468,3.07197 4.77068,5.59916 2.62386,2.52718 6.9441,8.10152 9.60052,12.38741 l 4.82985,7.79252 3.69272,-11.79252 c 2.03099,-6.48589 4.32312,-16.27489 5.09363,-21.75335 1.55261,-11.0394 3.0788,-13.81076 5.67426,-10.30378 1.91802,2.59157 31.49269,12.91574 46.33833,16.17614 16.32118,3.58446 21.2703,6.75347 26.2716,16.82216 2.34938,4.7298 4.6675,11.44964 5.15139,14.93298 l 0.8798,6.33333 h -47.59067 -47.59066 l 0.88404,-4.02504 c 0.70596,-3.21419 -0.13432,-5.76591 -4.17109,-12.66667 -2.78031,-4.75289 -5.42587,-8.64162 -5.879,-8.64162 -0.45314,0 -2.17108,1.43402 -3.81766,3.18672 -2.792,2.97194 -2.89752,3.70732 -1.56574,10.91154 2.17906,11.78763 2.56785,11.23507 -7.90532,11.23507 -5.13334,0 -9.32447,-0.45 -9.31363,-1 0.0108,-0.55 0.93041,-4.86376 2.0435,-9.58613 1.94793,-8.26431 1.9224,-8.68752 -0.68109,-11.291 -3.31006,-3.31007 -4.7003,-2.18672 -9.97841,8.06272 -2.47511,4.80636 -3.26781,7.89161 -2.65498,10.33333 l 0.8737,3.48108 H 65.188371 17.559103 Z m 126.93221,-81.09493 c 4.77193,-5.05974 5.78214,-7.65026 2.49077,-6.38724 -2.78869,1.07013 -2.51279,-1.75332 0.33333,-3.41103 3.24498,-1.89003 1.81247,-1.76389 -7.72925,0.68059 -4.55288,1.16638 -10.85055,1.9161 -13.99483,1.66602 -4.45693,-0.35446 -5.41191,-0.0872 -4.33313,1.21263 0.80461,0.96949 4.49618,1.66729 8.82047,1.66729 9.57356,0 7.60984,2.36271 -2.42992,2.92363 l -7.33334,0.40971 4.66667,2.99501 c 7.28916,4.67811 14.01135,4.07284 19.50923,-1.75661 z M 96.004537,122.57456 c -0.445125,-1.15998 -0.809319,-3.08855 -0.809319,-4.28572 0,-1.99645 -0.183701,-1.99296 -2.218796,0.0421 -1.832893,1.83289 -1.920448,2.57828 -0.503408,4.28571 2.234516,2.69243 4.570179,2.66456 3.531523,-0.0421 z M 175.00051,118.449 c -1.81563,-2.1877 -1.84023,-2.1646 -3.05104,2.86507 -0.94816,3.93869 -0.93672,3.94797 1.80773,1.46428 2.13663,-1.93363 2.41812,-2.91379 1.24331,-4.32935 z"
     style="fill:#e3c8ad;stroke-width:1.33333325" />
  <path
     inkscape:connector-curvature="0"
     id="path314"
     d="m 17.861887,266.08256 c 0,-4.11201 3.445805,-16.28749 6.102677,-21.56332 3.849383,-7.64384 10.067653,-11.5325 22.563989,-14.11068 13.84777,-2.85698 47.742625,-14.65738 49.669259,-17.29221 2.561905,-3.50361 3.977878,-0.8726 5.507758,10.23392 0.7576,5.5 3.12782,15.7 5.26715,22.66667 2.13933,6.96666 4.31224,14.61666 4.8287,17 l 0.93901,4.33333 H 65.301159 c -29.100029,0 -47.439272,-0.49008 -47.439272,-1.26771 z m 106.287653,-3.73229 c 0.43267,-2.75 1.55355,-7.20812 2.49085,-9.90692 1.6075,-4.62852 1.52028,-5.02743 -1.53716,-7.03075 -4.30439,-2.82033 -4.106,-4.13101 1.46911,-9.70612 l 4.71046,-4.71046 -2.98582,-2.1562 c -1.6422,-1.18592 -6.26796,-3.95622 -10.27947,-6.15622 -9.44238,-5.17841 -12.10598,-8.9854 -13.11293,-18.74188 -0.74948,-7.26169 -1.53494,-8.80005 -9.472107,-18.55139 -4.760176,-5.84819 -10.384576,-14.32938 -12.498665,-18.84708 -3.133425,-6.69598 -4.553503,-8.35596 -7.683959,-8.98206 -2.465269,-0.49305 -4.167638,-1.86172 -4.754835,-3.8228 -0.503074,-1.68013 -3.521715,-8.45478 -6.708092,-15.05478 -3.186376,-6.6 -6.563547,-14.91011 -7.504821,-18.4669 -1.68023,-6.34909 -1.643707,-6.52514 2.004768,-9.66343 l 3.716175,-3.19652 -2.658029,-9.669908 C 55.127303,82.342811 54.706991,76.654163 57.100646,67.310817 59.963582,56.135681 66.026354,45.851595 75.094608,36.788235 94.792856,17.100615 132.94307,7.6398994 162.11751,15.207778 c 12.89962,3.346173 16.51677,5.228621 23.53772,12.24957 l 5.63456,5.634562 4.18664,-3.870818 4.18664,-3.870817 -2.95478,5.168043 c -3.38133,5.914109 -3.04994,7.062983 1.37272,4.759027 l 3.1142,-1.622317 -3.09698,3.370135 -3.097,3.370134 6.70118,6.268176 c 8.06701,7.545748 10.07052,12.809207 9.90444,26.020134 -0.1056,8.396364 -3.49431,25.916773 -6.55592,33.895193 -0.52632,1.37157 -0.072,2.10481 1.30423,2.10481 1.16154,0 3.09478,1.50005 4.29608,3.33346 2.02726,3.094 2.02094,3.8363 -0.088,10.33333 -1.24967,3.84993 -4.61871,11.82095 -7.48676,17.71339 -2.86804,5.89244 -5.21463,11.34944 -5.21463,12.12668 0,1.96611 -4.48081,5.82527 -6.77165,5.83219 -1.04225,0.003 -4.149,4.39655 -6.90387,9.76311 -2.75486,5.36656 -8.60486,14.02945 -13,19.25086 -7.43957,8.83823 -7.99114,9.95462 -7.99114,16.17416 0,11.41471 -2.99119,14.96055 -18.83662,22.32943 -3.39348,1.57812 -6.573,3.52145 -7.06561,4.31852 -0.49261,0.79706 1.28141,3.62626 3.94227,6.28713 l 4.83793,4.83793 -3.59317,3.75047 c -3.52307,3.67728 -3.56416,3.91713 -2.10566,12.29245 0.81814,4.6981 1.48752,8.94284 1.48752,9.43276 3e-5,0.48994 -4.16225,0.89079 -9.24948,0.89079 h -9.2495 z m 21.17901,-82.2 c 4.59344,-4.59344 5.762,-7.46666 3.03674,-7.46666 -0.97377,0 -0.85733,-0.77946 0.33334,-2.23122 1.64726,-2.00852 1.49721,-2.12941 -1.50342,-1.21124 -1.83333,0.56099 -8.53718,1.33623 -14.89745,1.72275 -9.09822,0.55289 -11.41341,1.09549 -10.85735,2.54456 0.38873,1.013 1.99258,1.851 3.56412,1.86223 1.57154,0.0107 3.75735,0.63349 4.85735,1.3828 1.44326,0.98314 0.60815,1.12173 -3,0.49786 -6.00719,-1.03866 -6.52173,0.74116 -1.33333,4.61214 2.34888,1.75246 5.75116,2.75082 9.46666,2.77788 4.8476,0.0353 6.5444,-0.70216 10.33334,-4.4911 z M 96.329845,119.48513 c -0.301329,-5.10689 -0.361013,-5.16292 -3.387347,-3.17999 -3.672577,2.40636 -3.728432,2.78599 -0.873962,5.94015 3.377901,3.73254 4.597784,2.94238 4.261309,-2.76016 z m 22.088575,4.04334 c 0.39265,-0.63533 -0.47194,-2.22832 -1.92131,-3.53998 -2.56188,-2.31847 -2.63523,-2.28631 -2.63523,1.15513 0,3.42523 2.95703,4.97291 4.55654,2.38485 z m 35.44346,-2.1782 c 0,-3.63947 -1.24784,-4.21882 -3.73333,-1.73333 -2.45359,2.45358 -1.90347,5.06667 1.06666,5.06667 1.95556,0 2.66667,-0.88889 2.66667,-3.33334 z m 21.42027,0.50422 c 1.23848,-2.3141 1.05212,-3.29109 -1.02376,-5.36696 -2.49491,-2.49492 -2.54322,-2.44706 -2.85452,2.82911 -0.34442,5.83711 1.47529,7.02788 3.87828,2.53785 z m -62.7536,-4.36156 c 0,-0.28821 -0.9,-0.86938 -2,-1.29149 -1.1,-0.42211 -2,-0.1863 -2,0.52401 0,0.71032 0.9,1.29149 2,1.29149 1.1,0 2,-0.23581 2,-0.52401 z m 57.33333,-0.80932 c 0,-0.73334 -0.9,-1.33334 -2,-1.33334 -1.1,0 -2,0.6 -2,1.33334 0,0.73333 0.9,1.33333 2,1.33333 1.1,0 2,-0.6 2,-1.33333 z M 62.202919,79.683607 C 61.646862,67.359042 61.819522,66.285979 65.526083,59.0305 c 2.150333,-4.20921 3.135589,-7.010656 2.18946,-6.225439 -3.602115,2.989489 -7.497322,13.426156 -7.571201,20.285974 -0.0705,6.546428 1.436381,19.592572 2.263024,19.592572 0.210146,0 0.118146,-5.85 -0.204447,-13 z M 203.69057,74.01694 c 0.0387,-9.024381 -0.57987,-12.750897 -3.03619,-18.291352 -1.69662,-3.826911 -3.88777,-7.624454 -4.86922,-8.438985 -0.98145,-0.814531 -0.16569,1.716577 1.8128,5.624686 3.29721,6.512987 3.59725,8.405996 3.59725,22.695893 0,10.694722 0.38416,14.672203 1.22339,12.666666 0.67285,-1.607966 1.24525,-8.023574 1.27197,-14.256908 z M 109.86188,24.224876 c 10.30285,-3.724095 12.78813,-4.094506 27.33333,-4.073823 13.05136,0.01856 17.47432,0.557387 24,2.92381 5.45618,1.978584 7.1581,2.257784 5.35231,0.878047 -4.81595,-3.679707 -19.2412,-7.269301 -29.21263,-7.269301 -11.90101,0 -22.70832,2.712746 -34.80634,8.736747 -10.093946,5.02611 -9.702294,4.962262 7.33333,-1.19548 z m 46.06047,238.792064 c 0.51645,-2.38334 2.68936,-10.03334 4.82869,-17 2.13933,-6.96667 4.50955,-17.16667 5.26715,-22.66667 1.52988,-11.10652 2.94586,-13.73753 5.50777,-10.23392 1.92663,2.63483 35.82148,14.43523 49.66925,17.29221 12.51163,2.58132 18.70803,6.46303 22.61055,14.16428 2.39741,4.73108 6.05612,18.23687 6.05612,22.35564 0,0.23199 -21.34767,0.42179 -47.43928,0.42179 h -47.43927 z"
     style="fill:#dab997;stroke-width:1.33333325" />
  <path
     inkscape:connector-curvature="0"
     id="path312"
     d="m 17.861887,266.08256 c 0,-4.11201 3.445805,-16.28749 6.102677,-21.56332 3.849383,-7.64384 10.067653,-11.5325 22.563989,-14.11068 13.84777,-2.85698 47.742625,-14.65738 49.669259,-17.29221 2.561905,-3.50361 3.977878,-0.8726 5.507758,10.23392 0.7576,5.5 3.12782,15.7 5.26715,22.66667 2.13933,6.96666 4.31224,14.61666 4.8287,17 l 0.93901,4.33333 H 65.301159 c -29.100029,0 -47.439272,-0.49008 -47.439272,-1.26771 z m 106.287653,-3.73229 c 0.43267,-2.75 1.55355,-7.20812 2.49085,-9.90692 1.6075,-4.62852 1.52028,-5.02743 -1.53716,-7.03075 -4.30439,-2.82033 -4.106,-4.13101 1.46911,-9.70612 l 4.71046,-4.71046 -2.98582,-2.1562 c -1.6422,-1.18592 -6.26796,-3.95622 -10.27947,-6.15622 -9.44238,-5.17841 -12.10598,-8.9854 -13.11293,-18.74188 -0.74948,-7.26169 -1.53494,-8.80005 -9.472107,-18.55139 -4.760176,-5.84819 -10.384576,-14.32938 -12.498665,-18.84708 -3.133425,-6.69598 -4.553503,-8.35596 -7.683959,-8.98206 -2.465269,-0.49305 -4.167638,-1.86172 -4.754835,-3.8228 -0.503074,-1.68013 -3.521715,-8.45478 -6.708092,-15.05478 -3.186376,-6.6 -6.563547,-14.91011 -7.504821,-18.4669 -1.677972,-6.34056 -1.639466,-6.52879 1.970852,-9.63425 l 3.682261,-3.16735 -2.887232,-11.032419 C 53.720902,76.027366 55.642222,63.839235 66.84652,46.911709 76.413583,32.45773 88.022052,24.455874 109.86188,17.260707 c 10.06618,-3.316317 13.34587,-3.743659 29.33333,-3.822108 20.63002,-0.101229 33.49726,2.906694 40.74002,9.523628 2.24033,2.04676 3.14033,3.041288 2,2.210064 C 157.83151,7.6024182 101.96475,14.463555 77.967428,37.940839 70.404431,45.33994 62.579892,57.960792 60.322082,66.40249 c -2.196004,8.210616 -0.06796,23.005839 5.410197,37.61445 l 3.999949,10.66667 0.06483,-10.55556 c 0.03565,-5.805554 0.36578,-10.254602 0.733611,-9.886771 0.36783,0.36783 1.663104,6.017831 2.878386,12.555561 l 2.209602,11.88677 1.646916,-8.05084 c 0.905804,-4.42796 3.429243,-11.981675 5.607643,-16.786033 L 86.833944,85.111542 76.849267,82.174 c -11.677825,-3.435673 -12.360553,-5.182958 -0.843792,-2.15949 12.868873,3.378433 30.353255,4.698265 42.379965,3.199108 20.78173,-2.590492 43.56644,-8.393938 53.8662,-13.720152 3.04684,-1.575583 4.39173,-3.399404 5.03493,-6.827905 1.57911,-8.417405 2.58374,-5.954297 2.14978,5.270757 -0.39919,10.325657 -0.0957,11.782934 4.90214,23.543785 2.93022,6.89526 5.75339,14.866297 6.27371,17.713417 1.33628,7.31186 2.66217,4.03594 4.79344,-11.843247 l 1.78957,-13.333333 0.66667,12 0.66667,12 3.66666,-14.292745 c 5.64675,-22.011116 4.91528,-39.740403 -1.9633,-47.587424 -2.41002,-2.749307 -2.11984,-2.637846 1.42359,0.546837 2.44783,2.2 5.69951,6.4 7.22595,9.333333 4.62315,8.884209 3.16849,28.154435 -3.79953,50.333329 -0.48114,1.53142 -0.0253,2.33334 1.32604,2.33334 1.1325,0 3.04198,1.50005 4.24328,3.33346 2.02726,3.094 2.02094,3.8363 -0.088,10.33333 -1.24967,3.84993 -4.61871,11.82095 -7.48676,17.71339 -2.86804,5.89244 -5.21463,11.34944 -5.21463,12.12668 0,1.96611 -4.48081,5.82527 -6.77165,5.83219 -1.04225,0.003 -4.149,4.39655 -6.90387,9.76311 -2.75486,5.36656 -8.60486,14.02945 -13,19.25086 -7.43957,8.83823 -7.99114,9.95462 -7.99114,16.17416 0,11.41471 -2.99119,14.96055 -18.83662,22.32943 -3.39348,1.57812 -6.573,3.52145 -7.06561,4.31852 -0.49261,0.79706 1.28141,3.62626 3.94227,6.28713 l 4.83793,4.83793 -3.59317,3.75047 c -3.52307,3.67728 -3.56416,3.91713 -2.10566,12.29245 0.81814,4.6981 1.48752,8.94284 1.48752,9.43276 3e-5,0.48994 -4.16225,0.89079 -9.24948,0.89079 h -9.2495 z m 21.17901,-82.2 c 4.59344,-4.59344 5.762,-7.46666 3.03674,-7.46666 -0.97377,0 -0.85733,-0.77946 0.33334,-2.23122 1.64726,-2.00852 1.49721,-2.12941 -1.50342,-1.21124 -1.83333,0.56099 -8.53718,1.33623 -14.89745,1.72275 -9.09822,0.55289 -11.41341,1.09549 -10.85735,2.54456 0.38873,1.013 1.99258,1.851 3.56412,1.86223 1.57154,0.0107 3.75735,0.63349 4.85735,1.3828 1.44326,0.98314 0.60815,1.12173 -3,0.49786 -6.00719,-1.03866 -6.52173,0.74116 -1.33333,4.61214 2.34888,1.75246 5.75116,2.75082 9.46666,2.77788 4.8476,0.0353 6.5444,-0.70216 10.33334,-4.4911 z M 96.329845,119.48513 c -0.301329,-5.10689 -0.361013,-5.16292 -3.387347,-3.17999 -3.672577,2.40636 -3.728432,2.78599 -0.873962,5.94015 3.377901,3.73254 4.597784,2.94238 4.261309,-2.76016 z m 22.088575,4.04334 c 0.39265,-0.63533 -0.47194,-2.22832 -1.92131,-3.53998 -2.56188,-2.31847 -2.63523,-2.28631 -2.63523,1.15513 0,3.42523 2.95703,4.97291 4.55654,2.38485 z m 35.44346,-2.1782 c 0,-3.63947 -1.24784,-4.21882 -3.73333,-1.73333 -2.45359,2.45358 -1.90347,5.06667 1.06666,5.06667 1.95556,0 2.66667,-0.88889 2.66667,-3.33334 z m 21.42027,0.50422 c 1.23848,-2.3141 1.05212,-3.29109 -1.02376,-5.36696 -2.49491,-2.49492 -2.54322,-2.44706 -2.85452,2.82911 -0.34442,5.83711 1.47529,7.02788 3.87828,2.53785 z m -62.7536,-4.36156 c 0,-0.28821 -0.9,-0.86938 -2,-1.29149 -1.1,-0.42211 -2,-0.1863 -2,0.52401 0,0.71032 0.9,1.29149 2,1.29149 1.1,0 2,-0.23581 2,-0.52401 z m 57.33333,-0.80932 c 0,-0.73334 -0.9,-1.33334 -2,-1.33334 -1.1,0 -2,0.6 -2,1.33334 0,0.73333 0.9,1.33333 2,1.33333 1.1,0 2,-0.6 2,-1.33333 z m -60.39772,-15.33334 c 9.07076,0 13.15679,-0.44419 12.26507,-1.33333 -2.22634,-2.219901 -22.589909,-1.42734 -27.867345,1.08461 -2.566667,1.22168 -3.166667,1.77742 -1.333333,1.23498 1.833333,-0.54244 9.454348,-0.98626 16.935608,-0.98626 z m 64.39772,-0.34374 c -5.43169,-2.474778 -24.70289,-3.092699 -28.38081,-0.91002 -1.75875,1.04374 0.67989,1.26944 9.33333,0.86382 6.44279,-0.302 13.81415,0.0581 16.38081,0.80018 6.85707,1.98257 7.97756,1.66576 2.66667,-0.75398 z m -17.93953,162.01041 c 0.51645,-2.38334 2.68936,-10.03334 4.82869,-17 2.13933,-6.96667 4.50955,-17.16667 5.26715,-22.66667 1.52988,-11.10652 2.94586,-13.73753 5.50777,-10.23392 1.92663,2.63483 35.82148,14.43523 49.66925,17.29221 12.51163,2.58132 18.70803,6.46303 22.61055,14.16428 2.39741,4.73108 6.05612,18.23687 6.05612,22.35564 0,0.23199 -21.34767,0.42179 -47.43928,0.42179 H 154.98333 Z M 187.30048,85.239163 c 0.064,-1.553257 0.37992,-1.8692 0.80555,-0.805556 0.38516,0.9625 0.3378,2.1125 -0.1052,2.555556 -0.44307,0.443054 -0.75819,-0.344445 -0.7003,-1.75 z m -73.4386,-8.567609 c 16.91249,-0.96595 26.81005,-2.669019 42,-7.22692 1.46667,-0.440088 0.67665,0.126693 -1.75557,1.259508 -9.95395,4.636076 -19.68508,6.276829 -39.57776,6.67316 L 94.528552,77.77577 Z m 71.00291,-4.654613 c 0.0148,-2.933334 0.28785,-3.976338 0.60677,-2.317788 0.31892,1.65855 0.30681,4.05855 -0.0269,5.333333 -0.3337,1.274784 -0.59464,-0.08221 -0.57984,-3.015545 z m 14.54094,-2 c 0,-1.833334 0.30264,-2.583334 0.67252,-1.666667 0.36988,0.916667 0.36988,2.416667 0,3.333333 -0.36988,0.916667 -0.67252,0.166667 -0.67252,-1.666666 z m -67.19497,-4.943015 c 1.65855,-0.318924 4.05855,-0.306816 5.33333,0.02691 1.27479,0.333722 -0.0823,0.594661 -3.01554,0.579862 -2.93334,-0.0148 -3.97634,-0.287846 -2.31779,-0.606769 z m 9.31779,-1.27336 c 0.91666,-0.369883 2.41666,-0.369883 3.33333,0 0.91667,0.369884 0.16667,0.672515 -1.66667,0.672515 -1.83333,0 -2.58333,-0.302631 -1.66666,-0.672515 z M 95.195218,60.016941 c 1.833334,-1.048028 4.233334,-1.903281 5.333332,-1.900564 1.1,0.0027 -0.0189,0.881457 -2.486412,1.952753 -5.677794,2.465059 -7.201521,2.437125 -2.84692,-0.05219 z m 10.157252,-3.309747 c 1.55315,-0.627393 5.75315,-1.47288 9.33333,-1.878858 6.3122,-0.715779 6.26704,-0.68042 -1.49059,1.167052 -8.97714,2.1379 -12.06747,2.418377 -7.84274,0.711806 z M 122.86188,53.1339 c 0.91667,-0.369883 2.41667,-0.369883 3.33333,0 0.91667,0.369884 0.16667,0.672514 -1.66666,0.672514 -1.83334,0 -2.58334,-0.30263 -1.66667,-0.672514 z M 72.528552,49.513534 c 0,-0.276874 1.05,-1.326874 2.333333,-2.333333 2.114742,-1.658494 2.161902,-1.611334 0.503407,0.503407 -1.741825,2.220997 -2.83674,2.927305 -2.83674,1.829926 z m 93.333328,-7.496593 c -1.20172,-0.776613 -1.36617,-1.300648 -0.41203,-1.312916 0.87339,-0.0112 1.9588,0.579583 2.41203,1.312916 1.02307,1.655367 0.56149,1.655367 -2,0 z m -9.58333,-3.577485 c 0.96249,-0.385161 2.11249,-0.337792 2.55556,0.105267 0.44305,0.443056 -0.34446,0.758188 -1.75,0.700293 -1.55327,-0.06397 -1.8692,-0.379921 -0.80556,-0.805556 z m -50.77223,-3.254632 c 0.90445,-0.911224 1.98033,-1.320894 2.39084,-0.910379 0.41052,0.410516 -0.32948,1.156064 -1.64444,1.656772 -1.90027,0.72358 -2.05342,0.570428 -0.7464,-0.746393 z m 61.02223,-3.946554 c -3.66667,-2.104138 -6.19276,-3.839719 -5.61355,-3.85685 1.71819,-0.05081 11.36232,5.150346 12.26844,6.616468 1.05031,1.699431 1.28512,1.796803 -6.65489,-2.759618 z m 25.63041,3.259354 c -0.41315,-0.668472 0.701,-2.613068 2.47588,-4.321322 3.79111,-3.64882 4.23188,-2.209955 0.72151,2.355349 -1.34543,1.749757 -2.78426,2.634444 -3.19739,1.965973 z m -78.96375,-2.528836 c 2.2,-1.007362 5.2,-1.818494 6.66667,-1.802513 1.46667,0.01599 -0.0333,0.879809 -3.33333,1.91962 -7.40275,2.332561 -8.59197,2.290782 -3.33334,-0.117107 z m 67.16326,-1.618513 c -1.6585,-2.114741 -1.61134,-2.161901 0.50341,-0.503407 2.221,1.741826 2.92731,2.83674 1.82992,2.83674 -0.27687,0 -1.32687,-1.05 -2.33333,-2.333333 z m -55.47121,-1.257321 c 1.29729,-0.338058 3.09729,-0.315826 4,0.0494 0.90271,0.365236 -0.15871,0.641829 -2.35871,0.614656 -2.2,-0.02717 -2.93858,-0.325998 -1.64129,-0.664056 z m 22.05795,-5.320164 c 0.9625,-0.385162 2.1125,-0.337792 2.55556,0.105266 0.44306,0.443056 -0.34445,0.758188 -1.75,0.700294 -1.55326,-0.06397 -1.8692,-0.379922 -0.80556,-0.805556 z"
     style="fill:#aca4a1;stroke-width:1.33333325" />
  <path
     inkscape:connector-curvature="0"
     id="path310"
     d="m 18.580414,262.35027 c 3.629357,-21.61976 10.12657,-28.34333 31.948139,-33.06119 15.321038,-3.31242 42.171832,-12.48001 45.540628,-15.54881 2.753509,-2.50829 2.904005,-2.51545 3.59072,-0.17068 0.394219,1.34604 1.105839,5.44735 1.581399,9.11401 0.47556,3.66667 3.20974,14.97182 6.07595,25.12255 2.86621,10.15075 5.2113,18.70075 5.2113,19 0,0.29927 -21.327186,0.54412 -47.393748,0.54412 H 17.741052 Z M 124.7053,261.01694 c 0.64119,-3.48334 1.72493,-7.96156 2.4083,-9.9516 1.07219,-3.12235 0.75175,-3.97826 -2.33795,-6.24468 l -3.58044,-2.6264 5.33334,-5.49299 5.33333,-5.49299 -3.33333,-2.55694 c -1.83334,-1.40631 -6.70396,-4.36724 -10.82361,-6.57984 -4.11964,-2.21259 -8.08304,-4.78003 -8.80756,-5.7054 -1.63711,-2.09099 -4.36883,-13.0517 -4.36883,-17.52945 0,-2.183 -2.77408,-6.46418 -8.041026,-12.40958 -4.422567,-4.99224 -10.286059,-13.6223 -13.029983,-19.17792 -3.081532,-6.23916 -5.644202,-9.88269 -6.70279,-9.52984 -2.001524,0.66718 -6.892865,-3.38508 -6.892865,-5.71044 0,-0.87712 -1.564408,-4.53412 -3.476462,-8.12668 -4.351781,-8.17656 -11.190205,-25.26348 -11.190205,-27.96056 0,-1.11425 1.50463,-3.53053 3.34362,-5.36952 l 3.34362,-3.34362 -2.860854,-10.92911 C 53.722037,76.03385 55.658915,63.814014 66.84652,46.911709 76.413583,32.45773 88.022052,24.455874 109.86188,17.260707 c 10.06618,-3.316317 13.34587,-3.743659 29.33333,-3.822108 20.63002,-0.101229 33.49726,2.906694 40.74002,9.523628 2.24033,2.04676 3.14033,3.041288 2,2.210064 C 157.83151,7.6024182 101.96475,14.463555 77.967428,37.940839 70.404431,45.33994 62.579892,57.960792 60.322082,66.40249 c -2.196004,8.210616 -0.06796,23.005839 5.410197,37.61445 l 3.999949,10.66667 0.06483,-10.55556 c 0.03565,-5.805554 0.36578,-10.254602 0.733611,-9.886771 0.36783,0.36783 1.663104,6.017831 2.878386,12.555561 l 2.209602,11.88677 1.646916,-8.05084 c 0.905804,-4.42796 3.429243,-11.981675 5.607643,-16.786033 L 86.833944,85.111542 76.849267,82.174 c -11.677825,-3.435673 -12.360553,-5.182958 -0.843792,-2.15949 12.868873,3.378433 30.353255,4.698265 42.379965,3.199108 20.78173,-2.590492 43.56644,-8.393938 53.8662,-13.720152 3.04684,-1.575583 4.39173,-3.399404 5.03493,-6.827905 1.57911,-8.417405 2.58374,-5.954297 2.14978,5.270757 -0.39919,10.325657 -0.0957,11.782934 4.90214,23.543785 2.93022,6.89526 5.75339,14.866297 6.27371,17.713417 1.33628,7.31186 2.66217,4.03594 4.79344,-11.843247 l 1.78957,-13.333333 0.66667,12 0.66667,12 3.66666,-14.292745 c 5.64675,-22.011116 4.91528,-39.740403 -1.9633,-47.587424 -2.41002,-2.749307 -2.11984,-2.637846 1.42359,0.546837 2.44783,2.2 5.69951,6.4 7.22595,9.333333 4.60373,8.846905 3.16865,28.13245 -3.72884,50.110589 -0.42247,1.34614 0.55188,2.66383 2.69012,3.63808 2.65445,1.20945 3.35248,2.50217 3.35248,6.20872 0,4.97271 -5.58247,20.4757 -9.37767,26.04261 -1.24986,1.83333 -2.71366,4.83333 -3.2529,6.66667 -1.60137,5.44448 -4.60027,9.33333 -7.1974,9.33333 -1.68828,0 -3.90905,2.95933 -7.25416,9.66667 -2.65155,5.31666 -8.37252,13.74221 -12.71328,18.72342 -7.41987,8.51463 -7.92676,9.5333 -8.46815,17.01791 -0.73581,10.1725 -3.46138,13.82908 -14.93841,20.04105 -12.62123,6.83127 -12.77368,7.07347 -7.72876,12.27849 5.01835,5.17763 5.19537,6.34967 1.46851,9.72243 -2.40171,2.17352 -2.67296,3.47059 -1.92544,9.20665 0.47854,3.67219 1.2016,8.02671 1.60676,9.67671 0.71085,2.89492 0.41069,3 -8.56908,3 h -9.30574 z m 21.03147,-80.92665 c 5.4964,-5.48755 6.99335,-13.41406 2.24542,-11.88974 -6.70838,2.15372 -12.63916,3.08826 -19.78698,3.11791 -6.97856,0.0289 -9.58474,1.35567 -6.4585,3.28779 0.66448,0.41068 0.89497,1.94429 0.51219,3.40805 -0.55461,2.12087 0.48628,3.20856 5.12518,5.35568 7.47584,3.46017 12.51309,2.56049 18.36269,-3.27969 z M 96.737234,118.68361 c 0.26246,-3.3 0.127467,-6 -0.299989,-6 -0.427455,0 -2.18046,1.49371 -3.895568,3.31936 -3.027513,3.22264 -3.047691,3.39747 -0.692436,6 3.543631,3.91567 4.356469,3.36368 4.887993,-3.31936 z m 22.449196,5 c -0.005,-0.55 -1.13279,-2.70483 -2.50657,-4.7885 l -2.49778,-3.78849 -0.55903,4.78849 c -0.49843,4.26941 -0.22672,4.7885 2.50657,4.7885 1.68607,0 3.06164,-0.45 3.05681,-1 z m 34.90416,-3.8753 -0.56918,-4.87529 -2.46678,3.20863 c -3.33034,4.33186 -3.14807,6.54196 0.53952,6.54196 2.74341,0 3.00578,-0.51238 2.49644,-4.8753 z m 5.10462,4.28732 c 0,-0.32339 -0.6,-0.9588 -1.33333,-1.41202 -0.73333,-0.45323 -1.33333,-0.18864 -1.33333,0.58797 0,0.77662 0.6,1.41203 1.33333,1.41203 0.73333,0 1.33333,-0.26459 1.33333,-0.58798 z m 16.67931,-2.09266 c 2.35525,-2.60253 2.33508,-2.77736 -0.69243,-6 -1.89588,-2.01807 -4.5954,-3.31936 -6.88596,-3.31936 -4.21154,0 -5.02122,2.63305 -1.66596,5.41767 1.74172,1.4455 2.30904,1.41638 3.31291,-0.17008 0.87172,-1.37761 1.21703,-0.69944 1.23172,2.41907 0.0236,4.9954 1.27603,5.43585 4.69972,1.6527 z m -63.34597,-6.06472 c 0,-1.05672 -1.2,-1.92131 -2.66667,-1.92131 -2.99972,0 -3.41974,1.38026 -1.11989,3.68011 1.838,1.838 3.78656,0.93292 3.78656,-1.7588 z m -3.06439,-14.58798 c 9.07076,0 13.15679,-0.44419 12.26507,-1.33333 -2.22634,-2.219901 -22.589909,-1.42734 -27.867345,1.08461 -2.566667,1.22168 -3.166667,1.77742 -1.333333,1.23498 1.833333,-0.54244 9.454348,-0.98626 16.935608,-0.98626 z m 64.39772,-0.34374 c -5.43169,-2.474778 -24.70289,-3.092699 -28.38081,-0.91002 -1.75875,1.04374 0.67989,1.26944 9.33333,0.86382 6.44279,-0.302 13.81415,0.0581 16.38081,0.80018 6.85707,1.98257 7.97756,1.66576 2.66667,-0.75398 z m -18.66667,165.79962 c 0,-0.29925 2.34508,-8.84925 5.2113,-19 2.86621,-10.15073 5.6004,-21.45588 6.07594,-25.12255 0.47556,-3.66666 1.1872,-7.76797 1.58142,-9.11401 0.6867,-2.34477 0.83721,-2.33761 3.59072,0.17068 3.36878,3.0688 30.21958,12.23639 45.54062,15.54881 21.82157,4.71786 28.31879,11.44143 31.94815,33.06119 l 0.83936,5 h -47.39376 c -26.06656,0 -47.39375,-0.24485 -47.39375,-0.54412 z M 187.30048,85.239163 c 0.064,-1.553257 0.37992,-1.8692 0.80555,-0.805556 0.38516,0.9625 0.3378,2.1125 -0.1052,2.555556 -0.44307,0.443054 -0.75819,-0.344445 -0.7003,-1.75 z m -73.4386,-8.567609 c 16.91249,-0.96595 26.81005,-2.669019 42,-7.22692 1.46667,-0.440088 0.67665,0.126693 -1.75557,1.259508 -9.95395,4.636076 -19.68508,6.276829 -39.57776,6.67316 L 94.528552,77.77577 Z m 71.00291,-4.654613 c 0.0148,-2.933334 0.28785,-3.976338 0.60677,-2.317788 0.31892,1.65855 0.30681,4.05855 -0.0269,5.333333 -0.3337,1.274784 -0.59464,-0.08221 -0.57984,-3.015545 z m 14.54094,-2 c 0,-1.833334 0.30264,-2.583334 0.67252,-1.666667 0.36988,0.916667 0.36988,2.416667 0,3.333333 -0.36988,0.916667 -0.67252,0.166667 -0.67252,-1.666666 z m -67.19497,-4.943015 c 1.65855,-0.318924 4.05855,-0.306816 5.33333,0.02691 1.27479,0.333722 -0.0823,0.594661 -3.01554,0.579862 -2.93334,-0.0148 -3.97634,-0.287846 -2.31779,-0.606769 z m 9.31779,-1.27336 c 0.91666,-0.369883 2.41666,-0.369883 3.33333,0 0.91667,0.369884 0.16667,0.672515 -1.66667,0.672515 -1.83333,0 -2.58333,-0.302631 -1.66666,-0.672515 z M 95.195218,60.016941 c 1.833334,-1.048028 4.233334,-1.903281 5.333332,-1.900564 1.1,0.0027 -0.0189,0.881457 -2.486412,1.952753 -5.677794,2.465059 -7.201521,2.437125 -2.84692,-0.05219 z m 10.157252,-3.309747 c 1.55315,-0.627393 5.75315,-1.47288 9.33333,-1.878858 6.3122,-0.715779 6.26704,-0.68042 -1.49059,1.167052 -8.97714,2.1379 -12.06747,2.418377 -7.84274,0.711806 z M 122.86188,53.1339 c 0.91667,-0.369883 2.41667,-0.369883 3.33333,0 0.91667,0.369884 0.16667,0.672514 -1.66666,0.672514 -1.83334,0 -2.58334,-0.30263 -1.66667,-0.672514 z M 72.528552,49.513534 c 0,-0.276874 1.05,-1.326874 2.333333,-2.333333 2.114742,-1.658494 2.161902,-1.611334 0.503407,0.503407 -1.741825,2.220997 -2.83674,2.927305 -2.83674,1.829926 z m 93.333328,-7.496593 c -1.20172,-0.776613 -1.36617,-1.300648 -0.41203,-1.312916 0.87339,-0.0112 1.9588,0.579583 2.41203,1.312916 1.02307,1.655367 0.56149,1.655367 -2,0 z m -9.58333,-3.577485 c 0.96249,-0.385161 2.11249,-0.337792 2.55556,0.105267 0.44305,0.443056 -0.34446,0.758188 -1.75,0.700293 -1.55327,-0.06397 -1.8692,-0.379921 -0.80556,-0.805556 z m -50.77223,-3.254632 c 0.90445,-0.911224 1.98033,-1.320894 2.39084,-0.910379 0.41052,0.410516 -0.32948,1.156064 -1.64444,1.656772 -1.90027,0.72358 -2.05342,0.570428 -0.7464,-0.746393 z m 61.02223,-3.946554 c -3.66667,-2.104138 -6.19276,-3.839719 -5.61355,-3.85685 1.71819,-0.05081 11.36232,5.150346 12.26844,6.616468 1.05031,1.699431 1.28512,1.796803 -6.65489,-2.759618 z m 25.63041,3.259354 c -0.41315,-0.668472 0.701,-2.613068 2.47588,-4.321322 3.79111,-3.64882 4.23188,-2.209955 0.72151,2.355349 -1.34543,1.749757 -2.78426,2.634444 -3.19739,1.965973 z m -78.96375,-2.528836 c 2.2,-1.007362 5.2,-1.818494 6.66667,-1.802513 1.46667,0.01599 -0.0333,0.879809 -3.33333,1.91962 -7.40275,2.332561 -8.59197,2.290782 -3.33334,-0.117107 z m 67.16326,-1.618513 c -1.6585,-2.114741 -1.61134,-2.161901 0.50341,-0.503407 2.221,1.741826 2.92731,2.83674 1.82992,2.83674 -0.27687,0 -1.32687,-1.05 -2.33333,-2.333333 z m -55.47121,-1.257321 c 1.29729,-0.338058 3.09729,-0.315826 4,0.0494 0.90271,0.365236 -0.15871,0.641829 -2.35871,0.614656 -2.2,-0.02717 -2.93858,-0.325998 -1.64129,-0.664056 z m 22.05795,-5.320164 c 0.9625,-0.385162 2.1125,-0.337792 2.55556,0.105266 0.44306,0.443056 -0.34445,0.758188 -1.75,0.700294 -1.55326,-0.06397 -1.8692,-0.379922 -0.80556,-0.805556 z"
     style="fill:#caa178;stroke-width:1.33333325" />
  <path
     inkscape:connector-curvature="0"
     id="path308"
     d="m 18.580414,262.35027 c 3.629357,-21.61976 10.12657,-28.34333 31.948139,-33.06119 15.321038,-3.31242 42.171832,-12.48001 45.540628,-15.54881 2.753509,-2.50829 2.904005,-2.51545 3.59072,-0.17068 0.394219,1.34604 1.105839,5.44735 1.581399,9.11401 0.47556,3.66667 3.20974,14.97182 6.07595,25.12255 2.86621,10.15075 5.2113,18.70075 5.2113,19 0,0.29927 -21.327186,0.54412 -47.393748,0.54412 H 17.741052 Z M 124.7053,261.01694 c 0.64119,-3.48334 1.72493,-7.96156 2.4083,-9.9516 1.07219,-3.12235 0.75175,-3.97826 -2.33795,-6.24468 l -3.58044,-2.6264 5.33334,-5.49299 5.33333,-5.49299 -3.33333,-2.55694 c -1.83334,-1.40631 -6.70396,-4.36724 -10.82361,-6.57984 -4.11964,-2.21259 -8.08304,-4.78003 -8.80756,-5.7054 -1.66888,-2.13158 -4.36883,-13.08494 -4.36883,-17.72384 0,-2.44795 -2.47071,-6.24492 -8.074977,-12.40957 -4.647828,-5.11258 -10.177962,-13.1695 -13.029982,-18.98354 -3.064571,-6.24733 -5.608866,-9.88316 -6.66884,-9.52984 -1.874232,0.62475 -6.892865,-3.32504 -6.892865,-5.42486 0,-0.72004 -2.343475,-6.17706 -5.207722,-12.12668 -2.864246,-5.94962 -6.27983,-13.89641 -7.590185,-17.65953 -2.255277,-6.47676 -2.260341,-7.02841 -0.09488,-10.33333 1.258179,-1.92022 3.115443,-3.4913 4.127259,-3.4913 1.466252,0 1.265372,-1.82681 -0.989659,-9.000003 C 58.074118,93.218017 57.265809,87.116658 57.236298,78.01694 57.199074,66.539003 57.584847,64.536933 61.346944,56.683608 67.07538,44.72558 74.286201,36.268185 84.714028,29.27693 106.35417,14.768458 136.88415,9.3197931 162.95388,15.313513 c 11.01763,2.533073 7.37164,2.897098 -5.17668,0.516854 -19.27329,-3.655876 -41.95254,-0.12452 -62.419522,9.719283 -18.887457,9.084106 -34.58391,29.368791 -36.867233,47.643897 -0.914798,7.321789 2.00659,22.464752 7.616407,39.479513 3.298056,10.00312 8.984285,23.24005 9.669519,22.50961 0.2575,-0.27448 1.511573,-7.99906 2.786829,-17.16573 1.275256,-9.16667 3.711625,-20.41496 5.414153,-24.996208 l 3.095507,-8.32954 -5.989895,-1.508273 c -9.559165,-2.407025 -6.155306,-2.547303 6.824516,-0.281247 7.876488,1.3751 16.047869,1.848614 23.954399,1.3881 15.27949,-0.889946 40.82617,-6.550796 55,-12.187365 l 11,-4.374418 v 3.042313 c 0,7.811405 14.43045,61.424618 16.04896,59.626458 1.08347,-1.20372 9.41649,-27.75808 12.52278,-39.905613 2.7268,-10.663507 2.73908,-28.35112 0.0241,-34.850365 -1.13884,-2.726445 -3.68884,-6.757174 -5.66662,-8.957174 l -3.59593,-4 4.50147,4 c 10.23248,9.092585 12.19572,24.358771 6.18149,48.067549 -1.82437,7.191883 -3.17437,13.187543 -3,13.323693 0.17437,0.13615 1.66704,0.94993 3.31704,1.8084 2.23088,1.16069 3,2.74163 3,6.16657 0,4.89778 -5.59603,20.41019 -9.36752,25.96712 -1.24428,1.83333 -2.9763,5.53533 -3.84894,8.22668 -1.7608,5.43057 -4.48423,8.31753 -7.04206,7.46492 -1.01797,-0.33932 -3.64194,3.42549 -6.64956,9.54061 -2.73242,5.55562 -8.52565,14.17667 -12.87384,19.15788 -7.43669,8.51938 -7.93994,9.52912 -8.48164,17.01791 -0.73581,10.1725 -3.46138,13.82908 -14.93841,20.04105 -12.62123,6.83127 -12.77368,7.07347 -7.72876,12.27849 5.01835,5.17763 5.19537,6.34967 1.46851,9.72243 -2.40171,2.17352 -2.67296,3.47059 -1.92544,9.20665 0.47854,3.67219 1.2016,8.02671 1.60676,9.67671 0.71085,2.89492 0.41069,3 -8.56908,3 h -9.30574 z m 21.03147,-80.92665 c 5.4964,-5.48755 6.99335,-13.41406 2.24542,-11.88974 -6.70838,2.15372 -12.63916,3.08826 -19.78698,3.11791 -6.97856,0.0289 -9.58474,1.35567 -6.4585,3.28779 0.66448,0.41068 0.89497,1.94429 0.51219,3.40805 -0.55461,2.12087 0.48628,3.20856 5.12518,5.35568 7.47584,3.46017 12.51309,2.56049 18.36269,-3.27969 z M 96.737234,118.68361 c 0.26246,-3.3 0.127467,-6 -0.299989,-6 -0.427455,0 -2.18046,1.49371 -3.895568,3.31936 -3.027513,3.22264 -3.047691,3.39747 -0.692436,6 3.543631,3.91567 4.356469,3.36368 4.887993,-3.31936 z m 22.449196,5 c -0.005,-0.55 -1.13279,-2.70483 -2.50657,-4.7885 l -2.49778,-3.78849 -0.55903,4.78849 c -0.49843,4.26941 -0.22672,4.7885 2.50657,4.7885 1.68607,0 3.06164,-0.45 3.05681,-1 z m 34.90416,-3.8753 -0.56918,-4.87529 -2.46678,3.20863 c -3.33034,4.33186 -3.14807,6.54196 0.53952,6.54196 2.74341,0 3.00578,-0.51238 2.49644,-4.8753 z m 5.10462,4.28732 c 0,-0.32339 -0.6,-0.9588 -1.33333,-1.41202 -0.73333,-0.45323 -1.33333,-0.18864 -1.33333,0.58797 0,0.77662 0.6,1.41203 1.33333,1.41203 0.73333,0 1.33333,-0.26459 1.33333,-0.58798 z m 16.67931,-2.09266 c 2.35525,-2.60253 2.33508,-2.77736 -0.69243,-6 -1.89588,-2.01807 -4.5954,-3.31936 -6.88596,-3.31936 -4.21154,0 -5.02122,2.63305 -1.66596,5.41767 1.74172,1.4455 2.30904,1.41638 3.31291,-0.17008 0.87172,-1.37761 1.21703,-0.69944 1.23172,2.41907 0.0236,4.9954 1.27603,5.43585 4.69972,1.6527 z m -63.34597,-6.06472 c 0,-1.05672 -1.2,-1.92131 -2.66667,-1.92131 -2.99972,0 -3.41974,1.38026 -1.11989,3.68011 1.838,1.838 3.78656,0.93292 3.78656,-1.7588 z m -2.37502,-14.563 c 16.03318,0.028 17.86951,-2.256337 2.51141,-3.124147 -9.72589,-0.549562 -21.360536,2.001447 -26.136388,5.730657 -2.178075,1.70074 -1.567335,1.65042 3.333333,-0.27462 4.433739,-1.74162 9.730743,-2.35035 20.291645,-2.33189 z m 73.04168,3.90005 c 0,-0.4079 -2.85,-2.02954 -6.33333,-3.60365 -4.95227,-2.237906 -9.00679,-2.875747 -18.59329,-2.925025 -7.80148,-0.04011 -12.84156,0.516136 -13.85923,1.529545 -1.24003,1.23482 1.06468,1.43377 10.25996,0.88566 10.93595,-0.65187 17.48389,0.44485 28.19256,4.72197 0.18333,0.0732 0.33333,-0.2006 0.33333,-0.6085 z m -28,161.53085 c 0,-0.29925 2.34508,-8.84925 5.2113,-19 2.86621,-10.15073 5.6004,-21.45588 6.07594,-25.12255 0.47556,-3.66666 1.1872,-7.76797 1.58142,-9.11401 0.6867,-2.34477 0.83721,-2.33761 3.59072,0.17068 3.36878,3.0688 30.21958,12.23639 45.54062,15.54881 21.82157,4.71786 28.31879,11.44143 31.94815,33.06119 l 0.83936,5 h -47.39376 c -26.06656,0 -47.39375,-0.24485 -47.39375,-0.54412 z"
     style="fill:#b6895e;stroke-width:1.33333325" />
  <path
     inkscape:connector-curvature="0"
     id="path306"
     d="m 18.580414,262.35027 c 2.254246,-13.42835 7.143955,-23.20211 13.477214,-26.93883 2.392077,-1.41136 10.728064,-4.10332 18.524413,-5.98213 19.090255,-4.60051 41.948201,-12.51263 45.545419,-15.76523 l 2.93224,-2.65133 0.724196,3.16876 c 0.398304,1.74281 1.328224,7.14311 2.066484,12.00065 0.73826,4.85755 3.05683,14.45755 5.15237,21.33334 2.09554,6.87578 4.20754,14.15144 4.69334,16.1681 l 0.88326,3.66667 H 65.160204 17.741052 Z M 124.7053,261.01694 c 0.64119,-3.48334 1.72493,-7.96156 2.4083,-9.9516 1.07219,-3.12235 0.75175,-3.97826 -2.33795,-6.24468 l -3.58044,-2.6264 5.33334,-5.51587 5.33333,-5.51585 -3.32929,-2.71983 c -1.8311,-1.49591 -6.82448,-4.4842 -11.09638,-6.64065 -8.70512,-4.39434 -10.79181,-7.75555 -12.35089,-19.89467 -0.76543,-5.95969 -1.89663,-8.27373 -6.464296,-13.22378 -7.420012,-8.04118 -13.698608,-17.36332 -16.927716,-25.13342 -2.044541,-4.91972 -3.320635,-6.37209 -5.532901,-6.29722 -2.280179,0.0772 -3.905205,-1.96688 -7.849623,-9.87366 -5.984094,-11.9954 -11.368994,-24.72709 -12.51101,-29.58016 -0.610273,-2.5934 -0.08529,-4.30147 1.946568,-6.33333 3.046669,-3.04667 5.448877,-3.61938 5.448877,-1.29907 0,3.42789 12.521281,27.91843 13.42615,26.26039 1.051988,-1.92763 3.280839,-13.01265 4.546959,-22.61395 0.80138,-6.07705 0.973379,-6.26765 8.422488,-9.33333 6.427936,-2.64541 9.753456,-3.10698 21.495364,-2.98346 11.43193,0.12025 13.48657,-0.14958 11.60654,-1.524292 -6.21001,-4.540873 -22.3881,-3.199175 -34.40592,2.853392 l -6.241753,3.14355 2.647526,-9.553923 c 1.45614,-5.254658 2.911733,-9.981415 3.234651,-10.503908 0.322918,-0.522492 2.84032,-0.426767 5.594226,0.212725 16.48877,3.828901 49.87042,-2.003625 73.34043,-12.814225 l 9.66667,-4.452597 v 4.081529 c 0,3.403867 4.21048,24.333188 6.05246,30.085439 0.35448,1.10696 -1.14408,0.82393 -4.4249,-0.83572 -10.88035,-5.503982 -27.29072,-6.539849 -33.2341,-2.09783 -2.04917,1.53153 -0.4755,1.7508 10.93987,1.52429 16.76004,-0.33255 26.84368,2.59093 28.2022,8.17647 1.66629,6.85097 8.70829,24.22564 9.81872,24.22564 1.08179,0 5.04057,-9.56549 8.35833,-20.19597 1.71879,-5.50721 2.37851,-5.89601 6.37507,-3.75712 1.7565,0.94005 2.57901,2.79512 2.57901,5.81662 0,4.26295 -6.24069,21.22904 -9.85419,26.78984 -0.95781,1.47398 -2.4805,4.93456 -3.38375,7.6902 -1.59936,4.87931 -5.6625,8.49338 -7.95548,7.07623 -0.62608,-0.38693 -2.37368,2.26907 -3.88355,5.90223 -3.26671,7.86057 -9.50479,17.17944 -16.81979,25.12657 -4.71093,5.11803 -5.42528,6.77956 -6.22132,14.47042 -1.03674,10.01648 -3.50878,14.00671 -11.21525,18.10304 -2.93333,1.5592 -7.94508,4.27856 -11.1372,6.04303 l -5.80387,3.20813 4.80387,4.9196 c 5.57541,5.70975 5.79484,6.8304 2.00831,10.25715 -2.40171,2.17352 -2.67296,3.47059 -1.92544,9.20665 0.47854,3.67219 1.2016,8.02671 1.60676,9.67671 0.71085,2.89492 0.41069,3 -8.56908,3 h -9.30574 z m 16.95086,-77.11253 c 4.89487,-2.92186 8.61773,-8.27359 8.88541,-12.77306 0.25982,-4.36748 0.49744,-4.30421 -7.34636,-1.95592 -3.3,0.98798 -9.75018,1.73148 -14.33374,1.65224 -5.6387,-0.0975 -8.33361,0.36947 -8.33333,1.44391 2.2e-4,0.87339 0.54408,1.92399 1.20857,2.33467 0.66448,0.41068 0.90609,1.90178 0.53689,3.31358 -0.5075,1.9407 0.58021,3.22712 4.45851,5.27308 6.2528,3.29862 10.26916,3.4901 14.92405,0.7115 z m -44.918926,-65.2208 c 0.26246,-3.3 0.127467,-6 -0.299989,-6 -0.427455,0 -2.18046,1.49371 -3.895568,3.31936 -3.027513,3.22264 -3.047691,3.39747 -0.692436,6 3.543631,3.91567 4.356469,3.36368 4.887993,-3.31936 z m 22.449196,5 c -0.005,-0.55 -1.13279,-2.70483 -2.50657,-4.7885 l -2.49778,-3.78849 -0.55903,4.78849 c -0.49843,4.26941 -0.22672,4.7885 2.50657,4.7885 1.68607,0 3.06164,-0.45 3.05681,-1 z m 34.90416,-3.8753 -0.56918,-4.87529 -2.46678,3.20863 c -3.33034,4.33186 -3.14807,6.54196 0.53952,6.54196 2.74341,0 3.00578,-0.51238 2.49644,-4.8753 z m 5.10462,4.28732 c 0,-0.32339 -0.6,-0.9588 -1.33333,-1.41202 -0.73333,-0.45323 -1.33333,-0.18864 -1.33333,0.58797 0,0.77662 0.6,1.41203 1.33333,1.41203 0.73333,0 1.33333,-0.26459 1.33333,-0.58798 z m 16.67931,-2.09266 c 2.35525,-2.60253 2.33508,-2.77736 -0.69243,-6 -1.89588,-2.01807 -4.5954,-3.31936 -6.88596,-3.31936 -4.21154,0 -5.02122,2.63305 -1.66596,5.41767 1.74172,1.4455 2.30904,1.41638 3.31291,-0.17008 0.87172,-1.37761 1.21703,-0.69944 1.23172,2.41907 0.0236,4.9954 1.27603,5.43585 4.69972,1.6527 z m -63.34597,-6.06472 c 0,-1.05672 -1.2,-1.92131 -2.66667,-1.92131 -2.99972,0 -3.41974,1.38026 -1.11989,3.68011 1.838,1.838 3.78656,0.93292 3.78656,-1.7588 z m 43.14376,149.07869 c 7.97513,-28.33254 10.13457,-36.76951 10.83524,-42.33334 0.46176,-3.66666 1.1621,-7.76797 1.55632,-9.11401 0.68778,-2.34843 0.8329,-2.3424 3.59072,0.14924 4.19938,3.79409 46.56271,17.63144 53.97903,17.63144 1.0649,0 4.60426,1.33251 7.86523,2.96112 8.10219,4.04643 13.12936,13.05637 15.64451,28.03888 l 0.83936,5 h -47.4836 c -44.5838,0 -47.44349,-0.14249 -46.82681,-2.33333 z"
     style="fill:#94624a;stroke-width:1.33333325" />
  <path
     inkscape:connector-curvature="0"
     id="path304"
     d="m 18.699236,263.01694 c 2.806052,-15.77766 7.022009,-24.19384 13.869432,-27.68714 2.600244,-1.32654 10.043596,-3.67441 16.540782,-5.21749 17.55816,-4.17005 43.682155,-13.23985 46.959731,-16.3036 2.739027,-2.56033 2.906655,-2.57156 3.570221,-0.23912 0.382938,1.34604 1.079538,5.74735 1.547998,9.78068 0.46845,4.03333 2.57884,13.03333 4.68975,20 2.11091,6.96667 4.40724,15.21667 5.10297,18.33333 l 1.26497,5.66667 H 65.086823 17.928554 Z m 106.006064,-2 c 0.64119,-3.48334 1.72493,-7.96156 2.4083,-9.9516 1.07219,-3.12235 0.75175,-3.97826 -2.33795,-6.24468 l -3.58044,-2.6264 5.2706,-5.422 c 2.89883,-2.9821 6.23113,-5.42199 7.40511,-5.42199 2.3404,0 10.65763,7.95241 10.65763,10.19016 0,0.76809 -1.258,2.53501 -2.79556,3.92648 -2.40171,2.17352 -2.67296,3.47059 -1.92544,9.20665 0.47854,3.67219 1.2016,8.02671 1.60676,9.67671 0.71085,2.89492 0.41069,3 -8.56908,3 h -9.30574 z m 32.02982,0.66666 c 0.69105,-3.11666 2.71399,-10.30558 4.49541,-15.97538 1.78144,-5.6698 3.85687,-14.3698 4.61206,-19.33334 0.7552,-4.96353 1.69897,-10.45056 2.09728,-12.19337 l 0.7242,-3.16876 2.93224,2.74121 c 3.33976,3.12219 29.40717,12.18168 47.06858,16.35828 16.05905,3.79766 20.81571,6.6669 24.99413,15.07655 1.86595,3.75548 3.77734,9.22815 4.24751,12.16148 0.47017,2.93333 1.14291,6.38333 1.49496,7.66667 0.60088,2.19038 -2.25645,2.33333 -46.64136,2.33333 h -47.28146 z m -37.57114,-45.33185 c -1.85051,-0.91748 -5.56448,-3.1656 -8.25328,-4.99583 -4.19383,-2.85466 -5.01903,-4.27512 -5.80546,-9.9932 -0.73747,-5.36199 -2.0967,-7.97061 -6.95034,-13.33898 -7.28552,-8.05816 -14.536563,-19.10391 -16.917949,-25.77168 -0.962867,-2.69599 -2.440462,-4.74368 -3.283546,-4.55045 -3.07003,0.70365 -6.582277,-2.44574 -8.186905,-7.3411 -0.903254,-2.75564 -2.417748,-6.21024 -3.36554,-7.6769 -3.49337,-5.40584 -10.062589,-22.41594 -10.174299,-26.34497 -0.0712,-2.504 0.826057,-4.74075 2.348174,-5.85375 2.920987,-2.13588 4.620384,-2.30799 4.620384,-0.46795 0,0.73333 -0.871351,1.33333 -1.936335,1.33333 -1.413086,0 -1.142861,0.85847 1,3.17683 1.614984,1.74726 5.291918,8.01741 8.170964,13.93368 2.879046,5.91627 5.689408,10.47579 6.245251,10.13225 0.555841,-0.34352 2.605974,4.63632 4.555852,11.06632 1.949877,6.43002 5.301262,14.99092 7.447523,19.02426 6.808375,12.79454 24.657736,31.67868 32.907526,34.81523 4.03062,1.53244 20.52113,1.53244 24.55176,0 4.54815,-1.7292 14.11824,-10.02125 21.50421,-18.63241 10.94512,-12.76073 14.9488,-21.03317 21.63008,-44.69226 1.46234,-5.17828 2.58338,-7.24637 3.29972,-6.0873 0.74124,1.19936 2.59844,-1.35445 5.86258,-8.0615 2.62769,-5.39934 5.76685,-10.91006 6.97589,-12.24604 2.04536,-2.26009 2.0393,-2.42906 -0.0871,-2.42906 -1.25693,0 -1.91452,-0.6 -1.46129,-1.33333 2.13846,-3.4601 7.33333,1.16713 7.33333,6.53203 0,4.17494 -4.48649,15.76983 -10.5518,27.27004 -2.26317,4.29113 -4.11486,8.62001 -4.11486,9.61974 0,2.01851 -4.39535,4.81047 -6.71096,4.26286 -0.81711,-0.19323 -2.44444,2.04866 -3.61628,4.982 -3.09368,7.74398 -10.2681,18.6586 -16.98466,25.83914 -5.14125,5.4964 -5.90294,7.10095 -6.27013,13.20839 -0.22989,3.82357 -0.85043,6.95206 -1.37899,6.95221 -0.52856,1.3e-4 -3.7256,1.95025 -7.10454,4.33359 -5.78604,4.08118 -6.89388,4.35281 -19.03898,4.66814 -8.28566,0.21514 -14.09821,-0.2615 -16.26003,-1.33333 z M 77.116155,152.35027 c -1.479987,-4.79772 -4.718253,-10.70698 -8.065065,-14.71732 -2.274204,-2.72506 -2.899683,-4.73029 -2.343278,-7.51231 0.779626,-3.89813 -2.768332,-13.43703 -4.997848,-13.43703 -3.182246,0 0.198894,13.37096 6.931206,27.40996 3.223608,6.72222 6.204203,11.2567 7.399251,11.2567 1.460595,0 1.75118,-0.81038 1.075734,-3 z M 199.59728,141.90682 c 5.31022,-11.14357 6.33349,-14.49687 6,-19.66234 l -0.40207,-6.22754 -2.33333,4.26712 c -1.28334,2.34692 -2.33334,6.65088 -2.33334,9.56437 0,3.5763 -1.00782,6.52168 -3.10218,9.0662 -2.58583,3.14163 -7.56448,13.53792 -7.56448,15.79596 0,0.35183 0.75,0.63774 1.66667,0.63535 0.91666,-0.003 4.5476,-6.04999 8.06873,-13.43912 z m -81.62665,34.28608 c -3.38826,-5.48232 -3.51922,-7.45415 -0.44164,-6.64935 2.77138,0.72474 5.98362,6.78651 4.18527,7.89796 -0.67607,0.41783 -0.88401,1.31823 -0.46211,2.0009 0.42191,0.68265 0.48063,1.2412 0.1305,1.2412 -0.35014,0 -1.88555,-2.02083 -3.41202,-4.49071 z m 32.88226,-4.31781 c -1.47653,-2.3891 -0.23324,-5.87062 2.87358,-8.04671 l 3.03205,-2.12373 -1.93205,3.82281 c -1.06262,2.10255 -2.20451,4.69327 -2.53754,5.75715 -0.35666,1.1394 -0.94681,1.38206 -1.43604,0.59048 z M 129.52855,154.9189 c -4.56496,-3.73761 -4.56058,-4.5986 0.0515,-10.12315 l 3.71819,-4.4538 -0.52491,5.50416 c -0.51856,5.43775 -0.47214,5.50416 3.84757,5.50416 h 4.37247 l -3.13149,3.33334 c -3.76469,4.00733 -3.72763,4.00629 -8.33333,0.23529 z m -24.58136,-26.72068 c -1.1369,-0.63624 -4.27714,-0.86037 -6.97831,-0.49807 -4.701114,0.63056 -5.1327,0.34181 -10.087934,-6.74909 -3.721887,-5.32599 -4.487401,-7.14332 -2.723941,-6.46661 1.629463,0.62528 3.461145,-0.006 5.456907,-1.88103 2.698896,-2.53548 4.14664,-2.75878 14.248308,-2.19757 12.45676,0.69204 15.60514,1.84738 18.18854,6.67452 1.33932,2.50253 1.39415,3.93483 0.23365,6.10324 -0.83399,1.55833 -2.09524,2.83333 -2.80277,2.83333 -0.70754,0 -1.13643,0.74095 -0.95309,1.64655 0.39291,1.94086 -11.30236,2.36975 -14.58136,0.53473 z m -8.209956,-9.51461 c 0.26246,-3.3 0.127467,-6 -0.299989,-6 -0.427455,0 -2.18046,1.49371 -3.895568,3.31936 -3.027513,3.22264 -3.047691,3.39747 -0.692436,6 3.543631,3.91567 4.356469,3.36368 4.887993,-3.31936 z m 22.457976,4.54364 c 0,-0.801 -1.13461,-2.89879 -2.52136,-4.66176 l -2.52137,-3.2054 -0.54423,4.66176 c -0.48249,4.13289 -0.19645,4.66176 2.52137,4.66176 1.68607,0 3.06559,-0.65537 3.06559,-1.45636 z m -6.66666,-7.289 c 0,-1.05672 -1.2,-1.92131 -2.66667,-1.92131 -2.99972,0 -3.41974,1.38026 -1.11989,3.68011 1.838,1.838 3.78656,0.93292 3.78656,-1.7588 z m 34.176,11.67569 c -0.42088,-1.24502 -1.42942,-3.16367 -2.24116,-4.26367 -2.20715,-2.99088 0.6156,-9.08269 5.04125,-10.87962 2.02981,-0.82416 8.50051,-1.76542 14.37932,-2.09168 9.56299,-0.53073 10.95349,-0.30067 13.20239,2.18434 1.945,2.1492 2.9276,2.434 4.34348,1.25892 3.79358,-3.1484 2.91854,-0.005 -1.90355,6.83808 -4.49604,6.38037 -5.53312,7.12249 -10.33107,7.39276 -2.93333,0.16523 -9.02154,0.64335 -13.52937,1.06248 -6.94473,0.64571 -8.31288,0.41646 -8.96129,-1.50161 z m 7.38604,-7.80563 -0.56918,-4.87529 -2.46678,3.20863 c -3.33034,4.33186 -3.14807,6.54196 0.53952,6.54196 2.74341,0 3.00578,-0.51238 2.49644,-4.8753 z m 5.10462,4.28732 c 0,-0.32339 -0.6,-0.9588 -1.33333,-1.41202 -0.73333,-0.45323 -1.33333,-0.18864 -1.33333,0.58797 0,0.77662 0.6,1.41203 1.33333,1.41203 0.73333,0 1.33333,-0.26459 1.33333,-0.58798 z m 16.67931,-2.09266 c 2.35525,-2.60253 2.33508,-2.77736 -0.69243,-6 -1.89588,-2.01807 -4.5954,-3.31936 -6.88596,-3.31936 -4.21154,0 -5.02122,2.63305 -1.66596,5.41767 1.74172,1.4455 2.30904,1.41638 3.31291,-0.17008 0.87172,-1.37761 1.21703,-0.69944 1.23172,2.41907 0.0236,4.9954 1.27603,5.43585 4.69972,1.6527 z"
     style="fill:#625955;stroke-width:1.33333325" />
  <path
     inkscape:connector-curvature="0"
     id="path302"
     d="m 18.322279,265.01694 c 0.352049,-1.28334 1.024781,-4.73334 1.494957,-7.66667 0.470176,-2.93333 2.381552,-8.406 4.247501,-12.16148 4.173055,-8.39885 8.937247,-11.27944 24.896805,-15.05344 18.130845,-4.28744 44.848075,-13.50715 47.551979,-16.40944 2.324865,-2.49545 2.457843,-2.5022 3.112608,-0.15789 0.376191,1.3469 1.092771,6.04892 1.592391,10.44892 0.49963,4.4 2.30893,12.5 4.02067,18 1.71174,5.5 3.99515,13.45 5.07423,17.66666 l 1.96198,7.66667 H 64.978792 c -44.399343,0 -47.257396,-0.14293 -46.656513,-2.33333 z m 106.206271,-0.7881 c 0,-1.71678 0.90035,-6.06678 2.00078,-9.66666 1.98894,-6.50654 1.98019,-6.562 -1.48006,-9.37899 l -3.48084,-2.83375 4.96854,-5.49958 c 2.7327,-3.02478 5.77785,-5.49959 6.767,-5.49959 2.27418,0 11.22458,7.77833 11.22458,9.75471 0,0.81314 -1.48827,2.70098 -3.30727,4.19521 -2.96648,2.4368 -3.18815,3.26632 -2.15117,8.05008 0.63585,2.93333 1.50913,7.28333 1.9406,9.66667 l 0.7845,4.33333 h -8.63333 c -8.16371,0 -8.63333,-0.1698 -8.63333,-3.12143 z m 33.99148,-8.54524 c 1.72285,-6.41666 3.78062,-13.35848 4.57281,-15.42625 0.7922,-2.06776 2.06125,-8.06776 2.82013,-13.33333 0.75888,-5.26556 1.68922,-11.00322 2.0674,-12.75032 0.68554,-3.16695 0.69516,-3.16848 3.17306,-0.50878 2.75172,2.95363 29.32562,12.14696 47.60879,16.47043 6.47148,1.53033 13.95664,4.00667 16.6337,5.50297 5.88257,3.28802 11.15906,13.19851 12.8842,24.19956 l 1.17806,7.51239 h -47.03532 -47.0353 z m -39.35605,-39.33185 c -1.85051,-0.91748 -5.56448,-3.1656 -8.25328,-4.99583 -4.19383,-2.85466 -5.01903,-4.27512 -5.80546,-9.9932 -0.73747,-5.36199 -2.0967,-7.97061 -6.95034,-13.33898 -7.28552,-8.05816 -14.536563,-19.10391 -16.917949,-25.77168 -0.962867,-2.69599 -2.440462,-4.74368 -3.283546,-4.55045 -3.07003,0.70365 -6.582277,-2.44574 -8.186905,-7.3411 -0.903254,-2.75564 -2.417748,-6.21024 -3.36554,-7.6769 -3.49337,-5.40584 -10.062589,-22.41594 -10.174299,-26.34497 -0.0712,-2.504 0.826057,-4.74075 2.348174,-5.85375 2.920987,-2.13588 4.620384,-2.30799 4.620384,-0.46795 0,0.73333 -0.871351,1.33333 -1.936335,1.33333 -1.413086,0 -1.142861,0.85847 1,3.17683 1.614984,1.74726 5.291918,8.01741 8.170964,13.93368 2.879046,5.91627 5.689408,10.47579 6.245251,10.13225 0.555841,-0.34352 2.605974,4.63632 4.555852,11.06632 1.949877,6.43002 5.301262,14.99092 7.447523,19.02426 6.808375,12.79454 24.657736,31.67868 32.907526,34.81523 4.03062,1.53244 20.52113,1.53244 24.55176,0 4.54815,-1.7292 14.11824,-10.02125 21.50421,-18.63241 10.94512,-12.76073 14.9488,-21.03317 21.63008,-44.69226 1.46234,-5.17828 2.58338,-7.24637 3.29972,-6.0873 0.74124,1.19936 2.59844,-1.35445 5.86258,-8.0615 2.62769,-5.39934 5.76685,-10.91006 6.97589,-12.24604 2.04536,-2.26009 2.0393,-2.42906 -0.0871,-2.42906 -1.25693,0 -1.91452,-0.6 -1.46129,-1.33333 2.13846,-3.4601 7.33333,1.16713 7.33333,6.53203 0,4.17494 -4.48649,15.76983 -10.5518,27.27004 -2.26317,4.29113 -4.11486,8.62001 -4.11486,9.61974 0,2.01851 -4.39535,4.81047 -6.71096,4.26286 -0.81711,-0.19323 -2.44444,2.04866 -3.61628,4.982 -3.09368,7.74398 -10.2681,18.6586 -16.98466,25.83914 -5.14125,5.4964 -5.90294,7.10095 -6.27013,13.20839 -0.22989,3.82357 -0.85043,6.95206 -1.37899,6.95221 -0.52856,1.3e-4 -3.7256,1.95025 -7.10454,4.33359 -5.78604,4.08118 -6.89388,4.35281 -19.03898,4.66814 -8.28566,0.21514 -14.09821,-0.2615 -16.26003,-1.33333 z M 77.116155,152.35027 c -1.479987,-4.79772 -4.718253,-10.70698 -8.065065,-14.71732 -2.274204,-2.72506 -2.899683,-4.73029 -2.343278,-7.51231 0.779626,-3.89813 -2.768332,-13.43703 -4.997848,-13.43703 -3.182246,0 0.198894,13.37096 6.931206,27.40996 3.223608,6.72222 6.204203,11.2567 7.399251,11.2567 1.460595,0 1.75118,-0.81038 1.075734,-3 z M 199.59728,141.90682 c 5.31022,-11.14357 6.33349,-14.49687 6,-19.66234 l -0.40207,-6.22754 -2.33333,4.26712 c -1.28334,2.34692 -2.33334,6.65088 -2.33334,9.56437 0,3.5763 -1.00782,6.52168 -3.10218,9.0662 -2.58583,3.14163 -7.56448,13.53792 -7.56448,15.79596 0,0.35183 0.75,0.63774 1.66667,0.63535 0.91666,-0.003 4.5476,-6.04999 8.06873,-13.43912 z m -81.7083,33.49657 c -3.49903,-6.85865 -3.41873,-8.19961 0.22018,-3.67721 2.43193,3.02237 4.34701,8.95743 2.89033,8.95743 -0.22921,0 -1.62894,-2.3761 -3.11051,-5.28022 z m 33.32665,-6.97442 c -0.0107,-1.24006 0.57958,-2.62547 1.31292,-3.0787 1.68746,-1.0429 1.68746,0.72218 0,3.33334 -1.11387,1.72358 -1.29532,1.68838 -1.31292,-0.25464 z M 129.52855,154.9189 c -4.56496,-3.73761 -4.56058,-4.5986 0.0515,-10.12315 l 3.71819,-4.4538 -0.52491,5.50416 c -0.51856,5.43775 -0.47214,5.50416 3.84757,5.50416 h 4.37247 l -3.13149,3.33334 c -3.76469,4.00733 -3.72763,4.00629 -8.33333,0.23529 z m -24.58136,-26.72068 c -1.1369,-0.63624 -4.27714,-0.86037 -6.97831,-0.49807 -4.701114,0.63056 -5.1327,0.34181 -10.087934,-6.74909 -3.721887,-5.32599 -4.487401,-7.14332 -2.723941,-6.46661 1.629463,0.62528 3.461145,-0.006 5.456907,-1.88103 2.698896,-2.53548 4.14664,-2.75878 14.248308,-2.19757 12.45676,0.69204 15.60514,1.84738 18.18854,6.67452 1.33932,2.50253 1.39415,3.93483 0.23365,6.10324 -0.83399,1.55833 -2.09524,2.83333 -2.80277,2.83333 -0.70754,0 -1.13643,0.74095 -0.95309,1.64655 0.39291,1.94086 -11.30236,2.36975 -14.58136,0.53473 z m -2.48531,-3.49641 c 2.02222,-0.0142 2.24444,-0.37376 1,-1.6182 -0.88,-0.88 -1.6,-2.68 -1.6,-4 0,-2.70789 -3.504264,-3.29699 -4.362256,-0.73334 -0.306786,0.91667 -0.303107,0.0167 0.0081,-2 0.659855,-4.27492 -0.491127,-4.54131 -4.645913,-1.07525 -3.574279,2.98178 -3.668306,3.8611 -0.844039,7.8933 1.52664,2.17959 2.986131,2.8553 5,2.31488 1.564263,-0.41975 4.014078,-0.77137 5.444078,-0.78139 z m 16.233,-0.63754 c 1.08692,-2.83247 -4.2265,-9.62052 -8.11198,-10.36327 -4.34575,-0.83075 -4.8669,-0.12971 -2.98084,4.00975 1.2162,2.66925 1.19646,3.54953 -0.0892,3.97808 -3.09664,1.03222 -1.662,3.30775 1.68235,2.66844 1.83333,-0.35046 3.33333,-0.12041 3.33333,0.51123 0,1.96053 5.37438,1.25958 6.16634,-0.80423 z m 28.00967,3.54967 c -0.42088,-1.24502 -1.42942,-3.16367 -2.24116,-4.26367 -2.20715,-2.99088 0.6156,-9.08269 5.04125,-10.87962 2.02981,-0.82416 8.50051,-1.76542 14.37932,-2.09168 9.56299,-0.53073 10.95349,-0.30067 13.20239,2.18434 1.945,2.1492 2.9276,2.434 4.34348,1.25892 3.79358,-3.1484 2.91854,-0.005 -1.90355,6.83808 -4.49604,6.38037 -5.53312,7.12249 -10.33107,7.39276 -2.93333,0.16523 -9.02154,0.64335 -13.52937,1.06248 -6.94473,0.64571 -8.31288,0.41646 -8.96129,-1.50161 z m 13.19854,-2.93033 c 1.34372,0 1.37926,-0.70856 0.16667,-3.32293 -0.84767,-1.82762 -2.29121,-3.32762 -3.20788,-3.33334 -0.91667,-0.006 -1.66667,-1.00339 -1.66667,-2.21705 0,-1.99394 -0.25377,-1.97699 -2.63262,0.17585 -5.79612,5.24541 -4.84547,10.79309 1.62766,9.49846 2.20274,-0.44055 4.77351,-0.80099 5.71284,-0.80099 z m 15.29212,-2 3.13151,-3.33334 -3.13151,-3.33333 c -5.264,-5.60326 -13.17562,-4.02779 -9.43628,1.87909 1.39895,2.20984 0.36106,5.77114 -1.37009,4.70123 -0.65649,-0.40573 -1.19363,-0.14214 -1.19363,0.58576 0,0.7279 1.65,1.57341 3.66667,1.87891 2.01667,0.3055 4.01208,0.64536 4.43425,0.75523 0.42216,0.10988 2.17675,-1.30022 3.89908,-3.13355 z"
     style="fill:#855138;stroke-width:1.33333325" />
  <path
     inkscape:connector-curvature="0"
     id="path300"
     d="m 19.443644,259.83788 c 1.725133,-11.00105 7.001636,-20.91154 12.884207,-24.19956 2.677053,-1.4963 10.162214,-3.97264 16.633691,-5.50297 18.130845,-4.28744 44.848075,-13.50715 47.551979,-16.40944 2.324865,-2.49545 2.457843,-2.5022 3.112608,-0.15789 0.376191,1.3469 1.092771,6.04892 1.592391,10.44892 0.49963,4.4 2.30893,12.5 4.02067,18 1.71174,5.5 3.99515,13.45 5.07423,17.66666 l 1.96198,7.66667 H 65.270492 18.265587 Z m 105.084906,4.39096 c 0,-1.71678 0.90035,-6.06678 2.00078,-9.66666 1.98894,-6.50654 1.98019,-6.562 -1.48006,-9.37899 l -3.48084,-2.83375 4.96854,-5.49958 c 2.7327,-3.02478 5.77785,-5.49959 6.767,-5.49959 2.27418,0 11.22458,7.77833 11.22458,9.75471 0,0.81314 -1.48827,2.70098 -3.30727,4.19521 -2.96648,2.4368 -3.18815,3.26632 -2.15117,8.05008 0.63585,2.93333 1.50913,7.28333 1.9406,9.66667 l 0.7845,4.33333 h -8.63333 c -8.16371,0 -8.63333,-0.1698 -8.63333,-3.12143 z m 33.99148,-8.54524 c 1.72285,-6.41666 3.78062,-13.35848 4.57281,-15.42625 0.7922,-2.06776 2.06125,-8.06776 2.82013,-13.33333 0.75888,-5.26556 1.68922,-11.00322 2.0674,-12.75032 0.68554,-3.16695 0.69516,-3.16848 3.17306,-0.50878 2.75172,2.95363 29.32562,12.14696 47.60879,16.47043 16.40987,3.88049 20.64139,6.53936 24.97903,15.69556 1.95921,4.13565 4.04824,10.66936 4.64229,14.51936 l 1.08008,7 H 202.42558 155.38756 Z M 108.2468,208.19859 c -1.25496,-0.95344 -2.70302,-4.36801 -3.2179,-7.58793 -0.69893,-4.37087 -2.73392,-7.9736 -8.03051,-14.21717 -8.240081,-9.71334 -12.491502,-16.25031 -15.420097,-23.70988 -1.151613,-2.93334 -2.90892,-5.41412 -3.905125,-5.51287 -0.996205,-0.0988 -2.591899,-0.24875 -3.545985,-0.33333 -0.954085,-0.0845 -2.666892,-2.4038 -3.806235,-5.1538 -1.139344,-2.75 -4.451917,-10.00474 -7.361274,-16.12164 -2.909357,-6.1169 -4.953423,-11.99806 -4.542369,-13.06925 0.418522,-1.09065 0.167416,-1.58918 -0.570691,-1.13301 -0.772289,0.4773 -1.318061,-1.11088 -1.318061,-3.83551 0,-4.63478 2.77766,-8.87704 5.761905,-8.80005 0.864285,0.0223 0.508808,0.65918 -0.789948,1.41528 -1.298757,0.75611 -1.940288,2.05607 -1.425623,2.88882 0.514664,0.83275 0.783248,4.38743 0.596852,7.89931 -0.271562,5.1165 0.705361,8.57462 4.916648,17.40397 2.890552,6.0603 5.620979,12.08236 6.067616,13.38232 0.867899,2.52608 4.462593,4.49082 5.789216,3.1642 0.440913,-0.44091 -0.184964,-3.3851 -1.390838,-6.54263 -1.205872,-3.15753 -2.192496,-6.87091 -2.192496,-8.25195 0,-1.38104 -0.401309,-2.10966 -0.891797,-1.61917 -2.081925,2.08192 -5.774688,-3.67188 -5.768038,-8.98734 l 0.0068,-5.46002 3.282702,5.33333 c 1.805486,2.93334 5.737305,12.63892 8.737377,21.56798 6.389144,19.01589 13.212419,29.68638 27.732731,43.36952 11.04309,10.40638 16.15347,12.32622 30.40164,11.42111 11.44217,-0.72686 15.33645,-2.87132 27.24492,-15.00294 12.64387,-12.88083 17.95003,-21.79128 23.62245,-39.66837 3.4558,-10.89124 5.49206,-15.45436 6.70043,-15.01528 0.95475,0.34693 1.37813,0.0519 0.94085,-0.65567 -0.43729,-0.70755 0.08,-2.95067 1.1494,-4.98473 l 1.94449,-3.69828 0.98325,3.89517 c 0.79977,3.16836 0.38579,4.41391 -2.21865,6.67527 -2.90891,2.5257 -7.89132,13.73737 -7.87516,17.72105 0.0165,4.06371 4.35509,-0.74071 8.50907,-9.42265 7.63613,-15.95978 8.99642,-19.98132 8.65582,-25.58986 -0.17995,-2.96323 0.0824,-6.05036 0.58293,-6.86029 0.50058,-0.80993 -0.0723,-1.84959 -1.27305,-2.31036 -1.20075,-0.46078 -1.80099,-1.21997 -1.33385,-1.6871 1.49521,-1.49521 6.19901,3.88015 6.19901,7.08404 0,3.4304 -6.00389,18.91765 -11.26329,29.05403 -1.87185,3.60762 -3.40337,7.33651 -3.40337,8.28642 0,2.04661 -4.87542,4.928 -6.56818,3.88181 -0.64885,-0.40101 -3.01044,3.183 -5.24796,7.96447 -4.00938,8.56786 -13.1615,21.55289 -18.68808,26.51465 -1.94282,1.74427 -2.82912,4.12977 -2.82912,7.61472 0,3.50348 -0.90352,5.91649 -2.91808,7.79334 -2.71101,2.5257 -4.57969,2.7156 -26.33333,2.67622 -17.0996,-0.0309 -24.03069,-0.50999 -25.697,-1.77595 z M 72.106038,135.10027 c -0.425635,-1.06364 -0.741578,-0.7477 -0.805556,0.80556 -0.05789,1.40555 0.257237,2.19306 0.700293,1.75 0.443055,-0.44306 0.490424,-1.59306 0.105267,-2.55556 z m 45.130242,38.99608 c -1.51907,-2.93756 -1.61559,-3.83245 -0.36144,-3.35118 2.52999,0.97085 5.15996,5.67418 3.68319,6.58689 -0.68709,0.42464 -2.18187,-1.03143 -3.32175,-3.23571 z m 33.97935,-5.66738 c -0.0107,-1.24006 0.57958,-2.62547 1.31292,-3.0787 1.68746,-1.0429 1.68746,0.72218 0,3.33334 -1.11387,1.72358 -1.29532,1.68838 -1.31292,-0.25464 z m -21.78389,-13.80682 -3.76348,-3.3105 2.87223,-4.64736 c 3.57574,-5.78567 4.47468,-5.86332 3.63515,-0.31402 -0.36335,2.40168 0.17881,5.96782 1.21624,8 2.30853,4.52215 0.97569,4.61366 -3.96014,0.27188 z M 88.592606,121.44337 c -4.348994,-6.32104 -5.199426,-8.69522 -2.232677,-6.23304 1.435355,1.19124 2.306972,0.79406 4.030737,-1.83674 1.718114,-2.62217 3.319812,-3.35665 7.31997,-3.35665 8.154614,0 19.259494,2.52446 21.461234,4.87876 1.37831,1.47383 1.44648,1.83792 0.21383,1.14209 -1.39367,-0.78672 -1.59821,-0.29366 -0.89007,2.14551 0.90015,3.10053 0.8542,3.09171 -2.19049,-0.42056 -1.71046,-1.97314 -4.60993,-3.77314 -6.44326,-4 -3.3814,-0.41841 -3.42784,-0.25491 -1.68195,5.92087 0.3628,1.28333 -0.0103,2.33333 -0.82921,2.33333 -0.81886,0 -1.48884,0.66995 -1.48884,1.48877 0,0.86905 1.38754,1.22352 3.33333,0.85156 1.83334,-0.35046 3.33334,-0.16214 3.33334,0.4185 0,0.58063 1.35,1.31572 3,1.63353 1.65,0.3178 -2.82118,0.65953 -9.93595,0.7594 l -12.93594,0.18157 z m 13.869274,3.25844 c 2.02222,-0.0142 2.24444,-0.37376 1,-1.6182 -0.88,-0.88 -1.6,-2.68 -1.6,-4 0,-2.70789 -3.504264,-3.29699 -4.362256,-0.73334 -0.306786,0.91667 -0.303107,0.0167 0.0081,-2 0.659855,-4.27492 -0.491127,-4.54131 -4.645913,-1.07525 -3.574279,2.98178 -3.668306,3.8611 -0.844039,7.8933 1.52664,2.17959 2.986131,2.8553 5,2.31488 1.564263,-0.41975 4.014078,-0.77137 5.444078,-0.78139 z m 52.73333,0.8234 c 5.54695,-1.39438 5.90062,-1.73479 4.68383,-4.50827 -0.72389,-1.65 -2.07389,-3 -3,-3 -0.92611,0 -1.70821,-1.05 -1.73801,-2.33333 -0.0403,-1.73316 -1.06912,-1.14594 -4,2.28297 -3.99892,4.67842 -5.08094,4.6627 -2.56558,-0.0373 1.02918,-1.92302 0.94439,-2.60668 -0.33333,-2.68778 -4.52635,-0.28729 7.94941,-3.96318 15.91141,-4.68816 8.5277,-0.7765 9.22455,-0.62661 12.25846,2.63683 2.66696,2.86871 3.57461,3.17811 5.31032,1.81012 1.55585,-1.22624 1.44352,-0.62268 -0.43734,2.34998 -6.6167,10.45756 -5.56544,9.92715 -19.42309,9.79971 -12.17487,-0.11198 -12.43371,-0.17506 -6.66667,-1.62477 z m 20,-2.8416 3.13151,-3.33334 -3.13151,-3.33333 c -5.264,-5.60326 -13.17562,-4.02779 -9.43628,1.87909 1.39895,2.20984 0.36106,5.77114 -1.37009,4.70123 -0.65649,-0.40573 -1.19363,-0.14214 -1.19363,0.58576 0,0.7279 1.65,1.57341 3.66667,1.87891 2.01667,0.3055 4.01208,0.64536 4.43425,0.75523 0.42216,0.10988 2.17675,-1.30022 3.89908,-3.13355 z"
     style="fill:#77452f;stroke-width:1.33333325" />
  <path
     inkscape:connector-curvature="0"
     id="path298"
     d="m 19.340226,260.35027 c 0.594046,-3.85 2.664822,-10.34552 4.601723,-14.43448 4.225023,-8.91939 9.038482,-11.88145 25.919937,-15.95037 17.353873,-4.1828 44.046935,-13.32875 46.729199,-16.01102 2.057317,-2.05732 2.507296,-2.113 3.167708,-0.39198 0.423367,1.10326 0.769757,3.9609 0.769757,6.35028 0,4.16802 1.4346,10.16454 8.5578,35.7709 l 3.24544,11.66667 H 67.181787 22.031776 l 2.641795,-9.53324 c 1.452988,-5.24328 3.253674,-10.67653 4.001526,-12.07392 0.747854,-1.39737 1.093211,-3.25741 0.767462,-4.13343 -0.721347,-1.93985 -6.186382,10.1765 -7.099735,15.74059 -1.334588,8.13024 -1.890633,10 -2.97388,10 -0.609842,0 -0.622766,-3.15 -0.02872,-7 z M 33.19522,240.6836 c -0.453225,-0.73333 -0.638635,-1.33594 -0.412023,-1.33914 0.226612,-0.003 4.612023,-1.5311 9.745356,-3.39532 8.63047,-3.13426 8.881493,-3.3294 3.333333,-2.59136 -3.3,0.43898 -8.248428,1.7573 -10.996508,2.92958 -3.949406,1.68475 -4.683602,2.50846 -3.503406,3.9305 1.735199,2.09078 3.042908,2.42301 1.833248,0.46574 z m 30.972222,-11.47222 c -0.443056,-0.44306 -1.593056,-0.49042 -2.555556,-0.1052 -1.063644,0.42562 -0.747702,0.74157 0.805556,0.80554 1.405554,0.0579 2.193054,-0.25724 1.75,-0.70029 z m 20.36111,-7.19444 c 1.1,-0.71088 1.4,-1.2925 0.666667,-1.2925 -0.733334,0 -2.233334,0.58162 -3.333334,1.2925 -1.1,0.71088 -1.4,1.29249 -0.666666,1.29249 0.733333,0 2.233333,-0.58161 3.333333,-1.29249 z m 39.999998,42.2119 c 0,-1.71678 0.90035,-6.06678 2.00078,-9.66666 1.98894,-6.50654 1.98019,-6.562 -1.48006,-9.37899 l -3.48084,-2.83375 4.96854,-5.49958 c 2.7327,-3.02478 5.77785,-5.49959 6.767,-5.49959 2.27418,0 11.22458,7.77833 11.22458,9.75471 0,0.81314 -1.48827,2.70098 -3.30727,4.19521 -2.96648,2.4368 -3.18815,3.26632 -2.15117,8.05008 0.63585,2.93333 1.50913,7.28333 1.9406,9.66667 l 0.7845,4.33333 h -8.63333 c -8.16371,0 -8.63333,-0.1698 -8.63333,-3.12143 z m 32.88178,-4.54524 c 1.0791,-4.21666 3.3625,-12.16666 5.07424,-17.66666 1.71174,-5.5 3.52104,-13.6 4.02067,-18 1.41364,-12.44938 1.67217,-13.0178 4.59255,-10.09743 2.7115,2.71151 29.31834,11.84096 46.76409,16.04591 16.88145,4.06892 21.69492,7.03098 25.91993,15.95037 3.61085,7.62283 6.55755,21.43448 4.57301,21.43448 -1.08325,0 -1.63929,-1.86976 -2.97388,-10 -0.91336,-5.56409 -6.37838,-17.68044 -7.09973,-15.74059 -0.32576,0.87602 0.0196,2.73606 0.76745,4.13343 0.74786,1.39739 2.54855,6.83064 4.00154,12.07392 l 2.64178,9.53324 h -45.12181 -45.12181 z m 76.0096,-23.15978 c -2.3236,-1.1879 -7.22472,-2.54846 -10.89139,-3.02348 l -6.66666,-0.8637 8,2.79655 c 9.87512,3.45203 10.64442,4.17124 8.67174,8.10727 -1.22674,2.4477 -0.8356,2.25812 1.76788,-0.85686 l 3.34316,-4 z m -26.58583,-7.31244 c -0.44306,-0.44306 -1.59306,-0.49042 -2.55556,-0.1052 -1.06364,0.42562 -0.7477,0.74157 0.80556,0.80554 1.40555,0.0579 2.19306,-0.25724 1.75,-0.70029 z m -20.97222,-7.19444 c -1.1,-0.71088 -2.6,-1.2925 -3.33333,-1.2925 -0.73334,0 -0.43334,0.58162 0.66666,1.2925 1.1,0.71088 2.6,1.29249 3.33334,1.29249 0.73333,0 0.43333,-0.58161 -0.66667,-1.29249 z m -61.02268,-14.567 c -3.12914,-0.5234 -8.46428,-2.90759 -11.85587,-5.2982 -4.80311,-3.38555 -6.41497,-3.95467 -7.29023,-2.57401 -0.80237,1.26565 -1.12956,0.91152 -1.14414,-1.23835 -0.0115,-1.69159 -3.37977,-7.03107 -7.687075,-12.18565 -7.102069,-8.49911 -13.228618,-17.47012 -11.930821,-17.47012 0.304301,0 2.830438,3.45 5.613638,7.66666 6.360092,9.63582 21.151258,24.33503 27.535938,27.36476 6.62759,3.14499 24.88532,3.16852 31.477,0.0405 2.621,-1.24374 8.71167,-5.86918 13.53484,-10.27877 4.82317,-4.40957 6.8194,-5.9134 4.43607,-3.34184 -3.26144,3.51903 -4.37236,5.97914 -4.49108,9.94544 -0.14142,4.72359 -0.24507,4.87661 -1,1.47625 l -0.84226,-3.79358 -3.58873,2.82907 c -7.62005,6.00702 -21.04983,8.81771 -32.76728,6.85778 z m 49.60569,-27.2048 c 2.05342,-2.69217 4.00314,-4.89487 4.3327,-4.89487 0.92621,0 -4.84607,7.79959 -6.55303,8.85455 -0.83224,0.51435 0.16691,-1.26751 2.22033,-3.95968 z m -57.20861,-6.14879 c -1.51907,-2.93756 -1.61559,-3.83245 -0.36144,-3.35118 2.52999,0.97085 5.15996,5.67418 3.68319,6.58689 -0.68709,0.42464 -2.18187,-1.03143 -3.32175,-3.23571 z m 63.29227,-2.74608 c 0.78493,-1.46666 1.72716,-2.66666 2.09382,-2.66666 0.36667,0 0.0244,1.2 -0.76049,2.66666 -0.78493,1.46667 -1.72716,2.66667 -2.09383,2.66667 -0.36666,0 -0.0244,-1.2 0.7605,-2.66667 z m -29.31292,-2.9213 c -0.0107,-1.24006 0.57958,-2.62547 1.31292,-3.0787 1.68746,-1.0429 1.68746,0.72218 0,3.33334 -1.11387,1.72358 -1.29532,1.68838 -1.31292,-0.25464 z M 80.284935,159.9787 c -1.153831,-2.54564 -1.629734,-4.62843 -1.057563,-4.62843 1.058008,0 4.321559,8.09074 3.567653,8.84464 -0.226718,0.22672 -1.35626,-1.67057 -2.51009,-4.21621 z m 104.284455,4.03824 c 0,-0.73333 0.58161,-2.23333 1.29249,-3.33333 0.71088,-1.1 1.29249,-1.4 1.29249,-0.66667 0,0.73333 -0.58161,2.23333 -1.29249,3.33333 -0.71088,1.1 -1.29249,1.4 -1.29249,0.66667 z M 72.528552,155.35027 c -1.466666,-1.46666 -2.648421,-3.41666 -2.626121,-4.33333 0.02229,-0.91667 0.728744,-0.46667 1.569877,1 0.841132,1.46667 2.472887,3.39759 3.626121,4.29093 1.153235,0.89334 1.64679,1.64334 1.09679,1.66667 -0.55,0.0233 -2.2,-1.1576 -3.666667,-2.62427 z m 114.666658,1.33334 c 0,-0.73334 0.63542,-1.33334 1.41203,-1.33334 0.77661,0 1.0412,0.6 0.58797,1.33334 -0.45322,0.73333 -1.08864,1.33333 -1.41202,1.33333 -0.32339,0 -0.58798,-0.6 -0.58798,-1.33333 z m -58.30817,-3 -2.77302,-3 3.29006,-4.66667 3.29005,-4.66667 -0.87151,4.8596 c -0.50254,2.80222 -0.23548,6.04803 0.63079,7.66667 1.97927,3.69829 -0.0721,3.58732 -3.56637,-0.19293 z m 63.64151,2.49658 c 0,-0.27686 0.91373,-1.26173 2.03052,-2.18858 1.6978,-1.40904 1.8929,-1.32656 1.19068,0.50341 -0.71719,1.86897 -3.2212,3.17896 -3.2212,1.68517 z M 75.405745,144.47309 c -1.582054,-5.2624 -2.64475,-9.79971 -2.361545,-10.08291 0.283204,-0.2832 1.819583,3.78041 3.414176,9.03027 1.594593,5.24985 2.657289,9.78716 2.361547,10.0829 -0.295744,0.29574 -1.832124,-3.76788 -3.414178,-9.03026 z m 114.609765,4.21052 c 0.0737,-2.99346 3.62741,-11.67914 3.74493,-9.15308 0.0557,1.19913 -0.77508,4.19913 -1.84637,6.66666 -1.0713,2.46754 -1.92566,3.58642 -1.89856,2.48642 z m 7.84637,-2.1896 c 0,-0.7154 0.93309,-2.4654 2.07356,-3.8889 1.95516,-2.44041 1.98292,-2.39786 0.48605,0.74516 -1.94374,4.08138 -2.55961,4.83779 -2.55961,3.14374 z M 64.528552,139.35027 c -0.784936,-1.46666 -1.127157,-2.66666 -0.76049,-2.66666 0.366666,0 1.308888,1.2 2.093824,2.66666 0.784936,1.46667 1.127157,2.66667 0.76049,2.66667 -0.366666,0 -1.308888,-1.2 -2.093824,-2.66667 z M 202.61426,137.6261 c 0.50071,-1.31496 1.24626,-2.05496 1.65678,-1.64444 0.41052,0.41052 8.5e-4,1.48639 -0.91038,2.39084 -1.31682,1.30701 -1.46997,1.15387 -0.7464,-0.7464 z M 68.861886,136.48475 c -1.837698,-1.83896 -2.235535,-5.96603 -0.666667,-6.91584 1.842992,-1.11576 3.805155,2.41504 3.065308,5.51584 -0.585749,2.45496 -1.064921,2.73464 -2.398641,1.4 z m 127.729484,-1.80114 c -0.012,-2.2 0.55963,-4.9 1.27051,-6 0.74155,-1.14746 1.3012,-1.33604 1.31292,-0.44239 0.0107,0.85669 0.33365,2.37391 0.71651,3.37159 0.38284,0.99769 -0.19808,2.99677 -1.29094,4.44238 -1.90353,2.51799 -1.98794,2.46036 -2.009,-1.37158 z M 89.567326,122.5898 l -3.463039,-4.86716 4.560927,-4.00455 c 4.29167,-3.76813 5.012627,-3.95181 12.212126,-3.11121 12.23162,1.42814 15.65121,2.88632 15.65121,6.67397 v 3.27713 l -2.66667,-3.19139 c -1.46667,-1.75526 -4.16667,-3.37699 -6,-3.60385 -3.3814,-0.41841 -3.42784,-0.25491 -1.68195,5.92087 0.3628,1.28333 -0.0103,2.33333 -0.82921,2.33333 -0.81886,0 -1.48884,0.66995 -1.48884,1.48877 0,0.87525 1.39544,1.22201 3.38618,0.84146 2.13766,-0.40864 3.20447,-0.0972 2.89335,0.84456 -0.28355,0.85833 -4.44611,1.65609 -9.80194,1.87856 l -9.309105,0.38668 z m 12.894554,2.11201 c 2.02222,-0.0142 2.24444,-0.37376 1,-1.6182 -0.88,-0.88 -1.6,-2.68 -1.6,-4 0,-2.70789 -3.504264,-3.29699 -4.362256,-0.73334 -0.306786,0.91667 -0.303107,0.0167 0.0081,-2 0.659855,-4.27492 -0.491127,-4.54131 -4.645913,-1.07525 -3.574279,2.98178 -3.668306,3.8611 -0.844039,7.8933 1.52664,2.17959 2.986131,2.8553 5,2.31488 1.564263,-0.41975 4.014078,-0.77137 5.444078,-0.78139 z m 52.73333,1.31513 c 0,-0.73333 1.44355,-1.33333 3.20788,-1.33333 2.94247,0 3.08038,-0.27495 1.66667,-3.32293 -0.84767,-1.82762 -2.29121,-3.32762 -3.20788,-3.33334 -0.91667,-0.006 -1.68563,-1.0604 -1.7088,-2.34373 -0.0339,-1.87504 -0.66995,-1.6202 -3.23856,1.29749 l -3.19641,3.63083 0.38094,-3.57298 c 0.43335,-4.0646 2.6825,-4.97037 15.82011,-6.37106 7.71593,-0.82264 8.49221,-0.65171 11.46987,2.52559 1.7566,1.87436 3.76645,3.05403 4.46636,2.62146 1.88318,-1.16387 -1.56662,5.06675 -4.72588,8.53533 -2.32371,2.55122 -4.09391,3 -11.83338,3 -5.17838,0 -9.10092,-0.57467 -9.10092,-1.33333 z m 20,-3.33333 3.13151,-3.33334 -3.13151,-3.33333 c -5.264,-5.60326 -13.17562,-4.02779 -9.43628,1.87909 1.39895,2.20984 0.36106,5.77114 -1.37009,4.70123 -0.65649,-0.40573 -1.19363,-0.14214 -1.19363,0.58576 0,0.7279 1.65,1.57341 3.66667,1.87891 2.01667,0.3055 4.01208,0.64536 4.43425,0.75523 0.42216,0.10988 2.17675,-1.30022 3.89908,-3.13355 z m 32.58071,-1.66667 c -0.4419,-2.01667 -1.02712,-4.39745 -1.30051,-5.29063 -0.27339,-0.89318 0.0865,-1.98464 0.79979,-2.42547 0.71326,-0.44082 0.87188,-1.51004 0.35248,-2.37603 -0.53799,-0.89698 0.0264,-0.78709 1.31158,0.25539 1.24078,1.00646 2.21378,2.80646 2.16223,4 -0.0732,1.69656 -0.36781,1.58821 -1.34992,-0.49659 -0.92664,-1.96705 -1.11993,-1.00508 -0.73675,3.66666 0.57695,7.03379 -0.007,8.29007 -1.2389,2.66667 z M 58.278597,117.5725 c -1.080852,-3.52174 -0.988891,-4.44445 0.442958,-4.44445 1.159042,0 1.806997,1.5937 1.806997,4.44445 0,2.44444 -0.19933,4.44444 -0.442958,4.44444 -0.243627,0 -1.056776,-2 -1.806997,-4.44444 z m 0.916622,-7.55556 c 1.1,-0.71087 2.6,-1.2925 3.333333,-1.2925 0.733334,0 0.433334,0.58163 -0.666666,1.2925 -1.1,0.71088 -2.6,1.2925 -3.333333,1.2925 -0.733334,0 -0.433334,-0.58162 0.666666,-1.2925 z"
     style="fill:#622f1d;stroke-width:1.33333325" />
  <path
     inkscape:connector-curvature="0"
     id="path296"
     d="m 19.807206,261.09955 c 0.684449,-8.21781 5.158445,-19.26108 9.177974,-22.65421 2.842351,-2.3994 2.849448,-2.39598 0.594224,0.28706 -3.273181,3.8941 -6.567355,12.05375 -8.592883,21.28454 l -1.755454,8 z m 58.767162,4.77489 c -3.249964,-8.83066 -5.958824,-17.72228 -5.529845,-18.15125 0.287583,-0.28759 2.185396,3.7146 4.217362,8.89375 2.031967,5.17914 3.31235,9.79876 2.845295,10.26581 -0.467056,0.46705 -1.156821,0.0133 -1.532812,-1.00831 z m 30.943962,-0.52417 C 103.26964,245.92536 99.218774,228.72232 99.364292,222.22855 l 0.169073,-7.54495 1.047935,8 c 0.57637,4.4 3.2204,15.47399 5.87563,24.60887 2.65523,9.13488 4.62328,17.53488 4.37346,18.66667 -0.34507,1.56326 -0.66039,1.41693 -1.31206,-0.60887 z m 15.01022,-0.37609 c 0,-1.30686 0.87511,-5.65686 1.9447,-9.66667 1.93576,-7.25705 1.92891,-7.30364 -1.49092,-10.13299 l -3.43563,-2.84241 5.49092,-5.49092 c 3.02001,-3.02 6.07005,-5.49092 6.77787,-5.49092 1.89435,0 10.71306,8.02981 10.71306,9.75471 0,0.81314 -1.55816,2.72089 -3.46258,4.23941 -3.18977,2.54344 -3.35817,3.17768 -2.13736,8.05009 0.72888,2.90902 1.67204,7.23912 2.09592,9.62246 l 0.77068,4.33333 h -8.63333 c -7.39252,0 -8.63333,-0.34151 -8.63333,-2.37609 z m 32,0.72002 c 0,-1.15526 2.15234,-9.50526 4.78298,-18.55554 2.63064,-9.05028 5.25456,-20.05506 5.83094,-24.45506 l 1.04793,-8 0.16908,7.50715 c 0.1168,5.18393 -1.46853,13.1828 -5.12261,25.84724 -5.15468,17.86525 -6.70832,21.9544 -6.70832,17.65621 z m 30.66666,0.75704 c 0,-1.37184 2.01872,-7.3949 5.23503,-15.61922 2.82227,-7.21675 2.7564,-2.64144 -0.0857,5.95344 -2.71511,8.21084 -5.1493,12.78006 -5.1493,9.66578 z m 59.45984,-5.7627 c -0.97117,-7.3211 -5.06167,-17.84236 -8.55515,-22.00494 -2.20396,-2.62608 -2.19424,-2.6297 0.63868,-0.23826 3.81835,3.2233 8.07168,13.36214 9.21215,21.95934 0.50675,3.82007 0.62136,6.94559 0.25469,6.94559 -0.36666,0 -1.06433,-2.99779 -1.55037,-6.66173 z M 82.270184,242.43499 c 0.451177,-0.73003 -0.956117,-2.64069 -3.127321,-4.24593 -4.109635,-3.03839 -5.045082,-6.00316 -2.4083,-7.63278 0.991985,-0.61308 1.17574,-0.36304 0.516776,0.70319 -0.632164,1.02285 0.606054,3.33487 3.243197,6.05571 3.072297,3.1698 3.802672,4.68736 2.610547,5.42413 -0.972514,0.60104 -1.316872,0.47552 -0.834899,-0.30432 z m 101.717786,-0.21403 c -0.38386,-0.6211 1.09616,-2.84816 3.28896,-4.94898 2.1928,-2.10084 3.67834,-4.62382 3.3012,-5.60662 -0.37714,-0.98281 -0.0925,-1.42036 0.63235,-0.97232 2.43377,1.50415 1.34907,4.45356 -2.69761,7.33506 -2.20862,1.57268 -3.67322,3.41353 -3.25464,4.0908 0.41857,0.67725 0.46102,1.23137 0.0944,1.23137 -0.36667,0 -0.98074,-0.50819 -1.36462,-1.12931 z M 35.861886,234.37968 c 1.45056,-1.48152 20.734452,-6.07273 21.652132,-5.15505 0.309449,0.30944 -4.135687,1.59224 -9.878081,2.85064 -5.742395,1.25841 -11.040717,2.59812 -11.774051,2.97712 -0.888889,0.4594 -0.888889,0.23516 0,-0.67271 z M 220.76216,232.4189 c -6.10484,-1.45584 -10.84998,-2.89671 -10.54475,-3.20195 0.82556,-0.82556 20.10693,3.61295 21.5778,4.96713 0.69667,0.6414 0.99667,1.1022 0.66667,1.02399 -0.33,-0.0783 -5.59487,-1.33333 -11.69972,-2.78917 z M 61.195219,227.35027 c 1.466667,-0.63025 3.566667,-1.14591 4.666667,-1.14591 1.260638,0 1.014185,0.42362 -0.666667,1.14591 -1.466667,0.63025 -3.566667,1.14591 -4.666667,1.14591 -1.260638,0 -1.014185,-0.42362 0.666667,-1.14591 z m 141.333321,0 c -1.68085,-0.72229 -1.9273,-1.14591 -0.66666,-1.14591 1.1,0 3.2,0.51566 4.66666,1.14591 1.68086,0.72229 1.92731,1.14591 0.66667,1.14591 -1.1,0 -3.2,-0.51566 -4.66667,-1.14591 z M 77.861885,222.01694 c 1.1,-0.71088 2.6,-1.2925 3.333334,-1.2925 0.733333,0 0.433333,0.58162 -0.666667,1.2925 -1.1,0.71088 -2.6,1.29249 -3.333333,1.29249 -0.733334,0 -0.433334,-0.58161 0.666666,-1.29249 z m 9.333333,0.95604 c 0,-0.25143 1.8,-2.18164 4,-4.28938 2.2,-2.10773 4,-3.23282 4,-2.5002 0,0.73263 -1.8,2.66284 -4,4.28938 -2.2,1.62653 -4,2.75161 -4,2.5002 z m 88.718772,-2.94499 c -2.17135,-1.77451 -3.6276,-3.54667 -3.23614,-3.93815 0.39147,-0.39146 2.43028,1.08199 4.53068,3.27434 4.59234,4.79336 4.07998,5.05608 -1.29454,0.66381 z m 11.28122,1.98895 c -1.1,-0.71088 -1.4,-1.2925 -0.66666,-1.2925 0.73333,0 2.23333,0.58162 3.33333,1.2925 1.1,0.71088 1.4,1.29249 0.66667,1.29249 -0.73334,0 -2.23334,-0.58161 -3.33334,-1.29249 z m -70.66666,-49.33333 c 0,-0.73334 0.63541,-1.33334 1.41202,-1.33334 0.77661,0 1.0412,0.6 0.58798,1.33334 -0.45323,0.73333 -1.08864,1.33333 -1.41203,1.33333 -0.32338,0 -0.58797,-0.6 -0.58797,-1.33333 z m -26.793893,-50.21272 -3.460561,-4.89735 4.311566,-3.7856 4.311567,-3.78561 10.475261,1.45698 c 9.43856,1.31278 17.47391,3.74054 12.74403,3.85042 -1.02324,0.0238 -1.34215,0.7301 -0.7708,1.70721 0.536,0.91667 -0.21796,0.62379 -1.67547,-0.65083 -1.45751,-1.27462 -4.57775,-2.70304 -6.93386,-3.17427 l -4.28385,-0.85677 2.37134,4.19967 c 1.89851,3.36229 2.02498,4.41835 0.63429,5.29645 -0.95538,0.60324 -1.55538,1.94181 -1.33334,2.9746 0.29777,1.38503 -1.3458,1.96765 -6.262945,2.22013 -6.317301,0.32437 -6.848017,0.0857 -10.127228,-4.55503 z m 13.290483,2.32236 c 1.47176,-0.0882 1.50621,-0.4997 0.17597,-2.10254 -0.90968,-1.0961 -1.33932,-3.19609 -0.95475,-4.66667 0.51099,-1.95406 0.0449,-2.67377 -1.73152,-2.67377 -1.336904,0 -2.665194,-0.70338 -2.951758,-1.56307 -0.340226,-1.02068 -1.978193,-0.48575 -4.720289,1.54157 l -4.199264,3.10465 2.721719,3.8223 c 2.113626,2.96832 3.515788,3.69103 6.275844,3.23474 1.954769,-0.32317 4.377588,-0.63691 5.384048,-0.69721 z m 58.73473,2.22369 c -0.94023,-3.07217 -1.49667,-6.23048 -1.5096,-8.56834 -0.0107,-2.02005 -0.61991,-2.66997 -2.00346,-2.13905 -1.09306,0.41945 -2.53824,-0.0748 -3.2115,-1.09832 -1.01714,-1.54631 -1.53131,-1.45982 -3.04108,0.51156 -1.54886,2.02244 -1.93038,2.07699 -2.58552,0.3697 -0.87307,-2.27517 4.29664,-3.95157 16.49784,-5.3498 6.71705,-0.76976 7.6601,-0.54521 10.52714,2.50661 1.73203,1.84367 3.75464,2.97791 4.49468,2.52054 1.66524,-1.02918 0.32246,1.40504 -3.99772,7.2471 -2.78006,3.7594 -3.99017,4.33333 -9.13662,4.33333 -3.26268,0 -5.97806,-0.15 -6.03416,-0.33333 z m 13.43534,-4.33333 3.13151,-3.33334 -3.13151,-3.33333 c -5.264,-5.60326 -13.17562,-4.02779 -9.43628,1.87909 1.39895,2.20984 0.36106,5.77114 -1.37009,4.70123 -0.65649,-0.40573 -1.19363,-0.14214 -1.19363,0.58576 0,0.7279 1.65,1.57341 3.66667,1.87891 2.01667,0.3055 4.01208,0.64536 4.43425,0.75523 0.42216,0.10988 2.17675,-1.30022 3.89908,-3.13355 z"
     style="fill:#21150e;stroke-width:1.33333325" />
</svg>
