<!DOCTYPE svg PUBLIC "-//W3C//DTD SVG 20010904//EN" "http://www.w3.org/TR/2001/REC-SVG-20010904/DTD/svg10.dtd">
<svg version="1.0" xmlns="http://www.w3.org/2000/svg" width="200px" height="200px" viewBox="0 0 2000 2000" preserveAspectRatio="xMidYMid meet">
<g id="layer101" fill="#f3f1f4" stroke="none">
 <path d="M130 1990 c0 -32 26 -122 47 -160 30 -57 76 -82 197 -110 115 -26 314 -95 339 -118 26 -23 64 -103 60 -124 -2 -9 -29 -35 -59 -58 -67 -50 -99 -98 -115 -172 -11 -51 -15 -58 -36 -58 -16 0 -29 -10 -41 -31 -9 -17 -34 -54 -55 -82 -20 -28 -42 -68 -49 -88 -14 -49 -2 -144 21 -167 15 -14 19 -39 24 -127 9 -186 54 -280 180 -380 89 -71 176 -118 247 -134 103 -24 243 -5 335 43 66 36 189 132 220 172 57 75 95 211 95 343 0 55 4 71 20 86 29 26 29 166 0 210 -69 103 -108 150 -126 153 -17 2 -24 15 -33 60 -16 74 -48 122 -115 172 -30 22 -56 50 -59 62 -6 22 29 92 61 121 24 22 225 91 338 117 121 28 167 53 197 110 21 38 47 128 47 160 0 6 -327 10 -870 10 -543 0 -870 -4 -870 -10z"/>
 </g>
<g id="layer102" fill="#e0dde3" stroke="none">
 <path d="M130 1990 c0 -32 26 -122 47 -160 30 -57 76 -82 197 -110 115 -26 314 -95 339 -118 26 -23 64 -103 60 -124 -2 -9 -29 -35 -59 -58 -67 -50 -99 -98 -115 -172 -11 -51 -15 -58 -36 -58 -16 0 -29 -10 -41 -31 -9 -17 -34 -54 -55 -82 -20 -28 -42 -68 -49 -88 -14 -49 -2 -144 21 -167 15 -14 19 -39 24 -127 9 -186 54 -280 180 -380 89 -71 176 -118 247 -134 103 -24 243 -5 335 43 66 36 189 132 220 172 57 75 95 211 95 343 0 55 4 71 20 86 29 26 29 166 0 210 -69 103 -108 150 -126 153 -17 2 -24 15 -33 60 -16 74 -48 122 -115 172 -30 22 -56 50 -59 62 -6 22 29 92 61 121 24 22 225 91 338 117 121 28 167 53 197 110 21 38 47 128 47 160 0 6 -138 10 -356 10 l-356 0 5 -21 c6 -22 -18 -79 -55 -131 -19 -27 -20 -28 -44 -10 -25 18 -27 40 -8 135 l6 27 -72 0 c-63 0 -71 -2 -67 -17 32 -121 32 -113 8 -136 -22 -22 -22 -22 -37 -2 -33 43 -63 113 -57 134 l5 21 -356 0 c-218 0 -356 -4 -356 -10z m805 -217 l34 -32 -27 -19 c-15 -11 -50 -31 -79 -46 -59 -29 -71 -46 -80 -113 l-6 -48 -17 39 c-14 35 -15 48 -4 105 10 54 42 166 70 250 3 8 19 -10 40 -45 19 -32 50 -73 69 -91z m264 50 c47 -152 60 -227 45 -255 l-12 -23 -8 30 c-13 52 -33 72 -115 115 -43 22 -79 42 -79 43 0 2 22 26 48 54 26 28 56 70 67 92 10 23 19 41 21 41 2 0 17 -44 33 -97z m-319 -907 c0 -7 -11 -23 -24 -35 l-24 -23 1 24 c0 13 -3 30 -7 39 -6 13 -1 15 24 11 16 -2 30 -10 30 -16z m290 -1 c-5 -14 -7 -32 -3 -41 5 -14 3 -15 -14 -6 -51 28 -52 56 -3 65 14 2 26 5 27 6 1 0 -2 -10 -7 -24z m-435 -25 c0 -44 -2 -45 -40 -28 -30 14 -31 22 -5 48 31 31 45 25 45 -20z m571 19 c21 -23 10 -52 -22 -57 -16 -2 -19 4 -19 38 0 44 12 51 41 19z"/>
 </g>
<g id="layer103" fill="#edcdc7" stroke="none">
 <path d="M130 1990 c0 -32 26 -122 47 -160 30 -57 76 -82 197 -110 122 -28 316 -96 342 -121 25 -24 29 -18 39 57 10 83 59 261 74 274 3 3 7 20 7 38 l2 32 -354 0 c-217 0 -354 -4 -354 -10z"/>
 <path d="M923 1983 c30 -109 32 -125 12 -139 -28 -21 -33 -18 -65 33 -17 26 -30 42 -30 37 0 -17 100 -154 116 -161 25 -9 16 -18 -62 -63 -84 -48 -100 -66 -109 -125 -4 -22 -8 -49 -10 -60 -2 -11 -4 -25 -4 -31 -1 -7 -26 -30 -56 -53 -68 -51 -99 -99 -116 -173 -11 -51 -15 -58 -36 -58 -16 0 -29 -10 -41 -31 -9 -17 -34 -54 -55 -82 -20 -28 -42 -68 -49 -88 -14 -49 -2 -144 21 -167 15 -14 19 -39 24 -127 9 -186 54 -280 180 -380 89 -71 176 -118 247 -134 103 -24 243 -5 335 43 66 36 189 132 220 172 57 75 95 211 95 343 0 55 4 71 20 86 29 26 29 166 0 210 -69 103 -108 150 -126 153 -17 2 -24 15 -33 60 -17 74 -48 122 -116 173 -30 23 -56 49 -57 58 -1 9 -2 23 -4 31 -1 8 -2 32 -3 52 -1 52 -38 90 -127 134 l-75 37 44 46 c46 48 97 119 97 135 0 6 -14 -12 -31 -40 -17 -27 -33 -51 -34 -52 -2 -2 -15 4 -30 15 -26 19 -28 39 -9 136 l6 27 -72 0 c-63 0 -71 -2 -67 -17z m88 -836 c-1 -12 -15 -9 -19 4 -3 6 1 10 8 8 6 -3 11 -8 11 -12z m-123 -222 c7 -6 -21 -42 -41 -54 -18 -12 -19 -11 -15 7 3 12 -1 30 -8 41 -14 19 -13 20 23 14 21 -3 39 -7 41 -8z m287 -9 c-9 -13 -13 -31 -9 -41 8 -20 -5 -15 -38 13 -27 23 -21 40 15 45 17 2 35 5 40 5 4 1 1 -9 -8 -22z m-440 -26 c0 -44 -1 -45 -39 -30 -31 11 -33 23 -6 50 31 31 45 25 45 -20z m566 27 c26 -20 30 -46 9 -57 -35 -19 -45 -12 -45 30 0 41 9 48 36 27z"/>
 <path d="M1163 1986 c3 -8 9 -32 13 -53 4 -21 10 -45 15 -54 14 -27 49 -167 49 -196 0 -16 5 -45 11 -67 l11 -38 22 21 c26 25 219 93 342 121 121 28 167 53 197 110 21 38 47 128 47 160 0 6 -138 10 -356 10 -305 0 -355 -2 -351 -14z"/>
 </g>
<g id="layer104" fill="#d4ced6" stroke="none">
 <path d="M130 1990 c0 -32 26 -122 47 -160 30 -57 76 -82 197 -110 122 -28 316 -96 342 -121 25 -24 29 -18 39 57 10 83 59 261 74 274 3 3 7 20 7 38 l2 32 -354 0 c-217 0 -354 -4 -354 -10z"/>
 <path d="M923 1983 c30 -109 32 -125 12 -139 -28 -21 -33 -18 -65 33 -17 26 -30 42 -30 37 0 -17 100 -154 116 -161 25 -9 16 -18 -61 -63 -71 -40 -106 -71 -105 -95 1 -5 7 2 16 17 19 36 53 55 65 37 7 -11 9 -11 9 1 0 18 104 90 129 90 28 0 151 142 151 174 0 6 -14 -12 -31 -40 -17 -27 -33 -51 -34 -52 -2 -2 -15 4 -30 15 -26 19 -28 39 -9 136 l6 27 -72 0 c-63 0 -71 -2 -67 -17z"/>
 <path d="M1163 1986 c3 -8 9 -32 13 -53 4 -21 10 -45 15 -54 14 -27 49 -167 49 -196 0 -16 5 -45 11 -67 l11 -38 22 21 c26 25 219 93 342 121 121 28 167 53 197 110 21 38 47 128 47 160 0 6 -138 10 -356 10 -305 0 -355 -2 -351 -14z"/>
 <path d="M1035 1719 c3 -4 35 -22 70 -39 62 -30 105 -69 105 -96 0 -17 -26 -19 -36 -3 -3 6 -25 20 -48 30 -81 37 -271 18 -300 -30 -4 -6 -16 -11 -27 -11 -14 0 -19 -7 -20 -30 -1 -16 -3 -34 -4 -40 -1 -5 -3 -16 -4 -24 0 -7 -26 -32 -56 -55 -68 -51 -99 -99 -116 -173 -11 -51 -15 -58 -36 -58 -16 0 -29 -10 -41 -31 -9 -17 -34 -54 -55 -82 -20 -28 -42 -68 -49 -88 -14 -49 -2 -144 21 -167 15 -14 19 -39 24 -127 9 -186 54 -280 180 -380 89 -71 176 -118 247 -134 103 -24 243 -5 335 43 66 36 189 132 220 172 57 75 95 211 95 343 0 55 4 71 20 86 29 26 29 166 0 210 -69 103 -108 150 -126 153 -17 2 -24 15 -33 60 -17 74 -48 122 -116 173 -30 23 -56 49 -57 58 -1 9 -2 23 -4 31 -1 8 -2 32 -3 52 -1 51 -37 89 -121 131 -38 19 -67 31 -65 26z m86 -222 c54 -28 194 -140 217 -175 9 -14 35 -97 58 -186 34 -131 39 -162 28 -171 -11 -8 -10 -23 3 -85 13 -65 14 -97 4 -236 -14 -209 -26 -247 -94 -311 -29 -28 -72 -60 -95 -72 l-42 -21 -33 36 c-86 99 -239 98 -326 -1 l-33 -38 -45 22 c-25 12 -69 45 -99 73 -70 66 -82 105 -96 318 -9 139 -8 176 5 235 12 56 12 72 2 80 -10 8 -4 44 29 171 23 89 49 172 58 186 23 35 163 147 217 175 35 18 61 23 121 23 60 0 86 -5 121 -23z m-545 -343 c-3 -9 -6 -20 -6 -24 0 -10 -55 -69 -85 -91 -13 -9 -9 -1 10 25 16 21 30 45 31 53 3 18 34 53 47 53 5 0 6 -7 3 -16z m880 -9 c9 -14 14 -29 10 -32 -3 -4 11 -24 31 -46 21 -22 29 -35 18 -29 -39 21 -95 96 -95 128 0 13 22 0 36 -21z m-939 -152 c-3 -10 -5 -2 -5 17 0 19 2 27 5 18 2 -10 2 -26 0 -35z m-28 -50 c6 -13 8 -23 3 -23 -13 0 -32 47 -31 78 l1 27 7 -30 c4 -16 13 -40 20 -52z m1035 -5 c-9 -18 -19 -27 -21 -21 -3 7 3 23 11 35 9 12 17 34 17 48 l2 25 4 -27 c2 -15 -4 -42 -13 -60z m-1044 -40 c0 -4 -4 -10 -10 -13 -5 -3 -10 -5 -10 -3 0 2 -4 19 -10 38 l-10 35 20 -25 c11 -14 20 -28 20 -32z m1070 30 c0 -27 -16 -55 -26 -46 -6 7 14 68 22 68 2 0 4 -10 4 -22z"/>
 <path d="M980 1350 c-11 -7 -2 -10 29 -10 48 0 51 4 11 13 -14 3 -32 2 -40 -3z"/>
 <path d="M880 1332 c0 -30 154 -48 213 -25 20 9 37 20 37 25 0 6 -7 7 -17 2 -23 -12 -193 -12 -215 0 -11 5 -18 4 -18 -2z"/>
 <path d="M944 1186 c-36 -36 -41 -55 -23 -87 6 -12 17 -48 25 -82 l14 -62 -6 106 c-6 102 -5 107 16 122 17 12 28 13 42 6 23 -12 24 0 1 17 -26 19 -31 18 -69 -20z"/>
 <path d="M739 951 c-26 -9 -54 -22 -63 -30 -18 -15 -22 -71 -5 -71 5 0 7 -5 3 -12 -5 -8 0 -9 14 -6 12 4 20 2 16 -3 -3 -5 1 -9 9 -9 8 0 28 -7 43 -15 l29 -15 -25 0 c-46 1 -115 21 -127 37 -7 9 -15 14 -18 11 -3 -3 4 -17 17 -32 25 -28 93 -46 175 -46 24 0 60 -7 80 -15 43 -18 43 -18 43 -1 0 20 -39 46 -70 46 -21 0 -18 4 17 20 73 33 83 102 20 140 -38 24 -93 24 -158 1z m149 -26 c7 -6 -21 -42 -41 -54 -18 -12 -19 -11 -15 7 3 12 -1 30 -8 41 -14 19 -13 20 23 14 21 -3 39 -7 41 -8z m-153 -35 c0 -44 -1 -45 -39 -30 -31 11 -33 23 -6 50 31 31 45 25 45 -20z"/>
 <path d="M1120 959 c-87 -35 -78 -131 16 -159 28 -8 28 -8 4 -9 -31 -1 -70 -27 -70 -47 0 -17 0 -17 43 1 20 8 56 15 80 15 82 0 150 18 175 46 28 32 22 44 -7 15 -12 -12 -29 -21 -38 -21 -10 0 -36 -3 -58 -6 -37 -6 -39 -5 -20 9 11 8 35 18 52 21 18 4 32 11 31 14 -1 4 3 16 7 26 15 34 -15 69 -75 88 -62 19 -104 21 -140 7z m57 -40 c-8 -11 -12 -30 -9 -41 4 -17 2 -19 -14 -10 -11 6 -28 19 -38 31 -20 22 -17 26 34 34 14 2 29 5 33 6 5 0 2 -8 -6 -20z m124 -2 c26 -20 30 -46 9 -57 -35 -19 -45 -12 -45 30 0 41 9 48 36 27z"/>
 </g>
<g id="layer105" fill="#e6bfb7" stroke="none">
 <path d="M130 1990 c0 -32 26 -122 47 -160 30 -57 76 -82 197 -110 123 -28 316 -96 342 -121 21 -20 22 -20 28 -2 3 10 10 50 15 88 6 39 23 113 39 165 16 52 32 107 36 123 l6 27 -355 0 c-218 0 -355 -4 -355 -10z"/>
 <path d="M931 1958 c4 -24 12 -55 18 -70 9 -24 7 -29 -17 -47 l-27 -19 31 -39 c43 -52 72 -54 120 -7 l37 38 -28 23 c-25 22 -27 28 -20 71 3 26 9 57 12 70 5 21 3 22 -65 22 l-69 0 8 -42z"/>
 <path d="M1166 1973 c4 -16 20 -71 36 -123 16 -52 33 -127 38 -165 5 -39 12 -79 16 -88 6 -17 8 -17 28 2 26 25 220 93 342 121 121 28 167 53 197 110 21 38 47 128 47 160 0 6 -137 10 -355 10 l-355 0 6 -27z"/>
 <path d="M875 1609 c-89 -44 -95 -49 -95 -77 0 -51 -12 -71 -66 -112 -67 -50 -99 -98 -115 -172 -11 -51 -15 -58 -36 -58 -16 0 -29 -10 -41 -31 -9 -17 -34 -54 -55 -82 -20 -28 -42 -68 -49 -88 -14 -49 -2 -144 21 -167 15 -14 19 -39 24 -127 9 -186 54 -280 180 -380 89 -71 176 -118 247 -134 103 -24 243 -5 335 43 66 36 189 132 220 172 57 75 95 211 95 343 0 55 4 71 20 86 29 26 29 166 0 210 -69 103 -108 150 -126 153 -17 2 -24 15 -33 60 -16 74 -48 122 -115 172 -56 42 -66 60 -66 122 0 30 -3 36 -15 31 -9 -3 -24 2 -33 10 -56 51 -220 65 -297 26z m246 -112 c54 -28 194 -140 217 -175 9 -14 35 -97 58 -186 34 -131 39 -162 28 -171 -11 -8 -10 -23 3 -85 13 -65 14 -97 4 -236 -14 -209 -26 -247 -94 -311 -29 -28 -72 -60 -95 -72 l-42 -21 -33 36 c-86 99 -239 98 -326 -1 l-33 -38 -45 22 c-25 12 -69 45 -99 73 -70 66 -82 105 -96 318 -9 139 -8 176 5 235 12 56 12 72 2 80 -10 8 -4 44 29 171 23 89 49 172 58 186 23 35 163 147 217 175 35 18 61 23 121 23 60 0 86 -5 121 -23z m-545 -343 c-3 -9 -6 -20 -6 -24 0 -10 -55 -69 -85 -91 -13 -9 -9 -1 10 25 16 21 30 45 31 53 3 18 34 53 47 53 5 0 6 -7 3 -16z m880 -9 c9 -14 14 -29 10 -32 -3 -4 11 -24 31 -46 21 -22 29 -35 18 -29 -39 21 -95 96 -95 128 0 13 22 0 36 -21z m-939 -152 c-3 -10 -5 -2 -5 17 0 19 2 27 5 18 2 -10 2 -26 0 -35z m-28 -50 c6 -13 8 -23 3 -23 -13 0 -32 47 -31 78 l1 27 7 -30 c4 -16 13 -40 20 -52z m1035 -5 c-9 -18 -19 -27 -21 -21 -3 7 3 23 11 35 9 12 17 34 17 48 l2 25 4 -27 c2 -15 -4 -42 -13 -60z m-1044 -40 c0 -4 -4 -10 -10 -13 -5 -3 -10 -5 -10 -3 0 2 -4 19 -10 38 l-10 35 20 -25 c11 -14 20 -28 20 -32z m1070 30 c0 -27 -16 -55 -26 -46 -6 7 14 68 22 68 2 0 4 -10 4 -22z"/>
 <path d="M980 1350 c-11 -7 -2 -10 29 -10 48 0 51 4 11 13 -14 3 -32 2 -40 -3z"/>
 <path d="M880 1332 c0 -30 154 -48 213 -25 20 9 37 20 37 25 0 6 -7 7 -17 2 -23 -12 -193 -12 -215 0 -11 5 -18 4 -18 -2z"/>
 <path d="M944 1186 c-36 -36 -41 -55 -23 -87 6 -12 17 -48 25 -82 l14 -62 -6 106 c-6 102 -5 107 16 122 17 12 28 13 42 6 23 -12 24 0 1 17 -26 19 -31 18 -69 -20z"/>
 <path d="M739 951 c-26 -9 -54 -22 -63 -30 -18 -15 -22 -71 -5 -71 5 0 7 -5 3 -12 -5 -8 0 -9 14 -6 12 4 20 2 16 -3 -3 -5 1 -9 9 -9 8 0 28 -7 43 -15 l29 -15 -25 0 c-46 1 -115 21 -127 37 -7 9 -15 14 -18 11 -3 -3 4 -17 17 -32 25 -28 93 -46 175 -46 24 0 60 -7 80 -15 43 -18 43 -18 43 -1 0 20 -39 46 -70 46 -21 0 -18 4 17 20 73 33 83 102 20 140 -38 24 -93 24 -158 1z m149 -27 c8 -6 -20 -44 -40 -55 -19 -10 -20 -9 -16 9 3 11 -1 30 -8 41 -14 19 -13 20 23 14 21 -3 39 -7 41 -9z m-156 -19 c-2 -14 1 -32 8 -40 10 -13 9 -15 -9 -15 -30 0 -61 18 -61 35 0 15 37 45 56 45 7 0 9 -10 6 -25z"/>
 <path d="M1120 959 c-87 -35 -78 -131 16 -159 28 -8 28 -8 4 -9 -31 -1 -70 -27 -70 -47 0 -17 0 -17 43 1 20 8 56 15 80 15 82 0 150 18 175 46 28 32 22 44 -7 15 -12 -12 -29 -21 -38 -21 -10 0 -36 -3 -58 -6 -37 -6 -39 -5 -20 9 11 8 35 18 52 21 18 4 32 11 31 14 -1 4 3 16 7 26 15 34 -15 69 -75 88 -62 19 -104 21 -140 7z m57 -40 c-8 -11 -13 -29 -10 -40 8 -28 -9 -23 -42 11 -29 30 -28 33 20 43 43 10 47 8 32 -14z m133 -9 c25 -25 25 -37 1 -50 -37 -19 -47 -12 -46 30 0 45 14 51 45 20z"/>
 </g>
<g id="layer106" fill="#dfd0b5" stroke="none">
 <path d="M130 1990 c0 -32 26 -122 47 -160 30 -57 76 -82 197 -110 123 -28 316 -96 342 -121 21 -20 22 -20 28 -2 3 10 10 50 15 88 6 39 23 113 39 165 16 52 32 107 36 123 l6 27 -355 0 c-218 0 -355 -4 -355 -10z"/>
 <path d="M931 1958 c4 -24 12 -55 18 -70 9 -24 7 -29 -17 -47 l-27 -19 31 -39 c43 -52 72 -54 120 -7 l37 38 -28 23 c-25 22 -27 28 -20 71 3 26 9 57 12 70 5 21 3 22 -65 22 l-69 0 8 -42z"/>
 <path d="M1166 1973 c4 -16 20 -71 36 -123 16 -52 33 -127 38 -165 5 -39 12 -79 16 -88 6 -17 8 -17 28 2 26 25 220 93 342 121 121 28 167 53 197 110 21 38 47 128 47 160 0 6 -137 10 -355 10 l-355 0 6 -27z"/>
 <path d="M922 1619 c-42 -8 -99 -37 -126 -64 -7 -8 -16 -31 -20 -53 -5 -33 -15 -46 -61 -81 -68 -51 -99 -99 -116 -173 -11 -51 -15 -58 -36 -58 -16 0 -29 -10 -41 -31 -9 -17 -34 -54 -55 -82 -20 -28 -42 -68 -49 -88 -14 -49 -2 -144 21 -167 15 -14 19 -39 24 -127 8 -164 54 -279 141 -349 23 -20 45 -36 48 -36 3 0 20 -13 37 -29 38 -36 139 -86 201 -100 134 -31 311 9 415 93 48 39 23 40 -35 1 -62 -42 -74 -43 -96 -10 -9 14 -38 38 -63 53 -84 49 -213 29 -269 -43 -12 -14 -22 -31 -24 -37 -6 -18 -106 41 -163 97 -61 60 -70 88 -86 272 -13 147 -13 206 1 266 14 63 13 97 -5 97 -19 0 -19 1 10 101 13 47 32 117 40 155 9 38 27 85 39 104 29 44 202 177 247 191 46 13 145 14 194 0 53 -14 235 -158 257 -202 14 -28 98 -323 98 -343 0 -3 -7 -6 -15 -6 -17 0 -19 -34 -5 -95 13 -58 13 -114 1 -263 -13 -162 -24 -206 -62 -254 -16 -20 -25 -39 -20 -43 17 -10 111 93 137 149 31 67 54 186 54 275 0 55 4 71 20 86 17 15 20 31 20 100 0 72 -3 86 -25 116 -14 19 -37 53 -52 77 -28 42 -51 58 -38 25 4 -10 8 -23 9 -29 1 -6 16 -28 34 -50 18 -21 32 -44 32 -51 0 -7 5 -13 10 -13 6 0 10 -5 10 -11 0 -5 -4 -7 -10 -4 -5 3 -10 2 -10 -4 0 -5 -3 -18 -7 -28 -7 -17 -6 -17 11 0 22 21 31 16 17 -10 -5 -10 -14 -32 -20 -50 -7 -25 -7 -32 4 -35 10 -2 12 -8 5 -18 -10 -17 -22 -8 -25 18 -1 9 -8 29 -14 43 -11 22 -10 31 3 57 23 45 21 52 -29 98 -57 53 -83 114 -50 114 8 0 15 5 15 10 0 6 -8 10 -18 10 -15 0 -22 13 -31 58 -16 74 -48 122 -115 172 -55 42 -66 60 -66 118 0 19 -4 31 -10 27 -5 -3 -26 6 -47 19 -60 40 -151 53 -241 35z m-346 -471 c-3 -13 -13 -51 -22 -85 -9 -35 -20 -61 -24 -58 -5 3 -6 -5 -3 -17 4 -22 4 -22 -10 -5 -8 10 -12 27 -10 38 5 16 8 18 15 7 8 -10 9 -10 5 2 -2 8 2 21 10 28 15 16 17 32 3 32 -5 0 -10 -6 -10 -13 0 -7 -13 -23 -30 -35 -35 -26 -36 -38 -13 -87 15 -31 15 -37 3 -45 -8 -6 -11 -10 -7 -10 5 0 5 -6 1 -12 -5 -7 -9 -21 -9 -30 -2 -23 -11 -32 -24 -23 -16 9 -13 25 3 25 13 0 13 5 0 38 -8 20 -19 45 -24 54 -6 11 -6 19 0 23 5 3 16 -8 25 -25 21 -41 27 -38 9 5 -7 19 -14 38 -14 43 0 17 67 111 75 104 5 -4 5 -2 1 5 -9 16 22 63 41 63 11 0 14 -6 9 -22z m900 -106 c5 1 10 -12 12 -29 2 -20 -1 -33 -8 -33 -7 0 -9 7 -6 16 3 8 2 12 -4 9 -6 -3 -10 -3 -10 2 0 4 -3 19 -6 33 -4 17 -3 21 4 12 5 -8 13 -12 18 -10z"/>
 <path d="M910 1316 c34 -21 156 -21 190 0 l25 15 -25 -8 c-26 -8 -133 -6 -185 3 l-30 5 25 -15z"/>
 <path d="M946 1189 c-31 -25 -33 -52 -6 -134 21 -66 25 -56 10 23 -6 34 -6 61 1 81 11 31 40 48 60 35 8 -4 9 -3 5 4 -11 18 -40 14 -70 -9z"/>
 <path d="M710 943 c-23 -9 -50 -35 -50 -49 0 -8 10 -3 25 11 32 33 54 33 47 0 -2 -14 1 -32 8 -40 10 -12 9 -15 -8 -15 -11 0 -33 5 -49 11 l-28 10 24 -25 c20 -22 34 -26 78 -26 29 0 70 7 92 16 46 18 81 62 60 74 -8 6 -23 -3 -43 -23 l-31 -32 -3 30 c-2 17 -9 36 -15 44 -10 11 -6 13 23 7 26 -4 30 -3 15 3 -22 10 -121 13 -145 4z"/>
 <path d="M1140 939 c-19 -6 -15 -7 15 -3 32 4 38 3 28 -7 -7 -7 -13 -26 -13 -41 0 -36 -7 -35 -47 4 -28 27 -33 29 -39 15 -8 -22 10 -44 57 -68 41 -21 132 -26 152 -9 7 6 21 18 32 26 l20 16 -20 -7 c-57 -21 -61 -19 -61 24 1 49 16 53 53 14 18 -19 24 -22 20 -10 -4 10 -7 20 -7 23 0 2 -13 10 -30 19 -31 16 -119 19 -160 4z"/>
 <path d="M620 827 c0 -3 10 -15 21 -26 22 -20 43 -26 169 -41 41 -5 85 -12 98 -16 13 -4 22 -2 22 4 0 23 -49 36 -157 42 -89 5 -117 11 -133 25 -11 10 -20 15 -20 12z"/>
 <path d="M1358 813 c-13 -12 -45 -18 -138 -23 -92 -5 -125 -11 -138 -23 -23 -24 -11 -29 39 -18 24 6 81 15 126 20 82 10 118 24 127 48 7 17 4 16 -16 -4z"/>
 </g>
<g id="layer107" fill="#ddafa5" stroke="none">
 <path d="M130 1990 c0 -32 26 -122 47 -160 30 -57 76 -82 197 -110 123 -28 316 -96 342 -121 21 -20 22 -20 28 -2 3 10 10 50 15 88 6 39 23 113 39 165 16 52 32 107 36 123 l6 27 -355 0 c-218 0 -355 -4 -355 -10z"/>
 <path d="M931 1958 c4 -24 12 -55 18 -70 9 -24 7 -29 -17 -47 l-27 -19 31 -39 c43 -52 72 -54 120 -7 l37 38 -28 23 c-25 22 -27 28 -20 71 3 26 9 57 12 70 5 21 3 22 -65 22 l-69 0 8 -42z"/>
 <path d="M1166 1973 c4 -16 20 -71 36 -123 16 -52 33 -127 38 -165 5 -39 12 -79 16 -88 6 -17 8 -17 28 2 26 25 220 93 342 121 121 28 167 53 197 110 21 38 47 128 47 160 0 6 -137 10 -355 10 l-355 0 6 -27z"/>
 <path d="M922 1619 c-42 -8 -99 -37 -126 -64 -7 -8 -16 -31 -20 -53 -5 -33 -15 -46 -61 -81 -68 -51 -99 -99 -116 -173 -11 -51 -15 -58 -36 -58 -16 0 -29 -10 -41 -31 -9 -17 -34 -54 -55 -82 -20 -28 -42 -68 -49 -88 -14 -49 -2 -144 21 -167 15 -14 19 -39 24 -127 8 -164 54 -279 141 -349 23 -20 45 -36 48 -36 3 0 20 -13 37 -29 38 -36 139 -86 201 -100 134 -31 311 9 415 93 48 39 23 40 -35 1 -62 -42 -74 -43 -96 -10 -9 14 -38 38 -63 53 -84 49 -213 29 -269 -43 -12 -14 -22 -31 -24 -37 -6 -18 -106 41 -163 97 -61 60 -70 88 -86 272 -13 147 -13 206 1 266 14 63 13 97 -5 97 -19 0 -19 1 10 101 13 47 32 117 40 155 9 38 27 85 39 104 29 44 202 177 247 191 46 13 145 14 194 0 53 -14 235 -158 257 -202 14 -28 98 -323 98 -343 0 -3 -7 -6 -15 -6 -17 0 -19 -34 -5 -95 13 -58 13 -114 1 -263 -13 -162 -24 -206 -62 -254 -16 -20 -25 -39 -20 -43 17 -10 111 93 137 149 31 67 54 186 54 275 0 55 4 71 20 86 17 15 20 31 20 100 0 72 -3 86 -25 116 -14 19 -37 53 -52 77 -28 42 -51 58 -38 25 4 -10 8 -23 9 -29 1 -6 16 -28 34 -50 18 -21 32 -44 32 -51 0 -7 5 -13 10 -13 6 0 10 -5 10 -11 0 -5 -4 -7 -10 -4 -5 3 -10 2 -10 -4 0 -5 -3 -18 -7 -28 -7 -17 -6 -17 11 0 22 21 31 16 17 -10 -5 -10 -14 -32 -20 -50 -7 -25 -7 -32 4 -35 10 -2 12 -8 5 -18 -10 -17 -22 -8 -25 18 -1 9 -8 29 -14 43 -11 22 -10 31 3 57 23 45 21 52 -29 98 -57 53 -83 114 -50 114 8 0 15 5 15 10 0 6 -8 10 -18 10 -15 0 -22 13 -31 58 -16 74 -48 122 -115 172 -55 42 -66 60 -66 118 0 19 -4 31 -10 27 -5 -3 -26 6 -47 19 -60 40 -151 53 -241 35z m-346 -471 c-3 -13 -13 -51 -22 -85 -9 -35 -20 -61 -24 -58 -5 3 -6 -5 -3 -17 4 -22 4 -22 -10 -5 -8 10 -12 27 -10 38 5 16 8 18 15 7 8 -10 9 -10 5 2 -2 8 2 21 10 28 15 16 17 32 3 32 -5 0 -10 -6 -10 -13 0 -7 -13 -23 -30 -35 -35 -26 -36 -38 -13 -87 15 -31 15 -37 3 -45 -8 -6 -11 -10 -7 -10 5 0 5 -6 1 -12 -5 -7 -9 -21 -9 -30 -2 -23 -11 -32 -24 -23 -16 9 -13 25 3 25 13 0 13 5 0 38 -8 20 -19 45 -24 54 -6 11 -6 19 0 23 5 3 16 -8 25 -25 21 -41 27 -38 9 5 -7 19 -14 38 -14 43 0 17 67 111 75 104 5 -4 5 -2 1 5 -9 16 22 63 41 63 11 0 14 -6 9 -22z m900 -106 c5 1 10 -12 12 -29 2 -20 -1 -33 -8 -33 -7 0 -9 7 -6 16 3 8 2 12 -4 9 -6 -3 -10 -3 -10 2 0 4 -3 19 -6 33 -4 17 -3 21 4 12 5 -8 13 -12 18 -10z"/>
 <path d="M910 1316 c34 -21 156 -21 190 0 l25 15 -25 -8 c-26 -8 -133 -6 -185 3 l-30 5 25 -15z"/>
 <path d="M946 1189 c-31 -25 -33 -52 -6 -134 21 -66 25 -56 10 23 -6 34 -6 61 1 81 11 31 40 48 60 35 8 -4 9 -3 5 4 -11 18 -40 14 -70 -9z"/>
 <path d="M710 943 c-23 -9 -50 -35 -50 -49 0 -8 10 -3 25 11 32 33 54 33 47 0 -2 -14 1 -32 8 -40 10 -12 9 -15 -8 -15 -11 0 -33 5 -49 11 l-28 10 24 -25 c20 -22 34 -26 78 -26 29 0 70 7 92 16 46 18 81 62 60 74 -8 6 -23 -3 -43 -23 l-31 -32 -3 30 c-2 17 -9 36 -15 44 -10 11 -6 13 23 7 26 -4 30 -3 15 3 -22 10 -121 13 -145 4z"/>
 <path d="M1140 939 c-19 -6 -15 -7 15 -3 32 4 38 3 28 -7 -7 -7 -13 -26 -13 -41 0 -36 -7 -35 -47 4 -28 27 -33 29 -39 15 -8 -22 10 -44 57 -68 41 -21 132 -26 152 -9 7 6 21 18 32 26 l20 16 -20 -7 c-57 -21 -61 -19 -61 24 1 49 16 53 53 14 18 -19 24 -22 20 -10 -4 10 -7 20 -7 23 0 2 -13 10 -30 19 -31 16 -119 19 -160 4z"/>
 <path d="M620 827 c0 -3 10 -15 21 -26 22 -20 43 -26 169 -41 41 -5 85 -12 98 -16 13 -4 22 -2 22 4 0 23 -49 36 -157 42 -89 5 -117 11 -133 25 -11 10 -20 15 -20 12z"/>
 <path d="M1358 813 c-13 -12 -45 -18 -138 -23 -92 -5 -125 -11 -138 -23 -23 -24 -11 -29 39 -18 24 6 81 15 126 20 82 10 118 24 127 48 7 17 4 16 -16 -4z"/>
 </g>
<g id="layer108" fill="#d4ad8e" stroke="none">
 <path d="M130 1990 c0 -32 26 -122 47 -160 30 -57 76 -82 197 -110 123 -28 316 -96 342 -121 21 -20 22 -20 28 -2 3 10 10 50 15 88 6 39 23 113 39 165 16 52 32 107 36 123 l6 27 -355 0 c-218 0 -355 -4 -355 -10z"/>
 <path d="M931 1958 c4 -24 12 -55 18 -70 9 -24 7 -29 -17 -47 l-27 -19 31 -39 c43 -52 72 -54 120 -7 l37 38 -28 23 c-25 22 -27 28 -20 71 3 26 9 57 12 70 5 21 3 22 -65 22 l-69 0 8 -42z"/>
 <path d="M1166 1973 c4 -16 20 -71 36 -123 16 -52 33 -127 38 -165 5 -39 12 -79 16 -88 6 -17 8 -17 28 2 26 25 220 93 342 121 121 28 167 53 197 110 21 38 47 128 47 160 0 6 -137 10 -355 10 l-355 0 6 -27z"/>
 <path d="M808 1559 c-10 -5 -22 -29 -29 -52 -6 -25 -24 -54 -45 -73 -19 -18 -34 -29 -34 -26 0 11 -51 -43 -70 -73 -10 -16 -24 -56 -31 -87 -10 -49 -15 -58 -34 -58 -24 0 -49 -22 -38 -33 3 -4 1 -7 -5 -7 -6 0 -14 -9 -17 -20 -4 -11 -18 -33 -32 -48 -35 -37 -63 -100 -63 -142 0 -51 16 -110 33 -123 11 -9 16 -42 20 -122 8 -164 54 -278 141 -349 54 -45 81 -47 38 -3 -39 41 -59 96 -67 189 -3 40 -11 111 -16 158 -8 69 -7 100 5 160 20 96 20 120 0 120 -19 0 -20 -7 30 185 20 77 45 153 54 170 23 38 173 161 232 188 33 15 65 21 120 21 55 0 87 -6 120 -21 59 -27 209 -150 232 -188 9 -17 34 -93 54 -170 50 -192 49 -185 30 -185 -20 0 -20 -24 0 -120 8 -41 13 -88 9 -105 -3 -16 -10 -87 -15 -156 -11 -139 -28 -200 -66 -240 -15 -16 -21 -29 -16 -33 18 -11 112 91 138 148 31 67 54 186 54 275 0 55 4 71 20 86 15 14 20 31 20 74 0 61 -14 60 -36 -4 -10 -30 -9 -35 3 -35 16 0 13 -22 -4 -27 -6 -2 -18 19 -27 48 -16 48 -16 54 -1 86 15 31 15 36 1 59 -21 31 -35 31 -28 -1 5 -26 -5 -62 -14 -52 -5 5 -54 176 -54 189 0 5 7 8 15 8 8 0 15 5 15 10 0 6 -8 10 -18 10 -15 0 -22 13 -31 58 -7 31 -21 71 -31 87 -19 30 -70 84 -70 73 0 -3 -16 9 -36 27 -29 27 -37 43 -44 87 -4 29 -8 47 -9 40 -1 -9 -6 -10 -20 -2 -25 13 -360 13 -383 -1z m-228 -397 c0 -6 -31 -124 -46 -174 -3 -9 -10 -18 -18 -21 -9 -4 -12 7 -10 40 3 44 3 45 -16 28 -24 -22 -25 -37 -5 -75 14 -27 14 -35 -1 -80 -9 -28 -21 -49 -27 -47 -17 5 -19 25 -3 29 12 2 11 12 -10 53 -24 49 -25 83 -3 69 8 -4 9 -3 5 4 -4 7 6 31 22 55 17 23 42 61 56 85 23 36 56 57 56 34z"/>
 <path d="M908 1318 c21 -21 154 -23 188 -3 16 9 20 13 9 9 -30 -11 -156 -12 -185 -2 -20 8 -23 7 -12 -4z"/>
 <path d="M958 1195 c-35 -20 -40 -40 -24 -100 l13 -50 -2 65 c-3 63 -2 65 29 82 17 9 27 17 21 17 -5 0 -22 -6 -37 -14z"/>
 <path d="M1460 1154 c0 -10 41 -76 68 -108 13 -17 28 -41 33 -54 5 -14 12 -22 15 -19 12 11 -6 57 -34 89 -16 18 -37 48 -47 66 -17 29 -35 42 -35 26z"/>
 <path d="M693 930 c-18 -11 -33 -26 -33 -34 0 -11 7 -8 25 9 32 33 54 33 47 0 -2 -14 1 -32 8 -40 10 -12 9 -15 -8 -15 -11 0 -33 5 -49 11 -27 10 -27 9 -11 -7 25 -25 125 -31 166 -10 18 9 34 16 37 16 3 0 4 1 3 3 -1 1 5 13 12 27 13 24 12 24 -21 -4 l-34 -29 -3 29 c-2 16 -9 35 -15 43 -10 12 -7 13 18 7 22 -5 26 -4 15 4 -27 18 -122 12 -157 -10z m127 -59 c0 -5 -7 -11 -15 -15 -15 -5 -20 5 -8 17 9 10 23 9 23 -2z"/>
 <path d="M1150 940 c-11 -8 -7 -9 15 -4 25 5 28 4 18 -7 -7 -7 -13 -26 -13 -41 0 -35 -7 -35 -42 -1 -15 15 -28 22 -28 16 0 -6 7 -16 15 -23 8 -6 13 -17 12 -23 -1 -6 3 -11 10 -12 6 0 15 -3 19 -7 14 -14 124 -8 155 8 17 8 29 18 26 21 -3 2 -15 0 -26 -6 -24 -13 -83 -11 -78 3 2 5 9 12 17 14 8 3 10 0 5 -8 -6 -9 -4 -11 4 -5 8 4 11 20 9 36 -6 37 14 38 47 3 26 -28 32 -26 15 6 -5 10 -24 23 -41 29 -40 14 -119 14 -139 1z"/>
 <path d="M630 815 c0 -17 63 -38 151 -49 57 -8 114 -17 127 -21 18 -6 21 -4 16 9 -9 23 -67 36 -159 36 -50 0 -90 6 -107 14 -16 8 -28 13 -28 11z"/>
 <path d="M1340 804 c-15 -8 -56 -14 -105 -14 -92 0 -150 -13 -159 -36 -5 -13 -2 -15 16 -9 13 4 70 13 127 21 89 12 151 32 151 49 0 6 1 6 -30 -11z"/>
 <path d="M939 336 c-38 -13 -99 -53 -99 -64 0 -4 -7 -15 -14 -25 -14 -17 -16 -17 -64 7 -28 14 -53 30 -57 36 -8 13 -25 13 -25 -1 0 -6 9 -13 20 -16 11 -3 20 -9 20 -13 0 -12 119 -68 170 -79 59 -14 146 -14 212 0 59 12 178 66 178 80 0 5 6 9 14 9 17 0 31 18 22 27 -3 4 -14 -1 -23 -9 -10 -9 -35 -24 -57 -35 l-39 -20 -40 44 c-28 30 -54 47 -90 58 -61 18 -81 18 -128 1z"/>
 </g>
<g id="layer109" fill="#d2988e" stroke="none">
 <path d="M130 1990 c0 -32 26 -122 47 -160 30 -57 76 -82 197 -110 123 -28 316 -96 342 -121 21 -20 22 -20 28 -2 3 10 10 50 15 88 6 39 23 113 39 165 16 52 32 107 36 123 l6 27 -355 0 c-218 0 -355 -4 -355 -10z"/>
 <path d="M931 1958 c4 -24 12 -55 18 -70 9 -24 7 -29 -17 -47 l-27 -19 31 -39 c43 -52 72 -54 120 -7 l37 38 -28 23 c-25 22 -27 28 -20 71 3 26 9 57 12 70 5 21 3 22 -65 22 l-69 0 8 -42z"/>
 <path d="M1166 1973 c4 -16 20 -71 36 -123 16 -52 33 -127 38 -165 5 -39 12 -79 16 -88 6 -17 8 -17 28 2 26 25 220 93 342 121 121 28 167 53 197 110 21 38 47 128 47 160 0 6 -137 10 -355 10 l-355 0 6 -27z"/>
 <path d="M1211 1565 c-1 -6 -68 -9 -188 -7 -103 2 -197 1 -209 -2 -17 -5 -26 -18 -35 -49 -6 -25 -24 -54 -45 -73 -19 -18 -34 -29 -34 -26 0 11 -51 -43 -70 -73 -10 -16 -24 -56 -31 -87 -10 -49 -15 -58 -34 -58 -24 0 -49 -22 -38 -33 3 -4 1 -7 -5 -7 -6 0 -14 -9 -17 -20 -4 -11 -18 -33 -32 -48 -37 -39 -63 -100 -63 -151 0 -37 2 -42 15 -31 13 10 15 9 15 -9 0 -12 -4 -19 -10 -16 -18 11 -10 -34 9 -52 15 -15 19 -38 24 -128 8 -164 54 -279 141 -349 57 -47 80 -46 34 2 -42 43 -68 119 -68 200 0 29 -5 95 -11 145 -9 76 -8 105 5 167 20 94 20 110 0 110 -19 0 -20 -7 30 185 20 77 45 153 54 170 23 38 173 161 232 188 33 15 65 21 120 21 55 0 87 -6 120 -21 59 -27 209 -150 232 -188 9 -17 34 -93 54 -170 50 -192 49 -185 30 -185 -20 0 -20 -18 0 -114 13 -63 14 -92 5 -164 -6 -48 -11 -112 -11 -143 0 -74 -24 -152 -61 -193 -16 -19 -25 -37 -20 -40 17 -11 111 91 137 148 31 67 54 186 54 275 0 55 4 71 20 86 21 19 30 92 10 80 -5 -3 -10 2 -11 12 0 10 -6 2 -12 -17 -10 -28 -10 -36 1 -38 15 -4 11 -24 -6 -30 -7 -2 -14 2 -16 10 -2 7 -9 30 -15 51 -11 32 -10 44 4 73 15 32 15 37 1 60 -21 31 -35 31 -28 -1 5 -26 -5 -62 -14 -52 -5 5 -54 176 -54 189 0 5 7 8 15 8 8 0 15 5 15 10 0 6 -8 10 -18 10 -15 0 -22 13 -31 58 -7 31 -21 71 -31 87 -19 30 -70 84 -70 73 0 -3 -16 9 -36 27 -29 27 -37 43 -44 87 -4 29 -8 49 -9 43z m-631 -403 c0 -6 -31 -124 -46 -174 -3 -9 -10 -18 -18 -21 -9 -4 -12 7 -10 40 3 44 3 45 -16 28 -24 -22 -25 -37 -5 -75 14 -27 14 -35 -1 -80 -9 -28 -21 -49 -27 -47 -17 5 -19 25 -3 29 12 2 11 12 -10 53 -24 49 -25 83 -3 69 8 -4 9 -3 5 4 -4 7 6 31 22 55 17 23 42 61 56 85 23 36 56 57 56 34z"/>
 <path d="M908 1318 c8 -8 43 -14 90 -15 63 -2 71 -1 42 7 -19 5 -47 7 -61 4 -14 -3 -39 0 -55 6 -24 9 -27 9 -16 -2z"/>
 <path d="M958 1195 c-32 -18 -42 -44 -29 -76 l10 -24 2 28 c1 15 2 33 3 40 1 6 15 20 31 29 36 21 21 23 -17 3z"/>
 <path d="M1460 1152 c0 -5 22 -40 48 -78 27 -38 52 -78 56 -89 6 -13 10 -16 13 -7 7 19 -16 70 -41 90 -11 10 -30 34 -40 55 -18 34 -36 49 -36 29z"/>
 <path d="M693 930 c-18 -11 -33 -26 -33 -34 0 -11 7 -8 25 9 32 33 54 33 47 0 -2 -14 1 -32 8 -40 10 -12 9 -15 -8 -15 -11 0 -33 5 -49 11 -27 10 -27 9 -11 -7 25 -25 125 -31 166 -10 18 9 34 16 37 16 3 0 4 1 3 3 -1 1 5 13 12 27 13 24 12 24 -21 -4 l-34 -29 -3 29 c-2 16 -8 34 -13 41 -7 7 -5 13 3 16 7 3 -12 6 -42 6 -38 1 -65 -5 -87 -19z m127 -59 c0 -5 -7 -11 -15 -15 -15 -5 -20 5 -8 17 9 10 23 9 23 -2z"/>
 <path d="M1150 940 c-11 -8 -8 -9 11 -4 15 3 30 1 34 -5 4 -7 1 -10 -7 -9 -8 2 -14 -9 -16 -29 -4 -40 -8 -40 -44 -6 -15 15 -28 22 -28 16 0 -6 7 -16 15 -23 8 -6 13 -17 12 -22 -5 -25 139 -36 183 -13 17 9 30 19 27 22 -3 2 -15 0 -26 -6 -24 -13 -83 -11 -78 3 2 5 9 12 17 14 8 3 10 0 5 -8 -6 -9 -4 -11 4 -5 8 4 11 20 9 36 -6 37 14 38 47 3 26 -28 32 -26 15 6 -5 10 -24 23 -41 29 -40 14 -119 14 -139 1z"/>
 <path d="M681 786 c4 -4 51 -12 105 -17 53 -6 106 -14 116 -20 20 -11 25 3 6 19 -14 11 -237 29 -227 18z"/>
 <path d="M1160 783 c-53 -4 -80 -16 -80 -35 0 -5 8 -5 18 1 10 6 63 14 116 20 162 16 125 26 -54 14z"/>
 <path d="M680 290 c0 -6 8 -14 18 -17 9 -4 25 -15 36 -24 23 -22 76 -42 76 -29 0 5 -22 21 -49 35 -27 13 -52 29 -56 35 -8 13 -25 13 -25 0z"/>
 <path d="M1291 287 c-6 -8 -28 -22 -49 -31 -21 -9 -43 -26 -50 -36 -10 -16 -4 -15 38 7 28 14 50 29 50 33 0 4 9 10 20 13 11 3 20 10 20 16 0 15 -15 14 -29 -2z"/>
 </g>
<g id="layer110" fill="#a9a3a0" stroke="none">
 <path d="M130 1990 c0 -32 26 -122 47 -160 30 -57 76 -82 197 -110 123 -28 316 -96 342 -121 21 -20 22 -20 28 -2 3 10 10 50 15 88 6 39 23 113 39 165 16 52 32 107 36 123 l6 27 -355 0 c-218 0 -355 -4 -355 -10z"/>
 <path d="M931 1958 c4 -24 12 -55 18 -70 9 -24 7 -29 -17 -47 l-27 -19 31 -39 c43 -52 72 -54 120 -7 l37 38 -28 23 c-25 22 -27 28 -20 71 3 26 9 57 12 70 5 21 3 22 -65 22 l-69 0 8 -42z"/>
 <path d="M1166 1973 c4 -16 20 -71 36 -123 16 -52 33 -127 38 -165 5 -39 12 -79 16 -88 6 -17 8 -17 28 2 26 25 220 93 342 121 121 28 167 53 197 110 21 38 47 128 47 160 0 6 -137 10 -355 10 l-355 0 6 -27z"/>
 <path d="M887 1535 c-21 -8 -49 -23 -63 -34 -14 -11 -32 -17 -40 -14 -9 3 -14 -2 -14 -16 0 -27 4 -27 49 10 21 17 65 39 97 49 34 11 48 19 34 19 -14 0 -42 -7 -63 -14z"/>
 <path d="M1084 1530 c32 -10 76 -32 97 -49 45 -37 49 -37 49 -10 0 14 -5 19 -14 16 -8 -3 -26 3 -40 14 -29 23 -99 49 -130 48 -11 0 5 -9 38 -19z"/>
 <path d="M668 1382 c-32 -34 -66 -86 -52 -81 20 8 95 97 86 103 -5 3 -20 -7 -34 -22z"/>
 <path d="M1297 1404 c-7 -7 68 -95 86 -103 15 -6 -25 58 -54 85 -14 13 -28 21 -32 18z"/>
 <path d="M590 1218 c0 -9 -3 -23 -6 -32 -3 -9 -2 -16 4 -16 14 0 23 43 12 54 -7 7 -10 4 -10 -6z"/>
 <path d="M1398 1224 c-9 -13 1 -54 13 -54 4 0 11 5 14 10 3 6 2 10 -4 10 -5 0 -11 10 -13 23 -2 12 -6 17 -10 11z"/>
 <path d="M530 1175 c-7 -8 -9 -15 -4 -15 5 0 3 -4 -5 -9 -7 -5 -12 -14 -10 -20 3 -7 14 1 27 18 22 30 15 54 -8 26z"/>
 <path d="M571 1114 c-6 -21 -9 -40 -6 -42 2 -2 8 13 14 34 6 21 9 40 6 42 -2 2 -8 -13 -14 -34z"/>
 <path d="M1416 1125 c4 -16 11 -37 15 -45 6 -10 7 -4 3 15 -4 17 -11 37 -15 45 -6 10 -7 4 -3 -15z"/>
 <path d="M475 1091 c-6 -11 9 -23 19 -14 9 9 7 23 -3 23 -6 0 -12 -4 -16 -9z"/>
 <path d="M1530 1056 c0 -7 41 -76 46 -76 10 0 2 30 -11 44 -9 8 -15 19 -15 23 1 4 -3 9 -9 11 -6 2 -11 1 -11 -2z"/>
 <path d="M425 1007 c-9 -25 -15 -61 -12 -83 l4 -39 1 42 c1 24 11 57 22 75 22 36 25 48 11 48 -5 0 -17 -19 -26 -43z"/>
 <path d="M482 1020 c-10 -17 -10 -27 4 -55 15 -32 15 -38 -1 -85 -17 -52 -23 -58 -43 -38 -9 9 -12 8 -12 -4 0 -9 6 -18 14 -21 9 -4 15 -36 19 -119 8 -167 53 -281 141 -352 57 -47 80 -46 34 1 -42 44 -68 120 -68 201 0 29 -5 95 -11 145 -9 76 -8 105 5 167 21 99 21 107 -9 112 -14 3 -25 2 -25 -2 0 -4 -7 -7 -15 -7 -8 0 -12 4 -9 9 3 5 0 15 -6 23 -10 12 -10 18 0 30 7 8 8 15 4 15 -5 0 -15 -9 -22 -20z"/>
 <path d="M1492 1029 c2 -7 10 -15 17 -17 8 -3 12 1 9 9 -2 7 -10 15 -17 17 -8 3 -12 -1 -9 -9z"/>
 <path d="M1443 972 c-28 -4 -28 -15 -7 -116 13 -63 14 -92 5 -164 -6 -48 -11 -112 -11 -143 0 -74 -24 -152 -61 -193 -16 -19 -25 -37 -20 -40 17 -11 111 91 137 148 31 67 54 186 54 275 0 55 4 71 20 86 20 18 29 62 10 50 -5 -3 -10 -1 -10 6 0 10 -3 10 -12 1 -10 -10 -10 -15 1 -21 15 -10 5 -34 -11 -29 -12 4 -39 74 -41 106 -2 27 -22 40 -54 34z"/>
 <path d="M693 930 c-18 -11 -33 -26 -33 -34 0 -11 7 -8 25 9 32 33 54 33 47 0 -2 -14 1 -32 8 -40 10 -12 9 -15 -8 -15 -11 0 -33 5 -49 11 -27 10 -27 9 -11 -7 12 -13 37 -19 80 -22 69 -3 116 16 139 60 11 20 8 19 -22 -6 l-34 -29 -3 29 c-2 16 -8 34 -13 41 -7 7 -5 13 3 16 7 3 -12 6 -42 6 -38 1 -65 -5 -87 -19z m127 -59 c0 -5 -7 -11 -15 -15 -15 -5 -20 5 -8 17 9 10 23 9 23 -2z"/>
 <path d="M1150 940 c-11 -8 -8 -9 11 -4 15 3 30 1 34 -5 4 -7 1 -10 -7 -9 -8 2 -14 -9 -16 -29 -4 -40 -8 -40 -44 -6 -15 15 -28 22 -28 17 0 -6 13 -23 30 -39 38 -37 128 -47 179 -20 18 9 31 19 28 22 -3 2 -15 0 -26 -6 -24 -13 -83 -11 -78 3 2 5 9 12 17 14 8 3 10 0 5 -8 -6 -9 -4 -11 4 -5 8 4 11 20 9 36 -6 37 14 38 47 3 26 -28 32 -26 15 6 -5 10 -24 23 -41 29 -40 14 -119 14 -139 1z"/>
 <path d="M681 786 c4 -4 51 -12 105 -17 53 -6 106 -14 116 -20 20 -11 25 3 6 19 -14 11 -237 29 -227 18z"/>
 <path d="M1160 783 c-53 -4 -80 -16 -80 -35 0 -5 8 -5 18 1 10 6 63 14 116 20 162 16 125 26 -54 14z"/>
 <path d="M690 280 c0 -5 7 -10 15 -10 8 0 15 -4 15 -10 0 -5 8 -10 18 -10 14 0 12 4 -8 20 -28 22 -40 25 -40 10z"/>
 <path d="M1270 270 c-20 -16 -22 -20 -7 -20 9 0 17 5 17 10 0 6 7 10 15 10 8 0 15 5 15 10 0 15 -12 12 -40 -10z"/>
 </g>
<g id="layer111" fill="#caa478" stroke="none">
 <path d="M130 1990 c0 -32 26 -122 47 -160 30 -57 76 -82 197 -110 123 -28 316 -96 342 -121 21 -20 22 -20 27 -2 3 10 9 45 13 78 4 33 20 103 36 155 16 52 33 112 37 133 l9 37 -354 0 c-217 0 -354 -4 -354 -10z"/>
 <path d="M930 1977 c0 -13 6 -45 14 -70 14 -46 14 -47 -13 -66 l-26 -20 40 -40 c21 -23 47 -41 56 -41 21 0 79 56 79 75 0 8 -10 21 -21 29 -19 13 -21 21 -15 63 4 26 10 58 13 71 5 21 3 22 -61 22 -63 0 -66 -1 -66 -23z"/>
 <path d="M1171 1961 c5 -21 20 -74 33 -117 14 -44 30 -110 36 -149 5 -38 13 -81 16 -94 l5 -24 22 22 c27 25 219 93 343 121 121 28 167 53 197 110 21 38 47 128 47 160 0 6 -137 10 -354 10 l-354 0 9 -39z"/>
 <path d="M887 1535 c-21 -8 -49 -23 -63 -34 -14 -11 -32 -17 -40 -14 -9 3 -14 -2 -14 -16 0 -27 4 -27 49 10 21 17 65 39 97 49 34 11 48 19 34 19 -14 0 -42 -7 -63 -14z"/>
 <path d="M1084 1530 c32 -10 76 -32 97 -49 45 -37 49 -37 49 -10 0 14 -5 19 -14 16 -8 -3 -26 3 -40 14 -29 23 -99 49 -130 48 -11 0 5 -9 38 -19z"/>
 <path d="M668 1382 c-32 -34 -66 -86 -52 -81 20 8 95 97 86 103 -5 3 -20 -7 -34 -22z"/>
 <path d="M1297 1404 c-7 -7 68 -95 86 -103 15 -6 -25 58 -54 85 -14 13 -28 21 -32 18z"/>
 <path d="M590 1218 c0 -9 -3 -23 -6 -32 -3 -9 -2 -16 4 -16 14 0 23 43 12 54 -7 7 -10 4 -10 -6z"/>
 <path d="M1398 1224 c-9 -13 1 -54 13 -54 4 0 11 5 14 10 3 6 2 10 -4 10 -5 0 -11 10 -13 23 -2 12 -6 17 -10 11z"/>
 <path d="M530 1175 c-7 -8 -9 -15 -4 -15 5 0 3 -4 -5 -9 -7 -5 -12 -14 -10 -20 3 -7 14 1 27 18 22 30 15 54 -8 26z"/>
 <path d="M571 1114 c-6 -21 -9 -40 -6 -42 2 -2 8 13 14 34 6 21 9 40 6 42 -2 2 -8 -13 -14 -34z"/>
 <path d="M1416 1125 c4 -16 11 -37 15 -45 6 -10 7 -4 3 15 -4 17 -11 37 -15 45 -6 10 -7 4 -3 -15z"/>
 <path d="M475 1091 c-6 -11 9 -23 19 -14 9 9 7 23 -3 23 -6 0 -12 -4 -16 -9z"/>
 <path d="M1530 1056 c0 -7 41 -76 46 -76 10 0 2 30 -11 44 -9 8 -15 19 -15 23 1 4 -3 9 -9 11 -6 2 -11 1 -11 -2z"/>
 <path d="M425 1007 c-9 -25 -15 -61 -12 -83 l4 -39 1 42 c1 24 11 57 22 75 22 36 25 48 11 48 -5 0 -17 -19 -26 -43z"/>
 <path d="M482 1020 c-10 -17 -10 -27 4 -55 15 -32 15 -38 -1 -85 -17 -52 -23 -58 -43 -38 -9 9 -12 8 -12 -4 0 -9 6 -18 14 -21 9 -4 15 -36 19 -119 8 -167 53 -281 141 -352 57 -47 80 -46 34 1 -42 44 -68 120 -68 201 0 29 -5 95 -11 145 -9 76 -8 105 5 167 21 99 21 107 -9 112 -14 3 -25 2 -25 -2 0 -4 -7 -7 -15 -7 -8 0 -12 4 -9 9 3 5 0 15 -6 23 -10 12 -10 18 0 30 7 8 8 15 4 15 -5 0 -15 -9 -22 -20z"/>
 <path d="M1492 1029 c2 -7 10 -15 17 -17 8 -3 12 1 9 9 -2 7 -10 15 -17 17 -8 3 -12 -1 -9 -9z"/>
 <path d="M1443 972 c-28 -4 -28 -15 -7 -116 13 -63 14 -92 5 -164 -6 -48 -11 -112 -11 -143 0 -74 -24 -152 -61 -193 -16 -19 -25 -37 -20 -40 17 -11 111 91 137 148 31 67 54 186 54 275 0 55 4 71 20 86 20 18 29 62 10 50 -5 -3 -10 -1 -10 6 0 10 -3 10 -12 1 -10 -10 -10 -15 1 -21 15 -10 5 -34 -11 -29 -12 4 -39 74 -41 106 -2 27 -22 40 -54 34z"/>
 <path d="M704 936 c-17 -8 -34 -22 -38 -32 -6 -16 -3 -15 17 4 33 31 59 30 51 -3 -4 -15 -1 -32 6 -40 10 -12 9 -15 -8 -15 -11 0 -32 4 -46 10 -39 14 -31 1 9 -16 74 -30 167 -8 196 48 10 21 8 20 -19 -5 -30 -28 -87 -45 -79 -23 2 6 12 10 21 10 18 -2 23 40 6 51 -6 4 -8 11 -5 16 9 14 -76 10 -111 -5z"/>
 <path d="M1185 936 c14 -11 15 -15 5 -14 -10 2 -16 -7 -18 -29 -4 -40 -8 -40 -44 -6 -15 15 -28 22 -28 17 0 -13 37 -47 67 -63 41 -21 163 -6 163 20 0 6 -8 5 -20 -1 -23 -13 -82 -10 -77 4 2 5 9 12 17 14 8 3 10 0 5 -8 -6 -9 -4 -11 4 -5 8 4 11 18 7 36 -7 35 14 39 44 9 11 -11 20 -16 20 -12 0 25 -44 46 -103 50 -58 4 -61 3 -42 -12z"/>
 <path d="M681 786 c4 -4 51 -12 105 -17 53 -6 106 -14 116 -20 20 -11 25 3 6 19 -14 11 -237 29 -227 18z"/>
 <path d="M1160 783 c-53 -4 -80 -16 -80 -35 0 -5 8 -5 18 1 10 6 63 14 116 20 162 16 125 26 -54 14z"/>
 <path d="M690 280 c0 -5 7 -10 15 -10 8 0 15 -4 15 -10 0 -5 8 -10 18 -10 14 0 12 4 -8 20 -28 22 -40 25 -40 10z"/>
 <path d="M1270 270 c-20 -16 -22 -20 -7 -20 9 0 17 5 17 10 0 6 7 10 15 10 8 0 15 5 15 10 0 15 -12 12 -40 -10z"/>
 </g>
<g id="layer112" fill="#c59771" stroke="none">
 <path d="M130 1990 c0 -32 26 -122 47 -160 30 -57 76 -82 197 -110 123 -28 316 -96 342 -121 21 -20 22 -20 27 -2 3 10 9 45 13 78 4 33 20 103 36 155 16 52 33 112 37 133 l9 37 -354 0 c-217 0 -354 -4 -354 -10z"/>
 <path d="M930 1977 c0 -13 6 -45 14 -70 14 -46 14 -47 -13 -66 l-26 -20 40 -40 c21 -23 47 -41 56 -41 21 0 79 56 79 75 0 8 -10 21 -21 29 -19 13 -21 21 -15 63 4 26 10 58 13 71 5 21 3 22 -61 22 -63 0 -66 -1 -66 -23z"/>
 <path d="M1171 1961 c5 -21 20 -74 33 -117 14 -44 30 -110 36 -149 5 -38 13 -81 16 -94 l5 -24 22 22 c27 25 219 93 343 121 121 28 167 53 197 110 21 38 47 128 47 160 0 6 -137 10 -354 10 l-354 0 9 -39z"/>
 <path d="M887 1535 c-21 -8 -49 -23 -63 -34 -14 -11 -32 -17 -40 -14 -9 3 -14 -2 -14 -16 0 -27 4 -27 49 10 21 17 65 39 97 49 34 11 48 19 34 19 -14 0 -42 -7 -63 -14z"/>
 <path d="M1084 1530 c32 -10 76 -32 97 -49 45 -37 49 -37 49 -10 0 14 -5 19 -14 16 -8 -3 -26 3 -40 14 -29 23 -99 49 -130 48 -11 0 5 -9 38 -19z"/>
 <path d="M668 1382 c-32 -34 -66 -86 -52 -81 20 8 95 97 86 103 -5 3 -20 -7 -34 -22z"/>
 <path d="M1297 1404 c-7 -7 68 -95 86 -103 15 -6 -25 58 -54 85 -14 13 -28 21 -32 18z"/>
 <path d="M590 1218 c0 -9 -3 -23 -6 -32 -3 -9 -2 -16 4 -16 14 0 23 43 12 54 -7 7 -10 4 -10 -6z"/>
 <path d="M1398 1224 c-9 -13 1 -54 13 -54 4 0 11 5 14 10 3 6 2 10 -4 10 -5 0 -11 10 -13 23 -2 12 -6 17 -10 11z"/>
 <path d="M530 1175 c-7 -8 -9 -15 -4 -15 5 0 3 -4 -5 -9 -7 -5 -12 -14 -10 -20 3 -7 14 1 27 18 22 30 15 54 -8 26z"/>
 <path d="M571 1114 c-6 -21 -9 -40 -6 -42 2 -2 8 13 14 34 6 21 9 40 6 42 -2 2 -8 -13 -14 -34z"/>
 <path d="M1416 1125 c4 -16 11 -37 15 -45 6 -10 7 -4 3 15 -4 17 -11 37 -15 45 -6 10 -7 4 -3 -15z"/>
 <path d="M475 1091 c-6 -11 9 -23 19 -14 9 9 7 23 -3 23 -6 0 -12 -4 -16 -9z"/>
 <path d="M1530 1056 c0 -7 41 -76 46 -76 10 0 2 30 -11 44 -9 8 -15 19 -15 23 1 4 -3 9 -9 11 -6 2 -11 1 -11 -2z"/>
 <path d="M425 1007 c-9 -25 -15 -61 -12 -83 l4 -39 1 42 c1 24 11 57 22 75 22 36 25 48 11 48 -5 0 -17 -19 -26 -43z"/>
 <path d="M482 1020 c-10 -17 -10 -27 4 -55 13 -28 14 -41 5 -66 -14 -39 -6 -53 9 -15 19 51 23 76 10 76 -6 0 -8 5 -5 10 4 6 1 17 -5 25 -10 12 -10 18 0 30 7 8 8 15 4 15 -5 0 -15 -9 -22 -20z"/>
 <path d="M1492 1029 c2 -7 10 -15 17 -17 8 -3 12 1 9 9 -2 7 -10 15 -17 17 -8 3 -12 -1 -9 -9z"/>
 <path d="M560 918 c-7 -24 -18 -74 -25 -113 l-12 -70 -16 32 c-9 18 -17 44 -17 59 0 22 -2 25 -15 14 -12 -10 -18 -10 -30 0 -12 10 -15 10 -15 -3 0 -8 6 -17 14 -20 9 -4 15 -36 18 -119 5 -87 12 -129 32 -183 14 -38 30 -71 36 -73 5 -2 8 -8 4 -13 -7 -12 104 -119 125 -119 9 0 -11 27 -51 68 -46 46 -73 84 -88 121 -21 54 -21 81 -1 42 6 -11 20 -25 30 -30 23 -13 23 -10 9 150 -9 107 -8 137 7 208 18 90 16 116 -5 49z m-20 -248 c0 -24 -2 -23 -35 15 -32 38 -44 73 -28 88 10 11 63 -75 63 -103z m-2 -39 c5 -3 12 -31 16 -61 7 -53 7 -54 -12 -37 -18 16 -27 33 -62 109 -7 15 -10 34 -6 44 6 14 10 12 31 -16 14 -19 29 -36 33 -39z"/>
 <path d="M1421 954 c-1 -7 6 -47 15 -90 14 -65 14 -97 6 -203 -14 -160 -14 -163 9 -150 10 5 24 19 30 30 18 34 21 14 4 -27 -9 -23 -12 -41 -6 -47 20 -20 61 162 61 273 0 54 4 70 20 85 20 18 29 62 10 50 -5 -3 -10 -1 -10 6 0 10 -3 10 -12 1 -10 -10 -10 -15 2 -22 12 -7 12 -12 3 -21 -9 -9 -16 -9 -28 1 -13 11 -15 9 -15 -14 0 -15 -8 -41 -17 -59 l-16 -32 -13 75 c-12 71 -42 169 -43 144z m109 -207 c-1 -12 -16 -40 -35 -62 -32 -37 -35 -38 -35 -16 0 27 50 112 62 105 4 -3 8 -15 8 -27z m0 -77 c0 -10 -4 -21 -9 -24 -4 -3 -11 -18 -14 -33 -3 -16 -20 -44 -36 -63 l-31 -35 6 53 c5 39 14 61 35 83 16 17 29 35 29 41 0 5 5 6 10 3 6 -3 10 -15 10 -25z"/>
 <path d="M704 936 c-17 -8 -34 -22 -38 -32 -6 -16 -3 -15 17 4 33 31 59 30 51 -3 -4 -15 -1 -32 6 -40 10 -12 9 -15 -8 -15 -11 0 -32 4 -46 10 -39 14 -31 1 9 -16 74 -30 167 -8 196 48 10 21 8 20 -19 -5 -30 -28 -87 -45 -79 -23 2 6 12 10 21 10 18 -2 23 40 6 51 -6 4 -8 11 -5 16 9 14 -76 10 -111 -5z"/>
 <path d="M1190 932 c14 -12 19 -21 13 -22 -7 0 -13 5 -13 11 0 5 -4 7 -10 4 -5 -3 -10 -19 -10 -36 0 -36 -6 -36 -42 -2 -15 15 -28 22 -28 17 0 -13 37 -47 67 -63 41 -21 163 -6 163 20 0 6 -8 5 -20 -1 -23 -13 -82 -10 -77 4 2 5 9 12 17 14 8 3 10 0 5 -8 -6 -9 -4 -11 4 -5 8 4 11 18 7 36 -7 35 14 39 44 9 11 -11 20 -16 20 -12 0 25 -44 46 -103 50 l-62 5 25 -21z"/>
 <path d="M1495 898 c4 -13 11 -27 16 -33 5 -5 4 5 -2 23 -12 36 -24 44 -14 10z"/>
 <path d="M1402 389 c-35 -37 -58 -70 -53 -73 11 -7 102 78 120 111 23 44 -6 28 -67 -38z"/>
 <path d="M690 280 c0 -5 7 -10 15 -10 8 0 15 -4 15 -10 0 -5 8 -10 18 -10 14 0 12 4 -8 20 -28 22 -40 25 -40 10z"/>
 <path d="M1270 270 c-20 -16 -22 -20 -7 -20 9 0 17 5 17 10 0 6 7 10 15 10 8 0 15 5 15 10 0 15 -12 12 -40 -10z"/>
 </g>
<g id="layer113" fill="#bc9160" stroke="none">
 <path d="M130 1990 c0 -32 26 -122 47 -160 30 -57 76 -82 197 -110 123 -28 316 -96 342 -121 21 -20 22 -20 27 -2 3 10 9 45 13 78 4 33 20 103 36 155 16 52 33 112 37 133 l9 37 -354 0 c-217 0 -354 -4 -354 -10z"/>
 <path d="M930 1977 c0 -13 6 -45 14 -70 14 -46 14 -47 -13 -66 l-26 -20 40 -40 c21 -23 47 -41 56 -41 21 0 79 56 79 75 0 8 -10 21 -21 29 -19 13 -21 21 -15 63 4 26 10 58 13 71 5 21 3 22 -61 22 -63 0 -66 -1 -66 -23z"/>
 <path d="M1171 1961 c5 -21 20 -74 33 -117 14 -44 30 -110 36 -149 5 -38 13 -81 16 -94 l5 -24 22 22 c27 25 219 93 343 121 121 28 167 53 197 110 21 38 47 128 47 160 0 6 -137 10 -354 10 l-354 0 9 -39z"/>
 <path d="M887 1535 c-21 -8 -49 -23 -63 -34 -14 -11 -32 -17 -40 -14 -9 3 -14 -2 -14 -16 0 -27 4 -27 49 10 21 17 65 39 97 49 34 11 48 19 34 19 -14 0 -42 -7 -63 -14z"/>
 <path d="M1084 1530 c32 -10 76 -32 97 -49 45 -37 49 -37 49 -10 0 14 -5 19 -14 16 -8 -3 -26 3 -40 14 -29 23 -99 49 -130 48 -11 0 5 -9 38 -19z"/>
 <path d="M668 1382 c-32 -34 -66 -86 -52 -81 20 8 95 97 86 103 -5 3 -20 -7 -34 -22z"/>
 <path d="M1297 1404 c-7 -7 68 -95 86 -103 15 -6 -25 58 -54 85 -14 13 -28 21 -32 18z"/>
 <path d="M590 1218 c0 -9 -3 -23 -6 -32 -3 -9 -2 -16 4 -16 14 0 23 43 12 54 -7 7 -10 4 -10 -6z"/>
 <path d="M1398 1224 c-9 -13 1 -54 13 -54 4 0 11 5 14 10 3 6 2 10 -4 10 -5 0 -11 10 -13 23 -2 12 -6 17 -10 11z"/>
 <path d="M530 1175 c-7 -8 -9 -15 -4 -15 5 0 3 -4 -5 -9 -7 -5 -12 -14 -10 -20 3 -7 14 1 27 18 22 30 15 54 -8 26z"/>
 <path d="M571 1114 c-6 -21 -9 -40 -6 -42 2 -2 8 13 14 34 6 21 9 40 6 42 -2 2 -8 -13 -14 -34z"/>
 <path d="M1416 1125 c4 -16 11 -37 15 -45 6 -10 7 -4 3 15 -4 17 -11 37 -15 45 -6 10 -7 4 -3 -15z"/>
 <path d="M475 1091 c-6 -11 9 -23 19 -14 9 9 7 23 -3 23 -6 0 -12 -4 -16 -9z"/>
 <path d="M1530 1056 c0 -7 41 -76 46 -76 10 0 2 30 -11 44 -9 8 -15 19 -15 23 1 4 -3 9 -9 11 -6 2 -11 1 -11 -2z"/>
 <path d="M425 1007 c-9 -25 -15 -61 -12 -83 l4 -39 1 42 c1 24 11 57 22 75 22 36 25 48 11 48 -5 0 -17 -19 -26 -43z"/>
 <path d="M482 1020 c-10 -17 -10 -27 4 -55 9 -19 17 -35 19 -35 6 0 -1 56 -9 68 -4 7 -3 19 4 27 7 8 8 15 4 15 -5 0 -15 -9 -22 -20z"/>
 <path d="M1492 1029 c2 -7 10 -15 17 -17 8 -3 12 1 9 9 -2 7 -10 15 -17 17 -8 3 -12 -1 -9 -9z"/>
 <path d="M556 890 c-26 -99 -24 -222 4 -330 8 -30 9 -27 5 20 -17 213 -17 219 0 295 21 97 15 108 -9 15z"/>
 <path d="M1421 953 c-1 -6 6 -42 15 -80 15 -66 15 -106 -1 -298 -4 -45 -4 -47 5 -15 29 111 29 245 1 340 -11 36 -20 60 -20 53z"/>
 <path d="M704 936 c-17 -8 -34 -22 -38 -32 -6 -16 -3 -15 17 4 33 31 59 30 51 -3 -4 -15 -1 -32 6 -40 10 -12 9 -15 -8 -15 -11 0 -32 4 -46 10 -39 14 -31 1 9 -16 74 -30 167 -8 196 48 10 21 8 20 -19 -5 -30 -28 -87 -45 -79 -23 2 6 12 10 21 10 18 -2 23 40 6 51 -6 4 -8 11 -5 16 9 14 -76 10 -111 -5z"/>
 <path d="M1190 932 c14 -12 19 -21 13 -22 -7 0 -13 5 -13 11 0 5 -4 7 -10 4 -5 -3 -10 -19 -10 -36 0 -36 -6 -36 -43 -1 -27 25 -29 25 -18 4 18 -34 70 -62 117 -62 47 0 104 17 104 31 0 6 -8 5 -19 -1 -11 -5 -30 -10 -42 -10 -18 0 -19 2 -9 15 7 8 10 25 6 40 -8 31 15 34 44 5 11 -11 20 -16 20 -12 0 25 -44 46 -103 50 l-62 5 25 -21z m60 -67 c-7 -8 -16 -12 -21 -9 -13 8 -1 24 18 24 13 0 13 -3 3 -15z"/>
 <path d="M1495 898 c4 -13 11 -27 16 -33 5 -5 4 5 -2 23 -12 36 -24 44 -14 10z"/>
 <path d="M1546 881 c-5 -8 -3 -17 5 -22 11 -6 11 -11 2 -20 -9 -9 -16 -9 -28 1 -14 11 -15 9 -13 -19 1 -18 6 -35 10 -37 14 -9 8 -57 -9 -76 -13 -14 -14 -19 -4 -16 8 2 17 -8 22 -22 4 -16 7 4 8 56 1 67 4 84 21 99 20 18 29 62 11 51 -5 -4 -11 -1 -13 6 -3 9 -6 9 -12 -1z"/>
 <path d="M430 837 c0 -8 6 -17 14 -20 9 -4 15 -36 18 -119 5 -87 12 -129 32 -183 14 -38 30 -71 36 -73 5 -2 8 -8 4 -13 -7 -12 104 -119 125 -119 9 0 -11 27 -52 67 -48 48 -72 81 -87 120 -26 70 -26 72 12 37 30 -27 29 -26 -5 15 -20 25 -37 52 -37 61 0 9 -5 21 -11 27 -15 15 -7 59 11 55 11 -3 11 1 -3 16 -19 20 -24 97 -7 107 6 3 10 13 10 22 0 13 -3 13 -15 3 -12 -10 -18 -10 -30 0 -12 10 -15 10 -15 -3z"/>
 <path d="M1517 633 c-4 -3 -7 -14 -7 -23 0 -9 -17 -36 -37 -61 -34 -41 -35 -42 -5 -15 35 32 37 31 22 -9 -6 -15 -7 -32 -3 -38 8 -13 29 45 38 108 7 44 5 52 -8 38z"/>
 <path d="M1397 381 c-32 -31 -55 -60 -51 -64 8 -8 75 46 102 83 38 51 8 40 -51 -19z"/>
 <path d="M690 280 c0 -5 7 -10 15 -10 8 0 15 -4 15 -10 0 -5 8 -10 18 -10 14 0 12 4 -8 20 -28 22 -40 25 -40 10z"/>
 <path d="M1270 270 c-20 -16 -22 -20 -7 -20 9 0 17 5 17 10 0 6 7 10 15 10 8 0 15 5 15 10 0 15 -12 12 -40 -10z"/>
 </g>
<g id="layer114" fill="#c47e72" stroke="none">
 <path d="M130 1990 c0 -32 26 -122 47 -160 30 -57 76 -82 197 -110 123 -28 316 -96 342 -121 21 -20 22 -20 27 -2 3 10 9 45 13 78 4 33 20 103 36 155 16 52 33 112 37 133 l9 37 -354 0 c-217 0 -354 -4 -354 -10z"/>
 <path d="M930 1977 c0 -13 6 -45 14 -70 14 -46 14 -47 -13 -66 l-26 -20 40 -40 c21 -23 47 -41 56 -41 21 0 79 56 79 75 0 8 -10 21 -21 29 -19 13 -21 21 -15 63 4 26 10 58 13 71 5 21 3 22 -61 22 -63 0 -66 -1 -66 -23z"/>
 <path d="M1171 1961 c5 -21 20 -74 33 -117 14 -44 30 -110 36 -149 5 -38 13 -81 16 -94 l5 -24 22 22 c27 25 219 93 343 121 121 28 167 53 197 110 21 38 47 128 47 160 0 6 -137 10 -354 10 l-354 0 9 -39z"/>
 <path d="M887 1535 c-21 -8 -49 -23 -63 -34 -14 -11 -32 -17 -40 -14 -9 3 -14 -2 -14 -16 0 -27 4 -27 49 10 21 17 65 39 97 49 34 11 48 19 34 19 -14 0 -42 -7 -63 -14z"/>
 <path d="M1084 1530 c32 -10 76 -32 97 -49 45 -37 49 -37 49 -10 0 14 -5 19 -14 16 -8 -3 -26 3 -40 14 -29 23 -99 49 -130 48 -11 0 5 -9 38 -19z"/>
 <path d="M668 1382 c-32 -34 -66 -86 -52 -81 20 8 95 97 86 103 -5 3 -20 -7 -34 -22z"/>
 <path d="M1297 1404 c-7 -7 68 -95 86 -103 15 -6 -25 58 -54 85 -14 13 -28 21 -32 18z"/>
 <path d="M590 1218 c0 -9 -3 -23 -6 -32 -3 -9 -2 -16 4 -16 14 0 23 43 12 54 -7 7 -10 4 -10 -6z"/>
 <path d="M1398 1224 c-9 -13 1 -54 13 -54 4 0 11 5 14 10 3 6 2 10 -4 10 -5 0 -11 10 -13 23 -2 12 -6 17 -10 11z"/>
 <path d="M530 1175 c-7 -8 -9 -15 -4 -15 5 0 3 -4 -5 -9 -7 -5 -12 -14 -10 -20 3 -7 14 1 27 18 22 30 15 54 -8 26z"/>
 <path d="M571 1114 c-6 -21 -9 -40 -6 -42 2 -2 8 13 14 34 6 21 9 40 6 42 -2 2 -8 -13 -14 -34z"/>
 <path d="M1416 1125 c4 -16 11 -37 15 -45 6 -10 7 -4 3 15 -4 17 -11 37 -15 45 -6 10 -7 4 -3 -15z"/>
 <path d="M475 1091 c-6 -11 9 -23 19 -14 9 9 7 23 -3 23 -6 0 -12 -4 -16 -9z"/>
 <path d="M1530 1056 c0 -7 41 -76 46 -76 10 0 2 30 -11 44 -9 8 -15 19 -15 23 1 4 -3 9 -9 11 -6 2 -11 1 -11 -2z"/>
 <path d="M425 1007 c-9 -25 -15 -61 -12 -83 l4 -39 1 42 c1 24 11 57 22 75 22 36 25 48 11 48 -5 0 -17 -19 -26 -43z"/>
 <path d="M482 1020 c-10 -17 -10 -27 4 -55 9 -19 17 -35 19 -35 6 0 -1 56 -9 68 -4 7 -3 19 4 27 7 8 8 15 4 15 -5 0 -15 -9 -22 -20z"/>
 <path d="M1492 1029 c2 -7 10 -15 17 -17 8 -3 12 1 9 9 -2 7 -10 15 -17 17 -8 3 -12 -1 -9 -9z"/>
 <path d="M704 936 c-17 -8 -34 -22 -38 -32 -6 -16 -3 -15 17 4 33 31 59 30 51 -3 -4 -15 -1 -32 6 -40 10 -12 9 -15 -8 -15 -11 0 -32 4 -46 10 -39 14 -31 1 9 -16 73 -30 166 -8 196 48 10 19 6 17 -25 -9 -36 -33 -82 -45 -73 -20 2 6 12 11 21 11 18 -2 23 40 6 51 -6 4 -8 11 -5 16 9 14 -76 10 -111 -5z m76 -11 c0 -8 -6 -15 -14 -15 -8 0 -16 7 -20 15 -4 10 1 15 14 15 11 0 20 -7 20 -15z"/>
 <path d="M1188 944 c12 -3 22 -12 22 -20 0 -11 -6 -13 -20 -9 -17 5 -20 2 -20 -24 0 -38 -6 -38 -43 -3 -27 25 -29 25 -18 4 18 -34 70 -62 117 -62 47 0 104 17 104 31 0 6 -9 5 -20 -1 -25 -13 -86 -9 -83 5 1 6 9 12 19 13 11 3 14 0 9 -9 -6 -8 -4 -10 4 -4 8 4 11 18 7 36 -7 35 14 39 44 9 11 -11 20 -16 20 -12 0 26 -44 46 -103 48 -34 2 -52 0 -39 -2z"/>
 <path d="M1546 881 c-5 -8 -3 -17 5 -22 11 -6 10 -11 -4 -27 -26 -29 -20 -38 8 -12 23 22 36 68 16 56 -5 -4 -11 -1 -13 6 -3 9 -6 9 -12 -1z"/>
 <path d="M430 838 c0 -9 7 -19 16 -22 25 -10 27 -1 4 19 -17 15 -20 16 -20 3z"/>
 <path d="M627 340 c3 -12 12 -24 20 -27 24 -9 24 3 -1 26 l-25 23 6 -22z"/>
 <path d="M1356 341 c-10 -11 -13 -21 -7 -25 10 -7 14 -3 24 27 8 22 4 22 -17 -2z"/>
 <path d="M690 280 c0 -5 7 -10 15 -10 8 0 15 -4 15 -10 0 -5 8 -10 18 -10 14 0 12 4 -8 20 -28 22 -40 25 -40 10z"/>
 <path d="M1270 270 c-20 -16 -22 -20 -7 -20 9 0 17 5 17 10 0 6 7 10 15 10 8 0 15 5 15 10 0 15 -12 12 -40 -10z"/>
 </g>
<g id="layer115" fill="#948f73" stroke="none">
 <path d="M130 1990 c0 -32 26 -122 47 -160 30 -57 76 -82 197 -110 123 -28 316 -96 342 -121 21 -20 22 -20 27 -2 3 10 9 45 13 78 4 33 20 103 36 155 16 52 33 112 37 133 l9 37 -354 0 c-217 0 -354 -4 -354 -10z"/>
 <path d="M930 1977 c0 -13 6 -45 14 -70 14 -46 14 -47 -13 -66 l-26 -20 40 -40 c21 -23 47 -41 56 -41 21 0 79 56 79 75 0 8 -10 21 -21 29 -19 13 -21 21 -15 63 4 26 10 58 13 71 5 21 3 22 -61 22 -63 0 -66 -1 -66 -23z"/>
 <path d="M1171 1961 c5 -21 20 -74 33 -117 14 -44 30 -110 36 -149 5 -38 13 -81 16 -94 l5 -24 22 22 c27 25 219 93 343 121 121 28 167 53 197 110 21 38 47 128 47 160 0 6 -137 10 -354 10 l-354 0 9 -39z"/>
 <path d="M704 936 c-17 -8 -34 -22 -38 -32 -6 -16 -3 -15 17 4 33 31 59 30 51 -3 -4 -15 -1 -32 6 -40 10 -12 9 -15 -8 -15 -11 0 -32 4 -46 10 -39 14 -31 1 9 -16 73 -30 166 -8 196 48 10 19 6 17 -25 -9 -36 -33 -82 -45 -73 -20 2 6 12 11 21 11 18 -2 23 40 6 51 -6 4 -8 11 -5 16 9 14 -76 10 -111 -5z m76 -11 c0 -8 -6 -15 -14 -15 -8 0 -16 7 -20 15 -4 10 1 15 14 15 11 0 20 -7 20 -15z"/>
 <path d="M1188 944 c12 -3 22 -12 22 -20 0 -11 -6 -13 -20 -9 -17 5 -20 2 -20 -24 0 -38 -6 -38 -43 -3 -27 25 -29 25 -18 4 18 -34 70 -62 117 -62 47 0 104 17 104 31 0 6 -9 5 -20 -1 -25 -13 -86 -9 -83 5 1 6 9 12 19 13 11 3 14 0 9 -9 -6 -8 -4 -10 4 -4 8 4 11 18 7 36 -7 35 14 39 44 9 11 -11 20 -16 20 -12 0 26 -44 46 -103 48 -34 2 -52 0 -39 -2z"/>
 </g>
<g id="layer116" fill="#6a837c" stroke="none">
 <path d="M130 1990 c0 -32 26 -122 47 -160 30 -57 76 -82 197 -110 123 -28 316 -96 342 -121 21 -20 22 -20 27 -2 3 10 9 45 13 78 3 33 15 87 25 120 10 33 27 93 38 133 l20 72 -355 0 c-217 0 -354 -4 -354 -10z"/>
 <path d="M930 1977 c0 -13 6 -45 14 -70 14 -46 14 -47 -13 -66 l-26 -20 40 -40 c21 -23 46 -41 55 -41 18 0 80 60 80 77 0 7 -10 19 -21 27 -19 13 -21 21 -16 60 4 25 9 57 13 71 6 25 6 25 -60 25 -63 0 -66 -1 -66 -23z"/>
 <path d="M1185 1913 c13 -49 28 -101 34 -116 6 -16 16 -61 21 -100 6 -40 13 -83 16 -96 l5 -24 22 22 c27 25 219 93 343 121 121 28 167 53 197 110 21 38 47 128 47 160 0 6 -137 10 -354 10 l-355 0 24 -87z"/>
 <path d="M758 943 c12 -2 22 -11 22 -20 0 -11 -6 -14 -21 -10 -26 7 -37 -18 -20 -46 12 -19 11 -20 -31 -14 -31 4 -38 3 -26 -4 10 -6 40 -13 66 -16 56 -6 115 16 134 50 9 18 6 17 -21 -6 -31 -26 -71 -36 -71 -18 0 5 6 14 14 20 11 9 15 9 19 -1 3 -7 6 0 6 15 1 17 -5 30 -15 34 -13 5 -13 7 -2 14 8 5 -4 8 -32 7 -25 0 -35 -3 -22 -5z"/>
 <path d="M1193 943 c9 -2 17 -11 17 -19 0 -11 -6 -13 -20 -9 -16 5 -20 2 -20 -17 0 -13 5 -29 12 -36 7 -7 9 -12 4 -12 -15 0 -51 23 -69 44 l-18 21 11 -23 c25 -50 100 -73 175 -52 25 7 45 17 45 22 0 5 -7 5 -17 0 -10 -5 -35 -12 -55 -15 -29 -4 -38 -2 -38 9 0 8 11 20 25 26 18 8 24 17 19 30 -7 23 13 24 45 1 14 -9 21 -11 16 -4 -12 20 -71 41 -112 40 -21 -1 -30 -3 -20 -6z"/>
 <path d="M692 933 c-7 -2 -17 -14 -23 -26 l-12 -22 24 21 c13 12 31 24 39 27 13 5 13 5 0 5 -8 0 -21 -2 -28 -5z"/>
 </g>
<g id="layer117" fill="#63625d" stroke="none">
 <path d="M130 1990 c0 -32 26 -122 47 -160 30 -57 76 -82 197 -110 123 -28 316 -96 342 -121 l22 -21 6 29 c3 15 10 58 16 96 6 37 21 102 34 145 14 42 29 94 34 115 l10 37 -354 0 c-217 0 -354 -4 -354 -10z"/>
 <path d="M930 1977 c0 -13 6 -45 14 -70 14 -46 14 -47 -13 -66 l-26 -20 40 -40 c21 -23 46 -41 55 -41 18 0 80 60 80 78 0 6 -10 16 -21 23 -19 10 -21 16 -15 71 4 32 10 66 13 74 4 11 -8 14 -61 14 -63 0 -66 -1 -66 -23z"/>
 <path d="M1186 1909 c14 -50 29 -102 35 -115 5 -14 13 -55 19 -92 6 -37 13 -80 16 -95 l6 -29 22 21 c26 25 219 93 342 121 121 28 167 53 197 110 21 38 47 128 47 160 0 6 -137 10 -354 10 l-355 0 25 -91z"/>
 <path d="M763 944 c24 -8 23 -38 -2 -31 -27 7 -35 -20 -16 -50 17 -26 23 -25 -60 -7 -18 5 -18 4 -3 -6 10 -6 40 -14 66 -17 56 -6 115 16 134 50 9 18 6 17 -21 -6 -31 -26 -71 -36 -71 -18 0 5 6 14 14 20 11 9 15 9 19 -1 3 -7 6 -4 6 8 1 28 -28 59 -59 61 -14 1 -18 0 -7 -3z"/>
 <path d="M1208 928 c3 -13 -1 -18 -17 -18 -24 0 -29 -28 -9 -48 7 -7 9 -12 4 -12 -15 0 -51 23 -70 44 l-18 21 14 -25 c29 -49 119 -75 173 -49 15 6 8 8 -23 4 -37 -4 -43 -2 -40 13 2 9 13 21 26 27 26 11 27 18 7 38 -8 8 -11 17 -8 21 4 3 -5 5 -19 4 -19 -2 -24 -7 -20 -20z"/>
 <path d="M688 926 c-10 -7 -18 -17 -18 -21 0 -5 8 -1 18 7 9 9 24 18 32 21 13 5 13 5 0 6 -8 0 -23 -6 -32 -13z"/>
 </g>
<g id="layer118" fill="#423f4e" stroke="none">
 <path d="M130 1990 c0 -32 26 -122 47 -160 30 -57 76 -82 197 -110 123 -28 316 -96 342 -121 l22 -21 6 29 c3 15 10 58 16 94 5 37 23 110 40 164 47 152 86 135 -320 135 -215 0 -350 -4 -350 -10z"/>
 <path d="M930 1983 c0 -10 7 -42 14 -70 14 -52 14 -53 -12 -73 l-25 -21 38 -39 c22 -22 46 -40 55 -40 17 0 80 59 80 75 0 5 -11 18 -25 30 -26 21 -26 16 0 133 5 21 3 22 -60 22 -55 0 -65 -3 -65 -17z"/>
 <path d="M1170 1982 c0 -10 13 -63 30 -118 16 -54 35 -128 40 -164 6 -36 13 -78 16 -93 l6 -29 22 21 c26 25 219 93 342 121 121 28 167 53 197 110 21 38 47 128 47 160 0 6 -135 10 -350 10 -333 0 -350 -1 -350 -18z"/>
 <path d="M1218 931 c-7 -11 -20 -21 -28 -21 -13 0 -13 -1 0 -10 12 -8 12 -10 -4 -16 -13 -5 -15 -9 -5 -15 29 -17 -4 -22 -33 -5 -17 11 -28 14 -25 9 12 -19 75 -43 109 -42 23 1 26 3 11 6 -29 5 -29 20 -2 49 19 21 20 24 6 44 l-15 22 -14 -21z"/>
 <path d="M780 925 c0 -9 -10 -15 -22 -16 -13 0 -17 -3 -10 -6 9 -4 10 -8 2 -18 -8 -9 -8 -15 0 -20 5 -3 10 -3 10 2 0 4 4 2 9 -6 7 -11 12 -9 21 10 7 13 18 27 23 31 7 4 6 12 -2 22 -17 20 -31 20 -31 1z"/>
 <path d="M844 864 c-12 -8 -41 -18 -65 -23 -32 -7 -37 -9 -16 -10 31 -1 91 21 101 38 9 14 6 13 -20 -5z"/>
 </g>
<g id="layer119" fill="#1d272d" stroke="none">
 <path d="M130 1990 c0 -32 26 -122 47 -160 30 -57 76 -82 197 -110 123 -28 316 -96 342 -121 l22 -21 5 29 c3 15 9 53 13 83 3 30 19 96 35 147 15 50 31 108 35 127 l6 36 -351 0 c-215 0 -351 -4 -351 -10z"/>
 <path d="M930 1982 c0 -11 7 -41 15 -68 15 -49 15 -49 -11 -72 l-27 -23 39 -40 c21 -21 44 -39 51 -39 15 0 83 58 83 72 0 5 -11 19 -24 31 -25 22 -25 23 -12 90 l14 67 -64 0 c-55 0 -64 -2 -64 -18z"/>
 <path d="M1170 1986 c0 -8 15 -67 34 -133 19 -65 37 -140 41 -168 3 -27 9 -63 12 -78 l5 -29 22 21 c26 25 219 93 342 121 121 28 167 53 197 110 21 38 47 128 47 160 0 6 -135 10 -350 10 -294 0 -350 -2 -350 -14z"/>
 <path d="M759 889 c20 -22 41 -19 41 7 0 9 -11 14 -30 14 l-31 0 20 -21z"/>
 <path d="M1200 888 c15 -16 23 -19 31 -11 16 16 2 33 -27 33 l-25 0 21 -22z"/>
 </g>
<g id="layer120" fill="#1a2e17" stroke="none">
 <path d="M130 1990 c0 -32 26 -122 46 -160 35 -65 72 -84 229 -114 59 -12 291 -99 310 -116 l22 -21 7 32 c3 17 6 44 6 59 0 15 18 90 40 166 41 143 45 164 33 164 -14 0 -84 -274 -83 -327 0 -52 -12 -75 -27 -50 -4 7 -28 27 -53 46 -44 32 -45 32 -10 2 41 -37 37 -38 -38 -7 -68 29 -205 71 -282 87 -30 6 -68 18 -83 26 l-28 14 21 32 22 32 -26 -30 -25 -29 -20 44 c-12 25 -26 71 -33 103 -7 31 -16 57 -20 57 -4 0 -8 -4 -8 -10z"/>
 <path d="M559 1928 c-21 -69 -21 -72 -4 -85 11 -7 24 -13 29 -13 6 0 2 6 -9 12 -11 6 -21 12 -22 13 -2 0 6 23 16 51 30 78 33 94 22 94 -6 0 -20 -32 -32 -72z"/>
 <path d="M930 1988 c0 -6 7 -38 17 -71 16 -59 16 -59 -7 -77 -19 -14 -21 -20 -11 -38 6 -11 24 -30 41 -42 l30 -21 30 21 c48 34 53 51 23 82 -24 25 -25 30 -14 72 21 83 19 86 -49 86 -40 0 -60 -4 -60 -12z"/>
 <path d="M1170 1987 c0 -8 16 -67 35 -131 27 -94 55 -231 55 -273 0 -4 11 3 23 15 20 19 250 106 312 118 157 30 194 49 229 114 31 58 56 170 38 170 -4 0 -13 -26 -20 -57 -7 -32 -21 -78 -33 -103 l-20 -44 -25 29 -26 30 22 -32 21 -32 -28 -14 c-15 -8 -53 -20 -83 -26 -77 -16 -214 -58 -282 -87 -75 -31 -79 -30 -38 7 35 30 34 30 -10 -2 -25 -19 -49 -39 -53 -46 -15 -25 -27 -2 -27 50 1 53 -69 327 -82 327 -5 0 -8 -6 -8 -13z"/>
 <path d="M1406 1978 c3 -13 15 -45 25 -72 10 -28 18 -51 16 -51 -1 -1 -11 -7 -22 -13 -11 -6 -15 -12 -9 -12 5 0 18 6 28 13 18 13 17 16 -5 85 -13 40 -27 72 -32 72 -4 0 -5 -10 -1 -22z"/>
 <path d="M608 1822 c9 -6 4 -14 -18 -30 -37 -28 -38 -42 -2 -73 l27 -24 -23 26 -23 27 30 34 c29 33 31 48 7 48 -7 0 -6 -4 2 -8z"/>
 <path d="M1377 1824 c-3 -4 7 -23 23 -42 l30 -36 -23 -26 -22 -25 28 24 c35 31 34 45 -4 72 -23 16 -28 24 -17 30 7 5 8 9 2 9 -6 0 -14 -3 -17 -6z"/>
 <path d="M772 896 c1 -10 8 -17 13 -17 15 1 12 24 -3 29 -9 3 -13 -2 -10 -12z"/>
 <path d="M1200 896 c0 -14 24 -29 33 -19 3 3 3 11 0 19 -7 18 -33 18 -33 0z"/>
 </g>
<g id="layer121" fill="#0a0c0d" stroke="none">
 <path d="M130 1990 c0 -32 26 -122 46 -160 35 -65 72 -84 229 -114 59 -12 291 -99 310 -116 l22 -21 7 32 c3 17 6 44 6 59 0 15 18 90 40 166 41 143 45 164 33 164 -14 0 -84 -274 -83 -327 0 -52 -12 -75 -27 -50 -4 7 -28 27 -53 46 -44 32 -45 32 -10 2 41 -37 37 -38 -38 -7 -68 29 -205 71 -282 87 -30 6 -68 18 -83 26 l-28 14 21 32 22 32 -26 -30 -25 -29 -20 44 c-12 25 -26 71 -33 103 -7 31 -16 57 -20 57 -4 0 -8 -4 -8 -10z"/>
 <path d="M559 1928 c-21 -69 -21 -72 -4 -85 11 -7 24 -13 29 -13 6 0 2 6 -9 12 -11 6 -21 12 -22 13 -2 0 6 23 16 51 30 78 33 94 22 94 -6 0 -20 -32 -32 -72z"/>
 <path d="M930 1988 c0 -6 7 -38 17 -71 16 -59 16 -59 -7 -77 -19 -14 -21 -20 -11 -38 6 -11 24 -30 41 -42 l30 -21 30 21 c48 34 53 51 23 82 -24 25 -25 30 -14 72 21 83 19 86 -49 86 -40 0 -60 -4 -60 -12z"/>
 <path d="M1170 1987 c0 -8 16 -67 35 -131 27 -94 55 -231 55 -273 0 -4 11 3 23 15 20 19 250 106 312 118 157 30 194 49 229 114 31 58 56 170 38 170 -4 0 -13 -26 -20 -57 -7 -32 -21 -78 -33 -103 l-20 -44 -25 29 -26 30 22 -32 21 -32 -28 -14 c-15 -8 -53 -20 -83 -26 -77 -16 -214 -58 -282 -87 -75 -31 -79 -30 -38 7 35 30 34 30 -10 -2 -25 -19 -49 -39 -53 -46 -15 -25 -27 -2 -27 50 1 53 -69 327 -82 327 -5 0 -8 -6 -8 -13z"/>
 <path d="M1406 1978 c3 -13 15 -45 25 -72 10 -28 18 -51 16 -51 -1 -1 -11 -7 -22 -13 -11 -6 -15 -12 -9 -12 5 0 18 6 28 13 18 13 17 16 -5 85 -13 40 -27 72 -32 72 -4 0 -5 -10 -1 -22z"/>
 <path d="M608 1822 c9 -6 4 -14 -18 -30 -37 -28 -38 -42 -2 -73 l27 -24 -23 26 -23 27 30 34 c29 33 31 48 7 48 -7 0 -6 -4 2 -8z"/>
 <path d="M1377 1824 c-3 -4 7 -23 23 -42 l30 -36 -23 -26 -22 -25 28 24 c35 31 34 45 -4 72 -23 16 -28 24 -17 30 7 5 8 9 2 9 -6 0 -14 -3 -17 -6z"/>
 <path d="M770 896 c0 -9 7 -16 16 -16 17 0 14 22 -4 28 -7 2 -12 -3 -12 -12z"/>
 <path d="M1207 903 c-12 -11 -8 -23 8 -23 8 0 15 7 15 15 0 16 -12 20 -23 8z"/>
 </g>

</svg>