<!DOCTYPE svg PUBLIC "-//W3C//DTD SVG 20010904//EN" "http://www.w3.org/TR/2001/REC-SVG-20010904/DTD/svg10.dtd">
<svg version="1.0" xmlns="http://www.w3.org/2000/svg" width="200px" height="200px" viewBox="0 0 2000 2000" preserveAspectRatio="xMidYMid meet">
<g id="layer101" fill="#f1eef2" stroke="none">
 <path d="M123 1960 c3 -22 18 -68 35 -103 34 -73 84 -110 162 -120 62 -8 241 -61 293 -86 24 -12 48 -21 55 -21 29 0 92 -92 92 -135 0 -7 -14 -26 -32 -42 -123 -110 -120 -106 -137 -178 -14 -55 -22 -70 -39 -75 -12 -3 -47 -42 -84 -95 -55 -80 -62 -96 -66 -147 -6 -80 4 -125 29 -133 18 -6 20 -12 14 -54 -3 -26 -1 -86 5 -132 25 -182 121 -305 320 -410 36 -19 67 -37 68 -41 2 -5 68 -8 147 -8 l144 0 82 44 c148 79 232 153 274 242 33 70 58 204 53 291 -2 41 1 63 8 63 29 0 44 37 44 106 0 69 -1 70 -67 172 -43 65 -73 102 -85 102 -12 0 -20 13 -28 43 -18 73 -51 125 -116 183 -38 33 -64 64 -64 75 0 48 63 129 101 129 10 0 19 4 19 8 0 15 290 102 338 102 11 0 42 11 69 26 50 25 53 30 97 138 9 21 16 51 16 67 l0 29 -876 0 -877 0 6 -40z"/>
 </g>
<g id="layer102" fill="#e6dde3" stroke="none">
 <path d="M123 1960 c3 -22 18 -68 35 -103 34 -73 84 -110 162 -120 62 -8 241 -61 293 -86 24 -12 48 -21 55 -21 30 0 92 -90 92 -134 0 -8 -14 -27 -32 -43 -123 -110 -120 -106 -137 -178 -14 -55 -22 -70 -39 -75 -12 -3 -47 -42 -84 -95 -55 -80 -62 -96 -66 -147 -6 -80 4 -125 29 -133 18 -6 20 -12 14 -54 -9 -65 12 -206 38 -261 62 -130 135 -201 300 -289 l78 -41 132 0 132 1 82 42 c146 74 235 152 278 243 33 70 58 204 53 291 -2 41 1 63 8 63 29 0 44 37 44 106 0 69 -1 70 -67 172 -43 65 -73 102 -85 102 -12 0 -20 13 -28 43 -18 73 -51 125 -116 183 -38 33 -64 64 -64 75 0 48 63 129 101 129 10 0 19 4 19 8 0 15 290 102 338 102 11 0 42 11 69 26 50 25 53 30 97 138 9 21 16 51 16 67 l0 29 -361 0 c-294 0 -359 -2 -351 -13 8 -9 8 -19 -1 -34 -56 -99 -71 -123 -77 -123 -3 0 -17 14 -29 31 -19 25 -21 35 -13 53 6 11 14 36 17 54 l7 32 -71 0 -70 0 1 -30 c1 -17 5 -33 10 -36 13 -8 9 -57 -7 -78 -7 -10 -19 -15 -25 -11 -18 11 -70 109 -70 133 l0 22 -356 0 -357 0 6 -40z m788 -153 c26 -28 46 -54 43 -58 -2 -4 -40 -28 -83 -53 -79 -46 -80 -46 -92 -101 l-12 -55 -17 27 c-10 16 -14 33 -10 38 8 11 10 26 14 90 1 22 5 47 8 55 6 15 47 152 55 179 2 8 13 -4 25 -28 12 -24 43 -66 69 -94z m292 10 c20 -60 34 -114 31 -121 -2 -6 2 -31 11 -55 14 -41 14 -45 -5 -68 l-20 -26 0 27 c0 57 -31 90 -133 139 l-68 33 50 49 c28 27 60 68 73 91 12 24 23 42 24 41 1 -1 18 -51 37 -110z"/>
 </g>
<g id="layer103" fill="#ecccc6" stroke="none">
 <path d="M123 1960 c3 -22 18 -68 35 -103 34 -73 84 -110 162 -120 58 -8 238 -60 293 -85 23 -10 54 -24 70 -30 15 -6 27 -16 27 -22 0 -5 4 -10 9 -10 13 0 31 57 31 97 0 19 15 85 34 146 18 62 36 124 40 140 l6 27 -356 0 -357 0 6 -40z"/>
 <path d="M920 1992 c0 -5 7 -31 15 -58 20 -65 19 -67 -11 -85 l-26 -16 37 -42 c45 -49 42 -55 -52 -102 -76 -39 -84 -50 -108 -142 -13 -49 -26 -75 -48 -95 -121 -108 -119 -105 -136 -177 -14 -55 -22 -70 -39 -75 -12 -3 -47 -42 -84 -95 -55 -80 -62 -96 -66 -147 -6 -80 4 -125 29 -133 18 -6 20 -12 14 -54 -9 -65 12 -206 38 -261 62 -130 135 -201 300 -289 l78 -41 132 0 132 1 82 42 c146 74 235 152 278 243 33 70 58 204 53 291 -2 41 1 63 8 63 29 0 44 37 44 106 0 69 -1 70 -67 172 -43 65 -73 102 -85 102 -12 0 -20 13 -28 43 -18 73 -51 125 -116 182 -56 50 -64 61 -69 103 -12 92 -42 130 -131 167 -21 9 -50 23 -63 31 l-23 16 38 39 38 39 -28 29 c-27 28 -28 31 -17 81 6 28 11 55 11 60 0 6 -29 10 -65 10 -36 0 -65 -4 -65 -8z m91 -802 c12 -7 19 -21 19 -40 0 -25 -4 -30 -24 -30 -14 0 -28 6 -33 13 -5 8 -10 0 -14 -23 -6 -32 -6 -30 -8 16 -1 66 17 86 60 64z m14 -559 c-7 -25 -40 -28 -49 -5 -10 27 -7 42 12 47 25 5 45 -17 37 -42z"/>
 <path d="M1160 1997 c0 -2 16 -57 35 -122 19 -66 38 -142 41 -170 6 -52 22 -115 30 -115 2 0 13 9 24 20 11 11 29 20 40 20 11 0 20 4 20 8 0 15 290 102 338 102 11 0 42 11 69 26 50 25 53 30 97 138 9 21 16 51 16 67 l0 29 -355 0 c-195 0 -355 -2 -355 -3z"/>
 </g>
<g id="layer104" fill="#dab0a6" stroke="none">
 <path d="M123 1960 c3 -22 18 -68 35 -103 34 -73 84 -110 162 -120 58 -8 238 -60 293 -85 23 -10 54 -24 70 -30 15 -6 27 -16 27 -22 0 -5 4 -10 9 -10 13 0 31 57 31 97 0 19 15 85 34 146 18 62 36 124 40 140 l6 27 -356 0 -357 0 6 -40z"/>
 <path d="M920 1992 c0 -5 7 -31 15 -58 20 -65 19 -67 -11 -85 l-27 -16 43 -47 c23 -25 48 -46 54 -46 7 0 29 18 51 40 l39 40 -28 29 c-27 28 -28 31 -17 81 6 28 11 55 11 60 0 6 -29 10 -65 10 -36 0 -65 -4 -65 -8z"/>
 <path d="M1160 1997 c0 -2 16 -57 35 -122 19 -66 38 -142 41 -170 6 -52 22 -115 30 -115 2 0 13 9 24 20 11 11 29 20 40 20 11 0 20 4 20 8 0 15 290 102 338 102 11 0 42 11 69 26 50 25 53 30 97 138 9 21 16 51 16 67 l0 29 -355 0 c-195 0 -355 -2 -355 -3z"/>
 <path d="M916 1630 c-21 -6 -60 -22 -85 -37 -39 -22 -50 -34 -60 -70 -8 -24 -27 -56 -44 -71 -121 -108 -119 -105 -136 -177 -14 -55 -22 -70 -39 -75 -12 -3 -47 -42 -84 -95 -55 -80 -62 -96 -66 -147 -6 -80 4 -125 29 -133 18 -6 20 -12 14 -54 -9 -65 12 -206 38 -261 62 -130 135 -201 300 -289 l78 -41 132 0 132 1 82 42 c146 74 235 152 278 243 33 70 58 204 53 291 -2 41 1 63 8 63 29 0 44 37 44 106 0 69 -1 70 -67 172 -43 65 -73 102 -85 102 -12 0 -20 13 -28 43 -18 73 -51 125 -116 183 -58 50 -64 60 -70 105 -4 27 -11 52 -15 55 -5 3 -9 1 -9 -5 0 -5 -26 4 -57 20 -65 33 -161 45 -227 29z m189 -104 c45 -19 182 -124 223 -170 17 -20 34 -49 38 -64 3 -15 23 -90 43 -167 35 -130 36 -140 19 -143 -22 -4 -22 -13 -2 -99 14 -59 15 -88 5 -228 -16 -217 -30 -264 -95 -321 -28 -25 -72 -56 -98 -69 l-46 -24 -26 33 c-76 101 -251 101 -333 2 l-31 -38 -51 27 c-29 14 -74 47 -101 73 -61 60 -75 105 -91 313 -10 139 -10 165 5 233 18 77 16 96 -9 96 -11 0 -11 8 1 48 8 26 28 100 44 164 16 64 33 125 38 135 23 42 182 171 242 197 46 20 179 21 225 2z m-535 -353 c0 -26 -54 -192 -61 -187 -15 9 -10 61 6 68 8 3 15 10 15 16 0 14 -60 -28 -67 -47 -3 -8 2 -32 12 -54 10 -21 15 -42 12 -46 -4 -3 -15 13 -26 37 -15 33 -20 38 -24 24 -4 -15 -5 -15 -6 -3 0 9 15 39 34 65 19 27 40 60 46 74 17 41 59 78 59 53z m905 -50 c17 -28 43 -69 58 -93 16 -23 26 -47 23 -53 -2 -7 -5 -3 -5 8 -1 13 -8 5 -21 -23 -11 -24 -24 -41 -29 -38 -5 3 0 24 11 46 19 38 19 42 4 65 -9 14 -21 25 -28 25 -24 0 -68 69 -68 106 0 28 24 8 55 -43z m15 -109 c0 -7 -4 -15 -9 -18 -9 -6 -31 37 -31 62 1 14 4 13 20 -7 11 -13 20 -29 20 -37z m-1018 -118 c-3 -6 -6 -20 -7 -31 0 -22 -26 -28 -33 -7 -2 7 2 11 10 10 7 -2 11 4 10 12 -2 8 -6 31 -9 50 l-5 35 20 -29 c12 -17 18 -35 14 -40z m1068 4 c-9 -16 -8 -25 1 -36 13 -16 6 -30 -9 -20 -18 11 -20 70 -3 93 15 20 16 20 19 3 2 -11 -2 -28 -8 -40z"/>
 <path d="M918 1353 c-25 -6 -22 -30 5 -37 12 -3 47 -6 77 -6 67 0 100 8 100 25 0 7 -10 15 -22 19 -26 6 -134 6 -160 -1z"/>
 <path d="M936 1191 l-28 -29 17 -68 c10 -38 22 -73 28 -79 7 -7 8 -4 3 8 -3 10 -9 49 -12 87 l-7 69 34 20 c27 17 30 21 13 21 -11 0 -33 -13 -48 -29z"/>
 <path d="M720 961 c0 -4 9 -20 20 -34 11 -14 20 -29 20 -35 0 -5 -9 -17 -20 -27 -27 -24 -25 -45 4 -45 15 0 26 7 29 20 3 11 10 20 17 20 7 0 14 -9 17 -20 3 -13 14 -20 29 -20 30 0 32 25 4 42 -28 18 -25 47 7 80 l27 28 -27 0 c-15 0 -32 -9 -41 -21 -15 -22 -36 -18 -36 7 0 8 -10 14 -25 14 -14 0 -25 -4 -25 -9z"/>
 <path d="M1130 964 c0 -3 11 -20 25 -36 l26 -30 -26 -33 c-31 -42 -31 -45 0 -45 14 0 29 8 35 20 6 11 15 20 20 20 5 0 12 -9 15 -20 4 -13 15 -20 31 -20 26 0 32 14 10 27 -7 4 -18 18 -24 29 -9 18 -8 27 8 47 11 14 20 30 20 36 0 22 -36 10 -52 -16 l-16 -27 -13 27 c-8 18 -20 27 -36 27 -12 0 -23 -3 -23 -6z"/>
 <path d="M620 821 c0 -21 68 -41 164 -50 52 -5 104 -14 115 -21 17 -9 21 -8 21 4 0 26 -39 38 -156 46 -65 4 -120 13 -129 20 -11 9 -15 9 -15 1z"/>
 <path d="M1345 817 c-11 -6 -71 -14 -133 -18 -109 -7 -142 -17 -142 -44 0 -10 8 -10 38 1 20 7 58 13 84 14 60 0 141 17 164 35 24 17 15 27 -11 12z"/>
 </g>
<g id="layer105" fill="#cda57f" stroke="none">
 <path d="M123 1960 c3 -22 18 -68 35 -103 34 -73 84 -110 162 -120 58 -8 238 -60 293 -85 23 -10 54 -24 70 -30 15 -6 27 -16 27 -22 0 -5 4 -10 9 -10 13 0 31 57 31 97 0 19 15 85 34 146 18 62 36 124 40 140 l6 27 -356 0 -357 0 6 -40z"/>
 <path d="M920 1992 c0 -5 7 -31 15 -58 20 -65 19 -67 -11 -85 l-26 -16 37 -42 c20 -22 46 -41 56 -41 11 0 36 15 57 34 l37 35 -29 29 c-27 29 -28 32 -17 82 6 28 11 55 11 60 0 6 -29 10 -65 10 -36 0 -65 -4 -65 -8z"/>
 <path d="M1160 1997 c0 -2 16 -57 35 -122 19 -66 38 -142 41 -170 6 -52 22 -115 30 -115 2 0 13 9 24 20 11 11 29 20 40 20 11 0 20 4 20 8 0 15 290 102 338 102 11 0 42 11 69 26 50 25 53 30 97 138 9 21 16 51 16 67 l0 29 -355 0 c-195 0 -355 -2 -355 -3z"/>
 <path d="M806 1573 c-15 -8 -26 -25 -30 -47 -4 -19 -20 -46 -39 -64 -17 -16 -54 -49 -81 -74 -43 -39 -51 -53 -65 -113 -14 -55 -22 -70 -39 -75 -12 -3 -47 -42 -84 -95 -55 -80 -62 -96 -66 -147 -6 -80 4 -125 29 -133 18 -6 20 -12 14 -54 -9 -65 12 -206 38 -261 62 -130 135 -201 300 -289 l78 -41 132 0 132 1 82 42 c146 74 235 152 278 243 33 70 58 204 53 291 -2 41 1 63 8 63 29 0 44 37 44 106 0 69 -1 70 -67 172 -43 65 -73 102 -85 102 -12 0 -20 13 -28 43 -18 73 -51 125 -116 183 -36 31 -64 64 -64 74 0 10 -4 22 -10 25 -5 3 -10 18 -11 33 0 15 -3 21 -6 15 -4 -10 -8 -10 -23 0 -14 10 -37 11 -100 3 -51 -5 -114 -6 -166 0 -63 7 -90 6 -108 -3z m309 -48 c39 -16 216 -157 233 -184 7 -12 30 -90 52 -175 22 -84 42 -161 46 -170 4 -10 1 -16 -9 -16 -26 0 -28 -16 -11 -92 15 -65 15 -92 5 -240 -7 -92 -18 -189 -26 -216 -17 -55 -77 -119 -158 -167 l-48 -28 -42 41 c-98 96 -224 98 -314 4 l-45 -46 -46 24 c-25 14 -69 47 -99 73 -65 60 -77 97 -94 282 -15 157 -14 209 6 286 16 63 14 79 -12 79 -10 0 -13 5 -8 18 3 9 24 86 46 169 21 84 44 162 51 174 12 20 152 135 209 172 56 37 192 43 264 12z m-549 -377 c-3 -17 -15 -62 -27 -100 -20 -69 -39 -82 -39 -27 0 33 -14 38 -30 9 -8 -15 -6 -29 6 -57 10 -21 17 -40 16 -43 -18 -68 -48 -106 -59 -72 -3 6 2 12 10 12 13 0 13 5 1 38 -22 62 -17 96 21 146 19 26 35 48 35 51 0 3 10 21 23 40 29 45 52 47 43 3z m893 6 c12 -15 21 -31 21 -36 0 -5 18 -33 41 -63 38 -51 40 -56 33 -102 -3 -26 -11 -56 -16 -65 -6 -14 -5 -18 7 -18 9 0 15 -6 13 -12 -9 -25 -30 -12 -45 27 -18 49 -18 52 -2 93 10 23 11 37 3 49 -16 25 -33 28 -27 4 3 -12 2 -29 -2 -38 -6 -17 -7 -17 -16 0 -6 10 -19 48 -29 85 -10 37 -22 75 -25 85 -11 27 20 21 44 -9z"/>
 <path d="M923 1350 c-36 -15 -27 -28 23 -36 45 -6 142 0 152 11 25 24 -126 46 -175 25z"/>
 <path d="M952 1204 c-12 -8 -22 -20 -22 -26 0 -6 10 -2 23 9 12 11 29 23 37 26 13 5 13 6 0 6 -9 1 -26 -6 -38 -15z"/>
 <path d="M923 1121 c3 -24 10 -48 15 -53 7 -7 9 4 5 33 -3 24 -10 49 -16 54 -6 7 -8 -5 -4 -34z"/>
 <path d="M720 963 c1 -5 11 -21 25 -37 l23 -29 -25 -34 -25 -33 22 0 c13 0 29 8 36 18 13 16 15 16 28 0 7 -10 24 -18 36 -18 l24 0 -27 28 c-32 34 -33 43 -7 67 11 10 20 24 20 32 0 21 -26 15 -43 -9 l-15 -23 -24 23 c-24 22 -48 29 -48 15z"/>
 <path d="M1130 962 c0 -5 11 -19 25 -32 30 -28 31 -41 5 -65 -25 -23 -25 -35 0 -35 10 0 25 10 31 22 l12 22 17 -22 c10 -12 25 -22 34 -22 22 0 20 6 -9 38 l-25 26 25 26 c14 14 25 31 25 38 0 22 -36 12 -50 -13 -10 -19 -16 -22 -27 -14 -7 6 -13 18 -13 25 0 8 -10 14 -25 14 -14 0 -25 -4 -25 -8z"/>
 <path d="M641 806 c16 -18 107 -36 177 -36 24 0 56 -7 72 -15 26 -14 30 -14 30 -1 0 26 -38 37 -148 43 -59 3 -116 10 -127 16 -18 8 -19 8 -4 -7z"/>
 <path d="M1335 811 c-11 -5 -66 -11 -122 -14 -105 -6 -143 -17 -143 -43 0 -13 4 -13 28 -1 15 8 66 17 114 20 75 5 148 26 148 42 0 6 0 6 -25 -4z"/>
 </g>
<g id="layer106" fill="#d1978d" stroke="none">
 <path d="M123 1960 c3 -22 18 -68 35 -103 34 -73 84 -110 162 -120 58 -8 238 -60 293 -85 23 -10 54 -24 70 -30 15 -6 27 -16 27 -22 0 -5 4 -10 9 -10 13 0 31 57 31 97 0 19 15 85 34 146 18 62 36 124 40 140 l6 27 -356 0 -357 0 6 -40z"/>
 <path d="M920 1992 c0 -5 7 -31 15 -58 20 -65 19 -67 -11 -85 l-26 -16 37 -42 c20 -22 46 -41 56 -41 11 0 36 15 57 34 l37 35 -29 29 c-27 29 -28 32 -17 82 6 28 11 55 11 60 0 6 -29 10 -65 10 -36 0 -65 -4 -65 -8z"/>
 <path d="M1160 1997 c0 -2 16 -57 35 -122 19 -66 38 -142 41 -170 6 -52 22 -115 30 -115 2 0 13 9 24 20 11 11 29 20 40 20 11 0 20 4 20 8 0 15 290 102 338 102 11 0 42 11 69 26 50 25 53 30 97 138 9 21 16 51 16 67 l0 29 -355 0 c-195 0 -355 -2 -355 -3z"/>
 <path d="M803 1567 c-13 -6 -24 -22 -27 -42 -4 -18 -21 -46 -39 -63 -17 -16 -54 -49 -81 -74 -43 -39 -51 -53 -65 -113 -14 -55 -22 -70 -39 -75 -12 -3 -47 -42 -84 -95 -55 -80 -62 -96 -66 -147 -6 -80 4 -125 29 -133 18 -6 20 -12 14 -54 -9 -65 12 -206 38 -261 43 -92 88 -148 155 -197 83 -61 160 -104 167 -93 3 4 -21 23 -52 40 -106 60 -223 188 -248 270 -7 25 -7 25 24 -4 l31 -30 0 47 c0 25 -5 92 -11 149 -10 88 -9 113 6 185 10 46 15 86 13 89 -6 6 -34 -101 -44 -170 l-7 -48 -20 32 c-20 32 -20 34 -3 104 10 39 24 78 31 86 17 20 39 92 75 235 16 65 37 130 48 144 10 14 64 60 120 102 83 63 112 80 158 89 62 13 138 7 188 -14 54 -23 218 -159 237 -196 10 -19 36 -107 59 -195 23 -88 45 -162 48 -165 9 -6 38 -94 47 -137 5 -23 1 -39 -12 -56 l-18 -24 -18 91 c-11 50 -20 99 -20 109 -2 21 -17 23 -17 1 0 -8 7 -47 16 -87 15 -62 15 -86 5 -172 -14 -125 -14 -166 -1 -145 5 8 10 28 10 44 0 17 12 42 32 64 l31 36 -5 -46 c-4 -34 -15 -59 -43 -92 -21 -26 -35 -49 -33 -52 3 -3 17 9 32 26 35 42 33 17 -5 -56 -34 -66 -153 -181 -227 -218 -24 -12 -40 -25 -36 -28 16 -16 147 68 224 144 75 73 126 240 118 385 -2 41 1 63 8 63 29 0 44 37 44 106 0 69 -1 70 -67 172 -43 65 -73 102 -85 102 -12 0 -20 13 -28 43 -18 73 -51 125 -116 183 -36 31 -64 64 -64 74 0 10 -4 22 -10 25 -5 3 -10 18 -10 33 0 16 -3 22 -8 15 -4 -7 -13 -9 -20 -4 -16 9 -62 2 -62 -9 0 -5 -17 -4 -37 2 -21 6 -74 8 -118 6 -43 -3 -93 -2 -110 2 -17 4 -40 3 -52 -3z m-237 -419 c-3 -17 -15 -62 -27 -100 -20 -69 -39 -82 -39 -27 0 34 -14 38 -30 8 -9 -16 -7 -29 9 -61 12 -26 17 -46 11 -57 -4 -9 -13 -29 -19 -44 -6 -16 -17 -27 -23 -25 -18 6 -22 28 -4 28 13 0 13 4 0 35 -24 57 -18 98 21 149 19 26 35 48 35 51 0 2 9 20 21 39 27 47 54 49 45 4z m893 6 c12 -15 21 -31 21 -36 0 -5 19 -33 41 -63 39 -52 41 -57 34 -102 -4 -27 -11 -56 -16 -65 -7 -14 -6 -18 6 -18 9 0 15 -6 13 -12 -8 -23 -31 -14 -39 15 -4 16 -13 34 -19 42 -8 10 -7 21 4 44 19 36 20 63 4 79 -18 18 -27 15 -21 -8 3 -11 2 -28 -2 -37 -6 -17 -7 -17 -16 0 -6 10 -19 48 -29 85 -10 37 -22 75 -25 85 -11 27 20 21 44 -9z m-959 -404 c25 -35 43 -90 30 -90 -15 0 -60 73 -60 97 0 30 4 29 30 -7z m987 -64 c-13 -14 -27 -26 -29 -26 -11 0 8 56 27 82 l20 26 3 -28 c2 -19 -5 -36 -21 -54z m-947 -86 c0 -14 3 -36 7 -49 8 -32 -7 -22 -39 26 -14 21 -29 58 -32 83 l-7 44 35 -39 c19 -22 35 -51 36 -65z"/>
 <path d="M923 1350 c-36 -15 -27 -28 23 -36 45 -6 142 0 152 11 25 24 -126 46 -175 25z"/>
 <path d="M949 1201 c-13 -11 -22 -22 -19 -24 3 -3 18 6 33 19 33 28 20 33 -14 5z"/>
 <path d="M923 1121 c3 -24 10 -48 15 -53 7 -7 9 4 5 33 -3 24 -10 49 -16 54 -6 7 -8 -5 -4 -34z"/>
 <path d="M720 963 c1 -5 11 -21 25 -37 l23 -29 -25 -34 -25 -33 22 0 c13 0 29 8 36 18 13 16 15 16 28 0 7 -10 24 -18 36 -18 l24 0 -27 28 c-32 34 -33 43 -7 67 11 10 20 24 20 32 0 21 -26 15 -43 -9 l-15 -23 -24 23 c-24 22 -48 29 -48 15z"/>
 <path d="M1130 962 c0 -5 11 -19 25 -32 30 -28 31 -41 5 -65 -25 -23 -25 -35 0 -35 10 0 25 10 31 22 l12 22 17 -22 c10 -12 25 -22 34 -22 22 0 20 6 -9 38 l-25 26 25 26 c14 14 25 31 25 38 0 22 -36 12 -50 -13 -10 -19 -16 -22 -27 -14 -7 6 -13 18 -13 25 0 8 -10 14 -25 14 -14 0 -25 -4 -25 -8z"/>
 <path d="M768 783 c18 -2 45 -2 60 0 15 2 0 4 -33 4 -33 0 -45 -2 -27 -4z"/>
 <path d="M1168 783 c18 -2 45 -2 60 0 15 2 0 4 -33 4 -33 0 -45 -2 -27 -4z"/>
 </g>
<g id="layer107" fill="#c3956c" stroke="none">
 <path d="M123 1960 c3 -22 18 -68 35 -103 34 -73 84 -110 162 -120 58 -8 238 -60 293 -85 23 -10 54 -24 70 -30 15 -6 27 -16 27 -22 0 -5 4 -10 9 -10 13 0 31 57 31 97 0 19 15 85 34 146 18 62 36 124 40 140 l6 27 -356 0 -357 0 6 -40z"/>
 <path d="M920 1992 c0 -5 7 -31 15 -58 20 -65 19 -67 -11 -85 l-26 -16 37 -42 c20 -22 46 -41 56 -41 11 0 36 15 57 34 l37 35 -29 29 c-27 29 -28 32 -17 82 6 28 11 55 11 60 0 6 -29 10 -65 10 -36 0 -65 -4 -65 -8z"/>
 <path d="M1160 1997 c0 -2 16 -57 35 -122 19 -66 38 -142 41 -170 6 -52 22 -115 30 -115 2 0 13 9 24 20 11 11 29 20 40 20 11 0 20 4 20 8 0 15 290 102 338 102 11 0 42 11 69 26 50 25 53 30 97 138 9 21 16 51 16 67 l0 29 -355 0 c-195 0 -355 -2 -355 -3z"/>
 <path d="M931 1558 c-30 -4 -74 -20 -98 -34 l-43 -25 -1 23 c0 23 0 23 -10 -2 -6 -13 -17 -32 -25 -41 -10 -11 -12 -19 -5 -24 14 -8 33 3 26 16 -4 5 1 9 10 9 9 0 31 11 48 24 45 33 90 46 162 46 72 0 117 -13 162 -46 17 -13 39 -24 47 -24 9 0 15 -6 13 -12 -1 -7 6 -12 15 -12 10 1 16 -2 13 -6 -6 -10 24 -35 32 -26 4 3 -6 19 -21 35 -15 16 -34 48 -41 72 l-14 44 0 -37 c-1 -40 -11 -47 -31 -24 -30 37 -149 59 -239 44z"/>
 <path d="M715 1439 c-10 -15 3 -25 16 -12 7 7 7 13 1 17 -6 3 -14 1 -17 -5z"/>
 <path d="M645 1380 c-30 -31 -42 -54 -55 -107 -14 -57 -20 -68 -41 -73 -13 -3 -26 -15 -28 -25 -3 -20 -3 -20 19 0 21 19 23 19 34 2 11 -15 15 -6 30 62 14 66 24 88 57 124 21 25 39 48 39 51 0 15 -19 3 -55 -34z"/>
 <path d="M1297 1414 c-4 -4 6 -21 22 -38 36 -38 73 -104 66 -117 -4 -5 -3 -14 1 -21 4 -7 9 -22 10 -34 4 -33 56 -228 63 -234 8 -6 38 -95 46 -137 5 -23 1 -39 -12 -56 l-18 -24 -18 91 c-11 50 -20 99 -20 109 -2 21 -17 23 -17 1 0 -8 7 -47 16 -87 15 -62 15 -86 5 -172 -14 -125 -14 -166 -1 -145 5 8 10 28 10 44 0 17 12 42 32 64 l31 36 -5 -46 c-4 -34 -15 -59 -43 -92 -21 -26 -35 -49 -33 -52 3 -3 17 9 32 26 32 39 33 21 2 -45 -24 -52 -124 -160 -188 -203 -21 -13 -38 -26 -38 -28 0 -12 33 -1 50 16 11 11 21 19 23 18 5 -5 67 44 107 84 75 73 126 240 118 385 -2 41 1 63 8 63 29 0 44 37 44 111 0 69 -2 77 -30 107 -16 18 -29 34 -28 35 4 6 -55 97 -63 97 -17 0 -15 -5 68 -131 45 -69 53 -110 31 -152 -6 -12 -14 -28 -17 -35 -10 -23 -24 -18 -33 13 -5 17 -14 39 -19 50 -7 15 -6 29 5 50 20 38 20 59 1 75 -13 11 -15 7 -15 -24 0 -41 -15 -47 -30 -13 -20 44 -49 172 -41 180 15 15 -40 156 -78 198 -20 23 -39 37 -44 33z m190 -728 c-13 -14 -27 -26 -29 -26 -11 0 8 56 27 82 l20 26 3 -28 c2 -19 -5 -36 -21 -54z"/>
 <path d="M932 1352 c-33 -10 -28 -25 10 -36 39 -10 137 -1 151 13 24 24 -97 40 -161 23z"/>
 <path d="M555 1090 c-10 -33 -16 -62 -13 -65 2 -3 12 23 22 56 22 80 15 87 -9 9z"/>
 <path d="M449 1078 c-36 -52 -44 -71 -47 -120 -5 -69 5 -131 19 -122 6 3 9 17 6 31 -3 18 -1 23 11 18 13 -5 13 -2 -1 18 -30 47 -25 80 26 154 26 37 47 72 47 76 0 20 -21 1 -61 -55z"/>
 <path d="M487 1043 c-11 -10 -8 -72 3 -94 6 -11 7 -25 3 -32 -4 -6 -13 -28 -19 -47 -7 -24 -15 -34 -27 -32 -9 2 -17 -2 -17 -8 0 -5 5 -10 11 -10 7 0 9 -16 4 -48 -9 -66 12 -207 38 -262 45 -96 88 -148 164 -204 42 -31 83 -56 91 -56 18 0 20 -2 -44 47 -92 69 -168 162 -189 233 -7 25 -7 25 24 -4 l31 -30 0 47 c0 25 -5 92 -11 149 -10 88 -9 113 6 185 10 46 15 86 13 89 -6 6 -34 -101 -44 -170 l-7 -48 -20 32 c-20 32 -20 33 -2 106 10 41 24 79 32 85 7 6 13 19 13 28 -1 11 -5 8 -15 -9 l-13 -25 -11 27 c-6 15 -8 35 -5 43 6 16 2 20 -9 8z m13 -293 c25 -35 43 -90 30 -90 -15 0 -60 73 -60 97 0 30 4 29 30 -7z m40 -150 c0 -14 3 -36 7 -49 8 -32 -7 -22 -39 26 -14 21 -29 58 -32 83 l-7 44 35 -39 c19 -22 35 -51 36 -65z"/>
 <path d="M720 963 c1 -5 11 -21 25 -37 l23 -29 -25 -34 -25 -33 22 0 c13 0 29 8 36 18 13 16 15 16 28 0 7 -10 24 -18 36 -18 l24 0 -27 28 c-32 34 -33 43 -7 67 11 10 20 24 20 32 0 21 -26 15 -43 -9 l-15 -23 -24 23 c-24 22 -48 29 -48 15z"/>
 <path d="M1130 962 c0 -5 11 -19 25 -32 30 -28 31 -41 5 -65 -25 -23 -25 -35 0 -35 10 0 25 10 31 22 l12 22 17 -22 c10 -12 25 -22 34 -22 22 0 20 6 -9 38 l-25 26 25 26 c14 14 25 31 25 38 0 22 -36 12 -50 -13 -10 -19 -16 -22 -27 -14 -7 6 -13 18 -13 25 0 8 -10 14 -25 14 -14 0 -25 -4 -25 -8z"/>
 <path d="M1543 894 c-6 -13 -7 -24 -3 -24 9 0 25 39 18 45 -2 2 -8 -7 -15 -21z"/>
 <path d="M768 783 c18 -2 45 -2 60 0 15 2 0 4 -33 4 -33 0 -45 -2 -27 -4z"/>
 <path d="M1168 783 c18 -2 45 -2 60 0 15 2 0 4 -33 4 -33 0 -45 -2 -27 -4z"/>
 <path d="M760 242 c0 -12 39 -32 44 -23 3 4 -6 13 -19 19 -14 7 -25 8 -25 4z"/>
 </g>
<g id="layer108" fill="#c37d71" stroke="none">
 <path d="M123 1960 c3 -22 18 -68 35 -103 34 -73 84 -110 162 -120 58 -8 238 -60 293 -85 23 -10 54 -24 70 -30 15 -6 27 -16 27 -22 0 -5 4 -10 9 -10 13 0 31 57 31 97 0 19 15 85 34 146 18 62 36 124 40 140 l6 27 -356 0 -357 0 6 -40z"/>
 <path d="M920 1992 c0 -5 7 -31 15 -58 20 -65 19 -67 -11 -85 l-26 -16 37 -42 c20 -22 46 -41 56 -41 11 0 36 15 57 34 l37 35 -29 29 c-27 29 -28 32 -17 82 6 28 11 55 11 60 0 6 -29 10 -65 10 -36 0 -65 -4 -65 -8z"/>
 <path d="M1160 1997 c0 -2 16 -57 35 -122 19 -66 38 -142 41 -170 6 -52 22 -115 30 -115 2 0 13 9 24 20 11 11 29 20 40 20 11 0 20 4 20 8 0 15 290 102 338 102 11 0 42 11 69 26 50 25 53 30 97 138 9 21 16 51 16 67 l0 29 -355 0 c-195 0 -355 -2 -355 -3z"/>
 <path d="M1201 1532 l-1 -44 -30 26 c-41 34 -89 46 -180 46 -78 -1 -139 -17 -169 -44 -24 -22 -31 -20 -32 7 0 21 -1 21 -10 -3 -6 -13 -17 -32 -25 -41 -18 -20 0 -39 19 -20 6 6 7 11 2 11 -5 0 9 9 30 21 22 12 54 29 70 38 22 11 55 16 120 16 65 0 98 -5 120 -16 17 -9 48 -26 70 -38 22 -12 40 -25 40 -29 0 -4 6 -6 12 -6 7 1 11 -2 8 -6 -6 -10 24 -35 32 -26 4 3 -6 19 -21 35 -15 16 -34 48 -41 72 l-14 44 0 -43z"/>
 <path d="M715 1439 c-10 -15 3 -25 16 -12 7 7 7 13 1 17 -6 3 -14 1 -17 -5z"/>
 <path d="M648 1383 c-34 -37 -49 -68 -66 -143 -6 -25 -15 -36 -33 -40 -13 -3 -26 -15 -28 -25 -3 -20 -3 -20 19 0 21 19 23 19 34 2 11 -15 16 -6 31 65 14 68 24 88 56 123 22 23 39 45 39 49 0 15 -18 4 -52 -31z"/>
 <path d="M1297 1413 c-4 -6 11 -27 33 -47 22 -20 40 -45 40 -55 0 -11 5 -23 11 -26 6 -4 8 -14 5 -22 -3 -8 -3 -20 1 -26 4 -7 8 -19 8 -27 0 -8 7 -16 16 -18 28 -5 -26 140 -71 190 -22 25 -39 37 -43 31z"/>
 <path d="M932 1352 c-33 -10 -28 -25 10 -36 39 -10 137 -1 151 13 24 24 -97 40 -161 23z"/>
 <path d="M1460 1165 c0 -9 119 -195 124 -195 12 0 -11 55 -32 77 -14 16 -25 30 -25 33 2 11 -49 90 -58 90 -5 0 -9 -2 -9 -5z"/>
 <path d="M1416 1120 c4 -19 11 -44 15 -55 6 -14 7 -9 3 15 -4 19 -11 44 -15 55 -6 14 -7 9 -3 -15z"/>
 <path d="M487 1133 c-4 -3 -7 -13 -7 -21 0 -8 -11 -23 -24 -33 -13 -10 -31 -34 -40 -53 -24 -50 -20 -206 5 -190 5 2 5 19 2 37 -6 29 -5 31 10 18 21 -16 23 -8 3 12 -8 7 -16 30 -17 50 -3 29 5 48 44 104 26 37 47 72 47 76 0 9 -14 9 -23 0z"/>
 <path d="M1487 998 c-4 -28 -5 -53 -3 -56 5 -5 36 58 36 73 0 7 -6 18 -14 24 -11 9 -14 1 -19 -41z"/>
 <path d="M480 986 c0 -14 5 -28 10 -31 6 -3 10 5 10 19 0 14 -4 28 -10 31 -6 3 -10 -5 -10 -19z"/>
 <path d="M720 963 c1 -5 11 -21 25 -37 l23 -29 -25 -34 -25 -33 22 0 c13 0 29 8 36 18 13 16 15 16 28 0 7 -10 24 -18 36 -18 l24 0 -27 28 c-32 34 -33 43 -7 67 11 10 20 24 20 32 0 21 -26 15 -43 -9 l-15 -23 -24 23 c-24 22 -48 29 -48 15z"/>
 <path d="M1130 962 c0 -5 11 -19 25 -32 30 -28 31 -41 5 -65 -25 -23 -25 -35 0 -35 10 0 25 10 31 22 l12 22 17 -22 c10 -12 25 -22 34 -22 22 0 20 6 -9 38 l-25 26 25 26 c14 14 25 31 25 38 0 22 -36 12 -50 -13 -10 -19 -16 -22 -27 -14 -7 6 -13 18 -13 25 0 8 -10 14 -25 14 -14 0 -25 -4 -25 -8z"/>
 <path d="M1582 930 c0 -19 2 -27 5 -17 2 9 2 25 0 35 -3 9 -5 1 -5 -18z"/>
 <path d="M1543 894 c-6 -13 -7 -24 -3 -24 9 0 25 39 18 45 -2 2 -8 -7 -15 -21z"/>
 <path d="M1558 864 c-8 -16 -20 -28 -26 -26 -7 1 -12 -2 -12 -8 0 -18 35 -11 53 10 12 14 15 26 9 37 -8 13 -12 11 -24 -13z"/>
 <path d="M467 846 c-4 -9 -13 -13 -22 -10 -8 3 -15 1 -15 -5 0 -6 4 -11 8 -11 5 0 8 -42 8 -92 0 -104 18 -200 40 -218 11 -10 14 -10 14 1 -1 19 -24 107 -30 113 -3 2 -2 55 1 118 6 118 5 129 -4 104z"/>
 <path d="M1527 803 c-10 -9 -9 -155 1 -149 8 5 16 156 9 156 -2 0 -7 -3 -10 -7z"/>
 <path d="M1515 617 c-4 -10 -5 -21 -1 -24 10 -10 18 4 13 24 -4 17 -4 17 -12 0z"/>
 <path d="M1508 575 c-3 -6 -11 -29 -17 -52 -6 -23 -31 -72 -55 -108 -25 -36 -40 -65 -36 -65 12 0 60 64 60 78 0 7 4 12 9 12 11 0 54 115 49 131 -3 8 -7 9 -10 4z"/>
 <path d="M500 479 c0 -12 76 -125 90 -134 18 -11 11 6 -19 44 -15 20 -36 51 -45 69 -17 33 -26 40 -26 21z"/>
 <path d="M1322 317 c-12 -13 -19 -27 -15 -30 7 -8 53 31 53 45 0 15 -16 8 -38 -15z"/>
 <path d="M652 308 c3 -7 13 -15 24 -17 16 -3 17 -1 5 13 -16 19 -34 21 -29 4z"/>
 <path d="M700 271 c0 -10 24 -21 43 -21 7 0 3 7 -7 15 -22 17 -36 19 -36 6z"/>
 <path d="M1254 265 c-10 -8 -14 -15 -7 -15 19 0 43 11 43 21 0 13 -14 11 -36 -6z"/>
 <path d="M760 243 c0 -5 9 -14 20 -21 11 -7 20 -8 20 -2 0 5 -9 14 -20 20 -11 6 -20 7 -20 3z"/>
 </g>
<g id="layer109" fill="#97837d" stroke="none">
 <path d="M123 1960 c3 -22 18 -68 35 -103 34 -73 84 -110 162 -120 58 -8 238 -60 293 -85 23 -10 54 -24 70 -30 15 -6 27 -16 27 -22 0 -5 4 -10 9 -10 13 0 31 57 31 97 0 19 15 85 34 146 18 62 36 124 40 140 l6 27 -356 0 -357 0 6 -40z"/>
 <path d="M920 1992 c0 -5 7 -31 15 -58 20 -65 19 -67 -11 -85 l-26 -16 37 -42 c20 -22 46 -41 56 -41 11 0 36 15 57 34 l37 35 -29 29 c-27 29 -28 32 -17 82 6 28 11 55 11 60 0 6 -29 10 -65 10 -36 0 -65 -4 -65 -8z"/>
 <path d="M1160 1997 c0 -2 16 -57 35 -122 19 -66 38 -142 41 -170 6 -52 22 -115 30 -115 2 0 13 9 24 20 11 11 29 20 40 20 11 0 20 4 20 8 0 15 290 102 338 102 11 0 42 11 69 26 50 25 53 30 97 138 9 21 16 51 16 67 l0 29 -355 0 c-195 0 -355 -2 -355 -3z"/>
 <path d="M942 1352 c-79 -16 3 -48 95 -37 50 6 73 18 56 28 -15 9 -118 15 -151 9z"/>
 <path d="M720 963 c1 -5 11 -21 25 -37 l23 -29 -25 -34 -25 -33 22 0 c13 0 29 8 36 18 13 16 15 16 28 0 7 -10 24 -18 36 -18 l24 0 -27 28 c-32 34 -33 43 -7 67 11 10 20 24 20 32 0 21 -26 15 -43 -9 l-15 -23 -24 23 c-24 22 -48 29 -48 15z"/>
 <path d="M1130 962 c0 -5 11 -19 25 -32 30 -28 31 -41 5 -65 -25 -23 -25 -35 0 -35 10 0 25 10 31 22 l12 22 17 -22 c10 -12 25 -22 34 -22 22 0 20 6 -9 38 l-25 26 25 26 c14 14 25 31 25 38 0 22 -36 12 -50 -13 -10 -19 -16 -22 -27 -14 -7 6 -13 18 -13 25 0 8 -10 14 -25 14 -14 0 -25 -4 -25 -8z"/>
 <path d="M460 834 c-29 -53 -10 -295 26 -324 11 -10 14 -10 14 1 -1 19 -24 107 -30 113 -3 2 -2 55 1 118 3 62 5 114 4 115 -1 2 -8 -9 -15 -23z"/>
 <path d="M1527 803 c-10 -9 -9 -155 1 -149 8 5 16 156 9 156 -2 0 -7 -3 -10 -7z"/>
 <path d="M1515 617 c-4 -10 -5 -21 -1 -24 10 -10 18 4 13 24 -4 17 -4 17 -12 0z"/>
 <path d="M1508 575 c-3 -6 -11 -29 -17 -52 -6 -23 -31 -72 -55 -108 -25 -36 -40 -65 -36 -65 12 0 60 64 60 78 0 7 4 12 9 12 11 0 54 115 49 131 -3 8 -7 9 -10 4z"/>
 <path d="M500 479 c0 -12 76 -125 90 -134 18 -11 11 6 -19 44 -15 20 -36 51 -45 69 -17 33 -26 40 -26 21z"/>
 <path d="M760 243 c0 -5 9 -14 20 -21 11 -7 20 -8 20 -2 0 5 -9 14 -20 20 -11 6 -20 7 -20 3z"/>
 </g>
<g id="layer110" fill="#a56b5c" stroke="none">
 <path d="M123 1960 c3 -22 18 -68 35 -103 34 -73 84 -110 162 -120 58 -8 238 -60 293 -85 23 -10 54 -24 70 -30 15 -6 27 -16 27 -22 0 -5 4 -10 9 -10 13 0 31 57 31 97 0 19 15 85 34 146 18 62 36 124 40 140 l6 27 -356 0 -357 0 6 -40z"/>
 <path d="M920 1992 c0 -5 7 -31 15 -58 20 -65 19 -67 -11 -85 l-26 -16 37 -42 c20 -22 46 -41 56 -41 11 0 36 15 57 34 l37 35 -29 29 c-27 29 -28 32 -17 82 6 28 11 55 11 60 0 6 -29 10 -65 10 -36 0 -65 -4 -65 -8z"/>
 <path d="M1160 1997 c0 -2 16 -57 35 -122 19 -66 38 -142 41 -170 6 -52 22 -115 30 -115 2 0 13 9 24 20 11 11 29 20 40 20 11 0 20 4 20 8 0 15 290 102 338 102 11 0 42 11 69 26 50 25 53 30 97 138 9 21 16 51 16 67 l0 29 -355 0 c-195 0 -355 -2 -355 -3z"/>
 <path d="M942 1352 c-79 -16 3 -48 95 -37 50 6 73 18 56 28 -15 9 -118 15 -151 9z"/>
 <path d="M720 962 c0 -5 11 -19 25 -32 31 -29 31 -31 -1 -69 l-26 -31 25 0 c16 0 26 7 30 20 3 11 10 20 16 20 6 0 15 -9 21 -20 6 -11 17 -20 25 -20 21 0 19 14 -5 35 -11 10 -20 23 -20 30 0 7 9 20 20 30 11 10 20 24 20 32 0 23 -30 14 -42 -12 -6 -14 -14 -25 -18 -25 -4 0 -15 11 -24 25 -16 24 -46 35 -46 17z"/>
 <path d="M1147 964 c-3 -4 2 -19 13 -34 25 -35 25 -42 0 -65 -11 -10 -20 -22 -20 -27 0 -16 32 -8 50 14 l17 22 14 -22 c8 -12 22 -22 31 -22 24 0 23 6 -7 37 l-24 27 24 32 c14 18 25 35 25 38 0 14 -22 4 -42 -19 l-22 -25 -26 25 c-15 14 -29 22 -33 19z"/>
 <path d="M460 834 c-29 -53 -10 -295 26 -324 11 -10 14 -10 14 1 -1 19 -24 107 -30 113 -3 2 -2 55 1 118 3 62 5 114 4 115 -1 2 -8 -9 -15 -23z"/>
 <path d="M1527 803 c-10 -9 -9 -155 1 -149 8 5 16 156 9 156 -2 0 -7 -3 -10 -7z"/>
 <path d="M1515 617 c-4 -10 -5 -21 -1 -24 10 -10 18 4 13 24 -4 17 -4 17 -12 0z"/>
 <path d="M1508 575 c-3 -6 -11 -29 -17 -52 -6 -23 -31 -72 -55 -108 -25 -36 -40 -65 -36 -65 12 0 60 64 60 78 0 7 4 12 9 12 11 0 54 115 49 131 -3 8 -7 9 -10 4z"/>
 <path d="M500 479 c0 -12 76 -125 90 -134 18 -11 11 6 -19 44 -15 20 -36 51 -45 69 -17 33 -26 40 -26 21z"/>
 <path d="M760 243 c0 -5 9 -14 20 -21 11 -7 20 -8 20 -2 0 5 -9 14 -20 20 -11 6 -20 7 -20 3z"/>
 </g>
<g id="layer111" fill="#464041" stroke="none">
 <path d="M123 1960 c3 -22 18 -68 35 -103 34 -73 84 -110 162 -120 58 -8 238 -60 293 -85 23 -10 54 -24 70 -30 15 -6 27 -16 27 -22 0 -5 4 -10 9 -10 13 0 31 57 31 97 0 19 15 85 34 146 18 62 36 124 40 140 l6 27 -356 0 -357 0 6 -40z"/>
 <path d="M920 1992 c0 -5 7 -31 15 -58 20 -65 19 -67 -11 -85 l-26 -16 37 -42 c20 -22 46 -41 56 -41 11 0 36 15 57 34 l37 35 -29 29 c-27 29 -28 32 -17 82 6 28 11 55 11 60 0 6 -29 10 -65 10 -36 0 -65 -4 -65 -8z"/>
 <path d="M1160 1997 c0 -2 16 -57 35 -122 19 -66 38 -142 41 -170 6 -52 22 -115 30 -115 2 0 13 9 24 20 11 11 29 20 40 20 11 0 20 4 20 8 0 15 290 102 338 102 11 0 42 11 69 26 50 25 53 30 97 138 9 21 16 51 16 67 l0 29 -355 0 c-195 0 -355 -2 -355 -3z"/>
 <path d="M916 1341 c-9 -14 20 -21 84 -21 64 0 93 7 84 21 -3 5 -41 9 -84 9 -43 0 -81 -4 -84 -9z"/>
 <path d="M720 962 c0 -5 11 -19 25 -32 31 -29 31 -31 -1 -69 l-26 -31 25 0 c16 0 26 7 30 20 3 11 10 20 16 20 6 0 15 -9 21 -20 6 -11 17 -20 25 -20 21 0 19 14 -5 35 -11 10 -20 23 -20 30 0 7 9 20 20 30 11 10 20 24 20 32 0 23 -30 14 -42 -12 -6 -14 -14 -25 -18 -25 -4 0 -15 11 -24 25 -16 24 -46 35 -46 17z"/>
 <path d="M1147 964 c-3 -4 2 -19 13 -34 25 -35 25 -42 0 -65 -11 -10 -20 -22 -20 -27 0 -16 32 -8 50 14 l17 22 14 -22 c8 -12 22 -22 31 -22 24 0 23 6 -7 37 l-24 27 24 32 c14 18 25 35 25 38 0 14 -22 4 -42 -19 l-22 -25 -26 25 c-15 14 -29 22 -33 19z"/>
 </g>
<g id="layer112" fill="#313c42" stroke="none">
 <path d="M123 1960 c3 -22 18 -68 35 -103 34 -73 84 -110 162 -120 58 -8 238 -60 293 -85 23 -10 54 -24 70 -30 15 -6 27 -16 27 -22 0 -16 17 -11 25 8 4 9 9 46 12 82 2 35 9 70 14 76 6 7 11 23 13 36 1 13 5 30 8 38 3 8 13 40 21 70 8 30 18 63 22 73 7 16 -14 17 -350 17 l-358 0 6 -40z"/>
 <path d="M925 1978 c4 -13 9 -35 12 -51 3 -15 9 -30 14 -33 16 -9 10 -22 -21 -41 l-31 -20 42 -43 42 -43 33 18 c19 10 41 26 50 37 17 17 16 20 -11 48 -25 26 -27 33 -20 76 3 25 9 53 12 60 4 11 -9 14 -62 14 -65 0 -67 -1 -60 -22z"/>
 <path d="M1165 1983 c4 -10 11 -33 16 -50 5 -18 14 -49 19 -68 34 -119 32 -109 45 -205 9 -67 18 -77 44 -51 11 11 30 21 41 21 11 0 20 4 20 8 0 15 290 102 338 102 11 0 42 11 69 26 50 25 53 30 97 138 9 21 16 51 16 67 l0 29 -356 0 c-335 0 -356 -1 -349 -17z"/>
 <path d="M916 1341 c-9 -14 20 -21 84 -21 64 0 93 7 84 21 -3 5 -41 9 -84 9 -43 0 -81 -4 -84 -9z"/>
 <path d="M738 964 c-4 -4 2 -20 13 -35 21 -30 19 -39 -14 -76 -19 -21 -19 -23 -3 -23 10 0 27 10 37 23 l20 22 15 -22 c16 -22 44 -31 44 -15 0 5 -9 17 -20 27 -25 22 -25 33 0 65 24 30 25 40 5 40 -9 0 -20 -11 -25 -25 -12 -31 -19 -31 -45 1 -11 14 -23 22 -27 18z"/>
 <path d="M1147 963 c-4 -6 2 -18 13 -28 24 -22 25 -43 4 -73 -21 -31 -7 -43 16 -14 10 12 23 22 28 22 5 0 16 -10 25 -22 8 -13 18 -20 22 -16 4 4 -2 19 -14 34 -22 28 -18 47 13 74 9 7 16 16 16 21 0 17 -19 9 -44 -18 l-24 -26 -25 28 c-14 16 -26 24 -30 18z"/>
 </g>
<g id="layer113" fill="#721c1c" stroke="none">
 <path d="M123 1960 c3 -22 18 -68 35 -103 34 -73 84 -110 162 -120 58 -8 238 -60 293 -85 23 -10 54 -24 70 -30 15 -6 27 -16 27 -22 0 -16 17 -11 25 8 4 9 9 46 11 80 2 35 7 69 11 75 4 7 8 18 8 27 2 14 45 155 60 193 7 16 -14 17 -350 17 l-358 0 6 -40z m63 -87 c-5 -6 -24 49 -30 87 -3 21 2 12 14 -25 10 -32 18 -61 16 -62z m81 -77 c21 -8 47 -17 58 -19 16 -4 15 -5 -5 -6 -14 0 -43 8 -65 18 -48 23 -41 27 12 7z"/>
 <path d="M925 1978 c4 -13 9 -35 12 -51 3 -15 9 -30 14 -33 16 -9 10 -22 -21 -41 l-30 -19 41 -42 c22 -23 44 -42 47 -42 4 0 24 11 45 25 42 29 47 53 16 81 -18 16 -20 26 -15 67 4 26 9 54 12 62 5 12 -6 15 -61 15 -65 0 -67 -1 -60 -22z"/>
 <path d="M1165 1983 c4 -10 11 -33 16 -50 5 -18 13 -48 18 -65 5 -18 14 -46 20 -61 6 -15 13 -47 16 -70 18 -146 23 -159 54 -128 11 11 30 21 41 21 11 0 20 4 20 8 0 15 290 102 338 102 11 0 42 11 69 26 50 25 53 30 97 138 20 49 21 96 2 96 -9 0 -17 -15 -21 -37 -3 -21 -18 -63 -31 -93 -26 -57 -26 -45 -1 25 8 22 18 55 22 73 l7 32 -337 0 c-317 0 -337 -1 -330 -17z m570 -194 c-22 -10 -51 -18 -65 -18 -18 0 -11 5 25 18 66 24 91 24 40 0z"/>
 <path d="M916 1341 c-9 -14 20 -21 84 -21 64 0 93 7 84 21 -3 5 -41 9 -84 9 -43 0 -81 -4 -84 -9z"/>
 <path d="M738 964 c-4 -4 2 -20 13 -35 21 -30 19 -39 -14 -76 -19 -21 -19 -23 -3 -23 10 0 27 10 37 23 l20 22 15 -22 c16 -22 44 -31 44 -15 0 5 -9 17 -20 27 -25 22 -25 33 0 65 24 30 25 40 5 40 -9 0 -20 -11 -25 -25 -12 -31 -19 -31 -45 1 -11 14 -23 22 -27 18z"/>
 <path d="M1147 963 c-4 -6 2 -18 13 -28 24 -22 25 -43 4 -73 -21 -31 -7 -43 16 -14 10 12 23 22 28 22 5 0 16 -10 25 -22 8 -13 18 -20 22 -16 4 4 -2 19 -14 34 -22 28 -18 47 13 74 9 7 16 16 16 21 0 17 -19 9 -44 -18 l-24 -26 -25 28 c-14 16 -26 24 -30 18z"/>
 </g>
<g id="layer114" fill="#1d272d" stroke="none">
 <path d="M123 1960 c3 -22 18 -68 35 -103 34 -73 84 -110 162 -120 58 -8 238 -60 293 -85 23 -10 54 -24 70 -30 15 -6 27 -16 27 -22 0 -16 17 -11 25 8 4 9 9 46 11 80 2 35 7 69 11 75 4 7 8 18 8 27 2 14 45 155 60 193 7 16 -14 17 -350 17 l-358 0 6 -40z m63 -87 c-5 -6 -24 49 -30 87 -3 21 2 12 14 -25 10 -32 18 -61 16 -62z m81 -77 c21 -8 47 -17 58 -19 16 -4 15 -5 -5 -6 -14 0 -43 8 -65 18 -48 23 -41 27 12 7z"/>
 <path d="M925 1978 c4 -13 9 -35 12 -51 3 -15 9 -30 14 -33 16 -9 10 -22 -21 -41 l-30 -19 41 -42 c22 -23 44 -42 47 -42 4 0 24 11 45 25 42 29 47 53 16 81 -18 16 -20 26 -15 67 4 26 9 54 12 62 5 12 -6 15 -61 15 -65 0 -67 -1 -60 -22z"/>
 <path d="M1165 1983 c4 -10 11 -33 16 -50 5 -18 13 -48 18 -65 5 -18 14 -46 20 -61 6 -15 13 -47 16 -70 18 -146 23 -159 54 -128 11 11 30 21 41 21 11 0 20 4 20 8 0 15 290 102 338 102 11 0 42 11 69 26 50 25 53 30 97 138 20 49 21 96 2 96 -9 0 -17 -15 -21 -37 -3 -21 -18 -63 -31 -93 -26 -57 -26 -45 -1 25 8 22 18 55 22 73 l7 32 -337 0 c-317 0 -337 -1 -330 -17z m570 -194 c-22 -10 -51 -18 -65 -18 -18 0 -11 5 25 18 66 24 91 24 40 0z"/>
 <path d="M738 964 c-4 -4 2 -20 13 -35 21 -30 19 -39 -14 -76 -19 -21 -19 -23 -3 -23 10 0 27 10 37 23 l20 22 15 -22 c16 -22 44 -31 44 -15 0 5 -9 17 -20 27 -25 22 -25 33 0 65 24 30 25 40 5 40 -9 0 -20 -11 -25 -25 -12 -31 -19 -31 -45 1 -11 14 -23 22 -27 18z"/>
 <path d="M1147 963 c-4 -6 2 -18 13 -28 24 -22 25 -43 4 -73 -21 -31 -7 -43 16 -14 10 12 23 22 28 22 5 0 16 -10 25 -22 8 -13 18 -20 22 -16 4 4 -2 19 -14 34 -22 28 -18 47 13 74 9 7 16 16 16 21 0 17 -19 9 -44 -18 l-24 -26 -25 28 c-14 16 -26 24 -30 18z"/>
 </g>
<g id="layer115" fill="#26211f" stroke="none">
 <path d="M123 1960 c3 -22 18 -68 35 -103 34 -73 84 -110 162 -120 62 -8 241 -61 293 -86 24 -12 49 -21 55 -21 7 0 21 -9 32 -20 l20 -20 12 27 c6 16 12 53 14 83 2 30 20 108 42 173 21 65 35 120 30 123 -5 3 -11 4 -12 3 -13 -16 -69 -238 -73 -289 -6 -92 -9 -97 -34 -66 -11 14 -30 31 -42 38 -22 11 -22 11 -3 -11 23 -25 17 -26 -32 -5 -65 28 -235 82 -300 94 -35 7 -77 22 -93 34 -33 22 -73 104 -84 169 -8 51 -29 49 -22 -3z"/>
 <path d="M551 1938 c-25 -72 -20 -90 7 -27 28 66 35 89 24 89 -6 0 -20 -28 -31 -62z"/>
 <path d="M927 1994 c-4 -4 -3 -12 0 -18 4 -6 8 -16 9 -23 1 -6 7 -28 14 -48 7 -20 10 -38 8 -39 -1 -1 -13 -9 -25 -17 l-22 -15 30 -37 c37 -45 65 -47 102 -9 33 35 34 45 2 66 -17 11 -24 23 -21 34 3 9 10 38 15 65 l8 47 -57 0 c-31 0 -60 -3 -63 -6z"/>
 <path d="M1168 1995 c-3 -3 3 -29 13 -58 10 -28 18 -60 19 -70 0 -10 7 -31 15 -46 8 -16 16 -46 19 -67 2 -22 5 -39 6 -39 1 0 3 -22 6 -50 3 -27 9 -52 15 -53 5 -2 7 -8 3 -13 -9 -16 5 -10 26 11 11 11 29 20 40 20 11 0 20 4 20 8 0 15 290 102 338 102 11 0 42 11 69 26 50 25 53 30 97 138 18 42 21 96 7 96 -5 0 -12 -18 -16 -39 -3 -21 -19 -67 -35 -100 -32 -68 -53 -82 -152 -102 -72 -15 -195 -53 -267 -84 -73 -31 -79 -31 -55 -4 19 22 19 22 -3 11 -12 -7 -30 -23 -41 -37 -11 -14 -23 -25 -26 -25 -3 0 -6 26 -6 58 0 57 -4 77 -51 239 -23 78 -29 90 -41 78z"/>
 <path d="M1402 1988 c3 -7 13 -37 22 -65 10 -29 22 -53 28 -53 6 0 8 6 6 13 -3 6 -13 36 -22 65 -10 28 -22 52 -28 52 -6 0 -8 -6 -6 -12z"/>
 <path d="M604 1831 c3 -5 -8 -19 -24 -32 -16 -13 -30 -31 -30 -39 0 -8 16 2 40 25 36 35 43 55 19 55 -6 0 -8 -4 -5 -9z"/>
 <path d="M1366 1832 c-7 -11 61 -78 70 -69 4 3 -8 18 -25 33 -17 14 -29 30 -25 35 3 5 1 9 -5 9 -5 0 -12 -4 -15 -8z"/>
 <path d="M738 964 c-4 -4 1 -19 12 -34 20 -28 18 -57 -4 -72 -6 -4 -7 -10 -3 -14 4 -5 17 2 29 14 l22 21 23 -26 c13 -14 27 -22 30 -19 4 3 -3 16 -15 29 -27 29 -27 42 -2 69 24 26 25 38 5 38 -8 0 -15 -6 -15 -14 0 -7 -7 -19 -16 -27 -13 -11 -19 -8 -37 15 -12 15 -25 24 -29 20z"/>
 <path d="M1147 963 c-4 -6 2 -18 13 -28 24 -22 25 -43 4 -73 -21 -31 -11 -39 15 -13 26 26 29 26 58 -1 13 -12 23 -16 23 -10 0 6 -4 14 -10 17 -28 17 -30 44 -5 73 14 17 25 33 25 36 0 14 -21 4 -45 -21 l-25 -28 -23 29 c-14 17 -26 25 -30 19z"/>
 </g>
<g id="layer116" fill="#0a0c0d" stroke="none">
 <path d="M123 1960 c3 -22 18 -68 35 -103 34 -73 84 -110 162 -120 62 -8 241 -61 293 -86 24 -12 49 -21 55 -21 7 0 21 -9 32 -20 l20 -20 12 27 c6 16 12 51 13 78 1 47 54 239 75 277 6 11 6 19 -1 24 -6 3 -12 4 -13 3 -13 -16 -69 -238 -73 -289 -6 -92 -9 -97 -34 -66 -11 14 -30 31 -42 38 -22 11 -22 11 -3 -11 23 -25 17 -26 -32 -5 -65 28 -235 82 -300 94 -35 7 -77 22 -93 34 -33 22 -73 104 -84 169 -8 51 -29 49 -22 -3z"/>
 <path d="M551 1938 c-25 -72 -20 -90 7 -27 28 66 35 89 24 89 -6 0 -20 -28 -31 -62z"/>
 <path d="M927 1994 c-3 -3 -2 -14 3 -23 10 -20 32 -102 28 -105 -2 -2 -13 -9 -25 -17 l-22 -15 30 -37 c37 -45 65 -47 102 -9 33 35 33 41 2 67 -22 18 -24 24 -15 60 19 80 17 85 -43 85 -30 0 -56 -3 -60 -6z"/>
 <path d="M1168 1995 c-2 -3 11 -51 29 -107 19 -57 35 -116 37 -133 2 -16 6 -37 9 -45 4 -8 8 -31 10 -50 3 -24 4 -18 5 20 2 55 -2 74 -49 237 -23 78 -29 90 -41 78z"/>
 <path d="M1402 1988 c3 -7 13 -37 22 -65 10 -29 22 -53 28 -53 6 0 8 6 6 13 -3 6 -13 36 -22 65 -10 28 -22 52 -28 52 -6 0 -8 -6 -6 -12z"/>
 <path d="M1845 1961 c-3 -21 -19 -67 -35 -100 -32 -68 -53 -82 -152 -102 -72 -15 -195 -53 -267 -84 -73 -31 -79 -31 -55 -4 19 22 19 22 -1 11 -29 -15 -72 -66 -68 -79 3 -8 11 -5 24 8 10 10 28 19 39 19 11 0 20 4 20 8 0 15 290 102 338 102 11 0 42 11 69 26 50 25 53 30 97 138 18 42 21 96 7 96 -5 0 -12 -18 -16 -39z"/>
 <path d="M604 1831 c3 -5 -8 -19 -24 -32 -16 -13 -30 -31 -30 -39 0 -8 16 2 40 25 36 35 43 55 19 55 -6 0 -8 -4 -5 -9z"/>
 <path d="M1366 1832 c-7 -11 61 -78 70 -69 4 3 -8 18 -25 33 -17 14 -29 30 -25 35 3 5 1 9 -5 9 -5 0 -12 -4 -15 -8z"/>
 <path d="M817 950 c-8 -30 -36 -36 -53 -11 -8 11 -20 21 -25 21 -6 0 1 -14 15 -32 l25 -32 -20 -28 c-24 -33 -15 -37 17 -7 l22 21 11 -21 c7 -12 16 -21 22 -21 6 0 1 12 -10 26 -22 28 -18 47 13 74 20 16 21 30 2 30 -7 0 -16 -9 -19 -20z"/>
 <path d="M1147 964 c-4 -4 5 -20 20 -36 l27 -28 -22 -30 c-15 -20 -18 -30 -10 -30 7 0 19 9 26 21 l13 21 25 -23 c13 -12 26 -20 29 -17 3 2 -4 13 -15 23 -25 23 -25 33 2 62 12 13 18 26 14 30 -4 5 -16 -2 -26 -14 -23 -29 -34 -29 -57 3 -10 14 -22 22 -26 18z"/>
 </g>

</svg>