<!DOCTYPE svg PUBLIC "-//W3C//DTD SVG 20010904//EN" "http://www.w3.org/TR/2001/REC-SVG-20010904/DTD/svg10.dtd">
<svg version="1.0" xmlns="http://www.w3.org/2000/svg" width="200px" height="200px" viewBox="0 0 2000 2000" preserveAspectRatio="xMidYMid meet">
<g id="layer101" fill="#f1f1f1" stroke="none">
 <path d="M174 1954 c15 -114 93 -220 178 -246 21 -6 38 -17 38 -23 0 -7 -9 -70 -20 -141 -57 -375 -48 -791 21 -1004 85 -259 281 -445 485 -458 40 -2 93 0 117 6 34 9 53 8 92 -3 255 -77 459 123 545 538 62 298 47 737 -35 994 l-22 71 36 7 c50 9 115 49 146 90 31 39 60 112 70 173 l7 42 -832 0 -833 0 7 -46z"/>
 </g>
<g id="layer102" fill="#dddad7" stroke="none">
 <path d="M174 1954 c15 -114 93 -220 178 -246 21 -6 38 -17 38 -23 0 -7 -9 -70 -20 -141 -57 -375 -48 -791 21 -1004 85 -259 281 -445 485 -458 40 -2 93 0 117 6 34 9 53 8 92 -3 255 -77 459 123 545 538 62 298 47 737 -35 994 l-22 71 36 7 c50 9 115 49 146 90 31 39 60 112 70 173 l7 42 -832 0 -833 0 7 -46z m547 -1020 c-25 -32 -26 -52 -4 -84 l16 -25 -26 24 c-15 14 -27 34 -27 46 0 27 27 65 46 65 12 0 11 -5 -5 -26z m583 4 c23 -32 20 -61 -10 -89 l-25 -24 15 30 c17 32 13 59 -12 88 -14 15 -14 17 1 17 9 0 23 -10 31 -22z m-34 -83 c-7 -8 -16 -15 -21 -15 -13 0 -11 24 3 38 18 18 35 -3 18 -23z m-443 -11 c-9 -9 -28 6 -21 18 4 6 10 6 17 -1 6 -6 8 -13 4 -17z"/>
 </g>
<g id="layer103" fill="#bbb7b5" stroke="none">
 <path d="M174 1954 c15 -114 93 -220 178 -246 21 -6 38 -17 38 -23 0 -7 -9 -70 -20 -141 -57 -375 -48 -791 21 -1004 85 -259 281 -445 485 -458 40 -2 93 0 117 6 34 9 53 8 92 -3 255 -77 459 123 545 538 62 298 47 737 -35 994 l-22 71 36 7 c50 9 115 49 146 90 31 39 60 112 70 173 l7 42 -832 0 -833 0 7 -46z m553 -1012 c-22 -24 -22 -80 1 -105 16 -19 16 -20 -5 -8 -37 19 -53 50 -42 79 14 36 28 52 47 52 13 0 13 -2 -1 -18z m152 -17 c8 -24 9 -40 2 -53 -13 -25 -41 -48 -41 -34 0 6 5 14 10 17 15 9 12 58 -6 83 -14 20 -14 22 3 22 13 0 23 -12 32 -35z m275 8 c-17 -34 -18 -57 -2 -86 10 -20 10 -21 -6 -8 -29 25 -36 46 -25 85 7 25 16 36 29 36 17 0 18 -2 4 -27z m150 5 c30 -43 18 -84 -33 -113 -11 -6 -10 -2 2 16 22 30 22 77 0 101 -14 16 -15 18 0 18 9 0 23 -10 31 -22z m-464 -67 c0 -24 -18 -37 -32 -23 -8 8 -7 16 2 27 17 21 30 19 30 -4z m427 -19 c-16 -15 -19 -15 -27 -2 -7 11 -5 19 7 28 25 18 42 -3 20 -26z"/>
 </g>
<g id="layer104" fill="#b67f62" stroke="none">
 <path d="M174 1954 c15 -114 93 -220 178 -246 21 -6 38 -17 38 -23 0 -7 -9 -70 -20 -141 -57 -375 -48 -791 21 -1004 85 -259 281 -445 485 -458 40 -2 93 0 117 6 34 9 53 8 92 -3 255 -77 459 123 545 538 62 298 47 737 -35 994 l-22 71 36 7 c50 9 115 49 146 90 31 39 60 112 70 173 l7 42 -832 0 -833 0 7 -46z m702 -1019 c8 -19 14 -42 14 -50 0 -25 -55 -75 -82 -74 l-23 0 24 10 c23 9 23 10 5 24 -18 13 -18 15 -2 31 14 14 20 15 32 4 24 -19 21 21 -4 53 -25 31 -25 32 1 34 15 1 25 -8 35 -32z m304 27 c0 -2 -9 -15 -20 -29 -27 -35 -25 -59 9 -94 20 -19 25 -29 14 -29 -20 0 -73 54 -73 75 0 8 6 31 14 50 10 24 20 33 35 32 12 -1 21 -3 21 -5z m-450 -22 c-35 -35 -23 -92 25 -118 18 -10 18 -11 2 -12 -28 0 -75 28 -82 49 -11 36 24 101 56 101 18 0 18 -1 -1 -20z m583 -22 c22 -46 15 -73 -23 -93 -39 -20 -75 -20 -40 0 17 10 20 14 9 15 -23 0 -31 26 -12 41 13 11 17 10 29 -6 13 -18 14 -17 14 13 0 19 -8 40 -21 53 l-21 21 24 -4 c15 -2 29 -16 41 -40z"/>
 </g>
<g id="layer105" fill="#897f81" stroke="none">
 <path d="M174 1954 c15 -114 93 -220 178 -246 21 -6 38 -17 38 -23 0 -7 -9 -70 -20 -141 -57 -375 -48 -791 21 -1004 85 -259 281 -445 485 -458 40 -2 93 0 117 6 34 9 53 8 92 -3 255 -77 459 123 545 538 62 298 47 737 -35 994 l-22 71 36 7 c50 9 115 49 146 90 31 39 60 112 70 173 l7 42 -832 0 -833 0 7 -46z m860 -663 c4 -5 -15 -9 -41 -9 -31 0 -42 3 -32 9 18 11 66 12 73 0z m-158 -356 c8 -19 14 -42 14 -50 0 -25 -55 -75 -82 -74 l-23 0 24 10 c23 9 23 10 5 24 -18 13 -18 15 -2 31 14 14 20 15 32 4 24 -19 21 21 -4 53 -25 31 -25 32 1 34 15 1 25 -8 35 -32z m304 27 c0 -2 -9 -15 -20 -29 -27 -35 -25 -59 9 -94 20 -19 25 -29 14 -29 -20 0 -73 54 -73 75 0 8 6 31 14 50 10 24 20 33 35 32 12 -1 21 -3 21 -5z m-450 -22 c-35 -35 -23 -92 25 -118 18 -10 18 -11 2 -12 -28 0 -75 28 -82 49 -11 36 24 101 56 101 18 0 18 -1 -1 -20z m583 -22 c22 -46 15 -73 -23 -93 -39 -20 -75 -20 -40 0 17 10 20 14 9 15 -23 0 -31 26 -12 41 13 11 17 10 29 -6 13 -18 14 -17 14 13 0 19 -8 40 -21 53 l-21 21 24 -4 c15 -2 29 -16 41 -40z"/>
 </g>
<g id="layer106" fill="#887a73" stroke="none">
 <path d="M174 1954 c15 -114 93 -220 178 -246 21 -6 38 -17 38 -23 0 -7 -9 -70 -20 -141 -57 -375 -48 -791 21 -1004 85 -259 281 -445 485 -458 40 -2 93 0 117 6 34 9 53 8 92 -3 255 -77 459 123 545 538 62 298 47 737 -35 994 l-22 71 36 7 c50 9 115 49 146 90 31 39 60 112 70 173 l7 42 -832 0 -833 0 7 -46z m860 -663 c4 -5 -15 -9 -41 -9 -31 0 -42 3 -32 9 18 11 66 12 73 0z m-158 -356 c8 -19 14 -42 14 -50 0 -25 -55 -75 -82 -74 l-23 0 24 10 c23 9 23 10 5 24 -18 13 -18 15 -2 31 14 14 20 15 32 4 24 -19 21 21 -4 53 -25 31 -25 32 1 34 15 1 25 -8 35 -32z m304 29 c0 -3 -9 -17 -20 -31 -27 -35 -25 -59 9 -94 20 -19 25 -29 14 -29 -20 0 -73 54 -73 75 0 35 29 85 49 85 12 0 21 -3 21 -6z m-440 -14 c-12 -8 -13 -11 -1 -19 9 -6 10 -11 2 -15 -6 -4 -11 -2 -11 4 0 6 -4 8 -10 5 -14 -9 -12 -57 4 -77 7 -10 24 -22 37 -27 l24 -10 -23 0 c-32 -1 -79 25 -87 48 -3 10 2 37 11 60 13 34 21 41 43 41 20 0 23 -2 11 -10z m575 -34 c13 -35 14 -48 5 -65 -12 -24 -48 -41 -83 -41 -19 1 -18 3 8 15 18 8 23 14 14 14 -23 1 -31 27 -13 41 11 10 17 10 29 0 25 -21 19 30 -7 57 l-21 23 25 0 c22 0 29 -8 43 -44z"/>
 </g>
<g id="layer107" fill="#a86d4c" stroke="none">
 <path d="M174 1954 c15 -114 93 -220 178 -246 21 -6 38 -17 38 -23 0 -7 -9 -70 -20 -141 -57 -375 -48 -791 21 -1004 85 -259 281 -445 485 -458 40 -2 93 0 117 6 34 9 53 8 92 -3 255 -77 459 123 545 538 62 298 47 737 -35 994 l-22 71 36 7 c50 9 115 49 146 90 31 39 60 112 70 173 l7 42 -832 0 -833 0 7 -46z m860 -663 c4 -5 -15 -9 -41 -9 -31 0 -42 3 -32 9 18 11 66 12 73 0z m-297 -349 c-15 -15 -27 -39 -27 -52 0 -35 38 -70 75 -70 39 0 50 9 29 24 -24 18 -7 49 23 41 22 -5 24 -3 18 17 -4 13 -17 33 -28 46 l-20 22 27 0 c21 0 30 -7 42 -35 20 -49 18 -63 -15 -96 -26 -25 -37 -29 -86 -29 -46 0 -60 4 -80 25 -14 13 -25 31 -25 41 0 27 31 83 48 87 41 11 45 6 19 -21z m428 -4 c-20 -23 -25 -38 -20 -57 10 -39 35 -61 70 -61 40 0 48 8 29 28 -14 13 -14 16 0 30 12 13 18 13 30 2 28 -22 19 24 -10 59 -14 17 -22 31 -17 31 33 -1 53 -16 67 -51 21 -51 20 -56 -9 -84 -20 -21 -34 -25 -80 -25 -49 0 -60 4 -86 29 -33 33 -35 47 -15 96 12 27 21 35 41 35 l27 0 -27 -32z"/>
 </g>
<g id="layer108" fill="#71625c" stroke="none">
 <path d="M174 1954 c15 -114 93 -220 178 -246 21 -6 38 -17 38 -23 0 -7 -9 -70 -20 -141 -57 -375 -48 -791 21 -1004 85 -259 281 -445 485 -458 40 -2 93 0 117 6 34 9 53 8 92 -3 255 -77 459 123 545 538 62 298 47 737 -35 994 l-22 71 36 7 c50 9 115 49 146 90 31 39 60 112 70 173 l7 42 -832 0 -833 0 7 -46z m895 -661 l26 -18 -35 -6 -35 -6 35 -2 c56 -3 6 -19 -60 -19 -72 0 -114 16 -50 19 25 1 51 2 58 2 6 -1 12 3 12 8 0 5 -25 6 -57 3 -63 -8 -67 6 -9 32 36 16 79 11 115 -13z m-332 -351 c-15 -15 -27 -39 -27 -52 0 -35 38 -70 75 -70 39 0 50 9 29 24 -24 18 -7 49 23 41 22 -5 24 -3 18 17 -4 13 -17 33 -28 46 l-20 22 27 0 c21 0 30 -7 42 -35 20 -49 18 -63 -15 -96 -26 -25 -37 -29 -86 -29 -46 0 -60 4 -80 25 -14 13 -25 31 -25 41 0 27 31 83 48 87 41 11 45 6 19 -21z m428 -4 c-20 -23 -25 -38 -20 -57 10 -39 35 -61 70 -61 40 0 48 8 29 28 -14 13 -14 16 0 30 12 13 18 13 30 2 28 -22 19 24 -10 59 -14 17 -22 31 -17 31 33 -1 53 -16 67 -51 21 -51 20 -56 -9 -84 -20 -21 -34 -25 -80 -25 -49 0 -60 4 -86 29 -33 33 -35 47 -15 96 12 27 21 35 41 35 l27 0 -27 -32z"/>
 </g>
<g id="layer109" fill="#69504a" stroke="none">
 <path d="M174 1954 c15 -114 93 -220 178 -246 21 -6 38 -17 38 -23 0 -7 -9 -70 -20 -141 -57 -375 -48 -791 21 -1004 85 -259 281 -445 485 -458 40 -2 93 0 117 6 34 9 53 8 92 -3 255 -77 459 123 545 538 62 298 47 737 -35 994 l-22 71 36 7 c50 9 115 49 146 90 31 39 60 112 70 173 l7 42 -832 0 -833 0 7 -46z m895 -661 l26 -18 -35 -6 -35 -6 35 -2 c56 -3 6 -19 -60 -19 -72 0 -114 16 -50 19 25 1 51 2 58 2 6 -1 12 3 12 8 0 5 -25 6 -57 3 -63 -8 -67 6 -9 32 36 16 79 11 115 -13z m-330 -352 c-34 -35 -36 -59 -8 -95 20 -25 50 -33 83 -20 15 6 15 7 0 19 -23 17 -11 49 16 42 32 -8 26 37 -7 62 l-28 20 33 1 c27 0 35 -5 49 -34 27 -58 3 -107 -62 -125 -62 -17 -145 17 -145 59 0 56 34 98 82 99 12 1 9 -6 -13 -28z m439 8 c-33 -24 -38 -81 -11 -111 17 -19 78 -25 88 -8 3 6 -1 10 -9 10 -9 0 -16 6 -16 14 0 20 27 39 45 32 26 -9 17 23 -14 55 -30 30 -22 37 21 20 16 -6 29 -23 38 -50 11 -35 11 -43 -3 -65 -22 -33 -79 -49 -129 -36 -68 19 -93 67 -65 126 14 29 22 34 49 34 l33 -1 -27 -20z"/>
 </g>
<g id="layer110" fill="#6e3f31" stroke="none">
 <path d="M174 1954 c15 -114 93 -220 178 -246 21 -6 38 -17 38 -23 0 -7 -9 -70 -20 -141 -57 -375 -48 -791 21 -1004 85 -259 281 -445 485 -458 40 -2 93 0 117 6 34 9 53 8 92 -3 255 -77 459 123 545 538 62 298 47 737 -35 994 l-22 71 36 7 c50 9 115 49 146 90 31 39 60 112 70 173 l7 42 -832 0 -833 0 7 -46z m895 -661 l26 -18 -35 -6 -35 -6 35 -2 c56 -3 6 -19 -60 -19 -72 0 -114 16 -50 19 25 1 51 2 58 2 6 -1 12 3 12 8 0 5 -25 6 -57 3 -63 -8 -67 6 -9 32 36 16 79 11 115 -13z m-194 -353 c29 -56 11 -101 -48 -125 -48 -19 -93 -14 -131 16 -29 23 -32 40 -15 88 14 40 36 50 116 50 59 1 63 0 78 -29z m431 6 c24 -34 28 -84 9 -106 -31 -34 -91 -44 -142 -25 -64 25 -79 65 -47 127 l16 30 75 -4 c59 -3 78 -7 89 -22z"/>
 <path d="M739 940 c-19 -16 -20 -19 -5 -13 13 4 17 2 14 -8 -3 -8 -12 -13 -22 -11 -25 4 -20 -35 9 -63 13 -14 35 -25 49 -25 21 0 24 4 22 33 -1 26 3 33 22 35 27 4 28 26 2 52 -26 26 -61 26 -91 0z"/>
 <path d="M1174 945 c-11 -8 -14 -15 -6 -15 6 0 12 -7 12 -15 0 -18 -16 -20 -23 -2 -3 6 -6 -3 -6 -20 -1 -39 28 -73 63 -73 27 0 43 16 24 23 -20 7 6 42 30 41 26 -1 21 34 -9 59 -26 21 -59 22 -85 2z"/>
 </g>
<g id="layer111" fill="#83401b" stroke="none">
 <path d="M174 1954 c15 -114 93 -220 178 -246 21 -6 38 -17 38 -23 0 -7 -9 -70 -20 -141 -57 -375 -48 -791 21 -1004 85 -259 281 -445 485 -458 40 -2 93 0 117 6 34 9 53 8 92 -3 255 -77 459 123 545 538 62 298 47 737 -35 994 l-22 71 36 7 c50 9 115 49 146 90 45 58 93 215 66 215 -6 0 -11 -6 -11 -14 0 -8 -4 -17 -9 -20 -5 -4 -7 3 -4 14 5 20 2 20 -812 20 l-818 0 7 -46z m65 -73 c15 -25 30 -54 34 -63 3 -9 19 -25 34 -35 15 -10 30 -21 33 -25 3 -4 18 -11 33 -17 15 -6 27 -15 27 -21 0 -22 -99 29 -133 69 -27 33 -68 130 -66 159 1 14 2 14 6 -2 3 -10 17 -39 32 -65z m1541 -5 c-12 -31 -33 -69 -46 -85 -26 -32 -116 -81 -147 -81 -27 0 -12 17 22 23 16 3 35 12 42 19 8 7 27 21 42 31 15 10 31 26 34 35 4 9 9 19 12 22 6 5 43 79 47 93 1 4 2 10 4 15 1 4 4 2 6 -4 3 -6 -5 -37 -16 -68z m-1056 -98 c-22 -43 -75 -110 -82 -104 -6 7 80 135 91 136 4 0 0 -15 -9 -32z m-39 -163 c47 -46 44 -53 -5 -14 -22 18 -40 36 -40 41 0 14 10 9 45 -27z m384 -322 l26 -18 -35 -6 -35 -6 35 -2 c56 -3 6 -19 -60 -19 -72 0 -114 16 -50 19 25 1 51 2 58 2 6 -1 12 3 12 8 0 5 -25 6 -57 3 -63 -8 -67 6 -9 32 36 16 79 11 115 -13z m-201 -336 c19 -22 25 -67 12 -96 -15 -37 -79 -65 -126 -56 -40 7 -84 41 -84 64 0 35 23 83 44 91 33 14 142 12 154 -3z m438 -11 c24 -34 28 -84 9 -106 -31 -34 -91 -44 -142 -25 -64 25 -79 65 -47 127 l16 30 75 -4 c59 -3 78 -7 89 -22z"/>
 <path d="M739 940 c-19 -16 -20 -19 -5 -13 13 4 17 2 14 -8 -3 -8 -12 -13 -22 -11 -25 4 -20 -35 9 -63 13 -14 35 -25 49 -25 21 0 24 4 22 33 -1 26 3 33 22 35 25 4 27 14 11 43 -6 12 -17 18 -25 15 -9 -3 -12 -1 -9 4 11 18 -43 10 -66 -10z"/>
 <path d="M1174 945 c-11 -8 -14 -15 -6 -15 6 0 12 -7 12 -15 0 -18 -16 -20 -23 -2 -3 6 -6 -3 -6 -20 -1 -39 28 -73 63 -73 27 0 43 16 24 23 -20 7 6 42 30 41 26 -1 21 34 -9 59 -26 21 -59 22 -85 2z"/>
 </g>
<g id="layer112" fill="#5c453b" stroke="none">
 <path d="M174 1954 c15 -114 93 -220 178 -246 21 -6 38 -17 38 -23 0 -7 -9 -70 -20 -141 -57 -375 -48 -791 21 -1004 85 -259 281 -445 485 -458 40 -2 93 0 117 6 34 9 53 8 92 -3 255 -77 459 123 545 538 62 298 47 737 -35 994 l-22 71 36 7 c50 9 115 49 146 90 45 58 93 215 66 215 -6 0 -11 -6 -11 -14 0 -8 -4 -17 -9 -20 -5 -4 -7 3 -4 14 5 20 2 20 -812 20 l-818 0 7 -46z m65 -73 c15 -25 30 -54 34 -63 3 -9 19 -25 34 -35 15 -10 30 -21 33 -25 3 -4 18 -11 33 -17 15 -6 27 -15 27 -21 0 -22 -99 29 -133 69 -27 33 -68 130 -66 159 1 14 2 14 6 -2 3 -10 17 -39 32 -65z m1541 -5 c-12 -31 -33 -69 -46 -85 -26 -32 -116 -81 -147 -81 -27 0 -12 17 22 23 16 3 35 12 42 19 8 7 27 21 42 31 15 10 31 26 34 35 4 9 9 19 12 22 6 5 43 79 47 93 1 4 2 10 4 15 1 4 4 2 6 -4 3 -6 -5 -37 -16 -68z m-1056 -98 c-22 -43 -75 -110 -82 -104 -6 7 80 135 91 136 4 0 0 -15 -9 -32z m-39 -163 c47 -46 44 -53 -5 -14 -22 18 -40 36 -40 41 0 14 10 9 45 -27z m371 -306 c3 -6 20 -19 36 -29 28 -17 29 -19 12 -28 -11 -5 -41 -9 -69 -9 -27 0 -60 -3 -72 -7 -15 -5 -23 -3 -23 4 0 6 -4 8 -10 5 -5 -3 -19 -1 -32 6 l-22 12 27 14 c15 7 27 18 27 23 0 17 115 26 126 9z m-188 -352 c19 -22 25 -67 12 -96 -15 -37 -79 -65 -126 -56 -40 7 -84 41 -84 64 0 35 23 83 44 91 33 14 142 12 154 -3z m438 -11 c24 -34 28 -84 9 -106 -31 -34 -91 -44 -142 -25 -64 25 -79 65 -47 127 l16 30 75 -4 c59 -3 78 -7 89 -22z"/>
 <path d="M739 940 c-19 -16 -20 -19 -5 -13 13 4 17 2 14 -8 -3 -8 -12 -13 -22 -11 -25 4 -20 -35 9 -63 13 -14 35 -25 49 -25 21 0 24 4 22 33 -1 26 3 33 22 35 25 4 27 14 11 43 -6 12 -17 18 -25 15 -9 -3 -12 -1 -9 4 11 18 -43 10 -66 -10z"/>
 <path d="M1174 945 c-11 -8 -14 -15 -6 -15 6 0 12 -7 12 -15 0 -18 -16 -20 -23 -2 -3 6 -6 -3 -6 -20 -1 -39 28 -73 63 -73 27 0 43 16 24 23 -20 7 6 42 30 41 26 -1 21 34 -9 59 -26 21 -59 22 -85 2z"/>
 </g>
<g id="layer113" fill="#713819" stroke="none">
 <path d="M174 1954 c15 -114 93 -220 178 -246 21 -6 38 -17 38 -23 0 -7 -9 -70 -20 -141 -57 -375 -48 -791 21 -1004 85 -259 281 -445 485 -458 40 -2 93 0 117 6 34 9 53 8 92 -3 255 -77 459 123 545 538 62 298 47 737 -35 994 l-22 71 36 7 c50 9 115 49 146 90 31 39 60 112 70 173 10 62 -11 53 -24 -10 -25 -117 -75 -186 -164 -223 -69 -29 -86 -16 -20 15 33 17 76 47 94 67 32 37 72 115 84 166 l7 27 -800 0 c-754 0 -801 -1 -805 -17 -4 -17 -5 -17 -6 0 0 9 -6 17 -12 17 -8 0 -10 -15 -5 -46z m111 -142 c15 -18 47 -44 71 -58 48 -28 60 -49 19 -34 -84 32 -123 70 -154 155 -30 81 -26 100 7 30 16 -33 41 -75 57 -93z m446 -17 c-22 -49 -80 -129 -88 -121 -3 3 18 39 46 81 28 42 51 82 51 88 0 5 3 8 6 4 3 -3 -4 -26 -15 -52z m-40 -182 c41 -46 36 -60 -6 -19 -25 24 -45 47 -45 50 0 10 33 -10 51 -31z m802 -648 c2 -226 -9 -301 -67 -460 -31 -86 -20 -74 38 40 52 101 90 240 100 360 4 44 10 94 13 110 7 29 7 28 14 -15 4 -25 8 -119 8 -210 1 -210 -19 -316 -83 -445 -87 -176 -193 -259 -330 -259 -39 0 -88 5 -109 13 l-39 13 24 27 c19 22 17 21 -10 -4 -32 -29 -36 -30 -135 -30 -96 0 -106 2 -172 35 -98 49 -200 152 -248 250 -66 135 -98 279 -113 505 -7 111 1 123 17 24 19 -126 79 -271 161 -391 21 -32 40 -58 42 -58 2 0 -12 40 -30 88 -47 126 -79 243 -97 352 -22 132 -28 208 -17 190 5 -8 10 -23 10 -32 0 -36 64 -217 110 -314 153 -318 376 -518 484 -433 14 11 33 33 41 49 14 26 16 27 55 16 35 -9 47 -8 78 9 116 63 234 534 217 872 l-4 88 21 -90 c17 -75 21 -126 21 -300z m-437 344 c3 -6 20 -19 36 -29 28 -17 29 -19 12 -28 -11 -5 -41 -9 -69 -9 -27 0 -60 -3 -72 -7 -15 -5 -23 -3 -23 4 0 6 -4 8 -10 5 -5 -3 -19 -1 -32 6 l-22 12 27 14 c15 7 27 18 27 23 0 17 115 26 126 9z m-186 -354 c6 -8 14 -32 17 -54 5 -34 2 -43 -21 -65 -38 -35 -96 -43 -143 -19 -51 25 -59 42 -44 93 15 49 33 58 117 59 42 1 65 -4 74 -14z m429 -4 c30 -30 38 -87 16 -111 -27 -30 -87 -43 -135 -30 -51 14 -75 48 -67 96 9 56 21 64 98 64 55 0 73 -4 88 -19z"/>
 <path d="M739 940 l-24 -21 32 16 c41 20 56 19 76 -3 22 -24 11 -36 -15 -17 -23 15 -48 10 -48 -11 0 -8 -7 -14 -15 -14 -8 0 -15 5 -15 12 0 8 -3 9 -10 2 -26 -26 22 -84 68 -84 16 0 20 6 18 33 -1 26 3 33 22 35 27 4 28 22 2 50 -26 28 -61 28 -91 2z"/>
 <path d="M1174 944 c-19 -15 -19 -16 1 -9 42 15 61 16 79 2 29 -21 11 -41 -19 -21 -22 15 -25 14 -37 -5 -16 -26 -35 -27 -41 -3 -3 9 -5 3 -6 -15 -1 -38 31 -73 67 -73 18 0 22 4 17 19 -8 26 4 51 26 51 27 0 24 35 -3 54 -29 20 -59 20 -84 0z"/>
 </g>
<g id="layer114" fill="#4e352b" stroke="none">
 <path d="M174 1954 c15 -114 93 -220 178 -246 21 -6 38 -17 38 -23 0 -7 -9 -70 -20 -141 -57 -375 -48 -791 21 -1004 85 -259 281 -445 485 -458 40 -2 93 0 117 6 34 9 53 8 92 -3 255 -77 459 123 545 538 62 298 47 737 -35 994 l-22 71 36 7 c50 9 115 49 146 90 31 39 60 112 70 173 10 62 -11 53 -24 -10 -25 -117 -75 -186 -164 -223 -61 -25 -69 -21 -110 60 -39 74 -59 96 -51 53 3 -13 -2 -9 -11 11 -8 18 -31 60 -51 92 -35 58 -36 59 -80 59 l-44 0 -1 -52 c-1 -29 -4 -66 -8 -82 l-6 -30 -12 27 c-16 34 -33 28 -72 -24 -25 -34 -30 -37 -41 -24 -7 9 -14 29 -15 45 -2 16 -12 48 -23 71 -11 23 -18 47 -15 55 4 11 -13 14 -91 14 -80 0 -96 -3 -96 -15 0 -28 -42 -149 -58 -167 -14 -16 -17 -15 -44 20 -45 56 -54 58 -77 15 -11 -21 -34 -58 -51 -83 l-31 -45 6 45 c6 39 30 136 51 208 6 21 4 22 -48 22 -53 0 -57 -2 -99 -47 -56 -60 -87 -110 -115 -187 l-23 -61 -1 40 -2 40 -11 -37 -12 -38 -50 24 c-27 13 -60 34 -72 47 -28 31 -60 102 -74 167 -14 66 -34 70 -25 6z m650 -169 c31 -47 65 -90 76 -97 11 -7 20 -16 20 -20 0 -4 -24 -21 -53 -38 -76 -43 -102 -73 -102 -120 0 -46 -19 -38 -30 12 -4 17 -27 50 -51 74 -27 26 -44 51 -44 66 0 12 20 51 44 86 24 34 49 76 56 92 7 17 16 30 20 30 5 0 33 -38 64 -85z m431 63 c14 -46 14 -311 -1 -345 -14 -37 -25 -44 -17 -13 11 40 -18 81 -89 126 -37 24 -68 47 -68 52 0 4 9 13 20 19 10 7 44 51 75 98 31 47 60 85 64 85 5 0 12 -10 16 -22z m-240 -95 c11 -76 33 -112 91 -149 46 -30 74 -54 61 -54 -3 0 -21 7 -40 15 -23 10 -69 15 -127 15 -58 0 -104 -5 -127 -15 -19 -8 -37 -15 -40 -15 -12 0 14 23 61 55 59 39 80 74 91 148 4 26 11 47 15 47 4 0 11 -21 15 -47z m96 -288 c25 -9 82 -45 127 -80 77 -61 82 -67 102 -132 42 -136 61 -320 41 -392 l-7 -24 -16 25 c-9 14 -24 42 -33 64 -9 21 -21 42 -28 46 -7 4 -41 7 -77 6 l-65 -1 68 -6 c76 -7 92 -19 103 -78 8 -42 -14 -69 -68 -83 -47 -13 -111 2 -131 30 -8 12 -18 16 -27 10 -10 -6 -5 -13 21 -29 54 -33 105 -43 182 -36 68 7 69 7 65 -16 -2 -17 -11 -26 -33 -30 -61 -13 -135 -9 -187 11 -61 23 -68 24 -68 10 0 -18 82 -50 127 -50 23 0 65 5 93 11 28 6 54 9 56 6 5 -4 -41 -149 -67 -214 -29 -71 -219 -112 -373 -81 -51 10 -63 17 -104 65 -48 55 -174 234 -169 239 2 2 25 -3 52 -11 87 -27 178 -14 214 28 18 22 3 21 -50 -3 -73 -33 -212 -20 -238 22 -13 21 -12 21 67 14 88 -8 136 1 191 35 24 14 31 23 22 29 -8 4 -23 -2 -38 -16 -32 -30 -91 -39 -134 -21 -48 20 -62 40 -55 80 11 58 26 69 102 77 l69 7 -65 1 c-36 1 -70 -2 -77 -6 -6 -4 -21 -28 -32 -52 -11 -25 -31 -58 -45 -75 -21 -25 -27 -28 -36 -15 -14 21 -13 39 9 165 11 61 22 141 26 178 6 53 15 79 39 115 36 54 163 156 221 176 54 19 171 20 226 1z m382 -500 c2 -226 -9 -301 -67 -460 -31 -86 -20 -74 38 40 52 101 90 240 100 360 4 44 10 94 13 110 7 29 7 28 14 -15 4 -25 8 -119 8 -210 1 -210 -19 -316 -83 -445 -87 -176 -193 -259 -330 -259 -39 0 -88 5 -109 13 l-39 13 24 27 c19 22 17 21 -10 -4 -32 -29 -36 -30 -135 -30 -96 0 -106 2 -172 35 -98 49 -200 152 -248 250 -66 135 -98 279 -113 505 -7 111 1 123 17 24 19 -126 79 -271 161 -391 21 -32 40 -58 42 -58 2 0 -12 40 -30 88 -47 126 -79 243 -97 352 -22 132 -28 208 -17 190 5 -8 10 -23 10 -32 0 -36 64 -217 110 -314 153 -318 376 -518 484 -433 14 11 33 33 41 49 14 26 16 27 55 16 35 -9 47 -8 78 9 116 63 234 534 217 872 l-4 88 21 -90 c17 -75 21 -126 21 -300z"/>
 <path d="M960 1145 c-24 -13 -21 -14 40 -14 61 0 64 1 40 14 -14 8 -32 14 -40 14 -8 0 -26 -6 -40 -14z"/>
 <path d="M739 940 l-24 -21 32 16 c41 20 56 19 76 -3 22 -24 11 -36 -15 -17 -23 15 -48 10 -48 -11 0 -8 -7 -14 -15 -14 -8 0 -15 5 -15 12 0 8 -3 9 -10 2 -26 -26 22 -84 68 -84 16 0 20 6 18 33 -1 26 3 33 22 35 27 4 28 22 2 50 -26 28 -61 28 -91 2z"/>
 <path d="M1174 944 c-19 -15 -19 -16 1 -9 42 15 61 16 79 2 29 -21 11 -41 -19 -21 -22 15 -25 14 -37 -5 -16 -26 -35 -27 -41 -3 -3 9 -5 3 -6 -15 -1 -38 31 -73 67 -73 18 0 22 4 17 19 -8 26 4 51 26 51 27 0 24 35 -3 54 -29 20 -59 20 -84 0z"/>
 </g>
<g id="layer115" fill="#50240e" stroke="none">
 <path d="M174 1954 c15 -114 93 -220 178 -246 21 -6 38 -17 38 -23 0 -7 -9 -70 -20 -141 -57 -375 -48 -791 21 -1004 85 -259 281 -445 485 -458 40 -2 93 0 117 6 34 9 53 8 92 -3 240 -73 438 104 529 471 43 173 51 247 50 494 0 254 -19 410 -69 567 l-22 71 36 7 c50 9 115 49 146 90 31 39 60 112 70 173 10 64 -10 51 -25 -15 -27 -125 -74 -185 -175 -222 -32 -12 -58 -20 -59 -19 0 2 -18 38 -39 81 -38 76 -60 99 -51 55 3 -13 -2 -9 -11 11 -8 18 -31 60 -51 92 -35 58 -36 59 -80 59 l-44 0 -1 -52 c-1 -29 -4 -66 -8 -82 l-6 -30 -12 27 c-16 34 -33 28 -72 -24 -25 -34 -30 -37 -41 -24 -7 9 -14 29 -15 45 -2 16 -12 48 -23 71 -11 23 -18 47 -15 55 4 11 -13 14 -91 14 -80 0 -96 -3 -96 -15 0 -28 -42 -149 -58 -167 -14 -16 -17 -15 -44 20 -45 56 -54 58 -77 15 -11 -21 -34 -58 -51 -83 l-31 -45 6 45 c6 39 30 136 51 208 6 21 4 22 -48 22 -53 0 -57 -2 -100 -48 -55 -59 -95 -126 -119 -200 l-18 -57 0 44 c-1 49 -7 52 -14 6 -3 -25 -8 -30 -28 -27 -35 3 -99 51 -131 97 -16 22 -36 72 -45 113 -19 80 -39 98 -29 26z m402 -156 c-73 -172 -112 -413 -95 -597 11 -124 60 -307 109 -409 75 -157 253 -385 345 -442 79 -49 138 -42 170 20 18 34 15 33 50 20 39 -15 88 12 124 69 41 63 105 261 130 401 34 187 27 316 -33 630 -14 69 -27 148 -31 175 l-6 50 19 -45 c10 -25 31 -65 46 -89 16 -25 34 -58 42 -75 l13 -31 1 49 c0 27 -11 105 -25 174 -14 68 -24 127 -21 129 6 7 51 -94 80 -181 15 -44 36 -129 49 -188 12 -59 25 -108 30 -108 7 0 6 39 -9 200 -6 75 10 46 31 -55 37 -182 60 -593 35 -650 -8 -17 -9 -16 -11 10 -1 17 -5 -28 -9 -100 -15 -261 -74 -435 -191 -559 -97 -104 -198 -135 -326 -102 -51 12 -73 13 -118 4 -121 -24 -255 30 -376 151 -149 149 -215 349 -238 719 -10 159 -1 338 25 537 l19 140 5 -95 c6 -102 9 -102 34 3 8 37 26 94 39 126 27 66 116 215 124 207 3 -3 -11 -42 -31 -88z m248 -13 c31 -47 65 -90 76 -97 11 -7 20 -16 20 -20 0 -4 -24 -21 -53 -38 -76 -43 -102 -73 -102 -120 0 -21 -2 -37 -6 -34 -4 2 -19 28 -33 59 -16 32 -39 62 -57 72 -41 24 -40 70 4 127 18 24 44 64 57 90 14 25 28 46 32 46 3 0 31 -38 62 -85z m431 68 c14 -35 14 -316 -1 -350 -14 -37 -25 -44 -17 -13 11 40 -18 81 -89 126 -37 24 -68 47 -68 52 0 4 9 13 20 19 10 7 44 51 75 98 31 47 60 85 65 85 4 0 11 -8 15 -17z m-240 -100 c11 -76 33 -112 91 -149 46 -30 74 -54 61 -54 -3 0 -21 7 -40 15 -23 10 -69 15 -127 15 -58 0 -104 -5 -127 -15 -19 -8 -37 -15 -40 -15 -12 0 14 23 61 55 59 39 80 74 91 148 4 26 11 47 15 47 4 0 11 -21 15 -47z m96 -288 c25 -9 82 -45 127 -80 77 -61 82 -67 102 -132 42 -136 61 -320 41 -392 l-7 -24 -16 25 c-9 14 -24 42 -33 64 -9 21 -21 42 -28 46 -7 4 -41 7 -77 6 l-65 -1 68 -6 c76 -7 92 -19 103 -78 8 -42 -14 -69 -68 -83 -47 -13 -111 2 -131 30 -8 12 -18 16 -27 10 -10 -6 -5 -13 21 -29 53 -33 105 -43 181 -36 54 6 68 4 68 -7 0 -23 -39 -156 -67 -228 -23 -58 -32 -71 -62 -85 -98 -43 -215 -56 -325 -34 -50 11 -63 18 -102 63 -50 57 -126 164 -173 245 l-32 54 80 -7 c87 -8 135 1 190 35 24 14 31 23 22 29 -8 4 -23 -2 -38 -16 -13 -12 -38 -26 -54 -29 -64 -14 -139 25 -139 73 0 25 -2 24 -31 -16 -17 -23 -35 -42 -40 -42 -20 0 -20 55 0 172 11 68 23 152 27 186 5 47 15 76 38 110 36 54 164 156 221 176 54 19 171 20 226 1z"/>
 <path d="M422 1170 c0 -19 2 -27 5 -17 2 9 2 25 0 35 -3 9 -5 1 -5 -18z"/>
 <path d="M960 1145 c-24 -13 -21 -14 40 -14 61 0 64 1 40 14 -14 8 -32 14 -40 14 -8 0 -26 -6 -40 -14z"/>
 <path d="M704 972 c-12 -8 -34 -46 -34 -59 1 -4 7 4 15 19 15 28 34 34 120 41 25 2 16 4 -25 5 -36 1 -70 -2 -76 -6z"/>
 <path d="M767 913 c-12 -11 -7 -41 7 -46 8 -3 22 3 31 13 16 17 15 19 -4 29 -23 13 -26 13 -34 4z"/>
 <path d="M1194 906 c-6 -16 11 -46 27 -46 9 0 33 40 27 45 -2 1 -13 6 -26 9 -15 5 -24 3 -28 -8z"/>
 <path d="M885 761 c-3 -5 -29 -17 -58 -25 -44 -13 -61 -13 -114 -2 -34 7 -60 9 -57 5 6 -10 98 -29 142 -29 40 0 103 27 110 48 4 14 -14 17 -23 3z"/>
 <path d="M1086 757 c9 -23 77 -45 134 -42 91 4 100 5 100 13 0 4 -26 6 -58 4 -41 -3 -74 3 -112 17 -64 24 -71 25 -64 8z"/>
 </g>
<g id="layer116" fill="#322528" stroke="none">
 <path d="M550 1939 c-54 -65 -82 -115 -111 -194 l-18 -50 -1 35 c-2 31 -3 32 -9 10 -10 -35 -28 -35 -87 0 -37 21 -61 45 -84 82 -17 29 -29 44 -25 33 4 -11 8 -29 10 -40 6 -29 81 -93 126 -107 22 -6 39 -17 39 -23 0 -7 -9 -70 -20 -141 -57 -375 -48 -791 21 -1004 85 -259 281 -445 485 -458 40 -2 93 0 117 6 34 9 53 8 92 -3 240 -73 438 104 529 471 43 173 51 247 50 494 0 254 -19 410 -69 567 l-22 71 36 7 c20 4 55 18 79 31 44 26 106 100 96 115 -3 5 0 9 6 9 6 0 8 5 5 11 -4 5 -21 -13 -38 -42 -33 -54 -99 -99 -164 -112 -30 -6 -32 -4 -52 46 -12 29 -30 63 -41 77 -18 23 -20 23 -20 5 0 -12 -16 9 -38 50 -62 115 -62 115 -108 115 l-41 0 -7 -77 c-3 -43 -10 -103 -15 -133 -5 -30 -7 -102 -4 -160 6 -118 -3 -154 -42 -172 -14 -6 -24 -15 -23 -18 2 -4 28 -27 58 -51 49 -41 56 -52 77 -119 13 -41 30 -110 38 -154 16 -86 20 -262 6 -270 -5 -4 -19 6 -30 21 -19 26 -20 26 -21 7 -1 -71 -159 -95 -205 -31 -15 20 -16 21 -13 2 6 -38 73 -60 171 -57 80 2 87 0 87 -17 0 -29 -46 -182 -74 -244 -22 -51 -28 -56 -82 -78 -50 -20 -78 -23 -184 -24 -84 0 -136 4 -157 14 -42 17 -158 167 -237 304 l-27 48 98 -3 c84 -3 104 0 138 18 22 12 41 30 43 40 3 17 2 17 -12 -3 -21 -28 -78 -47 -121 -39 -43 8 -85 42 -85 68 0 18 -5 15 -35 -18 -29 -32 -36 -36 -45 -24 -14 22 -12 61 9 180 10 58 22 142 26 188 7 79 9 84 50 130 24 27 62 61 84 76 23 16 41 32 41 36 0 4 -11 12 -25 18 -17 8 -34 32 -52 72 -18 42 -35 66 -55 76 -20 11 -28 22 -28 42 0 52 29 218 49 282 12 36 21 66 21 68 0 1 -25 2 -55 2 -54 0 -54 0 -105 -61z m26 -141 c-73 -172 -112 -413 -95 -597 11 -124 60 -307 109 -409 75 -157 253 -385 345 -442 79 -49 138 -42 170 20 18 34 15 33 50 20 39 -15 88 12 124 69 41 63 105 261 130 401 34 187 27 316 -33 630 -14 69 -27 148 -31 175 l-6 50 19 -45 c10 -25 31 -65 46 -89 16 -25 34 -58 42 -75 l13 -31 1 49 c0 27 -11 105 -25 174 -14 68 -24 127 -21 129 6 7 51 -94 80 -181 15 -44 36 -129 49 -188 12 -59 25 -108 30 -108 7 0 6 39 -9 200 -6 75 10 46 31 -55 37 -182 60 -593 35 -650 -8 -17 -9 -16 -11 10 -1 17 -5 -28 -9 -100 -15 -261 -74 -435 -191 -559 -97 -104 -198 -135 -326 -102 -51 12 -73 13 -118 4 -121 -24 -255 30 -376 151 -149 149 -215 349 -238 719 -10 159 -1 338 25 537 l19 140 5 -95 c6 -102 9 -102 34 3 8 37 26 94 39 126 27 66 116 215 124 207 3 -3 -11 -42 -31 -88z"/>
 <path d="M422 1170 c0 -19 2 -27 5 -17 2 9 2 25 0 35 -3 9 -5 1 -5 -18z"/>
 <path d="M911 1978 c1 -30 -44 -154 -65 -177 -15 -17 -14 -21 16 -62 l31 -43 47 52 c26 29 53 52 61 52 8 0 33 -23 57 -50 24 -28 46 -50 50 -50 4 0 19 19 34 42 26 42 27 43 9 63 -10 11 -19 35 -19 53 0 18 -10 49 -21 68 -12 19 -21 44 -21 55 0 17 -8 19 -90 19 -87 0 -90 -1 -89 -22z"/>
 <path d="M697 962 c-10 -10 -17 -22 -17 -27 0 -5 6 -1 13 9 10 13 33 21 78 26 l64 7 -61 2 c-47 1 -65 -3 -77 -17z"/>
 <path d="M1228 971 c47 -4 67 -11 78 -25 8 -11 14 -15 14 -8 0 24 -44 42 -100 40 l-55 -1 63 -6z"/>
 <path d="M767 913 c-12 -11 -7 -41 7 -46 8 -3 22 3 31 13 16 17 15 19 -4 29 -23 13 -26 13 -34 4z"/>
 <path d="M1194 906 c-6 -16 11 -46 27 -46 9 0 33 40 27 45 -2 1 -13 6 -26 9 -15 5 -24 3 -28 -8z"/>
 <path d="M856 747 c-40 -21 -85 -25 -151 -15 l-40 7 40 -14 c22 -7 58 -14 80 -14 43 -1 125 31 125 49 0 13 -7 12 -54 -13z"/>
 <path d="M1098 750 c38 -31 98 -43 161 -32 l56 9 -65 2 c-41 1 -81 9 -109 21 -55 25 -73 25 -43 0z"/>
 </g>
<g id="layer117" fill="#362016" stroke="none">
 <path d="M550 1939 c-54 -65 -82 -115 -111 -194 l-18 -50 -1 35 c-2 31 -3 32 -9 10 -10 -35 -28 -35 -87 0 -37 21 -61 45 -84 82 -17 29 -29 44 -25 33 4 -11 8 -29 10 -40 6 -29 81 -93 126 -107 22 -6 39 -17 39 -23 0 -7 -9 -70 -20 -141 -57 -375 -48 -791 21 -1004 85 -259 281 -445 485 -458 40 -2 93 0 117 6 34 9 53 8 92 -3 240 -73 438 104 529 471 43 173 51 247 50 494 0 254 -19 410 -69 567 l-22 71 36 7 c20 4 55 18 79 31 44 26 106 100 96 115 -3 5 0 9 6 9 6 0 8 5 5 11 -4 5 -21 -13 -38 -42 -33 -54 -99 -99 -164 -112 -30 -6 -32 -4 -52 46 -12 29 -30 63 -41 77 -18 23 -20 23 -20 5 0 -12 -16 9 -38 50 -62 115 -62 115 -108 115 l-41 0 -7 -77 c-3 -43 -10 -103 -15 -133 -5 -30 -7 -102 -4 -160 6 -118 -3 -154 -42 -172 -14 -6 -24 -15 -23 -18 2 -4 28 -27 58 -51 49 -41 56 -52 77 -119 13 -41 30 -110 38 -154 16 -86 20 -262 6 -270 -5 -4 -19 6 -30 21 -19 26 -20 26 -21 7 0 -11 -11 -31 -25 -44 -31 -29 -118 -33 -158 -7 -32 21 -43 22 -27 2 24 -28 109 -45 186 -37 l71 8 -14 -61 c-17 -77 -40 -147 -68 -211 -21 -47 -28 -54 -81 -75 -50 -20 -78 -23 -184 -24 -84 0 -136 4 -157 14 -42 17 -158 167 -237 304 l-27 48 98 -3 c83 -3 104 0 137 18 22 11 42 26 44 33 3 8 -10 3 -28 -10 -45 -34 -128 -34 -164 0 -14 14 -26 33 -26 43 0 15 -6 12 -29 -14 -17 -19 -25 -36 -19 -39 7 -4 6 -9 -2 -14 -14 -8 -27 8 -37 45 -3 13 3 83 15 155 12 71 25 163 28 203 6 68 10 76 50 120 23 27 61 61 83 76 23 16 41 32 41 36 0 4 -11 12 -25 18 -17 8 -34 32 -52 72 -18 42 -35 66 -55 76 -20 11 -28 22 -28 42 0 52 29 218 49 282 12 36 21 66 21 68 0 1 -25 2 -55 2 -54 0 -54 0 -105 -61z m26 -141 c-73 -172 -112 -413 -95 -597 11 -124 60 -307 109 -409 75 -157 253 -385 345 -442 79 -49 138 -42 170 20 18 34 15 33 50 20 39 -15 88 12 124 69 41 63 105 261 130 401 34 187 27 316 -33 630 -14 69 -27 148 -31 175 l-6 50 19 -45 c10 -25 31 -65 46 -89 16 -25 34 -58 42 -75 l13 -31 1 49 c0 27 -11 105 -25 174 -14 68 -24 127 -21 129 6 7 51 -94 80 -181 15 -44 36 -129 49 -188 12 -59 25 -108 30 -108 7 0 6 39 -9 200 -6 75 10 46 31 -55 37 -182 60 -593 35 -650 -8 -17 -9 -16 -11 10 -1 17 -5 -28 -9 -100 -15 -261 -74 -435 -191 -559 -97 -104 -198 -135 -326 -102 -51 12 -73 13 -118 4 -121 -24 -255 30 -376 151 -149 149 -215 349 -238 719 -10 159 -1 338 25 537 l19 140 5 -95 c6 -102 9 -102 34 3 8 37 26 94 39 126 27 66 116 215 124 207 3 -3 -11 -42 -31 -88z"/>
 <path d="M422 1170 c0 -19 2 -27 5 -17 2 9 2 25 0 35 -3 9 -5 1 -5 -18z"/>
 <path d="M911 1978 c1 -30 -44 -154 -65 -177 -15 -17 -14 -21 16 -62 l31 -43 47 52 c26 29 53 52 61 52 8 0 33 -23 57 -50 24 -28 46 -50 50 -50 4 0 19 19 34 42 l27 43 -21 22 c-12 13 -18 29 -14 38 4 10 2 14 -5 9 -8 -4 -9 1 -4 15 4 14 -1 34 -14 57 -12 19 -21 44 -21 55 0 17 -8 19 -90 19 -87 0 -90 -1 -89 -22z"/>
 <path d="M699 963 c-12 -16 -12 -17 1 -6 9 7 43 14 75 16 l60 3 -61 2 c-48 2 -65 -2 -75 -15z"/>
 <path d="M1225 971 c33 -3 67 -10 75 -14 8 -5 6 -1 -4 7 -14 11 -38 16 -75 14 l-56 -1 60 -6z"/>
 <path d="M767 913 c-12 -11 -7 -41 7 -46 8 -3 22 3 31 13 16 17 15 19 -4 29 -23 13 -26 13 -34 4z"/>
 <path d="M1194 905 c-4 -9 0 -23 10 -33 15 -15 17 -15 31 3 17 23 19 35 6 35 -5 0 -16 3 -25 6 -10 4 -18 0 -22 -11z"/>
 <path d="M885 756 c-41 -28 -118 -39 -169 -25 -19 6 -26 5 -20 -1 5 -5 32 -12 61 -16 39 -4 61 -1 96 14 24 11 48 25 51 31 9 14 5 14 -19 -3z"/>
 <path d="M1090 762 c0 -10 61 -38 103 -47 47 -10 22 11 -27 24 -25 6 -48 15 -51 21 -8 12 -25 13 -25 2z"/>
 </g>
<g id="layer118" fill="#281c27" stroke="none">
 <path d="M917 1981 c3 -10 -2 -32 -10 -47 -8 -16 -17 -45 -21 -64 -3 -19 -16 -44 -28 -57 l-21 -22 27 -41 c14 -22 31 -40 36 -40 5 0 26 22 46 48 44 60 65 59 112 -4 18 -24 37 -44 42 -44 5 0 22 18 36 40 l27 41 -20 22 c-11 12 -19 33 -18 47 1 14 -7 43 -18 65 -12 22 -20 48 -18 58 2 15 -8 17 -87 17 -83 0 -90 -1 -85 -19z"/>
 <path d="M764 907 c-4 -10 -2 -23 4 -29 14 -14 42 -3 42 17 0 9 -5 13 -11 9 -6 -3 -15 0 -20 7 -6 11 -9 10 -15 -4z"/>
 <path d="M1202 908 c-13 -13 -4 -38 13 -38 21 0 28 19 12 34 -10 10 -17 12 -25 4z"/>
 <path d="M637 853 c-16 -18 -23 -33 -17 -33 9 0 9 -4 2 -13 -9 -10 8 -13 83 -15 78 -3 103 0 141 18 26 11 45 22 42 25 -2 3 -22 -5 -44 -16 -68 -35 -165 -8 -176 50 -2 13 -9 9 -31 -16z"/>
 <path d="M1330 873 c0 -56 -106 -89 -174 -54 -22 12 -42 19 -44 16 -3 -3 15 -14 39 -25 31 -14 64 -19 114 -19 115 1 135 17 90 71 -21 24 -25 26 -25 11z"/>
 <path d="M883 755 c-12 -8 -45 -21 -75 -29 -41 -11 -46 -15 -23 -15 32 -1 108 30 119 48 10 15 5 14 -21 -4z"/>
 <path d="M1090 761 c0 -9 62 -37 103 -46 19 -4 26 -2 22 5 -3 5 -14 10 -23 10 -9 0 -36 9 -59 20 -24 10 -43 15 -43 11z"/>
 </g>
<g id="layer119" fill="#0d122d" stroke="none">
 <path d="M917 1981 c3 -10 -2 -32 -10 -47 -8 -16 -17 -45 -21 -64 -3 -19 -16 -44 -28 -57 l-21 -22 27 -41 c14 -22 31 -40 36 -40 5 0 26 23 47 50 20 28 44 50 53 50 9 0 33 -22 53 -50 21 -27 42 -50 47 -50 5 0 22 18 36 40 26 39 26 41 8 61 -13 14 -25 18 -44 14 l-25 -6 23 17 c19 13 22 22 17 43 -4 14 -8 34 -10 44 -2 9 -7 23 -12 30 -4 6 -6 20 -5 30 3 15 -7 17 -86 17 -83 0 -90 -1 -85 -19z"/>
 <path d="M764 907 c-4 -10 -2 -23 4 -29 14 -14 42 -3 42 17 0 9 -5 13 -11 9 -6 -3 -15 0 -20 7 -6 11 -9 10 -15 -4z"/>
 <path d="M1202 908 c-13 -13 -4 -38 13 -38 21 0 28 19 12 34 -10 10 -17 12 -25 4z"/>
 <path d="M643 854 c-12 -16 -22 -33 -23 -39 -4 -13 60 -24 130 -23 30 0 44 3 30 5 -63 11 -92 26 -104 55 l-13 30 -20 -28z"/>
 <path d="M1326 857 c-7 -31 -30 -45 -89 -57 l-42 -8 55 0 c68 -1 124 10 127 24 1 5 -9 23 -21 39 l-23 29 -7 -27z"/>
 <path d="M1139 821 c13 -12 28 -21 34 -21 12 0 11 0 -28 24 l-30 17 24 -20z"/>
 </g>
<g id="layer120" fill="#141111" stroke="none">
 <path d="M917 1981 c3 -10 -2 -32 -10 -47 -8 -16 -17 -45 -21 -64 -3 -19 -16 -44 -28 -57 l-21 -22 27 -41 c14 -22 31 -40 36 -40 5 0 26 23 47 50 20 28 44 50 53 50 9 0 33 -22 53 -50 21 -27 42 -50 47 -50 5 0 22 18 36 40 26 39 26 41 8 61 -13 14 -25 18 -44 14 l-25 -6 23 17 c19 13 22 22 17 43 -4 14 -8 34 -10 44 -2 9 -7 23 -12 30 -4 6 -6 20 -5 30 3 15 -7 17 -86 17 -83 0 -90 -1 -85 -19z"/>
 <path d="M764 907 c-4 -10 -2 -23 4 -29 14 -14 42 -3 42 17 0 9 -5 13 -11 9 -6 -3 -15 0 -20 7 -6 11 -9 10 -15 -4z"/>
 <path d="M1202 908 c-13 -13 -4 -38 13 -38 21 0 28 19 12 34 -10 10 -17 12 -25 4z"/>
 </g>

</svg>