<!DOCTYPE svg PUBLIC "-//W3C//DTD SVG 20010904//EN" "http://www.w3.org/TR/2001/REC-SVG-20010904/DTD/svg10.dtd">
<svg version="1.0" xmlns="http://www.w3.org/2000/svg" width="200px" height="200px" viewBox="0 0 2000 2000" preserveAspectRatio="xMidYMid meet">
<g id="layer101" fill="#dcdad8" stroke="none">
 <path d="M173 1950 c8 -66 51 -160 90 -198 46 -45 113 -71 219 -85 72 -11 100 -19 122 -38 90 -76 105 -93 120 -133 12 -32 25 -47 45 -54 25 -9 28 -14 22 -40 -7 -35 -106 -122 -138 -122 -44 0 -118 -35 -158 -75 -32 -31 -45 -55 -55 -96 -7 -30 -26 -72 -41 -94 -31 -43 -49 -111 -49 -178 0 -23 -2 -100 -4 -172 -4 -137 7 -191 47 -224 11 -8 17 -28 17 -53 0 -51 24 -101 64 -134 17 -14 48 -41 68 -59 20 -19 56 -39 80 -46 24 -7 47 -19 52 -27 10 -18 68 -42 99 -42 14 0 30 -7 37 -15 7 -8 30 -20 51 -26 32 -10 42 -9 63 4 19 13 31 15 51 7 39 -15 134 -12 196 6 64 19 138 64 176 108 17 18 47 37 73 45 56 16 86 43 101 90 7 20 27 54 44 76 72 89 101 200 77 289 -9 30 -8 43 3 60 23 36 38 102 31 139 -4 19 -18 51 -31 71 -14 21 -25 51 -25 69 0 25 -9 42 -36 68 -20 18 -44 50 -55 71 -25 49 -78 91 -174 138 -94 46 -141 84 -150 123 -6 24 -4 29 22 37 22 8 36 25 56 68 17 37 40 66 63 82 20 14 45 34 57 44 14 14 49 23 114 32 113 16 182 44 227 94 37 41 73 128 83 196 l6 44 -833 0 -833 0 6 -50z"/>
 </g>
<g id="layer102" fill="#d1adb0" stroke="none">
 <path d="M173 1950 c8 -66 51 -160 90 -198 46 -45 113 -71 219 -85 72 -11 100 -19 122 -38 90 -76 105 -93 120 -133 12 -32 25 -47 45 -54 25 -9 28 -14 22 -40 -7 -35 -106 -122 -138 -122 -44 0 -118 -35 -158 -75 -32 -31 -45 -55 -55 -96 -7 -30 -26 -72 -41 -94 -31 -43 -49 -111 -49 -178 0 -23 -2 -100 -4 -172 -4 -137 7 -191 47 -224 11 -8 17 -28 17 -53 0 -51 24 -101 64 -134 17 -14 48 -41 68 -59 20 -19 56 -39 80 -46 24 -7 47 -19 52 -27 10 -18 68 -42 99 -42 14 0 30 -7 37 -15 7 -8 30 -20 51 -26 32 -10 42 -9 63 4 19 13 31 15 51 7 39 -15 134 -12 196 6 64 19 138 64 176 108 17 18 47 37 73 45 56 16 86 43 101 90 7 20 27 54 44 76 72 89 101 200 77 289 -9 30 -8 43 3 60 23 36 38 102 31 139 -4 19 -18 51 -31 71 -14 21 -25 51 -25 69 0 25 -9 42 -36 68 -20 18 -44 50 -55 71 -25 49 -78 91 -174 138 -94 46 -141 84 -150 123 -6 24 -4 29 22 37 22 8 36 25 56 68 17 37 40 66 63 82 20 14 45 34 57 44 14 14 49 23 114 32 113 16 182 44 227 94 37 41 73 128 83 196 l6 44 -833 0 -833 0 6 -50z m850 -697 c-13 -2 -35 -2 -50 0 -16 2 -5 4 22 4 28 0 40 -2 28 -4z m264 -399 c6 -16 -12 -34 -34 -34 -16 0 -17 22 -1 38 16 16 27 15 35 -4z m-429 -6 c-3 -7 -14 -14 -26 -16 -16 -3 -20 1 -16 12 7 19 48 22 42 4z"/>
 </g>
<g id="layer103" fill="#bca48b" stroke="none">
 <path d="M173 1950 c8 -66 51 -160 90 -198 46 -45 113 -71 219 -85 72 -11 100 -19 122 -38 90 -76 105 -93 120 -133 12 -32 25 -47 45 -54 25 -9 28 -14 22 -40 -7 -35 -106 -122 -138 -122 -44 0 -118 -35 -158 -75 -32 -31 -45 -55 -55 -96 -7 -30 -26 -72 -41 -94 -31 -43 -49 -111 -49 -178 0 -23 -2 -100 -4 -172 -4 -137 7 -191 47 -224 11 -8 17 -28 17 -53 0 -51 24 -101 64 -134 17 -14 48 -41 68 -59 20 -19 56 -39 80 -46 24 -7 47 -19 52 -27 10 -18 68 -42 99 -42 14 0 30 -7 37 -15 7 -8 30 -20 51 -26 32 -10 42 -9 63 4 19 13 31 15 51 7 39 -15 134 -12 196 6 64 19 138 64 176 108 17 18 47 37 73 45 56 16 86 43 101 90 7 20 27 54 44 76 72 89 101 200 77 289 -9 30 -8 43 3 60 23 36 38 102 31 139 -4 19 -18 51 -31 71 -14 21 -25 51 -25 69 0 25 -9 42 -36 68 -20 18 -44 50 -55 71 -25 49 -78 91 -174 138 -94 46 -141 84 -150 123 -6 24 -4 29 22 37 22 8 36 25 56 68 17 37 40 66 63 82 20 14 45 34 57 44 14 14 49 23 114 32 113 16 182 44 227 94 37 41 73 128 83 196 l6 44 -833 0 -833 0 6 -50z m855 -697 c-15 -2 -42 -2 -60 0 -18 2 -6 4 27 4 33 0 48 -2 33 -4z m259 -399 c6 -16 -12 -34 -34 -34 -16 0 -17 22 -1 38 16 16 27 15 35 -4z m-429 -6 c-3 -7 -14 -14 -26 -16 -16 -3 -20 1 -16 12 7 19 48 22 42 4z"/>
 </g>
<g id="layer104" fill="#b79574" stroke="none">
 <path d="M173 1950 c8 -66 51 -160 90 -198 46 -45 113 -71 219 -85 72 -11 100 -19 122 -38 90 -76 105 -93 120 -133 12 -32 25 -47 45 -54 25 -9 28 -14 22 -40 -7 -35 -106 -122 -138 -122 -44 0 -118 -35 -158 -75 -32 -31 -45 -55 -55 -96 -7 -30 -26 -72 -41 -94 -31 -43 -49 -111 -49 -178 0 -23 -2 -100 -4 -172 -4 -137 7 -191 47 -224 11 -8 17 -28 17 -53 0 -51 24 -101 64 -134 17 -14 48 -41 68 -59 20 -19 56 -39 80 -46 24 -7 47 -19 52 -27 10 -18 68 -42 99 -42 14 0 30 -7 37 -15 7 -8 30 -20 51 -26 32 -10 42 -9 63 4 19 13 31 15 51 7 39 -15 134 -12 196 6 64 19 138 64 176 108 17 18 47 37 73 45 56 16 86 43 101 90 7 20 27 54 44 76 72 89 101 200 77 289 -9 30 -8 43 3 60 23 36 38 102 31 139 -4 19 -18 51 -31 71 -14 21 -25 51 -25 69 0 25 -9 42 -36 68 -20 18 -44 50 -55 71 -25 49 -78 91 -174 138 -94 46 -141 84 -150 123 -6 24 -4 29 22 37 22 8 36 25 56 68 17 37 40 66 63 82 20 14 45 34 57 44 14 14 49 23 114 32 113 16 182 44 227 94 37 41 73 128 83 196 l6 44 -833 0 -833 0 6 -50z m855 -697 c-15 -2 -42 -2 -60 0 -18 2 -6 4 27 4 33 0 48 -2 33 -4z m410 -86 c14 -20 23 -39 21 -40 -2 -2 -29 24 -59 57 -50 54 -52 57 -21 40 18 -10 45 -36 59 -57z m-874 -10 c-13 -24 -28 -68 -33 -98 l-9 -54 -1 48 c-1 47 16 95 47 130 23 26 23 21 -4 -26z m756 -314 c0 -7 -4 -13 -10 -13 -5 0 -10 12 -10 28 0 21 2 24 10 12 5 -8 10 -21 10 -27z m-460 12 c0 -15 -38 -41 -47 -32 -2 3 0 15 7 26 12 24 40 28 40 6z m425 -16 c0 -17 -6 -25 -22 -27 -17 -3 -23 2 -23 15 0 22 20 45 35 40 5 -2 10 -15 10 -28z m-585 6 c0 -8 -4 -15 -10 -15 -5 0 -10 7 -10 15 0 8 5 15 10 15 6 0 10 -7 10 -15z m875 -281 c-21 -72 -28 -67 -9 6 8 30 15 73 16 95 l1 40 4 -43 c2 -23 -3 -68 -12 -98z m-989 -12 c-6 -5 -26 95 -25 121 0 12 7 -9 15 -47 7 -39 12 -72 10 -74z m777 -37 c-74 -16 -92 -26 -145 -73 -30 -27 -38 -31 -29 -15 27 52 128 102 206 102 18 -1 5 -6 -32 -14z m-879 -52 c-3 -27 1 -71 9 -100 8 -29 10 -50 6 -47 -22 13 -36 122 -23 172 10 36 13 25 8 -25z m896 -98 c0 -2 -15 -12 -32 -21 -18 -9 -60 -42 -93 -74 -33 -31 -71 -62 -84 -69 -13 -7 9 18 48 55 71 68 161 129 161 109z m-445 -249 c22 -9 60 -21 85 -26 l45 -9 -54 4 c-66 5 -146 43 -186 86 l-30 33 50 -36 c28 -20 68 -43 90 -52z"/>
 </g>
<g id="layer105" fill="#b47283" stroke="none">
 <path d="M173 1950 c8 -66 51 -160 90 -198 46 -45 113 -71 219 -85 72 -11 100 -19 122 -38 90 -76 105 -93 120 -133 12 -32 25 -47 45 -54 25 -9 28 -14 22 -40 -7 -35 -106 -122 -138 -122 -44 0 -118 -35 -158 -75 -32 -31 -45 -55 -55 -96 -7 -30 -26 -72 -41 -94 -31 -43 -49 -111 -49 -178 0 -23 -2 -100 -4 -172 -4 -137 7 -191 47 -224 11 -8 17 -28 17 -53 0 -51 24 -101 64 -134 17 -14 48 -41 68 -59 20 -19 56 -39 80 -46 24 -7 47 -19 52 -27 10 -18 68 -42 99 -42 14 0 30 -7 37 -15 7 -8 30 -20 51 -26 32 -10 42 -9 63 4 19 13 31 15 51 7 39 -15 134 -12 196 6 64 19 138 64 176 108 17 18 47 37 73 45 56 16 86 43 101 90 7 20 27 54 44 76 72 89 101 200 77 289 -9 30 -8 43 3 60 23 36 38 102 31 139 -4 19 -18 51 -31 71 -14 21 -25 51 -25 69 0 25 -9 42 -36 68 -20 18 -44 50 -55 71 -25 49 -78 91 -174 138 -94 46 -141 84 -150 123 -6 24 -4 29 22 37 22 8 36 25 56 68 17 37 40 66 63 82 20 14 45 34 57 44 14 14 49 23 114 32 113 16 182 44 227 94 37 41 73 128 83 196 l6 44 -833 0 -833 0 6 -50z m1262 -743 c41 -27 85 -69 85 -80 0 -5 -7 -4 -15 3 -9 7 -18 11 -21 8 -2 -3 19 -25 47 -49 44 -36 79 -88 79 -115 0 -4 -12 3 -27 17 -21 18 -19 14 9 -21 19 -25 40 -55 47 -67 14 -28 14 -111 -1 -153 -10 -30 -12 -32 -20 -14 -4 10 -5 -1 0 -26 12 -78 6 -171 -17 -231 -25 -67 -68 -129 -75 -108 -2 8 -7 21 -9 29 -3 8 -6 -2 -6 -23 -1 -59 -25 -103 -72 -134 -29 -19 -44 -24 -47 -15 -2 7 -23 -9 -49 -38 -101 -112 -277 -156 -397 -99 -50 24 -57 24 -29 0 19 -16 20 -20 7 -25 -31 -12 -72 -5 -100 16 -15 13 -37 21 -48 20 -29 -3 -82 32 -107 70 -16 25 -20 28 -16 11 3 -15 0 -23 -7 -23 -23 0 -95 59 -112 91 -10 20 -19 28 -23 20 -5 -8 -14 -4 -28 11 -39 43 -57 91 -57 154 -1 34 -4 60 -8 57 -5 -2 -8 -14 -9 -26 0 -17 -5 -13 -20 18 -23 48 -22 132 3 183 9 17 13 32 8 32 -4 0 -11 -8 -15 -17 -6 -16 -7 -16 -15 -2 -5 9 -5 42 2 80 6 35 10 83 9 105 -2 59 23 121 71 178 28 33 34 45 20 37 -15 -8 -22 -8 -22 -1 0 23 41 89 72 115 38 32 115 71 123 63 4 -3 -3 -24 -14 -46 -43 -85 -45 -134 -15 -332 l6 -35 -24 37 c-20 32 -128 137 -128 125 0 -2 14 -22 31 -43 69 -87 109 -197 123 -344 14 -140 59 -210 135 -210 20 0 47 7 59 16 22 15 22 15 22 -26 0 -59 14 -80 54 -80 24 0 42 9 68 34 28 28 42 57 77 165 47 146 82 201 146 235 42 22 127 28 195 14 30 -7 31 -6 9 2 l-26 11 33 33 c31 31 34 39 34 94 0 63 -26 160 -67 252 -14 30 -32 70 -39 88 l-15 33 48 -27 c26 -15 62 -37 78 -47z m-407 46 c-15 -2 -42 -2 -60 0 -18 2 -6 4 27 4 33 0 48 -2 33 -4z m292 -410 c0 -7 -4 -13 -10 -13 -5 0 -10 12 -10 28 0 21 2 24 10 12 5 -8 10 -21 10 -27z m-460 12 c0 -15 -38 -41 -47 -32 -2 3 0 15 7 26 12 24 40 28 40 6z m425 -16 c0 -17 -6 -25 -22 -27 -17 -3 -23 2 -23 15 0 22 20 45 35 40 5 -2 10 -15 10 -28z m-585 6 c0 -8 -4 -15 -10 -15 -5 0 -10 7 -10 15 0 8 5 15 10 15 6 0 10 -7 10 -15z"/>
 <path d="M1450 1073 c0 -4 20 -33 45 -65 25 -31 52 -70 60 -85 8 -16 15 -22 15 -15 0 24 -32 77 -76 124 -24 26 -44 44 -44 41z"/>
 <path d="M445 895 c4 -11 13 -58 21 -105 40 -241 57 -296 112 -361 32 -39 112 -79 154 -78 30 1 29 2 -11 10 -128 25 -172 102 -225 393 -9 48 -26 105 -37 125 -11 20 -17 27 -14 16z"/>
 <path d="M1482 883 c48 -94 62 -200 34 -268 -14 -34 -14 -37 -1 -20 44 56 44 176 0 250 -14 25 -28 45 -31 45 -3 0 -4 -3 -2 -7z"/>
 <path d="M1259 606 c-93 -33 -129 -72 -175 -188 -49 -125 -151 -182 -232 -131 -25 17 -26 17 -13 0 14 -17 74 -38 94 -32 7 2 24 6 39 9 43 10 99 66 130 131 15 33 28 66 28 73 0 28 104 117 155 134 28 9 41 17 30 17 -11 0 -36 -6 -56 -13z"/>
 <path d="M1254 420 c-38 -21 -64 -47 -97 -97 -54 -81 -70 -96 -119 -114 -44 -15 -132 1 -171 32 -27 21 -42 25 -32 9 4 -6 28 -22 55 -35 38 -19 65 -25 114 -25 58 0 69 3 100 30 19 17 49 54 67 83 56 90 92 120 164 138 l30 7 -30 1 c-16 0 -53 -12 -81 -29z"/>
 <path d="M517 400 c15 -114 85 -160 195 -130 21 6 40 15 43 20 4 6 -4 6 -20 0 -38 -15 -102 -12 -135 5 -32 17 -46 37 -72 105 l-17 45 6 -45z"/>
 <path d="M780 293 c0 -23 73 -94 119 -118 125 -62 292 -57 390 12 40 28 37 27 -34 -8 -44 -21 -63 -24 -155 -23 -83 0 -116 5 -161 22 -66 26 -116 61 -141 99 -10 16 -18 22 -18 16z"/>
 <path d="M750 197 c0 -26 27 -74 45 -81 32 -12 37 -6 13 14 -14 10 -32 34 -41 52 -11 21 -17 26 -17 15z"/>
 </g>
<g id="layer106" fill="#8a8480" stroke="none">
 <path d="M173 1950 c8 -66 51 -160 90 -198 46 -45 113 -71 219 -85 72 -11 100 -19 122 -38 90 -76 105 -93 120 -133 12 -32 25 -47 45 -54 25 -9 28 -14 22 -40 -7 -35 -106 -122 -138 -122 -44 0 -118 -35 -158 -75 -32 -31 -45 -55 -55 -96 -7 -30 -26 -72 -41 -94 -31 -43 -49 -111 -49 -178 0 -23 -2 -100 -4 -172 -4 -137 7 -191 47 -224 11 -8 17 -28 17 -53 0 -51 24 -101 64 -134 17 -14 48 -41 68 -59 20 -19 56 -39 80 -46 24 -7 47 -19 52 -27 10 -18 68 -42 99 -42 14 0 30 -7 37 -15 7 -8 30 -20 51 -26 32 -10 42 -9 63 4 19 13 31 15 51 7 39 -15 134 -12 196 6 64 19 138 64 176 108 17 18 47 37 73 45 56 16 86 43 101 90 7 20 27 54 44 76 72 89 101 200 77 289 -9 30 -8 43 3 60 23 36 38 102 31 139 -4 19 -18 51 -31 71 -14 21 -25 51 -25 69 0 25 -9 42 -36 68 -20 18 -44 50 -55 71 -25 49 -78 91 -174 138 -94 46 -141 84 -150 123 -6 24 -4 29 22 37 22 8 36 25 56 68 17 37 40 66 63 82 20 14 45 34 57 44 14 14 49 23 114 32 113 16 182 44 227 94 37 41 73 128 83 196 l6 44 -833 0 -833 0 6 -50z m1262 -743 c41 -27 85 -69 85 -80 0 -5 -7 -4 -15 3 -9 7 -18 11 -21 8 -2 -3 19 -25 47 -49 44 -36 79 -88 79 -115 0 -4 -12 3 -27 17 -21 18 -19 14 9 -21 19 -25 40 -55 47 -67 14 -28 14 -111 -1 -153 -10 -30 -12 -32 -20 -14 -4 10 -5 -1 0 -26 12 -78 6 -171 -17 -231 -25 -67 -68 -129 -75 -108 -2 8 -7 21 -9 29 -3 8 -6 -2 -6 -23 -1 -59 -25 -103 -72 -134 -29 -19 -44 -24 -47 -15 -2 7 -23 -9 -49 -38 -101 -112 -277 -156 -397 -99 -50 24 -57 24 -29 0 19 -16 20 -20 7 -25 -31 -12 -72 -5 -100 16 -15 13 -37 21 -48 20 -29 -3 -82 32 -107 70 -16 25 -20 28 -16 11 3 -15 0 -23 -7 -23 -23 0 -95 59 -112 91 -10 20 -19 28 -23 20 -5 -8 -14 -4 -28 11 -39 43 -57 91 -57 154 -1 34 -4 60 -8 57 -5 -2 -8 -14 -9 -26 0 -17 -5 -13 -20 18 -23 48 -22 132 3 183 9 17 13 32 8 32 -4 0 -11 -8 -15 -17 -6 -16 -7 -16 -15 -2 -5 9 -5 42 2 80 6 35 10 83 9 105 -2 59 23 121 71 178 28 33 34 45 20 37 -15 -8 -22 -8 -22 -1 0 23 41 89 72 115 38 32 115 71 123 63 4 -3 -3 -24 -14 -46 -43 -85 -45 -134 -15 -332 l6 -35 -24 37 c-20 32 -128 137 -128 125 0 -2 14 -22 31 -43 69 -87 109 -197 123 -344 14 -140 59 -210 135 -210 20 0 47 7 59 16 22 15 22 15 22 -26 0 -59 14 -80 54 -80 24 0 42 9 68 34 28 28 42 57 77 165 47 146 82 201 146 235 42 22 127 28 195 14 30 -7 31 -6 9 2 l-26 11 33 33 c31 31 34 39 34 94 0 63 -26 160 -67 252 -14 30 -32 70 -39 88 l-15 33 48 -27 c26 -15 62 -37 78 -47z m-376 47 c2 -2 -25 -3 -60 -3 -49 1 -57 3 -34 9 27 6 84 3 94 -6z m261 -411 c0 -7 -4 -13 -10 -13 -5 0 -10 12 -10 28 0 21 2 24 10 12 5 -8 10 -21 10 -27z m-460 12 c0 -15 -38 -41 -47 -32 -2 3 0 15 7 26 12 24 40 28 40 6z m425 -16 c0 -17 -6 -25 -22 -27 -17 -3 -23 2 -23 15 0 22 20 45 35 40 5 -2 10 -15 10 -28z m-585 6 c0 -8 -4 -15 -10 -15 -5 0 -10 7 -10 15 0 8 5 15 10 15 6 0 10 -7 10 -15z"/>
 <path d="M1450 1073 c0 -4 20 -33 45 -65 25 -31 52 -70 60 -85 8 -16 15 -22 15 -15 0 24 -32 77 -76 124 -24 26 -44 44 -44 41z"/>
 <path d="M445 895 c4 -11 13 -58 21 -105 40 -241 57 -296 112 -361 32 -39 112 -79 154 -78 30 1 29 2 -11 10 -128 25 -172 102 -225 393 -9 48 -26 105 -37 125 -11 20 -17 27 -14 16z"/>
 <path d="M1482 883 c48 -94 62 -200 34 -268 -14 -34 -14 -37 -1 -20 44 56 44 176 0 250 -14 25 -28 45 -31 45 -3 0 -4 -3 -2 -7z"/>
 <path d="M1259 606 c-93 -33 -129 -72 -175 -188 -49 -125 -151 -182 -232 -131 -25 17 -26 17 -13 0 14 -17 74 -38 94 -32 7 2 24 6 39 9 43 10 99 66 130 131 15 33 28 66 28 73 0 28 104 117 155 134 28 9 41 17 30 17 -11 0 -36 -6 -56 -13z"/>
 <path d="M1254 420 c-38 -21 -64 -47 -97 -97 -54 -81 -70 -96 -119 -114 -44 -15 -132 1 -171 32 -27 21 -42 25 -32 9 4 -6 28 -22 55 -35 38 -19 65 -25 114 -25 58 0 69 3 100 30 19 17 49 54 67 83 56 90 92 120 164 138 l30 7 -30 1 c-16 0 -53 -12 -81 -29z"/>
 <path d="M517 400 c15 -114 85 -160 195 -130 21 6 40 15 43 20 4 6 -4 6 -20 0 -38 -15 -102 -12 -135 5 -32 17 -46 37 -72 105 l-17 45 6 -45z"/>
 <path d="M780 293 c0 -23 73 -94 119 -118 125 -62 292 -57 390 12 40 28 37 27 -34 -8 -44 -21 -63 -24 -155 -23 -83 0 -116 5 -161 22 -66 26 -116 61 -141 99 -10 16 -18 22 -18 16z"/>
 <path d="M750 197 c0 -26 27 -74 45 -81 32 -12 37 -6 13 14 -14 10 -32 34 -41 52 -11 21 -17 26 -17 15z"/>
 </g>
<g id="layer107" fill="#a68059" stroke="none">
 <path d="M173 1950 c8 -66 51 -160 90 -198 46 -45 113 -71 219 -85 72 -11 100 -19 122 -38 90 -76 105 -93 120 -133 12 -32 25 -47 45 -54 25 -9 28 -14 22 -40 -7 -35 -106 -122 -138 -122 -44 0 -118 -35 -158 -75 -32 -31 -45 -55 -55 -96 -7 -30 -26 -72 -41 -94 -31 -43 -49 -111 -49 -178 0 -23 -2 -100 -4 -172 -4 -137 7 -191 47 -224 11 -8 17 -28 17 -53 0 -51 24 -101 64 -134 17 -14 48 -41 68 -59 20 -19 56 -39 80 -46 24 -7 47 -19 52 -27 10 -18 68 -42 99 -42 14 0 30 -7 37 -15 7 -8 30 -20 51 -26 32 -10 42 -9 63 4 19 13 31 15 51 7 39 -15 134 -12 196 6 64 19 138 64 176 108 17 18 47 37 73 45 56 16 86 43 101 90 7 20 27 54 44 76 72 89 101 200 77 289 -9 30 -8 43 3 60 23 36 38 102 31 139 -4 19 -18 51 -31 71 -14 21 -25 51 -25 69 0 25 -9 42 -36 68 -20 18 -44 50 -55 71 -25 49 -78 91 -174 138 -94 46 -141 84 -150 123 -6 24 -4 29 22 37 22 8 36 25 56 68 17 37 40 66 63 82 20 14 45 34 57 44 14 14 49 23 114 32 113 16 182 44 227 94 37 41 73 128 83 196 l6 44 -833 0 -833 0 6 -50z m1262 -743 c41 -27 85 -69 85 -80 0 -5 -7 -4 -15 3 -9 7 -18 11 -21 8 -2 -3 19 -25 47 -49 44 -36 79 -88 79 -115 0 -4 -12 3 -27 17 -21 18 -19 14 9 -21 19 -25 40 -55 47 -67 14 -28 14 -111 -1 -153 -10 -30 -12 -32 -20 -14 -4 10 -5 -1 0 -26 12 -78 6 -171 -17 -231 -25 -67 -68 -129 -75 -108 -2 8 -7 21 -9 29 -3 8 -6 -2 -6 -23 -1 -59 -25 -103 -72 -134 -29 -19 -44 -24 -47 -15 -2 7 -23 -9 -49 -38 -101 -112 -277 -156 -397 -99 -50 24 -57 24 -29 0 19 -16 20 -20 7 -25 -31 -12 -72 -5 -100 16 -15 13 -37 21 -48 20 -29 -3 -82 32 -107 70 -16 25 -20 28 -16 11 3 -15 0 -23 -7 -23 -23 0 -95 59 -112 91 -10 20 -19 28 -23 20 -5 -8 -14 -4 -28 11 -39 43 -57 91 -57 154 -1 34 -4 60 -8 57 -5 -2 -8 -14 -9 -26 0 -17 -5 -13 -20 18 -23 48 -22 132 3 183 9 17 13 32 8 32 -4 0 -11 -8 -15 -17 -6 -16 -7 -16 -15 -2 -5 9 -5 42 2 80 6 35 10 83 9 105 -2 59 23 121 71 178 28 33 34 45 20 37 -15 -8 -22 -8 -22 -1 0 23 41 89 72 115 38 32 115 71 123 63 4 -3 -3 -24 -14 -46 -43 -85 -45 -134 -15 -332 l6 -35 -24 37 c-20 32 -128 137 -128 125 0 -2 14 -22 31 -43 69 -87 109 -197 123 -344 14 -140 59 -210 135 -210 20 0 47 7 59 16 22 15 22 15 22 -26 0 -59 14 -80 54 -80 24 0 42 9 68 34 28 28 42 57 77 165 47 146 82 201 146 235 42 22 127 28 195 14 30 -7 31 -6 9 2 l-26 11 33 33 c31 31 34 39 34 94 0 63 -26 160 -67 252 -14 30 -32 70 -39 88 l-15 33 48 -27 c26 -15 62 -37 78 -47z m-376 47 c2 -2 -25 -3 -60 -3 -49 1 -57 3 -34 9 27 6 84 3 94 -6z m-359 -406 c0 -23 -3 -29 -11 -21 -6 6 -8 20 -4 32 9 30 15 26 15 -11z m612 -20 c-9 -9 -12 -4 -11 23 0 32 1 33 11 11 8 -17 8 -26 0 -34z m-449 35 c9 -9 -22 -43 -40 -43 -16 0 -16 5 -3 31 11 19 31 25 43 12z m422 -24 c0 -19 -6 -25 -27 -27 -32 -4 -36 12 -11 40 21 24 38 18 38 -13z"/>
 <path d="M1450 1073 c0 -4 20 -33 45 -65 25 -31 52 -70 60 -85 8 -16 15 -22 15 -15 0 24 -32 77 -76 124 -24 26 -44 44 -44 41z"/>
 <path d="M445 895 c4 -11 13 -58 21 -105 40 -241 57 -296 112 -361 32 -39 112 -79 154 -78 30 1 29 2 -11 10 -128 25 -172 102 -225 393 -9 48 -26 105 -37 125 -11 20 -17 27 -14 16z"/>
 <path d="M1482 883 c48 -94 62 -200 34 -268 -14 -34 -14 -37 -1 -20 44 56 44 176 0 250 -14 25 -28 45 -31 45 -3 0 -4 -3 -2 -7z"/>
 <path d="M1259 606 c-93 -33 -129 -72 -175 -188 -49 -125 -151 -182 -232 -131 -25 17 -26 17 -13 0 14 -17 74 -38 94 -32 7 2 24 6 39 9 43 10 99 66 130 131 15 33 28 66 28 73 0 28 104 117 155 134 28 9 41 17 30 17 -11 0 -36 -6 -56 -13z"/>
 <path d="M1254 420 c-38 -21 -64 -47 -97 -97 -54 -81 -70 -96 -119 -114 -44 -15 -132 1 -171 32 -27 21 -42 25 -32 9 4 -6 28 -22 55 -35 38 -19 65 -25 114 -25 58 0 69 3 100 30 19 17 49 54 67 83 56 90 92 120 164 138 l30 7 -30 1 c-16 0 -53 -12 -81 -29z"/>
 <path d="M517 400 c15 -114 85 -160 195 -130 21 6 40 15 43 20 4 6 -4 6 -20 0 -38 -15 -102 -12 -135 5 -32 17 -46 37 -72 105 l-17 45 6 -45z"/>
 <path d="M780 293 c0 -23 73 -94 119 -118 125 -62 292 -57 390 12 40 28 37 27 -34 -8 -44 -21 -63 -24 -155 -23 -83 0 -116 5 -161 22 -66 26 -116 61 -141 99 -10 16 -18 22 -18 16z"/>
 <path d="M750 197 c0 -26 27 -74 45 -81 32 -12 37 -6 13 14 -14 10 -32 34 -41 52 -11 21 -17 26 -17 15z"/>
 </g>
<g id="layer108" fill="#9b7147" stroke="none">
 <path d="M173 1950 c8 -66 51 -160 90 -198 46 -45 113 -71 219 -85 72 -11 100 -19 122 -38 90 -76 105 -93 120 -133 12 -32 25 -47 45 -54 25 -9 28 -14 22 -40 -7 -35 -106 -122 -138 -122 -44 0 -118 -35 -158 -75 -32 -31 -45 -55 -55 -96 -7 -30 -26 -72 -41 -94 -31 -43 -49 -111 -49 -178 0 -23 -2 -100 -4 -172 -4 -137 7 -191 47 -224 11 -8 17 -28 17 -53 0 -51 24 -101 64 -134 17 -14 48 -41 68 -59 20 -19 56 -39 80 -46 24 -7 47 -19 52 -27 10 -18 68 -42 99 -42 14 0 30 -7 37 -15 7 -8 30 -20 51 -26 32 -10 42 -9 63 4 19 13 31 15 51 7 101 -39 296 21 370 114 18 23 40 36 74 45 55 14 85 41 102 91 7 19 27 53 44 75 72 89 101 200 77 289 -9 30 -8 43 3 60 23 36 38 102 31 139 -4 19 -18 51 -31 71 -14 21 -25 51 -25 69 0 25 -9 42 -36 68 -20 18 -44 50 -55 71 -25 49 -78 91 -174 138 -94 46 -141 84 -150 123 -6 24 -4 29 22 37 22 8 36 25 56 68 17 37 40 66 63 82 20 14 45 34 57 44 14 14 49 23 114 32 113 16 182 44 227 94 37 41 73 128 83 196 l6 44 -833 0 -833 0 6 -50z m1298 -768 c22 -19 44 -43 50 -54 10 -18 9 -19 -12 -7 -13 6 3 -12 34 -42 33 -32 59 -66 63 -84 7 -28 6 -29 -11 -15 -10 8 -2 -6 17 -32 46 -60 55 -110 33 -185 -10 -34 -18 -96 -19 -148 -1 -80 -5 -98 -35 -162 -18 -40 -42 -80 -52 -89 -18 -16 -19 -16 -20 2 -1 10 -5 -1 -10 -25 -5 -24 -19 -55 -31 -69 -21 -22 -102 -70 -104 -61 -1 2 -13 -11 -29 -29 -35 -42 -93 -75 -179 -103 -79 -25 -161 -23 -217 6 -26 14 -31 15 -22 3 18 -21 7 -28 -42 -28 -27 0 -51 7 -67 20 -14 10 -28 17 -31 14 -11 -11 -74 25 -106 61 -25 29 -32 33 -26 16 l7 -22 -40 20 c-21 11 -53 36 -70 56 -18 20 -32 30 -32 24 0 -19 -39 21 -67 68 -14 24 -27 66 -30 98 -4 35 -9 51 -14 43 -13 -21 -39 54 -39 112 0 28 7 67 15 88 11 28 12 33 1 20 -24 -32 -29 -19 -22 55 4 39 8 97 10 128 5 65 37 147 72 180 16 15 21 25 13 30 -36 22 50 132 137 175 60 29 72 28 53 -8 -9 -15 -15 -84 -19 -200 -3 -97 -8 -179 -12 -183 -3 -4 -13 6 -21 22 -9 15 -30 42 -47 58 l-33 30 36 -47 c49 -65 74 -138 97 -284 21 -133 36 -173 72 -198 26 -18 71 -21 99 -6 17 10 19 7 19 -27 0 -47 23 -83 53 -83 57 0 85 52 131 246 33 134 50 164 113 195 40 20 62 24 131 22 82 -1 82 -1 98 28 24 47 27 116 10 214 -15 85 -44 197 -61 239 -7 16 2 13 54 -15 35 -19 80 -49 102 -67z m-412 72 c2 -2 -25 -3 -60 -3 -49 1 -57 3 -34 9 27 6 84 3 94 -6z m-359 -406 c0 -23 -3 -29 -11 -21 -6 6 -8 20 -4 32 9 30 15 26 15 -11z m612 -20 c-9 -9 -12 -4 -11 23 0 32 1 33 11 11 8 -17 8 -26 0 -34z m-449 35 c9 -9 -22 -43 -40 -43 -16 0 -16 5 -3 31 11 19 31 25 43 12z m422 -24 c0 -19 -6 -25 -27 -27 -32 -4 -36 12 -11 40 21 24 38 18 38 -13z"/>
 <path d="M1487 1024 c12 -17 30 -37 40 -45 13 -10 12 -6 -4 17 -12 17 -30 37 -40 45 -13 10 -12 6 4 -17z"/>
 <path d="M471 822 c-1 -6 6 -58 14 -115 22 -146 48 -218 98 -270 23 -24 30 -29 15 -13 -39 45 -64 109 -84 211 -22 118 -42 203 -43 187z"/>
 <path d="M1194 571 c-44 -27 -69 -62 -101 -144 -19 -49 -42 -86 -71 -116 -40 -39 -41 -41 -12 -25 41 24 59 51 107 155 28 59 52 95 79 117 44 36 43 41 -2 13z"/>
 <path d="M1222 395 c-16 -13 -48 -54 -71 -89 -50 -77 -77 -96 -145 -106 l-51 -8 45 -1 c66 -2 108 25 157 99 23 35 57 78 75 97 38 39 32 44 -10 8z"/>
 <path d="M521 387 c-1 -4 5 -22 13 -41 16 -39 60 -76 90 -76 17 1 16 3 -9 14 -35 15 -65 46 -82 84 -6 15 -12 23 -12 19z"/>
 <path d="M860 204 c0 -13 115 -55 162 -59 l53 -4 -55 10 c-30 5 -78 20 -107 34 -29 13 -53 22 -53 19z"/>
 </g>
<g id="layer109" fill="#91653b" stroke="none">
 <path d="M173 1950 c8 -66 51 -160 90 -198 46 -45 113 -71 219 -85 72 -11 100 -19 122 -38 90 -76 105 -93 120 -133 12 -32 25 -47 45 -54 25 -9 28 -14 22 -40 -7 -35 -106 -122 -138 -122 -44 0 -118 -35 -158 -75 -32 -31 -45 -55 -55 -96 -7 -30 -26 -72 -41 -94 -31 -43 -49 -111 -49 -178 0 -23 -2 -100 -4 -172 -4 -137 7 -191 47 -224 11 -8 17 -28 17 -53 0 -51 24 -101 64 -134 17 -14 48 -41 68 -59 20 -19 56 -39 80 -46 24 -7 47 -19 52 -27 10 -18 68 -42 99 -42 14 0 30 -7 37 -15 7 -8 30 -20 51 -26 32 -10 42 -9 63 4 19 13 31 15 51 7 42 -16 138 -12 203 9 69 21 114 50 158 101 23 25 46 39 82 48 56 15 86 42 103 92 7 19 27 53 44 75 72 89 101 200 77 289 -9 30 -8 43 3 60 23 36 38 102 31 139 -4 19 -18 51 -31 71 -14 21 -25 51 -25 69 0 25 -9 42 -36 68 -20 18 -44 50 -55 71 -25 49 -78 91 -174 138 -94 46 -141 84 -150 123 -6 24 -4 29 22 37 22 8 36 25 56 68 17 37 40 66 63 82 20 14 45 34 57 44 14 14 49 23 114 32 113 16 182 44 227 94 37 41 73 128 83 196 l6 44 -833 0 -833 0 6 -50z m1218 -712 c69 -42 139 -102 139 -120 0 -5 -6 -6 -12 -2 -7 4 11 -18 41 -50 42 -45 52 -62 48 -82 -2 -13 0 -27 5 -30 17 -11 48 -88 48 -120 0 -17 -7 -51 -16 -75 -11 -29 -16 -70 -15 -122 2 -52 -4 -97 -15 -134 -20 -64 -74 -149 -92 -146 -7 2 -12 -8 -12 -22 0 -31 -60 -100 -100 -114 -17 -5 -30 -8 -30 -5 0 2 -17 -14 -37 -37 -90 -99 -288 -148 -392 -96 -26 13 -30 13 -21 2 27 -33 -73 -39 -113 -7 -7 6 -27 13 -46 17 -18 4 -51 23 -72 42 -22 20 -39 30 -39 24 0 -27 -91 30 -122 77 -10 15 -18 21 -18 13 0 -26 -51 31 -76 84 -13 28 -24 65 -24 83 0 18 -4 31 -8 28 -16 -10 -42 65 -42 120 0 30 7 71 15 92 11 28 12 33 1 20 -24 -32 -29 -19 -22 55 3 39 8 99 10 132 4 64 34 141 67 171 19 17 27 40 10 29 -11 -6 1 41 17 71 20 36 87 93 135 114 27 12 51 20 53 17 2 -2 0 -17 -5 -33 -5 -16 -12 -104 -14 -196 -3 -91 -8 -172 -12 -179 -6 -8 -13 -5 -26 12 -14 19 -13 11 6 -37 13 -33 31 -103 40 -155 28 -173 36 -201 65 -231 30 -29 61 -35 104 -18 25 9 26 8 26 -28 0 -72 55 -107 100 -62 28 28 48 80 77 204 32 137 45 167 83 200 43 36 102 49 182 42 77 -7 80 -5 99 82 8 40 7 71 -6 144 -14 85 -44 208 -60 251 -10 24 -4 22 76 -25z m-332 16 c2 -2 -25 -3 -60 -3 -49 1 -57 3 -34 9 27 6 84 3 94 -6z m-359 -406 c0 -23 -3 -29 -11 -21 -6 6 -8 20 -4 32 9 30 15 26 15 -11z m612 -20 c-9 -9 -12 -4 -11 23 0 32 1 33 11 11 8 -17 8 -26 0 -34z m-449 35 c9 -9 -22 -43 -40 -43 -16 0 -16 5 -3 31 11 19 31 25 43 12z m422 -24 c0 -19 -6 -25 -27 -27 -32 -4 -36 12 -11 40 21 24 38 18 38 -13z"/>
 </g>
<g id="layer110" fill="#696661" stroke="none">
 <path d="M173 1950 c8 -66 51 -160 90 -198 46 -45 113 -71 219 -85 72 -11 100 -19 122 -38 90 -76 105 -93 120 -133 12 -32 25 -47 45 -54 25 -9 28 -14 22 -40 -7 -35 -106 -122 -138 -122 -44 0 -118 -35 -158 -75 -32 -31 -45 -55 -55 -96 -7 -30 -26 -72 -41 -94 -31 -43 -49 -111 -49 -178 0 -23 -2 -100 -4 -172 -4 -137 7 -191 48 -224 14 -12 13 -7 -5 28 -23 45 -30 114 -16 164 6 21 5 27 -4 21 -9 -5 -10 14 -5 77 3 46 6 101 6 123 -1 47 24 126 51 160 11 15 22 39 24 56 10 74 64 138 152 180 59 28 78 27 61 -2 -8 -15 -15 -89 -19 -206 -4 -116 -10 -187 -18 -195 -6 -6 -11 -7 -11 -1 0 6 -7 19 -15 30 -8 10 -4 -6 10 -36 14 -32 35 -116 49 -196 13 -78 31 -155 40 -173 25 -48 67 -59 130 -35 13 5 16 -1 16 -27 0 -43 20 -83 43 -87 29 -6 67 26 88 72 10 23 30 93 45 156 30 132 42 158 83 193 45 38 94 50 177 45 l73 -5 16 39 c8 21 15 66 15 99 0 69 -30 226 -59 311 l-20 58 32 -16 c115 -59 208 -138 193 -163 -4 -5 7 -19 24 -31 33 -23 60 -68 60 -98 0 -11 12 -41 26 -67 23 -39 26 -55 21 -100 -3 -29 -13 -68 -23 -86 -15 -30 -15 -32 -1 -20 25 20 51 112 43 154 -4 19 -18 51 -31 71 -14 21 -25 51 -25 69 0 25 -9 42 -36 68 -20 18 -44 50 -55 71 -25 49 -78 91 -174 138 -94 46 -141 84 -150 123 -6 24 -4 29 22 37 22 8 36 25 56 68 17 37 40 66 63 82 20 14 45 34 57 44 14 14 49 23 114 32 113 16 182 44 227 94 37 41 73 128 83 196 l6 44 -833 0 -833 0 6 -50z m886 -696 c2 -2 -25 -3 -60 -3 -49 1 -57 3 -34 9 27 6 84 3 94 -6z m-359 -406 c0 -23 -3 -29 -11 -21 -6 6 -8 20 -4 32 9 30 15 26 15 -11z m612 -20 c-9 -9 -12 -4 -11 23 0 32 1 33 11 11 8 -17 8 -26 0 -34z m-449 35 c9 -9 -22 -43 -40 -43 -16 0 -16 5 -3 31 11 19 31 25 43 12z m422 -24 c0 -19 -6 -25 -27 -27 -32 -4 -36 12 -11 40 21 24 38 18 38 -13z"/>
 <path d="M1635 654 c3 -23 0 -66 -5 -95 -11 -62 -75 -198 -96 -206 -8 -3 -23 -25 -33 -48 -15 -34 -32 -51 -73 -74 -55 -32 -55 -39 3 -20 46 16 76 45 90 88 7 20 27 54 44 76 72 88 102 203 76 285 l-11 35 5 -41z"/>
 <path d="M411 387 c-1 -50 23 -100 63 -133 17 -14 48 -41 68 -59 20 -19 56 -39 80 -46 24 -7 47 -19 52 -27 10 -18 68 -42 99 -42 14 0 30 -7 37 -15 7 -8 30 -20 51 -26 32 -10 42 -9 63 4 19 13 31 15 51 7 15 -6 52 -10 84 -10 106 0 218 47 270 114 l25 31 -35 -32 c-72 -68 -256 -114 -338 -85 -17 6 -33 7 -36 2 -13 -20 -66 -21 -108 -2 -23 11 -55 23 -72 27 -16 3 -44 17 -62 31 -17 13 -38 24 -45 24 -22 0 -105 57 -118 80 -6 11 -15 18 -19 16 -7 -5 -39 25 -71 67 -7 10 -19 39 -26 65 l-13 47 0 -38z"/>
 </g>
<g id="layer111" fill="#a02f55" stroke="none">
 <path d="M173 1950 c8 -66 51 -160 90 -198 46 -45 113 -71 219 -85 72 -11 100 -19 122 -38 90 -76 105 -93 120 -133 12 -32 25 -47 45 -54 25 -9 28 -14 22 -40 -7 -35 -106 -122 -138 -122 -44 0 -118 -35 -158 -75 -32 -31 -45 -55 -55 -96 -7 -30 -26 -72 -41 -94 -31 -43 -49 -111 -49 -178 0 -23 -2 -100 -4 -172 -4 -137 7 -191 48 -224 14 -12 13 -7 -5 28 -23 45 -30 114 -16 164 6 21 5 27 -4 21 -9 -5 -10 14 -5 77 3 46 6 101 6 123 -1 47 24 126 51 160 11 15 22 39 24 56 10 74 64 138 152 180 59 28 78 27 61 -2 -8 -15 -15 -89 -19 -206 -4 -116 -10 -187 -18 -195 -6 -6 -11 -7 -11 -1 0 6 -7 19 -15 30 -8 10 -4 -6 10 -36 14 -32 35 -116 49 -196 13 -78 31 -155 40 -173 25 -48 67 -59 130 -35 13 5 16 -1 16 -27 0 -43 20 -83 43 -87 29 -6 67 26 88 72 10 23 30 93 45 156 30 132 42 158 83 193 45 38 94 50 177 45 l73 -5 16 39 c8 21 15 66 15 99 0 69 -30 226 -59 311 l-20 58 32 -16 c115 -59 208 -138 193 -163 -4 -5 7 -19 24 -31 33 -23 60 -68 60 -98 0 -11 12 -41 26 -67 23 -39 26 -55 21 -100 -3 -29 -13 -68 -23 -86 -15 -30 -15 -32 -1 -20 25 20 51 112 43 154 -4 19 -18 51 -31 71 -14 21 -25 51 -25 69 0 25 -9 42 -36 68 -20 18 -44 50 -55 71 -25 49 -78 91 -174 138 -94 46 -141 84 -150 123 -6 24 -4 29 22 37 22 8 36 25 56 68 17 37 40 66 63 82 20 14 45 34 57 44 14 14 49 23 114 32 113 16 182 44 227 94 37 41 73 128 83 196 l6 44 -833 0 -833 0 6 -50z m886 -696 c2 -2 -25 -3 -60 -3 -49 1 -57 3 -34 9 27 6 84 3 94 -6z m-169 -375 c0 -10 -4 -19 -10 -19 -5 0 -10 12 -10 26 0 14 4 23 10 19 6 -3 10 -15 10 -26z m231 -2 c-8 -8 -11 -7 -11 4 0 20 13 34 18 19 3 -7 -1 -17 -7 -23z m-421 -27 c0 -21 -4 -28 -14 -24 -12 5 -13 11 -4 30 15 31 18 30 18 -6z m616 -15 c-5 -15 -73 -32 -83 -21 -3 3 -1 17 5 31 12 26 47 34 55 13 3 -7 6 -4 7 7 1 19 1 19 11 2 6 -10 8 -24 5 -32z m-449 20 c2 -6 -10 -19 -27 -28 -29 -18 -30 -17 -30 0 0 35 47 58 57 28z"/>
 <path d="M1635 654 c3 -23 0 -66 -5 -95 -11 -62 -75 -198 -96 -206 -8 -3 -23 -25 -33 -48 -15 -34 -32 -51 -73 -74 -55 -32 -55 -39 3 -20 46 16 76 45 90 88 7 20 27 54 44 76 72 88 102 203 76 285 l-11 35 5 -41z"/>
 <path d="M411 387 c-1 -50 23 -100 63 -133 17 -14 48 -41 68 -59 20 -19 56 -39 80 -46 24 -7 47 -19 52 -27 10 -18 68 -42 99 -42 14 0 30 -7 37 -15 7 -8 30 -20 51 -26 32 -10 42 -9 63 4 19 13 31 15 51 7 15 -6 52 -10 84 -10 106 0 218 47 270 114 l25 31 -35 -32 c-72 -68 -256 -114 -338 -85 -17 6 -33 7 -36 2 -13 -20 -66 -21 -108 -2 -23 11 -55 23 -72 27 -16 3 -44 17 -62 31 -17 13 -38 24 -45 24 -22 0 -105 57 -118 80 -6 11 -15 18 -19 16 -7 -5 -39 25 -71 67 -7 10 -19 39 -26 65 l-13 47 0 -38z"/>
 </g>
<g id="layer112" fill="#895b2f" stroke="none">
 <path d="M173 1950 c8 -66 51 -160 90 -198 46 -45 113 -71 219 -85 72 -11 100 -19 122 -38 90 -76 105 -93 120 -133 12 -32 25 -47 45 -54 25 -9 28 -14 22 -40 -7 -35 -106 -122 -138 -122 -44 0 -118 -35 -158 -75 -32 -31 -45 -55 -55 -96 -7 -30 -26 -72 -41 -94 -31 -43 -49 -111 -49 -178 0 -23 -2 -100 -4 -172 -4 -137 7 -191 48 -224 14 -12 13 -7 -5 28 -23 45 -30 114 -16 164 6 21 5 27 -4 21 -9 -5 -10 14 -5 77 3 46 6 101 6 123 -1 47 24 126 51 160 11 15 22 39 24 56 10 74 64 138 152 180 59 28 78 27 61 -2 -8 -15 -15 -89 -19 -206 -4 -116 -10 -187 -18 -195 -6 -6 -11 -7 -11 -1 0 6 -7 19 -15 30 -8 10 -4 -6 10 -36 14 -32 35 -116 49 -196 13 -78 31 -155 40 -173 25 -48 67 -59 130 -35 13 5 16 -1 16 -27 0 -43 20 -83 43 -87 29 -6 67 26 88 72 10 23 30 93 45 156 30 132 42 158 83 193 45 38 94 50 177 45 l73 -5 16 39 c8 21 15 66 15 99 0 69 -30 226 -59 311 l-20 58 32 -16 c115 -59 208 -138 193 -163 -4 -5 7 -19 24 -31 33 -23 60 -68 60 -98 0 -11 12 -41 26 -67 23 -39 26 -55 21 -100 -3 -29 -13 -68 -23 -86 -15 -30 -15 -32 -1 -20 25 20 51 112 43 154 -4 19 -18 51 -31 71 -14 21 -25 51 -25 69 0 25 -9 42 -36 68 -20 18 -44 50 -55 71 -25 49 -78 91 -174 138 -94 46 -141 84 -150 123 -6 24 -4 29 22 37 22 8 36 25 56 68 17 37 40 66 63 82 20 14 45 34 57 44 14 14 49 23 114 32 113 16 182 44 227 94 37 41 73 128 83 196 l6 44 -833 0 -833 0 6 -50z m904 -673 c27 -19 30 -23 15 -29 -15 -6 -15 -7 3 -8 44 -4 -31 -18 -95 -18 -59 0 -142 14 -97 17 9 1 17 5 17 11 0 5 -8 7 -17 4 -15 -5 -15 -3 2 11 56 48 114 52 172 12z m-187 -398 c0 -10 -4 -19 -10 -19 -5 0 -10 12 -10 26 0 14 4 23 10 19 6 -3 10 -15 10 -26z m231 -2 c-8 -8 -11 -7 -11 4 0 20 13 34 18 19 3 -7 -1 -17 -7 -23z m-421 -27 c0 -21 -4 -28 -14 -24 -12 5 -13 11 -4 30 15 31 18 30 18 -6z m616 -15 c-5 -15 -73 -32 -83 -21 -3 3 -1 17 5 31 12 26 47 34 55 13 3 -7 6 -4 7 7 1 19 1 19 11 2 6 -10 8 -24 5 -32z m-449 20 c2 -6 -10 -19 -27 -28 -29 -18 -30 -17 -30 0 0 35 47 58 57 28z"/>
 <path d="M1635 654 c3 -23 0 -66 -5 -95 -11 -62 -75 -198 -96 -206 -8 -3 -23 -25 -33 -48 -15 -34 -32 -51 -73 -74 -55 -32 -55 -39 3 -20 46 16 76 45 90 88 7 20 27 54 44 76 72 88 102 203 76 285 l-11 35 5 -41z"/>
 <path d="M411 387 c-1 -50 23 -100 63 -133 17 -14 48 -41 68 -59 20 -19 56 -39 80 -46 24 -7 47 -19 52 -27 10 -18 68 -42 99 -42 14 0 30 -7 37 -15 7 -8 30 -20 51 -26 32 -10 42 -9 63 4 19 13 31 15 51 7 15 -6 52 -10 84 -10 106 0 218 47 270 114 l25 31 -35 -32 c-72 -68 -256 -114 -338 -85 -17 6 -33 7 -36 2 -13 -20 -66 -21 -108 -2 -23 11 -55 23 -72 27 -16 3 -44 17 -62 31 -17 13 -38 24 -45 24 -22 0 -105 57 -118 80 -6 11 -15 18 -19 16 -7 -5 -39 25 -71 67 -7 10 -19 39 -26 65 l-13 47 0 -38z"/>
 </g>
<g id="layer113" fill="#514b49" stroke="none">
 <path d="M173 1950 c8 -66 51 -160 90 -198 46 -45 113 -71 219 -85 72 -11 100 -19 122 -38 90 -76 105 -93 120 -133 12 -32 25 -47 45 -54 44 -16 32 -59 -31 -108 -76 -59 -80 -74 -89 -269 -4 -93 -12 -185 -17 -202 -8 -26 -7 -44 9 -88 10 -30 24 -87 30 -127 6 -40 16 -89 23 -108 12 -37 62 -77 105 -86 14 -2 46 -11 71 -19 52 -17 96 -19 105 -5 3 5 15 56 26 112 11 57 24 117 30 135 16 50 78 99 142 113 48 9 138 6 159 -6 4 -3 14 9 23 25 28 56 15 186 -46 441 -13 52 -24 67 -85 115 -7 6 -16 22 -20 38 -5 24 -3 29 23 37 22 8 36 25 56 68 17 37 40 66 63 82 20 14 45 34 57 44 14 14 49 23 114 32 113 16 182 44 227 94 37 41 73 128 83 196 l6 44 -833 0 -833 0 6 -50z m904 -673 c27 -19 30 -23 15 -29 -15 -6 -15 -7 3 -8 44 -4 -31 -18 -95 -18 -59 0 -142 14 -97 17 9 1 17 5 17 11 0 5 -8 7 -17 4 -15 -5 -15 -3 2 11 56 48 114 52 172 12z m-187 -398 c0 -10 -4 -19 -10 -19 -5 0 -10 12 -10 26 0 14 4 23 10 19 6 -3 10 -15 10 -26z m231 -2 c-8 -8 -11 -7 -11 4 0 20 13 34 18 19 3 -7 -1 -17 -7 -23z m-421 -27 c0 -21 -4 -28 -14 -24 -12 5 -13 11 -4 30 15 31 18 30 18 -6z m616 -15 c-5 -15 -73 -32 -83 -21 -3 3 -1 17 5 31 12 26 47 34 55 13 3 -7 6 -4 7 7 1 19 1 19 11 2 6 -10 8 -24 5 -32z m-449 20 c2 -6 -10 -19 -27 -28 -29 -18 -30 -17 -30 0 0 35 47 58 57 28z"/>
 </g>
<g id="layer114" fill="#882335" stroke="none">
 <path d="M173 1950 c8 -66 51 -160 90 -198 46 -45 113 -71 219 -85 72 -11 100 -19 122 -38 90 -76 105 -93 120 -133 12 -32 25 -47 45 -54 44 -16 32 -59 -31 -108 -76 -59 -80 -74 -89 -269 -4 -93 -12 -186 -18 -204 -16 -52 11 -102 64 -119 54 -18 151 -17 198 2 46 20 49 3 5 -21 -47 -25 -140 -22 -202 5 -41 19 -47 19 -42 5 4 -9 11 -48 17 -87 6 -39 16 -87 23 -106 12 -37 62 -77 105 -86 14 -2 46 -11 71 -19 52 -17 96 -19 105 -5 3 5 15 56 26 112 25 129 35 161 59 183 11 10 17 22 14 27 -3 4 -2 8 3 7 4 -1 24 5 43 13 19 9 54 19 77 23 29 4 40 11 37 20 -8 20 14 55 36 55 10 0 21 -6 23 -12 3 -7 6 -4 7 7 1 18 2 17 15 -5 12 -23 12 -26 -8 -37 -12 -7 -30 -12 -40 -13 -10 0 -15 -5 -12 -11 4 -6 9 -8 12 -6 2 3 20 1 39 -3 31 -7 36 -5 49 20 28 55 14 187 -46 440 -13 52 -24 67 -85 115 -7 6 -16 22 -20 38 -5 24 -3 29 23 37 22 8 36 25 56 68 17 37 40 66 63 82 20 14 45 34 57 44 14 14 49 23 114 32 113 16 182 44 227 94 37 41 73 128 83 196 l6 44 -833 0 -833 0 6 -50z m904 -673 c27 -19 30 -23 15 -29 -15 -6 -15 -7 3 -8 44 -4 -31 -18 -95 -18 -59 0 -142 14 -97 17 9 1 17 5 17 11 0 5 -8 7 -17 4 -15 -5 -15 -3 2 11 56 48 114 52 172 12z m-317 -376 c0 -21 -13 -41 -26 -41 -8 0 -14 10 -14 25 0 18 5 25 20 25 11 0 20 -4 20 -9z m130 -20 c0 -19 -21 -41 -58 -61 -30 -15 -34 -10 -18 20 7 16 20 25 34 24 17 0 22 5 22 23 0 14 4 21 10 18 6 -3 10 -14 10 -24z m237 -18 c-4 -17 -4 -17 -12 0 -4 9 -4 25 0 35 8 16 8 16 12 0 3 -10 3 -26 0 -35z m55 22 c-3 -16 -11 -25 -23 -25 -14 0 -19 7 -19 25 0 20 5 25 24 25 19 0 22 -4 18 -25z m-482 -35 c0 -21 -4 -28 -14 -24 -12 5 -13 11 -4 30 15 31 18 30 18 -6z"/>
 </g>
<g id="layer115" fill="#68472e" stroke="none">
 <path d="M173 1950 c8 -66 51 -160 90 -198 46 -45 113 -71 219 -85 72 -11 100 -19 122 -38 90 -76 105 -93 120 -133 12 -32 25 -47 45 -54 44 -16 32 -59 -31 -108 -76 -59 -80 -74 -89 -269 -4 -93 -12 -186 -18 -204 -16 -52 11 -102 64 -119 54 -18 151 -17 198 2 46 20 49 3 5 -21 -47 -25 -140 -22 -202 5 -41 19 -47 19 -42 5 4 -9 11 -48 17 -87 6 -39 16 -87 23 -106 12 -37 62 -77 105 -86 14 -2 46 -11 71 -19 52 -17 96 -19 105 -5 3 5 15 56 26 112 25 129 35 161 59 183 11 10 17 22 14 27 -3 4 -2 8 3 7 4 -1 24 5 43 13 19 9 54 19 77 23 29 4 40 11 37 20 -8 20 14 55 36 55 10 0 21 -6 23 -12 3 -7 6 -4 7 7 1 18 2 17 15 -5 12 -23 12 -26 -8 -37 -12 -7 -30 -12 -40 -13 -10 0 -15 -5 -12 -11 4 -6 9 -8 12 -6 2 3 20 1 39 -3 31 -7 36 -5 49 20 28 55 14 187 -46 440 -13 52 -24 67 -85 115 -7 6 -16 22 -20 38 -5 24 -3 29 23 37 22 8 36 25 56 68 17 37 40 66 63 82 20 14 45 34 57 44 14 14 49 23 114 32 113 16 182 44 227 94 37 41 73 128 83 196 l6 44 -833 0 -833 0 6 -50z m910 -671 c26 -17 47 -35 47 -39 0 -10 -83 -28 -135 -29 -52 0 -136 20 -128 32 3 5 26 22 51 38 61 39 105 38 165 -2z m-323 -378 c0 -21 -13 -41 -26 -41 -8 0 -14 10 -14 25 0 18 5 25 20 25 11 0 20 -4 20 -9z m130 -20 c0 -19 -21 -41 -58 -61 -30 -15 -34 -10 -18 20 7 16 20 25 34 24 17 0 22 5 22 23 0 14 4 21 10 18 6 -3 10 -14 10 -24z m237 -18 c-4 -17 -4 -17 -12 0 -4 9 -4 25 0 35 8 16 8 16 12 0 3 -10 3 -26 0 -35z m55 22 c-3 -16 -11 -25 -23 -25 -14 0 -19 7 -19 25 0 20 5 25 24 25 19 0 22 -4 18 -25z m-482 -35 c0 -21 -4 -28 -14 -24 -12 5 -13 11 -4 30 15 31 18 30 18 -6z"/>
 </g>
<g id="layer116" fill="#633c2a" stroke="none">
 <path d="M173 1950 c8 -66 51 -160 90 -198 46 -45 113 -71 219 -85 72 -11 100 -19 122 -38 90 -76 105 -93 120 -133 12 -32 25 -47 45 -54 44 -16 32 -59 -31 -108 -76 -59 -80 -74 -89 -269 -4 -93 -12 -187 -17 -207 -14 -54 10 -99 63 -116 54 -18 151 -17 198 2 44 19 50 3 7 -19 -52 -27 -109 -29 -177 -6 -34 12 -64 21 -66 21 -5 0 23 -149 36 -195 13 -42 59 -81 106 -91 14 -2 46 -11 71 -19 51 -17 96 -19 105 -6 3 6 16 65 30 133 15 76 32 133 45 150 11 15 20 31 20 36 0 10 79 38 132 48 25 4 35 10 32 19 -8 21 15 55 36 55 11 0 20 -6 21 -12 0 -7 4 -4 9 7 7 19 8 19 18 -5 8 -21 6 -27 -12 -37 -11 -7 -29 -12 -39 -13 -10 0 -15 -5 -12 -11 4 -6 9 -8 12 -6 2 3 20 1 39 -3 34 -8 36 -7 50 26 20 49 17 133 -10 264 -49 235 -45 224 -122 285 -7 6 -16 22 -20 38 -5 24 -3 29 23 37 22 8 36 25 56 68 17 37 40 66 63 82 20 14 45 34 57 44 14 14 49 23 114 32 113 16 182 44 227 94 37 41 73 128 83 196 l6 44 -833 0 -833 0 6 -50z m910 -671 c26 -17 47 -35 47 -39 0 -10 -83 -28 -135 -29 -52 0 -136 20 -128 32 3 5 26 22 51 38 61 39 105 38 165 -2z m-323 -378 c0 -21 -13 -41 -26 -41 -8 0 -14 10 -14 25 0 18 5 25 20 25 11 0 20 -4 20 -9z m130 -20 c0 -19 -21 -41 -58 -61 -30 -15 -34 -10 -18 20 7 16 20 25 34 24 17 0 22 5 22 23 0 14 4 21 10 18 6 -3 10 -14 10 -24z m237 -18 c-4 -17 -4 -17 -12 0 -4 9 -4 25 0 35 8 16 8 16 12 0 3 -10 3 -26 0 -35z m55 22 c-3 -16 -11 -25 -23 -25 -14 0 -19 7 -19 25 0 20 5 25 24 25 19 0 22 -4 18 -25z m-484 -50 c-2 -8 -8 -11 -14 -7 -8 5 -9 14 -1 32 8 20 11 22 14 8 3 -10 3 -25 1 -33z"/>
 </g>
<g id="layer117" fill="#753915" stroke="none">
 <path d="M173 1950 c8 -66 51 -160 90 -198 46 -45 113 -71 219 -85 72 -11 100 -19 122 -38 90 -76 105 -93 120 -133 12 -32 25 -47 45 -54 44 -16 32 -59 -31 -108 -75 -59 -80 -74 -90 -269 -5 -93 -11 -191 -14 -216 -8 -64 6 -85 68 -104 65 -19 124 -19 178 0 52 18 61 19 54 2 -8 -23 -72 -47 -124 -47 -27 0 -73 9 -102 20 -29 11 -53 20 -54 20 -3 0 30 -164 39 -195 13 -42 59 -81 106 -91 14 -2 46 -11 71 -19 51 -17 96 -19 105 -6 3 6 16 65 30 133 16 78 32 133 46 151 11 16 18 31 15 34 -7 8 79 39 133 48 27 4 38 11 35 20 -8 21 14 55 36 55 11 0 20 -6 21 -12 0 -7 4 -4 9 7 7 19 8 19 18 -5 8 -21 6 -27 -12 -37 -11 -7 -29 -12 -39 -13 -10 0 -15 -5 -12 -11 4 -6 9 -8 12 -6 2 3 20 1 39 -3 34 -8 36 -7 50 26 20 49 17 133 -10 264 -49 235 -45 224 -122 285 -7 6 -16 22 -20 38 -5 24 -3 29 23 37 22 8 36 25 56 68 17 37 40 66 63 82 20 14 45 34 57 44 14 14 49 23 114 32 113 16 182 44 227 94 37 41 73 128 83 196 l6 44 -833 0 -833 0 6 -50z m910 -671 c26 -17 47 -35 47 -39 0 -10 -83 -28 -135 -29 -52 0 -136 20 -128 32 3 5 26 22 51 38 61 39 105 38 165 -2z m-323 -378 c0 -21 -13 -41 -26 -41 -8 0 -14 10 -14 25 0 18 5 25 20 25 11 0 20 -4 20 -9z m130 -20 c0 -19 -21 -41 -58 -61 -30 -15 -34 -10 -18 20 7 16 20 25 34 24 17 0 22 5 22 23 0 14 4 21 10 18 6 -3 10 -14 10 -24z m237 -18 c-4 -17 -4 -17 -12 0 -4 9 -4 25 0 35 8 16 8 16 12 0 3 -10 3 -26 0 -35z m55 22 c-3 -16 -11 -25 -23 -25 -14 0 -19 7 -19 25 0 20 5 25 24 25 19 0 22 -4 18 -25z m-484 -50 c-2 -9 -8 -12 -17 -6 -11 7 -11 13 0 32 11 20 14 21 17 7 2 -10 2 -25 0 -33z"/>
 </g>
<g id="layer118" fill="#3e4441" stroke="none">
 <path d="M173 1950 c8 -66 51 -160 90 -198 46 -45 113 -71 219 -85 72 -11 100 -19 122 -38 90 -76 105 -93 120 -133 12 -32 25 -47 45 -54 45 -16 32 -59 -35 -112 -30 -24 -54 -46 -54 -51 0 -4 -3 -16 -6 -26 -5 -16 -4 -16 5 -1 32 49 284 228 321 228 26 0 132 -67 215 -136 33 -28 66 -54 73 -58 27 -16 -6 31 -42 61 -19 15 -38 40 -41 56 -6 24 -4 29 22 37 22 8 36 25 56 68 17 37 40 66 63 82 20 14 45 34 57 44 14 14 49 23 114 32 113 16 182 44 227 94 37 41 73 128 83 196 l6 44 -833 0 -833 0 6 -50z m841 -217 c8 -66 36 -107 97 -144 28 -18 55 -43 60 -57 5 -13 8 -26 7 -27 -2 -2 -37 17 -78 41 -41 24 -86 44 -100 44 -14 0 -59 -20 -100 -44 -41 -24 -77 -40 -78 -35 -8 20 9 39 63 73 66 43 92 82 101 153 8 63 19 61 28 -4z"/>
 <path d="M963 1140 c-38 -15 -26 -28 30 -32 62 -5 77 4 46 26 -26 18 -43 19 -76 6z"/>
 <path d="M673 881 c-24 -21 -43 -43 -43 -47 0 -10 135 -54 163 -54 25 0 97 43 97 57 0 8 4 12 8 9 5 -3 9 1 9 9 0 19 -11 19 -28 -1 -14 -17 -69 -48 -74 -42 -2 2 2 15 9 28 8 16 20 25 35 24 18 -1 21 4 19 25 -3 25 -5 26 -78 28 -74 3 -75 2 -117 -36z m87 20 c0 -21 -13 -41 -26 -41 -8 0 -14 10 -14 25 0 18 5 25 20 25 11 0 20 -4 20 -9z m-62 -66 c-2 -9 -8 -12 -17 -6 -11 7 -11 13 0 32 11 20 14 21 17 7 2 -10 2 -25 0 -33z"/>
 <path d="M1137 913 c-4 -3 -7 -20 -7 -37 0 -23 -3 -27 -12 -18 -17 17 -38 15 -38 -4 0 -8 4 -13 9 -10 5 3 14 -1 21 -9 7 -8 16 -12 21 -9 5 3 8 0 7 -8 -2 -9 12 -14 49 -16 43 -2 52 0 47 12 -8 22 14 56 36 56 11 0 20 -6 21 -12 0 -7 4 -4 9 7 7 19 8 19 18 -5 8 -21 6 -27 -12 -37 -11 -7 -30 -13 -41 -13 -12 -1 -15 -4 -7 -7 21 -8 102 18 102 33 0 8 -17 29 -37 49 -36 33 -42 34 -109 35 -39 0 -74 -3 -77 -7z m45 -28 c-3 -16 -11 -25 -23 -25 -14 0 -19 7 -19 25 0 20 5 25 24 25 19 0 22 -4 18 -25z"/>
 </g>
<g id="layer119" fill="#343946" stroke="none">
 <path d="M173 1950 c8 -66 51 -160 90 -198 46 -45 113 -71 219 -85 72 -11 100 -19 122 -38 90 -76 105 -93 120 -133 12 -32 25 -47 45 -54 45 -16 32 -59 -35 -112 -30 -24 -54 -46 -54 -51 0 -4 -3 -16 -6 -26 -5 -16 -4 -16 5 -1 32 49 284 228 321 228 26 0 132 -67 215 -136 33 -28 66 -54 73 -58 27 -16 -6 31 -42 61 -19 15 -38 40 -41 56 -6 24 -4 29 22 37 22 8 36 25 56 68 17 37 40 66 63 82 20 14 45 34 57 44 14 14 49 23 114 32 113 16 182 44 227 94 37 41 73 128 83 196 l6 44 -833 0 -833 0 6 -50z m841 -217 c8 -66 36 -107 97 -144 28 -18 55 -43 60 -57 5 -13 8 -26 7 -27 -2 -2 -37 17 -78 41 -41 24 -86 44 -100 44 -14 0 -59 -20 -100 -44 -41 -24 -77 -40 -78 -35 -8 20 9 39 63 73 66 43 92 82 101 153 8 63 19 61 28 -4z"/>
 <path d="M963 1140 c-38 -15 -26 -28 30 -32 62 -5 77 4 46 26 -26 18 -43 19 -76 6z"/>
 <path d="M673 881 c-24 -21 -43 -43 -43 -47 0 -10 135 -54 163 -54 25 0 97 43 97 57 0 8 4 12 8 9 5 -3 9 1 9 9 0 19 -11 19 -28 -1 -12 -14 -61 -44 -73 -44 -3 0 0 12 6 28 6 15 10 38 9 51 -1 20 3 23 24 19 13 -3 22 -1 19 3 -3 5 -38 9 -77 9 -69 -1 -74 -2 -114 -39z m87 -4 c0 -18 4 -37 10 -42 6 -7 -9 -10 -40 -9 -28 0 -53 3 -56 6 -8 9 15 49 25 43 5 -2 11 4 14 15 3 12 14 20 26 20 17 0 21 -6 21 -33z"/>
 <path d="M1136 912 c-3 -5 8 -7 23 -4 26 4 28 2 24 -22 -3 -14 0 -33 7 -41 18 -22 -7 -20 -55 5 -47 24 -55 25 -55 4 0 -8 4 -13 9 -10 5 3 14 -1 21 -9 7 -8 16 -12 21 -9 5 3 8 0 7 -8 -2 -9 12 -14 47 -16 55 -3 51 -9 58 78 1 17 5 30 9 30 22 0 38 -16 39 -39 0 -23 1 -24 9 -6 7 19 8 19 18 -5 8 -21 6 -27 -12 -37 -11 -7 -30 -13 -41 -13 -12 -1 -15 -4 -7 -7 21 -8 102 18 102 33 0 8 -17 29 -37 49 -36 33 -42 34 -110 35 -39 0 -74 -4 -77 -8z"/>
 </g>
<g id="layer120" fill="#2d3134" stroke="none">
 <path d="M173 1950 c8 -66 51 -160 90 -198 46 -45 113 -71 219 -85 72 -11 100 -19 122 -38 90 -76 105 -93 120 -133 12 -32 25 -47 45 -54 45 -16 32 -59 -35 -112 -30 -24 -54 -46 -54 -51 0 -4 -3 -16 -6 -26 -5 -16 -4 -16 5 -1 32 49 284 228 321 228 26 0 132 -67 215 -136 33 -28 66 -54 73 -58 27 -16 -6 31 -42 61 -19 15 -38 40 -41 56 -6 24 -4 29 22 37 22 8 36 25 56 68 17 37 40 66 63 82 20 14 45 34 57 44 14 14 49 23 114 32 113 16 182 44 227 94 37 41 73 128 83 196 l6 44 -833 0 -833 0 6 -50z m841 -217 c8 -66 36 -107 97 -144 28 -18 55 -43 60 -57 5 -13 8 -26 7 -27 -2 -2 -37 17 -78 41 -41 24 -86 44 -100 44 -14 0 -59 -20 -100 -44 -41 -24 -77 -40 -78 -35 -8 20 9 39 63 73 66 43 92 82 101 153 8 63 19 61 28 -4z m351 -73 c18 -15 20 -30 3 -30 -6 0 -9 3 -6 6 4 3 -16 35 -43 70 -27 36 -49 70 -49 76 0 6 18 -17 40 -50 22 -33 47 -65 55 -72z m-661 78 c-4 -7 -22 -32 -40 -54 -18 -23 -30 -44 -27 -48 4 -3 1 -6 -5 -6 -18 0 -15 5 31 65 40 53 56 69 41 43z"/>
 <path d="M963 1140 c-38 -15 -26 -28 30 -32 62 -5 77 4 46 26 -26 18 -43 19 -76 6z"/>
 <path d="M673 881 c-24 -21 -43 -43 -43 -47 0 -10 135 -54 163 -54 25 0 97 43 97 57 0 8 4 12 8 9 5 -3 9 1 9 9 0 19 -11 19 -28 -1 -12 -14 -61 -44 -73 -44 -3 0 0 12 6 28 6 15 10 38 9 51 -1 20 3 23 24 19 13 -3 22 -1 19 3 -3 5 -38 9 -77 9 -69 -1 -74 -2 -114 -39z m87 -6 c0 -22 6 -37 18 -44 15 -8 -31 -9 -100 -2 -27 3 34 81 63 81 15 0 19 -7 19 -35z"/>
 <path d="M1136 912 c-3 -5 8 -7 23 -4 26 4 28 2 24 -22 -3 -14 0 -33 7 -41 19 -23 -17 -20 -58 5 -39 24 -52 25 -52 4 0 -8 4 -13 9 -10 5 3 14 -1 21 -9 7 -8 16 -12 21 -9 5 3 8 0 7 -8 -2 -9 12 -14 52 -15 43 -2 52 0 39 9 -14 10 -14 13 3 30 13 13 18 29 15 44 -5 30 12 31 45 2 20 -19 44 -58 35 -58 -17 -1 -77 -29 -63 -30 34 0 96 23 96 36 0 8 -17 29 -37 49 -36 33 -42 34 -110 35 -39 0 -74 -4 -77 -8z"/>
 </g>
<g id="layer121" fill="#592607" stroke="none">
 <path d="M173 1950 c8 -66 51 -160 90 -198 46 -45 113 -71 219 -85 72 -11 100 -19 122 -38 90 -76 105 -93 120 -133 12 -32 25 -47 45 -54 45 -16 32 -59 -35 -112 -30 -24 -54 -46 -54 -51 0 -4 -3 -16 -6 -26 -5 -16 -4 -16 5 -1 32 49 284 228 321 228 26 0 132 -67 215 -136 33 -28 66 -54 73 -58 27 -16 -6 31 -42 61 -19 15 -38 40 -41 56 -6 24 -4 29 22 37 22 8 36 25 56 68 17 37 40 66 63 82 20 14 45 34 57 44 14 14 49 23 114 32 113 16 182 44 227 94 37 41 73 128 83 196 l6 44 -833 0 -833 0 6 -50z m108 -144 c44 -49 76 -71 149 -98 60 -22 22 -23 -49 0 -74 23 -131 79 -160 155 -11 32 -21 65 -20 75 0 9 9 -6 20 -34 11 -29 38 -73 60 -98z m1498 58 c-38 -102 -123 -162 -254 -177 l-50 -7 60 18 c33 10 79 28 101 40 55 28 120 104 142 164 9 27 18 43 20 35 2 -8 -7 -40 -19 -73z m-1052 -86 c-15 -30 -43 -73 -62 -96 l-36 -42 25 -11 c14 -7 33 -23 41 -36 15 -22 11 -21 -34 9 -28 18 -49 38 -46 45 2 7 -12 16 -38 21 -23 6 -32 10 -20 11 12 1 33 -3 47 -9 24 -9 29 -5 70 53 24 34 50 74 57 90 7 15 14 25 17 22 3 -2 -7 -28 -21 -57z m601 -58 c40 -54 45 -58 68 -50 14 6 35 10 47 9 12 -1 3 -5 -20 -11 -26 -5 -40 -14 -38 -21 3 -7 -18 -27 -46 -45 -41 -27 -48 -29 -39 -13 6 12 24 28 41 36 l30 16 -40 47 c-38 46 -72 103 -70 119 0 4 6 0 12 -10 7 -10 31 -45 55 -77z m-314 13 c8 -66 36 -107 97 -144 28 -18 55 -43 60 -57 5 -13 8 -26 7 -27 -2 -2 -37 17 -78 41 -41 24 -86 44 -100 44 -14 0 -59 -20 -100 -44 -41 -24 -77 -40 -78 -35 -8 20 9 39 63 73 66 43 92 82 101 153 8 63 19 61 28 -4z"/>
 <path d="M963 1140 c-38 -15 -26 -28 30 -32 62 -5 77 4 46 26 -26 18 -43 19 -76 6z"/>
 <path d="M673 881 c-24 -21 -43 -43 -43 -47 0 -10 135 -54 163 -54 25 0 97 43 97 57 0 8 4 12 8 9 5 -3 9 1 9 9 0 19 -11 19 -28 -1 -21 -26 -66 -44 -107 -44 -43 0 -102 17 -102 30 0 20 53 70 74 70 19 0 22 -4 18 -28 -2 -18 2 -33 13 -42 15 -13 20 -12 36 8 20 25 16 54 -7 45 -8 -3 -14 0 -14 5 0 6 17 13 38 15 20 2 3 4 -38 5 -74 1 -76 0 -117 -37z"/>
 <path d="M1163 913 c22 -4 27 -8 22 -23 -8 -24 11 -60 30 -60 16 0 35 30 35 54 0 9 -6 13 -14 10 -8 -3 -17 -1 -21 5 -4 7 6 11 29 11 26 0 40 -7 60 -31 14 -17 26 -34 26 -39 0 -4 -17 -15 -37 -23 -45 -19 -27 -22 28 -5 22 6 39 17 39 24 0 8 -17 29 -37 49 -37 33 -40 34 -113 33 -41 0 -62 -3 -47 -5z"/>
 <path d="M1080 854 c0 -8 4 -13 9 -10 5 3 14 -1 21 -9 7 -8 16 -12 21 -9 5 3 8 0 7 -8 -2 -9 12 -14 47 -15 l50 -3 -39 15 c-22 7 -52 23 -67 34 -34 25 -49 27 -49 5z"/>
 </g>
<g id="layer122" fill="#1e2427" stroke="none">
 <path d="M173 1950 c8 -66 51 -160 90 -198 46 -45 113 -71 219 -85 72 -11 100 -19 122 -38 90 -76 105 -93 120 -133 12 -32 25 -47 45 -54 25 -9 28 -14 22 -40 -4 -19 -24 -45 -56 -71 -27 -22 -53 -50 -57 -62 -5 -14 12 -2 51 33 65 60 248 188 269 188 18 0 162 -94 235 -153 64 -53 80 -48 18 5 -22 19 -43 46 -46 61 -6 24 -4 29 22 37 22 8 36 25 56 68 17 37 40 66 63 82 20 14 45 34 57 44 14 14 49 23 114 32 113 16 182 44 227 94 37 41 73 128 83 196 l6 44 -833 0 -833 0 6 -50z m108 -144 c44 -49 76 -71 149 -98 60 -22 22 -23 -49 0 -74 23 -131 79 -160 155 -11 32 -21 65 -20 75 0 9 9 -6 20 -34 11 -29 38 -73 60 -98z m1498 58 c-38 -102 -123 -162 -254 -177 l-50 -7 60 18 c33 10 79 28 101 40 55 28 120 104 142 164 9 27 18 43 20 35 2 -8 -7 -40 -19 -73z m-1052 -86 c-15 -30 -43 -73 -62 -96 l-36 -42 25 -11 c14 -7 33 -23 41 -36 15 -22 11 -21 -34 9 -28 18 -49 38 -46 45 2 7 -12 16 -38 21 -23 6 -32 10 -20 11 12 1 33 -3 47 -9 24 -9 29 -5 70 53 24 34 50 74 57 90 7 15 14 25 17 22 3 -2 -7 -28 -21 -57z m601 -58 c40 -54 45 -58 68 -50 14 6 35 10 47 9 12 -1 3 -5 -20 -11 -26 -5 -40 -14 -38 -21 3 -7 -18 -27 -46 -45 -41 -27 -48 -29 -39 -13 6 12 24 28 41 36 l30 16 -40 47 c-38 46 -72 103 -70 119 0 4 6 0 12 -10 7 -10 31 -45 55 -77z m-313 23 c11 -75 33 -112 90 -148 68 -44 72 -50 77 -125 3 -36 4 -59 1 -52 -3 6 -14 12 -25 12 -11 0 -51 17 -89 38 l-69 37 -62 -34 c-34 -19 -77 -37 -96 -42 l-35 -7 7 55 c4 31 9 60 12 64 3 5 31 27 63 48 63 43 85 78 96 154 4 26 11 47 15 47 4 0 11 -21 15 -47z"/>
 <path d="M687 890 c-14 -16 -30 -30 -35 -30 -8 0 -22 -22 -22 -34 0 -5 104 -27 130 -28 46 -3 93 2 87 8 -3 3 6 17 21 30 l27 25 -39 -26 c-26 -17 -53 -25 -81 -25 -46 0 -105 17 -105 30 0 20 53 70 74 70 19 0 22 -4 18 -28 -2 -18 2 -33 13 -42 15 -13 20 -12 36 8 20 25 16 54 -7 45 -8 -3 -14 0 -14 5 0 6 12 13 28 15 15 2 -3 5 -40 6 -62 1 -68 -1 -91 -29z"/>
 <path d="M1173 913 c12 -3 16 -11 12 -23 -8 -24 11 -60 30 -60 16 0 35 30 35 54 0 9 -6 13 -14 10 -8 -3 -17 -1 -21 5 -4 7 6 11 29 11 26 0 40 -7 60 -31 14 -17 26 -34 26 -39 0 -4 -17 -15 -37 -23 -45 -19 -27 -22 28 -5 27 8 39 17 39 30 0 10 -5 18 -11 18 -6 0 -22 14 -36 30 -23 28 -29 30 -91 29 -37 -1 -59 -3 -49 -6z"/>
 <path d="M1132 837 c15 -14 24 -28 21 -31 -4 -3 14 -6 38 -6 l44 1 -37 13 c-21 8 -50 21 -65 30 l-28 17 27 -24z"/>
 </g>
<g id="layer123" fill="#4a1d02" stroke="none">
 <path d="M173 1950 c8 -66 51 -160 90 -198 46 -45 113 -71 219 -85 52 -8 99 -17 105 -20 7 -4 14 -3 18 3 3 5 4 10 2 10 -35 0 -239 46 -266 60 -60 30 -107 91 -130 165 -12 37 -21 78 -21 91 0 13 -5 24 -11 24 -8 0 -10 -16 -6 -50z"/>
 <path d="M914 1975 c4 -14 0 -37 -8 -53 -7 -15 -17 -43 -21 -62 -4 -19 -16 -45 -27 -57 l-21 -22 -27 37 c-15 20 -35 44 -46 52 -16 12 -15 10 2 -10 12 -14 42 -57 67 -96 47 -74 82 -108 101 -97 6 4 5 -1 -3 -10 -7 -9 -37 -31 -67 -48 -73 -41 -97 -74 -91 -121 7 -50 -16 -41 -38 15 -19 47 -57 92 -97 113 -43 22 -44 16 -2 -15 52 -38 69 -58 89 -108 12 -29 25 -45 45 -51 24 -9 27 -14 21 -40 -4 -19 -24 -45 -56 -71 -27 -22 -53 -50 -57 -62 -5 -14 12 -2 51 33 65 60 248 188 269 188 18 0 162 -94 235 -153 64 -53 80 -48 18 5 -22 19 -43 46 -46 61 -6 24 -4 29 22 37 22 8 36 25 56 68 16 34 41 68 64 85 20 15 31 27 25 27 -24 0 -91 -73 -108 -115 -18 -48 -44 -69 -36 -29 9 47 -7 74 -66 111 -31 20 -65 43 -75 51 -17 15 -16 17 8 36 14 12 49 57 78 100 28 44 57 81 62 83 6 2 20 -16 32 -39 20 -42 113 -168 113 -154 0 4 -18 31 -40 60 -22 29 -53 76 -69 105 l-28 52 -37 -42 c-20 -23 -36 -47 -36 -53 0 -5 -10 0 -22 12 -22 20 -24 20 -81 4 l-59 -16 7 -45 c11 -73 34 -110 90 -146 68 -44 72 -50 77 -125 3 -36 4 -59 1 -52 -3 6 -14 12 -25 12 -11 0 -51 17 -89 38 l-69 37 -62 -34 c-34 -19 -77 -37 -96 -42 l-35 -7 7 55 c4 31 9 60 12 64 3 5 31 27 63 48 62 42 84 77 96 150 5 29 3 46 -5 51 -6 4 12 10 41 13 61 7 103 31 95 54 -4 9 -12 44 -18 79 l-13 64 -88 0 -89 0 6 -25z"/>
 <path d="M1810 1976 c0 -13 -9 -54 -21 -91 -38 -122 -111 -177 -274 -204 -119 -20 -121 -20 -121 -42 0 -19 1 -19 13 -3 9 12 40 21 108 30 166 23 241 73 284 189 27 72 38 145 22 145 -6 0 -11 -11 -11 -24z"/>
 <path d="M735 1841 c-3 -11 -31 -55 -61 -96 -60 -85 -72 -111 -21 -46 45 57 101 150 94 157 -3 3 -8 -4 -12 -15z"/>
 <path d="M687 890 c-14 -16 -30 -30 -35 -30 -9 0 -26 -30 -20 -35 10 -6 89 -25 104 -25 14 1 -47 29 -63 30 -10 0 1 23 23 49 14 17 36 31 47 31 18 0 22 -6 22 -32 0 -29 3 -33 25 -33 20 0 26 6 28 29 2 18 0 26 -7 21 -6 -3 -17 -3 -23 2 -9 5 -1 10 22 14 27 5 20 7 -32 8 -62 1 -68 -1 -91 -29z"/>
 <path d="M1173 913 c12 -3 17 -14 17 -38 0 -38 22 -52 45 -29 21 22 19 44 -5 44 -11 0 -20 5 -20 10 0 6 15 10 34 10 26 0 41 -7 60 -31 14 -17 26 -34 26 -39 0 -4 -17 -15 -37 -23 -45 -19 -27 -22 28 -5 27 8 39 17 39 30 0 10 -5 18 -11 18 -6 0 -22 14 -36 30 -23 28 -29 30 -91 29 -37 -1 -59 -3 -49 -6z"/>
 <path d="M855 835 c-18 -15 -43 -25 -62 -25 -18 0 -33 -5 -33 -11 0 -7 9 -9 23 -5 12 3 33 6 46 6 13 0 22 3 18 6 -3 3 6 17 21 30 36 31 25 30 -13 -1z"/>
 <path d="M1132 837 c15 -14 24 -28 21 -31 -4 -3 14 -6 38 -5 44 1 44 1 10 9 -18 4 -47 18 -65 30 l-31 21 27 -24z"/>
 </g>
<g id="layer124" fill="#2d190d" stroke="none">
 <path d="M181 1978 c-1 -15 4 -51 10 -80 31 -145 107 -206 291 -231 52 -8 99 -17 105 -20 7 -4 14 -3 18 3 3 5 4 10 2 10 -35 0 -239 46 -265 59 -78 40 -121 107 -147 226 -8 33 -14 48 -14 33z"/>
 <path d="M914 1975 c4 -14 0 -37 -8 -53 -7 -15 -17 -43 -21 -62 -4 -19 -16 -45 -27 -57 l-21 -22 -27 37 c-15 20 -35 44 -46 52 -16 12 -15 10 2 -10 12 -14 42 -57 67 -96 47 -74 82 -108 101 -97 6 4 5 -1 -3 -10 -7 -9 -37 -31 -67 -48 -73 -41 -97 -74 -91 -121 7 -50 -16 -41 -38 15 -19 47 -57 92 -97 113 -43 22 -44 16 -2 -15 52 -38 69 -58 89 -108 12 -30 25 -44 47 -52 17 -6 32 -11 33 -11 1 0 5 26 9 58 6 57 7 57 67 97 37 24 68 54 78 75 24 46 35 121 21 130 -6 4 12 10 41 13 61 7 103 31 95 54 -4 9 -12 44 -18 79 l-13 64 -88 0 -89 0 6 -25z"/>
 <path d="M1810 1976 c0 -13 -9 -54 -21 -91 -38 -122 -111 -177 -274 -204 -119 -20 -121 -20 -121 -42 0 -19 1 -19 13 -3 9 12 40 21 108 30 157 22 231 66 274 164 19 44 40 170 27 170 -3 0 -6 -11 -6 -24z"/>
 <path d="M1206 1839 c-20 -23 -36 -47 -36 -53 0 -5 -10 0 -22 12 -22 20 -24 20 -81 4 l-59 -16 7 -45 c10 -69 39 -117 89 -146 59 -35 72 -52 80 -109 3 -27 8 -51 9 -53 2 -2 17 2 33 7 23 8 37 25 57 68 16 34 41 68 64 85 20 15 31 27 25 27 -24 0 -91 -73 -108 -115 -18 -48 -44 -69 -36 -29 9 47 -7 74 -66 111 -31 20 -65 43 -75 51 -17 15 -16 17 8 36 14 12 49 57 78 100 28 44 57 81 62 83 6 2 20 -16 32 -39 20 -42 113 -168 113 -154 0 4 -18 31 -40 60 -22 29 -53 76 -69 105 l-28 52 -37 -42z"/>
 <path d="M735 1841 c-3 -11 -31 -55 -61 -96 -60 -85 -72 -111 -21 -46 45 57 101 150 94 157 -3 3 -8 -4 -12 -15z"/>
 <path d="M671 874 c-24 -25 -42 -46 -40 -47 12 -9 111 -28 116 -23 4 3 -1 6 -10 6 -21 0 -67 21 -67 31 0 18 54 69 73 69 18 0 22 -6 22 -32 0 -29 3 -33 25 -33 20 0 26 6 28 29 2 18 0 26 -7 21 -6 -3 -17 -3 -23 2 -9 5 -3 10 17 14 22 5 14 7 -30 8 -59 1 -61 0 -104 -45z"/>
 <path d="M1178 913 c6 -2 12 -20 12 -38 0 -38 22 -52 45 -29 21 22 19 44 -5 44 -11 0 -20 5 -20 10 0 6 15 10 34 10 26 0 41 -7 60 -31 14 -17 26 -34 26 -39 0 -4 -17 -15 -37 -24 -21 -10 -27 -14 -13 -11 14 3 37 8 53 11 36 9 34 19 -13 65 -37 36 -44 39 -98 38 -31 0 -51 -3 -44 -6z"/>
 <path d="M850 830 c-14 -11 -40 -20 -57 -20 -18 0 -33 -4 -33 -9 0 -17 74 2 100 26 30 28 24 30 -10 3z"/>
 <path d="M1142 826 c19 -18 37 -26 60 -25 l33 1 -32 8 c-18 4 -45 15 -60 25 l-28 17 27 -26z"/>
 </g>
<g id="layer125" fill="#11100f" stroke="none">
 <path d="M914 1975 c4 -14 0 -37 -8 -53 -7 -15 -17 -43 -21 -62 -4 -19 -16 -45 -27 -57 l-21 -22 -19 22 c-10 12 -5 -3 12 -33 34 -60 72 -100 97 -100 25 0 -1 -25 -63 -61 -73 -41 -97 -74 -91 -121 7 -50 -16 -41 -38 15 -19 47 -57 92 -97 113 -43 22 -44 16 -2 -15 52 -38 69 -58 89 -108 12 -29 25 -45 45 -51 16 -6 31 -8 34 -5 3 4 6 28 6 54 0 47 1 48 62 91 33 24 70 54 80 68 22 30 41 132 26 141 -5 3 14 9 43 12 61 7 103 31 95 54 -4 9 -12 44 -18 79 l-13 64 -88 0 -89 0 6 -25z"/>
 <path d="M190 1927 c0 -44 34 -132 66 -167 45 -50 113 -78 227 -94 51 -7 98 -16 104 -19 7 -4 14 -3 18 3 3 5 4 10 2 10 -35 0 -239 46 -265 59 -60 31 -103 84 -128 158 -13 37 -24 60 -24 50z"/>
 <path d="M1787 1879 c-34 -115 -112 -172 -272 -198 -119 -20 -121 -20 -121 -42 0 -19 1 -19 13 -3 9 12 40 21 108 30 146 20 223 62 265 144 15 30 37 130 28 130 -2 0 -11 -27 -21 -61z"/>
 <path d="M1201 1833 c-17 -21 -31 -42 -31 -47 0 -5 -10 0 -22 12 -22 20 -25 20 -80 5 -50 -14 -57 -19 -53 -37 2 -12 7 -38 10 -58 7 -46 42 -88 100 -122 53 -31 65 -51 65 -104 0 -48 5 -53 39 -41 19 7 35 26 54 67 16 34 41 68 64 85 20 15 31 27 25 27 -24 0 -91 -73 -108 -115 -18 -48 -44 -69 -36 -29 9 49 -7 72 -80 121 -79 53 -90 68 -58 78 12 4 46 44 75 90 59 91 73 104 87 84 8 -12 9 -12 6 0 -8 27 -26 22 -57 -16z"/>
 <path d="M727 1825 c-9 -19 -15 -35 -12 -35 7 0 37 61 33 66 -3 2 -12 -12 -21 -31z"/>
 <path d="M1280 1792 c11 -20 37 -55 56 -77 l36 -40 -32 45 c-18 25 -41 60 -52 78 -28 45 -34 40 -8 -6z"/>
 <path d="M693 1768 c-46 -60 -66 -91 -56 -84 13 7 77 96 70 96 -3 0 -9 -6 -14 -12z"/>
 <path d="M764 883 c1 -34 4 -38 26 -38 20 0 26 6 28 27 3 22 0 27 -12 22 -10 -4 -18 0 -22 10 -11 28 -21 17 -20 -21z"/>
 <path d="M1190 876 c0 -39 21 -53 45 -30 21 22 19 44 -5 44 -11 0 -20 5 -20 10 0 6 -4 10 -10 10 -5 0 -10 -15 -10 -34z"/>
 <path d="M656 855 c-16 -14 -27 -27 -25 -29 2 -2 22 -6 44 -10 30 -4 35 -3 18 4 -26 11 -27 14 -13 41 14 25 11 24 -24 -6z"/>
 <path d="M1319 861 c15 -27 14 -30 -11 -41 -19 -8 -16 -9 12 -4 19 4 36 7 38 9 7 6 -10 32 -29 43 -18 12 -19 11 -10 -7z"/>
 <path d="M1159 817 c8 -10 26 -17 45 -16 l31 1 -31 7 c-17 4 -37 12 -45 16 -12 8 -12 6 0 -8z"/>
 <path d="M778 803 c12 -2 30 -2 40 0 9 3 -1 5 -23 4 -22 0 -30 -2 -17 -4z"/>
 </g>

</svg>