<!DOCTYPE svg PUBLIC "-//W3C//DTD SVG 20010904//EN" "http://www.w3.org/TR/2001/REC-SVG-20010904/DTD/svg10.dtd">
<svg version="1.0" xmlns="http://www.w3.org/2000/svg" width="200px" height="200px" viewBox="0 0 2000 2000" preserveAspectRatio="xMidYMid meet">
<g id="layer101" fill="#f1d4cf" stroke="none">
 <path d="M173 1952 c9 -80 46 -161 92 -206 40 -40 42 -44 48 -121 4 -45 16 -114 27 -154 18 -64 19 -79 8 -131 -9 -46 -9 -70 1 -114 12 -53 11 -61 -16 -139 -35 -105 -37 -199 -5 -271 13 -29 22 -69 22 -100 0 -83 26 -180 62 -238 19 -29 40 -80 47 -113 35 -161 48 -177 194 -252 l112 -57 101 -2 c56 0 106 -4 112 -8 6 -3 23 -1 39 5 15 6 57 11 93 10 56 -1 71 3 100 24 19 14 41 25 49 25 26 1 130 46 172 75 39 28 99 128 99 166 0 10 4 20 9 23 13 8 40 102 55 191 8 44 23 105 34 135 17 47 20 79 20 215 0 137 -4 172 -24 240 -17 61 -21 95 -17 142 3 34 1 75 -5 93 -9 24 -8 46 2 93 8 34 17 92 21 130 l7 67 48 25 c27 14 60 39 74 57 32 43 63 124 72 187 l7 51 -833 0 -833 0 6 -48z"/>
 </g>
<g id="layer102" fill="#f6abc6" stroke="none">
 <path d="M173 1952 c9 -80 46 -161 92 -206 40 -40 42 -44 48 -121 4 -45 16 -114 27 -154 18 -64 19 -79 8 -131 -9 -46 -9 -70 1 -114 12 -53 11 -61 -16 -139 -35 -105 -37 -199 -5 -271 13 -29 22 -69 22 -100 0 -83 26 -180 62 -238 19 -29 40 -80 47 -113 35 -161 48 -177 194 -252 l112 -57 101 -2 c56 0 106 -4 112 -8 6 -3 23 -1 39 5 15 6 57 11 93 10 56 -1 71 3 100 24 19 14 41 25 49 25 26 1 130 46 172 75 39 28 99 128 99 166 0 10 4 20 9 23 13 8 40 102 55 191 8 44 23 105 34 135 17 47 20 79 20 215 0 137 -4 172 -24 240 -17 61 -21 95 -17 142 3 34 1 75 -5 93 -9 24 -8 46 2 93 8 34 17 92 21 130 l7 67 48 25 c27 14 60 39 74 57 32 43 63 124 72 187 l7 51 -833 0 -833 0 6 -48z m845 -232 c12 -68 37 -109 79 -130 38 -19 73 -51 73 -66 0 -9 -22 -3 -66 18 -80 37 -141 36 -223 -5 -30 -15 -56 -26 -58 -24 -6 7 48 67 60 67 19 1 63 43 80 75 8 17 18 52 22 78 4 26 10 47 14 47 4 0 13 -27 19 -60z m98 -295 c141 -74 243 -183 244 -262 0 -17 5 -35 10 -38 6 -3 10 -30 10 -60 0 -30 7 -84 16 -121 12 -55 13 -77 4 -114 -12 -47 -46 -110 -60 -110 -11 0 0 83 12 91 13 9 11 16 -11 38 -24 24 -34 96 -22 152 21 88 14 144 -26 219 -20 39 -38 70 -40 70 -7 0 8 -83 19 -104 14 -27 11 -113 -7 -171 -8 -27 -15 -62 -15 -77 0 -25 -4 -28 -32 -28 -59 0 -75 -9 -70 -36 5 -28 -12 -32 -27 -6 -9 16 -11 16 -25 -3 -23 -30 -18 -42 17 -36 4 0 7 -4 7 -10 0 -6 7 -8 16 -5 8 3 13 2 10 -3 -9 -15 52 -34 87 -27 23 4 28 3 17 -4 -9 -5 -10 -10 -3 -10 7 0 9 -9 4 -28 -7 -24 -12 -27 -47 -24 -21 2 -56 12 -77 23 -45 23 -47 23 -47 4 0 -19 34 -36 99 -49 l53 -11 -61 -75 c-61 -75 -111 -163 -111 -196 0 -14 -7 -12 -32 13 -29 27 -134 83 -157 83 -20 0 -147 78 -180 110 -40 39 -68 86 -58 97 4 3 30 -1 58 -10 28 -10 71 -17 96 -17 42 0 115 28 128 51 13 21 -2 19 -51 -7 -44 -22 -57 -24 -118 -19 -97 9 -116 18 -116 54 0 39 9 43 61 28 25 -8 50 -12 58 -9 8 3 11 0 7 -6 -6 -11 13 -8 72 10 19 6 29 14 26 20 -4 6 -2 8 4 4 6 -3 22 -2 37 4 22 8 24 13 15 30 -6 11 -8 25 -5 30 3 6 -1 7 -9 4 -9 -3 -16 -10 -16 -15 0 -5 -7 -9 -16 -9 -11 0 -15 6 -11 20 4 16 -2 20 -39 26 -65 9 -109 -2 -138 -37 l-26 -31 0 29 c0 15 -7 41 -15 57 -23 44 -18 82 16 129 32 44 31 37 16 157 -2 14 4 38 12 53 21 39 125 120 206 163 90 46 140 46 231 -1z m-406 -575 c0 -31 -16 -41 -26 -15 -5 13 11 45 22 45 2 0 4 -13 4 -30z"/>
 <path d="M934 1291 c-45 -27 -47 -36 -17 -56 35 -23 134 -24 168 -1 31 20 26 30 -25 56 -49 25 -86 25 -126 1z"/>
 <path d="M952 1128 c-22 -22 -12 -28 48 -28 61 0 76 11 41 30 -26 14 -74 13 -89 -2z"/>
 </g>
<g id="layer103" fill="#e5b6af" stroke="none">
 <path d="M173 1952 c9 -80 46 -161 92 -206 40 -40 42 -44 48 -121 4 -45 16 -114 27 -154 18 -64 19 -79 8 -131 -9 -46 -9 -70 1 -114 12 -53 11 -61 -16 -139 -35 -105 -37 -199 -5 -271 13 -29 22 -69 22 -100 0 -83 26 -180 62 -238 19 -29 40 -80 47 -113 35 -161 48 -177 194 -252 l112 -57 101 -2 c56 0 106 -4 112 -8 6 -3 23 -1 39 5 15 6 57 11 93 10 56 -1 71 3 100 24 19 14 41 25 49 25 26 1 130 46 172 75 39 28 99 128 99 166 0 10 4 20 9 23 13 8 40 102 55 191 8 44 23 105 34 135 17 47 20 79 20 215 0 137 -4 172 -24 240 -17 61 -21 95 -17 142 3 34 1 75 -5 93 -9 24 -8 46 2 93 8 34 17 92 21 130 l7 67 48 25 c27 14 60 39 74 57 32 43 63 124 72 187 l7 51 -833 0 -833 0 6 -48z m845 -232 c12 -68 37 -109 79 -130 38 -19 73 -51 73 -66 0 -9 -22 -3 -66 18 -80 37 -141 36 -223 -5 -30 -15 -56 -26 -58 -24 -6 7 48 67 60 67 19 1 63 43 80 75 8 17 18 52 22 78 4 26 10 47 14 47 4 0 13 -27 19 -60z m98 -295 c141 -74 243 -183 244 -262 0 -17 5 -35 10 -38 6 -3 10 -30 10 -60 0 -30 7 -84 16 -121 12 -55 13 -77 4 -114 -12 -47 -46 -110 -60 -110 -11 0 0 83 12 91 13 9 11 16 -11 38 -24 24 -34 96 -22 152 21 88 14 144 -26 219 -20 39 -38 70 -40 70 -7 0 8 -83 19 -104 14 -27 11 -113 -7 -171 -8 -27 -15 -62 -15 -77 0 -25 -4 -28 -32 -28 -59 0 -75 -9 -70 -36 5 -28 -12 -32 -27 -6 -9 16 -11 16 -25 -3 -23 -30 -18 -42 17 -36 4 0 7 -4 7 -10 0 -6 7 -8 16 -5 8 3 13 2 10 -3 -9 -15 52 -34 87 -27 23 4 28 3 17 -4 -9 -5 -10 -10 -3 -10 7 0 9 -9 4 -28 -7 -24 -12 -27 -47 -24 -21 2 -56 12 -77 23 -45 23 -47 23 -47 4 0 -19 34 -36 99 -49 l53 -11 -61 -75 c-61 -75 -111 -163 -111 -196 0 -14 -7 -12 -32 13 -29 27 -134 83 -157 83 -20 0 -147 78 -180 110 -40 39 -68 86 -58 97 4 3 30 -1 58 -10 28 -10 71 -17 96 -17 42 0 115 28 128 51 13 21 -2 19 -51 -7 -44 -22 -57 -24 -118 -19 -97 9 -116 18 -116 54 0 39 9 43 61 28 25 -8 50 -12 58 -9 8 3 11 0 7 -6 -6 -11 13 -8 72 10 19 6 29 14 26 20 -4 6 -2 8 4 4 6 -3 22 -2 37 4 22 8 24 13 15 30 -6 11 -8 25 -5 30 3 6 -1 7 -9 4 -9 -3 -16 -10 -16 -15 0 -5 -7 -9 -16 -9 -11 0 -15 6 -11 20 4 16 -2 20 -39 26 -65 9 -109 -2 -138 -37 l-26 -31 0 29 c0 15 -7 41 -15 57 -23 44 -18 82 16 129 32 44 31 37 16 157 -2 14 4 38 12 53 21 39 125 120 206 163 90 46 140 46 231 -1z m-406 -575 c0 -31 -16 -41 -26 -15 -5 13 11 45 22 45 2 0 4 -13 4 -30z"/>
 <path d="M927 1281 c-33 -25 -36 -31 -21 -39 10 -6 32 -6 55 -1 22 5 56 5 78 0 23 -5 45 -5 55 1 15 9 14 11 -6 26 -70 51 -106 54 -161 13z m133 -6 c23 -13 19 -14 -60 -14 -77 0 -83 1 -66 14 25 19 93 19 126 0z"/>
 <path d="M952 1128 c-22 -22 -12 -28 48 -28 61 0 76 11 41 30 -26 14 -74 13 -89 -2z"/>
 </g>
<g id="layer104" fill="#dba29f" stroke="none">
 <path d="M173 1952 c9 -80 46 -161 92 -206 40 -40 42 -44 48 -121 4 -45 16 -114 27 -154 18 -64 19 -79 8 -131 -9 -46 -9 -70 1 -114 12 -53 11 -61 -16 -139 -35 -105 -37 -199 -5 -271 13 -29 22 -69 22 -100 0 -83 26 -180 62 -238 19 -29 40 -80 47 -113 35 -161 48 -177 194 -252 l112 -57 101 -2 c56 0 106 -4 112 -8 6 -3 23 -1 39 5 15 6 57 11 93 10 56 -1 71 3 100 24 19 14 41 25 49 25 26 1 130 46 172 75 39 28 99 128 99 166 0 10 4 20 9 23 13 8 40 102 55 191 8 44 23 105 34 135 17 47 20 79 20 215 0 137 -4 172 -24 240 -17 61 -21 95 -17 142 3 34 1 75 -5 93 -9 24 -8 46 2 93 8 34 17 92 21 130 l7 67 48 25 c27 14 60 39 74 57 32 43 63 124 72 187 l7 51 -833 0 -833 0 6 -48z m842 -219 c10 -73 32 -109 82 -139 55 -32 83 -59 83 -79 0 -14 -3 -14 -30 0 -41 21 -259 21 -300 0 -71 -37 -16 39 58 81 40 22 67 71 77 137 4 26 11 47 15 47 4 0 11 -21 15 -47z m90 -303 c73 -33 173 -107 209 -154 42 -56 66 -122 66 -184 0 -30 7 -93 16 -139 14 -77 14 -88 -1 -141 -16 -56 -39 -92 -57 -92 -12 0 1 83 14 91 13 8 11 16 -11 38 -24 24 -34 96 -22 152 20 86 14 138 -26 218 -41 84 -53 81 -28 -6 21 -70 21 -131 0 -198 -8 -28 -15 -62 -15 -76 0 -24 -4 -27 -50 -33 -45 -6 -50 -9 -50 -31 0 -29 -15 -33 -29 -8 -5 10 -12 15 -16 12 -10 -11 29 -64 50 -67 11 -2 24 -8 30 -13 5 -5 24 -9 43 -9 33 0 33 -1 27 -32 -4 -18 -10 -37 -14 -41 -10 -11 -96 9 -127 30 -31 20 -43 10 -19 -17 10 -11 43 -25 76 -32 33 -7 59 -15 59 -19 0 -3 -27 -37 -60 -74 -58 -66 -110 -156 -110 -191 0 -14 -7 -12 -32 13 -29 27 -113 73 -134 73 -21 0 -145 68 -186 103 -46 37 -87 101 -75 114 4 3 26 0 49 -7 75 -22 127 -23 173 -6 42 16 73 41 63 51 -3 3 -27 -6 -54 -20 -54 -27 -110 -31 -184 -12 -43 11 -45 14 -45 47 0 29 3 35 20 32 94 -13 142 -13 169 2 16 8 32 13 36 11 9 -6 43 55 35 63 -3 4 -11 -1 -16 -11 -14 -24 -29 -21 -29 7 0 26 -21 36 -78 36 -41 0 -70 -14 -99 -49 l-22 -26 -1 30 c0 17 -7 43 -15 59 -23 43 -18 83 15 131 34 49 38 90 14 136 -14 28 -14 32 6 64 59 96 275 225 350 208 14 -3 52 -17 85 -33z m-395 -580 c0 -31 -16 -41 -26 -15 -5 13 11 45 22 45 2 0 4 -13 4 -30z m509 -290 c-31 -38 -39 -46 -39 -35 0 6 61 75 67 75 2 0 -11 -18 -28 -40z"/>
 <path d="M962 1299 c-13 -5 -35 -18 -48 -28 -22 -18 -23 -21 -8 -29 10 -6 32 -6 55 -1 22 5 56 5 78 0 23 -5 45 -5 55 1 15 9 15 11 -6 27 -21 16 -83 42 -97 40 -3 0 -17 -4 -29 -10z m98 -24 c23 -13 19 -14 -60 -14 -77 0 -83 1 -66 14 25 19 93 19 126 0z"/>
 <path d="M948 1108 c9 -9 15 -9 24 0 9 9 7 12 -12 12 -19 0 -21 -3 -12 -12z"/>
 <path d="M1020 1110 c0 -5 6 -10 14 -10 8 0 18 5 21 10 3 6 -3 10 -14 10 -12 0 -21 -4 -21 -10z"/>
 </g>
<g id="layer105" fill="#d27a8e" stroke="none">
 <path d="M173 1952 c9 -80 46 -161 92 -206 40 -40 42 -44 48 -121 4 -45 16 -114 27 -154 18 -64 19 -79 8 -131 -9 -46 -9 -70 1 -114 12 -53 11 -61 -16 -139 -35 -105 -37 -199 -5 -271 13 -29 22 -69 22 -100 0 -83 26 -180 62 -238 19 -29 40 -80 47 -113 35 -161 48 -177 194 -252 l112 -57 101 -2 c56 0 106 -4 112 -8 6 -3 23 -1 39 5 15 6 57 11 93 10 56 -1 71 3 100 24 19 14 41 25 49 25 26 1 130 46 172 75 39 28 99 128 99 166 0 10 4 20 9 23 13 8 40 102 55 191 8 44 23 105 34 135 17 47 20 79 20 215 0 137 -4 172 -24 240 -17 61 -21 95 -17 142 3 34 1 75 -5 93 -9 24 -8 46 2 93 8 34 17 92 21 130 l7 67 48 25 c27 14 60 39 74 57 32 43 63 124 72 187 l7 51 -833 0 -833 0 6 -48z m842 -221 c9 -67 34 -103 104 -151 59 -40 61 -42 61 -85 0 -44 0 -45 -34 -45 -18 0 -50 7 -69 15 -43 18 -104 19 -144 4 -15 -6 -48 -14 -73 -18 l-45 -7 0 45 c0 44 2 46 60 86 73 50 101 90 110 155 4 28 11 50 15 50 4 0 11 -22 15 -49z m35 -271 c20 -5 60 -25 90 -43 30 -18 66 -40 79 -48 38 -23 104 -97 134 -152 22 -41 27 -63 27 -121 0 -39 7 -98 15 -131 19 -78 18 -104 -1 -162 -16 -49 -40 -83 -56 -83 -12 0 1 83 14 91 13 8 11 16 -11 38 -24 24 -34 96 -22 152 20 85 14 138 -25 217 -20 40 -39 71 -41 68 -3 -3 4 -44 16 -91 l22 -85 -20 -75 c-12 -41 -21 -86 -21 -100 0 -20 -5 -25 -24 -25 -42 0 -76 -18 -76 -40 0 -23 -10 -26 -28 -8 -7 7 -12 8 -12 2 0 -27 80 -74 125 -74 26 0 30 -14 18 -59 -5 -20 -10 -23 -44 -18 -21 3 -52 12 -70 21 -18 9 -39 16 -47 16 -12 0 -12 -4 3 -20 10 -11 43 -25 76 -32 33 -7 59 -15 59 -19 0 -3 -27 -37 -60 -74 -58 -65 -110 -156 -110 -190 0 -12 -10 -8 -39 17 -22 18 -68 44 -103 57 -152 59 -251 126 -277 190 -7 15 -11 50 -9 77 3 42 6 49 23 46 102 -13 127 -14 157 -2 37 15 78 48 78 64 0 6 -5 5 -12 -2 -18 -18 -28 -15 -28 8 0 24 -29 40 -74 40 -46 0 -82 -17 -102 -49 l-17 -25 -14 50 c-28 96 -27 116 6 169 36 57 39 95 10 141 -19 32 -19 34 -2 52 10 10 36 38 59 63 23 24 52 50 65 58 13 8 45 28 70 44 85 52 136 65 199 47z m-340 -610 c0 -31 -16 -41 -26 -15 -5 13 11 45 22 45 2 0 4 -13 4 -30z m621 -158 c-5 -9 -19 -26 -31 -37 -22 -19 -22 -19 1 17 24 37 48 53 30 20z m-112 -132 c-31 -38 -39 -46 -39 -35 0 6 61 75 67 75 2 0 -11 -18 -28 -40z"/>
 <path d="M961 1296 c2 -2 26 -6 53 -9 30 -3 43 -1 35 4 -13 8 -97 13 -88 5z"/>
 <path d="M899 1251 c16 -10 196 -9 207 2 4 4 -44 7 -107 7 -68 0 -108 -4 -100 -9z"/>
 <path d="M855 729 c-39 -19 -115 -21 -195 -4 -14 2 -5 -2 20 -10 77 -26 126 -29 174 -11 46 18 81 47 55 45 -8 0 -32 -9 -54 -20z"/>
 </g>
<g id="layer106" fill="#606da3" stroke="none">
 <path d="M175 1956 c3 -70 43 -165 90 -211 40 -39 42 -43 48 -120 4 -45 16 -114 27 -154 18 -64 19 -79 8 -131 -9 -46 -9 -70 1 -114 12 -53 11 -61 -16 -139 -35 -105 -37 -199 -5 -271 13 -29 22 -69 22 -100 0 -83 26 -180 62 -238 19 -29 40 -80 47 -113 35 -161 48 -177 194 -252 l112 -57 101 -2 c56 0 106 -4 112 -8 6 -3 23 -1 39 5 15 6 57 11 93 10 56 -1 71 3 100 24 19 14 41 25 49 25 26 1 130 46 172 75 39 28 99 128 99 166 0 10 4 20 9 23 13 8 40 102 55 191 8 44 23 105 34 135 17 47 20 79 20 215 0 137 -4 172 -24 240 -17 61 -21 95 -17 142 3 34 1 75 -5 93 -9 24 -8 46 2 93 8 34 17 92 21 130 l7 67 48 25 c27 14 61 40 75 60 32 41 78 181 70 213 l-5 22 -823 0 -823 0 1 -44z m840 -225 c9 -67 34 -103 104 -151 49 -33 61 -46 61 -68 0 -15 6 -49 13 -75 10 -38 22 -56 59 -85 99 -80 128 -135 128 -249 0 -43 7 -105 15 -138 19 -78 18 -104 -1 -162 -16 -49 -40 -83 -56 -83 -12 0 1 83 14 91 13 8 11 16 -11 38 -24 24 -34 96 -22 152 20 85 14 138 -25 217 -20 40 -39 71 -41 68 -3 -3 4 -44 16 -91 l22 -85 -20 -75 c-12 -41 -21 -86 -21 -100 0 -20 -5 -25 -24 -25 -42 0 -76 -18 -76 -40 0 -23 -10 -26 -28 -8 -7 7 -12 8 -12 2 0 -27 80 -74 125 -74 26 0 30 -14 18 -59 -5 -20 -10 -23 -44 -18 -21 3 -52 12 -70 21 -18 9 -39 16 -47 16 -12 0 -12 -4 3 -20 10 -11 43 -25 76 -32 33 -7 59 -15 59 -19 0 -3 -27 -37 -60 -74 -58 -65 -110 -156 -110 -190 0 -12 -10 -8 -39 17 -22 18 -68 44 -103 57 -152 59 -251 126 -277 190 -7 15 -11 50 -9 77 3 42 6 49 23 46 102 -13 127 -14 157 -2 37 15 78 48 78 64 0 6 -5 5 -12 -2 -18 -18 -28 -15 -28 8 0 24 -29 40 -74 40 -46 0 -82 -17 -102 -49 l-17 -25 -14 50 c-28 96 -27 116 6 169 36 57 39 95 10 142 l-21 34 28 40 c15 23 52 60 81 82 54 43 56 47 65 152 2 24 15 38 63 70 73 50 101 89 110 155 4 28 11 50 15 50 4 0 11 -22 15 -49z m-305 -881 c0 -31 -16 -41 -26 -15 -5 13 11 45 22 45 2 0 4 -13 4 -30z m621 -158 c-5 -9 -19 -26 -31 -37 -22 -19 -22 -19 1 17 24 37 48 53 30 20z m-112 -132 c-31 -38 -39 -46 -39 -35 0 6 61 75 67 75 2 0 -11 -18 -28 -40z"/>
 <path d="M855 729 c-39 -19 -115 -21 -195 -4 -14 2 -5 -2 20 -10 77 -26 126 -29 174 -11 46 18 81 47 55 45 -8 0 -32 -9 -54 -20z"/>
 </g>
<g id="layer107" fill="#695c61" stroke="none">
 <path d="M175 1956 c3 -70 43 -165 90 -211 40 -39 42 -43 48 -120 4 -45 16 -114 27 -154 18 -64 19 -79 8 -131 -9 -46 -9 -70 1 -114 12 -53 11 -61 -16 -139 -35 -105 -37 -199 -5 -271 13 -29 22 -69 22 -100 0 -83 26 -180 62 -238 19 -29 40 -80 47 -113 35 -161 48 -177 194 -252 l112 -57 101 -2 c56 0 106 -4 112 -8 6 -3 23 -1 39 5 15 6 57 11 93 10 56 -1 71 3 100 24 19 14 41 25 49 25 26 1 130 46 172 75 39 28 99 128 99 166 0 10 4 20 9 23 13 8 40 102 55 191 8 44 23 105 34 135 17 47 20 79 20 215 0 137 -4 172 -24 240 -17 61 -21 95 -17 142 3 34 1 75 -5 93 -9 24 -8 46 2 93 8 34 17 92 21 130 l7 67 48 25 c27 14 61 40 75 60 32 41 78 181 70 213 l-5 22 -823 0 -823 0 1 -44z m840 -225 c9 -67 34 -103 104 -151 49 -33 61 -46 61 -68 0 -15 6 -49 13 -75 10 -38 22 -56 59 -85 99 -80 128 -135 128 -249 0 -43 7 -105 15 -138 19 -78 18 -104 -1 -162 -16 -49 -40 -83 -56 -83 -12 0 1 83 14 91 13 8 11 16 -11 38 -24 24 -34 96 -22 152 20 85 14 138 -25 217 -20 40 -39 71 -41 68 -3 -3 4 -44 16 -91 l22 -85 -20 -75 c-12 -41 -21 -86 -21 -100 0 -21 -5 -25 -32 -27 l-33 -1 31 -4 c23 -3 34 -11 38 -26 10 -37 7 -57 -9 -57 -13 0 -13 3 -3 20 10 16 10 23 -4 36 -14 14 -20 15 -32 4 -9 -7 -16 -18 -16 -26 0 -16 -43 -12 -64 6 -25 20 -19 -4 7 -26 28 -26 71 -44 102 -44 26 0 30 -14 18 -59 -5 -20 -10 -23 -44 -18 -21 3 -52 12 -70 21 -18 9 -39 16 -47 16 -12 0 -12 -4 3 -20 10 -11 43 -25 76 -32 33 -7 59 -15 59 -19 0 -3 -27 -37 -60 -74 -58 -65 -110 -156 -110 -190 0 -12 -10 -8 -39 17 -22 18 -68 44 -103 57 -152 59 -251 126 -277 190 -7 15 -11 50 -9 77 3 42 6 49 23 46 102 -13 127 -14 157 -2 37 15 78 48 78 63 0 6 -9 2 -20 -8 -11 -10 -20 -15 -20 -11 0 4 -7 0 -16 -8 -8 -9 -22 -16 -30 -16 -11 0 -12 4 -2 19 9 15 9 23 -1 35 -18 21 -55 2 -48 -24 3 -14 -3 -19 -25 -24 -34 -7 -48 -1 -48 18 0 23 37 47 87 56 36 6 40 8 17 9 -46 2 -91 -17 -110 -47 l-17 -26 -14 50 c-28 96 -27 116 6 169 36 57 39 95 10 142 l-21 34 28 40 c15 23 52 60 81 82 54 43 56 47 65 152 2 24 15 38 63 70 73 50 101 89 110 155 4 28 11 50 15 50 4 0 11 -22 15 -49z m316 -1039 c-5 -9 -19 -26 -31 -37 -22 -19 -22 -19 1 17 24 37 48 53 30 20z m-112 -132 c-31 -38 -39 -46 -39 -35 0 6 61 75 67 75 2 0 -11 -18 -28 -40z"/>
 <path d="M855 729 c-39 -19 -115 -21 -195 -4 -14 2 -5 -2 20 -10 77 -26 126 -29 174 -11 46 18 81 47 55 45 -8 0 -32 -9 -54 -20z"/>
 </g>
<g id="layer108" fill="#3e4c82" stroke="none">
 <path d="M175 1977 c1 -13 4 -28 8 -34 4 -6 4 -18 1 -27 -3 -9 -2 -22 3 -29 5 -6 15 -32 22 -56 8 -27 28 -58 55 -85 41 -40 43 -43 49 -121 4 -45 16 -114 27 -154 18 -64 19 -79 8 -131 -9 -46 -9 -70 1 -114 12 -53 11 -61 -16 -139 -35 -105 -37 -199 -5 -271 13 -29 22 -69 22 -100 0 -83 26 -180 62 -238 19 -29 40 -80 47 -113 35 -161 48 -177 194 -252 l112 -57 101 -2 c56 0 106 -4 112 -8 6 -3 23 -1 39 5 15 6 57 11 93 10 56 -1 71 3 100 24 19 14 41 25 49 25 26 1 130 46 172 75 39 28 99 128 99 166 0 10 4 20 9 23 13 8 40 102 55 191 8 44 23 105 34 135 17 47 20 79 20 215 0 137 -4 172 -24 240 -17 61 -21 95 -17 142 3 34 1 75 -5 93 -9 24 -8 46 2 93 8 34 17 92 21 130 l7 67 48 25 c27 14 60 40 74 58 30 39 56 108 56 146 0 15 5 32 11 38 6 6 8 20 4 32 l-6 21 -823 0 -822 0 1 -23z m839 -213 c3 -9 6 -30 6 -47 0 -47 32 -91 97 -134 l58 -39 14 -77 c13 -74 15 -79 56 -107 96 -66 134 -139 135 -255 0 -45 7 -108 16 -140 31 -118 6 -193 -107 -324 -36 -42 -80 -96 -97 -120 -18 -24 -32 -40 -32 -35 0 17 36 69 87 124 71 79 83 100 83 143 0 21 7 49 16 62 15 23 15 25 1 25 -25 0 -41 74 -31 145 17 123 11 175 -25 235 -35 60 -36 60 -11 -68 9 -46 9 -70 1 -90 -19 -48 -38 -157 -30 -177 4 -11 8 -32 8 -47 1 -21 -4 -28 -18 -28 -22 0 -22 27 0 40 12 8 11 12 -3 26 -14 14 -20 15 -32 4 -9 -7 -16 -18 -16 -26 0 -17 -60 -10 -71 8 -5 7 -9 8 -9 2 0 -22 47 -54 98 -65 54 -13 58 -19 46 -66 -8 -30 -52 -31 -111 -2 -23 11 -49 19 -55 16 -21 -7 69 -47 112 -50 22 -1 40 -5 40 -8 0 -3 -22 -31 -49 -62 -82 -93 -99 -120 -117 -178 l-17 -56 -40 39 c-22 21 -44 38 -49 38 -6 0 -24 6 -41 14 -18 7 -52 22 -77 32 -95 39 -177 102 -207 158 -15 30 -20 100 -8 137 6 19 9 20 16 6 13 -22 90 -32 147 -17 45 11 92 43 92 62 0 5 -7 2 -16 -6 -8 -9 -19 -14 -24 -11 -4 3 -10 -2 -14 -10 -6 -17 -41 -20 -51 -6 -3 6 2 14 12 19 14 9 15 13 4 26 -18 22 -55 2 -48 -25 4 -14 0 -19 -14 -19 -10 0 -19 -4 -19 -9 0 -5 -9 -7 -20 -4 -28 7 -25 38 6 62 15 12 22 21 15 21 -14 0 -51 -36 -51 -50 0 -5 -7 -10 -15 -10 -10 0 -15 10 -15 34 0 18 -6 48 -14 67 -16 37 -9 73 24 119 33 46 36 92 10 135 l-22 36 28 40 c15 23 49 57 74 77 25 20 49 39 53 43 5 3 11 37 15 75 l7 69 60 40 c70 48 105 95 105 141 0 37 8 64 20 64 4 0 11 -7 14 -16z m-417 -636 c-2 -13 -4 -3 -4 22 0 25 2 35 4 23 2 -13 2 -33 0 -45z m-110 -150 c-2 -13 -4 -5 -4 17 -1 22 1 32 4 23 2 -10 2 -28 0 -40z m-130 -65 c-2 -16 -4 -5 -4 22 0 28 2 40 4 28 2 -13 2 -35 0 -50z m1195 -250 c-29 -45 -69 -87 -137 -143 -16 -14 9 16 56 66 48 50 90 101 94 113 4 12 9 20 12 17 3 -3 -8 -27 -25 -53z"/>
 <path d="M855 728 c-33 -17 -51 -20 -110 -15 -75 6 -62 -6 20 -18 38 -6 56 -3 96 15 27 13 49 27 49 32 0 12 -11 9 -55 -14z"/>
 </g>
<g id="layer109" fill="#504544" stroke="none">
 <path d="M175 1977 c1 -13 4 -28 8 -34 4 -6 4 -18 1 -27 -3 -9 -2 -22 3 -29 5 -6 15 -32 22 -56 8 -27 28 -58 55 -85 41 -40 43 -43 49 -121 4 -45 16 -114 27 -154 18 -64 19 -79 8 -131 -9 -46 -9 -70 1 -114 12 -53 11 -61 -16 -139 -35 -105 -37 -199 -5 -271 13 -29 22 -69 22 -100 0 -83 26 -180 62 -238 19 -29 40 -80 47 -113 35 -161 48 -177 194 -252 l112 -57 101 -2 c56 0 106 -4 112 -8 6 -3 23 -1 39 5 15 6 57 11 93 10 56 -1 71 3 100 24 19 14 41 25 49 25 26 1 130 46 172 75 39 28 99 128 99 166 0 10 4 20 9 23 13 8 40 102 55 191 8 44 23 105 34 135 17 47 20 79 20 215 0 137 -4 172 -24 240 -17 61 -21 95 -17 142 3 34 1 75 -5 93 -9 24 -8 46 2 93 8 34 17 92 21 130 l7 67 48 25 c27 14 60 40 74 58 30 39 56 108 56 146 0 15 5 32 11 38 6 6 8 20 4 32 l-6 21 -823 0 -822 0 1 -23z m839 -213 c3 -9 6 -30 6 -47 0 -47 32 -91 97 -134 l58 -39 14 -77 c13 -74 15 -79 56 -107 96 -66 134 -139 135 -255 0 -45 7 -108 16 -140 31 -118 6 -193 -107 -324 -36 -42 -80 -96 -97 -120 -18 -24 -32 -40 -32 -35 0 17 36 69 87 124 71 79 83 100 83 143 0 21 7 49 16 62 15 23 15 25 1 25 -25 0 -41 74 -31 145 17 123 11 175 -25 235 -35 60 -36 60 -11 -68 9 -46 9 -70 1 -90 -18 -46 -39 -162 -30 -168 5 -3 9 -23 9 -46 l0 -40 -37 7 c-42 8 -94 32 -105 49 -5 8 -8 8 -8 0 0 -22 47 -54 98 -65 54 -13 58 -19 46 -66 -8 -30 -52 -31 -111 -2 -23 11 -49 19 -55 16 -21 -7 69 -47 112 -50 22 -1 40 -5 40 -8 0 -3 -22 -31 -49 -62 -82 -93 -99 -120 -117 -178 l-17 -56 -40 39 c-22 21 -44 38 -49 38 -6 0 -24 6 -41 14 -18 7 -52 22 -77 32 -95 39 -177 102 -207 158 -15 30 -20 100 -8 137 6 19 9 20 16 6 13 -22 90 -32 147 -17 46 11 92 43 92 64 0 7 -3 8 -8 1 -26 -37 -86 -52 -184 -46 -27 2 -22 37 8 60 15 12 22 21 15 21 -14 0 -51 -36 -51 -50 0 -5 -7 -10 -15 -10 -10 0 -15 10 -15 34 0 18 -6 48 -14 67 -16 37 -9 73 24 119 33 46 36 92 10 135 l-22 36 28 40 c15 23 49 57 74 77 25 20 49 39 53 43 5 3 11 37 15 75 l7 69 60 40 c70 48 105 95 105 141 0 37 8 64 20 64 4 0 11 -7 14 -16z m-417 -636 c-2 -13 -4 -3 -4 22 0 25 2 35 4 23 2 -13 2 -33 0 -45z m-110 -150 c-2 -13 -4 -5 -4 17 -1 22 1 32 4 23 2 -10 2 -28 0 -40z m-130 -65 c-2 -16 -4 -5 -4 22 0 28 2 40 4 28 2 -13 2 -35 0 -50z m1195 -250 c-29 -45 -69 -87 -137 -143 -16 -14 9 16 56 66 48 50 90 101 94 113 4 12 9 20 12 17 3 -3 -8 -27 -25 -53z"/>
 <path d="M757 867 c-3 -8 -2 -19 3 -26 6 -10 12 -10 29 1 11 7 20 17 18 23 -5 16 -44 18 -50 2z"/>
 <path d="M1194 865 c-10 -26 10 -39 35 -23 25 16 22 32 -7 36 -13 2 -25 -3 -28 -13z"/>
 <path d="M855 728 c-33 -17 -51 -20 -110 -15 -75 6 -62 -6 20 -18 38 -6 56 -3 96 15 27 13 49 27 49 32 0 12 -11 9 -55 -14z"/>
 </g>
<g id="layer110" fill="#643d37" stroke="none">
 <path d="M175 1977 c1 -13 4 -28 8 -34 4 -6 4 -18 1 -27 -3 -9 -2 -22 3 -29 5 -6 15 -32 22 -56 8 -27 28 -58 55 -85 41 -40 43 -43 49 -121 4 -45 16 -114 27 -154 18 -64 19 -79 8 -131 -9 -46 -9 -70 1 -114 12 -53 11 -61 -16 -139 -35 -105 -37 -199 -5 -271 13 -29 22 -69 22 -100 0 -83 26 -180 62 -238 19 -29 40 -80 47 -113 35 -161 48 -177 194 -252 l112 -57 101 -2 c56 0 106 -4 112 -8 6 -3 23 -1 39 5 15 6 57 11 93 10 56 -1 71 3 100 24 19 14 41 25 49 25 26 1 130 46 172 75 39 28 99 128 99 166 0 10 4 20 9 23 13 8 40 102 55 191 8 44 23 105 34 135 17 47 20 79 20 215 0 137 -4 172 -24 240 -17 61 -21 95 -17 142 3 34 1 75 -5 93 -9 24 -8 46 2 93 8 34 17 92 21 130 l7 67 48 25 c27 14 60 40 74 58 30 39 56 108 56 146 0 15 5 32 11 38 6 6 8 20 4 32 -6 20 -13 21 -144 21 l-138 0 -7 -47 c-7 -41 -23 -275 -29 -398 -1 -28 9 -63 36 -119 42 -89 45 -114 18 -188 -41 -110 -38 -151 25 -311 31 -80 36 -100 31 -152 -9 -120 -73 -214 -224 -328 -48 -37 -110 -95 -138 -129 -27 -35 -64 -77 -82 -95 -17 -18 -27 -33 -21 -33 42 0 235 167 328 284 24 30 46 53 49 51 2 -3 -10 -34 -28 -69 -21 -42 -51 -82 -89 -117 -31 -29 -46 -47 -33 -40 40 22 111 92 136 136 13 22 29 64 35 93 14 61 35 84 24 25 -19 -108 -82 -230 -150 -293 -49 -45 -154 -100 -194 -101 -14 0 -34 -5 -45 -10 -14 -6 1 -8 50 -6 78 4 131 26 205 85 l45 36 -34 -36 c-66 -71 -236 -134 -338 -126 -30 3 -48 1 -41 -3 7 -5 38 -9 68 -9 39 0 51 -3 40 -10 -8 -5 -36 -7 -62 -4 -33 5 -60 1 -88 -10 -52 -21 -86 -21 -48 0 36 19 36 27 1 12 -42 -17 -191 -14 -233 4 -35 15 -34 15 60 16 56 1 114 7 140 16 25 9 32 13 15 10 -16 -3 -74 -5 -130 -5 -165 1 -277 41 -321 117 -13 22 -24 44 -24 48 0 5 25 -15 55 -42 33 -30 78 -59 113 -73 64 -25 194 -36 257 -22 33 8 24 9 -55 10 -156 1 -268 55 -345 168 -36 51 -39 61 -46 155 -10 125 -8 121 -76 262 -69 145 -72 189 -25 343 41 132 47 186 30 260 -10 42 -11 70 -5 89 6 19 4 64 -8 144 -20 129 -24 255 -12 350 l8 62 -103 0 c-102 0 -104 0 -103 -23z"/>
 <path d="M406 1984 c-12 -31 -6 -328 8 -386 9 -39 11 -74 5 -110 -6 -33 -4 -77 2 -117 15 -82 7 -168 -27 -326 l-28 -126 48 -91 c44 -84 49 -101 57 -192 12 -121 31 -167 95 -227 99 -91 197 -130 328 -128 l81 1 -89 14 c-152 23 -287 104 -346 207 -29 50 -30 56 -28 152 3 96 1 104 -35 191 -20 51 -37 105 -37 122 0 17 14 64 30 105 36 90 36 103 9 210 -18 70 -21 98 -15 188 5 92 3 116 -15 175 -22 71 -22 104 -3 292 6 58 5 62 -14 62 -11 0 -23 -7 -26 -16z"/>
 <path d="M485 1988 c-9 -30 -12 -251 -4 -344 5 -56 18 -131 29 -168 20 -64 20 -69 5 -125 -15 -53 -15 -62 0 -112 15 -50 15 -61 -1 -150 -15 -90 -15 -100 0 -145 11 -33 16 -82 16 -162 0 -138 8 -159 95 -241 100 -93 224 -152 314 -150 33 0 30 2 -31 24 -161 56 -296 161 -333 258 -18 46 -18 52 -1 121 17 71 17 75 -3 134 -25 74 -26 94 -5 156 12 35 14 62 9 99 -8 54 -9 112 -4 207 4 84 -21 279 -42 333 -21 52 -24 112 -10 167 5 19 12 52 16 73 6 35 4 37 -20 37 -14 0 -27 -6 -30 -12z"/>
 <path d="M575 1878 c4 -68 9 -177 10 -243 2 -66 6 -143 10 -170 5 -35 2 -67 -8 -103 -9 -29 -15 -58 -13 -65 2 -7 14 -44 27 -83 l23 -71 -22 -60 c-25 -68 -27 -111 -10 -159 9 -26 9 -53 0 -120 -11 -80 -10 -91 9 -133 38 -86 85 -121 264 -193 129 -52 194 -91 196 -117 0 -9 9 10 19 41 21 67 47 111 107 181 83 97 88 112 89 282 0 91 5 161 12 178 14 32 15 93 2 122 -6 13 -7 5 -4 -25 4 -30 -3 -77 -19 -140 -14 -55 -21 -99 -16 -105 5 -5 9 -26 9 -48 l0 -39 -42 7 c-24 4 -47 11 -53 15 -5 4 -19 10 -29 14 -19 7 -19 6 -2 -13 10 -11 43 -25 72 -32 56 -13 65 -27 48 -73 -9 -22 -61 -20 -109 4 -43 22 -55 24 -55 12 0 -15 70 -42 110 -42 22 0 40 -3 40 -7 0 -5 -33 -48 -74 -97 -58 -70 -78 -103 -91 -148 l-16 -58 -29 28 c-16 16 -73 49 -127 72 -134 58 -173 83 -226 139 -50 53 -64 102 -47 161 14 50 12 95 -7 149 l-16 47 36 65 c43 76 45 99 16 146 l-21 34 28 41 c16 23 52 59 79 81 55 43 63 59 64 129 1 39 6 50 32 72 17 14 35 26 39 26 5 0 25 13 43 30 32 28 43 52 62 143 3 15 10 27 15 27 5 0 12 -12 15 -27 22 -105 37 -128 122 -184 38 -25 40 -30 52 -103 12 -73 14 -77 56 -106 94 -65 134 -139 135 -250 0 -41 7 -100 15 -130 34 -126 10 -208 -98 -332 -35 -40 -80 -95 -100 -121 -20 -27 -37 -44 -37 -39 0 15 49 84 94 132 60 64 76 93 76 142 0 24 4 49 9 57 6 9 4 19 -4 27 -22 23 -28 92 -14 190 l12 93 -33 68 c-18 37 -36 61 -38 54 -2 -7 1 -17 7 -20 6 -4 9 -16 5 -27 -4 -14 -3 -15 4 -5 7 10 14 2 27 -33 16 -43 17 -51 1 -138 -13 -73 -14 -105 -6 -147 5 -29 10 -80 10 -112 0 -51 -4 -63 -36 -106 -20 -26 -49 -61 -64 -78 -42 -46 -60 -88 -70 -172 -11 -82 -7 -113 5 -41 11 63 17 72 140 198 163 167 175 197 151 383 -9 65 -16 162 -16 215 0 91 -2 101 -36 170 -45 91 -46 123 -10 235 l29 87 -27 88 c-20 64 -27 111 -28 170 l0 82 -390 0 -390 0 7 -122z"/>
 <path d="M1430 1998 c-1 -2 -5 -88 -10 -193 -7 -140 -14 -210 -30 -265 -25 -90 -21 -118 27 -214 38 -76 42 -105 29 -221 -7 -57 -4 -86 13 -156 12 -48 21 -102 21 -121 0 -52 -42 -125 -124 -215 -101 -110 -141 -182 -159 -283 -6 -32 -4 -29 24 22 47 86 117 167 197 229 40 30 83 71 96 90 48 70 57 154 30 254 -9 33 -23 82 -30 110 -12 43 -12 62 2 143 18 104 16 119 -27 208 -36 73 -37 97 -14 184 14 53 16 89 11 190 -3 69 -2 151 2 183 l9 57 -34 0 c-18 0 -33 -1 -33 -2z"/>
 <path d="M678 862 c-20 -23 -23 -32 -14 -44 27 -37 165 -28 202 13 17 19 17 20 -2 13 -10 -4 -24 -11 -30 -16 -10 -7 -91 -13 -136 -9 -23 1 -23 29 -1 53 9 10 14 18 11 18 -2 0 -16 -13 -30 -28z"/>
 <path d="M757 867 c-3 -8 -2 -19 3 -26 6 -10 12 -10 29 1 11 7 20 17 18 23 -5 16 -44 18 -50 2z"/>
 <path d="M1194 865 c-4 -9 -1 -22 6 -28 10 -9 14 -9 17 1 3 6 11 12 20 12 23 0 9 25 -15 28 -13 2 -25 -3 -28 -13z"/>
 <path d="M885 740 c-3 -5 -32 -17 -63 -26 -63 -19 -57 -32 6 -14 40 10 98 49 75 50 -6 0 -15 -4 -18 -10z"/>
 </g>
<g id="layer111" fill="#30384a" stroke="none">
 <path d="M181 1965 c6 -19 7 -40 4 -45 -3 -5 -1 -17 4 -27 6 -10 15 -38 21 -62 8 -29 25 -56 54 -85 41 -40 43 -43 49 -121 4 -45 16 -114 27 -154 18 -64 19 -79 8 -131 -9 -46 -9 -70 1 -114 12 -53 11 -61 -16 -139 -35 -105 -37 -199 -5 -271 13 -29 22 -69 22 -100 0 -83 26 -180 62 -238 19 -29 40 -80 47 -113 35 -161 48 -177 194 -252 l112 -57 101 -2 c56 0 106 -4 112 -8 6 -3 23 -1 39 5 15 6 57 11 93 10 56 -1 71 3 100 24 19 14 41 25 49 25 26 1 130 46 172 75 39 28 99 128 99 166 0 10 4 20 9 23 13 8 40 102 55 191 8 44 23 105 34 135 17 47 20 79 20 215 0 137 -4 172 -24 240 -17 61 -21 95 -17 142 3 34 1 75 -5 93 -9 24 -8 46 2 93 8 34 17 92 21 129 l7 68 51 27 c65 36 104 90 118 168 6 33 15 68 20 77 5 10 6 24 3 33 -5 12 -29 15 -144 15 l-137 0 -7 -47 c-7 -41 -23 -275 -29 -398 -1 -28 9 -63 36 -119 42 -89 45 -114 18 -188 -41 -110 -38 -151 25 -311 31 -80 36 -100 31 -152 -9 -120 -73 -214 -224 -328 -48 -37 -110 -95 -138 -129 -27 -35 -64 -77 -82 -95 -17 -18 -27 -33 -21 -33 42 0 235 167 328 284 24 30 46 53 49 51 2 -3 -10 -34 -28 -69 -21 -42 -51 -82 -89 -117 -31 -29 -46 -47 -33 -40 40 22 111 92 136 136 13 22 29 64 35 93 14 61 35 84 24 25 -19 -108 -82 -230 -150 -293 -49 -45 -154 -100 -194 -101 -14 0 -34 -5 -45 -10 -14 -6 1 -8 50 -6 78 4 131 26 205 85 l45 36 -34 -36 c-66 -71 -236 -134 -338 -126 -30 3 -48 1 -41 -3 7 -5 38 -9 68 -9 39 0 51 -3 40 -10 -8 -5 -36 -7 -62 -4 -33 5 -60 1 -88 -10 -52 -21 -86 -21 -48 0 36 19 36 27 1 12 -42 -17 -191 -14 -233 4 -35 15 -34 15 60 16 56 1 114 7 140 16 25 9 32 13 15 10 -16 -3 -74 -5 -130 -5 -165 1 -277 41 -321 117 -13 22 -24 44 -24 48 0 5 25 -15 55 -42 33 -30 78 -59 113 -73 64 -25 194 -36 257 -22 33 8 24 9 -55 10 -156 1 -268 55 -345 168 -36 51 -39 61 -46 155 -10 125 -8 121 -76 262 -69 145 -72 189 -25 343 41 132 47 186 30 260 -10 42 -11 70 -5 89 6 19 4 64 -8 144 -20 129 -24 255 -12 350 l8 62 -105 0 -104 0 9 -35z"/>
 <path d="M406 1984 c-12 -31 -6 -328 8 -386 9 -39 11 -74 5 -110 -6 -33 -4 -77 2 -117 15 -82 7 -168 -27 -326 l-28 -126 48 -91 c44 -84 49 -101 57 -192 12 -121 31 -167 95 -227 99 -91 197 -130 328 -128 l81 1 -89 14 c-152 23 -287 104 -346 207 -29 50 -30 56 -28 152 3 96 1 104 -35 191 -20 51 -37 105 -37 122 0 17 14 64 30 105 36 90 36 103 9 210 -18 70 -21 98 -15 188 5 92 3 116 -15 175 -22 71 -22 104 -3 292 6 58 5 62 -14 62 -11 0 -23 -7 -26 -16z"/>
 <path d="M485 1988 c-9 -30 -12 -251 -4 -344 5 -56 18 -131 29 -168 20 -64 20 -69 5 -125 -15 -53 -15 -62 0 -112 15 -50 15 -61 -1 -150 -15 -90 -15 -100 0 -145 11 -33 16 -82 16 -162 0 -138 8 -159 95 -241 100 -93 224 -152 314 -150 33 0 30 2 -31 24 -161 56 -296 161 -333 258 -18 46 -18 52 -1 121 17 71 17 75 -3 134 -25 74 -26 94 -5 156 12 35 14 62 9 99 -8 54 -9 112 -4 207 4 84 -21 279 -42 333 -21 52 -24 112 -10 167 5 19 12 52 16 73 6 35 4 37 -20 37 -14 0 -27 -6 -30 -12z"/>
 <path d="M575 1878 c4 -68 9 -177 10 -243 2 -66 6 -143 10 -170 5 -35 2 -67 -8 -103 -9 -29 -15 -58 -13 -65 2 -7 14 -44 27 -83 l23 -71 -22 -60 c-25 -68 -27 -111 -10 -159 9 -26 9 -53 0 -120 -11 -80 -10 -91 9 -133 38 -86 85 -121 264 -193 129 -52 194 -91 196 -117 0 -9 9 10 19 41 21 67 47 111 107 181 83 97 88 112 89 282 0 91 5 161 12 178 14 32 15 93 2 122 -6 13 -7 5 -4 -25 4 -30 -3 -77 -19 -140 -14 -55 -21 -99 -16 -105 5 -5 9 -26 9 -48 l0 -39 -42 7 c-24 4 -47 11 -53 15 -5 4 -19 10 -29 14 -19 7 -19 6 -2 -13 10 -11 43 -25 72 -32 56 -13 65 -27 48 -73 -9 -22 -61 -20 -109 4 -43 22 -55 24 -55 12 0 -15 70 -42 110 -42 22 0 40 -3 40 -7 0 -5 -33 -48 -74 -97 -58 -70 -78 -103 -91 -148 l-16 -58 -29 28 c-16 16 -73 49 -127 72 -134 58 -173 83 -226 139 -50 53 -64 102 -47 161 14 50 12 95 -7 149 l-16 47 36 65 c43 76 45 99 16 146 -19 31 -20 37 -8 60 8 14 45 54 83 89 68 62 69 64 74 121 5 64 19 86 72 113 63 33 82 64 105 173 3 15 10 27 15 27 5 0 12 -12 15 -27 22 -105 32 -120 125 -187 44 -31 45 -34 52 -100 5 -56 11 -71 30 -84 49 -35 103 -89 130 -131 25 -40 28 -54 28 -130 0 -48 7 -111 15 -141 34 -126 10 -208 -98 -332 -35 -40 -80 -95 -100 -121 -20 -27 -37 -44 -37 -39 0 15 49 84 94 132 60 64 76 93 76 142 0 24 4 49 9 57 6 9 4 19 -4 27 -22 23 -28 92 -14 190 l12 93 -33 68 c-18 37 -36 61 -38 54 -2 -7 1 -17 7 -20 6 -4 9 -16 5 -27 -4 -14 -3 -15 4 -5 7 10 14 2 27 -33 16 -43 17 -51 1 -138 -13 -73 -14 -105 -6 -147 5 -29 10 -80 10 -112 0 -51 -4 -63 -36 -106 -20 -26 -49 -61 -64 -78 -42 -46 -60 -88 -70 -172 -11 -82 -7 -113 5 -41 11 63 17 72 140 198 163 167 175 197 151 383 -9 65 -16 162 -16 215 0 91 -2 101 -36 170 -45 91 -46 123 -10 235 l29 87 -27 88 c-20 64 -27 111 -28 170 l0 82 -390 0 -390 0 7 -122z"/>
 <path d="M1430 1998 c-1 -2 -5 -88 -10 -193 -7 -140 -14 -210 -30 -265 -25 -90 -21 -118 27 -214 38 -76 42 -105 29 -221 -7 -57 -4 -86 13 -156 12 -48 21 -102 21 -121 0 -52 -42 -125 -124 -215 -101 -110 -141 -182 -159 -283 -6 -32 -4 -29 24 22 47 86 117 167 197 229 40 30 83 71 96 90 48 70 57 154 30 254 -9 33 -23 82 -30 110 -12 43 -12 62 2 143 18 104 16 119 -27 208 -36 73 -37 97 -14 184 14 53 16 89 11 190 -3 69 -2 151 2 183 l9 57 -34 0 c-18 0 -33 -1 -33 -2z"/>
 <path d="M678 862 c-20 -23 -23 -32 -14 -44 27 -37 165 -28 202 13 17 19 17 20 -2 13 -10 -4 -24 -11 -30 -16 -10 -7 -91 -13 -136 -9 -23 1 -23 29 -1 53 9 10 14 18 11 18 -2 0 -16 -13 -30 -28z"/>
 <path d="M757 867 c-3 -8 -2 -19 3 -26 6 -10 12 -10 29 1 11 7 20 17 18 23 -5 16 -44 18 -50 2z"/>
 <path d="M1194 865 c-4 -9 -1 -22 6 -28 10 -9 14 -9 17 1 3 6 11 12 20 12 23 0 9 25 -15 28 -13 2 -25 -3 -28 -13z"/>
 <path d="M885 740 c-3 -5 -32 -17 -63 -26 -63 -19 -57 -32 6 -14 40 10 98 49 75 50 -6 0 -15 -4 -18 -10z"/>
 </g>
<g id="layer112" fill="#3c2e2c" stroke="none">
 <path d="M181 1965 c6 -19 7 -40 4 -45 -3 -5 -1 -17 4 -27 6 -10 15 -38 21 -62 8 -29 25 -56 54 -85 41 -40 43 -43 49 -121 4 -45 16 -114 27 -154 18 -64 19 -79 8 -131 -9 -46 -9 -70 1 -114 12 -53 11 -61 -16 -139 -35 -105 -37 -199 -5 -271 13 -29 22 -69 22 -100 0 -83 26 -180 62 -238 19 -29 40 -80 47 -113 35 -161 48 -177 194 -252 l112 -57 101 -2 c56 0 106 -4 112 -8 6 -3 23 -1 39 5 15 6 57 11 93 10 56 -1 71 3 100 24 19 14 41 25 49 25 26 1 130 46 172 75 39 28 99 128 99 166 0 10 4 20 9 23 13 8 40 102 55 191 8 44 23 105 34 135 17 47 20 79 20 215 0 137 -4 172 -24 240 -17 61 -21 95 -17 142 3 34 1 75 -5 93 -9 24 -8 46 2 93 8 34 17 92 21 129 l7 68 51 27 c65 36 104 90 118 168 6 33 15 68 20 77 5 10 6 24 3 33 -5 12 -29 15 -144 15 l-137 0 -7 -47 c-7 -41 -23 -275 -29 -398 -1 -28 9 -63 36 -119 42 -89 45 -114 18 -188 -41 -110 -38 -151 25 -311 31 -80 36 -100 31 -152 -9 -120 -73 -214 -224 -328 -48 -37 -110 -95 -138 -129 -27 -35 -64 -77 -82 -95 -17 -18 -27 -33 -21 -33 42 0 235 167 328 284 24 30 46 53 49 51 2 -3 -10 -34 -28 -69 -21 -42 -51 -82 -89 -117 -31 -29 -46 -47 -33 -40 40 22 111 92 136 136 13 22 29 64 35 93 14 61 35 84 24 25 -19 -108 -82 -230 -150 -293 -49 -45 -154 -100 -194 -101 -14 0 -34 -5 -45 -10 -14 -6 1 -8 50 -6 78 4 131 26 205 85 l45 36 -34 -36 c-66 -71 -236 -134 -338 -126 -30 3 -48 1 -41 -3 7 -5 38 -9 68 -9 39 0 51 -3 40 -10 -8 -5 -36 -7 -62 -4 -33 5 -60 1 -88 -10 -52 -21 -86 -21 -48 0 36 19 36 27 1 12 -42 -17 -191 -14 -233 4 -35 15 -34 15 60 16 56 1 114 7 140 16 25 9 32 13 15 10 -16 -3 -74 -5 -130 -5 -165 1 -277 41 -321 117 -13 22 -24 44 -24 48 0 5 25 -15 55 -42 33 -30 78 -59 113 -73 64 -25 194 -36 257 -22 33 8 24 9 -55 10 -156 1 -268 55 -345 168 -36 51 -39 61 -46 155 -10 125 -8 121 -76 262 -69 145 -72 189 -25 343 41 132 47 186 30 260 -10 42 -11 70 -5 89 6 19 4 64 -8 144 -20 129 -24 255 -12 350 l8 62 -105 0 -104 0 9 -35z m95 -164 c42 -48 45 -75 5 -37 -30 29 -65 98 -75 151 -4 17 3 8 15 -22 12 -29 37 -70 55 -92z m1504 62 c-7 -21 -24 -53 -37 -71 -29 -38 -97 -86 -114 -80 -7 2 4 14 24 27 48 29 103 95 118 138 6 19 13 32 16 29 3 -2 -1 -22 -7 -43z"/>
 <path d="M406 1984 c-12 -31 -6 -328 8 -386 9 -39 11 -74 5 -110 -6 -33 -4 -77 2 -117 15 -82 7 -168 -27 -326 l-28 -126 48 -91 c44 -84 49 -101 57 -192 12 -121 31 -167 95 -227 99 -91 197 -130 328 -128 l81 1 -89 14 c-152 23 -287 104 -346 207 -29 50 -30 56 -28 152 3 96 1 104 -35 191 -20 51 -37 105 -37 122 0 17 14 64 30 105 36 90 36 103 9 210 -18 70 -21 98 -15 188 5 92 3 116 -15 175 -22 71 -22 104 -3 292 6 58 5 62 -14 62 -11 0 -23 -7 -26 -16z"/>
 <path d="M485 1988 c-9 -30 -12 -251 -4 -344 5 -56 18 -131 29 -168 20 -64 20 -69 5 -125 -15 -53 -15 -62 0 -112 15 -50 15 -61 -1 -150 -15 -90 -15 -100 0 -145 11 -33 16 -82 16 -162 0 -138 8 -159 95 -241 100 -93 224 -152 314 -150 33 0 30 2 -31 24 -161 56 -296 161 -333 258 -18 46 -18 52 -1 121 17 71 17 75 -3 134 -25 74 -26 94 -5 156 12 35 14 62 9 99 -8 54 -9 112 -4 207 4 84 -21 279 -42 333 -21 52 -24 112 -10 167 5 19 12 52 16 73 6 35 4 37 -20 37 -14 0 -27 -6 -30 -12z"/>
 <path d="M575 1878 c4 -68 9 -177 10 -243 2 -66 6 -143 10 -170 5 -35 2 -67 -8 -103 -9 -29 -15 -58 -13 -65 2 -7 14 -44 27 -83 l23 -71 -22 -60 c-25 -68 -27 -111 -10 -159 9 -26 9 -53 0 -120 -11 -80 -10 -91 9 -133 38 -86 85 -121 264 -193 129 -52 194 -91 196 -117 0 -9 9 10 19 41 21 67 47 111 107 181 83 97 88 112 89 282 0 91 5 161 12 178 14 32 15 93 2 122 -6 13 -7 5 -4 -25 4 -30 -3 -77 -19 -140 -13 -52 -20 -96 -16 -98 5 -2 9 -24 9 -49 l0 -46 -41 7 c-23 4 -55 14 -73 23 l-31 16 19 -21 c10 -12 42 -26 72 -33 56 -13 65 -27 48 -73 -9 -22 -61 -20 -109 4 -43 22 -55 24 -55 12 0 -15 70 -42 110 -42 22 0 40 -3 40 -7 0 -5 -33 -48 -74 -97 -58 -70 -78 -103 -91 -148 l-16 -58 -29 28 c-16 16 -73 49 -127 72 -134 58 -173 83 -226 139 -50 53 -64 102 -47 161 14 50 12 95 -7 149 l-16 47 36 65 c43 76 45 99 16 146 -19 31 -20 37 -8 60 8 14 45 54 83 89 68 62 69 64 74 121 5 64 19 86 72 113 63 33 82 64 105 173 3 15 10 27 15 27 5 0 12 -12 15 -27 22 -105 32 -120 125 -187 44 -31 45 -34 52 -100 5 -56 11 -71 30 -84 49 -35 103 -89 130 -131 25 -40 28 -54 28 -130 0 -48 7 -111 15 -141 34 -126 10 -208 -98 -332 -35 -40 -80 -95 -100 -121 -20 -27 -37 -44 -37 -39 0 15 49 84 94 132 60 64 76 93 76 142 0 24 4 49 9 57 6 9 4 19 -4 27 -22 23 -28 92 -14 190 l12 93 -33 68 c-18 37 -36 61 -38 54 -2 -7 1 -17 7 -20 6 -4 9 -16 5 -27 -4 -14 -3 -15 4 -5 7 10 14 2 27 -33 16 -43 17 -51 1 -138 -13 -73 -14 -105 -6 -147 5 -29 10 -80 10 -112 0 -51 -4 -63 -36 -106 -20 -26 -49 -61 -64 -78 -42 -46 -60 -88 -70 -172 -11 -82 -7 -113 5 -41 11 63 17 72 140 198 163 167 175 197 151 383 -9 65 -16 162 -16 215 0 91 -2 101 -36 170 -45 91 -46 123 -10 235 l29 87 -27 88 c-20 64 -27 111 -28 170 l0 82 -390 0 -390 0 7 -122z m150 -110 c-22 -42 -78 -117 -87 -118 -5 0 12 27 36 60 25 34 48 70 51 81 4 11 9 18 12 16 2 -3 -3 -20 -12 -39z m589 -41 c15 -21 26 -41 23 -43 -5 -6 -37 37 -57 76 -15 29 -4 19 34 -33z m-637 -123 c18 -16 21 -22 8 -15 -32 15 -61 40 -48 41 7 0 25 -12 40 -26z m663 6 c0 -5 -10 -15 -22 -21 -23 -12 -23 -12 -4 10 21 23 26 26 26 11z"/>
 <path d="M1430 1998 c-1 -2 -5 -88 -10 -193 -7 -140 -14 -210 -30 -265 -25 -90 -21 -118 27 -214 38 -76 42 -105 29 -221 -7 -57 -4 -86 13 -156 12 -48 21 -102 21 -121 0 -52 -42 -125 -124 -215 -101 -110 -141 -182 -159 -283 -6 -32 -4 -29 24 22 47 86 117 167 197 229 40 30 83 71 96 90 48 70 57 154 30 254 -9 33 -23 82 -30 110 -12 43 -12 62 2 143 18 104 16 119 -27 208 -36 73 -37 97 -14 184 14 53 16 89 11 190 -3 69 -2 151 2 183 l9 57 -34 0 c-18 0 -33 -1 -33 -2z"/>
 <path d="M678 862 c-20 -23 -23 -32 -14 -44 28 -38 165 -28 203 14 18 21 18 21 -12 5 -42 -21 -98 -30 -140 -23 -39 8 -45 28 -18 58 9 10 14 18 11 18 -2 0 -16 -13 -30 -28z"/>
 <path d="M757 867 c-7 -18 12 -47 20 -29 2 6 11 12 19 12 8 0 11 6 8 15 -8 19 -40 20 -47 2z"/>
 <path d="M1196 863 c-4 -9 -1 -21 5 -27 8 -8 13 -8 16 2 3 6 11 12 19 12 8 0 11 6 8 15 -8 20 -40 19 -48 -2z"/>
 <path d="M885 740 c-3 -5 -32 -17 -63 -26 -63 -19 -57 -32 6 -14 40 10 98 49 75 50 -6 0 -15 -4 -18 -10z"/>
 </g>
<g id="layer113" fill="#182228" stroke="none">
 <path d="M184 1985 c15 -12 17 -19 8 -44 -6 -17 -7 -33 -3 -35 4 -3 14 -31 21 -63 11 -42 24 -67 52 -95 36 -36 58 -47 58 -30 0 5 -13 21 -30 35 -34 31 -75 107 -84 157 -5 29 -2 26 15 -17 22 -54 87 -139 98 -128 3 4 7 30 7 58 1 29 4 80 8 115 l6 62 -88 0 c-77 -1 -85 -2 -68 -15z"/>
 <path d="M619 1953 c-1 -27 0 -52 2 -58 1 -5 2 -23 2 -40 0 -16 3 -32 7 -35 4 -3 3 -34 -3 -70 -5 -36 -10 -132 -11 -215 -1 -82 -7 -171 -14 -196 -13 -53 -7 -82 34 -156 l29 -53 -32 -59 c-37 -67 -40 -101 -17 -157 14 -34 15 -48 4 -106 -16 -84 -5 -128 45 -184 l36 -39 -35 48 c-42 57 -52 102 -37 162 15 61 14 101 -5 137 -20 38 -13 74 23 129 35 53 33 91 -7 156 -35 56 -35 58 -11 196 4 26 4 73 -1 104 -5 31 -8 65 -6 75 3 17 5 17 26 3 21 -15 22 -23 23 -158 l2 -142 8 110 c12 158 12 158 37 102 12 -27 22 -61 23 -75 0 -15 4 -36 9 -47 7 -16 9 -13 9 16 1 30 4 35 24 35 19 -1 22 5 25 44 4 53 10 61 83 111 63 42 89 89 89 160 0 33 3 40 17 37 13 -2 20 -18 25 -56 8 -56 29 -106 50 -118 10 -6 10 -4 3 7 -5 8 -1 5 10 -6 11 -12 36 -32 55 -45 47 -32 50 -37 50 -92 0 -41 3 -48 19 -48 11 0 22 -8 24 -17 4 -15 5 -15 6 2 1 11 8 29 16 39 15 20 15 20 16 0 1 -10 5 3 9 29 8 43 36 94 47 83 2 -2 -3 -21 -11 -41 -27 -64 -21 -116 26 -208 40 -79 41 -85 40 -170 -1 -51 5 -117 14 -159 10 -41 15 -97 12 -134 -3 -42 -1 -59 5 -48 5 9 6 53 3 97 -4 45 -10 145 -14 222 -7 137 -8 141 -44 207 -45 78 -48 125 -18 213 20 59 25 126 14 184 -4 17 -11 28 -16 25 -5 -3 -6 6 -2 22 5 19 4 25 -5 20 -9 -6 -10 0 -5 20 5 20 4 25 -6 19 -9 -5 -10 -2 -5 14 3 11 2 21 -3 21 -6 0 -8 9 -5 20 3 12 0 20 -6 20 -7 0 -11 8 -10 18 1 9 -1 29 -5 45 l-8 27 -329 0 -329 0 -1 -47z m205 -162 c-7 -7 -64 59 -63 74 0 6 15 -8 34 -29 19 -22 32 -42 29 -45z m406 59 c-6 -11 -16 -20 -22 -20 -6 0 -3 9 7 20 10 11 20 20 22 20 2 0 -1 -9 -7 -20z m-100 -9 c0 -10 -6 -21 -14 -24 -11 -4 -11 -1 -2 19 13 29 16 30 16 5z m-408 -77 c-11 -22 -36 -59 -55 -84 l-36 -44 28 -17 c15 -9 35 -29 45 -45 l19 -29 -34 31 c-19 17 -42 34 -51 37 -19 7 -25 42 -9 51 5 3 7 14 4 25 -4 14 0 18 18 17 12 0 24 5 27 13 3 9 0 11 -9 6 -8 -5 -11 -4 -6 1 5 5 14 9 19 9 6 0 13 6 16 14 3 9 0 11 -8 6 -7 -4 -4 4 5 19 9 14 22 23 28 19 7 -4 8 0 3 13 -5 14 -4 16 4 8 9 -9 7 -21 -8 -50z m551 39 c-4 -10 -2 -14 5 -9 6 3 14 1 18 -5 5 -8 3 -9 -6 -4 -8 5 -11 3 -8 -6 3 -8 10 -14 16 -14 5 0 14 -4 19 -9 5 -5 2 -6 -6 -1 -9 5 -12 3 -9 -6 3 -8 9 -14 14 -14 20 0 34 -18 34 -42 0 -25 -1 -25 -19 -9 -26 23 -73 114 -66 126 10 16 15 12 8 -7z m75 -196 c-1 -1 -19 -15 -38 -32 -20 -17 -28 -21 -20 -10 30 43 55 66 58 55 2 -6 2 -12 0 -13z"/>
 <path d="M1606 1984 c-8 -20 -5 -227 4 -324 6 -69 12 -73 14 -10 1 20 12 31 53 53 29 16 65 43 79 62 30 39 58 146 49 187 -4 17 -2 28 4 28 6 0 11 5 11 10 0 6 -41 10 -104 10 -85 0 -105 -3 -110 -16z m166 -145 c-21 -49 -62 -93 -105 -116 -44 -22 -55 -10 -14 16 48 29 103 95 119 140 7 21 13 29 15 20 2 -8 -5 -35 -15 -60z"/>
 <path d="M423 1855 c0 -22 2 -30 4 -17 2 12 2 30 0 40 -3 9 -5 -1 -4 -23z"/>
 <path d="M1422 1755 c-2 -81 -9 -145 -22 -195 -28 -106 -25 -131 21 -232 l40 -88 -6 -112 c-6 -98 -4 -124 15 -198 31 -121 15 -182 -78 -284 l-46 -51 48 45 c56 52 92 110 101 161 4 23 -1 79 -15 150 -19 95 -20 121 -11 167 19 96 14 132 -29 217 -45 89 -50 134 -25 233 11 42 15 96 12 183 l-3 124 -2 -120z"/>
 <path d="M411 1763 c0 -24 8 -77 20 -119 14 -53 19 -90 15 -119 -11 -73 -7 -198 9 -255 21 -78 19 -104 -16 -204 -35 -100 -34 -114 14 -221 28 -62 32 -84 37 -186 5 -107 7 -119 35 -164 17 -26 50 -64 75 -83 l45 -36 -41 40 c-22 21 -54 59 -70 83 -28 43 -29 49 -27 148 3 100 1 107 -38 204 -45 112 -45 124 -4 224 30 73 31 118 5 219 -16 64 -18 96 -13 185 5 88 3 117 -12 161 -10 30 -21 79 -25 110 -7 52 -7 53 -9 13z"/>
 <path d="M1526 1685 c-16 -149 -14 -174 24 -254 39 -84 40 -111 10 -201 -29 -86 -23 -159 24 -272 47 -113 52 -152 31 -224 -23 -82 -59 -139 -129 -209 -63 -61 -50 -59 17 4 24 23 37 30 38 21 0 -8 5 -1 10 15 4 17 20 42 34 57 14 15 25 29 24 30 -3 4 22 81 30 93 10 15 5 127 -6 155 -6 14 -21 48 -33 75 -33 76 -42 141 -29 203 6 29 14 50 17 48 7 -4 13 34 15 99 2 47 -4 77 -17 87 -6 4 -4 14 5 25 12 16 12 17 -2 6 -12 -10 -18 -8 -31 15 -28 48 -38 102 -27 146 6 23 9 68 7 101 l-3 60 -9 -80z"/>
 <path d="M319 1625 c-3 -11 1 -45 8 -75 8 -30 15 -64 17 -75 2 -11 8 -33 15 -48 10 -26 7 -67 -7 -91 -7 -13 -6 -106 2 -113 3 -4 6 18 6 48 0 66 15 96 25 51 8 -37 -4 -122 -17 -122 -5 0 -6 -5 -3 -10 6 -9 -28 -128 -43 -155 -13 -22 -18 -122 -7 -147 4 -9 4 -21 1 -27 -4 -5 -2 -12 4 -16 6 -4 8 -11 5 -16 -4 -5 -1 -9 5 -9 6 0 9 -4 6 -9 -3 -5 1 -14 9 -21 8 -7 13 -16 10 -20 -2 -4 5 -18 17 -31 41 -47 71 -130 76 -213 3 -56 2 -77 -6 -72 -6 4 -5 -6 3 -21 8 -15 15 -35 15 -43 0 -8 5 -22 11 -30 9 -12 10 -11 4 5 -4 11 -11 74 -15 139 -8 119 -8 119 -66 235 -76 151 -80 199 -34 346 48 150 49 208 10 346 -18 63 -36 137 -39 164 -4 30 -9 42 -12 30z"/>
 <path d="M547 1540 c7 -132 7 -168 -2 -223 -5 -32 -3 -68 5 -104 11 -45 11 -63 0 -101 -23 -83 -23 -103 1 -179 20 -65 21 -79 11 -119 -7 -24 -11 -63 -11 -87 2 -41 2 -40 9 13 5 30 11 74 15 96 6 31 2 59 -15 109 l-22 67 21 73 c21 70 21 75 6 135 -14 52 -14 71 -4 113 7 31 9 70 4 106 -4 31 -11 88 -15 126 -6 59 -7 55 -3 -25z"/>
 <path d="M1615 1150 c3 -14 8 -47 12 -74 5 -38 8 -45 14 -29 4 12 0 41 -12 74 -11 30 -17 43 -14 29z"/>
 <path d="M1303 945 c0 -33 2 -45 4 -27 2 18 2 45 0 60 -2 15 -4 0 -4 -33z"/>
 <path d="M1262 880 c0 -19 2 -27 5 -17 2 9 2 25 0 35 -3 9 -5 1 -5 -18z"/>
 <path d="M757 867 c-7 -18 12 -47 20 -29 2 6 11 12 19 12 8 0 11 6 8 15 -8 19 -40 20 -47 2z"/>
 <path d="M1196 864 c-3 -9 -4 -19 -1 -24 8 -13 53 13 48 27 -7 18 -40 16 -47 -3z"/>
 <path d="M1317 810 c7 -87 13 -104 13 -37 0 25 5 49 11 53 7 4 7 9 2 13 -5 3 -15 15 -21 26 -9 16 -10 4 -5 -55z"/>
 <path d="M668 851 c-15 -18 -15 -20 1 -35 35 -31 183 -13 207 26 3 5 -11 0 -32 -11 -42 -23 -122 -28 -155 -11 -15 9 -17 15 -9 30 13 25 9 25 -12 1z"/>
 <path d="M1124 841 c11 -17 75 -41 110 -41 l37 0 -7 -37 c-7 -42 -28 -88 -53 -118 -15 -19 -15 -19 2 -5 29 22 55 83 62 141 3 30 2 48 -1 42 -8 -19 -63 -15 -112 7 -23 11 -40 16 -38 11z"/>
 <path d="M1376 748 l-18 -33 21 25 c18 22 26 40 18 40 -1 0 -11 -15 -21 -32z"/>
 <path d="M1302 696 c-6 -14 -28 -44 -49 -68 -34 -39 -35 -41 -4 -13 34 32 76 93 69 101 -3 2 -10 -7 -16 -20z"/>
 <path d="M358 685 c-4 -16 -2 -35 4 -42 5 -6 8 -20 6 -30 -1 -10 1 -23 5 -30 4 -6 8 -23 9 -37 1 -14 5 -26 9 -26 3 0 11 -12 18 -26 18 -41 23 -22 5 21 -9 22 -24 75 -33 119 -15 68 -19 76 -23 51z"/>
 <path d="M1159 583 l-34 -38 38 34 c34 33 42 41 34 41 -2 0 -19 -17 -38 -37z"/>
 <path d="M1573 536 c-20 -96 -76 -201 -140 -263 -46 -45 -51 -53 -25 -38 19 11 48 36 65 55 17 19 35 35 41 35 5 0 10 11 11 23 1 13 6 27 11 30 5 4 11 16 12 27 2 11 7 22 10 25 4 3 8 12 8 20 1 8 8 43 17 78 8 34 11 62 8 62 -4 0 -12 -24 -18 -54z"/>
 <path d="M1503 461 c-28 -58 -29 -63 -7 -36 22 28 50 93 42 99 -1 2 -17 -27 -35 -63z"/>
 <path d="M1485 274 c-25 -47 -67 -81 -140 -115 -33 -16 -55 -28 -48 -29 24 0 168 74 168 87 1 4 11 24 23 43 20 31 27 50 19 50 -1 0 -11 -16 -22 -36z"/>
 <path d="M490 268 c0 -29 56 -106 73 -100 4 1 7 -2 7 -8 0 -5 9 -10 20 -10 11 0 20 -5 20 -11 0 -5 4 -8 9 -4 5 3 12 1 16 -5 4 -6 10 -8 15 -5 5 3 13 -3 19 -12 6 -10 11 -12 11 -6 0 9 25 11 98 8 l97 -4 -91 9 c-142 14 -233 55 -275 124 -10 17 -19 28 -19 24z"/>
 <path d="M1201 100 c-18 -15 -38 -20 -90 -20 -36 0 -71 -4 -78 -8 -6 -4 23 -7 65 -7 65 0 81 3 101 22 14 12 28 20 33 17 4 -3 8 0 8 5 0 16 -12 13 -39 -9z"/>
 <path d="M696 99 c15 -25 211 -55 231 -36 3 4 -25 7 -63 7 -40 1 -91 8 -121 19 -29 10 -50 14 -47 10z"/>
 </g>
<g id="layer114" fill="#251815" stroke="none">
 <path d="M911 1973 c4 -35 -36 -167 -56 -183 -8 -6 -19 -9 -25 -5 -17 10 15 -47 46 -84 14 -17 33 -31 41 -31 28 0 7 -25 -56 -67 -34 -22 -69 -49 -76 -60 -17 -22 -19 -79 -4 -89 8 -4 7 -9 -2 -16 -11 -7 -9 -8 6 -6 16 2 21 12 23 43 1 22 6 47 9 55 3 8 5 19 4 23 -1 5 3 6 8 3 5 -4 24 9 42 26 18 18 29 26 24 19 -5 -8 6 -5 23 8 29 20 37 32 33 54 0 4 4 7 10 7 6 0 9 7 5 15 -3 8 -1 15 4 15 5 0 8 18 8 40 0 48 7 58 29 44 11 -7 17 -27 19 -57 2 -49 33 -114 53 -110 6 2 11 -1 11 -6 0 -11 80 -64 81 -54 2 27 18 -40 18 -79 1 -40 4 -48 20 -48 11 0 22 -8 24 -17 4 -14 5 -13 6 4 0 12 6 25 11 28 6 3 10 11 10 17 0 6 -8 4 -18 -5 -21 -19 -42 -23 -24 -5 22 22 14 72 -15 99 -43 39 -82 61 -96 53 -7 -4 -9 -3 -4 1 4 5 -2 19 -14 31 l-21 22 21 12 c12 6 35 29 51 52 l30 40 -23 29 c-12 15 -27 26 -34 24 -7 -2 -7 5 3 23 8 16 10 28 4 30 -6 2 -10 14 -10 27 0 13 -4 27 -10 30 -5 3 -10 22 -10 41 l0 34 -91 0 -90 0 2 -27z"/>
 <path d="M1603 1860 c-1 -171 17 -345 21 -210 1 19 13 31 56 55 63 35 106 92 114 150 l5 40 -14 -40 c-9 -23 -29 -58 -46 -78 -32 -38 -106 -84 -117 -72 -4 4 -10 68 -13 143 l-5 137 -1 -125z"/>
 <path d="M201 1885 c-1 -15 23 -87 37 -112 13 -23 70 -68 78 -61 2 3 -16 25 -40 50 -24 25 -51 65 -59 89 -8 24 -16 40 -16 34z"/>
 <path d="M423 1855 c0 -22 2 -30 4 -17 2 12 2 30 0 40 -3 9 -5 -1 -4 -23z"/>
 <path d="M1422 1755 c-2 -81 -9 -145 -22 -195 -28 -106 -25 -131 21 -232 l40 -88 -6 -112 c-6 -98 -4 -124 15 -198 31 -121 15 -182 -78 -284 l-46 -51 48 45 c56 52 92 110 101 161 4 23 -1 79 -15 150 -19 95 -20 121 -11 167 19 96 14 132 -29 217 -45 89 -50 134 -25 233 11 42 15 96 12 183 l-3 124 -2 -120z"/>
 <path d="M411 1763 c0 -24 8 -77 20 -119 14 -53 19 -90 15 -119 -11 -73 -7 -198 9 -255 21 -78 19 -104 -16 -204 -35 -100 -34 -114 14 -221 28 -62 32 -84 37 -186 5 -107 7 -119 35 -164 17 -26 50 -64 75 -83 l45 -36 -41 40 c-22 21 -54 59 -70 83 -28 43 -29 49 -27 148 3 100 1 107 -38 204 -45 112 -45 124 -4 224 30 73 31 118 5 219 -16 64 -18 96 -13 185 5 88 3 117 -12 161 -10 30 -21 79 -25 110 -7 52 -7 53 -9 13z"/>
 <path d="M624 1733 c-5 -38 -8 -121 -6 -185 1 -73 -4 -143 -13 -187 -16 -77 -12 -100 31 -178 l29 -53 -32 -59 c-37 -67 -40 -101 -17 -157 14 -34 15 -48 4 -106 -16 -84 -5 -128 45 -184 l36 -39 -35 48 c-42 57 -52 102 -37 162 15 61 14 101 -5 137 -20 38 -13 74 23 129 35 53 33 91 -7 156 -35 56 -35 58 -11 196 4 26 4 73 -1 104 -5 31 -8 65 -6 75 3 17 5 17 26 3 21 -15 22 -23 23 -158 2 -157 5 -156 15 8 5 89 8 106 18 93 14 -19 32 -75 42 -133 l8 -40 6 40 c3 22 2 46 -4 53 -5 7 -19 35 -32 62 -15 32 -36 58 -63 76 -38 25 -51 51 -34 67 7 8 17 137 10 137 -2 0 -8 -30 -13 -67z"/>
 <path d="M1338 1738 c-3 -15 -1 -25 3 -22 5 3 9 -22 9 -54 0 -53 -3 -62 -25 -76 -36 -24 -67 -89 -58 -123 6 -25 8 -23 14 20 4 27 15 57 25 68 24 27 28 17 10 -26 -27 -64 -21 -116 26 -208 40 -79 41 -85 40 -170 -1 -51 5 -117 14 -159 10 -41 15 -97 12 -134 -3 -42 -1 -59 5 -48 5 9 6 53 3 97 -4 45 -10 145 -14 222 -7 137 -8 141 -44 207 -45 78 -48 125 -18 213 20 58 25 146 11 195 l-7 25 -6 -27z"/>
 <path d="M1526 1685 c-16 -149 -14 -174 24 -254 39 -84 40 -111 10 -201 -29 -86 -23 -159 24 -272 47 -113 52 -152 31 -224 -23 -82 -59 -139 -129 -209 -63 -61 -50 -59 17 4 24 23 37 30 38 21 0 -8 5 -1 10 15 4 17 20 42 34 57 14 15 25 29 24 30 -3 4 22 81 30 93 10 15 5 127 -6 155 -6 14 -21 48 -33 75 -33 76 -42 141 -29 203 6 29 14 50 17 48 7 -4 13 34 15 99 2 47 -4 77 -17 87 -6 4 -4 14 5 25 12 16 12 17 -2 6 -12 -10 -18 -8 -31 15 -28 48 -38 102 -27 146 6 23 9 68 7 101 l-3 60 -9 -80z"/>
 <path d="M319 1625 c-3 -11 1 -45 8 -75 8 -30 15 -64 17 -75 2 -11 8 -33 15 -48 10 -26 7 -67 -7 -91 -7 -13 -6 -106 2 -113 3 -4 6 18 6 48 0 66 15 96 25 51 8 -37 -4 -122 -17 -122 -5 0 -6 -5 -3 -10 6 -9 -28 -128 -43 -155 -13 -22 -18 -122 -7 -147 4 -9 4 -21 1 -27 -4 -5 -2 -12 4 -16 6 -4 8 -11 5 -16 -4 -5 -1 -9 5 -9 6 0 9 -4 6 -9 -3 -5 1 -14 9 -21 8 -7 13 -16 10 -20 -2 -4 5 -18 17 -31 41 -47 71 -130 76 -213 3 -56 2 -77 -6 -72 -6 4 -5 -6 3 -21 8 -15 15 -35 15 -43 0 -8 5 -22 11 -30 9 -12 10 -11 4 5 -4 11 -11 74 -15 139 -8 119 -8 119 -66 235 -76 151 -80 199 -34 346 48 150 49 208 10 346 -18 63 -36 137 -39 164 -4 30 -9 42 -12 30z"/>
 <path d="M547 1540 c7 -132 7 -168 -2 -223 -5 -32 -3 -68 5 -104 11 -45 11 -63 0 -101 -23 -83 -23 -103 1 -179 20 -65 21 -79 11 -119 -7 -24 -11 -63 -11 -87 2 -41 2 -40 9 13 5 30 11 74 15 96 6 31 2 59 -15 109 l-22 67 21 73 c21 70 21 75 6 135 -14 52 -14 71 -4 113 7 31 9 70 4 106 -4 31 -11 88 -15 126 -6 59 -7 55 -3 -25z"/>
 <path d="M1615 1150 c3 -14 8 -47 12 -74 5 -38 8 -45 14 -29 4 12 0 41 -12 74 -11 30 -17 43 -14 29z"/>
 <path d="M1303 945 c0 -33 2 -45 4 -27 2 18 2 45 0 60 -2 15 -4 0 -4 -33z"/>
 <path d="M1262 880 c0 -19 2 -27 5 -17 2 9 2 25 0 35 -3 9 -5 1 -5 -18z"/>
 <path d="M763 865 c-3 -9 -3 -19 1 -22 7 -7 36 16 36 28 0 15 -30 10 -37 -6z"/>
 <path d="M1201 866 c-9 -10 -9 -16 -1 -21 13 -8 42 14 34 26 -8 13 -20 11 -33 -5z"/>
 <path d="M1317 810 c7 -87 13 -104 13 -37 0 25 5 49 11 53 7 4 7 9 2 13 -5 3 -15 15 -21 26 -9 16 -10 4 -5 -55z"/>
 <path d="M668 851 c-15 -18 -15 -20 1 -35 35 -31 183 -13 207 26 3 5 -11 0 -32 -11 -42 -23 -122 -28 -155 -11 -15 9 -17 15 -9 30 13 25 9 25 -12 1z"/>
 <path d="M1124 841 c11 -17 75 -41 110 -41 l37 0 -7 -37 c-7 -42 -28 -88 -53 -118 -15 -19 -15 -19 2 -5 29 22 55 83 62 141 3 30 2 48 -1 42 -8 -19 -63 -15 -112 7 -23 11 -40 16 -38 11z"/>
 <path d="M1376 748 l-18 -33 21 25 c18 22 26 40 18 40 -1 0 -11 -15 -21 -32z"/>
 <path d="M1302 696 c-6 -14 -28 -44 -49 -68 -34 -39 -35 -41 -4 -13 34 32 76 93 69 101 -3 2 -10 -7 -16 -20z"/>
 <path d="M358 685 c-4 -16 -2 -35 4 -42 5 -6 8 -20 6 -30 -1 -10 1 -23 5 -30 4 -6 8 -23 9 -37 1 -14 5 -26 9 -26 3 0 11 -12 18 -26 18 -41 23 -22 5 21 -9 22 -24 75 -33 119 -15 68 -19 76 -23 51z"/>
 <path d="M1159 583 l-34 -38 38 34 c34 33 42 41 34 41 -2 0 -19 -17 -38 -37z"/>
 <path d="M1573 536 c-20 -96 -76 -201 -140 -263 -46 -45 -51 -53 -25 -38 19 11 48 36 65 55 17 19 35 35 41 35 5 0 10 11 11 23 1 13 6 27 11 30 5 4 11 16 12 27 2 11 7 22 10 25 4 3 8 12 8 20 1 8 8 43 17 78 8 34 11 62 8 62 -4 0 -12 -24 -18 -54z"/>
 <path d="M1503 461 c-28 -58 -29 -63 -7 -36 22 28 50 93 42 99 -1 2 -17 -27 -35 -63z"/>
 <path d="M1485 274 c-25 -47 -67 -81 -140 -115 -33 -16 -55 -28 -48 -29 24 0 168 74 168 87 1 4 11 24 23 43 20 31 27 50 19 50 -1 0 -11 -16 -22 -36z"/>
 <path d="M490 268 c0 -29 56 -106 73 -100 4 1 7 -2 7 -8 0 -5 9 -10 20 -10 11 0 20 -5 20 -11 0 -5 4 -8 9 -4 5 3 12 1 16 -5 4 -6 10 -8 15 -5 5 3 13 -3 19 -12 6 -10 11 -12 11 -6 0 9 25 11 98 8 l97 -4 -91 9 c-142 14 -233 55 -275 124 -10 17 -19 28 -19 24z"/>
 <path d="M1201 100 c-18 -15 -38 -20 -90 -20 -36 0 -71 -4 -78 -8 -6 -4 23 -7 65 -7 65 0 81 3 101 22 14 12 28 20 33 17 4 -3 8 0 8 5 0 16 -12 13 -39 -9z"/>
 <path d="M696 99 c15 -25 211 -55 231 -36 3 4 -25 7 -63 7 -40 1 -91 8 -121 19 -29 10 -50 14 -47 10z"/>
 </g>
<g id="layer115" fill="#111112" stroke="none">
 <path d="M912 1976 c6 -32 -37 -164 -62 -191 l-20 -22 31 -42 c17 -24 40 -46 50 -48 30 -8 19 -24 -50 -70 -34 -22 -69 -49 -76 -60 -17 -21 -20 -79 -5 -88 6 -4 8 -11 5 -16 -4 -5 -2 -9 3 -9 13 0 18 17 21 70 1 25 7 50 13 55 8 7 9 6 4 -5 -4 -8 2 -4 13 9 12 13 21 19 21 15 0 -5 10 2 21 16 11 14 18 18 14 10 -4 -8 1 -6 9 4 9 11 16 16 16 10 1 -5 9 2 20 15 11 12 17 27 14 32 -3 5 0 9 6 9 7 0 10 7 6 15 -3 8 -1 15 3 15 14 0 11 90 -2 91 -7 1 16 5 51 9 78 9 104 29 91 72 -4 17 -6 34 -4 39 3 4 1 10 -5 14 -5 3 -10 22 -10 41 l0 34 -91 0 c-91 0 -91 0 -87 -24z"/>
 <path d="M205 1870 c3 -14 8 -38 12 -54 6 -29 80 -113 90 -102 3 3 -13 26 -35 51 -23 26 -48 65 -57 88 -8 23 -13 31 -10 17z"/>
 <path d="M1782 1852 c-16 -51 -71 -114 -121 -137 -23 -10 -41 -22 -41 -27 0 -12 6 -10 60 17 58 29 98 79 111 136 12 53 6 61 -9 11z"/>
 <path d="M1095 1804 c-17 -7 -40 -13 -52 -14 -20 0 -21 -4 -18 -55 4 -57 33 -122 54 -117 6 1 11 -2 11 -7 0 -10 71 -56 82 -53 9 2 17 -29 20 -82 2 -23 9 -41 17 -44 8 -3 11 0 7 6 -3 6 -2 13 4 17 21 13 11 71 -17 96 -42 38 -82 61 -95 53 -6 -4 -8 -3 -5 3 4 6 -2 18 -13 28 -20 18 -20 19 12 46 18 15 40 40 50 55 15 28 15 30 -6 55 -20 23 -24 24 -51 13z"/>
 <path d="M676 1569 c23 -25 47 -62 53 -81 7 -20 19 -39 28 -42 13 -6 14 -4 3 9 -7 9 -23 37 -35 64 -13 27 -38 58 -56 71 -33 24 -33 23 7 -21z"/>
 <path d="M1302 1565 c-11 -13 -25 -39 -32 -57 -7 -18 -20 -42 -29 -53 -15 -19 -15 -19 3 -5 10 8 27 35 38 60 11 25 27 53 35 63 9 9 13 17 10 17 -3 0 -14 -11 -25 -25z"/>
 <path d="M763 865 c-3 -9 -3 -19 1 -22 7 -7 36 16 36 28 0 15 -30 10 -37 -6z"/>
 <path d="M1201 866 c-9 -10 -9 -16 -1 -21 13 -8 42 14 34 26 -8 13 -20 11 -33 -5z"/>
 <path d="M660 832 c0 -5 7 -15 15 -22 19 -16 150 -9 167 8 11 11 8 11 -15 3 -42 -16 -119 -13 -145 5 -12 8 -22 11 -22 6z"/>
 <path d="M1157 820 c6 -7 33 -14 60 -16 l48 -3 -47 8 c-26 5 -53 13 -60 17 -10 5 -10 4 -1 -6z"/>
 </g>

</svg>