<?xml version="1.0" encoding="UTF-8" standalone="no"?>
<!-- Created with Inkscape (http://www.inkscape.org/) -->

<svg
   xmlns:dc="http://purl.org/dc/elements/1.1/"
   xmlns:cc="http://creativecommons.org/ns#"
   xmlns:rdf="http://www.w3.org/1999/02/22-rdf-syntax-ns#"
   xmlns:svg="http://www.w3.org/2000/svg"
   xmlns="http://www.w3.org/2000/svg"
   xmlns:sodipodi="http://sodipodi.sourceforge.net/DTD/sodipodi-0.dtd"
   xmlns:inkscape="http://www.inkscape.org/namespaces/inkscape"
   version="1.1"
   id="svg428"
   width="266.66666"
   height="266.66666"
   viewBox="0 0 266.66666 266.66666"
   sodipodi:docname="Trustee4smirk.svg"
   inkscape:version="0.92.2 (5c3e80d, 2017-08-06)">
  <metadata
     id="metadata434">
    <rdf:RDF>
      <cc:Work
         rdf:about="">
        <dc:format>image/svg+xml</dc:format>
        <dc:type
           rdf:resource="http://purl.org/dc/dcmitype/StillImage" />
        <dc:title></dc:title>
      </cc:Work>
    </rdf:RDF>
  </metadata>
  <defs
     id="defs432" />
  <sodipodi:namedview
     pagecolor="#ffffff"
     bordercolor="#666666"
     borderopacity="1"
     objecttolerance="10"
     gridtolerance="10"
     guidetolerance="10"
     inkscape:pageopacity="0"
     inkscape:pageshadow="2"
     inkscape:window-width="640"
     inkscape:window-height="480"
     id="namedview430"
     showgrid="false"
     inkscape:zoom="0.88500003"
     inkscape:cx="133.33333"
     inkscape:cy="133.33333"
     inkscape:window-x="0"
     inkscape:window-y="0"
     inkscape:window-maximized="0"
     inkscape:current-layer="svg428" />
  <path
     inkscape:connector-curvature="0"
     id="path476"
     d="M 1.299434,134.20339 V 0.8700566 H 134.63276 267.96609 V 134.20339 267.53672 H 134.63276 1.299434 Z"
     style="fill:#fefefe;stroke-width:1.33333325" />
  <path
     inkscape:connector-curvature="0"
     id="path474"
     d="m 23.994223,264.53672 c 0.01547,-1.65 1.494526,-7.15595 3.286798,-12.23545 3.838382,-10.87839 11.426523,-19.46354 20.389837,-23.06884 l 5.873207,-2.36238 -0.728936,-6 c -0.400916,-3.3 -1.613242,-11.76309 -2.694059,-18.80689 C 40.80278,141.33494 45.959838,80.336626 62.812412,51.948421 68.693939,42.040973 82.883525,26.905664 91.450672,21.401447 104.79502,12.827972 123.40193,9.1547608 134.27924,12.946611 c 3.07004,1.070222 5.97503,0.909611 12.05809,-0.666667 15.0406,-3.8974132 27.91786,-1.556206 40.14067,7.297955 14.72535,10.666981 27.35462,38.065243 33.77172,73.265116 2.28745,12.547435 2.81996,20.976355 2.90784,46.027045 0.11946,34.06649 -1.6954,50.1233 -8.34127,73.79679 l -3.76635,13.41628 4.12474,0.86976 c 6.67148,1.40676 16.54138,7.33766 20.20558,12.14167 3.55035,4.65475 7.52928,14.88927 9.11374,23.44216 l 0.92626,5 H 134.69317 23.9661 l 0.02812,-3 z m 120.180007,-91.1994 c 4.23744,-4.05972 4.96493,-6.53605 1.53329,-5.2192 -1.91289,0.73404 -1.86187,0.41516 0.33333,-2.08344 2.57179,-2.92722 2.5712,-2.94144 -0.0748,-1.82948 -1.46666,0.61636 -7.64574,1.38087 -13.73128,1.6989 -12.18374,0.63673 -14.44088,3.03866 -4.16518,4.43237 l 5.89646,0.79973 -5.66666,0.20027 c -6.75783,0.23881 -7.30316,2.26036 -1.33334,4.94265 5.83682,2.62254 12.60855,1.46488 17.20814,-2.9418 z M 98.172749,126.43174 c -2.887547,-3.19071 -2.820304,-10.64415 0.12668,-14.04211 2.073601,-2.39092 1.850971,-2.3554 -2,0.31914 -4.258183,2.95735 -4.911141,4.17235 -4.385976,8.16129 0.455704,3.46134 4.024244,8 6.290031,8 2.001126,0 1.998656,-0.19587 -0.03073,-2.43832 z m 19.696631,-2.21286 c 2.35557,-4.96401 1.67496,-7.83602 -2.71545,-11.45848 -2.09545,-1.72893 -2.1586,-1.64166 -0.73946,1.022 2.13972,4.01619 1.94143,8.60445 -0.52398,12.12432 -1.75922,2.51163 -1.78237,2.96334 -0.15192,2.96334 1.05802,0 2.91689,-2.09303 4.13081,-4.65118 z m 37.50565,1.68784 c -2.4654,-3.51987 -2.6637,-8.10813 -0.52398,-12.12432 1.41914,-2.66366 1.35599,-2.75093 -0.73946,-1.022 -4.2697,3.52286 -5.00415,6.40248 -2.91082,11.41254 1.09154,2.6124 2.91399,4.69712 4.10623,4.69712 1.94889,0 1.95507,-0.26922 0.068,-2.96334 z m 19.8488,0 c 3.96002,-5.65374 2.32494,-11.13833 -4.48824,-15.05501 -1.39536,-0.80215 -1.3072,-0.24832 0.33333,2.09387 2.84829,4.0665 2.85941,10.3529 0.0239,13.48616 -1.99324,2.2025 -2.00056,2.43832 -0.0756,2.43832 1.17207,0 3.06507,-1.33351 4.20666,-2.96334 z m -4.54418,-10.98015 c -0.9387,-1.13108 -2.23328,-2.05651 -2.87681,-2.05651 -1.8154,0 -1.37847,5.0347 0.49659,5.72222 2.71074,0.99394 4.26317,-1.39691 2.38022,-3.66571 z m -57.38022,1.35551 c 0,-2.60685 -2.5845,-4.02753 -4.26667,-2.34536 -0.7522,0.75221 -0.96452,2.01993 -0.4718,2.81716 1.30695,2.1147 4.73847,1.77303 4.73847,-0.4718 z"
     style="fill:#a69f9c;stroke-width:1.33333325" />
  <path
     inkscape:connector-curvature="0"
     id="path472"
     d="m 24.904816,262.53672 c 2.453628,-15.91072 12.858162,-30.36779 24.328506,-33.80439 3.960993,-1.18674 5.267673,-2.20586 4.803309,-3.74625 -1.78746,-5.92937 -6.237629,-42.07526 -7.551735,-61.33793 -2.160964,-31.67624 1.16058,-71.438327 7.634999,-91.398309 6.409788,-19.760724 21.493566,-40.223202 37.083363,-50.306857 13.878812,-8.976972 30.191412,-12.4010631 42.628402,-8.9479 3.95281,1.097505 6.66925,1.017265 11.33334,-0.334772 3.37393,-0.978044 10.33443,-1.751464 15.46776,-1.718712 12.06067,0.07695 21.65733,4.354614 30.95135,13.796383 25.59681,26.003747 38.26181,95.400547 28.93981,158.573257 -1.83135,12.4106 -6.90954,34.74257 -9.19504,40.43639 -0.71474,1.7806 0.5784,2.63705 6.64408,4.40038 13.60541,3.9552 22.60804,15.3022 25.69696,32.38871 l 1.26546,7 H 134.53457 24.133755 Z m 116.438254,-86.3559 c 4.54424,-2.34991 8.27553,-8.63694 6.66885,-11.23662 -0.86483,-1.39932 -1.9986,-1.45241 -5.43495,-0.25449 -2.38817,0.83252 -8.52607,1.51368 -13.63977,1.51368 -7.73198,0 -9.04174,0.30832 -7.77803,1.831 0.83578,1.00705 1.19027,2.68921 0.78776,3.73813 -0.89075,2.32128 6.33301,6.2218 11.75204,6.3456 2.05308,0.0469 5.49294,-0.82489 7.6441,-1.9373 z m -23.27745,-50.67664 c 1.04526,-2.50166 1.90047,-5.5139 1.90047,-6.69386 0,-3.27496 -7.38221,-9.9515 -10.89743,-9.85575 l -3.10257,0.0845 3.33334,1.45191 c 2.74673,1.1964 2.92271,1.5507 1,2.01325 -2.86132,0.68836 -3.0238,3.46626 -0.33334,5.69914 1.59563,1.32425 2.40438,1.32425 4,0 3.12494,-2.59347 2.60699,2.86872 -0.66666,7.03049 -3.30551,4.20228 -3.30223,4.35416 0.0995,4.6104 1.98181,0.14929 3.30509,-1.08139 4.66667,-4.3401 z m 40.56714,3.62578 c 0,-0.27828 -1.2,-2.03151 -2.66667,-3.89608 -1.46666,-1.86456 -2.66666,-4.37569 -2.66666,-5.58029 0,-3.10321 3.77358,-8.10183 7.14266,-9.46142 2.82362,-1.13948 2.82072,-1.15408 -0.24522,-1.2376 -3.51523,-0.0958 -10.89744,6.58079 -10.89744,9.85575 0,1.17996 0.85521,4.1922 1.90048,6.69386 1.36157,3.25871 2.68485,4.48939 4.66666,4.3401 1.5214,-0.1146 2.76619,-0.43605 2.76619,-0.71432 z m -59.999995,-2.92657 c -4.702545,-4.70255 -3.104925,-12.27224 3.333325,-15.79369 2.39519,-1.31007 2.42239,-1.46268 0.26712,-1.4991 -3.713685,-0.0627 -9.989757,3.65178 -10.873242,6.43539 -1.55454,4.89792 3.188448,13.52407 7.436057,13.52407 2.394565,0 2.387465,-0.11594 -0.16326,-2.66667 z m 77.764475,-2.9749 c 2.95396,-6.04472 2.02856,-9.70748 -3.12609,-12.37306 -5.19371,-2.68577 -10.00571,-2.67251 -5.30506,0.0146 2.4277,1.38779 2.72076,1.91834 1.0787,1.95275 -3.1178,0.0653 -4.29588,2.44402 -2.36356,4.77232 2.18805,2.63644 4.9575,2.44607 5.69909,-0.39174 0.33537,-1.28333 0.67937,-0.38333 0.76444,2 0.0988,2.76813 -0.84708,5.33508 -2.61872,7.10672 l -2.77339,2.77339 3.10672,-0.44006 c 2.03976,-0.28892 3.94167,-2.1486 5.53787,-5.41495 z m -17.76448,0.30823 c 0,-0.73333 -0.63541,-1.33333 -1.41203,-1.33333 -0.77661,0 -1.0412,0.6 -0.58797,1.33333 0.45323,0.73334 1.08864,1.33334 1.41203,1.33334 0.32338,0 0.58797,-0.6 0.58797,-1.33334 z"
     style="fill:#86766e;stroke-width:1.33333325" />
  <path
     inkscape:connector-curvature="0"
     id="path470"
     d="m 24.723744,263.87005 c 4.324673,-19.61425 9.207093,-27.07062 21.608329,-33 6.841518,-3.27112 8.25108,-4.48592 7.735458,-6.66666 -0.346784,-1.46667 -1.984714,-11.36667 -3.639848,-22 -2.610342,-16.77003 -3.013705,-24.54833 -3.042302,-58.66667 -0.03561,-42.49047 1.257449,-54.573668 7.891292,-73.741133 12.802815,-36.99176 47.079727,-62.7783844 75.847457,-57.06027 6.64984,1.321776 9.68915,1.336697 14.30924,0.07025 8.16818,-2.239042 22.07694,-1.94133 29.09886,0.622849 17.09001,6.240715 30.87479,25.368451 39.34386,54.593433 12.0266,41.501241 12.34857,99.603711 0.79639,143.708711 -1.45314,5.54792 -2.98579,10.98284 -3.4059,12.07761 -0.5669,1.47735 1.4013,2.77235 7.63451,5.02323 11.56168,4.17503 18.68351,11.65869 22.32995,23.46447 1.50428,4.87029 2.73505,10.29188 2.73505,12.04797 v 3.19288 H 133.94069 23.915295 Z M 144.6708,173.58796 c 4.60445,-4.88214 5.97092,-12.24942 1.96196,-10.57782 -4.60517,1.92018 -11.79724,3.13162 -18.76908,3.16144 l -7.43574,0.0318 0.59291,4.03976 c 0.73945,5.03816 5.49718,7.83415 13.45447,7.90685 4.97221,0.0455 6.49101,-0.63416 10.19548,-4.56204 z M 99.417957,126.10109 c -4.212909,-5.00676 -4.37416,-8.74408 -0.552773,-12.81176 3.017876,-3.21239 10.849796,-4.3163 12.434246,-1.75261 0.45322,0.73334 -0.11136,1.33334 -1.25465,1.33334 -2.28009,0 -2.68173,2.31716 -0.8914,5.14268 0.74101,1.16947 2.19495,1.47657 4.11121,0.86837 2.63242,-0.83549 2.85809,-0.58993 2.01322,2.19065 -0.52335,1.7224 -2.23258,4.53403 -3.7983,6.24808 l -2.84675,3.11646 3.95253,-0.44979 c 3.16714,-0.36041 4.32728,-1.43853 5.83842,-5.42567 3.68873,-9.73269 -1.84794,-15.69078 -14.58096,-15.69078 -5.298144,0 -7.335517,0.67098 -9.937258,3.27272 -1.8,1.8 -3.272727,4.25933 -3.272727,5.46517 0,3.65606 4.089157,11.07339 6.449476,11.69871 5.213179,1.38112 5.668889,0.75569 2.335716,-3.20557 z m 57.891673,0.77982 c -6.23112,-6.63272 -2.54642,-16.67752 6.11776,-16.67752 2.40973,0 4.75214,0.6 5.20537,1.33333 0.45323,0.73334 -0.15536,1.33334 -1.35241,1.33334 -2.80306,0 -2.10082,3.89117 1.05704,5.85709 1.83493,1.14233 2.65966,1.02387 3.64624,-0.52376 1.03456,-1.62289 1.27881,-1.45362 1.29538,0.8977 0.0107,1.59374 -1.53292,4.74373 -3.43144,7 -1.89853,2.25627 -2.94853,4.09411 -2.33333,4.08409 4.40945,-0.0718 7.16203,-2.14752 9.02632,-6.80684 2.73372,-6.83222 2.67629,-7.37873 -1.18053,-11.23556 -2.60174,-2.60174 -4.63911,-3.27272 -9.93726,-3.27272 -8.15098,0 -12.69082,1.92524 -14.64298,6.20976 -1.90242,4.17535 -1.86931,4.94501 0.4516,10.49973 1.5345,3.67257 2.67956,4.62384 5.56576,4.62384 h 3.63378 z m -56.0102,-3.34419 c 0,-0.73333 -0.6,-1.33333 -1.333332,-1.33333 -0.733333,0 -1.333333,0.6 -1.333333,1.33333 0,0.73334 0.6,1.33334 1.333333,1.33334 0.733332,0 1.333332,-0.6 1.333332,-1.33334 z m 57.33333,0 c 0,-0.73333 -0.63541,-1.33333 -1.41203,-1.33333 -0.77661,0 -1.0412,0.6 -0.58797,1.33333 0.45323,0.73334 1.08864,1.33334 1.41203,1.33334 0.32338,0 0.58797,-0.6 0.58797,-1.33334 z"
     style="fill:#695750;stroke-width:1.33333325" />
  <path
     inkscape:connector-curvature="0"
     id="path468"
     d="m 25.550443,260.53672 c 2.678625,-15.36535 11.041553,-26.47245 23.520276,-31.23812 5.476392,-2.09145 5.756423,-2.44876 4.955242,-6.32264 -5.09462,-24.63354 -6.595996,-42.60134 -6.637884,-79.43924 C 47.332184,94.382149 49.485731,80.611768 60.883857,57.240956 75.8944,26.463211 109.77993,5.8905289 133.37427,13.230365 c 4.16496,1.295653 7.0993,1.499548 9.33334,0.648534 1.79216,-0.682692 6.6113,-1.729657 10.70919,-2.326588 37.98239,-5.5328165 64.20944,36.057014 69.08636,109.554419 2.09485,31.57049 -1.22612,66.99711 -8.70459,92.85643 -3.32417,11.49447 -3.23587,13.56455 0.57955,13.58659 4.63802,0.0268 15.92492,6.48853 20.05529,11.48164 4.24288,5.12912 9.53268,19.1753 9.53268,25.31245 v 3.19288 H 134.14811 24.33014 Z M 141.64188,176.77518 c 3.81832,-1.73975 6.60363,-5.96736 7.17723,-10.89379 0.49008,-4.20909 0.56621,-4.17145 -4.43288,-2.19107 -2.06442,0.81782 -8.25347,1.64542 -13.75347,1.83912 -5.5,0.1937 -9.85,0.72456 -9.66667,1.17972 0.18334,0.45516 0.33334,2.3084 0.33334,4.11831 0,5.97928 12.34887,9.58983 20.34245,5.94771 z m -40.00912,-49.22384 c -4.609774,-2.81064 -5.773058,-4.4834 -2.151395,-3.09364 1.506205,0.57799 1.979515,0.25533 1.528345,-1.04184 -0.35948,-1.03353 -1.641349,-1.70283 -2.848604,-1.48735 -3.385985,0.60435 -2.714768,-4.6599 1.077719,-8.45239 1.800005,-1.8 4.738465,-3.27273 6.529925,-3.27273 2.82623,0 3.23119,0.57336 3.06061,4.33333 -0.16112,3.5513 0.34481,4.41023 2.8034,4.75941 4.84774,0.68848 3.14453,6.00682 -3,9.36762 -2.3308,1.27485 -2.04123,1.46366 2.29909,1.49909 4.1699,0.0341 5.29179,-0.58992 7,-3.89324 3.83166,-7.40961 1.51376,-13.5846 -6.26799,-16.69824 -8.52995,-3.41301 -21.031095,0.86469 -21.031095,7.19651 0,8.08393 4.572021,13.16879 11.999995,13.34602 3.19707,0.0763 3.15619,-0.0285 -1,-2.56255 z m 73.78099,-0.61213 c 3.26186,-4.46088 3.8177,-11.19764 1.16566,-14.1281 -4.03633,-4.4601 -12.05492,-5.84993 -18.8278,-3.26334 -8.53313,3.25883 -10.57458,8.68377 -6.34537,16.86217 l 2.10681,4.07413 10.02447,-0.50621 c 7.93008,-0.40046 10.41133,-1.03531 11.87623,-3.03865 z m -17.52615,-0.0267 c -1.45789,-1.1027 -1.86033,-1.97611 -0.92151,-2 0.91667,-0.0233 1.66667,-0.9424 1.66667,-2.0424 0,-2.42175 -2.18019,-2.6549 -3.11696,-0.33334 -0.36988,0.91667 -0.71988,-0.28333 -0.77777,-2.66666 -0.12587,-5.18332 3.80832,-9.66667 8.4827,-9.66667 3.60071,0 5.7185,2.09106 3.087,3.04803 -2.6893,0.97799 0.83235,5.6377 4.16636,5.51277 3.76908,-0.14123 3.57587,2.80989 -0.4474,6.83314 -3.70241,3.70242 -8.32124,4.20281 -12.13909,1.31513 z"
     style="fill:#5b4339;stroke-width:1.33333325" />
  <path
     inkscape:connector-curvature="0"
     id="path466"
     d="m 24.932099,263.87005 c 0.327913,-2.01666 1.825901,-7.51365 3.328862,-12.2155 3.298606,-10.31938 10.813692,-18.53842 20.24338,-22.13966 6.154814,-2.35053 6.31721,-2.55381 5.503873,-6.88926 C 45.445598,176.98295 44.30679,118.11193 51.339747,84.678404 60.800618,39.702989 98.575002,5.8159297 131.29943,12.947293 c 4.4,0.958855 8.9,1.651194 10,1.53853 1.45929,-0.149464 1.52305,0.0037 0.23582,0.56664 -1.32704,0.580328 -0.99788,1.644416 1.3285,4.294539 2.57341,2.93155 2.3507,2.851474 -1.32648,-0.476945 -4.30115,-3.893203 -4.78162,-4 -17.99516,-4 -12.72954,0 -14.12871,0.277432 -22.44021,4.449512 -28.095165,14.102783 -43.414961,42.615417 -47.757141,88.883821 -2.27263,24.21618 -1.451852,33.25735 1.377766,15.17657 2.62361,-16.76441 10.605777,-36.158933 21.474212,-52.176571 5.537438,-8.160942 7.721824,-10.048032 4.630168,-4 -3.86466,7.560213 -12.761971,37.524311 -15.34151,51.666671 -3.153427,17.28872 -4.868857,34.91649 -2.659915,27.33333 6.818579,-23.40777 10.285151,-33.20031 15.812056,-44.66667 17.23041,-35.746942 40.443854,-60.52196 56.815414,-60.637381 4.7924,-0.03379 10.38533,3.900112 13.15236,9.250974 1.84944,3.576413 2.11942,3.658045 7.4195,2.243373 8.82707,-2.356077 13.90598,1.356086 20.90283,15.277831 11.03139,21.949264 17.98269,57.198353 18.05535,91.556043 0.0252,11.92996 0.23986,21.49684 0.47697,21.25974 0.23712,-0.23712 1.70379,-8.198 3.25925,-17.69084 2.33187,-14.23104 2.72373,-21.12024 2.23319,-39.25974 -0.6314,-23.34771 -3.09037,-37.64883 -9.51831,-55.357595 -4.17576,-11.504069 -2.56654,-9.752957 5.15344,5.607854 7.46613,14.855729 12.26083,32.973241 13.50435,51.028281 1.80097,26.14881 4.52154,14.12197 4.51177,-19.9452 -0.008,-26.64253 -2.81431,-41.197747 -11.18408,-58.000004 -9.49714,-19.065444 -20.4537,-29.849267 -34.05422,-33.517359 -4.03902,-1.089331 -4.95211,-1.661709 -2.73259,-1.712957 5.26913,-0.121664 17.46623,6.197858 23.75285,12.30676 15.08225,14.65586 25.30811,41.492363 30.33032,79.59821 1.69401,12.85329 2.04209,23.20709 1.52379,45.32535 -0.70326,30.01048 -3.1537,48.28458 -9.02256,67.28578 -1.53567,4.97191 -2.29539,9.46541 -1.68826,9.98559 0.60712,0.52016 3.55704,1.64197 6.55538,2.49292 9.26349,2.62902 16.32625,8.79476 20.64438,18.0224 2.12967,4.551 4.19027,11.26076 4.57912,14.91058 0.5052,4.74196 0.34623,5.87492 -0.55696,3.96939 -1.09142,-2.30263 -1.27676,-2.34813 -1.35768,-0.33333 -0.0884,2.20197 -6.09301,2.33333 -106.66262,2.33333 -100.373,0 -106.60434,-0.13565 -107.178652,-2.33333 -0.580728,-2.22223 -0.617129,-2.22223 -0.764433,0 -0.08507,1.28333 -0.671466,2.33333 -1.303106,2.33333 -0.631641,0 -0.880144,-1.65 -0.55223,-3.66667 z m 13.903237,-20.91368 c 3.000541,-3.40878 7.932457,-7.46744 10.959813,-9.0192 3.027356,-1.55177 4.799104,-3.06174 3.937217,-3.3555 -2.201069,-0.75019 -12.518361,4.70253 -16.038369,8.47632 -3.463178,3.71286 -8.305649,14.14165 -9.199474,19.81206 -0.424135,2.69071 0.272209,1.75523 2.127382,-2.85793 1.516847,-3.77187 5.212891,-9.64695 8.213431,-13.05575 z m 199.807554,9.64794 c -1.67041,-4.58128 -4.28009,-10.0108 -5.79927,-12.0656 -3.01273,-4.07495 -16.95733,-11.6693 -21.42382,-11.6676 -1.5999,6e-4 0.64352,1.624 5.26678,3.8112 9.62752,4.55462 18.33118,13.82641 21.58854,22.99773 1.24813,3.51419 2.52482,6.13393 2.83712,5.82165 0.31228,-0.31228 -0.79894,-4.3161 -2.46935,-8.89738 z m -68.26764,-9.76954 c -0.41052,-0.41052 -1.15606,0.32948 -1.65677,1.64444 -0.72357,1.90027 -0.57043,2.05342 0.7464,0.7464 0.91123,-0.90445 1.32089,-1.98032 0.91037,-2.39084 z m -73.175184,-4.8355 C 93.960028,231.638 87.87922,223.17916 87.103776,223.9546 c -0.269753,0.26975 2.213916,4.60795 5.519265,9.64043 3.305348,5.03249 6.009724,9.72812 6.009724,10.43472 0,0.70661 0.341857,0.94289 0.759681,0.52506 0.417826,-0.41782 -0.568745,-3.36782 -2.19238,-6.55554 z m -2.378189,-24.14924 c 1.094249,-2.04463 0.327947,-1.7757 -3.387437,1.18882 -2.640878,2.10716 -4.801613,4.29503 -4.801636,4.86194 -6.5e-5,1.7134 6.67234,-3.21672 8.189073,-6.05076 z m 46.748153,-37.05065 c 3.57076,-1.6369 9.67974,-9.72366 7.81509,-10.3452 -0.69808,-0.2327 -0.91943,-1.33462 -0.49191,-2.44872 0.63568,-1.65655 1.00939,-1.70159 2.05088,-0.2472 0.95259,1.33025 1.08439,1.1904 0.52296,-0.55487 -0.41282,-1.28333 -0.16942,-2.33333 0.54088,-2.33333 0.71032,0 1.2915,-0.61796 1.2915,-1.37326 0,-0.75528 -1.65886,-0.1468 -3.68635,1.35219 -4.59217,3.39515 -17.113,5.55623 -27.64699,4.77185 -4.4,-0.32762 -6.62602,-0.28572 -4.94672,0.0932 2.07165,0.46738 3.30714,1.95816 3.8429,4.63695 0.43429,2.17147 2.04382,4.8266 3.57673,5.90029 3.24492,2.27283 12.70823,2.57563 17.13103,0.54815 z m -24.36934,-48.47702 c 2.79889,-3.37246 3.29332,-11.11467 0.93923,-14.70746 -2.93198,-4.47478 -11.73426,-6.83171 -18.237406,-4.88332 -7.13522,2.13776 -9.78458,5.64281 -8.687105,11.49285 1.482528,7.90256 4.656573,9.97896 15.254091,9.97896 6.2668,0 9.66433,-0.59554 10.73119,-1.88103 z m -17.420213,-2.18492 -3.147712,-2.73262 4.267125,2.06595 c 5.52935,2.67707 7.49884,2.60452 10.1958,-0.37558 2.82444,-3.12098 1.34444,-4.70837 -2.12448,-2.27864 -2.99972,2.10108 -6.33845,1.3518 -6.33845,-1.42248 0,-1.02154 -0.9,-1.85735 -1.99999,-1.85735 -1.100005,0 -2.000005,0.72 -2.000005,1.6 0,1.10489 -0.427928,1.17208 -1.382881,0.21712 -3.371424,-3.37142 3.017926,-11.15045 9.158486,-11.15045 2.10461,0 2.57906,0.84921 2.42099,4.33333 -0.16112,3.5513 0.34481,4.41023 2.8034,4.75941 3.8482,0.54653 3.8165,3.0087 -0.0859,6.67484 -3.86565,3.63159 -7.71218,3.68601 -11.766352,0.16647 z m 74.777913,1.47365 c 3.90432,-3.90432 4.94744,-11.56633 2.01569,-14.80587 -3.73656,-4.12885 -11.05363,-5.78982 -17.66423,-4.00977 -7.10185,1.91232 -10.24357,6.32309 -9.17854,12.88607 1.21713,7.50031 2.78326,8.52187 13.0647,8.52187 7.30462,0 9.69743,-0.52735 11.76238,-2.5923 z m -16.67079,-0.84988 c -2.55147,-2.07894 -2.55036,-2.09542 0.0785,-1.16187 5.57984,1.98148 8.08119,2.03312 10.53704,0.21754 3.81714,-2.82199 1.46755,-5.44812 -2.5306,-2.82844 -2.97546,1.94961 -3.30306,1.90421 -4.91785,-0.68148 -2.11171,-3.3813 -4.68012,-3.58522 -5.50285,-0.4369 -0.33538,1.28333 -0.67938,0.4067 -0.76444,-1.94806 -0.18264,-5.05564 4.06513,-9.71861 8.85326,-9.71861 2.48488,0 3.00139,0.53682 2.38502,2.47883 -1.13644,3.5806 0.49532,6.8545 3.41637,6.8545 3.5338,0 3.25093,4.67297 -0.43933,7.25773 -3.78791,2.65315 -7.833,2.64106 -11.11515,-0.0332 z M 146.18832,26.647834 c -0.48889,-0.488888 -0.88889,-1.508888 -0.88889,-2.266667 0,-0.835472 0.62102,-0.756749 1.57777,0.2 0.86779,0.867779 1.26779,1.887779 0.88889,2.266667 -0.37889,0.378889 -1.08889,0.288889 -1.57777,-0.2 z m -10.55556,-3.994152 c 0.91667,-0.369883 2.41667,-0.369883 3.33333,0 0.91667,0.369884 0.16667,0.672514 -1.66666,0.672514 -1.83334,0 -2.58334,-0.30263 -1.66667,-0.672514 z m 14.75,-10.694444 c 0.96249,-0.385161 2.11249,-0.337792 2.55556,0.105263 0.44305,0.443055 -0.34445,0.758187 -1.75,0.700292 -1.55327,-0.06398 -1.8692,-0.37992 -0.80556,-0.805555 z"
     style="fill:#743915;stroke-width:1.33333325" />
  <path
     inkscape:connector-curvature="0"
     id="path464"
     d="m 24.932099,263.87005 c 0.327913,-2.01666 1.825901,-7.51365 3.328862,-12.2155 3.298606,-10.31938 10.813692,-18.53842 20.24338,-22.13966 6.154814,-2.35053 6.31721,-2.55381 5.503873,-6.88926 C 45.445598,176.98295 44.30679,118.11193 51.339747,84.678404 60.800618,39.702989 98.575002,5.8159297 131.29943,12.947293 c 4.4,0.958855 8.9,1.651194 10,1.53853 1.45929,-0.149464 1.52305,0.0037 0.23582,0.56664 -1.32704,0.580328 -0.99788,1.644416 1.3285,4.294539 2.57341,2.93155 2.3507,2.851474 -1.32648,-0.476945 -4.30115,-3.893203 -4.78162,-4 -17.99516,-4 -12.72954,0 -14.12871,0.277432 -22.44021,4.449512 -28.095165,14.102783 -43.414961,42.615417 -47.757141,88.883821 -2.27263,24.21618 -1.451852,33.25735 1.377766,15.17657 2.62361,-16.76441 10.605777,-36.158933 21.474212,-52.176571 5.537438,-8.160942 7.721824,-10.048032 4.630168,-4 -3.86466,7.560213 -12.761971,37.524311 -15.34151,51.666671 -3.153427,17.28872 -4.868857,34.91649 -2.659915,27.33333 6.818579,-23.40777 10.285151,-33.20031 15.812056,-44.66667 17.23041,-35.746942 40.443854,-60.52196 56.815414,-60.637381 4.7924,-0.03379 10.38533,3.900112 13.15236,9.250974 1.84944,3.576413 2.11942,3.658045 7.4195,2.243373 8.82707,-2.356077 13.90598,1.356086 20.90283,15.277831 11.03139,21.949264 17.98269,57.198353 18.05535,91.556043 0.0252,11.92996 0.23986,21.49684 0.47697,21.25974 0.23712,-0.23712 1.70379,-8.198 3.25925,-17.69084 2.33187,-14.23104 2.72373,-21.12024 2.23319,-39.25974 -0.6314,-23.34771 -3.09037,-37.64883 -9.51831,-55.357595 -4.17576,-11.504069 -2.56654,-9.752957 5.15344,5.607854 7.46613,14.855729 12.26083,32.973241 13.50435,51.028281 1.80097,26.14881 4.52154,14.12197 4.51177,-19.9452 -0.008,-26.64253 -2.81431,-41.197747 -11.18408,-58.000004 -9.49714,-19.065444 -20.4537,-29.849267 -34.05422,-33.517359 -4.03902,-1.089331 -4.95211,-1.661709 -2.73259,-1.712957 5.26913,-0.121664 17.46623,6.197858 23.75285,12.30676 15.08225,14.65586 25.30811,41.492363 30.33032,79.59821 1.69401,12.85329 2.04209,23.20709 1.52379,45.32535 -0.70326,30.01048 -3.1537,48.28458 -9.02256,67.28578 -1.53567,4.97191 -2.29539,9.46541 -1.68826,9.98559 0.60712,0.52016 3.55704,1.64197 6.55538,2.49292 9.26349,2.62902 16.32625,8.79476 20.64438,18.0224 2.12967,4.551 4.19027,11.26076 4.57912,14.91058 0.5052,4.74196 0.34623,5.87492 -0.55696,3.96939 -1.09142,-2.30263 -1.27676,-2.34813 -1.35768,-0.33333 -0.0884,2.20197 -6.09301,2.33333 -106.66262,2.33333 -100.373,0 -106.60434,-0.13565 -107.178652,-2.33333 -0.580728,-2.22223 -0.617129,-2.22223 -0.764433,0 -0.08507,1.28333 -0.671466,2.33333 -1.303106,2.33333 -0.631641,0 -0.880144,-1.65 -0.55223,-3.66667 z m 13.903237,-20.91368 c 3.000541,-3.40878 7.932457,-7.46744 10.959813,-9.0192 3.027356,-1.55177 4.799104,-3.06174 3.937217,-3.3555 -2.201069,-0.75019 -12.518361,4.70253 -16.038369,8.47632 -3.463178,3.71286 -8.305649,14.14165 -9.199474,19.81206 -0.424135,2.69071 0.272209,1.75523 2.127382,-2.85793 1.516847,-3.77187 5.212891,-9.64695 8.213431,-13.05575 z m 199.807554,9.64794 c -1.67041,-4.58128 -4.28009,-10.0108 -5.79927,-12.0656 -3.01273,-4.07495 -16.95733,-11.6693 -21.42382,-11.6676 -1.5999,6e-4 0.64352,1.624 5.26678,3.8112 9.62752,4.55462 18.33118,13.82641 21.58854,22.99773 1.24813,3.51419 2.52482,6.13393 2.83712,5.82165 0.31228,-0.31228 -0.79894,-4.3161 -2.46935,-8.89738 z m -68.26764,-9.76954 c -0.41052,-0.41052 -1.15606,0.32948 -1.65677,1.64444 -0.72357,1.90027 -0.57043,2.05342 0.7464,0.7464 0.91123,-0.90445 1.32089,-1.98032 0.91037,-2.39084 z m -73.175184,-4.8355 C 93.960028,231.638 87.87922,223.17916 87.103776,223.9546 c -0.269753,0.26975 2.213916,4.60795 5.519265,9.64043 3.305348,5.03249 6.009724,9.72812 6.009724,10.43472 0,0.70661 0.341857,0.94289 0.759681,0.52506 0.417826,-0.41782 -0.568745,-3.36782 -2.19238,-6.55554 z m 38.766024,-0.22055 c 0,-1.70023 0.92819,-6.21689 2.06266,-10.03701 1.64928,-5.55378 3.18569,-7.72987 7.66666,-10.85875 3.0822,-2.15217 6.99506,-4.89448 8.6952,-6.09401 4.43888,-3.13182 2.62678,-3.87566 -2.63394,-1.0812 -3.36798,1.78905 -7.55272,2.36766 -17.12391,2.36766 -9.57118,0 -13.75593,-0.57861 -17.12391,-2.36766 -7.63239,-4.05428 -6.14356,-1.34506 2.47845,4.51004 8.8226,5.99132 11.41404,10.15977 12.85592,20.67938 0.84996,6.20118 3.12287,8.29844 3.12287,2.88155 z M 94.821877,213.85003 c 1.094249,-2.04463 0.327947,-1.7757 -3.387437,1.18882 -2.640878,2.10716 -4.801613,4.29503 -4.801636,4.86194 -6.5e-5,1.7134 6.67234,-3.21672 8.189073,-6.05076 z m 57.144213,-18.93845 c 6.74026,-3.50603 23.8336,-16.57258 25.32475,-19.35882 5.27124,-9.8494 10.82633,-45.68537 8.77605,-56.61435 -0.90184,-4.80716 -1.03217,-4.90876 -3.46873,-2.70371 -1.39243,1.26013 -3.23247,4.46859 -4.08897,7.12992 -2.50787,7.7924 -3.23102,8.19271 -14.37302,7.95651 l -10.17008,-0.21559 9.77652,-0.78441 c 10.79244,-0.86592 12.85512,-2.35485 14.35766,-10.364 2.20989,-11.77978 -17.18835,-16.5733 -26.66067,-6.58816 -2.17453,2.29227 -3.51025,3.41775 -2.96825,2.50109 0.542,-0.91667 0.34496,-1.66667 -0.43787,-1.66667 -0.94447,0 -0.88164,-0.86737 0.18679,-2.57818 0.88554,-1.418 1.94064,-2.5531 2.34462,-2.52246 1.84799,0.14016 6.73454,-1.98586 6.73454,-2.93004 0,-0.57915 1.2,-0.73919 2.66666,-0.35565 1.46667,0.38354 2.66667,0.16343 2.66667,-0.48914 0,-1.59929 10.42132,-1.93353 11.39053,-0.36532 0.42176,0.68244 2.87316,1.24079 5.44756,1.24079 4.09143,0 4.62707,-0.37769 4.25464,-3 -0.37804,-2.66182 -1.50898,-3.13277 -10.03272,-4.17781 -7.83513,-0.960613 -10.78562,-0.759025 -16,1.09318 -9.69394,3.44339 -12.39334,3.9171 -12.39334,2.17488 0,-2.633151 10.93008,-6.698553 18,-6.695041 3.66666,0.0019 9.29585,0.609458 12.5093,1.350305 3.21344,0.740845 6.07998,1.109649 6.37006,0.819564 0.66445,-0.664455 -7.2024,-24.319699 -9.70826,-29.192221 -2.12726,-4.136368 -4.7216,-5.752061 -13.57644,-8.455062 -9.75457,-2.977655 -22.74438,-3.747933 -33.26864,-1.972787 -8.3907,1.415275 -10.09712,2.216344 -14.05624,6.598608 -5.56866,6.163852 -13.799882,17.252368 -19.990177,26.929357 l -4.683276,7.321137 9.535171,-2.477563 c 8.852872,-2.300277 10.021542,-2.328389 16.332302,-0.392868 6.33669,1.943471 12.52037,6.536601 10.9348,8.122171 -0.38289,0.38289 -3.71635,-0.82079 -7.40769,-2.67484 -7.39023,-3.711912 -12.61712,-4.131696 -23.258614,-1.867963 -6.496754,1.382033 -8.992158,2.898543 -9.04521,5.496953 -0.02964,1.45186 10.346794,1.22988 11.25572,-0.24079 0.855585,-1.38436 11.390524,-1.32755 11.390524,0.0614 0,0.71837 6.85032,2.63845 10.97432,3.07599 0.53588,0.0568 1.87726,1.39249 2.98084,2.96807 1.60651,2.29362 1.65901,2.99806 0.26332,3.53363 -0.95875,0.36791 -2.43888,-0.44505 -3.28917,-1.80658 -2.30094,-3.6844 -11.70362,-5.848 -17.659556,-4.06356 -6.984837,2.09271 -9.779798,5.6683 -8.744513,11.18684 1.510268,8.05042 3.561556,9.53592 14.364899,10.40271 l 9.77653,0.78444 -10.17008,0.21559 c -10.747424,0.22783 -12.045448,-0.37895 -13.800122,-6.45107 -1.411867,-4.88583 -7.442792,-13.33334 -9.519061,-13.33334 -3.19168,0 -3.364979,5.73557 -0.645283,21.35659 1.466056,8.42055 3.066319,19.36325 3.556137,24.31713 0.679127,6.86848 1.865502,10.47892 4.996681,15.20614 4.72897,7.13944 24.376068,22.2978 31.530058,24.32642 7.33262,2.0793 25.25421,1.0108 30.71833,-1.83142 z m -32.93573,-23.67596 c -2.86207,-3.69554 -3.18954,-5.03223 -1.23281,-5.03223 1.09387,0 2.38406,1.24521 2.8671,2.76715 1.06495,3.35536 0.17035,4.59524 -1.63429,2.26508 z m 30.26907,-7.6989 c 0.78493,-1.46666 1.64988,-2.66666 1.92208,-2.66666 0.27221,0 0.18113,1.2 -0.20242,2.66666 -0.38354,1.46667 -1.24848,2.66667 -1.92209,2.66667 -0.67661,0 -0.58603,-1.19344 0.20243,-2.66667 z m -19.66667,-9.32442 c -4.82667,-2.02127 -3.53872,-2.67558 5.26667,-2.67558 5.4058,0 7.81389,0.45278 6.95833,1.30834 -2.00355,2.00354 -8.87137,2.77164 -12.225,1.36724 z m -29.852283,-28.07486 -3.147712,-2.73262 4.267115,2.06595 c 5.52936,2.67707 7.49885,2.60452 10.19581,-0.37558 2.82444,-3.12098 1.34444,-4.70837 -2.12448,-2.27864 -2.99972,2.10108 -6.33845,1.3518 -6.33845,-1.42248 0,-1.02154 -0.9,-1.85735 -2,-1.85735 -1.099995,0 -1.999995,0.72 -1.999995,1.6 0,1.10489 -0.427928,1.17208 -1.382881,0.21712 -3.371424,-3.37142 3.017926,-11.15045 9.158486,-11.15045 2.10461,0 2.57906,0.84921 2.42099,4.33333 -0.16112,3.5513 0.34481,4.41023 2.8034,4.75941 3.8482,0.54653 3.8165,3.0087 -0.0859,6.67484 -3.86565,3.63159 -7.71218,3.68601 -11.766352,0.16647 z m 18.493903,-0.0409 c 0.47148,-1.80294 1.07587,-2.40733 1.40873,-1.40874 0.32064,0.96192 -0.051,2.38288 -0.82575,3.15768 -0.98942,0.98943 -1.16295,0.46885 -0.58298,-1.74894 z m 39.61322,0.66469 c -2.55147,-2.07893 -2.55036,-2.09541 0.0785,-1.16187 5.57984,1.98149 8.08119,2.03313 10.53704,0.21754 3.81714,-2.82198 1.46755,-5.44811 -2.5306,-2.82843 -2.97546,1.9496 -3.30306,1.9042 -4.91785,-0.68149 -2.11171,-3.38129 -4.68012,-3.58521 -5.50285,-0.43689 -0.33538,1.28333 -0.67938,0.4067 -0.76444,-1.94806 -0.18264,-5.05564 4.06513,-9.71861 8.85326,-9.71861 2.48488,0 3.00139,0.53682 2.38502,2.47883 -1.13644,3.5806 0.49532,6.8545 3.41637,6.8545 3.5338,0 3.25093,4.67297 -0.43933,7.25773 -3.78791,2.65315 -7.833,2.64106 -11.11515,-0.0332 z M 146.18832,26.647834 c -0.48889,-0.488888 -0.88889,-1.508888 -0.88889,-2.266667 0,-0.835472 0.62102,-0.756749 1.57777,0.2 0.86779,0.867779 1.26779,1.887779 0.88889,2.266667 -0.37889,0.378889 -1.08889,0.288889 -1.57777,-0.2 z m -10.55556,-3.994152 c 0.91667,-0.369883 2.41667,-0.369883 3.33333,0 0.91667,0.369884 0.16667,0.672514 -1.66666,0.672514 -1.83334,0 -2.58334,-0.30263 -1.66667,-0.672514 z m 14.75,-10.694444 c 0.96249,-0.385161 2.11249,-0.337792 2.55556,0.105263 0.44305,0.443055 -0.34445,0.758187 -1.75,0.700292 -1.55327,-0.06398 -1.8692,-0.37992 -0.80556,-0.805555 z"
     style="fill:#64311e;stroke-width:1.33333325" />
  <path
     inkscape:connector-curvature="0"
     id="path462"
     d="m 25.393147,264.67717 c -0.05155,-1.93942 1.148225,-7.54716 2.666149,-12.46162 3.313717,-10.72856 10.7676,-19.0048 20.445045,-22.70066 6.154814,-2.35053 6.31721,-2.55381 5.503873,-6.88926 C 45.445598,176.98295 44.30679,118.11193 51.339747,84.678404 60.800618,39.702989 98.575002,5.8159297 131.29943,12.947293 c 4.4,0.958855 8.9,1.651194 10,1.53853 1.45929,-0.149464 1.52305,0.0037 0.23582,0.56664 -1.32704,0.580328 -0.99788,1.644416 1.3285,4.294539 2.57341,2.93155 2.3507,2.851474 -1.32648,-0.476945 -4.30115,-3.893203 -4.78162,-4 -17.99516,-4 -12.72954,0 -14.12871,0.277432 -22.44021,4.449512 -28.095165,14.102783 -43.414961,42.615417 -47.757141,88.883821 -2.27263,24.21618 -1.451852,33.25735 1.377766,15.17657 2.62361,-16.76441 10.605777,-36.158933 21.474212,-52.176571 5.537438,-8.160942 7.721824,-10.048032 4.630168,-4 -3.86466,7.560213 -12.761971,37.524311 -15.34151,51.666671 -3.153427,17.28872 -4.868857,34.91649 -2.659915,27.33333 6.818579,-23.40777 10.285151,-33.20031 15.812056,-44.66667 17.23041,-35.746942 40.443854,-60.52196 56.815414,-60.637381 4.7924,-0.03379 10.38533,3.900112 13.15236,9.250974 1.84944,3.576413 2.11942,3.658045 7.4195,2.243373 8.82707,-2.356077 13.90598,1.356086 20.90283,15.277831 11.03139,21.949264 17.98269,57.198353 18.05535,91.556043 0.0252,11.92996 0.23986,21.49684 0.47697,21.25974 0.23712,-0.23712 1.70379,-8.198 3.25925,-17.69084 2.33187,-14.23104 2.72373,-21.12024 2.23319,-39.25974 -0.6314,-23.34771 -3.09037,-37.64883 -9.51831,-55.357595 -4.17576,-11.504069 -2.56654,-9.752957 5.15344,5.607854 7.46613,14.855729 12.26083,32.973241 13.50435,51.028281 1.80097,26.14881 4.52154,14.12197 4.51177,-19.9452 -0.008,-26.64253 -2.81431,-41.197747 -11.18408,-58.000004 -9.49714,-19.065444 -20.4537,-29.849267 -34.05422,-33.517359 -4.03902,-1.089331 -4.95211,-1.661709 -2.73259,-1.712957 5.26913,-0.121664 17.46623,6.197858 23.75285,12.30676 15.08225,14.65586 25.30811,41.492363 30.33032,79.59821 1.69401,12.85329 2.04209,23.20709 1.52379,45.32535 -0.70326,30.01048 -3.1537,48.28458 -9.02256,67.28578 -1.53567,4.97191 -2.29539,9.46541 -1.68826,9.98559 0.60712,0.52016 3.55704,1.64197 6.55538,2.49292 9.29257,2.63728 16.33162,8.79258 20.57493,17.9918 2.09147,4.53414 4.14039,11.2439 4.55315,14.91057 0.84026,7.46425 -0.22567,5.37292 -3.7811,-7.4184 -2.87248,-10.33429 -8.46744,-17.51367 -16.93818,-21.73481 -10.77502,-5.36943 -11.75288,-5.0099 -17.65779,6.49226 -5.07418,9.88402 -7.86297,12.80786 -6.67124,6.99428 0.35222,-1.71814 -0.27425,-1.07492 -1.46613,1.50539 -1.14461,2.47796 -4.22096,8.02796 -6.83635,12.33333 -4.64938,7.65372 -4.88661,7.82795 -10.65868,7.82795 h -5.90346 l -0.15775,-7 c -0.0868,-3.85 -0.537,-8.76733 -1.00052,-10.9274 l -0.84277,-3.92739 -1.66598,3.65643 c -1.64314,3.60629 -1.70988,3.62359 -4.86646,1.26073 -1.76027,-1.31764 -4.29552,-4.01637 -5.63388,-5.99718 -2.22106,-3.28722 -2.63203,-3.42172 -4.70976,-1.54139 -1.25202,1.13304 -1.96187,2.87969 -1.57746,3.88144 0.3844,1.00175 -0.83068,5.16244 -2.70018,9.24599 -1.86951,4.08354 -3.0603,8.30756 -2.64619,9.3867 0.63021,1.6423 -1.31007,1.96207 -11.90507,1.96207 h -12.65798 l -0.69087,-3.66667 c -1.67872,-8.90964 -5.02851,-18.34264 -7.33158,-20.6457 -2.44706,-2.44707 -2.5707,-2.40164 -5.63467,2.06993 -1.72299,2.51453 -4.21189,5.24584 -5.53088,6.06956 -2.06905,1.29215 -2.78284,0.74363 -5.201288,-3.99692 -1.541722,-3.02203 -4.617066,-7.97011 -6.834098,-10.99573 l -4.030965,-5.50114 0.925315,6 c 0.960903,6.23076 5.426635,24.88568 6.837316,28.56186 0.674419,1.7575 -0.381233,2.10481 -6.397696,2.10481 -6.59561,0 -7.606078,-0.42315 -11.940106,-5 -7.969669,-8.4162 -11.883454,-14.48288 -15.882049,-24.61844 -3.808228,-9.65303 -3.833582,-9.68092 -3.981001,-4.38156 l -0.148363,5.33333 -1.564198,-4.98824 -1.564198,-4.98825 -6.721153,3.13105 c -3.696634,1.72207 -8.300024,5.00743 -10.229753,7.30078 -3.482885,4.13917 -8.96312,16.88332 -9.142806,21.26134 -0.05154,1.25583 -0.609372,3.48332 -1.23962,4.94999 -1.029536,2.39585 -1.155423,2.30857 -1.23962,-0.85955 z m 85.815173,-25.72666 c 4.07583,-6.18908 8.76371,-12.22028 10.41752,-13.40266 l 3.00692,-2.14977 -2.83595,-2.26401 c -1.55977,-1.24522 -5.64246,-3.91899 -9.07265,-5.94175 -7.51512,-4.43159 -10.85844,-10.79788 -8.67984,-16.52801 1.36968,-3.60253 1.34754,-3.62453 -1.26652,-1.25885 -1.4633,1.32428 -3.061423,4.23293 -3.551376,6.46366 -0.489952,2.23073 -3.52396,6.615 -6.74224,9.74281 -3.647311,3.54479 -5.846001,6.86176 -5.837039,8.80586 0.0079,1.71541 2.637207,6.87397 5.842881,11.46346 3.205675,4.58951 6.571996,10.13951 7.480714,12.33334 0.90872,2.19384 2.14153,3.9888 2.73959,3.9888 0.59806,0 4.42216,-5.0638 8.49799,-11.25288 z m 57.37225,8.25288 c 0.50902,-1.65 1.11804,-11.99768 1.35336,-22.99486 0.32426,-15.15222 -0.0215,-20.86366 -1.42716,-23.58211 -2.63021,-5.08627 -4.6067,-5.8783 -2.81345,-1.12742 1.27851,3.38712 1.09661,4.53189 -1.21961,7.67593 -1.49723,2.03232 -5.62494,5.61755 -9.1727,7.96718 -3.54776,2.34964 -7.38006,5.20166 -8.51625,6.33785 -1.86549,1.86549 -1.77843,2.26707 0.89803,4.14173 1.63009,1.14176 6.29858,7.13974 10.37441,13.32882 4.07584,6.18908 7.90273,11.25288 8.50424,11.25288 0.60149,0 1.51011,-1.35 2.01913,-3 z m -31.98393,-12.66667 c 1.47631,-10.01773 4.46517,-14.88112 12.17728,-19.81449 7.34259,-4.697 11.10505,-8.54578 6.41089,-6.55798 -5.36462,2.27175 -15.99512,4.7058 -20.55205,4.7058 -4.55693,0 -15.18743,-2.43405 -20.55206,-4.7058 -4.58151,-1.9401 -1.05597,1.71426 6.47883,6.71558 7.79774,5.17584 10.66,9.82209 12.10934,19.65689 0.51334,3.48333 1.39709,6.33333 1.96389,6.33333 0.5668,0 1.45055,-2.85 1.96388,-6.33333 z m 12.53705,-38.27485 c 8.27166,-2.91841 26.73715,-17.50484 28.9921,-22.90171 5.59178,-13.38301 9.77793,-42.03384 7.93609,-54.31615 -1.14315,-7.62298 -2.62447,-6.99252 -7.04109,2.99674 -1.82286,4.12278 -4.00587,7.93679 -4.85115,8.47556 -0.84528,0.53877 -5.43688,0.89436 -10.20355,0.79021 l -8.66666,-0.18938 9.10868,-0.79021 c 10.07045,-0.87365 12.21656,-2.50421 13.69941,-10.40851 1.03529,-5.51854 -1.75967,-9.09413 -8.74451,-11.18684 -5.95729,-1.78485 -15.10812,0.32357 -17.74528,4.08864 -1.17884,1.68303 -2.3957,2.15938 -3.6058,1.4115 -1.38134,-0.85372 -0.71588,-1.81109 2.73051,-3.92824 7.17183,-4.40574 14.06935,-5.75304 24.22928,-4.73271 9.13427,0.91731 9.2142,0.89716 8.77299,-2.21224 -0.31948,-2.25142 -1.5754,-3.378375 -4.44528,-3.988814 -7.259,-1.544029 -18.58123,-1.081785 -24,0.979834 -8.59542,3.27019 -10,3.57376 -10,2.16127 0,-1.89934 8.77438,-5.819545 14.84932,-6.634364 2.82593,-0.379039 8.79924,0.03113 13.274,0.911484 4.47476,0.880355 8.40192,1.334651 8.72702,1.009545 0.58051,-0.580509 -5.57805,-20.12825 -8.99417,-28.548203 -3.8588,-9.511025 -30.32327,-15.253365 -50.4272,-10.941844 -5.48279,1.175847 -7.7787,2.634617 -12.6182,8.017297 -5.82258,6.476118 -23.803896,31.996636 -23.064932,32.7356 0.208227,0.208226 3.295956,-0.499403 6.86162,-1.57251 3.565664,-1.073106 9.111562,-1.951104 12.324232,-1.951104 5.57887,0 15.28635,3.783394 17.05653,6.647619 1.31061,2.12061 -1.61968,1.5946 -7.32156,-1.31429 -8.76667,-4.472417 -28.345149,-2.690185 -31.834997,2.89795 -1.739153,2.78483 -1.685541,2.79606 8.929801,1.87007 11.650286,-1.01627 18.152846,0.17519 25.462186,4.66541 3.44639,2.11715 4.11185,3.07452 2.73051,3.92824 -1.2101,0.74788 -2.42697,0.27153 -3.60581,-1.4115 -2.63716,-3.76507 -11.78798,-5.87349 -17.745266,-4.08864 -6.984837,2.09271 -9.779798,5.6683 -8.744513,11.18684 1.482856,7.9043 3.628957,9.53486 13.699419,10.40851 l 9.10867,0.79021 -8.66666,0.18938 c -4.76667,0.10416 -9.336024,-0.25144 -10.154128,-0.79021 -0.818105,-0.53877 -3.06737,-4.33593 -4.998369,-8.43813 -4.325349,-9.18873 -8.414885,-13.37675 -10.241817,-10.48844 -1.733641,2.74083 -1.580305,5.34166 1.293915,21.94698 1.396261,8.06667 2.964646,18.76055 3.4853,23.76418 0.726078,6.97781 1.917672,10.54281 5.114205,15.30061 4.87205,7.25169 21.824334,20.74885 29.500894,23.48819 7.04125,2.51262 22.94064,2.60437 29.83426,0.17217 z m -30.10333,-25.02625 c -2.86207,-3.69554 -3.18954,-5.03223 -1.23281,-5.03223 1.09387,0 2.38406,1.24521 2.8671,2.76715 1.06495,3.35536 0.17035,4.59524 -1.63429,2.26508 z m 30.26907,-7.6989 c 0.78493,-1.46666 1.64988,-2.66666 1.92208,-2.66666 0.27221,0 0.18113,1.2 -0.20242,2.66666 -0.38354,1.46667 -1.24848,2.66667 -1.92209,2.66667 -0.67661,0 -0.58603,-1.19344 0.20243,-2.66667 z m -20,-10 c -3.14568,-1.79822 -2.84542,-1.9055 5.33333,-1.9055 8.17875,0 8.479,0.10733 5.33333,1.9055 -1.83333,1.04803 -4.23333,1.90551 -5.33333,1.90551 -1.1,0 -3.5,-0.85748 -5.33333,-1.90551 z m -29.518953,-27.39928 -3.147712,-2.73262 4.267125,2.06595 c 5.52935,2.67707 7.49884,2.60452 10.1958,-0.37558 2.82444,-3.12098 1.34444,-4.70837 -2.12448,-2.27864 -2.99972,2.10108 -6.33845,1.3518 -6.33845,-1.42248 0,-1.02154 -0.9,-1.85735 -1.99999,-1.85735 -1.100005,0 -2.000005,0.72 -2.000005,1.6 0,1.10489 -0.427928,1.17208 -1.382881,0.21712 -3.371424,-3.37142 3.017926,-11.15045 9.158486,-11.15045 2.10461,0 2.57906,0.84921 2.42099,4.33333 -0.16112,3.5513 0.34481,4.41023 2.8034,4.75941 3.8482,0.54653 3.8165,3.0087 -0.0859,6.67484 -3.86565,3.63159 -7.71218,3.68601 -11.766352,0.16647 z m 58.107123,0.62377 c -2.55147,-2.07894 -2.55036,-2.09542 0.0785,-1.16187 5.57984,1.98148 8.08119,2.03312 10.53704,0.21754 3.81714,-2.82199 1.46755,-5.44812 -2.5306,-2.82844 -2.97546,1.94961 -3.30306,1.90421 -4.91785,-0.68148 -2.11171,-3.3813 -4.68012,-3.58522 -5.50285,-0.4369 -0.33538,1.28333 -0.67938,0.4067 -0.76444,-1.94806 -0.18264,-5.05564 4.06513,-9.71861 8.85326,-9.71861 2.48488,0 3.00139,0.53682 2.38502,2.47883 -1.13644,3.5806 0.49532,6.8545 3.41637,6.8545 3.5338,0 3.25093,4.67297 -0.43933,7.25773 -3.78791,2.65315 -7.833,2.64106 -11.11515,-0.0332 z M 146.18832,26.647834 c -0.48889,-0.488888 -0.88889,-1.508888 -0.88889,-2.266667 0,-0.835472 0.62102,-0.756749 1.57777,0.2 0.86779,0.867779 1.26779,1.887779 0.88889,2.266667 -0.37889,0.378889 -1.08889,0.288889 -1.57777,-0.2 z m -10.55556,-3.994152 c 0.91667,-0.369883 2.41667,-0.369883 3.33333,0 0.91667,0.369884 0.16667,0.672514 -1.66666,0.672514 -1.83334,0 -2.58334,-0.30263 -1.66667,-0.672514 z m 14.75,-10.694444 c 0.96249,-0.385161 2.11249,-0.337792 2.55556,0.105263 0.44305,0.443055 -0.34445,0.758187 -1.75,0.700292 -1.55327,-0.06398 -1.8692,-0.37992 -0.80556,-0.805555 z"
     style="fill:#4c342a;stroke-width:1.33333325" />
  <path
     inkscape:connector-curvature="0"
     id="path460"
     d="m 25.413689,264.95752 c -0.212784,-6.04491 4.028951,-18.05681 8.600511,-24.35523 3.362506,-4.63266 6.667413,-7.24141 12.668544,-10 l 8.119235,-3.73224 -0.827132,-5.33333 C 47.402177,179.15626 46.12527,162.75067 47.037317,132.40391 48.450071,85.397014 54.127913,63.995686 71.217791,41.261123 81.822563,27.153659 100.12491,14.941287 112.82919,13.495621 l 5.1369,-0.584547 -4.99447,1.29084 C 91.787084,19.677141 70.65416,40.294916 60.837206,65.065479 51.298305,89.134445 46.141178,135.84668 49.156165,170.87006 c 2.206936,25.6367 5.670804,50.03735 6.987669,49.22349 0.635579,-0.39282 1.211979,-2.0288 1.280887,-3.63552 0.06891,-1.60672 0.913896,0.97869 1.877749,5.74536 2.99858,14.82925 9.502298,27.04378 21.120806,39.66666 3.320736,3.6078 4.489124,5.66667 3.215783,5.66667 -2.309858,0 -11.108272,-9.18907 -16.277352,-17.00008 -1.949741,-2.94625 -4.998719,-9.47652 -6.775506,-14.51171 l -3.230523,-9.15488 -0.02812,5.8889 c -0.03115,6.52177 -0.880616,6.88705 -1.752765,0.75369 -0.465839,-3.27599 -1.126647,-3.91404 -3.753695,-3.62444 -4.626301,0.51001 -13.208629,6.90347 -17.476327,13.01909 -2.032692,2.91286 -4.848034,9.7961 -6.256314,15.2961 -1.40828,5.5 -2.611924,8.53936 -2.674765,6.75413 z m 64.702947,-8.4208 c -6.444447,-20.27461 -7.602668,-29.97141 -8.799012,-73.66666 -1.041916,-38.05492 -3.489115,-68.16803 -5.146903,-63.33334 -0.377182,1.1 -2.084543,6.5 -3.794134,12 -1.709591,5.5 -2.771185,7.73424 -2.359099,4.96499 3.271068,-21.98184 19.965065,-52.247026 41.948602,-76.05023 15.40307,-16.678032 26.8458,-21.174929 34.06367,-13.386727 1.79832,1.940416 3.26967,4.405461 3.26967,5.477877 0,1.480507 0.88258,1.709275 3.66666,0.950402 8.91755,-2.430707 15.21016,1.384656 20.963,12.710357 11.35964,22.363907 20.96823,70.683891 16.70367,84.000001 -0.76723,2.39567 -1.14356,0.52035 -1.33781,-6.66667 l -0.2703,-10 -1.74008,12.7443 c -0.95702,7.00934 -4.19521,22.06506 -7.19593,33.45714 -4.7902,18.18568 -5.4426,22.40593 -5.34708,34.58905 0.0681,8.69483 1.00673,17.36123 2.51353,23.20951 1.33376,5.17663 2.47294,7.80812 2.55787,5.90867 0.17439,-3.89987 4.08739,-17.7522 4.8104,-17.02919 0.26171,0.26172 -0.36973,4.07089 -1.40321,8.46485 -1.0335,4.39395 -1.88844,10.27442 -1.8999,13.0677 -0.012,2.79328 -0.53189,4.76282 -1.15652,4.37678 -1.03928,-0.6423 -5.00948,-13.62281 -8.1936,-26.78881 -1.12637,-4.65749 -1.20614,-4.23509 -0.62949,3.33333 0.36319,4.76667 1.54537,11.96667 2.62707,16 2.2427,8.36235 2.6624,22.66667 0.66505,22.66667 -0.73333,0 -1.40432,-3.15 -1.49108,-7 -0.0868,-3.85 -0.537,-8.76733 -1.00052,-10.9274 l -0.84277,-3.92739 -1.66598,3.65643 c -1.64314,3.60629 -1.70988,3.62359 -4.86646,1.26073 -1.76027,-1.31764 -4.29552,-4.01637 -5.63388,-5.99718 -2.22106,-3.28722 -2.63203,-3.42172 -4.70976,-1.54139 -1.25202,1.13304 -1.96187,2.87969 -1.57746,3.88144 0.3844,1.00175 -0.83068,5.16244 -2.70018,9.24599 -1.86951,4.08354 -3.0603,8.30756 -2.64619,9.3867 0.63021,1.6423 -1.31007,1.96207 -11.90507,1.96207 h -12.65798 l -0.69087,-3.66667 c -1.67872,-8.90964 -5.02851,-18.34264 -7.33158,-20.6457 -2.44706,-2.44707 -2.5707,-2.40164 -5.63467,2.06993 -1.72299,2.51453 -4.21189,5.24584 -5.53088,6.06956 -2.06905,1.29215 -2.78284,0.74363 -5.201288,-3.99692 -1.541722,-3.02203 -4.617066,-7.97011 -6.834098,-10.99573 l -4.030965,-5.50114 0.925315,6 c 0.960903,6.23076 5.426635,24.88568 6.837316,28.56186 0.444231,1.15765 0.214068,2.10481 -0.511472,2.10481 -0.725541,0 -2.892561,-4.95 -4.815602,-11 z m 21.091684,-17.58621 c 4.07583,-6.18908 8.76371,-12.22028 10.41752,-13.40266 l 3.00692,-2.14977 -2.83595,-2.26401 c -1.55977,-1.24522 -5.64246,-3.91899 -9.07265,-5.94175 -7.4712,-4.40569 -10.8562,-10.80376 -8.70684,-16.457 2.4117,-6.34324 -2.03715,-1.2837 -6.008324,6.83309 -2.070162,4.23126 -5.178826,8.2157 -7.462286,9.56458 -5.524819,3.26358 -5.353314,9.34529 0.478938,16.98356 2.416085,3.16425 5.865056,8.52825 7.664377,11.92001 1.799325,3.39176 3.684635,6.16683 4.189595,6.16683 0.50495,0 4.25287,-5.0638 8.3287,-11.25288 z m 57.43047,8.91954 c 0.5269,-1.28333 1.13528,-11.62106 1.35196,-22.97273 0.29978,-15.70581 -0.0523,-21.50216 -1.47254,-24.24877 -2.6393,-5.10385 -4.62202,-5.91069 -2.82489,-1.14955 1.27851,3.38712 1.09661,4.53189 -1.21961,7.67593 -1.49723,2.03232 -5.62494,5.61755 -9.1727,7.96718 -3.54776,2.34964 -7.38006,5.20166 -8.51625,6.33785 -1.86549,1.86549 -1.77843,2.26707 0.89803,4.14173 1.63009,1.14176 6.29858,7.13974 10.37441,13.32882 4.07584,6.18908 7.90852,11.25288 8.51709,11.25288 0.60858,0 1.5376,-1.05 2.0645,-2.33334 z m -32.04215,-13.33333 c 1.47631,-10.01773 4.46517,-14.88112 12.17728,-19.81449 7.34259,-4.697 11.10505,-8.54578 6.41089,-6.55798 -5.36462,2.27175 -15.99512,4.7058 -20.55205,4.7058 -4.55693,0 -15.18743,-2.43405 -20.55206,-4.7058 -4.58151,-1.9401 -1.05597,1.71426 6.47883,6.71558 7.79774,5.17584 10.66,9.82209 12.10934,19.65689 0.51334,3.48333 1.39709,6.33333 1.96389,6.33333 0.5668,0 1.45055,-2.85 1.96388,-6.33333 z m 12.53705,-38.27485 c 8.27166,-2.91841 26.73715,-17.50484 28.9921,-22.90171 5.60449,-13.41342 9.77745,-42.03703 7.92722,-54.37523 -0.81946,-5.46464 -1.21053,-6.06215 -2.99716,-4.57939 -1.1301,0.9379 -2.54957,2.9261 -3.1544,4.41823 -1.00125,2.47017 -1.10722,2.40562 -1.18417,-0.72129 -0.24927,-10.12853 -20.92144,-14.10274 -27.14423,-5.21847 -1.14506,1.63482 -2.35541,2.09288 -3.56112,1.34771 -1.38134,-0.85372 -0.71588,-1.81109 2.73051,-3.92824 7.97451,-4.89884 17.95039,-6.13143 28.89032,-3.56962 3.69271,0.86473 4.33333,0.65017 4.33333,-1.45133 0,-3.66078 -4.91413,-20.719835 -8.97669,-31.161955 -3.30043,-8.483152 -4.0142,-9.348408 -9.74589,-11.814117 -12.66206,-5.447069 -28.72015,-6.95751 -42.51511,-3.99902 -5.44123,1.166935 -7.78243,2.638765 -12.44307,7.822519 -6.26425,6.967354 -16.985784,22.076306 -23.422245,33.006994 -3.862429,6.559349 -3.943484,6.977779 -1.501816,7.752729 1.419532,0.45055 3.161185,0.46058 3.870341,0.0223 2.599232,-1.60642 14.95558,-2.08455 19.77563,-0.76523 7.48075,2.0476 14.50819,6.68708 12.24635,8.08498 -1.20571,0.74516 -2.41605,0.2871 -3.56113,-1.34772 -2.36972,-3.38325 -10.35278,-5.81092 -16.06189,-4.88446 -5.861216,0.95115 -10.997805,5.60753 -10.997805,9.96964 0,3.06012 -0.276312,2.91953 -3.787052,-1.9269 -2.082878,-2.87533 -4.067305,-6.06864 -4.409837,-7.09624 -0.384667,-1.154 -1.303748,-0.22437 -2.403795,2.43138 -1.540004,3.7179 -1.401705,6.59064 1.022026,21.22951 1.541668,9.31138 3.211617,20.73784 3.710997,25.39213 0.671709,6.26041 1.986903,10.06823 5.05448,14.63395 4.85445,7.22529 21.817246,20.72233 29.479846,23.45668 7.04125,2.51262 22.94064,2.60437 29.83426,0.17217 z m -19.83426,-42.72515 c -3.14568,-1.79822 -2.84542,-1.9055 5.33333,-1.9055 8.17875,0 8.479,0.10733 5.33333,1.9055 -1.83333,1.04803 -4.23333,1.90551 -5.33333,1.90551 -1.1,0 -3.5,-0.85748 -5.33333,-1.90551 z M 95.12709,130.46423 c -2.035077,-1.3214 -4.857522,-7.00875 -3.935685,-7.93059 0.426081,-0.42608 0.774693,-0.0747 0.774693,0.78086 0,0.85556 1.25,2.80556 2.777778,4.33333 2.79785,2.79785 3.034621,4.53798 0.383214,2.8164 z m 11.839,0.15339 c 1.28334,-0.33537 3.38334,-0.33537 4.66667,0 1.28333,0.33537 0.23333,0.60977 -2.33333,0.60977 -2.56667,0 -3.61667,-0.2744 -2.33334,-0.60977 z m 50.69204,-0.005 c 1.2973,-0.33806 3.0973,-0.31583 4,0.0494 0.90271,0.36523 -0.1587,0.64182 -2.3587,0.61465 -2.2,-0.0272 -2.93859,-0.326 -1.6413,-0.66406 z m 14.30796,-0.45115 c 0,-0.71031 0.58084,-1.29148 1.29075,-1.29148 0.70992,0 2.18589,-1.65 3.27996,-3.66667 2.34796,-4.32798 2.75893,-3.24722 0.58203,1.53058 -1.53924,3.37827 -5.15274,5.78195 -5.15274,3.42757 z m -68.44444,-7.51371 c -1.56862,-1.56862 -0.9496,-5.46917 0.98584,-6.21187 1.03109,-0.39567 2.92409,0.44014 4.20665,1.85735 2.10145,2.32208 1.76084,3.18341 -1.08138,2.73464 -0.55,-0.0868 -1,0.44211 -1,1.17544 0,1.51717 -1.78359,1.77197 -3.11111,0.44444 z m 56.98639,-0.95532 c -1.69336,-4.41282 3.02764,-6.55421 6.15147,-2.79023 1.93194,2.32786 1.74898,2.6289 -2.36666,3.89407 -2.09218,0.64316 -3.24325,0.30745 -3.78481,-1.10384 z m -43.652,-20.9697 c -2.81054,-1.482829 -7.61054,-3.219089 -10.66667,-3.858353 l -5.5566,-1.162298 5.99999,0.19725 c 5.82604,0.191534 16,4.357351 16,6.551341 0,1.37682 0.24934,1.4514 -5.77672,-1.72794 z m 29.77672,1.44678 c 0,-1.8134 7.04199,-4.791454 14,-5.920587 4.26759,-0.692538 4.85543,-0.563987 2.94173,0.643309 -1.31537,0.829837 -3.94621,1.7907 -5.84629,2.135252 -1.90008,0.344551 -5.17387,1.515476 -7.27507,2.602046 -2.39402,1.238 -3.82037,1.4396 -3.82037,0.53998 z M 97.049432,97.292569 c 0.9625,-0.385161 2.1125,-0.337792 2.555556,0.105267 0.443052,0.443056 -0.344446,0.758188 -1.75,0.700293 -1.553258,-0.06397 -1.8692,-0.379921 -0.805556,-0.805556 z m 72.249998,-0.297688 c 0,-0.66468 1.2,-0.8947 2.66666,-0.511158 1.46667,0.383541 2.66667,0.92737 2.66667,1.208506 0,0.281138 -1.2,0.511159 -2.66667,0.511159 -1.46666,0 -2.66666,-0.543828 -2.66666,-1.208507 z m 13.33333,170.036709 c 0,-0.27782 2.06065,-3.92718 4.57923,-8.1097 6.13796,-10.19308 13.59796,-28.19418 17.42709,-42.05184 3.76109,-13.61138 4.37721,-10.68456 0.79526,3.77786 -1.39245,5.62217 -2.87054,12.62214 -3.28462,15.55548 l -0.75288,5.33333 2.53541,-5.36168 c 4.32509,-9.14633 9.06983,-27.54156 12.07712,-46.8228 3.10079,-19.88069 5.21648,-70.35672 3.24087,-77.32062 l -1.08604,-3.82823 -0.92354,4.66667 c -0.61785,3.12209 -0.98162,0.20106 -1.09905,-8.82535 -0.4548,-34.959609 -9.3582,-60.378279 -27.60418,-78.80823 -5.96963,-6.029822 -8.05563,-8.773095 -5.5763,-7.333333 15.6321,9.077652 29.58677,38.000171 36.49205,75.633574 3.05322,16.639829 3.53052,72.028419 0.77556,89.999999 -2.86714,18.70345 -10.67653,46.46232 -15.83052,56.27037 -4.79013,9.11566 -7.37534,11.62986 -6.23417,6.06296 0.35222,-1.71814 -0.27425,-1.07492 -1.46613,1.50539 -3.48096,7.53589 -11.51433,20.16128 -12.82836,20.16128 -0.68024,0 -1.2368,-0.22731 -1.2368,-0.50513 z m 58.18222,-9.27367 c -3.5814,-15.19151 -10.2848,-23.18584 -23.51556,-28.04417 -5.50476,-2.02135 -5.61481,-2.14502 -1.33333,-1.49834 12.14857,1.83496 23.58549,14.47935 26.70999,29.52996 2.33721,11.25834 0.79256,11.26875 -1.8611,0.012 z M 56.275437,206.20339 c 0,-2.56667 0.274393,-3.61667 0.609764,-2.33334 0.335369,1.28334 0.335369,3.38334 0,4.66667 -0.335371,1.28333 -0.609764,0.23333 -0.609764,-2.33333 z M 120.96609,11.987016 c 0.91667,-0.369883 2.41667,-0.369883 3.33334,0 0.91666,0.369883 0.16666,0.672514 -1.66667,0.672514 -1.83333,0 -2.58333,-0.302631 -1.66667,-0.672514 z"
     style="fill:#532611;stroke-width:1.33333325" />
  <path
     inkscape:connector-curvature="0"
     id="path458"
     d="m 25.404696,265.42561 c 0.06397,-1.55326 0.379921,-1.8692 0.805556,-0.80556 0.385161,0.9625 0.337792,2.1125 -0.105267,2.55556 -0.443056,0.44306 -0.758188,-0.34445 -0.700293,-1.75 z m 52.240803,-2.88889 c -7.321939,-7.82216 -14.8857,-20.17413 -17.311793,-28.27096 -2.133004,-7.11868 -2.2504,-7.24588 -3.134056,-3.39571 -0.723657,3.15304 -0.951447,3.36478 -1.075797,1 -0.08676,-1.65 -0.607754,-3.0019 -1.157754,-3.00422 -0.55,-0.003 -1.063142,-2.25234 -1.140317,-5 -0.07718,-2.74768 -1.108317,-11.29578 -2.291428,-18.99578 C 44.39721,158.41959 45.415302,104.08644 53.974527,74.643736 58.941581,57.557672 71.87184,37.464091 84.368569,27.411492 92.724606,20.689743 105.80269,14.295193 112.82919,13.495621 l 5.1369,-0.584547 -4.99447,1.29084 C 91.787084,19.677141 70.65416,40.294916 60.837206,65.065479 51.298305,89.134445 46.141178,135.84668 49.156165,170.87006 c 2.206936,25.6367 5.670804,50.03735 6.987669,49.22349 0.635579,-0.39282 1.211979,-2.0288 1.280887,-3.63552 0.06891,-1.60672 0.924072,1.0908 1.900364,5.99449 2.910821,14.6204 9.353967,26.65807 21.098191,39.41753 2.868681,3.11667 4.470289,5.66667 3.559129,5.66667 -0.911158,0 -3.762766,-2.25 -6.336906,-5 z m 12.471137,-6 c -6.444447,-20.27461 -7.602668,-29.97141 -8.799012,-73.66666 -0.622421,-22.73334 -1.895297,-46.73334 -2.828613,-53.33334 l -1.696936,-12 -2.963223,9.33334 c -1.629772,5.13333 -3.015616,8.35992 -3.079653,7.17019 -0.221493,-4.11499 6.733094,-23.2095 12.081214,-33.1702 10.920172,-20.338439 31.925897,-46.069809 43.730057,-53.567967 7.88983,-5.011728 14.9646,-5.09797 19.46929,-0.23733 1.79832,1.940416 3.26967,4.405461 3.26967,5.477877 0,1.480507 0.88258,1.709275 3.66666,0.950402 8.91755,-2.430707 15.21016,1.384656 20.963,12.710357 11.35964,22.363907 20.96823,70.683891 16.70367,84.000001 -0.76723,2.39567 -1.14356,0.52035 -1.33781,-6.66667 l -0.2703,-10 -1.74008,12.7443 c -0.95702,7.00934 -4.19521,22.06506 -7.19593,33.45714 -4.7902,18.18568 -5.4426,22.40593 -5.34708,34.58905 0.0681,8.69483 1.00673,17.36123 2.51353,23.20951 1.33376,5.17663 2.47294,7.80812 2.55787,5.90867 0.18287,-4.08956 4.10367,-17.73591 4.87437,-16.96522 0.2969,0.29691 -0.0856,2.80506 -0.85009,5.57368 -0.76445,2.76862 -1.84716,8.73488 -2.406,13.25836 -0.97683,7.90666 -1.07684,8.07802 -2.58803,4.43402 -3.53465,-8.52328 -7.09658,-24.84879 -7.60464,-34.85454 -0.6306,-12.41921 -2.21221,-17.00358 -6.69374,-19.40202 -1.78498,-0.95529 -3.2454,-2.1844 -3.2454,-2.73136 0,-0.54696 3.08344,-3.25792 6.85208,-6.02436 7.62258,-5.59549 9.97832,-9.88855 14.55813,-26.53056 2.10261,-7.64044 3.11845,-15.868 3.58059,-29 0.68409,-19.43993 0.1092,-21.18078 -4.89403,-14.82019 -2.43917,3.10091 -2.76344,3.20641 -2.76344,0.89909 0,-9.64865 -21.20136,-12.76224 -27.3292,-4.01352 -1.65549,2.36356 -2.00413,2.46649 -2.00413,0.59173 0,-4.01206 10.00554,-7.95871 19.80424,-7.81171 4.77696,0.0717 9.76984,0.47449 11.0953,0.89518 1.32546,0.42068 2.93786,0.43861 3.5831,0.0398 2.65917,-1.64347 -8.63904,-37.603482 -13.26939,-42.233826 -6.63609,-6.636097 -33.66371,-10.318381 -48.82707,-6.652274 -6.18938,1.496433 -7.73116,2.648198 -14.1349,10.559331 -7.69972,9.512177 -19.152294,26.211469 -22.688735,33.083029 -2.763815,5.37029 -1.350574,6.03533 9.550926,4.49441 11.710239,-1.65523 25.553189,2.47989 25.553189,7.63317 0,1.86207 -0.35465,1.7561 -2.00413,-0.59887 -2.60994,-3.72621 -10.38377,-6.23438 -16.33139,-5.26922 -5.554581,0.90139 -10.997805,5.54681 -10.997805,9.38589 0,2.29673 -0.597317,2.00284 -3.859866,-1.89908 -2.230378,-2.66747 -3.296048,-4.96811 -2.524318,-5.44964 0.843942,-0.52658 0.737487,-1.20295 -0.289204,-1.83748 -1.81329,-1.12068 -3.578056,1.01717 -4.875292,5.90596 -0.472142,1.77933 0.41379,11.67933 1.968738,22 1.554949,10.32067 3.216502,22.2214 3.692342,26.44606 1.054868,9.36548 5.365672,15.825 15.837005,23.73093 4.06115,3.0662 7.38392,6.0624 7.38392,6.65821 0,0.5958 -1.25921,1.48295 -2.79824,1.97142 -1.69134,0.53681 -4.01438,3.63804 -5.872649,7.83991 -1.690925,3.82348 -5.231716,8.84592 -7.868423,11.16099 -3.774169,3.31376 -4.794013,5.19388 -4.794013,8.83791 0,2.5458 0.543672,4.96472 1.20816,5.3754 0.664488,0.41068 0.895695,1.94154 0.513792,3.40194 -0.817305,3.12539 1.699204,17.28955 5.020996,28.2607 1.290259,4.26142 1.871497,7.74805 1.291643,7.74805 -0.579855,0 -2.627679,-4.95 -4.55072,-11 z m 33.030704,8.91553 c 0.43993,-1.14645 -0.0444,-3.71717 -1.07637,-5.71273 -1.03195,-1.99556 -2.30252,-5.90043 -2.8235,-8.67751 -0.52098,-2.77706 -2.35165,-6.71826 -4.06815,-8.75821 l -3.12092,-3.70899 3.5851,-5.52905 c 1.97181,-3.04097 4.01775,-5.52904 4.54654,-5.52904 0.52879,0 3.54473,2.99971 6.70208,6.66601 3.15735,3.66631 6.64064,6.66602 7.74064,6.66602 1.1,0 4.58329,-2.99971 7.74064,-6.66602 3.15736,-3.6663 6.17329,-6.66601 6.70208,-6.66601 0.52879,0 2.59213,2.51491 4.58521,5.58869 3.56767,5.50215 3.58472,5.63119 1.10144,8.33334 -1.38728,1.50954 -2.50892,4.35028 -2.49252,6.31272 0.0164,1.96244 -1.24518,6.20188 -2.80352,9.42096 -1.55833,3.21909 -2.83333,6.86345 -2.83333,8.09858 0,1.94099 -1.64761,2.24571 -12.14265,2.24571 -10.46435,0 -12.0321,-0.28811 -11.34277,-2.08447 z m 50.15209,-5.591 c 0,-4.2215 -0.51563,-9.47334 -1.14583,-11.67074 -0.63021,-2.1974 -1.49793,-8.79344 -1.92829,-14.65787 l -0.78247,-10.66259 1.79892,9.42507 c 0.9894,5.18379 2.45379,11.78379 3.25419,14.66667 1.82609,6.5772 1.91917,20.57493 0.13681,20.57493 -0.73448,0 -1.33333,-3.44737 -1.33333,-7.67547 z m 9.33333,7.17034 c 0,-0.27782 2.06065,-3.92718 4.57923,-8.1097 6.13796,-10.19308 13.59796,-28.19418 17.42709,-42.05184 3.76109,-13.61138 4.37721,-10.68456 0.79526,3.77786 -5.86471,23.67934 -4.47969,26.21105 2.5158,4.59864 7.65502,-23.64995 12.01291,-56.99535 12.01483,-91.93411 0.001,-20.79066 -1.18305,-29.42125 -2.80489,-20.44238 -0.51896,2.87301 -0.9104,-0.51904 -1.01847,-8.82535 -0.4548,-34.959609 -9.3582,-60.378279 -27.60418,-78.80823 -5.96963,-6.029822 -8.05563,-8.773095 -5.5763,-7.333333 15.6321,9.077652 29.58677,38.000171 36.49205,75.633574 3.05884,16.670479 3.53134,72.052539 0.76784,89.999999 -3.88773,25.2488 -12.72225,52.51687 -20.30322,62.66667 -1.19772,1.60358 -1.37763,1.27324 -0.90765,-1.66667 0.32238,-2.01667 0.3545,-3.66667 0.0713,-3.66667 -0.28313,0 -1.13096,1.65 -1.88409,3.66667 -2.14412,5.74155 -12.25092,23 -13.46908,23 -0.60255,0 -1.09555,-0.22731 -1.09555,-0.50513 z m 58.98401,-6.96312 c -0.88625,-4.2252 -1.38781,-7.90572 -1.1146,-8.17894 0.76383,-0.76382 3.77804,12.70482 3.21877,14.38264 -0.27105,0.81316 -1.21793,-1.97852 -2.10417,-6.2037 z M 26.026907,258.64844 c 1.588846,-7.19509 8.688998,-19.79257 12.971335,-23.01447 l 4.301191,-3.23606 -4.853087,5.23606 c -5.718213,6.16948 -8.568546,11.4639 -9.850422,18.29688 -0.512669,2.73276 -1.488156,5.31231 -2.167751,5.73231 -0.716853,0.44304 -0.885324,-0.82267 -0.401266,-3.01472 z M 237.35706,246.34253 c -0.89905,-2.17049 -2.77981,-4.98273 -4.17948,-6.2494 -1.39965,-1.26668 -2.53148,-2.96005 -2.51517,-3.76306 0.0359,-1.76522 4.59684,3.74717 7.44437,8.99722 1.13076,2.08482 1.79246,4.05406 1.47043,4.3761 -0.32204,0.32202 -1.32111,-1.19036 -2.22015,-3.36086 z M 91.314476,234.70589 c -1.260407,-1.92362 -1.632639,-3.09021 -0.827183,-2.59241 1.539193,0.95128 4.643569,6.08991 3.679064,6.08991 -0.308128,0 -1.591475,-1.57388 -2.851881,-3.4975 z m 46.195474,-1.83584 c 0,-1.83333 0.30264,-2.58333 0.67252,-1.66666 0.36988,0.91666 0.36988,2.41666 0,3.33333 -0.36988,0.91667 -0.67252,0.16667 -0.67252,-1.66667 z m 87.12281,-0.0904 c -2.2,-1.4092 -3.31647,-2.56534 -2.48104,-2.56921 0.83541,-0.004 2.93541,1.17303 4.66666,2.61529 3.96408,3.30242 3.01058,3.28231 -2.18562,-0.0461 z m -93.89474,-0.68733 c 0.064,-1.55327 0.37992,-1.8692 0.80556,-0.80556 0.38516,0.96249 0.33779,2.11249 -0.10527,2.55556 -0.44305,0.44305 -0.75819,-0.34445 -0.70029,-1.75 z m -85.794143,-0.72101 c 0.904445,-0.91123 1.980321,-1.3209 2.390837,-0.91038 0.410518,0.41052 -0.329482,1.15607 -1.644444,1.65678 -1.900264,0.72357 -2.053416,0.57042 -0.746393,-0.7464 z m 83.544203,-6.19959 c -0.86482,-2.29117 -4.83348,-6.18128 -9.94052,-9.74376 -9.44089,-6.58563 -12.97094,-11.39809 -11.25865,-15.34877 0.90047,-2.07761 1.34506,-1.48957 2.43178,3.21641 1.14297,4.94959 2.42513,6.50263 9.12423,11.05189 7.8654,5.34131 12.43996,10.56624 11.56062,13.20426 -0.26285,0.78856 -1.12571,-0.28246 -1.91746,-2.38003 z m 10.97691,1.03171 c 1.02626,-4.23587 4.4753,-8.01655 10.08805,-11.0581 4.24375,-2.29966 4.28517,-2.29966 1.07972,0 -5.04716,3.62098 -9.33333,8.0952 -9.33333,9.74284 0,0.80995 0.6927,1.04452 1.53934,0.52127 0.96139,-0.59417 1.1771,-0.36524 0.57454,0.60972 -0.53064,0.8586 -1.47211,1.24757 -2.09214,0.86437 -0.62002,-0.3832 -1.47302,0.0571 -1.89556,0.97826 -0.42253,0.92124 -0.40481,0.17497 0.0393,-1.65836 z m 17.39686,-15.92607 c 0.85934,-1.14067 1.75934,-4.17393 2,-6.7406 0.46172,-4.92421 2.81714,-5.92572 3.51604,-1.495 0.23358,1.48069 -1.20914,4.27672 -3.33333,6.46008 -2.05983,2.1172 -3.04204,2.91619 -2.18271,1.77552 z m 3.98728,-9.7406 c -0.36988,-0.91666 -0.67252,-0.16666 -0.67252,1.66667 0,1.83333 0.30264,2.58333 0.67252,1.66666 0.36988,-0.91666 0.36988,-2.41666 0,-3.33333 z m -104.573693,5.66667 c 0,-2.56667 0.274393,-3.61667 0.609764,-2.33334 0.335369,1.28334 0.335369,3.38334 0,4.66667 -0.335371,1.28333 -0.609764,0.23333 -0.609764,-2.33333 z m 13.129258,-67.44444 c 0.06397,-1.55327 0.379921,-1.8692 0.805556,-0.80556 0.385161,0.96249 0.337792,2.11249 -0.105267,2.55556 -0.443056,0.44305 -0.758188,-0.34445 -0.700293,-1.75 z M 93.27269,128.17121 c -2.451076,-2.95337 -1.056318,-3.29289 1.693408,-0.41222 1.283334,1.34444 1.8068,2.44444 1.16326,2.44444 -0.643541,0 -1.929041,-0.9145 -2.856668,-2.03222 z m 81.02674,-0.41226 c 1.28333,-1.34445 2.56884,-2.25895 2.85666,-2.03223 0.78764,0.62042 -2.67517,4.47667 -4.01992,4.47667 -0.64354,0 -0.12008,-1.1 1.16326,-2.44444 z m -70.77778,-5.11112 c -1.55542,-1.55542 -0.95678,-5.46642 0.94864,-6.19759 1.01064,-0.38782 2.51064,-0.032 3.33333,0.79068 1.85372,1.85371 1.98877,5.42452 0.16247,4.2958 -0.73333,-0.45322 -1.33333,-0.18863 -1.33333,0.58798 0,1.58324 -1.75577,1.87848 -3.11111,0.52313 z m 56.98639,-0.95532 c -1.69336,-4.41282 3.02764,-6.55421 6.15147,-2.79023 1.93194,2.32786 1.74898,2.6289 -2.36666,3.89407 -2.09218,0.64316 -3.24325,0.30745 -3.78481,-1.10384 z m -43.652,-21.03552 c -2.81054,-1.44663 -7.61054,-3.124753 -10.66667,-3.729163 -5.54066,-1.095778 -5.54321,-1.099059 -0.88994,-1.14358 4.63959,-0.04439 10.24679,1.658189 15.32222,4.652473 4.68263,2.76254 1.53165,2.94686 -3.76561,0.22027 z m 29.77672,1.36366 c 0,-1.70549 7.34848,-4.705931 14,-5.716298 5.77575,-0.877337 5.00493,-0.406729 -7,4.273778 -3.85,1.50105 -7,2.15018 -7,1.44252 z M 97.049432,97.292569 c 0.9625,-0.385161 2.1125,-0.337792 2.555556,0.105267 0.443052,0.443056 -0.344446,0.758188 -1.75,0.700293 -1.553258,-0.06397 -1.8692,-0.379921 -0.805556,-0.805556 z m 73.249998,0.02777 c 0.91666,-0.369883 2.41666,-0.369883 3.33333,0 0.91667,0.369884 0.16667,0.672514 -1.66667,0.672514 -1.83333,0 -2.58333,-0.30263 -1.66666,-0.672514 z M 120.96609,11.987012 c 0.91667,-0.369883 2.41667,-0.369883 3.33334,0 0.91666,0.369883 0.16666,0.672514 -1.66667,0.672514 -1.83333,0 -2.58333,-0.302631 -1.66667,-0.672514 z"
     style="fill:#291711;stroke-width:1.33333325" />
</svg>
