<?xml version="1.0" encoding="UTF-8" standalone="no"?>
<!-- Created with Inkscape (http://www.inkscape.org/) -->

<svg
   xmlns:dc="http://purl.org/dc/elements/1.1/"
   xmlns:cc="http://creativecommons.org/ns#"
   xmlns:rdf="http://www.w3.org/1999/02/22-rdf-syntax-ns#"
   xmlns:svg="http://www.w3.org/2000/svg"
   xmlns="http://www.w3.org/2000/svg"
   xmlns:sodipodi="http://sodipodi.sourceforge.net/DTD/sodipodi-0.dtd"
   xmlns:inkscape="http://www.inkscape.org/namespaces/inkscape"
   version="1.1"
   id="svg392"
   width="200"
   height="200"
   viewBox="0 0 200 200"
   sodipodi:docname="Trustee4.svg"
   inkscape:version="0.92.2 (5c3e80d, 2017-08-06)">
  <metadata
     id="metadata398">
    <rdf:RDF>
      <cc:Work
         rdf:about="">
        <dc:format>image/svg+xml</dc:format>
        <dc:type
           rdf:resource="http://purl.org/dc/dcmitype/StillImage" />
        <dc:title></dc:title>
      </cc:Work>
    </rdf:RDF>
  </metadata>
  <defs
     id="defs396" />
  <sodipodi:namedview
     pagecolor="#ffffff"
     bordercolor="#666666"
     borderopacity="1"
     objecttolerance="10"
     gridtolerance="10"
     guidetolerance="10"
     inkscape:pageopacity="0"
     inkscape:pageshadow="2"
     inkscape:window-width="640"
     inkscape:window-height="480"
     id="namedview394"
     showgrid="false"
     inkscape:zoom="1.18"
     inkscape:cx="100"
     inkscape:cy="100"
     inkscape:window-x="154"
     inkscape:window-y="147"
     inkscape:window-maximized="0"
     inkscape:current-layer="svg392" />
  <path
     inkscape:connector-curvature="0"
     id="path418"
     d="M 0.2881356,100.97694 V 0.976939 h 100.0000044 100 v 100.000001 100 h -100 H 0.2881356 Z"
     style="fill:#fdfdfd" />
  <path
     inkscape:connector-curvature="0"
     id="path416"
     d="m 17.71992,197.22694 c 2.12393,-12.1717 8.99745,-21.89953 17.643651,-24.97039 3.472254,-1.23323 4.781853,-2.18927 4.468442,-3.26206 -1.281691,-4.38718 -4.60712,-30.47774 -5.61035,-44.01755 C 32.626699,103.45098 34.788212,71.212632 38.717498,57.92287 44.621676,37.953556 57.617947,21.37123 73.526804,13.508647 82.059453,9.2915828 93.11459,7.7744702 99.633676,9.9259626 c 3.045544,1.0051194 4.828934,0.9229394 10.414644,-0.479909 15.54764,-3.9047918 29.01728,1.8014804 38.54666,16.3298984 7.92658,12.084792 13.7261,29.731505 16.82699,51.200987 1.87315,12.969066 1.59649,47.220141 -0.48987,60.645041 -1.50982,9.71516 -5.22571,25.61283 -7.11978,30.46056 -0.48546,1.24247 0.40216,1.89384 3.9247,2.88009 11.84384,3.31607 17.25202,10.34324 20.98289,27.26431 l 0.60633,2.75 H 100.1959 17.065554 Z M 88.664732,91.843961 c 0.777182,-3.885912 -0.619839,-6.431354 -4.65624,-8.483903 l -3.220356,-1.637582 2.5,2.846971 c 1.375,1.565833 1.693428,2.227159 0.707618,1.469613 -2.637431,-2.026737 -4.805709,0.268359 -2.464949,2.609119 1.368503,1.368503 1.926819,1.432987 3.207143,0.370413 1.333228,-1.106481 1.550188,-0.919512 1.550188,1.335902 0,1.442345 -0.871875,3.49432 -1.9375,4.559945 -1.299197,1.299197 -1.546282,2.079825 -0.75,2.369512 1.833739,0.667114 4.392389,-2.081459 5.064096,-5.43999 z M 72.84484,94.754433 c -2.32478,-3.319088 -1.93345,-7.491657 0.975427,-10.400534 2.50422,-2.50422 2.506976,-2.524874 0.25,-1.873732 -3.569984,1.029947 -6.966389,5.317458 -6.214302,7.844733 1.062218,3.569422 3.384792,6.652039 5.011928,6.652039 1.371286,0 1.368846,-0.235292 -0.02305,-2.222506 z m 43.48226,0.03394 c -2.85087,-3.060044 -2.57973,-6.992963 0.71104,-10.314006 l 2.75,-2.775295 -3.22036,1.649282 c -3.98538,2.041084 -5.65522,4.995995 -4.78428,8.466126 0.89027,3.547111 2.35029,5.162459 4.66604,5.162459 1.85138,0 1.84722,-0.07437 -0.12244,-2.188561 z m 14.33386,-0.06143 c 2.72767,-4.325277 2.82307,-6.418327 0.41348,-9.071226 -1.25747,-1.384431 -3.4113,-2.838433 -4.7863,-3.231116 l -2.5,-0.713969 2.5,2.081337 c 2.43323,2.025751 2.43991,2.066253 0.25,1.516524 -1.78733,-0.44867 -2.25,-0.141706 -2.25,1.492802 0,2.903792 2.05265,3.824128 3.6517,1.637294 1.24236,-1.69903 1.3483,-1.610661 1.3483,1.124718 0,1.632743 -0.70052,3.968751 -1.5567,5.19113 -1.3919,1.987214 -1.39434,2.222506 -0.0231,2.222506 0.84351,0 2.17217,-1.0125 2.95258,-2.25 z"
     style="fill:#936247" />
  <path
     inkscape:connector-curvature="0"
     id="path414"
     d="m 17.856369,198.22694 c 3.04438,-13.80757 6.928122,-20.0763 15.074809,-24.33218 2.808567,-1.46722 5.625131,-2.84054 6.259033,-3.05184 0.841309,-0.28044 0.620329,-3.62226 -0.81831,-12.37508 C 34.900573,137.34794 34.024154,124.05607 34.561773,100.683 35.111436,76.786312 36.72412,64.275465 40.745302,52.712559 50.421746,24.88795 76.067477,5.5846373 97.656667,9.8758841 c 4.967463,0.9873739 7.280693,1.0008859 10.731933,0.062687 6.51368,-1.7707087 15.67183,-1.5526558 21.89954,0.5214221 12.00333,3.997591 23.35718,19.736547 29.41894,40.781176 9.50107,32.984896 9.28908,78.794481 -0.51637,111.584541 -2.00334,6.69931 -1.84275,8.14512 0.90645,8.161 3.47852,0.0201 11.94369,4.8664 15.04147,8.61123 3.18216,3.84684 7.14951,14.38148 7.14951,18.98434 v 2.39466 H 99.769084 17.250032 Z m 88.046781,-66.8716 c 1.87949,-0.89188 3.63133,-1.96796 3.89296,-2.3913 0.26164,-0.42334 -4.01695,-0.76971 -9.50797,-0.76971 -10.321249,0 -11.585435,0.75048 -5.629956,3.34222 4.176027,1.81734 7.133766,1.76968 11.244966,-0.18121 z m 1.25999,-4.39371 c 2.06209,-0.012 2.30334,-0.22319 1.125,-0.98469 -1.77186,-1.14507 -13.034125,-1.32708 -15.668217,-0.25322 -1.399569,0.57057 -0.88797,0.89908 2.168213,1.39227 2.2,0.35503 5.293754,0.46898 6.875004,0.25323 1.58125,-0.21576 4.05625,-0.39917 5.5,-0.40759 z M 74.211213,95.053862 c -3.45576,-3.45576 -3.671894,-5.855239 -0.850497,-9.442064 2.159722,-2.745641 6.093805,-3.466081 8.92742,-1.634859 1.270069,0.820781 1.221085,0.971722 -0.319551,0.984687 -1.311752,0.01104 -1.730371,0.643242 -1.5,2.265313 0.227593,1.602515 0.967036,2.227151 2.569551,2.170599 3.282628,-0.115842 2.974154,3.87231 -0.5,6.464314 l -2.75,2.051727 3.22432,0.03168 c 2.575022,0.0253 3.531554,-0.562445 4.75,-2.91866 1.816477,-3.51268 1.897051,-5.140483 0.415408,-8.392335 -1.452244,-3.18733 -4.861664,-4.657325 -10.801922,-4.657325 -5.315529,0 -10.087806,2.802185 -10.087806,5.923357 0,5.658154 3.407374,9.832703 8.173077,10.013257 1.256562,0.04761 0.945374,-0.664317 -1.25,-2.859691 z m 43.826927,0.80799 c -3.24015,-2.417417 -3.79974,-8.067486 -1.09501,-11.056172 1.77574,-1.962173 7.7959,-2.526237 8.84501,-0.828741 0.33992,0.55 -0.0835,1 -0.94098,1 -0.85746,0 -1.55902,0.6199 -1.55902,1.377555 0,1.975422 2.71002,3.947698 4.48727,3.265705 2.57678,-0.988805 1.72309,2.300224 -1.41035,5.433663 -2.9298,2.929804 -2.55726,3.426257 1.71272,2.282424 2.19093,-0.586898 5.21036,-5.818059 5.21036,-9.026926 0,-0.782831 -1.10455,-2.527876 -2.45455,-3.877876 -1.9513,-1.951305 -3.47933,-2.454545 -7.45294,-2.454545 -6.11324,0 -9.51812,1.443935 -10.98224,4.657325 -1.48164,3.251852 -1.40107,4.879655 0.41541,8.392335 1.21845,2.356215 2.17498,2.94396 4.75,2.91866 l 3.22432,-0.03168 z M 75.288136,93.035956 c 0,-0.517541 -0.45,-1.219098 -1,-1.559017 -0.55,-0.339919 -1,0.08352 -1,0.940983 0,0.857459 0.45,1.559017 1,1.559017 0.55,0 1,-0.423442 1,-0.940983 z m 43.000004,-0.05902 c 0,-0.55 -0.45,-1 -1,-1 -0.55,0 -1,0.45 -1,1 0,0.55 0.45,1 1,1 0.55,0 1,-0.45 1,-1 z"
     style="fill:#5b4339" />
  <path
     inkscape:connector-curvature="0"
     id="path412"
     d="m 18.012635,198.22694 c 0.245935,-1.5125 1.369426,-5.63524 2.496647,-9.16163 2.473954,-7.73953 8.110269,-13.90381 15.182535,-16.60474 4.616111,-1.7629 4.737908,-1.91536 4.127905,-5.16695 C 33.39776,133.06161 32.543654,88.908341 37.818372,63.833201 44.914025,30.101639 73.244814,4.6863439 97.788136,10.034866 c 3.300004,0.719142 6.675004,1.238396 7.500004,1.153898 1.09447,-0.112098 1.14229,0.0028 0.17687,0.42498 -0.99528,0.435246 -0.74841,1.233312 0.99637,3.220904 1.93006,2.198663 1.76303,2.138606 -0.99486,-0.357709 -3.22586,-2.919902 -3.58621,-3 -13.49637,-3 -9.547154,0 -10.596533,0.208074 -16.830159,3.337134 -21.071378,10.577088 -32.561225,31.961564 -35.81786,66.662866 -1.704473,18.162137 -1.088889,24.943011 1.033324,11.382428 1.967708,-12.573307 7.954333,-27.119199 16.10566,-39.132428 4.153078,-6.120706 5.791368,-7.536024 3.472626,-3 -2.898495,5.67016 -9.571479,28.143233 -11.506133,38.75 -2.36507,12.966541 -3.651643,26.187371 -1.994936,20.500001 5.113934,-17.55583 7.713863,-24.900234 11.859042,-33.500001 12.922808,-26.810208 30.332897,-45.391472 42.611566,-45.478038 3.5943,-0.02534 7.789,2.925084 9.86427,6.938231 1.38708,2.68231 1.58957,2.743534 5.56463,1.68253 6.6203,-1.767058 10.42948,1.017064 15.67712,11.458373 8.27354,16.461949 13.48702,42.898765 13.54151,68.667035 0.0189,8.94747 0.1799,16.12263 0.35773,15.9448 0.17784,-0.17784 1.27784,-6.1485 2.44444,-13.26813 1.7489,-10.67328 2.0428,-15.84018 1.67489,-29.444801 -0.47355,-17.510781 -2.31778,-28.236624 -7.13873,-41.518198 -3.13182,-8.628052 -1.92491,-7.314718 3.86508,4.205891 5.5996,11.141797 9.19562,24.72993 10.12826,38.271206 1.35073,19.611612 3.39116,10.591482 3.38383,-14.958899 -0.006,-19.981894 -2.11073,-30.898307 -8.38806,-43.5 -7.12286,-14.299083 -15.34028,-22.386951 -25.54067,-25.13802 -3.02926,-0.8169982 -3.71408,-1.2462813 -2.04944,-1.2847175 3.95185,-0.091248 13.09967,4.6483935 17.81464,9.2300705 11.31169,10.991895 18.98108,31.119273 22.74774,59.698654 1.27051,9.639969 1.53157,17.405322 1.14284,33.994014 -0.52744,22.50786 -2.36527,36.21344 -6.76692,50.46434 -1.15175,3.72893 -1.72154,7.09906 -1.26619,7.48919 0.45534,0.39012 2.66778,1.23148 4.91653,1.86969 6.94762,1.97177 12.24469,6.59607 15.48329,13.5168 1.59725,3.41325 3.1427,8.44557 3.43434,11.18294 0.3789,3.55647 0.25967,4.40619 -0.41772,2.97704 -0.81857,-1.72697 -0.95757,-1.7611 -1.01826,-0.25 -0.0663,1.65148 -4.56976,1.75 -79.99697,1.75 -75.279759,0 -79.953264,-0.10174 -80.383998,-1.75 -0.435546,-1.66667 -0.462847,-1.66667 -0.573325,0 -0.0638,0.9625 -0.503599,1.75 -0.977329,1.75 -0.473731,0 -0.660108,-1.2375 -0.414173,-2.75 z m 10.427428,-15.68526 c 2.250406,-2.55659 5.949343,-5.60058 8.21986,-6.7644 2.270517,-1.16383 3.599328,-2.29631 2.952913,-2.51663 -1.650802,-0.56264 -9.388771,3.5269 -12.028777,6.35724 -2.597384,2.78465 -6.229237,10.60624 -6.899606,14.85905 -0.318101,2.01803 0.204157,1.31642 1.595537,-2.14345 1.137635,-2.8289 3.909668,-7.23521 6.160073,-9.79181 z m 149.855677,7.23595 c -1.25281,-3.43596 -3.21007,-7.5081 -4.34945,-9.0492 -2.25955,-3.05621 -12.718,-8.75197 -16.06787,-8.7507 -1.19992,4.5e-4 0.48264,1.218 3.95009,2.8584 7.22064,3.41597 13.74838,10.36981 16.1914,17.2483 0.9361,2.63564 1.89362,4.60045 2.12784,4.36624 0.23421,-0.23421 -0.5992,-3.23708 -1.85201,-6.67304 z m -51.20073,-7.32715 c -0.30789,-0.30789 -0.86705,0.24711 -1.24258,1.23333 -0.54268,1.4252 -0.42782,1.54006 0.5598,0.5598 0.68342,-0.67834 0.99067,-1.48524 0.68278,-1.79313 z m -54.881398,-3.62663 c -2.430029,-4.77095 -6.990635,-11.11508 -7.572218,-10.5335 -0.202315,0.20231 1.660437,3.45596 4.139449,7.23032 2.479011,3.77437 4.507293,7.29609 4.507293,7.82604 0,0.52996 0.256393,0.70717 0.569761,0.3938 0.313369,-0.31337 -0.426559,-2.52587 -1.644285,-4.91666 z M 70.42997,160.71192 c 0.820687,-1.53347 0.24596,-1.33177 -2.540578,0.89162 -1.980658,1.58037 -3.60121,3.22127 -3.601227,3.64645 -4.9e-5,1.28505 5.004255,-2.41254 6.141805,-4.53807 z m 35.47318,-29.35658 c 1.87949,-0.89188 3.63133,-1.96796 3.89296,-2.3913 0.26164,-0.42334 -4.01695,-0.76971 -9.50797,-0.76971 -10.321249,0 -11.585435,0.75048 -5.629956,3.34222 4.176027,1.81734 7.133766,1.76968 11.244966,-0.18121 z m 1.25999,-4.39371 c 2.06209,-0.012 2.30334,-0.22319 1.125,-0.98469 -1.77186,-1.14507 -13.034125,-1.32708 -15.668217,-0.25322 -1.399569,0.57057 -0.88797,0.89908 2.168213,1.39227 2.2,0.35503 5.293754,0.46898 6.875004,0.25323 1.58125,-0.21576 4.05625,-0.39917 5.5,-0.40759 z M 87.214082,96.566169 c 2.099172,-2.529348 2.469993,-8.336006 0.704427,-11.030599 -2.198989,-3.356082 -8.800702,-5.123782 -13.678061,-3.662489 -5.351415,1.603322 -7.338435,4.232108 -6.515329,8.619641 1.111896,5.926914 3.49243,7.484217 11.440572,7.484217 4.700099,0 7.248246,-0.446654 8.048391,-1.41077 z m -13.065162,-1.638693 -2.360784,-2.049464 3.20034,1.549464 c 4.147017,2.007802 5.624137,1.953389 7.646854,-0.281689 2.118333,-2.340731 1.008334,-3.531278 -1.593358,-1.708981 -2.24979,1.575814 -4.753836,1.013856 -4.753836,-1.066856 0,-0.766156 -0.675,-1.393011 -1.5,-1.393011 -0.825,0 -1.5,0.54 -1.5,1.2 0,0.828663 -0.320946,0.879054 -1.037161,0.162839 -2.528568,-2.528568 2.263445,-8.362839 6.868868,-8.362839 1.57846,0 1.934294,0.636908 1.815741,3.25 -0.120838,2.66347 0.258611,3.30767 2.102552,3.569551 2.886147,0.409898 2.862373,2.256526 -0.06445,5.006135 -2.899238,2.723692 -5.784136,2.764507 -8.824765,0.124851 z m 56.08344,1.10524 c 2.92824,-2.928239 3.71058,-8.674751 1.51177,-11.104406 -2.80242,-3.096638 -8.29022,-4.342367 -13.24817,-3.00733 -5.32639,1.434247 -7.68268,4.742323 -6.88391,9.664556 0.91285,5.625232 2.08745,6.391403 9.79853,6.391403 5.47846,0 7.27307,-0.395514 8.82178,-1.944223 z m -12.50309,-0.637412 c -1.9136,-1.559204 -1.91277,-1.571563 0.0589,-0.871404 4.18488,1.486114 6.06089,1.524845 7.90278,0.163153 2.86285,-2.116487 1.10066,-4.086086 -1.89795,-2.121325 -2.2316,1.462203 -2.4773,1.428156 -3.68839,-0.511115 -1.58378,-2.535974 -3.51009,-2.688914 -4.12714,-0.327674 -0.25153,0.9625 -0.50953,0.30503 -0.57333,-1.461045 -0.13698,-3.79173 3.04885,-7.288955 6.63995,-7.288955 1.86366,0 2.25104,0.402614 1.78876,1.859123 -0.85233,2.68545 0.37149,5.140877 2.56228,5.140877 2.65035,0 2.4382,3.504727 -0.3295,5.443296 -2.84093,1.989865 -5.87475,1.980792 -8.33636,-0.02493 z m -8.77446,-75.085032 c -0.36667,-0.366666 -0.66667,-1.131666 -0.66667,-1.7 0,-0.626604 0.46577,-0.567562 1.18333,0.15 0.65084,0.650834 0.95084,1.415834 0.66667,1.7 -0.28417,0.284167 -0.81667,0.216667 -1.18333,-0.15 z m -7.91667,-2.995614 c 0.6875,-0.277412 1.8125,-0.277412 2.5,0 0.6875,0.277413 0.125,0.504386 -1.25,0.504386 -1.375,0 -1.9375,-0.226973 -1.25,-0.504386 z m 11.0625,-8.020833 c 0.72187,-0.2888706 1.58437,-0.2533443 1.91667,0.078947 0.33229,0.3322917 -0.25834,0.5686404 -1.3125,0.5252193 -1.16495,-0.047984 -1.4019,-0.2849403 -0.60417,-0.6041663 z"
     style="fill:#743915" />
  <path
     inkscape:connector-curvature="0"
     id="path410"
     d="m 18.012635,198.22694 c 0.245935,-1.5125 1.369426,-5.63524 2.496647,-9.16163 2.473954,-7.73953 8.110269,-13.90381 15.182535,-16.60474 4.616111,-1.7629 4.737908,-1.91536 4.127905,-5.16695 C 33.39776,133.06161 32.543654,88.908341 37.818372,63.833201 44.914025,30.101639 73.244814,4.6863439 97.788136,10.034866 c 3.300004,0.719142 6.675004,1.238396 7.500004,1.153898 1.09447,-0.112098 1.14229,0.0028 0.17687,0.42498 -0.99528,0.435246 -0.74841,1.233312 0.99637,3.220904 1.93006,2.198663 1.76303,2.138606 -0.99486,-0.357709 -3.22586,-2.919902 -3.58621,-3 -13.49637,-3 -9.547154,0 -10.596533,0.208074 -16.830159,3.337134 -21.071378,10.577088 -32.561225,31.961564 -35.81786,66.662866 -1.704473,18.162137 -1.088889,24.943011 1.033324,11.382428 1.967708,-12.573307 7.954333,-27.119199 16.10566,-39.132428 4.153078,-6.120706 5.791368,-7.536024 3.472626,-3 -2.898495,5.67016 -9.571479,28.143233 -11.506133,38.75 -2.36507,12.966541 -3.651643,26.187371 -1.994936,20.500001 5.113934,-17.55583 7.713863,-24.900234 11.859042,-33.500001 12.922808,-26.810208 30.332897,-45.391472 42.611566,-45.478038 3.5943,-0.02534 7.789,2.925084 9.86427,6.938231 1.38708,2.68231 1.58957,2.743534 5.56463,1.68253 6.6203,-1.767058 10.42948,1.017064 15.67712,11.458373 8.27354,16.461949 13.48702,42.898765 13.54151,68.667035 0.0189,8.94747 0.1799,16.12263 0.35773,15.9448 0.17784,-0.17784 1.27784,-6.1485 2.44444,-13.26813 1.7489,-10.67328 2.0428,-15.84018 1.67489,-29.444801 -0.47355,-17.510781 -2.31778,-28.236624 -7.13873,-41.518198 -3.13182,-8.628052 -1.92491,-7.314718 3.86508,4.205891 5.5996,11.141797 9.19562,24.72993 10.12826,38.271206 1.35073,19.611612 3.39116,10.591482 3.38383,-14.958899 -0.006,-19.981894 -2.11073,-30.898307 -8.38806,-43.5 -7.12286,-14.299083 -15.34028,-22.386951 -25.54067,-25.13802 -3.02926,-0.8169982 -3.71408,-1.2462813 -2.04944,-1.2847175 3.95185,-0.091248 13.09967,4.6483935 17.81464,9.2300705 11.31169,10.991895 18.98108,31.119273 22.74774,59.698654 1.27051,9.639969 1.53157,17.405322 1.14284,33.994014 -0.52744,22.50786 -2.36527,36.21344 -6.76692,50.46434 -1.15175,3.72893 -1.72154,7.09906 -1.26619,7.48919 0.45534,0.39012 2.66778,1.23148 4.91653,1.86969 6.94762,1.97177 12.24469,6.59607 15.48329,13.5168 1.59725,3.41325 3.1427,8.44557 3.43434,11.18294 0.3789,3.55647 0.25967,4.40619 -0.41772,2.97704 -0.81857,-1.72697 -0.95757,-1.7611 -1.01826,-0.25 -0.0663,1.65148 -4.56976,1.75 -79.99697,1.75 -75.279759,0 -79.953264,-0.10174 -80.383998,-1.75 -0.435546,-1.66667 -0.462847,-1.66667 -0.573325,0 -0.0638,0.9625 -0.503599,1.75 -0.977329,1.75 -0.473731,0 -0.660108,-1.2375 -0.414173,-2.75 z m 10.427428,-15.68526 c 2.250406,-2.55659 5.949343,-5.60058 8.21986,-6.7644 2.270517,-1.16383 3.599328,-2.29631 2.952913,-2.51663 -1.650802,-0.56264 -9.388771,3.5269 -12.028777,6.35724 -2.597384,2.78465 -6.229237,10.60624 -6.899606,14.85905 -0.318101,2.01803 0.204157,1.31642 1.595537,-2.14345 1.137635,-2.8289 3.909668,-7.23521 6.160073,-9.79181 z m 149.855677,7.23595 c -1.25281,-3.43596 -3.21007,-7.5081 -4.34945,-9.0492 -2.25955,-3.05621 -12.718,-8.75197 -16.06787,-8.7507 -1.19992,4.5e-4 0.48264,1.218 3.95009,2.8584 7.22064,3.41597 13.74838,10.36981 16.1914,17.2483 0.9361,2.63564 1.89362,4.60045 2.12784,4.36624 0.23421,-0.23421 -0.5992,-3.23708 -1.85201,-6.67304 z m -51.20073,-7.32715 c -0.30789,-0.30789 -0.86705,0.24711 -1.24258,1.23333 -0.54268,1.4252 -0.42782,1.54006 0.5598,0.5598 0.68342,-0.67834 0.99067,-1.48524 0.68278,-1.79313 z m -54.881398,-3.62663 c -2.430029,-4.77095 -6.990635,-11.11508 -7.572218,-10.5335 -0.202315,0.20231 1.660437,3.45596 4.139449,7.23032 2.479011,3.77437 4.507293,7.29609 4.507293,7.82604 0,0.52996 0.256393,0.70717 0.569761,0.3938 0.313369,-0.31337 -0.426559,-2.52587 -1.644285,-4.91666 z m 29.074528,-0.16541 c 0,-1.27517 0.69614,-4.66267 1.54699,-7.52776 1.23696,-4.16533 2.38927,-5.7974 5.75,-8.14406 2.31165,-1.61413 5.24629,-3.67086 6.5214,-4.57051 3.32916,-2.34886 1.97008,-2.90674 -1.97546,-0.8109 -2.52598,1.34179 -5.66454,1.77575 -12.84293,1.77575 -7.178392,0 -10.31695,-0.43396 -12.842934,-1.77575 -5.724295,-3.04071 -4.607674,-1.00879 1.858838,3.38253 6.616949,4.49349 8.56053,7.61983 9.641934,15.50954 0.637475,4.65088 2.342162,6.22383 2.342162,2.16116 z M 70.42997,160.71192 c 0.820687,-1.53347 0.24596,-1.33177 -2.540578,0.89162 -1.980658,1.58037 -3.60121,3.22127 -3.601227,3.64645 -4.9e-5,1.28505 5.004255,-2.41254 6.141805,-4.53807 z m 39.32667,-12.83136 c 2.67026,-0.67238 7.7723,-3.6819 13.19282,-7.782 8.63575,-6.53211 8.89101,-6.84558 11.11784,-13.65361 4.21662,-12.89135 6.42771,-31.360755 4.5801,-38.257988 -0.57686,-2.153439 -0.72286,-2.190947 -2.4487,-0.629081 -1.0094,0.913493 -2.36086,3.293983 -3.00324,5.289977 -1.8809,5.844302 -2.42326,6.144534 -10.77976,5.967388 l -7.62756,-0.161693 7.33239,-0.588307 c 8.09433,-0.64944 9.64134,-1.766143 10.76824,-7.773002 1.65742,-8.834832 -12.89126,-12.429978 -19.9955,-4.941117 -1.6309,1.719197 -2.63269,2.563312 -2.22619,1.875812 0.4065,-0.6875 0.25872,-1.25 -0.3284,-1.25 -0.70835,0 -0.66123,-0.650528 0.14009,-1.933633 0.66416,-1.063499 1.45548,-1.914831 1.75847,-1.891849 1.38599,0.105124 5.0509,-1.489392 5.0509,-2.19753 0,-0.434362 0.9,-0.554393 2,-0.266737 1.1,0.287656 2,0.122573 2,-0.366853 0,-1.199469 7.81599,-1.450146 8.5429,-0.273989 0.31632,0.511825 2.15487,0.930591 4.08567,0.930591 3.06857,0 3.4703,-0.283268 3.19098,-2.25 -0.28353,-1.996365 -1.13174,-2.349578 -7.52454,-3.133356 -5.87635,-0.72046 -8.08922,-0.569269 -12,0.819883 -7.27046,2.582544 -9.29501,2.937828 -9.29501,1.631158 0,-1.974859 8.19756,-5.023911 13.5,-5.021277 2.75,0.0014 6.97189,0.457094 9.38198,1.012729 2.41008,0.555634 4.55998,0.832237 4.77754,0.614673 0.49834,-0.498341 -5.4018,-18.239775 -7.28119,-21.894166 -1.59545,-3.102276 -3.5412,-4.314046 -10.18233,-6.341297 -7.31593,-2.233241 -17.05829,-2.81095 -24.951486,-1.47959 -6.293025,1.061456 -7.572843,1.662258 -10.542178,4.948956 -4.176501,4.622889 -10.349918,12.939276 -14.992639,20.197018 l -3.512457,5.490853 7.151378,-1.858172 c 6.639654,-1.725208 7.51616,-1.746292 12.249232,-0.294651 4.752515,1.457603 9.390273,4.902446 8.201095,6.091623 -0.287167,0.287168 -2.787261,-0.615591 -5.555763,-2.00613 -5.542677,-2.783929 -9.462843,-3.098767 -17.443965,-1.400967 -4.872566,1.036526 -6.744119,2.173905 -6.783908,4.122713 -0.02223,1.088896 7.760096,0.922412 8.44179,-0.180591 0.641689,-1.038275 8.542897,-0.995668 8.542897,0.04607 0,0.538782 5.137741,1.978839 8.230743,2.306995 0.401908,0.04264 1.407941,1.044366 2.235628,2.226055 1.204884,1.720212 1.244254,2.24854 0.197491,2.650221 -0.719067,0.275932 -1.829162,-0.333788 -2.466878,-1.354933 -1.725709,-2.763299 -8.777716,-4.386005 -13.244672,-3.047672 -5.238628,1.569531 -7.334849,4.251223 -6.558385,8.390131 1.132701,6.037818 2.671167,7.151937 10.773681,7.802034 l 7.332392,0.588307 -7.627555,0.161693 c -8.060574,0.170872 -9.034092,-0.284213 -10.350098,-4.838307 -1.0589,-3.66437 -5.582094,-10 -7.139296,-10 -2.39376,0 -2.523734,4.301675 -0.483962,16.017443 1.099542,6.315408 2.299739,14.522438 2.667103,18.237848 0.509345,5.15136 1.399126,7.85919 3.747511,11.4046 3.583008,5.40936 18.358938,16.77355 23.647547,18.18738 4.963875,1.32701 14.353274,1.35413 19.507254,0.0563 z M 96.538136,115.98362 c -3.620005,-1.51595 -2.654039,-2.00668 3.950004,-2.00668 4.05435,0 5.86042,0.33958 5.21875,0.98125 -1.50266,1.50266 -6.653528,2.07873 -9.168754,1.02543 z M 74.14892,94.927476 l -2.360784,-2.049464 3.20034,1.549464 c 4.147017,2.007802 5.624137,1.953389 7.646854,-0.281689 2.118333,-2.340731 1.008334,-3.531278 -1.593358,-1.708981 -2.24979,1.575814 -4.753836,1.013856 -4.753836,-1.066856 0,-0.766156 -0.675,-1.393011 -1.5,-1.393011 -0.825,0 -1.5,0.54 -1.5,1.2 0,0.828663 -0.320946,0.879054 -1.037161,0.162839 -2.528568,-2.528568 2.263445,-8.362839 6.868868,-8.362839 1.57846,0 1.934294,0.636908 1.815741,3.25 -0.120838,2.66347 0.258611,3.30767 2.102552,3.569551 2.886147,0.409898 2.862373,2.256526 -0.06445,5.006135 -2.899238,2.723692 -5.784136,2.764507 -8.824765,0.124851 z m 13.870429,-0.0307 c 0.353609,-1.352204 0.806902,-1.805497 1.05655,-1.056551 0.240481,0.721441 -0.03821,1.787158 -0.619313,2.36826 -0.742068,0.742068 -0.872211,0.351636 -0.437237,-1.311709 z M 117.72927,95.3953 c -1.9136,-1.559204 -1.91277,-1.571563 0.0589,-0.871404 4.18488,1.486114 6.06089,1.524845 7.90278,0.163153 2.86285,-2.116487 1.10066,-4.086086 -1.89795,-2.121325 -2.2316,1.462203 -2.4773,1.428156 -3.68839,-0.511115 -1.58378,-2.53597 -3.51009,-2.68891 -4.12714,-0.32767 -0.25153,0.9625 -0.50953,0.30503 -0.57333,-1.461045 -0.13698,-3.79173 3.04885,-7.288955 6.63995,-7.288955 1.86366,0 2.25104,0.402614 1.78876,1.859123 -0.85233,2.68545 0.37149,5.140877 2.56228,5.140877 2.65035,0 2.4382,3.504727 -0.3295,5.443296 -2.84093,1.989865 -5.87475,1.980792 -8.33636,-0.02493 z m -8.77446,-75.085028 c -0.36667,-0.366666 -0.66667,-1.131666 -0.66667,-1.7 0,-0.626604 0.46577,-0.567562 1.18333,0.15 0.65084,0.650834 0.95084,1.415834 0.66667,1.7 -0.28417,0.284167 -0.81667,0.216667 -1.18333,-0.15 z m -7.91667,-2.995614 c 0.6875,-0.277412 1.8125,-0.277412 2.5,0 0.6875,0.277413 0.125,0.504386 -1.25,0.504386 -1.375,0 -1.9375,-0.226973 -1.25,-0.504386 z m 11.0625,-8.020833 c 0.72187,-0.2888706 1.58437,-0.2533443 1.91667,0.078947 0.33229,0.3322917 -0.25834,0.5686404 -1.3125,0.5252193 -1.16495,-0.047984 -1.4019,-0.2849403 -0.60417,-0.6041663 z"
     style="fill:#64311e" />
  <path
     inkscape:connector-curvature="0"
     id="path408"
     d="m 18.358421,198.83228 c -0.03866,-1.45457 0.861169,-5.66037 1.999612,-9.34622 2.485288,-8.04642 8.0757,-14.2536 15.333784,-17.02549 4.616111,-1.7629 4.737908,-1.91536 4.127905,-5.16695 C 33.39776,133.06161 32.543654,88.908341 37.818372,63.833201 44.914025,30.101639 73.244814,4.6863439 97.788136,10.034866 c 3.300004,0.719142 6.675004,1.238396 7.500004,1.153898 1.09447,-0.112098 1.14229,0.0028 0.17687,0.42498 -0.99528,0.435246 -0.74841,1.233312 0.99637,3.220904 1.93006,2.198663 1.76303,2.138606 -0.99486,-0.357709 -3.22586,-2.919902 -3.58621,-3 -13.49637,-3 -9.547154,0 -10.596533,0.208074 -16.830159,3.337134 -21.071378,10.577088 -32.561225,31.961564 -35.81786,66.662866 -1.704473,18.162137 -1.088889,24.943011 1.033324,11.382428 1.967708,-12.573307 7.954333,-27.119199 16.10566,-39.132428 4.153078,-6.120706 5.791368,-7.536024 3.472626,-3 -2.898495,5.67016 -9.571479,28.143233 -11.506133,38.75 -2.36507,12.966541 -3.651643,26.187371 -1.994936,20.500001 5.113934,-17.55583 7.713863,-24.900234 11.859042,-33.500001 12.922808,-26.810208 30.332897,-45.391472 42.611566,-45.478038 3.5943,-0.02534 7.789,2.925084 9.86427,6.938231 1.38708,2.68231 1.58957,2.743534 5.56463,1.68253 6.6203,-1.767058 10.42948,1.017064 15.67712,11.458373 8.27354,16.461949 13.48702,42.898765 13.54151,68.667035 0.0189,8.94747 0.1799,16.12263 0.35773,15.9448 0.17784,-0.17784 1.27784,-6.1485 2.44444,-13.26813 1.7489,-10.67328 2.0428,-15.84018 1.67489,-29.444801 -0.47355,-17.510781 -2.31778,-28.236624 -7.13873,-41.518198 -3.13182,-8.628052 -1.92491,-7.314718 3.86508,4.205891 5.5996,11.141797 9.19562,24.72993 10.12826,38.271206 1.35073,19.611612 3.39116,10.591482 3.38383,-14.958899 -0.006,-19.981894 -2.11073,-30.898307 -8.38806,-43.5 -7.12286,-14.299083 -15.34028,-22.386951 -25.54067,-25.13802 -3.02926,-0.8169982 -3.71408,-1.2462813 -2.04944,-1.2847175 3.95185,-0.091248 13.09967,4.6483935 17.81464,9.2300705 11.31169,10.991895 18.98108,31.119273 22.74774,59.698654 1.27051,9.639969 1.53157,17.405322 1.14284,33.994014 -0.52744,22.50786 -2.36527,36.21344 -6.76692,50.46434 -1.15175,3.72893 -1.72154,7.09906 -1.26619,7.48919 0.45534,0.39012 2.66778,1.23148 4.91653,1.86969 6.96943,1.97796 12.24872,6.59444 15.4312,13.49385 1.5686,3.40061 3.10529,8.43293 3.41486,11.18293 0.6302,5.59819 -0.16925,4.02969 -2.83582,-5.5638 -2.15436,-7.75072 -6.35058,-13.13525 -12.70364,-16.30111 -8.08126,-4.02707 -8.81466,-3.75742 -13.24334,4.8692 -3.80564,7.41301 -5.89723,9.60589 -5.00343,5.24571 0.26416,-1.28861 -0.20569,-0.80619 -1.0996,1.12904 -0.85846,1.85847 -3.16572,6.02097 -5.12726,9.25 -3.48704,5.74029 -3.66496,5.87096 -7.99401,5.87096 h -4.4276 l -0.11831,-5.25 c -0.0651,-2.8875 -0.40275,-6.5755 -0.75039,-8.19555 l -0.63208,-2.94554 -1.24948,2.74232 c -1.23236,2.70472 -1.28241,2.71769 -3.64985,0.94555 -1.3202,-0.98823 -3.22164,-3.01228 -4.22541,-4.49789 -1.66579,-2.46541 -1.97402,-2.56629 -3.53232,-1.15604 -0.93901,0.84978 -1.4714,2.15977 -1.18309,2.91108 0.2883,0.75131 -0.62301,3.87183 -2.02514,6.93449 -1.40213,3.06266 -2.29522,6.23067 -1.98464,7.04003 0.47266,1.23172 -0.98255,1.47155 -8.9288,1.47155 h -9.493495 l -0.518146,-2.75 c -1.259042,-6.68223 -3.771385,-13.75698 -5.498688,-15.48428 -1.835297,-1.8353 -1.928029,-1.80123 -4.226005,1.55245 -1.292243,1.8859 -3.158913,3.93438 -4.148155,4.55217 -1.551787,0.96911 -2.087139,0.55772 -3.900972,-2.99769 -1.156292,-2.26652 -3.4628,-5.97758 -5.125574,-8.2468 l -3.023224,-4.12585 0.693987,4.5 c 0.720677,4.67307 4.069976,18.66426 5.127987,21.42139 0.505814,1.31813 -0.285925,1.57861 -4.798272,1.57861 -4.946708,0 -5.704559,-0.31736 -8.95508,-3.75 -5.977252,-6.31215 -8.912591,-10.86216 -11.911537,-18.46383 -2.856171,-7.23977 -2.875187,-7.26069 -2.985751,-3.28617 l -0.111272,4 -1.173149,-3.74118 -1.173148,-3.74119 -5.040865,2.34829 c -2.772476,1.29155 -6.225018,3.75557 -7.672315,5.47558 -2.612164,3.10438 -6.72234,12.66249 -6.857105,15.94601 -0.03866,0.94187 -0.457029,2.61249 -0.929715,3.71249 -0.772152,1.79689 -0.866567,1.73143 -0.929715,-0.64466 z m 64.361382,-19.295 c 3.056872,-4.64181 6.572786,-9.16521 7.813141,-10.05199 l 2.255192,-1.61233 -2.126961,-1.69801 c -1.169828,-0.93391 -4.23185,-2.93924 -6.804493,-4.45631 -5.636336,-3.32369 -8.143823,-8.09841 -6.509878,-12.39601 1.02726,-2.7019 1.010655,-2.7184 -0.949885,-0.94414 -1.097482,0.99321 -2.296074,3.1747 -2.663539,4.84775 -0.367464,1.67305 -2.64297,4.96125 -5.05668,7.30711 -2.735483,2.65859 -4.384501,5.14632 -4.377779,6.60439 0.0059,1.28656 1.977905,5.15548 4.382161,8.5976 2.404256,3.44213 4.928997,7.60463 5.610535,9.25 0.681538,1.64538 1.606152,2.9916 2.054698,2.9916 0.448546,0 3.316616,-3.79785 6.373488,-8.43966 z m 43.029197,6.18966 c 0.38176,-1.2375 0.83853,-8.99826 1.01502,-17.24614 0.24319,-11.36417 -0.0161,-15.64775 -1.07037,-17.68659 -1.97266,-3.8147 -3.45503,-4.40872 -2.11009,-0.84556 0.95888,2.54034 0.82246,3.39892 -0.91471,5.75695 -1.12292,1.52424 -4.2187,4.21316 -6.87952,5.97538 -2.66082,1.76223 -5.53505,3.90125 -6.38719,4.75339 -1.39912,1.39912 -1.33382,1.7003 0.67352,3.1063 1.22257,0.85632 4.72394,5.3548 7.78081,9.99661 3.05688,4.64181 5.92705,8.43966 6.37818,8.43966 0.45112,0 1.13258,-1.0125 1.51435,-2.25 z m -23.98795,-9.5 c 1.10723,-7.5133 3.34888,-11.16084 9.13296,-14.86087 5.50694,-3.52275 8.32879,-6.40933 4.80817,-4.91848 -4.02347,1.70381 -11.99634,3.52935 -15.41404,3.52935 -3.417702,0 -11.390576,-1.82554 -15.414049,-3.52935 -3.436131,-1.45508 -0.791979,1.28569 4.859123,5.03668 5.848307,3.88188 7.995,7.36657 9.082007,14.74267 0.385001,2.6125 1.047813,4.75 1.472919,4.75 0.4251,0 1.08791,-2.1375 1.47291,-4.75 z m 9.66543,-28.78147 c 2.47205,-0.84231 8.15374,-4.42488 12.626,-7.96126 7.78228,-6.15375 8.22077,-6.71924 10.21394,-13.17238 4.20947,-13.62866 6.16161,-32.055858 4.15464,-39.217619 -0.55642,-1.98557 -0.86362,-2.146681 -1.84302,-0.966577 -0.64642,0.778883 -2.12945,3.64208 -3.29563,6.362662 -1.16617,2.720581 -2.65446,5.28615 -3.30729,5.701264 -0.65284,0.415114 -4.11198,0.69084 -7.68698,0.612724 l -6.5,-0.142029 6.83151,-0.592658 c 7.55284,-0.655237 9.16242,-1.878157 10.27456,-7.806385 0.77647,-4.138908 -1.31975,-6.8206 -6.55838,-8.390131 -4.46797,-1.338637 -11.33109,0.242674 -13.30896,3.066479 -0.88413,1.262276 -1.79678,1.619536 -2.70435,1.058627 -1.03601,-0.640288 -0.53691,-1.358319 2.04788,-2.946184 5.37887,-3.304304 10.55201,-4.314776 18.17196,-3.549533 6.8507,0.687989 6.91065,0.672873 6.57974,-1.659177 -0.23961,-1.688562 -1.18155,-2.533779 -3.33396,-2.991608 -5.44425,-1.158022 -13.93592,-0.811339 -18,0.734873 -6.44656,2.452646 -7.5,2.680323 -7.5,1.620954 0,-1.4245 6.58079,-4.364658 11.13699,-4.975772 2.11945,-0.284279 6.59943,0.02335 9.9555,0.683613 3.35607,0.660266 6.30144,1.000988 6.54527,0.757159 0.43538,-0.435382 -4.18354,-15.096188 -6.74563,-21.411153 -2.8941,-7.133269 -22.74245,-11.440024 -37.820406,-8.206383 -4.112089,0.881885 -5.834026,1.975963 -9.463646,6.012973 -4.366939,4.857088 -17.852928,23.997477 -17.298705,24.5517 0.15617,0.15617 2.471967,-0.374552 5.146215,-1.179382 2.674248,-0.80483 6.833678,-1.463328 9.243177,-1.463328 4.184151,0 11.46476,2.837545 12.792399,4.98571 0.982958,1.590459 -1.214759,1.195951 -5.491168,-0.98571 -6.575003,-3.354316 -21.258868,-2.017642 -23.876254,2.17346 -1.304365,2.088619 -1.264156,2.097039 6.697351,1.402548 8.737716,-0.762201 13.614635,0.131391 19.096646,3.499056 2.584786,1.587865 3.083885,2.305896 2.047877,2.946184 -0.90757,0.560909 -1.820222,0.203649 -2.704355,-1.058627 -1.97787,-2.823805 -8.840982,-4.405116 -13.308953,-3.066479 -5.238628,1.569531 -7.334849,4.251223 -6.558385,8.390131 1.112142,5.928228 2.721718,7.151148 10.274568,7.806385 l 6.831505,0.592658 -6.5,0.142029 c -3.575,0.07812 -7.002019,-0.18858 -7.615597,-0.592658 C 70.05896,97.807548 68.372011,94.959682 66.923762,91.883034 63.67975,84.99148 60.612598,81.85047 59.242399,84.016702 c -1.300231,2.055618 -1.185229,4.006242 0.970436,16.460238 1.047196,6.05 2.223485,14.07041 2.613975,17.82313 0.544559,5.23336 1.438254,7.90711 3.835654,11.47546 3.654038,5.43877 16.368252,15.56164 22.125672,17.61614 5.374703,1.91793 17.085754,1.94576 22.638344,0.0538 z M 96.288136,115.47694 c -2.359255,-1.34867 -2.134062,-1.42913 4.000004,-1.42913 6.13406,0 6.35925,0.0805 4,1.42913 -1.375,0.78602 -3.175,1.42913 -4,1.42913 -0.825004,0 -2.625004,-0.64311 -4.000004,-1.42913 z M 74.14892,94.927476 l -2.360784,-2.049464 3.20034,1.549464 c 4.147017,2.007802 5.624137,1.953389 7.646854,-0.281689 2.118333,-2.340731 1.008334,-3.531278 -1.593358,-1.708981 -2.24979,1.575814 -4.753836,1.013856 -4.753836,-1.066856 0,-0.766156 -0.675,-1.393011 -1.5,-1.393011 -0.825,0 -1.5,0.54 -1.5,1.2 0,0.828663 -0.320946,0.879054 -1.037161,0.162839 -2.528568,-2.528568 2.263445,-8.362839 6.868868,-8.362839 1.57846,0 1.934294,0.636908 1.815741,3.25 -0.120838,2.66347 0.258611,3.30767 2.102552,3.569551 2.886147,0.409898 2.862373,2.256526 -0.06445,5.006135 -2.899238,2.723692 -5.784136,2.764507 -8.824765,0.124851 z m 43.58035,0.467828 c -1.9136,-1.559204 -1.91277,-1.571563 0.0589,-0.871404 4.18488,1.486114 6.06089,1.524845 7.90278,0.163153 2.86285,-2.116487 1.10066,-4.086086 -1.89795,-2.121325 -2.2316,1.462203 -2.4773,1.428156 -3.68839,-0.511115 -1.58378,-2.535974 -3.51009,-2.688914 -4.12714,-0.327674 -0.25153,0.9625 -0.50953,0.30503 -0.57333,-1.461045 -0.13698,-3.79173 3.04885,-7.288955 6.63995,-7.288955 1.86366,0 2.25104,0.402614 1.78876,1.859123 -0.85233,2.68545 0.37149,5.140877 2.56228,5.140877 2.65035,0 2.4382,3.504727 -0.3295,5.443296 -2.84093,1.989865 -5.87475,1.980792 -8.33636,-0.02493 z m -8.77446,-75.085032 c -0.36667,-0.366666 -0.66667,-1.131666 -0.66667,-1.7 0,-0.626604 0.46577,-0.567562 1.18333,0.15 0.65084,0.650834 0.95084,1.415834 0.66667,1.7 -0.28417,0.284167 -0.81667,0.216667 -1.18333,-0.15 z m -7.91667,-2.995614 c 0.6875,-0.277412 1.8125,-0.277412 2.5,0 0.6875,0.277413 0.125,0.504386 -1.25,0.504386 -1.375,0 -1.9375,-0.226973 -1.25,-0.504386 z m 11.0625,-8.020833 c 0.72187,-0.2888706 1.58437,-0.2533443 1.91667,0.078947 0.33229,0.3322917 -0.25834,0.5686404 -1.3125,0.5252193 -1.16495,-0.047984 -1.4019,-0.2849403 -0.60417,-0.6041663 z"
     style="fill:#4c342a" />
  <path
     inkscape:connector-curvature="0"
     id="path406"
     d="m 18.373828,199.04254 c -0.159588,-4.53368 3.021713,-13.54261 6.450383,-18.26642 2.52188,-3.4745 5.00056,-5.43106 9.501408,-7.5 l 6.089427,-2.79918 -0.620349,-4 C 34.865194,134.69159 33.907514,122.3874 34.591549,99.62733 35.651115,64.372158 39.909496,48.321162 52.726905,31.270239 60.680484,20.689641 74.407247,11.530362 83.93546,10.446112 l 3.852676,-0.43841 -3.745853,0.96813 C 68.153875,15.082252 52.304182,30.545584 44.941466,49.123507 37.78729,67.175232 33.919445,102.20941 36.180685,128.47694 c 1.655202,19.22753 4.253103,37.52802 5.240752,36.91762 0.476684,-0.29461 0.908984,-1.5216 0.960665,-2.72664 0.05168,-1.20504 0.685422,0.73402 1.408312,4.30902 2.248935,11.12194 7.126724,20.28284 15.840605,29.75 2.490552,2.70585 3.366843,4.25 2.411837,4.25 -1.732393,0 -8.331204,-6.8918 -12.208014,-12.75006 -1.462306,-2.20969 -3.749039,-7.10739 -5.08163,-10.88378 l -2.422892,-6.86616 -0.02109,4.41667 c -0.02336,4.89133 -0.660462,5.16529 -1.314574,0.56527 -0.349379,-2.45699 -0.844985,-2.93553 -2.815271,-2.71833 -3.469726,0.38251 -9.906472,5.1776 -13.107246,9.76432 -1.524519,2.18464 -3.636025,7.34707 -4.692235,11.47207 -1.05621,4.125 -1.958943,6.40452 -2.006074,5.0656 z m 48.527211,-6.3156 c -4.833335,-15.20596 -5.702001,-22.47856 -6.599259,-55.25 -0.781437,-28.54119 -2.616836,-51.12602 -3.860177,-47.500001 -0.282887,0.825 -1.563408,4.875 -2.845601,9 -1.282193,4.125001 -2.078389,5.800681 -1.769324,3.723741 C 54.279979,86.214296 66.800477,63.515411 83.288136,45.663007 94.840434,33.154483 103.42249,29.78181 108.83589,35.622962 c 1.34874,1.455312 2.45225,3.304096 2.45225,4.108408 0,1.11038 0.66194,1.281956 2.75,0.712801 6.68816,-1.82303 11.40762,1.038492 15.72225,9.532768 8.51973,16.772931 15.72617,53.012921 12.52775,63.000001 -0.57542,1.79675 -0.85767,0.39026 -1.00336,-5 l -0.20272,-7.5 -1.30506,9.55822 c -0.71777,5.25701 -3.14641,16.5488 -5.39695,25.09286 -3.59265,13.63926 -4.08195,16.80445 -4.01031,25.94179 0.0511,6.52112 0.75505,13.02092 1.88515,17.40713 1.00032,3.88247 1.8547,5.85609 1.9184,4.4315 0.13079,-2.9249 3.06554,-13.31415 3.6078,-12.77189 0.19628,0.19629 -0.2773,3.05317 -1.05241,6.34864 -0.77512,3.29546 -1.41633,7.70581 -1.42492,9.80077 -0.009,2.09496 -0.39892,3.57212 -0.86739,3.28259 -0.77946,-0.48173 -3.75711,-10.21711 -6.1452,-20.09161 -0.84478,-3.49312 -0.90461,-3.17632 -0.47212,2.5 0.27239,3.575 1.15903,8.975 1.9703,12 1.68203,6.27176 1.9968,17 0.49879,17 -0.55,0 -1.05324,-2.3625 -1.11831,-5.25 -0.0651,-2.8875 -0.40275,-6.5755 -0.75039,-8.19555 l -0.63208,-2.94554 -1.24948,2.74232 c -1.23236,2.70472 -1.28241,2.71769 -3.64985,0.94555 -1.3202,-0.98823 -3.22164,-3.01228 -4.22541,-4.49789 -1.66579,-2.46541 -1.97402,-2.56629 -3.53232,-1.15604 -0.93901,0.84978 -1.4714,2.15977 -1.18309,2.91108 0.2883,0.75131 -0.62301,3.87183 -2.02514,6.93449 -1.40213,3.06266 -2.29522,6.23067 -1.98464,7.04003 0.47266,1.23172 -0.98255,1.47155 -8.9288,1.47155 h -9.493495 l -0.518146,-2.75 c -1.259042,-6.68223 -3.771385,-13.75698 -5.498688,-15.48428 -1.835297,-1.8353 -1.928029,-1.80123 -4.226005,1.55245 -1.292243,1.8859 -3.158913,3.93438 -4.148155,4.55217 -1.551787,0.96911 -2.087139,0.55772 -3.900972,-2.99769 -1.156292,-2.26652 -3.4628,-5.97758 -5.125574,-8.2468 l -3.023224,-4.12585 0.693987,4.5 c 0.720677,4.67307 4.069976,18.66426 5.127987,21.42139 0.333173,0.86824 0.160551,1.57861 -0.383604,1.57861 -0.544156,0 -2.169421,-3.7125 -3.611702,-8.25 z m 15.818764,-13.18966 c 3.056872,-4.64181 6.572786,-9.16521 7.813141,-10.05199 l 2.255192,-1.61233 -2.126961,-1.69801 c -1.169828,-0.93391 -4.23185,-2.93924 -6.804493,-4.45631 -5.603396,-3.30427 -8.142146,-8.10282 -6.530127,-12.34275 1.808773,-4.75743 -1.527863,-0.96278 -4.506246,5.12482 -1.552621,3.17344 -3.884119,6.16177 -5.596714,7.17343 -4.143615,2.44769 -4.014986,7.00897 0.359203,12.73767 1.812064,2.37319 4.398792,6.39619 5.748283,8.94001 1.349491,2.54382 2.76348,4.62512 3.142197,4.62512 0.378716,0 3.189653,-3.79785 6.246525,-8.43966 z m 43.072857,6.68966 c 0.39518,-0.9625 0.85146,-8.7158 1.01397,-17.22955 0.22484,-11.77936 -0.0392,-16.12662 -1.1044,-18.18658 -1.97948,-3.82789 -3.46652,-4.43302 -2.11867,-0.86216 0.95888,2.54034 0.82246,3.39892 -0.91471,5.75695 -1.12292,1.52424 -4.2187,4.21316 -6.87952,5.97538 -2.66082,1.76223 -5.53505,3.90125 -6.38719,4.75339 -1.39912,1.39912 -1.33382,1.7003 0.67352,3.1063 1.22257,0.85632 4.72394,5.3548 7.78081,9.99661 3.05688,4.64181 5.93139,8.43966 6.38782,8.43966 0.45643,0 1.1532,-0.7875 1.54837,-1.75 z m -24.03161,-10 c 1.10723,-7.5133 3.34888,-11.16084 9.13296,-14.86087 5.50694,-3.52275 8.32879,-6.40933 4.80817,-4.91848 -4.02347,1.70381 -11.99634,3.52935 -15.41404,3.52935 -3.417702,0 -11.390576,-1.82554 -15.414049,-3.52935 -3.436131,-1.45508 -0.791979,1.28569 4.859123,5.03668 5.848307,3.88188 7.995,7.36657 9.082007,14.74267 0.385001,2.6125 1.047813,4.75 1.472919,4.75 0.4251,0 1.08791,-2.1375 1.47291,-4.75 z m 9.66543,-28.78147 c 2.47205,-0.84231 8.15374,-4.42488 12.626,-7.96126 7.78228,-6.15375 8.22077,-6.71924 10.21394,-13.17238 4.2006,-13.59997 6.16266,-32.064052 4.16343,-39.180368 -0.63494,-2.260117 -0.71755,-2.278313 -2.26983,-0.5 -0.886,1.015012 -1.8591,2.520477 -2.16244,3.345477 -0.32776,0.891387 -0.58358,0.454935 -0.63049,-1.075686 -0.23305,-7.603254 -15.70743,-10.575925 -20.37373,-3.91385 -0.8588,1.226116 -1.76656,1.569659 -2.67084,1.010784 -1.03601,-0.640288 -0.53691,-1.358319 2.04788,-2.946184 5.98088,-3.674126 13.46279,-4.598571 21.66774,-2.677209 2.76953,0.648544 3.25,0.487625 3.25,-1.088499 0,-2.745586 -3.6856,-15.539876 -6.73252,-23.371466 -2.47532,-6.362364 -3.01065,-7.011306 -7.30942,-8.860588 -9.49654,-4.085302 -21.54011,-5.218133 -31.886336,-2.999265 -4.080922,0.875201 -5.836824,1.979074 -9.332303,5.866889 -4.698189,5.225516 -12.739339,16.55723 -17.566685,24.755246 -2.896822,4.919513 -2.957613,5.233331 -1.126362,5.814548 1.064649,0.337906 2.370889,0.345429 2.902756,0.01672 1.949424,-1.204811 11.216689,-1.563411 14.831725,-0.57392 5.61056,1.535697 10.881144,5.015309 9.184761,6.063731 -0.904278,0.558875 -1.812039,0.215332 -2.670844,-1.010784 -1.777292,-2.537442 -7.764583,-4.35819 -12.046418,-3.663344 -4.395916,0.713359 -8.248358,4.205641 -8.248358,7.47723 0,2.295089 -0.207234,2.189645 -2.840289,-1.445181 -1.562159,-2.156497 -3.050479,-4.551476 -3.307378,-5.322174 -0.2885,-0.8655 -0.977811,-0.16828 -1.802846,1.82353 -1.155003,2.788424 -1.051279,4.942982 0.766519,15.922135 1.156251,6.983538 2.408713,15.553378 2.783248,19.044098 0.503782,4.69531 1.490177,7.55117 3.79086,10.97546 3.640838,5.41897 16.362937,15.54175 22.109886,17.59251 5.374703,1.91793 17.085754,1.94576 22.638344,0.0538 z M 96.288136,115.47694 c -2.359255,-1.34867 -2.134062,-1.42913 4.000004,-1.42913 6.13406,0 6.35925,0.0805 4,1.42913 -1.375,0.78602 -3.175,1.42913 -4,1.42913 -0.825004,0 -2.625004,-0.64311 -4.000004,-1.42913 z M 70.65888,98.172566 c -1.526308,-0.991044 -3.643142,-5.256562 -2.951764,-5.94794 0.319561,-0.319561 0.58102,-0.05602 0.58102,0.585646 0,0.641667 0.9375,2.104167 2.083333,3.25 2.098388,2.098388 2.275966,3.403479 0.287411,2.112294 z m 8.879256,0.115047 c 0.9625,-0.251527 2.5375,-0.251527 3.5,0 0.9625,0.251528 0.175,0.457323 -1.75,0.457323 -1.925,0 -2.7125,-0.205795 -1.75,-0.457323 z m 38.019034,-0.0037 c 0.97297,-0.253543 2.32297,-0.236869 3,0.03705 0.67703,0.273923 -0.11903,0.481368 -1.76903,0.460988 -1.65,-0.02038 -2.20394,-0.244498 -1.23097,-0.498042 z m 10.73097,-0.338359 c 0,-0.532738 0.43563,-0.968615 0.96806,-0.968615 0.53244,0 1.63942,-1.2375 2.45997,-2.75 1.76097,-3.245984 2.0692,-2.435418 0.43652,1.147935 -1.15443,2.533701 -3.86455,4.336459 -3.86455,2.57068 z M 76.954803,92.310272 c -1.176468,-1.176468 -0.712199,-4.101883 0.739377,-4.658905 0.773324,-0.296752 2.193069,0.330103 3.154988,1.393011 1.576087,1.741557 1.320634,2.387561 -0.811032,2.050982 -0.4125,-0.06513 -0.75,0.331579 -0.75,0.881579 0,1.137877 -1.337691,1.328976 -2.333333,0.333333 z M 119.6946,91.593777 c -1.27002,-3.309614 2.27073,-4.915654 4.6136,-2.092672 1.44896,1.745896 1.31174,1.971678 -1.77499,2.920557 -1.56914,0.482365 -2.43244,0.230583 -2.83861,-0.827885 z M 86.955593,75.866506 c -2.107899,-1.112122 -5.707899,-2.414317 -8,-2.893765 l -4.167457,-0.871724 4.5,0.147938 c 4.369526,0.14365 12,3.268015 12,4.913507 0,1.032611 0.187007,1.088548 -4.332543,-1.295956 z m 22.332547,1.085086 c 0,-1.360051 5.28149,-3.593592 10.5,-4.440442 3.20069,-0.519403 3.64157,-0.42299 2.2063,0.482482 -0.98653,0.622378 -2.95966,1.343025 -4.38472,1.601439 -1.42506,0.258413 -3.8804,1.136604 -5.4563,1.951535 -1.79552,0.928497 -2.86528,1.0797 -2.86528,0.404986 z M 72.100636,73.293825 c 0.721875,-0.288871 1.584375,-0.253344 1.916667,0.07895 0.332291,0.332292 -0.258334,0.568641 -1.3125,0.52522 -1.164943,-0.04798 -1.4019,-0.284941 -0.604167,-0.604167 z m 54.187504,-0.223266 c 0,-0.49851 0.9,-0.671025 2,-0.383369 1.1,0.287656 2,0.695528 2,0.90638 0,0.210853 -0.9,0.383369 -2,0.383369 -1.1,0 -2,-0.407871 -2,-0.90638 z m 10,127.527531 c 0,-0.20836 1.54549,-2.94538 3.43442,-6.08227 4.60347,-7.64481 10.19847,-21.14564 13.07032,-31.53888 2.82082,-10.20854 3.28291,-8.01342 0.59645,2.83339 -1.04434,4.21663 -2.15291,9.46661 -2.46347,11.66661 l -0.56466,4 1.90156,-4.02126 c 3.24382,-6.85975 6.80237,-20.65617 9.05784,-35.1171 2.32559,-14.91052 3.91236,-52.767543 2.43065,-57.990469 l -0.81453,-2.871172 -0.69265,3.5 c -0.46339,2.341566 -0.73622,0.150798 -0.82429,-6.61901 -0.3411,-26.219706 -7.01865,-45.283709 -20.70314,-59.106172 -4.47722,-4.522367 -6.04172,-6.579822 -4.18222,-5.5 11.72407,6.808239 22.19008,28.500129 27.36904,56.725182 2.28991,12.479868 2.64789,54.021311 0.58167,67.500001 -2.15036,14.02759 -8.0074,34.84674 -11.87289,42.20278 -3.5926,6.83674 -5.53151,8.72239 -4.67563,4.54722 0.26416,-1.28861 -0.20569,-0.80619 -1.0996,1.12904 -2.61072,5.65192 -8.63575,15.12096 -9.62127,15.12096 -0.51018,0 -0.9276,-0.17048 -0.9276,-0.37885 z m 43.63667,-6.95525 c -2.68605,-11.39363 -7.7136,-17.38938 -17.63667,-21.03313 -4.12857,-1.51601 -4.21111,-1.60876 -1,-1.12375 9.11143,1.37622 17.68912,10.85951 20.03249,22.14747 1.75291,8.44375 0.59442,8.45156 -1.39582,0.009 z M 41.520139,154.97694 c 0,-1.925 0.205795,-2.7125 0.457323,-1.75 0.251527,0.9625 0.251527,2.5375 0,3.5 -0.251528,0.9625 -0.457323,0.175 -0.457323,-1.75 z M 90.038136,9.3146583 c 0.6875,-0.2774123 1.8125,-0.2774123 2.5,0 0.6875,0.2774123 0.125,0.504386 -1.25,0.504386 -1.375,0 -1.9375,-0.2269737 -1.25,-0.504386 z"
     style="fill:#532611" />
  <path
     inkscape:connector-curvature="0"
     id="path404"
     d="m 18.367083,199.39361 c 0.04798,-1.16495 0.284941,-1.4019 0.604167,-0.60417 0.288871,0.72187 0.253344,1.58437 -0.07895,1.91667 -0.332292,0.33229 -0.568641,-0.25834 -0.52522,-1.3125 z m 39.180603,-2.16667 c -5.491454,-5.86662 -11.164275,-15.1306 -12.983845,-21.20322 -1.599753,-5.33901 -1.6878,-5.43441 -2.350542,-2.54678 -0.542743,2.36478 -0.713585,2.52358 -0.806848,0.75 -0.06507,-1.2375 -0.455815,-2.25143 -0.868315,-2.25317 -0.4125,-0.002 -0.797357,-1.68925 -0.855238,-3.75 -0.05788,-2.06076 -0.831238,-8.47183 -1.718571,-14.24683 C 32.611469,119.13909 33.375038,78.389226 39.794457,56.3072 43.519747,43.492651 53.217442,28.422465 62.589989,20.883016 68.857017,15.841704 78.66558,11.045791 83.93546,10.446112 l 3.852676,-0.43841 -3.745853,0.96813 C 68.153875,15.082252 52.304182,30.545584 44.941466,49.123507 37.78729,67.175232 33.919445,102.20941 36.180685,128.47694 c 1.655202,19.22753 4.253103,37.52802 5.240752,36.91762 0.476684,-0.29461 0.908984,-1.5216 0.960665,-2.72664 0.05168,-1.20504 0.693054,0.8181 1.425273,4.49587 2.183116,10.9653 7.015476,19.99355 15.823644,29.56315 2.151511,2.3375 3.352717,4.25 2.669347,4.25 -0.683369,0 -2.822075,-1.6875 -4.75268,-3.75 z m 9.353353,-4.5 c -4.833335,-15.20596 -5.702001,-22.47856 -6.599259,-55.25 -0.466816,-17.05 -1.421473,-35.05 -2.12146,-40.000001 l -1.272702,-9 -2.222417,7 c -1.222329,3.85 -2.261712,6.269941 -2.30974,5.377641 -0.16612,-3.086235 5.049821,-17.407124 9.060911,-24.877641 8.190129,-15.253833 23.944427,-34.552361 32.797545,-40.17598 5.917373,-3.758796 11.223453,-3.823477 14.601973,-0.177997 1.34874,1.455312 2.45225,3.304096 2.45225,4.108408 0,1.11038 0.66194,1.281956 2.75,0.712801 6.68816,-1.82303 11.40762,1.038492 15.72225,9.532768 8.51973,16.772931 15.72617,53.012921 12.52775,63.000001 -0.57542,1.79675 -0.85767,0.39026 -1.00336,-5 l -0.20272,-7.5 -1.30506,9.55822 c -0.71777,5.25701 -3.14641,16.5488 -5.39695,25.09286 -3.59265,13.63926 -4.08195,16.80445 -4.01031,25.94179 0.0511,6.52112 0.75505,13.02092 1.88515,17.40713 1.00032,3.88247 1.8547,5.85609 1.9184,4.4315 0.13715,-3.06717 3.07775,-13.30193 3.65578,-12.72391 0.22267,0.22268 -0.0642,2.10379 -0.63757,4.18026 -0.57334,2.07646 -1.38537,6.55116 -1.8045,9.94377 -0.73262,5.92999 -0.80763,6.05851 -1.94102,3.32551 -2.65099,-6.39246 -5.32244,-18.63659 -5.70348,-26.1409 -0.47295,-9.31441 -1.65916,-12.75269 -5.02031,-14.55152 -1.33873,-0.71647 -2.43405,-1.6383 -2.43405,-2.04852 0,-0.41022 2.31258,-2.44344 5.13906,-4.51827 5.71694,-4.19662 7.48374,-7.41641 10.9186,-19.89792 1.57696,-5.73033 2.33884,-11.901 2.68544,-21.750001 0.51307,-14.57995 0.0819,-15.885588 -3.67052,-11.115141 -1.82938,2.325682 -2.07258,2.404807 -2.07258,0.674314 0,-7.236484 -15.90102,-9.571679 -20.4969,-3.010138 -1.24162,1.772668 -1.5031,1.84987 -1.5031,0.443795 0,-3.009046 7.50416,-5.969031 14.85318,-5.858781 3.58272,0.05375 7.32738,0.355871 8.32148,0.671385 0.99409,0.315513 2.20339,0.328955 2.68732,0.02987 1.99438,-1.2326 -6.47928,-28.202607 -9.95204,-31.675365 -4.97707,-4.977073 -25.24778,-7.738786 -36.620306,-4.989206 -4.642039,1.122325 -5.798369,1.986149 -10.601176,7.919499 -5.774793,7.134133 -14.364224,19.658602 -17.016555,24.812272 -2.072861,4.027717 -1.01293,4.526492 7.163195,3.370804 8.782684,-1.241424 19.164898,1.859918 19.164898,5.724878 0,1.396557 -0.265988,1.317076 -1.503101,-0.449151 -1.957453,-2.794655 -7.787825,-4.675787 -12.248541,-3.951912 -4.16594,0.676039 -8.248358,4.160107 -8.248358,7.039417 0,1.722544 -0.447988,1.50213 -2.8949,-1.424314 -1.672783,-2.000604 -2.472036,-3.726078 -1.893238,-4.087226 0.632956,-0.394941 0.553115,-0.902218 -0.216903,-1.378115 -1.359968,-0.840507 -2.683542,0.762881 -3.656469,4.429471 -0.354107,1.334496 0.310342,8.759496 1.476553,16.500005 1.166212,7.7405 2.412377,16.66605 2.769257,19.83454 0.791151,7.02411 4.024254,11.86875 11.87775,17.7982 3.045872,2.29965 5.53795,4.5468 5.53795,4.99366 0,0.44685 -0.944407,1.11221 -2.098682,1.47856 -1.268508,0.40261 -3.01079,2.72853 -4.404491,5.87994 -1.268194,2.86761 -3.923787,6.63444 -5.901317,8.37074 -2.830627,2.48532 -3.59551,3.89541 -3.59551,6.62843 0,1.90935 0.407754,3.72354 0.90612,4.03155 0.498366,0.30801 0.671771,1.45616 0.385344,2.55146 -0.612979,2.34404 1.274403,12.96716 3.765747,21.19552 0.967694,3.19607 1.403623,5.81104 0.968732,5.81104 -0.434891,0 -1.970759,-3.7125 -3.41304,-8.25 z m 24.773031,6.68665 c 0.329952,-0.85984 -0.03332,-2.78788 -0.80728,-4.28455 -0.773956,-1.49667 -1.726886,-4.42532 -2.117622,-6.50813 -0.390737,-2.0828 -1.763738,-5.0387 -3.051115,-6.56866 l -2.340685,-2.78174 2.688823,-4.14679 c 1.478854,-2.28073 3.01331,-4.14678 3.409904,-4.14678 0.396594,0 2.658546,2.24978 5.02656,4.99951 2.368015,2.74973 4.980481,4.99951 5.805485,4.99951 0.825,0 3.43747,-2.24978 5.80548,-4.99951 2.36802,-2.74973 4.62997,-4.99951 5.02656,-4.99951 0.39659,0 1.9441,1.88618 3.43891,4.19152 2.67575,4.12661 2.68854,4.22339 0.82608,6.25 -1.04046,1.13216 -1.88169,3.26271 -1.86939,4.73454 0.0123,1.47183 -0.93389,4.65141 -2.10264,7.06572 -1.16875,2.41432 -2.125,5.14759 -2.125,6.07394 0,1.45574 -1.23571,1.68428 -9.10699,1.68428 -7.848264,0 -9.024074,-0.21608 -8.50708,-1.56335 z m 37.61407,-4.19325 c 0,-3.16613 -0.38672,-7.10501 -0.85937,-8.75306 -0.47266,-1.64805 -1.12345,-6.59508 -1.44622,-10.9934 l -0.58685,-7.99694 1.34919,7.0688 c 0.74205,3.88784 1.84034,8.83784 2.44064,11 1.36957,4.9329 1.43938,15.4312 0.10261,15.4312 -0.55086,0 -1,-2.58553 -1,-5.7566 z m 7,5.37775 c 0,-0.20836 1.54549,-2.94538 3.43442,-6.08227 4.60347,-7.64481 10.19847,-21.14564 13.07032,-31.53888 2.82082,-10.20854 3.28291,-8.01342 0.59645,2.83339 -4.39854,17.75951 -3.35977,19.65829 1.88685,3.44898 5.74126,-17.73746 9.00968,-42.74651 9.01112,-68.95058 8.6e-4,-15.593 -0.88729,-22.065938 -2.10367,-15.331791 -0.38922,2.154763 -0.6828,-0.389276 -0.76385,-6.61901 -0.3411,-26.219706 -7.01865,-45.283709 -20.70314,-59.106172 -4.47722,-4.522367 -6.04172,-6.579822 -4.18222,-5.5 11.72407,6.808239 22.19008,28.500129 27.36904,56.725182 2.29413,12.502856 2.6485,54.039401 0.57588,67.500001 -2.9158,18.9366 -9.54169,39.38765 -15.22742,47 -0.89829,1.20269 -1.03322,0.95493 -0.68074,-1.25 0.24179,-1.5125 0.26588,-2.75 0.0535,-2.75 -0.21235,0 -0.84822,1.2375 -1.41307,2.75 -1.60809,4.30616 -9.18819,17.25 -10.10181,17.25 -0.45191,0 -0.82166,-0.17048 -0.82166,-0.37885 z m 44.23801,-5.22234 c -0.66469,-3.1689 -1.04086,-5.92929 -0.83595,-6.1342 0.57287,-0.57287 2.83353,9.52861 2.41408,10.78698 -0.20329,0.60987 -0.91345,-1.48389 -1.57813,-4.65278 z M 18.833741,194.31073 c 1.191635,-5.39632 6.516749,-14.84443 9.728502,-17.26085 l 3.225893,-2.42705 -3.639815,3.92705 c -4.28866,4.62711 -6.42641,8.59792 -7.387817,13.72266 -0.384502,2.04957 -1.116117,3.98423 -1.625813,4.29923 -0.53764,0.33228 -0.663993,-0.617 -0.30095,-2.26104 z M 177.33137,185.0813 c -0.67429,-1.62787 -2.08486,-3.73705 -3.13461,-4.68705 -1.04974,-0.95001 -1.89861,-2.22004 -1.88638,-2.8223 0.0269,-1.32391 3.44763,2.81038 5.58328,6.74792 0.84807,1.56361 1.34434,3.04054 1.10282,3.28207 -0.24153,0.24152 -0.99083,-0.89277 -1.66511,-2.52064 z M 67.799419,176.35382 c -0.945305,-1.44272 -1.224479,-2.31766 -0.620387,-1.94431 1.154395,0.71346 3.482677,4.56743 2.759298,4.56743 -0.231096,0 -1.193606,-1.18041 -2.138911,-2.62312 z m 34.646611,-1.37688 c 0,-1.375 0.22698,-1.9375 0.50439,-1.25 0.27741,0.6875 0.27741,1.8125 0,2.5 -0.27741,0.6875 -0.50439,0.125 -0.50439,-1.25 z m 65.34211,-0.0678 c -1.65,-1.0569 -2.48735,-1.92401 -1.86078,-1.92691 0.62656,-0.003 2.20156,0.87977 3.5,1.96147 2.97306,2.47681 2.25793,2.46173 -1.63922,-0.0346 z m -70.421057,-0.5155 c 0.04798,-1.16495 0.284941,-1.4019 0.604167,-0.60417 0.288871,0.72187 0.253344,1.58437 -0.07895,1.91667 -0.332292,0.33229 -0.568641,-0.25834 -0.52522,-1.3125 z m -64.345614,-0.54076 c 0.678334,-0.68342 1.485241,-0.99067 1.793128,-0.68278 0.307888,0.30789 -0.247112,0.86705 -1.233333,1.24258 -1.425198,0.54268 -1.540062,0.42782 -0.559795,-0.5598 z m 62.658156,-4.64969 c -0.648616,-1.71838 -3.625107,-4.63596 -7.45539,-7.30782 -7.080669,-4.93922 -9.728203,-8.54857 -8.443986,-11.51158 0.675352,-1.55821 1.008794,-1.11718 1.823832,2.41231 0.857229,3.71219 1.818852,4.87697 6.843172,8.28892 5.899056,4.00598 9.329973,7.92468 8.670471,9.90319 -0.197142,0.59142 -0.844287,-0.21184 -1.438099,-1.78502 z m 8.232685,0.77378 c 0.7697,-3.1769 3.35648,-6.01241 7.56604,-8.29357 3.18281,-1.72475 3.21388,-1.72475 0.80979,0 -3.78537,2.71573 -7,6.0714 -7,7.30713 0,0.60746 0.51953,0.78339 1.15451,0.39095 0.72104,-0.44563 0.88282,-0.27393 0.4309,0.45729 -0.39798,0.64395 -1.10408,0.93568 -1.5691,0.64828 -0.46502,-0.2874 -1.10477,0.0428 -1.42167,0.73369 -0.3169,0.69093 -0.30361,0.13123 0.0295,-1.24377 z m 13.04765,-11.94455 c 0.6445,-0.8555 1.3195,-3.13045 1.5,-5.05545 0.34629,-3.69316 2.11285,-4.44429 2.63703,-1.12125 0.17518,1.11052 -0.90686,3.20754 -2.5,4.84506 -1.54487,1.5879 -2.28153,2.18714 -1.63703,1.33164 z m 2.99046,-7.30545 c -0.27741,-0.6875 -0.50439,-0.125 -0.50439,1.25 0,1.375 0.22698,1.9375 0.50439,1.25 0.27741,-0.6875 0.27741,-1.8125 0,-2.5 z m -78.430281,4.25 c 0,-1.925 0.205795,-2.7125 0.457323,-1.75 0.251527,0.9625 0.251527,2.5375 0,3.5 -0.251528,0.9625 -0.457323,0.175 -0.457323,-1.75 z m 9.846944,-50.58333 c 0.04798,-1.16495 0.284941,-1.4019 0.604167,-0.60417 0.288871,0.72187 0.253344,1.58437 -0.07895,1.91667 -0.332292,0.33229 -0.568641,-0.25834 -0.52522,-1.3125 z M 69.26808,96.452773 c -1.838307,-2.215024 -0.792239,-2.469667 1.270056,-0.309167 0.9625,1.008333 1.3551,1.833333 0.872445,1.833333 -0.482656,0 -1.446781,-0.685875 -2.142501,-1.524166 z m 60.77006,-0.309167 c 0.9625,-1.008334 1.92663,-1.694208 2.1425,-1.524166 0.59073,0.46531 -2.00638,3.357499 -3.01494,3.357499 -0.48266,0 -0.0901,-0.825 0.87244,-1.833333 z M 76.954803,92.310272 c -1.166567,-1.166566 -0.717588,-4.099815 0.711478,-4.648199 0.75798,-0.290864 1.88298,-0.02401 2.5,0.593011 1.390288,1.390288 1.491578,4.06839 0.121855,3.221855 -0.55,-0.339919 -1,-0.141476 -1,0.440983 0,1.187433 -1.316826,1.408858 -2.333333,0.39235 z M 119.6946,91.593777 c -1.27002,-3.309614 2.27073,-4.915654 4.6136,-2.092672 1.44896,1.745896 1.31174,1.971678 -1.77499,2.920557 -1.56914,0.482365 -2.43244,0.230583 -2.83861,-0.827885 z M 86.955593,75.817139 c -2.107899,-1.084971 -5.707899,-2.343563 -8,-2.796871 -4.155499,-0.821833 -4.157414,-0.824294 -0.667457,-0.857685 3.479695,-0.03329 7.685095,1.243642 11.49167,3.489353 3.511971,2.071908 1.148736,2.210146 -2.824213,0.165203 z m 22.332547,1.022744 c 0,-1.279118 5.51136,-3.529446 10.5,-4.287221 4.33181,-0.658003 3.7537,-0.305047 -5.25,3.205336 -2.8875,1.125786 -5.25,1.612634 -5.25,1.081885 z M 72.100636,73.293825 c 0.721875,-0.288871 1.584375,-0.253344 1.916667,0.07895 0.332291,0.332292 -0.258334,0.568641 -1.3125,0.52522 -1.164943,-0.04798 -1.4019,-0.284941 -0.604167,-0.604167 z m 54.937504,0.02083 c 0.6875,-0.277412 1.8125,-0.277412 2.5,0 0.6875,0.277413 0.125,0.504386 -1.25,0.504386 -1.375,0 -1.9375,-0.226973 -1.25,-0.504386 z M 90.038136,9.3146553 c 0.6875,-0.2774123 1.8125,-0.2774123 2.5,0 0.6875,0.2774123 0.125,0.504386 -1.25,0.504386 -1.375,0 -1.9375,-0.2269737 -1.25,-0.504386 z"
     style="fill:#291711" />
</svg>
