<!DOCTYPE svg PUBLIC "-//W3C//DTD SVG 20010904//EN" "http://www.w3.org/TR/2001/REC-SVG-20010904/DTD/svg10.dtd">
<svg version="1.0" xmlns="http://www.w3.org/2000/svg" width="200px" height="200px" viewBox="0 0 2000 2000" preserveAspectRatio="xMidYMid meet">
<g id="layer101" fill="#e4e6e8" stroke="none">
 <path d="M120 1982 c0 -50 34 -127 76 -172 57 -61 115 -86 255 -107 64 -10 117 -23 123 -31 6 -7 24 -25 40 -40 15 -15 45 -63 66 -107 l38 -79 -29 -33 c-36 -42 -67 -102 -89 -173 -13 -42 -23 -56 -39 -58 -12 -2 -27 -13 -35 -25 -88 -147 -98 -168 -103 -226 -6 -64 9 -121 32 -121 15 0 -26 -147 -52 -187 -14 -21 -14 -23 0 -23 14 0 13 -8 -5 -61 l-20 -60 25 -27 c19 -20 24 -34 20 -55 -4 -20 0 -35 14 -50 11 -12 30 -48 43 -80 14 -35 35 -67 51 -80 16 -11 29 -26 29 -33 0 -15 15 -20 105 -34 39 -6 95 -18 126 -25 80 -21 125 -19 194 10 71 29 86 30 130 9 32 -15 37 -15 102 11 206 82 273 148 273 269 0 22 12 63 27 94 31 64 42 178 24 260 -10 47 -9 54 9 72 30 30 28 140 -2 198 -75 139 -91 162 -112 162 -17 0 -24 11 -39 63 -21 71 -65 152 -100 186 -23 21 -24 25 -12 49 7 15 21 46 30 68 10 23 36 61 59 83 40 39 51 44 157 67 131 29 199 57 252 103 37 33 79 110 92 169 l7 32 -881 0 c-845 0 -881 -1 -881 -18z"/>
 </g>
<g id="layer102" fill="#f9bea9" stroke="none">
 <path d="M120 1982 c0 -50 34 -127 76 -172 57 -61 115 -86 255 -107 64 -10 117 -23 123 -31 6 -7 24 -25 40 -40 15 -15 45 -63 66 -107 l38 -79 -29 -33 c-36 -42 -67 -102 -89 -173 -13 -42 -23 -56 -39 -58 -12 -2 -27 -13 -35 -25 -88 -147 -98 -168 -103 -226 -6 -64 9 -121 32 -121 15 0 -26 -147 -52 -187 -14 -21 -14 -23 0 -23 14 0 13 -8 -5 -61 l-20 -60 25 -27 c19 -20 24 -34 20 -55 -4 -20 0 -35 14 -50 11 -12 30 -48 43 -80 14 -35 35 -67 51 -80 16 -11 29 -26 29 -33 0 -15 15 -20 105 -34 39 -6 95 -18 126 -25 80 -21 125 -19 194 10 71 29 86 30 130 9 32 -15 37 -15 102 11 206 82 273 148 273 269 0 22 12 63 27 94 31 64 42 178 24 260 -10 47 -9 54 9 72 30 30 28 140 -2 198 -75 139 -91 162 -112 162 -17 0 -24 11 -39 63 -21 71 -65 152 -100 186 -23 21 -24 25 -12 49 7 15 21 46 30 68 10 23 36 61 59 83 40 39 51 44 157 67 131 29 199 57 252 103 37 33 79 110 92 169 l7 32 -881 0 c-845 0 -881 -1 -881 -18z m713 -1045 c18 -8 37 -20 44 -29 10 -12 7 -17 -17 -32 l-30 -17 0 28 c0 34 -16 53 -44 53 -32 0 -47 -14 -55 -50 l-6 -32 -23 19 c-58 47 47 95 131 60z m426 7 c39 -8 59 -40 39 -61 -18 -17 -73 -29 -63 -13 4 6 13 9 21 6 19 -7 18 14 -2 42 -11 16 -24 22 -42 20 -15 -2 -26 -9 -24 -15 1 -7 -4 -12 -10 -10 -8 1 -13 -9 -13 -25 1 -33 -5 -34 -36 -9 -20 16 -21 21 -10 35 23 28 85 41 140 30z"/>
 </g>
<g id="layer103" fill="#d6c4bf" stroke="none">
 <path d="M120 1982 c0 -50 34 -127 76 -172 57 -61 115 -86 255 -107 64 -10 117 -23 123 -31 6 -7 24 -25 40 -40 15 -15 45 -63 66 -107 l38 -79 -29 -33 c-36 -42 -67 -102 -89 -173 -13 -42 -23 -56 -39 -58 -12 -2 -27 -13 -35 -25 -88 -147 -98 -168 -103 -226 -6 -64 9 -121 32 -121 15 0 -26 -147 -52 -187 -14 -21 -14 -23 0 -23 14 0 13 -8 -5 -61 l-20 -60 25 -27 c19 -20 24 -34 20 -55 -4 -20 0 -35 14 -50 11 -12 30 -48 43 -80 14 -35 35 -67 51 -80 16 -11 29 -26 29 -33 0 -15 15 -20 105 -34 39 -6 95 -18 126 -25 80 -21 125 -19 194 10 71 29 86 30 130 9 32 -15 37 -15 102 11 206 82 273 148 273 269 0 22 12 63 27 94 31 64 42 178 24 260 -10 47 -9 54 9 72 30 30 28 141 -2 197 -68 125 -79 143 -88 143 -13 0 -13 -6 5 -40 9 -17 13 -30 10 -30 -3 0 6 -21 21 -46 23 -39 26 -53 21 -102 -4 -37 -3 -51 3 -42 7 11 10 8 10 -12 0 -16 -4 -28 -10 -28 -11 0 -13 13 -14 75 -1 26 -5 39 -13 37 -7 -1 -13 6 -13 16 0 10 -8 28 -17 41 -9 14 -11 21 -5 17 7 -4 12 -3 12 3 0 5 -5 11 -10 13 -6 2 -17 24 -24 50 -14 44 -14 46 7 53 21 8 21 8 -3 12 -21 3 -28 14 -43 66 -21 71 -65 152 -100 186 -23 21 -24 25 -12 49 7 15 21 46 30 68 10 23 36 61 59 83 40 39 51 44 157 67 131 29 199 57 252 103 37 33 79 110 92 169 l7 32 -881 0 c-845 0 -881 -1 -881 -18z m893 -191 c7 -59 35 -113 78 -151 l32 -29 -39 11 c-22 6 -74 8 -116 5 l-77 -5 29 25 c29 24 50 77 65 166 8 49 21 40 28 -22z m-193 -425 c0 -98 1 -105 24 -119 13 -9 37 -19 52 -23 16 -4 34 -11 40 -16 16 -12 44 1 44 21 0 12 -14 22 -42 30 -81 24 -88 33 -88 110 0 54 4 71 19 85 24 22 47 12 85 -39 15 -19 32 -35 38 -35 7 0 30 21 53 47 35 39 45 45 67 40 30 -8 38 -30 38 -103 0 -65 -19 -88 -84 -107 -53 -15 -61 -23 -47 -46 10 -16 48 -7 121 27 l35 17 3 108 c1 59 7 107 12 107 19 0 109 -100 134 -148 14 -28 44 -115 66 -194 35 -123 39 -149 31 -186 -5 -24 -10 -99 -10 -167 -2 -138 -7 -194 -22 -233 -22 -58 -36 -64 -182 -77 -59 -5 -126 -20 -156 -35 -137 -68 -247 -76 -351 -26 -81 39 -86 45 -97 120 -5 39 -9 116 -9 171 1 114 -9 107 111 75 76 -20 83 -20 132 -5 63 20 84 42 90 97 4 37 1 47 -21 67 -24 23 -102 45 -110 32 -3 -4 18 -17 45 -29 27 -13 49 -26 49 -30 0 -4 -13 -16 -30 -25 l-30 -18 0 28 c0 35 -16 53 -46 53 -30 0 -54 -25 -54 -57 0 -24 -1 -25 -22 -10 -13 8 -22 22 -22 31 3 24 -8 19 -38 -18 l-28 -35 30 -15 c34 -16 138 -41 159 -37 7 1 10 -2 6 -8 -3 -6 -19 -11 -35 -11 -32 0 -171 28 -179 35 -2 3 -6 26 -7 51 -2 25 -8 52 -14 59 -6 8 -11 26 -12 42 0 38 77 304 103 355 22 43 120 148 138 148 7 0 11 -37 11 -104z m-250 -221 c0 -9 -7 -32 -17 -53 -9 -20 -15 -41 -14 -45 1 -5 -3 -6 -8 -3 -5 4 -19 -6 -31 -21 -21 -28 -23 -60 -5 -105 4 -11 3 -18 -4 -18 -6 0 -11 8 -12 18 0 9 -3 12 -5 5 -3 -7 0 -21 5 -32 6 -11 7 -22 2 -25 -30 -19 -20 106 14 174 12 25 29 62 38 83 17 38 37 50 37 22z m-49 -152 c-4 -28 -6 -32 -9 -15 -3 22 3 52 11 52 1 0 1 -17 -2 -37z"/>
 <path d="M974 1355 c-18 -13 -17 -14 19 -15 38 0 50 13 21 24 -20 8 -17 8 -40 -9z"/>
 <path d="M1083 1320 c-30 -12 -153 -16 -178 -6 -17 6 -16 4 4 -14 21 -18 32 -20 80 -15 65 8 118 23 126 36 7 11 -3 11 -32 -1z"/>
 <path d="M966 1175 l-29 -24 23 -103 c32 -145 40 -150 33 -20 l-6 112 32 0 c37 0 39 9 8 38 -28 27 -25 27 -61 -3z"/>
 <path d="M1141 956 c-28 -7 -52 -21 -64 -38 -19 -26 -19 -30 -5 -75 21 -68 56 -85 166 -79 46 2 89 9 95 16 9 9 -5 10 -60 4 -48 -4 -73 -3 -73 4 0 5 33 17 73 26 93 21 106 29 84 51 -10 9 -17 20 -17 25 0 5 -9 14 -20 20 -15 8 -18 8 -14 -3 6 -17 -16 -37 -51 -43 -18 -3 -24 -1 -20 6 4 6 13 9 21 6 19 -7 18 14 -2 42 -11 16 -24 22 -42 20 -15 -2 -26 -9 -24 -15 1 -7 -4 -12 -10 -10 -8 1 -13 -9 -13 -25 1 -33 1 -33 -35 -11 -23 13 -27 20 -19 34 5 10 25 21 44 25 35 6 52 19 38 27 -5 2 -28 -1 -52 -7z"/>
 <path d="M714 945 c-18 -13 -18 -14 4 -8 12 3 25 9 28 14 8 14 -10 11 -32 -6z"/>
 <path d="M1481 1017 c7 -15 16 -27 21 -27 14 0 9 16 -13 36 -21 19 -21 19 -8 -9z"/>
 </g>
<g id="layer104" fill="#f0ae95" stroke="none">
 <path d="M120 1982 c0 -50 34 -127 76 -172 57 -61 115 -86 255 -107 64 -10 117 -23 123 -31 6 -7 24 -25 40 -40 15 -15 45 -63 66 -107 l38 -79 -29 -33 c-36 -42 -67 -102 -89 -173 -13 -42 -23 -56 -39 -58 -12 -2 -27 -13 -35 -25 -88 -147 -98 -168 -103 -226 -6 -64 9 -121 32 -121 15 0 -26 -147 -52 -187 -14 -21 -14 -23 0 -23 14 0 13 -8 -5 -61 l-20 -60 25 -27 c19 -20 24 -34 20 -55 -4 -20 0 -35 14 -50 11 -12 30 -48 43 -80 14 -35 35 -67 51 -80 16 -11 29 -26 29 -33 0 -15 15 -20 105 -34 39 -6 95 -18 126 -25 80 -21 125 -19 194 10 71 29 86 30 130 9 32 -15 37 -15 102 11 206 82 273 148 273 269 0 22 12 63 27 94 31 64 42 178 24 260 -10 47 -9 54 9 72 30 30 28 141 -2 197 -68 125 -79 143 -88 143 -13 0 -13 -6 5 -40 9 -17 13 -30 10 -30 -3 0 6 -21 21 -46 23 -39 26 -53 21 -102 -4 -37 -3 -51 3 -42 7 11 10 8 10 -12 0 -16 -4 -28 -10 -28 -11 0 -13 13 -14 75 -1 26 -5 39 -13 37 -7 -1 -13 6 -13 16 0 10 -8 28 -17 41 -9 14 -11 21 -5 17 7 -4 12 -3 12 3 0 5 -5 11 -10 13 -6 2 -17 24 -24 50 -14 44 -14 46 7 53 21 8 21 8 -3 12 -21 3 -28 14 -43 66 -21 71 -65 152 -100 186 -23 21 -24 25 -12 49 7 15 21 46 30 68 10 23 36 61 59 83 40 39 51 44 157 67 131 29 199 57 252 103 37 33 79 110 92 169 l7 32 -881 0 c-845 0 -881 -1 -881 -18z m893 -191 c7 -59 35 -113 78 -151 l32 -29 -39 11 c-22 6 -74 8 -116 5 l-77 -5 29 25 c29 24 50 77 65 166 8 49 21 40 28 -22z m-193 -425 c0 -98 1 -105 24 -119 13 -9 37 -19 52 -23 16 -4 34 -11 40 -16 16 -12 44 1 44 21 0 12 -14 22 -42 30 -81 24 -88 33 -88 110 0 54 4 71 19 85 24 22 47 12 85 -39 15 -19 32 -35 38 -35 7 0 30 21 53 47 35 39 45 45 67 40 30 -8 38 -30 38 -103 0 -65 -19 -88 -84 -107 -53 -15 -61 -23 -47 -46 10 -16 48 -7 121 27 l35 17 3 108 c1 59 7 107 12 107 19 0 109 -100 134 -148 14 -28 44 -115 66 -194 35 -123 39 -149 31 -186 -5 -24 -10 -99 -10 -167 -2 -138 -7 -194 -22 -233 -22 -58 -36 -64 -182 -77 -59 -5 -126 -20 -156 -35 -137 -68 -247 -76 -351 -26 -81 39 -86 45 -97 120 -5 39 -9 116 -9 171 1 114 -9 107 111 75 76 -20 83 -20 132 -5 63 20 84 42 90 97 4 37 1 47 -21 67 -25 23 -102 45 -111 31 -2 -4 13 -12 34 -19 21 -6 45 -18 52 -27 12 -14 9 -19 -15 -39 -31 -25 -83 -30 -64 -7 9 11 13 11 20 0 6 -8 8 -1 6 21 -4 40 -25 57 -61 47 -31 -7 -46 -49 -28 -78 9 -14 8 -18 -2 -18 -21 0 -60 47 -54 64 10 27 -7 18 -35 -18 l-28 -35 30 -15 c34 -16 138 -41 159 -37 7 1 10 -2 6 -8 -3 -6 -19 -11 -35 -11 -32 0 -171 28 -179 35 -2 3 -6 26 -7 51 -2 25 -8 52 -14 59 -6 8 -11 26 -12 42 0 38 77 304 103 355 22 43 120 148 138 148 7 0 11 -37 11 -104z m-250 -221 c0 -9 -7 -32 -17 -53 -9 -20 -15 -41 -14 -45 1 -5 -3 -6 -8 -3 -5 4 -19 -6 -31 -21 -21 -28 -23 -60 -5 -105 4 -11 3 -18 -4 -18 -6 0 -11 8 -12 18 0 9 -3 12 -5 5 -3 -7 0 -21 5 -32 6 -11 7 -22 2 -25 -30 -19 -20 106 14 174 12 25 29 62 38 83 17 38 37 50 37 22z m-49 -152 c-4 -28 -6 -32 -9 -15 -3 22 3 52 11 52 1 0 1 -17 -2 -37z"/>
 <path d="M974 1355 c-18 -13 -17 -14 19 -15 38 0 50 13 21 24 -20 8 -17 8 -40 -9z"/>
 <path d="M1083 1320 c-30 -12 -153 -16 -178 -6 -17 6 -16 4 4 -14 21 -18 32 -20 80 -15 65 8 118 23 126 36 7 11 -3 11 -32 -1z"/>
 <path d="M966 1175 l-29 -24 23 -103 c32 -145 40 -150 33 -20 l-6 112 32 0 c37 0 39 9 8 38 -28 27 -25 27 -61 -3z"/>
 <path d="M1141 956 c-28 -7 -52 -21 -64 -38 -19 -26 -19 -30 -5 -75 21 -68 56 -85 166 -79 46 2 89 9 95 16 9 9 -5 10 -60 4 -48 -4 -73 -3 -73 4 0 5 33 17 73 26 80 18 108 32 91 44 -6 4 -17 17 -23 30 l-12 23 -27 -35 c-32 -42 -58 -49 -40 -11 16 35 -13 77 -50 73 -16 -2 -26 -8 -24 -16 1 -8 -2 -11 -7 -8 -13 8 -23 -27 -14 -50 7 -18 6 -18 -17 -3 -14 8 -31 19 -38 23 -15 9 2 46 21 46 22 1 71 26 62 32 -6 3 -30 0 -54 -6z"/>
 <path d="M1481 1017 c7 -15 16 -27 21 -27 14 0 9 16 -13 36 -21 19 -21 19 -8 -9z"/>
 </g>
<g id="layer105" fill="#adb7ca" stroke="none">
 <path d="M120 1982 c0 -50 34 -127 76 -172 57 -61 115 -86 255 -107 64 -10 117 -23 123 -31 6 -7 24 -25 40 -40 15 -15 45 -63 66 -107 l38 -79 -29 -33 c-36 -42 -67 -102 -90 -173 -13 -42 -22 -56 -40 -60 -27 -7 -94 -116 -78 -126 11 -6 41 15 35 25 -8 12 29 76 45 79 15 3 15 -2 1 -52 -8 -30 -19 -53 -23 -50 -4 2 -11 -1 -15 -7 -4 -7 -3 -9 4 -5 6 4 10 -1 9 -13 0 -11 -5 -17 -10 -14 -5 3 -8 -3 -7 -13 4 -33 0 -58 -7 -51 -3 4 -6 24 -5 44 1 35 0 37 -13 19 -18 -23 -19 -45 -5 -81 6 -15 7 -32 3 -38 -8 -12 -9 -17 -12 -39 -1 -8 -6 -5 -12 5 -7 12 -9 41 -5 75 5 43 4 53 -4 42 -9 -12 -10 -10 -5 10 4 14 14 30 22 37 11 8 11 13 2 19 -25 15 -59 -65 -59 -143 0 -48 17 -93 36 -93 14 0 -27 -148 -53 -187 -14 -21 -14 -23 0 -23 14 0 13 -8 -5 -61 l-20 -60 25 -27 c19 -20 24 -34 20 -55 -4 -20 0 -35 14 -50 11 -12 30 -48 43 -80 14 -35 35 -67 51 -80 16 -11 29 -26 29 -33 0 -15 15 -20 105 -34 39 -6 95 -18 126 -25 80 -21 125 -19 194 10 71 29 86 30 130 9 32 -15 37 -15 102 11 206 82 273 148 273 269 0 22 12 63 27 94 31 64 42 178 24 260 -10 47 -9 54 9 72 20 20 29 77 10 65 -6 -4 -10 5 -10 20 0 15 4 24 10 20 13 -8 13 34 -1 74 -9 25 -14 29 -25 20 -15 -13 -20 -34 -5 -25 5 3 11 -1 15 -9 7 -19 -14 -125 -25 -125 -11 0 -21 56 -14 80 9 28 -3 44 -21 29 -11 -9 -14 -7 -14 10 0 30 -1 34 -12 56 -8 17 -6 17 11 -3 11 -12 21 -28 24 -35 2 -6 8 -9 12 -4 5 4 -7 24 -27 45 -20 20 -38 46 -41 57 -3 11 -8 30 -11 41 -5 16 -1 23 16 29 l23 8 -25 4 c-21 3 -28 14 -43 66 -21 71 -65 152 -100 186 -23 21 -24 25 -12 49 7 15 21 46 30 68 10 23 36 61 59 83 40 39 51 44 157 67 131 29 199 57 252 103 37 33 79 110 92 169 l7 32 -881 0 c-845 0 -881 -1 -881 -18z m890 -161 c0 -70 61 -190 96 -191 6 0 18 -8 25 -17 13 -15 12 -16 -6 -8 -30 12 -194 16 -234 5 -37 -10 -32 2 10 24 38 19 59 59 76 144 15 78 33 101 33 43z m-150 -582 c19 -11 42 -19 50 -19 9 0 21 -5 26 -10 15 -15 46 -1 42 18 -2 9 -26 25 -53 35 -73 27 -75 30 -75 113 0 70 2 75 25 86 24 11 30 8 75 -37 l50 -49 44 49 c40 47 45 49 72 40 28 -10 29 -14 32 -79 4 -86 -10 -108 -75 -126 -60 -16 -72 -26 -53 -44 13 -13 23 -12 75 6 33 11 65 25 70 30 6 5 12 61 15 124 l5 115 60 -48 c44 -36 68 -66 92 -113 39 -78 115 -332 101 -341 -14 -9 -26 -117 -29 -257 -1 -70 -8 -147 -15 -171 -21 -71 -37 -80 -150 -92 -62 -6 -129 -21 -179 -39 -223 -80 -282 -80 -421 5 -28 17 -32 25 -43 104 -6 47 -11 145 -11 216 1 106 -3 141 -19 188 l-20 58 33 117 c64 219 94 274 190 344 l41 30 5 -118 5 -117 35 -18z m-413 -361 c-2 -18 -4 -6 -4 27 0 33 2 48 4 33 2 -15 2 -42 0 -60z"/>
 <path d="M1095 1321 c-39 -16 -166 -23 -181 -10 -10 8 -14 8 -14 0 0 -21 46 -30 107 -21 59 8 113 25 113 35 0 6 1 6 -25 -4z"/>
 <path d="M977 1182 c-10 -10 -14 -22 -10 -25 3 -4 -1 -7 -10 -7 -22 0 -21 -7 7 -115 l24 -90 1 76 c1 45 -4 80 -11 87 -16 16 5 40 39 44 l25 3 -24 23 c-24 22 -25 22 -41 4z"/>
 <path d="M746 924 c-19 -18 -21 -55 -4 -72 9 -9 9 -12 -3 -12 -23 0 -63 46 -56 64 13 34 -18 8 -44 -37 -8 -15 -3 -20 38 -38 58 -25 127 -21 176 11 l32 22 -30 -26 c-33 -28 -23 -36 13 -10 13 9 21 22 18 29 -2 7 1 18 7 24 17 17 0 13 -30 -6 -33 -22 -78 -26 -61 -5 9 10 13 11 19 0 6 -8 9 -2 9 18 0 16 -5 35 -12 42 -17 17 -54 15 -72 -4z"/>
 <path d="M1174 915 c-10 -15 -13 -32 -9 -46 l7 -22 -36 22 -36 23 4 -24 c3 -12 5 -26 5 -30 1 -5 6 -8 12 -8 8 0 8 4 0 14 -6 7 10 3 36 -10 55 -28 97 -30 155 -7 55 21 53 18 33 50 l-18 27 -28 -32 c-35 -39 -53 -42 -37 -7 26 57 -53 103 -88 50z"/>
 <path d="M1080 816 c0 -22 81 -56 132 -56 52 0 108 10 108 19 0 3 -35 6 -79 6 -45 0 -85 6 -93 12 -7 7 -26 16 -41 22 -21 8 -27 8 -27 -3z"/>
 <path d="M851 800 c-58 -27 -103 -26 -226 6 -19 5 -19 5 -1 -7 19 -12 57 -23 129 -38 55 -12 157 21 157 50 0 13 -10 11 -59 -11z"/>
 <path d="M1465 1128 c3 -13 7 -29 7 -36 1 -7 11 -23 24 -37 12 -13 19 -27 15 -32 -3 -4 2 -2 11 5 15 12 15 16 -7 48 -13 20 -27 44 -30 55 -4 10 -11 19 -17 19 -6 0 -8 -9 -3 -22z"/>
 <path d="M1526 954 c-4 -14 -5 -28 -3 -31 3 -2 8 8 11 23 4 14 5 28 3 31 -3 2 -8 -8 -11 -23z"/>
 </g>
<g id="layer106" fill="#db9f89" stroke="none">
 <path d="M120 1982 c0 -50 34 -127 76 -172 57 -61 115 -86 255 -107 64 -10 117 -23 123 -31 6 -7 24 -25 40 -40 15 -15 45 -63 66 -107 l38 -79 -29 -33 c-36 -42 -67 -102 -90 -173 -13 -42 -22 -56 -40 -60 -27 -7 -94 -116 -78 -126 11 -6 41 15 35 25 -8 12 29 76 45 79 15 3 15 -2 1 -52 -8 -30 -19 -53 -23 -50 -4 2 -11 -1 -15 -7 -4 -7 -3 -9 4 -5 6 4 10 -1 9 -13 0 -11 -5 -17 -10 -14 -5 3 -8 -3 -7 -13 4 -33 0 -58 -7 -51 -3 4 -6 24 -5 44 1 35 0 37 -13 19 -18 -23 -19 -45 -5 -81 6 -15 7 -32 3 -38 -8 -12 -9 -17 -12 -39 -1 -8 -6 -5 -12 5 -7 12 -9 41 -5 75 5 43 4 53 -4 42 -9 -12 -10 -10 -5 10 4 14 14 30 22 37 11 8 11 13 2 19 -25 15 -59 -65 -59 -143 0 -48 17 -93 36 -93 14 0 -27 -148 -53 -187 -14 -21 -14 -23 0 -23 14 0 13 -8 -5 -61 l-20 -60 25 -27 c19 -20 24 -34 20 -55 -4 -20 0 -35 14 -50 11 -12 30 -48 43 -80 14 -35 35 -67 51 -80 16 -11 29 -26 29 -33 0 -15 15 -20 105 -34 39 -6 95 -18 126 -25 80 -21 125 -19 194 10 71 29 86 30 130 9 32 -15 37 -15 102 11 206 82 273 148 273 269 0 22 12 63 27 94 31 64 42 178 24 260 -10 47 -9 54 9 72 20 20 29 77 10 65 -6 -4 -10 5 -10 20 0 15 4 24 10 20 13 -8 13 34 -1 74 -9 25 -14 29 -25 20 -15 -13 -20 -34 -5 -25 5 3 11 -1 15 -9 7 -19 -14 -125 -25 -125 -11 0 -21 56 -14 80 9 28 -3 44 -21 29 -11 -9 -14 -7 -14 10 0 30 -1 34 -12 56 -8 17 -6 17 11 -3 11 -12 21 -28 24 -35 2 -6 8 -9 12 -4 5 4 -7 24 -27 45 -20 20 -38 46 -41 57 -3 11 -8 30 -11 41 -5 16 -1 23 16 29 l23 8 -25 4 c-21 3 -28 14 -43 66 -21 71 -65 152 -100 186 -23 21 -24 25 -12 49 7 15 21 46 30 68 10 23 36 61 59 83 40 39 51 44 157 67 131 29 199 57 252 103 37 33 79 110 92 169 l7 32 -881 0 c-845 0 -881 -1 -881 -18z m890 -161 c0 -70 61 -190 96 -191 6 0 18 -8 25 -17 13 -15 12 -16 -6 -8 -30 12 -194 16 -234 5 -37 -10 -32 2 10 24 38 19 59 59 76 144 15 78 33 101 33 43z m-150 -582 c19 -11 42 -19 50 -19 9 0 21 -5 26 -10 15 -15 46 -1 42 18 -2 9 -26 25 -53 35 -73 27 -75 30 -75 113 0 70 2 75 25 86 24 11 30 8 75 -37 l50 -49 44 49 c40 47 45 49 72 40 28 -10 29 -14 32 -79 4 -86 -10 -108 -75 -126 -60 -16 -72 -26 -53 -44 13 -13 23 -12 75 6 33 11 65 25 70 30 6 5 12 61 15 124 l5 115 60 -48 c44 -36 68 -66 92 -113 39 -78 115 -332 101 -341 -14 -9 -26 -117 -29 -257 -1 -70 -8 -147 -15 -171 -21 -71 -37 -80 -150 -92 -62 -6 -129 -21 -179 -39 -223 -80 -282 -80 -421 5 -28 17 -32 25 -43 104 -6 47 -11 145 -11 216 1 106 -3 141 -19 188 l-20 58 33 117 c64 219 94 274 190 344 l41 30 5 -118 5 -117 35 -18z m-413 -361 c-2 -18 -4 -6 -4 27 0 33 2 48 4 33 2 -15 2 -42 0 -60z"/>
 <path d="M1095 1321 c-39 -16 -166 -23 -181 -10 -10 8 -14 8 -14 0 0 -21 46 -30 107 -21 59 8 113 25 113 35 0 6 1 6 -25 -4z"/>
 <path d="M977 1182 c-10 -10 -14 -22 -10 -25 3 -4 -1 -7 -10 -7 -22 0 -21 -7 7 -115 l24 -90 1 76 c1 45 -4 80 -11 87 -16 16 5 40 39 44 l25 3 -24 23 c-24 22 -25 22 -41 4z"/>
 <path d="M760 929 c0 -7 -7 -17 -15 -23 -19 -15 -9 -50 18 -65 20 -10 19 -11 -8 -6 -44 8 -85 26 -85 37 0 5 5 18 10 29 13 24 2 25 -17 2 -37 -48 -37 -52 14 -74 58 -25 127 -21 176 11 l32 22 -30 -26 c-33 -28 -23 -36 13 -10 13 9 21 22 18 29 -2 7 1 18 7 24 19 19 0 12 -38 -13 -34 -24 -65 -25 -65 -4 0 5 9 12 20 15 24 6 26 26 4 47 -18 18 -54 21 -54 5z"/>
 <path d="M1196 924 c-3 -8 -10 -12 -16 -9 -14 9 -13 -48 2 -63 24 -24 -12 -13 -48 14 l-34 27 4 -24 c3 -13 5 -27 5 -31 1 -5 6 -8 12 -8 8 0 7 6 -2 17 -12 14 -9 13 16 -2 42 -26 43 -29 15 -20 -14 4 -22 4 -18 0 16 -17 131 -16 180 2 26 9 48 20 48 24 0 4 -9 17 -20 30 -19 24 -19 24 -20 3 0 -22 -28 -38 -85 -49 -26 -5 -27 -4 -7 4 12 6 22 13 22 16 0 4 -4 3 -10 0 -5 -3 -10 1 -10 9 0 9 7 16 15 16 22 0 18 37 -4 50 -27 14 -38 13 -45 -6z"/>
 <path d="M1080 816 c0 -22 81 -56 132 -56 52 0 108 10 108 19 0 3 -35 6 -79 6 -45 0 -85 6 -93 12 -7 7 -26 16 -41 22 -21 8 -27 8 -27 -3z"/>
 <path d="M851 800 c-58 -27 -103 -26 -226 6 -19 5 -19 5 -1 -7 19 -12 57 -23 129 -38 55 -12 157 21 157 50 0 13 -10 11 -59 -11z"/>
 <path d="M1465 1128 c3 -13 7 -29 7 -36 1 -7 11 -23 24 -37 12 -13 19 -27 15 -32 -3 -4 2 -2 11 5 15 12 15 16 -7 48 -13 20 -27 44 -30 55 -4 10 -11 19 -17 19 -6 0 -8 -9 -3 -22z"/>
 <path d="M1526 954 c-4 -14 -5 -28 -3 -31 3 -2 8 8 11 23 4 14 5 28 3 31 -3 2 -8 -8 -11 -23z"/>
 </g>
<g id="layer107" fill="#e4977b" stroke="none">
 <path d="M120 1982 c0 -50 34 -127 76 -172 57 -61 115 -86 255 -107 64 -10 117 -23 123 -31 6 -7 24 -25 40 -40 15 -15 45 -63 66 -107 l38 -79 -29 -33 c-36 -42 -67 -102 -90 -173 -13 -42 -22 -56 -40 -60 -27 -7 -94 -116 -77 -126 13 -8 22 3 38 46 17 44 29 60 45 60 10 0 8 -15 -7 -62 -11 -35 -20 -69 -20 -75 -1 -7 -6 -13 -11 -13 -5 0 -7 -6 -4 -12 2 -7 1 -22 -4 -33 l-8 -20 -1 20 c-1 11 -2 31 -1 45 2 25 1 25 -14 5 -16 -19 -16 -35 1 -99 4 -16 2 -26 -5 -26 -6 0 -8 -6 -5 -14 3 -8 1 -17 -5 -20 -15 -10 -24 38 -17 92 5 35 4 43 -4 32 -9 -12 -10 -10 -5 10 4 14 14 30 22 37 11 8 11 13 2 19 -25 15 -59 -65 -59 -143 0 -48 17 -93 36 -93 14 0 -27 -148 -53 -187 -14 -21 -14 -23 0 -23 14 0 13 -8 -5 -61 l-20 -60 25 -27 c19 -20 24 -34 20 -55 -4 -20 0 -35 14 -50 11 -12 30 -48 43 -80 14 -35 35 -67 51 -80 16 -11 29 -26 29 -33 0 -15 15 -20 105 -34 39 -6 95 -18 126 -25 80 -21 125 -19 194 10 71 29 86 30 130 9 32 -15 37 -15 102 11 206 82 273 148 273 269 0 22 12 63 27 94 31 64 42 178 24 260 -10 47 -9 54 9 72 20 20 29 66 10 55 -6 -4 -10 8 -10 30 0 22 4 34 10 30 13 -8 13 24 -1 64 -9 26 -14 30 -26 20 -9 -8 -10 -14 -3 -19 8 -5 8 -15 0 -34 -7 -20 -7 -25 2 -20 8 5 9 -5 5 -35 -3 -24 -8 -46 -12 -49 -13 -14 -26 25 -21 66 5 40 4 43 -14 37 -16 -5 -20 -2 -20 14 0 30 -1 34 -12 56 -8 17 -6 17 11 -3 11 -12 21 -28 24 -35 2 -6 8 -9 12 -4 5 4 -7 24 -27 45 -20 20 -38 46 -41 57 -3 11 -8 30 -11 41 -5 16 -1 23 16 29 l23 8 -25 4 c-21 3 -28 14 -43 66 -21 71 -65 152 -100 186 -23 21 -24 25 -12 49 7 15 21 46 30 68 10 23 36 61 59 83 40 39 51 44 157 67 131 29 199 57 252 103 37 33 79 110 92 169 l7 32 -881 0 c-845 0 -881 -1 -881 -18z m890 -157 c0 -58 26 -120 66 -160 22 -22 51 -47 64 -56 22 -14 17 -15 -61 -6 -46 5 -91 9 -99 8 -47 -3 -137 -18 -147 -24 -7 -5 -13 -6 -13 -4 0 3 25 20 55 38 61 37 76 62 102 167 16 68 33 87 33 37z m-130 -591 c67 -28 103 -31 98 -8 -2 10 -24 24 -56 34 -30 10 -59 23 -65 29 -17 17 -20 122 -5 151 22 40 46 37 99 -16 l49 -48 44 49 c40 47 45 49 72 40 28 -10 29 -13 32 -84 3 -86 -6 -102 -74 -121 -48 -14 -59 -23 -50 -45 4 -12 15 -11 66 7 84 28 92 43 88 167 -2 56 -2 101 0 101 2 0 23 -13 47 -30 90 -62 126 -127 185 -334 36 -123 37 -133 23 -160 -12 -22 -17 -80 -22 -216 -6 -154 -11 -193 -27 -225 -21 -45 -26 -47 -179 -64 -62 -7 -125 -23 -200 -52 -100 -38 -116 -41 -182 -37 -68 5 -145 32 -195 71 -23 18 -38 142 -37 306 0 116 -3 145 -21 193 l-21 57 39 134 c61 207 91 260 187 329 l40 30 5 -118 5 -118 55 -22z m-433 -356 c-2 -18 -4 -6 -4 27 0 33 2 48 4 33 2 -15 2 -42 0 -60z"/>
 <path d="M1095 1321 c-11 -5 -53 -12 -93 -16 -55 -5 -76 -4 -89 6 -14 12 -16 12 -11 -1 9 -30 194 -20 214 11 6 10 5 10 -21 0z"/>
 <path d="M977 1182 c-10 -10 -14 -22 -10 -25 3 -4 -1 -7 -10 -7 -19 0 -23 -25 -7 -35 6 -4 8 -11 5 -16 -4 -5 -3 -14 1 -21 4 -7 9 -26 11 -42 6 -57 23 -53 23 5 0 30 -5 60 -11 66 -19 19 -3 41 31 45 l32 3 -24 23 c-24 22 -25 22 -41 4z"/>
 <path d="M760 929 c0 -7 -7 -17 -15 -23 -19 -15 -9 -50 18 -65 20 -10 19 -11 -8 -6 -44 8 -85 26 -85 37 0 5 5 19 10 31 7 13 -1 8 -20 -13 -28 -32 -29 -36 -14 -47 9 -7 41 -17 71 -24 46 -9 62 -8 98 5 23 9 52 28 65 41 29 31 19 32 -19 4 -17 -13 -34 -18 -42 -14 -8 5 -10 4 -5 -3 5 -8 2 -10 -8 -6 -22 9 -20 25 4 31 24 6 26 26 4 47 -18 18 -54 21 -54 5z"/>
 <path d="M1196 924 c-3 -8 -10 -12 -16 -9 -14 9 -13 -48 2 -63 23 -23 -12 -13 -48 14 -19 15 -34 22 -34 17 0 -5 3 -13 8 -17 4 -4 7 -12 7 -18 0 -6 11 -18 25 -27 18 -12 22 -12 16 -2 -7 11 -4 13 15 6 35 -12 105 -9 150 5 45 15 46 19 19 51 -19 24 -19 24 -20 3 0 -22 -28 -38 -85 -49 -26 -5 -27 -4 -7 4 12 6 22 13 22 16 0 4 -4 3 -10 0 -5 -3 -10 1 -10 9 0 9 7 16 15 16 22 0 18 37 -4 50 -27 14 -38 13 -45 -6z"/>
 <path d="M858 834 c-38 -20 -36 -28 2 -9 17 9 30 18 30 20 0 7 -1 6 -32 -11z"/>
 <path d="M855 799 c-33 -16 -55 -19 -120 -15 l-80 4 50 -14 c28 -7 66 -14 85 -14 39 0 120 33 120 50 0 13 -8 12 -55 -11z"/>
 <path d="M1080 812 c0 -16 61 -43 107 -48 27 -3 66 -1 88 4 39 10 39 10 -25 11 -41 1 -81 9 -109 21 -47 22 -61 24 -61 12z"/>
 <path d="M1460 1139 c0 -14 42 -93 53 -97 4 -2 4 -9 0 -15 -4 -7 1 -5 11 3 17 13 17 15 -3 32 -12 9 -21 20 -20 23 0 3 -4 19 -11 35 -12 30 -30 41 -30 19z"/>
 </g>
<g id="layer108" fill="#a59ba0" stroke="none">
 <path d="M120 1982 c0 -50 34 -127 76 -172 57 -61 115 -86 255 -107 64 -10 117 -23 123 -31 6 -7 24 -25 40 -40 15 -15 46 -65 69 -112 22 -47 41 -87 43 -89 2 -3 14 5 27 15 12 11 33 27 47 36 l25 15 -3 -118 -3 -119 48 -21 c26 -11 63 -23 82 -26 28 -5 33 -3 30 12 -3 12 -23 24 -57 35 -30 10 -59 23 -65 29 -17 17 -20 122 -5 151 22 40 46 37 99 -16 l49 -48 44 49 c40 47 45 49 72 40 28 -10 29 -13 32 -84 3 -87 -6 -102 -74 -121 -45 -13 -62 -29 -50 -49 10 -16 125 28 142 55 12 18 15 46 12 127 l-3 105 41 -28 c41 -29 96 -86 125 -130 9 -14 20 -22 23 -19 4 4 0 14 -9 22 -8 9 -15 20 -15 26 0 6 -5 11 -11 11 -5 0 -8 4 -5 8 3 5 -8 21 -23 36 -27 26 -28 30 -16 54 7 15 21 46 30 68 10 23 36 61 59 83 40 39 51 44 157 67 131 29 199 57 252 103 37 33 79 110 92 169 l7 32 -881 0 c-845 0 -881 -1 -881 -18z m902 -217 c14 -67 46 -107 124 -157 51 -32 64 -45 62 -62 -5 -34 -45 -33 -82 2 -89 84 -166 82 -271 -8 -11 -10 -30 -20 -42 -23 -20 -4 -23 -1 -23 23 0 24 9 34 61 65 33 21 69 46 79 57 22 24 59 157 61 219 l2 44 9 -55 c5 -30 14 -77 20 -105z"/>
 <path d="M673 1390 c-3 -11 -9 -20 -14 -20 -5 0 -9 -8 -9 -17 0 -14 6 -11 25 12 27 33 31 45 14 45 -6 0 -13 -9 -16 -20z"/>
 <path d="M612 1278 c-11 -29 -23 -69 -27 -88 -4 -19 -15 -64 -26 -99 -11 -35 -17 -66 -14 -69 6 -6 6 -4 50 142 20 66 40 127 46 137 11 22 11 29 0 29 -5 0 -18 -24 -29 -52z"/>
 <path d="M1367 1303 c-4 -6 3 -39 15 -74 23 -73 44 -104 33 -50 -13 62 -41 135 -48 124z"/>
 <path d="M977 1179 c-9 -6 -15 -14 -12 -20 4 -5 -1 -9 -9 -9 -18 0 -22 -25 -6 -35 6 -4 8 -11 5 -16 -4 -5 -3 -14 1 -21 4 -7 9 -26 11 -42 5 -46 23 -57 23 -14 0 20 -4 40 -10 43 -16 10 -12 63 6 91 19 29 16 37 -9 23z"/>
 <path d="M534 1166 c-21 -23 -35 -56 -25 -56 6 0 16 10 22 23 7 12 19 27 28 34 14 11 14 12 1 12 -8 0 -20 -5 -26 -13z"/>
 <path d="M1462 1138 c2 -6 10 -14 16 -16 7 -2 10 2 6 12 -7 18 -28 22 -22 4z"/>
 <path d="M1415 1119 c31 -97 34 -122 18 -153 -12 -22 -17 -77 -22 -216 -6 -154 -11 -193 -27 -225 -21 -45 -26 -47 -179 -64 -62 -7 -125 -23 -200 -52 -100 -38 -116 -41 -182 -37 -68 5 -145 32 -195 71 -23 18 -38 142 -37 306 0 122 -2 143 -24 201 l-25 65 -12 -33 c-11 -31 -13 -32 -27 -15 -13 16 -14 14 -9 -24 5 -32 -3 -70 -36 -170 -22 -70 -48 -138 -56 -150 -13 -20 -13 -23 1 -23 14 0 13 -8 -5 -61 l-20 -60 25 -27 c19 -20 24 -34 20 -55 -4 -20 0 -35 14 -50 11 -12 30 -48 43 -80 14 -35 35 -67 51 -80 16 -11 29 -26 29 -33 0 -15 15 -20 105 -34 39 -6 95 -18 126 -25 80 -21 125 -19 194 10 71 29 86 30 130 9 32 -15 37 -15 102 11 206 82 273 148 273 269 0 22 12 63 27 94 31 64 42 178 24 260 -10 47 -9 54 9 72 11 11 20 28 20 38 0 13 -6 10 -25 -13 -13 -16 -24 -25 -25 -18 0 6 4 13 10 15 5 2 12 26 15 53 l4 50 -9 -44 c-12 -57 -15 -59 -34 -22 -12 22 -13 36 -6 56 13 35 13 37 -8 30 -16 -5 -22 6 -41 80 -13 47 -27 88 -33 91 -7 4 -7 -2 -3 -17z"/>
 <path d="M475 1071 c-6 -11 9 -23 19 -14 9 9 7 23 -3 23 -6 0 -12 -4 -16 -9z"/>
 <path d="M1512 1051 c2 -7 7 -12 11 -12 12 1 9 15 -3 20 -7 2 -11 -2 -8 -8z"/>
 <path d="M446 1024 c-4 -10 -1 -14 6 -12 15 5 23 28 10 28 -5 0 -13 -7 -16 -16z"/>
 <path d="M1547 1003 c-4 -6 -2 -24 5 -40 7 -19 12 -23 15 -12 5 21 -12 65 -20 52z"/>
 <path d="M426 969 c-8 -44 -7 -111 2 -127 10 -15 42 -5 41 12 -1 6 -5 22 -9 36 -7 23 -8 23 -11 -10 -2 -28 -3 -24 -8 20 -4 30 -2 61 3 68 6 8 5 17 -1 23 -7 7 -12 0 -17 -22z"/>
 <path d="M760 929 c0 -7 -7 -17 -15 -23 -19 -15 -9 -50 18 -65 20 -10 19 -11 -8 -6 -44 8 -85 26 -85 37 0 5 5 19 11 30 16 29 -5 14 -31 -22 l-22 -30 34 -14 c65 -27 113 -29 162 -7 25 12 50 31 57 42 10 20 10 20 -19 -1 -18 -13 -35 -19 -43 -15 -8 5 -10 4 -5 -3 5 -8 2 -10 -8 -6 -22 9 -20 25 4 31 24 6 26 26 4 47 -18 18 -54 21 -54 5z"/>
 <path d="M1196 924 c-3 -8 -10 -12 -16 -9 -14 9 -13 -48 2 -63 9 -9 8 -12 -4 -12 -9 0 -20 4 -23 10 -10 16 -45 32 -45 21 0 -6 23 -22 51 -37 54 -27 91 -27 167 -1 37 13 39 17 12 48 -19 24 -19 24 -20 3 0 -22 -28 -38 -85 -49 -26 -5 -27 -4 -7 4 12 6 22 13 22 16 0 4 -4 3 -10 0 -5 -3 -10 1 -10 9 0 9 7 16 15 16 22 0 18 37 -4 50 -27 14 -38 13 -45 -6z"/>
 <path d="M855 799 c-33 -16 -55 -19 -120 -15 l-80 4 50 -14 c28 -7 66 -14 85 -14 39 0 120 33 120 50 0 13 -8 12 -55 -11z"/>
 <path d="M1080 812 c0 -16 61 -43 107 -48 27 -3 66 -1 88 4 39 10 39 10 -25 11 -41 1 -81 9 -109 21 -47 22 -61 24 -61 12z"/>
 </g>
<g id="layer109" fill="#d78566" stroke="none">
 <path d="M120 1982 c0 -50 34 -127 76 -172 57 -61 115 -86 255 -107 64 -10 117 -23 123 -31 6 -7 24 -25 40 -40 15 -15 46 -65 69 -112 22 -47 41 -87 43 -89 2 -3 14 5 27 15 12 11 33 27 47 36 l25 15 -3 -118 -3 -119 48 -21 c26 -11 63 -23 82 -26 28 -5 33 -3 30 12 -3 12 -23 24 -57 35 -30 10 -59 23 -65 29 -17 17 -20 122 -5 151 22 40 46 37 99 -16 l49 -48 44 49 c40 47 45 49 72 40 28 -10 29 -13 32 -84 3 -87 -6 -102 -74 -121 -45 -13 -62 -29 -50 -49 10 -16 125 28 142 55 12 18 15 46 12 127 l-3 105 41 -28 c41 -29 96 -86 125 -130 9 -14 20 -22 23 -19 4 4 0 14 -9 22 -8 9 -15 20 -15 26 0 6 -5 11 -11 11 -5 0 -8 4 -5 8 3 5 -8 21 -23 36 -27 26 -28 30 -16 54 7 15 21 46 30 68 10 23 36 61 59 83 40 39 51 44 157 67 131 29 199 57 252 103 37 33 79 110 92 169 l7 32 -881 0 c-845 0 -881 -1 -881 -18z m896 -177 c18 -107 38 -139 130 -197 51 -32 64 -45 62 -62 -5 -34 -45 -33 -82 2 -89 84 -166 82 -271 -8 -11 -10 -30 -20 -42 -23 -20 -4 -23 -1 -23 23 0 24 10 34 70 71 47 29 75 54 85 76 21 45 44 155 46 223 2 39 3 45 6 20 2 -19 10 -75 19 -125z"/>
 <path d="M673 1390 c-3 -11 -9 -20 -14 -20 -5 0 -9 -8 -9 -17 0 -14 6 -11 25 12 27 33 31 45 14 45 -6 0 -13 -9 -16 -20z"/>
 <path d="M612 1278 c-11 -29 -23 -69 -27 -88 -4 -19 -15 -64 -26 -99 -11 -35 -17 -66 -14 -69 6 -6 6 -4 50 142 20 66 40 127 46 137 11 22 11 29 0 29 -5 0 -18 -24 -29 -52z"/>
 <path d="M1367 1303 c-4 -6 3 -39 15 -74 23 -73 44 -104 33 -50 -13 62 -41 135 -48 124z"/>
 <path d="M977 1179 c-9 -6 -15 -14 -12 -20 4 -5 -1 -9 -9 -9 -18 0 -22 -25 -6 -35 6 -4 8 -11 5 -16 -4 -5 -3 -14 1 -21 4 -7 9 -26 11 -42 5 -46 23 -57 23 -14 0 20 -4 40 -10 43 -16 10 -12 63 6 91 19 29 16 37 -9 23z"/>
 <path d="M534 1166 c-21 -23 -35 -56 -25 -56 6 0 16 10 22 23 7 12 19 27 28 34 14 11 14 12 1 12 -8 0 -20 -5 -26 -13z"/>
 <path d="M1462 1138 c2 -6 10 -14 16 -16 7 -2 10 2 6 12 -7 18 -28 22 -22 4z"/>
 <path d="M1415 1119 c31 -97 34 -122 18 -153 -12 -22 -17 -77 -22 -216 -6 -154 -11 -193 -27 -225 -21 -45 -26 -47 -179 -64 -62 -7 -125 -23 -200 -52 -100 -38 -116 -41 -182 -37 -68 5 -145 32 -195 71 -23 18 -38 142 -37 306 0 122 -2 143 -24 201 l-25 65 -12 -33 c-11 -31 -13 -32 -27 -15 -13 16 -14 14 -9 -24 5 -32 -3 -70 -36 -170 -22 -70 -48 -138 -56 -150 -13 -20 -13 -23 1 -23 14 0 13 -8 -5 -61 l-20 -60 25 -27 c19 -20 24 -34 20 -55 -4 -20 0 -35 14 -50 11 -12 30 -48 43 -80 14 -35 35 -67 51 -80 16 -11 29 -26 29 -33 0 -15 15 -20 105 -34 39 -6 95 -18 126 -25 80 -21 125 -19 194 10 71 29 86 30 130 9 32 -15 37 -15 102 11 206 82 273 148 273 269 0 22 12 63 27 94 31 64 42 178 24 260 -10 47 -9 54 9 72 11 11 20 28 20 38 0 13 -6 10 -25 -13 -13 -16 -24 -25 -25 -18 0 6 4 13 10 15 5 2 12 26 15 53 l4 50 -9 -44 c-12 -57 -15 -59 -34 -22 -12 22 -13 36 -6 56 13 35 13 37 -8 30 -16 -5 -22 6 -41 80 -13 47 -27 88 -33 91 -7 4 -7 -2 -3 -17z"/>
 <path d="M475 1071 c-6 -11 9 -23 19 -14 9 9 7 23 -3 23 -6 0 -12 -4 -16 -9z"/>
 <path d="M1512 1051 c2 -7 7 -12 11 -12 12 1 9 15 -3 20 -7 2 -11 -2 -8 -8z"/>
 <path d="M446 1024 c-4 -10 -1 -14 6 -12 15 5 23 28 10 28 -5 0 -13 -7 -16 -16z"/>
 <path d="M1547 1003 c-4 -6 -2 -24 5 -40 7 -19 12 -23 15 -12 5 21 -12 65 -20 52z"/>
 <path d="M426 969 c-8 -44 -7 -111 2 -127 10 -15 42 -5 41 12 -1 6 -5 22 -9 36 -7 23 -8 23 -11 -10 -2 -28 -3 -24 -8 20 -4 30 -2 61 3 68 6 8 5 17 -1 23 -7 7 -12 0 -17 -22z"/>
 <path d="M760 926 c0 -8 -7 -17 -16 -20 -17 -6 -11 -45 10 -58 21 -14 46 -9 39 8 -4 10 1 17 16 21 25 6 27 25 5 47 -19 20 -54 21 -54 2z"/>
 <path d="M1196 924 c-3 -8 -10 -12 -16 -9 -14 9 -13 -48 2 -63 7 -7 23 -12 38 -11 14 0 20 3 13 5 -16 7 -5 34 13 34 21 0 17 38 -5 50 -27 14 -38 13 -45 -6z"/>
 <path d="M650 880 l-22 -30 34 -14 c65 -28 119 -29 167 -4 25 13 47 29 49 36 3 10 -3 9 -21 -3 -15 -9 -32 -13 -38 -9 -7 4 -9 3 -6 -3 16 -25 -56 -30 -109 -8 -31 13 -35 18 -30 40 8 33 2 32 -24 -5z"/>
 <path d="M1325 884 c4 -17 -2 -24 -34 -39 -49 -22 -107 -16 -151 15 -16 12 -30 17 -30 11 0 -6 23 -22 51 -37 54 -27 91 -27 167 -1 38 13 39 17 11 48 -19 23 -20 23 -14 3z"/>
 <path d="M855 799 c-33 -16 -55 -19 -120 -15 l-80 4 50 -14 c28 -7 66 -14 85 -14 39 0 120 33 120 50 0 13 -8 12 -55 -11z"/>
 <path d="M1080 812 c0 -16 61 -43 107 -48 27 -3 66 -1 88 4 39 10 39 10 -25 11 -41 1 -81 9 -109 21 -47 22 -61 24 -61 12z"/>
 </g>
<g id="layer110" fill="#788ab4" stroke="none">
 <path d="M120 1982 c0 -50 34 -127 76 -172 57 -61 115 -86 255 -107 62 -9 117 -23 123 -30 6 -8 25 -27 41 -43 17 -16 46 -62 65 -102 19 -40 40 -73 45 -75 23 -6 57 34 62 75 5 39 10 45 74 84 46 28 74 53 84 75 21 45 44 155 46 223 2 39 3 45 6 20 2 -19 10 -75 19 -125 18 -107 38 -139 130 -196 62 -39 64 -42 64 -82 1 -34 6 -46 27 -61 26 -19 26 -19 45 3 10 13 18 30 18 38 0 26 38 88 78 126 35 34 50 40 153 63 131 29 199 57 252 103 37 33 79 110 92 169 l7 32 -881 0 c-845 0 -881 -1 -881 -18z"/>
 <path d="M914 1581 c-22 -15 -52 -43 -67 -60 -26 -31 -27 -37 -27 -147 l0 -115 48 -20 c26 -12 62 -23 81 -26 28 -5 33 -3 30 12 -3 12 -23 24 -57 35 -30 10 -59 23 -65 29 -17 17 -20 122 -5 151 22 40 46 37 99 -16 l49 -48 44 49 c40 47 45 49 72 40 28 -10 29 -13 32 -84 3 -87 -6 -102 -74 -121 -45 -13 -62 -29 -50 -49 9 -15 124 27 141 52 11 15 15 48 15 115 0 101 -9 129 -57 173 -70 66 -145 77 -209 30z"/>
 <path d="M1430 962 c-7 -16 -15 -98 -19 -212 -6 -154 -11 -193 -27 -225 -21 -45 -26 -47 -179 -64 -62 -7 -125 -23 -200 -52 -100 -38 -116 -41 -182 -37 -68 5 -145 32 -195 71 -23 18 -39 143 -37 304 0 99 -4 145 -16 183 -9 27 -20 50 -24 50 -20 0 -42 -47 -86 -185 -26 -82 -55 -160 -63 -172 -13 -20 -13 -23 1 -23 14 0 13 -8 -5 -61 l-20 -60 25 -27 c19 -20 24 -34 20 -55 -4 -20 0 -35 14 -50 11 -12 30 -48 43 -80 14 -35 35 -67 51 -80 16 -11 29 -26 29 -33 0 -15 15 -20 105 -34 39 -6 95 -18 126 -25 80 -21 125 -19 194 10 71 29 86 30 130 9 32 -15 37 -15 102 11 206 82 273 148 273 269 0 22 12 63 27 93 49 102 43 246 -18 405 -36 93 -51 109 -69 70z"/>
 <path d="M760 926 c0 -8 -7 -17 -16 -20 -17 -6 -11 -45 10 -58 21 -14 46 -9 39 8 -4 10 1 17 16 21 25 6 27 25 5 47 -19 20 -54 21 -54 2z"/>
 <path d="M1196 924 c-3 -8 -10 -12 -16 -9 -14 9 -13 -48 2 -63 7 -7 23 -12 38 -11 14 0 20 3 13 5 -16 7 -5 34 13 34 21 0 17 38 -5 50 -27 14 -38 13 -45 -6z"/>
 <path d="M650 880 l-22 -30 39 -16 c58 -25 131 -22 176 7 20 13 37 28 37 33 0 5 -9 1 -20 -9 -10 -9 -26 -15 -35 -11 -9 3 -14 2 -11 -3 15 -23 -59 -27 -110 -6 -31 13 -35 18 -30 40 8 33 2 32 -24 -5z"/>
 <path d="M1325 884 c4 -17 -2 -24 -34 -39 -49 -22 -106 -16 -153 15 l-33 22 28 -26 c48 -45 98 -51 190 -24 43 13 44 17 16 49 -19 23 -20 23 -14 3z"/>
 <path d="M855 799 c-33 -16 -55 -19 -120 -15 l-80 4 50 -14 c28 -7 66 -14 85 -14 39 0 120 33 120 50 0 13 -8 12 -55 -11z"/>
 <path d="M1080 812 c0 -16 61 -43 107 -48 27 -3 66 -1 88 4 39 10 39 10 -25 11 -41 1 -81 9 -109 21 -47 22 -61 24 -61 12z"/>
 </g>
<g id="layer111" fill="#64769e" stroke="none">
 <path d="M120 1982 c0 -50 34 -127 76 -172 57 -61 115 -86 255 -107 62 -9 117 -23 123 -30 6 -8 25 -27 41 -43 17 -16 46 -62 65 -102 19 -40 40 -73 45 -75 23 -6 57 34 62 75 5 39 10 45 74 84 46 28 74 53 84 75 21 45 44 155 46 223 2 39 3 45 6 20 2 -19 10 -75 19 -125 18 -107 38 -139 130 -196 62 -39 64 -42 64 -82 1 -34 6 -46 27 -61 26 -19 26 -19 45 3 10 13 18 30 18 38 0 26 38 88 78 126 35 34 50 40 153 63 131 29 199 57 252 103 37 33 79 110 92 169 l7 32 -881 0 c-845 0 -881 -1 -881 -18z"/>
 <path d="M914 1581 c-22 -15 -52 -43 -67 -60 -26 -31 -27 -37 -27 -147 l0 -115 48 -20 c26 -12 62 -23 81 -26 28 -5 33 -3 30 12 -3 12 -23 24 -57 35 -30 10 -59 23 -65 29 -17 17 -20 122 -5 151 22 40 46 37 99 -16 l49 -48 44 49 c40 47 45 49 72 40 28 -10 29 -13 32 -84 3 -87 -6 -102 -74 -121 -45 -13 -62 -29 -50 -49 9 -15 124 27 141 52 11 15 15 48 15 115 0 101 -9 129 -57 173 -70 66 -145 77 -209 30z"/>
 <path d="M1430 962 c-7 -16 -15 -98 -19 -212 -6 -154 -11 -193 -27 -225 -21 -45 -26 -47 -179 -64 -62 -7 -125 -23 -200 -52 -100 -38 -116 -41 -182 -37 -68 5 -145 32 -195 71 -23 18 -39 143 -37 304 0 99 -4 145 -16 183 -9 27 -20 50 -24 50 -20 0 -42 -47 -86 -185 -26 -82 -55 -160 -63 -172 -13 -20 -13 -23 1 -23 14 0 13 -8 -5 -61 l-20 -60 25 -27 c19 -20 24 -34 20 -55 -4 -20 0 -35 14 -50 11 -12 30 -48 43 -80 14 -35 35 -67 51 -80 16 -11 29 -26 29 -33 0 -15 15 -20 105 -34 39 -6 95 -18 126 -25 80 -21 125 -19 194 10 71 29 86 30 130 9 32 -15 37 -15 102 11 206 82 273 148 273 269 0 22 12 63 27 93 49 102 43 246 -18 405 -36 93 -51 109 -69 70z"/>
 <path d="M771 910 c-8 -5 -12 -17 -8 -30 4 -17 2 -20 -10 -16 -13 5 -14 4 -3 -9 14 -16 55 -21 45 -5 -3 5 -1 18 4 29 13 23 -7 45 -28 31z"/>
 <path d="M650 880 l-22 -30 39 -16 c58 -25 131 -22 176 7 20 13 37 28 37 32 0 4 -13 -2 -28 -13 -40 -29 -99 -36 -146 -16 -33 14 -37 19 -32 41 8 33 2 32 -24 -5z"/>
 <path d="M1192 885 c3 -13 1 -22 -3 -19 -5 3 -9 1 -9 -4 0 -10 23 -22 41 -22 4 0 6 6 3 14 -3 8 -1 17 5 21 21 13 11 35 -15 35 -23 0 -26 -4 -22 -25z"/>
 <path d="M1325 884 c4 -17 -2 -24 -34 -39 -49 -22 -106 -16 -153 15 l-33 22 28 -26 c48 -45 98 -51 190 -24 43 13 44 17 16 49 -19 23 -20 23 -14 3z"/>
 <path d="M855 799 c-33 -16 -55 -19 -120 -15 l-80 4 50 -14 c28 -7 66 -14 85 -14 39 0 120 33 120 50 0 13 -8 12 -55 -11z"/>
 <path d="M1080 812 c0 -16 61 -43 107 -48 27 -3 66 -1 88 4 39 10 39 10 -25 11 -41 1 -81 9 -109 21 -47 22 -61 24 -61 12z"/>
 </g>
<g id="layer112" fill="#6d5e5c" stroke="none">
 <path d="M120 1982 c0 -50 34 -127 76 -172 57 -61 115 -86 255 -107 62 -9 117 -23 123 -30 6 -8 25 -27 41 -43 17 -16 46 -62 65 -102 19 -40 40 -73 45 -75 23 -6 57 34 62 75 5 39 10 45 74 84 46 28 74 53 84 75 21 45 44 155 46 223 2 39 3 45 6 20 2 -19 10 -75 19 -125 18 -107 38 -139 130 -196 62 -39 64 -42 64 -82 1 -34 6 -46 27 -61 26 -19 26 -19 45 3 10 13 18 30 18 38 0 26 38 88 78 126 35 34 50 40 153 63 131 29 199 57 252 103 37 33 79 110 92 169 l7 32 -881 0 c-845 0 -881 -1 -881 -18z"/>
 <path d="M914 1581 c-22 -15 -52 -43 -67 -60 -26 -31 -27 -37 -27 -147 l0 -115 48 -20 c26 -12 62 -23 81 -26 28 -5 33 -3 30 12 -3 12 -23 24 -57 35 -30 10 -59 23 -65 29 -17 17 -20 122 -5 151 22 40 46 37 99 -16 l49 -48 44 49 c40 47 45 49 72 40 28 -10 29 -13 32 -84 3 -87 -6 -102 -74 -121 -45 -13 -62 -29 -50 -49 9 -15 124 27 141 52 11 15 15 48 15 115 0 101 -9 129 -57 173 -70 66 -145 77 -209 30z"/>
 <path d="M1430 962 c-7 -16 -15 -98 -19 -212 -6 -154 -11 -193 -27 -225 -21 -45 -26 -47 -179 -64 -62 -7 -125 -23 -200 -52 -100 -38 -116 -41 -182 -37 -68 5 -145 32 -195 71 -23 18 -39 143 -37 304 0 99 -4 145 -16 183 -9 27 -20 50 -24 50 -20 0 -42 -47 -86 -185 -26 -82 -55 -160 -63 -172 -13 -20 -13 -23 1 -23 14 0 13 -8 -5 -61 l-20 -60 25 -27 c19 -20 24 -34 20 -55 -4 -20 0 -35 14 -50 11 -12 30 -48 43 -80 14 -35 35 -67 51 -80 16 -11 29 -26 29 -33 0 -15 15 -20 105 -34 39 -6 95 -18 126 -25 80 -21 125 -19 194 10 71 29 86 30 130 9 32 -15 37 -15 102 11 206 82 273 148 273 269 0 22 12 63 27 93 49 102 43 246 -18 405 -36 93 -51 109 -69 70z"/>
 <path d="M650 880 l-22 -30 39 -16 c58 -25 131 -22 176 7 20 13 37 28 37 32 0 4 -13 -2 -28 -13 -40 -29 -99 -36 -146 -16 -33 14 -37 19 -32 41 8 33 2 32 -24 -5z"/>
 <path d="M765 900 c-8 -14 3 -30 21 -30 8 0 14 9 14 20 0 21 -24 28 -35 10z"/>
 <path d="M1195 900 c-4 -7 -3 -16 3 -22 14 -14 45 -2 40 15 -6 16 -34 21 -43 7z"/>
 <path d="M1325 884 c4 -17 -2 -24 -34 -39 -49 -22 -106 -16 -153 15 l-33 22 28 -26 c48 -45 98 -51 190 -24 43 13 44 17 16 49 -19 23 -20 23 -14 3z"/>
 <path d="M855 799 c-33 -16 -55 -19 -120 -15 l-80 4 50 -14 c28 -7 66 -14 85 -14 39 0 120 33 120 50 0 13 -8 12 -55 -11z"/>
 <path d="M1080 812 c0 -16 61 -43 107 -48 27 -3 66 -1 88 4 39 10 39 10 -25 11 -41 1 -81 9 -109 21 -47 22 -61 24 -61 12z"/>
 </g>
<g id="layer113" fill="#93543e" stroke="none">
 <path d="M120 1982 c0 -50 34 -127 76 -172 57 -61 115 -86 255 -107 64 -10 117 -23 123 -31 6 -7 24 -25 40 -40 16 -15 44 -59 62 -98 18 -40 37 -75 43 -78 19 -12 60 27 66 64 3 19 9 41 13 49 6 11 77 57 119 77 24 11 56 111 68 213 7 59 13 102 14 96 1 -5 6 -48 11 -94 18 -157 38 -192 153 -262 45 -27 47 -31 47 -74 0 -25 4 -45 9 -45 5 0 17 -8 27 -17 16 -16 18 -16 35 6 11 13 19 30 19 38 0 26 38 88 78 126 35 34 50 40 153 63 131 29 199 57 252 103 37 33 79 110 92 169 l7 32 -440 0 c-411 0 -441 -1 -445 -17 -4 -17 -5 -17 -6 0 -1 16 -29 17 -436 17 -414 0 -435 -1 -435 -18z"/>
 <path d="M945 1601 c-11 -5 -42 -28 -69 -52 l-48 -44 -5 -90 c-6 -128 0 -151 45 -174 21 -11 55 -23 76 -26 33 -7 38 -5 34 11 -2 12 -19 23 -53 32 -76 21 -85 33 -85 114 0 55 4 72 20 88 11 11 25 20 30 20 6 0 32 -20 58 -45 26 -25 51 -45 56 -45 4 0 26 20 48 45 45 52 59 55 86 20 15 -19 19 -38 17 -90 -3 -77 -9 -86 -82 -110 -29 -9 -53 -21 -53 -26 0 -19 31 -21 64 -5 19 9 41 16 50 16 35 0 47 42 42 147 -4 108 -9 125 -53 163 -62 55 -125 72 -178 51z"/>
 <path d="M1430 953 c-7 -21 -15 -120 -19 -219 -11 -257 -6 -251 -206 -273 -64 -7 -116 -20 -180 -47 -109 -44 -195 -54 -276 -31 -66 20 -135 63 -144 91 -3 12 -8 109 -11 216 -4 146 -9 207 -21 243 -9 26 -20 47 -23 47 -19 0 -41 -49 -85 -185 -26 -82 -55 -160 -63 -172 -13 -20 -13 -23 1 -23 14 0 13 -8 -5 -61 l-20 -60 25 -27 c19 -20 24 -34 20 -55 -4 -20 0 -35 14 -50 11 -12 30 -48 43 -80 14 -35 35 -67 51 -80 16 -11 29 -26 29 -33 0 -15 15 -20 105 -34 39 -6 95 -18 126 -25 80 -21 125 -19 194 10 71 29 86 30 130 9 32 -15 37 -15 102 11 206 82 273 148 273 269 0 22 12 63 28 95 25 51 27 66 26 166 0 94 -4 122 -28 190 -50 143 -69 166 -86 108z"/>
 <path d="M650 880 l-22 -30 39 -16 c58 -25 131 -22 176 7 20 13 37 28 37 32 0 4 -14 -3 -31 -15 -35 -26 -113 -31 -162 -10 -24 10 -26 14 -17 33 18 33 4 33 -20 -1z"/>
 <path d="M765 900 c-8 -14 3 -30 21 -30 8 0 14 9 14 20 0 21 -24 28 -35 10z"/>
 <path d="M1195 900 c-8 -13 3 -30 20 -30 14 0 27 24 18 34 -10 9 -31 7 -38 -4z"/>
 <path d="M1325 882 c6 -19 1 -25 -31 -38 -48 -20 -111 -14 -156 16 l-33 22 28 -26 c48 -45 98 -51 190 -24 43 13 44 17 16 49 l-20 24 6 -23z"/>
 <path d="M852 794 c-30 -14 -60 -23 -68 -20 -7 3 -16 1 -19 -4 -16 -26 84 -4 121 26 36 29 32 29 -34 -2z"/>
 <path d="M1080 812 c0 -12 33 -29 70 -36 19 -4 43 -10 54 -13 12 -3 16 -1 12 6 -4 6 -15 11 -24 11 -10 0 -34 9 -55 20 -39 21 -57 25 -57 12z"/>
 </g>
<g id="layer114" fill="#4f4442" stroke="none">
 <path d="M120 1982 c0 -50 34 -127 76 -172 57 -61 115 -86 255 -107 64 -10 117 -23 123 -31 6 -7 24 -25 40 -40 16 -15 44 -59 62 -98 18 -40 37 -75 43 -78 6 -4 22 1 36 11 18 13 24 27 25 55 0 30 6 42 33 62 19 15 37 26 41 26 3 0 22 10 41 23 48 31 74 98 90 226 7 59 13 102 14 96 1 -5 6 -48 11 -94 18 -157 39 -192 151 -261 41 -24 47 -33 52 -71 4 -28 13 -49 29 -61 22 -17 24 -17 41 3 9 12 17 28 17 36 0 26 38 88 78 126 35 34 50 40 153 63 131 29 199 57 252 103 37 33 79 110 92 169 l7 32 -440 0 c-411 0 -441 -1 -445 -17 -4 -17 -5 -17 -6 0 -1 16 -29 17 -436 17 -414 0 -435 -1 -435 -18z"/>
 <path d="M942 1600 c-12 -5 -44 -31 -70 -57 l-47 -48 -3 -89 c-4 -122 2 -142 47 -165 20 -11 54 -23 75 -26 33 -7 38 -5 34 11 -2 12 -19 23 -53 32 -76 21 -85 33 -85 114 0 55 4 72 20 88 11 11 25 20 30 20 6 0 32 -20 58 -45 26 -25 51 -45 56 -45 4 0 26 20 48 45 45 52 59 55 86 20 15 -19 19 -38 17 -90 -3 -77 -9 -86 -82 -110 -29 -9 -53 -21 -53 -26 0 -19 31 -21 64 -5 19 9 41 16 50 16 35 0 47 42 42 147 -4 117 -13 135 -89 187 -54 37 -97 45 -145 26z"/>
 <path d="M1430 953 c-7 -21 -15 -120 -19 -219 -11 -257 -6 -251 -206 -273 -64 -7 -116 -20 -180 -47 -109 -44 -195 -54 -276 -31 -66 20 -135 63 -144 91 -3 12 -8 109 -11 216 -4 146 -9 207 -21 243 -9 26 -20 47 -24 47 -15 0 -39 -53 -84 -190 -27 -80 -55 -155 -63 -167 -13 -20 -12 -23 1 -23 14 0 13 -8 -5 -61 l-20 -60 25 -27 c19 -20 24 -34 20 -55 -4 -20 0 -35 14 -50 11 -12 30 -48 43 -80 14 -35 35 -67 51 -80 16 -11 29 -26 29 -33 0 -15 15 -20 105 -34 39 -6 95 -18 126 -25 80 -21 125 -19 194 10 71 29 86 30 130 9 32 -15 37 -15 102 11 206 82 273 148 273 269 0 22 12 63 28 95 25 51 27 65 26 166 -1 95 -5 121 -31 197 -17 47 -40 98 -51 113 l-21 26 -11 -38z"/>
 <path d="M765 900 c-8 -14 3 -30 21 -30 8 0 14 9 14 20 0 21 -24 28 -35 10z"/>
 <path d="M1195 900 c-8 -13 3 -30 20 -30 14 0 27 24 18 34 -10 9 -31 7 -38 -4z"/>
 <path d="M646 871 c-20 -22 -18 -24 53 -45 59 -17 109 -11 146 19 18 15 17 15 -12 0 -40 -19 -93 -19 -139 0 -25 10 -34 20 -30 30 7 20 3 19 -18 -4z"/>
 <path d="M1330 871 c0 -17 -62 -41 -107 -42 -34 0 -35 -1 -15 -10 25 -9 152 16 152 31 0 4 -7 13 -15 20 -11 9 -15 9 -15 1z"/>
 <path d="M852 794 c-30 -14 -60 -23 -68 -20 -7 3 -16 1 -19 -4 -16 -26 84 -4 121 26 36 29 32 29 -34 -2z"/>
 <path d="M1080 812 c0 -12 33 -29 70 -36 19 -4 43 -10 54 -13 12 -3 16 -1 12 6 -4 6 -15 11 -24 11 -10 0 -34 9 -55 20 -39 21 -57 25 -57 12z"/>
 </g>
<g id="layer115" fill="#115171" stroke="none">
 <path d="M120 1982 c0 -50 34 -127 76 -172 57 -61 115 -86 255 -107 64 -10 117 -23 123 -31 6 -7 24 -25 40 -40 16 -15 42 -56 59 -92 41 -91 43 -93 78 -73 24 14 29 24 29 55 0 30 6 42 33 62 19 15 37 26 41 26 3 0 22 10 41 23 48 30 74 97 90 226 7 58 13 102 14 96 1 -5 6 -48 11 -94 18 -158 36 -188 155 -264 44 -28 50 -36 53 -71 2 -25 11 -45 25 -57 21 -18 22 -18 40 2 9 12 17 28 17 36 0 26 38 88 78 126 35 34 50 40 153 63 131 29 199 57 252 103 37 33 79 110 92 169 l7 32 -440 0 c-411 0 -441 -1 -445 -17 -4 -17 -5 -17 -6 0 -1 16 -29 17 -436 17 -414 0 -435 -1 -435 -18z"/>
 <path d="M943 1600 c-27 -11 -113 -95 -113 -110 0 -5 17 7 38 28 21 20 53 45 70 55 31 17 31 17 25 0 -6 -16 -5 -16 10 -4 14 11 17 11 17 0 0 -12 2 -12 9 0 7 11 11 10 20 -5 9 -17 10 -17 11 -1 0 9 3 17 7 17 20 0 97 -56 114 -83 10 -18 19 -27 19 -20 0 17 -49 72 -94 104 -41 30 -89 37 -133 19z"/>
 <path d="M1430 953 c-7 -21 -15 -120 -19 -219 -11 -257 -6 -251 -206 -273 -64 -7 -116 -20 -180 -47 -109 -44 -195 -54 -276 -31 -66 20 -135 63 -144 91 -3 12 -8 109 -11 216 -4 146 -9 207 -21 243 -9 26 -20 47 -24 47 -15 0 -39 -53 -84 -190 -27 -80 -55 -155 -63 -167 -13 -20 -12 -23 1 -23 14 0 13 -8 -5 -61 l-20 -60 25 -27 c19 -20 24 -34 20 -55 -4 -20 0 -35 14 -50 11 -12 30 -48 43 -80 14 -35 35 -67 51 -80 16 -11 29 -26 29 -33 0 -15 15 -20 105 -34 39 -6 95 -18 126 -25 80 -21 125 -19 194 10 71 29 86 30 130 9 32 -15 37 -15 102 11 206 82 273 148 273 269 0 22 12 63 28 95 25 51 27 65 26 166 -1 95 -5 121 -31 197 -17 47 -40 98 -51 113 l-21 26 -11 -38z m-906 -103 c-8 -47 -21 -105 -29 -130 -9 -25 -11 -46 -6 -48 5 -2 -2 -37 -16 -78 -26 -77 -25 -97 2 -74 13 11 15 7 15 -26 0 -22 -4 -54 -9 -72 -9 -30 -8 -32 14 -32 22 0 24 -5 27 -52 3 -52 4 -53 31 -50 25 3 28 0 23 -17 -3 -12 -9 -30 -12 -41 -7 -25 12 -26 38 -3 10 9 18 12 18 6 0 -5 6 -17 13 -27 12 -16 17 -15 77 13 75 36 95 39 85 13 -4 -9 -10 -25 -13 -36 -5 -17 -3 -17 19 -3 13 8 39 18 57 22 28 6 32 4 32 -14 0 -12 2 -21 5 -21 3 0 42 25 87 55 45 30 83 53 85 51 2 -2 -4 -19 -12 -40 l-15 -36 55 31 55 31 0 -28 0 -27 23 20 c12 11 41 32 65 47 37 23 42 24 42 9 0 -13 12 -4 38 27 l39 44 7 -28 c6 -23 9 -26 21 -16 9 7 22 33 29 59 8 25 15 37 15 27 1 -32 12 -11 30 61 10 38 23 67 30 66 7 -2 11 14 11 43 0 27 4 43 10 39 13 -8 13 -5 -5 46 -11 31 -12 45 -4 50 7 4 8 15 3 30 -4 13 -8 35 -9 49 -1 14 -4 41 -8 60 -6 27 -5 30 3 13 20 -48 42 -199 37 -259 -2 -36 -15 -86 -31 -119 -14 -32 -26 -74 -26 -94 -1 -49 -30 -111 -70 -145 -18 -15 -82 -52 -142 -82 -102 -51 -110 -54 -131 -39 -32 22 -97 19 -151 -9 -44 -22 -54 -23 -114 -15 -37 5 -80 14 -96 19 -16 6 -61 13 -100 16 -67 6 -73 9 -110 48 -21 22 -49 66 -63 96 -14 30 -33 64 -44 76 -15 16 -17 26 -10 45 7 20 4 29 -17 52 l-26 27 22 62 c15 40 19 64 12 68 -6 4 -3 20 9 46 19 40 47 125 76 228 9 32 18 56 20 54 2 -2 -3 -41 -11 -88z"/>
 <path d="M765 900 c-8 -14 3 -30 21 -30 8 0 14 9 14 20 0 21 -24 28 -35 10z"/>
 <path d="M1195 900 c-8 -13 3 -30 20 -30 14 0 27 24 18 34 -10 9 -31 7 -38 -4z"/>
 <path d="M646 871 c-20 -22 -18 -24 53 -45 59 -17 109 -11 146 19 18 15 17 15 -12 0 -40 -19 -93 -19 -139 0 -25 10 -34 20 -30 30 7 20 3 19 -18 -4z"/>
 <path d="M1330 871 c0 -17 -62 -41 -107 -42 -34 0 -35 -1 -15 -10 25 -9 152 16 152 31 0 4 -7 13 -15 20 -11 9 -15 9 -15 1z"/>
 </g>
<g id="layer116" fill="#244b60" stroke="none">
 <path d="M120 1982 c0 -50 34 -127 76 -172 57 -61 115 -86 255 -107 64 -10 117 -23 123 -31 6 -7 24 -25 40 -40 16 -15 44 -59 62 -98 18 -40 38 -75 45 -79 6 -4 10 -4 7 1 -56 122 -79 164 -100 180 -37 29 -40 41 -23 76 l16 33 -19 -24 -19 -24 -119 23 c-131 24 -183 43 -232 85 -37 31 -77 103 -87 158 -7 38 -25 51 -25 19z"/>
 <path d="M982 1935 c1 -69 1 -69 8 -20 4 28 8 46 9 40 0 -5 6 -48 11 -94 18 -158 36 -188 155 -264 46 -29 50 -36 53 -74 3 -45 16 -57 27 -24 12 38 -27 91 -100 136 -16 9 -40 27 -52 38 l-23 20 29 18 c16 9 52 55 80 102 47 79 77 115 85 106 2 -2 14 -24 26 -49 13 -25 40 -69 61 -99 22 -30 39 -65 39 -79 0 -14 -17 -43 -44 -73 -26 -29 -48 -66 -56 -94 -7 -25 -17 -48 -21 -51 -5 -3 -9 -11 -9 -17 1 -17 40 32 40 50 0 26 38 88 78 126 35 34 50 40 153 63 188 42 266 89 312 187 30 64 43 117 28 117 -6 0 -11 -6 -11 -12 0 -30 -54 -126 -93 -166 -57 -59 -102 -80 -221 -103 -55 -11 -108 -22 -117 -24 -16 -5 -81 90 -139 206 l-25 50 -27 -28 c-14 -15 -43 -55 -63 -88 -39 -63 -83 -115 -97 -115 -4 0 -17 19 -29 43 -16 30 -24 68 -28 134 -3 50 -9 95 -14 99 -4 4 -7 -1 -8 -12 0 -18 -1 -18 -9 1 -6 13 -8 -3 -8 -50z"/>
 <path d="M682 1857 c-24 -45 -34 -71 -23 -57 11 14 33 49 49 78 l29 54 35 -49 c19 -26 46 -68 60 -93 33 -58 72 -94 92 -87 47 18 -18 -50 -74 -78 -68 -34 -107 -86 -95 -126 11 -33 25 -21 25 20 0 34 5 44 33 65 19 15 37 26 41 26 3 0 22 10 41 23 43 27 75 98 81 176 3 54 3 54 -6 14 -13 -60 -38 -105 -57 -101 -9 2 -36 32 -59 68 -69 106 -104 150 -117 150 -7 0 -31 -37 -55 -83z"/>
 <path d="M943 1600 c-27 -11 -113 -95 -113 -110 0 -5 17 7 38 28 21 20 53 45 70 55 31 17 31 17 25 0 -6 -16 -5 -16 10 -4 14 11 17 11 17 0 0 -12 2 -12 9 0 7 11 11 10 20 -5 9 -17 10 -17 11 -1 0 9 3 17 7 17 20 0 97 -56 114 -83 10 -18 19 -27 19 -20 0 17 -49 72 -94 104 -41 30 -89 37 -133 19z"/>
 <path d="M1430 953 c-7 -21 -15 -120 -19 -219 -11 -257 -6 -251 -206 -273 -64 -7 -116 -20 -180 -47 -109 -44 -195 -54 -276 -31 -66 20 -135 63 -144 91 -3 12 -8 109 -11 216 -4 146 -9 207 -21 243 -9 26 -20 47 -24 47 -15 0 -39 -53 -84 -190 -27 -80 -55 -155 -63 -167 -13 -20 -12 -23 1 -23 14 0 13 -8 -5 -61 l-20 -60 25 -27 c19 -20 24 -34 20 -55 -4 -20 0 -35 14 -50 11 -12 30 -48 43 -80 14 -35 35 -67 51 -80 16 -11 29 -26 29 -33 0 -15 15 -20 105 -34 39 -6 95 -18 126 -25 80 -21 125 -19 194 10 71 29 86 30 130 9 32 -15 37 -15 102 11 206 82 273 148 273 269 0 22 12 63 28 95 25 51 27 65 26 166 -1 95 -5 121 -31 197 -17 47 -40 98 -51 113 l-21 26 -11 -38z m-906 -103 c-8 -47 -21 -105 -29 -130 -9 -25 -11 -46 -6 -48 5 -2 -2 -37 -16 -78 -26 -77 -25 -97 2 -74 13 11 15 7 15 -26 0 -22 -4 -54 -9 -72 -9 -30 -8 -32 14 -32 22 0 24 -5 27 -52 3 -52 4 -53 31 -50 25 3 28 0 23 -17 -3 -12 -9 -30 -12 -41 -7 -25 12 -26 38 -3 10 9 18 12 18 6 0 -5 6 -17 13 -27 12 -16 17 -15 77 13 75 36 95 39 85 13 -4 -9 -10 -25 -13 -36 -5 -17 -3 -17 19 -3 13 8 39 18 57 22 28 6 32 4 32 -14 0 -12 2 -21 5 -21 3 0 42 25 87 55 45 30 83 53 85 51 2 -2 -4 -19 -12 -40 l-15 -36 55 31 55 31 0 -28 0 -27 23 20 c12 11 41 32 65 47 37 23 42 24 42 9 0 -13 12 -4 38 27 l39 44 7 -28 c6 -23 9 -26 21 -16 9 7 22 33 29 59 8 25 15 37 15 27 1 -32 12 -11 30 61 10 38 23 67 30 66 7 -2 11 14 11 43 0 27 4 43 10 39 13 -8 13 -5 -5 46 -11 31 -12 45 -4 50 7 4 8 15 3 30 -4 13 -8 35 -9 49 -1 14 -4 41 -8 60 -6 27 -5 30 3 13 20 -48 42 -199 37 -259 -2 -36 -15 -86 -31 -119 -14 -32 -26 -74 -26 -94 -1 -49 -30 -111 -70 -145 -18 -15 -82 -52 -142 -82 -102 -51 -110 -54 -131 -39 -32 22 -97 19 -151 -9 -44 -22 -54 -23 -114 -15 -37 5 -80 14 -96 19 -16 6 -61 13 -100 16 -67 6 -73 9 -110 48 -21 22 -49 66 -63 96 -14 30 -33 64 -44 76 -15 16 -17 26 -10 45 7 20 4 29 -17 52 l-26 27 22 62 c15 40 19 64 12 68 -6 4 -3 20 9 46 19 40 47 125 76 228 9 32 18 56 20 54 2 -2 -3 -41 -11 -88z"/>
 <path d="M765 900 c-8 -14 3 -30 21 -30 8 0 14 9 14 20 0 21 -24 28 -35 10z"/>
 <path d="M1195 900 c-8 -13 3 -30 20 -30 14 0 27 24 18 34 -10 9 -31 7 -38 -4z"/>
 <path d="M646 871 c-20 -22 -18 -24 53 -45 59 -17 109 -11 146 19 18 15 17 15 -12 0 -40 -19 -93 -19 -139 0 -25 10 -34 20 -30 30 7 20 3 19 -18 -4z"/>
 <path d="M1330 871 c0 -17 -62 -41 -107 -42 -34 0 -35 -1 -15 -10 25 -9 152 16 152 31 0 4 -7 13 -15 20 -11 9 -15 9 -15 1z"/>
 </g>
<g id="layer117" fill="#463936" stroke="none">
 <path d="M120 1982 c0 -50 34 -127 76 -172 57 -61 115 -86 255 -107 64 -10 117 -23 123 -31 6 -7 24 -25 40 -40 16 -15 44 -59 62 -98 18 -40 38 -75 45 -79 6 -4 10 -4 7 1 -58 126 -80 165 -101 179 -32 20 -40 41 -26 66 9 18 8 19 -9 8 -26 -16 -237 23 -302 56 -76 39 -129 111 -146 200 -7 36 -24 48 -24 17z"/>
 <path d="M982 1940 c1 -61 1 -62 8 -20 6 43 13 42 23 -5 3 -11 5 -2 6 20 1 42 -18 90 -20 50 l0 -20 -9 20 c-6 14 -8 0 -8 -45z"/>
 <path d="M1860 1988 c0 -31 -61 -137 -101 -175 -56 -54 -109 -77 -238 -102 -122 -25 -121 -25 -121 -7 0 13 -80 139 -103 161 -15 15 0 -11 50 -84 24 -35 43 -75 43 -88 0 -15 -17 -44 -44 -74 -26 -29 -48 -66 -56 -94 -7 -25 -17 -48 -21 -51 -5 -3 -9 -11 -9 -17 1 -17 40 32 40 50 0 26 38 88 78 126 35 34 50 40 153 63 188 42 266 89 312 187 30 64 43 117 28 117 -6 0 -11 -6 -11 -12z"/>
 <path d="M1016 1825 c12 -122 29 -147 163 -237 37 -25 41 -32 41 -68 0 -41 14 -54 25 -21 13 41 -13 74 -124 154 -47 34 -62 57 -39 57 17 0 47 31 74 75 12 20 3 14 -25 -17 -23 -27 -47 -48 -52 -48 -13 0 -49 75 -59 123 -8 36 -8 33 -4 -18z"/>
 <path d="M957 1779 c-22 -60 -43 -72 -70 -38 -11 13 -31 38 -44 54 l-25 30 18 -32 c27 -48 62 -83 84 -83 11 0 20 -5 20 -12 0 -16 10 -4 15 18 2 11 9 39 15 63 15 60 8 60 -13 0z"/>
 <path d="M920 1666 c-6 -8 -33 -25 -58 -37 -80 -38 -120 -87 -107 -130 11 -33 24 -21 27 24 3 40 7 44 68 84 62 41 101 73 88 73 -3 0 -11 -7 -18 -14z"/>
 <path d="M943 1600 c-27 -11 -113 -95 -113 -110 0 -5 17 7 38 28 21 20 53 45 70 55 31 17 31 17 25 0 -6 -16 -5 -16 10 -4 14 11 17 11 17 0 0 -12 2 -12 9 0 7 11 11 10 20 -5 9 -17 10 -17 11 -1 0 9 3 17 7 17 20 0 97 -56 114 -83 10 -18 19 -27 19 -20 0 17 -49 72 -94 104 -41 30 -89 37 -133 19z"/>
 <path d="M1430 953 c-7 -21 -15 -120 -19 -219 -11 -257 -6 -251 -206 -273 -64 -7 -116 -20 -180 -47 -109 -44 -195 -54 -276 -31 -66 20 -135 63 -144 91 -3 12 -8 109 -11 216 -4 146 -9 207 -21 243 -9 26 -20 47 -24 47 -15 0 -39 -53 -84 -190 -27 -80 -55 -155 -63 -167 -13 -20 -12 -23 1 -23 14 0 13 -8 -5 -61 l-20 -60 25 -27 c19 -20 24 -34 20 -55 -4 -20 0 -35 14 -50 11 -12 30 -48 43 -80 14 -35 35 -67 51 -80 16 -11 29 -26 29 -33 0 -15 15 -20 105 -34 39 -6 95 -18 126 -25 80 -21 125 -19 194 10 71 29 86 30 130 9 32 -15 37 -15 102 11 206 82 273 148 273 269 0 22 12 63 28 95 25 51 27 65 26 166 -1 95 -5 121 -31 197 -17 47 -40 98 -51 113 l-21 26 -11 -38z m-906 -103 c-8 -47 -21 -105 -29 -130 -9 -25 -11 -46 -6 -48 5 -2 -2 -37 -16 -78 -26 -77 -25 -97 2 -74 13 11 15 7 15 -26 0 -22 -4 -54 -9 -72 -9 -30 -8 -32 14 -32 22 0 24 -5 27 -52 3 -52 4 -53 31 -50 25 3 28 0 23 -17 -3 -12 -9 -30 -12 -41 -7 -25 12 -26 38 -3 10 9 18 12 18 6 0 -5 6 -17 13 -27 12 -16 17 -15 77 13 75 36 95 39 85 13 -4 -9 -10 -25 -13 -36 -5 -17 -3 -17 19 -3 13 8 39 18 57 22 28 6 32 4 32 -14 0 -12 2 -21 5 -21 3 0 42 25 87 55 45 30 83 53 85 51 2 -2 -4 -19 -12 -40 l-15 -36 55 31 55 31 0 -28 0 -27 23 20 c12 11 41 32 65 47 37 23 42 24 42 9 0 -13 12 -4 38 27 l39 44 7 -28 c6 -23 9 -26 21 -16 9 7 22 33 29 59 8 25 15 37 15 27 1 -32 12 -11 30 61 10 38 23 67 30 66 7 -2 11 14 11 43 0 27 4 43 10 39 13 -8 13 -5 -5 46 -11 31 -12 45 -4 50 7 4 8 15 3 30 -4 13 -8 35 -9 49 -1 14 -4 41 -8 60 -6 27 -5 30 3 13 20 -48 42 -199 37 -259 -2 -36 -15 -86 -31 -119 -14 -32 -26 -74 -26 -94 -1 -49 -30 -111 -70 -145 -18 -15 -82 -52 -142 -82 -102 -51 -110 -54 -131 -39 -32 22 -97 19 -151 -9 -44 -22 -54 -23 -114 -15 -37 5 -80 14 -96 19 -16 6 -61 13 -100 16 -67 6 -73 9 -110 48 -21 22 -49 66 -63 96 -14 30 -33 64 -44 76 -15 16 -17 26 -10 45 7 20 4 29 -17 52 l-26 27 22 62 c15 40 19 64 12 68 -6 4 -3 20 9 46 19 40 47 125 76 228 9 32 18 56 20 54 2 -2 -3 -41 -11 -88z"/>
 <path d="M764 899 c-10 -17 13 -36 27 -22 12 12 4 33 -11 33 -5 0 -12 -5 -16 -11z"/>
 <path d="M1200 890 c0 -11 7 -20 15 -20 8 0 15 9 15 20 0 11 -7 20 -15 20 -8 0 -15 -9 -15 -20z"/>
 <path d="M646 871 c-20 -22 -18 -24 53 -45 59 -17 109 -11 146 19 18 15 17 15 -12 0 -40 -19 -93 -19 -139 0 -25 10 -34 20 -30 30 7 20 3 19 -18 -4z"/>
 <path d="M1330 871 c0 -17 -62 -41 -107 -42 -34 0 -35 -1 -15 -10 25 -9 152 16 152 31 0 4 -7 13 -15 20 -11 9 -15 9 -15 1z"/>
 </g>
<g id="layer118" fill="#2c3851" stroke="none">
 <path d="M120 1982 c0 -50 34 -127 76 -172 57 -61 115 -86 255 -107 64 -10 117 -23 123 -31 6 -7 24 -25 40 -40 16 -15 44 -59 62 -98 18 -40 38 -75 45 -79 6 -4 10 -4 7 1 -58 126 -80 165 -101 179 -32 20 -40 41 -26 66 9 18 8 19 -9 8 -26 -16 -237 23 -302 56 -76 39 -129 111 -146 200 -7 36 -24 48 -24 17z"/>
 <path d="M982 1940 c1 -61 1 -62 8 -20 6 43 13 42 23 -5 3 -11 5 -2 6 20 1 42 -18 90 -20 50 l0 -20 -9 20 c-6 14 -8 0 -8 -45z"/>
 <path d="M1860 1988 c0 -31 -61 -137 -101 -175 -56 -54 -109 -77 -238 -102 -122 -25 -121 -25 -121 -7 0 13 -80 139 -103 161 -15 15 0 -11 50 -84 24 -35 43 -75 43 -88 0 -15 -17 -44 -44 -74 -26 -29 -48 -66 -56 -94 -7 -25 -17 -48 -21 -51 -5 -3 -9 -11 -9 -17 1 -17 40 32 40 50 0 26 38 88 78 126 35 34 50 40 153 63 188 42 266 89 312 187 30 64 43 117 28 117 -6 0 -11 -6 -11 -12z"/>
 <path d="M1016 1825 c12 -122 29 -147 163 -237 37 -25 41 -32 41 -68 0 -41 14 -54 25 -21 13 41 -13 74 -124 154 -47 34 -62 57 -39 57 17 0 47 31 74 75 12 20 3 14 -25 -17 -23 -27 -47 -48 -52 -48 -13 0 -49 75 -59 123 -8 36 -8 33 -4 -18z"/>
 <path d="M957 1779 c-22 -60 -43 -72 -70 -38 -11 13 -31 38 -44 54 l-25 30 18 -32 c27 -48 62 -83 84 -83 11 0 20 -5 20 -12 0 -16 10 -4 15 18 2 11 9 39 15 63 15 60 8 60 -13 0z"/>
 <path d="M920 1666 c-6 -8 -33 -25 -58 -37 -80 -38 -120 -87 -107 -130 11 -33 24 -21 27 24 3 40 7 44 68 84 62 41 101 73 88 73 -3 0 -11 -7 -18 -14z"/>
 <path d="M970 1594 c0 -8 5 -12 10 -9 6 3 10 0 10 -7 0 -8 3 -9 8 -3 4 6 13 11 20 13 15 3 68 -23 96 -47 11 -9 16 -10 12 -4 -4 7 -27 26 -51 43 -48 33 -105 41 -105 14z"/>
 <path d="M925 1581 c-16 -10 -43 -33 -60 -52 l-30 -33 40 34 c22 19 51 43 65 52 34 23 22 22 -15 -1z"/>
 <path d="M1429 953 c-6 -21 -13 -110 -16 -198 -6 -254 -16 -273 -144 -286 -120 -11 -142 -16 -259 -61 -96 -37 -110 -40 -180 -36 -74 4 -155 33 -204 72 -24 19 -36 127 -35 304 0 104 -3 144 -17 182 -10 28 -21 50 -25 50 -15 0 -39 -53 -84 -190 -27 -80 -55 -155 -63 -167 -13 -20 -12 -23 1 -23 14 0 13 -8 -5 -61 l-20 -60 25 -27 c19 -20 24 -34 20 -55 -4 -20 0 -35 14 -50 11 -12 30 -48 43 -80 14 -35 35 -67 51 -80 16 -11 29 -26 29 -33 0 -15 15 -20 105 -34 39 -6 95 -18 126 -25 80 -21 125 -19 194 10 71 29 86 30 130 9 32 -15 37 -15 102 11 206 82 273 148 273 269 0 22 12 63 28 95 24 50 27 67 27 161 0 77 -5 120 -19 160 -31 91 -49 134 -67 158 l-18 23 -12 -38z m-896 -80 c-13 -84 -27 -145 -40 -180 -4 -10 -2 -14 5 -9 12 7 8 -11 -22 -97 -21 -63 -21 -70 5 -56 22 11 22 10 15 -51 -4 -34 -9 -67 -12 -75 -4 -9 0 -12 14 -8 22 5 32 -18 32 -81 0 -31 3 -37 12 -28 26 26 41 14 35 -28 -6 -44 -2 -48 23 -25 16 14 18 13 30 -15 l13 -30 41 24 c41 23 116 49 124 42 2 -3 -2 -14 -8 -26 -15 -27 -9 -33 21 -22 13 5 37 12 53 16 26 6 28 5 23 -14 -7 -28 0 -25 98 39 43 28 80 50 82 48 2 -2 -4 -21 -12 -41 l-16 -37 38 25 c42 29 70 33 75 11 2 -11 16 -5 57 22 37 25 55 32 61 24 5 -8 17 -1 39 24 31 36 51 39 51 8 0 -30 27 6 40 53 7 25 16 40 20 34 8 -12 40 92 40 129 0 12 4 19 10 16 6 -4 10 8 10 30 0 22 4 34 10 30 14 -9 13 5 -5 55 -18 51 -18 53 -3 44 11 -7 9 10 -8 50 -5 13 -4 17 3 13 6 -4 3 23 -8 65 -19 74 -18 103 2 52 22 -59 49 -201 49 -265 0 -48 -8 -90 -30 -152 -16 -48 -30 -98 -30 -112 0 -78 -66 -144 -215 -216 -99 -49 -105 -50 -127 -35 -34 24 -95 20 -155 -11 l-53 -26 -87 18 c-49 10 -126 23 -172 29 -71 9 -85 15 -92 32 -4 12 -15 24 -24 28 -9 3 -32 39 -50 79 -19 41 -41 80 -50 87 -11 9 -14 22 -10 44 5 25 1 36 -18 54 l-25 24 24 59 c28 69 28 69 9 69 -14 0 -14 2 0 23 16 26 69 173 80 226 8 35 33 101 39 101 2 0 -3 -39 -11 -87z m925 -108 l1 -20 -9 20 c-5 11 -8 31 -8 45 l0 25 8 -25 c4 -14 8 -34 8 -45z m-924 -224 c-4 -22 -1 -54 5 -72 6 -18 9 -34 7 -37 -11 -10 -28 79 -22 112 9 49 18 46 10 -3z m861 -91 c-3 -6 -19 -17 -36 -25 -41 -22 -193 -75 -182 -64 5 5 45 22 89 37 44 15 91 36 104 45 28 20 34 21 25 7z m-315 -106 c-141 -61 -150 -64 -150 -58 0 6 162 82 200 94 67 21 44 5 -50 -36z m-405 -24 c-11 -5 -27 -9 -35 -9 -9 0 -8 4 5 9 11 5 27 9 35 9 9 0 8 -4 -5 -9z m196 -10 c-48 -11 -167 -23 -160 -16 8 8 112 23 159 24 l35 0 -34 -8z"/>
 <path d="M764 899 c-10 -17 13 -36 27 -22 12 12 4 33 -11 33 -5 0 -12 -5 -16 -11z"/>
 <path d="M1200 890 c0 -11 7 -20 15 -20 8 0 15 9 15 20 0 11 -7 20 -15 20 -8 0 -15 -9 -15 -20z"/>
 <path d="M646 871 c-20 -22 -18 -24 53 -45 59 -17 109 -11 146 19 18 15 17 15 -12 0 -40 -19 -93 -19 -139 0 -25 10 -34 20 -30 30 7 20 3 19 -18 -4z"/>
 <path d="M1330 871 c0 -17 -62 -41 -107 -42 -34 0 -35 -1 -15 -10 25 -9 152 16 152 31 0 4 -7 13 -15 20 -11 9 -15 9 -15 1z"/>
 </g>
<g id="layer119" fill="#5f2a18" stroke="none">
 <path d="M120 1982 c0 -50 34 -127 76 -172 57 -61 115 -86 255 -107 64 -10 117 -23 123 -31 6 -7 24 -25 40 -40 16 -15 44 -59 62 -98 18 -40 38 -75 45 -79 6 -4 10 -4 7 1 -58 126 -80 165 -101 179 -32 20 -40 41 -26 66 9 18 8 19 -9 8 -16 -10 -43 -8 -138 10 -145 27 -210 56 -251 113 -29 41 -63 123 -63 153 0 8 -4 15 -10 15 -5 0 -10 -8 -10 -18z"/>
 <path d="M982 1945 c1 -55 1 -56 8 -20 6 39 13 36 23 -10 3 -11 5 -2 6 20 1 42 -18 90 -20 50 l0 -20 -9 20 c-6 14 -8 2 -8 -40z"/>
 <path d="M1860 1988 c0 -7 -13 -40 -29 -73 -34 -71 -98 -136 -161 -164 -36 -16 -228 -61 -259 -61 -4 0 -12 15 -19 33 -7 17 -26 48 -43 67 -28 32 -28 31 5 -19 47 -70 46 -92 -7 -151 -24 -26 -49 -68 -56 -91 -7 -24 -18 -50 -23 -56 -7 -9 -7 -13 1 -13 6 0 15 10 20 23 33 85 50 112 92 152 27 25 56 45 65 45 32 0 234 52 234 60 0 4 22 17 49 29 54 23 95 65 121 126 25 57 34 105 21 105 -6 0 -11 -6 -11 -12z"/>
 <path d="M957 1780 c-22 -61 -42 -73 -70 -39 -11 13 -31 38 -45 54 l-25 30 18 -30 c27 -46 67 -85 87 -85 10 0 18 -6 19 -12 0 -7 9 16 20 52 23 80 21 99 -4 30z"/>
 <path d="M1024 1782 c10 -69 41 -120 94 -152 90 -55 102 -68 102 -111 0 -41 14 -53 25 -20 13 41 -13 74 -124 154 -47 34 -62 57 -39 57 17 0 47 31 74 75 12 20 3 14 -25 -17 -23 -27 -47 -48 -52 -48 -6 0 -21 24 -35 53 l-26 52 6 -43z"/>
 <path d="M920 1666 c-6 -8 -33 -25 -58 -37 -80 -38 -120 -87 -107 -130 9 -29 25 -12 25 25 0 37 20 58 91 99 40 23 80 57 66 57 -2 0 -10 -7 -17 -14z"/>
 <path d="M970 1594 c0 -8 5 -12 10 -9 6 3 10 0 10 -7 0 -8 3 -9 8 -3 4 6 13 11 20 13 15 3 68 -23 96 -47 11 -9 16 -10 12 -4 -4 7 -27 26 -51 43 -48 33 -105 41 -105 14z"/>
 <path d="M925 1581 c-16 -10 -43 -33 -60 -52 l-30 -33 40 34 c22 19 51 43 65 52 34 23 22 22 -15 -1z"/>
 <path d="M1429 953 c-6 -21 -13 -110 -16 -198 -6 -254 -16 -273 -144 -286 -120 -11 -142 -16 -259 -61 -96 -37 -110 -40 -180 -36 -74 4 -155 33 -204 72 -24 19 -36 127 -35 304 0 104 -3 144 -17 182 -10 28 -21 50 -25 50 -15 0 -39 -53 -84 -190 -27 -80 -55 -155 -63 -167 -13 -20 -12 -23 1 -23 14 0 13 -8 -5 -61 l-20 -60 25 -27 c19 -20 24 -34 20 -55 -4 -20 0 -35 14 -50 11 -12 30 -48 43 -80 14 -35 35 -67 51 -80 16 -11 29 -26 29 -33 0 -15 15 -20 105 -34 39 -6 95 -18 126 -25 80 -21 125 -19 194 10 71 29 86 30 130 9 32 -15 37 -15 102 11 206 82 273 148 273 269 0 22 12 63 28 95 24 50 27 67 27 161 0 77 -5 120 -19 160 -31 91 -49 134 -67 158 l-18 23 -12 -38z m-896 -80 c-13 -84 -27 -145 -40 -180 -4 -10 -2 -14 5 -9 12 7 8 -11 -22 -97 -21 -63 -21 -70 5 -56 22 11 22 10 15 -51 -4 -34 -9 -67 -12 -75 -4 -9 0 -12 14 -8 22 5 32 -18 32 -81 0 -31 3 -37 12 -28 26 26 41 14 35 -28 -6 -44 -2 -48 23 -25 16 14 18 13 30 -15 l13 -30 41 24 c41 23 116 49 124 42 2 -3 -2 -14 -8 -26 -15 -27 -9 -33 21 -22 13 5 37 12 53 16 26 6 28 5 23 -14 -7 -28 0 -25 98 39 43 28 80 50 82 48 2 -2 -4 -21 -12 -41 l-16 -37 38 25 c42 29 70 33 75 11 2 -11 16 -5 57 22 37 25 55 32 61 24 5 -8 17 -1 39 24 31 36 51 39 51 8 0 -30 27 6 40 53 7 25 16 40 20 34 8 -12 40 92 40 129 0 12 4 19 10 16 6 -4 10 8 10 30 0 22 4 34 10 30 14 -9 13 5 -5 55 -18 51 -18 53 -3 44 11 -7 9 10 -8 50 -5 13 -4 17 3 13 6 -4 3 23 -8 65 -19 74 -18 103 2 52 22 -59 49 -201 49 -265 0 -48 -8 -90 -30 -152 -16 -48 -30 -98 -30 -112 0 -78 -66 -144 -215 -216 -99 -49 -105 -50 -127 -35 -34 24 -95 20 -155 -11 l-53 -26 -87 18 c-49 10 -126 23 -172 29 -71 9 -85 15 -92 32 -4 12 -15 24 -24 28 -9 3 -32 39 -50 79 -19 41 -41 80 -50 87 -11 9 -14 22 -10 44 5 25 1 36 -18 54 l-25 24 24 59 c28 69 28 69 9 69 -14 0 -14 2 0 23 16 26 69 173 80 226 8 35 33 101 39 101 2 0 -3 -39 -11 -87z m925 -108 l1 -20 -9 20 c-5 11 -8 31 -8 45 l0 25 8 -25 c4 -14 8 -34 8 -45z m-924 -224 c-4 -22 -1 -54 5 -72 6 -18 9 -34 7 -37 -11 -10 -28 79 -22 112 9 49 18 46 10 -3z m861 -91 c-3 -6 -19 -17 -36 -25 -41 -22 -193 -75 -182 -64 5 5 45 22 89 37 44 15 91 36 104 45 28 20 34 21 25 7z m-315 -106 c-141 -61 -150 -64 -150 -58 0 6 162 82 200 94 67 21 44 5 -50 -36z m-405 -24 c-11 -5 -27 -9 -35 -9 -9 0 -8 4 5 9 11 5 27 9 35 9 9 0 8 -4 -5 -9z m196 -10 c-48 -11 -167 -23 -160 -16 8 8 112 23 159 24 l35 0 -34 -8z"/>
 <path d="M764 899 c-10 -17 13 -36 27 -22 12 12 4 33 -11 33 -5 0 -12 -5 -16 -11z"/>
 <path d="M1205 900 c-4 -6 -3 -16 3 -22 6 -6 12 -6 17 2 4 6 3 16 -3 22 -6 6 -12 6 -17 -2z"/>
 <path d="M646 871 c-20 -22 -18 -24 53 -45 59 -17 109 -11 146 19 18 15 17 15 -12 0 -40 -19 -93 -19 -139 0 -25 10 -34 20 -30 30 7 20 3 19 -18 -4z"/>
 <path d="M1330 871 c0 -17 -62 -41 -107 -42 -34 0 -35 -1 -15 -10 25 -9 152 16 152 31 0 4 -7 13 -15 20 -11 9 -15 9 -15 1z"/>
 </g>
<g id="layer120" fill="#3e302d" stroke="none">
 <path d="M120 1982 c0 -50 34 -127 76 -172 57 -61 115 -86 255 -107 64 -10 117 -23 123 -31 6 -7 24 -25 40 -40 16 -15 44 -59 62 -98 18 -40 38 -75 45 -79 6 -4 10 -4 7 1 -58 126 -80 165 -101 179 -32 20 -40 41 -26 66 9 18 8 19 -9 8 -16 -10 -43 -8 -138 10 -145 27 -210 56 -251 113 -29 41 -63 123 -63 153 0 8 -4 15 -10 15 -5 0 -10 -8 -10 -18z"/>
 <path d="M982 1945 c1 -55 1 -56 8 -20 6 39 13 36 23 -10 3 -11 5 -2 6 20 1 42 -18 90 -20 50 l0 -20 -9 20 c-6 14 -8 2 -8 -40z"/>
 <path d="M1860 1988 c0 -7 -13 -40 -29 -73 -34 -71 -98 -136 -161 -164 -36 -16 -228 -61 -259 -61 -4 0 -12 15 -19 33 -7 17 -26 48 -43 67 -28 32 -28 31 5 -19 47 -70 46 -92 -7 -151 -24 -26 -49 -68 -56 -91 -7 -24 -18 -50 -23 -56 -7 -9 -7 -13 1 -13 6 0 15 10 20 23 33 85 50 112 92 152 27 25 56 45 65 45 32 0 234 52 234 60 0 4 22 17 49 29 54 23 95 65 121 126 25 57 34 105 21 105 -6 0 -11 -6 -11 -12z"/>
 <path d="M957 1780 c-22 -61 -42 -73 -70 -39 -11 13 -31 38 -45 54 l-25 30 18 -30 c27 -46 67 -85 87 -85 10 0 18 -6 19 -12 0 -7 9 16 20 52 23 80 21 99 -4 30z"/>
 <path d="M1024 1782 c10 -69 41 -120 94 -152 90 -55 102 -68 102 -111 0 -41 14 -53 25 -20 13 41 -13 74 -124 154 -47 34 -62 57 -39 57 17 0 47 31 74 75 12 20 3 14 -25 -17 -23 -27 -47 -48 -52 -48 -6 0 -21 24 -35 53 l-26 52 6 -43z"/>
 <path d="M920 1666 c-6 -8 -33 -25 -58 -37 -80 -38 -120 -87 -107 -130 9 -29 25 -12 25 25 0 37 20 58 91 99 40 23 80 57 66 57 -2 0 -10 -7 -17 -14z"/>
 <path d="M970 1594 c0 -8 5 -12 10 -9 6 3 10 0 10 -7 0 -8 3 -9 8 -3 4 6 13 11 20 13 15 3 68 -23 96 -47 11 -9 16 -10 12 -4 -4 7 -27 26 -51 43 -48 33 -105 41 -105 14z"/>
 <path d="M925 1581 c-16 -10 -43 -33 -60 -52 l-30 -33 40 34 c22 19 51 43 65 52 34 23 22 22 -15 -1z"/>
 <path d="M1429 953 c-6 -21 -13 -110 -16 -198 -6 -254 -16 -273 -144 -286 -120 -11 -142 -16 -259 -61 -96 -37 -110 -40 -180 -36 -74 4 -155 33 -204 72 -24 19 -36 127 -35 304 0 104 -3 144 -17 182 -10 28 -21 50 -26 50 -14 0 -45 -72 -89 -205 -23 -71 -49 -140 -57 -152 -13 -20 -12 -23 1 -23 14 0 13 -8 -5 -61 l-20 -60 25 -27 c19 -20 24 -34 20 -55 -4 -20 0 -35 14 -50 11 -12 30 -48 43 -80 14 -35 35 -67 51 -80 16 -11 29 -26 29 -33 0 -15 15 -20 105 -34 39 -6 95 -18 126 -25 80 -21 125 -19 194 10 71 29 86 30 130 9 32 -15 37 -15 102 11 206 82 273 148 273 269 0 22 12 63 28 95 24 50 27 67 27 161 0 77 -5 120 -19 160 -31 91 -49 134 -67 158 l-18 23 -12 -38z m-896 -80 c-13 -84 -27 -145 -40 -180 -4 -10 -2 -14 5 -9 12 7 8 -11 -22 -97 -21 -63 -21 -70 5 -56 22 11 22 10 15 -51 -4 -34 -9 -67 -12 -75 -4 -9 0 -12 14 -8 22 5 32 -18 32 -81 0 -31 3 -37 12 -28 26 26 41 14 35 -28 -6 -44 -2 -48 23 -25 16 14 18 13 30 -15 l13 -30 41 24 c41 23 116 49 124 42 2 -3 -2 -14 -8 -26 -15 -27 -9 -33 21 -22 13 5 37 12 53 16 26 6 28 5 23 -14 -7 -28 0 -25 98 39 43 28 80 50 82 48 2 -2 -4 -21 -12 -41 l-16 -37 38 25 c42 29 70 33 75 11 2 -11 16 -5 57 22 37 25 55 32 61 24 5 -8 17 -1 39 24 31 36 51 39 51 8 0 -30 27 6 40 53 7 25 16 40 20 34 8 -12 40 92 40 129 0 12 4 19 10 16 6 -4 10 8 10 30 0 22 4 34 10 30 14 -9 13 5 -5 55 -18 51 -18 53 -3 44 11 -7 9 10 -8 50 -5 13 -4 17 3 13 6 -4 3 23 -8 65 -19 74 -18 103 2 52 22 -59 49 -201 49 -265 0 -48 -8 -90 -30 -152 -16 -48 -30 -98 -30 -112 0 -78 -66 -144 -215 -216 -99 -49 -105 -50 -127 -35 -34 24 -95 20 -155 -11 l-53 -26 -87 18 c-49 10 -126 23 -172 29 -71 9 -85 15 -92 32 -4 12 -15 24 -24 28 -9 3 -32 39 -50 79 -19 41 -41 80 -50 87 -11 9 -14 22 -10 44 5 25 1 36 -18 54 l-25 24 24 59 c28 69 28 69 9 69 -14 0 -14 2 0 23 16 26 69 173 80 226 8 35 33 101 39 101 2 0 -3 -39 -11 -87z m925 -108 l1 -20 -9 20 c-5 11 -8 31 -8 45 l0 25 8 -25 c4 -14 8 -34 8 -45z m-924 -224 c-4 -22 -1 -54 5 -72 6 -18 9 -34 7 -37 -11 -10 -28 79 -22 112 9 49 18 46 10 -3z m861 -91 c-3 -6 -19 -17 -36 -25 -41 -22 -193 -75 -182 -64 5 5 45 22 89 37 44 15 91 36 104 45 28 20 34 21 25 7z m-315 -106 c-141 -61 -150 -64 -150 -58 0 6 162 82 200 94 67 21 44 5 -50 -36z m-405 -24 c-11 -5 -27 -9 -35 -9 -9 0 -8 4 5 9 11 5 27 9 35 9 9 0 8 -4 -5 -9z m196 -10 c-48 -11 -167 -23 -160 -16 8 8 112 23 159 24 l35 0 -34 -8z"/>
 <path d="M764 899 c-10 -17 13 -36 27 -22 12 12 4 33 -11 33 -5 0 -12 -5 -16 -11z"/>
 <path d="M1205 900 c-4 -6 -3 -16 3 -22 6 -6 12 -6 17 2 4 6 3 16 -3 22 -6 6 -12 6 -17 -2z"/>
 </g>
<g id="layer121" fill="#06344b" stroke="none">
 <path d="M120 1982 c0 -50 34 -127 76 -172 57 -61 115 -86 255 -107 64 -10 117 -23 123 -31 6 -7 24 -25 40 -40 16 -15 44 -59 62 -98 18 -40 38 -75 45 -79 6 -4 10 -4 7 1 -58 126 -80 165 -101 179 -32 20 -40 41 -26 66 9 18 8 19 -9 8 -16 -10 -43 -8 -138 10 -145 27 -210 56 -251 113 -29 41 -63 123 -63 153 0 8 -4 15 -10 15 -5 0 -10 -8 -10 -18z"/>
 <path d="M982 1945 c1 -55 1 -56 8 -20 6 39 13 36 23 -10 3 -11 5 -2 6 20 1 42 -18 90 -20 50 l0 -20 -9 20 c-6 14 -8 2 -8 -40z"/>
 <path d="M1860 1988 c0 -7 -13 -40 -29 -73 -34 -71 -98 -136 -161 -164 -36 -16 -228 -61 -259 -61 -4 0 -12 15 -19 33 -7 17 -26 48 -43 67 -28 32 -28 31 5 -19 47 -70 46 -92 -7 -151 -24 -26 -49 -68 -56 -91 -7 -24 -18 -50 -23 -56 -7 -9 -7 -13 1 -13 6 0 15 10 20 23 33 85 50 112 92 152 27 25 56 45 65 45 32 0 234 52 234 60 0 4 22 17 49 29 54 23 95 65 121 126 25 57 34 105 21 105 -6 0 -11 -6 -11 -12z"/>
 <path d="M957 1780 c-22 -61 -42 -73 -70 -39 -11 13 -31 38 -45 54 l-25 30 18 -30 c27 -46 67 -85 87 -85 10 0 18 -6 19 -12 0 -7 9 16 20 52 23 80 21 99 -4 30z"/>
 <path d="M1024 1782 c10 -69 41 -120 94 -152 90 -55 102 -68 102 -111 0 -41 14 -53 25 -20 13 41 -13 74 -124 154 -47 34 -62 57 -39 57 17 0 47 31 74 75 12 20 3 14 -25 -17 -23 -27 -47 -48 -52 -48 -6 0 -21 24 -35 53 l-26 52 6 -43z"/>
 <path d="M920 1666 c-6 -8 -33 -25 -58 -37 -80 -38 -120 -87 -107 -130 9 -29 25 -12 25 25 0 37 20 58 91 99 40 23 80 57 66 57 -2 0 -10 -7 -17 -14z"/>
 <path d="M1440 988 c0 -4 10 -23 21 -43 34 -56 61 -171 66 -280 5 -91 3 -107 -20 -165 -14 -36 -28 -87 -32 -115 -14 -101 -53 -143 -207 -221 -60 -30 -108 -56 -108 -58 0 -2 31 9 68 24 198 81 262 145 262 264 0 22 12 63 28 95 24 50 27 67 27 161 0 104 -8 141 -52 251 -15 37 -53 99 -53 87z"/>
 <path d="M521 943 c-10 -21 -38 -96 -62 -168 -23 -71 -49 -140 -57 -152 -13 -20 -12 -23 1 -23 14 0 13 -8 -5 -61 l-20 -60 25 -27 c19 -20 24 -34 20 -55 -4 -20 0 -35 14 -50 11 -12 30 -48 43 -80 12 -32 34 -67 49 -78 14 -11 29 -28 33 -37 6 -15 7 -15 7 2 1 10 -11 27 -25 39 -14 11 -41 53 -59 93 -19 41 -39 74 -45 74 -8 0 -10 13 -5 39 5 33 3 41 -19 59 l-26 20 23 62 c17 49 19 64 9 67 -10 4 -10 9 1 27 15 23 77 195 77 214 0 6 10 37 22 69 20 52 22 56 29 33 12 -43 9 -212 -5 -272 -8 -37 -10 -58 -3 -61 6 -2 6 -21 -2 -55 -15 -62 0 -128 26 -117 13 4 15 -2 11 -39 l-5 -44 33 5 c37 6 40 2 23 -29 -10 -19 -9 -21 17 -15 71 16 78 17 64 11 -21 -9 -60 -46 -60 -57 0 -5 6 -5 13 2 17 14 124 37 211 46 l69 7 -23 -32 -23 -32 39 25 c49 32 173 86 239 103 l50 13 -30 -25 -30 -26 40 20 c22 10 66 27 97 37 31 10 65 26 74 36 23 26 37 24 29 -3 -4 -17 -1 -15 11 7 10 17 18 52 18 82 1 43 3 49 15 40 13 -11 12 23 -2 118 -1 6 3 9 10 8 9 -2 9 7 -2 36 -13 37 -19 78 -16 111 1 13 2 13 12 0 11 -17 2 75 -11 98 -13 26 -29 -94 -29 -221 -1 -132 -12 -199 -38 -229 -17 -19 -40 -24 -138 -33 -76 -7 -117 -18 -234 -62 -127 -47 -200 -48 -292 -5 -35 17 -72 37 -82 45 -26 21 -35 97 -36 285 0 139 -3 169 -20 207 -11 25 -22 45 -25 45 -3 0 -14 -17 -25 -37z"/>
 <path d="M764 899 c-10 -17 13 -36 27 -22 12 12 4 33 -11 33 -5 0 -12 -5 -16 -11z"/>
 <path d="M1205 900 c-4 -6 -3 -16 3 -22 6 -6 12 -6 17 2 4 6 3 16 -3 22 -6 6 -12 6 -17 -2z"/>
 <path d="M625 129 c28 -5 91 -19 140 -30 50 -10 110 -19 135 -18 l45 1 -57 9 c-31 4 -83 15 -115 23 -32 8 -89 17 -128 19 -66 5 -67 5 -20 -4z"/>
 <path d="M993 120 c-59 -26 -54 -32 7 -9 60 23 76 23 114 4 16 -9 31 -13 33 -11 9 9 -56 36 -84 36 -15 0 -47 -9 -70 -20z"/>
 </g>
<g id="layer122" fill="#2f211e" stroke="none">
 <path d="M1440 988 c0 -4 10 -23 21 -43 34 -56 61 -171 66 -280 5 -91 3 -107 -20 -165 -14 -36 -28 -87 -32 -115 -14 -101 -53 -143 -207 -221 -60 -30 -108 -56 -108 -58 0 -2 31 9 68 24 198 81 262 145 262 264 0 22 12 63 28 95 24 50 27 67 27 161 0 104 -8 141 -52 251 -15 37 -53 99 -53 87z"/>
 <path d="M521 943 c-10 -21 -38 -96 -62 -168 -23 -71 -49 -140 -57 -152 -13 -20 -12 -23 1 -23 14 0 13 -8 -5 -61 l-20 -60 25 -27 c19 -20 24 -34 20 -55 -4 -20 0 -35 14 -50 11 -12 30 -48 43 -80 12 -32 34 -67 49 -78 14 -11 29 -28 33 -37 6 -15 7 -15 7 2 1 10 -11 27 -25 39 -14 11 -41 53 -59 93 -19 41 -39 74 -45 74 -8 0 -10 13 -5 39 5 33 3 41 -19 59 l-26 20 23 62 c17 49 19 64 9 67 -10 4 -10 9 1 27 15 23 77 195 77 214 0 6 10 37 22 69 20 52 22 56 29 33 12 -43 9 -212 -5 -272 -8 -37 -10 -58 -3 -61 6 -2 6 -21 -2 -55 -15 -62 0 -128 26 -117 13 4 15 -2 11 -39 l-5 -44 33 5 c37 6 40 2 23 -29 -10 -19 -9 -21 17 -15 71 16 78 17 64 11 -21 -9 -60 -46 -60 -57 0 -5 6 -5 13 2 17 14 124 37 211 46 l69 7 -23 -32 -23 -32 39 25 c49 32 173 86 239 103 l50 13 -30 -25 -30 -26 40 20 c22 10 66 27 97 37 31 10 65 26 74 36 23 26 37 24 29 -3 -4 -17 -1 -15 11 7 10 17 18 52 18 82 1 43 3 49 15 40 13 -11 12 23 -2 118 -1 6 3 9 10 8 9 -2 9 7 -2 36 -13 37 -19 78 -16 111 1 13 2 13 12 0 11 -17 2 75 -11 98 -13 26 -29 -94 -29 -221 -1 -132 -12 -199 -38 -229 -17 -19 -40 -24 -138 -33 -76 -7 -117 -18 -234 -62 -127 -47 -200 -48 -292 -5 -35 17 -72 37 -82 45 -26 21 -35 97 -36 285 0 139 -3 169 -20 207 -11 25 -22 45 -25 45 -3 0 -14 -17 -25 -37z"/>
 <path d="M764 899 c-10 -17 13 -36 27 -22 12 12 4 33 -11 33 -5 0 -12 -5 -16 -11z"/>
 <path d="M1205 900 c-4 -6 -3 -16 3 -22 6 -6 12 -6 17 2 4 6 3 16 -3 22 -6 6 -12 6 -17 -2z"/>
 <path d="M625 129 c28 -5 91 -19 140 -30 50 -10 110 -19 135 -18 l45 1 -57 9 c-31 4 -83 15 -115 23 -32 8 -89 17 -128 19 -66 5 -67 5 -20 -4z"/>
 <path d="M993 120 c-59 -26 -54 -32 7 -9 60 23 76 23 114 4 16 -9 31 -13 33 -11 9 9 -56 36 -84 36 -15 0 -47 -9 -70 -20z"/>
 </g>
<g id="layer123" fill="#181f2f" stroke="none">
 <path d="M562 919 c5 -24 11 -120 13 -214 4 -180 13 -238 41 -264 15 -15 15 -14 0 10 -14 22 -32 170 -29 244 5 165 -2 234 -25 257 -7 7 -7 -4 0 -33z"/>
 <path d="M764 899 c-10 -17 13 -36 27 -22 12 12 4 33 -11 33 -5 0 -12 -5 -16 -11z"/>
 <path d="M1205 900 c-4 -6 -3 -16 3 -22 6 -6 12 -6 17 2 4 6 3 16 -3 22 -6 6 -12 6 -17 -2z"/>
 <path d="M1416 877 c-5 -16 -6 -63 -2 -105 8 -91 -8 -226 -29 -259 -21 -31 -55 -44 -135 -49 -77 -5 -156 -24 -239 -58 -135 -55 -220 -55 -325 -2 -25 13 -43 19 -39 13 11 -18 114 -57 166 -63 56 -6 131 11 263 60 48 17 107 29 175 35 97 8 104 10 130 39 17 18 32 52 38 84 14 64 11 349 -3 305z"/>
 <path d="M473 812 c-12 -31 -30 -82 -39 -112 -9 -30 -24 -66 -33 -80 -10 -15 -11 -21 -3 -16 19 12 47 73 77 169 31 100 30 124 -2 39z"/>
 <path d="M1515 805 c2 -16 9 -61 16 -98 13 -80 2 -161 -30 -228 -12 -24 -21 -56 -21 -72 0 -101 -61 -173 -204 -242 -53 -25 -96 -47 -96 -49 0 -7 105 36 161 65 64 35 127 94 136 130 3 13 8 47 10 74 3 28 17 75 31 105 24 50 27 66 27 165 -1 83 -5 119 -18 145 -17 35 -17 35 -12 5z"/>
 <path d="M400 545 l-22 -67 26 -27 c18 -18 24 -34 20 -51 -4 -22 -3 -23 5 -5 14 30 13 34 -15 60 l-26 24 23 61 c12 33 19 63 16 66 -3 3 -15 -25 -27 -61z"/>
 <path d="M436 348 c12 -13 31 -49 43 -80 13 -31 34 -65 48 -75 14 -10 29 -27 33 -38 6 -14 9 -15 9 -4 1 8 -15 30 -34 49 -19 19 -35 38 -35 43 0 21 -52 116 -68 122 -13 5 -13 2 4 -17z"/>
 <path d="M626 128 c3 -4 17 -8 32 -8 15 0 64 -9 110 -20 46 -11 104 -19 130 -19 46 2 46 2 -13 9 -33 4 -78 12 -101 18 -58 17 -164 30 -158 20z"/>
 <path d="M1013 127 c-17 -7 -35 -15 -39 -20 -10 -10 58 13 71 24 11 11 8 11 -32 -4z"/>
 </g>
<g id="layer124" fill="#281a18" stroke="none">
 <path d="M562 919 c5 -24 11 -120 13 -214 4 -180 13 -238 41 -264 15 -15 15 -14 0 10 -14 22 -32 170 -29 244 5 165 -2 234 -25 257 -7 7 -7 -4 0 -33z"/>
 <path d="M770 890 c0 -5 7 -10 15 -10 8 0 15 5 15 10 0 6 -7 10 -15 10 -8 0 -15 -4 -15 -10z"/>
 <path d="M1200 890 c0 -5 7 -10 15 -10 8 0 15 5 15 10 0 6 -7 10 -15 10 -8 0 -15 -4 -15 -10z"/>
 <path d="M1416 877 c-5 -16 -6 -63 -2 -105 8 -91 -8 -226 -29 -259 -21 -31 -55 -44 -135 -49 -77 -5 -156 -24 -239 -58 -135 -55 -220 -55 -325 -2 -25 13 -43 19 -39 13 11 -18 114 -57 166 -63 56 -6 131 11 263 60 48 17 107 29 175 35 97 8 104 10 130 39 17 18 32 52 38 84 14 64 11 349 -3 305z"/>
 <path d="M473 812 c-12 -31 -30 -82 -39 -112 -9 -30 -24 -66 -33 -80 -10 -15 -11 -21 -3 -16 19 12 47 73 77 169 31 100 30 124 -2 39z"/>
 <path d="M1515 805 c2 -16 9 -61 16 -98 13 -80 2 -161 -30 -228 -12 -24 -21 -56 -21 -72 0 -101 -61 -173 -204 -242 -53 -25 -96 -47 -96 -49 0 -7 105 36 161 65 64 35 127 94 136 130 3 13 8 47 10 74 3 28 17 75 31 105 24 50 27 66 27 165 -1 83 -5 119 -18 145 -17 35 -17 35 -12 5z"/>
 <path d="M400 545 l-22 -67 26 -27 c18 -18 24 -34 20 -51 -4 -22 -3 -23 5 -5 14 30 13 34 -15 60 l-26 24 23 61 c12 33 19 63 16 66 -3 3 -15 -25 -27 -61z"/>
 <path d="M436 348 c12 -13 31 -49 43 -80 13 -31 34 -65 48 -75 14 -10 29 -27 33 -38 6 -14 9 -15 9 -4 1 8 -15 30 -34 49 -19 19 -35 38 -35 43 0 21 -52 116 -68 122 -13 5 -13 2 4 -17z"/>
 <path d="M626 128 c3 -4 17 -8 32 -8 15 0 64 -9 110 -20 46 -11 104 -19 130 -19 46 2 46 2 -13 9 -33 4 -78 12 -101 18 -58 17 -164 30 -158 20z"/>
 <path d="M1013 127 c-17 -7 -35 -15 -39 -20 -10 -10 58 13 71 24 11 11 8 11 -32 -4z"/>
 </g>
<g id="layer125" fill="#1e1211" stroke="none">
 <path d="M565 925 c4 -11 11 -65 14 -120 5 -94 6 -97 11 -40 5 58 -10 159 -25 173 -5 4 -5 -2 0 -13z"/>
 <path d="M770 890 c0 -5 7 -10 15 -10 8 0 15 5 15 10 0 6 -7 10 -15 10 -8 0 -15 -4 -15 -10z"/>
 <path d="M1200 890 c0 -5 7 -10 15 -10 8 0 15 5 15 10 0 6 -7 10 -15 10 -8 0 -15 -4 -15 -10z"/>
 <path d="M480 817 c0 -9 -5 -17 -11 -17 -5 0 -7 -5 -3 -11 3 -6 1 -15 -6 -19 -8 -5 -9 -10 -2 -14 11 -7 38 61 28 71 -3 4 -6 -1 -6 -10z"/>
 <path d="M1531 710 c0 -33 1 -34 10 -11 6 16 6 28 -1 35 -7 7 -10 -1 -9 -24z"/>
 <path d="M583 625 c0 -27 2 -38 4 -22 2 15 2 37 0 50 -2 12 -4 0 -4 -28z"/>
 <path d="M1413 620 c0 -25 2 -35 4 -22 2 12 2 32 0 45 -2 12 -4 2 -4 -23z"/>
 <path d="M1397 543 c-3 -17 -17 -41 -29 -53 -22 -21 -22 -22 -2 -12 23 12 49 63 42 84 -3 7 -7 -2 -11 -19z"/>
 <path d="M1190 460 c-24 -8 -23 -8 8 -9 20 -1 31 3 27 9 -3 6 -7 10 -8 9 -1 -1 -13 -5 -27 -9z"/>
 <path d="M1293 463 c9 -2 25 -2 35 0 9 3 1 5 -18 5 -19 0 -27 -2 -17 -5z"/>
 <path d="M1082 433 c-64 -23 -46 -25 23 -3 33 10 51 19 40 19 -11 0 -39 -7 -63 -16z"/>
 <path d="M1460 311 c0 -6 -16 -28 -35 -50 -46 -51 -45 -58 3 -12 21 20 36 39 35 43 -2 3 2 8 9 10 9 3 9 6 0 12 -7 4 -12 2 -12 -3z"/>
 </g>

</svg>