<!DOCTYPE svg PUBLIC "-//W3C//DTD SVG 20010904//EN" "http://www.w3.org/TR/2001/REC-SVG-20010904/DTD/svg10.dtd">
<svg version="1.0" xmlns="http://www.w3.org/2000/svg" width="200px" height="200px" viewBox="0 0 2000 2000" preserveAspectRatio="xMidYMid meet">
<g id="layer101" fill="#fdfefa" stroke="none">
 <path d="M120 1982 c0 -50 34 -127 76 -172 57 -61 115 -86 255 -107 64 -10 117 -23 123 -31 6 -7 24 -25 40 -40 15 -15 45 -63 66 -107 l38 -79 -29 -33 c-36 -42 -67 -102 -89 -173 -13 -42 -23 -56 -39 -58 -12 -2 -27 -13 -35 -25 -88 -147 -98 -168 -103 -226 -6 -64 9 -121 32 -121 15 0 -26 -147 -52 -187 -14 -21 -14 -23 0 -23 14 0 13 -8 -5 -61 l-20 -60 25 -27 c19 -20 24 -34 20 -55 -4 -20 0 -35 14 -50 11 -12 30 -48 43 -80 14 -35 35 -67 51 -80 16 -11 29 -26 29 -33 0 -15 15 -20 105 -34 39 -6 95 -18 126 -25 80 -21 125 -19 194 10 71 29 86 30 130 9 32 -15 37 -15 102 11 206 82 273 148 273 269 0 22 12 63 27 94 31 64 42 178 24 260 -10 47 -9 54 9 72 30 30 28 140 -2 198 -75 139 -91 162 -112 162 -17 0 -24 11 -39 63 -21 71 -65 152 -100 186 -23 21 -24 25 -12 49 7 15 21 46 30 68 10 23 36 61 59 83 40 39 51 44 157 67 131 29 199 57 252 103 37 33 79 110 92 169 l7 32 -881 0 c-845 0 -881 -1 -881 -18z"/>
 </g>
<g id="layer102" fill="#d6dedd" stroke="none">
 <path d="M120 1982 c0 -50 34 -127 76 -172 57 -61 115 -86 255 -107 64 -10 117 -23 123 -31 6 -7 24 -25 40 -40 15 -15 45 -63 66 -107 l38 -79 -29 -33 c-36 -42 -67 -102 -89 -173 -13 -42 -23 -56 -39 -58 -12 -2 -27 -13 -35 -25 -88 -147 -98 -168 -103 -226 -6 -64 9 -121 32 -121 15 0 -26 -147 -52 -187 -14 -21 -14 -23 0 -23 14 0 13 -8 -5 -61 l-20 -60 25 -27 c19 -20 24 -34 20 -55 -4 -20 0 -35 14 -50 11 -12 30 -48 43 -80 14 -35 35 -67 51 -80 16 -11 29 -26 29 -33 0 -15 15 -20 105 -34 39 -6 95 -18 126 -25 80 -21 125 -19 194 10 71 29 86 30 130 9 32 -15 37 -15 102 11 206 82 273 148 273 269 0 22 12 63 27 94 31 64 42 178 24 260 -10 47 -9 54 9 72 30 30 28 140 -2 198 -75 139 -91 162 -112 162 -17 0 -24 11 -39 63 -21 71 -65 152 -100 186 -23 21 -24 25 -12 49 7 15 21 46 30 68 10 23 36 61 59 83 40 39 51 44 157 67 131 29 199 57 252 103 37 33 79 110 92 169 l7 32 -881 0 c-845 0 -881 -1 -881 -18z m939 -671 c7 -5 10 -14 7 -20 -11 -17 -88 -12 -126 9 l-35 19 70 0 c39 1 76 -3 84 -8z m-248 -291 c86 -24 126 -127 77 -200 -30 -46 -88 -74 -133 -66 -43 8 -100 71 -116 128 -15 55 4 116 41 135 30 15 82 16 131 3z m483 -21 c31 -24 56 -69 56 -99 0 -30 -36 -96 -62 -114 -13 -9 -43 -16 -70 -16 -38 0 -54 5 -77 28 -55 51 -68 139 -27 191 29 37 138 43 180 10z"/>
 <path d="M737 902 c-22 -24 -21 -39 2 -52 30 -16 69 -12 80 8 11 21 4 35 -26 51 -29 15 -37 14 -56 -7z"/>
 <path d="M1189 913 c-26 -7 -31 -45 -9 -67 17 -18 22 -18 45 -6 30 16 34 55 6 70 -11 5 -21 9 -23 9 -2 -1 -10 -3 -19 -6z"/>
 </g>
<g id="layer103" fill="#f9bea9" stroke="none">
 <path d="M120 1982 c0 -50 34 -127 76 -172 57 -61 115 -86 255 -107 64 -10 117 -23 123 -31 6 -7 24 -25 40 -40 15 -15 45 -63 66 -107 l38 -79 -29 -33 c-36 -42 -67 -102 -89 -173 -13 -42 -23 -56 -39 -58 -12 -2 -27 -13 -35 -25 -88 -147 -98 -168 -103 -226 -6 -64 9 -121 32 -121 15 0 -26 -147 -52 -187 -14 -21 -14 -23 0 -23 14 0 13 -8 -5 -61 l-20 -60 25 -27 c19 -20 24 -34 20 -55 -4 -20 0 -35 14 -50 11 -12 30 -48 43 -80 14 -35 35 -67 51 -80 16 -11 29 -26 29 -33 0 -15 15 -20 105 -34 39 -6 95 -18 126 -25 80 -21 125 -19 194 10 71 29 86 30 130 9 32 -15 37 -15 102 11 206 82 273 148 273 269 0 22 12 63 27 94 31 64 42 178 24 260 -10 47 -9 54 9 72 30 30 28 140 -2 198 -75 139 -91 162 -112 162 -17 0 -24 11 -39 63 -21 71 -65 152 -100 186 -23 21 -24 25 -12 49 7 15 21 46 30 68 10 23 36 61 59 83 40 39 51 44 157 67 131 29 199 57 252 103 37 33 79 110 92 169 l7 32 -881 0 c-845 0 -881 -1 -881 -18z m944 -672 c4 -5 5 -14 1 -20 -10 -16 -120 -7 -142 12 -14 12 -13 14 13 19 34 8 115 0 128 -11z m-229 -300 c56 -27 80 -71 73 -135 -11 -98 -117 -155 -196 -105 -46 29 -86 117 -79 173 8 60 43 87 109 87 31 0 68 -8 93 -20z m463 -6 c52 -36 67 -115 32 -171 -31 -51 -66 -68 -137 -64 -59 3 -121 109 -102 176 15 53 51 75 122 75 41 0 70 -6 85 -16z"/>
 <path d="M730 895 c-17 -20 -6 -43 25 -51 30 -8 53 0 61 21 9 22 -14 45 -46 45 -15 0 -33 -7 -40 -15z"/>
 <path d="M1183 903 c-18 -7 -16 -52 2 -59 27 -11 65 5 65 26 0 28 -36 46 -67 33z"/>
 </g>
<g id="layer104" fill="#c2c3bf" stroke="none">
 <path d="M120 1982 c0 -50 34 -127 76 -172 57 -61 115 -86 255 -107 64 -10 117 -23 123 -31 6 -7 24 -25 40 -40 15 -15 45 -63 66 -107 l38 -79 -29 -33 c-36 -42 -67 -102 -89 -173 -13 -42 -23 -56 -39 -58 -12 -2 -27 -13 -35 -25 -88 -147 -98 -168 -103 -226 -6 -64 9 -121 32 -121 15 0 -26 -147 -52 -187 -14 -21 -14 -23 0 -23 14 0 13 -8 -5 -61 l-20 -60 25 -27 c19 -20 24 -34 20 -55 -4 -20 0 -35 14 -50 11 -12 30 -48 43 -80 14 -35 35 -67 51 -80 16 -11 29 -26 29 -33 0 -15 15 -20 105 -34 39 -6 95 -18 126 -25 80 -21 125 -19 194 10 71 29 86 30 130 9 32 -15 37 -15 102 11 206 82 273 148 273 269 0 22 12 63 27 94 31 64 42 178 24 260 -10 47 -9 54 9 72 30 30 28 140 -2 198 -75 139 -91 162 -112 162 -17 0 -24 11 -39 63 -21 71 -65 152 -100 186 -23 21 -24 25 -12 49 7 15 21 46 30 68 10 23 36 61 59 83 40 39 51 44 157 67 131 29 199 57 252 103 37 33 79 110 92 169 l7 32 -881 0 c-845 0 -881 -1 -881 -18z m893 -191 c7 -59 35 -113 78 -151 l32 -29 -39 11 c-22 6 -74 8 -116 5 l-77 -5 29 25 c29 24 50 77 65 166 8 49 21 40 28 -22z m-193 -425 c0 -98 1 -105 24 -119 13 -9 37 -19 52 -23 16 -4 34 -11 40 -16 16 -12 44 1 44 21 0 12 -14 22 -42 30 -60 18 -88 38 -88 63 l0 22 15 -21 c22 -31 95 -63 146 -64 36 0 40 -2 22 -9 -25 -10 -27 -17 -14 -39 10 -16 48 -7 121 27 l35 17 3 108 c1 59 7 107 12 107 19 0 109 -100 134 -148 14 -28 44 -115 66 -194 35 -123 39 -149 31 -186 -5 -24 -10 -99 -10 -167 -2 -138 -7 -194 -22 -233 -22 -58 -36 -64 -182 -77 -59 -5 -126 -20 -156 -35 -137 -68 -247 -76 -351 -26 -81 39 -86 45 -97 120 -5 39 -9 116 -9 171 1 99 1 100 25 97 13 -1 39 -15 57 -31 66 -58 160 -50 218 20 32 38 40 67 34 129 -6 58 -41 110 -91 134 -41 19 -132 21 -170 4 -53 -25 -72 -118 -42 -203 8 -22 15 -41 15 -42 0 0 -9 1 -20 4 -23 6 -22 3 -25 61 -2 24 -8 49 -15 57 -6 7 -11 26 -12 42 0 38 77 304 103 355 22 43 120 148 138 148 7 0 11 -37 11 -104z m98 88 c12 -8 27 -24 32 -35 10 -18 8 -19 -26 -15 -21 3 -46 0 -56 -5 -15 -8 -18 -6 -18 12 0 21 25 59 39 59 4 0 17 -7 29 -16z m222 -10 c6 -14 10 -49 10 -79 0 -59 -18 -89 -60 -100 l-25 -6 27 21 c29 23 45 74 33 110 -6 19 -13 21 -51 18 -24 -2 -44 -1 -44 1 0 3 12 18 27 33 34 36 70 37 83 2z m-76 -134 c4 -5 5 -14 1 -20 -10 -16 -120 -7 -142 12 -14 12 -13 14 13 19 34 8 115 0 128 -11z m-494 -165 c0 -9 -7 -32 -17 -53 -9 -20 -15 -41 -14 -45 1 -5 -3 -6 -8 -3 -5 4 -19 -6 -31 -21 -21 -28 -23 -60 -5 -105 4 -11 3 -18 -4 -18 -6 0 -11 8 -12 18 0 9 -3 12 -5 5 -3 -7 0 -21 5 -32 6 -11 7 -22 2 -25 -30 -19 -20 106 14 174 12 25 29 62 38 83 17 38 37 50 37 22z m890 -15 c7 -16 11 -30 9 -32 -1 -2 10 -25 25 -51 25 -43 28 -55 23 -105 -4 -37 -3 -51 3 -42 7 11 10 8 10 -12 0 -16 -4 -28 -9 -28 -14 0 -20 37 -14 93 5 45 2 55 -17 72 l-23 20 12 -23 c7 -13 10 -31 8 -40 -4 -14 -5 -13 -6 3 0 11 -9 31 -18 44 -9 14 -11 21 -5 17 7 -4 12 -3 12 3 0 5 -5 11 -10 13 -6 2 -17 25 -25 51 -12 39 -12 47 -1 47 8 0 19 -13 26 -30z m-939 -137 c-4 -28 -6 -32 -9 -15 -3 22 3 52 11 52 1 0 1 -17 -2 -37z m314 17 c56 -27 80 -71 73 -135 -11 -98 -117 -155 -196 -105 -46 29 -86 117 -79 173 8 60 43 87 109 87 31 0 68 -8 93 -20z"/>
 <path d="M966 1175 l-30 -24 24 -103 c33 -145 40 -149 33 -20 l-6 112 32 0 c37 0 39 9 8 38 -28 27 -25 27 -61 -3z"/>
 <path d="M1123 1030 c-43 -26 -53 -47 -55 -122 -3 -75 13 -113 61 -145 68 -46 192 -19 224 50 26 55 22 133 -9 174 -14 18 -38 40 -54 48 -42 22 -128 19 -167 -5z m175 -26 c52 -36 67 -115 32 -171 -31 -51 -66 -68 -137 -64 -59 3 -121 109 -102 176 15 53 51 75 122 75 41 0 70 -6 85 -16z"/>
 <path d="M1183 903 c-18 -7 -16 -52 2 -59 27 -11 65 5 65 26 0 28 -36 46 -67 33z"/>
 <path d="M730 895 c-17 -20 -6 -43 25 -51 30 -8 53 0 61 21 9 22 -14 45 -46 45 -15 0 -33 -7 -40 -15z"/>
 </g>
<g id="layer105" fill="#f0ad95" stroke="none">
 <path d="M120 1982 c0 -50 34 -127 76 -172 57 -61 115 -86 255 -107 64 -10 117 -23 123 -31 6 -7 24 -25 40 -40 15 -15 45 -63 66 -107 l38 -79 -29 -33 c-36 -42 -67 -102 -89 -173 -13 -42 -23 -56 -39 -58 -12 -2 -27 -13 -35 -25 -88 -147 -98 -168 -103 -226 -6 -64 9 -121 32 -121 15 0 -26 -147 -52 -187 -14 -21 -14 -23 0 -23 14 0 13 -8 -5 -61 l-20 -60 25 -27 c19 -20 24 -34 20 -55 -4 -20 0 -35 14 -50 11 -12 30 -48 43 -80 14 -35 35 -67 51 -80 16 -11 29 -26 29 -33 0 -15 15 -20 105 -34 39 -6 95 -18 126 -25 80 -21 125 -19 194 10 71 29 86 30 130 9 32 -15 37 -15 102 11 206 82 273 148 273 269 0 22 12 63 27 94 31 64 42 178 24 260 -10 47 -9 54 9 72 30 30 28 140 -2 198 -75 139 -91 162 -112 162 -17 0 -24 11 -39 63 -21 71 -65 152 -100 186 -23 21 -24 25 -12 49 7 15 21 46 30 68 10 23 36 61 59 83 40 39 51 44 157 67 131 29 199 57 252 103 37 33 79 110 92 169 l7 32 -881 0 c-845 0 -881 -1 -881 -18z m893 -191 c7 -59 35 -113 78 -151 l32 -29 -39 11 c-22 6 -74 8 -116 5 l-77 -5 29 25 c29 24 50 77 65 166 8 49 21 40 28 -22z m-193 -425 c0 -98 1 -105 24 -119 13 -9 37 -19 52 -23 16 -4 34 -11 40 -16 16 -12 44 1 44 21 0 12 -14 22 -42 30 -60 18 -88 38 -88 63 l0 22 15 -21 c22 -31 95 -63 146 -64 36 0 40 -2 22 -9 -25 -10 -27 -17 -14 -39 10 -16 48 -7 121 27 l35 17 3 108 c1 59 7 107 12 107 19 0 109 -100 134 -148 14 -28 44 -115 66 -194 35 -123 39 -149 31 -186 -5 -24 -10 -99 -10 -167 -2 -138 -7 -194 -22 -233 -22 -58 -36 -64 -182 -77 -59 -5 -126 -20 -156 -35 -137 -68 -247 -76 -351 -26 -81 39 -86 45 -97 120 -5 39 -9 116 -9 171 1 99 1 100 25 97 13 -1 39 -15 57 -31 66 -58 160 -50 218 20 32 38 40 67 34 129 -6 58 -41 110 -91 134 -41 19 -132 21 -170 4 -53 -25 -72 -118 -42 -203 8 -22 15 -41 15 -42 0 0 -9 1 -20 4 -23 6 -22 3 -25 61 -2 24 -8 49 -15 57 -6 7 -11 26 -12 42 0 38 77 304 103 355 22 43 120 148 138 148 7 0 11 -37 11 -104z m98 88 c12 -8 27 -24 32 -35 10 -18 8 -19 -26 -15 -21 3 -46 0 -56 -5 -15 -8 -18 -6 -18 12 0 21 25 59 39 59 4 0 17 -7 29 -16z m222 -10 c6 -14 10 -49 10 -79 0 -59 -18 -89 -60 -100 l-25 -6 27 21 c29 23 45 74 33 110 -6 19 -13 21 -51 18 -24 -2 -44 -1 -44 1 0 3 12 18 27 33 34 36 70 37 83 2z m-106 -123 c38 -8 44 -28 13 -40 -27 -10 -102 3 -125 22 -12 9 -11 12 5 18 22 9 67 9 107 0z m-464 -176 c0 -9 -7 -32 -17 -53 -9 -20 -15 -41 -14 -45 1 -5 -3 -6 -8 -3 -5 4 -19 -6 -31 -21 -21 -28 -23 -60 -5 -105 4 -11 3 -18 -4 -18 -6 0 -11 8 -12 18 0 9 -3 12 -5 5 -3 -7 0 -21 5 -32 6 -11 7 -22 2 -25 -30 -19 -20 106 14 174 12 25 29 62 38 83 17 38 37 50 37 22z m890 -15 c7 -16 11 -30 9 -32 -1 -2 10 -25 25 -51 25 -43 28 -55 23 -105 -4 -37 -3 -51 3 -42 7 11 10 8 10 -12 0 -16 -4 -28 -9 -28 -14 0 -20 37 -14 93 5 45 2 55 -17 72 l-23 20 12 -23 c7 -13 10 -31 8 -40 -4 -14 -5 -13 -6 3 0 11 -9 31 -18 44 -9 14 -11 21 -5 17 7 -4 12 -3 12 3 0 5 -5 11 -10 13 -6 2 -17 25 -25 51 -12 39 -12 47 -1 47 8 0 19 -13 26 -30z m-939 -137 c-4 -28 -6 -32 -9 -15 -3 22 3 52 11 52 1 0 1 -17 -2 -37z m316 18 c49 -23 73 -62 73 -122 0 -107 -115 -174 -200 -116 -42 28 -72 85 -78 148 -4 43 -1 51 26 79 26 26 38 30 84 30 30 0 71 -9 95 -19z"/>
 <path d="M966 1175 l-30 -24 24 -103 c33 -145 40 -149 33 -20 l-6 112 32 0 c37 0 39 9 8 38 -28 27 -25 27 -61 -3z"/>
 <path d="M1123 1030 c-43 -26 -53 -47 -55 -122 -3 -75 13 -113 61 -145 68 -46 192 -19 224 50 26 55 22 133 -9 174 -14 18 -38 40 -54 48 -42 22 -128 19 -167 -5z m152 -14 c100 -42 99 -193 -3 -238 -81 -36 -149 0 -176 91 -13 47 -7 100 16 129 25 30 111 39 163 18z"/>
 <path d="M1183 903 c-18 -7 -16 -52 2 -59 27 -11 65 5 65 26 0 28 -36 46 -67 33z"/>
 <path d="M730 895 c-17 -20 -6 -43 25 -51 30 -8 53 0 61 21 9 22 -14 45 -46 45 -15 0 -33 -7 -40 -15z"/>
 </g>
<g id="layer106" fill="#d9a08b" stroke="none">
 <path d="M120 1982 c0 -50 34 -127 76 -172 57 -61 115 -86 255 -107 64 -10 117 -23 123 -31 6 -7 24 -25 40 -40 15 -15 45 -63 66 -107 l38 -79 -29 -33 c-36 -42 -67 -102 -89 -173 -13 -42 -23 -56 -39 -58 -12 -2 -27 -13 -35 -25 -88 -147 -98 -168 -103 -226 -6 -64 9 -121 32 -121 15 0 -26 -147 -52 -187 -14 -21 -14 -23 0 -23 14 0 13 -8 -5 -61 l-20 -60 25 -27 c19 -20 24 -34 20 -55 -4 -20 0 -35 14 -50 11 -12 30 -48 43 -80 14 -35 35 -67 51 -80 16 -11 29 -26 29 -33 0 -15 15 -20 105 -34 39 -6 95 -18 126 -25 80 -21 125 -19 194 10 71 29 86 30 130 9 32 -15 37 -15 102 11 206 82 273 148 273 269 0 22 12 63 27 94 31 64 42 178 24 260 -10 47 -9 54 9 72 30 30 28 140 -2 198 -75 139 -91 162 -112 162 -17 0 -24 11 -39 63 -21 71 -65 152 -100 186 -23 21 -24 25 -12 49 7 15 21 46 30 68 10 23 36 61 59 83 40 39 51 44 157 67 131 29 199 57 252 103 37 33 79 110 92 169 l7 32 -881 0 c-845 0 -881 -1 -881 -18z m890 -161 c0 -70 61 -190 96 -191 6 0 18 -7 25 -16 12 -15 11 -16 -7 -10 -29 9 -216 10 -245 1 -19 -6 -21 -5 -12 5 6 7 21 17 34 24 38 19 59 59 76 144 15 78 33 101 33 43z m-150 -582 c19 -11 42 -19 50 -19 9 0 21 -5 26 -10 15 -15 46 -1 42 18 -2 9 -26 25 -53 35 -61 23 -75 34 -75 60 0 21 0 21 15 0 20 -28 97 -63 140 -63 53 0 93 19 110 52 32 64 11 103 -50 96 -19 -2 -35 -2 -35 1 0 15 57 61 75 61 35 0 45 -20 45 -90 0 -81 -14 -103 -77 -120 -60 -16 -72 -26 -53 -44 13 -13 23 -12 75 6 33 11 65 25 70 30 6 5 12 61 15 124 l5 115 60 -48 c44 -36 68 -66 92 -113 39 -78 115 -332 101 -341 -14 -9 -26 -117 -29 -257 -1 -70 -8 -147 -15 -171 -21 -71 -37 -80 -150 -92 -62 -6 -129 -21 -179 -39 -223 -80 -282 -80 -421 5 -28 17 -32 25 -43 104 -6 47 -11 145 -11 216 1 106 -3 141 -19 188 l-20 58 33 117 c64 219 94 274 190 344 l41 30 5 -118 5 -117 35 -18z m81 195 l34 -35 -44 5 c-25 2 -53 0 -63 -5 -15 -8 -18 -6 -18 20 0 28 20 50 46 51 5 0 26 -16 45 -36z m93 -113 c38 -8 44 -28 13 -40 -27 -10 -102 3 -125 22 -12 9 -11 12 5 18 22 9 67 9 107 0z m-476 -223 c-11 -35 -20 -69 -20 -75 -1 -7 -6 -13 -11 -13 -5 0 -7 -6 -4 -12 2 -7 1 -22 -4 -33 l-8 -20 -1 20 c-1 11 -2 31 -1 45 2 24 1 24 -14 6 -18 -23 -18 -30 -5 -75 7 -25 6 -39 -3 -49 -6 -8 -11 -17 -9 -19 1 -1 2 -9 2 -15 0 -7 -6 -5 -12 6 -6 11 -8 41 -4 75 4 41 3 52 -5 41 -8 -12 -9 -9 -4 10 4 14 14 31 23 38 9 6 12 12 7 12 -5 0 -2 6 7 13 8 6 21 28 28 47 17 44 29 60 45 60 10 0 8 -15 -7 -62z m916 6 c15 -32 34 -63 44 -70 9 -7 14 -16 10 -19 -4 -4 -1 -14 7 -22 8 -8 15 -22 14 -31 0 -14 -2 -13 -8 2 -7 19 -8 19 -13 -2 -4 -14 -2 -20 4 -15 8 4 9 -8 5 -36 -11 -85 -33 -65 -30 27 2 63 1 69 -31 102 -19 19 -37 46 -41 60 -3 14 -9 33 -11 43 -4 11 0 17 10 17 8 0 26 -25 40 -56z m16 -120 c0 -13 -4 -24 -10 -24 -5 0 -10 9 -10 20 0 29 -1 33 -12 55 -7 16 -5 15 11 -4 12 -13 21 -34 21 -47z m-1043 -106 c-2 -18 -4 -6 -4 27 0 33 2 48 4 33 2 -15 2 -42 0 -60z m1110 10 c-2 -13 -4 -5 -4 17 -1 22 1 32 4 23 2 -10 2 -28 0 -40z"/>
 <path d="M966 1171 l-29 -30 26 -98 26 -98 -2 100 -2 100 28 5 29 5 -24 22 -24 23 -28 -29z"/>
 <path d="M651 1032 c-28 -23 -34 -36 -38 -79 -4 -33 0 -68 11 -99 20 -58 20 -55 -1 -48 -13 4 -13 2 2 -7 11 -6 32 -23 46 -36 78 -73 221 -34 249 66 36 130 -42 230 -180 231 -47 0 -61 -5 -89 -28z m186 -21 c49 -23 73 -62 73 -122 0 -107 -115 -174 -200 -116 -42 28 -72 85 -78 148 -4 43 -1 51 26 79 26 26 38 30 84 30 30 0 71 -9 95 -19z"/>
 <path d="M730 895 c-17 -20 -6 -43 25 -51 30 -8 53 0 61 21 9 22 -14 45 -46 45 -15 0 -33 -7 -40 -15z"/>
 <path d="M1129 1035 c-43 -24 -59 -58 -59 -129 0 -36 4 -67 10 -71 5 -3 7 -11 4 -18 -5 -13 28 -47 64 -66 57 -31 180 8 206 64 23 47 20 123 -4 163 -37 61 -157 92 -221 57z m146 -19 c100 -42 99 -193 -3 -238 -81 -36 -149 0 -176 91 -13 47 -7 100 16 129 25 30 111 39 163 18z"/>
 <path d="M1183 903 c-18 -7 -16 -52 2 -59 27 -11 65 5 65 26 0 28 -36 46 -67 33z"/>
 </g>
<g id="layer107" fill="#e4977b" stroke="none">
 <path d="M120 1982 c0 -50 34 -127 76 -172 57 -61 115 -86 255 -107 64 -10 117 -23 123 -31 6 -7 24 -25 40 -40 15 -15 45 -63 66 -107 l38 -79 -29 -33 c-36 -42 -67 -102 -89 -173 -13 -42 -23 -56 -39 -58 -12 -2 -27 -13 -35 -25 -88 -147 -98 -168 -103 -226 -6 -64 9 -121 32 -121 15 0 -26 -147 -52 -187 -14 -21 -14 -23 0 -23 14 0 13 -8 -5 -61 l-20 -60 25 -27 c19 -20 24 -34 20 -55 -4 -20 0 -35 14 -50 11 -12 30 -48 43 -80 14 -35 35 -67 51 -80 16 -11 29 -26 29 -33 0 -15 15 -20 105 -34 39 -6 95 -18 126 -25 80 -21 125 -19 194 10 71 29 86 30 130 9 32 -15 37 -15 102 11 206 82 273 148 273 269 0 22 12 63 27 94 31 64 42 178 24 260 -10 47 -9 54 9 72 30 30 28 140 -2 198 -75 139 -91 162 -112 162 -17 0 -24 11 -39 63 -21 71 -65 152 -100 186 -23 21 -24 25 -12 49 7 15 21 46 30 68 10 23 36 61 59 83 40 39 51 44 157 67 131 29 199 57 252 103 37 33 79 110 92 169 l7 32 -881 0 c-845 0 -881 -1 -881 -18z m890 -157 c0 -81 49 -163 130 -218 l25 -17 -29 10 c-38 14 -234 14 -268 1 -40 -15 -34 -7 17 26 51 32 67 61 92 161 16 68 33 87 33 37z m-130 -591 c67 -28 103 -31 98 -8 -2 10 -24 24 -56 34 -30 10 -59 23 -65 29 -17 17 -20 122 -5 151 21 38 48 36 91 -8 l38 -39 -48 7 c-55 9 -70 5 -78 -20 -18 -57 80 -126 167 -118 55 6 83 26 98 74 17 51 -1 77 -51 72 -21 -2 -39 -1 -39 1 0 15 57 61 75 61 36 0 45 -20 45 -95 0 -81 -8 -94 -75 -115 -49 -15 -59 -24 -52 -44 5 -13 14 -12 67 6 84 28 92 43 88 167 -2 56 -2 101 0 101 2 0 23 -13 47 -30 90 -62 126 -127 185 -334 36 -123 37 -133 23 -160 -12 -22 -17 -80 -22 -216 -6 -154 -11 -193 -27 -225 -21 -45 -26 -47 -179 -64 -62 -7 -125 -23 -200 -52 -100 -38 -116 -41 -182 -37 -68 5 -145 32 -195 71 -23 18 -38 142 -37 306 0 116 -3 145 -21 193 l-21 57 39 134 c61 207 91 260 187 329 l40 30 5 -118 5 -118 55 -22z m154 87 c38 -8 44 -28 13 -40 -27 -10 -102 3 -125 22 -12 9 -11 12 5 18 22 9 67 9 107 0z m-476 -223 c-11 -35 -20 -69 -20 -75 -1 -7 -6 -13 -11 -13 -5 0 -7 -6 -4 -12 2 -7 1 -22 -4 -33 l-8 -20 -1 20 c-1 11 -2 31 -1 45 2 24 1 24 -14 6 -18 -23 -18 -29 -4 -80 8 -29 8 -41 -1 -46 -6 -4 -11 -10 -11 -14 3 -23 -1 -28 -11 -12 -6 11 -8 41 -4 75 4 41 3 52 -5 41 -8 -12 -9 -9 -4 10 4 14 14 31 23 38 9 6 12 12 7 12 -5 0 -2 6 7 13 8 6 21 28 28 47 17 44 29 60 45 60 10 0 8 -15 -7 -62z m918 5 c15 -32 35 -63 43 -70 9 -6 13 -15 9 -18 -4 -4 -1 -14 7 -22 8 -8 15 -22 14 -31 0 -14 -2 -13 -8 2 -7 19 -8 19 -13 -2 -4 -14 -2 -20 4 -15 12 7 5 -73 -7 -85 -15 -15 -25 27 -19 81 6 57 5 60 -29 95 -19 21 -38 48 -42 62 -3 14 -9 33 -11 43 -3 10 0 17 9 17 8 0 27 -26 43 -57z m14 -119 c0 -13 -4 -24 -10 -24 -5 0 -10 9 -10 20 0 29 -1 33 -12 55 -7 16 -5 15 11 -4 12 -13 21 -34 21 -47z m-1043 -106 c-2 -18 -4 -6 -4 27 0 33 2 48 4 33 2 -15 2 -42 0 -60z m1110 10 c-2 -13 -4 -5 -4 17 -1 22 1 32 4 23 2 -10 2 -28 0 -40z"/>
 <path d="M967 1172 l-27 -29 25 -99 25 -99 -4 102 -4 102 30 3 30 3 -24 22 -24 23 -27 -28z"/>
 <path d="M664 1041 c-42 -25 -58 -69 -50 -132 4 -27 11 -62 17 -77 6 -15 10 -29 9 -30 -1 -2 13 -17 31 -33 69 -61 149 -59 213 7 56 58 62 137 15 207 -26 39 -39 49 -82 62 -68 20 -115 19 -153 -4z m173 -30 c49 -23 73 -62 73 -122 0 -107 -115 -174 -200 -116 -42 28 -72 85 -78 148 -4 43 -1 51 26 79 26 26 38 30 84 30 30 0 71 -9 95 -19z"/>
 <path d="M730 895 c-17 -20 -6 -43 25 -51 30 -8 53 0 61 21 9 22 -14 45 -46 45 -15 0 -33 -7 -40 -15z"/>
 <path d="M1153 1043 c-32 -6 -72 -51 -79 -89 -3 -18 -3 -53 0 -76 3 -24 7 -49 8 -57 3 -24 50 -59 96 -71 37 -9 52 -8 102 11 68 25 90 57 90 134 0 107 -95 172 -217 148z m122 -27 c100 -42 99 -193 -3 -238 -81 -36 -149 0 -176 91 -13 47 -7 100 16 129 25 30 111 39 163 18z"/>
 <path d="M1183 903 c-18 -7 -16 -52 2 -59 27 -11 65 5 65 26 0 28 -36 46 -67 33z"/>
 </g>
<g id="layer108" fill="#5bbbd5" stroke="none">
 <path d="M120 1982 c0 -50 34 -127 76 -172 57 -61 115 -86 255 -107 64 -10 117 -23 123 -31 6 -7 24 -25 40 -40 15 -15 45 -63 66 -107 l38 -79 -29 -33 c-36 -42 -67 -102 -89 -173 -13 -42 -23 -56 -39 -58 -12 -2 -27 -13 -35 -25 -88 -147 -98 -168 -103 -226 -6 -64 9 -121 32 -121 15 0 -26 -147 -52 -187 -14 -21 -14 -23 0 -23 14 0 13 -8 -5 -61 l-20 -60 25 -27 c19 -20 24 -34 20 -55 -4 -20 0 -35 14 -50 11 -12 30 -48 43 -80 14 -35 35 -67 51 -80 16 -11 29 -26 29 -33 0 -15 15 -20 105 -34 39 -6 95 -18 126 -25 80 -21 125 -19 194 10 71 29 86 30 130 9 32 -15 37 -15 102 11 206 82 273 148 273 269 0 22 12 63 27 94 31 64 42 178 24 260 -10 47 -9 54 9 72 30 30 28 140 -2 198 -75 139 -91 162 -112 162 -17 0 -24 11 -39 63 -21 71 -65 152 -100 186 -23 21 -24 25 -12 49 7 15 21 46 30 68 10 23 36 61 59 83 40 39 51 44 157 67 131 29 199 57 252 103 37 33 79 110 92 169 l7 32 -881 0 c-845 0 -881 -1 -881 -18z m902 -219 c14 -65 51 -111 128 -159 46 -28 60 -42 60 -60 0 -20 -5 -24 -29 -24 -16 0 -35 8 -42 17 -8 9 -34 29 -58 45 -74 47 -136 35 -226 -42 -29 -25 -62 -31 -69 -13 -11 27 -6 33 67 80 39 25 77 53 84 62 18 24 53 161 54 212 l2 44 9 -55 c5 -30 14 -78 20 -107z m-200 -383 l-3 -120 48 -21 c26 -11 63 -23 82 -26 28 -5 33 -3 30 12 -3 12 -23 24 -57 35 -30 10 -59 23 -65 29 -17 17 -20 122 -5 151 21 38 48 36 91 -8 l38 -39 -48 7 c-55 9 -70 5 -78 -20 -18 -57 80 -126 167 -118 55 6 83 26 98 74 17 51 -1 77 -51 72 -21 -2 -39 -1 -39 1 0 15 57 61 75 61 36 0 45 -20 45 -95 0 -81 -8 -94 -75 -115 -49 -15 -59 -24 -52 -44 5 -13 14 -12 67 6 85 28 93 43 88 171 l-3 105 41 -29 c101 -70 136 -130 200 -352 33 -114 33 -119 18 -150 -13 -24 -18 -75 -23 -217 -6 -154 -11 -193 -27 -225 -21 -45 -26 -47 -179 -64 -62 -7 -125 -23 -200 -52 -100 -38 -116 -41 -182 -37 -68 5 -145 32 -195 71 -23 18 -39 143 -37 305 1 114 -3 143 -21 196 l-22 62 41 137 c22 75 50 157 62 182 24 51 80 112 136 149 21 14 38 25 38 25 0 1 -1 -53 -3 -119z m212 -59 c38 -8 44 -28 13 -40 -27 -10 -102 3 -125 22 -12 9 -11 12 5 18 22 9 67 9 107 0z m-454 -160 c0 -4 -4 -21 -9 -37 -6 -16 -20 -63 -31 -103 -18 -61 -24 -72 -32 -57 -5 9 -7 29 -4 44 5 20 4 23 -3 12 -6 -8 -10 -46 -9 -85 2 -71 -13 -121 -34 -109 -6 4 -7 9 0 13 5 3 7 22 4 41 l-6 35 -7 -35 c-5 -29 -7 -25 -8 25 -1 46 5 71 22 102 12 23 35 66 51 95 27 51 42 68 59 68 4 0 7 -4 7 -9z m873 -13 c85 -141 99 -169 104 -222 4 -43 2 -61 -11 -82 -10 -14 -20 -23 -24 -19 -4 3 -1 9 5 13 7 4 14 28 17 52 l6 45 -10 -39 c-14 -52 -16 -53 -34 -18 -12 23 -13 36 -4 65 8 27 8 43 0 59 -10 22 -11 21 -11 -9 -1 -18 -5 -33 -9 -33 -7 0 -62 181 -62 203 0 15 20 6 33 -15z"/>
 <path d="M965 1168 l-26 -23 25 -95 26 -95 -6 92 c-3 60 -1 99 6 113 17 31 6 35 -25 8z"/>
 <path d="M664 1041 c-42 -25 -58 -69 -50 -132 4 -27 11 -62 17 -77 6 -15 10 -29 9 -30 -1 -2 13 -17 31 -33 69 -61 149 -59 213 7 56 58 62 137 15 207 -26 39 -39 49 -82 62 -68 20 -115 19 -153 -4z m173 -30 c49 -23 73 -62 73 -122 0 -107 -115 -174 -200 -116 -42 28 -72 85 -78 148 -4 43 -1 51 26 79 26 26 38 30 84 30 30 0 71 -9 95 -19z"/>
 <path d="M730 895 c-17 -20 -6 -43 25 -51 30 -8 53 0 61 21 9 22 -14 45 -46 45 -15 0 -33 -7 -40 -15z"/>
 <path d="M1153 1043 c-32 -6 -72 -51 -79 -89 -3 -18 -3 -53 0 -76 3 -24 7 -49 8 -57 3 -24 50 -59 96 -71 37 -9 52 -8 102 11 68 25 90 57 90 134 0 107 -95 172 -217 148z m122 -27 c100 -42 99 -193 -3 -238 -81 -36 -149 0 -176 91 -13 47 -7 100 16 129 25 30 111 39 163 18z"/>
 <path d="M1183 903 c-18 -7 -16 -52 2 -59 27 -11 65 5 65 26 0 28 -36 46 -67 33z"/>
 </g>
<g id="layer109" fill="#ab9c96" stroke="none">
 <path d="M120 1982 c0 -50 34 -127 76 -172 57 -61 115 -86 255 -107 64 -10 117 -23 123 -31 6 -7 24 -25 40 -40 15 -15 45 -63 66 -107 l38 -79 -29 -33 c-36 -42 -67 -102 -89 -173 -13 -42 -23 -56 -39 -58 -12 -2 -27 -13 -35 -25 -88 -147 -98 -168 -103 -226 -6 -64 9 -121 32 -121 15 0 -26 -147 -52 -187 -14 -21 -14 -23 0 -23 14 0 13 -8 -5 -61 l-20 -60 25 -27 c19 -20 24 -34 20 -55 -4 -20 0 -35 14 -50 11 -12 30 -48 43 -80 14 -35 35 -67 51 -80 16 -11 29 -26 29 -33 0 -15 15 -20 105 -34 39 -6 95 -18 126 -25 80 -21 125 -19 194 10 71 29 86 30 130 9 32 -15 37 -15 102 11 206 82 273 148 273 269 0 22 12 63 27 94 31 64 42 178 24 260 -10 47 -9 54 9 72 30 30 28 140 -2 198 -75 139 -91 162 -112 162 -17 0 -24 11 -39 63 -21 71 -65 152 -100 186 -23 21 -24 25 -12 49 7 15 21 46 30 68 10 23 36 61 59 83 40 39 51 44 157 67 131 29 199 57 252 103 37 33 79 110 92 169 l7 32 -881 0 c-845 0 -881 -1 -881 -18z m902 -219 c14 -65 51 -111 128 -159 46 -28 60 -42 60 -60 0 -20 -5 -24 -29 -24 -16 0 -35 8 -42 17 -8 9 -34 29 -58 45 -74 47 -136 35 -226 -42 -29 -25 -62 -31 -69 -13 -11 27 -6 33 67 80 39 25 77 53 84 62 18 24 53 161 54 212 l2 44 9 -55 c5 -30 14 -78 20 -107z m-200 -383 l-3 -120 48 -21 c26 -11 63 -23 82 -26 28 -5 33 -3 30 12 -3 12 -23 24 -57 35 -30 10 -59 23 -65 29 -17 17 -20 122 -5 151 21 38 48 36 91 -8 l38 -39 -48 7 c-55 9 -70 5 -78 -20 -18 -57 80 -126 167 -118 55 6 83 26 98 74 17 51 -1 77 -51 72 -21 -2 -39 -1 -39 1 0 15 57 61 75 61 36 0 45 -20 45 -95 0 -81 -8 -94 -75 -115 -49 -15 -59 -24 -52 -44 5 -13 14 -12 67 6 85 28 93 43 88 171 l-3 105 41 -29 c101 -70 136 -130 200 -352 33 -114 33 -119 18 -150 -13 -24 -18 -75 -23 -217 -6 -154 -11 -193 -27 -225 -21 -45 -26 -47 -179 -64 -62 -7 -125 -23 -200 -52 -100 -38 -116 -41 -182 -37 -68 5 -145 32 -195 71 -23 18 -39 143 -37 305 1 114 -3 143 -21 196 l-22 62 41 137 c22 75 50 157 62 182 24 51 80 112 136 149 21 14 38 25 38 25 0 1 -1 -53 -3 -119z m212 -59 c38 -8 44 -28 13 -40 -27 -10 -102 3 -125 22 -12 9 -11 12 5 18 22 9 67 9 107 0z m-454 -160 c0 -4 -4 -21 -9 -37 -6 -16 -20 -63 -31 -103 -18 -61 -24 -72 -32 -57 -5 9 -7 29 -4 44 5 20 4 23 -3 12 -6 -8 -10 -46 -9 -85 2 -71 -13 -121 -34 -109 -6 4 -7 9 0 13 5 3 7 22 4 41 l-6 35 -7 -35 c-5 -29 -7 -25 -8 25 -1 46 5 71 22 102 12 23 35 66 51 95 27 51 42 68 59 68 4 0 7 -4 7 -9z m873 -13 c85 -141 99 -169 104 -222 4 -43 2 -61 -11 -82 -10 -14 -20 -23 -24 -19 -4 3 -1 9 5 13 7 4 14 28 17 52 l6 45 -10 -39 c-14 -52 -16 -53 -34 -18 -12 23 -13 36 -4 65 8 27 8 43 0 59 -10 22 -11 21 -11 -9 -1 -18 -5 -33 -9 -33 -7 0 -62 181 -62 203 0 15 20 6 33 -15z"/>
 <path d="M965 1168 l-26 -23 25 -95 26 -95 -6 92 c-3 60 -1 99 6 113 17 31 6 35 -25 8z"/>
 <path d="M664 1041 c-42 -25 -58 -69 -50 -132 4 -27 11 -62 17 -77 6 -15 10 -29 9 -30 -1 -2 13 -17 31 -33 69 -61 149 -59 213 7 56 58 62 137 15 207 -26 39 -39 49 -82 62 -68 20 -115 19 -153 -4z m173 -30 c49 -23 73 -62 73 -122 0 -107 -115 -174 -200 -116 -42 28 -72 85 -78 148 -4 43 -1 51 26 79 26 26 38 30 84 30 30 0 71 -9 95 -19z"/>
 <path d="M1153 1043 c-32 -6 -72 -51 -79 -89 -3 -18 -3 -53 0 -76 3 -24 7 -49 8 -57 3 -24 50 -59 96 -71 37 -9 52 -8 102 11 68 25 90 57 90 134 0 107 -95 172 -217 148z m122 -27 c100 -42 99 -193 -3 -238 -81 -36 -149 0 -176 91 -13 47 -7 100 16 129 25 30 111 39 163 18z"/>
 </g>
<g id="layer110" fill="#d9886b" stroke="none">
 <path d="M120 1982 c0 -50 34 -127 76 -172 57 -61 115 -86 255 -107 64 -10 117 -23 123 -31 6 -7 24 -25 40 -40 15 -15 45 -63 66 -107 l38 -79 -29 -33 c-36 -42 -67 -102 -89 -173 -13 -42 -23 -56 -39 -58 -12 -2 -27 -13 -35 -25 -88 -147 -98 -168 -103 -226 -6 -64 9 -121 32 -121 15 0 -26 -147 -52 -187 -14 -21 -14 -23 0 -23 14 0 13 -8 -5 -61 l-20 -60 25 -27 c19 -20 24 -34 20 -55 -4 -20 0 -35 14 -50 11 -12 30 -48 43 -80 14 -35 35 -67 51 -80 16 -11 29 -26 29 -33 0 -15 15 -20 105 -34 39 -6 95 -18 126 -25 80 -21 125 -19 194 10 71 29 86 30 130 9 32 -15 37 -15 102 11 206 82 273 148 273 269 0 22 12 63 27 94 31 64 42 178 24 260 -10 47 -9 54 9 72 30 30 28 140 -2 198 -75 139 -91 162 -112 162 -17 0 -24 11 -39 63 -21 71 -65 152 -100 186 -23 21 -24 25 -12 49 7 15 21 46 30 68 10 23 36 61 59 83 40 39 51 44 157 67 131 29 199 57 252 103 37 33 79 110 92 169 l7 32 -881 0 c-845 0 -881 -1 -881 -18z m905 -237 c12 -48 53 -95 122 -137 49 -31 63 -46 63 -64 0 -20 -5 -24 -29 -24 -16 0 -35 8 -42 17 -8 9 -34 29 -58 45 -74 47 -136 35 -226 -42 -32 -27 -63 -31 -70 -9 -9 26 -4 32 75 80 47 29 75 54 85 76 22 45 44 156 46 223 1 49 3 45 14 -40 7 -52 16 -108 20 -125z m-203 -365 l-3 -120 48 -21 c26 -11 63 -23 82 -26 28 -5 33 -3 30 12 -3 12 -23 24 -57 35 -30 10 -59 23 -65 29 -17 17 -20 122 -5 151 21 38 48 36 91 -8 l39 -39 -57 1 c-72 1 -91 -18 -59 -61 30 -39 74 -63 131 -69 61 -6 92 10 117 59 15 32 16 43 7 64 -10 22 -17 25 -51 21 -22 -2 -40 -1 -40 1 0 15 57 61 75 61 36 0 45 -20 45 -95 0 -81 -8 -94 -75 -115 -49 -15 -59 -24 -52 -44 5 -13 14 -12 67 6 85 28 93 43 88 171 l-3 105 41 -29 c101 -70 136 -130 200 -352 33 -114 33 -119 18 -150 -13 -24 -18 -75 -23 -217 -6 -154 -11 -193 -27 -225 -21 -45 -26 -47 -179 -64 -62 -7 -125 -23 -200 -52 -100 -38 -116 -41 -182 -37 -68 5 -145 32 -195 71 -23 18 -39 143 -37 305 1 114 -3 143 -21 196 l-22 62 41 137 c22 75 50 157 62 182 24 51 80 112 136 149 21 14 38 25 38 25 0 1 -1 -53 -3 -119z m223 -60 c28 -11 29 -27 2 -44 -11 -7 -30 -7 -64 2 -58 16 -80 31 -61 43 18 12 91 11 123 -1z m-465 -159 c0 -4 -4 -21 -9 -37 -6 -16 -20 -63 -31 -103 -18 -61 -24 -72 -32 -57 -5 9 -7 29 -4 44 5 20 4 23 -3 12 -6 -8 -10 -46 -9 -85 2 -71 -13 -121 -34 -109 -6 4 -7 9 0 13 5 3 7 22 4 41 l-6 35 -7 -35 c-5 -29 -7 -25 -8 25 -1 46 5 71 22 102 12 23 35 66 51 95 27 51 42 68 59 68 4 0 7 -4 7 -9z m873 -13 c85 -141 99 -169 104 -222 4 -43 2 -61 -11 -82 -10 -14 -20 -23 -24 -19 -4 3 -1 9 5 13 7 4 14 28 17 52 l6 45 -10 -39 c-14 -52 -16 -53 -34 -18 -12 23 -13 36 -4 65 8 27 8 43 0 59 -10 22 -11 21 -11 -9 -1 -18 -5 -33 -9 -33 -7 0 -62 181 -62 203 0 15 20 6 33 -15z"/>
 <path d="M965 1168 l-26 -23 25 -95 26 -95 -6 92 c-3 60 -1 99 6 113 17 31 6 35 -25 8z"/>
 <path d="M663 1040 c-54 -32 -66 -134 -27 -212 8 -16 12 -28 9 -28 -3 0 10 -14 30 -31 51 -45 106 -55 159 -29 23 11 52 33 64 50 28 37 38 106 23 152 -31 95 -174 149 -258 98z m177 -28 c127 -61 76 -262 -67 -262 -99 0 -177 146 -128 240 26 50 114 60 195 22z"/>
 <path d="M1154 1043 c-12 -2 -34 -18 -50 -34 -26 -28 -29 -36 -28 -97 2 -95 4 -103 33 -128 44 -38 94 -45 164 -23 52 17 65 25 80 55 9 19 17 57 17 84 0 41 -5 55 -30 84 -50 56 -107 75 -186 59z m163 -56 c101 -110 -36 -285 -163 -208 -55 34 -81 126 -55 194 15 38 63 58 130 54 47 -3 59 -9 88 -40z"/>
 </g>
<g id="layer111" fill="#e06565" stroke="none">
 <path d="M120 1982 c0 -50 34 -127 76 -172 57 -61 115 -86 255 -107 64 -10 117 -23 123 -31 6 -7 24 -25 40 -40 15 -15 45 -63 66 -107 l38 -79 -29 -33 c-36 -42 -67 -102 -89 -173 -13 -42 -23 -56 -39 -58 -12 -2 -27 -13 -35 -25 -88 -147 -98 -168 -103 -226 -6 -64 9 -121 32 -121 15 0 -26 -147 -52 -187 -14 -21 -14 -23 0 -23 14 0 13 -8 -5 -61 l-20 -60 25 -27 c19 -20 24 -34 20 -55 -4 -20 0 -35 14 -50 11 -12 30 -48 43 -80 14 -35 35 -67 51 -80 16 -11 29 -26 29 -33 0 -15 15 -20 105 -34 39 -6 95 -18 126 -25 80 -21 125 -19 194 10 71 29 86 30 130 9 32 -15 37 -15 102 11 206 82 273 148 273 269 0 22 12 63 27 94 31 64 42 178 24 260 -10 47 -9 54 9 72 30 30 28 140 -2 198 -75 139 -91 162 -112 162 -17 0 -24 11 -39 63 -21 71 -65 152 -100 186 -23 21 -24 25 -12 49 7 15 21 46 30 68 10 23 36 61 59 83 40 39 51 44 157 67 131 29 199 57 252 103 37 33 79 110 92 169 l7 32 -881 0 c-845 0 -881 -1 -881 -18z m905 -237 c12 -48 53 -95 122 -137 60 -38 63 -42 63 -79 l0 -40 -28 15 c-16 8 -35 22 -43 32 -8 10 -34 30 -58 46 -63 40 -115 38 -170 -4 -24 -18 -59 -45 -79 -60 l-37 -26 -7 26 c-5 15 -6 32 -4 38 2 6 36 31 75 55 48 29 76 54 86 76 22 45 44 156 46 223 1 49 3 45 14 -40 7 -52 16 -108 20 -125z m-203 -365 l-3 -120 48 -21 c26 -11 63 -23 82 -26 28 -5 33 -3 30 12 -3 12 -23 24 -57 35 -30 10 -59 23 -65 29 -17 17 -20 122 -5 151 21 38 48 36 91 -8 l39 -39 -57 1 c-72 1 -91 -18 -59 -61 30 -39 74 -63 131 -69 61 -6 92 10 117 59 15 32 16 43 7 64 -10 22 -17 25 -51 21 -22 -2 -40 -1 -40 1 0 15 57 61 75 61 36 0 45 -20 45 -95 0 -81 -8 -94 -75 -115 -49 -15 -59 -24 -52 -44 5 -13 14 -12 67 6 85 28 93 43 88 172 -2 67 1 102 7 98 100 -57 154 -128 199 -263 20 -57 36 -93 36 -81 0 36 21 22 57 -39 82 -138 100 -201 71 -264 -11 -25 -28 -34 -28 -15 0 6 5 10 10 10 6 0 10 8 10 18 0 14 -2 15 -10 2 -10 -16 -12 -15 -27 21 -8 19 -9 38 -1 67 7 28 7 46 -1 59 -9 15 -10 12 -11 -19 0 -21 -4 -38 -10 -38 -5 0 -10 7 -10 15 0 8 -4 15 -10 15 -5 0 -7 6 -4 13 2 7 0 24 -6 38 -10 24 -10 24 -5 -4 3 -16 -1 -40 -11 -59 -13 -25 -18 -75 -23 -218 -6 -154 -11 -193 -27 -225 -21 -45 -26 -47 -179 -64 -62 -7 -125 -23 -200 -52 -100 -38 -116 -41 -182 -37 -68 5 -145 32 -195 71 -23 18 -38 142 -37 306 0 109 -3 146 -18 185 -20 55 -38 68 -46 35 -8 -31 -30 -12 -25 22 3 16 0 25 -5 22 -5 -3 -7 -28 -4 -56 7 -57 -10 -140 -27 -134 -47 16 -40 156 12 219 7 9 26 40 41 70 33 63 66 79 57 26 -3 -18 9 13 27 69 50 150 86 204 181 267 21 14 39 26 40 26 1 0 0 -54 -2 -120z m223 -60 c28 -11 29 -27 2 -44 -11 -7 -30 -7 -64 2 -58 16 -80 31 -61 43 18 12 91 11 123 -1z"/>
 <path d="M968 1167 l-26 -22 23 -90 22 -90 -5 91 c-3 59 -1 98 7 112 15 27 12 27 -21 -1z"/>
 <path d="M663 1040 c-54 -32 -66 -134 -27 -212 8 -16 12 -28 9 -28 -3 0 10 -14 30 -31 51 -45 106 -55 159 -29 23 11 52 33 64 50 28 37 38 106 23 152 -31 95 -174 149 -258 98z m177 -28 c127 -61 76 -262 -67 -262 -99 0 -177 146 -128 240 26 50 114 60 195 22z"/>
 <path d="M1154 1043 c-12 -2 -34 -18 -50 -34 -26 -28 -29 -36 -28 -97 2 -95 4 -103 33 -128 44 -38 94 -45 164 -23 52 17 65 25 80 55 9 19 17 57 17 84 0 41 -5 55 -30 84 -50 56 -107 75 -186 59z m163 -56 c101 -110 -36 -285 -163 -208 -55 34 -81 126 -55 194 15 38 63 58 130 54 47 -3 59 -9 88 -40z"/>
 <path d="M451 873 c-1 -12 4 -25 9 -28 12 -7 12 2 0 30 -8 19 -9 19 -9 -2z"/>
 </g>
<g id="layer112" fill="#cd714f" stroke="none">
 <path d="M120 1982 c0 -50 34 -127 76 -172 57 -61 115 -86 255 -107 64 -10 117 -23 123 -31 6 -7 24 -25 40 -40 15 -15 45 -63 66 -107 l38 -79 -29 -33 c-36 -42 -67 -102 -89 -173 -13 -42 -23 -56 -39 -58 -12 -2 -27 -13 -35 -25 -88 -147 -98 -168 -103 -226 -6 -64 9 -121 32 -121 15 0 -26 -147 -52 -187 -14 -21 -14 -23 0 -23 14 0 13 -8 -5 -61 l-20 -60 25 -27 c19 -20 24 -34 20 -55 -4 -20 0 -35 14 -50 11 -12 30 -48 43 -80 14 -35 35 -67 51 -80 16 -11 29 -26 29 -33 0 -15 15 -20 105 -34 39 -6 95 -18 126 -25 80 -21 125 -19 194 10 71 29 86 30 130 9 32 -15 37 -15 102 11 206 82 273 148 273 269 0 22 12 63 27 94 31 64 42 178 24 260 -10 47 -9 54 9 72 30 30 28 140 -2 198 -75 139 -91 162 -112 162 -17 0 -24 11 -39 63 -21 71 -65 152 -100 186 -23 21 -24 25 -12 49 7 15 21 46 30 68 10 23 36 61 59 83 40 39 51 44 157 67 131 29 199 57 252 103 37 33 79 110 92 169 l7 32 -881 0 c-845 0 -881 -1 -881 -18z m905 -237 c12 -48 53 -95 122 -137 60 -38 63 -42 63 -79 l0 -40 -28 15 c-16 8 -35 22 -43 32 -8 10 -34 30 -58 46 -63 40 -115 38 -170 -4 -24 -18 -59 -45 -79 -60 l-37 -26 -7 26 c-5 15 -6 32 -4 38 2 6 36 31 75 55 48 29 76 54 86 76 22 45 44 156 46 223 1 49 3 45 14 -40 7 -52 16 -108 20 -125z m-203 -365 l-3 -120 48 -21 c26 -11 63 -23 82 -26 28 -5 33 -3 30 12 -3 12 -23 24 -57 35 -30 10 -59 23 -65 29 -17 17 -20 122 -5 151 21 38 48 36 91 -8 l39 -39 -57 1 c-72 1 -91 -18 -59 -61 30 -39 74 -63 131 -69 61 -6 92 10 117 59 15 32 16 43 7 64 -10 22 -17 25 -51 21 -22 -2 -40 -1 -40 1 0 15 57 61 75 61 36 0 45 -20 45 -95 0 -81 -8 -94 -75 -115 -49 -15 -59 -24 -52 -44 5 -13 14 -12 67 6 85 28 93 43 88 172 -2 67 1 102 7 98 100 -57 154 -128 199 -263 20 -57 36 -93 36 -81 0 36 21 22 57 -39 82 -138 100 -201 71 -264 -11 -25 -28 -34 -28 -15 0 6 5 10 10 10 6 0 10 8 10 18 0 14 -2 15 -10 2 -10 -16 -12 -15 -27 21 -8 19 -9 38 -1 67 7 28 7 46 -1 59 -9 15 -10 12 -11 -19 0 -21 -4 -38 -10 -38 -5 0 -10 7 -10 15 0 8 -4 15 -10 15 -5 0 -7 6 -4 13 2 7 0 24 -6 38 -10 24 -10 24 -5 -4 3 -16 -1 -40 -11 -59 -13 -25 -18 -75 -23 -218 -6 -154 -11 -193 -27 -225 -21 -45 -26 -47 -179 -64 -62 -7 -125 -23 -200 -52 -100 -38 -116 -41 -182 -37 -68 5 -145 32 -195 71 -23 18 -38 142 -37 306 0 109 -3 146 -18 185 -20 55 -38 68 -46 35 -8 -31 -30 -12 -25 22 3 16 0 25 -5 22 -5 -3 -7 -28 -4 -56 7 -57 -10 -140 -27 -134 -47 16 -40 156 12 219 7 9 26 40 41 70 33 63 66 79 57 26 -3 -18 9 13 27 69 50 150 86 204 181 267 21 14 39 26 40 26 1 0 0 -54 -2 -120z m281 6 c7 -19 -28 -27 -73 -17 l-35 8 35 11 c49 15 67 14 73 -2z m-58 -66 c28 -11 29 -27 2 -44 -11 -7 -30 -7 -64 2 -58 16 -80 31 -61 43 18 12 91 11 123 -1z"/>
 <path d="M968 1167 l-26 -22 23 -90 22 -90 -5 91 c-3 59 -1 98 7 112 15 27 12 27 -21 -1z"/>
 <path d="M663 1040 c-54 -32 -66 -134 -27 -212 8 -16 12 -28 9 -28 -3 0 10 -14 30 -31 51 -45 106 -55 159 -29 23 11 52 33 64 50 28 37 38 106 23 152 -31 95 -174 149 -258 98z m177 -28 c127 -61 76 -262 -67 -262 -99 0 -177 146 -128 240 26 50 114 60 195 22z"/>
 <path d="M1154 1043 c-12 -2 -34 -18 -50 -34 -26 -28 -29 -36 -28 -97 2 -95 4 -103 33 -128 44 -38 94 -45 164 -23 52 17 65 25 80 55 9 19 17 57 17 84 0 41 -5 55 -30 84 -50 56 -107 75 -186 59z m163 -56 c101 -110 -36 -285 -163 -208 -55 34 -81 126 -55 194 15 38 63 58 130 54 47 -3 59 -9 88 -40z"/>
 <path d="M451 873 c-1 -12 4 -25 9 -28 12 -7 12 2 0 30 -8 19 -9 19 -9 -2z"/>
 </g>
<g id="layer113" fill="#6e6360" stroke="none">
 <path d="M120 1982 c0 -50 34 -127 76 -172 57 -61 115 -86 255 -107 64 -10 117 -23 123 -31 6 -7 24 -25 40 -40 16 -15 44 -59 62 -98 18 -40 37 -75 43 -78 6 -4 22 1 36 10 20 13 25 25 25 55 0 38 2 41 75 87 50 31 80 58 91 80 21 44 43 155 45 222 1 49 3 45 14 -40 7 -52 16 -108 20 -125 12 -48 53 -95 122 -137 59 -38 63 -42 63 -78 0 -30 6 -43 27 -60 l28 -21 17 21 c10 12 18 29 18 37 0 26 38 88 78 126 35 34 50 40 153 63 131 29 199 57 252 103 37 33 79 110 92 169 l7 32 -881 0 c-845 0 -881 -1 -881 -18z"/>
 <path d="M914 1581 c-22 -15 -52 -43 -67 -60 -26 -31 -27 -37 -27 -147 l0 -115 48 -20 c26 -12 62 -23 81 -26 28 -5 33 -3 30 12 -3 12 -23 24 -57 35 -30 10 -59 23 -65 29 -17 17 -20 122 -5 151 21 38 48 36 91 -8 l39 -39 -57 1 c-72 1 -91 -18 -59 -61 30 -39 74 -63 131 -69 61 -6 92 10 117 59 15 32 16 43 7 64 -10 22 -17 25 -51 21 -22 -2 -40 -1 -40 1 0 15 57 61 75 61 36 0 45 -20 45 -95 0 -81 -8 -94 -75 -115 -49 -15 -59 -24 -52 -44 5 -13 14 -12 67 5 82 28 90 42 90 160 0 113 -14 143 -94 197 -64 42 -117 44 -172 3z m193 -197 c5 -16 -36 -24 -77 -15 l-35 8 35 11 c42 13 72 11 77 -4z m-62 -64 c28 -11 29 -27 2 -44 -11 -7 -30 -7 -64 2 -58 16 -80 31 -61 43 18 12 91 11 123 -1z"/>
 <path d="M663 1040 c-54 -32 -66 -134 -27 -212 8 -16 12 -28 9 -28 -3 0 10 -14 30 -31 51 -45 106 -55 159 -29 23 11 52 33 64 50 28 37 38 106 23 152 -31 95 -174 149 -258 98z m177 -28 c127 -61 76 -262 -67 -262 -99 0 -177 146 -128 240 26 50 114 60 195 22z"/>
 <path d="M1154 1043 c-12 -2 -34 -18 -50 -34 -26 -28 -29 -36 -28 -97 2 -95 4 -103 33 -128 44 -38 94 -45 164 -23 52 17 65 25 80 55 9 19 17 57 17 84 0 41 -5 55 -30 84 -50 56 -107 75 -186 59z m163 -56 c101 -110 -36 -285 -163 -208 -55 34 -81 126 -55 194 15 38 63 58 130 54 47 -3 59 -9 88 -40z"/>
 <path d="M1430 962 c-7 -16 -15 -98 -19 -212 -6 -154 -11 -193 -27 -225 -21 -45 -26 -47 -179 -64 -62 -7 -125 -23 -200 -52 -100 -38 -116 -41 -182 -37 -68 5 -145 32 -195 71 -23 18 -39 143 -37 304 0 99 -4 145 -16 183 -9 27 -21 50 -26 50 -17 0 -38 -47 -83 -185 -25 -77 -53 -152 -61 -167 -14 -25 -14 -28 -1 -28 12 0 12 -9 -6 -61 l-20 -60 25 -27 c19 -20 24 -34 20 -55 -4 -20 0 -35 14 -50 11 -12 30 -48 43 -80 14 -35 35 -67 51 -80 16 -11 29 -26 29 -33 0 -15 15 -20 105 -34 39 -6 95 -18 126 -25 80 -21 125 -19 194 10 71 29 86 30 130 9 32 -15 37 -15 102 11 206 82 273 148 273 269 0 22 12 63 28 95 24 50 27 67 27 161 0 88 -4 119 -28 192 -16 48 -39 100 -51 117 l-23 31 -13 -28z"/>
 </g>
<g id="layer114" fill="#932526" stroke="none">
 <path d="M120 1982 c0 -50 34 -127 76 -172 57 -61 115 -86 255 -107 64 -10 117 -23 123 -31 6 -7 24 -25 40 -40 16 -15 44 -59 62 -98 18 -40 37 -75 43 -78 6 -4 22 1 36 11 18 14 24 27 25 56 0 39 3 42 109 110 19 12 43 37 54 54 23 39 46 165 47 251 l0 62 -435 0 c-414 0 -435 -1 -435 -18z"/>
 <path d="M1000 1973 c0 -60 20 -199 35 -244 17 -51 46 -80 126 -129 41 -24 47 -33 52 -71 4 -28 13 -49 29 -61 22 -17 24 -17 41 3 9 12 17 28 17 36 0 26 38 88 78 126 35 34 50 40 153 63 131 29 199 57 252 103 37 33 79 110 92 169 l7 32 -441 0 -441 0 0 -27z"/>
 <path d="M945 1601 c-11 -5 -42 -28 -69 -52 l-48 -44 -5 -90 c-7 -137 -2 -152 60 -181 63 -29 100 -32 95 -7 -2 11 -23 23 -58 33 -66 19 -80 40 -80 122 0 46 4 61 22 78 12 11 24 20 27 20 3 0 29 -20 56 -45 l50 -44 -61 6 c-57 5 -63 4 -74 -17 -10 -19 -9 -27 7 -49 25 -33 82 -62 136 -67 40 -4 39 -3 -11 10 -30 7 -61 21 -70 29 -14 15 -14 17 2 23 24 9 134 0 147 -13 7 -7 5 -15 -6 -27 -19 -19 -12 -21 17 -5 30 16 50 72 38 105 -9 23 -15 26 -50 22 -22 -2 -40 -1 -40 2 0 3 16 21 35 40 33 32 35 33 60 16 28 -18 27 -15 29 -88 3 -81 -5 -94 -74 -119 -58 -21 -73 -40 -37 -47 9 -2 31 4 49 12 17 9 37 16 44 16 8 0 20 11 29 24 12 18 15 44 11 122 -2 54 -7 107 -11 116 -7 18 -76 77 -112 96 -25 14 -78 15 -108 3z m162 -217 c5 -16 -36 -24 -77 -15 l-35 8 35 11 c42 13 72 11 77 -4z"/>
 <path d="M684 1049 c-48 -14 -69 -53 -67 -125 0 -34 8 -74 17 -92 9 -18 14 -32 11 -32 -3 0 9 -13 27 -28 41 -35 110 -55 147 -41 49 19 100 78 107 126 14 93 -44 176 -135 193 -61 11 -65 11 -107 -1z m118 -19 c52 -15 96 -55 109 -100 10 -33 9 -47 -5 -84 -25 -65 -66 -96 -126 -96 -38 0 -55 6 -80 26 -43 37 -70 94 -70 149 0 58 13 83 53 100 39 17 70 18 119 5z"/>
 <path d="M1155 1043 c-56 -14 -92 -89 -81 -167 4 -25 7 -48 6 -51 0 -3 12 -19 27 -34 32 -34 94 -54 126 -41 18 7 14 9 -21 9 -36 1 -50 7 -77 34 -61 61 -68 164 -15 212 29 26 126 33 168 11 40 -21 65 -69 64 -122 0 -49 -24 -89 -67 -116 -27 -18 -28 -19 -5 -13 14 4 40 22 59 42 31 33 33 38 29 94 -3 45 -10 65 -29 85 -45 50 -119 72 -184 57z"/>
 <path d="M1430 953 c-7 -21 -15 -120 -19 -219 -11 -257 -6 -251 -206 -273 -64 -7 -116 -20 -180 -47 -109 -44 -195 -54 -276 -31 -66 20 -135 63 -144 91 -3 12 -8 109 -11 216 -4 146 -9 207 -21 243 -9 26 -20 47 -25 47 -16 0 -37 -49 -84 -190 -26 -80 -54 -155 -62 -167 -13 -20 -12 -23 1 -23 14 0 13 -8 -5 -61 l-20 -60 25 -27 c19 -20 24 -34 20 -55 -4 -20 0 -35 14 -50 11 -12 30 -48 43 -80 14 -35 35 -67 51 -80 16 -11 29 -26 29 -33 0 -15 15 -20 105 -34 39 -6 95 -18 126 -25 80 -21 125 -19 194 10 71 29 86 30 130 9 32 -15 37 -15 102 11 206 82 273 148 273 269 0 22 12 63 28 95 25 51 27 65 26 166 -1 95 -5 121 -31 197 -17 47 -40 98 -51 113 l-21 26 -11 -38z"/>
 </g>
<g id="layer115" fill="#4f4442" stroke="none">
 <path d="M120 1982 c0 -50 34 -127 76 -172 57 -61 115 -86 255 -107 64 -10 117 -23 123 -31 6 -7 24 -25 40 -40 16 -15 44 -59 62 -98 18 -40 37 -75 43 -78 6 -4 22 1 36 11 18 14 24 27 25 56 0 39 3 42 109 110 19 12 43 37 54 54 23 39 46 165 47 251 l0 62 -435 0 c-414 0 -435 -1 -435 -18z"/>
 <path d="M1000 1973 c0 -60 20 -199 35 -244 17 -51 46 -80 126 -129 41 -24 47 -33 52 -71 4 -28 13 -49 29 -61 22 -17 24 -17 41 3 9 12 17 28 17 36 0 26 38 88 78 126 35 34 50 40 153 63 131 29 199 57 252 103 37 33 79 110 92 169 l7 32 -441 0 -441 0 0 -27z"/>
 <path d="M945 1601 c-11 -5 -42 -28 -69 -52 l-48 -44 -5 -90 c-7 -137 -2 -152 60 -181 63 -29 100 -32 95 -7 -2 11 -23 23 -58 33 -66 19 -80 40 -80 122 0 46 4 61 22 78 12 11 24 20 27 20 3 0 29 -20 56 -45 l50 -44 -61 6 c-57 5 -63 4 -74 -17 -10 -19 -9 -27 7 -49 25 -33 82 -62 136 -67 40 -4 39 -3 -11 10 -30 7 -61 21 -70 29 -14 15 -14 17 2 23 24 9 134 0 147 -13 7 -7 5 -15 -6 -27 -19 -19 -12 -21 17 -5 30 16 50 72 38 105 -9 23 -15 26 -50 22 -22 -2 -40 -1 -40 2 0 3 16 21 35 40 33 32 35 33 60 16 28 -18 27 -15 29 -88 3 -81 -5 -94 -74 -119 -58 -21 -73 -40 -37 -47 9 -2 31 4 49 12 17 9 37 16 44 16 8 0 20 11 29 24 12 18 15 44 11 122 -2 54 -7 107 -11 116 -7 18 -76 77 -112 96 -25 14 -78 15 -108 3z m160 -221 c0 -18 -50 -25 -85 -12 -25 10 -25 10 10 20 46 14 75 11 75 -8z m-140 -9 l40 -18 -45 -6 c-25 -3 -53 -9 -62 -12 -21 -8 -36 34 -17 46 20 13 39 11 84 -10z"/>
 <path d="M684 1049 c-48 -14 -69 -53 -67 -125 0 -34 8 -74 17 -92 9 -18 14 -32 11 -32 -3 0 9 -13 27 -28 41 -35 110 -55 147 -41 49 19 100 78 107 126 14 93 -44 176 -135 193 -61 11 -65 11 -107 -1z m118 -19 c52 -15 96 -55 109 -100 10 -33 9 -47 -5 -84 -25 -65 -66 -96 -126 -96 -38 0 -55 6 -80 26 -43 37 -70 94 -70 149 0 58 13 83 53 100 39 17 70 18 119 5z"/>
 <path d="M1155 1043 c-56 -14 -92 -89 -81 -167 4 -25 7 -48 6 -51 0 -3 12 -19 27 -34 32 -34 94 -54 126 -41 18 7 14 9 -21 9 -36 1 -50 7 -77 34 -61 61 -68 164 -15 212 29 26 126 33 168 11 40 -21 65 -69 64 -122 0 -49 -24 -89 -67 -116 -27 -18 -28 -19 -5 -13 14 4 40 22 59 42 31 33 33 38 29 94 -3 45 -10 65 -29 85 -45 50 -119 72 -184 57z"/>
 <path d="M1430 953 c-7 -21 -15 -120 -19 -219 -11 -257 -6 -251 -206 -273 -64 -7 -116 -20 -180 -47 -109 -44 -195 -54 -276 -31 -66 20 -135 63 -144 91 -3 12 -8 109 -11 216 -4 146 -9 207 -21 243 -9 26 -20 47 -25 47 -16 0 -37 -49 -84 -190 -26 -80 -54 -155 -62 -167 -13 -20 -12 -23 1 -23 14 0 13 -8 -5 -61 l-20 -60 25 -27 c19 -20 24 -34 20 -55 -4 -20 0 -35 14 -50 11 -12 30 -48 43 -80 14 -35 35 -67 51 -80 16 -11 29 -26 29 -33 0 -15 15 -20 105 -34 39 -6 95 -18 126 -25 80 -21 125 -19 194 10 71 29 86 30 130 9 32 -15 37 -15 102 11 206 82 273 148 273 269 0 22 12 63 28 95 25 51 27 65 26 166 -1 95 -5 121 -31 197 -17 47 -40 98 -51 113 l-21 26 -11 -38z"/>
 </g>
<g id="layer116" fill="#115171" stroke="none">
 <path d="M120 1982 c0 -50 34 -127 76 -172 57 -61 115 -86 255 -107 64 -10 117 -23 123 -31 6 -7 24 -25 40 -40 16 -15 42 -56 59 -92 41 -91 43 -93 78 -73 24 14 29 24 29 55 0 33 5 42 39 65 21 16 53 35 69 45 61 33 88 108 99 271 l6 97 -436 0 c-416 0 -437 -1 -437 -18z"/>
 <path d="M1005 1908 c13 -166 38 -231 106 -275 107 -69 109 -71 109 -110 1 -28 7 -42 25 -56 23 -16 24 -16 39 5 9 12 16 28 16 36 0 25 39 87 78 125 35 34 50 40 153 63 131 29 199 57 252 103 37 33 79 110 92 169 l7 32 -442 0 -442 0 7 -92z"/>
 <path d="M944 1600 c-28 -11 -114 -93 -114 -108 0 -7 17 5 38 26 21 20 53 45 70 55 31 17 31 17 25 0 -6 -16 -5 -16 10 -4 14 11 17 11 17 0 0 -12 2 -12 9 0 7 11 11 10 20 -5 9 -17 10 -17 11 -1 0 9 3 17 7 17 20 0 97 -56 114 -83 10 -18 19 -26 19 -19 0 18 -78 101 -111 118 -31 15 -82 17 -115 4z"/>
 <path d="M1015 1399 c-16 -5 -55 -6 -87 -3 -50 6 -57 4 -67 -15 -20 -37 30 -92 95 -106 24 -5 23 -3 -9 11 -56 25 -41 39 41 39 81 0 111 -16 78 -41 -23 -17 -13 -19 16 -3 29 16 50 72 38 104 -8 20 -16 25 -42 24 -18 0 -46 -5 -63 -10z m90 -19 c0 -18 -50 -25 -85 -12 -25 10 -25 10 10 20 46 14 75 11 75 -8z m-140 -9 l40 -18 -45 -6 c-25 -3 -53 -9 -62 -12 -21 -8 -36 34 -17 46 20 13 39 11 84 -10z"/>
 <path d="M684 1049 c-47 -13 -68 -53 -67 -123 1 -63 28 -129 67 -164 33 -30 103 -44 140 -28 42 18 83 64 91 101 l6 30 -14 -30 c-29 -62 -100 -102 -156 -88 -94 22 -158 189 -98 258 27 32 84 42 145 26 61 -17 101 -57 117 -116 8 -31 14 -40 14 -25 1 34 -31 100 -61 127 -13 13 -48 27 -77 33 -61 11 -65 11 -107 -1z"/>
 <path d="M1155 1043 c-86 -21 -112 -170 -44 -248 34 -38 89 -59 122 -45 18 7 14 9 -20 9 -107 2 -171 154 -99 237 18 22 34 28 79 32 102 8 161 -39 161 -129 0 -54 -21 -91 -67 -119 -38 -23 -29 -27 13 -5 47 24 70 62 70 115 0 103 -106 179 -215 153z"/>
 <path d="M1430 953 c-7 -21 -15 -120 -19 -219 -11 -257 -6 -251 -206 -273 -64 -7 -116 -20 -180 -47 -109 -44 -195 -54 -276 -31 -66 20 -135 63 -144 91 -3 12 -8 109 -11 216 -4 146 -9 207 -21 243 -9 26 -20 47 -25 47 -16 0 -37 -49 -84 -190 -26 -80 -54 -155 -62 -167 -13 -20 -12 -23 1 -23 14 0 13 -8 -5 -61 l-20 -60 25 -27 c19 -20 24 -34 20 -55 -4 -20 0 -35 14 -50 11 -12 30 -48 43 -80 14 -35 35 -67 51 -80 16 -11 29 -26 29 -33 0 -15 15 -20 105 -34 39 -6 95 -18 126 -25 80 -21 125 -19 194 10 71 29 86 30 130 9 32 -15 37 -15 102 11 206 82 273 148 273 269 0 22 12 63 28 95 25 51 27 65 26 166 -1 95 -5 121 -31 197 -17 47 -40 98 -51 113 l-21 26 -11 -38z m-906 -103 c-8 -47 -21 -105 -29 -130 -9 -25 -11 -46 -6 -48 5 -2 -2 -37 -16 -78 -26 -77 -25 -97 2 -74 13 11 15 7 15 -26 0 -22 -4 -54 -9 -72 -9 -30 -8 -32 14 -32 22 0 24 -5 27 -52 3 -52 4 -53 31 -50 25 3 28 0 23 -17 -3 -12 -9 -30 -12 -41 -7 -25 12 -26 38 -3 10 9 18 12 18 6 0 -5 6 -17 13 -27 12 -16 17 -15 77 13 75 36 95 39 85 13 -4 -9 -10 -25 -13 -36 -5 -17 -3 -17 19 -3 13 8 39 18 57 22 28 6 32 4 32 -14 0 -12 2 -21 5 -21 3 0 42 25 87 55 45 30 83 53 85 51 2 -2 -4 -19 -12 -40 l-15 -36 55 31 55 31 0 -28 0 -27 23 20 c12 11 41 32 65 47 37 23 42 24 42 9 0 -13 12 -4 38 27 l39 44 7 -28 c6 -23 9 -26 21 -16 9 7 22 33 29 59 8 25 15 37 15 27 1 -32 12 -11 30 61 10 38 23 67 30 66 7 -2 11 14 11 43 0 27 4 43 10 39 13 -8 13 -5 -5 46 -11 31 -12 45 -4 50 7 4 8 15 3 30 -4 13 -8 35 -9 49 -1 14 -4 41 -8 60 -6 27 -5 30 3 13 20 -48 42 -199 37 -259 -2 -36 -15 -86 -31 -119 -14 -32 -26 -74 -26 -94 -1 -49 -30 -111 -70 -145 -18 -15 -82 -52 -142 -82 -102 -51 -110 -54 -131 -39 -32 22 -97 19 -151 -9 -44 -22 -54 -23 -114 -15 -37 5 -80 14 -96 19 -16 6 -61 13 -100 16 -67 6 -73 9 -110 48 -21 22 -49 66 -63 96 -14 30 -33 64 -44 76 -15 16 -17 26 -10 45 7 20 4 29 -17 52 l-26 27 22 62 c15 40 19 64 12 68 -6 4 -3 20 9 46 19 40 47 125 76 228 9 32 18 56 20 54 2 -2 -3 -41 -11 -88z"/>
 </g>
<g id="layer117" fill="#244b60" stroke="none">
 <path d="M120 1982 c0 -50 34 -127 76 -172 57 -61 115 -86 255 -107 64 -10 117 -23 123 -31 6 -7 24 -25 40 -40 16 -15 44 -59 62 -98 18 -40 38 -75 45 -79 6 -4 10 -4 7 1 -56 122 -79 164 -100 180 -37 29 -40 41 -23 76 l16 33 -19 -24 -19 -24 -119 23 c-131 24 -183 43 -232 85 -37 31 -77 103 -87 158 -7 38 -25 51 -25 19z"/>
 <path d="M983 1935 c0 -38 2 -53 4 -32 2 20 2 52 0 70 -2 17 -4 1 -4 -38z"/>
 <path d="M1005 1910 c13 -168 38 -233 106 -277 109 -70 109 -70 109 -113 0 -41 14 -54 25 -21 12 38 -27 91 -100 136 -16 9 -40 27 -52 38 l-23 20 29 18 c16 9 52 55 80 102 47 79 77 115 85 106 2 -2 14 -24 26 -49 13 -25 40 -69 61 -99 22 -30 39 -65 39 -79 0 -14 -17 -43 -44 -73 -26 -29 -48 -66 -56 -94 -7 -25 -17 -48 -21 -51 -5 -3 -9 -11 -9 -17 1 -17 40 32 40 50 0 26 38 88 78 126 35 34 50 40 153 63 188 42 266 89 312 187 30 64 43 117 28 117 -6 0 -11 -6 -11 -12 0 -30 -54 -126 -93 -166 -57 -59 -102 -80 -221 -103 -55 -11 -108 -22 -117 -24 -16 -5 -81 90 -139 206 l-25 50 -27 -28 c-14 -15 -43 -55 -63 -88 -39 -63 -83 -115 -97 -115 -4 0 -17 19 -29 43 -16 30 -24 68 -28 134 -3 50 -10 95 -15 100 -4 4 -5 -34 -1 -87z"/>
 <path d="M682 1857 c-24 -45 -34 -71 -23 -57 11 14 33 49 49 78 l29 54 35 -49 c19 -26 46 -68 60 -93 33 -58 72 -94 92 -87 47 18 -18 -50 -74 -78 -68 -34 -107 -86 -95 -126 11 -33 25 -20 25 21 0 43 4 46 110 113 45 28 78 96 84 172 5 53 4 55 -4 18 -13 -60 -38 -105 -57 -101 -9 2 -36 32 -59 68 -69 106 -104 150 -117 150 -7 0 -31 -37 -55 -83z"/>
 <path d="M944 1600 c-28 -11 -114 -93 -114 -108 0 -7 17 5 38 26 21 20 53 45 70 55 31 17 31 17 25 0 -6 -16 -5 -16 10 -4 14 11 17 11 17 0 0 -12 2 -12 9 0 7 11 11 10 20 -5 9 -17 10 -17 11 -1 0 9 3 17 7 17 20 0 97 -56 114 -83 10 -18 19 -26 19 -19 0 18 -78 101 -111 118 -31 15 -82 17 -115 4z"/>
 <path d="M1015 1399 c-16 -5 -55 -6 -87 -3 -50 6 -57 4 -67 -15 -20 -37 30 -92 95 -106 24 -5 23 -3 -9 11 -56 25 -41 39 41 39 81 0 111 -16 78 -41 -23 -17 -13 -19 16 -3 29 16 50 72 38 104 -8 20 -16 25 -42 24 -18 0 -46 -5 -63 -10z m90 -19 c0 -18 -50 -25 -85 -12 -25 10 -25 10 10 20 46 14 75 11 75 -8z m-140 -9 l40 -18 -45 -6 c-25 -3 -53 -9 -62 -12 -21 -8 -36 34 -17 46 20 13 39 11 84 -10z"/>
 <path d="M684 1049 c-47 -13 -68 -53 -67 -123 1 -63 28 -129 67 -164 33 -30 103 -44 140 -28 42 18 83 64 91 101 l6 30 -14 -30 c-29 -62 -100 -102 -156 -88 -94 22 -158 189 -98 258 27 32 84 42 145 26 61 -17 101 -57 117 -116 8 -31 14 -40 14 -25 1 34 -31 100 -61 127 -13 13 -48 27 -77 33 -61 11 -65 11 -107 -1z"/>
 <path d="M1155 1043 c-86 -21 -112 -170 -44 -248 34 -38 89 -59 122 -45 18 7 14 9 -20 9 -107 2 -171 154 -99 237 18 22 34 28 79 32 102 8 161 -39 161 -129 0 -54 -21 -91 -67 -119 -38 -23 -29 -27 13 -5 47 24 70 62 70 115 0 103 -106 179 -215 153z"/>
 <path d="M1430 953 c-7 -21 -15 -120 -19 -219 -11 -257 -6 -251 -206 -273 -64 -7 -116 -20 -180 -47 -109 -44 -195 -54 -276 -31 -66 20 -135 63 -144 91 -3 12 -8 109 -11 216 -4 146 -9 207 -21 243 -9 26 -20 47 -25 47 -16 0 -37 -49 -84 -190 -26 -80 -54 -155 -62 -167 -13 -20 -12 -23 1 -23 14 0 13 -8 -5 -61 l-20 -60 25 -27 c19 -20 24 -34 20 -55 -4 -20 0 -35 14 -50 11 -12 30 -48 43 -80 14 -35 35 -67 51 -80 16 -11 29 -26 29 -33 0 -15 15 -20 105 -34 39 -6 95 -18 126 -25 80 -21 125 -19 194 10 71 29 86 30 130 9 32 -15 37 -15 102 11 206 82 273 148 273 269 0 22 12 63 28 95 25 51 27 65 26 166 -1 95 -5 121 -31 197 -17 47 -40 98 -51 113 l-21 26 -11 -38z m-906 -103 c-8 -47 -21 -105 -29 -130 -9 -25 -11 -46 -6 -48 5 -2 -2 -37 -16 -78 -26 -77 -25 -97 2 -74 13 11 15 7 15 -26 0 -22 -4 -54 -9 -72 -9 -30 -8 -32 14 -32 22 0 24 -5 27 -52 3 -52 4 -53 31 -50 25 3 28 0 23 -17 -3 -12 -9 -30 -12 -41 -7 -25 12 -26 38 -3 10 9 18 12 18 6 0 -5 6 -17 13 -27 12 -16 17 -15 77 13 75 36 95 39 85 13 -4 -9 -10 -25 -13 -36 -5 -17 -3 -17 19 -3 13 8 39 18 57 22 28 6 32 4 32 -14 0 -12 2 -21 5 -21 3 0 42 25 87 55 45 30 83 53 85 51 2 -2 -4 -19 -12 -40 l-15 -36 55 31 55 31 0 -28 0 -27 23 20 c12 11 41 32 65 47 37 23 42 24 42 9 0 -13 12 -4 38 27 l39 44 7 -28 c6 -23 9 -26 21 -16 9 7 22 33 29 59 8 25 15 37 15 27 1 -32 12 -11 30 61 10 38 23 67 30 66 7 -2 11 14 11 43 0 27 4 43 10 39 13 -8 13 -5 -5 46 -11 31 -12 45 -4 50 7 4 8 15 3 30 -4 13 -8 35 -9 49 -1 14 -4 41 -8 60 -6 27 -5 30 3 13 20 -48 42 -199 37 -259 -2 -36 -15 -86 -31 -119 -14 -32 -26 -74 -26 -94 -1 -49 -30 -111 -70 -145 -18 -15 -82 -52 -142 -82 -102 -51 -110 -54 -131 -39 -32 22 -97 19 -151 -9 -44 -22 -54 -23 -114 -15 -37 5 -80 14 -96 19 -16 6 -61 13 -100 16 -67 6 -73 9 -110 48 -21 22 -49 66 -63 96 -14 30 -33 64 -44 76 -15 16 -17 26 -10 45 7 20 4 29 -17 52 l-26 27 22 62 c15 40 19 64 12 68 -6 4 -3 20 9 46 19 40 47 125 76 228 9 32 18 56 20 54 2 -2 -3 -41 -11 -88z"/>
 </g>
<g id="layer118" fill="#463936" stroke="none">
 <path d="M120 1982 c0 -50 34 -127 76 -172 57 -61 115 -86 255 -107 64 -10 117 -23 123 -31 6 -7 24 -25 40 -40 16 -15 44 -59 62 -98 18 -40 38 -75 45 -79 6 -4 10 -4 7 1 -58 126 -80 165 -101 179 -32 20 -40 41 -26 66 9 18 8 19 -9 8 -15 -9 -43 -7 -138 10 -65 12 -137 30 -159 40 -73 33 -134 115 -150 204 -7 38 -25 51 -25 19z"/>
 <path d="M983 1945 c0 -33 2 -45 4 -27 2 18 2 45 0 60 -2 15 -4 0 -4 -33z"/>
 <path d="M1001 1980 c1 -14 5 -38 9 -55 7 -29 8 -29 9 10 0 22 -4 47 -9 55 -8 12 -9 10 -9 -10z"/>
 <path d="M1860 1988 c0 -7 -13 -40 -29 -73 -34 -71 -98 -136 -161 -164 -36 -16 -228 -61 -259 -61 -4 0 -12 15 -19 33 -7 17 -26 48 -43 67 -28 32 -28 31 5 -19 47 -70 46 -92 -8 -152 -26 -29 -48 -66 -56 -94 -7 -25 -17 -48 -21 -51 -5 -3 -9 -11 -9 -17 1 -17 40 32 40 50 0 46 107 173 147 173 37 0 233 52 233 63 0 5 3 8 6 4 4 -3 13 1 21 9 8 8 18 12 22 9 16 -9 91 67 114 118 30 64 43 117 28 117 -6 0 -11 -6 -11 -12z"/>
 <path d="M957 1780 c-22 -61 -42 -73 -70 -39 -11 13 -31 38 -45 54 l-25 30 18 -30 c27 -46 67 -85 87 -85 10 0 18 -6 19 -12 0 -7 9 16 20 52 23 80 21 99 -4 30z"/>
 <path d="M1024 1782 c10 -69 41 -120 94 -152 90 -55 102 -68 102 -111 0 -41 14 -53 25 -20 13 41 -13 74 -124 154 -47 34 -62 57 -39 57 17 0 47 31 74 75 12 20 3 14 -25 -17 -23 -27 -47 -48 -52 -48 -6 0 -21 24 -35 53 l-26 52 6 -43z"/>
 <path d="M920 1666 c-6 -8 -33 -25 -58 -37 -80 -38 -120 -87 -107 -130 11 -33 24 -21 27 24 3 40 7 44 68 84 62 41 101 73 88 73 -3 0 -11 -7 -18 -14z"/>
 <path d="M944 1600 c-28 -11 -114 -93 -114 -108 0 -7 17 5 38 26 21 20 53 45 70 55 31 17 31 17 25 0 -6 -16 -5 -16 10 -4 14 11 17 11 17 0 0 -12 2 -12 9 0 7 11 11 10 20 -5 9 -17 10 -17 11 -1 0 9 3 17 7 17 20 0 97 -56 114 -83 10 -18 19 -26 19 -19 0 18 -78 101 -111 118 -31 15 -82 17 -115 4z"/>
 <path d="M1015 1399 c-16 -5 -55 -6 -87 -3 -50 6 -57 4 -67 -15 -20 -37 30 -92 95 -106 24 -5 23 -3 -9 11 -56 25 -41 39 41 39 81 0 111 -16 78 -41 -23 -17 -13 -19 16 -3 29 16 50 72 38 104 -8 20 -16 25 -42 24 -18 0 -46 -5 -63 -10z m90 -19 c0 -18 -50 -25 -85 -12 -25 10 -25 10 10 20 46 14 75 11 75 -8z m-140 -9 l40 -18 -45 -6 c-25 -3 -53 -9 -62 -12 -21 -8 -36 34 -17 46 20 13 39 11 84 -10z"/>
 <path d="M684 1049 c-47 -13 -68 -53 -67 -123 1 -63 28 -129 67 -164 33 -30 103 -44 140 -28 42 18 83 64 91 101 l6 30 -14 -30 c-29 -62 -100 -102 -156 -88 -94 22 -158 189 -98 258 27 32 84 42 145 26 61 -17 101 -57 117 -116 8 -31 14 -40 14 -25 1 34 -31 100 -61 127 -13 13 -48 27 -77 33 -61 11 -65 11 -107 -1z"/>
 <path d="M1155 1043 c-86 -21 -112 -170 -44 -248 34 -38 89 -59 122 -45 18 7 14 9 -20 9 -107 2 -171 154 -99 237 18 22 34 28 79 32 102 8 161 -39 161 -129 0 -54 -21 -91 -67 -119 -38 -23 -29 -27 13 -5 47 24 70 62 70 115 0 103 -106 179 -215 153z"/>
 <path d="M1430 953 c-7 -21 -15 -120 -19 -219 -11 -257 -6 -251 -206 -273 -64 -7 -116 -20 -180 -47 -109 -44 -195 -54 -276 -31 -66 20 -135 63 -144 91 -3 12 -8 109 -11 216 -4 146 -9 207 -21 243 -9 26 -20 47 -25 47 -16 0 -37 -49 -84 -190 -26 -80 -54 -155 -62 -167 -13 -20 -12 -23 1 -23 14 0 13 -8 -5 -61 l-20 -60 25 -27 c19 -20 24 -34 20 -55 -4 -20 0 -35 14 -50 11 -12 30 -48 43 -80 14 -35 35 -67 51 -80 16 -11 29 -26 29 -33 0 -15 15 -20 105 -34 39 -6 95 -18 126 -25 80 -21 125 -19 194 10 71 29 86 30 130 9 32 -15 37 -15 102 11 206 82 273 148 273 269 0 22 12 63 28 95 25 51 27 65 26 166 -1 95 -5 121 -31 197 -17 47 -40 98 -51 113 l-21 26 -11 -38z m-906 -103 c-8 -47 -21 -105 -29 -130 -9 -25 -11 -46 -6 -48 5 -2 -2 -37 -16 -78 -26 -77 -25 -97 2 -74 13 11 15 7 15 -26 0 -22 -4 -54 -9 -72 -9 -30 -8 -32 14 -32 22 0 24 -5 27 -52 3 -52 4 -53 31 -50 25 3 28 0 23 -17 -3 -12 -9 -30 -12 -41 -7 -25 12 -26 38 -3 10 9 18 12 18 6 0 -5 6 -17 13 -27 12 -16 17 -15 77 13 75 36 95 39 85 13 -4 -9 -10 -25 -13 -36 -5 -17 -3 -17 19 -3 13 8 39 18 57 22 28 6 32 4 32 -14 0 -12 2 -21 5 -21 3 0 42 25 87 55 45 30 83 53 85 51 2 -2 -4 -19 -12 -40 l-15 -36 55 31 55 31 0 -28 0 -27 23 20 c12 11 41 32 65 47 37 23 42 24 42 9 0 -13 12 -4 38 27 l39 44 7 -28 c6 -23 9 -26 21 -16 9 7 22 33 29 59 8 25 15 37 15 27 1 -32 12 -11 30 61 10 38 23 67 30 66 7 -2 11 14 11 43 0 27 4 43 10 39 13 -8 13 -5 -5 46 -11 31 -12 45 -4 50 7 4 8 15 3 30 -4 13 -8 35 -9 49 -1 14 -4 41 -8 60 -6 27 -5 30 3 13 20 -48 42 -199 37 -259 -2 -36 -15 -86 -31 -119 -14 -32 -26 -74 -26 -94 -1 -49 -30 -111 -70 -145 -18 -15 -82 -52 -142 -82 -102 -51 -110 -54 -131 -39 -32 22 -97 19 -151 -9 -44 -22 -54 -23 -114 -15 -37 5 -80 14 -96 19 -16 6 -61 13 -100 16 -67 6 -73 9 -110 48 -21 22 -49 66 -63 96 -14 30 -33 64 -44 76 -15 16 -17 26 -10 45 7 20 4 29 -17 52 l-26 27 22 62 c15 40 19 64 12 68 -6 4 -3 20 9 46 19 40 47 125 76 228 9 32 18 56 20 54 2 -2 -3 -41 -11 -88z"/>
 </g>
<g id="layer119" fill="#681f1e" stroke="none">
 <path d="M120 1982 c0 -50 34 -127 76 -172 57 -61 115 -86 255 -107 64 -10 117 -23 123 -31 6 -7 24 -25 40 -40 16 -15 44 -59 62 -98 18 -40 38 -75 45 -79 6 -4 10 -4 7 1 -58 126 -80 165 -101 179 -32 20 -40 41 -26 66 9 18 8 19 -9 8 -15 -9 -43 -7 -138 10 -65 12 -137 30 -159 40 -73 33 -134 115 -150 204 -7 38 -25 51 -25 19z"/>
 <path d="M983 1945 c0 -33 2 -45 4 -27 2 18 2 45 0 60 -2 15 -4 0 -4 -33z"/>
 <path d="M1001 1980 c1 -14 5 -38 9 -55 7 -29 8 -29 9 10 0 22 -4 47 -9 55 -8 12 -9 10 -9 -10z"/>
 <path d="M1860 1988 c0 -7 -13 -40 -29 -73 -34 -71 -98 -136 -161 -164 -36 -16 -228 -61 -259 -61 -4 0 -12 15 -19 33 -7 17 -26 48 -43 67 -28 32 -28 31 5 -19 47 -70 46 -92 -8 -152 -26 -29 -48 -66 -56 -94 -7 -25 -17 -48 -21 -51 -5 -3 -9 -11 -9 -17 1 -17 40 32 40 50 0 46 107 173 147 173 31 0 233 52 233 60 0 4 22 17 49 29 54 23 95 65 121 126 25 57 34 105 21 105 -6 0 -11 -6 -11 -12z"/>
 <path d="M957 1780 c-22 -61 -42 -73 -70 -39 -11 13 -31 38 -45 54 l-25 30 18 -30 c27 -46 67 -85 87 -85 10 0 18 -6 19 -12 0 -7 9 16 20 52 23 80 21 99 -4 30z"/>
 <path d="M1024 1782 c10 -69 41 -120 94 -152 90 -55 102 -68 102 -111 0 -41 14 -53 25 -20 13 41 -13 74 -124 154 -47 34 -62 57 -39 57 17 0 47 31 74 75 12 20 3 14 -25 -17 -23 -27 -47 -48 -52 -48 -6 0 -21 24 -35 53 l-26 52 6 -43z"/>
 <path d="M920 1665 c-7 -8 -35 -25 -64 -39 -79 -37 -120 -93 -97 -133 8 -15 10 -16 15 -3 3 8 6 29 8 45 2 25 15 38 68 72 62 41 101 73 88 73 -3 0 -11 -7 -18 -15z"/>
 <path d="M970 1594 c0 -8 5 -12 10 -9 6 3 10 0 10 -7 0 -8 3 -9 8 -3 4 6 13 11 20 13 15 3 68 -23 96 -47 11 -9 16 -10 12 -4 -4 7 -27 26 -51 43 -48 33 -105 41 -105 14z"/>
 <path d="M925 1581 c-16 -10 -43 -33 -60 -52 l-30 -33 40 34 c22 19 51 43 65 52 34 23 22 22 -15 -1z"/>
 <path d="M1020 1399 c-14 -6 -52 -7 -86 -3 -57 6 -63 4 -73 -15 -20 -37 30 -92 95 -106 24 -5 23 -3 -9 11 -56 25 -41 39 41 39 81 0 111 -16 78 -41 -23 -17 -13 -19 16 -3 11 6 26 26 34 46 13 31 13 38 -1 59 -17 26 -51 30 -95 13z m85 -19 c0 -18 -50 -25 -85 -12 -25 10 -25 10 10 20 46 14 75 11 75 -8z m-140 -9 l40 -18 -45 -6 c-25 -3 -53 -9 -62 -12 -21 -8 -36 34 -17 46 20 13 39 11 84 -10z"/>
 <path d="M700 1053 c-36 -7 -77 -49 -84 -87 -9 -45 20 -145 53 -186 37 -46 110 -66 157 -44 43 21 81 63 89 99 l6 30 -14 -30 c-30 -62 -98 -100 -157 -88 -90 18 -156 180 -102 252 43 58 174 50 231 -15 17 -19 31 -40 31 -46 0 -6 3 -9 6 -6 8 9 -14 48 -44 80 -29 32 -114 52 -172 41z"/>
 <path d="M1153 1043 c-26 -5 -73 -57 -73 -81 0 -11 7 -5 20 15 10 17 28 37 39 42 25 14 116 14 142 1 10 -6 19 -8 19 -5 0 3 -16 13 -35 21 -33 14 -67 16 -112 7z"/>
 <path d="M1327 985 c45 -65 41 -123 -10 -182 -25 -28 -27 -34 -10 -25 12 7 31 24 42 38 37 47 23 145 -25 185 -15 11 -14 8 3 -16z"/>
 <path d="M1429 953 c-6 -21 -13 -110 -16 -198 -6 -254 -16 -273 -144 -286 -120 -11 -142 -16 -259 -61 -96 -37 -110 -40 -180 -36 -74 4 -155 33 -204 72 -24 19 -36 127 -35 304 0 104 -3 144 -17 182 -10 28 -21 50 -26 50 -14 0 -45 -72 -89 -205 -23 -71 -49 -140 -57 -152 -13 -20 -12 -23 1 -23 14 0 13 -8 -5 -61 l-20 -60 25 -27 c19 -20 24 -34 20 -55 -4 -20 0 -35 14 -50 11 -12 30 -48 43 -80 14 -35 35 -67 51 -80 16 -11 29 -26 29 -33 0 -15 15 -20 105 -34 39 -6 95 -18 126 -25 80 -21 125 -19 194 10 71 29 86 30 130 9 32 -15 37 -15 102 11 206 82 273 148 273 269 0 22 12 63 28 95 24 50 27 67 27 161 0 77 -5 120 -19 160 -31 91 -49 134 -67 158 l-18 23 -12 -38z m-896 -80 c-13 -84 -27 -145 -40 -180 -4 -10 -2 -14 5 -9 12 7 8 -11 -22 -97 -21 -63 -21 -70 5 -56 22 11 22 10 15 -51 -4 -34 -9 -67 -12 -75 -4 -9 0 -12 14 -8 22 5 32 -18 32 -81 0 -31 3 -37 12 -28 26 26 41 14 35 -28 -6 -44 -2 -48 23 -25 16 14 18 13 30 -15 l13 -30 41 24 c41 23 116 49 124 42 2 -3 -2 -14 -8 -26 -15 -27 -9 -33 21 -22 13 5 37 12 53 16 26 6 28 5 23 -14 -7 -28 0 -25 98 39 43 28 80 50 82 48 2 -2 -4 -21 -12 -41 l-16 -37 38 25 c42 29 70 33 75 11 2 -11 16 -5 57 22 37 25 55 32 61 24 5 -8 17 -1 39 24 31 36 51 39 51 8 0 -30 27 6 40 53 7 25 16 40 20 34 8 -12 40 92 40 129 0 12 4 19 10 16 6 -4 10 8 10 30 0 22 4 34 10 30 14 -9 13 5 -5 55 -18 51 -18 53 -3 44 11 -7 9 10 -8 50 -5 13 -4 17 3 13 6 -4 3 23 -8 65 -19 74 -18 103 2 52 22 -59 49 -201 49 -265 0 -48 -8 -90 -30 -152 -16 -48 -30 -98 -30 -112 0 -78 -66 -144 -215 -216 -99 -49 -105 -50 -127 -35 -34 24 -95 20 -155 -11 l-53 -26 -87 18 c-49 10 -126 23 -172 29 -71 9 -85 15 -92 32 -4 12 -15 24 -24 28 -9 3 -32 39 -50 79 -19 41 -41 80 -50 87 -11 9 -14 22 -10 44 5 25 1 36 -18 54 l-25 24 24 59 c28 69 28 69 9 69 -14 0 -14 2 0 23 16 26 69 173 80 226 8 35 33 101 39 101 2 0 -3 -39 -11 -87z m925 -108 l1 -20 -9 20 c-5 11 -8 31 -8 45 l0 25 8 -25 c4 -14 8 -34 8 -45z m-924 -224 c-4 -22 -1 -54 5 -72 6 -18 9 -34 7 -37 -11 -10 -28 79 -22 112 9 49 18 46 10 -3z m861 -91 c-3 -6 -19 -17 -36 -25 -41 -22 -193 -75 -182 -64 5 5 45 22 89 37 44 15 91 36 104 45 28 20 34 21 25 7z m-315 -106 c-141 -61 -150 -64 -150 -58 0 6 162 82 200 94 67 21 44 5 -50 -36z m-405 -24 c-11 -5 -27 -9 -35 -9 -9 0 -8 4 5 9 11 5 27 9 35 9 9 0 8 -4 -5 -9z m196 -10 c-48 -11 -167 -23 -160 -16 8 8 112 23 159 24 l35 0 -34 -8z"/>
 <path d="M1071 915 c-2 -49 17 -99 48 -129 24 -23 41 -29 83 -32 l53 -3 -47 7 c-71 11 -110 56 -128 145 -7 36 -8 38 -9 12z"/>
 </g>
<g id="layer120" fill="#3d302d" stroke="none">
 <path d="M120 1982 c0 -50 34 -127 76 -172 57 -61 115 -86 255 -107 64 -10 117 -23 123 -31 6 -7 24 -25 40 -40 16 -15 44 -59 62 -98 18 -40 38 -75 45 -79 6 -4 10 -4 7 1 -58 126 -80 165 -101 179 -32 20 -40 41 -26 66 9 18 8 19 -9 8 -15 -9 -43 -7 -138 10 -65 12 -137 30 -159 40 -73 33 -134 115 -150 204 -7 38 -25 51 -25 19z"/>
 <path d="M983 1945 c0 -33 2 -45 4 -27 2 18 2 45 0 60 -2 15 -4 0 -4 -33z"/>
 <path d="M1001 1980 c1 -14 5 -38 9 -55 7 -29 8 -29 9 10 0 22 -4 47 -9 55 -8 12 -9 10 -9 -10z"/>
 <path d="M1860 1988 c0 -7 -13 -40 -29 -73 -34 -71 -98 -136 -161 -164 -36 -16 -228 -61 -259 -61 -4 0 -12 15 -19 33 -7 17 -26 48 -43 67 -28 32 -28 31 5 -19 47 -70 46 -92 -8 -152 -26 -29 -48 -66 -56 -94 -7 -25 -17 -48 -21 -51 -5 -3 -9 -11 -9 -17 1 -17 40 32 40 50 0 46 107 173 147 173 31 0 233 52 233 60 0 4 22 17 49 29 54 23 95 65 121 126 25 57 34 105 21 105 -6 0 -11 -6 -11 -12z"/>
 <path d="M957 1780 c-22 -61 -42 -73 -70 -39 -11 13 -31 38 -45 54 l-25 30 18 -30 c27 -46 67 -85 87 -85 10 0 18 -6 19 -12 0 -7 9 16 20 52 23 80 21 99 -4 30z"/>
 <path d="M1024 1782 c10 -69 41 -120 94 -152 90 -55 102 -68 102 -111 0 -41 14 -53 25 -20 13 41 -13 74 -124 154 -47 34 -62 57 -39 57 17 0 47 31 74 75 12 20 3 14 -25 -17 -23 -27 -47 -48 -52 -48 -6 0 -21 24 -35 53 l-26 52 6 -43z"/>
 <path d="M920 1665 c-7 -8 -35 -25 -64 -39 -79 -37 -120 -93 -97 -133 8 -15 10 -16 15 -3 3 8 6 29 8 45 2 25 15 38 68 72 62 41 101 73 88 73 -3 0 -11 -7 -18 -15z"/>
 <path d="M970 1594 c0 -8 5 -12 10 -9 6 3 10 0 10 -7 0 -8 3 -9 8 -3 4 6 13 11 20 13 15 3 68 -23 96 -47 11 -9 16 -10 12 -4 -4 7 -27 26 -51 43 -48 33 -105 41 -105 14z"/>
 <path d="M925 1581 c-16 -10 -43 -33 -60 -52 l-30 -33 40 34 c22 19 51 43 65 52 34 23 22 22 -15 -1z"/>
 <path d="M1075 1401 c17 -3 31 -14 33 -24 3 -14 -4 -17 -40 -17 -24 0 -50 5 -58 10 -12 7 -10 11 10 19 20 8 16 9 -20 4 -25 -3 -46 -7 -48 -8 -10 -8 73 -35 108 -35 29 0 40 -4 37 -12 -2 -7 -11 -11 -18 -8 -8 3 -57 5 -109 6 -94 0 -95 1 -95 25 0 20 6 25 35 30 l35 6 -37 2 c-93 3 -52 -103 48 -124 24 -5 23 -3 -9 11 -56 25 -41 39 41 39 81 0 111 -16 78 -41 -23 -17 -13 -19 16 -3 11 6 26 26 34 46 13 31 13 38 -1 59 -10 16 -24 24 -43 23 l-27 -1 30 -7z"/>
 <path d="M700 1053 c-36 -7 -77 -49 -84 -87 -9 -45 20 -145 53 -186 37 -46 110 -66 157 -44 43 21 81 63 89 99 l6 30 -14 -30 c-30 -62 -98 -100 -157 -88 -90 18 -156 180 -102 252 43 58 174 50 231 -15 17 -19 31 -40 31 -46 0 -6 3 -9 6 -6 8 9 -14 48 -44 80 -29 32 -114 52 -172 41z"/>
 <path d="M1153 1043 c-26 -5 -73 -57 -73 -81 0 -11 7 -5 20 15 10 17 28 37 39 42 25 14 116 14 142 1 10 -6 19 -8 19 -5 0 3 -16 13 -35 21 -33 14 -67 16 -112 7z"/>
 <path d="M1327 985 c45 -65 41 -123 -10 -182 -25 -28 -27 -34 -10 -25 12 7 31 24 42 38 37 47 23 145 -25 185 -15 11 -14 8 3 -16z"/>
 <path d="M1429 953 c-6 -21 -13 -110 -16 -198 -6 -254 -16 -273 -144 -286 -120 -11 -142 -16 -259 -61 -96 -37 -110 -40 -180 -36 -74 4 -155 33 -204 72 -24 19 -36 127 -35 304 0 104 -3 144 -17 182 -10 28 -21 50 -26 50 -14 0 -45 -72 -89 -205 -23 -71 -49 -140 -57 -152 -13 -20 -12 -23 1 -23 14 0 13 -8 -5 -61 l-20 -60 25 -27 c19 -20 24 -34 20 -55 -4 -20 0 -35 14 -50 11 -12 30 -48 43 -80 14 -35 35 -67 51 -80 16 -11 29 -26 29 -33 0 -15 15 -20 105 -34 39 -6 95 -18 126 -25 80 -21 125 -19 194 10 71 29 86 30 130 9 32 -15 37 -15 102 11 206 82 273 148 273 269 0 22 12 63 28 95 24 50 27 67 27 161 0 77 -5 120 -19 160 -31 91 -49 134 -67 158 l-18 23 -12 -38z m-896 -80 c-13 -84 -27 -145 -40 -180 -4 -10 -2 -14 5 -9 12 7 8 -11 -22 -97 -21 -63 -21 -70 5 -56 22 11 22 10 15 -51 -4 -34 -9 -67 -12 -75 -4 -9 0 -12 14 -8 22 5 32 -18 32 -81 0 -31 3 -37 12 -28 26 26 41 14 35 -28 -6 -44 -2 -48 23 -25 16 14 18 13 30 -15 l13 -30 41 24 c41 23 116 49 124 42 2 -3 -2 -14 -8 -26 -15 -27 -9 -33 21 -22 13 5 37 12 53 16 26 6 28 5 23 -14 -7 -28 0 -25 98 39 43 28 80 50 82 48 2 -2 -4 -21 -12 -41 l-16 -37 38 25 c42 29 70 33 75 11 2 -11 16 -5 57 22 37 25 55 32 61 24 5 -8 17 -1 39 24 31 36 51 39 51 8 0 -30 27 6 40 53 7 25 16 40 20 34 8 -12 40 92 40 129 0 12 4 19 10 16 6 -4 10 8 10 30 0 22 4 34 10 30 14 -9 13 5 -5 55 -18 51 -18 53 -3 44 11 -7 9 10 -8 50 -5 13 -4 17 3 13 6 -4 3 23 -8 65 -19 74 -18 103 2 52 22 -59 49 -201 49 -265 0 -48 -8 -90 -30 -152 -16 -48 -30 -98 -30 -112 0 -78 -66 -144 -215 -216 -99 -49 -105 -50 -127 -35 -34 24 -95 20 -155 -11 l-53 -26 -87 18 c-49 10 -126 23 -172 29 -71 9 -85 15 -92 32 -4 12 -15 24 -24 28 -9 3 -32 39 -50 79 -19 41 -41 80 -50 87 -11 9 -14 22 -10 44 5 25 1 36 -18 54 l-25 24 24 59 c28 69 28 69 9 69 -14 0 -14 2 0 23 16 26 69 173 80 226 8 35 33 101 39 101 2 0 -3 -39 -11 -87z m925 -108 l1 -20 -9 20 c-5 11 -8 31 -8 45 l0 25 8 -25 c4 -14 8 -34 8 -45z m-924 -224 c-4 -22 -1 -54 5 -72 6 -18 9 -34 7 -37 -11 -10 -28 79 -22 112 9 49 18 46 10 -3z m861 -91 c-3 -6 -19 -17 -36 -25 -41 -22 -193 -75 -182 -64 5 5 45 22 89 37 44 15 91 36 104 45 28 20 34 21 25 7z m-315 -106 c-141 -61 -150 -64 -150 -58 0 6 162 82 200 94 67 21 44 5 -50 -36z m-405 -24 c-11 -5 -27 -9 -35 -9 -9 0 -8 4 5 9 11 5 27 9 35 9 9 0 8 -4 -5 -9z m196 -10 c-48 -11 -167 -23 -160 -16 8 8 112 23 159 24 l35 0 -34 -8z"/>
 <path d="M1071 915 c-2 -49 17 -99 48 -129 24 -23 41 -29 83 -32 l53 -3 -47 7 c-71 11 -110 56 -128 145 -7 36 -8 38 -9 12z"/>
 </g>
<g id="layer121" fill="#06344b" stroke="none">
 <path d="M120 1982 c0 -50 34 -127 76 -172 57 -61 115 -86 255 -107 64 -10 117 -23 123 -31 6 -7 24 -25 40 -40 16 -15 44 -59 62 -98 18 -40 38 -75 45 -79 6 -4 10 -4 7 1 -58 126 -80 165 -101 179 -32 20 -40 41 -26 66 9 18 8 19 -9 8 -15 -9 -43 -7 -138 10 -65 12 -137 30 -159 40 -73 33 -134 115 -150 204 -7 38 -25 51 -25 19z"/>
 <path d="M983 1945 c0 -33 2 -45 4 -27 2 18 2 45 0 60 -2 15 -4 0 -4 -33z"/>
 <path d="M1001 1980 c1 -14 5 -38 9 -55 7 -29 8 -29 9 10 0 22 -4 47 -9 55 -8 12 -9 10 -9 -10z"/>
 <path d="M1860 1988 c0 -7 -13 -40 -29 -73 -34 -71 -98 -136 -161 -164 -36 -16 -228 -61 -259 -61 -4 0 -12 15 -19 33 -7 17 -26 48 -43 67 -28 32 -28 31 5 -19 47 -70 46 -92 -8 -152 -26 -29 -48 -66 -56 -94 -7 -25 -17 -48 -21 -51 -5 -3 -9 -11 -9 -17 1 -17 40 32 40 50 0 46 107 173 147 173 31 0 233 52 233 60 0 4 22 17 49 29 54 23 95 65 121 126 25 57 34 105 21 105 -6 0 -11 -6 -11 -12z"/>
 <path d="M957 1780 c-22 -61 -42 -73 -70 -39 -11 13 -31 38 -45 54 l-25 30 18 -30 c27 -46 67 -85 87 -85 10 0 18 -6 19 -12 0 -7 9 16 20 52 23 80 21 99 -4 30z"/>
 <path d="M1024 1782 c10 -69 41 -120 94 -152 90 -55 102 -68 102 -111 0 -41 14 -53 25 -20 13 41 -13 74 -124 154 -47 34 -62 57 -39 57 17 0 47 31 74 75 12 20 3 14 -25 -17 -23 -27 -47 -48 -52 -48 -6 0 -21 24 -35 53 l-26 52 6 -43z"/>
 <path d="M920 1665 c-7 -8 -35 -25 -64 -39 -79 -37 -120 -93 -97 -133 8 -15 10 -16 15 -3 3 8 6 29 8 45 2 25 15 38 68 72 62 41 101 73 88 73 -3 0 -11 -7 -18 -15z"/>
 <path d="M862 1383 c-20 -38 30 -94 94 -108 22 -5 19 -2 -14 14 -24 11 -41 25 -37 31 10 15 138 12 160 -4 17 -12 18 -16 5 -32 -14 -16 -13 -16 7 -5 13 6 27 20 33 31 12 23 13 77 1 84 -5 4 -7 -3 -4 -14 5 -18 1 -20 -38 -19 -24 0 -53 4 -64 8 -18 7 -17 9 10 19 27 10 26 10 -15 5 -25 -3 -46 -7 -48 -8 -10 -8 73 -35 108 -35 29 0 40 -4 37 -12 -2 -7 -11 -11 -18 -8 -8 3 -57 5 -109 6 -94 0 -95 1 -95 25 0 20 6 25 35 30 l35 6 -37 2 c-26 1 -40 -4 -46 -16z"/>
 <path d="M694 1049 c-52 -15 -78 -52 -78 -112 1 -59 34 -145 67 -175 23 -20 86 -37 122 -33 47 6 124 93 111 124 -2 7 -5 4 -5 -5 -2 -29 -60 -87 -98 -97 -49 -14 -89 -3 -125 33 -81 81 -81 216 0 247 38 15 131 4 161 -19 14 -10 36 -34 49 -52 27 -40 30 -27 3 16 -36 60 -133 94 -207 73z"/>
 <path d="M1138 1029 c-37 -19 -58 -45 -58 -71 0 -7 9 1 20 19 26 43 48 53 117 54 42 0 52 3 38 9 -33 14 -78 10 -117 -11z"/>
 <path d="M1328 983 c43 -62 40 -122 -11 -180 -25 -28 -27 -34 -10 -25 66 36 84 126 38 195 -14 20 -28 37 -31 37 -3 0 3 -12 14 -27z"/>
 <path d="M1440 988 c0 -4 10 -23 21 -43 34 -56 61 -171 66 -280 5 -91 3 -107 -20 -165 -14 -36 -28 -87 -32 -115 -14 -101 -53 -143 -207 -221 -60 -30 -108 -56 -108 -58 0 -2 31 9 68 24 198 81 262 145 262 264 0 22 12 63 28 95 24 50 27 67 27 161 0 104 -8 141 -52 251 -15 37 -53 99 -53 87z"/>
 <path d="M521 943 c-10 -21 -38 -96 -62 -168 -23 -71 -49 -140 -57 -152 -13 -20 -12 -23 1 -23 14 0 13 -8 -5 -61 l-20 -60 25 -27 c19 -20 24 -34 20 -55 -4 -20 0 -35 14 -50 11 -12 30 -48 43 -80 12 -32 34 -67 49 -78 14 -11 29 -28 33 -37 6 -15 7 -15 7 2 1 10 -11 27 -25 39 -14 11 -41 53 -59 93 -19 41 -39 74 -45 74 -8 0 -10 13 -5 39 5 33 3 41 -19 59 l-26 20 23 62 c17 49 19 64 9 67 -10 4 -10 9 1 27 15 23 77 195 77 214 0 6 10 37 22 69 20 52 22 56 29 33 12 -43 9 -212 -5 -272 -8 -37 -10 -58 -3 -61 6 -2 6 -21 -2 -55 -15 -62 0 -128 26 -117 13 4 15 -2 11 -39 l-5 -44 33 5 c37 6 40 2 23 -29 -10 -19 -9 -21 17 -15 71 16 78 17 64 11 -21 -9 -60 -46 -60 -57 0 -5 6 -5 13 2 17 14 124 37 210 46 l69 7 -19 -28 -18 -28 45 26 c59 35 163 78 225 94 l50 13 -30 -25 -30 -26 40 20 c22 10 66 27 97 37 31 10 65 26 74 36 23 26 37 24 29 -3 -4 -17 -1 -15 11 7 10 17 18 52 18 82 1 43 3 49 15 40 13 -11 12 23 -2 118 -1 6 3 9 10 8 9 -2 9 7 -2 36 -13 37 -19 78 -16 111 1 13 2 13 12 0 11 -17 2 75 -11 98 -13 26 -29 -94 -29 -221 -1 -132 -12 -199 -38 -229 -17 -19 -40 -24 -138 -33 -76 -7 -117 -18 -234 -62 -127 -47 -200 -48 -292 -5 -35 17 -72 37 -82 45 -26 21 -35 97 -36 285 0 139 -3 169 -20 207 -11 25 -22 45 -25 45 -3 0 -14 -17 -25 -37z"/>
 <path d="M1072 910 c0 -19 2 -27 5 -17 2 9 2 25 0 35 -3 9 -5 1 -5 -18z"/>
 <path d="M1081 852 c-1 -12 14 -38 32 -58 28 -30 40 -37 82 -40 l50 -3 -42 8 c-48 8 -88 41 -108 86 -12 27 -13 28 -14 7z"/>
 <path d="M625 129 c28 -5 91 -19 140 -30 50 -10 110 -19 135 -18 l45 1 -57 9 c-31 4 -83 15 -115 23 -32 8 -89 17 -128 19 -66 5 -67 5 -20 -4z"/>
 <path d="M1006 125 c-21 -7 -43 -18 -49 -24 -6 -6 13 -1 41 9 63 24 78 25 116 5 16 -9 31 -13 33 -11 8 8 -55 36 -79 36 -13 -1 -40 -7 -62 -15z"/>
 </g>
<g id="layer122" fill="#2f211e" stroke="none">
 <path d="M862 1383 c-20 -38 30 -94 94 -108 22 -5 19 -2 -14 14 -24 11 -41 25 -37 31 10 15 138 12 160 -4 17 -12 18 -16 5 -32 -14 -16 -13 -16 7 -5 13 6 27 20 33 31 12 23 13 77 1 84 -5 4 -7 -3 -4 -14 5 -18 1 -20 -38 -19 -24 0 -53 4 -64 8 -18 7 -17 9 10 19 27 10 26 10 -15 5 -25 -3 -46 -7 -48 -8 -10 -8 73 -35 108 -35 29 0 40 -4 37 -12 -2 -7 -11 -11 -18 -8 -8 3 -57 5 -109 6 -94 0 -95 1 -95 25 0 20 6 25 35 30 l35 6 -37 2 c-26 1 -40 -4 -46 -16z"/>
 <path d="M694 1049 c-52 -15 -78 -52 -78 -112 1 -59 34 -145 67 -175 23 -20 86 -37 122 -33 47 6 124 93 111 124 -2 7 -5 4 -5 -5 -2 -29 -60 -87 -98 -97 -49 -14 -89 -3 -125 33 -81 81 -81 216 0 247 38 15 131 4 161 -19 14 -10 36 -34 49 -52 27 -40 30 -27 3 16 -36 60 -133 94 -207 73z"/>
 <path d="M1138 1029 c-37 -19 -58 -45 -58 -71 0 -7 9 1 20 19 26 43 48 53 117 54 42 0 52 3 38 9 -33 14 -78 10 -117 -11z"/>
 <path d="M1328 983 c43 -62 40 -122 -11 -180 -25 -28 -27 -34 -10 -25 66 36 84 126 38 195 -14 20 -28 37 -31 37 -3 0 3 -12 14 -27z"/>
 <path d="M1440 988 c0 -4 10 -23 21 -43 34 -56 61 -171 66 -280 5 -91 3 -107 -20 -165 -14 -36 -28 -87 -32 -115 -14 -101 -53 -143 -207 -221 -60 -30 -108 -56 -108 -58 0 -2 31 9 68 24 198 81 262 145 262 264 0 22 12 63 28 95 24 50 27 67 27 161 0 104 -8 141 -52 251 -15 37 -53 99 -53 87z"/>
 <path d="M521 943 c-10 -21 -38 -96 -62 -168 -23 -71 -49 -140 -57 -152 -13 -20 -12 -23 1 -23 14 0 13 -8 -5 -61 l-20 -60 25 -27 c19 -20 24 -34 20 -55 -4 -20 0 -35 14 -50 11 -12 30 -48 43 -80 12 -32 34 -67 49 -78 14 -11 29 -28 33 -37 6 -15 7 -15 7 2 1 10 -11 27 -25 39 -14 11 -41 53 -59 93 -19 41 -39 74 -45 74 -8 0 -10 13 -5 39 5 33 3 41 -19 59 l-26 20 23 62 c17 49 19 64 9 67 -10 4 -10 9 1 27 15 23 77 195 77 214 0 6 10 37 22 69 20 52 22 56 29 33 12 -43 9 -212 -5 -272 -8 -37 -10 -58 -3 -61 6 -2 6 -21 -2 -55 -15 -62 0 -128 26 -117 13 4 15 -2 11 -39 l-5 -44 33 5 c37 6 40 2 23 -29 -10 -19 -9 -21 17 -15 71 16 78 17 64 11 -21 -9 -60 -46 -60 -57 0 -5 6 -5 13 2 17 14 124 37 210 46 l69 7 -19 -28 -18 -28 45 26 c59 35 163 78 225 94 l50 13 -30 -25 -30 -26 40 20 c22 10 66 27 97 37 31 10 65 26 74 36 23 26 37 24 29 -3 -4 -17 -1 -15 11 7 10 17 18 52 18 82 1 43 3 49 15 40 13 -11 12 23 -2 118 -1 6 3 9 10 8 9 -2 9 7 -2 36 -13 37 -19 78 -16 111 1 13 2 13 12 0 11 -17 2 75 -11 98 -13 26 -29 -94 -29 -221 -1 -132 -12 -199 -38 -229 -17 -19 -40 -24 -138 -33 -76 -7 -117 -18 -234 -62 -127 -47 -200 -48 -292 -5 -35 17 -72 37 -82 45 -26 21 -35 97 -36 285 0 139 -3 169 -20 207 -11 25 -22 45 -25 45 -3 0 -14 -17 -25 -37z"/>
 <path d="M1072 910 c0 -19 2 -27 5 -17 2 9 2 25 0 35 -3 9 -5 1 -5 -18z"/>
 <path d="M1081 852 c-1 -12 14 -38 32 -58 28 -30 40 -37 82 -40 l50 -3 -42 8 c-48 8 -88 41 -108 86 -12 27 -13 28 -14 7z"/>
 <path d="M625 129 c28 -5 91 -19 140 -30 50 -10 110 -19 135 -18 l45 1 -57 9 c-31 4 -83 15 -115 23 -32 8 -89 17 -128 19 -66 5 -67 5 -20 -4z"/>
 <path d="M1006 125 c-21 -7 -43 -18 -49 -24 -6 -6 13 -1 41 9 63 24 78 25 116 5 16 -9 31 -13 33 -11 8 8 -55 36 -79 36 -13 -1 -40 -7 -62 -15z"/>
 </g>
<g id="layer123" fill="#281917" stroke="none">
 <path d="M861 1382 c-14 -27 7 -63 54 -89 22 -13 47 -23 55 -23 8 0 -4 9 -28 20 -24 11 -41 24 -37 30 10 15 138 12 160 -4 17 -12 18 -16 5 -32 -14 -17 -14 -17 11 0 28 18 39 44 38 86 -1 17 -3 19 -6 8 -3 -13 -15 -18 -41 -18 -48 0 -83 10 -76 21 3 5 -7 9 -23 9 l-27 0 24 -17 c13 -9 48 -19 77 -21 34 -3 52 -9 50 -16 -3 -6 -11 -9 -18 -6 -8 3 -57 5 -109 6 -94 0 -95 1 -95 25 0 20 6 25 35 30 l35 6 -37 2 c-27 1 -40 -4 -47 -17z"/>
 <path d="M701 1049 c-45 -9 -77 -45 -84 -94 -5 -34 -4 -36 5 -15 35 88 56 103 140 97 68 -6 111 -29 134 -73 10 -18 20 -32 22 -30 9 9 -31 66 -60 87 -36 26 -106 38 -157 28z"/>
 <path d="M1145 1031 c-39 -17 -75 -64 -62 -78 4 -3 7 1 7 9 0 9 14 28 31 42 25 22 41 26 92 27 44 0 56 3 42 9 -32 14 -67 11 -110 -9z"/>
 <path d="M1351 942 c16 -46 3 -96 -34 -139 -27 -30 -28 -34 -9 -24 54 29 81 132 47 177 -13 17 -14 16 -4 -14z"/>
 <path d="M566 898 c7 -34 14 -92 15 -128 l2 -65 6 60 c6 62 -9 169 -27 187 -6 6 -4 -17 4 -54z"/>
 <path d="M1072 910 c0 -19 2 -27 5 -17 2 9 2 25 0 35 -3 9 -5 1 -5 -18z"/>
 <path d="M621 895 c-1 -27 42 -116 65 -136 20 -18 86 -34 119 -30 44 6 116 82 115 123 -1 7 -7 -1 -14 -17 -7 -17 -28 -43 -45 -58 -84 -71 -188 -27 -227 96 -7 23 -13 33 -13 22z"/>
 <path d="M473 812 c-12 -31 -30 -82 -39 -112 -9 -30 -24 -66 -33 -80 -10 -15 -11 -21 -3 -16 19 12 47 73 77 169 31 100 30 124 -2 39z"/>
 <path d="M1081 862 c-1 -19 24 -64 45 -84 11 -9 33 -19 49 -23 l30 -6 -30 14 c-36 17 -70 53 -84 87 -5 14 -10 19 -10 12z"/>
 <path d="M1515 805 c2 -16 9 -61 16 -98 13 -80 1 -165 -31 -231 -11 -23 -20 -55 -20 -70 0 -100 -62 -172 -204 -241 -53 -25 -96 -47 -96 -49 0 -7 105 36 161 65 64 35 127 94 136 130 3 13 8 47 10 74 3 28 17 75 31 105 24 50 27 66 27 165 -1 83 -5 119 -18 145 -17 35 -17 35 -12 5z"/>
 <path d="M1418 785 c-3 -4 -4 -21 -1 -39 7 -48 -14 -205 -32 -233 -21 -31 -55 -44 -132 -49 -81 -5 -136 -18 -220 -50 -37 -14 -88 -32 -113 -39 -28 -8 -36 -14 -22 -14 12 -1 55 11 95 25 117 43 198 63 260 63 69 1 120 20 142 55 9 13 21 56 26 95 11 75 9 197 -3 186z"/>
 <path d="M580 614 c1 -90 13 -152 35 -172 17 -16 17 -16 1 9 -10 16 -18 60 -22 125 -8 117 -14 136 -14 38z"/>
 <path d="M417 593 c-2 -4 -12 -32 -22 -61 l-17 -54 26 -27 c18 -18 24 -34 20 -51 -4 -22 -3 -23 5 -5 14 30 13 34 -15 60 l-26 24 21 57 c12 31 20 59 17 61 -2 2 -6 1 -9 -4z"/>
 <path d="M675 400 c8 -13 103 -42 122 -37 14 4 13 5 -4 6 -13 0 -45 10 -73 20 -27 11 -48 15 -45 11z"/>
 <path d="M436 348 c12 -13 31 -49 43 -80 13 -31 34 -65 48 -75 14 -10 29 -27 33 -38 6 -14 9 -15 9 -4 1 8 -15 30 -34 49 -19 19 -35 38 -35 43 0 21 -52 116 -68 122 -13 5 -13 2 4 -17z"/>
 <path d="M1013 127 c-17 -7 -35 -15 -39 -20 -10 -10 58 13 71 24 11 11 8 11 -32 -4z"/>
 <path d="M750 104 c52 -12 118 -23 145 -22 49 1 49 1 -15 9 -36 4 -92 15 -125 23 -32 9 -68 16 -80 15 -11 0 23 -12 75 -25z"/>
 </g>
<g id="layer124" fill="#100b0a" stroke="none">
 <path d="M973 1374 c16 -9 31 -13 35 -10 3 3 0 6 -7 6 -7 0 -9 5 -6 10 4 6 -6 10 -22 10 l-28 -1 28 -15z"/>
 <path d="M1065 1359 l-50 -6 43 -1 c30 -2 42 -6 39 -14 -2 -7 -15 -12 -28 -10 -23 2 -23 2 -4 -12 17 -12 18 -16 5 -32 -14 -17 -14 -17 12 0 22 14 49 73 36 79 -1 1 -25 0 -53 -4z"/>
 <path d="M860 1349 c0 -9 8 -23 18 -31 20 -18 77 -48 89 -48 4 1 -9 10 -30 21 -21 11 -35 24 -32 29 4 6 -1 10 -9 10 -8 0 -20 8 -25 18 -9 14 -10 15 -11 1z"/>
 <path d="M948 1333 c17 -2 47 -2 65 0 17 2 3 4 -33 4 -36 0 -50 -2 -32 -4z"/>
 <path d="M651 1024 c-20 -17 -31 -35 -31 -52 0 -26 1 -26 18 8 20 40 53 60 102 60 57 0 107 -19 141 -53 24 -24 29 -26 20 -9 -6 12 -30 33 -51 47 -32 20 -53 25 -104 25 -55 0 -69 -4 -95 -26z"/>
 <path d="M1145 1030 c-22 -11 -31 -17 -20 -13 11 3 47 9 80 12 47 5 55 8 35 13 -37 11 -51 9 -95 -12z"/>
 <path d="M1350 947 c15 -41 12 -68 -10 -112 -25 -49 -18 -59 9 -14 25 40 27 107 6 135 -14 18 -14 17 -5 -9z"/>
 <path d="M621 895 c-1 -27 42 -116 66 -137 10 -10 44 -20 76 -24 51 -6 60 -4 92 20 32 25 72 83 63 92 -2 2 -12 -12 -22 -31 -25 -47 -93 -80 -143 -70 -48 9 -98 62 -117 123 -8 26 -15 38 -15 27z"/>
 <path d="M1080 862 c0 -28 52 -102 73 -102 6 0 -2 11 -17 25 -15 14 -33 40 -41 57 -8 18 -14 27 -15 20z"/>
 </g>

</svg>