<?xml version="1.0" encoding="UTF-8" standalone="no"?>
<svg xmlns:rdf="http://www.w3.org/1999/02/22-rdf-syntax-ns#" xmlns="http://www.w3.org/2000/svg" height="200" viewBox="0 0 200 200" width="200" version="1.1" xmlns:cc="http://creativecommons.org/ns#" xmlns:dc="http://purl.org/dc/elements/1.1/">
 <path d="m10.6 195c4.26-11.2 10.4-18.5 18.5-22.1 4.76-2.1 27.3-6.07 30.2-5.31 2.06.539 11.6-5.86 16.2-10.8l2.28-2.49-4.02-2.79c-5.68-3.94-11.9-10.9-14.1-15.9-1.02-2.31-2.16-7.12-2.54-10.7-.607-5.82-.992-6.67-3.8-8.49-2.18-1.41-3.61-3.52-4.74-7-.887-2.74-3.25-8.06-5.25-11.8-3.6-7.1-4.7-12.7-2.8-14.7 1-.9.3-7.8-1.9-19.2-1.3-6.8-.8-12.3 1.5-14.2.8-.7 1.5-2.3 1.5-3.7 0-2.8 3.6-10.3 5-10.3.530 0 2.07-2.19 3.43-4.87 2.65-5.23 7.67-10.1 10.4-10.1.920-.0035 2.42-1.32 3.34-2.93 2.7-4.7 9.5-9.1 14.1-9.1 2.14 0 5.34-.766 7.1-1.7 4.59-2.44 24.8-2.44 29.4 0 2 .93 5 1.7 7 1.7 4.53 0 11.4 4.4 14 9.02.910 1.59 2.64 3.13 3.84 3.43 3.33.837 7.93 5.13 9.39 8.78.720 1.8 2.76 4.91 4.53 6.91s3.53 5.15 3.91 7 1.61 5.31 2.74 7.7c1.89 4.02 1.95 4.86.780 11.5-2.31 13.1-2.86 19.1-1.9 20.8 1.33 2.49-.678 10.6-3.72 15-1.39 2.02-3.3 6.29-4.25 9.5-1.3 4.4-2.48 6.32-4.81 7.83-2.77 1.79-3.16 2.68-3.78 8.5-.382 3.58-1.52 8.38-2.52 10.7-2.14 4.9-8.35 11.9-14 15.8-2.21 1.53-3.9 3.15-3.74 3.58.154.436 3.38 3.26 7.17 6.27 4.54 3.61 7.77 5.46 9.5 5.41 1.44-.0349 5.09.422 8.12 1.02 3.02.593 7.98 1.38 11 1.75 16.1 1.97 24.5 9.03 30.1 25.1l3 5h-181zm64.6-103c.348-.564.0374-.901-.691-.75-.9.2-1.3-.8-1.2-3.4.1-3-.2-3.8-1.7-3.8-3.28 0-4.95 1.19-4.95 3.55 0 3.77 6.75 7.28 8.52 4.42zm55.8-1c2.28-2.28 2.53-4.07.8-5.8-1.99-1.99-9.51-1.16-8.24.905.862 1.39 2.64 1.05 1.85-.355-.552-.977-.409-.974.655.0140 1.07.997 1.12 1.9.234 4.25-1 2.7-1 3 1 3 1.05 0 2.81-.9 3.91-2zm-43.3-.9c.8-1.6.6-2.3-1.2-3.5-3.2-2.2-3.5-2-4 1.9-.361 3.09-.143 3.5 1.86 3.5 1.25 0 2.73-.873 3.3-1.94zm29.3-2v-3.9l-2.69 1.39c-1.48.764-2.98 1.86-3.34 2.44-1 1.6 2 4 4 4 1.81 0 2.13-.589 2.13-3.9zm-35.8-2.1c-.340-.55-1.07-1-1.62-1s-.722.45-.382 1 1.07 1 1.62 1 .722-.45.382-1z" fill="#3386ac"/>
 <path d="m10.1 197c2.33-9.79 10.4-19.9 18.9-23.8 4.57-2.07 21.8-5.41 30.2-5.86 3.19-.169 10.8-5.18 15.7-10.4l2.78-2.92-4.03-2.79c-5.68-3.94-11.9-10.9-14.1-15.9-1.02-2.31-2.16-7.12-2.54-10.7-.607-5.82-.992-6.67-3.8-8.49-2.18-1.41-3.61-3.52-4.74-7-.887-2.74-3.25-8.06-5.25-11.8-3.4-6.1-4.5-11.7-2.6-13.7 1-.9.3-7.8-1.9-19.2-1.3-6.8-.8-12.3 1.5-14.2.8-.7 1.5-2.3 1.5-3.7 0-2.8 3.6-10.3 5-10.3.530 0 2.07-2.19 3.43-4.87 2.65-5.23 7.67-10.1 10.4-10.1.920-.0035 2.42-1.32 3.34-2.93 2.7-4.7 9.5-9.1 14.1-9.1 2.14 0 5.34-.766 7.1-1.7 4.59-2.44 24.8-2.44 29.4 0 2 .93 5 1.7 7 1.7 4.53 0 11.4 4.4 14 9.02.910 1.59 2.64 3.13 3.84 3.43 3.33.837 7.93 5.13 9.39 8.78.720 1.8 2.76 4.91 4.53 6.91s3.53 5.15 3.91 7 1.61 5.31 2.74 7.7c1.89 4.02 1.95 4.86.780 11.5-2.31 13.1-2.86 19.1-1.9 20.8 1.33 2.49-.678 10.6-3.72 15-1.39 2.02-3.3 6.29-4.25 9.5-1.3 4.4-2.48 6.32-4.81 7.83-2.77 1.79-3.16 2.68-3.78 8.5-.382 3.58-1.52 8.38-2.52 10.7-2.13 4.89-8.35 11.9-14 15.8-2.2 1.52-3.99 3.07-3.99 3.43 0 .364 3.13 3.12 6.96 6.11 7.29 5.71 7.49 5.78 23.5 7.94 16.7 2.25 24.1 5.62 29.5 13.5 2.71 3.94 7.01 14.2 7.01 16.7 0 2.43-1.85.299-2.95-3.41-3.14-10.5-9.07-18.2-16.3-21.2-2.09-.870-8.16-2.24-13.5-3.04-11.4-1.71-13-1.8-11.7-.609.522.477 5.22 1.42 10.4 2.1 11.5 1.49 18 4.09 22.1 8.84 3.1 3.53 8.86 14.5 8.86 16.9.00063.991-18.3 1.25-88.1 1.25h-87.5zm12.2-14.8c4.94-4.94 10.3-7.12 22.3-9.09 6.5-1.07 9.76-2 9.14-2.62-1.26-1.26-17.4 1.66-23.4 4.23-2.44 1.05-6.07 3.53-8.06 5.52-3.53 3.53-9.6 13.1-9.6 15.1 0 .55 1.35-1.35 2.99-4.22 1.65-2.87 4.64-6.87 6.65-8.88zm59.3 4.12c0-.261-1.35-1.17-3-2.03-3.76-1.94-3.99-1.1-.25.928 3.14 1.7 3.25 1.74 3.25 1.1zm43.5-5.08c3.3-2.34 7.55-5.87 9.45-7.85 2.03-2.12 4.5-3.65 6-3.73 2.43-.129 2.44-.158.249-.577-1.66-.318-3.51.671-6.65 3.56-2.39 2.2-7.2 6.1-10.7 8.67-10.3 7.56-9.05 7.5 1.65-.0805zm-63.3-9c-3.02-3.11-8.08-5.06-6.5-2.5.340.55 1.41 1 2.38 1 .972 0 2.82 1.12 4.12 2.5 1.29 1.38 2.58 2.5 2.87 2.5.287 0-1-1.58-2.87-3.5zm13.5-80c.348-.564.0374-.901-.691-.75-.928.192-1.29-.849-1.21-3.48.118-3.87-1.12-4.65-5.03-3.14-2.03.781-2.04 4.79-.0104 6.82 1.77 1.77 5.98 2.1 6.94.547zm55.8-1c2.28-2.28 2.53-4.07.8-5.8-1.99-1.99-9.51-1.16-8.24.905.862 1.39 2.64 1.05 1.85-.355-.552-.977-.409-.974.655.0140 1.07.997 1.12 1.9.234 4.25-1 2.7-1 3 1 3 1.05 0 2.81-.9 3.91-2zm-43.3-.9c.8-1.6.6-2.3-1.2-3.5-3.2-2.2-3.5-2-4 1.9-.361 3.09-.143 3.5 1.86 3.5 1.25 0 2.73-.873 3.3-1.94zm29.3-2c0-3.8-.0417-3.85-2.83-2.87-1.56.543-3.07 1.61-3.36 2.37-1 2 2 4.4 4 4.4 1.8 0 2.13-.590 2.13-3.86zm-35.3-2.1c0-.55-.702-1-1.56-1-.857 0-1.28.45-.941 1 .340.55 1.04 1 1.56 1 .518 0 .941-.45.941-1z" fill="#926049"/>
 <path d="m10.1 197c2.33-9.79 10.4-19.9 18.9-23.8 5.09-2.31 24.3-5.9 30.2-5.64 2.28.104 4.9-1.33 10.8-5.89 4.25-3.32 7.74-6.39 7.74-6.82 0-.434-2.69-2.88-5.98-5.43-9-7-12.8-14-14.2-24-.9-7-1.5-9-2.8-9-2.44 0-4.71-2.98-5.5-7.24-.382-2.06-2.24-6.3-4.12-9.43-4-6.3-5.6-12.2-4.4-15.6.9-2.3.3-8.7-2-21.3-1-5.7-.6-8.8 1.5-13.1.696-1.38 1.77-4.38 2.38-6.68.657-2.46 2.34-5.21 4.1-6.69 1.64-1.38 2.98-3.15 2.98-3.92 0-2.8 5.88-9.54 9.44-10.8 1.96-.707 3.56-1.61 3.56-2.01 0-.397 1.18-2.13 2.63-3.84 3.32-3.94 9.91-7.35 13.1-6.75 1.32.253 4.06-.381 6.07-1.41 4.98-2.54 24.4-2.69 30-.236 2.04.899 5.07 1.55 6.72 1.45 3.76-.227 11.6 4.64 14 8.66.954 1.61 3.28 3.49 5.17 4.18 3.29 1.19 9.32 8.01 9.32 10.5 0 .640 1.36 2.46 3.02 4.05s3.47 4.71 4.03 6.94c.557 2.23 1.67 5.24 2.48 6.7 1.83 3.31 1.87 14 .0584 19.1-.729 2.04-1.11 4.86-.838 6.26.268 1.4-.0477 3.19-.701 3.98-.914 1.1-.915 1.94-.004 3.64 1.81 3.38.556 10.3-2.84 15.6-1.68 2.63-3.81 7.43-4.73 10.7-1.37 4.78-2.21 6.07-4.47 6.93-2.57.971-2.86 1.64-3.76 8.7-.537 4.2-1.75 9.28-2.7 11.3-1.93 4.06-7.97 10.7-14 15.4-3.9 3.03-3.95 3.15-2.18 5.11 4.03 4.45 13.5 10.5 16.8 10.7 6.71.414 20.5 2.6 25.9 4.1 10.6 2.96 17.1 9.45 21.1 21.1 2.16 6.29 2.32 7.33 1.1 7.33-.463 0-1.41-1.91-2.11-4.25-3.14-10.5-9.07-18.2-16.3-21.2-2.09-.870-8.16-2.24-13.5-3.04-11.4-1.71-13-1.8-11.7-.609.522.477 5.22 1.42 10.4 2.1 11.5 1.49 18 4.09 22.1 8.84 3.1 3.53 8.86 14.5 8.86 16.9.00063.991-18.3 1.25-88.1 1.25h-85.6l.655-2.75zm12.2-14.8c4.94-4.94 10.3-7.12 22.3-9.09 6.5-1.07 9.76-2 9.14-2.62-1.26-1.26-17.4 1.66-23.4 4.23-2.44 1.05-6.07 3.53-8.06 5.52-3.53 3.53-9.6 13.1-9.6 15.1 0 .55 1.35-1.35 2.99-4.22 1.65-2.87 4.64-6.87 6.65-8.88zm88.8 5.28c3.3-2.21 7.12-4.88 8.5-5.94l2.5-1.93-5 .684c-2.75.376-6.4 1.04-8.11 1.48l-3.11.794 2.11-5.04c2-4.77 2.13-4.88 2.41-2.08l.298 2.96 5.7-.713c3.14-.392 6.6-.754 7.7-.804 1.1-.0499 4.3-1.95 7.11-4.22l5.11-4.13-8.52-6.43c-9.71-7.32-10-7.35-19.3-1.71-7.08 4.3-10.6 4.36-17.2.288-2.8-1.72-6.6-3.65-8.44-4.29-3.13-1.08-3.58-.948-6.71 2.01-1.85 1.74-6.1 5-9.45 7.24l-6.09 4.06 5.28 3.93c4.93 3.67 5.87 3.98 14.2 4.62l8.89.686-.595-6.31-.595-6.31 2.35 7.26c1.29 3.99 2.96 8.02 3.71 8.94 1.21 1.48 1.13 1.59-.638.919-3.94-1.49-14.8-3.71-16.4-3.36-.896.198 4.22 3.32 11.4 6.94 14.5 7.34 12.8 7.31 23 .478zm-13.9-1.57c-.303-.490.998-1.07 2.89-1.29 2.73-.319 3.22-.134 2.37.892-1.23 1.48-4.44 1.73-5.26.402zm-15.6.417c0-.261-1.35-1.17-3-2.03-3.76-1.94-3.99-1.1-.25.928 3.14 1.7 3.25 1.74 3.25 1.1zm43.5-5.08c3.3-2.34 7.55-5.87 9.45-7.85 2.03-2.12 4.5-3.65 6-3.73 2.43-.129 2.44-.158.249-.577-1.66-.318-3.51.671-6.65 3.56-2.39 2.2-7.2 6.1-10.7 8.67-10.3 7.56-9.05 7.5 1.65-.0805zm-63.3-8c-3.02-3.11-8.08-5.06-6.5-2.5.340.55 1.41 1 2.38 1 .972 0 2.82 1.12 4.12 2.5 1.29 1.38 2.58 2.5 2.87 2.5.287 0-1-1.58-2.87-3.5zm31.8-26.7c.66-.66 1.2-2.6 1.2-4.31 0-4.03 1.73-6.1 5.69-6.83 3.16-.581 3.2-.539 3.82 4.13.839 6.27 1.17 7.16 2.94 7.84 3.57 1.37 18-8.72 21.1-14.8.844-1.63 2.18-6.43 2.97-10.6.835-4.47 3-10.8 5.16-15.1 2.05-4.08 4.54-10.4 5.54-14 1-2.9 2-7.7 3-9.9.634-2.2 1.1-7.75 1.04-12.3-.0996-7.23-.460-8.84-2.69-12.1-1.41-2.04-2.57-4.41-2.57-5.26 0-1.6-9-7.8-12-7.8-.807 0-3.7 1.13-6.43 2.52-2.73 1.38-6.2 2.43-7.72 2.32-1.51-.109-3.67.298-4.79.905-2.61 1.41-17.9 1.44-21.4.0315-1.43-.590-3.51-.988-4.61-.884s-4.15-1.18-6.78-2.85c-5.91-3.75-7.35-3.78-11.7-.212-1.91 1.55-4.27 3.11-5.23 3.47-.962.354-1.75 1.42-1.75 2.37s-1.18 3.43-2.63 5.52c-2.3 3.32-2.64 4.82-2.69 12.1 0 4.5.5 10 1.2 12.2.633 2.2 1.88 6.92 2.76 10.5.887 3.58 2.05 7.31 2.58 8.31 5 9.34 6.92 14.2 7.94 20.2.658 3.85 2.02 8.63 3.03 10.6 2.2 4.37 9.45 10.9 15.2 13.8 4.86 2.4 5.86 2.52 7.5.880zm-.3-13.6c-10.2-.530-8.91-2.23 1.59-2.12 5.23.0549 11.7-.227 14.4-.626 3.42-.512 4.64-.403 4.17.370-1.08 1.75-10.6 2.87-20.1 2.38zm3.5-14.1c-3.31-.916-3.56-3.51-1.05-11 1.13-3.35 2.09-8.02 2.14-10.4.0843-4.2.105-4.22 1.06-1.28.535 1.65.721 7 .414 11.9-.370 5.89-.179 9.35.564 10.2 1.21 1.46.737 1.53-3.12.461zm-28-25.2c-1.1-.741-.691-.834 1.5-.344 3.68.822 4.48 1.39 1.92 1.37-1.05-.0084-2.59-.472-3.42-1.03zm7.3.2c-.288-1.1-1.15-2-1.91-2-1.86 0-1.75-2.04.272-4.92l1.66-2.36-3.9.731c-4.94.927-5.41 1.24-5.41 3.62 0 1.71-.254 1.79-2.04.691-2.02-1.24-2.01-1.28.556-3.51 1.9-1.64 4-2.29 7.79-2.41l5.19-.157-5-.686c-4.87-.668-4.89-.689-1-.806 6.53-.197 17.4 2.29 18.9 4.33 1.59 2.17 1.08 4.75-1.4 6.98-1.71 1.55-1.8 1.45-1.65-1.67.142-3.02-.197-3.42-4.06-4.77-2.32-.811-4.52-1.17-4.89-.794-.994.994 1.64 3.82 2.86 3.07.665-.411.802.281.384 1.94-.537 2.14-.262 2.66 1.6 3.01 1.53.292 1.38.369-.498.240-1.51-.104-2.75.183-2.75.638 0 1.8-4.21.750-4.71-1.17zm39.7 1.32c-3.62-.594-8-2.43-8-3.36 0-.438-.240-1.42-.533-2.19-.293-.765.302-2.35 1.32-3.53 1.95-2.25 11.4-4.36 18.2-4.08 3.28.134 3.21.187-1 .842l-4.5 0.7 4.3.150c3.94.137 10.2 2.44 10.2 3.75 0 0.3-.675 1.22-1.5 2.05-1.33 1.33-1.5 1.28-1.5-.512 0-2.49-.628-2.89-5.85-3.72-3.69-.591-4.15-.446-4.15 1.31 0 1.09.933 2.39 2.07 2.9l2.07.925-2.15 2.73c-2.09 2.66-3.41 2.96-9 2.05zm4-2.38c0-.518-.675-.941-1.5-.941-1.79 0-1.99-3.11-.3-4.8 1.77-1.77-.580-1.57-4.31.358-4.29 2.22-3.69 5.73 1.11 6.5 3.8.605 5 .338 5-1.12zm5 2.67c0-.213 1.33-.581 2.95-.819s2.72-.0640 2.44.387c-.496.802-5.39 1.19-5.39.433zm-63.3-12.4c0-2.22 4.38-4.41 10.7-5.31 12.7-1.84 16.8-2.57 18.6-3.33 1.22-.523 1.75-0.3 1.75.734 0 3.11-3.17 4.15-14.5 4.77-8.12.443-12 1.1-13.9 2.31-1.42.931-2.58 1.3-2.58.825zm73.2-.957c-1.59-1.07-5.91-1.76-13.6-2.18-11.3-.615-14.5-1.67-14.5-4.66 0-1.66-.381-1.67 4.5.0936 2.2.793 6.12 1.46 8.7 1.48 7.01.0655 14.4 1.92 16.4 4.11 2.29 2.53 1.56 3.13-1.38 1.15zm-80.5 31.8c-.557-2.06-1.39-4.14-1.84-4.62-.456-.480-.608-1.45-.339-2.15.270-.702.0145-1.57-.567-1.93-.657-.406-.841.0288-.487 1.15.509 1.61.401 1.59-1.01-.139-.870-1.07-1.58-1.43-1.58-.809 0 .623.481 1.43 1.07 1.79.587.363.818 1.31.511 2.11-.341.887-.131 1.19.539.774.737-.455.867.0424.398 1.52-.465 1.47-.117 2.84 1.05 4.13 2.65 2.92 3.38 2.33 2.26-1.82zm93.7-.240c.348-1.1.360-2.43.0262-2.97-.333-.539 0.2-2.21 1.19-3.72.985-1.51 1.28-2.42.646-2.03-1.45.895-2.36-1.38-1.76-4.44l1-2.3-1.03 2.34c-.567 1.29-.766 2.77-.442 3.29.323.523-.0132 1.72-.748 2.66-1.2 1.54-1.16 1.57.414.334 1.05-.821 1.75-.944 1.75-.307 0 .586-.861 1.67-1.91 2.41-1.05.737-2.24 3.06-2.63 5.16-.682 3.64-.617 3.77 1.35 2.72 1.13-.607 2.35-2 2.7-3.1zm-96.9-12.6c.341-.890.174-1.29-.393-.941-.544.336-.989 1.03-.989 1.55 0 1.44.717 1.12 1.38-.611zm-2-8.4c.506-2.11.372-2.04-.868.5-1.64 3.35-2.08 2.01-.613-1.85.737-1.94.596-2.61-.643-3.09-2.47-.947-2.79.139-1.5 4.98.659 2.47 1.25 5.49 1.31 6.72.0770 1.5.379 1.08.913-1.26.439-1.92 1.07-4.62 1.4-6zm105-.8c.108-4.59-1.16-5.51-2.95-2.16-.842 1.57-.791 3.2.208 6.59 1.16 3.94 1.41 4.21 1.98 2.16.361-1.28.702-4.25.756-6.59zm-2.33 2.18c-.368-1.47-.444-2.89-.169-3.16.275-.275.801.699 1.17 2.16.368 1.47.444 2.89.169 3.16-.275.275-.801-.699-1.17-2.16z" fill="#1c769f"/>
 <path d="m9.7 199c-.000828-3.09 6.9-15.8 10.6-19.5 2.07-2.07 6.06-4.8 8.86-6.07 4.82-2.18 25.2-5.9 30.6-5.59 1.67.0938 5.07-1.86 10.2-5.91 4.26-3.33 7.75-6.4 7.75-6.83 0-.434-2.69-2.88-5.98-5.43-9-7-12.8-14-14.2-24-.9-7-1.5-9-2.8-9-2.44 0-4.71-2.98-5.5-7.24-.382-2.06-2.24-6.3-4.12-9.43-4-6.3-5.6-12.2-4.4-15.6.9-2.3.3-8.7-2-21.3-1-5.7-.6-8.8 1.5-13.1.696-1.38 1.77-4.38 2.38-6.68.657-2.46 2.34-5.21 4.1-6.69 1.64-1.38 2.98-3.15 2.98-3.92 0-2.8 5.88-9.54 9.44-10.8 1.96-.707 3.56-1.61 3.56-2.01 0-.397 1.18-2.13 2.63-3.84 3.32-3.94 9.91-7.35 13.1-6.75 1.32.253 4.06-.381 6.07-1.41 4.98-2.54 24.4-2.69 30-.236 2.04.899 5.07 1.55 6.72 1.45 3.76-.227 11.6 4.64 14 8.66.954 1.61 3.28 3.49 5.17 4.18 3.29 1.19 9.32 8.01 9.32 10.5 0 .640 1.36 2.46 3.02 4.05s3.47 4.71 4.03 6.94c.557 2.23 1.67 5.24 2.48 6.7 1.83 3.31 1.87 14 .0584 19.1-.729 2.04-1.11 4.86-.838 6.26.268 1.4-.0477 3.19-.701 3.98-.914 1.1-.915 1.94-.004 3.64 1.81 3.38.556 10.3-2.84 15.6-1.68 2.63-3.81 7.43-4.73 10.7-1.37 4.78-2.21 6.07-4.47 6.93-2.57.971-2.86 1.64-3.76 8.7-.537 4.2-1.75 9.28-2.7 11.3-1.93 4.06-7.97 10.7-14 15.4-3.9 3.03-3.95 3.15-2.18 5.11 3.62 4 13.5 10.5 16.3 10.7 1.56.108 8.01.929 14.3 1.82 13.2 1.87 22.4 5.7 26.5 11 2.94 3.85 7.19 13 8 17.1.670 3.45.824 3.73-4.64-8.44-5.34-11.9-11.5-15.7-29.8-18.5l-9.5-1.43-5.5 5.28c-3.02 2.9-8.09 7.35-11.3 9.88-6.22 4.97-20.7 15-20.7 14.3 0-.231 4.84-3.99 10.8-8.34 5.91-4.36 14.1-10.8 18.1-14.3 6.74-5.83 7.2-6.47 5.31-7.31-1.73-.774-3.18.0817-8.96 5.32-3.79 3.43-12.7 10.1-19.8 14.9-7.11 4.76-12.8 9.21-12.7 9.88.138.675-.0254 1.23-.362 1.23s-7.18-3.24-15.2-7.19c-12.6-6.2-15.6-8.15-21.6-14.1-6.67-6.57-6.72-6.64-.893-1.45 6.51 5.8 17.5 12.5 28.5 17.6 5.75 2.6 6.94 2.84 8.5 1.7.997-.729 1.59-1.54 1.32-1.8-.274-.260-6.03-3.21-12.8-6.57-13.9-6.88-19-10.2-24.5-15.8l-3.76-3.9-10.6 1.76c-5.83.969-12.8 2.49-15.5 3.37-7.38 2.45-13.9 8.99-18.8 18.7-2.27 4.55-4.12 7.58-4.12 6.74zm101-11c3.3-2.21 7.12-4.88 8.5-5.94l2.5-1.93-5 .684c-2.75.376-6.4 1.04-8.11 1.48l-3.11.794 2.11-5.04c2-4.77 2.13-4.88 2.41-2.08l.298 2.96 5.7-.713c3.14-.392 6.6-.754 7.7-.804 1.1-.0499 4.3-1.95 7.11-4.22l5.11-4.13-8.52-6.43c-9.71-7.32-10-7.35-19.3-1.71-7.08 4.3-10.6 4.36-17.2.288-2.8-1.72-6.6-3.65-8.44-4.29-3.13-1.08-3.58-.948-6.71 2.01-1.85 1.74-6.1 5-9.45 7.24l-6.09 4.06 5.28 3.93c4.93 3.67 5.87 3.98 14.2 4.62l8.89.686-.595-6.31-.595-6.31 2.35 7.26c1.29 3.99 2.96 8.02 3.71 8.94 1.21 1.48 1.13 1.59-.638.919-3.94-1.49-14.8-3.71-16.4-3.36-.896.198 4.22 3.32 11.4 6.94 14.5 7.34 12.8 7.31 23 .478zm-13.9-1.57c-.303-.490.998-1.07 2.89-1.29 2.73-.319 3.22-.134 2.37.892-1.23 1.48-4.44 1.73-5.26.402zm-3.6-40c.66-.66 1.2-2.6 1.2-4.31 0-4.03 1.73-6.1 5.69-6.83 3.16-.581 3.2-.539 3.82 4.13.839 6.27 1.17 7.16 2.94 7.84 3.57 1.37 18-8.72 21.1-14.8.844-1.63 2.18-6.43 2.97-10.6.835-4.47 3-10.8 5.16-15.1 2.05-4.08 4.54-10.4 5.54-14 1-3.9 2-8.7 3-10.9.634-2.2 1.1-7.75 1.04-12.3-.0996-7.23-.460-8.84-2.69-12.1-1.41-2.04-2.57-4.41-2.57-5.26 0-1.6-9-7.8-12-7.8-.807 0-3.7 1.13-6.43 2.52-2.73 1.38-6.2 2.43-7.72 2.32-1.51-.109-3.67.298-4.79.905-2.61 1.41-17.9 1.44-21.4.0315-1.43-.590-3.51-.988-4.61-.884s-4.15-1.18-6.78-2.85c-5.91-3.75-7.35-3.78-11.7-.212-1.91 1.55-4.27 3.11-5.23 3.47-.962.354-1.75 1.42-1.75 2.37s-1.18 3.43-2.63 5.52c-2.3 3.32-2.64 4.82-2.69 12.1 0 4.5.5 10 1.2 12.2.633 2.2 1.88 6.92 2.76 10.5.887 3.58 2.05 7.31 2.58 8.31 5 9.34 6.92 14.2 7.94 20.2.658 3.85 2.02 8.63 3.03 10.6 2.2 4.37 9.45 10.9 15.2 13.8 4.86 2.4 5.86 2.52 7.5.880zm-.3-13.6c-10.2-.530-8.91-2.23 1.59-2.12 5.23.0549 11.7-.227 14.4-.626 3.42-.512 4.64-.403 4.17.370-1.08 1.75-10.6 2.87-20.1 2.38zm3.5-14.1c-3.31-.916-3.56-3.51-1.05-11 1.13-3.35 2.09-8.02 2.14-10.4.0843-4.2.105-4.22 1.06-1.28.535 1.65.721 7 .414 11.9-.370 5.89-.179 9.35.564 10.2 1.21 1.46.737 1.53-3.12.461zm-28-25.2c-1.1-.741-.691-.834 1.5-.344 3.68.822 4.48 1.39 1.92 1.37-1.05-.0084-2.59-.472-3.42-1.03zm7.3-.8c-.288-1.1-1.15-2-1.91-2-1.86 0-1.75-2.04.272-4.92l1.66-2.36-3.9.731c-4.94.927-5.41 1.24-5.41 3.62 0 1.71-.254 1.79-2.04.691-2.02-1.24-2.01-1.28.556-3.51 1.9-1.64 4-2.29 7.79-2.41l5.19-.157-5-.686c-4.87-.668-4.89-.689-1-.806 6.53-.197 17.4 2.29 18.9 4.33 1.59 2.17 1.08 4.75-1.4 6.98-1.71 1.55-1.8 1.45-1.65-1.67.142-3.02-.197-3.42-4.06-4.77-2.32-.811-4.52-1.17-4.89-.794-.994.994 1.64 3.82 2.86 3.07.665-.411.802.281.384 1.94-.537 2.14-.262 2.66 1.6 3.01 1.53.292 1.38.369-.498.240-1.51-.104-2.75.183-2.75.638 0 1.8-4.21.750-4.71-1.17zm39.7 1.32c-3.62-.594-8-2.43-8-3.36 0-.438-.240-1.42-.533-2.19-.293-.765.302-2.35 1.32-3.53 1.95-2.25 11.4-4.36 18.2-4.08 3.28.134 3.21.187-1 .842l-4.5 0.7 4.3.150c3.94.137 10.2 2.44 10.2 3.75 0 0.3-.675 1.22-1.5 2.05-1.33 1.33-1.5 1.28-1.5-.512 0-2.49-.628-2.89-5.85-3.72-3.69-.591-4.15-.446-4.15 1.31 0 1.09.933 2.39 2.07 2.9l2.07.925-2.15 2.73c-2.09 2.66-3.41 2.96-9 2.05zm4-2.38c0-.518-.675-.941-1.5-.941-1.79 0-1.99-3.11-.3-4.8 1.77-1.77-.580-1.57-4.31.358-4.29 2.22-3.69 5.73 1.11 6.5 3.8.605 5 .338 5-1.12zm5 2.67c0-.213 1.33-.581 2.95-.819s2.72-.0640 2.44.387c-.496.802-5.39 1.19-5.39.433zm-63.3-12.4c0-2.22 4.38-4.41 10.7-5.31 12.7-1.84 16.8-2.57 18.6-3.33 1.22-.523 1.75-0.3 1.75.734 0 3.11-3.17 4.15-14.5 4.77-8.12.443-12 1.1-13.9 2.31-1.42.931-2.58 1.3-2.58.825zm73.2-.957c-1.59-1.07-5.91-1.76-13.6-2.18-11.3-.615-14.5-1.67-14.5-4.66 0-1.66-.381-1.67 4.5.0936 2.2.793 6.12 1.46 8.7 1.48 7.01.0655 14.4 1.92 16.4 4.11 2.29 2.53 1.56 3.13-1.38 1.15zm-80.5 31.8c-.557-2.06-1.39-4.14-1.84-4.62-.456-.480-.608-1.45-.339-2.15.270-.702.0145-1.57-.567-1.93-.657-.406-.841.0288-.487 1.15.509 1.61.401 1.59-1.01-.139-.870-1.07-1.58-1.43-1.58-.809 0 .623.481 1.43 1.07 1.79.587.363.818 1.31.511 2.11-.341.887-.131 1.19.539.774.737-.455.867.0424.398 1.52-.465 1.47-.117 2.84 1.05 4.13 2.65 2.92 3.38 2.33 2.26-1.82zm93.7-.240c.348-1.1.360-2.43.0262-2.97-.333-.539 0.2-2.21 1.19-3.72.985-1.51 1.28-2.42.646-2.03-1.45.895-2.36-1.38-1.76-4.44l1-2.3-1.03 2.34c-.567 1.29-.766 2.77-.442 3.29.323.523-.0132 1.72-.748 2.66-1.2 1.54-1.16 1.57.414.334 1.05-.821 1.75-.944 1.75-.307 0 .586-.861 1.67-1.91 2.41-1.05.737-2.24 3.06-2.63 5.16-.682 3.64-.617 3.77 1.35 2.72 1.13-.607 2.35-2 2.7-3.1zm-96.9-12.6c.341-.890.174-1.29-.393-.941-.544.336-.989 1.03-.989 1.55 0 1.44.717 1.12 1.38-.611zm-2-8.4c.506-2.11.372-2.04-.868.5-1.64 3.35-2.08 2.01-.613-1.85.737-1.94.596-2.61-.643-3.09-2.47-.947-2.79.139-1.5 4.98.659 2.47 1.25 5.49 1.31 6.72.0770 1.5.379 1.08.913-1.26.439-1.92 1.07-4.62 1.4-6zm105-.8c.108-4.59-1.16-5.51-2.95-2.16-.842 1.57-.791 3.2.208 6.59 1.16 3.94 1.41 4.21 1.98 2.16.361-1.28.702-4.25.756-6.59zm-2.33 2.18c-.368-1.47-.444-2.89-.169-3.16.275-.275.801.699 1.17 2.16.368 1.47.444 2.89.169 3.16-.275.275-.801-.699-1.17-2.16z" fill="#845037"/>
 <path d="m9.7 199c-.000828-3.09 6.9-15.8 10.6-19.5 2.07-2.07 6.06-4.8 8.86-6.07 4.78-2.16 25.2-5.91 30.4-5.59 1.29.0794 3.77-.838 5.5-2.04 5.13-3.56 12.7-9.94 12.7-10.7 0-.411-2.69-2.84-5.98-5.39-9.1-7-12.9-14-14.3-24-.9-7-1.5-9-2.8-9-2.36 0-4.63-2.92-5.46-7-.391-1.92-1.79-5.46-3.1-7.86-1.32-2.4-2.14-4.77-1.83-5.27.311-.503-.0306-.791-.759-.640-.797.165-1.29-.602-1.25-1.93.0407-1.21-.268-1.99-.687-1.73-.419.259-.725-4.18-.682-9.85.0443-5.76-.469-12-1.16-14.1-1.84-5.57-1.77-14.6.138-18.1.891-1.65 2.12-4.88 2.74-7.18.657-2.46 2.34-5.21 4.1-6.69 1.64-1.38 2.98-3.15 2.98-3.92 0-2.8 5.88-9.54 9.44-10.8 1.96-.707 3.56-1.61 3.56-2.01 0-.397 1.18-2.13 2.63-3.84 3.32-3.94 9.91-7.35 13.1-6.75 1.32.253 4.06-.381 6.07-1.41 4.98-2.54 24.4-2.69 30-.236 2.04.899 5.07 1.55 6.72 1.45 3.76-.227 11.6 4.64 14 8.66.954 1.61 3.28 3.49 5.17 4.18 3.29 1.19 9.32 8.01 9.32 10.5 0 .640 1.36 2.46 3.02 4.05s3.47 4.71 4.03 6.94c.557 2.23 1.67 5.24 2.48 6.7 1.85 3.33 1.86 14 .0313 19.1-.744 2.08-1.12 4.67-.843 5.74.280 1.07.156 2.74-.276 3.71-1.06 2.39-1.22 6.25-.237 5.64.928-.574 1.04 5.1.168 8.37-.330 1.23-.948 2.02-1.37 1.76-.425-.263-.712.305-.636 1.26.0758.962-.455 1.62-1.19 1.46-.728-.151-1.08.120-.782.602s-.339 2.61-1.42 4.72-2.23 5.29-2.56 7.06c-.660 3.52-3.71 7.39-5.82 7.39-.910 0-1.65 2.48-2.33 7.82-.549 4.3-1.78 9.46-2.73 11.5-1.93 4.06-7.96 10.7-14 15.4l-4 3.12 2.42 2.58c3.94 4.2 12.9 9.9 15.8 10.1 1.52.107 7.93.927 14.3 1.82 13.2 1.87 22.4 5.7 26.5 11 2.94 3.85 7.19 13 8 17.1.670 3.45.824 3.73-4.64-8.44-5.34-11.9-11.5-15.7-29.8-18.5l-9.5-1.43-5.5 5.28c-3.02 2.9-8.09 7.35-11.3 9.88-6.22 4.97-20.7 15-20.7 14.3 0-.231 4.84-3.99 10.8-8.34 5.91-4.36 14.1-10.8 18.1-14.3 6.74-5.83 7.2-6.47 5.31-7.31-1.73-.774-3.18.0817-8.96 5.32-3.79 3.43-12.7 10.1-19.8 14.9-7.11 4.76-12.8 9.21-12.7 9.88.138.675-.0254 1.23-.362 1.23s-7.18-3.24-15.2-7.19c-12.6-6.2-15.6-8.15-21.6-14.1-6.67-6.57-6.72-6.64-.893-1.45 6.51 5.8 17.5 12.5 28.5 17.6 5.75 2.6 6.94 2.84 8.5 1.7.997-.729 1.59-1.54 1.32-1.8-.274-.260-6.03-3.21-12.8-6.57-13.9-6.88-19-10.2-24.5-15.8l-3.76-3.9-10.6 1.76c-5.83.969-12.8 2.49-15.5 3.37-7.38 2.45-13.9 8.99-18.8 18.7-2.27 4.55-4.12 7.58-4.12 6.74zm104-13c4.22-2.93 11.1-8.03 15.3-11.3 6.46-5.07 7.38-6.15 5.96-7-2.5-1.49-13.9-10.6-14.5-11.6-.293-.473-2.54-.113-5 .802-6.24 2.32-25.7 2.32-32-.009l-4.49-1.67-3.51 3.37c-1.93 1.85-6.13 5.19-9.34 7.41l-5.83 4.04 6.83 5.07c3.76 2.79 12.9 8.17 20.3 12 15.4 7.88 13.1 7.98 26.2-1.09zm-19.3-44c.686-5.87 1.49-7 5-7 3.28 0 4.97 2.26 4.99 6.68.0267 4.91 1.25 5.85 5.83 4.48 5.51-1.65 15.6-9.44 17.5-13.6.890-1.87 2.34-6.94 3.22-11.3.881-4.31 3.28-11.2 5.33-15.3 2.05-4.12 4.5-10.4 5.44-14 .941-3.58 2.22-8.3 2.85-10.5.629-2.2 1.09-7.75 1.03-12.3-.0995-7.23-.460-8.84-2.69-12.1-1.41-2.04-2.57-4.4-2.57-5.24 1-1.8-8-7.9-11-7.9-.904 0-3.92 1.15-6.7 2.56s-6.03 2.45-7.22 2.31c-1.19-.139-3.74.244-5.66.851-4.59 1.45-15.6 1.47-20 .0322-1.92-.625-4.42-1.03-5.53-0.9-1.12.130-4.04-1.12-6.5-2.79-2.46-1.66-5.25-3.03-6.2-3.04-2.68-.0280-12.8 7.18-12.8 9.12 0 .941-1.19 3.13-2.64 4.85-2.42 2.88-2.64 3.87-2.61 11.8.0433 10.3.496 13.9 2.1 16.9.654 1.22 1.64 4.6 2.18 7.5.545 2.9 2.79 8.88 4.99 13.3 2.46 4.92 4.56 11.1 5.47 15.9 1.6 8.57 4.39 13.6 9.68 17.5 5.98 4.42 11.3 7.05 13.8 6.79 2.17-.227 2.57-.864 3.03-4.76zm-7.63-11.2c-.525-.850 1.23-1 6.7-.584 4.07.313 9.88.217 12.9-.214s5.69-.616 5.92-.410c1.16 1.04-1.68 1.46-12.7 1.89-8.5.330-12.3.126-12.8-.685zm9.1-14c-1.86-1.36-1.87-1.56-.186-6.25.955-2.66 1.77-7.09 1.8-9.84.0485-3.71.287-4.48.925-3 1.18 2.75 1.2 9.32.0332 13.4-.633 2.21-.621 4.02.0352 5.24 1.19 2.22.0652 2.42-2.61.466zm-27.5-24c-1.1-.741-.691-.834 1.5-.344 3.68.822 4.48 1.39 1.92 1.37-1.05-.0084-2.59-.472-3.42-1.03zm7.3-1c-.288-1.1-1.15-2-1.91-2-1.86 0-1.75-2.04.272-4.92l1.66-2.36-3.9.731c-4.96.931-5.41 1.24-5.41 3.68 0 1.87-.119 1.89-1.64.370s-1.52-1.76.0296-3.32c1.2-1.2 3.85-1.77 9.39-2.01 6.77-.298 8.14-.0525 11.1 1.99 1.88 1.28 3.63 2.95 3.88 3.71.249.756-.458.465-1.57-.648-2.04-2.04-7.88-3.9-8.94-2.85-.918.918 1.84 3.66 2.97 2.96.665-.411.802.279.386 1.94-.417 1.66-.203 2.73.604 3.01.688.236.463.312-.499.167s-1.75.145-1.75.644c0 1.85-4.19.881-4.71-1.09zm43.2 0c.450-1.42.180-2-.933-2-1.85 0-2.08-3.08-.367-4.8 1.97-1.97-1.23-1.48-4.9.760-2.22 1.35-3.04 1.53-2.67.573 1-2.5 7-4.5 14-4.5 5.64 0 6.93.355 9.35 2.58 1.54 1.42 2.24 2.29 1.56 1.94-.764-.391-1.29.0639-1.35 1.17-.0685 1.24-.314 1.04-.786-.655-.679-2.43-3.27-3.73-7.86-3.94-2.93-.130-3.06 3.23-.177 4.52l2.07.925-2.15 2.73c-3 3.3-7 3.8-6 .7zm6.25 1.34c.688-.277 1.81-.277 2.5 0 .688.277.125.504-1.25.504s-1.94-.227-1.25-.504zm-11-1c.688-.277 1.81-.277 2.5 0 .688.277.125.504-1.25.504s-1.94-.227-1.25-.504zm-52.1-11.3c.837-2.62 6.12-4.88 12.8-5.49 11.4-1.03 14.9-1.62 15.5-2.58.898-1.45 2.46-1.11 2.46.532 0 2.74-5.24 4.26-16.2 4.74-8.73.374-11.1.819-12.9 2.38-1.56 1.39-2.03 1.5-1.68.424zm73.5-.707c-1.27-1.27-4.41-1.79-13.6-2.26-11.9-.604-15.2-1.61-15.2-4.67 0-1.64 1.19-1.79 2.64-.333.575.575 5.28 1.48 10.4 2.01 10.5 1.08 15.1 2.32 17 4.52 1.74 2.1.643 2.7-1.33.727zm-79.4 34.7c-.0378-.412-1.11-4.8-2.38-9.75-1.6-6.22-2.54-8.45-3.04-7.24-.402.971-.478 2.77-.168 4 .554 2.2.538 2.2-.953.235-1.47-1.94-1.44-4.37.162-10.8.423-1.69.210-3.33-.551-4.25-1.91-2.3-4-1.8-4 .957 0 2.85 2.42 12.6 3.8 15.2.518 1 1.24 3.49 1.61 5.54.369 2.04 1.36 4.41 2.2 5.25 1.62 1.62 3.44 2.05 3.32.782zm91.3-1c.849-.962 1.84-3.32 2.21-5.25.366-1.92 1.29-5.08 2.06-7 4.08-10.3 3.77-19.5-.486-14.2-1.72 2.1-1.74 2.53-.292 6.21 1.35 3.43 1.37 4.39.167 7.24l-1.39 3.29-.513-4c-.494-3.85-.597-3.67-2.75 4.71-1.23 4.79-2.24 9.18-2.24 9.75 0 1.57 1.51 1.24 3.23-.714z" fill="#734733"/>
 <path d="m9.7 199c-.000828-3.09 6.9-15.8 10.6-19.5 5.43-5.43 12.3-8.12 25.4-10 6.32-.917 11.8-1.86 12.2-2.09.374-.231.968.0443 1.32.612.351.568 1.07.767 1.59.442.526-.325.832-.0268.681.662-.494 2.25 13.4 11.7 27 18.4l13.3 6.53 9.23-6.17c12.7-8.5 25.9-18.8 25.3-19.8-.630-1.02 2.71-.770 17.5 1.31 13.2 1.86 22.4 5.69 26.5 11 2.94 3.85 7.19 13 8 17.1.670 3.45.824 3.73-4.64-8.44-5.34-11.9-11.5-15.7-29.8-18.5l-9.5-1.43-5.5 5.28c-3.02 2.9-8.09 7.35-11.3 9.88-6.22 4.97-20.7 15-20.7 14.3 0-.231 4.84-3.99 10.8-8.34 5.91-4.36 14.1-10.8 18.1-14.3 6.74-5.83 7.2-6.47 5.31-7.31-1.73-.774-3.18.0817-8.96 5.32-3.79 3.43-12.7 10.1-19.8 14.9-7.11 4.76-12.8 9.21-12.7 9.88.138.675-.0254 1.23-.362 1.23s-7.18-3.24-15.2-7.19c-12.6-6.2-15.6-8.15-21.6-14.1-6.67-6.57-6.72-6.64-.893-1.45 6.51 5.8 17.5 12.5 28.5 17.6 5.75 2.6 6.94 2.84 8.5 1.7.997-.729 1.59-1.54 1.32-1.8-.274-.260-6.03-3.21-12.8-6.57-13.9-6.88-19-10.2-24.5-15.8l-3.76-3.9-10.6 1.76c-5.83.969-12.8 2.49-15.5 3.37-7.38 2.45-13.9 8.99-18.8 18.7-2.27 4.55-4.12 7.58-4.12 6.74zm55-32.7c5.38-3.9 13-10.4 13-11.1 0-.401-2.55-2.87-5.66-5.49-10.5-8.85-13.6-14.3-14.9-26.4-.519-4.87-1.03-6.25-2.32-6.27-1.23-.0114-1.33-.221-.371-.828 1.02-.647.824-2.69-.956-9.98-2.22-9.09-3.8-11.7-3.86-6.42-.0266 2.4-.163 2.52-1.08.948-.6-.6-.5-2.5.4-6 1.3-5.2.4-8-2.7-8-1.7 0-1.9 7.16-.278 10.2 0.8 1.49 0.8 1.87 0 1.38-1.54-.953-1.31.572.432 2.88.808 1.07 1.47 2.42 1.46 3-.0028.582-1.08-.717-2.39-2.89s-2.13-4.61-1.82-5.41c.327-.853.134-1.2-.462-.834-.6.3-.9-.5-.6-2.2.3-2.3.2-2.4-.6-.7-1.28 2.72-1.38.0016-.148-4.28.581-2.03.581-3.04 0-2.68-1.19.737-1.18-.604.0224-2.51.587-.929.539-1.93-.133-2.74-.583-.703-.841-2.42-.574-3.82.268-1.4-.0838-4.22-.781-6.26-2.28-6.67-2.26-16.3.0297-18.6.825-.825 1.5-2.45 1.5-3.6 0-3.42 2.57-8.55 5.38-10.8 1.44-1.13 2.62-2.72 2.62-3.52 0-2.73 5.85-9.57 9.24-10.8 1.84-.667 4.33-2.7 5.53-4.52 2.81-4.29 10.5-8.81 13.8-8.17 1.39.266 4.16-.355 6.18-1.39 5.31-2.71 25.2-2.71 30.3-.00428 2.04 1.09 4.73 1.69 6.49 1.44 4.1-.580 12 4.51 14.2 9.18 1 2.6 2 3.6 3 3.6 2.41 0 9.36 6.38 9.36 8.59 0 .707 1.8 3.37 4 5.91s4.08 5.61 4.17 6.81c.0941 1.2.220 2.94.281 3.87.0603.923.883 2.53 1.83 3.58 2.16 2.38 2.33 12.2.325 17.9-.767 2.17-1.16 5.16-.882 6.63.282 1.47-.022 3.32-.675 4.11-.863 1.04-.896 1.98-.118 3.43 1.38 2.59 1.36 4.07-.0403 2.13-.867-1.21-.940-1.11-.371.5.389 1.1.921 2.9 1.18 4 0.4 1.69.291 1.77-.698.5-.946-1.21-1.07-.914-.652 1.55.594 3.49-.449 5.7-2.85 6.06-1.19.175-1.46-.226-.969-1.43.378-.920.922-3.59 1.21-5.92.422-3.45.218-4.25-1.09-4.25-.884 0-2.3 1.06-3.14 2.35-1.37 2.09-1.38 2.73-.0338 5.94.975 2.33 1.21 4.38.675 5.84-.766 2.07-.885 1.98-1.58-1.19-.717-3.28-.852-3.06-3.11 5.07-3.34 12-3.2 13.9.756 10.3 1.76-1.59 1.83-1.59 1.22.009-.359.936-1.73 1.97-3.04 2.3s-2.4 1.11-2.41 1.74c-.0832 4.79-2.33 15.4-3.92 18.5-1.07 2.09-5.4 7.04-9.64 11l-7.7 7.19 2.39 2.71 2.39 2.71-3.07-2.77-3.07-2.77-4.43 1.71c-6.14 2.37-25.6 2.39-31.7.0418l-4.31-1.66-6.37 5.4c-3.5 2.97-7.41 5.9-8.69 6.51-2.23 1.06-2.22 1.03.130-.674zm30.1-24c.9-6 1.4-7 4.9-7 3.47 0 3.98.724 4.85 6.8.575 4.05 1.01 4.74 3.16 4.99 3.48.407 14.8-6.6 18.6-11.5 2.28-2.95 3.51-6.18 4.74-12.4 1.07-5.39 3.28-11.7 6.17-17.5 2.48-4.99 4.51-10.3 4.51-11.8 0-1.49.727-4.37 1.62-6.42 1.97-4.54 2.44-7.47 2.82-17.5.267-7.17.0601-8.15-2.55-12-1.56-2.31-2.85-5.21-2.86-6.44-.01-1.24-.538-2.25-1.17-2.25-.636 0-2.63-1.12-4.43-2.5-4.02-3.07-7.59-3.17-12.2-.352-1.91 1.18-5.21 2.27-7.34 2.42-2.13.151-4.37.590-5 .976-1.94 1.2-16.2 1.34-20.4.197-2.2-.597-4.81-.977-5.8-.843-.991.133-3.95-1.14-6.59-2.83-5.9-3.9-7.8-3.9-12.5-.1-2.08 1.65-4.39 3-5.14 3-.749 0-1.36.970-1.36 2.16s-1.06 3.55-2.36 5.25-2.68 4.13-3.09 5.4c-1.13 3.57-.767 15.2.518 16.8.631.761.891 2.05.576 2.88-.315.820 0.3 3.41 1.37 5.76s1.94 5.4 1.94 6.77c.000879 1.38 2.05 6.55 4.56 11.5 2.97 5.86 4.91 11.3 5.57 15.5 1.13 7.32 3.84 13.7 7.17 16.8 4.23 3.96 14.2 9.32 16.7 9.03 2.15-.249 2.58-.939 3.16-4.99zm3.6-10.5c.688-.277 1.81-.277 2.5 0 .688.277.125.504-1.25.504s-1.94-.227-1.25-.504zm7.5-1.03c.962-.252 2.54-.252 3.5 0 .962.252.175.457-1.75.457s-2.71-.206-1.75-.457zm-9.57-14.1c-1.51-1.67-1.47-2.27.542-8.16 2.5-7.32 3.61-6.33 1.82 1.64-.945 4.22-.946 5.73-.0062 6.86 1.75 2.11-.428 1.79-2.36-.348zm-19.7-24c-1.18-.745-1.04-.906.681-.777 1.19.0898 1.95.520 1.68.956-.599.969-.537.974-2.36-.179zm43.3-.2c.112-.688-.321-2.53-.963-4.08-.642-1.56-.872-3.31-.511-3.9.989-1.6-4.74.0512-7.14 2.06-1.98 1.65-1.98 1.65-.129-.540 2.71-3.21 8-4.62 14.9-4 6.53.592 9.25 2.26 7.7 4.71-.806 1.27-.951 1.23-.964-.275 0-1.9-4-3.7-8-3.7-3.08 0-4.07 1.68-2.24 3.81 2.57 3 2.76 3.94 1.05 5.32-1.42 1.15-1.55 1.15-.850-.0164.578-.959.408-1.23-.558-.875-.764.278-1.28 1.01-1.14 1.63.138.619-.220 1.12-.794 1.12s-.952-.562-.840-1.25zm-44.9-3.3c-.306-.799-.259-2.04.106-2.75.365-.714-.0456-.424-.911.643-.866 1.07-1.57 1.41-1.57.75 0-.655.9-2.09 2-3.19l2-2h-2.43c-3.72 0-7.36 1.69-7.73 3.6-.310 1.59-.432 1.59-1.71.0569-1.22-1.47-.962-1.83 2.22-3.16 6.16-2.57 15.4-1.8 19.7 1.64l2.47 1.98-3.2-1.56c-3.99-1.94-7.3-2.01-7.3-.144 0 .779.531 1.59 1.18 1.81.659.220.893 1.14.531 2.08-.794 2.07-4.56 2.24-5.33.238zm41.7-1.13c.048-1.16.285-1.4.604-.604.289.722.253 1.58-.0789 1.92-.332.332-.569-.258-.525-1.31zm-54.3-8.8c0-1.47 4.97-2.87 14.8-4.15 5.89-.769 11.7-1.7 13-2.07 1.8-.532 2.14-.344 1.66.913-.849 2.21-3.12 2.75-15.3 3.63-5.85.420-11.4 1.1-12.4 1.51-.962.408-1.75.484-1.75.170zm71.7-.323c-.374-.374-5.58-1-11.6-1.4-12.4-.815-14.7-1.35-15.5-3.58-.482-1.26-.141-1.44 1.66-.913 1.25.368 7.11 1.3 13 2.07 5.92.772 11.8 2.1 13 2.95 1 .9 2 1.6 1 1.6-.581 0-1.36-.306-1.74-.681zm23 14.2c0-.55-.436-.325-.969.5s-.969 1.95-.969 2.5.436.325.969-.5.969-1.95.969-2.5zm-26 70.4-3.46-3.07 3.75 2.69c3.31 2.38 4.39 3.45 3.46 3.45-.158 0-1.85-1.38-3.75-3.07zm19.1-56.5c.048-1.16.285-1.4.604-.604.289.722.253 1.58-.0789 1.92-.332.332-.569-.258-.525-1.31zm1.92-5.36c0-.518.445-1.22.989-1.55.567-.350.734.0511.393.941-.665 1.73-1.38 2.05-1.38.611z" fill="#025175"/>
 <path d="m64.7 166c5.38-3.9 13-10.4 13-11.1 0-.401-2.55-2.87-5.66-5.49-10.5-8.85-13.6-14.3-14.9-26.4-.519-4.87-1.03-6.25-2.32-6.27-1.23-.0114-1.33-.221-.371-.828 1.02-.647.824-2.69-.956-9.98-2.22-9.09-3.8-11.7-3.86-6.42-.0266 2.4-.163 2.52-1.08.948-.6-.6-.5-2.5.4-6 1.3-5.2.4-8-2.7-8-1.7 0-1.9 7.16-.278 10.2 0.8 1.49 0.8 1.87 0 1.38-1.54-.953-1.31.572.432 2.88.808 1.07 1.47 2.42 1.46 3-.0028.582-1.08-.717-2.39-2.89s-2.13-4.61-1.82-5.41c.327-.853.134-1.2-.462-.834-.6.3-.9-.5-.6-2.2.3-2.3.2-2.4-.6-.7-1.28 2.72-1.38.0016-.148-4.28.581-2.03.581-3.04 0-2.68-1.19.737-1.18-.604.0224-2.51.587-.929.539-1.93-.133-2.74-.583-.703-.841-2.42-.574-3.82.268-1.4-.0838-4.22-.781-6.26-2.28-6.67-2.26-16.3.0297-18.6.825-.825 1.5-2.45 1.5-3.6 0-3.42 2.57-8.55 5.38-10.8 1.44-1.13 2.62-2.72 2.62-3.52 0-2.73 5.85-9.57 9.24-10.8 1.84-.667 4.33-2.7 5.53-4.52 2.81-4.29 10.5-8.81 13.8-8.17 1.39.266 4.16-.355 6.18-1.39 5.31-2.71 25.2-2.71 30.3-.00428 2.04 1.09 4.73 1.69 6.49 1.44 4.1-.580 12 4.51 14.2 9.18 1 2.6 2 3.6 3 3.6 2.41 0 9.36 6.38 9.36 8.59 0 .707 1.8 3.37 4 5.91s4.08 5.61 4.17 6.81c.0941 1.2.220 2.94.281 3.87.0603.923.883 2.53 1.83 3.58 2.16 2.38 2.33 12.2.325 17.9-.767 2.17-1.16 5.16-.882 6.63.282 1.47-.022 3.32-.675 4.11-.863 1.04-.896 1.98-.118 3.43 1.38 2.59 1.36 4.07-.0403 2.13-.867-1.21-.940-1.11-.371.5.389 1.1.921 2.9 1.18 4 0.4 1.69.291 1.77-.698.5-.946-1.21-1.07-.914-.652 1.55.594 3.49-.449 5.7-2.85 6.06-1.19.175-1.46-.226-.969-1.43.378-.920.922-3.59 1.21-5.92.422-3.45.218-4.25-1.09-4.25-.884 0-2.3 1.06-3.14 2.35-1.37 2.09-1.38 2.73-.0338 5.94.975 2.33 1.21 4.38.675 5.84-.766 2.07-.885 1.98-1.58-1.19-.717-3.28-.852-3.06-3.11 5.07-3.34 12-3.2 13.9.756 10.3 1.76-1.59 1.83-1.59 1.22.009-.359.936-1.73 1.97-3.04 2.3s-2.4 1.11-2.41 1.74c-.0832 4.79-2.33 15.4-3.92 18.5-1.07 2.09-5.4 7.04-9.64 11l-7.7 7.19 2.39 2.71 2.39 2.71-3.07-2.77-3.07-2.77-4.43 1.71c-6.14 2.37-25.6 2.39-31.7.0418l-4.31-1.66-6.37 5.4c-3.5 2.97-7.41 5.9-8.69 6.51-2.23 1.06-2.22 1.03.130-.674zm30.1-24c.9-6 1.4-7 4.9-7 3.47 0 3.98.724 4.85 6.8.575 4.05 1.01 4.74 3.16 4.99 3.48.407 14.8-6.6 18.6-11.5 2.28-2.95 3.51-6.18 4.74-12.4 1.07-5.39 3.28-11.7 6.17-17.5 2.48-4.99 4.51-10.3 4.51-11.8 0-1.49.727-4.37 1.62-6.42 1.97-4.54 2.44-7.47 2.82-17.5.267-7.17.0601-8.15-2.55-12-1.56-2.31-2.85-5.21-2.86-6.44-.01-1.24-.538-2.25-1.17-2.25-.636 0-2.63-1.12-4.43-2.5-4.02-3.07-7.59-3.17-12.2-.352-1.91 1.18-5.21 2.27-7.34 2.42-2.13.151-4.37.590-5 .976-1.94 1.2-16.2 1.34-20.4.197-2.2-.597-4.81-.977-5.8-.843-.991.133-3.95-1.14-6.59-2.83-5.9-3.9-7.8-3.9-12.5-.1-2.08 1.65-4.39 3-5.14 3-.749 0-1.36.970-1.36 2.16s-1.06 3.55-2.36 5.25-2.68 4.13-3.09 5.4c-1.13 3.57-.767 15.2.518 16.8.631.761.891 2.05.576 2.88-.315.820 0.3 3.41 1.37 5.76s1.94 5.4 1.94 6.77c.000879 1.38 2.05 6.55 4.56 11.5 2.97 5.86 4.91 11.3 5.57 15.5 1.13 7.32 3.84 13.7 7.17 16.8 4.23 3.96 14.2 9.32 16.7 9.03 2.15-.249 2.58-.939 3.16-4.99zm3.6-10.5c.688-.277 1.81-.277 2.5 0 .688.277.125.504-1.25.504s-1.94-.227-1.25-.504zm7.5-1.03c.962-.252 2.54-.252 3.5 0 .962.252.175.457-1.75.457s-2.71-.206-1.75-.457zm-9.57-14.1c-1.51-1.67-1.47-2.27.542-8.16 2.5-7.32 3.61-6.33 1.82 1.64-.945 4.22-.946 5.73-.0062 6.86 1.75 2.11-.428 1.79-2.36-.348zm-19.7-24c-1.18-.745-1.04-.906.681-.777 1.19.0898 1.95.520 1.68.956-.599.969-.537.974-2.36-.179zm43.3-.2c.112-.688-.321-2.53-.963-4.08-.642-1.56-.872-3.31-.511-3.9.989-1.6-4.74.0512-7.14 2.06-1.98 1.65-1.98 1.65-.129-.540 2.71-3.21 8-4.62 14.9-4 6.53.592 9.25 2.26 7.7 4.71-.806 1.27-.951 1.23-.964-.275 0-1.9-4-3.7-8-3.7-3.08 0-4.07 1.68-2.24 3.81 2.57 3 2.76 3.94 1.05 5.32-1.42 1.15-1.55 1.15-.850-.0164.578-.959.408-1.23-.558-.875-.764.278-1.28 1.01-1.14 1.63.138.619-.220 1.12-.794 1.12s-.952-.562-.840-1.25zm-44.9-3.3c-.306-.799-.259-2.04.106-2.75.365-.714-.0456-.424-.911.643-.866 1.07-1.57 1.41-1.57.75 0-.655.9-2.09 2-3.19l2-2h-2.43c-3.72 0-7.36 1.69-7.73 3.6-.310 1.59-.432 1.59-1.71.0569-1.22-1.47-.962-1.83 2.22-3.16 6.16-2.57 15.4-1.8 19.7 1.64l2.47 1.98-3.2-1.56c-3.99-1.94-7.3-2.01-7.3-.144 0 .779.531 1.59 1.18 1.81.659.220.893 1.14.531 2.08-.794 2.07-4.56 2.24-5.33.238zm41.7-1.13c.048-1.16.285-1.4.604-.604.289.722.253 1.58-.0789 1.92-.332.332-.569-.258-.525-1.31zm-54.3-8.8c0-1.47 4.97-2.87 14.8-4.15 5.89-.769 11.7-1.7 13-2.07 1.8-.532 2.14-.344 1.66.913-.849 2.21-3.12 2.75-15.3 3.63-5.85.420-11.4 1.1-12.4 1.51-.962.408-1.75.484-1.75.170zm71.7-.323c-.374-.374-5.58-1-11.6-1.4-12.4-.815-14.7-1.35-15.5-3.58-.482-1.26-.141-1.44 1.66-.913 1.25.368 7.11 1.3 13 2.07 5.92.772 11.8 2.1 13 2.95 1 .9 2 1.6 1 1.6-.581 0-1.36-.306-1.74-.681zm23 14.2c0-.55-.436-.325-.969.5s-.969 1.95-.969 2.5.436.325.969-.5.969-1.95.969-2.5zm-26 70.4-3.46-3.07 3.75 2.69c3.31 2.38 4.39 3.45 3.46 3.45-.158 0-1.85-1.38-3.75-3.07zm19.1-56.5c.048-1.16.285-1.4.604-.604.289.722.253 1.58-.0789 1.92-.332.332-.569-.258-.525-1.31zm1.92-5.36c0-.518.445-1.22.989-1.55.567-.350.734.0511.393.941-.665 1.73-1.38 2.05-1.38.611z" fill="#5e3320"/>
 <path d="m87.2 157c-7.6-1-12.7-4-19.7-11-7.2-8-8.6-11-10.4-23-.8-6-2.6-15-3.9-19-1.3-5.4-2.7-11.1-3-13.1-.5-3.1-1.1-3.8-4.6-5.2-3.12-1.22-3.95-2.01-3.46-3.27.350-.913.126-2.28-.498-3.03-.624-.752-.916-2.51-.648-3.91s-.0838-4.22-.781-6.26c-2.28-6.67-2.26-16.3.0297-18.6.825-.825 1.5-2.45 1.5-3.6 0-3.35 2.54-8.53 5.21-10.6 1.35-1.06 2.76-3.15 3.14-4.65.824-3.28 6.83-9.51 9.92-10.3 1.23-.309 3.23-2.09 4.45-3.95 2.85-4.36 10.5-8.9 13.9-8.25 1.39.266 4.16-.355 6.18-1.39 5.31-2.71 24.7-2.7 30 .00686 2.16 1.09 4.96 1.7 6.71 1.44 4.1-.595 12 4.49 14.2 9.17 2 2.5 3 3.5 4 3.5 2.69 0 7.6 4.68 9.35 8.9.696 1.68 2.79 4.67 4.65 6.65s3.46 4.57 3.56 5.77c.0941 1.2.220 2.93.281 3.86.0603.923.883 2.53 1.83 3.58 2.16 2.38 2.33 12.2.325 17.9-.767 2.17-1.16 5.16-.882 6.63.282 1.47.001 3.29-.623 4.05-.624.752-.859 2.09-.522 2.96.453 1.18-.455 2.02-3.49 3.24-3.03 1.21-4.24 2.33-4.63 4.28-.286 1.45-1.85 8.26-3.48 15.1-1.63 6.88-3.41 16-3.96 20.3-.551 4.28-1.86 9.45-2.91 11.5-2.23 4.36-13.2 15.2-17.8 17.6-8.49 4.39-22.8 5.69-33.7 3.05zm7.51-15.1c.7-4 2.4-7 5-7 2.56 0 4.31 2.6 4.94 7.34.451 3.38.988 4.22 2.85 4.49 4.53.643 17.8-8.2 20.7-13.8.798-1.54 2.36-6.97 3.47-12.1 1.33-6.11 3.38-11.7 6.03-16.6 2.21-4.02 4.02-8.57 4.04-10.1.0121-1.54.894-4.72 1.96-7.07s1.68-4.94 1.37-5.76c-.315-.820-.0625-2.11.561-2.86 1.19-1.43 1.57-11.2.617-15.8-.307-1.5-1.68-4.38-3.04-6.39-1.37-2.01-2.48-4.5-2.48-5.52s-.373-1.86-.829-1.86-2.93-1.4-5.51-3.1l-4.68-3.1-6.61 3.19c-3.93 1.9-7.45 2.97-8.69 2.64-1.15-.299-2.69-.0413-3.43.574-1.84 1.53-20.7 1.48-22.6-.0591-.7-.5-2.1-.8-3-.4-.9.3-3.6-.6-6.3-2.2-7.7-4.6-8.8-4.7-13.4-.8-2.3 1.9-4.7 3.4-5.5 3.4-.773 0-1.41.823-1.41 1.83s-1.38 3.91-3.07 6.46c-2.72 4.11-3.07 5.47-3.1 12.1-.0160 4.08.486 8.38 1.11 9.56.629 1.18 0.9 2.53.601 3.02-.298.483.346 2.84 1.43 5.23 1.09 2.39 1.98 5.57 2 7.06.0121 1.49 2.01 6.57 4.44 11.3 2.96 5.74 4.82 11 5.62 15.8.662 3.96 2.03 8.85 3.05 10.8 3.39 6.7 15.6 15.2 20.9 14.6 2.12-.231 2.59-.912 3.06-4.44zm28.3-49.7c.445-.742-.132-1.3-1.56-1.5-1.6-.227-2.24-.969-2.19-2.52.041-1.22-.37-1.93-.920-1.59-.587.363-.733-.0664-.355-1.05.799-2.08-.870-2.14-4.68-.150-2.53 1.32-2.73 1.32-1.64.0110 1.62-1.96 7.51-3.55 12.5-3.38 2.72.0888 3.2.274 1.5.579-3.68.660-4.59 1.95-2.83 4.01 2.66 3.09 2.85 4.01 1.13 5.41-.965.782-1.38.861-.974.185zm-47.9-2.8c-.319-.832-.193-2.09.281-2.8.474-.706.0744-.426-.888.624s-1.75 1.41-1.75.797c0-.611.873-1.98 1.94-3.05 1.92-1.92 1.91-1.94-.75-2.35-1.8-.275-1.27-.460 1.59-.561 3.99-.140 11.2 2.01 11.2 3.33 0 .322-.870.120-1.93-.449-4.33-2.32-7.97-.343-4.95 2.68.612.612.811 1.6.441 2.2-.994 1.61-4.53 1.32-5.2-.426zm-9.6-2.69c-.762-1.99 1.06-3.82 3.7-3.73 1.96.0673 1.97.103.125.825-1.06.415-2.22 1.59-2.58 2.61-.550 1.57-.741 1.61-1.25.297zm67.3-.0810c-.008-.980-1.03-2.19-2.27-2.69-2.21-.888-2.21-.906-.122-.968 2.77-.0826 4.55 2.04 3.33 3.97-.772 1.22-.930 1.17-.943-.316zm-69.3-7.1c0-1.45 5.51-3 14.5-4.07 5.52-.662 10.8-1.54 11.8-1.96 2.53-1.09 2.2 1.15-.373 2.53-1.17.625-6.68 1.38-12.2 1.67-5.57.292-10.9.938-11.9 1.43-.962.496-1.75.678-1.75.403zm70-.468c-.825-.460-6.42-1.1-12.4-1.42-9.48-.509-11.2-.875-13-2.76l-2.07-2.17 2.5.727c1.38 0.4 7.02 1.29 12.5 1.98 8.88 1.11 14.5 2.68 14.5 4.08 0 .609-.215.563-2-.433z" fill="#2a232b"/>
 <path d="m91.7 158c-4.08-.683-12.3-3.5-15-5.14-4.43-2.69-14.1-12.6-16.1-16.4-1.07-2.07-2.39-7.24-2.92-11.5-.823-6.55-5.41-27.8-7.8-36.2-.465-1.63-1.78-2.78-3.88-3.38-1.75-.502-3.4-1.49-3.67-2.19-.378-.984.125-.956 2.19.122 1.48.770 3.23 1.4 3.91 1.41 1.72.0086 4.28 5.32 4.28 8.87 0 3.96.916 6.13 2.58 6.13 2.98 0-1.32-13.1-5.82-17.7-1.8-1.5-2.7-3-2-3 1.79 0 1.6-12.4-.212-13.9-1.18-.983-1.02-1.56 1.05-3.63 2.05-2.05 2.41-3.26 2.16-7.2-.264-4.11.0548-5.05 2.38-7.02 3-2.55 5.34-8.42 4.36-11-.547-1.42-.357-1.4 1.37.160 2.63 2.38 6.38 1.44 9.14-2.29l2.09-2.83 2.85 2.85c3.42 3.42 8.58 3.82 12.1.936 2.36-1.91 2.36-1.91 4.92 1.16 3.34 4 7.18 3.36 8.89-1.49 1.03-2.93 1.26-3.07 2.2-1.41 1.61 2.83 7.24 4.84 10.3 3.67 1.4-.533 2.55-1.72 2.55-2.65 0-1.56.126-1.57 1.83-.0248 2.8 2.54 8.79 2.13 11.7-0.8 1.42-1.42 2.45-1.91 2.45-1.15 0 3.55 8.31 7.2 12.6 5.56 2.29-.871 2.44-.761 1.82 1.3 0 1.2-1 2.4-1 2.7-.0202 3.11.677 4.28 3.18 5.33 2.23.936 2.72 1.59 2.02 2.7-2 3.7 1 9 5 9 1.61 0 1.58.283-.329 3.37-2.44 3.94-2.71 8.18-.589 8.99 1.23.473 1.05 1.23-1.05 4.33-1.66 2.45-2.35 4.53-1.98 5.99.392 1.56-.008 2.55-1.32 3.25-1.03.553-2.61 2.55-3.51 4.44-1.97 4.16-2.22 11-.380 10.4 1.28-.425 1.99-2.32 3.43-9.15.825-3.92 1.17-4.26 7-6.92 2.53-1.16 3.07-1.18 2.67-.125-.280.729-1.82 1.61-3.41 1.96-3.46.761-4.1 1.64-4.99 6.95-.373 2.22-1.85 8.41-3.28 13.8-1.43 5.35-3.06 13.4-3.62 17.9-.565 4.5-1.96 10.1-3.1 12.5-2.56 5.3-13.1 15.3-19.1 18.1-7.43 3.49-19.3 5.02-27.9 3.58zm20.5-3.51c6.33-1.6 11-4.39 16.2-9.72 5.89-5.98 9.89-13.6 11.4-21.6.619-3.29 2.12-9.63 3.33-14.1 2-7.37 2.05-8.07.507-7.67-.935.244-1.94-.169-2.22-.918-.794-2.07.889-11.2 2.71-14.7.889-1.72 1.35-3.55 1.03-4.08-.323-.522-.0724-1.91.557-3.09s1.13-5.48 1.11-9.58c-.0258-6.57-.388-8-3.1-12.2-1.69-2.63-3.08-5.42-3.1-6.19-.0156-.777-2.54-2.93-5.61-4.79l-5.58-3.38-5.86 2.8c-3.22 1.54-7.33 2.95-9.14 3.14-13.6 1.42-20.2 1.71-23 1-1.8-.449-4.81-.998-6.69-1.22-1.87-.222-5.03-1.48-7.01-2.79-5.96-3.94-7.35-4.03-11.5-.729-2.06 1.64-4.56 3.24-5.56 3.55-.997.316-2.09 1.67-2.42 3.01-.337 1.34-1.69 4.02-3 5.95-3.15 4.64-4.45 16-2.32 20.2.799 1.58 1.26 3.4 1.03 4.05-.233.650.265 2.51 1.11 4.14 1.82 3.52 3.55 13.6 2.6 15.2-.369.597-1.39.811-2.26.475-1.39-.535-1.35.149.339 5.59 1.06 3.41 2.41 9.4 3.01 13.3 2.12 14 11.2 27.1 22.3 32.2 9.03 4.13 20.4 4.95 31.1 2.23zm-23.5-6.8c-6.83-1.89-16.7-9.6-19.7-15.4-.843-1.63-2.17-6.6-2.94-11-.776-4.45-2.73-10.9-4.34-14.3-1.5-2-2.6-5-2.3-5 1.34 0 7.35 14.9 8.36 20.7 1.94 11.2 5.9 16.7 16.5 22.8 5.95 3.49 9.83 3.12 10.7-1.01.572-2.7.647-2.75.739-.5.180 4.37-2.39 6.24-6.87 5zm16.8-.0863c-1.04-.599-1.71-2.11-1.65-3.71l.0997-2.7.690 2.5c1.41 5.12 9.5 2.87 18.7-5.21 4.66-4.09 6.35-7.6 8.57-17.8 1.68-7.7 6.05-18.4 8-19.6.424-.262-.553 2.35-2.17 5.81s-3.66 10.1-4.55 14.8c-.883 4.68-2.48 9.92-3.55 11.7-5.19 8.43-19.6 16.9-24.1 14.3zm-8.33-8c-1.86-2.05-1.86-2.12.0361-3.5 2.48-1.81 3.99-1.78 5.56.109 1.03 1.24.935 1.88-.533 3.5-2.25 2.48-2.73 2.47-5.06-.109zm-21-50.4c0-1.51 2.43-2.84 3.4-1.87 1.3 1.4.5 3.3-1.4 3.3-1.1 0-2-.627-2-1.39zm44.3-.3c.421-2.19 3.33-2.5 3.33-.355 0 .817-.828 1.65-1.84 1.84-1.34.257-1.74-.150-1.49-1.49zm-79.9-18.8c-.310-.807-.370-2.04-.134-2.75.236-.706.666-.0455.956 1.47.566 2.95.0990 3.68-.822 1.28zm118-.4c.365-1.32 1.03-5.6 1.49-9.5l2-7.1-.275 7.55c-.151 4.15-.820 8.43-1.49 9.5-1.12 1.8-1.16 1.76-.548-.449zm-119-10.3c-.0749-3.68.201-6.9.614-7.16.412-.256.620 1.86.461 4.69-.477 8.52-.931 9.56-1.08 2.46zm2.94-11.4c.0480-1.16.285-1.4.604-.604.289.722.253 1.58-.0790 1.92-.332.332-.569-.258-.525-1.31zm114-2.7c-.0638-.990-.803-3.13-1.64-4.75-1-1.7-1-3-1-3 1.08 0 3.65 6.23 3.23 7.82-.391 1.48-.458 1.47-.560-.117zm-113-1.1c0-1.1 3-6.6 3.5-6.6.275 0-.244 1.46-1.15 3.25-1.86 3.65-2.4 4.41-2.4 3.37zm104-13.5c-.338-1.07-2.18-3.32-4.1-5-2-1.7-3-3.1-2-3.1 1.19 0 8.15 7.69 8.15 9 0 1.65-.824 1.13-1.48-.941zm-95.7-.638c1.2-2.21 7.06-7.99 7.45-7.35.143.235-1.71 2.42-4.12 4.85s-3.91 3.56-3.34 2.5zm81.7-12c-1.54-1.93-4.91-4.61-7.5-5.95-5.13-2.67-5.08-3.41.0781-1.1 3.93 1.76 6.79 4.21 9.16 7.82 2.49 3.81 1.6 3.41-1.74-.773zm-68.4-.3c1.33-2.59 7.39-6.76 11.1-7.63 1.57-.368 1.19-.00117-1 .984-1.92.864-5.24 3.22-7.37 5.24-2.8 2.65-3.55 3.04-2.71 1.4zm18.1-7.8c0-1.8 8-3.4 17-3.4s17 1.6 17 3.4c0 .275-1.56-.152-3.47-.949-4.7-1.96-22.4-1.96-27.1 0-1.91.797-3.47 1.22-3.47.949z" fill="#140f14"/>
</svg>
