<!DOCTYPE svg PUBLIC "-//W3C//DTD SVG 20010904//EN" "http://www.w3.org/TR/2001/REC-SVG-20010904/DTD/svg10.dtd">
<svg version="1.0" xmlns="http://www.w3.org/2000/svg" width="200px" height="200px" viewBox="0 0 2000 2000" preserveAspectRatio="xMidYMid meet">
<g id="layer101" fill="#3087af" stroke="none">
 <path d="M95 1978 c32 -109 108 -208 189 -248 45 -21 257 -62 305 -58 29 2 63 -18 143 -85 l47 -40 -37 -27 c-61 -44 -137 -134 -150 -177 -7 -22 -15 -68 -18 -102 -6 -49 -10 -61 -25 -61 -21 0 -59 -45 -59 -70 0 -10 -20 -57 -45 -106 -46 -89 -58 -157 -34 -181 8 -8 8 -17 0 -31 -6 -11 -9 -27 -6 -34 3 -8 -1 -41 -10 -73 -8 -33 -15 -78 -15 -102 0 -43 17 -93 32 -93 4 0 8 -14 8 -31 0 -35 13 -63 45 -99 12 -14 34 -46 48 -71 26 -46 64 -79 90 -79 7 0 25 -17 38 -37 28 -44 90 -81 145 -87 21 -2 58 -11 82 -20 59 -22 247 -18 284 6 13 9 41 16 62 16 48 0 124 46 145 89 10 19 26 33 41 36 33 7 79 52 98 97 8 19 23 41 34 49 24 16 48 70 48 106 0 14 4 25 8 25 15 0 32 49 32 88 0 21 -6 63 -14 93 -14 52 -16 77 -13 210 0 48 -5 65 -32 108 -18 28 -41 77 -50 108 -13 47 -23 61 -48 73 -28 14 -31 21 -37 74 -12 120 -48 180 -158 267 l-48 37 48 40 c64 53 100 75 125 77 53 5 243 36 276 45 113 31 175 106 225 268 l7 22 -906 0 -906 0 6 -22z"/>
 </g>
<g id="layer102" fill="#7e675e" stroke="none">
 <path d="M95 1978 c32 -109 108 -208 189 -248 45 -21 257 -62 305 -58 29 2 63 -18 143 -85 l47 -40 -37 -27 c-61 -44 -137 -134 -150 -177 -7 -22 -15 -68 -18 -102 -6 -49 -10 -61 -25 -61 -21 0 -59 -45 -59 -70 0 -10 -20 -57 -45 -106 -46 -89 -58 -157 -34 -181 8 -8 8 -17 0 -31 -6 -11 -9 -27 -6 -34 3 -8 -1 -41 -10 -73 -8 -33 -15 -78 -15 -102 0 -43 17 -93 32 -93 4 0 8 -14 8 -31 0 -35 13 -63 45 -99 12 -14 34 -46 48 -71 26 -46 64 -79 90 -79 7 0 25 -17 38 -37 28 -44 90 -81 145 -87 21 -2 58 -11 82 -20 59 -22 247 -18 284 6 13 9 41 16 62 16 48 0 124 46 145 89 10 19 26 33 41 36 33 7 79 52 98 97 8 19 23 41 34 49 24 16 48 70 48 106 0 14 4 25 8 25 15 0 32 49 32 88 0 21 -6 63 -14 93 -14 52 -16 77 -13 210 0 48 -5 65 -32 108 -18 28 -41 77 -50 108 -13 47 -23 61 -48 73 -28 14 -31 21 -37 74 -12 120 -48 180 -158 267 l-48 37 48 40 c64 53 100 75 125 77 53 5 243 36 276 45 93 26 162 92 199 192 33 90 35 98 19 98 -8 0 -19 -19 -27 -42 -31 -105 -90 -182 -163 -213 -32 -13 -204 -45 -246 -45 -40 0 9 14 91 26 126 19 181 39 221 81 35 36 80 116 92 166 l7 27 -887 0 -886 0 6 -22z m110 -132 c49 -62 116 -93 249 -116 62 -11 95 -20 84 -24 -22 -10 -176 19 -232 44 -49 20 -110 78 -140 131 -22 39 -15 33 39 -35z m1050 -32 c33 -23 76 -58 94 -78 21 -21 45 -37 60 -37 25 -2 25 -2 3 -6 -17 -3 -35 7 -67 36 -23 22 -72 61 -107 86 -102 76 -90 75 17 -1z m-640 -94 c-26 -27 -75 -43 -60 -20 3 6 14 10 24 10 10 0 26 9 36 20 10 11 20 20 23 20 3 0 -7 -13 -23 -30z"/>
 </g>
<g id="layer103" fill="#93614a" stroke="none">
 <path d="M95 1978 c32 -109 108 -208 189 -248 45 -21 257 -62 305 -58 29 2 63 -18 143 -85 l47 -40 -37 -27 c-61 -44 -137 -134 -150 -177 -7 -22 -15 -68 -18 -102 -6 -49 -10 -61 -25 -61 -21 0 -59 -45 -59 -70 0 -10 -20 -57 -45 -106 -46 -89 -58 -157 -34 -181 8 -8 8 -17 0 -31 -6 -11 -9 -27 -6 -34 3 -8 -1 -41 -10 -73 -8 -33 -15 -78 -15 -102 0 -43 17 -93 32 -93 4 0 8 -14 8 -31 0 -35 13 -63 45 -99 12 -14 34 -46 48 -71 26 -46 64 -79 90 -79 7 0 25 -17 38 -37 28 -44 90 -81 145 -87 21 -2 58 -11 82 -20 59 -22 247 -18 284 6 13 9 41 16 62 16 48 0 124 46 145 89 10 19 26 33 41 36 33 7 79 52 98 97 8 19 23 41 34 49 24 16 48 70 48 106 0 14 4 25 8 25 15 0 32 49 32 88 0 21 -6 63 -14 93 -14 52 -16 77 -13 210 0 48 -5 65 -32 108 -18 28 -41 77 -50 108 -13 47 -23 61 -48 73 -28 14 -31 21 -37 74 -12 120 -48 180 -158 267 l-48 37 48 40 c64 53 100 75 125 77 53 5 243 36 276 45 93 26 162 92 199 192 33 90 35 98 19 98 -8 0 -19 -19 -27 -42 -31 -105 -90 -182 -163 -213 -32 -13 -204 -45 -246 -45 -40 0 9 14 91 26 126 19 181 39 221 81 35 36 80 116 92 166 l7 27 -887 0 -886 0 6 -22z m110 -132 c49 -62 116 -93 249 -116 62 -11 95 -20 84 -24 -22 -10 -176 19 -232 44 -49 20 -110 78 -140 131 -22 39 -15 33 39 -35z m1050 -32 c33 -23 76 -58 94 -78 21 -21 45 -37 60 -37 25 -2 25 -2 3 -6 -17 -3 -35 7 -67 36 -23 22 -72 61 -107 86 -102 76 -90 75 17 -1z m-640 -94 c-26 -27 -75 -43 -60 -20 3 6 14 10 24 10 10 0 26 9 36 20 10 11 20 20 23 20 3 0 -7 -13 -23 -30z"/>
 </g>
<g id="layer104" fill="#1e78a2" stroke="none">
 <path d="M95 1978 c32 -109 108 -208 189 -248 45 -21 257 -62 306 -58 15 1 35 -4 44 -11 9 -7 16 -10 16 -5 0 5 5 1 11 -8 5 -10 15 -18 21 -18 5 0 19 -11 30 -26 11 -14 23 -23 25 -20 3 3 13 -5 23 -16 17 -21 17 -23 -19 -48 -60 -44 -136 -134 -149 -177 -7 -22 -15 -68 -18 -102 -6 -49 -10 -61 -25 -61 -21 0 -59 -45 -59 -70 0 -10 -20 -57 -45 -106 -46 -89 -58 -157 -34 -181 8 -8 8 -17 0 -31 -6 -11 -9 -27 -6 -34 3 -8 -1 -41 -10 -73 -8 -33 -15 -78 -15 -102 0 -43 17 -93 32 -93 4 0 8 -14 8 -31 0 -35 13 -63 45 -99 12 -14 34 -46 48 -71 26 -46 64 -79 90 -79 7 0 25 -17 38 -37 28 -44 90 -81 145 -87 21 -2 58 -11 82 -20 59 -22 247 -18 284 6 13 9 41 16 62 16 48 0 124 46 145 89 10 19 26 33 41 36 33 7 79 52 98 97 8 19 23 41 34 49 24 16 48 70 48 106 0 14 4 25 8 25 15 0 32 49 32 88 0 21 -6 63 -14 93 -14 52 -16 78 -13 210 0 47 -5 64 -36 115 -20 32 -41 80 -48 106 -6 26 -18 53 -27 60 -13 11 -14 11 -7 -2 13 -21 17 -72 5 -65 -6 3 0 -11 12 -31 12 -21 17 -35 11 -31 -14 9 -23 -14 -17 -45 5 -23 5 -23 -6 1 -6 14 -9 30 -6 38 3 7 1 15 -4 18 -6 4 -10 12 -10 18 0 7 4 6 10 -3 7 -10 10 -11 10 -2 0 7 -6 15 -14 18 -19 7 -30 72 -15 90 9 11 8 14 -3 14 -11 0 -17 17 -22 61 -12 123 -47 182 -157 269 l-48 38 46 41 c25 22 50 41 54 41 4 0 12 7 17 16 5 9 12 15 15 15 4 -1 8 -1 10 0 1 0 13 2 27 3 75 9 247 37 279 46 93 26 162 92 199 192 33 90 35 98 19 98 -8 0 -19 -19 -27 -42 -31 -105 -90 -182 -163 -213 -32 -13 -204 -45 -246 -45 -40 0 9 14 91 26 126 19 181 39 221 81 35 36 80 116 92 166 l7 27 -887 0 -886 0 6 -22z m1050 -125 c85 -56 82 -61 -21 -40 l-61 13 21 -47 c19 -42 21 -44 24 -20 3 26 3 27 75 23 68 -4 75 -7 127 -51 l56 -46 -78 -57 c-43 -32 -78 -62 -78 -67 0 -15 -58 5 -122 44 -73 43 -102 44 -170 4 -29 -18 -68 -37 -86 -43 -32 -11 -36 -10 -70 22 -21 18 -62 50 -92 71 l-56 37 48 39 c49 41 86 52 189 54 l46 1 -8 -47 c-13 -80 -9 -81 15 -5 13 40 30 80 38 89 11 15 11 16 -5 10 -48 -18 -205 -51 -195 -41 3 3 66 36 139 74 130 67 135 68 159 53 14 -9 61 -40 105 -70z m-940 -7 c49 -62 116 -93 249 -116 62 -11 95 -20 84 -24 -22 -10 -176 19 -232 44 -49 20 -110 78 -140 131 -22 39 -15 33 39 -35z m1050 -32 c33 -23 76 -58 94 -78 21 -21 45 -37 60 -37 25 -2 25 -2 3 -6 -17 -3 -35 7 -67 36 -23 22 -72 61 -107 86 -102 76 -90 75 17 -1z m-640 -94 c-26 -27 -75 -43 -60 -20 3 6 14 10 24 10 10 0 26 9 36 20 10 11 20 20 23 20 3 0 -7 -13 -23 -30z m325 -270 c5 -8 12 -33 17 -55 7 -34 12 -40 41 -46 38 -8 42 -3 50 58 4 25 14 50 23 56 25 16 105 -28 170 -92 50 -51 57 -62 68 -121 21 -109 31 -143 67 -207 19 -34 34 -75 34 -92 0 -17 9 -48 20 -68 11 -21 20 -50 20 -65 0 -15 5 -30 11 -34 7 -4 9 -35 6 -91 -4 -69 -9 -90 -31 -121 -14 -21 -26 -48 -26 -60 0 -12 -5 -22 -10 -22 -6 0 -28 -11 -50 -25 -49 -31 -58 -31 -126 1 -31 15 -64 24 -76 21 -11 -3 -30 0 -42 8 -26 17 -176 19 -215 3 -14 -6 -35 -10 -46 -9 -11 1 -42 -12 -68 -29 -59 -37 -74 -37 -117 0 -19 16 -42 29 -51 30 -10 0 -19 12 -23 30 -3 17 -15 43 -27 59 -34 46 -31 213 6 296 7 17 16 50 20 74 4 25 17 61 28 80 42 73 55 108 66 175 7 38 21 86 31 106 23 45 95 110 153 139 46 23 66 24 77 1z m-380 -294 c0 -14 -26 -75 -39 -90 -9 -11 -10 -16 -3 -12 14 9 16 -3 2 -24 -7 -11 -10 -11 -10 -2 0 8 -5 10 -12 6 -8 -5 -9 -2 -4 12 4 10 10 33 13 49 5 30 29 65 45 65 4 0 8 -2 8 -4z m-74 -194 c1 -15 5 -38 8 -52 5 -21 4 -20 -8 5 -17 34 -21 20 -6 -20 8 -20 7 -27 -6 -32 -29 -11 -38 13 -20 50 9 19 16 47 16 63 0 34 15 22 16 -14z m1053 -59 c1 -46 -12 -56 -29 -22 -9 16 -8 32 2 66 11 39 14 42 19 21 4 -12 7 -42 8 -65z"/>
 <path d="M975 1860 c-4 -6 7 -10 25 -10 18 0 29 4 25 10 -3 6 -15 10 -25 10 -10 0 -22 -4 -25 -10z"/>
 <path d="M900 1300 c-25 -16 39 -32 112 -28 70 4 85 9 73 27 -8 13 -164 14 -185 1z"/>
 <path d="M970 1181 c-33 -9 -36 -35 -11 -109 12 -34 21 -81 22 -104 1 -42 1 -42 10 -13 6 17 8 70 5 119 -4 59 -2 94 5 102 12 15 8 16 -31 5z"/>
 <path d="M700 925 c0 -3 14 -18 32 -34 l31 -28 -22 -31 c-28 -40 -63 -50 -97 -27 -19 12 -25 13 -22 4 10 -29 66 -49 161 -58 52 -5 105 -15 117 -21 25 -13 35 -8 26 15 -9 24 -50 35 -144 37 -48 1 -71 3 -51 5 27 3 38 10 42 25 6 22 27 16 27 -8 0 -9 11 -14 31 -14 l31 0 -26 31 c-32 38 -32 40 -1 69 33 31 32 40 -7 40 -17 0 -28 -3 -25 -7 8 -7 -11 -33 -24 -33 -4 0 -11 9 -14 20 -4 14 -15 20 -36 20 -16 0 -29 -2 -29 -5z"/>
 <path d="M1120 926 c0 -3 11 -17 25 -32 32 -34 31 -47 -2 -79 l-28 -25 29 0 c16 0 34 7 41 17 12 16 40 9 30 -8 -4 -5 10 -9 31 -9 l36 0 -31 32 c-33 34 -33 34 13 86 l19 22 -31 0 c-22 0 -32 -6 -37 -20 -3 -11 -10 -20 -14 -20 -13 0 -32 26 -24 33 3 4 -8 7 -25 7 -18 0 -32 -2 -32 -4z"/>
 <path d="M1352 802 c-16 -10 -59 -17 -137 -22 -112 -6 -145 -16 -145 -46 0 -17 5 -17 32 -3 11 6 62 15 114 20 89 8 144 25 159 50 11 17 2 18 -23 1z"/>
 </g>
<g id="layer105" fill="#176d95" stroke="none">
 <path d="M95 1979 c32 -110 108 -209 189 -249 45 -21 257 -62 306 -58 15 1 35 -4 44 -11 9 -7 16 -10 16 -5 0 5 5 1 11 -8 5 -10 15 -18 21 -18 5 0 19 -11 30 -26 11 -14 23 -23 25 -20 3 3 13 -5 23 -16 17 -21 17 -23 -19 -48 -60 -44 -136 -134 -149 -177 -7 -22 -15 -68 -18 -102 -6 -49 -10 -61 -25 -61 -21 0 -59 -45 -59 -70 0 -10 -20 -57 -45 -106 -46 -89 -58 -157 -34 -181 8 -8 8 -17 0 -31 -6 -11 -9 -27 -6 -34 3 -8 -1 -41 -10 -73 -8 -33 -15 -78 -15 -102 0 -43 17 -93 32 -93 4 0 8 -14 8 -31 0 -35 13 -63 45 -99 12 -14 34 -46 48 -71 26 -46 64 -79 90 -79 7 0 25 -17 38 -37 28 -44 90 -81 145 -87 21 -2 58 -11 82 -20 59 -22 247 -18 284 6 13 9 41 16 62 16 48 0 124 46 145 89 10 19 26 33 41 36 33 7 79 52 98 97 8 19 23 41 34 49 24 16 48 70 48 106 0 14 4 25 8 25 15 0 32 49 32 88 0 21 -6 63 -14 93 -14 52 -16 78 -13 210 0 47 -5 64 -36 115 -20 32 -41 80 -48 106 -6 26 -18 53 -27 60 -13 11 -14 11 -7 -2 13 -21 17 -72 5 -65 -6 3 0 -11 12 -31 12 -21 17 -35 11 -31 -14 9 -23 -14 -17 -45 5 -23 5 -23 -6 1 -6 14 -9 30 -6 38 3 7 1 15 -4 18 -6 4 -10 12 -10 18 0 7 4 6 10 -3 7 -10 10 -11 10 -2 0 7 -6 15 -14 18 -19 7 -30 72 -15 90 9 11 8 14 -3 14 -11 0 -17 17 -22 61 -12 123 -47 182 -157 269 l-48 38 46 41 c25 22 50 41 54 41 4 0 12 7 17 16 5 9 12 15 15 15 4 -1 8 -1 10 0 1 0 13 2 27 3 75 9 247 37 279 46 93 26 162 92 199 192 33 88 35 101 22 96 -7 -2 -22 -31 -34 -64 -55 -151 -117 -195 -316 -224 -72 -11 -135 -22 -141 -26 -6 -3 -38 21 -72 53 -34 33 -124 101 -201 152 -101 68 -135 96 -125 102 11 7 10 9 -4 9 -26 0 -305 -144 -349 -180 -20 -16 -51 -49 -70 -73 l-33 -42 57 51 c70 64 141 110 243 161 103 52 122 58 141 42 13 -10 -2 -21 -93 -64 -153 -73 -299 -172 -281 -190 4 -4 27 10 52 32 39 35 54 41 107 47 34 3 76 6 94 6 l32 0 -8 -47 c-13 -80 -9 -81 15 -5 13 40 30 80 38 89 11 15 11 16 -5 10 -23 -9 -123 -33 -167 -41 l-35 -6 33 20 c18 11 82 45 141 75 l108 54 104 -70 c108 -72 109 -78 3 -56 l-61 13 21 -47 c19 -42 21 -44 24 -20 3 26 3 27 75 23 68 -4 75 -7 127 -51 l56 -46 -78 -57 c-43 -32 -78 -62 -78 -67 0 -15 -58 5 -122 44 -73 43 -102 44 -170 4 -29 -18 -68 -37 -86 -43 -32 -11 -36 -10 -70 22 -51 47 -152 113 -163 106 -14 -8 -167 15 -240 36 -36 11 -84 33 -107 50 -44 32 -98 107 -124 175 -17 44 -45 64 -33 24z m845 -529 c5 -8 12 -33 17 -55 7 -34 12 -40 41 -46 38 -8 42 -3 50 58 4 25 14 50 23 56 25 16 105 -28 170 -92 50 -51 57 -62 68 -121 21 -109 31 -143 67 -207 19 -34 34 -75 34 -92 0 -17 9 -48 20 -68 11 -21 20 -50 20 -65 0 -15 5 -30 11 -34 7 -4 9 -35 6 -91 -4 -69 -9 -90 -31 -121 -14 -21 -26 -48 -26 -60 0 -12 -5 -22 -10 -22 -6 0 -28 -11 -50 -25 -49 -31 -58 -31 -126 1 -31 15 -64 24 -76 21 -11 -3 -30 0 -42 8 -26 17 -176 19 -215 3 -14 -6 -35 -10 -46 -9 -11 1 -42 -12 -68 -29 -59 -37 -74 -37 -117 0 -19 16 -42 29 -51 30 -10 0 -19 12 -23 30 -3 17 -15 43 -27 59 -34 46 -31 213 6 296 7 17 16 50 20 74 4 25 17 61 28 80 42 73 55 108 66 175 7 38 21 86 31 106 23 45 95 110 153 139 46 23 66 24 77 1z m-380 -294 c0 -14 -26 -75 -39 -90 -9 -11 -10 -16 -3 -12 14 9 16 -3 2 -24 -7 -11 -10 -11 -10 -2 0 8 -5 10 -12 6 -8 -5 -9 -2 -4 12 4 10 10 33 13 49 5 30 29 65 45 65 4 0 8 -2 8 -4z m-74 -194 c1 -15 5 -38 8 -52 5 -21 4 -20 -8 5 -17 34 -21 20 -6 -20 8 -20 7 -27 -6 -32 -29 -11 -38 13 -20 50 9 19 16 47 16 63 0 34 15 22 16 -14z m1053 -59 c1 -46 -12 -56 -29 -22 -9 16 -8 32 2 66 11 39 14 42 19 21 4 -12 7 -42 8 -65z"/>
 <path d="M900 1300 c-25 -16 39 -32 112 -28 70 4 85 9 73 27 -8 13 -164 14 -185 1z"/>
 <path d="M970 1181 c-33 -9 -36 -35 -11 -109 12 -34 21 -81 22 -104 1 -42 1 -42 10 -13 6 17 8 70 5 119 -4 59 -2 94 5 102 12 15 8 16 -31 5z"/>
 <path d="M700 925 c0 -3 14 -18 32 -34 l31 -28 -22 -31 c-28 -40 -63 -50 -97 -27 -19 12 -25 13 -22 4 10 -29 66 -49 161 -58 52 -5 105 -15 117 -21 25 -13 35 -8 26 15 -9 24 -50 35 -144 37 -48 1 -71 3 -51 5 27 3 38 10 42 25 6 22 27 16 27 -8 0 -9 11 -14 31 -14 l31 0 -26 31 c-32 38 -32 40 -1 69 33 31 32 40 -7 40 -17 0 -28 -3 -25 -7 8 -7 -11 -33 -24 -33 -4 0 -11 9 -14 20 -4 14 -15 20 -36 20 -16 0 -29 -2 -29 -5z"/>
 <path d="M1120 926 c0 -3 11 -17 25 -32 32 -34 31 -47 -2 -79 l-28 -25 29 0 c16 0 34 7 41 17 12 16 40 9 30 -8 -4 -5 10 -9 31 -9 l36 0 -31 32 c-33 34 -33 34 13 86 l19 22 -31 0 c-22 0 -32 -6 -37 -20 -3 -11 -10 -20 -14 -20 -13 0 -32 26 -24 33 3 4 -8 7 -25 7 -18 0 -32 -2 -32 -4z"/>
 <path d="M1352 802 c-16 -10 -59 -17 -137 -22 -112 -6 -145 -16 -145 -46 0 -17 5 -17 32 -3 11 6 62 15 114 20 89 8 144 25 159 50 11 17 2 18 -23 1z"/>
 <path d="M1050 1996 c0 -2 48 -39 108 -82 59 -43 142 -109 186 -147 43 -37 81 -65 85 -61 10 10 -162 155 -280 234 -83 56 -99 65 -99 56z"/>
 <path d="M975 1860 c-4 -6 7 -10 25 -10 18 0 29 4 25 10 -3 6 -15 10 -25 10 -10 0 -22 -4 -25 -10z"/>
 </g>
<g id="layer106" fill="#74564a" stroke="none">
 <path d="M95 1978 c32 -109 108 -208 189 -248 45 -21 257 -62 306 -58 15 1 35 -4 44 -11 9 -7 16 -10 16 -5 0 5 5 1 11 -8 5 -10 15 -18 21 -18 5 0 19 -11 30 -26 11 -14 23 -23 25 -20 3 3 13 -5 23 -16 17 -21 17 -23 -19 -48 -60 -44 -136 -134 -149 -177 -7 -22 -15 -68 -18 -102 -6 -49 -10 -61 -25 -61 -21 0 -59 -45 -59 -70 0 -10 -20 -57 -45 -106 -46 -89 -58 -157 -34 -181 8 -8 8 -17 0 -31 -6 -11 -9 -27 -6 -34 3 -8 -1 -41 -10 -73 -8 -33 -15 -78 -15 -102 0 -43 17 -93 32 -93 4 0 8 -14 8 -31 0 -35 13 -63 45 -99 12 -14 34 -46 48 -71 26 -46 64 -79 90 -79 7 0 25 -17 38 -37 28 -44 90 -81 145 -87 21 -2 58 -11 82 -20 59 -22 247 -18 284 6 13 9 41 16 62 16 48 0 124 46 145 89 10 19 26 33 41 36 33 7 79 52 98 97 8 19 23 41 34 49 24 16 48 70 48 106 0 14 4 25 8 25 15 0 32 49 32 88 0 21 -6 63 -14 93 -14 52 -16 78 -13 210 0 47 -5 64 -36 115 -20 32 -41 80 -48 106 -6 26 -18 53 -27 60 -13 11 -14 11 -7 -2 13 -21 17 -72 5 -65 -6 3 0 -11 12 -31 12 -21 17 -35 11 -31 -14 9 -23 -14 -17 -45 5 -23 5 -23 -6 1 -6 14 -9 30 -6 38 3 7 1 15 -4 18 -6 4 -10 12 -10 18 0 7 4 6 10 -3 7 -10 10 -11 10 -2 0 7 -6 15 -14 18 -19 7 -30 72 -15 90 9 11 8 14 -3 14 -11 0 -17 17 -22 61 -12 123 -47 182 -157 269 l-48 38 46 41 c25 22 50 41 54 41 4 0 12 7 17 16 5 9 12 15 15 15 4 -1 8 -1 10 0 1 0 13 2 27 3 75 9 247 37 279 46 93 26 162 92 199 192 31 85 34 98 22 98 -6 0 -13 -8 -16 -17 -25 -80 -64 -153 -100 -189 -48 -48 -99 -68 -234 -88 l-95 -14 -55 53 c-30 29 -81 73 -113 98 -62 50 -207 150 -207 143 0 -2 48 -39 108 -83 59 -44 140 -108 181 -143 67 -59 72 -65 53 -73 -18 -8 -32 0 -89 53 -37 34 -126 101 -198 149 -71 48 -129 92 -128 99 2 7 0 12 -3 12 -3 0 -72 -32 -152 -72 -130 -64 -155 -81 -222 -146 -72 -72 -72 -72 -9 -15 69 62 177 129 291 181 57 26 69 28 85 17 10 -7 16 -16 13 -19 -3 -3 -50 -26 -104 -51 -118 -55 -219 -119 -270 -171 -21 -22 -43 -37 -50 -36 -6 2 -31 6 -56 9 -218 24 -311 81 -383 236 -30 64 -55 91 -42 45z m1050 -125 c85 -56 82 -61 -21 -40 l-61 13 21 -47 c19 -42 21 -44 24 -20 3 26 3 27 75 23 68 -4 75 -7 127 -51 l56 -46 -78 -57 c-43 -32 -78 -62 -78 -67 0 -15 -58 5 -122 44 -73 43 -102 44 -170 4 -29 -18 -68 -37 -86 -43 -32 -11 -36 -10 -70 22 -21 18 -62 50 -92 71 l-56 37 48 39 c49 41 86 52 189 54 l46 1 -8 -47 c-13 -80 -9 -81 15 -5 13 40 30 80 38 89 11 15 11 16 -5 10 -48 -18 -205 -51 -195 -41 3 3 66 36 139 74 130 67 135 68 159 53 14 -9 61 -40 105 -70z m-205 -403 c5 -8 12 -33 17 -55 7 -34 12 -40 41 -46 38 -8 42 -3 50 58 4 25 14 50 23 56 25 16 105 -28 170 -92 50 -51 57 -62 68 -121 21 -109 31 -143 67 -207 19 -34 34 -75 34 -92 0 -17 9 -48 20 -68 11 -21 20 -50 20 -65 0 -15 5 -30 11 -34 7 -4 9 -35 6 -91 -4 -69 -9 -90 -31 -121 -14 -21 -26 -48 -26 -60 0 -12 -5 -22 -10 -22 -6 0 -28 -11 -50 -25 -49 -31 -58 -31 -126 1 -31 15 -64 24 -76 21 -11 -3 -30 0 -42 8 -26 17 -176 19 -215 3 -14 -6 -35 -10 -46 -9 -11 1 -42 -12 -68 -29 -59 -37 -74 -37 -117 0 -19 16 -42 29 -51 30 -10 0 -19 12 -23 30 -3 17 -15 43 -27 59 -34 46 -31 213 6 296 7 17 16 50 20 74 4 25 17 61 28 80 42 73 55 108 66 175 7 38 21 86 31 106 23 45 95 110 153 139 46 23 66 24 77 1z m-380 -294 c0 -14 -26 -75 -39 -90 -9 -11 -10 -16 -3 -12 14 9 16 -3 2 -24 -7 -11 -10 -11 -10 -2 0 8 -5 10 -12 6 -8 -5 -9 -2 -4 12 4 10 10 33 13 49 5 30 29 65 45 65 4 0 8 -2 8 -4z m-74 -194 c1 -15 5 -38 8 -52 5 -21 4 -20 -8 5 -17 34 -21 20 -6 -20 8 -20 7 -27 -6 -32 -29 -11 -38 13 -20 50 9 19 16 47 16 63 0 34 15 22 16 -14z m1053 -59 c1 -46 -12 -56 -29 -22 -9 16 -8 32 2 66 11 39 14 42 19 21 4 -12 7 -42 8 -65z"/>
 <path d="M975 1860 c-4 -6 7 -10 25 -10 18 0 29 4 25 10 -3 6 -15 10 -25 10 -10 0 -22 -4 -25 -10z"/>
 <path d="M900 1300 c-25 -16 39 -32 112 -28 70 4 85 9 73 27 -8 13 -164 14 -185 1z"/>
 <path d="M970 1181 c-33 -9 -36 -35 -11 -109 12 -34 21 -81 22 -104 1 -42 1 -42 10 -13 6 17 8 70 5 119 -4 59 -2 94 5 102 12 15 8 16 -31 5z"/>
 <path d="M700 925 c0 -3 14 -18 32 -34 l31 -28 -22 -31 c-28 -40 -63 -50 -97 -27 -19 12 -25 13 -22 4 10 -29 66 -49 161 -58 52 -5 105 -15 117 -21 25 -13 35 -8 26 15 -9 24 -50 35 -144 37 -48 1 -71 3 -51 5 27 3 38 10 42 25 6 22 27 16 27 -8 0 -9 11 -14 31 -14 l31 0 -26 31 c-32 38 -32 40 -1 69 33 31 32 40 -7 40 -17 0 -28 -3 -25 -7 8 -7 -11 -33 -24 -33 -4 0 -11 9 -14 20 -4 14 -15 20 -36 20 -16 0 -29 -2 -29 -5z"/>
 <path d="M1120 926 c0 -3 11 -17 25 -32 32 -34 31 -47 -2 -79 l-28 -25 29 0 c16 0 34 7 41 17 12 16 40 9 30 -8 -4 -5 10 -9 31 -9 l36 0 -31 32 c-33 34 -33 34 13 86 l19 22 -31 0 c-22 0 -32 -6 -37 -20 -3 -11 -10 -20 -14 -20 -13 0 -32 26 -24 33 3 4 -8 7 -25 7 -18 0 -32 -2 -32 -4z"/>
 <path d="M1352 802 c-16 -10 -59 -17 -137 -22 -112 -6 -145 -16 -145 -46 0 -17 5 -17 32 -3 11 6 62 15 114 20 89 8 144 25 159 50 11 17 2 18 -23 1z"/>
 </g>
<g id="layer107" fill="#865038" stroke="none">
 <path d="M95 1978 c32 -109 108 -208 189 -248 45 -21 257 -62 306 -58 15 1 35 -4 44 -11 9 -7 16 -10 16 -5 0 5 5 1 11 -8 5 -10 15 -18 21 -18 5 0 19 -11 30 -26 11 -14 23 -23 25 -20 3 3 13 -5 23 -16 17 -21 17 -23 -19 -48 -60 -44 -136 -134 -149 -177 -7 -22 -15 -68 -18 -102 -6 -49 -10 -61 -25 -61 -21 0 -59 -45 -59 -70 0 -10 -20 -57 -45 -106 -46 -89 -58 -157 -34 -181 8 -8 8 -17 0 -31 -6 -11 -9 -27 -6 -34 3 -8 -1 -41 -10 -73 -8 -33 -15 -78 -15 -102 0 -43 17 -93 32 -93 4 0 8 -14 8 -31 0 -35 13 -63 45 -99 12 -14 34 -46 48 -71 26 -46 64 -79 90 -79 7 0 25 -17 38 -37 28 -44 90 -81 145 -87 21 -2 58 -11 82 -20 59 -22 247 -18 284 6 13 9 41 16 62 16 48 0 124 46 145 89 10 19 26 33 41 36 33 7 79 52 98 97 8 19 23 41 34 49 24 16 48 70 48 106 0 14 4 25 8 25 15 0 32 49 32 88 0 21 -6 63 -14 93 -14 52 -16 78 -13 210 0 47 -5 64 -36 115 -20 32 -41 80 -48 106 -6 26 -18 53 -27 60 -13 11 -14 11 -7 -2 13 -21 17 -72 5 -65 -6 3 0 -11 12 -31 12 -21 17 -35 11 -31 -14 9 -23 -14 -17 -45 5 -23 5 -23 -6 1 -6 14 -9 30 -6 38 3 7 1 15 -4 18 -6 4 -10 12 -10 18 0 7 4 6 10 -3 7 -10 10 -11 10 -2 0 7 -6 15 -14 18 -19 7 -30 72 -15 90 9 11 8 14 -3 14 -11 0 -17 17 -22 61 -12 123 -47 182 -157 269 l-48 38 46 41 c25 22 50 41 54 41 4 0 12 7 17 16 5 9 12 15 15 15 4 -1 8 -1 10 0 1 0 13 2 27 3 75 9 247 37 279 46 93 26 162 92 199 192 31 85 34 98 22 98 -6 0 -13 -8 -16 -17 -25 -80 -64 -153 -100 -189 -48 -48 -99 -68 -234 -88 l-95 -14 -55 53 c-30 29 -81 73 -113 98 -62 50 -207 150 -207 143 0 -2 48 -39 108 -83 59 -44 140 -108 181 -143 67 -59 72 -65 53 -73 -18 -8 -32 0 -89 53 -37 34 -126 101 -198 149 -71 48 -129 92 -128 99 2 7 0 12 -3 12 -3 0 -72 -32 -152 -72 -130 -64 -155 -81 -222 -146 -72 -72 -72 -72 -9 -15 69 62 177 129 291 181 57 26 69 28 85 17 10 -7 16 -16 13 -19 -3 -3 -50 -26 -104 -51 -118 -55 -219 -119 -270 -171 -21 -22 -43 -37 -50 -36 -6 2 -31 6 -56 9 -218 24 -311 81 -383 236 -30 64 -55 91 -42 45z m1033 -112 c51 -33 87 -62 79 -64 -7 -2 -43 3 -79 11 l-65 13 21 -47 c19 -42 21 -44 24 -20 3 26 3 27 75 23 68 -4 75 -7 128 -50 l56 -45 -78 -59 c-44 -32 -79 -62 -79 -67 0 -15 -58 5 -122 44 -73 43 -102 44 -170 4 -29 -18 -68 -37 -86 -43 -32 -11 -36 -10 -70 22 -21 18 -63 51 -95 72 l-58 39 53 40 c50 38 58 40 144 47 l91 7 -8 -49 c-13 -81 -9 -83 15 -6 13 40 30 80 38 89 11 15 11 16 -5 10 -51 -19 -204 -51 -194 -40 18 17 273 141 282 136 5 -3 52 -33 103 -67z m-188 -416 c5 -8 12 -33 17 -55 7 -34 12 -40 41 -46 38 -8 42 -3 50 58 4 25 14 50 23 56 25 16 105 -28 170 -92 50 -51 57 -62 68 -121 21 -109 31 -143 67 -207 19 -34 34 -75 34 -92 0 -17 9 -48 20 -68 11 -21 20 -50 20 -65 0 -15 5 -30 11 -34 7 -4 9 -35 6 -91 -4 -69 -9 -90 -31 -121 -14 -21 -26 -48 -26 -60 0 -12 -5 -22 -10 -22 -6 0 -28 -11 -50 -25 -49 -31 -58 -31 -126 1 -31 15 -64 24 -76 21 -11 -3 -30 0 -42 8 -26 16 -177 18 -215 3 -14 -6 -35 -10 -46 -9 -11 1 -42 -12 -68 -29 -59 -37 -74 -37 -117 0 -19 16 -42 29 -51 30 -10 0 -19 12 -23 30 -3 17 -15 43 -27 59 -34 46 -31 213 6 296 7 17 16 50 20 74 4 25 17 61 28 80 42 73 55 108 66 175 7 38 21 86 31 106 23 45 95 110 153 139 46 23 66 24 77 1z m-380 -294 c0 -14 -26 -75 -39 -90 -9 -11 -10 -16 -3 -12 14 9 16 -3 2 -24 -7 -11 -10 -11 -10 -2 0 8 -5 10 -12 6 -8 -5 -9 -2 -4 12 4 10 10 33 13 49 5 30 29 65 45 65 4 0 8 -2 8 -4z m-74 -194 c1 -15 5 -38 8 -52 5 -21 4 -20 -8 5 -17 34 -21 20 -6 -20 8 -20 7 -27 -6 -32 -29 -11 -38 13 -20 50 9 19 16 47 16 63 0 34 15 22 16 -14z m1053 -59 c1 -46 -12 -56 -29 -22 -9 16 -8 32 2 66 11 39 14 42 19 21 4 -12 7 -42 8 -65z"/>
 <path d="M975 1860 c-4 -6 7 -10 25 -10 18 0 29 4 25 10 -3 6 -15 10 -25 10 -10 0 -22 -4 -25 -10z"/>
 <path d="M900 1300 c-25 -16 39 -32 112 -28 70 4 85 9 73 27 -8 13 -164 14 -185 1z"/>
 <path d="M970 1181 c-33 -9 -36 -35 -11 -109 12 -34 21 -81 22 -104 1 -42 1 -42 10 -13 6 17 8 70 5 119 -4 59 -2 94 5 102 12 15 8 16 -31 5z"/>
 <path d="M700 924 c0 -3 14 -17 30 -31 17 -13 30 -28 30 -33 0 -4 -13 -22 -29 -39 l-29 -31 33 0 c25 0 34 5 38 21 6 23 27 17 27 -7 0 -9 11 -14 31 -14 l31 0 -26 31 c-32 38 -32 40 -1 69 33 31 32 40 -7 40 -17 0 -28 -3 -25 -7 8 -7 -11 -33 -24 -33 -4 0 -11 9 -14 20 -4 14 -15 20 -36 20 -16 0 -29 -3 -29 -6z"/>
 <path d="M1120 926 c0 -3 11 -17 25 -32 32 -34 31 -47 -2 -79 l-28 -25 29 0 c16 0 34 7 41 17 12 16 40 9 30 -8 -4 -5 10 -9 31 -9 l36 0 -31 32 c-33 34 -33 34 13 86 l19 22 -31 0 c-22 0 -32 -6 -37 -20 -3 -11 -11 -20 -16 -20 -5 0 -14 9 -21 20 -11 17 -58 30 -58 16z"/>
 <path d="M622 810 c8 -26 70 -48 168 -59 52 -5 105 -13 118 -16 13 -5 22 -3 22 3 0 23 -49 36 -157 42 -91 5 -117 10 -134 26 -16 14 -21 15 -17 4z"/>
 <path d="M1358 803 c-13 -12 -46 -18 -138 -23 -89 -5 -125 -11 -137 -23 -19 -19 -8 -44 12 -27 7 6 55 15 106 21 106 11 152 23 170 45 17 21 6 27 -13 7z"/>
 </g>
<g id="layer108" fill="#575a5c" stroke="none">
 <path d="M95 1978 c32 -109 108 -208 189 -248 48 -23 245 -59 315 -58 39 0 43 2 27 13 -16 12 -11 18 50 64 37 28 130 83 205 121 l138 70 111 -75 c61 -41 139 -98 175 -127 54 -45 62 -55 53 -71 -8 -15 -7 -18 3 -11 7 4 22 8 33 10 53 4 242 35 275 44 93 26 162 92 199 192 31 85 34 98 22 98 -6 0 -13 -8 -16 -17 -25 -80 -64 -153 -100 -189 -48 -48 -99 -68 -234 -88 l-95 -14 -55 53 c-30 29 -81 73 -113 98 -62 50 -207 150 -207 143 0 -2 48 -39 108 -83 59 -44 140 -108 181 -143 67 -59 72 -65 53 -73 -18 -8 -32 0 -89 53 -37 34 -126 101 -198 149 -71 48 -129 92 -128 99 2 7 0 12 -3 12 -3 0 -72 -32 -152 -72 -130 -64 -155 -81 -222 -146 -72 -72 -72 -72 -9 -15 69 62 177 129 291 181 57 26 69 28 85 17 10 -7 16 -16 13 -19 -3 -3 -50 -26 -104 -51 -118 -55 -219 -119 -270 -171 -21 -22 -43 -37 -50 -36 -6 2 -31 6 -56 9 -218 24 -311 81 -383 236 -30 64 -55 91 -42 45z"/>
 <path d="M1309 1644 c-12 -14 -11 -16 5 -13 11 2 21 10 24 17 5 17 -13 15 -29 -4z"/>
 <path d="M710 1611 c0 -13 26 -32 33 -24 8 7 -11 33 -24 33 -5 0 -9 -4 -9 -9z"/>
 <path d="M1259 1604 c-12 -14 -11 -16 5 -13 11 2 21 10 24 17 5 17 -13 15 -29 -4z"/>
 <path d="M870 1574 c-30 -9 -65 -16 -77 -16 -13 0 -21 -3 -18 -7 2 -4 -9 -15 -24 -24 -16 -9 -55 -45 -87 -80 -64 -68 -80 -104 -90 -206 -5 -46 -11 -61 -23 -61 -19 0 -61 -47 -61 -70 0 -10 -13 -42 -28 -73 -21 -41 -26 -59 -18 -67 8 -8 6 -9 -5 -5 -12 5 -20 -2 -28 -26 -14 -41 -14 -102 0 -116 8 -8 8 -17 0 -31 -6 -11 -9 -27 -6 -34 3 -8 -1 -41 -10 -73 -8 -33 -15 -78 -15 -102 0 -43 17 -93 32 -93 4 0 8 -14 8 -31 0 -35 13 -63 45 -99 12 -14 34 -46 48 -71 26 -46 64 -79 90 -79 7 0 25 -17 38 -37 28 -44 90 -81 145 -87 21 -2 58 -11 82 -20 59 -22 247 -18 284 6 13 9 41 16 62 16 48 0 124 46 145 89 10 19 26 33 41 36 33 7 79 52 98 97 8 19 23 41 34 49 24 16 48 70 48 106 0 14 4 25 8 25 15 0 32 49 32 88 0 21 -6 62 -14 92 -8 30 -16 78 -18 105 -2 28 -7 56 -11 62 -6 9 -3 11 7 7 18 -7 21 19 10 75 -5 23 -11 30 -22 26 -12 -4 -12 -3 -3 9 14 17 -2 31 -21 20 -10 -5 -10 -4 -2 5 8 9 5 24 -13 58 -12 26 -23 56 -23 67 0 15 -3 17 -12 8 -8 -8 -8 -15 0 -25 7 -8 9 -16 6 -19 -3 -4 -9 -28 -13 -55 l-7 -48 -23 93 c-19 74 -21 95 -11 107 10 12 10 15 -2 15 -11 0 -17 17 -22 61 -12 123 -47 182 -157 269 -35 28 -45 40 -36 49 6 6 7 14 3 18 -4 5 -13 0 -20 -10 -12 -16 -16 -16 -57 -1 -63 23 -220 27 -289 8z m75 -131 c17 -83 20 -88 50 -91 34 -4 55 18 55 59 0 39 10 59 29 59 62 -1 204 -116 221 -179 5 -20 16 -69 24 -109 9 -41 29 -98 48 -130 18 -31 38 -79 45 -107 18 -80 35 -138 45 -161 6 -12 8 -56 5 -98 -4 -62 -11 -85 -31 -115 -14 -20 -26 -47 -26 -59 0 -12 -5 -22 -11 -22 -5 0 -27 -11 -47 -25 -46 -31 -60 -31 -128 1 -30 14 -64 24 -75 21 -11 -3 -32 1 -47 8 -33 16 -178 18 -206 2 -12 -6 -33 -10 -47 -9 -15 1 -45 -11 -70 -28 -55 -37 -74 -37 -123 0 -22 17 -45 30 -52 30 -6 0 -14 14 -18 32 -3 18 -16 42 -28 55 -18 19 -21 34 -21 110 1 106 7 159 22 177 6 7 16 38 22 69 5 31 27 89 48 129 24 44 43 99 50 140 15 91 34 130 83 178 44 42 129 90 160 90 11 0 20 -10 23 -27z m-386 -290 c0 -5 -11 -48 -24 -98 -15 -62 -25 -85 -30 -72 -4 9 -5 27 -2 39 4 15 3 18 -5 10 -17 -17 -18 -81 -2 -90 31 -17 -8 -91 -41 -78 -19 7 -19 36 0 72 8 16 15 37 15 47 0 10 7 31 15 48 9 16 15 35 14 42 -3 17 20 70 34 79 15 10 27 10 26 1z m976 -203 c4 -25 11 -50 16 -56 12 -15 -14 -36 -34 -28 -22 8 -25 33 -9 73 13 33 13 41 -3 86 -4 13 -1 11 8 -5 8 -14 18 -45 22 -70z"/>
 <path d="M910 1300 c-23 -14 -6 -22 62 -27 69 -5 134 11 108 27 -19 12 -151 12 -170 0z"/>
 <path d="M965 1166 c-19 -14 -19 -16 -2 -63 9 -26 17 -70 18 -98 0 -37 3 -45 9 -30 10 24 13 109 3 119 -11 10 -11 49 -1 69 11 21 -1 22 -27 3z"/>
 <path d="M729 896 c35 -36 35 -43 -2 -83 l-20 -23 30 0 c23 0 32 5 36 22 5 18 8 19 21 9 9 -8 13 -17 10 -22 -3 -5 9 -9 27 -9 l33 0 -27 28 c-33 35 -33 40 -2 74 31 33 31 38 2 38 -12 0 -28 -9 -35 -20 -7 -11 -16 -20 -21 -20 -5 0 -13 9 -16 20 -5 14 -15 20 -38 20 l-31 0 33 -34z"/>
 <path d="M1144 897 c33 -42 32 -50 -1 -82 l-28 -25 29 0 c16 0 35 8 42 18 13 16 15 16 28 0 7 -10 23 -18 36 -18 l22 0 -26 35 -26 34 31 36 31 35 -30 0 c-22 0 -32 -6 -37 -20 -3 -11 -11 -20 -16 -20 -5 0 -14 9 -21 20 -7 11 -23 20 -36 20 l-23 0 25 -33z"/>
 <path d="M622 810 c8 -26 70 -48 168 -59 52 -5 105 -13 118 -16 13 -5 22 -3 22 3 0 23 -49 36 -157 42 -91 5 -117 10 -134 26 -16 14 -21 15 -17 4z"/>
 <path d="M1358 803 c-13 -12 -46 -18 -138 -23 -89 -5 -125 -11 -137 -23 -19 -19 -8 -44 12 -27 7 6 55 15 106 21 106 11 152 23 170 45 17 21 6 27 -13 7z"/>
 </g>
<g id="layer109" fill="#455a64" stroke="none">
 <path d="M95 1978 c32 -109 108 -208 189 -248 48 -23 245 -59 315 -58 39 0 42 2 28 13 -16 11 -13 16 25 47 73 58 100 75 236 143 l132 65 93 -61 c50 -34 129 -91 175 -126 74 -58 81 -66 71 -85 -9 -16 -8 -19 2 -12 7 4 22 8 33 10 53 4 242 35 275 44 93 26 162 92 199 192 31 85 34 98 22 98 -6 0 -13 -8 -16 -17 -25 -80 -64 -153 -100 -189 -48 -48 -99 -68 -234 -88 l-95 -14 -55 53 c-30 29 -81 73 -113 98 -62 50 -207 150 -207 143 0 -2 48 -39 108 -83 59 -44 140 -108 181 -143 67 -59 72 -65 53 -73 -18 -8 -32 0 -89 53 -37 34 -126 101 -198 149 -71 48 -129 92 -128 99 2 7 0 12 -3 12 -3 0 -72 -32 -152 -72 -130 -64 -155 -81 -222 -146 -72 -72 -72 -72 -9 -15 69 62 177 129 291 181 57 26 69 28 85 17 10 -7 16 -16 13 -19 -3 -3 -50 -26 -104 -51 -118 -55 -219 -119 -270 -171 -21 -22 -43 -37 -50 -36 -6 2 -31 6 -56 9 -218 24 -311 81 -383 236 -30 64 -55 91 -42 45z"/>
 <path d="M1309 1644 c-12 -14 -11 -16 5 -13 11 2 21 10 24 17 5 17 -13 15 -29 -4z"/>
 <path d="M710 1611 c0 -13 26 -32 33 -24 8 7 -11 33 -24 33 -5 0 -9 -4 -9 -9z"/>
 <path d="M1259 1604 c-12 -14 -11 -16 5 -13 11 2 21 10 24 17 5 17 -13 15 -29 -4z"/>
 <path d="M870 1574 c-30 -9 -65 -16 -77 -16 -13 0 -21 -3 -18 -7 2 -4 -9 -15 -24 -24 -16 -9 -55 -45 -87 -80 -64 -68 -80 -104 -90 -206 -5 -46 -11 -61 -23 -61 -19 0 -61 -47 -61 -70 0 -10 -13 -42 -28 -73 -21 -41 -26 -59 -18 -67 8 -8 6 -9 -5 -5 -12 5 -20 -2 -28 -26 -14 -41 -14 -102 0 -116 8 -8 8 -17 0 -31 -6 -11 -9 -27 -6 -34 3 -8 -1 -41 -10 -73 -8 -33 -15 -78 -15 -102 0 -43 17 -93 32 -93 4 0 8 -14 8 -31 0 -35 13 -63 45 -99 12 -14 34 -46 48 -71 26 -46 64 -79 90 -79 7 0 25 -17 38 -37 28 -44 90 -81 145 -87 21 -2 58 -11 82 -20 59 -22 247 -18 284 6 13 9 41 16 62 16 48 0 124 46 145 89 10 19 26 33 41 36 33 7 79 52 98 97 8 19 23 41 34 49 24 16 48 70 48 106 0 14 4 25 8 25 15 0 32 49 32 88 0 21 -6 62 -14 92 -8 30 -16 78 -18 105 -2 28 -7 56 -11 62 -6 9 -3 11 7 7 18 -7 21 19 10 75 -5 23 -11 30 -22 26 -12 -4 -12 -3 -3 9 14 17 -2 31 -21 20 -10 -5 -10 -4 -2 5 8 9 5 24 -13 58 -12 26 -23 56 -23 67 0 15 -3 17 -12 8 -8 -8 -8 -15 0 -25 7 -8 9 -16 6 -19 -3 -4 -9 -28 -13 -55 l-7 -48 -23 93 c-19 74 -21 95 -11 107 10 12 10 15 -2 15 -11 0 -17 17 -22 61 -12 123 -47 182 -157 269 -35 28 -45 40 -36 49 6 6 7 14 3 18 -4 5 -13 0 -20 -10 -12 -16 -16 -16 -57 -1 -63 23 -220 27 -289 8z m75 -131 c17 -83 20 -88 50 -91 34 -4 55 18 55 59 0 39 10 59 29 59 62 -1 204 -116 221 -179 5 -20 16 -69 24 -109 9 -41 29 -98 48 -130 18 -31 38 -79 45 -107 18 -80 35 -138 45 -161 6 -12 8 -56 5 -98 -4 -62 -11 -85 -31 -115 -14 -20 -26 -47 -26 -59 0 -12 -5 -22 -11 -22 -5 0 -27 -11 -47 -25 -46 -31 -60 -31 -128 1 -30 14 -64 24 -75 21 -11 -3 -32 1 -47 8 -33 16 -178 18 -206 2 -12 -6 -33 -10 -47 -9 -15 1 -45 -11 -70 -28 -55 -37 -74 -37 -123 0 -22 17 -45 30 -52 30 -6 0 -14 14 -18 32 -3 18 -16 42 -28 55 -18 19 -21 34 -21 110 1 106 7 159 22 177 6 7 16 38 22 69 5 31 27 89 48 129 24 44 43 99 50 140 15 91 34 130 83 178 44 42 129 90 160 90 11 0 20 -10 23 -27z m-386 -290 c0 -5 -11 -48 -24 -98 -15 -62 -25 -85 -30 -72 -4 9 -5 27 -2 39 4 15 3 18 -5 10 -17 -17 -18 -81 -2 -90 31 -17 -8 -91 -41 -78 -19 7 -19 36 0 72 8 16 15 37 15 47 0 10 7 31 15 48 9 16 15 35 14 42 -3 17 20 70 34 79 15 10 27 10 26 1z m976 -203 c4 -25 11 -50 16 -56 12 -15 -14 -36 -34 -28 -22 8 -25 33 -9 73 13 33 13 41 -3 86 -4 13 -1 11 8 -5 8 -14 18 -45 22 -70z"/>
 <path d="M910 1300 c-23 -14 -6 -22 62 -27 69 -5 134 11 108 27 -19 12 -151 12 -170 0z"/>
 <path d="M965 1166 c-19 -14 -19 -16 -2 -63 9 -26 17 -70 18 -98 0 -37 3 -45 9 -30 10 24 13 109 3 119 -11 10 -11 49 -1 69 11 21 -1 22 -27 3z"/>
 <path d="M729 896 c35 -36 35 -43 -2 -83 l-20 -23 30 0 c23 0 32 5 36 22 5 18 8 19 21 9 9 -8 13 -17 10 -22 -3 -5 9 -9 27 -9 l33 0 -27 28 c-33 35 -33 40 -2 74 31 33 31 38 2 38 -12 0 -28 -9 -35 -20 -7 -11 -16 -20 -21 -20 -5 0 -13 9 -16 20 -5 14 -15 20 -38 20 l-31 0 33 -34z"/>
 <path d="M1144 897 c33 -42 32 -50 -1 -82 l-28 -25 29 0 c16 0 35 8 42 18 13 16 15 16 28 0 7 -10 23 -18 36 -18 l22 0 -26 35 -26 34 31 36 31 35 -30 0 c-22 0 -32 -6 -37 -20 -3 -11 -11 -20 -16 -20 -5 0 -14 9 -21 20 -7 11 -23 20 -36 20 l-23 0 25 -33z"/>
 <path d="M622 810 c8 -26 70 -48 168 -59 52 -5 105 -13 118 -16 13 -5 22 -3 22 3 0 23 -49 36 -157 42 -91 5 -117 10 -134 26 -16 14 -21 15 -17 4z"/>
 <path d="M1358 803 c-13 -12 -46 -18 -138 -23 -89 -5 -125 -11 -137 -23 -19 -19 -8 -44 12 -27 7 6 55 15 106 21 106 11 152 23 170 45 17 21 6 27 -13 7z"/>
 </g>
<g id="layer110" fill="#33596b" stroke="none">
 <path d="M95 1978 c32 -109 108 -208 189 -248 48 -23 245 -59 315 -58 39 0 43 2 27 13 -15 12 -13 16 26 48 67 54 149 103 263 158 l105 50 84 -55 c46 -31 125 -88 175 -126 83 -64 90 -73 80 -92 -9 -16 -8 -19 2 -12 7 4 22 8 33 10 53 4 242 35 275 44 93 26 162 92 199 192 31 85 34 98 22 98 -6 0 -13 -8 -16 -17 -25 -80 -64 -153 -100 -189 -48 -48 -99 -68 -234 -88 l-95 -14 -55 53 c-30 29 -81 73 -113 98 -62 50 -207 150 -207 143 0 -2 48 -39 108 -83 59 -44 140 -108 181 -143 67 -59 72 -65 53 -73 -18 -8 -32 0 -89 53 -37 34 -126 101 -198 149 -71 48 -129 92 -128 99 2 7 0 12 -3 12 -3 0 -72 -32 -152 -72 -130 -64 -155 -81 -222 -146 -72 -72 -72 -72 -9 -15 69 62 177 129 291 181 57 26 69 28 85 17 10 -7 16 -16 13 -19 -3 -3 -50 -26 -104 -51 -118 -55 -219 -119 -270 -171 -21 -22 -43 -37 -50 -36 -6 2 -31 6 -56 9 -218 24 -311 81 -383 236 -30 64 -55 91 -42 45z"/>
 <path d="M1309 1644 c-12 -14 -11 -16 5 -13 11 2 21 10 24 17 5 17 -13 15 -29 -4z"/>
 <path d="M710 1611 c0 -13 26 -32 33 -24 8 7 -11 33 -24 33 -5 0 -9 -4 -9 -9z"/>
 <path d="M1259 1604 c-12 -14 -11 -16 5 -13 11 2 21 10 24 17 5 17 -13 15 -29 -4z"/>
 <path d="M870 1574 c-30 -9 -65 -16 -77 -16 -13 0 -21 -3 -18 -7 2 -4 -9 -15 -24 -24 -16 -9 -55 -45 -87 -80 -64 -68 -80 -104 -90 -206 -5 -46 -11 -61 -23 -61 -19 0 -61 -47 -61 -70 0 -10 -13 -42 -28 -73 -21 -41 -26 -59 -18 -67 8 -8 6 -9 -5 -5 -12 5 -20 -2 -28 -26 -14 -41 -14 -102 0 -116 8 -8 8 -17 0 -31 -6 -11 -9 -27 -6 -34 3 -8 -1 -41 -10 -73 -8 -33 -15 -78 -15 -102 0 -43 17 -93 32 -93 4 0 8 -14 8 -31 0 -35 13 -63 45 -99 12 -14 34 -46 48 -71 26 -46 64 -79 90 -79 7 0 25 -17 38 -37 28 -44 90 -81 145 -87 21 -2 58 -11 82 -20 59 -22 247 -18 284 6 13 9 41 16 62 16 48 0 124 46 145 89 10 19 26 33 41 36 33 7 79 52 98 97 8 19 23 41 34 49 24 16 48 70 48 106 0 14 4 25 8 25 15 0 32 49 32 88 0 21 -6 62 -14 92 -8 30 -16 78 -18 105 -2 28 -7 56 -11 62 -6 9 -3 11 7 7 18 -7 21 19 10 75 -5 23 -11 30 -22 26 -12 -4 -12 -3 -3 9 14 17 -2 31 -21 20 -10 -5 -10 -4 -2 5 8 9 5 24 -13 58 -12 26 -23 56 -23 67 0 15 -3 17 -12 8 -8 -8 -8 -15 0 -25 7 -8 9 -16 6 -19 -3 -4 -9 -28 -13 -55 l-7 -48 -23 93 c-19 74 -21 95 -11 107 10 12 10 15 -2 15 -11 0 -17 17 -22 61 -12 123 -47 182 -157 269 -35 28 -45 40 -36 49 6 6 7 14 3 18 -4 5 -13 0 -20 -10 -12 -16 -16 -16 -57 -1 -63 23 -220 27 -289 8z m75 -131 c17 -83 20 -88 50 -91 34 -4 55 18 55 59 0 39 10 59 29 59 62 -1 204 -116 221 -179 5 -20 16 -69 24 -109 9 -41 29 -98 48 -130 18 -31 38 -79 45 -107 18 -80 35 -138 45 -161 6 -12 8 -56 5 -98 -4 -62 -11 -85 -31 -115 -14 -20 -26 -47 -26 -59 0 -12 -5 -22 -11 -22 -5 0 -27 -11 -47 -25 -46 -31 -60 -31 -128 1 -30 14 -64 24 -75 21 -11 -3 -32 1 -47 8 -33 16 -178 18 -206 2 -12 -6 -33 -10 -47 -9 -15 1 -45 -11 -70 -28 -55 -37 -74 -37 -123 0 -22 17 -45 30 -52 30 -6 0 -14 14 -18 32 -3 18 -16 42 -28 55 -18 19 -21 34 -21 110 1 106 7 159 22 177 6 7 16 38 22 69 5 31 27 89 48 129 24 44 43 99 50 140 15 91 34 130 83 178 44 42 129 90 160 90 11 0 20 -10 23 -27z m-386 -290 c0 -5 -11 -48 -24 -98 -15 -62 -25 -85 -30 -72 -4 9 -5 27 -2 39 4 15 3 18 -5 10 -17 -17 -18 -81 -2 -90 31 -17 -8 -91 -41 -78 -19 7 -19 36 0 72 8 16 15 37 15 47 0 10 7 31 15 48 9 16 15 35 14 42 -3 17 20 70 34 79 15 10 27 10 26 1z m976 -203 c4 -25 11 -50 16 -56 12 -15 -14 -36 -34 -28 -22 8 -25 33 -9 73 13 33 13 41 -3 86 -4 13 -1 11 8 -5 8 -14 18 -45 22 -70z"/>
 <path d="M910 1300 c-23 -14 -6 -22 62 -27 69 -5 134 11 108 27 -19 12 -151 12 -170 0z"/>
 <path d="M965 1166 c-19 -14 -19 -16 -2 -63 9 -26 17 -70 18 -98 0 -37 3 -45 9 -30 10 24 13 109 3 119 -11 10 -11 49 -1 69 11 21 -1 22 -27 3z"/>
 <path d="M729 896 c35 -36 35 -43 -2 -83 l-20 -23 30 0 c23 0 32 5 36 22 5 18 8 19 21 9 9 -8 13 -17 10 -22 -3 -5 9 -9 27 -9 l33 0 -27 28 c-33 35 -33 40 -2 74 31 33 31 38 2 38 -12 0 -28 -9 -35 -20 -7 -11 -16 -20 -21 -20 -5 0 -13 9 -16 20 -5 14 -15 20 -38 20 l-31 0 33 -34z"/>
 <path d="M1144 897 c33 -42 32 -50 -1 -82 l-28 -25 29 0 c16 0 35 8 42 18 13 16 15 16 28 0 7 -10 23 -18 36 -18 l22 0 -26 35 -26 34 31 36 31 35 -30 0 c-22 0 -32 -6 -37 -20 -3 -11 -11 -20 -16 -20 -5 0 -14 9 -21 20 -7 11 -23 20 -36 20 l-23 0 25 -33z"/>
 <path d="M622 810 c8 -26 70 -48 168 -59 52 -5 105 -13 118 -16 13 -5 22 -3 22 3 0 23 -49 36 -157 42 -91 5 -117 10 -134 26 -16 14 -21 15 -17 4z"/>
 <path d="M1358 803 c-13 -12 -46 -18 -138 -23 -89 -5 -125 -11 -137 -23 -19 -19 -8 -44 12 -27 7 6 55 15 106 21 106 11 152 23 170 45 17 21 6 27 -13 7z"/>
 </g>
<g id="layer111" fill="#754a36" stroke="none">
 <path d="M95 1978 c32 -109 108 -208 189 -248 48 -23 245 -59 315 -58 39 0 42 2 28 13 -16 11 -14 15 20 45 54 48 125 91 256 156 l116 58 88 -59 c86 -58 120 -83 215 -159 42 -33 47 -40 37 -58 -9 -16 -8 -19 2 -12 7 4 22 8 33 10 53 4 242 35 275 44 93 26 162 92 199 192 31 85 34 98 22 98 -6 0 -13 -8 -16 -17 -25 -80 -64 -153 -100 -189 -48 -48 -99 -68 -234 -88 l-95 -14 -55 53 c-30 29 -81 73 -113 98 -62 50 -207 150 -207 143 0 -2 48 -39 108 -83 59 -44 140 -108 181 -143 67 -59 72 -65 53 -73 -18 -8 -32 0 -89 53 -37 34 -126 101 -198 149 -71 48 -129 92 -128 99 2 7 0 12 -3 12 -3 0 -72 -32 -152 -72 -130 -64 -155 -81 -222 -146 -72 -72 -72 -72 -9 -15 69 62 177 129 291 181 57 26 69 28 85 17 10 -7 16 -16 13 -19 -3 -3 -50 -26 -104 -51 -118 -55 -219 -119 -270 -171 -21 -22 -43 -37 -50 -36 -6 2 -31 6 -56 9 -218 24 -311 81 -383 236 -30 64 -55 91 -42 45z"/>
 <path d="M1309 1644 c-12 -14 -11 -16 5 -13 11 2 21 10 24 17 5 17 -13 15 -29 -4z"/>
 <path d="M710 1611 c0 -13 26 -32 33 -24 8 7 -11 33 -24 33 -5 0 -9 -4 -9 -9z"/>
 <path d="M1259 1604 c-12 -14 -11 -16 5 -13 11 2 21 10 24 17 5 17 -13 15 -29 -4z"/>
 <path d="M870 1574 c-30 -9 -65 -16 -77 -16 -13 0 -21 -3 -18 -7 2 -4 -9 -15 -24 -24 -16 -9 -55 -45 -87 -80 -64 -68 -80 -104 -90 -206 -5 -46 -11 -61 -23 -61 -19 0 -61 -47 -61 -70 0 -10 -13 -42 -28 -73 -21 -41 -26 -59 -18 -67 8 -8 6 -9 -5 -5 -12 5 -20 -2 -28 -26 -14 -41 -14 -102 0 -116 8 -8 8 -17 0 -31 -6 -11 -9 -27 -6 -34 3 -8 -1 -41 -10 -73 -8 -33 -15 -78 -15 -102 0 -43 17 -93 32 -93 4 0 8 -14 8 -31 0 -35 13 -63 45 -99 12 -14 34 -46 48 -71 26 -46 64 -79 90 -79 7 0 25 -17 38 -37 28 -44 90 -81 145 -87 21 -2 58 -11 82 -20 59 -22 247 -18 284 6 13 9 41 16 62 16 48 0 124 46 145 89 10 19 26 33 41 36 33 7 79 52 98 97 8 19 23 41 34 49 24 16 48 70 48 106 0 14 4 25 8 25 15 0 32 49 32 88 0 21 -6 62 -14 92 -8 30 -16 78 -18 105 -2 28 -7 56 -11 62 -6 9 -3 11 7 7 18 -7 21 19 10 75 -5 23 -11 30 -22 26 -12 -4 -12 -3 -3 9 14 17 -2 31 -21 20 -10 -5 -10 -4 -2 5 8 9 5 24 -13 58 -12 26 -23 56 -23 67 0 15 -3 17 -12 8 -8 -8 -8 -15 0 -25 7 -8 9 -16 6 -19 -3 -4 -9 -28 -13 -55 l-7 -48 -23 93 c-19 74 -21 95 -11 107 10 12 10 15 -2 15 -11 0 -17 17 -22 61 -12 123 -47 182 -157 269 -35 28 -45 40 -36 49 6 6 7 14 3 18 -4 5 -13 0 -20 -10 -12 -16 -16 -16 -57 -1 -63 23 -220 27 -289 8z m75 -131 c17 -83 20 -88 50 -91 34 -4 55 18 55 59 0 39 10 59 29 59 62 -1 204 -116 221 -179 5 -20 16 -69 24 -109 9 -41 29 -98 48 -130 18 -31 38 -79 45 -107 18 -80 35 -138 45 -161 6 -12 8 -56 5 -98 -4 -62 -11 -85 -31 -115 -14 -20 -26 -47 -26 -59 0 -12 -5 -22 -11 -22 -5 0 -27 -11 -47 -25 -46 -31 -60 -31 -128 1 -30 14 -64 24 -75 21 -11 -3 -32 1 -47 8 -33 16 -178 18 -206 2 -12 -6 -33 -10 -47 -9 -15 1 -45 -11 -70 -28 -55 -37 -74 -37 -123 0 -22 17 -45 30 -52 30 -6 0 -14 14 -18 32 -3 18 -16 42 -28 55 -18 19 -21 34 -21 110 1 106 7 159 22 177 6 7 16 38 22 69 5 31 27 89 48 129 24 44 43 99 50 140 15 91 34 130 83 178 44 42 129 90 160 90 11 0 20 -10 23 -27z m-386 -290 c0 -5 -11 -48 -24 -98 -15 -62 -25 -85 -30 -72 -4 9 -5 27 -2 39 4 15 3 18 -5 10 -17 -17 -18 -81 -2 -90 31 -17 -8 -91 -41 -78 -19 7 -19 36 0 72 8 16 15 37 15 47 0 10 7 31 15 48 9 16 15 35 14 42 -3 17 20 70 34 79 15 10 27 10 26 1z m976 -203 c4 -25 11 -50 16 -56 12 -15 -14 -36 -34 -28 -22 8 -25 33 -9 73 13 33 13 41 -3 86 -4 13 -1 11 8 -5 8 -14 18 -45 22 -70z"/>
 <path d="M910 1300 c-23 -14 -6 -22 62 -27 69 -5 134 11 108 27 -19 12 -151 12 -170 0z"/>
 <path d="M965 1166 c-19 -14 -19 -16 -2 -63 9 -26 17 -70 18 -98 0 -37 3 -45 9 -30 10 24 13 109 3 119 -11 10 -11 49 -1 69 11 21 -1 22 -27 3z"/>
 <path d="M729 896 c35 -36 35 -43 -2 -83 l-20 -23 30 0 c23 0 32 5 36 22 5 18 8 19 21 9 9 -8 13 -17 10 -22 -3 -5 9 -9 27 -9 l33 0 -27 28 c-33 35 -33 40 -2 74 31 33 31 38 2 38 -12 0 -28 -9 -35 -20 -7 -11 -16 -20 -21 -20 -5 0 -13 9 -16 20 -5 14 -15 20 -38 20 l-31 0 33 -34z"/>
 <path d="M1144 897 c33 -42 32 -50 -1 -82 l-28 -25 29 0 c16 0 35 8 42 18 13 16 15 16 28 0 7 -10 23 -18 36 -18 l22 0 -26 35 -26 34 31 36 31 35 -30 0 c-22 0 -32 -6 -37 -20 -3 -11 -11 -20 -16 -20 -5 0 -14 9 -21 20 -7 11 -23 20 -36 20 l-23 0 25 -33z"/>
 <path d="M622 810 c8 -26 70 -48 168 -59 52 -5 105 -13 118 -16 13 -5 22 -3 22 3 0 23 -49 36 -157 42 -91 5 -117 10 -134 26 -16 14 -21 15 -17 4z"/>
 <path d="M1358 803 c-13 -12 -46 -18 -138 -23 -89 -5 -125 -11 -137 -23 -19 -19 -8 -44 12 -27 7 6 55 15 106 21 106 11 152 23 170 45 17 21 6 27 -13 7z"/>
 </g>
<g id="layer112" fill="#0c5e84" stroke="none">
 <path d="M95 1978 c18 -62 66 -147 104 -185 59 -59 111 -81 246 -103 133 -23 176 -23 172 -1 -4 26 113 109 259 183 l142 73 89 -60 c86 -58 120 -83 215 -159 42 -33 47 -40 37 -58 -9 -16 -8 -19 2 -12 7 4 22 8 33 10 53 4 242 35 275 44 93 26 162 92 199 192 31 85 34 98 22 98 -6 0 -13 -8 -16 -17 -25 -80 -64 -153 -100 -189 -48 -48 -99 -68 -234 -88 l-95 -14 -55 53 c-30 29 -81 73 -113 98 -62 50 -207 150 -207 143 0 -2 48 -39 108 -83 59 -44 140 -108 181 -143 67 -59 72 -65 53 -73 -18 -8 -32 0 -89 53 -37 34 -126 101 -198 149 -71 48 -129 92 -128 99 2 7 0 12 -3 12 -3 0 -72 -32 -152 -72 -130 -64 -155 -81 -222 -146 -72 -72 -72 -72 -9 -15 69 62 177 129 291 181 57 26 69 28 85 17 10 -7 16 -16 13 -19 -3 -3 -50 -26 -104 -51 -118 -55 -219 -119 -270 -171 -21 -22 -43 -37 -50 -36 -6 2 -31 6 -56 9 -218 24 -311 81 -383 236 -30 64 -55 91 -42 45z"/>
 <path d="M1259 1604 c-12 -14 -11 -16 5 -13 11 2 21 10 24 17 5 17 -13 15 -29 -4z"/>
 <path d="M722 1601 c2 -7 7 -12 11 -12 12 1 9 15 -3 20 -7 2 -11 -2 -8 -8z"/>
 <path d="M870 1573 c-30 -9 -65 -16 -77 -16 -13 1 -21 -2 -18 -6 2 -4 -9 -15 -24 -24 -16 -9 -55 -45 -87 -80 -64 -68 -80 -104 -90 -206 -6 -53 -10 -61 -28 -61 -20 -1 -20 -1 -3 -14 17 -13 17 -18 -4 -102 -12 -49 -27 -92 -32 -95 -5 -4 -6 -15 -3 -26 8 -26 -9 -72 -30 -80 -10 -4 -25 6 -44 28 -27 31 -29 32 -30 12 0 -13 5 -22 13 -20 7 1 12 -8 12 -23 0 -16 -5 -24 -14 -22 -12 3 -12 0 -2 -12 9 -11 10 -20 2 -35 -6 -11 -9 -26 -6 -33 3 -8 -1 -41 -10 -73 -8 -33 -15 -78 -15 -102 0 -43 17 -93 32 -93 4 0 8 -14 8 -31 0 -35 13 -63 45 -99 12 -14 34 -46 48 -71 26 -46 64 -79 90 -79 7 0 25 -17 38 -37 28 -44 90 -81 145 -87 21 -2 58 -11 82 -20 59 -22 247 -18 284 6 13 9 41 16 62 16 48 0 124 46 145 89 10 19 26 33 41 36 33 7 79 52 98 97 8 19 23 41 34 49 24 16 48 70 48 106 0 14 4 25 8 25 15 0 32 49 32 88 0 21 -6 62 -14 92 -8 30 -16 78 -18 105 -2 28 -7 56 -11 62 -6 9 -3 11 7 7 18 -7 21 19 10 75 -5 23 -10 29 -19 21 -8 -7 -15 -3 -24 16 -16 36 -24 25 -10 -15 6 -17 16 -30 23 -29 6 2 12 -2 13 -7 0 -6 -3 -9 -8 -8 -5 2 -9 -3 -9 -11 0 -20 -16 -29 -40 -21 -13 4 -21 19 -26 43 -3 20 -17 82 -31 136 -20 78 -23 103 -14 118 9 14 8 18 -2 18 -10 0 -16 19 -21 61 -12 123 -47 182 -158 269 -26 21 -45 40 -42 43 3 3 -5 5 -18 4 -13 0 -50 7 -83 16 -74 21 -182 21 -255 0z m82 -155 c8 -61 13 -68 48 -68 35 0 50 23 50 75 0 61 38 60 137 -4 79 -51 108 -95 127 -196 10 -49 34 -115 61 -171 25 -50 45 -102 45 -116 0 -14 8 -43 17 -64 9 -22 15 -47 14 -57 -1 -10 3 -24 9 -32 7 -8 10 -44 9 -91 -3 -65 -8 -84 -31 -118 -15 -23 -28 -51 -28 -63 0 -13 -5 -23 -12 -23 -6 0 -26 -11 -44 -25 -41 -32 -71 -32 -131 1 -31 16 -57 23 -74 20 -14 -3 -31 0 -37 6 -15 15 -159 19 -207 5 -22 -6 -48 -9 -58 -8 -10 1 -40 -11 -66 -28 -60 -39 -79 -39 -126 -1 -21 17 -44 30 -51 30 -8 0 -14 8 -14 18 0 10 -14 39 -31 65 -27 41 -30 54 -31 122 0 45 5 82 12 90 7 8 10 21 7 30 -4 8 3 34 13 57 11 24 20 56 20 72 0 16 18 61 40 101 27 49 47 103 60 165 19 90 42 140 77 172 41 37 139 89 163 86 21 -3 26 -9 32 -50z"/>
 <path d="M910 1300 c-23 -14 -6 -22 62 -27 69 -5 134 11 108 27 -19 12 -151 12 -170 0z"/>
 <path d="M950 1145 c0 -3 7 -22 15 -42 8 -19 15 -46 15 -59 0 -12 5 -26 11 -30 8 -5 10 6 5 37 -3 24 -6 51 -7 59 -1 8 -6 21 -12 28 -9 12 -27 17 -27 7z"/>
 <path d="M731 898 c36 -40 36 -45 2 -80 -27 -28 -27 -28 -4 -28 13 0 31 10 41 22 l17 22 14 -22 c8 -13 24 -22 38 -22 l25 0 -27 28 c-33 34 -33 37 -1 79 l25 33 -24 0 c-16 0 -28 -9 -36 -26 -9 -21 -14 -24 -26 -14 -8 7 -15 19 -15 26 0 9 -11 14 -29 14 l-30 0 30 -32z"/>
 <path d="M1149 893 l30 -37 -25 -33 -25 -33 24 0 c16 0 26 7 30 20 3 11 10 20 15 20 6 0 14 -9 17 -20 4 -13 15 -20 32 -20 l25 0 -26 31 c-32 38 -32 40 -1 69 14 13 25 27 25 32 0 4 -11 8 -25 8 -15 0 -25 -6 -25 -14 0 -7 -7 -19 -15 -26 -12 -10 -17 -7 -26 14 -8 18 -20 26 -36 26 l-24 0 30 -37z"/>
 <path d="M633 792 c11 -17 65 -31 162 -41 50 -5 100 -13 113 -17 17 -5 21 -3 16 9 -9 23 -29 28 -149 37 -60 4 -119 11 -129 15 -13 6 -17 5 -13 -3z"/>
 <path d="M1340 791 c-8 -5 -62 -11 -120 -13 -102 -4 -150 -17 -150 -40 0 -6 9 -8 23 -3 12 4 63 11 112 16 93 10 151 24 160 40 8 11 -5 11 -25 0z"/>
 <path d="M477 1071 c-3 -12 -1 -21 3 -21 15 0 23 21 12 32 -6 6 -11 2 -15 -11z"/>
 <path d="M1510 1042 c0 -5 7 -17 15 -28 15 -19 20 -8 9 20 -6 17 -24 22 -24 8z"/>
 <path d="M457 1026 c-3 -8 -2 -18 3 -21 13 -8 24 15 12 27 -6 6 -11 4 -15 -6z"/>
 <path d="M1501 991 c-1 -24 2 -32 9 -25 7 7 7 19 1 35 -9 23 -10 22 -10 -10z"/>
 <path d="M427 933 c3 -7 9 -13 14 -13 5 0 9 6 9 13 0 8 -6 14 -14 14 -8 0 -12 -6 -9 -14z"/>
 </g>
<g id="layer113" fill="#3d535e" stroke="none">
 <path d="M90 1997 c0 -17 34 -97 42 -97 5 0 7 -4 4 -8 -7 -11 31 -72 44 -72 5 0 10 -7 10 -15 0 -9 8 -19 18 -22 9 -4 28 -17 40 -29 34 -33 192 -79 192 -56 0 6 -19 13 -43 16 -62 9 -138 48 -181 92 -21 22 -54 74 -74 116 -21 43 -40 78 -44 78 -5 0 -8 -1 -8 -3z"/>
 <path d="M1869 1963 c-22 -70 -68 -150 -102 -180 -46 -40 -102 -61 -212 -76 -59 -9 -83 -16 -69 -20 11 -4 60 0 109 8 174 31 241 94 299 283 4 12 3 22 -3 22 -5 0 -15 -17 -22 -37z"/>
 <path d="M980 1975 c6 -8 57 -44 113 -81 98 -65 126 -85 229 -168 42 -33 47 -40 37 -58 -9 -16 -8 -19 2 -12 8 5 21 9 29 9 8 1 25 2 38 3 12 1 22 7 22 13 0 7 -11 8 -30 4 -27 -6 -37 0 -93 50 -58 53 -372 270 -347 240z"/>
 <path d="M1200 1893 c19 -15 77 -64 130 -107 52 -44 89 -72 81 -62 -18 22 -153 133 -206 170 l-40 28 35 -29z"/>
 <path d="M817 1853 c-67 -35 -132 -79 -171 -114 -51 -47 -67 -56 -89 -52 -17 3 -27 1 -27 -6 0 -8 16 -11 45 -10 33 2 44 7 43 18 -4 23 107 107 222 166 58 30 101 54 95 54 -5 0 -59 -25 -118 -56z"/>
 <path d="M654 1814 l-39 -35 43 32 c38 30 48 39 39 39 -2 0 -21 -16 -43 -36z"/>
 <path d="M469 1689 c16 -6 28 -6 35 1 7 7 -1 10 -24 9 -33 0 -34 -1 -11 -10z"/>
 <path d="M1259 1604 c-12 -14 -11 -16 5 -13 11 2 21 10 24 17 5 17 -13 15 -29 -4z"/>
 <path d="M722 1601 c2 -7 7 -12 11 -12 12 1 9 15 -3 20 -7 2 -11 -2 -8 -8z"/>
 <path d="M870 1573 c-30 -9 -65 -16 -77 -16 -13 1 -21 -2 -18 -6 2 -4 -9 -15 -24 -24 -16 -9 -55 -45 -87 -80 -64 -68 -80 -104 -90 -206 -6 -53 -10 -61 -28 -61 -20 -1 -20 -1 -3 -14 17 -13 17 -18 -4 -102 -12 -49 -27 -92 -32 -95 -5 -4 -6 -15 -3 -26 8 -26 -9 -72 -30 -80 -10 -4 -25 6 -44 28 -27 31 -29 32 -30 12 0 -13 5 -22 13 -20 7 1 12 -8 12 -23 0 -16 -5 -24 -14 -22 -12 3 -12 0 -2 -12 9 -11 10 -20 2 -35 -6 -11 -9 -26 -6 -33 3 -8 -1 -41 -10 -73 -8 -33 -15 -78 -15 -102 0 -43 17 -93 32 -93 4 0 8 -14 8 -31 0 -35 13 -63 45 -99 12 -14 34 -46 48 -71 26 -46 64 -79 90 -79 7 0 25 -17 38 -37 28 -44 90 -81 145 -87 21 -2 58 -11 82 -20 59 -22 247 -18 284 6 13 9 41 16 62 16 48 0 124 46 145 89 10 19 26 33 41 36 33 7 79 52 98 97 8 19 23 41 34 49 24 16 48 70 48 106 0 14 4 25 8 25 15 0 32 49 32 88 0 21 -6 62 -14 92 -8 30 -16 78 -18 105 -2 28 -7 56 -11 62 -6 9 -3 11 7 7 18 -7 21 19 10 75 -5 23 -10 29 -19 21 -8 -7 -15 -3 -24 16 -16 36 -24 25 -10 -15 6 -17 16 -30 23 -29 6 2 12 -2 13 -7 0 -6 -3 -9 -8 -8 -5 2 -9 -3 -9 -11 0 -20 -16 -29 -40 -21 -13 4 -21 19 -26 43 -3 20 -17 82 -31 136 -20 78 -23 103 -14 118 9 14 8 18 -2 18 -10 0 -16 19 -21 61 -12 123 -47 182 -158 269 -26 21 -45 40 -42 43 3 3 -5 5 -18 4 -13 0 -50 7 -83 16 -74 21 -182 21 -255 0z m82 -155 c8 -61 13 -68 48 -68 35 0 50 23 50 75 0 61 38 60 137 -4 79 -51 108 -95 127 -196 10 -49 34 -115 61 -171 25 -50 45 -102 45 -116 0 -14 8 -43 17 -64 9 -22 15 -47 14 -57 -1 -10 3 -24 9 -32 7 -8 10 -44 9 -91 -3 -65 -8 -84 -31 -118 -15 -23 -28 -51 -28 -63 0 -13 -5 -23 -12 -23 -6 0 -26 -11 -44 -25 -41 -32 -71 -32 -131 1 -31 16 -57 23 -74 20 -14 -3 -31 0 -37 6 -15 15 -159 19 -207 5 -22 -6 -48 -9 -58 -8 -10 1 -40 -11 -66 -28 -60 -39 -79 -39 -126 -1 -21 17 -44 30 -51 30 -8 0 -14 8 -14 18 0 10 -14 39 -31 65 -27 41 -30 54 -31 122 0 45 5 82 12 90 7 8 10 21 7 30 -4 8 3 34 13 57 11 24 20 56 20 72 0 16 18 61 40 101 27 49 47 103 60 165 19 90 42 140 77 172 41 37 139 89 163 86 21 -3 26 -9 32 -50z"/>
 <path d="M910 1300 c-23 -14 -6 -22 62 -27 69 -5 134 11 108 27 -19 12 -151 12 -170 0z"/>
 <path d="M950 1145 c0 -3 7 -22 15 -42 8 -19 15 -46 15 -59 0 -12 5 -26 11 -30 8 -5 10 6 5 37 -3 24 -6 51 -7 59 -1 8 -6 21 -12 28 -9 12 -27 17 -27 7z"/>
 <path d="M731 898 c36 -40 36 -45 2 -80 -27 -28 -27 -28 -4 -28 13 0 31 10 41 22 l17 22 14 -22 c8 -13 24 -22 38 -22 l25 0 -27 28 c-33 34 -33 37 -1 79 l25 33 -24 0 c-16 0 -28 -9 -36 -26 -9 -21 -14 -24 -26 -14 -8 7 -15 19 -15 26 0 9 -11 14 -29 14 l-30 0 30 -32z"/>
 <path d="M1149 893 l30 -37 -25 -33 -25 -33 24 0 c16 0 26 7 30 20 3 11 10 20 15 20 6 0 14 -9 17 -20 4 -13 15 -20 32 -20 l25 0 -26 31 c-32 38 -32 40 -1 69 14 13 25 27 25 32 0 4 -11 8 -25 8 -15 0 -25 -6 -25 -14 0 -7 -7 -19 -15 -26 -12 -10 -17 -7 -26 14 -8 18 -20 26 -36 26 l-24 0 30 -37z"/>
 <path d="M633 792 c11 -17 65 -31 162 -41 50 -5 100 -13 113 -17 17 -5 21 -3 16 9 -9 23 -29 28 -149 37 -60 4 -119 11 -129 15 -13 6 -17 5 -13 -3z"/>
 <path d="M1340 791 c-8 -5 -62 -11 -120 -13 -102 -4 -150 -17 -150 -40 0 -6 9 -8 23 -3 12 4 63 11 112 16 93 10 151 24 160 40 8 11 -5 11 -25 0z"/>
 <path d="M477 1071 c-3 -12 -1 -21 3 -21 15 0 23 21 12 32 -6 6 -11 2 -15 -11z"/>
 <path d="M1510 1042 c0 -5 7 -17 15 -28 15 -19 20 -8 9 20 -6 17 -24 22 -24 8z"/>
 <path d="M457 1026 c-3 -8 -2 -18 3 -21 13 -8 24 15 12 27 -6 6 -11 4 -15 -6z"/>
 <path d="M1501 991 c-1 -24 2 -32 9 -25 7 7 7 19 1 35 -9 23 -10 22 -10 -10z"/>
 <path d="M427 933 c3 -7 9 -13 14 -13 5 0 9 6 9 13 0 8 -6 14 -14 14 -8 0 -12 -6 -9 -14z"/>
 </g>
<g id="layer114" fill="#842f2a" stroke="none">
 <path d="M90 1997 c0 -17 34 -97 42 -97 5 0 7 -4 4 -8 -7 -11 31 -72 44 -72 5 0 10 -7 10 -15 0 -9 8 -19 18 -22 9 -4 28 -17 40 -29 34 -33 192 -79 192 -56 0 6 -19 13 -43 16 -62 9 -138 48 -181 92 -21 22 -54 74 -74 116 -21 43 -40 78 -44 78 -5 0 -8 -1 -8 -3z"/>
 <path d="M1869 1963 c-22 -70 -68 -150 -102 -180 -46 -40 -102 -61 -212 -76 -59 -9 -83 -16 -69 -20 11 -4 60 0 109 8 174 31 241 94 299 283 4 12 3 22 -3 22 -5 0 -15 -17 -22 -37z"/>
 <path d="M981 1974 c6 -7 61 -47 123 -87 61 -41 146 -102 189 -136 70 -56 76 -64 66 -82 -9 -17 -8 -20 2 -13 8 5 21 9 29 9 8 1 25 2 38 3 12 1 22 7 22 13 0 7 -11 8 -30 4 -27 -6 -37 0 -93 50 -59 54 -372 270 -346 239z"/>
 <path d="M1200 1893 c19 -15 77 -64 130 -107 52 -44 89 -72 81 -62 -18 22 -153 133 -206 170 l-40 28 35 -29z"/>
 <path d="M817 1853 c-67 -35 -132 -79 -171 -114 -51 -47 -67 -56 -89 -52 -17 3 -27 1 -27 -6 0 -8 16 -11 45 -10 33 2 44 7 43 18 -4 23 107 107 222 166 58 30 101 54 95 54 -5 0 -59 -25 -118 -56z"/>
 <path d="M654 1814 l-39 -35 43 32 c38 30 48 39 39 39 -2 0 -21 -16 -43 -36z"/>
 <path d="M469 1689 c16 -6 28 -6 35 1 7 7 -1 10 -24 9 -33 0 -34 -1 -11 -10z"/>
 <path d="M1259 1604 c-12 -14 -11 -16 5 -13 11 2 21 10 24 17 5 17 -13 15 -29 -4z"/>
 <path d="M722 1601 c2 -7 7 -12 11 -12 12 1 9 15 -3 20 -7 2 -11 -2 -8 -8z"/>
 <path d="M870 1573 c-30 -9 -65 -16 -77 -16 -13 1 -21 -2 -18 -6 2 -4 -9 -15 -24 -24 -16 -9 -55 -45 -87 -80 -64 -68 -80 -104 -90 -206 -6 -53 -10 -61 -28 -61 -20 -1 -20 -1 -3 -14 17 -13 17 -18 -4 -102 -12 -49 -27 -92 -32 -95 -5 -4 -6 -15 -3 -26 8 -26 -9 -72 -30 -80 -10 -4 -25 6 -44 28 -27 31 -29 32 -30 12 0 -13 5 -22 13 -20 7 1 12 -8 12 -23 0 -16 -5 -24 -14 -22 -12 3 -12 0 -2 -12 9 -11 10 -20 2 -35 -6 -11 -9 -26 -6 -33 3 -8 -1 -41 -10 -73 -8 -33 -15 -78 -15 -102 0 -43 17 -93 32 -93 4 0 8 -14 8 -31 0 -35 13 -63 45 -99 12 -14 34 -46 48 -71 26 -46 64 -79 90 -79 7 0 25 -17 38 -37 28 -44 90 -81 145 -87 21 -2 58 -11 82 -20 59 -22 247 -18 284 6 13 9 41 16 62 16 48 0 124 46 145 89 10 19 26 33 41 36 33 7 79 52 98 97 8 19 23 41 34 49 24 16 48 70 48 106 0 14 4 25 8 25 15 0 32 49 32 88 0 21 -6 62 -14 92 -8 30 -16 78 -18 105 -2 28 -7 56 -11 62 -6 9 -3 11 7 7 18 -7 21 19 10 75 -5 23 -10 29 -19 21 -8 -7 -15 -3 -24 16 -16 36 -24 25 -10 -15 6 -17 16 -30 23 -29 6 2 12 -2 13 -7 0 -6 -3 -9 -8 -8 -5 2 -9 -3 -9 -11 0 -20 -16 -29 -40 -21 -13 4 -21 19 -26 43 -3 20 -17 82 -31 136 -20 78 -23 103 -14 118 9 14 8 18 -2 18 -10 0 -16 19 -21 61 -12 123 -47 182 -158 269 -26 21 -45 40 -42 43 3 3 -5 5 -18 4 -13 0 -50 7 -83 16 -74 21 -182 21 -255 0z m82 -155 c8 -61 13 -68 48 -68 35 0 50 23 50 75 0 61 38 60 137 -4 79 -51 108 -95 127 -196 10 -49 34 -115 61 -171 25 -50 45 -102 45 -116 0 -14 8 -43 17 -64 9 -22 15 -47 14 -57 -1 -10 3 -24 9 -32 7 -8 10 -44 9 -91 -3 -65 -8 -84 -31 -118 -15 -23 -28 -51 -28 -63 0 -13 -5 -23 -12 -23 -6 0 -26 -11 -44 -25 -41 -32 -71 -32 -131 1 -31 16 -57 23 -74 20 -14 -3 -31 0 -37 6 -15 15 -159 19 -207 5 -22 -6 -48 -9 -58 -8 -10 1 -40 -11 -66 -28 -60 -39 -79 -39 -126 -1 -21 17 -44 30 -51 30 -8 0 -14 8 -14 18 0 10 -14 39 -31 65 -27 41 -30 54 -31 122 0 45 5 82 12 90 7 8 10 21 7 30 -4 8 3 34 13 57 11 24 20 56 20 72 0 16 18 61 40 101 27 49 47 103 60 165 19 90 42 140 77 172 41 37 139 89 163 86 21 -3 26 -9 32 -50z"/>
 <path d="M910 1300 c-23 -14 -6 -22 62 -27 69 -5 134 11 108 27 -19 12 -151 12 -170 0z"/>
 <path d="M950 1145 c0 -3 7 -22 15 -42 8 -19 15 -46 15 -59 0 -12 5 -26 11 -30 8 -5 10 6 5 37 -3 24 -6 51 -7 59 -1 8 -6 21 -12 28 -9 12 -27 17 -27 7z"/>
 <path d="M731 898 c36 -40 36 -45 2 -80 -27 -28 -27 -28 -4 -28 13 0 31 10 41 22 l17 22 14 -22 c8 -13 24 -22 38 -22 l25 0 -27 28 c-33 34 -33 37 -1 79 l25 33 -24 0 c-16 0 -28 -9 -36 -26 -9 -21 -14 -24 -26 -14 -8 7 -15 19 -15 26 0 9 -11 14 -29 14 l-30 0 30 -32z"/>
 <path d="M1149 893 l30 -37 -25 -33 -25 -33 24 0 c16 0 26 7 30 20 3 11 10 20 15 20 6 0 14 -9 17 -20 4 -13 15 -20 32 -20 l25 0 -26 31 c-32 38 -32 40 -1 69 14 13 25 27 25 32 0 4 -11 8 -25 8 -15 0 -25 -6 -25 -14 0 -7 -7 -19 -15 -26 -12 -10 -17 -7 -26 14 -8 18 -20 26 -36 26 l-24 0 30 -37z"/>
 <path d="M633 792 c11 -17 65 -31 162 -41 50 -5 100 -13 113 -17 17 -5 21 -3 16 9 -9 23 -29 28 -149 37 -60 4 -119 11 -129 15 -13 6 -17 5 -13 -3z"/>
 <path d="M1340 791 c-8 -5 -62 -11 -120 -13 -102 -4 -150 -17 -150 -40 0 -6 9 -8 23 -3 12 4 63 11 112 16 93 10 151 24 160 40 8 11 -5 11 -25 0z"/>
 <path d="M477 1071 c-3 -12 -1 -21 3 -21 15 0 23 21 12 32 -6 6 -11 2 -15 -11z"/>
 <path d="M1510 1042 c0 -5 7 -17 15 -28 15 -19 20 -8 9 20 -6 17 -24 22 -24 8z"/>
 <path d="M457 1026 c-3 -8 -2 -18 3 -21 13 -8 24 15 12 27 -6 6 -11 4 -15 -6z"/>
 <path d="M1501 991 c-1 -24 2 -32 9 -25 7 7 7 19 1 35 -9 23 -10 22 -10 -10z"/>
 <path d="M427 933 c3 -7 9 -13 14 -13 5 0 9 6 9 13 0 8 -6 14 -14 14 -8 0 -12 -6 -9 -14z"/>
 </g>
<g id="layer115" fill="#035276" stroke="none">
 <path d="M90 1997 c0 -17 34 -97 42 -97 5 0 7 -4 4 -8 -7 -11 31 -72 44 -72 5 0 10 -7 10 -15 0 -9 8 -19 18 -22 9 -4 28 -17 40 -29 34 -33 192 -79 192 -56 0 6 -19 13 -43 16 -62 9 -138 48 -181 92 -21 22 -54 74 -74 116 -21 43 -40 78 -44 78 -5 0 -8 -1 -8 -3z"/>
 <path d="M1869 1963 c-22 -70 -68 -150 -102 -180 -46 -40 -102 -61 -212 -76 -59 -9 -83 -16 -69 -20 11 -4 60 0 109 8 174 31 241 94 299 283 4 12 3 22 -3 22 -5 0 -15 -17 -22 -37z"/>
 <path d="M981 1974 c6 -7 61 -47 123 -87 61 -41 146 -102 189 -136 70 -56 76 -64 66 -82 -9 -17 -8 -20 2 -13 8 5 21 9 29 9 8 1 25 2 38 3 12 1 22 7 22 13 0 7 -11 8 -30 4 -27 -6 -37 0 -93 50 -59 54 -372 270 -346 239z"/>
 <path d="M1200 1893 c19 -15 77 -64 130 -107 52 -44 89 -72 81 -62 -18 22 -153 133 -206 170 l-40 28 35 -29z"/>
 <path d="M817 1853 c-67 -35 -132 -79 -171 -114 -51 -47 -67 -56 -89 -52 -17 3 -27 1 -27 -6 0 -8 16 -11 45 -10 33 2 44 7 43 18 -4 23 107 107 222 166 58 30 101 54 95 54 -5 0 -59 -25 -118 -56z"/>
 <path d="M654 1814 l-39 -35 43 32 c38 30 48 39 39 39 -2 0 -21 -16 -43 -36z"/>
 <path d="M469 1689 c16 -6 28 -6 35 1 7 7 -1 10 -24 9 -33 0 -34 -1 -11 -10z"/>
 <path d="M1259 1604 c-12 -14 -11 -16 5 -13 11 2 21 10 24 17 5 17 -13 15 -29 -4z"/>
 <path d="M722 1601 c2 -7 7 -12 11 -12 12 1 9 15 -3 20 -7 2 -11 -2 -8 -8z"/>
 <path d="M870 1573 c-30 -9 -65 -16 -77 -16 -13 1 -21 -2 -18 -6 2 -4 -9 -15 -24 -24 -16 -9 -55 -45 -87 -80 -64 -68 -80 -104 -90 -206 -6 -53 -10 -61 -28 -61 -20 -1 -20 -1 -3 -14 17 -13 17 -18 -4 -102 -12 -49 -27 -92 -32 -95 -5 -4 -6 -15 -3 -26 8 -26 -9 -72 -30 -80 -10 -4 -25 6 -44 28 -27 31 -29 32 -30 12 0 -13 5 -22 13 -20 7 1 12 -8 12 -23 0 -16 -5 -24 -14 -22 -12 3 -12 0 -2 -12 9 -11 10 -20 2 -35 -6 -11 -9 -26 -6 -33 3 -8 -1 -41 -10 -73 -8 -33 -15 -78 -15 -102 0 -43 17 -93 32 -93 4 0 8 -14 8 -31 0 -35 13 -63 45 -99 12 -14 34 -46 48 -71 26 -46 64 -79 90 -79 7 0 25 -17 38 -37 28 -44 90 -81 145 -87 21 -2 58 -11 82 -20 59 -22 247 -18 284 6 13 9 41 16 62 16 48 0 124 46 145 89 10 19 26 33 41 36 33 7 79 52 98 97 8 19 23 41 34 49 24 16 48 70 48 106 0 14 4 25 8 25 15 0 32 49 32 88 0 21 -6 62 -14 92 -8 30 -16 78 -18 105 -2 28 -7 56 -11 62 -6 9 -3 11 7 7 18 -7 21 19 10 75 -5 23 -10 29 -19 21 -8 -7 -15 -3 -24 16 -16 36 -24 25 -10 -15 6 -17 16 -30 23 -29 6 2 12 -2 13 -7 0 -6 -3 -9 -8 -8 -5 2 -9 -3 -9 -11 0 -20 -16 -29 -40 -21 -13 4 -21 19 -26 43 -3 20 -17 82 -31 136 -20 78 -23 103 -14 118 9 14 8 18 -2 18 -10 0 -16 19 -21 61 -12 123 -47 182 -158 269 -26 21 -45 40 -42 43 3 3 -5 5 -18 4 -13 0 -50 7 -83 16 -74 21 -182 21 -255 0z m82 -155 c8 -61 13 -68 48 -68 35 0 50 23 50 75 0 61 38 60 137 -4 79 -51 108 -95 127 -196 10 -49 34 -115 61 -171 25 -50 45 -102 45 -116 0 -14 8 -43 17 -64 9 -22 15 -47 14 -57 -1 -10 3 -24 9 -32 7 -8 10 -44 9 -91 -3 -65 -8 -84 -31 -118 -15 -23 -28 -51 -28 -63 0 -13 -5 -23 -12 -23 -6 0 -26 -11 -44 -25 -41 -32 -71 -32 -131 1 -31 16 -57 23 -74 20 -14 -3 -31 0 -37 6 -15 15 -159 19 -207 5 -22 -6 -48 -9 -58 -8 -10 1 -40 -11 -66 -28 -60 -39 -79 -39 -126 -1 -21 17 -44 30 -51 30 -8 0 -14 8 -14 18 0 10 -14 39 -31 65 -27 41 -30 54 -31 122 0 45 5 82 12 90 7 8 10 21 7 30 -4 8 3 34 13 57 11 24 20 56 20 72 0 16 18 61 40 101 27 49 47 103 60 165 19 90 42 140 77 172 41 37 139 89 163 86 21 -3 26 -9 32 -50z"/>
 <path d="M925 1301 c-27 -6 -26 -8 22 -14 28 -4 71 -4 95 0 38 6 40 8 18 14 -31 9 -96 9 -135 0z"/>
 <path d="M950 1145 c0 -3 7 -22 15 -42 8 -19 15 -46 15 -59 0 -12 5 -26 11 -30 8 -5 10 6 5 37 -3 24 -6 51 -7 59 -1 8 -6 21 -12 28 -9 12 -27 17 -27 7z"/>
 <path d="M731 898 c36 -40 36 -45 2 -80 -27 -28 -27 -28 -4 -28 13 0 31 10 41 22 l17 22 14 -22 c8 -13 24 -22 38 -22 l25 0 -27 28 c-33 34 -33 37 -1 79 l25 33 -24 0 c-16 0 -28 -9 -36 -26 -9 -21 -14 -24 -26 -14 -8 7 -15 19 -15 26 0 9 -11 14 -29 14 l-30 0 30 -32z"/>
 <path d="M1149 893 l30 -37 -25 -33 -25 -33 24 0 c16 0 26 7 30 20 3 11 10 20 15 20 6 0 14 -9 17 -20 4 -13 15 -20 32 -20 l25 0 -26 31 c-32 38 -32 40 -1 69 14 13 25 27 25 32 0 4 -11 8 -25 8 -15 0 -25 -6 -25 -14 0 -7 -7 -19 -15 -26 -12 -10 -17 -7 -26 14 -8 18 -20 26 -36 26 l-24 0 30 -37z"/>
 <path d="M633 792 c11 -17 65 -31 162 -41 50 -5 100 -13 113 -17 17 -5 21 -3 16 9 -9 23 -29 28 -149 37 -60 4 -119 11 -129 15 -13 6 -17 5 -13 -3z"/>
 <path d="M1340 791 c-8 -5 -62 -11 -120 -13 -102 -4 -150 -17 -150 -40 0 -6 9 -8 23 -3 12 4 63 11 112 16 93 10 151 24 160 40 8 11 -5 11 -25 0z"/>
 <path d="M477 1071 c-3 -12 -1 -21 3 -21 15 0 23 21 12 32 -6 6 -11 2 -15 -11z"/>
 <path d="M1510 1042 c0 -5 7 -17 15 -28 15 -19 20 -8 9 20 -6 17 -24 22 -24 8z"/>
 <path d="M457 1026 c-3 -8 -2 -18 3 -21 13 -8 24 15 12 27 -6 6 -11 4 -15 -6z"/>
 <path d="M1501 991 c-1 -24 2 -32 9 -25 7 7 7 19 1 35 -9 23 -10 22 -10 -10z"/>
 <path d="M427 933 c3 -7 9 -13 14 -13 5 0 9 6 9 13 0 8 -6 14 -14 14 -8 0 -12 -6 -9 -14z"/>
 </g>
<g id="layer116" fill="#782f23" stroke="none">
 <path d="M1259 1604 c-12 -14 -11 -16 5 -13 11 2 21 10 24 17 5 17 -13 15 -29 -4z"/>
 <path d="M722 1601 c2 -7 7 -12 11 -12 12 1 9 15 -3 20 -7 2 -11 -2 -8 -8z"/>
 <path d="M870 1573 c-30 -9 -65 -16 -77 -16 -13 1 -21 -2 -18 -6 2 -4 -9 -15 -24 -24 -16 -9 -55 -45 -87 -80 -64 -68 -80 -104 -90 -206 -6 -53 -10 -61 -28 -61 -20 -1 -20 -1 -3 -14 17 -13 17 -18 -4 -102 -12 -49 -27 -92 -32 -95 -5 -4 -6 -15 -3 -26 8 -26 -9 -72 -30 -80 -10 -4 -25 6 -44 28 -27 31 -29 32 -30 12 0 -13 5 -22 13 -20 7 1 12 -8 12 -23 0 -16 -5 -24 -14 -22 -12 3 -12 0 -2 -12 9 -11 10 -20 2 -35 -6 -11 -9 -26 -6 -33 3 -8 -1 -41 -10 -73 -8 -33 -15 -78 -15 -102 0 -43 17 -93 32 -93 4 0 8 -14 8 -31 0 -35 13 -63 45 -99 12 -14 34 -46 48 -71 26 -46 64 -79 90 -79 7 0 25 -17 38 -37 28 -44 90 -81 145 -87 21 -2 58 -11 82 -20 59 -22 247 -18 284 6 13 9 41 16 62 16 48 0 124 46 145 89 10 19 26 33 41 36 33 7 79 52 98 97 8 19 23 41 34 49 24 16 48 70 48 106 0 14 4 25 8 25 15 0 32 49 32 88 0 21 -6 62 -14 92 -8 30 -16 78 -18 105 -2 28 -7 56 -11 62 -6 9 -3 11 7 7 18 -7 21 19 10 75 -5 23 -10 29 -19 21 -8 -7 -15 -3 -24 16 -16 36 -24 25 -10 -15 6 -17 16 -30 23 -29 6 2 12 -2 13 -7 0 -6 -3 -9 -8 -8 -5 2 -9 -3 -9 -11 0 -20 -16 -29 -40 -21 -13 4 -21 19 -26 43 -3 20 -17 82 -31 136 -20 78 -23 103 -14 118 9 14 8 18 -2 18 -10 0 -16 19 -21 61 -12 123 -47 182 -158 269 -26 21 -45 40 -42 43 3 3 -5 5 -18 4 -13 0 -50 7 -83 16 -74 21 -182 21 -255 0z m82 -155 c8 -61 13 -68 48 -68 35 0 50 23 50 75 0 61 38 60 137 -4 79 -51 108 -95 127 -196 10 -49 34 -115 61 -171 25 -50 45 -102 45 -116 0 -14 8 -43 17 -64 9 -22 15 -47 14 -57 -1 -10 3 -24 9 -32 7 -8 10 -44 9 -91 -3 -65 -8 -84 -31 -118 -15 -23 -28 -51 -28 -63 0 -13 -5 -23 -12 -23 -6 0 -26 -11 -44 -25 -41 -32 -71 -32 -131 1 -31 16 -57 23 -74 20 -14 -3 -31 0 -37 6 -15 15 -159 19 -207 5 -22 -6 -48 -9 -58 -8 -10 1 -40 -11 -66 -28 -60 -39 -79 -39 -126 -1 -21 17 -44 30 -51 30 -8 0 -14 8 -14 18 0 10 -14 39 -31 65 -27 41 -30 54 -31 122 0 45 5 82 12 90 7 8 10 21 7 30 -4 8 3 34 13 57 11 24 20 56 20 72 0 16 18 61 40 101 27 49 47 103 60 165 19 90 42 140 77 172 41 37 139 89 163 86 21 -3 26 -9 32 -50z"/>
 <path d="M925 1301 c-27 -6 -26 -8 22 -14 28 -4 71 -4 95 0 38 6 40 8 18 14 -31 9 -96 9 -135 0z"/>
 <path d="M950 1145 c0 -3 7 -22 15 -42 8 -19 15 -46 15 -59 0 -12 5 -26 11 -30 8 -5 10 6 5 37 -3 24 -6 51 -7 59 -1 8 -6 21 -12 28 -9 12 -27 17 -27 7z"/>
 <path d="M731 898 c36 -40 36 -45 2 -80 -27 -28 -27 -28 -4 -28 13 0 31 10 41 22 l17 22 14 -22 c8 -13 24 -22 38 -22 l25 0 -27 28 c-33 34 -33 37 -1 79 l25 33 -24 0 c-16 0 -28 -9 -36 -26 -9 -21 -14 -24 -26 -14 -8 7 -15 19 -15 26 0 9 -11 14 -29 14 l-30 0 30 -32z"/>
 <path d="M1149 893 l30 -37 -25 -33 -25 -33 24 0 c16 0 26 7 30 20 3 11 10 20 15 20 6 0 14 -9 17 -20 4 -13 15 -20 32 -20 l25 0 -26 31 c-32 38 -32 40 -1 69 14 13 25 27 25 32 0 4 -11 8 -25 8 -15 0 -25 -6 -25 -14 0 -7 -7 -19 -15 -26 -12 -10 -17 -7 -26 14 -8 18 -20 26 -36 26 l-24 0 30 -37z"/>
 <path d="M633 792 c11 -17 65 -31 162 -41 50 -5 100 -13 113 -17 17 -5 21 -3 16 9 -9 23 -29 28 -149 37 -60 4 -119 11 -129 15 -13 6 -17 5 -13 -3z"/>
 <path d="M1340 791 c-8 -5 -62 -11 -120 -13 -102 -4 -150 -17 -150 -40 0 -6 9 -8 23 -3 12 4 63 11 112 16 93 10 151 24 160 40 8 11 -5 11 -25 0z"/>
 <path d="M477 1071 c-3 -12 -1 -21 3 -21 15 0 23 21 12 32 -6 6 -11 2 -15 -11z"/>
 <path d="M1510 1042 c0 -5 7 -17 15 -28 15 -19 20 -8 9 20 -6 17 -24 22 -24 8z"/>
 <path d="M457 1026 c-3 -8 -2 -18 3 -21 13 -8 24 15 12 27 -6 6 -11 4 -15 -6z"/>
 <path d="M1501 991 c-1 -24 2 -32 9 -25 7 7 7 19 1 35 -9 23 -10 22 -10 -10z"/>
 <path d="M427 933 c3 -7 9 -13 14 -13 5 0 9 6 9 13 0 8 -6 14 -14 14 -8 0 -12 -6 -9 -14z"/>
 </g>
<g id="layer117" fill="#4d342c" stroke="none">
 <path d="M870 1573 c-30 -9 -65 -16 -77 -16 -13 1 -20 -3 -17 -8 3 -5 0 -9 -5 -9 -19 0 -149 -130 -166 -167 -10 -20 -24 -80 -31 -132 -17 -116 -53 -271 -64 -271 -4 0 -7 -17 -6 -39 1 -47 -19 -74 -50 -67 -16 4 -23 1 -27 -15 -4 -14 -10 -18 -19 -13 -11 6 -11 5 0 -8 10 -13 11 -22 3 -37 -6 -11 -9 -26 -6 -33 3 -8 -1 -41 -10 -73 -8 -33 -15 -78 -15 -102 0 -43 17 -93 32 -93 4 0 8 -14 8 -31 0 -35 13 -63 45 -99 12 -14 34 -46 48 -71 26 -46 64 -79 90 -79 7 0 25 -17 38 -37 28 -44 90 -81 145 -87 21 -2 58 -11 82 -20 59 -22 247 -18 284 6 13 9 41 16 62 16 48 0 124 46 145 89 10 19 26 33 41 36 33 7 79 52 98 97 8 19 23 41 34 49 24 16 48 70 48 106 0 14 4 25 8 25 15 0 32 49 32 88 0 21 -6 62 -14 92 -8 30 -16 78 -18 105 -3 48 -28 102 -41 89 -16 -16 -47 9 -53 44 -3 20 -17 81 -32 136 -20 79 -23 102 -14 117 10 15 9 19 -1 19 -10 0 -16 19 -21 61 -12 123 -47 182 -158 269 -26 21 -45 40 -42 43 3 3 -5 5 -18 4 -13 0 -50 7 -83 16 -74 21 -182 21 -255 0z m82 -155 c8 -61 13 -68 48 -68 35 0 50 23 50 75 0 61 38 60 137 -4 79 -51 108 -95 127 -196 10 -49 34 -115 61 -171 25 -50 45 -102 45 -116 0 -14 8 -43 17 -64 9 -22 15 -47 14 -57 -1 -10 3 -24 9 -32 7 -8 10 -44 9 -91 -3 -65 -8 -84 -31 -118 -15 -23 -28 -51 -28 -63 0 -13 -5 -23 -12 -23 -6 0 -26 -11 -44 -25 -41 -32 -71 -32 -131 1 -31 16 -57 23 -74 20 -14 -3 -31 0 -37 6 -15 15 -159 19 -207 5 -22 -6 -48 -9 -58 -8 -10 1 -40 -11 -66 -28 -60 -39 -79 -39 -126 -1 -21 17 -44 30 -51 30 -8 0 -14 8 -14 18 0 10 -14 39 -31 65 -27 41 -30 54 -31 122 0 45 5 82 12 90 7 8 10 21 7 30 -4 8 3 34 13 57 11 24 20 56 20 72 0 16 18 61 40 101 27 49 47 103 60 165 19 90 42 140 77 172 41 37 139 89 163 86 21 -3 26 -9 32 -50z"/>
 <path d="M731 898 c36 -40 36 -45 2 -80 -27 -28 -27 -28 -4 -28 13 0 31 10 41 22 l17 22 14 -22 c8 -13 24 -22 38 -22 l25 0 -27 28 c-33 34 -33 37 -1 79 l25 33 -24 0 c-16 0 -28 -9 -36 -26 -9 -21 -14 -24 -26 -14 -8 7 -15 19 -15 26 0 9 -11 14 -29 14 l-30 0 30 -32z"/>
 <path d="M1149 893 l30 -37 -25 -33 -25 -33 24 0 c16 0 26 7 30 20 3 11 10 20 15 20 6 0 14 -9 17 -20 4 -13 15 -20 32 -20 l25 0 -26 31 c-32 38 -32 40 -1 69 14 13 25 27 25 32 0 4 -11 8 -25 8 -15 0 -25 -6 -25 -14 0 -7 -7 -19 -15 -26 -12 -10 -17 -7 -26 14 -8 18 -20 26 -36 26 l-24 0 30 -37z"/>
 <path d="M633 792 c11 -17 65 -31 162 -41 50 -5 100 -13 113 -17 17 -5 21 -3 16 9 -9 23 -29 28 -149 37 -60 4 -119 11 -129 15 -13 6 -17 5 -13 -3z"/>
 <path d="M1340 791 c-8 -5 -62 -11 -120 -13 -102 -4 -150 -17 -150 -40 0 -6 9 -8 23 -3 12 4 63 11 112 16 93 10 151 24 160 40 8 11 -5 11 -25 0z"/>
 </g>
<g id="layer118" fill="#4c2717" stroke="none">
 <path d="M861 1571 c-35 -11 -71 -17 -79 -13 -10 3 -13 1 -8 -6 4 -7 2 -12 -3 -12 -19 0 -149 -130 -166 -167 -10 -20 -24 -80 -31 -132 -17 -114 -53 -271 -63 -271 -4 0 -8 -19 -8 -43 0 -57 -9 -70 -43 -63 -22 4 -29 1 -33 -15 -4 -14 -10 -18 -19 -13 -11 6 -11 5 0 -8 10 -13 11 -22 3 -37 -6 -11 -9 -26 -6 -33 3 -8 -1 -41 -10 -73 -8 -33 -15 -78 -15 -102 0 -43 17 -93 32 -93 4 0 8 -14 8 -31 0 -35 13 -63 45 -99 12 -14 34 -46 48 -71 26 -46 64 -79 90 -79 7 0 25 -17 38 -37 28 -44 90 -81 145 -87 21 -2 58 -11 82 -20 59 -22 247 -18 284 6 13 9 41 16 62 16 48 0 124 46 145 89 10 19 26 33 41 36 33 7 79 52 98 97 8 19 23 41 34 49 24 16 48 70 48 106 0 14 4 25 8 25 15 0 32 49 32 88 0 21 -6 62 -14 92 -8 30 -16 78 -18 105 -5 59 -24 94 -48 88 -22 -6 -50 23 -50 51 0 13 -13 75 -30 137 -16 63 -30 115 -30 116 0 1 8 4 18 6 14 4 14 5 1 6 -12 1 -18 16 -23 62 -12 123 -47 182 -158 269 -26 21 -44 41 -40 45 4 5 -1 5 -10 2 -10 -3 -37 1 -60 9 -71 25 -222 27 -297 5z m90 -148 c6 -47 23 -73 49 -73 25 0 40 22 48 71 6 35 12 45 30 47 47 7 177 -80 207 -138 8 -15 23 -69 35 -120 13 -61 33 -118 60 -166 22 -40 40 -86 40 -101 0 -15 9 -47 20 -71 10 -23 17 -49 13 -57 -3 -9 0 -21 6 -29 13 -15 17 -103 7 -155 -4 -18 -18 -48 -31 -66 -14 -17 -25 -42 -25 -53 0 -12 -4 -22 -8 -22 -5 0 -30 -14 -56 -32 l-48 -31 -64 32 c-42 21 -71 30 -84 26 -12 -4 -27 -1 -35 5 -19 16 -209 18 -227 2 -8 -6 -23 -9 -34 -6 -11 3 -38 -7 -65 -24 -73 -47 -81 -47 -129 -7 -23 19 -48 35 -56 35 -8 0 -14 7 -14 17 0 9 -14 38 -31 64 -27 42 -30 57 -31 122 0 41 5 84 11 96 7 12 9 25 6 30 -2 5 4 29 15 52 11 24 20 56 20 71 0 15 20 66 44 113 30 57 48 110 56 158 7 40 21 88 31 108 34 67 156 153 209 147 21 -3 26 -9 31 -45z m-170 -1186 c-5 -14 -15 -28 -21 -32 -5 -3 -3 10 7 29 19 40 29 42 14 3z"/>
 <path d="M739 894 c26 -33 26 -39 0 -75 -19 -27 -19 -29 -2 -29 10 0 24 9 31 20 7 11 16 20 21 20 5 0 13 -9 16 -20 4 -11 15 -20 26 -20 19 0 19 2 -5 33 l-25 33 25 32 c23 29 23 32 7 32 -10 0 -24 -9 -31 -21 l-13 -21 -23 21 c-33 31 -52 27 -27 -5z"/>
 <path d="M1155 890 l28 -29 -27 -36 -27 -35 24 0 c16 0 26 7 30 20 3 11 10 20 17 20 7 0 14 -9 17 -20 4 -13 14 -20 31 -20 l26 0 -28 29 c-29 30 -29 38 0 79 15 20 15 22 1 22 -9 0 -23 -10 -32 -22 l-16 -23 -19 23 c-10 12 -26 22 -36 22 -15 0 -13 -5 11 -30z"/>
 <path d="M650 786 c0 -10 74 -25 148 -31 40 -2 82 -10 93 -16 26 -14 40 -1 17 15 -10 8 -62 15 -120 19 -57 3 -111 8 -120 12 -10 4 -18 5 -18 1z"/>
 <path d="M1295 779 c-22 -4 -71 -8 -108 -8 -67 -1 -107 -12 -107 -31 0 -6 10 -6 26 0 15 6 54 12 87 15 90 6 147 16 153 26 6 10 5 10 -51 -2z"/>
 </g>
<g id="layer119" fill="#2b242c" stroke="none">
 <path d="M885 1576 c-96 -22 -149 -52 -217 -125 -71 -75 -81 -100 -98 -236 -9 -78 -38 -208 -57 -255 -3 -8 -5 -25 -4 -37 3 -34 -16 -61 -49 -68 -40 -9 -50 -28 -51 -95 -1 -14 -7 -50 -15 -80 -8 -30 -14 -73 -14 -97 0 -43 17 -93 32 -93 4 0 8 -14 8 -31 0 -35 13 -63 45 -99 12 -14 34 -46 48 -71 26 -46 64 -79 90 -79 7 0 25 -17 38 -37 28 -44 90 -81 145 -87 21 -2 58 -11 82 -20 59 -22 247 -18 284 6 13 9 41 16 62 16 48 0 124 46 145 89 10 19 26 33 41 36 33 7 79 52 98 97 8 19 23 41 34 49 24 16 48 70 48 106 0 14 4 25 8 25 15 0 32 49 32 88 0 21 -6 62 -14 92 -8 30 -16 80 -18 110 -4 54 -5 55 -46 74 -30 14 -44 27 -48 45 -6 35 -56 243 -61 258 -3 6 4 13 14 16 14 4 14 5 2 6 -12 1 -18 16 -23 62 -11 112 -24 138 -105 219 -66 66 -85 79 -146 98 -87 29 -209 36 -290 18z m66 -153 c6 -47 23 -73 49 -73 25 0 40 22 48 71 6 35 12 45 30 47 47 7 177 -80 207 -138 8 -15 23 -69 35 -120 13 -61 33 -118 60 -166 22 -40 40 -86 40 -101 0 -15 9 -47 20 -71 10 -23 17 -49 13 -57 -3 -9 0 -21 6 -29 13 -15 17 -103 7 -155 -4 -18 -18 -48 -31 -66 -14 -17 -25 -42 -25 -53 0 -12 -4 -22 -8 -22 -5 0 -30 -14 -56 -32 l-48 -31 -64 32 c-42 21 -71 30 -84 26 -12 -4 -27 -1 -35 5 -19 16 -209 18 -227 2 -8 -6 -23 -9 -34 -6 -11 3 -38 -7 -65 -24 -73 -47 -81 -47 -129 -7 -23 19 -48 35 -56 35 -8 0 -14 7 -14 17 0 9 -14 38 -31 64 -27 42 -30 57 -31 122 0 41 5 84 11 96 7 12 9 25 6 30 -2 5 4 29 15 52 11 24 20 56 20 71 0 15 20 66 44 113 30 57 48 110 56 158 7 40 21 88 31 108 34 67 156 153 209 147 21 -3 26 -9 31 -45z m-170 -1186 c-5 -14 -15 -28 -21 -32 -5 -3 -3 10 7 29 19 40 29 42 14 3z"/>
 <path d="M739 894 c26 -33 26 -39 0 -75 -19 -27 -19 -29 -2 -29 10 0 24 9 31 20 7 11 16 20 21 20 5 0 13 -9 16 -20 4 -11 15 -20 26 -20 19 0 19 2 -5 33 l-25 33 25 32 c23 29 23 32 7 32 -10 0 -24 -9 -31 -21 l-13 -21 -23 21 c-33 31 -52 27 -27 -5z"/>
 <path d="M1155 890 l28 -29 -27 -36 -27 -35 24 0 c16 0 26 7 30 20 3 11 10 20 17 20 7 0 14 -9 17 -20 4 -13 14 -20 31 -20 l26 0 -28 29 c-29 30 -29 38 0 79 15 20 15 22 1 22 -9 0 -23 -10 -32 -22 l-16 -23 -19 23 c-10 12 -26 22 -36 22 -15 0 -13 -5 11 -30z"/>
 <path d="M650 786 c0 -10 74 -25 148 -31 40 -2 82 -10 93 -16 26 -14 40 -1 17 15 -10 8 -62 15 -120 19 -57 3 -111 8 -120 12 -10 4 -18 5 -18 1z"/>
 <path d="M1295 779 c-22 -4 -71 -8 -108 -8 -67 -1 -107 -12 -107 -31 0 -6 10 -6 26 0 15 6 54 12 87 15 90 6 147 16 153 26 6 10 5 10 -51 -2z"/>
 </g>
<g id="layer120" fill="#291b17" stroke="none">
 <path d="M885 1576 c-96 -22 -149 -52 -217 -125 -71 -75 -81 -100 -98 -236 -9 -78 -38 -208 -57 -255 -3 -8 -5 -25 -4 -37 3 -34 -16 -61 -49 -68 -40 -9 -50 -28 -51 -95 -1 -14 -7 -50 -15 -80 -8 -30 -14 -73 -14 -97 0 -43 17 -93 32 -93 4 0 8 -14 8 -31 0 -35 13 -63 45 -99 12 -14 34 -46 48 -71 26 -46 64 -79 90 -79 7 0 25 -17 38 -37 28 -44 90 -81 145 -87 21 -2 58 -11 82 -20 59 -22 247 -18 284 6 13 9 41 16 62 16 48 0 124 46 145 89 10 19 26 33 41 36 33 7 79 52 98 97 8 19 23 41 34 49 24 16 48 70 48 106 0 14 4 25 8 25 15 0 32 49 32 88 0 21 -6 62 -14 92 -8 30 -16 80 -18 110 -4 54 -5 55 -46 74 -30 14 -44 27 -48 45 -6 35 -56 243 -61 258 -3 6 4 13 14 16 14 4 14 5 2 6 -12 1 -18 16 -23 62 -11 112 -24 138 -105 219 -66 66 -85 79 -146 98 -87 29 -209 36 -290 18z m299 -55 c110 -54 193 -167 217 -296 6 -33 21 -94 33 -135 l22 -75 -25 0 c-20 0 -29 10 -52 61 -15 33 -35 97 -43 143 -16 84 -25 106 -59 153 -29 39 -102 88 -154 104 -59 18 -83 6 -83 -41 0 -37 -8 -43 -28 -23 -10 10 -17 10 -32 0 -18 -11 -20 -10 -20 23 0 71 -80 65 -184 -13 -64 -49 -100 -114 -115 -212 -16 -98 -62 -195 -94 -195 l-23 0 22 75 c12 41 27 102 33 135 28 154 140 282 280 322 28 8 83 12 143 9 85 -3 105 -7 162 -35z m-232 -100 c8 -49 23 -71 48 -71 25 0 40 22 48 71 6 35 12 45 30 47 47 7 177 -80 207 -138 8 -15 23 -69 34 -120 14 -61 34 -116 61 -165 22 -40 40 -85 40 -101 0 -16 9 -48 20 -72 10 -23 17 -49 13 -57 -3 -9 0 -21 6 -29 13 -15 17 -103 7 -155 -4 -18 -18 -48 -31 -66 -14 -17 -25 -42 -25 -53 0 -12 -4 -22 -8 -22 -5 0 -30 -14 -56 -32 l-48 -31 -64 32 c-42 21 -71 30 -84 26 -12 -4 -27 -1 -35 5 -19 16 -209 18 -227 2 -8 -6 -23 -9 -34 -6 -11 3 -38 -7 -65 -24 -73 -47 -81 -47 -129 -7 -23 19 -48 35 -56 35 -8 0 -14 7 -14 17 0 9 -14 38 -31 64 -27 42 -30 57 -31 122 0 41 5 84 11 96 7 12 9 25 6 30 -2 5 4 29 15 52 11 24 20 58 20 74 0 17 11 50 25 75 46 81 64 129 76 198 6 37 20 83 30 103 34 67 155 153 209 147 21 -3 26 -10 32 -47z m-407 -506 c-8 -30 -29 -70 -46 -89 -18 -21 -25 -37 -19 -41 5 -3 10 -29 10 -57 0 -39 -5 -57 -21 -74 -20 -22 -20 -22 -1 -28 28 -9 46 -58 38 -106 -5 -32 -3 -40 9 -40 23 0 55 -60 55 -105 1 -32 3 -37 11 -22 18 30 64 21 97 -19 28 -34 30 -35 37 -15 7 23 53 51 82 51 28 -1 64 -25 79 -51 l13 -24 1 28 c0 29 31 67 54 67 19 0 46 -38 46 -64 0 -17 3 -16 27 8 44 44 99 48 118 9 9 -18 13 -19 21 -7 5 8 25 17 45 20 30 5 41 1 72 -26 33 -29 37 -30 37 -12 0 35 49 65 97 59 l42 -4 -2 41 c-2 37 1 43 30 57 29 14 30 17 16 32 -22 22 -9 65 25 79 15 7 28 13 30 14 2 1 -6 19 -17 40 -26 47 -26 60 -4 73 17 9 16 12 -6 41 -15 21 -21 40 -18 58 4 19 -1 31 -20 46 -14 10 -32 34 -39 52 -16 38 -19 94 -4 94 15 0 30 -36 30 -75 0 -41 36 -85 69 -85 32 0 30 6 57 -242 5 -43 3 -63 -9 -81 -9 -13 -19 -41 -23 -61 -3 -21 -21 -57 -38 -79 -17 -23 -44 -61 -60 -84 -16 -24 -45 -50 -66 -60 -21 -10 -46 -31 -56 -46 -27 -40 -102 -87 -138 -87 -17 0 -49 -7 -71 -15 -24 -8 -77 -14 -135 -14 -58 0 -111 6 -135 14 -22 8 -53 15 -68 15 -43 0 -105 37 -135 80 -15 21 -36 41 -48 44 -34 9 -73 45 -94 86 -11 21 -31 51 -45 66 -14 15 -30 45 -36 68 -6 23 -17 53 -25 68 -17 32 -18 83 -3 180 21 140 21 139 59 152 38 12 60 45 60 89 0 16 5 38 12 50 20 36 22 -4 3 -68z"/>
 <path d="M739 894 c26 -33 26 -39 0 -75 -19 -27 -19 -29 -2 -29 10 0 24 9 31 20 7 11 16 20 21 20 5 0 13 -9 16 -20 4 -11 15 -20 26 -20 19 0 19 2 -5 33 l-25 33 25 32 c23 29 23 32 7 32 -10 0 -24 -9 -31 -21 l-13 -21 -23 21 c-33 31 -52 27 -27 -5z"/>
 <path d="M1155 890 l28 -29 -27 -36 -27 -35 24 0 c16 0 26 7 30 20 3 11 10 20 17 20 7 0 14 -9 17 -20 4 -13 14 -20 31 -20 l26 0 -28 29 c-29 30 -29 38 0 79 15 20 15 22 1 22 -9 0 -23 -10 -32 -22 l-16 -23 -19 23 c-10 12 -26 22 -36 22 -15 0 -13 -5 11 -30z"/>
 </g>
<g id="layer121" fill="#201921" stroke="none">
 <path d="M910 1580 c-117 -24 -152 -42 -231 -120 -85 -85 -93 -104 -109 -251 -5 -52 -16 -114 -25 -138 -8 -24 -15 -49 -15 -57 0 -7 -5 -25 -12 -41 -6 -15 -10 -38 -9 -50 3 -34 -16 -61 -48 -68 -21 -4 -32 -16 -44 -46 -9 -22 -14 -46 -11 -53 3 -7 -2 -39 -11 -71 -8 -33 -15 -78 -15 -102 0 -43 17 -93 32 -93 4 0 8 -14 8 -31 0 -35 13 -63 45 -99 12 -14 34 -46 48 -71 26 -46 64 -79 90 -79 7 0 25 -17 38 -37 28 -44 90 -81 145 -87 21 -2 58 -11 82 -20 59 -22 247 -18 284 6 13 9 41 16 62 16 48 0 124 46 145 89 10 19 26 33 41 36 33 7 79 52 98 97 8 19 23 41 34 49 24 16 48 70 48 106 0 14 4 25 8 25 15 0 32 49 32 88 0 21 -7 64 -15 95 -8 32 -15 71 -15 87 0 48 -17 78 -55 95 -23 12 -37 26 -41 44 -3 14 -18 79 -35 144 -16 64 -29 119 -29 121 0 3 8 7 18 9 14 4 14 5 1 6 -12 1 -18 16 -23 62 -11 112 -24 138 -105 219 -67 66 -85 78 -146 98 -80 25 -199 35 -265 22z m274 -59 c110 -54 193 -167 217 -296 6 -33 21 -94 33 -135 l22 -75 -25 0 c-20 0 -29 10 -52 61 -15 33 -35 97 -43 143 -22 114 -47 157 -123 212 -86 61 -174 70 -172 16 l0 -22 9 23 c17 42 76 26 167 -46 63 -49 82 -82 103 -183 13 -60 34 -117 60 -166 22 -42 40 -89 40 -106 0 -18 9 -52 21 -76 11 -25 17 -51 14 -59 -3 -8 -1 -20 5 -27 12 -15 15 -104 6 -154 -4 -19 -15 -46 -26 -61 -10 -14 -22 -38 -25 -53 -4 -14 -16 -29 -26 -32 -11 -4 -33 -18 -49 -32 -34 -29 -63 -26 -114 10 -16 11 -46 21 -65 21 -20 1 -42 5 -50 10 -16 10 -208 9 -225 -1 -6 -4 -23 -8 -38 -9 -15 -1 -48 -16 -74 -33 -26 -17 -52 -31 -57 -31 -19 0 -126 76 -127 90 0 8 -13 34 -29 57 -21 31 -31 60 -36 107 -6 65 -4 82 32 186 9 25 19 67 24 93 4 26 21 70 38 96 34 56 61 130 61 168 0 50 24 106 67 153 65 72 186 125 198 88 2 -7 6 -30 10 -51 7 -45 43 -69 70 -47 22 18 19 35 -10 50 -20 11 -27 11 -40 0 -13 -11 -15 -8 -15 23 0 73 -79 68 -184 -11 -64 -49 -100 -114 -115 -212 -16 -98 -62 -195 -94 -195 l-23 0 22 75 c12 41 27 102 33 135 28 154 140 282 280 322 28 8 83 12 143 9 85 -3 105 -7 162 -35z m-639 -606 c-8 -30 -29 -70 -46 -89 -18 -21 -25 -37 -19 -41 5 -3 10 -29 10 -57 0 -39 -5 -57 -21 -74 -20 -22 -20 -22 -1 -28 28 -9 46 -58 38 -106 -5 -32 -3 -40 9 -40 23 0 55 -60 55 -105 1 -32 3 -37 11 -22 18 30 64 21 97 -19 28 -34 30 -35 37 -15 7 23 53 51 82 51 28 -1 64 -25 79 -51 l13 -24 1 28 c0 29 31 67 54 67 19 0 46 -38 46 -64 0 -17 3 -16 27 8 44 44 99 48 118 9 9 -18 13 -19 21 -7 5 8 25 17 45 20 30 5 41 1 72 -26 33 -29 37 -30 37 -12 0 35 49 65 97 59 l42 -4 -2 41 c-2 37 1 43 30 57 29 14 30 17 16 32 -22 22 -9 65 25 79 15 7 28 13 30 14 2 1 -6 19 -17 40 -26 47 -26 60 -4 73 17 9 16 12 -6 41 -15 21 -21 40 -18 58 4 19 -1 31 -20 46 -14 10 -32 34 -39 52 -16 38 -19 94 -4 94 15 0 30 -36 30 -75 0 -41 36 -85 69 -85 32 0 30 6 57 -242 5 -43 3 -63 -9 -81 -9 -13 -19 -41 -23 -61 -3 -21 -21 -57 -38 -79 -17 -23 -44 -61 -60 -84 -16 -24 -45 -50 -66 -60 -21 -10 -46 -31 -56 -46 -27 -40 -102 -87 -138 -87 -17 0 -49 -7 -71 -15 -24 -8 -77 -14 -135 -14 -58 0 -111 6 -135 14 -22 8 -53 15 -68 15 -43 0 -105 37 -135 80 -15 21 -36 41 -48 44 -34 9 -73 45 -94 86 -11 21 -31 51 -45 66 -14 15 -30 45 -36 68 -6 23 -17 53 -25 68 -17 32 -18 83 -3 180 21 140 21 139 59 152 38 12 60 45 60 89 0 16 5 38 12 50 20 36 22 -4 3 -68z"/>
 <path d="M745 890 l28 -29 -27 -36 c-24 -31 -25 -35 -8 -35 11 0 24 11 31 26 9 21 14 24 26 14 8 -7 15 -19 15 -26 0 -8 10 -14 22 -14 l21 0 -20 23 c-36 40 -37 47 -7 78 25 26 26 29 8 29 -10 0 -25 -9 -32 -21 l-13 -21 -23 21 c-35 33 -54 25 -21 -9z"/>
 <path d="M1154 898 c29 -41 29 -49 0 -79 l-28 -29 27 0 c17 0 27 5 27 14 0 26 23 30 41 8 9 -12 24 -22 33 -22 10 0 6 9 -14 32 l-29 32 25 33 c19 25 21 33 10 33 -8 0 -22 -10 -31 -22 l-16 -23 -19 23 c-10 12 -24 22 -30 22 -9 0 -7 -7 4 -22z"/>
 </g>
<g id="layer122" fill="#150f15" stroke="none">
 <path d="M910 1580 c-117 -24 -152 -42 -231 -120 -85 -84 -93 -104 -108 -246 -8 -80 -43 -233 -59 -259 -4 -5 -5 -20 -4 -32 5 -34 -15 -61 -50 -69 -18 -4 -27 -9 -20 -12 7 -2 26 1 42 8 30 12 50 55 50 107 0 12 8 29 18 39 16 17 17 16 20 -11 2 -15 -6 -60 -18 -99 -12 -39 -26 -88 -32 -108 -15 -51 3 -177 30 -216 11 -15 24 -40 27 -55 4 -15 12 -27 19 -27 6 0 31 -16 55 -35 24 -19 54 -35 66 -35 12 0 43 14 68 31 56 37 79 41 212 42 128 1 173 -7 235 -38 63 -32 75 -31 129 5 24 17 48 30 53 30 4 0 8 8 8 19 0 10 12 35 26 57 45 66 55 214 17 245 -15 13 -15 12 -4 -9 12 -22 16 -109 8 -163 -2 -15 -13 -40 -25 -56 -11 -16 -24 -40 -27 -54 -4 -14 -28 -38 -58 -57 -56 -37 -79 -36 -131 1 -16 11 -46 21 -65 21 -20 1 -42 5 -50 10 -17 11 -197 9 -219 -3 -9 -5 -29 -9 -44 -9 -15 0 -48 -14 -74 -31 -26 -17 -52 -31 -57 -31 -19 0 -126 76 -127 90 0 8 -13 34 -29 57 -21 31 -31 60 -36 107 -6 65 -3 82 32 186 36 104 34 167 -4 153 -12 -5 -15 -2 -11 8 23 63 40 128 53 212 8 54 22 112 30 128 22 41 121 137 167 160 128 65 306 63 425 -7 53 -31 136 -111 157 -151 8 -17 20 -64 26 -105 13 -83 50 -231 57 -224 3 2 -3 32 -11 66 -19 75 -20 68 2 73 14 4 14 5 1 6 -12 1 -18 16 -23 62 -11 112 -24 138 -105 219 -67 66 -85 78 -146 98 -80 25 -199 35 -265 22z"/>
 <path d="M809 1438 c-93 -63 -123 -107 -142 -212 -9 -47 -27 -111 -41 -141 -33 -74 -24 -70 14 5 17 33 34 88 39 124 5 35 17 80 26 100 34 72 162 162 218 154 15 -2 24 -12 28 -33 6 -28 7 -28 8 -4 3 63 -61 66 -150 7z"/>
 <path d="M1046 1464 c-3 -9 -6 -21 -5 -27 0 -7 4 -2 9 11 17 42 76 26 167 -46 63 -49 82 -82 103 -181 16 -77 70 -211 85 -211 3 0 -9 28 -26 62 -18 35 -37 96 -45 140 -17 96 -41 145 -95 192 -79 67 -178 98 -193 60z"/>
 <path d="M1422 1006 c-11 -19 -1 -90 20 -139 28 -63 34 -54 8 12 -11 28 -20 70 -20 93 0 39 1 40 19 24 11 -10 21 -37 24 -68 7 -58 15 -69 60 -84 35 -12 36 -15 56 -152 15 -97 14 -163 -2 -187 -7 -11 -19 -40 -26 -65 -7 -25 -24 -58 -38 -75 -13 -16 -39 -50 -56 -75 -18 -25 -50 -54 -70 -65 -21 -11 -44 -30 -53 -43 -27 -39 -94 -82 -129 -82 -18 0 -49 -7 -68 -15 -25 -10 -71 -15 -147 -15 -76 0 -122 5 -147 15 -19 8 -49 15 -65 15 -42 0 -80 23 -126 75 -22 25 -44 45 -50 45 -18 0 -82 61 -99 94 -9 17 -28 46 -44 63 -15 18 -31 50 -35 70 -4 21 -14 48 -22 61 -11 18 -13 41 -8 110 10 126 14 164 21 192 4 18 2 16 -9 -8 -8 -18 -13 -38 -10 -45 2 -7 -2 -40 -11 -72 -8 -33 -15 -78 -15 -102 0 -43 17 -93 32 -93 4 0 8 -14 8 -31 0 -35 13 -63 45 -99 12 -14 34 -46 48 -71 26 -46 64 -79 90 -79 7 0 25 -17 38 -37 28 -44 90 -81 145 -87 21 -2 58 -11 82 -20 59 -22 247 -18 284 6 13 9 41 16 62 16 48 0 124 46 145 89 10 19 26 33 41 36 33 7 79 52 98 97 8 19 23 41 34 49 24 16 48 70 48 106 0 14 4 25 8 25 15 0 32 49 32 88 0 21 -7 64 -15 95 -8 32 -15 71 -15 87 0 48 -17 78 -55 95 -20 10 -37 26 -40 39 -22 111 -26 122 -46 122 -11 0 -23 -5 -27 -10z"/>
 <path d="M745 890 l28 -29 -27 -36 c-24 -31 -25 -35 -8 -35 11 0 24 11 31 26 9 21 14 24 26 14 8 -7 15 -19 15 -26 0 -8 10 -14 22 -14 l21 0 -20 23 c-36 40 -37 47 -7 78 25 26 26 29 8 29 -10 0 -25 -9 -32 -21 l-13 -21 -23 21 c-35 33 -54 25 -21 -9z"/>
 <path d="M1154 898 c29 -41 29 -49 0 -79 l-28 -29 27 0 c17 0 27 5 27 14 0 26 23 30 41 8 9 -12 24 -22 33 -22 10 0 6 9 -14 32 l-29 32 25 33 c19 25 21 33 10 33 -8 0 -22 -10 -31 -22 l-16 -23 -19 23 c-10 12 -24 22 -30 22 -9 0 -7 -7 4 -22z"/>
 </g>

</svg>