<?xml version="1.0" encoding="UTF-8" standalone="no"?>
<svg xmlns:rdf="http://www.w3.org/1999/02/22-rdf-syntax-ns#" xmlns="http://www.w3.org/2000/svg" height="267" viewBox="0 0 266.66666 266.66666" width="267" version="1.1" xmlns:cc="http://creativecommons.org/ns#" xmlns:dc="http://purl.org/dc/elements/1.1/">
 <g stroke-width="1.33">
  <path d="m17.1 261c5.68-14.9 13.8-24.6 24.7-29.4 6.34-2.8 36.4-8.09 40.2-7.08 2.75.718 15.5-7.82 21.6-14.4l3.04-3.32-5.36-3.72c-8.3-5-16.6-15-19.5-21-1.36-3.08-2.89-9.6-3.39-14.5-.827-8.07-1.24-9.01-4.62-10.4-3.64-1.51-4.87-3.62-7.92-13.6-.832-2.71-2.87-6.94-4.54-9.39-5.44-8.01-7.85-18.7-4.9-21.7 1.28-1.31.366-10.4-2.58-25.6-1.78-9.18-.993-16.5 2.04-19 1.08-.897 1.96-3.08 1.96-4.85 0-3.81 4.83-13.8 6.67-13.8.706 0 2.76-2.92 4.57-6.49 3.53-6.97 10.2-13.5 13.9-13.5 1.23-.0047 3.23-1.76 4.45-3.91 3.53-6.2 12.6-12.1 18.7-12.1 2.86 0 7.12-1.02 9.47-2.27 6.12-3.26 33.1-3.26 39.2 0 2.35 1.25 6.61 2.27 9.47 2.27 6.04 0 15.2 5.87 18.7 12 1.21 2.11 3.52 4.17 5.12 4.58 4.44 1.12 10.6 6.84 12.5 11.7.960 2.4 3.68 6.54 6.03 9.21 2.36 2.67 4.7 6.87 5.21 9.33.507 2.47 2.15 7.09 3.65 10.3 2.53 5.36 2.6 6.49 1.04 15.3-3.08 17.5-3.81 25.4-2.53 27.8 1.89 3.53-.086 12.7-3.93 18.2-1.88 2.7-4.71 8.81-6.28 13.6-2.13 6.46-3.88 9.34-6.91 11.3-3.62 2.37-4.16 3.62-4.99 11.3-.509 4.77-2.02 11.2-3.36 14.2-2.85 6.53-11.1 15.9-18.7 21.1-2.95 2.05-5.2 4.2-4.99 4.78.206.582 4.48 4.33 9.51 8.32 6.89 5.49 10.2 7.27 13.5 7.27 2.42 0 5.51.338 6.87.752 1.36.413 8.61 1.66 16.1 2.76 24.6 3.62 34.1 11.3 41.8 33.7l2.43 7.06h-239z" fill="#3386ad"/>
  <path d="m16.4 264c3.11-13 13.8-26.6 25.2-31.7 6.09-2.76 29.1-7.22 40.3-7.81 4.25-.225 14.4-6.9 21-13.8l3.71-3.9-5.37-3.72c-7.58-5.25-15.9-14.6-18.8-21.2-1.36-3.08-2.89-9.6-3.39-14.5-.827-8.07-1.24-9.01-4.62-10.4-3.64-1.51-4.87-3.62-7.92-13.6-.832-2.71-2.87-6.94-4.54-9.39-5.44-8.01-7.85-18.7-4.9-21.7 1.28-1.31.366-10.4-2.58-25.6-1.78-9.18-.993-16.5 2.04-19 1.08-.897 1.96-3.08 1.96-4.85 0-3.81 4.83-13.8 6.67-13.8.706 0 2.76-2.92 4.57-6.49 3.53-6.97 10.2-13.5 13.9-13.5 1.23-.0047 3.23-1.76 4.45-3.91 3.53-6.2 12.6-12.1 18.7-12.1 2.86 0 7.12-1.02 9.47-2.27 6.12-3.26 33.1-3.26 39.2 0 2.35 1.25 6.61 2.27 9.47 2.27 6.04 0 15.2 5.87 18.7 12 1.21 2.11 3.52 4.17 5.12 4.58 4.44 1.12 10.6 6.84 12.5 11.7.960 2.4 3.68 6.54 6.03 9.21 2.36 2.67 4.7 6.87 5.21 9.33.507 2.47 2.15 7.09 3.65 10.3 2.53 5.36 2.6 6.49 1.04 15.3-3.08 17.5-3.81 25.4-2.53 27.8 1.89 3.53-.086 12.7-3.93 18.2-1.88 2.7-4.71 8.81-6.28 13.6-2.13 6.46-3.88 9.34-6.91 11.3-3.62 2.37-4.16 3.62-4.99 11.3-.509 4.77-2.02 11.2-3.36 14.2-2.85 6.51-11.1 15.9-18.7 21.1-2.93 2.03-5.33 4.09-5.33 4.57 0 .486 4.18 4.15 9.28 8.15 9.72 7.61 9.99 7.7 31.4 10.6 22.3 3 32.1 7.49 39.3 18 3.62 5.26 9.35 18.9 9.35 22.2 0 3.24-2.46.398-3.94-4.54-4.18-14-12.1-24.3-21.8-28.3-2.78-1.16-10.9-2.99-18-4.06-15.2-2.28-17.3-2.4-15.5-.812.697.635 6.97 1.9 13.9 2.8 15.3 1.99 24 5.45 29.5 11.8 4.13 4.7 11.8 19.4 11.8 22.6.00084 1.32-24.4 1.67-117 1.67h-116zm16.3-19.8c6.58-6.58 13.7-9.49 29.7-12.1 8.66-1.42 13-2.67 12.2-3.5-1.68-1.68-23.2 2.22-31.2 5.64-3.26 1.4-8.1 4.71-10.7 7.36-4.7 4.7-12.8 17.4-12.8 20.1 0 .733 1.8-1.8 3.99-5.63 2.2-3.83 6.19-9.15 8.87-11.8zm79.1 5.5c0-.348-1.8-1.56-4-2.7-5.01-2.59-5.32-1.47-.333 1.24 4.19 2.27 4.33 2.32 4.33 1.46zm58-6.78c4.4-3.12 10.1-7.82 12.6-10.5 2.71-2.83 5.99-4.87 8-4.98 3.24-.173 3.25-.210.332-.769-2.22-.424-4.68.895-8.87 4.75-3.19 2.94-9.6 8.14-14.3 11.6-13.7 10.1-12.1 10 2.2-.107zm-84.7-11.9c-4.02-4.15-10.8-6.75-8.67-3.33.453.733 1.88 1.33 3.18 1.33s3.76 1.5 5.49 3.33c1.72 1.83 3.44 3.33 3.83 3.33.383 0-1.34-2.1-3.83-4.67z" fill="#92614a"/>
  <path d="m16.4 264c3.11-13 13.8-26.6 25.2-31.7 6.11-2.77 29.1-7.22 40.4-7.82 4.3-.226 10.5-4.01 19.8-12.1l5.33-4.62-4.67-3.62c-8.54-6.63-17.6-16.7-20-22.3-1.33-3.04-2.84-9.63-3.37-14.6-.689-6.61-1.54-9.32-3.12-9.87-4.27-1.5-6.89-4.89-7.7-9.95-.453-2.83-2.87-8.54-5.36-12.7-5.2-8.63-7.77-18-5.9-21.5 1.28-2.4.486-10.9-2.6-27.7-1.61-8.76-1.54-9.86.979-15.3 1.49-3.24 3.39-8.34 4.21-11.3.823-2.98 3.04-6.86 4.92-8.63s4.52-5.7 5.86-8.73c2.44-5.52 10-12.6 13.5-12.6 1.03-.0047 2.84-1.71 4.03-3.8 3.54-6.23 11.4-11.4 17.8-11.7 3.08-.122 7.65-1.3 10.2-2.63 6.72-3.53 33.2-3.47 39.9.0919 2.57 1.37 6.26 2.34 8.21 2.16 4.69-.447 13.3 4.03 17.6 9.22 1.93 2.29 3.5 4.59 3.5 5.12s2.13 1.73 4.74 2.68c4.54 1.64 12.6 10.7 12.6 14.1 0 .853 1.81 3.29 4.03 5.41s4.7 6.29 5.52 9.25c.819 2.96 2.71 8.05 4.21 11.3 2.69 5.84 2.69 6.04.290 17.9-1.34 6.61-2.4 17.1-2.38 23.4.0564 12.3-.772 15.6-5.65 22.8-1.74 2.57-4.17 8.19-5.4 12.5-1.82 6.37-2.94 8.1-5.95 9.24-3.34 1.26-3.8 2.22-4.58 9.5-1.79 16.7-7.68 26.4-23.4 38.6l-4.67 3.6 5.33 4.71c8.78 7.74 15.2 11.6 19.7 11.9 8.88.564 27.2 3.49 34.3 5.47 14.1 3.94 22.7 12.6 28.1 28.1 2.89 8.39 3.09 9.77 1.46 9.77-.617 0-1.88-2.55-2.82-5.67-4.18-14-12.1-24.3-21.8-28.3-2.78-1.16-10.9-2.99-18-4.06-15.2-2.28-17.3-2.4-15.5-.812.697.635 6.97 1.9 13.9 2.8 15.3 1.99 24 5.45 29.5 11.8 4.13 4.7 11.8 19.4 11.8 22.6.00084 1.32-24.4 1.67-117 1.67h-119zm16.3-19.8c6.58-6.58 13.7-9.49 29.7-12.1 8.66-1.42 13-2.67 12.2-3.5-1.68-1.68-23.2 2.22-31.2 5.64-3.26 1.4-8.1 4.71-10.7 7.36-4.7 4.7-12.8 17.4-12.8 20.1 0 .733 1.8-1.8 3.99-5.63 2.2-3.83 6.19-9.15 8.87-11.8zm119 6.07c6.73-4.43 12.2-8.24 12.2-8.47 0-.455-12.3 1.37-17 2.51-3.1.760-3.92-.498-1.77-2.71.675-.697 2.51-4.87 4.07-9.27l2.84-8-.796 7.12-.796 7.12 10.4-.962c9.56-.885 10.9-1.4 16.9-6.36l6.48-5.4-3.81-2.76c-2.1-1.52-7.02-5.36-10.9-8.54-8.31-6.75-9.86-6.69-21.4.775-9.88 6.4-14.5 6.4-24.5-.0133-12-7.74-12.3-7.72-25.5 2.26-6.38 4.82-12.3 8.76-13.1 8.76s1.74 2.54 5.64 5.65c6.75 5.37 7.66 5.7 18.5 6.54 6.28.491 11.6.694 11.9.451.249-.243-.180-4.51-.954-9.48s-1.18-9.27-.901-9.54c.279-.279 2.03 4.49 3.9 10.6 4.59 15 5.78 16.5 13.6 16.3 5.61-.118 6.04.0676 3.85 1.67-3.23 2.36-4.09 2.29-10.7-.903-5.29-2.56-24.4-7.27-25.4-6.27-.588.588 31.6 16.8 33.6 16.9.788.0403 6.94-3.55 13.7-7.99zm-39.8-.573c0-.348-1.8-1.56-4-2.7-5.01-2.59-5.32-1.47-.333 1.24 4.19 2.27 4.33 2.32 4.33 1.46zm58-6.78c4.4-3.12 10.1-7.82 12.6-10.5 2.71-2.83 5.99-4.87 8-4.98 3.24-.173 3.25-.210.332-.769-2.22-.424-4.68.895-8.87 4.75-3.19 2.94-9.6 8.14-14.3 11.6-13.7 10.1-12.1 10 2.2-.107zm-84.7-11.9c-4.02-4.15-10.8-6.75-8.67-3.33.453.733 1.88 1.33 3.18 1.33s3.76 1.5 5.49 3.33c1.72 1.83 3.44 3.33 3.83 3.33.383 0-1.34-2.1-3.83-4.67zm42.8-36.7c.592-1.1 1.42-4.7 1.85-8 .762-5.94.824-6 5.95-6.06 4.68-.0551 5.26.316 5.96 3.83.428 2.14.779 5.25.779 6.9 0 4.68 3.15 6.55 8.11 4.83 5.57-1.94 21-14.6 23.4-19.1 1.04-2 2.76-8.3 3.84-14 1.13-5.97 4.01-14.4 6.8-20 3.06-6.06 4.92-11.7 5.07-15.4.148-3.73 1.3-7.18 3.19-9.59 1.7-2.16 2.96-5.63 2.96-8.17 0-2.42.679-4.83 1.51-5.34 1.05-.646 1.23-4.24.612-11.7-.708-8.49-1.59-11.7-4.18-15.1-1.8-2.36-3.28-5.51-3.28-6.99 0-1.76-1.6-3.45-4.61-4.88-2.53-1.2-5.31-3.03-6.16-4.06-2.2-2.65-6.48-2.32-11.8.897-8.44 5.15-33 7.86-46.8 5.17-4.03-.784-10.7-3.19-14.9-5.35-4.16-2.16-8.28-3.93-9.14-3.93-.863 0-3.76 1.7-6.43 3.78s-5.91 4.16-7.19 4.62c-1.28.465-2.33 1.88-2.33 3.15s-1.58 4.58-3.5 7.36c-3.07 4.43-3.51 6.42-3.58 16.1-.0430 6.06.609 13.4 1.45 16.3.840 2.93 2.68 9.64 4.09 14.9s4.45 12.9 6.76 16.9c2.49 4.35 5.28 12.3 6.87 19.6 1.47 6.74 3.54 13.9 4.6 16 3.75 7.26 22.2 20.6 27.2 19.7 1.02-.193 2.34-1.25 2.93-2.35zm-6.18-20.1c-1.54-2.49.685-3.22 11.3-3.71 10.3-.466 17 1.23 15.3 3.86-1.09 1.77-25.6 1.63-26.7-.156zm7.3-17-3.05-2.47 3.06-8.19c1.68-4.5 3.14-11.5 3.24-15.5.0954-4.04.580-7.34 1.08-7.34 1.64-.004 2.76 14.5 1.8 23.4-.651 6.08-.447 9.31.675 10.7 2.47 2.97-3 2.55-6.81-.531zm-33.1-32c0-.557 1.17-1.74 2.61-2.64 5.26-3.29 5.62-6.28 1.28-10.7-2.68-2.74-3.43-4.27-2.28-4.65.946-.312-.0806-.314-2.28-.003s-5.8 1.84-8 3.4l-4 2.84 2.14-3.28c3.18-4.88 7.5-6.45 21.8-7.94 7.11-.737 14.1-1.99 15.6-2.78 1.48-.793 3.02-1.12 3.41-.725 1.45 1.45-.973 4.91-4.32 6.18-1.9.721-3.1 1.87-2.68 2.55.421.682-.389 1.61-1.8 2.05-1.41.448-3.51 2.26-4.67 4.02-1.97 3.01-1.9 3.44 1.21 7.14 4.21 5 4.16 5.55-.532 5.55-2.78 0-4.05-.772-4.58-2.8-.785-3-3.58-2.32-3.58.880 0 1.31-1.49 1.92-4.67 1.92-2.57 0-4.67-.456-4.67-1.01zm12.7-15c.453-.733-.147-1.33-1.33-1.33-1.19 0-1.79.6-1.33 1.33.453.733 1.05 1.33 1.33 1.33s.880-.6 1.33-1.33zm43.3 15.3c0-.399 1.5-2.34 3.33-4.32 4.02-4.34 4.03-4.38.618-8.71-1.82-2.32-3.47-3.17-5-2.6-1.93.722-2.02.532-.594-1.23 1.42-1.75 1.15-2.43-1.67-4.28-3.91-2.56-4.75-7.02-1.02-5.42 2.35 1.01 7.78 1.98 25 4.47 7.5 1.08 9.94 2.05 12.4 4.9 3.71 4.3 2.95 5.93-.957 2.03-4.15-4.15-9.5-3.55-14.5 1.61l-4.25 4.38 3.99 4.37c2.19 2.4 3.99 4.63 3.99 4.95 0 .321-2.03.584-4.51.584-3.46 0-4.68-.651-5.24-2.8-.785-3-3.58-2.32-3.58.880 0 1.25-1.41 1.92-4 1.92-2.2 0-4-.326-4-.725zm12-15.3c0-.733-.935-1.33-2.08-1.33s-1.71.6-1.25 1.33c.453.733 1.39 1.33 2.08 1.33s1.25-.6 1.25-1.33zm-37 8c0-2.57.274-3.62.610-2.33.335 1.28.335 3.38 0 4.67-.335 1.28-.610.233-.610-2.33zm-51.3 33.4c-.734-2.89-2.6-6.34-4.14-7.67l-2.81-2.41 2.31 3.67c1.27 2.02 1.7 3.67.948 3.67-2.18 0-1.58 2.45 1.3 5.33 3.68 3.68 3.91 3.42 2.38-2.59zm124 .431c.901-1.98.975-3.01.181-2.51-1.75 1.08-1.7-.134.141-3.75l1.48-2.91-2.69 2.67c-3.42 3.39-5.43 11.7-2.57 10.6 1.06-.406 2.61-2.24 3.45-4.08zm-132-28c.665-2.84.490-2.74-1.17.667-1.07 2.2-1.92 5.5-1.88 7.33.0703 3.07.164 3.01 1.17-.667.603-2.2 1.45-5.5 1.88-7.33zm135 .384c-1.45-2.27-1.49-2.26-.761.0588.422 1.34.815 3.14.873 4 .076 1.12.288 1.11.761-.0588.361-.889-.032-2.69-.873-4zm3.4-6.77c-2.07-2.07-3.09 2.15-1.64 6.82l1.58 5.1.417-5.57c.229-3.07.0692-5.92-.356-6.35zm-141 1.25c-1.38-3.6-3.77.569-2.7 4.7l.979 3.76 1.24-3.25c.681-1.79.897-4.14.479-5.22z" fill="#1c769f"/>
  <path d="m15.9 266c-.0011-4.11 9.2-21.1 14.1-26 2.76-2.76 8.08-6.4 11.8-8.09 5.76-2.6 28.1-6.86 41-7.8 3.74-.273 10.2-4.39 19.1-12.1l5.33-4.62-4.67-3.62c-8.54-6.63-17.6-16.7-20-22.3-1.33-3.04-2.84-9.63-3.37-14.6-.689-6.61-1.54-9.32-3.12-9.87-4.27-1.5-6.89-4.89-7.7-9.95-.453-2.83-2.87-8.54-5.36-12.7-5.2-8.63-7.77-18-5.9-21.5 1.28-2.4.486-10.9-2.6-27.7-1.61-8.76-1.54-9.86.979-15.3 1.49-3.24 3.39-8.34 4.21-11.3.823-2.98 3.04-6.86 4.92-8.63s4.52-5.7 5.86-8.73c2.44-5.52 10-12.6 13.5-12.6 1.03-.0047 2.84-1.71 4.03-3.8 3.54-6.23 11.4-11.4 17.8-11.7 3.08-.122 7.65-1.3 10.2-2.63 6.72-3.53 33.2-3.47 39.9.0919 2.57 1.37 6.26 2.34 8.21 2.16 4.69-.447 13.3 4.03 17.6 9.22 1.93 2.29 3.5 4.59 3.5 5.12s2.13 1.73 4.74 2.68c4.54 1.64 12.6 10.7 12.6 14.1 0 .853 1.81 3.29 4.03 5.41s4.7 6.29 5.52 9.25c.819 2.96 2.71 8.05 4.21 11.3 2.69 5.84 2.69 6.04.290 17.9-1.34 6.61-2.4 17.1-2.38 23.4.0564 12.3-.772 15.6-5.65 22.8-1.74 2.57-4.17 8.19-5.4 12.5-1.82 6.37-2.94 8.1-5.95 9.24-3.34 1.26-3.8 2.22-4.58 9.5-1.79 16.7-7.68 26.4-23.4 38.6l-4.67 3.6 5.33 4.71c8.38 7.4 15.1 11.6 19.1 11.9 1.98.142 10.5 1.23 18.9 2.43 17.6 2.49 29.9 7.6 35.3 14.7 3.92 5.14 9.58 17.3 10.7 22.9.894 4.6 1.1 4.97-6.18-11.3-7.12-15.9-15.3-20.9-39.8-24.6l-12.7-1.9-7.33 7.04c-4.03 3.87-10.8 9.8-15 13.2-8.29 6.63-27.7 20-27.7 19.1 0-.308 6.45-5.31 14.3-11.1 7.88-5.81 18.8-14.4 24.2-19.1 8.98-7.78 9.6-8.63 7.09-9.75-2.31-1.03-4.23.109-11.9 7.1-5.05 4.58-16.9 13.5-26.4 19.9-9.48 6.35-17.1 12.3-16.9 13.2.183 0.9-.0339 1.64-.483 1.64s-9.57-4.31-20.3-9.59c-16.8-8.26-20.8-10.9-28.9-18.8-8.89-8.75-8.95-8.86-1.19-1.94 8.68 7.74 23.3 16.7 38 23.4 7.66 3.47 9.25 3.79 11.3 2.27 1.33-.972 2.12-2.05 1.75-2.4-.366-.346-8.04-4.29-17.1-8.76-18.5-9.17-25.4-13.6-32.6-21.1l-5.01-5.19-14.1 2.35c-7.78 1.29-17.1 3.32-20.6 4.5-9.83 3.27-18.6 12-25.1 24.9-3.02 6.06-5.5 10.1-5.5 8.99zm136-16c6.73-4.43 12.2-8.24 12.2-8.47 0-.455-12.3 1.37-17 2.51-3.1.760-3.92-.498-1.77-2.71.675-.697 2.51-4.87 4.07-9.27l2.84-8-.796 7.12-.796 7.12 10.4-.962c9.56-.885 10.9-1.4 16.9-6.36l6.48-5.4-3.81-2.76c-2.1-1.52-7.02-5.36-10.9-8.54-8.31-6.75-9.86-6.69-21.4.775-9.88 6.4-14.5 6.4-24.5-.0133-12-7.74-12.3-7.72-25.5 2.26-6.38 4.82-12.3 8.76-13.1 8.76s1.74 2.54 5.64 5.65c6.75 5.37 7.66 5.7 18.5 6.54 6.28.491 11.6.694 11.9.451.249-.243-.180-4.51-.954-9.48s-1.18-9.27-.901-9.54c.279-.279 2.03 4.49 3.9 10.6 4.59 15 5.78 16.5 13.6 16.3 5.61-.118 6.04.0676 3.85 1.67-3.23 2.36-4.09 2.29-10.7-.903-5.29-2.56-24.4-7.27-25.4-6.27-.588.588 31.6 16.8 33.6 16.9.788.0403 6.94-3.55 13.7-7.99zm-23.6-55.9c.592-1.1 1.42-4.7 1.85-8 .762-5.94.824-6 5.95-6.06 4.68-.0551 5.26.316 5.96 3.83.428 2.14.779 5.25.779 6.9 0 4.68 3.15 6.55 8.11 4.83 5.57-1.94 21-14.6 23.4-19.1 1.04-2 2.76-8.3 3.84-14 1.13-5.97 4.01-14.4 6.8-20 3.06-6.06 4.92-11.7 5.07-15.4.148-3.73 1.3-7.18 3.19-9.59 1.7-2.16 2.96-5.63 2.96-8.17 0-2.42.679-4.83 1.51-5.34 1.05-.646 1.23-4.24.612-11.7-.708-8.49-1.59-11.7-4.18-15.1-1.8-2.36-3.28-5.51-3.28-6.99 0-1.76-1.6-3.45-4.61-4.88-2.53-1.2-5.31-3.03-6.16-4.06-2.2-2.65-6.48-2.32-11.8.897-8.44 5.15-33 7.86-46.8 5.17-4.03-.784-10.7-3.19-14.9-5.35-4.16-2.16-8.28-3.93-9.14-3.93-.863 0-3.76 1.7-6.43 3.78s-5.91 4.16-7.19 4.62c-1.28.465-2.33 1.88-2.33 3.15s-1.58 4.58-3.5 7.36c-3.07 4.43-3.51 6.42-3.58 16.1-.0430 6.06.609 13.4 1.45 16.3.840 2.93 2.68 9.64 4.09 14.9s4.45 12.9 6.76 16.9c2.49 4.35 5.28 12.3 6.87 19.6 1.47 6.74 3.54 13.9 4.6 16 3.75 7.26 22.2 20.6 27.2 19.7 1.02-.193 2.34-1.25 2.93-2.35zm-6.18-20.1c-1.54-2.49.685-3.22 11.3-3.71 10.3-.466 17 1.23 15.3 3.86-1.09 1.77-25.6 1.63-26.7-.156zm7.3-17-3.05-2.47 3.06-8.19c1.68-4.5 3.14-11.5 3.24-15.5.0954-4.04.580-7.34 1.08-7.34 1.64-.004 2.76 14.5 1.8 23.4-.651 6.08-.447 9.31.675 10.7 2.47 2.97-3 2.55-6.81-.531zm-33.1-33c0-.557 1.17-1.74 2.61-2.64 5.26-3.29 5.62-6.28 1.28-10.7-2.68-2.74-3.43-4.27-2.28-4.65.946-.312-.0806-.314-2.28-.003s-5.8 1.84-8 3.4l-4 2.84 2.14-3.28c3.18-4.88 7.5-6.45 21.8-7.94 7.11-.737 14.1-1.99 15.6-2.78 1.48-.793 3.02-1.12 3.41-.725 1.45 1.45-.973 4.91-4.32 6.18-1.9.721-3.1 1.87-2.68 2.55.421.682-.389 1.61-1.8 2.05-1.41.448-3.51 2.26-4.67 4.02-1.97 3.01-1.9 3.44 1.21 7.14 4.21 5 4.16 5.55-.532 5.55-2.78 0-4.05-.772-4.58-2.8-.785-3-3.58-2.32-3.58.880 0 1.31-1.49 1.92-4.67 1.92-2.57 0-4.67-.456-4.67-1.01zm12.7-15c.453-.733-.147-1.33-1.33-1.33-1.19 0-1.79.6-1.33 1.33.453.733 1.05 1.33 1.33 1.33s.880-.6 1.33-1.33zm43.3 15.3c0-.399 1.5-2.34 3.33-4.32 4.02-4.34 4.03-4.38.618-8.71-1.82-2.32-3.47-3.17-5-2.6-1.93.722-2.02.532-.594-1.23 1.42-1.75 1.15-2.43-1.67-4.28-3.91-2.56-4.75-7.02-1.02-5.42 2.35 1.01 7.78 1.98 25 4.47 7.5 1.08 9.94 2.05 12.4 4.9 3.71 4.3 2.95 5.93-.957 2.03-4.15-4.15-9.5-3.55-14.5 1.61l-4.25 4.38 3.99 4.37c2.19 2.4 3.99 4.63 3.99 4.95 0 .321-2.03.584-4.51.584-3.46 0-4.68-.651-5.24-2.8-.785-3-3.58-2.32-3.58.880 0 1.25-1.41 1.92-4 1.92-2.2 0-4-.326-4-.725zm12-15.3c0-.733-.935-1.33-2.08-1.33s-1.71.6-1.25 1.33c.453.733 1.39 1.33 2.08 1.33s1.25-.6 1.25-1.33zm-37 8c0-2.57.274-3.62.610-2.33.335 1.28.335 3.38 0 4.67-.335 1.28-.610.233-.610-2.33zm-51.3 33.4c-.734-2.89-2.6-6.34-4.14-7.67l-2.81-2.41 2.31 3.67c1.27 2.02 1.7 3.67.948 3.67-2.18 0-1.58 2.45 1.3 5.33 3.68 3.68 3.91 3.42 2.38-2.59zm124 .431c.901-1.98.975-3.01.181-2.51-1.75 1.08-1.7-.134.141-3.75l1.48-2.91-2.69 2.67c-3.42 3.39-5.43 11.7-2.57 10.6 1.06-.406 2.61-2.24 3.45-4.08zm-132-28c.665-2.84.490-2.74-1.17.667-1.07 2.2-1.92 5.5-1.88 7.33.0703 3.07.164 3.01 1.17-.667.603-2.2 1.45-5.5 1.88-7.33zm135 .384c-1.45-2.27-1.49-2.26-.761.0588.422 1.34.815 3.14.873 4 .076 1.12.288 1.11.761-.0588.361-.889-.032-2.69-.873-4zm3.4-6.77c-2.07-2.07-3.09 2.15-1.64 6.82l1.58 5.1.417-5.57c.229-3.07.0692-5.92-.356-6.35zm-141 1.25c-1.38-3.6-3.77.569-2.7 4.7l.979 3.76 1.24-3.25c.681-1.79.897-4.14.479-5.22z" fill="#8c5b45"/>
  <path d="m15.9 266c-.0011-4.11 9.2-21.1 14.1-26 2.76-2.76 8.08-6.4 11.8-8.09 6.43-2.9 33.5-7.86 40.8-7.46 2.23.125 6.76-2.48 13.7-7.87 5.68-4.43 10.3-8.51 10.3-9.05 0-.545-3.03-3.3-6.74-6.13-7.95-6.06-15.1-14.5-17.8-20.9-1.05-2.52-2.34-8.93-2.87-14.2-.774-7.85-1.37-9.64-3.24-9.64-3.32 0-6.34-3.94-7.4-9.65-.509-2.74-3.08-8.44-5.7-12.7-4.6-7.39-4.79-8.21-5.13-21.7-.3-7-1.4-17.2-2.5-21.9-2.7-11.3-2.6-14.4.4-20.4 1.38-2.71 2.92-7.08 3.41-9.69.491-2.62 2.85-6.97 5.24-9.68s5.14-6.9 6.11-9.31c1.9-4.75 10.1-12.3 13.4-12.3 1.12-.0047 3-1.71 4.18-3.8 3.54-6.23 11.4-11.4 17.8-11.7 3.08-.122 7.65-1.3 10.2-2.63 6.72-3.53 33.2-3.47 39.9.0919 2.57 1.37 6.26 2.34 8.21 2.16 4.69-.447 13.3 4.03 17.6 9.22 1.93 2.29 3.5 4.59 3.5 5.12s2.13 1.73 4.74 2.68c4.54 1.64 12.6 10.7 12.6 14.1 0 .853 1.81 3.29 4.03 5.41s4.7 6.29 5.52 9.25c.819 2.96 2.71 8.05 4.21 11.3 2.67 5.8 2.68 6.12.390 17.4-1.28 6.34-2.44 17.5-2.57 24.8-.230 12.4-.520 13.7-4.47 19.9-2.32 3.65-5.23 10.2-6.47 14.5-1.83 6.36-2.95 8.1-5.96 9.24-3.34 1.26-3.8 2.22-4.58 9.5-1.43 13.3-4.29 20-11.9 27.9-3.79 3.92-8.97 8.69-11.5 10.6-4.47 3.37-4.54 3.56-2.24 6.11 4.79 5.29 18 14 21.7 14.2 2.08.144 10.7 1.24 19.1 2.43 17.6 2.49 29.9 7.6 35.3 14.7 3.92 5.14 9.58 17.3 10.7 22.9.894 4.6 1.1 4.97-6.18-11.3-7.12-15.9-15.3-20.9-39.8-24.6l-12.7-1.9-7.33 7.04c-4.03 3.87-10.8 9.8-15 13.2-8.29 6.63-27.7 20-27.7 19.1 0-.308 6.45-5.31 14.3-11.1 7.88-5.81 18.8-14.4 24.2-19.1 8.98-7.78 9.6-8.63 7.09-9.75-2.31-1.03-4.23.109-11.9 7.1-5.05 4.58-16.9 13.5-26.4 19.9-9.48 6.35-17.1 12.3-16.9 13.2.183 0.9-.0339 1.64-.483 1.64s-9.57-4.31-20.3-9.59c-16.8-8.26-20.8-10.9-28.9-18.8-8.89-8.75-8.95-8.86-1.19-1.94 8.68 7.74 23.3 16.7 38 23.4 7.66 3.47 9.25 3.79 11.3 2.27 1.33-.972 2.12-2.05 1.75-2.4-.366-.346-8.04-4.29-17.1-8.76-18.5-9.17-25.4-13.6-32.6-21.1l-5.01-5.19-14.1 2.35c-7.78 1.29-17.1 3.32-20.6 4.5-9.83 3.27-18.6 12-25.1 24.9-3.02 6.06-5.5 10.1-5.5 8.99zm139-18c11.3-7.55 11-8.23-2.78-5.35l-8.13 1.7 2.79-6.24c2.73-6.09 2.8-6.14 3.22-2.29.311 2.89.968 3.74 2.44 3.17 1.11-.426 5.42-.780 9.57-.789 7.12-.0139 7.97-.384 14.7-6.37l7.18-6.36-10.2-7.66c-5.6-4.21-10.2-8.22-10.2-8.9 0-1.79-10 2-17.6 6.65-8.22 5.06-12.6 5.02-21.4-.190-3.88-2.3-9.07-4.87-11.5-5.73-4.19-1.46-4.76-1.28-9.33 2.93-2.68 2.47-8.2 6.72-12.3 9.44l-7.39 4.95 6.31 5.29c6.53 5.48 11.6 6.91 25.3 7.17l6.12.117-1.04-6.33c-1.75-10.6-1.23-10.8 2.06-.628 1.73 5.34 3.95 10.7 4.94 11.9 1.57 1.93 1.49 2.1-.579 1.32-6.36-2.38-27.3-6.85-26-5.54.420.420 8.78 4.89 18.6 9.94 17.3 8.9 17.9 9.11 21.1 7.03 1.83-1.18 8.13-5.35 14-9.26zm-22.7.891c-.482-.78.901-1.33 3.33-1.33s3.82.553 3.33 1.33c-.453.733-1.95 1.33-3.33 1.33s-2.88-.6-3.33-1.33zm-4.14-54.1c.445-1.16.809-3.75.809-5.75 0-4.95 2.55-7.87 7.33-8.38 4.23-.455 4.26-.409 6.82 13.2.317 1.68 1.54 3 2.78 3 6.62 0 23.9-12.5 27.9-20.2 1.12-2.17 2.9-8.55 3.95-14.2 1.2-6.42 3.9-14.1 7.25-20.6 2.94-5.68 5.34-12.2 5.34-14.4 0-2.24 1-5.99 2.22-8.34 3.61-6.91 4.95-14.2 4.78-26.1-.133-9.63-.613-11.8-3.58-16.1-1.89-2.72-3.43-5.87-3.43-7.01 0-2.21-12.2-10.5-15.5-10.5-1.08 0-4.93 1.51-8.58 3.35-3.64 1.85-8.27 3.24-10.3 3.09-2.02-.146-4.89.397-6.38 1.21-3.48 1.89-23.9 1.92-28.5.0420-1.91-.786-4.68-1.32-6.14-1.18-1.47.138-5.54-1.57-9.05-3.8-7.88-5-9.8-5.03-15.6-.282-2.55 2.07-5.69 4.15-6.97 4.62-1.28.472-2.33 1.89-2.33 3.16s-1.58 4.58-3.5 7.36c-3.07 4.43-3.51 6.42-3.58 16.1-.0430 6.06.612 13.4 1.46 16.3.844 2.93 2.53 9.23 3.74 14s4.49 13.2 7.29 18.7c2.98 5.88 5.75 13.9 6.7 19.3 2.28 13.1 4.17 16.8 12.2 24 10.6 9.54 21.1 13.8 22.9 9.2zm-5.81-20.5c-3.42-2.16 5.09-4.33 14.9-3.8 9.28.506 11.3 1.25 9.79 3.65-1.08 1.76-21.9 1.88-24.7.145zm9.29-15.9c-4.41-1.22-4.75-4.68-1.4-14.6 1.51-4.47 2.79-10.7 2.85-13.8.112-5.6.140-5.63 1.41-1.71.713 2.2.962 9.34.553 15.9-.493 7.85-.239 12.5.752 13.7 1.61 1.94.983 2.04-4.16.615zm-35.1-34c0-.377 1.9-2.39 4.23-4.47l4.23-3.78-2.99-4.2c-3.77-5.3-8.38-6.56-13-3.55-2.49 1.63-3.31 1.77-2.88.493 1.27-3.81 8.81-6.52 21.4-7.72 7-.662 14-1.9 15.6-2.76 3.34-1.79 4.69-1.04 3.54 1.96-1.26 3.27-6.78 4.69-19.3 4.93-6.37.123-9.39.456-6.72.739 3.53.374 5.06 1.26 5.58 3.24.771 2.95 3.56 2.2 3.56-.952 0-1.26 1.42-1.92 4.12-1.92h4.12l-3.45 4.1c-4.23 5.03-4.23 5.08-.119 9.52 4.28 4.61 4.2 5.04-.889 5.04-2.32 0-3.83-.395-3.34-.877.981-.981-1.49-4.46-3.17-4.46-.594 0-1.46 1.2-1.93 2.67-.593 1.87-2.02 2.67-4.76 2.67-2.15 0-3.91-.308-3.91-.685zm59.3-3.77c4.22-5.54 4.22-5.88-.182-10.5l-3.58-3.74h3.77c2.07 0 4.49.992 5.38 2.2 1.63 2.23 5.37 1.32 3.96-.962-.424-.685 1.51-1.22 4.31-1.2 4.22.0353 4.74.320 3.08 1.69-1.1.905-3.09 2.92-4.41 4.49-2.36 2.77-2.32 2.95 1.8 7.64l4.22 4.81h-4.05c-2.88 0-4.29-.771-4.89-2.67-.466-1.47-1.33-2.67-1.93-2.67-1.68 0-4.15 3.47-3.17 4.46.483.483-1.05.877-3.41.877h-4.29zm27.6-12.6c-2.12-1.42-7.88-2.34-18.2-2.9-15-.820-19.4-2.22-19.4-6.22 0-2.22.683-2.28 4.21-.391 1.49.795 8.35 1.98 15.2 2.63 11.9 1.12 19.3 3.45 21.3 6.67 1.45 2.34.155 2.43-3.14.216zm-106 48c0-1.97-3.45-10-5.19-12.1-1.18-1.41-1.43-2.15-.559-1.64 1.03.599 1.51-.0256 1.38-1.77-.205-2.73-2.3-3.89-2.3-1.28 0 .777-.702.978-1.56.448-1.1-.677-1.26-.205-.537 1.59.563 1.4 1.32 4.35 1.68 6.55.659 4.02 3.86 8.67 5.96 8.67.620 0 1.13-.210 1.13-.468zm122-2.5c2.32-3.32 2.8-6.97.740-5.7-.735.454-.008-1.42 1.61-4.17s2.29-4.59 1.48-4.09c-1.89 1.17-3.08-1.92-2.29-5.95.612-3.12.610-3.12-.806.118-.780 1.79-1.12 4.02-.763 4.96.361.941.0828 2.07-.619 2.5-.701.433-1.27 1.5-1.25 2.38.012.954.536.790 1.31-.412.791-1.22 1.3-1.38 1.31-0.4.0107.880-.827 2.08-1.86 2.67-2.32 1.31-4.38 11.1-2.34 11.1.773 0 2.34-1.33 3.48-2.96zm-128-19c.455-1.19.232-1.72-.524-1.25-.725.448-1.32 1.38-1.32 2.07 0 1.92.956 1.5 1.84-.815zm-2.61-11.3c.693-2.9.526-2.81-1.27.667l-2.07 4 .827-3.98c.455-2.19.931-4.55 1.06-5.25.127-.703-.896-1.52-2.27-1.82-2.18-.472-2.4.0379-1.67 3.92.458 2.46 1.25 6.86 1.77 9.8l.937 5.33.952-4.67c.523-2.57 1.31-6.17 1.75-8zm139-1c.143-6.11-1.54-7.35-3.93-2.88-1.12 2.1-1.05 4.27.278 8.78 1.55 5.26 1.88 5.61 2.65 2.88.482-1.71.935-5.66 1.01-8.78zm-2.43 4.22c.064-1.55.380-1.87.806-.806.385.962.338 2.11-.105 2.56-.443.443-.758-.344-0.7-1.75z" fill="#615957"/>
  <path d="m15.9 266c-.0011-4.11 9.2-21.1 14.1-26 2.76-2.76 8.08-6.4 11.8-8.09 6.43-2.9 33.5-7.86 40.8-7.46 2.23.125 6.76-2.48 13.7-7.87 5.68-4.43 10.3-8.5 10.3-9.04 0-.538-3.4-3.84-7.55-7.33-14-11.8-18.1-19-19.8-35.2-.715-6.7-1.35-8.33-3.22-8.33-3.36 0-6.38-3.91-7.44-9.65-.509-2.74-3.04-8.44-5.63-12.7-5.23-8.53-7.34-20.1-4.33-23.7 1.32-1.59 1.32-2.41.008-3.99-.909-1.1-1.36-3.52-1-5.39.357-1.87-.112-5.62-1.04-8.34-3.04-8.89-3.02-21.7.0396-24.8 1.1-1.1 2-3.26 2-4.8 0-4.56 3.42-11.4 7.17-14.4 1.92-1.51 3.49-3.49 3.49-4.4 0-5 13.1-18 15.6-15.5.431.431 1.8-1.15 3.04-3.51 3.18-6.05 14.2-13.3 19.1-12.6 2.14.314 5.95-.522 8.64-1.89 6.63-3.38 32.9-3.55 39.3-.254 2.34 1.21 6.77 2.31 9.85 2.43 7.11.296 15.8 5.88 18.7 12.1 1.54 3.24 3.09 4.62 5.19 4.62 3.59 0 10.1 6.24 12.5 11.9.928 2.24 3.72 6.23 6.2 8.86s4.62 6.1 4.74 7.69c.125 1.6.294 3.91.374 5.14.0804 1.23 1.18 3.38 2.44 4.77 2.88 3.18 3.11 16.3.433 23.9-1.02 2.9-1.55 6.88-1.18 8.84.376 1.96-.0293 4.43-0.9 5.48-1.22 1.47-1.22 2.58-.005 4.85 2.41 4.51.741 13.7-3.78 20.8-2.23 3.51-5.07 9.91-6.31 14.2-1.86 6.47-2.93 8.09-6.11 9.29-2.12 0.8-3.87 2.07-3.88 2.83-.121 6.31-3.13 20.4-5.23 24.6-1.42 2.79-7.2 9.38-12.8 14.6-9.82 9.17-10.2 9.68-7.98 12.1 4.7 5.19 18 13.8 21.6 14.1 2.08.144 10.7 1.24 19.1 2.43 17.6 2.49 29.9 7.6 35.3 14.7 3.92 5.14 9.58 17.3 10.7 22.9.894 4.6 1.1 4.97-6.18-11.3-7.12-15.9-15.3-20.9-39.8-24.6l-12.7-1.9-7.33 7.04c-4.03 3.87-10.8 9.8-15 13.2-8.29 6.63-27.7 20-27.7 19.1 0-.308 6.45-5.31 14.3-11.1 7.88-5.81 18.8-14.4 24.2-19.1 8.98-7.78 9.6-8.63 7.09-9.75-2.31-1.03-4.23.109-11.9 7.1-5.05 4.58-16.9 13.5-26.4 19.9-9.48 6.35-17.1 12.3-16.9 13.2.183 0.9-.0339 1.64-.483 1.64s-9.57-4.31-20.3-9.59c-16.8-8.26-20.8-10.9-28.9-18.8-8.89-8.75-8.95-8.86-1.19-1.94 8.68 7.74 23.3 16.7 38 23.4 7.66 3.47 9.25 3.79 11.3 2.27 1.33-.972 2.12-2.05 1.75-2.4-.366-.346-8.04-4.29-17.1-8.76-18.5-9.17-25.4-13.6-32.6-21.1l-5.01-5.19-14.1 2.35c-7.78 1.29-17.1 3.32-20.6 4.5-9.83 3.27-18.6 12-25.1 24.9-3.02 6.06-5.5 10.1-5.5 8.99zm136-16c7.83-5.22 12.6-9.15 11.3-9.39-1.16-.228-6.02.388-10.8 1.37l-8.68 1.79 2.79-6.24c2.55-5.7 2.83-5.93 3.19-2.67.393 3.53.486 3.56 9.18 3.01 7.19-.458 8.59-.226 7.71 1.27-.763 1.3-.328 1.23 1.48-.245 1.41-1.14 5.7-4.64 9.54-7.77l6.98-5.69-10.6-7.89c-5.85-4.34-10.6-8.47-10.6-9.17 0-1.82-9.92 1.92-17.6 6.62-8.22 5.06-12.6 5.02-21.4-.190-3.88-2.3-9.07-4.87-11.5-5.73-4.19-1.46-4.76-1.28-9.33 2.93-2.68 2.47-8.36 6.82-12.6 9.68l-7.74 5.19 7.12 5.51c6.9 5.34 7.48 5.52 19.2 6.15l12.1.641-1.06-6.43c-1.76-10.7-1.25-10.9 2.05-.723 1.73 5.34 3.95 10.7 4.94 11.9 1.57 1.93 1.49 2.1-.579 1.32-3.08-1.15-16.3-4.42-22.2-5.49-3.73-.673-4.3-.508-2.94.854 1.73 1.73 33.3 17.9 35.4 18.2.664.0845 7.26-3.88 14.7-8.82zm-19.9-1.69c-.482-.78.901-1.33 3.33-1.33s3.82.553 3.33 1.33c-.453.733-1.95 1.33-3.33 1.33s-2.88-.6-3.33-1.33zm-4.14-54.1c.445-1.16.809-3.75.809-5.75 0-4.95 2.55-7.87 7.33-8.38 4.23-.455 4.26-.409 6.82 13.2.317 1.68 1.54 3 2.78 3 6.62 0 23.9-12.5 27.9-20.2 1.12-2.17 2.9-8.55 3.95-14.2 1.2-6.42 3.9-14.1 7.25-20.6 2.94-5.68 5.34-12.2 5.34-14.4 0-2.24 1-5.99 2.22-8.34 3.61-6.91 4.95-14.2 4.78-26.1-.133-9.63-.613-11.8-3.58-16.1-1.89-2.72-3.43-5.87-3.43-7.01 0-2.21-12.2-10.5-15.5-10.5-1.08 0-4.93 1.51-8.58 3.35-3.64 1.85-8.27 3.24-10.3 3.09-2.02-.146-4.89.397-6.38 1.21-3.48 1.89-23.9 1.92-28.5.0420-1.91-.786-4.68-1.32-6.14-1.18-1.47.138-5.54-1.57-9.05-3.8-7.88-5-9.8-5.03-15.6-.282-2.55 2.07-5.69 4.15-6.97 4.62-1.28.472-2.33 1.89-2.33 3.16s-1.58 4.58-3.5 7.36c-3.07 4.43-3.51 6.42-3.58 16.1-.0430 6.06.612 13.4 1.46 16.3.844 2.93 2.53 9.23 3.74 14s4.49 13.2 7.29 18.7c2.98 5.88 5.75 13.9 6.7 19.3 2.28 13.1 4.17 16.8 12.2 24 10.6 9.54 21.1 13.8 22.9 9.2zm-5.81-20.5c-3.42-2.16 5.09-4.33 14.9-3.8 9.28.506 11.3 1.25 9.79 3.65-1.08 1.76-21.9 1.88-24.7.145zm9.29-15.9c-4.41-1.22-4.75-4.68-1.4-14.6 1.51-4.47 2.79-10.7 2.85-13.8.112-5.6.140-5.63 1.41-1.71.713 2.2.962 9.34.553 15.9-.493 7.85-.239 12.5.752 13.7 1.61 1.94.983 2.04-4.16.615zm-35.1-34c0-.377 1.9-2.39 4.23-4.47l4.23-3.78-2.99-4.2c-3.77-5.3-8.38-6.56-13-3.55-2.49 1.63-3.31 1.77-2.88.493 1.27-3.81 8.81-6.52 21.4-7.72 7-.662 14-1.9 15.6-2.76 3.34-1.79 4.69-1.04 3.54 1.96-1.26 3.27-6.78 4.69-19.3 4.93-6.37.123-9.39.456-6.72.739 3.53.374 5.06 1.26 5.58 3.24.771 2.95 3.56 2.2 3.56-.952 0-1.26 1.42-1.92 4.12-1.92h4.12l-3.45 4.1c-4.23 5.03-4.23 5.08-.119 9.52 4.28 4.61 4.2 5.04-.889 5.04-2.32 0-3.83-.395-3.34-.877.981-.981-1.49-4.46-3.17-4.46-.594 0-1.46 1.2-1.93 2.67-.593 1.87-2.02 2.67-4.76 2.67-2.15 0-3.91-.308-3.91-.685zm59.3-3.77c4.22-5.54 4.22-5.88-.182-10.5l-3.58-3.74h3.77c2.07 0 4.49.992 5.38 2.2 1.63 2.23 5.37 1.32 3.96-.962-.424-.685 1.51-1.22 4.31-1.2 4.22.0353 4.74.320 3.08 1.69-1.1.905-3.09 2.92-4.41 4.49-2.36 2.77-2.32 2.95 1.8 7.64l4.22 4.81h-4.05c-2.88 0-4.29-.771-4.89-2.67-.466-1.47-1.33-2.67-1.93-2.67-1.68 0-4.15 3.47-3.17 4.46.483.483-1.05.877-3.41.877h-4.29zm27.6-12.6c-2.12-1.42-7.88-2.34-18.2-2.9-15-.820-19.4-2.22-19.4-6.22 0-2.22.683-2.28 4.21-.391 1.49.795 8.35 1.98 15.2 2.63 11.9 1.12 19.3 3.45 21.3 6.67 1.45 2.34.155 2.43-3.14.216zm-106 48c0-1.97-3.45-10-5.19-12.1-1.18-1.41-1.43-2.15-.559-1.64 1.03.599 1.51-.0256 1.38-1.77-.205-2.73-2.3-3.89-2.3-1.28 0 .777-.702.978-1.56.448-1.1-.677-1.26-.205-.537 1.59.563 1.4 1.32 4.35 1.68 6.55.659 4.02 3.86 8.67 5.96 8.67.620 0 1.13-.210 1.13-.468zm122-2.5c2.32-3.32 2.8-6.97.740-5.7-.735.454-.008-1.42 1.61-4.17s2.29-4.59 1.48-4.09c-1.89 1.17-3.08-1.92-2.29-5.95.612-3.12.610-3.12-.806.118-.780 1.79-1.12 4.02-.763 4.96.361.941.0828 2.07-.619 2.5-.701.433-1.27 1.5-1.25 2.38.012.954.536.790 1.31-.412.791-1.22 1.3-1.38 1.31-0.4.0107.880-.827 2.08-1.86 2.67-2.32 1.31-4.38 11.1-2.34 11.1.773 0 2.34-1.33 3.48-2.96zm-128-19c.455-1.19.232-1.72-.524-1.25-.725.448-1.32 1.38-1.32 2.07 0 1.92.956 1.5 1.84-.815zm-2.61-11.3c.693-2.9.526-2.81-1.27.667l-2.07 4 .827-3.98c.455-2.19.931-4.55 1.06-5.25.127-.703-.896-1.52-2.27-1.82-2.18-.472-2.4.0379-1.67 3.92.458 2.46 1.25 6.86 1.77 9.8l.937 5.33.952-4.67c.523-2.57 1.31-6.17 1.75-8zm139-1c.143-6.11-1.54-7.35-3.93-2.88-1.12 2.1-1.05 4.27.278 8.78 1.55 5.26 1.88 5.61 2.65 2.88.482-1.71.935-5.66 1.01-8.78zm-2.43 4.22c.064-1.55.380-1.87.806-.806.385.962.338 2.11-.105 2.56-.443.443-.758-.344-0.7-1.75z" fill="#844f37"/>
  <path d="m15.9 266c-.0011-4.11 9.2-21.1 14.1-26 2.76-2.76 8.08-6.4 11.8-8.09 6.35-2.87 33.6-7.88 40.6-7.46 3.31.202 10.9-4.53 19.6-12.3l5.33-4.74-6.66-5.73c-16.2-14-19.5-19-21.5-35-1.08-8.45-1.77-10.4-3.62-10.4-3.21 0-6.24-3.85-7.35-9.33-.521-2.57-2.38-7.28-4.14-10.5-1.75-3.2-2.85-6.36-2.44-7.03.415-.671-.0408-1.05-1.01-.853-1.06.220-1.73-.802-1.67-2.57.0543-1.61-.396-2.63-1-2.25-1.71 1.06-1.29-12.1.445-13.8 1.17-1.17 1.13-2.04-.157-3.59-.935-1.13-1.41-3.58-1.05-5.44.357-1.87-.112-5.62-1.04-8.34-3.04-8.89-3.02-21.7.0396-24.8 1.1-1.1 2-3.26 2-4.8 0-4.56 3.42-11.4 7.17-14.4 1.92-1.51 3.49-3.49 3.49-4.4 0-5 13.1-18 15.6-15.5.431.431 1.8-1.15 3.04-3.51 3.18-6.05 14.2-13.3 19.1-12.6 2.14.314 5.95-.522 8.64-1.89 6.63-3.38 32.9-3.55 39.3-.254 2.34 1.21 6.77 2.31 9.85 2.43 7.11.296 15.8 5.88 18.7 12.1 1.54 3.24 3.09 4.62 5.19 4.62 3.59 0 10.1 6.24 12.5 11.9.928 2.24 3.72 6.23 6.2 8.86s4.62 6.1 4.74 7.69c.125 1.6.294 3.91.374 5.14.0804 1.23 1.18 3.38 2.44 4.77 2.89 3.2 3.11 16.3.389 24-1.05 2.97-1.58 6.63-1.18 8.15.396 1.51.250 3.81-.326 5.11-1.42 3.18-1.63 8.33-.316 7.52 1.24-.765 1.39 6.81.224 11.2-.440 1.64-1.26 2.7-1.83 2.35-.567-.351-.949.406-.848 1.68.101 1.28-.606 2.16-1.58 1.95-.971-.202-1.44.160-1.04.803.397.643-.453 3.47-1.89 6.29s-2.97 7.05-3.42 9.42c-.901 4.8-4.97 9.86-7.94 9.86-1.07 0-1.96.75-1.97 1.67-.103 6.48-3.09 20.6-5.23 24.9-1.42 2.79-7.21 9.38-12.9 14.7l-10.3 9.58 3.08 3.28c5.14 5.47 17 13 21 13.3 2.02.143 10.6 1.24 19 2.43 17.6 2.49 29.9 7.6 35.3 14.7 3.92 5.14 9.58 17.3 10.7 22.9.894 4.6 1.1 4.97-6.18-11.3-7.12-15.9-15.3-20.9-39.8-24.6l-12.7-1.9-7.33 7.04c-4.03 3.87-10.8 9.8-15 13.2-8.29 6.63-27.7 20-27.7 19.1 0-.308 6.45-5.31 14.3-11.1 7.88-5.81 18.8-14.4 24.2-19.1 8.98-7.78 9.6-8.63 7.09-9.75-2.31-1.03-4.23.109-11.9 7.1-5.05 4.58-16.9 13.5-26.4 19.9-9.48 6.35-17.1 12.3-16.9 13.2.183 0.9-.0339 1.64-.483 1.64s-9.57-4.31-20.3-9.59c-16.8-8.26-20.8-10.9-28.9-18.8-8.89-8.75-8.95-8.86-1.19-1.94 8.68 7.74 23.3 16.7 38 23.4 7.66 3.47 9.25 3.79 11.3 2.27 1.33-.972 2.12-2.05 1.75-2.4-.366-.346-8.04-4.29-17.1-8.76-18.5-9.17-25.4-13.6-32.6-21.1l-5.01-5.19-14.1 2.35c-7.78 1.29-17.1 3.32-20.6 4.5-9.83 3.27-18.6 12-25.1 24.9-3.02 6.06-5.5 10.1-5.5 8.99zm136-15c7.23-4.81 17.8-12.4 23.4-16.9 9.05-7.19 9.97-8.31 7.83-9.58-3.46-2.06-18.7-14.1-19.5-15.5-.391-.631-3.39-.150-6.67 1.07-8.32 3.1-34.3 3.09-42.6-.012l-5.99-2.23-4.68 4.49c-2.57 2.47-8.15 6.89-12.4 9.83l-7.71 5.34 5.71 4.57c3.14 2.51 7.77 6.02 10.3 7.79 4.66 3.28 35.8 19.5 38 19.7.664.0845 7.12-3.79 14.4-8.6zm-22.9-60.6c.915-7.83 1.99-9.33 6.66-9.33 4.27 0 6.63 3.02 6.63 8.47 0 4.89 1.34 7.53 3.81 7.5 7.16-.0957 25.6-13.9 28.4-21.3.699-1.83 2.19-7.84 3.31-13.3 1.12-5.5 4.28-14.5 7.01-20s6-13.9 7.25-18.7c1.25-4.77 2.97-11.1 3.81-14 .839-2.93 1.46-10.3 1.37-16.5-.133-9.63-.613-11.8-3.58-16.1-1.89-2.72-3.43-5.86-3.43-6.98 0-2.31-11.9-10.5-15.2-10.5-1.21 0-5.17 1.51-8.81 3.35-3.64 1.85-8.27 3.26-10.3 3.15-2.02-.111-5.2.420-7.08 1.18-4.57 1.86-23.7 1.84-27.2-.0212-1.51-.818-4.3-1.37-6.2-1.24-1.97.142-5.98-1.46-9.33-3.73-3.23-2.19-6.92-3.99-8.19-4.01-3.57-.0374-17 9.57-17 12.2 0 1.25-1.59 4.17-3.53 6.47-3.23 3.84-3.52 5.16-3.48 15.8.0577 13.7.662 18.5 2.81 22.5.872 1.63 2.18 6.13 2.91 10 .727 3.87 3.72 11.8 6.65 17.7 3.28 6.56 6.09 14.7 7.3 21.2 2.13 11.4 5.85 18.2 12.9 23.4 7.98 5.9 15.1 9.4 18.4 9.05 2.89-.302 3.43-1.15 4.03-6.35zm-5.33-15.9c-3.05-1.93 1.82-3.38 11.3-3.38 4.4 0 9.18.482 10.6 1.07 4.6 1.88-.413 3.55-10.6 3.55-5.13 0-10.2-.559-11.3-1.24zm7.24-17.9c-2.48-1.81-2.49-2.08-.248-8.33 1.27-3.55 2.35-9.46 2.4-13.1.0647-4.95.382-5.98 1.23-4 1.58 3.67 1.6 12.4.0442 17.8-.844 2.94-.828 5.36.0469 6.99 1.58 2.96.0869 3.23-3.48.622zm-31.2-36c4.62-4.76 4.59-5.66-.319-11.1l-2.7-3h4.08c3.06 0 4.27.721 4.83 2.89.635 2.43 1.08 2.62 2.81 1.18 1.13-.937 1.72-2.24 1.32-2.89-.402-.650 1.22-1.18 3.6-1.18h4.33l-3.58 3.74c-4.41 4.6-4.43 5.38-.249 9.88 4.1 4.42 4.14 5.04.321 5.04-1.66 0-3.76-1.2-4.68-2.67-.916-1.47-2.22-2.67-2.9-2.67-.678 0-1.61 1.2-2.08 2.67-.609 1.92-2.02 2.67-5.02 2.67h-4.17zm55.4.0923c4.22-5.54 4.22-5.88-.182-10.5l-3.58-3.74h3.77c2.07 0 4.59 1.05 5.58 2.33 1.73 2.22 1.9 2.22 3.63 0 .998-1.28 3.17-2.33 4.82-2.33h3.01l-3.51 4.6-3.51 4.6 4.16 4.73 4.16 4.73h-4.05c-2.88 0-4.29-.771-4.89-2.67-.466-1.47-1.4-2.67-2.08-2.67-.678 0-1.98 1.2-2.9 2.67-.916 1.47-3.05 2.67-4.75 2.67h-3.08l3.4-4.46zm-69.6-11c1.33-4.16 8.66-6.75 22.4-7.95 7.5-.651 14.3-1.83 15.1-2.62 2.02-2.02 3.57-1.79 3.57.527 0 3.65-6.99 5.69-21.7 6.31-11.6.499-14.9 1.09-17.2 3.17-2.08 1.85-2.7 2-2.24.565zm98.1-.942c-1.69-1.69-5.88-2.39-18.1-3.01-15.9-.805-20.2-2.15-20.2-6.23 0-2.16 1.58-2.39 3.47-.497.737.737 7.46 1.92 14.9 2.64 12.8 1.22 20.3 3.49 22.3 6.77 1.5 2.43-.0873 2.64-2.41.324zm-107 46c-.0504-.55-1.48-6.4-3.18-13-2.13-8.29-3.38-11.3-4.06-9.65-.536 1.29-.637 3.69-.225 5.33.738 2.93.717 2.94-1.27.313-1.96-2.59-1.91-5.83.215-14.3.564-2.25.280-4.44-.735-5.67-2.55-3.07-5.33-2.4-5.33 1.28 0 3.8 3.23 16.8 5.06 20.3.691 1.34 1.66 4.66 2.15 7.39.492 2.73 1.81 5.88 2.94 7 2.16 2.16 4.58 2.73 4.43 1.04zm122-1c1.13-1.28 2.46-4.43 2.94-7 .488-2.57 1.72-6.77 2.74-9.33 5.45-13.7 5.03-25.9-.648-19-2.29 2.81-2.32 3.37-.389 8.28 1.8 4.57 1.83 5.86.222 9.66l-1.85 4.38-.684-5.33c-.659-5.13-.796-4.9-3.67 6.29-1.64 6.39-2.98 12.2-2.98 13 0 2.1 2.01 1.65 4.31-.952z" fill="#744834"/>
  <path d="m15.9 266c-.0011-4.11 9.2-21.1 14.1-26 7.24-7.24 16.3-10.8 33.9-13.4 8.43-1.22 15.7-2.47 16.2-2.78.499-.308 1.29.0591 1.76.816.468.757 1.42 1.02 2.13.589.701-.433 1.11-.0357.908.883-.663 3.02 18 15.9 36 24.7l17.7 8.73 13.4-8.9c17.1-11.4 33.6-24.5 32.7-26-.864-1.4 3.48-1.08 23.3 1.71 17.6 2.48 29.9 7.58 35.3 14.7 3.92 5.14 9.58 17.3 10.7 22.9.894 4.6 1.1 4.97-6.18-11.3-7.12-15.9-15.3-20.9-39.8-24.6l-12.7-1.9-7.33 7.04c-4.03 3.87-10.8 9.8-15 13.2-8.29 6.63-27.7 20-27.7 19.1 0-.308 6.45-5.31 14.3-11.1 7.88-5.81 18.8-14.4 24.2-19.1 8.98-7.78 9.6-8.63 7.09-9.75-2.31-1.03-4.23.109-11.9 7.1-5.05 4.58-16.9 13.5-26.4 19.9-9.48 6.35-17.1 12.3-16.9 13.2.183 0.9-.0339 1.64-.483 1.64s-9.57-4.31-20.3-9.59c-16.8-8.26-20.8-10.9-28.9-18.8-8.89-8.75-8.95-8.86-1.19-1.94 8.68 7.74 23.3 16.7 38 23.4 7.66 3.47 9.25 3.79 11.3 2.27 1.33-.972 2.12-2.05 1.75-2.4-.366-.346-8.04-4.29-17.1-8.76-18.5-9.17-25.4-13.6-32.6-21.1l-5.01-5.19-14.1 2.35c-7.78 1.29-17.1 3.32-20.6 4.5-9.83 3.27-18.6 12-25.1 24.9-3.02 6.06-5.5 10.1-5.5 8.99zm73.2-44c7.17-5.2 17.4-13.9 17.4-14.8 0-.535-3.4-3.83-7.55-7.32-14-11.8-18.1-19-19.8-35.2-.692-6.49-1.38-8.34-3.09-8.35-1.64-.0152-1.77-.295-.494-1.1 1.36-.863 1.1-3.58-1.27-13.3-2.96-12.1-5.06-15.6-5.14-8.56-.0354 3.2-.217 3.36-1.44 1.26-.994-1.71-.915-4.29.272-8.92 1.77-6.9.485-10.7-3.62-10.7-2.27 0-2.53 9.55-.370 13.6 1.07 1.99 1.07 2.49 0 1.83-2.06-1.27-1.75.762.576 3.84 1.08 1.42 1.95 3.22 1.95 4-.0037.777-1.44-.956-3.19-3.85s-2.85-6.14-2.43-7.22c.436-1.14.178-1.6-.616-1.11-.845.522-1.18-.541-.875-2.78.424-3.12.318-3.26-.766-.960-1.71 3.62-1.83.002-.198-5.7.775-2.7.775-4.06 0-3.58-1.77 1.1-1.55-1.22.296-3.06 1.17-1.17 1.13-2.04-.157-3.59-.935-1.13-1.41-3.58-1.05-5.44.357-1.87-.112-5.62-1.04-8.34-3.04-8.89-3.02-21.7.0396-24.8 1.1-1.1 2-3.26 2-4.8 0-4.56 3.42-11.4 7.17-14.4 1.92-1.51 3.49-3.49 3.49-4.4 0-5 13.1-18 15.6-15.5.431.431 1.8-1.15 3.04-3.51 3.18-6.05 14.2-13.3 19.1-12.6 2.14.314 5.95-.522 8.64-1.89 6.63-3.38 32.9-3.55 39.3-.254 2.34 1.21 6.77 2.31 9.85 2.43 7.11.296 15.8 5.88 18.7 12.1 1.54 3.24 3.09 4.62 5.19 4.62 3.59 0 10.1 6.24 12.5 11.9.928 2.24 3.72 6.23 6.2 8.86s4.62 6.1 4.74 7.69c.125 1.6.294 3.91.374 5.14.0804 1.23 1.18 3.38 2.44 4.77 2.88 3.18 3.11 16.3.433 23.9-1.02 2.9-1.55 6.88-1.18 8.84.376 1.96-.0293 4.43-0.9 5.48-1.15 1.39-1.19 2.63-.157 4.57 1.85 3.45 1.81 5.43-.0537 2.84-1.16-1.61-1.25-1.48-.495.667.519 1.47 1.23 3.87 1.57 5.33.533 2.25.388 2.35-.930.667-1.26-1.62-1.43-1.22-.870 2.06.791 4.65-.598 7.6-3.8 8.07-1.59.233-1.95-.302-1.29-1.91.504-1.23 1.23-4.78 1.61-7.9.563-4.6.291-5.67-1.45-5.67-1.18 0-3.06 1.41-4.19 3.13-1.83 2.79-1.83 3.64-.0451 7.92 1.3 3.11 1.62 5.84 0.9 7.78-1.02 2.76-1.18 2.64-2.1-1.59-.956-4.38-1.14-4.08-4.15 6.76-4.46 16-4.27 18.5 1.01 13.7 2.35-2.12 2.44-2.12 1.62.012-.479 1.25-2.3 2.63-4.06 3.07-1.75.440-3.2 1.48-3.21 2.32-.111 6.39-3.11 20.5-5.23 24.7-1.42 2.79-7.21 9.39-12.9 14.7l-10.3 9.59 3.86 4.28 3.86 4.28-4.75-4.36-4.75-4.36-5.91 2.28c-8.2 3.16-34.2 3.19-42.3.0583l-5.74-2.22-8.49 7.2c-4.67 3.96-9.88 7.86-11.6 8.67-2.97 1.41-2.96 1.37.173-.899zm40.3-32.6c1.15-8.1 1.84-9.07 6.46-9.07s5.31.966 6.46 9.07c.766 5.4 1.35 6.32 4.21 6.66 4.64.543 19.7-8.8 24.8-15.3 3.03-3.93 4.68-8.23 6.32-16.5 1.42-7.18 4.37-15.5 8.23-23.3 3.31-6.66 6.01-13.7 6.01-15.7 0-1.98.969-5.83 2.15-8.56 2.63-6.05 3.26-9.96 3.76-23.4.356-9.56.0801-10.9-3.4-16-2.09-3.08-3.8-6.94-3.82-8.59-.0133-1.65-.718-3-1.57-3-.847 0-3.51-1.5-5.91-3.33-5.36-4.09-10.1-4.23-16.2-.469-2.55 1.58-6.95 3.03-9.79 3.23-2.83.202-5.83.787-6.66 1.3-2.59 1.6-21.6 1.78-27.2.263-2.93-.796-6.41-1.3-7.73-1.12-1.32.178-5.27-1.52-8.78-3.77-7.96-5.11-10.5-5.12-16.8-.0953-2.77 2.2-5.85 4-6.85 4-.999 0-1.82 1.29-1.82 2.87s-1.41 4.73-3.14 7-3.58 5.51-4.12 7.21c-1.5 4.76-1.02 20.3.691 22.4.842 1.01 1.19 2.74.768 3.83-.420 1.09 0.4 4.55 1.82 7.68s2.59 7.19 2.59 9.03c.0012 1.83 2.74 8.73 6.08 15.3 3.96 7.81 6.55 15 7.42 20.7 1.51 9.76 5.12 18.2 9.56 22.4 5.64 5.27 18.9 12.4 22.3 12 2.86-.333 3.45-1.25 4.21-6.65zm-4.55-15.3c-5.51-1.44.006-3.08 10.3-3.08 10.9 0 15.6 1.56 9.65 3.16-3.37.903-16.4.847-20-.0857zm6.59-18.8c-2.01-2.22-1.96-3.03.770-11 3.25-9.49 4.69-7.73 2.4 2.93-1.08 5.03-1.06 7.28.0595 8.64 2.28 2.74-.713 2.22-3.23-.570zm-31.1-35.5c1.92-2.52 3.49-5.03 3.49-5.59 0-.559-1.61-2.7-3.58-4.76-3.57-3.73-3.58-3.74-.547-3.74 1.67 0 4.1 1.32 5.41 2.93l2.37 2.93 1.83-2.93c1.07-1.72 3.18-2.93 5.09-2.93h3.26l-3.58 3.74c-4.4 4.59-4.4 4.93-.182 10.5l3.4 4.46h-3.19c-2.14 0-3.71-1.14-4.77-3.47-1.3-2.86-1.93-3.18-3.55-1.84-1.08.898-1.97 2.46-1.97 3.47 0 1.09-1.41 1.84-3.49 1.84h-3.49zm52.9 3.58c.0264-.55 1.48-2.75 3.23-4.89l3.18-3.89-3.39-4.44-3.39-4.44h3.34c2.21 0 3.57.896 4.03 2.67.384 1.47 1.31 2.67 2.07 2.67.753 0 1.75-1.2 2.21-2.67.552-1.74 2.02-2.67 4.21-2.67h3.36l-3.45 4.1c-4.25 5.05-4.25 5.35-.119 9.23 1.83 1.72 3.33 3.63 3.33 4.23 0 .606-1.5 1.1-3.33 1.1-1.94 0-3.33-.766-3.33-1.84 0-1.01-.885-2.57-1.97-3.47-1.62-1.35-2.24-1.02-3.55 1.84-1.4 3.07-6.56 5.05-6.44 2.47zm-66.5-17c0-1.96 6.62-3.82 19.7-5.53 7.86-1.02 15.6-2.27 17.3-2.76 2.4-.709 2.85-.459 2.21 1.22-1.13 2.95-4.17 3.67-20.4 4.83-7.8.560-15.2 1.46-16.5 2.01-1.28.544-2.33.646-2.33.227zm95.5-.430c-.499-.499-7.43-1.34-15.4-1.86-16.5-1.09-19.5-1.8-20.7-4.77-.643-1.68-.188-1.93 2.21-1.22 1.66.491 9.48 1.74 17.4 2.76 7.9 1.03 15.7 2.8 17.3 3.93 1.62 1.13 2.31 2.06 1.54 2.06-.774 0-1.82-.408-2.32-.907zm29.8 18.9c0-.733-.582-.433-1.29.667-.711 1.1-1.29 2.6-1.29 3.33 0 .733.582.433 1.29-.667.711-1.1 1.29-2.6 1.29-3.33zm-34.7 93.9-4.62-4.1 5 3.59c4.42 3.17 5.86 4.6 4.62 4.6-.211 0-2.46-1.84-5-4.1zm25.5-75.3c.064-1.55.380-1.87.806-.806.385.962.338 2.11-.105 2.56-.443.443-.758-.344-0.7-1.75zm2.56-7.14c0-.690.593-1.62 1.32-2.07.756-.467.979.0681.524 1.25-.886 2.31-1.84 2.73-1.84.815z" fill="#025175"/>
  <path d="m89.1 222c7.17-5.2 17.4-13.9 17.4-14.8 0-.535-3.4-3.83-7.55-7.32-14-11.8-18.1-19-19.8-35.2-.692-6.49-1.38-8.34-3.09-8.35-1.64-.0152-1.77-.295-.494-1.1 1.36-.863 1.1-3.58-1.27-13.3-2.96-12.1-5.06-15.6-5.14-8.56-.0354 3.2-.217 3.36-1.44 1.26-.994-1.71-.915-4.29.272-8.92 1.77-6.9.485-10.7-3.62-10.7-2.27 0-2.53 9.55-.370 13.6 1.07 1.99 1.07 2.49 0 1.83-2.06-1.27-1.75.762.576 3.84 1.08 1.42 1.95 3.22 1.95 4-.0037.777-1.44-.956-3.19-3.85s-2.85-6.14-2.43-7.22c.436-1.14.178-1.6-.616-1.11-.845.522-1.18-.541-.875-2.78.424-3.12.318-3.26-.766-.960-1.71 3.62-1.83.002-.198-5.7.775-2.7.775-4.06 0-3.58-1.77 1.1-1.55-1.22.296-3.06 1.17-1.17 1.13-2.04-.157-3.59-.935-1.13-1.41-3.58-1.05-5.44.357-1.87-.112-5.62-1.04-8.34-3.04-8.89-3.02-21.7.0396-24.8 1.1-1.1 2-3.26 2-4.8 0-4.56 3.42-11.4 7.17-14.4 1.92-1.51 3.49-3.49 3.49-4.4 0-5 13.1-18 15.6-15.5.431.431 1.8-1.15 3.04-3.51 3.18-6.05 14.2-13.3 19.1-12.6 2.14.314 5.95-.522 8.64-1.89 6.63-3.38 32.9-3.55 39.3-.254 2.34 1.21 6.77 2.31 9.85 2.43 7.11.296 15.8 5.88 18.7 12.1 1.54 3.24 3.09 4.62 5.19 4.62 3.59 0 10.1 6.24 12.5 11.9.928 2.24 3.72 6.23 6.2 8.86s4.62 6.1 4.74 7.69c.125 1.6.294 3.91.374 5.14.0804 1.23 1.18 3.38 2.44 4.77 2.88 3.18 3.11 16.3.433 23.9-1.02 2.9-1.55 6.88-1.18 8.84.376 1.96-.0293 4.43-0.9 5.48-1.15 1.39-1.19 2.63-.157 4.57 1.85 3.45 1.81 5.43-.0537 2.84-1.16-1.61-1.25-1.48-.495.667.519 1.47 1.23 3.87 1.57 5.33.533 2.25.388 2.35-.930.667-1.26-1.62-1.43-1.22-.870 2.06.791 4.65-.598 7.6-3.8 8.07-1.59.233-1.95-.302-1.29-1.91.504-1.23 1.23-4.78 1.61-7.9.563-4.6.291-5.67-1.45-5.67-1.18 0-3.06 1.41-4.19 3.13-1.83 2.79-1.83 3.64-.0451 7.92 1.3 3.11 1.62 5.84 0.9 7.78-1.02 2.76-1.18 2.64-2.1-1.59-.956-4.38-1.14-4.08-4.15 6.76-4.46 16-4.27 18.5 1.01 13.7 2.35-2.12 2.44-2.12 1.62.012-.479 1.25-2.3 2.63-4.06 3.07-1.75.440-3.2 1.48-3.21 2.32-.111 6.39-3.11 20.5-5.23 24.7-1.42 2.79-7.21 9.39-12.9 14.7l-10.3 9.59 3.86 4.28 3.86 4.28-4.75-4.36-4.75-4.36-5.91 2.28c-8.2 3.16-34.2 3.19-42.3.0583l-5.74-2.22-8.49 7.2c-4.67 3.96-9.88 7.86-11.6 8.67-2.97 1.41-2.96 1.37.173-.899zm40.3-32.6c1.15-8.1 1.84-9.07 6.46-9.07s5.31.966 6.46 9.07c.766 5.4 1.35 6.32 4.21 6.66 4.64.543 19.7-8.8 24.8-15.3 3.03-3.93 4.68-8.23 6.32-16.5 1.42-7.18 4.37-15.5 8.23-23.3 3.31-6.66 6.01-13.7 6.01-15.7 0-1.98.969-5.83 2.15-8.56 2.63-6.05 3.26-9.96 3.76-23.4.356-9.56.0801-10.9-3.4-16-2.09-3.08-3.8-6.94-3.82-8.59-.0133-1.65-.718-3-1.57-3-.847 0-3.51-1.5-5.91-3.33-5.36-4.09-10.1-4.23-16.2-.469-2.55 1.58-6.95 3.03-9.79 3.23-2.83.202-5.83.787-6.66 1.3-2.59 1.6-21.6 1.78-27.2.263-2.93-.796-6.41-1.3-7.73-1.12-1.32.178-5.27-1.52-8.78-3.77-7.96-5.11-10.5-5.12-16.8-.0953-2.77 2.2-5.85 4-6.85 4-.999 0-1.82 1.29-1.82 2.87s-1.41 4.73-3.14 7-3.58 5.51-4.12 7.21c-1.5 4.76-1.02 20.3.691 22.4.842 1.01 1.19 2.74.768 3.83-.420 1.09 0.4 4.55 1.82 7.68s2.59 7.19 2.59 9.03c.0012 1.83 2.74 8.73 6.08 15.3 3.96 7.81 6.55 15 7.42 20.7 1.51 9.76 5.12 18.2 9.56 22.4 5.64 5.27 18.9 12.4 22.3 12 2.86-.333 3.45-1.25 4.21-6.65zm-4.55-15.3c-5.51-1.44.006-3.08 10.3-3.08 10.9 0 15.6 1.56 9.65 3.16-3.37.903-16.4.847-20-.0857zm6.59-18.8c-2.01-2.22-1.96-3.03.770-11 3.25-9.49 4.69-7.73 2.4 2.93-1.08 5.03-1.06 7.28.0595 8.64 2.28 2.74-.713 2.22-3.23-.570zm-31.1-35.5c1.92-2.52 3.49-5.03 3.49-5.59 0-.559-1.61-2.7-3.58-4.76-3.57-3.73-3.58-3.74-.547-3.74 1.67 0 4.1 1.32 5.41 2.93l2.37 2.93 1.83-2.93c1.07-1.72 3.18-2.93 5.09-2.93h3.26l-3.58 3.74c-4.4 4.59-4.4 4.93-.182 10.5l3.4 4.46h-3.19c-2.14 0-3.71-1.14-4.77-3.47-1.3-2.86-1.93-3.18-3.55-1.84-1.08.898-1.97 2.46-1.97 3.47 0 1.09-1.41 1.84-3.49 1.84h-3.49zm52.9 3.58c.0264-.55 1.48-2.75 3.23-4.89l3.18-3.89-3.39-4.44-3.39-4.44h3.34c2.21 0 3.57.896 4.03 2.67.384 1.47 1.31 2.67 2.07 2.67.753 0 1.75-1.2 2.21-2.67.552-1.74 2.02-2.67 4.21-2.67h3.36l-3.45 4.1c-4.25 5.05-4.25 5.35-.119 9.23 1.83 1.72 3.33 3.63 3.33 4.23 0 .606-1.5 1.1-3.33 1.1-1.94 0-3.33-.766-3.33-1.84 0-1.01-.885-2.57-1.97-3.47-1.62-1.35-2.24-1.02-3.55 1.84-1.4 3.07-6.56 5.05-6.44 2.47zm-66.5-17c0-1.96 6.62-3.82 19.7-5.53 7.86-1.02 15.6-2.27 17.3-2.76 2.4-.709 2.85-.459 2.21 1.22-1.13 2.95-4.17 3.67-20.4 4.83-7.8.560-15.2 1.46-16.5 2.01-1.28.544-2.33.646-2.33.227zm95.5-.430c-.499-.499-7.43-1.34-15.4-1.86-16.5-1.09-19.5-1.8-20.7-4.77-.643-1.68-.188-1.93 2.21-1.22 1.66.491 9.48 1.74 17.4 2.76 7.9 1.03 15.7 2.8 17.3 3.93 1.62 1.13 2.31 2.06 1.54 2.06-.774 0-1.82-.408-2.32-.907zm29.8 18.9c0-.733-.582-.433-1.29.667-.711 1.1-1.29 2.6-1.29 3.33 0 .733.582.433 1.29-.667.711-1.1 1.29-2.6 1.29-3.33zm-34.7 93.9-4.62-4.1 5 3.59c4.42 3.17 5.86 4.6 4.62 4.6-.211 0-2.46-1.84-5-4.1zm25.5-75.3c.064-1.55.380-1.87.806-.806.385.962.338 2.11-.105 2.56-.443.443-.758-.344-0.7-1.75zm2.56-7.14c0-.690.593-1.62 1.32-2.07.756-.467.979.0681.524 1.25-.886 2.31-1.84 2.73-1.84.815z" fill="#5f3020"/>
  <path d="m119 211c-10.2-2.48-16.9-6.5-26.3-15.8-9.6-9.55-11.5-13.7-13.9-30.4-1.09-7.5-3.43-19-5.19-25.6s-3.55-14.2-3.96-16.8c-.649-4.13-1.53-5.11-6.22-6.96-4.16-1.63-5.27-2.68-4.62-4.36.467-1.22.168-3.03-.664-4.04-.832-1-1.22-3.35-.864-5.22.357-1.87-.112-5.62-1.04-8.34-3.04-8.89-3.02-21.7.0396-24.8 1.1-1.1 2-3.26 2-4.8 0-4.56 3.42-11.4 7.17-14.4 1.92-1.51 3.49-3.49 3.49-4.4 0-5 13.1-18 15.6-15.5.431.431 1.8-1.15 3.04-3.51 3.18-6.05 14.2-13.3 19.1-12.6 2.14.314 5.95-.522 8.64-1.89 6.63-3.38 32.9-3.55 39.3-.254 2.34 1.21 6.77 2.31 9.85 2.43 7.11.296 15.8 5.88 18.7 12.1 1.54 3.24 3.09 4.62 5.19 4.62 3.59 0 10.1 6.24 12.5 11.9.928 2.24 3.72 6.23 6.2 8.86s4.62 6.1 4.74 7.69c.125 1.6.294 3.91.374 5.14.0804 1.23 1.18 3.38 2.44 4.77 2.88 3.18 3.11 16.3.433 23.9-1.02 2.9-1.55 6.88-1.18 8.84.376 1.96.001 4.39-.830 5.4-.832 1-1.15 2.78-.696 3.95.604 1.57-.607 2.7-4.66 4.32-4.04 1.62-5.65 3.11-6.17 5.71-.382 1.93-2.47 11-4.64 20.2-2.17 9.17-4.55 21.3-5.29 27-.735 5.7-2.48 12.6-3.87 15.3-2.97 5.81-17.6 20.3-23.8 23.4-11.3 5.85-30.4 7.58-45 4.06zm10-20.1c.843-6.31 3.18-9.78 6.59-9.78s5.75 3.47 6.59 9.78c.602 4.51 1.32 5.63 3.81 5.99 6.05.857 23.7-10.9 27.6-18.4 1.06-2.06 3.15-9.29 4.63-16.1 1.78-8.14 4.51-15.7 8.04-22.1 2.94-5.36 5.37-11.4 5.38-13.5.0161-2.05 1.19-6.29 2.61-9.42s2.24-6.59 1.82-7.68-.0833-2.81.748-3.81c1.59-1.91 2.09-14.9.823-21.1-.409-2-2.23-5.83-4.06-8.52-1.82-2.68-3.31-6-3.31-7.36s-.497-2.48-1.1-2.48c-.608 0-3.91-1.86-7.35-4.13l-6.24-4.13-8.81 4.25c-5.24 2.53-9.93 3.95-11.6 3.52-1.53-.399-3.58-.0550-4.57.765-2.46 2.04-27.6 1.98-30.1-.0788-1.04-.863-2.86-1.2-4.04-.744-1.23.474-4.86-.796-8.5-2.98-10.2-6.1-11.6-6.19-17.8-1.02-3 2.5-6.29 4.55-7.32 4.55s-1.87 1.1-1.87 2.44-1.84 5.22-4.09 8.61c-3.63 5.48-4.1 7.29-4.13 16.1-.0214 5.44.647 11.2 1.49 12.7.839 1.57 1.2 3.38.801 4.02-.398.644.461 3.78 1.91 6.97s2.65 7.43 2.66 9.41c.0161 1.99 2.68 8.76 5.92 15.1 3.94 7.66 6.42 14.6 7.49 21.1.883 5.29 2.71 11.8 4.06 14.5 4.52 8.93 20.8 20.3 27.9 19.5 2.82-.308 3.45-1.22 4.07-5.91zm-28-71.2c2.97-4.17 2.89-5.16-.844-10.3-2.03-2.79-2.02-3 .101-3 1.26 0 3.35 1.32 4.65 2.93l2.37 2.93 1.83-2.93c1.01-1.61 2.96-2.93 4.33-2.93 2.27 0 2.19.406-.874 4.43l-3.38 4.43 3.32 4.24c2.75 3.51 2.94 4.24 1.1 4.24-1.22 0-3.28-1.32-4.59-2.93l-2.37-2.93-1.83 2.93c-1.01 1.61-2.93 2.93-4.27 2.93-2.26 0-2.23-.290.445-4.05zm55.2 0.1 3.78-3.95-3.6-4.72-3.6-4.72h3.25c2.12 0 3.49.921 3.94 2.67.384 1.47 1.41 2.67 2.28 2.67.871 0 1.9-1.2 2.28-2.67.469-1.79 1.82-2.67 4.12-2.67h3.43l-3.76 3.92c-3.82 3.99-3.81 5.08.0675 10.4 2.07 2.85 2.04 3-.558 3-1.57 0-3.1-1.14-3.59-2.67-.466-1.47-1.4-2.67-2.08-2.67-.678 0-1.98 1.2-2.9 2.67-.916 1.47-2.83 2.67-4.26 2.67-2.3 0-2.17-.442 1.19-3.95zm-68.1-13c0-1.93 7.34-4 19.3-5.43 7.36-.883 14.4-2.06 15.7-2.61 3.37-1.45 2.93 1.53-.498 3.37-1.56.833-8.91 1.83-16.3 2.22-7.43.390-14.6 1.25-15.8 1.91-1.28.662-2.33.903-2.33.537zm93.3-.624c-1.1-.614-8.56-1.47-16.6-1.9-12.6-.678-14.9-1.17-17.3-3.68l-2.77-2.9 3.33.970c1.83.533 9.36 1.72 16.7 2.64 11.8 1.48 19.3 3.58 19.3 5.45 0 .813-.287.750-2.67-.577z" fill="#2a232a"/>
  <path d="m125 212c-5.44-.910-16.4-4.67-20-6.85-5.91-3.59-18.8-16.7-21.5-21.9-1.43-2.76-3.18-9.66-3.89-15.3-1.1-8.74-7.21-37.1-10.4-48.3-.621-2.17-2.38-3.7-5.18-4.5-2.33-.669-4.53-1.98-4.89-2.92-.504-1.31.167-1.28 2.92.163 1.97 1.03 4.36 1.87 5.31 1.87 2.07.01 5.6 7.91 5.6 12.5 0 4.64 1.32 7.49 3.48 7.49 2.41 0 2.36-.762-.799-11-1.46-4.73-4.01-10.1-5.67-11.8-2.64-2.85-2.96-4.39-2.58-12.6.326-7.07-.0545-9.79-1.54-11-1.71-1.42-1.53-2.09 1.36-4.98 2.83-2.83 3.27-4.33 2.88-9.94-.252-3.63-.0895-6.6.360-6.6 2.49.0025 7.76-7.52 8.55-12.2.659-3.9 1.31-4.98 2.37-3.92 2.66 2.66 6.55 1.52 11-3.21 3.87-4.11 4.49-4.37 5.18-2.2 1.79 5.63 13.9 7.4 18.9 2.74l2.97-2.79 1.65 3.13c3.63 6.9 9.67 7.13 12.8.492 2.05-4.29 2.33-4.45 3.93-2.18 2.77 3.95 9.35 6.13 13.2 4.37 1.8-.820 3.27-2.5 3.27-3.73 0-2.08.168-2.08 2.44-.0286 3.74 3.38 11.7 2.84 15.6-1.07 1.89-1.89 3.27-2.54 3.27-1.54 0 4.63 11.1 9.61 16.6 7.49 2.92-1.11 3.06-.952 2.1 2.41-1.44 5 0.5 9.34 4.64 10.4 2.48.624 3.08 1.29 2.06 2.31-3.85 3.85.209 12.9 5.78 12.9 2.14 0 2.1.378-.438 4.49-3.3 5.34-3.6 10.9-.659 12 1.79.687 1.57 1.46-1.45 5.05-2.58 3.06-3.37 5.21-2.87 7.73.488 2.44-.0156 3.94-1.67 4.97-3.37 2.1-6.79 9.95-6.79 15.6 0 4.72 1.61 6.26 3.44 3.29.513-.830 1.6-4.82 2.41-8.87.814-4.05 2.38-7.83 3.48-8.41 7.41-3.89 10.4-4.86 9.79-3.15-.373.971-2.42 2.15-4.55 2.62-4.62 1.01-5.46 2.19-6.65 9.26-.498 2.96-2.46 11.2-4.37 18.4-1.9 7.14-4.08 17.9-4.83 23.9-.753 6.01-2.61 13.5-4.13 16.6-3.42 7.06-17.5 20.4-25.4 24.2-9.91 4.66-25.7 6.69-37.1 4.78zm31.5-5.98c17.9-6.58 30.1-22.8 33.8-44.8.881-5.31 2.7-13.3 4.05-17.7 2.4-7.93 2.4-8.06-.118-7.26-1.62.514-2.61.166-2.69-.944-.446-6.07.685-13.2 2.89-18.2 1.4-3.2 2.23-6.33 1.83-6.97-.395-.638-.0312-2.44.808-4.01s1.51-7.34 1.49-12.8c-.0329-8.4-.572-10.8-3.41-15.1-1.85-2.8-3.75-6.49-4.22-8.2-.771-2.83-12.5-11.8-15.5-11.8-.675 0-4.32 1.57-8.1 3.49s-9.01 3.73-11.6 4.03c-16.1 1.85-27.2 2.35-31 1.4-2.4-.598-6.42-1.33-8.91-1.63-2.5-.296-6.7-1.95-9.33-3.67-2.64-1.72-5.9-3.55-7.26-4.05-3.28-1.22-17.7 8.04-18.8 12.1-.444 1.63-2.24 5.07-3.99 7.65-4.19 6.18-5.93 21.3-3.09 26.9 1.06 2.11 1.68 4.54 1.37 5.41-.311.867.353 3.35 1.47 5.52 2.43 4.69 4.74 18.2 3.47 20.2-.492.796-1.89 1.06-3.11.596-2.03-.781-2.06-.399-.276 4.65 1.07 3.02 3.14 11.8 4.6 19.5 4.2 22.2 13.2 35.7 28.8 43.4 13.7 6.74 32.3 7.65 46.8 2.31zm-43-11c-13.5-7.65-19.2-15.9-21.9-31.1-1.05-6-3.72-14.8-5.93-19.5-2.22-4.73-3.74-8.61-3.38-8.61 1.78 0 9.8 19.8 11.2 27.5.847 4.87 2.66 11 4.04 13.7 4.86 9.53 20.5 20.6 27.8 19.8 2.74-.317 3.76-1.34 4.41-4.41.787-3.71.860-3.75 1.01-.6.341 7.34-7.33 8.75-17.2 3.16zm28.9 2.55c-.489-.489-.829-2.44-.756-4.33l.133-3.44.920 3.33c1.86 6.75 12 4.19 23.8-6.02 7.24-6.24 9.44-10.6 12.5-24.6 1.36-6.24 4.09-14.5 6.06-18.4 5.11-10.1 6.4-9.99 1.66.151-2.19 4.68-4.64 12-5.44 16.4-3.38 18.2-9.89 28-22.9 34.5-6.49 3.23-14.2 4.43-16.1 2.51zm-9.66-9.9c-2.48-2.73-2.47-2.82.0482-4.67 3.3-2.42 5.32-2.38 7.41.145 1.38 1.66 1.25 2.5-.710 4.67-3 3.31-3.64 3.3-6.75-.145zm-30.6-68 3.49-4.15-3.44-4.51c-3.23-4.23-3.28-4.51-.799-4.51 1.47 0 3.02 1.18 3.49 2.67.466 1.47 1.76 2.67 2.88 2.67s2.35-1.2 2.73-2.67c0.4-1.53 1.82-2.67 3.33-2.67 2.44 0 2.38 0.3-.831 4.11-3.6 4.28-3.51 5.23.988 10.2 2.46 2.73 2.49 3 .349 3-1.29 0-3.47-1.35-4.83-3l-2.48-3-2.14 3c-1.18 1.65-3.06 3-4.19 3-1.52 0-1.16-1.05 1.45-4.15zm54.6.261c3.91-4.08 3.81-5.1-.994-10.4-2.46-2.73-2.49-3-.349-3 1.29 0 3.51 1.35 4.94 3l2.58 3 2.13-3c1.17-1.65 3.03-3 4.13-3 1.72 0 1.7.414-.181 3-3.73 5.13-3.81 6.12-.844 10.3 2.3 3.23 2.47 4.05.867 4.05-1.11 0-2.98-1.35-4.16-3l-2.14-3-2.48 3c-1.36 1.65-3.54 3-4.85 3-1.96 0-1.72-.673 1.36-3.89zm-99.9-28.6c0-1.83.303-2.58.673-1.67.370.917.370 2.42 0 3.33-.370.917-.673.167-.673-1.67zm160-8.6c.372-5.87.894-10.9 1.16-11.2.924-1.06.214 15.2-.809 18.6-.565 1.83-.723-1.47-.352-7.33zm-161-3.4c0-4.77.242-6.72.538-4.33.296 2.38.296 6.28 0 8.67-.296 2.38-.538.433-.538-4.33zm3.68-15.4c.0640-1.55.380-1.87.806-.806.385.962.338 2.11-.105 2.56-.443.443-.758-.344-0.7-1.75zm150-8.6c-1.23-2.9-1.99-5.27-1.7-5.27.978 0 4.77 8.16 4.35 9.36-.228.650-1.42-1.19-2.65-4.09zm-146-2.6c.785-1.47 1.73-2.67 2.09-2.67.367 0 .0244 1.2-.760 2.67-.785 1.47-1.73 2.67-2.09 2.67-.367 0-.0244-1.2.760-2.67zm9.05-12.8c1.59-2.94 9.42-10.7 9.94-9.8.191.313-2.28 3.22-5.49 6.47-3.21 3.24-5.21 4.74-4.45 3.33zm123-4c-2.99-3.24-5.01-5.9-4.49-5.9 1.02 0 10.6 10.2 10.6 11.3 0 1.09-.443.699-6.1-5.44zm-15-12.4c-2.34-2.81-6.39-6.13-9-7.37-5.62-2.67-6.33-3.99-1.09-2.02 3.92 1.48 11.7 8.38 13.8 12.2 1.93 3.55.930 2.79-3.74-2.83zm-90.3-.4c2.49-3.85 6.79-7.06 12.2-9.12 2.25-.855 3.12-.843 2.58.0361-.452.731-1.7 1.33-2.77 1.33s-4.74 2.55-8.14 5.67c-4.61 4.22-5.6 4.75-3.88 2.09zm28.1-12.4c5.5-2.65 30.5-2.65 36 0 3.03 1.46 3.19 1.69.667.940-4.33-1.28-33-1.28-37.3 0-2.52.746-2.36.517.667-.940z" fill="#130e13"/>
 </g>
</svg>
