<?xml version="1.0" encoding="UTF-8" standalone="no"?>
<svg xmlns:rdf="http://www.w3.org/1999/02/22-rdf-syntax-ns#" xmlns="http://www.w3.org/2000/svg" height="267" viewBox="0 0 266.66666 266.66666" width="267" version="1.1" xmlns:cc="http://creativecommons.org/ns#" xmlns:dc="http://purl.org/dc/elements/1.1/">
 <g stroke-width="1.33">
  <path d="m14.8 262c5.68-14.9 13.8-24.6 24.7-29.4 6.34-2.8 36.4-8.09 40.2-7.08 2.75.718 15.5-7.82 21.6-14.4l3.04-3.32-5.36-3.72c-7.57-5.25-15.9-14.6-18.8-21.2-1.36-3.08-2.89-9.49-3.38-14.2-.810-7.75-1.32-8.9-5.07-11.3-2.91-1.88-4.82-4.7-6.32-9.33-1.18-3.65-4.33-10.7-7-15.8-4.72-8.86-6.15-16.4-3.61-19 1.28-1.31.366-10.4-2.58-25.6-1.78-9.18-.993-16.5 2.04-19 1.08-.897 1.96-3.08 1.96-4.85 0-3.81 4.83-13.8 6.67-13.8.706 0 2.76-2.92 4.57-6.49 3.53-6.97 10.2-13.5 13.9-13.5 1.23-.0047 3.23-1.76 4.45-3.91 3.53-6.2 12.6-12.1 18.7-12.1 2.86 0 7.12-1.02 9.47-2.27 6.12-3.26 33.1-3.26 39.2 0 2.35 1.25 6.61 2.27 9.47 2.27 6.04 0 15.2 5.87 18.7 12 1.21 2.11 3.52 4.17 5.12 4.58 4.44 1.12 10.6 6.84 12.5 11.7.960 2.4 3.68 6.54 6.03 9.21 2.36 2.67 4.7 6.87 5.21 9.33.507 2.47 2.15 7.09 3.65 10.3 2.53 5.36 2.6 6.49 1.04 15.3-3.08 17.4-3.81 25.4-2.54 27.8 1.77 3.31-.904 14.1-4.97 20-1.85 2.69-4.4 8.39-5.67 12.7-1.74 5.87-3.31 8.43-6.42 10.4-3.69 2.39-4.22 3.57-5.05 11.3-.509 4.77-2.02 11.2-3.36 14.2-2.85 6.53-11.1 15.9-18.7 21.1-2.95 2.05-5.2 4.2-4.99 4.78.206.582 4.51 4.35 9.55 8.36 6.06 4.82 10.4 7.28 12.7 7.22 1.92-.0465 6.79.563 10.8 1.35 4.03.791 10.6 1.84 14.7 2.34 21.4 2.63 32.7 12 40.1 33.5l2.43 7.06h-240zm129-87c2.42-2.04 4.1-4.73 4.1-6.56 0-2.95-.255-3.04-5-1.72-2.75.764-8.73 1.43-13.3 1.47-6.54.0675-7.99.442-6.89 1.78.773.931 1.04 2.29.584 3.02-1.23 1.99 5.91 5.34 11.5 5.4 3.38.0368 6.17-1.02 9-3.4zm-16.2-2.82c1.66-.319 4.06-.307 5.33.0269s-.0822.595-3.02.580c-2.93-.0148-3.98-.288-2.32-.607zm-27-47.1c.464-.752.0499-1.2-.921-1-1.24.257-1.72-1.13-1.61-4.63.121-3.96-.340-5-2.22-5-4.38 0-6.59 1.59-6.59 4.73 0 5.02 9 9.7 11.4 5.9zm74-1.3c3.04-3.04 3.37-5.43 1.07-7.73-2.65-2.65-12.7-1.55-11 1.21 1.15 1.86 3.52 1.4 2.46-.473-.736-1.3-.545-1.3.873.0186 1.43 1.33 1.5 2.53.311 5.67-1.34 3.56-1.23 3.98 1.05 3.98 1.4 0 3.75-1.2 5.22-2.67zm-57-2c1.12-2.09.813-2.99-1.58-4.67-4.18-2.92-4.68-2.68-5.29 2.59-.481 4.12-.191 4.67 2.47 4.67 1.66 0 3.64-1.16 4.4-2.59zm39.4-2.61v-5.2l-3.58 1.85c-1.97 1.02-3.97 2.48-4.45 3.25-1.27 2.05 1.91 5.28 5.19 5.28 2.41 0 2.84-.785 2.84-5.2zm-48-2.8c-.453-.733-1.42-1.33-2.16-1.33-.733 0-.963.6-.509 1.33.453.733 1.42 1.33 2.16 1.33.733 0 .963-.6.509-1.33z" fill="#3386ac"/>
  <path d="m14.2 265c3.11-13 13.8-26.6 25.2-31.7 6.09-2.76 29.1-7.22 40.3-7.81 4.25-.225 14.4-6.9 21-13.8l3.71-3.9-5.37-3.72c-7.58-5.25-15.9-14.6-18.8-21.2-1.36-3.08-2.89-9.49-3.38-14.2-.810-7.75-1.32-8.9-5.07-11.3-2.91-1.88-4.82-4.7-6.32-9.33-1.18-3.65-4.33-10.7-7-15.8-4.72-8.86-6.15-16.4-3.61-19 1.28-1.31.366-10.4-2.58-25.6-1.78-9.18-.993-16.5 2.04-19 1.08-.897 1.96-3.08 1.96-4.85 0-3.81 4.83-13.8 6.67-13.8.706 0 2.76-2.92 4.57-6.49 3.53-6.97 10.2-13.5 13.9-13.5 1.23-.0047 3.23-1.76 4.45-3.91 3.53-6.2 12.6-12.1 18.7-12.1 2.86 0 7.12-1.02 9.47-2.27 6.12-3.26 33.1-3.26 39.2 0 2.35 1.25 6.61 2.27 9.47 2.27 6.04 0 15.2 5.87 18.7 12 1.21 2.11 3.52 4.17 5.12 4.58 4.44 1.12 10.6 6.84 12.5 11.7.960 2.4 3.68 6.54 6.03 9.21 2.36 2.67 4.7 6.87 5.21 9.33.507 2.47 2.15 7.09 3.65 10.3 2.53 5.36 2.6 6.49 1.04 15.3-3.08 17.4-3.81 25.4-2.54 27.8 1.77 3.31-.904 14.1-4.97 20-1.85 2.69-4.4 8.39-5.67 12.7-1.74 5.87-3.31 8.43-6.42 10.4-3.69 2.39-4.22 3.57-5.05 11.3-.509 4.77-2.02 11.2-3.36 14.2-2.85 6.51-11.1 15.9-18.7 21.1-2.93 2.03-5.33 4.09-5.33 4.57 0 .486 4.18 4.15 9.28 8.15 9.72 7.61 9.99 7.7 31.4 10.6 22.3 3 32.1 7.49 39.3 18 3.62 5.26 9.35 18.9 9.35 22.2 0 3.24-2.46.398-3.94-4.54-4.18-14-12.1-24.3-21.8-28.3-2.78-1.16-10.9-2.99-18-4.06-15.2-2.28-17.3-2.4-15.5-.812.697.635 6.97 1.9 13.9 2.8 15.3 1.99 24 5.45 29.5 11.8 4.13 4.7 11.8 19.4 11.8 22.6.00084 1.32-24.4 1.67-117 1.67h-117zm16.3-19.8c6.58-6.58 13.7-9.49 29.7-12.1 8.66-1.42 13-2.67 12.2-3.5-1.68-1.68-23.2 2.22-31.2 5.64-3.26 1.4-8.1 4.71-10.7 7.36-4.7 4.7-12.8 17.4-12.8 20.1 0 .733 1.8-1.8 3.99-5.63 2.2-3.83 6.19-9.15 8.87-11.8zm79.1 5.5c0-.348-1.8-1.56-4-2.7-5.01-2.59-5.32-1.47-.333 1.24 4.19 2.27 4.33 2.32 4.33 1.46zm58-6.78c4.4-3.12 10.1-7.82 12.6-10.5 2.71-2.83 5.99-4.87 8-4.98 3.24-.173 3.25-.210.332-.769-2.22-.424-4.68.895-8.87 4.75-3.19 2.94-9.6 8.14-14.3 11.6-13.7 10.1-12.1 10 2.2-.107zm-84.7-11.9c-4.02-4.15-10.8-6.75-8.67-3.33.453.733 1.88 1.33 3.18 1.33s3.76 1.5 5.49 3.33c1.72 1.83 3.44 3.33 3.83 3.33.383 0-1.34-2.1-3.83-4.67zm61.2-57.5c2.42-2.04 4.1-4.73 4.1-6.56 0-2.95-.255-3.04-5-1.72-2.75.764-8.73 1.43-13.3 1.47-6.54.0675-7.99.442-6.89 1.78.773.931 1.04 2.29.584 3.02-1.23 1.99 5.91 5.34 11.5 5.4 3.38.0368 6.17-1.02 9-3.4zm-16.2-2.82c1.66-.319 4.06-.307 5.33.0269s-.0822.595-3.02.580c-2.93-.0148-3.98-.288-2.32-.607zm-27-47.1c.464-.752.0499-1.2-.921-1-1.24.257-1.72-1.13-1.61-4.63.157-5.17-1.49-6.19-6.71-4.19-2.71 1.04-2.72 6.39-.0138 9.1 2.36 2.36 7.98 2.8 9.26.729zm74-1.3c3.04-3.04 3.37-5.43 1.07-7.73-2.65-2.65-12.7-1.55-11 1.21 1.15 1.86 3.52 1.4 2.46-.473-.736-1.3-.545-1.3.873.0186 1.43 1.33 1.5 2.53.311 5.67-1.34 3.56-1.23 3.98 1.05 3.98 1.4 0 3.75-1.2 5.22-2.67zm-57-1c1.12-2.09.813-2.99-1.58-4.67-4.18-2.92-4.68-2.68-5.29 2.59-.481 4.12-.191 4.67 2.47 4.67 1.66 0 3.64-1.16 4.4-2.59zm39.4-2.62c0-2.86-.3-5.09-.667-4.94-4.4 1.77-8 4.22-8 5.44 0 2.37 2.94 4.71 5.93 4.71 2.29 0 2.73-.847 2.73-5.21zm-47.3-2.79c0-.733-.935-1.33-2.08-1.33s-1.71.6-1.25 1.33c.453.733 1.39 1.33 2.08 1.33s1.25-.6 1.25-1.33z" fill="#92614a"/>
  <path d="m14.2 265c3.11-13 13.8-26.6 25.2-31.7 6.11-2.77 29.1-7.22 40.4-7.82 4.3-.226 10.5-4.01 19.8-12.1l5.33-4.62-4.67-3.62c-7.29-5.66-17-15.9-19.3-20.4-1.17-2.27-2.84-8.98-3.71-14.9-1.08-7.43-2.2-11-3.61-11.5-4.14-1.45-6.77-4.89-7.57-9.91-.453-2.83-2.87-8.54-5.36-12.7-5.2-8.63-7.77-18-5.9-21.5 1.28-2.4.486-10.9-2.6-27.7-1.62-8.81-1.55-9.82 1.05-15.3 1.53-3.24 3.2-7.92 3.7-10.4.507-2.47 2.85-6.67 5.21-9.33 2.36-2.67 5.07-6.81 6.03-9.21 2-4.99 8.1-10.6 12.8-11.8 1.78-.446 3.23-1.3 3.23-1.9 0-.598 1.58-2.96 3.5-5.25 4.36-5.18 12.9-9.66 17.6-9.22 1.95.186 5.65-.786 8.21-2.16 6.56-3.51 31.5-3.52 39.3-.022 2.93 1.31 6.93 2.27 8.88 2.12 5.28-.407 14.1 4.65 18.2 10.5 1.99 2.82 5.6 5.84 8.02 6.73 4.22 1.54 12.3 10.7 12.3 14 0 .853 1.81 3.29 4.03 5.41s4.7 6.29 5.52 9.25c.819 2.96 2.71 8.05 4.21 11.3 2.7 5.86 2.7 6.01.249 18-1.36 6.65-2.43 17.2-2.37 23.4.106 12.1-.726 15.5-5.61 22.7-1.74 2.57-4.17 8.19-5.4 12.5-1.81 6.32-2.95 8.1-5.89 9.21-3.34 1.26-3.76 2.23-4.99 11.5-.738 5.59-2.39 12.4-3.67 15.1-2.53 5.34-10.3 14-18.7 20.8l-5.33 4.33 5.33 4.67c8.86 7.76 15.2 11.6 19.7 11.8 8.88.564 27.2 3.49 34.3 5.47 14.1 3.94 22.7 12.6 28.1 28.1 2.89 8.39 3.09 9.77 1.46 9.77-.617 0-1.88-2.55-2.82-5.67-4.18-14-12.1-24.3-21.8-28.3-2.78-1.16-10.9-2.99-18-4.06-15.2-2.28-17.3-2.4-15.5-.812.697.635 6.97 1.9 13.9 2.8 15.3 1.99 24 5.45 29.5 11.8 4.13 4.7 11.8 19.4 11.8 22.6.00084 1.32-24.4 1.67-117 1.67h-119zm16.3-19.8c6.58-6.58 13.7-9.49 29.7-12.1 8.66-1.42 13-2.67 12.2-3.5-1.68-1.68-23.2 2.22-31.2 5.64-3.26 1.4-8.1 4.71-10.7 7.36-4.7 4.7-12.8 17.4-12.8 20.1 0 .733 1.8-1.8 3.99-5.63 2.2-3.83 6.19-9.15 8.87-11.8zm114 9.54c4.13-2.52 9.61-6.19 12.2-8.16l4.67-3.57-6.67.726c-7.76.845-11.9 2.44-17 6.48-3.27 2.63-3.87 2.72-6 .904-3.89-3.3-27.6-10.4-29.2-8.74-.513.513 31.6 16.8 33.3 16.9.637.0403 4.54-1.99 8.67-4.51zm-34.5-4.05c0-.348-1.8-1.56-4-2.7-5.01-2.59-5.32-1.47-.333 1.24 4.19 2.27 4.33 2.32 4.33 1.46zm58-6.78c4.4-3.12 10.1-7.82 12.6-10.5 2.71-2.83 5.99-4.87 8-4.98 3.24-.173 3.25-.210.332-.769-2.22-.424-4.68.895-8.87 4.75-3.19 2.94-9.6 8.14-14.3 11.6-13.7 10.1-12.1 10 2.2-.107zm-29.6 3.52c3.12-1.19 7.56-9.35 9.67-17.8 1.5-5.99 3.02-5.4 1.83.715-1.88 9.7-2.32 9.29 9.13 8.24 9.49-.878 10.9-1.4 16.8-6.36l6.48-5.4-3.81-2.76c-2.1-1.52-7.02-5.36-10.9-8.54-8.31-6.75-9.86-6.69-21.4.775-9.88 6.4-14.5 6.4-24.5-.0133-12-7.74-12.3-7.72-25.5 2.26-6.38 4.82-12.3 8.76-13.1 8.76-.832 0 1.96 2.7 6.21 6 6.91 5.37 8.46 6 14.7 6 3.85 0 8.97.393 11.4.874l4.37.874-.870-5.54c-2.5-15.9-2.19-17 1.65-5.43 4.88 14.6 6.14 16.9 9.81 17.6 1.65.318 3.41.660 3.92.760.502.0999 2.36-.367 4.12-1.04zm-55.1-16c-4.02-4.15-10.8-6.75-8.67-3.33.453.733 1.88 1.33 3.18 1.33s3.76 1.5 5.49 3.33c1.72 1.83 3.44 3.33 3.83 3.33.383 0-1.34-2.1-3.83-4.67zm42.8-36.7c.592-1.1 1.42-4.71 1.85-8.03.767-6 .794-6.03 6.03-6.03 5.23 0 5.27.0332 6.06 6.03 1.07 8.05 1.54 9.29 3.81 10.2 2.91 1.12 9.85-2.69 18.8-10.3 9.72-8.29 10.8-10.2 13.3-23.4 1.18-6.29 4.06-14.6 7.29-21.1 2.93-5.87 5.73-13.1 6.21-16 .482-2.93 1.51-6.53 2.28-8 2.52-4.79 4.02-14.5 3.87-25.1-.123-9.02-.606-11.1-3.55-14.9-1.87-2.46-3.41-5.68-3.41-7.16 0-1.76-1.6-3.45-4.61-4.88-2.53-1.2-5.31-3.03-6.16-4.06-2.2-2.65-6.48-2.32-11.8.897-8.44 5.15-33 7.86-46.8 5.17-4.03-.784-10.7-3.19-14.9-5.35-4.16-2.16-8.28-3.93-9.14-3.93-.863 0-3.76 1.7-6.43 3.78s-5.91 4.16-7.19 4.62c-1.28.465-2.33 1.88-2.33 3.15s-1.58 4.58-3.5 7.36c-3.07 4.43-3.51 6.42-3.58 16.1-.0430 6.06.609 13.4 1.45 16.3.840 2.93 2.68 9.64 4.09 14.9s4.45 12.9 6.76 16.9c2.49 4.35 5.28 12.3 6.87 19.6 3.44 15.7 5.05 18.7 14.3 26.1 11.8 9.46 18 11.6 20.4 7.2zm-4.89-21.6c-.570-.965-1.88-3.07-2.9-4.68-1.71-2.67-1.63-2.91.859-2.72 1.84.138 3 1.45 3.56 4.02.929 4.23.0881 6.1-1.52 3.38zm27.4-7.71c0-1.44 1.24-3.28 2.75-4.09 2.69-1.44 2.7-1.38.632 2.62-2.45 4.74-3.38 5.14-3.38 1.47zm-21.4-7.87-3.07-2.49 2.85-7.44c1.57-4.09 3.29-11.2 3.83-15.8l.983-8.41 1.2 5.33c.662 2.93.844 10.4.404 16.5-.536 7.5-.299 11.8.719 13 2.39 2.88-3.21 2.34-6.92-.657zm-25.4-29.6c-1.01-.641-3.08-1.18-4.59-1.19-1.51-.0112-3.91-.902-5.33-1.98-2.36-1.78-2.22-1.82 1.55-.449 4.32 1.58 8.53.811 8.53-1.55 0-.756-.714-1.23-1.59-1.04-2.66.558-2.8-4.36-.215-7.22 2.41-2.66 2.38-2.68-2.88-1.73-6.79 1.23-7.31 1.56-7.31 4.7 0 2.25-.353 2.38-2.61.967-2.4-1.5-2.44-1.82-.491-3.98 1.17-1.29 3.25-2.7 4.63-3.14 1.38-.438 2.17-1.35 1.75-2.03-.421-.681.435-1.24 1.9-1.24 1.47 0 3.09-.683 3.6-1.52 1.57-2.53-8.95-.032-13.4 3.2l-4 2.87 2.14-3.28c3.18-4.88 7.5-6.45 21.8-7.94 7.11-.737 14.1-1.99 15.6-2.78 1.48-.793 3.02-1.12 3.41-.725 1.48 1.48-1.01 4.92-4.58 6.32-3.48 1.36-3.55 1.54-1.15 2.98 7.98 4.79 9.81 11.6 4.45 16.5-4.85 4.44-17 6.89-21.2 4.26zm17.2-7.36c.298-2.09-.784-3.38-4.2-5-7.27-3.45-11.9-2.33-7 1.71 1.44 1.19 2.06 1.15 2.68-.170.445-.947.511.265.146 2.69-.644 4.29-.539 4.4 3.65 4 3.21-.310 4.42-1.14 4.72-3.23zm34 7.43c-13.4-2.91-16.2-14.9-4.59-20.1l3.89-1.72-4.16-2.08c-4.6-2.3-7.06-7.97-2.64-6.08 2.48 1.06 7.79 2.01 25.1 4.52 7.5 1.08 9.94 2.05 12.4 4.9 1.69 1.96 2.69 3.93 2.23 4.39-.459.459-1.41-.186-2.11-1.43-1.9-3.39-14.5-6.61-14.5-3.71 0 .733 1.65 1.34 3.67 1.35 2.74.0153 3.18.329 1.74 1.24-1.52.960-1.17 1.41 1.61 2.11 5.26 1.32 7.08 4.05 4.45 6.69-1.95 1.95-2.13 1.91-2.13-.578 0-2.05-1.35-3.07-5.5-4.19-6.34-1.71-9.43-.152-6.56 3.31.932 1.12 2.23 1.71 2.88 1.31 2.51-1.55 1.03 3.47-1.82 6.14l-3 2.82 4-.888c2.2-.488 5.2-1.21 6.67-1.6s2.26-.281 1.77.241c-2.51 2.67-17 4.73-23.4 3.33zm5.97-4.87c-2.68-.701-3.14-5.74-.733-8.15 2.12-2.12.651-2.02-4.98.332-2.96 1.24-4.62 2.84-4.62 4.44 0 3.65 1.15 4.31 7.22 4.14 2.99-.0851 4.39-.429 3.11-.764zm-85.3 27.7c-.734-2.89-2.6-6.34-4.14-7.67l-2.81-2.41 2.31 3.67c1.27 2.02 1.7 3.67.948 3.67-2.18 0-1.58 2.45 1.3 5.33 3.68 3.68 3.91 3.42 2.38-2.59zm124 .431c.901-1.98.975-3.01.181-2.51-1.75 1.08-1.7-.134.141-3.75l1.48-2.91-2.69 2.67c-3.42 3.39-5.43 11.7-2.57 10.6 1.06-.406 2.61-2.24 3.45-4.08zm-132-26c.665-2.84.490-2.74-1.17.667-1.07 2.2-1.92 5.5-1.88 7.33.0703 3.07.164 3.01 1.17-.667.603-2.2 1.45-5.5 1.88-7.33zm135 .384c-1.45-2.27-1.49-2.26-.761.0588.422 1.34.815 3.14.873 4 .076 1.12.288 1.11.761-.0588.361-.889-.032-2.69-.873-4zm3.4-6.77c-2.07-2.07-3.09 2.15-1.64 6.82l1.58 5.1.417-5.57c.229-3.07.0692-5.92-.356-6.35zm-141 1.25c-1.38-3.6-3.77.569-2.7 4.7l.979 3.76 1.24-3.25c.681-1.79.897-4.14.479-5.22z" fill="#1c769f"/>
  <path d="m13.6 267c-.0011-4.11 9.2-21.1 14.1-26 2.76-2.76 8.08-6.4 11.8-8.09 5.76-2.6 28.1-6.86 41-7.8 3.74-.273 10.2-4.39 19.1-12.1l5.33-4.62-4.67-3.62c-7.29-5.66-17-15.9-19.3-20.4-1.17-2.27-2.84-8.98-3.71-14.9-1.08-7.43-2.2-11-3.61-11.5-4.14-1.45-6.77-4.89-7.57-9.91-.453-2.83-2.87-8.54-5.36-12.7-5.2-8.63-7.77-18-5.9-21.5 1.28-2.4.486-10.9-2.6-27.7-1.62-8.81-1.55-9.82 1.05-15.3 1.53-3.24 3.2-7.92 3.7-10.4.507-2.47 2.85-6.67 5.21-9.33 2.36-2.67 5.07-6.81 6.03-9.21 2-4.99 8.1-10.6 12.8-11.8 1.78-.446 3.23-1.3 3.23-1.9 0-.598 1.58-2.96 3.5-5.25 4.36-5.18 12.9-9.66 17.6-9.22 1.95.186 5.65-.786 8.21-2.16 6.56-3.51 31.5-3.52 39.3-.022 2.93 1.31 6.93 2.27 8.88 2.12 5.28-.407 14.1 4.65 18.2 10.5 1.99 2.82 5.6 5.84 8.02 6.73 4.22 1.54 12.3 10.7 12.3 14 0 .853 1.81 3.29 4.03 5.41s4.7 6.29 5.52 9.25c.819 2.96 2.71 8.05 4.21 11.3 2.7 5.86 2.7 6.01.249 18-1.36 6.65-2.43 17.2-2.37 23.4.106 12.1-.726 15.5-5.61 22.7-1.74 2.57-4.17 8.19-5.4 12.5-1.81 6.32-2.95 8.1-5.89 9.21-3.34 1.26-3.76 2.23-4.99 11.5-.738 5.59-2.39 12.4-3.67 15.1-2.53 5.34-10.3 14-18.7 20.8l-5.33 4.33 5.33 4.67c8.46 7.41 15.2 11.6 19.1 11.9 1.98.142 10.5 1.23 18.9 2.43 17.6 2.49 29.9 7.6 35.3 14.7 3.92 5.14 9.58 17.3 10.7 22.9.894 4.6 1.1 4.97-6.18-11.3-7.12-15.9-15.3-20.9-39.8-24.6l-12.7-1.9-7.33 7.04c-4.03 3.87-10.8 9.8-15 13.2-8.29 6.63-27.7 20-27.7 19.1 0-.308 6.45-5.31 14.3-11.1 7.88-5.81 18.8-14.4 24.2-19.1 8.98-7.78 9.6-8.63 7.09-9.75-2.31-1.03-4.23.109-11.9 7.1-5.05 4.58-16.9 13.5-26.4 19.9-9.48 6.35-17.1 12.3-16.9 13.2.183 0.9-.0339 1.64-.483 1.64s-9.57-4.31-20.3-9.59c-16.8-8.26-20.8-10.9-28.9-18.8-8.89-8.75-8.95-8.86-1.19-1.94 8.68 7.74 23.3 16.7 38 23.4 7.66 3.47 9.25 3.79 11.3 2.27 1.33-.972 2.12-2.05 1.75-2.4-.366-.346-8.04-4.29-17.1-8.76-18.5-9.17-25.4-13.6-32.6-21.1l-5.01-5.19-14.1 2.35c-7.78 1.29-17.1 3.32-20.6 4.5-9.83 3.27-18.6 12-25.1 24.9-3.02 6.06-5.5 10.1-5.5 8.99zm130-12c4.13-2.52 9.61-6.19 12.2-8.16l4.67-3.57-6.67.726c-7.76.845-11.9 2.44-17 6.48-3.27 2.63-3.87 2.72-6 .904-3.89-3.3-27.6-10.4-29.2-8.74-.513.513 31.6 16.8 33.3 16.9.637.0403 4.54-1.99 8.67-4.51zm-6.13-7.3c3.12-1.19 7.56-9.35 9.67-17.8 1.5-5.99 3.02-5.4 1.83.715-1.88 9.7-2.32 9.29 9.13 8.24 9.49-.878 10.9-1.4 16.8-6.36l6.48-5.4-3.81-2.76c-2.1-1.52-7.02-5.36-10.9-8.54-8.31-6.75-9.86-6.69-21.4.775-9.88 6.4-14.5 6.4-24.5-.0133-12-7.74-12.3-7.72-25.5 2.26-6.38 4.82-12.3 8.76-13.1 8.76-.832 0 1.96 2.7 6.21 6 6.91 5.37 8.46 6 14.7 6 3.85 0 8.97.393 11.4.874l4.37.874-.870-5.54c-2.5-15.9-2.19-17 1.65-5.43 4.88 14.6 6.14 16.9 9.81 17.6 1.65.318 3.41.660 3.92.760.502.0999 2.36-.367 4.12-1.04zm-12.2-52.1c.592-1.1 1.42-4.71 1.85-8.03.767-6 .794-6.03 6.03-6.03 5.23 0 5.27.0332 6.06 6.03 1.07 8.05 1.54 9.29 3.81 10.2 2.91 1.12 9.85-2.69 18.8-10.3 9.72-8.29 10.8-10.2 13.3-23.4 1.18-6.29 4.06-14.6 7.29-21.1 2.93-5.87 5.73-13.1 6.21-16 .482-2.93 1.51-6.53 2.28-8 2.52-4.79 4.02-14.5 3.87-25.1-.123-9.02-.606-11.1-3.55-14.9-1.87-2.46-3.41-5.68-3.41-7.16 0-1.76-1.6-3.45-4.61-4.88-2.53-1.2-5.31-3.03-6.16-4.06-2.2-2.65-6.48-2.32-11.8.897-8.44 5.15-33 7.86-46.8 5.17-4.03-.784-10.7-3.19-14.9-5.35-4.16-2.16-8.28-3.93-9.14-3.93-.863 0-3.76 1.7-6.43 3.78s-5.91 4.16-7.19 4.62c-1.28.465-2.33 1.88-2.33 3.15s-1.58 4.58-3.5 7.36c-3.07 4.43-3.51 6.42-3.58 16.1-.0430 6.06.609 13.4 1.45 16.3.840 2.93 2.68 9.64 4.09 14.9s4.45 12.9 6.76 16.9c2.49 4.35 5.28 12.3 6.87 19.6 3.44 15.7 5.05 18.7 14.3 26.1 11.8 9.46 18 11.6 20.4 7.2zm-4.89-21.6c-.570-.965-1.88-3.07-2.9-4.68-1.71-2.67-1.63-2.91.859-2.72 1.84.138 3 1.45 3.56 4.02.929 4.23.0881 6.1-1.52 3.38zm27.4-7.71c0-1.44 1.24-3.28 2.75-4.09 2.69-1.44 2.7-1.38.632 2.62-2.45 4.74-3.38 5.14-3.38 1.47zm-21.4-7.87-3.07-2.49 2.85-7.44c1.57-4.09 3.29-11.2 3.83-15.8l.983-8.41 1.2 5.33c.662 2.93.844 10.4.404 16.5-.536 7.5-.299 11.8.719 13 2.39 2.88-3.21 2.34-6.92-.657zm-25.4-29.6c-1.01-.641-3.08-1.18-4.59-1.19-1.51-.0112-3.91-.902-5.33-1.98-2.36-1.78-2.22-1.82 1.55-.449 4.32 1.58 8.53.811 8.53-1.55 0-.756-.714-1.23-1.59-1.04-2.66.558-2.8-4.36-.215-7.22 2.41-2.66 2.38-2.68-2.88-1.73-6.79 1.23-7.31 1.56-7.31 4.7 0 2.25-.353 2.38-2.61.967-2.4-1.5-2.44-1.82-.491-3.98 1.17-1.29 3.25-2.7 4.63-3.14 1.38-.438 2.17-1.35 1.75-2.03-.421-.681.435-1.24 1.9-1.24 1.47 0 3.09-.683 3.6-1.52 1.57-2.53-8.95-.032-13.4 3.2l-4 2.87 2.14-3.28c3.18-4.88 7.5-6.45 21.8-7.94 7.11-.737 14.1-1.99 15.6-2.78 1.48-.793 3.02-1.12 3.41-.725 1.48 1.48-1.01 4.92-4.58 6.32-3.48 1.36-3.55 1.54-1.15 2.98 7.98 4.79 9.81 11.6 4.45 16.5-4.85 4.44-17 6.89-21.2 4.26zm17.2-7.36c.298-2.09-.784-3.38-4.2-5-7.27-3.45-11.9-2.33-7 1.71 1.44 1.19 2.06 1.15 2.68-.170.445-.947.511.265.146 2.69-.644 4.29-.539 4.4 3.65 4 3.21-.310 4.42-1.14 4.72-3.23zm34 7.43c-13.4-2.91-16.2-14.9-4.59-20.1l3.89-1.72-4.16-2.08c-4.6-2.3-7.06-7.97-2.64-6.08 2.48 1.06 7.79 2.01 25.1 4.52 7.5 1.08 9.94 2.05 12.4 4.9 1.69 1.96 2.69 3.93 2.23 4.39-.459.459-1.41-.186-2.11-1.43-1.9-3.39-14.5-6.61-14.5-3.71 0 .733 1.65 1.34 3.67 1.35 2.74.0153 3.18.329 1.74 1.24-1.52.960-1.17 1.41 1.61 2.11 5.26 1.32 7.08 4.05 4.45 6.69-1.95 1.95-2.13 1.91-2.13-.578 0-2.05-1.35-3.07-5.5-4.19-6.34-1.71-9.43-.152-6.56 3.31.932 1.12 2.23 1.71 2.88 1.31 2.51-1.55 1.03 3.47-1.82 6.14l-3 2.82 4-.888c2.2-.488 5.2-1.21 6.67-1.6s2.26-.281 1.77.241c-2.51 2.67-17 4.73-23.4 3.33zm5.97-4.87c-2.68-.701-3.14-5.74-.733-8.15 2.12-2.12.651-2.02-4.98.332-2.96 1.24-4.62 2.84-4.62 4.44 0 3.65 1.15 4.31 7.22 4.14 2.99-.0851 4.39-.429 3.11-.764zm-85.3 27.7c-.734-2.89-2.6-6.34-4.14-7.67l-2.81-2.41 2.31 3.67c1.27 2.02 1.7 3.67.948 3.67-2.18 0-1.58 2.45 1.3 5.33 3.68 3.68 3.91 3.42 2.38-2.59zm124 .431c.901-1.98.975-3.01.181-2.51-1.75 1.08-1.7-.134.141-3.75l1.48-2.91-2.69 2.67c-3.42 3.39-5.43 11.7-2.57 10.6 1.06-.406 2.61-2.24 3.45-4.08zm-132-27c.665-2.84.490-2.74-1.17.667-1.07 2.2-1.92 5.5-1.88 7.33.0703 3.07.164 3.01 1.17-.667.603-2.2 1.45-5.5 1.88-7.33zm135 .384c-1.45-2.27-1.49-2.26-.761.0588.422 1.34.815 3.14.873 4 .076 1.12.288 1.11.761-.0588.361-.889-.032-2.69-.873-4zm3.4-6.77c-2.07-2.07-3.09 2.15-1.64 6.82l1.58 5.1.417-5.57c.229-3.07.0692-5.92-.356-6.35zm-141 1.25c-1.38-3.6-3.77.569-2.7 4.7l.979 3.76 1.24-3.25c.681-1.79.897-4.14.479-5.22z" fill="#8d5b45"/>
  <path d="m13.6 267c-.0011-4.11 9.2-21.1 14.1-26 2.76-2.76 8.08-6.4 11.8-8.09 6.43-2.9 33.5-7.86 40.8-7.46 2.23.125 6.77-2.5 13.7-7.93 5.72-4.46 10.2-8.58 10-9.14-.222-.562-4-4.01-8.4-7.65-4.4-3.65-9.76-9.17-11.9-12.3-3.88-5.6-7.34-18-7.39-26.5-.0212-3.31-.607-4.33-2.49-4.33-3.48 0-6.49-3.84-7.57-9.65-.509-2.74-2.98-8.4-5.49-12.6-5.2-8.64-7.45-16.8-5.82-21.1 1.15-3.02.310-11.7-2.71-28.1-1.62-8.81-1.55-9.82 1.05-15.3 1.53-3.24 3.2-7.92 3.7-10.4.507-2.47 2.85-6.67 5.21-9.33 2.36-2.67 5.07-6.81 6.03-9.21 2-4.99 8.1-10.6 12.8-11.8 1.78-.446 3.23-1.3 3.23-1.9 0-.598 1.58-2.96 3.5-5.25 4.36-5.18 12.9-9.66 17.6-9.22 1.95.186 5.65-.786 8.21-2.16 6.56-3.51 31.5-3.52 39.3-.022 2.93 1.31 6.93 2.27 8.88 2.12 5.28-.407 14.1 4.65 18.2 10.5 1.99 2.82 5.6 5.84 8.02 6.73 4.22 1.54 12.3 10.7 12.3 14 0 .853 1.81 3.29 4.03 5.41s4.7 6.29 5.52 9.25c.819 2.96 2.71 8.05 4.21 11.3 2.68 5.83 2.69 6.06.316 17.8-1.32 6.54-2.48 17.7-2.57 24.8-.157 12.1-.442 13.3-4.39 19.5-2.32 3.65-5.24 10.2-6.48 14.5-1.82 6.32-2.96 8.1-5.9 9.21-3.34 1.26-3.76 2.23-4.99 11.5-.738 5.59-2.39 12.4-3.67 15.1-2.54 5.36-10.4 14.1-18.6 20.7-5.07 4.06-5.17 4.29-2.9 6.8 4.76 5.26 18 13.9 21.7 14.2 2.08.144 10.7 1.24 19.1 2.43 17.6 2.49 29.9 7.6 35.3 14.7 3.92 5.14 9.58 17.3 10.7 22.9.894 4.6 1.1 4.97-6.18-11.3-7.12-15.9-15.3-20.9-39.8-24.6l-12.7-1.9-7.33 7.04c-4.03 3.87-10.8 9.8-15 13.2-8.29 6.63-27.7 20-27.7 19.1 0-.308 6.45-5.31 14.3-11.1 7.88-5.81 18.8-14.4 24.2-19.1 8.98-7.78 9.6-8.63 7.09-9.75-2.31-1.03-4.23.109-11.9 7.1-5.05 4.58-16.9 13.5-26.4 19.9-9.48 6.35-17.1 12.3-16.9 13.2.183 0.9-.0339 1.64-.483 1.64s-9.57-4.31-20.3-9.59c-16.8-8.26-20.8-10.9-28.9-18.8-8.89-8.75-8.95-8.86-1.19-1.94 8.68 7.74 23.3 16.7 38 23.4 7.66 3.47 9.25 3.79 11.3 2.27 1.33-.972 2.12-2.05 1.75-2.4-.366-.346-8.04-4.29-17.1-8.76-18.5-9.17-25.4-13.6-32.6-21.1l-5.01-5.19-14.1 2.35c-7.78 1.29-17.1 3.32-20.6 4.5-9.83 3.27-18.6 12-25.1 24.9-3.02 6.06-5.5 10.1-5.5 8.99zm139-18c11.3-7.55 11-8.23-2.78-5.35l-8.13 1.7 2.79-6.24c2.55-5.71 2.83-5.93 3.19-2.67.393 3.53.485 3.56 9.33 3.05 9.26-.537 15-3.25 21.5-10.1l2.89-3.08-10-7.56c-5.53-4.16-10-8.12-10-8.8 0-1.79-10 2-17.6 6.65-8.22 5.06-12.6 5.02-21.4-.190-3.88-2.3-9.07-4.87-11.5-5.73-4.19-1.46-4.76-1.28-9.33 2.93-2.68 2.47-8.2 6.72-12.3 9.44l-7.39 4.95 6.31 5.29c6.53 5.48 11.6 6.91 25.3 7.17l6.12.117-1.04-6.33c-1.75-10.6-1.23-10.8 2.06-.628 1.73 5.34 3.95 10.7 4.94 11.9 1.57 1.93 1.49 2.1-.579 1.32-6.36-2.38-27.3-6.85-26-5.54.420.420 8.78 4.89 18.6 9.94 17.3 8.9 17.9 9.11 21.1 7.03 1.83-1.18 8.13-5.35 14-9.26zm-22.7.891c-.482-.78.901-1.33 3.33-1.33s3.82.553 3.33 1.33c-.453.733-1.95 1.33-3.33 1.33s-2.88-.6-3.33-1.33zm-4.93-53.6c.88-.88 1.6-3.47 1.6-5.75 0-5.23 2.3-8.17 7.03-8.99 4.4-.764 4.94-.0632 6.09 7.92 1.2 8.33 3.6 9.59 11.2 5.89 7.53-3.65 17.7-12.5 20.4-17.7 1.12-2.17 2.9-8.55 3.95-14.2 1.11-5.95 4-14.4 6.89-20.1 2.73-5.45 6.06-13.8 7.38-18.7 1.32-4.82 3.1-11.2 3.95-14.1.846-2.93 1.47-10.3 1.38-16.5-.133-9.63-.613-11.8-3.58-16.1-1.89-2.72-3.43-5.87-3.43-7.01 0-2.21-12.2-10.5-15.5-10.5-1.08 0-4.93 1.51-8.58 3.35-3.64 1.85-8.27 3.24-10.3 3.09-2.02-.146-4.89.397-6.38 1.21-3.48 1.89-23.9 1.92-28.5.0420-1.91-.786-4.68-1.32-6.14-1.18-1.47.138-5.54-1.57-9.05-3.8-7.88-5-9.8-5.03-15.6-.282-2.55 2.07-5.69 4.15-6.97 4.62-1.28.472-2.33 1.89-2.33 3.16s-1.58 4.58-3.5 7.36c-3.07 4.43-3.51 6.42-3.58 16.1-.0430 6.06.612 13.4 1.46 16.3.844 2.93 2.5 9.23 3.68 14s2.73 9.75 3.44 11.1c6.67 12.5 9.22 18.9 10.6 26.9.878 5.13 2.69 11.5 4.04 14.2 2.94 5.83 12.6 14.6 20.3 18.4 6.48 3.21 7.81 3.36 10 1.17zm-6.27-25.9c-1.56-1.98-2.61-3.83-2.34-4.1 1.14-1.14 4.84 1.35 5.61 3.79 1.31 4.13-.158 4.27-3.27.310zm29.5-4.43c.205-1.78 1.12-3.48 2.04-3.78 2.27-.747 2.1 1.28-.373 4.42-1.97 2.51-2.03 2.49-1.67-.641zm-19-6.63c-4.41-1.22-4.75-4.68-1.4-14.6 1.51-4.47 2.79-10.7 2.85-13.8.112-5.6.140-5.63 1.41-1.71.713 2.2.962 9.34.553 15.9-.493 7.85-.239 12.5.752 13.7 1.61 1.94.983 2.04-4.16.615zm-36.5-33c-1.18-.750-.0662-1.09 3.19-.986 2.99.0984 5.24-.521 5.6-1.54.328-.940-.174-1.54-1.12-1.33-2.76.604-2.99-4.25-.340-7.18 2.41-2.66 2.38-2.68-2.88-1.73-6.87 1.24-7.31 1.55-7.31 4.98 0 2.71-.127 2.75-2.29.588-2.13-2.13-2.14-2.44-.0677-4.5 1.31-1.31 5.38-2.53 9.95-2.97l7.73-.755-6-.869c-5.68-.823-5.61-.850 1.33-.515 10.1.487 18.3 3.16 20.6 6.77 1.79 2.73 1.74 3.33-.526 6.12l-2.51 3.1.660-3.45c.557-2.91-.0665-3.8-3.99-5.66-7.31-3.47-11.9-2.37-7.04 1.69 1.44 1.19 2.06 1.15 2.68-.170.445-.947.519.228.163 2.61-.506 3.39-.171 4.33 1.54 4.33 1.2 0 1.84.354 1.4.786-1.33 1.33-18.9 1.92-20.8.703zm62.5-.155c-3.1-.994-3.01-1.09 1.33-1.36 2.57-.158 3.62-.562 2.33-.897-2.68-.701-3.14-5.74-.733-8.15 2.12-2.12.651-2.02-4.98.332-3.35 1.4-4.62 2.77-4.62 4.95 0 2.87-.119 2.9-2.31.710-4.99-4.99 4.33-11.1 18.3-12 6.24-.412 7.17-.299 3.33.405l-5.33.977 5.73 0.2c5.25.183 13.6 3.25 13.6 5 0 0.4-.9 1.63-2 2.73-1.78 1.78-2 1.7-2-.711 0-2.05-1.35-3.07-5.5-4.19-6.34-1.71-9.43-.152-6.56 3.31.932 1.12 2.23 1.71 2.88 1.31 2.48-1.53 1.05 3.45-1.74 6.04-3.04 2.83-6.11 3.19-11.7 1.39zm13 .450c.917-.370 2.42-.370 3.33 0 .917.370.167.673-1.67.673-1.83 0-2.58-.303-1.67-.673zm-84.8-16c1.27-3.81 8.81-6.52 21.4-7.72 7-.662 13.9-1.85 15.4-2.65 3.53-1.89 4.21-1.82 4.21.391 0 4-4.37 5.4-19.4 6.22-11.1.607-16 1.44-18.7 3.18-2.52 1.65-3.42 1.83-3.01.572zm97.3-.850c-2.12-1.42-7.88-2.34-18.2-2.9-15-.820-19.4-2.22-19.4-6.22 0-2.22.683-2.28 4.21-.391 1.49.795 8.35 1.98 15.2 2.63 11.9 1.12 19.3 3.45 21.3 6.67 1.45 2.34.155 2.43-3.14.216zm-105 47c0-1.97-3.45-10-5.19-12.1-1.18-1.41-1.39-2.12-.478-1.59 1.98 1.16 2.14-.387.333-3.18-.939-1.45-1.3-1.52-1.31-.255-.0116.991-.695 1.33-1.58.781-1.1-.677-1.26-.205-.537 1.59.563 1.4 1.32 4.35 1.68 6.55.659 4.02 3.86 8.67 5.96 8.67.620 0 1.13-.210 1.13-.468zm122-2.5c2.32-3.32 2.8-6.97.740-5.7-.735.454-.008-1.42 1.61-4.17s2.29-4.59 1.48-4.09c-1.89 1.17-3.08-1.92-2.29-5.95.612-3.12.610-3.12-.806.118-.780 1.79-1.12 4.02-.763 4.96.361.941.0828 2.07-.619 2.5-.701.433-1.27 1.5-1.25 2.38.012.954.536.790 1.31-.412.791-1.22 1.3-1.38 1.31-0.4.0107.880-.827 2.08-1.86 2.67-2.32 1.31-4.38 11.1-2.34 11.1.773 0 2.34-1.33 3.48-2.96zm-128-19c.455-1.19.232-1.72-.524-1.25-.725.448-1.32 1.38-1.32 2.07 0 1.92.956 1.5 1.84-.815zm-2.61-11.3c.693-2.9.526-2.81-1.27.667l-2.07 4 .827-3.98c.455-2.19.931-4.55 1.06-5.25.127-.703-.896-1.52-2.27-1.82-2.18-.472-2.4.0379-1.67 3.92.458 2.46 1.25 6.86 1.77 9.8l.937 5.33.952-4.67c.523-2.57 1.31-6.17 1.75-8zm139-1c.143-6.11-1.54-7.35-3.93-2.88-1.12 2.1-1.05 4.27.278 8.78 1.55 5.26 1.88 5.61 2.65 2.88.482-1.71.935-5.66 1.01-8.78zm-2.43 4.22c.064-1.55.380-1.87.806-.806.385.962.338 2.11-.105 2.56-.443.443-.758-.344-0.7-1.75z" fill="#845037"/>
  <path d="m13.6 267c-.0011-4.11 9.2-21.1 14.1-26 2.76-2.76 8.08-6.4 11.8-8.09 6.35-2.87 33.6-7.88 40.6-7.46 3.31.203 10.9-4.55 19.6-12.3l5.33-4.75-4.67-3.63c-7.36-5.72-17-15.9-19.4-20.5-1.2-2.32-2.87-9.26-3.71-15.4-1.2-8.82-1.99-11.2-3.69-11.2-3.09 0-6.13-3.92-7.23-9.33-.521-2.57-2.38-7.28-4.14-10.5-1.75-3.2-2.85-6.36-2.44-7.03.415-.671-.0408-1.05-1.01-.853-1.06.220-1.73-.802-1.67-2.57.0543-1.61-.365-2.65-.932-2.3s-1.01-5.23-.986-12.4c.0254-7.43-.855-16.8-2.05-21.7-2.72-11.3-2.66-14.4.383-20.4 1.38-2.71 2.92-7.08 3.41-9.69.491-2.62 2.85-6.97 5.24-9.68s5.14-6.88 6.1-9.28c2-4.99 8.1-10.6 12.8-11.8 1.78-.446 3.23-1.3 3.23-1.9 0-.598 1.58-2.96 3.5-5.25 4.36-5.18 12.9-9.66 17.6-9.22 1.95.186 5.65-.786 8.21-2.16 6.56-3.51 31.5-3.52 39.3-.022 2.93 1.31 6.93 2.27 8.88 2.12 5.28-.407 14.1 4.65 18.2 10.5 1.99 2.82 5.6 5.84 8.02 6.73 4.22 1.54 12.3 10.7 12.3 14 0 .853 1.81 3.29 4.03 5.41s4.7 6.29 5.52 9.25c.819 2.96 2.7 8.03 4.19 11.3 2.65 5.77 2.66 6.11.390 18.7-3.98 22-4.43 25.4-3.26 24.7 1.29-0.8 1.49 6.64.296 11.1-.440 1.64-1.26 2.7-1.83 2.35-.567-.351-.949.406-.848 1.68.101 1.28-.606 2.16-1.58 1.95-.971-.202-1.44.160-1.04.803.397.643-.453 3.47-1.89 6.29s-2.97 7.05-3.42 9.42c-.871 4.64-4.94 9.86-7.7 9.86-1.13 0-2.18 3.53-3.08 10.4-.754 5.71-2.42 12.6-3.7 15.3-2.55 5.37-10.4 14.1-18.7 20.7l-5.26 4.22 3.16 3.36c5.21 5.54 17.1 13.1 21 13.4 2.02.143 10.6 1.24 19 2.43 17.6 2.49 29.9 7.6 35.3 14.7 3.92 5.14 9.58 17.3 10.7 22.9.894 4.6 1.1 4.97-6.18-11.3-7.12-15.9-15.3-20.9-39.8-24.6l-12.7-1.9-7.33 7.04c-4.03 3.87-10.8 9.8-15 13.2-8.29 6.63-27.7 20-27.7 19.1 0-.308 6.45-5.31 14.3-11.1 7.88-5.81 18.8-14.4 24.2-19.1 8.98-7.78 9.6-8.63 7.09-9.75-2.31-1.03-4.23.109-11.9 7.1-5.05 4.58-16.9 13.5-26.4 19.9-9.48 6.35-17.1 12.3-16.9 13.2.183 0.9-.0339 1.64-.483 1.64s-9.57-4.31-20.3-9.59c-16.8-8.26-20.8-10.9-28.9-18.8-8.89-8.75-8.95-8.86-1.19-1.94 8.68 7.74 23.3 16.7 38 23.4 7.66 3.47 9.25 3.79 11.3 2.27 1.33-.972 2.12-2.05 1.75-2.4-.366-.346-8.04-4.29-17.1-8.76-18.5-9.17-25.4-13.6-32.6-21.1l-5.01-5.19-14.1 2.35c-7.78 1.29-17.1 3.32-20.6 4.5-9.83 3.27-18.6 12-25.1 24.9-3.02 6.06-5.5 10.1-5.5 8.99zm140-18c17.2-11.6 29.5-22.3 27.1-23.3-2.07-.880-18.2-13.7-19.1-15.2-.391-.631-3.39-.150-6.67 1.07-8.27 3.08-34.3 3.09-42.5.0223l-5.89-2.19-6.47 5.82c-3.56 3.2-9.06 7.45-12.2 9.46l-5.75 3.64 4.78 4.22c2.63 2.32 6.88 5.67 9.44 7.45 7.95 5.52 39.2 21.1 40.6 20.3.756-.435 8.27-5.46 16.7-11.2zm-26.6-57.2c.915-7.83 1.99-9.33 6.66-9.33 4.37 0 6.62 3.02 6.66 8.91.0356 6.54 1.67 7.8 7.75 5.98 7.6-2.28 20.7-12.3 23.3-17.9 1.23-2.6 3.2-9.42 4.37-15.2 1.17-5.75 4.37-15 7.11-20.5 2.73-5.5 6-13.9 7.25-18.7 1.25-4.77 2.97-11.1 3.81-14 .839-2.93 1.46-10.3 1.37-16.5-.133-9.63-.613-11.8-3.58-16.1-1.89-2.72-3.43-5.86-3.43-6.98 0-2.31-11.9-10.5-15.2-10.5-1.21 0-5.22 1.54-8.93 3.41-3.71 1.88-8.04 3.26-9.62 3.08-1.59-.186-4.99.325-7.55 1.14-6.12 1.93-20.8 1.96-26.7.0429-2.57-.834-5.89-1.37-7.38-1.2-1.49.173-5.39-1.5-8.67-3.72-3.27-2.22-7-4.04-8.27-4.06-3.57-.0374-17 9.57-17 12.2 0 1.25-1.59 4.17-3.53 6.47-3.23 3.84-3.52 5.16-3.48 15.8.0577 13.7.662 18.5 2.81 22.5.872 1.63 2.18 6.13 2.91 10 .727 3.87 3.72 11.8 6.65 17.7 3.28 6.56 6.09 14.7 7.3 21.2 2.13 11.4 5.85 18.2 12.9 23.4 7.98 5.9 15.1 9.4 18.4 9.05 2.89-.302 3.43-1.15 4.03-6.35zm-7.9-20.8c-1.56-1.98-2.61-3.83-2.34-4.1 1.14-1.14 4.84 1.35 5.61 3.79 1.31 4.13-.158 4.27-3.27.310zm29.5-4.43c.205-1.78 1.12-3.48 2.04-3.78 2.27-.747 2.1 1.28-.373 4.42-1.97 2.51-2.03 2.49-1.67-.641zm-19.7-8.65c-2.48-1.81-2.49-2.08-.248-8.33 1.27-3.55 2.35-9.46 2.4-13.1.0647-4.95.382-5.98 1.23-4 1.58 3.67 1.6 12.4.0442 17.8-.844 2.94-.828 5.36.0469 6.99 1.58 2.96.0869 3.23-3.48.622zm-35.5-32c-1.18-.750-.0662-1.09 3.19-.986 2.99.0984 5.24-.521 5.6-1.54.328-.940-.174-1.54-1.12-1.33-2.76.604-2.99-4.25-.340-7.18 2.41-2.66 2.38-2.68-2.88-1.73-6.82 1.23-7.31 1.56-7.31 4.78 0 2.49-.159 2.52-2.19.493s-2.03-2.35.0395-4.42c1.6-1.6 5.14-2.36 12.5-2.68 9.03-.398 10.9-.0701 14.9 2.66 2.51 1.71 4.84 3.96 5.19 5 .365 1.11-.632.724-2.41-.934-3.07-2.86-10.2-5.19-11.6-3.78-.419.419.0212 1.7.978 2.86 1.4 1.68 1.98 1.75 2.97.366.804-1.13.972-.230.484 2.6-.590 3.43-.290 4.33 1.44 4.33 1.2 0 1.84.354 1.4.786-1.33 1.33-18.9 1.92-20.8.703zm63.1-.155-4-1.02 4.67-.312c2.57-.172 3.62-.587 2.33-.922-2.72-.711-3.12-5.72-.667-8.3 1.36-1.43 1.06-1.58-1.67-.794-1.83.525-4.67 1.79-6.29 2.82-2.55 1.61-2.86 1.6-2.23-.0359 1.33-3.46 9.28-6.11 18.3-6.11 7.52 0 9.24.474 12.5 3.44 2.06 1.89 3.04 3.09 2.18 2.65-.861-.435-1.84.267-2.18 1.56-.474 1.82-.648 1.68-.768-.599-.119-2.28-1.41-3.29-5.66-4.43-6.34-1.71-9.43-.152-6.56 3.31.932 1.12 2.23 1.71 2.88 1.31 2.48-1.53 1.05 3.45-1.74 6.04-3.07 2.86-4.56 3.04-11.1 1.39zm12.3.450c.917-.370 2.42-.370 3.33 0 .917.370.167.673-1.67.673-1.83 0-2.58-.303-1.67-.673zm-84.8-16c1.33-4.16 8.66-6.75 22.4-7.95 7.5-.651 14.3-1.83 15.1-2.62 2.02-2.02 3.57-1.79 3.57.527 0 3.65-6.99 5.69-21.7 6.31-11.6.499-14.9 1.09-17.2 3.17-2.08 1.85-2.7 2-2.24.565zm98.1-.942c-1.69-1.69-5.88-2.39-18.1-3.01-15.9-.805-20.2-2.15-20.2-6.23 0-2.2 1.59-2.38 3.57-.398.791.791 7.49 1.96 14.9 2.61 12.6 1.1 20.2 3.38 22.3 6.7 1.5 2.43-.0873 2.64-2.41.324zm-106 47c-.0504-.55-1.48-6.4-3.18-13-2.13-8.29-3.38-11.3-4.06-9.65-.536 1.29-.637 3.69-.225 5.33.738 2.93.717 2.94-1.27.313-1.96-2.59-1.91-5.83.215-14.3.564-2.25.280-4.44-.735-5.67-2.55-3.07-5.33-2.4-5.33 1.28 0 3.8 3.23 16.8 5.06 20.3.691 1.34 1.66 4.66 2.15 7.39.492 2.73 1.81 5.88 2.94 7 2.16 2.16 4.58 2.73 4.43 1.04zm122-1.33c1.13-1.28 2.46-4.43 2.94-7 .488-2.57 1.72-6.77 2.74-9.33 5.45-13.7 5.03-25.9-.648-19-2.29 2.81-2.32 3.37-.389 8.28 1.8 4.57 1.83 5.86.222 9.66l-1.85 4.38-.684-5.33c-.659-5.13-.796-4.9-3.67 6.29-1.64 6.39-2.98 12.2-2.98 13 0 2.1 2.01 1.65 4.31-.952z" fill="#5e5755"/>
  <path d="m13.6 267c-.0011-4.11 9.2-21.1 14.1-26 2.76-2.76 8.08-6.4 11.8-8.09 6.35-2.87 33.6-7.88 40.6-7.46 3.31.202 10.9-4.53 19.6-12.3l5.33-4.74-6.66-5.73c-15.7-13.5-19-19-21-34.6-1.08-8.45-1.77-10.4-3.62-10.4-3.21 0-6.24-3.85-7.35-9.33-.521-2.57-2.38-7.28-4.14-10.5-1.75-3.2-2.85-6.36-2.44-7.03.415-.671-.0408-1.05-1.01-.853-1.06.220-1.73-.802-1.67-2.57.0543-1.61-.396-2.63-1-2.25-1.71 1.06-1.29-12.1.445-13.8 1.17-1.17 1.13-2.04-.157-3.59-.935-1.13-1.41-3.58-1.05-5.44.357-1.87-.112-5.62-1.04-8.34-3.04-8.89-3.02-21.7.0396-24.8 1.1-1.1 2-3.26 2-4.8 0-4.56 3.42-11.4 7.17-14.4 1.92-1.51 3.49-3.6 3.49-4.63 0-4.57 13.3-17.6 15.6-15.3.439.439 1.81-1.14 3.06-3.5 3.18-6.05 14.2-13.3 19.1-12.6 2.14.314 5.95-.522 8.64-1.89 6.63-3.38 32.9-3.55 39.3-.254 2.34 1.21 6.77 2.31 9.85 2.43 7.05.294 14.9 5.35 18.4 11.8 1.72 3.19 3.56 4.85 5.39 4.85 3.42 0 10.4 6.62 12.6 12 .905 2.19 3.68 6.13 6.16 8.76s4.62 6.1 4.74 7.69c.125 1.6.294 3.91.374 5.14.0804 1.23 1.18 3.38 2.44 4.77 2.89 3.2 3.11 16.3.389 24-1.05 2.97-1.58 6.63-1.18 8.15.396 1.51.250 3.81-.326 5.11-1.42 3.18-1.63 8.33-.316 7.52 1.24-.765 1.39 6.81.224 11.2-.440 1.64-1.26 2.7-1.83 2.35-.567-.351-.949.406-.848 1.68.101 1.28-.606 2.16-1.58 1.95-.971-.202-1.44.160-1.04.803.397.643-.453 3.47-1.89 6.29s-2.97 7.05-3.42 9.42c-.901 4.8-4.97 9.86-7.94 9.86-1.07 0-1.96.75-1.97 1.67-.103 6.48-3.09 20.6-5.23 24.9-1.42 2.79-7.21 9.38-12.9 14.7l-10.3 9.58 3.08 3.28c5.14 5.47 17 13 21 13.3 2.02.143 10.6 1.24 19 2.43 17.6 2.49 29.9 7.6 35.3 14.7 3.92 5.14 9.58 17.3 10.7 22.9.894 4.6 1.1 4.97-6.18-11.3-7.12-15.9-15.3-20.9-39.8-24.6l-12.7-1.9-7.33 7.04c-4.03 3.87-10.8 9.8-15 13.2-8.29 6.63-27.7 20-27.7 19.1 0-.308 6.45-5.31 14.3-11.1 7.88-5.81 18.8-14.4 24.2-19.1 8.98-7.78 9.6-8.63 7.09-9.75-2.31-1.03-4.23.109-11.9 7.1-5.05 4.58-16.9 13.5-26.4 19.9-9.48 6.35-17.1 12.3-16.9 13.2.183 0.9-.0339 1.64-.483 1.64s-9.57-4.31-20.3-9.59c-16.8-8.26-20.8-10.9-28.9-18.8-8.89-8.75-8.95-8.86-1.19-1.94 8.68 7.74 23.3 16.7 38 23.4 7.66 3.47 9.25 3.79 11.3 2.27 1.33-.972 2.12-2.05 1.75-2.4-.366-.346-8.04-4.29-17.1-8.76-18.5-9.17-25.4-13.6-32.6-21.1l-5.01-5.19-14.1 2.35c-7.78 1.29-17.1 3.32-20.6 4.5-9.83 3.27-18.6 12-25.1 24.9-3.02 6.06-5.5 10.1-5.5 8.99zm136-15c7.23-4.81 17.8-12.4 23.4-16.9 9.05-7.19 9.97-8.31 7.83-9.58-3.46-2.06-18.7-14.1-19.5-15.5-.391-.631-3.39-.150-6.67 1.07-8.32 3.1-34.3 3.09-42.6-.012l-5.99-2.23-4.68 4.49c-2.57 2.47-8.15 6.89-12.4 9.83l-7.71 5.34 5.71 4.57c3.14 2.51 7.77 6.02 10.3 7.79 4.66 3.28 35.8 19.5 38 19.7.664.0845 7.12-3.79 14.4-8.6zm-22.9-60.6c.915-7.83 1.99-9.33 6.66-9.33 4.37 0 6.62 3.02 6.66 8.91.0356 6.54 1.67 7.8 7.75 5.98 7.6-2.28 20.7-12.3 23.3-17.9 1.23-2.6 3.2-9.42 4.37-15.2 1.17-5.75 4.37-15 7.11-20.5 2.73-5.5 6-13.9 7.25-18.7 1.25-4.77 2.97-11.1 3.81-14 .839-2.93 1.46-10.3 1.37-16.5-.133-9.63-.613-11.8-3.58-16.1-1.89-2.72-3.43-5.86-3.43-6.98 0-2.31-11.9-10.5-15.2-10.5-1.21 0-5.22 1.54-8.93 3.41-3.71 1.88-8.04 3.26-9.62 3.08-1.59-.186-4.99.325-7.55 1.14-6.12 1.93-20.8 1.96-26.7.0429-2.57-.834-5.89-1.37-7.38-1.2-1.49.173-5.39-1.5-8.67-3.72-3.27-2.22-7-4.04-8.27-4.06-3.57-.0374-17 9.57-17 12.2 0 1.25-1.59 4.17-3.53 6.47-3.23 3.84-3.52 5.16-3.48 15.8.0577 13.7.662 18.5 2.81 22.5.872 1.63 2.18 6.13 2.91 10 .727 3.87 3.72 11.8 6.65 17.7 3.28 6.56 6.09 14.7 7.3 21.2 2.13 11.4 5.85 18.2 12.9 23.4 7.98 5.9 15.1 9.4 18.4 9.05 2.89-.302 3.43-1.15 4.03-6.35zm-7.73-21.3c-.916-1.47-1.18-2.67-.587-2.67 1.39 0 4.28 2.88 4.28 4.27 0 1.96-2.01 1.09-3.69-1.6zm30.4-5.33c.785-1.47 1.73-2.67 2.09-2.67.367 0 .0244 1.2-.760 2.67-.785 1.47-1.73 2.67-2.09 2.67-.367 0-.0244-1.2.760-2.67zm-20.7-7.21c-2.48-1.81-2.49-2.08-.248-8.33 1.27-3.55 2.35-9.46 2.4-13.1.0647-4.95.382-5.98 1.23-4 1.58 3.67 1.6 12.4.0442 17.8-.844 2.94-.828 5.36.0469 6.99 1.58 2.96.0869 3.23-3.48.622zm-33.3-31c.962-.385 2.11-.338 2.56.105.443.443-.344.758-1.75 0.7-1.55-.064-1.87-.380-.806-.806zm10.7 0c.962-.385 2.11-.338 2.56.105.443.443-.344.758-1.75 0.7-1.55-.064-1.87-.380-.806-.806zm54.7 0c.962-.385 2.11-.338 2.56.105.443.443-.344.758-1.75 0.7-1.55-.064-1.87-.380-.806-.806zm-59-5.26c-.458-1.19-.072-3.14.857-4.33 1.5-1.92 1.43-1.96-.644-.334-1.41 1.11-2.33 1.27-2.33 0.4 0-.787 1.05-2.04 2.33-2.79 2-1.17 1.83-1.36-1.25-1.4-5.03-.0569-10.1 2.1-10.6 4.52-.318 1.46-1.02 1.68-2.45.791-1.75-1.09-1.7-1.55.373-3.62 1.76-1.77 5.01-2.49 12.7-2.83 9.03-.398 10.9-.0701 14.9 2.66 2.51 1.71 4.72 3.88 4.9 4.81.185.935.0269 1.07-.351.305-.996-2.02-7.86-5.34-11-5.34-2.97 0-3.62 2.58-1.25 4.95.816.816 1.08 2.14.588 2.93-1.36 2.2-5.68 1.73-6.62-.719zm58.4.233c-.409-1.06-.297-2.66.248-3.54.673-1.09.425-1.25-.775-.512-1.3.806-1.53.473-.858-1.28.779-2.03.382-2.24-2.77-1.45-2.02.505-4.76 1.89-6.07 3.07-2.2 1.98-2.33 1.98-1.56-.0009 1.42-3.7 9.14-6.36 18.4-6.36 7.52 0 9.24.474 12.5 3.44 2.06 1.89 3.04 3.09 2.18 2.65-.861-.435-1.84.267-2.18 1.56-.462 1.77-.651 1.6-.768-.683-.165-3.23-4.49-5.63-10.2-5.63-4.12 0-5.43 2.25-2.96 5.08 1.08 1.24 1.68 3 1.35 3.92-.833 2.3-5.63 2.1-6.54-.269zm-75.8-12c1.33-4.16 8.66-6.75 22.4-7.95 7.5-.651 14.3-1.83 15.1-2.62 2.02-2.02 3.57-1.79 3.57.527 0 3.65-6.99 5.69-21.7 6.31-11.6.499-14.9 1.09-17.2 3.17-2.08 1.85-2.7 2-2.24.565zm98.1-.942c-1.69-1.69-5.88-2.39-18.1-3.01-15.9-.805-20.2-2.15-20.2-6.23 0-2.2 1.59-2.38 3.57-.398.791.791 7.49 1.96 14.9 2.61 12.6 1.1 20.2 3.38 22.3 6.7 1.5 2.43-.0873 2.64-2.41.324zm-106 47c-.0504-.55-1.48-6.4-3.18-13-2.13-8.29-3.38-11.3-4.06-9.65-.536 1.29-.637 3.69-.225 5.33.738 2.93.717 2.94-1.27.313-1.96-2.59-1.91-5.83.215-14.3.564-2.25.280-4.44-.735-5.67-2.55-3.07-5.33-2.4-5.33 1.28 0 3.8 3.23 16.8 5.06 20.3.691 1.34 1.66 4.66 2.15 7.39.492 2.73 1.81 5.88 2.94 7 2.16 2.16 4.58 2.73 4.43 1.04zm122-1.33c1.13-1.28 2.46-4.43 2.94-7 .488-2.57 1.72-6.77 2.74-9.33 5.45-13.7 5.03-25.9-.648-19-2.29 2.81-2.32 3.37-.389 8.28 1.8 4.57 1.83 5.86.222 9.66l-1.85 4.38-.684-5.33c-.659-5.13-.796-4.9-3.67 6.29-1.64 6.39-2.98 12.2-2.98 13 0 2.1 2.01 1.65 4.31-.952z" fill="#724734"/>
  <path d="m13.6 267c-.0011-4.11 9.2-21.1 14.1-26 7.24-7.24 16.3-10.8 33.9-13.4 8.43-1.22 15.7-2.47 16.2-2.78.499-.308 1.29.0591 1.76.816.468.757 1.42 1.02 2.13.589.701-.433 1.11-.0357.908.883-.663 3.02 18 15.9 36 24.7l17.7 8.73 13.4-8.9c17.1-11.4 33.6-24.5 32.7-26-.864-1.4 3.48-1.08 23.3 1.71 17.6 2.48 29.9 7.58 35.3 14.7 3.92 5.14 9.58 17.3 10.7 22.9.894 4.6 1.1 4.97-6.18-11.3-7.12-15.9-15.3-20.9-39.8-24.6l-12.7-1.9-7.33 7.04c-4.03 3.87-10.8 9.8-15 13.2-8.29 6.63-27.7 20-27.7 19.1 0-.308 6.45-5.31 14.3-11.1 7.88-5.81 18.8-14.4 24.2-19.1 8.98-7.78 9.6-8.63 7.09-9.75-2.31-1.03-4.23.109-11.9 7.1-5.05 4.58-16.9 13.5-26.4 19.9-9.48 6.35-17.1 12.3-16.9 13.2.183 0.9-.0339 1.64-.483 1.64s-9.57-4.31-20.3-9.59c-16.8-8.26-20.8-10.9-28.9-18.8-8.89-8.75-8.95-8.86-1.19-1.94 8.68 7.74 23.3 16.7 38 23.4 7.66 3.47 9.25 3.79 11.3 2.27 1.33-.972 2.12-2.05 1.75-2.4-.366-.346-8.04-4.29-17.1-8.76-18.5-9.17-25.4-13.6-32.6-21.1l-5.01-5.19-14.1 2.35c-7.78 1.29-17.1 3.32-20.6 4.5-9.83 3.27-18.6 12-25.1 24.9-3.02 6.06-5.5 10.1-5.5 8.99zm73.3-43.6c7.17-5.2 17.4-13.9 17.4-14.8 0-.535-3.4-3.83-7.55-7.32-14-11.8-18.1-19-19.8-35.2-.692-6.49-1.38-8.34-3.09-8.35-1.64-.0152-1.77-.295-.494-1.1 1.36-.863 1.1-3.58-1.27-13.3-2.96-12.1-5.06-15.6-5.14-8.56-.0354 3.2-.217 3.36-1.44 1.26-.994-1.71-.915-4.29.272-8.92 1.77-6.9.485-10.7-3.62-10.7-2.27 0-2.53 9.55-.370 13.6 1.07 1.99 1.07 2.49 0 1.83-2.06-1.27-1.75.762.576 3.84 1.08 1.42 1.95 3.22 1.95 4-.0037.777-1.44-.956-3.19-3.85s-2.85-6.14-2.43-7.22c.436-1.14.178-1.6-.616-1.11-.845.522-1.18-.541-.875-2.78.424-3.12.318-3.26-.766-.960-1.71 3.62-1.83.002-.198-5.7.775-2.7.775-4.06 0-3.58-1.77 1.1-1.55-1.22.296-3.06 1.17-1.17 1.13-2.04-.157-3.59-.935-1.13-1.41-3.58-1.05-5.44.357-1.87-.112-5.62-1.04-8.34-3.04-8.89-3.02-21.7.0396-24.8 1.1-1.1 2-3.26 2-4.8 0-4.56 3.42-11.4 7.17-14.4 1.92-1.51 3.49-3.6 3.49-4.63 0-4.57 13.3-17.6 15.6-15.3.439.439 1.81-1.14 3.06-3.5 3.18-6.05 14.2-13.3 19.1-12.6 2.14.314 5.95-.522 8.64-1.89 6.63-3.38 32.9-3.55 39.3-.254 2.34 1.21 6.77 2.31 9.85 2.43 7.05.294 14.9 5.35 18.4 11.8 1.72 3.19 3.56 4.85 5.39 4.85 3.42 0 10.4 6.62 12.6 12 .905 2.19 3.68 6.13 6.16 8.76s4.62 6.1 4.74 7.69c.125 1.6.294 3.91.374 5.14.0804 1.23 1.18 3.38 2.44 4.77 2.88 3.18 3.11 16.3.433 23.9-1.02 2.9-1.55 6.88-1.18 8.84.376 1.96-.0293 4.43-0.9 5.48-1.15 1.39-1.19 2.63-.157 4.57 1.85 3.45 1.81 5.43-.0537 2.84-1.16-1.61-1.25-1.48-.495.667.519 1.47 1.23 3.87 1.57 5.33.533 2.25.388 2.35-.930.667-1.26-1.62-1.43-1.22-.870 2.06.791 4.65-.598 7.6-3.8 8.07-1.59.233-1.95-.302-1.29-1.91.504-1.23 1.23-4.78 1.61-7.9.563-4.6.291-5.67-1.45-5.67-1.18 0-3.06 1.41-4.19 3.13-1.83 2.79-1.83 3.64-.0451 7.92 1.3 3.11 1.62 5.84 0.9 7.78-1.02 2.76-1.18 2.64-2.1-1.59-.956-4.38-1.14-4.08-4.15 6.76-4.46 16-4.27 18.5 1.01 13.7 2.35-2.12 2.44-2.12 1.62.012-.479 1.25-2.3 2.63-4.06 3.07-1.75.440-3.2 1.48-3.21 2.32-.111 6.39-3.11 20.5-5.23 24.7-1.42 2.79-7.21 9.38-12.9 14.7l-10.3 9.58 3.18 3.62 3.18 3.62-4.09-3.69-4.09-3.69-5.9 2.27c-8.19 3.16-34.2 3.19-42.3.0557l-5.74-2.22-8.49 7.2c-4.67 3.96-9.88 7.86-11.6 8.67-2.97 1.41-2.96 1.37.173-.899zm40.3-32.6c1.15-8.1 1.84-9.07 6.46-9.07s5.31.966 6.46 9.07c.766 5.4 1.35 6.32 4.21 6.66 4.64.543 19.7-8.8 24.8-15.3 3.03-3.93 4.68-8.23 6.32-16.5 1.42-7.18 4.37-15.5 8.23-23.3 3.31-6.66 6.01-13.7 6.01-15.7 0-1.98.969-5.83 2.15-8.56 2.63-6.05 3.26-9.96 3.76-23.4.356-9.56.0801-10.9-3.4-16-2.09-3.08-3.8-6.94-3.82-8.59-.0133-1.65-.718-3-1.57-3-.847 0-3.51-1.5-5.91-3.33-5.36-4.09-10.1-4.23-16.2-.469-2.55 1.58-6.95 3.03-9.79 3.23-2.83.202-5.83.787-6.66 1.3-2.59 1.6-21.6 1.78-27.2.263-2.93-.796-6.41-1.3-7.73-1.12-1.32.178-5.27-1.52-8.78-3.77-7.96-5.11-10.5-5.12-16.8-.0953-2.77 2.2-5.85 4-6.85 4-.999 0-1.82 1.29-1.82 2.87s-1.41 4.73-3.14 7-3.58 5.51-4.12 7.21c-1.5 4.76-1.02 20.3.691 22.4.842 1.01 1.19 2.74.768 3.83-.420 1.09 0.4 4.55 1.82 7.68s2.59 7.19 2.59 9.03c.0012 1.83 2.74 8.73 6.08 15.3 3.96 7.81 6.55 15 7.42 20.7 1.51 9.76 5.12 18.2 9.56 22.4 5.64 5.27 18.9 12.4 22.3 12 2.86-.333 3.45-1.25 4.21-6.65zm-7.89-21.1c-.916-1.47-1.18-2.67-.587-2.67 1.39 0 4.28 2.88 4.28 4.27 0 1.96-2.01 1.09-3.69-1.6zm30.4-5.33c.785-1.47 1.73-2.67 2.09-2.67.367 0 .0244 1.2-.760 2.67-.785 1.47-1.73 2.67-2.09 2.67-.367 0-.0244-1.2.760-2.67zm-20.4-7.73c-2.01-2.22-1.96-3.01.658-10.7 1.56-4.56 3.12-8 3.48-7.64.357.357-.0704 4.31-.951 8.78-1.24 6.28-1.24 8.57-.0182 10 2.32 2.79-.611 2.33-3.17-.494zm-28-35c-.458-1.19-.072-3.14.857-4.33 1.5-1.92 1.43-1.96-.644-.334-1.41 1.11-2.33 1.27-2.33 0.4 0-.787 1.05-2.04 2.33-2.79 2-1.17 1.83-1.36-1.25-1.4-5.22-.0591-10.1 2.14-10.6 4.76-.414 2.12-.577 2.13-2.28.0759-1.62-1.96-1.28-2.44 2.96-4.21 8.21-3.43 20.5-2.41 26.2 2.19l3.29 2.64-4.27-2.08c-7.4-3.61-12.8-1.72-8.25 2.87.816.816 1.08 2.14.588 2.93-1.36 2.2-5.68 1.73-6.62-.719zm58.4.233c-.409-1.06-.297-2.66.248-3.54.673-1.09.425-1.25-.775-.512-1.3.806-1.53.473-.858-1.28.779-2.03.382-2.24-2.77-1.45-2.02.505-4.88 1.92-6.35 3.15-2.64 2.21-2.64 2.2-.172-.720 3.61-4.27 10.7-6.16 19.9-5.33 8.71.789 12.3 3.01 10.3 6.28-1.07 1.7-1.27 1.64-1.29-.366-.022-2.55-4.91-4.97-10-4.97-4.12 0-5.43 2.25-2.96 5.08 1.08 1.24 1.68 3 1.35 3.92-.833 2.3-5.63 2.1-6.54-.269zm-74.7-13c0-1.96 6.62-3.82 19.7-5.53 7.86-1.02 15.6-2.27 17.3-2.76 2.4-.709 2.85-.459 2.21 1.22-1.13 2.95-4.17 3.67-20.4 4.83-7.8.560-15.2 1.46-16.5 2.01-1.28.544-2.33.646-2.33.227zm95.5-.430c-.499-.499-7.43-1.34-15.4-1.86-16.5-1.09-19.5-1.8-20.7-4.77-.643-1.68-.188-1.93 2.21-1.22 1.66.491 9.48 1.74 17.4 2.76 7.9 1.03 15.7 2.8 17.3 3.93 1.62 1.13 2.31 2.06 1.54 2.06-.774 0-1.82-.408-2.32-.907zm29.8 18.9c0-.733-.582-.433-1.29.667-.711 1.1-1.29 2.6-1.29 3.33 0 .733.582.433 1.29-.667.711-1.1 1.29-2.6 1.29-3.33zm-34.7 93.9-4.62-4.1 5 3.59c4.42 3.17 5.86 4.6 4.62 4.6-.211 0-2.46-1.84-5-4.1zm25.5-75.3c.064-1.55.380-1.87.806-.806.385.962.338 2.11-.105 2.56-.443.443-.758-.344-0.7-1.75zm2.56-7.14c0-.690.593-1.62 1.32-2.07.756-.467.979.0681.524 1.25-.886 2.31-1.84 2.73-1.84.815z" fill="#025175"/>
  <path d="m86.9 224c7.17-5.2 17.4-13.9 17.4-14.8 0-.535-3.4-3.83-7.55-7.32-14-11.8-18.1-19-19.8-35.2-.692-6.49-1.38-8.34-3.09-8.35-1.64-.0152-1.77-.295-.494-1.1 1.36-.863 1.1-3.58-1.27-13.3-2.96-12.1-5.06-15.6-5.14-8.56-.0354 3.2-.217 3.36-1.44 1.26-.994-1.71-.915-4.29.272-8.92 1.77-6.9.485-10.7-3.62-10.7-2.27 0-2.53 9.55-.370 13.6 1.07 1.99 1.07 2.49 0 1.83-2.06-1.27-1.75.762.576 3.84 1.08 1.42 1.95 3.22 1.95 4-.0037.777-1.44-.956-3.19-3.85s-2.85-6.14-2.43-7.22c.436-1.14.178-1.6-.616-1.11-.845.522-1.18-.541-.875-2.78.424-3.12.318-3.26-.766-.960-1.71 3.62-1.83.002-.198-5.7.775-2.7.775-4.06 0-3.58-1.77 1.1-1.55-1.22.296-3.06 1.17-1.17 1.13-2.04-.157-3.59-.935-1.13-1.41-3.58-1.05-5.44.357-1.87-.112-5.62-1.04-8.34-3.04-8.89-3.02-21.7.0396-24.8 1.1-1.1 2-3.26 2-4.8 0-4.56 3.42-11.4 7.17-14.4 1.92-1.51 3.49-3.6 3.49-4.63 0-4.57 13.3-17.6 15.6-15.3.439.439 1.81-1.14 3.06-3.5 3.18-6.05 14.2-13.3 19.1-12.6 2.14.314 5.95-.522 8.64-1.89 6.63-3.38 32.9-3.55 39.3-.254 2.34 1.21 6.77 2.31 9.85 2.43 7.05.294 14.9 5.35 18.4 11.8 1.72 3.19 3.56 4.85 5.39 4.85 3.42 0 10.4 6.62 12.6 12 .905 2.19 3.68 6.13 6.16 8.76s4.62 6.1 4.74 7.69c.125 1.6.294 3.91.374 5.14.0804 1.23 1.18 3.38 2.44 4.77 2.88 3.18 3.11 16.3.433 23.9-1.02 2.9-1.55 6.88-1.18 8.84.376 1.96-.0293 4.43-0.9 5.48-1.15 1.39-1.19 2.63-.157 4.57 1.85 3.45 1.81 5.43-.0537 2.84-1.16-1.61-1.25-1.48-.495.667.519 1.47 1.23 3.87 1.57 5.33.533 2.25.388 2.35-.930.667-1.26-1.62-1.43-1.22-.870 2.06.791 4.65-.598 7.6-3.8 8.07-1.59.233-1.95-.302-1.29-1.91.504-1.23 1.23-4.78 1.61-7.9.563-4.6.291-5.67-1.45-5.67-1.18 0-3.06 1.41-4.19 3.13-1.83 2.79-1.83 3.64-.0451 7.92 1.3 3.11 1.62 5.84 0.9 7.78-1.02 2.76-1.18 2.64-2.1-1.59-.956-4.38-1.14-4.08-4.15 6.76-4.46 16-4.27 18.5 1.01 13.7 2.35-2.12 2.44-2.12 1.62.012-.479 1.25-2.3 2.63-4.06 3.07-1.75.440-3.2 1.48-3.21 2.32-.111 6.39-3.11 20.5-5.23 24.7-1.42 2.79-7.21 9.38-12.9 14.7l-10.3 9.58 3.18 3.62 3.18 3.62-4.09-3.69-4.09-3.69-5.9 2.27c-8.19 3.16-34.2 3.19-42.3.0557l-5.74-2.22-8.49 7.2c-4.67 3.96-9.88 7.86-11.6 8.67-2.97 1.41-2.96 1.37.173-.899zm40.3-32.6c1.15-8.1 1.84-9.07 6.46-9.07s5.31.966 6.46 9.07c.766 5.4 1.35 6.32 4.21 6.66 4.64.543 19.7-8.8 24.8-15.3 3.03-3.93 4.68-8.23 6.32-16.5 1.42-7.18 4.37-15.5 8.23-23.3 3.31-6.66 6.01-13.7 6.01-15.7 0-1.98.969-5.83 2.15-8.56 2.63-6.05 3.26-9.96 3.76-23.4.356-9.56.0801-10.9-3.4-16-2.09-3.08-3.8-6.94-3.82-8.59-.0133-1.65-.718-3-1.57-3-.847 0-3.51-1.5-5.91-3.33-5.36-4.09-10.1-4.23-16.2-.469-2.55 1.58-6.95 3.03-9.79 3.23-2.83.202-5.83.787-6.66 1.3-2.59 1.6-21.6 1.78-27.2.263-2.93-.796-6.41-1.3-7.73-1.12-1.32.178-5.27-1.52-8.78-3.77-7.96-5.11-10.5-5.12-16.8-.0953-2.77 2.2-5.85 4-6.85 4-.999 0-1.82 1.29-1.82 2.87s-1.41 4.73-3.14 7-3.58 5.51-4.12 7.21c-1.5 4.76-1.02 20.3.691 22.4.842 1.01 1.19 2.74.768 3.83-.420 1.09 0.4 4.55 1.82 7.68s2.59 7.19 2.59 9.03c.0012 1.83 2.74 8.73 6.08 15.3 3.96 7.81 6.55 15 7.42 20.7 1.51 9.76 5.12 18.2 9.56 22.4 5.64 5.27 18.9 12.4 22.3 12 2.86-.333 3.45-1.25 4.21-6.65zm-7.89-21.1c-.916-1.47-1.18-2.67-.587-2.67 1.39 0 4.28 2.88 4.28 4.27 0 1.96-2.01 1.09-3.69-1.6zm30.4-5.33c.785-1.47 1.73-2.67 2.09-2.67.367 0 .0244 1.2-.760 2.67-.785 1.47-1.73 2.67-2.09 2.67-.367 0-.0244-1.2.760-2.67zm-20.4-7.73c-2.01-2.22-1.96-3.01.658-10.7 1.56-4.56 3.12-8 3.48-7.64.357.357-.0704 4.31-.951 8.78-1.24 6.28-1.24 8.57-.0182 10 2.32 2.79-.611 2.33-3.17-.494zm-28-36c-.458-1.19-.072-3.14.857-4.33 1.5-1.92 1.43-1.96-.644-.334-1.41 1.11-2.33 1.27-2.33 0.4 0-.787 1.05-2.04 2.33-2.79 2-1.17 1.83-1.36-1.25-1.4-5.22-.0591-10.1 2.14-10.6 4.76-.414 2.12-.577 2.13-2.28.0759-1.62-1.96-1.28-2.44 2.96-4.21 8.21-3.43 20.5-2.41 26.2 2.19l3.29 2.64-4.27-2.08c-7.4-3.61-12.8-1.72-8.25 2.87.816.816 1.08 2.14.588 2.93-1.36 2.2-5.68 1.73-6.62-.719zm58.4.233c-.409-1.06-.297-2.66.248-3.54.673-1.09.425-1.25-.775-.512-1.3.806-1.53.473-.858-1.28.779-2.03.382-2.24-2.77-1.45-2.02.505-4.88 1.92-6.35 3.15-2.64 2.21-2.64 2.2-.172-.720 3.61-4.27 10.7-6.16 19.9-5.33 8.71.789 12.3 3.01 10.3 6.28-1.07 1.7-1.27 1.64-1.29-.366-.022-2.55-4.91-4.97-10-4.97-4.12 0-5.43 2.25-2.96 5.08 1.08 1.24 1.68 3 1.35 3.92-.833 2.3-5.63 2.1-6.54-.269zm-74.7-13c0-1.96 6.62-3.82 19.7-5.53 7.86-1.02 15.6-2.27 17.3-2.76 2.4-.709 2.85-.459 2.21 1.22-1.13 2.95-4.17 3.67-20.4 4.83-7.8.560-15.2 1.46-16.5 2.01-1.28.544-2.33.646-2.33.227zm95.5-.430c-.499-.499-7.43-1.34-15.4-1.86-16.5-1.09-19.5-1.8-20.7-4.77-.643-1.68-.188-1.93 2.21-1.22 1.66.491 9.48 1.74 17.4 2.76 7.9 1.03 15.7 2.8 17.3 3.93 1.62 1.13 2.31 2.06 1.54 2.06-.774 0-1.82-.408-2.32-.907zm29.8 18.9c0-.733-.582-.433-1.29.667-.711 1.1-1.29 2.6-1.29 3.33 0 .733.582.433 1.29-.667.711-1.1 1.29-2.6 1.29-3.33zm-34.7 93.9-4.62-4.1 5 3.59c4.42 3.17 5.86 4.6 4.62 4.6-.211 0-2.46-1.84-5-4.1zm25.5-75.3c.064-1.55.380-1.87.806-.806.385.962.338 2.11-.105 2.56-.443.443-.758-.344-0.7-1.75zm2.56-7.14c0-.690.593-1.62 1.32-2.07.756-.467.979.0681.524 1.25-.886 2.31-1.84 2.73-1.84.815z" fill="#5d3220"/>
  <path d="m117 212c-10.2-2.48-16.9-6.5-26.3-15.8-9.6-9.55-11.5-13.7-13.9-30.4-1.09-7.5-3.43-19-5.19-25.6s-3.55-14.2-3.96-16.8c-.649-4.13-1.53-5.11-6.22-6.96-4.16-1.63-5.27-2.68-4.62-4.36.467-1.22.168-3.03-.664-4.04-.832-1-1.22-3.35-.864-5.22.357-1.87-.112-5.62-1.04-8.34-3.04-8.89-3.02-21.7.0396-24.8 1.1-1.1 2-3.26 2-4.8 0-4.56 3.42-11.4 7.17-14.4 1.92-1.51 3.49-3.6 3.49-4.63 0-4.57 13.3-17.6 15.6-15.3.439.439 1.81-1.14 3.06-3.5 3.18-6.05 14.2-13.3 19.1-12.6 2.14.314 5.95-.522 8.64-1.89 6.63-3.38 32.9-3.55 39.3-.254 2.34 1.21 6.77 2.31 9.85 2.43 7.05.294 14.9 5.35 18.4 11.8 1.72 3.19 3.56 4.85 5.39 4.85 3.42 0 10.4 6.62 12.6 12 .905 2.19 3.68 6.13 6.16 8.76s4.62 6.1 4.74 7.69c.125 1.6.294 3.91.374 5.14.0804 1.23 1.18 3.38 2.44 4.77 2.88 3.18 3.11 16.3.433 23.9-1.02 2.9-1.55 6.88-1.18 8.84.376 1.96.001 4.39-.830 5.4-.832 1-1.15 2.78-.696 3.95.604 1.57-.607 2.7-4.66 4.32-4.04 1.62-5.65 3.11-6.17 5.71-.382 1.93-2.47 11-4.64 20.2-2.17 9.17-4.55 21.3-5.29 27-.735 5.7-2.48 12.6-3.87 15.3-2.97 5.81-17.6 20.3-23.8 23.4-11.3 5.85-30.4 7.58-45 4.06zm10-20.1c.843-6.31 3.18-9.78 6.59-9.78s5.75 3.47 6.59 9.78c.596 4.47 1.33 5.63 3.74 5.98 6.32.898 23.6-10.6 27.7-18.4 1.06-2.04 3.13-9.27 4.61-16.1 1.78-8.14 4.51-15.7 8.04-22.1 2.94-5.36 5.37-11.4 5.38-13.5.0161-2.05 1.19-6.29 2.61-9.42s2.24-6.59 1.82-7.68-.0833-2.81.748-3.81c1.59-1.91 2.09-14.9.823-21.1-.409-2-2.23-5.83-4.06-8.52-1.82-2.68-3.31-6-3.31-7.36s-.497-2.48-1.1-2.48c-.608 0-3.91-1.86-7.35-4.13l-6.24-4.13-8.81 4.25c-5.24 2.53-9.93 3.95-11.6 3.52-1.53-.399-3.58-.0550-4.57.765-2.46 2.04-27.6 1.98-30.1-.0788-1.04-.863-2.86-1.2-4.04-.744-1.23.474-4.86-.796-8.5-2.98-10.2-6.1-11.6-6.19-17.8-1.02-3 2.5-6.29 4.55-7.32 4.55s-1.87 1.1-1.87 2.44-1.84 5.22-4.09 8.61c-3.63 5.48-4.1 7.29-4.13 16.1-.0214 5.44.647 11.2 1.49 12.7.839 1.57 1.2 3.38.801 4.02-.398.644.461 3.78 1.91 6.97s2.65 7.43 2.66 9.41c.0161 1.99 2.68 8.76 5.92 15.1 3.94 7.66 6.42 14.6 7.49 21.1.883 5.29 2.71 11.8 4.06 14.5 4.52 8.93 20.8 20.3 27.9 19.5 2.82-.308 3.45-1.22 4.07-5.91zm-7.76-21.8c-.916-1.47-1.18-2.67-.587-2.67 1.39 0 4.28 2.88 4.28 4.27 0 1.96-2.01 1.09-3.69-1.6zm30.4-5.33c.785-1.47 1.73-2.67 2.09-2.67.367 0 .0244 1.2-.760 2.67-.785 1.47-1.73 2.67-2.09 2.67-.367 0-.0244-1.2.760-2.67zm-48-44c-.458-1.19-.072-3.14.857-4.33 1.5-1.92 1.43-1.96-.644-.334-1.59 1.25-2.33 1.34-2.33.291 0-.846 1.05-1.95 2.33-2.46 1.86-.734 1.52-1.1-1.67-1.8-3.6-.792-3.44-.894 1.71-1.04 5.34-.147 15 2.74 15 4.49 0 .430-1.16.161-2.58-.599-5.77-3.09-10.6-.458-6.6 3.57.816.816 1.08 2.14.588 2.93-1.36 2.2-5.68 1.73-6.62-.719zm58.4.233c-.409-1.06-.297-2.66.248-3.54.673-1.09.425-1.25-.775-.512-1.28.792-1.53.484-.915-1.13 1.07-2.8-1.16-2.84-6.4-.135-3.11 1.61-3.56 1.65-2 .167 2.96-2.82 10.3-4.94 16.5-4.76 4.89.141 5.06.247 1.58 1-4.54.983-5.68 3.1-2.9 5.41 1.08.897 1.64 2.49 1.24 3.53-.952 2.48-5.65 2.46-6.6-.0336zm-71.5-3.67c-1.02-2.65 1.41-5.09 4.93-4.97 2.62.0897 2.62.137.166 1.1-1.41.553-2.96 2.12-3.43 3.48-.734 2.09-.988 2.15-1.66.396zm89.7-.108c-.0107-1.31-1.37-2.92-3.02-3.58-1.86-.749-2.21-1.24-.922-1.29 3.57-.145 6.7 2.99 5.25 5.25-1.1 1.7-1.29 1.64-1.31-.376zm-92-9.53c0-1.93 7.34-4 19.3-5.43 7.36-.883 14.4-2.06 15.7-2.61 3.37-1.45 2.93 1.53-.498 3.37-1.56.833-8.91 1.83-16.3 2.22-7.43.390-14.6 1.25-15.8 1.91-1.28.662-2.33.903-2.33.537zm93.3-.624c-1.1-.614-8.56-1.47-16.6-1.9-12.6-.678-14.9-1.17-17.3-3.68l-2.77-2.9 3.33.970c1.83.533 9.36 1.72 16.7 2.64 11.8 1.48 19.3 3.58 19.3 5.45 0 .813-.287.750-2.67-.577z" fill="#2a232b"/>
  <path d="m123 213c-5.44-.910-16.4-4.67-20-6.85-5.91-3.59-18.8-16.7-21.5-21.9-1.43-2.76-3.18-9.66-3.89-15.3-1.1-8.74-7.21-37.1-10.4-48.3-.621-2.17-2.38-3.7-5.18-4.5-2.33-.669-4.53-1.98-4.89-2.92-.504-1.31.167-1.28 2.92.163 1.97 1.03 4.31 1.87 5.21 1.87 2.29.0115 5.7 7.1 5.7 11.8 0 5.28 1.22 8.18 3.44 8.18 3.97 0-1.76-17.5-7.76-23.7-2.31-2.39-3.49-4.34-2.61-4.34 2.39 0 2.14-16.6-.283-18.6-1.58-1.31-1.36-2.08 1.41-4.84 2.73-2.73 3.21-4.35 2.88-9.6-.352-5.48.0731-6.73 3.17-9.37 3.99-3.4 7.11-11.2 5.82-14.6-.729-1.9-.476-1.87 1.82.213 3.5 3.17 8.51 1.92 12.2-3.05l2.79-3.78 3.8 3.8c4.57 4.57 11.4 5.1 16.2 1.25 3.15-2.55 3.15-2.55 6.56 1.54 4.45 5.33 9.57 4.48 11.9-1.98 1.38-3.9 1.68-4.09 2.94-1.88 2.15 3.77 9.65 6.45 13.7 4.9 1.87-.710 3.4-2.3 3.4-3.53 0-2.09.168-2.09 2.44-.033 3.74 3.38 11.7 2.84 15.6-1.07 1.89-1.89 3.27-2.54 3.27-1.54 0 4.73 11.1 9.61 16.8 7.41 3.05-1.16 3.26-1.01 2.42 1.73-.501 1.65-.912 3.3-.915 3.67-.0269 4.15.903 5.71 4.23 7.11 2.97 1.25 3.62 2.12 2.69 3.6-3.06 4.84.467 12 5.94 12 2.14 0 2.1.378-.438 4.49-3.25 5.25-3.62 10.9-.785 12 1.64.631 1.4 1.64-1.4 5.77-2.22 3.27-3.14 6.04-2.65 7.99.522 2.08-.0107 3.4-1.75 4.33-1.38.737-3.48 3.4-4.68 5.92-2.63 5.54-2.96 14.7-.507 13.8 1.71-.567 2.65-3.09 4.57-12.2 1.1-5.23 1.56-5.68 9.33-9.23 3.37-1.54 4.1-1.57 3.56-.166-.373.971-2.42 2.15-4.55 2.62-4.62 1.01-5.46 2.19-6.65 9.26-.498 2.96-2.46 11.2-4.37 18.4-1.9 7.14-4.08 17.9-4.83 23.9-.753 6.01-2.61 13.5-4.13 16.6-3.42 7.06-17.5 20.4-25.4 24.2-9.91 4.66-25.7 6.69-37.1 4.78zm27.3-4.68c8.43-2.13 14.7-5.85 21.7-13 7.85-7.97 13.2-18.1 15.2-28.8.825-4.38 2.82-12.8 4.44-18.8 2.67-9.82 2.73-10.8.675-10.2-1.25.326-2.58-.225-2.96-1.22-1.06-2.76 1.18-14.9 3.62-19.6 1.19-2.29 1.8-4.74 1.37-5.43-.431-.697-.0965-2.55.742-4.12.839-1.57 1.51-7.31 1.49-12.8-.0344-8.76-.517-10.7-4.13-16.3-2.25-3.51-4.11-7.22-4.13-8.26-.0208-1.04-3.39-3.91-7.48-6.39l-7.44-4.51-7.81 3.73c-4.3 2.05-9.78 3.94-12.2 4.19-18.1 1.89-26.9 2.28-30.7 1.34-2.4-.598-6.42-1.33-8.91-1.63-2.5-.296-6.71-1.97-9.35-3.72-7.95-5.26-9.8-5.38-15.3-.972-2.75 2.18-6.08 4.32-7.41 4.74-1.33.422-2.78 2.23-3.23 4.02-.449 1.79-2.25 5.36-4 7.94-4.19 6.18-5.93 21.3-3.09 26.9 1.06 2.11 1.68 4.54 1.37 5.41-.311.867.353 3.35 1.47 5.52 2.43 4.69 4.74 18.2 3.47 20.2-.492.796-1.85 1.08-3.01.634-1.86-.713-1.8.198.453 7.45 1.41 4.54 3.22 12.5 4.01 17.8 2.83 18.7 15 36.2 29.7 42.9 12 5.51 27.1 6.59 41.5 2.97zm-31.3-9.07c-9.1-2.52-22.3-12.8-26.2-20.5-1.12-2.17-2.89-8.8-3.92-14.7-1.03-5.93-3.64-14.5-5.78-19.1-2.15-4.59-3.61-8.34-3.25-8.34 1.78 0 9.8 19.8 11.2 27.5 2.59 14.9 7.87 22.2 22 30.5 7.93 4.65 13.1 4.16 14.3-1.34.762-3.59.863-3.66.986-.667.240 5.83-3.19 8.32-9.16 6.66zm22.3-.115c-1.38-.799-2.28-2.81-2.2-4.95l.133-3.6.920 3.33c1.88 6.83 12.7 3.82 24.9-6.95 6.21-5.45 8.46-10.1 11.4-23.7 2.24-10.3 8.06-24.5 10.7-26.1.565-.349-.737 3.14-2.89 7.75-2.16 4.61-4.88 13.5-6.06 19.7-1.18 6.23-3.31 13.2-4.73 15.5-6.92 11.2-26.1 22.5-32.2 19zm-11.1-10.7c-2.48-2.73-2.47-2.82.0482-4.67 3.3-2.42 5.32-2.38 7.41.145 1.38 1.66 1.25 2.5-.710 4.67-3 3.31-3.64 3.3-6.75-.145zm-28.6-68.4c0-2.01 3.24-3.79 4.54-2.5 1.76 1.76.640 4.35-1.87 4.35-1.47 0-2.67-.836-2.67-1.86zm58.9-.355c.562-2.92 4.44-3.33 4.44-.473 0 1.09-1.1 2.19-2.45 2.45-1.78.343-2.32-0.2-1.98-1.98zm-106-25.1c-.413-1.08-.493-2.73-.179-3.67.314-.941.888-.0606 1.27 1.96.754 3.94.132 4.91-1.1 1.71zm158-.6c.486-1.76 1.38-7.46 1.98-12.7l1.1-9.46-.366 10.1c-.201 5.53-1.09 11.2-1.98 12.7-1.49 2.4-1.55 2.35-.730-.598zm-160-13.7c-.0999-4.91.268-9.2.818-9.54.55-.341.827 2.47.615 6.25-.637 11.4-1.24 12.8-1.43 3.29zm3.92-15.2c.0640-1.55.380-1.87.806-.806.385.962.338 2.11-.105 2.56-.443.443-.758-.344-0.7-1.75zm152-3.6c-.0851-1.32-1.07-4.17-2.19-6.33s-1.73-3.93-1.37-3.93c1.43 0 4.86 8.3 4.3 10.4-.521 1.97-.611 1.95-.747-.156zm-150-1.5c0-1.43 3.97-8.82 4.74-8.82.367 0-.325 1.95-1.54 4.33-2.47 4.87-3.2 5.88-3.2 4.49zm139-18c-.451-1.42-2.91-4.42-5.47-6.67s-4.1-4.08-3.42-4.08c1.58 0 10.9 10.3 10.9 12 0 2.2-1.1 1.5-1.97-1.26zm-128-.9c1.59-2.94 9.42-10.7 9.94-9.8.191.313-2.28 3.22-5.49 6.47-3.21 3.24-5.21 4.74-4.45 3.33zm110-15.9c-2.05-2.57-6.55-6.14-10-7.94-6.85-3.56-6.78-4.55.104-1.46 5.24 2.35 9.06 5.62 12.2 10.4 3.33 5.07 2.13 4.54-2.32-1.03zm-92.2-.3c1.78-3.46 9.85-9.02 14.8-10.2 2.09-.491 1.59-.0016-1.33 1.31-2.57 1.15-6.99 4.3-9.83 6.99-3.73 3.54-4.73 4.06-3.61 1.87zm24.2-10.5c0-2.4 10.7-4.53 22.7-4.53s22.7 2.13 22.7 4.53c0 .367-2.08-.203-4.62-1.27-6.27-2.62-29.8-2.62-36.1 0-2.54 1.06-4.62 1.63-4.62 1.27z" fill="#140f14"/>
 </g>
</svg>
