<!DOCTYPE svg PUBLIC "-//W3C//DTD SVG 20010904//EN" "http://www.w3.org/TR/2001/REC-SVG-20010904/DTD/svg10.dtd">
<svg version="1.0" xmlns="http://www.w3.org/2000/svg" width="200px" height="200px" viewBox="0 0 2000 2000" preserveAspectRatio="xMidYMid meet">
<g id="layer101" fill="#f6f7f7" stroke="none">
 <path d="M95 1978 c32 -109 108 -208 189 -248 45 -21 257 -62 305 -58 29 2 63 -18 143 -85 l47 -40 -37 -27 c-61 -44 -137 -134 -150 -177 -7 -22 -15 -68 -18 -102 -6 -49 -10 -61 -25 -61 -21 0 -59 -45 -59 -70 0 -10 -20 -57 -45 -106 -46 -89 -58 -157 -34 -181 8 -8 8 -17 0 -31 -6 -11 -9 -27 -6 -34 3 -8 -1 -41 -10 -73 -8 -33 -15 -78 -15 -102 0 -43 17 -93 32 -93 4 0 8 -14 8 -31 0 -35 13 -63 45 -99 12 -14 34 -46 48 -71 26 -46 64 -79 90 -79 7 0 25 -17 38 -37 28 -44 90 -81 145 -87 21 -2 58 -11 82 -20 59 -22 247 -18 284 6 13 9 41 16 62 16 48 0 124 46 145 89 10 19 26 33 41 36 33 7 79 52 98 97 8 19 23 41 34 49 24 16 48 70 48 106 0 14 4 25 8 25 15 0 32 49 32 88 0 21 -6 63 -14 93 -14 52 -16 77 -13 210 0 48 -5 65 -32 108 -18 28 -41 77 -50 108 -13 47 -23 61 -48 73 -28 14 -31 21 -37 74 -12 120 -48 180 -158 267 l-48 37 48 40 c64 53 100 75 125 77 53 5 243 36 276 45 113 31 175 106 225 268 l7 22 -906 0 -906 0 6 -22z"/>
 </g>
<g id="layer102" fill="#dfe1e2" stroke="none">
 <path d="M95 1978 c32 -109 108 -208 189 -248 45 -21 257 -62 305 -58 29 2 63 -18 143 -85 l47 -40 -37 -27 c-61 -44 -137 -134 -150 -177 -7 -22 -15 -68 -18 -102 -6 -49 -10 -61 -25 -61 -21 0 -59 -45 -59 -70 0 -10 -20 -57 -45 -106 -46 -89 -58 -157 -34 -181 8 -8 8 -17 0 -31 -6 -11 -9 -27 -6 -34 3 -8 -1 -41 -10 -73 -8 -33 -15 -78 -15 -102 0 -43 17 -93 32 -93 4 0 8 -14 8 -31 0 -35 13 -63 45 -99 12 -14 34 -46 48 -71 26 -46 64 -79 90 -79 7 0 25 -17 38 -37 28 -44 90 -81 145 -87 21 -2 58 -11 82 -20 59 -22 247 -18 284 6 13 9 41 16 62 16 48 0 124 46 145 89 10 19 26 33 41 36 33 7 79 52 98 97 8 19 23 41 34 49 24 16 48 70 48 106 0 14 4 25 8 25 15 0 32 49 32 88 0 21 -6 63 -14 93 -14 52 -16 77 -13 210 0 48 -5 65 -32 108 -18 28 -41 77 -50 108 -13 47 -23 61 -48 73 -28 14 -31 21 -37 74 -12 120 -48 180 -158 267 l-48 37 48 40 c64 53 100 75 125 77 53 5 243 36 276 45 113 31 175 106 225 268 l7 22 -906 0 -906 0 6 -22z m986 -690 c25 -28 27 -34 13 -37 -14 -2 -14 -5 -3 -13 10 -6 6 -7 -11 -2 -14 4 -58 7 -98 5 -49 -1 -72 2 -67 9 3 5 28 10 56 10 66 0 63 18 -3 22 l-53 3 35 17 c57 28 96 23 131 -14z m-326 -368 c4 -6 1 -9 -7 -8 -8 2 -14 -8 -16 -24 -4 -30 -13 -34 -42 -18 -23 12 -16 38 14 50 29 12 44 12 51 0z m549 -6 c20 -20 20 -40 0 -48 -27 -10 -34 -7 -34 17 0 13 -5 28 -12 35 -9 9 -7 12 9 12 12 0 29 -7 37 -16z m-448 -9 c8 -21 -6 -41 -17 -24 -12 19 -11 39 1 39 6 0 13 -7 16 -15z m311 -9 c-7 -15 -16 -21 -21 -16 -12 12 0 40 18 40 11 0 12 -5 3 -24z"/>
 </g>
<g id="layer103" fill="#a2a09f" stroke="none">
 <path d="M95 1978 c32 -109 108 -208 189 -248 45 -21 257 -62 305 -58 29 2 63 -18 143 -85 l47 -40 -37 -27 c-61 -44 -137 -134 -150 -177 -7 -22 -15 -68 -18 -102 -6 -49 -10 -61 -25 -61 -21 0 -59 -45 -59 -70 0 -10 -20 -57 -45 -106 -46 -89 -58 -157 -34 -181 8 -8 8 -17 0 -31 -6 -11 -9 -27 -6 -34 3 -8 -1 -41 -10 -73 -8 -33 -15 -78 -15 -102 0 -43 17 -93 32 -93 4 0 8 -14 8 -31 0 -35 13 -63 45 -99 12 -14 34 -46 48 -71 26 -46 64 -79 90 -79 7 0 25 -17 38 -37 28 -44 90 -81 145 -87 21 -2 58 -11 82 -20 59 -22 247 -18 284 6 13 9 41 16 62 16 48 0 124 46 145 89 10 19 26 33 41 36 33 7 79 52 98 97 8 19 23 41 34 49 24 16 48 70 48 106 0 14 4 25 8 25 15 0 32 49 32 88 0 21 -6 63 -14 93 -14 52 -16 77 -13 210 0 48 -5 65 -32 108 -18 28 -41 77 -50 108 -13 47 -23 61 -48 73 -28 14 -31 21 -37 74 -12 120 -48 180 -158 267 l-48 37 48 40 c64 53 100 75 125 77 53 5 243 36 276 45 113 31 175 106 225 268 l7 22 -906 0 -906 0 6 -22z m987 -689 c23 -21 29 -32 20 -36 -10 -4 -10 -8 0 -21 11 -14 10 -15 -7 -7 -11 5 -58 11 -105 14 -74 5 -82 8 -63 19 12 6 37 13 55 14 25 1 20 3 -17 7 l-50 6 30 17 c49 28 99 23 137 -13z m-327 -369 c4 -6 1 -9 -7 -8 -9 2 -13 -8 -12 -34 1 -40 -10 -47 -47 -28 -23 13 -24 37 -2 62 17 20 58 24 68 8z m555 -10 c25 -25 25 -46 1 -60 -37 -19 -51 -13 -45 20 4 18 1 36 -6 45 -20 24 26 19 50 -5z m-431 -14 c3 -18 -22 -46 -40 -46 -4 0 -9 16 -11 35 -4 33 -2 36 21 33 16 -2 27 -10 30 -22z m293 -11 c-5 -39 -20 -44 -47 -15 -15 16 -15 22 -5 35 7 8 22 15 34 15 19 0 21 -4 18 -35z"/>
 </g>
<g id="layer104" fill="#7e8281" stroke="none">
 <path d="M95 1978 c32 -109 108 -208 189 -248 45 -21 257 -62 305 -58 29 2 63 -18 143 -85 l47 -40 -37 -27 c-61 -44 -137 -134 -150 -177 -7 -22 -15 -68 -18 -102 -6 -49 -10 -61 -25 -61 -21 0 -59 -45 -59 -70 0 -10 -20 -57 -45 -106 -46 -89 -58 -157 -34 -181 8 -8 8 -17 0 -31 -6 -11 -9 -27 -6 -34 3 -8 -1 -41 -10 -73 -8 -33 -15 -78 -15 -102 0 -43 17 -93 32 -93 4 0 8 -14 8 -31 0 -35 13 -63 45 -99 12 -14 34 -46 48 -71 26 -46 64 -79 90 -79 7 0 25 -17 38 -37 28 -44 90 -81 145 -87 21 -2 58 -11 82 -20 59 -22 247 -18 284 6 13 9 41 16 62 16 48 0 124 46 145 89 10 19 26 33 41 36 33 7 79 52 98 97 8 19 23 41 34 49 24 16 48 70 48 106 0 14 4 25 8 25 15 0 32 49 32 88 0 21 -6 63 -14 93 -14 52 -16 77 -13 210 0 48 -5 65 -32 108 -18 28 -41 77 -50 108 -13 47 -23 61 -48 73 -28 14 -31 21 -37 74 -12 120 -48 180 -158 267 l-48 37 48 40 c64 53 100 75 125 77 53 5 243 36 276 45 113 31 175 106 225 268 l7 22 -906 0 -906 0 6 -22z m984 -684 c35 -29 45 -82 14 -69 -10 4 -55 10 -101 13 -55 3 -80 8 -73 15 5 5 7 15 5 22 -8 21 37 45 82 45 31 0 51 -7 73 -26z m-323 -376 c4 -7 3 -8 -4 -4 -21 13 -26 -43 -6 -65 19 -21 19 -21 -21 -14 -22 4 -43 10 -47 12 -15 8 -8 62 10 72 23 14 59 14 68 -1z m552 -4 c12 -8 22 -26 22 -38 0 -19 -8 -26 -42 -34 -48 -12 -69 -2 -48 23 11 13 15 13 21 3 6 -9 9 -5 9 13 0 14 -5 30 -12 37 -18 18 23 16 50 -4z m-430 -6 c17 -17 15 -26 -13 -44 -46 -30 -98 -25 -61 5 11 9 15 9 20 -1 3 -7 5 2 3 20 -3 27 0 32 18 32 11 0 26 -5 33 -12z m297 -27 c1 -38 1 -38 -28 -29 -50 18 -50 68 0 68 26 0 28 -3 28 -39z"/>
 </g>
<g id="layer105" fill="#8f786d" stroke="none">
 <path d="M95 1978 c32 -109 108 -208 189 -248 45 -21 257 -62 305 -58 29 2 63 -18 143 -85 l47 -40 -37 -27 c-61 -44 -137 -134 -150 -177 -7 -22 -15 -68 -18 -102 -6 -49 -10 -61 -25 -61 -21 0 -59 -45 -59 -70 0 -10 -20 -57 -45 -106 -46 -89 -58 -157 -34 -181 8 -8 8 -17 0 -31 -6 -11 -9 -27 -6 -34 3 -8 -1 -41 -10 -73 -8 -33 -15 -78 -15 -102 0 -43 17 -93 32 -93 4 0 8 -14 8 -31 0 -35 13 -63 45 -99 12 -14 34 -46 48 -71 26 -46 64 -79 90 -79 7 0 25 -17 38 -37 28 -44 90 -81 145 -87 21 -2 58 -11 82 -20 59 -22 247 -18 284 6 13 9 41 16 62 16 48 0 124 46 145 89 10 19 26 33 41 36 33 7 79 52 98 97 8 19 23 41 34 49 24 16 48 70 48 106 0 14 4 25 8 25 15 0 32 49 32 88 0 21 -6 63 -14 93 -14 52 -16 77 -13 210 0 48 -5 65 -32 108 -18 28 -41 77 -50 108 -13 47 -23 61 -48 73 -28 14 -31 21 -37 74 -12 120 -48 180 -158 267 l-48 37 48 40 c64 53 100 75 125 77 53 5 243 36 276 45 113 31 175 106 225 268 l7 22 -906 0 -906 0 6 -22z m984 -684 c35 -29 45 -82 14 -69 -10 4 -55 10 -101 13 -78 4 -82 6 -76 26 17 60 108 77 163 30z m-319 -380 c0 -8 -5 -12 -10 -9 -19 11 -22 -25 -5 -51 l16 -25 -38 7 c-51 9 -53 11 -53 44 0 33 21 49 63 50 18 0 27 -5 27 -16z m434 -5 c-3 -5 -10 -7 -15 -4 -13 9 -11 -39 3 -53 18 -18 -6 -16 -43 4 -43 22 -37 57 11 65 39 6 53 2 44 -12z m118 4 c18 -16 25 -58 11 -66 -5 -2 -25 -7 -46 -11 -30 -6 -39 -4 -44 10 -6 17 15 37 30 27 13 -8 -3 41 -17 49 -6 4 2 8 18 8 16 0 38 -7 48 -17z m-431 -9 c11 -14 10 -19 -10 -35 -26 -21 -68 -35 -78 -25 -9 9 18 37 30 29 6 -4 8 3 3 21 -6 23 -3 26 18 26 13 0 30 -7 37 -16z"/>
 </g>
<g id="layer106" fill="#3087af" stroke="none">
 <path d="M95 1978 c32 -109 108 -208 189 -248 45 -21 257 -62 305 -58 29 2 63 -18 143 -85 l47 -40 -37 -27 c-61 -44 -137 -134 -150 -177 -7 -22 -15 -68 -18 -102 -6 -49 -10 -61 -25 -61 -21 0 -59 -45 -59 -70 0 -10 -20 -57 -45 -106 -46 -89 -58 -157 -34 -181 8 -8 8 -17 0 -31 -6 -11 -9 -27 -6 -34 3 -8 -1 -41 -10 -73 -8 -33 -15 -78 -15 -102 0 -43 17 -93 32 -93 4 0 8 -14 8 -31 0 -35 13 -63 45 -99 12 -14 34 -46 48 -71 26 -46 64 -79 90 -79 7 0 25 -17 38 -37 28 -44 90 -81 145 -87 21 -2 58 -11 82 -20 59 -22 247 -18 284 6 13 9 41 16 62 16 48 0 124 46 145 89 10 19 26 33 41 36 33 7 79 52 98 97 8 19 23 41 34 49 24 16 48 70 48 106 0 14 4 25 8 25 15 0 32 49 32 88 0 21 -6 63 -14 93 -14 52 -16 77 -13 210 0 48 -5 65 -32 108 -18 28 -41 77 -50 108 -13 47 -23 61 -48 73 -28 14 -31 21 -37 74 -12 120 -48 180 -158 267 l-48 37 48 40 c64 53 100 75 125 77 53 5 243 36 276 45 113 31 175 106 225 268 l7 22 -906 0 -906 0 6 -22z m941 -658 c33 0 84 -54 76 -82 -3 -15 -10 -18 -26 -13 -11 3 -56 9 -99 12 -62 5 -77 9 -73 20 4 8 6 21 6 29 0 17 58 46 78 39 8 -3 25 -5 38 -5z m-276 -401 c0 -11 -5 -17 -10 -14 -19 11 -22 -25 -5 -51 l16 -25 -38 7 c-51 9 -53 11 -53 44 0 32 8 40 54 51 17 4 32 7 34 8 1 1 2 -8 2 -20z m434 -10 c-3 -5 -10 -7 -15 -4 -13 9 -11 -39 3 -53 18 -18 -6 -16 -43 4 -43 22 -37 57 11 65 39 6 53 2 44 -12z m120 5 c16 -16 22 -60 9 -67 -5 -2 -25 -7 -46 -11 -30 -6 -39 -4 -44 10 -6 17 15 37 30 27 13 -8 -3 41 -17 49 -6 4 3 8 21 8 17 0 39 -7 47 -16z m-433 -10 c11 -14 10 -19 -10 -35 -26 -21 -68 -35 -78 -25 -9 9 18 37 30 29 6 -4 8 3 3 21 -6 23 -3 26 18 26 13 0 30 -7 37 -16z"/>
 </g>
<g id="layer107" fill="#93614a" stroke="none">
 <path d="M95 1978 c32 -109 108 -208 189 -248 45 -21 257 -62 305 -58 29 2 63 -18 143 -85 l47 -40 -37 -27 c-61 -44 -137 -134 -150 -177 -7 -22 -15 -68 -18 -102 -6 -49 -10 -61 -25 -61 -21 0 -59 -45 -59 -70 0 -10 -20 -57 -45 -106 -46 -89 -58 -157 -34 -181 8 -8 8 -17 0 -31 -6 -11 -9 -27 -6 -34 3 -8 -1 -41 -10 -73 -8 -33 -15 -78 -15 -102 0 -43 17 -93 32 -93 4 0 8 -14 8 -31 0 -35 13 -63 45 -99 12 -14 34 -46 48 -71 26 -46 64 -79 90 -79 7 0 25 -17 38 -37 28 -44 90 -81 145 -87 21 -2 58 -11 82 -20 59 -22 247 -18 284 6 13 9 41 16 62 16 48 0 124 46 145 89 10 19 26 33 41 36 33 7 79 52 98 97 8 19 23 41 34 49 24 16 48 70 48 106 0 14 4 25 8 25 15 0 32 49 32 88 0 21 -6 63 -14 93 -14 52 -16 77 -13 210 0 48 -5 65 -32 108 -18 28 -41 77 -50 108 -13 47 -23 61 -48 73 -28 14 -31 21 -37 74 -12 120 -48 180 -158 267 l-48 37 48 40 c64 53 100 75 125 77 53 5 243 36 276 45 93 26 162 92 199 192 33 90 35 98 19 98 -8 0 -19 -19 -27 -42 -31 -105 -90 -182 -163 -213 -32 -13 -204 -45 -246 -45 -40 0 9 14 91 26 126 19 181 39 221 81 35 36 80 116 92 166 l7 27 -887 0 -886 0 6 -22z m110 -132 c49 -62 116 -93 249 -116 62 -11 95 -20 84 -24 -22 -10 -176 19 -232 44 -49 20 -110 78 -140 131 -22 39 -15 33 39 -35z m1050 -32 c33 -23 76 -58 94 -78 21 -21 45 -37 60 -37 25 -2 25 -2 3 -6 -17 -3 -35 7 -67 36 -23 22 -72 61 -107 86 -102 76 -90 75 17 -1z m-640 -94 c-26 -27 -75 -43 -60 -20 3 6 14 10 24 10 10 0 26 9 36 20 10 11 20 20 23 20 3 0 -7 -13 -23 -30z m421 -400 c33 0 84 -54 76 -82 -3 -15 -10 -18 -26 -13 -11 3 -56 9 -99 12 -62 5 -77 9 -73 20 4 8 6 21 6 29 0 17 58 46 78 39 8 -3 25 -5 38 -5z m-276 -401 c0 -11 -5 -17 -10 -14 -19 11 -22 -25 -5 -51 l16 -25 -38 7 c-51 9 -53 11 -53 44 0 32 8 40 54 51 17 4 32 7 34 8 1 1 2 -8 2 -20z m434 -10 c-3 -5 -10 -7 -15 -4 -13 9 -11 -39 3 -53 18 -18 -6 -16 -43 4 -43 22 -37 57 11 65 39 6 53 2 44 -12z m120 5 c16 -16 22 -60 9 -67 -5 -2 -25 -7 -46 -11 -30 -6 -39 -4 -44 10 -6 17 15 37 30 27 13 -8 -3 41 -17 49 -6 4 3 8 21 8 17 0 39 -7 47 -16z m-433 -10 c11 -14 10 -19 -10 -35 -26 -21 -68 -35 -78 -25 -9 9 18 37 30 29 6 -4 8 3 3 21 -6 23 -3 26 18 26 13 0 30 -7 37 -16z"/>
 </g>
<g id="layer108" fill="#1e78a2" stroke="none">
 <path d="M95 1978 c32 -109 108 -208 189 -248 45 -21 257 -62 305 -58 15 1 41 -8 58 -20 17 -12 34 -22 38 -22 4 0 16 -11 27 -26 11 -14 23 -23 25 -20 3 3 13 -5 23 -16 17 -21 17 -23 -19 -48 -60 -44 -136 -134 -149 -177 -7 -22 -15 -68 -18 -102 -6 -49 -10 -61 -25 -61 -21 0 -59 -45 -59 -70 0 -10 -20 -57 -45 -106 -46 -89 -58 -157 -34 -181 8 -8 8 -17 0 -31 -6 -11 -9 -27 -6 -34 3 -8 -1 -41 -10 -73 -8 -33 -15 -78 -15 -102 0 -43 17 -93 32 -93 4 0 8 -14 8 -31 0 -35 13 -63 45 -99 12 -14 34 -46 48 -71 26 -46 64 -79 90 -79 7 0 25 -17 38 -37 28 -44 90 -81 145 -87 21 -2 58 -11 82 -20 59 -22 247 -18 284 6 13 9 41 16 62 16 48 0 124 46 145 89 10 19 26 33 41 36 33 7 79 52 98 97 8 19 23 41 34 49 24 16 48 70 48 106 0 14 4 25 8 25 15 0 32 49 32 88 0 21 -6 63 -14 93 -14 52 -16 77 -13 210 0 48 -5 65 -32 108 -18 28 -41 77 -50 108 -13 47 -23 61 -48 73 -28 14 -31 21 -37 74 -12 120 -48 180 -157 266 l-48 38 46 41 c25 22 48 41 50 41 2 0 15 8 29 17 14 9 36 17 47 18 53 5 243 36 276 45 93 26 162 92 199 192 33 90 35 98 19 98 -8 0 -19 -19 -27 -42 -31 -105 -90 -182 -163 -213 -32 -13 -204 -45 -246 -45 -40 0 9 14 91 26 126 19 181 39 221 81 35 36 80 116 92 166 l7 27 -887 0 -886 0 6 -22z m1050 -125 l80 -54 -50 6 c-27 4 -64 10 -81 15 l-31 8 21 -51 c20 -47 21 -49 24 -21 l3 30 67 -4 c69 -4 113 -24 161 -76 l22 -23 -76 -57 c-41 -31 -75 -61 -75 -66 0 -13 -75 15 -132 50 -62 38 -98 38 -161 -1 -59 -36 -127 -62 -127 -49 0 5 -38 37 -85 72 l-86 63 45 41 c39 36 52 42 107 48 34 3 75 6 92 6 l30 0 -6 -62 -6 -63 23 73 c13 40 30 80 37 89 12 15 12 16 -6 9 -39 -14 -148 -37 -164 -34 -9 2 43 34 114 70 126 64 131 66 155 51 14 -9 61 -41 105 -70z m-940 -7 c49 -62 116 -93 249 -116 62 -11 95 -20 84 -24 -22 -10 -176 19 -232 44 -49 20 -110 78 -140 131 -22 39 -15 33 39 -35z m1050 -32 c33 -23 76 -58 94 -78 21 -21 45 -37 60 -37 25 -2 25 -2 3 -6 -17 -3 -35 7 -67 36 -23 22 -72 61 -107 86 -102 76 -90 75 17 -1z m-640 -94 c-26 -27 -75 -43 -60 -20 3 6 14 10 24 10 10 0 26 9 36 20 10 11 20 20 23 20 3 0 -7 -13 -23 -30z m323 -262 c7 -7 12 -26 12 -42 1 -39 18 -61 53 -68 33 -6 37 -1 45 59 9 62 27 72 85 44 56 -27 133 -94 153 -133 8 -16 22 -64 30 -106 8 -45 30 -108 51 -151 21 -41 46 -104 56 -140 10 -36 23 -84 29 -106 7 -22 11 -78 11 -123 -1 -73 -5 -89 -27 -121 -14 -20 -26 -44 -26 -53 0 -16 -92 -78 -116 -78 -8 0 -37 11 -64 25 -28 14 -62 24 -77 23 -16 -1 -37 3 -48 9 -26 15 -180 15 -214 1 -14 -6 -35 -10 -46 -9 -11 1 -42 -12 -68 -29 -59 -37 -73 -37 -117 -2 -19 16 -43 31 -52 35 -10 3 -18 14 -18 24 0 9 -12 34 -26 55 -23 33 -27 48 -27 120 0 46 4 101 11 123 6 22 19 69 27 105 9 36 21 73 26 83 50 94 69 142 80 202 6 39 20 86 30 106 22 44 94 110 152 138 49 24 59 25 75 9z m-384 -320 c-4 -13 -11 -34 -17 -48 -6 -14 -9 -30 -8 -37 1 -6 -3 -14 -9 -18 -6 -4 -7 1 -4 12 5 16 4 16 -10 -1 -9 -11 -16 -15 -16 -9 0 7 5 15 11 18 6 4 8 14 5 22 -4 8 -2 11 5 7 8 -4 9 1 4 15 -4 15 -1 29 11 42 23 26 37 24 28 -3z m922 -3 c9 -14 14 -32 10 -40 -3 -9 2 -28 12 -43 9 -14 12 -23 6 -19 -15 9 -24 -14 -18 -45 l5 -23 -11 23 c-5 13 -7 28 -4 33 3 6 0 18 -8 27 -12 15 -11 16 5 3 10 -8 17 -9 17 -3 0 6 -9 17 -19 24 -22 15 -40 88 -22 88 6 0 18 -11 27 -25z m-990 -173 c1 -15 5 -38 8 -52 5 -21 4 -20 -8 5 -17 34 -21 20 -6 -19 8 -21 6 -26 -11 -31 -29 -10 -31 -3 -14 45 8 23 15 54 15 68 0 33 15 18 16 -16z m1053 -59 c1 -46 -12 -56 -29 -22 -9 16 -8 32 2 66 11 39 14 42 19 21 4 -12 7 -42 8 -65z"/>
 <path d="M975 1860 c-4 -6 7 -10 25 -10 18 0 29 4 25 10 -3 6 -15 10 -25 10 -10 0 -22 -4 -25 -10z"/>
 <path d="M891 1264 c-12 -15 -20 -29 -18 -31 9 -8 37 10 43 29 9 31 -2 32 -25 2z"/>
 <path d="M1112 1231 c2 -14 9 -26 16 -29 17 -5 15 10 -3 34 -15 18 -15 18 -13 -5z"/>
 <path d="M970 1181 c-33 -9 -36 -35 -11 -109 12 -34 21 -81 22 -104 1 -42 1 -42 10 -13 6 17 8 70 5 119 -4 59 -2 94 5 102 12 15 8 16 -31 5z"/>
 <path d="M690 930 c-11 -7 -5 -8 20 -4 43 8 51 14 19 14 -13 0 -31 -5 -39 -10z"/>
 <path d="M760 919 c0 -11 -5 -17 -10 -14 -19 11 -22 -25 -5 -51 l16 -25 -38 7 c-49 9 -53 11 -53 37 0 20 -1 21 -17 3 -17 -16 -17 -18 6 -37 15 -13 40 -19 75 -20 l51 -2 -60 -7 c-33 -4 -68 -11 -77 -15 -43 -18 -9 -25 117 -25 74 0 135 4 135 8 0 4 -17 14 -37 22 l-38 13 32 11 c39 13 52 26 58 54 2 14 -3 25 -15 32 -15 8 -17 6 -13 -10 4 -14 -4 -25 -28 -39 -35 -22 -69 -27 -69 -12 0 14 26 32 35 23 4 -4 5 5 1 21 -5 21 -3 27 11 28 23 1 -23 17 -54 18 -17 1 -23 -5 -23 -20z"/>
 <path d="M1150 930 l-35 -8 35 1 c19 1 35 -3 35 -8 0 -6 -3 -9 -7 -7 -13 4 -9 -43 4 -56 18 -18 -6 -16 -42 3 -19 10 -30 23 -30 36 0 29 -24 18 -28 -13 -2 -17 4 -30 21 -41 27 -17 125 -38 171 -35 25 1 22 2 -14 8 l-45 7 43 1 c39 2 102 25 102 38 0 3 -7 12 -15 20 -13 14 -15 13 -15 -5 0 -24 -4 -26 -53 -35 -30 -6 -39 -4 -44 10 -6 17 15 37 30 27 13 -8 -3 40 -17 50 -6 5 5 7 26 5 20 -2 34 0 32 4 -6 10 -107 8 -154 -2z"/>
 <path d="M1321 745 c-54 -38 -83 -40 -147 -11 -31 14 -66 26 -78 26 -20 -1 -20 -1 4 -21 42 -35 117 -69 153 -69 42 0 117 51 117 80 0 25 -7 25 -49 -5z"/>
 <path d="M1516 924 c-4 -14 -5 -29 -2 -31 3 -3 8 7 12 21 3 15 4 29 1 32 -2 3 -8 -7 -11 -22z"/>
 </g>
<g id="layer109" fill="#6c5f5b" stroke="none">
 <path d="M95 1979 c32 -110 108 -209 189 -249 45 -21 257 -62 305 -58 15 1 41 -8 58 -20 17 -12 34 -22 38 -22 4 0 16 -11 27 -26 11 -14 23 -23 25 -20 3 3 13 -5 23 -16 17 -21 17 -23 -19 -48 -60 -44 -136 -134 -149 -177 -7 -22 -15 -68 -18 -102 -6 -49 -10 -61 -25 -61 -21 0 -59 -45 -59 -70 0 -10 -20 -57 -45 -106 -46 -89 -58 -157 -34 -181 8 -8 8 -17 0 -31 -6 -11 -9 -27 -6 -34 3 -8 -1 -41 -10 -73 -8 -33 -15 -78 -15 -102 0 -43 17 -93 32 -93 4 0 8 -14 8 -31 0 -35 13 -63 45 -99 12 -14 34 -46 48 -71 26 -46 64 -79 90 -79 7 0 25 -17 38 -37 28 -44 90 -81 145 -87 21 -2 58 -11 82 -20 59 -22 247 -18 284 6 13 9 41 16 62 16 48 0 124 46 145 89 10 19 26 33 41 36 33 7 79 52 98 97 8 19 23 41 34 49 24 16 48 70 48 106 0 14 4 25 8 25 15 0 32 49 32 88 0 21 -6 63 -14 93 -14 52 -16 77 -13 210 0 48 -5 65 -32 108 -18 28 -41 77 -50 108 -13 47 -23 61 -48 73 -28 14 -31 21 -37 74 -12 120 -48 180 -157 266 l-48 38 46 41 c25 22 48 41 50 41 2 0 15 8 29 17 14 9 36 17 47 18 53 5 243 36 276 45 93 26 162 92 199 192 33 88 35 101 22 96 -7 -2 -22 -31 -34 -64 -55 -151 -117 -195 -316 -224 -72 -11 -135 -22 -141 -26 -6 -3 -38 21 -72 53 -34 33 -124 101 -201 152 -101 68 -135 96 -125 102 11 7 10 9 -4 9 -26 0 -305 -144 -349 -180 -20 -16 -51 -49 -70 -73 l-33 -42 57 51 c70 64 141 110 243 161 103 52 122 58 141 42 13 -10 -2 -21 -93 -64 -132 -63 -209 -111 -263 -165 l-41 -41 -82 11 c-113 15 -205 44 -255 80 -44 32 -98 107 -124 175 -17 44 -45 64 -33 24z m1050 -126 l80 -54 -50 6 c-27 4 -64 10 -81 15 l-31 8 21 -51 c20 -47 21 -49 24 -21 l3 30 67 -4 c69 -4 113 -24 161 -76 l22 -23 -76 -57 c-41 -31 -75 -61 -75 -66 0 -13 -75 15 -132 50 -62 38 -98 38 -161 -1 -59 -36 -127 -62 -127 -49 0 5 -38 37 -85 72 l-86 63 45 41 c39 36 52 42 107 48 34 3 75 6 92 6 l30 0 -6 -62 -6 -63 23 73 c13 40 30 80 37 89 12 15 12 16 -6 9 -39 -14 -148 -37 -164 -34 -9 2 43 34 114 70 126 64 131 66 155 51 14 -9 61 -41 105 -70z m-207 -395 c7 -7 12 -26 12 -42 1 -39 18 -61 53 -68 33 -6 37 -1 45 59 9 62 27 72 85 44 56 -27 133 -94 153 -133 8 -16 22 -64 30 -106 8 -45 30 -108 51 -151 21 -41 46 -104 56 -140 10 -36 23 -84 29 -106 7 -22 11 -78 11 -123 -1 -73 -5 -89 -27 -121 -14 -20 -26 -44 -26 -53 0 -16 -92 -78 -116 -78 -8 0 -37 11 -64 25 -28 14 -62 24 -77 23 -16 -1 -37 3 -48 9 -26 15 -180 15 -214 1 -14 -6 -35 -10 -46 -9 -11 1 -42 -12 -68 -29 -59 -37 -73 -37 -117 -2 -19 16 -43 31 -52 35 -10 3 -18 14 -18 24 0 9 -12 34 -26 55 -23 33 -27 48 -27 120 0 46 4 101 11 123 6 22 19 69 27 105 9 36 21 73 26 83 50 94 69 142 80 202 6 39 20 86 30 106 22 44 94 110 152 138 49 24 59 25 75 9z m-384 -320 c-4 -13 -11 -34 -17 -48 -6 -14 -9 -30 -8 -37 1 -6 -3 -14 -9 -18 -6 -4 -7 1 -4 12 5 16 4 16 -10 -1 -9 -11 -16 -15 -16 -9 0 7 5 15 11 18 6 4 8 14 5 22 -4 8 -2 11 5 7 8 -4 9 1 4 15 -4 15 -1 29 11 42 23 26 37 24 28 -3z m922 -3 c9 -14 14 -32 10 -40 -3 -9 2 -28 12 -43 9 -14 12 -23 6 -19 -15 9 -24 -14 -18 -45 l5 -23 -11 23 c-5 13 -7 28 -4 33 3 6 0 18 -8 27 -12 15 -11 16 5 3 10 -8 17 -9 17 -3 0 6 -9 17 -19 24 -22 15 -40 88 -22 88 6 0 18 -11 27 -25z m-990 -173 c1 -15 5 -38 8 -52 5 -21 4 -20 -8 5 -17 34 -21 20 -6 -19 8 -21 6 -26 -11 -31 -29 -10 -31 -3 -14 45 8 23 15 54 15 68 0 33 15 18 16 -16z m1053 -59 c1 -46 -12 -56 -29 -22 -9 16 -8 32 2 66 11 39 14 42 19 21 4 -12 7 -42 8 -65z"/>
 <path d="M975 1860 c-4 -6 7 -10 25 -10 18 0 29 4 25 10 -3 6 -15 10 -25 10 -10 0 -22 -4 -25 -10z"/>
 <path d="M891 1264 c-12 -15 -20 -29 -18 -31 9 -8 37 10 43 29 9 31 -2 32 -25 2z"/>
 <path d="M1112 1231 c2 -14 9 -26 16 -29 17 -5 15 10 -3 34 -15 18 -15 18 -13 -5z"/>
 <path d="M970 1181 c-33 -9 -36 -35 -11 -109 12 -34 21 -81 22 -104 1 -42 1 -42 10 -13 6 17 8 70 5 119 -4 59 -2 94 5 102 12 15 8 16 -31 5z"/>
 <path d="M690 930 c-11 -7 -5 -8 20 -4 43 8 51 14 19 14 -13 0 -31 -5 -39 -10z"/>
 <path d="M760 919 c0 -11 -5 -17 -10 -14 -19 11 -22 -25 -5 -51 l16 -25 -38 7 c-49 9 -53 11 -53 37 0 20 -1 21 -17 3 -17 -16 -17 -18 6 -37 15 -13 40 -19 75 -20 l51 -2 -60 -7 c-33 -4 -68 -11 -77 -15 -43 -18 -9 -25 117 -25 74 0 135 4 135 8 0 4 -17 14 -37 22 l-38 13 32 11 c39 13 52 26 58 54 2 14 -3 25 -15 32 -15 8 -17 6 -13 -10 4 -14 -4 -25 -28 -39 -35 -22 -69 -27 -69 -12 0 14 26 32 35 23 4 -4 5 5 1 21 -5 21 -3 27 11 28 23 1 -23 17 -54 18 -17 1 -23 -5 -23 -20z"/>
 <path d="M1150 930 l-35 -8 35 1 c19 1 35 -3 35 -8 0 -6 -3 -9 -7 -7 -13 4 -9 -43 4 -56 18 -18 -6 -16 -42 3 -19 10 -30 23 -30 36 0 29 -24 18 -28 -13 -2 -17 4 -30 21 -41 27 -17 125 -38 171 -35 25 1 22 2 -14 8 l-45 7 43 1 c39 2 102 25 102 38 0 3 -7 12 -15 20 -13 14 -15 13 -15 -5 0 -24 -4 -26 -53 -35 -30 -6 -39 -4 -44 10 -6 17 15 37 30 27 13 -8 -3 40 -17 50 -6 5 5 7 26 5 20 -2 34 0 32 4 -6 10 -107 8 -154 -2z"/>
 <path d="M1321 745 c-54 -38 -83 -40 -147 -11 -31 14 -66 26 -78 26 -20 -1 -20 -1 4 -21 42 -35 117 -69 153 -69 42 0 117 51 117 80 0 25 -7 25 -49 -5z"/>
 <path d="M1516 924 c-4 -14 -5 -29 -2 -31 3 -3 8 7 12 21 3 15 4 29 1 32 -2 3 -8 -7 -11 -22z"/>
 <path d="M1050 1996 c0 -2 48 -39 108 -82 59 -43 142 -109 186 -147 43 -37 81 -65 85 -61 10 10 -162 155 -280 234 -83 56 -99 65 -99 56z"/>
 </g>
<g id="layer110" fill="#176d95" stroke="none">
 <path d="M95 1979 c32 -110 108 -209 190 -249 57 -28 307 -69 313 -52 2 8 10 6 23 -7 11 -10 32 -24 47 -32 15 -8 35 -24 46 -37 10 -13 21 -21 23 -18 3 3 13 -5 23 -16 17 -21 17 -23 -19 -48 -60 -44 -136 -134 -149 -177 -7 -22 -15 -68 -18 -102 -6 -49 -10 -61 -25 -61 -21 0 -59 -45 -59 -70 0 -10 -20 -57 -45 -106 -46 -89 -58 -157 -34 -181 8 -8 8 -17 0 -31 -6 -11 -9 -27 -6 -34 3 -8 -1 -41 -10 -73 -8 -33 -15 -78 -15 -102 0 -43 17 -93 32 -93 4 0 8 -14 8 -31 0 -35 13 -63 45 -99 12 -14 34 -46 48 -71 26 -46 64 -79 90 -79 7 0 25 -17 38 -37 28 -44 90 -81 145 -87 21 -2 58 -11 82 -20 59 -22 247 -18 284 6 13 9 41 16 62 16 48 0 124 46 145 89 10 19 26 33 41 36 33 7 79 52 98 97 8 19 23 41 34 49 24 16 48 70 48 106 0 14 4 25 8 25 15 0 32 49 32 88 0 21 -6 63 -14 93 -14 52 -16 77 -13 210 0 48 -5 65 -32 108 -18 28 -41 77 -50 108 -13 47 -23 61 -48 73 -28 14 -31 21 -37 74 -12 120 -48 180 -157 266 l-48 38 46 41 c25 22 49 41 53 41 4 0 19 11 33 24 14 13 27 20 29 15 2 -6 22 -6 53 0 28 6 95 17 149 26 184 29 251 89 311 284 5 16 3 22 -5 19 -7 -2 -22 -31 -34 -64 -55 -151 -117 -195 -316 -224 -72 -11 -135 -22 -141 -26 -6 -3 -38 21 -72 53 -34 33 -124 101 -201 152 -101 68 -135 96 -125 102 11 7 10 9 -4 9 -26 0 -305 -144 -349 -180 -20 -16 -51 -49 -70 -73 l-33 -42 57 51 c70 64 141 110 243 161 103 52 122 58 141 42 13 -10 -2 -21 -93 -64 -132 -63 -209 -111 -263 -165 l-41 -41 -82 11 c-113 15 -205 44 -255 80 -44 32 -98 107 -124 175 -17 44 -45 64 -33 24z m1018 -100 c51 -34 97 -66 102 -71 11 -10 -64 -3 -121 12 l-31 8 21 -51 c20 -47 21 -49 24 -21 l3 30 67 -4 c75 -5 89 -11 149 -60 l41 -35 -79 -58 c-43 -33 -79 -63 -79 -69 0 -13 -74 15 -132 50 -62 38 -98 38 -162 -1 -28 -18 -66 -37 -84 -43 -32 -11 -36 -10 -70 22 -21 18 -63 51 -94 72 l-57 38 46 38 c48 39 93 52 192 53 l44 1 -6 -62 -6 -63 23 73 c13 40 29 79 36 87 15 18 12 18 -26 5 -45 -16 -177 -39 -168 -30 7 7 262 138 272 139 1 1 44 -27 95 -60z m-175 -421 c7 -7 12 -26 12 -42 1 -39 18 -61 53 -68 33 -6 37 -1 45 59 9 62 27 72 85 44 56 -27 133 -94 153 -133 8 -16 22 -64 30 -106 8 -45 30 -108 51 -151 21 -41 46 -104 56 -140 10 -36 23 -84 29 -106 7 -22 11 -78 11 -123 -1 -73 -5 -89 -27 -121 -14 -20 -26 -44 -26 -53 0 -16 -92 -78 -116 -78 -8 0 -37 11 -64 25 -28 14 -62 24 -77 23 -16 -1 -37 3 -48 9 -26 15 -180 15 -214 1 -14 -6 -35 -10 -46 -9 -11 1 -42 -12 -68 -29 -59 -37 -73 -37 -117 -2 -19 16 -43 31 -52 35 -10 3 -18 14 -18 24 0 9 -12 34 -26 55 -23 33 -27 48 -27 120 0 46 4 101 11 123 6 22 19 69 27 105 9 36 21 73 26 83 50 94 69 142 80 202 6 39 20 86 30 106 22 44 94 110 152 138 49 24 59 25 75 9z m-384 -320 c-4 -13 -11 -34 -17 -48 -6 -14 -9 -30 -8 -37 1 -6 -3 -14 -9 -18 -6 -4 -7 1 -4 12 5 16 4 16 -10 -1 -9 -11 -16 -15 -16 -9 0 7 5 15 11 18 6 4 8 14 5 22 -4 8 -2 11 5 7 8 -4 9 1 4 15 -4 15 -1 29 11 42 23 26 37 24 28 -3z m922 -3 c9 -14 14 -32 10 -40 -3 -9 2 -28 12 -43 9 -14 12 -23 6 -19 -15 9 -24 -14 -18 -45 l5 -23 -11 23 c-5 13 -7 28 -4 33 3 6 0 18 -8 27 -12 15 -11 16 5 3 10 -8 17 -9 17 -3 0 6 -9 17 -19 24 -22 15 -40 88 -22 88 6 0 18 -11 27 -25z m-990 -173 c1 -15 5 -38 8 -52 5 -21 4 -20 -8 5 -17 34 -21 20 -6 -19 8 -21 6 -26 -11 -31 -29 -10 -31 -3 -14 45 8 23 15 54 15 68 0 33 15 18 16 -16z m1053 -59 c1 -46 -12 -56 -29 -22 -9 16 -8 32 2 66 11 39 14 42 19 21 4 -12 7 -42 8 -65z"/>
 <path d="M975 1860 c-4 -6 7 -10 25 -10 18 0 29 4 25 10 -3 6 -15 10 -25 10 -10 0 -22 -4 -25 -10z"/>
 <path d="M903 1278 c-21 -28 -24 -38 -9 -38 8 0 18 9 21 21 8 25 2 34 -12 17z"/>
 <path d="M1113 1225 c0 -8 6 -16 14 -19 17 -7 17 8 0 23 -10 8 -14 7 -14 -4z"/>
 <path d="M970 1181 c-33 -9 -36 -35 -11 -109 12 -34 21 -81 22 -104 1 -42 1 -42 10 -13 6 17 8 70 5 119 -4 59 -2 94 5 102 12 15 8 16 -31 5z"/>
 <path d="M763 920 c-3 -11 -12 -20 -19 -20 -18 0 -18 -20 2 -48 14 -21 14 -22 -5 -22 -39 0 -71 19 -71 42 0 21 -1 22 -17 4 -17 -16 -17 -18 6 -37 15 -13 40 -19 75 -20 l51 -2 -60 -7 c-33 -4 -68 -11 -77 -15 -43 -18 -9 -25 117 -25 74 0 135 4 135 8 0 4 -17 14 -37 22 l-38 13 32 11 c39 13 52 26 58 54 2 14 -3 25 -13 31 -15 8 -18 5 -17 -16 0 -21 -7 -29 -42 -41 -23 -9 -45 -13 -49 -9 -10 10 16 38 29 30 6 -4 8 3 3 20 -4 16 -2 27 6 30 7 2 5 3 -4 2 -10 -2 -18 1 -18 6 0 18 -42 9 -47 -11z"/>
 <path d="M1150 930 l-35 -8 39 1 c24 1 41 -3 44 -11 2 -6 -3 -12 -12 -12 -19 0 -21 -31 -4 -48 18 -18 -6 -16 -42 3 -19 10 -30 23 -30 36 0 29 -24 18 -28 -13 -2 -17 4 -30 21 -41 27 -17 125 -38 171 -35 25 1 22 2 -14 8 l-45 7 43 1 c39 2 102 25 102 38 0 3 -7 12 -15 20 -13 14 -15 13 -15 -5 0 -25 -6 -29 -58 -37 -37 -6 -42 -4 -42 13 0 11 10 24 22 30 l22 10 -26 26 c-28 28 -39 30 -98 17z"/>
 <path d="M1250 936 c0 -2 13 -6 29 -8 17 -2 28 -1 25 4 -5 8 -54 12 -54 4z"/>
 <path d="M1321 745 c-54 -38 -83 -40 -147 -11 -31 14 -66 26 -78 26 -20 -1 -20 -1 4 -21 42 -35 117 -69 153 -69 42 0 117 51 117 80 0 25 -7 25 -49 -5z"/>
 <path d="M1516 924 c-4 -14 -5 -29 -2 -31 3 -3 8 7 12 21 3 15 4 29 1 32 -2 3 -8 -7 -11 -22z"/>
 <path d="M1050 1996 c0 -2 48 -39 108 -82 59 -43 142 -109 186 -147 43 -37 81 -65 85 -61 10 10 -162 155 -280 234 -83 56 -99 65 -99 56z"/>
 </g>
<g id="layer111" fill="#814e37" stroke="none">
 <path d="M95 1978 c32 -109 108 -208 190 -248 57 -28 307 -69 313 -52 2 8 10 6 23 -7 11 -10 32 -24 47 -32 15 -8 35 -24 46 -37 10 -13 21 -21 23 -18 3 3 13 -5 23 -16 17 -21 17 -23 -19 -48 -60 -44 -136 -134 -149 -177 -7 -22 -15 -68 -18 -102 -6 -49 -10 -61 -25 -61 -21 0 -59 -45 -59 -70 0 -10 -20 -57 -45 -106 -46 -89 -58 -157 -34 -181 8 -8 8 -17 0 -31 -6 -11 -9 -27 -6 -34 3 -8 -1 -41 -10 -73 -8 -33 -15 -78 -15 -102 0 -43 17 -93 32 -93 4 0 8 -14 8 -31 0 -35 13 -63 45 -99 12 -14 34 -46 48 -71 26 -46 64 -79 90 -79 7 0 25 -17 38 -37 28 -44 90 -81 145 -87 21 -2 58 -11 82 -20 59 -22 247 -18 284 6 13 9 41 16 62 16 48 0 124 46 145 89 10 19 26 33 41 36 33 7 79 52 98 97 8 19 23 41 34 49 24 16 48 70 48 106 0 14 4 25 8 25 15 0 32 49 32 88 0 21 -6 63 -14 93 -14 52 -16 77 -13 210 0 48 -5 65 -32 108 -18 28 -41 77 -50 108 -13 47 -23 61 -48 73 -28 14 -31 21 -37 74 -12 120 -48 180 -157 266 l-48 38 46 41 c25 22 49 41 53 41 4 0 19 11 33 24 14 13 27 20 29 15 2 -6 22 -6 53 0 28 6 95 17 149 26 184 29 251 89 311 284 5 16 3 22 -5 19 -7 -2 -23 -32 -35 -66 -40 -111 -98 -173 -185 -201 -19 -6 -78 -17 -130 -24 l-95 -13 -76 71 c-79 73 -306 241 -315 233 -2 -3 8 -13 23 -23 55 -36 229 -169 292 -224 58 -51 61 -56 43 -64 -17 -8 -33 1 -94 57 -40 37 -129 104 -198 149 -69 45 -124 88 -123 95 2 6 0 12 -3 12 -3 0 -72 -32 -152 -72 -130 -64 -155 -81 -222 -146 -73 -72 -73 -73 -9 -16 70 63 182 133 291 182 57 26 69 28 85 17 10 -7 16 -15 13 -18 -3 -2 -61 -32 -130 -65 -128 -63 -236 -135 -263 -176 -14 -21 -20 -23 -54 -15 -21 4 -78 15 -127 24 -108 20 -172 51 -220 107 -33 38 -73 111 -90 161 -8 26 -29 21 -21 -5z m1018 -99 c51 -34 97 -66 102 -71 11 -10 -64 -3 -121 12 l-31 8 21 -51 c20 -47 21 -49 24 -21 l3 30 67 -4 c75 -5 89 -11 149 -60 l41 -35 -79 -58 c-43 -33 -79 -63 -79 -69 0 -13 -74 15 -132 50 -62 38 -98 38 -162 -1 -28 -18 -66 -37 -84 -43 -32 -11 -36 -10 -70 22 -21 18 -63 51 -94 72 l-57 38 46 38 c48 39 93 52 192 53 l44 1 -6 -62 -6 -63 23 73 c13 40 29 79 36 87 15 18 12 18 -26 5 -45 -16 -177 -39 -168 -30 7 7 262 138 272 139 1 1 44 -27 95 -60z m-175 -421 c7 -7 12 -26 12 -42 1 -39 18 -61 53 -68 33 -6 37 -1 45 59 9 62 27 72 85 44 56 -27 133 -94 153 -133 8 -16 22 -64 30 -106 8 -45 30 -108 51 -151 21 -41 46 -104 56 -140 10 -36 23 -84 29 -106 7 -22 11 -78 11 -123 -1 -73 -5 -89 -27 -121 -14 -20 -26 -44 -26 -53 0 -16 -92 -78 -116 -78 -8 0 -37 11 -64 25 -28 14 -62 24 -77 23 -16 -1 -37 3 -48 9 -26 15 -180 15 -214 1 -14 -6 -35 -10 -46 -9 -11 1 -42 -12 -68 -29 -59 -37 -73 -37 -117 -2 -19 16 -43 31 -52 35 -10 3 -18 14 -18 24 0 9 -12 34 -26 55 -23 33 -27 48 -27 120 0 46 4 101 11 123 6 22 19 69 27 105 9 36 21 73 26 83 50 94 69 142 80 202 6 39 20 86 30 106 22 44 94 110 152 138 49 24 59 25 75 9z m-384 -320 c-4 -13 -11 -34 -17 -48 -6 -14 -9 -30 -8 -37 1 -6 -3 -14 -9 -18 -6 -4 -7 1 -4 12 5 16 4 16 -10 -1 -9 -11 -16 -15 -16 -9 0 7 5 15 11 18 6 4 8 14 5 22 -4 8 -2 11 5 7 8 -4 9 1 4 15 -4 15 -1 29 11 42 23 26 37 24 28 -3z m922 -3 c9 -14 14 -32 10 -40 -3 -9 2 -28 12 -43 9 -14 12 -23 6 -19 -15 9 -24 -14 -18 -45 l5 -23 -11 23 c-5 13 -7 28 -4 33 3 6 0 18 -8 27 -12 15 -11 16 5 3 10 -8 17 -9 17 -3 0 6 -9 17 -19 24 -22 15 -40 88 -22 88 6 0 18 -11 27 -25z m-990 -173 c1 -15 5 -38 8 -52 5 -21 4 -20 -8 5 -17 34 -21 20 -6 -19 8 -21 6 -26 -11 -31 -29 -10 -31 -3 -14 45 8 23 15 54 15 68 0 33 15 18 16 -16z m1053 -59 c1 -46 -12 -56 -29 -22 -9 16 -8 32 2 66 11 39 14 42 19 21 4 -12 7 -42 8 -65z"/>
 <path d="M975 1860 c-4 -6 7 -10 25 -10 18 0 29 4 25 10 -3 6 -15 10 -25 10 -10 0 -22 -4 -25 -10z"/>
 <path d="M903 1278 c-21 -28 -24 -38 -9 -38 8 0 18 9 21 21 8 25 2 34 -12 17z"/>
 <path d="M1113 1225 c0 -8 6 -16 14 -19 17 -7 17 8 0 23 -10 8 -14 7 -14 -4z"/>
 <path d="M970 1181 c-33 -9 -36 -35 -11 -109 12 -34 21 -81 22 -104 1 -42 1 -42 10 -13 6 17 8 70 5 119 -4 59 -2 94 5 102 12 15 8 16 -31 5z"/>
 <path d="M763 920 c-3 -11 -12 -20 -19 -20 -18 0 -18 -20 2 -48 14 -21 14 -22 -5 -22 -39 0 -71 19 -71 42 0 21 -1 22 -17 4 -17 -16 -17 -18 6 -37 15 -13 40 -19 75 -20 l51 -2 -60 -7 c-33 -4 -68 -11 -77 -15 -43 -18 -9 -25 117 -25 74 0 135 4 135 8 0 4 -17 14 -37 22 l-38 13 32 11 c39 13 52 26 58 54 2 14 -3 25 -13 31 -15 8 -18 5 -17 -16 0 -21 -7 -29 -42 -41 -23 -9 -45 -13 -49 -9 -10 10 16 38 29 30 6 -4 8 3 3 20 -4 16 -2 27 6 30 7 2 5 3 -4 2 -10 -2 -18 1 -18 6 0 18 -42 9 -47 -11z"/>
 <path d="M1150 930 l-35 -8 39 1 c24 1 41 -3 44 -11 2 -6 -3 -12 -12 -12 -19 0 -21 -31 -4 -48 18 -18 -6 -16 -42 3 -19 10 -30 23 -30 36 0 29 -24 18 -28 -13 -2 -17 4 -30 21 -41 27 -17 125 -38 171 -35 25 1 22 2 -14 8 l-45 7 43 1 c39 2 102 25 102 38 0 3 -7 12 -15 20 -13 14 -15 13 -15 -5 0 -25 -6 -29 -58 -37 -37 -6 -42 -4 -42 13 0 11 10 24 22 30 l22 10 -26 26 c-28 28 -39 30 -98 17z"/>
 <path d="M1250 936 c0 -2 13 -6 29 -8 17 -2 28 -1 25 4 -5 8 -54 12 -54 4z"/>
 <path d="M1321 745 c-54 -38 -83 -40 -147 -11 -31 14 -66 26 -78 26 -20 -1 -20 -1 4 -21 42 -35 117 -69 153 -69 42 0 117 51 117 80 0 25 -7 25 -49 -5z"/>
 <path d="M1516 924 c-4 -14 -5 -29 -2 -31 3 -3 8 7 12 21 3 15 4 29 1 32 -2 3 -8 -7 -11 -22z"/>
 </g>
<g id="layer112" fill="#106288" stroke="none">
 <path d="M95 1978 c18 -62 66 -147 104 -185 61 -60 114 -82 258 -105 l128 -20 41 39 c61 58 123 98 267 170 l127 63 78 -51 c104 -70 213 -152 257 -194 36 -33 39 -34 83 -25 26 5 92 16 146 25 184 29 251 89 311 284 5 16 3 22 -5 19 -7 -2 -23 -32 -35 -66 -40 -111 -98 -173 -185 -201 -19 -6 -78 -17 -130 -24 l-95 -13 -76 71 c-79 73 -306 241 -315 233 -2 -3 8 -13 23 -23 55 -36 229 -169 292 -224 58 -51 61 -56 43 -64 -17 -8 -33 1 -94 57 -40 37 -129 104 -198 149 -69 45 -124 88 -123 95 2 6 0 12 -3 12 -3 0 -72 -32 -152 -72 -130 -64 -155 -81 -222 -146 -73 -72 -73 -73 -9 -16 70 63 182 133 291 182 57 26 69 28 85 17 10 -7 16 -15 13 -18 -3 -2 -61 -32 -130 -65 -128 -63 -236 -135 -263 -176 -14 -21 -20 -23 -54 -15 -21 4 -78 15 -127 24 -108 20 -172 51 -220 107 -33 38 -73 111 -90 161 -8 26 -29 21 -21 -5z"/>
 <path d="M640 1660 c0 -5 7 -10 15 -10 8 0 15 -4 15 -10 0 -5 8 -10 18 -10 14 0 12 4 -8 20 -28 22 -40 25 -40 10z"/>
 <path d="M1320 1650 c-20 -16 -22 -20 -7 -20 9 0 17 5 17 10 0 6 7 10 15 10 8 0 15 5 15 10 0 15 -12 12 -40 -10z"/>
 <path d="M1259 1604 c-12 -14 -11 -16 5 -13 11 2 21 10 24 17 5 17 -13 15 -29 -4z"/>
 <path d="M722 1601 c2 -7 7 -12 11 -12 12 1 9 15 -3 20 -7 2 -11 -2 -8 -8z"/>
 <path d="M870 1574 c-90 -24 -135 -51 -202 -122 -68 -73 -84 -107 -94 -211 -6 -53 -10 -61 -28 -61 -20 -1 -20 -1 -3 -14 17 -13 17 -17 -3 -97 -11 -46 -24 -91 -27 -99 -4 -8 -8 -30 -10 -49 -4 -42 -19 -61 -45 -61 -15 0 -18 5 -12 23 3 12 3 19 -1 14 -5 -4 -17 0 -27 10 -17 15 -18 15 -18 -6 0 -12 4 -20 9 -16 17 10 33 -31 17 -44 -7 -6 -17 -7 -22 -3 -4 4 -3 -1 5 -10 9 -12 10 -22 2 -37 -6 -11 -9 -26 -6 -33 3 -8 -1 -41 -10 -73 -8 -33 -15 -78 -15 -102 0 -43 17 -93 32 -93 4 0 8 -14 8 -31 0 -35 13 -63 45 -99 12 -14 34 -46 48 -71 26 -46 64 -79 90 -79 7 0 25 -17 38 -37 28 -44 90 -81 145 -87 21 -2 58 -11 82 -20 59 -22 247 -18 284 6 13 9 41 16 62 16 48 0 124 46 145 89 10 19 26 33 41 36 33 7 79 52 98 97 8 19 23 41 34 49 24 16 48 70 48 106 0 14 4 25 8 25 28 0 40 93 21 165 -19 74 -26 159 -16 182 5 12 6 42 3 68 -6 37 -10 44 -21 35 -16 -13 -26 8 -18 39 3 12 1 21 -5 21 -5 0 -13 11 -16 25 -4 14 -11 25 -16 25 -14 0 -12 -12 6 -38 8 -12 13 -26 10 -31 -9 -14 15 -72 28 -69 6 2 12 -2 13 -7 0 -6 -3 -9 -8 -8 -5 2 -9 -6 -9 -17 0 -26 -31 -27 -53 -2 -10 10 -17 29 -17 41 0 13 -12 70 -27 127 -15 57 -24 107 -20 110 4 4 15 -1 26 -10 11 -10 21 -13 25 -7 7 10 -31 41 -50 41 -6 0 -14 26 -18 61 -11 110 -24 138 -102 216 -41 42 -90 80 -115 91 -100 43 -236 53 -339 26z m78 -144 c4 -54 21 -80 53 -80 34 0 42 12 49 70 4 37 9 46 27 48 28 4 96 -31 155 -80 49 -41 65 -76 88 -191 6 -32 31 -97 56 -145 24 -48 44 -100 44 -115 0 -15 7 -44 16 -65 21 -48 26 -80 27 -179 1 -73 -2 -85 -26 -120 -15 -22 -27 -47 -27 -56 0 -9 -13 -23 -28 -31 -16 -8 -34 -22 -41 -30 -19 -23 -62 -20 -115 10 -25 14 -56 24 -68 23 -13 -2 -33 1 -46 5 -39 13 -165 15 -207 4 -22 -7 -48 -10 -58 -9 -10 1 -40 -11 -66 -28 -56 -36 -91 -39 -117 -10 -10 12 -31 27 -46 35 -16 8 -28 22 -28 31 0 9 -11 30 -24 47 -13 17 -26 41 -30 54 -12 36 -8 152 5 168 6 8 9 20 6 28 -3 8 1 29 9 45 8 17 17 47 20 68 3 21 25 79 50 128 28 57 50 119 59 167 22 120 41 147 150 213 77 46 109 45 113 -5z"/>
 <path d="M903 1278 c-21 -28 -24 -38 -9 -38 8 0 18 9 21 21 8 25 2 34 -12 17z"/>
 <path d="M1113 1225 c0 -8 6 -16 14 -19 17 -7 17 8 0 23 -10 8 -14 7 -14 -4z"/>
 <path d="M966 1161 c-16 -17 -16 -22 -2 -56 9 -21 16 -48 16 -61 0 -12 5 -26 11 -30 8 -5 10 6 5 37 -3 24 -6 51 -7 59 -1 8 -6 21 -12 28 -7 9 -5 17 9 27 10 8 14 15 8 15 -6 0 -19 -9 -28 -19z"/>
 <path d="M763 920 c-3 -11 -12 -20 -19 -20 -18 0 -18 -20 2 -48 14 -21 14 -22 -5 -22 -38 0 -71 19 -71 40 0 19 -2 20 -15 6 -21 -21 -19 -25 20 -42 45 -18 126 -18 172 1 46 19 36 31 -11 14 -20 -7 -39 -10 -42 -6 -10 10 17 38 29 30 6 -4 8 3 3 20 -4 16 -2 27 6 30 7 2 5 3 -4 2 -10 -2 -21 1 -24 6 -10 16 -36 9 -41 -11z"/>
 <path d="M1197 934 c-3 -3 -3 -12 0 -20 3 -8 -1 -14 -11 -14 -19 0 -21 -31 -4 -48 20 -20 -12 -15 -52 8 l-35 21 27 -25 c50 -45 181 -48 222 -5 12 12 15 19 9 15 -8 -4 -13 -2 -14 6 0 7 -4 4 -9 -8 -8 -19 -45 -34 -86 -34 -22 0 -16 36 8 47 l22 10 -26 26 c-27 27 -40 32 -51 21z"/>
 <path d="M670 795 c-19 -7 -33 -14 -30 -15 20 -4 240 -4 240 0 0 10 -90 30 -133 29 -23 0 -58 -7 -77 -14z"/>
 <path d="M1090 751 c0 -12 108 -67 147 -76 34 -7 79 11 114 46 41 41 14 53 -33 14 -38 -32 -87 -32 -156 0 -58 27 -72 30 -72 16z"/>
 <path d="M468 1050 c-9 -22 -12 -42 -8 -45 9 -5 40 55 40 76 0 22 -16 5 -32 -31z"/>
 <path d="M1497 994 c-6 -33 -1 -42 13 -28 7 7 7 20 2 34 -9 24 -9 24 -15 -6z"/>
 <path d="M434 964 c4 -16 3 -23 -3 -19 -7 3 -8 0 -5 -9 9 -24 18 -19 31 15 10 26 10 29 -3 18 -12 -10 -13 -9 -8 5 4 9 1 16 -6 16 -8 0 -10 -9 -6 -26z"/>
 </g>
<g id="layer113" fill="#4f4f4e" stroke="none">
 <path d="M95 1978 c24 -81 96 -198 121 -198 7 0 14 -6 17 -14 9 -24 94 -57 179 -71 111 -18 123 -6 17 15 -46 10 -103 25 -126 35 -58 23 -134 108 -169 189 -27 63 -53 91 -39 44z"/>
 <path d="M1869 1963 c-19 -59 -56 -129 -89 -166 -40 -46 -108 -74 -219 -88 -62 -9 -87 -16 -76 -21 9 -6 52 -3 107 7 177 30 244 93 302 283 4 12 3 22 -3 22 -5 0 -15 -17 -22 -37z"/>
 <path d="M950 1979 c-12 -9 -12 -10 4 -5 11 4 26 0 37 -10 17 -16 10 -21 -132 -91 -116 -58 -164 -88 -212 -133 -52 -49 -67 -57 -90 -53 -16 3 -27 1 -27 -6 0 -26 58 -10 97 28 60 57 124 97 266 168 l127 63 78 -51 c104 -70 213 -152 257 -194 30 -28 42 -33 66 -28 16 3 32 10 36 16 4 6 -7 7 -31 3 -35 -7 -41 -4 -98 49 -44 41 -350 256 -362 255 0 0 -8 -5 -16 -11z"/>
 <path d="M1100 1966 c0 -2 14 -14 30 -26 17 -12 30 -19 30 -16 0 2 -13 14 -30 26 -16 12 -30 19 -30 16z"/>
 <path d="M1200 1893 c19 -15 76 -63 127 -105 51 -43 93 -76 93 -73 0 8 -157 139 -206 173 -37 25 -41 26 -14 5z"/>
 <path d="M695 1846 c-28 -18 -57 -42 -65 -51 -8 -10 5 -3 30 16 25 19 57 42 70 51 14 9 23 17 20 17 -3 1 -28 -14 -55 -33z"/>
 <path d="M640 1660 c0 -5 7 -10 15 -10 8 0 15 -4 15 -10 0 -5 8 -10 18 -10 14 0 12 4 -8 20 -28 22 -40 25 -40 10z"/>
 <path d="M1320 1650 c-20 -16 -22 -20 -7 -20 9 0 17 5 17 10 0 6 7 10 15 10 8 0 15 5 15 10 0 15 -12 12 -40 -10z"/>
 <path d="M1259 1604 c-12 -14 -11 -16 5 -13 11 2 21 10 24 17 5 17 -13 15 -29 -4z"/>
 <path d="M722 1601 c2 -7 7 -12 11 -12 12 1 9 15 -3 20 -7 2 -11 -2 -8 -8z"/>
 <path d="M870 1574 c-90 -24 -135 -51 -202 -122 -68 -73 -84 -107 -94 -211 -6 -53 -10 -61 -28 -61 -20 -1 -20 -1 -3 -14 17 -13 17 -17 -3 -97 -11 -46 -24 -91 -27 -99 -4 -8 -8 -30 -10 -49 -4 -42 -19 -61 -45 -61 -15 0 -18 5 -12 23 3 12 3 19 -1 14 -5 -4 -17 0 -27 10 -17 15 -18 15 -18 -6 0 -12 4 -20 9 -16 17 10 33 -31 17 -44 -7 -6 -17 -7 -22 -3 -4 4 -3 -1 5 -10 9 -12 10 -22 2 -37 -6 -11 -9 -26 -6 -33 3 -8 -1 -41 -10 -73 -8 -33 -15 -78 -15 -102 0 -43 17 -93 32 -93 4 0 8 -14 8 -31 0 -35 13 -63 45 -99 12 -14 34 -46 48 -71 26 -46 64 -79 90 -79 7 0 25 -17 38 -37 28 -44 90 -81 145 -87 21 -2 58 -11 82 -20 59 -22 247 -18 284 6 13 9 41 16 62 16 48 0 124 46 145 89 10 19 26 33 41 36 33 7 79 52 98 97 8 19 23 41 34 49 24 16 48 70 48 106 0 14 4 25 8 25 28 0 40 93 21 165 -19 74 -26 159 -16 182 5 12 6 42 3 68 -6 37 -10 44 -21 35 -16 -13 -26 8 -18 39 3 12 1 21 -5 21 -5 0 -13 11 -16 25 -4 14 -11 25 -16 25 -14 0 -12 -12 6 -38 8 -12 13 -26 10 -31 -9 -14 15 -72 28 -69 6 2 12 -2 13 -7 0 -6 -3 -9 -8 -8 -5 2 -9 -6 -9 -17 0 -26 -31 -27 -53 -2 -10 10 -17 29 -17 41 0 13 -12 70 -27 127 -15 57 -24 107 -20 110 4 4 15 -1 26 -10 11 -10 21 -13 25 -7 7 10 -31 41 -50 41 -6 0 -14 26 -18 61 -11 110 -24 138 -102 216 -41 42 -90 80 -115 91 -100 43 -236 53 -339 26z m78 -144 c4 -54 21 -80 53 -80 34 0 42 12 49 70 4 37 9 46 27 48 28 4 96 -31 155 -80 49 -41 65 -76 88 -191 6 -32 31 -97 56 -145 24 -48 44 -100 44 -115 0 -15 7 -44 16 -65 21 -48 26 -80 27 -179 1 -73 -2 -85 -26 -120 -15 -22 -27 -47 -27 -56 0 -9 -13 -23 -28 -31 -16 -8 -34 -22 -41 -30 -19 -23 -62 -20 -115 10 -25 14 -56 24 -68 23 -13 -2 -33 1 -46 5 -39 13 -165 15 -207 4 -22 -7 -48 -10 -58 -9 -10 1 -40 -11 -66 -28 -56 -36 -91 -39 -117 -10 -10 12 -31 27 -46 35 -16 8 -28 22 -28 31 0 9 -11 30 -24 47 -13 17 -26 41 -30 54 -12 36 -8 152 5 168 6 8 9 20 6 28 -3 8 1 29 9 45 8 17 17 47 20 68 3 21 25 79 50 128 28 57 50 119 59 167 22 120 41 147 150 213 77 46 109 45 113 -5z"/>
 <path d="M903 1278 c-21 -28 -24 -38 -9 -38 8 0 18 9 21 21 8 25 2 34 -12 17z"/>
 <path d="M1113 1225 c0 -8 6 -16 14 -19 17 -7 17 8 0 23 -10 8 -14 7 -14 -4z"/>
 <path d="M966 1161 c-16 -17 -16 -22 -2 -56 9 -21 16 -48 16 -61 0 -12 5 -26 11 -30 8 -5 10 6 5 37 -3 24 -6 51 -7 59 -1 8 -6 21 -12 28 -7 9 -5 17 9 27 10 8 14 15 8 15 -6 0 -19 -9 -28 -19z"/>
 <path d="M763 920 c-3 -11 -12 -20 -19 -20 -18 0 -18 -20 2 -48 14 -21 14 -22 -5 -22 -38 0 -71 19 -71 40 0 19 -2 20 -15 6 -21 -21 -19 -25 20 -42 45 -18 126 -18 172 1 46 19 36 31 -11 14 -20 -7 -39 -10 -42 -6 -10 10 17 38 29 30 6 -4 8 3 3 20 -4 16 -2 27 6 30 7 2 5 3 -4 2 -10 -2 -21 1 -24 6 -10 16 -36 9 -41 -11z"/>
 <path d="M1197 934 c-3 -3 -3 -12 0 -20 3 -8 -1 -14 -11 -14 -19 0 -21 -31 -4 -48 20 -20 -12 -15 -52 8 l-35 21 27 -25 c50 -45 181 -48 222 -5 12 12 15 19 9 15 -8 -4 -13 -2 -14 6 0 7 -4 4 -9 -8 -8 -19 -45 -34 -86 -34 -22 0 -16 36 8 47 l22 10 -26 26 c-27 27 -40 32 -51 21z"/>
 <path d="M670 795 c-19 -7 -33 -14 -30 -15 20 -4 240 -4 240 0 0 10 -90 30 -133 29 -23 0 -58 -7 -77 -14z"/>
 <path d="M1090 751 c0 -12 108 -67 147 -76 34 -7 79 11 114 46 41 41 14 53 -33 14 -38 -32 -87 -32 -156 0 -58 27 -72 30 -72 16z"/>
 <path d="M468 1050 c-9 -22 -12 -42 -8 -45 9 -5 40 55 40 76 0 22 -16 5 -32 -31z"/>
 <path d="M1497 994 c-6 -33 -1 -42 13 -28 7 7 7 20 2 34 -9 24 -9 24 -15 -6z"/>
 <path d="M434 964 c4 -16 3 -23 -3 -19 -7 3 -8 0 -5 -9 9 -24 18 -19 31 15 10 26 10 29 -3 18 -12 -10 -13 -9 -8 5 4 9 1 16 -6 16 -8 0 -10 -9 -6 -26z"/>
 </g>
<g id="layer114" fill="#38505a" stroke="none">
 <path d="M95 1978 c24 -81 96 -198 121 -198 7 0 14 -6 17 -14 9 -24 94 -57 179 -71 111 -18 123 -6 17 15 -46 10 -103 25 -126 35 -58 23 -134 108 -169 189 -27 63 -53 91 -39 44z"/>
 <path d="M1869 1963 c-19 -59 -56 -129 -89 -166 -40 -46 -108 -74 -219 -88 -62 -9 -87 -16 -76 -21 9 -6 52 -3 107 7 177 30 244 93 302 283 4 12 3 22 -3 22 -5 0 -15 -17 -22 -37z"/>
 <path d="M950 1979 c-12 -9 -12 -10 4 -5 11 4 26 0 37 -10 17 -16 10 -21 -132 -91 -116 -58 -164 -88 -212 -133 -52 -49 -67 -57 -90 -53 -16 3 -27 1 -27 -6 0 -22 61 -12 82 14 34 43 142 113 278 181 l130 64 103 -69 c125 -83 257 -187 257 -202 0 -13 60 -2 75 13 7 7 -2 8 -28 4 -36 -7 -41 -4 -99 49 -44 41 -350 256 -362 255 0 0 -8 -5 -16 -11z"/>
 <path d="M1100 1966 c0 -2 14 -14 30 -26 17 -12 30 -19 30 -16 0 2 -13 14 -30 26 -16 12 -30 19 -30 16z"/>
 <path d="M1200 1893 c19 -15 76 -63 127 -105 51 -43 93 -76 93 -73 0 8 -157 139 -206 173 -37 25 -41 26 -14 5z"/>
 <path d="M695 1846 c-28 -18 -57 -42 -65 -51 -8 -10 5 -3 30 16 25 19 57 42 70 51 14 9 23 17 20 17 -3 1 -28 -14 -55 -33z"/>
 <path d="M640 1660 c0 -5 7 -10 15 -10 8 0 15 -4 15 -10 0 -5 8 -10 18 -10 14 0 12 4 -8 20 -28 22 -40 25 -40 10z"/>
 <path d="M1320 1650 c-20 -16 -22 -20 -7 -20 9 0 17 5 17 10 0 6 7 10 15 10 8 0 15 5 15 10 0 15 -12 12 -40 -10z"/>
 <path d="M1259 1604 c-12 -14 -11 -16 5 -13 11 2 21 10 24 17 5 17 -13 15 -29 -4z"/>
 <path d="M722 1601 c2 -7 7 -12 11 -12 12 1 9 15 -3 20 -7 2 -11 -2 -8 -8z"/>
 <path d="M870 1574 c-90 -24 -135 -51 -202 -122 -68 -73 -84 -107 -94 -211 -6 -53 -10 -61 -28 -61 -20 -1 -20 -1 -3 -14 17 -13 17 -17 -3 -97 -11 -46 -24 -91 -27 -99 -4 -8 -8 -30 -10 -49 -4 -42 -19 -61 -45 -61 -15 0 -18 5 -12 23 3 12 3 19 -1 14 -5 -4 -17 0 -27 10 -17 15 -18 15 -18 -6 0 -12 4 -20 9 -16 17 10 33 -31 17 -44 -7 -6 -17 -7 -22 -3 -4 4 -3 -1 5 -10 9 -12 10 -22 2 -37 -6 -11 -9 -26 -6 -33 3 -8 -1 -41 -10 -73 -8 -33 -15 -78 -15 -102 0 -43 17 -93 32 -93 4 0 8 -14 8 -31 0 -35 13 -63 45 -99 12 -14 34 -46 48 -71 26 -46 64 -79 90 -79 7 0 25 -17 38 -37 28 -44 90 -81 145 -87 21 -2 58 -11 82 -20 59 -22 247 -18 284 6 13 9 41 16 62 16 48 0 124 46 145 89 10 19 26 33 41 36 33 7 79 52 98 97 8 19 23 41 34 49 24 16 48 70 48 106 0 14 4 25 8 25 28 0 40 93 21 165 -19 74 -26 159 -16 182 5 12 6 42 3 68 -6 37 -10 44 -21 35 -16 -13 -26 8 -18 39 3 12 1 21 -5 21 -5 0 -13 11 -16 25 -4 14 -11 25 -16 25 -14 0 -12 -12 6 -38 8 -12 13 -26 10 -31 -9 -14 15 -72 28 -69 6 2 12 -2 13 -7 0 -6 -3 -9 -8 -8 -5 2 -9 -6 -9 -17 0 -26 -31 -27 -53 -2 -10 10 -17 29 -17 41 0 13 -12 70 -27 127 -15 57 -24 107 -20 110 4 4 15 -1 26 -10 11 -10 21 -13 25 -7 7 10 -31 41 -50 41 -6 0 -14 26 -18 61 -11 110 -24 138 -102 216 -41 42 -90 80 -115 91 -100 43 -236 53 -339 26z m78 -144 c4 -54 21 -80 53 -80 34 0 42 12 49 70 4 37 9 46 27 48 28 4 96 -31 155 -80 49 -41 65 -76 88 -191 6 -32 31 -97 56 -145 24 -48 44 -100 44 -115 0 -15 7 -44 16 -65 21 -48 26 -80 27 -179 1 -73 -2 -85 -26 -120 -15 -22 -27 -47 -27 -56 0 -9 -13 -23 -28 -31 -16 -8 -34 -22 -41 -30 -19 -23 -62 -20 -115 10 -25 14 -56 24 -68 23 -13 -2 -33 1 -46 5 -39 13 -165 15 -207 4 -22 -7 -48 -10 -58 -9 -10 1 -40 -11 -66 -28 -56 -36 -91 -39 -117 -10 -10 12 -31 27 -46 35 -16 8 -28 22 -28 31 0 9 -11 30 -24 47 -13 17 -26 41 -30 54 -12 36 -8 152 5 168 6 8 9 20 6 28 -3 8 1 29 9 45 8 17 17 47 20 68 3 21 25 79 50 128 28 57 50 119 59 167 22 120 41 147 150 213 77 46 109 45 113 -5z"/>
 <path d="M892 1260 c-7 -11 -9 -20 -4 -20 10 0 32 22 32 32 0 15 -15 8 -28 -12z"/>
 <path d="M966 1161 c-16 -17 -16 -22 -2 -56 9 -21 16 -48 16 -61 0 -12 5 -26 11 -30 8 -5 10 6 5 37 -3 24 -6 51 -7 59 -1 8 -6 21 -12 28 -7 9 -5 17 9 27 10 8 14 15 8 15 -6 0 -19 -9 -28 -19z"/>
 <path d="M1203 925 c4 -8 1 -17 -4 -21 -6 -3 -9 -15 -6 -25 3 -11 1 -17 -4 -13 -5 3 -9 13 -10 22 0 10 -3 12 -5 5 -3 -7 0 -22 6 -34 12 -20 11 -21 -16 -15 -16 4 -36 13 -44 19 -9 7 -6 2 7 -10 44 -42 178 -44 217 -2 12 12 16 19 9 15 -6 -3 -14 0 -16 6 -3 8 -6 6 -6 -5 -2 -29 -91 -52 -106 -26 -4 5 0 18 7 27 26 30 28 39 11 53 -14 12 -16 12 -9 0 6 -9 5 -12 -5 -9 -8 3 -13 11 -11 17 1 6 -3 11 -9 11 -6 0 -9 -7 -6 -15z"/>
 <path d="M754 895 c-3 -8 -3 -20 1 -27 4 -7 -1 -4 -9 6 -9 11 -16 14 -16 8 0 -7 9 -21 20 -32 l20 -20 -24 0 c-37 0 -76 18 -76 34 0 10 -6 13 -15 10 -45 -17 27 -54 105 -54 52 0 136 28 112 37 -8 3 -19 0 -25 -6 -16 -16 -57 -14 -57 3 0 8 5 16 12 18 6 2 9 12 5 21 -8 21 -46 22 -53 2z"/>
 <path d="M670 795 c-19 -7 -33 -14 -30 -15 20 -4 240 -4 240 0 0 10 -90 30 -133 29 -23 0 -58 -7 -77 -14z"/>
 <path d="M1090 751 c0 -12 108 -67 147 -76 34 -7 79 11 114 46 41 41 14 53 -33 14 -38 -32 -87 -32 -156 0 -58 27 -72 30 -72 16z"/>
 <path d="M468 1050 c-9 -22 -12 -42 -8 -45 9 -5 40 55 40 76 0 22 -16 5 -32 -31z"/>
 <path d="M1497 994 c-6 -33 -1 -42 13 -28 7 7 7 20 2 34 -9 24 -9 24 -15 -6z"/>
 <path d="M434 964 c4 -16 3 -23 -3 -19 -7 3 -8 0 -5 -9 9 -24 18 -19 31 15 10 26 10 29 -3 18 -12 -10 -13 -9 -8 5 4 9 1 16 -6 16 -8 0 -10 -9 -6 -26z"/>
 </g>
<g id="layer115" fill="#5b4235" stroke="none">
 <path d="M95 1978 c24 -81 96 -198 121 -198 7 0 14 -6 17 -14 9 -24 94 -57 179 -71 111 -18 123 -6 17 15 -46 10 -103 25 -126 35 -58 23 -134 108 -169 189 -27 63 -53 91 -39 44z"/>
 <path d="M1869 1963 c-19 -59 -56 -129 -89 -166 -40 -46 -108 -74 -219 -88 -62 -9 -87 -16 -76 -21 9 -6 52 -3 107 7 177 30 244 93 302 283 4 12 3 22 -3 22 -5 0 -15 -17 -22 -37z"/>
 <path d="M950 1979 c-12 -8 -10 -9 7 -4 12 3 24 1 27 -4 4 -5 52 -40 109 -77 119 -77 260 -186 280 -214 11 -16 21 -19 46 -14 17 4 34 11 38 17 4 6 -7 7 -31 3 -35 -7 -41 -4 -98 49 -44 41 -350 256 -362 255 0 0 -8 -5 -16 -11z"/>
 <path d="M1100 1966 c0 -2 14 -14 30 -26 17 -12 30 -19 30 -16 0 2 -13 14 -30 26 -16 12 -30 19 -30 16z"/>
 <path d="M825 1857 c-80 -41 -139 -81 -180 -119 -50 -47 -65 -55 -88 -51 -16 3 -27 1 -27 -6 0 -6 14 -11 31 -11 21 0 38 9 55 29 39 46 115 98 237 162 62 32 108 59 102 58 -5 0 -64 -28 -130 -62z"/>
 <path d="M1200 1893 c19 -15 76 -63 127 -105 51 -43 93 -76 93 -73 0 8 -157 139 -206 173 -37 25 -41 26 -14 5z"/>
 <path d="M695 1846 c-28 -18 -57 -42 -65 -51 -8 -10 5 -3 30 16 25 19 57 42 70 51 14 9 23 17 20 17 -3 1 -28 -14 -55 -33z"/>
 <path d="M640 1660 c0 -5 7 -10 15 -10 8 0 15 -4 15 -10 0 -5 8 -10 18 -10 14 0 12 4 -8 20 -28 22 -40 25 -40 10z"/>
 <path d="M1320 1650 c-20 -16 -22 -20 -7 -20 9 0 17 5 17 10 0 6 7 10 15 10 8 0 15 5 15 10 0 15 -12 12 -40 -10z"/>
 <path d="M1259 1604 c-12 -14 -11 -16 5 -13 11 2 21 10 24 17 5 17 -13 15 -29 -4z"/>
 <path d="M722 1601 c2 -7 7 -12 11 -12 12 1 9 15 -3 20 -7 2 -11 -2 -8 -8z"/>
 <path d="M870 1574 c-90 -24 -135 -51 -202 -122 -68 -73 -84 -107 -94 -211 -6 -53 -10 -61 -28 -61 -20 -1 -20 -1 -3 -14 17 -13 17 -17 -3 -97 -11 -46 -24 -91 -27 -99 -4 -8 -8 -30 -10 -49 -4 -42 -19 -61 -45 -61 -15 0 -18 5 -12 23 3 12 3 19 -1 14 -5 -4 -17 0 -27 10 -17 15 -18 15 -18 -6 0 -12 4 -20 9 -16 17 10 33 -31 17 -44 -7 -6 -17 -7 -22 -3 -4 4 -3 -1 5 -10 9 -12 10 -22 2 -37 -6 -11 -9 -26 -6 -33 3 -8 -1 -41 -10 -73 -8 -33 -15 -78 -15 -102 0 -43 17 -93 32 -93 4 0 8 -14 8 -31 0 -35 13 -63 45 -99 12 -14 34 -46 48 -71 26 -46 64 -79 90 -79 7 0 25 -17 38 -37 28 -44 90 -81 145 -87 21 -2 58 -11 82 -20 59 -22 247 -18 284 6 13 9 41 16 62 16 48 0 124 46 145 89 10 19 26 33 41 36 33 7 79 52 98 97 8 19 23 41 34 49 24 16 48 70 48 106 0 14 4 25 8 25 28 0 40 93 21 165 -19 74 -26 159 -16 182 5 12 6 42 3 68 -6 37 -10 44 -21 35 -16 -13 -26 8 -18 39 3 12 1 21 -5 21 -5 0 -13 11 -16 25 -4 14 -11 25 -16 25 -14 0 -12 -12 6 -38 8 -12 13 -26 10 -31 -9 -14 15 -72 28 -69 6 2 12 -2 13 -7 0 -6 -3 -9 -8 -8 -5 2 -9 -6 -9 -17 0 -26 -31 -27 -53 -2 -10 10 -17 29 -17 41 0 13 -12 70 -27 127 -15 57 -24 107 -20 110 4 4 15 -1 26 -10 11 -10 21 -13 25 -7 7 10 -31 41 -50 41 -6 0 -14 26 -18 61 -11 110 -24 138 -102 216 -41 42 -90 80 -115 91 -100 43 -236 53 -339 26z m78 -144 c4 -54 21 -80 53 -80 34 0 42 12 49 70 4 37 9 46 27 48 28 4 96 -31 155 -80 49 -41 65 -76 88 -191 6 -32 31 -97 56 -145 24 -48 44 -100 44 -115 0 -15 7 -44 16 -65 21 -48 26 -80 27 -179 1 -73 -2 -85 -26 -120 -15 -22 -27 -47 -27 -56 0 -9 -13 -23 -28 -31 -16 -8 -34 -22 -41 -30 -19 -23 -62 -20 -115 10 -25 14 -56 24 -68 23 -13 -2 -33 1 -46 5 -39 13 -165 15 -207 4 -22 -7 -48 -10 -58 -9 -10 1 -40 -11 -66 -28 -56 -36 -91 -39 -117 -10 -10 12 -31 27 -46 35 -16 8 -28 22 -28 31 0 9 -11 30 -24 47 -13 17 -26 41 -30 54 -12 36 -8 152 5 168 6 8 9 20 6 28 -3 8 1 29 9 45 8 17 17 47 20 68 3 21 25 79 50 128 28 57 50 119 59 167 22 120 41 147 150 213 77 46 109 45 113 -5z"/>
 <path d="M892 1260 c-7 -11 -9 -20 -4 -20 10 0 32 22 32 32 0 15 -15 8 -28 -12z"/>
 <path d="M966 1161 c-16 -17 -16 -22 -2 -56 9 -21 16 -48 16 -61 0 -12 5 -26 11 -30 8 -5 10 6 5 37 -3 24 -6 51 -7 59 -1 8 -6 21 -12 28 -7 9 -5 17 9 27 10 8 14 15 8 15 -6 0 -19 -9 -28 -19z"/>
 <path d="M1203 925 c4 -8 1 -17 -4 -21 -6 -3 -9 -15 -6 -25 3 -11 1 -17 -4 -13 -5 3 -9 13 -10 22 0 10 -3 12 -5 5 -3 -7 0 -22 6 -34 12 -20 11 -21 -16 -15 -16 4 -36 13 -44 19 -9 7 -6 2 7 -10 44 -42 178 -44 217 -2 12 12 16 19 9 15 -6 -3 -14 0 -16 6 -3 8 -6 6 -6 -5 -2 -29 -91 -52 -106 -26 -4 5 0 18 7 27 26 30 28 39 11 53 -14 12 -16 12 -9 0 6 -9 5 -12 -5 -9 -8 3 -13 11 -11 17 1 6 -3 11 -9 11 -6 0 -9 -7 -6 -15z"/>
 <path d="M754 895 c-3 -8 -3 -20 1 -27 4 -7 -1 -4 -9 6 -9 11 -16 14 -16 8 0 -7 9 -21 20 -32 l20 -20 -24 0 c-37 0 -76 18 -76 34 0 10 -6 13 -15 10 -45 -17 27 -54 105 -54 52 0 136 28 112 37 -8 3 -19 0 -25 -6 -16 -16 -57 -14 -57 3 0 8 5 16 12 18 6 2 9 12 5 21 -8 21 -46 22 -53 2z"/>
 <path d="M670 795 c-19 -7 -33 -14 -30 -15 20 -4 240 -4 240 0 0 10 -90 30 -133 29 -23 0 -58 -7 -77 -14z"/>
 <path d="M1090 751 c0 -12 108 -67 147 -76 34 -7 79 11 114 46 41 41 14 53 -33 14 -38 -32 -87 -32 -156 0 -58 27 -72 30 -72 16z"/>
 <path d="M468 1050 c-9 -22 -12 -42 -8 -45 9 -5 40 55 40 76 0 22 -16 5 -32 -31z"/>
 <path d="M1497 994 c-6 -33 -1 -42 13 -28 7 7 7 20 2 34 -9 24 -9 24 -15 -6z"/>
 <path d="M434 964 c4 -16 3 -23 -3 -19 -7 3 -8 0 -5 -9 9 -24 18 -19 31 15 10 26 10 29 -3 18 -12 -10 -13 -9 -8 5 4 9 1 16 -6 16 -8 0 -10 -9 -6 -26z"/>
 </g>
<g id="layer116" fill="#035276" stroke="none">
 <path d="M95 1978 c24 -81 96 -198 121 -198 7 0 14 -6 17 -14 9 -24 94 -57 179 -71 111 -18 123 -6 17 15 -46 10 -103 25 -126 35 -58 23 -134 108 -169 189 -27 63 -53 91 -39 44z"/>
 <path d="M1869 1963 c-19 -59 -56 -129 -89 -166 -40 -46 -108 -74 -219 -88 -62 -9 -87 -16 -76 -21 9 -6 52 -3 107 7 177 30 244 93 302 283 4 12 3 22 -3 22 -5 0 -15 -17 -22 -37z"/>
 <path d="M950 1979 c-12 -8 -10 -9 7 -4 12 3 24 1 27 -4 4 -5 52 -40 109 -77 119 -77 260 -186 280 -214 11 -16 21 -19 46 -14 17 4 34 11 38 17 4 6 -7 7 -31 3 -35 -7 -41 -4 -98 49 -44 41 -350 256 -362 255 0 0 -8 -5 -16 -11z"/>
 <path d="M1100 1966 c0 -2 14 -14 30 -26 17 -12 30 -19 30 -16 0 2 -13 14 -30 26 -16 12 -30 19 -30 16z"/>
 <path d="M825 1857 c-80 -41 -139 -81 -180 -119 -50 -47 -65 -55 -88 -51 -16 3 -27 1 -27 -6 0 -6 14 -11 31 -11 21 0 38 9 55 29 39 46 115 98 237 162 62 32 108 59 102 58 -5 0 -64 -28 -130 -62z"/>
 <path d="M1200 1893 c19 -15 76 -63 127 -105 51 -43 93 -76 93 -73 0 8 -157 139 -206 173 -37 25 -41 26 -14 5z"/>
 <path d="M695 1846 c-28 -18 -57 -42 -65 -51 -8 -10 5 -3 30 16 25 19 57 42 70 51 14 9 23 17 20 17 -3 1 -28 -14 -55 -33z"/>
 <path d="M640 1660 c0 -5 7 -10 15 -10 8 0 15 -4 15 -10 0 -5 8 -10 18 -10 14 0 12 4 -8 20 -28 22 -40 25 -40 10z"/>
 <path d="M1320 1650 c-20 -16 -22 -20 -7 -20 9 0 17 5 17 10 0 6 7 10 15 10 8 0 15 5 15 10 0 15 -12 12 -40 -10z"/>
 <path d="M1259 1604 c-12 -14 -11 -16 5 -13 11 2 21 10 24 17 5 17 -13 15 -29 -4z"/>
 <path d="M722 1601 c2 -7 7 -12 11 -12 12 1 9 15 -3 20 -7 2 -11 -2 -8 -8z"/>
 <path d="M870 1575 c-91 -26 -136 -53 -202 -123 -68 -73 -84 -107 -94 -211 -6 -53 -10 -61 -28 -61 -20 -1 -20 -1 -3 -14 17 -13 17 -17 -3 -97 -11 -46 -24 -91 -27 -99 -4 -8 -8 -30 -10 -49 -4 -42 -19 -61 -45 -61 -15 0 -18 5 -12 23 3 12 3 19 -1 14 -5 -4 -17 0 -27 10 -17 15 -18 15 -18 -6 0 -12 4 -20 9 -16 17 10 33 -31 17 -44 -7 -6 -17 -7 -22 -3 -4 4 -3 -1 5 -10 9 -12 10 -22 2 -37 -6 -11 -9 -26 -6 -33 3 -8 -1 -41 -10 -73 -8 -33 -15 -78 -15 -102 0 -43 17 -93 32 -93 4 0 8 -14 8 -31 0 -35 13 -63 45 -99 12 -14 34 -46 48 -71 26 -46 64 -79 90 -79 7 0 25 -17 38 -37 28 -44 90 -81 145 -87 21 -2 58 -11 82 -20 59 -22 247 -18 284 6 13 9 41 16 62 16 48 0 124 46 145 89 10 19 26 33 41 36 33 7 79 52 98 97 8 19 23 41 34 49 24 16 48 70 48 106 0 14 4 25 8 25 28 0 40 93 21 165 -19 74 -26 159 -16 182 5 12 6 42 3 68 -6 37 -10 44 -21 35 -16 -13 -26 8 -18 39 3 12 1 21 -5 21 -5 0 -13 11 -16 25 -4 14 -11 25 -16 25 -14 0 -12 -12 6 -38 8 -12 13 -26 10 -31 -9 -14 15 -72 28 -69 6 2 12 -2 13 -7 0 -6 -3 -9 -8 -8 -5 2 -9 -6 -9 -17 0 -13 -7 -20 -19 -20 -27 0 -51 27 -51 57 0 14 -12 72 -27 129 -15 57 -24 107 -20 110 4 4 15 -1 26 -10 11 -10 21 -13 25 -7 7 10 -31 41 -50 41 -6 0 -14 26 -18 61 -11 112 -24 138 -106 220 -63 63 -87 80 -141 98 -84 30 -232 37 -309 16z m78 -140 c6 -58 22 -85 53 -85 34 0 39 7 47 68 6 38 11 48 29 50 46 7 178 -81 208 -137 7 -15 20 -63 29 -106 10 -50 33 -114 61 -170 25 -49 45 -103 45 -118 0 -15 9 -46 19 -68 11 -22 17 -47 14 -55 -3 -8 0 -21 7 -28 7 -9 10 -43 9 -92 -3 -62 -8 -85 -27 -112 -12 -19 -26 -47 -29 -63 -3 -16 -10 -29 -16 -29 -5 0 -25 -11 -43 -25 -41 -32 -71 -32 -131 1 -31 16 -57 23 -74 20 -14 -3 -31 0 -36 5 -15 15 -162 19 -208 7 -22 -6 -48 -10 -58 -9 -10 1 -40 -11 -66 -28 -60 -39 -84 -39 -128 -1 -18 16 -40 30 -48 30 -8 0 -15 8 -15 18 0 10 -14 39 -31 65 -27 41 -30 54 -31 122 0 45 5 82 12 90 7 8 10 21 7 30 -4 8 3 34 13 57 11 24 20 56 20 72 0 16 18 61 40 101 27 49 47 103 60 164 10 49 26 103 34 120 30 57 158 143 206 138 20 -2 26 -8 28 -32z"/>
 <path d="M892 1260 c-7 -11 -9 -20 -4 -20 10 0 32 22 32 32 0 15 -15 8 -28 -12z"/>
 <path d="M966 1161 c-16 -17 -16 -22 -2 -56 9 -21 16 -48 16 -61 0 -12 5 -26 11 -30 8 -5 10 6 5 37 -3 24 -6 51 -7 59 -1 8 -6 21 -12 28 -7 9 -5 17 9 27 10 8 14 15 8 15 -6 0 -19 -9 -28 -19z"/>
 <path d="M1206 922 c2 -3 -1 -11 -7 -18 -6 -8 -9 -21 -5 -29 3 -9 2 -13 -4 -10 -6 3 -10 14 -11 23 0 10 -3 12 -5 5 -3 -7 0 -21 6 -32 13 -26 -2 -28 -44 -6 -25 13 -27 13 -16 0 16 -19 75 -35 125 -34 27 1 32 3 15 6 -37 7 -46 20 -28 40 26 31 28 40 11 54 -12 10 -14 10 -9 2 8 -15 -5 -17 -20 -4 -6 5 -9 6 -8 3z"/>
 <path d="M754 895 c-3 -8 -3 -20 1 -27 4 -7 -1 -4 -9 6 -9 11 -16 14 -16 8 0 -7 9 -21 19 -31 20 -20 20 -20 -7 -24 -18 -3 -13 -4 16 -6 40 -1 112 21 112 34 0 3 -9 1 -19 -5 -28 -14 -61 -12 -61 4 0 8 5 16 12 18 6 2 9 12 5 21 -8 21 -46 22 -53 2z"/>
 <path d="M656 865 c-8 -21 8 -35 39 -34 19 0 19 1 1 8 -11 4 -22 16 -26 26 -6 18 -7 18 -14 0z"/>
 <path d="M1330 867 c0 -10 -10 -22 -22 -27 -23 -9 -23 -9 -2 -9 28 -1 46 20 34 39 -8 13 -10 12 -10 -3z"/>
 <path d="M670 795 c-32 -12 -26 -13 90 -14 122 0 124 1 80 15 -56 17 -124 17 -170 -1z"/>
 <path d="M1090 750 c0 -5 4 -10 10 -10 5 0 31 -13 57 -30 68 -43 143 -40 193 10 42 42 16 55 -32 15 -40 -34 -101 -34 -159 0 -47 26 -69 31 -69 15z"/>
 <path d="M468 1050 c-9 -22 -12 -42 -8 -45 9 -5 40 55 40 76 0 22 -16 5 -32 -31z"/>
 <path d="M1497 994 c-6 -33 -1 -42 13 -28 7 7 7 20 2 34 -9 24 -9 24 -15 -6z"/>
 <path d="M434 964 c4 -16 3 -23 -3 -19 -7 3 -8 0 -5 -9 9 -24 18 -19 31 15 10 26 10 29 -3 18 -12 -10 -13 -9 -8 5 4 9 1 16 -6 16 -8 0 -10 -9 -6 -26z"/>
 </g>
<g id="layer117" fill="#663623" stroke="none">
 <path d="M640 1660 c0 -5 7 -10 15 -10 8 0 15 -4 15 -10 0 -5 8 -10 18 -10 14 0 12 4 -8 20 -28 22 -40 25 -40 10z"/>
 <path d="M1320 1650 c-20 -16 -22 -20 -7 -20 9 0 17 5 17 10 0 6 7 10 15 10 8 0 15 5 15 10 0 15 -12 12 -40 -10z"/>
 <path d="M1259 1604 c-12 -14 -11 -16 5 -13 11 2 21 10 24 17 5 17 -13 15 -29 -4z"/>
 <path d="M722 1601 c2 -7 7 -12 11 -12 12 1 9 15 -3 20 -7 2 -11 -2 -8 -8z"/>
 <path d="M870 1575 c-91 -26 -136 -53 -202 -123 -68 -73 -84 -107 -94 -211 -6 -53 -10 -61 -28 -61 -20 -1 -20 -1 -3 -14 17 -13 17 -17 -3 -97 -11 -46 -24 -91 -27 -99 -4 -8 -8 -30 -10 -49 -4 -42 -19 -61 -45 -61 -15 0 -18 5 -12 23 3 12 3 19 -1 14 -5 -4 -17 0 -27 10 -17 15 -18 15 -18 -6 0 -12 4 -20 9 -16 17 10 33 -31 17 -44 -7 -6 -17 -7 -22 -3 -4 4 -3 -1 5 -10 9 -12 10 -22 2 -37 -6 -11 -9 -26 -6 -33 3 -8 -1 -41 -10 -73 -8 -33 -15 -78 -15 -102 0 -43 17 -93 32 -93 4 0 8 -14 8 -31 0 -35 13 -63 45 -99 12 -14 34 -46 48 -71 26 -46 64 -79 90 -79 7 0 25 -17 38 -37 28 -44 90 -81 145 -87 21 -2 58 -11 82 -20 59 -22 247 -18 284 6 13 9 41 16 62 16 48 0 124 46 145 89 10 19 26 33 41 36 33 7 79 52 98 97 8 19 23 41 34 49 24 16 48 70 48 106 0 14 4 25 8 25 28 0 40 93 21 165 -19 74 -26 159 -16 182 5 12 6 42 3 68 -6 37 -10 44 -21 35 -16 -13 -26 8 -18 39 3 12 1 21 -5 21 -5 0 -13 11 -16 25 -4 14 -11 25 -16 25 -14 0 -12 -12 6 -38 8 -12 13 -26 10 -31 -9 -14 15 -72 28 -69 6 2 12 -2 13 -7 0 -6 -3 -9 -8 -8 -5 2 -9 -6 -9 -17 0 -13 -7 -20 -19 -20 -27 0 -51 27 -51 57 0 14 -12 72 -27 129 -15 57 -24 107 -20 110 4 4 15 -1 26 -10 11 -10 21 -13 25 -7 7 10 -31 41 -50 41 -6 0 -14 26 -18 61 -11 112 -24 138 -106 220 -63 63 -87 80 -141 98 -84 30 -232 37 -309 16z m78 -140 c6 -58 22 -85 53 -85 34 0 39 7 47 68 6 38 11 48 29 50 46 7 178 -81 208 -137 7 -15 20 -63 29 -106 10 -50 33 -114 61 -170 25 -49 45 -103 45 -118 0 -15 9 -46 19 -68 11 -22 17 -47 14 -55 -3 -8 0 -21 7 -28 7 -9 10 -43 9 -92 -3 -62 -8 -85 -27 -112 -12 -19 -26 -47 -29 -63 -3 -16 -10 -29 -16 -29 -5 0 -25 -11 -43 -25 -41 -32 -71 -32 -131 1 -31 16 -57 23 -74 20 -14 -3 -31 0 -36 5 -15 15 -162 19 -208 7 -22 -6 -48 -10 -58 -9 -10 1 -40 -11 -66 -28 -60 -39 -84 -39 -128 -1 -18 16 -40 30 -48 30 -8 0 -15 8 -15 18 0 10 -14 39 -31 65 -27 41 -30 54 -31 122 0 45 5 82 12 90 7 8 10 21 7 30 -4 8 3 34 13 57 11 24 20 56 20 72 0 16 18 61 40 101 27 49 47 103 60 164 10 49 26 103 34 120 30 57 158 143 206 138 20 -2 26 -8 28 -32z"/>
 <path d="M892 1260 c-7 -11 -9 -20 -4 -20 10 0 32 22 32 32 0 15 -15 8 -28 -12z"/>
 <path d="M966 1161 c-16 -17 -16 -22 -2 -56 9 -21 16 -48 16 -61 0 -12 5 -26 11 -30 8 -5 10 6 5 37 -3 24 -6 51 -7 59 -1 8 -6 21 -12 28 -7 9 -5 17 9 27 10 8 14 15 8 15 -6 0 -19 -9 -28 -19z"/>
 <path d="M1206 922 c2 -3 -1 -11 -7 -18 -6 -8 -9 -21 -5 -29 3 -9 2 -13 -4 -10 -6 3 -10 14 -11 23 0 10 -3 12 -5 5 -3 -7 0 -21 6 -32 13 -26 -2 -28 -44 -6 -25 13 -27 13 -16 0 16 -19 75 -35 125 -34 27 1 32 3 15 6 -37 7 -46 20 -28 40 26 31 28 40 11 54 -12 10 -14 10 -9 2 8 -15 -5 -17 -20 -4 -6 5 -9 6 -8 3z"/>
 <path d="M754 895 c-3 -8 -3 -20 1 -27 4 -7 -1 -4 -9 6 -9 11 -16 14 -16 8 0 -7 9 -21 19 -31 20 -20 20 -20 -7 -24 -18 -3 -13 -4 16 -6 40 -1 112 21 112 34 0 3 -9 1 -19 -5 -28 -14 -61 -12 -61 4 0 8 5 16 12 18 6 2 9 12 5 21 -8 21 -46 22 -53 2z"/>
 <path d="M656 865 c-8 -21 8 -35 39 -34 19 0 19 1 1 8 -11 4 -22 16 -26 26 -6 18 -7 18 -14 0z"/>
 <path d="M1330 867 c0 -10 -10 -22 -22 -27 -23 -9 -23 -9 -2 -9 28 -1 46 20 34 39 -8 13 -10 12 -10 -3z"/>
 <path d="M670 795 c-32 -12 -26 -13 90 -14 122 0 124 1 80 15 -56 17 -124 17 -170 -1z"/>
 <path d="M1090 750 c0 -5 4 -10 10 -10 5 0 31 -13 57 -30 68 -43 143 -40 193 10 42 42 16 55 -32 15 -40 -34 -101 -34 -159 0 -47 26 -69 31 -69 15z"/>
 <path d="M468 1050 c-9 -22 -12 -42 -8 -45 9 -5 40 55 40 76 0 22 -16 5 -32 -31z"/>
 <path d="M1497 994 c-6 -33 -1 -42 13 -28 7 7 7 20 2 34 -9 24 -9 24 -15 -6z"/>
 <path d="M434 964 c4 -16 3 -23 -3 -19 -7 3 -8 0 -5 -9 9 -24 18 -19 31 15 10 26 10 29 -3 18 -12 -10 -13 -9 -8 5 4 9 1 16 -6 16 -8 0 -10 -9 -6 -26z"/>
 </g>
<g id="layer118" fill="#3c4040" stroke="none">
 <path d="M910 1584 c-14 -3 -54 -15 -90 -26 -56 -18 -75 -32 -141 -97 -84 -85 -92 -102 -109 -246 -11 -91 -45 -231 -61 -251 -4 -5 -6 -20 -2 -32 7 -29 -22 -72 -48 -72 -16 0 -19 4 -14 21 5 15 4 19 -4 14 -7 -4 -11 -14 -9 -23 1 -10 -2 -24 -7 -32 -10 -17 -16 -43 -16 -80 -1 -14 -7 -50 -15 -80 -8 -30 -14 -73 -14 -97 0 -43 17 -93 32 -93 4 0 8 -14 8 -31 0 -35 13 -63 45 -99 12 -14 34 -46 48 -71 26 -46 64 -79 90 -79 7 0 25 -17 38 -37 28 -44 90 -81 145 -87 21 -2 58 -11 82 -20 59 -22 247 -18 284 6 13 9 41 16 62 16 48 0 124 46 145 89 10 19 26 33 41 36 33 7 79 52 98 97 8 19 23 41 34 49 24 16 48 70 48 106 0 14 4 25 8 25 15 0 32 49 32 88 0 21 -7 63 -15 95 -8 31 -16 81 -17 111 -2 57 -9 65 -65 81 -15 4 -25 16 -28 33 -3 15 -18 83 -35 152 -16 69 -31 154 -34 189 -10 112 -23 139 -106 222 -64 63 -87 80 -141 98 -63 22 -213 36 -269 25z m38 -149 c6 -58 22 -85 53 -85 34 0 39 7 47 68 6 38 11 48 29 50 46 7 178 -81 208 -137 7 -15 20 -63 29 -106 10 -50 33 -114 61 -170 25 -49 45 -103 45 -118 0 -15 9 -46 19 -68 11 -22 17 -47 14 -55 -3 -8 0 -21 7 -28 7 -9 10 -43 9 -92 -3 -62 -8 -85 -27 -112 -12 -19 -26 -47 -29 -63 -3 -16 -10 -29 -16 -29 -5 0 -25 -11 -43 -25 -41 -32 -71 -32 -131 1 -31 16 -57 23 -74 20 -14 -3 -31 0 -36 5 -15 15 -162 19 -208 7 -22 -6 -48 -10 -58 -9 -10 1 -40 -11 -66 -28 -60 -39 -84 -39 -128 -1 -18 16 -40 30 -48 30 -8 0 -15 8 -15 18 0 10 -14 39 -31 65 -27 41 -30 54 -31 122 0 45 5 82 12 90 7 8 10 21 7 30 -4 8 3 34 13 57 11 24 20 56 20 72 0 16 18 61 40 101 27 49 47 103 60 164 10 49 26 103 34 120 30 57 158 143 206 138 20 -2 26 -8 28 -32z"/>
 <path d="M892 1260 c-7 -11 -9 -20 -4 -20 10 0 32 22 32 32 0 15 -15 8 -28 -12z"/>
 <path d="M1206 922 c2 -3 -1 -11 -7 -18 -6 -8 -9 -21 -5 -29 3 -9 2 -13 -4 -10 -6 3 -10 14 -11 23 0 10 -3 12 -5 5 -3 -7 0 -21 6 -32 13 -26 -2 -28 -44 -6 -25 13 -27 13 -16 0 16 -19 75 -35 125 -34 27 1 32 3 15 6 -37 7 -46 20 -28 40 26 31 28 40 11 54 -12 10 -14 10 -9 2 8 -15 -5 -17 -20 -4 -6 5 -9 6 -8 3z"/>
 <path d="M754 895 c-3 -8 -3 -20 1 -27 4 -7 -1 -4 -9 6 -9 11 -16 14 -16 8 0 -7 9 -21 19 -31 20 -20 20 -20 -7 -24 -18 -3 -13 -4 16 -6 40 -1 112 21 112 34 0 3 -9 1 -19 -5 -28 -14 -61 -12 -61 4 0 8 5 16 12 18 6 2 9 12 5 21 -8 21 -46 22 -53 2z"/>
 <path d="M656 865 c-8 -21 8 -35 39 -34 19 0 19 1 1 8 -11 4 -22 16 -26 26 -6 18 -7 18 -14 0z"/>
 <path d="M1330 867 c0 -10 -10 -22 -22 -27 -23 -9 -23 -9 -2 -9 28 -1 46 20 34 39 -8 13 -10 12 -10 -3z"/>
 <path d="M701 799 c-75 -15 -59 -19 65 -18 72 0 109 4 94 8 -48 15 -115 19 -159 10z"/>
 <path d="M1316 732 c-47 -32 -100 -34 -149 -3 -61 37 -77 23 -17 -15 49 -32 61 -35 108 -31 41 3 59 10 82 32 52 50 38 59 -24 17z"/>
 </g>
<g id="layer119" fill="#2b242c" stroke="none">
 <path d="M910 1584 c-14 -3 -54 -15 -90 -26 -56 -18 -75 -32 -141 -97 -84 -85 -92 -102 -109 -246 -11 -91 -45 -231 -61 -251 -4 -5 -6 -20 -2 -32 7 -29 -22 -72 -48 -72 -16 0 -19 4 -14 21 5 15 4 19 -4 14 -7 -4 -11 -14 -9 -23 1 -10 -2 -24 -7 -32 -10 -17 -16 -43 -16 -80 -1 -14 -7 -50 -15 -80 -8 -30 -14 -73 -14 -97 0 -43 17 -93 32 -93 4 0 8 -14 8 -31 0 -35 13 -63 45 -99 12 -14 34 -46 48 -71 26 -46 64 -79 90 -79 7 0 25 -17 38 -37 28 -44 90 -81 145 -87 21 -2 58 -11 82 -20 59 -22 247 -18 284 6 13 9 41 16 62 16 48 0 124 46 145 89 10 19 26 33 41 36 33 7 79 52 98 97 8 19 23 41 34 49 24 16 48 70 48 106 0 14 4 25 8 25 15 0 32 49 32 88 0 21 -7 63 -15 95 -8 31 -16 81 -17 111 -2 57 -9 65 -65 81 -15 4 -25 16 -28 33 -3 15 -18 83 -35 152 -16 69 -31 154 -34 189 -10 112 -23 139 -106 222 -64 63 -87 80 -141 98 -63 22 -213 36 -269 25z m38 -149 c6 -58 22 -85 53 -85 34 0 39 7 47 68 6 38 11 48 29 50 46 7 178 -81 208 -137 7 -15 20 -63 29 -106 10 -50 33 -114 61 -170 25 -49 45 -103 45 -118 0 -15 9 -46 19 -68 11 -22 17 -47 14 -55 -3 -8 0 -21 7 -28 7 -9 10 -43 9 -92 -3 -62 -8 -85 -27 -112 -12 -19 -26 -47 -29 -63 -3 -16 -10 -29 -16 -29 -5 0 -25 -11 -43 -25 -41 -32 -71 -32 -131 1 -31 16 -57 23 -74 20 -14 -3 -31 0 -36 5 -15 15 -162 19 -208 7 -22 -6 -48 -10 -58 -9 -10 1 -40 -11 -66 -28 -60 -39 -84 -39 -128 -1 -18 16 -40 30 -48 30 -8 0 -15 8 -15 18 0 10 -14 39 -31 65 -27 41 -30 54 -31 122 0 45 5 82 12 90 7 8 10 21 7 30 -4 8 3 34 13 57 11 24 20 56 20 72 0 16 18 61 40 101 27 49 47 103 60 164 10 49 26 103 34 120 30 57 158 143 206 138 20 -2 26 -8 28 -32z m111 -1205 l12 -25 -20 24 c-14 15 -21 36 -20 60 l1 36 7 -35 c4 -19 13 -46 20 -60z m-63 38 c-6 -23 -12 -35 -14 -26 -3 14 14 68 21 68 2 0 -1 -19 -7 -42z m114 -8 c12 -23 12 -24 -3 -11 -10 7 -17 20 -17 29 0 18 3 16 20 -18z m-329 -23 c-6 -14 -20 -31 -33 -38 l-23 -12 21 24 c12 13 25 35 29 49 5 14 10 20 12 14 2 -6 -1 -23 -6 -37z m196 -92 c-4 -8 -11 -15 -17 -15 -6 0 -6 7 2 20 14 22 24 19 15 -5z"/>
 <path d="M763 894 c-8 -21 13 -42 28 -27 13 13 5 43 -11 43 -6 0 -13 -7 -17 -16z"/>
 <path d="M1207 904 c-15 -15 -7 -45 11 -42 9 2 17 12 17 22 0 20 -16 31 -28 20z"/>
 <path d="M1330 868 c0 -9 -8 -22 -17 -27 -16 -9 -16 -10 -2 -11 24 0 40 23 29 40 -8 13 -10 12 -10 -2z"/>
 <path d="M650 851 c0 -12 39 -25 47 -17 4 3 -1 6 -10 6 -9 0 -17 5 -17 10 0 6 -4 10 -10 10 -5 0 -10 -4 -10 -9z"/>
 <path d="M830 844 c-19 -7 -53 -14 -75 -15 -22 -1 -32 -3 -21 -6 28 -7 101 6 122 22 22 17 20 17 -26 -1z"/>
 <path d="M1175 830 c19 -8 113 -14 104 -6 -2 2 -31 6 -64 9 -38 4 -53 3 -40 -3z"/>
 <path d="M701 799 c-75 -15 -59 -19 65 -18 72 0 109 4 94 8 -48 15 -115 19 -159 10z"/>
 <path d="M1316 732 c-47 -32 -100 -34 -149 -3 -61 37 -77 23 -17 -15 49 -32 61 -35 108 -31 41 3 59 10 82 32 52 50 38 59 -24 17z"/>
 </g>
<g id="layer120" fill="#261f22" stroke="none">
 <path d="M910 1584 c-14 -3 -54 -15 -90 -26 -56 -18 -75 -32 -141 -97 -84 -85 -92 -102 -109 -246 -11 -91 -45 -231 -61 -251 -4 -5 -6 -20 -2 -32 7 -29 -22 -72 -48 -72 -16 0 -19 4 -14 21 5 15 4 19 -4 14 -7 -4 -11 -14 -9 -23 1 -10 -2 -24 -7 -32 -10 -17 -16 -43 -16 -80 -1 -14 -7 -50 -15 -80 -8 -30 -14 -73 -14 -97 0 -43 17 -93 32 -93 4 0 8 -14 8 -31 0 -35 13 -63 45 -99 12 -14 34 -46 48 -71 26 -46 64 -79 90 -79 7 0 25 -17 38 -37 28 -44 90 -81 145 -87 21 -2 58 -11 82 -20 59 -22 247 -18 284 6 13 9 41 16 62 16 48 0 124 46 145 89 10 19 26 33 41 36 33 7 79 52 98 97 8 19 23 41 34 49 24 16 48 70 48 106 0 14 4 25 8 25 15 0 32 49 32 88 0 21 -7 63 -15 95 -8 31 -16 81 -17 111 -2 57 -9 65 -65 81 -15 4 -25 16 -28 33 -3 15 -18 83 -35 152 -16 69 -31 154 -34 189 -10 112 -23 139 -106 222 -64 64 -86 79 -141 98 -63 21 -214 35 -269 25z m274 -63 c110 -54 193 -167 217 -296 6 -33 21 -94 33 -135 l22 -75 -25 0 c-20 0 -29 10 -52 61 -15 33 -35 97 -43 143 -16 84 -25 106 -59 153 -29 39 -102 88 -154 104 -59 18 -83 6 -83 -41 0 -37 -8 -43 -28 -23 -10 10 -17 10 -32 0 -18 -11 -20 -10 -20 23 0 71 -80 65 -184 -13 -64 -49 -100 -114 -115 -212 -16 -98 -62 -195 -94 -195 l-23 0 22 75 c12 41 27 102 33 135 28 154 140 282 280 322 28 8 83 12 143 9 85 -3 105 -7 162 -35z m-236 -86 c2 -16 8 -43 14 -58 9 -24 16 -28 42 -25 29 3 32 6 41 58 9 44 15 56 32 58 47 7 177 -79 207 -137 8 -15 21 -63 30 -106 10 -51 32 -112 61 -168 25 -48 45 -101 45 -118 0 -16 9 -48 19 -70 11 -22 17 -47 14 -55 -3 -8 0 -20 6 -28 25 -30 13 -165 -19 -208 -11 -15 -23 -41 -26 -58 -4 -16 -11 -30 -17 -30 -5 0 -25 -11 -43 -25 -41 -32 -71 -32 -131 1 -29 15 -58 23 -73 21 -14 -3 -33 -1 -44 5 -26 14 -197 14 -223 -1 -12 -6 -29 -8 -37 -5 -9 4 -37 -7 -64 -25 -61 -39 -85 -39 -129 -1 -18 16 -40 30 -48 30 -8 0 -15 8 -15 18 0 10 -14 39 -31 65 -27 41 -30 54 -31 122 0 45 5 82 12 90 7 8 10 21 7 30 -4 8 3 34 13 57 11 24 20 56 20 72 0 16 17 61 39 100 21 39 44 96 51 126 33 144 41 164 86 207 53 51 130 93 164 90 20 -2 26 -8 28 -32z m-403 -520 c-8 -30 -29 -70 -46 -89 -18 -21 -25 -37 -19 -41 5 -3 10 -29 10 -57 0 -39 -5 -57 -21 -74 -20 -22 -20 -22 -1 -28 28 -9 46 -58 38 -106 -5 -32 -3 -40 9 -40 23 0 55 -60 55 -105 1 -32 3 -37 11 -22 18 30 64 21 97 -19 28 -34 30 -35 37 -15 7 23 53 51 82 51 28 -1 64 -25 79 -51 l13 -24 1 28 c0 29 31 67 54 67 19 0 46 -38 46 -64 0 -17 3 -16 27 8 44 44 99 48 118 9 9 -18 13 -19 21 -7 5 8 25 17 45 20 30 5 41 1 72 -26 33 -29 37 -30 37 -12 0 35 49 65 97 59 l42 -4 -2 41 c-2 37 1 43 30 57 29 14 30 17 16 32 -22 22 -9 65 25 79 15 7 28 13 30 14 2 1 -6 19 -17 40 -26 47 -26 60 -4 73 17 9 16 12 -6 41 -15 21 -21 40 -18 58 4 19 -1 31 -20 46 -14 10 -32 34 -39 52 -16 38 -19 94 -4 94 15 0 30 -36 30 -75 0 -41 36 -85 69 -85 32 0 30 6 57 -242 5 -43 3 -63 -9 -81 -9 -13 -19 -41 -23 -61 -3 -21 -21 -57 -38 -79 -17 -23 -44 -61 -60 -84 -16 -24 -45 -50 -66 -60 -21 -10 -46 -31 -56 -46 -27 -40 -102 -87 -138 -87 -17 0 -49 -7 -71 -15 -24 -8 -77 -14 -135 -14 -58 0 -111 6 -135 14 -22 8 -53 15 -68 15 -43 0 -105 37 -135 80 -15 21 -36 41 -48 44 -34 9 -73 45 -94 86 -11 21 -31 51 -45 66 -14 15 -30 45 -36 68 -6 23 -17 53 -25 68 -17 32 -18 83 -3 180 21 140 21 139 59 152 38 12 60 45 60 89 0 16 5 38 12 50 20 36 22 -4 3 -68z"/>
 <path d="M762 883 c2 -10 10 -18 18 -18 8 0 16 8 18 18 2 12 -3 17 -18 17 -15 0 -20 -5 -18 -17z"/>
 <path d="M1202 883 c2 -10 10 -18 18 -18 8 0 16 8 18 18 2 12 -3 17 -18 17 -15 0 -20 -5 -18 -17z"/>
 <path d="M1318 848 c-14 -13 -15 -18 -4 -18 16 0 40 26 29 33 -4 2 -16 -4 -25 -15z"/>
 <path d="M701 799 c-75 -15 -59 -19 65 -18 72 0 109 4 94 8 -48 15 -115 19 -159 10z"/>
 <path d="M1310 729 c-54 -35 -83 -36 -135 -4 -59 36 -92 33 -36 -4 79 -53 165 -50 209 7 30 39 21 39 -38 1z"/>
 </g>
<g id="layer121" fill="#241d25" stroke="none">
 <path d="M910 1584 c-14 -3 -54 -15 -90 -26 -56 -18 -75 -32 -141 -97 -84 -85 -92 -102 -109 -246 -11 -91 -45 -231 -61 -251 -4 -5 -6 -20 -2 -32 7 -29 -22 -72 -48 -72 -16 0 -19 4 -14 21 5 15 4 19 -4 14 -7 -4 -11 -14 -9 -23 1 -10 -2 -24 -7 -32 -10 -17 -16 -43 -16 -80 -1 -14 -7 -50 -15 -80 -8 -30 -14 -73 -14 -97 0 -43 17 -93 32 -93 4 0 8 -14 8 -31 0 -35 13 -63 45 -99 12 -14 34 -46 48 -71 26 -46 64 -79 90 -79 7 0 25 -17 38 -37 28 -44 90 -81 145 -87 21 -2 58 -11 82 -20 59 -22 247 -18 284 6 13 9 41 16 62 16 48 0 124 46 145 89 10 19 26 33 41 36 33 7 79 52 98 97 8 19 23 41 34 49 24 16 48 70 48 106 0 14 4 25 8 25 15 0 32 49 32 88 0 21 -7 63 -15 95 -8 31 -16 81 -17 111 -2 57 -9 65 -65 81 -15 4 -25 16 -28 33 -3 15 -18 83 -35 152 -16 69 -31 154 -34 189 -10 112 -23 139 -106 222 -64 64 -86 79 -141 98 -63 21 -214 35 -269 25z m274 -63 c110 -54 193 -167 217 -296 6 -33 21 -94 33 -135 l22 -75 -25 0 c-20 0 -29 10 -52 61 -15 33 -35 97 -43 143 -16 84 -25 106 -59 153 -29 39 -102 88 -154 104 -59 18 -83 6 -83 -41 0 -37 -8 -43 -28 -23 -10 10 -17 10 -32 0 -18 -11 -20 -10 -20 23 0 71 -80 65 -184 -13 -64 -49 -100 -114 -115 -212 -16 -98 -62 -195 -94 -195 l-23 0 22 75 c12 41 27 102 33 135 28 154 140 282 280 322 28 8 83 12 143 9 85 -3 105 -7 162 -35z m-236 -81 c2 -14 8 -40 14 -58 9 -29 13 -33 41 -30 30 3 33 6 42 58 9 44 15 56 32 58 33 5 113 -38 164 -88 49 -47 62 -77 79 -180 5 -31 29 -94 55 -143 25 -48 45 -101 45 -118 0 -16 9 -48 19 -70 11 -22 17 -47 14 -55 -3 -8 0 -20 6 -28 25 -30 13 -165 -19 -208 -11 -15 -23 -41 -26 -58 -4 -16 -11 -30 -17 -30 -5 0 -25 -11 -43 -25 -41 -32 -71 -32 -131 1 -29 15 -58 23 -73 21 -14 -3 -33 -1 -44 5 -26 14 -197 14 -223 -1 -12 -6 -29 -8 -37 -5 -9 4 -37 -7 -64 -25 -61 -39 -85 -39 -129 -1 -18 17 -40 30 -48 30 -8 0 -15 8 -15 18 0 10 -14 39 -31 65 -27 41 -30 54 -31 122 0 45 5 82 12 90 7 8 10 21 7 30 -4 8 3 34 13 57 11 24 20 57 20 73 0 30 5 42 52 125 14 25 35 87 47 138 26 115 39 141 93 185 68 54 111 76 143 74 24 -2 31 -7 33 -27z m-394 -491 c-17 -71 -28 -94 -61 -130 -16 -17 -21 -29 -14 -33 6 -4 11 -30 11 -58 0 -39 -5 -57 -21 -74 -20 -22 -20 -22 -1 -28 28 -9 46 -58 38 -106 -5 -32 -3 -40 9 -40 23 0 55 -60 55 -105 1 -32 3 -37 11 -22 18 30 64 21 97 -19 28 -34 30 -35 37 -15 7 23 53 51 82 51 28 -1 64 -25 79 -51 l13 -24 1 28 c0 29 31 67 54 67 19 0 46 -38 46 -64 0 -17 3 -16 27 8 44 44 99 48 118 9 9 -18 13 -19 21 -7 5 8 25 17 45 20 30 5 41 1 72 -26 33 -29 37 -30 37 -12 0 35 49 65 97 59 l42 -4 -2 41 c-2 37 1 43 30 57 29 14 30 17 16 32 -22 22 -9 65 25 79 15 7 28 13 30 14 2 1 -6 19 -17 40 -26 47 -26 60 -4 73 17 9 16 12 -6 41 -15 21 -21 40 -18 58 4 19 -1 31 -20 46 -14 10 -32 34 -39 52 -16 38 -19 94 -4 94 15 0 30 -36 30 -75 0 -41 36 -85 69 -85 32 0 30 6 57 -242 5 -43 3 -63 -9 -81 -9 -13 -19 -41 -23 -61 -3 -21 -21 -57 -38 -79 -17 -23 -44 -61 -60 -84 -16 -24 -45 -50 -66 -60 -21 -10 -46 -31 -56 -46 -27 -40 -102 -87 -138 -87 -17 0 -49 -7 -71 -15 -53 -19 -217 -19 -270 0 -22 8 -53 15 -68 15 -43 0 -105 37 -135 80 -15 21 -36 41 -48 44 -34 9 -73 45 -94 86 -11 21 -31 51 -45 66 -14 15 -30 45 -36 68 -6 23 -17 53 -25 68 -17 32 -18 83 -3 180 21 140 21 139 59 152 38 12 60 45 60 91 0 26 23 75 35 75 2 0 -3 -27 -11 -61z"/>
 <path d="M764 889 c-7 -12 15 -31 28 -23 4 3 8 12 8 20 0 17 -26 19 -36 3z"/>
 <path d="M1200 886 c0 -8 4 -17 9 -20 11 -7 33 18 24 27 -12 12 -33 7 -33 -7z"/>
 <path d="M1318 848 c-14 -13 -15 -18 -4 -18 16 0 40 26 29 33 -4 2 -16 -4 -25 -15z"/>
 <path d="M701 799 c-24 -5 -46 -10 -48 -13 -2 -2 49 -4 114 -4 71 0 108 3 93 7 -47 15 -115 19 -159 10z"/>
 <path d="M1313 729 c-24 -17 -43 -32 -43 -34 0 -2 12 -3 26 -2 17 1 36 15 52 35 31 40 20 40 -35 1z"/>
 <path d="M1110 739 c18 -12 99 -49 108 -49 4 0 -13 14 -38 30 -25 16 -54 30 -65 30 -17 0 -18 -2 -5 -11z"/>
 </g>
<g id="layer122" fill="#291b18" stroke="none">
 <path d="M910 1584 c-14 -3 -54 -15 -90 -26 -56 -18 -75 -32 -141 -97 -84 -85 -92 -102 -109 -246 -11 -91 -45 -231 -61 -251 -4 -5 -6 -20 -2 -32 7 -29 -22 -72 -48 -72 -16 0 -19 4 -14 21 5 15 4 19 -4 14 -7 -4 -11 -14 -9 -23 1 -10 -2 -24 -7 -32 -10 -17 -16 -43 -16 -80 -1 -14 -7 -50 -15 -80 -8 -30 -14 -73 -14 -97 0 -43 17 -93 32 -93 4 0 8 -14 8 -31 0 -35 13 -63 45 -99 12 -14 34 -46 48 -71 26 -46 64 -79 90 -79 7 0 25 -17 38 -37 28 -44 90 -81 145 -87 21 -2 58 -11 82 -20 59 -22 247 -18 284 6 13 9 41 16 62 16 48 0 124 46 145 89 10 19 26 33 41 36 33 7 79 52 98 97 8 19 23 41 34 49 24 16 48 70 48 106 0 14 4 25 8 25 15 0 32 49 32 88 0 21 -7 63 -15 95 -8 31 -16 81 -17 111 -2 57 -9 65 -65 81 -15 4 -25 16 -28 33 -3 15 -18 83 -35 152 -16 69 -31 154 -34 189 -10 112 -23 139 -106 222 -64 64 -86 79 -141 98 -63 21 -214 35 -269 25z m277 -59 c123 -61 191 -159 223 -322 10 -54 25 -120 34 -146 11 -39 12 -48 1 -44 -7 3 -17 1 -22 -4 -15 -15 -80 137 -91 212 -6 37 -20 85 -31 107 -37 72 -151 152 -218 152 -33 0 -44 -15 -42 -58 1 -23 3 -21 8 8 4 26 12 36 27 38 34 5 114 -38 165 -88 49 -47 62 -77 79 -180 5 -31 29 -94 55 -143 25 -48 45 -101 45 -118 0 -16 9 -48 19 -70 11 -22 17 -47 14 -55 -3 -8 0 -20 6 -28 25 -30 13 -165 -19 -208 -11 -15 -23 -41 -26 -58 -4 -16 -11 -30 -17 -30 -5 0 -25 -11 -43 -25 -41 -32 -71 -32 -131 1 -29 15 -58 23 -73 21 -14 -3 -33 -1 -44 5 -26 14 -197 14 -223 -1 -12 -6 -29 -8 -37 -5 -9 4 -37 -7 -64 -25 -61 -39 -85 -39 -129 -1 -18 16 -40 30 -48 30 -8 0 -15 8 -15 18 0 10 -14 39 -31 65 -27 41 -30 54 -31 122 0 45 5 82 12 90 7 8 10 22 6 31 -3 8 1 29 10 46 21 40 35 130 22 145 -5 6 -16 9 -24 6 -12 -4 -12 1 1 36 8 23 23 88 34 145 11 57 32 127 46 156 54 106 157 186 270 210 22 5 78 7 125 5 72 -4 96 -10 157 -40z m-621 -556 c-8 -53 -43 -133 -65 -153 -15 -14 -17 -25 -10 -68 6 -39 5 -59 -6 -82 -14 -27 -14 -31 6 -53 16 -16 22 -36 23 -70 1 -38 7 -54 28 -74 15 -15 30 -43 33 -62 7 -33 9 -36 36 -30 25 5 35 0 64 -31 20 -22 35 -31 35 -23 0 17 38 44 66 47 39 5 61 -1 80 -18 19 -18 19 -18 37 10 24 40 75 37 95 -5 l14 -29 21 20 c12 11 32 23 44 26 29 9 73 -3 73 -20 0 -11 6 -10 35 2 40 16 76 11 101 -17 17 -19 17 -19 31 1 22 31 72 53 105 46 26 -5 28 -4 22 19 -7 29 18 75 41 75 11 0 14 7 9 25 -9 38 3 70 31 83 25 11 25 13 10 41 -18 35 -19 73 -4 88 8 8 5 19 -11 41 -15 20 -21 38 -17 54 5 17 1 27 -14 36 -27 17 -49 72 -49 123 0 40 1 41 19 25 11 -10 21 -37 24 -68 7 -58 15 -69 60 -84 35 -12 36 -15 56 -152 15 -98 14 -163 -2 -187 -8 -11 -19 -41 -26 -67 -7 -26 -26 -59 -42 -74 -16 -15 -29 -34 -29 -41 0 -19 -84 -103 -103 -103 -8 0 -26 -14 -38 -31 -33 -47 -97 -89 -134 -89 -18 0 -49 -7 -68 -15 -50 -21 -244 -21 -294 0 -19 8 -49 15 -65 15 -42 0 -80 23 -126 75 -22 25 -44 45 -50 45 -18 0 -82 61 -99 94 -9 17 -28 46 -44 63 -15 18 -31 50 -35 70 -4 21 -13 47 -20 58 -16 23 -18 122 -4 192 5 26 12 69 15 94 5 41 9 47 34 52 42 9 60 32 67 88 6 44 24 79 41 79 3 0 3 -19 -1 -41z"/>
 <path d="M809 1438 c-93 -63 -123 -107 -142 -213 -9 -48 -30 -117 -47 -153 -34 -73 -27 -74 12 -2 14 25 35 87 47 138 11 51 28 106 36 121 29 56 161 146 206 139 19 -2 25 -11 30 -38 6 -35 6 -35 8 -4 3 68 -59 73 -150 12z"/>
 <path d="M971 1396 c-18 -22 -2 -46 30 -46 35 0 48 23 26 45 -19 19 -41 19 -56 1z"/>
 <path d="M764 889 c-8 -14 18 -31 30 -19 9 9 0 30 -14 30 -5 0 -12 -5 -16 -11z"/>
 <path d="M1200 886 c0 -8 4 -17 9 -20 11 -7 33 18 24 27 -12 12 -33 7 -33 -7z"/>
 <path d="M701 799 c-24 -5 -46 -10 -48 -13 -2 -2 49 -4 114 -4 71 0 108 3 93 7 -47 15 -115 19 -159 10z"/>
 <path d="M1323 737 c-18 -12 -31 -26 -30 -32 7 -19 30 -10 55 23 28 37 21 40 -25 9z"/>
 <path d="M1125 730 c17 -11 39 -20 50 -20 17 0 15 3 -10 20 -16 11 -39 20 -50 20 -17 0 -15 -3 10 -20z"/>
 </g>
<g id="layer123" fill="#161016" stroke="none">
 <path d="M915 1580 c-134 -28 -157 -40 -236 -119 -84 -85 -93 -106 -108 -247 -10 -92 -43 -230 -60 -247 -6 -6 -7 -22 -4 -37 7 -38 -12 -70 -43 -70 -21 0 -24 3 -19 21 5 14 3 19 -4 15 -14 -9 -10 -56 6 -56 48 0 83 49 83 117 0 20 23 53 37 53 10 0 -8 -83 -28 -131 -12 -26 -29 -55 -38 -63 -15 -14 -17 -25 -10 -68 6 -39 5 -59 -6 -82 -14 -27 -14 -31 6 -53 16 -16 22 -36 23 -70 1 -38 7 -54 28 -74 15 -15 30 -43 33 -62 7 -33 9 -36 36 -30 25 5 35 0 64 -31 20 -22 35 -31 35 -23 0 17 38 44 66 47 39 5 61 -1 80 -18 19 -18 19 -18 37 10 24 40 75 37 95 -5 l14 -29 21 20 c12 11 32 23 44 26 29 9 73 -3 73 -20 0 -11 6 -10 35 2 40 16 76 11 101 -17 17 -19 17 -19 31 1 22 31 72 53 105 46 26 -5 28 -4 22 19 -7 29 18 75 41 75 11 0 14 7 9 25 -9 38 3 70 31 83 25 11 25 13 10 41 -18 35 -19 73 -4 88 8 8 5 19 -11 41 -15 20 -21 38 -17 54 5 17 1 27 -14 36 -27 17 -49 72 -49 123 0 40 1 41 19 25 11 -10 21 -37 24 -68 7 -58 15 -69 60 -84 35 -12 36 -15 56 -152 15 -98 14 -163 -2 -187 -8 -11 -19 -41 -26 -67 -7 -26 -26 -59 -42 -74 -16 -15 -29 -34 -29 -41 0 -19 -84 -103 -103 -103 -8 0 -26 -14 -38 -31 -33 -47 -97 -89 -134 -89 -18 0 -49 -7 -68 -15 -50 -21 -244 -21 -294 0 -19 8 -49 15 -65 15 -42 0 -80 23 -126 75 -22 25 -44 45 -50 45 -18 0 -82 61 -99 94 -9 17 -28 46 -44 63 -15 18 -31 50 -35 70 -4 21 -13 47 -20 58 -16 22 -19 132 -5 185 5 19 12 60 15 90 5 54 5 55 -9 22 -8 -18 -12 -38 -9 -45 2 -7 -2 -40 -11 -72 -8 -33 -15 -78 -15 -102 0 -43 17 -93 32 -93 4 0 8 -14 8 -31 0 -35 13 -63 45 -99 12 -14 34 -46 48 -71 26 -46 64 -79 90 -79 7 0 25 -17 38 -37 28 -44 90 -81 145 -87 21 -2 58 -11 82 -20 59 -22 247 -18 284 6 13 9 41 16 62 16 48 0 124 46 145 89 10 19 26 33 41 36 33 7 79 52 98 97 8 19 23 41 34 49 24 16 48 70 48 106 0 14 4 25 8 25 15 0 32 49 32 88 0 21 -7 64 -15 95 -8 32 -15 71 -15 87 0 49 -17 79 -54 94 -22 9 -37 23 -40 38 -19 90 -26 119 -41 168 -9 30 -20 97 -25 148 -15 147 -24 167 -109 252 -64 64 -86 79 -141 97 -73 25 -205 36 -265 23z m272 -55 c123 -61 191 -159 223 -322 10 -54 25 -120 34 -146 12 -41 12 -48 1 -43 -8 3 -18 0 -22 -7 -12 -20 -2 -99 19 -144 11 -24 18 -46 15 -50 -4 -3 -2 -15 4 -25 6 -11 11 -53 11 -93 -1 -61 -5 -80 -26 -113 -14 -22 -28 -52 -32 -66 -3 -14 -11 -26 -16 -26 -6 0 -27 -13 -47 -29 -41 -33 -76 -32 -122 1 -31 23 -89 31 -229 32 -125 0 -188 -9 -215 -32 -36 -30 -64 -42 -82 -34 -47 20 -112 69 -117 89 -4 12 -17 38 -30 57 -28 42 -43 148 -28 198 6 18 19 62 30 98 11 36 23 79 26 96 5 34 -8 56 -30 47 -12 -4 -11 2 1 36 8 23 23 88 34 145 11 57 32 127 46 156 54 106 157 186 270 210 22 5 78 7 125 5 72 -4 96 -10 157 -40z"/>
 <path d="M809 1438 c-93 -63 -123 -107 -142 -212 -9 -47 -27 -111 -41 -141 -14 -30 -23 -55 -21 -55 11 0 55 99 65 147 32 156 70 214 173 267 69 34 100 32 108 -9 6 -28 7 -28 8 -4 3 63 -61 66 -150 7z"/>
 <path d="M1046 1464 c-3 -9 -6 -21 -5 -27 0 -7 4 -2 9 11 17 40 83 23 167 -45 63 -51 82 -83 103 -182 16 -77 70 -211 85 -211 3 0 -9 28 -26 62 -18 35 -37 96 -45 140 -17 96 -41 145 -95 192 -79 67 -178 98 -193 60z"/>
 <path d="M969 1394 c-11 -14 -10 -18 6 -30 11 -8 26 -12 33 -9 8 3 18 5 23 5 14 0 11 20 -5 36 -19 18 -40 18 -57 -2z"/>
 <path d="M764 889 c-8 -14 18 -31 30 -19 9 9 0 30 -14 30 -5 0 -12 -5 -16 -11z"/>
 <path d="M1200 886 c0 -8 4 -17 9 -20 11 -7 33 18 24 27 -12 12 -33 7 -33 -7z"/>
 <path d="M706 798 c-22 -5 -41 -9 -42 -11 -1 -1 43 -2 99 -3 56 0 98 1 92 2 -44 13 -117 19 -149 12z"/>
 <path d="M1327 734 c-40 -27 -44 -41 -9 -30 16 5 61 56 50 56 -2 0 -21 -12 -41 -26z"/>
 <path d="M1115 736 c23 -16 65 -30 65 -22 0 6 -67 36 -78 36 -4 0 2 -6 13 -14z"/>
 </g>

</svg>