<!DOCTYPE svg PUBLIC "-//W3C//DTD SVG 20010904//EN" "http://www.w3.org/TR/2001/REC-SVG-20010904/DTD/svg10.dtd">
<svg version="1.0" xmlns="http://www.w3.org/2000/svg" width="200px" height="200px" viewBox="0 0 2000 2000" preserveAspectRatio="xMidYMid meet">
<g id="layer101" fill="#f2f0f3" stroke="none">
 <path d="M130 1983 c1 -37 22 -110 46 -158 30 -61 72 -86 188 -110 105 -23 316 -96 347 -120 33 -27 64 -100 60 -144 -2 -29 -14 -46 -66 -93 -49 -45 -67 -70 -85 -117 -20 -54 -25 -60 -53 -63 -16 -2 -33 -10 -37 -18 -98 -196 -120 -254 -120 -319 0 -31 0 -66 0 -78 0 -13 -7 -49 -15 -80 -21 -81 -19 -145 5 -176 11 -14 20 -35 20 -47 0 -29 28 -88 50 -103 9 -7 25 -29 35 -49 21 -45 78 -98 105 -98 11 0 20 -6 20 -13 0 -15 65 -80 97 -96 12 -6 38 -11 58 -11 20 0 50 -8 68 -17 45 -24 248 -24 294 0 18 10 46 17 63 17 17 0 45 6 63 14 32 13 97 78 97 96 0 6 9 10 20 10 26 0 84 52 104 94 9 19 29 48 46 66 16 17 32 48 35 68 7 40 9 45 30 82 19 33 19 88 -1 163 -8 33 -16 95 -16 136 -1 82 -13 120 -89 279 -36 74 -43 82 -68 82 -25 0 -31 7 -55 64 -20 46 -44 80 -86 120 -46 44 -59 63 -62 93 -6 45 21 107 60 137 32 25 243 98 348 121 116 24 158 49 188 110 24 48 45 121 46 158 0 16 -48 17 -870 17 -822 0 -870 -1 -870 -17z"/>
 </g>
<g id="layer102" fill="#dfdde3" stroke="none">
 <path d="M130 1983 c1 -37 22 -110 46 -158 30 -61 72 -86 188 -110 105 -23 316 -96 347 -120 33 -27 64 -100 60 -144 -2 -29 -14 -46 -66 -93 -49 -45 -67 -70 -85 -117 -20 -54 -25 -60 -53 -63 -16 -2 -33 -10 -37 -18 -98 -196 -120 -254 -120 -319 0 -31 0 -66 0 -78 0 -13 -7 -49 -15 -80 -21 -81 -19 -145 5 -176 11 -14 20 -35 20 -47 0 -29 28 -88 50 -103 9 -7 25 -29 35 -49 21 -45 78 -98 105 -98 11 0 20 -6 20 -13 0 -15 65 -80 97 -96 12 -6 38 -11 58 -11 20 0 50 -8 68 -17 45 -24 248 -24 294 0 18 10 46 17 63 17 17 0 45 6 63 14 32 13 97 78 97 96 0 6 9 10 20 10 26 0 84 52 104 94 9 19 29 48 46 66 16 17 32 48 35 68 7 40 9 45 30 82 19 33 19 88 -1 163 -8 33 -16 95 -16 136 -1 82 -13 120 -89 279 -36 74 -43 82 -68 82 -25 0 -31 7 -55 64 -20 46 -44 80 -86 120 -46 44 -59 63 -62 93 -6 45 21 107 60 137 32 25 243 98 348 121 116 24 158 49 188 110 24 48 45 121 46 158 0 16 -24 17 -356 17 l-356 0 5 -27 c5 -28 -16 -81 -55 -135 l-18 -27 -26 24 c-24 22 -24 25 -14 86 5 35 10 67 10 72 0 4 -31 7 -70 7 l-70 0 7 -32 c3 -18 11 -52 18 -74 12 -40 11 -42 -15 -58 -27 -15 -28 -15 -42 7 -39 58 -58 108 -52 132 l6 25 -356 0 c-332 0 -356 -1 -356 -17z m805 -220 l35 -33 -28 -17 c-15 -9 -43 -27 -63 -40 -19 -12 -40 -23 -47 -23 -19 0 -40 -42 -48 -95 l-7 -50 -18 41 c-13 32 -15 51 -8 88 9 47 67 253 76 269 3 4 20 -18 39 -50 19 -32 50 -73 69 -90z m270 32 c48 -156 57 -203 40 -235 l-13 -25 -11 42 c-13 48 -45 77 -133 118 -32 15 -58 29 -58 31 0 2 19 23 43 47 24 25 54 66 67 91 14 25 26 46 27 46 1 0 18 -52 38 -115z m-466 -876 c-6 -12 -9 -30 -6 -40 7 -26 -8 -24 -27 3 -15 21 -14 23 12 40 34 23 35 22 21 -3z m114 1 c8 -29 -5 -31 -26 -4 -17 23 -17 24 1 24 11 0 22 -9 25 -20z m320 -5 c-22 -29 -33 -32 -33 -7 0 24 8 32 32 32 18 0 18 -1 1 -25z m127 -15 c0 -10 -7 -23 -15 -30 -13 -10 -15 -9 -15 9 0 12 -5 31 -10 42 -10 17 -9 18 15 7 14 -6 25 -19 25 -28z"/>
 </g>
<g id="layer103" fill="#deaba8" stroke="none">
 <path d="M130 1983 c1 -37 22 -110 46 -158 30 -61 72 -86 188 -110 105 -23 321 -98 346 -120 11 -10 23 -15 26 -12 4 4 13 44 21 89 8 46 30 134 49 196 19 62 34 117 34 123 0 5 -140 9 -355 9 -332 0 -355 -1 -355 -17z"/>
 <path d="M927 1968 c3 -18 11 -51 17 -73 11 -37 10 -41 -14 -62 l-25 -22 39 -40 c39 -40 39 -41 20 -57 -10 -8 -41 -26 -69 -38 -86 -41 -107 -75 -120 -191 l-7 -70 -63 -57 c-49 -45 -67 -70 -85 -117 -20 -54 -25 -60 -53 -63 -16 -2 -33 -10 -37 -18 -98 -196 -120 -254 -120 -319 0 -31 0 -66 0 -78 0 -13 -7 -49 -15 -80 -21 -81 -19 -145 5 -176 11 -14 20 -35 20 -47 0 -29 28 -88 50 -103 9 -7 25 -29 35 -49 21 -45 78 -98 105 -98 11 0 20 -6 20 -13 0 -15 65 -80 97 -96 12 -6 38 -11 58 -11 20 0 50 -8 68 -17 45 -24 248 -24 294 0 18 10 46 17 63 17 17 0 45 6 63 14 32 13 97 78 97 96 0 6 9 10 20 10 26 0 84 52 104 94 9 19 29 48 46 66 16 17 32 48 35 68 7 40 9 45 30 82 19 33 19 88 -1 163 -8 33 -16 95 -16 136 -1 82 -13 120 -89 279 -36 74 -43 82 -68 82 -25 0 -31 7 -55 64 -20 47 -44 80 -87 121 l-59 56 -6 81 c-9 99 -30 129 -128 177 -36 18 -68 37 -72 42 -3 6 8 25 25 43 37 38 38 47 10 72 -22 19 -22 39 -3 132 l7 32 -71 0 -71 0 6 -32z m-170 -1042 c0 -8 -5 -14 -11 -13 -6 1 -11 -11 -11 -26 1 -26 -1 -27 -30 -21 -43 9 -44 12 -7 45 35 32 59 37 59 15z m130 -1 c6 -18 -23 -55 -44 -55 -8 0 -12 4 -9 8 3 5 -1 20 -9 35 -14 27 -14 27 21 27 22 0 37 -6 41 -15z m295 3 c-7 -7 -12 -22 -12 -35 0 -28 -21 -30 -45 -3 -26 29 -13 50 32 50 29 0 34 -3 25 -12z m109 -9 c35 -24 37 -44 7 -53 -35 -9 -58 -7 -58 5 0 6 7 9 15 5 21 -8 20 22 -2 46 -23 25 1 24 38 -3z"/>
 <path d="M1164 1983 c3 -10 10 -38 16 -63 6 -25 22 -79 35 -120 12 -41 26 -102 30 -136 9 -80 17 -94 44 -70 26 23 241 98 347 121 116 24 158 49 188 110 24 48 45 121 46 158 0 16 -24 17 -356 17 -334 0 -355 -1 -350 -17z"/>
 </g>
<g id="layer104" fill="#e19e96" stroke="none">
 <path d="M130 1983 c1 -37 22 -110 46 -158 30 -61 72 -86 188 -110 105 -23 321 -98 346 -120 11 -10 23 -15 26 -12 4 4 13 44 21 89 8 46 30 134 49 196 19 62 34 117 34 123 0 5 -140 9 -355 9 -332 0 -355 -1 -355 -17z"/>
 <path d="M927 1968 c3 -18 11 -51 17 -73 11 -37 10 -41 -14 -62 l-25 -22 40 -40 c47 -49 46 -51 -60 -108 -65 -36 -71 -42 -86 -88 -10 -28 -20 -75 -24 -105 -7 -51 -12 -59 -70 -112 -49 -45 -67 -70 -85 -117 -20 -54 -25 -60 -53 -63 -16 -2 -33 -10 -37 -18 -98 -196 -120 -254 -120 -319 0 -31 0 -66 0 -78 0 -13 -7 -49 -15 -80 -21 -81 -19 -145 5 -176 11 -14 20 -35 20 -47 0 -29 28 -88 50 -103 9 -7 25 -29 35 -49 21 -45 78 -98 105 -98 11 0 20 -6 20 -13 0 -15 65 -80 97 -96 12 -6 38 -11 58 -11 20 0 50 -8 68 -17 45 -24 248 -24 294 0 18 10 46 17 63 17 17 0 45 6 63 14 32 13 97 78 97 96 0 6 9 10 20 10 26 0 84 52 104 94 9 19 29 48 46 66 16 17 32 48 35 68 7 40 9 45 30 82 19 33 19 88 -1 163 -8 33 -16 95 -16 136 -1 82 -13 120 -89 279 -36 74 -43 82 -68 82 -25 0 -31 7 -55 64 -20 46 -44 80 -85 120 l-58 55 -11 82 c-12 93 -27 120 -87 152 -22 11 -60 32 -84 45 l-43 24 36 37 c42 43 43 51 15 77 -22 19 -22 39 -3 132 l7 32 -71 0 -71 0 6 -32z m-170 -1042 c0 -8 -5 -14 -11 -13 -6 1 -11 -11 -11 -26 1 -26 -1 -27 -30 -21 -43 9 -44 12 -7 45 35 32 59 37 59 15z m130 -1 c6 -18 -23 -55 -44 -55 -8 0 -12 4 -9 8 3 5 -1 20 -9 35 -14 27 -14 27 21 27 22 0 37 -6 41 -15z m295 3 c-7 -7 -12 -22 -12 -35 0 -31 -24 -29 -49 3 -27 34 -19 44 32 44 32 0 38 -3 29 -12z m109 -9 c35 -24 37 -44 7 -53 -35 -9 -58 -7 -58 5 0 6 7 9 15 5 21 -8 20 22 -2 46 -23 25 1 24 38 -3z"/>
 <path d="M1164 1983 c3 -10 10 -38 16 -63 6 -25 22 -79 35 -120 12 -41 26 -102 30 -136 9 -80 17 -94 44 -70 26 23 241 98 347 121 116 24 158 49 188 110 24 48 45 121 46 158 0 16 -24 17 -356 17 -334 0 -355 -1 -350 -17z"/>
 </g>
<g id="layer105" fill="#d3847a" stroke="none">
 <path d="M130 1983 c1 -37 22 -110 46 -158 30 -61 72 -86 188 -110 105 -23 321 -98 346 -120 11 -10 23 -15 26 -12 4 4 13 44 21 89 8 46 30 134 49 196 19 62 34 117 34 123 0 5 -140 9 -355 9 -332 0 -355 -1 -355 -17z"/>
 <path d="M927 1968 c3 -18 11 -51 17 -73 11 -37 10 -41 -14 -62 l-25 -22 40 -40 c21 -23 46 -41 55 -41 18 0 80 60 80 76 0 6 -9 19 -21 30 -22 19 -22 39 -3 132 l7 32 -71 0 -71 0 6 -32z"/>
 <path d="M1164 1983 c3 -10 10 -38 16 -63 6 -25 22 -79 35 -120 12 -41 26 -102 30 -136 9 -80 17 -94 44 -70 26 23 241 98 347 121 116 24 158 49 188 110 24 48 45 121 46 158 0 16 -24 17 -356 17 -334 0 -355 -1 -350 -17z"/>
 <path d="M941 1604 c-19 -8 -56 -30 -83 -49 -55 -40 -58 -41 -58 -17 0 36 -19 -12 -26 -68 -6 -51 -11 -59 -69 -112 -49 -45 -67 -70 -85 -117 -20 -54 -25 -60 -53 -63 -16 -2 -33 -10 -37 -18 -98 -196 -120 -254 -120 -319 0 -31 0 -66 0 -78 0 -13 -7 -49 -15 -80 -21 -81 -19 -145 5 -176 11 -14 20 -35 20 -47 0 -29 28 -88 50 -103 9 -7 25 -29 35 -49 21 -45 78 -98 105 -98 11 0 20 -6 20 -13 0 -15 65 -80 97 -96 12 -6 38 -11 58 -11 20 0 50 -8 68 -17 45 -24 248 -24 294 0 18 10 46 17 63 17 17 0 45 6 63 14 32 13 97 78 97 96 0 6 9 10 20 10 26 0 84 52 104 94 9 19 29 48 46 66 16 17 32 48 35 68 7 40 9 45 30 82 19 33 19 88 -1 163 -8 33 -16 95 -16 136 -1 59 -7 92 -30 151 -17 41 -36 80 -45 87 -8 6 -13 13 -12 15 5 7 -23 78 -32 78 -16 0 -9 -24 34 -111 34 -69 42 -94 39 -127 -3 -30 -8 -39 -20 -38 -9 2 -18 9 -20 17 -3 11 -1 11 8 -1 10 -13 11 -12 6 3 -3 10 -6 21 -6 23 0 3 -3 3 -7 1 -5 -3 -6 15 -5 39 3 36 -1 49 -22 75 -14 17 -26 35 -26 40 0 6 -4 8 -9 5 -8 -5 -36 72 -28 80 2 2 15 5 30 6 34 3 24 18 -12 18 -25 0 -31 7 -55 64 -20 46 -44 80 -86 120 -57 55 -58 57 -67 128 -8 60 -11 69 -19 51 l-9 -23 -54 36 c-97 65 -138 75 -200 48z m155 -115 c104 -66 218 -168 244 -219 10 -20 34 -82 54 -138 28 -81 33 -108 26 -128 -11 -27 1 -97 24 -143 7 -14 11 -32 8 -39 -2 -8 1 -25 8 -38 21 -39 6 -170 -25 -214 -14 -20 -25 -44 -25 -53 0 -9 -17 -25 -39 -37 -22 -11 -42 -24 -46 -30 -10 -17 -48 -11 -85 12 -39 24 -98 36 -214 45 -96 6 -171 -8 -248 -48 -31 -16 -63 -29 -70 -29 -7 0 -33 16 -57 35 -24 19 -48 35 -52 35 -5 0 -9 8 -9 18 0 9 -14 37 -30 61 -27 40 -30 52 -30 122 0 43 5 81 10 84 6 4 9 18 8 33 -1 15 4 37 10 49 20 37 33 122 22 143 -7 14 -2 42 20 107 53 161 63 177 162 261 180 153 236 172 334 111z m-510 -345 c-3 -9 -9 -27 -12 -40 -3 -13 -10 -24 -14 -24 -4 0 -7 -12 -7 -26 0 -14 -6 -31 -12 -37 -10 -9 -10 -5 -1 18 11 29 11 29 -10 10 -11 -10 -18 -25 -16 -32 3 -7 1 -12 -5 -10 -6 1 -12 -18 -13 -43 -2 -25 -6 -54 -10 -65 -7 -17 -6 -17 4 -5 8 10 10 11 8 2 -2 -8 -6 -12 -9 -10 -3 2 -13 -3 -22 -11 -15 -12 -17 -10 -17 27 0 42 11 73 67 190 26 54 39 72 55 72 14 0 18 -5 14 -16z"/>
 <path d="M890 1322 c0 -17 52 -32 115 -32 63 0 115 15 115 32 0 5 -9 4 -19 -2 -11 -5 -54 -10 -96 -10 -42 0 -85 5 -96 10 -10 6 -19 7 -19 2z"/>
 <path d="M927 1182 c-22 -24 -21 -34 3 -82 11 -22 25 -63 32 -92 17 -76 23 -29 8 54 -11 54 -11 70 0 83 14 17 62 20 91 5 24 -13 38 12 19 35 -19 23 -132 21 -153 -3z"/>
 <path d="M661 903 l-45 -48 39 -7 c22 -4 67 -8 100 -9 l60 -3 -75 -6 -75 -6 71 -2 c39 -1 86 1 105 5 28 5 30 7 14 14 -18 7 -17 8 4 8 35 1 59 27 53 56 -5 26 -22 35 -22 12 0 -17 -32 -47 -49 -47 -7 0 -10 4 -7 8 3 5 -1 20 -9 35 -13 26 -13 26 28 30 23 2 0 4 -52 5 l-94 2 -46 -47z m96 23 c0 -8 -5 -14 -11 -13 -6 1 -11 -11 -11 -26 1 -26 -1 -27 -30 -21 -43 9 -44 12 -7 45 35 32 59 37 59 15z"/>
 <path d="M1160 941 c23 -4 31 -9 23 -14 -7 -5 -13 -19 -13 -33 0 -33 -24 -31 -52 6 -22 30 -22 30 -30 9 -11 -28 15 -59 51 -60 23 0 23 -1 6 -8 -16 -7 -14 -9 14 -14 19 -4 66 -6 105 -5 l71 2 -75 6 -75 6 60 3 c56 2 154 17 129 20 -6 0 -16 12 -22 26 -21 45 -68 65 -152 64 -54 -1 -65 -3 -40 -8z m131 -22 c35 -24 37 -44 7 -53 -35 -9 -58 -7 -58 5 0 6 7 9 15 5 21 -8 20 22 -2 46 -23 25 1 24 38 -3z"/>
 <path d="M860 802 c-46 -24 -83 -25 -200 -8 -26 4 -21 1 20 -14 92 -32 192 -21 230 25 19 23 -3 22 -50 -3z"/>
 <path d="M1080 809 c0 -5 21 -19 47 -31 38 -17 58 -19 112 -14 104 10 143 26 46 20 -67 -5 -89 -2 -133 15 -60 24 -72 26 -72 10z"/>
 </g>
<g id="layer106" fill="#cc776c" stroke="none">
 <path d="M130 1983 c1 -37 22 -110 46 -158 30 -61 72 -86 188 -110 105 -23 321 -98 346 -120 11 -10 23 -15 26 -12 4 4 13 44 21 89 8 46 30 134 49 196 19 62 34 117 34 123 0 5 -140 9 -355 9 -332 0 -355 -1 -355 -17z"/>
 <path d="M927 1968 c3 -18 11 -51 17 -73 11 -37 10 -41 -14 -62 l-25 -22 40 -40 c21 -23 46 -41 55 -41 18 0 80 60 80 76 0 6 -9 19 -21 30 -22 19 -22 39 -3 132 l7 32 -71 0 -71 0 6 -32z"/>
 <path d="M1164 1983 c3 -10 10 -38 16 -63 6 -25 22 -79 35 -120 12 -41 26 -102 30 -136 9 -80 17 -94 44 -70 26 23 241 98 347 121 116 24 158 49 188 110 24 48 45 121 46 158 0 16 -24 17 -356 17 -334 0 -355 -1 -350 -17z"/>
 <path d="M841 1540 c-23 -17 -46 -28 -51 -25 -5 3 -12 -16 -15 -42 -4 -27 -9 -56 -12 -65 -2 -10 -2 -18 1 -18 3 0 37 24 76 54 38 30 90 62 115 72 43 16 47 16 91 -1 26 -10 76 -40 111 -67 36 -27 67 -47 70 -44 9 9 -9 156 -19 150 -5 -4 -8 -15 -5 -25 7 -25 4 -24 -45 11 -40 29 -44 30 -158 30 -114 0 -118 -1 -159 -30z"/>
 <path d="M1243 1396 c0 -19 54 -72 64 -62 4 3 -9 23 -28 42 -24 23 -36 30 -36 20z"/>
 <path d="M688 1343 c-30 -30 -55 -69 -69 -105 -19 -51 -25 -58 -49 -58 -29 0 -58 -24 -41 -34 5 -4 12 -2 16 4 7 11 45 14 45 4 0 -21 -24 -83 -31 -79 -4 3 -5 -3 -3 -12 3 -10 -2 -27 -11 -38 -14 -17 -16 -17 -11 -2 10 31 -3 18 -20 -20 -8 -22 -13 -50 -10 -66 7 -35 -7 -63 -34 -70 -18 -5 -20 0 -20 38 0 24 -4 46 -8 49 -14 8 -32 -58 -32 -115 0 -30 0 -64 0 -76 0 -13 -7 -49 -15 -80 -21 -81 -19 -145 5 -176 11 -14 20 -35 20 -47 0 -29 28 -88 50 -103 9 -7 25 -29 35 -49 21 -45 78 -98 105 -98 11 0 20 -6 20 -13 0 -15 65 -80 97 -96 12 -6 38 -11 58 -11 20 0 50 -8 68 -17 45 -24 248 -24 294 0 18 10 46 17 63 17 17 0 45 6 63 14 32 13 97 78 97 96 0 6 9 10 20 10 26 0 84 52 104 94 9 19 29 48 46 66 16 17 32 48 35 68 7 40 9 45 30 82 19 33 19 88 -1 163 -8 33 -16 95 -16 136 -1 58 -7 92 -28 144 -15 38 -31 64 -34 58 -4 -5 0 -27 9 -47 14 -35 21 -114 9 -114 -19 0 -45 24 -40 36 3 8 2 12 -3 9 -6 -3 -8 17 -6 48 4 45 1 58 -15 72 -22 20 -28 7 -7 -14 10 -10 9 -11 -5 -6 -21 8 -31 36 -22 60 5 11 4 16 -3 12 -11 -7 -37 68 -29 82 3 5 17 7 31 6 15 -2 23 1 19 7 -4 5 -17 8 -31 5 -22 -4 -28 3 -58 69 -19 41 -39 74 -44 74 -15 0 -14 -6 4 -34 8 -12 33 -73 55 -136 34 -95 39 -118 31 -143 -12 -32 -1 -98 23 -146 7 -14 11 -32 8 -39 -2 -8 1 -25 8 -38 21 -39 6 -170 -25 -214 -14 -20 -25 -44 -25 -53 0 -9 -17 -25 -39 -37 -22 -11 -42 -24 -46 -30 -10 -17 -48 -11 -85 12 -39 24 -98 36 -214 45 -96 6 -171 -8 -248 -48 -31 -16 -63 -29 -70 -29 -7 0 -33 16 -57 35 -24 19 -48 35 -52 35 -5 0 -9 8 -9 18 0 9 -14 37 -30 61 -27 40 -30 52 -30 122 0 43 5 81 10 84 6 4 9 18 8 33 -1 15 4 37 10 49 20 36 31 114 21 141 -7 19 -3 45 17 106 42 127 62 168 101 208 29 30 51 68 39 68 -1 0 -23 -21 -48 -47z"/>
 <path d="M930 1303 c41 -18 153 -14 172 6 11 10 8 10 -15 2 -15 -6 -49 -8 -75 -5 -26 2 -63 6 -82 8 l-35 4 35 -15z"/>
 <path d="M932 1184 c-12 -8 -22 -25 -22 -37 0 -21 1 -21 13 3 7 14 23 26 35 28 12 2 22 8 22 13 0 14 -23 11 -48 -7z"/>
 <path d="M1020 1191 c0 -6 11 -11 24 -11 18 0 26 -6 28 -22 2 -18 5 -20 10 -7 3 9 3 21 -1 27 -9 15 -61 27 -61 13z"/>
 <path d="M1460 1146 c0 -3 4 -16 10 -30 14 -37 32 -33 19 4 -6 17 -15 30 -20 30 -5 0 -9 -2 -9 -4z"/>
 <path d="M502 1098 c-7 -18 -12 -35 -11 -37 0 -2 -4 -7 -10 -10 -14 -9 -43 -81 -32 -81 8 0 81 138 81 153 0 19 -17 3 -28 -25z"/>
 <path d="M1502 1051 c2 -7 7 -12 11 -12 12 1 9 15 -3 20 -7 2 -11 -2 -8 -8z"/>
 <path d="M663 904 c-25 -25 -42 -48 -40 -50 8 -8 215 -20 211 -12 -3 5 8 8 24 8 16 0 35 7 42 15 7 9 8 15 2 15 -5 0 -8 10 -5 23 5 20 4 20 -16 -5 -20 -25 -60 -41 -47 -20 3 5 -1 20 -9 35 -13 25 -12 26 18 30 18 2 -6 5 -52 5 l-84 2 -44 -46z m94 22 c0 -8 -5 -14 -11 -13 -6 1 -11 -11 -11 -26 1 -26 -1 -27 -30 -21 -43 9 -44 12 -7 45 35 32 59 37 59 15z"/>
 <path d="M1160 941 c23 -4 31 -9 23 -14 -7 -5 -13 -19 -13 -33 0 -33 -23 -31 -53 5 l-25 30 3 -28 c3 -39 12 -51 41 -51 13 0 24 -3 24 -7 0 -5 42 -5 92 -1 51 3 102 7 113 7 12 1 16 4 9 9 -6 4 -16 17 -23 30 -23 44 -69 62 -151 61 -54 -1 -65 -3 -40 -8z m131 -22 c35 -24 37 -44 7 -53 -35 -9 -58 -7 -58 5 0 6 7 9 15 5 21 -8 20 22 -2 46 -23 25 1 24 38 -3z"/>
 <path d="M758 823 c12 -2 30 -2 40 0 9 3 -1 5 -23 4 -22 0 -30 -2 -17 -4z"/>
 <path d="M860 802 c-46 -24 -83 -25 -200 -8 -26 4 -21 1 20 -14 92 -32 192 -21 230 25 19 23 -3 22 -50 -3z"/>
 <path d="M1208 823 c12 -2 30 -2 40 0 9 3 -1 5 -23 4 -22 0 -30 -2 -17 -4z"/>
 <path d="M1080 809 c0 -5 21 -19 47 -31 38 -17 58 -19 112 -14 104 10 143 26 46 20 -67 -5 -89 -2 -133 15 -60 24 -72 26 -72 10z"/>
 </g>
<g id="layer107" fill="#c3695d" stroke="none">
 <path d="M130 1983 c1 -37 22 -110 46 -158 30 -61 72 -86 188 -110 105 -23 321 -98 346 -120 11 -10 23 -15 26 -12 4 4 13 44 21 89 8 46 30 134 49 196 19 62 34 117 34 123 0 5 -140 9 -355 9 -332 0 -355 -1 -355 -17z"/>
 <path d="M927 1968 c3 -18 11 -51 17 -73 11 -37 10 -41 -14 -62 l-25 -22 40 -40 c21 -23 46 -41 55 -41 18 0 80 60 80 76 0 6 -9 19 -21 30 -22 19 -22 39 -3 132 l7 32 -71 0 -71 0 6 -32z"/>
 <path d="M1164 1983 c3 -10 10 -38 16 -63 6 -25 22 -79 35 -120 12 -41 26 -102 30 -136 9 -80 17 -94 44 -70 26 23 241 98 347 121 116 24 158 49 188 110 24 48 45 121 46 158 0 16 -24 17 -356 17 -334 0 -355 -1 -350 -17z"/>
 <path d="M940 1530 c-8 -5 -41 -10 -72 -10 -44 0 -59 -4 -67 -17 -6 -10 -11 -13 -11 -8 0 6 -5 3 -10 -5 -10 -15 -14 -90 -6 -90 3 0 36 23 73 52 37 28 83 57 101 65 17 7 32 15 32 18 0 8 -24 5 -40 -5z"/>
 <path d="M1020 1537 c0 -3 19 -15 43 -26 23 -11 66 -39 95 -61 57 -44 72 -44 72 -2 0 24 -19 70 -20 48 0 -6 -6 -3 -12 6 -9 11 -33 18 -73 21 -33 2 -70 8 -82 12 -13 4 -23 5 -23 2z"/>
 <path d="M1244 1394 c2 -10 8 -20 14 -22 17 -5 15 13 -2 27 -12 10 -14 9 -12 -5z"/>
 <path d="M715 1370 c-19 -21 -13 -42 7 -22 10 10 21 42 14 42 -2 0 -11 -9 -21 -20z"/>
 <path d="M642 1293 c-16 -32 -49 -126 -73 -206 -14 -49 -27 -76 -35 -73 -17 7 -33 -37 -28 -78 3 -27 -1 -41 -16 -56 -28 -28 -40 -25 -40 9 0 34 -18 51 -31 30 -5 -8 -9 -41 -9 -74 0 -33 0 -70 0 -82 0 -13 -7 -49 -15 -80 -21 -81 -19 -145 5 -176 11 -14 20 -35 20 -47 0 -29 28 -88 50 -103 9 -7 25 -29 35 -49 21 -45 78 -98 105 -98 11 0 20 -6 20 -13 0 -15 65 -80 97 -96 12 -6 38 -11 58 -11 20 0 50 -8 68 -17 45 -24 248 -24 294 0 18 10 46 17 63 17 17 0 45 6 63 14 32 13 97 78 97 96 0 6 9 10 20 10 26 0 84 52 104 94 9 19 29 48 46 66 16 17 32 48 35 68 7 40 9 45 30 82 19 33 19 88 -1 163 -9 34 -16 97 -16 139 0 43 -4 75 -9 72 -5 -3 -9 -11 -9 -19 0 -19 -51 -11 -67 11 -9 12 -11 35 -8 70 4 44 2 54 -18 70 -12 10 -16 12 -9 4 16 -19 15 -31 -3 -24 -8 3 -19 22 -26 42 -6 21 -16 42 -21 47 -7 7 -7 2 -2 -15 4 -14 7 -36 6 -50 -6 -72 -2 -110 13 -146 10 -21 17 -50 16 -63 0 -13 4 -30 10 -38 8 -9 10 -40 6 -95 -5 -64 -12 -89 -32 -118 -14 -20 -25 -44 -25 -53 0 -9 -17 -25 -39 -37 -22 -11 -42 -24 -46 -30 -10 -17 -48 -11 -85 12 -39 24 -98 36 -214 45 -96 6 -171 -8 -248 -48 -31 -16 -63 -29 -70 -29 -7 0 -33 16 -57 35 -24 19 -48 35 -52 35 -5 0 -9 8 -9 18 0 9 -14 37 -30 61 -27 40 -30 52 -30 122 0 43 5 81 10 84 6 4 10 18 9 33 -1 15 6 44 15 65 20 45 25 129 9 134 -13 5 41 173 78 245 10 20 19 40 19 43 0 12 -20 4 -28 -12z"/>
 <path d="M1000 1300 c14 -4 34 -8 45 -8 16 0 15 2 -5 8 -14 4 -34 8 -45 8 -16 0 -15 -2 5 -8z"/>
 <path d="M1330 1305 c0 -4 7 -19 15 -35 22 -42 38 -37 18 5 -14 30 -33 47 -33 30z"/>
 <path d="M1376 1198 c4 -13 11 -34 16 -48 10 -25 10 -25 18 -4 6 16 16 21 34 19 16 -2 24 1 20 7 -4 5 -17 8 -31 5 -19 -3 -27 1 -35 19 -14 30 -32 31 -22 2z"/>
 <path d="M1460 1146 c0 -3 4 -16 10 -30 14 -37 32 -33 19 4 -6 17 -15 30 -20 30 -5 0 -9 -2 -9 -4z"/>
 <path d="M506 1104 c-9 -36 1 -43 14 -10 12 33 12 36 1 36 -5 0 -12 -12 -15 -26z"/>
 <path d="M470 1046 c0 -2 -7 -20 -15 -40 -9 -21 -11 -36 -5 -36 5 0 17 16 25 36 18 43 18 44 5 44 -5 0 -10 -2 -10 -4z"/>
 <path d="M1540 964 c0 -3 5 -14 10 -25 16 -28 32 -23 18 6 -10 22 -28 35 -28 19z"/>
 <path d="M661 903 l-45 -48 44 -8 c68 -12 220 -1 239 17 9 9 10 16 4 16 -7 0 -9 9 -6 23 5 20 4 20 -16 -5 -20 -25 -60 -41 -47 -20 3 5 -1 20 -9 35 -13 25 -12 26 18 30 18 2 -6 5 -52 5 l-84 2 -46 -47z m96 23 c0 -8 -5 -14 -11 -13 -6 1 -11 -11 -11 -26 1 -26 -1 -27 -30 -21 -43 9 -44 12 -7 45 35 32 59 37 59 15z"/>
 <path d="M1160 941 c23 -4 31 -9 23 -14 -7 -5 -13 -19 -13 -33 0 -33 -23 -31 -54 7 -27 32 -33 31 -16 -2 8 -14 7 -19 -2 -19 -9 0 -8 -4 2 -15 8 -8 45 -17 81 -21 71 -7 209 3 192 14 -5 4 -15 17 -22 30 -23 44 -69 62 -151 61 -54 -1 -65 -3 -40 -8z m131 -22 c35 -24 37 -44 7 -53 -35 -9 -58 -7 -58 5 0 6 7 9 15 5 21 -8 20 22 -2 46 -23 25 1 24 38 -3z"/>
 <path d="M860 802 c-46 -24 -83 -25 -200 -8 -26 4 -21 1 20 -14 92 -32 192 -21 230 25 19 23 -3 22 -50 -3z"/>
 <path d="M1080 809 c0 -5 21 -19 47 -31 38 -17 58 -19 112 -14 104 10 143 26 46 20 -67 -5 -89 -2 -133 15 -60 24 -72 26 -72 10z"/>
 </g>
<g id="layer108" fill="#808681" stroke="none">
 <path d="M130 1983 c1 -37 22 -110 46 -158 30 -61 72 -86 188 -110 105 -23 321 -98 346 -120 11 -10 23 -15 26 -12 4 4 13 44 21 89 8 46 30 134 49 196 19 62 34 117 34 123 0 5 -140 9 -355 9 -332 0 -355 -1 -355 -17z"/>
 <path d="M927 1968 c3 -18 11 -51 17 -73 11 -37 10 -41 -14 -62 l-25 -22 40 -40 c21 -23 46 -41 55 -41 18 0 80 60 80 76 0 6 -9 19 -21 30 -22 19 -22 39 -3 132 l7 32 -71 0 -71 0 6 -32z"/>
 <path d="M1164 1983 c3 -10 10 -38 16 -63 6 -25 22 -79 35 -120 12 -41 26 -102 30 -136 9 -80 17 -94 44 -70 26 23 241 98 347 121 116 24 158 49 188 110 24 48 45 121 46 158 0 16 -24 17 -356 17 -334 0 -355 -1 -350 -17z"/>
 <path d="M515 1002 c-3 -8 -5 -33 -5 -56 0 -50 -12 -68 -60 -90 -36 -16 -38 -21 -40 -90 -1 -17 -8 -55 -16 -85 -20 -79 -18 -143 6 -174 11 -14 20 -35 20 -47 0 -29 28 -88 50 -103 9 -7 25 -29 35 -49 21 -45 78 -98 105 -98 11 0 20 -6 20 -13 0 -15 65 -80 97 -96 12 -6 38 -11 58 -11 20 0 50 -8 68 -17 45 -24 248 -24 294 0 18 10 46 17 63 17 17 0 45 6 63 14 32 13 97 78 97 96 0 6 9 10 20 10 26 0 84 52 104 94 9 19 29 48 46 66 16 17 32 48 35 68 7 40 9 45 30 82 19 32 19 87 1 159 -8 31 -16 81 -18 113 -2 31 -5 56 -8 55 -3 0 -22 7 -42 15 -38 17 -40 21 -53 101 -4 27 -13 41 -31 49 -13 6 -27 8 -32 4 -12 -13 -5 -91 13 -132 10 -21 17 -50 16 -63 0 -13 4 -30 10 -38 8 -9 10 -40 6 -95 -5 -64 -12 -89 -32 -118 -14 -20 -25 -44 -25 -53 0 -9 -17 -25 -39 -37 -22 -11 -42 -24 -46 -30 -10 -17 -48 -11 -85 12 -39 24 -98 36 -214 45 -96 6 -171 -8 -248 -48 -31 -16 -63 -29 -70 -29 -7 0 -33 16 -57 35 -24 19 -48 35 -52 35 -5 0 -9 8 -9 18 0 9 -14 37 -30 61 -27 40 -30 52 -30 122 0 43 5 81 10 84 6 4 9 18 8 33 -1 15 4 37 10 49 16 30 31 110 25 133 -6 22 -59 23 -68 2z"/>
 <path d="M661 903 l-45 -48 44 -8 c68 -12 220 -1 239 17 9 9 10 16 4 16 -7 0 -9 9 -6 23 5 20 4 20 -16 -5 -20 -25 -60 -41 -47 -20 3 5 -1 20 -9 35 -13 25 -12 26 18 30 18 2 -6 5 -52 5 l-84 2 -46 -47z m96 23 c0 -8 -5 -14 -11 -13 -6 1 -11 -11 -11 -26 1 -26 -1 -27 -30 -21 -43 9 -44 12 -7 45 35 32 59 37 59 15z"/>
 <path d="M1160 941 c23 -4 31 -9 23 -14 -7 -5 -13 -19 -13 -33 0 -33 -23 -31 -54 7 -27 32 -33 31 -16 -2 8 -14 7 -19 -2 -19 -9 0 -8 -4 2 -15 8 -8 45 -17 81 -21 71 -7 209 3 192 14 -5 4 -15 17 -22 30 -23 44 -69 62 -151 61 -54 -1 -65 -3 -40 -8z m131 -22 c35 -24 37 -44 7 -53 -35 -9 -58 -7 -58 5 0 6 7 9 15 5 21 -8 20 22 -2 46 -23 25 1 24 38 -3z"/>
 <path d="M860 802 c-46 -24 -83 -25 -200 -8 -26 4 -21 1 20 -14 92 -32 192 -21 230 25 19 23 -3 22 -50 -3z"/>
 <path d="M1080 809 c0 -5 21 -19 47 -31 38 -17 58 -19 112 -14 104 10 143 26 46 20 -67 -5 -89 -2 -133 15 -60 24 -72 26 -72 10z"/>
 </g>
<g id="layer109" fill="#a86e64" stroke="none">
 <path d="M130 1983 c1 -37 22 -110 46 -158 30 -61 72 -86 188 -110 105 -23 321 -98 346 -120 11 -10 23 -15 26 -12 4 3 14 51 24 107 10 55 30 135 43 178 14 42 27 89 30 105 l4 27 -353 0 c-331 0 -354 -1 -354 -17z"/>
 <path d="M930 1972 c0 -16 6 -50 14 -75 14 -46 14 -47 -13 -66 l-26 -20 40 -40 c21 -23 45 -41 52 -41 18 0 83 59 83 76 0 7 -11 21 -24 29 -21 14 -23 20 -16 53 4 20 11 54 14 75 l7 37 -66 0 c-65 0 -65 0 -65 -28z"/>
 <path d="M1160 1996 c0 -2 17 -64 39 -138 21 -74 42 -162 46 -195 9 -79 18 -93 44 -69 26 23 241 98 347 121 116 24 158 49 188 110 24 48 45 121 46 158 0 16 -23 17 -355 17 -195 0 -355 -2 -355 -4z"/>
 <path d="M515 1002 c-3 -8 -5 -33 -5 -56 0 -50 -12 -68 -60 -90 -36 -16 -38 -21 -40 -90 -1 -17 -8 -55 -16 -85 -20 -79 -18 -143 6 -174 11 -14 20 -35 20 -47 0 -29 28 -88 50 -103 9 -7 25 -29 35 -49 21 -45 78 -98 105 -98 11 0 20 -6 20 -13 0 -15 65 -80 97 -96 12 -6 38 -11 58 -11 20 0 50 -8 68 -17 45 -24 248 -24 294 0 18 10 46 17 63 17 17 0 45 6 63 14 32 13 97 78 97 96 0 6 9 10 20 10 26 0 84 52 104 94 9 19 29 48 46 66 16 17 32 48 35 68 7 40 9 45 30 82 19 32 19 87 1 159 -8 31 -16 81 -18 113 -2 31 -5 56 -8 55 -3 0 -22 7 -42 15 -38 17 -40 21 -53 101 -4 27 -13 41 -31 49 -13 6 -27 8 -32 4 -12 -13 -5 -91 13 -132 10 -21 17 -50 16 -63 0 -13 4 -30 10 -38 8 -9 10 -40 6 -95 -5 -64 -12 -89 -32 -118 -14 -20 -25 -44 -25 -53 0 -9 -17 -25 -39 -37 -22 -11 -42 -24 -46 -30 -10 -17 -48 -11 -85 12 -39 24 -98 36 -214 45 -96 6 -171 -8 -248 -48 -31 -16 -63 -29 -70 -29 -7 0 -33 16 -57 35 -24 19 -48 35 -52 35 -5 0 -9 8 -9 18 0 9 -14 37 -30 61 -27 40 -30 52 -30 122 0 43 5 81 10 84 6 4 9 18 8 33 -1 15 4 37 10 49 16 30 31 110 25 133 -6 22 -59 23 -68 2z"/>
 <path d="M661 903 l-45 -48 44 -8 c68 -12 220 -1 239 17 9 9 10 16 4 16 -7 0 -9 9 -5 23 5 21 4 21 -19 -5 -25 -27 -79 -46 -79 -28 0 5 7 10 15 10 26 0 13 49 -14 52 -9 0 4 4 29 8 38 6 32 7 -39 8 l-84 2 -46 -47z m103 22 c-4 -8 -10 -12 -15 -9 -5 3 -9 -9 -9 -25 0 -29 -3 -31 -35 -31 -44 0 -46 19 -4 54 34 29 72 36 63 11z"/>
 <path d="M1167 943 c32 -3 41 -8 36 -19 -3 -7 -11 -14 -19 -14 -8 0 -14 -9 -14 -20 0 -32 -35 -24 -59 13 -21 33 -29 31 -11 -4 8 -14 7 -19 -2 -19 -9 0 -8 -4 2 -15 8 -8 45 -17 81 -21 71 -7 209 3 192 14 -5 4 -15 17 -22 30 -23 44 -69 62 -151 60 -46 -1 -59 -3 -33 -5z m134 -32 c40 -40 37 -51 -16 -51 -25 0 -45 5 -45 10 0 6 5 10 10 10 17 0 11 38 -7 49 -16 9 -15 10 5 11 13 0 37 -13 53 -29z"/>
 <path d="M860 802 c-46 -24 -83 -25 -200 -8 -26 4 -21 1 20 -14 92 -32 192 -21 230 25 19 23 -3 22 -50 -3z"/>
 <path d="M1080 809 c0 -5 21 -19 47 -31 38 -17 58 -19 112 -14 104 10 143 26 46 20 -67 -5 -89 -2 -133 15 -60 24 -72 26 -72 10z"/>
 </g>
<g id="layer110" fill="#5b5956" stroke="none">
 <path d="M130 1983 c1 -37 22 -110 46 -158 30 -61 72 -86 188 -110 105 -23 321 -98 346 -120 11 -10 23 -15 26 -12 4 3 14 51 24 107 10 55 30 135 43 178 14 42 27 89 30 105 l4 27 -353 0 c-331 0 -354 -1 -354 -17z"/>
 <path d="M930 1972 c0 -16 6 -50 14 -75 14 -46 14 -47 -13 -66 l-26 -20 40 -40 c21 -23 45 -41 52 -41 18 0 83 59 83 76 0 7 -11 21 -24 29 -21 14 -23 20 -16 53 4 20 11 54 14 75 l7 37 -66 0 c-65 0 -65 0 -65 -28z"/>
 <path d="M1160 1996 c0 -2 17 -64 39 -138 21 -74 42 -162 46 -195 9 -79 18 -93 44 -69 26 23 241 98 347 121 116 24 158 49 188 110 24 48 45 121 46 158 0 16 -23 17 -355 17 -195 0 -355 -2 -355 -4z"/>
 <path d="M540 1005 c-7 -8 -16 -12 -21 -9 -5 3 -9 -19 -9 -49 0 -55 -18 -87 -51 -87 -35 -1 -50 -29 -50 -94 0 -17 -7 -55 -15 -85 -20 -79 -18 -143 6 -174 11 -14 20 -35 20 -47 0 -29 28 -88 50 -103 9 -7 25 -29 35 -49 21 -45 78 -98 105 -98 11 0 20 -6 20 -13 0 -15 65 -80 97 -96 12 -6 38 -11 58 -11 20 0 50 -8 68 -17 45 -24 248 -24 294 0 18 10 46 17 63 17 17 0 45 6 63 14 32 13 97 78 97 96 0 6 9 10 20 10 26 0 84 52 104 94 9 19 29 48 46 66 16 17 32 48 35 68 7 40 9 45 30 82 19 32 19 87 1 159 -8 31 -16 81 -18 113 -2 31 -6 54 -10 52 -4 -2 -9 0 -13 6 -3 5 -14 10 -24 10 -28 0 -43 25 -52 83 -8 50 -28 77 -56 77 -19 0 -17 -92 3 -138 9 -20 17 -48 20 -62 2 -14 7 -45 11 -70 11 -62 1 -135 -25 -169 -12 -16 -24 -40 -27 -54 -7 -26 -90 -87 -119 -87 -9 0 -39 11 -66 25 -28 14 -62 24 -77 23 -16 -1 -37 3 -48 9 -28 15 -183 14 -215 -1 -14 -7 -33 -11 -43 -8 -10 2 -39 -10 -66 -27 -59 -38 -77 -39 -121 -3 -19 16 -43 31 -52 35 -10 3 -18 15 -18 26 0 11 -12 33 -26 50 -30 36 -44 113 -31 181 4 25 9 56 11 70 3 14 11 42 20 62 20 48 22 138 2 138 -7 0 -19 -7 -26 -15z"/>
 <path d="M695 930 c-29 -19 -64 -58 -65 -72 0 -5 56 -8 124 -8 131 0 137 2 142 47 l3 22 -22 -23 c-23 -25 -77 -44 -77 -26 0 5 7 10 15 10 26 0 13 50 -14 51 -12 0 -12 2 4 9 15 6 7 9 -30 9 -34 1 -60 -6 -80 -19z m69 -5 c-4 -8 -10 -12 -15 -9 -5 3 -9 -9 -9 -25 0 -29 -3 -31 -35 -31 -44 0 -46 19 -4 54 34 29 72 36 63 11z"/>
 <path d="M1192 943 c20 -5 13 -33 -8 -33 -8 0 -14 -9 -14 -20 0 -28 -33 -26 -54 3 -12 15 -16 17 -12 5 3 -10 0 -18 -6 -18 -8 0 -7 -5 3 -15 13 -13 39 -15 145 -13 l129 3 -46 48 c-44 45 -49 47 -100 46 -30 -1 -46 -3 -37 -6z m109 -32 c40 -40 37 -51 -16 -51 -25 0 -45 5 -45 10 0 6 5 10 10 10 17 0 11 38 -7 49 -16 9 -15 10 5 11 13 0 37 -13 53 -29z"/>
 <path d="M855 798 c-27 -14 -58 -21 -95 -21 l-55 0 44 -10 c37 -9 54 -7 99 9 31 10 57 25 60 32 5 17 -6 15 -53 -10z"/>
 <path d="M1090 805 c23 -27 112 -47 166 -37 l49 10 -60 1 c-36 1 -78 9 -104 21 -52 24 -68 25 -51 5z"/>
 </g>
<g id="layer111" fill="#695047" stroke="none">
 <path d="M130 1983 c1 -37 22 -110 46 -158 30 -61 72 -86 188 -110 106 -23 321 -98 347 -121 27 -24 34 -11 43 73 4 35 17 99 31 141 13 42 30 103 38 135 l15 57 -354 0 c-331 0 -354 -1 -354 -17z"/>
 <path d="M930 1977 c0 -13 7 -46 15 -73 15 -49 15 -49 -11 -70 l-26 -22 37 -41 c21 -22 43 -41 51 -41 18 0 84 59 84 75 0 7 -11 22 -25 32 -22 16 -23 22 -16 58 5 22 11 55 15 73 l6 32 -65 0 c-61 0 -65 -1 -65 -23z"/>
 <path d="M1167 1978 c3 -13 20 -75 38 -138 18 -63 36 -142 40 -176 9 -80 17 -94 44 -70 26 23 241 98 347 121 116 24 158 49 188 110 24 48 45 121 46 158 0 16 -23 17 -354 17 l-354 0 5 -22z"/>
 <path d="M540 1005 c-7 -8 -16 -12 -21 -9 -5 3 -9 -19 -9 -49 0 -55 -18 -87 -51 -87 -35 -1 -50 -29 -50 -94 0 -17 -7 -55 -15 -85 -20 -79 -18 -143 6 -174 11 -14 20 -35 20 -47 0 -29 28 -88 50 -103 9 -7 25 -29 35 -49 21 -45 78 -98 105 -98 11 0 20 -6 20 -13 0 -15 65 -80 97 -96 12 -6 38 -11 58 -11 20 0 50 -8 68 -17 45 -24 248 -24 294 0 18 10 46 17 63 17 17 0 45 6 63 14 32 13 97 78 97 96 0 6 9 10 20 10 26 0 84 52 104 94 9 19 29 48 46 66 16 17 32 48 35 68 7 40 9 45 30 82 19 32 19 87 1 159 -8 31 -16 81 -18 113 -2 31 -6 54 -10 52 -4 -2 -9 0 -13 6 -3 5 -14 10 -24 10 -28 0 -43 25 -52 83 -8 50 -28 77 -56 77 -19 0 -17 -92 3 -138 9 -20 17 -48 20 -62 2 -14 7 -45 11 -70 11 -62 1 -135 -25 -169 -12 -16 -24 -40 -27 -54 -7 -26 -90 -87 -119 -87 -9 0 -39 11 -66 25 -28 14 -62 24 -77 23 -16 -1 -37 3 -48 9 -28 15 -183 14 -215 -1 -14 -7 -33 -11 -43 -8 -10 2 -39 -10 -66 -27 -59 -38 -77 -39 -121 -3 -19 16 -43 31 -52 35 -10 3 -18 15 -18 26 0 11 -12 33 -26 50 -30 36 -44 113 -31 181 4 25 9 56 11 70 3 14 11 42 20 62 20 48 22 138 2 138 -7 0 -19 -7 -26 -15z"/>
 <path d="M695 930 c-29 -19 -64 -58 -65 -72 0 -5 56 -8 124 -8 131 0 137 2 142 47 3 22 3 22 -19 -3 -22 -25 -77 -43 -77 -24 0 5 7 10 15 10 20 0 19 24 -2 41 -17 13 -17 13 -3 -6 14 -18 14 -19 -2 -7 -25 20 -68 5 -68 -24 0 -21 -5 -24 -35 -24 -43 0 -46 20 -9 56 21 19 37 24 71 22 23 -1 46 2 50 5 17 17 -94 5 -122 -13z"/>
 <path d="M1183 943 c4 -3 25 -6 46 -5 30 1 48 -5 70 -24 46 -39 41 -54 -19 -54 -27 0 -50 5 -50 10 0 6 7 10 16 10 14 0 15 2 3 17 -12 14 -12 16 0 9 9 -6 12 -4 9 5 -5 15 -58 21 -58 7 0 -4 -7 -8 -15 -8 -9 0 -15 -9 -15 -24 0 -19 -4 -23 -20 -19 -11 3 -28 15 -37 27 -11 15 -14 16 -10 4 4 -11 1 -18 -5 -18 -8 0 -7 -5 3 -15 13 -13 39 -15 145 -13 l129 3 -46 48 c-44 44 -49 47 -99 47 -29 0 -50 -3 -47 -7z"/>
 <path d="M855 798 c-27 -14 -58 -21 -95 -21 l-55 0 44 -10 c37 -9 54 -7 99 9 31 10 57 25 60 32 5 17 -6 15 -53 -10z"/>
 <path d="M1090 805 c23 -27 112 -47 166 -37 l49 10 -60 1 c-36 1 -78 9 -104 21 -52 24 -68 25 -51 5z"/>
 </g>
<g id="layer112" fill="#66463d" stroke="none">
 <path d="M130 1983 c1 -37 22 -110 46 -158 30 -61 72 -86 188 -110 106 -23 321 -98 347 -121 27 -24 34 -11 43 73 4 35 17 99 31 141 13 42 30 103 38 135 l15 57 -354 0 c-331 0 -354 -1 -354 -17z"/>
 <path d="M930 1977 c0 -13 7 -46 15 -73 15 -49 15 -49 -11 -70 l-26 -22 37 -41 c21 -22 43 -41 51 -41 18 0 84 59 84 75 0 7 -11 22 -25 32 -22 16 -23 22 -16 58 5 22 11 55 15 73 l6 32 -65 0 c-61 0 -65 -1 -65 -23z"/>
 <path d="M1167 1978 c3 -13 20 -75 38 -138 18 -63 36 -142 40 -176 9 -80 17 -94 44 -70 26 23 241 98 347 121 116 24 158 49 188 110 24 48 45 121 46 158 0 16 -23 17 -354 17 l-354 0 5 -22z"/>
 <path d="M540 1005 c-7 -8 -16 -12 -21 -9 -5 3 -9 -19 -9 -49 0 -55 -18 -87 -51 -87 -35 -1 -50 -29 -50 -94 0 -17 -7 -55 -15 -85 -20 -79 -18 -143 6 -174 11 -14 20 -35 20 -47 0 -29 28 -88 50 -103 9 -7 25 -29 35 -49 21 -45 78 -98 105 -98 11 0 20 -6 20 -13 0 -15 65 -80 97 -96 12 -6 38 -11 58 -11 20 0 50 -8 68 -17 45 -24 248 -24 294 0 18 10 46 17 63 17 17 0 45 6 63 14 32 13 97 78 97 96 0 6 9 10 20 10 26 0 84 52 104 94 9 19 29 48 46 66 16 17 32 48 35 68 7 40 9 45 30 82 19 32 19 87 1 159 -8 31 -16 81 -18 113 -2 31 -6 54 -10 52 -4 -2 -9 0 -13 6 -3 5 -14 10 -24 10 -28 0 -48 31 -54 84 -5 49 -28 81 -52 73 -18 -6 -17 -88 2 -136 9 -25 19 -55 20 -66 1 -11 6 -41 11 -67 11 -62 1 -131 -26 -167 -12 -16 -24 -40 -27 -54 -7 -26 -90 -87 -119 -87 -9 0 -39 12 -67 26 -28 14 -60 24 -72 23 -12 -2 -38 2 -57 9 -45 14 -155 14 -200 -1 -19 -6 -43 -10 -53 -8 -10 1 -40 -11 -66 -28 -57 -37 -80 -39 -118 -7 -15 12 -38 28 -49 34 -12 6 -25 24 -29 39 -3 16 -16 38 -28 51 -25 27 -37 105 -25 170 5 26 10 58 13 72 2 14 10 43 19 65 20 52 21 135 2 135 -7 0 -19 -7 -26 -15z m514 -765 c4 -8 0 -6 -8 4 -9 11 -15 34 -15 50 1 31 1 31 8 -4 4 -20 11 -42 15 -50z m-274 1 c-6 -16 -18 -32 -27 -35 -10 -4 -8 2 6 20 12 15 21 34 21 42 0 8 3 12 6 9 4 -4 1 -20 -6 -36z"/>
 <path d="M696 931 c-16 -11 -38 -33 -48 -50 l-20 -31 125 0 c129 0 139 3 142 43 2 16 0 15 -20 -3 -24 -23 -75 -36 -75 -20 0 5 7 10 15 10 20 0 19 24 -2 41 -17 13 -17 13 -3 -6 14 -18 14 -19 -2 -7 -25 20 -68 5 -68 -24 0 -21 -5 -24 -35 -24 -43 0 -46 20 -8 56 20 18 36 24 60 22 17 -1 35 1 39 5 16 16 -73 5 -100 -12z"/>
 <path d="M1194 943 c4 -4 22 -6 40 -5 24 2 43 -5 65 -24 46 -39 41 -54 -19 -54 -27 0 -50 5 -50 10 0 6 7 10 16 10 14 0 15 2 3 17 -12 14 -12 16 0 9 9 -6 12 -4 9 5 -5 15 -58 21 -58 7 0 -4 -7 -8 -15 -8 -9 0 -15 -9 -15 -24 0 -19 -4 -23 -20 -19 -11 3 -27 15 -35 26 -14 20 -14 20 -12 -4 0 -13 6 -27 12 -31 5 -4 65 -8 133 -8 l123 0 -22 31 c-30 43 -77 69 -123 69 -22 0 -36 -3 -32 -7z"/>
 <path d="M873 804 c-12 -9 -44 -22 -70 -29 -38 -10 -42 -13 -20 -14 32 -1 127 37 127 50 0 13 -12 10 -37 -7z"/>
 <path d="M1090 810 c0 -16 64 -40 102 -39 l33 1 -30 8 c-16 4 -47 15 -67 24 -23 10 -38 12 -38 6z"/>
 </g>
<g id="layer113" fill="#5b453c" stroke="none">
 <path d="M130 1983 c1 -37 22 -110 46 -158 30 -61 72 -86 188 -110 106 -23 321 -98 347 -121 27 -24 34 -11 43 73 4 35 17 99 31 141 13 42 30 103 38 135 l15 57 -354 0 c-331 0 -354 -1 -354 -17z"/>
 <path d="M930 1977 c0 -13 7 -46 15 -73 15 -49 15 -49 -11 -70 l-26 -22 37 -41 c21 -22 43 -41 51 -41 18 0 84 59 84 75 0 7 -11 22 -25 32 -22 16 -23 22 -16 58 5 22 11 55 15 73 l6 32 -65 0 c-61 0 -65 -1 -65 -23z"/>
 <path d="M1167 1978 c3 -13 20 -75 38 -138 18 -63 36 -142 40 -176 9 -80 17 -94 44 -70 26 23 241 98 347 121 116 24 158 49 188 110 24 48 45 121 46 158 0 16 -23 17 -354 17 l-354 0 5 -22z"/>
 <path d="M540 1005 c-7 -8 -15 -13 -19 -11 -3 2 -7 -19 -8 -46 -2 -53 -23 -88 -52 -88 -37 -1 -52 -28 -52 -94 0 -17 -7 -55 -15 -85 -20 -79 -18 -143 6 -174 11 -14 20 -35 20 -47 0 -29 28 -88 50 -103 9 -7 25 -29 35 -49 21 -45 78 -98 105 -98 11 0 20 -6 20 -13 0 -15 65 -80 97 -96 12 -6 38 -11 58 -11 20 0 50 -8 68 -17 45 -24 248 -24 294 0 18 10 46 17 63 17 17 0 45 6 63 14 32 13 97 78 97 96 0 6 9 10 20 10 26 0 84 52 104 94 9 19 29 48 46 66 16 17 32 48 35 68 7 40 9 45 30 82 19 32 19 87 1 159 -8 31 -16 81 -18 113 -2 31 -6 54 -10 52 -4 -2 -9 0 -13 6 -3 5 -14 10 -24 10 -28 0 -48 31 -54 84 -5 49 -28 81 -52 73 -17 -6 -17 -81 0 -128 9 -24 18 -55 20 -69 3 -14 8 -47 13 -73 11 -61 -2 -144 -27 -171 -11 -12 -23 -34 -26 -49 -4 -16 -19 -34 -34 -42 -15 -7 -33 -21 -40 -29 -20 -23 -67 -19 -116 10 -25 14 -55 24 -67 23 -13 -2 -39 2 -58 8 -46 15 -156 15 -200 0 -19 -6 -43 -10 -53 -8 -10 1 -40 -11 -66 -28 -57 -37 -80 -39 -118 -7 -15 12 -38 28 -50 35 -13 6 -23 18 -23 25 0 7 -14 33 -31 59 -27 41 -30 55 -31 120 0 41 5 84 11 96 7 12 10 25 7 30 -3 4 4 32 15 61 31 82 17 170 -21 125z m516 -767 c5 -8 1 -5 -8 5 -10 11 -17 33 -17 51 1 31 1 31 8 -6 4 -20 12 -43 17 -50z m-281 -7 c-8 -17 -21 -31 -27 -31 -7 0 -5 7 4 18 9 9 19 28 23 42 5 14 10 20 12 13 2 -6 -3 -25 -12 -42z m110 -119 c-10 -2 -25 3 -33 12 -15 14 -13 15 17 3 23 -8 28 -13 16 -15z"/>
 <path d="M696 931 c-16 -11 -38 -33 -48 -50 l-20 -31 125 0 c129 0 139 3 142 43 2 16 0 15 -20 -3 -24 -23 -75 -36 -75 -20 0 5 7 10 15 10 20 0 19 24 -2 41 -17 13 -17 13 -3 -6 14 -18 14 -19 -2 -7 -25 20 -68 5 -68 -24 0 -21 -5 -24 -35 -24 -43 0 -46 20 -8 56 20 18 36 24 60 22 17 -1 35 1 39 5 16 16 -73 5 -100 -12z"/>
 <path d="M1194 943 c4 -4 22 -6 40 -5 24 2 43 -5 65 -24 46 -39 41 -54 -19 -54 -27 0 -50 5 -50 10 0 6 7 10 16 10 14 0 15 2 3 17 -12 14 -12 16 0 9 9 -6 12 -4 9 5 -5 15 -58 21 -58 7 0 -4 -6 -8 -14 -8 -8 0 -16 -11 -18 -25 -3 -24 -4 -24 -31 -10 -26 13 -28 13 -25 -3 3 -15 19 -17 132 -20 l128 -3 -22 32 c-31 43 -78 69 -124 69 -22 0 -36 -3 -32 -7z"/>
 <path d="M875 803 c-16 -9 -50 -22 -75 -29 -25 -7 -36 -13 -25 -13 33 -1 92 18 117 39 28 24 23 25 -17 3z"/>
 <path d="M1090 812 c0 -14 69 -42 103 -41 l32 1 -38 9 c-21 5 -51 16 -67 24 -17 9 -30 12 -30 7z"/>
 </g>
<g id="layer114" fill="#3e4341" stroke="none">
 <path d="M130 1983 c1 -37 22 -110 46 -158 30 -61 72 -86 188 -110 106 -23 321 -98 347 -121 27 -24 34 -11 43 73 4 35 17 99 31 141 13 42 30 103 38 135 l15 57 -354 0 c-331 0 -354 -1 -354 -17z"/>
 <path d="M930 1977 c0 -13 7 -46 15 -73 15 -49 15 -49 -11 -70 l-26 -22 37 -41 c21 -22 43 -41 51 -41 18 0 84 59 84 75 0 7 -11 22 -25 32 -22 16 -23 22 -16 58 5 22 11 55 15 73 l6 32 -65 0 c-61 0 -65 -1 -65 -23z"/>
 <path d="M1167 1978 c3 -13 20 -75 38 -138 18 -63 36 -142 40 -176 9 -80 17 -94 44 -70 26 23 241 98 347 121 116 24 158 49 188 110 24 48 45 121 46 158 0 16 -23 17 -354 17 l-354 0 5 -22z"/>
 <path d="M540 1005 c-7 -8 -15 -13 -19 -11 -3 3 -7 -13 -7 -34 -2 -66 -12 -89 -42 -96 -52 -13 -62 -29 -63 -98 0 -17 -7 -55 -15 -85 -20 -79 -18 -143 6 -174 11 -14 20 -34 20 -45 0 -34 17 -69 50 -103 16 -18 30 -38 30 -44 0 -22 86 -105 108 -105 12 0 22 -6 22 -13 0 -15 65 -80 97 -96 12 -6 38 -11 58 -11 20 0 50 -8 68 -17 45 -24 248 -24 294 0 18 10 46 17 63 17 17 0 45 6 63 14 32 13 97 78 97 96 0 6 9 10 20 10 26 0 84 52 104 94 9 19 29 48 46 66 16 17 32 48 35 68 7 40 9 45 30 82 19 32 19 87 1 159 -8 31 -16 81 -18 113 -2 31 -6 54 -10 52 -4 -2 -9 0 -13 6 -3 5 -14 10 -24 10 -28 0 -48 31 -54 84 -5 49 -28 81 -52 73 -17 -6 -17 -81 0 -128 9 -24 18 -56 19 -70 1 -14 6 -30 9 -36 24 -38 9 -174 -22 -207 -11 -12 -22 -33 -26 -47 -8 -32 -86 -89 -121 -89 -14 0 -45 12 -69 26 -25 14 -55 24 -67 23 -13 -2 -39 2 -58 8 -46 15 -156 15 -200 0 -19 -6 -43 -10 -53 -8 -10 1 -40 -11 -66 -28 -57 -37 -80 -39 -118 -7 -15 12 -38 28 -50 35 -13 6 -23 18 -23 25 0 7 -13 32 -29 57 -38 58 -51 161 -26 208 9 18 13 36 10 42 -4 5 1 27 11 47 20 41 25 143 8 149 -6 2 -17 -3 -24 -12z m-90 -210 c-7 -9 -15 -13 -18 -10 -3 2 1 11 8 20 7 9 15 13 18 10 3 -2 -1 -11 -8 -20z m1088 13 c-2 -3 6 -15 16 -27 11 -12 14 -21 8 -21 -13 0 -37 40 -25 40 4 0 1 5 -7 11 -10 7 -11 9 -2 7 8 -2 12 -6 10 -10z m-1065 -131 c-4 -6 -10 -2 -14 9 -12 31 -9 40 6 20 8 -10 11 -24 8 -29z m-25 -1 c2 -10 0 -22 -6 -28 -6 -6 -11 1 -14 22 -5 32 14 38 20 6z m1108 -12 c-4 -14 -9 -24 -12 -21 -3 2 -2 17 2 31 3 15 9 25 11 22 3 -3 2 -17 -1 -32z m-1116 -112 c0 -9 -7 -6 -20 11 -11 14 -20 29 -20 33 0 4 9 -1 20 -11 11 -10 20 -25 20 -33z m43 24 c9 9 20 -43 13 -61 -9 -26 -23 -16 -19 13 3 19 2 23 -5 13 -7 -10 -11 -5 -14 18 -3 22 -1 28 7 21 7 -5 15 -7 18 -4z m1051 -12 c10 -25 -1 -29 -14 -5 -6 12 -7 21 -1 21 5 0 12 -7 15 -16z m42 -30 c4 -22 1 -36 -11 -48 -23 -22 -33 -11 -12 12 19 20 23 37 7 27 -6 -4 -10 7 -10 26 0 40 17 28 26 -17z m-1088 -66 c7 -7 12 -21 11 -32 0 -15 -2 -17 -6 -6 -3 8 -12 23 -21 33 -17 19 -3 24 16 5z m60 -41 c-1 -37 -14 -57 -37 -57 -15 1 -14 2 1 13 9 7 16 20 16 28 -2 36 3 60 11 54 5 -3 9 -20 9 -38z m952 1 c0 -6 -7 -5 -15 2 -8 7 -15 17 -15 22 0 6 7 5 15 -2 8 -7 15 -17 15 -22z m10 -28 c12 -8 12 -10 -5 -10 -11 0 -27 5 -35 10 -12 8 -12 10 5 10 11 0 27 -5 35 -10z m-950 -34 c0 -8 3 -23 7 -33 6 -16 5 -17 -13 -3 -12 9 -11 5 5 -13 17 -19 20 -27 10 -27 -8 -1 -3 -7 11 -15 24 -14 24 -14 3 -15 -12 0 -28 6 -35 14 -13 12 -14 26 -9 89 1 20 21 23 21 3z m849 -19 c0 -21 -1 -21 -9 -2 -12 28 -12 37 0 30 6 -3 10 -16 9 -28z m-581 -17 c-2 -7 -10 1 -17 16 -12 27 -11 28 4 12 10 -9 16 -21 13 -28z m612 11 c0 -11 -4 -23 -10 -26 -6 -4 -10 5 -10 19 0 14 5 26 10 26 6 0 10 -9 10 -19z m-597 -52 c-5 -5 -7 7 -4 29 5 34 6 35 9 8 2 -16 0 -32 -5 -37z m349 49 c-17 -17 -15 -33 3 -18 9 7 18 11 20 8 10 -10 -23 -28 -39 -22 -12 5 -13 10 -5 25 5 10 15 19 21 19 9 0 9 -3 0 -12z m-182 -32 c-5 -15 -10 -43 -10 -62 0 -21 -4 -33 -10 -29 -16 10 -12 64 7 96 20 34 27 32 13 -5z m38 -1 c0 -19 10 -51 22 -72 l21 -36 -23 15 c-32 21 -51 63 -43 98 9 41 23 38 23 -5z m69 -39 c17 -39 10 -43 -16 -10 -12 15 -21 40 -20 58 l0 31 11 -25 c6 -14 17 -38 25 -54z m-407 0 c0 -17 -4 -15 -20 12 -25 41 -25 50 0 27 11 -10 20 -28 20 -39z m40 29 c9 -24 4 -55 -9 -55 -3 0 -7 18 -8 40 -1 46 4 50 17 15z m694 -26 c-28 -31 -35 -22 -11 15 14 21 23 28 25 19 2 -8 -4 -23 -14 -34z m-664 -48 c-6 -12 -22 -24 -36 -27 -19 -5 -24 -12 -21 -25 3 -11 0 -19 -5 -19 -6 0 -5 -8 3 -17 11 -15 10 -14 -9 1 -22 19 -31 43 -12 31 6 -3 10 -1 10 6 0 6 14 27 30 46 17 18 30 44 30 57 0 12 3 26 8 30 12 13 14 -61 2 -83z m519 85 c-2 -1 -19 -8 -38 -14 -29 -10 -32 -10 -21 3 7 8 24 15 38 15 14 0 23 -2 21 -4z m-439 -51 c-7 -8 -10 -31 -8 -50 5 -41 3 -42 -17 -11 -13 19 -14 28 -4 50 7 14 19 26 27 26 12 0 12 -3 2 -15z m481 5 c10 -6 19 -18 19 -26 0 -13 -2 -13 -22 0 -12 9 -30 16 -40 16 -9 0 -20 5 -23 10 -8 13 41 13 66 0z m-381 -55 c0 -13 -4 -26 -9 -29 -5 -3 -9 10 -9 29 0 19 4 32 9 29 5 -3 9 -16 9 -29z m260 20 c7 -8 19 -15 26 -15 8 0 14 -4 14 -10 0 -12 -2 -12 -34 0 -23 8 -25 7 -28 -22 -2 -17 -9 -33 -15 -36 -10 -3 -9 7 2 38 8 23 12 46 9 51 -9 15 13 10 26 -6z m-51 -43 c0 -24 -1 -25 -9 -7 -12 28 -12 47 0 40 6 -3 10 -18 9 -33z m-187 -27 c-6 -14 -19 -25 -28 -25 -16 0 -16 1 -1 18 10 10 17 27 17 37 0 15 3 16 12 7 9 -9 9 -18 0 -37z m74 -7 c4 -5 -4 -8 -17 -6 -12 1 -24 8 -26 15 -5 14 34 6 43 -9z m154 -13 c-21 -25 -32 -17 -13 9 10 13 20 20 21 15 2 -5 -2 -16 -8 -24z m-304 -16 c16 0 16 -2 -4 -11 -18 -9 -28 -8 -49 8 -42 31 -42 51 -1 26 20 -12 44 -22 54 -23z m179 1 c-3 -5 -16 -10 -28 -9 -21 0 -21 1 -2 9 28 12 37 12 30 0z m35 -25 c-7 -8 -22 -15 -34 -15 -21 1 -21 1 -1 12 11 6 24 18 29 27 7 11 11 12 14 3 2 -7 -2 -19 -8 -27z"/>
 <path d="M671 903 l-46 -48 124 -3 c125 -3 156 4 144 34 -4 11 -10 10 -30 -6 -27 -21 -63 -27 -63 -10 0 6 7 10 15 10 20 0 19 24 -2 41 -17 13 -17 13 -3 -6 14 -18 14 -19 -2 -7 -25 20 -68 5 -68 -24 0 -21 -5 -24 -35 -24 -44 0 -46 20 -8 56 21 19 36 25 60 22 18 -2 33 0 33 4 0 4 -16 8 -36 8 -30 0 -44 -8 -83 -47z"/>
 <path d="M1205 930 c-3 -11 -13 -20 -21 -20 -8 0 -14 -10 -14 -25 0 -29 -7 -31 -39 -9 -22 16 -23 15 -19 -2 3 -17 15 -19 126 -22 67 -1 122 1 122 6 0 5 -9 21 -21 36 -42 53 -122 75 -134 36z m94 -16 c46 -39 41 -54 -19 -54 -27 0 -50 5 -50 10 0 6 7 10 16 10 14 0 15 2 3 17 -12 14 -12 16 0 9 9 -6 12 -5 9 5 -3 8 -15 13 -27 12 -13 -2 -20 1 -16 7 11 18 53 10 84 -16z"/>
 <path d="M885 808 c-11 -7 -42 -20 -70 -30 -49 -18 -49 -18 -10 -12 42 6 90 27 100 44 8 13 5 12 -20 -2z"/>
 <path d="M1090 811 c0 -12 74 -41 103 -40 14 0 8 5 -18 13 -22 7 -50 18 -62 25 -13 6 -23 8 -23 2z"/>
 </g>
<g id="layer115" fill="#4f372d" stroke="none">
 <path d="M130 1983 c1 -37 22 -110 46 -158 30 -61 72 -86 188 -110 106 -23 321 -98 347 -121 27 -24 34 -11 43 73 4 35 17 99 31 141 13 42 30 103 38 135 l15 57 -354 0 c-331 0 -354 -1 -354 -17z"/>
 <path d="M930 1977 c0 -13 7 -46 15 -73 15 -49 15 -49 -12 -71 l-27 -22 41 -40 c22 -23 46 -41 51 -41 16 0 82 60 82 73 0 6 -12 21 -26 32 -24 19 -25 24 -16 60 5 22 13 55 16 73 l6 32 -65 0 c-61 0 -65 -1 -65 -23z"/>
 <path d="M1177 1943 c8 -32 25 -93 38 -135 14 -42 27 -106 31 -141 9 -84 16 -97 43 -73 26 23 241 98 347 121 116 24 158 49 188 110 24 48 45 121 46 158 0 16 -23 17 -354 17 l-354 0 15 -57z"/>
 <path d="M540 1005 c-7 -8 -15 -13 -19 -11 -3 3 -7 -13 -7 -34 -2 -66 -12 -89 -42 -96 -52 -13 -62 -29 -63 -98 0 -17 -7 -55 -15 -85 -20 -79 -18 -143 6 -174 11 -14 20 -34 20 -45 0 -34 17 -69 50 -103 16 -18 30 -38 30 -44 0 -22 86 -105 108 -105 12 0 22 -6 22 -13 0 -15 65 -80 97 -96 12 -6 38 -11 58 -11 20 0 50 -8 68 -17 45 -24 248 -24 294 0 18 10 46 17 63 17 17 0 45 6 63 14 32 13 97 78 97 96 0 6 9 10 20 10 26 0 84 52 104 94 9 19 29 48 46 66 16 17 32 48 35 68 7 40 9 45 30 82 19 32 19 87 1 159 -8 31 -16 81 -18 113 -2 31 -6 54 -10 52 -4 -2 -9 0 -13 6 -3 5 -14 10 -24 10 -28 0 -48 31 -54 84 -5 49 -28 81 -52 73 -17 -6 -17 -81 0 -128 9 -24 18 -56 19 -70 1 -14 6 -30 9 -36 24 -38 9 -174 -22 -207 -11 -12 -22 -33 -26 -47 -8 -32 -86 -89 -121 -89 -14 0 -45 12 -69 26 -25 14 -55 24 -67 23 -13 -2 -39 2 -58 8 -46 15 -156 15 -200 0 -19 -6 -43 -10 -53 -8 -10 1 -40 -11 -66 -28 -57 -37 -80 -39 -118 -7 -15 12 -38 28 -50 35 -13 6 -23 18 -23 25 0 7 -13 32 -29 57 -38 58 -51 161 -26 208 9 18 13 36 10 42 -4 5 1 27 11 47 20 41 25 143 8 149 -6 2 -17 -3 -24 -12z m-90 -210 c-7 -9 -15 -13 -18 -10 -3 2 1 11 8 20 7 9 15 13 18 10 3 -2 -1 -11 -8 -20z m1088 13 c-2 -3 6 -15 16 -27 11 -12 14 -21 8 -21 -13 0 -37 40 -25 40 4 0 1 5 -7 11 -10 7 -11 9 -2 7 8 -2 12 -6 10 -10z m-1065 -131 c-4 -6 -10 -2 -14 9 -12 31 -9 40 6 20 8 -10 11 -24 8 -29z m-25 -1 c2 -10 0 -22 -6 -28 -6 -6 -11 1 -14 22 -5 32 14 38 20 6z m1108 -12 c-4 -14 -9 -24 -12 -21 -3 2 -2 17 2 31 3 15 9 25 11 22 3 -3 2 -17 -1 -32z m-1116 -112 c0 -9 -7 -6 -20 11 -11 14 -20 29 -20 33 0 4 9 -1 20 -11 11 -10 20 -25 20 -33z m43 24 c9 9 20 -43 13 -61 -9 -26 -23 -16 -19 13 3 19 2 23 -5 13 -7 -10 -11 -5 -14 18 -3 22 -1 28 7 21 7 -5 15 -7 18 -4z m1051 -12 c10 -25 -1 -29 -14 -5 -6 12 -7 21 -1 21 5 0 12 -7 15 -16z m42 -30 c4 -22 1 -36 -11 -48 -23 -22 -33 -11 -12 12 19 20 23 37 7 27 -6 -4 -10 7 -10 26 0 40 17 28 26 -17z m-1088 -66 c7 -7 12 -21 11 -32 0 -15 -2 -17 -6 -6 -3 8 -12 23 -21 33 -17 19 -3 24 16 5z m60 -41 c-1 -37 -14 -57 -37 -57 -15 1 -14 2 1 13 9 7 16 20 16 28 -2 36 3 60 11 54 5 -3 9 -20 9 -38z m952 1 c0 -6 -7 -5 -15 2 -8 7 -15 17 -15 22 0 6 7 5 15 -2 8 -7 15 -17 15 -22z m10 -28 c12 -8 12 -10 -5 -10 -11 0 -27 5 -35 10 -12 8 -12 10 5 10 11 0 27 -5 35 -10z m-950 -34 c0 -8 3 -23 7 -33 6 -16 5 -17 -13 -3 -12 9 -11 5 5 -13 17 -19 20 -27 10 -27 -8 -1 -3 -7 11 -15 24 -14 24 -14 3 -15 -12 0 -28 6 -35 14 -13 12 -14 26 -9 89 1 20 21 23 21 3z m849 -19 c0 -21 -1 -21 -9 -2 -12 28 -12 37 0 30 6 -3 10 -16 9 -28z m-581 -17 c-2 -7 -10 1 -17 16 -12 27 -11 28 4 12 10 -9 16 -21 13 -28z m612 11 c0 -11 -4 -23 -10 -26 -6 -4 -10 5 -10 19 0 14 5 26 10 26 6 0 10 -9 10 -19z m-597 -52 c-5 -5 -7 7 -4 29 5 34 6 35 9 8 2 -16 0 -32 -5 -37z m349 49 c-17 -17 -15 -33 3 -18 9 7 18 11 20 8 10 -10 -23 -28 -39 -22 -12 5 -13 10 -5 25 5 10 15 19 21 19 9 0 9 -3 0 -12z m-182 -32 c-5 -15 -10 -43 -10 -62 0 -21 -4 -33 -10 -29 -16 10 -12 64 7 96 20 34 27 32 13 -5z m38 -1 c0 -19 10 -51 22 -72 l21 -36 -23 15 c-32 21 -51 63 -43 98 9 41 23 38 23 -5z m69 -39 c17 -39 10 -43 -16 -10 -12 15 -21 40 -20 58 l0 31 11 -25 c6 -14 17 -38 25 -54z m-407 0 c0 -17 -4 -15 -20 12 -25 41 -25 50 0 27 11 -10 20 -28 20 -39z m40 29 c9 -24 4 -55 -9 -55 -3 0 -7 18 -8 40 -1 46 4 50 17 15z m694 -26 c-28 -31 -35 -22 -11 15 14 21 23 28 25 19 2 -8 -4 -23 -14 -34z m-664 -48 c-6 -12 -22 -24 -36 -27 -19 -5 -24 -12 -21 -25 3 -11 0 -19 -5 -19 -6 0 -5 -8 3 -17 11 -15 10 -14 -9 1 -22 19 -31 43 -12 31 6 -3 10 -1 10 6 0 6 14 27 30 46 17 18 30 44 30 57 0 12 3 26 8 30 12 13 14 -61 2 -83z m519 85 c-2 -1 -19 -8 -38 -14 -29 -10 -32 -10 -21 3 7 8 24 15 38 15 14 0 23 -2 21 -4z m-439 -51 c-7 -8 -10 -31 -8 -50 5 -41 3 -42 -17 -11 -13 19 -14 28 -4 50 7 14 19 26 27 26 12 0 12 -3 2 -15z m481 5 c10 -6 19 -18 19 -26 0 -13 -2 -13 -22 0 -12 9 -30 16 -40 16 -9 0 -20 5 -23 10 -8 13 41 13 66 0z m-381 -55 c0 -13 -4 -26 -9 -29 -5 -3 -9 10 -9 29 0 19 4 32 9 29 5 -3 9 -16 9 -29z m260 20 c7 -8 19 -15 26 -15 8 0 14 -4 14 -10 0 -12 -2 -12 -34 0 -23 8 -25 7 -28 -22 -2 -17 -9 -33 -15 -36 -10 -3 -9 7 2 38 8 23 12 46 9 51 -9 15 13 10 26 -6z m-51 -43 c0 -24 -1 -25 -9 -7 -12 28 -12 47 0 40 6 -3 10 -18 9 -33z m-187 -27 c-6 -14 -19 -25 -28 -25 -16 0 -16 1 -1 18 10 10 17 27 17 37 0 15 3 16 12 7 9 -9 9 -18 0 -37z m74 -7 c4 -5 -4 -8 -17 -6 -12 1 -24 8 -26 15 -5 14 34 6 43 -9z m154 -13 c-21 -25 -32 -17 -13 9 10 13 20 20 21 15 2 -5 -2 -16 -8 -24z m-304 -16 c16 0 16 -2 -4 -11 -18 -9 -28 -8 -49 8 -42 31 -42 51 -1 26 20 -12 44 -22 54 -23z m179 1 c-3 -5 -16 -10 -28 -9 -21 0 -21 1 -2 9 28 12 37 12 30 0z m35 -25 c-7 -8 -22 -15 -34 -15 -21 1 -21 1 -1 12 11 6 24 18 29 27 7 11 11 12 14 3 2 -7 -2 -19 -8 -27z"/>
 <path d="M671 903 l-46 -48 124 -3 c125 -3 156 4 145 33 -5 11 -10 10 -27 -5 -25 -24 -87 -29 -67 -5 15 18 5 35 -22 35 -16 0 -19 -5 -16 -25 5 -24 3 -25 -47 -25 -48 0 -53 2 -48 20 7 28 52 58 93 63 l35 4 -39 1 c-34 2 -44 -4 -85 -45z"/>
 <path d="M1243 940 c39 -7 87 -44 87 -67 0 -9 -16 -13 -56 -13 -50 0 -55 2 -44 15 10 12 10 19 2 27 -15 15 -45 2 -39 -17 9 -22 -30 -29 -59 -10 -24 16 -26 16 -22 -2 3 -16 16 -18 126 -21 67 -1 122 1 122 6 0 17 -42 62 -70 77 -16 8 -42 14 -57 14 -24 -1 -22 -2 10 -9z"/>
 <path d="M885 808 c-11 -7 -42 -20 -70 -30 -49 -18 -49 -18 -10 -12 42 6 90 27 100 44 8 13 5 12 -20 -2z"/>
 <path d="M1090 811 c0 -12 74 -41 103 -40 14 0 8 5 -18 13 -22 7 -50 18 -62 25 -13 6 -23 8 -23 2z"/>
 </g>
<g id="layer116" fill="#4f2f25" stroke="none">
 <path d="M130 1983 c1 -37 22 -110 46 -158 30 -61 72 -86 188 -110 106 -23 321 -98 347 -121 27 -24 34 -11 43 73 4 35 17 99 31 141 13 42 30 103 38 135 l15 57 -354 0 c-331 0 -354 -1 -354 -17z"/>
 <path d="M930 1977 c0 -13 7 -46 15 -73 15 -49 15 -49 -12 -71 l-27 -22 41 -40 c22 -23 46 -41 51 -41 16 0 82 60 82 73 0 6 -12 21 -26 32 -24 19 -25 24 -16 60 5 22 13 55 16 73 l6 32 -65 0 c-61 0 -65 -1 -65 -23z"/>
 <path d="M1177 1943 c8 -32 25 -93 38 -135 14 -42 27 -106 31 -141 9 -84 16 -97 43 -73 26 23 241 98 347 121 116 24 158 49 188 110 24 48 45 121 46 158 0 16 -23 17 -354 17 l-354 0 15 -57z"/>
 <path d="M540 1005 c-7 -8 -16 -12 -21 -9 -5 3 -9 1 -9 -5 0 -20 17 -20 34 0 25 29 29 19 15 -37 -13 -55 -34 -100 -58 -127 -12 -14 -15 -35 -12 -86 2 -51 -1 -72 -13 -83 -14 -14 -13 -17 5 -34 25 -22 38 -71 28 -106 -6 -22 -4 -28 11 -33 26 -8 51 -51 53 -90 2 -28 5 -31 19 -24 30 16 50 10 84 -26 29 -31 33 -33 38 -17 15 46 101 60 140 23 l24 -23 16 31 c23 44 69 44 92 0 l16 -31 23 22 c15 14 38 23 62 24 30 1 39 -4 50 -24 7 -14 13 -20 13 -13 0 6 15 16 34 23 39 13 77 2 99 -30 14 -20 15 -21 20 -1 8 32 66 63 107 57 l35 -5 0 42 c0 36 4 43 28 55 22 11 26 17 17 27 -19 22 -7 58 26 80 l30 20 -18 30 c-22 36 -23 74 -3 81 11 5 9 13 -12 46 -21 30 -24 44 -16 56 8 13 5 21 -15 36 -13 11 -31 34 -38 53 -8 18 -17 33 -20 33 -7 0 4 -35 23 -77 8 -18 13 -38 11 -45 -3 -7 1 -26 7 -43 7 -17 10 -58 8 -95 -3 -50 -10 -74 -33 -109 -17 -24 -30 -53 -30 -63 0 -10 -5 -18 -11 -18 -6 0 -30 -14 -54 -31 l-44 -31 -66 32 c-36 17 -72 29 -81 26 -8 -3 -25 -1 -37 5 -30 16 -175 21 -217 7 -19 -7 -43 -11 -53 -9 -10 1 -40 -11 -66 -28 -60 -39 -79 -39 -126 -1 -21 17 -44 30 -51 30 -8 0 -14 8 -14 18 0 10 -13 38 -29 63 -38 58 -51 161 -26 208 9 18 13 36 10 42 -4 5 1 27 11 47 20 41 25 143 8 149 -6 2 -17 -3 -24 -12z"/>
 <path d="M1427 1013 c-4 -3 -6 -18 -6 -32 1 -25 2 -25 8 3 6 28 7 29 24 12 9 -10 17 -30 17 -45 0 -57 19 -90 60 -102 35 -11 39 -16 48 -58 l10 -46 -1 51 c-1 29 -5 50 -9 48 -4 -2 -9 0 -13 6 -3 5 -14 10 -23 10 -32 0 -45 18 -53 75 -5 36 -14 62 -26 71 -21 15 -27 17 -36 7z"/>
 <path d="M517 953 c-4 -3 -7 -19 -7 -34 0 -31 -23 -59 -48 -59 -20 -1 -54 -24 -47 -32 3 -3 1 -16 -4 -30 -5 -14 -6 -30 -1 -37 4 -8 10 4 14 32 6 38 11 46 34 52 39 9 61 33 68 72 6 34 3 49 -9 36z"/>
 <path d="M1265 938 c32 -17 65 -50 65 -65 0 -9 -16 -13 -56 -13 -50 0 -55 2 -44 15 10 12 10 19 2 27 -15 15 -45 2 -39 -17 9 -22 -30 -29 -58 -11 -21 14 -25 14 -25 2 0 -7 7 -17 16 -20 24 -9 234 -7 234 3 0 16 -42 61 -70 76 -33 17 -55 20 -25 3z"/>
 <path d="M666 898 l-41 -43 110 -3 c124 -3 152 1 152 23 0 13 -3 14 -23 0 -13 -8 -35 -15 -50 -15 -22 0 -24 2 -14 15 15 18 5 35 -22 35 -16 0 -19 -5 -16 -25 5 -24 3 -25 -48 -25 -46 0 -53 2 -47 18 3 9 17 27 32 39 14 13 22 23 17 23 -4 0 -27 -19 -50 -42z"/>
 <path d="M1580 723 c0 -12 5 -25 10 -28 13 -8 13 15 0 35 -8 12 -10 11 -10 -7z"/>
 <path d="M386 653 c-12 -73 -7 -119 15 -147 26 -34 37 -27 13 8 -13 21 -16 42 -12 101 5 78 -5 102 -16 38z"/>
 <path d="M1597 611 c4 -52 2 -75 -10 -97 -9 -16 -21 -48 -27 -72 -6 -23 -22 -55 -36 -70 -13 -15 -38 -48 -54 -75 -19 -30 -43 -53 -67 -65 -37 -16 -62 -39 -63 -54 0 -17 19 -7 25 12 3 11 15 20 25 20 26 0 84 53 104 94 9 19 29 48 46 66 16 17 32 48 35 68 7 40 9 45 30 82 16 27 19 78 9 129 -12 57 -23 32 -17 -38z"/>
 <path d="M420 451 c0 -23 22 -63 50 -92 16 -18 30 -37 30 -44 0 -7 7 -18 15 -25 8 -7 15 -9 15 -6 0 14 -32 68 -51 87 -12 12 -27 36 -35 55 -14 33 -24 44 -24 25z"/>
 <path d="M570 231 c0 -6 14 -14 30 -17 17 -4 30 -12 30 -19 0 -19 85 -93 115 -101 39 -10 42 3 4 19 -43 18 -96 62 -104 86 -3 11 -13 21 -23 24 -9 3 -25 8 -34 12 -11 4 -18 3 -18 -4z"/>
 <path d="M1255 117 c-21 -11 -34 -22 -28 -24 16 -6 83 24 83 36 0 14 -7 13 -55 -12z"/>
 <path d="M1135 88 c-39 -13 -72 -17 -150 -14 -55 2 -111 7 -125 11 -19 6 -22 5 -14 -4 32 -35 238 -36 313 -3 57 26 40 33 -24 10z"/>
 </g>
<g id="layer117" fill="#293236" stroke="none">
 <path d="M130 1983 c1 -37 22 -110 46 -158 30 -61 72 -86 188 -110 106 -23 321 -98 347 -121 27 -24 34 -11 43 73 4 35 17 99 31 141 13 42 30 103 38 135 l15 57 -354 0 c-331 0 -354 -1 -354 -17z"/>
 <path d="M930 1977 c0 -13 7 -46 15 -73 15 -49 15 -49 -12 -71 l-27 -22 41 -40 c22 -23 46 -41 51 -41 16 0 82 60 82 73 0 6 -12 21 -26 32 -24 19 -25 24 -16 60 5 22 13 55 16 73 l6 32 -65 0 c-61 0 -65 -1 -65 -23z"/>
 <path d="M1177 1943 c8 -32 25 -93 38 -135 14 -42 27 -106 31 -141 9 -84 16 -97 43 -73 26 23 241 98 347 121 116 24 158 49 188 110 24 48 45 121 46 158 0 16 -23 17 -354 17 l-354 0 15 -57z"/>
 <path d="M518 954 c-5 -4 -8 -16 -8 -28 0 -14 3 -17 11 -9 6 6 9 19 7 28 -1 9 -6 13 -10 9z"/>
 <path d="M1470 943 c0 -12 5 -25 10 -28 13 -8 13 15 0 35 -8 12 -10 11 -10 -7z"/>
 <path d="M567 940 c-3 -8 -12 -35 -21 -60 -24 -69 -18 -73 10 -7 14 33 23 64 21 70 -3 8 -6 7 -10 -3z"/>
 <path d="M1265 938 c32 -17 65 -50 65 -65 0 -9 -16 -13 -56 -13 -50 0 -55 2 -44 15 10 12 10 19 2 27 -15 15 -45 2 -39 -17 9 -22 -30 -29 -59 -11 -17 12 -23 13 -22 4 2 -7 8 -16 13 -20 14 -11 235 -10 235 1 0 16 -42 61 -70 76 -33 17 -55 20 -25 3z"/>
 <path d="M666 898 l-41 -43 110 -3 c124 -3 152 1 152 23 0 13 -3 14 -23 0 -13 -8 -35 -15 -50 -15 -22 0 -24 2 -14 15 15 18 5 35 -22 35 -16 0 -19 -5 -16 -25 5 -24 3 -25 -48 -25 -46 0 -53 2 -47 18 3 9 17 27 32 39 14 13 22 23 17 23 -4 0 -27 -19 -50 -42z"/>
 <path d="M1426 921 c9 -33 44 -109 44 -95 0 6 -11 36 -25 65 -14 30 -22 43 -19 30z"/>
 <path d="M503 887 c-4 -8 -24 -22 -43 -31 -34 -15 -34 -15 -5 -9 31 6 73 38 63 48 -3 4 -10 0 -15 -8z"/>
 <path d="M1480 894 c0 -17 32 -41 65 -47 29 -6 29 -6 -5 9 -19 9 -40 23 -47 32 -7 10 -13 12 -13 6z"/>
 <path d="M412 802 c-5 -16 -7 -35 -2 -41 4 -8 10 2 13 25 8 47 3 54 -11 16z"/>
 <path d="M1576 795 c8 -50 14 -58 14 -19 0 16 -5 36 -11 44 -7 11 -8 4 -3 -25z"/>
 <path d="M521 782 c-7 -17 -11 -45 -8 -63 l4 -34 1 38 c1 21 7 47 13 59 6 11 9 22 6 24 -2 3 -10 -8 -16 -24z"/>
 <path d="M1466 783 c11 -20 13 -48 10 -98 l-5 -70 11 68 c8 51 7 74 -2 97 -7 17 -16 30 -21 30 -4 0 -1 -12 7 -27z"/>
 <path d="M386 653 c-9 -57 -7 -121 4 -128 6 -4 10 20 10 64 0 38 3 76 6 85 3 9 2 16 -4 16 -5 0 -12 -17 -16 -37z"/>
 <path d="M1594 664 c3 -9 6 -40 6 -70 0 -30 5 -54 10 -54 11 0 13 61 4 109 -4 17 -11 31 -16 31 -6 0 -7 -7 -4 -16z"/>
 <path d="M525 615 c6 -30 45 -80 45 -58 0 7 -5 15 -11 19 -6 3 -18 20 -25 38 l-15 31 6 -30z"/>
 <path d="M1443 577 c-12 -17 -25 -44 -28 -59 -4 -16 -12 -28 -17 -28 -5 0 -29 -14 -53 -31 l-43 -31 -48 23 c-75 35 -84 39 -84 34 0 -7 117 -65 130 -65 26 0 119 73 125 98 4 15 16 37 27 49 11 12 19 26 17 32 -2 6 -14 -4 -26 -22z"/>
 <path d="M577 522 c2 -8 3 -17 3 -21 0 -4 29 -26 65 -50 71 -47 83 -47 145 -3 66 49 47 49 -22 1 -37 -27 -70 -24 -113 11 -21 17 -43 30 -49 30 -7 0 -17 10 -22 23 -6 12 -9 16 -7 9z"/>
 <path d="M1581 502 c-17 -31 -13 -40 5 -14 9 13 14 26 11 29 -3 2 -10 -4 -16 -15z"/>
 <path d="M915 502 c-23 -5 -64 -32 -49 -32 5 0 14 4 20 10 14 14 213 15 227 1 6 -6 16 -11 21 -11 6 0 0 7 -12 16 -23 16 -162 27 -207 16z"/>
 <path d="M1553 420 c-11 -25 -30 -54 -42 -64 -11 -11 -21 -25 -21 -33 0 -8 -23 -37 -51 -64 -55 -53 -51 -68 5 -19 18 17 42 47 51 68 10 20 26 42 35 49 21 15 53 79 47 96 -2 7 -13 -8 -24 -33z"/>
 <path d="M426 430 c8 -30 42 -80 54 -80 8 0 -3 20 -48 86 -11 17 -12 17 -6 -6z"/>
 <path d="M627 203 c15 -45 109 -120 136 -110 7 3 -4 12 -24 20 -35 16 -99 78 -99 97 0 6 -4 10 -10 10 -5 0 -7 -8 -3 -17z"/>
 <path d="M1356 204 c-10 -25 1 -29 14 -5 6 12 7 21 1 21 -5 0 -12 -7 -15 -16z"/>
 <path d="M1262 118 c-18 -11 -31 -22 -29 -25 8 -7 77 25 77 36 0 15 -10 13 -48 -11z"/>
 <path d="M1130 84 c-41 -15 -201 -18 -249 -4 -42 12 -51 6 -19 -11 15 -9 62 -13 138 -12 95 1 123 4 160 22 49 22 27 27 -30 5z"/>
 </g>
<g id="layer118" fill="#3b251c" stroke="none">
 <path d="M130 1983 c1 -37 22 -110 46 -158 30 -61 72 -86 188 -110 106 -23 321 -98 347 -121 27 -24 34 -11 42 69 4 34 22 116 42 181 19 66 35 128 35 138 0 17 -16 18 -331 18 l-331 0 7 -37 c4 -21 16 -64 26 -97 11 -32 18 -61 15 -64 -7 -7 -46 85 -52 123 -11 62 -15 75 -24 75 -6 0 -10 -8 -10 -17z m191 -219 c63 -24 64 -24 19 -19 -25 3 -62 13 -82 22 -31 13 -36 19 -26 30 8 10 13 11 18 3 4 -6 36 -22 71 -36z m289 -49 l25 -30 -27 24 c-16 14 -28 29 -28 34 0 6 1 8 3 6 1 -2 13 -17 27 -34z m-160 10 c19 -7 28 -13 20 -13 -8 0 -31 6 -50 13 -19 7 -28 13 -20 13 8 0 31 -6 50 -13z m170 -60 c14 -8 21 -14 15 -14 -5 0 -21 6 -35 14 -14 8 -20 14 -15 14 6 0 21 -6 35 -14z"/>
 <path d="M935 1954 c3 -26 12 -58 18 -72 10 -22 8 -27 -17 -47 l-28 -23 41 -41 c22 -22 45 -41 50 -41 13 0 81 65 81 78 0 5 -12 17 -26 27 -21 13 -25 22 -19 43 4 15 10 48 14 75 l8 47 -65 0 -64 0 7 -46z"/>
 <path d="M1174 1962 c3 -21 19 -82 36 -136 16 -53 32 -126 36 -160 9 -83 16 -96 43 -72 26 23 241 98 347 121 116 24 158 49 188 110 27 52 53 161 42 172 -11 11 -19 -5 -27 -54 -8 -53 -46 -149 -55 -140 -3 3 3 32 14 64 11 32 23 75 27 96 l7 37 -332 0 -333 0 7 -38z m592 -163 c13 -14 10 -18 -23 -32 -21 -9 -58 -19 -83 -22 -45 -5 -45 -5 18 19 35 13 66 26 69 29 2 3 -7 25 -21 50 -14 24 -26 48 -26 53 0 5 12 -11 26 -36 14 -25 32 -52 40 -61z m-371 -87 l-28 -27 24 31 c13 17 26 30 28 27 3 -2 -8 -16 -24 -31z m185 13 c-19 -7 -42 -13 -50 -13 -8 0 1 6 20 13 19 7 42 13 50 13 8 0 -1 -6 -20 -13z m-180 -60 c-14 -8 -29 -14 -35 -14 -5 0 1 6 15 14 14 8 30 14 35 14 6 0 -1 -6 -15 -14z"/>
 <path d="M518 954 c-5 -4 -8 -16 -8 -28 0 -14 3 -17 11 -9 6 6 9 19 7 28 -1 9 -6 13 -10 9z"/>
 <path d="M1470 943 c0 -12 5 -25 10 -28 13 -8 13 15 0 35 -8 12 -10 11 -10 -7z"/>
 <path d="M567 940 c-3 -8 -12 -35 -21 -60 -24 -69 -18 -73 10 -7 14 33 23 64 21 70 -3 8 -6 7 -10 -3z"/>
 <path d="M666 898 l-41 -43 110 -3 c123 -3 152 1 152 22 0 13 -3 13 -21 0 -11 -8 -32 -14 -47 -14 -23 0 -26 3 -21 25 3 18 0 25 -11 25 -22 0 -31 -18 -17 -35 11 -13 4 -15 -49 -15 -70 0 -75 9 -30 51 17 16 28 29 24 29 -4 0 -26 -19 -49 -42z"/>
 <path d="M1303 917 c44 -42 36 -57 -29 -57 -48 0 -55 2 -44 15 13 16 6 35 -15 35 -18 0 -26 -25 -12 -39 18 -18 -45 -14 -71 5 -17 12 -22 12 -20 2 2 -7 8 -16 13 -20 14 -11 235 -10 235 1 0 14 -40 60 -63 72 -18 9 -16 6 6 -14z"/>
 <path d="M1426 921 c9 -33 44 -109 44 -95 0 6 -11 36 -25 65 -14 30 -22 43 -19 30z"/>
 <path d="M503 887 c-4 -8 -24 -22 -43 -31 -34 -15 -34 -15 -5 -9 31 6 73 38 63 48 -3 4 -10 0 -15 -8z"/>
 <path d="M1480 894 c0 -17 32 -41 65 -47 29 -6 29 -6 -5 9 -19 9 -40 23 -47 32 -7 10 -13 12 -13 6z"/>
 <path d="M412 802 c-5 -16 -7 -35 -2 -41 4 -8 10 2 13 25 8 47 3 54 -11 16z"/>
 <path d="M1576 795 c8 -50 14 -58 14 -19 0 16 -5 36 -11 44 -7 11 -8 4 -3 -25z"/>
 <path d="M521 782 c-7 -17 -11 -45 -8 -63 l4 -34 1 38 c1 21 7 47 13 59 6 11 9 22 6 24 -2 3 -10 -8 -16 -24z"/>
 <path d="M1466 783 c11 -20 13 -48 10 -98 l-5 -70 11 68 c8 51 7 74 -2 97 -7 17 -16 30 -21 30 -4 0 -1 -12 7 -27z"/>
 <path d="M386 653 c-9 -57 -7 -121 4 -128 6 -4 10 20 10 64 0 38 3 76 6 85 3 9 2 16 -4 16 -5 0 -12 -17 -16 -37z"/>
 <path d="M1594 664 c3 -9 6 -40 6 -70 0 -30 5 -54 10 -54 11 0 13 61 4 109 -4 17 -11 31 -16 31 -6 0 -7 -7 -4 -16z"/>
 <path d="M525 615 c6 -30 45 -80 45 -58 0 7 -5 15 -11 19 -6 3 -18 20 -25 38 l-15 31 6 -30z"/>
 <path d="M1443 577 c-12 -17 -25 -44 -28 -59 -4 -16 -12 -28 -17 -28 -5 0 -29 -14 -53 -31 l-43 -31 -48 23 c-75 35 -84 39 -84 34 0 -7 117 -65 130 -65 26 0 119 73 125 98 4 15 16 37 27 49 11 12 19 26 17 32 -2 6 -14 -4 -26 -22z"/>
 <path d="M577 522 c2 -8 3 -17 3 -21 0 -4 29 -26 65 -50 71 -47 83 -47 145 -3 66 49 47 49 -22 1 -37 -27 -70 -24 -113 11 -21 17 -43 30 -49 30 -7 0 -17 10 -22 23 -6 12 -9 16 -7 9z"/>
 <path d="M1581 502 c-17 -31 -13 -40 5 -14 9 13 14 26 11 29 -3 2 -10 -4 -16 -15z"/>
 <path d="M915 502 c-23 -5 -64 -32 -49 -32 5 0 14 4 20 10 14 14 213 15 227 1 6 -6 16 -11 21 -11 6 0 0 7 -12 16 -23 16 -162 27 -207 16z"/>
 <path d="M1553 420 c-11 -25 -30 -54 -42 -64 -11 -11 -21 -25 -21 -33 0 -8 -23 -37 -51 -64 -55 -53 -51 -68 5 -19 18 17 42 47 51 68 10 20 26 42 35 49 21 15 53 79 47 96 -2 7 -13 -8 -24 -33z"/>
 <path d="M426 430 c8 -30 42 -80 54 -80 8 0 -3 20 -48 86 -11 17 -12 17 -6 -6z"/>
 <path d="M627 203 c15 -45 109 -120 136 -110 7 3 -4 12 -24 20 -35 16 -99 78 -99 97 0 6 -4 10 -10 10 -5 0 -7 -8 -3 -17z"/>
 <path d="M1356 204 c-10 -25 1 -29 14 -5 6 12 7 21 1 21 -5 0 -12 -7 -15 -16z"/>
 <path d="M1262 118 c-18 -11 -31 -22 -29 -25 8 -7 77 25 77 36 0 15 -10 13 -48 -11z"/>
 <path d="M1130 84 c-41 -15 -201 -18 -249 -4 -42 12 -51 6 -19 -11 15 -9 62 -13 138 -12 95 1 123 4 160 22 49 22 27 27 -30 5z"/>
 </g>
<g id="layer119" fill="#1c272d" stroke="none">
 <path d="M130 1983 c1 -37 22 -110 46 -158 30 -61 72 -86 188 -110 106 -23 321 -98 347 -121 27 -24 34 -11 42 69 4 34 22 116 42 181 19 66 35 128 35 138 0 17 -16 18 -331 18 l-331 0 7 -37 c4 -21 16 -64 26 -97 11 -32 18 -61 15 -64 -7 -7 -46 85 -52 123 -11 62 -15 75 -24 75 -6 0 -10 -8 -10 -17z m191 -219 c63 -24 64 -24 19 -19 -25 3 -62 13 -82 22 -31 13 -36 19 -26 30 8 10 13 11 18 3 4 -6 36 -22 71 -36z m289 -49 l25 -30 -27 24 c-16 14 -28 29 -28 34 0 6 1 8 3 6 1 -2 13 -17 27 -34z m-160 10 c19 -7 28 -13 20 -13 -8 0 -31 6 -50 13 -19 7 -28 13 -20 13 8 0 31 -6 50 -13z m170 -60 c14 -8 21 -14 15 -14 -5 0 -21 6 -35 14 -14 8 -20 14 -15 14 6 0 21 -6 35 -14z"/>
 <path d="M935 1954 c3 -26 12 -58 18 -72 10 -22 8 -27 -17 -47 l-28 -23 41 -41 c22 -22 45 -41 50 -41 13 0 81 65 81 78 0 5 -12 17 -26 27 -21 13 -25 22 -19 43 4 15 10 48 14 75 l8 47 -65 0 -64 0 7 -46z"/>
 <path d="M1174 1962 c3 -21 19 -82 36 -136 16 -53 32 -126 36 -160 9 -83 16 -96 43 -72 26 23 241 98 347 121 116 24 158 49 188 110 27 52 53 161 42 172 -11 11 -19 -5 -27 -54 -8 -53 -46 -149 -55 -140 -3 3 3 32 14 64 11 32 23 75 27 96 l7 37 -332 0 -333 0 7 -38z m592 -163 c13 -14 10 -18 -23 -32 -21 -9 -58 -19 -83 -22 -45 -5 -45 -5 18 19 35 13 66 26 69 29 2 3 -7 25 -21 50 -14 24 -26 48 -26 53 0 5 12 -11 26 -36 14 -25 32 -52 40 -61z m-371 -87 l-28 -27 24 31 c13 17 26 30 28 27 3 -2 -8 -16 -24 -31z m185 13 c-19 -7 -42 -13 -50 -13 -8 0 1 6 20 13 19 7 42 13 50 13 8 0 -1 -6 -20 -13z m-180 -60 c-14 -8 -29 -14 -35 -14 -5 0 1 6 15 14 14 8 30 14 35 14 6 0 -1 -6 -15 -14z"/>
 <path d="M674 906 c-19 -19 -34 -39 -34 -45 0 -7 36 -11 108 -10 106 0 157 9 135 22 -7 4 -14 3 -18 -3 -3 -5 -21 -10 -39 -10 -30 0 -33 2 -28 25 3 18 0 25 -11 25 -22 0 -31 -18 -17 -35 11 -13 4 -15 -49 -15 -70 0 -75 9 -30 51 17 16 28 29 24 29 -4 0 -22 -15 -41 -34z"/>
 <path d="M1319 903 c19 -38 13 -43 -45 -43 -48 0 -55 2 -44 15 13 16 6 35 -15 35 -18 0 -26 -25 -12 -39 19 -19 -54 -13 -75 6 -15 14 -19 14 -16 3 2 -8 8 -18 13 -22 13 -10 235 -10 235 0 0 4 -12 21 -26 37 -17 21 -22 23 -15 8z"/>
 <path d="M460 365 c7 -8 17 -15 22 -15 6 0 5 7 -2 15 -7 8 -17 15 -22 15 -6 0 -5 -7 2 -15z"/>
 <path d="M1520 365 c-7 -8 -8 -15 -2 -15 5 0 15 7 22 15 7 8 8 15 2 15 -5 0 -15 -7 -22 -15z"/>
 <path d="M1448 263 c-30 -36 -30 -47 0 -19 18 17 32 31 32 33 0 9 -19 1 -32 -14z"/>
 <path d="M665 150 c21 -22 45 -40 52 -40 7 0 -7 18 -31 40 -24 22 -47 40 -52 40 -4 0 10 -18 31 -40z"/>
 <path d="M914 61 c7 -10 162 -8 173 2 3 4 -35 7 -86 7 -51 0 -90 -4 -87 -9z"/>
 </g>
<g id="layer120" fill="#0b0d0d" stroke="none">
 <path d="M130 1983 c1 -37 22 -110 46 -158 30 -61 72 -86 188 -110 105 -23 321 -98 346 -120 11 -10 23 -16 26 -12 3 3 10 38 15 77 5 40 25 125 44 189 35 116 43 164 27 146 -19 -22 -82 -273 -82 -327 0 -54 -12 -83 -23 -55 -3 8 -29 30 -59 51 l-53 37 40 -36 40 -36 -55 22 c-88 34 -199 68 -288 89 -96 23 -125 36 -116 52 4 6 3 8 -3 5 -14 -9 -61 99 -69 157 -6 44 -24 66 -24 29z"/>
 <path d="M583 1985 c-21 -40 -45 -126 -39 -140 3 -8 11 -15 18 -15 10 0 10 2 1 8 -9 6 -6 25 13 76 24 66 28 112 7 71z"/>
 <path d="M930 1983 c0 -9 7 -43 16 -75 17 -58 17 -58 -7 -77 l-24 -20 42 -42 41 -42 31 22 c50 36 57 57 25 84 -26 23 -27 26 -16 70 7 25 12 57 12 71 0 25 -2 26 -60 26 -50 0 -60 -3 -60 -17z"/>
 <path d="M1170 1983 c0 -11 15 -72 34 -134 19 -63 39 -147 45 -187 5 -41 12 -76 15 -80 3 -3 15 3 26 13 25 22 241 97 346 120 116 24 158 49 188 110 36 71 58 175 37 175 -4 0 -11 -21 -15 -46 -8 -58 -55 -166 -69 -157 -6 3 -7 1 -3 -5 8 -14 -41 -36 -116 -51 -59 -13 -204 -58 -288 -90 l-55 -22 40 36 40 36 -53 -37 c-30 -21 -56 -43 -59 -51 -11 -28 -23 1 -23 55 0 35 -14 107 -37 187 -35 128 -53 170 -53 128z"/>
 <path d="M1400 1992 c0 -6 11 -42 25 -79 18 -50 21 -69 12 -75 -9 -6 -9 -8 1 -8 24 0 24 31 2 93 -22 61 -40 93 -40 69z"/>
 <path d="M1710 1895 c0 -12 48 -85 56 -85 3 0 -3 12 -14 28 -10 15 -24 36 -30 47 -6 11 -12 15 -12 10z"/>
 <path d="M598 1817 l22 -13 -30 -22 c-36 -27 -38 -42 -7 -68 l22 -19 -19 23 c-19 22 -19 22 13 56 32 33 33 34 13 45 -12 6 -24 11 -29 11 -4 -1 2 -6 15 -13z"/>
 <path d="M1387 1819 c-18 -10 -17 -13 14 -45 32 -34 32 -34 13 -56 l-19 -23 23 19 c30 26 28 41 -8 68 l-30 22 22 13 c13 7 19 12 13 12 -5 0 -18 -4 -28 -10z"/>
 <path d="M666 899 c-14 -17 -26 -35 -26 -40 0 -11 217 -12 223 -1 3 4 -42 6 -99 4 -60 -2 -104 1 -104 6 0 5 9 21 21 36 29 36 16 33 -15 -5z"/>
 <path d="M774 896 c-8 -22 3 -33 18 -18 9 9 9 15 0 24 -9 9 -13 7 -18 -6z"/>
 <path d="M1206 903 c-12 -12 -6 -33 9 -33 8 0 15 6 15 14 0 17 -14 28 -24 19z"/>
 <path d="M1325 888 l7 -27 -94 -4 -93 -3 108 -2 c59 -1 107 1 107 4 0 3 -9 18 -21 32 l-21 27 7 -27z"/>
 <path d="M460 365 c7 -8 17 -15 22 -15 6 0 5 7 -2 15 -7 8 -17 15 -22 15 -6 0 -5 -7 2 -15z"/>
 <path d="M1520 365 c-7 -8 -8 -15 -2 -15 5 0 15 7 22 15 7 8 8 15 2 15 -5 0 -15 -7 -22 -15z"/>
 <path d="M1448 263 c-30 -36 -30 -47 0 -19 18 17 32 31 32 33 0 9 -19 1 -32 -14z"/>
 <path d="M665 150 c21 -22 45 -40 52 -40 7 0 -7 18 -31 40 -24 22 -47 40 -52 40 -4 0 10 -18 31 -40z"/>
 <path d="M914 61 c7 -10 162 -8 173 2 3 4 -35 7 -86 7 -51 0 -90 -4 -87 -9z"/>
 </g>

</svg>