<!DOCTYPE svg PUBLIC "-//W3C//DTD SVG 20010904//EN" "http://www.w3.org/TR/2001/REC-SVG-20010904/DTD/svg10.dtd">
<svg version="1.0" xmlns="http://www.w3.org/2000/svg" width="200px" height="200px" viewBox="0 0 2000 2000" preserveAspectRatio="xMidYMid meet">
<g id="layer101" fill="#fcfcfd" stroke="none">
 <path d="M130 1983 c1 -37 22 -110 46 -158 30 -61 72 -86 188 -110 105 -23 317 -96 347 -120 35 -29 68 -105 58 -132 -5 -13 -14 -23 -21 -23 -7 0 -21 -14 -31 -31 -20 -35 -10 -59 24 -59 23 0 23 0 5 -120 -21 -134 -36 -167 -91 -190 -25 -11 -57 -31 -72 -45 -16 -14 -30 -25 -34 -25 -3 0 -15 -17 -27 -39 -19 -33 -22 -54 -22 -140 0 -84 4 -109 21 -144 21 -41 91 -136 133 -181 27 -30 138 -86 170 -86 13 0 26 -6 29 -12 6 -21 254 -18 298 4 19 9 59 28 89 41 100 43 158 102 198 199 24 57 32 92 32 137 0 33 -4 63 -10 66 -5 3 -10 13 -10 22 0 21 -59 114 -84 132 -11 8 -42 35 -69 61 l-49 46 -10 124 c-5 69 -14 130 -20 137 -7 9 -3 16 16 24 14 7 26 18 26 26 0 7 5 13 12 13 6 0 0 12 -14 28 -14 15 -28 35 -31 45 -9 23 28 95 61 121 32 25 243 98 348 121 116 24 158 49 188 110 24 48 45 121 46 158 0 16 -48 17 -870 17 -822 0 -870 -1 -870 -17z"/>
 </g>
<g id="layer102" fill="#e1dce2" stroke="none">
 <path d="M130 1983 c1 -37 22 -110 46 -158 30 -61 72 -86 188 -110 105 -23 317 -96 347 -120 35 -29 68 -105 58 -132 -5 -13 -14 -23 -21 -23 -7 0 -21 -14 -31 -31 -20 -35 -10 -59 24 -59 23 0 23 0 5 -120 -21 -134 -36 -167 -91 -190 -25 -11 -57 -31 -72 -45 -16 -14 -30 -25 -34 -25 -3 0 -15 -17 -27 -39 -19 -33 -22 -54 -22 -140 0 -84 4 -109 21 -144 21 -41 91 -136 133 -181 27 -30 138 -86 170 -86 13 0 26 -6 29 -12 6 -21 254 -18 298 4 19 9 59 28 89 41 100 43 158 102 198 199 24 57 32 92 32 137 0 33 -4 62 -9 65 -5 3 -12 17 -15 32 -9 33 -55 105 -80 123 -11 8 -42 35 -69 61 l-49 46 -10 124 c-6 69 -15 131 -20 137 -7 9 -3 16 16 24 14 7 26 18 26 26 0 7 5 13 12 13 6 0 0 12 -14 28 -14 15 -28 35 -31 45 -9 23 28 95 61 121 32 25 243 98 348 121 116 24 158 49 188 110 24 48 45 121 46 158 0 16 -24 17 -356 17 l-355 0 1 -22 c4 -42 0 -53 -35 -110 l-36 -56 -25 23 c-24 23 -25 26 -15 81 17 88 20 84 -59 84 -38 0 -70 -3 -70 -7 0 -5 7 -37 16 -73 15 -64 15 -65 -7 -83 -22 -17 -23 -17 -41 10 -40 59 -56 99 -51 126 l5 27 -356 0 c-332 0 -356 -1 -356 -17z m1115 -358 c4 -29 3 -61 -2 -70 -8 -13 -12 -9 -22 24 -13 45 -45 74 -131 116 -30 15 -56 28 -57 29 -2 1 19 25 45 53 27 28 57 70 67 94 l20 43 37 -118 c20 -65 40 -142 43 -171z m-305 131 l30 -25 -33 -19 c-17 -10 -54 -31 -80 -46 -53 -30 -77 -70 -77 -128 l-1 -33 -15 35 c-9 21 -13 53 -11 80 4 39 61 251 74 273 3 5 23 -19 45 -52 21 -33 52 -71 68 -85z m55 -386 c3 -5 16 -11 28 -11 18 -1 19 -2 4 -6 -26 -7 -69 6 -62 17 8 13 22 13 30 0z m-140 -112 c-1 -105 20 -107 30 -3 l7 75 34 0 34 0 0 -65 c0 -36 4 -65 9 -65 9 0 21 57 21 104 0 24 3 28 23 22 12 -3 30 -6 40 -6 15 0 17 -8 15 -56 -2 -39 1 -58 10 -61 9 -3 12 12 12 56 0 59 1 61 26 61 l27 0 -7 -75 c-6 -64 -5 -75 9 -75 12 0 15 14 15 76 0 66 2 75 18 72 14 -3 18 -19 23 -103 8 -131 22 -161 103 -227 131 -105 164 -239 95 -388 -27 -59 -43 -80 -91 -117 -138 -105 -311 -134 -480 -80 -100 33 -156 71 -215 149 -98 126 -124 252 -73 353 24 47 45 65 152 130 53 32 73 88 94 258 5 47 6 48 37 45 l32 -3 0 -77z"/>
 <path d="M925 989 c-13 -21 14 -89 36 -89 5 0 15 12 22 26 l14 27 7 -26 c6 -26 37 -44 56 -32 13 8 13 46 0 79 -11 30 -44 35 -58 9 -9 -16 -11 -16 -27 0 -19 19 -41 22 -50 6z"/>
 <path d="M762 843 c-19 -7 -42 -58 -42 -92 0 -41 28 -109 50 -121 19 -10 72 -4 103 12 38 19 60 115 37 159 -21 37 -102 61 -148 42z"/>
 <path d="M1092 825 c-55 -46 -49 -118 15 -178 27 -25 32 -26 62 -16 60 21 99 116 71 170 -13 24 -61 49 -94 49 -13 0 -38 -11 -54 -25z"/>
 <path d="M580 756 c0 -21 35 -126 42 -126 10 0 10 -1 -3 59 -6 27 -17 55 -25 62 -8 6 -14 9 -14 5z"/>
 <path d="M1358 643 c-21 -24 -31 -59 -23 -83 10 -30 28 -25 21 6 -5 17 -1 35 9 51 20 30 15 51 -7 26z"/>
 </g>
<g id="layer103" fill="#d1ced1" stroke="none">
 <path d="M130 1983 c1 -37 22 -110 46 -158 30 -61 72 -86 188 -110 105 -23 321 -98 346 -120 26 -24 38 -12 45 45 9 80 59 267 74 280 3 3 7 22 7 43 l1 37 -353 0 c-331 0 -354 -1 -354 -17z"/>
 <path d="M920 1993 c0 -5 7 -37 15 -72 15 -63 15 -65 -5 -85 l-21 -21 -26 30 c-21 25 -23 26 -13 6 7 -14 33 -46 58 -73 25 -27 43 -50 41 -52 -2 -2 -38 -24 -79 -48 -84 -49 -105 -79 -113 -165 -6 -58 -12 -73 -30 -73 -7 0 -20 -14 -30 -31 -20 -35 -10 -59 24 -59 23 0 23 0 5 -120 -21 -134 -36 -167 -91 -190 -25 -11 -57 -31 -72 -45 -16 -14 -30 -25 -34 -25 -3 0 -15 -17 -27 -39 -19 -33 -22 -54 -22 -140 0 -84 4 -109 21 -144 21 -41 91 -136 133 -181 27 -30 138 -86 170 -86 13 0 26 -6 29 -12 6 -21 254 -18 298 4 19 9 59 28 89 41 100 43 158 102 198 199 24 57 32 92 32 137 0 33 -4 62 -9 65 -5 3 -12 17 -15 32 -9 33 -55 105 -80 123 -11 8 -42 35 -69 61 l-49 46 -10 124 c-6 69 -15 131 -20 137 -7 9 -3 16 16 24 14 7 26 18 26 26 0 7 5 13 12 13 6 0 -1 13 -16 29 -23 24 -29 41 -33 93 -7 91 -21 110 -109 154 -41 21 -78 42 -81 47 -3 5 10 25 30 44 l35 35 -30 27 c-30 26 -30 27 -19 86 17 89 20 85 -59 85 -38 0 -70 -3 -70 -7z m123 -630 c16 -9 -4 -20 -30 -16 -45 7 -55 12 -48 24 6 9 57 4 78 -8z m-183 -103 c0 -47 4 -80 10 -80 6 0 10 24 10 53 0 83 7 97 46 97 l34 0 0 -66 c0 -41 4 -63 10 -59 6 3 10 30 10 60 0 30 5 57 11 60 6 4 26 4 45 1 l34 -7 0 -59 c0 -33 4 -60 10 -60 6 0 10 27 10 60 0 58 1 60 26 60 26 0 26 0 23 -72 -3 -51 0 -72 9 -75 9 -4 12 15 12 71 0 69 2 76 20 76 14 0 20 -7 20 -22 3 -116 10 -189 23 -218 9 -20 44 -59 82 -90 129 -107 164 -245 98 -390 -47 -104 -147 -175 -303 -216 -94 -25 -163 -20 -277 18 -93 31 -102 37 -170 105 -99 100 -138 180 -138 283 1 116 43 179 159 235 54 26 92 99 101 193 11 120 12 122 51 122 l34 0 0 -80z"/>
 <path d="M931 986 c-15 -18 12 -90 31 -84 17 6 22 66 7 84 -15 18 -23 18 -38 0z"/>
 <path d="M1007 993 c-13 -13 -7 -72 9 -88 38 -38 68 7 44 66 -12 27 -38 38 -53 22z"/>
 <path d="M753 826 c-23 -20 -28 -32 -28 -73 0 -56 20 -110 46 -124 26 -13 93 5 119 33 26 28 37 102 19 135 -15 28 -64 53 -103 53 -14 0 -38 -11 -53 -24z"/>
 <path d="M1114 840 c-70 -28 -71 -133 -2 -197 35 -32 83 -13 117 48 23 43 24 49 12 88 -10 34 -20 46 -46 57 -39 16 -51 16 -81 4z"/>
 <path d="M584 746 c3 -10 11 -38 17 -62 6 -24 15 -44 20 -44 10 0 -19 101 -33 115 -8 7 -9 4 -4 -9z"/>
 <path d="M1352 638 c-15 -20 -23 -54 -16 -72 10 -25 22 -19 16 9 -2 14 3 36 12 50 17 25 7 36 -12 13z"/>
 <path d="M1166 1968 c3 -18 19 -76 35 -129 16 -53 33 -129 39 -170 12 -86 21 -100 50 -74 25 22 241 97 346 120 116 24 158 49 188 110 24 48 45 121 46 158 0 16 -23 17 -355 17 l-354 0 5 -32z"/>
 </g>
<g id="layer104" fill="#c1bbc3" stroke="none">
 <path d="M130 1983 c1 -37 22 -110 46 -158 30 -61 72 -86 188 -110 105 -23 321 -98 346 -120 27 -25 34 -14 48 73 7 40 25 117 41 170 15 53 31 112 34 130 l6 32 -354 0 c-332 0 -355 -1 -355 -17z"/>
 <path d="M925 1973 c4 -16 11 -48 17 -72 11 -42 10 -45 -15 -66 l-26 -23 37 -42 36 -43 -25 -19 c-13 -11 -49 -33 -80 -48 -47 -24 -58 -35 -72 -72 -10 -24 -17 -56 -17 -70 0 -37 -17 -78 -32 -78 -7 0 -21 -14 -31 -31 -20 -35 -10 -59 24 -59 23 0 23 0 5 -120 -21 -134 -36 -167 -91 -190 -25 -11 -57 -31 -72 -45 -16 -14 -30 -25 -34 -25 -3 0 -15 -17 -27 -39 -19 -33 -22 -54 -22 -140 0 -84 4 -109 21 -144 21 -41 91 -136 133 -181 27 -30 138 -86 170 -86 13 0 26 -6 29 -12 6 -21 254 -18 298 4 19 9 59 28 89 41 100 43 158 102 198 199 24 57 32 92 32 137 0 33 -4 62 -9 65 -5 3 -12 17 -15 32 -9 33 -55 105 -80 123 -11 8 -42 35 -69 61 l-49 46 -10 124 c-6 69 -15 131 -20 137 -7 9 -3 16 16 24 14 7 26 18 26 26 0 7 5 13 12 13 6 0 -1 13 -16 29 -22 23 -29 43 -36 95 -4 37 -15 77 -23 90 -8 12 -44 36 -79 53 -105 51 -106 52 -63 97 l36 39 -27 28 c-26 27 -27 30 -15 85 17 88 20 84 -59 84 l-70 0 5 -27z m118 -610 c4 -2 7 -9 7 -14 0 -7 -16 -9 -42 -5 -47 7 -53 10 -43 26 6 10 56 6 78 -7z m-182 -107 c-2 -55 0 -76 8 -72 6 4 11 31 11 61 0 74 6 85 46 85 l34 0 0 -60 c0 -33 4 -60 10 -60 6 0 10 27 10 61 l0 60 43 -3 42 -3 3 -62 c4 -80 22 -82 22 -3 0 57 1 60 25 60 24 0 25 -2 25 -76 0 -47 4 -73 10 -69 6 3 10 37 10 76 0 62 2 69 20 69 11 0 20 -6 21 -12 1 -7 2 -51 4 -98 3 -117 21 -154 104 -223 93 -78 126 -143 126 -247 0 -61 -6 -87 -30 -139 -79 -173 -355 -281 -545 -213 -30 11 -67 23 -81 26 -39 9 -121 74 -169 134 -149 189 -128 383 50 471 47 23 59 35 82 82 18 37 29 77 33 129 9 109 10 112 53 108 l37 -3 -4 -79z"/>
 <path d="M937 993 c-13 -12 -7 -62 9 -78 14 -13 19 -14 25 -3 24 37 -6 109 -34 81z"/>
 <path d="M1007 993 c-4 -3 -7 -21 -7 -39 0 -25 7 -38 25 -50 33 -22 49 -9 42 33 -9 51 -38 79 -60 56z"/>
 <path d="M757 830 c-33 -26 -42 -71 -27 -125 18 -64 45 -86 94 -75 53 12 83 43 91 95 8 56 -13 99 -56 114 -46 16 -73 14 -102 -9z"/>
 <path d="M1108 834 c-34 -18 -48 -43 -48 -84 0 -58 47 -120 91 -120 33 0 84 54 94 99 9 44 -18 94 -58 109 -41 15 -46 15 -79 -4z"/>
 <path d="M596 710 c6 -36 11 -46 18 -39 2 2 -3 20 -10 39 l-14 35 6 -35z"/>
 <path d="M1346 620 c-7 -18 -11 -41 -9 -51 8 -28 21 -23 16 5 -3 13 0 34 7 46 6 12 9 24 6 27 -3 3 -12 -9 -20 -27z"/>
 <path d="M1167 1968 c3 -18 19 -76 34 -129 16 -53 33 -130 40 -170 13 -87 21 -99 49 -74 25 22 241 97 346 120 116 24 158 49 188 110 24 48 45 121 46 158 0 16 -23 17 -355 17 l-354 0 6 -32z"/>
 </g>
<g id="layer105" fill="#b1b0b0" stroke="none">
 <path d="M130 1983 c1 -37 22 -110 46 -158 30 -61 72 -86 188 -110 103 -22 321 -97 346 -120 23 -21 40 -12 40 21 0 39 29 173 54 249 13 39 26 85 30 103 l5 32 -354 0 c-332 0 -355 -1 -355 -17z"/>
 <path d="M927 1963 c3 -21 12 -55 19 -75 12 -35 11 -38 -12 -53 -13 -8 -24 -19 -24 -23 0 -4 16 -24 36 -45 36 -36 36 -38 18 -53 -10 -8 -44 -27 -74 -43 -75 -39 -88 -57 -106 -141 -17 -82 -20 -90 -37 -90 -7 0 -20 -14 -30 -31 -20 -35 -10 -59 24 -59 23 0 23 0 5 -120 -21 -134 -36 -167 -91 -190 -25 -11 -57 -31 -72 -45 -16 -14 -30 -25 -34 -25 -3 0 -15 -17 -27 -39 -19 -33 -22 -54 -22 -140 0 -84 4 -109 21 -144 21 -41 91 -136 133 -181 27 -30 138 -86 170 -86 13 0 26 -6 29 -12 6 -21 254 -18 298 4 19 9 59 28 89 41 100 43 158 102 198 199 24 57 32 92 32 137 0 33 -4 62 -9 65 -5 3 -12 17 -15 32 -9 33 -55 105 -80 123 -11 8 -42 35 -69 61 l-49 46 -10 124 c-6 69 -15 131 -20 137 -7 9 -3 16 16 24 14 7 26 18 26 26 0 7 5 13 12 13 6 0 -1 13 -16 29 -22 22 -29 43 -36 93 -4 36 -12 74 -18 84 -6 11 -46 38 -91 62 -44 24 -83 48 -87 53 -3 6 10 28 30 48 l36 37 -26 25 c-27 25 -27 28 -8 137 l6 32 -70 0 -71 0 6 -37z m116 -600 c18 -11 4 -23 -25 -23 -40 0 -63 13 -53 29 6 11 56 7 78 -6z m-182 -108 c-4 -95 12 -92 19 3 l5 67 41 3 40 3 -4 -61 c-3 -40 -1 -60 7 -60 7 0 11 22 11 60 l0 60 45 0 45 0 0 -66 c0 -41 4 -63 10 -59 6 3 10 31 10 61 0 51 1 54 25 54 25 0 25 -2 25 -77 0 -54 3 -73 10 -63 5 8 10 43 10 78 0 55 2 62 20 62 24 0 22 8 25 -105 4 -123 20 -158 105 -228 94 -78 125 -140 125 -252 0 -73 -3 -86 -38 -150 -30 -57 -49 -79 -104 -118 -137 -98 -302 -124 -457 -73 -105 35 -163 73 -221 147 -65 83 -97 152 -103 225 -9 119 37 197 149 254 73 38 105 97 114 218 8 98 10 104 53 100 l37 -3 -4 -80z"/>
 <path d="M933 984 c-9 -23 10 -69 27 -69 19 0 26 51 9 71 -15 18 -28 18 -36 -2z"/>
 <path d="M1013 993 c-7 -2 -13 -20 -13 -39 0 -25 6 -38 26 -50 22 -15 27 -15 35 -3 11 16 4 66 -12 86 -12 14 -16 15 -36 6z"/>
 <path d="M763 835 c-45 -32 -48 -127 -5 -184 16 -21 26 -25 53 -23 64 7 93 37 105 108 5 36 3 45 -22 73 -35 39 -96 51 -131 26z m0 -120 c5 -28 4 -34 -3 -20 -8 19 -14 73 -6 64 2 -2 6 -22 9 -44z"/>
 <path d="M1110 832 c-59 -30 -65 -110 -14 -172 45 -52 96 -35 137 45 41 82 -42 168 -123 127z m63 -162 c21 11 21 10 3 -4 -11 -9 -23 -16 -26 -16 -3 0 -15 7 -26 16 -18 14 -18 15 4 4 16 -8 28 -8 45 0z"/>
 <path d="M1350 631 c-5 -11 -9 -35 -9 -53 l1 -33 8 35 c4 19 11 43 15 53 10 23 -2 22 -15 -2z"/>
 <path d="M1166 1968 c4 -18 17 -64 29 -103 26 -79 41 -146 50 -222 8 -61 18 -72 45 -48 25 23 243 98 346 120 116 24 158 49 188 110 24 48 45 121 46 158 0 16 -23 17 -355 17 l-354 0 5 -32z"/>
 </g>
<g id="layer106" fill="#a89b98" stroke="none">
 <path d="M130 1983 c1 -37 22 -110 46 -158 30 -61 72 -86 188 -110 105 -23 321 -98 346 -120 11 -10 23 -15 26 -12 4 3 14 50 24 104 10 55 29 135 43 178 14 44 28 92 31 108 l6 27 -355 0 c-332 0 -355 -1 -355 -17z"/>
 <path d="M932 1949 c5 -28 13 -60 17 -72 7 -17 3 -27 -18 -44 l-26 -22 40 -41 c39 -40 40 -42 20 -56 -11 -9 -45 -28 -75 -44 -75 -38 -88 -55 -106 -140 -17 -82 -20 -90 -37 -90 -7 0 -20 -14 -30 -31 -20 -35 -10 -59 24 -59 23 0 23 0 5 -120 -21 -134 -36 -167 -91 -190 -25 -11 -57 -31 -72 -45 -16 -14 -30 -25 -34 -25 -16 0 -49 -82 -48 -121 l1 -44 13 48 c21 75 55 119 122 155 32 17 66 39 75 49 32 35 55 108 60 186 6 90 17 107 66 100 l32 -5 -5 -82 c-3 -53 -2 -72 4 -56 5 14 9 49 10 78 l1 52 44 0 44 0 -5 -62 c-5 -45 -3 -59 5 -54 7 4 12 31 12 62 l0 54 45 0 45 0 0 -60 c0 -33 4 -60 10 -60 6 0 10 27 10 61 0 52 2 60 16 55 9 -3 20 -6 25 -6 5 0 10 -33 10 -72 1 -79 4 -76 14 15 6 52 9 58 28 55 21 -3 22 -9 23 -88 2 -133 12 -158 99 -236 128 -113 164 -223 117 -356 -27 -75 -61 -124 -119 -165 -97 -71 -252 -120 -346 -110 -84 9 -221 60 -271 101 -75 61 -147 170 -171 260 l-14 51 0 -43 c-1 -25 8 -60 20 -85 21 -41 91 -136 133 -181 27 -30 138 -86 170 -86 13 0 26 -6 29 -12 6 -21 254 -18 298 4 19 9 59 28 89 41 100 43 158 102 198 199 24 57 32 92 32 137 0 33 -4 62 -9 65 -5 3 -12 17 -15 32 -9 33 -55 105 -80 123 -11 8 -42 35 -69 61 l-49 46 -10 124 c-6 69 -15 131 -20 137 -7 9 -3 16 16 24 14 7 26 18 26 26 0 7 5 13 12 13 6 0 -1 13 -16 29 -22 23 -29 43 -36 96 -10 81 -25 100 -121 150 -37 20 -71 40 -75 46 -3 6 10 28 30 48 l36 37 -26 25 c-27 25 -27 28 -8 137 l6 32 -70 0 -69 0 9 -51z m111 -586 c18 -11 4 -23 -25 -23 -40 0 -63 13 -53 29 6 11 56 7 78 -6z"/>
 <path d="M1166 1973 c3 -16 16 -62 29 -103 25 -83 41 -151 51 -221 9 -66 18 -78 43 -55 26 23 241 98 347 121 116 24 158 49 188 110 24 48 45 121 46 158 0 16 -23 17 -355 17 l-355 0 6 -27z"/>
 <path d="M1013 993 c-32 -12 1 -103 37 -103 18 0 22 47 6 79 -17 31 -21 34 -43 24z m27 -58 c0 -17 -2 -17 -10 -5 -5 8 -10 24 -10 35 0 17 2 17 10 5 5 -8 10 -24 10 -35z"/>
 <path d="M930 968 c0 -13 6 -33 14 -44 19 -25 39 -7 34 32 -2 21 -9 30 -25 32 -18 3 -23 -1 -23 -20z"/>
 <path d="M756 827 c-21 -21 -26 -36 -26 -77 0 -54 19 -103 46 -118 22 -12 88 5 109 28 23 26 37 93 25 124 -11 31 -47 55 -93 63 -29 4 -40 1 -61 -20z m116 -24 c16 -14 19 -27 16 -65 -3 -26 -11 -54 -18 -63 -14 -17 -65 -20 -75 -5 -9 15 -27 12 -19 -2 5 -10 4 -10 -6 -1 -7 7 -15 37 -18 68 -4 45 -1 60 14 76 22 25 75 21 106 -8z"/>
 <path d="M1089 821 c-36 -29 -34 -105 4 -154 44 -59 102 -44 137 36 21 46 13 92 -21 120 -28 23 -91 22 -120 -2z m109 -17 c33 -23 31 -92 -4 -128 -15 -14 -34 -26 -44 -26 -50 0 -90 111 -55 150 22 24 72 26 103 4z"/>
 <path d="M1352 628 c-7 -7 -11 -28 -10 -47 l1 -36 4 35 c3 19 9 41 15 47 13 16 6 17 -10 1z"/>
 </g>
<g id="layer107" fill="#939292" stroke="none">
 <path d="M130 1983 c1 -37 22 -110 46 -158 30 -61 72 -86 188 -110 106 -23 321 -98 347 -121 27 -24 35 -10 44 70 4 33 16 90 27 126 19 65 58 203 58 208 0 1 -160 2 -355 2 -332 0 -355 -1 -355 -17z"/>
 <path d="M932 1949 c5 -28 13 -60 17 -72 7 -17 3 -27 -18 -44 l-26 -22 40 -41 40 -41 -25 -19 c-14 -11 -50 -33 -81 -50 -31 -16 -61 -36 -67 -43 -7 -7 -18 -46 -27 -86 -17 -82 -21 -91 -38 -91 -7 0 -20 -14 -30 -31 -20 -35 -10 -59 24 -59 23 0 23 0 5 -120 -21 -134 -36 -167 -91 -190 -25 -11 -57 -31 -72 -45 -16 -14 -30 -25 -34 -25 -14 0 -49 -82 -49 -116 l1 -39 17 51 c26 75 46 100 105 133 28 16 63 37 76 47 36 26 63 100 72 198 5 49 13 94 18 99 4 4 25 5 45 2 27 -6 36 -12 37 -29 1 -17 2 -17 6 -3 3 13 15 17 50 17 44 0 45 -1 40 -28 -3 -15 -2 -34 4 -42 6 -11 9 -2 9 28 l0 43 47 -3 47 -3 -3 -57 c-1 -36 2 -58 8 -58 7 0 11 24 11 59 0 57 1 59 25 57 21 -1 25 -6 26 -31 1 -29 1 -29 8 -5 5 18 14 25 31 25 24 0 25 -2 27 -86 3 -135 12 -157 96 -233 149 -133 176 -250 96 -414 -48 -99 -162 -173 -318 -208 -90 -20 -148 -15 -263 24 -103 35 -159 76 -222 165 -54 77 -66 100 -82 157 l-12 45 -1 -38 c-1 -21 9 -57 20 -80 21 -41 91 -136 133 -181 27 -30 138 -86 170 -86 13 0 26 -6 29 -12 6 -21 254 -18 298 4 19 9 59 28 89 41 100 43 158 102 198 199 24 57 32 92 32 137 0 33 -4 62 -9 65 -5 3 -12 17 -15 32 -9 33 -55 105 -80 123 -11 8 -42 35 -69 61 l-49 46 -10 124 c-6 69 -15 131 -20 137 -7 9 -3 16 16 24 14 7 26 18 26 26 0 7 5 13 12 13 6 0 -1 13 -16 29 -22 23 -29 43 -36 96 -10 81 -25 100 -121 150 -37 20 -71 40 -75 46 -3 6 8 25 25 43 37 38 38 47 10 72 -22 19 -22 39 -3 132 l7 32 -70 0 -70 0 9 -51z m111 -586 c18 -11 4 -23 -25 -23 -40 0 -63 13 -53 29 6 11 56 7 78 -6z"/>
 <path d="M1160 1998 c0 -5 39 -143 58 -208 11 -36 23 -93 27 -126 9 -80 17 -94 44 -70 26 23 241 98 347 121 116 24 158 49 188 110 24 48 45 121 46 158 0 16 -23 17 -355 17 -195 0 -355 -1 -355 -2z"/>
 <path d="M1143 1215 c0 -22 2 -30 4 -17 2 12 2 30 0 40 -3 9 -5 -1 -4 -23z"/>
 <path d="M1012 988 c-19 -19 -14 -55 10 -78 12 -11 25 -20 29 -20 16 0 19 40 5 74 -16 38 -25 43 -44 24z m34 -65 c-11 -11 -26 10 -26 35 l1 27 15 -28 c9 -16 13 -31 10 -34z"/>
 <path d="M930 968 c0 -13 6 -33 14 -44 19 -25 39 -7 34 32 -2 21 -9 30 -25 32 -18 3 -23 -1 -23 -20z"/>
 <path d="M775 839 c-35 -20 -45 -41 -45 -93 0 -34 7 -62 21 -85 19 -32 23 -33 66 -28 26 3 54 13 65 25 23 22 37 85 28 121 -11 47 -93 84 -135 60z m78 -20 c30 -16 37 -28 37 -71 0 -79 -39 -114 -89 -81 -23 15 -24 14 -18 -3 6 -15 3 -14 -13 5 -25 30 -28 121 -4 145 18 19 56 21 87 5z"/>
 <path d="M1090 820 c-11 -11 -22 -31 -26 -45 -9 -35 22 -112 53 -132 78 -51 167 104 98 172 -31 32 -96 34 -125 5z m94 -4 c25 -10 35 -22 40 -46 8 -45 -20 -102 -58 -115 -25 -9 -31 -6 -57 23 -21 24 -29 42 -29 70 0 42 6 54 35 70 26 15 29 15 69 -2z"/>
 <path d="M1344 616 c-3 -8 -4 -27 -2 -43 3 -23 5 -20 9 15 5 43 2 53 -7 28z"/>
 </g>
<g id="layer108" fill="#828081" stroke="none">
 <path d="M130 1983 c1 -37 22 -110 46 -158 30 -61 72 -86 188 -110 106 -23 321 -98 347 -121 27 -24 33 -13 47 84 6 42 24 120 40 172 16 52 32 107 36 123 l6 27 -355 0 c-332 0 -355 -1 -355 -17z"/>
 <path d="M932 1949 c5 -28 13 -60 17 -72 7 -17 3 -27 -18 -44 l-26 -22 40 -41 40 -41 -25 -19 c-14 -11 -50 -33 -81 -50 -31 -16 -61 -36 -67 -43 -7 -7 -18 -46 -27 -86 -17 -82 -21 -91 -38 -91 -7 0 -20 -14 -30 -31 -20 -35 -10 -59 24 -59 23 0 23 -8 4 -130 -21 -127 -36 -157 -91 -180 -24 -11 -56 -31 -71 -45 -16 -14 -30 -25 -34 -25 -14 0 -49 -81 -48 -111 1 -31 1 -32 8 -9 26 84 77 143 152 174 67 28 96 87 109 220 5 49 13 93 19 99 15 15 81 -1 81 -21 1 -15 2 -15 10 -2 5 10 23 15 46 15 32 0 39 -4 44 -25 l6 -25 6 28 c4 19 0 30 -11 37 -28 16 1 33 39 23 43 -11 51 -33 13 -34 -22 -2 -19 -3 12 -8 l40 -6 -3 -57 c-2 -36 1 -58 7 -58 7 0 11 25 11 60 0 57 1 61 23 58 12 -2 27 -7 34 -11 6 -4 13 -3 15 3 1 5 13 7 25 4 20 -6 22 -12 22 -92 1 -138 8 -156 100 -242 148 -139 173 -259 87 -416 -25 -46 -49 -71 -104 -111 -58 -42 -149 -82 -194 -87 -3 -1 -10 -4 -14 -9 -13 -13 44 -7 73 8 15 8 56 26 91 41 34 15 62 30 62 34 0 4 18 19 40 34 85 56 147 255 106 340 -9 19 -16 37 -16 40 0 13 -56 91 -74 105 -11 8 -42 35 -69 61 l-49 46 -9 90 c-5 49 -9 104 -9 123 1 18 -4 39 -11 47 -9 11 -6 16 15 25 14 7 26 18 26 26 0 7 5 13 12 13 6 0 -1 13 -16 29 -22 23 -29 43 -36 96 -10 81 -25 100 -121 150 -37 20 -71 40 -75 46 -3 6 8 25 25 43 37 38 38 47 10 72 -22 19 -22 39 -3 132 l7 32 -70 0 -70 0 9 -51z"/>
 <path d="M1166 1973 c4 -16 20 -71 36 -123 16 -52 34 -130 40 -172 14 -97 20 -108 47 -84 26 23 241 98 347 121 116 24 158 49 188 110 24 48 45 121 46 158 0 16 -23 17 -355 17 l-355 0 6 -27z"/>
 <path d="M1012 988 c-19 -19 -14 -55 10 -78 19 -18 24 -18 37 -6 12 13 12 20 0 52 -16 41 -29 50 -47 32z m38 -61 c0 -16 -3 -17 -15 -7 -8 7 -15 24 -15 39 1 25 1 25 15 7 8 -11 15 -29 15 -39z"/>
 <path d="M934 959 c8 -43 24 -59 37 -39 17 27 6 65 -20 68 -22 4 -23 1 -17 -29z m29 -12 c-3 -5 -9 -3 -14 4 -4 7 -5 17 -2 22 3 5 9 3 14 -4 4 -7 5 -17 2 -22z"/>
 <path d="M775 839 c-11 -6 -26 -19 -32 -27 -19 -23 -16 -101 5 -142 14 -30 22 -35 52 -36 42 -1 86 19 100 46 6 12 10 44 8 72 -2 41 -8 55 -28 69 -33 24 -80 32 -105 18z m59 -9 c7 0 25 -11 39 -24 22 -20 25 -30 21 -67 -3 -23 -10 -51 -15 -61 -12 -22 -57 -34 -72 -19 -16 16 -27 13 -21 -6 5 -15 3 -15 -10 2 -53 64 -28 201 32 180 8 -3 19 -5 26 -5z"/>
 <path d="M1102 828 c-13 -7 -27 -27 -33 -49 -10 -32 -9 -43 11 -84 38 -79 97 -84 140 -13 59 96 -19 193 -118 146z m87 -13 c74 -38 25 -181 -55 -161 -52 13 -75 130 -32 160 28 20 51 20 87 1z"/>
 <path d="M501 727 c-1 -21 8 -56 19 -78 21 -40 95 -142 134 -184 27 -29 139 -85 170 -85 13 0 26 -6 29 -12 3 -10 8 -10 16 -2 9 8 -3 15 -46 28 -32 9 -67 22 -78 28 -97 52 -210 198 -234 303 l-9 40 -1 -38z"/>
 <path d="M1344 616 c-3 -8 -4 -27 -2 -43 3 -23 5 -20 9 15 5 43 2 53 -7 28z"/>
 <path d="M890 360 c0 -5 21 -10 47 -10 55 0 54 5 -4 14 -27 4 -43 2 -43 -4z"/>
 <path d="M1030 360 c-24 -8 -23 -8 8 -9 17 -1 32 4 32 9 0 11 -5 11 -40 0z"/>
 </g>
<g id="layer109" fill="#727171" stroke="none">
 <path d="M130 1983 c1 -37 22 -110 46 -158 30 -61 72 -86 188 -110 106 -23 321 -98 347 -121 27 -24 33 -13 47 84 6 42 24 120 40 172 16 52 32 107 36 123 l6 27 -355 0 c-332 0 -355 -1 -355 -17z"/>
 <path d="M931 1953 c5 -27 13 -60 18 -75 8 -24 6 -30 -17 -47 l-27 -20 40 -41 40 -41 -25 -19 c-14 -11 -50 -33 -81 -50 -31 -16 -61 -36 -67 -43 -7 -7 -18 -46 -27 -86 -17 -82 -21 -91 -38 -91 -7 0 -20 -14 -30 -31 -20 -36 -11 -56 27 -61 l22 -3 -18 -110 c-10 -60 -20 -116 -23 -123 -2 -7 -3 -14 -2 -16 6 -9 -33 -41 -71 -57 -24 -10 -50 -26 -58 -34 -8 -8 -23 -20 -33 -27 -26 -18 -61 -92 -60 -125 1 -26 2 -26 11 7 15 58 60 113 118 146 104 59 123 93 140 246 5 45 14 86 19 91 13 13 81 -1 81 -15 0 -9 3 -9 12 0 7 7 27 12 46 12 26 0 35 -5 40 -22 5 -21 6 -21 12 -2 5 12 1 23 -9 31 -26 19 0 36 39 26 40 -11 50 -30 18 -36 -18 -3 -17 -5 7 -6 17 0 36 -6 43 -13 9 -9 12 -9 12 0 0 7 19 10 58 9 l57 -2 2 -70 c4 -167 4 -168 108 -269 83 -82 94 -97 115 -159 19 -60 21 -75 11 -128 -24 -138 -125 -253 -263 -300 -38 -13 -68 -26 -68 -30 0 -7 116 33 160 56 60 31 127 104 159 175 35 75 50 168 33 203 -5 12 -22 48 -36 79 -19 39 -46 73 -88 110 -33 29 -66 59 -74 66 -7 7 -15 31 -18 55 -3 23 -8 60 -11 82 -4 22 -6 60 -5 84 0 24 -5 50 -11 57 -9 11 -5 16 15 25 14 7 26 18 26 26 0 7 5 13 12 13 6 0 -1 13 -16 29 -22 23 -29 43 -36 96 -10 81 -25 100 -121 150 -37 20 -71 40 -75 46 -3 6 8 25 25 43 37 38 38 50 10 70 -19 13 -21 21 -15 68 4 29 10 63 13 76 5 21 3 22 -65 22 l-69 0 8 -47z"/>
 <path d="M1166 1973 c4 -16 20 -71 36 -123 16 -52 34 -130 40 -172 14 -97 20 -108 47 -84 26 23 241 98 347 121 116 24 158 49 188 110 24 48 45 121 46 158 0 16 -23 17 -355 17 l-355 0 6 -27z"/>
 <path d="M1077 1280 c-4 -14 -6 -36 -6 -50 1 -18 4 -14 10 14 10 44 6 75 -4 36z"/>
 <path d="M1011 986 c-18 -22 -4 -74 21 -82 12 -3 24 -1 28 6 11 17 0 57 -20 75 -15 14 -19 14 -29 1z m34 -37 c4 -17 5 -33 2 -36 -9 -8 -39 45 -32 57 11 18 23 11 30 -21z"/>
 <path d="M934 977 c-6 -17 12 -67 25 -67 5 0 12 12 15 26 10 38 -27 75 -40 41z m30 -14 c4 -9 2 -21 -4 -27 -7 -7 -10 -7 -10 1 0 6 -3 18 -6 27 -3 9 -2 16 4 16 5 0 13 -8 16 -17z"/>
 <path d="M751 814 c-27 -35 -27 -93 0 -145 20 -39 22 -41 57 -34 62 11 72 15 87 45 24 46 19 107 -10 135 -13 14 -32 25 -42 24 -15 0 -14 -2 4 -9 12 -5 29 -20 38 -34 21 -31 12 -99 -16 -127 -22 -22 -59 -25 -78 -6 -10 10 -11 8 -5 -8 7 -18 6 -18 -9 -6 -23 18 -40 87 -32 127 3 19 16 40 28 49 12 8 16 15 10 15 -6 0 -21 -12 -32 -26z"/>
 <path d="M1152 831 c49 -10 66 -26 74 -66 7 -38 -14 -85 -48 -107 -20 -14 -28 -14 -50 -2 -48 25 -66 116 -31 158 l18 21 -22 -19 c-45 -37 -36 -113 20 -165 21 -19 30 -22 54 -14 38 13 73 67 73 113 0 54 -25 80 -80 85 -43 4 -43 4 -8 -4z"/>
 <path d="M501 712 c-1 -25 14 -58 36 -80 17 -18 17 -3 -1 17 -8 9 -19 32 -24 51 -8 26 -10 29 -11 12z"/>
 <path d="M550 605 c0 -10 83 -119 109 -143 40 -36 37 -16 -3 24 -21 21 -51 57 -67 81 -28 40 -39 51 -39 38z"/>
 <path d="M700 439 c0 -5 24 -21 53 -34 55 -26 82 -32 72 -15 -3 6 -17 10 -29 10 -13 0 -40 11 -60 25 -20 13 -36 20 -36 14z"/>
 <path d="M1035 360 c-18 -8 -17 -9 8 -9 16 -1 26 3 22 9 -3 6 -7 10 -8 9 -1 0 -11 -4 -22 -9z"/>
 </g>
<g id="layer110" fill="#926049" stroke="none">
 <path d="M130 1983 c1 -37 22 -110 46 -158 30 -61 72 -86 188 -110 105 -23 321 -98 346 -120 11 -10 23 -15 26 -12 4 4 13 44 20 89 7 46 26 126 42 178 16 52 32 107 36 123 l6 27 -355 0 c-332 0 -355 -1 -355 -17z"/>
 <path d="M930 1978 c0 -13 7 -47 14 -75 14 -52 14 -53 -12 -72 l-27 -20 40 -41 40 -41 -25 -19 c-14 -11 -50 -33 -81 -50 -31 -16 -61 -36 -67 -43 -7 -7 -18 -46 -27 -86 -17 -82 -21 -91 -38 -91 -7 0 -20 -14 -30 -31 -26 -47 -11 -58 74 -56 39 1 73 -3 77 -9 10 -15 92 -5 86 11 -8 19 24 26 67 15 37 -10 53 -29 27 -31 -7 -1 -2 -4 12 -8 14 -4 37 -4 52 0 16 4 30 3 34 -2 3 -5 10 -7 15 -3 5 3 7 9 4 14 -11 17 13 19 28 2 10 -12 16 -48 19 -127 3 -63 10 -121 18 -135 7 -14 46 -56 86 -93 95 -88 129 -155 128 -248 0 -69 -11 -105 -55 -181 -17 -28 -22 -45 -14 -42 29 12 83 138 91 216 5 40 0 59 -34 130 -26 56 -53 95 -81 121 -24 20 -45 37 -47 37 -13 0 -54 55 -54 72 0 11 -4 17 -8 14 -4 -2 -6 11 -4 31 3 26 1 34 -7 28 -9 -5 -8 -1 1 14 10 17 10 25 0 41 -8 13 -10 35 -6 60 4 26 2 45 -6 55 -10 12 -8 17 14 26 14 7 26 18 26 26 0 7 5 13 12 13 6 0 -1 13 -16 29 -22 23 -29 43 -36 96 -10 79 -25 99 -113 145 -99 52 -102 56 -61 92 40 35 43 52 10 73 -21 14 -23 20 -16 53 4 20 11 54 14 75 l7 37 -66 0 c-61 0 -65 -1 -65 -22z"/>
 <path d="M1166 1973 c4 -16 20 -71 36 -123 16 -52 34 -130 40 -172 14 -97 20 -108 47 -84 26 23 241 98 347 121 116 24 158 49 188 110 24 48 45 121 46 158 0 16 -23 17 -355 17 l-355 0 6 -27z"/>
 <path d="M755 1268 c-2 -7 -6 -31 -8 -53 -3 -22 -8 -47 -12 -56 -3 -10 -2 -20 3 -23 14 -8 21 16 28 85 5 54 -1 77 -11 47z"/>
 <path d="M1072 1240 c0 -19 2 -27 5 -17 2 9 2 25 0 35 -3 9 -5 1 -5 -18z"/>
 <path d="M722 1104 c-7 -8 -10 -14 -6 -14 20 0 -33 -40 -71 -55 -25 -9 -45 -20 -45 -25 0 -4 -12 -16 -27 -27 -16 -10 -29 -24 -31 -32 -1 -7 10 0 26 15 16 16 55 42 86 59 36 18 63 40 73 58 16 33 14 42 -5 21z"/>
 <path d="M934 977 c-6 -17 12 -67 25 -67 5 0 12 12 15 26 10 38 -27 75 -40 41z m32 -11 c3 -8 1 -23 -5 -33 -9 -16 -10 -16 -11 -1 0 9 -3 23 -6 32 -3 9 -1 16 5 16 7 0 14 -6 17 -14z"/>
 <path d="M1040 971 c7 -13 10 -34 7 -47 -2 -13 0 -24 4 -24 15 0 10 55 -7 76 -14 18 -15 18 -4 -5z"/>
 <path d="M522 917 c-6 -6 -13 -26 -16 -42 -3 -17 -3 -23 0 -15 4 8 13 27 21 43 14 29 12 35 -5 14z"/>
 <path d="M880 805 c19 -20 22 -32 18 -70 -3 -25 -12 -54 -19 -63 -8 -10 -4 -7 9 6 15 16 22 35 22 63 0 40 -23 89 -43 89 -6 0 0 -11 13 -25z"/>
 <path d="M1205 810 c14 -15 20 -36 20 -67 0 -38 -5 -49 -33 -74 -19 -17 -26 -29 -18 -29 16 0 50 43 61 78 11 37 -3 90 -28 103 l-22 12 20 -23z"/>
 <path d="M740 801 c-22 -43 -3 -129 35 -161 14 -11 13 -7 -4 16 -27 37 -38 112 -22 143 7 11 9 21 7 21 -3 0 -10 -9 -16 -19z"/>
 <path d="M1064 747 c3 -10 6 -25 6 -32 0 -17 58 -85 71 -85 5 0 -6 16 -26 35 -19 20 -35 43 -35 53 0 9 -5 24 -11 32 -9 12 -10 12 -5 -3z"/>
 <path d="M1300 464 c-62 -49 -70 -59 -33 -40 35 18 89 64 82 71 -3 2 -25 -12 -49 -31z"/>
 </g>
<g id="layer111" fill="#6b5c58" stroke="none">
 <path d="M130 1983 c1 -37 22 -110 46 -158 30 -61 72 -86 188 -110 105 -23 321 -98 346 -120 11 -10 23 -15 26 -12 4 4 13 44 20 89 7 46 26 126 42 178 16 52 32 107 36 123 l6 27 -355 0 c-332 0 -355 -1 -355 -17z"/>
 <path d="M930 1978 c0 -13 7 -47 14 -75 14 -52 14 -53 -12 -72 l-27 -20 40 -40 c21 -23 45 -41 52 -41 18 0 83 59 83 76 0 7 -11 21 -24 29 -21 14 -23 20 -16 53 4 20 11 54 14 75 l7 37 -66 0 c-61 0 -65 -1 -65 -22z"/>
 <path d="M1166 1973 c4 -16 20 -71 36 -123 16 -52 34 -130 40 -172 14 -97 20 -108 47 -84 26 23 241 98 347 121 116 24 158 49 188 110 24 48 45 121 46 158 0 16 -23 17 -355 17 l-355 0 6 -27z"/>
 <path d="M905 1622 c-12 -4 -42 -20 -67 -36 -34 -22 -47 -38 -51 -60 -8 -48 -25 -86 -39 -86 -7 0 -21 -14 -31 -31 -26 -47 -11 -58 74 -56 39 1 73 -3 77 -9 10 -15 92 -5 86 11 -8 19 24 26 67 15 37 -10 53 -29 27 -31 -7 -1 -2 -4 12 -8 14 -4 37 -4 52 0 16 4 30 3 34 -2 3 -5 10 -7 15 -3 5 3 7 9 4 14 -11 17 13 19 28 2 10 -12 16 -48 19 -127 3 -63 10 -121 18 -135 7 -14 46 -56 86 -93 95 -88 129 -155 128 -248 0 -69 -11 -105 -55 -181 -17 -28 -22 -45 -14 -42 29 12 83 138 91 216 5 40 0 59 -34 130 -26 56 -53 95 -81 121 -24 20 -45 37 -47 37 -11 0 -54 54 -54 66 0 8 -4 14 -8 14 -4 0 -6 16 -4 36 3 27 1 35 -7 29 -9 -5 -8 -1 1 14 10 17 10 25 0 41 -8 13 -10 35 -6 60 4 26 2 45 -6 55 -10 12 -8 17 14 26 14 7 26 18 26 26 0 7 5 13 12 13 6 0 0 12 -15 28 -25 26 -51 107 -41 124 3 4 0 8 -6 8 -6 0 -32 14 -58 32 -43 30 -54 32 -137 35 -49 1 -99 -1 -110 -5z m222 -118 c38 -22 43 -29 43 -59 0 -34 -1 -35 -39 -35 -53 0 -71 8 -72 34 -1 16 -2 17 -6 4 -3 -13 -14 -18 -36 -18 -18 0 -56 -3 -85 -7 l-53 -6 7 27 c9 36 -11 33 -25 -4 -8 -26 -15 -30 -45 -30 -20 0 -36 4 -36 9 0 11 71 75 102 92 65 36 178 32 245 -7z m83 -92 c-27 -4 -34 2 -26 24 6 15 8 15 27 -2 l21 -19 -22 -3z"/>
 <path d="M755 1268 c-2 -7 -6 -31 -8 -53 -3 -22 -8 -47 -12 -56 -3 -10 -2 -20 3 -23 14 -8 21 16 28 85 5 54 -1 77 -11 47z"/>
 <path d="M1072 1240 c0 -19 2 -27 5 -17 2 9 2 25 0 35 -3 9 -5 1 -5 -18z"/>
 <path d="M722 1104 c-7 -8 -10 -14 -6 -14 20 0 -33 -40 -71 -55 -25 -9 -45 -20 -45 -25 0 -4 -12 -16 -27 -27 -16 -10 -29 -24 -31 -32 -1 -7 10 0 26 15 16 16 55 42 86 59 36 18 63 40 73 58 16 33 14 42 -5 21z"/>
 <path d="M934 977 c-6 -17 12 -67 25 -67 5 0 12 12 15 26 10 38 -27 75 -40 41z m32 -11 c3 -8 1 -23 -5 -33 -9 -16 -10 -16 -11 -1 0 9 -3 23 -6 32 -3 9 -1 16 5 16 7 0 14 -6 17 -14z"/>
 <path d="M1040 971 c7 -13 10 -34 7 -47 -2 -13 0 -24 4 -24 15 0 10 55 -7 76 -14 18 -15 18 -4 -5z"/>
 <path d="M522 917 c-6 -6 -13 -26 -16 -42 -3 -17 -3 -23 0 -15 4 8 13 27 21 43 14 29 12 35 -5 14z"/>
 <path d="M880 805 c19 -20 22 -32 18 -70 -3 -25 -12 -54 -19 -63 -8 -10 -4 -7 9 6 15 16 22 35 22 63 0 40 -23 89 -43 89 -6 0 0 -11 13 -25z"/>
 <path d="M1205 810 c14 -15 20 -36 20 -67 0 -38 -5 -49 -33 -74 -19 -17 -26 -29 -18 -29 16 0 50 43 61 78 11 37 -3 90 -28 103 l-22 12 20 -23z"/>
 <path d="M740 801 c-22 -43 -3 -129 35 -161 14 -11 13 -7 -4 16 -27 37 -38 112 -22 143 7 11 9 21 7 21 -3 0 -10 -9 -16 -19z"/>
 <path d="M1064 747 c3 -10 6 -25 6 -32 0 -17 58 -85 71 -85 5 0 -6 16 -26 35 -19 20 -35 43 -35 53 0 9 -5 24 -11 32 -9 12 -10 12 -5 -3z"/>
 <path d="M1300 464 c-62 -49 -70 -59 -33 -40 35 18 89 64 82 71 -3 2 -25 -12 -49 -31z"/>
 </g>
<g id="layer112" fill="#875038" stroke="none">
 <path d="M130 1983 c1 -37 22 -110 46 -158 30 -61 72 -86 188 -110 106 -23 321 -98 347 -121 17 -16 22 -16 29 -4 6 8 10 31 10 50 0 45 28 156 86 343 5 16 -16 17 -350 17 -332 0 -356 -1 -356 -17z"/>
 <path d="M930 1977 c0 -13 7 -46 15 -73 15 -49 15 -49 -11 -70 l-26 -22 37 -41 c21 -22 43 -41 51 -41 18 0 84 59 84 76 0 7 -11 21 -24 29 -21 14 -23 20 -16 53 4 20 11 54 14 75 l7 37 -66 0 c-62 0 -65 -1 -65 -23z"/>
 <path d="M1164 1983 c56 -183 85 -300 86 -348 0 -16 4 -37 10 -45 7 -12 12 -12 29 4 26 23 241 98 347 121 116 24 158 49 188 110 24 48 45 121 46 158 0 16 -24 17 -356 17 -334 0 -355 -1 -350 -17z"/>
 <path d="M905 1622 c-12 -4 -42 -20 -67 -36 -34 -22 -47 -38 -51 -60 -8 -48 -25 -86 -39 -86 -7 0 -21 -14 -31 -32 -25 -43 -11 -53 75 -53 47 0 73 -4 75 -12 3 -8 12 -9 28 -3 12 5 33 7 46 4 19 -3 20 -3 6 4 -17 7 -16 9 8 20 34 16 110 -1 102 -23 -7 -18 31 -27 41 -9 6 11 12 11 35 -1 15 -8 29 -10 32 -4 4 5 0 9 -7 9 -10 0 -9 3 2 10 8 5 21 5 28 1 18 -10 72 18 72 37 0 6 5 12 12 12 6 0 0 12 -15 28 -25 26 -51 107 -41 124 3 4 0 8 -6 8 -6 0 -32 14 -58 32 -43 30 -54 32 -137 35 -49 1 -99 -1 -110 -5z m222 -118 c38 -22 43 -29 43 -59 0 -34 -1 -35 -39 -35 -53 0 -71 8 -72 34 -1 16 -2 17 -6 4 -3 -13 -14 -18 -36 -18 -18 0 -56 -3 -85 -7 l-53 -6 7 27 c9 36 -11 33 -25 -4 -8 -26 -15 -30 -45 -30 -20 0 -36 4 -36 9 0 11 71 75 102 92 65 36 178 32 245 -7z m83 -92 c-27 -4 -34 2 -26 24 6 15 8 15 27 -2 l21 -19 -22 -3z"/>
 <path d="M1218 1324 c-5 -4 -8 -19 -8 -33 0 -18 3 -22 11 -14 6 6 9 21 7 33 -1 12 -6 18 -10 14z"/>
 <path d="M1214 1178 c5 -91 14 -110 75 -163 77 -67 103 -98 130 -155 45 -96 30 -217 -40 -324 l-21 -31 29 32 c53 59 96 215 72 263 -4 8 -19 41 -34 72 -23 50 -115 162 -115 141 0 -14 -60 59 -60 73 0 8 -4 14 -9 14 -5 0 -8 16 -6 35 2 20 -1 33 -6 30 -5 -4 -9 -2 -9 4 0 5 6 11 13 14 9 3 9 7 1 18 -7 8 -14 23 -18 34 -3 11 -4 -14 -2 -57z"/>
 <path d="M750 1217 c0 -14 -3 -40 -6 -58 -4 -23 -2 -29 4 -19 15 25 24 88 12 95 -6 4 -10 -4 -10 -18z"/>
 <path d="M725 1106 c-5 -6 -11 -20 -13 -31 -2 -15 2 -13 14 8 16 30 16 43 -1 23z"/>
 <path d="M1216 795 c12 -18 15 -37 11 -63 -5 -25 -3 -32 3 -22 18 28 2 110 -22 110 -5 0 -1 -11 8 -25z"/>
 <path d="M898 737 c-3 -26 -14 -58 -24 -70 l-19 -22 22 19 c23 19 38 69 31 103 -2 10 -7 -4 -10 -30z"/>
 <path d="M1064 747 c3 -10 6 -25 6 -32 0 -17 58 -85 72 -85 5 0 -7 15 -26 34 -20 18 -36 42 -36 52 0 11 -5 26 -11 34 -9 12 -10 12 -5 -3z"/>
 <path d="M1294 455 c-21 -19 -31 -32 -21 -29 9 3 17 10 17 16 0 5 6 6 13 2 6 -4 9 -3 4 1 -4 5 5 17 20 27 16 10 23 18 17 18 -6 0 -28 -16 -50 -35z"/>
 </g>
<g id="layer113" fill="#b63413" stroke="none">
 <path d="M130 1983 c1 -37 22 -110 46 -158 30 -61 72 -86 188 -110 106 -23 321 -98 347 -121 17 -16 22 -16 29 -4 6 8 10 31 10 50 0 45 28 156 86 343 5 16 -16 17 -350 17 -332 0 -356 -1 -356 -17z"/>
 <path d="M930 1977 c0 -13 7 -46 15 -73 15 -49 15 -49 -11 -70 l-26 -22 37 -41 c21 -22 43 -41 51 -41 18 0 84 59 84 76 0 7 -11 21 -24 29 -21 14 -23 20 -16 53 4 20 11 54 14 75 l7 37 -66 0 c-62 0 -65 -1 -65 -23z"/>
 <path d="M1164 1983 c56 -183 85 -300 86 -348 0 -16 4 -37 10 -45 7 -12 12 -12 29 4 26 23 241 98 347 121 116 24 158 49 188 110 24 48 45 121 46 158 0 16 -24 17 -356 17 -334 0 -355 -1 -350 -17z"/>
 <path d="M809 1557 c-8 -7 -21 -34 -29 -61 -8 -28 -20 -51 -29 -53 -9 -2 -24 -18 -34 -35 -27 -47 -11 -57 83 -53 66 3 78 2 73 -11 -4 -12 -1 -13 20 -5 14 5 35 8 48 5 20 -4 21 -3 5 4 -16 7 -17 10 -5 17 22 14 41 15 82 4 26 -7 37 -15 34 -24 -3 -7 3 -15 14 -18 12 -3 22 0 26 9 7 18 22 18 44 -2 11 -10 19 -12 24 -5 3 6 -2 11 -12 12 -16 0 -16 1 2 8 11 5 26 5 34 1 17 -9 71 20 71 38 0 6 5 12 12 12 6 0 0 12 -15 28 -14 15 -30 46 -36 70 -15 69 -22 71 -221 71 -122 0 -180 -3 -191 -12z m289 -30 c36 -13 114 -72 131 -99 10 -16 7 -18 -19 -18 -26 0 -30 4 -31 28 l-2 27 -4 -27 c-4 -25 -9 -28 -43 -28 -52 0 -70 8 -71 34 -1 16 -2 17 -6 4 -3 -13 -14 -18 -36 -18 -18 0 -56 -3 -85 -7 l-53 -6 7 27 c9 36 -11 33 -25 -4 -9 -28 -13 -30 -58 -30 l-48 1 58 54 c31 30 72 59 90 64 46 13 156 12 195 -2z"/>
 <path d="M1218 1324 c-5 -4 -8 -19 -8 -33 0 -18 3 -22 11 -14 6 6 9 21 7 33 -1 12 -6 18 -10 14z"/>
 <path d="M1214 1178 c5 -91 14 -110 75 -163 77 -67 103 -98 130 -155 45 -96 30 -217 -40 -324 l-21 -31 29 32 c53 59 96 215 72 263 -4 8 -19 41 -34 72 -23 50 -115 162 -115 141 0 -14 -60 59 -60 73 0 8 -4 14 -9 14 -5 0 -8 16 -6 35 2 20 -1 33 -6 30 -5 -4 -9 -2 -9 4 0 5 6 11 13 14 9 3 9 7 1 18 -7 8 -14 23 -18 34 -3 11 -4 -14 -2 -57z"/>
 <path d="M750 1217 c0 -14 -3 -40 -6 -58 -4 -23 -2 -29 4 -19 15 25 24 88 12 95 -6 4 -10 -4 -10 -18z"/>
 <path d="M725 1106 c-5 -6 -11 -20 -13 -31 -2 -15 2 -13 14 8 16 30 16 43 -1 23z"/>
 <path d="M1216 795 c12 -18 15 -37 11 -63 -5 -25 -3 -32 3 -22 18 28 2 110 -22 110 -5 0 -1 -11 8 -25z"/>
 <path d="M898 737 c-3 -26 -14 -58 -24 -70 l-19 -22 22 19 c23 19 38 69 31 103 -2 10 -7 -4 -10 -30z"/>
 <path d="M1064 747 c3 -10 6 -25 6 -32 0 -17 58 -85 72 -85 5 0 -7 15 -26 34 -20 18 -36 42 -36 52 0 11 -5 26 -11 34 -9 12 -10 12 -5 -3z"/>
 <path d="M1294 455 c-21 -19 -31 -32 -21 -29 9 3 17 10 17 16 0 5 6 6 13 2 6 -4 9 -3 4 1 -4 5 5 17 20 27 16 10 23 18 17 18 -6 0 -28 -16 -50 -35z"/>
 </g>
<g id="layer114" fill="#545353" stroke="none">
 <path d="M130 1983 c1 -37 22 -110 46 -158 30 -61 72 -86 188 -110 106 -23 321 -98 347 -121 17 -16 22 -16 29 -4 6 8 10 31 10 50 0 45 28 156 86 343 5 16 -16 17 -350 17 -332 0 -356 -1 -356 -17z"/>
 <path d="M930 1977 c0 -13 7 -46 15 -73 15 -49 15 -49 -11 -70 l-26 -22 37 -41 c21 -22 43 -41 51 -41 18 0 84 59 84 76 0 7 -11 21 -24 29 -21 14 -23 20 -16 53 4 20 11 54 14 75 l7 37 -66 0 c-62 0 -65 -1 -65 -23z"/>
 <path d="M1164 1983 c56 -183 85 -300 86 -348 0 -16 4 -37 10 -45 7 -12 12 -12 29 4 26 23 241 98 347 121 116 24 158 49 188 110 24 48 45 121 46 158 0 16 -24 17 -356 17 -334 0 -355 -1 -350 -17z"/>
 <path d="M809 1557 c-8 -7 -21 -34 -29 -61 -8 -28 -20 -51 -29 -53 -9 -2 -24 -18 -34 -35 -29 -50 -13 -57 110 -51 59 2 112 7 117 11 30 18 121 0 113 -23 -7 -17 31 -27 41 -10 8 14 102 27 102 14 0 -4 13 0 30 9 16 9 30 23 30 30 0 6 5 12 12 12 6 0 0 12 -15 28 -14 15 -30 46 -36 70 -15 69 -22 71 -221 71 -122 0 -180 -3 -191 -12z m289 -30 c36 -13 114 -72 131 -99 10 -16 7 -18 -19 -18 -21 0 -30 5 -31 18 -1 16 -2 16 -6 0 -6 -23 -84 -25 -106 -3 -8 8 -16 12 -19 10 -2 -2 -45 -6 -96 -9 -51 -3 -97 -8 -102 -11 -6 -4 -36 -9 -67 -12 -45 -5 -55 -3 -51 8 3 8 12 14 20 14 8 0 39 22 67 48 29 26 67 51 85 56 45 13 155 12 194 -2z"/>
 <path d="M1218 1324 c-5 -4 -8 -19 -8 -33 0 -18 3 -22 11 -14 6 6 9 21 7 33 -1 12 -6 18 -10 14z"/>
 <path d="M1214 1178 c5 -91 14 -110 75 -163 77 -67 103 -98 130 -155 45 -96 30 -217 -40 -324 l-21 -31 29 32 c53 59 96 215 72 263 -4 8 -19 41 -34 72 -23 50 -115 162 -115 141 0 -14 -60 59 -60 73 0 8 -4 14 -9 14 -5 0 -8 16 -6 35 2 20 -1 33 -6 30 -5 -4 -9 -2 -9 4 0 5 6 11 13 14 9 3 9 7 1 18 -7 8 -14 23 -18 34 -3 11 -4 -14 -2 -57z"/>
 <path d="M750 1217 c0 -14 -3 -40 -6 -58 -4 -23 -2 -29 4 -19 15 25 24 88 12 95 -6 4 -10 -4 -10 -18z"/>
 <path d="M725 1106 c-5 -6 -11 -20 -13 -31 -2 -15 2 -13 14 8 16 30 16 43 -1 23z"/>
 <path d="M1216 795 c12 -18 15 -37 11 -63 -5 -25 -3 -32 3 -22 18 28 2 110 -22 110 -5 0 -1 -11 8 -25z"/>
 <path d="M898 737 c-3 -26 -14 -58 -24 -70 l-19 -22 22 19 c23 19 38 69 31 103 -2 10 -7 -4 -10 -30z"/>
 <path d="M1064 747 c3 -10 6 -25 6 -32 0 -17 58 -85 72 -85 5 0 -7 15 -26 34 -20 18 -36 42 -36 52 0 11 -5 26 -11 34 -9 12 -10 12 -5 -3z"/>
 <path d="M1294 455 c-21 -19 -31 -32 -21 -29 9 3 17 10 17 16 0 5 6 6 13 2 6 -4 9 -3 4 1 -4 5 5 17 20 27 16 10 23 18 17 18 -6 0 -28 -16 -50 -35z"/>
 </g>
<g id="layer115" fill="#7a452f" stroke="none">
 <path d="M130 1983 c1 -37 22 -110 46 -158 30 -61 72 -86 188 -110 106 -23 321 -98 347 -121 17 -16 22 -16 29 -4 6 8 10 31 10 50 0 45 28 156 86 343 5 16 -16 17 -350 17 -332 0 -356 -1 -356 -17z"/>
 <path d="M930 1977 c0 -13 7 -46 15 -73 15 -49 15 -49 -11 -70 l-26 -22 37 -41 c21 -22 43 -41 51 -41 18 0 84 59 84 75 0 7 -11 22 -25 32 -22 16 -23 22 -16 58 5 22 11 55 15 73 l6 32 -65 0 c-61 0 -65 -1 -65 -23z"/>
 <path d="M1164 1983 c56 -183 85 -300 86 -348 0 -16 4 -37 10 -45 7 -12 12 -12 29 4 26 23 241 98 347 121 116 24 158 49 188 110 24 48 45 121 46 158 0 16 -24 17 -356 17 -334 0 -355 -1 -350 -17z"/>
 <path d="M809 1557 c-8 -7 -21 -34 -29 -61 -8 -28 -20 -51 -29 -53 -9 -2 -24 -18 -34 -35 -29 -50 -13 -57 110 -51 59 2 112 7 117 11 19 12 39 11 104 -4 95 -22 212 -10 212 22 0 8 5 14 12 14 6 0 0 12 -15 28 -14 15 -30 46 -36 70 -15 69 -22 71 -221 71 -122 0 -180 -3 -191 -12z m289 -30 c36 -13 114 -72 131 -99 10 -16 7 -18 -19 -18 -21 0 -30 5 -31 18 -1 16 -2 16 -6 0 -6 -23 -84 -25 -106 -3 -8 8 -16 12 -19 10 -2 -2 -45 -6 -96 -9 -51 -3 -97 -8 -102 -11 -6 -4 -36 -9 -67 -12 -45 -5 -55 -3 -51 8 3 8 12 14 20 14 8 0 39 22 67 48 29 26 67 51 85 56 45 13 155 12 194 -2z"/>
 <path d="M1213 1200 c0 -30 2 -43 4 -27 2 15 2 39 0 55 -2 15 -4 2 -4 -28z"/>
 <path d="M756 1213 c-2 -10 -7 -34 -10 -53 -8 -44 8 -11 17 38 7 34 2 45 -7 15z"/>
 <path d="M1221 1117 c-1 -23 28 -75 46 -81 10 -4 10 -1 0 14 -6 11 -15 20 -19 20 -4 0 -12 15 -17 33 -5 17 -10 24 -10 14z"/>
 <path d="M1290 1015 c0 -2 20 -19 45 -39 25 -21 42 -31 39 -23 -3 8 -16 20 -30 27 -13 7 -24 19 -24 25 0 6 -7 12 -15 12 -8 0 -15 -1 -15 -2z"/>
 <path d="M1398 903 c55 -79 64 -195 22 -290 -10 -24 -17 -43 -15 -43 11 0 46 84 50 120 3 23 6 44 7 48 9 32 -54 192 -74 192 -5 0 -1 -12 10 -27z"/>
 <path d="M1221 791 c6 -13 9 -40 5 -60 -4 -25 -2 -31 4 -21 15 23 12 64 -6 86 -14 18 -15 18 -3 -5z"/>
 <path d="M1071 718 c-1 -9 9 -27 22 -40 12 -13 17 -17 10 -8 -7 8 -16 27 -22 40 -6 17 -10 19 -10 8z"/>
 </g>
<g id="layer116" fill="#c52602" stroke="none">
 <path d="M130 1983 c1 -37 22 -110 46 -158 30 -61 72 -86 188 -110 106 -23 321 -98 347 -121 17 -16 22 -16 29 -4 6 8 10 31 10 50 0 45 28 156 86 343 5 16 -15 17 -336 17 l-340 0 6 -27 c6 -26 32 -111 48 -158 4 -11 -2 -4 -12 15 -19 33 -34 79 -47 143 -6 30 -25 37 -25 10z m190 -231 c-14 -5 -90 28 -90 39 0 4 23 -2 51 -14 28 -12 45 -23 39 -25z"/>
 <path d="M930 1977 c0 -13 7 -46 15 -73 15 -49 15 -49 -11 -70 l-26 -22 37 -41 c21 -22 43 -41 51 -41 18 0 84 59 84 75 0 7 -11 22 -25 32 -22 16 -23 22 -16 58 5 22 11 55 15 73 l6 32 -65 0 c-61 0 -65 -1 -65 -23z"/>
 <path d="M1164 1983 c56 -183 85 -300 86 -348 0 -16 4 -37 10 -45 7 -12 12 -12 29 4 26 23 241 98 347 121 116 24 158 49 188 110 27 52 53 161 42 172 -10 11 -18 -4 -27 -51 -8 -43 -49 -150 -54 -144 -2 2 7 35 20 73 12 39 26 82 29 98 l6 27 -340 0 c-321 0 -341 -1 -336 -17z m606 -192 c0 -11 -76 -44 -91 -39 -7 2 9 12 34 22 28 10 44 22 41 28 -4 7 -2 8 4 4 7 -4 12 -11 12 -15z"/>
 <path d="M933 1551 c-23 -4 -64 -21 -92 -39 -30 -18 -51 -26 -52 -19 0 7 -7 -3 -15 -20 -8 -18 -20 -33 -27 -33 -6 0 -20 -14 -30 -31 -28 -50 -13 -58 106 -53 56 3 109 8 117 11 30 12 45 12 108 -3 95 -22 212 -10 212 22 0 8 5 14 12 14 6 0 0 12 -15 28 -14 15 -31 45 -36 67 -7 32 -9 35 -10 13 l-1 -27 -57 35 c-31 19 -64 34 -74 34 -9 0 -36 2 -60 4 -24 3 -63 1 -86 -3z m186 -30 c21 -11 60 -40 87 -65 l49 -45 -37 -1 c-29 0 -38 4 -39 18 -1 16 -2 16 -6 0 -6 -23 -84 -25 -106 -3 -8 8 -16 12 -19 10 -2 -2 -45 -6 -96 -9 -51 -3 -97 -8 -102 -11 -22 -13 -120 -18 -120 -6 0 6 8 14 18 18 9 3 37 23 62 43 74 61 97 69 188 70 63 0 92 -5 121 -19z"/>
 <path d="M1213 1200 c0 -30 2 -43 4 -27 2 15 2 39 0 55 -2 15 -4 2 -4 -28z"/>
 <path d="M756 1213 c-2 -10 -7 -34 -10 -53 -8 -44 8 -11 17 38 7 34 2 45 -7 15z"/>
 <path d="M1221 1117 c-1 -23 28 -75 46 -81 10 -4 10 -1 0 14 -6 11 -15 20 -19 20 -4 0 -12 15 -17 33 -5 17 -10 24 -10 14z"/>
 <path d="M1290 1015 c0 -2 20 -19 45 -39 25 -21 42 -31 39 -23 -3 8 -16 20 -30 27 -13 7 -24 19 -24 25 0 6 -7 12 -15 12 -8 0 -15 -1 -15 -2z"/>
 <path d="M1398 903 c55 -79 64 -195 22 -290 -10 -24 -17 -43 -15 -43 11 0 46 84 50 120 3 23 6 44 7 48 9 32 -54 192 -74 192 -5 0 -1 -12 10 -27z"/>
 <path d="M1221 791 c6 -13 9 -40 5 -60 -4 -25 -2 -31 4 -21 15 23 12 64 -6 86 -14 18 -15 18 -3 -5z"/>
 <path d="M1071 718 c-1 -9 9 -27 22 -40 12 -13 17 -17 10 -8 -7 8 -16 27 -22 40 -6 17 -10 19 -10 8z"/>
 </g>
<g id="layer117" fill="#424041" stroke="none">
 <path d="M130 1983 c1 -37 22 -110 46 -158 30 -61 72 -86 188 -110 106 -23 321 -98 347 -121 17 -16 22 -16 29 -4 6 8 10 31 10 50 0 45 28 156 86 343 5 16 -15 17 -336 17 l-340 0 6 -27 c6 -26 32 -111 48 -158 4 -11 -2 -4 -12 15 -19 33 -34 79 -47 143 -6 30 -25 37 -25 10z m190 -231 c-14 -5 -90 28 -90 39 0 4 23 -2 51 -14 28 -12 45 -23 39 -25z"/>
 <path d="M930 1977 c0 -13 7 -46 15 -73 15 -49 15 -49 -11 -70 l-26 -22 37 -41 c21 -22 43 -41 51 -41 18 0 84 59 84 75 0 7 -11 22 -25 32 -22 16 -23 22 -16 58 5 22 11 55 15 73 l6 32 -65 0 c-61 0 -65 -1 -65 -23z"/>
 <path d="M1164 1983 c56 -183 85 -300 86 -348 0 -16 4 -37 10 -45 7 -12 12 -12 29 4 26 23 241 98 347 121 116 24 158 49 188 110 27 52 53 161 42 172 -10 11 -18 -4 -27 -51 -8 -43 -49 -150 -54 -144 -2 2 7 35 20 73 12 39 26 82 29 98 l6 27 -340 0 c-321 0 -341 -1 -336 -17z m606 -192 c0 -11 -76 -44 -91 -39 -7 2 9 12 34 22 28 10 44 22 41 28 -4 7 -2 8 4 4 7 -4 12 -11 12 -15z"/>
 <path d="M933 1551 c-23 -4 -64 -21 -92 -39 -30 -18 -51 -26 -51 -19 -1 7 -9 -4 -19 -23 -9 -19 -16 -37 -15 -39 2 -2 25 14 51 36 75 63 102 73 193 73 96 0 131 -15 213 -90 58 -53 89 -69 44 -22 -14 15 -31 45 -36 67 -7 32 -9 35 -10 13 l-1 -27 -57 35 c-31 19 -64 34 -74 34 -9 0 -36 2 -60 4 -24 3 -63 1 -86 -3z"/>
 <path d="M710 1395 c-7 -9 -11 -18 -8 -20 3 -3 11 1 18 10 7 9 11 18 8 20 -3 3 -11 -1 -18 -10z"/>
 <path d="M1213 1200 c0 -30 2 -43 4 -27 2 15 2 39 0 55 -2 15 -4 2 -4 -28z"/>
 <path d="M756 1213 c-2 -10 -7 -34 -10 -53 -8 -44 8 -11 17 38 7 34 2 45 -7 15z"/>
 <path d="M1221 1117 c-1 -23 28 -75 46 -81 10 -4 10 -1 0 14 -6 11 -15 20 -19 20 -4 0 -12 15 -17 33 -5 17 -10 24 -10 14z"/>
 <path d="M1290 1015 c0 -2 20 -19 45 -39 25 -21 42 -31 39 -23 -3 8 -16 20 -30 27 -13 7 -24 19 -24 25 0 6 -7 12 -15 12 -8 0 -15 -1 -15 -2z"/>
 <path d="M1398 903 c55 -79 64 -195 22 -290 -10 -24 -17 -43 -15 -43 11 0 46 84 50 120 3 23 6 44 7 48 9 32 -54 192 -74 192 -5 0 -1 -12 10 -27z"/>
 <path d="M1221 791 c6 -13 9 -40 5 -60 -4 -25 -2 -31 4 -21 15 23 12 64 -6 86 -14 18 -15 18 -3 -5z"/>
 <path d="M1071 718 c-1 -9 9 -27 22 -40 12 -13 17 -17 10 -8 -7 8 -16 27 -22 40 -6 17 -10 19 -10 8z"/>
 </g>
<g id="layer118" fill="#653220" stroke="none">
 <path d="M130 1983 c1 -37 22 -110 46 -158 30 -61 72 -86 188 -110 106 -23 321 -98 347 -121 17 -16 22 -16 29 -4 6 8 10 31 10 50 0 45 28 156 86 343 5 16 -15 17 -336 17 l-340 0 6 -27 c6 -26 32 -111 48 -158 4 -11 -2 -4 -12 15 -19 33 -34 79 -47 143 -6 30 -25 37 -25 10z m190 -231 c-14 -5 -90 28 -90 39 0 4 23 -2 51 -14 28 -12 45 -23 39 -25z"/>
 <path d="M930 1977 c0 -13 7 -46 15 -73 15 -49 15 -49 -12 -71 l-27 -22 41 -40 c22 -23 46 -41 51 -41 16 0 82 60 82 73 0 6 -12 21 -26 32 -24 19 -25 24 -16 60 5 22 13 55 16 73 l6 32 -65 0 c-61 0 -65 -1 -65 -23z"/>
 <path d="M1164 1983 c56 -183 85 -300 86 -348 0 -16 4 -37 10 -45 7 -12 12 -12 29 4 26 23 241 98 347 121 116 24 158 49 188 110 27 52 53 161 42 172 -10 11 -18 -4 -27 -51 -8 -43 -49 -150 -54 -144 -2 2 7 35 20 73 12 39 26 82 29 98 l6 27 -340 0 c-321 0 -341 -1 -336 -17z m606 -192 c0 -11 -76 -44 -91 -39 -7 2 9 12 34 22 28 10 44 22 41 28 -4 7 -2 8 4 4 7 -4 12 -11 12 -15z"/>
 <path d="M933 1551 c-23 -4 -64 -21 -92 -39 -30 -18 -51 -26 -51 -19 -1 7 -9 -4 -19 -23 -9 -19 -16 -37 -15 -39 2 -2 25 14 51 36 75 63 102 73 193 73 96 0 131 -15 213 -90 58 -53 89 -69 44 -22 -14 15 -31 45 -36 67 -7 32 -9 35 -10 13 l-1 -27 -57 35 c-31 19 -64 34 -74 34 -9 0 -36 2 -60 4 -24 3 -63 1 -86 -3z"/>
 <path d="M710 1395 c-7 -9 -11 -18 -8 -20 3 -3 11 1 18 10 7 9 11 18 8 20 -3 3 -11 -1 -18 -10z"/>
 <path d="M1213 1205 c0 -22 2 -30 4 -17 2 12 2 30 0 40 -3 9 -5 -1 -4 -23z"/>
 <path d="M1453 750 c0 -25 2 -35 4 -22 2 12 2 32 0 45 -2 12 -4 2 -4 -23z"/>
 </g>
<g id="layer119" fill="#572717" stroke="none">
 <path d="M130 1983 c1 -37 22 -110 46 -158 30 -61 72 -86 188 -110 106 -23 321 -98 347 -121 17 -16 22 -16 29 -4 6 8 10 31 10 51 0 36 17 108 64 269 14 46 23 86 21 88 -25 25 -108 -216 -105 -305 1 -26 1 -59 1 -73 -1 -24 -1 -24 -15 -4 -8 12 -44 43 -80 69 -37 26 -66 50 -66 52 0 2 16 18 36 35 39 34 37 40 -18 57 l-37 12 29 80 c21 58 25 79 15 79 -8 0 -24 -31 -38 -74 -27 -82 -26 -85 28 -106 l30 -11 -35 -29 -35 -29 60 -57 c33 -31 51 -53 40 -49 -80 32 -212 75 -275 90 -122 27 -148 42 -176 98 -14 27 -30 76 -36 108 -9 54 -28 82 -28 42z"/>
 <path d="M300 1956 c-7 -26 -28 -72 -47 -103 -41 -69 -37 -82 5 -17 33 49 66 136 60 156 -3 7 -10 -9 -18 -36z"/>
 <path d="M930 1977 c0 -13 7 -46 15 -73 15 -49 15 -49 -12 -71 l-27 -22 41 -40 c22 -23 46 -41 51 -41 16 0 82 60 82 73 0 6 -12 21 -26 32 -24 19 -25 24 -16 60 5 22 13 55 16 73 l6 32 -65 0 c-61 0 -65 -1 -65 -23z"/>
 <path d="M1164 1983 c56 -182 85 -300 86 -348 0 -16 4 -37 10 -45 7 -12 12 -12 29 4 26 23 241 98 347 121 116 24 158 49 188 110 36 72 58 175 37 175 -5 0 -14 -27 -19 -59 -6 -32 -22 -81 -36 -108 -28 -56 -54 -71 -176 -98 -41 -10 -124 -35 -184 -55 l-108 -39 58 55 58 54 -34 29 -35 29 30 12 c54 21 55 25 28 106 -14 43 -30 74 -38 74 -10 0 -6 -21 15 -79 l29 -80 -37 -12 c-55 -17 -57 -24 -18 -55 20 -16 36 -32 36 -35 0 -3 -29 -28 -66 -54 -36 -26 -72 -57 -80 -69 -14 -20 -14 -20 -15 4 0 14 0 50 0 80 1 76 -67 293 -93 298 -13 3 -17 -1 -12 -15z"/>
 <path d="M1681 1988 c-1 -28 35 -117 65 -159 36 -52 43 -43 9 10 -15 22 -38 69 -51 103 -12 35 -23 55 -23 46z"/>
 <path d="M1213 1205 c0 -22 2 -30 4 -17 2 12 2 30 0 40 -3 9 -5 -1 -4 -23z"/>
 <path d="M1453 750 c0 -25 2 -35 4 -22 2 12 2 32 0 45 -2 12 -4 2 -4 -23z"/>
 </g>
<g id="layer120" fill="#313030" stroke="none">
 <path d="M130 1983 c1 -37 22 -110 46 -158 30 -61 72 -86 188 -110 105 -23 321 -98 346 -120 11 -10 23 -16 26 -13 3 4 10 39 15 80 6 40 19 100 29 133 32 98 59 199 54 204 -10 11 -23 -21 -57 -144 -23 -80 -37 -152 -37 -187 0 -54 -12 -83 -23 -55 -3 8 -29 30 -59 51 l-53 37 40 -36 40 -36 -55 22 c-30 12 -109 37 -175 56 -254 74 -226 60 -262 132 -18 35 -36 85 -39 112 -6 46 -24 70 -24 32z"/>
 <path d="M583 1985 c-21 -40 -45 -126 -39 -140 3 -8 11 -15 18 -15 10 0 10 2 1 8 -9 6 -6 25 13 76 24 66 28 112 7 71z"/>
 <path d="M930 1977 c0 -13 7 -46 15 -73 15 -49 15 -49 -12 -71 l-27 -22 41 -40 c22 -23 46 -41 51 -41 16 0 82 60 82 73 0 6 -12 21 -26 32 -24 19 -25 24 -16 60 5 22 13 55 16 73 l6 32 -65 0 c-61 0 -65 -1 -65 -23z"/>
 <path d="M1163 1986 c4 -9 13 -43 22 -75 8 -31 22 -77 31 -102 8 -24 22 -84 29 -133 8 -48 16 -91 19 -94 3 -3 15 3 26 13 25 22 241 97 346 120 116 24 158 49 188 110 36 71 58 175 37 175 -5 0 -11 -21 -15 -47 -8 -60 -58 -168 -84 -182 -11 -6 -58 -20 -104 -31 -89 -21 -200 -55 -288 -89 l-55 -22 40 36 40 36 -53 -37 c-30 -21 -56 -43 -59 -51 -11 -28 -23 1 -23 55 0 67 -70 324 -90 330 -9 3 -11 -1 -7 -12z"/>
 <path d="M1400 1991 c0 -6 11 -41 25 -78 18 -50 21 -69 12 -75 -9 -6 -9 -8 1 -8 23 0 24 29 2 95 -19 58 -40 92 -40 66z"/>
 <path d="M1710 1895 c0 -12 48 -85 56 -85 3 0 -3 12 -14 28 -10 15 -24 36 -30 47 -6 11 -12 15 -12 10z"/>
 <path d="M598 1817 l22 -13 -30 -22 c-36 -27 -38 -42 -7 -68 l22 -19 -19 23 c-19 22 -19 22 13 56 32 33 33 34 13 45 -12 6 -24 11 -29 11 -4 -1 2 -6 15 -13z"/>
 <path d="M1387 1819 c-18 -10 -17 -13 14 -45 32 -34 32 -34 13 -56 l-19 -23 23 19 c30 26 28 41 -8 68 l-30 22 22 13 c13 7 19 12 13 12 -5 0 -18 -4 -28 -10z"/>
 <path d="M1213 1205 c0 -22 2 -30 4 -17 2 12 2 30 0 40 -3 9 -5 -1 -4 -23z"/>
 <path d="M1453 750 c0 -25 2 -35 4 -22 2 12 2 32 0 45 -2 12 -4 2 -4 -23z"/>
 </g>
<g id="layer121" fill="#481b0c" stroke="none">
 <path d="M130 1983 c1 -37 22 -110 46 -158 30 -61 72 -86 188 -110 105 -23 321 -98 346 -120 11 -10 23 -16 26 -13 3 4 10 39 15 80 6 40 19 100 29 133 32 98 59 199 54 204 -10 11 -23 -21 -57 -144 -23 -80 -37 -152 -37 -187 0 -54 -12 -83 -23 -55 -3 8 -29 30 -59 51 l-53 37 40 -36 40 -36 -55 22 c-30 12 -109 37 -175 56 -254 74 -226 60 -262 132 -18 35 -36 85 -39 112 -6 46 -24 70 -24 32z"/>
 <path d="M583 1985 c-21 -40 -45 -126 -39 -140 3 -8 11 -15 18 -15 10 0 10 2 1 8 -9 6 -6 25 13 76 24 66 28 112 7 71z"/>
 <path d="M930 1982 c0 -11 7 -41 15 -68 20 -65 19 -68 -10 -84 l-24 -13 19 -27 c11 -15 31 -35 45 -44 24 -16 27 -16 55 4 17 12 35 31 41 42 9 17 7 24 -15 42 l-26 21 14 73 14 72 -64 0 c-55 0 -64 -2 -64 -18z"/>
 <path d="M1163 1986 c4 -9 13 -43 22 -75 8 -31 22 -77 31 -102 8 -24 22 -84 29 -133 8 -48 16 -91 19 -94 3 -3 15 3 26 13 25 22 241 97 346 120 116 24 158 49 188 110 36 71 58 175 37 175 -5 0 -11 -21 -15 -47 -8 -60 -58 -168 -84 -182 -11 -6 -58 -20 -104 -31 -89 -21 -200 -55 -288 -89 l-55 -22 40 36 40 36 -53 -37 c-30 -21 -56 -43 -59 -51 -11 -28 -23 1 -23 55 0 67 -70 324 -90 330 -9 3 -11 -1 -7 -12z"/>
 <path d="M1400 1991 c0 -6 11 -41 25 -78 18 -50 21 -69 12 -75 -9 -6 -9 -8 1 -8 23 0 24 29 2 95 -19 58 -40 92 -40 66z"/>
 <path d="M1710 1895 c0 -12 48 -85 56 -85 3 0 -3 12 -14 28 -10 15 -24 36 -30 47 -6 11 -12 15 -12 10z"/>
 <path d="M598 1817 l22 -13 -30 -22 c-36 -27 -38 -42 -7 -68 l22 -19 -19 23 c-19 22 -19 22 13 56 32 33 33 34 13 45 -12 6 -24 11 -29 11 -4 -1 2 -6 15 -13z"/>
 <path d="M1387 1819 c-18 -10 -17 -13 14 -45 32 -34 32 -34 13 -56 l-19 -23 23 19 c30 26 28 41 -8 68 l-30 22 22 13 c13 7 19 12 13 12 -5 0 -18 -4 -28 -10z"/>
 </g>
<g id="layer122" fill="#391102" stroke="none">
 <path d="M138 1981 c-4 -13 -2 -33 3 -43 6 -11 8 -22 6 -25 -3 -2 1 -16 8 -30 8 -15 12 -30 9 -35 -3 -4 0 -8 6 -8 6 0 9 -3 7 -7 -3 -5 4 -17 15 -28 16 -16 15 -11 -6 36 -14 30 -29 79 -34 109 -6 44 -9 50 -14 31z"/>
 <path d="M577 1956 c-23 -68 -21 -82 3 -21 11 28 19 54 17 60 -2 5 -11 -12 -20 -39z"/>
 <path d="M786 1868 c-22 -75 -40 -162 -42 -198 l-3 -65 9 68 c6 37 20 96 31 130 12 34 27 85 34 112 7 28 16 58 20 68 4 9 3 17 -2 17 -5 0 -26 -60 -47 -132z"/>
 <path d="M930 1982 c0 -11 7 -41 15 -68 20 -65 19 -68 -10 -84 l-24 -13 19 -27 c11 -15 31 -35 45 -44 24 -16 27 -16 55 4 17 12 35 31 41 42 9 17 7 24 -15 42 l-26 21 14 73 14 72 -64 0 c-55 0 -64 -2 -64 -18z"/>
 <path d="M1165 1983 c4 -10 13 -40 20 -68 7 -27 22 -78 34 -112 11 -34 25 -93 31 -130 l9 -68 -3 65 c-4 69 -74 330 -89 330 -5 0 -6 -8 -2 -17z"/>
 <path d="M1401 1995 c-1 -5 8 -32 19 -60 12 -27 18 -37 15 -21 -7 34 -33 96 -34 81z"/>
 <path d="M1851 1974 c-1 -46 -28 -127 -56 -169 -14 -20 -24 -40 -20 -43 3 -3 5 0 5 7 0 7 5 9 12 5 6 -4 8 -3 5 3 -4 5 2 19 13 30 10 12 16 24 13 27 -4 3 -1 6 6 6 7 0 10 4 7 8 -3 5 1 20 9 35 7 14 11 28 8 30 -2 3 0 14 6 25 7 13 8 29 2 44 -9 22 -10 21 -10 -8z"/>
 <path d="M594 1778 l-29 -33 33 29 c17 17 32 31 32 33 0 8 -8 1 -36 -29z"/>
 <path d="M1370 1807 c0 -2 15 -16 33 -33 l32 -29 -29 33 c-28 30 -36 37 -36 29z"/>
 <path d="M255 1750 c13 -12 38 -22 65 -24 25 -2 45 -5 45 -6 0 -1 16 -3 35 -5 l35 -3 -40 13 c-22 7 -50 14 -63 14 -12 1 -39 8 -60 16 l-37 16 20 -21z"/>
 <path d="M1725 1755 c-16 -8 -41 -15 -55 -15 -14 -1 -43 -8 -65 -15 l-40 -13 35 3 c19 2 35 4 35 5 0 1 20 4 45 6 27 2 52 12 64 24 23 23 22 23 -19 5z"/>
 <path d="M1470 1685 c-83 -29 -159 -63 -143 -64 11 -1 61 17 128 44 11 5 22 9 25 10 3 1 16 6 30 12 14 6 32 13 40 16 13 5 13 5 0 5 -8 0 -44 -10 -80 -23z"/>
 <path d="M490 1689 c14 -7 27 -13 30 -14 3 -1 19 -7 35 -14 78 -31 116 -43 120 -39 6 6 -138 64 -180 72 -29 6 -30 6 -5 -5z"/>
 <path d="M690 1624 c0 -6 9 -19 19 -28 15 -14 21 -15 27 -4 4 7 4 10 -1 6 -4 -4 -16 3 -26 15 -10 12 -18 17 -19 11z"/>
 <path d="M1284 1605 c-4 -8 -11 -12 -17 -8 -6 4 -7 1 -3 -6 6 -9 13 -8 27 5 22 20 23 24 9 24 -6 0 -13 -7 -16 -15z"/>
 </g>
<g id="layer123" fill="#0e0d0d" stroke="none">
 <path d="M930 1982 c0 -11 7 -41 15 -68 20 -65 19 -68 -10 -84 l-24 -13 19 -27 c11 -15 31 -35 45 -44 24 -16 27 -16 55 4 17 12 35 31 41 42 9 17 7 24 -15 42 l-26 21 14 73 14 72 -64 0 c-55 0 -64 -2 -64 -18z"/>
 </g>

</svg>