<?xml version="1.0" encoding="UTF-8" standalone="no"?>
<!-- Created with Inkscape (http://www.inkscape.org/) -->

<svg
   xmlns:dc="http://purl.org/dc/elements/1.1/"
   xmlns:cc="http://creativecommons.org/ns#"
   xmlns:rdf="http://www.w3.org/1999/02/22-rdf-syntax-ns#"
   xmlns:svg="http://www.w3.org/2000/svg"
   xmlns="http://www.w3.org/2000/svg"
   xmlns:sodipodi="http://sodipodi.sourceforge.net/DTD/sodipodi-0.dtd"
   xmlns:inkscape="http://www.inkscape.org/namespaces/inkscape"
   version="1.1"
   id="svg5537"
   width="266.66666"
   height="266.66666"
   viewBox="0 0 266.66666 266.66666"
   sodipodi:docname="Admin4smirk.svg"
   inkscape:version="0.92.2 (5c3e80d, 2017-08-06)">
  <metadata
     id="metadata5543">
    <rdf:RDF>
      <cc:Work
         rdf:about="">
        <dc:format>image/svg+xml</dc:format>
        <dc:type
           rdf:resource="http://purl.org/dc/dcmitype/StillImage" />
        <dc:title></dc:title>
      </cc:Work>
    </rdf:RDF>
  </metadata>
  <defs
     id="defs5541" />
  <sodipodi:namedview
     pagecolor="#ffffff"
     bordercolor="#666666"
     borderopacity="1"
     objecttolerance="10"
     gridtolerance="10"
     guidetolerance="10"
     inkscape:pageopacity="0"
     inkscape:pageshadow="2"
     inkscape:window-width="640"
     inkscape:window-height="480"
     id="namedview5539"
     showgrid="false"
     inkscape:zoom="0.88500003"
     inkscape:cx="133.33333"
     inkscape:cy="133.33333"
     inkscape:window-x="0"
     inkscape:window-y="0"
     inkscape:window-maximized="0"
     inkscape:current-layer="svg5537" />
  <path
     inkscape:connector-curvature="0"
     id="path5567"
     d="M 0.8700568,134.46327 V 1.1299417 H 134.20339 267.53672 V 134.46327 267.7966 H 134.20339 0.8700568 Z"
     style="fill:#fefefe;stroke-width:1.33333325" />
  <path
     inkscape:connector-curvature="0"
     id="path5565"
     d="m 24.155678,262.7966 c 0.50365,-2.75 2.446886,-8.4378 4.318301,-12.63955 4.083445,-9.16826 9.94704,-13.13381 23.062743,-15.59734 12.396788,-2.3285 44.359009,-13.21562 46.338329,-15.78398 2.614919,-3.39312 4.675479,-0.18592 5.753249,8.9548 0.51775,4.39103 2.60612,13.41071 4.64083,20.04372 l 3.69948,12.06002 3.20254,-5.6855 c 1.7614,-3.12702 5.93703,-8.48004 9.27919,-11.89557 l 6.07664,-6.21007 -10.04565,-5.51337 c -5.52511,-3.03236 -10.61969,-6.23783 -11.32128,-7.12327 -1.28309,-1.61932 -2.56145,-7.37561 -3.69096,-16.61994 -0.36839,-3.01511 -1.79487,-5.95625 -3.60436,-7.43159 -11.288503,-9.2038 -15.72346,-14.70504 -17.75309,-22.0214 -1.149953,-4.14533 -2.330914,-8.28696 -2.624358,-9.20362 -0.293444,-0.91667 -1.638226,-1.66667 -2.988403,-1.66667 -1.5981,0 -5.19933,-4.07176 -10.318476,-11.66667 -7.476897,-11.09293 -7.889611,-12.13522 -8.392371,-21.1946 -0.473423,-8.53072 -0.210067,-9.84664 2.516227,-12.57293 2.687166,-2.68717 3.084579,-4.54451 3.381859,-15.8054 0.577828,-21.887877 7.134495,-37.254199 20.094054,-47.092781 4.106017,-3.117188 8.730975,-6.641107 10.277684,-7.830932 6.535984,-5.027877 19.462274,-10.521576 28.313634,-12.033347 11.72345,-2.002308 24.39142,-0.09639 36.03305,5.421255 9.75473,4.623328 27.18197,18.374075 31.76097,25.060589 5.62135,8.208625 9.03173,21.607959 9.2122,36.194476 0.14373,11.61838 0.44732,13.08722 3.15901,15.28378 2.61457,2.1179 3,3.67899 3,12.151 0,9.66676 -0.0451,9.78873 -8.09362,21.90323 -5.29366,7.96789 -8.93775,12.18233 -10.53367,12.18233 -1.85056,0 -2.82841,1.69115 -4.04749,7 -2.1653,9.4294 -6.5055,15.79139 -15.3059,22.43575 l -7.35265,5.5513 v 8.40417 c 0,10.63787 -3.18561,14.82222 -16.31997,21.43658 l -9.29091,4.67882 5.13877,4.42563 c 2.82632,2.43409 6.93878,7.4832 9.13878,11.22023 2.2,3.73702 4.3298,6.8065 4.73289,6.82106 2.29601,0.0829 11.31744,-40.26733 9.66061,-43.20918 -0.44326,-0.78707 0.93686,0.18549 3.06695,2.16122 4.21883,3.91314 29.31131,13.074 45.20621,16.50407 15.46613,3.33753 21.19917,6.74605 25.25799,15.01685 1.91989,3.91226 3.85381,9.76226 4.2976,13 l 0.80688,5.88683 h -45.00341 -45.0034 l 0.73549,-2.81256 c 0.48401,-1.85087 -0.91343,-5.45047 -4.08693,-10.52733 l -4.82244,-7.71478 -3.56904,2.63871 c -3.54334,2.61971 -3.55719,2.69548 -1.92283,10.52733 l 1.6462,7.88863 h -9.12621 c -6.67582,0 -8.99342,-0.44749 -8.63167,-1.66667 3.64787,-12.294 3.81375,-14.41894 1.27558,-16.34042 -1.38626,-1.04946 -2.8437,-1.92718 -3.23876,-1.95051 -1.48604,-0.0877 -9.28171,14.20931 -9.28171,17.0224 v 2.9352 H 68.055001 23.239947 Z M 140.95586,189.53383 c 3.95717,-2.33757 6.20516,-5.73723 3.79366,-5.73723 -0.7536,0 -0.98449,-0.62405 -0.5131,-1.38677 0.55778,-0.90252 -0.37082,-1.0786 -2.65924,-0.50424 -1.93398,0.4854 -6.72556,0.95945 -10.64796,1.05344 -8.56033,0.20515 -8.4714,2.17091 0.0982,2.17091 4.07419,0 5.70499,0.47732 5.08089,1.48714 -0.55679,0.90091 -3.20635,1.22935 -6.72114,0.83319 -5.98077,-0.67412 -6.69061,0.87949 -1.38069,3.02192 4.51536,1.82184 8.80263,1.51117 12.94936,-0.93836 z m -40.75247,-60.40389 c 0,-5.80004 -0.19722,-5.95275 -5.221069,-4.04269 -4.10461,1.56057 -3.401333,4.58431 1.712499,7.36289 1.929712,1.0485 3.50857,1.93039 3.50857,1.95975 0,0.0294 0,-2.34662 0,-5.27995 z m 19.25989,3.18455 c 0.32929,-0.32928 -1.01949,-2.21688 -2.99726,-4.19465 -3.44876,-3.44876 -3.59596,-3.47886 -3.59596,-0.73532 0,1.57336 -0.39866,3.89953 -0.8859,5.16927 -0.76019,1.98103 -0.33488,2.17032 2.99726,1.334 2.13575,-0.53603 4.15258,-1.24402 4.48186,-1.5733 z m 36.07934,0.15588 c -0.90968,-1.09609 -1.33932,-3.19609 -0.95475,-4.66667 0.89868,-3.43656 -0.12947,-3.37814 -3.96521,0.22532 -3.86224,3.6284 -3.87999,4.76251 -0.0859,5.49327 6.25969,1.20567 6.78748,1.09477 5.00589,-1.05192 z m 18.02253,-2.4523 c 2.13271,-3.04487 1.53404,-4.11595 -3.08053,-5.51133 -2.75658,-0.83355 -2.9681,-0.58817 -2.18444,2.53412 0.49457,1.97056 0.19756,4.26446 -0.69076,5.33483 -1.274,1.53507 -1.05039,1.74492 1.22522,1.14984 1.53102,-0.40037 3.65974,-1.97873 4.73051,-3.50746 z"
     style="fill:#ebccc6;stroke-width:1.33333325" />
  <path
     inkscape:connector-curvature="0"
     id="path5563"
     d="m 23.536723,266.70527 c 0,-2.7637 4.529623,-16.06468 6.954687,-20.42207 3.163914,-5.68496 10.365275,-9.34216 24.378646,-12.38065 13.90159,-3.01426 41.092221,-12.55068 43.004995,-15.08292 2.665749,-3.52907 4.492739,-0.3276 5.621579,9.85085 0.55668,5.01937 2.89343,14.98329 5.19278,22.14207 2.29936,7.15876 4.18065,13.90876 4.18065,15 0,1.71702 -6.01138,1.98405 -44.666671,1.98405 -24.566666,0 -44.666666,-0.49109 -44.666666,-1.09133 z m 101.333337,-1.75398 c 0,-1.56492 0.6894,-5.14634 1.53201,-7.95872 1.40257,-4.68136 1.27491,-5.32162 -1.51082,-7.57737 -2.55239,-2.0668 -2.80069,-2.91643 -1.54045,-5.2712 1.98172,-3.70288 7.97465,-8.3474 10.77085,-8.3474 2.10257,0 10.74841,7.78336 10.74841,9.67619 0,0.48541 -1.47439,2.25684 -3.27643,3.93652 -2.94228,2.74252 -3.14949,3.59785 -2.0318,8.38729 2.30352,9.87089 2.21712,10 -6.69177,10 -7.27854,0 -8,-0.2566 -8,-2.84531 z m 30.1658,-0.82136 c 0.48578,-2.01666 2.56332,-9.1803 4.61672,-15.9192 2.05338,-6.73889 4.13654,-15.81542 4.62921,-20.17008 1.22657,-10.8415 2.03769,-11.8626 6.76375,-8.51473 4.69102,3.32304 32.44385,12.75716 45.15785,15.35068 13.02166,2.65627 18.47989,6.24317 22.73509,14.94048 1.92296,3.93041 3.82324,9.58369 4.22283,12.56285 l 0.72653,5.41667 h -44.86762 -44.86763 z m -38.1658,-38.41202 c 0,-1.14328 0.6,-1.70787 1.33333,-1.25464 0.73333,0.45322 1.33333,1.38864 1.33333,2.07869 0,0.69005 -0.6,1.25464 -1.33333,1.25464 -0.73333,0 -1.33333,-0.93541 -1.33333,-2.07869 z m 12.66666,-2.54374 c -0.73333,-0.27089 -3.49708,-0.85266 -6.14167,-1.29284 -2.64458,-0.44017 -7.59458,-2.64585 -11,-4.9015 -5.61276,-3.71775 -6.19166,-4.58891 -6.19166,-9.3177 0,-4.02401 -0.81657,-5.90028 -3.57208,-8.20767 -14.553958,-12.18719 -17.716586,-16.64839 -19.79018,-27.91606 -0.663656,-3.60622 -1.65203,-5.03422 -3.691383,-5.33333 -2.932124,-0.43004 -12.280884,-12.45661 -16.900812,-21.7418 -1.459506,-2.93333 -2.663478,-7.43333 -2.675494,-10 -0.03226,-6.89011 2.455865,-14.66667 4.69262,-14.66667 1.555188,0 1.937328,-2.44326 1.937328,-12.38653 0,-18.956622 4.986246,-34.658706 13.874281,-43.691207 13.066318,-13.278697 30.69617,-23.070623 45.55892,-25.304221 18.1012,-2.720278 34.60539,2.973083 54.19735,18.69616 8.44333,6.776014 11.68162,10.392493 14.72789,16.44789 4.70805,9.358752 8.1917,27.909818 7.24318,38.571248 -0.52797,5.93448 -0.26937,7.66666 1.14456,7.66666 2.99744,0 4.58715,4.65281 4.58715,13.42576 0,7.90063 -0.36664,8.82215 -8.25753,20.75432 -5.25028,7.9392 -9.11617,12.48659 -10.61527,12.48659 -1.65526,0 -2.79396,1.68835 -3.82184,5.66667 -2.53504,9.81177 -2.94785,10.85948 -5.79744,14.71373 -1.53109,2.07093 -5.94673,6.20551 -9.81253,9.18795 -6.95184,5.36329 -7.02872,5.50169 -7.02872,12.65225 0,5.08348 -0.49476,7.12462 -1.66667,6.87589 -0.91666,-0.19456 -4.96666,1.23557 -9,3.17808 -6.69032,3.22212 -18.72003,5.64793 -22,4.43633 z m 16.31154,-15.81234 c 5.20824,-1.89076 22.66021,-15.36596 29.02517,-22.4112 2.52759,-2.79775 4.96045,-6.75192 5.40637,-8.78708 0.44592,-2.03515 2.58052,-10.85289 4.74355,-19.59499 3.02207,-12.21389 3.55107,-16.13062 2.28437,-16.91349 -1.29026,-0.79743 -1.13156,-3.57248 0.73046,-12.77196 2.08464,-10.29938 2.196,-13.81474 0.90033,-28.419837 -1.83527,-20.687528 -3.42876,-28.909265 -6.62019,-34.157139 -2.83758,-4.666039 -11.97912,-12.425616 -18.60405,-15.791621 l -4.48912,-2.280837 -3.78492,4.591766 c -5.21965,6.332356 -16.00612,10.83565 -23.49526,9.809151 -7.74693,-1.061835 -15.43061,-5.169086 -19.57369,-10.462968 l -3.41657,-4.365565 -6.09851,3.328607 c -3.35418,1.830734 -8.708211,5.728607 -11.897845,8.66194 -7.611009,6.999429 -9.735157,14.328265 -11.638696,40.156379 -1.297388,17.603564 -1.20424,21.401974 0.735473,29.991284 1.905696,8.43868 1.953411,10.03059 0.336098,11.21319 -1.592444,1.16442 -1.112232,4.41261 3.094946,20.93444 2.73892,10.75589 5.952164,21.04009 7.140543,22.85378 2.955198,4.5102 25.974021,22.79248 30.910001,24.54972 5.31952,1.89376 18.93314,1.81897 24.31154,-0.13357 z m -17.64487,-14.77619 c -3.13849,-1.39133 -14.00527,-10.59273 -13.99857,-11.85322 7.9e-4,-0.14803 6.55139,-0.26915 14.55688,-0.26915 13.06056,0 14.97754,-0.31221 18.66524,-3.03992 4.83853,-3.57896 5.11074,-2.3938 1.30821,5.69575 -2.86592,6.09697 -9.43559,11.38738 -14.02247,11.29198 -1.38011,-0.0287 -4.30929,-0.85016 -6.50929,-1.82544 z m 11.16332,-1.36778 c 2.03367,-1.05166 4.51528,-2.89739 5.51472,-4.10163 1.53901,-1.85439 1.52415,-2.37495 -0.0971,-3.40083 -1.3292,-0.84108 -1.40486,-1.21753 -0.2476,-1.23172 0.91667,-0.0107 1.66667,-0.60556 1.66667,-1.32074 0,-0.84488 -1.19791,-0.84488 -3.42013,0 -1.88107,0.71518 -7.31648,1.30033 -12.07869,1.30033 -5.43285,0 -8.35156,0.49673 -7.83451,1.33333 0.45322,0.73334 3.63863,1.35158 7.07869,1.37388 4.9826,0.0323 5.76975,0.32274 3.87038,1.42808 -1.31135,0.76316 -4.16135,0.99724 -6.33333,0.52019 -5.25364,-1.15389 -5.03008,0.98939 0.38426,3.68401 5.47184,2.72324 6.93128,2.77594 11.49665,0.4151 z m -11.49482,-23.34452 c -4.88865,-4.07835 -5.50395,-7.707 -2.78704,-16.43643 1.34853,-4.33284 2.45187,-9.35984 2.45187,-11.17112 0,-1.87331 0.57947,-2.93511 1.34395,-2.46263 0.73918,0.45684 1.04043,2.44224 0.66947,4.41203 -0.37097,1.96977 -1.05368,7.54281 -1.51712,12.38452 -0.77953,8.14385 -0.61452,8.96288 2.20334,10.93659 2.27709,1.59493 3.75123,1.79392 5.83984,0.78828 2.45628,-1.18267 2.41354,-1.01391 -0.35385,1.39674 -3.79948,3.3097 -4.05937,3.31472 -7.85046,0.15202 z m -20.33517,-30.14262 c -1.1,-0.23277 -4.28346,-0.79662 -7.07437,-1.25304 -2.790901,-0.4564 -6.240901,-1.99634 -7.666665,-3.42211 -3.446396,-3.4464 -3.395642,-8.82429 0.09373,-9.93178 1.477314,-0.46888 2.360641,-1.379 1.962946,-2.02248 -0.397694,-0.64348 1.543594,-1.54024 4.313972,-1.99279 9.124747,-1.49056 9.151497,-1.8522 0.11252,-1.52158 -6.657522,0.24351 -9.660452,0.98899 -11.82163,2.93472 -2.878064,2.59114 -2.893892,2.59075 -2.408803,-0.0584 0.739027,-4.03594 8.494692,-7.06334 21.82164,-8.518 6.6,-0.72041 13.35,-1.71855 15,-2.21809 2.22932,-0.67494 3,-0.36658 3,1.20034 0,2.49963 -3.92527,4.84556 -8.24568,4.92801 -2.60719,0.0498 -2.30086,0.47416 1.96859,2.72738 14.60089,7.70566 5.9198,22.74004 -11.05625,19.14781 z m -6.6603,-5.25979 c -0.909428,-1.09578 -1.366099,-3.49578 -1.014829,-5.33333 0.703159,-3.67833 -1.280968,-4.35029 -5.762808,-1.95168 -2.114844,1.13183 -2.329556,1.8871 -1.158516,4.07521 0.790594,1.47724 2.748222,3.21402 4.350284,3.8595 4.363389,1.75805 5.424549,1.56579 3.585869,-0.6497 z m 19.12342,1.08478 c 0.92968,-0.92968 -5.52429,-8.42577 -7.25441,-8.42577 -0.52748,0 -0.64441,1.20319 -0.25985,2.67376 0.38457,1.47058 -0.0451,3.57058 -0.95475,4.66667 -1.4133,1.70292 -0.98352,1.9929 2.95375,1.9929 2.53423,0 5.0161,-0.4084 5.51526,-0.90756 z m -10.88534,-8.71466 c -0.95675,-0.95675 -1.57778,-1.03547 -1.57778,-0.2 0,1.77971 1.57682,3.35652 2.46667,2.46666 0.37889,-0.37888 -0.0211,-1.39888 -0.88889,-2.26666 z m 37.45801,11.05619 c -8.19928,-5.12191 -6.94907,-13.11955 2.73845,-17.51804 5.55035,-2.52006 5.5526,-2.52408 1.43242,-2.55331 -3.92888,-0.0279 -9.87986,-4.4672 -8.21718,-6.12987 0.413,-0.413 3.05932,-0.12918 5.88071,0.63071 2.8214,0.7599 9.69167,1.74442 15.26727,2.18782 10.90838,0.86751 18.52921,4.23346 18.52921,8.18396 0,2.01816 -0.20899,1.98864 -1.85464,-0.26193 -1.48825,-2.03531 -3.79303,-2.5983 -11.66667,-2.8498 -8.87169,-0.28339 -9.21744,-0.20488 -3.60768,0.81922 3.4124,0.62295 7.5124,2.44068 9.11112,4.0394 3.37307,3.37306 2.78139,4.8771 -1.10118,2.79922 -4.65928,-2.49358 -12.41811,-0.71279 -8.21428,1.88532 0.73333,0.45322 1.33333,0.0686 1.33333,-0.85465 0,-1.28408 0.36761,-1.31107 1.56383,-0.11485 1.15942,1.15941 1.1845,2.39637 0.0971,4.78314 -1.30752,2.8697 -1.18333,3.14517 1.14363,2.53666 1.43573,-0.37546 3.47828,-1.92167 4.53897,-3.43603 2.37474,-3.39041 4.07947,-2.15204 2.10815,1.53142 -1.67015,3.12068 -7.19471,5.08506 -17.4516,6.20528 -5.96892,0.6519 -8.13292,0.30143 -11.63088,-1.88366 z m 8.943,-4.14027 c -1.00036,-1.86918 -0.96939,-3.44274 0.10733,-5.4546 1.76499,-3.2979 -0.0457,-2.61259 -5.0861,1.92501 -4.26795,3.84219 -3.72048,5.77672 1.69236,5.98021 4.27544,0.16073 4.56745,-0.057 3.28642,-2.45062 z m -76.327298,27.37297 c -0.787732,-2.56667 -1.99522,-4.66667 -2.683305,-4.66667 -0.688085,0 -2.430965,-1.5 -3.873065,-3.33333 -1.4421,-1.83334 -3.296152,-3.33334 -4.120116,-3.33334 -0.823964,0 0.430135,1.98946 2.786885,4.421 2.356751,2.43155 3.925839,4.78016 3.486863,5.21914 -1.249899,1.2499 1.969361,6.35986 4.006692,6.35986 1.47339,0 1.550269,-0.90586 0.396046,-4.66666 z m 112.584868,1.66666 c 0.91494,-1.65 1.50592,-3.54036 1.31331,-4.2008 -0.19261,-0.66044 1.62992,-3.33432 4.05007,-5.94196 2.42014,-2.60762 3.20081,-3.86726 1.7348,-2.7992 -5.59668,4.07754 -9.58067,8.75158 -10.46592,12.27872 -1.11852,4.45655 1.02974,4.87962 3.36774,0.66324 z m 0.67446,-14.58333 c -0.42563,-1.06364 -0.74158,-0.74771 -0.80555,0.80556 -0.0579,1.40555 0.25723,2.19305 0.70029,1.75 0.44306,-0.44307 0.49042,-1.59307 0.1052,-2.55556 z m 2.67496,-4.75 c -0.33538,-1.28333 -0.60978,-0.23333 -0.60978,2.33333 0,2.56667 0.2744,3.61667 0.60978,2.33334 0.33536,-1.28334 0.33536,-3.38334 0,-4.66667 z m -128.564613,1.814 c -0.334973,-1.75231 0.429504,-4.77103 1.69884,-6.70828 1.269336,-1.93725 1.970851,-3.85931 1.558922,-4.27124 -1.030988,-1.03099 -4.945594,6.78707 -4.945594,9.87708 0,2.10555 1.037036,4.28844 2.037327,4.28844 0.142752,0 -0.01452,-1.43371 -0.349495,-3.186 z m 5.861876,-1.14733 c -0.369884,-0.91667 -0.672514,-0.16667 -0.672514,1.66666 0,1.83334 0.30263,2.58334 0.672514,1.66667 0.369883,-0.91667 0.369883,-2.41667 0,-3.33333 z m 128.406617,-5.10547 c -0.88726,-2.14199 -2.1744,-3.89453 -2.86035,-3.89453 -0.68596,0 -0.31316,1.3335 0.82843,2.96334 1.14157,1.62983 2.14519,4.47983 2.23026,6.33334 0.11187,2.4377 0.32897,2.6953 0.78475,0.93118 0.34653,-1.34133 -0.0959,-4.19133 -0.98309,-6.33333 z m -133.851979,-8.9013 c -1.091203,-1.0912 -1.608078,-0.22429 -2.587694,4.3401 l -0.858485,4 2.108595,-3.78454 c 1.159728,-2.0815 1.76164,-4.1315 1.337584,-4.55556 z m 136.541909,5.3401 c -0.0252,-2.88751 -2.22122,-6.53615 -3.29035,-5.46702 -0.7339,0.73391 1.85529,7.80035 2.85812,7.80035 0.24895,0 0.44345,-1.05 0.43223,-2.33333 z M 66.870055,123.7966 c -0.453225,-0.73333 -1.538634,-1.32414 -2.412022,-1.31291 -0.954155,0.0123 -0.7897,0.5363 0.412022,1.31291 2.561498,1.65537 3.023074,1.65537 2,0 z m 135.999995,0 c 0.45323,-0.73333 0.18864,-1.33333 -0.58797,-1.33333 -0.77661,0 -1.41203,0.6 -1.41203,1.33333 0,0.73334 0.26459,1.33334 0.58798,1.33334 0.32338,0 0.9588,-0.6 1.41202,-1.33334 z"
     style="fill:#e6c3ba;stroke-width:1.33333325" />
  <path
     inkscape:connector-curvature="0"
     id="path5561"
     d="m 23.989612,265.46327 c 0.347926,-1.28334 1.016936,-4.13334 1.486692,-6.33334 0.469758,-2.2 2.354536,-7 4.1884,-10.66666 3.806644,-7.6111 10.028221,-11.27183 23.872018,-14.04618 12.544103,-2.51389 42.487474,-13.0004 44.338329,-15.5278 2.618939,-3.57624 4.189359,-0.68866 5.605009,10.30607 0.70353,5.46401 2.7131,14.13457 4.4657,19.26791 1.75261,5.13333 3.60474,11.58333 4.11585,14.33333 l 0.92928,5 H 68.173955 c -42.034891,0 -44.777664,-0.14484 -44.184343,-2.33333 z m 100.880448,0.25709 c 0,-1.14193 0.69105,-4.82067 1.53567,-8.17497 1.43463,-5.6974 1.33608,-6.24928 -1.49755,-8.3867 -2.9202,-2.20272 -2.94913,-2.41633 -0.77637,-5.73238 2.5145,-3.83763 7.69827,-7.62971 10.42978,-7.62971 0.98195,0 3.81801,2.09717 6.30239,4.66039 l 4.51702,4.66038 -3.52268,3.6769 c -3.18022,3.31944 -3.40258,4.19497 -2.28728,9.00626 2.28859,9.87276 2.20592,9.99607 -6.70098,9.99607 -6.35279,0 -8,-0.42751 -8,-2.07624 z m 29.82193,-0.25709 c 0.36757,-1.28334 2.46177,-8.33334 4.65377,-15.66667 2.19202,-7.33333 4.60307,-17.45469 5.35791,-22.49191 0.75483,-5.03721 1.70343,-9.48958 2.108,-9.89414 0.40456,-0.40456 2.0832,0.46964 3.73031,1.94268 3.42444,3.06252 26.75656,11.08961 44.00901,15.14066 6.42452,1.50855 13.75324,3.96551 16.28605,5.4599 5.22988,3.0857 10.77009,13.18718 12.16264,22.17614 l 0.87787,5.66667 h -44.92693 c -42.15326,0 -44.88567,-0.14405 -44.25863,-2.33333 z m -31.12672,-44.46192 c -3.2843,-0.64336 -8.3843,-2.91286 -11.33333,-5.0433 -4.50451,-3.25416 -5.42619,-4.7237 -5.76404,-9.19033 -0.35803,-4.7334 -1.27628,-5.9956 -8.368865,-11.50348 -9.341358,-7.25422 -12.220019,-11.52197 -14.428639,-21.39113 -1.285716,-5.74517 -2.210621,-7.33068 -4.4688,-7.66055 -1.867876,-0.27285 -5.625746,-4.50302 -10.922869,-12.29569 -8.032555,-11.8168 -8.07477,-11.92913 -7.968039,-21.20469 0.09072,-7.88381 0.554357,-9.68696 2.999999,-11.66732 2.546104,-2.06171 2.895063,-3.6747 2.91241,-13.46198 0.03066,-17.29812 5.142325,-34.321233 12.94787,-43.119606 4.300021,-4.846963 22.230603,-17.447356 30.365753,-21.338988 6.50473,-3.111682 10.26921,-3.933074 20.1407,-4.394609 17.8435,-0.834261 32.75434,4.104353 46.3613,15.355316 3.35575,2.774721 7.89007,6.419425 10.07626,8.099342 8.96045,6.885443 17.29638,33.584717 15.59379,49.945605 -0.65557,6.29956 -0.43896,7.66666 1.21472,7.66666 2.73824,0 4.61323,5.48135 4.61323,13.48635 0,7.17713 -2.21349,12.53041 -8.19417,19.81744 -2.0932,2.55043 -3.80583,5.29584 -3.80583,6.10092 0,1.87891 -5.70029,7.26196 -7.68993,7.26196 -1.36512,0 -4.28392,7.77829 -4.30263,11.46603 -0.0156,3.0625 -7.61578,12.53402 -14.34077,17.87161 -6.72065,5.33416 -7,5.81425 -7,12.03042 0,3.561 -0.6,6.84538 -1.33333,7.2986 -0.73334,0.45323 -1.33334,0.18012 -1.33334,-0.60689 0,-0.78701 -2.25,0.0481 -5,1.85583 -8.37322,5.50416 -18.64466,7.03717 -30.97145,4.62248 z m 21.53624,-12.34039 c 5.91351,-1.77971 23.71228,-14.38704 30.70169,-21.74682 2.75744,-2.90355 4.75146,-8.158 8.52112,-22.45406 6.48711,-24.60162 6.70342,-25.99681 4.0304,-25.99681 -2.65118,0 -2.65213,-0.35591 -0.0311,-11.58393 1.5777,-6.7584 1.8992,-12.32423 1.2563,-21.7494 -1.39841,-20.501255 -3.36936,-34.785032 -5.32038,-38.557917 -2.50382,-4.841825 -14.22736,-15.597674 -20.00303,-18.351896 l -4.75243,-2.26627 -4.98372,4.856273 c -12.50874,12.188882 -30.71885,11.826734 -41.14187,-0.818199 l -3.96949,-4.815738 -5.55016,2.976874 c -8.98522,4.81929 -17.81143,12.985405 -20.371848,18.848275 -1.311926,3.004062 -2.768285,9.661931 -3.236353,14.795265 -0.468069,5.133333 -1.471797,14.733333 -2.230508,21.333333 -1.13352,9.86044 -1.002432,13.61942 0.735224,21.08273 2.633433,11.31073 2.657096,14.2506 0.1147,14.2506 -2.590596,0 -2.579327,0.11693 1.300327,13.49925 1.815178,6.26118 4.243041,15.44887 5.395249,20.4171 1.152209,4.96822 3.04827,10.48813 4.21347,12.26645 2.126543,3.24551 21.506639,18.82856 27.217539,21.88494 7.83896,4.19528 18.54606,5.00674 28.10487,2.12995 z m -1.56479,-20.19769 c 1.72234,-1.83333 3.43151,-3.33333 3.79818,-3.33333 0.36666,0 -0.74251,1.5 -2.46484,3.33333 -1.72234,1.83333 -3.43151,3.33333 -3.79818,3.33333 -0.36666,0 0.74251,-1.5 2.46484,-3.33333 z m -23.41175,-2.33333 c -3.14972,-3.74063 -3.33453,-4.39495 -1.35118,-4.78383 1.26369,-0.24776 3.00232,0.47163 3.86361,1.59865 0.8613,1.12702 3.96599,2.27888 6.89932,2.55968 l 5.33334,0.51055 -5.80932,0.22415 c -4.56355,0.17606 -5.64474,0.65302 -5.04185,2.22413 1.17325,3.05743 0.10756,2.41885 -3.89392,-2.33333 z m 24.41175,-3.21638 c 0.91667,-0.36988 1.66667,-1.5014 1.66667,-2.51449 0,-1.01309 1.2,-2.4842 2.66667,-3.26913 3.09588,-1.65687 3.21106,-1.32031 1.1193,3.2706 -0.97354,2.13672 -2.58046,3.35702 -4.33333,3.2908 -1.53228,-0.0579 -2.03597,-0.4079 -1.11931,-0.77778 z M 127.04987,166.3665 c -4.19639,-3.30088 -4.32856,-6.00251 -0.81066,-16.5699 l 2.66321,-8 -0.9576,7.33334 c -0.52668,4.03333 -0.91508,9.08206 -0.8631,11.21941 0.106,4.35925 3.88923,7.89487 7.45684,6.96877 1.28435,-0.33338 1.99894,-0.0621 1.58798,0.60283 -1.26692,2.04992 -5.39272,1.34335 -9.07667,-1.55445 z M 99.709275,135.79308 c -4.732935,-1.11504 -10.650331,-5.96314 -9.131818,-7.48166 0.490923,-0.49092 1.95759,0.34028 3.259259,1.8471 1.301669,1.50683 3.861967,3.17838 5.689549,3.71455 2.962235,0.86905 3.126965,0.7388 1.517785,-1.20016 -1.084905,-1.30722 -1.469579,-3.51186 -0.96415,-5.52566 0.94094,-3.74899 -1.316128,-4.45796 -6.078363,-1.90929 -4.019926,2.1514 -4.548229,0.44492 -0.652502,-2.10766 1.85736,-1.21698 5.856389,-2.49754 8.886735,-2.84569 6.62352,-0.76094 19.12478,2.97728 18.18104,5.43664 -0.34835,0.90778 -0.0323,2.4961 0.70238,3.5296 1.00864,1.41891 1.12234,1.22604 0.46432,-0.78758 -0.69905,-2.13913 -0.53929,-2.33696 0.80755,-1 1.28526,1.27582 1.3119,2.03376 0.11362,3.23205 -1.19829,1.19829 -2.34027,0.72927 -4.86967,-2 -3.91864,-4.22828 -6.12174,-4.60975 -5.14943,-0.89162 0.38457,1.47058 -0.0111,3.52962 -0.87921,4.57565 -1.30386,1.57106 -0.8094,1.99656 2.84264,2.44619 4.0189,0.49478 3.91552,0.5637 -1.13657,0.75768 -3.05669,0.11733 -6.35669,0.45082 -7.33333,0.74102 -0.97665,0.2902 -3.79807,0.0512 -6.269834,-0.53116 z m 9.405225,-10.95203 c -0.95675,-0.95675 -1.57778,-1.03547 -1.57778,-0.2 0,1.77971 1.57682,3.35652 2.46667,2.46666 0.37889,-0.37888 -0.0211,-1.39888 -0.88889,-2.26666 z m 45.75556,10.9825 c -3.6003,-0.66281 -4.25019,-1.04335 -2,-1.17107 2.96846,-0.1685 3.33333,-0.773 3.33333,-5.52254 0,-2.93334 -0.12907,-5.33334 -0.28693,-5.33334 -0.15783,0 -2.43863,1.8892 -5.06846,4.19822 -3.37245,2.96105 -5.1986,3.78113 -6.19688,2.78285 -1.65113,-1.65113 -0.20332,-4.73275 1.67743,-3.57038 0.70084,0.43314 1.10937,0.033 0.90788,-0.88924 -1.07079,-4.9007 17.25377,-7.84375 25.30029,-4.0634 4.39564,2.06513 6.28983,5.35204 2,3.47053 -3.37017,-1.47815 -11,-1.85061 -11,-0.53698 0,1.8816 2.66388,2.88569 2.70722,1.02043 0.0252,-1.08531 0.55076,-0.86963 1.38969,0.57031 0.9208,1.58044 0.89304,3.16794 -0.0875,5 -1.99704,3.73149 0.271,3.39812 5.22158,-0.76753 2.25626,-1.89852 4.1023,-2.79852 4.1023,-2 0,2.52737 -5.21442,6.78447 -8.33333,6.80339 -1.65,0.0107 -4.2,0.237 -5.66667,0.50442 -1.46666,0.2674 -5.06666,0.0444 -8,-0.49567 z M 87.310044,118.0831 c 2.461841,-2.98489 8.458443,-4.58039 20.626376,-5.48799 5.71983,-0.42664 11.62122,-1.42946 13.11419,-2.22847 3.63262,-1.94412 4.89618,-0.40868 2.02583,2.46171 -1.76985,1.76989 -5.62325,2.49205 -16.68028,3.12604 -7.908304,0.45345 -15.836893,1.60169 -17.619087,2.55163 -2.92617,1.55971 -3.068411,1.5187 -1.467029,-0.42292 z m 88.226676,-0.37032 c -2.56666,-0.97111 -9.27761,-1.79953 -14.9132,-1.84092 -11.4011,-0.0837 -17.0868,-1.65065 -17.0868,-4.70892 0,-2.32999 1.5253,-2.64104 3.46062,-0.70572 0.73001,0.73001 6.10001,1.67228 11.93333,2.09394 10.84192,0.7837 21.93939,3.82997 21.93939,6.02239 0,0.67268 -0.15,1.15147 -0.33334,1.06397 -0.18333,-0.0875 -2.43333,-0.95362 -5,-1.92474 z m -96.241209,40.43344 c -0.83408,-2.71768 -2.113219,-4.54259 -2.860381,-4.08082 -0.829272,0.51252 -1.001387,-0.0773 -0.445382,-1.52618 1.093783,-2.85036 -1.367973,-12.74262 -3.171085,-12.74262 -2.113746,0 -1.466658,7.64382 0.718059,8.48218 1.1,0.4221 2,1.42716 2,2.23344 0,1.90692 -7.975152,-3.7661 -8.98164,-6.38896 -0.423831,-1.10448 0.341215,-4.07268 1.700103,-6.59598 2.001912,-3.71733 2.168148,-5.0723 0.876121,-7.14116 -0.877021,-1.40433 -1.594584,-3.72606 -1.594584,-5.1594 0,-2.951 -2.082484,-4.78737 -3.262952,-2.87733 -0.4293,0.69462 -0.193685,1.62565 0.523589,2.06895 0.767403,0.47428 0.853156,2.02126 0.20836,3.7588 -0.602674,1.62404 -1.496032,5.3528 -1.985236,8.28613 l -0.889461,5.33333 2.63766,-5.66666 c 3.584331,-7.70046 4.414188,-7.16419 1.358448,0.87786 l -2.486728,6.54454 4.601885,5.7888 c 2.531038,3.18384 4.60771,6.29617 4.614827,6.9163 0.02725,2.37487 5.728934,9.02318 6.810677,7.94143 0.626476,-0.62648 0.459404,-3.34279 -0.37228,-6.05265 z M 194.9498,156.09858 c -0.2924,-0.2924 1.79726,-3.60864 4.64368,-7.36942 2.84641,-3.76077 4.71207,-7.15909 4.14588,-7.55182 -0.56619,-0.39274 -1.00925,-3.41407 -0.9846,-6.71407 0.0247,-3.3 -0.23932,-6.9 -0.58661,-8 -0.3563,-1.12853 0.0948,-1.85475 1.03524,-1.66667 2.03357,0.40672 2.21333,-1.83809 0.24462,-3.05482 -1.92213,-1.18795 -2.86195,-0.0319 -3.31275,4.07483 -0.20774,1.89236 -1.06508,4.26891 -1.90522,5.28122 -1.1633,1.40169 -1.03066,2.80136 0.55624,5.87012 2.74119,5.30087 2.62909,7.25519 -0.58289,10.16199 -2.62285,2.37365 -2.66667,2.32884 -2.66667,-2.72668 0,-5.71975 -1.87874,-5.0309 -3.43344,1.25888 -0.68094,2.7549 -0.51652,3.59425 0.57232,2.92132 2.55024,-1.57615 1.70663,2.07858 -1.02708,4.44952 -1.40517,1.21869 -2.93921,4.58908 -3.40896,7.48972 l -0.8541,5.2739 4.048,-4.5832 c 2.22638,-2.52074 3.80874,-4.82242 3.51634,-5.11482 z m 5.41831,-21.02019 c -1.28664,-3.35292 -0.90708,-4.21807 0.6647,-1.51512 0.77826,1.33833 1.13414,2.71421 0.79084,3.05751 -0.34329,0.34329 -0.99829,-0.35079 -1.45554,-1.54239 z"
     style="fill:#d6ab98;stroke-width:1.33333325" />
  <path
     inkscape:connector-curvature="0"
     id="path5559"
     d="m 23.989612,265.46327 c 0.347926,-1.28334 1.016936,-4.13334 1.486692,-6.33334 0.469758,-2.2 2.354536,-7 4.1884,-10.66666 3.806644,-7.6111 10.028221,-11.27183 23.872018,-14.04618 12.544103,-2.51389 42.487474,-13.0004 44.338329,-15.5278 2.618939,-3.57624 4.189359,-0.68866 5.605009,10.30607 0.70353,5.46401 2.7131,14.13457 4.4657,19.26791 1.75261,5.13333 3.60474,11.58333 4.11585,14.33333 l 0.92928,5 H 68.173955 c -42.034891,0 -44.777664,-0.14484 -44.184343,-2.33333 z m 100.880448,0.25709 c 0,-1.14193 0.69105,-4.82067 1.53567,-8.17497 1.43463,-5.6974 1.33608,-6.24928 -1.49755,-8.3867 -2.9202,-2.20272 -2.94913,-2.41633 -0.77637,-5.73238 2.5145,-3.83763 7.69827,-7.62971 10.42978,-7.62971 0.98195,0 3.81801,2.09717 6.30239,4.66039 l 4.51702,4.66038 -3.52268,3.6769 c -3.18022,3.31944 -3.40258,4.19497 -2.28728,9.00626 2.28859,9.87276 2.20592,9.99607 -6.70098,9.99607 -6.35279,0 -8,-0.42751 -8,-2.07624 z m 29.82193,-0.25709 c 0.36757,-1.28334 2.46177,-8.33334 4.65377,-15.66667 2.19202,-7.33333 4.60307,-17.45469 5.35791,-22.49191 0.75483,-5.03721 1.70343,-9.48958 2.108,-9.89414 0.40456,-0.40456 2.0832,0.46964 3.73031,1.94268 3.42444,3.06252 26.75656,11.08961 44.00901,15.14066 6.42452,1.50855 13.75324,3.96551 16.28605,5.4599 5.22988,3.0857 10.77009,13.18718 12.16264,22.17614 l 0.87787,5.66667 h -44.92693 c -42.15326,0 -44.88567,-0.14405 -44.25863,-2.33333 z m 5.01108,-54 c -0.19596,-4.31959 -1.14661,-4.40734 -10.83301,-1 -8.8333,3.10724 -21.31666,3.3248 -28.66667,0.49958 -9.33378,-3.58774 -11.331,-3.7616 -11.35375,-0.98836 -0.0172,2.09483 -0.22501,2.17219 -1.31292,0.48878 -0.71087,-1.1 -1.30168,-3.61494 -1.31291,-5.58874 -0.0159,-2.79176 -1.75124,-4.92057 -7.814125,-9.58585 -4.286537,-3.29841 -8.700057,-7.38349 -9.807824,-9.07793 -2.087226,-3.19264 -2.579686,-4.56925 -5.037171,-14.08081 -1.057122,-4.09154 -2.14827,-5.66667 -3.92549,-5.66667 -2.945008,0 -18.026527,-21.46928 -19.259204,-27.41641 -1.351203,-6.51898 0.81463,-16.995 3.835067,-18.55003 2.332263,-1.20074 2.606207,-2.4987 2.25365,-10.67791 -0.966836,-22.430257 5.610998,-39.439041 19.734675,-51.02937 8.792453,-7.215363 20.902202,-14.977504 23.333332,-14.956277 0.73334,0.0064 -1.96666,1.826681 -6,4.045061 -4.033332,2.218381 -10.208804,6.857512 -13.723269,10.30918 -7.961695,7.819434 -9.489975,12.963876 -11.580755,38.982744 -1.34325,16.716172 -1.26914,20.613992 0.540282,28.416072 2.687834,11.58971 2.640201,12.87694 -0.476515,12.87694 -2.284716,0 -2.425813,0.4864 -1.257028,4.33333 0.724111,2.38334 3.367277,12.12023 5.873704,21.63754 2.506427,9.51729 5.679644,18.81729 7.051594,20.66666 3.854927,5.19636 20.159057,18.23259 27.500447,21.98841 5.28513,2.70386 8.53795,3.37406 16.37616,3.37406 5.53646,0 11.79278,-0.84056 14.41682,-1.93696 5.91323,-2.4707 25.74288,-17.93727 29.3949,-22.92717 1.53064,-2.09139 4.95942,-12.20254 7.61952,-22.4692 2.66009,-10.26667 5.20612,-19.93404 5.65782,-21.48306 0.61263,-2.10077 0.13778,-2.99512 -1.86885,-3.51986 -2.59631,-0.67895 -2.62371,-0.9883 -0.78543,-8.86832 2.54847,-10.92432 2.67138,-16.37823 0.82596,-36.651755 -2.45616,-26.982986 -3.73574,-29.857671 -17.94709,-40.319463 -4.35139,-3.203315 -7.39561,-5.809658 -6.76495,-5.791874 0.63068,0.01779 3.84668,2.115311 7.14668,4.661174 3.3,2.545863 8.20134,6.17884 10.89186,8.073283 6.3002,4.436075 11.11921,11.460346 14.54044,21.194352 3.17349,9.029129 5.43679,26.424983 4.32746,33.260983 -0.62238,3.83535 -0.20888,5.19325 2.1674,7.11745 2.34952,1.90251 3.04089,4.10526 3.4586,11.01914 0.28713,4.75271 0.20204,7.44128 -0.18909,5.97461 -0.39114,-1.46666 -1.63422,-4.69182 -2.76239,-7.167 -1.59748,-3.50485 -1.68713,-4.72536 -0.40527,-5.5176 0.90528,-0.55949 1.23368,-1.68434 0.72979,-2.49966 -1.46128,-2.36439 -3.17723,-1.72707 -4.08608,1.5176 -0.46217,1.65 -1.48649,4.31729 -2.27626,5.92732 -1.11302,2.26901 -0.9047,4.04683 0.92634,7.90548 2.42004,5.09986 1.76159,8.36129 -1.93698,9.59414 -1.08619,0.36207 -1.3837,-0.0184 -0.77922,-0.99641 1.3084,-2.11704 -0.42982,-8.82379 -1.8894,-7.29005 -0.62436,0.65606 -2.42994,5.69285 -4.01241,11.19285 -1.58248,5.5 -3.17887,11.05 -3.54752,12.33333 -1.16095,4.0413 3.45393,2.65763 5.90475,-1.7704 3.51844,-6.35698 13.60549,-20.56784 13.59763,-19.15664 -0.004,0.6932 -1.05386,2.81764 -2.33333,4.72096 -1.27948,1.90332 -4.61324,6.88222 -7.40836,11.06419 -2.7951,4.18199 -6.43712,8.11881 -8.09334,8.74851 -2.31079,0.87856 -3.41375,2.95736 -4.74116,8.93581 -1.45494,6.55279 -2.81739,8.85919 -8.57331,14.51312 -3.76392,3.69721 -8.2414,7.60261 -9.94999,8.67868 -2.34578,1.47739 -3.36618,3.74929 -4.16698,9.27778 -0.58327,4.02674 -1.13535,5.67132 -1.22683,3.65466 z M 80.3561,160.8935 c -0.466008,-2.33004 -2.071372,-8.34668 -3.567476,-13.37032 -2.752322,-9.24179 -5.251902,-10.92507 -5.251902,-3.53678 0,2.62892 -0.580088,3.84195 -1.666667,3.48515 -2.542917,-0.83499 -2.787373,-7.45007 -0.409428,-11.07927 1.545963,-2.35944 1.752251,-3.86599 0.764122,-5.58049 -0.744448,-1.29168 -1.957492,-4.04729 -2.695655,-6.12356 -0.738161,-2.07628 -2.050921,-3.53878 -2.917243,-3.25 -2.428153,0.80938 -2.886933,3.69171 -0.587609,3.69171 1.813852,0 1.826319,0.51877 0.111107,4.62384 -2.870466,6.87 -2.366116,11.70849 1.825126,17.50944 2.066399,2.86002 5.423412,8.05005 7.460028,11.53338 4.387123,7.50354 8.250532,8.67159 6.935593,2.0969 z m 62.51396,28.23644 c 1.32732,-1.46667 2.7133,-2.66667 3.07997,-2.66667 0.36667,0 -0.41932,1.2 -1.74664,2.66667 -1.32732,1.46666 -2.71331,2.66666 -3.07997,2.66666 -0.36667,0 0.41932,-1.2 1.74664,-2.66666 z m -23.24562,-3.87682 c -2.22955,-3.13112 -2.47219,-4.12318 -1.00843,-4.12318 1.06014,0 2.67446,0.9 3.58738,2 0.91292,1.1 4.13639,2.10086 7.16326,2.22413 l 5.50341,0.22415 -5.31604,0.54185 c -2.92381,0.29801 -5.69348,1.15259 -6.15482,1.89905 -0.46319,0.74946 -2.15348,-0.48912 -3.77476,-2.766 z m 24.91228,-2.33956 c 0.91667,-0.36988 1.66667,-1.37818 1.66667,-2.24068 0,-0.86248 1.2,-2.31757 2.66667,-3.23352 3.09594,-1.93345 3.21089,-1.62936 1.1193,2.96118 -0.97354,2.13672 -2.58046,3.35702 -4.33333,3.2908 -1.53228,-0.0579 -2.03597,-0.4079 -1.11931,-0.77778 z M 128.69998,166.7966 c -1.69268,-2.15834 -1.62993,-2.18664 0.83674,-0.37729 1.46667,1.07583 2.91667,2.12583 3.22223,2.33333 0.30555,0.20751 -0.071,0.3773 -0.83675,0.3773 -0.76576,0 -2.21576,-1.05 -3.22222,-2.33334 z m -3.56999,-9 c 0.0272,-2.2 0.326,-2.93858 0.66405,-1.64129 0.33806,1.29729 0.31583,3.09729 -0.0494,4 -0.36523,0.90271 -0.64182,-0.15871 -0.61465,-2.35871 z M 93.334701,132.38246 c -1.877777,-1.87778 -3.065508,-3.76277 -2.6394,-4.18888 0.426108,-0.42611 1.839746,0.45812 3.141415,1.96494 2.857771,3.3082 7.809814,4.95112 9.020234,2.99262 0.4829,-0.78134 0.0834,-1.25574 -0.88779,-1.05424 -1.21776,0.25267 -1.7003,-1.01948 -1.55481,-4.09901 0.22297,-4.71977 -0.872145,-5.01098 -8.210962,-2.18345 -2.535024,0.9767 -2.553472,0.90723 -0.373715,-1.40721 3.251356,-3.45225 16.532707,-4.2978 22.120407,-1.40828 4.29002,2.21845 8.24924,7.46432 5.63356,7.46432 -0.75914,0 -1.38025,-0.57889 -1.38025,-1.28642 0,-1.48124 -4.31142,-4.00323 -8.08653,-4.73024 -2.63843,-0.50812 -3.55689,1.25561 -1.36068,2.61295 0.6707,0.41451 1.50084,-8e-5 1.84476,-0.92132 0.41374,-1.10823 0.97461,-0.82571 1.65765,0.83498 0.58582,1.42435 0.38382,3.54837 -0.46702,4.91079 -1.20915,1.93616 -1.05633,2.5172 0.78957,3.00205 1.2589,0.33066 -1.78836,0.67081 -6.77169,0.75588 -8.053081,0.13746 -9.440255,-0.22499 -12.474749,-3.25948 z m 61.535359,2.46338 c 1.46666,-0.35277 3.26666,-1.21872 4,-1.92432 0.86185,-0.82926 0.44808,-0.9457 -1.17015,-0.3293 -2.21419,0.84341 -2.43911,0.40217 -1.9464,-3.81821 0.47567,-4.07445 0.24093,-4.60262 -1.60619,-3.61407 -1.18978,0.63676 -2.93737,2.0905 -3.88352,3.23054 -2.4721,2.9787 -4.38661,2.55893 -2.45269,-0.53777 0.89668,-1.43581 3.50177,-3.6184 5.78909,-4.8502 5.44046,-2.92988 18.36978,-2.0755 21.67088,1.43203 2.14456,2.27867 2.12314,2.35048 -0.40102,1.34368 -1.46667,-0.585 -4.96506,-1.23997 -7.7742,-1.45548 -4.40568,-0.338 -4.87991,-0.11758 -3.45103,1.60412 1.16947,1.40913 1.93056,1.55253 2.58865,0.48773 1.5841,-2.56314 2.77212,2.63738 1.25155,5.4786 -1.94544,3.63509 0.37504,3.24777 5.28272,-0.88178 2.25627,-1.89852 4.10231,-2.84207 4.10231,-2.09677 0,0.7453 -1.58092,2.59863 -3.51315,4.11852 -2.81156,2.21158 -5.27455,2.73255 -12.33333,2.60878 -4.85111,-0.0851 -7.62019,-0.44331 -6.15352,-0.7961 z M 91.620036,115.81243 c 1.145824,-0.66101 7.943897,-1.80141 15.106834,-2.53423 7.16293,-0.73282 13.87544,-2.03943 14.91668,-2.90359 1.4937,-1.23966 1.89317,-1.14483 1.89317,0.44942 0,2.77033 -2.7222,3.59334 -14.53002,4.39289 -5.57515,0.37752 -12.236645,0.93636 -14.803312,1.24187 -3.212489,0.38239 -4.017485,0.18098 -2.583352,-0.64636 z m 59.250024,-1.00025 c -4.14934,-0.60671 -7.33334,-2.53627 -7.33334,-4.44413 0,-0.60612 2.08074,-0.23266 4.62384,0.82992 2.54312,1.06258 7.19312,1.96654 10.33334,2.00881 3.14022,0.0423 8.10949,0.57326 11.04282,1.18 4.59504,0.95045 3.94904,1.09673 -4.66666,1.05672 -5.5,-0.0255 -11.8,-0.30964 -14,-0.63132 z m 8.00944,-69.666967 c -0.46712,-0.755813 0.0681,-0.979343 1.25464,-0.524015 2.30989,0.886388 2.73252,1.842076 0.81461,1.842076 -0.69005,0 -1.62123,-0.593128 -2.06925,-1.318061 z"
     style="fill:#a3a19e;stroke-width:1.33333325" />
  <path
     inkscape:connector-curvature="0"
     id="path5557"
     d="m 25.328855,261.80484 c 1.188096,-8.66811 6.608433,-18.52783 11.902896,-21.65164 2.468408,-1.45639 9.24683,-3.70501 15.063159,-4.99692 15.63084,-3.47191 42.152593,-12.58268 45.449107,-15.61272 2.748083,-2.52595 2.904463,-2.53447 3.570223,-0.19431 0.38294,1.34604 1.11271,5.74735 1.62172,9.78068 0.509,4.03334 2.56636,12.73334 4.57191,19.33334 2.00555,6.6 4.04393,13.65 4.52973,15.66666 l 0.88326,3.66667 H 68.714226 24.507592 Z m 99.541205,4.20367 c 0,-0.98346 0.84192,-4.58559 1.87093,-8.00475 1.83451,-6.09559 1.80404,-6.26928 -1.56449,-8.91896 l -3.43543,-2.70231 5.16843,-5.29294 c 2.84263,-2.91112 5.90393,-5.29295 6.80288,-5.29295 0.89896,0 3.876,2.11404 6.61565,4.69785 l 4.98117,4.69786 -3.60573,3.76358 c -3.35711,3.50407 -3.5124,4.16847 -2.25217,9.63548 2.14824,9.31923 2.22973,9.20523 -6.58124,9.20523 -5.80085,0 -8,-0.49153 -8,-1.78809 z m 30.66666,-0.0385 c 0,-1.00462 1.79952,-7.88402 3.99894,-15.28753 2.19942,-7.40352 4.55124,-17.36089 5.22628,-22.12749 1.4675,-10.36244 2.43056,-12.37628 4.56945,-9.55514 1.94592,2.56664 27.10541,11.56699 42.872,15.33667 17.8229,4.26132 22.53341,7.12161 26.45913,16.06636 1.78476,4.06656 3.63876,9.64375 4.12003,12.39375 l 0.87501,5 h -44.06042 c -36.41704,1e-5 -44.06042,-0.31686 -44.06042,-1.8266 z m 4.16635,-54.5067 c -0.19596,-4.31959 -1.14661,-4.40734 -10.83301,-1 -8.8333,3.10724 -21.31666,3.3248 -28.66667,0.49958 -9.33378,-3.58774 -11.331,-3.7616 -11.35375,-0.98836 -0.0172,2.09483 -0.22501,2.17219 -1.31292,0.48878 -0.71087,-1.1 -1.30168,-3.61494 -1.31291,-5.58874 -0.0159,-2.79176 -1.75124,-4.92057 -7.814125,-9.58585 -4.286537,-3.29841 -8.700057,-7.38349 -9.807824,-9.07793 -2.087226,-3.19264 -2.579686,-4.56925 -5.037171,-14.08081 -1.057122,-4.09154 -2.14827,-5.66667 -3.92549,-5.66667 -2.945008,0 -18.026527,-21.46928 -19.259204,-27.41641 -1.351203,-6.51898 0.81463,-16.995 3.835067,-18.55003 2.332263,-1.20074 2.606207,-2.4987 2.25365,-10.67791 -0.966836,-22.430257 5.610998,-39.439041 19.734675,-51.02937 8.792453,-7.215363 20.902202,-14.977504 23.333332,-14.956277 0.73334,0.0064 -1.96666,1.826681 -6,4.045061 -4.033332,2.218381 -10.208804,6.857512 -13.723269,10.30918 -7.961695,7.819434 -9.489975,12.963876 -11.580755,38.982744 -1.34325,16.716172 -1.26914,20.613992 0.540282,28.416072 2.687834,11.58971 2.640201,12.87694 -0.476515,12.87694 -2.284716,0 -2.425813,0.4864 -1.257028,4.33333 0.724111,2.38334 3.367277,12.12023 5.873704,21.63754 2.506427,9.51729 5.679644,18.81729 7.051594,20.66666 3.854927,5.19636 20.159057,18.23259 27.500447,21.98841 5.28513,2.70386 8.53795,3.37406 16.37616,3.37406 5.53646,0 11.79278,-0.84056 14.41682,-1.93696 5.91323,-2.4707 25.74288,-17.93727 29.3949,-22.92717 1.53064,-2.09139 4.95942,-12.20254 7.61952,-22.4692 2.66009,-10.26667 5.20612,-19.93404 5.65782,-21.48306 0.61263,-2.10077 0.13778,-2.99512 -1.86885,-3.51986 -2.59631,-0.67895 -2.62371,-0.9883 -0.78543,-8.86832 2.54847,-10.92432 2.67138,-16.37823 0.82596,-36.651755 -2.45616,-26.982986 -3.73574,-29.857671 -17.94709,-40.319463 -4.35139,-3.203315 -7.39561,-5.809658 -6.76495,-5.791874 0.63068,0.01779 3.84668,2.115311 7.14668,4.661174 3.3,2.545863 8.20134,6.17884 10.89186,8.073283 6.3002,4.436075 11.11921,11.460346 14.54044,21.194352 3.17349,9.029129 5.43679,26.424983 4.32746,33.260983 -0.62238,3.83535 -0.20888,5.19325 2.1674,7.11745 2.34952,1.90251 3.04089,4.10526 3.4586,11.01914 0.28713,4.75271 0.20204,7.44128 -0.18909,5.97461 -0.39114,-1.46666 -1.63422,-4.69182 -2.76239,-7.167 -1.59748,-3.50485 -1.68713,-4.72536 -0.40527,-5.5176 0.90528,-0.55949 1.23368,-1.68434 0.72979,-2.49966 -1.46128,-2.36439 -3.17723,-1.72707 -4.08608,1.5176 -0.46217,1.65 -1.48649,4.31729 -2.27626,5.92732 -1.11302,2.26901 -0.9047,4.04683 0.92634,7.90548 2.42004,5.09986 1.76159,8.36129 -1.93698,9.59414 -1.08619,0.36207 -1.3837,-0.0184 -0.77922,-0.99641 1.3084,-2.11704 -0.42982,-8.82379 -1.8894,-7.29005 -0.62436,0.65606 -2.42994,5.69285 -4.01241,11.19285 -1.58248,5.5 -3.17887,11.05 -3.54752,12.33333 -1.16095,4.0413 3.45393,2.65763 5.90475,-1.7704 3.51844,-6.35698 13.60549,-20.56784 13.59763,-19.15664 -0.004,0.6932 -1.05386,2.81764 -2.33333,4.72096 -1.27948,1.90332 -4.61324,6.88222 -7.40836,11.06419 -2.7951,4.18199 -6.43712,8.11881 -8.09334,8.74851 -2.31079,0.87856 -3.41375,2.95736 -4.74116,8.93581 -1.45494,6.55279 -2.81739,8.85919 -8.57331,14.51312 -3.76392,3.69721 -8.2414,7.60261 -9.94999,8.67868 -2.34578,1.47739 -3.36618,3.74929 -4.16698,9.27778 -0.58327,4.02674 -1.13535,5.67132 -1.22683,3.65466 z M 80.3561,160.8935 c -0.466008,-2.33004 -2.071372,-8.34668 -3.567476,-13.37032 -2.752322,-9.24179 -5.251902,-10.92507 -5.251902,-3.53678 0,2.62892 -0.580088,3.84195 -1.666667,3.48515 -2.542917,-0.83499 -2.787373,-7.45007 -0.409428,-11.07927 1.545963,-2.35944 1.752251,-3.86599 0.764122,-5.58049 -0.744448,-1.29168 -1.957492,-4.04729 -2.695655,-6.12356 -0.738161,-2.07628 -2.050921,-3.53878 -2.917243,-3.25 -2.428153,0.80938 -2.886933,3.69171 -0.587609,3.69171 1.813852,0 1.826319,0.51877 0.111107,4.62384 -2.870466,6.87 -2.366116,11.70849 1.825126,17.50944 2.066399,2.86002 5.423412,8.05005 7.460028,11.53338 4.387123,7.50354 8.250532,8.67159 6.935593,2.0969 z m 39.50135,24.25453 c -2.31124,-3.70089 -2.07188,-4.33553 1.01261,-2.68476 1.46666,0.78493 2.66666,2.30604 2.66666,3.38024 0,2.75235 -1.73033,2.42527 -3.67927,-0.69548 z m 27.74039,-5.46563 c 0.81855,-1.52946 1.75378,-2.51534 2.0783,-2.19082 0.9332,0.93318 -0.95863,4.97169 -2.32898,4.97169 -0.6811,0 -0.56838,-1.25041 0.25068,-2.78087 z m -18.89786,-12.8858 c -1.69268,-2.15834 -1.62993,-2.18664 0.83674,-0.37729 1.46667,1.07583 2.91667,2.12583 3.22223,2.33333 0.30555,0.20751 -0.071,0.3773 -0.83675,0.3773 -0.76576,0 -2.21576,-1.05 -3.22222,-2.33334 z m -3.56999,-9 c 0.0272,-2.2 0.326,-2.93858 0.66405,-1.64129 0.33806,1.29729 0.31583,3.09729 -0.0494,4 -0.36523,0.90271 -0.64182,-0.15871 -0.61465,-2.35871 z M 94.500063,133.721 c -1.629838,-1.14158 -2.954154,-2.79158 -2.942924,-3.66667 0.01445,-1.12594 0.30678,-1.1605 1,-0.11821 0.53877,0.81007 2.779582,2.43605 4.979582,3.61328 2.2,1.17724 3.083499,2.16445 1.963342,2.19381 -1.120162,0.0293 -3.370162,-0.88064 -5,-2.02222 z m 8.212067,0.006 c 0.43673,-1.13809 0.24412,-1.72938 -0.42802,-1.31397 -1.83106,1.13165 -3.240607,-4.6569 -1.54651,-6.351 0.80619,-0.80622 1.46579,-2.01087 1.46579,-2.67704 0,-1.10432 -1.91972,-0.86807 -8.876134,1.0923 -1.351461,0.38085 -0.657201,-0.18952 1.542799,-1.26751 8.523675,-4.17653 22.734715,-1.038 25.275065,5.58204 0.631,1.64436 -0.0551,1.40306 -2.47523,-0.87051 -3.45225,-3.24322 -10.13317,-4.92416 -10.13317,-2.54954 0,0.73741 1.2,1.65456 2.66667,2.0381 3.2108,0.83964 3.29032,1.56926 0.59106,5.42299 -2.45478,3.5047 -9.37799,4.27057 -8.08232,0.89409 z m 55.96729,0.0852 c 0.43997,-1.14654 0.0781,-1.85006 -0.85735,-1.66667 -1.03272,0.20247 -1.54751,-1.2513 -1.42208,-4.01599 0.23791,-5.24382 -0.68195,-5.36437 -6.42763,-0.84241 -3.77722,2.97275 -3.66894,2.7497 0.72951,-1.50263 5.10609,-4.93646 5.26375,-4.98563 13.78967,-4.30125 4.74349,0.38076 9.31917,1.44525 10.16818,2.36553 1.20731,1.30864 1.00826,1.48397 -0.91353,0.80464 -6.08441,-2.15076 -9.26004,-2.55707 -8.33909,-1.06695 0.60297,0.97563 0.1949,1.2286 -1.14958,0.71267 -1.51356,-0.5808 -1.8586,-0.21148 -1.25993,1.34861 0.45344,1.18161 1.96024,2.14841 3.34845,2.14841 3.14412,0 3.12836,1.16923 -0.0675,5 -2.86138,3.42994 -8.83186,4.22818 -7.59923,1.016 z m 10.11881,0.51238 c 1.79383,-0.71642 3.92211,-1.72839 4.72951,-2.24882 0.8074,-0.52042 0.32325,0.10378 -1.07588,1.38711 -1.39915,1.28333 -3.52743,2.29531 -4.72951,2.24881 -1.38179,-0.0535 -0.98609,-0.56358 1.07588,-1.3871 z M 91.620036,115.81243 c 1.145824,-0.66101 7.943897,-1.80141 15.106834,-2.53423 7.16293,-0.73282 13.87544,-2.03943 14.91668,-2.90359 1.4937,-1.23966 1.89317,-1.14483 1.89317,0.44942 0,2.77033 -2.7222,3.59334 -14.53002,4.39289 -5.57515,0.37752 -12.236645,0.93636 -14.803312,1.24187 -3.212489,0.38239 -4.017485,0.18098 -2.583352,-0.64636 z m 59.250024,-1.00025 c -4.14934,-0.60671 -7.33334,-2.53627 -7.33334,-4.44413 0,-0.60612 2.08074,-0.23266 4.62384,0.82992 2.54312,1.06258 7.19312,1.96654 10.33334,2.00881 3.14022,0.0423 8.10949,0.57326 11.04282,1.18 4.59504,0.95045 3.94904,1.09673 -4.66666,1.05672 -5.5,-0.0255 -11.8,-0.30964 -14,-0.63132 z m 8.00944,-69.666967 c -0.46712,-0.755813 0.0681,-0.979343 1.25464,-0.524015 2.30989,0.886388 2.73252,1.842076 0.81461,1.842076 -0.69005,0 -1.62123,-0.593128 -2.06925,-1.318061 z"
     style="fill:#c79c75;stroke-width:1.33333325" />
  <path
     inkscape:connector-curvature="0"
     id="path5555"
     d="m 25.328855,261.80484 c 1.188096,-8.66811 6.608433,-18.52783 11.902896,-21.65164 2.468408,-1.45639 9.24683,-3.70501 15.063159,-4.99692 15.63084,-3.47191 42.152593,-12.58268 45.449107,-15.61272 2.748083,-2.52595 2.904463,-2.53447 3.570223,-0.19431 0.38294,1.34604 1.11271,5.74735 1.62172,9.78068 0.509,4.03334 2.56636,12.73334 4.57191,19.33334 2.00555,6.6 4.04393,13.65 4.52973,15.66666 l 0.88326,3.66667 H 68.714226 24.507592 Z m 99.541205,4.20367 c 0,-0.98346 0.84192,-4.58559 1.87093,-8.00475 1.83451,-6.09559 1.80404,-6.26928 -1.56449,-8.91896 l -3.43543,-2.70231 5.16843,-5.29294 c 2.84263,-2.91112 5.90393,-5.29295 6.80288,-5.29295 0.89896,0 3.876,2.11404 6.61565,4.69785 l 4.98117,4.69786 -3.60573,3.76358 c -3.35711,3.50407 -3.5124,4.16847 -2.25217,9.63548 2.14824,9.31923 2.22973,9.20523 -6.58124,9.20523 -5.80085,0 -8,-0.49153 -8,-1.78809 z m 30.66666,-0.0385 c 0,-1.00462 1.79952,-7.88402 3.99894,-15.28753 2.19942,-7.40352 4.55124,-17.36089 5.22628,-22.12749 1.4675,-10.36244 2.43056,-12.37628 4.56945,-9.55514 1.94592,2.56664 27.10541,11.56699 42.872,15.33667 17.8229,4.26132 22.53341,7.12161 26.45913,16.06636 1.78476,4.06656 3.63876,9.64375 4.12003,12.39375 l 0.87501,5 h -44.06042 c -36.41704,1e-5 -44.06042,-0.31686 -44.06042,-1.8266 z m -31,-55.05641 c 0.91667,-0.36988 2.41667,-0.36988 3.33334,0 0.91666,0.36988 0.16666,0.67252 -1.66667,0.67252 -1.83333,0 -2.58333,-0.30264 -1.66667,-0.67252 z m 15.35871,-0.0409 c 1.29729,-0.33806 3.09729,-0.31583 4,0.0495 0.90271,0.36524 -0.15871,0.64183 -2.35871,0.61466 -2.2,-0.0272 -2.93858,-0.326 -1.64129,-0.66406 z m 19.74656,-1.18712 c 0.064,-1.55327 0.37992,-1.8692 0.80555,-0.80556 0.38516,0.96249 0.3378,2.11249 -0.1052,2.55556 -0.44307,0.44305 -0.75819,-0.34446 -0.7003,-1.75 z M 113.66357,207.13 c -5.84791,-3.9685 -5.7685,-3.95636 -6.54108,-1 -0.37515,1.43555 -0.66927,0.92254 -0.76443,-1.33333 -0.1754,-4.15809 1.32791,-4.70296 4.0154,-1.45536 1.00646,1.21621 4.22993,3.30304 7.16326,4.63739 2.93334,1.33433 4.36706,2.43925 3.18607,2.45536 -1.181,0.0161 -4.35765,-1.47072 -7.05922,-3.30406 z m 35.13489,1.86163 c 1.79396,-0.71647 5.83897,-3.41452 8.98893,-5.99568 3.14995,-2.58114 5.37885,-3.78524 4.95311,-2.67576 -0.94263,2.45643 -12.70075,10.1762 -15.32051,10.05863 -1.0358,-0.0465 -0.41548,-0.67072 1.37847,-1.38719 z M 98.033315,194.7966 c -1.658495,-2.11474 -1.611335,-2.1619 0.503406,-0.50341 1.283334,1.00647 2.333329,2.05647 2.333329,2.33333 0,1.09739 -1.09491,0.39108 -2.836735,-1.82992 z m 73.503405,-2.08388 c 0,-0.22946 1.95,-2.17946 4.33334,-4.33333 l 4.33333,-3.91612 -3.91612,4.33333 c -3.65037,4.03928 -4.75055,4.9462 -4.75055,3.91612 z m -51.67927,-7.56469 c -2.31124,-3.70089 -2.07188,-4.33553 1.01261,-2.68476 1.46666,0.78493 2.66666,2.30604 2.66666,3.38024 0,2.75235 -1.73033,2.42527 -3.67927,-0.69548 z m 27.74039,-5.46563 c 0.81855,-1.52946 1.75378,-2.51534 2.0783,-2.19082 0.9332,0.93318 -0.95863,4.97169 -2.32898,4.97169 -0.6811,0 -0.56838,-1.25041 0.25068,-2.78087 z m 37.37748,-15.33024 c 0.064,-1.55326 0.37992,-1.8692 0.80555,-0.80556 0.38516,0.9625 0.3378,2.1125 -0.1052,2.55556 -0.44307,0.44306 -0.75819,-0.34445 -0.70029,-1.75 z M 80.975318,163.01883 c 0.06397,-1.55327 0.379921,-1.8692 0.805556,-0.80556 0.385161,0.96249 0.337792,2.11249 -0.105267,2.55556 -0.443056,0.44305 -0.758188,-0.34445 -0.700293,-1.75 z m 105.333342,-4 c 0.064,-1.55327 0.37992,-1.8692 0.80554,-0.80556 0.38516,0.96249 0.3378,2.11249 -0.1052,2.55556 -0.44306,0.44305 -0.75818,-0.34445 -0.70029,-1.75 z M 78.965294,155.0347 c -0.490428,-1.95402 -0.634544,-3.8099 -0.320258,-4.12419 0.314286,-0.31428 0.972687,1.02732 1.463114,2.98133 0.490428,1.95402 0.634544,3.8099 0.320257,4.12419 -0.314285,0.31428 -0.972687,-1.02732 -1.463113,-2.98133 z m -10.265312,-1.57143 c -1.658495,-2.11475 -1.611335,-2.16191 0.503407,-0.50341 1.283333,1.00646 2.333333,2.05646 2.333333,2.33333 0,1.09739 -1.094915,0.39108 -2.83674,-1.82992 z m 128.170078,0.49659 c 0,-0.27687 1.05,-1.32687 2.33333,-2.33334 2.11474,-1.65849 2.1619,-1.61133 0.50341,0.50342 -1.74182,2.221 -2.83674,2.9273 -2.83674,1.82992 z M 64.699982,148.12994 c -1.658495,-2.11475 -1.611335,-2.16191 0.503407,-0.50342 1.283333,1.00647 2.333333,2.05647 2.333333,2.33334 0,1.09738 -1.094915,0.39108 -2.83674,-1.82992 z m 4.43674,-1.93334 c -2.426993,-2.427 -1.919599,-7.07289 1.156089,-10.58562 l 2.756091,-3.14771 -0.885097,4 c -0.486804,2.2 -0.977044,5.65 -1.089424,7.66667 -0.112379,2.01666 -0.234326,3.66666 -0.270992,3.66666 -0.03667,0 -0.786667,-0.72 -1.666667,-1.6 z m 127.733338,-2.05464 c 0,-2.09661 -0.66772,-4.47974 -1.48383,-5.29585 -0.81609,-0.81609 -1.02452,-2.227 -0.46313,-3.13532 0.76056,-1.23061 1.47849,-1.02539 2.81714,0.80533 2.10192,2.87454 2.38772,9.42436 0.46315,10.61382 -0.77013,0.47597 -1.33333,-0.78616 -1.33333,-2.98798 z m -5.22807,-3.7898 c 0.064,-1.55326 0.37992,-1.8692 0.80555,-0.80556 0.38516,0.9625 0.3378,2.1125 -0.1052,2.55556 -0.44307,0.44306 -0.75819,-0.34445 -0.7003,-1.75 z m 14.87073,-5.88889 c 0,-2.56667 0.2744,-3.61667 0.60977,-2.33333 0.33536,1.28333 0.33536,3.38333 0,4.66666 -0.33537,1.28334 -0.60977,0.23334 -0.60977,-2.33333 z M 94.500063,133.721 c -1.629838,-1.14158 -2.954154,-2.79158 -2.942924,-3.66667 0.01445,-1.12594 0.30678,-1.1605 1,-0.11821 0.53877,0.81007 2.779582,2.43605 4.979582,3.61328 2.2,1.17724 3.083499,2.16445 1.963342,2.19381 -1.120162,0.0293 -3.370162,-0.88064 -5,-2.02222 z m 8.212067,0.006 c 0.43673,-1.13809 0.24412,-1.72938 -0.42802,-1.31397 -1.83106,1.13165 -3.240607,-4.6569 -1.54651,-6.351 0.80619,-0.80622 1.46579,-2.01087 1.46579,-2.67704 0,-1.10432 -1.91972,-0.86807 -8.876134,1.0923 -1.351461,0.38085 -0.657201,-0.18952 1.542799,-1.26751 8.406935,-4.11933 22.730495,-1.04901 25.206405,5.40311 0.50051,1.30429 -0.74731,0.79044 -3.30333,-1.36031 -4.19533,-3.53013 -9.23641,-4.62073 -9.23641,-1.99822 0,0.80199 1.2,1.77197 2.66667,2.15551 3.2108,0.83964 3.29032,1.56926 0.59106,5.42299 -2.45478,3.5047 -9.37799,4.27057 -8.08232,0.89409 z m 55.96729,0.0852 c 0.43997,-1.14654 0.0781,-1.85006 -0.85735,-1.66667 -1.03272,0.20247 -1.54751,-1.2513 -1.42208,-4.01599 0.23791,-5.24382 -0.68195,-5.36437 -6.42763,-0.84241 -3.77722,2.97275 -3.66894,2.7497 0.72951,-1.50263 5.10609,-4.93646 5.26375,-4.98563 13.78967,-4.30125 4.74349,0.38076 9.31917,1.44525 10.16818,2.36553 1.20731,1.30864 1.00826,1.48397 -0.91353,0.80464 -5.26921,-1.8626 -8.28396,-2.16854 -10.04696,-1.01956 -2.14641,1.39883 -0.87421,4.1623 1.91619,4.1623 2.3813,0 2.41097,2.57655 0.0652,5.66667 -2.22872,2.93597 -8.10636,3.22924 -7.00124,0.34933 z m 10.11881,0.51238 c 1.79383,-0.71642 3.92211,-1.72839 4.72951,-2.24882 0.8074,-0.52042 0.32325,0.10378 -1.07588,1.38711 -1.39915,1.28333 -3.52743,2.29531 -4.72951,2.24881 -1.38179,-0.0535 -0.98609,-0.56358 1.07588,-1.3871 z m 18.84376,-0.63949 c 0.064,-1.55325 0.37992,-1.8692 0.80555,-0.80555 0.38516,0.9625 0.3378,2.11249 -0.1052,2.55556 -0.44307,0.44305 -0.75819,-0.34446 -0.7003,-1.75001 z M 77.536722,129.12994 c -0.506236,-2.30488 -0.642499,-4.46862 -0.302807,-4.80831 0.339692,-0.33969 1.000955,1.29905 1.469473,3.64164 1.111535,5.55767 0.03435,6.63485 -1.166666,1.16667 z m -7.709689,1.75537 c -0.353863,-0.59879 -1.073563,-3.09309 -1.599335,-5.5429 -0.755852,-3.52186 -1.48678,-4.31538 -3.491969,-3.79101 -1.394811,0.36475 -2.199782,0.11913 -1.788824,-0.54581 0.410957,-0.66494 1.461785,-1.21165 2.335173,-1.2149 1.122717,-0.004 1.643131,-4.39902 1.77622,-15 0.141427,-11.265134 0.85324,-16.853044 2.862196,-22.468951 3.543489,-9.905597 8.488888,-17.540811 13.820198,-21.337038 4.271421,-3.04152 4.314004,-3.045058 2.315871,-0.19232 -1.11956,1.598394 -3.561165,4.106211 -5.425789,5.572925 -4.392492,3.455134 -13.046241,23.20722 -9.098595,20.767442 0.887964,-0.548792 0.502244,0.704001 -0.857154,2.783986 -2.057319,3.147855 -2.446444,6.248571 -2.321354,18.497496 0.08265,8.09364 0.849442,16.44892 1.703971,18.56729 1.429791,3.54444 1.2596,6.42546 -0.230609,3.90379 z m 127.302437,-1.75537 c 1.19451,-2.28851 1.73997,-9.31352 1.74023,-22.41203 2e-4,-10.493272 0.39054,-17.693272 0.86745,-15.999993 0.47691,1.693279 0.92691,8.928689 1,16.078683 0.0963,9.41664 0.5923,13.01118 1.79957,13.04055 0.92496,0.0225 0.62828,0.64535 -0.66667,1.39959 -1.28333,0.74747 -2.33333,2.41454 -2.33333,3.70461 0,1.29007 -0.93309,3.51025 -2.07356,4.93375 -1.93921,2.4205 -1.96084,2.37222 -0.33369,-0.74516 z m -7.31983,-3.66667 c 1.29806,-6.12049 1.3432,-16.0467 0.141,-30.999997 l -0.91116,-11.333333 1.99702,12 c 1.09836,6.6 1.9511,14.1 1.895,16.66666 -0.11947,5.46271 -2.63034,18.66667 -3.54972,18.66667 -0.34791,0 -0.15538,-2.25 0.42786,-5 z m 13.36869,2.44021 c -0.57996,-2.21779 -0.40644,-2.73837 0.58299,-1.74894 0.7748,0.7748 1.14639,2.19576 0.82575,3.15768 -0.33287,0.99859 -0.93726,0.3942 -1.40874,-1.40874 z M 74.938263,115.21413 c -0.506525,-4.0541 -0.542669,-7.98316 -0.08032,-8.73126 0.462349,-0.7481 1.159556,-5.10855 1.549348,-9.689886 0.389792,-4.581342 1.006416,-8.629711 1.370277,-8.996378 0.650102,-0.655115 -0.927529,33.623794 -1.582942,34.394304 -0.184474,0.21687 -0.749836,-2.92268 -1.256363,-6.97678 z m 118.500287,-30.386018 -2.56849,-3.031505 3,2.539984 c 2.2509,1.90576 2.99269,2.072224 2.97072,0.666666 -0.0749,-4.793133 -6.23108,-14.698326 -14.36894,-23.119482 -4.91432,-5.08539 -6.74326,-7.404772 -4.06432,-5.15418 2.67894,2.250592 5.40115,4.311367 6.04936,4.579499 2.74419,1.135129 9.86414,11.69103 11.884,17.619009 2.56932,7.54053 1.07,10.588415 -2.90233,5.900009 z M 91.536721,55.293201 c 0,-0.276875 1.05,-1.326875 2.333334,-2.333334 2.114741,-1.658494 2.161901,-1.611334 0.503406,0.503407 -1.741825,2.220997 -2.83674,2.927305 -2.83674,1.829927 z"
     style="fill:#b68d5e;stroke-width:1.33333325" />
  <path
     inkscape:connector-curvature="0"
     id="path5553"
     d="m 25.328855,261.80484 c 1.188096,-8.66811 6.608433,-18.52783 11.902896,-21.65164 2.468408,-1.45639 9.24683,-3.70501 15.063159,-4.99692 15.63084,-3.47191 42.152593,-12.58268 45.449107,-15.61272 2.748083,-2.52595 2.904463,-2.53447 3.570223,-0.19431 0.38294,1.34604 1.11271,5.74735 1.62172,9.78068 0.509,4.03334 2.56636,12.73334 4.57191,19.33334 2.00555,6.6 4.04393,13.65 4.52973,15.66666 l 0.88326,3.66667 H 68.714226 24.507592 Z m 99.541205,4.20367 c 0,-0.98346 0.84192,-4.58559 1.87093,-8.00475 1.83451,-6.09559 1.80404,-6.26928 -1.56449,-8.91896 l -3.43543,-2.70231 5.16843,-5.29294 c 2.84263,-2.91112 5.90393,-5.29295 6.80288,-5.29295 0.89896,0 3.876,2.11404 6.61565,4.69785 l 4.98117,4.69786 -3.60573,3.76358 c -3.35711,3.50407 -3.5124,4.16847 -2.25217,9.63548 2.14824,9.31923 2.22973,9.20523 -6.58124,9.20523 -5.80085,0 -8,-0.49153 -8,-1.78809 z m 30.66666,-0.0385 c 0,-1.00462 1.79952,-7.88402 3.99894,-15.28753 2.19942,-7.40352 4.55124,-17.36089 5.22628,-22.12749 1.4675,-10.36244 2.43056,-12.37628 4.56945,-9.55514 1.94592,2.56664 27.10541,11.56699 42.872,15.33667 17.8229,4.26132 22.53341,7.12161 26.45913,16.06636 1.78476,4.06656 3.63876,9.64375 4.12003,12.39375 l 0.87501,5 h -44.06042 c -36.41704,1e-5 -44.06042,-0.31686 -44.06042,-1.8266 z m -31,-55.05641 c 0.91667,-0.36988 2.41667,-0.36988 3.33334,0 0.91666,0.36988 0.16666,0.67252 -1.66667,0.67252 -1.83333,0 -2.58333,-0.30264 -1.66667,-0.67252 z m 15.35871,-0.0409 c 1.29729,-0.33806 3.09729,-0.31583 4,0.0495 0.90271,0.36524 -0.15871,0.64183 -2.35871,0.61466 -2.2,-0.0272 -2.93858,-0.326 -1.64129,-0.66406 z m 19.74656,-1.18712 c 0.064,-1.55327 0.37992,-1.8692 0.80555,-0.80556 0.38516,0.96249 0.3378,2.11249 -0.1052,2.55556 -0.44307,0.44305 -0.75819,-0.34446 -0.7003,-1.75 z M 113.66357,207.13 c -5.84791,-3.9685 -5.7685,-3.95636 -6.54108,-1 -0.37515,1.43555 -0.66927,0.92254 -0.76443,-1.33333 -0.1754,-4.15809 1.32791,-4.70296 4.0154,-1.45536 1.00646,1.21621 4.22993,3.30304 7.16326,4.63739 2.93334,1.33433 4.36706,2.43925 3.18607,2.45536 -1.181,0.0161 -4.35765,-1.47072 -7.05922,-3.30406 z m 35.13489,1.86163 c 1.79396,-0.71647 5.83897,-3.41452 8.98893,-5.99568 3.14995,-2.58114 5.37885,-3.78524 4.95311,-2.67576 -0.94263,2.45643 -12.70075,10.1762 -15.32051,10.05863 -1.0358,-0.0465 -0.41548,-0.67072 1.37847,-1.38719 z M 98.033315,194.7966 c -1.658495,-2.11474 -1.611335,-2.1619 0.503406,-0.50341 1.283334,1.00647 2.333329,2.05647 2.333329,2.33333 0,1.09739 -1.09491,0.39108 -2.836735,-1.82992 z m 73.503405,-2.08388 c 0,-0.22946 1.95,-2.17946 4.33334,-4.33333 l 4.33333,-3.91612 -3.91612,4.33333 c -3.65037,4.03928 -4.75055,4.9462 -4.75055,3.91612 z m -51.67927,-7.56469 c -2.31124,-3.70089 -2.07188,-4.33553 1.01261,-2.68476 1.46666,0.78493 2.66666,2.30604 2.66666,3.38024 0,2.75235 -1.73033,2.42527 -3.67927,-0.69548 z m 27.74039,-5.46563 c 0.81855,-1.52946 1.75378,-2.51534 2.0783,-2.19082 0.9332,0.93318 -0.95863,4.97169 -2.32898,4.97169 -0.6811,0 -0.56838,-1.25041 0.25068,-2.78087 z m 37.37748,-15.33024 c 0.064,-1.55326 0.37992,-1.8692 0.80555,-0.80556 0.38516,0.9625 0.3378,2.1125 -0.1052,2.55556 -0.44307,0.44306 -0.75819,-0.34445 -0.70029,-1.75 z M 80.975318,163.01883 c 0.06397,-1.55327 0.379921,-1.8692 0.805556,-0.80556 0.385161,0.96249 0.337792,2.11249 -0.105267,2.55556 -0.443056,0.44305 -0.758188,-0.34445 -0.700293,-1.75 z m 105.333342,-4 c 0.064,-1.55327 0.37992,-1.8692 0.80554,-0.80556 0.38516,0.96249 0.3378,2.11249 -0.1052,2.55556 -0.44306,0.44305 -0.75818,-0.34445 -0.70029,-1.75 z M 78.965294,155.0347 c -0.490428,-1.95402 -0.634544,-3.8099 -0.320258,-4.12419 0.314286,-0.31428 0.972687,1.02732 1.463114,2.98133 0.490428,1.95402 0.634544,3.8099 0.320257,4.12419 -0.314285,0.31428 -0.972687,-1.02732 -1.463113,-2.98133 z m -10.265312,-1.57143 c -1.658495,-2.11475 -1.611335,-2.16191 0.503407,-0.50341 1.283333,1.00646 2.333333,2.05646 2.333333,2.33333 0,1.09739 -1.094915,0.39108 -2.83674,-1.82992 z m 128.170078,0.49659 c 0,-0.27687 1.05,-1.32687 2.33333,-2.33334 2.11474,-1.65849 2.1619,-1.61133 0.50341,0.50342 -1.74182,2.221 -2.83674,2.9273 -2.83674,1.82992 z M 64.699982,148.12994 c -1.658495,-2.11475 -1.611335,-2.16191 0.503407,-0.50342 1.283333,1.00647 2.333333,2.05647 2.333333,2.33334 0,1.09738 -1.094915,0.39108 -2.83674,-1.82992 z m 4.43674,-1.93334 c -2.121744,-2.12174 -2.030133,-6.63541 0.196476,-9.68048 2.399465,-3.28146 4.19622,-0.4429 2.14532,3.38924 -0.833169,1.55679 -1.217088,3.96919 -0.853152,5.36088 0.776665,2.96998 0.637773,3.05678 -1.488644,0.93036 z m 127.733338,-2.24262 c 0,-2.2 -0.5738,-4.35462 -1.27511,-4.78806 -0.70131,-0.43342 -0.9048,-1.75301 -0.45223,-2.93241 0.7331,-1.91041 1.0177,-1.87794 2.60844,0.29753 2.09294,2.86227 2.3724,9.41216 0.45223,10.5989 -0.77572,0.47941 -1.33333,-0.84882 -1.33333,-3.17596 z m -5.22807,-3.60182 c 0.064,-1.55326 0.37992,-1.8692 0.80555,-0.80556 0.38516,0.9625 0.3378,2.1125 -0.1052,2.55556 -0.44307,0.44306 -0.75819,-0.34445 -0.7003,-1.75 z m 14.87073,-5.88889 c 0,-2.56667 0.2744,-3.61667 0.60977,-2.33333 0.33536,1.28333 0.33536,3.38333 0,4.66666 -0.33537,1.28334 -0.60977,0.23334 -0.60977,-2.33333 z m -101.64266,-0.0204 c 1.74053,-1.14258 1.74879,-1.47448 0.0637,-2.55827 -1.06498,-0.68494 -2.41922,-0.94692 -3.00941,-0.58216 -1.89757,1.17276 -2.744425,-3.46928 -1.01341,-5.55502 2.43935,-2.93924 0.70884,-3.80634 -4.188988,-2.09894 -2.356349,0.82142 -4.527179,1.25059 -4.824065,0.95371 -1.399372,-1.39937 9.962183,-3.70746 15.292513,-3.10665 4.53759,0.51145 7.02288,1.74474 10.17523,5.04927 l 4.17113,4.37253 -4.43563,-3.56036 c -4.34444,-3.48716 -10.8977,-4.84164 -10.8977,-2.25243 0,0.71937 1.5,1.68441 3.33333,2.14455 1.8333,0.46014 3.3333,1.23806 3.3333,1.72873 0,2.48427 -4.50868,6.8163 -7.07561,6.79838 -2.38672,-0.0167 -2.55668,-0.26181 -0.92439,-1.33334 z m 55.61222,-1.31841 c -0.49653,-1.89874 -1.37457,-2.41285 -3.0336,-1.77622 -2.01488,0.77318 -2.21905,0.31718 -1.49005,-3.32783 0.99517,-4.97587 -0.0368,-5.24069 -5.24209,-1.34517 l -3.84648,2.87862 3.54794,-3.7296 c 4.5024,-4.7329 14.13391,-6.03063 21.12314,-2.84608 2.5812,1.17609 3.17438,1.72584 1.32892,1.23162 -6.58047,-1.76225 -10.66667,-1.56645 -10.66667,0.51114 0,1.0956 1.2,2.30581 2.66667,2.68935 3.07346,0.80373 3.33168,2.73189 0.8106,6.053 -2.34078,3.08359 -4.33742,2.95345 -5.19838,-0.33883 z m -67.638967,-0.69339 c -2.451076,-2.95337 -1.056318,-3.29289 1.693408,-0.41222 1.283334,1.34444 1.8068,2.44444 1.16326,2.44444 -0.643541,0 -1.929041,-0.9145 -2.856668,-2.03222 z m 77.471187,1.65493 c 0.30556,-0.20751 1.75556,-1.25751 3.22222,-2.33333 2.46668,-1.80935 2.52943,-1.78105 0.83675,0.37729 -1.00647,1.28333 -2.45647,2.33333 -3.22223,2.33333 -0.76576,0 -1.14229,-0.16978 -0.83674,-0.37729 z m 32.86383,-6.1825 c -0.57996,-2.21779 -0.40644,-2.73837 0.58299,-1.74894 0.7748,0.7748 1.14639,2.19576 0.82575,3.15768 -0.33287,0.99859 -0.93726,0.3942 -1.40874,-1.40874 z M 67.536722,122.97443 c 0,-1.49957 -0.812055,-1.94315 -2.668507,-1.45768 -1.467678,0.38381 -2.332268,0.15379 -1.92131,-0.51116 1.47686,-2.38961 5.92315,-1.29538 5.92315,1.45768 0,1.46667 -0.3,2.66667 -0.666666,2.66667 -0.366667,0 -0.666667,-0.96998 -0.666667,-2.15551 z M 199.7365,116.75476 c 0.16174,-4.55417 0.31154,-4.86427 0.78697,-1.62916 0.32297,2.19762 1.18337,4.36412 1.91202,4.81445 0.75123,0.46429 0.41051,1.16964 -0.78697,1.62916 -1.73806,0.66695 -2.07644,-0.18509 -1.91202,-4.81445 z M 66.584741,107.12994 c 0.01,-3.66667 0.26895,-5.00842 0.575422,-2.98167 0.306474,2.02675 0.298283,5.02675 -0.0182,6.66667 -0.316482,1.63991 -0.567232,-0.0183 -0.557222,-3.685 z m 133.211919,-8 c 0.0272,-2.2 0.326,-2.938582 0.66405,-1.641291 0.33805,1.297289 0.31583,3.097291 -0.0495,4.000001 -0.36517,0.90271 -0.64176,-0.15871 -0.61458,-2.35871 z M 67.747249,91.796606 c 0,-1.833333 0.30263,-2.583333 0.672514,-1.666666 0.369883,0.916666 0.369883,2.416666 0,3.333333 -0.369884,0.916667 -0.672514,0.166667 -0.672514,-1.666667 z m 1.310234,-5.333333 c 0,-1.1 0.515658,-3.2 1.145906,-4.666666 0.722286,-1.680852 1.145905,-1.927306 1.145905,-0.666667 0,1.1 -0.515657,3.2 -1.145905,4.666667 -0.722287,1.680852 -1.145906,1.927305 -1.145906,0.666666 z m 107.711657,-30.333332 -3.23242,-3.666667 3.66667,3.232419 c 2.01667,1.77783 3.66667,3.42783 3.66667,3.666666 0,1.045699 -1.07974,0.194634 -4.10092,-3.232418 z m -85.232419,-0.83674 c 0,-0.276875 1.05,-1.326875 2.333334,-2.333334 2.114741,-1.658494 2.161901,-1.611334 0.503406,0.503407 -1.741825,2.220997 -2.83674,2.927305 -2.83674,1.829927 z"
     style="fill:#b7725e;stroke-width:1.33333325" />
  <path
     inkscape:connector-curvature="0"
     id="path5551"
     d="m 25.245466,262.37993 c 1.112589,-8.29496 7.069421,-19.3265 12.005201,-22.2326 2.35733,-1.38794 7.886056,-3.24312 12.286055,-4.12262 13.369072,-2.67227 46.123787,-13.80582 48.675993,-16.54528 2.351145,-2.52367 2.410245,-2.50084 3.122225,1.20574 0.39914,2.07795 1.10803,6.4781 1.57531,9.7781 0.46729,3.3 2.6391,12 4.82626,19.33333 2.18715,7.33333 4.27738,14.38333 4.64494,15.66667 0.62691,2.18878 -2.07387,2.33333 -43.597103,2.33333 H 24.518939 Z m 99.624594,4.32534 c 0,-0.60023 0.94223,-4.26416 2.09384,-8.14207 2.02784,-6.82847 2.00682,-7.11169 -0.66667,-8.98428 -3.64053,-2.54992 -3.48329,-4.21531 0.82228,-8.70936 4.7389,-4.94635 9.04343,-4.77863 14.01753,0.54619 l 4.00355,4.28581 -3.60669,3.10236 c -3.71648,3.19677 -3.81639,4.65605 -1.09494,15.99268 0.68712,2.86229 0.34634,3 -7.42436,3 -4.4795,0 -8.14454,-0.49109 -8.14454,-1.09133 z m 30.68186,-0.57534 c 0.008,-0.91666 1.82807,-7.66666 4.04379,-15 2.21572,-7.33333 4.62619,-17.52064 5.35659,-22.63846 0.73041,-5.11782 1.9107,-9.88782 2.62289,-10.6 0.8376,-0.8376 1.29487,-0.74642 1.29487,0.25822 0,0.8542 1.31822,2.25858 2.92938,3.12084 5.32358,2.8491 29.52049,10.66087 42.74433,13.79967 16.0482,3.80917 21.12571,7.31403 24.70398,17.05244 1.41612,3.85401 2.94545,8.95729 3.39853,11.34063 l 0.82377,4.33333 h -43.96666 c -34.29255,0 -43.96332,-0.36672 -43.95147,-1.66667 z m -35.34113,-80.99182 c -2.04607,-2.26088 -2.10127,-2.67484 -0.3567,-2.67484 1.1352,0 2.44231,0.98588 2.9047,2.19084 1.25989,3.28323 0.17223,3.48983 -2.548,0.484 z m 27.32593,-5.34151 c 0.78494,-1.46666 1.72716,-2.66666 2.09383,-2.66666 0.36667,0 0.0244,1.2 -0.76049,2.66666 -0.78494,1.46667 -1.72716,2.66667 -2.09383,2.66667 -0.36667,0 -0.0244,-1.2 0.76049,-2.66667 z m -41.73576,-46.72823 c -0.48773,-1.86506 -1.47593,-2.68126 -2.6847,-2.21741 -2.28352,0.87627 -2.7463,-5.25457 -0.50137,-6.64201 0.84687,-0.5234 0.38019,-1.31852 -1.16667,-1.98773 -1.662916,-0.71942 -0.051,-0.93987 4.54055,-0.62098 5.74791,0.39919 7.80192,1.22581 10.66667,4.29268 1.95137,2.08906 2.28063,2.75383 0.73167,1.47727 -4.13543,-3.40819 -11.18372,-5.2292 -11.18372,-2.88945 0,1.00722 1.3334,2.76527 2.96312,3.90677 l 2.96312,2.07545 -2.77843,2.77842 -2.77842,2.77842 z m 56.40243,0.72823 c 0,-1.98047 -1.53195,-2.57426 -5.26163,-2.03944 -1.6128,0.23126 -1.64062,-0.0701 -0.17008,-1.84203 0.99622,-1.20036 1.16398,-2.11853 0.38708,-2.11853 -0.89381,0 -0.8346,-1.1568 0.17008,-3.32293 1.23378,-2.66007 2.47212,-3.29849 6.20788,-3.20042 3.80515,0.0999 4.09831,0.28258 1.58798,0.98959 -1.69328,0.4769 -2.97224,1.4671 -2.84212,2.20043 0.433,2.44059 3.48046,5.99591 4.37373,5.10263 1.6094,-1.60939 0.82451,1.52597 -0.97565,3.89737 -2.17238,2.86176 -3.47727,2.98684 -3.47727,0.33333 z m -10.991,-8.33333 c 1.72684,-1.65 3.85624,-2.98175 4.73201,-2.95945 0.87578,0.0223 0.39232,0.70628 -1.07434,1.51997 -1.46667,0.81369 -3.59607,2.14545 -4.73202,2.95946 -1.13593,0.81401 -0.65248,0.13002 1.07435,-1.51998 z"
     style="fill:#1b262c;stroke-width:1.33333325" />
  <path
     inkscape:connector-curvature="0"
     id="path5549"
     d="m 25.13587,265.7966 c 0,-1.46667 0.480384,-4.16667 1.06752,-6 0.845297,-2.63944 1.06752,-2.77823 1.06752,-0.66667 0,1.46667 -0.480384,4.16667 -1.06752,6 -0.845298,2.63944 -1.06752,2.77823 -1.06752,0.66667 z m 20.194289,-0.0575 c -0.434247,-1.13162 -0.491618,-2.35542 -0.127494,-2.71954 0.364126,-0.36414 0.982078,0.56174 1.373226,2.0575 0.830866,3.17724 -0.09229,3.66786 -1.245732,0.66204 z m 33.840632,-1.94253 c -3.240113,-7.57193 -4.020519,-12.94648 -2.045464,-14.08684 0.9596,-0.55404 1.344371,-0.56081 0.855044,-0.0151 -0.489325,0.54579 0.270167,4.36351 1.687763,8.48383 2.920894,8.48972 2.545593,12.72919 -0.497343,5.61804 z m 30.791459,3.26767 c -0.40116,-0.69722 -2.56817,-7.56767 -4.8156,-15.26767 -3.78811,-12.97861 -6.774227,-35.98143 -4.12901,-31.80687 0.6297,0.99378 1.16123,4.20687 1.18116,7.1402 0.0354,5.20744 0.79259,8.43335 6.66347,28.38815 2.52712,8.58957 3.14788,15.10549 1.09998,11.54619 z m 15.48603,-0.93434 c 3.92396,-13.22445 3.97446,-14.5716 0.64057,-17.0873 l -3.21879,-2.42883 4.59489,-4.74192 c 5.60272,-5.782 7.78781,-5.90926 12.73844,-0.74192 l 3.83224,4 -3.35001,3.66667 c -2.68715,2.94113 -3.16347,4.45816 -2.40722,7.66667 0.51855,2.2 1.0138,5.65 1.10058,7.66666 0.15368,3.57224 -0.03,3.66667 -7.13374,3.66667 -5.20806,0 -7.15018,-0.47623 -6.79696,-1.66667 z m 30.08844,0.75804 c 0,-0.49974 2.06022,-7.84974 4.57826,-16.33333 2.51802,-8.48359 4.96002,-18.86525 5.42664,-23.07036 1.32089,-11.90368 2.83032,-10.1186 1.76701,2.08973 -0.52161,5.9891 -2.78369,16.83695 -5.02683,24.10634 -2.24312,7.2694 -4.07841,13.4194 -4.07841,13.66666 0,0.24728 -0.6,0.44959 -1.33333,0.44959 -0.73334,0 -1.33334,-0.40888 -1.33334,-0.90863 z m 30.06987,-2.09137 c 0.50393,-1.65 1.74436,-5.02328 2.75652,-7.49616 2.5692,-6.27708 2.42625,-6.72841 -2.82639,-8.92311 -2.56666,-1.07238 -4.66666,-2.45475 -4.66666,-3.07189 0,-0.61713 1.82158,-2.63113 4.04796,-4.47556 l 4.04794,-3.35349 -4.75628,-3.83988 c -8.6578,-6.98968 -14.71321,-12.7078 -12.00629,-11.33752 1.46667,0.74244 6.26667,4.6684 10.66667,8.72433 l 8,7.37444 -4.54243,3.83575 -4.54244,3.83573 3.4492,0.8657 c 6.95661,1.746 7.77,3.9461 4.75719,12.86753 -1.48482,4.39679 -3.28502,7.99416 -4.00044,7.99416 -0.73155,0 -0.89983,-1.31283 -0.38455,-3 z m 54.80466,-2.99176 c -0.45169,-3.29547 -2.34336,-8.99547 -4.20369,-12.66667 -1.86033,-3.6712 -3.08243,-6.6749 -2.71576,-6.6749 1.58467,0 7.50284,13.87006 8.25279,19.34157 0.45169,3.29547 0.52126,5.99176 0.1546,5.99176 -0.36667,0 -1.03624,-2.69629 -1.48794,-5.99176 z m -19.5412,3.71015 c 0,-1.88743 3.87558,-11.05172 4.67376,-11.05172 0.3509,0 -0.35473,2.55 -1.56805,5.66666 -2.45711,6.31162 -3.10571,7.43624 -3.10571,5.38506 z M 41.925691,256.06837 c -1.252735,-2.71614 -3.352735,-6.41286 -4.666667,-8.21493 -1.313932,-1.80208 -1.646087,-2.82107 -0.738121,-2.26443 2.269282,1.39122 8.687145,12.54124 8.132581,14.12907 -0.247552,0.7088 -1.475059,-0.93357 -2.727793,-3.64971 z m -14.33004,-0.56944 c -0.139848,-2.28854 5.936905,-13.00458 7.774366,-13.70969 1.736504,-0.66636 1.724994,-0.4414 -0.08272,1.61665 -1.154954,1.31488 -3.344795,4.79071 -4.866317,7.72404 -1.52152,2.93334 -2.792917,4.89939 -2.825329,4.369 z m 199.806939,-4.369 c 2.24762,-4.34902 4.09394,-6.76009 4.08406,-5.33333 -0.005,0.73333 -1.23616,2.83333 -2.73573,4.66667 -1.81096,2.21401 -2.26372,2.43788 -1.34833,0.66666 z m -145.495914,-3.78042 3.036622,-1.68594 -3.369955,-3.1659 c -1.853475,-1.74124 -3.369955,-3.90966 -3.369955,-4.81868 0,-0.90903 3.75,-4.60402 8.333334,-8.2111 9.129902,-7.1852 11.666666,-8.87356 11.666666,-7.76484 0,0.40179 -4.2,3.78534 -9.333333,7.519 -5.133333,3.73368 -9.333333,7.22811 -9.333333,7.7654 0,0.5373 1.81114,2.71208 4.024756,4.83287 l 4.024755,3.85596 -3.024755,1.67957 c -1.663616,0.92378 -3.624756,1.67959 -4.35809,1.67959 -0.733333,0 0.03315,-0.75867 1.703288,-1.68593 z m 144.963374,-6.85595 c -2.2,-0.98953 -7.49654,-2.50461 -11.77012,-3.36683 -4.27356,-0.86222 -7.4701,-1.86768 -7.10344,-2.23434 1.6568,-1.6568 23.54023,4.7933 23.54023,6.93845 0,0.78608 0.14911,0.82881 -4.66667,-1.33728 z M 41.677989,238.59965 c 1.533764,-1.34806 16.529904,-4.57633 17.367485,-3.73874 0.53941,0.53941 -4.767376,1.9518 -16.034151,4.26745 -1.388971,0.28547 -1.988971,0.0476 -1.333334,-0.52871 z m 20.2754,-5.0472 c 0.9625,-0.38516 2.1125,-0.3378 2.555556,0.1052 0.443054,0.44306 -0.344446,0.75819 -1.75,0.7003 -1.553258,-0.064 -1.8692,-0.37992 -0.805556,-0.80555 z m 134.916671,-1.37778 c -1.1,-0.4096 -5.1914,-1.92083 -9.092,-3.35828 -3.9006,-1.43747 -6.8891,-2.81647 -6.6411,-3.06447 0.248,-0.248 5.2394,1.27703 11.092,3.38895 5.8526,2.11192 9.74109,3.82605 8.64109,3.8092 -1.09999,-0.0169 -2.89999,-0.36579 -3.99999,-0.7754 z M 79.536722,227.7966 c 1.1,-0.71088 2.6,-1.29249 3.333333,-1.29249 0.733333,0 0.433333,0.58161 -0.666667,1.29249 -1.1,0.71088 -2.6,1.29249 -3.333333,1.29249 -0.733333,0 -0.433333,-0.58161 0.666667,-1.29249 z m 24.290888,-98.87266 c 0.69205,-2.07614 3.67501,-2.43972 3.77954,-0.46067 0.0387,0.73333 -0.93036,1.54064 -2.15356,1.794 -1.39028,0.28799 -1.99981,-0.21183 -1.62598,-1.33333 z m 55.70911,-0.46067 c 0,-1.1 0.9,-2 2,-2 1.1,0 2,0.9 2,2 0,1.1 -0.9,2 -2,2 -1.1,0 -2,-0.9 -2,-2 z"
     style="fill:#090b0c;stroke-width:1.33333325" />
</svg>
