<!DOCTYPE svg PUBLIC "-//W3C//DTD SVG 20010904//EN" "http://www.w3.org/TR/2001/REC-SVG-20010904/DTD/svg10.dtd">
<svg version="1.0" xmlns="http://www.w3.org/2000/svg" width="200px" height="200px" viewBox="0 0 2000 2000" preserveAspectRatio="xMidYMid meet">
<g id="layer101" fill="#e8e6e6" stroke="none">
 <path d="M110 1990 c0 -6 16 -51 36 -100 l37 -89 63 -31 c59 -29 251 -80 302 -80 17 0 22 -6 22 -25 0 -17 9 -29 28 -39 34 -18 74 -60 116 -122 l33 -48 -41 -59 c-71 -103 -75 -110 -87 -159 -10 -39 -17 -48 -38 -50 -17 -2 -38 -21 -67 -63 -76 -106 -84 -127 -84 -209 0 -77 13 -106 47 -106 10 0 13 -5 8 -17 -13 -34 -17 -218 -6 -277 16 -85 46 -142 113 -212 42 -44 78 -70 130 -94 66 -31 85 -34 218 -43 134 -9 152 -8 240 12 107 25 161 52 213 110 91 100 140 293 119 462 -7 59 -6 66 9 62 30 -8 49 35 49 113 0 61 -4 77 -27 110 -14 21 -44 65 -65 96 -24 36 -46 58 -60 60 -18 2 -26 15 -40 62 -10 33 -31 75 -46 94 -15 19 -39 51 -54 71 l-27 36 28 25 c16 14 54 58 85 98 31 39 61 72 66 72 6 0 10 9 10 19 0 22 11 26 85 36 126 16 256 60 282 94 16 21 73 166 73 186 0 13 -97 15 -885 15 -596 0 -885 -3 -885 -10z"/>
 </g>
<g id="layer102" fill="#ebd7ce" stroke="none">
 <path d="M110 1990 c0 -6 16 -51 36 -100 l37 -89 63 -31 c59 -29 251 -80 302 -80 17 0 22 -6 22 -25 0 -17 9 -29 28 -39 34 -18 74 -60 116 -122 l33 -48 -41 -59 c-71 -103 -75 -110 -87 -159 -10 -39 -17 -48 -38 -50 -17 -2 -38 -21 -67 -63 -76 -106 -84 -127 -84 -209 0 -77 13 -106 47 -106 10 0 13 -5 8 -17 -13 -34 -17 -218 -6 -277 16 -85 46 -142 113 -212 42 -44 78 -70 130 -94 66 -31 85 -34 218 -43 134 -9 152 -8 240 12 107 25 161 52 213 110 91 100 140 293 119 462 -7 59 -6 66 9 62 30 -8 49 35 49 113 0 61 -4 77 -27 110 -14 21 -44 65 -65 96 -24 36 -46 58 -60 60 -18 2 -26 15 -40 62 -10 33 -31 75 -46 94 -15 19 -39 51 -54 71 l-27 36 28 25 c16 14 54 58 85 98 31 39 61 72 66 72 6 0 10 9 10 19 0 22 11 26 85 36 126 16 256 60 282 94 16 21 73 166 73 186 0 13 -97 15 -885 15 -596 0 -885 -3 -885 -10z m965 -374 c26 -11 41 -29 65 -77 18 -34 54 -86 81 -114 27 -29 49 -55 49 -58 0 -4 -14 -7 -30 -7 -25 0 -35 -8 -61 -50 -41 -68 -71 -81 -177 -82 -103 -2 -139 13 -173 69 -28 48 -47 63 -76 63 -13 0 -23 3 -23 7 0 3 22 29 49 58 27 28 63 79 80 113 19 37 42 67 58 76 36 19 114 20 158 2z m-516 -1136 c22 -41 61 -90 73 -90 6 0 8 13 6 29 -5 31 1 31 35 3 24 -21 23 2 -2 51 -10 20 -17 37 -14 37 3 0 42 -19 86 -42 79 -41 198 -143 209 -178 3 -11 17 -2 50 32 56 57 114 94 186 119 70 24 77 24 58 -3 -20 -29 -20 -39 0 -31 14 5 15 3 5 -15 -12 -23 -15 -62 -3 -61 4 0 34 17 67 37 51 32 65 47 93 103 20 39 39 98 48 149 8 46 17 86 20 89 13 12 -5 -205 -21 -259 -29 -95 -78 -163 -150 -205 -22 -13 -85 -36 -139 -50 -88 -23 -110 -26 -200 -20 -176 11 -268 48 -360 145 -42 44 -59 71 -72 116 -19 66 -23 197 -9 289 9 57 10 53 15 -80 4 -86 11 -150 19 -165z"/>
 <path d="M893 1465 c-41 -17 -68 -84 -53 -129 15 -47 43 -59 145 -63 104 -4 151 13 173 60 12 25 12 35 -3 74 -30 77 -107 90 -136 22 -6 -16 -15 -29 -19 -29 -4 0 -13 13 -19 29 -17 39 -49 52 -88 36z"/>
 <path d="M550 443 c0 -32 104 -140 163 -168 28 -14 30 -14 12 0 -85 65 -107 86 -139 129 -20 27 -36 44 -36 39z"/>
 <path d="M730 447 c0 -2 26 -21 57 -42 31 -21 79 -58 107 -84 42 -39 46 -41 26 -13 -26 36 -105 99 -158 126 -17 9 -32 15 -32 13z"/>
 <path d="M1415 421 c-9 -28 -119 -130 -160 -146 -19 -9 -35 -18 -35 -20 0 -9 74 25 112 52 46 31 117 133 94 133 -3 0 -7 -8 -11 -19z"/>
 <path d="M1134 392 c-57 -32 -124 -83 -124 -95 0 -5 19 7 43 26 23 19 63 46 90 62 26 15 47 29 47 31 0 6 -2 5 -56 -24z"/>
 <path d="M747 315 c35 -24 106 -55 128 -54 11 0 -4 8 -34 19 -29 11 -64 26 -77 35 -30 20 -45 20 -17 0z"/>
 <path d="M1150 273 c-19 -8 -52 -18 -75 -23 l-40 -8 35 -1 c19 0 58 10 85 23 55 27 51 34 -5 9z"/>
 </g>
<g id="layer103" fill="#dccdcd" stroke="none">
 <path d="M110 1990 c0 -6 16 -51 36 -100 l37 -89 63 -31 c59 -29 251 -80 302 -80 17 0 22 -6 22 -25 0 -17 9 -29 28 -39 34 -18 74 -60 116 -122 l33 -48 -41 -59 c-71 -103 -75 -110 -87 -159 -10 -39 -17 -48 -38 -50 -17 -2 -38 -21 -67 -63 -76 -106 -84 -127 -84 -209 0 -77 13 -106 47 -106 10 0 13 -5 8 -17 -13 -34 -17 -218 -6 -277 16 -85 46 -142 113 -212 42 -44 78 -70 130 -94 66 -31 85 -34 218 -43 134 -9 152 -8 240 12 107 25 161 52 213 110 91 100 140 293 119 462 -7 59 -6 66 9 62 30 -8 49 35 49 113 0 61 -4 77 -27 110 -14 21 -44 65 -65 96 -24 36 -46 58 -60 60 -18 2 -26 15 -40 62 -10 33 -31 75 -46 94 -15 19 -39 51 -54 71 l-27 36 28 25 c16 14 54 58 85 98 31 39 61 72 66 72 6 0 10 9 10 19 0 22 11 26 85 36 126 16 256 60 282 94 16 21 73 166 73 186 0 13 -97 15 -885 15 -596 0 -885 -3 -885 -10z m972 -376 c16 -9 42 -41 64 -82 21 -37 57 -87 81 -110 49 -50 53 -62 19 -62 -28 0 -50 -19 -71 -60 -28 -54 -68 -72 -163 -76 -106 -4 -140 10 -184 75 -37 54 -45 61 -75 61 -33 0 -28 16 20 63 24 23 59 71 77 106 19 35 44 70 57 78 49 33 118 35 175 7z m-62 -479 c0 -8 -6 -15 -14 -15 -7 0 -19 7 -26 15 -11 13 -8 15 14 15 16 0 26 -5 26 -15z m-266 -217 c15 -21 14 -24 -20 -59 l-36 -37 31 -7 c17 -3 35 -4 41 0 5 3 10 1 10 -5 0 -14 -123 -4 -154 12 -17 9 -14 13 25 31 24 12 49 20 54 19 6 -1 2 4 -7 11 -21 17 -22 23 -5 42 18 21 44 18 61 -7z m630 -43 c7 -32 6 -40 -10 -52 -10 -7 -34 -13 -53 -13 -33 1 -35 2 -17 15 18 13 17 14 -7 20 -27 7 -58 35 -39 35 6 0 13 -4 16 -9 7 -11 73 -8 84 4 4 4 2 5 -4 2 -6 -3 -23 0 -38 8 -18 10 -24 10 -19 2 5 -8 2 -8 -9 1 -9 7 -18 21 -20 30 -5 16 -1 17 51 7 53 -11 56 -13 65 -50z m-508 -50 c-19 -15 -46 -20 -46 -10 0 6 40 24 55 24 6 0 1 -6 -9 -14z m-306 -359 c14 -27 36 -56 49 -64 24 -16 24 -16 19 15 -5 33 1 34 35 5 24 -21 23 2 -3 51 -11 20 -17 37 -14 37 3 0 43 -19 87 -42 78 -41 198 -143 209 -178 3 -10 21 3 61 41 56 56 152 111 216 124 34 7 34 7 17 -16 -20 -30 -20 -40 0 -32 14 5 15 3 5 -15 -12 -22 -15 -62 -5 -62 3 0 36 20 73 43 58 38 70 52 93 103 15 32 32 88 38 124 22 120 28 132 29 57 2 -149 -34 -276 -99 -350 -47 -54 -101 -82 -215 -112 -96 -26 -105 -27 -228 -17 -117 9 -135 13 -201 45 -100 50 -178 132 -202 213 -19 66 -23 197 -9 289 9 57 10 54 15 -75 4 -119 8 -142 30 -184z m445 169 c0 -27 -31 -32 -38 -6 -6 24 1 33 23 29 8 -2 15 -12 15 -23z"/>
 <path d="M866 1439 c-22 -26 -26 -40 -24 -77 5 -71 33 -86 158 -87 85 0 102 3 127 21 22 17 29 30 31 66 2 37 -2 51 -24 77 -36 43 -80 40 -109 -6 -11 -18 -22 -32 -25 -32 -3 0 -14 14 -25 32 -29 46 -73 49 -109 6z"/>
 <path d="M565 413 c36 -56 131 -143 158 -143 5 0 -14 17 -42 38 -28 21 -67 60 -87 85 -40 52 -56 62 -29 20z"/>
 <path d="M750 437 c0 -2 21 -19 48 -38 26 -18 67 -52 91 -74 37 -33 41 -35 26 -12 -19 29 -165 139 -165 124z"/>
 <path d="M1416 422 c-9 -28 -119 -130 -158 -147 -18 -8 -27 -14 -20 -15 24 0 91 40 127 77 38 39 70 91 62 100 -3 2 -8 -4 -11 -15z"/>
 <path d="M1115 380 c-56 -33 -115 -80 -101 -80 6 0 19 9 30 19 12 11 48 35 81 55 33 20 56 36 50 36 -5 0 -32 -14 -60 -30z"/>
 <path d="M744 321 c10 -15 104 -61 126 -60 8 0 -11 11 -44 24 -32 14 -66 30 -74 37 -13 11 -14 11 -8 -1z"/>
 <path d="M1168 280 c-9 -6 -40 -17 -70 -25 -52 -15 -52 -15 -9 -10 38 5 132 44 106 44 -5 0 -17 -4 -27 -9z"/>
 </g>
<g id="layer104" fill="#f0c8b3" stroke="none">
 <path d="M110 1990 c0 -6 16 -51 36 -100 l37 -89 63 -31 c59 -29 251 -80 302 -80 17 0 22 -6 22 -25 0 -17 9 -29 28 -39 34 -18 74 -60 116 -122 l33 -48 -41 -59 c-71 -103 -75 -110 -87 -159 -10 -39 -17 -48 -38 -50 -17 -2 -38 -21 -67 -63 -76 -106 -84 -127 -84 -209 0 -77 13 -106 47 -106 10 0 13 -5 8 -17 -13 -34 -17 -218 -6 -277 16 -85 46 -142 113 -212 68 -71 165 -122 250 -130 53 -5 53 -5 -21 16 -41 11 -94 31 -117 45 -62 36 -137 115 -165 172 -22 44 -24 59 -23 198 1 205 19 247 27 65 7 -155 15 -192 56 -240 l30 -35 1 33 c0 32 0 32 25 16 30 -20 31 -15 5 36 -11 22 -19 40 -16 40 13 0 110 -49 162 -82 60 -37 136 -110 146 -139 3 -10 23 3 67 44 69 63 109 87 190 111 73 21 79 20 51 -9 -20 -21 -21 -25 -6 -25 10 0 14 -5 10 -11 -4 -6 -10 -26 -14 -44 l-7 -33 61 37 c33 21 71 53 84 71 40 59 64 156 70 280 5 92 7 107 13 75 4 -22 8 -92 8 -156 1 -160 -28 -254 -106 -340 -73 -81 -237 -135 -383 -126 -49 3 -72 2 -55 -3 92 -24 297 6 381 55 52 31 107 91 139 155 46 92 72 255 57 371 -7 59 -6 66 9 62 30 -8 49 35 49 113 0 61 -4 77 -27 110 -14 21 -44 65 -65 96 -24 36 -46 58 -60 60 -18 2 -26 15 -40 62 -10 33 -31 75 -46 94 -15 19 -39 51 -54 71 l-27 36 28 25 c16 14 54 58 85 98 31 39 61 72 66 72 6 0 10 9 10 19 0 22 11 26 85 36 126 16 256 60 282 94 16 21 73 166 73 186 0 13 -97 15 -885 15 -596 0 -885 -3 -885 -10z m932 -360 c46 -13 93 -52 115 -94 8 -17 40 -57 69 -88 61 -64 68 -88 26 -88 -29 0 -53 -21 -85 -72 -30 -47 -61 -61 -152 -65 -110 -5 -141 9 -195 82 -35 47 -46 56 -68 53 -45 -5 -38 26 22 91 30 32 61 72 69 88 22 41 67 80 107 91 47 13 49 14 92 2z m-22 -495 c0 -8 -6 -15 -14 -15 -7 0 -19 7 -26 15 -11 13 -8 15 14 15 16 0 26 -5 26 -15z m-266 -217 c15 -21 14 -24 -20 -59 l-36 -37 31 -7 c17 -3 35 -4 41 0 5 3 10 1 10 -5 0 -14 -123 -4 -154 12 -17 9 -14 13 25 31 24 12 49 20 54 19 6 -1 2 4 -7 11 -21 17 -22 23 -5 42 18 21 44 18 61 -7z m630 -43 c7 -32 6 -40 -10 -52 -10 -7 -34 -13 -53 -13 -33 1 -35 2 -17 15 18 13 17 14 -7 20 -27 7 -58 35 -39 35 6 0 13 -4 16 -9 7 -11 73 -8 84 4 4 4 2 5 -4 2 -6 -3 -23 0 -38 8 -18 10 -24 10 -19 2 5 -8 2 -8 -9 1 -9 7 -18 21 -20 30 -5 16 -1 17 51 7 53 -11 56 -13 65 -50z m-508 -50 c-19 -15 -46 -20 -46 -10 0 6 40 24 55 24 6 0 1 -6 -9 -14z m139 -190 c0 -27 -31 -32 -38 -6 -6 24 1 33 23 29 8 -2 15 -12 15 -23z"/>
 <path d="M866 1439 c-50 -59 -21 -158 46 -160 40 -1 152 -1 176 0 38 2 72 44 72 90 0 52 -39 101 -80 101 -29 0 -70 -39 -70 -66 0 -8 -4 -14 -10 -14 -5 0 -10 6 -10 14 0 7 -9 25 -21 40 -29 37 -70 35 -103 -5z"/>
 </g>
<g id="layer105" fill="#dfc3b4" stroke="none">
 <path d="M110 1990 c0 -6 16 -51 36 -100 l37 -89 63 -31 c59 -29 251 -80 302 -80 17 0 22 -6 22 -25 0 -17 9 -29 28 -39 34 -18 74 -60 116 -122 l33 -48 -41 -59 c-71 -103 -75 -110 -87 -159 -10 -39 -17 -48 -38 -50 -17 -2 -38 -21 -67 -63 -76 -106 -84 -127 -84 -209 0 -77 13 -106 47 -106 10 0 13 -5 8 -17 -13 -34 -17 -218 -6 -277 16 -85 46 -142 113 -212 68 -71 165 -122 250 -130 53 -5 53 -5 -21 16 -41 11 -94 31 -117 45 -62 36 -137 115 -165 172 -22 44 -24 59 -23 198 1 205 19 247 27 65 7 -155 15 -192 56 -240 l30 -35 1 33 c0 32 0 32 25 16 30 -20 31 -15 5 36 -11 22 -19 40 -16 40 13 0 110 -49 162 -82 60 -37 136 -110 146 -139 3 -10 23 3 67 44 69 63 109 87 190 111 73 21 79 20 51 -9 -20 -21 -21 -25 -6 -25 10 0 14 -5 10 -11 -4 -6 -10 -26 -14 -44 l-7 -33 61 37 c33 21 71 53 84 71 40 59 64 156 70 280 5 92 7 107 13 75 4 -22 8 -92 8 -156 1 -160 -28 -254 -106 -340 -73 -81 -237 -135 -383 -126 -49 3 -72 2 -55 -3 92 -24 297 6 381 55 52 31 107 91 139 155 46 92 72 255 57 371 -7 59 -6 66 9 62 30 -8 49 35 49 113 0 61 -4 77 -27 110 -14 21 -44 65 -65 96 -24 36 -46 58 -60 60 -18 2 -26 15 -40 62 -10 33 -31 75 -46 94 -15 19 -39 51 -54 71 l-27 36 28 25 c16 14 54 58 85 98 31 39 61 72 66 72 6 0 10 9 10 19 0 22 11 26 85 36 126 16 256 60 282 94 16 21 73 166 73 186 0 13 -48 15 -401 15 l-402 0 6 -60 c4 -33 10 -72 13 -87 6 -23 4 -25 -13 -21 -20 5 -20 5 1 -45 20 -48 21 -49 26 -21 l5 29 22 -35 c26 -42 70 -186 60 -196 -4 -4 -25 7 -47 25 -51 41 -104 59 -161 56 -58 -4 -92 -18 -145 -61 -37 -31 -45 -34 -50 -20 -9 24 73 226 92 226 4 0 4 -26 0 -57 l-5 -58 23 73 c13 40 29 79 36 87 7 9 8 15 2 15 -6 0 -2 17 8 38 10 20 22 54 28 75 l10 37 -439 0 c-292 0 -439 -3 -439 -10z m932 -360 c46 -13 93 -52 115 -94 8 -17 40 -57 69 -88 62 -65 68 -88 25 -88 -21 0 -36 -9 -53 -30 -63 -83 -73 -92 -128 -105 -44 -11 -49 -13 -23 -14 36 -1 78 13 97 32 6 6 26 33 44 58 25 38 38 48 66 51 31 3 37 0 55 -32 28 -51 118 -385 113 -421 -5 -36 -22 -39 -22 -4 0 34 -24 80 -52 99 -27 19 -142 22 -202 5 -56 -16 -96 -58 -96 -103 l0 -36 -50 0 c-50 0 -50 0 -50 33 0 76 -69 116 -198 117 -79 0 -85 -2 -112 -28 -16 -16 -33 -48 -40 -70 -12 -47 -30 -56 -30 -15 0 43 100 385 121 415 10 15 19 32 19 38 0 6 4 9 9 6 5 -4 7 3 4 13 -3 13 12 37 50 79 31 33 62 73 70 89 22 41 67 80 107 91 47 13 49 14 92 2z m-454 -500 c-6 -21 -13 -39 -17 -38 -17 2 -22 -3 -14 -14 6 -9 5 -27 -3 -53 -11 -34 -13 -36 -13 -13 -1 35 -18 44 -42 22 -23 -21 -24 -36 -3 -75 8 -17 13 -36 11 -42 -6 -18 -37 48 -37 77 0 16 15 42 36 66 20 22 34 43 31 47 -9 9 32 63 48 63 10 0 11 -8 3 -40z m858 15 c9 -14 14 -28 11 -32 -4 -3 12 -26 33 -51 22 -25 40 -53 40 -64 0 -28 -28 -90 -39 -84 -5 3 0 23 11 45 21 42 15 72 -17 85 -12 4 -14 0 -9 -19 3 -13 1 -32 -6 -42 -10 -15 -10 -14 -5 10 4 18 2 26 -7 25 -6 -2 -13 6 -15 17 -3 19 -3 19 5 1 8 -19 9 -19 14 1 6 24 -8 53 -26 53 -8 0 -18 18 -24 40 -8 32 -7 40 4 40 7 0 21 -11 30 -25z m-638 -182 c2 -29 -18 -41 -25 -14 -4 16 -13 21 -39 21 -38 0 -43 -9 -14 -27 39 -25 42 -47 8 -82 l-31 -32 34 3 c19 1 39 9 46 18 10 13 12 13 18 -2 5 -12 18 -18 37 -18 l29 0 -26 34 -25 33 21 26 c13 17 29 26 44 25 13 -1 21 -6 19 -10 -3 -4 3 -19 12 -33 15 -23 15 -27 0 -50 -10 -14 -29 -31 -44 -37 -37 -14 -212 -14 -240 1 -40 21 -23 132 25 160 10 6 47 10 84 8 59 -2 65 -4 67 -24z m522 15 c0 -5 5 -7 12 -5 7 1 12 -2 13 -8 0 -5 6 -20 13 -31 6 -12 14 -40 18 -62 5 -33 3 -42 -12 -50 -26 -13 -142 -25 -157 -15 -6 4 -23 6 -37 5 -30 -4 -83 14 -77 25 2 5 -4 16 -14 25 -13 12 -19 13 -23 5 -6 -12 -2 24 5 53 2 8 15 23 28 32 24 16 25 16 53 -15 15 -18 28 -35 28 -39 0 -3 -12 -20 -26 -37 l-26 -31 28 0 c15 0 32 7 39 17 12 16 40 9 30 -8 -4 -5 11 -9 31 -9 l38 0 -32 33 -32 33 30 32 c17 19 30 35 30 38 0 2 -16 4 -35 4 -24 0 -35 -5 -35 -14 0 -23 -19 -29 -27 -9 -4 10 -13 23 -20 28 -9 7 13 10 72 10 47 0 85 -3 85 -7z m206 -63 c-4 -19 -10 -35 -15 -35 -18 0 -19 14 -4 46 20 41 28 37 19 -11z m-1031 -55 c-6 -19 -34 -35 -44 -24 -3 3 4 13 17 21 12 9 22 20 22 25 0 6 -6 6 -14 -1 -11 -9 -15 -7 -20 11 -14 52 -6 61 19 23 15 -22 23 -44 20 -55z m1026 -23 c-12 -12 -41 8 -41 29 0 12 5 11 26 -2 17 -11 22 -20 15 -27z m-462 -1 c6 -4 9 -16 6 -27 -5 -16 2 -23 37 -38 102 -45 223 -47 260 -4 30 36 29 43 -4 23 -34 -20 -90 -25 -138 -11 -17 5 0 9 58 13 68 4 86 9 107 28 l24 23 7 -27 c3 -14 3 -33 0 -42 -3 -9 -10 -64 -16 -122 -5 -59 -16 -127 -25 -152 -16 -44 -59 -100 -79 -100 -5 0 2 13 17 28 21 22 24 31 15 40 -10 10 -10 15 2 23 11 7 -13 9 -80 7 -112 -5 -181 -31 -254 -98 -25 -24 -46 -38 -46 -33 0 26 -191 137 -299 174 -68 24 -74 24 -61 0 6 -12 7 -28 1 -43 -8 -22 -9 -21 -14 12 -9 51 -16 330 -9 330 3 0 16 -10 29 -22 18 -17 39 -22 105 -26 58 -4 75 -8 58 -13 -48 -14 -104 -9 -138 11 l-33 20 11 -20 c29 -55 119 -70 227 -37 73 22 96 36 89 54 -4 9 -2 21 3 27 10 12 120 14 140 2z"/>
 <path d="M866 1439 c-20 -23 -26 -41 -25 -72 l2 -42 6 46 c7 50 23 76 56 89 15 7 16 9 3 9 -9 1 -28 -13 -42 -30z"/>
 <path d="M947 1455 c13 -9 28 -34 34 -56 9 -29 15 -37 23 -28 8 8 8 13 -1 16 -7 3 -13 10 -13 17 0 18 -39 66 -53 66 -6 0 -2 -7 10 -15z"/>
 <path d="M1034 1448 c-19 -23 -19 -23 1 -7 11 9 27 19 35 22 13 5 13 6 -1 6 -9 1 -24 -9 -35 -21z"/>
 <path d="M1119 1439 c36 -35 42 -88 15 -129 l-16 -25 21 24 c30 34 28 91 -5 130 -14 17 -30 31 -36 31 -5 0 4 -14 21 -31z"/>
 <path d="M791 1329 c16 -17 29 -37 29 -43 0 -32 97 -83 137 -73 14 4 12 5 -5 6 -48 2 -91 30 -131 85 -23 31 -46 56 -50 56 -5 0 4 -14 20 -31z"/>
 <path d="M905 1339 c-12 -18 5 -24 85 -27 77 -4 127 9 115 29 -9 13 -192 12 -200 -2z"/>
 <path d="M869 1301 c13 -12 28 -21 34 -21 12 0 11 0 -28 24 l-30 17 24 -20z"/>
 <path d="M962 1195 c-19 -9 -32 -21 -32 -32 0 -24 48 -194 56 -202 8 -7 -3 132 -12 166 -5 20 -2 23 35 29 48 8 52 18 13 38 -23 12 -32 12 -60 1z"/>
 <path d="M860 1079 c0 -17 26 -57 33 -49 2 3 -4 19 -14 35 -11 17 -19 23 -19 14z"/>
 <path d="M1143 1078 c-18 -24 -24 -38 -16 -38 10 0 36 40 30 46 -2 3 -9 -1 -14 -8z"/>
 <path d="M536 1065 c-3 -8 -1 -17 3 -20 5 -3 11 2 15 10 3 8 1 17 -3 20 -5 3 -11 -2 -15 -10z"/>
 <path d="M976 1871 c-3 -5 10 -11 29 -13 27 -3 32 -1 23 9 -12 15 -44 17 -52 4z"/>
 </g>
<g id="layer106" fill="#d4bab7" stroke="none">
 <path d="M110 1990 c0 -6 16 -51 36 -100 l37 -89 63 -31 c59 -29 251 -80 302 -80 17 0 22 -6 22 -25 0 -17 9 -29 28 -39 34 -18 74 -60 116 -122 l33 -48 -41 -59 c-71 -103 -75 -110 -87 -159 -10 -39 -17 -48 -38 -50 -17 -2 -38 -21 -67 -63 -76 -106 -84 -127 -84 -209 0 -77 13 -106 47 -106 10 0 13 -5 8 -17 -13 -34 -17 -218 -6 -277 16 -85 46 -142 113 -212 68 -71 165 -122 250 -130 53 -5 53 -5 -21 16 -41 11 -94 31 -117 45 -62 36 -137 115 -165 172 -22 44 -24 59 -23 198 1 205 19 247 27 65 7 -155 15 -192 56 -240 l30 -35 1 33 c0 32 0 32 25 16 30 -20 31 -15 5 36 -11 22 -19 40 -16 40 13 0 110 -49 162 -82 60 -37 136 -110 146 -139 3 -10 23 3 67 44 69 63 109 87 190 111 73 21 79 20 51 -9 -20 -21 -21 -25 -6 -25 10 0 14 -5 10 -11 -4 -6 -10 -26 -14 -44 l-7 -33 61 37 c33 21 71 53 84 71 40 59 64 156 70 280 5 92 7 107 13 75 4 -22 8 -92 8 -156 1 -160 -28 -254 -106 -340 -73 -81 -237 -135 -383 -126 -49 3 -72 2 -55 -3 92 -24 297 6 381 55 52 31 107 91 139 155 46 92 72 255 57 371 -7 59 -6 66 9 62 30 -8 49 35 49 113 0 61 -4 77 -27 110 -14 21 -44 65 -65 96 -24 36 -46 58 -60 60 -18 2 -26 15 -40 62 -10 33 -31 75 -46 94 -15 19 -39 51 -54 71 l-27 36 28 25 c16 14 54 58 85 98 31 39 61 72 66 72 6 0 10 9 10 19 0 22 11 26 85 36 126 16 256 60 282 94 16 21 73 166 73 186 0 13 -48 15 -401 15 l-402 0 6 -60 c4 -33 10 -72 13 -87 6 -23 4 -25 -13 -21 -20 5 -20 5 1 -45 20 -48 21 -49 26 -21 l5 29 22 -35 c25 -41 70 -186 60 -196 -3 -3 -28 10 -55 29 -95 70 -193 69 -289 -4 -63 -47 -76 -37 -48 39 23 61 74 162 81 162 4 0 4 -26 0 -57 l-5 -58 23 73 c13 40 29 79 36 87 7 9 8 15 2 15 -6 0 -2 17 8 38 10 20 22 54 28 75 l10 37 -439 0 c-292 0 -439 -3 -439 -10z m932 -360 c46 -13 93 -52 115 -94 8 -17 40 -57 70 -89 40 -41 54 -63 50 -77 -3 -11 -2 -18 2 -15 17 10 53 -81 99 -249 45 -164 54 -236 31 -236 -5 0 -9 11 -9 25 0 34 -24 80 -52 99 -27 19 -142 22 -202 5 -56 -16 -96 -58 -96 -103 l0 -36 -50 0 c-50 0 -50 0 -50 33 0 76 -69 116 -198 117 -79 0 -85 -2 -112 -28 -16 -16 -33 -48 -40 -70 -12 -47 -30 -56 -30 -15 0 43 100 385 121 415 10 15 19 32 19 38 0 6 4 9 9 6 5 -4 7 3 4 13 -3 13 12 37 50 79 31 33 62 73 70 89 22 41 67 80 107 91 47 13 49 14 92 2z m-454 -500 c-6 -21 -13 -39 -17 -38 -17 2 -22 -3 -14 -14 6 -9 5 -27 -3 -53 -11 -34 -13 -36 -13 -13 -1 35 -18 44 -42 22 -23 -21 -24 -36 -3 -75 8 -17 13 -36 11 -42 -6 -18 -37 48 -37 77 0 16 15 42 36 66 20 22 34 43 31 47 -9 9 32 63 48 63 10 0 11 -8 3 -40z m858 15 c9 -14 14 -28 11 -32 -4 -3 12 -26 33 -51 22 -25 40 -53 40 -64 0 -28 -28 -90 -39 -84 -5 3 0 23 11 45 21 42 15 72 -17 85 -12 4 -14 0 -9 -19 3 -13 1 -32 -6 -42 -10 -15 -10 -14 -5 10 4 18 2 26 -7 25 -6 -2 -13 6 -15 17 -3 19 -3 19 5 1 8 -19 9 -19 14 1 6 24 -8 53 -26 53 -8 0 -18 18 -24 40 -8 32 -7 40 4 40 7 0 21 -11 30 -25z m-616 -165 c23 -7 23 -8 4 -9 -13 -1 -24 -10 -28 -23 l-6 -23 -19 23 c-11 12 -31 22 -45 22 -33 0 -33 -6 4 -37 17 -13 30 -28 30 -33 0 -4 -13 -22 -29 -39 l-28 -30 33 1 c18 1 35 7 38 15 7 18 26 17 26 -2 0 -10 10 -15 32 -15 l31 0 -20 23 c-35 39 -36 46 -5 81 30 34 30 34 51 15 46 -43 41 -97 -13 -123 -46 -22 -216 -27 -254 -7 -37 20 -29 102 16 154 12 13 30 17 86 16 39 -1 82 -5 96 -9z m503 4 c25 -9 57 -76 57 -118 0 -48 -24 -59 -134 -59 -149 -1 -208 31 -190 100 15 60 55 80 161 82 49 1 97 -1 106 -5z m203 -69 c-4 -19 -10 -35 -15 -35 -18 0 -19 14 -4 46 20 41 28 37 19 -11z m-1031 -55 c-6 -19 -34 -35 -44 -24 -3 3 4 13 17 21 12 9 22 20 22 25 0 6 -6 6 -14 -1 -11 -9 -15 -7 -20 11 -14 52 -6 61 19 23 15 -22 23 -44 20 -55z m1026 -23 c-12 -12 -41 8 -41 29 0 12 5 11 26 -2 17 -11 22 -20 15 -27z m-462 -1 c6 -4 9 -16 6 -27 -5 -16 2 -23 37 -38 102 -45 223 -47 260 -4 30 36 29 43 -4 23 -34 -20 -90 -25 -138 -11 -17 5 0 9 58 13 68 4 86 9 107 28 l24 23 7 -27 c3 -14 3 -33 0 -42 -3 -9 -10 -64 -16 -122 -5 -59 -16 -127 -25 -152 -16 -44 -59 -100 -79 -100 -5 0 2 13 17 28 21 22 24 31 15 40 -10 10 -10 15 2 23 11 7 -13 9 -80 7 -112 -5 -181 -31 -254 -98 -25 -24 -46 -38 -46 -33 0 26 -191 137 -299 174 -68 24 -74 24 -61 0 6 -12 7 -28 1 -43 -8 -22 -9 -21 -14 12 -9 51 -16 330 -9 330 3 0 16 -10 29 -22 18 -17 39 -22 105 -26 58 -4 75 -8 58 -13 -48 -14 -104 -9 -138 11 l-33 20 11 -20 c29 -55 119 -70 227 -37 73 22 96 36 89 54 -4 9 -2 21 3 27 10 12 120 14 140 2z"/>
 <path d="M866 1439 c-20 -23 -26 -41 -25 -72 l2 -42 6 46 c7 50 23 76 56 89 15 7 16 9 3 9 -9 1 -28 -13 -42 -30z"/>
 <path d="M938 1463 c8 -3 22 -19 33 -37 10 -17 19 -26 19 -20 0 17 -40 64 -53 63 -8 0 -7 -3 1 -6z"/>
 <path d="M1034 1448 c-19 -23 -19 -23 1 -7 11 9 27 19 35 22 13 5 13 6 -1 6 -9 1 -24 -9 -35 -21z"/>
 <path d="M1121 1441 c34 -34 39 -90 13 -131 l-16 -25 21 24 c30 34 28 91 -5 130 -14 17 -30 31 -34 31 -5 0 5 -13 21 -29z"/>
 <path d="M772 1349 c10 -5 29 -30 43 -54 28 -47 91 -86 136 -84 17 1 13 4 -14 10 -58 14 -73 25 -117 84 -22 30 -46 55 -53 55 -7 0 -4 -5 5 -11z"/>
 <path d="M1198 1330 c-60 -79 -74 -91 -123 -105 -31 -8 -41 -14 -26 -14 45 -2 104 36 138 88 19 30 41 51 55 54 22 4 22 4 1 6 -13 0 -30 -11 -45 -29z"/>
 <path d="M905 1339 c-12 -18 5 -24 85 -27 77 -4 127 9 115 29 -9 13 -192 12 -200 -2z"/>
 <path d="M869 1301 c13 -12 28 -21 34 -21 12 0 11 0 -28 24 l-30 17 24 -20z"/>
 <path d="M962 1195 c-19 -9 -32 -21 -32 -32 0 -24 48 -194 56 -202 8 -7 -3 132 -12 166 -5 20 -2 23 35 29 48 8 52 18 13 38 -23 12 -32 12 -60 1z"/>
 <path d="M860 1079 c0 -17 26 -57 33 -49 2 3 -4 19 -14 35 -11 17 -19 23 -19 14z"/>
 <path d="M1143 1078 c-18 -24 -24 -38 -16 -38 10 0 36 40 30 46 -2 3 -9 -1 -14 -8z"/>
 <path d="M536 1065 c-3 -8 -1 -17 3 -20 5 -3 11 2 15 10 3 8 1 17 -3 20 -5 3 -11 -2 -15 -10z"/>
 <path d="M1130 965 c0 -3 11 -18 25 -33 31 -33 31 -34 -1 -71 l-26 -31 28 0 c15 0 33 8 40 18 13 16 15 16 28 0 7 -10 26 -18 42 -18 l28 0 -32 33 -32 33 31 37 30 37 -28 0 c-18 0 -33 -8 -41 -21 -11 -16 -16 -18 -27 -9 -8 7 -12 16 -9 21 3 5 -9 9 -25 9 -17 0 -31 -2 -31 -5z"/>
 <path d="M976 1871 c-3 -5 10 -11 29 -13 27 -3 32 -1 23 9 -12 15 -44 17 -52 4z"/>
 </g>
<g id="layer107" fill="#e6b59b" stroke="none">
 <path d="M110 1989 c0 -5 16 -50 36 -99 l37 -89 63 -31 c59 -29 251 -80 302 -80 17 0 22 -6 22 -25 0 -17 9 -29 28 -39 33 -17 88 -75 120 -128 13 -21 29 -38 35 -38 7 -1 2 -9 -10 -19 -13 -11 -23 -22 -23 -26 0 -4 -18 -30 -40 -58 -24 -29 -48 -75 -58 -108 -14 -49 -21 -59 -41 -61 -17 -2 -38 -22 -67 -63 -76 -106 -84 -127 -84 -209 0 -77 13 -106 47 -106 10 0 13 -5 8 -17 -13 -34 -17 -218 -6 -277 16 -84 46 -142 110 -210 50 -52 171 -128 171 -107 0 4 -19 16 -42 28 -120 58 -210 190 -228 335 -15 119 12 292 58 374 6 10 10 -56 10 -181 2 -197 9 -254 36 -290 15 -19 15 -19 16 10 0 23 3 27 10 15 9 -13 10 -13 10 1 0 8 -7 24 -16 35 -8 10 -13 14 -10 7 3 -6 2 -22 -3 -35 -8 -22 -9 -21 -14 12 -10 61 -15 330 -7 330 10 0 24 -20 26 -38 4 -25 37 -52 76 -62 40 -11 80 -7 160 15 70 20 90 33 83 55 -8 26 10 34 75 34 66 0 83 -8 75 -35 -5 -16 2 -23 37 -38 67 -30 160 -44 207 -31 38 10 86 54 76 70 -3 4 2 13 10 20 12 10 15 7 21 -14 3 -14 3 -33 0 -42 -3 -9 -10 -64 -16 -122 -10 -122 -29 -184 -68 -226 -27 -30 -27 -30 -2 -14 43 26 71 96 81 200 19 198 21 243 11 268 -8 18 -11 20 -11 8 -1 -28 -21 -21 -21 7 0 34 -24 80 -52 99 -27 19 -142 22 -202 5 -56 -16 -96 -58 -96 -103 l0 -36 -50 0 c-50 0 -50 0 -50 33 0 76 -69 116 -198 117 -79 0 -85 -2 -112 -28 -16 -16 -33 -48 -40 -70 -12 -47 -30 -56 -30 -15 0 42 99 385 120 414 10 14 23 45 30 67 7 28 23 51 49 72 21 17 51 53 65 80 26 48 60 79 107 100 22 9 21 10 -6 4 -16 -3 -54 -23 -83 -45 -62 -47 -75 -37 -47 39 23 61 74 162 81 162 4 0 4 -26 0 -57 l-5 -58 23 73 c13 40 29 79 36 87 7 9 8 15 2 15 -6 0 -2 17 8 38 10 20 22 54 28 75 l10 37 -439 0 c-281 -1 -439 -4 -439 -11z m137 -178 c15 -7 78 -31 138 -52 61 -22 94 -36 75 -33 -50 9 -147 43 -202 71 -39 19 -53 34 -77 81 -15 31 -31 68 -35 82 -3 14 12 -11 33 -55 28 -56 48 -84 68 -94z m341 -681 c-6 -21 -13 -39 -17 -38 -17 2 -22 -3 -14 -14 6 -9 5 -27 -3 -53 -11 -34 -13 -36 -13 -13 -1 35 -18 44 -42 22 -23 -21 -24 -36 -3 -75 8 -17 13 -36 11 -42 -6 -18 -37 48 -37 77 0 16 15 42 36 66 20 22 34 43 31 47 -9 9 32 63 48 63 10 0 11 -8 3 -40z m242 -150 l25 -8 -24 -1 c-13 -1 -21 -4 -18 -8 8 -7 -11 -33 -24 -33 -4 0 -11 9 -14 20 -5 14 -15 20 -38 20 l-31 0 33 -34 c35 -36 35 -43 -2 -83 l-19 -22 31 1 c18 1 31 6 31 14 0 23 21 27 27 5 4 -16 13 -21 36 -21 l30 0 -20 23 c-35 39 -36 46 -5 81 l30 34 22 -20 c30 -28 42 -65 29 -90 -18 -34 -76 -51 -179 -51 -131 0 -140 4 -140 59 0 46 10 75 38 107 12 13 30 17 86 16 39 -1 82 -5 96 -9z m512 -2 c46 -38 66 -131 33 -158 -20 -16 -200 -18 -246 -2 -57 20 -74 45 -63 89 15 62 58 83 169 83 58 0 97 -5 107 -12z m-837 -118 c-6 -19 -34 -35 -44 -24 -3 3 4 13 17 21 12 9 22 20 22 25 0 6 -6 6 -14 -1 -11 -9 -15 -7 -20 11 -14 52 -6 61 19 23 15 -22 23 -44 20 -55z m230 -71 c45 -1 54 -3 35 -9 -41 -13 -99 -11 -130 5 -39 20 -38 26 2 14 18 -5 60 -9 93 -10z m655 16 c0 -2 -13 -11 -30 -20 -31 -16 -89 -18 -130 -5 -19 6 -9 9 40 10 53 2 88 7 118 19 1 1 2 -1 2 -4z"/>
 <path d="M536 1065 c-3 -8 -1 -17 3 -20 5 -3 11 2 15 10 3 8 1 17 -3 20 -5 3 -11 -2 -15 -10z"/>
 <path d="M1130 966 c0 -3 11 -17 25 -32 31 -34 31 -41 -2 -76 l-27 -28 29 0 c15 0 34 8 41 18 13 16 15 16 28 0 7 -10 23 -18 36 -18 l22 0 -26 35 -26 34 31 36 31 35 -30 0 c-22 0 -32 -6 -37 -20 -3 -11 -10 -20 -14 -20 -13 0 -32 26 -24 33 3 4 -8 7 -25 7 -18 0 -32 -2 -32 -4z"/>
 <path d="M1083 1940 c4 -33 10 -72 13 -87 6 -23 4 -25 -13 -21 -20 5 -20 5 1 -45 20 -48 21 -49 26 -21 l5 29 22 -35 c24 -40 70 -186 61 -196 -4 -3 -30 11 -58 30 -53 37 -96 53 -107 42 -4 -3 2 -6 12 -6 33 0 84 -40 116 -92 17 -29 51 -71 75 -95 24 -23 44 -49 44 -57 0 -8 13 -38 28 -67 15 -30 48 -129 72 -222 28 -103 49 -166 56 -163 33 13 71 -185 60 -308 -8 -88 -31 -176 -62 -242 -27 -58 -107 -138 -158 -159 -39 -17 -167 -52 -211 -58 l-30 -4 32 -2 c50 -2 203 37 249 64 52 31 107 91 139 155 46 92 72 255 57 371 -7 59 -6 66 9 62 30 -8 49 35 49 113 0 61 -4 77 -27 110 -14 21 -44 65 -65 96 -24 36 -46 58 -60 60 -18 2 -26 15 -41 64 -13 45 -33 79 -76 130 l-59 69 29 20 c15 11 56 55 89 98 33 42 65 77 70 77 6 0 10 9 10 19 0 22 11 26 85 36 126 16 256 60 282 94 16 21 73 166 73 186 0 33 -19 12 -36 -37 -35 -108 -59 -143 -113 -166 -50 -22 -164 -52 -191 -51 -8 0 21 11 66 24 44 12 101 32 126 43 43 19 47 24 77 101 17 44 31 85 31 91 0 7 -126 10 -381 10 l-382 0 6 -60z m363 -795 c9 -14 14 -28 11 -32 -4 -3 12 -26 33 -51 22 -25 40 -53 40 -64 0 -28 -28 -90 -39 -84 -5 3 0 23 11 45 21 42 15 72 -17 85 -12 4 -14 0 -9 -19 3 -13 1 -32 -6 -42 -10 -15 -10 -14 -5 10 4 18 2 26 -7 25 -6 -2 -13 6 -15 17 -3 19 -3 19 5 1 8 -19 9 -19 14 1 6 24 -8 53 -26 53 -8 0 -18 18 -24 40 -8 32 -7 40 4 40 7 0 21 -11 30 -25z m90 -230 c-4 -19 -10 -35 -15 -35 -18 0 -19 14 -4 46 20 41 28 37 19 -11z m-5 -78 c-12 -12 -41 8 -41 29 0 12 5 11 26 -2 17 -11 22 -20 15 -27z"/>
 <path d="M976 1871 c-3 -5 10 -11 29 -13 27 -3 32 -1 23 9 -12 15 -44 17 -52 4z"/>
 <path d="M1204 1338 c-19 -23 -19 -23 1 -7 11 9 27 19 35 22 13 5 13 6 -1 6 -9 1 -24 -9 -35 -21z"/>
 <path d="M905 1339 c-12 -18 5 -24 85 -27 77 -4 127 9 115 29 -9 13 -192 12 -200 -2z"/>
 <path d="M1166 1285 c-10 -14 -31 -35 -49 -45 -18 -11 -28 -20 -24 -20 20 0 65 35 81 61 21 36 14 38 -8 4z"/>
 <path d="M826 1278 c3 -7 17 -22 32 -32 27 -19 27 -19 -2 12 -32 35 -38 38 -30 20z"/>
 <path d="M962 1195 c-19 -9 -32 -21 -32 -32 0 -24 48 -194 56 -202 8 -7 -3 132 -12 166 -5 20 -2 23 35 29 48 8 52 18 13 38 -23 12 -32 12 -60 1z"/>
 <path d="M860 1079 c0 -17 26 -57 33 -49 2 3 -4 19 -14 35 -11 17 -19 23 -19 14z"/>
 <path d="M1143 1078 c-18 -24 -24 -38 -16 -38 10 0 36 40 30 46 -2 3 -9 -1 -14 -8z"/>
 <path d="M745 492 c66 -32 141 -75 168 -95 26 -20 47 -33 47 -28 0 15 -116 90 -202 130 -134 63 -144 58 -13 -7z"/>
 <path d="M1153 485 c-57 -17 -122 -57 -158 -95 -27 -29 -25 -29 25 9 74 55 148 82 250 91 l85 7 -80 1 c-44 0 -99 -5 -122 -13z"/>
 <path d="M1310 425 c-13 -14 -22 -27 -19 -29 2 -2 14 10 27 25 29 36 24 38 -8 4z"/>
 <path d="M775 191 c6 -5 28 -12 50 -15 27 -4 33 -3 20 2 -35 16 -81 24 -70 13z"/>
 </g>
<g id="layer108" fill="#b0afaf" stroke="none">
 <path d="M110 1989 c0 -5 16 -50 36 -99 l37 -89 63 -31 c59 -29 251 -80 302 -80 17 0 22 -6 22 -25 0 -17 9 -29 28 -39 33 -17 88 -75 120 -128 13 -21 29 -38 35 -38 7 -1 2 -9 -10 -19 -13 -11 -23 -22 -23 -26 0 -4 -18 -30 -40 -58 -24 -29 -48 -75 -58 -108 -14 -49 -21 -59 -41 -61 -17 -2 -38 -22 -67 -63 -76 -106 -84 -127 -84 -209 0 -77 13 -106 47 -106 10 0 13 -5 8 -17 -13 -34 -17 -218 -6 -277 16 -84 46 -142 110 -210 50 -52 171 -128 171 -107 0 4 -19 16 -42 28 -120 58 -210 190 -228 335 -15 119 12 292 58 374 6 10 10 -56 10 -181 2 -197 9 -254 36 -290 15 -19 15 -18 15 15 0 28 -2 31 -9 15 -6 -17 -8 -15 -13 15 -11 63 -16 330 -7 330 10 0 24 -19 26 -38 8 -49 86 -78 167 -63 91 17 152 44 152 68 0 31 9 36 75 37 63 2 75 -4 75 -39 0 -38 173 -84 244 -65 38 10 86 54 76 70 -3 4 2 13 10 20 24 20 29 -12 17 -93 -6 -40 -14 -103 -17 -141 -7 -79 -25 -129 -63 -170 -27 -30 -27 -30 -2 -14 43 26 71 96 81 200 19 198 21 243 11 268 -8 18 -11 20 -11 8 -1 -28 -21 -21 -21 7 0 15 -7 39 -15 55 -24 47 -52 60 -130 60 -130 0 -192 -33 -202 -108 l-6 -42 -48 0 -49 0 0 36 c0 73 -74 114 -208 114 -67 0 -76 -2 -102 -28 -16 -16 -33 -48 -40 -70 -6 -23 -14 -42 -19 -42 -5 0 -11 26 -14 57 -5 49 0 78 40 207 41 138 82 226 104 226 5 0 9 10 9 21 0 13 21 42 49 69 27 27 59 66 70 88 20 40 58 73 102 91 13 5 19 10 12 10 -23 2 -59 -17 -102 -53 -23 -20 -48 -36 -53 -36 -31 0 41 179 106 265 40 51 49 71 72 143 l13 42 -439 0 c-281 -1 -440 -4 -440 -11z m137 -178 c15 -7 78 -31 138 -52 61 -22 94 -36 75 -33 -50 9 -147 43 -202 71 -39 19 -53 34 -77 81 -15 31 -31 68 -35 82 -3 14 12 -11 33 -55 28 -56 48 -84 68 -94z m349 -657 c-3 -9 -9 -27 -12 -40 -3 -13 -10 -24 -16 -24 -5 0 -6 -5 -3 -10 9 -15 -25 -111 -37 -104 -5 4 -8 21 -6 39 3 30 2 32 -15 24 -28 -16 -32 -37 -12 -77 25 -50 26 -60 10 -100 -10 -22 -20 -32 -31 -30 -23 4 -30 28 -9 28 12 0 14 4 5 19 -5 11 -10 29 -10 40 0 10 -5 21 -12 23 -8 3 -8 11 1 34 l11 29 -4 -27 c-1 -15 1 -25 5 -22 5 3 9 19 9 35 0 26 21 64 85 157 18 26 51 31 41 6z m234 -174 l25 -8 -24 -1 c-13 -1 -21 -4 -18 -8 8 -7 -11 -33 -24 -33 -4 0 -11 9 -14 20 -5 14 -15 20 -38 20 l-31 0 33 -34 c35 -36 35 -43 -2 -83 l-19 -22 31 1 c18 1 31 6 31 14 0 23 21 27 27 5 4 -16 13 -21 36 -21 l30 0 -20 23 c-35 39 -36 46 -5 81 l30 34 22 -20 c30 -28 42 -65 29 -90 -18 -34 -76 -51 -179 -51 -131 0 -140 4 -140 59 0 46 10 75 38 107 12 13 30 17 86 16 39 -1 82 -5 96 -9z m512 -2 c46 -38 66 -131 33 -158 -20 -16 -200 -18 -246 -2 -57 20 -74 45 -63 89 15 62 58 83 169 83 58 0 97 -5 107 -12z m-607 -189 c57 -1 58 -1 25 -11 -45 -13 -118 -5 -138 16 -15 14 -13 15 18 6 19 -6 62 -10 95 -11z m655 16 c0 -2 -13 -11 -30 -20 -31 -16 -89 -18 -130 -5 -19 6 -9 9 40 10 53 2 88 7 118 19 1 1 2 -1 2 -4z"/>
 <path d="M470 945 c0 -5 10 -21 21 -35 13 -17 17 -18 10 -5 -17 33 -31 51 -31 40z"/>
 <path d="M1130 966 c0 -3 11 -17 25 -32 31 -34 31 -41 -2 -76 l-27 -28 29 0 c15 0 34 8 41 18 13 16 15 16 28 0 7 -10 23 -18 36 -18 l22 0 -26 35 -26 34 31 36 31 35 -30 0 c-22 0 -32 -6 -37 -20 -3 -11 -10 -20 -14 -20 -13 0 -32 26 -24 33 3 4 -8 7 -25 7 -18 0 -32 -2 -32 -4z"/>
 <path d="M1080 1979 c0 -64 25 -166 50 -208 31 -52 56 -121 66 -183 l7 -42 -32 25 c-57 42 -105 69 -126 68 -16 -1 -14 -2 6 -9 46 -13 78 -41 110 -93 17 -28 51 -70 75 -94 24 -23 44 -50 44 -60 0 -10 9 -24 20 -30 30 -19 43 -52 104 -256 30 -103 60 -195 65 -205 17 -32 34 -194 27 -266 -8 -88 -31 -176 -62 -242 -27 -58 -107 -138 -158 -159 -39 -17 -167 -52 -211 -58 l-30 -4 32 -2 c50 -2 203 37 249 64 52 31 107 91 139 155 46 92 72 255 57 371 -7 59 -6 66 9 62 30 -8 49 35 49 113 0 61 -4 77 -27 110 -14 21 -44 65 -65 96 -24 36 -46 58 -60 60 -18 2 -26 15 -41 64 -13 45 -33 79 -76 130 l-59 69 29 20 c15 11 56 55 89 98 33 42 65 77 70 77 6 0 10 9 10 19 0 22 11 26 85 36 126 16 256 60 282 94 16 21 73 166 73 186 0 33 -19 12 -36 -37 -35 -108 -59 -143 -113 -166 -50 -22 -164 -52 -191 -51 -8 0 21 11 66 24 44 12 101 32 126 43 43 19 47 24 77 101 17 44 31 85 31 91 0 7 -125 10 -380 10 -377 0 -380 0 -380 -21z m379 -856 c16 -27 39 -60 50 -75 12 -14 21 -39 21 -55 0 -22 2 -25 10 -13 13 19 3 -66 -11 -92 -12 -23 -11 -28 6 -28 9 0 12 -6 9 -15 -12 -31 -45 -13 -59 34 -6 18 -4 22 6 15 12 -6 12 -5 0 9 -11 14 -11 21 3 42 22 34 21 82 -3 95 -18 9 -19 7 -14 -24 3 -19 1 -36 -5 -40 -10 -6 -25 36 -68 177 -11 36 27 16 55 -30z"/>
 <path d="M905 1341 c-12 -20 38 -33 111 -29 75 3 91 9 79 27 -8 14 -182 15 -190 2z"/>
 <path d="M1166 1285 c-10 -14 -31 -35 -49 -45 -18 -11 -28 -20 -24 -20 20 0 65 35 81 61 21 36 14 38 -8 4z"/>
 <path d="M826 1278 c3 -7 17 -22 32 -32 27 -19 27 -19 -2 12 -32 35 -38 38 -30 20z"/>
 <path d="M963 1194 c-18 -8 -33 -21 -33 -29 0 -29 55 -209 58 -191 2 9 -1 54 -7 98 -9 70 -9 85 5 106 20 30 17 32 -23 16z"/>
 <path d="M1010 1180 c-12 -8 -11 -10 8 -10 12 0 22 5 22 10 0 13 -11 13 -30 0z"/>
 <path d="M860 1079 c0 -17 26 -57 33 -49 2 3 -4 19 -14 35 -11 17 -19 23 -19 14z"/>
 <path d="M1143 1078 c-18 -24 -24 -38 -16 -38 10 0 36 40 30 46 -2 3 -9 -1 -14 -8z"/>
 <path d="M745 492 c66 -32 143 -76 170 -96 l50 -37 -45 42 c-41 38 -211 128 -270 144 -14 4 29 -20 95 -53z"/>
 <path d="M1143 481 c-57 -19 -117 -58 -154 -98 -15 -16 -3 -10 31 16 72 54 147 82 245 91 l80 7 -75 1 c-49 1 -93 -5 -127 -17z"/>
 <path d="M1310 425 c-13 -14 -22 -27 -19 -29 2 -2 14 10 27 25 29 36 24 38 -8 4z"/>
 <path d="M775 191 c6 -5 28 -12 50 -15 27 -4 33 -3 20 2 -35 16 -81 24 -70 13z"/>
 </g>
<g id="layer109" fill="#d3a793" stroke="none">
 <path d="M110 1990 c0 -6 16 -51 36 -100 l37 -89 63 -31 c59 -29 251 -80 302 -80 17 0 22 -6 22 -25 0 -17 9 -29 28 -39 33 -17 88 -75 120 -128 13 -21 29 -38 35 -38 7 -1 2 -9 -10 -19 -13 -11 -23 -22 -23 -26 0 -4 -18 -30 -40 -58 -24 -29 -48 -75 -58 -108 -14 -49 -21 -59 -41 -61 -17 -2 -38 -22 -67 -63 -76 -106 -84 -127 -84 -209 0 -77 13 -106 47 -106 10 0 13 -5 8 -17 -13 -34 -17 -218 -6 -277 16 -84 46 -142 110 -210 50 -52 171 -128 171 -107 0 4 -19 16 -42 28 -120 58 -210 190 -228 335 -15 119 12 292 58 374 6 10 10 -56 10 -181 2 -197 9 -254 36 -290 15 -19 15 -18 15 15 0 28 -2 31 -9 15 -6 -17 -8 -15 -13 15 -11 63 -16 330 -7 330 10 0 24 -19 26 -38 8 -49 86 -78 167 -63 91 17 152 44 152 68 0 31 9 36 75 37 63 2 75 -4 75 -39 0 -38 173 -84 244 -65 38 10 86 54 76 70 -3 4 2 13 10 20 24 20 29 -12 17 -93 -6 -40 -14 -103 -17 -141 -7 -79 -25 -129 -63 -170 -27 -30 -27 -30 -2 -14 43 26 71 96 81 200 19 198 21 243 11 268 -8 18 -11 20 -11 8 -1 -28 -21 -21 -21 7 0 15 -7 39 -15 55 -24 47 -52 60 -130 60 -130 0 -192 -33 -202 -108 l-6 -42 -48 0 -49 0 0 36 c0 73 -74 114 -208 114 -67 0 -76 -2 -102 -28 -16 -16 -33 -48 -40 -70 -6 -23 -14 -42 -19 -42 -5 0 -11 26 -14 57 -5 49 0 78 40 207 41 138 82 226 104 226 5 0 9 10 9 21 0 13 21 42 49 69 27 27 59 66 70 88 20 40 58 73 102 91 13 5 19 10 12 10 -23 2 -59 -17 -102 -53 -23 -20 -48 -36 -53 -36 -31 0 41 179 106 265 40 51 49 71 72 143 18 59 3 53 -19 -8 -10 -29 -24 -50 -32 -50 -19 0 -19 1 1 50 23 58 9 63 -16 5 l-20 -47 -33 21 c-74 49 -129 72 -165 69 l-37 -3 63 -24 c34 -13 79 -37 100 -53 20 -17 47 -34 60 -39 20 -8 21 -12 11 -31 -7 -13 -54 -65 -105 -116 -86 -87 -88 -96 -6 -35 38 29 40 25 7 -26 -13 -22 -33 -64 -43 -95 l-19 -56 -32 45 c-18 25 -49 54 -70 64 l-37 19 7 59 c16 119 22 260 12 277 -7 13 -12 -17 -16 -110 -8 -171 -10 -176 -56 -168 -65 12 -205 55 -264 81 -62 28 -79 51 -122 166 -16 43 -35 63 -35 37z m486 -836 c-3 -9 -9 -27 -12 -40 -3 -13 -10 -24 -16 -24 -5 0 -6 -5 -3 -10 9 -15 -25 -111 -37 -104 -5 4 -8 21 -6 39 3 30 2 32 -15 24 -28 -16 -32 -37 -12 -77 25 -50 26 -60 10 -100 -10 -22 -20 -32 -31 -30 -23 4 -30 28 -9 28 12 0 14 4 5 19 -5 11 -10 29 -10 40 0 10 -5 21 -12 23 -8 3 -8 11 1 34 l11 29 -4 -27 c-1 -15 1 -25 5 -22 5 3 9 19 9 35 0 26 21 64 85 157 18 26 51 31 41 6z m234 -174 l25 -8 -24 -1 c-13 -1 -21 -4 -18 -8 8 -7 -11 -33 -24 -33 -4 0 -11 9 -14 20 -5 14 -15 20 -38 20 l-31 0 33 -34 c35 -36 35 -43 -2 -83 l-19 -22 31 1 c18 1 31 6 31 14 0 23 21 27 27 5 4 -16 13 -21 36 -21 l30 0 -20 23 c-35 39 -36 46 -5 81 l30 34 22 -20 c30 -28 42 -65 29 -90 -18 -34 -76 -51 -179 -51 -131 0 -140 4 -140 59 0 46 10 75 38 107 12 13 30 17 86 16 39 -1 82 -5 96 -9z m512 -2 c46 -38 66 -131 33 -158 -20 -16 -200 -18 -246 -2 -57 20 -74 45 -63 89 15 62 58 83 169 83 58 0 97 -5 107 -12z m-607 -189 c57 -1 58 -1 25 -11 -45 -13 -118 -5 -138 16 -15 14 -13 15 18 6 19 -6 62 -10 95 -11z m655 16 c0 -2 -13 -11 -30 -20 -31 -16 -89 -18 -130 -5 -19 6 -9 9 40 10 53 2 88 7 118 19 1 1 2 -1 2 -4z"/>
 <path d="M470 945 c0 -5 10 -21 21 -35 13 -17 17 -18 10 -5 -17 33 -31 51 -31 40z"/>
 <path d="M1130 966 c0 -3 11 -17 25 -32 31 -34 31 -41 -2 -76 l-27 -28 29 0 c15 0 34 8 41 18 13 16 15 16 28 0 7 -10 23 -18 36 -18 l22 0 -26 35 -26 34 31 36 31 35 -30 0 c-22 0 -32 -6 -37 -20 -3 -11 -10 -20 -14 -20 -13 0 -32 26 -24 33 3 4 -8 7 -25 7 -18 0 -32 -2 -32 -4z"/>
 <path d="M1080 1979 c0 -64 25 -166 50 -208 31 -52 56 -121 66 -183 l7 -42 -32 25 c-57 42 -105 69 -126 68 -16 -1 -14 -2 6 -9 46 -13 78 -41 110 -93 17 -28 51 -70 75 -94 24 -23 44 -50 44 -60 0 -10 9 -24 20 -30 30 -19 43 -52 104 -256 30 -103 60 -195 65 -205 17 -32 34 -194 27 -266 -8 -88 -31 -176 -62 -242 -27 -58 -107 -138 -158 -159 -39 -17 -167 -52 -211 -58 l-30 -4 32 -2 c50 -2 203 37 249 64 52 31 107 91 139 155 46 92 72 255 57 371 -7 59 -6 66 9 62 30 -8 49 35 49 113 0 61 -4 77 -27 110 -14 21 -44 65 -65 96 -24 36 -46 58 -60 60 -18 2 -26 15 -41 64 -13 45 -33 79 -76 130 l-59 69 29 20 c15 11 56 55 89 98 33 42 65 77 70 77 6 0 10 9 10 19 0 22 11 26 85 36 126 16 256 60 282 94 16 21 73 166 73 186 0 35 -17 10 -43 -64 -36 -101 -55 -125 -121 -150 -58 -21 -274 -66 -282 -58 -3 3 -8 69 -11 148 -4 83 -9 135 -14 124 -11 -30 -10 -155 2 -238 l11 -75 -73 -86 -72 -87 -17 63 c-9 35 -24 80 -33 101 l-17 38 48 -25 47 -26 -51 48 c-58 53 -114 127 -114 150 0 9 3 13 6 9 11 -11 67 18 159 82 69 48 83 61 64 61 -14 0 -52 -16 -85 -36 -32 -20 -73 -45 -91 -56 l-31 -19 -9 52 c-4 30 -14 54 -22 57 -10 3 -12 -2 -8 -19 19 -78 19 -99 4 -93 -10 4 -18 25 -23 60 -6 52 -24 76 -24 33z m379 -856 c16 -27 39 -60 50 -75 12 -14 21 -39 21 -55 0 -22 2 -25 10 -13 13 19 3 -66 -11 -92 -12 -23 -11 -28 6 -28 9 0 12 -6 9 -15 -12 -31 -45 -13 -59 34 -6 18 -4 22 6 15 12 -6 12 -5 0 9 -11 14 -11 21 3 42 22 34 21 82 -3 95 -18 9 -19 7 -14 -24 3 -19 1 -36 -5 -40 -10 -6 -25 36 -68 177 -11 36 27 16 55 -30z"/>
 <path d="M905 1341 c-12 -20 38 -33 111 -29 75 3 91 9 79 27 -8 14 -182 15 -190 2z"/>
 <path d="M1166 1285 c-10 -14 -31 -35 -49 -45 -18 -11 -28 -20 -24 -20 20 0 65 35 81 61 21 36 14 38 -8 4z"/>
 <path d="M826 1278 c3 -7 17 -22 32 -32 27 -19 27 -19 -2 12 -32 35 -38 38 -30 20z"/>
 <path d="M963 1194 c-18 -8 -33 -21 -33 -29 0 -29 55 -209 58 -191 2 9 -1 54 -7 98 -9 70 -9 85 5 106 20 30 17 32 -23 16z"/>
 <path d="M1010 1180 c-12 -8 -11 -10 8 -10 12 0 22 5 22 10 0 13 -11 13 -30 0z"/>
 <path d="M860 1079 c0 -17 26 -57 33 -49 2 3 -4 19 -14 35 -11 17 -19 23 -19 14z"/>
 <path d="M1143 1078 c-18 -24 -24 -38 -16 -38 10 0 36 40 30 46 -2 3 -9 -1 -14 -8z"/>
 <path d="M745 492 c66 -32 143 -76 170 -96 l50 -37 -45 42 c-41 38 -211 128 -270 144 -14 4 29 -20 95 -53z"/>
 <path d="M1143 481 c-57 -19 -117 -58 -154 -98 -15 -16 -3 -10 31 16 72 54 147 82 245 91 l80 7 -75 1 c-49 1 -93 -5 -127 -17z"/>
 <path d="M1310 425 c-13 -14 -22 -27 -19 -29 2 -2 14 10 27 25 29 36 24 38 -8 4z"/>
 <path d="M775 191 c6 -5 28 -12 50 -15 27 -4 33 -3 20 2 -35 16 -81 24 -70 13z"/>
 </g>
<g id="layer110" fill="#c89a94" stroke="none">
 <path d="M110 1990 c0 -6 16 -51 36 -100 l37 -89 63 -31 c59 -29 251 -80 302 -80 17 0 22 -6 22 -25 0 -17 9 -29 28 -39 33 -17 88 -75 120 -128 13 -21 28 -38 33 -38 5 0 -18 -35 -51 -77 -42 -53 -66 -95 -78 -134 -14 -49 -21 -59 -41 -61 -17 -2 -38 -22 -67 -63 -76 -106 -84 -127 -84 -209 0 -77 13 -106 47 -106 10 0 13 -5 8 -17 -13 -34 -17 -218 -6 -277 6 -33 21 -80 33 -105 32 -68 122 -157 190 -190 32 -15 58 -25 58 -21 0 3 -19 15 -42 27 -24 12 -63 38 -87 59 -155 134 -186 350 -92 638 22 66 58 180 80 253 23 72 51 144 64 160 12 15 29 41 37 56 8 16 29 42 48 58 19 17 30 34 26 41 -4 7 -3 8 5 4 7 -4 18 5 29 24 31 57 55 82 96 101 23 10 35 19 28 19 -27 0 -92 -41 -109 -70 -20 -34 -46 -36 -51 -3 -5 32 45 150 89 213 50 71 84 135 97 183 15 54 0 45 -21 -13 -10 -29 -24 -50 -32 -50 -19 0 -19 1 1 50 23 58 9 63 -16 5 l-20 -47 -33 21 c-74 49 -129 72 -165 69 l-37 -3 63 -24 c34 -13 79 -37 100 -53 20 -17 47 -34 60 -39 20 -8 21 -12 11 -31 -7 -13 -54 -65 -105 -116 -86 -87 -88 -96 -6 -35 38 29 40 25 7 -26 -13 -22 -33 -64 -43 -95 l-19 -56 -32 45 c-18 25 -49 54 -70 64 l-37 19 7 59 c16 119 22 260 12 277 -7 13 -12 -17 -16 -110 -8 -171 -10 -176 -56 -168 -65 12 -205 55 -264 81 -62 28 -79 51 -122 166 -16 43 -35 63 -35 37z m486 -837 c-40 -139 -50 -169 -57 -177 -13 -14 -22 0 -21 34 1 33 -12 39 -26 14 -12 -21 -4 -59 17 -81 31 -31 -6 -124 -43 -110 -20 8 -21 27 -2 27 12 0 12 5 3 31 -12 30 -12 30 -19 7 -4 -13 -6 2 -4 37 2 55 8 68 62 147 38 56 66 88 77 88 13 0 17 -5 13 -17z"/>
 <path d="M1080 1988 c2 -79 24 -166 54 -221 33 -60 66 -162 66 -206 0 -30 -23 -26 -43 9 -10 17 -31 37 -47 45 -43 22 -48 18 -9 -8 18 -12 44 -40 56 -62 12 -22 28 -40 35 -40 7 0 13 -7 13 -16 0 -9 16 -29 35 -45 19 -15 27 -19 17 -8 -16 20 -16 21 8 34 13 7 54 51 90 97 36 45 70 83 75 83 6 0 10 9 10 19 0 22 11 26 85 36 126 16 256 60 282 94 16 21 73 166 73 186 0 35 -17 10 -43 -64 -36 -101 -55 -125 -121 -150 -58 -21 -274 -66 -282 -58 -3 3 -8 69 -11 148 -4 83 -9 135 -14 124 -11 -30 -10 -155 2 -238 l11 -75 -73 -86 -72 -87 -17 63 c-9 35 -24 80 -33 101 l-17 38 48 -25 47 -26 -51 48 c-58 53 -114 127 -114 150 0 9 3 13 6 9 11 -11 67 18 159 82 69 48 83 61 64 61 -14 0 -52 -16 -85 -36 -32 -20 -73 -45 -91 -56 l-31 -19 -9 52 c-4 30 -14 54 -22 57 -10 3 -12 -2 -8 -19 19 -78 19 -99 4 -93 -10 4 -18 25 -23 60 -3 30 -10 54 -15 54 -5 0 -9 -6 -9 -12z"/>
 <path d="M1285 1385 c10 -16 26 -40 37 -52 11 -12 46 -109 80 -220 33 -109 67 -220 75 -248 22 -73 22 -282 0 -363 -24 -90 -64 -169 -107 -212 -59 -59 -130 -87 -315 -124 -11 -2 -6 -4 12 -5 51 -2 204 38 249 64 52 31 107 91 139 155 46 92 72 255 57 371 -7 59 -6 66 9 62 30 -8 49 35 49 113 0 61 -4 77 -27 110 -14 21 -44 65 -65 96 -24 36 -46 58 -60 60 -18 2 -26 15 -41 65 -14 46 -31 76 -64 110 -34 37 -41 41 -28 18z m156 -231 c8 -9 23 -31 34 -49 11 -18 32 -51 47 -73 15 -23 30 -60 32 -84 3 -24 3 -34 -1 -23 -5 16 -8 12 -17 -20 -10 -32 -9 -41 1 -45 8 -3 9 -10 3 -20 -7 -11 -14 -12 -26 -4 -21 12 -48 85 -36 93 30 20 41 81 18 100 -12 10 -15 7 -18 -21 -5 -51 -21 -37 -44 39 -34 113 -36 123 -20 123 7 0 20 -7 27 -16z"/>
 <path d="M910 1340 c-25 -16 39 -32 112 -28 70 4 85 9 73 27 -8 13 -164 14 -185 1z"/>
 <path d="M820 1287 c0 -2 15 -16 33 -33 l32 -29 -29 33 c-28 30 -36 37 -36 29z"/>
 <path d="M1142 1260 c-18 -17 -29 -30 -24 -30 5 0 21 14 37 30 37 38 30 38 -13 0z"/>
 <path d="M953 1188 c-13 -6 -23 -15 -23 -19 0 -16 50 -192 56 -198 3 -3 4 12 0 34 -16 109 -17 154 -7 174 13 23 7 25 -26 9z"/>
 <path d="M664 1001 c-28 -12 -52 -47 -65 -93 -13 -48 -29 -49 -29 -1 0 20 -3 33 -7 30 -10 -10 -4 -376 7 -416 5 -20 17 -45 25 -56 13 -16 13 -14 -1 15 -23 48 -30 360 -8 360 8 0 14 -3 15 -7 8 -83 71 -113 187 -89 103 21 145 41 137 65 -8 27 10 35 78 36 60 1 72 -6 72 -40 0 -15 15 -25 65 -43 88 -31 179 -34 216 -6 35 26 47 54 13 31 -25 -18 -95 -21 -139 -7 -19 6 -13 8 30 9 68 1 129 18 137 37 3 8 12 14 20 14 13 0 14 -10 10 -52 -3 -29 -10 -98 -16 -153 -5 -55 -15 -113 -20 -128 -15 -40 -13 -47 5 -14 14 25 27 123 41 298 3 40 1 75 -6 85 -6 11 -11 13 -11 7 0 -26 -20 -12 -20 15 0 37 -34 90 -68 103 -38 15 -181 5 -220 -15 -35 -18 -62 -62 -62 -101 0 -23 -3 -25 -50 -25 -47 0 -50 2 -50 25 0 40 -27 83 -63 102 -37 19 -189 29 -223 14z m684 -24 c39 -31 57 -132 28 -156 -16 -14 -184 -20 -237 -8 -19 4 -45 16 -57 28 -49 45 -8 130 71 147 49 11 176 4 195 -11z m-508 3 c25 -8 25 -8 -4 -9 -16 -1 -26 -4 -23 -8 8 -7 -11 -33 -24 -33 -4 0 -11 9 -14 20 -5 14 -15 20 -38 20 l-31 0 33 -34 c35 -36 35 -43 -2 -83 l-19 -22 30 1 c22 1 32 7 36 22 l6 21 19 -22 c11 -13 29 -23 42 -23 23 0 23 0 -4 28 -15 15 -27 32 -27 38 0 5 14 24 30 43 29 33 31 33 50 16 10 -9 24 -33 31 -52 10 -32 9 -37 -13 -60 -39 -38 -173 -51 -287 -27 -22 5 -23 8 -19 64 3 45 10 66 28 85 21 23 31 25 99 24 42 -1 87 -5 101 -9z m-120 -188 c54 -4 68 -8 50 -13 -53 -15 -117 -10 -141 12 -21 18 -21 20 -4 14 11 -4 54 -10 95 -13z"/>
 <path d="M1154 937 c32 -42 32 -45 -1 -79 l-27 -28 29 0 c15 0 34 8 41 18 13 16 15 16 28 0 7 -10 23 -18 36 -18 l22 0 -26 35 -26 34 31 36 31 35 -30 0 c-22 0 -32 -6 -37 -20 -3 -11 -10 -20 -14 -20 -13 0 -32 26 -24 33 3 4 -8 7 -26 7 l-32 0 25 -33z"/>
 <path d="M768 482 c51 -26 116 -64 145 -85 l52 -38 -45 42 c-39 36 -210 130 -235 129 -6 0 32 -22 83 -48z"/>
 <path d="M1159 486 c-50 -13 -135 -63 -165 -98 -10 -11 4 -5 32 15 79 57 137 78 232 87 l87 7 -70 1 c-38 0 -91 -5 -116 -12z"/>
 <path d="M1310 425 c-13 -14 -22 -27 -19 -29 2 -2 14 10 27 25 29 36 24 38 -8 4z"/>
 <path d="M810 180 c8 -5 24 -10 34 -10 26 0 18 6 -19 14 -22 5 -26 4 -15 -4z"/>
 </g>
<g id="layer111" fill="#bea394" stroke="none">
 <path d="M110 1990 c0 -6 16 -51 36 -100 l37 -89 63 -31 c59 -29 251 -80 302 -80 17 0 22 -6 22 -25 0 -17 9 -29 28 -39 33 -17 88 -75 120 -128 13 -21 28 -38 34 -38 6 0 5 -7 -3 -17 -7 -10 4 -2 24 16 38 36 51 54 20 30 -13 -11 -13 -8 2 12 11 15 25 25 30 23 6 -3 0 3 -12 12 -13 9 -23 25 -23 36 0 32 50 149 89 207 20 30 44 66 53 80 21 31 60 141 50 141 -4 0 -15 -22 -25 -50 -10 -29 -24 -50 -32 -50 -19 0 -19 1 1 50 23 58 9 63 -16 5 l-20 -47 -33 21 c-74 49 -129 72 -165 69 l-37 -3 63 -24 c34 -13 79 -37 100 -53 20 -17 47 -34 60 -39 20 -8 21 -12 11 -31 -7 -13 -54 -65 -105 -116 -86 -87 -88 -96 -6 -35 38 29 40 25 7 -26 -13 -22 -33 -64 -43 -95 l-19 -56 -32 45 c-18 25 -49 54 -70 64 l-37 19 7 59 c16 119 22 260 12 277 -7 13 -12 -17 -16 -110 -8 -171 -10 -176 -56 -168 -65 12 -205 55 -264 81 -62 28 -79 51 -122 166 -16 43 -35 63 -35 37z"/>
 <path d="M1080 1991 c0 -66 26 -174 55 -226 35 -63 65 -152 65 -193 0 -14 -8 -31 -17 -39 -10 -8 -13 -12 -8 -9 6 2 17 -4 24 -16 10 -16 10 -19 -1 -13 -7 5 3 -8 21 -28 34 -36 55 -51 32 -24 -8 11 -5 17 14 27 13 7 54 51 90 97 36 45 70 83 75 83 6 0 10 9 10 19 0 22 11 26 85 36 126 16 256 60 282 94 16 21 73 166 73 186 0 35 -17 10 -43 -64 -36 -101 -55 -125 -121 -150 -58 -21 -274 -66 -282 -58 -3 3 -8 69 -11 148 -4 83 -9 135 -14 124 -11 -30 -10 -155 2 -238 l11 -75 -73 -86 -72 -87 -17 63 c-9 35 -24 80 -33 101 l-17 38 48 -25 47 -26 -51 48 c-58 53 -114 127 -114 150 0 9 3 13 6 9 11 -11 67 18 159 82 69 48 83 61 64 61 -14 0 -52 -16 -85 -36 -32 -20 -73 -45 -91 -56 l-31 -19 -9 52 c-4 30 -14 54 -22 57 -10 3 -12 -2 -8 -19 19 -78 19 -99 4 -93 -10 4 -18 25 -23 60 -3 30 -10 54 -15 54 -5 0 -9 -4 -9 -9z"/>
 <path d="M672 1348 c-18 -24 -41 -69 -50 -100 -14 -48 -21 -58 -41 -60 -17 -2 -38 -22 -67 -63 -76 -106 -84 -127 -84 -209 0 -77 13 -106 46 -106 10 0 14 -6 10 -17 -2 -10 -7 -38 -11 -63 -4 -33 -3 -41 4 -30 6 8 11 31 11 50 1 19 7 53 15 75 18 49 19 69 2 35 -13 -26 -47 -34 -54 -12 -3 6 2 12 10 12 13 0 13 5 4 31 -12 30 -12 30 -19 7 -4 -13 -6 2 -4 37 2 55 8 68 62 147 38 56 66 88 77 88 13 0 17 -5 13 -17 -40 -139 -50 -169 -57 -177 -13 -14 -22 0 -21 34 1 33 -12 39 -26 14 -12 -21 -4 -58 17 -81 9 -10 15 -26 13 -35 -2 -10 -1 -18 2 -18 3 0 24 60 46 133 78 249 92 288 117 317 13 17 23 35 21 40 -2 6 -18 -9 -36 -32z"/>
 <path d="M1290 1383 c0 -6 12 -26 26 -43 19 -22 43 -88 85 -227 32 -108 63 -201 69 -207 8 -8 9 -6 5 7 -4 9 -3 17 2 17 12 0 33 44 33 69 0 10 -6 24 -14 30 -12 10 -15 7 -18 -21 -2 -18 -7 -33 -13 -32 -11 0 -68 184 -60 193 10 10 40 -16 65 -56 14 -22 37 -59 52 -81 15 -23 30 -60 33 -84 3 -25 2 -36 -3 -25 -6 14 -10 10 -18 -23 -9 -32 -9 -40 2 -40 8 0 11 -6 8 -15 -9 -22 -30 -18 -50 8 -12 16 -15 17 -10 4 3 -10 6 -32 6 -48 0 -16 5 -29 11 -29 6 0 9 8 6 19 -3 14 0 17 13 14 31 -8 50 34 50 113 0 61 -4 77 -27 110 -14 21 -44 65 -65 96 -24 36 -46 58 -60 60 -18 2 -26 15 -41 64 -17 57 -86 157 -87 127z"/>
 <path d="M910 1340 c-25 -16 39 -32 112 -28 70 4 85 9 73 27 -8 13 -164 14 -185 1z"/>
 <path d="M953 1188 c-13 -6 -23 -15 -23 -19 0 -16 50 -192 56 -198 3 -3 4 12 0 34 -16 109 -17 154 -7 174 13 23 7 25 -26 9z"/>
 <path d="M664 1001 c-28 -12 -52 -47 -65 -93 -5 -22 -16 -38 -24 -38 -8 0 -15 -7 -15 -15 0 -8 9 -15 20 -15 11 0 20 -3 21 -7 8 -83 71 -113 187 -89 103 21 145 41 137 65 -8 27 10 35 78 36 60 1 72 -6 72 -40 0 -15 15 -25 65 -43 88 -31 179 -34 216 -6 35 26 47 54 13 31 -25 -18 -95 -21 -139 -7 -20 6 -15 8 25 9 68 2 127 17 141 35 6 9 19 16 28 16 9 0 16 7 16 15 0 8 -9 15 -20 15 -15 0 -20 7 -20 25 0 39 -27 83 -62 101 -40 21 -178 15 -226 -10 -35 -18 -62 -62 -62 -101 0 -23 -3 -25 -50 -25 -47 0 -50 2 -50 25 0 40 -27 83 -63 101 -37 19 -190 29 -223 15z m684 -24 c39 -31 57 -132 28 -156 -16 -14 -184 -20 -237 -8 -19 4 -45 16 -57 28 -49 45 -8 130 71 147 49 11 176 4 195 -11z m-508 3 c25 -8 25 -8 -4 -9 -16 -1 -26 -4 -23 -8 8 -7 -11 -33 -24 -33 -4 0 -11 9 -14 20 -5 14 -15 20 -38 20 l-31 0 33 -34 c35 -36 35 -43 -2 -83 l-19 -22 30 1 c22 1 32 7 36 22 l6 21 19 -22 c11 -13 29 -23 42 -23 23 0 23 0 -4 28 -15 15 -27 32 -27 38 0 5 14 24 30 43 29 33 31 33 50 16 10 -9 24 -33 31 -52 10 -32 9 -37 -13 -60 -39 -38 -173 -51 -287 -27 -22 5 -23 8 -19 64 3 45 10 66 28 85 21 23 31 25 99 24 42 -1 87 -5 101 -9z m-120 -188 c54 -4 68 -8 50 -13 -53 -15 -117 -10 -141 12 -21 18 -21 20 -4 14 11 -4 54 -10 95 -13z"/>
 <path d="M1154 937 c32 -42 32 -45 -1 -79 l-27 -28 29 0 c15 0 34 8 41 18 13 16 15 16 28 0 7 -10 23 -18 36 -18 l22 0 -26 35 -26 34 31 36 31 35 -30 0 c-22 0 -32 -6 -37 -20 -3 -11 -10 -20 -14 -20 -13 0 -32 26 -24 33 3 4 -8 7 -26 7 l-32 0 25 -33z"/>
 <path d="M1432 790 c0 -19 2 -27 5 -17 2 9 2 25 0 35 -3 9 -5 1 -5 -18z"/>
 <path d="M562 770 c0 -19 2 -27 5 -17 2 9 2 25 0 35 -3 9 -5 1 -5 -18z"/>
 <path d="M1497 655 c-11 -229 -88 -376 -223 -432 -24 -10 -44 -22 -44 -26 0 -11 44 3 48 14 2 5 8 7 13 3 5 -3 9 0 9 6 0 6 4 9 9 5 11 -6 106 80 106 96 0 5 5 13 12 17 12 8 37 62 35 75 -1 4 3 7 9 7 5 0 8 4 4 9 -3 5 -1 12 5 16 6 4 8 11 5 16 -4 5 -3 15 1 21 5 7 9 22 11 33 1 11 4 31 7 45 14 91 16 140 9 175 -8 34 -10 22 -16 -80z"/>
 <path d="M1413 625 c0 -33 2 -45 4 -27 2 18 2 45 0 60 -2 15 -4 0 -4 -33z"/>
 <path d="M473 630 c0 -25 2 -35 4 -22 2 12 2 32 0 45 -2 12 -4 2 -4 -23z"/>
 <path d="M563 610 c0 -30 2 -43 4 -27 2 15 2 39 0 55 -2 15 -4 2 -4 -28z"/>
 <path d="M477 563 c-4 -6 -3 -23 3 -38 6 -15 8 -30 5 -35 -3 -5 -1 -11 5 -15 6 -4 8 -10 5 -15 -3 -5 -1 -11 5 -15 6 -4 8 -11 5 -16 -4 -5 -1 -9 6 -9 7 0 10 -3 6 -6 -3 -3 3 -15 13 -27 11 -11 18 -23 16 -26 -2 -3 22 -31 55 -62 32 -31 59 -54 59 -51 0 2 -25 31 -55 64 -66 71 -93 120 -109 201 -7 34 -16 56 -19 50z"/>
 <path d="M1233 493 c9 -2 25 -2 35 0 9 3 1 5 -18 5 -19 0 -27 -2 -17 -5z"/>
 </g>
<g id="layer112" fill="#d19474" stroke="none">
 <path d="M110 1990 c0 -6 16 -51 36 -100 l37 -89 63 -31 c59 -29 251 -80 302 -80 17 0 22 -6 22 -25 0 -17 9 -29 28 -39 33 -17 88 -75 121 -129 16 -27 28 -36 39 -32 12 5 12 1 -3 -17 -11 -13 -3 -7 18 11 38 36 51 55 20 30 -13 -11 -13 -8 2 12 11 15 25 25 30 23 6 -3 0 3 -12 12 -13 9 -23 25 -23 36 0 37 60 174 99 225 22 28 45 61 51 73 19 36 49 130 42 130 -4 0 -15 -22 -25 -50 -10 -29 -24 -50 -32 -50 -19 0 -19 1 1 50 23 58 9 63 -16 5 l-20 -47 -33 21 c-74 49 -129 72 -165 69 l-37 -3 63 -24 c34 -13 79 -37 100 -53 20 -17 47 -34 60 -39 20 -8 21 -12 11 -31 -7 -13 -54 -65 -105 -116 -86 -87 -88 -96 -6 -35 38 29 40 25 7 -26 -13 -22 -33 -64 -43 -95 l-19 -56 -32 45 c-18 25 -49 54 -70 64 l-37 19 7 59 c16 119 22 260 12 277 -7 13 -12 -17 -16 -110 -8 -171 -10 -176 -56 -168 -65 12 -205 55 -264 81 -62 28 -79 51 -122 166 -16 43 -35 63 -35 37z"/>
 <path d="M1080 1991 c0 -66 26 -174 55 -226 35 -63 65 -152 65 -193 0 -14 -8 -31 -17 -39 -10 -8 -13 -12 -8 -9 6 2 17 -4 24 -16 10 -16 10 -19 -1 -13 -7 5 3 -8 21 -28 34 -36 55 -51 32 -24 -8 11 -5 17 14 27 13 7 54 51 90 97 36 45 70 83 75 83 6 0 10 9 10 19 0 22 11 26 85 36 126 16 256 60 282 94 16 21 73 166 73 186 0 35 -17 10 -43 -64 -36 -101 -55 -125 -121 -150 -58 -21 -274 -66 -282 -58 -3 3 -8 69 -11 148 -4 83 -9 135 -14 124 -11 -30 -10 -155 2 -238 l11 -75 -73 -86 -72 -87 -17 63 c-9 35 -24 80 -33 101 l-17 38 48 -25 47 -26 -51 48 c-58 53 -114 127 -114 150 0 9 3 13 6 9 11 -11 67 18 159 82 69 48 83 61 64 61 -14 0 -52 -16 -85 -36 -32 -20 -73 -45 -91 -56 l-31 -19 -9 52 c-4 30 -14 54 -22 57 -10 3 -12 -2 -8 -19 19 -78 19 -99 4 -93 -10 4 -18 25 -23 60 -3 30 -10 54 -15 54 -5 0 -9 -4 -9 -9z"/>
 <path d="M672 1348 c-18 -24 -41 -69 -50 -100 -14 -48 -21 -58 -41 -60 -17 -2 -38 -22 -67 -63 -76 -106 -84 -127 -84 -209 0 -77 13 -106 46 -106 10 0 14 -6 10 -17 -11 -39 -17 -108 -8 -93 5 8 12 38 15 65 3 28 9 59 13 70 7 18 6 18 -9 6 -18 -14 -47 -9 -47 9 0 5 6 10 14 10 12 0 12 5 3 31 -12 30 -12 30 -19 7 -4 -13 -6 2 -4 37 2 55 8 68 62 147 38 56 66 88 77 88 13 0 17 -5 13 -17 -40 -139 -50 -169 -57 -177 -13 -14 -22 0 -21 34 1 33 -12 39 -26 14 -12 -21 -4 -58 17 -81 9 -10 15 -26 13 -35 -2 -10 -1 -18 2 -18 3 0 24 60 46 133 78 249 92 288 117 317 13 17 23 35 21 40 -2 6 -18 -9 -36 -32z"/>
 <path d="M1290 1383 c0 -6 12 -26 26 -43 19 -22 43 -88 85 -227 32 -108 63 -201 69 -207 8 -8 9 -6 5 7 -4 9 -3 17 2 17 12 0 33 44 33 69 0 10 -6 24 -14 30 -12 10 -15 7 -18 -21 -2 -18 -7 -33 -13 -32 -11 0 -68 184 -60 193 10 10 40 -16 65 -56 14 -22 37 -59 52 -81 15 -23 30 -60 33 -84 3 -25 2 -36 -3 -25 -6 14 -10 10 -18 -23 -9 -32 -9 -40 2 -40 8 0 11 -6 8 -15 -9 -22 -30 -18 -50 8 -12 16 -15 17 -10 4 3 -10 6 -32 6 -48 0 -16 5 -29 11 -29 6 0 9 8 6 19 -3 14 0 17 13 14 31 -8 50 34 50 113 0 61 -4 77 -27 110 -14 21 -44 65 -65 96 -24 36 -46 58 -60 60 -18 2 -26 15 -41 64 -17 57 -86 157 -87 127z"/>
 <path d="M910 1340 c-25 -16 39 -32 112 -28 70 4 85 9 73 27 -8 13 -164 14 -185 1z"/>
 <path d="M953 1188 c-13 -6 -23 -15 -23 -19 0 -16 50 -192 56 -198 3 -3 4 12 0 34 -16 109 -17 154 -7 174 13 23 7 25 -26 9z"/>
 <path d="M664 1001 c-28 -12 -52 -47 -65 -93 -5 -22 -16 -38 -24 -38 -8 0 -15 -7 -15 -16 0 -8 5 -12 11 -9 5 4 21 -5 34 -19 15 -17 34 -26 52 -25 30 1 26 3 -21 14 -28 6 -28 7 -24 66 4 48 10 65 31 87 26 25 33 27 115 26 96 0 137 -15 166 -58 22 -35 20 -71 -5 -95 -25 -23 -55 -31 -159 -41 -74 -7 -74 -7 -20 -9 41 -2 50 -5 35 -11 -34 -15 -119 -11 -143 6 -31 22 -28 0 4 -25 37 -29 136 -28 224 2 51 17 65 26 65 42 0 34 12 41 74 40 66 -1 76 -6 76 -38 0 -18 12 -26 65 -44 87 -30 181 -31 221 -2 16 11 29 25 29 30 0 6 -10 3 -22 -5 -24 -17 -109 -21 -143 -6 -15 6 -7 9 30 10 70 1 127 16 143 37 7 10 20 17 28 15 8 -2 14 4 14 13 0 8 -9 15 -20 15 -15 0 -20 7 -20 25 0 39 -27 83 -60 100 -18 9 -53 14 -92 14 l-63 -2 73 -7 c97 -9 124 -33 130 -119 4 -59 4 -60 -24 -68 -16 -4 -72 -8 -124 -7 -112 0 -166 18 -176 58 -14 58 16 101 84 123 20 6 29 12 19 12 -56 3 -117 -57 -117 -114 0 -23 -3 -25 -50 -25 -47 0 -50 2 -50 25 0 41 -26 81 -66 100 -42 20 -187 30 -220 16z"/>
 <path d="M739 936 c35 -36 35 -43 -2 -83 l-19 -22 30 1 c22 1 32 7 36 22 l6 21 19 -22 c11 -13 29 -23 42 -23 23 0 23 0 -4 28 -15 15 -27 32 -27 36 0 4 12 23 26 42 l26 34 -24 0 c-16 0 -29 -9 -38 -25 -10 -19 -16 -22 -27 -14 -7 6 -13 18 -13 25 0 9 -11 14 -32 14 l-32 0 33 -34z"/>
 <path d="M1154 937 c31 -41 32 -49 6 -72 -27 -24 -25 -35 4 -35 17 0 27 7 32 22 l7 22 17 -22 c10 -12 28 -22 40 -22 21 0 21 0 -4 31 -27 32 -25 51 8 79 23 18 20 30 -9 30 -15 0 -25 -6 -25 -14 0 -7 -6 -19 -13 -25 -11 -8 -17 -5 -27 14 -9 16 -22 25 -37 25 l-24 0 25 -33z"/>
 <path d="M1432 790 c0 -19 2 -27 5 -17 2 9 2 25 0 35 -3 9 -5 1 -5 -18z"/>
 <path d="M562 770 c0 -19 2 -27 5 -17 2 9 2 25 0 35 -3 9 -5 1 -5 -18z"/>
 <path d="M1497 655 c-6 -132 -23 -200 -70 -288 -35 -67 -90 -118 -153 -144 -24 -10 -44 -22 -44 -26 0 -11 44 3 48 14 2 5 8 7 13 3 5 -3 9 0 9 6 0 6 4 9 9 5 11 -6 106 80 106 96 0 5 5 13 12 17 12 8 37 62 35 75 -1 4 3 7 9 7 5 0 8 4 4 9 -3 5 -1 12 5 16 6 4 8 11 5 16 -4 5 -3 15 1 21 5 7 9 22 11 33 1 11 4 31 7 45 14 91 16 140 9 175 -8 34 -10 22 -16 -80z"/>
 <path d="M1413 625 c0 -33 2 -45 4 -27 2 18 2 45 0 60 -2 15 -4 0 -4 -33z"/>
 <path d="M473 630 c0 -25 2 -35 4 -22 2 12 2 32 0 45 -2 12 -4 2 -4 -23z"/>
 <path d="M563 610 c0 -30 2 -43 4 -27 2 15 2 39 0 55 -2 15 -4 2 -4 -28z"/>
 <path d="M477 563 c-4 -6 -3 -23 3 -38 6 -15 8 -30 5 -35 -3 -5 -1 -11 5 -15 6 -4 8 -10 5 -15 -3 -5 -1 -11 5 -15 6 -4 8 -11 5 -16 -4 -5 -1 -9 6 -9 7 0 10 -3 6 -6 -3 -3 3 -15 13 -27 11 -11 18 -23 16 -26 -2 -3 22 -31 55 -62 32 -31 59 -54 59 -51 0 2 -25 31 -55 64 -66 71 -93 120 -109 201 -7 34 -16 56 -19 50z"/>
 <path d="M1233 493 c9 -2 25 -2 35 0 9 3 1 5 -18 5 -19 0 -27 -2 -17 -5z"/>
 </g>
<g id="layer113" fill="#b2938f" stroke="none">
 <path d="M110 1990 c0 -6 16 -51 36 -100 l37 -89 63 -31 c59 -29 251 -80 302 -80 17 0 22 -6 22 -25 0 -17 9 -29 28 -39 33 -17 88 -75 121 -129 16 -27 28 -36 39 -32 12 5 12 1 -3 -17 -11 -13 -3 -7 18 11 35 33 52 56 24 33 -22 -18 -3 115 27 188 14 36 44 88 65 117 22 28 45 61 51 73 19 36 49 130 42 130 -4 0 -15 -22 -25 -50 -10 -29 -24 -50 -32 -50 -19 0 -19 1 1 50 23 58 9 63 -16 5 l-20 -47 -33 21 c-74 49 -129 72 -165 69 l-37 -3 63 -24 c34 -13 79 -37 100 -53 20 -17 47 -34 60 -39 20 -8 21 -12 11 -31 -7 -13 -54 -65 -105 -116 -86 -87 -88 -96 -6 -35 38 29 40 25 7 -26 -13 -22 -33 -64 -43 -95 l-19 -56 -32 45 c-18 25 -49 54 -70 64 l-37 19 7 59 c16 119 22 260 12 277 -7 13 -12 -17 -16 -110 -8 -171 -10 -176 -56 -168 -65 12 -205 55 -264 81 -62 28 -79 51 -122 166 -16 43 -35 63 -35 37z"/>
 <path d="M1080 1991 c0 -66 26 -174 55 -226 36 -65 59 -137 73 -227 8 -52 7 -57 -7 -46 -9 7 0 -5 18 -25 33 -35 56 -52 32 -24 -8 11 -5 17 14 27 13 7 54 51 90 97 36 45 70 83 75 83 6 0 10 9 10 19 0 22 11 26 85 36 126 16 256 60 282 94 16 21 73 166 73 186 0 35 -17 10 -43 -64 -36 -101 -55 -125 -121 -150 -58 -21 -274 -66 -282 -58 -3 3 -8 69 -11 148 -4 83 -9 135 -14 124 -11 -30 -10 -155 2 -238 l11 -75 -73 -86 -72 -87 -17 63 c-9 35 -24 80 -33 101 l-17 38 48 -25 47 -26 -51 48 c-58 53 -114 127 -114 150 0 9 3 13 6 9 11 -11 67 18 159 82 69 48 83 61 64 61 -14 0 -52 -16 -85 -36 -32 -20 -73 -45 -91 -56 l-31 -19 -9 52 c-4 30 -14 54 -22 57 -10 3 -12 -2 -8 -19 19 -78 19 -99 4 -93 -10 4 -18 25 -23 60 -3 30 -10 54 -15 54 -5 0 -9 -4 -9 -9z"/>
 <path d="M672 1348 c-18 -24 -41 -69 -50 -100 -14 -48 -21 -58 -41 -60 -17 -2 -38 -22 -67 -63 -76 -106 -84 -127 -84 -209 0 -77 13 -106 46 -106 10 0 14 -6 10 -17 -11 -39 -17 -108 -8 -93 5 8 12 38 15 65 3 28 7 57 10 65 2 8 2 12 0 8 -7 -12 -41 -9 -49 3 -3 6 -2 14 4 18 7 4 8 17 5 31 l-7 25 -7 -25 c-5 -17 -7 -6 -8 36 -1 55 3 67 34 110 19 27 44 66 55 86 35 65 77 72 65 11 -3 -15 10 19 29 76 22 65 44 113 61 131 15 16 26 33 23 40 -2 6 -18 -9 -36 -32z"/>
 <path d="M1290 1384 c0 -6 8 -18 19 -28 22 -20 42 -65 75 -171 14 -44 23 -66 20 -48 -5 32 4 47 23 35 23 -14 123 -177 129 -210 4 -19 3 -56 -2 -81 -8 -40 -13 -46 -36 -49 -22 -3 -28 -9 -28 -28 0 -13 5 -24 11 -24 6 0 9 8 6 19 -3 14 0 17 13 14 31 -8 50 34 50 113 0 61 -4 77 -27 110 -14 21 -44 65 -65 96 -24 36 -46 58 -60 60 -18 2 -26 15 -41 64 -16 56 -85 157 -87 128z"/>
 <path d="M915 1339 c-12 -19 6 -24 90 -24 46 0 86 3 90 7 19 18 -13 28 -90 28 -49 0 -87 -4 -90 -11z"/>
 <path d="M958 1188 c-16 -5 -28 -13 -28 -16 0 -4 11 -45 25 -92 l25 -85 -6 88 c-4 62 -2 92 6 102 14 17 15 17 -22 3z"/>
 <path d="M1421 1060 c0 -8 4 -24 9 -35 5 -13 9 -14 9 -5 0 8 -4 24 -9 35 -5 13 -9 14 -9 5z"/>
 <path d="M502 1028 c-7 -7 -12 -20 -12 -30 0 -27 22 -68 33 -61 6 4 7 -5 3 -23 -5 -24 -4 -26 5 -11 8 14 7 29 -5 61 -9 24 -14 50 -10 60 7 19 3 21 -14 4z"/>
 <path d="M556 1014 c-4 -14 -5 -28 -3 -31 3 -2 8 8 11 23 4 14 5 28 3 31 -3 2 -8 -8 -11 -23z"/>
 <path d="M1480 1014 c0 -16 -4 -45 -10 -64 l-9 -35 24 28 c28 32 32 69 10 87 -13 11 -15 8 -15 -16z"/>
 <path d="M664 1001 c-28 -12 -52 -47 -65 -93 -5 -22 -16 -38 -24 -38 -8 0 -15 -7 -15 -16 0 -8 5 -12 11 -9 5 4 21 -5 34 -19 15 -17 34 -26 52 -25 30 1 26 3 -21 14 -28 6 -28 7 -24 66 4 48 10 65 31 87 26 25 33 27 115 26 96 0 137 -15 166 -58 22 -35 20 -71 -5 -95 -25 -23 -55 -31 -159 -41 -74 -7 -74 -7 -20 -9 41 -2 50 -5 35 -11 -34 -15 -119 -11 -143 6 -31 22 -28 0 4 -25 37 -29 136 -28 224 2 51 17 65 26 65 42 0 34 12 41 74 40 66 -1 76 -6 76 -38 0 -18 12 -26 65 -44 87 -30 181 -31 221 -2 16 11 29 25 29 30 0 6 -10 3 -22 -5 -24 -17 -109 -21 -143 -6 -15 6 -7 9 30 10 70 1 127 16 143 37 7 10 20 17 28 15 8 -2 14 4 14 13 0 8 -9 15 -20 15 -15 0 -20 7 -20 25 0 39 -27 83 -60 100 -18 9 -53 14 -92 14 l-63 -2 73 -7 c97 -9 124 -33 130 -119 4 -59 4 -60 -24 -68 -16 -4 -72 -8 -124 -7 -112 0 -166 18 -176 58 -14 58 16 101 84 123 20 6 29 12 19 12 -56 3 -117 -57 -117 -114 0 -23 -3 -25 -50 -25 -47 0 -50 2 -50 25 0 41 -26 81 -66 100 -42 20 -187 30 -220 16z"/>
 <path d="M739 936 c35 -36 35 -43 -2 -83 l-19 -22 30 1 c22 1 32 7 36 22 l6 21 19 -22 c11 -13 29 -23 42 -23 23 0 23 0 -4 28 -15 15 -27 32 -27 36 0 4 12 23 26 42 l26 34 -24 0 c-16 0 -29 -9 -38 -25 -10 -19 -16 -22 -27 -14 -7 6 -13 18 -13 25 0 9 -11 14 -32 14 l-32 0 33 -34z"/>
 <path d="M1154 937 c31 -41 32 -49 6 -72 -27 -24 -25 -35 4 -35 17 0 27 7 32 22 l7 22 17 -22 c10 -12 28 -22 40 -22 21 0 21 0 -4 31 -27 32 -25 51 8 79 23 18 20 30 -9 30 -15 0 -25 -6 -25 -14 0 -7 -6 -19 -13 -25 -11 -8 -17 -5 -27 14 -9 16 -22 25 -37 25 l-24 0 25 -33z"/>
 <path d="M1432 790 c0 -19 2 -27 5 -17 2 9 2 25 0 35 -3 9 -5 1 -5 -18z"/>
 <path d="M562 770 c0 -19 2 -27 5 -17 2 9 2 25 0 35 -3 9 -5 1 -5 -18z"/>
 <path d="M1497 655 c-6 -132 -23 -200 -70 -288 -35 -67 -90 -118 -153 -144 -24 -10 -44 -22 -44 -26 0 -11 44 3 48 14 2 5 8 7 13 3 5 -3 9 0 9 6 0 6 4 9 9 5 11 -6 106 80 106 96 0 5 5 13 12 17 12 8 37 62 35 75 -1 4 3 7 9 7 5 0 8 4 4 9 -3 5 -1 12 5 16 6 4 8 11 5 16 -4 5 -3 15 1 21 5 7 9 22 11 33 1 11 4 31 7 45 14 91 16 140 9 175 -8 34 -10 22 -16 -80z"/>
 <path d="M1413 625 c0 -33 2 -45 4 -27 2 18 2 45 0 60 -2 15 -4 0 -4 -33z"/>
 <path d="M473 630 c0 -25 2 -35 4 -22 2 12 2 32 0 45 -2 12 -4 2 -4 -23z"/>
 <path d="M563 610 c0 -30 2 -43 4 -27 2 15 2 39 0 55 -2 15 -4 2 -4 -28z"/>
 <path d="M477 563 c-4 -6 -3 -23 3 -38 6 -15 8 -30 5 -35 -3 -5 -1 -11 5 -15 6 -4 8 -10 5 -15 -3 -5 -1 -11 5 -15 6 -4 8 -11 5 -16 -4 -5 -1 -9 6 -9 7 0 10 -3 6 -6 -3 -3 3 -15 13 -27 11 -11 18 -23 16 -26 -2 -3 22 -31 55 -62 32 -31 59 -54 59 -51 0 2 -25 31 -55 64 -66 71 -93 120 -109 201 -7 34 -16 56 -19 50z"/>
 <path d="M1233 493 c9 -2 25 -2 35 0 9 3 1 5 -18 5 -19 0 -27 -2 -17 -5z"/>
 </g>
<g id="layer114" fill="#9e8d8d" stroke="none">
 <path d="M110 1990 c0 -6 16 -51 36 -100 l37 -89 63 -31 c59 -29 251 -80 302 -80 17 0 22 -6 22 -25 0 -17 9 -29 28 -39 33 -17 88 -75 120 -128 12 -20 29 -39 38 -42 8 -3 12 -2 9 3 -5 9 12 26 27 26 3 0 10 4 15 9 5 5 3 6 -4 2 -10 -5 -13 7 -13 47 0 70 41 173 103 260 47 65 88 153 86 185 0 9 -8 -5 -18 -33 -10 -29 -25 -51 -34 -53 -21 -4 -21 10 -1 49 8 17 13 36 11 42 -3 7 -14 -9 -25 -35 -12 -27 -23 -48 -26 -48 -2 0 -28 16 -58 35 -60 40 -112 59 -148 53 -20 -2 -14 -7 33 -26 60 -23 187 -100 187 -114 0 -4 -44 -54 -97 -110 -86 -90 -92 -98 -47 -65 29 20 55 37 58 37 3 0 -6 -18 -20 -40 -15 -22 -36 -67 -48 -100 l-22 -60 -35 46 c-18 25 -51 55 -71 65 -32 16 -37 23 -33 47 25 145 32 286 15 312 -7 10 -10 -13 -10 -75 0 -87 -14 -202 -25 -213 -10 -11 -212 46 -286 80 l-75 35 -37 81 c-20 45 -37 86 -37 92 0 5 -4 10 -10 10 -5 0 -10 -5 -10 -10z"/>
 <path d="M1087 1948 c6 -81 22 -139 48 -179 44 -68 98 -295 65 -274 -9 6 -11 4 -6 -4 5 -7 11 -10 14 -7 3 3 13 -1 23 -10 25 -22 47 -6 124 94 36 45 70 82 75 82 6 0 10 9 10 19 0 22 11 26 85 36 126 16 256 60 282 94 16 21 73 166 73 186 0 28 -18 15 -25 -17 -4 -18 -20 -61 -35 -95 -31 -69 -61 -93 -145 -117 -68 -20 -235 -49 -241 -43 -3 2 -8 69 -11 148 -4 83 -9 135 -14 124 -12 -30 -10 -150 2 -242 12 -82 12 -83 -12 -102 -13 -11 -44 -47 -69 -80 -46 -62 -60 -73 -60 -46 0 8 -13 53 -29 100 -16 47 -27 85 -25 85 3 0 23 -12 47 -26 39 -24 37 -21 -18 29 -33 30 -73 78 -88 106 l-28 51 28 0 c18 0 65 25 133 70 83 55 99 70 79 70 -14 0 -65 -25 -114 -55 -48 -30 -89 -55 -90 -55 -2 0 -7 20 -10 43 -7 44 -20 75 -29 67 -2 -3 0 -29 6 -59 5 -29 7 -55 4 -58 -12 -13 -25 12 -31 62 -9 70 -23 72 -18 3z"/>
 <path d="M672 1348 c-18 -24 -41 -69 -50 -100 -14 -48 -21 -58 -41 -60 -17 -2 -38 -22 -67 -63 -76 -106 -84 -127 -84 -207 0 -82 4 -93 42 -107 23 -8 27 -7 32 12 3 11 3 23 1 26 -3 2 -5 -1 -5 -7 0 -15 -37 -16 -46 -1 -3 6 -2 14 4 18 7 4 8 17 5 31 l-7 25 -7 -25 c-5 -17 -7 -6 -8 36 -1 55 3 67 34 110 19 27 44 66 55 86 35 65 77 72 65 11 -3 -15 10 19 29 76 22 65 44 113 61 131 15 16 26 33 23 40 -2 6 -18 -9 -36 -32z"/>
 <path d="M1290 1384 c0 -6 8 -18 19 -28 22 -20 42 -65 75 -171 14 -44 23 -66 20 -48 -5 32 4 47 23 35 23 -14 123 -177 129 -210 10 -54 -7 -126 -31 -130 -30 -6 -41 -20 -26 -34 11 -11 13 -10 8 3 -4 12 -1 15 13 12 31 -8 50 33 50 113 0 61 -4 77 -27 110 -14 21 -44 65 -65 96 -24 36 -46 58 -60 60 -18 2 -26 15 -41 64 -16 56 -85 157 -87 128z"/>
 <path d="M915 1339 c-12 -19 6 -24 90 -24 46 0 86 3 90 7 19 18 -13 28 -90 28 -49 0 -87 -4 -90 -11z"/>
 <path d="M958 1188 c-16 -5 -28 -13 -28 -16 0 -4 11 -45 25 -92 l25 -85 -6 88 c-4 62 -2 92 6 102 14 17 15 17 -22 3z"/>
 <path d="M1421 1060 c0 -8 4 -24 9 -35 5 -13 9 -14 9 -5 0 8 -4 24 -9 35 -5 13 -9 14 -9 5z"/>
 <path d="M502 1028 c-7 -7 -12 -20 -12 -30 0 -25 22 -68 31 -62 5 3 9 0 9 -7 0 -7 3 -10 6 -7 3 3 -2 23 -11 44 -8 20 -13 45 -9 56 6 21 3 23 -14 6z"/>
 <path d="M556 1014 c-4 -14 -5 -28 -3 -31 3 -2 8 8 11 23 4 14 5 28 3 31 -3 2 -8 -8 -11 -23z"/>
 <path d="M1480 1014 c0 -16 -4 -45 -10 -64 l-9 -35 24 28 c28 32 32 69 10 87 -13 11 -15 8 -15 -16z"/>
 <path d="M658 994 c-32 -17 -58 -62 -58 -99 0 -18 -5 -25 -20 -25 -11 0 -20 -7 -20 -16 0 -8 5 -12 11 -9 5 4 21 -5 34 -19 15 -17 34 -26 52 -25 30 1 26 3 -19 13 -26 6 -28 10 -28 61 0 46 4 60 29 87 27 30 36 34 103 39 l73 6 -65 1 c-41 1 -75 -4 -92 -14z"/>
 <path d="M1263 1001 c61 -5 72 -10 98 -39 25 -27 29 -41 29 -87 0 -51 -2 -55 -27 -61 -45 -10 -50 -12 -20 -13 15 -1 36 8 49 21 13 13 29 22 35 20 7 -2 13 4 13 13 0 8 -9 15 -20 15 -15 0 -20 7 -20 28 0 33 -30 81 -62 98 -13 8 -50 13 -83 12 l-60 -1 68 -6z"/>
 <path d="M852 988 c66 -18 106 -87 78 -138 -11 -20 -59 -40 -97 -40 -13 0 -22 -3 -20 -7 3 -5 -25 -7 -61 -7 l-67 2 60 -7 c56 -6 58 -7 26 -13 -54 -13 -115 -9 -139 7 -19 14 -21 14 -16 1 19 -50 133 -61 244 -23 53 18 65 26 65 44 0 32 10 37 76 38 62 1 74 -6 74 -40 0 -16 14 -25 65 -42 111 -38 225 -27 244 23 5 13 3 13 -16 -1 -24 -16 -85 -20 -139 -7 -32 6 -30 7 26 13 l60 7 -68 -2 c-37 0 -67 2 -67 5 0 4 -18 9 -40 13 -72 11 -98 62 -65 126 9 17 13 30 11 30 -11 0 -36 -60 -36 -83 0 -18 -6 -26 -25 -29 -46 -9 -75 2 -75 29 0 56 -62 115 -117 112 -10 -1 -1 -6 19 -11z"/>
 <path d="M739 938 c17 -17 31 -36 31 -42 0 -5 -12 -23 -27 -39 l-28 -28 27 3 c16 2 34 12 42 23 13 18 14 18 27 -3 8 -13 24 -22 38 -22 l25 0 -27 28 c-33 34 -33 37 -1 79 l25 33 -24 0 c-16 0 -28 -9 -36 -26 -9 -21 -14 -24 -26 -14 -8 7 -15 19 -15 26 0 9 -11 14 -31 14 l-31 0 31 -32z"/>
 <path d="M1159 933 c30 -36 30 -38 12 -58 -32 -36 -34 -45 -8 -45 16 0 26 7 30 20 3 11 10 20 15 20 6 0 14 -9 17 -20 4 -13 15 -20 32 -20 l25 0 -26 31 c-32 38 -32 40 -1 69 14 13 25 27 25 32 0 4 -11 8 -25 8 -15 0 -25 -6 -25 -14 0 -7 -7 -19 -15 -26 -12 -10 -17 -7 -26 14 -8 18 -20 26 -36 26 l-24 0 30 -37z"/>
 <path d="M476 734 c-4 -14 -5 -28 -3 -31 3 -2 8 8 11 23 4 14 5 28 3 31 -3 2 -8 -8 -11 -23z"/>
 <path d="M1501 675 c0 -53 3 -73 9 -60 5 11 9 38 9 60 0 22 -4 49 -9 60 -6 13 -9 -7 -9 -60z"/>
 <path d="M1476 488 c-3 -18 -20 -62 -37 -98 -17 -36 -30 -66 -30 -67 1 -4 -64 -69 -69 -69 -3 0 -23 -9 -44 -20 -24 -13 -35 -24 -27 -28 6 -4 11 -2 11 4 0 6 5 8 10 5 6 -3 10 -1 10 5 0 6 4 9 9 6 5 -3 12 1 15 9 3 8 9 14 13 13 10 -3 78 65 75 75 -1 4 5 10 13 13 8 3 12 10 9 15 -3 5 0 9 6 9 6 0 9 4 5 9 -3 5 1 16 9 24 8 8 12 17 9 21 -4 3 -1 6 5 6 6 0 9 7 6 15 -4 8 -1 15 6 15 6 0 8 5 5 10 -4 6 -2 16 4 23 5 7 6 19 2 26 -6 9 -10 2 -15 -21z"/>
 <path d="M505 431 c-3 -6 -1 -11 5 -11 6 0 9 -4 6 -9 -3 -5 1 -12 9 -15 13 -5 14 -2 4 17 -16 30 -16 30 -24 18z"/>
 <path d="M605 300 c28 -31 52 -54 55 -53 2 2 -20 27 -50 56 l-54 52 49 -55z"/>
 </g>
<g id="layer115" fill="#b57e7d" stroke="none">
 <path d="M110 1990 c0 -6 16 -51 36 -100 l37 -89 63 -31 c59 -29 251 -80 302 -80 17 0 22 -6 22 -25 0 -17 9 -29 28 -39 33 -17 90 -78 118 -124 10 -18 22 -32 26 -32 12 0 -39 79 -76 118 -17 19 -43 40 -58 48 -19 10 -28 23 -28 38 0 21 -6 24 -51 30 -64 9 -196 50 -267 84 -60 28 -75 48 -112 145 -22 60 -40 85 -40 57z"/>
 <path d="M690 1988 c75 -34 127 -62 146 -79 12 -11 38 -24 58 -30 l38 -10 -26 -32 c-76 -92 -121 -193 -131 -291 -6 -56 -5 -64 9 -62 8 1 19 6 23 11 4 4 2 5 -4 1 -10 -5 -13 7 -13 47 0 70 41 173 103 260 46 65 87 152 87 185 -1 9 -9 -7 -19 -36 -21 -61 -25 -66 -45 -59 -14 5 -13 12 4 53 11 26 19 49 16 51 -2 2 -12 -16 -22 -41 -11 -25 -24 -46 -29 -46 -6 0 -27 12 -48 26 -54 36 -118 64 -147 63 l-25 0 25 -11z"/>
 <path d="M1087 1947 c6 -80 22 -138 48 -178 45 -70 98 -294 64 -274 -8 5 -10 4 -6 0 10 -12 37 -15 37 -5 0 54 -39 190 -76 266 -24 50 -44 96 -44 102 0 7 13 9 33 5 27 -4 47 5 135 63 57 38 99 70 93 72 -12 4 -56 -18 -142 -74 l-68 -43 -14 62 c-8 34 -15 51 -16 37 0 -14 3 -42 8 -62 7 -30 6 -38 -5 -38 -19 0 -34 33 -34 74 0 19 -4 37 -8 40 -5 3 -7 -18 -5 -47z"/>
 <path d="M1409 1945 c-6 -58 5 -229 17 -267 3 -11 0 -20 -9 -24 -9 -3 -36 -33 -62 -67 -26 -34 -64 -77 -84 -95 -32 -29 -33 -32 -9 -21 15 7 57 49 93 95 36 46 70 84 75 84 6 0 10 9 10 19 0 22 11 26 85 36 126 16 256 60 282 94 16 21 73 166 73 186 0 28 -17 16 -24 -17 -3 -18 -20 -62 -37 -99 -29 -63 -35 -69 -90 -93 -69 -32 -298 -78 -300 -62 -1 6 -4 74 -8 151 -5 118 -7 130 -12 80z"/>
 <path d="M593 1830 c0 -30 2 -43 4 -27 2 15 2 39 0 55 -2 15 -4 2 -4 -28z"/>
 <path d="M582 1740 c0 -19 2 -27 5 -17 2 9 2 25 0 35 -3 9 -5 1 -5 -18z"/>
 <path d="M672 1348 c-18 -24 -41 -69 -50 -100 -14 -48 -21 -58 -41 -60 -17 -2 -38 -22 -67 -63 -76 -106 -84 -127 -84 -207 0 -82 4 -93 42 -107 23 -8 27 -7 32 12 3 11 3 23 1 26 -3 2 -5 -1 -5 -7 0 -15 -37 -16 -46 -1 -3 6 -2 14 4 18 7 4 8 17 5 31 l-7 25 -7 -25 c-5 -17 -7 -6 -8 36 -1 55 3 67 34 110 19 27 44 66 55 86 35 65 77 72 65 11 -3 -15 10 19 29 76 22 65 44 113 61 131 15 16 26 33 23 40 -2 6 -18 -9 -36 -32z"/>
 <path d="M1290 1384 c0 -6 8 -18 19 -28 22 -20 42 -65 75 -171 14 -44 23 -66 20 -48 -5 32 4 47 23 35 23 -14 123 -177 129 -210 10 -54 -7 -126 -31 -130 -30 -6 -41 -20 -26 -34 11 -11 13 -10 8 3 -4 12 -1 15 13 12 31 -8 50 33 50 113 0 61 -4 77 -27 110 -14 21 -44 65 -65 96 -24 36 -46 58 -60 60 -18 2 -26 15 -41 64 -16 56 -85 157 -87 128z"/>
 <path d="M915 1339 c-12 -19 6 -24 90 -24 46 0 86 3 90 7 19 18 -13 28 -90 28 -49 0 -87 -4 -90 -11z"/>
 <path d="M958 1188 c-16 -5 -28 -13 -28 -16 0 -4 11 -45 25 -92 l25 -85 -6 88 c-4 62 -2 92 6 102 14 17 15 17 -22 3z"/>
 <path d="M1421 1060 c0 -8 4 -24 9 -35 5 -13 9 -14 9 -5 0 8 -4 24 -9 35 -5 13 -9 14 -9 5z"/>
 <path d="M502 1028 c-7 -7 -12 -20 -12 -30 0 -25 22 -68 31 -62 5 3 9 0 9 -7 0 -7 3 -10 6 -7 3 3 -2 23 -11 44 -8 20 -13 45 -9 56 6 21 3 23 -14 6z"/>
 <path d="M556 1014 c-4 -14 -5 -28 -3 -31 3 -2 8 8 11 23 4 14 5 28 3 31 -3 2 -8 -8 -11 -23z"/>
 <path d="M1480 1014 c0 -16 -4 -45 -10 -64 l-9 -35 24 28 c28 32 32 69 10 87 -13 11 -15 8 -15 -16z"/>
 <path d="M658 994 c-32 -17 -58 -62 -58 -99 0 -18 -5 -25 -20 -25 -11 0 -20 -7 -20 -16 0 -8 5 -12 11 -9 5 4 21 -5 34 -19 15 -17 34 -26 52 -25 30 1 26 3 -19 13 -26 6 -28 10 -28 61 0 46 4 60 29 87 27 30 36 34 103 39 l73 6 -65 1 c-41 1 -75 -4 -92 -14z"/>
 <path d="M1263 1001 c61 -5 72 -10 98 -39 25 -27 29 -41 29 -87 0 -51 -2 -55 -27 -61 -45 -10 -50 -12 -20 -13 16 -1 36 8 50 22 12 12 26 22 31 22 5 0 11 6 14 13 2 7 -5 12 -17 12 -16 0 -21 6 -21 28 0 33 -30 81 -62 98 -13 8 -50 13 -83 12 l-60 -1 68 -6z"/>
 <path d="M852 988 c66 -18 106 -87 78 -138 -11 -20 -59 -40 -97 -40 -13 0 -22 -3 -20 -7 3 -5 -25 -7 -61 -7 l-67 2 60 -7 c56 -6 58 -7 26 -13 -54 -13 -115 -9 -139 7 -19 14 -21 14 -16 1 19 -50 133 -61 244 -23 53 18 65 26 65 44 0 32 10 37 76 38 62 1 74 -6 74 -40 0 -16 14 -25 65 -42 111 -38 225 -27 244 23 5 13 3 13 -16 -1 -24 -16 -85 -20 -139 -7 -32 6 -30 7 26 13 l60 7 -68 -2 c-37 0 -67 2 -67 5 0 4 -18 9 -40 13 -72 11 -98 62 -65 126 9 17 13 30 11 30 -11 0 -36 -60 -36 -83 0 -18 -6 -26 -25 -29 -46 -9 -75 2 -75 29 0 56 -62 115 -117 112 -10 -1 -1 -6 19 -11z"/>
 <path d="M739 938 c17 -17 31 -36 31 -42 0 -5 -12 -23 -27 -38 -32 -34 -10 -39 30 -8 l26 21 13 -21 c13 -20 48 -28 48 -12 0 5 -9 17 -20 27 -26 23 -25 31 6 72 l25 33 -24 0 c-16 0 -28 -9 -36 -26 -9 -21 -14 -24 -26 -14 -8 7 -15 19 -15 26 0 9 -11 14 -31 14 l-31 0 31 -32z"/>
 <path d="M1159 933 l30 -36 -26 -34 -25 -33 25 0 c16 0 26 7 30 20 3 11 10 20 15 20 6 0 14 -9 17 -20 4 -13 15 -20 32 -20 l25 0 -26 31 c-32 38 -32 40 -1 69 14 13 25 27 25 32 0 4 -11 8 -25 8 -15 0 -25 -6 -25 -14 0 -7 -7 -19 -15 -26 -12 -10 -17 -7 -26 14 -8 18 -20 26 -36 26 l-24 0 30 -37z"/>
 <path d="M476 734 c-4 -14 -5 -28 -3 -31 3 -2 8 8 11 23 4 14 5 28 3 31 -3 2 -8 -8 -11 -23z"/>
 <path d="M1501 675 c0 -53 3 -73 9 -60 5 11 9 38 9 60 0 22 -4 49 -9 60 -6 13 -9 -7 -9 -60z"/>
 <path d="M1476 488 c-3 -18 -20 -62 -37 -98 -17 -36 -30 -66 -30 -67 1 -4 -64 -69 -69 -69 -3 0 -23 -9 -44 -20 -24 -13 -35 -24 -27 -28 6 -4 11 -2 11 4 0 6 5 8 10 5 6 -3 10 -1 10 5 0 6 4 9 9 6 5 -3 12 1 15 9 3 8 9 14 13 13 10 -3 78 65 75 75 -1 4 5 10 13 13 8 3 12 10 9 15 -3 5 0 9 6 9 6 0 9 4 5 9 -3 5 1 16 9 24 8 8 12 17 9 21 -4 3 -1 6 5 6 6 0 9 7 6 15 -4 8 -1 15 6 15 6 0 8 5 5 10 -4 6 -2 16 4 23 5 7 6 19 2 26 -6 9 -10 2 -15 -21z"/>
 <path d="M505 431 c-3 -6 -1 -11 5 -11 6 0 9 -4 6 -9 -3 -5 1 -12 9 -15 13 -5 14 -2 4 17 -16 30 -16 30 -24 18z"/>
 <path d="M605 300 c28 -31 52 -54 55 -53 2 2 -20 27 -50 56 l-54 52 49 -55z"/>
 </g>
<g id="layer116" fill="#a9887a" stroke="none">
 <path d="M110 1990 c0 -6 16 -51 36 -100 l37 -89 63 -31 c59 -29 251 -80 302 -80 17 0 22 -6 22 -25 0 -17 9 -29 28 -39 33 -17 90 -78 118 -124 10 -18 22 -32 26 -32 12 0 -39 79 -76 118 -17 19 -43 40 -58 48 -19 10 -28 23 -28 38 0 21 -6 24 -51 30 -64 9 -196 50 -267 84 -60 28 -75 48 -112 145 -22 60 -40 85 -40 57z"/>
 <path d="M690 1988 c75 -34 127 -62 146 -79 12 -11 38 -24 58 -30 l38 -10 -26 -32 c-46 -56 -74 -103 -100 -166 -27 -67 -46 -199 -27 -187 6 4 11 31 11 61 0 68 41 171 103 258 46 65 87 152 87 185 -1 9 -9 -7 -19 -36 -21 -61 -25 -66 -45 -59 -14 5 -13 12 4 53 11 26 19 49 16 51 -2 2 -12 -16 -22 -41 -11 -25 -24 -46 -29 -46 -6 0 -27 12 -48 26 -54 36 -118 64 -147 63 l-25 0 25 -11z"/>
 <path d="M1087 1947 c6 -81 22 -139 49 -179 28 -43 74 -195 74 -244 0 -18 5 -36 10 -39 13 -8 13 -2 -6 96 -10 55 -31 116 -60 175 -24 50 -44 96 -44 102 0 7 13 9 33 5 27 -4 47 5 135 63 57 38 99 70 93 72 -12 4 -56 -18 -142 -74 l-68 -43 -14 62 c-8 34 -15 51 -16 37 0 -14 3 -42 8 -62 7 -30 6 -38 -5 -38 -19 0 -34 33 -34 74 0 19 -4 37 -8 40 -5 3 -7 -18 -5 -47z"/>
 <path d="M1409 1945 c-6 -58 5 -229 17 -267 3 -11 0 -20 -9 -24 -9 -3 -36 -33 -62 -67 -26 -34 -64 -77 -84 -95 -32 -29 -33 -32 -9 -21 15 7 57 49 93 95 36 46 70 84 75 84 6 0 10 9 10 19 0 22 11 26 85 36 126 16 256 60 282 94 16 21 73 166 73 186 0 28 -17 16 -24 -17 -3 -18 -20 -62 -37 -99 -29 -63 -35 -69 -90 -93 -69 -32 -298 -78 -300 -62 -1 6 -4 74 -8 151 -5 118 -7 130 -12 80z"/>
 <path d="M593 1830 c0 -30 2 -43 4 -27 2 15 2 39 0 55 -2 15 -4 2 -4 -28z"/>
 <path d="M582 1740 c0 -19 2 -27 5 -17 2 9 2 25 0 35 -3 9 -5 1 -5 -18z"/>
 <path d="M672 1348 c-18 -24 -41 -69 -50 -100 -14 -48 -21 -58 -41 -60 -25 -3 -84 -76 -131 -160 -26 -48 -29 -178 -4 -202 18 -18 40 -21 49 -6 3 6 -3 10 -14 10 -23 0 -38 19 -23 29 7 4 8 17 5 31 l-7 25 -7 -25 c-5 -17 -7 -6 -8 36 -1 55 3 67 34 110 19 27 44 66 55 86 35 65 77 72 65 11 -3 -15 10 19 29 76 22 65 44 113 61 131 15 16 26 33 23 40 -2 6 -18 -9 -36 -32z"/>
 <path d="M1290 1384 c0 -6 8 -18 19 -28 22 -20 42 -65 75 -171 14 -44 23 -66 20 -48 -5 32 4 47 23 35 23 -14 123 -177 129 -210 10 -53 -7 -125 -31 -132 -11 -3 -21 -14 -22 -25 -1 -11 0 -14 3 -7 3 6 12 12 19 12 29 0 45 43 45 116 0 61 -4 77 -27 110 -14 21 -44 65 -65 96 -24 36 -46 58 -60 60 -18 2 -26 15 -41 64 -16 56 -85 157 -87 128z"/>
 <path d="M920 1340 c-27 -17 1 -25 85 -25 46 0 87 4 91 8 16 16 -22 27 -91 27 -38 0 -77 -4 -85 -10z"/>
 <path d="M958 1188 c-16 -5 -28 -13 -28 -16 0 -4 11 -45 25 -92 l25 -85 -6 88 c-4 62 -2 92 6 102 14 17 15 17 -22 3z"/>
 <path d="M1421 1060 c0 -8 4 -24 9 -35 5 -13 9 -14 9 -5 0 8 -4 24 -9 35 -5 13 -9 14 -9 5z"/>
 <path d="M502 1028 c-7 -7 -12 -20 -12 -30 0 -25 22 -68 31 -62 5 3 9 0 9 -7 0 -7 3 -10 6 -7 3 3 -2 23 -11 44 -8 20 -13 45 -9 56 6 21 3 23 -14 6z"/>
 <path d="M556 1014 c-4 -14 -5 -28 -3 -31 3 -2 8 8 11 23 4 14 5 28 3 31 -3 2 -8 -8 -11 -23z"/>
 <path d="M1480 1014 c0 -16 -4 -45 -10 -64 l-9 -35 24 28 c28 32 32 69 10 87 -13 11 -15 8 -15 -16z"/>
 <path d="M658 994 c-32 -17 -58 -62 -58 -99 0 -18 -5 -25 -20 -25 -11 0 -20 -7 -20 -16 0 -8 5 -12 11 -9 5 4 21 -5 34 -19 15 -17 34 -26 52 -25 30 1 26 3 -19 13 -26 6 -28 10 -28 61 0 46 4 60 29 87 27 30 36 34 103 39 l73 6 -65 1 c-41 1 -75 -4 -92 -14z"/>
 <path d="M1263 1001 c61 -5 72 -10 98 -39 25 -27 29 -41 29 -87 0 -51 -2 -55 -27 -61 -45 -10 -50 -12 -20 -13 16 -1 36 8 50 22 12 12 26 22 31 22 5 0 11 6 14 13 2 7 -5 12 -17 12 -16 0 -21 6 -21 28 0 33 -30 81 -62 98 -13 8 -50 13 -83 12 l-60 -1 68 -6z"/>
 <path d="M852 988 c66 -18 106 -87 78 -138 -11 -20 -59 -40 -97 -40 -13 0 -22 -3 -20 -7 3 -5 -25 -7 -61 -7 l-67 2 60 -7 c56 -6 58 -7 26 -13 -54 -13 -115 -9 -139 7 -19 14 -21 14 -16 1 19 -50 133 -61 244 -23 53 18 65 26 65 44 0 32 10 37 76 38 62 1 74 -6 74 -40 0 -16 14 -25 65 -42 111 -38 225 -27 244 23 5 13 3 13 -16 -1 -24 -16 -85 -20 -139 -7 -32 6 -30 7 26 13 l60 7 -68 -2 c-37 0 -67 2 -67 5 0 4 -18 9 -40 13 -72 11 -98 62 -65 126 9 17 13 30 11 30 -11 0 -36 -60 -36 -83 0 -18 -6 -26 -25 -29 -46 -9 -75 2 -75 29 0 56 -62 115 -117 112 -10 -1 -1 -6 19 -11z"/>
 <path d="M739 938 c17 -17 31 -36 31 -42 0 -5 -12 -23 -27 -38 -32 -34 -10 -39 30 -8 l26 21 13 -21 c13 -20 48 -28 48 -12 0 5 -9 17 -20 27 -26 23 -25 31 6 72 l25 33 -24 0 c-16 0 -28 -9 -36 -26 -9 -21 -14 -24 -26 -14 -8 7 -15 19 -15 26 0 9 -11 14 -31 14 l-31 0 31 -32z"/>
 <path d="M1159 933 l30 -36 -26 -34 -25 -33 25 0 c16 0 26 7 30 20 3 11 10 20 15 20 6 0 14 -9 17 -20 4 -13 15 -20 32 -20 l25 0 -26 31 c-32 38 -32 40 -1 69 14 13 25 27 25 32 0 4 -11 8 -25 8 -15 0 -25 -6 -25 -14 0 -7 -7 -19 -15 -26 -12 -10 -17 -7 -26 14 -8 18 -20 26 -36 26 l-24 0 30 -37z"/>
 </g>
<g id="layer117" fill="#c27c57" stroke="none">
 <path d="M110 1990 c0 -6 16 -51 36 -100 l37 -89 63 -31 c59 -29 251 -80 302 -80 17 0 22 -6 22 -25 0 -17 9 -29 28 -39 33 -17 90 -78 118 -124 10 -18 22 -32 26 -32 12 0 -39 79 -76 118 -17 19 -43 40 -58 48 -19 10 -28 22 -28 39 0 20 -5 25 -23 25 -35 0 -172 36 -252 67 -89 34 -116 61 -151 156 -26 68 -44 96 -44 67z"/>
 <path d="M670 1996 c0 -2 21 -11 48 -21 42 -16 76 -36 137 -79 11 -8 34 -17 51 -20 26 -6 32 -3 43 20 6 15 10 29 7 31 -2 2 -7 -5 -11 -16 -6 -20 -25 -28 -38 -15 -3 3 3 26 14 51 11 25 18 48 15 50 -2 2 -12 -16 -22 -41 -11 -25 -24 -46 -29 -46 -6 0 -27 12 -48 26 -51 34 -117 64 -144 64 -13 0 -23 -2 -23 -4z"/>
 <path d="M1085 1970 c2 -19 7 -57 10 -83 4 -26 22 -77 41 -113 39 -73 74 -190 74 -246 0 -20 5 -40 10 -43 13 -8 13 -2 -6 96 -10 55 -31 116 -60 175 -24 50 -44 96 -44 102 0 7 13 9 33 5 27 -4 47 5 135 63 57 38 99 70 93 72 -12 4 -56 -18 -142 -74 l-68 -43 -14 62 c-8 34 -15 51 -16 37 0 -14 3 -42 8 -62 7 -30 6 -38 -5 -38 -18 0 -34 32 -34 67 0 15 -5 35 -10 43 -7 11 -8 5 -5 -20z"/>
 <path d="M1409 1945 c-6 -58 5 -229 17 -267 3 -11 0 -20 -9 -24 -9 -3 -36 -33 -62 -67 -26 -34 -64 -77 -84 -95 -32 -29 -33 -32 -9 -21 15 7 57 49 93 95 36 46 70 84 75 84 6 0 10 9 10 19 0 22 11 26 85 36 126 16 256 60 282 94 16 21 73 166 73 186 0 28 -18 15 -24 -17 -8 -45 -63 -158 -84 -174 -44 -34 -341 -102 -343 -80 -1 6 -4 74 -8 151 -5 118 -7 130 -12 80z"/>
 <path d="M593 1830 c0 -30 2 -43 4 -27 2 15 2 39 0 55 -2 15 -4 2 -4 -28z"/>
 <path d="M895 1823 c-43 -53 -62 -86 -89 -153 -27 -66 -46 -198 -27 -186 6 4 11 32 11 62 0 65 45 182 94 248 56 72 64 94 11 29z"/>
 <path d="M582 1740 c0 -19 2 -27 5 -17 2 9 2 25 0 35 -3 9 -5 1 -5 -18z"/>
 <path d="M672 1348 c-18 -24 -41 -69 -50 -100 -14 -48 -21 -58 -41 -60 -25 -3 -84 -76 -131 -160 -26 -48 -29 -178 -4 -202 18 -18 40 -21 49 -6 3 6 -3 10 -14 10 -23 0 -38 19 -23 29 7 4 8 17 5 31 l-7 25 -7 -25 c-5 -17 -7 -6 -8 36 -1 55 3 67 34 110 19 27 44 66 55 86 35 65 77 72 65 11 -3 -15 10 19 29 76 22 65 44 113 61 131 15 16 26 33 23 40 -2 6 -18 -9 -36 -32z"/>
 <path d="M1290 1384 c0 -6 8 -18 19 -28 22 -20 42 -65 75 -171 14 -44 23 -66 20 -48 -5 32 4 47 23 35 23 -14 123 -177 129 -210 10 -53 -7 -125 -31 -132 -11 -3 -21 -14 -22 -25 -1 -11 0 -14 3 -7 3 6 12 12 19 12 29 0 45 43 45 116 0 61 -4 77 -27 110 -14 21 -44 65 -65 96 -24 36 -46 58 -60 60 -18 2 -26 15 -41 64 -16 56 -85 157 -87 128z"/>
 <path d="M920 1340 c-27 -17 1 -25 85 -25 46 0 87 4 91 8 16 16 -22 27 -91 27 -38 0 -77 -4 -85 -10z"/>
 <path d="M958 1188 c-16 -5 -28 -13 -28 -16 0 -4 11 -45 25 -92 l25 -85 -6 88 c-4 62 -2 92 6 102 14 17 15 17 -22 3z"/>
 <path d="M1421 1060 c0 -8 4 -24 9 -35 5 -13 9 -14 9 -5 0 8 -4 24 -9 35 -5 13 -9 14 -9 5z"/>
 <path d="M502 1028 c-7 -7 -12 -20 -12 -30 0 -25 22 -68 31 -62 5 3 9 0 9 -7 0 -7 3 -10 6 -7 3 3 -2 23 -11 44 -8 20 -13 45 -9 56 6 21 3 23 -14 6z"/>
 <path d="M556 1014 c-4 -14 -5 -28 -3 -31 3 -2 8 8 11 23 4 14 5 28 3 31 -3 2 -8 -8 -11 -23z"/>
 <path d="M1480 1014 c0 -16 -4 -45 -10 -64 l-9 -35 24 28 c28 32 32 69 10 87 -13 11 -15 8 -15 -16z"/>
 <path d="M718 1003 c18 -2 45 -2 60 0 15 2 0 4 -33 4 -33 0 -45 -2 -27 -4z"/>
 <path d="M1228 1003 c18 -2 45 -2 60 0 15 2 0 4 -33 4 -33 0 -45 -2 -27 -4z"/>
 <path d="M635 974 c-14 -15 -25 -32 -25 -38 0 -6 8 1 17 16 9 15 26 31 37 37 12 5 15 10 8 10 -7 1 -24 -11 -37 -25z"/>
 <path d="M1353 967 c18 -18 34 -31 36 -30 6 4 -51 63 -60 63 -4 0 7 -15 24 -33z"/>
 <path d="M744 936 c14 -19 26 -38 26 -42 0 -4 -12 -21 -27 -36 -32 -34 -10 -39 30 -8 l26 21 13 -21 c13 -20 48 -28 48 -12 0 5 -9 17 -20 27 -26 23 -25 31 6 72 l25 33 -24 0 c-16 0 -28 -9 -36 -26 -9 -21 -14 -24 -26 -14 -8 7 -15 19 -15 26 0 8 -11 14 -26 14 l-26 0 26 -34z"/>
 <path d="M1140 963 c1 -5 11 -21 25 -37 l23 -29 -25 -34 -25 -33 25 0 c16 0 26 7 30 20 3 11 10 20 15 20 6 0 14 -9 17 -20 4 -13 15 -20 32 -20 l25 0 -26 31 c-32 38 -32 40 -1 69 14 13 25 27 25 32 0 4 -11 8 -25 8 -15 0 -25 -6 -25 -14 0 -7 -7 -19 -15 -26 -12 -10 -17 -7 -26 14 -11 23 -50 38 -49 19z"/>
 <path d="M929 933 c29 -58 -1 -108 -69 -119 -22 -4 -38 -10 -35 -14 7 -11 -75 -30 -127 -30 -24 0 -53 7 -66 15 -20 15 -21 14 -16 0 19 -47 117 -57 232 -23 61 18 73 25 69 39 -8 28 21 44 82 45 61 1 92 -15 84 -45 -4 -14 9 -22 69 -39 115 -34 213 -24 232 23 5 14 4 15 -16 0 -33 -22 -177 -18 -163 5 3 5 -4 6 -15 3 -11 -3 -20 0 -20 6 0 6 -10 11 -22 11 -36 0 -88 37 -89 62 -1 16 -3 18 -6 6 -5 -20 -44 -31 -78 -22 -19 5 -25 13 -25 33 0 15 -7 36 -16 47 -15 18 -15 18 -5 -3z"/>
 <path d="M602 898 c-2 -21 -7 -28 -22 -28 -11 0 -20 -7 -20 -16 0 -8 5 -12 11 -9 5 4 21 -5 34 -19 15 -17 34 -26 52 -25 29 1 25 3 -19 13 -24 6 -27 11 -31 59 -2 28 -4 40 -5 25z"/>
 <path d="M1397 863 c-4 -3 -7 -14 -7 -24 0 -12 -10 -21 -27 -25 -45 -10 -50 -12 -20 -13 16 -1 36 8 50 22 12 12 26 22 31 22 5 0 11 6 14 13 4 12 -29 17 -41 5z"/>
 <path d="M718 793 c18 -2 45 -2 60 0 15 2 0 4 -33 4 -33 0 -45 -2 -27 -4z"/>
 <path d="M1248 793 c12 -2 32 -2 45 0 12 2 2 4 -23 4 -25 0 -35 -2 -22 -4z"/>
 </g>
<g id="layer118" fill="#8f726f" stroke="none">
 <path d="M110 1990 c0 -6 16 -51 36 -100 l37 -89 63 -31 c59 -29 251 -80 302 -80 17 0 22 -6 22 -25 0 -17 9 -29 28 -39 33 -17 90 -78 118 -124 10 -18 22 -32 26 -32 12 0 -39 79 -76 118 -17 19 -43 40 -58 48 -19 10 -28 22 -28 39 0 20 -5 25 -23 25 -35 0 -172 36 -252 67 -89 34 -116 61 -151 156 -26 68 -44 96 -44 67z"/>
 <path d="M670 1996 c0 -2 21 -11 48 -21 42 -16 76 -36 137 -79 11 -8 34 -17 51 -20 26 -6 32 -3 43 20 6 15 10 29 7 31 -2 2 -7 -5 -11 -16 -6 -20 -25 -28 -38 -15 -3 3 3 26 14 51 11 25 18 48 15 50 -2 2 -12 -16 -22 -41 -11 -25 -24 -46 -29 -46 -6 0 -27 12 -48 26 -51 34 -117 64 -144 64 -13 0 -23 -2 -23 -4z"/>
 <path d="M1085 1970 c2 -19 7 -56 10 -82 3 -25 23 -80 44 -122 35 -69 60 -150 76 -250 3 -21 9 -36 11 -33 15 15 -31 189 -72 273 -24 50 -44 96 -44 102 0 7 13 9 33 5 27 -4 47 5 135 63 57 38 99 70 93 72 -12 4 -56 -18 -142 -74 l-68 -43 -14 62 c-8 34 -15 51 -16 37 0 -14 3 -42 8 -62 7 -30 6 -38 -5 -38 -18 0 -34 32 -34 67 0 15 -5 35 -10 43 -7 11 -8 5 -5 -20z"/>
 <path d="M1409 1945 c-6 -58 5 -229 17 -267 3 -11 0 -20 -9 -24 -9 -3 -36 -33 -62 -67 -26 -34 -64 -77 -84 -95 -32 -29 -33 -32 -9 -21 15 7 57 49 93 95 36 46 70 84 75 84 6 0 10 9 10 19 0 22 11 26 85 36 126 16 256 60 282 94 16 21 73 166 73 186 0 28 -18 15 -24 -17 -8 -45 -63 -158 -84 -174 -44 -34 -341 -102 -343 -80 -1 6 -4 74 -8 151 -5 118 -7 130 -12 80z"/>
 <path d="M593 1830 c0 -30 2 -43 4 -27 2 15 2 39 0 55 -2 15 -4 2 -4 -28z"/>
 <path d="M895 1823 c-70 -87 -111 -184 -119 -280 -4 -45 -2 -59 3 -43 5 14 9 42 10 63 1 49 54 176 95 231 56 72 64 94 11 29z"/>
 <path d="M582 1740 c0 -19 2 -27 5 -17 2 9 2 25 0 35 -3 9 -5 1 -5 -18z"/>
 <path d="M920 1340 c-26 -16 0 -25 73 -25 82 0 121 10 97 25 -19 12 -151 12 -170 0z"/>
 <path d="M718 1003 c18 -2 45 -2 60 0 15 2 0 4 -33 4 -33 0 -45 -2 -27 -4z"/>
 <path d="M1228 1003 c18 -2 45 -2 60 0 15 2 0 4 -33 4 -33 0 -45 -2 -27 -4z"/>
 <path d="M635 974 c-14 -15 -25 -32 -25 -38 0 -6 8 1 17 16 9 15 26 31 37 37 12 5 15 10 8 10 -7 1 -24 -11 -37 -25z"/>
 <path d="M1353 967 c18 -18 34 -31 36 -30 6 4 -51 63 -60 63 -4 0 7 -15 24 -33z"/>
 <path d="M744 936 c14 -19 26 -38 26 -42 0 -4 -12 -21 -27 -36 -32 -34 -10 -39 30 -8 l26 21 13 -21 c13 -20 48 -28 48 -12 0 5 -9 17 -20 27 -26 23 -25 31 6 72 l25 33 -24 0 c-16 0 -28 -9 -36 -26 -9 -21 -14 -24 -26 -14 -8 7 -15 19 -15 26 0 8 -11 14 -26 14 l-26 0 26 -34z"/>
 <path d="M1140 963 c1 -5 11 -21 25 -37 l23 -29 -25 -34 -25 -33 25 0 c16 0 26 7 30 20 3 11 10 20 15 20 6 0 14 -9 17 -20 4 -13 15 -20 32 -20 l25 0 -26 31 c-32 38 -32 40 -1 69 14 13 25 27 25 32 0 4 -11 8 -25 8 -15 0 -25 -6 -25 -14 0 -7 -7 -19 -15 -26 -12 -10 -17 -7 -26 14 -11 23 -50 38 -49 19z"/>
 <path d="M929 933 c29 -58 -1 -108 -69 -119 -22 -4 -38 -10 -35 -14 7 -11 -75 -30 -127 -30 -24 0 -53 7 -66 15 -20 15 -21 14 -16 0 19 -47 117 -57 232 -23 61 18 73 25 69 39 -8 28 21 44 82 45 61 1 92 -15 84 -45 -4 -14 9 -22 69 -39 115 -34 213 -24 232 23 5 14 4 15 -16 0 -33 -22 -177 -18 -163 5 3 5 -4 6 -15 3 -11 -3 -20 0 -20 6 0 6 -10 11 -22 11 -36 0 -88 37 -89 62 -1 16 -3 18 -6 6 -5 -20 -44 -31 -78 -22 -19 5 -25 13 -25 33 0 15 -7 36 -16 47 -15 18 -15 18 -5 -3z"/>
 <path d="M602 898 c-2 -21 -7 -28 -22 -28 -11 0 -20 -7 -20 -16 0 -8 5 -12 11 -9 5 4 21 -5 34 -19 15 -17 34 -26 52 -25 29 1 25 3 -19 13 -24 6 -27 11 -31 59 -2 28 -4 40 -5 25z"/>
 <path d="M1397 863 c-4 -3 -7 -14 -7 -24 0 -12 -10 -21 -27 -25 -45 -10 -50 -12 -20 -13 16 -1 36 8 50 22 12 12 26 22 31 22 5 0 11 6 14 13 4 12 -29 17 -41 5z"/>
 <path d="M718 793 c18 -2 45 -2 60 0 15 2 0 4 -33 4 -33 0 -45 -2 -27 -4z"/>
 <path d="M1248 793 c12 -2 32 -2 45 0 12 2 2 4 -23 4 -25 0 -35 -2 -22 -4z"/>
 </g>
<g id="layer119" fill="#926b5c" stroke="none">
 <path d="M110 1990 c0 -6 16 -51 36 -100 l37 -89 63 -31 c57 -28 272 -85 282 -75 2 2 -9 7 -24 10 -70 15 -173 49 -235 77 -67 30 -67 30 -103 109 -20 43 -36 83 -36 88 0 5 -4 13 -10 16 -5 3 -10 1 -10 -5z"/>
 <path d="M1413 1940 c0 -36 2 -50 4 -32 2 17 2 47 0 65 -2 17 -4 3 -4 -33z"/>
 <path d="M1869 1995 c-4 -5 -9 -22 -13 -36 -3 -15 -19 -57 -36 -93 -27 -62 -34 -69 -84 -92 -30 -14 -101 -34 -158 -44 -57 -11 -113 -22 -125 -25 -15 -3 -23 0 -26 12 -4 16 -5 16 -6 1 -2 -27 11 -28 100 -14 160 26 259 59 286 95 20 26 74 172 71 190 -2 9 -6 12 -9 6z"/>
 <path d="M765 1958 c11 -6 32 -20 48 -30 15 -11 27 -17 27 -14 0 8 -73 56 -85 56 -5 0 -1 -6 10 -12z"/>
 <path d="M1092 1945 c0 -16 3 -48 7 -70 5 -23 9 -30 10 -17 1 19 4 21 20 12 28 -15 41 -12 34 6 -4 10 -8 12 -12 5 -13 -21 -50 17 -54 57 -3 30 -4 31 -5 7z"/>
 <path d="M1412 1800 c0 -19 2 -27 5 -17 2 9 2 25 0 35 -3 9 -5 1 -5 -18z"/>
 <path d="M631 1603 c17 -15 45 -45 60 -67 16 -21 29 -35 29 -29 0 16 -56 89 -82 107 -37 26 -42 18 -7 -11z"/>
 <path d="M1212 1540 c0 -19 2 -27 5 -17 2 9 2 25 0 35 -3 9 -5 1 -5 -18z"/>
 <path d="M920 1340 c-26 -16 0 -25 73 -25 82 0 121 10 97 25 -19 12 -151 12 -170 0z"/>
 <path d="M718 1003 c18 -2 45 -2 60 0 15 2 0 4 -33 4 -33 0 -45 -2 -27 -4z"/>
 <path d="M1263 1003 c9 -2 25 -2 35 0 9 3 1 5 -18 5 -19 0 -27 -2 -17 -5z"/>
 <path d="M730 963 c0 -5 9 -19 20 -33 25 -32 25 -39 -2 -67 -29 -31 -15 -42 22 -15 l29 22 15 -22 c12 -17 18 -20 28 -10 9 9 7 17 -10 35 l-21 23 24 29 c29 36 31 45 7 45 -11 0 -24 -12 -31 -27 l-13 -28 -22 28 c-20 25 -46 36 -46 20z"/>
 <path d="M1140 964 c0 -3 11 -20 25 -36 l26 -30 -26 -34 -26 -34 24 0 c16 0 26 7 30 20 3 11 10 20 17 20 7 0 14 -9 17 -20 4 -13 14 -20 31 -20 l26 0 -27 28 c-32 34 -33 37 -7 69 11 14 20 30 20 34 0 19 -28 8 -45 -17 -13 -20 -19 -23 -31 -13 -8 6 -14 18 -14 25 0 8 -9 14 -20 14 -11 0 -20 -3 -20 -6z"/>
 <path d="M602 898 c-2 -21 -7 -28 -22 -28 -11 0 -20 -4 -20 -10 0 -5 9 -10 20 -10 11 0 20 -7 20 -15 0 -15 30 -36 52 -34 7 0 1 5 -14 10 -24 9 -27 16 -31 62 -2 29 -4 40 -5 25z"/>
 <path d="M941 882 c-1 -25 -8 -37 -33 -52 -18 -11 -46 -20 -61 -20 -16 0 -26 -4 -23 -9 7 -11 -74 -34 -124 -34 -22 0 -51 8 -64 17 -22 14 -25 14 -19 1 9 -26 59 -45 115 -45 70 1 183 39 183 62 0 31 24 43 85 44 62 1 85 -11 85 -45 0 -22 115 -60 183 -61 54 0 106 21 116 47 4 9 -2 8 -20 -4 -14 -9 -44 -16 -68 -16 -52 1 -126 21 -126 33 0 6 -10 10 -22 10 -36 0 -88 37 -89 62 -1 16 -3 18 -6 6 -5 -19 -44 -31 -77 -22 -17 4 -26 14 -29 32 -4 24 -4 23 -6 -6z"/>
 <path d="M1400 860 c0 -5 9 -10 20 -10 11 0 20 5 20 10 0 6 -9 10 -20 10 -11 0 -20 -4 -20 -10z"/>
 <path d="M1365 815 c-16 -8 -23 -14 -14 -15 8 0 24 7 35 15 23 18 18 18 -21 0z"/>
 <path d="M723 793 c15 -2 39 -2 55 0 15 2 2 4 -28 4 -30 0 -43 -2 -27 -4z"/>
 </g>
<g id="layer120" fill="#835a5a" stroke="none">
 <path d="M110 1990 c0 -6 16 -51 36 -100 l37 -89 62 -30 c53 -26 210 -72 240 -70 6 0 -35 15 -90 33 -172 56 -188 67 -229 156 -20 42 -36 81 -36 87 0 7 -4 15 -10 18 -5 3 -10 1 -10 -5z"/>
 <path d="M1413 1940 c0 -36 2 -50 4 -32 2 17 2 47 0 65 -2 17 -4 3 -4 -33z"/>
 <path d="M1868 1990 c-3 -8 -14 -37 -23 -65 -36 -102 -53 -125 -110 -151 -29 -14 -100 -34 -157 -44 -57 -11 -113 -22 -125 -25 -15 -3 -23 0 -26 12 -4 16 -5 16 -6 1 -2 -27 11 -28 100 -14 160 26 259 59 286 95 21 27 74 172 70 190 -3 13 -5 14 -9 1z"/>
 <path d="M1092 1940 c-1 -14 3 -43 7 -65 6 -26 9 -31 9 -15 1 14 -3 43 -7 65 -6 26 -9 31 -9 15z"/>
 <path d="M1412 1800 c0 -19 2 -27 5 -17 2 9 2 25 0 35 -3 9 -5 1 -5 -18z"/>
 <path d="M631 1603 c17 -15 45 -45 60 -67 16 -21 29 -35 29 -29 0 16 -56 89 -82 107 -37 26 -42 18 -7 -11z"/>
 <path d="M921 1341 c-24 -15 8 -24 84 -24 39 0 77 3 84 8 24 14 -11 25 -84 25 -38 0 -76 -4 -84 -9z"/>
 <path d="M730 963 c0 -5 9 -19 20 -33 25 -32 25 -39 -2 -67 -29 -31 -15 -42 22 -15 l29 22 15 -22 c12 -17 18 -20 28 -10 9 9 7 17 -10 35 l-21 23 24 29 c29 36 31 45 7 45 -11 0 -24 -12 -31 -27 l-13 -28 -22 28 c-20 25 -46 36 -46 20z"/>
 <path d="M1140 964 c0 -3 11 -20 25 -36 l26 -30 -26 -34 -26 -34 24 0 c16 0 26 7 30 20 3 11 10 20 17 20 7 0 14 -9 17 -20 4 -13 14 -20 31 -20 l26 0 -27 28 c-32 34 -33 37 -7 69 11 14 20 30 20 34 0 19 -28 8 -45 -17 -13 -20 -19 -23 -31 -13 -8 6 -14 18 -14 25 0 8 -9 14 -20 14 -11 0 -20 -3 -20 -6z"/>
 <path d="M1051 878 c0 -9 -5 -18 -11 -20 -5 -1 2 -8 16 -15 20 -9 23 -9 16 0 -6 7 -12 21 -15 32 -3 15 -5 16 -6 3z"/>
 <path d="M933 853 c-9 -19 -9 -22 0 -15 7 5 17 11 24 13 8 3 8 7 -1 15 -9 8 -15 5 -23 -13z"/>
 <path d="M560 860 c0 -5 9 -10 20 -10 11 0 20 5 20 10 0 6 -9 10 -20 10 -11 0 -20 -4 -20 -10z"/>
 <path d="M1400 860 c0 -5 9 -10 20 -10 11 0 20 5 20 10 0 6 -9 10 -20 10 -11 0 -20 -4 -20 -10z"/>
 <path d="M614 816 c11 -9 27 -16 35 -15 14 0 14 1 1 6 -8 3 -24 10 -35 15 -20 9 -20 9 -1 -6z"/>
 <path d="M890 820 c-8 -5 -25 -10 -37 -10 -13 0 -23 -4 -23 -9 0 -12 -83 -34 -130 -34 -22 0 -51 8 -64 17 -22 14 -25 14 -19 1 9 -25 58 -45 111 -45 83 0 227 53 184 68 -7 2 -10 8 -6 13 7 11 3 11 -16 -1z"/>
 <path d="M1091 811 c-23 -14 -3 -29 65 -51 109 -33 210 -21 229 28 4 12 3 12 -9 3 -38 -31 -149 -30 -201 3 -29 19 -68 26 -84 17z"/>
 </g>
<g id="layer121" fill="#6e5a53" stroke="none">
 <path d="M922 1343 c-31 -12 6 -23 83 -23 82 0 117 12 72 24 -26 7 -137 7 -155 -1z"/>
 <path d="M730 962 c0 -4 9 -18 20 -32 24 -30 25 -44 5 -60 -8 -7 -15 -16 -15 -21 0 -14 22 -10 41 7 16 15 19 14 31 -5 7 -12 16 -21 20 -21 14 0 8 37 -7 50 -13 11 -12 17 10 46 30 40 31 44 4 44 -16 0 -19 -4 -13 -22 3 -13 3 -20 -1 -16 -5 4 -14 3 -21 -3 -9 -7 -16 -4 -28 12 -15 21 -46 35 -46 21z"/>
 <path d="M1140 964 c0 -3 11 -20 25 -36 l26 -30 -26 -34 -26 -34 24 0 c16 0 26 7 30 20 3 11 10 20 17 20 7 0 14 -9 17 -20 4 -13 14 -20 31 -20 l26 0 -27 28 c-32 34 -33 37 -7 69 11 14 20 29 20 33 0 16 -29 4 -48 -20 l-19 -24 -18 27 c-15 24 -45 37 -45 21z"/>
 <path d="M1051 878 c0 -9 -5 -18 -11 -20 -5 -1 2 -8 16 -15 20 -9 23 -9 16 0 -6 7 -12 21 -15 32 -3 15 -5 16 -6 3z"/>
 <path d="M560 860 c0 -5 9 -10 20 -10 11 0 20 5 20 10 0 6 -9 10 -20 10 -11 0 -20 -4 -20 -10z"/>
 <path d="M930 847 c-11 -19 -11 -20 1 -11 8 6 21 13 28 16 13 4 13 5 0 10 -9 4 -21 -2 -29 -15z"/>
 <path d="M1400 860 c0 -5 9 -10 20 -10 11 0 20 5 20 10 0 6 -9 10 -20 10 -11 0 -20 -4 -20 -10z"/>
 <path d="M890 820 c-8 -5 -25 -10 -38 -10 -13 0 -21 -4 -18 -9 3 -5 -7 -11 -22 -15 -113 -25 -124 -26 -158 -11 -19 8 -34 10 -34 5 0 -18 60 -40 108 -40 83 0 227 53 184 68 -7 2 -10 8 -6 13 7 11 3 11 -16 -1z"/>
 <path d="M1091 811 c-23 -15 -4 -29 65 -51 81 -25 156 -26 195 -3 42 25 43 42 0 21 -32 -16 -45 -17 -96 -7 -33 6 -79 19 -102 30 -48 22 -44 21 -62 10z"/>
 </g>
<g id="layer122" fill="#62483d" stroke="none">
 <path d="M922 1343 c-31 -12 6 -23 83 -23 82 0 117 12 72 24 -26 7 -137 7 -155 -1z"/>
 <path d="M754 927 c23 -30 24 -35 10 -49 -24 -24 -7 -44 18 -22 20 18 28 14 41 -21 3 -5 8 -7 12 -3 4 4 0 20 -8 36 -13 28 -13 32 10 61 19 25 21 31 9 31 -9 0 -16 -7 -16 -17 0 -9 -3 -13 -7 -10 -3 4 -12 2 -20 -5 -11 -9 -17 -6 -29 10 -8 12 -22 22 -30 22 -11 0 -9 -8 10 -33z"/>
 <path d="M1164 931 c30 -31 29 -38 -7 -78 l-20 -23 21 0 c12 0 26 9 32 20 6 11 15 20 21 20 6 0 13 -9 16 -20 3 -11 14 -20 24 -20 24 0 24 12 -1 35 -25 23 -25 30 1 66 20 29 20 29 0 29 -11 0 -22 -9 -26 -20 -3 -11 -11 -20 -16 -20 -5 0 -14 9 -21 20 -7 11 -22 20 -32 20 -18 0 -17 -3 8 -29z"/>
 <path d="M560 860 c0 -5 9 -10 20 -10 11 0 20 5 20 10 0 6 -9 10 -20 10 -11 0 -20 -4 -20 -10z"/>
 <path d="M1400 860 c0 -5 9 -10 20 -10 11 0 20 5 20 10 0 6 -9 10 -20 10 -11 0 -20 -4 -20 -10z"/>
 <path d="M842 798 c-82 -37 -171 -43 -212 -15 -8 6 -5 0 8 -14 20 -21 31 -24 95 -23 105 1 230 50 169 66 -11 3 -38 -3 -60 -14z"/>
 <path d="M1097 812 c-65 -14 65 -65 170 -66 68 -1 74 1 100 29 16 16 19 22 8 13 -11 -8 -32 -18 -46 -22 -33 -7 -118 8 -167 31 -47 21 -44 20 -65 15z"/>
 </g>
<g id="layer123" fill="#852928" stroke="none">
 <path d="M922 1343 c-31 -12 6 -23 83 -23 82 0 117 12 72 24 -26 7 -137 7 -155 -1z"/>
 <path d="M754 929 c24 -28 25 -32 10 -54 -10 -15 -12 -25 -4 -30 5 -3 13 1 16 9 3 9 14 16 23 16 13 0 18 9 19 36 1 31 -1 34 -14 23 -12 -10 -17 -8 -30 9 -8 12 -22 22 -30 22 -12 0 -9 -8 10 -31z"/>
 <path d="M830 944 c0 -14 3 -14 15 -4 8 7 15 14 15 16 0 2 -7 4 -15 4 -8 0 -15 -7 -15 -16z"/>
 <path d="M1164 931 c30 -31 29 -38 -7 -78 -14 -16 -16 -23 -7 -23 8 0 25 10 38 23 l24 22 15 -22 c9 -13 22 -23 30 -23 13 0 13 3 -1 23 -28 38 -29 45 -6 77 17 24 18 30 6 30 -8 0 -22 -10 -31 -22 l-16 -23 -19 23 c-10 12 -26 22 -36 22 -15 0 -13 -5 10 -29z"/>
 <path d="M560 858 c0 -4 9 -8 20 -8 11 0 20 4 20 8 0 4 -9 8 -20 8 -11 0 -20 -4 -20 -8z"/>
 <path d="M823 790 c-74 -26 -133 -33 -168 -20 -29 11 -29 10 -12 -7 14 -14 32 -18 90 -17 74 2 178 31 185 52 5 17 -34 14 -95 -8z"/>
 <path d="M1082 800 c14 -42 239 -73 274 -39 15 16 13 16 -24 6 -34 -9 -54 -7 -124 12 -124 35 -131 36 -126 21z"/>
 </g>
<g id="layer124" fill="#672d2b" stroke="none">
 <path d="M754 929 c24 -28 25 -32 10 -54 -10 -15 -12 -25 -4 -30 5 -3 13 1 16 9 3 9 14 16 23 16 13 0 18 9 19 36 1 31 -1 34 -14 23 -12 -10 -17 -8 -30 9 -8 12 -22 22 -30 22 -12 0 -9 -8 10 -31z"/>
 <path d="M830 944 c0 -14 3 -14 15 -4 8 7 15 14 15 16 0 2 -7 4 -15 4 -8 0 -15 -7 -15 -16z"/>
 <path d="M1164 931 c30 -31 29 -38 -7 -78 -14 -16 -16 -23 -7 -23 8 0 25 10 38 23 l24 22 15 -22 c9 -13 22 -23 30 -23 13 0 13 3 -1 23 -28 38 -29 45 -6 77 17 24 18 30 6 30 -8 0 -22 -10 -31 -22 l-16 -23 -19 23 c-10 12 -26 22 -36 22 -15 0 -13 -5 10 -29z"/>
 <path d="M560 858 c0 -4 9 -8 20 -8 11 0 20 4 20 8 0 4 -9 8 -20 8 -11 0 -20 -4 -20 -8z"/>
 <path d="M823 790 c-74 -26 -133 -33 -168 -20 -29 11 -29 10 -12 -7 14 -14 32 -18 90 -17 74 2 178 31 185 52 5 17 -34 14 -95 -8z"/>
 <path d="M1082 800 c14 -42 239 -73 274 -39 15 16 13 16 -24 6 -34 -9 -54 -7 -124 12 -124 35 -131 36 -126 21z"/>
 </g>
<g id="layer125" fill="#2c252b" stroke="none">
 <path d="M754 929 c24 -28 25 -32 10 -54 -10 -15 -12 -25 -4 -30 5 -3 13 1 16 9 3 9 14 16 23 16 13 0 18 9 19 36 1 31 -1 34 -14 23 -12 -10 -17 -8 -30 9 -8 12 -22 22 -30 22 -12 0 -9 -8 10 -31z"/>
 <path d="M830 944 c0 -14 3 -14 15 -4 8 7 15 14 15 16 0 2 -7 4 -15 4 -8 0 -15 -7 -15 -16z"/>
 <path d="M1164 931 c30 -31 29 -38 -7 -78 -14 -16 -16 -23 -7 -23 8 0 25 10 38 23 l24 22 15 -22 c9 -13 22 -23 30 -23 13 0 13 3 -1 23 -28 38 -29 45 -6 77 17 24 18 30 6 30 -8 0 -22 -10 -31 -22 l-16 -23 -19 23 c-10 12 -26 22 -36 22 -15 0 -13 -5 10 -29z"/>
 <path d="M823 790 c-74 -26 -133 -33 -168 -20 -29 11 -29 10 -12 -7 14 -14 32 -18 90 -17 74 2 178 31 185 52 5 17 -34 14 -95 -8z"/>
 <path d="M1082 800 c14 -42 239 -73 274 -39 15 16 13 16 -24 6 -34 -9 -54 -7 -124 12 -124 35 -131 36 -126 21z"/>
 </g>
<g id="layer126" fill="#2a1c17" stroke="none">
 <path d="M743 943 c9 -9 19 -14 23 -11 10 10 -6 28 -24 28 -15 0 -15 -1 1 -17z"/>
 <path d="M830 944 c0 -14 3 -14 15 -4 8 7 15 14 15 16 0 2 -7 4 -15 4 -8 0 -15 -7 -15 -16z"/>
 <path d="M1222 934 c-9 -15 -13 -16 -26 -5 -14 11 -16 11 -16 -3 0 -9 7 -16 15 -16 22 0 19 -7 -17 -39 -18 -16 -30 -33 -25 -37 4 -4 18 3 31 15 14 13 30 20 36 16 7 -5 11 -1 9 11 -2 11 1 29 5 42 10 29 1 40 -12 16z"/>
 <path d="M800 925 c-10 -12 -10 -15 4 -15 9 0 16 7 16 15 0 8 -2 15 -4 15 -2 0 -9 -7 -16 -15z"/>
 <path d="M771 886 c-8 -9 -11 -19 -7 -23 9 -9 29 13 24 27 -2 8 -8 7 -17 -4z"/>
 </g>

</svg>