<?xml version="1.0" encoding="UTF-8" standalone="no"?>
<svg xmlns:rdf="http://www.w3.org/1999/02/22-rdf-syntax-ns#" xmlns="http://www.w3.org/2000/svg" height="200" viewBox="0 0 200 200" width="200" version="1.1" xmlns:cc="http://creativecommons.org/ns#" xmlns:dc="http://purl.org/dc/elements/1.1/">
 <path d="m14.3 195c.371-2.34 2.01-7.19 3.63-10.8 3.4-7.5 7.02-10 17.4-12 9.39-1.83 35.9-10.8 37.3-12.7 1.91-2.53 3.07-.559 4.14 6.99.781 5.51 5.68 24.5 6.61 25.5.140.163 1.64-2.16 3.34-5.17s4.9-7.37 7.12-9.71 3.93-4.36 3.79-4.49c-.139-.135-3.39-2.03-7.23-4.2-9.01-5.1-10.5-7.25-11.5-16.2-.434-3.95-.950-7.32-1.15-7.5-.198-.174-2.61-2.24-5.36-4.6-7.05-6.04-9.3-9.46-10.6-16.1-.981-4.99-1.46-5.83-3.34-5.83-2.78 0-6.19-3.61-7.09-7.5-.379-1.65-2.4-6.17-4.49-10.1-5.9-10.9-6.18-17.3-.850-19.3 1.79-.661 2.02-1.84 2.33-11.7.545-17.5 5.63-29.8 15.2-36.9 2.28-1.68 6.33-4.72 9-6.76 7.55-5.75 14.3-8.03 25.6-8.57 14.5-.696 24 2.34 34.8 11.2l8.73 7.13c3.55 2.89 8.29 12.1 10.2 20 .686 2.75 1.37 9.47 1.51 14.9.242 9.1.443 10 2.4 10.7 1.17.434 2.56 1.9 3.07 3.27 1.22 3.2-.824 11.3-3.81 15.1-1.21 1.54-2.92 5.31-3.8 8.39-1.82 6.39-4.73 10.1-7.91 10.1-1.88 0-2.36.842-3.34 5.83-1.31 6.67-3.56 10.1-10.6 16.2-4.98 4.29-6.7 6.95-6.42 9.94.882 9.37-2.01 13.6-12.7 18.8l-7.28 3.51 4.4 4.28c2.42 2.35 5.85 6.85 7.63 10l3.23 5.72 2.88-9.37c1.58-5.15 3.32-12.5 3.87-16.3 1.11-7.8 2.26-9.8 4.18-7.25 1.39 1.85 27.9 10.9 37.3 12.7 10.4 2.01 14 4.52 17.4 12 1.63 3.59 3.26 8.44 3.63 10.8l.675 4.25h-35.7c-35.6 0-35.7-.005-35-2.06.630-1.99-2.67-9.79-6.07-14.4-1.4-1.89-1.49-1.88-4.01.487-2.08 1.96-2.47 3.04-2.01 5.68.312 1.79.842 4.84 1.18 6.76l.611 3.5h-7.18c-6.35 0-7.12-.201-6.7-1.75 2.71-9.86 2.89-12.4 1.02-13.8-2.64-2-3.42-1.5-7.14 4.6-2.37 3.89-3.16 6.2-2.79 8.17l.513 2.75h-71zm60.7-102c-.66-.66-1.2-2.28-1.2-3.61 0-1.78-.409-2.25-1.58-1.8-.870.334-1.98.607-2.47.607-1.69 0 .302 3.07 2.92 4.49 3.27 1.77 3.88 1.86 2.33.310zm12.8-.678c0-.483-.620-1.39-1.38-2.02-1.08-.898-1.49-.710-1.91.878-.394 1.51-.0428 2.02 1.38 2.02 1.05 0 1.91-.395 1.91-.878zm29.3-1.07c-.421-1.61-.823-1.75-2.34-0.8-2.15 1.34-1.63 2.74 1 2.74 1.34 0 1.71-.537 1.34-1.94zm13.3-.116c1.6-1.76 1.65-2.19.405-2.98-2.28-1.44-2.7-1.17-3.17 2.05-.517 3.53.206 3.77 2.77.939z" fill="#ebc3b8"/>
 <path d="m13.8 199c0-2.67 2.75-12.1 4.64-15.8 2.95-5.86 7.64-8.9 16.4-10.6 10.3-2.03 36.9-11.1 37.9-13 1.57-2.78 2.99-.111 3.96 7.4.490 3.82 2.51 12.5 4.5 19.3 1.98 6.79 3.61 12.5 3.61 12.8 0 .225-16 .409-35.5.409s-35.5-.203-35.5-.451zm79.5-1.3c.193-.962.872-4.12 1.51-7.01 1.09-4.95 1.02-5.36-1.08-7.07-1.86-1.5-2.05-2.16-1.12-3.88 1.24-2.32 6.83-7.29 8.19-7.29.485 0 2.78 1.81 5.1 4.01l4.22 4.01-2.82 2.95c-2.77 2.89-2.8 3.06-1.68 8.65.631 3.14 1.15 6.08 1.15 6.54 0 .458-3.11.833-6.91.833-6.04 0-6.86-.218-6.55-1.75zm23.5 1.34c0-.225 1.57-5.82 3.49-12.4 1.92-6.61 3.96-15.3 4.53-19.3 1.11-7.86 2.48-10.4 4.04-7.68 1.05 1.86 27.6 11 37.9 13 3.58.703 8.18 2.31 10.2 3.57 4.14 2.55 8.19 9.47 9.27 15.8.368 2.17.885 4.73 1.15 5.69.451 1.64-1.7 1.75-35.1 1.75-19.6 0-35.6-.184-35.6-.409zm-25.2-37c-8.2-2.49-13-6.87-13-11.9-.000495-3.3-.713-4.35-6.51-9.53-7.2-6.43-8.64-8.7-10.5-16.4-.913-3.88-1.69-5.25-3-5.25-3.38 0-6.79-3.81-8.03-8.96-.656-2.74-2.48-6.91-4.05-9.28-5.48-8.27-5.73-17-.525-18.3 2.4-.603 2.48-.869 1.92-6.28-1.15-11 2.68-27 8.54-35.5 3.04-4.42 5.51-6.48 17.5-14.6 17.8-12.1 42-10.2 60.1 4.75 1.84 1.52 4.64 3.74 6.21 4.94 3.7 2.82 8.74 12.3 10.8 20.4.952 3.68 1.68 10.5 1.71 16.1.0406 6.64.426 9.75 1.21 9.75 2.19 0 4.46 3.68 4.46 7.25 0 2.2-1.4 6.23-3.63 10.4-1.99 3.76-4.26 8.95-5.03 11.5-1.41 4.73-4.34 7.79-7.47 7.79-1.2 0-2.03 1.49-2.91 5.25-1.82 7.73-3.26 9.99-10.5 16.4-6.46 5.78-6.51 5.86-6.51 11.1-.00039 3.71-.375 5.22-1.25 5.03-.688-.145-2.49.565-4.01 1.58-1.52 1.01-4.44 2.44-6.5 3.18-4.04 1.44-15.2 1.72-19.2.489zm20.6-11.3c5.51-2.86 20.9-16.3 22.7-19.8 2.17-4.27 9.01-31.8 8.34-33.6-.273-.710.477-5.57 1.66-10.8l2.16-9.52-2.32-13.8c-4-23.4-7-29-18-36.5-14-9.5-36.7-9.9-50.8-1-12.3 7.8-15.1 12.9-19.1 34.9l-2.69 15.1 1.86 8.6c1.02 4.73 1.83 9.72 1.8 11.1-.108 4.29 6.9 32.3 8.92 35.7 1.53 2.56 10.4 10.6 19.6 17.6 5.03 3.87 19.6 4.69 25.8 1.45zm-13.7-15c-.361-.583.656-1 2.44-1 1.68 0 3.06.45 3.06 1s-1.1 1-2.44 1-2.72-.45-3.06-1zm12-2.92c-3.93-1.56-16.6-2.28-18.1-1.02-.970.805-1.43.838-1.43.102 0-3.52 13.3-3.56 20-.0618 3.53 1.83 3.21 2.46-.5.981zm-12.4-17c-1.51-1.33-2.75-2.67-2.75-2.98 0-.872 4.43-7.51 5.03-7.52.290-.007.355 1.79.145 3.99-.375 3.93-.325 4 2.9 4h3.28l-2.35 2.5c-2.85 3.03-2.83 3.03-6.25.0164zm-26.2-22.7c-5.38-2.94-6.07-7.98-1.42-10.4 4.43-2.29 19-1.63 21.9.988 2.49 2.25 2.64 4.83.411 7.06-1.53 1.53-1.83 1.46-4.19-1.09-1.87-2.02-2.66-2.37-2.99-1.33-.242.779-.810 2.14-1.26 3.02-.670 1.31-.323 1.54 1.89 1.27l2.71-.334-2.5.882c-3.57 1.26-12.1 1.22-14.5-.0736zm3.5-1.34c-.682-.822-1.02-2.62-.761-4 .515-2.7-1.35-3.36-4.24-1.52-1.89 1.2-.414 3.94 3.1 5.75 3.12 1.61 3.4 1.57 1.91-.230zm40 1.42c-2.32-.815-2.28-.856.642-.589 3.02.275 3.1.186 2.05-2.27-1.62-3.79-1.68-3.8-4.13-.733-2.1 2.63-2.38 2.71-3.91 1.18-.907-.907-1.65-2.49-1.65-3.51 0-2.07 2.5-4.98 4.32-5.03.648-.0167.391-.489-.571-1.05-2.48-1.44-2.19-4.56.5-5.33 1.24-.355 8.1-.888 15.2-1.18 11.6-.477 12.8-.373 11.2.938-1.85 1.51-16.8 4.66-22.1 4.66-1.6-.0011-2.62.299-2.25.668.368.368 3.93.642 7.92.608 12.1-.103 15.9 3.69 9.82 9.8-2.6 2.6-3.58 2.91-8.75 2.82-3.2-.0548-6.95-.494-8.33-.976zm17.4-4.56c.702-1.83-.873-3.33-3.52-3.35-1.18-.0112-1.48.651-1.13 2.49.263 1.38-.136 3.25-.889 4.15-1.27 1.53-1.14 1.53 1.76.0312 1.72-.890 3.42-2.39 3.78-3.32zm-46.2-7.8c-13.1-2-21.1-3.7-22.6-4.9-1.64-1.33-.454-1.43 11.2-.953 14.9.617 17.5 1.14 17.5 3.61 0 1.39-2.5 3.53-3.33 2.85-.0925-.0749-1.29-.307-2.67-.515zm-26.6 32.9c-.343-1.51-1.81-3.81-3.27-5.11-1.45-1.3-2.13-2.09-1.5-1.76.630.332 1.39-.025 1.68-.794.721-1.88-.314-5.59-1.56-5.59-.55 0-.764-.901-.477-2 .309-1.18.117-1.75-.470-1.39-.547.338-.760 1.51-.475 2.6.683 2.61-.267 4.96-1.66 4.1-.608-.376-.110 1 1.11 3.07 1.22 2.06 1.76 3.47 1.21 3.13-1.54-.953-1.19 1.79.555 4.28.856 1.22 2.44 2.22 3.52 2.22 1.63 0 1.86-.472 1.34-2.75zm-5.71-9.92c.281-.733.640-1.33.798-1.33.157 0 .516.6.798 1.33.281.733-.0775 1.33-.798 1.33s-1.08-.6-.798-1.33zm91.9 11.9c1.73-1.16 3.56-5.17 2.86-6.3-.348-.563.0814-2.11.954-3.44.872-1.33 1.58-2.77 1.57-3.21-.008-.432-.452-.110-.985.715-.723 1.12-.973.560-.985-2.19-.008-2.03-.422-3.94-.920-4.25-.512-.317-.680 1.12-.386 3.31.286 2.13.0827 4.14-.451 4.47-.566.350-.813-.534-.593-2.12.367-2.65.350-2.66-.646-.377-1.09 2.5-.491 4.57 1.05 3.61 1.93-1.19.835 1.05-1.46 3.01-4.22 3.59-4.23 9.59-.005 6.77zm-95.5-18.5c-.319-.798-.556-.561-.604.604-.0434 1.05.193 1.64.525 1.31.332-.332.368-1.19.0790-1.92zm102-4.06-.603-3.25 1.51 2.5c1.45 2.41 1.5 2.32 1.23-2.75-.218-4.12.0451-5.25 1.22-5.27 1.31-.0129 1.32-.131.029-.945-1.75-1.1-1.97-.948-2.49 1.76-.219 1.14-.891 2.99-1.49 4.11-.602 1.12-.809 3.18-.462 4.56.921 3.67 1.77 3.09 1.06-.729zm-102-5c-.234-.410-.610-1.71-.837-2.89-.536-2.78-.750-2.94-2.5-1.83-1.29.814-1.28.932.0290.944 1.18.0110 1.45 1.22 1.27 5.77l-.230 5.75 1.35-3.5c.742-1.92 1.16-3.84.923-4.25zm1.66 3.25c0-1.33-.108-1.33-.969 0-.533.825-.969 2.18-.969 3 0 1.33.108 1.33.969 0 .533-.825.969-2.18.969-3z" fill="#dcaa9c"/>
 <path d="m14.2 198c.264-.962.781-3.53 1.15-5.69 1.03-6.09 5.04-13.1 8.83-15.4 1.87-1.15 8.89-3.48 15.6-5.17 15-3.77 31.2-9.49 32.8-11.6 1.9-2.5 3.01-.817 3.75 5.72.381 3.37 1.85 10 3.26 14.8 1.41 4.76 3.14 11 3.85 13.9l1.28 5.25h-35.7c-33.3 0-35.4-.107-35-1.75zm80.3-4.37c.786-3.37 1.65-6.48 1.92-6.91.268-.434-.699-1.65-2.15-2.71-2.53-1.84-2.57-2.02-1.02-4.39.889-1.36 2.91-3.43 4.5-4.6l2.88-2.13 3.56 2.42c4.72 3.2 5.67 6.24 2.72 8.63-1.97 1.59-2.16 2.39-1.56 6.56.377 2.61.926 5.76 1.22 7 .518 2.17.289 2.25-6.48 2.25h-7.02zm23.9.873c.704-2.89 2.41-9.08 3.79-13.8 1.38-4.68 2.83-11.3 3.23-14.8.760-6.65 1.91-8.42 3.83-5.9 1.59 2.09 17.8 7.82 32.8 11.6 6.71 1.69 13.7 4.02 15.6 5.17 3.79 2.34 7.8 9.36 8.83 15.4.368 2.17.885 4.73 1.15 5.69.451 1.64-1.69 1.75-35 1.75h-35.5zm3.54-38.8c0-.712-3.64-1.02-10.8-.914-25.7.388-31.5.0963-30.9-1.56.341-.890.174-1.29-.393-.941-.572.354-.989-.730-.989-2.58 0-2.65-1.24-4.39-7.36-10.3-6.96-6.74-7.45-7.51-9.08-14.2-1.54-6.4-1.97-7.12-4.14-7.12-3.5 0-5.23-1.85-6.86-7.35-.794-2.67-3.05-7.73-5-11.2-4.62-8.27-4.91-14-.810-16.3 2.71-1.55 2.75-1.74 2.83-11.7.0858-11.4 1.87-18.9 6.71-28 2.58-4.87 4.76-7.1 12.9-13.2 12.6-9.41 19.5-11.9 32.9-11.9 13.3 0 20.3 2.53 32.9 11.9 8.09 6.05 10.3 8.29 12.9 13.2 4.47 8.41 6.48 17.2 6.45 28.4-.0196 9.49-.008 9.53 2.9 11.2 2.38 1.37 2.92 2.35 2.92 5.28 0 1.98-.408 3.35-.907 3.05-.499-.308-.683.294-.410 1.34.575 2.2-1.38 6.41-2.62 5.64-.460-.284-.788.0404-.729.722.0594.682-.627 2.81-1.53 4.74-.898 1.92-2.38 5.62-3.29 8.2-1.57 4.47-4.07 6.56-7.16 5.97-.644-.121-1.9 2.94-2.89 7.05-1.67 6.91-2.12 7.62-9.09 14.4-7.13 6.9-7.34 7.24-7.51 12.2-0.1 2.83-.336 5.15-.524 5.15s-.341-.484-.341-1.08zm-9.47-4.37c4.11-1.72 16.7-11.8 21.3-17 1.73-1.97 3.42-4.82 3.75-6.32.328-1.5 2.28-9.03 4.33-16.7 2.85-10.7 3.42-14.1 2.42-14.3-1.4-.343-1.23-1.7 1.29-10.6 1.89-6.67 1.76-11.6-.654-25.4-3.21-18.3-5.1-23.1-11.5-29.2-6.61-6.25-15.5-10.6-25.2-12.2-13.9-2.37-29.3 2.37-39.7 12.2-6.39 6.05-8.28 10.8-11.5 29.2-2.42 13.8-2.54 18.7-.654 25.4 2.53 8.93 2.69 10.3 1.28 10.6-1.02.249-.473 3.53 2.41 14.3 2.06 7.7 4.01 15.2 4.34 16.7.333 1.5 2.02 4.35 3.76 6.32 3.47 3.96 16.1 14.5 19.5 16.3 6.24 3.3 17.8 3.63 24.8.706zm-20.2-22c.446-.444 3.24-.663 6.2-.486l5.39.321-6.2.486c-3.41.267-5.84.123-5.39-.321zm12.7 0.4c-.308-.499.340-.671 1.44-.383 2.33.611 2.63 1.29.560 1.29-.793 0-1.69-.408-2-.907zm-8.33-15.4-2.13-2.26 2.05-3.24c1.13-1.78 2.22-3.24 2.43-3.24.208 0 .303 1.69.211 3.75-.0924 2.06.191 4.54.630 5.5 1.13 2.47-.660 2.18-3.19-.513zm-24.9-21c-2.94-1.12-6-4.7-6-7.02 0-5.82 14.6-5.86 20.8-0.06 1.24 1.16 2.25 2.75 2.25 3.54 0 .927-.679.599-1.91-.924-2.2-2.71-3.07-2.27-3.5 1.78-.282 2.69-0.6 2.87-5.19 3.05-2.69.107-5.57-.0631-6.39-.377zm2-1.81c-.682-.822-1.02-2.62-.761-4 .403-2.11.101-2.51-1.91-2.51-3.65 0-4.14 2.91-.942 5.66 3.07 2.64 5.59 3.23 3.62.848zm43.2 1.74c.316-1.44-1.39-6.25-2.22-6.25-.459 0-1.46.897-2.23 1.99-1.73 2.46-3.04 1.47-1.6-1.21 2.66-4.98 16.4-7.59 20.9-3.97 4.81 3.89-1.53 10.2-10.3 10.2-2.61.0021-4.68-.334-4.59-.746zm13.5-3.84c.837-1.28 1.23-2.79.877-3.37-.870-1.41-5.23-1.33-6.12.111-.442.715-.274.883.441.441 1.54-.950 1.55 3.61.0105 5.15-.859.859-.593 1 1.06.567 1.21-.318 2.89-1.62 3.73-2.9zm-57.2-10.9c-13.6-2.5-13.7-3.4-.3-3.4 12.4-.0644 17.8.950 17.1 3.19-.579 1.76-7.92 1.86-16.8.220zm35.5.437c-1.6-2.58 1.92-3.42 15.4-3.64 15.1-.255 15.3.663.433 3.25-10.1 1.76-14.9 1.88-15.8.394zm-52.5 27.4c-1.38-5.06-2.77-9.46-3.09-9.78-1-1-1.86.611-1.97 3.73-.128 3.58-.212 3.64-1.63.978-0.8-1.49-.788-2.98.0438-5.5.924-2.8.825-4.4-.519-8.45-1.81-5.45-2.17-5.7-5.06-3.55-1.91 1.42-1.91 1.44.0871.941 1.81-.453 2.03-.0356 2 3.8-.0155 2.37.338 5.62.785 7.23.741 2.67.664 2.8-.871 1.53-.926-.769-.511.331.923 2.44 2.4 3.53 4.62 9.42 4.63 12.3.0086 1.83 5.2 5.52 6.27 4.46.558-.558-.0692-4.53-1.6-10.1zm91.6 2.88c.954-2.97 2.26-6.52 2.9-7.89 1.43-3.05 1.75-4.99 1.96-11.8.127-4.1.519-5.25 1.78-5.27 1.41-.0133 1.43-.140.118-.985-2.38-1.54-2.72-1.26-4.34 3.47-1 2.95-1.33 6.31-.968 9.86.359 3.48.158 5.64-.570 6.09-.754.466-1.13-.480-1.13-2.86 0-1.96-.418-3.56-.929-3.56-1.45 0-6.53 18.5-5.52 20.1 1.3 2.1 4.96-1.84 6.68-7.19z" fill="#c28875"/>
 <path d="m14.5 196c2.77-15.9 7.45-20.8 23.4-24.3 11.6-2.59 32.2-9.6 34.2-11.7 1.02-1.02 2.23-1.61 2.7-1.33.465.287 1.17 3.57 1.56 7.29.395 3.72 1.77 10.1 3.05 14.3 1.28 4.12 2.99 10.1 3.8 13.2l1.47 5.75h-70.9zm79.4.909c0-1.29.630-4.43 1.4-6.99 1.38-4.58 1.36-4.68-1.25-6.59l-2.65-1.94 3.95-4.07c2.17-2.24 4.67-4.07 5.55-4.07 1.81 0 7.99 5.99 7.99 7.74 0 .630-.956 1.82-2.12 2.63-1.86 1.3-2.04 2.09-1.43 6.31.383 2.65.937 5.83 1.23 7.07.515 2.16.274 2.25-6.07 2.25-6.26 0-6.61-.122-6.61-2.34zm24.7-3.41c.809-3.16 2.52-9.12 3.8-13.2 1.28-4.12 2.66-10.5 3.05-14.3.760-7.15 1.85-8.97 3.8-6.33 1.48 2.02 20.1 8.58 32.7 11.5 11.7 2.72 17.7 5.58 20.1 9.55 2 3.28 4.33 10.1 5.24 15.3l.567 3.25h-72zm-20.4-40c1.24-.238 3.26-.238 4.5 0s.225.433-2.25.433-3.49-.195-2.25-.433zm-11.2-2.28c-.350-.567.0511-.734.941-.393 1.73.665 2.05 1.38.611 1.38-.518 0-1.22-.445-1.55-.989zm24.5.596c0-.216.698-.661 1.55-.989.890-.341 1.29-.174.941.393-.587.950-2.49 1.41-2.49.596zm10.1-2.43-.079-3.32-3 2.14c-4.23 3.01-3.73 1.92.784-1.71l3.78-3.04-.357 3.62c-.504 5.12-1.04 6.21-1.13 2.31zm-43.2-2.31-.491-3.62 3.78 3.04c4.48 3.6 5.03 4.73.856 1.76l-2.93-2.09-.365 2.27c-.266 1.65-.499 1.28-.856-1.36zm-4.05-5.63c-1.24-1.59-1.21-1.62.378-.378 1.67 1.31 2.2 2.13 1.37 2.13-.208 0-.995-.788-1.75-1.75zm50.1 1.37c0-.208.788-.995 1.75-1.75 1.59-1.24 1.62-1.21.378.378-1.31 1.67-2.13 2.2-2.13 1.37zm-56.1-6.37-2.42-2.75 2.75 2.42c2.57 2.27 3.21 3.08 2.42 3.08-.179 0-1.42-1.24-2.75-2.75zm63.1.25c1.29-1.38 2.57-2.5 2.85-2.5.275 0-.557 1.12-1.85 2.5s-2.57 2.5-2.85 2.5c-.275 0 .557-1.12 1.85-2.5zm-69.1-11c.0480-1.16.285-1.4.604-.604.289.722.253 1.58-.0790 1.92-.332.332-.569-.258-.525-1.31zm75 0c.048-1.16.285-1.4.604-.604.289.722.253 1.58-.0789 1.92-.332.332-.569-.258-.525-1.31zm-77.5-9.12c-.543-1.43-.428-1.54.560-.560.683.678.991 1.49.683 1.79-.308.308-.867-.247-1.24-1.23zm79.4.766c0-.518.445-1.22.989-1.55.567-.350.734.0511.393.941-.665 1.73-1.38 2.05-1.38.611zm-42.2-3.31-2.69-2.25 2.41-3.42 2.41-3.42-.573 3.53c-.315 1.94-.0587 4.49.570 5.67 1.43 2.67 1.22 2.66-2.12-.118zm-38.7-4.33c.0480-1.16.285-1.4.604-.604.289.722.253 1.58-.0790 1.92-.332.332-.569-.258-.525-1.31zm83 0c.048-1.16.285-1.4.604-.604.289.722.253 1.58-.0789 1.92-.332.332-.569-.258-.525-1.31zm8.92-6.36c0-.518.445-1.22.989-1.55.567-.350.734.0511.393.941-.665 1.73-1.38 2.05-1.38.611zm-99.6-9.3c.534-5.59-1.39-12.6-3.92-14.2-.719-.464-.750-.740-.0833-.75.663-.0096 1.07-3.64 1.1-9.77.0958-18.7 5.67-31.8 16.8-39.7l4-2.84-2.7 2.92c-4.25 4.6-6.64 11.2-9.41 26.1-2.71 14.6-2.77 20.8-.289 31.6 1.14 4.97 1.12 5.93-.105 6.69-.866.535-1.92.481-2.67-.137-.917-.761-1.5-.169-2.27 2.31-.908 2.93-.969 2.66-.506-2.19zm93.5 3.44c.048-1.16.285-1.4.604-.604.289.722.253 1.58-.0789 1.92-.332.332-.569-.258-.525-1.31zm4.62-.758c-.476-1.73-1.29-2.65-2.08-2.34-.714.274-1.92.115-2.68-.353-1.16-.718-1.17-1.76-.0481-6.66 2.48-10.8 2.42-17-.289-31.6-2.77-14.9-5.16-21.5-9.41-26.1-2.46-2.62-2.25-2.56 2.3.701 10 7.18 14.6 18 15.3 36.4.314 8.13.853 12.3 1.6 12.3.621.0167.342.489-.621 1.05-.962.561-1.75 1.69-1.75 2.52 0 .825-.689 2.83-1.53 4.46-1.17 2.26-1.27 3.44-.438 5 .601 1.12.946 3.26.768 4.74l-.324 2.7zm3.91-.492c-.283-.458.120-.833.897-.833s1.18.375.897.833-.687.833-.897.833-.614-.375-.897-.833zm-108-4.4c-.565-1.49-1.07-3.46-1.13-4.39-.0616-1.04-.406-.729-0.9.815-.640 2-.764 1.65-.618-1.73.101-2.33.618-4.58 1.15-5 .539-.427.635-.346.217.183-1.2 1.52-.867 2.53.649 1.95 1.06-.408 1.5.741 1.81 4.78.486 6.28.214 7.06-1.18 3.39zm108 .4c.273-1.38.503-3.96.511-5.75s.464-3.25 1.01-3.25c1.47 0 1.14 5.04-.556 8.5-1.29 2.65-1.41 2.71-.969.5zm-82.9-2c-3.16-1.92-5.08-5.91-3.84-7.93.966-1.56 7.07-2.4 12.1-1.65 4.38.657 10.5 4.62 10.5 6.8 0 .588-.784.393-1.75-.437-2.65-2.28-4.69-3.32-3.86-1.98.385.624.134 2.16-.558 3.4-.692 1.25-1.16 2.61-1.05 3.02.455 1.61-8.42.665-11.5-1.22zm6.08-.251c-.275-.445-.886-.570-1.36-.278-1.18.728-2.27-3.07-1.55-5.36.497-1.57.175-1.79-2.01-1.37-3.78.723-4.25 3.14-1.13 5.83 2.45 2.1 7.19 3.03 6.04 1.18zm43.1 1.21c1.96-.853 1.95-.885-.181-1.53-2.3-.692-3.71-3.02-2.76-4.55 1.04-1.69-.910-.926-3.24 1.26-1.27 1.2-2.31 1.66-2.31 1.04 0-3.8 8.87-7.71 15.7-6.94 5.99.675 7.8 2.49 6.14 6.14-1.63 3.57-5.71 5.6-11.1 5.52-3.34-.0546-3.85-.264-2.3-.942zm10.1-2.52c3-3 2.73-4.6-.932-5.58-2.44-.651-2.63-.504-2.1 1.6.320 1.28.0781 3.26-.538 4.41-1.59 2.97.407 2.73 3.57-.435zm-3.62-3.41c0-.518-.45-1.22-1-1.56s-1 .0835-1 .941c0 .857.45 1.56 1 1.56s1-.423 1-.941zm31.2.941c0-1.92.206-2.71.457-1.75.252.962.252 2.54 0 3.5-.252.962-.457.175-.457-1.75zm-82.3-9.7c-5.33-.940-10-2.04-10.4-2.44-.919-.919 21.2-.768 24.6.168 1.38.382 2.5 1.35 2.5 2.15 0 2.09-5.27 2.13-16.7.118zm35.6.75c-1.57-2.55 1.93-3.42 14.9-3.69 15.3-.324 15.3.771.0815 3.18-12 1.89-14 1.96-14.9.514zm-40.2-50.3c0-.208.788-.995 1.75-1.75 1.59-1.24 1.62-1.21.378.378-1.31 1.67-2.13 2.2-2.13 1.37zm60.2-1.4c-1.24-1.59-1.21-1.62.378-.378 1.67 1.31 2.2 2.13 1.37 2.13-.208 0-.995-.788-1.75-1.75zm-39.3-8.9c.722-.289 1.58-.253 1.92.0790.332.332-.258.569-1.31.525-1.16-.0480-1.4-.285-.604-.604zm19 0c.722-.289 1.58-.253 1.92.0790.332.332-.258.569-1.31.525-1.16-.0480-1.4-.285-.604-.604zm-11.4-1c1.24-.238 3.26-.238 4.5 0s.225.433-2.25.433-3.49-.195-2.25-.433z" fill="#af725e"/>
 <path d="m14.5 196c1.73-9.93 5.38-17 10.3-19.9 1.96-1.16 6.64-2.76 10.4-3.55 10.6-2.21 34.1-10.1 37-12.3l2.61-2.06.523 2.3c.288 1.26.976 5.28 1.53 8.92s2.36 11 4.01 16.4c4.67 15.2 8.6 13.5-32 13.5h-35zm79.4.909c0-1.29.630-4.43 1.4-6.99 1.38-4.58 1.36-4.68-1.25-6.59l-2.65-1.94 3.95-4.07c2.17-2.24 4.67-4.07 5.55-4.07 1.78 0 7.99 5.97 7.99 7.68 0 .598-1.08 1.8-2.4 2.66-2.12 1.39-2.31 2.01-1.61 5.37.434 2.08 1.05 5.25 1.38 7.04l.588 3.25h-6.48c-6.12 0-6.48-.127-6.48-2.34zm24 .574c0-.972 1.51-6.93 3.37-13.2 1.85-6.32 3.69-14.1 4.09-17.4 1.06-8.59 1.29-8.94 4.29-6.58 2.86 2.25 26.5 10.1 36.9 12.3 3.76.786 8.44 2.38 10.4 3.55 4.94 2.94 8.59 9.97 10.3 19.9l.568 3.25h-35c-32.8 0-35-.111-35-1.77zm-63.5-102c-.393-.393-1.62-2.76-2.72-5.25-5.22-11.8-3.93-33.3 2.78-46.3 1.7-3.31 8.19-10.7 9.4-10.7.463 0-.305 2.28-1.71 5.07-1.67 3.33-3.52 10.5-5.36 20.8-2.89 16.1-2.9 19.7-.0943 29.8.590 2.12 1.07 4.65 1.08 5.61.0056 1.75-2.03 2.38-3.38 1.04zm89.4-1.72c0-1.34.447-3.61.994-5.05 2.73-7.19 2.84-13.8.430-27.3-2.86-16.1-3.79-19.6-6.41-24.5-2.65-4.91-1.17-4.77 3.44.330 7.29 8.07 10.9 20.8 10.4 36.9-.280 8.89-.745 11.4-3.03 16.2-2.83 6.05-5.81 7.74-5.81 3.32zm-72.8-1.5c-6.09-3.71-5.21-8.56 1.77-9.69 6.01-.975 16.9 3.39 16.9 6.77 0 .55-1.19.0673-2.63-1.07-2.81-2.21-5.37-2.72-5.37-1.07 0 .55.45 1 1 1 1.63 0 1.14 2.56-.829 4.35-2.5 2.1-7 2-10.9-.3zm6.67-.554c-.680-.819-1.64-1.24-2.13-.937-1.48.914-2.11-2.27-.904-4.53 1.05-1.96.936-2.06-1.67-1.44-1.54.369-3.14.860-3.55 1.09-2.8 1.57 2.7 7.3 7.01 7.3 2.09 0 2.29-.238 1.25-1.49zm43.4.739c.0872-1.1-.513-1.7-1.61-1.61-1.69.134-2.17-.753-1.82-3.39.239-1.84-1.25-1.52-3.74.789-1.2 1.12-2.19 1.65-2.19 1.17 0-3.69 10.9-8.01 17.3-6.82 5.31.995 6.41 3.64 3.13 7.54-1.42 1.69-3.02 3.07-3.55 3.07-.532 0 .259-1.05 1.76-2.34 1.79-1.54 2.51-2.91 2.09-4-.586-1.53-1.57-1.81-7.2-2.05-2.57-.110-2.38 1.58.329 2.97 1.91.977 1.97 1.27.639 3.17-1.13 1.62-1.18 2.21-.216 2.6.687.277-.164.539-1.89.583-2.4.0604-3.11-.332-3-1.67zm-43.6-13.8c-15.1-2.38-15.6-3.45-1.53-3.07 12.8.354 16.4 1.03 15.7 3.01-.538 1.64-4.07 1.65-14.2.0596zm32.9.501c-.363-.587-.425-1.3-.138-1.59 1.33-1.33 9.07-2.29 18.2-2.26 11.9.0472 10.4 1.1-4.84 3.37-12.4 1.84-12.4 1.84-13.2.480z" fill="#694a3a"/>
 <path d="m15.1 195c.330-2.79 1.93-7.7 3.55-10.9 3.5-6.93 5.41-8.04 20.3-11.8 14.5-3.66 31-9.45 33.6-11.7 2.07-1.87 2.18-1.87 2.67-.112.282 1.01.817 4.51 1.19 7.77.372 3.27 1.96 10.1 3.52 15.2 1.57 5.09 3.15 10.9 3.52 12.8l.668 3.56h-67.1l1.98-7.15c1.09-3.93 2.45-8.02 3.02-9.09.570-1.06.786-2.19.480-2.49-.910-.910-4.79 8.89-5.35 13.5-.285 2.35-.980 4.56-1.54 4.91-.677.419-.821-1.09-.425-4.44zm10.3-14.1c-.299-.484 1.59-1.82 4.19-2.97 3.25-1.43 4.04-2.1 2.52-2.12-1.22-.0179-3.8.721-5.73 1.64-2.73 1.3-3.27 1.97-2.41 3 1.23 1.48 2.27 1.81 1.43.446zm68.4 17c0-1.01.677-4.05 1.5-6.75 1.49-4.88 1.49-4.92-1.14-7.23l-2.64-2.32 3.84-3.93c2.11-2.16 4.56-3.93 5.44-3.93 1.68 0 7.99 5.93 7.99 7.51 0 .503-1.1 1.83-2.44 2.95-2.41 2.01-2.42 2.12-1.12 8.79l1.32 6.75h-6.38c-5.53 0-6.38-.245-6.38-1.84zm24.4-1.72c.368-1.96 1.95-7.73 3.52-12.8 1.57-5.09 3.15-11.9 3.52-15.2.372-3.27.908-6.76 1.19-7.77.492-1.76 0.6-1.76 2.67.112 2.55 2.3 19.1 8.08 33.6 11.7 14.8 3.75 16.8 4.87 20.3 11.8 2.96 5.87 5.15 16.6 3.13 15.4-.564-.348-1.26-2.56-1.54-4.91-.560-4.61-4.44-14.4-5.35-13.5-.306.306-.0897 1.43.480 2.49s1.93 5.15 3.02 9.09l1.98 7.15h-67zm57.4-18.6c-1.81-.967-4.42-1.76-5.8-1.77-1.94-.007-1.43.461 2.26 2.09 4.12 1.82 4.6 2.32 3.52 3.72-.761.988-.358.859 1.04-.332l2.28-1.95zm-44-85.9c.962-1.14 1.75-2.59 1.75-3.21 0-1.63-3.38-3.21-6.88-3.21-3.33 0-4.95 1.47-2.62 2.36 1.72.659 1.99 3.21.450 4.16-1.22.755-4.16-1.39-3.46-2.53 1.01-1.64-4.05-1.87-6.48-.292-2.38 1.55-2.44 1.54-1.1-0.1 2.55-3.1 7.41-4.93 13.1-4.94 3.07-.0028 6.1.321 6.75.721 1.93 1.19 1.33 5.16-1.08 7.2-2.25 1.9-2.25 1.9-.5-.174zm-53.9-.873c-.306-.799-.266-1.92.0904-2.5.359-.582-.157-1.05-1.16-1.06-1.53-.0130-1.58-.163-.309-.985 2.5-1.62-3.06-1.22-6.25.447-2.79 1.45-3.79.640-1.5-1.21 2.17-1.75 7.27-2.36 11.6-1.38 4.44.997 9.7 3.92 8.76 4.87-.309.309-1.2.0296-1.99-.622-1.96-1.63-7.62-3.17-7.62-2.08 0 .484.745 1.3 1.65 1.81.996.557 1.41 1.57 1.03 2.55-.774 2.02-3.56 2.13-4.31.172zm-27.6-6.6c-.4-1.7-.6-7.5-.5-12.8l.167-9.62.659 12.5c.362 6.88.572 12.6.465 12.8-.107.157-.478-1.14-.826-2.88zm102-7.4c.503-14.5 1.03-16.5 1.05-4 .009 5.5-.309 11.1-.706 12.5-.397 1.38-.550-2.45-.340-8.5zm-96.6-11.5c0-1.38.227-1.94.504-1.25.277.688.277 1.81 0 2.5-.277.688-.504.125-.504-1.25zm91 0c0-1.38.227-1.94.504-1.25.277.688.277 1.81 0 2.5-.277.688-.504.125-.504-1.25zm4.96-4.5c-.0824-1.1-.381-3.12-.664-4.5l-.515-2.5 1.07 2.45c.589 1.35.888 3.37.664 4.5-.396 1.99-.411 2-.557.0468zm-101-1.5c0-1.38.227-1.94.504-1.25.277.688.277 1.81 0 2.5-.277.688-.504.125-.504-1.25zm6 0c0-1.38.227-1.94.504-1.25.277.688.277 1.81 0 2.5-.277.688-.504.125-.504-1.25zm89 0c0-1.38.227-1.94.504-1.25.277.688.277 1.81 0 2.5-.277.688-.504.125-.504-1.25zm-93.7-5.2c.958-4.79 4.28-11.5 7.57-15.2 1.78-2.02 3.45-3.46 3.71-3.2.265.265-1.22 2.44-3.3 4.83s-4.85 7.03-6.15 10.3-2.13 4.76-1.84 3.3zm95.7-5.5c-1.06-2.57-3.42-6.33-5.25-8.35-3.94-4.36-4.43-6.32-.719-2.86 2.76 2.57 8.72 13.5 8.21 15-.168.495-1.17-1.21-2.24-3.78z" fill="#602f1e"/>
 <path d="m15.3 195c.552-5.35 5.01-16.2 6.95-17 .674-.259 1.23.142 1.23.890s-.358 1.14-.795.869c-1.23-.757-4.89 7.16-6.47 14-1.35 5.85-1.39 5.9-.912 1.24zm42.1-1.38c-.996-3.16-2.04-6.42-2.33-7.25-.350-1.01-.185-1.17.505-.5.880.859 5.27 11.7 5.27 13 0 .254-.368.462-.817.462-.450 0-1.63-2.59-2.63-5.75zm25.1 4.75c-3.24-8.99-7.02-24.8-7.27-30.5l-.317-7 .886 6.22c.487 3.42 2.53 11.6 4.54 18.2s3.44 12.6 3.18 13.3c-.350.939-.614.879-1.01-.230zm11.3-.818c0-1 .706-4.19 1.57-7.1.862-2.9 1.42-5.38 1.25-5.51-.175-.128-1.37-.940-2.65-1.8l-2.33-1.57 3.7-4.1c2.04-2.25 4.33-4.1 5.1-4.1.769 0 3.08 1.54 5.13 3.43l3.74 3.43-2.85 2.98c-1.87 1.96-2.65 3.61-2.26 4.82.321 1.01.981 3.98 1.47 6.59l.885 4.75h-6.37c-5.49 0-6.37-.251-6.37-1.82zm24 .612c0-.847 1.61-6.86 3.58-13.4 1.97-6.5 3.97-14.5 4.45-17.9l.874-6.06-.453 7.5c-.559 9.26-8.46 37.1-8.46 29.8zm23.5-1.04c1.14-3.75 4.7-11.8 5.06-11.5.636.636-4.02 13.7-4.88 13.7-.475 0-.557-1.01-.182-2.25zm44-2.5c-.802-5.55-5.11-15.6-6.35-14.9-.470.291-.855-.0836-.855-.832 0-2.88 2.56-.173 4.98 5.26 2.34 5.25 4.57 15.2 3.41 15.2-.275 0-.809-2.14-1.19-4.75zm-126-17c-3.73-3.39-3.93-4.21-1.5-6.11 1.59-1.25 1.63-1.21.344.419-1.25 1.6-1.04 2.16 1.95 5.25 4.09 4.22 3.64 4.48-.790.444zm80.7-.247c3.04-3.26 3.25-3.85 2-5.45-1.28-1.63-1.25-1.67.344-.419 2.5 1.96 2.1 3.23-2.07 6.57l-3.68 2.95zm-115-3c1.75-1.31 19.7-5.91 20.4-5.23.195.195-2.69 1.11-6.41 2.02-3.72.918-8.79 2.31-11.3 3.1-3.51 1.11-4.11 1.14-2.73.108zm146-.166c-2.2-.744-7.04-2.11-10.8-3.03-3.72-.923-6.61-1.84-6.41-2.03.693-.693 18.7 3.93 20.4 5.25 2.08 1.58 1.98 1.57-3.23-.188zm-119-7c2.98-1.06 5.59-1.75 5.8-1.54.466.466-8.64 3.64-10.2 3.54-.590-.0402 1.37-.939 4.35-2zm94.3.387c-2.37-.839-4.14-1.7-3.92-1.92.216-.216 2.83.473 5.81 1.53s4.74 1.92 3.92 1.92c-.825-.003-3.44-.692-5.81-1.53zm-78.2-4.82c1.29-1.38 2.57-2.5 2.85-2.5.275 0-.557 1.12-1.85 2.5s-2.57 2.5-2.85 2.5c-.275 0 .557-1.12 1.85-2.5zm62.9-.25-2.42-2.75 2.75 2.42c2.57 2.27 3.21 3.08 2.42 3.08-.179 0-1.42-1.24-2.75-2.75zm-.674-72.8c2.77-3.3 2.2-5.25-1.75-5.99-4.53-.850-10.1.201-14.4 2.71-2.67 1.55-3.13 1.63-2.07.361 2.42-2.92 6.79-4.51 12.4-4.51 3.01 0 6.18.273 7.05.607 2.31.885 1.93 4.79-.668 6.99-2.25 1.9-2.25 1.9-.5-.174zm-53.2-2c0-.825.675-1.5 1.5-1.5s1.5.675 1.5 1.5-.675 1.5-1.5 1.5-1.5-.675-1.5-1.5zm43-.0733c0-.931.680-1.44 1.67-1.25 2.51.487 2.85 2.82.416 2.82-1.23 0-2.08-.646-2.08-1.57zm-35.8-2c-3.48-2.43-12.8-2.99-15.9-.950-2.55 1.67-2.58 1.66-1.5-.363.934-1.75 2.06-2.07 7.17-2.07 5.66 0 12.1 1.98 13.4 4.12.822 1.33-.811.958-3.24-.737zm66.8-8.38c0-1.38.227-1.94.504-1.25.277.688.277 1.81 0 2.5-.277.688-.504.125-.504-1.25z" fill="#200f09"/>
</svg>
