<!DOCTYPE svg PUBLIC "-//W3C//DTD SVG 20010904//EN" "http://www.w3.org/TR/2001/REC-SVG-20010904/DTD/svg10.dtd">
<svg version="1.0" xmlns="http://www.w3.org/2000/svg" width="200px" height="200px" viewBox="0 0 2000 2000" preserveAspectRatio="xMidYMid meet">
<g id="layer101" fill="#0d0c0b" stroke="none">
 <path d="M130 1990 c0 -32 26 -122 47 -160 30 -56 76 -82 193 -109 135 -31 322 -98 346 -125 31 -32 62 -98 56 -116 -2 -8 -35 -44 -73 -80 -59 -57 -70 -73 -84 -125 -9 -33 -18 -66 -20 -72 -3 -7 -13 -13 -22 -13 -34 0 -60 -29 -72 -77 -7 -26 -27 -73 -46 -103 -56 -92 -59 -168 -8 -189 27 -11 28 -13 25 -82 -6 -125 40 -291 101 -359 42 -47 186 -148 244 -171 87 -33 239 -38 331 -10 129 39 281 161 326 261 34 75 58 202 55 289 -2 57 0 65 19 72 51 19 51 86 -1 178 -17 30 -40 82 -51 115 -18 53 -25 62 -55 72 -31 10 -36 17 -51 72 -21 76 -36 99 -101 154 -67 57 -76 79 -47 127 12 20 32 46 43 58 23 26 213 94 345 124 117 27 163 53 193 109 21 38 47 128 47 160 0 6 -327 10 -870 10 -543 0 -870 -4 -870 -10z"/>
 </g>
<g id="layer102" fill="#391103" stroke="none">
 <path d="M130 1990 c0 -32 26 -122 47 -160 30 -56 76 -82 193 -109 135 -31 322 -98 346 -125 31 -32 62 -98 56 -116 -2 -8 -35 -44 -73 -80 -59 -57 -70 -73 -84 -125 -9 -33 -18 -66 -20 -72 -3 -7 -13 -13 -22 -13 -34 0 -60 -29 -72 -77 -7 -26 -27 -73 -46 -103 -56 -92 -59 -168 -8 -189 27 -11 28 -13 25 -82 -5 -89 21 -215 58 -289 48 -94 199 -213 317 -250 88 -27 218 -27 306 0 125 39 277 162 321 260 34 75 58 202 55 289 -2 57 0 65 19 72 51 19 51 86 -1 178 -17 30 -40 82 -51 115 -18 53 -25 62 -55 72 -31 10 -36 17 -51 72 -21 76 -36 99 -101 154 -67 57 -76 79 -47 127 12 20 32 46 43 58 23 26 213 94 345 124 117 27 163 53 193 109 21 38 47 128 47 160 0 6 -157 10 -408 10 l-408 0 -11 -67 c-12 -66 -11 -69 13 -94 l25 -26 -22 -26 c-35 -45 -55 -51 -89 -27 -17 12 -35 31 -41 42 -10 18 -8 24 11 38 l22 17 -18 71 -18 72 -398 0 c-245 0 -398 -4 -398 -10z m668 -1091 c-2 -6 -8 -10 -13 -10 -5 0 -11 4 -13 10 -2 6 4 11 13 11 9 0 15 -5 13 -11z m432 -4 c0 -8 -4 -15 -10 -15 -5 0 -10 7 -10 15 0 8 5 15 10 15 6 0 10 -7 10 -15z m100 -20 c0 -31 -30 -40 -112 -32 -44 4 -67 11 -82 27 l-21 21 45 -20 c47 -21 125 -27 149 -12 8 5 12 18 8 30 -3 12 -1 19 4 15 5 -3 9 -16 9 -29z m-582 -25 c23 0 59 7 80 15 35 15 36 15 19 -2 -13 -13 -37 -19 -91 -21 -68 -4 -75 -2 -86 18 -12 22 -12 22 11 6 13 -9 43 -16 67 -16z"/>
 </g>
<g id="layer103" fill="#471b0b" stroke="none">
 <path d="M150 1976 c0 -13 -3 -33 -6 -43 -5 -15 -4 -16 6 -3 9 12 11 8 6 -20 -5 -27 -3 -31 5 -20 9 12 10 11 6 -8 -3 -14 -1 -20 6 -15 7 4 8 0 4 -11 -5 -11 -3 -15 5 -10 8 5 9 2 5 -10 -4 -9 -3 -15 2 -12 10 7 24 -22 16 -33 -2 -5 7 -13 21 -20 17 -8 23 -8 19 0 -4 6 7 4 23 -5 17 -9 43 -16 57 -16 14 0 24 -4 21 -9 -3 -4 7 -6 22 -4 22 4 24 2 12 -7 -12 -9 -9 -10 13 -5 19 4 26 2 22 -5 -4 -7 3 -9 22 -5 22 5 25 4 13 -5 -12 -9 -9 -10 13 -5 20 4 27 2 22 -6 -5 -8 -1 -9 14 -4 12 4 21 2 21 -4 0 -6 6 -8 14 -5 8 3 23 1 34 -5 10 -5 43 -20 72 -31 49 -19 52 -19 39 -3 -7 10 -1 7 13 -6 30 -26 82 -126 80 -155 0 -10 -32 -48 -71 -85 -61 -58 -72 -73 -86 -126 -9 -33 -18 -66 -20 -72 -3 -7 -13 -13 -22 -13 -34 0 -60 -29 -72 -77 -7 -26 -27 -73 -46 -103 -56 -92 -59 -168 -7 -189 27 -11 27 -13 24 -84 -8 -153 49 -311 141 -392 137 -121 240 -165 387 -165 145 0 231 35 367 148 107 89 152 198 158 382 3 93 6 105 24 112 50 18 49 86 -2 177 -17 30 -40 82 -51 115 -18 53 -25 62 -55 72 -31 10 -36 17 -51 72 -21 76 -36 99 -101 154 -71 60 -75 75 -38 146 17 31 42 68 57 82 14 14 20 17 13 8 -10 -14 0 -12 51 9 34 14 73 26 86 27 12 1 22 5 22 9 0 5 10 5 21 2 13 -5 19 -3 15 3 -8 13 37 24 60 15 12 -4 15 -3 10 6 -6 9 0 10 21 6 22 -5 25 -4 13 5 -12 9 -10 11 12 7 15 -2 25 -1 23 3 -3 4 12 11 33 14 70 12 113 26 107 36 -8 12 6 41 16 34 5 -3 6 3 2 12 -4 12 -3 15 5 10 8 -5 10 -1 5 10 -4 11 -3 15 4 11 7 -5 9 1 6 15 -4 19 -3 20 6 8 8 -11 10 -7 5 20 -5 28 -3 32 6 20 10 -12 11 -10 6 10 -3 14 -6 33 -6 43 0 16 -17 17 -219 17 l-220 0 11 -31 c6 -16 8 -32 5 -35 -3 -3 -10 11 -17 30 l-12 36 -109 0 c-60 0 -109 -2 -109 -4 0 -2 16 -60 36 -128 20 -67 38 -152 40 -188 l3 -65 -9 64 c-8 59 -58 244 -80 299 -8 19 -17 22 -63 22 l-53 0 -11 -67 c-12 -66 -11 -69 13 -94 l25 -26 -22 -26 c-35 -45 -55 -51 -89 -27 -17 12 -35 31 -41 42 -10 18 -8 24 11 38 l22 17 -18 71 -18 72 -43 0 c-36 0 -45 -4 -53 -22 -25 -62 -71 -241 -76 -293 -3 -33 -8 -62 -11 -65 -16 -15 9 141 41 248 20 68 36 126 36 128 0 2 -49 4 -109 4 l-109 0 -12 -36 c-7 -19 -14 -33 -17 -30 -3 3 -1 19 5 35 l11 31 -220 0 -219 0 0 -24z m650 -1081 c0 -8 -7 -15 -15 -15 -8 0 -15 7 -15 15 0 8 7 15 15 15 8 0 15 -7 15 -15z m431 0 c-1 -15 -24 -12 -29 3 -3 9 2 13 12 10 10 -1 17 -7 17 -13z m99 -20 c0 -31 -30 -40 -112 -32 -44 4 -67 11 -82 27 l-21 21 45 -20 c47 -21 125 -27 149 -12 8 5 12 18 8 30 -3 12 -1 19 4 15 5 -3 9 -16 9 -29z m-582 -25 c23 0 59 7 80 15 35 15 36 15 19 -2 -13 -13 -37 -19 -91 -21 -68 -4 -75 -2 -86 18 -12 22 -12 22 11 6 13 -9 43 -16 67 -16z"/>
 </g>
<g id="layer104" fill="#352b26" stroke="none">
 <path d="M150 1981 c0 -10 9 -49 21 -87 24 -78 58 -118 115 -132 167 -43 249 -67 312 -93 41 -16 76 -29 80 -29 3 0 -9 14 -28 31 -35 30 -34 30 10 -2 25 -19 49 -39 53 -46 16 -25 27 -1 27 56 0 37 13 101 35 177 19 65 35 124 35 131 0 10 -27 13 -104 13 l-104 0 -20 -57 c-11 -32 -23 -65 -26 -74 -5 -10 1 -19 16 -27 13 -6 18 -11 12 -11 -5 -1 -19 5 -29 13 -19 14 -19 15 -1 72 10 33 21 65 23 72 4 9 -25 12 -125 12 -95 0 -132 -3 -135 -12 -4 -10 -6 -10 -6 0 -1 8 -24 12 -81 12 -72 0 -80 -2 -80 -19z m474 -159 c3 -5 -8 -24 -24 -43 l-28 -34 21 -25 22 -25 -27 24 c-36 31 -35 45 3 72 23 16 28 24 17 30 -9 6 -9 9 -1 9 6 0 14 -4 17 -8z"/>
 <path d="M836 1992 c-3 -5 -9 -26 -15 -48 -5 -21 -17 -64 -26 -94 -22 -77 -36 -131 -40 -160 -1 -14 -6 -46 -10 -71 -5 -36 -2 -55 13 -85 10 -21 17 -46 14 -54 -2 -8 -35 -44 -73 -80 -59 -57 -70 -73 -84 -125 -9 -33 -18 -66 -20 -72 -3 -7 -13 -13 -22 -13 -34 0 -60 -29 -72 -77 -7 -26 -27 -73 -46 -103 -35 -59 -51 -115 -41 -153 6 -24 50 -52 67 -42 5 4 9 -6 9 -20 0 -15 -4 -24 -10 -20 -6 4 -10 -18 -10 -60 0 -45 3 -64 11 -59 7 4 10 -4 8 -22 -1 -16 1 -36 4 -44 3 -8 15 -44 26 -79 31 -96 73 -154 161 -220 107 -80 169 -103 297 -109 159 -7 248 26 388 145 47 40 66 65 87 115 42 95 51 122 49 132 -1 4 3 14 9 21 7 8 8 28 4 51 -5 26 -4 35 5 30 8 -5 11 8 11 44 0 32 -4 49 -10 45 -6 -4 -10 6 -10 22 0 23 5 29 23 30 63 5 70 84 14 182 -17 30 -40 82 -51 115 -18 53 -25 62 -55 72 -31 10 -36 17 -51 72 -21 76 -36 99 -101 154 -67 56 -76 80 -48 124 20 32 20 39 9 121 -6 47 -19 111 -29 142 -10 31 -24 76 -31 101 -7 25 -16 56 -20 70 -6 22 -13 25 -61 28 l-55 3 -11 -68 c-12 -66 -11 -69 13 -94 l25 -26 -22 -26 c-35 -45 -55 -51 -89 -27 -17 12 -35 31 -41 42 -10 18 -8 24 11 38 l22 17 -18 71 -18 72 -43 0 c-23 0 -44 -4 -47 -8z m-36 -1098 c0 -8 -7 -14 -15 -14 -15 0 -21 21 -9 33 10 9 24 -2 24 -19z m440 5 c0 -12 -29 -24 -37 -16 -3 4 -3 13 0 21 6 16 37 11 37 -5z m90 -24 c0 -31 -30 -40 -112 -32 -44 4 -67 11 -82 27 l-21 21 45 -20 c47 -21 125 -27 149 -12 8 5 12 18 8 30 -3 12 -1 19 4 15 5 -3 9 -16 9 -29z m-582 -25 c23 0 59 7 80 15 35 15 36 15 19 -2 -13 -13 -37 -19 -91 -21 -68 -4 -75 -2 -86 18 -12 22 -12 22 11 6 13 -9 43 -16 67 -16z"/>
 <path d="M1190 1987 c0 -7 16 -66 35 -131 22 -76 35 -140 35 -177 0 -57 11 -81 27 -56 4 7 28 27 53 46 44 32 45 32 10 2 -19 -17 -31 -31 -28 -31 4 0 39 13 80 29 63 26 145 50 312 93 57 14 91 54 115 132 33 108 34 106 -58 106 -54 0 -81 -4 -84 -12 -4 -10 -6 -10 -6 0 -1 9 -34 12 -132 12 -99 0 -130 -3 -127 -12 2 -7 12 -39 23 -72 19 -57 19 -58 0 -72 -10 -8 -24 -14 -29 -13 -6 0 -1 5 12 11 15 8 21 17 16 27 -3 9 -15 42 -26 74 l-20 57 -104 0 c-77 0 -104 -3 -104 -13z m531 -84 c10 -24 16 -43 13 -43 -8 0 -44 83 -43 100 1 13 1 13 6 0 3 -8 14 -34 24 -57z m-329 -82 c-11 -6 -6 -14 17 -30 38 -27 39 -41 4 -72 l-28 -24 22 25 21 25 -28 34 c-29 33 -31 51 -7 51 8 0 8 -3 -1 -9z"/>
 </g>
<g id="layer105" fill="#562917" stroke="none">
 <path d="M150 1981 c0 -10 9 -49 21 -87 24 -78 58 -118 115 -132 167 -43 249 -67 312 -93 41 -16 76 -29 80 -29 3 0 -9 14 -28 31 -35 30 -34 30 10 -2 25 -19 49 -39 53 -46 16 -25 27 -1 27 56 0 37 13 101 35 177 19 65 35 124 35 131 0 10 -27 13 -104 13 l-104 0 -20 -57 c-11 -32 -23 -65 -26 -74 -5 -10 1 -19 16 -27 13 -6 18 -11 12 -11 -5 -1 -19 5 -29 13 -19 14 -19 15 -1 72 10 33 21 65 23 72 4 9 -25 12 -125 12 -95 0 -132 -3 -135 -12 -4 -10 -6 -10 -6 0 -1 8 -24 12 -81 12 -72 0 -80 -2 -80 -19z m474 -159 c3 -5 -8 -24 -24 -43 l-28 -34 21 -25 22 -25 -27 24 c-36 31 -35 45 3 72 23 16 28 24 17 30 -9 6 -9 9 -1 9 6 0 14 -4 17 -8z"/>
 <path d="M836 1992 c-3 -5 -9 -26 -15 -48 -5 -21 -17 -64 -26 -94 -22 -77 -36 -131 -40 -160 -1 -14 -6 -46 -10 -71 -5 -36 -2 -55 13 -85 10 -21 17 -46 14 -54 -2 -8 -35 -44 -73 -80 -59 -57 -70 -73 -84 -125 -9 -33 -18 -66 -20 -72 -3 -7 -13 -13 -22 -13 -34 0 -60 -29 -72 -77 -7 -26 -27 -73 -46 -103 -35 -59 -51 -115 -41 -153 6 -24 50 -52 67 -42 5 4 9 -6 9 -20 0 -15 -4 -24 -10 -20 -6 4 -10 -18 -10 -60 0 -45 3 -64 11 -59 7 4 10 -4 8 -22 -1 -16 1 -36 4 -44 3 -8 15 -44 26 -79 31 -96 73 -154 161 -220 107 -80 169 -103 297 -109 159 -7 248 26 388 145 47 40 66 65 87 115 42 95 51 122 49 132 -1 4 3 14 9 21 7 8 8 28 4 51 -5 26 -4 35 5 30 8 -5 11 8 11 44 0 32 -4 49 -10 45 -6 -4 -10 6 -10 22 0 23 5 29 23 30 63 5 70 84 14 182 -17 30 -40 82 -51 115 -18 53 -25 62 -55 72 -31 10 -36 17 -51 72 -21 76 -36 99 -101 154 -67 56 -76 80 -48 124 20 32 20 39 9 121 -6 47 -19 111 -29 142 -10 31 -24 76 -31 101 -29 104 -21 95 -80 95 l-54 0 -12 -65 c-12 -64 -12 -65 12 -83 13 -10 24 -24 24 -31 0 -17 -63 -76 -81 -76 -8 0 -32 18 -53 39 l-39 40 26 23 25 23 -16 67 -17 68 -42 0 c-23 0 -44 -4 -47 -8z m492 -1121 c-2 -20 -10 -27 -38 -33 -58 -11 -120 2 -154 34 l-31 29 35 -20 c44 -25 100 -35 145 -27 40 8 45 27 18 60 l-18 21 23 -19 c15 -13 22 -29 20 -45z m-528 23 c0 -8 -7 -14 -15 -14 -15 0 -21 21 -9 33 10 9 24 -2 24 -19z m440 5 c0 -12 -29 -24 -37 -16 -3 4 -3 13 0 21 6 16 37 11 37 -5z m-378 -29 c-44 -36 -153 -46 -189 -17 -24 18 -13 25 17 10 36 -17 122 -11 155 12 30 21 44 17 17 -5z"/>
 <path d="M1190 1987 c0 -7 16 -66 35 -131 22 -76 35 -140 35 -177 0 -57 11 -81 27 -56 4 7 28 27 53 46 44 32 45 32 10 2 -19 -17 -31 -31 -28 -31 4 0 39 13 80 29 63 26 145 50 312 93 57 14 91 54 115 132 33 108 34 106 -58 106 -54 0 -81 -4 -84 -12 -4 -10 -6 -10 -6 0 -1 9 -34 12 -132 12 -99 0 -130 -3 -127 -12 2 -7 12 -39 23 -72 19 -57 19 -58 0 -72 -10 -8 -24 -14 -29 -13 -6 0 -1 5 12 11 15 8 21 17 16 27 -3 9 -15 42 -26 74 l-20 57 -104 0 c-77 0 -104 -3 -104 -13z m531 -84 c10 -24 16 -43 13 -43 -8 0 -44 83 -43 100 1 13 1 13 6 0 3 -8 14 -34 24 -57z m-329 -82 c-11 -6 -6 -14 17 -30 38 -27 39 -41 4 -72 l-28 -24 22 25 21 25 -28 34 c-29 33 -31 51 -7 51 8 0 8 -3 -1 -9z"/>
 </g>
<g id="layer106" fill="#653220" stroke="none">
 <path d="M155 1958 c4 -24 19 -71 35 -105 30 -66 54 -85 125 -97 56 -10 245 -65 275 -81 14 -7 36 -16 50 -19 l25 -7 -25 21 c-14 12 -40 35 -58 52 l-34 30 32 33 32 33 -23 7 c-13 4 -31 14 -41 22 -15 14 -15 19 7 84 l24 69 -128 0 -127 0 -17 -53 c-16 -50 -70 -147 -82 -147 -6 0 -5 3 30 60 17 28 55 122 55 137 0 2 -36 3 -81 3 l-81 0 7 -42z"/>
 <path d="M579 1925 l-27 -74 37 -12 c55 -18 55 -19 16 -59 l-37 -38 75 -56 c41 -30 77 -61 80 -68 6 -15 9 18 8 87 -1 32 11 91 34 164 19 62 35 117 35 122 0 5 -44 9 -97 9 l-98 0 -26 -75z"/>
 <path d="M836 1992 c-3 -5 -9 -26 -15 -48 -5 -21 -17 -64 -26 -94 -28 -97 -35 -124 -40 -170 -3 -25 -7 -59 -10 -77 -4 -21 1 -46 13 -70 11 -21 17 -45 14 -53 -2 -8 -35 -44 -73 -80 -59 -57 -70 -73 -84 -125 -9 -33 -18 -66 -20 -72 -3 -7 -13 -13 -22 -13 -34 0 -60 -29 -72 -77 -7 -26 -27 -73 -46 -103 -35 -59 -51 -115 -41 -153 6 -24 50 -52 67 -42 5 4 9 -36 9 -95 0 -215 68 -350 232 -460 163 -109 393 -109 556 0 88 59 139 114 176 194 43 90 56 153 56 269 0 89 1 93 23 94 63 5 70 84 14 182 -17 30 -40 82 -51 115 -18 53 -25 62 -55 72 -31 10 -36 17 -51 72 -21 76 -36 99 -101 154 -66 55 -76 80 -49 123 18 29 19 39 10 116 -6 46 -24 127 -39 179 -16 52 -33 111 -38 130 -9 35 -9 35 -63 35 l-54 0 -12 -65 c-12 -64 -12 -65 12 -83 13 -10 24 -24 24 -31 0 -17 -63 -76 -81 -76 -8 0 -32 18 -53 39 l-39 40 26 23 25 23 -16 67 -17 68 -42 0 c-23 0 -44 -4 -47 -8z m-20 -1073 c3 -6 -3 -21 -15 -33 -17 -17 -23 -18 -30 -7 -13 20 -1 51 20 51 10 0 21 -5 25 -11z m512 -48 c-2 -20 -10 -27 -38 -33 -58 -12 -120 2 -154 34 -28 26 -28 28 -5 13 15 -8 37 -18 50 -21 13 -3 34 -8 46 -11 13 -3 39 -2 58 1 40 8 45 27 18 60 l-18 21 23 -19 c15 -13 22 -29 20 -45z m-91 33 c7 -18 -17 -38 -31 -24 -11 11 -1 40 14 40 6 0 13 -7 17 -16z m-375 -34 c-44 -36 -153 -46 -189 -17 -24 18 -13 25 17 10 36 -17 122 -11 155 12 30 21 44 17 17 -5z"/>
 <path d="M1200 1991 c0 -5 14 -53 31 -107 19 -60 33 -127 35 -169 2 -38 4 -79 5 -90 0 -11 3 -14 6 -7 3 7 39 38 80 68 l75 56 -37 38 c-39 40 -39 41 16 59 l37 12 -27 74 -26 75 -97 0 c-54 0 -98 -4 -98 -9z"/>
 <path d="M1445 1931 c22 -65 22 -70 7 -84 -10 -8 -28 -18 -41 -22 l-23 -7 32 -33 32 -33 -34 -30 c-18 -17 -44 -40 -58 -52 l-25 -21 25 7 c14 3 36 12 50 19 30 16 219 71 275 81 71 12 95 31 125 97 16 34 31 81 35 105 l7 42 -81 0 c-45 0 -81 -1 -81 -3 0 -15 38 -109 55 -137 35 -57 36 -60 30 -60 -12 0 -66 97 -82 147 l-17 53 -127 0 -128 0 24 -69z"/>
 </g>
<g id="layer107" fill="#583b2e" stroke="none">
 <path d="M836 1992 c-3 -5 -9 -26 -15 -48 -5 -21 -17 -64 -26 -94 -28 -97 -35 -124 -40 -170 -3 -25 -7 -59 -10 -77 -4 -21 1 -46 13 -70 11 -21 17 -45 14 -53 -2 -8 -35 -44 -73 -80 -59 -57 -70 -73 -84 -125 -9 -33 -18 -66 -20 -72 -3 -7 -13 -13 -22 -13 -34 0 -60 -29 -72 -77 -7 -26 -27 -73 -46 -103 -35 -59 -51 -115 -41 -153 6 -24 50 -52 67 -42 5 4 9 -36 9 -95 0 -215 68 -350 232 -460 163 -109 393 -109 556 0 88 59 139 114 176 194 43 90 56 153 56 269 0 89 1 93 23 94 63 5 70 84 14 182 -17 30 -40 82 -51 115 -18 53 -25 62 -55 72 -31 10 -36 17 -51 72 -21 76 -36 99 -101 154 -66 55 -76 80 -49 123 18 29 19 39 10 116 -6 46 -24 127 -39 179 -16 52 -33 111 -38 130 -9 35 -9 35 -63 35 l-54 0 -12 -65 c-12 -64 -12 -65 12 -83 13 -10 24 -24 24 -31 0 -17 -63 -76 -81 -76 -8 0 -32 18 -53 39 l-39 40 26 23 25 23 -16 67 -17 68 -42 0 c-23 0 -44 -4 -47 -8z m-20 -1073 c3 -6 -3 -20 -14 -31 -11 -11 -25 -17 -31 -14 -12 8 -15 39 -4 49 10 11 41 8 49 -4z m512 -48 c-2 -20 -10 -27 -38 -33 -58 -11 -120 2 -154 34 l-31 29 38 -22 c23 -13 37 -17 37 -9 0 7 6 5 16 -4 26 -27 124 -17 124 12 0 8 -8 25 -17 36 l-18 21 23 -19 c15 -13 22 -29 20 -45z m-90 27 c4 -20 -29 -33 -39 -16 -9 15 9 40 25 35 6 -2 12 -11 14 -19z m-376 -28 c-44 -36 -153 -46 -189 -17 -24 18 -13 25 17 10 36 -17 122 -11 155 12 30 21 44 17 17 -5z"/>
 </g>
<g id="layer108" fill="#634831" stroke="none">
 <path d="M830 1974 c-6 -14 -10 -32 -10 -40 0 -9 -11 -49 -25 -90 -14 -41 -32 -120 -40 -175 -14 -94 -14 -102 4 -137 10 -20 16 -44 13 -52 -2 -8 -35 -44 -73 -80 -59 -57 -70 -73 -84 -125 -9 -33 -18 -66 -20 -72 -3 -7 -13 -13 -22 -13 -34 0 -60 -29 -72 -77 -7 -26 -27 -73 -46 -103 -55 -91 -59 -166 -10 -188 24 -11 27 -10 38 17 10 24 12 7 12 -108 0 -172 23 -254 92 -331 25 -27 42 -53 40 -57 -8 -13 119 -104 185 -132 57 -23 75 -26 188 -26 113 0 131 3 188 26 68 29 193 119 185 132 -3 5 10 25 30 45 77 81 112 200 104 362 -2 58 -6 112 -9 120 -2 8 2 0 10 -17 18 -40 45 -43 67 -9 21 32 12 85 -28 155 -17 30 -40 82 -51 115 -18 53 -25 62 -55 72 -31 10 -36 17 -51 72 -21 76 -36 99 -101 154 -66 55 -76 80 -49 123 18 29 19 39 10 116 -6 46 -24 127 -39 179 -16 52 -33 111 -38 130 -9 35 -9 35 -63 35 l-54 0 -12 -65 c-12 -64 -12 -65 12 -83 13 -10 24 -24 24 -31 0 -17 -63 -76 -81 -76 -8 0 -32 18 -53 39 l-39 40 26 23 25 23 -16 67 -17 68 -43 0 c-36 0 -44 -4 -52 -26z m-120 -1046 c-8 -7 -20 -20 -28 -28 -11 -13 -12 -12 -3 7 9 18 23 29 41 32 2 1 -2 -5 -10 -11z m105 -9 c4 -6 -4 -22 -16 -36 l-24 -25 35 7 c19 4 46 17 59 29 16 14 22 16 19 6 -17 -55 -164 -88 -215 -47 -24 18 -13 26 15 11 31 -16 76 -19 67 -4 -3 6 -2 10 4 10 6 0 8 7 5 15 -14 34 33 65 51 34z m513 -48 c-6 -52 -137 -51 -192 2 -17 16 -23 24 -13 17 25 -18 79 -21 73 -4 -6 16 19 38 34 29 15 -10 12 -33 -7 -43 -14 -9 -14 -10 6 -17 29 -9 81 3 88 21 3 8 -3 25 -13 37 l-19 22 23 -19 c15 -13 22 -29 20 -45z"/>
 </g>
<g id="layer109" fill="#6b4c3c" stroke="none">
 <path d="M830 1974 c-6 -14 -10 -32 -10 -40 0 -9 -11 -49 -25 -90 -14 -41 -32 -120 -40 -175 -14 -94 -14 -102 4 -137 10 -20 16 -44 13 -52 -2 -8 -35 -44 -73 -80 -59 -57 -70 -73 -84 -125 -9 -33 -18 -66 -20 -72 -3 -7 -13 -13 -22 -13 -34 0 -60 -29 -72 -77 -7 -26 -27 -73 -46 -103 -55 -91 -59 -166 -10 -188 24 -11 27 -10 41 23 7 19 14 39 14 44 0 5 4 12 10 16 5 3 4 -9 -2 -27 -17 -48 -17 -270 0 -291 8 -9 11 -20 8 -26 -11 -18 35 -121 72 -159 20 -20 43 -50 51 -67 22 -41 129 -110 207 -135 89 -27 219 -27 308 0 78 25 185 94 207 135 8 17 31 47 51 67 37 38 83 141 72 159 -3 6 0 17 8 26 14 17 18 219 6 278 -6 26 -5 24 9 -7 18 -45 45 -50 68 -14 21 32 12 85 -28 155 -17 30 -40 82 -51 115 -18 53 -25 62 -55 72 -31 10 -36 17 -51 72 -21 76 -36 99 -101 154 -66 55 -76 80 -49 123 18 29 19 39 9 116 -5 46 -25 134 -44 194 -19 61 -35 119 -37 130 -3 17 -11 20 -58 20 l-54 0 -12 -65 c-12 -64 -12 -65 12 -83 13 -10 24 -24 24 -31 0 -17 -63 -76 -81 -76 -8 0 -32 18 -53 39 l-39 40 26 23 25 23 -16 67 -17 68 -43 0 c-36 0 -44 -4 -52 -26z m619 -1074 c0 -9 -4 -8 -9 5 -5 11 -9 27 -9 35 0 9 4 8 9 -5 5 -11 9 -27 9 -35z m-739 28 c-8 -7 -20 -20 -28 -28 -11 -13 -12 -12 -3 7 9 18 23 29 41 32 2 1 -2 -5 -10 -11z m108 -30 c4 -34 18 -35 50 -5 16 14 23 17 20 7 -17 -55 -164 -88 -215 -47 -24 18 -13 26 15 11 40 -21 61 -18 55 6 -7 27 24 62 51 58 15 -2 22 -12 24 -30z m411 23 c9 -6 11 -18 6 -40 -6 -27 -4 -31 14 -31 30 0 71 18 71 31 0 7 -8 22 -17 33 l-18 21 23 -19 c33 -28 26 -67 -13 -78 -52 -14 -125 2 -159 34 -24 23 -25 26 -6 14 31 -20 40 -20 40 -1 0 8 7 15 15 15 8 0 15 7 15 15 0 17 9 19 29 6z m-693 -204 c1 -23 0 -33 -3 -22 -3 11 -8 24 -13 28 -9 10 -1 51 8 42 4 -3 7 -25 8 -48z m944 8 c-14 -19 -22 -88 -10 -80 8 5 9 2 1 -11 -6 -11 -16 -39 -22 -64 -21 -78 -21 -18 0 75 11 49 17 93 15 97 -3 4 -2 13 2 20 5 8 10 6 14 -8 4 -10 4 -23 0 -29z m-913 -180 c-2 -13 -8 -3 -15 25 -7 25 -17 53 -23 64 -7 13 -7 16 0 11 6 -3 11 2 12 12 1 10 7 -7 15 -37 8 -30 13 -64 11 -75z m-16 -17 c17 -24 18 -29 6 -19 -18 14 -42 51 -33 51 3 0 15 -15 27 -32z m920 14 c-5 -10 -18 -25 -28 -33 -12 -10 -11 -5 6 19 24 35 38 43 22 14z"/>
 </g>
<g id="layer110" fill="#685c56" stroke="none">
 <path d="M835 1988 c-2 -7 -11 -40 -19 -74 -9 -33 -23 -80 -31 -104 -9 -25 -22 -88 -30 -142 -14 -93 -14 -101 4 -136 10 -20 16 -44 13 -52 -2 -8 -35 -44 -73 -80 -59 -57 -70 -73 -84 -125 -9 -33 -18 -66 -20 -72 -3 -7 -13 -13 -22 -13 -34 0 -60 -29 -72 -77 -7 -26 -27 -73 -46 -103 -55 -90 -59 -166 -11 -188 29 -13 29 -12 51 54 21 62 41 94 60 94 19 0 19 -31 0 -94 -8 -27 -15 -75 -15 -106 0 -85 44 -307 77 -385 24 -57 37 -74 86 -111 97 -72 152 -89 297 -89 145 0 200 17 297 89 49 37 62 54 86 111 32 76 77 299 77 379 0 28 -7 76 -15 106 -20 75 -20 102 2 98 19 -4 46 -50 63 -110 13 -45 41 -51 65 -14 21 32 12 85 -28 155 -17 30 -40 82 -51 115 -18 53 -25 62 -55 72 -31 10 -36 17 -51 72 -21 76 -36 99 -101 154 -66 56 -76 80 -49 123 20 33 20 36 5 130 -8 54 -29 145 -47 204 -17 58 -32 112 -34 119 -3 9 -19 12 -56 10 l-52 -3 -12 -65 c-12 -64 -12 -65 12 -83 13 -10 24 -24 24 -31 0 -17 -63 -76 -81 -76 -8 0 -32 18 -53 39 l-39 40 26 23 25 23 -16 67 -17 68 -43 0 c-25 0 -44 -5 -47 -12z m-15 -1095 c0 -29 17 -29 48 0 15 13 23 16 20 8 -18 -58 -181 -91 -219 -45 -16 19 2 58 33 75 21 11 20 9 -4 -16 -35 -34 -35 -43 -2 -55 37 -14 61 -13 46 2 -17 17 -15 48 3 48 8 0 20 9 27 20 11 18 14 18 30 3 10 -9 18 -27 18 -40z m480 31 c41 -35 39 -74 -5 -86 -47 -12 -123 2 -156 29 -16 14 -29 29 -29 34 0 5 9 0 20 -11 23 -23 45 -27 37 -7 -7 19 2 29 43 49 47 23 54 22 90 -8z m-395 -134 c0 -21 -38 -28 -165 -28 -114 0 -114 0 -70 14 103 32 235 40 235 14z m400 -8 c86 -20 63 -25 -87 -20 -106 3 -138 13 -123 38 9 15 106 6 210 -18z"/>
 <path d="M1256 923 c16 -16 15 -18 -5 -31 -46 -31 -14 -54 43 -32 33 12 33 33 0 59 -34 27 -64 29 -38 4z"/>
 </g>
<g id="layer111" fill="#c37b66" stroke="none">
 <path d="M835 1988 c-2 -7 -11 -40 -19 -74 -9 -33 -23 -80 -31 -104 -9 -25 -22 -88 -30 -142 -14 -93 -14 -101 4 -136 10 -20 16 -44 13 -52 -2 -8 -35 -44 -73 -80 -59 -57 -70 -73 -84 -125 -9 -33 -18 -66 -20 -72 -3 -7 -13 -13 -22 -13 -34 0 -60 -29 -72 -77 -7 -26 -27 -73 -46 -103 -55 -90 -59 -166 -11 -188 29 -13 29 -12 51 54 21 62 41 94 60 94 19 0 19 -31 0 -94 -8 -27 -15 -75 -15 -106 0 -85 44 -307 77 -385 24 -57 37 -74 86 -111 97 -72 152 -89 297 -89 145 0 200 17 297 89 49 37 62 54 86 111 32 76 77 299 77 379 0 28 -7 76 -15 106 -20 75 -20 102 2 98 19 -4 46 -50 63 -110 13 -45 41 -51 65 -14 21 32 12 85 -28 155 -17 30 -40 82 -51 115 -18 53 -25 62 -55 72 -31 10 -36 17 -51 72 -21 76 -36 99 -101 154 -66 56 -76 80 -49 123 20 33 20 36 5 130 -8 54 -29 145 -47 204 -17 58 -32 112 -34 119 -2 7 -22 12 -53 12 -54 0 -53 2 -67 -93 -6 -42 -4 -50 15 -63 11 -8 21 -21 21 -28 0 -17 -63 -76 -81 -76 -8 0 -33 18 -54 41 l-40 40 26 20 c27 19 27 20 13 66 -8 25 -14 57 -14 70 0 21 -4 23 -45 23 -28 0 -47 -5 -50 -12z m-19 -1078 c4 -22 11 -40 16 -40 5 0 6 5 2 12 -5 7 -3 8 5 4 7 -5 21 0 32 10 10 9 19 12 19 6 0 -16 -46 -49 -87 -63 -42 -14 -110 -6 -130 14 -35 35 29 97 99 97 36 0 38 -2 44 -40z m491 5 c38 -38 39 -54 2 -72 -49 -26 -141 -10 -182 31 -26 26 -20 43 6 18 26 -25 39 -28 36 -9 -3 27 2 35 26 41 14 4 25 11 25 16 0 24 54 8 87 -25z m-402 -125 c0 -21 -38 -28 -165 -28 -114 0 -114 0 -70 14 103 32 235 40 235 14z m400 -8 c86 -20 63 -25 -87 -20 -106 3 -138 13 -123 38 9 15 106 6 210 -18z"/>
 <path d="M706 919 c-25 -20 -34 -44 -18 -52 4 -2 21 -7 37 -11 24 -6 28 -5 18 5 -19 19 -16 46 7 52 11 3 20 9 20 14 0 17 -39 12 -64 -8z"/>
 <path d="M1259 921 c8 -15 6 -22 -12 -34 -28 -20 -10 -35 34 -29 42 6 48 30 15 59 -33 28 -51 30 -37 4z"/>
 </g>
<g id="layer112" fill="#cc8a76" stroke="none">
 <path d="M835 1988 c-2 -7 -11 -40 -19 -74 -9 -33 -23 -80 -31 -104 -9 -25 -22 -88 -30 -142 -14 -94 -14 -100 5 -138 26 -51 35 -55 69 -30 33 23 105 50 130 49 9 0 -6 -7 -33 -16 -28 -8 -69 -28 -92 -44 -24 -16 -48 -29 -54 -29 -6 0 -9 -4 -6 -8 7 -11 -51 -55 -63 -48 -11 7 -44 -30 -47 -51 -2 -10 -13 -25 -25 -34 -15 -11 -20 -22 -16 -33 4 -10 2 -27 -5 -39 -7 -12 -11 -30 -9 -39 2 -13 -5 -18 -24 -18 -32 0 -68 -18 -60 -30 3 -4 0 -21 -6 -37 -7 -15 -13 -34 -13 -41 -1 -7 -6 -16 -13 -20 -6 -4 -11 -16 -10 -27 1 -11 -3 -19 -10 -18 -7 2 -17 -6 -23 -17 -6 -11 -8 -20 -5 -20 3 0 -2 -16 -10 -36 -15 -36 -12 -60 6 -49 5 4 9 -4 9 -16 0 -17 -3 -19 -14 -10 -21 17 -28 -2 -10 -27 27 -39 49 -28 72 38 11 33 16 62 11 66 -5 3 -9 17 -9 32 1 25 2 25 14 10 7 -10 23 -18 35 -18 26 0 27 -24 6 -94 -8 -27 -15 -75 -15 -106 0 -85 45 -311 76 -382 32 -74 39 -83 62 -83 9 0 16 -6 14 -13 -3 -18 88 -73 110 -66 11 3 20 -1 24 -11 4 -11 14 -15 27 -11 11 2 29 -1 41 -8 27 -17 198 -15 218 1 8 7 23 10 35 7 13 -4 22 0 27 11 3 10 13 14 23 11 20 -6 45 6 44 20 -1 5 8 10 20 10 23 1 44 19 44 37 0 7 8 12 17 12 23 0 30 9 62 83 30 69 76 296 76 376 0 28 -7 76 -15 106 -22 81 -20 100 9 100 16 0 26 7 29 22 4 12 9 19 13 16 3 -4 1 -22 -6 -42 -9 -28 -8 -40 3 -63 8 -15 17 -40 21 -55 7 -30 33 -37 54 -16 15 15 16 80 2 94 -6 6 -12 22 -14 35 -4 34 -17 60 -27 54 -11 -8 -30 30 -24 48 3 7 -1 20 -9 27 -11 8 -14 21 -9 38 4 16 2 23 -4 19 -12 -8 -46 27 -36 36 3 4 -6 7 -20 7 -19 0 -27 5 -27 18 0 10 -6 27 -14 38 -8 11 -16 31 -17 44 -2 14 -10 30 -17 35 -7 6 -14 18 -16 27 -3 25 -36 57 -52 51 -8 -3 -17 3 -21 13 -5 11 -15 19 -23 19 -8 0 -14 6 -12 13 1 6 -4 12 -11 12 -7 0 -31 13 -53 29 -21 16 -61 36 -89 44 -27 9 -43 16 -34 16 25 1 97 -26 129 -49 15 -11 30 -20 33 -20 3 0 17 20 31 45 l27 45 -16 96 c-8 53 -29 144 -47 203 -17 58 -32 112 -34 119 -2 7 -22 12 -53 12 -54 0 -53 2 -67 -93 -6 -42 -4 -50 15 -63 11 -8 21 -21 21 -28 0 -17 -63 -76 -81 -76 -8 0 -33 18 -54 41 l-40 40 26 20 c27 19 27 20 13 66 -8 25 -14 57 -14 70 0 21 -4 23 -45 23 -28 0 -47 -5 -50 -12z m146 -837 c-12 -16 -17 -31 -12 -33 4 -1 12 -14 16 -28 6 -21 3 -19 -19 10 l-25 35 27 22 c35 30 38 29 13 -6z m-514 -198 c-6 -18 -15 -33 -20 -33 -5 0 -6 8 -2 18 5 9 8 24 9 33 0 9 5 16 12 16 8 0 8 -9 1 -34z m1088 -20 c4 -14 2 -23 -4 -23 -6 0 -11 3 -11 8 0 4 -3 18 -6 32 -8 31 11 16 21 -17z m-739 -23 c4 -22 11 -40 16 -40 5 0 6 5 2 12 -5 7 -3 8 5 4 7 -5 21 0 32 10 10 9 19 12 19 6 0 -16 -46 -49 -87 -63 -42 -14 -110 -6 -130 14 -35 35 29 97 99 97 36 0 38 -2 44 -40z m491 5 c38 -38 39 -54 2 -72 -49 -26 -141 -10 -182 31 -26 26 -20 43 6 18 26 -25 39 -28 36 -9 -3 27 2 35 26 41 14 4 25 11 25 16 0 24 54 8 87 -25z m-402 -125 c0 -21 -38 -28 -165 -28 -114 0 -114 0 -70 14 103 32 235 40 235 14z m400 -8 c86 -20 63 -25 -87 -20 -106 3 -138 13 -123 38 9 15 106 6 210 -18z"/>
 <path d="M706 919 c-25 -20 -34 -44 -18 -52 4 -2 21 -7 37 -11 24 -6 28 -5 18 5 -19 19 -16 46 7 52 11 3 20 9 20 14 0 17 -39 12 -64 -8z"/>
 <path d="M1259 921 c8 -15 6 -22 -12 -34 -28 -20 -10 -35 34 -29 42 6 48 30 15 59 -33 28 -51 30 -37 4z"/>
 </g>
<g id="layer113" fill="#ac9c96" stroke="none">
 <path d="M835 1988 c-2 -7 -11 -40 -19 -74 -9 -33 -23 -80 -31 -104 -9 -25 -22 -88 -30 -142 -14 -94 -14 -100 4 -136 11 -20 21 -30 21 -22 1 10 4 9 10 -5 7 -17 9 -17 9 -2 1 11 9 17 24 17 12 0 40 7 62 15 22 8 51 14 65 14 17 -1 8 -6 -25 -16 -27 -8 -67 -28 -87 -44 -20 -16 -44 -29 -52 -29 -9 0 -15 -3 -14 -8 4 -12 -79 -83 -94 -80 -7 2 -12 -4 -10 -14 1 -9 -5 -22 -15 -30 -10 -7 -19 -26 -21 -43 -2 -16 -8 -35 -13 -41 -5 -6 -7 -13 -4 -16 2 -2 -11 -61 -29 -131 -19 -70 -30 -127 -25 -127 13 0 11 -38 -6 -94 -21 -69 -19 -143 9 -292 29 -156 44 -196 98 -250 22 -23 40 -46 39 -50 0 -5 7 -9 17 -9 9 0 16 -6 14 -13 -1 -8 2 -11 7 -8 5 3 33 -5 62 -18 95 -42 120 -48 199 -48 79 0 104 6 199 48 29 13 57 21 62 18 5 -3 8 0 7 8 -2 7 4 13 12 13 8 0 17 5 18 10 2 6 23 30 47 56 49 53 66 98 95 264 23 127 23 194 -1 299 -10 44 -11 60 -2 63 8 3 2 37 -18 110 -15 59 -26 109 -24 112 3 2 0 10 -7 18 -6 7 -8 16 -5 20 4 3 3 11 -2 17 -5 6 -11 25 -13 41 -2 17 -11 36 -21 44 -10 7 -16 20 -13 28 4 8 1 11 -5 7 -12 -7 -69 43 -69 62 0 6 -8 11 -17 10 -10 0 -17 5 -15 12 1 6 -5 12 -14 12 -8 0 -32 13 -52 29 -20 16 -59 36 -87 44 -33 10 -42 15 -25 16 14 0 43 -6 65 -14 22 -8 50 -15 62 -15 12 0 23 -7 25 -17 3 -14 11 -8 31 23 l28 41 -16 98 c-8 53 -29 145 -47 204 -17 58 -32 112 -34 119 -2 7 -22 12 -53 12 -54 0 -53 2 -67 -93 -6 -42 -4 -50 15 -63 11 -8 21 -21 21 -28 0 -17 -63 -76 -81 -76 -8 0 -33 18 -54 41 l-40 40 26 20 c27 19 27 20 13 66 -8 25 -14 57 -14 70 0 21 -4 23 -45 23 -28 0 -47 -5 -50 -12z m165 -816 c0 -5 -6 -17 -14 -28 -10 -13 -11 -23 -4 -31 5 -7 8 -20 6 -30 -2 -14 -8 -10 -25 17 l-22 35 21 22 c22 23 38 30 38 15z m-184 -262 c4 -22 11 -40 16 -40 5 0 6 5 2 12 -5 7 -3 8 5 4 7 -5 21 0 32 10 10 9 19 12 19 6 0 -16 -46 -49 -87 -63 -42 -14 -110 -6 -130 14 -35 35 29 97 99 97 36 0 38 -2 44 -40z m491 5 c38 -38 39 -54 2 -72 -55 -28 -167 -2 -197 47 -16 26 -1 26 23 0 20 -23 37 -26 34 -7 -3 27 2 35 26 41 14 4 25 11 25 16 0 24 54 8 87 -25z m-402 -125 c0 -21 -38 -28 -165 -28 -114 0 -114 0 -70 14 103 32 235 40 235 14z m400 -8 c86 -20 63 -25 -87 -20 -106 3 -138 13 -123 38 9 15 106 6 210 -18z"/>
 <path d="M706 919 c-25 -20 -34 -44 -18 -52 4 -2 21 -7 37 -11 24 -6 28 -5 18 5 -19 19 -16 46 7 52 11 3 20 9 20 14 0 17 -39 12 -64 -8z"/>
 <path d="M1259 921 c8 -15 6 -22 -12 -34 -28 -20 -10 -35 34 -29 42 6 48 30 15 59 -33 28 -51 30 -37 4z"/>
 <path d="M551 1164 c-23 -17 -46 -60 -42 -81 3 -18 -29 -74 -38 -68 -5 2 -8 -3 -7 -13 0 -9 -3 -16 -9 -15 -5 1 -11 -11 -12 -25 l-1 -27 15 28 c19 37 26 30 12 -12 -6 -17 -17 -30 -24 -29 -8 2 -13 -1 -12 -7 1 -5 5 -9 9 -8 5 2 8 -5 8 -15 0 -10 6 -24 13 -31 10 -10 8 -12 -10 -9 -12 1 -21 -1 -20 -7 1 -5 6 -9 11 -7 4 1 14 -2 21 -8 9 -8 17 4 31 47 17 50 18 62 7 84 -8 18 -10 35 -5 50 8 21 9 21 15 -9 13 -63 26 -40 67 117 13 51 3 67 -29 45z"/>
 <path d="M1415 1170 c-10 -16 42 -200 56 -200 5 0 9 16 9 36 0 22 4 33 11 29 6 -4 8 -27 5 -59 -7 -67 19 -162 39 -146 8 7 18 9 22 7 5 -3 9 3 9 13 0 14 -3 16 -13 8 -8 -6 -17 -8 -20 -4 -9 9 11 41 26 41 6 0 11 3 11 8 0 4 0 10 0 13 0 4 -7 1 -15 -6 -18 -15 -22 -6 -29 58 -2 24 -10 49 -16 57 -6 7 -12 24 -14 37 -8 62 -63 137 -81 108z"/>
 <path d="M1537 993 c-3 -5 -2 -15 2 -22 7 -10 10 -10 16 -1 4 6 3 16 -3 22 -5 5 -12 6 -15 1z"/>
 </g>
<g id="layer114" fill="#d59b8a" stroke="none">
 <path d="M829 1958 c-6 -24 -22 -78 -35 -121 -14 -44 -31 -121 -39 -173 -15 -90 -15 -95 4 -131 11 -21 21 -31 21 -23 1 10 4 9 10 -5 7 -17 9 -17 9 -2 1 11 9 17 24 17 12 0 40 7 62 15 22 8 51 14 65 14 17 -1 8 -6 -25 -16 -27 -8 -67 -28 -87 -44 -20 -16 -44 -29 -52 -29 -9 0 -15 -3 -14 -8 4 -12 -79 -83 -94 -80 -7 2 -12 -4 -10 -14 1 -9 -5 -22 -15 -30 -10 -7 -19 -26 -21 -43 -2 -16 -8 -35 -13 -41 -5 -6 -7 -13 -4 -16 2 -2 -11 -61 -29 -131 -28 -103 -31 -127 -19 -127 9 0 12 -6 9 -17 -43 -149 -44 -187 -12 -372 24 -139 44 -190 94 -243 24 -26 43 -50 43 -55 -1 -4 7 -8 17 -8 9 0 16 -6 14 -13 -1 -8 2 -11 7 -8 5 3 33 -5 62 -18 95 -42 120 -48 199 -48 79 0 104 6 199 48 29 13 57 21 62 18 5 -3 8 0 7 8 -2 7 4 13 12 13 8 0 17 5 18 10 2 6 23 30 46 55 48 51 68 103 92 241 26 148 28 219 10 282 -18 61 -21 107 -7 107 5 0 -4 48 -20 107 -15 59 -26 109 -24 112 3 2 0 10 -7 18 -6 7 -8 16 -5 20 4 3 3 11 -2 17 -5 6 -11 25 -13 41 -2 17 -11 36 -21 44 -10 7 -16 20 -13 28 4 8 1 11 -5 7 -12 -7 -69 43 -69 62 0 6 -8 11 -17 10 -10 0 -17 5 -15 12 1 6 -5 12 -14 12 -8 0 -32 13 -52 29 -20 16 -59 36 -87 44 -33 10 -42 15 -25 16 14 0 43 -6 65 -14 22 -8 50 -15 62 -15 12 0 23 -7 25 -17 3 -14 11 -7 32 24 26 39 27 46 18 90 -6 26 -13 68 -16 94 -3 25 -16 81 -30 125 -13 43 -30 98 -36 122 l-11 42 -48 0 c-54 0 -53 2 -66 -93 -7 -43 -5 -49 19 -68 l26 -21 -21 -29 c-11 -16 -34 -36 -50 -45 -30 -15 -31 -15 -70 24 -21 22 -39 44 -39 50 0 5 11 17 25 26 21 14 23 19 14 44 -6 15 -14 45 -18 67 -6 38 -8 40 -48 43 -42 3 -42 3 -54 -40z m171 -786 c0 -5 -6 -17 -14 -28 -10 -13 -11 -23 -4 -31 5 -7 8 -20 6 -30 -2 -14 -8 -10 -25 17 l-22 35 21 22 c22 23 38 30 38 15z m-155 -233 c19 -9 19 -9 -2 -5 -18 3 -21 1 -14 -12 4 -10 10 -23 13 -31 3 -11 9 -9 26 9 16 18 22 20 22 8 0 -55 -165 -104 -212 -61 -27 24 -22 48 15 77 25 20 43 26 82 25 28 0 59 -5 70 -10z m451 -9 c39 -25 52 -56 31 -77 -20 -21 -97 -28 -140 -14 -40 13 -90 58 -81 73 3 5 13 0 21 -11 19 -28 29 -26 41 8 9 26 8 28 -11 25 -21 -4 -21 -4 -2 5 36 17 105 12 141 -9z m-391 -140 c0 -21 -38 -28 -165 -28 -114 0 -114 0 -70 14 103 32 235 40 235 14z m364 0 c51 -10 96 -22 100 -25 3 -4 -53 -5 -126 -3 -129 3 -164 12 -149 37 10 16 69 13 175 -9z"/>
 <path d="M721 927 c-35 -18 -50 -45 -31 -57 26 -17 49 -12 43 9 -3 10 0 28 6 40 14 24 13 25 -18 8z"/>
 <path d="M1260 925 c7 -8 10 -26 8 -40 -5 -26 5 -31 36 -19 23 9 20 21 -10 49 -29 27 -54 34 -34 10z"/>
 <path d="M551 1164 c-23 -17 -46 -60 -42 -81 3 -18 -29 -74 -38 -68 -5 2 -8 -3 -7 -13 0 -9 -3 -16 -9 -15 -5 1 -11 -11 -12 -25 l-1 -27 15 28 c19 37 26 30 12 -12 -6 -17 -17 -30 -24 -29 -8 2 -13 -1 -12 -7 1 -5 5 -9 9 -8 5 2 8 -5 8 -15 0 -10 6 -24 13 -31 10 -10 8 -12 -10 -9 -12 1 -21 -1 -20 -7 1 -5 6 -9 11 -7 4 1 14 -2 21 -8 9 -8 17 4 31 47 17 50 18 62 7 84 -8 18 -10 35 -5 50 8 21 9 21 15 -9 13 -63 26 -40 67 117 13 51 3 67 -29 45z"/>
 <path d="M1415 1170 c-10 -16 42 -200 56 -200 5 0 9 16 9 36 0 22 4 33 11 29 6 -4 8 -27 5 -59 -7 -67 19 -162 39 -146 8 7 18 9 22 7 5 -3 9 3 9 13 0 14 -3 16 -13 8 -8 -6 -17 -8 -20 -4 -9 9 11 41 26 41 6 0 11 3 11 8 0 4 0 10 0 13 0 4 -7 1 -15 -6 -18 -15 -22 -6 -29 58 -2 24 -10 49 -16 57 -6 7 -12 24 -14 37 -8 62 -63 137 -81 108z"/>
 <path d="M1537 993 c-3 -5 -2 -15 2 -22 7 -10 10 -10 16 -1 4 6 3 16 -3 22 -5 5 -12 6 -15 1z"/>
 </g>
<g id="layer115" fill="#daa798" stroke="none">
 <path d="M829 1958 c-6 -24 -22 -78 -35 -121 -14 -44 -31 -121 -39 -173 -15 -90 -15 -95 4 -131 13 -24 20 -31 21 -20 0 10 12 29 26 42 26 24 30 25 193 25 130 -1 170 -4 185 -15 16 -12 22 -12 28 -2 5 7 8 -2 8 -23 l0 -35 21 33 c18 28 20 38 11 80 -6 26 -13 67 -16 93 -3 25 -16 81 -30 125 -13 43 -30 98 -36 122 l-11 42 -48 0 c-54 0 -53 2 -66 -93 -7 -43 -5 -49 19 -68 l26 -21 -21 -29 c-11 -16 -34 -36 -50 -45 -30 -15 -31 -15 -70 24 -21 22 -39 44 -39 50 0 5 11 17 25 26 21 14 23 19 14 44 -6 15 -14 45 -18 67 -6 38 -8 40 -48 43 -42 3 -42 3 -54 -40z"/>
 <path d="M965 1535 c-5 -2 -27 -6 -47 -10 -21 -3 -58 -22 -83 -41 -25 -19 -50 -32 -56 -29 -5 4 -8 3 -7 -2 2 -5 -27 -38 -63 -74 l-66 -64 -43 -170 c-29 -116 -39 -170 -32 -173 13 -4 9 -28 -14 -100 -16 -49 -18 -144 -5 -205 5 -23 15 -71 21 -107 21 -122 41 -172 87 -221 23 -25 39 -50 35 -54 -4 -5 -2 -5 5 -1 6 3 33 -7 59 -24 26 -16 63 -34 83 -40 20 -7 43 -14 51 -17 8 -3 27 -5 42 -4 14 1 29 -2 33 -8 8 -14 62 -14 70 0 4 6 19 9 33 8 15 -1 34 1 42 4 8 3 31 10 51 17 20 6 57 24 83 40 26 17 53 27 59 24 7 -4 9 -4 5 1 -4 4 12 29 35 54 46 49 66 99 87 221 6 36 16 84 21 107 14 66 11 142 -11 217 -14 51 -17 73 -9 83 8 9 0 57 -32 180 l-42 168 -66 64 c-36 36 -65 69 -63 74 1 5 -2 6 -8 2 -6 -4 -25 6 -43 21 -17 15 -45 33 -62 40 -31 13 -133 26 -150 19z m33 -222 c37 3 78 8 92 12 l25 6 -25 -12 c-64 -29 -190 -27 -190 4 0 5 7 4 15 -3 11 -9 36 -11 83 -7z m-2 -150 c-7 -16 -12 -43 -9 -63 l5 -35 -26 30 c-14 17 -25 33 -26 37 0 6 58 58 66 58 2 0 -2 -12 -10 -27z m-151 -224 c19 -9 19 -9 -2 -5 -18 3 -21 1 -14 -12 4 -10 10 -23 13 -31 3 -11 9 -9 26 9 17 18 22 20 22 8 0 -9 -7 -21 -15 -28 -8 -7 -12 -17 -8 -23 3 -5 1 -7 -4 -4 -6 4 -27 0 -47 -8 -73 -31 -156 -12 -156 36 0 10 15 29 33 43 25 20 43 26 82 25 28 0 59 -5 70 -10z m451 -9 c39 -25 52 -56 31 -77 -20 -20 -97 -28 -138 -14 -19 6 -38 11 -43 10 -11 -1 -49 62 -41 69 3 3 12 -4 21 -16 20 -29 30 -28 42 7 9 26 8 28 -11 25 -21 -4 -21 -4 -2 5 36 17 105 12 141 -9z m-386 -136 c0 -26 -39 -34 -162 -34 -109 1 -120 2 -93 14 17 7 71 18 120 25 50 7 95 14 100 16 17 4 35 -7 35 -21z m315 5 c50 -7 104 -18 120 -25 27 -12 16 -13 -93 -14 -123 0 -162 8 -162 35 0 14 18 24 35 20 6 -2 51 -9 100 -16z"/>
 <path d="M721 927 c-35 -18 -50 -45 -31 -57 26 -17 49 -12 43 9 -3 10 0 28 6 40 14 24 13 25 -18 8z"/>
 <path d="M1260 925 c7 -8 10 -26 8 -40 -5 -26 5 -31 36 -19 23 9 20 21 -10 49 -29 27 -54 34 -34 10z"/>
 <path d="M536 1148 c-8 -13 -20 -43 -26 -68 -7 -25 -15 -49 -20 -55 -4 -5 -11 -32 -15 -60 -4 -27 -11 -55 -16 -62 -7 -7 -6 -14 1 -18 15 -9 12 -35 -4 -35 -8 0 -18 -5 -22 -12 -4 -7 -3 -8 5 -4 6 4 18 3 25 -3 11 -9 17 -1 30 39 14 41 15 58 5 89 -9 31 -8 43 4 67 l16 29 1 -42 c0 -24 4 -43 9 -43 7 0 61 173 61 195 0 15 -42 2 -54 -17z"/>
 <path d="M1410 1165 c0 -3 12 -48 26 -100 27 -96 43 -113 45 -47 l1 37 14 -32 c10 -25 11 -39 3 -60 -14 -38 17 -149 37 -132 7 6 19 7 25 3 8 -4 9 -3 5 4 -4 7 -15 12 -24 12 -14 0 -17 11 -17 69 0 38 3 67 7 65 4 -2 10 0 13 6 4 6 1 9 -6 8 -16 -4 -49 53 -56 94 -6 45 -29 78 -53 78 -11 0 -20 -2 -20 -5z"/>
 </g>
<g id="layer116" fill="#d9b2a6" stroke="none">
 <path d="M829 1958 c-6 -24 -22 -78 -35 -121 -14 -44 -31 -121 -39 -173 -15 -89 -15 -96 3 -130 l19 -37 6 29 c8 39 77 82 156 95 78 14 170 -1 223 -36 21 -14 43 -23 48 -20 6 4 10 -8 10 -27 l0 -33 21 33 c18 28 20 38 11 80 -6 26 -13 67 -16 93 -3 25 -16 81 -30 125 -13 43 -30 98 -36 122 l-11 42 -48 0 c-54 0 -53 2 -66 -93 -7 -43 -5 -49 19 -68 l26 -21 -21 -29 c-11 -16 -34 -36 -50 -45 -30 -15 -31 -15 -70 24 -21 22 -39 44 -39 50 0 5 11 17 25 26 21 14 23 19 14 44 -6 15 -14 45 -18 67 -6 38 -8 40 -48 43 -42 3 -42 3 -54 -40z"/>
 <path d="M871 1503 c-68 -38 -197 -146 -216 -182 -26 -51 -97 -344 -85 -351 8 -5 5 -31 -9 -88 -12 -44 -21 -95 -21 -114 0 -36 44 -291 55 -323 19 -54 37 -83 69 -114 19 -19 32 -39 29 -44 -3 -6 -1 -7 5 -3 7 4 29 -5 49 -19 41 -27 150 -65 189 -65 13 0 33 -6 44 -12 16 -10 24 -10 40 0 11 6 31 12 44 12 39 0 148 38 189 65 20 14 42 23 49 19 6 -4 8 -3 5 3 -3 5 10 25 29 44 49 48 62 77 90 219 37 187 40 232 16 325 -14 52 -18 83 -11 91 11 13 -60 304 -86 355 -19 36 -148 144 -216 182 -43 23 -63 27 -129 27 -66 0 -86 -4 -129 -27z m244 -172 c-15 -25 -163 -48 -195 -31 -11 6 -20 16 -20 22 0 7 5 6 15 -2 15 -13 140 -6 180 11 27 10 27 10 20 0z m-85 -166 l23 -25 -31 0 c-30 0 -32 -2 -32 -37 l-1 -38 -24 30 c-31 38 -31 41 3 70 34 30 34 30 62 0z m-180 -226 l25 -9 -27 4 c-22 2 -26 0 -19 -13 5 -9 10 -23 13 -31 4 -11 8 -10 23 7 17 20 19 21 31 5 14 -17 20 -51 7 -39 -3 4 -17 0 -30 -8 -13 -9 -29 -13 -35 -9 -7 5 -8 3 -3 -6 6 -10 3 -12 -13 -8 -14 4 -20 2 -15 -4 4 -8 -12 -9 -51 -5 -95 10 -123 54 -63 101 25 20 43 26 82 25 28 -1 61 -5 75 -10z m446 -9 c106 -66 -19 -144 -144 -90 -65 28 -75 39 -56 65 14 19 14 19 30 -3 20 -29 30 -28 42 6 9 27 8 29 -17 26 l-26 -4 25 9 c46 16 111 12 146 -9z m-386 -136 c0 -25 -39 -34 -165 -41 -132 -6 -159 2 -79 26 55 16 214 39 232 33 6 -2 12 -10 12 -18z m425 -15 c25 -7 45 -18 45 -23 0 -12 -244 0 -270 14 -22 12 -27 36 -8 42 17 6 180 -17 233 -33z"/>
 <path d="M721 927 c-35 -18 -50 -45 -31 -57 26 -17 49 -12 43 9 -3 10 0 28 6 40 14 24 13 25 -18 8z"/>
 <path d="M1260 925 c7 -8 10 -26 8 -40 -5 -26 5 -31 36 -19 23 9 20 21 -10 49 -29 27 -54 34 -34 10z"/>
 <path d="M536 1148 c-18 -25 -21 -53 -6 -43 6 3 0 -11 -12 -31 -12 -21 -17 -34 -10 -30 9 5 12 -4 12 -33 0 -64 15 -48 39 42 12 45 24 90 27 100 8 26 -31 22 -50 -5z"/>
 <path d="M1414 1154 c3 -9 6 -22 6 -29 0 -8 7 -21 16 -29 8 -9 12 -16 8 -16 -3 0 0 -8 7 -17 10 -12 11 -15 1 -9 -10 6 -11 1 -6 -21 4 -15 11 -29 15 -31 4 -2 5 -10 2 -19 -5 -11 -3 -14 6 -8 8 4 11 22 9 47 -3 34 -2 37 9 22 21 -28 15 -2 -7 34 -12 19 -16 30 -9 27 13 -9 3 32 -13 53 -16 18 -52 16 -44 -4z"/>
 <path d="M473 953 c-6 -34 -7 -67 -2 -80 7 -19 5 -23 -11 -23 -10 0 -21 -3 -23 -7 -3 -5 6 -8 19 -8 21 0 30 7 22 18 -2 2 3 11 10 19 7 9 9 24 5 33 -4 13 -3 16 5 11 15 -9 15 -1 -1 52 l-13 44 -11 -59z"/>
 <path d="M1500 964 c-6 -14 -10 -33 -10 -42 0 -15 2 -15 11 -2 8 12 9 10 4 -7 -3 -13 -3 -28 2 -35 4 -7 8 -19 9 -26 3 -20 8 -22 24 -12 13 9 13 10 0 10 -12 0 -14 12 -12 57 2 45 0 55 -8 43 -9 -12 -10 -9 -6 13 8 34 -1 35 -14 1z"/>
 </g>
<g id="layer117" fill="#e6b8ab" stroke="none">
 <path d="M829 1958 c-6 -24 -22 -78 -35 -121 -14 -44 -31 -121 -39 -173 -15 -90 -15 -95 4 -131 19 -36 20 -37 21 -12 0 35 76 85 154 101 73 16 172 0 227 -37 22 -14 44 -23 49 -20 6 4 10 -8 10 -27 l0 -33 21 33 c18 28 20 38 11 80 -6 26 -13 67 -16 93 -3 25 -16 81 -30 125 -13 43 -30 98 -36 122 l-11 42 -48 0 c-54 0 -53 2 -66 -92 -7 -43 -5 -49 21 -71 l27 -24 -41 -41 c-23 -23 -47 -42 -53 -42 -14 0 -89 74 -89 88 0 5 11 17 25 26 21 14 23 19 14 44 -6 15 -14 45 -18 67 -6 38 -8 40 -48 43 -42 3 -42 3 -54 -40z"/>
 <path d="M891 1515 c-49 -22 -207 -151 -230 -188 -26 -44 -105 -349 -91 -357 6 -4 2 -39 -12 -103 -24 -106 -23 -118 23 -351 24 -120 50 -162 137 -228 156 -118 403 -120 559 -4 32 23 66 52 77 64 30 35 62 139 87 284 l23 138 -21 92 c-13 58 -17 97 -12 104 12 15 -66 317 -92 361 -24 39 -183 167 -233 188 -45 19 -170 19 -215 0z m224 -184 c-15 -25 -163 -48 -195 -31 -11 6 -20 16 -20 22 0 7 5 6 15 -2 15 -13 140 -6 180 11 27 10 27 10 20 0z m-85 -166 l23 -25 -31 0 c-31 0 -32 -1 -32 -42 l0 -43 -25 37 c-14 20 -25 40 -25 43 0 7 52 54 61 55 3 0 16 -11 29 -25z m-180 -226 l25 -9 -27 4 c-22 2 -26 0 -19 -13 5 -9 10 -22 13 -30 3 -11 9 -9 25 8 20 21 20 21 43 3 l24 -19 -22 -18 c-21 -18 -47 -27 -89 -29 -11 -1 -19 -5 -16 -10 3 -5 -19 -7 -51 -4 -69 6 -102 32 -92 72 3 14 18 31 34 39 30 17 114 20 152 6z m461 -18 c16 -16 29 -39 29 -50 0 -45 -101 -62 -195 -33 -51 15 -60 22 -63 44 -4 34 25 46 45 18 19 -27 29 -25 41 8 9 27 8 29 -17 25 -23 -3 -23 -2 -6 6 11 5 46 10 78 10 52 1 62 -2 88 -28z m-417 -107 c24 -9 19 -41 -6 -48 -13 -4 -81 -9 -153 -12 -115 -5 -128 -4 -112 9 17 14 66 25 197 46 30 5 56 9 57 10 1 0 8 -2 17 -5z m336 -14 c96 -14 147 -28 156 -42 5 -8 -27 -9 -122 -5 -149 7 -174 13 -174 37 0 21 16 30 45 24 11 -2 54 -8 95 -14z"/>
 <path d="M721 927 c-35 -18 -50 -45 -31 -57 26 -17 49 -12 43 9 -3 10 0 28 6 40 14 24 13 25 -18 8z"/>
 <path d="M1259 927 c7 -9 11 -28 9 -42 -4 -18 -1 -25 11 -25 50 1 48 41 -3 67 -29 15 -30 15 -17 0z"/>
 <path d="M536 1148 c-18 -25 -21 -53 -6 -43 6 3 0 -11 -12 -31 -12 -21 -17 -35 -11 -31 14 9 23 -15 16 -41 -2 -11 0 -23 6 -26 7 -4 8 -1 5 8 -3 9 -2 16 4 16 11 0 22 48 15 67 -3 7 -10 10 -16 6 -6 -3 -7 -1 -3 5 4 7 13 12 21 12 7 0 16 9 19 20 3 11 9 29 12 40 8 28 -30 27 -50 -2z"/>
 <path d="M1414 1154 c3 -9 6 -22 6 -29 0 -8 10 -24 23 -36 12 -12 17 -19 10 -15 -8 4 -10 -4 -7 -31 3 -20 7 -39 11 -43 3 -3 4 9 1 26 -4 34 15 41 33 13 5 -8 9 -10 9 -5 0 5 -10 25 -22 44 -12 20 -16 32 -9 28 10 -7 11 -3 6 15 -11 35 -25 49 -47 49 -14 0 -18 -5 -14 -16z"/>
 <path d="M1472 1028 c-1 -14 -5 -35 -8 -45 -5 -14 -4 -15 5 -7 7 7 11 26 8 45 -3 28 -4 29 -5 7z"/>
 <path d="M475 958 c-4 -27 -5 -61 -3 -78 3 -22 1 -30 -11 -30 -14 0 -14 -2 -1 -10 17 -11 19 -9 26 21 8 33 8 39 0 74 l-7 30 15 -30 c18 -37 19 -13 2 35 l-13 35 -8 -47z"/>
 <path d="M1497 950 c-10 -36 -8 -47 4 -30 8 12 9 10 4 -7 -3 -13 -3 -28 2 -35 4 -7 8 -19 9 -26 3 -20 8 -22 24 -12 13 9 13 10 0 10 -12 0 -14 12 -12 57 2 39 0 53 -7 44 -7 -11 -10 -10 -13 5 -3 16 -5 15 -11 -6z"/>
 </g>
<g id="layer118" fill="#ecc5ba" stroke="none">
 <path d="M829 1958 c-6 -24 -22 -78 -35 -121 -14 -44 -31 -121 -39 -173 -15 -90 -15 -95 4 -131 18 -35 20 -36 21 -13 0 29 7 40 35 58 103 65 274 70 351 10 13 -11 31 -17 39 -14 12 4 15 -3 15 -32 l0 -37 21 33 c18 28 20 38 11 80 -6 26 -13 67 -16 93 -3 25 -16 81 -30 125 -13 43 -30 98 -36 122 l-11 42 -48 0 c-54 0 -53 2 -66 -92 -7 -43 -5 -49 21 -71 l27 -24 -41 -41 c-23 -23 -47 -42 -53 -42 -14 0 -89 74 -89 88 0 5 11 17 25 26 21 14 23 19 14 44 -6 15 -14 45 -18 67 -6 38 -8 40 -48 43 -42 3 -42 3 -54 -40z"/>
 <path d="M970 1523 c-65 -8 -107 -29 -187 -94 -48 -39 -98 -85 -111 -103 -23 -34 -91 -279 -96 -351 -2 -22 -11 -79 -22 -126 -18 -86 -18 -87 5 -215 34 -193 54 -250 111 -305 26 -26 83 -64 126 -85 l78 -39 126 0 126 0 78 39 c43 21 100 59 126 85 57 55 77 112 111 305 23 128 23 129 5 215 -11 47 -20 104 -22 126 -5 72 -73 317 -96 351 -33 45 -190 170 -230 182 -42 13 -96 19 -128 15z m55 -157 c17 -12 15 -14 -23 -18 -44 -4 -54 4 -24 21 22 14 25 13 47 -3z m105 -32 c0 -12 -69 -32 -131 -38 -58 -6 -68 -5 -90 14 -20 18 -20 20 -4 13 25 -10 146 -6 177 6 27 11 48 13 48 5z m-103 -166 c31 -29 29 -38 -8 -38 -30 0 -31 -2 -27 -35 5 -44 -1 -44 -29 0 -29 44 -29 45 5 72 33 28 31 28 59 1z m-130 -228 c41 -25 51 -61 27 -98 -10 -15 -17 -37 -16 -48 2 -13 -4 -24 -15 -28 -31 -12 -283 -20 -283 -9 0 12 65 32 131 40 56 7 48 22 -11 23 -43 1 -75 38 -66 75 14 54 169 85 233 45z m403 -9 c14 -10 29 -30 34 -44 13 -35 -19 -67 -66 -67 -58 0 -64 -17 -9 -23 66 -8 131 -28 131 -40 0 -11 -236 -3 -278 9 -18 5 -23 12 -19 30 2 15 -3 30 -14 40 -30 27 -24 68 13 99 31 26 36 27 108 21 49 -4 84 -13 100 -25z"/>
 <path d="M721 927 c-35 -18 -50 -45 -31 -57 26 -17 49 -12 43 9 -3 10 0 28 6 40 14 24 13 25 -18 8z"/>
 <path d="M829 921 c5 -9 10 -22 13 -30 3 -11 7 -10 21 3 24 25 21 33 -12 38 -25 4 -28 2 -22 -11z"/>
 <path d="M1148 933 c-30 -5 -36 -21 -16 -41 18 -18 25 -15 37 18 5 17 9 29 8 29 -1 -1 -14 -4 -29 -6z"/>
 <path d="M1259 927 c7 -9 11 -28 9 -42 -4 -18 -1 -25 11 -25 50 1 48 41 -3 67 -29 15 -30 15 -17 0z"/>
 <path d="M536 1148 c-18 -25 -21 -42 -6 -33 13 8 13 -1 -1 -26 -10 -20 -10 -20 15 -4 14 10 26 18 26 19 0 0 4 16 9 34 8 28 7 32 -9 32 -10 0 -26 -10 -34 -22z"/>
 <path d="M1421 1138 c5 -18 9 -34 9 -34 0 -1 12 -10 28 -19 15 -10 21 -12 15 -4 -7 7 -13 20 -13 29 0 13 1 13 10 0 14 -21 12 -3 -1 23 -13 25 -28 37 -46 37 -8 0 -9 -9 -2 -32z"/>
 <path d="M1446 1061 c-3 -5 -1 -20 4 -33 9 -21 10 -20 5 7 -4 20 -3 27 4 20 5 -5 11 -23 13 -40 3 -29 4 -29 9 7 3 21 3 35 0 33 -2 -3 -10 0 -17 6 -8 6 -14 6 -18 0z"/>
 <path d="M523 1047 c-4 -6 -1 -7 7 -2 9 5 10 2 5 -14 -4 -12 -2 -21 4 -21 6 0 11 4 11 9 0 5 2 16 5 24 7 16 -22 19 -32 4z"/>
 <path d="M1496 944 c-4 -14 -5 -28 -3 -31 3 -2 8 8 11 23 4 14 5 28 3 31 -3 2 -8 -8 -11 -23z"/>
 <path d="M471 918 c-1 -27 3 -48 8 -48 16 0 18 24 5 60 l-13 35 0 -47z"/>
 <path d="M1514 924 c-7 -18 -8 -37 -4 -45 14 -21 22 -5 18 37 l-3 39 -11 -31z"/>
 </g>
<g id="layer119" fill="#d3ced5" stroke="none">
 <path d="M829 1958 c-6 -24 -22 -78 -35 -121 -14 -44 -31 -121 -39 -172 -14 -87 -14 -96 2 -130 l17 -36 13 57 c16 68 24 79 77 106 23 12 58 32 79 45 l38 24 -35 40 c-20 21 -36 43 -36 48 0 5 11 16 25 25 21 14 23 19 14 44 -6 15 -14 45 -18 67 -6 38 -8 40 -48 43 -42 3 -42 3 -54 -40z"/>
 <path d="M1057 1978 c-3 -13 -9 -44 -12 -70 -7 -43 -5 -49 20 -71 l27 -23 -36 -38 c-43 -46 -41 -50 47 -94 84 -42 108 -69 115 -127 l5 -47 19 31 c17 27 19 37 10 79 -6 26 -13 67 -16 93 -3 25 -16 81 -30 125 -13 43 -30 98 -36 122 l-11 42 -48 0 c-42 0 -50 -3 -54 -22z"/>
 <path d="M721 927 c-35 -18 -50 -45 -31 -57 26 -17 49 -12 43 9 -3 10 0 28 6 40 14 24 13 25 -18 8z"/>
 <path d="M829 921 c5 -9 10 -22 13 -30 3 -11 7 -10 21 3 24 25 21 33 -12 38 -25 4 -28 2 -22 -11z"/>
 <path d="M1148 933 c-30 -5 -36 -21 -16 -41 18 -18 25 -15 37 18 5 17 9 29 8 29 -1 -1 -14 -4 -29 -6z"/>
 <path d="M1259 927 c7 -9 11 -28 9 -42 -4 -18 -1 -25 11 -25 50 1 48 41 -3 67 -29 15 -30 15 -17 0z"/>
 </g>
<g id="layer120" fill="#dfdee4" stroke="none">
 <path d="M834 1976 c-3 -14 -3 -30 1 -35 3 -6 2 -11 -3 -11 -15 0 -63 -168 -81 -284 -8 -57 -7 -75 6 -105 l15 -36 12 57 c15 69 24 80 95 119 31 16 65 37 76 45 19 14 19 16 2 25 -19 11 -117 146 -117 163 0 5 13 -11 30 -37 33 -52 36 -54 67 -32 20 14 21 18 8 58 -7 23 -16 54 -19 70 -6 24 -11 27 -46 27 -34 0 -41 -4 -46 -24z"/>
 <path d="M1057 1978 c-3 -13 -9 -45 -12 -73 -5 -46 -4 -52 20 -68 15 -11 28 -17 30 -15 1 1 17 25 34 52 17 28 31 46 31 40 0 -16 -51 -87 -97 -135 l-45 -46 76 -38 c97 -48 126 -81 126 -143 l1 -47 19 36 c17 32 18 44 9 95 -20 112 -31 159 -50 219 -10 33 -24 79 -29 103 l-11 42 -48 0 c-42 0 -50 -3 -54 -22z"/>
 <path d="M719 925 c-35 -19 -43 -42 -18 -50 11 -4 21 -5 22 -3 4 6 25 68 24 68 -1 -1 -14 -7 -28 -15z"/>
 <path d="M1160 933 c-8 -2 -21 -7 -29 -9 -11 -3 -11 -7 -1 -19 17 -21 23 -19 37 10 6 14 10 25 10 24 -1 0 -9 -3 -17 -6z"/>
 <path d="M1258 929 c6 -7 12 -23 12 -36 0 -23 23 -32 34 -14 10 16 -4 38 -32 50 -22 10 -25 10 -14 0z"/>
 <path d="M837 910 c4 -16 9 -18 24 -9 23 12 16 29 -11 29 -13 0 -17 -5 -13 -20z"/>
 </g>
<g id="layer121" fill="#f2f0f3" stroke="none">
 <path d="M837 1979 c-6 -21 24 -91 57 -134 15 -20 15 -20 37 2 24 23 24 15 -8 136 -3 12 -15 17 -43 17 -30 0 -39 -4 -43 -21z"/>
 <path d="M1057 1978 c-3 -13 -9 -45 -12 -73 -5 -45 -3 -52 19 -67 24 -18 25 -17 44 10 37 52 61 109 55 131 -4 18 -13 21 -53 21 -41 0 -49 -3 -53 -22z"/>
 <path d="M826 1909 c-29 -80 -75 -255 -77 -286 -1 -21 5 -54 14 -73 14 -32 15 -33 16 -10 3 65 21 99 69 126 26 15 64 37 84 50 l38 24 -35 33 c-19 17 -50 59 -69 91 -22 36 -37 53 -40 45z"/>
 <path d="M1145 1879 c-11 -22 -41 -64 -67 -92 -26 -28 -48 -52 -48 -54 0 -1 36 -21 79 -43 82 -43 102 -63 115 -115 l8 -30 12 23 c9 17 10 37 3 75 -10 52 -76 277 -81 277 -2 0 -11 -18 -21 -41z"/>
 <path d="M713 923 c-16 -6 -17 -39 -2 -48 13 -9 15 -7 23 28 6 27 3 30 -21 20z"/>
 <path d="M837 909 c4 -13 9 -17 15 -11 11 11 3 32 -12 32 -4 0 -6 -9 -3 -21z"/>
 <path d="M1144 919 c-3 -6 -2 -15 4 -21 6 -6 11 -2 15 11 5 22 -7 29 -19 10z"/>
 <path d="M1268 900 c5 -32 19 -40 28 -15 6 15 -11 45 -25 45 -4 0 -6 -13 -3 -30z"/>
 </g>

</svg>