<!DOCTYPE svg PUBLIC "-//W3C//DTD SVG 20010904//EN" "http://www.w3.org/TR/2001/REC-SVG-20010904/DTD/svg10.dtd">
<svg version="1.0" xmlns="http://www.w3.org/2000/svg" width="200px" height="200px" viewBox="0 0 2000 2000" preserveAspectRatio="xMidYMid meet">
<g id="layer101" fill="#f2f0f3" stroke="none">
 <path d="M130 1990 c0 -32 26 -122 47 -160 30 -56 76 -82 193 -109 135 -31 322 -98 346 -125 31 -32 62 -98 56 -116 -2 -8 -35 -44 -73 -80 -59 -57 -70 -73 -84 -125 -9 -33 -18 -66 -20 -72 -3 -7 -13 -13 -22 -13 -34 0 -60 -29 -72 -77 -7 -26 -27 -73 -46 -103 -56 -92 -59 -168 -8 -189 27 -11 28 -13 25 -82 -6 -125 40 -291 101 -359 42 -47 186 -148 244 -171 87 -33 239 -38 331 -10 129 39 281 161 326 261 34 75 58 202 55 289 -2 57 0 65 19 72 51 19 51 86 -1 178 -17 30 -40 82 -51 115 -18 53 -25 62 -55 72 -31 10 -36 17 -51 72 -21 76 -36 99 -101 154 -67 57 -76 79 -47 127 12 20 32 46 43 58 23 26 213 94 345 124 117 27 163 53 193 109 21 38 47 128 47 160 0 6 -327 10 -870 10 -543 0 -870 -4 -870 -10z"/>
 </g>
<g id="layer102" fill="#dfdee4" stroke="none">
 <path d="M130 1990 c0 -32 26 -122 47 -160 30 -56 76 -82 193 -109 135 -31 322 -98 346 -125 31 -32 62 -98 56 -116 -2 -8 -35 -44 -73 -80 -59 -57 -70 -73 -84 -125 -9 -33 -18 -66 -20 -72 -3 -7 -13 -13 -22 -13 -34 0 -60 -29 -72 -77 -7 -26 -27 -73 -46 -103 -56 -92 -59 -168 -8 -189 27 -11 28 -13 25 -82 -6 -125 40 -291 101 -359 42 -47 186 -148 244 -171 87 -33 239 -38 331 -10 129 39 281 161 326 261 34 75 58 202 55 289 -2 57 0 65 19 72 51 19 51 86 -1 178 -17 30 -40 82 -51 115 -18 53 -25 62 -55 72 -31 10 -36 17 -51 72 -21 76 -36 99 -101 154 -67 57 -76 79 -47 127 12 20 32 46 43 58 23 26 213 94 345 124 117 27 163 53 193 109 21 38 47 128 47 160 0 6 -138 10 -356 10 l-356 0 5 -21 c6 -22 -18 -79 -55 -131 -19 -27 -20 -28 -44 -10 -22 15 -24 22 -19 67 3 28 9 60 12 73 5 21 3 22 -67 22 -63 0 -71 -2 -67 -17 32 -121 32 -113 8 -136 -22 -22 -22 -22 -37 -2 -33 43 -63 113 -57 134 l5 21 -356 0 c-218 0 -356 -4 -356 -10z m805 -217 l35 -33 -38 -24 c-20 -13 -58 -35 -84 -50 -48 -27 -66 -61 -69 -126 -1 -23 -2 -22 -16 10 -9 19 -15 52 -14 73 2 31 48 206 77 286 3 8 18 -9 40 -45 19 -32 50 -74 69 -91z m268 35 c47 -155 56 -211 41 -240 l-12 -23 -8 30 c-13 52 -33 72 -115 115 -43 22 -79 42 -79 43 0 2 22 26 48 54 26 28 56 70 67 92 10 23 19 41 21 41 2 0 18 -51 37 -112z m-469 -905 c-8 -35 -10 -37 -23 -28 -15 9 -14 42 2 48 24 10 27 7 21 -20z m122 16 c3 -6 2 -15 -4 -21 -6 -6 -11 -2 -15 11 -5 22 7 29 19 10z m307 -10 c-4 -13 -9 -17 -15 -11 -11 11 -3 32 12 32 4 0 6 -9 3 -21z m127 6 c13 -15 7 -45 -9 -45 -5 0 -11 14 -13 30 -5 33 3 38 22 15z"/>
 </g>
<g id="layer103" fill="#d3ced5" stroke="none">
 <path d="M130 1990 c0 -32 26 -122 47 -160 30 -56 76 -82 193 -109 136 -31 323 -98 343 -123 23 -28 32 -15 41 58 9 80 63 274 75 274 3 0 6 16 7 35 l1 35 -354 0 c-216 0 -353 -4 -353 -10z"/>
 <path d="M927 1968 c3 -18 12 -50 19 -70 12 -35 11 -39 -9 -53 -31 -22 -34 -20 -67 32 -17 26 -30 42 -30 37 0 -17 98 -152 117 -163 17 -9 17 -11 -2 -25 -11 -8 -46 -29 -78 -46 -77 -42 -85 -55 -102 -175 -5 -32 -18 -51 -75 -105 -60 -57 -71 -72 -85 -125 -9 -33 -18 -66 -20 -72 -3 -7 -13 -13 -22 -13 -34 0 -60 -29 -72 -77 -7 -26 -27 -73 -46 -103 -56 -92 -59 -168 -8 -189 27 -11 28 -13 25 -82 -6 -125 40 -291 101 -359 42 -47 186 -148 244 -171 87 -33 239 -38 331 -10 129 39 281 161 326 261 34 75 58 202 55 289 -2 57 0 65 19 72 51 19 51 86 -1 178 -17 30 -40 82 -51 115 -18 54 -25 62 -56 72 -19 6 -35 15 -36 20 -31 121 -35 128 -106 196 l-71 67 -6 70 c-8 86 -24 105 -128 157 l-75 37 45 46 c46 48 97 119 97 135 0 6 -14 -12 -31 -40 -17 -27 -33 -51 -34 -52 -2 -2 -15 4 -30 15 -24 16 -25 22 -20 68 3 28 9 60 12 73 5 21 3 22 -66 22 l-70 0 6 -32z m-190 -1060 c-6 -18 -12 -35 -14 -36 -1 -2 -11 -1 -22 3 -25 8 -17 31 18 50 14 8 27 14 28 15 1 0 -4 -15 -10 -32z m430 7 c-14 -29 -20 -31 -37 -10 -10 12 -10 16 1 19 19 6 44 14 46 15 0 1 -4 -10 -10 -24z m137 -12 c8 -19 -1 -33 -20 -33 -8 0 -14 10 -14 23 0 13 -6 29 -12 36 -11 10 -8 10 14 0 15 -6 29 -18 32 -26z m-429 18 c3 -6 -3 -15 -14 -20 -15 -9 -20 -7 -24 9 -4 15 0 20 13 20 11 0 21 -4 25 -9z"/>
 <path d="M1164 1983 c3 -10 8 -31 12 -48 3 -16 14 -52 23 -80 19 -55 37 -136 46 -205 8 -66 19 -79 42 -52 20 25 207 92 343 123 117 27 163 53 193 109 21 38 47 128 47 160 0 6 -137 10 -356 10 -334 0 -355 -1 -350 -17z"/>
 </g>
<g id="layer104" fill="#ecc5ba" stroke="none">
 <path d="M130 1990 c0 -32 26 -122 47 -160 30 -56 76 -82 193 -109 136 -31 323 -98 343 -123 24 -28 32 -15 41 64 4 33 19 99 33 146 14 48 29 101 33 117 4 17 10 40 14 53 l7 22 -355 0 c-219 0 -356 -4 -356 -10z"/>
 <path d="M931 1958 c4 -24 12 -55 18 -70 9 -25 7 -30 -14 -44 -14 -9 -25 -20 -25 -25 0 -5 16 -27 36 -48 l35 -40 -38 -24 c-21 -13 -56 -33 -79 -45 -55 -28 -62 -39 -80 -123 -15 -71 -18 -76 -84 -139 -60 -57 -71 -72 -85 -125 -9 -33 -18 -66 -20 -72 -3 -7 -13 -13 -22 -13 -34 0 -60 -29 -72 -77 -7 -26 -27 -73 -46 -103 -56 -92 -59 -168 -8 -189 27 -11 28 -13 25 -82 -6 -125 40 -291 101 -359 42 -47 186 -148 244 -171 87 -33 239 -38 331 -10 129 39 281 161 326 261 34 75 58 202 55 289 -2 57 0 65 19 72 51 19 51 86 -1 178 -17 30 -40 82 -51 115 -18 54 -25 62 -56 72 -19 6 -35 15 -36 20 -31 121 -35 128 -106 195 -69 66 -70 67 -78 134 -10 80 -27 101 -117 147 -88 44 -90 48 -47 94 l36 38 -27 23 c-25 22 -27 28 -20 71 3 26 9 57 12 70 5 21 3 22 -65 22 l-69 0 8 -42z m-192 -1039 c-6 -12 -9 -30 -6 -40 6 -21 -17 -26 -43 -9 -19 12 -4 39 31 57 31 17 32 16 18 -8z m141 1 c0 -5 -8 -16 -17 -26 -14 -13 -18 -14 -21 -3 -3 8 -8 21 -13 30 -6 13 -3 15 22 11 16 -2 29 -8 29 -12z m289 -10 c-12 -33 -19 -36 -37 -18 -20 20 -14 36 16 41 15 2 28 5 29 6 1 0 -3 -12 -8 -29z m145 -16 c7 -19 -9 -34 -35 -34 -12 0 -15 7 -11 25 2 14 -2 33 -9 42 -13 15 -12 15 17 0 17 -9 35 -24 38 -33z"/>
 <path d="M1166 1973 c4 -16 20 -71 36 -123 16 -52 33 -127 38 -165 9 -71 18 -105 27 -105 3 0 12 9 21 20 19 23 213 91 342 121 117 27 163 53 193 109 21 38 47 128 47 160 0 6 -137 10 -355 10 l-355 0 6 -27z"/>
 </g>
<g id="layer105" fill="#e6b8ab" stroke="none">
 <path d="M130 1990 c0 -32 26 -122 47 -160 30 -56 76 -82 193 -109 136 -31 323 -98 343 -123 24 -28 32 -15 41 64 4 33 19 99 33 146 14 48 29 101 33 117 4 17 10 40 14 53 l7 22 -355 0 c-219 0 -356 -4 -356 -10z"/>
 <path d="M931 1958 c4 -24 12 -55 18 -70 9 -25 7 -30 -14 -44 -14 -9 -25 -21 -25 -26 0 -14 75 -88 89 -88 6 0 30 19 53 42 l41 41 -27 24 c-26 22 -28 28 -21 71 3 26 9 57 12 70 5 21 3 22 -65 22 l-69 0 8 -42z"/>
 <path d="M1166 1973 c4 -16 20 -71 36 -123 16 -52 33 -127 38 -165 9 -71 18 -105 27 -105 3 0 12 9 21 20 19 23 213 91 342 121 117 27 163 53 193 109 21 38 47 128 47 160 0 6 -137 10 -355 10 l-355 0 6 -27z"/>
 <path d="M886 1614 c-22 -8 -47 -21 -56 -29 -9 -8 -22 -15 -28 -15 -6 0 -14 -10 -16 -22 -3 -13 -8 -36 -11 -53 -4 -19 -31 -53 -75 -95 -60 -57 -71 -73 -85 -125 -9 -33 -18 -66 -20 -72 -3 -7 -13 -13 -22 -13 -34 0 -60 -29 -72 -77 -7 -26 -27 -73 -46 -103 -56 -92 -59 -168 -8 -189 27 -11 28 -13 25 -82 -6 -125 40 -291 101 -359 42 -47 186 -148 244 -171 87 -33 239 -38 331 -10 129 39 281 161 326 261 34 75 58 202 55 289 -2 57 0 65 19 72 51 19 51 86 -1 178 -17 30 -40 82 -51 115 -18 54 -25 62 -56 72 -19 6 -35 15 -36 20 -31 121 -35 128 -106 196 -69 65 -71 69 -76 122 -3 42 -8 53 -19 49 -7 -3 -22 2 -31 11 -49 44 -204 60 -286 30z m212 -106 c40 -12 197 -137 230 -182 23 -34 91 -279 96 -351 2 -22 11 -79 22 -126 18 -86 18 -87 -5 -215 -34 -193 -54 -250 -111 -305 -26 -26 -83 -64 -126 -85 l-78 -39 -126 0 -126 0 -78 39 c-43 21 -100 59 -126 85 -57 55 -77 112 -111 305 -23 128 -23 129 -5 215 11 47 20 104 22 126 5 72 73 317 96 351 35 49 193 172 236 183 71 20 122 20 190 -1z m-519 -370 c-5 -18 -9 -34 -9 -34 0 -1 -12 -9 -26 -19 -25 -16 -25 -16 -15 4 14 25 14 34 1 26 -15 -9 -12 8 6 33 8 12 24 22 34 22 16 0 17 -4 9 -32z m867 24 c12 -8 34 -46 34 -59 0 -4 -5 -1 -10 7 -9 13 -10 13 -10 0 0 -9 6 -22 13 -29 6 -8 0 -6 -15 4 -16 9 -28 18 -28 19 0 0 -4 16 -9 34 -10 32 -1 41 25 24z m35 -107 c3 2 3 -12 0 -33 -5 -36 -6 -36 -9 -7 -2 17 -8 35 -13 40 -7 7 -8 0 -4 -20 5 -27 4 -28 -5 -7 -12 29 -4 48 14 33 7 -6 15 -9 17 -6z m-926 -12 c-3 -8 -5 -19 -5 -24 0 -5 -5 -9 -11 -9 -6 0 -8 9 -4 21 5 16 4 19 -5 14 -8 -5 -11 -4 -7 2 10 15 39 12 32 -4z m949 -107 c-3 -15 -8 -25 -11 -23 -2 3 -1 17 3 31 3 15 8 25 11 23 2 -3 1 -17 -3 -31z m-1012 -53 c-10 -30 -22 -9 -21 35 l0 47 13 -35 c7 -19 10 -41 8 -47z m1033 -11 c-14 -14 -22 23 -11 52 l11 31 3 -39 c2 -21 1 -41 -3 -44z"/>
 <path d="M978 1369 c-30 -17 -20 -25 24 -21 38 4 40 6 23 18 -22 16 -25 17 -47 3z"/>
 <path d="M1082 1329 c-31 -12 -152 -16 -177 -6 -16 7 -16 5 4 -13 22 -19 32 -20 90 -14 62 6 131 26 131 38 0 8 -21 6 -48 -5z"/>
 <path d="M968 1167 c-34 -27 -34 -28 -5 -72 28 -44 34 -44 29 0 -4 33 -3 35 27 35 37 0 39 9 8 38 -28 27 -26 27 -59 -1z"/>
 <path d="M765 953 c-50 -7 -94 -32 -101 -58 -9 -37 23 -74 66 -75 59 -1 67 -16 11 -23 -66 -8 -131 -28 -131 -40 0 -11 252 -3 283 9 11 4 17 15 15 28 -1 11 6 33 16 48 24 37 14 73 -27 98 -30 19 -64 22 -132 13z m-26 -34 c-6 -12 -9 -30 -6 -40 6 -21 -17 -26 -43 -9 -19 12 -4 39 31 57 31 17 32 16 18 -8z m141 1 c0 -5 -8 -16 -17 -26 -14 -13 -18 -14 -21 -3 -3 8 -8 21 -13 30 -6 13 -3 15 22 11 16 -2 29 -8 29 -12z"/>
 <path d="M1092 935 c-37 -31 -43 -72 -13 -99 11 -10 16 -25 14 -40 -4 -18 1 -25 19 -30 42 -12 278 -20 278 -9 0 12 -65 32 -131 40 -55 6 -49 23 9 23 47 0 79 32 66 67 -15 43 -51 62 -134 69 -72 6 -77 5 -108 -21z m77 -25 c-12 -33 -19 -36 -37 -18 -20 20 -14 36 16 41 15 2 28 5 29 6 1 0 -3 -12 -8 -29z m145 -16 c7 -19 -9 -34 -35 -34 -12 0 -15 7 -11 25 2 14 -2 33 -9 42 -13 15 -12 15 17 0 17 -9 35 -24 38 -33z"/>
 </g>
<g id="layer106" fill="#d9b2a6" stroke="none">
 <path d="M130 1990 c0 -32 26 -122 47 -160 30 -56 76 -82 193 -109 136 -31 323 -98 343 -123 24 -28 32 -15 41 64 4 33 19 99 33 146 14 48 29 101 33 117 4 17 10 40 14 53 l7 22 -355 0 c-219 0 -356 -4 -356 -10z"/>
 <path d="M931 1958 c4 -24 12 -55 18 -70 9 -25 7 -30 -14 -44 -14 -9 -25 -21 -25 -26 0 -14 75 -88 89 -88 6 0 30 19 53 42 l41 41 -27 24 c-26 22 -28 28 -21 71 3 26 9 57 12 70 5 21 3 22 -65 22 l-69 0 8 -42z"/>
 <path d="M1166 1973 c4 -16 20 -71 36 -123 16 -52 33 -127 38 -165 9 -71 18 -105 27 -105 3 0 12 9 21 20 19 23 213 91 342 121 117 27 163 53 193 109 21 38 47 128 47 160 0 6 -137 10 -355 10 l-355 0 6 -27z"/>
 <path d="M905 1616 c-22 -7 -59 -25 -81 -40 -35 -22 -42 -34 -47 -68 -5 -34 -16 -51 -76 -107 -61 -58 -72 -73 -86 -126 -9 -33 -18 -66 -20 -72 -3 -7 -13 -13 -22 -13 -34 0 -60 -29 -72 -77 -7 -26 -27 -73 -46 -103 -56 -92 -59 -168 -8 -189 27 -11 28 -13 25 -82 -6 -125 40 -291 101 -359 42 -47 186 -148 244 -171 87 -33 239 -38 331 -10 129 39 281 161 326 261 34 75 58 202 55 289 -2 57 0 65 19 72 51 19 51 86 -1 178 -17 30 -40 82 -51 115 -18 54 -25 62 -56 72 -19 6 -35 15 -36 20 -31 121 -35 128 -106 196 -66 63 -71 70 -76 117 -2 28 -8 48 -13 45 -5 -2 -25 6 -46 20 -67 44 -177 58 -258 32z m201 -101 c50 -21 209 -149 233 -188 26 -44 104 -346 92 -361 -5 -7 -1 -46 12 -104 l21 -92 -23 -138 c-25 -145 -57 -249 -87 -284 -42 -47 -139 -109 -201 -128 -88 -27 -218 -27 -307 0 -78 24 -177 96 -218 156 -27 40 -48 126 -79 317 -12 71 -11 86 9 174 14 64 18 99 12 103 -14 8 65 313 91 357 23 37 181 166 230 188 45 19 170 19 215 0z m-520 -365 c-3 -11 -9 -29 -12 -40 -3 -11 -12 -20 -19 -20 -8 0 -17 -5 -21 -12 -4 -6 -3 -8 3 -5 6 4 13 1 16 -6 7 -19 -4 -67 -15 -67 -6 0 -7 -7 -4 -16 3 -9 2 -12 -5 -8 -6 3 -8 15 -6 26 7 26 -2 50 -16 41 -6 -4 -1 10 11 31 12 20 18 34 12 31 -15 -10 -12 18 6 43 20 29 58 30 50 2z m872 8 c5 -7 13 -24 17 -37 5 -18 4 -22 -6 -15 -7 4 -3 -8 9 -28 12 -19 22 -39 22 -44 0 -5 -4 -3 -9 5 -18 28 -37 21 -33 -13 3 -17 2 -29 -1 -26 -4 4 -8 23 -11 43 -3 27 -1 35 7 31 7 -4 2 3 -10 15 -13 12 -23 28 -23 36 0 7 -3 20 -6 29 -8 20 28 22 44 4z m11 -182 c-9 -8 -10 -7 -5 7 3 10 7 31 8 45 1 22 2 21 5 -7 3 -19 -1 -38 -8 -45z m-961 -56 c0 -8 -6 -1 -14 15 l-15 30 7 -30 c8 -35 8 -41 0 -74 -7 -30 -9 -32 -26 -21 -13 8 -13 10 1 10 12 0 14 8 11 30 -2 17 -1 51 3 78 l8 47 13 -35 c7 -19 12 -42 12 -50z m1013 31 c7 9 9 -5 7 -44 -2 -45 0 -57 12 -57 13 0 13 -1 0 -10 -16 -10 -21 -8 -24 12 -1 7 -5 19 -9 26 -5 7 -5 22 -2 35 5 17 4 19 -4 7 -12 -17 -14 -6 -4 30 6 21 8 22 11 6 3 -15 6 -16 13 -5z"/>
 <path d="M1095 1331 c-40 -17 -165 -24 -180 -11 -10 8 -15 9 -15 2 0 -6 9 -16 20 -22 32 -17 180 6 195 31 7 10 7 10 -20 0z"/>
 <path d="M968 1165 c-16 -13 -28 -27 -28 -30 0 -3 11 -23 25 -43 l25 -37 0 43 c0 41 1 42 32 42 l31 0 -23 25 c-28 30 -28 30 -62 0z"/>
 <path d="M698 933 c-16 -8 -31 -25 -34 -39 -10 -40 23 -66 92 -72 32 -3 54 -1 51 4 -3 5 5 9 16 10 42 2 68 11 89 29 l22 18 -24 19 c-23 18 -23 18 -43 -3 -16 -17 -22 -19 -25 -8 -3 8 -8 21 -13 30 -7 13 -3 15 19 13 l27 -4 -25 9 c-38 14 -122 11 -152 -6z m41 -14 c-6 -12 -9 -30 -6 -40 6 -21 -17 -26 -43 -9 -19 12 -4 39 31 57 31 17 32 16 18 -8z"/>
 <path d="M1145 939 c-17 -8 -17 -9 6 -6 25 4 26 2 17 -25 -12 -33 -22 -35 -41 -8 -20 28 -49 16 -45 -18 3 -22 12 -29 63 -44 94 -29 195 -12 195 33 0 11 -13 34 -29 50 -26 26 -36 29 -88 28 -32 0 -67 -5 -78 -10z m169 -45 c7 -19 -9 -34 -35 -34 -12 0 -15 7 -11 25 2 14 -2 33 -9 42 -13 15 -12 15 17 0 17 -9 35 -24 38 -33z"/>
 <path d="M820 809 c-131 -21 -180 -32 -197 -46 -16 -13 -3 -14 112 -9 149 6 175 11 175 36 0 14 -24 35 -33 29 -1 -1 -27 -5 -57 -10z"/>
 <path d="M1103 813 c-21 -8 -15 -40 10 -47 12 -4 80 -9 151 -13 95 -4 127 -3 122 5 -9 14 -60 28 -156 42 -41 6 -84 12 -95 14 -11 2 -26 2 -32 -1z"/>
 </g>
<g id="layer107" fill="#daa798" stroke="none">
 <path d="M130 1990 c0 -32 26 -122 47 -160 30 -56 76 -82 193 -109 136 -31 323 -98 343 -123 24 -28 32 -15 41 64 4 33 19 99 33 146 14 48 29 101 33 117 4 17 10 40 14 53 l7 22 -355 0 c-219 0 -356 -4 -356 -10z"/>
 <path d="M931 1958 c4 -24 12 -55 18 -70 9 -25 7 -30 -14 -44 -14 -9 -25 -21 -25 -26 0 -6 18 -28 39 -50 39 -39 40 -39 70 -24 16 9 39 29 50 45 l21 29 -26 21 c-24 19 -26 25 -19 68 3 27 9 58 12 71 5 21 3 22 -65 22 l-69 0 8 -42z"/>
 <path d="M1166 1973 c4 -16 20 -71 36 -123 16 -52 33 -127 38 -165 9 -71 18 -105 27 -105 3 0 12 9 21 20 19 23 213 91 342 121 117 27 163 53 193 109 21 38 47 128 47 160 0 6 -137 10 -355 10 l-355 0 6 -27z"/>
 <path d="M922 1619 c-38 -7 -61 -18 -120 -57 -8 -5 -18 -29 -23 -53 -8 -35 -23 -56 -79 -109 -60 -57 -71 -72 -85 -125 -9 -33 -18 -66 -20 -72 -3 -7 -13 -13 -22 -13 -34 0 -60 -29 -72 -77 -7 -26 -27 -73 -46 -103 -36 -60 -51 -115 -41 -156 5 -20 10 -24 19 -15 6 6 19 11 29 11 14 0 16 4 9 23 -6 14 -4 46 3 83 11 54 13 56 19 29 4 -16 10 -41 13 -54 6 -19 4 -22 -6 -16 -10 6 -12 4 -7 -9 4 -10 4 -23 0 -29 -7 -12 -9 -17 -12 -36 0 -5 -10 -7 -21 -4 -25 7 -27 -13 -2 -21 14 -5 17 -16 14 -76 -6 -127 41 -293 101 -360 31 -34 103 -90 116 -90 6 0 11 -4 11 -10 0 -30 188 -104 250 -98 41 4 27 11 -55 27 -142 26 -258 118 -300 236 -11 32 -55 287 -55 323 0 19 9 70 21 114 14 57 17 83 9 88 -12 7 59 300 85 351 19 36 148 144 216 182 43 23 63 27 129 27 66 0 86 -4 129 -27 68 -38 197 -146 216 -182 26 -51 97 -342 86 -355 -7 -8 -3 -39 11 -91 24 -93 21 -138 -16 -325 -30 -150 -42 -175 -107 -234 -62 -56 -136 -93 -214 -107 -82 -16 -96 -23 -55 -27 62 -6 250 68 250 98 0 6 6 10 13 10 6 0 39 25 73 54 44 40 68 71 88 116 34 75 58 202 55 289 -2 57 0 65 19 72 51 19 51 86 -1 178 -17 30 -40 82 -51 115 -18 54 -25 62 -56 72 -19 6 -35 15 -36 20 -31 121 -35 128 -106 196 -66 63 -71 70 -76 117 -2 28 -8 48 -13 45 -5 -2 -25 7 -46 20 -60 40 -151 53 -241 35z m-336 -466 c-3 -10 -15 -55 -27 -100 -24 -90 -39 -106 -39 -42 0 29 -3 38 -12 33 -7 -4 -2 9 10 30 12 20 18 34 12 31 -15 -10 -12 18 6 43 19 27 58 31 50 5z m872 5 c16 -21 26 -62 13 -53 -7 3 -3 -8 9 -27 22 -36 28 -62 7 -34 -11 15 -12 12 -9 -22 2 -25 -1 -43 -9 -47 -9 -6 -11 -3 -6 8 3 9 2 17 -2 19 -4 2 -11 16 -15 31 -5 22 -4 27 6 21 10 -6 9 -3 -1 9 -7 9 -10 17 -7 17 4 0 0 7 -8 16 -9 8 -16 21 -16 29 0 7 -3 20 -6 29 -8 20 28 22 44 4z m56 -195 c-4 -22 -3 -25 6 -13 8 12 10 2 8 -43 -2 -45 0 -57 12 -57 13 0 13 -1 0 -10 -16 -10 -21 -8 -24 12 -1 7 -5 19 -9 26 -5 7 -5 22 -2 35 5 17 4 19 -4 7 -9 -13 -11 -13 -11 2 0 20 17 68 25 68 3 0 3 -12 -1 -27z"/>
 <path d="M1095 1331 c-40 -17 -165 -24 -180 -11 -10 8 -15 9 -15 2 0 -6 9 -16 20 -22 32 -17 180 6 195 31 7 10 7 10 -20 0z"/>
 <path d="M968 1165 c-34 -29 -34 -32 -3 -70 l24 -30 1 38 c0 35 2 37 32 37 l31 0 -23 25 c-28 30 -28 30 -62 0z"/>
 <path d="M693 924 c-60 -47 -32 -91 63 -101 39 -4 55 -3 51 5 -5 6 1 8 15 4 16 -4 19 -2 13 8 -5 9 -4 11 3 6 6 -4 22 0 35 9 13 8 27 12 30 8 13 -12 7 22 -7 39 -12 16 -14 15 -31 -5 -15 -17 -19 -18 -23 -7 -3 8 -8 22 -13 31 -7 13 -3 15 19 13 l27 -4 -25 9 c-14 5 -47 9 -75 10 -39 1 -57 -5 -82 -25z m46 -5 c-6 -12 -9 -30 -6 -40 6 -21 -17 -26 -43 -9 -19 12 -4 39 31 57 31 17 32 16 18 -8z"/>
 <path d="M1150 939 l-25 -9 26 4 c25 3 26 1 17 -26 -12 -34 -22 -35 -42 -6 -16 22 -16 22 -30 3 -19 -26 -9 -37 56 -65 89 -38 201 -8 183 49 -15 49 -114 75 -185 50z m144 -24 c30 -28 33 -40 10 -49 -31 -12 -41 -7 -36 19 2 14 -1 32 -8 40 -20 24 5 17 34 -10z"/>
 <path d="M798 804 c-101 -13 -178 -34 -178 -48 0 -12 244 0 270 14 22 12 26 36 8 42 -7 3 -52 -1 -100 -8z"/>
 <path d="M1102 812 c-19 -6 -14 -30 8 -42 26 -14 270 -26 270 -14 0 5 -20 16 -45 23 -53 16 -216 39 -233 33z"/>
 </g>
<g id="layer108" fill="#d59b8a" stroke="none">
 <path d="M130 1990 c0 -32 26 -122 47 -160 30 -56 76 -82 193 -109 136 -31 323 -98 343 -123 24 -28 32 -15 41 64 4 33 19 99 33 146 14 48 29 101 33 117 4 17 10 40 14 53 l7 22 -355 0 c-219 0 -356 -4 -356 -10z"/>
 <path d="M931 1958 c4 -24 12 -55 18 -70 9 -25 7 -30 -14 -44 -14 -9 -25 -21 -25 -26 0 -6 18 -28 39 -50 39 -39 40 -39 70 -24 16 9 39 29 50 45 l21 29 -26 21 c-24 19 -26 25 -19 68 3 27 9 58 12 71 5 21 3 22 -65 22 l-69 0 8 -42z"/>
 <path d="M1166 1973 c4 -16 20 -71 36 -123 16 -52 33 -127 38 -165 9 -71 18 -105 27 -105 3 0 12 9 21 20 19 23 213 91 342 121 117 27 163 53 193 109 21 38 47 128 47 160 0 6 -137 10 -355 10 l-355 0 6 -27z"/>
 <path d="M812 1562 c-26 -20 -49 -89 -34 -104 6 -6 26 3 56 26 49 37 92 50 166 50 74 0 117 -13 166 -50 25 -20 50 -32 54 -27 5 4 5 33 1 63 -5 30 -9 49 -10 41 -1 -11 -6 -10 -26 3 -37 25 -340 23 -373 -2z"/>
 <path d="M697 1397 c-57 -54 -68 -70 -82 -122 -9 -33 -18 -66 -20 -72 -3 -7 -13 -13 -22 -13 -34 0 -60 -29 -72 -77 -7 -26 -27 -73 -46 -103 -36 -59 -51 -115 -41 -154 5 -22 8 -23 31 -13 26 13 32 31 15 42 -7 4 -8 11 -1 18 5 7 12 35 16 62 4 28 11 55 15 60 5 6 13 30 20 55 15 59 36 90 60 90 11 0 20 -2 20 -5 0 -22 -54 -195 -61 -195 -5 0 -9 19 -9 43 l-1 42 -16 -29 c-12 -24 -13 -36 -4 -67 10 -31 9 -48 -5 -89 -12 -36 -20 -48 -27 -41 -13 13 -27 14 -27 2 0 -5 8 -12 18 -15 14 -5 17 -16 14 -76 -6 -127 41 -293 101 -360 31 -34 103 -90 116 -90 6 0 11 -4 11 -10 0 -15 85 -61 151 -81 68 -21 124 -25 114 -8 -4 6 -19 9 -33 8 -15 -1 -34 1 -42 4 -8 3 -32 11 -52 17 -52 16 -146 79 -189 127 -38 42 -59 99 -79 213 -6 36 -16 84 -21 107 -13 61 -11 156 5 205 23 72 27 96 14 100 -7 3 3 57 32 173 l43 170 69 67 c38 36 65 69 60 72 -5 3 -39 -22 -75 -57z"/>
 <path d="M1227 1454 c-4 -4 24 -37 62 -73 l68 -66 43 -168 c31 -123 39 -171 31 -180 -8 -10 -5 -32 9 -83 22 -75 25 -151 11 -217 -5 -23 -15 -71 -21 -107 -20 -114 -41 -171 -79 -213 -43 -48 -137 -111 -189 -127 -20 -6 -44 -14 -52 -17 -8 -3 -27 -5 -42 -4 -14 1 -29 -2 -33 -8 -10 -17 46 -13 114 8 66 20 151 66 151 81 0 6 6 10 13 10 6 0 39 25 73 54 72 65 109 137 130 259 19 105 16 197 -9 270 -15 45 -17 63 -8 87 7 20 7 39 1 56 -15 39 -12 42 9 9 13 -22 18 -48 17 -102 -1 -69 0 -72 24 -76 32 -6 42 9 35 53 -9 57 -26 92 -42 86 -8 -4 -11 -1 -7 5 3 6 -3 32 -14 58 -11 25 -26 64 -34 86 -11 31 -21 42 -48 51 -30 10 -35 17 -51 74 -9 34 -25 74 -36 88 -27 36 -119 113 -126 106z m240 -310 c12 -19 17 -45 16 -92 -3 -99 -17 -95 -47 12 -14 53 -26 98 -26 101 0 17 42 1 57 -21z"/>
 <path d="M900 1323 c0 -31 126 -33 190 -4 l25 12 -25 -6 c-61 -15 -160 -17 -175 -5 -8 7 -15 8 -15 3z"/>
 <path d="M971 1164 c-17 -14 -31 -29 -31 -32 1 -4 12 -20 26 -37 l26 -30 -5 35 c-3 20 2 47 9 63 18 34 14 34 -25 1z"/>
 <path d="M693 924 c-18 -14 -33 -33 -33 -43 0 -48 83 -67 156 -36 20 8 41 12 47 8 5 -3 7 -1 4 4 -4 6 0 16 8 23 8 7 15 19 15 28 0 12 -5 10 -22 -8 -17 -18 -23 -20 -26 -9 -3 8 -9 21 -13 31 -7 13 -4 15 14 12 21 -4 21 -4 2 5 -11 5 -42 10 -70 10 -39 1 -57 -5 -82 -25z m46 -5 c-6 -12 -9 -30 -6 -40 6 -21 -17 -26 -43 -9 -19 12 -4 39 31 57 31 17 32 16 18 -8z"/>
 <path d="M1155 939 c-19 -9 -19 -9 2 -5 19 3 20 1 11 -25 -12 -35 -22 -36 -42 -7 -9 12 -18 19 -21 16 -8 -7 30 -70 41 -69 5 1 24 -4 43 -10 41 -14 118 -6 138 14 53 53 -91 125 -172 86z m139 -24 c30 -28 33 -40 10 -49 -31 -12 -41 -7 -36 19 2 14 -1 32 -8 40 -20 24 5 17 34 -10z"/>
 <path d="M875 815 c-5 -2 -50 -9 -100 -16 -49 -7 -103 -18 -120 -25 -27 -12 -16 -13 93 -14 123 0 162 8 162 34 0 14 -18 25 -35 21z"/>
 <path d="M1103 813 c-19 -7 -15 -31 6 -43 11 -5 75 -10 143 -10 109 1 120 2 93 14 -16 7 -70 18 -120 25 -49 7 -94 14 -100 16 -5 1 -16 0 -22 -2z"/>
 </g>
<g id="layer109" fill="#ac9c96" stroke="none">
 <path d="M130 1990 c0 -32 26 -122 47 -160 30 -56 76 -82 193 -109 136 -31 323 -98 343 -123 24 -28 32 -15 41 64 4 33 19 99 33 146 14 48 29 101 33 117 4 17 10 40 14 53 l7 22 -355 0 c-219 0 -356 -4 -356 -10z"/>
 <path d="M931 1958 c4 -24 12 -55 18 -70 9 -25 7 -30 -14 -44 -14 -9 -25 -21 -25 -26 0 -6 18 -28 39 -50 39 -39 40 -39 70 -24 16 9 39 29 50 45 l21 29 -26 21 c-24 19 -26 25 -19 68 3 27 9 58 12 71 5 21 3 22 -65 22 l-69 0 8 -42z"/>
 <path d="M1166 1973 c4 -16 20 -71 36 -123 16 -52 33 -127 38 -165 9 -71 18 -105 27 -105 3 0 12 9 21 20 19 23 213 91 342 121 117 27 163 53 193 109 21 38 47 128 47 160 0 6 -137 10 -355 10 l-355 0 6 -27z"/>
 <path d="M885 1535 c-22 -8 -50 -15 -62 -15 -15 0 -23 -6 -24 -17 0 -16 -1 -15 -8 2 -7 17 -9 16 -15 -10 -4 -17 -27 -48 -54 -72 -26 -23 -44 -45 -40 -49 8 -8 94 66 90 78 -1 5 5 8 14 8 8 0 32 13 52 29 20 16 60 36 87 44 33 10 42 15 25 16 -14 0 -43 -6 -65 -14z"/>
 <path d="M1075 1533 c28 -8 67 -28 87 -44 20 -16 44 -29 53 -29 9 0 14 -4 10 -9 -5 -10 13 -26 21 -19 8 8 -27 68 -37 63 -5 -4 -9 1 -9 9 0 10 -9 16 -22 16 -13 0 -41 7 -63 15 -22 8 -51 14 -65 14 -17 -1 -8 -6 25 -16z"/>
 <path d="M1260 1423 c0 -12 100 -107 106 -101 2 3 -12 24 -33 48 -38 42 -73 67 -73 53z"/>
 <path d="M640 1340 c-6 -11 -7 -20 -2 -20 10 0 32 21 32 32 0 16 -19 8 -30 -12z"/>
 <path d="M608 1254 c-12 -51 -17 -58 -48 -68 -35 -11 -66 -54 -57 -79 3 -7 9 0 15 14 13 32 53 62 65 50 5 -5 3 -28 -3 -52 -41 -157 -54 -180 -67 -117 -6 30 -7 30 -15 9 -5 -15 -3 -32 5 -50 11 -22 10 -34 -7 -84 -13 -40 -22 -55 -30 -47 -13 13 -26 13 -26 1 0 -5 8 -12 18 -15 14 -5 17 -16 14 -76 -6 -127 41 -293 101 -360 33 -36 104 -90 118 -90 6 0 -8 21 -33 47 -50 54 -69 104 -94 244 -32 185 -31 223 12 372 3 11 0 17 -9 17 -12 0 -9 24 19 127 18 70 31 129 29 131 -3 3 -1 10 4 16 13 17 22 66 12 66 -5 0 -15 -25 -23 -56z"/>
 <path d="M1366 1283 c4 -16 11 -33 15 -39 5 -6 6 -14 2 -17 -3 -4 -1 -13 5 -20 7 -8 10 -16 7 -18 -2 -3 9 -53 24 -112 16 -59 25 -107 20 -107 -14 0 -11 -46 7 -107 18 -63 16 -134 -10 -282 -25 -139 -44 -190 -94 -243 -61 -65 -31 -61 44 6 72 65 109 137 130 259 18 103 16 193 -7 264 -13 37 -17 70 -13 107 3 34 1 56 -5 61 -7 4 -11 -7 -11 -29 0 -20 -4 -36 -9 -36 -14 0 -66 184 -56 200 11 18 46 -10 62 -48 9 -20 18 -32 20 -25 2 6 -3 27 -11 47 -11 26 -23 37 -47 44 -30 7 -35 13 -47 65 -8 31 -18 57 -23 57 -5 0 -6 -12 -3 -27z"/>
 <path d="M962 1157 l-21 -22 22 -35 c17 -27 23 -31 25 -17 2 10 -1 23 -6 30 -7 8 -6 18 4 31 29 40 10 50 -24 13z"/>
 <path d="M480 1050 c-7 -22 -17 -40 -22 -40 -4 0 -8 -7 -8 -16 0 -8 5 -12 11 -8 7 4 7 -2 -1 -17 -18 -34 -24 -38 -16 -11 4 13 3 22 -3 22 -12 0 -31 -63 -31 -101 0 -22 4 -26 31 -27 24 -1 29 2 20 11 -6 6 -11 19 -11 29 0 10 -4 17 -9 16 -5 -2 -8 1 -7 7 0 5 6 9 12 7 13 -3 37 55 29 69 -3 4 4 23 15 41 21 35 26 58 12 58 -5 0 -15 -18 -22 -40z"/>
 <path d="M1490 1073 c0 -5 7 -21 16 -38 9 -16 18 -48 20 -70 7 -59 12 -69 28 -56 7 6 16 8 19 4 10 -10 8 30 -2 46 -5 7 -13 11 -19 7 -6 -4 -10 2 -9 13 1 23 -33 101 -45 101 -4 0 -8 -3 -8 -7z"/>
 <path d="M693 924 c-37 -29 -42 -53 -15 -77 47 -43 212 6 212 61 0 12 -6 10 -22 -8 -17 -18 -23 -20 -26 -9 -3 8 -9 21 -13 31 -7 13 -4 15 14 12 21 -4 21 -4 2 5 -11 5 -42 10 -70 10 -39 1 -57 -5 -82 -25z m46 -5 c-6 -12 -9 -30 -6 -40 6 -21 -17 -26 -43 -9 -19 12 -4 39 31 57 31 17 32 16 18 -8z"/>
 <path d="M1155 939 c-19 -9 -19 -9 2 -5 19 3 20 1 11 -25 -12 -34 -22 -36 -41 -8 -8 11 -18 16 -21 11 -9 -15 41 -60 81 -73 43 -14 120 -7 140 14 53 53 -91 125 -172 86z m139 -24 c30 -28 33 -40 10 -49 -31 -12 -41 -7 -36 19 2 14 -1 32 -8 40 -20 24 5 17 34 -10z"/>
 <path d="M1540 886 c-12 -12 -13 -36 -2 -36 4 0 14 6 21 13 10 10 11 9 6 -5 -4 -10 -3 -18 3 -18 11 0 22 23 22 45 0 15 -35 16 -50 1z"/>
 <path d="M775 799 c-33 -5 -80 -15 -105 -23 -44 -14 -44 -14 70 -14 127 0 165 7 165 28 0 18 -46 21 -130 9z"/>
 <path d="M1094 799 c-15 -25 20 -34 149 -37 73 -2 129 -1 126 3 -10 10 -189 45 -231 45 -20 0 -40 -5 -44 -11z"/>
 <path d="M710 271 c0 -6 5 -11 11 -11 6 0 17 -6 25 -14 18 -18 123 -58 138 -53 6 3 2 8 -9 12 -16 6 -120 54 -157 73 -5 2 -8 -1 -8 -7z"/>
 <path d="M1214 245 c-33 -17 -71 -35 -85 -39 -13 -4 -19 -9 -13 -12 15 -6 120 33 138 52 8 8 19 14 25 14 6 0 11 5 11 10 0 14 -6 12 -76 -25z"/>
 <path d="M905 190 c-4 -6 9 -10 32 -9 30 0 34 2 18 9 -27 12 -43 12 -50 0z"/>
 <path d="M1045 190 c-16 -7 -12 -9 18 -9 23 -1 36 3 32 9 -7 12 -23 12 -50 0z"/>
 </g>
<g id="layer110" fill="#cc8a76" stroke="none">
 <path d="M130 1990 c0 -32 26 -122 47 -160 30 -56 76 -82 193 -109 136 -31 323 -98 343 -123 24 -29 33 -15 42 71 4 36 18 100 30 141 13 41 30 101 38 133 l15 57 -354 0 c-217 0 -354 -4 -354 -10z"/>
 <path d="M930 1977 c0 -13 6 -45 14 -70 14 -46 14 -47 -13 -66 l-26 -20 40 -40 c21 -23 46 -41 55 -41 18 0 80 60 80 77 0 7 -10 19 -21 27 -19 13 -21 21 -15 63 4 26 10 58 13 71 5 21 3 22 -61 22 -63 0 -66 -1 -66 -23z"/>
 <path d="M1171 1961 c5 -21 20 -74 33 -117 14 -44 32 -119 39 -167 8 -48 17 -90 20 -94 4 -3 14 4 24 16 20 24 209 91 343 122 117 27 163 53 193 109 21 38 47 128 47 160 0 6 -137 10 -354 10 l-354 0 9 -39z"/>
 <path d="M885 1535 c-22 -8 -50 -15 -62 -15 -15 0 -23 -6 -24 -17 0 -16 -1 -15 -8 2 -7 17 -9 16 -15 -10 -4 -17 -27 -48 -54 -72 -26 -23 -44 -45 -40 -49 8 -8 94 66 90 78 -1 5 5 8 14 8 8 0 32 13 52 29 20 16 60 36 87 44 33 10 42 15 25 16 -14 0 -43 -6 -65 -14z"/>
 <path d="M1075 1533 c28 -8 67 -28 87 -44 20 -16 44 -29 53 -29 9 0 14 -4 10 -9 -5 -10 13 -26 21 -19 8 8 -27 68 -37 63 -5 -4 -9 1 -9 9 0 10 -9 16 -22 16 -13 0 -41 7 -63 15 -22 8 -51 14 -65 14 -17 -1 -8 -6 25 -16z"/>
 <path d="M1260 1423 c0 -12 100 -107 106 -101 2 3 -12 24 -33 48 -38 42 -73 67 -73 53z"/>
 <path d="M640 1340 c-6 -11 -7 -20 -2 -20 10 0 32 21 32 32 0 16 -19 8 -30 -12z"/>
 <path d="M608 1254 c-12 -51 -17 -58 -48 -68 -35 -11 -66 -54 -57 -79 3 -7 9 0 15 14 13 32 53 62 65 50 5 -5 3 -28 -3 -52 -41 -157 -54 -180 -67 -117 -6 30 -7 30 -15 9 -5 -15 -3 -32 5 -50 11 -22 10 -34 -7 -84 -13 -40 -22 -55 -30 -47 -13 13 -26 13 -26 1 0 -5 8 -12 18 -15 14 -5 17 -16 14 -76 -6 -127 41 -293 101 -360 33 -36 104 -90 118 -90 7 0 -6 19 -28 42 -55 56 -70 95 -99 252 -28 149 -30 223 -9 292 17 56 19 94 6 94 -5 0 6 57 25 127 18 70 31 129 29 131 -3 3 -1 10 4 16 13 17 22 66 12 66 -5 0 -15 -25 -23 -56z"/>
 <path d="M1366 1283 c4 -16 11 -33 15 -39 5 -6 6 -14 2 -17 -3 -4 -1 -13 5 -20 7 -8 10 -16 7 -18 -2 -3 9 -53 24 -112 20 -73 26 -107 18 -110 -9 -3 -8 -19 2 -63 24 -105 24 -172 1 -299 -30 -168 -45 -211 -98 -267 -61 -65 -31 -61 44 6 72 65 109 137 130 259 18 103 16 193 -7 264 -13 37 -17 70 -13 107 3 34 1 56 -5 61 -7 4 -11 -7 -11 -29 0 -20 -4 -36 -9 -36 -14 0 -66 184 -56 200 11 18 46 -10 62 -48 9 -20 18 -32 20 -25 2 6 -3 27 -11 47 -11 26 -23 37 -47 44 -30 7 -35 13 -47 65 -8 31 -18 57 -23 57 -5 0 -6 -12 -3 -27z"/>
 <path d="M962 1157 l-21 -22 22 -35 c17 -27 23 -31 25 -17 2 10 -1 23 -6 30 -7 8 -6 18 4 31 29 40 10 50 -24 13z"/>
 <path d="M480 1050 c-7 -22 -17 -40 -22 -40 -4 0 -8 -7 -8 -16 0 -8 5 -12 11 -8 7 4 7 -2 -1 -17 -18 -34 -24 -38 -16 -11 4 13 3 22 -3 22 -12 0 -31 -63 -31 -101 0 -22 4 -26 31 -27 24 -1 29 2 20 11 -6 6 -11 19 -11 29 0 10 -4 17 -9 16 -5 -2 -8 1 -7 7 0 5 6 9 12 7 13 -3 37 55 29 69 -3 4 4 23 15 41 21 35 26 58 12 58 -5 0 -15 -18 -22 -40z"/>
 <path d="M1490 1073 c0 -5 7 -21 16 -38 9 -16 18 -48 20 -70 7 -59 12 -69 28 -56 7 6 16 8 19 4 10 -10 8 30 -2 46 -5 7 -13 11 -19 7 -6 -4 -10 2 -9 13 1 23 -33 101 -45 101 -4 0 -8 -3 -8 -7z"/>
 <path d="M703 931 c-63 -39 -51 -88 24 -98 62 -8 163 35 163 69 0 6 -9 3 -19 -6 -11 -10 -25 -15 -32 -10 -8 4 -10 3 -5 -4 4 -7 3 -12 -2 -12 -5 0 -12 18 -16 40 -6 38 -8 40 -44 40 -20 0 -51 -9 -69 -19z m67 -4 c0 -5 -9 -11 -20 -14 -23 -6 -26 -33 -7 -52 10 -10 6 -11 -18 -5 -16 4 -33 9 -37 11 -16 8 -7 32 18 52 25 20 64 25 64 8z"/>
 <path d="M1220 940 c0 -5 -11 -12 -25 -16 -24 -6 -29 -14 -26 -41 3 -19 -14 -16 -34 7 -24 26 -39 26 -23 0 30 -49 142 -75 197 -47 37 18 36 34 -2 72 -33 33 -87 49 -87 25z m76 -23 c33 -29 27 -53 -15 -59 -44 -6 -62 9 -34 29 18 12 20 19 12 34 -14 26 4 24 37 -4z"/>
 <path d="M1540 886 c-12 -12 -13 -36 -2 -36 4 0 14 6 21 13 10 10 11 9 6 -5 -4 -10 -3 -18 3 -18 11 0 22 23 22 45 0 15 -35 16 -50 1z"/>
 <path d="M775 799 c-33 -5 -80 -15 -105 -23 -44 -14 -44 -14 70 -14 127 0 165 7 165 28 0 18 -46 21 -130 9z"/>
 <path d="M1095 800 c-15 -25 17 -35 123 -38 150 -5 173 0 87 20 -104 24 -201 33 -210 18z"/>
 <path d="M710 271 c0 -6 5 -11 11 -11 6 0 17 -6 25 -14 18 -18 123 -58 138 -53 6 3 2 8 -9 12 -16 6 -120 54 -157 73 -5 2 -8 -1 -8 -7z"/>
 <path d="M1214 245 c-33 -17 -71 -35 -85 -39 -13 -4 -19 -9 -13 -12 15 -6 120 33 138 52 8 8 19 14 25 14 6 0 11 5 11 10 0 14 -6 12 -76 -25z"/>
 <path d="M905 190 c-4 -6 9 -10 32 -9 30 0 34 2 18 9 -27 12 -43 12 -50 0z"/>
 <path d="M1045 190 c-16 -7 -12 -9 18 -9 23 -1 36 3 32 9 -7 12 -23 12 -50 0z"/>
 </g>
<g id="layer111" fill="#c37b66" stroke="none">
 <path d="M130 1990 c0 -32 26 -122 47 -160 30 -56 76 -82 193 -109 136 -31 323 -98 343 -123 24 -29 33 -15 42 71 4 36 18 100 30 141 13 41 30 101 38 133 l15 57 -354 0 c-217 0 -354 -4 -354 -10z"/>
 <path d="M930 1977 c0 -13 6 -45 14 -70 14 -46 14 -47 -13 -66 l-26 -20 40 -40 c21 -23 46 -41 55 -41 18 0 80 60 80 77 0 7 -10 19 -21 27 -19 13 -21 21 -15 63 4 26 10 58 13 71 5 21 3 22 -61 22 -63 0 -66 -1 -66 -23z"/>
 <path d="M1171 1961 c5 -21 20 -74 33 -117 14 -44 32 -119 39 -167 8 -48 17 -90 20 -94 4 -3 14 4 24 16 20 24 209 91 343 122 117 27 163 53 193 109 21 38 47 128 47 160 0 6 -137 10 -354 10 l-354 0 9 -39z"/>
 <path d="M897 1535 c-21 -8 -51 -23 -67 -35 -15 -11 -35 -17 -44 -14 -10 4 -16 1 -16 -9 0 -8 -14 -27 -31 -42 -17 -14 -29 -28 -26 -31 8 -8 67 38 61 48 -3 4 0 8 6 8 6 0 30 13 54 29 23 16 64 36 92 44 27 9 40 16 29 16 -11 0 -37 -7 -58 -14z"/>
 <path d="M1075 1533 c28 -8 68 -28 89 -44 22 -16 46 -29 54 -29 7 0 11 -4 7 -9 -5 -10 13 -27 21 -19 9 10 -22 58 -34 53 -8 -3 -27 4 -42 15 -32 23 -104 50 -129 49 -9 0 7 -7 34 -16z"/>
 <path d="M1262 1418 c5 -15 28 -23 28 -10 0 5 -7 13 -16 16 -10 4 -14 1 -12 -6z"/>
 <path d="M640 1340 c-7 -13 -7 -20 -1 -20 6 0 15 9 21 20 7 13 7 20 1 20 -6 0 -15 -9 -21 -20z"/>
 <path d="M1340 1340 c6 -11 15 -20 21 -20 6 0 6 7 -1 20 -6 11 -15 20 -21 20 -6 0 -6 -7 1 -20z"/>
 <path d="M1368 1285 c2 -14 8 -28 13 -31 10 -6 11 2 3 34 -9 30 -22 28 -16 -3z"/>
 <path d="M607 1253 c-5 -26 -4 -26 9 -8 16 22 18 35 5 35 -5 0 -11 -12 -14 -27z"/>
 <path d="M968 1157 l-27 -22 25 -35 c22 -29 25 -31 19 -10 -4 14 -12 27 -16 28 -5 2 0 17 12 33 25 35 22 36 -13 6z"/>
 <path d="M1455 1160 c20 -22 31 -20 22 5 -4 8 -14 15 -23 15 -16 0 -16 -2 1 -20z"/>
 <path d="M506 1134 c-9 -36 1 -43 14 -10 12 33 12 36 1 36 -5 0 -12 -12 -15 -26z"/>
 <path d="M1500 1052 c0 -5 7 -17 15 -28 15 -19 20 -8 9 20 -6 17 -24 22 -24 8z"/>
 <path d="M1483 992 c-3 -15 -13 -22 -29 -22 -29 0 -31 -19 -9 -100 8 -30 15 -78 15 -106 0 -79 -46 -308 -75 -371 -14 -31 -23 -58 -20 -61 3 -3 23 11 44 32 115 112 157 404 80 548 -7 13 -7 30 1 54 7 20 9 38 6 42 -4 3 -9 -4 -13 -16z"/>
 <path d="M500 978 c0 -15 4 -29 9 -33 11 -6 -26 -117 -42 -127 -7 -4 -7 -8 -2 -8 6 0 9 -28 7 -70 -4 -86 20 -212 54 -284 24 -50 87 -126 105 -126 12 0 12 1 -17 64 -29 64 -74 292 -74 376 0 31 7 79 15 106 21 70 20 94 -6 94 -12 0 -28 8 -35 18 -12 15 -13 15 -14 -10z"/>
 <path d="M435 974 c-20 -21 -32 -130 -13 -118 5 3 5 11 1 17 -4 7 0 6 10 -2 15 -12 17 -11 17 8 0 12 -4 20 -9 16 -18 -11 -21 13 -5 50 8 20 18 35 20 32 3 -3 1 -14 -5 -25 -13 -25 -14 -32 -3 -32 5 0 13 15 19 33 8 27 7 34 -4 34 -8 0 -21 -6 -28 -13z"/>
 <path d="M1534 950 c3 -14 6 -28 6 -32 0 -5 5 -8 11 -8 12 0 2 39 -13 55 -7 7 -9 2 -4 -15z"/>
 <path d="M1557 950 c6 -22 23 -38 23 -21 0 17 -12 41 -20 41 -5 0 -6 -9 -3 -20z"/>
 <path d="M703 931 c-63 -39 -51 -88 24 -98 62 -8 163 35 163 69 0 6 -9 3 -19 -6 -11 -10 -25 -15 -32 -10 -8 4 -10 3 -5 -4 4 -7 3 -12 -2 -12 -5 0 -12 18 -16 40 -6 38 -8 40 -44 40 -20 0 -51 -9 -69 -19z m67 -4 c0 -5 -9 -11 -20 -14 -23 -6 -26 -33 -7 -52 10 -10 6 -11 -18 -5 -16 4 -33 9 -37 11 -16 8 -7 32 18 52 25 20 64 25 64 8z"/>
 <path d="M1220 940 c0 -5 -11 -12 -25 -16 -24 -6 -29 -14 -26 -41 3 -19 -10 -16 -36 9 -26 25 -32 8 -6 -18 41 -41 133 -57 182 -31 37 18 36 34 -2 72 -33 33 -87 49 -87 25z m76 -23 c33 -29 27 -53 -15 -59 -44 -6 -62 9 -34 29 18 12 20 19 12 34 -14 26 4 24 37 -4z"/>
 <path d="M775 799 c-33 -5 -80 -15 -105 -23 -44 -14 -44 -14 70 -14 127 0 165 7 165 28 0 18 -46 21 -130 9z"/>
 <path d="M1095 800 c-15 -25 17 -35 123 -38 150 -5 173 0 87 20 -104 24 -201 33 -210 18z"/>
 </g>
<g id="layer112" fill="#685c56" stroke="none">
 <path d="M130 1990 c0 -32 26 -122 47 -160 30 -56 76 -82 193 -109 136 -31 323 -98 343 -123 24 -29 33 -15 42 71 4 36 18 100 30 141 13 41 30 101 38 133 l15 57 -354 0 c-217 0 -354 -4 -354 -10z"/>
 <path d="M930 1977 c0 -13 6 -45 14 -70 14 -46 14 -47 -13 -66 l-26 -20 40 -40 c21 -23 46 -41 55 -41 18 0 80 60 80 77 0 7 -10 19 -21 27 -19 13 -21 21 -15 63 4 26 10 58 13 71 5 21 3 22 -61 22 -63 0 -66 -1 -66 -23z"/>
 <path d="M1171 1961 c5 -21 20 -74 33 -117 14 -44 32 -119 39 -167 8 -48 17 -90 20 -94 4 -3 14 4 24 16 20 24 209 91 343 122 117 27 163 53 193 109 21 38 47 128 47 160 0 6 -137 10 -354 10 l-354 0 9 -39z"/>
 <path d="M531 956 c-6 -7 -22 -42 -34 -78 -57 -157 -14 -405 89 -511 31 -32 54 -46 54 -33 0 2 -12 29 -26 60 -29 64 -74 292 -74 376 0 31 7 79 15 106 8 27 15 59 15 72 0 24 -21 29 -39 8z"/>
 <path d="M1430 948 c0 -13 7 -48 15 -78 8 -30 15 -78 15 -106 0 -79 -46 -308 -75 -371 -14 -31 -23 -58 -20 -61 3 -3 23 11 44 32 50 49 89 136 107 239 24 137 15 225 -37 332 -18 38 -49 46 -49 13z"/>
 <path d="M703 931 c-63 -39 -51 -88 24 -98 62 -8 163 35 163 69 0 6 -9 3 -19 -6 -11 -10 -25 -15 -32 -10 -8 4 -10 3 -5 -4 4 -7 3 -12 -2 -12 -5 0 -12 18 -16 40 -6 38 -8 40 -44 40 -20 0 -51 -9 -69 -19z m67 -4 c0 -5 -9 -11 -20 -14 -23 -6 -26 -33 -7 -52 10 -10 6 -11 -18 -5 -16 4 -33 9 -37 11 -16 8 -7 32 18 52 25 20 64 25 64 8z"/>
 <path d="M1220 940 c0 -5 -11 -12 -25 -16 -24 -6 -29 -14 -26 -41 3 -19 -10 -16 -36 9 -26 25 -32 8 -6 -18 41 -41 133 -57 182 -31 37 18 36 34 -2 72 -33 33 -87 49 -87 25z m76 -23 c33 -29 27 -53 -15 -59 -44 -6 -62 9 -34 29 18 12 20 19 12 34 -14 26 4 24 37 -4z"/>
 <path d="M775 799 c-33 -5 -80 -15 -105 -23 -44 -14 -44 -14 70 -14 127 0 165 7 165 28 0 18 -46 21 -130 9z"/>
 <path d="M1095 800 c-15 -25 17 -35 123 -38 150 -5 173 0 87 20 -104 24 -201 33 -210 18z"/>
 </g>
<g id="layer113" fill="#6b4c3c" stroke="none">
 <path d="M130 1990 c0 -32 26 -122 47 -160 30 -56 76 -82 193 -109 136 -31 323 -98 343 -123 24 -29 33 -15 42 71 4 36 18 100 30 141 13 41 30 101 38 133 l15 57 -354 0 c-217 0 -354 -4 -354 -10z"/>
 <path d="M930 1982 c0 -11 7 -41 15 -68 15 -49 15 -49 -11 -72 l-27 -23 39 -40 c21 -21 45 -39 54 -39 18 0 80 60 80 77 0 6 -11 20 -24 30 -24 18 -24 19 -11 86 l13 67 -64 0 c-55 0 -64 -2 -64 -18z"/>
 <path d="M1171 1961 c5 -21 20 -74 33 -117 14 -44 32 -119 39 -167 8 -48 17 -90 20 -94 4 -3 14 4 24 16 20 24 209 91 343 122 117 27 163 53 193 109 21 38 47 128 47 160 0 6 -137 10 -354 10 l-354 0 9 -39z"/>
 <path d="M531 956 c-6 -7 -22 -42 -34 -78 -57 -157 -14 -405 89 -511 31 -32 54 -46 54 -33 0 2 -12 29 -26 60 -29 64 -74 292 -74 376 0 31 7 79 15 106 8 27 15 59 15 72 0 24 -21 29 -39 8z"/>
 <path d="M1430 948 c0 -13 7 -48 15 -78 8 -30 15 -78 15 -106 0 -79 -46 -308 -75 -371 -14 -31 -23 -58 -20 -61 3 -3 23 11 44 32 50 49 89 136 107 239 24 137 15 225 -37 332 -18 38 -49 46 -49 13z"/>
 <path d="M772 930 c-7 -11 -19 -20 -27 -20 -18 0 -20 -31 -3 -48 15 -15 -9 -16 -46 -2 -33 12 -33 21 2 55 24 25 25 27 4 16 -31 -17 -49 -56 -33 -75 38 -46 201 -13 219 45 3 8 -5 5 -20 -8 -31 -29 -48 -29 -48 0 0 13 -8 31 -18 40 -16 15 -19 15 -30 -3z"/>
 <path d="M1210 932 c-41 -20 -50 -30 -43 -49 8 -20 -14 -16 -37 7 -11 11 -20 16 -20 11 0 -5 13 -20 29 -34 33 -27 109 -41 156 -29 44 12 46 51 5 86 -36 30 -43 31 -90 8z m84 -13 c33 -26 33 -47 0 -59 -57 -22 -89 1 -43 32 20 13 21 15 5 31 -26 25 4 23 38 -4z"/>
 <path d="M775 799 c-33 -5 -80 -15 -105 -23 -44 -14 -44 -14 70 -14 127 0 165 7 165 28 0 18 -46 21 -130 9z"/>
 <path d="M1095 800 c-15 -25 17 -35 123 -38 150 -5 173 0 87 20 -104 24 -201 33 -210 18z"/>
 </g>
<g id="layer114" fill="#634831" stroke="none">
 <path d="M130 1990 c0 -32 26 -122 47 -160 30 -56 76 -82 193 -109 136 -31 323 -98 343 -123 25 -30 31 -17 46 94 6 50 16 99 22 109 5 10 20 59 33 109 l23 90 -353 0 c-217 0 -354 -4 -354 -10z"/>
 <path d="M930 1982 c0 -11 7 -41 15 -68 15 -49 15 -49 -11 -72 l-27 -23 39 -40 c21 -21 45 -39 54 -39 18 0 80 60 80 77 0 6 -11 20 -24 30 -24 18 -24 19 -11 86 l13 67 -64 0 c-55 0 -64 -2 -64 -18z"/>
 <path d="M1171 1960 c5 -22 23 -83 39 -135 17 -52 33 -123 37 -159 7 -83 16 -97 40 -68 20 25 207 92 343 123 117 27 163 53 193 109 21 38 47 128 47 160 0 6 -137 10 -354 10 l-354 0 9 -40z"/>
 <path d="M1431 940 c0 -8 4 -24 9 -35 5 -13 9 -14 9 -5 0 8 -4 24 -9 35 -5 13 -9 14 -9 5z"/>
 <path d="M702 933 c-7 -2 -17 -14 -23 -26 -9 -19 -8 -20 3 -7 8 8 20 21 28 28 15 13 13 14 -8 5z"/>
 <path d="M756 911 c-11 -12 -16 -29 -13 -41 6 -24 -15 -27 -55 -6 -28 15 -39 7 -15 -11 51 -41 198 -8 215 47 3 10 -4 7 -20 -7 -32 -30 -46 -29 -50 5 -4 34 -37 41 -62 13z"/>
 <path d="M1200 915 c0 -8 -7 -15 -15 -15 -8 0 -15 -7 -15 -15 0 -19 -9 -19 -40 1 -19 12 -18 9 6 -14 34 -32 107 -48 159 -34 39 11 46 50 13 78 l-23 19 18 -21 c9 -11 17 -26 17 -33 0 -13 -41 -31 -71 -31 -18 0 -20 4 -14 31 5 22 3 34 -6 40 -20 13 -29 11 -29 -6z"/>
 <path d="M503 893 c-3 -10 -11 -31 -18 -48 -31 -78 -9 -283 41 -389 23 -50 87 -126 105 -126 15 0 -4 33 -42 71 -20 20 -46 61 -58 93 -27 74 -27 77 10 36 25 -29 24 -25 -8 20 l-38 55 0 120 c1 66 6 135 12 153 7 17 10 32 7 32 -2 0 -7 -8 -11 -17z"/>
 <path d="M1497 865 c4 -16 7 -82 7 -145 l1 -115 -38 -55 c-32 -45 -33 -49 -8 -20 37 41 37 38 10 -36 -12 -32 -38 -73 -58 -93 -37 -37 -57 -71 -43 -71 19 0 83 80 107 133 53 115 70 313 34 392 -15 33 -17 35 -12 10z"/>
 <path d="M517 751 c-2 -11 -1 -23 3 -28 5 -4 10 -17 13 -28 3 -11 4 -1 3 22 -2 47 -11 64 -19 34z"/>
 <path d="M1466 762 c-4 -7 -5 -16 -2 -20 2 -4 -4 -48 -15 -97 -21 -93 -21 -153 0 -75 6 25 16 53 22 64 8 13 7 16 -1 11 -12 -8 -4 61 10 80 4 6 4 19 0 29 -4 14 -9 16 -14 8z"/>
 <path d="M541 657 c-1 -10 -6 -15 -12 -12 -7 5 -7 2 0 -11 6 -11 16 -39 23 -64 17 -65 21 -18 4 50 -8 30 -14 47 -15 37z"/>
 </g>
<g id="layer115" fill="#583b2e" stroke="none">
 <path d="M130 1990 c0 -32 26 -122 47 -160 30 -56 76 -82 193 -109 136 -31 323 -98 343 -123 25 -30 31 -17 46 94 6 50 16 99 22 109 5 10 20 59 33 109 l23 90 -353 0 c-217 0 -354 -4 -354 -10z"/>
 <path d="M930 1982 c0 -11 7 -41 15 -68 15 -49 15 -49 -11 -72 l-27 -23 39 -40 c21 -21 45 -39 54 -39 18 0 80 60 80 77 0 6 -11 20 -24 30 -24 18 -24 19 -11 86 l13 67 -64 0 c-55 0 -64 -2 -64 -18z"/>
 <path d="M1180 1932 c9 -37 27 -96 38 -130 12 -34 25 -93 28 -131 8 -88 16 -102 41 -73 20 25 207 92 343 123 117 27 163 53 193 109 21 38 47 128 47 160 0 6 -137 10 -353 10 l-354 0 17 -68z"/>
 <path d="M702 933 c-7 -2 -17 -14 -23 -26 -9 -19 -8 -20 3 -7 8 8 20 21 28 28 15 13 13 14 -8 5z"/>
 <path d="M764 915 c-4 -8 -4 -22 0 -30 3 -8 1 -15 -5 -15 -6 0 -7 -4 -4 -10 9 -15 -36 -12 -67 4 -28 15 -39 7 -15 -11 51 -41 198 -8 215 47 3 10 -3 8 -19 -6 -13 -12 -40 -25 -59 -29 l-35 -7 24 25 c12 14 20 30 16 36 -9 16 -45 13 -51 -4z"/>
 <path d="M1304 913 c10 -12 16 -29 13 -37 -7 -18 -59 -30 -88 -21 -20 7 -20 8 -6 17 19 10 22 33 7 43 -15 9 -40 -13 -34 -29 6 -17 -48 -14 -73 4 -10 7 -4 -1 13 -17 34 -33 106 -49 159 -35 39 11 46 50 13 78 l-23 19 19 -22z"/>
 <path d="M1496 875 c4 -11 9 -67 11 -125 8 -162 -27 -281 -105 -362 -45 -47 -34 -63 12 -19 93 90 148 372 94 486 -10 22 -16 31 -12 20z"/>
 <path d="M484 842 c-30 -78 -7 -282 42 -386 24 -51 77 -116 95 -116 16 0 10 11 -35 61 -68 76 -91 159 -91 332 0 75 0 137 0 137 0 0 -5 -13 -11 -28z"/>
 </g>
<g id="layer116" fill="#653220" stroke="none">
 <path d="M130 1990 c0 -32 26 -122 47 -160 30 -56 76 -82 193 -109 136 -31 323 -98 343 -123 15 -18 20 -20 28 -7 5 7 9 28 10 44 1 56 9 96 44 213 8 28 21 75 29 102 l13 50 -353 0 c-217 0 -354 -4 -354 -10z"/>
 <path d="M930 1982 c0 -11 7 -41 15 -68 15 -49 15 -49 -11 -72 l-27 -23 39 -40 c21 -21 45 -39 54 -39 18 0 80 60 80 77 0 6 -11 20 -24 30 -24 18 -24 19 -11 86 l13 67 -64 0 c-55 0 -64 -2 -64 -18z"/>
 <path d="M1180 1932 c9 -37 27 -96 38 -130 12 -34 25 -93 28 -131 8 -88 16 -102 41 -73 20 25 207 92 343 123 117 27 163 53 193 109 21 38 47 128 47 160 0 6 -137 10 -353 10 l-354 0 17 -68z"/>
 <path d="M767 923 c-11 -10 -8 -41 4 -49 6 -3 20 3 31 14 11 11 17 25 14 31 -8 12 -39 15 -49 4z"/>
 <path d="M1303 914 c9 -11 17 -28 17 -36 0 -29 -98 -39 -124 -12 -10 9 -16 11 -16 4 0 -8 -14 -4 -37 9 l-38 22 31 -29 c34 -32 96 -45 154 -34 44 10 53 48 18 78 l-23 19 18 -21z"/>
 <path d="M1202 907 c-15 -17 0 -39 22 -31 18 7 18 35 0 41 -6 2 -16 -2 -22 -10z"/>
 <path d="M845 875 c-33 -23 -119 -29 -155 -12 -30 15 -41 8 -17 -10 36 -29 145 -19 189 17 27 22 13 26 -17 5z"/>
 <path d="M478 807 c-13 -31 -9 -143 8 -223 17 -84 52 -164 89 -206 33 -38 41 -35 12 5 -66 87 -88 159 -96 317 -3 71 -9 117 -13 107z"/>
 <path d="M1510 728 c0 -147 -31 -259 -97 -347 l-26 -36 27 25 c35 32 72 104 91 178 18 70 27 242 15 262 -6 10 -10 -19 -10 -82z"/>
 </g>
<g id="layer117" fill="#562917" stroke="none">
 <path d="M130 1990 c0 -32 26 -122 47 -160 30 -56 76 -82 193 -109 136 -31 323 -98 343 -123 15 -18 20 -20 28 -7 5 7 9 28 10 44 1 56 9 96 44 213 42 143 43 152 26 152 -23 0 -93 -232 -91 -298 2 -64 -1 -100 -7 -84 -3 7 -39 38 -80 68 l-75 56 37 38 c39 40 39 41 -17 59 l-37 12 25 65 c27 72 29 87 12 82 -6 -2 -22 -34 -34 -70 -21 -62 -21 -68 -6 -81 10 -8 28 -18 41 -22 l23 -7 -32 -33 -32 -33 34 -30 c18 -17 44 -40 58 -52 l25 -21 -25 7 c-14 3 -36 12 -50 19 -30 16 -219 71 -275 81 -22 4 -52 13 -67 21 -34 16 -75 94 -90 169 -6 29 -15 54 -19 54 -5 0 -9 -4 -9 -10z"/>
 <path d="M294 1948 c-9 -29 -27 -69 -39 -88 -35 -56 -36 -60 -30 -60 20 0 106 182 92 196 -3 3 -13 -19 -23 -48z"/>
 <path d="M930 1982 c0 -11 7 -41 15 -68 15 -49 15 -49 -11 -72 l-27 -23 39 -40 c21 -21 45 -39 54 -39 18 0 80 60 80 77 0 6 -11 20 -24 30 -24 18 -24 19 -11 86 l13 67 -64 0 c-55 0 -64 -2 -64 -18z"/>
 <path d="M1180 1932 c9 -37 27 -96 38 -130 12 -34 25 -93 28 -131 8 -88 16 -102 41 -73 20 25 207 92 343 123 154 35 202 78 229 207 13 64 14 72 2 72 -4 0 -13 -25 -19 -54 -15 -75 -56 -153 -90 -169 -15 -8 -45 -17 -67 -21 -56 -10 -245 -65 -275 -81 -14 -7 -36 -16 -50 -19 l-25 -7 25 21 c14 12 40 35 58 52 l34 30 -32 33 -32 33 23 7 c13 4 31 14 41 22 15 13 15 19 -6 81 -12 36 -28 68 -34 70 -17 5 -15 -10 12 -82 l25 -65 -37 -12 c-56 -18 -56 -19 -17 -59 l37 -38 -75 -56 c-41 -30 -77 -61 -80 -68 -6 -14 -6 -8 -10 92 -3 87 -65 290 -87 290 -15 0 -15 -5 0 -68z"/>
 <path d="M1685 1973 c10 -44 50 -126 74 -153 24 -27 20 -15 -14 40 -12 19 -30 59 -39 88 -18 55 -33 72 -21 25z"/>
 <path d="M767 911 c-2 -10 -1 -25 4 -32 7 -11 13 -10 30 7 12 12 18 27 15 33 -11 18 -43 13 -49 -8z"/>
 <path d="M1303 914 c27 -33 22 -52 -18 -60 -19 -3 -45 -4 -58 -1 -12 3 -33 8 -46 11 -13 3 -35 13 -50 21 -23 15 -23 13 5 -13 34 -32 96 -46 154 -34 44 10 53 48 18 78 l-23 19 18 -21z"/>
 <path d="M1203 904 c-8 -20 8 -36 26 -25 15 10 8 41 -9 41 -6 0 -13 -7 -17 -16z"/>
 <path d="M845 875 c-33 -23 -119 -29 -155 -12 -30 15 -41 8 -17 -10 36 -29 145 -19 189 17 27 22 13 26 -17 5z"/>
 <path d="M478 807 c-13 -31 -9 -143 8 -223 17 -84 52 -164 89 -206 33 -38 41 -35 12 5 -66 87 -88 159 -96 317 -3 71 -9 117 -13 107z"/>
 <path d="M1510 728 c0 -147 -31 -259 -97 -347 l-26 -36 27 25 c35 32 72 104 91 178 18 70 27 242 15 262 -6 10 -10 -19 -10 -82z"/>
 </g>
<g id="layer118" fill="#352b26" stroke="none">
 <path d="M130 1990 c0 -32 26 -122 46 -160 29 -53 75 -83 154 -99 30 -6 64 -13 75 -15 69 -14 292 -99 307 -116 9 -11 18 -20 21 -20 5 0 14 42 22 105 4 33 16 83 40 163 37 126 42 152 31 152 -17 0 -86 -258 -86 -323 0 -56 -11 -79 -27 -54 -4 7 -28 27 -53 46 -44 32 -45 32 -10 2 41 -37 37 -38 -39 -7 -70 30 -256 86 -285 86 -11 0 -40 9 -64 20 l-44 20 22 32 22 33 -26 -30 -25 -29 -20 44 c-12 25 -26 71 -33 103 -7 31 -16 57 -20 57 -4 0 -8 -4 -8 -10z"/>
 <path d="M558 1929 c-22 -70 -22 -71 -3 -85 10 -8 24 -14 29 -14 6 0 2 6 -9 12 -11 6 -21 12 -22 13 -2 0 6 23 16 51 29 78 33 94 22 94 -5 0 -20 -32 -33 -71z"/>
 <path d="M930 1982 c0 -11 7 -41 15 -68 15 -49 15 -49 -11 -72 l-27 -23 39 -40 c21 -21 45 -39 54 -39 18 0 80 60 80 77 0 6 -11 20 -24 30 -24 18 -24 19 -11 86 l13 67 -64 0 c-55 0 -64 -2 -64 -18z"/>
 <path d="M1169 1973 c5 -16 14 -48 21 -73 7 -25 21 -70 30 -100 10 -30 23 -91 29 -134 6 -44 13 -82 16 -84 2 -3 12 5 22 17 20 24 209 91 343 122 117 27 163 53 193 109 32 58 57 170 39 170 -4 0 -13 -26 -20 -57 -7 -32 -21 -78 -32 -102 -18 -39 -22 -42 -38 -30 -15 13 -16 12 -3 -3 12 -16 9 -20 -30 -38 -24 -11 -54 -20 -65 -20 -29 0 -215 -56 -285 -86 -76 -31 -80 -30 -39 7 35 30 34 30 -10 -2 -25 -19 -49 -39 -53 -46 -16 -25 -27 -2 -27 54 0 67 -69 323 -87 323 -8 0 -9 -8 -4 -27z"/>
 <path d="M1406 1978 c3 -13 15 -45 25 -72 10 -28 18 -51 16 -51 -1 -1 -11 -7 -22 -13 -11 -6 -15 -12 -9 -12 5 0 19 6 30 14 19 14 19 15 -5 85 -13 39 -28 71 -33 71 -5 0 -6 -10 -2 -22z"/>
 <path d="M1691 1960 c-1 -17 35 -100 43 -100 3 0 -3 19 -13 43 -10 23 -21 49 -24 57 -5 13 -5 13 -6 0z"/>
 <path d="M608 1821 c11 -6 6 -14 -17 -30 -38 -27 -39 -41 -3 -72 l27 -24 -22 25 -21 25 28 34 c29 33 31 51 7 51 -8 0 -8 -3 1 -9z"/>
 <path d="M1376 1822 c-3 -5 8 -24 24 -43 l28 -34 -21 -25 -22 -25 28 24 c35 31 34 45 -4 72 -23 16 -28 24 -17 30 9 6 9 9 1 9 -6 0 -14 -4 -17 -8z"/>
 <path d="M1303 914 c27 -33 22 -52 -18 -60 -45 -8 -101 2 -145 27 l-35 20 31 -29 c34 -32 96 -45 154 -34 44 10 53 48 18 78 l-23 19 18 -21z"/>
 <path d="M776 913 c-12 -12 -6 -33 9 -33 8 0 15 6 15 14 0 17 -14 28 -24 19z"/>
 <path d="M1203 904 c-7 -19 2 -28 22 -21 19 8 19 23 0 31 -9 3 -18 -1 -22 -10z"/>
 <path d="M845 875 c-33 -23 -119 -29 -155 -12 -30 15 -41 8 -17 -10 36 -29 145 -19 189 17 27 22 13 26 -17 5z"/>
 <path d="M476 803 c-4 -9 -2 -21 4 -27 7 -7 10 -2 10 17 0 31 -5 34 -14 10z"/>
 <path d="M1511 791 c-1 -27 2 -32 11 -23 8 8 8 17 0 34 -10 22 -11 21 -11 -11z"/>
 <path d="M477 653 c-3 -5 -1 -17 4 -28 7 -17 8 -17 8 8 1 27 -4 34 -12 20z"/>
 <path d="M480 599 c0 -2 6 -26 14 -54 18 -67 53 -139 78 -162 17 -14 15 -9 -6 24 -15 23 -38 73 -50 112 -19 59 -36 98 -36 80z"/>
 <path d="M1494 544 c-3 -10 -19 -48 -35 -83 -33 -72 -32 -95 1 -30 28 54 52 121 45 127 -2 3 -7 -4 -11 -14z"/>
 </g>
<g id="layer119" fill="#471b0b" stroke="none">
 <path d="M130 1990 c0 -32 26 -122 46 -160 29 -53 75 -83 154 -99 30 -6 64 -13 75 -15 69 -14 292 -99 307 -116 9 -11 18 -20 21 -20 5 0 14 42 22 105 4 33 16 83 40 163 37 126 42 152 31 152 -17 0 -86 -258 -86 -323 0 -56 -11 -79 -27 -54 -4 7 -28 27 -53 46 -44 32 -45 32 -10 2 41 -37 37 -38 -39 -7 -70 30 -256 86 -285 86 -11 0 -40 9 -64 20 l-44 20 22 32 22 33 -26 -30 -25 -29 -20 44 c-12 25 -26 71 -33 103 -7 31 -16 57 -20 57 -4 0 -8 -4 -8 -10z"/>
 <path d="M558 1929 c-22 -70 -22 -71 -3 -85 10 -8 24 -14 29 -14 6 0 2 6 -9 12 -11 6 -21 12 -22 13 -2 0 6 23 16 51 29 78 33 94 22 94 -5 0 -20 -32 -33 -71z"/>
 <path d="M930 1988 c0 -6 7 -38 17 -71 16 -59 16 -59 -7 -77 -19 -14 -21 -20 -11 -38 6 -11 24 -30 41 -42 34 -24 54 -18 89 27 l22 26 -26 27 c-24 25 -25 30 -16 71 20 86 19 89 -49 89 -40 0 -60 -4 -60 -12z"/>
 <path d="M1169 1973 c5 -16 14 -48 21 -73 7 -25 21 -70 30 -100 10 -30 23 -91 29 -134 6 -44 13 -82 16 -84 2 -3 12 5 22 17 20 24 209 91 343 122 117 27 163 53 193 109 32 58 57 170 39 170 -4 0 -13 -26 -20 -57 -7 -32 -21 -78 -32 -102 -18 -39 -22 -42 -38 -30 -15 13 -16 12 -3 -3 12 -16 9 -20 -30 -38 -24 -11 -54 -20 -65 -20 -29 0 -215 -56 -285 -86 -76 -31 -80 -30 -39 7 35 30 34 30 -10 -2 -25 -19 -49 -39 -53 -46 -16 -25 -27 -2 -27 54 0 67 -69 323 -87 323 -8 0 -9 -8 -4 -27z"/>
 <path d="M1406 1978 c3 -13 15 -45 25 -72 10 -28 18 -51 16 -51 -1 -1 -11 -7 -22 -13 -11 -6 -15 -12 -9 -12 5 0 19 6 30 14 19 14 19 15 -5 85 -13 39 -28 71 -33 71 -5 0 -6 -10 -2 -22z"/>
 <path d="M1691 1960 c-1 -17 35 -100 43 -100 3 0 -3 19 -13 43 -10 23 -21 49 -24 57 -5 13 -5 13 -6 0z"/>
 <path d="M608 1821 c11 -6 6 -14 -17 -30 -38 -27 -39 -41 -3 -72 l27 -24 -22 25 -21 25 28 34 c29 33 31 51 7 51 -8 0 -8 -3 1 -9z"/>
 <path d="M1376 1822 c-3 -5 8 -24 24 -43 l28 -34 -21 -25 -22 -25 28 24 c35 31 34 45 -4 72 -23 16 -28 24 -17 30 9 6 9 9 1 9 -6 0 -14 -4 -17 -8z"/>
 <path d="M776 913 c-12 -12 -6 -33 9 -33 8 0 15 6 15 14 0 17 -14 28 -24 19z"/>
 <path d="M1203 904 c-7 -19 2 -28 22 -21 19 8 19 23 0 31 -9 3 -18 -1 -22 -10z"/>
 <path d="M1317 889 c4 -12 0 -25 -8 -30 -24 -15 -102 -9 -149 12 l-45 20 21 -21 c15 -16 38 -23 82 -27 82 -8 112 1 112 32 0 13 -4 26 -9 29 -5 4 -7 -3 -4 -15z"/>
 <path d="M670 860 c11 -20 18 -22 86 -18 54 2 78 8 91 21 17 17 16 17 -19 2 -49 -20 -117 -19 -147 1 -23 16 -23 16 -11 -6z"/>
 <path d="M476 803 c-4 -9 -2 -21 4 -27 7 -7 10 -2 10 17 0 31 -5 34 -14 10z"/>
 <path d="M1511 791 c-1 -27 2 -32 11 -23 8 8 8 17 0 34 -10 22 -11 21 -11 -11z"/>
 <path d="M477 653 c-3 -5 -1 -17 4 -28 7 -17 8 -17 8 8 1 27 -4 34 -12 20z"/>
 <path d="M480 599 c0 -2 6 -26 14 -54 18 -67 53 -139 78 -162 17 -14 15 -9 -6 24 -15 23 -38 73 -50 112 -19 59 -36 98 -36 80z"/>
 <path d="M1494 544 c-3 -10 -19 -48 -35 -83 -33 -72 -32 -95 1 -30 28 54 52 121 45 127 -2 3 -7 -4 -11 -14z"/>
 </g>
<g id="layer120" fill="#391103" stroke="none">
 <path d="M137 1986 c-4 -10 -2 -26 3 -37 6 -11 8 -24 5 -29 -3 -5 0 -12 6 -15 5 -4 8 -13 5 -21 -3 -8 -1 -14 5 -14 6 0 7 -4 4 -10 -3 -5 -1 -10 5 -10 6 0 8 -4 5 -10 -3 -5 -1 -10 5 -10 6 0 9 -3 7 -7 -3 -5 1 -14 9 -21 19 -18 18 -8 -7 40 -11 22 -26 68 -33 101 -8 41 -15 55 -19 43z"/>
 <path d="M580 1976 c-15 -41 -10 -56 6 -17 8 18 13 36 10 39 -3 2 -10 -7 -16 -22z"/>
 <path d="M810 1958 c-6 -24 -23 -79 -36 -123 -22 -72 -45 -227 -31 -215 3 3 8 32 11 65 5 52 51 231 76 293 6 13 6 22 0 22 -5 0 -14 -19 -20 -42z"/>
 <path d="M930 1988 c0 -6 7 -38 17 -71 16 -59 16 -59 -7 -77 -19 -14 -21 -20 -11 -38 6 -11 24 -30 41 -42 34 -24 54 -18 89 27 l22 26 -26 27 c-24 25 -25 30 -16 71 20 86 19 89 -49 89 -40 0 -60 -4 -60 -12z"/>
 <path d="M1170 1978 c22 -55 72 -240 80 -299 l9 -64 -4 70 c-2 39 -15 106 -29 150 -13 44 -30 99 -36 123 -6 23 -15 42 -20 42 -6 0 -6 -9 0 -22z"/>
 <path d="M1405 1980 c12 -41 27 -60 20 -25 -4 17 -11 35 -17 40 -7 7 -8 2 -3 -15z"/>
 <path d="M1850 1976 c0 -22 3 -27 11 -19 8 8 8 16 0 30 -9 16 -10 14 -11 -11z"/>
 <path d="M1840 1925 c0 -11 -11 -44 -25 -73 -29 -62 -30 -67 -11 -50 8 7 12 16 9 21 -2 4 1 7 7 7 6 0 8 5 5 10 -3 6 -1 10 5 10 6 0 8 5 5 10 -3 6 -1 10 5 10 6 0 8 5 5 10 -4 6 -2 16 4 23 6 8 6 18 1 27 -8 12 -10 11 -10 -5z"/>
 <path d="M246 1765 c6 -15 82 -41 92 -31 3 3 10 2 16 -4 7 -5 18 -5 26 0 9 6 -2 11 -36 15 -27 4 -61 14 -76 21 -24 12 -27 12 -22 -1z"/>
 <path d="M1730 1766 c-14 -7 -47 -17 -74 -21 -34 -4 -45 -9 -36 -15 8 -5 19 -5 26 0 6 6 13 7 16 4 10 -10 86 16 92 31 6 18 8 18 -24 1z"/>
 <path d="M1526 1711 c-11 -4 -15 -10 -10 -13 5 -2 20 1 34 8 26 14 8 18 -24 5z"/>
 <path d="M535 1681 c3 -5 41 -21 85 -36 48 -16 86 -35 95 -48 8 -11 17 -18 20 -16 3 3 -11 23 -31 45 -19 21 -33 33 -29 27 9 -19 -8 -16 -71 12 -60 27 -79 31 -69 16z"/>
 <path d="M1390 1664 c-63 -27 -74 -29 -65 -11 4 6 -10 -6 -29 -27 -20 -22 -34 -42 -31 -45 3 -2 12 5 20 16 9 13 47 32 95 48 44 15 82 31 85 36 9 14 -15 9 -75 -17z"/>
 <path d="M770 895 c0 -8 7 -15 15 -15 8 0 15 7 15 15 0 8 -7 15 -15 15 -8 0 -15 -7 -15 -15z"/>
 <path d="M1202 898 c5 -15 28 -18 29 -3 0 6 -7 12 -17 13 -10 3 -15 -1 -12 -10z"/>
 <path d="M1317 889 c4 -12 0 -25 -8 -30 -24 -15 -102 -9 -149 12 l-45 20 21 -21 c15 -16 38 -23 82 -27 82 -8 112 1 112 32 0 13 -4 26 -9 29 -5 4 -7 -3 -4 -15z"/>
 <path d="M670 860 c11 -20 18 -22 86 -18 54 2 78 8 91 21 17 17 16 17 -19 2 -49 -20 -117 -19 -147 1 -23 16 -23 16 -11 -6z"/>
 </g>
<g id="layer121" fill="#0d0c0b" stroke="none">
 <path d="M930 1988 c0 -6 7 -38 17 -71 16 -59 16 -59 -7 -77 -19 -14 -21 -20 -11 -38 6 -11 24 -30 41 -42 34 -24 54 -18 89 27 l22 26 -26 27 c-24 25 -25 30 -16 71 20 86 19 89 -49 89 -40 0 -60 -4 -60 -12z"/>
 <path d="M772 899 c2 -6 8 -10 13 -10 5 0 11 4 13 10 2 6 -4 11 -13 11 -9 0 -15 -5 -13 -11z"/>
 <path d="M1210 895 c0 -8 5 -15 10 -15 6 0 10 7 10 15 0 8 -4 15 -10 15 -5 0 -10 -7 -10 -15z"/>
 <path d="M1317 889 c4 -12 0 -25 -8 -30 -24 -15 -102 -9 -149 12 l-45 20 21 -21 c15 -16 38 -23 82 -27 82 -8 112 1 112 32 0 13 -4 26 -9 29 -5 4 -7 -3 -4 -15z"/>
 <path d="M670 860 c11 -20 18 -22 86 -18 54 2 78 8 91 21 17 17 16 17 -19 2 -49 -20 -117 -19 -147 1 -23 16 -23 16 -11 -6z"/>
 </g>

</svg>