<!DOCTYPE svg PUBLIC "-//W3C//DTD SVG 20010904//EN" "http://www.w3.org/TR/2001/REC-SVG-20010904/DTD/svg10.dtd">
<svg version="1.0" xmlns="http://www.w3.org/2000/svg" width="200px" height="200px" viewBox="0 0 2000 2000" preserveAspectRatio="xMidYMid meet">
<g id="layer101" fill="#f4f2f5" stroke="none">
 <path d="M122 1958 c8 -71 54 -154 103 -188 24 -17 54 -30 67 -30 59 0 393 -110 417 -138 21 -23 51 -88 51 -111 0 -10 -16 -31 -36 -46 -86 -66 -116 -109 -129 -182 -6 -36 -12 -45 -43 -60 -32 -16 -40 -27 -62 -89 -14 -40 -38 -90 -54 -113 -41 -58 -48 -132 -16 -166 13 -14 28 -25 34 -25 7 0 10 -25 8 -72 -6 -133 46 -299 115 -373 50 -52 146 -123 208 -152 55 -26 71 -28 197 -31 155 -4 206 8 305 73 96 64 166 142 201 226 36 87 56 199 50 275 -4 47 -2 53 18 63 45 20 45 124 2 182 -14 19 -31 52 -38 74 -25 82 -52 126 -81 132 -24 4 -29 12 -38 55 -6 27 -17 61 -25 77 -15 29 -90 102 -123 119 -33 18 -17 87 34 141 26 28 177 83 323 118 58 14 125 35 150 48 62 32 102 97 108 176 l4 59 -877 0 -878 0 5 -42z"/>
 </g>
<g id="layer102" fill="#dbd2d9" stroke="none">
 <path d="M122 1958 c8 -71 54 -154 103 -188 24 -17 54 -30 67 -30 63 0 393 -111 422 -142 l19 -21 9 24 c5 12 11 43 13 68 4 49 22 121 52 209 l18 53 43 -65 c23 -35 56 -76 73 -91 17 -14 30 -27 28 -30 -2 -2 -39 -22 -82 -45 -82 -45 -107 -74 -107 -130 0 -32 -16 -42 -22 -12 -2 12 -6 13 -11 5 -4 -6 -1 -17 6 -24 22 -21 8 -66 -30 -95 -85 -64 -116 -108 -128 -181 -6 -36 -12 -45 -43 -60 -32 -16 -40 -27 -62 -89 -14 -40 -38 -90 -54 -113 -41 -58 -48 -132 -16 -166 13 -14 28 -25 34 -25 7 0 10 -25 8 -72 -6 -133 46 -299 115 -373 50 -52 146 -123 208 -152 55 -26 71 -28 197 -31 155 -4 206 8 305 73 96 64 166 142 201 226 36 87 56 199 50 275 -4 47 -2 53 18 63 45 20 45 124 2 182 -14 19 -31 52 -38 74 -25 82 -52 126 -81 132 -24 4 -29 12 -38 55 -6 27 -17 61 -25 77 -15 29 -90 102 -123 119 -34 19 -18 89 33 141 28 28 179 83 324 118 58 14 125 35 150 48 62 32 102 97 108 176 l4 59 -356 0 c-196 0 -356 -3 -356 -6 0 -3 5 -14 10 -24 7 -14 6 -21 -3 -27 -14 -8 -67 -94 -67 -108 0 -17 28 17 45 55 10 22 21 40 24 40 7 0 60 -172 67 -215 11 -78 13 -138 5 -152 -6 -12 -10 -7 -15 20 -8 44 -60 92 -143 131 -41 19 -60 33 -56 42 3 8 11 14 18 14 21 0 47 60 34 76 -6 8 -18 14 -26 14 -11 0 -13 9 -8 43 4 23 8 54 10 70 l3 27 -68 0 -68 0 4 -36 c2 -20 9 -44 14 -54 16 -29 12 -44 -15 -57 -24 -11 -27 -8 -52 35 -15 26 -34 52 -43 59 -12 9 -13 14 -2 24 6 7 12 17 12 21 0 4 -163 8 -361 8 l-362 0 5 -42z"/>
 </g>
<g id="layer103" fill="#edc6bb" stroke="none">
 <path d="M122 1958 c8 -71 54 -154 103 -188 24 -17 54 -30 67 -30 64 0 393 -111 422 -142 l20 -21 12 54 c7 29 11 56 9 59 -4 7 16 92 49 204 14 48 26 92 26 97 0 5 -155 9 -356 9 l-357 0 5 -42z"/>
 <path d="M937 1934 c15 -64 14 -66 -6 -80 -28 -20 -27 -28 14 -73 l35 -39 -22 -14 c-13 -9 -50 -29 -84 -46 -64 -32 -79 -53 -90 -123 -4 -21 -11 -42 -15 -45 -5 -3 -9 -13 -9 -23 0 -10 -16 -31 -36 -46 -86 -66 -116 -109 -129 -182 -6 -36 -12 -45 -43 -60 -32 -16 -40 -27 -62 -89 -14 -40 -38 -90 -54 -113 -41 -58 -48 -132 -16 -166 13 -14 28 -25 34 -25 7 0 10 -25 8 -72 -6 -133 46 -299 115 -373 50 -52 146 -123 208 -152 55 -26 71 -28 197 -31 155 -4 206 8 305 73 96 64 166 142 201 226 36 87 56 199 50 275 -4 47 -2 53 18 63 45 20 45 124 2 182 -14 19 -31 52 -38 74 -25 82 -52 126 -81 132 -24 4 -29 12 -38 55 -6 27 -17 61 -25 76 -15 29 -75 88 -115 115 -14 9 -26 27 -27 39 -7 63 -26 124 -47 146 -12 13 -52 39 -89 58 -36 18 -69 38 -73 43 -3 6 10 28 30 50 l36 39 -26 20 c-23 18 -25 25 -20 73 3 30 8 60 10 67 3 9 -14 12 -64 12 l-69 0 15 -66z"/>
 <path d="M1167 1984 c3 -9 6 -23 7 -32 1 -10 9 -42 19 -72 10 -30 22 -68 27 -85 10 -31 21 -91 25 -135 1 -14 4 -32 8 -40 3 -8 7 -21 9 -29 3 -11 9 -9 25 8 26 28 178 83 323 118 58 14 125 35 150 48 62 32 102 97 108 176 l4 59 -355 0 c-321 0 -356 -2 -350 -16z"/>
 </g>
<g id="layer104" fill="#d2c3bf" stroke="none">
 <path d="M122 1958 c8 -71 54 -154 103 -188 24 -17 54 -30 67 -30 64 0 393 -111 422 -142 l20 -21 12 54 c7 29 11 56 9 59 -4 7 16 92 49 204 14 48 26 92 26 97 0 5 -155 9 -356 9 l-357 0 5 -42z"/>
 <path d="M937 1934 c15 -64 14 -66 -6 -80 -12 -9 -21 -19 -21 -25 0 -17 72 -89 89 -89 9 1 33 20 54 45 l37 43 -25 20 c-23 18 -24 25 -20 73 3 30 8 60 10 67 3 9 -14 12 -64 12 l-69 0 15 -66z"/>
 <path d="M1167 1984 c3 -9 6 -23 7 -32 1 -10 9 -42 19 -72 10 -30 22 -68 27 -85 10 -31 21 -91 25 -135 1 -14 4 -32 8 -40 3 -8 7 -21 9 -29 3 -11 9 -9 25 8 26 28 178 83 323 118 58 14 125 35 150 48 62 32 102 97 108 176 l4 59 -355 0 c-321 0 -356 -2 -350 -16z"/>
 <path d="M848 1607 c-48 -25 -64 -38 -66 -57 -2 -14 -8 -29 -13 -34 -5 -6 -9 -18 -9 -27 0 -9 -16 -29 -36 -44 -86 -66 -116 -109 -129 -182 -6 -36 -12 -45 -43 -60 -32 -16 -40 -27 -62 -89 -14 -40 -38 -90 -54 -113 -41 -58 -48 -132 -16 -166 13 -14 28 -25 34 -25 7 0 10 -25 8 -72 -6 -133 46 -299 115 -373 50 -52 146 -123 208 -152 55 -26 71 -28 197 -31 155 -4 206 8 305 73 96 64 166 142 201 226 36 87 56 199 50 275 -4 47 -2 53 18 63 45 20 45 124 2 182 -14 19 -31 52 -38 74 -25 82 -52 126 -81 132 -24 4 -29 12 -38 55 -6 27 -17 61 -25 76 -15 29 -75 88 -115 115 -14 9 -26 27 -27 39 -9 66 -17 98 -25 98 -5 0 -9 -5 -9 -11 0 -6 -8 -3 -17 7 -37 37 -95 54 -185 54 -78 0 -92 -3 -150 -33z m258 -92 c47 -19 172 -114 212 -160 18 -19 34 -48 38 -63 18 -82 64 -262 73 -285 7 -18 7 -27 -1 -29 -13 -5 8 -124 22 -133 5 -3 6 -14 3 -24 -3 -10 0 -22 6 -25 14 -9 14 -53 1 -61 -6 -4 -10 -14 -8 -23 1 -10 -1 -23 -5 -29 -5 -7 -10 -36 -12 -65 -5 -59 -13 -95 -41 -183 -23 -71 -79 -132 -164 -175 -196 -100 -408 -73 -561 70 -43 40 -51 54 -70 125 -12 44 -24 87 -27 95 -3 8 -4 19 -3 23 2 13 -20 130 -27 142 -8 13 -9 87 -1 100 14 22 42 159 33 162 -14 5 70 336 92 366 26 36 197 167 231 177 47 14 171 11 209 -5z m-526 -344 c0 -23 -23 -68 -40 -79 -22 -13 -27 -3 -8 16 9 9 9 12 0 12 -19 0 -14 17 10 40 23 21 38 26 38 11z m885 -42 c0 -13 4 -30 8 -36 12 -19 -1 -16 -23 5 -11 10 -23 34 -27 52 l-6 35 24 -16 c14 -10 24 -26 24 -40z m-930 -119 c-4 -17 -9 -29 -12 -26 -3 2 -2 19 2 36 4 17 9 29 12 26 3 -2 2 -19 -2 -36z m-55 -128 c-7 -13 -9 -8 -9 23 0 35 1 37 10 17 6 -15 5 -30 -1 -40z m1050 21 c0 -27 -3 -34 -11 -26 -7 7 -9 23 -5 37 9 37 16 32 16 -11z"/>
 <path d="M904 1345 c-16 -13 -17 -16 -4 -25 16 -11 158 -14 184 -4 21 8 21 30 0 38 -33 12 -160 6 -180 -9z"/>
 <path d="M968 1175 c-34 -29 -34 -34 -7 -79 28 -47 41 -46 33 4 -6 40 -6 40 25 40 37 0 39 9 8 38 -28 27 -26 27 -59 -3z"/>
 <path d="M700 960 c0 -3 13 -19 29 -34 26 -25 28 -30 16 -52 -7 -14 -21 -31 -31 -39 -18 -13 -17 -14 13 -15 22 0 36 6 43 20 14 27 32 26 28 -2 -3 -23 -33 -36 -103 -43 -51 -4 -95 -21 -95 -36 0 -10 60 -9 254 1 28 1 56 19 56 34 0 21 -24 38 -37 25 -8 -8 -13 -5 -18 10 -3 12 -10 21 -14 21 -4 0 -13 11 -19 24 -9 20 -7 27 19 52 37 36 37 42 -5 42 -26 0 -35 -5 -39 -20 -6 -21 -27 -16 -27 7 0 8 -12 13 -35 12 -19 -1 -35 -4 -35 -7z"/>
 <path d="M1120 964 c0 -4 14 -22 30 -39 l30 -31 -32 -36 c-18 -19 -41 -38 -50 -41 -27 -10 -21 -36 10 -48 39 -16 282 -25 282 -11 0 17 -39 34 -84 37 -23 1 -48 5 -56 8 -8 3 -26 7 -40 9 -19 2 -24 8 -22 23 6 30 10 31 32 7 12 -13 32 -22 48 -22 l27 1 -39 35 -40 34 22 16 c12 8 22 20 22 26 0 6 7 16 16 22 13 10 10 12 -20 12 -28 0 -36 -4 -36 -17 0 -20 -22 -38 -27 -23 -8 22 -20 33 -46 39 -15 4 -27 4 -27 -1z"/>
 </g>
<g id="layer105" fill="#e1b7aa" stroke="none">
 <path d="M122 1958 c8 -71 54 -154 103 -188 24 -17 54 -30 67 -30 64 0 393 -111 422 -142 l21 -22 7 44 c21 125 31 171 52 240 13 41 27 90 31 108 l7 32 -358 0 -357 0 5 -42z"/>
 <path d="M937 1934 c15 -64 14 -66 -6 -80 -12 -9 -21 -19 -21 -25 0 -12 70 -89 81 -89 5 0 30 19 55 42 l46 42 -28 24 c-26 23 -27 25 -17 88 l9 64 -67 0 -67 0 15 -66z"/>
 <path d="M1180 1938 c49 -178 60 -219 70 -285 7 -40 13 -73 16 -73 2 0 12 9 23 21 24 26 180 82 321 116 58 14 125 35 150 48 62 32 102 97 108 176 l4 59 -355 0 -354 0 17 -62z"/>
 <path d="M851 1609 c-50 -25 -63 -37 -68 -60 -3 -16 -10 -32 -14 -35 -5 -3 -9 -13 -9 -23 0 -10 -16 -31 -36 -46 -86 -66 -116 -109 -129 -182 -6 -36 -12 -45 -43 -60 -32 -16 -40 -27 -62 -89 -14 -40 -38 -90 -54 -113 -41 -58 -48 -132 -16 -166 13 -14 28 -25 34 -25 7 0 10 -25 8 -72 -6 -133 46 -299 115 -373 50 -52 146 -123 208 -152 55 -26 71 -28 197 -31 155 -4 206 8 305 73 96 64 166 142 201 226 36 87 56 199 50 275 -4 47 -2 53 18 63 45 20 45 124 2 182 -14 19 -31 52 -38 74 -25 82 -52 126 -81 132 -24 4 -29 12 -38 55 -6 27 -17 61 -25 76 -15 29 -75 88 -115 115 -14 9 -26 27 -27 39 -9 66 -17 98 -25 98 -5 0 -9 -5 -9 -11 0 -6 -8 -3 -17 7 -37 36 -95 54 -184 54 -76 0 -93 -3 -148 -31z m255 -94 c47 -19 172 -114 212 -160 18 -19 34 -48 38 -63 18 -82 64 -262 73 -285 7 -18 7 -27 -1 -29 -13 -5 8 -124 22 -133 5 -3 6 -14 3 -24 -3 -10 0 -22 6 -25 14 -9 14 -53 1 -61 -6 -4 -10 -14 -8 -23 1 -10 -1 -23 -5 -29 -5 -7 -10 -36 -12 -65 -5 -59 -13 -95 -41 -183 -23 -71 -79 -132 -164 -175 -196 -100 -408 -73 -561 70 -43 40 -51 54 -70 125 -12 44 -24 87 -27 95 -3 8 -4 19 -3 23 2 13 -20 130 -27 142 -8 13 -9 87 -1 100 14 22 42 159 33 162 -14 5 70 336 92 366 26 36 197 167 231 177 47 14 171 11 209 -5z m-526 -344 c0 -23 -23 -68 -40 -79 -22 -13 -27 -3 -8 16 9 9 9 12 0 12 -19 0 -14 17 10 40 23 21 38 26 38 11z m885 -42 c0 -13 4 -30 8 -36 12 -19 -1 -16 -23 5 -11 10 -23 34 -27 52 l-6 35 24 -16 c14 -10 24 -26 24 -40z m-930 -119 c-4 -17 -9 -29 -12 -26 -3 2 -2 19 2 36 4 17 9 29 12 26 3 -2 2 -19 -2 -36z m-55 -128 c-7 -13 -9 -8 -9 23 0 35 1 37 10 17 6 -15 5 -30 -1 -40z m1050 21 c0 -27 -3 -34 -11 -26 -7 7 -9 23 -5 37 9 37 16 32 16 -11z"/>
 <path d="M904 1345 c-16 -13 -17 -16 -4 -25 16 -11 158 -14 184 -4 21 8 21 30 0 38 -33 12 -160 6 -180 -9z"/>
 <path d="M968 1175 c-34 -29 -34 -34 -7 -79 28 -47 41 -46 33 4 -6 40 -6 40 25 40 37 0 39 9 8 38 -28 27 -26 27 -59 -3z"/>
 <path d="M700 960 c0 -3 13 -19 29 -34 26 -25 28 -30 16 -52 -7 -14 -21 -31 -31 -39 -18 -13 -17 -14 13 -15 22 0 36 6 43 20 14 27 32 26 28 -2 -3 -23 -33 -36 -103 -43 -51 -4 -95 -21 -95 -36 0 -10 60 -9 254 1 28 1 56 19 56 34 0 21 -24 38 -37 25 -8 -8 -13 -5 -18 10 -3 12 -10 21 -14 21 -4 0 -13 11 -19 24 -9 20 -7 27 19 52 37 36 37 42 -5 42 -26 0 -35 -5 -39 -20 -6 -21 -27 -16 -27 7 0 8 -12 13 -35 12 -19 -1 -35 -4 -35 -7z"/>
 <path d="M1120 964 c0 -4 14 -22 30 -39 l30 -31 -32 -36 c-18 -19 -41 -38 -50 -41 -27 -10 -21 -36 10 -48 39 -16 282 -25 282 -11 0 17 -39 34 -84 37 -23 1 -48 5 -56 8 -8 3 -26 7 -40 9 -19 2 -24 8 -22 23 6 30 10 31 32 7 12 -13 32 -22 48 -22 l27 1 -39 35 -40 34 22 16 c12 8 22 20 22 26 0 6 7 16 16 22 13 10 10 12 -20 12 -28 0 -36 -4 -36 -17 0 -20 -22 -38 -27 -23 -8 22 -20 33 -46 39 -15 4 -27 4 -27 -1z"/>
 </g>
<g id="layer106" fill="#d9a697" stroke="none">
 <path d="M122 1958 c8 -71 54 -154 103 -188 24 -17 54 -30 67 -30 64 0 393 -111 422 -142 l21 -22 7 44 c21 125 31 171 52 240 13 41 27 90 31 108 l7 32 -358 0 -357 0 5 -42z"/>
 <path d="M937 1935 c14 -64 14 -66 -7 -83 -19 -15 -21 -22 -11 -39 14 -28 59 -63 80 -63 9 0 34 17 55 39 l37 38 -27 22 c-27 21 -27 23 -18 86 l10 65 -67 0 -67 0 15 -65z"/>
 <path d="M1180 1938 c49 -178 60 -219 70 -285 7 -40 13 -73 16 -73 2 0 12 9 23 21 24 26 180 82 321 116 58 14 125 35 150 48 62 32 102 97 108 176 l4 59 -355 0 -354 0 17 -62z"/>
 <path d="M895 1623 c-44 -11 -106 -58 -112 -85 -3 -16 -9 -28 -14 -28 -5 0 -9 -8 -9 -19 0 -10 -16 -31 -36 -46 -86 -66 -116 -109 -129 -182 -6 -36 -12 -45 -43 -60 -32 -16 -40 -27 -62 -89 -14 -40 -38 -90 -54 -113 -41 -58 -48 -132 -16 -166 13 -14 28 -25 34 -25 7 0 10 -25 8 -72 -6 -133 46 -299 115 -373 50 -52 146 -123 208 -152 55 -26 71 -28 197 -31 155 -4 206 8 305 73 96 64 166 142 201 226 36 87 56 199 50 275 -4 47 -2 53 18 63 45 20 45 124 2 182 -14 19 -31 52 -38 74 -25 82 -52 126 -81 132 -24 4 -29 12 -38 55 -6 27 -17 61 -25 77 -16 29 -90 102 -124 120 -13 7 -18 17 -15 30 3 10 0 22 -6 25 -6 4 -11 21 -11 37 0 18 -5 29 -12 28 -7 -1 -38 10 -68 24 -47 23 -67 27 -140 26 -47 -1 -94 -3 -105 -6z m193 -92 c41 -12 214 -141 244 -182 31 -42 110 -356 96 -382 -6 -12 -6 -23 1 -31 6 -7 8 -15 5 -18 -3 -3 2 -22 10 -42 8 -20 13 -43 10 -50 -3 -8 -1 -17 5 -21 14 -8 14 -72 0 -80 -6 -4 -8 -13 -5 -21 3 -8 1 -26 -5 -41 -9 -24 -12 -45 -24 -138 -9 -76 -54 -164 -107 -210 -24 -21 -76 -53 -117 -73 -66 -32 -84 -36 -175 -40 -155 -7 -253 28 -358 126 -41 38 -52 57 -74 126 -14 44 -27 95 -29 111 -14 109 -18 131 -24 145 -11 22 -5 120 10 155 6 17 13 57 14 90 1 33 19 129 40 214 42 171 52 188 154 265 29 22 65 50 78 60 54 42 172 59 251 37z m-508 -365 c0 -8 -5 -27 -12 -43 -6 -15 -13 -38 -14 -51 -5 -43 -26 -92 -36 -86 -5 4 -7 20 -4 36 4 20 2 27 -6 22 -8 -5 -9 -1 -4 12 5 10 10 36 13 57 7 46 63 93 63 53z m877 -8 c21 -23 27 -61 24 -140 -2 -69 -25 -34 -37 57 0 6 -4 17 -7 25 -19 45 -25 69 -20 74 11 10 19 7 40 -16z m84 -301 c8 -15 7 -18 -8 -15 -10 2 -19 12 -21 23 -2 11 -8 30 -14 42 -8 17 -8 29 0 48 7 14 13 36 13 48 1 12 6 -12 11 -53 5 -41 14 -83 19 -93z m-1053 32 c-8 -23 -20 -45 -28 -47 -9 -3 -10 0 -4 9 4 7 7 29 5 49 -1 20 3 49 10 65 l12 30 10 -32 c7 -22 5 -43 -5 -74z"/>
 <path d="M923 1353 c-26 -5 -30 -28 -7 -37 25 -10 157 -7 174 4 12 7 12 12 2 22 -13 13 -127 20 -169 11z"/>
 <path d="M962 1167 c-27 -29 -27 -35 3 -72 l25 -30 0 44 c0 41 1 43 25 39 30 -6 32 3 7 25 -25 22 -34 21 -60 -6z"/>
 <path d="M728 963 c-16 -4 -15 -8 8 -38 l26 -34 -21 -30 c-26 -36 -26 -41 -2 -41 10 0 26 10 34 23 l16 22 20 -25 c11 -14 19 -26 18 -27 -2 -2 -28 -5 -130 -19 -54 -7 -89 -22 -82 -35 4 -6 13 -8 21 -5 7 3 62 6 121 7 115 2 153 10 153 33 0 16 -27 29 -41 20 -5 -3 -9 -1 -9 4 0 5 -11 22 -25 38 -31 36 -31 36 0 72 30 36 31 41 4 39 -12 -1 -28 -12 -37 -25 l-15 -23 -21 24 c-12 14 -29 22 -38 20z"/>
 <path d="M1127 963 c-4 -4 7 -21 24 -39 l32 -33 -27 -31 c-14 -17 -26 -36 -26 -41 0 -5 -9 -9 -20 -9 -29 0 -24 -26 8 -38 31 -12 262 -21 262 -10 0 7 -68 29 -105 34 -11 2 -44 6 -72 10 -29 4 -50 11 -47 15 3 5 10 7 15 3 6 -3 13 3 16 15 7 26 14 26 36 1 9 -11 24 -20 32 -20 24 0 17 27 -12 48 l-27 20 28 33 c26 31 27 34 10 40 -30 12 -34 10 -34 -10 0 -21 -22 -41 -27 -25 -10 29 -51 52 -66 37z"/>
 </g>
<g id="layer107" fill="#d59b8a" stroke="none">
 <path d="M122 1958 c8 -71 54 -154 103 -188 24 -17 54 -30 67 -30 64 0 393 -111 422 -142 l21 -22 7 44 c21 125 31 171 52 240 13 41 27 90 31 108 l7 32 -358 0 -357 0 5 -42z"/>
 <path d="M937 1935 c14 -64 14 -66 -7 -83 -19 -15 -21 -22 -11 -39 14 -28 59 -63 80 -63 9 0 34 17 55 39 l37 38 -27 22 c-27 21 -27 23 -18 86 l10 65 -67 0 -67 0 15 -65z"/>
 <path d="M1180 1938 c49 -178 60 -219 70 -285 7 -40 13 -73 16 -73 2 0 12 9 23 21 24 26 180 82 321 116 58 14 125 35 150 48 62 32 102 97 108 176 l4 59 -355 0 -354 0 17 -62z"/>
 <path d="M817 1575 c-21 -15 -37 -34 -37 -45 0 -11 -4 -20 -10 -20 -5 0 -10 -8 -10 -19 0 -10 -16 -31 -36 -46 -86 -66 -116 -109 -129 -182 -6 -36 -12 -45 -43 -60 -32 -16 -40 -27 -62 -89 -14 -40 -38 -90 -54 -113 -41 -58 -48 -132 -16 -166 13 -14 28 -25 34 -25 7 0 10 -25 8 -72 -6 -133 46 -299 115 -373 50 -52 146 -123 208 -152 55 -26 71 -28 197 -31 155 -4 206 8 305 73 96 64 166 142 201 226 36 87 56 199 50 275 -4 47 -2 53 18 63 45 20 45 124 2 182 -14 19 -31 52 -38 74 -25 82 -52 126 -81 132 -24 4 -29 12 -38 55 -6 27 -17 61 -25 77 -16 29 -90 102 -124 120 -13 7 -18 17 -15 30 3 10 0 22 -6 25 -6 4 -11 21 -11 38 0 25 -3 28 -14 19 -10 -8 -16 -8 -25 3 -12 15 -54 30 -46 16 3 -4 -23 -6 -57 -4 -45 3 -56 1 -38 -5 19 -7 8 -9 -45 -9 -53 0 -64 2 -45 9 18 6 9 8 -33 5 -34 -3 -55 -1 -52 5 11 16 -10 10 -48 -16z m290 -50 c45 -19 172 -116 217 -166 29 -31 38 -55 61 -155 16 -66 36 -142 45 -171 10 -32 13 -56 8 -61 -9 -9 -4 -45 23 -156 9 -38 8 -62 -1 -105 -13 -58 -30 -152 -34 -186 -2 -11 -11 -48 -21 -83 -15 -54 -26 -70 -79 -119 -148 -137 -357 -167 -541 -78 -39 18 -93 56 -122 83 -59 57 -79 109 -109 282 -22 133 -24 184 -8 240 20 75 25 118 14 125 -6 3 -8 10 -5 15 3 4 23 81 46 171 31 123 47 171 67 195 36 43 194 163 229 174 48 14 171 11 210 -5z m-525 -351 c4 -3 0 -24 -7 -47 -7 -23 -21 -68 -31 -100 -17 -58 -33 -62 -34 -9 0 13 -4 20 -10 17 -13 -8 -13 -61 0 -85 7 -13 5 -26 -5 -47 -8 -15 -15 -35 -15 -44 0 -21 -9 -29 -26 -22 -17 6 -18 23 -1 23 8 0 12 21 13 68 1 46 7 80 21 107 11 22 23 55 27 74 9 51 47 86 68 65z m878 -14 c11 -11 20 -31 20 -45 0 -14 10 -45 22 -68 21 -40 27 -71 31 -147 1 -19 6 -38 12 -42 6 -5 6 -11 -1 -18 -26 -26 -61 73 -44 125 12 35 6 75 -11 75 -5 0 -9 -17 -9 -37 0 -45 -12 -34 -29 27 -7 25 -19 65 -27 90 -8 25 -14 48 -14 53 0 14 30 7 50 -13z"/>
 <path d="M931 1352 c-34 -10 -37 -30 -7 -38 32 -8 162 -1 172 9 16 16 -17 29 -78 33 -34 2 -74 0 -87 -4z"/>
 <path d="M966 1166 l-30 -23 23 -36 c28 -46 35 -47 28 -3 -3 22 0 41 8 53 30 39 14 44 -29 9z"/>
 <path d="M727 961 c-16 -6 -16 -9 8 -31 30 -28 31 -37 5 -70 -25 -31 -25 -40 -1 -40 10 0 25 10 34 23 l15 22 26 -26 26 -26 -97 -16 c-135 -22 -142 -37 -17 -37 100 0 168 12 180 31 8 14 -16 31 -33 24 -7 -2 -13 -1 -13 4 0 4 -11 21 -25 37 -31 36 -31 36 0 72 14 17 25 33 25 36 0 15 -42 -3 -57 -24 l-16 -23 -21 25 c-14 18 -27 24 -39 19z"/>
 <path d="M1136 963 c-3 -3 7 -21 21 -40 l26 -34 -22 -22 c-11 -13 -21 -26 -21 -30 0 -14 33 -6 46 11 12 16 14 16 34 -5 20 -22 50 -31 50 -16 0 4 -12 19 -26 34 l-27 28 28 33 c25 29 26 33 10 37 -11 2 -26 -7 -37 -20 -15 -20 -19 -22 -28 -9 -5 8 -10 18 -10 21 0 9 -37 18 -44 12z"/>
 <path d="M1090 795 c0 -8 16 -19 38 -24 45 -13 232 -15 232 -2 0 11 -163 41 -224 41 -34 0 -46 -4 -46 -15z"/>
 </g>
<g id="layer108" fill="#cb8a76" stroke="none">
 <path d="M122 1958 c8 -71 54 -154 103 -188 24 -17 54 -30 67 -30 64 0 393 -111 422 -142 l21 -22 7 44 c21 125 31 171 52 240 13 41 27 90 31 108 l7 32 -358 0 -357 0 5 -42z"/>
 <path d="M937 1935 c14 -64 14 -66 -7 -83 -19 -15 -21 -22 -11 -39 14 -28 59 -63 80 -63 9 0 34 17 55 39 l37 38 -27 22 c-27 21 -27 23 -18 86 l10 65 -67 0 -67 0 15 -65z"/>
 <path d="M1180 1938 c49 -178 60 -219 70 -285 7 -40 13 -73 16 -73 2 0 12 9 23 21 24 26 180 82 321 116 58 14 125 35 150 48 62 32 102 97 108 176 l4 59 -355 0 -354 0 17 -62z"/>
 <path d="M927 1560 c-26 -5 -64 -18 -83 -29 -44 -26 -44 -26 -45 7 l-1 27 -10 -27 c-5 -16 -14 -28 -19 -28 -5 0 -9 -8 -9 -19 0 -10 -16 -31 -36 -46 -86 -66 -116 -109 -129 -182 -6 -36 -12 -45 -43 -60 -32 -16 -40 -27 -62 -89 -14 -40 -38 -90 -54 -113 -41 -58 -48 -132 -16 -166 13 -14 28 -25 34 -25 7 0 10 -25 8 -72 -6 -133 46 -299 115 -373 50 -52 146 -123 208 -152 55 -26 71 -28 197 -31 155 -4 206 8 305 73 96 64 166 142 201 226 36 87 56 199 50 275 -4 47 -2 53 18 63 45 20 45 124 2 182 -14 19 -31 52 -38 74 -25 82 -52 126 -81 132 -24 4 -29 12 -38 55 -6 27 -17 61 -25 77 -16 29 -90 102 -124 120 -13 7 -18 17 -15 30 3 10 0 22 -6 25 -6 4 -11 18 -11 32 0 13 -4 24 -10 24 -5 0 -10 -15 -10 -34 l0 -34 -52 28 c-60 31 -144 43 -221 30z m156 -24 c87 -26 287 -196 287 -244 0 -16 46 -203 64 -263 10 -32 11 -50 4 -57 -7 -7 -3 -41 12 -106 l22 -95 -21 -113 c-11 -62 -22 -122 -24 -133 -15 -88 -42 -149 -88 -195 -85 -82 -223 -140 -339 -140 -118 0 -253 55 -336 135 -59 59 -81 115 -110 285 -26 160 -26 171 -5 264 13 54 18 93 12 100 -12 15 71 341 96 375 22 29 162 142 208 168 62 34 144 41 218 19z m-498 -378 c-4 -13 -11 -36 -16 -53 -5 -16 -14 -52 -21 -78 -15 -56 -30 -65 -39 -22 -5 25 -7 27 -14 12 -4 -11 -2 -35 5 -57 11 -34 11 -42 -4 -64 -9 -14 -16 -32 -16 -40 0 -23 -20 -30 -38 -12 -15 15 -15 16 0 16 13 0 17 13 20 63 2 34 3 64 2 65 -1 2 -9 -9 -18 -25 -8 -15 -15 -24 -16 -19 0 5 16 33 35 62 19 29 38 68 42 86 11 61 31 88 66 88 14 0 17 -5 12 -22z m877 5 c10 -9 18 -27 18 -41 0 -13 11 -47 25 -75 19 -37 26 -68 28 -118 1 -47 6 -69 15 -69 17 0 15 -17 -2 -23 -32 -13 -65 82 -47 133 6 19 7 39 2 48 -7 12 -10 8 -16 -16 -9 -44 -19 -40 -33 16 -7 26 -19 67 -27 92 -9 25 -15 51 -15 58 0 17 30 15 52 -5z"/>
 <path d="M936 1351 c-37 -8 -44 -26 -14 -35 30 -8 132 -8 152 0 62 24 -54 54 -138 35z"/>
 <path d="M966 1165 l-29 -23 22 -31 c28 -38 32 -39 25 -2 -3 16 -1 38 6 51 16 30 10 32 -24 5z"/>
 <path d="M727 961 c-16 -6 -16 -9 8 -31 30 -28 31 -37 5 -70 -25 -31 -25 -40 -1 -40 10 0 26 10 35 23 15 21 16 21 29 5 13 -17 47 -25 47 -13 0 3 -9 15 -20 27 -25 28 -25 30 5 66 14 17 25 33 25 36 0 15 -42 -3 -57 -24 l-16 -23 -21 25 c-14 18 -27 24 -39 19z"/>
 <path d="M1136 963 c-3 -3 7 -21 21 -40 l26 -34 -22 -22 c-11 -13 -21 -26 -21 -30 0 -14 33 -6 46 11 12 16 14 16 34 -5 20 -22 50 -31 50 -16 0 4 -12 19 -26 34 l-27 28 28 33 c25 29 26 33 10 37 -11 2 -26 -7 -37 -20 -15 -20 -19 -22 -28 -9 -5 8 -10 18 -10 21 0 9 -37 18 -44 12z"/>
 <path d="M775 803 c-55 -8 -111 -20 -125 -27 -21 -9 -13 -11 60 -14 101 -4 160 4 186 23 17 13 17 16 4 25 -8 5 -17 9 -20 9 -3 -1 -50 -8 -105 -16z"/>
 <path d="M1090 795 c0 -8 16 -19 38 -24 45 -13 232 -15 232 -2 0 11 -163 41 -224 41 -34 0 -46 -4 -46 -15z"/>
 </g>
<g id="layer109" fill="#c47c66" stroke="none">
 <path d="M122 1958 c8 -71 54 -154 103 -188 24 -17 54 -30 67 -30 64 0 393 -111 422 -142 l21 -22 7 44 c21 125 31 171 52 240 13 41 27 90 31 108 l7 32 -358 0 -357 0 5 -42z"/>
 <path d="M937 1935 c14 -64 14 -66 -7 -83 -19 -15 -21 -22 -11 -39 14 -28 59 -63 80 -63 9 0 34 17 55 39 l37 38 -27 22 c-27 21 -27 23 -18 86 l10 65 -67 0 -67 0 15 -65z"/>
 <path d="M1180 1938 c49 -178 60 -219 70 -285 7 -40 13 -73 16 -73 2 0 12 9 23 21 24 26 180 82 321 116 58 14 125 35 150 48 62 32 102 97 108 176 l4 59 -355 0 -354 0 17 -62z"/>
 <path d="M893 1546 c-22 -8 -55 -23 -71 -35 -28 -20 -31 -20 -34 -4 -3 14 -8 11 -20 -13 -10 -17 -27 -38 -40 -46 -40 -27 -95 -83 -111 -114 -8 -16 -18 -48 -22 -71 -6 -36 -12 -45 -43 -60 -32 -16 -40 -27 -62 -89 -14 -40 -38 -90 -54 -113 -41 -58 -48 -132 -16 -166 13 -14 28 -25 34 -25 7 0 10 -25 8 -72 -6 -133 46 -299 115 -373 50 -52 146 -123 208 -152 55 -26 71 -28 197 -31 155 -4 206 8 305 73 96 64 166 142 201 226 36 87 56 199 50 276 -3 29 -1 53 4 53 4 0 17 9 28 20 35 35 25 130 -17 175 -10 11 -24 40 -32 65 -24 84 -52 131 -82 137 -24 4 -29 12 -38 55 -6 27 -17 61 -25 77 -16 29 -90 102 -124 120 -13 7 -19 17 -15 27 3 8 -1 22 -9 32 -9 9 -18 24 -22 32 -3 8 -4 -2 -1 -22 3 -21 4 -38 1 -38 -3 0 -22 11 -42 25 -20 14 -53 29 -73 35 -49 14 -147 11 -198 -4z m261 -40 c77 -53 167 -128 188 -157 11 -14 30 -66 43 -115 13 -49 24 -81 24 -72 1 30 21 30 51 -1 20 -19 30 -40 30 -59 0 -18 16 -53 39 -88 37 -56 61 -114 47 -114 -4 0 -16 19 -27 43 -11 23 -17 31 -14 17 2 -14 5 -42 5 -64 0 -30 3 -37 15 -32 21 8 19 -7 -4 -28 -14 -13 -20 -14 -28 -4 -19 26 -34 100 -29 146 5 41 5 43 -5 20 -7 -20 -18 -28 -35 -28 -29 0 -29 6 -3 -107 l21 -92 -21 -113 c-11 -62 -23 -124 -25 -138 -12 -66 -48 -158 -71 -180 -14 -13 -25 -30 -25 -37 0 -8 -4 -12 -9 -9 -5 3 -32 -10 -61 -29 -78 -52 -147 -70 -270 -70 -93 1 -113 4 -170 29 -36 15 -73 29 -82 29 -9 1 -16 4 -15 7 1 4 -23 30 -54 58 -49 45 -58 60 -77 124 -20 67 -46 202 -58 303 -3 23 3 77 15 129 17 69 19 92 10 103 -9 10 -15 11 -23 3 -16 -16 -26 -12 -26 9 0 11 -5 23 -11 27 -12 7 -11 4 7 -68 6 -24 -31 -118 -46 -118 -5 0 -16 8 -25 17 -28 27 -15 98 28 162 20 29 37 62 37 72 0 11 7 36 17 57 9 20 16 39 15 42 -1 8 41 6 55 -3 7 -5 16 17 28 69 19 85 48 125 144 198 133 102 146 107 265 101 70 -3 84 -7 130 -39z"/>
 <path d="M941 1352 c-74 -15 -29 -42 69 -42 64 0 102 19 66 33 -26 10 -101 15 -135 9z"/>
 <path d="M962 1157 c-20 -21 -20 -23 -2 -44 l18 -23 4 43 c3 23 4 43 3 44 -1 2 -11 -7 -23 -20z"/>
 <path d="M440 929 c-11 -41 -8 -69 7 -69 4 0 9 25 10 55 1 30 0 55 -2 55 -2 0 -9 -18 -15 -41z"/>
 <path d="M727 961 c-16 -6 -16 -9 8 -31 30 -28 31 -37 5 -70 -25 -31 -25 -40 -1 -40 10 0 26 10 35 23 15 21 16 21 29 5 13 -17 47 -25 47 -13 0 3 -9 15 -20 27 -25 28 -25 30 5 66 14 17 25 33 25 36 0 15 -42 -3 -57 -24 l-16 -23 -21 25 c-14 18 -27 24 -39 19z"/>
 <path d="M1136 963 c-3 -3 7 -21 21 -40 l26 -34 -22 -22 c-11 -13 -21 -26 -21 -30 0 -14 33 -6 46 11 12 16 14 16 34 -5 20 -22 50 -31 50 -16 0 4 -12 19 -26 34 l-27 28 28 33 c25 29 26 33 10 37 -11 2 -26 -7 -37 -20 -15 -20 -19 -22 -28 -9 -5 8 -10 18 -10 21 0 9 -37 18 -44 12z"/>
 <path d="M775 803 c-55 -8 -111 -20 -125 -27 -21 -9 -13 -11 60 -14 101 -4 160 4 186 23 17 13 17 16 4 25 -8 5 -17 9 -20 9 -3 -1 -50 -8 -105 -16z"/>
 <path d="M1090 795 c0 -8 16 -19 38 -24 45 -13 232 -15 232 -2 0 11 -163 41 -224 41 -34 0 -46 -4 -46 -15z"/>
 </g>
<g id="layer110" fill="#6c5f5c" stroke="none">
 <path d="M122 1958 c8 -71 54 -154 103 -188 24 -17 54 -30 67 -30 64 0 393 -111 422 -142 l21 -22 7 44 c21 125 31 171 52 240 13 41 27 90 31 108 l7 32 -358 0 -357 0 5 -42z"/>
 <path d="M937 1935 c14 -64 14 -66 -7 -83 -19 -15 -21 -22 -11 -39 14 -28 59 -63 80 -63 9 0 34 17 55 39 l37 38 -27 22 c-27 21 -27 23 -18 86 l10 65 -67 0 -67 0 15 -65z"/>
 <path d="M1180 1938 c49 -178 60 -219 70 -285 7 -40 13 -73 16 -73 2 0 12 9 23 21 24 26 180 82 321 116 58 14 125 35 150 48 62 32 102 97 108 176 l4 59 -355 0 -354 0 17 -62z"/>
 <path d="M616 1331 c-23 -43 -19 -52 5 -13 12 18 19 35 16 38 -3 3 -13 -8 -21 -25z"/>
 <path d="M918 1343 c-61 -16 47 -39 126 -28 47 7 58 18 30 29 -18 7 -130 6 -156 -1z"/>
 <path d="M523 958 c-6 -7 -13 -22 -16 -33 -3 -11 -15 -47 -26 -79 -37 -106 -21 -268 38 -390 28 -57 56 -94 110 -141 l22 -19 -11 29 c-6 16 -15 34 -20 40 -22 27 -67 222 -86 380 -3 23 3 77 15 128 12 48 21 90 21 92 0 11 -38 4 -47 -7z"/>
 <path d="M727 961 c-16 -6 -16 -9 8 -31 30 -28 31 -37 5 -70 -25 -31 -25 -40 -1 -40 10 0 26 10 35 23 15 21 16 21 29 5 13 -17 47 -25 47 -13 0 3 -9 15 -20 27 -25 28 -25 30 5 66 14 17 25 33 25 36 0 15 -42 -3 -57 -24 l-16 -23 -21 25 c-14 18 -27 24 -39 19z"/>
 <path d="M1136 963 c-3 -3 7 -21 21 -40 l26 -34 -22 -22 c-11 -13 -21 -26 -21 -30 0 -14 33 -6 46 11 12 16 14 16 34 -5 20 -22 50 -31 50 -16 0 4 -12 19 -26 34 l-27 28 28 33 c25 29 26 33 10 37 -11 2 -26 -7 -37 -20 -15 -20 -19 -22 -28 -9 -5 8 -10 18 -10 21 0 9 -37 18 -44 12z"/>
 <path d="M1430 963 c0 -4 9 -49 21 -100 l21 -92 -21 -113 c-11 -62 -23 -124 -25 -138 -9 -46 -38 -135 -54 -162 -28 -48 -2 -45 43 4 53 58 100 169 116 269 11 75 8 177 -7 201 -5 7 -18 40 -29 73 -16 46 -26 61 -43 63 -12 2 -22 0 -22 -5z"/>
 <path d="M775 803 c-55 -8 -111 -20 -125 -27 -21 -9 -13 -11 60 -14 101 -4 160 4 186 23 17 13 17 16 4 25 -8 5 -17 9 -20 9 -3 -1 -50 -8 -105 -16z"/>
 <path d="M1090 795 c0 -8 16 -19 38 -24 45 -13 232 -15 232 -2 0 11 -163 41 -224 41 -34 0 -46 -4 -46 -15z"/>
 </g>
<g id="layer111" fill="#705346" stroke="none">
 <path d="M122 1958 c8 -71 54 -154 103 -188 24 -17 54 -30 67 -30 65 0 393 -111 422 -142 l21 -23 12 80 c12 86 15 98 44 190 10 33 23 81 28 108 l8 47 -355 0 -355 0 5 -42z"/>
 <path d="M929 1978 c4 -13 11 -44 15 -70 6 -41 4 -49 -13 -60 -12 -7 -21 -16 -21 -20 0 -13 75 -78 91 -78 8 0 30 15 48 34 l34 35 -26 31 c-27 32 -28 54 -7 123 l9 27 -69 0 c-68 0 -69 -1 -61 -22z"/>
 <path d="M1174 1958 c63 -207 76 -261 76 -307 0 -16 5 -33 11 -36 6 -4 8 -13 5 -21 -8 -20 0 -17 23 7 24 26 180 82 321 116 58 14 125 35 150 48 62 32 102 97 108 176 l4 59 -355 0 -356 0 13 -42z"/>
 <path d="M616 1331 c-23 -43 -19 -52 5 -13 12 18 19 35 16 38 -3 3 -13 -8 -21 -25z"/>
 <path d="M918 1343 c-61 -16 47 -39 126 -28 47 7 58 18 30 29 -18 7 -130 6 -156 -1z"/>
 <path d="M523 958 c-6 -7 -13 -22 -16 -33 -3 -11 -15 -47 -26 -79 -37 -106 -21 -268 38 -390 28 -57 56 -94 110 -141 l22 -19 -9 24 c-6 14 -19 43 -30 65 -21 41 -40 105 -47 160 -3 17 -7 46 -11 65 -26 138 -27 171 -5 263 12 48 21 90 21 92 0 11 -38 4 -47 -7z"/>
 <path d="M732 963 c-9 -3 -7 -12 8 -33 25 -36 25 -48 -2 -77 l-21 -23 21 0 c12 0 27 10 33 22 l12 22 17 -22 c19 -22 50 -30 50 -12 0 6 -3 10 -8 10 -4 0 -13 10 -21 21 -11 19 -10 25 8 50 25 34 25 35 6 43 -10 4 -20 -3 -27 -19 -10 -23 -38 -35 -38 -17 0 16 -25 40 -38 35z"/>
 <path d="M1135 961 c-2 -5 7 -19 20 -31 30 -28 31 -34 4 -71 -18 -26 -19 -29 -3 -29 9 0 23 8 30 18 13 16 15 16 28 0 7 -10 24 -18 36 -18 24 0 24 0 -5 30 l-28 29 27 36 c25 33 26 35 7 35 -11 0 -25 -9 -31 -20 -13 -25 -27 -26 -35 -1 -6 20 -41 35 -50 22z"/>
 <path d="M1430 956 c0 -8 6 -35 14 -58 25 -76 28 -134 12 -216 -9 -42 -18 -93 -20 -112 -2 -19 -7 -46 -11 -60 -4 -14 -7 -33 -7 -42 1 -10 -3 -20 -9 -23 -5 -4 -9 -16 -9 -28 0 -12 -9 -33 -20 -47 -11 -14 -20 -31 -20 -37 -1 -49 90 58 129 151 47 114 66 298 35 348 -5 7 -18 40 -29 73 -16 46 -26 61 -43 63 -14 2 -22 -2 -22 -12z"/>
 <path d="M866 813 c-4 -4 -24 -8 -44 -9 -47 -2 -120 -12 -151 -19 -45 -11 -1 -25 79 -25 100 0 184 29 150 50 -18 12 -25 12 -34 3z"/>
 <path d="M1090 795 c0 -21 65 -35 157 -35 78 0 119 14 71 24 -129 28 -228 32 -228 11z"/>
 </g>
<g id="layer112" fill="#654537" stroke="none">
 <path d="M122 1958 c8 -71 54 -154 103 -188 24 -17 54 -30 67 -30 64 0 393 -111 422 -142 l21 -22 12 84 c7 47 14 92 16 100 10 43 20 77 28 95 6 11 16 48 23 83 l13 62 -355 0 -355 0 5 -42z"/>
 <path d="M929 1978 c4 -13 11 -44 15 -70 6 -41 4 -49 -13 -60 -12 -7 -21 -16 -21 -20 0 -13 75 -78 91 -78 8 0 30 15 48 34 l34 35 -26 31 c-27 32 -28 54 -7 123 l9 27 -69 0 c-68 0 -69 -1 -61 -22z"/>
 <path d="M1168 1988 c5 -7 13 -33 17 -58 4 -25 17 -70 28 -100 21 -58 25 -74 34 -155 3 -28 11 -59 19 -70 13 -18 15 -18 27 -1 16 22 179 80 317 113 58 14 125 35 150 48 62 32 102 97 108 176 l4 59 -357 0 c-285 0 -355 -3 -347 -12z"/>
 <path d="M616 1331 c-23 -43 -19 -52 5 -13 12 18 19 35 16 38 -3 3 -13 -8 -21 -25z"/>
 <path d="M918 1343 c-61 -16 47 -39 126 -28 47 7 58 18 30 29 -18 7 -130 6 -156 -1z"/>
 <path d="M533 958 c-6 -7 -24 -48 -42 -92 -36 -90 -40 -166 -16 -280 24 -115 72 -199 153 -270 18 -15 16 -7 -13 52 -19 39 -36 83 -38 99 -2 16 -6 33 -9 38 -3 6 -6 21 -6 35 0 14 -5 47 -11 73 -6 27 -9 52 -6 57 3 5 1 11 -4 14 -8 5 -12 27 -13 79 0 22 8 82 12 82 1 0 3 15 6 33 2 18 8 42 14 52 5 10 10 23 10 29 0 15 -25 14 -37 -1z m-12 -104 c-17 -69 -26 -83 -22 -34 2 25 36 131 39 122 1 -5 -6 -44 -17 -88z m-2 -179 l0 -20 -9 20 c-8 19 -9 19 -9 1 -1 -11 5 -27 13 -35 8 -9 17 -34 21 -56 l6 -40 -22 33 c-16 25 -23 52 -25 105 -4 69 -3 71 11 42 8 -16 14 -39 14 -50z m34 -188 c2 -12 8 -31 12 -42 17 -43 -14 1 -35 50 -20 47 -20 48 -2 31 11 -9 22 -27 25 -39z"/>
 <path d="M732 963 c-9 -4 -5 -15 14 -40 l26 -35 -28 -29 c-26 -28 -27 -29 -6 -29 12 0 27 10 33 22 l12 22 17 -22 c10 -12 25 -22 34 -22 22 0 20 9 -6 29 -20 17 -20 21 -9 50 8 17 17 31 22 31 15 0 10 17 -6 24 -10 4 -20 -3 -27 -19 -10 -23 -38 -35 -38 -17 0 16 -25 40 -38 35z"/>
 <path d="M1136 961 c-3 -4 6 -19 19 -31 30 -29 31 -40 4 -74 -20 -25 -20 -26 -1 -26 11 0 22 7 26 15 3 8 12 15 21 15 9 0 18 -7 21 -15 4 -8 16 -15 27 -15 19 0 19 2 -8 30 l-28 29 27 36 c25 32 25 35 8 35 -11 0 -27 -10 -35 -22 l-15 -23 -27 28 c-28 30 -31 31 -39 18z"/>
 <path d="M1437 964 c-2 -3 4 -37 15 -77 19 -70 20 -140 4 -222 -9 -45 -16 -88 -17 -105 0 -8 -3 -22 -6 -30 -3 -8 -7 -31 -9 -50 -2 -19 -17 -62 -34 -94 -16 -33 -27 -62 -24 -65 14 -13 94 93 123 162 58 140 65 287 18 382 -13 28 -27 60 -31 72 -7 21 -29 36 -39 27z m59 -152 c4 -42 2 -40 -15 23 -23 82 -25 103 -5 57 8 -18 17 -54 20 -80z m0 -140 c-13 -12 -17 8 -10 40 l9 33 3 -33 c2 -19 1 -36 -2 -40z m4 -41 c0 -16 -9 -39 -20 -52 l-21 -24 7 35 c6 30 24 70 31 70 2 0 3 -13 3 -29z m-43 -155 c-30 -65 -43 -74 -22 -17 18 52 35 84 42 77 3 -2 -6 -30 -20 -60z"/>
 <path d="M814 799 c-3 -6 -23 -9 -43 -8 -45 3 -102 -11 -95 -22 7 -12 150 -12 172 0 9 5 26 12 36 16 24 7 19 11 -26 18 -21 3 -40 1 -44 -4z"/>
 <path d="M1127 803 c-16 -3 -26 -10 -24 -16 2 -7 13 -11 25 -9 11 2 23 -2 27 -8 8 -12 162 -14 169 -1 7 11 -46 22 -96 21 -20 0 -39 4 -43 10 -3 5 -12 9 -18 9 -7 -1 -25 -4 -40 -6z"/>
 </g>
<g id="layer113" fill="#872e2c" stroke="none">
 <path d="M122 1958 c8 -71 54 -154 103 -188 24 -17 54 -30 67 -30 62 0 392 -110 420 -140 23 -25 28 -25 26 -2 -3 30 14 142 23 148 5 3 7 9 4 14 -3 4 9 52 25 105 47 151 83 135 -301 135 l-331 0 7 -32 c4 -18 16 -55 26 -83 11 -27 19 -54 19 -60 -1 -22 -40 73 -50 123 -8 36 -16 52 -27 52 -12 0 -15 -9 -11 -42z m193 -187 c-8 -7 -95 30 -90 38 2 5 24 -1 49 -13 25 -11 43 -22 41 -25z"/>
 <path d="M929 1978 c4 -13 11 -44 15 -70 6 -41 4 -49 -13 -60 -12 -7 -21 -16 -21 -20 0 -13 75 -78 91 -78 8 0 30 15 48 34 l34 35 -26 31 c-27 32 -28 54 -7 123 l9 27 -69 0 c-68 0 -69 -1 -61 -22z"/>
 <path d="M1169 1983 c12 -24 61 -185 67 -220 2 -15 7 -44 10 -63 6 -44 26 -110 32 -110 3 0 10 7 16 16 15 20 183 79 316 111 58 14 125 35 150 48 62 32 102 97 108 176 l4 59 -356 0 c-336 0 -356 -1 -347 -17z m651 -96 c-12 -32 -25 -57 -30 -57 -4 0 0 17 10 38 10 20 22 55 26 77 6 26 9 33 12 19 1 -11 -7 -46 -18 -77z m-50 -78 c0 -12 -62 -39 -87 -38 -10 0 0 7 22 15 22 8 44 19 49 24 13 13 16 13 16 -1z"/>
 <path d="M616 1331 c-23 -43 -19 -52 5 -13 12 18 19 35 16 38 -3 3 -13 -8 -21 -25z"/>
 <path d="M918 1343 c-61 -16 47 -39 126 -28 47 7 58 18 30 29 -18 7 -130 6 -156 -1z"/>
 <path d="M732 963 c-9 -4 -5 -15 14 -40 l26 -35 -28 -29 c-26 -28 -27 -29 -6 -29 12 0 27 10 33 22 l12 22 17 -22 c10 -12 25 -22 34 -22 22 0 20 5 -9 35 l-26 25 26 34 c22 28 23 35 10 40 -10 4 -19 -3 -27 -19 -10 -23 -38 -35 -38 -17 0 16 -25 40 -38 35z"/>
 <path d="M1136 961 c-3 -4 6 -19 19 -31 30 -29 31 -40 4 -74 -20 -26 -20 -26 0 -26 11 0 22 9 26 20 3 11 11 20 16 20 5 0 14 -9 21 -20 7 -11 22 -20 32 -20 18 0 17 3 -8 29 -30 31 -29 38 7 79 l20 22 -20 0 c-11 0 -28 -10 -36 -22 l-15 -23 -27 28 c-28 30 -31 31 -39 18z"/>
 <path d="M526 859 c-8 -42 0 -50 9 -9 4 17 5 34 2 36 -2 3 -7 -10 -11 -27z"/>
 <path d="M477 827 c-34 -83 -14 -255 42 -371 28 -57 56 -94 110 -141 21 -18 20 -15 -5 32 -16 29 -32 51 -38 50 -16 -3 -63 92 -81 161 -24 96 -29 175 -16 243 7 33 11 62 9 64 -2 2 -11 -15 -21 -38z"/>
 <path d="M1501 838 c14 -50 11 -200 -6 -265 -18 -72 -65 -173 -80 -173 -6 0 -21 -18 -34 -40 -30 -53 -12 -51 37 6 98 111 151 351 102 460 -24 52 -32 57 -19 12z"/>
 <path d="M685 770 c3 -5 17 -10 30 -10 13 0 27 5 30 10 4 6 -8 10 -30 10 -22 0 -34 -4 -30 -10z"/>
 <path d="M1245 770 c3 -5 19 -10 35 -10 16 0 32 5 35 10 4 6 -10 10 -35 10 -25 0 -39 -4 -35 -10z"/>
 <path d="M515 735 c14 -101 28 -171 36 -185 7 -11 8 -8 4 10 -12 63 -24 142 -23 148 1 4 -1 14 -5 22 -3 8 -8 22 -11 30 -4 8 -4 -3 -1 -25z"/>
 <path d="M1460 685 c-1 -5 -2 -14 -1 -19 1 -5 -1 -16 -4 -25 -4 -9 -8 -43 -10 -76 -3 -59 -3 -59 11 20 8 44 12 87 10 95 -2 8 -5 11 -6 5z"/>
 </g>
<g id="layer114" fill="#453f43" stroke="none">
 <path d="M122 1958 c8 -71 54 -154 103 -188 24 -17 54 -30 67 -30 62 0 392 -110 420 -140 23 -25 28 -25 26 -2 -3 30 14 142 23 148 5 3 7 9 4 14 -3 4 9 52 25 105 47 151 83 135 -301 135 l-331 0 7 -32 c4 -18 16 -55 26 -83 11 -27 19 -54 19 -60 -1 -22 -40 73 -50 123 -8 36 -16 52 -27 52 -12 0 -15 -9 -11 -42z m193 -187 c-8 -7 -95 30 -90 38 2 5 24 -1 49 -13 25 -11 43 -22 41 -25z"/>
 <path d="M929 1978 c4 -13 11 -44 15 -70 6 -41 4 -49 -13 -60 -12 -7 -21 -16 -21 -20 0 -13 75 -78 91 -78 8 0 30 15 48 34 l34 35 -26 31 c-27 32 -28 54 -7 123 l9 27 -69 0 c-68 0 -69 -1 -61 -22z"/>
 <path d="M1169 1983 c12 -24 61 -185 67 -220 2 -15 7 -44 10 -63 6 -44 26 -110 32 -110 3 0 10 7 16 16 15 20 183 79 316 111 58 14 125 35 150 48 62 32 102 97 108 176 l4 59 -356 0 c-336 0 -356 -1 -347 -17z m651 -96 c-12 -32 -25 -57 -30 -57 -4 0 0 17 10 38 10 20 22 55 26 77 6 26 9 33 12 19 1 -11 -7 -46 -18 -77z m-50 -78 c0 -12 -62 -39 -87 -38 -10 0 0 7 22 15 22 8 44 19 49 24 13 13 16 13 16 -1z"/>
 <path d="M935 1340 l-30 -8 36 -1 c19 0 40 -6 47 -13 9 -9 15 -9 24 0 7 7 26 12 43 13 29 1 29 1 5 9 -31 10 -86 10 -125 0z"/>
 <path d="M732 963 c-9 -4 -5 -15 14 -40 l26 -35 -28 -29 c-26 -28 -27 -29 -6 -29 12 0 27 10 33 22 l12 22 17 -22 c10 -12 25 -22 34 -22 22 0 20 5 -9 35 l-26 25 26 34 c22 28 23 35 10 40 -10 4 -19 -3 -27 -19 -10 -23 -38 -35 -38 -17 0 16 -25 40 -38 35z"/>
 <path d="M1136 961 c-3 -4 6 -19 19 -31 30 -29 31 -40 4 -74 -20 -26 -20 -26 0 -26 11 0 22 9 26 20 3 11 11 20 16 20 5 0 14 -9 21 -20 7 -11 22 -20 32 -20 18 0 17 3 -8 29 -30 31 -29 38 7 79 l20 22 -20 0 c-11 0 -28 -10 -36 -22 l-15 -23 -27 28 c-28 30 -31 31 -39 18z"/>
 <path d="M526 859 c-8 -42 0 -50 9 -9 4 17 5 34 2 36 -2 3 -7 -10 -11 -27z"/>
 <path d="M477 827 c-34 -83 -14 -255 42 -371 27 -56 61 -100 104 -135 16 -12 17 -12 10 5 -13 34 -38 71 -48 70 -16 -2 -62 93 -80 162 -24 96 -29 175 -16 243 7 33 11 62 9 64 -2 2 -11 -15 -21 -38z"/>
 <path d="M1501 838 c14 -50 11 -200 -6 -265 -18 -72 -65 -173 -80 -173 -6 0 -21 -18 -34 -40 -30 -53 -12 -51 37 6 98 111 151 351 102 460 -24 52 -32 57 -19 12z"/>
 <path d="M685 770 c3 -5 17 -10 30 -10 13 0 27 5 30 10 4 6 -8 10 -30 10 -22 0 -34 -4 -30 -10z"/>
 <path d="M1245 770 c3 -5 19 -10 35 -10 16 0 32 5 35 10 4 6 -10 10 -35 10 -25 0 -39 -4 -35 -10z"/>
 <path d="M515 735 c14 -101 28 -171 36 -185 7 -11 8 -8 4 10 -12 63 -24 142 -23 148 1 4 -1 14 -5 22 -3 8 -8 22 -11 30 -4 8 -4 -3 -1 -25z"/>
 <path d="M1460 685 c-1 -5 -2 -14 -1 -19 1 -5 -1 -16 -4 -25 -4 -9 -8 -43 -10 -76 -3 -59 -3 -59 11 20 8 44 12 87 10 95 -2 8 -5 11 -6 5z"/>
 </g>
<g id="layer115" fill="#573b2d" stroke="none">
 <path d="M122 1958 c8 -71 54 -154 103 -188 24 -17 54 -30 67 -30 62 0 392 -110 420 -140 23 -25 28 -25 26 -2 -3 30 14 142 23 148 5 3 7 9 4 14 -3 4 9 52 25 105 47 151 83 135 -301 135 l-331 0 7 -32 c4 -18 16 -55 26 -83 11 -27 19 -54 19 -60 -1 -22 -40 73 -50 123 -8 36 -16 52 -27 52 -12 0 -15 -9 -11 -42z m193 -187 c-8 -7 -95 30 -90 38 2 5 24 -1 49 -13 25 -11 43 -22 41 -25z"/>
 <path d="M941 1943 c24 -73 24 -81 -6 -95 -31 -14 -31 -21 -2 -49 60 -57 77 -58 127 -4 l25 27 -28 24 c-26 22 -27 27 -21 76 4 29 11 59 17 66 7 9 -6 12 -60 12 l-70 0 18 -57z"/>
 <path d="M1169 1983 c12 -24 61 -185 67 -220 2 -15 7 -44 10 -63 6 -44 26 -110 32 -110 3 0 10 7 16 16 15 20 183 79 316 111 58 14 125 35 150 48 62 32 102 97 108 176 l4 59 -356 0 c-336 0 -356 -1 -347 -17z m651 -96 c-12 -32 -25 -57 -30 -57 -4 0 0 17 10 38 10 20 22 55 26 77 6 26 9 33 12 19 1 -11 -7 -46 -18 -77z m-50 -78 c0 -12 -62 -39 -87 -38 -10 0 0 7 22 15 22 8 44 19 49 24 13 13 16 13 16 -1z"/>
 <path d="M935 1340 l-30 -8 36 -1 c19 0 40 -6 47 -13 9 -9 15 -9 24 0 7 7 26 12 43 13 29 1 29 1 5 9 -31 10 -86 10 -125 0z"/>
 <path d="M744 929 c31 -37 32 -41 6 -64 -11 -10 -20 -22 -20 -27 0 -15 22 -8 39 14 18 22 41 18 41 -8 0 -8 7 -14 15 -14 21 0 19 10 -6 37 l-22 22 27 36 c20 26 23 35 12 35 -8 0 -20 -9 -26 -20 -6 -11 -17 -20 -25 -20 -8 0 -19 9 -25 20 -6 11 -18 20 -26 20 -12 0 -10 -7 10 -31z"/>
 <path d="M1146 948 c4 -7 16 -23 26 -34 19 -21 19 -22 -7 -53 -25 -29 -26 -31 -7 -31 12 0 23 9 27 20 3 11 11 20 16 20 5 0 14 -9 21 -20 7 -11 19 -20 26 -20 9 0 7 9 -8 30 -22 31 -21 40 13 78 l20 22 -22 0 c-14 0 -25 -7 -28 -19 -8 -30 -29 -32 -43 -5 -8 13 -20 24 -27 24 -9 0 -11 -5 -7 -12z"/>
 <path d="M526 859 c-8 -42 0 -50 9 -9 4 17 5 34 2 36 -2 3 -7 -10 -11 -27z"/>
 <path d="M477 827 c-34 -83 -14 -255 42 -371 27 -56 61 -100 104 -135 16 -12 17 -12 10 5 -13 34 -38 71 -48 70 -16 -2 -62 93 -80 162 -24 96 -29 175 -16 243 7 33 11 62 9 64 -2 2 -11 -15 -21 -38z"/>
 <path d="M1501 838 c14 -50 11 -200 -6 -265 -18 -72 -65 -173 -80 -173 -6 0 -21 -18 -34 -40 -30 -53 -12 -51 37 6 98 111 151 351 102 460 -24 52 -32 57 -19 12z"/>
 <path d="M685 770 c3 -5 17 -10 30 -10 13 0 27 5 30 10 4 6 -8 10 -30 10 -22 0 -34 -4 -30 -10z"/>
 <path d="M1245 770 c3 -5 19 -10 35 -10 16 0 32 5 35 10 4 6 -10 10 -35 10 -25 0 -39 -4 -35 -10z"/>
 <path d="M515 735 c14 -101 28 -171 36 -185 7 -11 8 -8 4 10 -12 63 -24 142 -23 148 1 4 -1 14 -5 22 -3 8 -8 22 -11 30 -4 8 -4 -3 -1 -25z"/>
 <path d="M1460 685 c-1 -5 -2 -14 -1 -19 1 -5 -1 -16 -4 -25 -4 -9 -8 -43 -10 -76 -3 -59 -3 -59 11 20 8 44 12 87 10 95 -2 8 -5 11 -6 5z"/>
 </g>
<g id="layer116" fill="#63311f" stroke="none">
 <path d="M122 1958 c8 -71 54 -154 103 -188 24 -17 54 -30 67 -30 62 0 392 -110 420 -140 22 -23 32 -26 25 -7 -9 23 19 169 52 270 49 153 85 137 -300 137 l-331 0 7 -32 c4 -18 16 -55 26 -83 11 -27 19 -54 19 -60 -1 -22 -40 73 -50 123 -8 36 -16 52 -27 52 -12 0 -15 -9 -11 -42z m193 -187 c-8 -7 -95 30 -90 38 2 5 24 -1 49 -13 25 -11 43 -22 41 -25z"/>
 <path d="M941 1943 c24 -73 24 -81 -6 -95 -31 -14 -31 -21 -2 -49 60 -57 77 -58 127 -4 l25 27 -28 24 c-26 22 -27 27 -21 76 4 29 11 59 17 66 7 9 -6 12 -60 12 l-70 0 18 -57z"/>
 <path d="M1168 1993 c6 -2 12 -12 12 -21 0 -9 14 -61 30 -115 16 -54 29 -102 28 -105 -1 -4 1 -14 4 -22 3 -8 10 -42 16 -74 13 -69 18 -76 35 -52 16 22 179 80 317 113 58 14 125 35 150 48 62 32 102 97 108 176 l4 59 -358 -1 c-198 0 -353 -3 -346 -6z m652 -106 c-12 -32 -25 -57 -30 -57 -4 0 0 17 10 38 10 20 22 55 26 77 6 26 9 33 12 19 1 -11 -7 -46 -18 -77z m-50 -78 c0 -12 -62 -39 -87 -38 -10 0 0 7 22 15 22 8 44 19 49 24 13 13 16 13 16 -1z"/>
 <path d="M935 1340 l-30 -8 36 -1 c19 0 40 -6 47 -13 9 -9 15 -9 24 0 7 7 26 12 43 13 29 1 29 1 5 9 -31 10 -86 10 -125 0z"/>
 <path d="M744 929 c31 -37 32 -41 6 -64 -11 -10 -20 -22 -20 -27 0 -15 22 -8 39 14 18 22 41 18 41 -8 0 -8 7 -14 15 -14 21 0 19 10 -6 37 l-22 22 27 36 c20 26 23 35 12 35 -8 0 -20 -9 -26 -20 -6 -11 -17 -20 -25 -20 -8 0 -19 9 -25 20 -6 11 -18 20 -26 20 -12 0 -10 -7 10 -31z"/>
 <path d="M1146 948 c4 -7 16 -23 26 -34 19 -21 19 -22 -7 -53 -25 -29 -26 -31 -7 -31 12 0 23 9 27 20 3 11 11 20 16 20 5 0 14 -9 21 -20 7 -11 19 -20 26 -20 9 0 7 9 -8 30 -22 31 -21 40 13 78 l20 22 -22 0 c-14 0 -25 -7 -28 -19 -8 -30 -29 -32 -43 -5 -8 13 -20 24 -27 24 -9 0 -11 -5 -7 -12z"/>
 <path d="M1515 760 c12 -140 -40 -312 -119 -396 -19 -21 -33 -40 -30 -43 3 -3 25 15 49 41 51 56 100 167 114 259 13 82 9 185 -7 201 -11 11 -12 -1 -7 -62z"/>
 <path d="M464 794 c-10 -39 3 -192 22 -254 28 -95 74 -168 137 -219 16 -12 16 -12 5 10 -7 13 -26 36 -41 52 -64 63 -112 223 -105 357 3 79 -5 105 -18 54z"/>
 </g>
<g id="layer117" fill="#751315" stroke="none">
 <path d="M122 1958 c8 -71 54 -154 103 -188 24 -17 54 -30 67 -30 62 0 392 -110 420 -140 10 -11 21 -20 23 -20 23 0 -43 83 -79 101 -20 10 -20 10 -2 -5 34 -28 10 -28 -54 -1 -67 28 -201 69 -284 87 -28 6 -63 17 -78 24 -33 17 -74 92 -89 164 -13 62 -34 68 -27 8z"/>
 <path d="M553 1938 c-12 -34 -19 -66 -16 -72 3 -5 16 20 29 55 26 70 28 79 16 79 -4 0 -17 -28 -29 -62z"/>
 <path d="M768 1867 c-23 -79 -38 -153 -37 -183 1 -47 2 -45 18 36 10 47 30 121 44 165 27 82 33 115 20 115 -5 0 -25 -60 -45 -133z"/>
 <path d="M941 1943 c24 -73 24 -81 -6 -95 -31 -14 -31 -21 -2 -49 60 -57 77 -58 127 -4 l25 27 -28 24 c-26 22 -27 27 -21 76 4 29 11 59 17 66 7 9 -6 12 -60 12 l-70 0 18 -57z"/>
 <path d="M1168 1993 c6 -2 12 -12 12 -22 0 -9 14 -59 30 -110 17 -51 30 -98 29 -105 -1 -6 0 -18 3 -26 4 -8 11 -42 17 -74 13 -69 17 -75 34 -52 16 22 179 80 317 113 58 14 125 35 150 48 62 32 102 97 108 176 3 39 1 59 -7 59 -6 0 -11 -13 -11 -30 0 -16 -12 -59 -26 -94 -30 -75 -59 -98 -151 -116 -71 -14 -263 -74 -303 -95 -40 -21 -56 -20 -39 3 7 9 -4 1 -24 -17 l-37 -35 0 41 c0 58 -15 130 -51 244 -23 73 -36 99 -48 98 -10 0 -12 -2 -3 -6z"/>
 <path d="M1422 1943 c22 -60 39 -88 37 -62 -1 28 -36 113 -47 117 -8 2 -4 -18 10 -55z"/>
 <path d="M581 1798 c-18 -21 -29 -38 -24 -38 14 0 76 67 66 72 -4 3 -23 -13 -42 -34z"/>
 <path d="M1378 1834 c-4 -5 9 -26 28 -46 19 -21 34 -31 34 -24 0 8 -11 23 -23 33 -13 10 -26 25 -29 33 -2 8 -7 10 -10 4z"/>
 <path d="M935 1340 l-30 -8 36 -1 c19 0 40 -6 47 -13 9 -9 15 -9 24 0 7 7 26 12 43 13 29 1 29 1 5 9 -31 10 -86 10 -125 0z"/>
 <path d="M744 929 c31 -37 32 -41 6 -64 -11 -10 -20 -22 -20 -27 0 -15 22 -8 39 14 18 22 41 18 41 -8 0 -8 7 -14 15 -14 21 0 19 10 -6 37 l-22 22 27 36 c20 26 23 35 12 35 -8 0 -20 -9 -26 -20 -6 -11 -17 -20 -25 -20 -8 0 -19 9 -25 20 -6 11 -18 20 -26 20 -12 0 -10 -7 10 -31z"/>
 <path d="M1146 948 c4 -7 16 -23 26 -34 19 -21 19 -22 -7 -53 -25 -29 -26 -31 -7 -31 12 0 23 9 27 20 3 11 11 20 16 20 5 0 14 -9 21 -20 7 -11 19 -20 26 -20 9 0 7 9 -8 30 -22 31 -21 40 13 78 l20 22 -22 0 c-14 0 -25 -7 -28 -19 -8 -30 -29 -32 -43 -5 -8 13 -20 24 -27 24 -9 0 -11 -5 -7 -12z"/>
 <path d="M1518 775 c2 -19 8 -35 12 -35 5 0 7 12 5 28 -2 15 -4 30 -4 35 -1 4 -5 7 -9 7 -4 0 -6 -16 -4 -35z"/>
 <path d="M460 780 c0 -11 5 -20 10 -20 6 0 10 9 10 20 0 11 -4 20 -10 20 -5 0 -10 -9 -10 -20z"/>
 <path d="M1520 677 c0 -47 -35 -177 -61 -229 -12 -24 -38 -63 -57 -88 l-36 -45 38 35 c39 36 97 145 114 215 18 72 25 145 13 145 -6 0 -11 -15 -11 -33z"/>
 <path d="M466 638 c14 -109 54 -208 110 -271 44 -49 43 -40 -5 31 -55 81 -87 169 -94 261 -1 12 -5 21 -9 21 -4 0 -5 -19 -2 -42z"/>
 </g>
<g id="layer118" fill="#481b0c" stroke="none">
 <path d="M122 1958 c8 -71 54 -154 103 -188 24 -17 54 -30 67 -30 62 0 392 -110 420 -140 10 -11 21 -20 23 -20 23 0 -43 83 -79 101 -20 10 -20 10 -2 -5 34 -28 10 -28 -54 -1 -67 28 -201 69 -284 87 -28 6 -63 17 -78 24 -33 17 -74 92 -89 164 -13 62 -34 68 -27 8z"/>
 <path d="M553 1938 c-12 -34 -19 -66 -16 -72 3 -5 16 20 29 55 26 70 28 79 16 79 -4 0 -17 -28 -29 -62z"/>
 <path d="M768 1867 c-23 -79 -38 -153 -37 -183 1 -47 2 -45 18 36 10 47 30 121 44 165 27 82 33 115 20 115 -5 0 -25 -60 -45 -133z"/>
 <path d="M941 1943 c24 -73 24 -81 -6 -95 -31 -14 -31 -21 -2 -49 60 -57 77 -58 127 -4 l25 27 -28 24 c-26 22 -27 27 -21 76 4 29 11 59 17 66 7 9 -6 12 -60 12 l-70 0 18 -57z"/>
 <path d="M1168 1993 c6 -2 12 -12 12 -22 0 -9 14 -59 30 -110 17 -51 30 -98 29 -105 -1 -6 0 -18 3 -26 4 -8 11 -42 17 -74 13 -69 17 -75 34 -52 16 22 179 80 317 113 58 14 125 35 150 48 62 32 102 97 108 176 3 39 1 59 -7 59 -6 0 -11 -13 -11 -30 0 -16 -12 -59 -26 -94 -30 -75 -59 -98 -151 -116 -71 -14 -263 -74 -303 -95 -40 -21 -56 -20 -39 3 7 9 -4 1 -24 -17 l-37 -35 0 41 c0 58 -15 130 -51 244 -23 73 -36 99 -48 98 -10 0 -12 -2 -3 -6z"/>
 <path d="M1422 1943 c22 -60 39 -88 37 -62 -1 28 -36 113 -47 117 -8 2 -4 -18 10 -55z"/>
 <path d="M581 1798 c-18 -21 -29 -38 -24 -38 14 0 76 67 66 72 -4 3 -23 -13 -42 -34z"/>
 <path d="M1378 1834 c-4 -5 9 -26 28 -46 19 -21 34 -31 34 -24 0 8 -11 23 -23 33 -13 10 -26 25 -29 33 -2 8 -7 10 -10 4z"/>
 <path d="M744 929 c31 -37 32 -41 6 -64 -11 -10 -20 -22 -20 -27 0 -15 22 -8 39 14 18 22 41 18 41 -8 0 -8 7 -14 15 -14 21 0 19 10 -6 37 l-22 22 27 36 c20 26 23 35 12 35 -8 0 -20 -9 -26 -20 -6 -11 -17 -20 -25 -20 -8 0 -19 9 -25 20 -6 11 -18 20 -26 20 -12 0 -10 -7 10 -31z"/>
 <path d="M1146 948 c4 -7 16 -23 26 -34 19 -21 19 -22 -7 -53 -25 -29 -26 -31 -7 -31 12 0 23 9 27 20 3 11 11 20 16 20 5 0 14 -9 21 -20 7 -11 19 -20 26 -20 9 0 7 9 -8 30 -22 31 -21 40 13 78 l20 22 -22 0 c-14 0 -25 -7 -28 -19 -8 -30 -29 -32 -43 -5 -8 13 -20 24 -27 24 -9 0 -11 -5 -7 -12z"/>
 <path d="M1518 775 c2 -19 8 -35 12 -35 5 0 7 12 5 28 -2 15 -4 30 -4 35 -1 4 -5 7 -9 7 -4 0 -6 -16 -4 -35z"/>
 <path d="M465 787 c-4 -10 -5 -21 -1 -24 10 -10 18 4 13 24 -4 17 -4 17 -12 0z"/>
 <path d="M1520 677 c0 -47 -35 -177 -61 -229 -12 -24 -38 -63 -57 -88 l-36 -45 38 35 c39 36 97 146 114 215 17 69 24 145 12 145 -5 0 -10 -15 -10 -33z"/>
 <path d="M466 638 c14 -109 54 -208 110 -271 44 -49 43 -40 -5 31 -55 81 -87 169 -94 261 -1 12 -5 21 -9 21 -4 0 -5 -19 -2 -42z"/>
 </g>
<g id="layer119" fill="#351710" stroke="none">
 <path d="M122 1958 c8 -71 54 -154 103 -188 24 -17 54 -30 67 -30 13 0 50 -7 83 -15 77 -20 73 -18 190 -59 54 -20 101 -33 103 -31 13 13 -207 90 -343 120 -33 7 -72 19 -87 26 -35 17 -84 108 -93 172 -9 59 -29 64 -23 5z"/>
 <path d="M811 1990 c-1 -9 -17 -65 -36 -125 -19 -61 -35 -119 -34 -130 1 -23 0 -26 49 137 18 59 30 113 27 120 -4 9 -6 9 -6 -2z"/>
 <path d="M941 1943 c24 -73 24 -81 -6 -95 -31 -14 -31 -21 -2 -49 60 -57 77 -58 127 -4 l25 27 -28 24 c-26 22 -27 27 -21 76 4 29 11 59 17 66 7 9 -6 12 -60 12 l-70 0 18 -57z"/>
 <path d="M1165 1992 c11 -7 22 -41 72 -222 16 -56 22 -70 18 -40 -3 25 -19 88 -35 141 -17 53 -30 104 -30 113 0 9 -8 16 -17 16 -11 0 -14 -3 -8 -8z"/>
 <path d="M1852 1950 c-30 -125 -79 -179 -176 -194 -56 -9 -263 -74 -308 -97 -21 -10 -44 -19 -53 -19 -19 0 -45 -23 -45 -39 0 -16 11 -13 25 5 17 24 202 88 355 123 125 28 176 66 205 151 1 3 5 12 9 21 4 9 6 36 4 60 l-3 44 -13 -55z"/>
 <path d="M705 1610 c16 -16 31 -28 33 -25 7 7 -39 55 -52 55 -5 0 3 -13 19 -30z"/>
 <path d="M744 929 c31 -37 32 -41 6 -64 -11 -10 -20 -22 -20 -27 0 -15 22 -8 39 14 18 22 41 18 41 -8 0 -8 7 -14 15 -14 21 0 19 10 -6 37 l-22 22 27 36 c20 26 23 35 12 35 -8 0 -20 -9 -26 -20 -6 -11 -17 -20 -25 -20 -8 0 -19 9 -25 20 -6 11 -18 20 -26 20 -12 0 -10 -7 10 -31z"/>
 <path d="M1146 948 c4 -7 16 -23 26 -34 19 -21 19 -22 -7 -53 -25 -29 -26 -31 -7 -31 12 0 23 9 27 20 3 11 11 20 16 20 5 0 14 -9 21 -20 7 -11 19 -20 26 -20 9 0 7 9 -8 30 -22 31 -21 40 13 78 l20 22 -22 0 c-14 0 -25 -7 -28 -19 -8 -30 -29 -32 -43 -5 -8 13 -20 24 -27 24 -9 0 -11 -5 -7 -12z"/>
 <path d="M1513 601 c-7 -35 -26 -93 -43 -129 -17 -36 -28 -67 -25 -70 7 -7 62 117 75 171 7 24 10 55 8 68 -2 14 -8 -2 -15 -40z"/>
 <path d="M471 602 c18 -95 60 -192 98 -226 16 -14 12 -3 -14 40 -35 57 -75 167 -75 204 0 11 -4 21 -9 24 -5 3 -4 -15 0 -42z"/>
 </g>
<g id="layer120" fill="#0a0909" stroke="none">
 <path d="M947 1933 c15 -65 15 -66 -7 -83 -19 -14 -21 -20 -11 -38 14 -27 50 -52 74 -52 10 0 31 14 47 32 l30 32 -30 27 c-16 15 -28 34 -25 41 3 7 9 34 14 61 l8 47 -57 0 -58 0 15 -67z"/>
 <path d="M730 952 c0 -5 9 -17 20 -27 25 -23 25 -30 -1 -66 -24 -34 -6 -40 22 -6 l20 22 15 -22 c9 -13 21 -23 26 -23 5 0 0 13 -12 30 -22 31 -21 40 13 78 12 13 16 22 8 22 -6 0 -22 -12 -35 -26 l-22 -27 -21 27 c-21 26 -33 33 -33 18z"/>
 <path d="M1166 925 l27 -36 -23 -24 c-13 -14 -20 -28 -16 -32 5 -5 15 2 23 15 19 27 34 28 51 2 7 -11 17 -20 23 -20 6 0 1 12 -10 26 -26 33 -26 42 1 71 12 13 18 26 14 30 -4 4 -18 -6 -31 -22 -23 -30 -24 -30 -39 -10 -8 11 -16 23 -16 28 0 4 -7 7 -16 7 -11 0 -9 -8 12 -35z"/>
 </g>

</svg>