<?xml version="1.0" encoding="UTF-8" standalone="no"?>
<svg xmlns:rdf="http://www.w3.org/1999/02/22-rdf-syntax-ns#" xmlns="http://www.w3.org/2000/svg" height="267" viewBox="0 0 266.66666 266.66666" width="267" version="1.1" xmlns:cc="http://creativecommons.org/ns#" xmlns:dc="http://purl.org/dc/elements/1.1/">
 <g stroke-width="1.33">
  <path d="m21.6 263c1.51-9.29 7.5-20.2 13.2-23.9 2.94-1.92 6.22-3.5 7.3-3.5 6.12 0 51.7-14.8 55.1-18 3.28-2.97 3.71-2.62 4.65 3.63 1.43 9.61 3.52 18.6 6.75 29 1.7 5.5 3.46 11.6 3.89 13.7l.793 3.67h-92.1zm102 2.85c0-.983.847-4.6 1.88-8.05 1.84-6.12 1.81-6.31-1.37-8.39-3.79-2.49-3.33-2.78-7.71 4.89-1.89 3.3-3.44 5.15-3.44 4.12-.0226-2.65 7.1-13.4 11.9-18.1 2.23-2.14 4.05-4.36 4.05-4.93 0-.577-4.51-3.53-10-6.55-5.51-3.03-10.6-6.63-11.4-8.01-.738-1.38-1.88-6.78-2.53-12-.966-7.7-1.78-9.89-4.3-11.6-6.05-4.06-15.4-14.6-16.3-18.4-2.99-12.4-3.64-13.9-5.92-13.9-4.21 0-6.98-3.26-9.65-11.4-1.44-4.36-4.16-10.2-6.04-12.9-3.81-5.49-6.35-14.7-5.13-18.6.440-1.39 2.29-3.3 4.11-4.25 3.16-1.66 3.33-2.38 3.8-16.3.697-20.5 7.04-37.4 16.8-44.8 2.24-1.71 6.3-4.98 9.01-7.26 24.1-20.3 59.3-20.1 84.9.433 18.8 15.1 24.7 27.6 25.4 53.4.286 11.6.524 12.5 3.82 15.1 4.25 3.34 4.74 10.3 1.18 16.8-1.28 2.32-3.59 6.52-5.14 9.33-1.54 2.81-3.2 7.19-3.69 9.72-1.07 5.58-5.61 10.7-9.47 10.7-2.39 0-3.09 1.24-4.45 7.84-1.82 8.83-6.26 15.2-15.6 22.5-6.01 4.68-6.03 4.72-6.03 13.1 0 10.6-3.19 14.8-16.2 21.3-5.03 2.53-9.15 4.94-9.15 5.34 0 .405 1.8 2.25 4 4.1 4.83 4.06 4.97 5.75.826 9.65-2.76 2.59-3.02 3.63-2.03 7.9 2.46 10.6 2.22 10.9-7.46 10.9-6.36 0-8.67-.476-8.67-1.79zm31.1-1.06c.495-1.89-.795-5.26-3.84-10-4.8-7.5-5.49-9.17-3.24-7.78.745.460 2.79 3.65 4.55 7.08 2.13 4.15 3.44 5.57 3.91 4.24 3.03-8.53 7.5-26 8.23-32.1 1.18-10.1 2.34-11.8 5.76-8.71 3.19 2.88 23.9 10.3 42.2 15 19.3 5.01 23.8 7.61 27.9 16.1 1.88 3.85 3.8 9.72 4.25 13l.828 6.04h-91.4z" fill="#ebc4b8"/>
  <path d="m21.2 266c0-2.98 4.94-16.4 7.46-20.2 3.45-5.27 10.7-9.21 20.5-11.2 12.7-2.54 44.2-13.4 47.5-16.4 3.57-3.24 4.11-2.35 5.78 9.4.736 5.19 3.08 15 5.21 21.8 2.13 6.81 4.18 13.7 4.55 15.4l.687 3h-45.9c-37.5 0-45.9-.327-45.9-1.79zm103 0.7c0-0.6.940-4.26 2.09-8.12 1.97-6.62 1.95-7.14-.333-8.87-1.33-1.01-2.87-1.85-3.42-1.88-2.31-.0977-.661-3.04 4.49-8.04 3.02-2.93 6.2-5.33 7.06-5.33.863 0 3.94 2.44 6.84 5.43l5.27 5.43-3.65 3.16c-3.49 3.03-3.59 3.45-2.33 10.1.723 3.81 1.31 7.45 1.31 8.08 0 .633-3.9 1.15-8.67 1.15s-8.67-.491-8.67-1.09zm32.2-4.58c.692-3.12 2.47-9.57 3.95-14.3 1.48-4.77 3.52-13.7 4.52-19.8 1.01-6.13 2.17-11.5 2.59-11.9.417-.417 1.5.260 2.41 1.51 1.91 2.61 36.1 14.5 49 17.1 12.2 2.4 18.2 6.46 22.1 14.9 1.74 3.8 3.56 9.46 4.06 12.6l0.9 5.67h-90.8zm-35.5-42c-3.21-.817-13.1-6.91-14.4-8.9-.539-.807-.989-3.52-1-6.02-.0176-3.93-1.33-5.77-9.51-13.3-8.99-8.31-9.61-9.27-11.8-18.1-1.97-8.11-2.69-9.39-5.51-9.79-4.7-.658-7.52-3.7-8.56-9.24-.501-2.67-2.21-7.18-3.8-10-1.59-2.85-3.94-7.07-5.22-9.4-3.08-5.57-3.03-13.2.103-16 1.34-1.21 3.02-2.21 3.72-2.21.728 0 1.35-5.91 1.45-13.7.259-21.8 7.73-40.9 18.9-48.5 2.63-1.77 8.08-5.59 12.1-8.51 14.2-10.2 34.3-14.3 50.3-10.2 11.1 2.86 20.4 7.71 31.3 16.4 16 12.7 21.1 24 22.1 48.7.552 13.8.916 15.7 3.13 16.4 6.74 2.14 6.47 11.2-.681 22.9-2.58 4.22-5.38 10.5-6.23 14-1.71 6.96-3.23 8.75-8.02 9.48-2.71.411-3.59 1.82-5.49 8.82-2.87 10.6-4.67 13.3-13.6 20.3l-7.28 5.75-.0744 7.78c-.0529 5.53-.547 7.62-1.71 7.23-.901-0.3-4.86 1.15-8.8 3.22-6.27 3.3-8.51 3.75-18 3.61-5.98-.0851-12-.452-13.5-.815zm29.5-15c6.68-3.94 22.4-16.7 25.6-20.8 1.54-1.96 3.4-5.74 4.12-8.39 8.49-31.1 10.1-38.2 8.93-39-.867-.567-.492-4.32 1.06-10.7 3.12-12.7 3.18-18.9.297-35.1-4-23.6-7-30.3-14-37.1-8-7.8-16-12.5-26-15.1-18-4.6-37-1.3-51.7 9.1-13 8.9-16 14.9-20.4 40.9-3.6 21.2-3.7 23.2-.9 34.2 1.47 6.22 2.18 11.9 1.58 12.7-1.18 1.46 7.92 38.7 11.1 45.5 1.78 3.8 20.1 19.2 27.7 23.3 8.51 4.57 24.9 4.54 32.7-.0693zm-24.6-20c-5.12-1.29-6.17-2.08-5.07-3.86 1.13-1.82 15.2-3.08 20.7-1.85 4.98 1.12 6.74 3.51 3.51 4.75-3.94 1.51-14.8 2.06-19.1.960zm4.05-23.6c-4.64-3.63-4.56-4.45 1.06-11.2l2.78-3.33-.843 5.57c-.83 5.49-.778 5.58 3.38 6l4.23.425-3.15 2.94-3.15 2.94zm-33.1-26c0-.321 1.79-2.55 3.99-4.95l3.99-4.37-4.01-4.14c-2.21-2.28-3.7-4.45-3.33-4.82 1.41-1.41 8.7.558 8.7 2.34 0 2.58 1.68 2.31 4.24-.681 2.08-2.43 1.89-2.56-4.71-3.39-10.7-1.34-20-4.03-20.6-6.02-.497-1.49 2.39-1.64 16.5-.858 9.39.522 18.2 1.55 19.6 2.29 3.09 1.65 2.56 5.63-.839 6.28-2.57.495-8.69 6.61-8.77 8.76-.0232.664 1.49 3.21 3.36 5.67l3.4 4.46h-3.98c-2.81 0-4.23-.785-4.82-2.67-.466-1.47-1.46-2.67-2.21-2.67-.753 0-1.68 1.2-2.07 2.67-.494 1.89-1.82 2.67-4.54 2.67-2.11 0-3.84-.263-3.84-.584zm53.3-.140c0-.399 1.5-2.34 3.33-4.32s3.31-4.2 3.29-4.94c-.0566-1.81-6.18-8.68-7.73-8.68-2.18 0-4.11-3.36-2.99-5.18 2.08-3.37 39.6-5.86 38.4-2.55-.659 1.98-10.6 4.58-22.2 5.85-4.83.526-7.88 1.26-6.78 1.63 1.1.372 2.66 1.57 3.46 2.66 1.54 2.09 5.14.971 3.81-1.18-.422-.683 1.49-1.24 4.24-1.24h5.01l-4.25 4.38-4.25 4.38 3.99 4.37c2.19 2.4 3.99 4.63 3.99 4.95 0 .321-1.76.584-3.91.584-2.74 0-4.16-.799-4.76-2.67-.466-1.47-1.46-2.67-2.21-2.67-.753 0-1.68 1.2-2.07 2.67-.494 1.89-1.82 2.67-4.54 2.67-2.11 0-3.84-.326-3.84-.725zm-69.8 23.2c-.461-2.3-1.84-4.92-3.06-5.81-1.22-.892-2.42-3.06-2.67-4.81-.335-2.38-.132-2.7.801-1.25.687 1.06.953 2.41.592 3-.362.585-.0105 1.06.780 1.06 1.64 0 .609-5.51-2-10.6-1.64-3.23-1.68-3.18-1.68 1.76 0 2.79-.362 5.43-.805 5.87-.443.443.160 2.28 1.34 4.08s1.48 2.86.671 2.36c-2.55-1.58-1.61 3.11 1.2 5.91 3.97 3.97 5.81 3.39 4.83-1.52zm113 1.6c1.29-1.42 2.06-3.37 1.72-4.33-.341-.959.213-3.39 1.23-5.41 1.28-2.53 1.38-3.67.339-3.67-.904 0-1.21-1.21-.756-3.01.416-1.66.260-3.81-.346-4.79-.793-1.28-1.38-.721-2.11 2.01-1.61 6.06-1.87 9.86-.619 9.09.637-.394.828-1.75.424-3.01-.585-1.83-.463-1.91.602-.412 1.48 2.08.675 5.45-1.29 5.45-1.08 0-5.12 7.87-5.12 9.96 0 1.69 3.78.492 5.93-1.88zm6.98-24.3c-.426-1.06-.742-.748-.806.806-.0579 1.41.257 2.19 0.7 1.75.443-.443.490-1.59.105-2.56zm-128-6c-.0303-1.33-.731-.882-1.95 1.25-2.1 3.67-2.77 1.27-.718-2.57.899-1.68.713-3.15-.624-4.91-1.75-2.31-1.91-2.07-1.95 3.04-.0233 3.06.354 6.59.839 7.85.822 2.14 1 2.13 2.67-.146.982-1.34 1.76-3.38 1.74-4.52zm132-3.67c.0252-3.61-2.08-5.14-3.17-2.3-1.2 3.13.570 9.29 2.02 7.01.625-.986 1.15-3.11 1.16-4.71zm-136-6c-.443-.443-1.59-.490-2.56-.105-1.06.426-.748.742.806.806 1.41.0579 2.19-.257 1.75-0.7zm138 .218c0-.323-.6-.959-1.33-1.41-.733-.453-1.33-.189-1.33.588s.6 1.41 1.33 1.41c.733 0 1.33-.265 1.33-.588z" fill="#daaa9b"/>
  <path d="m21.8 265c.381-1.28 1.11-4.13 1.61-6.33 2.66-11.5 12.7-23.3 20-23.3 8.2 0 52.1-14.5 54.8-18.2 1.33-1.75 1.79-1.27 2.99 3.05.782 2.82 1.43 6.74 1.43 8.71.004 1.97 2.11 10.5 4.67 19 2.57 8.47 4.67 16.3 4.67 17.4 0 1.76-5.79 2.02-45.4 2.02-42.6 0-45.4-.143-44.7-2.33zm103 0c3.94-13.6 3.94-14 .196-16.8l-3.55-2.59 5.03-5.15c2.77-2.83 6.29-5.15 7.83-5.15s4.87 2.15 7.4 4.77l4.59 4.77-3.77 3.03c-3.91 3.14-3.99 4.11-1.47 16.4.589 2.87.234 3-8.17 3-7.73 0-8.7-.279-8.1-2.33zm31.6-2.84c.639-2.84 2.65-9.89 4.48-15.7 1.82-5.77 3.72-14.1 4.21-18.5.494-4.4 1.46-9.1 2.15-10.4 1.14-2.22 1.4-2.25 2.83-.295 2.01 2.75 26.6 11.7 42.6 15.5 15.2 3.61 23.1 7.38 26.3 12.6 2.43 3.97 6.71 16.9 6.71 20.2 0 1.42-8.68 1.76-45.2 1.76h-45.2zm3.85-50.5c-.398-1.04-2.92-1.62-6.64-1.53-11.9.297-32.1.194-35.7-.181-2.03-.211-5.31.0221-7.29.518-3.47.87-3.63.667-4.47-5.66-.771-5.81-1.54-7.05-6.7-10.8-8.18-5.87-12.3-11.8-14.9-21.5-2-7.38-2.72-8.47-6.26-9.42-4.34-1.16-7.4-4.42-7.23-7.71.0909-1.79.206-1.81.841-.0785 1.32 3.58 4.74 6.67 7.4 6.67 1.94 0 2.37-.595 1.69-2.33-.504-1.28-2.03-6.77-3.4-12.2-2.98-11.8-4.67-14.1-5.99-8.05-.732 3.33-1.22 3.88-2.1 2.32-.646-1.15-.579-3.99.155-6.55.968-3.37.763-6.11-.813-10.9-2.22-6.68-2.69-7.08-5.89-5.01-1.71 1.1-1.66 1.3.333 1.31 1.92.0168 2.37 1.37 2.56 7.69.326 11 .373 11.2 2.86 15.9 1.24 2.35 2.25 5.28 2.25 6.52s-1.76-1.24-3.92-5.52-3.56-8.35-3.13-9.06c.437-.707.145-.884-.649-.393s-1.74-.167-2.11-1.46c-2.9-10.3-2-15.4 3.02-17 2.26-.718 2.55-2.18 2.56-13.1.0125-14.1 2.78-26.7 7.98-36.3 3.98-7.34 20.2-21.2 31.4-26.9 12.8-6.5 33.8-8.57 44.2-4.36 3.66 1.48 1.42 1.47-7.92-.0633-23.3-3.82-52 10-59.1 28.4-3.82 9.99-8.73 39.9-7.9 48.2.370 3.67 1.48 10.2 2.46 14.6 1.42 6.27 1.44 8.01.119 8.45-.915.305-1.39.998-1.06 1.54.335.542 3.06 10.5 6.06 22.2 6.2 24.2 6.63 24.8 25.7 39.3 11.6 8.78 15.3 9.92 29.5 9.01 8.06-.517 10.7-1.31 15.6-4.72 9.46-6.6 21.5-16.7 24.1-20.3 3.26-4.5 13.6-45.2 12-47.2-.774-.939-.194-5.96 1.56-13.5l2.79-12-3.04-17.7c-4.77-27.9-6.19-31.8-14.3-39.8-3.87-3.8-10.8-8.73-15.4-11-4.6-2.23-7.59-4.07-6.65-4.09 4.29-.0850 15.7 7.26 31.4 20.2 5.3 4.37 10.9 15.4 13.5 26.7 2.37 10.3 2.87 31.1.873 36.2-.809 2.06-1.47 4.58-1.47 5.59s-.544 2.17-1.21 2.58c-.709.438-.620 2.66.216 5.39 1.02 3.32 1.01 5.5-.0349 7.67-1.39 2.88-1.46 2.82-1.55-1.23-.173-8.15-2.43-5.6-5.92 6.67-4.19 14.8-4.16 14.3-.916 14.3 3.15 0 6.74-4.8 6.74-9.02 0-1.7 1.25-5.55 2.79-8.55 1.92-3.76 2.85-8.3 3-14.6.153-6.53.713-9.14 1.96-9.15 1.04-.007 1.34-.686.744-1.68-.680-1.13-.278-1.08 1.25.163 1.54 1.25 2.25 3.8 2.24 8-.0133 3.88-.438 5.51-1.15 4.39-.857-1.35-1.3-1.11-1.86 1-0.4 1.53-.183 2.44.482 2.03 2.07-1.28 1.36.274-3.46 7.6-2.57 3.9-4.67 8.67-4.67 10.6 0 4.72-4.76 10.5-8.62 10.5-2.73 0-3.37 1.12-5.41 9.46-2.42 9.86-6.01 14.8-16.6 22.9-3.98 3.03-4.72 4.5-5.36 10.6-.407 3.89-1.03 6.32-1.38 5.39zm-37.1-28.2c-3.91-2.48.204-4.13 10.2-4.11 11.5.0229 15.7 1.44 11.2 3.84-3.26 1.75-18.8 1.94-21.4.272zm6.84-22.7c-3.64-3.03-3.67-3.81-.333-8.08l2.61-3.33.0297 4.42c.0163 2.43.651 5.58 1.41 7 1.74 3.24.182 3.24-3.71-.012zm-33.7-27c.0264-.55 1.48-2.75 3.23-4.89l3.18-3.89-3.39-4.44-3.39-4.44h2.94c1.62 0 4.01 1.32 5.32 2.93l2.37 2.93.930-2.93c.622-1.96 2-2.93 4.17-2.93 4.04 0 4.03.345-.0952 4.8l-3.34 3.6 3.34 4.38c4.12 5.4 4.13 5.89.161 5.89-2.06 0-3.42-.941-3.88-2.67-.384-1.47-1.33-2.67-2.11-2.67-.776 0-2.05 1.2-2.84 2.67-1.34 2.5-6.72 3.86-6.62 1.67zm53.3.244c0-.416 1.48-2.69 3.29-5.06l3.29-4.31-3.29-3.54c-4.09-4.41-4.1-4.99-.0429-4.99 2.07 0 3.55.963 4.09 2.67.466 1.47 1.37 2.67 2 2.67.634 0 1.53-1.2 2-2.67.873-2.75 7.33-3.93 7.33-1.33 0 .733-.531 1.33-1.18 1.33s-2.14 1.46-3.31 3.26c-2.02 3.08-1.95 3.47 1.18 7.19 4.11 4.88 4.12 5.55.135 5.55-2.06 0-3.42-.941-3.88-2.67-.384-1.47-1.33-2.67-2.11-2.67-.776 0-2.05 1.2-2.84 2.67-1.26 2.35-6.67 3.9-6.67 1.91zm-36-18.8c-16.1-2.45-28.1-4.92-28.7-5.92-1.07-1.74 27.5-1.51 32.5.253 2.31.805 4.2 1.89 4.2 2.4 0 1.2-2.97 4.19-3.93 3.95-.403-.0999-2.23-.409-4.07-.687zm30.9-2.74c.241-1.25 1.93-2.69 3.76-3.2 5.15-1.43 34.1-1.4 32.6.0437-1.79 1.75-22.3 5.43-30.2 5.43-5.52 0-6.54-.377-6.18-2.27z" fill="#c58875"/>
  <path d="m21.2 267c0-2.27 5.79-18.3 7.78-21.5 3.22-5.22 11.1-8.93 26.9-12.6 16-3.76 40.2-12.6 42.2-15.4 1.4-1.92 1.63-1.89 2.29.299.405 1.33 1.39 6.63 2.18 11.8.794 5.13 3.22 14.9 5.38 21.7 2.17 6.79 3.94 13.2 3.94 14.3 0 1.72-6.09 1.98-45.3 1.98-24.9 0-45.3-.237-45.3-.526zm105-7.78 1.94-8.31-3.48-2.54-3.48-2.54 5.03-5.15c2.77-2.83 6.29-5.15 7.83-5.15s4.87 2.15 7.4 4.77l4.59 4.77-3.81 3.06c-3.49 2.8-3.73 3.56-2.9 8.9 0.5 3.21 1.21 6.88 1.57 8.17.579 2.05-.390 2.33-7.98 2.33h-8.64zm29.1 6.64c4.23-13.1 8.03-27.8 9.49-36.9.999-6.15 2.13-11.5 2.51-11.9.381-.381 1.75.252 3.03 1.41 2.96 2.65 35.3 13.6 47.7 16.1 13.4 2.74 18.3 6.06 22.4 15.3 1.84 4.2 3.75 9.88 4.23 12.6l.875 5h-45.4c-35.7 0-45.2-.355-44.8-1.67zm-32.9-56.6c.962-.385 2.11-.338 2.56.105.443.443-.344.758-1.75 0.7-1.55-.064-1.87-.380-.806-.806zm-14.6-8.09c-1.66-2.11-1.61-2.16.503-.503 1.28 1.01 2.33 2.06 2.33 2.33 0 1.1-1.09.391-2.84-1.83zm15.8-17.2c-1.28-.372-2.33-1.17-2.33-1.77 0-1.87 3.9-2.71 12.4-2.69 8.2.0204 13.1 1.57 11.1 3.53-1.2 1.2-17.8 1.92-21.2.926zm5.8-24.1-2.83-2.33 2.77-4 2.77-4-.879 4.39c-.544 2.72-.264 5.13.736 6.33 2.2 2.65.861 2.45-2.57-.388zm-59-23c.444-3.94-.0635-8.55-1.37-12.4-1.34-3.95-2.07-10.9-2.07-19.7 0-23.3 7.71-43 19.3-49.3 2.51-1.36 2.53-1.28.476 1.85-3.45 5.26-6.39 15.3-9.32 31.7-3.25 18.2-3.33 24.9-.436 36.1 2.47 9.53 1.98 12.1-2.19 11.7-2.12-.234-3.25.607-4.01 3.01-.696 2.18-.819 1.16-.356-2.94zm126 .851c0-1.48-.774-1.84-2.67-1.24-3.99 1.26-4.52-1.94-2.11-12.5 1.17-5.13 2.12-11.4 2.12-14 0-9.01-6.73-41.5-9.97-48.1-1.78-3.64-3.05-6.8-2.83-7.02 1.04-1.04 7.83 5.77 10.8 10.8 7.08 12.1 9.05 20.2 9.2 38.1.113 13.6-.316 17.7-2.36 22.2-2.02 4.49-2.22 6.34-1.07 9.65.859 2.46.923 4.09.162 4.09-.695 0-1.26-.940-1.26-2.09zm-98.8-3c0-.444 1.52-2.61 3.38-4.82l3.38-4.01-3.44-4.51-3.44-4.51h3.31c2.14 0 3.61.943 4.16 2.67.466 1.47 1.46 2.67 2.21 2.67.753 0 1.68-1.2 2.07-2.67.456-1.75 1.82-2.67 3.94-2.67h3.25l-3.44 4.51-3.44 4.51 3.38 4.01c4.04 4.8 4.16 5.63.862 5.63-1.38 0-3.56-1.6-4.84-3.56l-2.33-3.56-1.86 3.56c-1.6 3.06-7.11 5.19-7.11 2.75zm53.3 0c0-.444 1.52-2.61 3.38-4.82l3.38-4.01-3.44-4.51-3.44-4.51h3.31c2.14 0 3.61.943 4.16 2.67.466 1.47 1.46 2.67 2.21 2.67.753 0 1.68-1.2 2.07-2.67.460-1.76 1.82-2.67 3.99-2.67h3.3l-3.45 4.1c-3.61 4.29-3.34 6.79 1.14 10.5 2.8 2.32 2.61 4.06-.441 4.06-1.38 0-3.56-1.59-4.83-3.54l-2.32-3.54-2.15 3.54c-1.85 3.06-6.86 5.05-6.86 2.73zm52.6-6.6c.0183-3.26.483-5.92 1.03-5.93 1.3-.005 1.26 8.19-.0536 10.3-.557.876-.998-1.07-.980-4.33zm-141 .267c-.596-2.82-.746-5.47-.332-5.89 1.51-1.51 2.25.875 1.84 5.89l-.423 5.13zm38-15c-18.4-3.08-17.9-4.71 1.31-4.2 11.4.303 17.5 1.01 19 2.21 5.31 4.41-1.75 5.1-20.3 1.99zm46 1.25c-3.49-3.49 5.32-5.76 22.4-5.77 16.7-.009 15.6 1.9-2.66 4.64-14.8 2.23-18.4 2.43-19.7 1.13z" fill="#a56e5e"/>
  <path d="m23.2 261c3.84-14.6 10.4-22.8 19.8-24.7 19.7-4.09 50.5-14 54.4-17.5 2.8-2.53 2.68-2.82 5.29 12.8.799 4.77 3.21 14.3 5.36 21.3 2.15 6.94 3.91 13.1 3.91 13.7 0 .579-20.3 1.05-45.2 1.05h-45.3zm102 4.48c0-1.14.696-4.84 1.55-8.22 1.43-5.67 1.33-6.32-1.33-8.47-3.89-3.15-3.66-4.27 1.83-9.1 5.73-5.03 7.26-5.11 12.5-.686 4.96 4.17 5.16 6.66.830 10.1-1.8 1.42-3 3.3-2.67 4.19.331.890 1.13 4.47 1.77 7.95l1.17 6.33h-7.83c-6.2 0-7.83-.433-7.83-2.08zm31.3-2.89c.513-2.73 2.35-9.48 4.08-15s3.81-14.2 4.61-19.3c1.62-10.2 2.51-12.5 3.98-10.1 1.4 2.27 30.8 12.6 43.4 15.3 5.87 1.25 13.4 3.57 16.6 5.16 8.55 4.15 11.7 9.31 15.3 25.2l.826 3.67h-89.6zm-30-78.7c-6.01-1.08-5.77-2.81.506-3.75 6.71-1.01 18.2.225 18.2 1.95 0 2.07-11.2 3.15-18.7 1.8zm-54-51c-4.49-11.8-5.46-16.7-5.44-27.4.0319-18.8 5.65-36.8 14.3-46 4.2-4.42 6.73-4.84 4-.667-3.56 5.44-6.98 20-11.2 47.8-.615 4.02 1.6 17.6 4.38 26.9 1.1 3.66-4.62 3.02-6.01-.667zm117 1.77c0-.675 1.23-6.41 2.74-12.8 2.58-10.8 2.62-12.1.744-21.8-1.1-5.64-2.38-12.9-2.86-16.2-1.23-8.59-4.57-20.2-6.87-23.8-3.08-4.87-1.04-4.94 3.66-.132 8.47 8.66 13.5 24.9 13.9 44.4.186 10.5-.337 14.7-2.53 20.7-1.52 4.12-3.25 8.23-3.84 9.15-1.25 1.93-4.92 2.26-4.92.439zm-88.8-4c3.91-4.08 3.81-5.1-.994-10.4l-2.7-3h3.41c2.29 0 3.64.877 4.11 2.67.384 1.47 1.33 2.67 2.11 2.67.776 0 2.05-1.2 2.84-2.67.785-1.47 2.31-2.67 3.38-2.67 2.72 0 2.44 1.82-.714 4.67-3.5 3.17-3.37 4.45.916 8.93 3.57 3.73 3.58 3.74.547 3.74-1.67 0-4.1-1.32-5.41-2.93l-2.37-2.93-1.83 2.93c-1.01 1.61-3 2.93-4.42 2.93-2.31 0-2.19-.424 1.13-3.89zm53.4-.109 3.83-4-2.92-3.95c-3.56-4.81-3.6-5.39-.406-5.39 1.39 0 2.82 1.19 3.21 2.67.384 1.47 1.33 2.67 2.11 2.67.776 0 2.05-1.2 2.84-2.67.785-1.47 2.31-2.67 3.38-2.67 2.72 0 2.44 1.82-.714 4.67-3.48 3.15-3.36 4.61.721 9.01 3.3 3.56 3.31 3.65.547 3.65-1.56 0-3.91-1.32-5.21-2.93l-2.37-2.93-1.83 2.93c-1.01 1.61-3 2.93-4.42 2.93-2.3 0-2.15-.460 1.24-4zm-49-17c-6.89-1.01-12.8-2.15-13.2-2.54-.982-.982 23.7-.843 27.5.154 3.24.867 3.35 3.67.168 4.02-1.04.112-7.52-.623-14.4-1.63zm42.5.188c0-2.62 4.5-3.41 18.7-3.25l12.7.137-8.67 1.67c-15.4 2.97-22.7 3.43-22.7 1.44z" fill="#664638"/>
  <path d="m23.3 264c3.22-14.6 8.01-22.8 14.9-25.4 2.03-.784 8.79-2.68 15-4.22 18.2-4.5 40.4-12.2 43.6-15l2.93-2.67.616 3.17c.339 1.74 1.29 7.27 2.12 12.3.828 5.01 2.46 11.9 3.63 15.3 1.17 3.42 2.87 9.37 3.77 13.2l1.64 7h-85.4l.818-4.33c.450-2.38 1.92-7.3 3.27-10.9 1.35-3.62 2.18-6.86 1.85-7.19-.967-.967-5.93 11.5-6.84 17.2-.459 2.87-1.37 5.22-2.02 5.22-.654 0-.824-1.65-.378-3.67zm22.7-24.4c7.67-2.54 7.72-2.58 1.87-1.76-7.31 1.02-13.7 4.13-12.5 6.06.605.979 1.18.936 1.84-.138.529-.856 4.5-2.73 8.83-4.16zm16.5-4.57c2.57-.988 3.77-1.82 2.67-1.84-1.1-.0227-3.8.783-6 1.79-5.15 2.36-2.75 2.39 3.33.0481zm8.97-2.81c-.443-.443-1.59-.490-2.56-.105-1.06.426-.748.742.806.806 1.41.0579 2.19-.257 1.75-0.7zm54.4 29.8c.516-3.12 1.53-6.79 2.26-8.17 1.06-2.01.606-3.07-2.26-5.36l-3.58-2.85 4.83-4.98c2.66-2.74 5.59-4.98 6.51-4.98.921 0 3.74 2.14 6.27 4.76l4.59 4.76-3.68 3.19c-3.45 2.99-3.6 3.55-2.37 8.9 2.36 10.2 2.27 10.4-6.07 10.4h-7.45zm30 4.51c0-.639 1.8-7.39 3.99-15 2.2-7.61 4.63-17.4 5.4-21.8 2.19-12.4 2.54-13.3 4.39-10.7 1.83 2.49 32.1 12.8 47 16.1 14.6 3.19 18.7 5.99 23.2 15.9 3.93 8.65 5.94 16.8 4.15 16.8-.598 0-1.81-3.15-2.7-7-.888-3.85-2.82-9.1-4.29-11.7-2.86-5-2.76-4.23 1.33 9.67l2.65 9h-42.6c-23.4 0-42.6-.523-42.6-1.16zm75.9-22.1c1.3-1.56.845-2.3-2.44-4-2.22-1.15-5.41-2.07-7.09-2.05-2.31.022-1.65.673 2.69 2.64 3.17 1.44 5.38 3.22 4.92 3.97-1.25 2.03.0944 1.64 1.92-.560zm-14.3-6.97c-.917-.370-2.42-.370-3.33 0-.917.370-.167.673 1.67.673 1.83 0 2.58-.303 1.67-.673zm-90.7-53.4c-6.31-.853-5.3-2.62 2-3.5 6.77-.814 17.9.597 15.7 1.99-2 1.26-12.7 2.18-17.7 1.51zm-26-55c3.43-4.82 3.42-5.25-.142-9.04-2.63-2.8-2.68-3.09-.480-3.09 1.33 0 3.18 1.04 4.11 2.32 1.61 2.2 1.82 2.2 4.25 0 3.94-3.57 6.71-2.91 3.25.770-3.57 3.8-3.57 4.22-.142 9.04 3.26 4.58.880 5.3-2.88.872l-2.55-3-2.55 3c-3.76 4.43-6.14 3.7-2.88-.872zm52.6.872c3.8-5.22 3.89-6.39.747-9.73-2.74-2.92-2.81-3.27-.649-3.27 1.33 0 3.18 1.04 4.11 2.32 1.61 2.2 1.82 2.2 4.25 0 4.28-3.88 6.55-2.7 2.65 1.37l-3.53 3.68 3.38 4.32c2.43 3.11 2.84 4.32 1.44 4.32-1.06 0-2.89-1.35-4.06-3l-2.13-3-2.58 3c-1.42 1.65-3.31 3-4.2 3-1.1 0-.916-.962.566-3zm44.4-13.7c.424-3.67.986-6.92 1.25-7.22.997-1.16.240 8.67-.864 11.2-.743 1.72-.881.289-.385-4zm-130 2c0-1.83.303-2.58.673-1.67.370.917.370 2.42 0 3.33-.370.917-.673.167-.673-1.67zm-1.11-15.3c.0059-5.13.247-7.07.536-4.3s.284 6.97-.0108 9.33c-.295 2.37-.531.104-.525-5.03zm27.9 6.41c1.3-.338 3.1-.316 4 .0494.903.365-.159.642-2.36.615-2.2-.0272-2.94-.326-1.64-.664zm74 .0409c.917-.370 2.42-.370 3.33 0 .917.370.167.673-1.67.673-1.83 0-2.58-.303-1.67-.673zm-96.9-5.23c.0640-1.55.380-1.87.806-.806.385.962.338 2.11-.105 2.56-.443.443-.758-.344-0.7-1.75zm2.88-13.9c0-1.83.458-5.13 1.02-7.33.908-3.57 1.02-3.64 1.02-.667 0 1.83-.458 5.13-1.02 7.33-.908 3.57-1.02 3.64-1.02.667zm124 .556c.064-1.55.380-1.87.806-.806.385.962.338 2.11-.105 2.56-.443.443-.758-.344-0.7-1.75zm-131-3.6c-.0216-1.47.476-3.87 1.11-5.33 1.46-3.4 1.46.108 0 4.67-.858 2.68-1.08 2.81-1.11.667zm129-2.8c.064-1.55.380-1.87.806-.806.385.962.338 2.11-.105 2.56-.443.443-.758-.344-0.7-1.75zm-8.76-21.4c-1.26-1.92-1.63-3.09-.827-2.59 1.54.951 4.64 6.09 3.68 6.09-.308 0-1.59-1.57-2.85-3.5zm-107-3.6c0-.277 1.05-1.33 2.33-2.33 2.11-1.66 2.16-1.61.503.503-1.74 2.22-2.84 2.93-2.84 1.83zm102-2.6c-1.69-2.81-1.66-2.84.638-.638 1.32 1.27 2.12 2.59 1.77 2.94-.351.351-1.43-.685-2.4-2.3z" fill="#612f1e"/>
  <path d="m78.6 264c-2.09-5.49-1.42-7.38.805-2.28 1.08 2.47 1.64 4.8 1.26 5.18-.383.383-1.31-.926-2.07-2.91zm26.8-12.8c-2.5-8.94-4.72-19.3-4.93-23.1l-.389-6.83 1.11 6.88c.609 3.78 3.03 13.2 5.37 20.9 2.35 7.74 4.07 15 3.83 16.2-.243 1.18-2.49-5.18-4.99-14.1zm19.9 14.3c0-.983.884-4.72 1.96-8.31 1.94-6.45 1.92-6.56-1.44-9.23l-3.4-2.71 4.83-4.98c2.66-2.74 5.41-4.98 6.12-4.98.709 0 3.53 2.11 6.27 4.69l4.98 4.69-3.68 3.04c-3.56 2.94-3.64 3.28-2.33 10.2.743 3.92 1.35 7.64 1.35 8.27 0 .633-3.3 1.15-7.33 1.15-5.24 0-7.33-.510-7.33-1.79zm31.4-1.77c.466-2.08 2.57-9.48 4.67-16.4 2.1-6.97 4.42-15.4 5.15-18.7l1.33-6-.689 7.22c-.379 3.97-2.46 12.7-4.61 19.5-2.16 6.74-3.93 13.2-3.93 14.4 0 1.16-.624 2.5-1.39 2.97-.904.559-1.09-.459-.539-2.92zm30 2.22c.0107-1.1.868-3.8 1.9-6l1.89-4-.792 4c-.991 5.01-3.03 9.08-3 6zm56-4.78c.064-1.55.380-1.87.806-.806.385.962.338 2.11-.105 2.56-.443.443-.758-.344-0.7-1.75zm-162-20.9-2.54-3 3 2.54c2.82 2.39 3.61 3.46 2.54 3.46-.253 0-1.6-1.35-3-3zm106-.333c1.72-1.83 3.43-3.33 3.8-3.33.367 0-.743 1.5-2.46 3.33s-3.43 3.33-3.8 3.33c-.367 0 .743-1.5 2.46-3.33zm-133-4c.962-.385 2.11-.338 2.56.105.443.443-.344.758-1.75 0.7-1.55-.064-1.87-.380-.806-.806zm48-105c3.43-4.82 3.42-5.25-.142-9.04-2.63-2.8-2.68-3.09-.480-3.09 1.33 0 3.18 1.04 4.11 2.32 1.6 2.19 1.85 2.18 4.49-.214 3.74-3.38 4.84-1.96 1.59 2.04-2.59 3.18-2.58 3.2.701 7.52 3.69 4.85 1.68 6.02-2.29 1.33l-2.55-3-2.55 3c-3.76 4.43-6.14 3.7-2.88-.872zm52.6.872c3.8-5.22 3.89-6.39.747-9.73-2.54-2.71-2.69-3.27-.847-3.27 1.22 0 2.96 1.18 3.86 2.62 1.62 2.59 1.67 2.59 4.67-.227 3.91-3.67 5.24-2.41 1.85 1.75-2.59 3.18-2.58 3.2.701 7.52 3.69 4.85 1.68 6.02-2.29 1.33l-2.55-3-2.55 3c-1.4 1.65-3.27 3-4.16 3-1.1 0-.916-.962.566-3z" fill="#160a08"/>
 </g>
</svg>
