<!DOCTYPE svg PUBLIC "-//W3C//DTD SVG 20010904//EN" "http://www.w3.org/TR/2001/REC-SVG-20010904/DTD/svg10.dtd">
<svg version="1.0" xmlns="http://www.w3.org/2000/svg" width="200px" height="200px" viewBox="0 0 2000 2000" preserveAspectRatio="xMidYMid meet">
<g id="layer101" fill="#1b0f0c" stroke="none">
 <path d="M130 1990 c0 -32 26 -122 47 -160 30 -56 76 -82 193 -109 135 -31 322 -98 346 -125 31 -32 62 -98 56 -116 -2 -8 -35 -44 -73 -80 -59 -57 -70 -73 -84 -125 -9 -33 -18 -66 -20 -72 -3 -7 -13 -13 -22 -13 -34 0 -60 -29 -72 -77 -7 -26 -27 -73 -46 -103 -56 -92 -59 -168 -8 -189 27 -11 28 -13 25 -82 -6 -125 40 -291 101 -359 42 -47 186 -148 244 -171 87 -33 239 -38 331 -10 129 39 281 161 326 261 34 75 58 202 55 289 -2 57 0 65 19 72 51 19 51 86 -1 178 -17 30 -40 82 -51 115 -18 53 -25 62 -55 72 -31 10 -36 17 -51 72 -21 76 -36 99 -101 154 -67 57 -76 79 -47 127 12 20 32 46 43 58 23 26 213 94 345 124 117 27 163 53 193 109 21 38 47 128 47 160 0 6 -327 10 -870 10 -543 0 -870 -4 -870 -10z"/>
 </g>
<g id="layer102" fill="#381104" stroke="none">
 <path d="M130 1990 c0 -32 26 -122 47 -160 30 -56 76 -82 193 -109 135 -31 322 -98 346 -125 31 -32 62 -98 56 -116 -2 -8 -35 -44 -73 -80 -59 -57 -70 -73 -84 -125 -9 -33 -18 -66 -20 -72 -3 -7 -13 -13 -22 -13 -34 0 -60 -29 -72 -77 -7 -26 -27 -73 -46 -103 -56 -92 -59 -168 -8 -189 27 -11 28 -13 25 -82 -5 -89 21 -215 58 -289 48 -94 199 -213 317 -250 88 -27 218 -27 306 0 125 39 277 162 321 260 34 75 58 202 55 289 -2 57 0 65 19 72 51 19 51 86 -1 178 -17 30 -40 82 -51 115 -18 53 -25 62 -55 72 -31 10 -36 17 -51 72 -21 76 -36 99 -101 154 -67 57 -76 79 -47 127 12 20 32 46 43 58 23 26 213 94 345 124 117 27 163 53 193 109 21 38 47 128 47 160 0 6 -157 10 -408 10 l-408 0 -11 -67 c-12 -66 -11 -69 13 -94 l25 -26 -22 -26 c-35 -45 -55 -51 -89 -27 -17 12 -35 31 -41 42 -10 18 -8 24 11 38 l22 17 -18 71 -18 72 -398 0 c-245 0 -398 -4 -398 -10z m762 -616 c-18 -12 -20 -19 -12 -35 6 -10 18 -19 26 -19 8 0 12 -5 9 -10 -4 -6 13 -19 37 -30 24 -11 37 -20 30 -20 -18 0 -86 36 -99 52 -19 25 -22 48 -7 63 9 8 21 15 27 15 6 0 1 -7 -11 -16z m113 -4 c-3 -5 -1 -10 6 -10 7 0 10 -3 7 -6 -4 -3 -19 1 -35 10 l-28 15 28 1 c16 0 26 -4 22 -10z m120 -49 c-3 -16 -18 -37 -33 -47 -26 -17 -26 -17 -12 0 13 16 12 20 -5 32 -19 14 -19 14 4 12 13 -2 26 3 28 10 3 8 -9 12 -39 14 l-43 1 50 6 c28 4 52 5 53 4 2 -1 1 -15 -3 -32z m-102 2 c-18 -2 -48 -2 -65 0 -18 2 -4 4 32 4 36 0 50 -2 33 -4z m-155 -291 c17 -13 37 -33 44 -45 8 -15 2 -12 -21 10 -34 34 -84 53 -141 53 -49 0 -82 -20 -102 -60 -15 -30 -18 -32 -18 -12 0 13 14 37 30 54 29 29 34 30 103 27 55 -3 80 -9 105 -27z m397 18 c14 -6 2 -9 -42 -9 -51 -1 -67 -5 -92 -27 -17 -14 -31 -33 -31 -42 0 -8 -3 -12 -7 -9 -13 14 23 61 62 78 43 20 78 23 110 9z m115 -142 c0 -49 -21 -90 -57 -113 -28 -18 -28 -18 4 18 37 43 50 93 34 139 -10 30 -9 31 4 14 8 -11 15 -37 15 -58z m-702 -96 c29 -40 85 -66 128 -58 41 8 92 50 110 91 7 16 13 23 14 14 0 -29 -45 -84 -88 -105 -39 -20 -45 -21 -88 -8 -26 8 -54 20 -62 26 -20 17 -62 108 -61 133 0 11 6 1 13 -22 8 -22 23 -55 34 -71z m468 -16 c16 -14 24 -26 18 -26 -22 0 -74 73 -74 102 1 7 7 -1 14 -18 8 -17 27 -43 42 -58z"/>
 </g>
<g id="layer103" fill="#471a0c" stroke="none">
 <path d="M150 1976 c0 -13 -3 -33 -6 -43 -5 -15 -4 -16 6 -3 9 12 11 8 6 -20 -5 -27 -3 -31 5 -20 9 12 10 11 6 -8 -3 -14 -1 -20 6 -15 7 4 8 0 4 -11 -5 -11 -3 -15 5 -10 8 5 9 2 5 -10 -4 -9 -3 -15 2 -12 10 7 24 -22 16 -33 -2 -5 7 -13 21 -20 17 -8 23 -8 19 0 -4 6 7 4 23 -5 17 -9 43 -16 57 -16 14 0 24 -4 21 -9 -3 -4 7 -6 22 -4 22 4 24 2 12 -7 -12 -9 -9 -10 13 -5 19 4 26 2 22 -5 -4 -7 3 -9 22 -5 22 5 25 4 13 -5 -12 -9 -9 -10 13 -5 20 4 27 2 22 -6 -5 -8 -1 -9 14 -4 12 4 21 2 21 -4 0 -6 6 -8 14 -5 8 3 23 1 34 -5 10 -5 43 -20 72 -31 49 -19 52 -19 39 -3 -7 10 -1 7 13 -6 30 -26 82 -126 80 -155 0 -10 -32 -48 -71 -85 -61 -58 -72 -73 -86 -126 -9 -33 -18 -66 -20 -72 -3 -7 -13 -13 -22 -13 -34 0 -60 -29 -72 -77 -7 -26 -27 -73 -46 -103 -56 -92 -59 -168 -7 -189 27 -11 27 -13 24 -84 -8 -153 49 -311 141 -392 137 -121 240 -165 387 -165 147 0 250 44 387 165 89 78 134 198 139 370 2 89 5 100 23 106 50 19 49 87 -2 178 -17 30 -40 82 -51 115 -18 53 -25 62 -55 72 -31 10 -36 17 -51 72 -21 76 -36 99 -101 154 -71 60 -75 75 -38 146 17 31 42 68 57 82 14 14 20 17 13 8 -10 -14 0 -12 51 9 34 14 73 26 86 27 12 1 22 5 22 9 0 5 10 5 21 2 13 -5 19 -3 15 3 -8 13 37 24 60 15 12 -4 15 -3 10 6 -6 9 0 10 21 6 22 -5 25 -4 13 5 -12 9 -10 11 12 7 15 -2 25 -1 23 3 -3 4 12 11 33 14 70 12 113 26 107 36 -8 12 6 41 16 34 5 -3 6 3 2 12 -4 12 -3 15 5 10 8 -5 10 -1 5 10 -4 11 -3 15 4 11 7 -5 9 1 6 15 -4 19 -3 20 6 8 8 -11 10 -7 5 20 -5 28 -3 32 6 20 10 -12 11 -10 6 10 -3 14 -6 33 -6 43 0 16 -17 17 -219 17 l-220 0 11 -31 c6 -16 8 -32 5 -35 -3 -3 -10 11 -17 30 l-12 36 -109 0 c-60 0 -109 -2 -109 -4 0 -2 16 -60 36 -128 20 -67 38 -152 40 -188 l3 -65 -9 64 c-8 59 -58 244 -80 299 -8 19 -17 22 -63 22 l-53 0 -11 -67 c-12 -66 -11 -69 13 -94 l25 -26 -22 -26 c-35 -45 -55 -51 -89 -27 -17 12 -35 31 -41 42 -10 18 -8 24 11 38 l22 17 -18 71 -18 72 -43 0 c-36 0 -45 -4 -53 -22 -22 -55 -72 -240 -80 -299 l-9 -64 3 65 c2 36 20 121 40 188 20 68 36 126 36 128 0 2 -49 4 -109 4 l-109 0 -12 -36 c-7 -19 -14 -33 -17 -30 -3 3 -1 19 5 35 l11 31 -220 0 -219 0 0 -24z m770 -595 c-29 -5 -35 -10 -35 -30 0 -24 1 -25 95 -25 52 -1 101 -3 109 -6 7 -3 15 0 18 6 2 7 -16 13 -50 16 -29 2 -64 12 -77 21 l-24 17 27 0 c16 0 26 -4 23 -9 -7 -11 28 -21 76 -21 26 0 38 5 41 18 3 11 5 9 6 -8 1 -42 -10 -68 -38 -86 -25 -17 -25 -17 -11 0 13 16 12 20 -5 32 -22 16 -150 19 -160 4 -4 -6 13 -19 37 -30 24 -11 37 -20 30 -20 -18 0 -86 36 -99 52 -33 42 -14 79 40 77 l32 -2 -35 -6z m-52 -349 c17 -13 37 -33 44 -45 8 -15 2 -12 -21 10 -34 34 -84 53 -141 53 -49 0 -82 -20 -102 -60 -15 -30 -18 -32 -18 -12 0 13 14 37 30 54 29 29 34 30 103 27 55 -3 80 -9 105 -27z m397 18 c14 -6 2 -9 -42 -9 -51 -1 -67 -5 -92 -27 -17 -14 -31 -33 -31 -42 0 -8 -3 -12 -7 -9 -13 14 23 61 62 78 43 20 78 23 110 9z m115 -142 c0 -49 -21 -90 -57 -113 -28 -18 -28 -18 4 18 37 43 50 93 34 139 -10 30 -9 31 4 14 8 -11 15 -37 15 -58z m-702 -96 c29 -40 85 -66 128 -58 41 8 92 50 110 91 7 16 13 23 14 14 0 -29 -45 -84 -88 -105 -39 -20 -45 -21 -88 -8 -26 8 -54 20 -62 26 -20 17 -62 108 -61 133 0 11 6 1 13 -22 8 -22 23 -55 34 -71z m468 -16 c16 -14 24 -26 18 -26 -22 0 -74 73 -74 102 1 7 7 -1 14 -18 8 -17 27 -43 42 -58z"/>
 </g>
<g id="layer104" fill="#322e2d" stroke="none">
 <path d="M150 1981 c0 -10 9 -49 21 -87 24 -78 58 -118 115 -132 167 -43 249 -67 312 -93 41 -16 76 -29 80 -29 3 0 -9 14 -28 31 -35 30 -35 30 12 -3 26 -18 50 -41 54 -52 11 -32 24 3 24 65 0 34 14 102 35 175 19 65 35 124 35 131 0 10 -27 13 -104 13 l-104 0 -20 -57 c-11 -32 -23 -65 -26 -74 -5 -10 1 -19 16 -27 13 -6 18 -11 12 -11 -5 -1 -19 5 -29 13 -19 14 -19 15 -1 72 10 33 21 65 23 72 4 9 -25 12 -125 12 -95 0 -132 -3 -135 -12 -4 -10 -6 -10 -6 0 -1 8 -24 12 -81 12 -72 0 -80 -2 -80 -19z m474 -159 c3 -5 -8 -24 -24 -43 l-28 -34 21 -25 22 -25 -27 24 c-36 31 -35 45 3 72 23 16 28 24 17 30 -9 6 -9 9 -1 9 6 0 14 -4 17 -8z"/>
 <path d="M837 1993 c-3 -5 -15 -44 -27 -88 -12 -44 -28 -99 -35 -121 -8 -23 -19 -80 -25 -127 -11 -77 -10 -88 8 -123 10 -22 17 -46 14 -54 -2 -8 -35 -44 -73 -80 -59 -57 -70 -73 -84 -125 -9 -33 -18 -66 -20 -72 -3 -7 -13 -13 -22 -13 -34 0 -60 -29 -72 -77 -7 -26 -27 -73 -46 -103 -35 -59 -51 -115 -41 -153 6 -24 50 -52 67 -42 5 4 9 -6 9 -20 0 -15 -4 -24 -10 -20 -6 4 -10 -18 -10 -60 0 -45 3 -64 11 -59 7 4 10 -4 8 -22 -1 -16 1 -36 4 -44 3 -8 15 -44 26 -79 31 -96 73 -154 161 -220 107 -80 169 -103 297 -109 159 -7 248 26 388 145 47 40 66 65 87 115 42 95 51 122 49 132 -1 4 3 14 9 21 7 8 8 28 4 51 -5 26 -4 35 5 30 8 -5 11 8 11 44 0 32 -4 49 -10 45 -6 -4 -10 6 -10 22 0 23 5 29 23 30 63 5 70 84 14 182 -17 30 -40 82 -51 115 -18 53 -25 62 -55 72 -31 10 -36 17 -51 72 -21 76 -36 99 -101 154 -67 56 -76 80 -48 124 19 32 20 40 10 117 -6 45 -28 141 -49 212 l-38 130 -55 3 -55 3 -11 -68 c-12 -66 -11 -69 13 -94 l25 -26 -22 -26 c-35 -45 -55 -51 -89 -27 -17 12 -35 31 -41 42 -10 18 -8 24 11 38 l22 17 -18 71 -18 72 -43 0 c-23 0 -44 -3 -46 -7z m143 -612 c25 -5 38 -9 30 -10 -29 -4 24 -20 69 -20 39 -1 43 1 38 19 -3 11 -1 18 4 14 24 -15 5 -88 -30 -110 -25 -17 -25 -17 -11 0 13 16 12 20 -5 32 -22 16 -150 19 -160 4 -4 -6 13 -19 37 -30 24 -11 37 -20 30 -20 -18 0 -86 36 -99 52 -19 25 -22 48 -7 63 17 16 36 18 104 6z m-112 -349 c17 -13 37 -33 44 -45 8 -15 2 -12 -21 10 -34 34 -84 53 -141 53 -49 0 -82 -20 -102 -60 -15 -30 -18 -32 -18 -12 0 13 14 37 30 54 29 29 34 30 103 27 55 -3 80 -9 105 -27z m397 18 c14 -6 2 -9 -42 -9 -51 -1 -67 -5 -92 -27 -17 -14 -31 -33 -31 -42 0 -8 -3 -12 -7 -9 -13 14 23 61 62 78 43 20 78 23 110 9z m115 -142 c0 -49 -21 -90 -57 -113 -28 -18 -28 -18 4 18 37 43 50 93 34 139 -10 30 -9 31 4 14 8 -11 15 -37 15 -58z m-702 -96 c29 -40 85 -66 128 -58 41 8 92 50 110 91 7 16 13 23 14 14 0 -29 -45 -84 -88 -105 -39 -20 -45 -21 -88 -8 -26 8 -54 20 -62 26 -20 17 -62 108 -61 133 0 11 6 1 13 -22 8 -22 23 -55 34 -71z m468 -16 c16 -14 24 -26 18 -26 -22 0 -74 73 -74 102 1 7 7 -1 14 -18 8 -17 27 -43 42 -58z"/>
 <path d="M884 1365 c-13 -32 1 -37 96 -39 52 -1 101 -4 109 -6 7 -3 16 1 18 8 3 8 -8 12 -39 12 -23 0 -63 9 -87 20 -51 24 -89 26 -97 5z"/>
 <path d="M1190 1987 c0 -7 16 -66 35 -131 22 -76 35 -140 35 -177 0 -57 11 -81 27 -56 4 7 28 27 53 46 44 32 45 32 10 2 -19 -17 -31 -31 -28 -31 4 0 39 13 80 29 63 26 145 50 312 93 57 14 91 54 115 132 33 108 34 106 -58 106 -54 0 -81 -4 -84 -12 -4 -10 -6 -10 -6 0 -1 9 -34 12 -131 12 -71 0 -130 -2 -130 -5 0 -2 10 -35 22 -71 21 -65 21 -67 3 -80 -10 -8 -24 -14 -29 -13 -6 0 -1 5 12 11 15 8 21 17 16 27 -3 9 -15 42 -26 74 l-20 57 -104 0 c-77 0 -104 -3 -104 -13z m531 -84 c10 -24 16 -43 13 -43 -8 0 -44 83 -43 100 1 13 1 13 6 0 3 -8 14 -34 24 -57z m-329 -82 c-11 -6 -6 -14 17 -30 38 -27 39 -41 4 -72 l-28 -24 22 25 21 25 -28 34 c-29 33 -31 51 -7 51 8 0 8 -3 -1 -9z"/>
 </g>
<g id="layer105" fill="#562817" stroke="none">
 <path d="M150 1981 c0 -10 9 -49 21 -87 24 -78 58 -118 115 -132 167 -43 249 -67 312 -93 41 -16 76 -29 80 -29 3 0 -9 14 -28 31 -35 30 -35 30 12 -3 26 -18 50 -41 54 -52 11 -32 24 3 24 65 0 34 14 102 35 175 19 65 35 124 35 131 0 10 -27 13 -104 13 l-104 0 -20 -57 c-11 -32 -23 -65 -26 -74 -5 -10 1 -19 16 -27 13 -6 18 -11 12 -11 -5 -1 -19 5 -29 13 -19 14 -19 15 -1 72 10 33 21 65 23 72 4 9 -25 12 -125 12 -95 0 -132 -3 -135 -12 -4 -10 -6 -10 -6 0 -1 8 -24 12 -81 12 -72 0 -80 -2 -80 -19z m474 -159 c3 -5 -8 -24 -24 -43 l-28 -34 21 -25 22 -25 -27 24 c-36 31 -35 45 3 72 23 16 28 24 17 30 -9 6 -9 9 -1 9 6 0 14 -4 17 -8z"/>
 <path d="M837 1993 c-3 -5 -15 -44 -27 -88 -12 -44 -28 -99 -35 -121 -8 -23 -19 -80 -25 -127 -11 -77 -10 -88 8 -123 10 -22 17 -46 14 -54 -2 -8 -35 -44 -73 -80 -59 -57 -70 -73 -84 -125 -9 -33 -18 -66 -20 -72 -3 -7 -13 -13 -22 -13 -34 0 -60 -29 -72 -77 -7 -26 -27 -73 -46 -103 -35 -59 -51 -115 -41 -153 6 -24 50 -52 67 -42 5 4 9 -6 9 -20 0 -15 -4 -24 -10 -20 -6 4 -10 -18 -10 -60 0 -45 3 -64 11 -59 7 4 10 -4 8 -22 -1 -16 1 -36 4 -44 3 -8 15 -44 26 -79 31 -96 73 -154 161 -220 107 -80 169 -103 297 -109 159 -7 248 26 388 145 47 40 66 65 87 115 42 95 51 122 49 132 -1 4 3 14 9 21 7 8 8 28 4 51 -5 26 -4 35 5 30 8 -5 11 8 11 44 0 32 -4 49 -10 45 -6 -4 -10 6 -10 22 0 23 5 29 23 30 63 5 70 84 14 182 -17 30 -40 82 -51 115 -18 53 -25 62 -55 72 -31 10 -36 17 -51 72 -21 76 -36 99 -101 154 -67 56 -76 80 -48 124 19 32 20 40 10 117 -6 45 -28 141 -49 212 l-38 130 -54 0 -54 0 -12 -65 c-12 -64 -12 -65 12 -85 13 -12 24 -25 24 -31 0 -15 -64 -74 -81 -74 -8 0 -32 18 -53 39 l-39 40 26 23 25 23 -16 67 -17 68 -42 0 c-23 0 -44 -3 -46 -7z m292 -666 c-9 -32 -41 -67 -62 -67 -6 0 -2 6 9 14 33 25 3 41 -78 41 -82 0 -97 -14 -41 -39 32 -14 33 -16 9 -11 -64 13 -115 69 -96 104 9 17 20 19 95 18 65 -2 79 -4 58 -11 -25 -8 -26 -10 -8 -17 11 -4 39 -8 63 -8 41 -1 53 11 35 35 -5 5 0 1 9 -8 13 -15 15 -25 7 -51z m-279 -285 c36 -18 80 -73 80 -101 -1 -9 -7 -2 -14 15 -39 88 -197 125 -253 59 -45 -52 -24 -164 44 -226 35 -33 69 -41 115 -28 39 10 97 68 99 97 0 9 3 12 5 5 3 -6 -4 -30 -15 -52 -15 -29 -33 -45 -66 -60 -42 -19 -48 -19 -95 -5 -61 18 -93 57 -114 139 -24 91 1 157 67 177 31 10 106 -1 147 -20z m466 -17 c90 -69 86 -192 -6 -240 -42 -22 -51 -18 -13 5 46 28 67 65 67 119 0 83 -52 131 -141 131 -59 0 -91 -16 -114 -55 -23 -39 -23 -80 0 -131 25 -55 64 -84 115 -85 34 0 37 -2 19 -9 -30 -12 -90 6 -118 36 -53 57 -57 179 -7 227 34 31 54 37 116 32 32 -3 60 -13 82 -30z"/>
 <path d="M884 1365 c-13 -32 1 -37 96 -39 52 -1 101 -4 109 -6 7 -3 16 1 18 8 3 8 -8 12 -39 12 -23 0 -63 9 -87 20 -51 24 -89 26 -97 5z"/>
 <path d="M1190 1987 c0 -7 16 -66 35 -131 22 -76 35 -140 35 -177 0 -57 11 -81 27 -56 4 7 28 27 53 46 44 32 45 32 10 2 -19 -17 -31 -31 -28 -31 4 0 39 13 80 29 63 26 145 50 312 93 57 14 91 54 115 132 33 108 34 106 -58 106 -54 0 -81 -4 -84 -12 -4 -10 -6 -10 -6 0 -1 9 -34 12 -131 12 -71 0 -130 -2 -130 -5 0 -2 10 -35 22 -71 21 -65 21 -67 3 -80 -10 -8 -24 -14 -29 -13 -6 0 -1 5 12 11 15 8 21 17 16 27 -3 9 -15 42 -26 74 l-20 57 -104 0 c-77 0 -104 -3 -104 -13z m531 -84 c10 -24 16 -43 13 -43 -8 0 -44 83 -43 100 1 13 1 13 6 0 3 -8 14 -34 24 -57z m-329 -82 c-11 -6 -6 -14 17 -30 38 -27 39 -41 4 -72 l-28 -24 22 25 21 25 -28 34 c-29 33 -31 51 -7 51 8 0 8 -3 -1 -9z"/>
 </g>
<g id="layer106" fill="#653220" stroke="none">
 <path d="M155 1958 c4 -24 19 -71 35 -105 30 -66 54 -85 125 -97 56 -10 245 -65 275 -81 14 -7 36 -16 50 -19 l25 -7 -25 21 c-14 12 -40 35 -58 52 l-34 30 32 33 32 33 -23 7 c-13 4 -31 14 -41 22 -15 14 -15 19 7 84 l24 69 -128 0 -127 0 -17 -53 c-16 -50 -70 -147 -82 -147 -6 0 -5 3 30 60 17 28 55 122 55 137 0 2 -36 3 -81 3 l-81 0 7 -42z"/>
 <path d="M578 1926 l-27 -75 37 -12 c56 -18 56 -19 17 -59 l-37 -38 75 -56 c41 -30 77 -61 80 -68 6 -15 9 18 8 87 -1 32 11 91 34 164 19 62 35 117 35 122 0 5 -44 9 -98 9 l-97 0 -27 -74z"/>
 <path d="M837 1993 c-3 -5 -15 -44 -27 -88 -12 -44 -28 -99 -35 -122 -8 -23 -19 -80 -25 -127 -9 -77 -9 -90 8 -123 11 -21 17 -45 14 -53 -2 -8 -35 -44 -73 -80 -59 -57 -70 -73 -84 -125 -9 -33 -18 -66 -20 -72 -3 -7 -13 -13 -22 -13 -34 0 -60 -29 -72 -77 -7 -26 -27 -73 -46 -103 -35 -59 -51 -115 -41 -153 5 -23 50 -52 66 -42 4 2 10 -53 12 -123 5 -143 22 -202 87 -297 44 -66 156 -153 238 -186 50 -20 76 -24 183 -24 150 0 201 17 312 100 81 61 125 118 164 213 23 57 28 85 32 192 4 120 5 126 26 128 11 0 29 11 39 23 24 30 15 86 -26 158 -17 30 -40 82 -51 115 -18 53 -25 62 -55 72 -31 10 -36 17 -51 72 -21 76 -36 99 -101 154 -66 56 -76 80 -49 124 20 31 20 39 10 116 -9 70 -30 152 -79 318 -7 23 -13 25 -61 25 l-54 0 -12 -65 c-12 -64 -12 -65 12 -85 13 -12 24 -25 24 -31 0 -15 -64 -74 -81 -74 -8 0 -32 18 -53 39 l-39 40 26 23 25 23 -16 67 -17 68 -42 0 c-23 0 -44 -3 -46 -7z m286 -614 c26 -36 -14 -119 -56 -119 -6 0 -2 6 9 14 33 25 3 41 -78 41 -82 0 -97 -14 -41 -39 32 -14 33 -16 9 -11 -65 14 -115 69 -95 106 10 19 17 21 72 15 34 -4 76 -2 92 3 49 15 73 12 88 -10z m-273 -337 c36 -18 80 -73 80 -101 -1 -9 -7 -2 -14 15 -39 88 -197 125 -253 59 -45 -52 -24 -164 44 -226 35 -33 69 -41 115 -28 39 10 97 68 99 97 0 9 3 12 5 5 3 -6 -4 -30 -15 -52 -15 -29 -33 -45 -66 -60 -42 -19 -48 -19 -95 -5 -61 18 -93 57 -114 139 -24 91 1 157 67 177 31 10 106 -1 147 -20z m466 -17 c90 -69 86 -192 -6 -240 -42 -22 -51 -18 -13 5 46 28 67 65 67 119 0 83 -52 131 -141 131 -59 0 -91 -16 -114 -55 -23 -39 -23 -80 0 -131 25 -55 64 -84 115 -85 34 0 37 -2 19 -9 -30 -12 -90 6 -118 36 -53 57 -57 179 -7 227 34 31 54 37 116 32 32 -3 60 -13 82 -30z"/>
 <path d="M1045 1383 c-34 -8 -39 -21 -13 -28 40 -10 83 -2 83 15 0 16 -34 22 -70 13z"/>
 <path d="M884 1365 c-12 -30 3 -45 38 -38 42 9 70 9 136 0 34 -5 52 -4 52 3 0 5 -20 10 -45 10 -26 0 -63 9 -85 20 -46 24 -88 26 -96 5z"/>
 <path d="M1200 1991 c0 -5 14 -53 31 -107 19 -60 33 -127 35 -169 2 -38 4 -79 5 -90 0 -11 3 -14 6 -7 3 7 39 38 80 68 l75 56 -37 38 c-39 40 -39 41 17 59 l37 12 -27 75 -27 74 -97 0 c-54 0 -98 -4 -98 -9z"/>
 <path d="M1445 1931 c22 -65 22 -70 7 -84 -10 -8 -28 -18 -41 -22 l-23 -7 32 -33 32 -33 -34 -30 c-18 -17 -44 -40 -58 -52 l-25 -21 25 7 c14 3 36 12 50 19 30 16 219 71 275 81 71 12 95 31 125 97 16 34 31 81 35 105 l7 42 -81 0 c-45 0 -81 -1 -81 -3 0 -15 38 -109 55 -137 35 -57 36 -60 30 -60 -12 0 -66 97 -82 147 l-17 53 -127 0 -128 0 24 -69z"/>
 <path d="M1523 715 c0 -22 2 -30 4 -17 2 12 2 30 0 40 -3 9 -5 -1 -4 -23z"/>
 </g>
<g id="layer107" fill="#5b362b" stroke="none">
 <path d="M837 1993 c-3 -5 -15 -44 -27 -88 -12 -44 -28 -99 -35 -122 -8 -23 -19 -80 -25 -127 -9 -77 -9 -90 8 -123 11 -21 17 -45 14 -53 -2 -8 -35 -44 -73 -80 -59 -57 -70 -73 -84 -125 -9 -33 -18 -66 -20 -72 -3 -7 -13 -13 -22 -13 -34 0 -60 -29 -72 -77 -7 -26 -27 -73 -46 -103 -35 -59 -51 -115 -41 -153 5 -23 50 -52 66 -42 4 2 10 -53 12 -123 5 -143 22 -202 87 -297 44 -66 156 -153 238 -186 50 -20 76 -24 183 -24 150 0 201 17 312 100 81 61 125 118 164 213 23 57 28 85 32 192 4 120 5 126 26 128 11 0 29 11 39 23 24 30 15 86 -26 158 -17 30 -40 82 -51 115 -18 53 -25 62 -55 72 -31 10 -36 17 -51 72 -21 76 -36 99 -101 154 -66 56 -76 80 -49 124 20 31 20 39 10 116 -9 70 -30 152 -79 318 -7 23 -13 25 -61 25 l-54 0 -12 -65 c-12 -64 -12 -65 12 -85 13 -12 24 -25 24 -31 0 -15 -64 -74 -81 -74 -8 0 -32 18 -53 39 l-39 40 26 23 25 23 -16 67 -17 68 -42 0 c-23 0 -44 -3 -46 -7z m286 -614 c26 -36 -14 -119 -56 -119 -6 0 -2 6 9 14 33 25 3 41 -78 41 -82 0 -97 -14 -41 -39 32 -14 33 -16 9 -11 -65 14 -115 69 -95 106 10 19 17 21 72 15 34 -4 76 -2 92 3 49 15 73 12 88 -10z m-273 -337 c36 -18 80 -73 80 -101 -1 -9 -7 -2 -14 15 -39 88 -197 125 -253 59 -45 -52 -24 -164 44 -226 35 -33 69 -41 115 -28 39 10 97 68 99 97 0 9 3 12 5 5 3 -6 -4 -30 -15 -52 -15 -29 -33 -45 -66 -60 -42 -19 -48 -19 -95 -5 -61 18 -93 57 -114 139 -24 91 1 157 67 177 31 10 106 -1 147 -20z m466 -17 c90 -69 86 -192 -6 -240 -42 -22 -51 -18 -13 5 46 28 67 65 67 119 0 83 -52 131 -141 131 -59 0 -91 -16 -114 -55 -23 -39 -23 -80 0 -131 25 -55 64 -84 115 -85 34 0 37 -2 19 -9 -30 -12 -90 6 -118 36 -53 57 -57 179 -7 227 34 31 54 37 116 32 32 -3 60 -13 82 -30z"/>
 <path d="M1035 1376 l-30 -13 26 -8 c40 -10 84 -2 84 15 0 20 -42 23 -80 6z"/>
 <path d="M891 1371 c-8 -5 -11 -16 -6 -30 5 -17 11 -20 33 -14 15 5 54 7 87 7 43 -1 52 0 30 6 -16 3 -44 14 -62 23 -35 19 -61 21 -82 8z"/>
 <path d="M1523 715 c0 -22 2 -30 4 -17 2 12 2 30 0 40 -3 9 -5 -1 -4 -23z"/>
 </g>
<g id="layer108" fill="#5c4235" stroke="none">
 <path d="M837 1993 c-3 -5 -10 -28 -17 -53 -6 -25 -22 -81 -35 -125 -13 -44 -29 -117 -35 -162 -10 -74 -9 -86 8 -120 11 -21 17 -45 14 -53 -2 -8 -35 -44 -73 -80 -59 -57 -70 -73 -84 -125 -9 -33 -18 -66 -20 -72 -3 -7 -13 -13 -22 -13 -34 0 -60 -29 -72 -77 -7 -26 -27 -73 -46 -103 -54 -90 -59 -166 -11 -188 27 -12 41 -3 47 32 2 11 4 -45 4 -125 0 -175 19 -245 90 -328 25 -29 43 -56 41 -59 -8 -13 123 -104 186 -131 57 -23 75 -26 188 -26 113 0 131 3 188 26 64 28 194 118 186 131 -3 4 11 25 31 46 76 85 109 204 103 370 -2 56 0 93 4 82 10 -27 44 -25 63 4 21 32 12 85 -28 155 -17 30 -40 82 -51 115 -18 53 -25 62 -55 72 -31 10 -36 17 -51 72 -21 76 -36 99 -101 154 -66 56 -76 80 -49 124 20 31 20 39 10 116 -9 70 -30 152 -79 318 -7 23 -13 25 -61 25 l-54 0 -12 -65 c-12 -64 -12 -65 12 -85 13 -12 24 -25 24 -31 0 -15 -64 -74 -81 -74 -8 0 -32 18 -53 39 l-39 40 26 23 25 23 -16 67 -17 68 -42 0 c-23 0 -44 -3 -46 -7z m286 -614 c26 -36 -14 -119 -56 -119 -6 0 -2 6 9 14 33 25 3 41 -78 41 -82 0 -97 -14 -41 -39 32 -14 33 -16 9 -11 -65 14 -115 69 -95 106 10 19 17 21 72 15 34 -4 76 -2 92 3 49 15 73 12 88 -10z m-273 -337 c36 -18 80 -73 80 -101 -1 -9 -7 -2 -14 15 -39 88 -197 125 -253 59 -45 -52 -24 -164 44 -226 35 -33 69 -41 115 -28 39 10 97 68 99 97 0 9 3 12 5 5 3 -6 -4 -30 -15 -52 -15 -29 -33 -45 -66 -60 -42 -19 -48 -19 -95 -5 -61 18 -93 57 -114 139 -24 91 1 157 67 177 31 10 106 -1 147 -20z m466 -17 c90 -69 86 -192 -6 -240 -42 -22 -51 -18 -13 5 46 28 67 65 67 119 0 83 -52 131 -141 131 -59 0 -91 -16 -114 -55 -23 -39 -23 -80 0 -131 25 -55 64 -84 115 -85 34 0 37 -2 19 -9 -30 -12 -90 6 -118 36 -53 57 -57 179 -7 227 34 31 54 37 116 32 32 -3 60 -13 82 -30z"/>
 <path d="M1035 1376 l-30 -13 37 -8 c46 -9 73 -4 73 15 0 20 -42 23 -80 6z"/>
 <path d="M891 1371 c-8 -5 -11 -16 -6 -30 5 -17 11 -20 33 -14 15 5 54 7 87 7 43 -1 52 0 30 6 -16 3 -44 14 -62 23 -35 19 -61 21 -82 8z"/>
 </g>
<g id="layer109" fill="#932526" stroke="none">
 <path d="M837 1993 c-3 -5 -10 -28 -17 -53 -6 -25 -22 -81 -35 -125 -13 -44 -29 -117 -35 -162 -10 -74 -9 -86 8 -120 11 -21 17 -45 14 -53 -2 -8 -35 -44 -73 -80 -59 -57 -70 -73 -84 -125 -9 -33 -18 -66 -20 -72 -3 -7 -13 -13 -22 -13 -34 0 -60 -29 -72 -77 -7 -26 -27 -73 -46 -103 -54 -90 -59 -166 -11 -188 28 -13 39 -4 50 42 11 45 15 26 6 -24 -13 -68 -8 -234 8 -253 8 -9 11 -20 8 -26 -11 -18 35 -120 72 -161 20 -21 44 -52 53 -68 22 -40 129 -108 206 -132 88 -27 218 -27 306 0 77 24 184 92 206 132 9 16 33 47 53 68 37 41 83 143 72 161 -3 6 -1 16 6 24 16 20 23 139 12 225 -10 82 -8 101 6 49 11 -44 44 -51 67 -15 21 32 12 84 -28 155 -17 30 -40 82 -51 115 -18 53 -25 62 -55 72 -31 10 -36 17 -51 72 -21 76 -36 99 -101 154 -66 56 -76 80 -49 123 19 31 20 40 10 117 -6 46 -28 142 -49 213 l-37 130 -54 0 -54 0 -12 -65 c-12 -64 -12 -65 12 -85 13 -12 24 -25 24 -31 0 -15 -64 -74 -81 -74 -8 0 -32 18 -53 39 l-39 40 26 23 25 23 -16 67 -17 68 -42 0 c-23 0 -44 -3 -46 -7z m292 -615 c16 -43 -24 -118 -62 -118 -6 0 -2 6 9 14 33 25 3 41 -78 41 -82 0 -98 -15 -41 -38 25 -10 31 -16 18 -16 -27 -1 -80 33 -100 63 -13 20 -14 29 -5 47 11 20 17 21 74 15 33 -3 75 -2 91 3 55 17 85 13 94 -11z m-274 -337 c33 -19 75 -75 75 -100 0 -9 -8 0 -18 19 -45 90 -206 120 -257 47 -35 -49 -10 -161 48 -215 77 -72 195 -25 225 91 l11 42 -5 -40 c-9 -65 -35 -108 -84 -133 -24 -12 -51 -20 -60 -18 -8 3 -34 10 -57 16 -36 9 -46 18 -71 63 -32 57 -45 118 -36 166 7 36 46 78 77 84 38 8 121 -4 152 -22z m464 -19 c47 -38 61 -66 61 -125 0 -43 -5 -53 -38 -87 -43 -44 -96 -61 -158 -51 -30 5 -44 15 -69 49 -26 38 -30 52 -30 112 0 62 3 72 29 99 34 35 53 41 120 35 36 -2 60 -12 85 -32z m-783 -336 c-2 -6 -5 -1 -5 11 -1 12 -5 24 -10 27 -5 3 -6 16 -3 29 5 18 7 16 14 -17 5 -22 6 -44 4 -50z m944 39 c-14 -19 -22 -88 -10 -80 8 5 9 2 1 -11 -6 -11 -15 -39 -21 -63 -21 -80 -21 -35 -1 69 11 56 20 105 19 109 -2 19 5 23 11 6 5 -11 5 -24 1 -30z m-915 -193 c-2 -2 -9 16 -15 39 -6 24 -15 52 -21 63 -7 13 -7 16 0 11 6 -3 11 2 12 12 0 10 7 -13 15 -51 7 -39 12 -72 9 -74z m-14 -4 c17 -24 18 -29 6 -19 -18 14 -42 51 -33 51 3 0 15 -15 27 -32z m920 14 c-5 -10 -18 -25 -28 -33 -12 -10 -11 -5 6 19 24 35 38 43 22 14z"/>
 <path d="M1035 1376 l-30 -13 37 -8 c46 -9 73 -4 73 15 0 20 -42 23 -80 6z"/>
 <path d="M891 1371 c-8 -5 -11 -16 -6 -30 5 -17 11 -20 33 -14 15 5 54 7 87 7 43 -1 52 0 30 6 -16 3 -44 14 -62 23 -35 19 -61 21 -82 8z"/>
 <path d="M1150 1027 c-28 -14 -59 -70 -59 -107 -1 -37 33 -104 64 -128 52 -41 150 -20 188 40 41 63 19 161 -42 192 -36 19 -116 21 -151 3z"/>
 </g>
<g id="layer110" fill="#6b4b3c" stroke="none">
 <path d="M837 1993 c-3 -5 -10 -28 -17 -53 -6 -25 -22 -81 -35 -125 -13 -44 -29 -117 -35 -162 -10 -74 -9 -86 8 -120 11 -21 17 -45 14 -53 -2 -8 -35 -44 -73 -80 -59 -57 -70 -73 -84 -125 -9 -33 -18 -66 -20 -72 -3 -7 -13 -13 -22 -13 -34 0 -60 -29 -72 -77 -7 -26 -27 -73 -46 -103 -54 -90 -59 -166 -11 -188 28 -13 39 -4 50 42 11 45 15 26 6 -24 -13 -68 -8 -234 8 -253 8 -9 11 -20 8 -26 -11 -18 35 -120 72 -161 20 -21 44 -52 53 -68 22 -40 129 -108 206 -132 88 -27 218 -27 306 0 77 24 184 92 206 132 9 16 33 47 53 68 37 41 83 143 72 161 -3 6 -1 16 6 24 16 20 23 139 12 225 -10 82 -8 101 6 49 11 -44 44 -51 67 -15 21 32 12 84 -28 155 -17 30 -40 82 -51 115 -18 53 -25 62 -55 72 -31 10 -36 17 -51 72 -21 76 -36 99 -101 154 -66 56 -76 80 -49 123 19 31 20 40 10 117 -6 46 -28 142 -49 213 l-37 130 -54 0 -54 0 -12 -65 c-12 -64 -12 -65 12 -85 13 -12 24 -25 24 -31 0 -15 -64 -74 -81 -74 -8 0 -32 18 -53 39 l-39 40 26 23 25 23 -16 67 -17 68 -42 0 c-23 0 -44 -3 -46 -7z m292 -615 c16 -43 -24 -118 -62 -118 -6 0 -2 6 9 14 33 25 3 41 -78 41 -82 0 -98 -15 -41 -38 25 -10 31 -16 18 -16 -27 -1 -80 33 -100 63 -13 20 -14 29 -5 47 11 20 17 21 74 15 33 -3 75 -2 91 3 55 17 85 13 94 -11z m-274 -337 c33 -19 75 -75 75 -100 0 -9 -8 0 -18 19 -45 90 -206 120 -257 47 -35 -49 -10 -161 48 -215 77 -72 195 -25 225 91 l11 42 -5 -40 c-9 -65 -35 -108 -84 -133 -24 -12 -51 -20 -60 -18 -8 3 -34 10 -57 16 -36 9 -46 18 -71 63 -32 57 -45 118 -36 166 7 36 46 78 77 84 38 8 121 -4 152 -22z m464 -19 c47 -38 61 -66 61 -125 0 -43 -5 -53 -38 -87 -43 -44 -96 -61 -158 -51 -30 5 -44 15 -69 49 -26 38 -30 52 -30 112 0 62 3 72 29 99 34 35 53 41 120 35 36 -2 60 -12 85 -32z m-783 -336 c-2 -6 -5 -1 -5 11 -1 12 -5 24 -10 27 -5 3 -6 16 -3 29 5 18 7 16 14 -17 5 -22 6 -44 4 -50z m944 39 c-14 -19 -22 -88 -10 -80 8 5 9 2 1 -11 -6 -11 -15 -39 -21 -63 -21 -80 -21 -35 -1 69 11 56 20 105 19 109 -2 19 5 23 11 6 5 -11 5 -24 1 -30z m-915 -193 c-2 -2 -9 16 -15 39 -6 24 -15 52 -21 63 -7 13 -7 16 0 11 6 -3 11 2 12 12 0 10 7 -13 15 -51 7 -39 12 -72 9 -74z m-14 -4 c17 -24 18 -29 6 -19 -18 14 -42 51 -33 51 3 0 15 -15 27 -32z m920 14 c-5 -10 -18 -25 -28 -33 -12 -10 -11 -5 6 19 24 35 38 43 22 14z"/>
 <path d="M1040 1378 c-28 -8 -31 -12 -17 -17 35 -13 92 -7 92 9 0 19 -29 22 -75 8z"/>
 <path d="M1150 1027 c-28 -14 -59 -70 -59 -107 -1 -37 33 -104 64 -128 52 -41 150 -20 188 40 41 63 19 161 -42 192 -36 19 -116 21 -151 3z"/>
 </g>
<g id="layer111" fill="#685b55" stroke="none">
 <path d="M836 1988 c-46 -149 -77 -269 -86 -335 -10 -74 -9 -86 8 -120 11 -21 17 -45 14 -53 -2 -8 -35 -44 -73 -80 -59 -57 -70 -73 -84 -125 -9 -33 -18 -66 -20 -72 -3 -7 -13 -13 -22 -13 -34 0 -60 -29 -72 -77 -7 -26 -27 -73 -46 -103 -55 -90 -59 -166 -10 -188 29 -13 32 -9 59 75 17 51 28 65 54 69 17 3 15 -20 -8 -112 l-20 -79 20 -125 c39 -242 74 -322 168 -387 165 -113 399 -113 564 0 93 64 131 149 163 362 9 61 18 119 20 129 2 11 -5 56 -15 100 -25 101 -25 115 -2 111 9 -2 20 -4 25 -4 4 -1 7 -11 7 -24 0 -13 5 -28 11 -34 6 -6 14 -26 18 -45 9 -43 42 -50 66 -14 21 32 12 84 -28 155 -17 30 -40 82 -51 115 -18 53 -25 62 -55 72 -31 10 -36 17 -51 72 -21 76 -36 99 -101 154 -66 56 -76 80 -48 124 20 33 20 36 5 132 -13 80 -39 182 -82 320 -3 9 -20 12 -56 10 l-52 -3 -12 -65 c-12 -64 -12 -65 12 -85 13 -12 24 -25 24 -31 0 -15 -64 -74 -81 -74 -8 0 -32 18 -53 39 l-39 40 26 23 25 23 -16 67 -17 68 -43 0 c-25 0 -44 -5 -46 -12z m293 -610 c16 -43 -24 -118 -62 -118 -6 0 -2 6 9 14 16 12 17 17 6 28 -17 17 -153 18 -159 2 -4 -11 54 -37 102 -47 11 -3 0 -3 -24 -1 -51 5 -96 28 -123 65 -17 22 -18 30 -8 49 11 21 17 22 74 16 33 -3 75 -2 91 3 55 17 85 13 94 -11z m-274 -337 c33 -19 75 -75 75 -100 0 -9 -8 0 -18 19 -45 90 -206 120 -257 47 -35 -49 -10 -161 48 -215 77 -72 197 -24 224 91 9 37 11 38 12 12 1 -53 -39 -117 -89 -142 -43 -22 -48 -22 -100 -8 -30 8 -68 15 -85 16 -29 0 -29 1 -8 11 l22 11 -23 41 c-27 47 -39 109 -30 155 7 36 46 78 77 84 38 8 121 -4 152 -22z m464 -19 c47 -37 61 -66 61 -124 0 -36 -6 -54 -26 -77 -14 -17 -30 -31 -36 -31 -5 0 1 13 15 29 36 43 42 92 18 145 -26 59 -65 80 -142 74 -68 -5 -90 -21 -109 -78 -17 -53 0 -112 45 -157 27 -27 41 -33 75 -33 23 0 50 4 60 10 12 7 29 6 52 -3 32 -12 31 -12 -42 -17 -86 -6 -168 5 -190 26 -12 12 -12 14 3 14 16 0 16 2 0 27 -13 19 -18 47 -18 94 0 61 3 71 29 98 34 35 53 41 120 35 36 -2 60 -12 85 -32z"/>
 <path d="M1040 1378 l-35 -11 39 -7 c46 -9 78 -2 73 14 -5 15 -35 17 -77 4z"/>
 </g>
<g id="layer112" fill="#cc7566" stroke="none">
 <path d="M835 1988 c-27 -85 -76 -280 -85 -340 -10 -69 -9 -80 8 -115 11 -21 17 -45 14 -53 -2 -8 -35 -44 -73 -80 -59 -57 -70 -73 -84 -125 -9 -33 -18 -66 -20 -72 -3 -7 -13 -13 -22 -13 -34 0 -60 -29 -72 -77 -7 -26 -27 -73 -46 -103 -55 -90 -59 -166 -11 -188 29 -13 29 -12 51 54 21 62 41 94 60 94 19 0 19 -31 0 -95 -26 -85 -24 -126 21 -356 7 -36 25 -97 41 -134 24 -57 37 -74 86 -111 86 -64 153 -86 274 -92 126 -5 211 17 305 81 88 60 122 133 158 341 23 134 23 193 -1 298 -7 32 -10 60 -7 64 12 12 46 -7 51 -29 3 -12 13 -43 22 -69 20 -55 45 -63 70 -24 21 32 12 85 -28 155 -17 30 -40 82 -51 115 -18 53 -25 62 -55 72 -31 10 -36 17 -51 72 -21 76 -36 99 -101 154 -66 56 -76 80 -48 124 20 33 20 36 5 131 -9 54 -32 150 -50 213 l-34 115 -50 3 -50 3 -11 -51 c-16 -74 -14 -98 9 -110 11 -6 20 -16 20 -23 0 -18 -63 -77 -81 -77 -8 0 -33 18 -54 41 l-40 40 26 20 c27 19 27 20 13 66 -8 25 -14 57 -14 70 0 21 -4 23 -45 23 -28 0 -47 -5 -50 -12z m295 -608 c14 -26 -2 -79 -30 -105 -32 -29 -107 -30 -159 -3 -57 29 -90 72 -75 96 9 14 27 17 92 17 44 0 84 3 88 8 4 4 22 7 40 7 23 0 37 -6 44 -20z m-318 -320 c72 -20 128 -89 128 -157 0 -15 -8 -50 -17 -77 -16 -44 -24 -52 -68 -72 -43 -20 -56 -21 -95 -13 -25 6 -65 14 -90 18 -41 6 -43 7 -18 14 l27 7 -24 43 c-29 52 -39 130 -22 177 20 59 93 83 179 60z m474 -16 c19 -9 47 -32 64 -50 25 -30 30 -43 30 -89 0 -46 -4 -59 -31 -89 l-30 -35 28 -8 c45 -13 -110 -21 -182 -10 -66 10 -85 21 -68 38 8 8 7 21 -4 47 -23 56 -13 135 22 172 40 42 112 52 171 24z"/>
 <path d="M1040 1378 l-35 -11 39 -7 c46 -9 78 -2 73 14 -5 15 -35 17 -77 4z"/>
 <path d="M932 1311 c-19 -12 3 -27 61 -43 35 -9 53 -9 65 -2 30 19 26 41 -9 48 -44 8 -101 7 -117 -3z"/>
 <path d="M692 1036 c-109 -50 -35 -276 91 -276 144 0 195 199 68 265 -44 22 -121 27 -159 11z"/>
 <path d="M1144 1021 c-95 -58 -36 -251 78 -251 81 0 138 59 138 144 0 43 -4 53 -39 87 -35 36 -43 39 -92 39 -35 0 -65 -7 -85 -19z"/>
 </g>
<g id="layer113" fill="#a5877b" stroke="none">
 <path d="M835 1988 c-27 -85 -76 -280 -85 -340 -10 -70 -10 -80 9 -117 24 -46 26 -67 9 -78 -7 -4 -18 -17 -24 -28 -6 -11 -18 -20 -27 -20 -20 0 -58 -35 -51 -46 3 -5 -7 -20 -22 -34 -16 -15 -24 -30 -20 -41 3 -8 -1 -25 -9 -37 -8 -12 -15 -29 -15 -39 0 -12 -8 -18 -21 -18 -27 0 -61 -19 -54 -30 3 -4 0 -21 -6 -37 -7 -15 -13 -34 -13 -41 -1 -7 -6 -16 -13 -20 -6 -4 -11 -16 -10 -27 1 -11 -4 -20 -13 -20 -8 0 -15 -7 -15 -15 0 -8 5 -14 12 -13 7 2 10 -4 6 -13 -5 -15 -7 -15 -15 0 -14 25 -26 11 -38 -50 -10 -47 -9 -59 4 -80 28 -42 51 -31 73 35 15 42 17 63 10 70 -6 6 -7 14 -3 18 4 4 11 1 15 -6 6 -9 11 -10 15 -2 4 6 14 11 22 11 18 0 18 -32 -1 -95 -27 -86 -24 -126 21 -358 12 -62 54 -174 77 -204 22 -30 131 -93 149 -88 12 4 20 1 24 -10 4 -11 14 -15 27 -11 11 2 29 -1 41 -8 27 -17 197 -16 218 1 7 7 23 10 35 7 13 -4 22 0 27 11 4 10 13 14 24 11 22 -7 113 48 110 66 -2 7 6 13 17 13 37 0 85 124 115 299 23 134 23 193 -1 298 -7 32 -10 60 -7 64 12 12 46 -7 51 -29 25 -102 53 -137 85 -105 15 15 16 84 2 93 -6 4 -8 14 -6 23 6 19 -27 76 -40 70 -5 -2 -10 10 -11 26 -1 15 -9 36 -17 45 -10 10 -13 26 -9 40 4 15 2 22 -4 18 -12 -8 -46 27 -36 36 3 4 -6 7 -20 7 -19 0 -27 5 -27 18 0 10 -7 27 -15 39 -8 12 -12 29 -9 37 4 11 -4 26 -20 41 -15 14 -25 29 -22 34 7 11 -32 46 -52 46 -10 0 -16 6 -15 12 2 7 -8 20 -22 29 -30 20 -32 46 -4 90 20 33 20 36 5 131 -9 54 -32 150 -50 213 l-34 115 -50 3 -50 3 -11 -51 c-16 -74 -14 -98 9 -110 11 -6 20 -16 20 -23 0 -18 -63 -77 -81 -77 -8 0 -33 18 -54 41 l-40 40 26 20 c27 19 27 20 13 66 -8 25 -14 57 -14 70 0 21 -4 23 -45 23 -28 0 -47 -5 -50 -12z m95 -454 c-56 -17 -64 -17 -25 1 17 8 39 14 50 14 11 0 0 -7 -25 -15z m159 5 c48 -17 32 -20 -19 -4 -25 7 -38 14 -29 14 9 1 30 -4 48 -10z m-249 -44 c-19 -14 -36 -25 -39 -25 -10 1 53 50 63 50 6 0 -5 -11 -24 -25z m335 0 c39 -32 28 -32 -15 0 -19 14 -30 25 -24 25 5 0 23 -11 39 -25z m-45 -115 c14 -26 -2 -79 -30 -105 -32 -29 -107 -30 -159 -3 -57 29 -90 72 -75 96 9 14 27 17 92 17 44 0 84 3 88 8 4 4 22 7 40 7 23 0 37 -6 44 -20z m-318 -320 c72 -20 128 -89 128 -157 0 -15 -8 -50 -17 -77 -16 -44 -24 -52 -68 -72 -43 -20 -56 -21 -95 -13 -25 6 -65 14 -90 18 -41 6 -43 7 -18 14 l27 7 -24 43 c-29 52 -39 130 -22 177 20 59 93 83 179 60z m474 -16 c19 -9 47 -32 64 -50 25 -30 30 -43 30 -89 0 -46 -4 -59 -31 -89 l-30 -35 28 -8 c45 -13 -110 -21 -182 -10 -66 10 -85 21 -68 38 8 8 7 21 -4 47 -23 56 -13 135 22 172 40 42 112 52 171 24z m267 -91 c-3 -7 -9 -13 -14 -13 -5 0 -9 6 -9 13 0 8 6 14 14 14 8 0 12 -6 9 -14z"/>
 <path d="M932 1311 c-19 -12 3 -27 61 -43 35 -9 53 -9 65 -2 30 19 26 41 -9 48 -44 8 -101 7 -117 -3z"/>
 <path d="M692 1036 c-109 -50 -35 -276 91 -276 144 0 195 199 68 265 -44 22 -121 27 -159 11z"/>
 <path d="M1144 1021 c-95 -58 -36 -251 78 -251 81 0 138 59 138 144 0 43 -4 53 -39 87 -35 36 -43 39 -92 39 -35 0 -65 -7 -85 -19z"/>
 </g>
<g id="layer114" fill="#cc8a76" stroke="none">
 <path d="M837 1993 c-4 -3 -7 -13 -7 -22 0 -9 -14 -59 -30 -111 -17 -52 -37 -139 -45 -193 -15 -94 -14 -99 5 -137 23 -45 25 -66 8 -77 -7 -4 -18 -17 -24 -28 -6 -11 -18 -20 -27 -20 -20 0 -58 -35 -51 -46 3 -5 -7 -20 -22 -34 -16 -15 -24 -30 -20 -41 3 -8 -1 -25 -9 -37 -8 -12 -15 -29 -15 -39 0 -12 -8 -18 -21 -18 -27 0 -61 -19 -54 -30 3 -4 0 -21 -6 -37 -7 -15 -13 -34 -13 -41 -1 -7 -6 -16 -13 -20 -6 -4 -11 -16 -10 -27 1 -11 -4 -20 -13 -20 -8 0 -15 -7 -15 -15 0 -8 5 -14 12 -13 7 2 10 -4 6 -13 -5 -15 -7 -15 -15 0 -14 25 -26 11 -38 -50 -10 -47 -9 -59 4 -80 28 -41 49 -31 72 36 14 40 18 62 11 69 -6 6 -7 14 -2 18 4 5 10 2 12 -5 4 -10 8 -10 19 -1 7 6 20 9 28 6 12 -5 11 -17 -5 -79 -25 -96 -24 -138 6 -301 22 -121 60 -237 88 -274 22 -30 131 -93 149 -88 12 4 20 1 24 -10 4 -11 14 -15 27 -11 11 2 29 -1 41 -8 27 -17 197 -16 218 1 7 7 23 10 35 7 13 -4 22 0 27 11 4 10 13 14 24 11 22 -7 113 48 110 66 -2 7 6 13 17 13 37 0 84 124 114 302 26 149 26 188 1 283 -10 41 -17 76 -15 78 2 3 15 2 27 -1 18 -5 29 -22 48 -77 24 -70 41 -85 68 -58 15 15 16 84 2 93 -6 4 -8 14 -6 23 6 19 -27 76 -40 70 -5 -2 -10 10 -11 26 -1 15 -9 36 -17 45 -10 10 -13 26 -9 40 4 15 2 22 -4 18 -12 -8 -46 27 -36 36 3 4 -6 7 -20 7 -19 0 -27 5 -27 18 0 10 -7 27 -15 39 -8 12 -12 29 -9 37 4 11 -4 26 -20 41 -15 14 -25 29 -22 34 7 11 -32 46 -52 46 -10 0 -16 6 -15 12 2 7 -8 20 -22 29 -30 20 -32 46 -5 90 20 32 20 35 5 131 -8 54 -29 145 -46 203 -17 58 -33 111 -35 118 -2 7 -22 12 -53 12 -55 0 -54 1 -67 -97 -6 -45 -4 -52 15 -62 11 -7 21 -19 21 -27 0 -21 -57 -74 -79 -74 -9 0 -35 18 -56 41 l-40 40 26 20 c27 19 27 20 13 66 -8 25 -14 57 -14 70 0 21 -5 23 -43 23 -24 0 -47 -3 -50 -7z m93 -459 c-56 -17 -64 -17 -25 1 17 8 39 14 50 14 11 0 0 -7 -25 -15z m159 5 c48 -17 32 -20 -19 -4 -25 7 -38 14 -29 14 9 1 30 -4 48 -10z m-249 -44 c-19 -14 -36 -25 -39 -25 -10 1 53 50 63 50 6 0 -5 -11 -24 -25z m335 0 c39 -32 28 -32 -15 0 -19 14 -30 25 -24 25 5 0 23 -11 39 -25z m-43 -121 c10 -22 9 -32 -7 -62 -27 -49 -58 -64 -123 -58 -85 8 -165 81 -131 122 11 13 25 15 79 10 37 -3 71 -2 80 4 8 5 32 10 53 10 31 0 40 -5 49 -26z m-270 -333 c41 -25 78 -89 78 -137 0 -16 -8 -51 -17 -78 -15 -41 -25 -52 -65 -72 -42 -21 -52 -23 -95 -13 -26 6 -70 14 -98 18 -48 7 -49 7 -19 14 l32 8 -26 47 c-48 85 -32 205 31 233 37 15 138 4 179 -20z m424 3 c19 -9 47 -32 64 -50 26 -30 30 -42 30 -94 0 -52 -3 -62 -30 -88 l-30 -30 33 -8 c52 -13 -115 -25 -187 -14 -66 10 -87 23 -69 41 9 9 8 19 -4 42 -25 49 -14 140 22 176 15 17 37 32 49 34 47 9 90 6 122 -9z m267 -91 c-3 -7 -9 -13 -14 -13 -5 0 -9 6 -9 13 0 8 6 14 14 14 8 0 12 -6 9 -14z"/>
 <path d="M931 1311 c-11 -7 -7 -12 15 -24 64 -33 134 -29 134 7 0 22 -120 35 -149 17z"/>
 <path d="M711 1040 c-47 -11 -63 -31 -69 -89 -5 -59 22 -126 70 -166 55 -46 149 -27 188 38 24 38 26 106 5 147 -28 55 -118 87 -194 70z"/>
 <path d="M1147 1024 c-71 -39 -61 -185 16 -233 41 -25 77 -27 124 -4 48 22 73 66 73 127 0 43 -4 53 -39 87 -35 36 -43 39 -92 39 -30 -1 -67 -8 -82 -16z"/>
 </g>
<g id="layer115" fill="#aa9f9b" stroke="none">
 <path d="M837 1993 c-4 -3 -7 -13 -7 -22 0 -9 -14 -59 -30 -111 -17 -52 -37 -139 -45 -193 -14 -93 -14 -99 4 -135 11 -20 21 -30 21 -22 1 10 4 9 10 -5 7 -17 9 -17 9 -2 1 11 9 17 24 17 12 0 40 7 62 15 22 8 51 14 65 14 17 -1 8 -6 -25 -16 -27 -8 -67 -28 -87 -44 -20 -16 -44 -29 -52 -29 -9 0 -15 -3 -14 -8 4 -12 -79 -83 -94 -80 -7 2 -12 -4 -10 -14 1 -9 -5 -22 -15 -30 -10 -7 -19 -26 -21 -43 -2 -16 -8 -35 -13 -41 -5 -6 -6 -14 -2 -17 3 -4 1 -13 -5 -20 -7 -8 -10 -16 -7 -18 2 -3 -8 -53 -24 -111 -23 -84 -26 -108 -16 -112 11 -4 10 -19 -6 -78 -25 -96 -24 -138 6 -300 30 -163 44 -200 97 -254 22 -23 40 -46 39 -50 0 -5 7 -9 17 -9 9 0 16 -6 14 -13 -1 -8 2 -11 7 -8 5 3 33 -5 62 -18 95 -42 120 -48 199 -48 79 0 104 6 199 48 29 13 57 21 62 18 5 -3 8 0 7 8 -2 7 4 13 12 13 8 0 16 4 16 9 1 4 20 27 43 50 50 51 72 111 100 273 26 149 26 188 1 283 -11 41 -20 76 -20 78 0 1 6 2 14 2 12 0 9 21 -15 107 -15 59 -26 109 -24 112 3 2 0 10 -7 18 -6 7 -8 16 -5 20 4 3 3 11 -2 17 -5 6 -11 25 -13 41 -2 17 -11 36 -21 44 -10 7 -16 19 -13 27 3 7 0 11 -7 8 -13 -5 -70 47 -68 62 0 5 -7 9 -17 9 -9 0 -16 6 -14 13 1 6 -5 12 -14 12 -8 0 -32 13 -52 29 -20 16 -59 36 -87 44 -33 10 -42 15 -25 16 14 0 43 -6 65 -14 22 -8 50 -15 62 -15 12 0 23 -7 25 -17 3 -14 11 -8 31 23 l28 41 -16 99 c-8 55 -29 146 -46 204 -17 58 -33 111 -35 118 -2 7 -22 12 -53 12 -55 0 -54 1 -67 -97 -6 -45 -4 -52 15 -62 11 -7 21 -19 21 -27 0 -21 -57 -74 -79 -74 -9 0 -35 18 -56 41 l-40 40 26 20 c27 19 27 20 13 66 -8 25 -14 57 -14 70 0 21 -5 23 -43 23 -24 0 -47 -3 -50 -7z m295 -619 c10 -22 9 -32 -7 -62 -27 -49 -58 -64 -123 -58 -85 8 -165 81 -131 122 11 13 25 15 79 10 37 -3 71 -2 80 4 8 5 32 10 53 10 31 0 40 -5 49 -26z m-132 -202 c0 -5 -6 -17 -14 -28 -10 -13 -11 -23 -4 -31 5 -7 8 -20 6 -30 -2 -14 -6 -12 -21 11 -14 21 -16 30 -6 42 6 8 8 14 4 14 -4 0 -2 7 5 15 13 16 30 20 30 7z m-138 -131 c41 -25 78 -89 78 -137 0 -16 -8 -51 -17 -78 -15 -41 -25 -52 -65 -72 -42 -21 -52 -23 -95 -13 -26 6 -70 14 -98 18 -48 7 -49 7 -19 14 l32 8 -26 47 c-48 85 -32 205 31 233 37 15 138 4 179 -20z m424 3 c19 -9 47 -32 64 -50 26 -30 30 -42 30 -94 0 -52 -3 -62 -30 -88 l-30 -30 33 -8 c52 -13 -115 -25 -187 -14 -66 10 -87 23 -69 41 9 9 8 19 -4 42 -25 49 -14 140 22 176 15 17 37 32 49 34 47 9 90 6 122 -9z"/>
 <path d="M931 1311 c-11 -7 -7 -12 15 -24 64 -33 134 -29 134 7 0 22 -120 35 -149 17z"/>
 <path d="M711 1040 c-47 -11 -63 -31 -69 -89 -5 -59 22 -126 70 -166 55 -46 149 -27 188 38 24 38 26 106 5 147 -28 55 -118 87 -194 70z"/>
 <path d="M1147 1024 c-71 -39 -61 -185 16 -233 41 -25 77 -27 124 -4 48 22 73 66 73 127 0 43 -4 53 -39 87 -35 36 -43 39 -92 39 -30 -1 -67 -8 -82 -16z"/>
 <path d="M551 1164 c-23 -17 -46 -60 -42 -81 3 -18 -29 -74 -38 -68 -5 2 -8 -3 -7 -13 0 -9 -3 -16 -9 -15 -5 1 -11 -11 -12 -25 l-1 -27 15 28 c19 37 26 30 12 -12 -6 -17 -17 -30 -24 -29 -8 2 -13 -1 -12 -7 1 -5 5 -9 9 -8 5 2 8 -5 8 -15 0 -10 6 -24 13 -31 10 -10 8 -12 -10 -9 -12 1 -22 -1 -22 -7 0 -5 6 -9 14 -7 7 1 17 -3 21 -9 4 -7 16 12 28 47 19 51 20 63 9 85 -9 17 -10 35 -5 50 8 22 9 21 15 -9 13 -63 26 -40 67 117 13 51 3 67 -29 45z"/>
 <path d="M1415 1170 c-3 -5 6 -55 21 -110 24 -90 29 -100 46 -94 17 5 19 2 13 -15 -3 -11 2 -45 11 -76 14 -42 20 -52 30 -44 7 6 17 8 21 6 5 -3 9 3 9 13 0 14 -3 16 -13 8 -8 -6 -17 -8 -20 -4 -9 9 11 41 26 41 6 0 11 3 11 8 0 4 0 10 0 13 0 4 -7 1 -15 -6 -18 -15 -22 -6 -29 58 -2 24 -10 49 -16 57 -6 7 -12 24 -14 37 -8 63 -63 137 -81 108z m85 -166 c0 -13 -4 -24 -10 -24 -5 0 -10 14 -10 31 0 17 4 28 10 24 6 -3 10 -17 10 -31z"/>
 <path d="M1537 993 c-3 -5 -2 -15 2 -22 7 -10 10 -10 16 -1 4 6 3 16 -3 22 -5 5 -12 6 -15 1z"/>
 </g>
<g id="layer116" fill="#5bbbd5" stroke="none">
 <path d="M830 1958 c-6 -24 -17 -61 -25 -83 -21 -59 -42 -150 -54 -233 -10 -65 -9 -76 8 -110 11 -20 21 -30 21 -22 1 10 4 9 10 -5 7 -17 9 -17 9 -2 1 11 9 17 24 17 12 0 40 7 62 15 22 8 51 14 65 14 17 -1 8 -6 -25 -16 -27 -8 -67 -28 -87 -44 -20 -16 -44 -29 -52 -29 -9 0 -15 -3 -14 -8 4 -12 -79 -83 -94 -80 -7 2 -12 -4 -10 -14 1 -9 -5 -22 -15 -30 -10 -7 -19 -26 -21 -43 -2 -16 -8 -35 -13 -41 -5 -6 -6 -14 -2 -17 3 -4 1 -13 -5 -20 -7 -8 -10 -16 -7 -18 2 -3 -8 -53 -24 -111 -23 -84 -26 -108 -16 -112 11 -4 10 -19 -6 -78 -25 -96 -24 -139 5 -294 31 -166 48 -210 97 -260 23 -23 41 -46 40 -50 0 -5 7 -9 17 -9 9 0 16 -6 14 -13 -1 -8 2 -11 7 -8 5 3 33 -5 62 -18 95 -42 120 -48 199 -48 79 0 104 6 199 48 29 13 57 21 62 18 5 -3 8 0 7 8 -2 7 4 13 12 13 8 0 16 4 16 9 1 4 20 27 43 50 49 50 73 113 100 275 25 140 26 190 7 257 -26 92 -27 104 -12 104 12 0 9 21 -15 107 -15 59 -26 109 -24 112 3 2 0 10 -7 18 -6 7 -8 16 -5 20 4 3 3 11 -2 17 -5 6 -11 25 -13 41 -2 17 -11 36 -21 44 -10 7 -16 19 -13 27 3 7 0 11 -7 8 -13 -5 -70 47 -68 62 0 5 -7 9 -17 9 -9 0 -16 6 -14 13 1 6 -5 12 -14 12 -8 0 -32 13 -52 29 -20 16 -59 36 -87 44 -33 10 -42 15 -25 16 14 0 43 -6 65 -14 22 -8 50 -15 62 -15 12 0 23 -7 25 -17 3 -14 11 -8 32 24 27 40 27 43 16 105 -22 126 -32 174 -50 228 -10 30 -23 74 -29 98 l-12 42 -48 0 c-54 0 -54 1 -66 -96 -7 -47 -5 -52 19 -68 l27 -17 -21 -30 c-12 -16 -35 -36 -51 -44 -28 -15 -30 -14 -69 25 -22 22 -40 44 -40 49 0 5 11 16 25 25 21 14 23 19 14 44 -6 15 -14 45 -18 67 -6 39 -8 40 -48 43 -42 3 -42 3 -53 -40z m175 -569 c76 9 118 6 128 -10 15 -23 0 -67 -33 -100 -23 -24 -37 -29 -76 -29 -47 0 -122 28 -142 53 -21 25 -24 64 -6 81 13 14 25 16 58 10 22 -4 55 -6 71 -5z m-5 -217 c0 -5 -6 -17 -14 -28 -10 -13 -11 -23 -4 -31 5 -7 8 -20 6 -30 -2 -14 -6 -12 -21 11 -14 21 -16 30 -6 42 6 8 8 14 4 14 -4 0 -2 7 5 15 13 16 30 20 30 7z m-155 -122 c85 -39 117 -138 75 -232 -15 -34 -29 -49 -67 -68 -47 -23 -47 -23 -112 -7 -37 10 -79 17 -96 18 l-30 1 28 10 c15 5 26 13 24 17 -47 87 -59 180 -28 229 12 18 31 37 44 42 39 16 116 11 162 -10z m458 -13 c57 -34 77 -71 77 -140 0 -51 -4 -62 -28 -87 l-29 -28 31 -10 c29 -9 27 -10 -29 -13 -115 -6 -140 -6 -180 3 -48 11 -63 24 -48 39 8 8 7 18 -3 37 -21 41 -18 128 7 168 34 56 135 71 202 31z"/>
 <path d="M935 1311 c-19 -7 -18 -8 5 -21 60 -32 140 -30 140 3 0 22 -103 34 -145 18z"/>
 <path d="M668 1010 c-27 -28 -30 -36 -26 -79 6 -63 36 -120 78 -148 85 -58 200 9 200 116 0 89 -62 140 -168 141 -46 0 -58 -4 -84 -30z"/>
 <path d="M1160 1027 c-19 -6 -40 -23 -47 -37 -33 -64 1 -175 61 -204 43 -20 62 -20 112 3 46 21 74 68 74 123 0 38 -29 92 -59 107 -33 18 -103 22 -141 8z"/>
 <path d="M551 1164 c-23 -17 -46 -60 -42 -81 3 -18 -29 -74 -38 -68 -5 2 -8 -3 -7 -13 0 -9 -3 -16 -9 -15 -5 1 -11 -11 -12 -25 l-1 -27 15 28 c19 37 26 30 12 -12 -6 -17 -17 -30 -24 -29 -8 2 -13 -1 -12 -7 1 -5 5 -9 9 -8 5 2 8 -5 8 -15 0 -10 6 -24 13 -31 10 -10 8 -12 -10 -9 -12 1 -22 -1 -22 -7 0 -5 6 -9 14 -7 7 1 17 -3 21 -9 4 -7 16 12 28 47 19 51 20 63 9 85 -9 17 -10 35 -5 50 8 22 9 21 15 -9 13 -63 26 -40 67 117 13 51 3 67 -29 45z"/>
 <path d="M1415 1170 c-3 -5 6 -55 21 -110 24 -90 29 -100 46 -94 17 5 19 2 13 -15 -3 -11 2 -45 11 -76 14 -42 20 -52 30 -44 7 6 17 8 21 6 5 -3 9 3 9 13 0 14 -3 16 -13 8 -8 -6 -17 -8 -20 -4 -9 9 11 41 26 41 6 0 11 3 11 8 0 4 0 10 0 13 0 4 -7 1 -15 -6 -18 -15 -22 -6 -29 58 -2 24 -10 49 -16 57 -6 7 -12 24 -14 37 -8 63 -63 137 -81 108z m85 -166 c0 -13 -4 -24 -10 -24 -5 0 -10 14 -10 31 0 17 4 28 10 24 6 -3 10 -17 10 -31z"/>
 <path d="M1537 993 c-3 -5 -2 -15 2 -22 7 -10 10 -10 16 -1 4 6 3 16 -3 22 -5 5 -12 6 -15 1z"/>
 </g>
<g id="layer117" fill="#d69b8a" stroke="none">
 <path d="M830 1958 c-6 -24 -17 -61 -25 -83 -21 -59 -42 -150 -54 -233 -10 -65 -9 -76 8 -110 11 -20 21 -30 21 -22 1 10 4 9 10 -5 7 -17 9 -17 9 -2 1 11 9 17 24 17 12 0 40 7 62 15 22 8 51 14 65 14 17 -1 8 -6 -25 -16 -27 -8 -67 -28 -87 -44 -20 -16 -44 -29 -52 -29 -9 0 -15 -3 -14 -8 4 -12 -79 -83 -94 -80 -7 2 -12 -4 -10 -14 1 -9 -5 -22 -15 -30 -10 -7 -19 -26 -21 -43 -2 -16 -8 -35 -13 -41 -5 -6 -6 -14 -2 -17 3 -4 1 -13 -5 -20 -7 -8 -10 -16 -7 -18 2 -3 -8 -53 -24 -111 -23 -84 -26 -108 -16 -112 11 -4 10 -19 -6 -78 -25 -96 -24 -139 5 -294 31 -166 48 -210 97 -260 23 -23 41 -46 40 -50 0 -5 7 -9 17 -9 9 0 16 -6 14 -13 -1 -8 2 -11 7 -8 5 3 33 -5 62 -18 95 -42 120 -48 199 -48 79 0 104 6 199 48 29 13 57 21 62 18 5 -3 8 0 7 8 -2 7 4 13 12 13 8 0 16 4 16 9 1 4 20 27 43 50 49 50 73 113 100 275 25 140 26 190 7 257 -26 92 -27 104 -12 104 12 0 9 21 -15 107 -15 59 -26 109 -24 112 3 2 0 10 -7 18 -6 7 -8 16 -5 20 4 3 3 11 -2 17 -5 6 -11 25 -13 41 -2 17 -11 36 -21 44 -10 7 -16 19 -13 27 3 7 0 11 -7 8 -13 -5 -70 47 -68 62 0 5 -7 9 -17 9 -9 0 -16 6 -14 13 1 6 -5 12 -14 12 -8 0 -32 13 -52 29 -20 16 -59 36 -87 44 -33 10 -42 15 -25 16 14 0 43 -6 65 -14 22 -8 50 -15 62 -15 12 0 23 -7 25 -17 3 -14 11 -8 32 24 27 40 27 43 16 105 -22 126 -32 174 -50 228 -10 30 -23 74 -29 98 l-12 42 -48 0 c-54 0 -54 1 -66 -96 -7 -47 -5 -52 19 -68 l27 -17 -21 -30 c-12 -16 -35 -36 -51 -44 -28 -15 -30 -14 -69 25 -22 22 -40 44 -40 49 0 5 11 16 25 25 21 14 23 19 14 44 -6 15 -14 45 -18 67 -6 39 -8 40 -48 43 -42 3 -42 3 -53 -40z m175 -569 c76 9 118 6 128 -10 15 -23 0 -67 -33 -100 -23 -24 -37 -29 -76 -29 -47 0 -122 28 -142 53 -21 25 -24 64 -6 81 13 14 25 16 58 10 22 -4 55 -6 71 -5z m-5 -217 c0 -5 -6 -17 -14 -28 -10 -13 -11 -23 -4 -31 5 -7 8 -20 6 -30 -2 -14 -6 -12 -21 11 -14 21 -16 30 -6 42 6 8 8 14 4 14 -4 0 -2 7 5 15 13 16 30 20 30 7z m-155 -122 c85 -39 117 -138 75 -232 -15 -34 -29 -49 -67 -68 -47 -23 -47 -23 -112 -7 -37 10 -79 17 -96 18 l-30 1 28 10 c15 5 26 13 24 17 -47 87 -59 180 -28 229 12 18 31 37 44 42 39 16 116 11 162 -10z m458 -13 c57 -34 77 -71 77 -140 0 -51 -4 -62 -28 -87 l-29 -28 31 -10 c29 -9 27 -10 -29 -13 -115 -6 -140 -6 -180 3 -48 11 -63 24 -48 39 8 8 7 18 -3 37 -21 41 -18 128 7 168 34 56 135 71 202 31z"/>
 <path d="M935 1311 c-19 -7 -18 -8 5 -21 60 -32 140 -30 140 3 0 22 -103 34 -145 18z"/>
 <path d="M668 1010 c-27 -28 -30 -36 -26 -79 6 -63 36 -120 78 -148 85 -58 200 9 200 116 0 89 -62 140 -168 141 -46 0 -58 -4 -84 -30z m152 -105 c25 -30 -9 -63 -54 -51 -28 7 -41 33 -25 52 15 18 63 18 79 -1z"/>
 <path d="M1160 1027 c-19 -6 -40 -23 -47 -37 -33 -64 1 -175 61 -204 43 -20 62 -20 112 3 46 21 74 68 74 123 0 38 -29 92 -59 107 -33 18 -103 22 -141 8z m81 -117 c28 -15 24 -48 -6 -56 -36 -9 -55 2 -55 30 0 33 26 44 61 26z"/>
 <path d="M551 1164 c-23 -17 -46 -60 -42 -81 3 -18 -29 -74 -38 -68 -5 2 -8 -3 -7 -13 0 -9 -3 -16 -9 -15 -5 1 -11 -11 -12 -25 l-1 -27 15 28 c19 37 26 30 12 -12 -6 -17 -17 -30 -24 -29 -8 2 -13 -1 -12 -7 1 -5 5 -9 9 -8 5 2 8 -5 8 -15 0 -10 6 -24 13 -31 10 -10 8 -12 -10 -9 -12 1 -22 -1 -22 -7 0 -5 6 -9 14 -7 7 1 17 -3 21 -9 4 -7 16 12 28 47 19 51 20 63 9 85 -9 17 -10 35 -5 50 8 22 9 21 15 -9 13 -63 26 -40 67 117 13 51 3 67 -29 45z"/>
 <path d="M1415 1170 c-3 -5 6 -55 21 -110 24 -90 29 -100 46 -94 17 5 19 2 13 -15 -3 -11 2 -45 11 -76 14 -42 20 -52 30 -44 7 6 17 8 21 6 5 -3 9 3 9 13 0 14 -3 16 -13 8 -8 -6 -17 -8 -20 -4 -9 9 11 41 26 41 6 0 11 3 11 8 0 4 0 10 0 13 0 4 -7 1 -15 -6 -18 -15 -22 -6 -29 58 -2 24 -10 49 -16 57 -6 7 -12 24 -14 37 -8 63 -63 137 -81 108z m85 -166 c0 -13 -4 -24 -10 -24 -5 0 -10 14 -10 31 0 17 4 28 10 24 6 -3 10 -17 10 -31z"/>
 <path d="M1537 993 c-3 -5 -2 -15 2 -22 7 -10 10 -10 16 -1 4 6 3 16 -3 22 -5 5 -12 6 -15 1z"/>
 </g>
<g id="layer118" fill="#daa797" stroke="none">
 <path d="M830 1958 c-6 -24 -17 -61 -25 -83 -21 -59 -42 -150 -54 -233 -10 -65 -9 -76 8 -110 13 -23 20 -30 21 -19 0 10 12 29 26 42 26 24 30 25 193 25 130 -1 170 -4 185 -15 16 -12 22 -12 28 -2 5 7 8 -2 8 -23 l0 -35 21 32 c18 29 19 38 9 95 -22 126 -32 174 -50 228 -10 30 -23 74 -29 98 l-12 42 -48 0 c-54 0 -54 1 -66 -96 -7 -47 -5 -52 19 -68 l27 -17 -21 -30 c-12 -16 -35 -36 -51 -44 -28 -15 -30 -14 -69 25 -22 22 -40 44 -40 49 0 5 11 16 25 25 21 14 23 19 14 44 -6 15 -14 45 -18 67 -6 39 -8 40 -48 43 -42 3 -42 3 -53 -40z"/>
 <path d="M965 1535 c-5 -2 -27 -6 -47 -10 -21 -3 -58 -22 -83 -41 -25 -19 -50 -32 -56 -29 -5 4 -8 3 -7 -2 2 -5 -27 -38 -63 -74 l-66 -64 -43 -169 c-30 -119 -39 -170 -31 -175 8 -5 6 -28 -9 -82 -25 -96 -25 -137 4 -294 32 -167 48 -211 97 -261 22 -22 36 -44 32 -49 -5 -4 -3 -5 4 -1 6 3 33 -7 59 -24 26 -16 63 -34 83 -40 20 -7 43 -14 51 -17 8 -3 27 -5 42 -4 14 1 29 -2 33 -8 8 -14 62 -14 70 0 4 6 19 9 33 8 15 -1 34 1 42 4 8 3 31 10 51 17 20 6 57 24 83 40 26 17 53 27 59 24 7 -4 9 -3 4 1 -4 5 10 27 32 49 49 50 65 94 97 261 29 159 30 198 3 293 -16 57 -18 76 -9 82 10 6 2 49 -30 176 l-43 169 -66 64 c-36 36 -65 69 -63 74 1 5 -2 6 -8 2 -6 -4 -25 6 -43 21 -17 15 -45 33 -62 40 -31 13 -133 26 -150 19z m40 -146 c76 9 118 6 128 -10 15 -23 0 -67 -33 -100 -23 -24 -37 -29 -76 -29 -47 0 -122 28 -142 53 -21 25 -24 64 -6 81 13 14 25 16 58 10 22 -4 55 -6 71 -5z m-9 -226 c-7 -16 -12 -43 -9 -63 l5 -35 -26 30 c-30 35 -32 45 -10 45 8 0 13 4 9 9 -3 5 5 17 17 25 30 21 31 20 14 -11z m-151 -113 c85 -39 117 -138 75 -232 -15 -34 -29 -49 -67 -68 -47 -23 -47 -23 -112 -7 -37 10 -79 17 -96 18 l-30 1 28 10 c15 5 26 13 24 17 -47 87 -59 180 -28 229 12 18 31 37 44 42 39 16 116 11 162 -10z m458 -13 c57 -34 77 -71 77 -140 0 -51 -4 -62 -29 -87 l-28 -29 31 -8 c26 -6 19 -8 -44 -15 -80 -8 -174 -2 -202 13 -19 10 -25 39 -9 39 6 0 3 12 -5 28 -21 41 -18 128 7 168 34 56 135 71 202 31z"/>
 <path d="M935 1311 c-19 -7 -18 -8 5 -21 60 -32 140 -30 140 3 0 22 -103 34 -145 18z"/>
 <path d="M668 1010 c-27 -28 -30 -36 -26 -79 6 -63 36 -120 78 -148 85 -58 200 9 200 116 0 89 -62 140 -168 141 -46 0 -58 -4 -84 -30z m152 -105 c25 -30 -9 -63 -54 -51 -28 7 -41 33 -25 52 15 18 63 18 79 -1z"/>
 <path d="M1160 1027 c-19 -6 -40 -23 -47 -37 -33 -64 1 -175 61 -204 43 -20 62 -20 112 3 46 21 74 68 74 123 0 38 -29 92 -59 107 -33 18 -103 22 -141 8z m81 -117 c28 -15 24 -48 -6 -56 -36 -9 -55 2 -55 30 0 33 26 44 61 26z"/>
 <path d="M536 1148 c-8 -13 -20 -43 -26 -68 -7 -25 -15 -49 -20 -55 -4 -5 -11 -32 -15 -60 -4 -27 -11 -55 -16 -62 -7 -7 -6 -14 1 -18 15 -9 12 -35 -4 -35 -8 0 -18 -5 -22 -12 -4 -7 -3 -8 5 -4 6 4 18 3 25 -3 21 -18 49 84 35 130 -9 29 -8 41 4 65 l16 29 1 -42 c0 -24 4 -43 9 -43 7 0 61 173 61 195 0 15 -42 2 -54 -17z"/>
 <path d="M1410 1165 c0 -3 12 -48 26 -100 27 -96 43 -113 45 -47 l1 37 14 -32 c10 -25 11 -39 3 -60 -14 -38 17 -149 37 -132 7 6 19 7 25 3 8 -4 9 -3 5 4 -4 7 -15 12 -24 12 -14 0 -17 11 -17 69 0 38 3 67 7 65 4 -2 10 0 13 6 4 6 1 9 -6 8 -16 -4 -49 53 -56 94 -6 45 -29 78 -53 78 -11 0 -20 -2 -20 -5z"/>
 </g>
<g id="layer119" fill="#d3b4aa" stroke="none">
 <path d="M830 1958 c-6 -24 -17 -61 -25 -83 -21 -59 -42 -150 -54 -233 -10 -64 -9 -76 7 -109 l19 -36 6 29 c8 39 77 82 156 96 77 15 168 -1 223 -37 21 -14 43 -23 48 -20 6 4 10 -8 10 -27 l0 -33 21 32 c18 29 19 38 9 95 -22 126 -32 174 -50 228 -10 30 -23 74 -29 98 l-12 42 -48 0 c-54 0 -54 1 -66 -96 -7 -47 -5 -52 19 -68 l27 -17 -21 -30 c-12 -16 -35 -36 -51 -44 -28 -15 -30 -14 -69 25 -22 22 -40 44 -40 49 0 5 11 16 25 25 21 14 23 19 14 44 -6 15 -14 45 -18 67 -6 39 -8 40 -48 43 -42 3 -42 3 -53 -40z"/>
 <path d="M871 1503 c-68 -38 -197 -146 -216 -182 -26 -51 -97 -344 -85 -351 8 -5 5 -31 -9 -88 -27 -102 -26 -120 4 -286 31 -167 47 -209 97 -262 21 -22 35 -44 31 -49 -5 -4 -2 -5 4 -1 7 4 30 -5 50 -19 41 -27 150 -65 189 -65 13 0 33 -6 44 -12 16 -10 24 -10 40 0 11 6 31 12 44 12 39 0 148 38 189 65 20 14 43 23 50 19 6 -4 9 -3 4 1 -4 5 10 27 31 49 50 53 66 95 97 262 30 166 31 184 4 286 -14 57 -17 83 -9 88 12 7 -59 300 -85 351 -19 36 -148 144 -216 182 -43 23 -63 27 -129 27 -66 0 -86 -4 -129 -27z m134 -114 c76 9 118 6 128 -10 15 -23 0 -67 -33 -100 -23 -24 -37 -29 -76 -29 -47 0 -122 28 -142 53 -21 25 -24 64 -6 81 13 14 25 16 58 10 22 -4 55 -6 71 -5z m25 -224 l23 -25 -31 0 c-30 0 -32 -2 -32 -37 l-1 -38 -24 30 c-29 35 -33 60 -8 51 10 -4 14 -4 10 0 -7 7 20 44 33 44 3 0 17 -11 30 -25z m-185 -115 c121 -55 127 -241 9 -299 -42 -22 -51 -23 -96 -12 -27 6 -69 11 -94 11 -24 0 -44 5 -44 10 0 6 6 10 13 10 32 1 37 16 16 58 -31 62 -35 149 -10 190 12 18 31 37 44 42 39 16 116 11 162 -10z m458 -13 c56 -34 77 -71 77 -139 0 -46 -5 -62 -26 -87 l-25 -30 25 -7 c14 -3 26 -11 26 -16 0 -15 -240 -4 -268 11 -23 12 -30 41 -11 41 5 0 3 10 -5 22 -24 34 -21 132 5 174 34 56 135 71 202 31z"/>
 <path d="M935 1311 c-19 -7 -18 -8 5 -21 60 -32 140 -30 140 3 0 22 -103 34 -145 18z"/>
 <path d="M668 1010 c-27 -28 -30 -36 -26 -79 6 -63 36 -120 78 -148 85 -58 200 9 200 116 0 89 -62 140 -168 141 -46 0 -58 -4 -84 -30z m152 -105 c25 -30 -9 -63 -54 -51 -28 7 -41 33 -25 52 15 18 63 18 79 -1z"/>
 <path d="M1160 1027 c-19 -6 -40 -23 -47 -37 -33 -64 1 -175 61 -204 43 -20 62 -20 112 3 46 21 74 68 74 123 0 38 -29 92 -59 107 -33 18 -103 22 -141 8z m81 -117 c28 -15 24 -48 -6 -56 -36 -9 -55 2 -55 30 0 33 26 44 61 26z"/>
 <path d="M536 1148 c-18 -25 -21 -53 -6 -43 6 3 0 -11 -12 -31 -12 -21 -17 -34 -10 -30 9 5 12 -4 12 -33 0 -64 15 -48 39 42 12 45 24 90 27 100 8 26 -31 22 -50 -5z"/>
 <path d="M1414 1154 c3 -9 6 -22 6 -29 0 -8 7 -21 16 -29 8 -9 12 -16 8 -16 -3 0 0 -8 7 -17 10 -12 11 -15 1 -9 -10 6 -11 1 -6 -21 4 -15 11 -29 15 -31 4 -2 5 -10 2 -19 -5 -11 -3 -14 6 -8 8 4 11 22 9 47 -3 34 -2 37 9 22 21 -28 15 -2 -7 34 -12 19 -16 30 -9 27 13 -9 3 32 -13 53 -16 18 -52 16 -44 -4z"/>
 <path d="M473 953 c-6 -34 -7 -67 -2 -80 7 -19 5 -23 -11 -23 -10 0 -21 -3 -23 -7 -3 -5 6 -8 19 -8 21 0 30 7 22 18 -2 2 3 11 10 19 7 9 9 24 5 33 -4 13 -3 16 5 11 15 -9 15 -1 -1 52 l-13 44 -11 -59z"/>
 <path d="M1500 964 c-6 -14 -10 -33 -10 -42 0 -15 2 -15 11 -2 8 12 9 10 4 -7 -3 -13 -3 -28 2 -35 4 -7 8 -19 9 -26 3 -20 8 -22 24 -12 13 9 13 10 0 10 -12 0 -14 12 -12 57 2 45 0 55 -8 43 -9 -12 -10 -9 -6 13 8 34 -1 35 -14 1z"/>
 </g>
<g id="layer120" fill="#c2c3bf" stroke="none">
 <path d="M830 1958 c-6 -24 -17 -61 -25 -83 -22 -62 -35 -119 -51 -216 -13 -85 -13 -91 5 -127 19 -35 20 -36 21 -11 0 21 11 34 49 58 97 62 244 64 334 5 32 -21 41 -23 48 -12 6 8 9 -1 9 -27 l0 -40 21 32 c18 29 19 38 9 95 -22 126 -32 174 -50 228 -10 30 -23 74 -29 98 l-12 42 -48 0 c-54 0 -54 1 -66 -96 -7 -47 -5 -52 19 -68 l27 -17 -20 -28 c-11 -16 -32 -36 -46 -45 -23 -15 -27 -15 -50 0 -14 9 -35 30 -47 47 l-21 30 26 19 c23 17 25 22 16 46 -6 15 -14 45 -18 67 -6 39 -8 40 -48 43 -42 3 -42 3 -53 -40z"/>
 <path d="M871 1503 c-68 -38 -197 -146 -216 -182 -25 -50 -97 -344 -85 -351 7 -4 4 -33 -10 -91 -25 -106 -25 -113 6 -282 29 -161 51 -220 99 -267 19 -18 31 -38 28 -43 -3 -6 -1 -7 5 -3 7 4 29 -5 49 -19 41 -27 150 -65 189 -65 13 0 33 -6 44 -12 16 -10 24 -10 40 0 11 6 31 12 44 12 39 0 148 38 189 65 20 14 42 23 49 19 6 -4 8 -3 5 3 -4 5 8 23 25 39 46 44 75 119 103 273 30 167 30 174 5 280 -14 58 -17 87 -10 91 12 7 -60 301 -85 351 -19 36 -148 144 -216 182 -43 23 -63 27 -129 27 -66 0 -86 -4 -129 -27z m265 -125 c3 -11 3 -35 -1 -54 -20 -109 -246 -93 -271 19 -4 21 -2 34 8 41 9 6 69 12 136 13 113 1 122 0 128 -19z m-106 -213 l23 -25 -31 0 c-30 0 -32 -2 -32 -37 l-1 -38 -24 30 c-29 35 -33 60 -8 51 10 -4 14 -4 10 0 -7 7 20 44 33 44 3 0 17 -11 30 -25z m-157 -128 c64 -49 83 -128 51 -217 -14 -38 -24 -49 -65 -69 -45 -23 -52 -24 -116 -13 -37 7 -84 13 -103 15 l-35 3 30 14 c17 8 31 15 33 16 2 1 -7 19 -20 40 -18 31 -23 54 -23 112 0 71 1 75 34 104 33 29 37 30 107 26 59 -4 80 -10 107 -31z m424 7 c58 -28 83 -71 83 -142 0 -49 -4 -66 -24 -89 l-25 -29 32 -14 c31 -14 28 -15 -67 -18 -55 -1 -123 2 -153 8 -48 10 -53 14 -54 38 0 15 -2 62 -5 104 -4 48 -1 84 6 98 30 56 134 78 207 44z"/>
 <path d="M935 1311 c-19 -7 -18 -8 5 -21 60 -32 140 -30 140 3 0 22 -103 34 -145 18z"/>
 <path d="M668 1010 c-27 -28 -30 -36 -26 -79 6 -63 36 -120 78 -148 85 -58 200 9 200 116 0 89 -62 140 -168 141 -46 0 -58 -4 -84 -30z m152 -105 c25 -30 -9 -63 -54 -51 -28 7 -41 33 -25 52 15 18 63 18 79 -1z"/>
 <path d="M1160 1027 c-19 -6 -40 -23 -47 -37 -33 -64 1 -175 61 -204 43 -20 62 -20 112 3 46 21 74 68 74 123 0 38 -29 92 -59 107 -33 18 -103 22 -141 8z m81 -117 c28 -15 24 -48 -6 -56 -36 -9 -55 2 -55 30 0 33 26 44 61 26z"/>
 <path d="M536 1148 c-18 -25 -21 -53 -6 -43 6 3 0 -11 -12 -31 -12 -21 -17 -34 -10 -30 9 5 12 -4 12 -33 0 -64 15 -48 39 42 12 45 24 90 27 100 8 26 -31 22 -50 -5z"/>
 <path d="M1414 1154 c3 -9 6 -22 6 -29 0 -8 7 -21 16 -29 8 -9 12 -16 8 -16 -3 0 0 -8 7 -17 10 -12 11 -15 1 -9 -10 6 -11 1 -6 -21 4 -15 11 -29 15 -31 4 -2 5 -10 2 -19 -5 -11 -3 -14 6 -8 8 4 11 22 9 47 -3 34 -2 37 9 22 21 -28 15 -2 -7 34 -12 19 -16 30 -9 27 13 -9 3 32 -13 53 -16 18 -52 16 -44 -4z"/>
 <path d="M473 953 c-6 -34 -7 -67 -2 -80 7 -19 5 -23 -11 -23 -10 0 -21 -3 -23 -7 -3 -5 6 -8 19 -8 13 0 24 2 25 5 0 3 3 14 5 25 3 11 5 28 5 38 0 9 4 15 10 12 12 -8 11 1 -4 53 l-13 44 -11 -59z"/>
 <path d="M1500 964 c-6 -14 -10 -33 -10 -42 0 -15 2 -15 11 -2 8 12 9 10 4 -7 -3 -13 -3 -28 2 -35 4 -7 8 -19 9 -26 3 -20 8 -22 24 -12 13 9 13 10 0 10 -12 0 -14 12 -12 57 2 45 0 55 -8 43 -9 -12 -10 -9 -6 13 8 34 -1 35 -14 1z"/>
 </g>
<g id="layer121" fill="#e6b8ab" stroke="none">
 <path d="M834 1973 c-3 -15 -19 -71 -34 -123 -16 -52 -32 -115 -35 -140 -4 -25 -11 -66 -16 -91 -9 -40 -8 -52 10 -85 l20 -39 1 33 c0 17 5 32 10 32 6 0 28 11 49 25 84 56 239 56 324 -1 32 -21 41 -23 48 -12 6 8 9 -1 9 -27 l0 -40 21 33 c18 28 20 38 11 80 -6 26 -13 67 -17 92 -3 25 -19 88 -35 140 -15 52 -31 107 -34 123 -6 25 -10 27 -55 27 l-49 0 -12 -66 c-11 -66 -11 -67 16 -95 l28 -29 -43 -40 c-23 -22 -46 -40 -51 -40 -16 0 -90 71 -90 86 0 7 9 19 21 27 19 14 20 17 6 83 l-14 69 -41 3 c-38 3 -42 1 -48 -25z"/>
 <path d="M871 1503 c-68 -38 -197 -146 -216 -182 -25 -50 -97 -344 -85 -351 7 -4 4 -33 -10 -91 -25 -106 -25 -113 6 -282 29 -161 51 -220 99 -267 19 -18 31 -38 28 -43 -3 -6 -1 -7 5 -3 7 4 29 -5 49 -19 41 -27 150 -65 189 -65 13 0 33 -6 44 -12 16 -10 24 -10 40 0 11 6 31 12 44 12 39 0 148 38 189 65 20 14 42 23 49 19 6 -4 8 -3 5 3 -4 5 8 23 25 39 46 44 75 119 103 273 30 167 30 174 5 280 -14 58 -17 87 -10 91 12 7 -60 301 -85 351 -19 36 -148 144 -216 182 -43 23 -63 27 -129 27 -66 0 -86 -4 -129 -27z m265 -125 c3 -11 3 -35 -1 -54 -20 -109 -246 -93 -271 19 -4 21 -2 34 8 41 9 6 69 12 136 13 113 1 122 0 128 -19z m-106 -213 l23 -25 -31 0 c-30 0 -32 -2 -32 -37 l-1 -38 -24 30 c-29 35 -33 60 -8 51 10 -4 14 -4 10 0 -7 7 20 44 33 44 3 0 17 -11 30 -25z m-157 -128 c64 -49 83 -128 51 -217 -14 -38 -24 -49 -65 -69 -45 -23 -52 -24 -116 -13 -37 7 -84 13 -103 15 l-35 3 30 14 c17 8 31 15 33 16 2 1 -7 19 -20 40 -18 31 -23 54 -23 112 0 71 1 75 34 104 33 29 37 30 107 26 59 -4 80 -10 107 -31z m424 7 c58 -28 83 -71 83 -142 0 -49 -4 -66 -24 -89 l-25 -29 32 -14 c31 -14 28 -15 -67 -18 -55 -1 -123 2 -153 8 -48 10 -53 14 -54 38 0 15 -2 62 -5 104 -4 48 -1 84 6 98 30 56 134 78 207 44z"/>
 <path d="M940 1311 c-25 -8 -25 -9 12 -25 48 -21 117 -21 125 -1 3 9 4 17 2 19 -10 9 -117 14 -139 7z"/>
 <path d="M675 1017 c-40 -34 -44 -91 -12 -161 33 -71 74 -99 136 -93 92 10 150 121 106 203 -37 69 -174 100 -230 51z m145 -112 c25 -30 -9 -63 -54 -51 -28 7 -41 33 -25 52 15 18 63 18 79 -1z"/>
 <path d="M1129 1001 c-23 -23 -29 -38 -29 -71 0 -89 52 -153 124 -153 101 0 167 105 121 193 -24 46 -52 60 -123 60 -57 0 -67 -3 -93 -29z m112 -91 c28 -15 24 -48 -6 -56 -36 -9 -55 2 -55 30 0 33 26 44 61 26z"/>
 <path d="M536 1148 c-18 -25 -21 -53 -6 -43 6 3 0 -11 -12 -31 -12 -21 -17 -34 -10 -30 9 5 12 -4 12 -33 0 -64 15 -48 39 42 12 45 24 90 27 100 8 26 -31 22 -50 -5z"/>
 <path d="M1414 1154 c3 -9 6 -22 6 -29 0 -8 7 -21 16 -29 8 -9 12 -16 8 -16 -3 0 0 -8 7 -17 10 -12 11 -15 1 -9 -10 6 -11 1 -6 -21 4 -15 11 -29 15 -31 4 -2 5 -10 2 -19 -5 -11 -3 -14 6 -8 8 4 11 22 9 47 -3 34 -2 37 9 22 21 -28 15 -2 -7 34 -12 19 -16 30 -9 27 13 -9 3 32 -13 53 -16 18 -52 16 -44 -4z"/>
 <path d="M473 953 c-6 -34 -7 -67 -2 -80 7 -19 5 -23 -11 -23 -10 0 -21 -3 -23 -7 -3 -5 6 -8 19 -8 13 0 24 2 25 5 0 3 3 14 5 25 3 11 5 28 5 38 0 9 4 15 10 12 12 -8 11 1 -4 53 l-13 44 -11 -59z"/>
 <path d="M1500 964 c-6 -14 -10 -33 -10 -42 0 -15 2 -15 11 -2 8 12 9 10 4 -7 -3 -13 -3 -28 2 -35 4 -7 8 -19 9 -26 3 -20 8 -22 24 -12 13 9 13 10 0 10 -12 0 -14 12 -12 57 2 45 0 55 -8 43 -9 -12 -10 -9 -6 13 8 34 -1 35 -14 1z"/>
 </g>
<g id="layer122" fill="#ecc6ba" stroke="none">
 <path d="M834 1973 c-3 -15 -19 -71 -34 -123 -16 -52 -32 -115 -35 -140 -4 -25 -11 -66 -16 -91 -9 -40 -8 -52 10 -85 l20 -39 1 32 c0 33 6 38 90 79 76 38 238 27 296 -18 13 -11 31 -17 39 -14 12 4 15 -3 15 -32 l0 -37 21 33 c18 28 20 38 11 80 -6 26 -13 67 -17 92 -3 25 -19 88 -35 140 -15 52 -31 107 -34 123 -6 25 -10 27 -55 27 l-49 0 -12 -66 c-11 -66 -11 -67 16 -95 l28 -29 -43 -40 c-23 -22 -46 -40 -51 -40 -16 0 -90 71 -90 86 0 7 9 19 21 27 19 14 20 17 6 83 l-14 69 -41 3 c-38 3 -42 1 -48 -25z"/>
 <path d="M970 1523 c-65 -8 -107 -29 -187 -94 -48 -39 -98 -85 -111 -103 -23 -34 -91 -279 -96 -351 -2 -22 -11 -79 -22 -126 -18 -86 -18 -87 5 -215 34 -193 54 -250 111 -305 26 -26 83 -64 126 -85 l78 -39 126 0 126 0 78 39 c43 21 100 59 126 85 57 55 77 112 111 305 23 128 23 129 5 215 -11 47 -20 104 -22 126 -5 72 -73 317 -96 351 -33 45 -190 170 -230 182 -42 13 -96 19 -128 15z m166 -145 c11 -36 -5 -86 -35 -108 -74 -52 -241 3 -241 80 0 14 4 30 10 36 5 5 66 10 135 11 116 1 125 -1 131 -19z m-109 -210 c31 -29 29 -38 -8 -38 -30 0 -31 -2 -27 -35 5 -44 -1 -44 -29 0 -29 44 -29 45 5 72 33 28 31 28 59 1z m-180 -115 c55 -26 93 -86 93 -147 0 -81 -26 -131 -83 -157 -44 -21 -53 -22 -106 -11 -31 7 -76 12 -99 12 -48 0 -56 15 -13 25 l29 6 -24 52 c-42 90 -27 198 30 226 34 16 134 13 173 -6z m452 -8 c16 -8 40 -28 55 -45 22 -27 26 -41 26 -95 0 -53 -4 -68 -25 -93 l-25 -30 30 -7 c16 -4 30 -11 30 -16 0 -13 -202 -11 -256 2 -40 10 -45 15 -41 35 2 15 -3 30 -14 40 -20 18 -26 69 -9 79 6 3 10 20 10 36 0 41 15 66 53 89 39 24 125 27 166 5z"/>
 <path d="M940 1311 c-25 -8 -25 -9 12 -25 48 -21 117 -21 125 -1 3 9 4 17 2 19 -10 9 -117 14 -139 7z"/>
 <path d="M675 1017 c-40 -34 -44 -91 -12 -161 33 -71 74 -99 136 -93 92 10 150 121 106 203 -37 69 -174 100 -230 51z m145 -112 c25 -30 -9 -63 -54 -51 -28 7 -41 33 -25 52 15 18 63 18 79 -1z"/>
 <path d="M1129 1001 c-23 -23 -29 -38 -29 -71 0 -89 52 -153 124 -153 101 0 167 105 121 193 -24 46 -52 60 -123 60 -57 0 -67 -3 -93 -29z m112 -91 c28 -15 24 -48 -6 -56 -36 -9 -55 2 -55 30 0 33 26 44 61 26z"/>
 <path d="M536 1148 c-18 -25 -21 -42 -6 -33 13 8 13 -1 -1 -26 -10 -20 -10 -20 15 -4 14 10 26 18 26 19 0 0 4 16 9 34 8 28 7 32 -9 32 -10 0 -26 -10 -34 -22z"/>
 <path d="M1421 1138 c5 -18 9 -34 9 -34 0 -1 12 -10 28 -19 15 -10 21 -12 15 -4 -7 7 -13 20 -13 29 0 13 1 13 10 0 14 -21 12 -3 -1 23 -13 25 -28 37 -46 37 -8 0 -9 -9 -2 -32z"/>
 <path d="M1446 1061 c-3 -5 -1 -20 4 -33 9 -21 10 -20 5 7 -4 20 -3 27 4 20 5 -5 11 -23 13 -40 3 -29 4 -29 9 7 3 21 3 35 0 33 -2 -3 -10 0 -17 6 -8 6 -14 6 -18 0z"/>
 <path d="M523 1047 c-4 -6 -1 -7 7 -2 9 5 10 2 5 -14 -4 -12 -2 -21 4 -21 6 0 11 4 11 9 0 5 2 16 5 24 7 16 -22 19 -32 4z"/>
 <path d="M1496 944 c-4 -14 -5 -28 -3 -31 3 -2 8 8 11 23 4 14 5 28 3 31 -3 2 -8 -8 -11 -23z"/>
 <path d="M471 918 c-1 -27 3 -48 8 -48 16 0 18 24 5 60 l-13 35 0 -47z"/>
 <path d="M1514 924 c-7 -18 -8 -37 -4 -45 14 -21 22 -5 18 37 l-3 39 -11 -31z"/>
 </g>
<g id="layer123" fill="#d4ced5" stroke="none">
 <path d="M834 1973 c-3 -15 -19 -71 -34 -123 -16 -52 -32 -115 -35 -140 -4 -25 -11 -66 -16 -91 -9 -40 -8 -53 9 -84 l19 -38 5 40 c9 64 30 96 79 123 25 14 62 35 84 48 l38 23 -37 37 c-41 43 -44 55 -15 75 19 14 20 17 6 83 l-14 69 -41 3 c-38 3 -42 1 -48 -25z"/>
 <path d="M1050 1934 c-11 -66 -11 -67 16 -95 l27 -28 -37 -37 c-43 -43 -41 -48 47 -92 84 -42 108 -69 115 -127 l5 -47 19 31 c17 27 19 37 10 79 -6 26 -13 67 -17 92 -3 25 -19 88 -35 140 -15 52 -31 107 -34 123 -6 25 -10 27 -55 27 l-49 0 -12 -66z"/>
 <path d="M940 1311 c-25 -8 -25 -9 12 -25 48 -21 117 -21 125 -1 3 9 4 17 2 19 -10 9 -117 14 -139 7z"/>
 <path d="M675 1017 c-40 -34 -44 -91 -12 -161 33 -71 74 -99 136 -93 92 10 150 121 106 203 -37 69 -174 100 -230 51z m145 -112 c25 -30 -9 -63 -54 -51 -28 7 -41 33 -25 52 15 18 63 18 79 -1z"/>
 <path d="M1129 1001 c-23 -23 -29 -38 -29 -71 0 -89 52 -153 124 -153 101 0 167 105 121 193 -24 46 -52 60 -123 60 -57 0 -67 -3 -93 -29z m112 -91 c28 -15 24 -48 -6 -56 -36 -9 -55 2 -55 30 0 33 26 44 61 26z"/>
 </g>
<g id="layer124" fill="#dee1e6" stroke="none">
 <path d="M834 1976 c-6 -24 11 -66 48 -118 22 -32 26 -33 52 -13 17 13 17 19 6 67 -21 92 -18 88 -60 88 -33 0 -41 -4 -46 -24z"/>
 <path d="M1050 1933 c-11 -65 -11 -67 14 -92 14 -14 27 -23 30 -20 2 2 18 26 35 53 17 28 31 46 31 40 0 -16 -51 -87 -97 -135 l-44 -46 75 -37 c89 -44 126 -83 126 -132 0 -19 4 -34 9 -34 11 0 33 59 26 70 -3 4 -9 38 -14 75 -6 37 -23 113 -40 169 -16 55 -32 113 -35 129 -6 25 -10 27 -55 27 l-49 0 -12 -67z"/>
 <path d="M792 1818 c-18 -62 -32 -124 -32 -138 0 -14 -5 -41 -10 -61 -8 -28 -7 -45 6 -75 l17 -39 11 57 c15 69 22 78 99 122 99 56 95 52 65 76 -15 11 -48 54 -74 95 -26 41 -48 75 -49 75 -1 0 -16 -51 -33 -112z"/>
 <path d="M950 1310 l-35 -5 37 -17 c40 -20 113 -24 123 -7 4 6 4 13 1 16 -10 10 -89 19 -126 13z"/>
 <path d="M673 1016 c-24 -21 -28 -31 -28 -78 1 -104 79 -189 157 -174 103 19 154 142 91 217 -53 63 -166 81 -220 35z m147 -111 c25 -30 -9 -63 -54 -51 -28 7 -41 33 -25 52 15 18 63 18 79 -1z"/>
 <path d="M1137 1010 c-52 -41 -48 -141 8 -197 28 -28 40 -33 83 -33 129 0 180 157 76 235 -30 23 -135 20 -167 -5z m104 -100 c28 -15 24 -48 -6 -56 -36 -9 -55 2 -55 30 0 33 26 44 61 26z"/>
 </g>
<g id="layer125" fill="#f8f8f7" stroke="none">
 <path d="M837 1978 c-6 -23 55 -148 72 -148 4 0 16 9 25 19 14 16 16 26 8 58 -6 21 -13 50 -16 66 -6 24 -11 27 -45 27 -32 0 -40 -4 -44 -22z"/>
 <path d="M1051 1934 c-12 -64 -11 -68 11 -91 l23 -24 18 23 c34 41 66 114 60 137 -4 18 -13 21 -53 21 l-48 0 -11 -66z"/>
 <path d="M827 1903 c-10 -17 -57 -181 -69 -244 -13 -59 -12 -70 3 -105 l18 -39 0 33 c2 67 23 96 105 141 42 23 76 45 76 50 0 4 -12 18 -26 32 -15 13 -44 50 -65 82 -20 32 -39 54 -42 50z"/>
 <path d="M1132 1856 c-17 -29 -48 -68 -67 -85 -19 -17 -35 -33 -35 -36 0 -3 26 -17 58 -31 83 -37 119 -68 133 -115 12 -38 13 -39 24 -19 9 16 8 37 -2 86 -12 58 -71 254 -76 254 -1 0 -17 -24 -35 -54z"/>
 <path d="M950 1290 c38 -21 115 -26 126 -9 12 19 -19 29 -91 28 l-70 0 35 -19z"/>
 <path d="M690 1027 c-13 -7 -31 -29 -39 -50 -13 -34 -12 -44 2 -91 43 -134 172 -164 245 -56 49 72 9 176 -77 200 -49 13 -101 12 -131 -3z m113 -108 c30 -16 37 -30 26 -51 -12 -23 -62 -24 -83 -2 -20 19 -20 23 1 46 19 21 27 22 56 7z"/>
 <path d="M1153 1020 c-27 -11 -53 -59 -53 -98 0 -42 25 -97 56 -121 33 -26 109 -28 142 -5 26 18 62 84 62 114 0 30 -25 75 -56 99 -29 22 -108 28 -151 11z m88 -100 c27 -15 24 -54 -6 -70 -22 -12 -27 -11 -45 5 -25 22 -26 51 -2 64 22 13 29 13 53 1z"/>
 </g>

</svg>