<!DOCTYPE svg PUBLIC "-//W3C//DTD SVG 20010904//EN" "http://www.w3.org/TR/2001/REC-SVG-20010904/DTD/svg10.dtd">
<svg version="1.0" xmlns="http://www.w3.org/2000/svg" width="200px" height="200px" viewBox="0 0 2000 2000" preserveAspectRatio="xMidYMid meet">
<g id="layer101" fill="#f8f8f7" stroke="none">
 <path d="M130 1990 c0 -32 26 -122 47 -160 30 -56 76 -82 193 -109 135 -31 322 -98 346 -125 31 -32 62 -98 56 -116 -2 -8 -35 -44 -73 -80 -59 -57 -70 -73 -84 -125 -9 -33 -18 -66 -20 -72 -3 -7 -13 -13 -22 -13 -34 0 -60 -29 -72 -77 -7 -26 -27 -73 -46 -103 -56 -92 -59 -168 -8 -189 27 -11 28 -13 25 -82 -6 -125 40 -291 101 -359 42 -47 186 -148 244 -171 87 -33 239 -38 331 -10 129 39 281 161 326 261 34 75 58 202 55 289 -2 57 0 65 19 72 51 19 51 86 -1 178 -17 30 -40 82 -51 115 -18 53 -25 62 -55 72 -31 10 -36 17 -51 72 -21 76 -36 99 -101 154 -67 57 -76 79 -47 127 12 20 32 46 43 58 23 26 213 94 345 124 117 27 163 53 193 109 21 38 47 128 47 160 0 6 -327 10 -870 10 -543 0 -870 -4 -870 -10z"/>
 </g>
<g id="layer102" fill="#dee1e6" stroke="none">
 <path d="M130 1990 c0 -32 26 -122 47 -160 30 -56 76 -82 193 -109 135 -31 322 -98 346 -125 31 -32 62 -98 56 -116 -2 -8 -35 -44 -73 -80 -59 -57 -70 -73 -84 -125 -9 -33 -18 -66 -20 -72 -3 -7 -13 -13 -22 -13 -34 0 -60 -29 -72 -77 -7 -26 -27 -73 -46 -103 -56 -92 -59 -168 -8 -189 27 -11 28 -13 25 -82 -6 -125 40 -291 101 -359 42 -47 186 -148 244 -171 87 -33 239 -38 331 -10 129 39 281 161 326 261 34 75 58 202 55 289 -2 57 0 65 19 72 51 19 51 86 -1 178 -17 30 -40 82 -51 115 -18 53 -25 62 -55 72 -31 10 -36 17 -51 72 -21 76 -36 99 -101 154 -67 57 -76 79 -47 127 12 20 32 46 43 58 23 26 213 94 345 124 117 27 163 53 193 109 21 38 47 128 47 160 0 6 -138 10 -356 10 l-356 0 5 -21 c6 -22 -18 -79 -55 -132 l-20 -28 -25 23 c-19 18 -23 29 -19 55 3 18 9 49 12 68 l6 35 -71 0 -71 0 6 -27 c3 -16 10 -45 16 -66 8 -32 6 -42 -8 -58 -9 -10 -21 -19 -25 -19 -17 0 -78 125 -72 148 l5 22 -356 0 c-218 0 -356 -4 -356 -10z m804 -219 c14 -14 26 -28 26 -32 0 -5 -34 -27 -76 -50 -82 -45 -103 -74 -105 -141 l0 -33 -18 39 c-15 35 -16 46 -3 105 12 63 59 227 69 244 3 4 22 -18 42 -50 21 -32 50 -69 65 -82z m265 44 c45 -139 60 -219 46 -245 -11 -20 -12 -19 -24 19 -14 47 -50 78 -133 115 -32 14 -58 28 -58 31 0 3 16 19 35 36 19 17 50 56 67 85 18 30 34 54 35 54 1 0 16 -43 32 -95z m-130 -514 c7 -5 10 -14 7 -20 -11 -17 -88 -12 -126 9 l-35 19 70 0 c39 1 76 -3 84 -8z m-248 -271 c86 -24 126 -128 77 -200 -73 -108 -202 -78 -245 56 -14 47 -15 57 -2 91 23 59 82 77 170 53z m483 -21 c31 -24 56 -69 56 -99 0 -30 -36 -96 -62 -114 -33 -23 -109 -21 -142 5 -51 40 -70 123 -40 180 18 37 43 48 110 48 38 1 58 -5 78 -20z"/>
 <path d="M747 912 c-21 -23 -21 -27 -1 -46 21 -22 71 -21 83 2 11 21 4 35 -26 51 -29 15 -37 14 -56 -7z"/>
 <path d="M1188 919 c-24 -13 -23 -42 2 -64 18 -16 23 -17 45 -5 30 16 33 55 6 70 -24 12 -31 12 -53 -1z"/>
 </g>
<g id="layer103" fill="#d4ced5" stroke="none">
 <path d="M130 1990 c0 -32 26 -122 47 -160 30 -56 76 -82 193 -109 136 -31 323 -98 343 -123 23 -27 34 -14 42 52 9 64 22 124 48 208 l23 74 47 -76 c27 -42 60 -85 75 -96 30 -24 33 -20 -58 -72 -92 -52 -99 -64 -114 -177 -5 -39 -15 -53 -75 -110 -61 -58 -72 -73 -86 -126 -9 -33 -18 -66 -20 -72 -3 -7 -13 -13 -22 -13 -34 0 -60 -29 -72 -77 -7 -26 -27 -73 -46 -103 -56 -92 -59 -168 -8 -189 27 -11 28 -13 25 -82 -6 -125 40 -291 101 -359 42 -47 186 -148 244 -171 87 -33 239 -38 331 -10 129 39 281 161 326 261 34 75 58 202 55 289 -2 57 0 65 19 72 51 19 51 86 -1 178 -17 30 -40 82 -51 115 -18 54 -25 62 -56 72 -19 6 -35 15 -36 20 -31 121 -35 128 -106 196 -72 69 -76 75 -77 165 -1 46 -41 86 -127 129 l-75 37 44 46 c46 48 97 119 97 135 0 6 -14 -12 -31 -40 -17 -27 -33 -51 -35 -53 -2 -3 -16 6 -30 20 -20 19 -24 30 -20 56 3 18 9 49 12 68 l6 35 -72 0 c-63 0 -71 -2 -67 -17 28 -99 29 -124 11 -138 -27 -20 -35 -15 -72 46 -24 39 -32 62 -28 82 l5 27 -354 0 c-218 0 -355 -4 -355 -10z m946 -693 c3 -3 3 -10 -1 -16 -10 -17 -83 -13 -123 7 l-37 17 35 5 c37 6 116 -3 126 -13z m-243 -271 c18 -7 45 -28 60 -45 63 -75 12 -198 -91 -217 -78 -15 -156 70 -157 174 0 47 4 57 28 78 33 28 106 33 160 10z m471 -11 c73 -55 73 -156 0 -214 -19 -15 -41 -21 -76 -21 -43 0 -55 5 -83 33 -56 56 -60 156 -8 197 32 25 137 28 167 5z"/>
 <path d="M741 906 c-16 -19 -3 -45 25 -52 45 -12 79 21 54 51 -16 19 -64 19 -79 1z"/>
 <path d="M1193 913 c-18 -7 -16 -52 2 -59 27 -11 65 5 65 26 0 28 -36 46 -67 33z"/>
 <path d="M1167 1968 c3 -18 19 -76 35 -128 28 -92 51 -211 50 -258 0 -21 1 -21 27 8 20 23 55 40 146 71 66 22 158 49 205 60 117 27 163 53 193 109 21 38 47 128 47 160 0 6 -137 10 -355 10 l-354 0 6 -32z"/>
 </g>
<g id="layer104" fill="#ecc6ba" stroke="none">
 <path d="M130 1990 c0 -32 26 -122 47 -160 30 -56 76 -82 193 -109 129 -30 323 -98 342 -121 9 -11 18 -20 21 -20 9 0 17 32 27 103 6 38 23 113 39 166 16 53 32 108 35 124 l6 27 -355 0 c-218 0 -355 -4 -355 -10z"/>
 <path d="M925 1983 c2 -10 9 -42 16 -71 11 -50 10 -54 -10 -68 -29 -21 -27 -32 15 -76 l37 -37 -38 -23 c-22 -13 -59 -34 -84 -48 -52 -28 -68 -56 -81 -136 -9 -53 -14 -62 -79 -123 -61 -58 -72 -73 -86 -126 -9 -33 -18 -66 -20 -72 -3 -7 -13 -13 -22 -13 -34 0 -60 -29 -72 -77 -7 -26 -27 -73 -46 -103 -56 -92 -59 -168 -8 -189 27 -11 28 -13 25 -82 -6 -125 40 -291 101 -359 42 -47 186 -148 244 -171 87 -33 239 -38 331 -10 129 39 281 161 326 261 34 75 58 202 55 289 -2 57 0 65 19 72 51 19 51 86 -1 178 -17 30 -40 82 -51 115 -18 54 -25 62 -56 72 -19 6 -35 15 -36 20 -31 121 -35 128 -106 195 -69 66 -70 67 -78 134 -10 80 -27 101 -117 147 -88 44 -90 49 -47 92 l37 37 -27 28 c-27 28 -27 30 -17 87 6 32 11 61 11 66 0 4 -31 8 -69 8 -61 0 -69 -2 -66 -17z m154 -679 c2 -2 1 -10 -2 -19 -8 -20 -77 -20 -125 1 -37 16 -37 17 -12 25 22 7 129 2 139 -7z m-234 -284 c56 -27 80 -71 73 -135 -11 -98 -117 -155 -196 -105 -46 29 -86 117 -79 173 8 60 43 87 109 87 31 0 68 -8 93 -20z m463 -6 c52 -36 67 -115 32 -171 -27 -45 -64 -66 -116 -66 -72 0 -124 64 -124 153 0 33 6 48 29 71 26 26 36 29 93 29 41 0 71 -5 86 -16z"/>
 <path d="M741 906 c-16 -19 -3 -45 25 -52 45 -12 79 21 54 51 -16 19 -64 19 -79 1z"/>
 <path d="M1193 913 c-18 -7 -16 -52 2 -59 27 -11 65 5 65 26 0 28 -36 46 -67 33z"/>
 <path d="M1166 1973 c3 -16 19 -71 35 -124 16 -53 33 -128 39 -166 10 -71 18 -103 27 -103 3 0 12 9 21 20 19 23 213 91 342 121 117 27 163 53 193 109 21 38 47 128 47 160 0 6 -137 10 -355 10 l-355 0 6 -27z"/>
 </g>
<g id="layer105" fill="#e6b8ab" stroke="none">
 <path d="M130 1990 c0 -32 26 -122 47 -160 30 -56 76 -82 193 -109 129 -30 323 -98 342 -121 9 -11 18 -20 21 -20 9 0 17 32 27 103 6 38 23 113 39 166 16 53 32 108 35 124 l6 27 -355 0 c-218 0 -355 -4 -355 -10z"/>
 <path d="M925 1983 c2 -10 9 -42 16 -71 11 -50 10 -54 -10 -68 -11 -8 -21 -21 -21 -28 0 -15 74 -86 90 -86 5 0 28 18 51 40 l43 40 -28 29 c-27 28 -27 30 -17 87 6 32 11 61 11 66 0 4 -31 8 -69 8 -61 0 -69 -2 -66 -17z"/>
 <path d="M1166 1973 c3 -16 19 -71 35 -124 16 -53 33 -128 39 -166 10 -71 18 -103 27 -103 3 0 12 9 21 20 19 23 213 91 342 121 117 27 163 53 193 109 21 38 47 128 47 160 0 6 -137 10 -355 10 l-355 0 6 -27z"/>
 <path d="M886 1614 c-22 -8 -47 -20 -55 -28 -9 -7 -23 -16 -32 -19 -11 -3 -18 -22 -21 -52 -5 -42 -13 -53 -76 -113 -62 -59 -73 -74 -87 -127 -9 -33 -18 -66 -20 -72 -3 -7 -13 -13 -22 -13 -34 0 -60 -29 -72 -77 -7 -26 -27 -73 -46 -103 -56 -92 -59 -168 -8 -189 27 -11 28 -13 25 -82 -6 -125 40 -291 101 -359 42 -47 186 -148 244 -171 87 -33 239 -38 331 -10 129 39 281 161 326 261 34 75 58 202 55 289 -2 57 0 65 19 72 51 19 51 86 -1 178 -17 30 -40 82 -51 115 -18 54 -25 62 -56 72 -19 6 -35 15 -36 20 -31 121 -35 128 -106 196 -69 65 -71 69 -76 122 -3 42 -8 53 -19 49 -7 -3 -22 2 -31 11 -49 44 -204 60 -286 30z m212 -106 c40 -12 197 -137 230 -182 23 -34 91 -279 96 -351 2 -22 11 -79 22 -126 18 -86 18 -87 -5 -215 -34 -193 -54 -250 -111 -305 -26 -26 -83 -64 -126 -85 l-78 -39 -126 0 -126 0 -78 39 c-43 21 -100 59 -126 85 -57 55 -77 112 -111 305 -23 128 -23 129 -5 215 11 47 20 104 22 126 5 72 73 317 96 351 35 49 193 172 236 183 71 20 122 20 190 -1z m-519 -370 c-5 -18 -9 -34 -9 -34 0 -1 -12 -9 -26 -19 -25 -16 -25 -16 -15 4 14 25 14 34 1 26 -15 -9 -12 8 6 33 8 12 24 22 34 22 16 0 17 -4 9 -32z m867 24 c12 -8 34 -46 34 -59 0 -4 -5 -1 -10 7 -9 13 -10 13 -10 0 0 -9 6 -22 13 -29 6 -8 0 -6 -15 4 -16 9 -28 18 -28 19 0 0 -4 16 -9 34 -10 32 -1 41 25 24z m35 -107 c3 2 3 -12 0 -33 -5 -36 -6 -36 -9 -7 -2 17 -8 35 -13 40 -7 7 -8 0 -4 -20 5 -27 4 -28 -5 -7 -12 29 -4 48 14 33 7 -6 15 -9 17 -6z m-926 -12 c-3 -8 -5 -19 -5 -24 0 -5 -5 -9 -11 -9 -6 0 -8 9 -4 21 5 16 4 19 -5 14 -8 -5 -11 -4 -7 2 10 15 39 12 32 -4z m949 -107 c-3 -15 -8 -25 -11 -23 -2 3 -1 17 3 31 3 15 8 25 11 23 2 -3 1 -17 -3 -31z m-1012 -53 c-10 -30 -22 -9 -21 35 l0 47 13 -35 c7 -19 10 -41 8 -47z m1033 -11 c-14 -14 -22 23 -11 52 l11 31 3 -39 c2 -21 1 -41 -3 -44z"/>
 <path d="M870 1386 c-6 -6 -10 -22 -10 -36 0 -77 167 -132 241 -80 30 22 46 72 35 108 -6 18 -15 20 -131 19 -69 -1 -130 -6 -135 -11z m209 -82 c2 -2 1 -10 -2 -19 -8 -20 -77 -20 -125 1 -37 16 -37 17 -12 25 22 7 129 2 139 -7z"/>
 <path d="M968 1167 c-34 -27 -34 -28 -5 -72 28 -44 34 -44 29 0 -4 33 -3 35 27 35 37 0 39 9 8 38 -28 27 -26 27 -59 -1z"/>
 <path d="M674 1059 c-57 -28 -72 -136 -30 -226 l24 -52 -29 -6 c-43 -10 -35 -25 13 -25 23 0 68 -5 99 -12 53 -11 62 -10 106 11 57 26 83 76 83 157 0 61 -38 121 -93 147 -39 19 -139 22 -173 6z m171 -39 c56 -27 80 -71 73 -135 -11 -98 -117 -155 -196 -105 -46 29 -86 117 -79 173 8 60 43 87 109 87 31 0 68 -8 93 -20z"/>
 <path d="M741 906 c-16 -19 -3 -45 25 -52 45 -12 79 21 54 51 -16 19 -64 19 -79 1z"/>
 <path d="M1133 1040 c-38 -23 -53 -48 -53 -89 0 -16 -4 -33 -10 -36 -17 -10 -11 -61 9 -79 11 -10 16 -25 14 -40 -4 -20 1 -25 41 -35 54 -13 256 -15 256 -2 0 5 -14 12 -30 16 l-30 7 25 30 c21 25 25 40 25 93 0 54 -4 68 -26 95 -15 17 -39 37 -55 45 -41 22 -127 19 -166 -5z m175 -26 c52 -36 67 -115 32 -171 -27 -45 -64 -66 -116 -66 -72 0 -124 64 -124 153 0 33 6 48 29 71 26 26 36 29 93 29 41 0 71 -5 86 -16z"/>
 <path d="M1193 913 c-18 -7 -16 -52 2 -59 27 -11 65 5 65 26 0 28 -36 46 -67 33z"/>
 </g>
<g id="layer106" fill="#c2c3bf" stroke="none">
 <path d="M130 1990 c0 -32 26 -122 47 -160 30 -56 76 -82 193 -109 129 -30 323 -98 342 -121 9 -11 18 -20 21 -20 9 0 17 32 27 103 6 38 23 113 39 166 16 53 32 108 35 124 l6 27 -355 0 c-218 0 -355 -4 -355 -10z"/>
 <path d="M925 1983 c2 -10 9 -42 16 -71 11 -50 10 -54 -10 -68 -11 -8 -21 -21 -21 -28 0 -15 74 -86 90 -86 5 0 28 18 51 40 l43 40 -28 29 c-27 28 -27 30 -17 87 6 32 11 61 11 66 0 4 -31 8 -69 8 -61 0 -69 -2 -66 -17z"/>
 <path d="M1166 1973 c3 -16 19 -71 35 -124 16 -53 33 -128 39 -166 10 -71 18 -103 27 -103 3 0 12 9 21 20 19 23 213 91 342 121 117 27 163 53 193 109 21 38 47 128 47 160 0 6 -137 10 -355 10 l-355 0 6 -27z"/>
 <path d="M909 1616 c-25 -6 -59 -22 -76 -34 -17 -12 -35 -22 -41 -22 -5 0 -12 -21 -15 -46 -4 -41 -12 -52 -75 -112 -62 -59 -73 -74 -87 -127 -9 -33 -18 -66 -20 -72 -3 -7 -13 -13 -22 -13 -34 0 -60 -29 -72 -77 -7 -26 -27 -73 -46 -103 -36 -60 -51 -115 -41 -156 5 -20 10 -24 19 -15 6 6 19 11 29 11 14 0 16 4 9 23 -6 14 -4 46 3 83 11 54 13 56 19 29 4 -16 10 -41 13 -54 5 -16 4 -22 -4 -17 -6 4 -11 -1 -11 -11 0 -10 -2 -27 -5 -38 -2 -11 -5 -23 -5 -27 -1 -3 -10 -4 -21 -1 -25 7 -27 -13 -2 -21 14 -5 17 -16 14 -76 -6 -127 41 -293 101 -360 31 -34 103 -90 116 -90 6 0 11 -4 11 -10 0 -30 188 -104 250 -98 41 4 27 11 -55 27 -122 23 -244 108 -283 199 -21 48 -72 304 -72 358 0 16 9 67 20 113 14 58 17 87 10 91 -12 7 60 301 85 351 19 36 148 144 216 182 43 23 63 27 129 27 66 0 86 -4 129 -27 68 -38 197 -146 216 -182 25 -50 97 -344 85 -351 -7 -4 -4 -33 10 -91 11 -46 20 -97 20 -113 0 -58 -51 -308 -74 -359 -41 -93 -157 -175 -281 -198 -82 -16 -96 -23 -55 -27 62 -6 250 68 250 98 0 6 6 10 13 10 6 0 39 25 73 54 44 40 68 71 88 116 34 75 58 202 55 289 -2 57 0 65 19 72 51 19 51 86 -1 178 -17 30 -40 82 -51 115 -18 54 -25 62 -56 72 -19 6 -35 15 -36 20 -31 121 -35 128 -106 196 -69 66 -71 69 -76 124 -3 31 -8 51 -12 44 -5 -9 -18 -5 -46 14 -68 44 -165 56 -255 32z m-323 -463 c-3 -10 -15 -55 -27 -100 -24 -90 -39 -106 -39 -42 0 29 -3 38 -12 33 -7 -4 -2 9 10 30 12 20 18 34 12 31 -15 -10 -12 18 6 43 19 27 58 31 50 5z m872 5 c16 -21 26 -62 13 -53 -7 3 -3 -8 9 -27 22 -36 28 -62 7 -34 -11 15 -12 12 -9 -22 2 -25 -1 -43 -9 -47 -9 -6 -11 -3 -6 8 3 9 2 17 -2 19 -4 2 -11 16 -15 31 -5 22 -4 27 6 21 10 -6 9 -3 -1 9 -7 9 -10 17 -7 17 4 0 0 7 -8 16 -9 8 -16 21 -16 29 0 7 -3 20 -6 29 -8 20 28 22 44 4z m56 -195 c-4 -22 -3 -25 6 -13 8 12 10 2 8 -43 -2 -45 0 -57 12 -57 13 0 13 -1 0 -10 -16 -10 -21 -8 -24 12 -1 7 -5 19 -9 26 -5 7 -5 22 -2 35 5 17 4 19 -4 7 -9 -13 -11 -13 -11 2 0 20 17 68 25 68 3 0 3 -12 -1 -27z"/>
 <path d="M872 1384 c-10 -7 -12 -20 -8 -41 25 -112 251 -128 271 -19 14 72 9 75 -127 73 -67 -1 -127 -7 -136 -13z m207 -80 c2 -2 1 -10 -2 -19 -8 -20 -77 -20 -125 1 -37 16 -37 17 -12 25 22 7 129 2 139 -7z"/>
 <path d="M977 1172 c-10 -10 -14 -22 -10 -26 4 -4 0 -4 -10 0 -25 9 -21 -16 8 -51 l24 -30 1 38 c0 35 2 37 32 37 l31 0 -23 25 c-28 30 -32 30 -53 7z"/>
 <path d="M659 1042 c-33 -29 -34 -33 -34 -104 0 -58 5 -81 23 -112 13 -21 22 -39 20 -40 -2 -1 -16 -8 -33 -16 l-30 -14 35 -3 c19 -2 66 -8 103 -15 64 -11 71 -10 116 13 41 20 51 31 65 69 32 89 13 168 -51 217 -27 21 -48 27 -107 31 -70 4 -74 3 -107 -26z m186 -22 c56 -27 80 -71 73 -135 -11 -98 -117 -155 -196 -105 -46 29 -86 117 -79 173 8 60 43 87 109 87 31 0 68 -8 93 -20z"/>
 <path d="M741 906 c-16 -19 -3 -45 25 -52 45 -12 79 21 54 51 -16 19 -64 19 -79 1z"/>
 <path d="M1133 1040 c-47 -28 -55 -51 -49 -138 3 -42 5 -89 5 -104 1 -24 6 -28 54 -38 30 -6 98 -9 153 -8 95 3 98 4 67 18 l-32 14 25 29 c35 41 35 136 0 182 -49 64 -157 86 -223 45z m175 -26 c52 -36 67 -115 32 -171 -27 -45 -64 -66 -116 -66 -72 0 -124 64 -124 153 0 33 6 48 29 71 26 26 36 29 93 29 41 0 71 -5 86 -16z"/>
 <path d="M1193 913 c-18 -7 -16 -52 2 -59 27 -11 65 5 65 26 0 28 -36 46 -67 33z"/>
 </g>
<g id="layer107" fill="#d3b4aa" stroke="none">
 <path d="M130 1990 c0 -32 26 -122 47 -160 30 -56 76 -82 193 -109 136 -31 323 -98 343 -123 24 -28 33 -15 42 61 7 62 27 148 55 231 9 30 20 67 24 83 l6 27 -355 0 c-218 0 -355 -4 -355 -10z"/>
 <path d="M931 1958 c4 -24 12 -55 18 -70 9 -24 7 -29 -16 -46 l-26 -19 21 -30 c12 -17 33 -38 47 -47 23 -15 27 -15 50 0 14 9 35 29 46 45 l20 28 -27 17 c-24 16 -26 21 -19 68 3 28 9 61 12 74 5 21 3 22 -65 22 l-69 0 8 -42z"/>
 <path d="M1166 1973 c4 -16 15 -53 25 -83 26 -78 46 -166 53 -230 9 -76 19 -90 43 -62 20 25 207 92 343 123 117 27 163 53 193 109 21 38 47 128 47 160 0 6 -137 10 -355 10 l-355 0 6 -27z"/>
 <path d="M915 1619 c-21 -5 -60 -23 -86 -39 -40 -26 -47 -36 -52 -71 -5 -35 -16 -51 -76 -108 -61 -58 -72 -73 -86 -126 -9 -33 -18 -66 -20 -72 -3 -7 -13 -13 -22 -13 -34 0 -60 -29 -72 -77 -7 -26 -27 -73 -46 -103 -36 -60 -51 -115 -41 -156 5 -20 10 -24 19 -15 6 6 19 11 29 11 14 0 16 4 9 23 -6 14 -4 46 3 83 11 54 13 56 19 29 4 -16 10 -41 13 -54 5 -16 4 -22 -4 -17 -6 4 -11 -1 -11 -11 0 -10 -2 -27 -5 -38 -2 -11 -5 -23 -5 -27 -1 -3 -10 -4 -21 -1 -25 7 -27 -13 -2 -21 14 -5 17 -16 14 -76 -6 -127 41 -293 101 -360 31 -34 103 -90 116 -90 6 0 11 -4 11 -10 0 -30 188 -104 250 -98 41 4 27 11 -55 27 -122 23 -244 108 -283 199 -21 48 -72 304 -72 358 0 16 9 67 20 113 14 58 17 87 10 91 -12 7 60 301 85 351 19 36 148 144 216 182 43 23 63 27 129 27 66 0 86 -4 129 -27 68 -38 197 -146 216 -182 25 -50 97 -344 85 -351 -7 -4 -4 -33 10 -91 11 -46 20 -97 20 -113 0 -58 -51 -308 -74 -359 -41 -93 -157 -175 -281 -198 -82 -16 -96 -23 -55 -27 62 -6 250 68 250 98 0 6 6 10 13 10 6 0 39 25 73 54 44 40 68 71 88 116 34 75 58 202 55 289 -2 57 0 65 19 72 51 19 51 86 -1 178 -17 30 -40 82 -51 115 -18 54 -25 62 -56 72 -19 6 -35 15 -36 20 -31 121 -35 128 -106 196 -69 66 -71 69 -76 124 -3 31 -8 51 -12 44 -5 -9 -18 -5 -46 14 -65 42 -160 56 -249 35z m-329 -466 c-3 -10 -15 -55 -27 -100 -24 -90 -39 -106 -39 -42 0 29 -3 38 -12 33 -7 -4 -2 9 10 30 12 20 18 34 12 31 -15 -10 -12 18 6 43 19 27 58 31 50 5z m872 5 c16 -21 26 -62 13 -53 -7 3 -3 -8 9 -27 22 -36 28 -62 7 -34 -11 15 -12 12 -9 -22 2 -25 -1 -43 -9 -47 -9 -6 -11 -3 -6 8 3 9 2 17 -2 19 -4 2 -11 16 -15 31 -5 22 -4 27 6 21 10 -6 9 -3 -1 9 -7 9 -10 17 -7 17 4 0 0 7 -8 16 -9 8 -16 21 -16 29 0 7 -3 20 -6 29 -8 20 28 22 44 4z m56 -195 c-4 -22 -3 -25 6 -13 8 12 10 2 8 -43 -2 -45 0 -57 12 -57 13 0 13 -1 0 -10 -16 -10 -21 -8 -24 12 -1 7 -5 19 -9 26 -5 7 -5 22 -2 35 5 17 4 19 -4 7 -9 -13 -11 -13 -11 2 0 20 17 68 25 68 3 0 3 -12 -1 -27z"/>
 <path d="M872 1384 c-10 -7 -12 -20 -8 -41 25 -112 251 -128 271 -19 14 72 9 75 -127 73 -67 -1 -127 -7 -136 -13z m162 -70 c51 -7 62 -28 22 -43 -26 -10 -77 -2 -116 19 -23 13 -24 14 -5 21 26 10 42 10 99 3z"/>
 <path d="M977 1172 c-10 -10 -14 -22 -10 -26 4 -4 0 -4 -10 0 -25 9 -21 -16 8 -51 l24 -30 1 38 c0 35 2 37 32 37 l31 0 -23 25 c-28 30 -32 30 -53 7z"/>
 <path d="M659 1042 c-33 -29 -34 -33 -34 -104 0 -58 5 -81 23 -112 13 -21 22 -39 20 -40 -2 -1 -16 -8 -33 -16 l-30 -14 35 -3 c19 -2 66 -8 103 -15 64 -11 71 -10 116 13 41 20 51 31 65 69 32 89 13 168 -51 217 -27 21 -48 27 -107 31 -70 4 -74 3 -107 -26z m188 -21 c49 -23 73 -62 73 -122 0 -107 -115 -174 -200 -116 -42 28 -72 85 -78 148 -4 43 -1 51 26 79 26 26 38 30 84 30 30 0 71 -9 95 -19z"/>
 <path d="M741 906 c-16 -19 -3 -45 25 -52 45 -12 79 21 54 51 -16 19 -64 19 -79 1z"/>
 <path d="M1133 1040 c-47 -28 -55 -51 -49 -138 3 -42 5 -89 5 -104 1 -24 6 -28 54 -38 30 -6 98 -9 153 -8 95 3 98 4 67 18 l-32 14 25 29 c35 41 35 136 0 182 -49 64 -157 86 -223 45z m168 -21 c30 -15 59 -69 59 -107 0 -55 -28 -102 -74 -123 -50 -23 -69 -23 -112 -3 -60 29 -94 140 -61 204 23 45 128 62 188 29z"/>
 <path d="M1193 913 c-18 -7 -16 -52 2 -59 27 -11 65 5 65 26 0 28 -36 46 -67 33z"/>
 </g>
<g id="layer108" fill="#daa797" stroke="none">
 <path d="M130 1990 c0 -32 26 -122 47 -160 30 -56 76 -82 193 -109 136 -31 323 -98 343 -123 15 -18 20 -20 28 -7 5 7 9 24 9 37 0 36 29 165 54 244 13 40 26 85 30 101 l6 27 -355 0 c-218 0 -355 -4 -355 -10z"/>
 <path d="M931 1958 c4 -24 12 -55 18 -70 9 -25 7 -30 -14 -44 -14 -9 -25 -20 -25 -25 0 -5 18 -27 40 -49 39 -39 41 -40 69 -25 16 8 39 28 51 44 l21 30 -27 17 c-24 16 -26 21 -19 68 3 28 9 61 12 74 5 21 3 22 -65 22 l-69 0 8 -42z"/>
 <path d="M1166 1973 c4 -16 15 -53 25 -83 26 -78 46 -166 53 -230 9 -76 19 -90 43 -62 20 25 207 92 343 123 117 27 163 53 193 109 21 38 47 128 47 160 0 6 -137 10 -355 10 l-355 0 6 -27z"/>
 <path d="M909 1616 c-37 -10 -68 -26 -117 -62 -2 -1 -8 -22 -13 -46 -8 -34 -24 -56 -79 -108 -60 -57 -71 -72 -85 -125 -9 -33 -18 -66 -20 -72 -3 -7 -13 -13 -22 -13 -34 0 -60 -29 -72 -77 -7 -26 -27 -73 -46 -103 -36 -60 -51 -115 -41 -156 5 -20 10 -24 19 -15 6 6 19 11 29 11 14 0 16 4 9 23 -6 14 -4 46 3 83 11 54 13 56 19 29 4 -16 10 -41 13 -54 6 -19 4 -22 -6 -16 -10 6 -12 4 -7 -9 4 -10 4 -23 0 -29 -7 -12 -9 -17 -12 -36 0 -5 -10 -7 -21 -4 -25 7 -27 -13 -2 -21 14 -5 17 -16 14 -76 -6 -127 41 -293 101 -360 31 -34 103 -90 116 -90 6 0 11 -4 11 -10 0 -30 188 -104 250 -98 41 4 27 11 -55 27 -127 24 -255 116 -288 208 -20 57 -67 300 -67 350 0 19 9 71 21 115 14 57 17 83 9 88 -12 7 59 300 85 351 19 36 148 144 216 182 43 23 63 27 129 27 66 0 86 -4 129 -27 68 -38 197 -146 216 -182 26 -51 97 -344 85 -351 -8 -5 -5 -31 9 -88 12 -44 21 -96 21 -115 0 -50 -47 -293 -67 -350 -33 -92 -161 -184 -288 -208 -82 -16 -96 -23 -55 -27 62 -6 250 68 250 98 0 6 6 10 13 10 6 0 39 25 73 54 44 40 68 71 88 116 34 75 58 202 55 289 -2 57 0 65 19 72 51 19 51 86 -1 178 -17 30 -40 82 -51 115 -18 54 -25 62 -56 72 -19 6 -35 15 -36 20 -31 121 -35 128 -106 196 -66 63 -71 70 -76 117 -2 28 -8 48 -13 45 -5 -2 -25 6 -46 20 -67 44 -165 56 -254 32z m-323 -463 c-3 -10 -15 -55 -27 -100 -24 -90 -39 -106 -39 -42 0 29 -3 38 -12 33 -7 -4 -2 9 10 30 12 20 18 34 12 31 -15 -10 -12 18 6 43 19 27 58 31 50 5z m872 5 c16 -21 26 -62 13 -53 -7 3 -3 -8 9 -27 22 -36 28 -62 7 -34 -11 15 -12 12 -9 -22 2 -25 -1 -43 -9 -47 -9 -6 -11 -3 -6 8 3 9 2 17 -2 19 -4 2 -11 16 -15 31 -5 22 -4 27 6 21 10 -6 9 -3 -1 9 -7 9 -10 17 -7 17 4 0 0 7 -8 16 -9 8 -16 21 -16 29 0 7 -3 20 -6 29 -8 20 28 22 44 4z m56 -195 c-4 -22 -3 -25 6 -13 8 12 10 2 8 -43 -2 -45 0 -57 12 -57 13 0 13 -1 0 -10 -16 -10 -21 -8 -24 12 -1 7 -5 19 -9 26 -5 7 -5 22 -2 35 5 17 4 19 -4 7 -9 -13 -11 -13 -11 2 0 20 17 68 25 68 3 0 3 -12 -1 -27z"/>
 <path d="M876 1384 c-18 -17 -15 -56 6 -81 20 -25 95 -53 142 -53 39 0 53 5 76 29 33 33 48 77 33 100 -10 16 -52 19 -128 10 -16 -1 -49 1 -71 5 -33 6 -45 4 -58 -10z m158 -70 c51 -7 62 -28 22 -43 -26 -10 -77 -2 -116 19 -23 13 -24 14 -5 21 26 10 42 10 99 3z"/>
 <path d="M977 1172 c-10 -10 -14 -22 -10 -26 4 -4 0 -4 -10 0 -25 9 -21 -16 8 -51 l24 -30 1 38 c0 35 2 37 32 37 l31 0 -23 25 c-28 30 -32 30 -53 7z"/>
 <path d="M683 1060 c-13 -5 -32 -24 -44 -42 -25 -41 -21 -128 10 -190 21 -42 16 -57 -16 -58 -7 0 -13 -4 -13 -10 0 -5 20 -10 44 -10 25 0 67 -5 94 -11 45 -11 54 -10 96 12 118 58 112 244 -9 299 -46 21 -123 26 -162 10z m164 -39 c49 -23 73 -62 73 -122 0 -107 -115 -174 -200 -116 -42 28 -72 85 -78 148 -4 43 -1 51 26 79 26 26 38 30 84 30 30 0 71 -9 95 -19z"/>
 <path d="M741 906 c-16 -19 -3 -45 25 -52 45 -12 79 21 54 51 -16 19 -64 19 -79 1z"/>
 <path d="M1153 1049 c-46 -14 -73 -63 -73 -135 0 -38 6 -68 16 -82 8 -12 10 -22 5 -22 -19 0 -12 -29 11 -41 28 -15 268 -26 268 -11 0 5 -12 13 -26 16 l-25 7 25 30 c33 39 37 128 6 173 -42 64 -122 90 -207 65z m148 -30 c30 -15 59 -69 59 -107 0 -55 -28 -102 -74 -123 -50 -23 -69 -23 -112 -3 -60 29 -94 140 -61 204 23 45 128 62 188 29z"/>
 <path d="M1193 913 c-18 -7 -16 -52 2 -59 27 -11 65 5 65 26 0 28 -36 46 -67 33z"/>
 </g>
<g id="layer109" fill="#d69b8a" stroke="none">
 <path d="M130 1990 c0 -32 26 -122 47 -160 30 -56 76 -82 193 -109 136 -31 323 -98 343 -123 15 -18 20 -20 28 -7 5 7 9 24 9 37 0 36 29 165 54 244 13 40 26 85 30 101 l6 27 -355 0 c-218 0 -355 -4 -355 -10z"/>
 <path d="M931 1958 c4 -24 12 -55 18 -70 9 -25 7 -30 -14 -44 -14 -9 -25 -20 -25 -25 0 -5 18 -27 40 -49 39 -39 41 -40 69 -25 16 8 39 28 51 44 l21 30 -27 17 c-24 16 -26 21 -19 68 3 28 9 61 12 74 5 21 3 22 -65 22 l-69 0 8 -42z"/>
 <path d="M1166 1973 c4 -16 15 -53 25 -83 26 -78 46 -166 53 -230 9 -76 19 -90 43 -62 20 25 207 92 343 123 117 27 163 53 193 109 21 38 47 128 47 160 0 6 -137 10 -355 10 l-355 0 6 -27z"/>
 <path d="M812 1562 c-26 -20 -49 -89 -34 -104 6 -6 26 3 56 26 49 37 92 50 166 50 74 0 117 -13 166 -50 25 -20 50 -32 54 -27 5 4 5 33 1 63 -5 30 -9 49 -10 41 -1 -11 -6 -10 -26 3 -37 25 -340 23 -373 -2z"/>
 <path d="M697 1397 c-57 -54 -68 -70 -82 -122 -9 -33 -18 -66 -20 -72 -3 -7 -13 -13 -22 -13 -34 0 -60 -29 -72 -77 -7 -26 -27 -73 -46 -103 -36 -59 -51 -115 -41 -154 5 -22 8 -23 31 -13 26 13 32 31 15 42 -7 4 -8 11 -1 18 5 7 12 35 16 62 4 28 11 55 15 60 5 6 13 30 20 55 15 59 36 90 60 90 11 0 20 -2 20 -5 0 -22 -54 -195 -61 -195 -5 0 -9 19 -9 43 l-1 42 -16 -29 c-12 -24 -13 -36 -4 -66 9 -30 8 -47 -7 -90 -11 -32 -21 -49 -26 -42 -9 14 -26 16 -26 3 0 -5 8 -12 18 -15 14 -5 17 -16 14 -76 -6 -127 41 -293 101 -360 31 -34 103 -90 116 -90 6 0 11 -4 11 -10 0 -15 85 -61 151 -81 68 -21 124 -25 114 -8 -4 6 -19 9 -33 8 -15 -1 -34 1 -42 4 -8 3 -32 11 -52 17 -47 14 -144 78 -185 121 -41 44 -58 93 -89 254 -29 157 -29 198 -4 294 15 54 17 77 9 82 -8 5 1 56 31 175 l43 169 69 67 c38 36 65 69 60 72 -5 3 -39 -22 -75 -57z"/>
 <path d="M1227 1454 c-4 -4 24 -37 62 -73 l68 -66 43 -169 c32 -127 40 -170 30 -176 -9 -6 -7 -25 9 -82 27 -95 26 -134 -3 -293 -31 -161 -48 -210 -89 -254 -41 -43 -138 -107 -185 -121 -20 -6 -44 -14 -52 -17 -8 -3 -27 -5 -42 -4 -14 1 -29 -2 -33 -8 -10 -17 46 -13 114 8 66 20 151 66 151 81 0 6 6 10 13 10 6 0 39 25 73 54 72 65 109 137 130 259 19 105 16 197 -9 270 -15 45 -17 63 -8 87 7 20 7 39 1 56 -15 39 -12 42 9 9 13 -22 18 -48 17 -102 -1 -69 0 -72 24 -76 32 -6 42 9 35 53 -9 57 -26 92 -42 86 -8 -4 -11 -1 -7 5 3 6 -3 32 -14 58 -11 25 -26 64 -34 86 -11 31 -21 42 -48 51 -30 10 -35 17 -51 74 -9 34 -25 74 -36 88 -27 36 -119 113 -126 106z m240 -310 c12 -19 17 -45 16 -92 -3 -99 -17 -95 -47 12 -14 53 -26 98 -26 101 0 17 42 1 57 -21z"/>
 <path d="M876 1384 c-18 -17 -15 -56 6 -81 20 -25 95 -53 142 -53 39 0 53 5 76 29 33 33 48 77 33 100 -10 16 -52 19 -128 10 -16 -1 -49 1 -71 5 -33 6 -45 4 -58 -10z m158 -70 c51 -7 62 -28 22 -43 -26 -10 -77 -2 -116 19 -23 13 -24 14 -5 21 26 10 42 10 99 3z"/>
 <path d="M982 1174 c-12 -8 -20 -20 -17 -25 4 -5 -1 -9 -9 -9 -22 0 -20 -10 10 -45 l26 -30 -5 35 c-3 20 2 47 9 63 17 31 16 32 -14 11z"/>
 <path d="M683 1060 c-13 -5 -32 -24 -44 -42 -31 -49 -19 -142 28 -229 2 -4 -9 -12 -24 -17 l-28 -10 30 -1 c17 -1 59 -8 96 -18 65 -16 65 -16 112 7 119 59 114 245 -8 300 -46 21 -123 26 -162 10z m164 -39 c49 -23 73 -62 73 -122 0 -107 -115 -174 -200 -116 -42 28 -72 85 -78 148 -4 43 -1 51 26 79 26 26 38 30 84 30 30 0 71 -9 95 -19z"/>
 <path d="M741 906 c-16 -19 -3 -45 25 -52 45 -12 79 21 54 51 -16 19 -64 19 -79 1z"/>
 <path d="M1153 1049 c-45 -13 -73 -63 -73 -130 0 -30 7 -66 14 -81 8 -16 11 -28 5 -28 -16 0 -10 -29 9 -39 28 -15 122 -21 202 -13 63 7 70 9 44 15 l-31 8 28 29 c25 25 29 36 29 87 0 121 -100 189 -227 152z m148 -30 c30 -15 59 -69 59 -107 0 -55 -28 -102 -74 -123 -50 -23 -69 -23 -112 -3 -60 29 -94 140 -61 204 23 45 128 62 188 29z"/>
 <path d="M1193 913 c-18 -7 -16 -52 2 -59 27 -11 65 5 65 26 0 28 -36 46 -67 33z"/>
 </g>
<g id="layer110" fill="#5bbbd5" stroke="none">
 <path d="M130 1990 c0 -32 26 -122 47 -160 30 -56 76 -82 193 -109 136 -31 323 -98 343 -123 15 -18 20 -20 28 -7 5 7 9 24 9 37 0 36 29 165 54 244 13 40 26 85 30 101 l6 27 -355 0 c-218 0 -355 -4 -355 -10z"/>
 <path d="M931 1958 c4 -24 12 -55 18 -70 9 -25 7 -30 -14 -44 -14 -9 -25 -20 -25 -25 0 -5 18 -27 40 -49 39 -39 41 -40 69 -25 16 8 39 28 51 44 l21 30 -27 17 c-24 16 -26 21 -19 68 3 28 9 61 12 74 5 21 3 22 -65 22 l-69 0 8 -42z"/>
 <path d="M1166 1973 c4 -16 15 -53 25 -83 26 -78 46 -166 53 -230 9 -76 19 -90 43 -62 20 25 207 92 343 123 117 27 163 53 193 109 21 38 47 128 47 160 0 6 -137 10 -355 10 l-355 0 6 -27z"/>
 <path d="M885 1535 c-22 -8 -50 -15 -62 -15 -15 0 -23 -6 -24 -17 0 -16 -1 -15 -8 2 -7 17 -9 16 -15 -10 -4 -17 -27 -48 -54 -72 -26 -23 -44 -45 -40 -49 8 -8 94 66 90 78 -1 5 5 8 14 8 8 0 32 13 52 29 20 16 60 36 87 44 33 10 42 15 25 16 -14 0 -43 -6 -65 -14z"/>
 <path d="M1075 1533 c28 -8 67 -28 87 -44 20 -16 44 -29 53 -29 9 0 14 -4 10 -9 -5 -10 13 -26 21 -19 8 8 -27 68 -37 63 -5 -4 -9 1 -9 9 0 10 -9 16 -22 16 -13 0 -41 7 -63 15 -22 8 -51 14 -65 14 -17 -1 -8 -6 25 -16z"/>
 <path d="M1308 1368 c29 -28 55 -49 58 -46 8 9 -78 98 -95 98 -9 0 5 -20 37 -52z"/>
 <path d="M876 1384 c-18 -17 -15 -56 6 -81 20 -25 95 -53 142 -53 39 0 53 5 76 29 33 33 48 77 33 100 -10 16 -52 19 -128 10 -16 -1 -49 1 -71 5 -33 6 -45 4 -58 -10z m158 -70 c51 -7 62 -28 22 -43 -26 -10 -77 -2 -116 19 -23 13 -24 14 -5 21 26 10 42 10 99 3z"/>
 <path d="M640 1340 c-6 -11 -7 -20 -2 -20 10 0 32 21 32 32 0 16 -19 8 -30 -12z"/>
 <path d="M608 1254 c-12 -51 -17 -58 -48 -68 -35 -11 -66 -54 -57 -79 3 -7 9 0 15 14 13 32 53 62 65 50 5 -5 3 -28 -3 -52 -41 -157 -54 -180 -67 -117 -6 30 -7 31 -15 9 -5 -15 -4 -33 5 -50 11 -22 10 -34 -9 -85 -12 -34 -24 -54 -28 -48 -9 14 -26 16 -26 3 0 -5 8 -12 18 -15 14 -5 17 -16 14 -76 -6 -127 41 -293 101 -360 33 -36 104 -90 118 -90 7 0 -6 19 -29 42 -50 52 -67 96 -98 262 -29 155 -30 198 -5 294 16 59 17 74 6 78 -10 4 -7 28 16 112 16 58 26 108 24 111 -3 2 0 10 7 18 6 7 8 16 5 20 -4 3 -3 11 2 17 13 17 22 66 12 66 -5 0 -15 -25 -23 -56z"/>
 <path d="M1366 1283 c4 -16 11 -33 15 -39 5 -6 6 -14 2 -17 -3 -4 -1 -13 5 -20 7 -8 10 -16 7 -18 -2 -3 9 -53 24 -112 24 -86 27 -107 15 -107 -15 0 -14 -12 12 -104 19 -67 18 -117 -7 -257 -28 -163 -50 -225 -101 -276 -61 -62 -25 -53 48 11 72 65 109 137 130 259 19 104 16 197 -8 267 -10 30 -16 65 -13 78 5 20 3 23 -13 18 -17 -6 -22 6 -46 94 -15 55 -24 105 -21 110 11 18 46 -10 62 -48 9 -20 18 -32 20 -25 2 6 -3 27 -11 47 -11 26 -23 37 -47 44 -30 7 -35 13 -47 65 -8 31 -18 57 -23 57 -5 0 -6 -12 -3 -27z"/>
 <path d="M970 1165 c-7 -8 -9 -15 -5 -15 4 0 2 -6 -4 -14 -10 -12 -8 -21 6 -42 15 -23 19 -25 21 -11 2 10 -1 23 -6 30 -7 8 -6 18 4 31 24 34 10 52 -16 21z"/>
 <path d="M480 1050 c-7 -22 -17 -40 -22 -40 -4 0 -8 -7 -8 -16 0 -8 5 -12 11 -8 7 4 7 -2 -1 -17 -18 -34 -24 -38 -16 -11 4 13 3 22 -3 22 -12 0 -31 -63 -31 -101 0 -22 4 -26 31 -27 24 -1 29 2 20 11 -6 6 -11 19 -11 29 0 10 -4 17 -9 16 -5 -2 -8 1 -7 7 0 5 6 9 12 7 13 -3 37 55 29 69 -3 4 4 23 15 41 21 35 26 58 12 58 -5 0 -15 -18 -22 -40z"/>
 <path d="M1490 1073 c0 -5 7 -21 16 -38 9 -16 18 -48 20 -70 7 -59 12 -69 28 -56 7 6 16 8 19 4 10 -10 8 30 -2 46 -5 7 -13 11 -19 7 -6 -4 -10 2 -9 13 1 23 -33 101 -45 101 -4 0 -8 -3 -8 -7z"/>
 <path d="M683 1060 c-13 -5 -32 -24 -44 -42 -31 -49 -19 -142 28 -229 2 -4 -9 -12 -24 -17 l-28 -10 30 -1 c17 -1 59 -8 96 -18 65 -16 65 -16 112 7 119 59 114 245 -8 300 -46 21 -123 26 -162 10z m164 -39 c49 -23 73 -62 73 -122 0 -107 -115 -174 -200 -116 -42 28 -72 85 -78 148 -4 43 -1 51 26 79 26 26 38 30 84 30 30 0 71 -9 95 -19z"/>
 <path d="M741 906 c-16 -19 -3 -45 25 -52 45 -12 79 21 54 51 -16 19 -64 19 -79 1z"/>
 <path d="M1153 1049 c-45 -13 -73 -63 -73 -130 0 -30 6 -66 14 -81 10 -19 11 -29 3 -37 -15 -15 0 -28 48 -39 40 -9 65 -9 180 -3 56 3 58 4 29 13 l-31 10 29 28 c24 25 28 36 28 87 0 121 -100 189 -227 152z m148 -30 c30 -15 59 -69 59 -107 0 -55 -28 -102 -74 -123 -50 -23 -69 -23 -112 -3 -60 29 -94 140 -61 204 23 45 128 62 188 29z"/>
 <path d="M1193 913 c-18 -7 -16 -52 2 -59 27 -11 65 5 65 26 0 28 -36 46 -67 33z"/>
 <path d="M1480 1011 c0 -17 5 -31 10 -31 6 0 10 11 10 24 0 14 -4 28 -10 31 -6 4 -10 -7 -10 -24z"/>
 <path d="M1540 886 c-12 -12 -13 -36 -2 -36 4 0 14 6 21 13 10 10 11 9 6 -5 -4 -10 -3 -18 3 -18 11 0 22 23 22 45 0 15 -35 16 -50 1z"/>
 <path d="M710 271 c0 -6 5 -11 11 -11 6 0 17 -6 25 -14 18 -18 123 -58 138 -53 6 3 2 8 -9 12 -16 6 -120 54 -157 73 -5 2 -8 -1 -8 -7z"/>
 <path d="M1214 245 c-33 -17 -71 -35 -85 -39 -13 -4 -19 -9 -13 -12 15 -6 120 33 138 52 8 8 19 14 25 14 6 0 11 5 11 10 0 14 -6 12 -76 -25z"/>
 <path d="M905 190 c-4 -6 9 -10 32 -9 30 0 34 2 18 9 -27 12 -43 12 -50 0z"/>
 <path d="M1045 190 c-16 -7 -12 -9 18 -9 23 -1 36 3 32 9 -7 12 -23 12 -50 0z"/>
 </g>
<g id="layer111" fill="#aa9f9b" stroke="none">
 <path d="M130 1990 c0 -32 26 -122 47 -160 30 -56 76 -82 193 -109 136 -31 323 -98 343 -123 15 -18 20 -20 28 -7 5 7 9 24 9 37 0 36 29 165 54 244 13 40 26 85 30 101 l6 27 -355 0 c-218 0 -355 -4 -355 -10z"/>
 <path d="M931 1958 c4 -24 12 -55 18 -70 9 -25 7 -30 -14 -44 -14 -9 -25 -20 -25 -25 0 -5 18 -27 40 -49 39 -39 41 -40 69 -25 16 8 39 28 51 44 l21 30 -27 17 c-24 16 -26 21 -19 68 3 28 9 61 12 74 5 21 3 22 -65 22 l-69 0 8 -42z"/>
 <path d="M1166 1973 c4 -16 15 -53 25 -83 26 -78 46 -166 53 -230 9 -76 19 -90 43 -62 20 25 207 92 343 123 117 27 163 53 193 109 21 38 47 128 47 160 0 6 -137 10 -355 10 l-355 0 6 -27z"/>
 <path d="M885 1535 c-22 -8 -50 -15 -62 -15 -15 0 -23 -6 -24 -17 0 -16 -1 -15 -8 2 -7 17 -9 16 -15 -10 -4 -17 -27 -48 -54 -72 -26 -23 -44 -45 -40 -49 8 -8 94 66 90 78 -1 5 5 8 14 8 8 0 32 13 52 29 20 16 60 36 87 44 33 10 42 15 25 16 -14 0 -43 -6 -65 -14z"/>
 <path d="M1075 1533 c28 -8 67 -28 87 -44 20 -16 44 -29 53 -29 9 0 14 -4 10 -9 -5 -10 13 -26 21 -19 8 8 -27 68 -37 63 -5 -4 -9 1 -9 9 0 10 -9 16 -22 16 -13 0 -41 7 -63 15 -22 8 -51 14 -65 14 -17 -1 -8 -6 25 -16z"/>
 <path d="M1308 1368 c29 -28 55 -49 58 -46 8 9 -78 98 -95 98 -9 0 5 -20 37 -52z"/>
 <path d="M876 1384 c-18 -17 -15 -56 6 -81 20 -25 95 -53 142 -53 39 0 53 5 76 29 33 33 48 77 33 100 -10 16 -52 19 -128 10 -16 -1 -49 1 -71 5 -33 6 -45 4 -58 -10z m158 -70 c51 -7 62 -28 22 -43 -26 -10 -77 -2 -116 19 -23 13 -24 14 -5 21 26 10 42 10 99 3z"/>
 <path d="M640 1340 c-6 -11 -7 -20 -2 -20 10 0 32 21 32 32 0 16 -19 8 -30 -12z"/>
 <path d="M608 1254 c-12 -51 -17 -58 -48 -68 -35 -11 -66 -54 -57 -79 3 -7 9 0 15 14 13 32 53 62 65 50 5 -5 3 -28 -3 -52 -41 -157 -54 -180 -67 -117 -6 30 -7 31 -15 9 -5 -15 -4 -33 5 -50 11 -22 10 -34 -9 -85 -12 -34 -24 -54 -28 -48 -9 14 -26 16 -26 3 0 -5 8 -12 18 -15 14 -5 17 -16 14 -76 -6 -127 41 -293 101 -360 33 -36 104 -90 118 -90 7 0 -6 19 -29 42 -50 52 -67 96 -98 262 -29 155 -30 198 -5 294 16 59 17 74 6 78 -10 4 -7 28 16 112 16 58 26 108 24 111 -3 2 0 10 7 18 6 7 8 16 5 20 -4 3 -3 11 2 17 13 17 22 66 12 66 -5 0 -15 -25 -23 -56z"/>
 <path d="M1366 1283 c4 -16 11 -33 15 -39 5 -6 6 -14 2 -17 -3 -4 -1 -13 5 -20 7 -8 10 -16 7 -18 -2 -3 9 -53 24 -112 24 -86 27 -107 15 -107 -15 0 -14 -12 12 -104 19 -67 18 -117 -7 -257 -28 -163 -50 -225 -101 -276 -61 -62 -25 -53 48 11 72 65 109 137 130 259 19 104 16 197 -8 267 -10 30 -16 65 -13 78 5 20 3 23 -13 18 -17 -6 -22 6 -46 94 -15 55 -24 105 -21 110 11 18 46 -10 62 -48 9 -20 18 -32 20 -25 2 6 -3 27 -11 47 -11 26 -23 37 -47 44 -30 7 -35 13 -47 65 -8 31 -18 57 -23 57 -5 0 -6 -12 -3 -27z"/>
 <path d="M970 1165 c-7 -8 -9 -15 -5 -15 4 0 2 -6 -4 -14 -10 -12 -8 -21 6 -42 15 -23 19 -25 21 -11 2 10 -1 23 -6 30 -7 8 -6 18 4 31 24 34 10 52 -16 21z"/>
 <path d="M480 1050 c-7 -22 -17 -40 -22 -40 -4 0 -8 -7 -8 -16 0 -8 5 -12 11 -8 7 4 7 -2 -1 -17 -18 -34 -24 -38 -16 -11 4 13 3 22 -3 22 -12 0 -31 -63 -31 -101 0 -22 4 -26 31 -27 24 -1 29 2 20 11 -6 6 -11 19 -11 29 0 10 -4 17 -9 16 -5 -2 -8 1 -7 7 0 5 6 9 12 7 13 -3 37 55 29 69 -3 4 4 23 15 41 21 35 26 58 12 58 -5 0 -15 -18 -22 -40z"/>
 <path d="M1490 1073 c0 -5 7 -21 16 -38 9 -16 18 -48 20 -70 7 -59 12 -69 28 -56 7 6 16 8 19 4 10 -10 8 30 -2 46 -5 7 -13 11 -19 7 -6 -4 -10 2 -9 13 1 23 -33 101 -45 101 -4 0 -8 -3 -8 -7z"/>
 <path d="M683 1060 c-13 -5 -32 -24 -44 -42 -31 -49 -19 -142 28 -229 2 -4 -9 -12 -24 -17 l-28 -10 30 -1 c17 -1 59 -8 96 -18 65 -16 65 -16 112 7 119 59 114 245 -8 300 -46 21 -123 26 -162 10z m164 -39 c49 -23 73 -62 73 -122 0 -107 -115 -174 -200 -116 -42 28 -72 85 -78 148 -4 43 -1 51 26 79 26 26 38 30 84 30 30 0 71 -9 95 -19z"/>
 <path d="M1153 1049 c-45 -13 -73 -63 -73 -130 0 -30 6 -66 14 -81 10 -19 11 -29 3 -37 -15 -15 0 -28 48 -39 40 -9 65 -9 180 -3 56 3 58 4 29 13 l-31 10 29 28 c24 25 28 36 28 87 0 121 -100 189 -227 152z m148 -30 c30 -15 59 -69 59 -107 0 -55 -28 -102 -74 -123 -50 -23 -69 -23 -112 -3 -60 29 -94 140 -61 204 23 45 128 62 188 29z"/>
 <path d="M1480 1011 c0 -17 5 -31 10 -31 6 0 10 11 10 24 0 14 -4 28 -10 31 -6 4 -10 -7 -10 -24z"/>
 <path d="M1540 886 c-12 -12 -13 -36 -2 -36 4 0 14 6 21 13 10 10 11 9 6 -5 -4 -10 -3 -18 3 -18 11 0 22 23 22 45 0 15 -35 16 -50 1z"/>
 <path d="M710 271 c0 -6 5 -11 11 -11 6 0 17 -6 25 -14 18 -18 123 -58 138 -53 6 3 2 8 -9 12 -16 6 -120 54 -157 73 -5 2 -8 -1 -8 -7z"/>
 <path d="M1214 245 c-33 -17 -71 -35 -85 -39 -13 -4 -19 -9 -13 -12 15 -6 120 33 138 52 8 8 19 14 25 14 6 0 11 5 11 10 0 14 -6 12 -76 -25z"/>
 <path d="M905 190 c-4 -6 9 -10 32 -9 30 0 34 2 18 9 -27 12 -43 12 -50 0z"/>
 <path d="M1045 190 c-16 -7 -12 -9 18 -9 23 -1 36 3 32 9 -7 12 -23 12 -50 0z"/>
 </g>
<g id="layer112" fill="#cc8a76" stroke="none">
 <path d="M130 1990 c0 -32 26 -122 47 -160 30 -56 76 -82 193 -109 134 -31 323 -98 343 -122 10 -12 20 -19 24 -15 3 3 12 44 19 90 6 46 26 128 42 182 17 55 32 109 35 122 l5 22 -354 0 c-217 0 -354 -4 -354 -10z"/>
 <path d="M930 1977 c0 -13 6 -45 14 -70 14 -46 14 -47 -13 -66 l-26 -20 40 -40 c21 -23 47 -41 56 -41 22 0 79 53 79 74 0 8 -10 20 -21 27 -19 10 -21 17 -15 62 4 29 10 62 13 75 5 21 3 22 -61 22 -63 0 -66 -1 -66 -23z"/>
 <path d="M1170 1968 c4 -18 19 -71 33 -118 15 -47 33 -125 40 -173 8 -48 17 -90 20 -94 4 -3 14 4 24 16 20 24 209 91 343 122 117 27 163 53 193 109 21 38 47 128 47 160 0 6 -137 10 -354 10 l-354 0 8 -32z"/>
 <path d="M885 1535 c-22 -8 -50 -15 -62 -15 -15 0 -23 -6 -24 -17 0 -16 -1 -15 -8 2 -7 17 -9 16 -15 -10 -4 -17 -27 -48 -54 -72 -26 -23 -44 -45 -40 -49 8 -8 94 66 90 78 -1 5 5 8 14 8 8 0 32 13 52 29 20 16 60 36 87 44 33 10 42 15 25 16 -14 0 -43 -6 -65 -14z"/>
 <path d="M1075 1533 c28 -8 67 -28 87 -44 20 -16 44 -29 53 -29 9 0 14 -4 10 -9 -5 -10 13 -26 21 -19 8 8 -27 68 -37 63 -5 -4 -9 1 -9 9 0 10 -9 16 -22 16 -13 0 -41 7 -63 15 -22 8 -51 14 -65 14 -17 -1 -8 -6 25 -16z"/>
 <path d="M1308 1368 c29 -28 55 -49 58 -46 8 9 -78 98 -95 98 -9 0 5 -20 37 -52z"/>
 <path d="M1030 1390 c-9 -6 -43 -7 -80 -4 -54 5 -68 3 -79 -10 -34 -41 46 -114 131 -122 65 -6 96 9 123 58 16 30 17 40 7 62 -9 21 -18 26 -49 26 -21 0 -45 -5 -53 -10z m13 -76 c41 -7 49 -27 16 -44 -23 -13 -69 -5 -113 17 -51 26 5 42 97 27z"/>
 <path d="M640 1340 c-6 -11 -7 -20 -2 -20 10 0 32 21 32 32 0 16 -19 8 -30 -12z"/>
 <path d="M608 1254 c-12 -51 -17 -58 -48 -68 -35 -11 -66 -54 -57 -79 3 -7 9 0 15 14 13 32 53 62 65 50 5 -5 3 -28 -3 -52 -41 -157 -54 -180 -67 -117 -6 30 -7 31 -15 9 -5 -15 -4 -33 5 -50 11 -22 10 -34 -9 -85 -12 -34 -24 -54 -28 -48 -9 14 -26 16 -26 3 0 -5 8 -12 18 -15 14 -5 17 -16 14 -76 -6 -127 41 -293 101 -360 33 -36 104 -90 118 -90 7 0 -5 19 -28 42 -54 56 -68 93 -98 256 -30 162 -31 204 -6 300 16 59 17 74 6 78 -10 4 -7 28 16 112 16 58 26 108 24 111 -3 2 0 10 7 18 6 7 8 16 5 20 -4 3 -3 11 2 17 13 17 22 66 12 66 -5 0 -15 -25 -23 -56z"/>
 <path d="M1366 1283 c4 -16 11 -33 15 -39 5 -6 6 -14 2 -17 -3 -4 -1 -13 5 -20 7 -8 10 -16 7 -18 -2 -3 9 -53 24 -112 24 -86 27 -107 15 -107 -8 0 -14 -1 -14 -2 0 -2 9 -37 20 -78 25 -95 25 -134 -1 -283 -28 -163 -49 -222 -101 -274 -61 -62 -25 -53 48 11 72 65 109 137 130 259 19 104 16 197 -8 267 -10 30 -16 65 -13 78 5 20 3 23 -13 18 -17 -6 -22 6 -46 94 -15 55 -24 105 -21 110 11 18 46 -10 62 -48 9 -20 18 -32 20 -25 2 6 -3 27 -11 47 -11 26 -23 37 -47 44 -30 7 -35 13 -47 65 -8 31 -18 57 -23 57 -5 0 -6 -12 -3 -27z"/>
 <path d="M970 1165 c-7 -8 -9 -15 -5 -15 4 0 2 -6 -4 -14 -10 -12 -8 -21 6 -42 15 -23 19 -25 21 -11 2 10 -1 23 -6 30 -7 8 -6 18 4 31 24 34 10 52 -16 21z"/>
 <path d="M480 1050 c-7 -22 -17 -40 -22 -40 -4 0 -8 -7 -8 -16 0 -8 5 -12 11 -8 7 4 7 -2 -1 -17 -18 -34 -24 -38 -16 -11 4 13 3 22 -3 22 -12 0 -31 -63 -31 -101 0 -22 4 -26 31 -27 24 -1 29 2 20 11 -6 6 -11 19 -11 29 0 10 -4 17 -9 16 -5 -2 -8 1 -7 7 0 5 6 9 12 7 13 -3 37 55 29 69 -3 4 4 23 15 41 21 35 26 58 12 58 -5 0 -15 -18 -22 -40z"/>
 <path d="M1490 1073 c0 -5 7 -21 16 -38 9 -16 18 -48 20 -70 7 -59 12 -69 28 -56 7 6 16 8 19 4 10 -10 8 30 -2 46 -5 7 -13 11 -19 7 -6 -4 -10 2 -9 13 1 23 -33 101 -45 101 -4 0 -8 -3 -8 -7z"/>
 <path d="M683 1061 c-63 -28 -79 -148 -31 -233 l26 -47 -32 -8 c-30 -7 -29 -7 19 -14 28 -4 72 -12 98 -18 43 -10 53 -8 95 13 40 20 50 31 65 72 9 27 17 62 17 78 0 48 -37 112 -78 137 -41 24 -142 35 -179 20z m175 -43 c86 -52 82 -196 -7 -243 -75 -38 -149 -8 -191 81 -26 52 -24 134 2 161 36 36 137 36 196 1z"/>
 <path d="M1164 1053 c-12 -2 -34 -17 -49 -34 -36 -36 -47 -127 -22 -176 12 -23 13 -33 4 -42 -18 -18 3 -31 69 -41 72 -11 239 1 187 14 l-33 8 30 30 c27 26 30 36 30 88 0 52 -4 64 -30 94 -50 56 -107 75 -186 59z m157 -52 c35 -34 39 -44 39 -87 0 -61 -25 -105 -73 -127 -47 -23 -83 -21 -124 4 -38 24 -63 74 -63 130 0 84 37 118 129 119 49 0 57 -3 92 -39z"/>
 <path d="M1480 1011 c0 -17 5 -31 10 -31 6 0 10 11 10 24 0 14 -4 28 -10 31 -6 4 -10 -7 -10 -24z"/>
 <path d="M1540 886 c-12 -12 -13 -36 -2 -36 4 0 14 6 21 13 10 10 11 9 6 -5 -4 -10 -3 -18 3 -18 11 0 22 23 22 45 0 15 -35 16 -50 1z"/>
 <path d="M710 271 c0 -6 5 -11 11 -11 6 0 17 -6 25 -14 18 -18 123 -58 138 -53 6 3 2 8 -9 12 -16 6 -120 54 -157 73 -5 2 -8 -1 -8 -7z"/>
 <path d="M1214 245 c-33 -17 -71 -35 -85 -39 -13 -4 -19 -9 -13 -12 15 -6 120 33 138 52 8 8 19 14 25 14 6 0 11 5 11 10 0 14 -6 12 -76 -25z"/>
 <path d="M905 190 c-4 -6 9 -10 32 -9 30 0 34 2 18 9 -27 12 -43 12 -50 0z"/>
 <path d="M1045 190 c-16 -7 -12 -9 18 -9 23 -1 36 3 32 9 -7 12 -23 12 -50 0z"/>
 </g>
<g id="layer113" fill="#cc7566" stroke="none">
 <path d="M130 1990 c0 -32 26 -122 47 -160 30 -56 76 -82 193 -109 134 -31 323 -98 343 -122 10 -12 20 -19 24 -15 3 3 12 44 19 90 6 46 26 128 42 182 17 55 32 109 35 122 l5 22 -354 0 c-217 0 -354 -4 -354 -10z"/>
 <path d="M930 1977 c0 -13 6 -45 14 -70 14 -46 14 -47 -13 -66 l-26 -20 40 -40 c21 -23 47 -41 56 -41 22 0 79 53 79 74 0 8 -10 20 -21 27 -19 10 -21 17 -15 62 4 29 10 62 13 75 5 21 3 22 -61 22 -63 0 -66 -1 -66 -23z"/>
 <path d="M1170 1968 c4 -18 19 -71 33 -118 15 -47 33 -125 40 -173 8 -48 17 -90 20 -94 4 -3 14 4 24 16 20 24 209 91 343 122 117 27 163 53 193 109 21 38 47 128 47 160 0 6 -137 10 -354 10 l-354 0 8 -32z"/>
 <path d="M905 1535 c-39 -18 -31 -18 25 -1 25 8 36 15 25 15 -11 0 -33 -6 -50 -14z"/>
 <path d="M1070 1535 c24 -8 46 -13 48 -11 5 5 -59 26 -77 25 -9 0 4 -7 29 -14z"/>
 <path d="M825 1495 c-39 -32 -28 -32 15 0 19 14 30 25 24 25 -5 0 -22 -11 -39 -25z"/>
 <path d="M1160 1495 c19 -14 36 -25 39 -25 10 1 -53 50 -63 50 -6 0 5 -11 24 -25z"/>
 <path d="M726 1424 c-11 -7 -16 -17 -13 -21 4 -4 15 1 24 10 22 21 14 30 -11 11z"/>
 <path d="M1030 1390 c-9 -6 -43 -7 -80 -4 -54 5 -68 3 -79 -10 -34 -41 46 -114 131 -122 65 -6 96 9 123 58 16 30 17 40 7 62 -9 21 -18 26 -49 26 -21 0 -45 -5 -53 -10z m13 -76 c41 -7 49 -27 16 -44 -23 -13 -69 -5 -113 17 -51 26 5 42 97 27z"/>
 <path d="M640 1340 c-7 -13 -7 -20 -1 -20 6 0 15 9 21 20 7 13 7 20 1 20 -6 0 -15 -9 -21 -20z"/>
 <path d="M1340 1340 c6 -11 15 -20 21 -20 6 0 6 7 -1 20 -6 11 -15 20 -21 20 -6 0 -6 -7 1 -20z"/>
 <path d="M1455 1160 c20 -22 31 -20 22 5 -4 8 -14 15 -23 15 -16 0 -16 -2 1 -20z"/>
 <path d="M506 1134 c-9 -36 1 -43 14 -10 12 33 12 36 1 36 -5 0 -12 -12 -15 -26z"/>
 <path d="M683 1061 c-63 -28 -79 -148 -31 -233 l26 -47 -32 -8 c-30 -7 -29 -7 19 -14 28 -4 72 -12 98 -18 43 -10 53 -8 95 13 40 20 50 31 65 72 9 27 17 62 17 78 0 48 -37 112 -78 137 -41 24 -142 35 -179 20z m175 -43 c86 -52 82 -196 -7 -243 -75 -38 -149 -8 -191 81 -26 52 -24 134 2 161 36 36 137 36 196 1z"/>
 <path d="M1164 1053 c-12 -2 -34 -17 -49 -34 -36 -36 -47 -127 -22 -176 12 -23 13 -33 4 -42 -18 -18 3 -31 69 -41 72 -11 239 1 187 14 l-33 8 30 30 c27 26 30 36 30 88 0 52 -4 64 -30 94 -50 56 -107 75 -186 59z m157 -52 c35 -34 39 -44 39 -87 0 -61 -25 -105 -73 -127 -47 -23 -83 -21 -124 4 -38 24 -63 74 -63 130 0 84 37 118 129 119 49 0 57 -3 92 -39z"/>
 <path d="M500 961 c0 -6 4 -12 9 -15 10 -7 -27 -117 -44 -128 -6 -5 -6 -8 0 -8 6 0 9 -28 7 -70 -4 -86 20 -212 54 -284 24 -50 87 -126 105 -126 12 0 12 0 -16 63 -27 62 -75 303 -75 376 0 25 9 79 19 119 16 62 17 74 5 79 -8 3 -21 0 -29 -7 -10 -9 -15 -9 -15 -1 0 6 -4 11 -10 11 -5 0 -10 -4 -10 -9z"/>
 <path d="M1420 968 c0 -2 9 -37 20 -78 25 -94 25 -137 0 -277 -25 -145 -28 -158 -57 -222 -13 -30 -21 -56 -18 -59 12 -12 85 74 110 130 33 73 56 200 54 288 -2 65 -41 197 -63 212 -10 7 -46 11 -46 6z"/>
 <path d="M1530 953 c0 -7 4 -13 9 -13 5 0 11 6 14 13 3 8 -1 14 -9 14 -8 0 -14 -6 -14 -14z"/>
 </g>
<g id="layer114" fill="#a5877b" stroke="none">
 <path d="M130 1990 c0 -32 26 -122 47 -160 30 -56 76 -82 193 -109 134 -31 323 -98 343 -122 10 -12 20 -19 24 -15 3 3 12 44 19 90 6 46 26 128 42 182 17 55 32 109 35 122 l5 22 -354 0 c-217 0 -354 -4 -354 -10z"/>
 <path d="M930 1977 c0 -13 6 -45 14 -70 14 -46 14 -47 -13 -66 l-26 -20 40 -40 c21 -23 47 -41 56 -41 22 0 79 53 79 74 0 8 -10 20 -21 27 -19 10 -21 17 -15 62 4 29 10 62 13 75 5 21 3 22 -61 22 -63 0 -66 -1 -66 -23z"/>
 <path d="M1170 1968 c4 -18 19 -71 33 -118 15 -47 33 -125 40 -173 8 -48 17 -90 20 -94 4 -3 14 4 24 16 20 24 209 91 343 122 117 27 163 53 193 109 21 38 47 128 47 160 0 6 -137 10 -354 10 l-354 0 8 -32z"/>
 <path d="M1030 1390 c-9 -6 -43 -7 -80 -4 -54 5 -68 3 -79 -10 -34 -41 46 -114 131 -122 65 -6 96 9 123 58 16 30 17 40 7 62 -9 21 -18 26 -49 26 -21 0 -45 -5 -53 -10z m87 -16 c5 -16 -27 -23 -73 -14 l-39 7 35 11 c42 13 72 11 77 -4z m-74 -60 c41 -7 49 -27 16 -44 -23 -13 -69 -5 -113 17 -51 26 5 42 97 27z"/>
 <path d="M683 1061 c-63 -28 -79 -148 -31 -233 l26 -47 -32 -8 c-30 -7 -29 -7 19 -14 28 -4 72 -12 98 -18 43 -10 53 -8 95 13 40 20 50 31 65 72 9 27 17 62 17 78 0 48 -37 112 -78 137 -41 24 -142 35 -179 20z m175 -43 c86 -52 82 -196 -7 -243 -75 -38 -149 -8 -191 81 -26 52 -24 134 2 161 36 36 137 36 196 1z"/>
 <path d="M1164 1053 c-12 -2 -34 -17 -49 -34 -36 -36 -47 -127 -22 -176 12 -23 13 -33 4 -42 -18 -18 3 -31 69 -41 72 -11 239 1 187 14 l-33 8 30 30 c27 26 30 36 30 88 0 52 -4 64 -30 94 -50 56 -107 75 -186 59z m157 -52 c35 -34 39 -44 39 -87 0 -61 -25 -105 -73 -127 -47 -23 -83 -21 -124 4 -38 24 -63 74 -63 130 0 84 37 118 129 119 49 0 57 -3 92 -39z"/>
 <path d="M525 947 c-93 -142 -60 -455 61 -580 31 -32 54 -46 54 -33 0 2 -11 29 -25 59 -27 62 -75 303 -75 376 0 25 9 78 19 118 10 40 16 74 13 77 -12 13 -32 5 -47 -17z"/>
 <path d="M1420 968 c0 -2 9 -37 20 -78 25 -94 25 -137 0 -277 -25 -145 -28 -158 -57 -222 -13 -30 -21 -56 -18 -59 12 -12 85 74 110 130 33 73 56 200 54 288 -2 65 -41 197 -63 212 -10 7 -46 11 -46 6z"/>
 </g>
<g id="layer115" fill="#685b55" stroke="none">
 <path d="M130 1990 c0 -32 26 -122 47 -160 30 -56 76 -82 193 -109 134 -31 323 -98 343 -122 10 -12 20 -19 23 -17 3 3 11 45 19 93 8 48 25 123 39 168 13 45 29 99 34 120 l10 37 -354 0 c-217 0 -354 -4 -354 -10z"/>
 <path d="M930 1977 c0 -13 6 -45 14 -70 14 -46 14 -47 -13 -66 l-26 -20 40 -40 c21 -23 46 -41 55 -41 18 0 80 60 80 78 0 6 -10 16 -21 23 -19 10 -21 17 -15 63 3 28 9 61 12 74 6 21 4 22 -60 22 -63 0 -66 -1 -66 -23z"/>
 <path d="M1172 1963 c5 -21 21 -75 34 -120 14 -45 31 -120 39 -168 8 -48 16 -90 19 -93 3 -2 13 5 23 17 20 24 209 91 343 122 117 27 163 53 193 109 21 38 47 128 47 160 0 6 -137 10 -354 10 l-354 0 10 -37z"/>
 <path d="M1046 1393 c-4 -5 -44 -8 -88 -8 -65 0 -83 -3 -92 -17 -15 -24 18 -67 75 -96 33 -18 55 -22 92 -19 54 5 82 25 97 73 16 47 0 74 -44 74 -18 0 -36 -3 -40 -7z m71 -19 c5 -16 -27 -23 -73 -14 l-39 7 35 11 c42 13 72 11 77 -4z m-68 -60 c35 -7 39 -29 9 -48 -19 -11 -101 5 -126 26 -28 24 42 37 117 22z"/>
 <path d="M680 1052 c-63 -31 -75 -138 -25 -229 l24 -43 -27 -7 c-25 -7 -23 -8 18 -14 25 -4 65 -12 90 -18 39 -8 52 -7 95 13 44 20 52 28 68 72 9 27 17 62 17 77 0 118 -150 204 -260 149z m171 -27 c127 -66 76 -265 -68 -265 -126 0 -200 226 -91 276 38 16 115 11 159 -11z"/>
 <path d="M1164 1053 c-12 -2 -34 -17 -49 -33 -35 -37 -45 -116 -22 -172 11 -26 12 -39 4 -47 -17 -17 2 -28 68 -38 72 -11 227 -3 182 10 l-28 8 30 35 c27 30 31 43 31 89 0 46 -5 59 -30 89 -50 56 -107 75 -186 59z m157 -52 c35 -34 39 -44 39 -87 0 -85 -57 -144 -138 -144 -79 0 -146 106 -120 192 16 54 55 78 127 78 49 0 57 -3 92 -39z"/>
 <path d="M531 956 c-6 -7 -22 -42 -34 -78 -57 -157 -14 -405 89 -511 36 -36 61 -49 51 -24 -41 92 -59 149 -72 228 -9 52 -20 115 -24 141 -8 49 1 136 19 183 22 58 2 99 -29 61z"/>
 <path d="M1430 948 c0 -13 7 -48 15 -78 20 -74 19 -130 -5 -268 -23 -130 -34 -169 -62 -225 -11 -22 -17 -42 -14 -45 13 -12 86 73 111 130 54 121 69 307 32 403 -10 27 -21 59 -24 70 -12 39 -53 49 -53 13z"/>
 </g>
<g id="layer116" fill="#6b4b3c" stroke="none">
 <path d="M130 1990 c0 -32 26 -122 47 -160 30 -56 76 -82 193 -109 134 -31 323 -98 343 -122 10 -12 20 -19 23 -16 3 3 10 38 15 79 6 40 23 116 39 168 16 52 33 112 38 133 l10 37 -354 0 c-217 0 -354 -4 -354 -10z"/>
 <path d="M930 1982 c0 -11 7 -41 15 -68 15 -49 15 -49 -11 -72 l-27 -23 39 -40 c21 -21 45 -39 54 -39 17 0 80 59 80 75 0 5 -11 18 -24 30 -24 20 -25 21 -12 88 l14 67 -64 0 c-55 0 -64 -2 -64 -18z"/>
 <path d="M1172 1963 c5 -21 20 -73 33 -115 13 -42 31 -118 39 -168 8 -51 17 -95 20 -97 3 -3 13 4 23 16 20 24 209 91 343 122 117 27 163 53 193 109 21 38 47 128 47 160 0 6 -137 10 -354 10 l-354 0 10 -37z"/>
 <path d="M1035 1389 c-16 -5 -58 -6 -91 -3 -57 6 -63 5 -74 -16 -10 -19 -9 -27 8 -49 27 -37 72 -60 123 -65 24 -2 35 -2 24 1 -48 10 -106 36 -102 47 6 16 142 15 159 -2 11 -11 10 -16 -6 -28 -11 -8 -15 -14 -9 -14 38 0 78 75 62 118 -9 24 -39 28 -94 11z m82 -15 c5 -16 -27 -23 -73 -14 l-39 7 35 11 c42 13 72 11 77 -4z"/>
 <path d="M703 1063 c-31 -6 -70 -48 -77 -84 -9 -46 3 -108 30 -155 l23 -41 -22 -11 c-21 -10 -21 -11 8 -11 17 -1 55 -8 85 -16 52 -14 57 -14 100 8 50 25 90 89 89 142 -1 26 -3 25 -12 -12 -27 -115 -147 -163 -224 -91 -58 54 -83 166 -48 215 51 73 212 43 257 -47 10 -19 18 -28 18 -19 0 25 -42 81 -75 100 -31 18 -114 30 -152 22z"/>
 <path d="M1164 1054 c-12 -3 -34 -19 -50 -35 -26 -27 -29 -37 -29 -98 0 -47 5 -75 18 -94 16 -25 16 -27 0 -27 -15 0 -15 -2 -3 -14 22 -21 104 -32 190 -26 73 5 74 5 42 17 -23 9 -40 10 -52 3 -10 -6 -37 -10 -60 -10 -82 0 -148 105 -120 190 19 57 41 73 109 78 77 6 116 -15 142 -74 24 -53 18 -102 -18 -145 -14 -16 -20 -29 -15 -29 6 0 22 14 36 31 20 23 26 41 26 77 0 58 -14 87 -61 124 -35 29 -105 43 -155 32z"/>
 <path d="M530 956 c-5 -6 -20 -41 -33 -78 -57 -158 -14 -404 89 -511 52 -54 70 -49 36 8 -26 43 -49 131 -72 275 l-20 125 20 79 c11 44 20 87 20 96 0 19 -26 22 -40 6z"/>
 <path d="M1430 952 c0 -10 9 -53 19 -97 11 -44 17 -91 15 -105 -2 -14 -13 -81 -24 -150 -21 -128 -32 -170 -64 -228 -25 -49 -12 -52 33 -8 50 49 89 136 107 239 15 87 17 214 2 223 -4 3 -8 15 -8 28 0 12 -7 31 -15 42 -8 10 -15 29 -15 42 0 12 -3 22 -7 23 -5 0 -16 2 -25 4 -12 2 -18 -3 -18 -13z"/>
 </g>
<g id="layer117" fill="#932526" stroke="none">
 <path d="M130 1990 c0 -32 26 -122 47 -160 30 -56 76 -82 193 -109 134 -31 323 -98 343 -122 10 -12 20 -20 23 -17 2 3 11 49 19 102 8 54 18 102 21 107 3 6 18 55 34 110 l27 99 -353 0 c-217 0 -354 -4 -354 -10z"/>
 <path d="M930 1982 c0 -11 7 -41 15 -68 15 -49 15 -49 -11 -72 l-27 -23 39 -40 c21 -21 45 -39 54 -39 17 0 80 59 80 75 0 5 -11 18 -24 30 -24 20 -25 21 -12 88 l14 67 -64 0 c-55 0 -64 -2 -64 -18z"/>
 <path d="M1165 1988 c24 -67 76 -268 84 -326 5 -41 12 -76 15 -79 3 -3 13 4 23 16 20 24 209 91 343 122 117 27 163 53 193 109 21 38 47 128 47 160 0 6 -137 10 -355 10 -279 0 -353 -3 -350 -12z"/>
 <path d="M1035 1389 c-16 -5 -58 -6 -91 -3 -57 6 -63 5 -74 -15 -9 -18 -8 -27 5 -47 20 -30 73 -64 100 -63 13 0 7 6 -18 16 -57 23 -41 38 41 38 81 0 111 -16 78 -41 -11 -8 -15 -14 -9 -14 38 0 78 75 62 118 -9 24 -39 28 -94 11z m80 -19 c0 -16 -57 -22 -92 -9 -14 5 -11 9 17 17 46 14 75 11 75 -8z"/>
 <path d="M703 1063 c-31 -6 -70 -48 -77 -84 -9 -48 4 -109 36 -166 25 -45 35 -54 71 -63 23 -6 49 -13 57 -16 9 -2 36 6 60 18 49 25 75 68 84 133 l5 40 -11 -42 c-30 -116 -148 -163 -225 -91 -58 54 -83 166 -48 215 51 73 212 43 257 -47 10 -19 18 -28 18 -19 0 25 -42 81 -75 100 -31 18 -114 30 -152 22z"/>
 <path d="M1164 1054 c-12 -3 -34 -19 -50 -35 -26 -27 -29 -37 -29 -99 0 -60 4 -74 30 -112 25 -34 39 -44 69 -49 62 -10 115 7 158 51 33 34 38 44 38 87 0 59 -14 87 -61 125 -35 29 -105 43 -155 32z m137 -30 c61 -31 83 -129 42 -192 -38 -60 -136 -81 -188 -40 -31 24 -65 91 -64 128 0 37 31 93 59 107 35 18 115 16 151 -3z"/>
 <path d="M494 864 c-4 -16 -10 -33 -14 -39 -14 -19 -11 -161 5 -239 9 -43 27 -101 41 -130 24 -51 87 -126 105 -126 14 0 -11 42 -37 63 -22 17 -66 98 -79 147 -6 23 -4 22 25 -10 29 -31 28 -29 -7 20 -37 53 -38 57 -40 150 -1 52 2 115 7 140 9 50 5 69 -6 24z"/>
 <path d="M1497 865 c4 -16 7 -82 7 -145 l1 -115 -38 -55 c-35 -50 -36 -51 -7 -20 29 32 31 33 25 10 -13 -49 -57 -130 -79 -147 -25 -20 -51 -63 -38 -63 19 0 83 79 107 133 45 97 71 313 44 367 -4 8 -12 26 -18 40 -10 24 -10 23 -4 -5z"/>
 <path d="M518 753 c-3 -13 -2 -26 3 -29 5 -3 9 -15 10 -27 0 -12 3 -17 5 -11 2 6 1 28 -4 50 -7 33 -9 35 -14 17z"/>
 <path d="M1470 765 c-2 -5 -2 -13 -2 -16 1 -4 -8 -53 -19 -109 -20 -104 -20 -149 1 -69 6 24 15 52 21 63 8 13 7 16 -1 11 -12 -8 -4 61 10 80 4 6 4 19 -1 30 -4 11 -8 16 -9 10z"/>
 <path d="M541 657 c-1 -10 -6 -15 -12 -12 -7 5 -7 2 0 -11 6 -11 15 -39 21 -63 17 -67 21 -43 6 35 -8 38 -15 61 -15 51z"/>
 </g>
<g id="layer118" fill="#5c4235" stroke="none">
 <path d="M130 1990 c0 -32 26 -122 47 -160 30 -56 76 -82 193 -109 134 -31 323 -98 343 -122 10 -12 20 -20 23 -17 2 3 11 49 19 102 8 54 18 102 21 107 3 6 18 55 34 110 l27 99 -353 0 c-217 0 -354 -4 -354 -10z"/>
 <path d="M930 1982 c0 -11 7 -41 15 -68 15 -49 15 -49 -11 -72 l-27 -23 39 -40 c21 -21 45 -39 54 -39 17 0 80 59 80 75 0 5 -11 18 -24 30 -24 20 -25 21 -12 88 l14 67 -64 0 c-55 0 -64 -2 -64 -18z"/>
 <path d="M1165 1988 c24 -67 76 -268 84 -326 5 -41 12 -76 15 -79 3 -3 13 4 23 16 20 24 209 91 343 122 117 27 163 53 193 109 21 38 47 128 47 160 0 6 -137 10 -355 10 -279 0 -353 -3 -350 -12z"/>
 <path d="M1035 1389 c-16 -5 -58 -6 -91 -3 -57 6 -63 5 -74 -15 -9 -18 -8 -27 5 -47 20 -30 73 -64 100 -63 13 0 7 6 -18 16 -57 23 -41 38 41 38 81 0 111 -16 78 -41 -11 -8 -15 -14 -9 -14 38 0 78 75 62 118 -9 24 -39 28 -94 11z m80 -19 c0 -19 -27 -24 -73 -15 l-37 8 30 13 c38 17 80 14 80 -6z m-142 -7 c18 -9 46 -20 62 -23 22 -6 13 -7 -30 -6 -33 0 -72 -2 -87 -7 -22 -6 -28 -3 -33 14 -13 39 33 51 88 22z"/>
 <path d="M703 1063 c-31 -6 -70 -48 -77 -84 -9 -48 4 -109 36 -166 25 -45 35 -54 71 -63 23 -6 49 -13 57 -16 9 -2 36 6 60 18 49 25 75 68 84 133 l5 40 -11 -42 c-30 -116 -148 -163 -225 -91 -58 54 -83 166 -48 215 51 73 212 43 257 -47 10 -19 18 -28 18 -19 0 25 -42 81 -75 100 -31 18 -114 30 -152 22z"/>
 <path d="M1164 1054 c-12 -3 -34 -19 -50 -35 -26 -27 -29 -37 -29 -99 0 -60 4 -74 30 -112 25 -34 39 -44 69 -49 62 -10 115 7 158 51 33 34 38 44 38 87 0 59 -14 87 -61 125 -35 29 -105 43 -155 32z m137 -30 c61 -31 83 -129 42 -192 -38 -60 -136 -81 -188 -40 -31 24 -65 91 -64 128 0 37 31 93 59 107 35 18 115 16 151 -3z"/>
 <path d="M494 864 c-4 -16 -10 -33 -14 -39 -14 -19 -11 -161 5 -239 9 -43 27 -101 41 -130 24 -51 87 -126 105 -126 14 0 -11 42 -37 63 -22 17 -66 98 -79 147 -6 23 -4 22 25 -10 29 -31 28 -29 -7 20 -37 53 -38 57 -40 150 -1 52 2 115 7 140 9 50 5 69 -6 24z"/>
 <path d="M1497 865 c4 -16 7 -82 7 -145 l1 -115 -38 -55 c-35 -50 -36 -51 -7 -20 29 32 31 33 25 10 -13 -49 -57 -130 -79 -147 -25 -20 -51 -63 -38 -63 19 0 83 79 107 133 45 97 71 313 44 367 -4 8 -12 26 -18 40 -10 24 -10 23 -4 -5z"/>
 <path d="M518 753 c-3 -13 -2 -26 3 -29 5 -3 9 -15 10 -27 0 -12 3 -17 5 -11 2 6 1 28 -4 50 -7 33 -9 35 -14 17z"/>
 <path d="M1470 765 c-2 -5 -2 -13 -2 -16 1 -4 -8 -53 -19 -109 -20 -104 -20 -149 1 -69 6 24 15 52 21 63 8 13 7 16 -1 11 -12 -8 -4 61 10 80 4 6 4 19 -1 30 -4 11 -8 16 -9 10z"/>
 <path d="M541 657 c-1 -10 -6 -15 -12 -12 -7 5 -7 2 0 -11 6 -11 15 -39 21 -63 17 -67 21 -43 6 35 -8 38 -15 61 -15 51z"/>
 </g>
<g id="layer119" fill="#5b362b" stroke="none">
 <path d="M130 1990 c0 -32 26 -122 47 -160 30 -56 76 -82 193 -109 134 -31 323 -98 343 -122 10 -12 20 -20 23 -17 2 3 11 49 19 102 8 54 18 102 21 107 3 6 18 55 34 110 l27 99 -353 0 c-217 0 -354 -4 -354 -10z"/>
 <path d="M930 1982 c0 -11 7 -41 15 -68 15 -49 15 -49 -11 -72 l-27 -23 39 -40 c21 -21 45 -39 54 -39 17 0 80 59 80 75 0 5 -11 18 -24 30 -24 20 -25 21 -12 88 l14 67 -64 0 c-55 0 -64 -2 -64 -18z"/>
 <path d="M1186 1916 c13 -46 29 -97 34 -112 6 -16 17 -71 25 -123 8 -51 17 -96 19 -99 3 -3 13 5 23 17 20 24 209 91 343 122 117 27 163 53 193 109 21 38 47 128 47 160 0 6 -137 10 -354 10 l-354 0 24 -84z"/>
 <path d="M1035 1389 c-16 -5 -58 -7 -92 -3 -55 6 -62 4 -72 -15 -20 -37 30 -92 95 -106 24 -5 23 -3 -9 11 -56 25 -41 39 41 39 81 0 111 -16 78 -41 -11 -8 -15 -14 -9 -14 21 0 53 35 62 67 17 60 -21 85 -94 62z m80 -19 c0 -19 -27 -24 -73 -15 l-37 8 30 13 c38 17 80 14 80 -6z m-142 -7 c18 -9 46 -20 62 -23 22 -6 13 -7 -30 -6 -33 0 -72 -2 -87 -7 -22 -6 -28 -3 -33 14 -13 39 33 51 88 22z"/>
 <path d="M703 1062 c-66 -20 -91 -86 -67 -177 21 -82 53 -121 114 -139 47 -14 53 -14 95 5 33 15 51 31 66 60 11 22 18 46 15 52 -2 7 -5 4 -5 -5 -2 -29 -60 -87 -99 -97 -46 -13 -80 -5 -115 28 -68 62 -89 174 -44 226 56 66 214 29 253 -59 7 -17 13 -24 14 -15 0 28 -44 83 -80 101 -41 19 -116 30 -147 20z"/>
 <path d="M1165 1053 c-38 -10 -74 -54 -81 -100 -8 -54 10 -124 41 -157 28 -30 88 -48 118 -36 18 7 15 9 -19 9 -51 1 -90 30 -115 85 -23 51 -23 92 0 131 23 39 55 55 114 55 89 0 141 -48 141 -131 0 -54 -21 -91 -67 -119 -38 -23 -29 -27 13 -5 66 34 90 116 55 185 -33 63 -128 103 -200 83z"/>
 <path d="M490 851 c0 -11 -4 -22 -9 -25 -15 -10 -12 -160 4 -240 19 -92 53 -168 96 -213 26 -29 49 -42 49 -29 0 2 -20 28 -45 57 -71 83 -90 153 -90 327 0 78 -1 142 -2 142 -2 0 -3 -9 -3 -19z"/>
 <path d="M1508 756 c6 -165 -27 -283 -104 -368 -19 -22 -33 -42 -30 -46 13 -12 75 63 101 120 48 106 70 316 41 374 -9 16 -11 -3 -8 -80z"/>
 </g>
<g id="layer120" fill="#653220" stroke="none">
 <path d="M130 1990 c0 -32 26 -122 47 -160 30 -56 76 -82 193 -109 134 -31 323 -98 343 -122 10 -12 20 -19 23 -16 3 3 10 38 15 79 5 40 18 102 28 138 11 36 29 95 39 133 l20 67 -354 0 c-217 0 -354 -4 -354 -10z"/>
 <path d="M930 1982 c0 -11 7 -41 15 -68 15 -49 15 -49 -11 -72 l-27 -23 39 -40 c21 -21 45 -39 54 -39 17 0 80 59 80 75 0 5 -11 18 -24 30 -24 20 -25 21 -12 88 l14 67 -64 0 c-55 0 -64 -2 -64 -18z"/>
 <path d="M1186 1916 c13 -46 29 -97 34 -112 6 -16 17 -71 25 -123 8 -51 17 -96 19 -99 3 -3 13 5 23 17 20 24 209 91 343 122 117 27 163 53 193 109 21 38 47 128 47 160 0 6 -137 10 -354 10 l-354 0 24 -84z"/>
 <path d="M1035 1389 c-16 -5 -58 -7 -92 -3 -55 6 -62 4 -72 -15 -20 -37 30 -92 95 -106 24 -5 23 -3 -9 11 -56 25 -41 39 41 39 81 0 111 -16 78 -41 -11 -8 -15 -14 -9 -14 21 0 53 35 62 67 17 60 -21 85 -94 62z m80 -19 c0 -17 -44 -25 -84 -15 l-26 8 30 13 c38 17 80 14 80 -6z m-142 -7 c18 -9 46 -20 62 -23 22 -6 13 -7 -30 -6 -33 0 -72 -2 -87 -7 -22 -6 -28 -3 -33 14 -13 39 33 51 88 22z"/>
 <path d="M703 1062 c-66 -20 -91 -86 -67 -177 21 -82 53 -121 114 -139 47 -14 53 -14 95 5 33 15 51 31 66 60 11 22 18 46 15 52 -2 7 -5 4 -5 -5 -2 -29 -60 -87 -99 -97 -46 -13 -80 -5 -115 28 -68 62 -89 174 -44 226 56 66 214 29 253 -59 7 -17 13 -24 14 -15 0 28 -44 83 -80 101 -41 19 -116 30 -147 20z"/>
 <path d="M1165 1053 c-38 -10 -74 -54 -81 -100 -8 -54 10 -124 41 -157 28 -30 88 -48 118 -36 18 7 15 9 -19 9 -51 1 -90 30 -115 85 -23 51 -23 92 0 131 23 39 55 55 114 55 89 0 141 -48 141 -131 0 -54 -21 -91 -67 -119 -38 -23 -29 -27 13 -5 66 34 90 116 55 185 -33 63 -128 103 -200 83z"/>
 <path d="M478 807 c-13 -31 -9 -143 8 -223 17 -84 52 -164 89 -206 37 -43 37 -33 0 22 -60 89 -77 150 -84 295 -3 73 -9 122 -13 112z"/>
 <path d="M1508 694 c-4 -112 -8 -138 -32 -196 -16 -38 -42 -87 -58 -110 -31 -43 -31 -43 -3 -18 35 32 71 104 90 178 17 65 27 242 15 262 -4 7 -10 -46 -12 -116z"/>
 </g>
<g id="layer121" fill="#562817" stroke="none">
 <path d="M130 1990 c0 -32 26 -122 47 -160 30 -56 76 -82 193 -109 134 -31 323 -98 343 -122 10 -12 20 -19 23 -16 3 3 10 38 15 79 5 40 18 102 28 138 61 202 60 200 42 200 -23 0 -93 -231 -91 -298 2 -64 -1 -100 -7 -84 -3 7 -39 38 -80 68 l-75 56 37 38 c39 40 39 41 -17 59 l-37 12 26 70 c14 38 23 73 19 76 -11 11 -22 -9 -44 -74 -19 -57 -19 -63 -4 -76 10 -8 28 -18 41 -22 l23 -7 -32 -33 -32 -33 34 -30 c18 -17 44 -40 58 -52 l25 -21 -25 7 c-14 3 -36 12 -50 19 -30 16 -219 71 -275 81 -22 4 -52 13 -67 21 -34 16 -75 94 -90 169 -6 29 -15 54 -19 54 -5 0 -9 -4 -9 -10z"/>
 <path d="M294 1948 c-9 -29 -27 -69 -39 -88 -35 -56 -36 -60 -30 -60 20 0 106 182 92 196 -3 3 -13 -19 -23 -48z"/>
 <path d="M930 1982 c0 -11 7 -41 15 -68 15 -49 15 -49 -11 -72 l-27 -23 39 -40 c21 -21 45 -39 54 -39 17 0 80 59 80 75 0 5 -11 18 -24 30 -24 20 -25 21 -12 88 l14 67 -64 0 c-55 0 -64 -2 -64 -18z"/>
 <path d="M1186 1916 c13 -46 29 -97 34 -112 6 -16 17 -71 25 -123 8 -51 17 -96 19 -99 3 -3 13 5 23 17 20 24 209 91 343 122 154 35 202 78 229 207 13 64 14 72 2 72 -4 0 -13 -25 -19 -54 -15 -75 -56 -153 -90 -169 -15 -8 -45 -17 -67 -21 -56 -10 -245 -65 -275 -81 -14 -7 -36 -16 -50 -19 l-25 -7 25 21 c14 12 40 35 58 52 l34 30 -32 33 -32 33 23 7 c13 4 31 14 41 22 15 13 15 19 -4 76 -22 65 -33 85 -44 74 -4 -3 5 -38 19 -76 l26 -70 -37 -12 c-56 -18 -56 -19 -17 -59 l37 -38 -75 -56 c-41 -30 -77 -61 -80 -68 -6 -14 -6 -8 -10 92 -3 88 -65 290 -88 290 -15 0 -14 -8 7 -84z"/>
 <path d="M1685 1973 c10 -44 50 -126 74 -153 24 -27 20 -15 -14 40 -12 19 -30 59 -39 88 -18 55 -33 72 -21 25z"/>
 <path d="M1035 1389 c-16 -5 -58 -7 -92 -3 -55 6 -62 4 -72 -15 -20 -37 30 -92 95 -106 24 -5 23 -3 -9 11 -56 25 -41 39 41 39 81 0 111 -16 78 -41 -11 -8 -15 -14 -9 -14 21 0 53 35 62 67 17 60 -21 85 -94 62z m80 -19 c0 -17 -43 -25 -83 -15 -42 10 3 35 58 32 15 -1 25 -8 25 -17z m-135 -10 c22 -11 59 -20 85 -20 25 0 45 -5 45 -10 0 -7 -18 -8 -52 -3 -66 9 -94 9 -136 0 -24 -5 -34 -3 -38 8 -18 46 31 58 96 25z"/>
 <path d="M703 1062 c-66 -20 -91 -86 -67 -177 21 -82 53 -121 114 -139 47 -14 53 -14 95 5 33 15 51 31 66 60 11 22 18 46 15 52 -2 7 -5 4 -5 -5 -2 -29 -60 -87 -99 -97 -46 -13 -80 -5 -115 28 -68 62 -89 174 -44 226 56 66 214 29 253 -59 7 -17 13 -24 14 -15 0 28 -44 83 -80 101 -41 19 -116 30 -147 20z"/>
 <path d="M1165 1053 c-38 -10 -74 -54 -81 -100 -8 -54 10 -124 41 -157 28 -30 88 -48 118 -36 18 7 15 9 -19 9 -51 1 -90 30 -115 85 -23 51 -23 92 0 131 23 39 55 55 114 55 89 0 141 -48 141 -131 0 -54 -21 -91 -67 -119 -38 -23 -29 -27 13 -5 66 34 90 116 55 185 -33 63 -128 103 -200 83z"/>
 <path d="M478 807 c-13 -31 -9 -143 8 -223 17 -84 52 -164 89 -206 37 -43 37 -33 0 22 -60 89 -77 150 -84 295 -3 73 -9 122 -13 112z"/>
 <path d="M1508 694 c-4 -112 -8 -138 -32 -196 -16 -38 -42 -87 -58 -110 -31 -43 -31 -43 -3 -18 35 32 71 104 90 178 17 65 27 242 15 262 -4 7 -10 -46 -12 -116z"/>
 </g>
<g id="layer122" fill="#322e2d" stroke="none">
 <path d="M130 1990 c0 -32 26 -122 46 -160 29 -53 75 -83 154 -99 30 -6 64 -13 75 -15 43 -9 288 -96 301 -107 15 -12 19 -1 6 16 -4 6 -27 25 -52 44 -44 32 -45 32 -10 2 41 -37 37 -38 -39 -7 -70 30 -256 86 -285 86 -11 0 -40 9 -64 20 l-44 20 22 32 22 33 -26 -30 -25 -29 -20 44 c-12 25 -26 71 -33 103 -7 31 -16 57 -20 57 -4 0 -8 -4 -8 -10z"/>
 <path d="M558 1929 c-22 -70 -22 -71 -3 -85 10 -8 24 -14 29 -14 6 0 2 6 -9 12 -11 6 -21 12 -22 13 -2 0 6 23 16 51 29 78 33 94 22 94 -5 0 -20 -32 -33 -71z"/>
 <path d="M780 1877 c-19 -67 -37 -153 -41 -192 -3 -38 -9 -78 -13 -87 -5 -11 -4 -18 2 -18 6 0 14 21 17 48 9 67 28 151 62 270 19 63 26 102 19 102 -6 0 -27 -55 -46 -123z"/>
 <path d="M930 1982 c0 -11 7 -41 15 -68 15 -49 15 -49 -11 -72 l-27 -23 39 -40 c21 -21 45 -39 54 -39 17 0 80 59 80 75 0 5 -11 18 -24 30 -24 20 -25 21 -12 88 l14 67 -64 0 c-55 0 -64 -2 -64 -18z"/>
 <path d="M1201 1869 c21 -72 43 -165 49 -207 6 -41 12 -78 15 -80 2 -3 12 5 22 17 20 24 209 91 343 122 117 27 163 53 193 109 32 58 57 170 39 170 -4 0 -13 -26 -20 -57 -7 -32 -21 -78 -32 -102 -18 -39 -22 -42 -38 -30 -15 13 -16 12 -3 -3 12 -16 9 -20 -30 -38 -24 -11 -54 -20 -65 -20 -29 0 -215 -56 -285 -86 -76 -31 -80 -30 -39 7 35 30 34 30 -10 -2 -25 -19 -49 -39 -53 -46 -16 -25 -27 -2 -27 54 0 66 -69 323 -86 323 -8 0 2 -48 27 -131z"/>
 <path d="M1406 1978 c3 -13 15 -45 25 -72 10 -28 18 -51 16 -51 -1 -1 -11 -7 -22 -13 -11 -6 -15 -12 -9 -12 5 0 19 6 29 14 18 13 18 15 -5 85 -12 39 -27 71 -32 71 -5 0 -6 -10 -2 -22z"/>
 <path d="M1691 1960 c-1 -17 35 -100 43 -100 3 0 -3 19 -13 43 -10 23 -21 49 -24 57 -5 13 -5 13 -6 0z"/>
 <path d="M608 1821 c11 -6 6 -14 -17 -30 -38 -27 -39 -41 -3 -72 l27 -24 -22 25 -21 25 28 34 c29 33 31 51 7 51 -8 0 -8 -3 1 -9z"/>
 <path d="M1376 1822 c-3 -5 8 -24 24 -43 l28 -34 -21 -25 -22 -25 28 24 c35 31 34 45 -4 72 -23 16 -28 24 -17 30 9 6 9 9 1 9 -6 0 -14 -4 -17 -8z"/>
 <path d="M1113 1386 c18 -24 6 -36 -35 -35 -24 0 -52 4 -63 8 -18 7 -17 9 8 17 21 7 7 9 -58 11 -75 1 -86 -1 -95 -18 -19 -35 32 -91 96 -104 24 -5 23 -3 -9 11 -56 25 -41 39 41 39 81 0 111 -16 78 -41 -11 -8 -15 -14 -9 -14 21 0 53 35 62 67 8 26 6 36 -7 51 -9 9 -14 13 -9 8z m-132 -26 c24 -11 64 -20 87 -20 31 0 42 -4 39 -12 -2 -7 -11 -11 -18 -8 -8 2 -57 5 -109 6 -95 2 -109 7 -96 39 8 21 46 19 97 -5z"/>
 <path d="M703 1062 c-66 -20 -91 -86 -67 -177 21 -82 53 -121 114 -139 47 -14 53 -14 95 5 33 15 51 31 66 60 11 22 18 46 15 52 -2 7 -5 4 -5 -5 -2 -29 -60 -87 -99 -97 -46 -13 -80 -5 -115 28 -68 62 -89 174 -44 226 56 66 214 29 253 -59 7 -17 13 -24 14 -15 0 28 -44 83 -80 101 -41 19 -116 30 -147 20z"/>
 <path d="M1165 1053 c-38 -10 -74 -54 -81 -100 -8 -54 10 -124 41 -157 28 -30 88 -48 118 -36 18 7 15 9 -19 9 -51 1 -90 30 -115 85 -23 51 -23 92 0 131 23 39 55 55 114 55 89 0 141 -48 141 -131 0 -54 -21 -91 -67 -119 -38 -23 -29 -27 13 -5 66 34 90 116 55 185 -33 63 -128 103 -200 83z"/>
 <path d="M476 803 c-4 -9 -2 -21 4 -27 7 -7 10 -2 10 17 0 31 -5 34 -14 10z"/>
 <path d="M1511 791 c-1 -27 2 -32 11 -23 8 8 8 17 0 34 -10 22 -11 21 -11 -11z"/>
 <path d="M477 653 c-3 -5 -1 -17 4 -28 7 -17 8 -17 8 8 1 27 -4 34 -12 20z"/>
 <path d="M480 599 c0 -2 6 -26 14 -54 18 -67 53 -139 78 -162 17 -14 15 -9 -6 24 -15 23 -38 73 -50 112 -19 59 -36 98 -36 80z"/>
 <path d="M1494 544 c-3 -10 -19 -48 -35 -83 -33 -72 -32 -95 1 -30 28 54 52 121 45 127 -2 3 -7 -4 -11 -14z"/>
 </g>
<g id="layer123" fill="#471a0c" stroke="none">
 <path d="M130 1990 c0 -32 26 -122 46 -160 29 -53 75 -83 154 -99 30 -6 64 -13 75 -15 43 -9 288 -96 301 -107 15 -12 19 -1 6 16 -4 6 -27 25 -52 44 -44 32 -45 32 -10 2 41 -37 37 -38 -39 -7 -70 30 -256 86 -285 86 -11 0 -40 9 -64 20 l-44 20 22 32 22 33 -26 -30 -25 -29 -20 44 c-12 25 -26 71 -33 103 -7 31 -16 57 -20 57 -4 0 -8 -4 -8 -10z"/>
 <path d="M558 1929 c-22 -70 -22 -71 -3 -85 10 -8 24 -14 29 -14 6 0 2 6 -9 12 -11 6 -21 12 -22 13 -2 0 6 23 16 51 29 78 33 94 22 94 -5 0 -20 -32 -33 -71z"/>
 <path d="M780 1877 c-19 -67 -37 -153 -41 -192 -3 -38 -9 -78 -13 -87 -5 -11 -4 -18 2 -18 6 0 14 21 17 48 9 67 28 151 62 270 19 63 26 102 19 102 -6 0 -27 -55 -46 -123z"/>
 <path d="M930 1988 c0 -6 7 -38 17 -71 16 -59 16 -59 -7 -77 -19 -14 -21 -20 -11 -38 6 -11 24 -30 41 -42 34 -24 54 -18 89 27 l22 26 -26 27 c-24 25 -25 30 -16 71 20 86 19 89 -49 89 -40 0 -60 -4 -60 -12z"/>
 <path d="M1201 1869 c21 -72 43 -165 49 -207 6 -41 12 -78 15 -80 2 -3 12 5 22 17 20 24 209 91 343 122 117 27 163 53 193 109 32 58 57 170 39 170 -4 0 -13 -26 -20 -57 -7 -32 -21 -78 -32 -102 -18 -39 -22 -42 -38 -30 -15 13 -16 12 -3 -3 12 -16 9 -20 -30 -38 -24 -11 -54 -20 -65 -20 -29 0 -215 -56 -285 -86 -76 -31 -80 -30 -39 7 35 30 34 30 -10 -2 -25 -19 -49 -39 -53 -46 -16 -25 -27 -2 -27 54 0 66 -69 323 -86 323 -8 0 2 -48 27 -131z"/>
 <path d="M1406 1978 c3 -13 15 -45 25 -72 10 -28 18 -51 16 -51 -1 -1 -11 -7 -22 -13 -11 -6 -15 -12 -9 -12 5 0 19 6 29 14 18 13 18 15 -5 85 -12 39 -27 71 -32 71 -5 0 -6 -10 -2 -22z"/>
 <path d="M1691 1960 c-1 -17 35 -100 43 -100 3 0 -3 19 -13 43 -10 23 -21 49 -24 57 -5 13 -5 13 -6 0z"/>
 <path d="M608 1821 c11 -6 6 -14 -17 -30 -38 -27 -39 -41 -3 -72 l27 -24 -22 25 -21 25 28 34 c29 33 31 51 7 51 -8 0 -8 -3 1 -9z"/>
 <path d="M1376 1822 c-3 -5 8 -24 24 -43 l28 -34 -21 -25 -22 -25 28 24 c35 31 34 45 -4 72 -23 16 -28 24 -17 30 9 6 9 9 1 9 -6 0 -14 -4 -17 -8z"/>
 <path d="M876 1375 c-15 -15 -12 -38 7 -63 13 -16 81 -52 99 -52 7 0 -6 9 -30 20 -24 11 -41 24 -37 30 10 15 138 12 160 -4 17 -12 18 -16 5 -32 -14 -17 -14 -17 11 0 35 22 54 95 30 110 -5 4 -7 -3 -4 -14 5 -18 1 -20 -38 -19 -45 0 -98 16 -69 20 17 2 -63 17 -97 18 -12 1 -28 -6 -37 -14z m105 -15 c24 -11 64 -20 87 -20 31 0 42 -4 39 -12 -2 -7 -11 -11 -18 -8 -8 2 -57 5 -109 6 -95 2 -109 7 -96 39 8 21 46 19 97 -5z"/>
 <path d="M660 1032 c-16 -17 -30 -41 -30 -54 0 -20 3 -18 18 12 20 40 53 60 102 60 57 0 107 -19 141 -53 23 -22 29 -25 21 -10 -24 45 -72 68 -149 72 -69 3 -74 2 -103 -27z"/>
 <path d="M1155 1041 c-39 -17 -75 -64 -62 -78 4 -3 7 1 7 9 0 9 14 28 31 42 25 22 41 26 92 27 44 0 56 3 42 9 -32 14 -67 11 -110 -9z"/>
 <path d="M1361 952 c16 -46 3 -96 -34 -139 -32 -36 -32 -36 -4 -18 15 10 35 31 43 46 18 36 18 100 -1 125 -13 17 -14 16 -4 -14z"/>
 <path d="M631 905 c-1 -25 41 -116 61 -133 8 -6 36 -18 62 -26 43 -13 49 -12 88 8 43 21 88 76 88 105 -1 9 -7 2 -14 -14 -7 -17 -28 -43 -45 -58 -84 -71 -188 -27 -227 96 -7 23 -13 33 -13 22z"/>
 <path d="M1090 872 c0 -29 52 -102 74 -102 6 0 -2 12 -18 26 -15 15 -34 41 -42 58 -7 17 -13 25 -14 18z"/>
 <path d="M476 803 c-4 -9 -2 -21 4 -27 7 -7 10 -2 10 17 0 31 -5 34 -14 10z"/>
 <path d="M1511 791 c-1 -27 2 -32 11 -23 8 8 8 17 0 34 -10 22 -11 21 -11 -11z"/>
 <path d="M477 653 c-3 -5 -1 -17 4 -28 7 -17 8 -17 8 8 1 27 -4 34 -12 20z"/>
 <path d="M480 599 c0 -2 6 -26 14 -54 18 -67 53 -139 78 -162 17 -14 15 -9 -6 24 -15 23 -38 73 -50 112 -19 59 -36 98 -36 80z"/>
 <path d="M1494 544 c-3 -10 -19 -48 -35 -83 -33 -72 -32 -95 1 -30 28 54 52 121 45 127 -2 3 -7 -4 -11 -14z"/>
 </g>
<g id="layer124" fill="#381104" stroke="none">
 <path d="M137 1986 c-4 -10 -2 -26 3 -37 6 -11 8 -24 5 -29 -3 -5 0 -12 6 -15 5 -4 8 -13 5 -21 -3 -8 -1 -14 5 -14 6 0 7 -4 4 -10 -3 -5 -1 -10 5 -10 6 0 8 -4 5 -10 -3 -5 -1 -10 5 -10 6 0 9 -3 7 -7 -3 -5 1 -14 9 -21 19 -18 18 -8 -7 40 -11 22 -26 68 -33 101 -8 41 -15 55 -19 43z"/>
 <path d="M580 1976 c-15 -41 -10 -56 6 -17 8 18 13 36 10 39 -3 2 -10 -7 -16 -22z"/>
 <path d="M810 1958 c-6 -24 -23 -79 -36 -123 -14 -44 -27 -111 -29 -150 l-4 -70 9 64 c8 59 58 244 80 299 6 13 6 22 0 22 -5 0 -14 -19 -20 -42z"/>
 <path d="M930 1988 c0 -6 7 -38 17 -71 16 -59 16 -59 -7 -77 -19 -14 -21 -20 -11 -38 6 -11 24 -30 41 -42 34 -24 54 -18 89 27 l22 26 -26 27 c-24 25 -25 30 -16 71 20 86 19 89 -49 89 -40 0 -60 -4 -60 -12z"/>
 <path d="M1170 1978 c22 -55 72 -240 80 -299 l9 -64 -4 70 c-2 39 -15 106 -29 150 -13 44 -30 99 -36 123 -6 23 -15 42 -20 42 -6 0 -6 -9 0 -22z"/>
 <path d="M1405 1980 c12 -41 27 -60 20 -25 -4 17 -11 35 -17 40 -7 7 -8 2 -3 -15z"/>
 <path d="M1850 1976 c0 -22 3 -27 11 -19 8 8 8 16 0 30 -9 16 -10 14 -11 -11z"/>
 <path d="M1840 1925 c0 -11 -11 -44 -25 -73 -29 -62 -30 -67 -11 -50 8 7 12 16 9 21 -2 4 1 7 7 7 6 0 8 5 5 10 -3 6 -1 10 5 10 6 0 8 5 5 10 -3 6 -1 10 5 10 6 0 8 5 5 10 -4 6 -2 16 4 23 6 8 6 18 1 27 -8 12 -10 11 -10 -5z"/>
 <path d="M246 1765 c6 -15 82 -41 92 -31 3 3 10 2 16 -4 7 -5 18 -5 26 0 9 6 -2 11 -36 15 -27 4 -61 14 -76 21 -24 12 -27 12 -22 -1z"/>
 <path d="M1730 1766 c-14 -7 -47 -17 -74 -21 -34 -4 -45 -9 -36 -15 8 -5 19 -5 26 0 6 6 13 7 16 4 10 -10 86 16 92 31 6 18 8 18 -24 1z"/>
 <path d="M1526 1711 c-11 -4 -15 -10 -10 -13 5 -2 20 1 34 8 26 14 8 18 -24 5z"/>
 <path d="M535 1681 c3 -5 41 -21 85 -36 48 -16 86 -35 95 -48 8 -11 17 -18 20 -16 3 3 -11 23 -31 45 -19 21 -33 33 -29 27 9 -19 -8 -16 -71 12 -60 27 -79 31 -69 16z"/>
 <path d="M1390 1664 c-63 -27 -74 -29 -65 -11 4 6 -10 -6 -29 -27 -20 -22 -34 -42 -31 -45 3 -2 12 5 20 16 9 13 47 32 95 48 44 15 82 31 85 36 9 14 -15 9 -75 -17z"/>
 <path d="M876 1375 c-15 -15 -12 -38 7 -63 13 -16 81 -52 99 -52 7 0 -6 9 -30 20 -24 11 -41 24 -37 30 10 15 138 12 160 -4 17 -12 18 -16 5 -32 -14 -17 -14 -17 11 0 28 18 39 44 38 86 -1 17 -3 19 -6 8 -3 -13 -15 -18 -41 -18 -48 0 -83 10 -76 21 3 5 -7 9 -23 9 l-27 0 24 -17 c13 -9 48 -19 77 -21 34 -3 52 -9 50 -16 -3 -6 -11 -9 -18 -6 -8 3 -57 5 -109 6 -94 0 -95 1 -95 25 0 20 6 25 35 30 l35 6 -32 2 c-17 0 -38 -6 -47 -14z"/>
 <path d="M660 1032 c-16 -17 -30 -41 -30 -54 0 -20 3 -18 18 12 20 40 53 60 102 60 57 0 107 -19 141 -53 23 -22 29 -25 21 -10 -24 45 -72 68 -149 72 -69 3 -74 2 -103 -27z"/>
 <path d="M1155 1041 c-39 -17 -75 -64 -62 -78 4 -3 7 1 7 9 0 9 14 28 31 42 25 22 41 26 92 27 44 0 56 3 42 9 -32 14 -67 11 -110 -9z"/>
 <path d="M1361 952 c16 -46 3 -96 -34 -139 -32 -36 -32 -36 -4 -18 15 10 35 31 43 46 18 36 18 100 -1 125 -13 17 -14 16 -4 -14z"/>
 <path d="M631 905 c-1 -25 41 -116 61 -133 8 -6 36 -18 62 -26 43 -13 49 -12 88 8 43 21 88 76 88 105 -1 9 -7 2 -14 -14 -7 -17 -28 -43 -45 -58 -84 -71 -188 -27 -227 96 -7 23 -13 33 -13 22z"/>
 <path d="M1090 872 c0 -29 52 -102 74 -102 6 0 -2 12 -18 26 -15 15 -34 41 -42 58 -7 17 -13 25 -14 18z"/>
 </g>
<g id="layer125" fill="#0b0a0a" stroke="none">
 <path d="M930 1988 c0 -6 7 -38 17 -71 16 -59 16 -59 -7 -77 -19 -14 -21 -20 -11 -38 6 -11 24 -30 41 -42 34 -24 54 -18 89 27 l22 26 -26 27 c-24 25 -25 30 -16 71 20 86 19 89 -49 89 -40 0 -60 -4 -60 -12z"/>
 <path d="M876 1375 c-15 -15 -12 -38 7 -63 13 -16 81 -52 99 -52 7 0 -6 9 -30 20 -24 11 -41 24 -37 30 3 5 -1 10 -9 10 -8 0 -20 9 -26 19 -8 16 -6 23 12 35 12 9 17 16 11 16 -6 0 -18 -7 -27 -15z"/>
 <path d="M983 1364 c16 -9 31 -13 35 -10 3 3 0 6 -7 6 -7 0 -9 5 -6 10 4 6 -6 10 -22 10 l-28 -1 28 -15z"/>
 <path d="M1075 1349 l-50 -6 43 -1 c30 -2 42 -6 39 -14 -2 -7 -15 -12 -28 -10 -23 2 -23 2 -4 -12 17 -12 18 -16 5 -32 -14 -17 -14 -17 12 0 22 14 49 73 36 79 -1 1 -25 0 -53 -4z"/>
 <path d="M958 1323 c17 -2 47 -2 65 0 17 2 3 4 -33 4 -36 0 -50 -2 -32 -4z"/>
 <path d="M660 1032 c-16 -17 -30 -41 -30 -54 0 -20 3 -18 18 12 20 40 53 60 102 60 57 0 107 -19 141 -53 23 -22 29 -25 21 -10 -24 45 -72 68 -149 72 -69 3 -74 2 -103 -27z"/>
 <path d="M1155 1041 c-39 -17 -75 -64 -62 -78 4 -3 7 1 7 9 0 9 14 28 31 42 25 22 41 26 92 27 44 0 56 3 42 9 -32 14 -67 11 -110 -9z"/>
 <path d="M1361 952 c16 -46 3 -96 -34 -139 -32 -36 -32 -36 -4 -18 15 10 35 31 43 46 18 36 18 100 -1 125 -13 17 -14 16 -4 -14z"/>
 <path d="M631 905 c-1 -25 41 -116 61 -133 8 -6 36 -18 62 -26 43 -13 49 -12 88 8 43 21 88 76 88 105 -1 9 -7 2 -14 -14 -7 -17 -28 -43 -45 -58 -84 -71 -188 -27 -227 96 -7 23 -13 33 -13 22z"/>
 <path d="M1090 872 c0 -29 52 -102 74 -102 6 0 -2 12 -18 26 -15 15 -34 41 -42 58 -7 17 -13 25 -14 18z"/>
 </g>

</svg>