<!DOCTYPE svg PUBLIC "-//W3C//DTD SVG 20010904//EN" "http://www.w3.org/TR/2001/REC-SVG-20010904/DTD/svg10.dtd">
<svg version="1.0" xmlns="http://www.w3.org/2000/svg" width="200px" height="200px" viewBox="0 0 2000 2000" preserveAspectRatio="xMidYMid meet">
<g id="layer101" fill="#0c0a0a" stroke="none">
 <path d="M133 1950 c3 -27 18 -74 33 -105 31 -63 80 -98 153 -109 65 -10 372 -114 393 -133 20 -18 58 -96 58 -118 0 -8 -19 -28 -42 -46 -82 -62 -101 -91 -128 -196 -7 -28 -15 -40 -24 -37 -26 10 -73 -43 -86 -96 -6 -27 -26 -70 -43 -96 -53 -80 -47 -194 11 -194 12 0 13 -9 8 -48 -7 -57 9 -194 30 -254 25 -71 73 -141 127 -183 126 -99 151 -115 227 -139 203 -66 389 -7 576 183 70 70 121 247 110 378 -5 57 -4 61 18 67 55 14 55 102 1 187 -19 28 -39 73 -45 99 -16 65 -45 96 -86 91 -6 -1 -14 21 -18 48 -8 61 -54 133 -116 179 -27 21 -47 45 -50 61 -6 26 17 78 50 112 18 20 250 101 366 128 44 10 99 30 120 44 50 31 94 116 94 181 l0 46 -871 0 -872 0 6 -50z"/>
 </g>
<g id="layer102" fill="#350d04" stroke="none">
 <path d="M133 1955 c2 -25 18 -74 35 -108 36 -73 72 -95 192 -121 88 -19 319 -97 348 -117 19 -14 62 -100 62 -124 0 -8 -19 -28 -42 -46 -82 -62 -101 -91 -128 -196 -7 -28 -15 -40 -24 -37 -26 10 -73 -43 -86 -96 -6 -27 -26 -70 -43 -96 -53 -80 -47 -194 11 -194 11 0 13 -10 8 -52 -9 -76 16 -227 50 -296 52 -107 207 -235 334 -276 203 -66 389 -7 576 183 70 70 121 247 110 378 -5 57 -4 61 18 67 55 14 55 102 1 187 -19 28 -39 73 -45 99 -16 65 -45 96 -86 91 -6 -1 -14 21 -18 48 -8 61 -54 133 -116 179 -56 43 -64 72 -32 129 12 22 28 46 35 51 20 16 301 110 369 123 71 13 136 47 157 81 35 55 51 100 51 143 l0 45 -409 0 -409 0 -11 -62 c-11 -61 -10 -63 17 -91 l27 -28 -37 -35 c-21 -19 -41 -34 -45 -34 -10 1 -33 19 -62 52 l-23 27 26 23 c27 23 27 23 11 67 -8 24 -15 52 -15 62 0 18 -16 19 -406 19 l-407 0 6 -45z m664 -1061 c-9 -9 -28 6 -21 18 4 6 10 6 17 -1 6 -6 8 -13 4 -17z m434 3 c-13 -13 -26 -3 -16 12 3 6 11 8 17 5 6 -4 6 -10 -1 -17z m96 -35 c-21 -21 -121 -23 -152 -4 -18 11 -16 12 13 6 79 -15 142 -7 142 19 0 6 3 7 7 3 4 -3 -1 -14 -10 -24z m-572 -5 c22 2 51 5 65 8 23 5 24 4 5 -7 -28 -17 -131 -17 -147 1 -11 11 -9 12 12 5 14 -5 43 -8 65 -7z"/>
 </g>
<g id="layer103" fill="#491b0c" stroke="none">
 <path d="M144 1983 c2 -10 8 -34 11 -53 14 -67 53 -128 95 -150 21 -11 50 -20 62 -20 28 0 133 -31 258 -78 52 -20 102 -36 111 -37 24 -2 42 -24 62 -80 33 -89 33 -89 -15 -125 -82 -63 -100 -91 -128 -197 -7 -28 -15 -40 -24 -37 -26 10 -73 -43 -86 -96 -6 -27 -26 -70 -43 -96 -39 -59 -49 -144 -22 -174 10 -11 24 -20 31 -20 18 0 22 -21 11 -53 -6 -19 -5 -54 4 -110 8 -45 13 -88 13 -94 -1 -7 2 -13 7 -13 5 0 9 -11 9 -24 0 -13 3 -26 8 -28 4 -1 18 -25 32 -52 49 -99 189 -211 310 -250 171 -56 352 -17 492 106 21 18 49 42 63 53 14 11 32 35 40 53 8 17 19 32 25 32 6 0 8 5 5 10 -3 6 -1 10 5 10 6 0 9 4 6 8 -2 4 4 34 14 66 11 32 21 73 23 92 2 19 7 37 10 41 11 10 8 111 -3 118 -15 9 -1 33 24 39 55 14 55 102 1 187 -19 28 -39 73 -45 99 -16 65 -45 96 -86 91 -6 -1 -14 21 -18 48 -8 61 -54 133 -116 179 -56 42 -64 73 -33 126 12 22 20 44 17 48 -7 11 21 38 40 38 8 0 40 11 71 24 71 32 276 96 306 96 13 0 42 10 64 23 45 25 90 102 101 175 l7 42 -221 0 -222 0 11 -26 c14 -38 4 -41 -11 -4 l-12 30 -109 0 -109 0 6 -27 c4 -16 20 -70 35 -121 16 -51 31 -123 34 -160 l5 -67 -14 75 c-7 41 -25 111 -39 155 -13 44 -28 95 -32 113 l-7 32 -63 0 -63 0 -11 -62 c-11 -61 -10 -63 17 -91 l27 -28 -37 -35 c-21 -19 -41 -34 -45 -34 -10 1 -33 19 -62 52 l-23 27 26 23 c27 23 27 23 11 67 -8 24 -15 52 -15 62 0 16 -8 19 -44 19 -55 0 -76 -8 -76 -28 0 -8 -14 -57 -30 -109 -17 -52 -34 -118 -39 -146 l-9 -52 -1 41 c0 22 15 90 34 150 19 60 35 117 35 127 0 15 -12 17 -109 17 -78 0 -111 -4 -114 -12 -4 -10 -6 -10 -6 0 -1 9 -52 12 -222 12 -205 0 -220 -1 -215 -17z m654 -1080 c-4 -22 -22 -20 -26 1 -2 10 3 16 13 16 10 0 15 -7 13 -17z m437 -1 c0 -18 -20 -15 -23 4 -3 10 1 15 10 12 7 -3 13 -10 13 -16z m92 -40 c-21 -21 -121 -23 -152 -3 -18 11 -16 12 15 6 67 -12 84 -13 112 -3 15 6 28 15 28 21 0 6 3 7 7 3 4 -3 -1 -14 -10 -24z m-572 -5 c22 2 51 5 65 8 23 5 24 4 5 -7 -28 -17 -131 -17 -147 1 -11 11 -9 12 12 5 14 -5 43 -8 65 -7z"/>
 </g>
<g id="layer104" fill="#322d2a" stroke="none">
 <path d="M153 1956 c4 -24 19 -69 34 -100 23 -47 34 -58 74 -76 26 -11 56 -20 67 -20 29 0 213 -56 278 -85 67 -30 81 -31 63 -7 -7 9 3 2 22 -16 l36 -33 7 71 c3 39 22 123 41 186 19 63 35 117 35 120 0 3 -48 3 -107 2 l-106 -3 -24 -63 c-13 -35 -20 -69 -17 -75 5 -8 2 -8 -7 1 -11 10 -10 23 8 77 l21 65 -215 0 -216 0 6 -44z m127 -56 c-11 -22 -23 -40 -25 -40 -3 0 4 18 15 40 11 22 23 40 25 40 3 0 -4 -18 -15 -40z m319 -108 c-19 -21 -36 -33 -38 -28 -3 8 55 66 67 66 3 0 -11 -17 -29 -38z"/>
 <path d="M833 1993 c-7 -2 -13 -13 -13 -24 0 -10 -13 -60 -29 -111 -16 -51 -37 -133 -45 -183 -14 -85 -14 -91 4 -133 11 -25 20 -50 20 -57 0 -8 -19 -28 -42 -46 -82 -62 -101 -91 -128 -196 -7 -28 -15 -40 -24 -37 -26 10 -73 -43 -86 -96 -6 -27 -26 -70 -43 -96 -39 -59 -49 -144 -22 -174 10 -11 24 -20 32 -20 7 0 13 -6 13 -12 0 -10 2 -10 8 -2 4 7 7 -38 7 -100 0 -97 4 -121 28 -188 37 -98 76 -153 161 -223 80 -65 98 -75 188 -104 127 -40 277 -21 400 52 67 39 170 146 200 207 34 68 58 160 58 218 0 26 4 41 10 37 6 -3 10 3 10 15 0 12 -4 18 -10 15 -6 -4 -10 10 -10 35 0 36 3 42 29 51 60 21 62 101 6 190 -19 28 -39 73 -45 99 -16 65 -45 96 -86 91 -6 -1 -14 21 -18 48 -8 61 -54 133 -116 179 -56 42 -64 73 -33 126 12 22 20 43 17 47 -2 4 -9 34 -14 66 -6 32 -27 120 -47 195 l-38 138 -61 0 -62 0 -11 -62 c-11 -61 -10 -63 17 -91 l27 -28 -37 -35 c-21 -19 -41 -34 -45 -34 -10 1 -33 19 -62 52 l-23 27 26 23 c27 23 27 23 11 67 -8 24 -15 52 -15 62 0 16 -7 19 -47 18 -27 0 -54 -3 -60 -6z m-30 -1080 c9 -9 -13 -34 -24 -27 -14 8 -11 34 4 34 8 0 17 -3 20 -7z m437 -7 c0 -20 -19 -31 -32 -18 -6 6 -7 15 -4 21 10 16 36 13 36 -3z m87 -44 c-21 -21 -121 -23 -152 -4 -21 14 -22 14 74 -2 30 -5 81 12 81 27 0 6 3 7 7 3 4 -3 -1 -14 -10 -24z m-572 -5 c22 2 51 5 65 8 23 5 24 4 5 -7 -28 -17 -131 -17 -147 1 -11 11 -9 12 12 5 14 -5 43 -8 65 -7z"/>
 <path d="M1200 1987 c0 -6 14 -59 30 -117 17 -58 33 -132 36 -165 8 -87 11 -92 35 -61 11 14 30 31 42 37 21 10 21 10 3 -5 -34 -27 -11 -28 49 -2 65 29 249 86 277 86 11 0 42 10 69 21 41 18 55 31 73 68 13 25 27 62 31 81 3 19 9 43 11 53 5 16 -10 17 -210 17 -136 0 -216 -4 -216 -10 0 -5 9 -33 20 -62 18 -48 19 -54 3 -68 -8 -8 -13 -9 -9 -3 4 7 -3 42 -15 78 l-23 65 -103 0 c-76 0 -103 -3 -103 -13z m561 -132 c7 -13 3 -12 -10 5 -11 14 -21 30 -21 35 0 11 14 -7 31 -40z m-359 -22 c-10 -4 -4 -15 19 -39 18 -19 28 -34 23 -34 -6 0 -25 15 -43 34 -31 32 -30 44 4 44 6 0 4 -2 -3 -5z"/>
 <path d="M463 725 c0 -22 2 -30 4 -17 2 12 2 30 0 40 -3 9 -5 -1 -4 -23z"/>
 </g>
<g id="layer105" fill="#572917" stroke="none">
 <path d="M153 1956 c4 -24 19 -69 34 -100 23 -47 34 -58 74 -76 26 -11 56 -20 67 -20 29 0 213 -56 278 -85 67 -30 81 -31 63 -7 -7 9 3 2 22 -16 l36 -33 7 71 c3 39 22 123 41 186 19 63 35 117 35 120 0 3 -48 3 -107 2 l-106 -3 -24 -63 c-13 -35 -20 -69 -17 -75 5 -8 2 -8 -7 1 -11 10 -10 23 8 77 l21 65 -215 0 -216 0 6 -44z m127 -56 c-11 -22 -23 -40 -25 -40 -3 0 4 18 15 40 11 22 23 40 25 40 3 0 -4 -18 -15 -40z m319 -108 c-19 -21 -36 -33 -38 -28 -3 8 55 66 67 66 3 0 -11 -17 -29 -38z"/>
 <path d="M833 1993 c-7 -2 -13 -13 -13 -24 0 -10 -13 -60 -29 -111 -16 -51 -37 -133 -45 -183 -14 -85 -14 -91 4 -133 11 -25 20 -50 20 -57 0 -8 -19 -28 -42 -46 -82 -62 -101 -91 -128 -196 -7 -28 -15 -40 -24 -37 -26 10 -73 -43 -86 -96 -6 -27 -26 -70 -43 -96 -39 -59 -49 -144 -22 -174 10 -11 24 -20 32 -20 7 0 13 -6 13 -12 0 -10 2 -10 8 -2 4 7 7 -38 7 -100 0 -97 4 -121 28 -188 37 -98 76 -153 161 -223 80 -65 98 -75 188 -104 127 -40 277 -21 400 52 67 39 170 146 200 207 33 67 58 160 58 217 0 24 5 43 10 43 6 0 10 7 10 16 0 8 -4 12 -10 9 -6 -4 -10 10 -10 35 0 36 3 42 29 51 60 21 62 101 6 190 -19 28 -39 73 -45 99 -16 65 -45 96 -86 91 -6 -1 -14 21 -18 48 -8 61 -54 133 -116 179 -54 41 -64 73 -36 120 17 30 18 40 8 105 -7 40 -28 134 -49 209 l-38 138 -61 0 -60 0 -12 -62 c-12 -62 -12 -63 13 -83 14 -12 25 -26 25 -32 0 -10 -65 -73 -76 -73 -15 0 -45 24 -65 51 l-22 32 22 16 c21 16 21 19 9 84 l-13 67 -45 -1 c-25 0 -51 -3 -57 -6z m-30 -1080 c9 -9 -13 -34 -24 -27 -14 8 -11 34 4 34 8 0 17 -3 20 -7z m437 -7 c0 -20 -19 -31 -32 -18 -6 6 -7 15 -4 21 10 16 36 13 36 -3z m-371 -23 c-21 -24 -73 -43 -121 -43 -44 0 -88 21 -88 42 0 6 9 3 20 -7 12 -11 34 -17 59 -17 47 1 118 19 126 32 3 6 9 10 12 10 3 0 -1 -7 -8 -17z m365 -20 c55 -5 69 -3 86 12 11 10 20 13 20 7 0 -21 -44 -42 -88 -42 -49 0 -100 19 -122 45 -14 18 -14 18 11 1 14 -9 56 -19 93 -23z"/>
 <path d="M1200 1987 c0 -6 14 -59 30 -117 17 -58 33 -132 36 -165 8 -87 11 -92 35 -61 11 14 30 31 42 37 21 10 21 10 3 -5 -34 -27 -11 -28 49 -2 65 29 249 86 277 86 11 0 42 10 69 21 41 18 55 31 73 68 13 25 27 62 31 81 3 19 9 43 11 53 5 16 -10 17 -210 17 -136 0 -216 -4 -216 -10 0 -5 9 -33 20 -62 18 -48 19 -54 3 -68 -8 -8 -13 -9 -9 -3 4 7 -3 42 -15 78 l-23 65 -103 0 c-76 0 -103 -3 -103 -13z m561 -132 c7 -13 3 -12 -10 5 -11 14 -21 30 -21 35 0 11 14 -7 31 -40z m-359 -22 c-10 -4 -4 -15 19 -39 18 -19 28 -34 23 -34 -6 0 -25 15 -43 34 -31 32 -30 44 4 44 6 0 4 -2 -3 -5z"/>
 <path d="M463 725 c0 -22 2 -30 4 -17 2 12 2 30 0 40 -3 9 -5 -1 -4 -23z"/>
 </g>
<g id="layer106" fill="#653220" stroke="none">
 <path d="M150 1983 c0 -46 48 -165 64 -160 13 4 72 114 80 150 l6 27 -75 0 c-65 0 -75 -2 -75 -17z"/>
 <path d="M317 1993 c-2 -5 -7 -21 -11 -38 -8 -34 -48 -106 -73 -131 -16 -15 -16 -17 3 -31 10 -7 30 -16 44 -19 101 -22 233 -59 298 -84 42 -16 77 -28 79 -26 1 1 -18 18 -43 37 -67 49 -72 64 -34 96 l32 26 -33 14 c-45 19 -49 29 -32 82 8 25 17 54 20 64 5 16 -5 17 -120 17 -69 0 -128 -3 -130 -7z"/>
 <path d="M590 1968 c-6 -18 -18 -47 -25 -64 -14 -33 -5 -54 23 -54 7 0 23 -5 34 -11 19 -10 19 -12 -17 -49 l-36 -37 53 -38 c29 -21 65 -49 79 -62 l26 -24 6 83 c5 73 15 116 57 244 5 17 10 33 10 37 0 4 -44 7 -99 7 l-99 0 -12 -32z"/>
 <path d="M832 1988 c-7 -7 -12 -17 -12 -24 0 -6 -14 -56 -30 -110 -17 -55 -35 -128 -40 -164 -5 -36 -12 -74 -14 -86 -2 -11 4 -40 15 -63 10 -24 19 -49 19 -56 0 -7 -19 -28 -42 -46 -82 -62 -101 -91 -128 -196 -7 -28 -15 -40 -24 -37 -26 10 -73 -43 -86 -96 -6 -27 -26 -70 -43 -96 -39 -59 -49 -144 -22 -174 10 -11 24 -20 32 -20 7 0 13 -6 14 -12 0 -7 4 -4 8 7 5 12 9 -25 9 -90 1 -64 8 -135 17 -170 19 -74 86 -191 106 -187 8 2 11 1 7 -3 -10 -10 29 -51 94 -100 121 -91 295 -119 437 -71 95 32 145 63 214 132 107 107 157 234 157 400 l0 92 28 5 c61 12 64 99 7 188 -19 28 -39 73 -45 99 -16 65 -45 96 -86 91 -6 -1 -14 21 -18 48 -8 61 -54 133 -116 179 -53 41 -64 73 -37 119 17 29 17 39 7 110 -7 43 -27 130 -46 194 -19 64 -34 123 -34 133 0 13 -11 16 -63 16 l-63 0 -12 -62 c-12 -62 -12 -63 13 -83 14 -12 25 -26 25 -32 0 -10 -65 -73 -76 -73 -15 0 -45 24 -65 51 l-22 32 22 16 c21 16 21 19 9 84 l-13 67 -45 0 c-25 0 -51 -5 -58 -12z m-24 -1085 c5 -17 -26 -29 -40 -15 -6 6 -7 15 -3 22 9 14 37 9 43 -7z m432 3 c0 -20 -19 -31 -32 -18 -6 6 -7 15 -4 21 10 16 36 13 36 -3z m-371 -23 c-21 -24 -73 -43 -121 -43 -44 0 -88 21 -88 42 0 7 7 5 18 -4 21 -18 60 -29 67 -18 2 4 23 7 45 7 22 0 50 7 62 16 30 21 34 21 17 0z m309 -10 c103 -16 123 -15 142 2 11 10 20 13 20 7 0 -21 -44 -42 -88 -42 -50 0 -101 19 -122 46 -14 18 -14 18 3 5 9 -8 30 -16 45 -18z"/>
 <path d="M1200 1996 c0 -2 16 -55 35 -116 25 -79 35 -130 35 -175 0 -35 5 -67 10 -70 6 -3 10 -2 10 4 0 6 26 28 58 50 89 60 93 67 54 102 -18 16 -32 33 -32 38 0 6 18 15 40 21 22 6 40 12 40 13 0 1 -11 31 -23 67 l-24 65 -101 3 c-56 1 -102 1 -102 -2z"/>
 <path d="M1453 1936 c23 -73 18 -90 -35 -101 l-31 -7 32 -25 c17 -13 31 -30 31 -37 0 -15 -56 -69 -88 -86 -49 -25 -12 -19 59 9 41 16 124 42 184 56 167 41 184 50 212 113 13 30 26 74 30 98 l6 44 -76 0 -76 0 15 -42 c8 -24 28 -68 45 -98 l30 -55 -28 34 c-16 18 -40 61 -55 95 l-26 61 -125 3 -125 3 21 -65z"/>
 </g>
<g id="layer107" fill="#583b2e" stroke="none">
 <path d="M832 1988 c-7 -7 -12 -17 -12 -24 0 -6 -14 -56 -30 -110 -17 -55 -35 -128 -40 -164 -5 -36 -12 -74 -14 -86 -2 -11 4 -40 15 -63 10 -24 19 -49 19 -56 0 -7 -19 -28 -42 -46 -82 -62 -101 -91 -127 -194 -8 -31 -16 -41 -32 -42 -34 -3 -67 -41 -79 -93 -6 -27 -26 -70 -43 -97 -35 -55 -49 -142 -26 -169 18 -21 52 -34 60 -22 4 6 7 -39 7 -99 1 -64 8 -133 17 -168 17 -64 73 -173 102 -196 14 -12 16 -12 8 0 -5 10 -4 12 3 7 7 -4 12 -13 12 -21 0 -15 76 -80 130 -112 19 -11 65 -30 102 -42 169 -53 362 -3 496 130 112 112 162 236 162 406 0 86 1 92 21 95 12 2 31 14 41 28 26 35 16 94 -27 161 -19 28 -39 73 -45 99 -16 65 -45 96 -87 91 -6 -1 -14 20 -18 48 -8 61 -55 134 -115 179 -53 41 -64 73 -37 119 17 29 17 39 7 110 -7 43 -27 130 -46 194 -19 64 -34 123 -34 133 0 13 -11 16 -63 16 l-63 0 -12 -62 c-12 -62 -12 -63 13 -83 14 -12 25 -26 25 -32 0 -10 -65 -73 -76 -73 -15 0 -45 24 -65 51 l-22 32 22 16 c21 16 21 19 9 84 l-13 67 -45 0 c-25 0 -51 -5 -58 -12z m-27 -1088 c0 -9 -9 -15 -22 -14 -26 1 -31 -11 -9 -19 18 -7 72 7 94 25 16 12 16 11 2 -6 -21 -27 -72 -46 -122 -46 -44 0 -88 21 -88 42 0 6 8 4 18 -5 9 -8 28 -17 42 -19 22 -3 25 0 22 25 -2 17 1 26 7 23 5 -4 13 -2 16 4 10 16 40 8 40 -10z m435 6 c0 -8 -4 -18 -10 -21 -22 -14 -8 -25 32 -25 24 0 49 7 60 17 10 9 18 11 18 5 0 -21 -44 -42 -88 -42 -50 0 -101 19 -122 45 -14 18 -14 18 10 2 29 -20 40 -21 40 -6 0 14 30 38 48 39 6 0 12 -6 12 -14z"/>
 <path d="M1823 1928 c-12 -40 -24 -82 -27 -93 -4 -11 4 3 18 30 21 45 44 135 34 135 -2 0 -14 -33 -25 -72z"/>
 <path d="M165 1942 c6 -44 42 -128 52 -119 2 3 -1 16 -8 29 -7 12 -21 48 -31 78 l-19 55 6 -43z"/>
 <path d="M230 1811 c0 -16 55 -41 87 -40 24 0 22 2 -15 14 -23 7 -49 19 -57 25 -10 8 -15 9 -15 1z"/>
 <path d="M1754 1810 c-5 -5 -27 -16 -49 -24 -32 -12 -35 -15 -15 -15 30 0 97 34 83 42 -5 3 -14 2 -19 -3z"/>
 </g>
<g id="layer108" fill="#3f4244" stroke="none">
 <path d="M835 1991 c-16 -28 -76 -246 -86 -315 -6 -44 -12 -83 -14 -86 -2 -3 5 -25 16 -49 10 -24 19 -49 19 -56 0 -7 -19 -28 -42 -46 -82 -62 -101 -91 -127 -194 -8 -31 -16 -41 -32 -42 -34 -3 -67 -41 -79 -93 -6 -27 -26 -70 -43 -97 -35 -55 -49 -142 -26 -169 23 -28 53 -34 64 -13 7 12 10 -21 10 -114 0 -113 4 -141 24 -197 22 -64 73 -145 83 -135 3 3 13 -10 22 -28 28 -61 129 -131 238 -166 120 -38 246 -25 373 38 56 29 135 92 135 110 0 5 17 26 37 47 72 77 113 216 107 364 -3 75 -3 76 23 75 16 0 33 10 45 25 26 35 16 94 -27 161 -19 28 -39 73 -45 99 -16 65 -45 96 -87 91 -6 -1 -14 20 -18 48 -8 61 -55 134 -115 179 -54 41 -64 73 -37 120 18 30 18 39 7 95 -6 34 -16 84 -21 111 -5 28 -23 94 -40 148 l-31 98 -57 0 -57 0 -12 -62 c-12 -62 -12 -63 13 -83 14 -12 25 -26 25 -32 0 -10 -65 -73 -76 -73 -15 0 -45 24 -65 51 l-22 32 22 16 c21 16 21 19 9 84 l-13 67 -47 0 c-26 0 -49 -4 -53 -9z m-155 -1087 c-17 -19 2 -41 40 -46 22 -3 25 0 22 25 -1 15 1 26 5 26 4 -1 16 1 26 6 21 9 43 -8 32 -25 -4 -6 -16 -10 -26 -7 -22 6 -26 -8 -5 -16 18 -7 72 7 94 25 16 12 16 11 2 -6 -22 -29 -73 -46 -133 -46 -47 0 -55 3 -67 25 -11 20 -11 27 0 40 7 8 15 15 17 15 3 0 0 -7 -7 -16z m560 2 c0 -8 -4 -18 -10 -21 -22 -14 -7 -25 34 -25 46 0 73 19 60 42 -5 10 -4 10 6 1 11 -11 11 -17 0 -38 -12 -22 -20 -25 -67 -25 -62 0 -110 17 -138 51 l-20 23 29 -22 c31 -24 46 -28 46 -12 0 17 24 39 43 40 9 0 17 -6 17 -14z m241 -197 l-11 -34 5 34 c3 18 6 45 6 60 l2 26 4 -26 c2 -15 -1 -42 -6 -60z m-23 -128 c-10 -67 -14 -77 -20 -55 -4 16 -3 33 4 41 5 7 8 22 5 33 -3 11 -1 23 4 26 5 3 9 15 9 26 0 12 2 19 6 16 3 -3 -1 -43 -8 -87z m-897 2 c6 -7 6 -13 1 -17 -11 -6 -22 28 -21 59 1 15 3 14 6 -5 3 -14 9 -30 14 -37z"/>
 <path d="M1823 1928 c-12 -40 -24 -82 -27 -93 -4 -11 4 3 18 30 21 45 44 135 34 135 -2 0 -14 -33 -25 -72z"/>
 <path d="M165 1942 c6 -44 42 -128 52 -119 2 3 -1 16 -8 29 -7 12 -21 48 -31 78 l-19 55 6 -43z"/>
 <path d="M230 1811 c0 -16 55 -41 87 -40 24 0 22 2 -15 14 -23 7 -49 19 -57 25 -10 8 -15 9 -15 1z"/>
 <path d="M1754 1810 c-5 -5 -27 -16 -49 -24 -32 -12 -35 -15 -15 -15 30 0 97 34 83 42 -5 3 -14 2 -19 -3z"/>
 </g>
<g id="layer109" fill="#5f4330" stroke="none">
 <path d="M836 1991 c-17 -28 -77 -245 -87 -315 -6 -44 -12 -83 -14 -86 -2 -3 5 -25 16 -49 10 -24 19 -49 19 -56 0 -7 -19 -28 -42 -46 -82 -62 -101 -91 -127 -194 -8 -31 -16 -41 -32 -42 -34 -3 -67 -41 -79 -93 -6 -27 -26 -70 -43 -97 -35 -55 -49 -142 -26 -169 23 -28 53 -34 64 -13 7 12 10 -21 10 -114 0 -113 4 -141 24 -197 22 -64 73 -145 83 -135 3 3 13 -10 22 -28 28 -61 129 -131 238 -166 120 -38 246 -25 373 38 56 29 135 92 135 110 0 5 17 26 37 47 72 77 113 216 107 364 -3 75 -3 76 23 75 16 0 33 10 45 25 26 35 16 94 -27 161 -19 28 -39 73 -45 99 -16 65 -45 96 -87 91 -6 -1 -14 20 -18 48 -8 61 -55 134 -115 179 -54 41 -64 73 -37 120 18 30 18 39 7 95 -6 34 -16 84 -21 111 -5 28 -23 94 -40 148 l-31 98 -57 0 -57 0 -11 -62 c-11 -61 -10 -64 13 -83 13 -12 24 -26 24 -32 0 -15 -61 -73 -77 -73 -19 0 -100 81 -87 86 42 17 45 26 31 94 l-13 65 -46 3 c-25 2 -49 -1 -52 -7z m92 -663 c-2 -6 -10 -14 -16 -16 -7 -2 -10 2 -6 12 7 18 28 22 22 4z m-238 -415 c-20 -26 -20 -28 -4 -40 10 -7 28 -13 41 -13 20 0 22 4 17 25 -3 14 -2 25 2 24 5 -1 17 1 27 6 21 9 43 -8 32 -25 -4 -6 -16 -10 -26 -7 -22 6 -26 -8 -5 -16 20 -8 74 9 100 30 l21 18 -20 -24 c-28 -34 -76 -51 -140 -51 -49 0 -57 3 -67 25 -10 22 -8 29 12 50 31 33 37 32 10 -2z m642 -48 c-10 -22 -17 -25 -67 -25 -64 0 -111 17 -140 51 l-20 23 32 -22 c35 -25 43 -27 43 -11 0 16 26 39 44 39 18 0 22 -25 6 -35 -5 -3 -10 -10 -10 -16 0 -14 74 -11 94 4 16 12 16 14 -5 42 l-22 30 28 -27 c25 -24 27 -30 17 -53z m149 -156 l-11 -34 5 34 c3 18 6 45 6 60 l2 26 4 -26 c2 -15 -1 -42 -6 -60z m-23 -128 c-10 -67 -14 -77 -20 -55 -4 16 -3 33 4 41 5 7 8 22 5 33 -3 11 -1 23 4 26 5 3 9 15 9 26 0 12 2 19 6 16 3 -3 -1 -43 -8 -87z m-897 2 c6 -7 6 -13 1 -17 -11 -6 -22 28 -21 59 1 15 3 14 6 -5 3 -14 9 -30 14 -37z"/>
 <path d="M1823 1928 c-12 -40 -24 -82 -27 -93 -4 -11 4 3 18 30 21 45 44 135 34 135 -2 0 -14 -33 -25 -72z"/>
 <path d="M165 1942 c6 -44 42 -128 52 -119 2 3 -1 16 -8 29 -7 12 -21 48 -31 78 l-19 55 6 -43z"/>
 <path d="M230 1811 c0 -16 55 -41 87 -40 24 0 22 2 -15 14 -23 7 -49 19 -57 25 -10 8 -15 9 -15 1z"/>
 <path d="M1754 1810 c-5 -5 -27 -16 -49 -24 -32 -12 -35 -15 -15 -15 30 0 97 34 83 42 -5 3 -14 2 -19 -3z"/>
 </g>
<g id="layer110" fill="#6c4c3d" stroke="none">
 <path d="M836 1991 c-17 -28 -77 -245 -87 -315 -6 -44 -12 -83 -14 -86 -2 -3 5 -25 16 -49 10 -24 19 -49 19 -56 0 -7 -19 -28 -42 -46 -82 -62 -101 -91 -127 -194 -8 -31 -16 -41 -32 -42 -34 -3 -67 -41 -79 -93 -6 -27 -26 -70 -43 -97 -54 -85 -48 -180 14 -196 15 -4 21 3 31 36 6 23 16 47 21 52 7 7 7 3 2 -10 -14 -38 -26 -180 -20 -237 3 -32 13 -83 21 -115 17 -64 65 -155 72 -135 2 7 15 -9 29 -35 77 -151 313 -239 503 -188 69 18 166 67 205 103 17 15 43 49 58 75 15 26 32 47 37 47 17 0 49 66 69 142 25 93 28 241 7 313 -8 26 -10 43 -4 37 5 -5 13 -25 17 -44 5 -26 12 -33 30 -33 14 0 32 11 43 25 26 35 16 94 -27 161 -19 28 -39 73 -45 99 -16 65 -45 96 -87 91 -6 -1 -14 20 -18 48 -8 61 -55 134 -115 179 -54 41 -64 73 -37 120 18 30 18 39 7 95 -23 120 -33 163 -62 260 l-30 97 -57 0 -57 0 -11 -62 c-11 -61 -10 -64 13 -83 13 -12 24 -26 24 -32 0 -15 -61 -73 -77 -73 -19 0 -100 81 -87 86 42 17 45 26 31 94 l-13 65 -46 3 c-25 2 -49 -1 -52 -7z m92 -663 c-2 -6 -10 -14 -16 -16 -7 -2 -10 2 -6 12 7 18 28 22 22 4z m555 -553 c2 -63 -8 -137 -29 -220 -7 -28 -6 -29 11 -15 18 14 18 13 0 -11 l-20 -27 -7 26 c-4 14 -2 34 3 44 6 11 8 26 5 33 -3 8 -1 17 5 21 5 3 9 13 8 22 -1 10 2 26 6 36 18 41 7 175 -18 226 -7 14 -11 34 -8 45 7 36 43 -107 44 -180z m-934 116 c-7 -23 -14 -39 -16 -37 -3 2 1 23 8 45 7 23 14 39 16 37 3 -2 -1 -23 -8 -45z m141 22 c-20 -26 -20 -28 -4 -40 10 -7 28 -13 41 -13 20 0 23 3 17 28 -4 15 -3 24 1 19 5 -4 16 -1 24 7 25 22 50 4 33 -24 -11 -18 -10 -20 12 -20 13 0 36 10 52 22 l29 22 -20 -23 c-29 -34 -76 -51 -140 -51 -49 0 -57 3 -67 25 -10 22 -8 29 12 50 31 33 37 32 10 -2z m650 -33 c0 -28 -23 -40 -77 -40 -62 0 -110 17 -138 51 l-20 23 31 -22 31 -21 26 32 c24 29 27 31 42 16 15 -15 15 -18 1 -32 -9 -8 -16 -18 -16 -21 0 -12 77 -6 94 7 16 12 16 14 -5 42 l-23 30 27 -24 c15 -14 27 -32 27 -41z m-806 -145 c-10 -61 -23 -14 -16 55 5 54 6 54 14 20 4 -19 5 -53 2 -75z m226 48 c-8 -2 -25 -9 -37 -15 -22 -11 -58 -4 -49 9 2 5 26 9 53 10 26 0 41 -1 33 -4z m553 -3 c16 0 26 -4 22 -10 -9 -15 -39 -12 -71 6 -27 15 -27 15 -4 10 14 -3 38 -6 53 -6z m-763 -142 c6 -29 13 -64 15 -78 2 -14 5 -30 7 -37 2 -6 -1 -13 -7 -14 -5 -2 -11 7 -11 21 -1 14 -6 45 -12 70 -12 46 -15 90 -8 90 2 0 10 -24 16 -52z"/>
 <path d="M1823 1928 c-12 -40 -24 -82 -27 -93 -4 -11 4 3 18 30 21 45 44 135 34 135 -2 0 -14 -33 -25 -72z"/>
 <path d="M165 1942 c6 -44 42 -128 52 -119 2 3 -1 16 -8 29 -7 12 -21 48 -31 78 l-19 55 6 -43z"/>
 <path d="M230 1811 c0 -16 55 -41 87 -40 24 0 22 2 -15 14 -23 7 -49 19 -57 25 -10 8 -15 9 -15 1z"/>
 <path d="M1754 1810 c-5 -5 -27 -16 -49 -24 -32 -12 -35 -15 -15 -15 30 0 97 34 83 42 -5 3 -14 2 -19 -3z"/>
 </g>
<g id="layer111" fill="#645e5c" stroke="none">
 <path d="M835 1988 c-50 -151 -67 -213 -76 -272 -6 -39 -14 -85 -19 -103 -5 -23 -2 -43 11 -73 11 -23 19 -48 19 -55 0 -7 -19 -28 -42 -46 -82 -62 -101 -91 -127 -194 -8 -31 -16 -41 -32 -42 -34 -3 -67 -41 -79 -93 -6 -27 -26 -70 -43 -97 -54 -85 -48 -180 13 -196 15 -4 20 2 25 27 13 59 48 126 67 126 22 0 23 -19 3 -84 -20 -67 -19 -150 6 -286 23 -129 32 -163 65 -235 64 -141 307 -230 494 -180 69 18 166 67 205 103 40 37 104 182 111 252 5 50 14 106 25 154 13 57 7 141 -17 209 -14 41 -14 51 -3 63 21 20 34 6 62 -71 27 -78 46 -88 79 -45 26 35 16 94 -27 161 -19 28 -39 73 -45 99 -16 65 -45 96 -87 91 -6 -1 -14 20 -18 48 -8 61 -55 134 -115 179 -54 41 -64 73 -37 119 15 26 17 39 9 65 -6 18 -13 56 -16 84 -4 28 -17 91 -31 140 -14 49 -30 106 -35 127 l-11 37 -57 0 -58 0 -11 -62 c-11 -61 -10 -64 13 -83 13 -12 24 -26 24 -32 0 -15 -61 -73 -77 -73 -19 0 -100 81 -87 86 42 17 45 26 31 94 l-13 65 -47 3 c-32 2 -49 -1 -52 -10z m93 -660 c-2 -6 -10 -14 -16 -16 -7 -2 -10 2 -6 12 7 18 28 22 22 4z m-108 -392 c0 -2 -11 -1 -25 2 -14 2 -22 8 -19 13 4 8 44 -6 44 -15z m427 7 c3 -7 -3 -9 -16 -6 -12 3 -21 10 -21 15 0 13 32 6 37 -9z m-557 -30 c-20 -26 -20 -28 -4 -40 10 -7 27 -13 39 -13 18 0 21 5 17 28 -2 19 1 29 10 29 7 0 21 4 30 8 23 9 35 -20 17 -41 -11 -14 -9 -15 20 -11 18 3 41 13 52 23 10 9 19 13 19 7 0 -11 -23 -31 -57 -50 -29 -17 -145 -17 -161 -1 -18 18 -15 39 10 65 29 31 34 29 8 -4z m650 -33 c0 -29 -23 -40 -86 -40 -66 0 -126 25 -138 56 -4 11 2 9 24 -6 28 -20 30 -20 30 -3 0 22 45 45 68 35 21 -9 25 -42 6 -42 -8 0 -14 -4 -14 -10 0 -14 63 -12 84 3 16 12 16 14 -5 42 l-23 30 27 -24 c15 -14 27 -32 27 -41z m-430 -80 c0 -21 -38 -32 -129 -37 -102 -6 -150 1 -121 16 15 9 59 16 160 27 30 3 56 7 58 9 6 6 32 -6 32 -15z m285 5 c95 -12 165 -28 165 -37 0 -15 -220 -5 -248 11 -19 10 -21 15 -11 27 6 8 19 12 28 10 9 -2 39 -7 66 -11z"/>
 </g>
<g id="layer112" fill="#846439" stroke="none">
 <path d="M836 1988 c-2 -7 -15 -49 -29 -93 -14 -44 -33 -116 -42 -160 -9 -44 -20 -97 -24 -117 -6 -28 -3 -48 10 -79 11 -23 19 -47 19 -54 0 -7 -19 -28 -42 -46 -82 -62 -101 -91 -127 -194 -8 -31 -16 -41 -32 -42 -34 -3 -67 -41 -79 -93 -6 -27 -26 -70 -43 -97 -54 -85 -48 -180 13 -196 15 -4 20 2 25 27 13 59 48 126 67 126 22 0 23 -19 3 -84 -20 -67 -19 -150 6 -286 23 -129 32 -163 65 -235 64 -141 307 -230 494 -180 69 18 166 67 205 103 40 37 104 182 111 252 5 50 14 106 25 154 13 57 7 141 -17 209 -14 41 -14 51 -3 63 21 20 34 6 62 -71 27 -78 46 -88 79 -45 26 35 16 94 -27 161 -19 28 -39 73 -45 99 -16 65 -45 96 -87 91 -6 -1 -14 20 -18 48 -8 61 -55 134 -115 179 -54 41 -64 73 -37 119 15 26 17 39 9 65 -6 18 -13 57 -16 85 -4 29 -19 96 -35 150 -16 54 -31 110 -35 126 -6 25 -10 27 -61 27 -51 0 -55 -2 -61 -27 -3 -16 -10 -43 -14 -61 -8 -29 -5 -36 22 -61 l30 -28 -36 -37 c-20 -20 -45 -36 -54 -36 -10 0 -35 18 -56 39 l-39 40 27 23 c23 20 25 27 17 58 -5 19 -12 47 -15 63 -6 25 -10 27 -52 27 -27 0 -46 -5 -48 -12z m94 -652 c0 -7 -7 -19 -15 -26 -16 -13 -20 -3 -9 24 8 20 24 21 24 2z m184 -42 c10 -25 -1 -29 -14 -5 -6 12 -7 21 -1 21 5 0 12 -7 15 -16z m-310 -347 c16 -12 14 -13 -18 -9 -20 2 -33 8 -30 13 8 13 27 11 48 -4z m450 4 c3 -4 3 -11 0 -14 -8 -7 -44 4 -44 14 0 12 37 12 44 0z m-552 -27 c-26 -18 -29 -49 -6 -58 32 -12 44 -6 44 22 0 16 6 29 13 29 6 0 20 4 29 8 24 9 35 -20 17 -42 -12 -15 -12 -16 6 -9 11 4 28 9 39 11 10 3 25 10 34 17 13 11 14 10 10 -2 -2 -8 -19 -25 -38 -37 -26 -18 -47 -23 -99 -23 -67 0 -91 10 -91 39 0 17 51 74 59 66 2 -3 -5 -12 -17 -21z m628 -17 c25 -44 5 -61 -73 -65 -57 -2 -72 1 -106 23 -23 14 -41 30 -41 35 0 15 16 12 30 -5 15 -18 30 -19 30 -2 0 17 48 37 68 29 21 -9 25 -42 6 -42 -8 0 -14 -4 -14 -9 0 -10 29 -12 68 -5 26 5 29 30 5 57 -14 16 -15 19 -3 15 8 -2 22 -17 30 -31z m-420 -107 c0 -21 -38 -32 -129 -37 -102 -6 -150 1 -121 16 15 9 59 16 160 27 30 3 56 7 58 9 6 6 32 -6 32 -15z m285 5 c95 -12 165 -28 165 -37 0 -15 -220 -5 -248 11 -19 10 -21 15 -11 27 6 8 19 12 28 10 9 -2 39 -7 66 -11z"/>
 </g>
<g id="layer113" fill="#7e7f85" stroke="none">
 <path d="M836 1988 c-2 -7 -15 -49 -29 -93 -14 -44 -33 -116 -42 -160 -9 -44 -20 -97 -24 -117 -6 -28 -3 -48 10 -79 11 -23 19 -47 19 -54 0 -7 -19 -28 -42 -46 -82 -62 -101 -91 -127 -194 -8 -31 -16 -41 -32 -42 -34 -3 -67 -41 -79 -93 -6 -27 -26 -70 -43 -97 -41 -65 -50 -149 -17 -178 26 -24 52 -12 61 31 13 59 39 104 59 104 24 0 25 -17 5 -84 -20 -67 -19 -150 6 -286 33 -185 66 -268 126 -316 164 -130 358 -149 548 -54 132 66 163 125 216 409 23 123 22 174 -7 266 -12 38 -14 59 -8 65 12 12 44 3 44 -11 0 -5 9 -28 19 -52 11 -23 21 -51 23 -62 5 -28 37 -25 60 5 26 35 16 94 -27 161 -19 28 -39 73 -45 99 -16 65 -45 96 -87 91 -6 -1 -14 20 -18 48 -8 61 -55 134 -115 179 -54 41 -64 73 -37 119 15 26 17 39 9 65 -6 18 -13 57 -16 85 -4 29 -19 96 -35 150 -16 54 -31 110 -35 126 -6 25 -10 27 -61 27 -51 0 -55 -2 -61 -27 -3 -16 -10 -43 -14 -61 -8 -29 -5 -36 22 -61 l30 -28 -36 -37 c-20 -20 -45 -36 -54 -36 -10 0 -35 18 -56 39 l-39 40 27 23 c23 20 25 27 17 58 -5 19 -12 47 -15 63 -6 25 -10 27 -52 27 -27 0 -46 -5 -48 -12z m94 -652 c0 -7 -7 -19 -15 -26 -16 -13 -20 -3 -9 24 8 20 24 21 24 2z m184 -42 c10 -25 -1 -29 -14 -5 -6 12 -7 21 -1 21 5 0 12 -7 15 -16z m-317 -340 c14 -4 27 -20 35 -40 12 -33 13 -33 36 -18 18 12 23 13 20 2 -3 -7 -19 -23 -38 -35 -26 -18 -47 -23 -99 -23 -96 0 -118 31 -61 85 17 16 30 24 30 19 0 -5 -9 -15 -20 -22 -37 -23 -20 -62 27 -62 11 0 13 7 8 29 -5 22 -2 32 12 40 10 6 14 11 10 11 -10 0 1 20 11 20 4 0 17 -3 29 -6z m463 -13 c16 -30 12 -52 -10 -58 -27 -7 -25 -22 3 -21 68 1 85 22 50 61 -14 16 -15 19 -3 15 8 -2 22 -17 30 -31 25 -44 5 -61 -73 -65 -57 -2 -72 1 -106 23 -23 14 -41 30 -41 35 0 15 16 12 30 -5 16 -20 30 -19 30 1 0 22 41 64 62 64 10 0 22 -9 28 -19z m-350 -141 c0 -24 -39 -33 -158 -38 -163 -6 -156 13 15 38 114 16 143 16 143 0z m285 5 c95 -12 165 -28 165 -37 0 -15 -220 -5 -248 11 -19 10 -21 15 -11 27 6 8 19 12 28 10 9 -2 39 -7 66 -11z"/>
 </g>
<g id="layer114" fill="#c37b65" stroke="none">
 <path d="M836 1988 c-2 -7 -15 -51 -30 -98 -32 -108 -41 -147 -56 -245 -11 -71 -11 -84 4 -112 24 -47 21 -58 -26 -94 -82 -62 -101 -91 -127 -194 -8 -31 -16 -41 -32 -42 -34 -3 -67 -41 -79 -93 -6 -27 -26 -70 -43 -97 -41 -65 -50 -149 -17 -178 26 -24 52 -12 61 31 13 59 39 104 59 104 24 0 25 -17 5 -84 -20 -67 -19 -150 6 -286 33 -185 66 -268 126 -316 160 -126 347 -148 535 -62 136 63 179 140 229 412 23 129 22 179 -7 271 -12 38 -14 59 -8 65 12 12 44 3 44 -11 0 -5 9 -28 19 -52 11 -23 21 -51 23 -62 5 -28 37 -25 60 5 24 33 12 101 -30 165 -16 25 -35 68 -42 94 -15 65 -45 97 -86 92 -5 0 -16 25 -22 57 -15 68 -52 124 -112 170 -49 37 -64 74 -43 108 7 11 13 31 14 45 1 45 -21 164 -50 264 -16 55 -32 112 -35 128 -6 25 -10 27 -60 27 l-54 0 -11 -62 c-10 -61 -10 -63 16 -90 l27 -28 -25 -26 c-52 -56 -90 -56 -134 2 l-28 36 27 22 c25 20 26 22 11 61 -8 22 -14 50 -15 63 0 19 -5 22 -45 22 -28 0 -47 -5 -49 -12z m99 -658 c0 -15 -31 -37 -40 -28 -9 9 18 49 30 45 5 -2 10 -10 10 -17z m183 -45 c6 -14 8 -25 4 -25 -12 0 -32 23 -32 37 0 22 16 15 28 -12z m-321 -331 c14 -4 27 -20 35 -40 l12 -34 24 23 c23 21 24 21 21 2 -2 -10 -20 -30 -39 -43 -29 -19 -45 -22 -104 -20 -53 2 -71 7 -80 21 -16 26 12 69 54 84 41 14 48 15 77 7z m521 -30 c47 -53 23 -84 -65 -84 -50 0 -72 5 -103 25 -22 14 -40 33 -40 42 0 14 4 13 23 -5 28 -26 37 -28 37 -5 0 9 10 27 22 40 19 20 29 23 63 18 24 -4 49 -16 63 -31z m-408 -124 c0 -24 -39 -33 -158 -38 -163 -6 -156 13 15 38 114 16 143 16 143 0z m285 5 c95 -12 165 -28 165 -37 0 -15 -220 -5 -248 11 -19 10 -21 15 -11 27 6 8 19 12 28 10 9 -2 39 -7 66 -11z"/>
 <path d="M700 915 c-25 -27 -21 -38 16 -49 20 -6 21 -3 20 34 0 22 -3 40 -7 40 -3 0 -16 -11 -29 -25z"/>
 <path d="M1270 923 c0 -12 -3 -28 -6 -37 -5 -12 0 -16 19 -16 38 0 43 19 13 48 -25 26 -26 26 -26 5z"/>
 </g>
<g id="layer115" fill="#cc8b77" stroke="none">
 <path d="M836 1988 c-2 -7 -15 -51 -30 -98 -32 -108 -41 -147 -56 -245 -12 -73 -11 -84 5 -115 l18 -35 14 30 13 30 -6 -32 c-3 -18 -3 -33 0 -33 3 0 22 11 42 25 48 32 95 45 170 45 69 0 113 -13 164 -47 l35 -23 6 37 c3 21 7 28 8 16 2 -46 40 -11 42 39 1 45 -22 164 -50 263 -16 55 -32 112 -35 128 -6 25 -10 27 -60 27 l-54 0 -11 -62 c-10 -61 -10 -63 16 -90 l27 -28 -25 -26 c-52 -56 -90 -56 -134 2 l-28 36 27 22 c25 20 26 22 11 61 -8 22 -14 50 -15 63 0 19 -5 22 -45 22 -28 0 -47 -5 -49 -12z"/>
 <path d="M905 1539 c-37 -14 -207 -142 -240 -181 -25 -30 -36 -59 -55 -153 -11 -50 -14 -56 -21 -37 -5 12 -13 22 -18 22 -17 0 -51 -43 -57 -70 -5 -24 -33 -85 -75 -160 -10 -19 -19 -47 -19 -62 0 -30 34 -72 53 -65 17 5 30 64 29 137 -1 57 1 61 9 33 9 -32 29 -46 29 -21 0 8 6 6 17 -5 16 -16 16 -21 0 -81 -23 -87 -21 -159 8 -316 31 -167 58 -227 128 -279 210 -157 467 -147 643 24 59 57 78 108 114 305 24 138 25 158 4 235 -25 90 -24 110 6 110 18 0 26 6 28 23 2 12 8 22 13 22 12 0 11 -5 -2 -50 -9 -30 -8 -44 4 -71 8 -19 18 -42 21 -52 5 -14 10 -16 25 -7 44 23 39 88 -14 170 -20 30 -38 66 -41 80 -3 14 -7 35 -10 47 -2 13 -16 30 -30 40 -24 15 -27 15 -38 1 -10 -13 -15 -1 -30 64 -20 89 -47 127 -144 202 -120 92 -136 99 -225 103 -45 1 -95 -2 -112 -8z m30 -209 c0 -15 -31 -37 -40 -28 -9 9 18 49 30 45 5 -2 10 -10 10 -17z m183 -45 c6 -14 8 -25 4 -25 -12 0 -32 23 -32 37 0 22 16 15 28 -12z m-128 -126 c-7 -11 -9 -32 -6 -45 8 -31 1 -31 -20 1 -16 24 -16 27 1 45 24 26 39 26 25 -1z m573 -255 c1 -22 -3 -39 -10 -41 -9 -3 -13 10 -13 45 0 28 -3 59 -6 69 -3 10 2 6 11 -9 8 -16 17 -44 18 -64z m-1102 14 c-5 -46 -9 -56 -20 -49 -14 9 -12 32 9 87 15 38 17 28 11 -38z m336 36 c14 -4 27 -20 35 -40 l12 -34 24 23 c23 21 24 21 21 2 -2 -10 -20 -30 -39 -43 -29 -19 -45 -22 -104 -20 -53 2 -71 7 -80 21 -16 26 12 69 54 84 41 14 48 15 77 7z m521 -30 c47 -53 23 -84 -65 -84 -50 0 -72 5 -103 25 -22 14 -40 33 -40 42 0 14 4 13 23 -5 28 -26 37 -28 37 -5 0 9 10 27 22 40 19 20 29 23 63 18 24 -4 49 -16 63 -31z m-408 -124 c0 -24 -39 -33 -158 -38 -163 -6 -156 13 15 38 114 16 143 16 143 0z m285 5 c95 -12 165 -28 165 -37 0 -15 -220 -5 -248 11 -19 10 -21 15 -11 27 6 8 19 12 28 10 9 -2 39 -7 66 -11z"/>
 <path d="M700 915 c-25 -27 -21 -38 16 -49 20 -6 21 -3 20 34 0 22 -3 40 -7 40 -3 0 -16 -11 -29 -25z"/>
 <path d="M1270 923 c0 -12 -3 -28 -6 -37 -5 -12 0 -16 19 -16 38 0 43 19 13 48 -25 26 -26 26 -26 5z"/>
 </g>
<g id="layer116" fill="#d49b8a" stroke="none">
 <path d="M836 1988 c-2 -7 -15 -51 -30 -98 -32 -108 -41 -147 -56 -245 -12 -72 -11 -84 5 -114 13 -26 19 -31 26 -20 5 8 9 23 9 34 1 18 2 18 11 -3 5 -13 7 -27 5 -31 -3 -4 20 5 51 21 89 45 239 39 313 -13 25 -17 26 -17 28 8 1 13 6 32 12 41 7 14 9 10 10 -15 0 -18 4 -33 10 -33 13 0 30 34 31 62 1 45 -22 164 -50 263 -16 55 -32 112 -35 128 -6 25 -10 27 -60 27 l-54 0 -11 -62 c-10 -61 -10 -63 16 -90 l27 -28 -25 -26 c-52 -56 -90 -56 -134 2 l-28 36 27 22 c25 20 26 22 11 61 -8 22 -14 50 -15 63 0 19 -5 22 -45 22 -28 0 -47 -5 -49 -12z"/>
 <path d="M912 1536 c-63 -21 -218 -142 -258 -202 -11 -16 -79 -260 -96 -342 -1 -4 2 -15 7 -25 4 -10 1 -42 -9 -76 -22 -79 -20 -156 8 -307 31 -168 46 -203 113 -264 61 -56 90 -73 171 -101 169 -58 364 -14 493 112 54 53 74 107 110 303 23 129 22 186 -7 270 -12 35 -14 54 -7 65 13 21 -70 356 -95 385 -29 32 -196 161 -227 174 -44 20 -153 24 -203 8z m23 -206 c0 -15 -31 -37 -40 -28 -9 9 18 49 30 45 5 -2 10 -10 10 -17z m183 -45 c6 -14 8 -25 4 -25 -12 0 -32 23 -32 37 0 22 16 15 28 -12z m-122 -119 c-10 -16 -14 -36 -10 -58 l6 -33 -21 25 c-26 32 -26 38 1 67 28 30 45 30 24 -1z m-199 -212 c14 -4 27 -20 35 -40 l12 -34 23 22 c31 29 43 15 14 -16 -34 -36 -70 -47 -141 -44 -47 2 -66 7 -74 21 -16 26 12 69 54 84 41 14 48 15 77 7z m521 -30 c47 -53 23 -84 -65 -84 -50 0 -72 5 -102 25 -42 26 -57 43 -47 52 3 4 16 -3 29 -15 28 -26 37 -28 37 -5 0 9 10 27 22 40 19 20 29 23 63 18 24 -4 49 -16 63 -31z m-408 -124 c0 -24 -39 -33 -158 -38 -163 -6 -156 13 15 38 114 16 143 16 143 0z m285 5 c95 -12 165 -28 165 -37 0 -15 -220 -5 -248 11 -19 10 -21 15 -11 27 6 8 19 12 28 10 9 -2 39 -7 66 -11z"/>
 <path d="M700 915 c-25 -27 -21 -38 16 -49 20 -6 21 -3 20 34 0 22 -3 40 -7 40 -3 0 -16 -11 -29 -25z"/>
 <path d="M1270 923 c0 -12 -3 -28 -6 -37 -5 -12 0 -16 19 -16 38 0 43 19 13 48 -25 26 -26 26 -26 5z"/>
 <path d="M537 1162 c-9 -10 -20 -34 -23 -53 -4 -19 -16 -51 -26 -73 -13 -25 -20 -62 -21 -107 -2 -48 -6 -69 -14 -69 -7 0 -13 -4 -13 -10 0 -9 5 -12 31 -14 21 -2 39 94 27 137 -8 26 -8 41 -1 48 7 7 12 1 16 -20 4 -17 10 -31 15 -31 7 0 62 180 62 203 0 14 -38 6 -53 -11z"/>
 <path d="M1415 1163 c4 -10 16 -54 27 -98 11 -44 22 -84 25 -88 8 -13 23 14 24 43 l0 25 11 -23 c9 -17 8 -32 -1 -57 -10 -28 -10 -40 2 -67 8 -18 17 -41 21 -50 3 -11 11 -15 21 -12 16 6 21 24 6 24 -4 0 -11 34 -15 76 -3 47 -13 89 -25 108 -10 17 -21 46 -25 65 -8 42 -32 71 -59 71 -14 0 -17 -4 -12 -17z"/>
 <path d="M1551 960 c16 -46 31 -63 19 -20 -5 19 -14 38 -20 44 -7 7 -6 -2 1 -24z"/>
 </g>
<g id="layer117" fill="#d9a697" stroke="none">
 <path d="M836 1988 c-2 -7 -15 -51 -30 -98 -53 -177 -74 -306 -56 -350 15 -37 28 -38 36 -5 3 14 18 32 33 39 25 12 107 15 126 5 9 -5 114 -5 125 1 3 1 18 1 34 0 16 -1 32 3 36 9 4 8 14 5 32 -8 19 -15 28 -17 36 -9 9 9 12 6 12 -14 0 -55 39 -32 41 24 1 45 -22 164 -50 263 -16 55 -32 112 -35 128 -6 25 -10 27 -60 27 l-54 0 -11 -62 c-10 -61 -10 -63 16 -90 l27 -28 -25 -26 c-52 -56 -90 -56 -134 2 l-28 36 27 22 c25 20 26 22 11 61 -8 22 -14 50 -15 63 0 19 -5 22 -45 22 -28 0 -47 -5 -49 -12z"/>
 <path d="M970 1543 c-66 -8 -109 -30 -194 -97 -50 -41 -100 -83 -110 -95 -24 -26 -107 -344 -100 -380 3 -15 -2 -57 -10 -94 -18 -77 -20 -150 -5 -217 5 -25 14 -74 19 -110 18 -112 38 -160 95 -216 90 -90 199 -134 336 -134 142 0 250 44 348 141 45 45 76 125 86 224 4 33 13 83 21 112 16 53 11 166 -8 198 -13 23 -19 87 -8 100 7 8 7 21 1 36 -14 37 -48 167 -62 236 -7 38 -22 77 -38 98 -31 41 -183 162 -226 180 -33 14 -105 23 -145 18z m-35 -213 c0 -15 -31 -37 -40 -28 -9 9 18 49 30 45 5 -2 10 -10 10 -17z m183 -45 c6 -14 8 -25 4 -25 -12 0 -32 23 -32 37 0 22 16 15 28 -12z m-113 -112 c-5 -10 -11 -36 -14 -58 l-6 -39 -17 27 c-23 34 -23 45 5 68 28 23 41 24 32 2z m-208 -219 c14 -4 27 -20 35 -40 l12 -34 23 22 c32 29 42 14 12 -18 -37 -40 -59 -48 -129 -45 -75 2 -96 16 -86 55 11 46 76 75 133 60z m521 -30 c12 -14 22 -33 22 -43 0 -34 -25 -43 -105 -39 -69 3 -78 6 -107 35 -36 36 -31 59 5 25 28 -26 37 -28 37 -5 0 9 10 27 22 40 19 20 29 23 63 18 24 -4 49 -16 63 -31z m-410 -119 c3 -3 -2 -13 -10 -22 -13 -13 -44 -17 -145 -21 -170 -6 -146 20 42 44 22 3 42 7 44 10 6 6 61 -3 69 -11z m317 0 c64 -8 135 -28 135 -38 0 -14 -221 -4 -248 12 -35 19 -11 42 37 36 20 -3 54 -7 76 -10z"/>
 <path d="M700 915 c-25 -27 -21 -38 16 -49 20 -6 21 -3 20 34 0 22 -3 40 -7 40 -3 0 -16 -11 -29 -25z"/>
 <path d="M1270 923 c0 -12 -3 -28 -6 -37 -5 -12 0 -16 19 -16 38 0 43 19 13 48 -25 26 -26 26 -26 5z"/>
 <path d="M536 1158 c-9 -12 -16 -32 -16 -43 0 -11 -7 -33 -15 -49 -19 -36 -19 -42 0 -26 13 11 15 7 15 -24 0 -51 15 -45 30 12 6 26 18 67 26 91 8 25 14 48 14 53 0 17 -40 7 -54 -14z"/>
 <path d="M1420 1163 c0 -9 12 -55 26 -102 18 -60 28 -80 35 -70 5 8 9 22 9 32 0 10 5 15 10 12 13 -8 13 -51 -1 -76 -8 -16 -7 -29 5 -54 9 -18 16 -40 16 -48 0 -23 16 -29 30 -12 10 12 10 15 -2 15 -10 0 -13 11 -10 41 3 23 -1 52 -9 65 -7 13 -10 27 -7 30 4 3 -5 29 -18 57 -13 29 -24 61 -24 73 0 22 -29 54 -48 54 -7 0 -12 -8 -12 -17z"/>
 <path d="M480 1020 c-6 -19 -14 -82 -14 -117 0 -29 -5 -43 -14 -43 -7 0 -10 -4 -7 -10 14 -22 31 -7 48 40 10 28 15 56 11 62 -4 6 -11 25 -15 42 -4 17 -8 29 -9 26z"/>
 </g>
<g id="layer118" fill="#d8b3a8" stroke="none">
 <path d="M836 1988 c-2 -7 -15 -51 -30 -98 -53 -177 -74 -306 -56 -350 16 -38 26 -38 33 -2 5 23 19 35 70 61 58 30 74 33 149 33 84 0 143 -17 180 -49 9 -8 22 -12 27 -8 7 4 11 -4 11 -19 0 -54 39 -29 41 26 1 45 -22 164 -50 263 -16 55 -32 112 -35 128 -6 25 -10 27 -60 27 l-54 0 -11 -62 c-10 -61 -10 -63 16 -90 26 -27 26 -28 7 -49 -10 -12 -31 -30 -46 -41 -25 -17 -29 -18 -51 -4 -13 9 -33 30 -46 47 l-23 31 26 22 c25 20 26 22 11 61 -8 22 -14 50 -15 63 0 19 -5 22 -45 22 -28 0 -47 -5 -49 -12z"/>
 <path d="M905 1528 c-40 -14 -211 -144 -237 -181 -29 -41 -110 -355 -97 -379 6 -11 6 -25 1 -35 -20 -39 -35 -145 -28 -201 11 -91 14 -110 19 -119 3 -4 8 -35 11 -68 14 -129 52 -194 157 -264 186 -124 439 -105 600 46 34 32 53 60 65 96 9 29 19 56 22 62 3 5 7 16 8 25 6 46 24 149 31 175 12 45 5 167 -11 194 -5 7 -10 43 -11 80 -2 59 -51 282 -77 353 -18 50 -200 199 -263 217 -49 13 -150 13 -190 -1z m31 -190 c7 -12 -34 -53 -44 -43 -7 6 19 55 29 55 4 0 11 -5 15 -12z m182 -53 c6 -14 8 -25 4 -25 -12 0 -32 23 -32 37 0 22 16 15 28 -12z m-105 -133 c-23 -3 -25 -7 -20 -43 3 -21 2 -39 -1 -39 -4 0 -18 17 -31 37 l-23 36 33 28 33 27 17 -22 c17 -20 17 -21 -8 -24z m-184 -232 c18 -40 18 -40 36 -20 34 37 50 15 18 -24 -13 -15 -10 -14 10 3 15 14 27 19 27 13 0 -12 -40 -38 -53 -34 -4 1 -18 -3 -30 -10 -31 -17 -147 -11 -169 9 -37 33 31 103 100 103 41 0 44 -2 61 -40z m487 4 c39 -41 40 -45 16 -67 -24 -22 -193 -25 -189 -4 1 5 -4 12 -12 15 -9 3 -11 0 -6 -8 4 -7 -4 -4 -19 5 -15 10 -24 20 -22 23 3 3 12 -1 21 -8 9 -8 15 -8 15 -2 0 6 -4 14 -10 17 -5 3 -10 14 -10 22 0 13 6 11 28 -10 33 -32 42 -34 42 -9 0 10 3 22 8 26 4 4 8 12 8 17 1 5 2 11 3 14 0 3 22 5 47 5 40 0 51 -5 80 -36z m-404 -122 c21 -21 -38 -35 -161 -40 -86 -3 -122 -2 -117 6 7 11 142 45 154 38 4 -2 16 0 27 5 25 10 83 5 97 -9z m327 3 c30 -3 59 -9 63 -11 5 -3 23 -7 40 -10 17 -2 36 -8 42 -14 18 -18 -229 -13 -265 6 -24 12 -28 18 -19 29 12 14 26 14 139 0z"/>
 <path d="M700 915 c-25 -27 -21 -38 16 -49 20 -6 21 -3 20 34 0 22 -3 40 -7 40 -3 0 -16 -11 -29 -25z"/>
 <path d="M1270 923 c0 -12 -3 -28 -6 -37 -5 -12 0 -16 19 -16 38 0 43 19 13 48 -25 26 -26 26 -26 5z"/>
 <path d="M546 1167 c-10 -7 -21 -31 -26 -53 -4 -21 -11 -48 -15 -58 -6 -14 -5 -17 3 -12 8 5 12 -4 12 -28 0 -20 4 -36 9 -36 11 0 34 88 26 101 -4 5 -2 9 3 9 5 0 12 12 15 28 3 15 9 35 12 45 9 21 -13 23 -39 4z"/>
 <path d="M1420 1168 c0 -7 6 -33 14 -58 8 -25 21 -65 28 -90 l13 -45 3 38 c2 20 8 37 13 37 6 0 6 7 -1 19 -5 11 -10 33 -10 50 0 20 -8 35 -22 45 -27 19 -38 20 -38 4z"/>
 <path d="M475 970 c-5 -30 -8 -67 -7 -82 1 -16 -2 -28 -8 -28 -5 0 -10 -4 -10 -10 0 -25 26 -6 38 28 16 43 16 53 4 107 l-8 40 -9 -55z"/>
 <path d="M1504 959 c-13 -28 15 -119 36 -119 10 0 11 3 3 11 -6 6 -9 28 -6 49 4 25 0 46 -9 59 l-15 21 -9 -21z"/>
 </g>
<g id="layer119" fill="#e7b9ac" stroke="none">
 <path d="M835 1988 c-31 -102 -67 -243 -81 -320 -14 -80 -15 -102 -4 -127 15 -38 26 -39 33 -3 11 50 121 101 223 102 53 0 134 -25 169 -51 22 -18 29 -20 36 -8 5 8 9 10 10 4 2 -22 10 -59 13 -63 7 -7 26 36 27 60 1 45 -23 174 -46 243 -12 39 -26 86 -30 105 -14 71 -12 70 -70 70 l-53 0 -11 -62 c-10 -61 -10 -63 16 -90 l27 -28 -41 -42 c-40 -40 -44 -41 -68 -28 -14 7 -37 29 -51 48 l-27 34 27 22 c25 20 26 22 11 61 -8 22 -14 50 -15 63 0 19 -5 22 -45 22 -28 0 -47 -5 -50 -12z"/>
 <path d="M903 1527 c-41 -15 -205 -141 -234 -180 -13 -18 -37 -92 -61 -185 -21 -85 -41 -160 -45 -165 -3 -5 0 -13 8 -17 11 -7 9 -26 -10 -99 -19 -73 -22 -103 -16 -149 4 -31 9 -66 10 -78 1 -11 4 -25 8 -30 3 -6 8 -34 11 -63 2 -30 15 -83 28 -120 50 -142 214 -241 404 -241 170 0 351 103 390 223 9 29 19 56 22 61 3 6 7 19 8 30 7 74 17 133 25 147 4 9 6 19 3 22 -3 3 -2 11 2 18 13 22 8 111 -11 172 -9 33 -15 73 -12 90 5 36 -67 340 -88 374 -23 34 -203 175 -243 189 -46 16 -156 17 -199 1z m155 -147 c18 -11 39 -37 48 -57 9 -21 20 -46 25 -55 12 -24 -4 -23 -26 2 -10 11 -15 28 -12 39 6 24 -34 68 -70 77 -33 9 -96 -23 -88 -44 6 -17 -22 -52 -42 -52 -18 0 -17 7 14 46 48 64 96 78 151 44z m-8 -231 c0 -5 -14 -6 -32 -2 l-31 6 6 -41 c3 -23 2 -42 -1 -42 -4 0 -18 16 -32 36 l-24 37 34 28 34 29 23 -22 c13 -12 23 -25 23 -29z m-190 -199 c12 -8 11 -10 -7 -10 -25 0 -26 -3 -17 -38 l7 -23 28 27 c22 21 29 24 29 12 0 -9 6 -18 13 -21 20 -7 -4 -37 -43 -53 l-35 -15 35 31 35 30 -39 -25 c-43 -28 -46 -28 -131 -25 -42 1 -64 6 -72 18 -18 23 -17 27 22 67 33 33 40 35 98 35 34 0 69 -5 77 -10z m456 -26 c39 -41 41 -47 16 -72 -13 -13 -31 -17 -77 -15 -135 5 -175 18 -175 56 0 20 2 19 26 -10 14 -18 30 -33 36 -33 6 0 -1 12 -16 26 -14 15 -26 33 -26 40 0 20 9 17 30 -8 19 -23 19 -23 33 -3 22 30 19 40 -11 38 -24 -2 -24 -2 -7 6 11 5 46 10 79 10 55 1 61 -1 92 -35z m-402 -120 c11 -28 -44 -41 -177 -43 -81 -2 -127 1 -123 7 7 12 87 32 142 37 22 1 46 5 54 9 21 7 73 12 87 8 6 -2 14 -10 17 -18z m243 15 c13 1 28 -1 34 -4 5 -4 33 -9 61 -11 27 -1 55 -8 62 -13 7 -6 15 -8 18 -6 8 8 60 -14 55 -22 -8 -12 -274 0 -287 13 -16 16 6 58 23 47 7 -4 22 -6 34 -4z"/>
 <path d="M701 916 c-25 -27 -21 -46 10 -46 12 0 19 7 19 19 0 11 3 26 6 35 9 24 -9 19 -35 -8z"/>
 <path d="M1270 923 c0 -12 -3 -28 -6 -37 -5 -12 0 -16 19 -16 38 0 43 19 13 48 -25 26 -26 26 -26 5z"/>
 <path d="M541 1158 c-12 -12 -20 -29 -18 -38 2 -8 -3 -27 -10 -42 -8 -17 -9 -28 -3 -28 5 0 10 -16 10 -35 0 -19 4 -35 9 -35 8 0 23 53 26 90 1 8 6 27 12 41 27 63 12 89 -26 47z"/>
 <path d="M1424 1148 c3 -17 12 -38 18 -46 7 -8 11 -24 10 -36 -2 -12 4 -37 13 -56 l16 -35 -4 37 c-1 21 1 39 5 40 14 5 -9 101 -28 115 -28 21 -37 15 -30 -19z"/>
 <path d="M476 960 c-3 -18 -6 -50 -6 -70 0 -21 -6 -41 -12 -43 -8 -3 -6 -6 5 -6 10 -1 17 6 17 17 0 9 7 29 15 45 12 23 12 32 1 58 l-13 31 -7 -32z"/>
 <path d="M1505 958 c-9 -27 -9 -23 9 -73 8 -21 20 -41 27 -43 11 -4 11 -2 2 8 -6 7 -9 26 -6 44 2 17 -2 43 -10 59 -14 28 -14 28 -22 5z"/>
 </g>
<g id="layer120" fill="#d5c3be" stroke="none">
 <path d="M835 1988 c-31 -102 -67 -243 -81 -320 -14 -80 -15 -102 -4 -127 14 -35 30 -41 30 -11 0 55 109 111 220 113 64 1 84 -3 135 -28 33 -16 66 -29 73 -28 6 0 12 -2 13 -6 2 -22 10 -55 13 -59 7 -7 26 36 27 60 1 45 -23 174 -46 243 -12 39 -26 86 -30 105 -14 71 -12 70 -70 70 l-53 0 -11 -62 c-10 -61 -10 -63 16 -90 l27 -28 -41 -42 c-40 -40 -44 -41 -68 -28 -14 7 -37 29 -51 48 l-27 34 27 22 c25 20 26 22 11 61 -8 22 -14 50 -15 63 0 19 -5 22 -45 22 -28 0 -47 -5 -50 -12z"/>
 <path d="M943 1530 c-57 -12 -74 -22 -176 -103 -53 -41 -95 -84 -106 -106 -10 -20 -33 -97 -51 -171 -18 -74 -37 -140 -41 -146 -5 -6 -3 -16 3 -22 9 -9 7 -29 -7 -84 -24 -92 -24 -238 -1 -276 3 -6 8 -31 10 -55 2 -24 14 -75 26 -113 89 -268 503 -338 733 -125 50 45 91 155 103 276 3 27 9 54 15 61 5 6 6 14 3 17 -3 3 -2 11 2 18 9 15 10 106 1 129 -3 8 -14 44 -23 78 -14 51 -15 65 -4 72 7 4 10 12 7 17 -4 5 -24 81 -46 168 -28 113 -46 164 -63 182 -39 43 -182 155 -213 168 -42 17 -122 24 -172 15z m132 -161 c19 -17 35 -36 35 -43 0 -6 7 -24 15 -40 17 -33 12 -45 -13 -29 -10 6 -17 24 -18 42 0 37 -33 78 -70 87 -34 9 -97 -23 -89 -44 7 -19 -23 -52 -47 -52 -17 0 -17 2 4 33 52 80 123 98 183 46z m-7 -77 c7 -5 -16 -7 -50 -5 -91 6 -103 11 -28 12 36 0 71 -3 78 -7z m-33 -122 l29 -30 -38 0 -38 0 7 -40 c4 -22 4 -40 1 -40 -3 0 -18 18 -32 40 l-27 41 28 29 c16 17 32 30 35 30 3 0 19 -13 35 -30z m287 -250 c15 -19 28 -40 28 -47 0 -21 -41 -42 -71 -36 -31 6 -85 -4 -75 -14 4 -4 45 -15 93 -24 78 -16 114 -31 102 -43 -9 -9 -289 10 -300 21 -8 8 -8 17 0 32 10 17 9 21 -3 21 -18 0 -36 30 -36 58 0 56 64 82 174 72 52 -5 63 -10 88 -40z m-407 15 c30 -29 32 -68 5 -95 -11 -11 -15 -22 -10 -25 18 -11 10 -30 -17 -41 -16 -6 -66 -12 -113 -13 -47 -1 -105 -4 -129 -8 -34 -4 -43 -3 -39 8 2 8 38 22 84 32 114 27 112 26 90 39 -10 6 -36 8 -58 5 -31 -4 -44 -1 -59 14 -26 26 -24 33 16 74 35 35 37 35 121 35 77 0 87 -2 109 -25z"/>
 <path d="M1142 941 c-32 -6 -32 -7 -17 -28 20 -29 26 -28 48 2 20 28 14 33 -31 26z"/>
 <path d="M1270 923 c0 -12 -3 -28 -6 -37 -5 -12 0 -16 19 -16 38 0 43 19 13 48 -25 26 -26 26 -26 5z"/>
 <path d="M701 916 c-25 -27 -21 -46 10 -46 12 0 19 7 19 19 0 11 3 26 6 35 9 24 -9 19 -35 -8z"/>
 <path d="M834 918 c3 -13 6 -27 6 -32 0 -5 11 1 25 14 33 31 32 40 -6 40 -28 0 -31 -3 -25 -22z"/>
 <path d="M544 1155 c-21 -21 -24 -29 -14 -35 11 -7 11 -11 1 -24 -11 -13 -9 -13 13 -3 16 8 27 23 31 45 8 46 1 49 -31 17z"/>
 <path d="M1424 1163 c2 -10 7 -27 10 -38 6 -21 46 -52 46 -36 0 6 -4 12 -10 16 -5 3 -7 12 -3 21 6 15 -22 54 -39 54 -5 0 -7 -8 -4 -17z"/>
 <path d="M1451 1055 c0 -5 7 -26 14 -45 12 -32 14 -33 14 -9 1 14 -6 34 -14 45 -8 10 -14 15 -14 9z"/>
 <path d="M470 907 c0 -23 4 -36 10 -32 13 8 13 35 0 55 -7 11 -10 5 -10 -23z"/>
 <path d="M1517 918 c-3 -12 -2 -29 3 -37 7 -12 9 -6 10 22 0 42 -5 48 -13 15z"/>
 </g>
<g id="layer121" fill="#edc6bb" stroke="none">
 <path d="M834 1973 c-4 -16 -19 -67 -35 -114 -24 -77 -34 -119 -43 -199 -2 -14 -7 -41 -11 -61 -8 -42 18 -110 29 -76 3 9 9 25 13 35 3 9 5 24 4 32 -2 13 -1 13 8 0 8 -12 12 -12 28 2 35 31 97 50 174 51 67 1 83 -2 140 -30 39 -20 66 -28 70 -22 8 13 19 -14 19 -47 0 -14 4 -22 10 -19 17 10 28 68 17 95 -5 14 -11 41 -13 60 -8 81 -16 115 -39 177 -14 36 -25 76 -25 88 0 47 -9 55 -65 55 l-53 0 -11 -62 c-10 -61 -10 -63 16 -90 l27 -28 -39 -40 c-22 -22 -45 -40 -52 -40 -14 0 -41 24 -78 68 -19 23 -19 23 8 45 26 22 27 23 12 62 -8 22 -14 50 -15 63 0 19 -5 22 -45 22 -40 0 -45 -3 -51 -27z"/>
 <path d="M943 1530 c-57 -12 -74 -22 -176 -103 -53 -41 -95 -84 -106 -106 -10 -20 -33 -97 -51 -171 -18 -74 -37 -140 -41 -146 -5 -6 -3 -16 3 -22 9 -9 7 -29 -7 -84 -24 -92 -24 -238 -1 -276 3 -6 8 -31 10 -55 2 -24 14 -75 26 -113 89 -268 503 -338 733 -125 50 45 91 155 103 276 3 27 9 54 15 61 5 6 6 14 3 17 -3 3 -2 11 2 18 9 15 10 106 1 129 -3 8 -14 44 -23 78 -14 51 -15 65 -4 72 7 4 10 12 7 17 -4 5 -24 81 -46 168 -28 113 -46 164 -63 182 -39 43 -182 155 -213 168 -42 17 -122 24 -172 15z m132 -161 c19 -17 35 -36 35 -43 0 -6 7 -24 15 -40 18 -33 12 -46 -13 -28 -35 25 -65 32 -151 33 l-89 2 21 32 c51 78 123 96 182 44z m-40 -199 l29 -30 -38 0 -38 0 7 -40 c4 -22 4 -40 1 -40 -3 0 -18 18 -32 40 l-27 41 28 29 c16 17 32 30 35 30 3 0 19 -13 35 -30z m287 -250 c15 -19 28 -40 28 -47 0 -21 -41 -42 -71 -36 -31 6 -85 -4 -75 -14 4 -4 45 -15 93 -24 78 -16 114 -31 102 -43 -9 -9 -289 10 -300 21 -8 8 -8 17 0 32 10 17 9 21 -3 21 -18 0 -36 30 -36 58 0 56 64 82 174 72 52 -5 63 -10 88 -40z m-407 15 c30 -29 32 -68 5 -95 -11 -11 -15 -22 -10 -25 18 -11 10 -30 -17 -41 -16 -6 -66 -12 -113 -13 -47 -1 -105 -4 -129 -8 -34 -4 -43 -3 -39 8 2 8 38 22 84 32 114 27 112 26 90 39 -10 6 -36 8 -58 5 -31 -4 -44 -1 -59 14 -26 26 -24 33 16 74 35 35 37 35 121 35 77 0 87 -2 109 -25z"/>
 <path d="M969 1375 c-15 -8 -29 -25 -31 -38 -5 -23 -2 -25 56 -30 34 -3 69 -8 79 -12 26 -11 22 37 -5 63 -31 28 -68 35 -99 17z"/>
 <path d="M1124 916 c18 -29 30 -29 42 -2 11 23 10 24 -22 23 -30 -2 -32 -4 -20 -21z"/>
 <path d="M1274 906 c1 -27 5 -36 18 -36 29 0 32 21 6 47 l-25 24 1 -35z"/>
 <path d="M701 916 c-25 -27 -21 -46 10 -46 12 0 19 7 19 19 0 11 3 26 6 35 9 24 -9 19 -35 -8z"/>
 <path d="M834 916 c3 -12 6 -25 6 -30 0 -11 29 13 40 33 6 13 2 16 -22 17 -25 1 -29 -2 -24 -20z"/>
 <path d="M544 1155 c-21 -21 -24 -29 -14 -35 11 -7 11 -11 1 -24 -11 -13 -9 -13 13 -3 16 8 27 23 31 45 8 46 1 49 -31 17z"/>
 <path d="M1424 1163 c2 -10 7 -27 10 -38 6 -21 46 -52 46 -36 0 6 -4 12 -10 16 -5 3 -7 12 -3 21 6 15 -22 54 -39 54 -5 0 -7 -8 -4 -17z"/>
 <path d="M1451 1055 c0 -5 7 -26 14 -45 12 -32 14 -33 14 -9 1 14 -6 34 -14 45 -8 10 -14 15 -14 9z"/>
 <path d="M470 907 c0 -23 4 -36 10 -32 13 8 13 35 0 55 -7 11 -10 5 -10 -23z"/>
 <path d="M1517 918 c-3 -12 -2 -29 3 -37 7 -12 9 -6 10 22 0 42 -5 48 -13 15z"/>
 </g>
<g id="layer122" fill="#d6cfd3" stroke="none">
 <path d="M834 1973 c-4 -16 -19 -67 -35 -114 -24 -77 -34 -119 -43 -199 -2 -14 -7 -41 -11 -61 -5 -26 -2 -46 8 -65 17 -32 18 -31 37 46 15 57 21 64 89 100 71 39 110 70 94 76 -6 3 -24 21 -39 41 l-27 35 27 22 c25 20 26 22 11 61 -8 22 -14 50 -15 63 0 19 -5 22 -45 22 -40 0 -45 -3 -51 -27z"/>
 <path d="M1051 1938 c-10 -61 -10 -63 16 -90 l27 -28 -38 -38 c-42 -44 -43 -43 49 -91 33 -17 67 -36 76 -43 23 -19 49 -73 49 -103 0 -15 4 -23 10 -20 17 10 28 68 17 95 -5 14 -11 41 -13 60 -8 81 -16 115 -39 177 -14 36 -25 76 -25 88 0 47 -9 55 -65 55 l-53 0 -11 -62z"/>
 <path d="M969 1375 c-15 -8 -29 -25 -31 -38 -5 -23 -2 -25 56 -30 34 -3 69 -8 79 -12 26 -11 22 37 -5 63 -31 28 -68 35 -99 17z"/>
 <path d="M701 916 c-25 -27 -21 -46 10 -46 12 0 19 7 19 19 0 11 3 26 6 35 9 24 -9 19 -35 -8z"/>
 <path d="M831 928 c0 -7 4 -21 8 -31 6 -17 8 -17 25 2 21 23 21 26 -11 35 -16 5 -23 3 -22 -6z"/>
 <path d="M1138 933 c-10 -2 -18 -8 -18 -13 0 -9 29 -35 33 -29 30 53 30 54 -15 42z"/>
 <path d="M1274 906 c1 -27 5 -36 18 -36 29 0 32 21 6 47 l-25 24 1 -35z"/>
 </g>
<g id="layer123" fill="#dedde6" stroke="none">
 <path d="M830 1948 c-7 -29 -18 -66 -25 -83 -20 -47 -44 -156 -51 -231 -3 -38 -8 -73 -11 -78 -4 -5 0 -6 7 -1 9 6 12 4 8 -7 -4 -8 -2 -21 2 -29 10 -16 12 -12 30 68 13 59 19 65 108 113 36 20 67 40 69 46 2 6 -13 27 -33 48 -38 39 -38 42 -2 61 25 12 25 17 5 90 -13 49 -14 50 -54 53 l-41 3 -12 -53z"/>
 <path d="M1053 1938 c-12 -60 -11 -62 13 -84 31 -30 31 -37 -11 -78 l-34 -35 57 -27 c104 -48 152 -98 152 -159 0 -14 5 -25 12 -25 6 0 9 3 5 6 -3 4 0 19 8 34 10 19 11 30 3 38 -5 5 -12 32 -14 59 -4 50 -11 94 -15 103 -1 3 -3 10 -4 15 -1 6 -5 17 -8 25 -20 45 -46 143 -41 152 12 19 -19 38 -65 38 l-46 0 -12 -62z m88 -55 c-5 -10 -17 -27 -26 -38 -16 -19 -17 -19 -3 5 26 46 29 50 34 50 3 0 0 -8 -5 -17z"/>
 <path d="M958 1368 c-8 -7 -18 -23 -21 -35 -5 -22 -2 -23 48 -23 30 0 66 -5 81 -10 23 -9 25 -9 15 4 -9 11 -9 15 1 18 8 3 4 13 -14 31 -30 30 -82 36 -110 15z m52 -28 c11 -7 5 -10 -23 -10 -23 0 -36 4 -32 10 8 13 35 13 55 0z"/>
 <path d="M704 913 c-27 -25 -27 -27 -9 -34 32 -12 38 -10 32 10 -2 10 0 26 5 35 13 23 5 20 -28 -11z"/>
 <path d="M831 928 c0 -7 4 -22 8 -32 7 -18 8 -18 24 5 16 22 16 24 0 31 -27 10 -33 9 -32 -4z"/>
 <path d="M1142 931 c-24 -6 -24 -6 -4 -24 19 -17 20 -17 25 5 7 27 8 26 -21 19z"/>
 <path d="M1274 906 c1 -27 5 -36 18 -36 29 0 32 21 6 47 l-25 24 1 -35z"/>
 </g>
<g id="layer124" fill="#f4f3f5" stroke="none">
 <path d="M840 1975 c0 -14 14 -47 31 -75 17 -28 28 -54 25 -57 -9 -9 -20 4 -45 51 l-20 39 -12 -29 c-21 -55 -60 -219 -64 -275 -4 -39 -1 -61 10 -75 14 -18 14 -18 15 9 0 63 24 92 109 138 45 24 81 47 81 50 0 3 -16 23 -36 43 l-37 38 27 21 c23 20 25 26 17 57 -5 19 -12 47 -15 63 -6 24 -11 27 -46 27 -36 0 -40 -3 -40 -25z"/>
 <path d="M1066 1988 c-26 -98 -26 -102 2 -131 l26 -27 30 52 c17 29 36 59 43 66 10 10 10 17 0 32 -9 15 -23 20 -55 20 -26 0 -44 -5 -46 -12z"/>
 <path d="M1154 1893 c-10 -21 -42 -62 -71 -92 -29 -30 -52 -56 -50 -57 1 -1 34 -18 73 -37 83 -42 124 -85 124 -130 l1 -32 14 27 c11 20 12 33 4 57 -6 18 -9 41 -6 52 3 12 2 29 -3 38 -5 9 -21 59 -35 111 -15 52 -28 96 -30 98 -2 2 -11 -14 -21 -35z"/>
 <path d="M963 1368 c-32 -16 -28 -23 12 -23 46 0 45 -19 -2 -23 -60 -4 -51 -12 15 -12 33 0 68 -3 78 -7 12 -4 15 -3 10 5 -4 7 -2 12 6 12 7 0 -2 14 -20 30 -34 31 -61 36 -99 18z"/>
 <path d="M1147 925 c-14 -10 -15 -14 -3 -24 11 -9 15 -7 19 11 8 28 6 29 -16 13z"/>
 <path d="M708 919 c-16 -9 -26 -39 -14 -39 2 0 11 -2 19 -5 10 -4 14 2 14 25 0 16 -1 30 -1 30 -1 0 -9 -5 -18 -11z"/>
 <path d="M842 921 c2 -7 7 -12 11 -12 12 1 9 15 -3 20 -7 2 -11 -2 -8 -8z"/>
 <path d="M1278 900 c3 -19 9 -27 18 -23 20 7 17 30 -4 42 -16 9 -18 6 -14 -19z"/>
 </g>

</svg>