<?xml version="1.0" encoding="UTF-8" standalone="no"?>
<svg xmlns:rdf="http://www.w3.org/1999/02/22-rdf-syntax-ns#" xmlns="http://www.w3.org/2000/svg" height="267" viewBox="0 0 266.66666 266.66666" width="267" version="1.1" xmlns:cc="http://creativecommons.org/ns#" xmlns:dc="http://purl.org/dc/elements/1.1/">
 <g stroke-width="1.33">
  <path d="m24.7 262c1.33-8.65 7.47-19.9 12.4-22.7 2.32-1.32 10.1-3.84 17.3-5.59 18.5-4.5 43-13.3 45.1-16.2.991-1.35 2.1-2.16 2.46-1.8.363.366 1.3 5.16 2.08 10.7.782 5.5 3.14 15.4 5.24 22l3.81 12 2.77-5.4c1.52-2.97 5.73-8.55 9.35-12.4l6.58-7.01-9.88-5.42c-5.43-2.98-10.8-6.86-12-8.63-1.16-1.76-2.5-7.11-3-11.9-.895-8.65-.935-8.72-9.73-16.7-8.68-7.83-9.76-9.68-13-22.2-.944-3.67-2.04-5.38-3.17-4.95-3.22 1.24-8.49-4.49-10.1-11-.874-3.47-3.65-9.65-6.17-13.7-6.7-10.8-5.85-22.7 1.61-22.7 1.63 0 1.85-1.31 1.19-7-1.33-11.5 2.21-29.9 7.78-40.5 3.91-7.45 6.64-10.6 14.4-16.5 5.26-4.03 11.8-8.61 14.5-10.2 19.7-11.3 47.4-10.2 65.4 2.53 19.7 14 22.7 17.2 27.6 29.8 3.45 8.83 6.07 27 5.09 35.3-.598 5.05-.355 6.54 1.07 6.54 3.49 0 6.03 4.1 6.03 9.74 0 3.97-1.28 7.63-4.53 12.9-2.49 4.05-5.25 10.1-6.13 13.4-1.94 7.28-3.43 9.23-8.82 11.5-3.42 1.43-4.31 2.71-5.04 7.27-1.3 8.15-3.82 12.1-12.8 20.2-7.98 7.22-8.04 7.34-8.04 14.6 0 10.4-3.48 15.1-16.3 21.8l-10.3 5.39 5.96 5.85c3.28 3.22 7.6 8.98 9.61 12.8l3.64 6.96 3.07-9.53c1.69-5.24 3.93-14.3 4.97-20.2 1.05-5.87 2.32-11.7 2.83-13.1.878-2.28 1.07-2.27 3.75.242 3.24 3.03 34.6 13.8 47.5 16.4 4.77.933 10.9 3.07 13.6 4.76 5.81 3.57 11.3 13.4 12.6 22.4l.821 5.99h-44.8c-44.3 0-44.8-.0321-44.8-2.73 0-2.97-2.87-9.15-6.93-14.9-2.52-3.58-2.65-3.61-5.84-1.33-3.37 2.4-3.44 3.4-1.07 15.3l.727 3.67h-8.77c-8.23 0-8.77-.187-8.71-3 .0322-1.65.866-5.26 1.85-8.03 1.67-4.68 1.6-5.17-1.02-7-1.55-1.08-3.22-1.97-3.73-1.97-1.52 0-9.16 14.4-9.16 17.3 0 2.64-.777 2.69-44.8 2.69h-45.6zm118-77c2.11-2.2 3.08-4 2.17-4-.919 0-1.24-.690-.708-1.54.669-1.08-.005-1.29-2.25-.685-1.76.472-6.39.867-10.3.877-4.38.0107-6.76.527-6.25 1.35.453.733 3.34 1.35 6.41 1.37 4.59.0333 5.15.294 3.16 1.45-1.34.777-3.89 1.05-5.67.601-4.07-1.02-4.24 1.02-.237 2.94 5.36 2.59 9.62 1.85 13.7-2.37zm-43.1-56.5c-.428-3.66-1-4.38-3.07-3.84-3.4.890-3.21 3.73.424 6.28 1.63 1.14 3.01 2.08 3.07 2.08.0562 0-.135-2.03-.424-4.51zm18.4 2.26c0-.334-.9-1.51-2-2.61s-2-1.41-2-.680c0 .726-.347 2.22-.772 3.33-.580 1.51-.0817 1.83 2 1.29 1.52-.399 2.77-.998 2.77-1.33zm36.9-.899c-1.21-2.57-1.8-2.83-3.21-1.43-2.63 2.63-1.97 3.4 3.82 4.42.481.0851.206-1.26-.612-3zm18.8-2.5c.219-1.1-.774-2.31-2.21-2.68-2.14-.559-2.7.121-3.13 3.81-.498 4.26-.386 4.4 2.21 2.68 1.5-.995 2.91-2.71 3.13-3.81z" fill="#ebc4b8"/>
  <path d="m24.8 262c.514-3.12 2.46-8.81 4.33-12.7 4.1-8.44 9.37-11.9 22-14.6 15.9-3.32 47.7-14.4 47.7-16.6 0-.669.9-1.22 2-1.22s2.01.75 2.03 1.67c.0987 6.23 3.17 20.9 6.6 31.6 6.29 19.5 11.2 17.4-40.7 17.4h-44.8zm101 3.88c0-.983.842-4.59 1.87-8 1.82-6.06 1.79-6.28-1.44-8.82l-3.31-2.61 3.51-4.61c5.55-7.27 9.1-7.91 15.3-2.72 4.77 4.02 5.27 7.83 1.3 9.95-2.45 1.31-2.69 2.27-1.92 7.71.482 3.42 1.18 7.26 1.56 8.55.599 2.05-.366 2.33-8.08 2.33-6.43 0-8.76-.474-8.76-1.79zm30.7.121c.008-.917 1.83-7.67 4.04-15 2.22-7.33 4.63-17.5 5.36-22.6 1.51-10.6 2.79-12.7 5.86-9.61 2.4 2.4 39.6 14.8 48.7 16.3 9.7 1.54 16.7 6.46 20.6 14.4 1.84 3.8 3.74 9.45 4.22 12.6l.878 5.67h-44.8c-35 0-44.8-.366-44.8-1.67zm-31.3-44.9c-4.61-1.11-9.11-3.38-14.3-7.23-2.98-2.19-3.67-3.74-3.67-8.22 0-5.03-.542-5.91-6.11-9.91-8.43-6.05-13.2-13.1-15.2-22.7-1.59-7.49-1.97-8.07-5.37-8.07-4.55 0-6.17-1.91-8.62-10.2-1.06-3.58-3.77-9.4-6.02-12.9-5.24-8.26-6.66-17.2-3.32-20.9 1.32-1.45 3.12-2.64 4-2.64 1.14 0 1.61-3.59 1.62-12.3.0155-20.4 6.16-38 16.3-46.5l8.06-6.76c27-22.6 59.8-21.5 89 2.91 14.9 12.4 20.3 25.8 20.3 49.6 0 10 .413 13.1 1.79 13.1.986 0 2.87 1.19 4.18 2.63 3.36 3.71 2.12 12.6-2.78 20-2.12 3.19-5.06 9.46-6.53 13.9-2.37 7.23-3.18 8.3-7.33 9.64-4.35 1.4-4.79 2.07-6.48 9.83-1.84 8.42-6.15 14.1-17.8 23.7-3.22 2.63-3.67 3.91-3.69 10.7-.014 5.27-.410 7.06-1.26 5.71-1.05-1.66-1.74-1.5-4.49 1.08-6.06 5.69-21.1 8.33-32.2 5.64zm23-13.9c6.82-2.48 28.3-19.9 31.2-25.2 2.53-4.73 10.9-40.4 10.7-45.4-.132-2.78.677-8.14 1.8-11.9 2.69-9.07 2.56-16.2-.609-33-4.44-23.6-6.48-29-13.3-35.6-13.2-12.7-34.3-19.4-51.9-16.4-17.6 2.97-35.1 14.4-40.2 26.2-2.28 5.3-9.28 40.1-9.28 46.1 0 1.63 1.3 8.05 2.88 14.3 1.82 7.12 2.38 11.5 1.52 11.8-.831.277.786 8.94 4.12 22.1 5.35 21.1 5.63 21.8 11.5 27.6 8.78 8.74 20.5 17.7 25.6 19.5 5.63 2.04 20.5 2.06 26 .0292zm-18.9-18.6c-2.89-1.66-6.31-4.81-7.6-7.01l-2.34-4 9.6.635c8.35.552 8.77.692 3.23 1.07-7.34.506-7.25 2.86.111 3.16 4.81.196 4.79.219-1.08 1.02l-6 .824 4.67 3.01c3.07 1.98 5.81 2.75 8 2.26 3.95-.885 10.5-7.6 8.12-8.38-1.18-.393-1.17-.999.0597-2.47 1.38-1.66 1.04-1.84-2.28-1.2l-3.9.758 4-1.52c2.2-.833 5.05-2.43 6.33-3.55 2.95-2.57 2.92-1.87-.173 5.27-4.97 11.5-12.2 15-20.8 10.1zm2.06-26.2-4.46-3.64 3.16-4.88c3.98-6.14 5.21-6.21 4.24-.250-.730 4.5-.609 4.67 3.42 4.67 4.99 0 5.05.252 1.14 4.47l-3.04 3.28zm-35.5-29c-4.22-2.57-6.78-7.88-5.11-10.6 1.32-2.14 11.1-4.33 17.5-3.94 10.2.625 7.68-1.04-4-2.67-11.6-1.62-19.4-3.76-19.4-5.3-.0047-1.56 35.8.366 37.4 2.01 1.9 1.9.591 4.25-3.22 5.79l-2.86 1.16 2.92.0845c3.64.105 7.01 4.7 6.08 8.28-1.04 3.99-4.08 4.51-7.51 1.28l-3.04-2.86-1.61 3.52c-1.48 3.24-1.39 3.47 1.11 2.81 1.49-.390 3-.239 3.36.336.356.575-1.22 1.42-3.5 1.87-7.45 1.49-13.7.866-18.1-1.8zm4.4-4.7c-.104-4.83-2.06-5.92-6.07-3.39-1.66 1.05-1.46 1.78 1.23 4.65 4.22 4.49 4.95 4.3 4.83-1.26zm52.2 6.37c-2.03-.307-3.34-1.12-2.92-1.81.424-.686 2.25-.878 4.05-.425 3.04.763 3.18.580 2-2.52-0.7-1.84-.861-3.84-.358-4.44.503-.601-.285-.213-1.75.863-1.47 1.08-3.33 2.8-4.14 3.84-1.89 2.41-5.28 1.13-6.19-2.35-.943-3.6 2.45-8.19 6.08-8.22 2.85-.0191 2.84-.0618-.304-1.67-4.14-2.11-4.86-4.36-1.83-5.76 2.87-1.33 36.4-2.91 36.4-1.71-.005 1.55-7.27 3.68-18 5.27-11.8 1.75-16.5 3.87-6.4 2.9 7.62-.732 17.2 1.55 18.2 4.36 1.18 3.07-1.93 8.62-6.02 10.7-3.49 1.8-10.7 2.17-18.8.943zm21-7.85c0-1.37-.981-2.67-2.18-2.91-1.61-.310-2.32.811-2.73 4.3-.525 4.5-.423 4.63 2.18 2.91 1.5-.997 2.73-2.93 2.73-4.3zm-93.3 31.8c-.514-2.75-1.03-5-1.15-5-.118 0-1.38-.643-2.8-1.43-3.53-1.95-4.22-4.57-1.04-3.96 2.06.397 2.43-.123 1.94-2.73-.338-1.77-1.21-3.22-1.94-3.22-.726 0-.975-.9-.553-2s.186-2-.524-2-1.29 2.14-1.29 4.75c0 3.46-.453 4.47-1.67 3.72-.917-.565-.623.568.652 2.52s2 4.37 1.62 5.37c-.775 2.02 4.12 8.98 6.31 8.98.878 0 1.04-1.83.451-5zm113 1.42c1.55-1.97 2.5-4.4 2.11-5.4-.386-1 .245-3.27 1.4-5.04 2-3.05 1.97-3.18-.682-2.67-1.53.295-2.78-.0292-2.78-.720s.6-1.26 1.33-1.26c.733 0 1.33-1.65 1.33-3.67l-.008-3.67-1.73 3.33c-3.48 6.7-3.61 7.85-.843 7.32 3.58-.690 3.24 1.31-.725 4.24-3.41 2.51-6.21 11.1-3.62 11.1.772 0 2.67-1.61 4.22-3.58zm-123-24c.736-1.94 1.09-3.77.788-4.07-.302-.302-1.19 1.28-1.97 3.52-1.73 4.97-.687 5.46 1.18.550zm129-1.82c-.501-1.58-1.21-2.57-1.58-2.2-.367.367-.257 1.96.243 3.53.501 1.58 1.21 2.57 1.58 2.2.367-.367.257-1.96-.243-3.53zm-130-2c1.05-2.77.898-4.02-0.7-5.62-1.85-1.85-2.05-1.5-2.05 3.56 0 6.48.834 7.11 2.75 2.05zm133-5c-.445-2.93-.490-2.94-1.94-.333-1.05 1.9-1.07 3.63-.0728 6 1.4 3.32 1.41 3.32 1.94.333.290-1.65.323-4.35.0728-6zm-134-5c-.433-.701-1.67-.937-2.75-.524-2.76 1.06-2.43 1.8.788 1.8 1.51 0 2.39-.574 1.96-1.28zm137 .751c0-.288-.9-.869-2-1.29-1.1-.422-2-.186-2 .524s.9 1.29 2 1.29 2-.236 2-.524z" fill="#dcac9d"/>
  <path d="m24.8 263c.504-2.75 2.45-8.44 4.32-12.6 4.22-9.46 8.87-12.5 24.4-15.8 13.5-2.88 42.4-12.7 45.5-15.5 2.82-2.5 3.21-1.73 4.96 9.63.797 5.18 3.26 15.3 5.48 22.5 2.21 7.2 4.03 13.9 4.03 14.9 0 1.52-7.65 1.84-44.8 1.84h-44.9zm101 4c.009-.55.890-4.29 1.96-8.3 1.51-5.69 1.58-7.52.318-8.3-5.81-3.55-5.81-3.42-.346-9.01 2.89-2.96 6.28-5.39 7.52-5.39 2.85 0 10.5 7.08 10.5 9.71 0 1.09-1.48 2.95-3.29 4.13-1.81 1.19-3.01 2.9-2.67 3.82.341.915 1.14 4.51 1.78 8l1.17 6.33h-8.49c-4.67 0-8.49-.45-8.48-1zm30.7-.212c0-.666 2.06-8.32 4.58-17s4.99-18.9 5.48-22.6c1.18-8.96 2.56-11.3 4.88-8.23 1.97 2.6 33.2 13.3 47.1 16.1 10.9 2.22 17.3 5.74 20.7 11.4 2.45 4.03 6.62 16.5 6.62 19.8 0 1.42-8.58 1.76-44.7 1.76-25.9 0-44.7-.509-44.7-1.21zm4.97-54c-.942-2.3-1.86-2.42-10.7-1.36-5.3.637-13.8.947-19 .689-5.13-.258-12.3-.544-16-.636-7.54-.189-8.62-1.07-8.65-7.11-.0169-3.52-1.13-5.11-6.35-9.06-7.53-5.7-13.7-13.4-13.7-17.2 0-1.77 1.04-.640 3 3.24 2.08 4.12 6.7 8.92 15 15.6 14.3 11.5 22.1 14.5 34.5 13.2 10.5-1.1 17.8-5.51 34.4-20.8l6.51-6 5.73-22.3c3.65-14.2 5.21-22.5 4.3-22.8-.988-.329-.858-2.91.422-8.37 3.13-13.3 3.16-21.1.166-38.6-3.81-22.3-6.87-30-14.6-36.8-21.3-18.8-51.7-20.9-75.5-5.33-14.2 9.26-16 12.6-21.3 40.2-3.76 19.3-4.01 26.4-1.27 35.5 2.33 7.68 2.6 13.9.602 13.9-.777 0-1.1.506-.718 1.12 1.29 2.09 8.8 30.9 8.66 33.2-.0758 1.27-.735.0611-1.47-2.69-1.03-3.88-1.99-5-4.3-5-3.95 0-8.26-4.9-9.4-10.7-.506-2.57-2.89-7.97-5.3-12-7.12-11.9-7.41-21.2-.733-23.3 2.41-.766 2.67-2.02 2.67-13.1 0-19.5 6.22-38.3 15.1-45.5 12.7-10.4 16.8-13.2 23.5-16.6 11.6-5.77 18.8-7.22 31.8-6.44 15.9.948 24.6 4.65 42.2 18.1 14.3 10.9 19.5 22.7 20.5 46.6.371 8.98 1.19 16.3 1.83 16.3 2.42 0 6.49 5.48 6.49 8.75 0 1.88-.544 3.08-1.21 2.66-.665-.411-.905.416-.533 1.84.408 1.56-1.22 5.66-4.1 10.3-2.63 4.26-5.17 9.85-5.65 12.4-1.08 5.78-5.34 10.7-9.3 10.7-2.48 0-3.14.961-3.9 5.67-1.69 10.5-5.28 16.5-13.8 23.1-7.99 6.21-8.05 6.31-8.45 13.8-.269 5.11-.724 6.7-1.43 4.98zm-78.6-51.1c-.356-1.28-2.02-7.28-3.7-13.3-3.23-11.7-5.3-14.1-5.3-6.25 0 3.18-.496 4.44-1.5 3.82-.963-.595-1.24-3.44-.777-7.94 1.03-10-3.35-21.5-6.35-16.7-.477.772-.282 1.4.433 1.4.716 0 1.3 2.67 1.3 5.93s.390 7.16.868 8.67c1.38 4.35-.586 3.17-2.66-1.6-1.04-2.38-1.91-3.33-1.94-2.1-.0287 1.23 1.31 3.93 2.98 6 3.66 4.55 7.64 13 7.64 16.2 0 3.63 3.86 8.25 6.9 8.25 1.97 0 2.56-.657 2.1-2.33zm111 .127c1.34-1.21 2.44-3.64 2.44-5.39 0-3.45 4.21-12.5 8.18-17.6 1.37-1.75 2.46-3.85 2.43-4.67-.0293-.818-.949.163-2.04 2.18s-2.21 3.67-2.49 3.67c-1.09 0 1.06-16.7 2.25-17.5.769-.501.645-1.23-.312-1.82-2.11-1.3-3.26.216-5.11 6.73-1.04 3.66-1.13 6.85-.269 9.84.822 2.87.799 5.3-.0683 6.92-1.59 2.97-3.19 3.35-2.09.498.422-1.1.255-3.35-.371-5l-1.14-3-1.45 3.33c-.798 1.83-2.38 7.06-3.51 11.6-1.13 4.56-2.41 9.21-2.85 10.3-1.07 2.8 3.25 2.69 6.4-.164zm-70.5 21.9c-2.84-3.67-3.14-4.99-1.15-4.99 2.4 0 5.35 4.83 3.61 5.9-.652.403-1.76-.0107-2.46-.919zm23.6-4.56c0-1.52.987-3.59 2.19-4.59 1.96-1.63 2.09-1.47 1.18 1.5-1.42 4.68-3.38 6.47-3.38 3.09zm-15.8-16.8c-3.56-3.79-3.58-4.3-.174-8.63l2.73-3.47-.298 4.59c-.164 2.52.431 5.94 1.32 7.59 2.1 3.9.121 3.85-3.58-.0859zm-30.4-27.2c-4.42-.869-10.3-7.69-9.27-10.8 2.07-6.52 19.6-5.62 27.1 1.39 3.51 3.29 4.11 6.38.667 3.42-3.46-2.97-6.25-4.43-5.19-2.72 1.39 2.26-1.84 8-4.97 8.84-2.97.797-3.72.786-8.32-.119zm.822-3.74c-.910-1.1-1.34-3.2-.955-4.67.765-2.93-2.13-3.63-5.68-1.39-1.66 1.05-1.46 1.78 1.23 4.65 3.52 3.74 8.4 5.02 5.41 1.41zm58.3 3.78c-1.28-.357-2.69-2.26-3.12-4.22-.431-1.96-.896-4.06-1.03-4.66-.137-.603-1.88.191-3.88 1.76s-3.63 2.48-3.63 2.01c0-7.76 20.9-13.4 28-7.59 3.27 2.65 2.63 5.44-2.24 9.81-2.64 2.37-10.3 3.94-14.1 2.89zm13.6-5.35c2.17-2.76 2.42-3.81 1.1-4.65-2.48-1.57-6.07-1.36-7.17.416-.625 1.01-.362 1.17.767.477 1.3-.806 1.57-.0518 1.1 3.13-.752 5.13.511 5.32 4.2.626zm-65.9-13.5c-7.33-1.06-15.1-2.74-17.3-3.74-3.59-1.62-2.26-1.78 13-1.52 13.4.227 17.4.727 19.1 2.4 4.09 4.1-.274 4.95-14.7 2.86zm40.5.936c-2.72-1.68-.191-5.06 4.41-5.91 2.42-.444 10.7-.628 18.4-.407 13.3.382 13.7.480 8.67 2.03-8.03 2.45-29.7 5.4-31.5 4.28z" fill="#c28875"/>
  <path d="m24.9 263c1.45-8.35 6.67-18.4 11.4-22.1 2.97-2.27 8.71-4.36 16.8-6.12 6.74-1.47 14.8-3.57 18-4.66 20.9-7.28 26-9.28 28-11.1 2.81-2.52 3-2.11 4.93 11.1.760 5.18 3.19 15.1 5.4 22 2.21 6.92 4.02 13.3 4.03 14.2.006 1.3-9.82 1.67-44.7 1.67h-44.7zm101 1.33c.452-2.02 1.36-5.77 2.02-8.33 1.2-4.66.0736-6.7-4.65-8.45-2.06-.765 8.54-11.5 11.4-11.5 2.25 0 10.5 7.23 10.5 9.2 0 .549-1.43 2.34-3.17 3.98-2.76 2.59-3.02 3.63-2.03 7.9 2.43 10.5 2.14 10.9-6.82 10.9h-8.03zm29.9 3.26c0-.222 2.11-7.87 4.69-17s5.05-19.7 5.5-23.5c1.05-8.9 2.42-11.3 4.76-8.24 2.1 2.72 29.5 12.3 45.3 15.8 13.4 2.99 18.9 5.93 22.6 11.9 2.2 3.62 6.49 17 6.49 20.3 0 .579-20.1 1.05-44.7 1.05s-44.7-.181-44.7-.403zm5.67-58.9c.0148-2.93.288-3.98.607-2.32s.307 4.06-.0269 5.33-.595-.0823-.580-3.02zm-31.3 2.37c2.38-.296 6.28-.296 8.67 0 2.38.296.433.538-4.33.538-4.77 0-6.72-.242-4.33-.538zm-7.92-1.28c.962-.385 2.11-.338 2.56.105.443.443-.344.758-1.75 0.7-1.55-.064-1.87-.380-.806-.806zm-5.74-1.74c-.467-.756.0681-.979 1.25-.524 2.31.886 2.73 1.84.815 1.84-.690 0-1.62-.593-2.07-1.32zm32.7.794c0-.288.931-.881 2.07-1.32 1.19-.455 1.72-.232 1.25.524-.783 1.27-3.32 1.87-3.32.794zm-42.5-5.19c-.133-3.2.180-3.53 2.29-2.41 1.34.719 3.28 2.39 4.31 3.71 1.79 2.3 1.75 2.31-.881.0728-1.51-1.28-3.11-2.33-3.55-2.33-.438 0-1.07 1.05-1.41 2.33-.370 1.42-.671.875-.764-1.38zm49.1 1.31c2.46-3.17 6.75-5.49 6.75-3.64 0 .759-.703 1.38-1.56 1.38-.859 0-2.8 1.05-4.31 2.33-2.63 2.23-2.67 2.23-.881-.0728zm12.1-9.43c0-.277 1.05-1.33 2.33-2.33 2.11-1.66 2.16-1.61.503.503-1.74 2.22-2.84 2.93-2.84 1.83zm-45.3-12.1c-2.58-3.11-.926-5.24 1.76-2.26 1.34 1.48 1.83 2.98 1.12 3.42-.698.431-1.99-.0889-2.88-1.16zm24-4.87c-.0233-1.19.858-2.92 1.96-3.83 2.56-2.13 2.59.0431.0424 3.41-1.64 2.17-1.96 2.24-2 .418zm-65.7-15c.422-1.1 1-2 1.29-2 .288 0 .524.9.524 2s-.581 2-1.29 2c-.710 0-.946-.9-.524-2zm103 0c0-1.1.236-2 .524-2s.869.9 1.29 2c.422 1.1.186 2-.524 2s-1.29-.9-1.29-2zm4 1.48c0-.288.931-.881 2.07-1.32 1.19-.455 1.72-.232 1.25.524-.783 1.27-3.32 1.87-3.32.794zm-59.2-3.36c-2.18-2.4-2.18-2.76-.0533-6 1.24-1.9 2.34-3.44 2.44-3.44.224.005.312 12 .0886 12-.0891 0-1.2-1.15-2.47-2.55zm67.3-10.1c0-.733.582-2.23 1.29-3.33.711-1.1 1.29-1.4 1.29-.667s-.582 2.23-1.29 3.33c-.711 1.1-1.29 1.4-1.29.667zm-126-10c-.0467-2.2.406-4.77 1.01-5.72.628-.989.0713-4.67-1.31-8.67-3.02-8.75-3.28-28.8-.506-39.5 4.11-15.9 8.97-23.3 20.9-32l4.5-3.3-4.83 5.45c-5.75 6.48-8.24 13.5-11.8 33.1-3.27 18.1-3.36 26.4-.401 37.5 1.94 7.27 2.01 8.8.454 9.76-1.01.627-2.58.855-3.49.507-.921-.353-2.25 1.02-3.02 3.12l-1.37 3.76-.0848-4zm126 .333c-.954-3.53-3.61-5.18-3.61-2.24 0 .786-.966.463-2.15-.717-1.26-1.26-1.86-3.36-1.46-5.1 5.1-21.9 5.03-20.7 2.16-36.9-3.74-21.2-4.98-26.3-7.96-32.4-3.29-6.8-2.34-7.74 2.84-2.79 5.56 5.32 11.4 18 13.3 29 2.06 11.8 1.14 33.6-1.64 38.9-1.51 2.88-1.75 4.92-.868 7.27.677 1.8 1.04 4.5.805 6-.358 2.3-.581 2.15-1.42-.938zm-133-8c-1.78-5.11-1.93-9.2-.328-9.2 1.06 0 3.11 12.1 2.21 13.1-.215.221-1.06-1.52-1.88-3.87zm139 2.36c.422-1.34.767-4.49.767-7s.667-4.56 1.48-4.56c1.69 0 .453 8.71-1.7 12-1.06 1.62-1.16 1.53-.545-.442zm-109-5c-4.21-5-4.26-5.85-.489-8.49 5.75-4.03 18.6-2.17 24.7 3.58 4.23 3.97 3.74 5.79-.635 2.35-2-1.57-3.75-2.37-3.88-1.76-.137.603-.613 2.75-1.06 4.76-.760 3.45-1.24 3.67-8 3.67-6.39 0-7.57-.455-10.6-4.1zm10.7 1.77c-.55-.55-1.7-1.01-2.56-1.03-.918-.0192-1.42-1.75-1.23-4.22.303-3.93.107-4.12-3.25-3.23-1.96.525-3.77 1.55-4.01 2.28-.788 2.36 4.95 7.2 8.54 7.2 1.93 0 3.05-.45 2.5-1zm53.2.896c-.489-.791-1.29-2.93-1.78-4.76l-.889-3.32-3.63 2.86c-4.37 3.44-4.87 1.62-.634-2.35 5.69-5.33 17.7-7.49 23.8-4.27 3.7 1.98 3.24 7.24-.934 10.5-3.82 3-14.3 3.88-15.9 1.33zm3.4-.484c0-.323-.6-.959-1.33-1.41-.733-.453-1.33-.189-1.33.588s.6 1.41 1.33 1.41c.733 0 1.33-.265 1.33-.588zm12-2.76c4.23-4.5 1.68-6.68-7.18-6.14-2.06.126-2.21.504-.849 2.14.906 1.09 2.27 1.6 3.02 1.13.891-.551 1.06.395.490 2.68-1.11 4.44.458 4.5 4.51.181zm-71-15c-17.5-2.93-17.8-4.46-.882-4.36 16.7.105 21.1.972 21.8 4.22.543 2.82-4.67 2.86-20.9.139zm45.4-.187c.595-3.09 5.53-4 22.4-4.15 16.6-.139 15.6 1.44-2.82 4.43-16.8 2.72-20.2 2.67-19.6-.283zm-17-77.5c2.38-.296 6.28-.296 8.67 0 2.38.296.433.538-4.33.538-4.77 0-6.72-.242-4.33-.538z" fill="#ac735f"/>
  <path d="m24.9 264c4.47-20.2 9.3-25.1 29.3-29.6 14.9-3.35 41.4-12.5 44.6-15.4 2.27-2.06 2.48-2.04 3.11.225.371 1.34 1.06 5.43 1.52 9.1.466 3.67 2.55 12.4 4.63 19.3 2.08 6.97 4.16 14.3 4.62 16.3l.840 3.67h-89.9zm103-4.64 1.94-8.31-3.48-2.54-3.48-2.54 5.03-5.15c2.77-2.83 5.99-5.15 7.17-5.15 1.17 0 4.17 2.1 6.65 4.66l4.52 4.66-3.52 3.68c-3.18 3.32-3.4 4.19-2.29 9.01 2.28 9.86 2.19 10-6.58 10h-7.88zm30.5 1.31c.906-3.85 2.86-10.9 4.33-15.7 1.48-4.77 3.09-11.4 3.58-14.7 2.02-13.5 2.11-13.7 4.58-11.5 3.17 2.87 29.2 11.9 44.2 15.4 6.97 1.61 14.9 4.39 17.6 6.18 5.28 3.45 9.44 10.2 11 17.9.511 2.57 1.22 5.72 1.59 7 .616 2.19-2.1 2.33-43.9 2.33h-45zm-35-77c-1.65-3.08.187-3.67 2.55-.823 1.01 1.21 1.09 2.17.230 2.7-.732.452-1.98-.394-2.78-1.88zm24-3.63c.0112-.593.602-1.98 1.31-3.08 1.11-1.72 1.3-1.69 1.31.255.0107 1.24-.580 2.63-1.31 3.08-.733.453-1.32.339-1.31-.255zm-75.2-51c-7.8-21-2.4-53.2 11.1-66.7 4.02-4.02 7.27-4.83 4.11-1.02-2.88 3.47-5.69 13.7-8.95 32.6-3.52 20.4-3.59 18.6 1.69 41.3.546 2.35.115 3-1.97 3s-3.4-1.99-5.98-8.95zm118 7.95c.0172-.55 1.22-5.46 2.67-10.9 1.45-5.45 2.64-11.3 2.64-13 0-6.85-6.88-39.8-9.84-47.2-2.85-7.05-2.91-7.66-.703-6.48 3.85 2.06 10.1 12 13.4 21.4 2.5 7.12 3.02 11.5 3.09 25.9.0743 15.7-.231 18-3.17 24.3-2.17 4.67-4.05 7-5.67 7-1.33 0-2.4-.45-2.39-1zm-93.9-4.43c-4.17-3.28-4.64-8.54-.934-10.5 6.3-3.37 23.6 1.17 25.2 6.62.470 1.58.0412 1.51-2.04-.333-1.45-1.28-3.64-2.33-4.86-2.33-1.24 0-2.22 1.03-2.21 2.33.0174 1.99.208 2.04 1.31.333 1.81-2.81 1.77.685-.0469 4.09-.960 1.79-2.69 2.53-5.67 2.42l-4.29-.158 4-.893 4-.893-3.33-1.09c-1.83-.601-3.78-1.03-4.33-.949-.55.0793-1-1.66-1-3.86 0-4.51.0752-4.47-4.58-2.7-4.34 1.65-4.31 3.33.108 7.43 4.3 3.99 3.47 4.3-1.35.506zm64.8 1.85c1.83-.480 1.97-.960.674-2.34-.895-.958-2.38-1.45-3.3-1.1-1.02.390-1.67-.461-1.67-2.17 0-3.58-1.03-3.54-5.1.191-2.09 1.92-3.05 2.28-2.65 1 .911-2.94 8.68-7.8 14.1-8.82 7.18-1.35 14.2.832 14.8 4.56.483 3.41-1.45 6.32-5.66 8.53-2.14 1.12-1.93.603.890-2.25 2.02-2.04 3.67-4.24 3.67-4.9 0-1.88-5.8-3.58-9.68-2.84-3.03.579-3.28.949-1.69 2.53 1.02 1.02 2.48 1.85 3.25 1.85.946 0 .908 1.08-.119 3.33-1.17 2.57-2.46 3.3-5.64 3.18-2.27-.0851-3.08-.426-1.82-.758zm-56.2-18.6c-19.2-3-19.6-4.79-.923-3.79 17.1.913 19.9 1.47 19.1 3.8-.720 2.19-4.13 2.19-18.2-.007zm43.2.754c-.483-.782-.489-1.81-.0133-2.29 1.07-1.07 17.5-2.78 27.4-2.83 10.8-.0617 5.85 1.96-10.9 4.45s-15.4 2.44-16.5.676z" fill="#674837"/>
  <path d="m26 261c2.38-10.1 6.68-17.6 11.7-20.5 2.41-1.4 9.19-3.66 15.1-5.02 16.7-3.88 44.7-13.7 46.7-16.3 1.88-2.57 1.77-2.91 4.06 12.6.407 2.75 2.29 10.1 4.18 16.3 1.89 6.23 3.9 13.3 4.45 15.7l1.01 4.33h-84.7l2.65-9c4.06-13.8 4.19-14.7 1.44-9.67-1.41 2.57-3.3 7.82-4.2 11.7-.905 3.85-2.13 7-2.73 7-.594 0-.336-3.15.572-7zm20.3-20c5.1-1.87 5.12-1.9 1.19-1.99-4.19-.0893-12 4.12-10.5 5.65.488.488 1.61.292 2.48-.437.878-.729 3.93-2.18 6.79-3.23zm9.5-2.9c-.443-.443-1.59-.490-2.56-.105-1.06.426-.748.742.806.806 1.41.0579 2.19-.257 1.75-0.7zm33.7-11.2c1.1-.711 1.4-1.29.667-1.29s-2.23.582-3.33 1.29c-1.1.711-1.4 1.29-.667 1.29s2.23-.582 3.33-1.29zm37.3 39.3c0-1.14.696-4.84 1.55-8.22 1.44-5.72 1.34-6.31-1.45-8.57l-3-2.43 2.83-3.6c6.4-8.14 9.32-8.34 16.1-1.13l3.33 3.57-3.77 3.25c-3.65 3.15-3.73 3.46-2.33 9.95 2.03 9.48 2.18 9.24-5.9 9.24-5.75 0-7.33-.448-7.33-2.08zm32.1-6.92c5.49-18.9 7.89-28.9 7.91-32.9.0107-2.27.575-5 1.25-6.07 1.07-1.69 1.55-1.66 3.65.229 1.33 1.2 4.06 2.59 6.07 3.09 2.06.515 3.28 1.52 2.79 2.31-.492.796-.225 1 .619.481.815-.504 7.06.886 13.9 3.09 6.81 2.2 17.3 5.16 23.2 6.57 12.4 2.93 16.7 5.36 20.3 11.3 3.88 6.43 7.81 20.9 5.69 20.9-.666 0-1.63-2.25-2.14-5-.994-5.35-6.07-18.1-6.88-17.3-.269.269.620 3.74 1.97 7.71s2.87 8.87 3.36 10.9l0.9 3.67h-86zm73.2-13.6c1.19-2.22.803-2.93-2.55-4.67-2.18-1.13-5.64-2.01-7.69-1.97-3.28.0637-3.01.354 2.27 2.41 4.03 1.57 5.94 3.08 5.81 4.59-.243 2.97.439 2.86 2.16-.361zm-15-7.52c-.443-.443-1.59-.490-2.56-.105-1.06.426-.748.742.806.806 1.41.0579 2.19-.257 1.75-0.7zm-93.7-55.3c-.483-.782-.593-1.71-.243-2.06s.991.290 1.43 1.42c.902 2.35.133 2.76-1.18.635zm-28.4-51c-1.66-2.11-1.61-2.16.503-.503 1.28 1.01 2.33 2.06 2.33 2.33 0 1.1-1.09.391-2.84-1.83zm10.9-.925c-1.83-2.2-.822-4.74 1.87-4.74 2.55 0 3.56 3.54 1.49 5.25-1.28 1.06-2.17.929-3.37-.511zm55.5 1.04c-.489-.489-.889-1.86-.889-3.05 0-2.89-5.28-3.19-8.3-.461-1.3 1.18-2.37 1.5-2.37.715 0-2.15 7.98-6.54 13.7-7.56 6.44-1.15 14.3 1.28 14.3 4.43 0 1.27-.933 3.47-2.07 4.9-1.96 2.45-1.99 2.42-.498-.640 1.33-2.72 1.2-3.5-.848-5-2.62-1.91-11.2-2.46-11.2-.706 0 .587.680 1.75 1.51 2.58.831.831 1.15 2.45.709 3.6-.843 2.2-2.5 2.7-4 1.2zm-44.7-4.49c-3.87-3.23-9.9-3.39-12.9-.351-2.14 2.14-2.22 2.1-1.34-.667.640-2.02.381-2.93-.824-2.92-3.98.0413-7.65 1.72-8.26 3.79-.358 1.21-.540.737-.405-1.05.180-2.37 1.32-3.54 4.25-4.35 7.37-2.04 20.8 1.83 22.6 6.52.851 2.22.715 2.17-3.06-.974zm82.7-5.29c0-1.83.303-2.58.673-1.67.370.917.370 2.42 0 3.33-.370.917-.673.167-.673-1.67zm-130-3c.0640-1.55.380-1.87.806-.806.385.962.338 2.11-.105 2.56-.443.443-.758-.344-0.7-1.75zm131-12c0-6.23.230-8.78.510-5.67.281 3.12.281 8.22 0 11.3-.281 3.12-.510.567-.510-5.67zm-132-1c.0059-5.13.247-7.07.536-4.3s.284 6.97-.0108 9.33c-.295 2.37-.531.104-.525-5.03zm7.67-12.1c.0640-1.55.380-1.87.806-.806.385.962.338 2.11-.105 2.56-.443.443-.758-.344-0.7-1.75zm-6.56-1.89c0-1.83.303-2.58.673-1.67.370.917.370 2.42 0 3.33-.370.917-.673.167-.673-1.67zm123 .556c.064-1.55.380-1.87.806-.806.385.962.338 2.11-.105 2.56-.443.443-.758-.344-0.7-1.75zm6.67-2.67c.064-1.55.380-1.87.806-.806.385.962.338 2.11-.105 2.56-.443.443-.758-.344-0.7-1.75zm-122-2.8c.0640-1.55.380-1.87.806-.806.385.962.338 2.11-.105 2.56-.443.443-.758-.344-0.7-1.75zm-6.67-1.51c-.153-2.54 5.26-16.2 6.79-17.2.789-.487.691.434-.227 2.15-.884 1.65-2.7 6.07-4.04 9.83-1.34 3.75-2.47 6.1-2.53 5.21zm120-17.2c-1.54-2.61-2.2-4.37-1.46-3.92 1.44.893 5.77 8.66 4.83 8.66-.313 0-1.83-2.14-3.37-4.75zm-112-2.4c0-.277 1.05-1.33 2.33-2.33 2.11-1.66 2.16-1.61.503.503-1.74 2.22-2.84 2.93-2.84 1.83z" fill="#602f1e"/>
  <path d="m79 260c-1.54-4.57-2.58-8.54-2.3-8.82s1.77 3.23 3.31 7.8 2.58 8.54 2.3 8.82-1.77-3.23-3.31-7.8zm27.5-9.19c-2.75-9.91-4.93-20.4-4.84-23.3.143-4.68.299-4.38 1.29 2.42.623 4.26 2.98 13.5 5.24 20.6 2.26 7.04 3.92 14.1 3.71 15.6-.219 1.53-2.65-5.32-5.4-15.2zm20.3 15.3c0-1.14.696-4.84 1.55-8.22 1.44-5.72 1.34-6.31-1.45-8.57l-3-2.43 2.83-3.6c5.31-6.76 7.59-7.64 11.9-4.6 7.35 5.24 7.91 6.77 3.69 10.1-3.69 2.94-3.74 3.16-2.29 9.91.814 3.79 1.48 7.47 1.48 8.17 0 .697-3.3 1.27-7.33 1.27-5.75 0-7.33-.448-7.33-2.08zm30.8.478c-.0725-1.25 1.32-6.95 3.09-12.7 2.95-9.51 5.34-19.8 6.59-28.4.268-1.83.568-.550.668 2.85.201 6.85-9.99 44.5-10.4 38.2zm29.5.265c.368-1.1 1.72-5.19 3-9.09s2.63-6.79 3-6.42c.889.889-3.56 14.5-5.3 16.2-.921.899-1.15.682-.697-.667zm-160-2c0-1.83.303-2.58.673-1.67.370.917.370 2.42 0 3.33-.370.917-.673.167-.673-1.67zm217-1.33c0-1.83.303-2.58.673-1.67.370.917.370 2.42 0 3.33-.370.917-.673.167-.673-1.67zm-1.44-6.11c.064-1.55.380-1.87.806-.806.385.962.338 2.11-.105 2.56-.443.443-.758-.344-0.7-1.75zm-214-3c0-.733.582-2.23 1.29-3.33.711-1.1 1.29-1.4 1.29-.667s-.582 2.23-1.29 3.33c-.711 1.1-1.29 1.4-1.29.667zm54.6-11.3c-2.56-2.12-4.32-4.2-3.91-4.61.412-.412 2.78 1.34 5.25 3.9 5.46 5.64 4.93 5.92-1.34.713zm103-.713c2.48-2.56 4.82-4.33 5.21-3.94.787.787-7.13 8.58-8.72 8.58-.550 0 1.03-2.09 3.5-4.65zm-135-6c.962-.385 2.11-.338 2.56.105.443.443-.344.758-1.75 0.7-1.55-.064-1.87-.380-.806-.806zm167 0c.962-.385 2.11-.338 2.56.105.443.443-.344.758-1.75 0.7-1.55-.064-1.87-.380-.806-.806zm-124-12c1.33-1.47 2.71-2.67 3.08-2.67.367 0-.419 1.2-1.75 2.67s-2.71 2.67-3.08 2.67c-.367 0 .419-1.2 1.75-2.67zm79.9-.333-2.54-3 3 2.54c2.82 2.39 3.61 3.46 2.54 3.46-.253 0-1.6-1.35-3-3zm-68.3-95.1c.603-2.9 2.97-3.07 3.51-.263.281 1.46-.373 2.33-1.75 2.33-1.28 0-2.02-.862-1.76-2.07zm55.1.728c-.456-.739.134-1.71 1.31-2.16 2.55-.980 3.98.0999 2.75 2.09-1.11 1.79-2.98 1.83-4.06.0793zm-44.8-2.83c-2.15-1.68-6.16-2.9-10.6-3.26-8.54-.671-11.5.098-12.3 3.16-.439 1.67-.639 1.49-.752-.667-.346-6.57 18.5-6.36 25.1.291 3.97 3.97 3.34 4.18-1.41.473zm34.8.532c0-2.48 8.9-5.69 15.8-5.69 8.63 0 10.9.962 10.8 4.48-.115 2.12-.308 2.28-.747.612-.326-1.23-2.33-2.63-4.45-3.09-5.32-1.17-16.2.569-19 3.04-1.28 1.12-2.33 1.42-2.33.655z" fill="#1d0e09"/>
 </g>
</svg>
