<!DOCTYPE svg PUBLIC "-//W3C//DTD SVG 20010904//EN" "http://www.w3.org/TR/2001/REC-SVG-20010904/DTD/svg10.dtd">
<svg version="1.0" xmlns="http://www.w3.org/2000/svg" width="195px" height="175px" viewBox="0 0 1950 1750" preserveAspectRatio="xMidYMid meet">
<g id="layer101" fill="#600405" stroke="none">
 <path d="M471 1409 c-8 -19 -18 -28 -28 -25 -8 3 -11 1 -8 -4 3 -6 2 -10 -4 -10 -5 0 -12 6 -14 13 -4 9 -6 9 -6 -1 -1 -17 -41 -60 -41 -44 0 7 -4 12 -9 12 -14 0 -18 -91 -4 -109 7 -9 13 -28 13 -43 0 -20 4 -26 15 -22 10 4 16 -3 21 -23 3 -15 13 -33 21 -40 8 -6 14 -14 14 -17 -3 -21 0 -27 11 -24 13 5 41 -20 51 -46 4 -9 11 -14 17 -11 6 3 13 -1 16 -9 3 -9 10 -13 16 -10 16 10 50 -39 46 -66 -3 -22 0 -25 25 -25 24 0 27 3 22 22 -3 12 0 34 6 50 7 19 7 29 0 31 -6 2 -11 12 -11 23 0 14 7 19 25 19 15 0 25 6 25 14 0 8 4 17 8 20 12 7 14 -71 3 -93 -8 -14 -7 -22 4 -31 8 -7 15 -21 15 -31 0 -12 5 -16 14 -13 9 3 21 -7 32 -25 17 -29 19 -30 26 -11 4 12 13 20 20 19 32 -4 38 1 32 26 -4 18 -2 25 9 25 18 0 30 27 17 35 -6 4 -10 15 -10 26 0 16 4 19 23 14 30 -10 48 -28 23 -23 -30 5 -29 -17 3 -51 32 -34 54 -37 60 -6 2 13 -1 16 -13 12 -10 -4 -20 1 -27 14 -9 19 -9 19 10 10 16 -9 21 -8 26 9 4 11 11 18 16 15 13 -9 11 7 -5 28 -15 20 -56 23 -75 5 -10 -11 -10 -8 -2 14 8 20 7 28 -5 32 -8 3 -14 15 -14 26 0 11 -4 20 -10 20 -15 0 -12 -21 7 -42 14 -15 14 -18 1 -18 -24 0 -51 36 -43 59 4 12 2 21 -4 21 -14 0 -51 37 -51 50 0 6 8 10 18 10 10 0 19 7 19 16 0 15 -8 15 -52 4 -27 -7 -65 1 -65 14 0 8 -7 17 -16 20 -8 3 -12 11 -8 18 5 8 0 9 -14 6 -12 -4 -22 -2 -22 3 0 5 -7 9 -15 9 -8 0 -15 6 -15 14 0 8 -7 16 -15 20 -8 3 -15 14 -15 24 0 15 7 18 38 16 21 -1 49 -7 62 -14 19 -10 24 -10 32 4 5 9 13 14 19 11 5 -4 9 -1 9 4 0 6 7 11 15 11 12 0 13 4 3 25 -8 18 -14 22 -19 13 -5 -7 -22 -11 -40 -10 -19 2 -29 0 -25 -6 9 -15 -41 -23 -103 -17 -61 6 -71 10 -71 31 0 24 -14 16 -29 -17z m89 -44 c0 -8 -7 -15 -15 -15 -8 0 -15 7 -15 15 0 8 7 15 15 15 8 0 15 -7 15 -15z m210 -200 c10 -13 11 -18 1 -28 -10 -9 -15 -8 -27 7 -8 11 -14 23 -14 28 0 14 27 9 40 -7z m-40 -25 c0 -11 -4 -20 -10 -20 -5 0 -10 9 -10 20 0 11 5 20 10 20 6 0 10 -9 10 -20z m-56 -56 c4 -10 1 -14 -6 -12 -15 5 -23 28 -10 28 5 0 13 -7 16 -16z"/>
 <path d="M1010 1403 c-10 -12 -11 -18 -2 -21 7 -2 12 -11 12 -20 0 -13 2 -13 14 3 13 17 11 55 -3 55 -3 -1 -13 -8 -21 -17z"/>
 <path d="M867 1282 c-10 -2 -17 -8 -15 -14 4 -12 88 -20 88 -8 0 11 -51 27 -73 22z"/>
 <path d="M1210 1209 c0 -11 -25 -39 -35 -39 -3 0 -3 5 0 10 3 6 1 10 -4 10 -18 0 -12 -46 9 -73 11 -14 20 -33 20 -44 1 -17 1 -17 11 0 6 10 22 17 39 17 17 0 29 3 28 8 0 4 2 15 6 24 13 30 2 61 -29 79 -36 21 -45 23 -45 8z"/>
 <path d="M1137 1183 c-4 -3 -7 -16 -6 -27 0 -19 1 -19 10 3 10 24 8 36 -4 24z"/>
 <path d="M1310 1140 c0 -5 7 -10 15 -10 8 0 15 5 15 10 0 6 -7 10 -15 10 -8 0 -15 -4 -15 -10z"/>
 <path d="M1005 1079 c3 -13 7 -35 8 -49 2 -39 77 -106 77 -69 0 26 -22 50 -41 44 -21 -7 -25 5 -7 23 6 6 8 15 4 19 -4 4 -11 1 -17 -7 -7 -11 -8 -8 -4 11 4 17 1 30 -10 39 -14 12 -16 11 -10 -11z"/>
 <path d="M1120 1056 c0 -8 5 -18 10 -21 6 -3 10 3 10 14 0 12 -4 21 -10 21 -5 0 -10 -6 -10 -14z"/>
 <path d="M1297 1055 c-21 -20 -22 -39 -3 -54 15 -13 32 1 22 18 -4 5 -1 11 6 13 8 3 8 9 1 22 -9 17 -11 17 -26 1z"/>
 <path d="M1245 1048 c-4 -10 -4 -26 0 -35 8 -17 8 -17 12 0 3 9 3 25 0 35 -4 16 -4 16 -12 0z"/>
 <path d="M1490 960 c0 -11 5 -20 10 -20 6 0 10 9 10 20 0 11 -4 20 -10 20 -5 0 -10 -9 -10 -20z"/>
 <path d="M1560 945 c0 -8 5 -15 10 -15 6 0 10 7 10 15 0 8 -4 15 -10 15 -5 0 -10 -7 -10 -15z"/>
 <path d="M1265 930 c-18 -20 -15 -50 5 -50 6 0 9 -4 5 -9 -3 -5 -1 -12 5 -16 5 -3 10 -10 10 -16 0 -15 -27 -10 -45 7 -15 15 -15 14 -10 -9 5 -19 2 -28 -14 -37 -12 -6 -21 -20 -21 -30 0 -27 16 -25 23 2 l6 22 23 -20 c37 -34 56 -36 74 -10 13 20 13 28 2 45 -7 12 -16 21 -19 21 -11 0 -22 52 -20 88 3 37 0 39 -24 12z"/>
 <path d="M672 914 c7 -15 14 -21 16 -15 5 16 -5 41 -17 41 -7 0 -6 -10 1 -26z"/>
 <path d="M880 916 c0 -17 7 -26 25 -30 14 -4 25 -14 25 -23 0 -13 3 -14 11 -6 8 8 4 21 -17 47 -34 42 -44 45 -44 12z"/>
 <path d="M1380 870 c-14 -10 -22 -21 -19 -24 8 -8 58 17 64 32 7 18 -16 14 -45 -8z"/>
 <path d="M980 866 c0 -8 6 -16 14 -19 10 -4 12 0 9 14 -6 22 -23 26 -23 5z"/>
 <path d="M617 834 c-3 -4 -3 -12 1 -18 4 -6 7 -13 7 -16 0 -10 35 -54 39 -49 2 2 -6 23 -18 47 -12 24 -25 40 -29 36z"/>
 <path d="M851 816 c-7 -8 -10 -19 -7 -25 3 -5 -3 -7 -14 -4 -22 6 -23 3 -14 -21 8 -20 34 -21 34 -2 0 8 7 22 16 31 11 11 13 20 7 26 -6 6 -14 5 -22 -5z"/>
 <path d="M1160 725 c0 -16 6 -25 15 -25 9 0 15 9 15 25 0 16 -6 25 -15 25 -9 0 -15 -9 -15 -25z"/>
 <path d="M1320 655 c0 -8 2 -15 4 -15 2 0 11 -3 20 -6 12 -4 16 0 16 15 0 14 -6 21 -20 21 -11 0 -20 -7 -20 -15z"/>
 <path d="M660 630 c0 -5 9 -10 20 -10 11 0 20 5 20 10 0 6 -9 10 -20 10 -11 0 -20 -4 -20 -10z"/>
 <path d="M1491 593 c0 -5 4 -17 9 -28 8 -18 9 -17 9 8 1 15 -3 27 -9 27 -5 0 -10 -3 -9 -7z"/>
 <path d="M911 513 c-1 -16 5 -23 17 -23 10 0 13 3 6 8 -6 4 -14 14 -17 22 -4 10 -6 8 -6 -7z"/>
 <path d="M1397 454 c-4 -4 -7 -16 -7 -26 0 -10 -6 -18 -12 -18 -9 0 -10 -3 -2 -8 6 -4 13 -13 15 -20 3 -9 9 -5 18 12 14 26 4 76 -12 60z"/>
 </g>
<g id="layer102" fill="#a31314" stroke="none">
 <path d="M471 1409 c-8 -19 -18 -28 -28 -25 -8 3 -11 1 -8 -4 3 -6 2 -10 -4 -10 -5 0 -12 6 -14 13 -4 9 -6 9 -6 -1 -1 -7 -8 -20 -16 -28 -17 -18 -20 -34 -5 -34 6 0 10 6 10 14 0 9 8 12 25 8 15 -2 25 -11 25 -21 0 -32 13 -32 27 0 7 18 17 28 24 23 8 -4 8 0 -1 15 -6 12 -15 19 -21 16 -5 -4 -7 -10 -5 -14 3 -4 -1 -8 -9 -8 -8 0 -15 3 -15 7 0 8 39 50 46 50 3 0 12 -16 20 -36 12 -28 20 -35 34 -31 11 3 24 -1 31 -9 6 -8 17 -14 23 -14 6 0 3 5 -6 11 -10 5 -18 18 -18 28 0 14 8 17 38 15 21 -1 48 -6 60 -13 11 -6 24 -11 29 -11 4 1 -5 8 -22 17 l-29 16 44 13 c56 17 55 17 40 -1 -7 -9 -10 -18 -6 -22 3 -3 6 -1 6 5 0 7 7 12 15 12 12 0 13 4 3 25 -9 21 -13 23 -20 11 -5 -9 -18 -13 -39 -9 -19 3 -29 1 -25 -5 9 -15 -41 -23 -103 -17 -61 6 -71 10 -71 31 0 24 -14 16 -29 -17z m89 -44 c0 -8 -7 -15 -15 -15 -8 0 -15 7 -15 15 0 8 7 15 15 15 8 0 15 -7 15 -15z"/>
 <path d="M1013 1405 c-17 -19 -16 -28 1 -22 10 4 12 -1 9 -16 -5 -21 -5 -21 9 -3 9 11 13 28 10 38 -5 21 -13 22 -29 3z"/>
 <path d="M650 1284 c0 -9 33 -33 45 -33 6 0 2 4 -8 10 -9 6 -15 14 -12 20 4 5 -1 9 -9 9 -9 0 -16 -3 -16 -6z"/>
 <path d="M867 1282 c-10 -2 -17 -8 -15 -14 4 -12 88 -20 88 -8 0 11 -51 27 -73 22z"/>
 <path d="M440 1206 c-8 -25 -8 -40 1 -60 l12 -26 19 27 c21 32 23 64 6 81 -19 19 -26 15 -38 -22z m30 -31 c0 -8 -4 -15 -10 -15 -5 0 -10 7 -10 15 0 8 5 15 10 15 6 0 10 -7 10 -15z"/>
 <path d="M772 1231 c-7 -4 -25 -6 -40 -4 -20 3 -23 2 -13 -5 12 -9 12 -13 2 -26 -8 -9 -10 -16 -6 -16 4 0 2 -7 -5 -15 -7 -8 -10 -24 -7 -34 7 -27 -21 -36 -44 -15 -11 10 -19 12 -19 6 0 -6 7 -15 16 -20 8 -5 16 -16 18 -25 3 -23 16 -34 16 -14 0 9 4 18 9 21 5 3 8 -16 8 -44 -1 -27 2 -45 7 -40 4 4 6 31 5 59 -4 47 -2 50 16 46 17 -4 16 -3 -2 6 -23 12 -32 49 -13 49 6 0 10 -6 10 -14 0 -8 7 -16 15 -20 13 -5 13 -2 -1 20 -9 13 -14 28 -10 31 11 11 41 -13 40 -31 -1 -9 2 -16 7 -16 12 0 12 27 0 34 -15 10 0 46 18 46 10 0 18 7 18 15 0 16 -24 20 -45 6z"/>
 <path d="M1210 1203 c0 -14 2 -15 9 -4 6 9 11 10 15 2 4 -6 5 -15 1 -21 -3 -5 -6 -25 -7 -45 -1 -19 -7 -40 -15 -46 -7 -6 -13 -17 -13 -23 0 -6 5 -3 11 7 6 10 22 17 39 17 17 0 29 3 28 8 0 4 2 15 6 24 13 30 2 61 -29 79 -39 23 -45 23 -45 2z"/>
 <path d="M1137 1183 c-4 -3 -7 -16 -6 -27 0 -19 1 -19 10 3 10 24 8 36 -4 24z"/>
 <path d="M1160 1166 c0 -24 39 -82 40 -58 0 6 -4 12 -9 12 -5 0 -11 9 -14 20 -3 13 0 20 9 20 8 0 14 8 13 18 0 10 -3 12 -6 5 -2 -7 -9 -13 -14 -13 -6 0 -7 5 -4 10 3 6 1 10 -4 10 -6 0 -11 -11 -11 -24z"/>
 <path d="M797 1163 c3 -13 9 -23 14 -23 5 0 9 -8 9 -17 0 -15 2 -16 10 -3 13 20 12 30 -1 30 -7 0 -18 8 -25 18 -12 15 -12 15 -7 -5z"/>
 <path d="M860 1118 c0 -6 7 -20 17 -30 22 -24 -2 -25 -31 0 -21 17 -21 17 -2 -5 11 -13 26 -23 35 -24 10 0 8 -3 -6 -9 -15 -6 -23 -17 -22 -32 1 -17 2 -18 6 -5 5 20 4 20 37 7 19 -7 25 -6 28 6 2 11 6 10 15 -5 10 -16 9 -22 -3 -32 -12 -10 -13 -9 -9 3 4 11 -1 14 -16 13 -13 -1 -25 -7 -27 -13 -2 -7 -9 -9 -15 -5 -7 3 -8 2 -4 -2 14 -16 36 -14 30 3 -4 15 -3 15 9 1 18 -21 57 -19 64 3 3 10 10 16 15 13 13 -9 11 7 -5 28 -15 20 -56 23 -75 5 -10 -11 -10 -8 -2 14 8 20 7 28 -5 32 -8 3 -14 15 -14 26 0 11 -4 20 -10 20 -5 0 -10 -5 -10 -12z"/>
 <path d="M437 1083 c3 -8 11 -12 18 -9 8 3 16 -2 19 -10 3 -8 11 -14 18 -14 10 0 9 3 -1 9 -11 7 -12 13 -3 23 9 12 5 14 -23 15 -26 1 -32 -2 -28 -14z"/>
 <path d="M536 1085 c-7 -19 10 -55 25 -55 14 0 7 62 -7 67 -6 2 -14 -3 -18 -12z"/>
 <path d="M1000 1091 c0 -6 3 -11 8 -11 4 0 7 -17 6 -37 -2 -28 4 -43 26 -65 42 -42 65 -35 39 13 -7 14 -16 18 -30 14 -22 -7 -23 -2 -9 26 7 11 7 19 1 19 -5 0 -12 -6 -15 -12 -3 -7 -3 -1 0 13 3 16 0 30 -10 38 -11 9 -16 10 -16 2z"/>
 <path d="M1120 1056 c0 -8 5 -18 10 -21 6 -3 10 3 10 14 0 12 -4 21 -10 21 -5 0 -10 -6 -10 -14z"/>
 <path d="M1296 1055 c-20 -20 -21 -39 -2 -54 10 -9 16 -9 21 -1 4 6 4 14 1 17 -3 4 -6 1 -6 -6 0 -7 -4 -9 -10 -6 -17 10 -11 25 10 25 22 0 25 7 11 28 -6 11 -11 10 -25 -3z"/>
 <path d="M1245 1048 c-4 -10 -4 -26 0 -35 8 -17 8 -17 12 0 3 9 3 25 0 35 -4 16 -4 16 -12 0z"/>
 <path d="M502 1028 c3 -7 10 -13 17 -13 6 0 16 -6 20 -14 6 -9 11 -10 15 -2 4 5 -7 17 -25 26 -24 13 -30 13 -27 3z"/>
 <path d="M617 1023 c-11 -13 -18 -39 -20 -69 -2 -47 -1 -49 24 -49 14 0 26 5 26 12 0 7 -3 12 -6 11 -3 0 -12 0 -19 1 -18 1 -10 26 8 26 7 0 15 7 17 15 4 13 3 13 -6 0 -9 -12 -11 -11 -11 9 0 16 4 22 15 17 8 -3 15 -1 15 4 0 6 -4 10 -9 10 -5 0 -11 7 -13 16 -3 14 -5 14 -21 -3z"/>
 <path d="M787 1013 c-11 -10 -8 -35 3 -28 6 3 10 1 10 -4 0 -6 -5 -11 -10 -11 -6 0 -8 -10 -4 -24 10 -40 -22 -40 -52 -1 -14 19 -31 35 -37 35 -5 0 -3 -8 6 -18 10 -10 17 -26 17 -35 0 -10 6 -14 14 -11 8 3 22 -8 34 -28 13 -20 22 -27 22 -17 0 22 46 53 54 36 3 -6 3 0 0 16 -5 22 -3 27 12 27 12 1 7 6 -13 15 -22 9 -33 21 -33 35 0 20 -11 26 -23 13z"/>
 <path d="M1490 960 c0 -11 5 -20 10 -20 6 0 10 9 10 20 0 11 -4 20 -10 20 -5 0 -10 -9 -10 -20z"/>
 <path d="M921 938 c12 -10 27 -17 33 -15 14 5 21 37 7 37 -6 0 -8 -7 -5 -15 4 -8 1 -15 -5 -15 -6 0 -11 6 -11 13 0 7 -9 13 -21 13 -21 0 -21 0 2 -18z"/>
 <path d="M1560 945 c0 -8 5 -15 10 -15 6 0 10 7 10 15 0 8 -4 15 -10 15 -5 0 -10 -7 -10 -15z"/>
 <path d="M1265 930 c-18 -20 -15 -50 5 -50 6 0 8 -6 4 -12 -4 -7 -3 -9 1 -5 16 14 14 36 -2 30 -11 -4 -14 -1 -11 13 2 10 10 18 16 17 7 -2 12 4 12 12 0 20 -3 19 -25 -5z"/>
 <path d="M672 914 c7 -15 14 -21 16 -15 5 16 -5 41 -17 41 -7 0 -6 -10 1 -26z"/>
 <path d="M894 924 c9 -8 16 -23 17 -32 0 -10 3 -12 5 -5 7 15 -13 53 -27 53 -6 0 -3 -7 5 -16z"/>
 <path d="M930 870 c0 -19 3 -21 12 -12 9 9 9 15 0 24 -9 9 -12 7 -12 -12z"/>
 <path d="M1380 870 c-14 -10 -22 -21 -19 -24 8 -8 58 17 64 32 7 18 -16 14 -45 -8z"/>
 <path d="M983 865 c0 -8 6 -16 13 -19 7 -3 10 2 7 15 -6 22 -20 26 -20 4z"/>
 <path d="M1233 847 c4 -10 7 -21 7 -23 0 -3 5 -2 10 1 6 3 10 -3 10 -14 0 -22 -16 -29 -22 -11 -2 7 -11 5 -23 -4 -20 -15 -20 -15 0 -12 11 2 29 -4 40 -14 29 -25 52 -31 64 -16 8 10 4 12 -18 8 -26 -4 -28 -2 -24 22 3 15 9 29 14 32 5 3 8 15 8 27 -1 17 -2 18 -6 5 -2 -10 -11 -18 -18 -18 -7 0 -22 8 -31 18 -17 16 -18 16 -11 -1z"/>
 <path d="M617 834 c-3 -4 -3 -12 1 -18 4 -6 7 -13 7 -16 0 -12 35 -53 40 -48 3 3 0 12 -7 20 -7 7 -14 20 -16 28 -6 24 -18 41 -25 34z"/>
 <path d="M851 816 c-7 -8 -10 -19 -7 -25 3 -5 -3 -7 -14 -4 -12 3 -20 0 -20 -6 0 -7 5 -9 12 -5 8 5 9 2 5 -9 -4 -11 -1 -17 8 -17 8 0 15 6 15 14 0 8 7 22 16 31 11 11 13 20 7 26 -6 6 -14 5 -22 -5z"/>
 <path d="M1161 728 c-1 -19 4 -28 14 -28 10 0 15 10 15 28 0 19 -3 23 -9 13 -7 -11 -9 -11 -14 0 -3 8 -6 2 -6 -13z"/>
 <path d="M660 630 c0 -5 9 -10 20 -10 11 0 20 5 20 10 0 6 -9 10 -20 10 -11 0 -20 -4 -20 -10z"/>
 <path d="M1397 454 c-4 -4 -7 -14 -7 -23 0 -14 2 -14 10 -1 8 12 10 11 10 -5 0 -12 -5 -26 -12 -33 -6 -6 -9 -14 -7 -17 3 -3 12 6 19 20 13 25 3 74 -13 59z"/>
 </g>
<g id="layer103" fill="#974f4e" stroke="none">
 <path d="M471 1409 c-8 -19 -18 -28 -28 -25 -8 3 -11 1 -8 -4 3 -6 2 -10 -4 -10 -5 0 -12 6 -14 13 -3 7 -6 5 -6 -5 -1 -27 36 -22 55 7 22 34 32 32 50 -11 12 -28 20 -35 34 -31 11 3 24 -1 31 -9 6 -8 17 -14 23 -14 6 0 3 5 -6 11 -10 5 -18 18 -18 28 0 14 8 17 39 15 21 -1 45 -5 52 -10 12 -6 12 -5 1 8 -11 14 -10 17 7 23 25 7 28 25 5 25 -8 0 -13 -4 -10 -9 9 -14 -43 -22 -103 -16 -61 6 -71 10 -71 31 0 24 -14 16 -29 -17z m89 -44 c0 -8 -7 -15 -15 -15 -8 0 -15 7 -15 15 0 8 7 15 15 15 8 0 15 -7 15 -15z"/>
 <path d="M737 1426 c-4 -9 -1 -16 5 -16 7 0 6 -5 -2 -15 -7 -9 -10 -18 -6 -22 3 -3 6 -1 6 5 0 6 6 12 14 14 12 2 12 7 2 27 -11 19 -14 21 -19 7z"/>
 <path d="M1015 1407 c-8 -8 -7 -19 0 -34 10 -19 12 -20 21 -5 10 18 8 52 -4 52 -4 -1 -12 -6 -17 -13z"/>
 <path d="M867 1282 c-10 -2 -17 -8 -15 -14 4 -12 76 -19 83 -7 7 10 -45 26 -68 21z"/>
 <path d="M771 1231 c-8 -5 -21 -7 -29 -3 -10 4 -13 1 -8 -7 5 -7 14 -10 22 -7 9 4 14 -2 15 -17 1 -17 2 -18 6 -4 2 9 12 17 22 17 10 0 18 7 18 15 0 17 -24 20 -46 6z"/>
 <path d="M1211 1203 c0 -10 3 -13 5 -7 4 9 11 9 29 0 14 -6 25 -14 25 -18 0 -5 5 -8 11 -8 17 0 1 18 -33 34 -39 20 -38 20 -37 -1z"/>
 <path d="M1137 1183 c-4 -3 -7 -16 -6 -27 0 -19 1 -19 10 3 10 24 8 36 -4 24z"/>
 <path d="M1160 1166 c0 -24 39 -82 40 -58 0 6 -4 12 -9 12 -15 0 -20 38 -5 44 8 3 14 11 13 18 0 10 -2 10 -6 1 -2 -7 -9 -13 -14 -13 -6 0 -7 5 -4 10 3 6 1 10 -4 10 -6 0 -11 -11 -11 -24z"/>
 <path d="M800 1163 c6 -13 18 -23 28 -22 14 0 14 2 2 6 -8 4 -21 13 -28 22 -11 14 -11 13 -2 -6z"/>
 <path d="M703 1141 c1 -14 9 -26 17 -28 10 -3 11 -2 4 4 -7 4 -14 17 -17 28 -5 16 -5 15 -4 -4z"/>
 <path d="M860 1115 c0 -8 5 -15 10 -15 6 0 10 7 10 15 0 8 -4 15 -10 15 -5 0 -10 -7 -10 -15z"/>
 <path d="M1275 1120 c-4 -6 -10 -8 -15 -5 -11 7 -60 -34 -60 -49 0 -6 5 -3 11 7 6 10 22 17 41 17 17 0 28 3 25 7 -4 3 -2 12 4 20 6 7 9 13 6 13 -3 0 -9 -5 -12 -10z"/>
 <path d="M437 1084 c3 -8 11 -13 18 -10 8 3 16 -2 19 -10 3 -8 10 -14 16 -14 5 0 0 11 -12 25 -24 28 -51 34 -41 9z"/>
 <path d="M1000 1091 c0 -6 3 -11 8 -11 4 0 7 -16 6 -36 -2 -25 4 -44 18 -58 l20 -21 -11 23 c-8 16 -9 28 -1 42 6 12 7 20 1 20 -5 0 -12 -6 -15 -12 -3 -7 -3 -1 0 13 3 16 0 30 -10 38 -11 9 -16 10 -16 2z"/>
 <path d="M683 1074 c-3 -8 -3 -18 1 -21 3 -4 6 1 6 11 0 10 5 14 11 10 6 -3 9 -23 7 -44 -2 -21 0 -36 4 -34 15 10 9 82 -7 88 -9 3 -18 -1 -22 -10z"/>
 <path d="M845 1082 c4 -7 17 -17 29 -22 l21 -9 -22 -7 c-15 -4 -23 -14 -22 -28 1 -17 2 -18 6 -3 3 13 10 16 26 11 12 -3 27 -11 32 -17 7 -7 4 -8 -8 -4 -11 4 -20 1 -23 -8 -4 -8 -11 -12 -18 -8 -6 3 -7 2 -3 -2 14 -16 36 -14 30 3 -4 15 -3 15 9 1 7 -8 23 -15 35 -15 21 0 21 1 -3 25 -14 14 -22 31 -19 39 4 12 3 12 -9 3 -11 -9 -14 -8 -12 6 0 10 5 21 9 24 5 3 1 9 -8 12 -9 4 -13 3 -10 -3 9 -14 -19 -12 -34 3 -11 10 -12 9 -6 -1z"/>
 <path d="M1295 1053 c-18 -17 -18 -18 4 -21 29 -4 35 2 24 23 -9 15 -11 15 -28 -2z"/>
 <path d="M1245 1048 c-4 -10 -4 -26 0 -35 8 -17 8 -17 12 0 3 9 3 25 0 35 -4 16 -4 16 -12 0z"/>
 <path d="M502 1028 c3 -7 10 -13 17 -13 6 0 16 -6 20 -14 6 -9 11 -10 15 -2 4 5 -7 17 -25 26 -24 13 -30 13 -27 3z"/>
 <path d="M631 1029 c0 -9 6 -22 14 -29 10 -9 15 -9 15 -1 0 6 -4 11 -9 11 -5 0 -12 8 -14 18 -4 14 -5 14 -6 1z"/>
 <path d="M1490 960 c0 -11 5 -20 10 -20 6 0 10 9 10 20 0 11 -4 20 -10 20 -5 0 -10 -9 -10 -20z"/>
 <path d="M833 953 c-17 -6 -16 -21 2 -40 14 -14 15 -13 10 10 -5 19 -2 26 12 30 11 3 12 5 3 5 -8 0 -21 -2 -27 -5z"/>
 <path d="M1560 945 c0 -8 5 -15 10 -15 6 0 10 7 10 15 0 8 -4 15 -10 15 -5 0 -10 -7 -10 -15z"/>
 <path d="M1264 928 c-12 -14 -13 -18 -3 -10 9 6 19 9 22 5 4 -3 7 1 7 10 0 22 -3 21 -26 -5z"/>
 <path d="M672 914 c7 -15 14 -21 16 -15 5 16 -5 41 -17 41 -7 0 -6 -10 1 -26z"/>
 <path d="M894 924 c9 -8 16 -23 17 -32 0 -10 3 -12 5 -5 7 15 -13 53 -27 53 -6 0 -3 -7 5 -16z"/>
 <path d="M597 917 c-3 -8 5 -12 23 -12 14 0 27 5 27 10 0 15 -44 17 -50 2z"/>
 <path d="M795 899 c-4 -6 -13 -8 -21 -5 -11 4 -12 2 -1 -14 8 -13 13 -16 16 -8 2 7 10 19 19 26 9 6 11 12 5 12 -7 0 -15 -5 -18 -11z"/>
 <path d="M1264 884 c9 -6 14 -14 11 -17 -3 -4 -2 -5 2 -2 15 12 10 31 -9 31 -17 0 -17 -2 -4 -12z"/>
 <path d="M1380 870 c-14 -10 -22 -21 -19 -24 8 -8 58 17 64 32 7 18 -16 14 -45 -8z"/>
 <path d="M983 865 c0 -8 6 -16 13 -19 7 -3 10 2 7 15 -6 22 -20 26 -20 4z"/>
 <path d="M851 816 c-7 -8 -10 -19 -7 -25 3 -5 -4 -7 -16 -4 -17 3 -19 2 -9 -5 7 -5 11 -14 8 -19 -3 -5 0 -10 8 -10 8 0 15 6 15 13 0 7 7 20 16 29 11 11 13 20 7 26 -6 6 -14 5 -22 -5z"/>
 <path d="M1214 795 c-19 -13 -19 -14 1 -11 11 2 29 -4 40 -14 29 -25 52 -31 64 -16 9 11 6 12 -15 8 -19 -3 -32 2 -48 21 -21 24 -25 25 -42 12z"/>
 <path d="M638 774 c19 -26 34 -32 26 -9 -4 8 -10 15 -16 15 -5 0 -7 4 -4 8 3 5 -1 9 -9 9 -10 0 -10 -5 3 -23z"/>
 <path d="M660 630 c0 -5 9 -10 20 -10 11 0 20 5 20 10 0 6 -9 10 -20 10 -11 0 -20 -4 -20 -10z"/>
 <path d="M1397 454 c-4 -4 -7 -14 -7 -23 0 -14 2 -14 10 -1 8 12 10 11 10 -5 0 -12 -5 -26 -12 -33 -6 -6 -9 -14 -7 -17 3 -3 12 6 19 20 13 25 3 74 -13 59z"/>
 </g>

</svg>