<!DOCTYPE svg PUBLIC "-//W3C//DTD SVG 20010904//EN" "http://www.w3.org/TR/2001/REC-SVG-20010904/DTD/svg10.dtd">
<svg version="1.0" xmlns="http://www.w3.org/2000/svg" width="180px" height="179px" viewBox="0 0 1800 1790" preserveAspectRatio="xMidYMid meet">
<g id="layer101" fill="#961010" stroke="none">
 <path d="M850 1430 c0 -16 5 -30 10 -30 6 0 10 14 10 30 0 17 -4 30 -10 30 -5 0 -10 -13 -10 -30z"/>
 <path d="M1077 1403 c7 -67 20 -75 19 -12 -1 29 -6 54 -12 56 -8 3 -10 -11 -7 -44z"/>
 <path d="M1072 1310 c-7 -11 -9 -20 -4 -20 4 0 13 9 20 20 7 11 9 20 4 20 -4 0 -13 -9 -20 -20z"/>
 <path d="M874 1278 c3 -7 9 -21 12 -30 9 -26 24 -22 24 6 0 13 -7 27 -16 30 -23 9 -26 8 -20 -6z"/>
 <path d="M1047 1253 c-11 -10 -8 -73 3 -73 6 0 10 18 10 40 0 41 -2 45 -13 33z"/>
 <path d="M237 1214 c-9 -10 2 -24 19 -24 8 0 14 7 14 15 0 15 -21 21 -33 9z"/>
 <path d="M310 1182 c0 -5 11 -17 25 -26 14 -10 31 -28 37 -42 6 -13 17 -24 23 -24 7 0 18 -6 25 -14 6 -8 21 -16 33 -18 18 -2 21 -8 19 -33 -2 -16 -8 -35 -13 -41 -6 -7 -4 -16 5 -23 11 -9 16 -9 22 0 5 9 11 7 21 -6 17 -24 17 -55 -1 -55 -7 0 -16 -11 -18 -25 -5 -21 -2 -24 17 -19 17 4 24 0 30 -18 8 -27 8 -28 0 -50 -6 -15 -1 -18 29 -18 48 0 59 -25 23 -54 -53 -43 -40 -103 24 -110 21 -2 35 -9 37 -20 2 -9 -1 -16 -7 -16 -6 0 -11 -6 -11 -12 0 -9 19 -13 62 -12 64 0 98 -11 98 -33 0 -7 7 -10 15 -6 11 4 19 -4 28 -26 16 -43 54 -43 70 -1 8 21 18 30 33 30 12 0 25 6 28 13 3 8 8 7 16 -5 13 -21 31 -23 48 -6 10 10 8 16 -9 29 -20 15 -19 15 30 15 46 -1 51 -3 51 -23 0 -15 6 -23 17 -23 9 0 30 -12 46 -27 l30 -28 -6 26 c-5 20 1 34 28 65 37 42 41 49 25 59 -16 10 -12 25 8 25 9 0 23 4 31 9 12 8 13 12 1 25 -7 9 -10 19 -7 22 7 8 63 8 174 1 46 -3 85 -2 88 2 9 15 -41 28 -100 25 -81 -4 -125 16 -125 56 0 17 -4 30 -10 30 -5 0 -10 -4 -10 -10 0 -5 -9 -10 -20 -10 -21 0 -29 30 -7 31 6 0 2 5 -11 12 -18 8 -25 8 -32 -2 -9 -16 -30 -6 -30 15 0 8 -4 14 -10 14 -6 0 -10 27 -10 60 0 57 -13 79 -26 45 -13 -32 -74 -28 -74 5 0 10 -13 32 -30 48 -16 17 -30 35 -30 41 0 19 -17 12 -23 -9 -6 -24 -34 -26 -57 -5 -15 14 -19 14 -30 0 -15 -18 -50 -3 -50 21 0 8 5 12 10 9 6 -3 10 -1 10 4 0 20 -38 11 -43 -9 -4 -14 -14 -20 -34 -21 -24 0 -26 -1 -8 -9 17 -7 17 -9 3 -9 -25 -1 -22 -14 7 -39 29 -26 25 -42 -11 -42 -18 0 -24 5 -24 21 0 18 -2 19 -15 9 -23 -19 -75 5 -75 34 0 12 -6 31 -14 41 -12 16 -16 17 -30 6 -20 -17 -55 -6 -38 11 7 7 12 21 12 32 -1 19 -3 19 -23 -6 -28 -35 -44 -35 -59 -3 -10 22 -13 23 -20 10 -12 -20 -38 -20 -38 1 0 8 -4 12 -10 9 -10 -6 -70 22 -82 40 -4 5 -2 15 4 22 8 10 7 13 -3 13 -8 0 -24 3 -36 6 -13 4 -23 2 -23 -4z m622 -197 c-2 -11 -5 -39 -6 -62 -2 -48 -13 -65 -27 -41 -5 9 -17 14 -28 11 -25 -6 -35 12 -16 30 8 9 15 23 15 31 0 9 4 16 9 16 5 0 11 9 14 21 7 28 44 22 39 -6z m68 -90 c0 -8 -4 -15 -10 -15 -5 0 -10 7 -10 15 0 8 5 15 10 15 6 0 10 -7 10 -15z m220 -285 c0 -18 -40 -32 -56 -20 -7 7 -12 16 -9 20 6 10 65 10 65 0z m-503 -26 c10 -27 -14 -40 -37 -19 -11 10 -20 22 -20 27 0 15 50 8 57 -8z"/>
 <path d="M474 1160 c0 -11 6 -20 13 -20 7 0 13 9 13 20 0 11 -6 20 -13 20 -7 0 -13 -9 -13 -20z"/>
 <path d="M937 1158 c-7 -25 -3 -33 12 -23 13 8 15 45 2 45 -5 0 -11 -10 -14 -22z"/>
 <path d="M1010 1158 c0 -9 5 -20 11 -23 6 -4 7 -19 4 -35 -6 -28 -5 -28 19 -17 27 12 36 29 14 25 -7 -2 -12 2 -11 7 1 6 -7 22 -18 35 -14 20 -19 21 -19 8z"/>
 <path d="M662 1102 c-9 -6 -5 -12 14 -21 32 -14 42 -8 21 14 -18 17 -18 17 -35 7z"/>
 <path d="M716 1045 c-3 -10 -2 -23 4 -29 15 -15 24 1 13 26 -9 20 -10 20 -17 3z"/>
 <path d="M1196 1004 c-9 -22 -8 -23 14 -17 23 6 26 19 6 26 -8 3 -17 -1 -20 -9z"/>
 <path d="M478 758 c5 -21 42 -25 42 -4 0 7 -11 16 -24 18 -19 4 -22 1 -18 -14z"/>
 <path d="M1226 511 c-3 -5 1 -14 9 -21 13 -10 15 -9 15 9 0 21 -14 28 -24 12z"/>
 </g>
<g id="layer102" fill="#ce1212" stroke="none">
 <path d="M1081 1400 c-1 -26 2 -51 7 -54 4 -2 9 17 9 45 1 64 -13 73 -16 9z"/>
 <path d="M1072 1310 c-7 -11 -9 -20 -4 -20 4 0 13 9 20 20 7 11 9 20 4 20 -4 0 -13 -9 -20 -20z"/>
 <path d="M870 1286 c0 -11 30 -60 31 -51 5 30 4 41 -6 47 -11 8 -25 10 -25 4z"/>
 <path d="M1047 1253 c-11 -10 -8 -73 3 -73 6 0 10 17 8 40 -1 22 -3 40 -3 40 -1 0 -5 -3 -8 -7z"/>
 <path d="M234 1208 c-5 -7 -2 -9 9 -5 9 3 18 1 21 -6 2 -7 5 -4 5 6 1 19 -24 23 -35 5z"/>
 <path d="M310 1181 c0 -5 11 -16 25 -25 14 -10 31 -28 37 -42 6 -13 17 -24 25 -24 19 0 16 29 -4 37 -26 10 -53 36 -53 50 0 7 -7 13 -15 13 -8 0 -15 -4 -15 -9z"/>
 <path d="M940 1166 c0 -8 5 -18 10 -21 6 -3 10 3 10 14 0 12 -4 21 -10 21 -5 0 -10 -6 -10 -14z"/>
 <path d="M416 1095 c-7 -20 6 -26 21 -10 10 10 9 14 -2 18 -7 3 -16 -1 -19 -8z"/>
 <path d="M673 1095 c0 -8 6 -16 14 -19 17 -7 17 8 0 23 -10 8 -14 7 -14 -4z"/>
 <path d="M570 1081 c-7 -15 -7 -19 5 -17 8 1 18 6 22 11 5 4 2 5 -6 0 -11 -6 -13 -4 -8 8 9 23 0 21 -13 -2z"/>
 <path d="M470 1078 c-20 -7 -22 -11 -10 -18 10 -6 20 -4 29 5 20 19 12 25 -19 13z"/>
 <path d="M1196 1004 c-9 -22 -8 -23 14 -17 23 6 26 19 6 26 -8 3 -17 -1 -20 -9z"/>
 <path d="M1337 716 c-3 -8 2 -16 14 -19 16 -4 17 -2 8 14 -12 23 -15 23 -22 5z"/>
 </g>

</svg>