<!DOCTYPE svg PUBLIC "-//W3C//DTD SVG 20010904//EN" "http://www.w3.org/TR/2001/REC-SVG-20010904/DTD/svg10.dtd">
<svg version="1.0" xmlns="http://www.w3.org/2000/svg" width="200px" height="200px" viewBox="0 0 2000 2000" preserveAspectRatio="xMidYMid meet">
<g id="layer101" fill="#f9f9fa" stroke="none">
 <path d="M173 1949 c10 -81 63 -176 120 -215 57 -39 91 -50 210 -66 48 -6 87 -16 88 -22 0 -6 21 -24 47 -41 36 -23 54 -44 75 -88 19 -39 38 -63 55 -70 23 -10 27 -17 22 -38 -8 -40 -93 -106 -154 -119 -104 -22 -174 -85 -198 -176 -8 -27 -25 -67 -40 -89 -31 -46 -49 -108 -49 -168 0 -23 -2 -105 -4 -182 -3 -145 5 -186 42 -227 9 -10 18 -38 21 -61 5 -56 28 -103 64 -130 16 -12 48 -39 71 -60 23 -20 59 -42 82 -48 22 -6 49 -21 61 -34 12 -13 39 -26 65 -30 24 -4 58 -18 76 -31 37 -28 88 -31 114 -8 16 14 20 14 49 -1 78 -40 258 16 357 110 28 27 63 50 87 56 46 12 106 68 106 97 0 12 22 50 50 86 71 95 94 182 69 270 -9 33 -7 46 12 90 27 62 28 132 3 175 -10 17 -22 31 -26 31 -4 0 -8 19 -8 41 0 34 -6 47 -35 74 -20 17 -49 53 -65 78 -34 55 -91 99 -179 139 -125 57 -189 136 -125 152 19 5 32 21 49 59 23 54 76 110 114 122 12 3 21 12 21 19 0 9 29 17 88 24 112 14 147 25 204 61 73 47 118 131 118 222 l0 49 -831 0 -832 0 6 -51z"/>
 </g>
<g id="layer102" fill="#d2d1cf" stroke="none">
 <path d="M173 1949 c10 -81 63 -176 120 -215 57 -39 91 -50 210 -66 48 -6 87 -16 88 -22 0 -6 21 -24 47 -41 36 -23 54 -44 75 -88 19 -39 38 -63 55 -70 23 -10 27 -17 22 -38 -8 -40 -93 -106 -154 -119 -104 -22 -174 -85 -198 -176 -8 -27 -25 -67 -40 -89 -31 -46 -49 -108 -49 -168 0 -23 -2 -105 -4 -182 -3 -145 5 -186 42 -227 9 -10 18 -38 21 -61 5 -56 28 -103 64 -130 16 -12 48 -39 71 -60 23 -20 59 -42 82 -48 22 -6 49 -21 61 -34 12 -13 39 -26 65 -30 24 -4 58 -18 76 -31 37 -28 88 -31 114 -8 16 14 20 14 49 -1 78 -40 258 16 357 110 28 27 63 50 87 56 46 12 106 68 106 97 0 12 22 50 50 86 71 95 94 182 69 270 -9 33 -7 46 12 90 27 62 28 132 3 175 -10 17 -22 31 -26 31 -4 0 -8 19 -8 41 0 34 -6 47 -35 74 -20 17 -49 53 -65 78 -34 55 -91 99 -179 139 -125 57 -189 136 -125 152 19 5 32 21 49 59 23 54 76 110 114 122 12 3 21 12 21 19 0 9 29 17 88 24 112 14 147 25 204 61 73 47 118 131 118 222 l0 49 -831 0 -832 0 6 -51z m877 -629 c11 -6 25 -20 31 -31 9 -17 8 -20 -2 -14 -9 6 -11 4 -6 -7 5 -14 1 -15 -26 -7 -18 5 -43 7 -57 4 -14 -3 -32 -1 -40 5 -11 7 -6 10 23 10 20 0 37 5 37 10 0 6 -16 10 -36 10 -31 0 -35 2 -24 15 14 17 72 20 100 5z m-190 -458 c0 -4 -9 -13 -20 -20 -22 -13 -27 -3 -8 16 14 14 28 16 28 4z m430 -7 c0 -8 -9 -15 -20 -15 -20 0 -26 11 -13 23 12 13 33 7 33 -8z"/>
 </g>
<g id="layer103" fill="#bfa388" stroke="none">
 <path d="M173 1949 c10 -81 63 -176 120 -215 57 -39 91 -50 210 -66 48 -6 87 -16 88 -22 0 -6 21 -24 47 -41 36 -23 54 -44 75 -88 19 -39 38 -63 55 -70 23 -10 27 -17 22 -38 -8 -40 -93 -106 -154 -119 -104 -22 -174 -85 -198 -176 -8 -27 -25 -67 -40 -89 -31 -46 -49 -108 -49 -168 0 -23 -2 -105 -4 -182 -3 -145 5 -186 42 -227 9 -10 18 -38 21 -61 5 -56 28 -103 64 -130 16 -12 48 -39 71 -60 23 -20 59 -42 82 -48 22 -6 49 -21 61 -34 12 -13 39 -26 65 -30 24 -4 58 -18 76 -31 37 -28 88 -31 114 -8 16 14 20 14 49 -1 78 -40 258 16 357 110 28 27 63 50 87 56 46 12 106 68 106 97 0 12 22 50 50 86 71 95 94 182 69 270 -9 33 -7 46 12 90 27 62 28 132 3 175 -10 17 -22 31 -26 31 -4 0 -8 19 -8 41 0 34 -6 47 -35 74 -20 17 -49 53 -65 78 -34 55 -91 99 -179 139 -125 57 -189 136 -125 152 19 5 32 21 49 59 23 54 76 110 114 122 12 3 21 12 21 19 0 9 29 17 88 24 112 14 147 25 204 61 73 47 118 131 118 222 l0 49 -831 0 -832 0 6 -51z m886 -635 c19 -15 31 -35 31 -50 0 -21 -3 -23 -26 -14 -14 6 -50 10 -80 10 -53 0 -55 1 -49 23 9 30 42 57 70 57 13 0 37 -12 54 -26z m271 -466 c0 -5 -4 -8 -10 -8 -5 0 -10 10 -10 23 0 18 2 19 10 7 5 -8 10 -18 10 -22z m-470 8 c0 -14 -29 -31 -38 -22 -2 3 -2 12 1 21 8 19 37 20 37 1z m430 -1 c0 -9 -10 -19 -22 -24 -29 -11 -32 -8 -18 18 13 24 40 28 40 6z"/>
 </g>
<g id="layer104" fill="#b1a08f" stroke="none">
 <path d="M173 1949 c10 -81 63 -176 120 -215 57 -39 91 -50 210 -66 48 -6 87 -16 88 -22 0 -6 21 -24 47 -41 36 -23 54 -44 75 -88 19 -39 38 -63 55 -70 23 -10 27 -17 22 -38 -8 -40 -93 -106 -154 -119 -104 -22 -174 -85 -198 -176 -8 -27 -25 -67 -40 -89 -31 -46 -49 -108 -49 -168 0 -23 -2 -105 -4 -182 -3 -145 5 -186 42 -227 9 -10 18 -38 21 -61 5 -56 28 -103 64 -130 16 -12 48 -39 71 -60 23 -20 59 -42 82 -48 22 -6 49 -21 61 -34 12 -13 39 -26 65 -30 24 -4 58 -18 76 -31 37 -28 88 -31 114 -8 16 14 20 14 49 -1 78 -40 258 16 357 110 28 27 63 50 87 56 46 12 106 68 106 97 0 12 22 50 50 86 71 95 94 182 69 270 -9 33 -7 46 12 90 27 62 28 132 3 175 -10 17 -22 31 -26 31 -4 0 -8 19 -8 41 0 34 -6 47 -35 74 -20 17 -49 53 -65 78 -34 55 -91 99 -179 139 -125 57 -189 136 -125 152 19 5 32 21 49 59 23 54 76 110 114 122 12 3 21 12 21 19 0 9 29 17 88 24 112 14 147 25 204 61 73 47 118 131 118 222 l0 49 -831 0 -832 0 6 -51z m886 -635 c19 -15 31 -35 31 -50 0 -21 -3 -23 -26 -14 -14 6 -50 10 -80 10 -53 0 -55 1 -49 23 9 30 42 57 70 57 13 0 37 -12 54 -26z m360 -109 c58 -63 51 -76 -9 -17 -27 27 -50 52 -50 56 0 16 21 2 59 -39z m-854 -47 c-14 -29 -25 -64 -25 -78 0 -14 -5 -32 -10 -40 -16 -25 -12 56 5 97 14 32 42 73 51 73 2 0 -8 -24 -21 -52z m765 -310 c0 -5 -4 -8 -10 -8 -5 0 -10 10 -10 23 0 18 2 19 10 7 5 -8 10 -18 10 -22z m-470 8 c0 -14 -29 -31 -38 -22 -2 3 -2 12 1 21 8 19 37 20 37 1z m430 -1 c0 -9 -10 -19 -22 -24 -29 -11 -32 -8 -18 18 13 24 40 28 40 6z m302 -249 c-6 -32 -17 -64 -23 -70 -9 -8 -10 -6 -4 9 5 11 11 61 13 110 5 84 6 87 15 51 7 -27 6 -59 -1 -100z m-1022 91 c0 -12 6 -50 14 -84 7 -35 9 -63 5 -63 -4 0 -12 24 -18 53 -17 92 -20 128 -10 122 5 -4 9 -16 9 -28z m815 -168 c-92 -31 -122 -45 -157 -77 -21 -19 -38 -30 -38 -24 0 17 76 79 111 90 46 14 70 20 94 20 13 0 9 -3 -10 -9z m-880 -191 c4 -10 4 -18 1 -18 -14 0 -36 71 -36 114 0 84 15 84 21 1 4 -44 10 -88 14 -97z m840 6 c-22 -15 -65 -50 -95 -79 -57 -54 -97 -81 -108 -71 -3 3 0 6 6 6 7 0 45 31 85 70 69 65 118 100 142 100 5 0 -8 -12 -30 -26z m-457 -197 c15 -9 59 -27 97 -40 54 -17 64 -23 44 -25 -30 -3 -140 40 -178 69 -14 11 -32 30 -40 42 -14 20 -13 20 18 -3 18 -14 45 -33 59 -43z"/>
 </g>
<g id="layer105" fill="#b79674" stroke="none">
 <path d="M173 1949 c10 -81 63 -176 120 -215 57 -39 91 -50 210 -66 48 -6 87 -16 88 -22 0 -6 21 -24 47 -41 36 -23 54 -44 75 -88 19 -39 38 -63 55 -70 23 -10 27 -17 22 -38 -8 -40 -93 -106 -154 -119 -104 -22 -174 -85 -198 -176 -8 -27 -25 -67 -40 -89 -31 -46 -49 -108 -49 -168 0 -23 -2 -105 -4 -182 -3 -145 5 -186 42 -227 9 -10 18 -38 21 -61 5 -56 28 -103 64 -130 16 -12 48 -39 71 -60 23 -20 59 -42 82 -48 22 -6 49 -21 61 -34 12 -13 39 -26 65 -30 24 -4 58 -18 76 -31 37 -28 88 -31 114 -8 16 14 20 14 49 -1 78 -40 258 16 357 110 28 27 63 50 87 56 46 12 106 68 106 97 0 12 22 50 50 86 71 95 94 182 69 270 -9 33 -7 46 12 90 27 62 28 132 3 175 -10 17 -22 31 -26 31 -4 0 -8 19 -8 41 0 34 -6 47 -35 74 -20 17 -49 53 -65 78 -34 55 -91 99 -179 139 -125 57 -189 136 -125 152 19 5 32 21 49 59 23 54 76 110 114 122 12 3 21 12 21 19 0 9 29 17 88 24 112 14 147 25 204 61 73 47 118 131 118 222 l0 49 -831 0 -832 0 6 -51z m897 -639 c31 -33 32 -77 1 -65 -9 4 -44 9 -78 12 -59 5 -61 7 -59 32 6 55 91 69 136 21z m349 -105 c58 -63 51 -76 -9 -17 -27 27 -50 52 -50 56 0 16 21 2 59 -39z m-854 -47 c-14 -29 -25 -64 -25 -78 0 -14 -5 -32 -10 -40 -16 -25 -12 56 5 97 14 32 42 73 51 73 2 0 -8 -24 -21 -52z m135 -300 c0 -16 -3 -19 -11 -11 -6 6 -8 16 -5 22 11 17 16 13 16 -11z m170 1 c0 -8 -32 -29 -44 -29 -10 0 -6 26 5 37 12 12 39 7 39 -8z m418 -15 c-4 -21 -48 -33 -48 -13 0 7 8 21 17 31 19 21 37 10 31 -18z m42 10 c0 -8 -4 -14 -10 -14 -5 0 -10 9 -10 21 0 11 5 17 10 14 6 -3 10 -13 10 -21z m262 -248 c-6 -32 -17 -64 -23 -70 -9 -8 -10 -6 -4 9 5 11 11 61 13 110 5 84 6 87 15 51 7 -27 6 -59 -1 -100z m-1022 91 c0 -12 6 -50 14 -84 7 -35 9 -63 5 -63 -4 0 -12 24 -18 53 -17 92 -20 128 -10 122 5 -4 9 -16 9 -28z m815 -168 c-92 -31 -122 -45 -157 -77 -21 -19 -38 -30 -38 -24 0 17 76 79 111 90 46 14 70 20 94 20 13 0 9 -3 -10 -9z m-880 -191 c4 -10 4 -18 1 -18 -14 0 -36 71 -36 114 0 84 15 84 21 1 4 -44 10 -88 14 -97z m840 6 c-22 -15 -65 -50 -95 -79 -57 -54 -97 -81 -108 -71 -3 3 0 6 6 6 7 0 45 31 85 70 69 65 118 100 142 100 5 0 -8 -12 -30 -26z m-457 -197 c15 -9 59 -27 97 -40 54 -17 64 -23 44 -25 -30 -3 -140 40 -178 69 -14 11 -32 30 -40 42 -14 20 -13 20 18 -3 18 -14 45 -33 59 -43z"/>
 </g>
<g id="layer106" fill="#9d887c" stroke="none">
 <path d="M173 1949 c10 -81 63 -176 120 -215 57 -39 91 -50 210 -66 48 -6 87 -16 88 -22 0 -6 21 -24 47 -41 36 -23 54 -44 75 -88 19 -39 38 -63 55 -70 23 -10 27 -17 22 -38 -8 -40 -93 -106 -154 -119 -104 -22 -174 -85 -198 -176 -8 -27 -25 -67 -40 -89 -31 -46 -49 -108 -49 -168 0 -23 -2 -105 -4 -182 -3 -145 5 -186 42 -227 9 -10 18 -38 21 -61 5 -56 28 -103 64 -130 16 -12 48 -39 71 -60 23 -20 59 -42 82 -48 22 -6 49 -21 61 -34 12 -13 39 -26 65 -30 24 -4 58 -18 76 -31 37 -28 88 -31 114 -8 16 14 20 14 49 -1 78 -40 258 16 357 110 28 27 63 50 87 56 46 12 106 68 106 97 0 12 22 50 50 86 71 95 94 182 69 270 -9 33 -7 46 12 90 27 62 28 132 3 175 -10 17 -22 31 -26 31 -4 0 -8 19 -8 41 0 34 -6 47 -35 74 -20 17 -49 53 -65 78 -34 55 -91 99 -179 139 -125 57 -189 136 -125 152 19 5 32 21 49 59 23 54 76 110 114 122 12 3 21 12 21 19 0 9 29 17 88 24 112 14 147 25 204 61 73 47 118 131 118 222 l0 49 -831 0 -832 0 6 -51z m897 -639 c31 -33 32 -77 1 -65 -9 4 -44 9 -78 12 -59 5 -61 7 -59 32 6 55 91 69 136 21z m334 -74 c69 -43 140 -106 120 -106 -6 0 -15 5 -22 12 -7 7 -12 8 -12 3 0 -4 27 -33 60 -64 33 -31 60 -65 60 -75 0 -18 -1 -18 -20 -1 -11 10 -20 14 -20 8 0 -5 12 -20 26 -34 59 -55 78 -140 50 -219 -12 -32 -13 -33 -25 -15 -12 20 -12 20 -7 0 23 -91 26 -120 15 -178 -11 -65 -45 -144 -79 -187 l-20 -25 -1 30 c0 21 -4 13 -13 -27 -13 -61 -34 -91 -80 -115 -21 -11 -31 -12 -36 -3 -4 7 -17 -5 -34 -30 -72 -109 -288 -173 -405 -120 -54 25 -59 25 -37 1 16 -18 16 -19 -9 -25 -31 -8 -60 0 -96 25 -14 10 -29 16 -32 13 -11 -12 -75 26 -106 62 -26 30 -32 34 -28 17 l5 -22 -38 19 c-21 10 -50 34 -65 52 -15 18 -35 33 -44 33 -39 0 -103 161 -86 216 5 15 4 19 -4 15 -6 -4 -11 -15 -12 -24 -1 -30 -38 62 -39 96 0 18 9 58 20 90 19 57 19 57 0 33 l-20 -23 0 60 c0 33 7 78 15 101 9 27 10 39 3 35 -17 -11 -2 79 21 124 10 20 33 50 50 66 31 30 44 59 16 36 -49 -40 -6 57 47 106 33 32 107 74 129 74 6 0 -2 -21 -17 -47 -26 -44 -29 -57 -29 -143 0 -52 4 -122 8 -155 l8 -60 -24 35 c-25 36 -117 118 -117 104 0 -3 15 -23 34 -44 50 -55 93 -177 111 -314 16 -128 30 -170 66 -202 33 -29 67 -35 112 -20 l37 14 0 -37 c0 -20 7 -47 16 -59 43 -62 134 11 173 140 47 156 64 192 111 239 51 51 122 76 186 66 69 -11 123 69 109 161 -9 66 -33 147 -62 212 -47 104 -53 120 -46 120 3 0 38 -20 77 -44z m-704 -378 c0 -16 -3 -19 -11 -11 -6 6 -8 16 -5 22 11 17 16 13 16 -11z m170 1 c0 -8 -32 -29 -44 -29 -10 0 -6 26 5 37 12 12 39 7 39 -8z m418 -15 c-4 -21 -48 -33 -48 -13 0 7 8 21 17 31 19 21 37 10 31 -18z m42 10 c0 -8 -4 -14 -10 -14 -5 0 -10 9 -10 21 0 11 5 17 10 14 6 -3 10 -13 10 -21z"/>
 <path d="M1458 1074 c6 -12 27 -40 47 -64 40 -48 54 -71 66 -109 l7 -26 1 24 c1 39 -34 102 -85 151 -26 25 -42 36 -36 24z"/>
 <path d="M440 916 c0 -3 5 -17 11 -32 5 -16 19 -84 29 -152 34 -224 78 -309 185 -358 27 -13 51 -21 54 -19 5 6 8 4 -52 34 -88 45 -120 111 -157 321 -20 113 -50 210 -64 210 -3 0 -6 -2 -6 -4z"/>
 <path d="M1504 852 c34 -66 43 -151 23 -214 -18 -56 -14 -61 10 -15 25 48 23 160 -4 213 -12 22 -29 47 -39 55 -12 10 -9 -1 10 -39z"/>
 <path d="M1224 596 c-62 -29 -94 -68 -133 -166 -53 -131 -137 -184 -223 -141 l-43 22 28 -26 c41 -37 110 -35 163 4 58 42 72 62 105 143 35 86 75 132 144 164 29 14 42 24 30 24 -11 0 -43 -11 -71 -24z"/>
 <path d="M1292 445 c-59 -26 -89 -54 -137 -126 -25 -38 -60 -79 -78 -89 -56 -34 -160 -22 -217 26 -32 27 -43 19 -12 -9 51 -47 165 -71 225 -48 32 12 80 64 119 131 45 74 97 109 178 119 l65 8 -55 1 c-30 1 -70 -5 -88 -13z"/>
 <path d="M516 403 c26 -114 110 -168 199 -129 29 13 28 14 -32 12 -78 -1 -110 20 -138 92 -21 55 -40 70 -29 25z"/>
 <path d="M790 281 c0 -21 53 -70 107 -98 74 -39 165 -58 246 -49 63 6 154 43 178 73 9 10 -3 7 -37 -10 -73 -37 -158 -50 -239 -37 -96 15 -168 46 -214 90 -23 22 -41 36 -41 31z"/>
 <path d="M750 207 c0 -26 27 -75 49 -87 33 -17 36 -11 9 18 -14 15 -33 41 -41 57 -11 21 -16 25 -17 12z"/>
 </g>
<g id="layer107" fill="#a7815a" stroke="none">
 <path d="M173 1949 c10 -81 63 -176 120 -215 57 -39 91 -50 210 -66 48 -6 87 -16 88 -22 0 -6 21 -24 47 -41 36 -23 54 -44 75 -88 19 -39 38 -63 55 -70 23 -10 27 -17 22 -38 -8 -40 -93 -106 -154 -119 -104 -22 -174 -85 -198 -176 -8 -27 -25 -67 -40 -89 -31 -46 -49 -108 -49 -168 0 -23 -2 -105 -4 -182 -3 -145 5 -186 42 -227 9 -10 18 -38 21 -61 5 -56 28 -103 64 -130 16 -12 48 -39 71 -60 23 -20 59 -42 82 -48 22 -6 49 -21 61 -34 12 -13 39 -26 65 -30 24 -4 58 -18 76 -31 37 -28 88 -31 114 -8 16 14 20 14 49 -1 78 -40 258 16 357 110 28 27 63 50 87 56 46 12 106 68 106 97 0 12 22 50 50 86 71 95 94 182 69 270 -9 33 -7 46 12 90 27 62 28 132 3 175 -10 17 -22 31 -26 31 -4 0 -8 19 -8 41 0 34 -6 47 -35 74 -20 17 -49 53 -65 78 -34 55 -91 99 -179 139 -125 57 -189 136 -125 152 19 5 32 21 49 59 23 54 76 110 114 122 12 3 21 12 21 19 0 9 29 17 88 24 112 14 147 25 204 61 73 47 118 131 118 222 l0 49 -831 0 -832 0 6 -51z m893 -632 c14 -13 28 -36 29 -51 3 -25 1 -27 -18 -21 -12 3 -50 9 -84 12 -59 5 -62 7 -60 32 4 50 86 68 133 28z m338 -81 c69 -43 140 -106 120 -106 -6 0 -15 5 -22 12 -7 7 -12 8 -12 3 0 -4 27 -33 60 -64 33 -31 60 -65 60 -75 0 -18 -1 -18 -20 -1 -11 10 -20 14 -20 8 0 -5 12 -20 26 -34 59 -55 78 -140 50 -219 -12 -32 -13 -33 -25 -15 -12 20 -12 20 -7 0 23 -91 26 -120 15 -178 -11 -65 -45 -144 -79 -187 l-20 -25 -1 30 c0 21 -4 13 -13 -27 -13 -61 -34 -91 -80 -115 -21 -11 -31 -12 -36 -3 -4 7 -17 -5 -34 -30 -72 -109 -288 -173 -405 -120 -54 25 -59 25 -37 1 16 -18 16 -19 -9 -25 -31 -8 -60 0 -96 25 -14 10 -29 16 -32 13 -11 -12 -75 26 -106 62 -26 30 -32 34 -28 17 l5 -22 -38 19 c-21 10 -50 34 -65 52 -15 18 -35 33 -44 33 -39 0 -103 161 -86 216 5 15 4 19 -4 15 -6 -4 -11 -15 -12 -24 -1 -30 -38 62 -39 96 0 18 9 58 20 90 19 57 19 57 0 33 l-20 -23 0 60 c0 33 7 78 15 101 9 27 10 39 3 35 -17 -11 -2 79 21 124 10 20 33 50 50 66 31 30 44 59 16 36 -49 -40 -6 57 47 106 33 32 107 74 129 74 6 0 -2 -21 -17 -47 -26 -44 -29 -57 -29 -143 0 -52 4 -122 8 -155 l8 -60 -24 35 c-25 36 -117 118 -117 104 0 -3 15 -23 34 -44 50 -55 93 -177 111 -314 16 -128 30 -170 66 -202 33 -29 67 -35 112 -20 l37 14 0 -37 c0 -20 7 -47 16 -59 43 -62 134 11 173 140 47 156 64 192 111 239 51 51 122 76 186 66 69 -11 123 69 109 161 -9 66 -33 147 -62 212 -47 104 -53 120 -46 120 3 0 38 -20 77 -44z m-504 -358 c0 -5 -4 -8 -10 -8 -5 0 -10 10 -10 23 0 18 2 19 10 7 5 -8 10 -18 10 -22z m226 -5 c-11 -11 -19 6 -11 24 8 17 8 17 12 0 3 -10 2 -21 -1 -24z m-430 -30 c-11 -11 -19 6 -11 24 8 17 8 17 12 0 3 -10 2 -21 -1 -24z m171 20 c5 -13 -32 -36 -48 -31 -5 2 -2 13 7 26 16 23 35 25 41 5z m428 -14 c0 -19 -6 -25 -27 -27 -32 -4 -38 17 -12 43 22 21 39 14 39 -16z m35 6 c0 -8 -4 -17 -10 -20 -6 -4 -10 5 -10 20 0 15 4 24 10 20 6 -3 10 -12 10 -20z"/>
 <path d="M1458 1074 c6 -12 27 -40 47 -64 40 -48 54 -71 66 -109 l7 -26 1 24 c1 39 -34 102 -85 151 -26 25 -42 36 -36 24z"/>
 <path d="M440 916 c0 -3 5 -17 11 -32 5 -16 19 -84 29 -152 34 -224 78 -309 185 -358 27 -13 51 -21 54 -19 5 6 8 4 -52 34 -88 45 -120 111 -157 321 -20 113 -50 210 -64 210 -3 0 -6 -2 -6 -4z"/>
 <path d="M1504 852 c34 -66 43 -151 23 -214 -18 -56 -14 -61 10 -15 25 48 23 160 -4 213 -12 22 -29 47 -39 55 -12 10 -9 -1 10 -39z"/>
 <path d="M1224 596 c-62 -29 -94 -68 -133 -166 -53 -131 -137 -184 -223 -141 l-43 22 28 -26 c41 -37 110 -35 163 4 58 42 72 62 105 143 35 86 75 132 144 164 29 14 42 24 30 24 -11 0 -43 -11 -71 -24z"/>
 <path d="M1292 445 c-59 -26 -89 -54 -137 -126 -25 -38 -60 -79 -78 -89 -56 -34 -160 -22 -217 26 -32 27 -43 19 -12 -9 51 -47 165 -71 225 -48 32 12 80 64 119 131 45 74 97 109 178 119 l65 8 -55 1 c-30 1 -70 -5 -88 -13z"/>
 <path d="M516 403 c26 -114 110 -168 199 -129 29 13 28 14 -32 12 -78 -1 -110 20 -138 92 -21 55 -40 70 -29 25z"/>
 <path d="M790 281 c0 -21 53 -70 107 -98 74 -39 165 -58 246 -49 63 6 154 43 178 73 9 10 -3 7 -37 -10 -73 -37 -158 -50 -239 -37 -96 15 -168 46 -214 90 -23 22 -41 36 -41 31z"/>
 <path d="M750 207 c0 -26 27 -75 49 -87 33 -17 36 -11 9 18 -14 15 -33 41 -41 57 -11 21 -16 25 -17 12z"/>
 </g>
<g id="layer108" fill="#9b7249" stroke="none">
 <path d="M173 1949 c10 -81 63 -176 120 -215 57 -39 91 -50 210 -66 48 -6 87 -16 88 -22 0 -6 21 -24 47 -41 36 -23 54 -44 75 -88 19 -39 38 -63 55 -70 23 -10 27 -17 22 -38 -8 -40 -93 -106 -154 -119 -104 -22 -174 -85 -198 -176 -8 -27 -25 -67 -40 -89 -31 -46 -49 -108 -49 -168 0 -23 -2 -105 -4 -182 -3 -145 5 -186 42 -227 9 -10 18 -38 21 -61 5 -56 28 -103 64 -130 16 -12 48 -39 71 -60 23 -20 59 -42 82 -48 22 -6 49 -21 61 -34 12 -13 39 -26 65 -30 24 -4 58 -18 76 -31 37 -28 88 -31 114 -8 16 14 20 14 49 -1 78 -40 265 18 353 110 28 29 56 47 86 55 51 13 111 67 111 98 0 12 22 50 50 86 71 95 94 182 69 270 -9 33 -7 46 12 90 27 62 28 132 3 175 -10 17 -22 31 -26 31 -4 0 -8 19 -8 41 0 34 -6 47 -35 74 -20 17 -49 53 -65 78 -34 55 -91 99 -179 139 -125 57 -189 136 -125 152 19 5 32 21 49 59 23 54 76 110 114 122 12 3 21 12 21 19 0 9 29 17 88 24 112 14 147 25 204 61 73 47 118 131 118 222 l0 49 -831 0 -832 0 6 -51z m893 -632 c14 -13 28 -36 29 -51 3 -25 1 -27 -18 -21 -12 3 -50 9 -84 12 -59 5 -62 7 -60 32 4 50 86 68 133 28z m338 -76 c76 -46 112 -76 131 -110 6 -11 4 -13 -11 -8 -10 4 2 -12 28 -35 46 -42 74 -90 62 -109 -3 -5 4 -21 15 -35 42 -54 47 -112 16 -195 -9 -23 -12 -56 -8 -91 7 -67 -9 -144 -43 -212 -34 -67 -55 -91 -66 -74 -5 9 -8 5 -8 -10 0 -44 -31 -92 -77 -119 -24 -14 -46 -23 -48 -21 -3 2 -29 -19 -58 -48 -103 -99 -285 -138 -387 -84 -14 7 -17 6 -16 -8 1 -14 -7 -17 -46 -16 -30 0 -54 7 -66 17 -10 9 -29 17 -42 17 -29 0 -87 36 -101 62 -8 15 -13 17 -19 8 -11 -17 -83 22 -110 60 -12 17 -25 28 -29 25 -11 -6 -55 42 -75 82 -9 18 -19 53 -22 78 -4 24 -10 42 -14 40 -5 -3 -16 15 -25 40 -17 44 -17 127 0 168 5 12 3 17 -6 15 -16 -3 -16 18 -6 164 7 98 22 141 69 201 18 23 27 38 20 34 -18 -12 -15 18 8 62 28 57 101 112 178 136 l23 7 -18 -34 c-14 -27 -18 -64 -21 -210 -2 -98 -7 -178 -11 -178 -4 0 -14 12 -23 28 -9 15 -31 41 -49 57 l-32 30 36 -48 c49 -66 72 -133 97 -278 24 -142 37 -178 76 -208 28 -22 39 -23 102 -5 20 6 22 3 22 -40 0 -37 4 -48 24 -61 22 -15 27 -15 55 0 41 21 52 46 96 215 20 79 46 158 58 174 32 45 97 68 196 70 l86 1 19 60 c19 58 19 62 2 165 -10 58 -30 142 -45 188 -15 45 -25 82 -23 82 2 0 41 -22 86 -49z m-504 -357 c0 -8 -4 -14 -10 -14 -5 0 -10 9 -10 21 0 11 5 17 10 14 6 -3 10 -13 10 -21z m226 -11 c-11 -11 -19 6 -11 24 8 17 8 17 12 0 3 -10 2 -21 -1 -24z m-430 -30 c-11 -11 -19 6 -11 24 8 17 8 17 12 0 3 -10 2 -21 -1 -24z m171 20 c5 -13 -32 -36 -48 -31 -5 2 -2 13 7 26 16 23 35 25 41 5z m428 -14 c0 -19 -6 -25 -27 -27 -32 -4 -38 17 -12 43 22 21 39 14 39 -16z m35 6 c0 -8 -4 -17 -10 -20 -6 -4 -10 5 -10 20 0 15 4 24 10 20 6 -3 10 -12 10 -20z"/>
 <path d="M1510 1013 c18 -24 35 -43 37 -43 9 0 -18 37 -43 60 -24 22 -23 20 6 -17z"/>
 <path d="M463 856 c3 -7 13 -65 22 -127 9 -62 25 -139 35 -172 18 -58 68 -142 78 -132 3 3 -3 13 -12 24 -27 30 -54 112 -76 231 -22 126 -38 190 -46 190 -4 0 -4 -6 -1 -14z"/>
 <path d="M1543 725 c0 -33 2 -45 4 -27 2 18 2 45 0 60 -2 15 -4 0 -4 -33z"/>
 <path d="M1203 580 c-33 -20 -93 -94 -93 -114 0 -28 -54 -123 -88 -154 -37 -36 -37 -36 -5 -17 43 25 65 57 103 148 24 58 43 87 77 117 51 45 52 49 6 20z"/>
 <path d="M1229 403 c-17 -15 -51 -57 -75 -95 -44 -68 -73 -90 -141 -108 l-38 -10 44 5 c65 8 97 30 138 93 20 31 55 76 77 100 46 48 43 55 -5 15z"/>
 <path d="M531 370 c-1 -22 34 -72 61 -86 13 -8 37 -13 53 -13 l30 1 -30 7 c-50 12 -74 30 -94 69 -11 20 -20 30 -20 22z"/>
 <path d="M885 194 c38 -28 144 -54 219 -53 l71 2 -91 7 c-59 5 -113 17 -155 33 -35 15 -55 19 -44 11z"/>
 <path d="M769 162 c5 -10 18 -25 27 -33 11 -9 9 -2 -6 19 -26 35 -36 42 -21 14z"/>
 </g>
<g id="layer109" fill="#6d6c6b" stroke="none">
 <path d="M173 1949 c10 -81 63 -176 120 -215 57 -39 91 -50 210 -66 48 -6 87 -16 88 -22 0 -6 21 -24 47 -41 36 -23 54 -44 75 -88 19 -39 38 -63 55 -70 23 -10 27 -17 22 -38 -8 -40 -93 -106 -154 -119 -105 -22 -174 -84 -197 -175 -7 -27 -23 -64 -36 -82 -31 -40 -54 -114 -54 -173 0 -25 -2 -108 -4 -185 -3 -145 5 -186 42 -227 9 -10 18 -38 21 -61 5 -56 28 -103 64 -130 16 -12 48 -39 71 -60 23 -20 59 -42 82 -48 22 -6 49 -21 61 -34 12 -13 39 -26 65 -30 24 -4 58 -18 76 -31 37 -28 88 -31 114 -8 16 14 20 14 48 0 16 -9 47 -16 67 -16 36 0 60 6 150 37 59 20 126 66 146 101 13 21 29 32 55 37 71 13 133 63 133 106 0 10 22 47 50 83 71 95 94 182 69 270 -9 32 -7 46 10 86 26 60 28 141 4 181 -10 16 -21 29 -25 29 -4 0 -8 19 -8 41 0 35 -6 47 -39 78 -21 20 -51 55 -65 79 -32 51 -88 94 -175 134 -125 57 -189 136 -125 152 19 5 32 21 49 59 23 54 76 110 114 122 12 3 21 12 21 19 0 9 29 17 88 24 112 14 147 25 204 61 73 47 118 131 118 222 l0 49 -831 0 -832 0 6 -51z m893 -632 c14 -13 28 -36 29 -51 3 -25 1 -27 -18 -21 -12 3 -50 9 -84 12 -59 5 -62 7 -60 32 4 50 86 68 133 28z m428 -135 c16 -15 34 -41 41 -57 8 -17 23 -39 35 -50 26 -24 52 -71 48 -88 -2 -6 8 -29 21 -50 32 -52 37 -104 16 -168 -12 -35 -18 -87 -19 -149 -1 -76 -6 -105 -24 -145 -29 -63 -72 -126 -82 -120 -4 3 -10 -9 -14 -26 -7 -39 -68 -98 -108 -106 -16 -3 -39 -19 -50 -34 -31 -42 -87 -76 -172 -104 -84 -28 -150 -32 -201 -11 -29 12 -34 12 -39 0 -8 -21 -85 -18 -120 5 -17 11 -33 18 -38 15 -10 -6 -67 23 -95 49 -13 11 -26 18 -29 14 -11 -10 -80 30 -107 63 -14 16 -30 30 -36 30 -5 0 -25 18 -44 40 -33 39 -57 97 -57 139 0 11 -4 21 -9 21 -23 0 -43 73 -39 141 2 39 0 69 -6 69 -5 0 -6 32 -2 78 4 42 8 102 10 132 3 56 34 140 63 172 8 10 17 33 18 52 2 41 41 96 97 136 39 29 105 56 114 48 2 -3 -3 -21 -11 -41 -11 -26 -15 -73 -15 -165 0 -132 -8 -222 -19 -222 -4 0 -15 16 -25 35 -10 19 -28 42 -38 52 -11 10 -4 -6 16 -35 42 -63 61 -123 81 -252 28 -182 49 -220 120 -220 24 0 47 5 50 10 14 22 25 8 25 -31 0 -56 14 -79 49 -79 44 0 74 43 100 146 47 182 62 224 92 258 43 49 111 70 198 61 l68 -7 17 41 c30 76 13 245 -40 391 -13 37 -24 70 -24 74 0 10 153 -83 184 -112z m-594 -298 c0 -8 -4 -14 -10 -14 -5 0 -10 9 -10 21 0 11 5 17 10 14 6 -3 10 -13 10 -21z m226 -11 c-11 -11 -19 6 -11 24 8 17 8 17 12 0 3 -10 2 -21 -1 -24z m-430 -30 c-11 -11 -19 6 -11 24 8 17 8 17 12 0 3 -10 2 -21 -1 -24z m171 20 c5 -13 -32 -36 -48 -31 -5 2 -2 13 7 26 16 23 35 25 41 5z m428 -14 c0 -19 -6 -25 -27 -27 -32 -4 -38 17 -12 43 22 21 39 14 39 -16z m35 6 c0 -8 -4 -17 -10 -20 -6 -4 -10 5 -10 20 0 15 4 24 10 20 6 -3 10 -12 10 -20z"/>
 <path d="M1140 513 c-17 -26 -30 -52 -30 -57 0 -6 12 9 26 34 14 25 30 51 36 57 6 7 8 13 4 13 -4 0 -20 -21 -36 -47z"/>
 <path d="M1156 307 c-18 -30 -46 -63 -61 -75 -15 -12 -23 -22 -18 -22 14 0 67 59 97 108 14 23 24 42 21 42 -2 0 -20 -24 -39 -53z"/>
 </g>
<g id="layer110" fill="#92663b" stroke="none">
 <path d="M173 1949 c10 -81 63 -176 120 -215 57 -39 91 -50 210 -66 48 -6 87 -16 88 -22 0 -6 21 -24 47 -41 36 -23 54 -44 75 -88 19 -39 38 -63 55 -70 23 -10 27 -17 22 -38 -8 -40 -93 -106 -154 -119 -105 -22 -174 -84 -197 -175 -7 -27 -23 -64 -36 -82 -31 -40 -54 -114 -54 -173 0 -25 -2 -108 -4 -185 -3 -145 5 -186 42 -227 9 -10 18 -38 21 -61 5 -56 28 -103 64 -130 16 -12 48 -39 71 -60 23 -20 59 -42 82 -48 22 -6 49 -21 61 -34 12 -13 39 -26 65 -30 24 -4 58 -18 76 -31 37 -28 88 -31 114 -8 16 14 20 14 48 0 16 -9 47 -16 67 -16 36 0 60 6 150 37 59 20 126 66 146 101 13 21 29 32 55 37 71 13 133 63 133 106 0 10 22 47 50 83 71 95 94 182 69 270 -9 32 -7 46 10 86 26 60 28 141 4 181 -10 16 -21 29 -25 29 -4 0 -8 19 -8 41 0 35 -6 47 -39 78 -21 20 -51 55 -65 79 -32 51 -88 94 -175 134 -125 57 -189 136 -125 152 19 5 32 21 49 59 23 54 76 110 114 122 12 3 21 12 21 19 0 9 29 17 88 24 112 14 147 25 204 61 73 47 118 131 118 222 l0 49 -831 0 -832 0 6 -51z m898 -638 c16 -17 29 -40 29 -54 0 -24 -1 -24 -37 -11 -21 7 -61 13 -90 14 -51 0 -51 0 -44 28 15 56 95 69 142 23z m423 -129 c16 -15 34 -41 41 -57 8 -17 23 -39 35 -50 26 -24 52 -71 48 -88 -2 -6 8 -29 21 -50 32 -52 37 -104 16 -168 -12 -35 -18 -87 -19 -149 -1 -76 -6 -105 -24 -145 -29 -63 -72 -126 -82 -120 -4 3 -10 -9 -14 -26 -7 -39 -68 -98 -108 -106 -16 -3 -39 -19 -50 -34 -31 -42 -87 -76 -172 -104 -84 -28 -150 -32 -201 -11 -29 12 -34 12 -39 0 -8 -21 -85 -18 -120 5 -17 11 -33 18 -38 15 -10 -6 -67 23 -95 49 -13 11 -26 18 -29 14 -11 -10 -80 30 -107 63 -14 16 -30 30 -36 30 -5 0 -25 18 -44 40 -33 39 -57 97 -57 139 0 11 -4 21 -9 21 -23 0 -43 73 -39 141 2 39 0 69 -6 69 -5 0 -6 32 -2 78 4 42 8 102 10 132 3 56 34 140 63 172 8 10 17 33 18 52 2 41 41 96 97 136 39 29 105 56 114 48 2 -3 -3 -21 -11 -41 -11 -26 -15 -73 -15 -165 0 -132 -8 -222 -19 -222 -4 0 -15 16 -25 35 -10 19 -28 42 -38 52 -11 10 -4 -6 16 -35 42 -63 61 -123 81 -252 28 -182 49 -220 120 -220 24 0 47 5 50 10 14 22 25 8 25 -31 0 -56 14 -79 49 -79 44 0 74 43 100 146 47 182 62 224 92 258 43 49 111 70 198 61 l68 -7 17 41 c30 76 13 245 -40 391 -13 37 -24 70 -24 74 0 10 153 -83 184 -112z m-596 -295 c5 -24 -15 -21 -21 4 -3 13 -1 19 6 16 7 -2 13 -11 15 -20z m232 -4 c0 -20 -3 -24 -11 -16 -7 7 -9 19 -6 27 10 24 17 19 17 -11z m197 -36 c-5 -14 -76 -42 -84 -33 -3 3 -2 17 1 31 9 34 35 44 52 20 13 -18 14 -17 14 6 1 22 2 22 11 6 6 -10 9 -24 6 -30z m-629 -6 c-15 -5 -21 7 -13 26 7 17 8 17 15 -2 4 -11 3 -22 -2 -24z m168 27 c7 -11 -29 -48 -47 -48 -14 0 -10 22 8 42 19 21 29 23 39 6z"/>
 <path d="M1140 513 c-17 -26 -30 -52 -30 -57 0 -6 12 9 26 34 14 25 30 51 36 57 6 7 8 13 4 13 -4 0 -20 -21 -36 -47z"/>
 <path d="M1156 307 c-18 -30 -46 -63 -61 -75 -15 -12 -23 -22 -18 -22 14 0 67 59 97 108 14 23 24 42 21 42 -2 0 -20 -24 -39 -53z"/>
 </g>
<g id="layer111" fill="#885a2d" stroke="none">
 <path d="M173 1949 c10 -81 63 -176 120 -215 57 -39 91 -50 210 -66 48 -6 87 -16 88 -22 0 -6 21 -24 47 -41 36 -23 54 -44 75 -88 19 -39 38 -63 55 -70 23 -10 27 -17 22 -39 -6 -33 -99 -111 -138 -115 -114 -14 -198 -91 -218 -198 -4 -22 -18 -51 -31 -64 -27 -28 -54 -112 -54 -173 0 -24 -2 -104 -4 -178 -4 -139 5 -187 44 -233 8 -9 16 -30 17 -45 7 -67 17 -91 52 -126 81 -81 128 -117 167 -127 22 -6 50 -21 62 -34 14 -15 40 -26 69 -31 25 -3 58 -17 74 -30 33 -28 85 -32 111 -8 16 14 20 14 48 0 16 -9 47 -16 67 -16 36 0 60 6 150 36 48 17 121 63 128 80 3 7 -16 -1 -42 -17 -92 -58 -237 -86 -309 -58 -19 7 -29 7 -31 0 -7 -22 -70 -24 -114 -3 -24 11 -55 23 -70 26 -14 3 -41 18 -58 33 -18 15 -42 27 -55 28 -26 1 -101 50 -109 71 -3 8 -12 14 -20 14 -31 0 -105 117 -106 167 0 12 -11 38 -24 58 -30 44 -41 109 -28 158 7 26 7 37 0 37 -15 0 -1 234 18 293 9 26 27 61 41 77 13 16 21 34 18 40 -4 6 5 35 20 65 29 60 94 115 165 140 42 15 42 15 36 -8 -15 -49 -25 -143 -19 -182 3 -22 -1 -83 -7 -135 -16 -121 -16 -119 4 -220 9 -47 21 -112 27 -145 14 -80 26 -109 54 -135 24 -22 64 -24 108 -5 14 6 17 2 17 -28 0 -76 29 -104 81 -77 29 16 47 59 80 196 36 153 57 196 111 231 39 26 49 28 139 27 92 0 98 1 108 23 31 68 19 204 -34 387 -14 49 -24 90 -22 92 2 2 38 -17 80 -41 87 -51 147 -106 147 -135 0 -11 9 -24 19 -30 25 -13 61 -72 61 -100 0 -12 10 -36 23 -53 28 -40 31 -144 5 -194 -13 -26 -14 -41 -6 -75 18 -81 -39 -261 -99 -308 -12 -10 -23 -26 -23 -36 0 -9 -20 -37 -45 -61 -41 -39 -61 -49 -90 -43 -6 1 -6 -2 0 -9 30 -30 155 50 155 99 0 12 16 41 35 64 19 24 35 48 35 55 0 6 4 11 9 11 8 0 23 30 26 50 0 3 4 11 8 18 17 25 18 117 4 165 -8 26 -11 47 -7 47 4 0 15 19 24 41 22 54 19 146 -5 170 -10 10 -15 20 -11 23 3 3 0 6 -6 6 -7 0 -12 16 -12 41 0 35 -6 47 -39 78 -21 20 -50 54 -64 77 -28 46 -98 101 -169 133 -26 11 -50 21 -53 21 -4 0 -28 19 -56 43 -56 48 -64 81 -23 91 19 5 32 21 49 59 23 54 76 110 114 122 12 3 21 12 21 19 0 9 29 17 88 24 112 14 147 25 204 61 73 47 118 131 118 222 l0 49 -831 0 -832 0 6 -51z m867 -614 c35 -18 60 -52 60 -81 0 -21 -1 -21 -52 -7 -29 7 -69 12 -88 11 -36 -3 -40 5 -25 49 3 10 48 35 73 42 2 1 16 -6 32 -14z m-142 -448 c5 -24 -15 -21 -21 4 -3 13 -1 19 6 16 7 -2 13 -11 15 -20z m232 -3 c0 -14 -4 -23 -10 -19 -5 3 -10 15 -10 26 0 10 5 19 10 19 6 0 10 -12 10 -26z m197 -37 c-5 -14 -76 -42 -84 -33 -3 3 -2 17 1 31 9 34 35 44 52 20 13 -18 14 -17 14 6 1 22 2 22 11 6 6 -10 9 -24 6 -30z m-629 -6 c-15 -5 -21 7 -13 26 7 17 8 17 15 -2 4 -11 3 -22 -2 -24z m168 27 c7 -11 -29 -48 -47 -48 -14 0 -10 22 8 42 19 21 29 23 39 6z"/>
 </g>
<g id="layer112" fill="#814a20" stroke="none">
 <path d="M173 1949 c10 -81 63 -176 120 -215 57 -39 91 -50 210 -66 48 -6 87 -16 88 -22 0 -6 21 -24 47 -41 36 -23 54 -44 75 -89 20 -41 37 -62 56 -69 42 -16 31 -55 -31 -103 -76 -60 -80 -73 -89 -274 -3 -96 -11 -187 -17 -202 -9 -21 -7 -38 8 -80 16 -48 28 -103 45 -210 7 -44 44 -91 82 -106 71 -26 135 -42 172 -42 39 0 41 2 51 41 6 22 18 76 25 120 8 43 21 94 30 112 33 70 108 102 227 95 78 -5 79 -5 94 23 21 41 17 125 -12 268 -40 203 -49 226 -100 268 -51 43 -59 77 -18 87 19 5 32 21 49 59 23 54 76 110 114 122 12 3 21 12 21 19 0 9 29 17 88 24 112 14 147 25 204 61 73 47 118 131 118 222 l0 49 -831 0 -832 0 6 -51z m891 -633 c24 -22 36 -42 36 -61 0 -22 -3 -26 -17 -20 -40 16 -100 26 -131 21 -31 -5 -32 -4 -26 22 8 32 14 40 46 57 37 21 54 17 92 -19z m-164 -426 c0 -11 -4 -20 -9 -20 -5 0 -11 9 -14 20 -3 13 0 20 9 20 8 0 14 -9 14 -20z m230 -6 c0 -14 -4 -23 -10 -19 -5 3 -10 15 -10 26 0 10 5 19 10 19 6 0 10 -12 10 -26z m197 -37 c-5 -14 -76 -42 -84 -33 -3 3 -2 17 1 31 9 34 35 44 52 20 13 -18 14 -17 14 6 1 22 2 22 11 6 6 -10 9 -24 6 -30z m-629 -6 c-15 -5 -21 7 -13 26 7 17 8 17 15 -2 4 -11 3 -22 -2 -24z m168 27 c7 -11 -29 -48 -47 -48 -14 0 -10 22 8 42 19 21 29 23 39 6z"/>
 </g>
<g id="layer113" fill="#73482a" stroke="none">
 <path d="M173 1949 c10 -81 63 -176 120 -215 57 -39 91 -50 210 -66 48 -6 87 -16 88 -22 0 -6 21 -24 47 -41 36 -23 54 -44 75 -88 19 -39 38 -63 55 -70 41 -18 29 -55 -33 -106 -27 -23 -55 -53 -62 -68 -7 -16 -12 -76 -13 -140 0 -123 -16 -261 -32 -280 -7 -9 -7 -17 0 -25 13 -17 49 -150 57 -213 4 -27 11 -63 17 -78 12 -31 82 -77 119 -77 13 -1 35 -7 49 -15 14 -8 44 -14 66 -15 47 0 43 -8 69 145 17 100 27 127 63 165 46 48 92 62 195 59 l89 -3 15 29 c21 39 14 121 -27 320 l-33 160 -49 46 c-54 53 -62 83 -22 93 19 5 32 21 49 59 23 54 76 110 114 122 12 3 21 12 21 19 0 9 29 17 88 24 112 14 147 25 204 61 73 47 118 131 118 222 l0 49 -831 0 -832 0 6 -51z m891 -633 c24 -22 36 -42 36 -61 0 -22 -3 -26 -17 -20 -40 16 -100 26 -131 21 -31 -5 -32 -4 -26 22 8 32 14 40 46 57 37 21 54 17 92 -19z m-54 -246 c0 -16 -4 -30 -10 -30 -11 0 -14 43 -3 53 11 12 13 8 13 -23z m-110 -180 c0 -11 -4 -20 -9 -20 -5 0 -11 9 -14 20 -3 13 0 20 9 20 8 0 14 -9 14 -20z m230 -6 c0 -14 -4 -23 -10 -19 -5 3 -10 15 -10 26 0 10 5 19 10 19 6 0 10 -12 10 -26z m197 -37 c-5 -14 -76 -42 -84 -33 -3 3 -2 17 1 31 9 34 35 44 52 20 13 -18 14 -17 14 6 1 22 2 22 11 6 6 -10 9 -24 6 -30z m-629 -6 c-15 -5 -21 7 -13 26 7 17 8 17 15 -2 4 -11 3 -22 -2 -24z m168 27 c7 -11 -29 -48 -47 -48 -14 0 -10 22 8 42 19 21 29 23 39 6z"/>
 </g>
<g id="layer114" fill="#4e4c4a" stroke="none">
 <path d="M173 1949 c10 -81 63 -176 120 -215 57 -39 91 -50 210 -66 48 -6 87 -16 88 -22 0 -6 21 -24 47 -41 36 -23 54 -44 75 -88 19 -39 38 -63 55 -70 39 -17 29 -55 -28 -102 -70 -58 -79 -82 -80 -212 0 -112 -15 -256 -29 -282 -5 -7 -1 -29 9 -50 17 -35 50 -182 50 -222 0 -52 73 -118 131 -119 13 -1 35 -7 49 -15 14 -8 43 -14 66 -15 l41 0 11 53 c6 28 14 72 18 97 15 110 51 171 121 202 36 16 62 19 135 17 87 -3 91 -2 104 21 7 14 13 48 14 75 0 50 -59 356 -78 407 -6 14 -29 41 -51 59 -49 39 -55 73 -15 83 19 5 32 21 49 59 23 54 76 110 114 122 12 3 21 12 21 19 0 9 29 17 88 24 112 14 147 25 204 61 73 47 118 131 118 222 l0 49 -831 0 -832 0 6 -51z m871 -613 c37 -19 55 -45 56 -80 0 -23 -3 -27 -17 -20 -10 4 -50 9 -89 12 l-72 4 3 30 c1 20 11 36 31 49 35 23 53 24 88 5z m-34 -266 c0 -16 -4 -30 -10 -30 -11 0 -14 43 -3 53 11 12 13 8 13 -23z m-112 -191 l-5 -24 -10 25 c-12 28 -6 47 9 32 5 -5 8 -20 6 -33z m232 11 c0 -16 -4 -30 -10 -30 -11 0 -14 43 -3 53 11 12 13 8 13 -23z m197 -43 c-5 -14 -76 -42 -84 -33 -3 3 -2 17 1 31 9 34 35 44 52 20 13 -18 14 -17 14 6 1 22 2 22 11 6 6 -10 9 -24 6 -30z m-629 -6 c-15 -5 -21 7 -13 26 7 17 8 17 15 -2 4 -11 3 -22 -2 -24z m168 27 c7 -11 -29 -48 -47 -48 -14 0 -10 22 8 42 19 21 29 23 39 6z"/>
 </g>
<g id="layer115" fill="#834018" stroke="none">
 <path d="M173 1949 c10 -81 63 -176 120 -215 57 -39 91 -50 210 -66 48 -6 87 -16 88 -22 0 -6 21 -24 47 -41 36 -23 54 -44 75 -88 19 -39 38 -63 55 -70 39 -17 29 -55 -28 -102 -70 -58 -79 -82 -80 -212 0 -112 -15 -256 -29 -282 -5 -7 -1 -29 9 -50 17 -35 50 -182 50 -222 0 -52 73 -118 131 -119 13 -1 35 -7 49 -15 14 -8 43 -14 66 -15 l41 0 11 53 c6 28 14 72 18 97 15 110 51 171 121 202 36 16 62 19 135 17 87 -3 91 -2 104 21 7 14 13 48 14 75 0 50 -59 356 -78 407 -6 14 -29 41 -51 59 -49 39 -55 73 -15 83 19 5 32 21 49 59 23 54 76 110 114 122 12 3 21 12 21 19 0 9 29 17 88 24 112 14 147 25 204 61 73 47 118 131 118 222 l0 49 -831 0 -832 0 6 -51z m871 -613 c37 -19 55 -45 56 -80 0 -23 -3 -27 -17 -20 -10 4 -51 9 -90 12 l-73 4 4 30 c2 19 13 36 32 49 35 23 53 24 88 5z m-34 -266 c0 -16 -4 -30 -10 -30 -11 0 -14 43 -3 53 11 12 13 8 13 -23z m-252 -178 c3 -17 -2 -22 -17 -22 -14 0 -21 6 -21 18 0 38 33 41 38 4z m142 -8 c0 -15 -6 -24 -15 -24 -8 0 -15 -4 -15 -8 0 -11 -51 -35 -58 -27 -3 3 0 17 7 31 9 21 17 25 37 21 19 -3 24 -1 20 10 -4 8 -3 19 0 24 9 16 24 -1 24 -27z m230 6 c0 -16 -4 -30 -10 -30 -11 0 -14 43 -3 53 11 12 13 8 13 -23z m43 24 c18 -6 11 -44 -8 -44 -13 0 -27 35 -17 44 7 7 7 7 25 0z m-463 -54 c0 -10 -5 -22 -10 -25 -13 -8 -24 20 -16 41 8 20 26 9 26 -16z m615 10 c9 -27 1 -37 -41 -50 -48 -16 -64 -1 -40 35 12 18 24 25 37 22 10 -3 19 -1 19 4 0 17 19 9 25 -11z m-455 -106 c7 -7 -17 -10 -80 -10 -84 1 -107 7 -77 20 20 9 146 1 157 -10z"/>
 </g>
<g id="layer116" fill="#753915" stroke="none">
 <path d="M173 1949 c10 -81 63 -176 120 -215 57 -39 91 -50 210 -66 48 -6 87 -16 88 -22 0 -6 21 -24 47 -41 36 -23 54 -44 75 -88 19 -39 38 -63 55 -70 39 -17 29 -55 -28 -102 -70 -58 -79 -82 -80 -212 0 -112 -15 -256 -29 -282 -5 -7 -1 -29 9 -50 17 -35 50 -182 50 -222 0 -52 73 -118 131 -119 13 -1 35 -7 49 -15 14 -8 43 -14 66 -15 l41 0 11 53 c6 28 14 72 18 97 15 110 51 171 121 202 36 16 62 19 135 17 87 -3 91 -2 104 21 7 14 13 48 14 75 0 50 -59 356 -78 407 -6 14 -29 41 -51 59 -49 39 -55 73 -15 83 19 5 32 21 49 59 23 54 76 110 114 122 12 3 21 12 21 19 0 9 29 17 88 24 112 14 147 25 204 61 73 47 118 131 118 222 l0 49 -831 0 -832 0 6 -51z m832 -216 c-3 -19 -9 -33 -12 -30 -3 3 -2 25 2 49 5 24 10 37 12 30 3 -7 2 -29 -2 -49z m-15 -52 c0 -5 -9 -19 -20 -32 l-20 -24 17 32 c19 34 23 39 23 24z m54 -345 c37 -19 55 -45 56 -80 0 -23 -3 -27 -17 -20 -10 4 -51 9 -90 12 l-73 4 4 30 c2 19 13 36 32 49 35 23 53 24 88 5z m-34 -266 c0 -16 -4 -30 -10 -30 -11 0 -14 43 -3 53 11 12 13 8 13 -23z m-252 -178 c3 -17 -2 -22 -17 -22 -14 0 -21 6 -21 18 0 38 33 41 38 4z m142 -8 c0 -15 -6 -24 -15 -24 -8 0 -15 -4 -15 -8 0 -11 -51 -35 -58 -27 -3 3 0 17 7 31 9 21 17 25 37 21 19 -3 24 -1 20 10 -4 8 -3 19 0 24 9 16 24 -1 24 -27z m230 6 c0 -16 -4 -30 -10 -30 -11 0 -14 43 -3 53 11 12 13 8 13 -23z m43 24 c18 -6 11 -44 -8 -44 -13 0 -27 35 -17 44 7 7 7 7 25 0z m-463 -54 c0 -10 -5 -22 -10 -25 -13 -8 -24 20 -16 41 8 20 26 9 26 -16z m615 10 c9 -27 1 -37 -41 -50 -48 -16 -64 -1 -40 35 12 18 24 25 37 22 10 -3 19 -1 19 4 0 17 19 9 25 -11z m-455 -106 c7 -7 -17 -10 -80 -10 -84 1 -107 7 -77 20 20 9 146 1 157 -10z"/>
 </g>
<g id="layer117" fill="#3e4441" stroke="none">
 <path d="M173 1949 c10 -81 63 -176 120 -215 57 -39 91 -50 210 -66 48 -6 87 -16 88 -22 0 -6 21 -24 47 -41 36 -23 54 -44 75 -88 19 -39 38 -63 55 -70 39 -17 29 -55 -28 -102 -25 -21 -50 -50 -57 -66 -7 -16 -11 -29 -10 -29 1 0 30 26 63 58 73 69 237 182 265 182 29 0 99 -43 206 -127 53 -42 93 -66 93 -58 0 8 -20 31 -45 52 -52 43 -60 77 -19 87 19 5 32 21 49 59 23 54 76 110 114 122 12 3 21 12 21 19 0 9 29 17 88 24 112 14 147 25 204 61 73 47 118 131 118 222 l0 49 -831 0 -832 0 6 -51z m872 -292 c8 -12 41 -40 73 -62 34 -25 58 -49 60 -63 3 -20 -2 -19 -65 18 -90 53 -126 53 -216 1 -64 -38 -67 -39 -67 -18 0 16 17 33 61 61 61 40 99 92 99 138 0 13 3 34 7 48 6 21 9 14 20 -38 7 -35 19 -73 28 -85z"/>
 <path d="M912 1288 c-14 -14 -16 -38 -3 -38 8 0 23 41 17 47 -1 1 -8 -3 -14 -9z"/>
 <path d="M1100 1252 c0 -18 5 -32 10 -32 6 0 8 11 4 28 -10 39 -14 40 -14 4z"/>
 <path d="M954 1135 c-23 -17 -24 -16 49 -20 58 -3 72 6 38 25 -28 14 -64 12 -87 -5z"/>
 <path d="M687 900 c-14 -16 -29 -30 -33 -30 -4 0 -12 -8 -19 -17 -11 -14 -8 -20 19 -38 20 -13 31 -29 30 -43 -1 -26 2 -27 22 -7 20 20 120 20 158 0 35 -19 42 -19 27 -1 -7 8 -23 17 -36 20 -25 6 -24 7 21 50 40 37 45 46 36 62 -10 17 -11 16 -12 -8 0 -18 -5 -28 -15 -28 -8 0 -15 -4 -15 -8 0 -11 -51 -35 -58 -27 -3 3 0 17 7 31 9 20 17 25 36 22 20 -4 24 -1 22 16 -3 31 -15 36 -94 36 -67 0 -73 -2 -96 -30z m71 -8 c3 -17 -2 -22 -17 -22 -14 0 -21 6 -21 18 0 38 33 41 38 4z m-48 -32 c0 -10 -5 -22 -10 -25 -13 -8 -24 20 -16 41 8 20 26 9 26 -16z"/>
 <path d="M1143 923 c-7 -2 -13 -18 -13 -34 0 -32 -14 -38 -29 -11 -6 9 -11 12 -11 5 0 -6 13 -26 29 -44 25 -27 39 -33 86 -37 54 -4 137 11 162 31 9 7 2 20 -30 53 -42 44 -42 44 -112 43 -38 0 -76 -3 -82 -6z m30 -9 c18 -6 11 -44 -8 -44 -13 0 -27 35 -17 44 7 7 7 7 25 0z m152 -44 c9 -27 1 -37 -41 -50 -48 -16 -64 -1 -40 35 12 18 24 25 37 22 10 -3 19 -1 19 4 0 17 19 9 25 -11z"/>
 <path d="M728 753 c12 -2 30 -2 40 0 9 3 -1 5 -23 4 -22 0 -30 -2 -17 -4z"/>
 </g>
<g id="layer118" fill="#533d33" stroke="none">
 <path d="M173 1949 c10 -81 63 -176 120 -215 57 -39 91 -50 210 -66 48 -6 87 -16 88 -22 0 -6 21 -24 47 -41 36 -23 54 -44 75 -88 19 -39 38 -63 55 -70 39 -17 29 -55 -28 -102 -25 -21 -50 -50 -57 -66 -7 -16 -11 -29 -10 -29 1 0 30 26 63 58 73 69 237 182 265 182 29 0 99 -43 206 -127 53 -42 93 -66 93 -58 0 8 -20 31 -45 52 -52 43 -60 77 -19 87 19 5 32 21 49 59 23 54 76 110 114 122 12 3 21 12 21 19 0 9 29 17 88 24 112 14 147 25 204 61 73 47 118 131 118 222 l0 49 -831 0 -832 0 6 -51z m872 -292 c8 -12 41 -40 73 -62 34 -25 58 -49 60 -63 3 -20 -2 -19 -65 18 -90 53 -126 53 -216 1 -64 -38 -67 -39 -67 -18 0 16 17 33 61 61 61 40 99 92 99 138 0 13 3 34 7 48 6 21 9 14 20 -38 7 -35 19 -73 28 -85z"/>
 <path d="M909 1288 c0 -2 -2 -11 -4 -20 -5 -25 11 -23 18 2 3 11 1 20 -4 20 -5 0 -9 -1 -10 -2z"/>
 <path d="M1102 1252 c1 -18 6 -32 10 -32 5 0 5 12 2 28 -10 39 -15 41 -12 4z"/>
 <path d="M954 1135 c-23 -17 -24 -16 49 -20 58 -3 72 6 38 25 -28 14 -64 12 -87 -5z"/>
 <path d="M687 900 c-14 -16 -29 -30 -33 -30 -4 0 -12 -8 -19 -17 -11 -14 -8 -20 19 -38 19 -13 31 -29 30 -42 0 -20 1 -20 20 -7 27 18 117 18 163 -1 29 -12 33 -13 24 -1 -7 8 -23 17 -36 20 -25 6 -24 7 21 50 40 37 45 46 36 62 -11 18 -11 17 -12 -6 0 -29 -62 -75 -87 -66 -12 5 -12 9 1 28 9 12 16 33 16 45 0 20 4 23 28 17 21 -4 24 -3 12 5 -8 6 -47 11 -87 11 -67 0 -73 -2 -96 -30z m73 -13 c0 -18 5 -38 12 -45 9 -9 8 -12 -8 -12 -26 0 -41 11 -47 35 -3 15 -5 13 -6 -8 -1 -22 -5 -28 -18 -25 -25 5 -17 38 15 65 38 32 52 29 52 -10z"/>
 <path d="M1140 920 c-11 -7 -6 -8 18 -4 31 6 32 6 32 -29 0 -24 6 -39 18 -46 23 -14 3 -14 -37 0 -23 8 -31 17 -32 37 -2 24 -2 24 -6 5 -5 -27 -18 -29 -32 -5 -6 9 -11 12 -11 5 0 -6 13 -26 29 -44 25 -27 39 -33 86 -37 54 -4 137 11 162 31 9 7 2 20 -30 53 -42 43 -42 44 -112 44 -38 0 -77 -5 -85 -10z m161 -23 c9 -7 21 -22 28 -35 11 -20 9 -23 -14 -32 -75 -28 -100 -19 -70 26 9 14 14 32 11 40 -7 17 23 18 45 1z"/>
 <path d="M728 753 c12 -2 30 -2 40 0 9 3 -1 5 -23 4 -22 0 -30 -2 -17 -4z"/>
 </g>
<g id="layer119" fill="#532306" stroke="none">
 <path d="M173 1949 c10 -81 63 -176 120 -215 57 -39 91 -50 210 -66 48 -6 87 -16 88 -22 0 -6 21 -24 47 -41 36 -23 54 -44 75 -88 19 -39 38 -63 55 -70 39 -17 29 -55 -28 -102 -25 -21 -50 -50 -57 -66 -7 -16 -11 -29 -10 -29 1 0 30 26 63 58 73 69 237 182 265 182 29 0 99 -43 206 -127 53 -42 93 -66 93 -58 0 8 -20 31 -45 52 -52 43 -60 77 -19 87 19 5 32 21 49 59 23 54 76 110 114 122 12 3 21 12 21 19 0 9 29 17 88 24 112 14 147 25 204 61 73 47 118 131 118 222 l0 49 -831 0 -832 0 6 -51z m872 -292 c8 -12 41 -40 73 -62 34 -25 58 -49 60 -63 3 -20 -2 -19 -65 18 -90 53 -126 53 -216 1 -64 -38 -67 -39 -67 -18 0 16 17 33 61 61 61 40 99 92 99 138 0 13 3 34 7 48 6 21 9 14 20 -38 7 -35 19 -73 28 -85z"/>
 <path d="M954 1135 c-23 -17 -24 -16 49 -20 58 -3 72 6 38 25 -28 14 -64 12 -87 -5z"/>
 <path d="M687 900 c-14 -16 -30 -30 -35 -30 -6 0 -13 -7 -16 -17 -9 -22 52 -75 79 -68 11 3 41 5 67 5 42 0 53 5 94 43 40 38 45 47 36 63 -11 18 -11 17 -12 -6 0 -29 -62 -75 -87 -66 -12 5 -12 9 1 28 9 12 16 33 16 46 0 19 4 23 20 19 11 -3 18 -1 14 4 -3 5 -38 9 -79 9 -69 0 -75 -2 -98 -30z m73 -13 c0 -18 5 -38 12 -45 9 -9 8 -12 -8 -12 -26 0 -41 11 -47 35 -3 15 -5 13 -6 -8 -1 -22 -5 -28 -18 -25 -25 5 -17 38 15 65 38 32 52 29 52 -10z"/>
 <path d="M1140 920 c-11 -7 -6 -8 18 -4 31 6 32 6 32 -29 0 -24 6 -39 18 -46 23 -14 3 -14 -37 0 -23 8 -31 17 -32 37 -2 24 -2 24 -6 5 -5 -27 -18 -29 -32 -5 -6 9 -11 12 -11 5 0 -6 13 -26 29 -44 24 -26 39 -33 81 -37 58 -5 160 15 167 34 2 7 -13 31 -34 53 -37 40 -39 41 -108 41 -38 0 -77 -5 -85 -10z m161 -23 c9 -7 21 -22 28 -35 11 -20 9 -23 -14 -32 -75 -28 -100 -19 -70 26 9 14 14 32 11 40 -7 17 23 18 45 1z"/>
 </g>
<g id="layer120" fill="#1f2528" stroke="none">
 <path d="M178 1966 c-2 -20 0 -32 6 -29 5 3 7 -5 4 -21 -3 -14 -2 -26 1 -26 4 0 12 -20 19 -44 13 -51 62 -106 122 -136 36 -19 185 -50 236 -50 13 0 24 -6 25 -12 0 -7 21 -26 47 -43 35 -23 54 -45 77 -90 21 -42 38 -62 57 -69 15 -5 30 -7 34 -4 3 4 9 30 13 59 6 51 8 54 71 99 72 51 88 76 97 150 8 69 29 65 36 -7 7 -69 26 -95 103 -148 57 -39 59 -42 62 -90 4 -59 12 -70 47 -61 20 5 32 20 50 59 23 54 76 110 114 122 12 3 21 12 21 20 0 9 22 15 71 20 125 13 225 50 271 101 34 39 58 102 64 167 l5 67 -824 0 -825 0 -4 -34z"/>
 <path d="M667 877 c-21 -22 -36 -40 -35 -41 77 -47 187 -47 235 -1 l28 28 -33 -23 c-18 -12 -40 -19 -48 -16 -14 5 -14 8 0 28 9 12 16 33 16 45 0 20 -5 23 -35 23 -33 0 -35 -2 -35 -33 0 -18 5 -38 12 -45 9 -9 8 -12 -7 -12 -27 0 -42 11 -48 35 -3 15 -5 13 -6 -8 -1 -22 -5 -28 -18 -25 -25 5 -17 38 15 65 17 14 21 22 12 21 -8 0 -32 -19 -53 -41z"/>
 <path d="M1190 885 c0 -22 6 -38 18 -44 23 -14 3 -14 -37 0 -24 8 -31 17 -32 37 l-1 27 -7 -25 c-10 -35 28 -70 82 -75 41 -4 157 21 157 34 0 4 -17 24 -38 44 -34 33 -43 37 -90 37 l-52 0 0 -35z m111 12 c9 -7 21 -22 28 -35 11 -20 9 -23 -14 -32 -75 -28 -100 -19 -70 26 9 14 14 32 11 40 -7 17 23 18 45 1z"/>
 </g>
<g id="layer121" fill="#2e180b" stroke="none">
 <path d="M179 1968 c-3 -21 -1 -34 5 -31 5 3 7 -5 4 -21 -3 -14 -2 -26 1 -26 4 0 12 -20 19 -44 13 -51 62 -106 122 -136 36 -19 185 -50 236 -50 13 0 24 -6 25 -12 0 -7 21 -26 47 -43 35 -23 54 -45 77 -90 21 -42 38 -62 57 -69 15 -5 30 -7 34 -4 3 4 9 30 13 59 6 51 8 54 71 99 36 25 71 58 78 73 20 41 28 127 13 137 -8 4 7 8 33 8 49 1 106 25 106 45 0 6 -7 34 -15 62 -9 27 -13 55 -11 62 4 10 -16 13 -85 13 -86 0 -91 -1 -86 -20 3 -11 2 -22 -3 -25 -4 -2 -13 -26 -20 -52 -18 -66 -38 -103 -55 -103 -8 0 -15 4 -15 8 0 5 -16 26 -36 46 l-37 38 -28 -53 c-16 -29 -47 -76 -69 -106 -22 -29 -36 -53 -31 -53 11 0 106 140 116 170 10 31 25 21 78 -55 57 -84 86 -115 105 -115 28 0 4 -25 -61 -64 -75 -45 -100 -81 -87 -127 5 -16 5 -29 1 -29 -13 0 -38 33 -46 60 -12 39 -44 76 -87 100 -23 13 -37 27 -34 35 3 10 -21 18 -92 30 -222 38 -277 82 -322 255 -16 63 -17 64 -21 28z"/>
 <path d="M1814 1973 c-45 -201 -89 -242 -300 -282 -60 -12 -112 -21 -116 -21 -9 0 -124 173 -133 200 -9 28 -24 21 -60 -28 -32 -44 -49 -51 -63 -26 -8 14 -14 14 -67 -1 l-58 -17 6 -56 c7 -68 26 -95 103 -147 57 -39 59 -42 62 -90 4 -59 12 -70 47 -61 20 5 32 20 50 59 23 54 76 110 114 122 12 3 21 12 21 20 0 9 22 15 71 20 125 13 225 50 271 101 34 39 58 102 64 167 5 69 -1 89 -12 40z m-505 -202 c24 -36 55 -78 69 -93 14 -15 24 -29 21 -31 -2 -2 -25 -18 -50 -35 -33 -22 -54 -48 -75 -89 -19 -38 -36 -59 -49 -61 -18 -2 -18 -2 -2 8 20 13 22 49 4 74 -7 10 -44 39 -82 65 -68 45 -90 71 -63 71 18 0 58 43 93 100 15 25 37 55 49 68 19 21 22 22 31 7 5 -9 30 -47 54 -84z"/>
 <path d="M667 877 c-21 -22 -36 -40 -35 -41 45 -23 87 -36 117 -36 49 0 101 10 101 20 0 4 -20 3 -44 -3 -46 -10 -126 7 -133 29 -2 6 8 26 22 43 38 44 17 36 -28 -12z"/>
 <path d="M768 902 c-6 -23 8 -62 23 -62 16 0 38 32 32 47 -3 7 -9 10 -14 7 -5 -3 -12 2 -15 10 -8 21 -21 20 -26 -2z"/>
 <path d="M1194 894 c-9 -35 18 -63 40 -44 16 13 22 51 9 49 -20 -3 -34 2 -28 11 3 6 2 10 -4 10 -6 0 -14 -12 -17 -26z"/>
 <path d="M1306 900 c37 -44 37 -60 1 -75 -17 -8 -28 -14 -23 -15 17 0 86 23 86 30 0 3 -19 24 -42 45 -24 22 -33 29 -22 15z"/>
 <path d="M1156 825 c5 -12 63 -30 71 -22 2 2 -15 11 -36 19 -30 12 -38 13 -35 3z"/>
 </g>
<g id="layer122" fill="#111011" stroke="none">
 <path d="M923 1980 c3 -11 2 -22 -3 -25 -4 -2 -13 -26 -20 -52 -18 -66 -38 -103 -55 -103 -8 0 -15 4 -15 8 0 5 -16 26 -36 46 l-37 38 -28 -53 c-16 -29 -47 -76 -69 -106 -22 -29 -36 -53 -31 -53 11 0 106 140 116 170 10 31 25 21 78 -55 57 -84 86 -115 105 -115 28 0 4 -25 -61 -64 -75 -45 -100 -81 -87 -127 5 -16 5 -29 1 -29 -13 0 -38 33 -46 60 -12 39 -44 76 -87 100 -23 13 -37 27 -34 35 3 10 -21 18 -92 30 -53 9 -119 24 -145 32 -85 27 -142 94 -173 203 -17 61 -17 19 0 -51 17 -69 36 -99 86 -134 53 -37 102 -52 209 -67 50 -6 91 -16 92 -22 0 -6 21 -24 47 -41 35 -23 54 -44 75 -87 28 -58 57 -84 83 -74 8 3 14 16 14 29 0 65 11 83 77 128 71 47 86 71 98 153 4 34 3 51 -5 56 -7 4 9 8 34 8 49 1 106 25 106 45 0 6 -7 34 -15 62 -9 27 -13 55 -11 62 4 10 -16 13 -85 13 -86 0 -91 -1 -86 -20z"/>
 <path d="M1806 1938 c-9 -54 -41 -126 -69 -156 -37 -41 -109 -70 -223 -91 -60 -12 -112 -21 -116 -21 -9 0 -124 173 -133 200 -9 28 -24 21 -60 -28 -32 -44 -49 -51 -63 -26 -8 14 -14 14 -65 -1 -65 -19 -68 -26 -42 -113 13 -42 24 -58 58 -82 91 -63 94 -66 100 -121 4 -28 9 -54 11 -57 3 -2 17 -1 31 2 20 5 32 20 50 59 23 54 76 110 114 122 12 3 21 12 21 19 0 9 29 17 88 24 112 14 147 25 204 61 68 43 98 97 104 182 5 77 0 91 -10 27z m-497 -167 c24 -36 55 -78 69 -93 14 -15 24 -29 21 -31 -2 -2 -25 -18 -50 -35 -33 -22 -54 -48 -75 -89 -19 -38 -36 -59 -49 -61 -18 -2 -18 -2 -2 8 20 13 22 49 4 74 -7 10 -44 39 -82 65 -68 45 -90 71 -63 71 18 0 58 43 93 100 15 25 37 55 49 68 19 21 22 22 31 7 5 -9 30 -47 54 -84z"/>
 <path d="M768 902 c-6 -23 8 -62 23 -62 16 0 38 32 32 47 -3 7 -9 10 -14 7 -5 -3 -12 2 -15 10 -8 21 -21 20 -26 -2z"/>
 <path d="M1194 894 c-9 -35 18 -63 40 -44 16 13 22 51 9 49 -20 -3 -34 2 -28 11 3 6 2 10 -4 10 -6 0 -14 -12 -17 -26z"/>
 <path d="M651 855 c-22 -24 -22 -25 -3 -25 11 0 29 -3 39 -6 17 -5 17 -5 0 6 -12 7 -16 18 -12 31 8 25 5 24 -24 -6z"/>
 <path d="M1334 855 c3 -8 -3 -19 -12 -25 -13 -8 -10 -9 13 -4 39 9 40 10 22 29 -20 19 -31 19 -23 0z"/>
 </g>

</svg>