<!DOCTYPE svg PUBLIC "-//W3C//DTD SVG 20010904//EN" "http://www.w3.org/TR/2001/REC-SVG-20010904/DTD/svg10.dtd">
<svg version="1.0" xmlns="http://www.w3.org/2000/svg" width="200px" height="200px" viewBox="0 0 2000 2000" preserveAspectRatio="xMidYMid meet">
<g id="layer101" fill="#c0a488" stroke="none">
 <path d="M160 1983 c0 -32 27 -119 52 -169 28 -57 90 -108 151 -125 23 -6 78 -17 123 -23 44 -7 87 -18 95 -24 8 -6 34 -27 59 -45 31 -22 54 -50 72 -89 20 -42 34 -59 53 -64 18 -4 24 -11 21 -21 -3 -8 -6 -20 -6 -26 0 -26 -105 -93 -172 -111 -86 -23 -149 -75 -172 -143 -9 -26 -16 -53 -16 -60 0 -7 -13 -31 -29 -54 -31 -42 -51 -116 -51 -184 0 -22 -2 -100 -4 -174 -4 -129 -3 -135 23 -185 15 -28 33 -78 40 -111 12 -54 19 -66 79 -123 65 -61 126 -102 155 -102 7 0 24 -11 37 -25 23 -25 93 -51 109 -41 4 3 19 -6 31 -19 18 -20 33 -25 70 -25 25 0 51 5 58 12 9 9 15 9 24 0 7 -7 43 -12 91 -12 71 0 88 4 161 38 48 23 100 57 128 84 26 26 60 49 75 52 55 13 91 43 104 88 7 24 28 61 46 83 59 70 86 137 85 215 0 37 -4 76 -10 86 -7 13 -3 30 14 65 33 65 32 134 -1 183 -14 20 -25 48 -25 62 0 36 -23 75 -59 102 -17 12 -31 29 -31 38 0 32 -82 103 -173 150 -51 26 -107 59 -124 73 -42 33 -45 72 -7 89 16 8 34 32 49 67 17 38 37 63 67 85 24 16 52 37 63 45 10 8 32 15 47 15 56 0 184 32 225 56 23 13 54 40 68 58 33 44 75 151 75 193 l0 33 -835 0 c-789 0 -835 -1 -835 -17z"/>
 </g>
<g id="layer102" fill="#b79675" stroke="none">
 <path d="M160 1983 c0 -32 27 -119 52 -169 28 -57 90 -108 151 -125 23 -6 78 -17 123 -23 44 -7 87 -18 95 -24 8 -6 34 -27 59 -45 31 -22 54 -50 72 -89 20 -42 34 -59 53 -64 18 -4 24 -11 21 -21 -3 -8 -6 -20 -6 -26 0 -26 -105 -93 -172 -111 -86 -23 -149 -75 -172 -143 -9 -26 -16 -53 -16 -60 0 -7 -13 -31 -29 -54 -31 -42 -51 -116 -51 -184 0 -22 -2 -100 -4 -174 -4 -129 -3 -135 23 -185 15 -28 33 -78 40 -111 12 -54 19 -66 79 -123 65 -61 126 -102 155 -102 7 0 24 -11 37 -25 23 -25 93 -51 109 -41 4 3 19 -6 31 -19 18 -20 33 -25 70 -25 25 0 51 5 58 12 9 9 15 9 24 0 7 -7 43 -12 91 -12 71 0 88 4 161 38 48 23 100 57 128 84 26 26 60 49 75 52 55 13 91 43 104 88 7 24 28 61 46 83 59 70 86 137 85 215 0 37 -4 76 -10 86 -7 13 -3 30 14 65 33 65 32 134 -1 183 -14 20 -25 48 -25 62 0 36 -23 75 -59 102 -17 12 -31 29 -31 38 0 32 -82 103 -173 150 -51 26 -107 59 -124 73 -42 33 -45 72 -7 89 16 8 34 32 49 67 17 38 37 63 67 85 24 16 52 37 63 45 10 8 32 15 47 15 56 0 184 32 225 56 23 13 54 40 68 58 33 44 75 151 75 193 l0 33 -835 0 c-789 0 -835 -1 -835 -17z m1235 -764 c31 -27 63 -69 52 -69 -1 0 -25 23 -52 50 -55 56 -55 67 0 19z m-846 -69 c-10 -21 -19 -50 -19 -64 0 -14 -4 -28 -10 -31 -24 -15 0 85 28 118 22 25 22 21 1 -23z m758 -641 c-27 -11 -65 -32 -85 -46 l-37 -27 25 28 c31 35 87 65 120 65 19 0 13 -5 -23 -20z m-825 -107 c7 -70 -11 -53 -19 19 -4 36 -2 51 5 44 5 -5 12 -34 14 -63z m810 -84 c-103 -92 -115 -100 -45 -30 40 39 77 72 83 72 5 0 -12 -19 -38 -42z m-430 -157 c24 -16 70 -38 103 -49 33 -11 50 -21 38 -21 -34 -1 -128 39 -165 70 -43 37 -31 37 24 0z"/>
 </g>
<g id="layer103" fill="#a7815a" stroke="none">
 <path d="M160 1983 c0 -32 27 -119 52 -169 28 -57 90 -108 151 -125 23 -6 78 -17 123 -23 44 -7 87 -18 95 -24 8 -6 34 -27 59 -45 31 -22 54 -50 72 -89 20 -42 34 -59 53 -64 18 -4 24 -11 21 -21 -3 -8 -6 -20 -6 -26 0 -26 -105 -93 -172 -111 -86 -23 -149 -75 -172 -143 -9 -26 -16 -53 -16 -60 0 -7 -13 -31 -29 -54 -31 -42 -51 -116 -51 -184 0 -22 -2 -100 -4 -174 -4 -129 -3 -135 23 -185 15 -28 33 -78 40 -111 12 -54 19 -66 79 -123 65 -61 126 -102 155 -102 7 0 24 -11 37 -25 23 -25 93 -51 109 -41 4 3 19 -6 31 -19 18 -20 33 -25 70 -25 25 0 51 5 58 12 9 9 15 9 24 0 7 -7 43 -12 91 -12 71 0 88 4 161 38 52 25 96 55 125 85 27 27 56 48 75 51 56 11 94 41 107 88 7 24 28 61 46 83 59 70 86 137 85 215 0 37 -4 76 -10 86 -7 13 -3 30 14 65 33 65 32 134 -1 183 -14 20 -25 48 -25 62 0 36 -23 75 -59 102 -17 12 -31 29 -31 38 0 32 -82 103 -173 150 -51 26 -107 59 -124 73 -42 33 -45 72 -7 89 16 8 34 32 49 67 17 38 37 63 67 85 24 16 52 37 63 45 10 8 32 15 47 15 56 0 184 32 225 56 23 13 54 40 68 58 33 44 75 151 75 193 l0 33 -835 0 c-789 0 -835 -1 -835 -17z m1219 -737 c75 -43 127 -82 135 -102 5 -12 2 -12 -15 -3 -39 20 -31 1 14 -33 50 -38 71 -62 82 -98 8 -25 8 -25 -14 -6 -33 30 -25 9 14 -37 20 -23 40 -58 46 -78 13 -42 5 -117 -16 -145 -10 -14 -12 -37 -8 -87 7 -83 -16 -175 -60 -244 l-31 -48 -6 30 c-5 25 -7 27 -13 12 -4 -10 -7 -32 -7 -49 0 -16 -7 -43 -17 -58 -19 -33 -93 -79 -93 -58 0 7 -21 -12 -47 -41 -54 -61 -113 -93 -220 -117 -64 -14 -77 -14 -125 -1 -110 31 -105 30 -86 14 10 -8 15 -17 11 -20 -13 -13 -69 -7 -98 11 -17 11 -47 22 -67 26 -39 7 -98 57 -98 82 0 8 -5 14 -11 14 -6 0 -9 -9 -6 -20 7 -26 3 -25 -50 5 -23 14 -50 40 -59 57 -10 20 -19 27 -23 19 -5 -8 -14 -4 -29 11 -35 38 -62 109 -62 168 -1 48 -2 53 -14 38 -12 -16 -14 -16 -24 8 -17 35 -15 128 3 171 18 41 12 55 -11 27 -14 -17 -15 -13 -9 51 3 39 8 97 9 130 3 72 21 115 70 173 40 48 44 57 21 48 -37 -14 -1 57 54 107 36 32 99 67 122 67 4 0 -6 -30 -23 -66 -30 -64 -31 -69 -24 -162 4 -54 9 -115 12 -137 4 -34 3 -37 -7 -20 -18 30 -49 63 -93 98 -30 24 -36 26 -28 11 6 -12 18 -27 27 -34 26 -22 74 -124 90 -192 8 -35 19 -103 25 -153 12 -94 42 -165 80 -185 24 -13 97 -13 105 0 13 21 25 9 25 -24 0 -48 35 -89 69 -81 58 15 97 74 137 213 53 183 138 262 267 249 47 -4 53 -2 83 29 18 18 36 45 40 61 15 58 -23 203 -92 347 -13 28 -24 51 -24 53 0 6 10 2 69 -31z"/>
 <path d="M1455 1065 c10 -16 35 -51 56 -77 20 -26 39 -53 42 -60 2 -7 7 -10 11 -6 13 11 -31 82 -80 128 -40 38 -45 40 -29 15z"/>
 <path d="M434 910 c8 -30 29 -134 50 -255 20 -109 64 -203 114 -245 46 -38 115 -65 139 -55 14 6 11 9 -17 15 -76 14 -136 65 -171 145 -9 22 -29 102 -44 179 -14 76 -33 157 -42 180 -19 48 -39 74 -29 36z"/>
 <path d="M1494 850 c20 -43 26 -71 26 -127 0 -39 -4 -83 -10 -97 -13 -35 3 -33 19 2 36 77 18 203 -35 253 l-25 24 25 -55z"/>
 <path d="M1224 606 c-61 -28 -113 -87 -137 -154 -26 -72 -71 -138 -106 -156 -43 -23 -103 -20 -135 5 -14 11 -26 16 -26 10 0 -6 15 -20 33 -31 89 -55 205 12 257 149 35 94 63 127 138 165 75 39 56 49 -24 12z"/>
 <path d="M1310 461 c-72 -22 -120 -65 -184 -163 -49 -75 -100 -97 -179 -79 -29 6 -71 23 -93 37 l-39 26 37 -35 c55 -54 143 -72 211 -43 37 15 88 70 116 125 37 72 115 121 194 121 16 0 26 4 22 10 -7 11 -48 12 -85 1z"/>
 <path d="M511 412 c-2 -67 52 -137 109 -142 49 -4 86 0 103 13 15 10 7 11 -47 9 -59 -3 -66 -1 -99 28 -23 20 -41 48 -51 78 -14 46 -14 46 -15 14z"/>
 <path d="M780 287 c0 -7 17 -29 38 -49 109 -105 311 -133 443 -62 69 38 67 55 -2 20 -136 -67 -358 -33 -447 69 -18 20 -32 30 -32 22z"/>
 <path d="M740 212 c0 -32 28 -78 57 -91 29 -13 30 0 2 25 -12 10 -29 35 -40 54 -16 31 -18 32 -19 12z"/>
 </g>
<g id="layer104" fill="#9c7349" stroke="none">
 <path d="M160 1983 c0 -32 27 -119 52 -169 28 -57 90 -108 151 -125 23 -6 78 -17 123 -23 44 -7 87 -18 95 -24 8 -6 34 -27 59 -45 31 -22 54 -50 72 -89 20 -42 34 -59 53 -64 18 -4 24 -11 21 -21 -3 -8 -6 -20 -6 -26 0 -26 -105 -93 -172 -111 -86 -23 -149 -75 -172 -143 -9 -26 -16 -53 -16 -60 0 -7 -13 -31 -29 -54 -31 -42 -51 -116 -51 -184 0 -22 -2 -100 -4 -174 -4 -129 -3 -135 23 -185 15 -28 33 -78 40 -111 12 -54 19 -66 79 -123 65 -61 126 -102 155 -102 7 0 24 -11 37 -25 23 -25 93 -51 109 -41 4 3 19 -6 31 -19 18 -20 33 -25 70 -25 25 0 51 5 58 12 9 9 15 9 24 0 7 -7 43 -12 91 -12 71 0 87 4 161 39 54 25 95 54 122 83 28 30 53 48 75 52 59 11 97 41 110 88 7 24 28 61 46 83 59 70 86 137 85 215 0 37 -4 76 -10 86 -7 13 -3 30 14 65 33 65 32 134 -1 183 -14 20 -25 48 -25 62 0 36 -23 75 -59 102 -17 12 -31 29 -31 38 0 32 -82 103 -173 150 -51 26 -107 59 -124 73 -42 33 -45 72 -7 89 16 8 34 32 49 67 17 38 37 63 67 85 24 16 52 37 63 45 10 8 32 15 47 15 56 0 184 32 225 56 23 13 54 40 68 58 33 44 75 151 75 193 l0 33 -835 0 c-789 0 -835 -1 -835 -17z m1213 -726 c74 -42 147 -104 147 -124 0 -13 -3 -13 -17 -2 -10 7 8 -12 40 -42 52 -50 63 -69 58 -106 -1 -7 8 -26 19 -41 34 -45 41 -96 23 -156 -10 -31 -15 -80 -14 -125 1 -51 -4 -95 -18 -140 -20 -67 -73 -161 -90 -161 -5 0 -11 -11 -15 -23 -9 -36 -44 -76 -87 -97 -21 -11 -39 -18 -39 -16 0 3 -21 -16 -47 -42 -89 -88 -273 -138 -367 -98 -47 19 -47 19 -40 2 13 -34 -67 -31 -117 4 -14 11 -29 17 -32 14 -10 -11 -74 24 -100 55 -18 22 -27 27 -27 17 0 -14 -5 -14 -39 3 -21 11 -50 33 -63 50 -14 16 -34 31 -44 33 -26 5 -82 101 -90 154 -3 23 -12 45 -18 47 -32 12 -44 139 -20 202 5 13 4 16 -4 11 -11 -7 -17 16 -14 54 1 8 4 53 7 100 8 113 18 148 60 203 20 26 30 47 23 49 -19 7 25 90 67 127 36 32 69 49 123 66 23 7 23 7 7 -25 -12 -23 -17 -57 -16 -114 0 -114 -10 -276 -18 -276 -3 0 -15 16 -26 36 -10 19 -33 45 -49 57 -31 22 -31 21 6 -23 49 -60 75 -130 98 -264 28 -166 30 -172 60 -207 22 -27 34 -33 65 -32 20 1 42 6 48 12 19 19 25 12 25 -28 1 -56 17 -81 50 -81 59 0 85 45 127 220 35 148 45 171 91 206 34 27 46 29 143 34 l106 5 19 59 c19 58 19 62 2 170 -10 61 -31 146 -46 188 -16 43 -26 78 -22 78 4 -1 33 -16 65 -33z"/>
 <path d="M1500 1013 c18 -24 35 -43 37 -43 9 0 -18 37 -43 60 -24 22 -23 20 6 -17z"/>
 <path d="M455 850 c3 -14 14 -77 25 -141 24 -143 50 -214 96 -265 35 -38 35 -39 11 -4 -46 65 -58 102 -87 251 -16 82 -34 157 -40 166 -9 15 -9 14 -5 -7z"/>
 <path d="M1184 578 c-46 -36 -62 -59 -91 -133 -17 -44 -45 -88 -73 -119 -26 -29 -36 -44 -23 -38 38 21 89 90 109 149 14 42 33 72 71 111 54 54 57 69 7 30z"/>
 <path d="M1199 383 c-20 -21 -45 -54 -57 -73 -27 -45 -69 -85 -107 -99 l-30 -11 35 5 c38 6 93 52 117 100 9 17 31 49 50 73 42 52 39 54 -8 5z"/>
 <path d="M520 376 c0 -39 72 -106 115 -106 12 0 2 9 -25 23 -25 12 -55 37 -67 56 -13 19 -23 31 -23 27z"/>
 <path d="M835 224 c56 -46 183 -85 269 -83 33 1 28 3 -24 10 -93 12 -147 27 -210 61 -30 16 -46 21 -35 12z"/>
 <path d="M750 182 c0 -14 37 -58 43 -52 3 3 -6 18 -19 33 -13 15 -24 24 -24 19z"/>
 </g>
<g id="layer105" fill="#92673b" stroke="none">
 <path d="M160 1983 c0 -32 27 -119 52 -169 28 -57 90 -108 151 -125 23 -6 78 -17 123 -23 44 -7 87 -18 95 -24 8 -6 34 -27 59 -45 31 -22 54 -50 72 -89 20 -42 34 -59 53 -64 18 -4 24 -11 21 -21 -3 -8 -6 -20 -6 -26 0 -26 -105 -93 -172 -111 -86 -23 -149 -75 -172 -143 -9 -26 -16 -53 -16 -60 0 -7 -13 -31 -29 -54 -31 -42 -51 -116 -51 -184 0 -22 -2 -100 -4 -174 -4 -129 -3 -135 23 -185 15 -28 33 -78 40 -111 12 -54 19 -66 79 -123 65 -61 126 -102 155 -102 7 0 24 -11 37 -25 23 -25 93 -51 108 -41 5 3 20 -6 35 -20 29 -27 103 -34 125 -12 9 9 15 9 24 0 7 -7 43 -12 93 -12 74 0 86 3 165 43 56 28 93 54 110 77 l25 35 -44 -37 c-80 -68 -256 -108 -337 -78 -19 8 -29 8 -34 0 -14 -22 -77 -23 -117 -2 -21 11 -50 23 -65 26 -15 4 -42 19 -60 35 -18 15 -39 26 -46 24 -15 -6 -98 42 -110 63 -5 8 -20 21 -33 27 -33 17 -87 100 -94 145 -3 20 -10 44 -16 52 -32 50 -41 87 -37 152 4 44 2 65 -5 61 -6 -4 -8 19 -3 68 4 41 8 101 10 135 4 64 36 152 66 179 10 9 16 23 13 31 -18 47 74 156 160 189 54 20 64 17 45 -17 -8 -15 -14 -82 -18 -200 -5 -160 -14 -218 -28 -179 -2 7 -16 26 -31 40 -14 15 -21 20 -15 12 44 -60 71 -147 99 -315 17 -106 35 -147 71 -166 22 -12 62 -10 97 5 15 6 17 1 17 -37 0 -81 63 -103 112 -38 10 14 33 86 52 160 44 173 47 180 90 218 47 41 104 56 187 48 l67 -6 16 40 c9 22 16 65 16 96 0 68 -33 234 -61 310 -12 30 -19 57 -17 59 1 2 36 -16 77 -40 80 -47 154 -111 148 -129 -3 -6 13 -30 35 -52 28 -29 41 -52 43 -77 2 -20 14 -50 27 -67 28 -38 31 -127 6 -177 -11 -23 -14 -49 -11 -100 8 -104 -41 -247 -97 -286 -10 -7 -22 -25 -25 -39 -9 -34 -60 -83 -109 -103 -52 -22 -41 -28 18 -11 70 21 94 41 108 88 6 24 26 60 44 82 59 69 87 140 86 216 0 38 -4 76 -10 86 -7 13 -3 30 14 65 33 65 32 134 -1 183 -14 20 -25 49 -25 64 0 32 -25 72 -63 102 -15 12 -27 28 -27 36 0 32 -83 103 -173 150 -51 26 -107 59 -124 73 -42 33 -45 72 -7 89 16 8 34 32 49 67 17 38 37 63 67 85 24 16 52 37 63 45 10 8 32 15 47 15 56 0 184 32 225 56 23 13 54 40 68 58 33 44 75 151 75 193 l0 33 -835 0 c-789 0 -835 -1 -835 -17z"/>
 <path d="M1153 548 c-26 -29 -56 -88 -49 -96 3 -3 6 -1 6 5 0 6 15 34 34 62 38 56 40 62 9 29z"/>
 <path d="M1074 395 c-11 -24 -16 -41 -11 -38 10 6 40 73 35 78 -2 2 -13 -16 -24 -40z"/>
 <path d="M545 326 c9 -13 24 -27 33 -31 10 -4 5 6 -12 24 -36 37 -42 39 -21 7z"/>
 <path d="M1130 284 c-13 -20 -37 -45 -54 -55 -17 -10 -26 -19 -20 -19 26 0 114 93 101 106 -2 3 -15 -11 -27 -32z"/>
 </g>
<g id="layer106" fill="#87592d" stroke="none">
 <path d="M160 1983 c0 -32 27 -119 52 -169 28 -57 90 -108 151 -125 23 -6 78 -17 123 -23 44 -7 87 -18 95 -24 8 -6 34 -27 59 -45 31 -22 54 -50 72 -89 20 -42 34 -59 53 -64 18 -4 24 -11 21 -21 -3 -8 -6 -20 -6 -27 0 -6 -23 -30 -51 -51 -75 -57 -88 -93 -89 -240 0 -125 -15 -248 -30 -253 -5 -2 -2 -18 6 -37 8 -19 25 -97 39 -174 13 -77 31 -151 40 -165 23 -34 64 -50 99 -36 46 17 51 13 51 -36 0 -58 22 -78 67 -62 38 13 50 41 94 216 38 148 42 157 76 189 42 39 95 55 177 52 42 -2 81 0 88 4 6 4 17 32 24 63 10 46 10 70 -5 157 -10 56 -29 140 -42 186 -14 46 -23 85 -21 88 9 8 155 -84 195 -124 23 -23 42 -37 42 -31 0 25 -101 108 -179 147 -109 55 -151 89 -151 122 0 18 8 29 26 37 16 8 34 32 49 67 17 38 37 63 67 85 24 16 52 37 63 45 10 8 32 15 47 15 56 0 184 32 225 56 23 13 54 40 68 58 33 44 75 151 75 193 l0 33 -835 0 c-789 0 -835 -1 -835 -17z"/>
 <path d="M593 1282 c-72 -23 -138 -82 -157 -140 -9 -25 -16 -52 -16 -59 0 -8 -11 -29 -24 -46 -48 -63 -54 -101 -61 -371 -3 -123 -2 -131 24 -180 15 -28 33 -78 40 -111 12 -54 19 -66 79 -123 64 -61 126 -102 154 -102 7 0 -3 10 -22 21 -113 68 -200 177 -200 249 0 15 -7 30 -15 33 -25 10 -48 111 -37 162 6 30 6 45 0 45 -7 0 -8 29 -4 83 3 45 6 97 6 116 -1 48 26 133 52 166 13 16 24 44 25 63 4 68 87 156 171 183 20 6 41 15 47 20 13 13 -1 11 -62 -9z"/>
 <path d="M1530 1114 c0 -3 11 -15 25 -26 30 -23 55 -68 55 -98 0 -12 10 -36 23 -53 28 -40 31 -144 5 -194 -13 -26 -14 -40 -6 -73 19 -74 -34 -243 -95 -304 -13 -13 -30 -38 -37 -56 -15 -35 -82 -90 -112 -90 -10 0 -18 -4 -18 -10 0 -11 82 13 115 34 14 9 29 34 37 58 6 24 27 60 44 82 65 76 98 177 85 259 -4 26 -10 50 -14 53 -3 3 6 27 19 54 33 65 32 133 -1 182 -14 20 -25 50 -25 65 0 33 -24 73 -62 102 -27 21 -38 26 -38 15z"/>
 <path d="M1292 141 c-35 -30 -185 -81 -238 -81 -17 0 -49 6 -70 14 -33 11 -41 11 -52 0 -20 -21 -85 -17 -116 7 -38 30 -42 18 -6 -14 22 -20 40 -27 73 -27 24 0 48 5 55 12 9 9 15 9 24 0 14 -14 158 -17 186 -4 101 48 157 81 170 100 19 29 14 27 -26 -7z"/>
 <path d="M656 151 c-4 -5 8 -21 26 -34 35 -26 88 -43 88 -28 0 5 -11 12 -24 15 -14 3 -38 17 -54 31 -17 14 -33 21 -36 16z"/>
 </g>
<g id="layer107" fill="#7c4924" stroke="none">
 <path d="M160 1983 c0 -32 27 -119 52 -169 28 -57 90 -108 151 -125 23 -6 78 -17 123 -23 44 -7 87 -18 95 -24 8 -6 34 -27 59 -45 31 -22 54 -50 72 -89 20 -42 34 -59 53 -64 18 -4 24 -11 21 -21 -3 -8 -6 -20 -6 -27 0 -6 -23 -30 -51 -51 -71 -54 -80 -80 -84 -249 -4 -126 -17 -241 -30 -254 -2 -2 2 -16 9 -31 14 -27 40 -135 51 -206 3 -22 11 -53 17 -68 12 -31 80 -75 124 -80 16 -2 39 -9 51 -15 12 -7 40 -12 62 -12 38 0 41 2 51 38 6 20 17 73 25 117 18 102 26 123 65 162 41 41 91 55 193 52 l81 -2 14 34 c21 51 10 171 -32 344 -36 147 -38 151 -76 179 -49 36 -55 76 -14 94 16 8 34 32 49 67 17 38 37 63 67 85 24 16 52 37 63 45 10 8 32 15 47 15 56 0 184 32 225 56 23 13 54 40 68 58 33 44 75 151 75 193 l0 33 -835 0 c-789 0 -835 -1 -835 -17z"/>
 </g>
<g id="layer108" fill="#4d4647" stroke="none">
 <path d="M160 1983 c0 -32 27 -119 52 -169 28 -57 90 -108 151 -125 23 -6 78 -17 123 -23 44 -7 87 -18 95 -24 8 -6 34 -27 59 -45 31 -22 54 -50 72 -89 20 -42 34 -59 53 -64 18 -4 24 -11 21 -21 -3 -8 -6 -20 -6 -26 0 -7 -24 -31 -53 -54 -67 -52 -77 -83 -77 -236 0 -63 -7 -151 -15 -195 -10 -52 -12 -88 -6 -103 5 -13 9 -26 9 -29 0 -3 5 -17 11 -32 6 -15 17 -69 25 -119 20 -125 30 -135 191 -182 77 -22 98 -17 113 27 6 21 17 70 23 109 14 99 25 130 57 160 48 46 97 60 199 58 l92 -2 10 38 c6 21 11 52 11 70 0 37 -30 197 -61 328 -20 83 -25 93 -60 120 -48 35 -53 75 -13 93 16 8 34 32 49 67 17 38 37 63 67 85 24 16 52 37 63 45 10 8 32 15 47 15 56 0 184 32 225 56 23 13 54 40 68 58 33 44 75 151 75 193 l0 33 -835 0 c-789 0 -835 -1 -835 -17z m843 -896 c3 -8 1 -20 -4 -28 -5 -8 -9 -9 -10 -4 0 6 -2 18 -4 28 -4 20 10 23 18 4z"/>
 </g>
<g id="layer109" fill="#833f17" stroke="none">
 <path d="M160 1983 c0 -32 27 -119 52 -169 28 -57 90 -108 151 -125 23 -6 78 -17 123 -23 44 -7 87 -18 95 -24 8 -6 34 -27 59 -45 31 -22 54 -50 72 -89 20 -42 34 -59 53 -64 18 -4 24 -11 21 -21 -3 -8 -6 -20 -6 -26 0 -7 -24 -31 -53 -54 -67 -52 -77 -83 -77 -236 0 -63 -7 -151 -15 -195 -10 -52 -12 -88 -6 -103 5 -13 9 -26 9 -29 0 -3 5 -17 11 -32 6 -15 17 -69 25 -119 20 -125 30 -135 191 -182 77 -22 98 -17 113 27 6 21 17 70 23 109 14 99 25 130 57 160 48 46 97 60 199 58 l92 -2 10 38 c6 21 11 52 11 70 0 37 -30 197 -61 328 -20 83 -25 93 -60 120 -48 35 -53 75 -13 93 16 8 34 32 49 67 17 38 37 63 67 85 24 16 52 37 63 45 10 8 32 15 47 15 56 0 184 32 225 56 23 13 54 40 68 58 33 44 75 151 75 193 l0 33 -835 0 c-789 0 -835 -1 -835 -17z m843 -896 c3 -8 1 -20 -4 -28 -5 -8 -9 -9 -10 -4 0 6 -2 18 -4 28 -4 20 10 23 18 4z m-96 -345 c-25 -24 -150 -29 -197 -8 l-35 16 35 -8 c61 -12 155 -7 181 10 29 19 39 14 16 -10z"/>
 </g>
<g id="layer110" fill="#5b4034" stroke="none">
 <path d="M160 1983 c0 -32 27 -119 52 -169 28 -57 90 -108 151 -125 23 -6 78 -17 123 -23 44 -7 87 -18 95 -24 8 -6 34 -27 59 -45 31 -22 54 -50 72 -89 20 -42 34 -59 53 -64 18 -4 24 -11 21 -21 -3 -8 -6 -20 -6 -26 0 -7 -24 -31 -53 -54 -67 -52 -77 -83 -77 -236 0 -63 -7 -151 -15 -195 -10 -52 -12 -88 -6 -103 5 -13 9 -26 9 -29 0 -3 5 -17 11 -32 6 -15 17 -69 25 -119 20 -125 30 -135 191 -182 77 -22 98 -17 113 27 6 21 17 70 23 109 14 99 25 130 57 160 48 46 97 60 199 58 l92 -2 10 38 c6 21 11 52 11 70 0 37 -30 197 -61 328 -20 83 -25 93 -60 120 -48 35 -53 75 -13 93 16 8 34 32 49 67 17 38 37 63 67 85 24 16 52 37 63 45 10 8 32 15 47 15 56 0 184 32 225 56 23 13 54 40 68 58 33 44 75 151 75 193 l0 33 -835 0 c-789 0 -835 -1 -835 -17z m861 -306 c7 -15 28 -42 48 -58 20 -17 27 -26 16 -21 -33 16 -75 63 -82 90 -4 18 -8 21 -15 10 -7 -10 -8 -8 -4 5 3 10 6 35 7 55 l1 37 9 -45 c5 -25 14 -58 20 -73z m139 -135 c0 -8 -1 -13 -2 -11 -2 2 -14 17 -28 33 l-25 29 28 -18 c15 -9 27 -24 27 -33z m-157 -455 c3 -8 1 -20 -4 -28 -5 -8 -9 -9 -10 -4 0 6 -2 18 -4 28 -4 20 10 23 18 4z m-253 -217 c0 -4 -9 -18 -21 -31 l-21 -24 17 28 c15 26 15 30 0 55 l-16 27 20 -24 c12 -13 21 -27 21 -31z m410 -10 c-5 -9 -16 -23 -25 -30 -13 -11 -13 -8 2 18 17 29 17 31 -2 54 -20 23 -20 23 7 -1 21 -18 25 -28 18 -41z m95 30 c-17 -19 -17 -21 0 -40 10 -11 14 -20 9 -20 -5 0 -15 9 -22 20 -10 17 -9 25 4 45 9 14 19 23 22 20 3 -3 -3 -14 -13 -25z m-348 -148 c-25 -24 -150 -29 -197 -8 l-35 16 35 -8 c61 -12 155 -7 181 10 29 19 39 14 16 -10z"/>
 </g>
<g id="layer111" fill="#723225" stroke="none">
 <path d="M160 1983 c0 -32 27 -119 52 -169 28 -57 90 -108 151 -125 23 -6 78 -17 123 -23 44 -7 87 -18 95 -24 8 -6 34 -27 59 -45 31 -22 54 -50 72 -89 20 -42 34 -59 53 -64 18 -4 24 -11 21 -21 -3 -8 -6 -20 -6 -26 0 -7 -24 -31 -53 -54 -67 -52 -77 -83 -77 -236 0 -63 -7 -151 -15 -195 -18 -94 -11 -123 37 -148 49 -26 149 -30 204 -9 46 17 62 16 49 -5 -25 -40 -137 -51 -223 -21 -49 17 -52 17 -47 1 3 -10 12 -57 20 -105 16 -99 34 -126 99 -149 82 -28 142 -43 166 -41 30 2 43 34 64 167 10 58 23 102 36 119 11 16 20 32 20 36 0 5 33 18 73 30 56 17 88 20 144 16 l72 -5 10 38 c6 22 11 53 11 71 0 37 -30 197 -61 328 -20 83 -25 93 -60 120 -48 35 -53 75 -13 93 16 8 34 32 49 67 17 38 37 63 67 85 24 16 52 37 63 45 10 8 32 15 47 15 56 0 184 32 225 56 23 13 54 40 68 58 33 44 75 151 75 193 l0 33 -835 0 c-789 0 -835 -1 -835 -17z m861 -306 c7 -15 28 -42 48 -58 20 -17 27 -26 16 -21 -33 16 -75 63 -82 90 -4 18 -8 21 -15 10 -7 -10 -8 -8 -4 5 3 10 6 35 7 55 l1 37 9 -45 c5 -25 14 -58 20 -73z m139 -135 c0 -8 -1 -13 -2 -11 -2 2 -14 17 -28 33 l-25 29 28 -18 c15 -9 27 -24 27 -33z m-157 -455 c3 -8 1 -20 -4 -28 -5 -8 -9 -9 -10 -4 0 6 -2 18 -4 28 -4 20 10 23 18 4z m-253 -217 c0 -4 -9 -18 -21 -31 l-21 -24 17 28 c15 26 15 30 0 55 l-16 27 20 -24 c12 -13 21 -27 21 -31z m410 -10 c-5 -9 -16 -23 -25 -30 -13 -11 -13 -8 2 18 17 29 17 31 -2 54 -20 23 -20 23 7 -1 21 -18 25 -28 18 -41z m95 30 c-17 -19 -17 -21 0 -40 10 -11 14 -20 9 -20 -5 0 -15 9 -22 20 -10 17 -9 25 4 45 9 14 19 23 22 20 3 -3 -3 -14 -13 -25z"/>
 </g>
<g id="layer112" fill="#812022" stroke="none">
 <path d="M160 1983 c0 -32 27 -119 52 -169 28 -57 90 -108 151 -125 23 -6 78 -17 123 -23 44 -7 87 -18 95 -24 8 -6 34 -27 59 -45 31 -22 54 -50 72 -89 20 -42 34 -59 53 -64 18 -4 24 -11 21 -21 -3 -8 -6 -20 -6 -26 0 -7 -24 -31 -53 -54 -67 -52 -77 -83 -77 -236 0 -63 -7 -151 -15 -195 -19 -97 -11 -126 40 -148 57 -24 144 -28 195 -10 55 19 60 20 60 2 0 -7 -16 -21 -36 -31 -49 -23 -142 -21 -199 4 -44 19 -46 19 -40 2 3 -10 12 -58 20 -106 16 -99 34 -126 99 -149 82 -28 142 -43 166 -41 30 2 43 34 64 167 9 53 23 103 34 117 10 14 21 34 25 44 4 10 10 16 15 13 4 -2 32 4 62 14 42 14 72 17 131 13 l77 -5 11 38 c6 22 11 53 11 71 0 37 -30 197 -61 328 -20 83 -25 93 -60 120 -48 35 -53 75 -13 93 16 8 34 32 49 67 17 38 37 63 67 85 24 16 52 37 63 45 10 8 32 15 47 15 56 0 184 32 225 56 23 13 54 40 68 58 33 44 75 151 75 193 l0 33 -835 0 c-789 0 -835 -1 -835 -17z m861 -306 c7 -15 28 -42 48 -58 20 -17 27 -26 16 -21 -33 16 -75 63 -82 90 -4 18 -8 21 -15 10 -7 -10 -8 -8 -4 5 3 10 6 35 7 55 l1 37 9 -45 c5 -25 14 -58 20 -73z m139 -135 c0 -8 -1 -13 -2 -11 -2 2 -14 17 -28 33 l-25 29 28 -18 c15 -9 27 -24 27 -33z m-157 -455 c3 -8 1 -20 -4 -28 -5 -8 -9 -9 -10 -4 0 6 -2 18 -4 28 -4 20 10 23 18 4z m-253 -217 c0 -4 -9 -18 -21 -31 l-21 -24 17 28 c15 26 15 30 0 55 l-16 27 20 -24 c12 -13 21 -27 21 -31z m410 -10 c-5 -9 -16 -23 -25 -30 -13 -11 -13 -8 2 18 17 29 17 31 -2 54 -20 23 -20 23 7 -1 21 -18 25 -28 18 -41z m95 30 c-17 -19 -17 -21 0 -40 10 -11 14 -20 9 -20 -5 0 -15 9 -22 20 -10 17 -9 25 4 45 9 14 19 23 22 20 3 -3 -3 -14 -13 -25z"/>
 </g>
<g id="layer113" fill="#753916" stroke="none">
 <path d="M160 1979 c0 -35 50 -172 76 -206 46 -60 126 -94 259 -108 35 -4 72 -13 82 -21 10 -7 38 -28 63 -46 31 -23 54 -51 72 -90 20 -42 34 -59 53 -64 18 -4 24 -11 21 -21 -3 -8 -6 -20 -6 -26 0 -7 -24 -31 -53 -54 -67 -52 -77 -83 -77 -236 0 -63 -7 -151 -15 -195 -19 -97 -11 -126 40 -148 57 -24 144 -28 195 -10 55 19 60 20 60 2 0 -7 -16 -21 -36 -31 -49 -23 -142 -21 -199 4 -44 19 -46 19 -40 2 3 -10 12 -58 20 -106 16 -99 34 -126 99 -149 82 -28 142 -43 166 -41 30 2 43 34 64 167 9 53 23 103 34 117 10 14 21 34 25 44 4 10 10 16 15 13 4 -2 32 4 62 14 42 14 72 17 131 13 l77 -5 11 38 c6 22 11 53 11 71 0 37 -30 197 -61 328 -20 83 -25 93 -60 120 -48 35 -53 75 -13 93 16 8 34 32 49 67 17 38 37 63 67 85 24 16 52 37 63 45 10 8 32 15 47 15 56 0 184 32 225 56 23 13 54 40 68 58 33 44 75 151 75 193 l0 33 -835 0 -835 0 0 -21z m861 -302 c7 -15 28 -42 48 -58 20 -17 27 -26 16 -21 -33 16 -75 63 -82 90 -4 18 -8 21 -15 10 -7 -10 -8 -8 -4 5 3 10 6 35 7 55 l1 37 9 -45 c5 -25 14 -58 20 -73z m139 -135 c0 -8 -1 -13 -2 -11 -2 2 -14 17 -28 33 l-25 29 28 -18 c15 -9 27 -24 27 -33z m-73 -225 c15 -15 -23 -27 -89 -27 -68 0 -98 6 -98 20 0 5 8 11 18 14 26 7 160 2 169 -7z m-84 -230 c3 -8 1 -20 -4 -28 -5 -8 -9 -9 -10 -4 0 6 -2 18 -4 28 -4 20 10 23 18 4z m-253 -217 c0 -4 -9 -18 -21 -31 l-21 -24 17 28 c15 26 15 30 0 55 l-16 27 20 -24 c12 -13 21 -27 21 -31z m410 -10 c-5 -9 -16 -23 -25 -30 -13 -11 -13 -8 2 18 17 29 17 31 -2 54 -20 23 -20 23 7 -1 21 -18 25 -28 18 -41z m95 30 c-17 -19 -17 -21 0 -40 10 -11 14 -20 9 -20 -5 0 -15 9 -22 20 -10 17 -9 25 4 45 9 14 19 23 22 20 3 -3 -3 -14 -13 -25z"/>
 </g>
<g id="layer114" fill="#383e41" stroke="none">
 <path d="M160 1979 c0 -35 50 -172 76 -206 46 -60 126 -94 259 -108 35 -4 72 -13 82 -21 10 -7 38 -28 63 -46 31 -23 54 -51 72 -90 20 -42 35 -59 53 -64 21 -5 24 -10 19 -33 -4 -14 -21 -37 -38 -51 -53 -42 -76 -68 -76 -86 0 -12 12 -6 42 22 104 95 249 194 284 194 28 0 190 -108 250 -167 39 -37 44 -40 44 -20 0 14 -15 33 -40 51 -49 36 -55 76 -14 94 16 8 34 32 49 67 17 38 37 63 67 85 24 16 52 37 63 45 10 8 32 15 47 15 56 0 184 32 225 56 23 13 54 40 68 58 33 44 75 151 75 193 l0 33 -835 0 -835 0 0 -21z m876 -324 c9 -13 32 -34 53 -46 52 -32 81 -60 81 -80 0 -14 -14 -9 -77 27 -43 24 -88 44 -100 44 -12 0 -56 -20 -98 -45 -66 -38 -75 -42 -75 -25 0 13 24 38 68 69 71 52 81 69 98 166 l7 40 13 -62 c7 -35 21 -74 30 -88z"/>
 <path d="M960 1145 c-35 -19 -24 -28 38 -30 57 -2 70 14 27 33 -32 15 -34 15 -65 -3z"/>
 <path d="M710 943 c0 -3 12 -21 26 -40 l25 -33 -27 -33 -27 -32 23 -3 c15 -3 29 4 41 19 l17 22 11 -21 c13 -25 51 -30 51 -7 0 8 -3 15 -8 15 -4 0 -13 9 -20 21 -12 18 -10 25 12 54 31 40 32 45 7 45 -11 0 -28 -12 -39 -27 l-19 -26 -18 26 c-15 24 -55 38 -55 20z"/>
 <path d="M1126 941 c-3 -5 1 -14 10 -22 34 -28 37 -49 9 -85 l-26 -34 29 0 c21 0 31 6 35 20 5 20 27 28 27 10 0 -12 41 -30 53 -23 5 3 -3 18 -18 33 -27 28 -27 29 -9 54 11 14 22 26 27 26 4 0 7 7 7 15 0 25 -36 17 -55 -12 l-18 -26 -19 26 c-20 27 -42 35 -52 18z"/>
 </g>
<g id="layer115" fill="#592608" stroke="none">
 <path d="M160 1979 c0 -35 50 -172 76 -206 46 -60 126 -94 259 -108 35 -4 72 -13 82 -21 10 -7 38 -28 63 -46 31 -23 54 -51 72 -90 20 -42 35 -59 53 -64 21 -5 24 -10 19 -33 -4 -14 -21 -37 -38 -51 -53 -42 -76 -68 -76 -86 0 -12 12 -6 42 22 104 95 249 194 284 194 28 0 190 -108 250 -167 39 -37 44 -40 44 -20 0 14 -15 33 -40 51 -49 36 -55 76 -14 94 16 8 34 32 49 67 17 38 37 63 67 85 24 16 52 37 63 45 10 8 32 15 47 15 56 0 184 32 225 56 23 13 54 40 68 58 33 44 75 151 75 193 l0 33 -835 0 -835 0 0 -21z m1589 -150 c-27 -47 -89 -95 -134 -104 -26 -6 -25 -4 10 13 55 26 97 64 120 106 11 19 21 33 23 31 2 -2 -6 -23 -19 -46z m-1400 -85 c25 -13 35 -22 21 -19 -41 10 -103 58 -124 95 -19 34 -18 34 18 -8 21 -23 59 -54 85 -68z m687 -89 c9 -13 32 -34 53 -46 52 -32 81 -60 81 -80 0 -14 -14 -9 -77 27 -43 24 -88 44 -100 44 -12 0 -56 -20 -98 -45 -66 -38 -75 -42 -75 -25 0 13 24 38 68 69 71 52 81 69 98 166 l7 40 13 -62 c7 -35 21 -74 30 -88z m344 -2 c0 -5 -18 -18 -40 -31 -51 -29 -52 -20 -2 12 43 29 42 28 42 19z m-709 -34 l24 -20 -30 17 c-39 24 -40 24 -28 24 6 0 21 -9 34 -21z"/>
 <path d="M960 1145 c-35 -19 -24 -28 38 -30 57 -2 70 14 27 33 -32 15 -34 15 -65 -3z"/>
 <path d="M710 943 c0 -3 12 -21 26 -40 l25 -33 -27 -33 -27 -32 23 -3 c15 -3 29 4 41 19 l17 22 11 -21 c13 -25 51 -30 51 -7 0 8 -3 15 -8 15 -4 0 -13 9 -20 21 -12 18 -10 25 12 54 31 40 32 45 7 45 -11 0 -28 -12 -39 -27 l-19 -26 -18 26 c-15 24 -55 38 -55 20z"/>
 <path d="M1126 941 c-3 -5 1 -14 10 -22 34 -28 37 -49 9 -85 l-26 -34 29 0 c21 0 31 6 35 20 5 20 27 28 27 10 0 -12 41 -30 53 -23 5 3 -3 18 -18 33 -27 28 -27 29 -9 54 11 14 22 26 27 26 4 0 7 7 7 15 0 25 -36 17 -55 -12 l-18 -26 -19 26 c-20 27 -42 35 -52 18z"/>
 </g>
<g id="layer116" fill="#1f2528" stroke="none">
 <path d="M160 1979 c0 -35 50 -172 76 -206 46 -60 126 -94 259 -108 35 -4 72 -13 82 -21 10 -7 38 -28 63 -46 31 -23 54 -51 72 -90 20 -42 34 -59 53 -64 18 -4 24 -11 21 -21 -3 -8 -6 -20 -6 -27 0 -6 -22 -29 -49 -49 -27 -21 -51 -47 -54 -59 -5 -17 1 -15 31 14 56 53 180 145 238 175 l50 26 50 -27 c27 -14 91 -58 141 -96 51 -39 93 -66 93 -60 0 5 -16 22 -35 37 -44 35 -48 74 -9 91 16 8 34 32 49 67 17 38 37 63 67 85 24 16 52 37 63 45 10 8 32 15 47 15 56 0 184 32 225 56 23 13 54 40 68 58 33 44 75 151 75 193 l0 33 -835 0 -835 0 0 -21z m1589 -150 c-27 -47 -89 -95 -134 -104 -26 -6 -25 -4 10 13 55 26 97 64 120 106 11 19 21 33 23 31 2 -2 -6 -23 -19 -46z m-1400 -85 c25 -13 35 -22 21 -19 -41 10 -103 58 -124 95 -19 34 -18 34 18 -8 21 -23 59 -54 85 -68z m664 -5 c9 -67 28 -94 100 -142 52 -35 57 -42 57 -75 0 -20 3 -47 6 -58 10 -39 -23 -36 -94 6 -36 22 -75 40 -87 40 -12 0 -50 -17 -85 -39 -83 -50 -98 -46 -98 25 l1 55 56 38 c31 21 63 47 72 57 22 25 39 79 39 121 0 55 24 34 33 -28z m367 -86 c0 -5 -18 -18 -40 -31 -51 -29 -52 -20 -2 12 43 29 42 28 42 19z m-709 -34 l24 -20 -30 17 c-39 24 -40 24 -28 24 6 0 21 -9 34 -21z"/>
 <path d="M735 905 l27 -34 -21 -30 c-25 -35 -26 -41 -6 -41 8 0 20 9 27 20 7 11 17 20 23 20 6 0 16 -9 23 -20 7 -11 19 -20 27 -20 20 0 19 7 -5 37 -11 14 -20 31 -20 38 0 6 9 20 20 30 11 10 20 22 20 27 0 16 -32 7 -50 -14 l-19 -23 -16 23 c-9 12 -25 22 -36 22 -19 0 -18 -2 6 -35z"/>
 <path d="M1130 932 c0 -5 9 -17 20 -27 11 -10 20 -24 20 -30 0 -7 -9 -24 -20 -38 -25 -31 -25 -37 -1 -37 10 0 26 10 35 23 15 21 16 21 29 5 15 -19 47 -24 47 -8 0 6 -3 10 -8 10 -4 0 -13 9 -20 21 -12 18 -10 25 13 55 l26 34 -25 0 c-16 0 -27 -7 -31 -20 -3 -11 -11 -20 -16 -20 -5 0 -14 9 -21 20 -13 20 -48 28 -48 12z"/>
 </g>
<g id="layer117" fill="#4a1d02" stroke="none">
 <path d="M160 1979 c0 -35 50 -172 76 -206 46 -60 126 -94 259 -108 35 -4 72 -13 82 -21 10 -7 38 -28 63 -46 31 -23 54 -51 72 -90 20 -42 34 -59 53 -64 18 -4 24 -11 21 -21 -3 -8 -6 -20 -6 -27 0 -6 -22 -29 -49 -49 -27 -21 -51 -47 -54 -59 -5 -17 1 -15 31 14 56 53 180 145 238 175 l50 26 50 -27 c27 -14 91 -58 141 -96 51 -39 93 -66 93 -60 0 5 -16 22 -35 37 -44 35 -48 74 -9 91 16 8 34 32 49 67 17 38 37 63 67 85 24 16 52 37 63 45 10 8 32 15 47 15 56 0 184 32 225 56 23 13 54 40 68 58 34 44 75 151 75 194 0 54 -22 33 -36 -35 -31 -154 -94 -206 -297 -243 -75 -14 -114 -26 -112 -34 2 -6 -17 -24 -43 -41 -34 -22 -54 -46 -77 -90 -18 -36 -38 -61 -50 -63 -17 -4 -18 -3 -2 13 9 9 17 24 17 33 0 24 -43 68 -106 108 -29 18 -55 38 -58 42 -3 5 8 19 25 31 16 12 49 52 73 89 66 104 66 104 116 20 39 -65 90 -132 90 -117 0 4 -31 52 -69 108 l-69 102 -41 -48 -42 -48 -20 24 c-11 14 -16 28 -11 33 10 10 4 58 -8 58 -12 0 -33 68 -25 80 4 6 -25 10 -84 10 -88 0 -91 -1 -90 -22 0 -13 -7 -45 -16 -73 -39 -114 -56 -126 -94 -70 -29 43 -57 61 -64 41 -3 -8 1 -13 11 -12 9 0 36 -27 64 -68 58 -84 87 -116 105 -116 7 0 13 -4 13 -9 0 -11 -65 -61 -79 -61 -6 0 -20 -10 -31 -22 -24 -26 -67 -103 -52 -94 5 3 12 -3 15 -15 10 -39 -27 -16 -51 31 -34 68 -57 95 -96 114 -37 17 -44 30 -26 41 24 15 120 159 120 180 0 4 -27 -34 -61 -84 -33 -50 -66 -91 -72 -91 -48 2 -253 52 -281 70 -65 40 -112 119 -131 223 -8 40 -25 51 -25 16z m854 -244 c8 -63 27 -90 99 -138 52 -35 57 -42 57 -75 0 -20 3 -47 6 -58 10 -39 -23 -36 -94 6 -36 22 -75 40 -87 40 -12 0 -50 -17 -85 -39 -83 -50 -98 -46 -98 25 l1 55 56 38 c31 21 63 47 72 57 25 29 42 92 36 135 -5 36 -4 37 13 21 9 -9 20 -39 24 -67z"/>
 <path d="M735 905 l27 -34 -21 -30 c-25 -35 -26 -41 -6 -41 8 0 20 9 27 20 7 11 17 20 23 20 6 0 16 -9 23 -20 7 -11 19 -20 27 -20 20 0 19 7 -5 37 -11 14 -20 31 -20 38 0 6 9 20 20 30 11 10 20 22 20 27 0 16 -32 7 -50 -14 l-19 -23 -16 23 c-9 12 -25 22 -36 22 -19 0 -18 -2 6 -35z"/>
 <path d="M1130 932 c0 -5 9 -17 20 -27 11 -10 20 -24 20 -30 0 -7 -9 -24 -20 -38 -25 -31 -25 -37 -1 -37 10 0 26 10 35 23 15 21 16 21 29 5 15 -19 47 -24 47 -8 0 6 -3 10 -8 10 -4 0 -13 9 -20 21 -12 18 -10 25 13 55 l26 34 -25 0 c-16 0 -27 -7 -31 -20 -3 -11 -11 -20 -16 -20 -5 0 -14 9 -21 20 -13 20 -48 28 -48 12z"/>
 </g>
<g id="layer118" fill="#242021" stroke="none">
 <path d="M171 1984 c-2 -42 40 -178 64 -210 47 -61 127 -95 260 -109 35 -4 72 -13 82 -21 10 -7 38 -28 63 -46 31 -23 54 -51 72 -89 20 -43 34 -59 57 -67 35 -12 38 -6 43 73 3 36 8 43 67 84 77 54 106 107 98 180 -2 25 -2 40 0 34 5 -15 30 -17 35 -4 2 4 12 5 23 0 18 -7 18 -8 -4 -8 -22 -1 -23 -4 -18 -48 9 -75 23 -101 74 -136 80 -54 93 -71 93 -119 0 -24 7 -52 15 -62 8 -11 15 -15 15 -10 0 6 12 16 26 22 16 8 34 32 49 67 17 38 37 63 67 85 24 16 49 35 57 41 7 7 50 18 95 24 118 18 160 32 208 68 47 36 96 120 103 177 2 19 7 48 11 64 5 21 4 28 -6 24 -8 -2 -19 -31 -26 -65 -31 -154 -94 -206 -297 -243 -75 -14 -114 -26 -112 -34 2 -6 -17 -24 -43 -41 -34 -22 -54 -46 -77 -90 -18 -36 -38 -61 -50 -63 -17 -4 -18 -3 -2 13 9 9 17 24 17 33 0 24 -43 68 -106 108 -29 18 -55 38 -58 42 -3 5 8 19 25 31 16 12 49 52 73 89 66 104 66 104 116 20 39 -65 90 -132 90 -117 0 4 -31 52 -69 108 l-69 102 -41 -48 -42 -48 -20 24 c-11 14 -16 28 -11 33 10 10 4 58 -8 58 -12 0 -33 68 -25 80 4 6 -25 10 -84 10 -88 0 -91 -1 -90 -22 0 -13 -7 -45 -16 -73 -39 -114 -56 -126 -94 -70 -29 43 -57 61 -64 41 -3 -8 1 -13 11 -12 9 0 36 -27 64 -68 58 -84 87 -116 105 -116 7 0 13 -4 13 -9 0 -11 -65 -61 -79 -61 -6 0 -20 -10 -31 -22 -24 -26 -67 -103 -52 -94 5 3 12 -3 15 -15 10 -39 -27 -16 -51 31 -34 68 -57 95 -96 114 -37 17 -44 30 -26 41 24 15 120 159 120 180 0 4 -27 -34 -61 -84 -33 -50 -63 -91 -67 -91 -25 0 -232 44 -257 54 -77 32 -120 92 -154 213 -11 37 -20 59 -20 47z"/>
 <path d="M720 935 c0 -3 10 -19 21 -35 l22 -28 -22 -31 c-19 -27 -20 -31 -6 -31 9 0 25 10 35 22 l17 22 14 -22 c8 -12 23 -22 33 -22 19 0 18 1 -2 23 -27 29 -27 42 -1 75 18 24 19 27 5 30 -9 2 -26 -7 -37 -20 l-20 -23 -15 23 c-15 19 -44 31 -44 17z"/>
 <path d="M1154 906 l26 -35 -26 -30 c-22 -26 -23 -31 -8 -31 10 0 26 8 37 17 18 17 19 17 32 0 6 -9 20 -17 29 -17 15 0 15 4 -5 31 l-22 31 22 28 c25 34 26 40 7 40 -8 0 -22 -10 -31 -22 l-16 -23 -19 23 c-10 12 -26 22 -35 22 -15 0 -13 -5 9 -34z"/>
 </g>
<g id="layer119" fill="#2e180b" stroke="none">
 <path d="M171 1984 c-2 -42 40 -178 64 -210 47 -61 127 -95 260 -109 35 -4 72 -13 82 -21 10 -7 38 -28 63 -46 31 -23 54 -51 72 -89 20 -43 34 -59 57 -67 35 -12 38 -6 43 73 3 36 8 43 67 84 45 31 69 56 82 85 23 51 25 112 4 124 -11 5 0 8 33 9 52 1 112 26 112 46 0 8 -7 37 -15 65 -9 29 -13 57 -10 62 4 6 -28 10 -84 10 -88 0 -91 -1 -90 -22 0 -13 -7 -45 -16 -73 -39 -114 -56 -126 -94 -70 -29 43 -57 61 -64 41 -3 -8 1 -13 11 -12 9 0 36 -27 64 -68 58 -84 87 -116 105 -116 7 0 13 -4 13 -9 0 -11 -65 -61 -79 -61 -6 0 -20 -10 -31 -22 -24 -26 -67 -103 -52 -94 5 3 12 -3 15 -15 10 -39 -27 -16 -51 31 -34 68 -57 95 -96 114 -37 17 -44 30 -26 41 24 15 120 159 120 180 0 4 -27 -34 -61 -84 -33 -50 -63 -91 -67 -91 -25 0 -232 44 -257 54 -77 32 -120 92 -154 213 -11 37 -20 59 -20 47z"/>
 <path d="M1807 1993 c-3 -5 -7 -28 -11 -53 -9 -66 -49 -144 -87 -172 -58 -44 -92 -56 -212 -78 -75 -14 -114 -26 -112 -34 2 -6 -17 -24 -43 -41 -34 -22 -54 -46 -77 -90 -18 -36 -38 -61 -50 -63 -17 -4 -18 -3 -2 13 9 9 17 24 17 33 0 24 -43 68 -106 108 -29 18 -55 38 -58 42 -3 5 8 19 25 31 16 12 49 52 73 89 61 95 71 102 92 60 22 -44 105 -160 110 -155 2 2 -27 50 -65 106 l-69 102 -40 -48 c-38 -44 -42 -46 -59 -31 -17 15 -22 15 -71 0 l-54 -17 5 -45 c9 -71 23 -98 74 -133 80 -54 93 -71 93 -119 0 -24 7 -52 15 -62 8 -11 15 -15 15 -10 0 6 12 16 26 22 16 8 34 32 49 67 17 38 37 63 67 85 24 16 49 35 57 41 7 7 50 18 95 24 118 18 160 32 208 68 47 36 96 120 103 177 2 19 7 47 11 63 6 25 -8 39 -19 20z"/>
 <path d="M720 935 c0 -3 10 -19 21 -35 l22 -28 -22 -31 c-19 -27 -20 -31 -6 -31 9 0 25 10 35 22 l17 22 14 -22 c8 -12 23 -22 33 -22 19 0 18 1 -2 23 -27 29 -27 42 -1 75 18 24 19 27 5 30 -9 2 -26 -7 -37 -20 l-20 -23 -15 23 c-15 19 -44 31 -44 17z"/>
 <path d="M1154 906 l26 -35 -26 -30 c-22 -26 -23 -31 -8 -31 10 0 26 8 37 17 18 17 19 17 32 0 6 -9 20 -17 29 -17 15 0 15 4 -5 31 l-22 31 22 28 c25 34 26 40 7 40 -8 0 -22 -10 -31 -22 l-16 -23 -19 23 c-10 12 -26 22 -35 22 -15 0 -13 -5 9 -34z"/>
 </g>
<g id="layer120" fill="#111011" stroke="none">
 <path d="M911 1978 c0 -13 -7 -45 -16 -73 -39 -114 -56 -126 -94 -70 -29 43 -57 61 -64 41 -3 -8 1 -13 11 -12 9 0 36 -27 64 -68 58 -84 87 -116 105 -116 7 0 13 -4 13 -9 0 -11 -65 -61 -79 -61 -6 0 -20 -10 -31 -22 -24 -26 -67 -103 -52 -94 5 3 12 -3 15 -15 10 -39 -27 -16 -51 31 -34 68 -57 95 -96 114 -37 17 -44 30 -26 41 24 15 120 159 120 180 0 4 -27 -34 -61 -84 -33 -50 -66 -91 -72 -91 -7 1 -66 11 -131 25 -171 34 -223 75 -266 209 -23 74 -26 51 -4 -36 33 -130 111 -183 299 -203 35 -4 72 -13 82 -21 10 -7 38 -28 63 -46 30 -22 54 -51 70 -86 26 -55 43 -72 72 -72 12 0 18 13 23 58 l7 58 65 44 c69 47 87 75 98 154 6 35 4 46 -9 53 -12 7 -3 9 32 10 52 1 112 26 112 46 0 8 -7 37 -15 65 -9 29 -13 57 -10 62 4 6 -28 10 -84 10 -88 0 -91 -1 -90 -22z"/>
 <path d="M1796 1943 c-9 -68 -48 -146 -87 -175 -58 -44 -92 -56 -212 -78 -75 -14 -114 -26 -112 -34 2 -6 -17 -24 -43 -41 -34 -22 -54 -46 -77 -90 -18 -36 -38 -61 -50 -63 -17 -4 -18 -3 -2 13 9 9 17 24 17 33 0 24 -43 68 -106 108 -29 18 -55 38 -58 42 -3 5 8 19 25 31 16 12 49 52 73 89 61 95 71 102 92 60 22 -44 105 -160 110 -155 2 2 -27 50 -65 106 l-69 102 -40 -48 c-38 -44 -42 -46 -59 -31 -17 15 -22 15 -71 0 l-54 -17 6 -43 c9 -68 33 -108 85 -142 66 -41 77 -57 85 -113 8 -65 12 -70 47 -51 21 10 38 33 55 69 16 38 36 64 66 85 24 16 49 35 57 41 7 7 50 18 95 24 115 18 157 31 204 65 60 43 91 103 98 189 6 80 0 95 -10 24z"/>
 <path d="M744 906 l25 -34 -19 -25 c-24 -30 -25 -37 -6 -37 8 0 18 9 21 20 8 26 20 25 39 -1 8 -12 20 -19 26 -17 7 2 4 13 -10 31 l-21 27 21 31 c29 40 16 52 -15 14 -23 -30 -24 -30 -39 -10 -8 11 -16 23 -16 28 0 4 -7 7 -16 7 -13 0 -11 -7 10 -34z"/>
 <path d="M1140 935 c0 -3 10 -19 21 -35 l22 -28 -22 -31 c-17 -24 -19 -31 -8 -31 8 0 22 10 31 23 l16 22 16 -22 c9 -13 23 -23 32 -23 12 0 11 5 -6 23 -27 29 -27 41 -1 78 26 36 6 38 -25 2 l-23 -27 -18 27 c-15 24 -35 36 -35 22z"/>
 </g>

</svg>