<!DOCTYPE svg PUBLIC "-//W3C//DTD SVG 20010904//EN" "http://www.w3.org/TR/2001/REC-SVG-20010904/DTD/svg10.dtd">
<svg version="1.0" xmlns="http://www.w3.org/2000/svg" width="200px" height="200px" viewBox="0 0 2000 2000" preserveAspectRatio="xMidYMid meet">
<g id="layer101" fill="#fdfefa" stroke="none">
 <path d="M95 1978 c32 -109 108 -208 189 -248 45 -21 257 -62 305 -58 29 2 63 -18 143 -85 l47 -40 -37 -27 c-61 -44 -137 -134 -150 -177 -7 -22 -15 -68 -18 -102 -6 -49 -10 -61 -25 -61 -21 0 -59 -45 -59 -70 0 -10 -20 -57 -45 -106 -46 -89 -58 -157 -34 -181 8 -8 8 -17 0 -31 -6 -11 -9 -27 -6 -34 3 -8 -1 -41 -10 -73 -8 -33 -15 -78 -15 -102 0 -43 17 -93 32 -93 4 0 8 -14 8 -31 0 -35 13 -63 45 -99 12 -14 34 -46 48 -71 26 -46 64 -79 90 -79 7 0 25 -17 38 -37 28 -44 90 -81 145 -87 21 -2 58 -11 82 -20 59 -22 247 -18 284 6 13 9 41 16 62 16 48 0 124 46 145 89 10 19 26 33 41 36 33 7 79 52 98 97 8 19 23 41 34 49 24 16 48 70 48 106 0 14 4 25 8 25 15 0 32 49 32 88 0 21 -6 63 -14 93 -14 52 -16 77 -13 210 0 48 -5 65 -32 108 -18 28 -41 77 -50 108 -13 47 -23 61 -48 73 -28 14 -31 21 -37 74 -12 120 -48 180 -158 267 l-48 37 48 40 c64 53 100 75 125 77 53 5 243 36 276 45 113 31 175 106 225 268 l7 22 -906 0 -906 0 6 -22z"/>
 </g>
<g id="layer102" fill="#5bbbd5" stroke="none">
 <path d="M95 1978 c32 -109 108 -208 189 -248 45 -21 257 -62 305 -58 29 2 63 -18 143 -85 l47 -40 -37 -27 c-61 -44 -137 -134 -150 -177 -7 -22 -15 -68 -18 -102 -6 -49 -10 -61 -25 -61 -21 0 -59 -45 -59 -70 0 -10 -20 -57 -45 -106 -46 -89 -58 -157 -34 -181 8 -8 8 -17 0 -31 -6 -11 -9 -27 -6 -34 3 -8 -1 -41 -10 -73 -8 -33 -15 -78 -15 -102 0 -43 17 -93 32 -93 4 0 8 -14 8 -31 0 -35 13 -63 45 -99 12 -14 34 -46 48 -71 26 -46 64 -79 90 -79 7 0 25 -17 38 -37 28 -44 90 -81 145 -87 21 -2 58 -11 82 -20 59 -22 247 -18 284 6 13 9 41 16 62 16 48 0 124 46 145 89 10 19 26 33 41 36 33 7 79 52 98 97 8 19 23 41 34 49 24 16 48 70 48 106 0 14 4 25 8 25 15 0 32 49 32 88 0 21 -6 63 -14 93 -14 52 -16 77 -13 210 0 48 -5 65 -32 108 -18 28 -41 77 -50 108 -13 47 -23 61 -48 73 -28 14 -31 21 -37 74 -12 120 -48 180 -158 267 l-48 37 48 40 c64 53 100 75 125 77 53 5 243 36 276 45 113 31 175 106 225 268 l7 22 -906 0 -906 0 6 -22z m989 -728 c17 -17 -12 -34 -54 -33 -21 1 -54 10 -72 19 -30 16 -31 18 -13 25 24 11 126 2 139 -11z m-216 -278 c52 -34 69 -129 33 -188 -26 -42 -83 -68 -135 -61 -98 13 -164 183 -98 250 38 37 142 37 200 -1z m416 14 c94 -39 104 -166 18 -230 -39 -30 -113 -28 -147 4 -56 52 -72 133 -38 191 27 45 104 61 167 35z"/>
 <path d="M740 865 c-17 -20 -6 -43 25 -51 30 -8 53 0 61 21 9 22 -14 45 -46 45 -15 0 -33 -7 -40 -15z"/>
 <path d="M1187 873 c-13 -12 -7 -54 8 -59 44 -17 84 23 53 54 -13 13 -50 16 -61 5z"/>
 </g>
<g id="layer103" fill="#e06465" stroke="none">
 <path d="M95 1978 c32 -109 108 -208 189 -248 45 -21 257 -62 305 -58 29 2 63 -18 143 -85 l47 -40 -37 -27 c-61 -44 -137 -134 -150 -177 -7 -22 -15 -68 -18 -102 -6 -49 -10 -61 -25 -61 -21 0 -59 -45 -59 -70 0 -10 -20 -57 -45 -106 -46 -89 -58 -157 -34 -181 8 -8 8 -17 0 -31 -6 -11 -9 -27 -6 -34 3 -8 -1 -41 -10 -73 -8 -33 -15 -78 -15 -102 0 -43 17 -93 32 -93 4 0 8 -14 8 -31 0 -35 13 -63 45 -99 12 -14 34 -46 48 -71 26 -46 64 -79 90 -79 7 0 25 -17 38 -37 28 -44 90 -81 145 -87 21 -2 58 -11 82 -20 59 -22 247 -18 284 6 13 9 41 16 62 16 48 0 124 46 145 89 10 19 26 33 41 36 33 7 79 52 98 97 8 19 23 41 34 49 24 16 48 70 48 106 0 14 4 25 8 25 15 0 32 49 32 88 0 21 -6 63 -14 93 -14 52 -16 77 -13 210 0 48 -5 65 -32 108 -18 28 -41 77 -50 108 -13 47 -23 61 -48 73 -28 14 -31 21 -37 74 -12 120 -48 180 -158 267 l-48 37 48 40 c64 53 100 75 125 77 53 5 243 36 276 45 113 31 175 106 225 268 l7 22 -906 0 -906 0 6 -22z m989 -728 c17 -17 -12 -34 -54 -33 -21 1 -54 10 -72 19 -30 16 -31 18 -13 25 24 11 126 2 139 -11z m-216 -278 c52 -34 69 -129 33 -188 -26 -42 -83 -68 -135 -61 -98 13 -164 183 -98 250 38 37 142 37 200 -1z m416 14 c94 -39 104 -166 18 -230 -39 -30 -113 -28 -147 4 -56 52 -72 133 -38 191 27 45 104 61 167 35z"/>
 </g>
<g id="layer104" fill="#81817f" stroke="none">
 <path d="M95 1978 c32 -109 108 -208 189 -248 45 -21 257 -62 305 -58 29 2 63 -18 143 -85 l47 -40 -37 -27 c-61 -44 -137 -134 -150 -177 -7 -22 -15 -68 -18 -102 -6 -49 -10 -61 -25 -61 -21 0 -59 -45 -59 -70 0 -10 -20 -57 -45 -106 -46 -89 -58 -157 -34 -181 8 -8 8 -17 0 -31 -6 -11 -9 -27 -6 -34 3 -8 -1 -41 -10 -73 -8 -33 -15 -78 -15 -102 0 -43 17 -93 32 -93 4 0 8 -14 8 -31 0 -35 13 -63 45 -99 12 -14 34 -46 48 -71 26 -46 64 -79 90 -79 7 0 25 -17 38 -37 28 -44 90 -81 145 -87 21 -2 58 -11 82 -20 59 -22 247 -18 284 6 13 9 41 16 62 16 48 0 124 46 145 89 10 19 26 33 41 36 33 7 79 52 98 97 8 19 23 41 34 49 24 16 48 70 48 106 0 14 4 25 8 25 15 0 32 49 32 88 0 21 -6 63 -14 93 -14 52 -16 77 -13 210 0 48 -5 65 -32 108 -18 28 -41 77 -50 108 -13 47 -23 61 -48 73 -28 14 -31 21 -37 74 -12 120 -48 180 -158 267 l-48 37 48 40 c64 53 100 75 125 77 53 5 243 36 276 45 113 31 175 106 225 268 l7 22 -906 0 -906 0 6 -22z m1032 -654 c5 -16 -27 -23 -73 -14 l-39 7 35 11 c42 13 72 11 77 -4z m-43 -74 c17 -17 -12 -34 -54 -33 -21 1 -54 10 -72 19 -30 16 -31 18 -13 25 24 11 126 2 139 -11z m-216 -278 c52 -34 69 -129 33 -188 -26 -42 -83 -68 -135 -61 -98 13 -164 183 -98 250 38 37 142 37 200 -1z m416 14 c94 -39 104 -166 18 -230 -39 -30 -113 -28 -147 4 -56 52 -72 133 -38 191 27 45 104 61 167 35z"/>
 </g>
<g id="layer105" fill="#3087af" stroke="none">
 <path d="M95 1978 c32 -109 108 -208 189 -248 45 -21 257 -62 305 -58 29 2 63 -18 143 -85 l47 -40 -37 -27 c-61 -44 -137 -134 -150 -177 -7 -22 -15 -68 -18 -102 -6 -49 -10 -61 -25 -61 -21 0 -59 -45 -59 -70 0 -10 -20 -57 -45 -106 -46 -89 -58 -157 -34 -181 8 -8 8 -17 0 -31 -6 -11 -9 -27 -6 -34 3 -8 -1 -41 -10 -73 -8 -33 -15 -78 -15 -102 0 -43 17 -93 32 -93 4 0 8 -14 8 -31 0 -35 13 -63 45 -99 12 -14 34 -46 48 -71 26 -46 64 -79 90 -79 7 0 25 -17 38 -37 28 -44 90 -81 145 -87 21 -2 58 -11 82 -20 59 -22 247 -18 284 6 13 9 41 16 62 16 48 0 124 46 145 89 10 19 26 33 41 36 33 7 79 52 98 97 8 19 23 41 34 49 24 16 48 70 48 106 0 14 4 25 8 25 15 0 32 49 32 88 0 21 -6 63 -14 93 -14 52 -16 77 -13 210 0 48 -5 65 -32 108 -18 28 -41 77 -50 108 -13 47 -23 61 -48 73 -28 14 -31 21 -37 74 -12 120 -48 180 -158 267 l-48 37 48 40 c64 53 100 75 125 77 53 5 243 36 276 45 113 31 175 106 225 268 l7 22 -906 0 -906 0 6 -22z m1032 -654 c5 -16 -27 -23 -73 -14 l-39 7 35 11 c42 13 72 11 77 -4z m-38 -69 c9 -5 8 -12 -5 -26 -20 -22 -46 -24 -95 -8 -83 29 -72 53 21 47 37 -3 73 -8 79 -13z m-245 -267 c70 -36 98 -104 71 -174 -23 -61 -66 -89 -133 -89 -49 0 -57 3 -87 37 -36 38 -55 90 -55 149 0 41 13 60 55 83 32 17 110 14 149 -6z m454 -5 c96 -55 77 -215 -29 -243 -79 -22 -138 10 -164 89 -33 100 16 171 117 171 26 0 60 -8 76 -17z"/>
 </g>
<g id="layer106" fill="#93614a" stroke="none">
 <path d="M95 1978 c32 -109 108 -208 189 -248 45 -21 257 -62 305 -58 29 2 63 -18 143 -85 l47 -40 -37 -27 c-61 -44 -137 -134 -150 -177 -7 -22 -15 -68 -18 -102 -6 -49 -10 -61 -25 -61 -21 0 -59 -45 -59 -70 0 -10 -20 -57 -45 -106 -46 -89 -58 -157 -34 -181 8 -8 8 -17 0 -31 -6 -11 -9 -27 -6 -34 3 -8 -1 -41 -10 -73 -8 -33 -15 -78 -15 -102 0 -43 17 -93 32 -93 4 0 8 -14 8 -31 0 -35 13 -63 45 -99 12 -14 34 -46 48 -71 26 -46 64 -79 90 -79 7 0 25 -17 38 -37 28 -44 90 -81 145 -87 21 -2 58 -11 82 -20 59 -22 247 -18 284 6 13 9 41 16 62 16 48 0 124 46 145 89 10 19 26 33 41 36 33 7 79 52 98 97 8 19 23 41 34 49 24 16 48 70 48 106 0 14 4 25 8 25 15 0 32 49 32 88 0 21 -6 63 -14 93 -14 52 -16 77 -13 210 0 48 -5 65 -32 108 -18 28 -41 77 -50 108 -13 47 -23 61 -48 73 -28 14 -31 21 -37 74 -12 120 -48 180 -158 267 l-48 37 48 40 c64 53 100 75 125 77 53 5 243 36 276 45 93 26 162 92 199 192 33 90 35 98 19 98 -8 0 -19 -19 -27 -42 -31 -105 -90 -182 -163 -213 -32 -13 -204 -45 -246 -45 -40 0 9 14 91 26 126 19 181 39 221 81 35 36 80 116 92 166 l7 27 -887 0 -886 0 6 -22z m110 -132 c49 -62 116 -93 249 -116 62 -11 95 -20 84 -24 -22 -10 -176 19 -232 44 -49 20 -110 78 -140 131 -22 39 -15 33 39 -35z m1050 -32 c33 -23 76 -58 94 -78 21 -21 45 -37 60 -37 25 -2 25 -2 3 -6 -17 -3 -35 7 -67 36 -23 22 -72 61 -107 86 -102 76 -90 75 17 -1z m-640 -94 c-26 -27 -75 -43 -60 -20 3 6 14 10 24 10 10 0 26 9 36 20 10 11 20 20 23 20 3 0 -7 -13 -23 -30z m512 -396 c5 -16 -27 -23 -73 -14 l-39 7 35 11 c42 13 72 11 77 -4z m-38 -69 c9 -5 8 -12 -5 -26 -20 -22 -46 -24 -95 -8 -83 29 -72 53 21 47 37 -3 73 -8 79 -13z m-245 -267 c70 -36 98 -104 71 -174 -23 -61 -66 -89 -133 -89 -49 0 -57 3 -87 37 -36 38 -55 90 -55 149 0 41 13 60 55 83 32 17 110 14 149 -6z m454 -5 c96 -55 77 -215 -29 -243 -79 -22 -138 10 -164 89 -33 100 16 171 117 171 26 0 60 -8 76 -17z"/>
 </g>
<g id="layer107" fill="#1e78a2" stroke="none">
 <path d="M95 1978 c32 -109 108 -208 189 -248 45 -21 257 -62 305 -58 15 1 41 -8 58 -20 17 -12 34 -22 38 -22 4 0 16 -11 27 -26 11 -14 23 -23 25 -20 3 3 13 -5 23 -16 17 -21 17 -23 -19 -48 -60 -44 -136 -134 -149 -177 -7 -22 -15 -68 -18 -102 -6 -49 -10 -61 -25 -61 -21 0 -59 -45 -59 -70 0 -10 -20 -57 -45 -106 -46 -89 -58 -157 -34 -181 8 -8 8 -17 0 -31 -6 -11 -9 -27 -6 -34 3 -8 -1 -41 -10 -73 -8 -33 -15 -78 -15 -102 0 -43 17 -93 32 -93 4 0 8 -14 8 -31 0 -35 13 -63 45 -99 12 -14 34 -46 48 -71 26 -46 64 -79 90 -79 7 0 25 -17 38 -37 28 -44 90 -81 145 -87 21 -2 58 -11 82 -20 59 -22 247 -18 284 6 13 9 41 16 62 16 48 0 124 46 145 89 10 19 26 33 41 36 33 7 79 52 98 97 8 19 23 41 34 49 24 16 48 70 48 106 0 14 4 25 8 25 15 0 32 49 32 88 0 21 -6 63 -14 93 -14 52 -16 77 -13 210 0 48 -5 65 -32 108 -18 28 -41 77 -50 108 -13 47 -23 61 -48 73 -28 14 -31 21 -37 74 -12 120 -48 180 -157 266 l-48 38 46 41 c25 22 48 41 50 41 2 0 15 8 29 17 14 9 36 17 47 18 53 5 243 36 276 45 93 26 162 92 199 192 33 90 35 98 19 98 -8 0 -19 -19 -27 -42 -31 -105 -90 -182 -163 -213 -32 -13 -204 -45 -246 -45 -40 0 9 14 91 26 126 19 181 39 221 81 35 36 80 116 92 166 l7 27 -887 0 -886 0 6 -22z m1050 -125 c85 -56 82 -61 -21 -40 l-61 13 21 -47 c20 -45 21 -46 24 -17 3 22 7 28 19 24 8 -3 40 -6 71 -6 54 0 60 -3 111 -48 l54 -48 -77 -57 c-42 -32 -76 -62 -76 -67 0 -13 -75 15 -132 50 -61 38 -94 38 -160 -1 -62 -37 -128 -62 -128 -49 0 5 -38 37 -85 72 l-86 63 45 41 c39 36 52 42 107 48 34 3 76 6 94 6 l32 0 -8 -47 c-13 -80 -9 -81 15 -5 13 40 30 80 38 89 11 15 11 16 -5 10 -48 -18 -205 -51 -195 -41 3 3 66 36 139 74 130 67 135 68 159 53 14 -9 61 -40 105 -70z m-940 -7 c49 -62 116 -93 249 -116 62 -11 95 -20 84 -24 -22 -10 -176 19 -232 44 -49 20 -110 78 -140 131 -22 39 -15 33 39 -35z m1050 -32 c33 -23 76 -58 94 -78 21 -21 45 -37 60 -37 25 -2 25 -2 3 -6 -17 -3 -35 7 -67 36 -23 22 -72 61 -107 86 -102 76 -90 75 17 -1z m-640 -94 c-26 -27 -75 -43 -60 -20 3 6 14 10 24 10 10 0 26 9 36 20 10 11 20 20 23 20 3 0 -7 -13 -23 -30z m323 -262 c7 -7 12 -25 12 -41 0 -42 17 -67 45 -67 14 0 25 -5 25 -11 0 -6 -10 -9 -22 -6 -78 18 -84 18 -111 -3 -27 -21 -27 -22 -10 -51 26 -44 75 -70 141 -76 52 -5 61 -3 89 21 36 30 50 75 33 107 -10 19 -18 21 -61 17 -27 -3 -46 -1 -43 4 3 5 9 30 12 55 9 62 27 72 85 44 56 -27 133 -94 153 -133 8 -16 22 -64 30 -106 8 -45 30 -108 51 -151 21 -41 46 -104 56 -140 10 -36 23 -84 29 -106 7 -22 11 -78 11 -123 -1 -73 -5 -89 -27 -121 -14 -20 -26 -44 -26 -53 0 -16 -92 -78 -116 -78 -8 0 -37 11 -64 25 -28 14 -62 24 -77 23 -16 -1 -37 3 -48 9 -26 15 -180 15 -214 1 -14 -6 -35 -10 -46 -9 -11 1 -42 -12 -68 -29 -59 -37 -73 -37 -117 -2 -19 16 -43 31 -52 35 -10 3 -18 14 -18 24 0 9 -12 34 -26 55 -23 33 -27 48 -27 120 0 46 4 101 11 123 6 22 19 69 27 105 9 36 21 73 26 83 50 94 69 142 80 202 6 39 20 86 30 106 22 44 94 110 152 138 49 24 59 25 75 9z m189 -134 c5 -16 -27 -23 -73 -14 l-39 7 35 11 c42 13 72 11 77 -4z m-38 -69 c9 -5 8 -12 -5 -26 -20 -22 -46 -24 -95 -8 -83 29 -72 53 21 47 37 -3 73 -8 79 -13z m-529 -99 c0 -14 -26 -75 -39 -90 -9 -11 -11 -16 -4 -13 8 5 11 0 10 -13 -1 -20 -17 -29 -17 -9 0 5 -5 7 -12 3 -8 -5 -9 -2 -4 12 4 10 10 33 13 49 5 30 29 65 45 65 4 0 8 -2 8 -4z m914 -18 c18 -25 21 -53 6 -43 -6 3 0 -11 12 -31 12 -21 17 -35 11 -31 -14 9 -23 -14 -17 -45 5 -23 5 -23 -6 1 -6 14 -9 30 -6 38 3 7 1 15 -4 18 -6 4 -10 12 -10 18 0 7 4 6 10 -3 6 -9 10 -10 10 -3 0 7 -6 16 -14 20 -18 10 -33 83 -18 83 6 0 18 -10 26 -22z m-980 -228 c5 -21 4 -20 -8 5 -17 34 -21 20 -6 -20 8 -20 7 -27 -6 -32 -29 -11 -38 13 -20 50 9 19 17 48 17 64 1 26 2 26 9 -7 5 -19 11 -46 14 -60z m1045 -7 c1 -46 -12 -56 -29 -22 -9 16 -8 32 2 66 11 39 14 42 19 21 4 -12 7 -42 8 -65z"/>
 <path d="M975 1860 c-4 -6 7 -10 25 -10 18 0 29 4 25 10 -3 6 -15 10 -25 10 -10 0 -22 -4 -25 -10z"/>
 <path d="M970 1181 c-33 -9 -36 -35 -11 -109 12 -34 21 -81 22 -104 1 -42 1 -42 10 -13 6 17 8 70 5 119 -4 59 -2 94 5 102 12 15 8 16 -31 5z"/>
 <path d="M680 1018 c-49 -26 -71 -103 -51 -176 6 -20 6 -30 0 -27 -20 13 -7 -12 21 -38 17 -16 30 -33 30 -38 0 -16 63 -41 109 -43 33 -1 55 5 77 21 23 17 34 19 42 11 16 -16 28 -1 16 20 -8 12 -7 25 2 47 30 70 1 167 -62 206 -44 27 -147 36 -184 17z m164 -30 c70 -36 98 -104 71 -174 -23 -61 -66 -89 -133 -89 -49 0 -57 3 -87 37 -36 38 -55 90 -55 149 0 41 13 60 55 83 32 17 110 14 149 -6z"/>
 <path d="M1144 1004 c-16 -8 -38 -28 -47 -43 -21 -36 -22 -122 -3 -160 13 -25 13 -28 -5 -39 -10 -7 -19 -19 -19 -27 0 -18 5 -18 32 -4 15 8 28 7 51 -2 46 -19 57 -20 108 -8 28 6 61 24 83 44 33 30 36 37 36 91 0 43 -6 66 -22 90 -46 67 -143 93 -214 58z m154 -21 c96 -55 77 -215 -29 -243 -79 -22 -138 10 -164 89 -33 100 16 171 117 171 26 0 60 -8 76 -17z"/>
 </g>
<g id="layer108" fill="#695c56" stroke="none">
 <path d="M95 1979 c32 -110 108 -209 189 -249 45 -21 257 -62 305 -58 15 1 41 -8 58 -20 17 -12 34 -22 38 -22 4 0 16 -11 27 -26 11 -14 23 -23 25 -20 3 3 13 -5 23 -16 17 -21 17 -23 -19 -48 -60 -44 -136 -134 -149 -177 -7 -22 -15 -68 -18 -102 -6 -49 -10 -61 -25 -61 -21 0 -59 -45 -59 -70 0 -10 -20 -57 -45 -106 -46 -89 -58 -157 -34 -181 8 -8 8 -17 0 -31 -6 -11 -9 -27 -6 -34 3 -8 -1 -41 -10 -73 -8 -33 -15 -78 -15 -102 0 -43 17 -93 32 -93 4 0 8 -14 8 -31 0 -35 13 -63 45 -99 12 -14 34 -46 48 -71 26 -46 64 -79 90 -79 7 0 25 -17 38 -37 28 -44 90 -81 145 -87 21 -2 58 -11 82 -20 59 -22 247 -18 284 6 13 9 41 16 62 16 48 0 124 46 145 89 10 19 26 33 41 36 33 7 79 52 98 97 8 19 23 41 34 49 24 16 48 70 48 106 0 14 4 25 8 25 15 0 32 49 32 88 0 21 -6 63 -14 93 -14 52 -16 77 -13 210 0 48 -5 65 -32 108 -18 28 -41 77 -50 108 -13 47 -23 61 -48 73 -28 14 -31 21 -37 74 -12 120 -48 180 -157 266 l-48 38 46 41 c25 22 48 41 50 41 2 0 15 8 29 17 14 9 36 17 47 18 53 5 243 36 276 45 93 26 162 92 199 192 33 88 35 101 22 96 -7 -2 -22 -31 -34 -64 -55 -151 -117 -195 -316 -224 -72 -11 -135 -22 -141 -26 -6 -3 -38 21 -72 53 -34 33 -124 101 -201 152 -101 68 -135 96 -125 102 11 7 10 9 -4 9 -26 0 -305 -144 -349 -180 -20 -16 -51 -49 -70 -73 l-33 -42 57 51 c70 64 141 110 243 161 103 52 122 58 141 42 13 -10 -2 -21 -93 -64 -132 -63 -209 -111 -263 -165 l-41 -41 -82 11 c-113 15 -205 44 -255 80 -44 32 -98 107 -124 175 -17 44 -45 64 -33 24z m1050 -126 c85 -56 82 -61 -21 -40 l-61 13 21 -47 c20 -45 21 -46 24 -17 3 22 7 28 19 24 8 -3 40 -6 71 -6 54 0 60 -3 111 -48 l54 -48 -77 -57 c-42 -32 -76 -62 -76 -67 0 -13 -75 15 -132 50 -61 38 -94 38 -160 -1 -62 -37 -128 -62 -128 -49 0 5 -38 37 -85 72 l-86 63 45 41 c39 36 52 42 107 48 34 3 76 6 94 6 l32 0 -8 -47 c-13 -80 -9 -81 15 -5 13 40 30 80 38 89 11 15 11 16 -5 10 -48 -18 -205 -51 -195 -41 3 3 66 36 139 74 130 67 135 68 159 53 14 -9 61 -40 105 -70z m-207 -395 c7 -7 12 -25 12 -41 0 -42 17 -67 45 -67 14 0 25 -5 25 -11 0 -6 -10 -9 -22 -6 -78 18 -84 18 -111 -3 -27 -21 -27 -22 -10 -51 26 -44 75 -70 141 -76 52 -5 61 -3 89 21 36 30 50 75 33 107 -10 19 -18 21 -61 17 -27 -3 -46 -1 -43 4 3 5 9 30 12 55 9 62 27 72 85 44 56 -27 133 -94 153 -133 8 -16 22 -64 30 -106 8 -45 30 -108 51 -151 21 -41 46 -104 56 -140 10 -36 23 -84 29 -106 7 -22 11 -78 11 -123 -1 -73 -5 -89 -27 -121 -14 -20 -26 -44 -26 -53 0 -16 -92 -78 -116 -78 -8 0 -37 11 -64 25 -28 14 -62 24 -77 23 -16 -1 -37 3 -48 9 -26 15 -180 15 -214 1 -14 -6 -35 -10 -46 -9 -11 1 -42 -12 -68 -29 -59 -37 -73 -37 -117 -2 -19 16 -43 31 -52 35 -10 3 -18 14 -18 24 0 9 -12 34 -26 55 -23 33 -27 48 -27 120 0 46 4 101 11 123 6 22 19 69 27 105 9 36 21 73 26 83 50 94 69 142 80 202 6 39 20 86 30 106 22 44 94 110 152 138 49 24 59 25 75 9z m189 -134 c5 -16 -27 -23 -73 -14 l-39 7 35 11 c42 13 72 11 77 -4z m-38 -69 c9 -5 8 -12 -5 -26 -20 -22 -46 -24 -95 -8 -83 29 -72 53 21 47 37 -3 73 -8 79 -13z m-529 -99 c0 -14 -26 -75 -39 -90 -9 -11 -11 -16 -4 -13 8 5 11 0 10 -13 -1 -20 -17 -29 -17 -9 0 5 -5 7 -12 3 -8 -5 -9 -2 -4 12 4 10 10 33 13 49 5 30 29 65 45 65 4 0 8 -2 8 -4z m914 -18 c18 -25 21 -53 6 -43 -6 3 0 -11 12 -31 12 -21 17 -35 11 -31 -14 9 -23 -14 -17 -45 5 -23 5 -23 -6 1 -6 14 -9 30 -6 38 3 7 1 15 -4 18 -6 4 -10 12 -10 18 0 7 4 6 10 -3 6 -9 10 -10 10 -3 0 7 -6 16 -14 20 -18 10 -33 83 -18 83 6 0 18 -10 26 -22z m-980 -228 c5 -21 4 -20 -8 5 -17 34 -21 20 -6 -20 8 -20 7 -27 -6 -32 -29 -11 -38 13 -20 50 9 19 17 48 17 64 1 26 2 26 9 -7 5 -19 11 -46 14 -60z m1045 -7 c1 -46 -12 -56 -29 -22 -9 16 -8 32 2 66 11 39 14 42 19 21 4 -12 7 -42 8 -65z"/>
 <path d="M975 1860 c-4 -6 7 -10 25 -10 18 0 29 4 25 10 -3 6 -15 10 -25 10 -10 0 -22 -4 -25 -10z"/>
 <path d="M970 1181 c-33 -9 -36 -35 -11 -109 12 -34 21 -81 22 -104 1 -42 1 -42 10 -13 6 17 8 70 5 119 -4 59 -2 94 5 102 12 15 8 16 -31 5z"/>
 <path d="M680 1018 c-49 -26 -71 -103 -51 -176 6 -20 6 -30 0 -27 -20 13 -7 -12 21 -38 17 -16 30 -33 30 -38 0 -16 63 -41 109 -43 33 -1 55 5 77 21 23 17 34 19 42 11 16 -16 28 -1 16 20 -8 12 -7 25 2 47 30 70 1 167 -62 206 -44 27 -147 36 -184 17z m164 -30 c70 -36 98 -104 71 -174 -23 -61 -66 -89 -133 -89 -49 0 -57 3 -87 37 -36 38 -55 90 -55 149 0 41 13 60 55 83 32 17 110 14 149 -6z"/>
 <path d="M1144 1004 c-16 -8 -38 -28 -47 -43 -21 -36 -22 -122 -3 -160 13 -25 13 -28 -5 -39 -10 -7 -19 -19 -19 -27 0 -18 5 -18 32 -4 15 8 28 7 51 -2 46 -19 57 -20 108 -8 28 6 61 24 83 44 33 30 36 37 36 91 0 43 -6 66 -22 90 -46 67 -143 93 -214 58z m154 -21 c96 -55 77 -215 -29 -243 -79 -22 -138 10 -164 89 -33 100 16 171 117 171 26 0 60 -8 76 -17z"/>
 <path d="M1050 1996 c0 -2 48 -39 108 -82 59 -43 142 -109 186 -147 43 -37 81 -65 85 -61 10 10 -162 155 -280 234 -83 56 -99 65 -99 56z"/>
 </g>
<g id="layer109" fill="#176d95" stroke="none">
 <path d="M95 1979 c32 -110 108 -209 189 -249 45 -21 257 -62 305 -58 15 1 41 -8 58 -20 17 -12 34 -22 38 -22 4 0 16 -11 27 -26 11 -14 23 -23 25 -20 3 3 13 -5 23 -16 17 -21 17 -23 -19 -48 -60 -44 -136 -134 -149 -177 -7 -22 -15 -68 -18 -102 -6 -49 -10 -61 -25 -61 -21 0 -59 -45 -59 -70 0 -10 -20 -57 -45 -106 -46 -89 -58 -157 -34 -181 8 -8 8 -17 0 -31 -6 -11 -9 -27 -6 -34 3 -8 -1 -41 -10 -73 -8 -33 -15 -78 -15 -102 0 -43 17 -93 32 -93 4 0 8 -14 8 -31 0 -35 13 -63 45 -99 12 -14 34 -46 48 -71 26 -46 64 -79 90 -79 7 0 25 -17 38 -37 28 -44 90 -81 145 -87 21 -2 58 -11 82 -20 59 -22 247 -18 284 6 13 9 41 16 62 16 48 0 124 46 145 89 10 19 26 33 41 36 33 7 79 52 98 97 8 19 23 41 34 49 24 16 48 70 48 106 0 14 4 25 8 25 15 0 32 49 32 88 0 21 -6 63 -14 93 -14 52 -16 77 -13 210 0 48 -5 65 -32 108 -18 28 -41 77 -50 108 -13 47 -23 61 -48 73 -28 14 -31 21 -37 74 -12 120 -48 180 -157 266 l-48 38 46 41 c25 22 48 41 50 41 2 0 15 8 29 17 14 9 36 17 47 18 53 5 243 36 276 45 93 26 162 92 199 192 33 88 35 101 22 96 -7 -2 -22 -31 -34 -64 -55 -151 -117 -195 -316 -224 -72 -11 -135 -22 -141 -26 -6 -3 -38 21 -72 53 -34 33 -124 101 -201 152 -101 68 -135 96 -125 102 11 7 10 9 -4 9 -26 0 -305 -144 -349 -180 -20 -16 -51 -49 -70 -73 l-33 -42 57 51 c70 64 141 110 243 161 103 52 122 58 141 42 13 -10 -2 -21 -93 -64 -132 -63 -209 -111 -263 -165 l-41 -41 -82 11 c-113 15 -205 44 -255 80 -44 32 -98 107 -124 175 -17 44 -45 64 -33 24z m1027 -106 c55 -38 94 -69 86 -71 -8 -2 -44 3 -80 11 l-65 13 21 -47 c20 -45 21 -46 24 -17 3 22 7 28 19 24 8 -3 40 -6 71 -6 53 0 62 -4 114 -46 l58 -45 -80 -60 c-44 -32 -80 -63 -80 -69 0 -13 -74 15 -132 50 -61 38 -94 38 -160 -1 -29 -18 -68 -37 -86 -43 -32 -11 -36 -10 -70 22 -21 18 -63 51 -94 72 l-57 38 46 38 c48 39 93 52 194 53 l46 1 -8 -47 c-13 -80 -9 -81 15 -5 13 40 30 80 38 89 11 15 11 16 -5 10 -23 -9 -122 -33 -167 -41 -21 -4 -31 -3 -25 3 8 7 262 138 273 140 1 1 48 -29 104 -66z m-184 -415 c7 -7 12 -25 12 -41 0 -42 17 -67 45 -67 14 0 25 -5 25 -11 0 -10 -44 -7 -92 7 -9 3 -28 -6 -43 -19 l-28 -23 32 -36 c82 -94 235 -85 255 14 3 16 1 39 -5 50 -10 18 -18 20 -60 15 -32 -4 -47 -3 -43 4 3 5 9 31 12 56 9 62 27 72 85 44 56 -27 133 -94 153 -133 8 -16 22 -64 30 -106 8 -45 30 -108 51 -151 21 -41 46 -104 56 -140 10 -36 23 -84 29 -106 7 -22 11 -78 11 -123 -1 -73 -5 -89 -27 -121 -14 -20 -26 -44 -26 -53 0 -16 -92 -78 -116 -78 -8 0 -37 11 -64 25 -28 14 -62 24 -77 23 -16 -1 -37 3 -48 9 -26 15 -180 15 -214 1 -14 -6 -35 -10 -46 -9 -11 1 -42 -12 -68 -29 -59 -37 -73 -37 -117 -2 -19 16 -43 31 -52 35 -10 3 -18 14 -18 24 0 9 -12 34 -26 55 -23 33 -27 48 -27 120 0 46 4 101 11 123 6 22 19 69 27 105 9 36 21 73 26 83 50 94 69 142 80 202 6 39 20 86 30 106 22 44 94 110 152 138 49 24 59 25 75 9z m189 -134 c5 -16 -27 -23 -73 -14 l-39 7 35 11 c42 13 72 11 77 -4z m-37 -70 c8 -8 6 -16 -6 -29 -13 -13 -28 -16 -61 -12 -48 5 -97 32 -87 48 8 14 140 7 154 -7z m-530 -98 c0 -14 -26 -75 -39 -90 -9 -11 -11 -16 -4 -13 8 5 11 0 10 -13 -1 -20 -17 -29 -17 -9 0 5 -5 7 -12 3 -8 -5 -9 -2 -4 12 4 10 10 33 13 49 5 30 29 65 45 65 4 0 8 -2 8 -4z m914 -18 c18 -25 21 -53 6 -43 -6 3 0 -11 12 -31 12 -21 17 -35 11 -31 -14 9 -23 -14 -17 -45 5 -23 5 -23 -6 1 -6 14 -9 30 -6 38 3 7 1 15 -4 18 -6 4 -10 12 -10 18 0 7 4 6 10 -3 6 -9 10 -10 10 -3 0 7 -6 16 -14 20 -18 10 -33 83 -18 83 6 0 18 -10 26 -22z m-980 -228 c5 -21 4 -20 -8 5 -17 34 -21 20 -6 -20 8 -20 7 -27 -6 -32 -29 -11 -38 13 -20 50 9 19 17 48 17 64 1 26 2 26 9 -7 5 -19 11 -46 14 -60z m1045 -7 c1 -46 -12 -56 -29 -22 -9 16 -8 32 2 66 11 39 14 42 19 21 4 -12 7 -42 8 -65z"/>
 <path d="M975 1860 c-4 -6 7 -10 25 -10 18 0 29 4 25 10 -3 6 -15 10 -25 10 -10 0 -22 -4 -25 -10z"/>
 <path d="M970 1181 c-33 -9 -36 -35 -11 -109 12 -34 21 -81 22 -104 1 -42 1 -42 10 -13 6 17 8 70 5 119 -4 59 -2 94 5 102 12 15 8 16 -31 5z"/>
 <path d="M674 1011 c-50 -31 -66 -111 -37 -187 4 -12 3 -15 -5 -10 -27 16 -8 -12 37 -57 66 -66 115 -78 182 -43 34 17 50 21 58 13 15 -15 27 1 15 21 -8 12 -7 25 2 47 28 64 11 137 -44 188 -50 48 -153 61 -208 28z m138 -11 c118 -33 151 -154 67 -242 -37 -40 -40 -40 -94 -36 -62 5 -94 28 -126 90 -22 43 -25 126 -6 150 17 23 68 47 97 48 14 0 42 -5 62 -10z"/>
 <path d="M1155 1010 c-11 -4 -31 -20 -44 -34 -31 -33 -40 -115 -18 -167 14 -33 13 -37 -4 -47 -11 -7 -19 -19 -19 -27 0 -18 5 -18 32 -4 15 8 28 7 51 -2 66 -27 133 -13 190 40 34 32 37 39 37 91 0 48 -4 61 -32 94 -17 21 -46 45 -64 52 -37 15 -98 17 -129 4z m145 -26 c41 -21 74 -90 65 -137 -15 -71 -71 -117 -143 -117 -36 0 -50 6 -77 33 -70 70 -66 197 8 227 36 14 112 11 147 -6z"/>
 <path d="M1050 1996 c0 -2 48 -39 108 -82 59 -43 142 -109 186 -147 43 -37 81 -65 85 -61 10 10 -162 155 -280 234 -83 56 -99 65 -99 56z"/>
 </g>
<g id="layer110" fill="#865038" stroke="none">
 <path d="M95 1978 c32 -109 108 -208 189 -248 45 -21 257 -62 305 -58 15 1 41 -8 58 -20 17 -12 34 -22 38 -22 4 0 16 -11 27 -26 11 -14 23 -23 25 -20 3 3 13 -5 23 -16 17 -21 17 -23 -19 -48 -60 -44 -136 -134 -149 -177 -7 -22 -15 -68 -18 -102 -6 -49 -10 -61 -25 -61 -21 0 -59 -45 -59 -70 0 -10 -20 -57 -45 -106 -46 -89 -58 -157 -34 -181 8 -8 8 -17 0 -31 -6 -11 -9 -27 -6 -34 3 -8 -1 -41 -10 -73 -8 -33 -15 -78 -15 -102 0 -43 17 -93 32 -93 4 0 8 -14 8 -31 0 -35 13 -63 45 -99 12 -14 34 -46 48 -71 26 -46 64 -79 90 -79 7 0 25 -17 38 -37 28 -44 90 -81 145 -87 21 -2 58 -11 82 -20 59 -22 247 -18 284 6 13 9 41 16 62 16 48 0 124 46 145 89 10 19 26 33 41 36 33 7 79 52 98 97 8 19 23 41 34 49 24 16 48 70 48 106 0 14 4 25 8 25 15 0 32 49 32 88 0 21 -6 63 -14 93 -14 52 -16 77 -13 210 0 48 -5 65 -32 108 -18 28 -41 77 -50 108 -13 47 -23 61 -48 73 -28 14 -31 21 -37 74 -12 120 -48 180 -157 266 l-48 38 46 41 c25 22 48 41 50 41 2 0 15 8 29 17 14 9 36 17 47 18 53 5 243 36 276 45 93 26 162 92 199 192 33 88 35 101 22 96 -7 -2 -23 -32 -35 -66 -40 -111 -98 -173 -185 -201 -19 -6 -78 -17 -130 -24 l-95 -13 -76 71 c-79 73 -306 241 -315 233 -2 -3 8 -13 23 -23 55 -36 229 -169 292 -224 58 -51 61 -56 43 -64 -17 -8 -33 1 -94 57 -40 37 -129 104 -198 149 -69 45 -124 88 -123 95 2 6 0 12 -3 12 -3 0 -72 -32 -152 -72 -130 -64 -155 -81 -222 -146 -73 -72 -73 -73 -9 -16 70 63 182 133 291 182 57 26 69 28 85 17 10 -7 16 -15 13 -18 -3 -2 -61 -32 -130 -65 -128 -63 -236 -135 -263 -176 -14 -21 -20 -23 -54 -15 -21 4 -78 15 -127 24 -108 20 -172 51 -220 107 -33 38 -73 111 -90 161 -8 26 -29 21 -21 -5z m1027 -105 c55 -38 94 -69 86 -71 -8 -2 -44 3 -80 11 l-65 13 21 -47 c20 -45 21 -46 24 -17 3 22 7 28 19 24 8 -3 40 -6 71 -6 53 0 62 -4 114 -46 l58 -45 -80 -60 c-44 -32 -80 -63 -80 -69 0 -13 -74 15 -132 50 -61 38 -94 38 -160 -1 -29 -18 -68 -37 -86 -43 -32 -11 -36 -10 -70 22 -21 18 -63 51 -94 72 l-57 38 46 38 c48 39 93 52 194 53 l46 1 -8 -47 c-13 -80 -9 -81 15 -5 13 40 30 80 38 89 11 15 11 16 -5 10 -23 -9 -122 -33 -167 -41 -21 -4 -31 -3 -25 3 8 7 262 138 273 140 1 1 48 -29 104 -66z m-184 -415 c7 -7 12 -25 12 -41 0 -42 17 -67 45 -67 14 0 25 -5 25 -11 0 -10 -44 -7 -92 7 -9 3 -28 -6 -43 -19 l-28 -23 32 -36 c82 -94 235 -85 255 14 3 16 1 39 -5 50 -10 18 -18 20 -60 15 -32 -4 -47 -3 -43 4 3 5 9 31 12 56 9 62 27 72 85 44 56 -27 133 -94 153 -133 8 -16 22 -64 30 -106 8 -45 30 -108 51 -151 21 -41 46 -104 56 -140 10 -36 23 -84 29 -106 7 -22 11 -78 11 -123 -1 -73 -5 -89 -27 -121 -14 -20 -26 -44 -26 -53 0 -16 -92 -78 -116 -78 -8 0 -37 11 -64 25 -28 14 -62 24 -77 23 -16 -1 -37 3 -48 9 -26 15 -180 15 -214 1 -14 -6 -35 -10 -46 -9 -11 1 -42 -12 -68 -29 -59 -37 -73 -37 -117 -2 -19 16 -43 31 -52 35 -10 3 -18 14 -18 24 0 9 -12 34 -26 55 -23 33 -27 48 -27 120 0 46 4 101 11 123 6 22 19 69 27 105 9 36 21 73 26 83 50 94 69 142 80 202 6 39 20 86 30 106 22 44 94 110 152 138 49 24 59 25 75 9z m189 -134 c5 -16 -27 -23 -73 -14 l-39 7 35 11 c42 13 72 11 77 -4z m-37 -70 c8 -8 6 -16 -6 -29 -13 -13 -28 -16 -61 -12 -48 5 -97 32 -87 48 8 14 140 7 154 -7z m-530 -98 c0 -14 -26 -75 -39 -90 -9 -11 -11 -16 -4 -13 8 5 11 0 10 -13 -1 -20 -17 -29 -17 -9 0 5 -5 7 -12 3 -8 -5 -9 -2 -4 12 4 10 10 33 13 49 5 30 29 65 45 65 4 0 8 -2 8 -4z m914 -18 c18 -25 21 -53 6 -43 -6 3 0 -11 12 -31 12 -21 17 -35 11 -31 -14 9 -23 -14 -17 -45 5 -23 5 -23 -6 1 -6 14 -9 30 -6 38 3 7 1 15 -4 18 -6 4 -10 12 -10 18 0 7 4 6 10 -3 6 -9 10 -10 10 -3 0 7 -6 16 -14 20 -18 10 -33 83 -18 83 6 0 18 -10 26 -22z m-980 -228 c5 -21 4 -20 -8 5 -17 34 -21 20 -6 -20 8 -20 7 -27 -6 -32 -29 -11 -38 13 -20 50 9 19 17 48 17 64 1 26 2 26 9 -7 5 -19 11 -46 14 -60z m1045 -7 c1 -46 -12 -56 -29 -22 -9 16 -8 32 2 66 11 39 14 42 19 21 4 -12 7 -42 8 -65z"/>
 <path d="M975 1860 c-4 -6 7 -10 25 -10 18 0 29 4 25 10 -3 6 -15 10 -25 10 -10 0 -22 -4 -25 -10z"/>
 <path d="M970 1181 c-33 -9 -36 -35 -11 -109 12 -34 21 -81 22 -104 1 -42 1 -42 10 -13 6 17 8 70 5 119 -4 59 -2 94 5 102 12 15 8 16 -31 5z"/>
 <path d="M674 1011 c-50 -31 -66 -111 -37 -187 4 -12 3 -15 -5 -10 -27 16 -8 -12 37 -57 66 -66 115 -78 182 -43 34 17 50 21 58 13 15 -15 27 1 15 21 -8 12 -7 25 2 47 28 64 11 137 -44 188 -50 48 -153 61 -208 28z m138 -11 c118 -33 151 -154 67 -242 -37 -40 -40 -40 -94 -36 -62 5 -94 28 -126 90 -22 43 -25 126 -6 150 17 23 68 47 97 48 14 0 42 -5 62 -10z"/>
 <path d="M1155 1010 c-11 -4 -31 -20 -44 -34 -31 -33 -40 -115 -18 -167 14 -33 13 -37 -4 -47 -11 -7 -19 -19 -19 -27 0 -18 5 -18 32 -4 15 8 28 7 51 -2 66 -27 133 -13 190 40 34 32 37 39 37 91 0 48 -4 61 -32 94 -17 21 -46 45 -64 52 -37 15 -98 17 -129 4z m145 -26 c41 -21 74 -90 65 -137 -15 -71 -71 -117 -143 -117 -36 0 -50 6 -77 33 -70 70 -66 197 8 227 36 14 112 11 147 -6z"/>
 </g>
<g id="layer111" fill="#106288" stroke="none">
 <path d="M95 1978 c32 -109 108 -208 189 -248 47 -22 250 -60 312 -58 21 1 40 -4 42 -10 2 -7 10 -12 17 -12 7 0 15 -5 17 -11 2 -7 10 -10 17 -8 8 3 -6 17 -33 36 l-47 30 41 33 c73 58 112 82 243 147 l127 63 78 -51 c85 -57 259 -187 267 -199 2 -4 -17 -21 -44 -38 -59 -39 -81 -62 -57 -62 9 0 21 9 28 20 7 11 16 20 21 20 4 0 19 8 33 17 14 9 36 17 47 18 53 5 243 36 276 45 93 26 162 92 199 192 33 88 35 101 22 96 -7 -2 -23 -32 -35 -66 -40 -111 -98 -173 -185 -201 -19 -6 -78 -17 -130 -24 l-95 -13 -76 71 c-79 73 -306 241 -315 233 -2 -3 8 -13 23 -23 55 -36 229 -169 292 -224 58 -51 61 -56 43 -64 -17 -8 -33 1 -94 57 -40 37 -129 104 -198 149 -69 45 -124 88 -123 95 2 6 0 12 -3 12 -3 0 -72 -32 -152 -72 -130 -64 -155 -81 -222 -146 -73 -72 -73 -73 -9 -16 70 63 182 133 291 182 57 26 69 28 85 17 10 -7 16 -15 13 -18 -3 -2 -61 -32 -130 -65 -128 -63 -236 -135 -263 -176 -14 -21 -20 -23 -54 -15 -21 4 -78 15 -127 24 -108 20 -172 51 -220 107 -33 38 -73 111 -90 161 -8 26 -29 21 -21 -5z"/>
 <path d="M710 1611 c0 -13 26 -32 33 -24 8 7 -11 33 -24 33 -5 0 -9 -4 -9 -9z"/>
 <path d="M875 1576 c-27 -7 -57 -16 -66 -20 -10 -5 -19 -1 -22 8 -4 9 -14 16 -23 16 -16 0 -16 -1 -1 -18 15 -17 15 -19 -12 -35 -15 -9 -55 -45 -87 -80 -64 -68 -80 -104 -90 -206 -6 -49 -10 -61 -25 -61 -21 0 -59 -45 -59 -70 0 -10 -20 -57 -45 -106 -46 -89 -58 -157 -34 -181 8 -8 8 -17 0 -31 -6 -11 -9 -27 -6 -34 3 -8 -1 -41 -10 -73 -8 -33 -15 -78 -15 -102 0 -43 17 -93 32 -93 4 0 8 -14 8 -31 0 -35 13 -63 45 -99 12 -14 34 -46 48 -71 26 -46 64 -79 90 -79 7 0 25 -17 38 -37 28 -44 90 -81 145 -87 21 -2 58 -11 82 -20 59 -22 247 -18 284 6 13 9 41 16 62 16 48 0 124 46 145 89 10 19 26 33 41 36 33 7 79 52 98 97 8 19 23 41 34 49 24 16 48 70 48 106 0 14 4 25 8 25 15 0 32 49 32 88 0 21 -6 62 -14 92 -8 30 -16 78 -18 105 -2 28 -7 56 -11 62 -6 9 -3 11 9 6 29 -11 11 89 -27 148 -17 27 -39 75 -48 106 -13 47 -23 61 -48 73 -28 14 -31 21 -37 74 -12 120 -48 180 -157 266 -35 28 -45 40 -36 49 6 6 7 14 3 18 -4 5 -13 0 -20 -9 -11 -16 -16 -16 -57 -1 -59 21 -220 26 -284 9z m75 -156 c7 -59 15 -70 50 -70 32 0 50 23 50 64 0 36 10 56 29 56 53 -1 192 -105 213 -160 5 -14 16 -59 25 -100 8 -41 32 -109 52 -150 21 -41 45 -104 55 -140 9 -36 22 -83 28 -105 7 -22 11 -78 11 -123 -1 -73 -5 -89 -27 -121 -14 -20 -26 -44 -26 -52 0 -18 -89 -79 -114 -79 -9 0 -39 12 -67 26 -28 14 -60 24 -72 23 -12 -2 -38 2 -57 8 -46 15 -178 15 -204 1 -12 -7 -33 -11 -47 -10 -15 1 -45 -11 -70 -28 -24 -16 -52 -30 -61 -30 -27 0 -128 72 -128 91 0 10 -12 32 -26 49 -25 29 -27 39 -27 118 1 103 5 139 22 169 6 12 16 46 21 75 6 29 28 89 50 133 25 49 46 111 55 159 16 86 44 137 97 176 60 44 113 70 138 68 22 -3 26 -9 30 -48z m-393 -274 c-3 -8 -13 -50 -23 -95 -9 -44 -21 -78 -27 -74 -5 3 -7 19 -4 36 4 28 3 29 -10 11 -14 -18 -13 -34 2 -110 7 -34 -14 -60 -40 -50 -19 7 -19 36 0 72 8 16 15 37 15 47 0 10 6 30 14 45 7 15 16 42 20 61 6 35 31 71 49 71 5 0 7 -6 4 -14z m929 -32 c11 -21 19 -44 17 -51 -3 -6 2 -24 10 -40 8 -15 18 -48 22 -73 4 -25 11 -50 16 -56 6 -7 3 -16 -7 -25 -14 -11 -19 -10 -34 9 -17 21 -17 25 -3 62 14 34 14 44 2 72 l-14 33 -5 -40 c-5 -39 -6 -37 -28 47 -12 48 -22 92 -22 98 0 23 25 3 46 -36z"/>
 <path d="M884 1327 l-27 -23 32 -36 c82 -94 235 -85 255 14 3 16 1 39 -5 50 -10 18 -17 20 -63 13 -69 -10 -95 -11 -133 -3 -26 6 -38 3 -59 -15z m242 2 c13 -21 -14 -32 -63 -24 l-48 8 30 13 c37 16 72 18 81 3z m-36 -75 c8 -8 6 -16 -6 -29 -13 -13 -28 -16 -61 -12 -48 5 -97 32 -87 48 8 14 140 7 154 -7z"/>
 <path d="M964 1166 c-18 -14 -19 -16 -1 -64 9 -27 17 -72 18 -98 0 -37 3 -44 9 -29 11 27 12 112 1 119 -4 3 -5 24 -1 46 8 43 4 47 -26 26z"/>
 <path d="M674 1011 c-50 -31 -66 -111 -37 -187 4 -12 3 -15 -5 -10 -27 16 -8 -12 37 -57 66 -66 115 -78 182 -43 34 17 50 21 58 13 15 -15 27 1 15 21 -8 12 -7 25 2 47 28 64 11 137 -44 188 -50 48 -153 61 -208 28z m138 -11 c118 -33 151 -154 67 -242 -37 -40 -40 -40 -94 -36 -62 5 -94 28 -126 90 -22 43 -25 126 -6 150 17 23 68 47 97 48 14 0 42 -5 62 -10z"/>
 <path d="M1155 1010 c-11 -4 -31 -20 -44 -34 -31 -33 -40 -115 -18 -167 14 -33 13 -37 -4 -47 -11 -7 -19 -19 -19 -27 0 -17 16 -20 26 -4 3 6 16 9 28 6 11 -3 40 -10 63 -16 52 -14 114 6 160 51 30 29 33 38 33 88 0 48 -4 61 -32 94 -17 21 -46 45 -64 52 -37 15 -98 17 -129 4z m145 -26 c41 -21 74 -90 65 -137 -15 -71 -71 -117 -143 -117 -36 0 -50 6 -77 33 -70 70 -66 197 8 227 36 14 112 11 147 -6z"/>
 </g>
<g id="layer112" fill="#33586a" stroke="none">
 <path d="M95 1978 c24 -81 96 -198 121 -198 7 0 14 -6 17 -14 9 -24 94 -57 179 -71 111 -18 123 -6 17 15 -46 10 -103 25 -126 35 -58 23 -134 108 -169 189 -27 63 -53 91 -39 44z"/>
 <path d="M1869 1963 c-19 -59 -56 -129 -89 -166 -40 -46 -108 -74 -219 -88 -62 -9 -87 -16 -76 -21 9 -6 52 -3 107 7 177 30 244 93 302 283 4 12 3 22 -3 22 -5 0 -15 -17 -22 -37z"/>
 <path d="M950 1979 c-12 -9 -12 -10 4 -5 11 4 26 0 37 -10 17 -16 10 -21 -132 -91 -116 -58 -164 -88 -212 -133 -52 -49 -67 -57 -90 -53 -16 3 -27 1 -27 -6 0 -7 19 -11 52 -10 32 2 53 -2 56 -9 2 -7 10 -12 17 -12 7 0 15 -5 17 -11 2 -7 10 -10 17 -8 8 3 -6 17 -33 36 l-47 30 41 33 c73 58 112 82 243 147 l127 63 78 -51 c85 -57 259 -187 267 -199 2 -4 -17 -21 -44 -38 -59 -39 -81 -62 -57 -62 9 0 21 9 28 20 7 11 16 20 21 20 4 0 19 7 33 16 14 9 41 18 61 20 20 2 41 9 47 15 8 9 1 10 -27 5 -36 -7 -41 -4 -99 49 -44 41 -350 256 -362 255 0 0 -8 -5 -16 -11z"/>
 <path d="M1100 1966 c0 -2 14 -14 30 -26 17 -12 30 -19 30 -16 0 2 -13 14 -30 26 -16 12 -30 19 -30 16z"/>
 <path d="M1200 1893 c19 -15 76 -63 127 -105 51 -43 93 -76 93 -73 0 8 -157 139 -206 173 -37 25 -41 26 -14 5z"/>
 <path d="M695 1846 c-28 -18 -57 -42 -65 -51 -8 -10 5 -3 30 16 25 19 57 42 70 51 14 9 23 17 20 17 -3 1 -28 -14 -55 -33z"/>
 <path d="M710 1611 c0 -13 26 -32 33 -24 8 7 -11 33 -24 33 -5 0 -9 -4 -9 -9z"/>
 <path d="M875 1576 c-27 -7 -57 -16 -66 -20 -10 -5 -19 -1 -22 8 -4 9 -14 16 -23 16 -16 0 -16 -1 -1 -18 15 -17 15 -19 -12 -35 -15 -9 -55 -45 -87 -80 -64 -68 -80 -104 -90 -206 -6 -49 -10 -61 -25 -61 -21 0 -59 -45 -59 -70 0 -10 -20 -57 -45 -106 -46 -89 -58 -157 -34 -181 8 -8 8 -17 0 -31 -6 -11 -9 -27 -6 -34 3 -8 -1 -41 -10 -73 -8 -33 -15 -78 -15 -102 0 -43 17 -93 32 -93 4 0 8 -14 8 -31 0 -35 13 -63 45 -99 12 -14 34 -46 48 -71 26 -46 64 -79 90 -79 7 0 25 -17 38 -37 28 -44 90 -81 145 -87 21 -2 58 -11 82 -20 59 -22 247 -18 284 6 13 9 41 16 62 16 48 0 124 46 145 89 10 19 26 33 41 36 33 7 79 52 98 97 8 19 23 41 34 49 24 16 48 70 48 106 0 14 4 25 8 25 15 0 32 49 32 88 0 21 -6 62 -14 92 -8 30 -16 78 -18 105 -2 28 -7 56 -11 62 -6 9 -3 11 9 6 29 -11 11 89 -27 148 -17 27 -39 75 -48 106 -13 47 -23 61 -48 73 -28 14 -31 21 -37 74 -12 120 -48 180 -157 266 -35 28 -45 40 -36 49 6 6 7 14 3 18 -4 5 -13 0 -20 -9 -11 -16 -16 -16 -57 -1 -59 21 -220 26 -284 9z m75 -156 c7 -59 15 -70 50 -70 32 0 50 23 50 64 0 36 10 56 29 56 53 -1 192 -105 213 -160 5 -14 16 -59 25 -100 8 -41 32 -109 52 -150 21 -41 45 -104 55 -140 9 -36 22 -83 28 -105 7 -22 11 -78 11 -123 -1 -73 -5 -89 -27 -121 -14 -20 -26 -44 -26 -52 0 -18 -89 -79 -114 -79 -9 0 -39 12 -67 26 -28 14 -60 24 -72 23 -12 -2 -38 2 -57 8 -46 15 -178 15 -204 1 -12 -7 -33 -11 -47 -10 -15 1 -45 -11 -70 -28 -24 -16 -52 -30 -61 -30 -27 0 -128 72 -128 91 0 10 -12 32 -26 49 -25 29 -27 39 -27 118 1 103 5 139 22 169 6 12 16 46 21 75 6 29 28 89 50 133 25 49 46 111 55 159 16 86 44 137 97 176 60 44 113 70 138 68 22 -3 26 -9 30 -48z m-393 -274 c-3 -8 -13 -50 -23 -95 -9 -44 -21 -78 -27 -74 -5 3 -7 19 -4 36 4 28 3 29 -10 11 -14 -18 -13 -34 2 -110 7 -34 -14 -60 -40 -50 -19 7 -19 36 0 72 8 16 15 37 15 47 0 10 6 30 14 45 7 15 16 42 20 61 6 35 31 71 49 71 5 0 7 -6 4 -14z m929 -32 c11 -21 19 -44 17 -51 -3 -6 2 -24 10 -40 8 -15 18 -48 22 -73 4 -25 11 -50 16 -56 6 -7 3 -16 -7 -25 -14 -11 -19 -10 -34 9 -17 21 -17 25 -3 62 14 34 14 44 2 72 l-14 33 -5 -40 c-5 -39 -6 -37 -28 47 -12 48 -22 92 -22 98 0 23 25 3 46 -36z"/>
 <path d="M884 1327 l-27 -23 32 -36 c82 -94 235 -85 255 14 3 16 1 39 -5 50 -10 18 -17 20 -63 13 -69 -10 -95 -11 -133 -3 -26 6 -38 3 -59 -15z m242 2 c13 -21 -14 -32 -63 -24 l-48 8 30 13 c37 16 72 18 81 3z m-36 -75 c8 -8 6 -16 -6 -29 -13 -13 -28 -16 -61 -12 -48 5 -97 32 -87 48 8 14 140 7 154 -7z"/>
 <path d="M964 1166 c-18 -14 -19 -16 -1 -64 9 -27 17 -72 18 -98 0 -37 3 -44 9 -29 11 27 12 112 1 119 -4 3 -5 24 -1 46 8 43 4 47 -26 26z"/>
 <path d="M674 1011 c-50 -31 -66 -111 -37 -187 4 -12 3 -15 -5 -10 -27 16 -8 -12 37 -57 66 -66 115 -78 182 -43 34 17 50 21 58 13 15 -15 27 1 15 21 -8 12 -7 25 2 47 28 64 11 137 -44 188 -50 48 -153 61 -208 28z m138 -11 c118 -33 151 -154 67 -242 -37 -40 -40 -40 -94 -36 -62 5 -94 28 -126 90 -22 43 -25 126 -6 150 17 23 68 47 97 48 14 0 42 -5 62 -10z"/>
 <path d="M1155 1010 c-11 -4 -31 -20 -44 -34 -31 -33 -40 -115 -18 -167 14 -33 13 -37 -4 -47 -11 -7 -19 -19 -19 -27 0 -17 16 -20 26 -4 3 6 16 9 28 6 11 -3 40 -10 63 -16 52 -14 114 6 160 51 30 29 33 38 33 88 0 48 -4 61 -32 94 -17 21 -46 45 -64 52 -37 15 -98 17 -129 4z m145 -26 c41 -21 74 -90 65 -137 -15 -71 -71 -117 -143 -117 -36 0 -50 6 -77 33 -70 70 -66 197 8 227 36 14 112 11 147 -6z"/>
 </g>
<g id="layer113" fill="#774934" stroke="none">
 <path d="M95 1978 c24 -81 96 -198 121 -198 7 0 14 -6 17 -14 9 -24 94 -57 179 -71 111 -18 123 -6 17 15 -46 10 -103 25 -126 35 -58 23 -134 108 -169 189 -27 63 -53 91 -39 44z"/>
 <path d="M1869 1963 c-19 -59 -56 -129 -89 -166 -40 -46 -108 -74 -219 -88 -62 -9 -87 -16 -76 -21 9 -6 52 -3 107 7 177 30 244 93 302 283 4 12 3 22 -3 22 -5 0 -15 -17 -22 -37z"/>
 <path d="M950 1979 c-12 -9 -12 -10 4 -5 11 4 26 0 35 -8 9 -8 63 -46 121 -84 58 -38 116 -78 128 -88 13 -11 49 -39 80 -63 49 -40 53 -46 38 -55 -54 -32 -108 -80 -96 -84 7 -3 21 5 31 17 9 11 20 21 23 21 4 0 18 7 32 16 14 9 41 18 61 20 20 2 41 9 47 15 8 9 1 10 -27 5 -36 -7 -41 -4 -99 49 -44 41 -350 256 -362 255 0 0 -8 -5 -16 -11z"/>
 <path d="M1100 1966 c0 -2 14 -14 30 -26 17 -12 30 -19 30 -16 0 2 -13 14 -30 26 -16 12 -30 19 -30 16z"/>
 <path d="M825 1857 c-80 -41 -139 -81 -180 -119 -50 -47 -65 -55 -88 -51 -16 3 -27 1 -27 -6 0 -7 19 -11 52 -10 32 2 53 -2 56 -9 2 -7 10 -12 17 -12 7 0 15 -5 17 -11 2 -7 10 -10 17 -8 8 3 -6 17 -33 36 l-48 30 49 42 c26 22 53 41 60 41 6 0 13 4 15 10 2 5 55 36 118 69 63 34 111 61 105 60 -5 0 -64 -28 -130 -62z"/>
 <path d="M1200 1893 c19 -15 76 -63 127 -105 51 -43 93 -76 93 -73 0 8 -157 139 -206 173 -37 25 -41 26 -14 5z"/>
 <path d="M695 1846 c-28 -18 -57 -42 -65 -51 -8 -10 5 -3 30 16 25 19 57 42 70 51 14 9 23 17 20 17 -3 1 -28 -14 -55 -33z"/>
 <path d="M710 1611 c0 -13 26 -32 33 -24 8 7 -11 33 -24 33 -5 0 -9 -4 -9 -9z"/>
 <path d="M875 1576 c-27 -7 -57 -16 -66 -20 -10 -5 -19 -1 -22 8 -4 9 -14 16 -23 16 -16 0 -16 -1 -1 -18 15 -17 15 -19 -12 -35 -15 -9 -55 -45 -87 -80 -64 -68 -80 -104 -90 -206 -6 -49 -10 -61 -25 -61 -21 0 -59 -45 -59 -70 0 -10 -20 -57 -45 -106 -46 -89 -58 -157 -34 -181 8 -8 8 -17 0 -31 -6 -11 -9 -27 -6 -34 3 -8 -1 -41 -10 -73 -8 -33 -15 -78 -15 -102 0 -43 17 -93 32 -93 4 0 8 -14 8 -31 0 -35 13 -63 45 -99 12 -14 34 -46 48 -71 26 -46 64 -79 90 -79 7 0 25 -17 38 -37 28 -44 90 -81 145 -87 21 -2 58 -11 82 -20 59 -22 247 -18 284 6 13 9 41 16 62 16 48 0 124 46 145 89 10 19 26 33 41 36 33 7 79 52 98 97 8 19 23 41 34 49 24 16 48 70 48 106 0 14 4 25 8 25 15 0 32 49 32 88 0 21 -6 62 -14 92 -8 30 -16 78 -18 105 -2 28 -7 56 -11 62 -6 9 -3 11 9 6 29 -11 11 89 -27 148 -17 27 -39 75 -48 106 -13 47 -23 61 -48 73 -28 14 -31 21 -37 74 -12 120 -48 180 -157 266 -35 28 -45 40 -36 49 6 6 7 14 3 18 -4 5 -13 0 -20 -9 -11 -16 -16 -16 -57 -1 -59 21 -220 26 -284 9z m75 -156 c7 -59 15 -70 50 -70 32 0 50 23 50 64 0 36 10 56 29 56 53 -1 192 -105 213 -160 5 -14 16 -59 25 -100 8 -41 32 -109 52 -150 21 -41 45 -104 55 -140 9 -36 22 -83 28 -105 7 -22 11 -78 11 -123 -1 -73 -5 -89 -27 -121 -14 -20 -26 -44 -26 -52 0 -18 -89 -79 -114 -79 -9 0 -39 12 -67 26 -28 14 -60 24 -72 23 -12 -2 -38 2 -57 8 -46 15 -178 15 -204 1 -12 -7 -33 -11 -47 -10 -15 1 -45 -11 -70 -28 -24 -16 -52 -30 -61 -30 -27 0 -128 72 -128 91 0 10 -12 32 -26 49 -25 29 -27 39 -27 118 1 103 5 139 22 169 6 12 16 46 21 75 6 29 28 89 50 133 25 49 46 111 55 159 16 86 44 137 97 176 60 44 113 70 138 68 22 -3 26 -9 30 -48z m-393 -274 c-3 -8 -13 -50 -23 -95 -9 -44 -21 -78 -27 -74 -5 3 -7 19 -4 36 4 28 3 29 -10 11 -14 -18 -13 -34 2 -110 7 -34 -14 -60 -40 -50 -19 7 -19 36 0 72 8 16 15 37 15 47 0 10 6 30 14 45 7 15 16 42 20 61 6 35 31 71 49 71 5 0 7 -6 4 -14z m929 -32 c11 -21 19 -44 17 -51 -3 -6 2 -24 10 -40 8 -15 18 -48 22 -73 4 -25 11 -50 16 -56 6 -7 3 -16 -7 -25 -14 -11 -19 -10 -34 9 -17 21 -17 25 -3 62 14 34 14 44 2 72 l-14 33 -5 -40 c-5 -39 -6 -37 -28 47 -12 48 -22 92 -22 98 0 23 25 3 46 -36z"/>
 <path d="M884 1327 l-27 -23 32 -36 c82 -94 235 -85 255 14 3 16 1 39 -5 50 -10 18 -17 20 -63 13 -69 -10 -95 -11 -133 -3 -26 6 -38 3 -59 -15z m242 2 c13 -21 -14 -32 -63 -24 l-48 8 30 13 c37 16 72 18 81 3z m-36 -75 c8 -8 6 -16 -6 -29 -13 -13 -28 -16 -61 -12 -48 5 -97 32 -87 48 8 14 140 7 154 -7z"/>
 <path d="M964 1166 c-18 -14 -19 -16 -1 -64 9 -27 17 -72 18 -98 0 -37 3 -44 9 -29 11 27 12 112 1 119 -4 3 -5 24 -1 46 8 43 4 47 -26 26z"/>
 <path d="M674 1011 c-50 -31 -66 -111 -37 -187 4 -12 3 -15 -5 -10 -27 16 -8 -12 37 -57 66 -66 115 -78 182 -43 34 17 50 21 58 13 15 -15 27 1 15 21 -8 12 -7 25 2 47 28 64 11 137 -44 188 -50 48 -153 61 -208 28z m138 -11 c118 -33 151 -154 67 -242 -37 -40 -40 -40 -94 -36 -62 5 -94 28 -126 90 -22 43 -25 126 -6 150 17 23 68 47 97 48 14 0 42 -5 62 -10z"/>
 <path d="M1155 1010 c-11 -4 -31 -20 -44 -34 -31 -33 -40 -115 -18 -167 14 -33 13 -37 -4 -47 -11 -7 -19 -19 -19 -27 0 -17 16 -20 26 -4 3 6 16 9 28 6 11 -3 40 -10 63 -16 52 -14 114 6 160 51 30 29 33 38 33 88 0 48 -4 61 -32 94 -17 21 -46 45 -64 52 -37 15 -98 17 -129 4z m145 -26 c41 -21 74 -90 65 -137 -15 -71 -71 -117 -143 -117 -36 0 -50 6 -77 33 -70 70 -66 197 8 227 36 14 112 11 147 -6z"/>
 </g>
<g id="layer114" fill="#932526" stroke="none">
 <path d="M95 1978 c24 -81 96 -198 121 -198 7 0 14 -6 17 -14 9 -24 94 -57 179 -71 111 -18 123 -6 17 15 -46 10 -103 25 -126 35 -58 23 -134 108 -169 189 -27 63 -53 91 -39 44z"/>
 <path d="M1869 1963 c-19 -59 -56 -129 -89 -166 -40 -46 -108 -74 -219 -88 -62 -9 -87 -16 -76 -21 9 -6 52 -3 107 7 177 30 244 93 302 283 4 12 3 22 -3 22 -5 0 -15 -17 -22 -37z"/>
 <path d="M950 1979 c-12 -9 -12 -10 4 -5 11 4 26 0 35 -8 9 -8 63 -46 121 -84 58 -38 116 -78 128 -88 13 -11 49 -39 79 -63 61 -48 61 -42 -2 -86 -18 -12 -18 -14 -2 -14 9 -1 17 3 17 8 0 10 31 21 79 26 19 3 39 10 45 16 8 9 1 10 -27 5 -36 -7 -41 -4 -99 49 -44 41 -350 256 -362 255 0 0 -8 -5 -16 -11z"/>
 <path d="M1100 1966 c0 -2 14 -14 30 -26 17 -12 30 -19 30 -16 0 2 -13 14 -30 26 -16 12 -30 19 -30 16z"/>
 <path d="M825 1857 c-80 -41 -139 -81 -180 -119 -50 -47 -65 -55 -88 -51 -17 3 -27 1 -27 -6 0 -8 16 -11 45 -10 32 2 44 7 41 16 -5 13 81 93 101 93 6 0 13 4 15 10 2 5 55 36 118 69 63 34 111 61 105 60 -5 0 -64 -28 -130 -62z"/>
 <path d="M1200 1893 c19 -15 76 -63 127 -105 51 -43 93 -76 93 -73 0 8 -157 139 -206 173 -37 25 -41 26 -14 5z"/>
 <path d="M695 1846 c-28 -18 -57 -42 -65 -51 -8 -10 5 -3 30 16 25 19 57 42 70 51 14 9 23 17 20 17 -3 1 -28 -14 -55 -33z"/>
 <path d="M640 1660 c0 -5 7 -10 15 -10 8 0 15 -4 15 -10 0 -5 8 -10 18 -10 14 0 12 4 -8 20 -28 22 -40 25 -40 10z"/>
 <path d="M722 1601 c2 -7 7 -12 11 -12 12 1 9 15 -3 20 -7 2 -11 -2 -8 -8z"/>
 <path d="M870 1574 c-90 -24 -135 -51 -202 -122 -68 -73 -84 -107 -94 -211 -6 -53 -10 -61 -28 -61 -20 -1 -20 -1 -3 -14 17 -13 16 -18 -5 -105 -21 -86 -38 -117 -38 -69 0 16 -3 19 -11 11 -8 -8 -8 -25 2 -62 11 -45 11 -53 -3 -68 -21 -20 -48 -10 -48 18 0 12 -3 19 -7 16 -3 -4 -12 -2 -20 4 -10 9 -13 7 -13 -10 0 -12 4 -20 9 -16 17 10 33 -31 17 -44 -7 -6 -17 -7 -22 -3 -4 4 -3 -1 5 -10 9 -12 10 -22 2 -37 -6 -11 -9 -26 -6 -33 3 -8 -1 -41 -10 -73 -8 -33 -15 -78 -15 -102 0 -43 17 -93 32 -93 4 0 8 -14 8 -31 0 -35 13 -63 45 -99 12 -14 34 -46 48 -71 26 -46 64 -79 90 -79 7 0 25 -17 38 -37 28 -44 90 -81 145 -87 21 -2 58 -11 82 -20 59 -22 247 -18 284 6 13 9 41 16 62 16 48 0 124 46 145 89 10 19 26 33 41 36 33 7 79 52 98 97 8 19 23 41 34 49 24 16 48 70 48 106 0 14 4 25 8 25 15 0 32 49 32 88 0 21 -6 62 -14 92 -8 30 -16 78 -18 105 -4 57 -24 90 -53 90 -11 0 -24 11 -31 25 -18 37 -68 259 -61 266 10 10 38 -16 49 -46 6 -14 12 -20 15 -14 8 22 -18 66 -46 77 -26 9 -29 16 -35 70 -11 108 -25 137 -102 214 -41 42 -90 80 -115 91 -100 43 -236 53 -339 26z m80 -154 c7 -59 15 -70 50 -70 35 0 43 11 50 70 4 37 9 46 27 48 45 7 180 -85 206 -141 9 -19 24 -68 32 -108 8 -42 35 -114 60 -165 25 -50 45 -103 45 -118 0 -14 7 -43 16 -64 21 -48 26 -80 27 -179 1 -73 -2 -85 -26 -120 -15 -22 -27 -47 -27 -56 0 -9 -13 -23 -28 -31 -16 -8 -34 -22 -41 -30 -19 -23 -62 -20 -114 9 -25 14 -58 24 -74 23 -16 -1 -35 2 -42 6 -21 13 -162 15 -206 3 -22 -6 -48 -9 -58 -8 -10 1 -40 -11 -66 -28 -57 -37 -80 -39 -118 -7 -15 12 -38 28 -50 35 -13 6 -23 19 -23 28 0 9 -11 30 -24 47 -13 17 -26 41 -30 54 -12 36 -8 152 5 168 6 8 9 20 6 28 -3 8 1 29 9 45 8 17 17 47 20 68 3 21 25 79 50 128 28 57 50 119 59 168 14 77 37 128 72 159 41 37 139 89 163 86 22 -3 26 -9 30 -48z"/>
 <path d="M891 1334 c-30 -22 -26 -47 13 -82 90 -78 221 -62 240 30 3 16 1 39 -5 50 -10 18 -17 20 -63 13 -69 -10 -95 -11 -132 -3 -21 5 -38 2 -53 -8z m234 -14 c0 -19 -27 -24 -73 -15 l-37 8 30 13 c38 17 80 14 80 -6z m-35 -66 c8 -8 6 -16 -6 -29 -13 -13 -28 -16 -61 -12 -48 5 -97 32 -87 48 8 14 140 7 154 -7z"/>
 <path d="M967 1162 c-16 -17 -15 -22 4 -78 26 -72 33 -82 25 -29 -3 22 -7 47 -7 55 -1 8 -6 21 -12 28 -7 9 -5 17 9 27 10 8 14 15 8 15 -6 0 -18 -8 -27 -18z"/>
 <path d="M674 1011 c-51 -31 -63 -87 -38 -191 4 -20 3 -22 -5 -10 -6 8 -11 11 -11 5 0 -5 22 -32 49 -58 66 -66 115 -78 183 -43 27 14 50 21 53 15 11 -16 26 1 16 18 -5 10 -4 28 5 49 28 66 11 136 -44 187 -50 48 -153 61 -208 28z m138 -11 c118 -33 151 -154 67 -242 -37 -40 -40 -40 -94 -36 -62 5 -94 28 -126 90 -22 43 -25 126 -6 150 17 23 68 47 97 48 14 0 42 -5 62 -10z"/>
 <path d="M1155 1010 c-64 -26 -94 -125 -62 -203 15 -35 15 -37 -4 -47 -30 -17 -22 -28 19 -28 20 1 56 -4 79 -10 52 -15 113 5 160 50 30 29 33 38 33 88 0 48 -4 61 -32 94 -17 21 -46 45 -64 52 -37 15 -98 17 -129 4z m145 -26 c41 -21 74 -90 65 -137 -15 -71 -71 -117 -143 -117 -36 0 -50 6 -77 33 -70 70 -66 197 8 227 36 14 112 11 147 -6z"/>
 <path d="M465 1040 c-11 -27 -23 -50 -28 -50 -5 0 -6 -12 -3 -26 4 -16 3 -23 -3 -19 -7 3 -8 0 -5 -9 9 -24 18 -19 31 15 11 28 10 29 -5 17 -15 -12 -15 -10 1 12 29 42 54 110 40 110 -5 0 -17 -22 -28 -50z"/>
 <path d="M1510 1042 c0 -4 7 -18 16 -30 8 -12 13 -26 10 -31 -8 -12 14 -71 25 -71 12 0 11 6 -7 42 -9 16 -11 27 -5 24 6 -4 11 0 11 8 0 9 -4 16 -9 16 -5 0 -12 11 -15 25 -6 23 -26 36 -26 17z"/>
 <path d="M1497 994 c-6 -33 -1 -42 13 -28 7 7 7 20 2 34 -9 24 -9 24 -15 -6z"/>
 <path d="M1564 954 c3 -9 6 -18 6 -20 0 -3 4 -3 10 1 11 7 2 35 -12 35 -6 0 -7 -7 -4 -16z"/>
 <path d="M1585 900 c-4 -6 -11 -8 -16 -5 -18 12 -9 -22 11 -40 20 -18 20 -17 20 18 0 38 -4 45 -15 27z"/>
 </g>
<g id="layer115" fill="#5a453c" stroke="none">
 <path d="M95 1978 c24 -81 96 -198 121 -198 7 0 14 -6 17 -14 9 -24 94 -57 179 -71 111 -18 123 -6 17 15 -46 10 -103 25 -126 35 -58 23 -134 108 -169 189 -27 63 -53 91 -39 44z"/>
 <path d="M1869 1963 c-19 -59 -56 -129 -89 -166 -40 -46 -108 -74 -219 -88 -62 -9 -87 -16 -76 -21 9 -6 52 -3 107 7 177 30 244 93 302 283 4 12 3 22 -3 22 -5 0 -15 -17 -22 -37z"/>
 <path d="M950 1979 c-12 -9 -12 -10 4 -5 11 4 26 0 35 -8 9 -8 63 -46 121 -84 58 -38 116 -78 128 -88 13 -11 49 -39 79 -63 61 -48 61 -42 -2 -86 -18 -12 -18 -14 -2 -14 9 -1 17 3 17 8 0 10 31 21 79 26 19 3 39 10 45 16 8 9 1 10 -27 5 -36 -7 -41 -4 -99 49 -44 41 -350 256 -362 255 0 0 -8 -5 -16 -11z"/>
 <path d="M1100 1966 c0 -2 14 -14 30 -26 17 -12 30 -19 30 -16 0 2 -13 14 -30 26 -16 12 -30 19 -30 16z"/>
 <path d="M825 1857 c-80 -41 -139 -81 -180 -119 -50 -47 -65 -55 -88 -51 -17 3 -27 1 -27 -6 0 -8 16 -11 45 -10 32 2 44 7 41 16 -5 13 81 93 101 93 6 0 13 4 15 10 2 5 55 36 118 69 63 34 111 61 105 60 -5 0 -64 -28 -130 -62z"/>
 <path d="M1200 1893 c19 -15 76 -63 127 -105 51 -43 93 -76 93 -73 0 8 -157 139 -206 173 -37 25 -41 26 -14 5z"/>
 <path d="M695 1846 c-28 -18 -57 -42 -65 -51 -8 -10 5 -3 30 16 25 19 57 42 70 51 14 9 23 17 20 17 -3 1 -28 -14 -55 -33z"/>
 <path d="M640 1660 c0 -5 7 -10 15 -10 8 0 15 -4 15 -10 0 -5 8 -10 18 -10 14 0 12 4 -8 20 -28 22 -40 25 -40 10z"/>
 <path d="M722 1601 c2 -7 7 -12 11 -12 12 1 9 15 -3 20 -7 2 -11 -2 -8 -8z"/>
 <path d="M870 1574 c-90 -24 -135 -51 -202 -122 -68 -73 -84 -107 -94 -211 -6 -53 -10 -61 -28 -61 -20 -1 -20 -1 -3 -14 17 -13 16 -18 -5 -105 -21 -86 -38 -117 -38 -69 0 16 -3 19 -11 11 -8 -8 -8 -25 2 -62 11 -45 11 -53 -3 -68 -21 -20 -48 -10 -48 18 0 12 -3 19 -7 16 -3 -4 -12 -2 -20 4 -10 9 -13 7 -13 -10 0 -12 4 -20 9 -16 17 10 33 -31 17 -44 -7 -6 -17 -7 -22 -3 -4 4 -3 -1 5 -10 9 -12 10 -22 2 -37 -6 -11 -9 -26 -6 -33 3 -8 -1 -41 -10 -73 -8 -33 -15 -78 -15 -102 0 -43 17 -93 32 -93 4 0 8 -14 8 -31 0 -35 13 -63 45 -99 12 -14 34 -46 48 -71 26 -46 64 -79 90 -79 7 0 25 -17 38 -37 28 -44 90 -81 145 -87 21 -2 58 -11 82 -20 59 -22 247 -18 284 6 13 9 41 16 62 16 48 0 124 46 145 89 10 19 26 33 41 36 33 7 79 52 98 97 8 19 23 41 34 49 24 16 48 70 48 106 0 14 4 25 8 25 15 0 32 49 32 88 0 21 -6 62 -14 92 -8 30 -16 78 -18 105 -4 57 -24 90 -53 90 -11 0 -24 11 -31 25 -18 37 -68 259 -61 266 10 10 38 -16 49 -46 6 -14 12 -20 15 -14 8 22 -18 66 -46 77 -26 9 -29 16 -35 70 -11 108 -25 137 -102 214 -41 42 -90 80 -115 91 -100 43 -236 53 -339 26z m80 -154 c7 -59 15 -70 50 -70 35 0 43 11 50 70 4 37 9 46 27 48 45 7 180 -85 206 -141 9 -19 24 -68 32 -108 8 -42 35 -114 60 -165 25 -50 45 -103 45 -118 0 -14 7 -43 16 -64 21 -48 26 -80 27 -179 1 -73 -2 -85 -26 -120 -15 -22 -27 -47 -27 -56 0 -9 -13 -23 -28 -31 -16 -8 -34 -22 -41 -30 -19 -23 -62 -20 -114 9 -25 14 -58 24 -74 23 -16 -1 -35 2 -42 6 -21 13 -162 15 -206 3 -22 -6 -48 -9 -58 -8 -10 1 -40 -11 -66 -28 -57 -37 -80 -39 -118 -7 -15 12 -38 28 -50 35 -13 6 -23 19 -23 28 0 9 -11 30 -24 47 -13 17 -26 41 -30 54 -12 36 -8 152 5 168 6 8 9 20 6 28 -3 8 1 29 9 45 8 17 17 47 20 68 3 21 25 79 50 128 28 57 50 119 59 168 14 77 37 128 72 159 41 37 139 89 163 86 22 -3 26 -9 30 -48z"/>
 <path d="M891 1334 c-30 -22 -26 -47 13 -82 90 -78 221 -62 240 30 3 16 1 39 -5 50 -10 18 -17 20 -63 13 -69 -10 -95 -11 -132 -3 -21 5 -38 2 -53 -8z m234 -14 c0 -19 -27 -24 -73 -15 l-37 8 30 13 c38 17 80 14 80 -6z m-147 -6 c20 -9 51 -20 67 -24 23 -6 15 -7 -30 -6 -33 0 -72 -2 -87 -7 -22 -6 -28 -3 -33 14 -13 39 23 49 83 23z m112 -60 c8 -8 6 -16 -6 -29 -13 -13 -28 -16 -61 -12 -48 5 -97 32 -87 48 8 14 140 7 154 -7z"/>
 <path d="M967 1162 c-16 -17 -15 -22 4 -78 26 -72 33 -82 25 -29 -3 22 -7 47 -7 55 -1 8 -6 21 -12 28 -7 9 -5 17 9 27 10 8 14 15 8 15 -6 0 -18 -8 -27 -18z"/>
 <path d="M674 1011 c-51 -31 -63 -87 -38 -191 4 -20 3 -22 -5 -10 -6 8 -11 11 -11 5 0 -5 22 -32 49 -58 66 -66 115 -78 183 -43 27 14 50 21 53 15 11 -16 26 1 16 18 -5 10 -4 28 5 49 28 66 11 136 -44 187 -50 48 -153 61 -208 28z m138 -11 c118 -33 151 -154 67 -242 -37 -40 -40 -40 -94 -36 -62 5 -94 28 -126 90 -22 43 -25 126 -6 150 17 23 68 47 97 48 14 0 42 -5 62 -10z"/>
 <path d="M1155 1010 c-64 -26 -94 -125 -62 -203 15 -35 15 -37 -4 -47 -30 -17 -22 -28 19 -28 20 1 56 -4 79 -10 52 -15 113 5 160 50 30 29 33 38 33 88 0 48 -4 61 -32 94 -17 21 -46 45 -64 52 -37 15 -98 17 -129 4z m145 -26 c41 -21 74 -90 65 -137 -15 -71 -71 -117 -143 -117 -36 0 -50 6 -77 33 -70 70 -66 197 8 227 36 14 112 11 147 -6z"/>
 <path d="M465 1040 c-11 -27 -23 -50 -28 -50 -5 0 -6 -12 -3 -26 4 -16 3 -23 -3 -19 -7 3 -8 0 -5 -9 9 -24 18 -19 31 15 11 28 10 29 -5 17 -15 -12 -15 -10 1 12 29 42 54 110 40 110 -5 0 -17 -22 -28 -50z"/>
 <path d="M1510 1042 c0 -4 7 -18 16 -30 8 -12 13 -26 10 -31 -8 -12 14 -71 25 -71 12 0 11 6 -7 42 -9 16 -11 27 -5 24 6 -4 11 0 11 8 0 9 -4 16 -9 16 -5 0 -12 11 -15 25 -6 23 -26 36 -26 17z"/>
 <path d="M1497 994 c-6 -33 -1 -42 13 -28 7 7 7 20 2 34 -9 24 -9 24 -15 -6z"/>
 <path d="M1564 954 c3 -9 6 -18 6 -20 0 -3 4 -3 10 1 11 7 2 35 -12 35 -6 0 -7 -7 -4 -16z"/>
 <path d="M1585 900 c-4 -6 -11 -8 -16 -5 -18 12 -9 -22 11 -40 20 -18 20 -17 20 18 0 38 -4 45 -15 27z"/>
 </g>
<g id="layer116" fill="#035276" stroke="none">
 <path d="M95 1978 c24 -81 96 -198 121 -198 7 0 14 -6 17 -14 9 -24 94 -57 179 -71 111 -18 123 -6 17 15 -46 10 -103 25 -126 35 -58 23 -134 108 -169 189 -27 63 -53 91 -39 44z"/>
 <path d="M1869 1963 c-19 -59 -56 -129 -89 -166 -40 -46 -108 -74 -219 -88 -62 -9 -87 -16 -76 -21 9 -6 52 -3 107 7 177 30 244 93 302 283 4 12 3 22 -3 22 -5 0 -15 -17 -22 -37z"/>
 <path d="M950 1979 c-12 -9 -12 -10 4 -5 11 4 26 0 35 -8 9 -8 63 -45 121 -83 58 -39 141 -98 184 -133 87 -69 85 -60 21 -105 -18 -12 -18 -14 -2 -14 9 -1 17 3 17 8 0 10 31 21 79 26 19 3 39 10 45 16 8 9 1 10 -27 5 -36 -7 -41 -4 -99 49 -44 41 -350 256 -362 255 0 0 -8 -5 -16 -11z"/>
 <path d="M1100 1966 c0 -2 14 -14 30 -26 17 -12 30 -19 30 -16 0 2 -13 14 -30 26 -16 12 -30 19 -30 16z"/>
 <path d="M825 1857 c-80 -41 -139 -81 -180 -119 -50 -47 -65 -55 -88 -51 -17 3 -27 1 -27 -6 0 -8 16 -11 45 -10 33 2 44 7 43 18 -5 24 105 104 230 170 64 33 113 60 107 60 -5 0 -64 -28 -130 -62z"/>
 <path d="M1200 1893 c19 -15 76 -63 127 -105 51 -43 93 -76 93 -73 0 8 -157 139 -206 173 -37 25 -41 26 -14 5z"/>
 <path d="M695 1846 c-28 -18 -57 -42 -65 -51 -8 -10 5 -3 30 16 25 19 57 42 70 51 14 9 23 17 20 17 -3 1 -28 -14 -55 -33z"/>
 <path d="M640 1660 c0 -5 7 -10 15 -10 8 0 15 -4 15 -10 0 -5 8 -10 18 -10 14 0 12 4 -8 20 -28 22 -40 25 -40 10z"/>
 <path d="M722 1601 c2 -7 7 -12 11 -12 12 1 9 15 -3 20 -7 2 -11 -2 -8 -8z"/>
 <path d="M870 1575 c-91 -26 -136 -53 -202 -123 -68 -73 -84 -107 -94 -211 -6 -53 -10 -61 -28 -61 -20 -1 -20 -1 -3 -14 17 -13 16 -18 -5 -105 -21 -86 -38 -117 -38 -69 0 16 -3 19 -11 11 -8 -8 -8 -25 2 -62 11 -45 11 -53 -3 -68 -21 -20 -48 -10 -48 18 0 12 -3 19 -7 16 -3 -4 -12 -2 -20 4 -10 9 -13 7 -13 -10 0 -12 4 -20 9 -16 17 10 33 -31 17 -44 -7 -6 -17 -7 -22 -3 -4 4 -3 -1 5 -10 9 -12 10 -22 2 -37 -6 -11 -9 -26 -6 -33 3 -8 -1 -41 -10 -73 -8 -33 -15 -78 -15 -102 0 -43 17 -93 32 -93 4 0 8 -14 8 -31 0 -35 13 -63 45 -99 12 -14 34 -46 48 -71 26 -46 64 -79 90 -79 7 0 25 -17 38 -37 28 -44 90 -81 145 -87 21 -2 58 -11 82 -20 59 -22 247 -18 284 6 13 9 41 16 62 16 48 0 124 46 145 89 10 19 26 33 41 36 33 7 79 52 98 97 8 19 23 41 34 49 24 16 48 70 48 106 0 14 4 25 8 25 15 0 32 49 32 88 0 21 -6 62 -14 92 -8 30 -16 78 -18 105 -3 48 -28 102 -41 89 -14 -15 -46 9 -52 39 -3 18 -18 80 -32 139 -15 59 -24 111 -20 114 10 10 37 -16 49 -46 6 -14 12 -20 15 -14 8 22 -18 66 -46 77 -26 9 -29 16 -35 70 -11 110 -24 136 -106 218 -63 63 -87 80 -141 98 -84 30 -232 37 -309 16z m82 -157 c8 -61 13 -68 48 -68 35 0 40 7 48 68 6 40 11 47 32 50 35 4 148 -66 186 -115 23 -30 35 -62 47 -124 11 -54 33 -117 62 -175 25 -50 45 -103 45 -118 0 -14 7 -43 16 -64 10 -20 16 -45 15 -55 -1 -10 3 -24 9 -32 7 -8 10 -44 9 -91 -3 -65 -8 -84 -31 -118 -15 -23 -28 -51 -28 -63 0 -13 -5 -23 -12 -23 -6 0 -26 -11 -44 -25 -40 -31 -76 -32 -121 -4 -20 12 -53 23 -74 25 -21 1 -44 6 -50 9 -19 12 -162 14 -204 2 -22 -6 -48 -9 -58 -8 -10 1 -40 -11 -66 -28 -60 -39 -79 -39 -126 -1 -21 17 -44 30 -51 30 -8 0 -14 10 -14 22 0 11 -11 35 -24 52 -13 17 -27 42 -31 55 -11 37 -8 150 5 166 7 8 10 21 7 30 -4 8 3 34 13 57 11 24 20 56 20 72 0 16 18 61 40 101 27 49 47 103 60 165 19 90 42 140 77 172 41 37 139 89 163 86 21 -3 26 -9 32 -50z"/>
 <path d="M1056 1343 c-4 -5 -44 -8 -88 -8 -65 0 -83 -3 -92 -17 -23 -38 58 -105 135 -112 24 -2 35 -2 24 1 -48 10 -106 36 -102 47 6 16 142 15 159 -2 11 -11 10 -16 -6 -28 -23 -17 -13 -19 16 -3 29 16 50 72 38 104 -8 20 -16 25 -43 25 -19 0 -37 -3 -41 -7z m69 -23 c0 -19 -27 -24 -73 -15 l-37 8 30 13 c38 17 80 14 80 -6z m-147 -6 c20 -9 51 -20 67 -24 23 -6 15 -7 -30 -6 -33 0 -72 -2 -87 -7 -22 -6 -28 -3 -33 14 -13 39 23 49 83 23z"/>
 <path d="M967 1162 c-16 -17 -15 -22 4 -78 26 -72 33 -82 25 -29 -3 22 -7 47 -7 55 -1 8 -6 21 -12 28 -7 9 -5 17 9 27 10 8 14 15 8 15 -6 0 -18 -8 -27 -18z"/>
 <path d="M680 1013 c-48 -25 -66 -77 -51 -152 6 -29 8 -58 4 -65 -3 -6 -3 -8 1 -4 5 4 22 -12 40 -35 25 -33 42 -45 81 -54 45 -11 54 -11 95 9 25 13 53 21 63 19 15 -2 17 1 10 14 -7 11 -5 32 5 61 24 74 -7 157 -73 196 -48 27 -133 33 -175 11z m172 -30 c50 -29 73 -68 73 -123 0 -81 -61 -143 -140 -143 -37 0 -51 5 -76 29 -86 81 -94 221 -15 255 31 13 122 3 158 -18z"/>
 <path d="M1150 1002 c-65 -32 -90 -129 -51 -204 10 -21 16 -37 12 -36 -18 2 -30 -4 -35 -18 -5 -13 -2 -15 16 -9 32 9 37 9 85 -9 29 -11 49 -13 65 -6 20 7 17 9 -18 9 -51 1 -90 30 -115 85 -24 53 -24 93 1 134 23 38 54 52 116 52 86 0 138 -49 138 -131 0 -54 -21 -91 -67 -119 -38 -23 -29 -27 13 -5 101 52 93 191 -15 252 -48 27 -98 29 -145 5z"/>
 <path d="M465 1040 c-11 -27 -23 -50 -28 -50 -5 0 -6 -12 -3 -26 4 -16 3 -23 -3 -19 -7 3 -8 0 -5 -9 9 -24 18 -19 31 15 11 28 10 29 -5 17 -15 -12 -15 -10 1 12 29 42 54 110 40 110 -5 0 -17 -22 -28 -50z"/>
 <path d="M1510 1042 c0 -4 7 -18 16 -30 8 -12 13 -26 10 -31 -8 -12 14 -71 25 -71 12 0 11 6 -7 42 -9 16 -11 27 -5 24 6 -4 11 0 11 8 0 9 -4 16 -9 16 -5 0 -12 11 -15 25 -6 23 -26 36 -26 17z"/>
 <path d="M1497 994 c-6 -33 -1 -42 13 -28 7 7 7 20 2 34 -9 24 -9 24 -15 -6z"/>
 <path d="M1564 954 c3 -9 6 -18 6 -20 0 -3 4 -3 10 1 11 7 2 35 -12 35 -6 0 -7 -7 -4 -16z"/>
 <path d="M1585 900 c-4 -6 -11 -8 -16 -5 -18 12 -9 -22 11 -40 20 -18 20 -17 20 18 0 38 -4 45 -15 27z"/>
 </g>
<g id="layer117" fill="#692d1f" stroke="none">
 <path d="M1331 1658 c-22 -14 -29 -24 -21 -26 8 -3 16 0 18 7 2 6 9 11 17 11 7 0 18 7 25 15 18 21 1 18 -39 -7z"/>
 <path d="M640 1660 c0 -5 7 -10 15 -10 8 0 15 -4 15 -10 0 -5 8 -10 18 -10 14 0 12 4 -8 20 -28 22 -40 25 -40 10z"/>
 <path d="M722 1601 c2 -7 7 -12 11 -12 12 1 9 15 -3 20 -7 2 -11 -2 -8 -8z"/>
 <path d="M870 1575 c-91 -26 -136 -53 -202 -123 -68 -73 -84 -107 -94 -211 -6 -53 -10 -61 -28 -61 -20 -1 -20 -1 -3 -14 17 -13 16 -18 -5 -105 -21 -86 -38 -117 -38 -69 0 16 -3 19 -11 11 -8 -8 -8 -25 2 -62 11 -45 11 -53 -3 -68 -21 -20 -48 -10 -48 18 0 12 -3 19 -7 16 -3 -4 -12 -2 -20 4 -10 9 -13 7 -13 -10 0 -12 4 -20 9 -16 17 10 33 -31 17 -44 -7 -6 -17 -7 -22 -3 -4 4 -3 -1 5 -10 9 -12 10 -22 2 -37 -6 -11 -9 -26 -6 -33 3 -8 -1 -41 -10 -73 -8 -33 -15 -78 -15 -102 0 -43 17 -93 32 -93 4 0 8 -14 8 -31 0 -35 13 -63 45 -99 12 -14 34 -46 48 -71 26 -46 64 -79 90 -79 7 0 25 -17 38 -37 28 -44 90 -81 145 -87 21 -2 58 -11 82 -20 59 -22 247 -18 284 6 13 9 41 16 62 16 48 0 124 46 145 89 10 19 26 33 41 36 33 7 79 52 98 97 8 19 23 41 34 49 24 16 48 70 48 106 0 14 4 25 8 25 15 0 32 49 32 88 0 21 -6 62 -14 92 -8 30 -16 78 -18 105 -3 48 -28 102 -41 89 -14 -15 -46 9 -52 39 -3 18 -18 80 -32 139 -15 59 -24 111 -20 114 10 10 37 -16 49 -46 6 -14 12 -20 15 -14 8 22 -18 66 -46 77 -26 9 -29 16 -35 70 -11 110 -24 136 -106 218 -63 63 -87 80 -141 98 -84 30 -232 37 -309 16z m82 -157 c8 -61 13 -68 48 -68 35 0 40 7 48 68 6 40 11 47 32 50 35 4 148 -66 186 -115 23 -30 35 -62 47 -124 11 -54 33 -117 62 -175 25 -50 45 -103 45 -118 0 -14 7 -43 16 -64 10 -20 16 -45 15 -55 -1 -10 3 -24 9 -32 7 -8 10 -44 9 -91 -3 -65 -8 -84 -31 -118 -15 -23 -28 -51 -28 -63 0 -13 -5 -23 -12 -23 -6 0 -26 -11 -44 -25 -40 -31 -76 -32 -121 -4 -20 12 -53 23 -74 25 -21 1 -44 6 -50 9 -19 12 -162 14 -204 2 -22 -6 -48 -9 -58 -8 -10 1 -40 -11 -66 -28 -60 -39 -79 -39 -126 -1 -21 17 -44 30 -51 30 -8 0 -14 10 -14 22 0 11 -11 35 -24 52 -13 17 -27 42 -31 55 -11 37 -8 150 5 166 7 8 10 21 7 30 -4 8 3 34 13 57 11 24 20 56 20 72 0 16 18 61 40 101 27 49 47 103 60 165 19 90 42 140 77 172 41 37 139 89 163 86 21 -3 26 -9 32 -50z"/>
 <path d="M1056 1343 c-4 -5 -44 -8 -88 -8 -65 0 -83 -3 -92 -17 -23 -38 58 -105 135 -112 24 -2 35 -2 24 1 -48 10 -106 36 -102 47 6 16 142 15 159 -2 11 -11 10 -16 -6 -28 -23 -17 -13 -19 16 -3 29 16 50 72 38 104 -8 20 -16 25 -43 25 -19 0 -37 -3 -41 -7z m69 -23 c0 -19 -27 -24 -73 -15 l-37 8 30 13 c38 17 80 14 80 -6z m-147 -6 c20 -9 51 -20 67 -24 23 -6 15 -7 -30 -6 -33 0 -72 -2 -87 -7 -22 -6 -28 -3 -33 14 -13 39 23 49 83 23z"/>
 <path d="M967 1162 c-16 -17 -15 -22 4 -78 26 -72 33 -82 25 -29 -3 22 -7 47 -7 55 -1 8 -6 21 -12 28 -7 9 -5 17 9 27 10 8 14 15 8 15 -6 0 -18 -8 -27 -18z"/>
 <path d="M680 1013 c-48 -25 -66 -77 -51 -152 6 -29 8 -58 4 -65 -3 -6 -3 -8 1 -4 5 4 22 -12 40 -35 25 -33 42 -45 81 -54 45 -11 54 -11 95 9 25 13 53 21 63 19 15 -2 17 1 10 14 -7 11 -5 32 5 61 24 74 -7 157 -73 196 -48 27 -133 33 -175 11z m172 -30 c50 -29 73 -68 73 -123 0 -81 -61 -143 -140 -143 -37 0 -51 5 -76 29 -86 81 -94 221 -15 255 31 13 122 3 158 -18z"/>
 <path d="M1150 1002 c-65 -32 -90 -129 -51 -204 10 -21 16 -37 12 -36 -18 2 -30 -4 -35 -18 -5 -13 -2 -15 16 -9 32 9 37 9 85 -9 29 -11 49 -13 65 -6 20 7 17 9 -18 9 -51 1 -90 30 -115 85 -24 53 -24 93 1 134 23 38 54 52 116 52 86 0 138 -49 138 -131 0 -54 -21 -91 -67 -119 -38 -23 -29 -27 13 -5 101 52 93 191 -15 252 -48 27 -98 29 -145 5z"/>
 <path d="M465 1040 c-11 -27 -23 -50 -28 -50 -5 0 -6 -12 -3 -26 4 -16 3 -23 -3 -19 -7 3 -8 0 -5 -9 9 -24 18 -19 31 15 11 28 10 29 -5 17 -15 -12 -15 -10 1 12 29 42 54 110 40 110 -5 0 -17 -22 -28 -50z"/>
 <path d="M1510 1042 c0 -4 7 -18 16 -30 8 -12 13 -26 10 -31 -8 -12 14 -71 25 -71 12 0 11 6 -7 42 -9 16 -11 27 -5 24 6 -4 11 0 11 8 0 9 -4 16 -9 16 -5 0 -12 11 -15 25 -6 23 -26 36 -26 17z"/>
 <path d="M1497 994 c-6 -33 -1 -42 13 -28 7 7 7 20 2 34 -9 24 -9 24 -15 -6z"/>
 <path d="M1564 954 c3 -9 6 -18 6 -20 0 -3 4 -3 10 1 11 7 2 35 -12 35 -6 0 -7 -7 -4 -16z"/>
 <path d="M1585 900 c-4 -6 -11 -8 -16 -5 -18 12 -9 -22 11 -40 20 -18 20 -17 20 18 0 38 -4 45 -15 27z"/>
 </g>
<g id="layer118" fill="#4f352c" stroke="none">
 <path d="M910 1584 c-14 -3 -54 -15 -90 -26 -56 -18 -75 -32 -141 -97 -84 -85 -92 -102 -109 -246 -6 -49 -22 -129 -35 -177 -14 -48 -25 -97 -25 -110 0 -33 -29 -71 -50 -65 -27 7 -50 -39 -51 -103 -1 -14 -7 -50 -15 -80 -8 -30 -14 -73 -14 -97 0 -43 17 -93 32 -93 4 0 8 -14 8 -31 0 -35 13 -63 45 -99 12 -14 34 -46 48 -71 26 -46 64 -79 90 -79 7 0 25 -17 38 -37 28 -44 90 -81 145 -87 21 -2 58 -11 82 -20 59 -22 247 -18 284 6 13 9 41 16 62 16 48 0 124 46 145 89 10 19 26 33 41 36 33 7 79 52 98 97 8 19 23 41 34 49 24 16 48 70 48 106 0 14 4 25 8 25 15 0 32 49 32 88 0 21 -6 62 -14 92 -8 30 -16 78 -18 105 -3 48 -28 102 -41 89 -16 -16 -47 9 -53 44 -3 20 -17 79 -30 130 -14 52 -30 133 -35 180 -16 140 -24 158 -109 243 -63 63 -87 80 -141 98 -63 22 -211 36 -269 25z m42 -166 c8 -61 13 -68 48 -68 35 0 40 7 48 68 6 40 11 47 32 50 35 4 148 -66 186 -115 23 -30 35 -62 47 -124 11 -54 33 -117 62 -175 25 -50 45 -103 45 -118 0 -14 7 -43 16 -64 10 -20 16 -45 15 -55 -1 -10 3 -24 9 -32 7 -8 10 -44 9 -91 -3 -65 -8 -84 -31 -118 -15 -23 -28 -51 -28 -63 0 -13 -5 -23 -12 -23 -6 0 -26 -11 -44 -25 -40 -31 -76 -32 -121 -4 -20 12 -53 23 -74 25 -21 1 -44 6 -50 9 -19 12 -162 14 -204 2 -22 -6 -48 -9 -58 -8 -10 1 -40 -11 -66 -28 -60 -39 -79 -39 -126 -1 -21 17 -44 30 -51 30 -8 0 -14 10 -14 22 0 11 -11 35 -24 52 -13 17 -27 42 -31 55 -11 37 -8 150 5 166 7 8 10 21 7 30 -4 8 3 34 13 57 11 24 20 56 20 72 0 16 18 61 40 101 27 49 47 103 60 165 19 90 42 140 77 172 41 37 139 89 163 86 21 -3 26 -9 32 -50z"/>
 <path d="M1056 1343 c-4 -5 -44 -8 -88 -8 -65 0 -83 -3 -92 -17 -23 -38 58 -105 135 -112 24 -2 35 -2 24 1 -48 10 -106 36 -102 47 6 16 142 15 159 -2 11 -11 10 -16 -6 -28 -23 -17 -13 -19 16 -3 29 16 50 72 38 104 -8 20 -16 25 -43 25 -19 0 -37 -3 -41 -7z m69 -23 c0 -18 -26 -24 -72 -15 -36 6 -35 19 2 28 36 9 70 3 70 -13z m-134 -10 c24 -11 64 -20 87 -20 31 0 42 -4 39 -12 -2 -7 -11 -11 -18 -8 -8 2 -57 5 -109 6 -95 2 -109 7 -96 39 8 21 46 19 97 -5z"/>
 <path d="M680 1013 c-48 -25 -66 -77 -51 -152 6 -29 8 -58 4 -65 -3 -6 -3 -8 1 -4 5 4 22 -12 40 -35 25 -33 42 -45 81 -54 45 -11 54 -11 95 9 25 13 53 21 63 19 15 -2 17 1 10 14 -7 11 -5 32 5 61 24 74 -7 157 -73 196 -48 27 -133 33 -175 11z m172 -30 c50 -29 73 -68 73 -123 0 -81 -61 -143 -140 -143 -37 0 -51 5 -76 29 -86 81 -94 221 -15 255 31 13 122 3 158 -18z"/>
 <path d="M1150 1002 c-65 -32 -90 -129 -51 -204 10 -21 16 -37 12 -36 -18 2 -30 -4 -35 -18 -5 -13 -2 -15 16 -9 32 9 37 9 85 -9 29 -11 49 -13 65 -6 20 7 17 9 -18 9 -51 1 -90 30 -115 85 -24 53 -24 93 1 134 23 38 54 52 116 52 86 0 138 -49 138 -131 0 -54 -21 -91 -67 -119 -38 -23 -29 -27 13 -5 101 52 93 191 -15 252 -48 27 -98 29 -145 5z"/>
 </g>
<g id="layer119" fill="#2b242c" stroke="none">
 <path d="M882 1575 c-96 -21 -144 -49 -214 -123 -71 -76 -81 -101 -98 -237 -6 -49 -22 -130 -35 -180 -13 -49 -26 -106 -29 -126 -5 -30 -13 -39 -48 -55 -42 -19 -48 -31 -49 -94 -1 -14 -7 -50 -15 -80 -8 -30 -14 -73 -14 -97 0 -43 17 -93 32 -93 4 0 8 -14 8 -31 0 -35 13 -63 45 -99 12 -14 34 -46 48 -71 26 -46 64 -79 90 -79 7 0 25 -17 38 -37 28 -44 90 -81 145 -87 21 -2 58 -11 82 -20 59 -22 247 -18 284 6 13 9 41 16 62 16 48 0 124 46 145 89 10 19 26 33 41 36 33 7 79 52 98 97 8 19 23 41 34 49 24 16 48 70 48 106 0 14 4 25 8 25 15 0 32 49 32 88 0 21 -6 62 -14 92 -8 30 -16 80 -18 110 -4 54 -5 55 -46 74 -30 14 -44 27 -48 45 -2 14 -18 82 -34 151 -16 69 -31 154 -34 189 -10 113 -23 139 -107 223 -68 68 -85 79 -145 98 -90 28 -211 34 -292 15z m69 -152 c6 -47 23 -73 49 -73 25 0 40 22 48 71 6 35 12 45 30 47 47 7 177 -80 207 -138 8 -15 23 -69 34 -120 14 -61 34 -116 61 -165 22 -40 40 -85 40 -101 0 -16 9 -48 20 -72 10 -23 17 -49 13 -57 -3 -9 0 -21 6 -29 13 -15 17 -103 7 -153 -3 -18 -17 -49 -31 -69 -14 -20 -25 -45 -25 -55 0 -11 -4 -19 -8 -19 -5 0 -30 -14 -56 -32 l-48 -31 -65 32 c-40 20 -72 29 -84 26 -11 -4 -27 -1 -35 6 -19 16 -208 17 -227 1 -7 -6 -22 -9 -33 -6 -11 3 -38 -7 -65 -24 -72 -46 -80 -47 -130 -7 -24 19 -50 35 -56 35 -7 0 -13 7 -13 17 0 9 -14 38 -31 64 -27 42 -30 57 -31 122 0 41 5 84 11 96 7 12 9 25 6 30 -2 5 4 29 15 52 11 24 20 59 20 77 0 18 12 51 26 73 40 64 63 124 74 196 6 36 19 82 30 103 35 68 156 154 210 148 21 -3 26 -9 31 -45z"/>
 <path d="M1095 1341 c17 -3 31 -14 33 -24 3 -14 -4 -17 -40 -16 -24 0 -52 4 -63 8 -18 7 -17 9 8 17 21 7 8 9 -58 11 -76 2 -86 0 -96 -18 -8 -16 -7 -26 6 -45 20 -30 73 -64 100 -63 13 0 7 6 -18 16 -57 23 -41 38 41 38 81 0 111 -16 78 -41 -11 -8 -15 -14 -9 -14 20 0 53 35 62 65 13 48 -2 75 -41 74 l-33 -1 30 -7z m-104 -31 c24 -11 64 -20 87 -20 31 0 42 -4 39 -12 -2 -7 -11 -11 -18 -8 -8 2 -57 5 -109 6 -95 2 -109 7 -96 39 8 21 46 19 97 -5z"/>
 <path d="M703 1022 c-92 -28 -105 -162 -26 -269 16 -23 39 -37 75 -48 49 -14 52 -14 97 8 25 13 52 22 59 19 6 -2 12 1 12 7 0 6 -4 11 -9 11 -6 0 -3 12 5 28 7 15 14 34 14 42 -1 8 -7 2 -14 -15 -27 -61 -96 -100 -156 -88 -62 12 -122 101 -122 180 0 89 61 127 165 104 53 -12 89 -39 115 -86 6 -11 12 -15 12 -9 0 23 -47 80 -80 96 -41 19 -116 30 -147 20z"/>
 <path d="M1150 1002 c-66 -33 -88 -129 -48 -209 15 -29 14 -32 -3 -36 -11 -3 -19 -10 -19 -16 0 -7 8 -8 23 -2 14 6 30 5 41 -1 34 -19 77 -27 99 -18 18 7 15 9 -19 9 -51 1 -90 30 -115 85 -23 50 -24 88 -4 126 23 44 53 60 115 60 67 0 110 -23 133 -73 28 -58 18 -108 -31 -161 -23 -25 -24 -27 -5 -17 40 21 63 60 63 111 0 61 -31 108 -90 138 -53 27 -93 28 -140 4z"/>
 </g>
<g id="layer120" fill="#241d25" stroke="none">
 <path d="M882 1575 c-96 -21 -144 -49 -214 -123 -71 -76 -81 -101 -98 -237 -6 -49 -22 -130 -35 -180 -13 -49 -26 -106 -29 -126 -5 -30 -13 -39 -48 -55 -42 -19 -48 -31 -49 -94 -1 -14 -7 -50 -15 -80 -8 -30 -14 -73 -14 -97 0 -43 17 -93 32 -93 4 0 8 -14 8 -31 0 -35 13 -63 45 -99 12 -14 34 -46 48 -71 26 -46 64 -79 90 -79 7 0 25 -17 38 -37 28 -44 90 -81 145 -87 21 -2 58 -11 82 -20 59 -22 247 -18 284 6 13 9 41 16 62 16 48 0 124 46 145 89 10 19 26 33 41 36 33 7 79 52 98 97 8 19 23 41 34 49 24 16 48 70 48 106 0 14 4 25 8 25 15 0 32 49 32 88 0 21 -6 62 -14 92 -8 30 -16 80 -18 110 -4 54 -5 55 -46 74 -30 14 -44 27 -48 45 -2 14 -18 82 -34 151 -16 69 -31 154 -34 189 -10 113 -23 139 -107 223 -68 68 -85 79 -145 98 -90 28 -211 34 -292 15z m302 -54 c110 -54 193 -167 217 -296 6 -33 21 -94 33 -135 l22 -75 -25 0 c-20 0 -29 10 -52 61 -15 33 -35 97 -43 143 -16 84 -25 106 -59 153 -29 39 -102 88 -154 104 -59 18 -83 6 -83 -41 0 -37 -8 -43 -28 -23 -10 10 -17 10 -32 0 -18 -11 -20 -10 -20 23 0 71 -80 65 -184 -13 -64 -49 -100 -114 -115 -212 -16 -98 -62 -195 -94 -195 l-23 0 22 75 c12 41 27 102 33 135 28 154 140 282 280 322 28 8 83 12 143 9 85 -3 105 -7 162 -35z m-232 -100 c8 -49 23 -71 48 -71 25 0 40 22 48 71 6 35 12 45 30 47 47 7 177 -80 207 -138 8 -15 23 -69 34 -120 14 -61 34 -116 61 -165 22 -40 40 -85 40 -101 0 -16 9 -48 20 -72 10 -23 17 -49 13 -57 -3 -9 0 -21 6 -29 13 -15 17 -103 7 -153 -3 -18 -17 -49 -31 -69 -14 -20 -25 -45 -25 -55 0 -11 -4 -19 -8 -19 -5 0 -30 -14 -56 -32 l-48 -31 -65 32 c-38 19 -73 29 -84 26 -10 -3 -27 -1 -38 4 -29 16 -206 17 -225 2 -8 -7 -23 -10 -34 -7 -11 4 -36 -5 -64 -23 -71 -45 -79 -46 -129 -6 -24 19 -50 35 -56 35 -7 0 -13 7 -13 17 0 9 -14 38 -31 64 -27 42 -30 57 -31 122 0 41 5 84 11 96 7 12 9 25 6 30 -2 5 4 29 15 52 11 24 20 59 20 77 0 20 14 57 34 91 36 62 61 132 70 199 4 24 15 61 26 82 35 68 156 154 210 148 21 -3 26 -10 32 -47z m-407 -506 c-8 -30 -29 -70 -46 -89 -18 -21 -25 -37 -19 -41 5 -3 10 -29 10 -57 0 -39 -5 -57 -21 -74 -20 -22 -20 -22 -1 -28 28 -9 46 -58 38 -106 -5 -32 -3 -40 9 -40 23 0 55 -60 55 -105 1 -32 3 -37 11 -22 18 30 64 21 97 -19 28 -34 30 -35 37 -15 7 23 53 51 82 51 28 -1 64 -25 79 -51 l13 -24 1 28 c0 29 31 67 54 67 19 0 46 -38 46 -64 0 -17 3 -16 27 8 44 44 99 48 118 9 9 -18 13 -19 21 -7 5 8 25 17 45 20 30 5 41 1 72 -26 33 -29 37 -30 37 -12 0 35 49 65 97 59 l42 -4 -2 41 c-2 37 1 43 30 57 29 14 30 17 16 32 -22 22 -9 65 25 79 15 7 28 13 30 14 2 1 -6 19 -17 40 -26 47 -26 60 -4 73 17 9 16 12 -6 41 -15 21 -21 40 -18 58 4 19 -1 31 -20 46 -14 10 -32 34 -39 52 -16 38 -19 94 -4 94 15 0 30 -36 30 -75 0 -41 36 -85 69 -85 32 0 30 6 57 -242 5 -43 3 -63 -9 -81 -9 -13 -19 -41 -23 -61 -3 -21 -21 -57 -38 -79 -17 -23 -44 -61 -60 -84 -16 -24 -45 -50 -66 -60 -21 -10 -46 -31 -56 -46 -27 -40 -102 -87 -138 -87 -17 0 -49 -7 -71 -15 -24 -8 -77 -14 -135 -14 -58 0 -111 6 -135 14 -22 8 -53 15 -68 15 -43 0 -105 37 -135 80 -15 21 -36 41 -48 44 -34 9 -73 45 -94 86 -11 21 -31 51 -45 66 -14 15 -30 45 -36 68 -6 23 -17 53 -25 68 -17 32 -18 83 -3 180 21 140 21 139 59 152 38 12 60 45 60 89 0 16 5 38 12 50 20 36 22 -4 3 -68z"/>
 <path d="M1095 1342 c17 -4 31 -15 33 -25 3 -14 -4 -17 -40 -16 -24 0 -52 4 -63 8 -18 7 -17 9 8 17 21 7 7 9 -58 11 -75 1 -86 -1 -95 -18 -19 -35 32 -90 96 -104 22 -5 19 -2 -14 14 -24 11 -41 25 -37 31 10 15 138 12 160 -4 17 -12 18 -16 5 -32 -14 -18 -14 -18 10 -3 14 9 30 31 37 50 15 44 -2 73 -43 76 l-29 2 30 -7z m-104 -32 c24 -11 64 -20 87 -20 31 0 42 -4 39 -12 -2 -7 -11 -11 -18 -8 -8 2 -57 5 -109 6 -95 2 -109 7 -96 39 8 21 46 19 97 -5z"/>
 <path d="M710 1023 c-36 -7 -69 -41 -81 -86 -6 -21 -8 -41 -5 -44 2 -3 9 13 15 34 17 62 41 78 121 78 77 0 107 -16 148 -75 12 -18 22 -28 22 -23 0 23 -48 79 -80 94 -39 19 -102 28 -140 22z"/>
 <path d="M1150 1002 c-41 -20 -70 -72 -69 -122 1 -30 2 -28 10 15 12 75 50 105 132 106 44 0 56 3 42 9 -33 14 -78 11 -115 -8z"/>
 <path d="M1361 912 c16 -46 3 -96 -34 -139 -25 -28 -27 -34 -10 -25 40 22 63 62 63 111 0 26 -7 56 -15 67 -13 17 -14 16 -4 -14z"/>
 <path d="M631 869 c-1 -27 20 -82 45 -116 17 -22 39 -36 76 -47 50 -14 54 -14 92 7 42 23 86 78 86 106 -1 9 -7 2 -14 -14 -7 -17 -28 -43 -45 -58 -84 -71 -188 -27 -227 96 -7 23 -13 35 -13 26z"/>
 <path d="M1091 829 c-1 -23 41 -82 69 -96 14 -7 41 -12 60 -12 34 1 34 2 -7 8 -47 8 -88 40 -108 86 -7 17 -14 23 -14 14z"/>
 </g>
<g id="layer121" fill="#2a1916" stroke="none">
 <path d="M882 1575 c-96 -21 -144 -49 -214 -123 -71 -76 -81 -101 -98 -237 -6 -49 -22 -130 -35 -180 -13 -49 -26 -107 -30 -128 -5 -29 -12 -40 -33 -47 -56 -20 -62 -30 -63 -100 -1 -14 -7 -50 -15 -80 -8 -30 -14 -73 -14 -97 0 -43 17 -93 32 -93 4 0 8 -14 8 -31 0 -35 13 -63 45 -99 12 -14 34 -46 48 -71 26 -46 64 -79 90 -79 7 0 25 -17 38 -37 28 -44 90 -81 145 -87 21 -2 58 -11 82 -20 59 -22 247 -18 284 6 13 9 41 16 62 16 48 0 124 46 145 89 10 19 26 33 41 36 33 7 79 52 98 97 8 19 23 41 34 49 24 16 48 70 48 106 0 14 4 25 8 25 15 0 32 49 32 88 0 21 -6 62 -14 92 -8 30 -16 80 -18 110 -4 54 -5 55 -46 74 -30 14 -44 27 -48 45 -2 14 -18 82 -34 151 -16 69 -31 154 -34 189 -10 113 -23 139 -107 223 -68 68 -85 79 -145 98 -90 28 -211 34 -292 15z m281 -35 c74 -28 154 -101 196 -179 20 -38 39 -96 51 -158 10 -54 25 -120 34 -146 12 -40 12 -48 1 -43 -7 2 -18 -1 -23 -7 -13 -15 1 -105 22 -145 9 -17 13 -38 10 -46 -4 -9 -1 -22 5 -30 13 -15 17 -103 7 -153 -3 -18 -17 -49 -31 -69 -14 -20 -25 -45 -25 -55 0 -11 -4 -19 -8 -19 -5 0 -30 -14 -56 -32 l-48 -31 -65 32 c-38 19 -73 29 -84 26 -10 -3 -27 -1 -38 4 -29 16 -206 17 -225 2 -8 -7 -23 -10 -34 -7 -11 4 -36 -5 -64 -23 -71 -45 -79 -46 -129 -6 -24 19 -50 35 -56 35 -7 0 -13 7 -13 17 0 9 -14 38 -31 64 -27 42 -30 57 -31 122 0 41 5 84 11 96 7 12 10 25 7 30 -3 5 3 28 13 52 32 73 30 156 -4 143 -11 -4 -10 6 5 53 10 32 23 94 30 138 29 184 149 321 310 355 69 14 198 4 263 -20z m-597 -571 c-8 -53 -43 -133 -66 -154 -15 -13 -16 -23 -8 -66 7 -39 6 -57 -7 -81 -14 -30 -14 -33 7 -56 18 -18 23 -35 23 -74 0 -37 4 -52 18 -59 21 -12 47 -61 47 -88 0 -17 5 -20 29 -15 22 5 36 -1 63 -24 32 -29 35 -30 46 -12 18 29 78 42 118 25 19 -8 34 -20 34 -27 0 -7 9 2 20 20 17 28 25 33 53 30 23 -2 35 -10 45 -31 l13 -28 30 26 c40 33 109 33 109 -1 0 -11 6 -10 35 2 40 16 76 11 100 -16 16 -18 18 -17 45 13 24 27 35 32 74 32 42 0 45 2 39 23 -6 26 20 72 42 72 11 0 14 7 9 25 -10 39 4 75 32 85 24 9 24 11 9 39 -18 35 -20 88 -3 93 7 3 3 15 -12 35 -13 19 -21 40 -17 52 3 12 -3 27 -15 38 -29 25 -48 75 -48 124 0 40 1 41 19 25 11 -10 21 -37 24 -68 7 -58 15 -69 60 -84 35 -12 36 -15 56 -152 15 -98 14 -163 -2 -187 -8 -11 -19 -41 -26 -67 -7 -26 -26 -59 -42 -74 -16 -15 -29 -34 -29 -41 0 -19 -84 -103 -103 -103 -8 0 -26 -14 -38 -31 -33 -47 -97 -89 -134 -89 -18 0 -49 -7 -68 -15 -50 -21 -244 -21 -294 0 -19 8 -49 15 -65 15 -42 0 -80 23 -126 75 -22 25 -44 45 -50 45 -18 0 -82 61 -99 94 -9 17 -28 46 -44 63 -15 18 -31 50 -35 70 -4 21 -13 47 -20 58 -16 23 -18 122 -4 192 5 26 12 69 15 94 5 41 9 47 34 52 42 9 60 32 67 88 6 44 24 79 41 79 3 0 3 -19 -1 -41z"/>
 <path d="M809 1438 c-93 -63 -123 -107 -142 -213 -9 -48 -29 -116 -46 -151 -16 -35 -28 -64 -25 -64 13 0 76 154 85 209 5 35 18 80 29 101 35 68 160 156 212 148 16 -2 25 -12 29 -33 6 -28 7 -28 8 -4 3 63 -61 66 -150 7z"/>
 <path d="M1046 1464 c-3 -9 -5 -25 -5 -37 1 -16 3 -14 8 8 9 44 47 45 119 1 98 -59 124 -96 147 -204 18 -86 49 -169 76 -202 14 -17 10 -5 -12 40 -17 35 -37 99 -45 142 -17 96 -41 145 -95 192 -79 67 -178 98 -193 60z"/>
 <path d="M972 1394 c-11 -12 -11 -18 -2 -29 16 -19 44 -19 60 0 10 11 9 18 -3 30 -19 19 -38 19 -55 -1z"/>
 <path d="M1095 1342 c17 -4 31 -15 33 -25 3 -14 -4 -17 -40 -16 -24 0 -52 4 -63 8 -18 7 -17 9 8 17 21 7 7 9 -58 11 -75 1 -86 -1 -95 -18 -19 -35 32 -90 96 -104 22 -5 19 -2 -14 14 -24 11 -41 25 -37 31 10 15 138 12 160 -4 17 -12 18 -16 5 -32 -14 -18 -14 -18 10 -3 14 9 30 31 37 50 15 44 -2 73 -43 76 l-29 2 30 -7z m-104 -32 c24 -11 64 -20 87 -20 31 0 42 -4 39 -12 -2 -7 -11 -11 -18 -8 -8 2 -57 5 -109 6 -95 2 -109 7 -96 39 8 21 46 19 97 -5z"/>
 <path d="M710 1023 c-36 -7 -69 -41 -81 -86 -14 -51 -6 -59 9 -9 16 51 42 73 94 79 61 7 121 -12 159 -50 34 -33 31 -19 -4 20 -29 33 -120 56 -177 46z"/>
 <path d="M1154 1006 c-17 -8 -39 -24 -48 -37 -26 -38 -18 -39 18 -3 31 31 39 34 98 35 44 0 57 3 43 9 -30 13 -76 11 -111 -4z"/>
 <path d="M1362 908 c14 -48 -1 -104 -39 -143 -23 -23 -24 -26 -6 -17 40 22 63 62 63 111 0 26 -7 56 -15 67 -13 17 -13 15 -3 -18z"/>
 <path d="M1082 880 c0 -19 2 -27 5 -17 2 9 2 25 0 35 -3 9 -5 1 -5 -18z"/>
 <path d="M631 865 c-1 -25 41 -116 61 -133 8 -6 37 -19 64 -27 45 -13 50 -13 88 8 41 23 86 78 86 106 0 9 -9 -3 -21 -26 -27 -54 -91 -89 -146 -78 -48 9 -98 62 -117 123 -8 26 -15 38 -15 27z"/>
 <path d="M1090 832 c0 -29 52 -102 74 -102 6 0 -2 12 -18 26 -15 15 -34 41 -42 58 -7 17 -13 25 -14 18z"/>
 </g>
<g id="layer122" fill="#140f14" stroke="none">
 <path d="M887 1575 c-99 -20 -148 -48 -219 -123 -72 -76 -83 -105 -97 -238 -5 -49 -21 -130 -35 -181 -14 -51 -26 -102 -26 -115 0 -33 -15 -51 -52 -65 -18 -6 -25 -12 -16 -12 51 -3 88 46 88 116 0 20 23 53 37 53 10 0 -8 -83 -28 -131 -12 -26 -29 -55 -39 -64 -15 -13 -16 -23 -8 -66 7 -39 6 -57 -7 -81 -14 -30 -14 -33 7 -56 18 -18 23 -35 23 -74 0 -37 4 -52 18 -59 21 -12 47 -61 47 -88 0 -17 5 -20 29 -15 22 5 36 -1 63 -24 32 -29 35 -30 46 -12 18 29 78 42 118 25 19 -8 34 -20 34 -27 0 -7 9 2 20 20 17 28 25 33 53 30 23 -2 35 -10 45 -31 l13 -28 30 26 c40 33 109 33 109 -1 0 -11 6 -10 35 2 40 16 76 11 100 -16 16 -18 18 -17 45 13 24 27 35 32 74 32 42 0 45 2 39 23 -6 26 20 72 42 72 11 0 14 7 9 25 -10 39 4 75 32 85 24 9 24 11 9 39 -18 35 -20 88 -3 93 7 3 3 15 -12 35 -13 19 -21 40 -17 52 3 12 -3 27 -15 38 -29 25 -48 75 -48 124 0 40 1 41 19 25 11 -10 21 -37 24 -68 7 -58 15 -69 60 -84 35 -12 36 -15 56 -152 15 -98 14 -163 -2 -187 -8 -11 -19 -41 -26 -67 -7 -26 -26 -59 -42 -74 -16 -15 -29 -34 -29 -41 0 -19 -84 -103 -103 -103 -8 0 -26 -14 -38 -31 -33 -47 -97 -89 -134 -89 -18 0 -49 -7 -68 -15 -50 -21 -244 -21 -294 0 -19 8 -49 15 -65 15 -42 0 -80 23 -126 75 -22 25 -44 45 -50 45 -18 0 -82 61 -99 94 -9 17 -28 46 -44 63 -15 18 -31 50 -35 70 -4 21 -13 47 -20 58 -16 22 -19 132 -5 185 5 19 12 60 15 90 5 54 5 55 -9 22 -8 -18 -12 -38 -9 -45 2 -7 -2 -40 -11 -72 -8 -33 -15 -78 -15 -102 0 -43 17 -93 32 -93 4 0 8 -14 8 -31 0 -35 13 -63 45 -99 12 -14 34 -46 48 -71 26 -46 64 -79 90 -79 7 0 25 -17 38 -37 28 -44 90 -81 145 -87 21 -2 58 -11 82 -20 59 -22 247 -18 284 6 13 9 41 16 62 16 48 0 124 46 145 89 10 19 26 33 41 36 33 7 79 52 98 97 8 19 23 41 34 49 24 16 48 70 48 106 0 14 4 25 8 25 15 0 32 49 32 88 0 21 -7 64 -15 95 -8 32 -15 71 -15 87 0 48 -17 78 -55 95 -23 12 -37 26 -41 44 -3 14 -18 80 -34 146 -16 66 -31 150 -34 188 -9 117 -22 144 -107 229 -69 69 -84 79 -145 97 -94 27 -203 34 -287 16z m276 -35 c74 -28 154 -101 196 -179 20 -38 39 -96 51 -158 10 -54 25 -120 34 -146 12 -41 12 -48 1 -43 -34 13 -36 -69 -3 -146 11 -26 17 -52 13 -58 -4 -6 -2 -17 4 -24 13 -15 17 -104 7 -155 -4 -19 -15 -45 -26 -58 -10 -13 -21 -37 -25 -52 -4 -19 -16 -33 -35 -41 -16 -6 -36 -20 -46 -31 -23 -25 -40 -24 -99 8 -55 29 -69 32 -228 39 -74 4 -113 2 -122 -6 -8 -6 -22 -9 -32 -6 -12 4 -39 -7 -73 -29 -30 -19 -58 -35 -63 -35 -19 0 -126 76 -126 89 -1 8 -14 35 -30 60 -22 34 -31 63 -35 111 -6 62 -2 84 31 180 33 97 32 167 -2 153 -10 -3 -9 10 5 54 10 32 23 94 30 138 29 184 149 321 310 355 69 14 198 4 263 -20z"/>
 <path d="M809 1438 c-93 -63 -123 -107 -142 -212 -9 -47 -27 -111 -41 -141 -14 -30 -23 -55 -20 -55 13 0 66 136 74 189 4 32 16 75 25 95 34 72 162 162 218 154 15 -2 24 -12 28 -33 6 -28 7 -28 8 -4 3 63 -61 66 -150 7z"/>
 <path d="M1046 1464 c-3 -9 -6 -21 -5 -27 0 -7 4 -2 9 11 12 29 46 29 102 0 58 -30 143 -116 151 -153 4 -17 13 -60 21 -96 13 -60 69 -189 81 -189 3 0 -9 28 -26 62 -18 35 -37 96 -45 140 -17 96 -41 145 -95 192 -79 67 -178 98 -193 60z"/>
 <path d="M971 1393 c-13 -14 -12 -18 4 -29 23 -17 27 -17 50 0 17 12 18 15 3 30 -21 20 -39 20 -57 -1z"/>
 <path d="M882 1323 c-20 -38 30 -94 94 -108 22 -5 19 -2 -14 14 -24 11 -41 25 -37 31 3 5 -1 10 -9 10 -8 0 -20 9 -26 19 -8 16 -6 23 12 35 18 13 19 16 6 16 -10 0 -21 -8 -26 -17z"/>
 <path d="M993 1314 c16 -9 31 -13 35 -10 3 3 0 6 -7 6 -7 0 -9 5 -6 10 4 6 -6 10 -22 10 l-28 -1 28 -15z"/>
 <path d="M1085 1299 l-50 -6 43 -1 c30 -2 42 -6 39 -14 -2 -7 -15 -12 -28 -10 -23 2 -23 2 -4 -12 17 -12 18 -16 5 -32 -14 -17 -14 -17 12 0 22 14 49 73 36 79 -1 1 -25 0 -53 -4z"/>
 <path d="M968 1273 c17 -2 47 -2 65 0 17 2 3 4 -33 4 -36 0 -50 -2 -32 -4z"/>
 <path d="M710 1023 c-36 -7 -69 -41 -81 -86 -14 -51 -6 -59 9 -9 16 51 42 73 94 79 61 7 121 -12 159 -50 34 -33 31 -19 -4 20 -29 33 -120 56 -177 46z"/>
 <path d="M1154 1006 c-17 -8 -39 -24 -48 -37 -26 -38 -18 -39 18 -3 31 31 39 34 98 35 44 0 57 3 43 9 -30 13 -76 11 -111 -4z"/>
 <path d="M1362 908 c14 -48 -1 -104 -39 -143 -23 -23 -24 -26 -6 -17 40 22 63 62 63 111 0 26 -7 56 -15 67 -13 17 -13 15 -3 -18z"/>
 <path d="M1082 880 c0 -19 2 -27 5 -17 2 9 2 25 0 35 -3 9 -5 1 -5 -18z"/>
 <path d="M631 865 c-1 -25 41 -116 61 -133 8 -6 37 -19 64 -27 45 -13 50 -13 88 8 41 23 86 78 86 106 0 9 -9 -3 -21 -26 -27 -54 -91 -89 -146 -78 -48 9 -98 62 -117 123 -8 26 -15 38 -15 27z"/>
 <path d="M1090 832 c0 -29 52 -102 74 -102 6 0 -2 12 -18 26 -15 15 -34 41 -42 58 -7 17 -13 25 -14 18z"/>
 </g>

</svg>