<?xml version="1.0" encoding="UTF-8" standalone="no"?>
<!-- Created with Inkscape (http://www.inkscape.org/) -->

<svg
   xmlns:dc="http://purl.org/dc/elements/1.1/"
   xmlns:cc="http://creativecommons.org/ns#"
   xmlns:rdf="http://www.w3.org/1999/02/22-rdf-syntax-ns#"
   xmlns:svg="http://www.w3.org/2000/svg"
   xmlns="http://www.w3.org/2000/svg"
   xmlns:sodipodi="http://sodipodi.sourceforge.net/DTD/sodipodi-0.dtd"
   xmlns:inkscape="http://www.inkscape.org/namespaces/inkscape"
   version="1.1"
   id="svg68"
   width="266.66666"
   height="266.66666"
   viewBox="0 0 266.66666 266.66666"
   sodipodi:docname="Trustee2smirk.svg"
   inkscape:version="0.92.2 (5c3e80d, 2017-08-06)">
  <metadata
     id="metadata74">
    <rdf:RDF>
      <cc:Work
         rdf:about="">
        <dc:format>image/svg+xml</dc:format>
        <dc:type
           rdf:resource="http://purl.org/dc/dcmitype/StillImage" />
        <dc:title></dc:title>
      </cc:Work>
    </rdf:RDF>
  </metadata>
  <defs
     id="defs72" />
  <sodipodi:namedview
     pagecolor="#ffffff"
     bordercolor="#666666"
     borderopacity="1"
     objecttolerance="10"
     gridtolerance="10"
     guidetolerance="10"
     inkscape:pageopacity="0"
     inkscape:pageshadow="2"
     inkscape:window-width="640"
     inkscape:window-height="480"
     id="namedview70"
     showgrid="false"
     inkscape:zoom="0.88500003"
     inkscape:cx="133.33333"
     inkscape:cy="133.33333"
     inkscape:window-x="0"
     inkscape:window-y="0"
     inkscape:window-maximized="0"
     inkscape:current-layer="svg68" />
  <path
     inkscape:connector-curvature="0"
     id="path94"
     d="M 1.4745756,134.51286 V 1.1795349 H 134.80791 268.14124 V 134.51286 267.84619 H 134.80791 1.4745756 Z"
     style="fill:#fdfcfc;stroke-width:1.33333325" />
  <path
     inkscape:connector-curvature="0"
     id="path92"
     d="m 24.673243,262.17952 c 1.331735,-8.64608 7.468911,-19.92644 12.355483,-22.70985 2.321449,-1.32231 10.121449,-3.84003 17.333333,-5.59495 18.472442,-4.49501 42.957003,-13.30617 45.09312,-16.22749 0.990751,-1.35493 2.098571,-2.16445 2.461831,-1.79895 0.36325,0.36552 1.2999,5.16458 2.08145,10.66458 0.78154,5.5 3.13771,15.4 5.23591,22 l 3.81493,12 2.76933,-5.39798 c 1.52312,-2.96888 5.73039,-8.5519 9.34947,-12.4067 l 6.58015,-7.00874 -9.87881,-5.42181 c -5.43335,-2.98199 -10.82399,-6.86432 -11.97921,-8.62741 -1.15522,-1.76308 -2.50482,-7.11296 -2.99912,-11.88862 -0.89507,-8.64777 -0.93455,-8.71534 -9.72691,-16.65077 -8.679157,-7.83325 -9.757985,-9.67852 -12.984325,-22.20884 -0.943913,-3.66592 -2.041226,-5.38196 -3.16559,-4.95049 -3.22089,1.23597 -8.485065,-4.4884 -10.128103,-11.01349 -0.873977,-3.47088 -3.649125,-9.64827 -6.166996,-13.72755 -6.695859,-10.84815 -5.853658,-22.6976 1.613235,-22.6976 1.627424,0 1.849712,-1.30602 1.191421,-7 -1.328752,-11.49323 2.206108,-29.892015 7.781399,-40.501811 3.913316,-7.447054 6.637958,-10.570921 14.398602,-16.508337 5.264565,-4.027748 11.809717,-8.606042 14.544777,-10.173986 19.72589,-11.30838 47.38932,-10.238677 65.40949,2.529284 19.72959,13.979148 22.71108,17.192477 27.62441,29.772434 3.45027,8.833941 6.07488,27.045676 5.09279,35.337926 -0.59844,5.05289 -0.35528,6.54449 1.06685,6.54449 3.49125,0 6.03241,4.10112 6.03241,9.73561 0,3.97409 -1.28428,7.63026 -4.533,12.90476 -2.49314,4.0478 -5.25179,10.05963 -6.13035,13.35963 -1.9394,7.28471 -3.43407,9.22979 -8.82376,11.48275 -3.41899,1.42917 -4.31023,2.71466 -5.03814,7.26676 -1.3026,8.146 -3.8161,12.12906 -12.7637,20.22617 -7.98162,7.22295 -8.04438,7.33703 -8.04438,14.62152 0,10.42972 -3.48033,15.06908 -16.34857,21.793 l -10.31576,5.3902 5.96159,5.85085 c 3.27886,3.21797 7.60124,8.98257 9.60528,12.81024 l 3.6437,6.95939 3.06858,-9.53378 c 1.68772,-5.24357 3.92549,-14.33377 4.97282,-20.20044 1.04734,-5.86666 2.32026,-11.74921 2.82871,-13.07233 0.87783,-2.28428 1.06724,-2.27208 3.75407,0.24167 3.2422,3.03334 34.58305,13.82244 47.49625,16.35057 4.76666,0.93323 10.90741,3.07469 13.6461,4.75884 5.80887,3.57213 11.33112,13.41767 12.56176,22.39616 l 0.82127,5.99176 h -44.8479 c -44.3212,0 -44.8479,-0.0321 -44.8479,-2.73288 0,-2.97205 -2.86822,-9.14791 -6.93374,-14.92973 -2.51932,-3.58287 -2.64647,-3.6119 -5.84027,-1.33334 -3.37056,2.40467 -3.44017,3.39776 -1.07445,15.32928 l 0.72701,3.66667 h -8.77261 c -8.22597,0 -8.76896,-0.18693 -8.71408,-3 0.0322,-1.65 0.86578,-5.26249 1.85243,-8.02776 1.66898,-4.67764 1.59782,-5.16509 -1.02187,-7 -1.54867,-1.08473 -3.22499,-1.97224 -3.72515,-1.97224 -1.52063,0 -9.16393,14.44025 -9.16393,17.31313 0,2.64034 -0.77654,2.68687 -44.837083,2.68687 H 23.800421 Z M 143.47458,185.17953 c 2.10773,-2.2 3.08457,-4 2.17076,-4 -0.91886,0 -1.23514,-0.68983 -0.70763,-1.54336 0.66877,-1.08211 -0.005,-1.28679 -2.25464,-0.68488 -1.76467,0.47217 -6.39391,0.86669 -10.28718,0.8767 -4.37551,0.0107 -6.76401,0.52738 -6.25465,1.35154 0.45323,0.73333 3.33864,1.35157 6.41203,1.37388 4.58544,0.0333 5.15203,0.29406 3.15805,1.45364 -1.33645,0.7772 -3.88645,1.04752 -5.66666,0.60072 -4.07256,-1.02215 -4.2364,1.01548 -0.23675,2.94444 5.36379,2.58685 9.62368,1.84729 13.66667,-2.37268 z m -43.06182,-56.50852 c -0.427761,-3.66409 -1.001942,-4.38416 -3.065598,-3.8445 -3.402106,0.88967 -3.21009,3.73194 0.424086,6.27741 1.629839,1.14158 3.009362,2.07561 3.065602,2.07561 0.0562,0 -0.1346,-2.02884 -0.42409,-4.50852 z m 18.39515,2.25777 c 0,-0.33352 -0.9,-1.5064 -2,-2.6064 -1.1,-1.1 -2,-1.40621 -2,-0.68047 0,0.72573 -0.34739,2.22481 -0.77199,3.33128 -0.57974,1.51079 -0.0817,1.83125 2,1.28688 1.5246,-0.39869 2.77199,-0.99777 2.77199,-1.33129 z m 36.92924,-0.89918 c -1.21441,-2.57332 -1.80163,-2.83483 -3.20788,-1.42857 -2.63257,2.63257 -1.97005,3.39986 3.81985,4.42383 0.48102,0.0851 0.20563,-1.2628 -0.61197,-2.99526 z m 18.80199,-2.50365 c 0.21885,-1.1009 -0.77382,-2.30805 -2.20592,-2.68255 -2.13928,-0.55944 -2.69738,0.12052 -3.12824,3.81119 -0.49787,4.26454 -0.38611,4.40044 2.20592,2.68255 1.50169,-0.99526 2.9094,-2.71029 3.12824,-3.81119 z"
     style="fill:#ebc4b8;stroke-width:1.33333325" />
  <path
     inkscape:connector-curvature="0"
     id="path90"
     d="m 24.840921,262.17952 c 0.51374,-3.11666 2.462581,-8.8141 4.330758,-12.66097 4.099264,-8.44101 9.369548,-11.93624 21.967213,-14.56853 15.906577,-3.32371 47.669015,-14.35364 47.669015,-16.55372 0,-0.66923 0.9,-1.21678 2.000003,-1.21678 1.1,0 2.01189,0.75 2.02641,1.66667 0.0987,6.23017 3.168,20.91429 6.59582,31.55597 6.29132,19.53146 11.16638,17.44403 -40.73943,17.44403 H 23.906847 Z m 100.633659,3.87858 c 0,-0.98346 0.84192,-4.58559 1.87093,-8.00475 1.82449,-6.06231 1.78866,-6.28137 -1.44317,-8.82353 l -3.3141,-2.60688 3.51307,-4.60588 c 5.54823,-7.27411 9.10493,-7.90738 15.27096,-2.71902 4.77308,4.01628 5.27177,7.82844 1.30201,9.953 -2.45202,1.31228 -2.69132,2.27164 -1.92405,7.71358 0.48193,3.4182 1.18249,7.2649 1.55681,8.54824 0.59923,2.05445 -0.36604,2.33333 -8.07595,2.33333 -6.43346,0 -8.75651,-0.47437 -8.75651,-1.78809 z m 30.68186,0.12146 c 0.008,-0.91666 1.82807,-7.66666 4.04379,-15 2.21572,-7.33333 4.62619,-17.52064 5.35659,-22.63846 1.50958,-10.57739 2.79101,-12.67875 5.86008,-9.60968 2.40242,2.40241 39.61315,14.83593 48.72434,16.28064 9.69645,1.53752 16.73095,6.46001 20.57529,14.39789 1.83874,3.79663 3.73818,9.45295 4.221,12.56961 l 0.87787,5.66667 h -44.83708 c -34.98888,0 -44.83374,-0.36608 -44.82188,-1.66667 z m -31.34853,-44.90498 c -4.60746,-1.11192 -9.11334,-3.38454 -14.33333,-7.22924 -2.97527,-2.1914 -3.66667,-3.74211 -3.66667,-8.22387 0,-5.03322 -0.54184,-5.91234 -6.10766,-9.90941 -8.430408,-6.05427 -13.191543,-13.14727 -15.210232,-22.65976 -1.590461,-7.4946 -1.974901,-8.07277 -5.367709,-8.07277 -4.547822,0 -6.171836,-1.91406 -8.621992,-10.16186 -1.062805,-3.57764 -3.771668,-9.40448 -6.019695,-12.94853 -5.237685,-8.25727 -6.659473,-17.22095 -3.317306,-20.914 1.315174,-1.45326 3.116414,-2.64228 4.002757,-2.64228 1.142999,0 1.614252,-3.58576 1.620889,-12.33333 0.01551,-20.436038 6.164216,-37.99499 16.282816,-46.499032 2.605971,-2.190154 6.234105,-5.233467 8.062521,-6.762919 26.974531,-22.563915 59.776661,-21.491383 88.997681,2.909957 14.86048,12.409411 20.34459,25.788326 20.34459,49.632124 0,10.04545 0.41323,13.0532 1.79335,13.0532 0.98635,0 2.86604,1.1853 4.17709,2.634 3.35802,3.71057 2.11964,12.61545 -2.77692,19.96808 -2.1231,3.18805 -5.06018,9.45677 -6.52685,13.93052 -2.37069,7.23125 -3.18462,8.30091 -7.33333,9.63729 -4.34871,1.4008 -4.79045,2.07036 -6.48345,9.82684 -1.83758,8.41883 -6.14527,14.12994 -17.84988,23.66522 -3.22347,2.62602 -3.66914,3.91485 -3.68708,10.66257 -0.014,5.26674 -0.4104,7.0588 -1.26311,5.71041 -1.05155,-1.66279 -1.74168,-1.49628 -4.48661,1.08245 -6.06095,5.69396 -21.10622,8.3288 -32.22987,5.64434 z m 22.96956,-13.86316 c 6.82355,-2.48214 28.33788,-19.86747 31.19692,-25.20963 2.52916,-4.72578 10.9052,-40.38078 10.66723,-45.40808 -0.1316,-2.77885 0.67705,-8.13775 1.79689,-11.90866 2.69451,-9.07342 2.56309,-16.19838 -0.60937,-33.038851 -4.44367,-23.588358 -6.47807,-29.035351 -13.29879,-35.606767 -13.2288,-12.745267 -34.26227,-19.394495 -51.92591,-16.415137 -17.62161,2.972271 -35.118072,14.363231 -40.185653,26.162624 -2.275148,5.297473 -9.277546,40.122531 -9.277546,46.140071 0,1.63138 1.297501,8.05309 2.883336,14.27046 1.816113,7.12018 2.377112,11.47304 1.51566,11.76018 -0.830624,0.27688 0.785884,8.94408 4.116664,22.07223 5.354418,21.10425 5.627167,21.75847 11.513514,27.61633 8.781665,8.73918 20.516425,17.70453 25.570675,19.536 5.63148,2.04065 20.46113,2.05729 26.03638,0.0292 z m -18.89526,-18.555 c -2.89247,-1.65644 -6.31197,-4.81137 -7.5989,-7.01097 l -2.33986,-3.99926 9.59889,0.6351 c 8.34917,0.5524 8.77008,0.69229 3.23286,1.07438 -7.33677,0.5063 -7.25381,2.85774 0.1114,3.15744 4.81157,0.1958 4.78752,0.21863 -1.07869,1.02407 l -6,0.82381 4.66666,3.00506 c 3.06948,1.97656 5.80752,2.74973 8,2.25906 3.95448,-0.885 10.45934,-7.60358 8.11748,-8.3842 -1.17974,-0.39325 -1.16513,-0.99905 0.0597,-2.47489 1.37885,-1.6614 1.03761,-1.84055 -2.27768,-1.19569 l -3.89951,0.75848 4,-1.5153 c 2.2,-0.8334 5.05,-2.42998 6.33333,-3.54796 2.9471,-2.56733 2.92423,-1.86936 -0.17264,5.2701 -4.97189,11.4621 -12.22998,15.0017 -20.75305,10.12077 z m 2.05744,-26.23604 -4.46174,-3.64149 3.165,-4.88318 c 3.97706,-6.13606 5.20705,-6.20845 4.24005,-0.24952 -0.73039,4.5009 -0.609,4.66667 3.41716,4.66667 4.98554,0 5.04956,0.25168 1.13787,4.47248 l -3.0366,3.27653 z M 96.510356,133.2159 c -4.219062,-2.57247 -6.778744,-7.88287 -5.10501,-10.59103 1.320533,-2.13666 11.085224,-4.33293 17.508274,-3.93795 10.16503,0.6251 7.6754,-1.04065 -3.99558,-2.67333 -11.567498,-1.61822 -19.441502,-3.76339 -19.446034,-5.29783 -0.0047,-1.5601 35.776464,0.36582 37.422234,2.01426 1.89896,1.90204 0.59074,4.2531 -3.22277,5.79176 l -2.86356,1.15538 2.9244,0.0845 c 3.64384,0.10531 7.01384,4.69934 6.07653,8.28362 -1.04399,3.99225 -4.07515,4.50916 -7.51141,1.28096 l -3.04147,-2.85731 -1.60535,3.52335 c -1.47589,3.23923 -1.38654,3.46613 1.10799,2.81379 1.49233,-0.39025 3.00418,-0.23893 3.35967,0.33628 0.3555,0.5752 -1.2189,1.41887 -3.49867,1.87483 -7.45341,1.49068 -13.73487,0.86588 -18.109244,-1.80129 z m 4.397584,-4.69912 c -0.10367,-4.83216 -2.05595,-5.92242 -6.065093,-3.38706 -1.656968,1.04785 -1.463743,1.77631 1.232419,4.64625 4.220714,4.49274 4.951994,4.30221 4.832674,-1.25919 z m 52.2107,6.37223 c -2.0291,-0.3067 -3.34233,-1.11901 -2.91829,-1.80512 0.42404,-0.68612 2.24513,-0.8775 4.04688,-0.42529 3.03839,0.76259 3.18363,0.57955 2.00341,-2.52467 -0.69986,-1.84078 -0.86078,-3.83879 -0.35761,-4.44002 0.50319,-0.60122 -0.28512,-0.21292 -1.75179,0.86291 -1.46666,1.07582 -3.3299,2.80353 -4.14052,3.83935 -1.88945,2.41436 -5.2846,1.12572 -6.19374,-2.35088 -0.94272,-3.60496 2.45046,-8.19438 6.07653,-8.21875 2.84965,-0.0191 2.84189,-0.0618 -0.30364,-1.66667 -4.14436,-2.11453 -4.85525,-4.35541 -1.82831,-5.7632 2.86744,-1.3336 36.3965,-2.91112 36.39248,-1.71224 -0.005,1.55305 -7.2684,3.67985 -18.0028,5.27154 -11.82201,1.75297 -16.49284,3.86642 -6.40213,2.89683 7.6198,-0.73216 17.15048,1.54578 18.22925,4.357 1.17947,3.07363 -1.93186,8.62208 -6.02049,10.73639 -3.49017,1.80484 -10.72835,2.16727 -18.82923,0.94282 z m 21.0226,-7.85385 c 0,-1.36718 -0.98077,-2.67466 -2.1795,-2.90551 -1.61094,-0.31024 -2.3232,0.81114 -2.73035,4.29866 -0.52496,4.49661 -0.42251,4.63318 2.17951,2.90551 1.50169,-0.99709 2.73034,-2.93149 2.73034,-4.29866 z m -93.303858,31.81103 c -0.513681,-2.75 -1.030456,-5 -1.148388,-5 -0.117933,0 -1.378708,-0.64286 -2.801728,-1.42858 -3.531797,-1.9501 -4.223716,-4.5745 -1.044645,-3.96226 2.06396,0.39748 2.433572,-0.1228 1.936026,-2.72561 -0.33822,-1.76928 -1.209193,-3.21688 -1.935494,-3.21688 -0.726302,0 -0.975187,-0.9 -0.553078,-2 0.422111,-1.1 0.186304,-2 -0.524014,-2 -0.710317,0 -1.291487,2.13541 -1.291487,4.74536 0,3.45519 -0.453132,4.46609 -1.666666,3.71823 -0.916667,-0.56491 -0.623434,0.56824 0.651629,2.51812 1.275061,1.94988 2.002785,4.36744 1.617164,5.37236 -0.774601,2.01857 4.116653,8.97926 6.309701,8.97926 0.877533,0 1.042763,-1.83189 0.45098,-5 z m 112.589928,1.42392 c 1.54712,-1.96684 2.49743,-4.39828 2.11181,-5.40318 -0.38562,-1.00492 0.24524,-3.27147 1.40191,-5.03678 2.00104,-3.05396 1.96796,-3.18365 -0.68171,-2.67337 -1.53161,0.29497 -2.78474,-0.0292 -2.78474,-0.72048 0,-0.69123 0.6,-1.25677 1.33333,-1.25677 0.73333,0 1.32964,-1.65 1.32512,-3.66667 l -0.008,-3.66667 -1.73004,3.33334 c -3.47699,6.69928 -3.60973,7.85129 -0.84329,7.31852 3.58237,-0.68991 3.23961,1.31314 -0.72503,4.23693 -3.41013,2.51485 -6.20719,11.11121 -3.61532,11.11121 0.77177,0 2.66905,-1.60924 4.21617,-3.57608 z M 70.878213,134.99461 c 0.7357,-1.93504 1.090221,-3.76567 0.787825,-4.06806 -0.302396,-0.3024 -1.18797,1.28081 -1.967944,3.51825 -1.733862,4.97375 -0.687253,5.46137 1.180119,0.54981 z m 128.596367,-1.81508 c -0.50059,-1.5772 -1.21015,-2.56763 -1.57682,-2.20096 -0.36666,0.36666 -0.2571,1.95709 0.24348,3.53429 0.50059,1.5772 1.21015,2.56763 1.57682,2.20096 0.36666,-0.36667 0.2571,-1.95709 -0.24348,-3.53429 z M 69.56237,130.94861 c 1.053866,-2.77188 0.898322,-4.02106 -0.699668,-5.61905 -1.850837,-1.85084 -2.054794,-1.49705 -2.054794,3.56425 0,6.48457 0.833785,7.10656 2.754462,2.0548 z M 202.538,126.17953 c -0.44475,-2.93003 -0.48989,-2.9378 -1.93517,-0.33334 -1.05331,1.89809 -1.07428,3.6274 -0.0728,6 1.40172,3.32075 1.40902,3.322 1.93518,0.33334 0.29048,-1.65 0.32323,-4.35 0.0728,-6 z M 68.843897,121.23776 c -0.433431,-0.70131 -1.668841,-0.93711 -2.745356,-0.52402 -2.756151,1.05764 -2.431364,1.79912 0.788056,1.79912 1.509945,0 2.390731,-0.5738 1.9573,-1.2751 z m 136.630673,0.75109 c 0,-0.28821 -0.9,-0.86938 -2,-1.29149 -1.1,-0.42211 -2,-0.1863 -2,0.52401 0,0.71032 0.9,1.29149 2,1.29149 1.1,0 2,-0.23581 2,-0.52401 z"
     style="fill:#dcac9d;stroke-width:1.33333325" />
  <path
     inkscape:connector-curvature="0"
     id="path88"
     d="m 24.760197,262.84619 c 0.50365,-2.75 2.445697,-8.43515 4.315658,-12.63365 4.215231,-9.46422 8.867371,-12.47486 24.39872,-15.78972 13.509909,-2.88343 42.426844,-12.70303 45.534296,-15.46251 2.816909,-2.50147 3.212789,-1.73291 4.962569,9.63444 0.79711,5.17837 3.26141,15.30216 5.47622,22.49732 2.2148,7.19515 4.02692,13.90829 4.02692,14.91811 0,1.5227 -7.64731,1.83601 -44.81506,1.83601 H 23.844466 Z m 100.730203,4 c 0.009,-0.55 0.89038,-4.2864 1.95928,-8.30312 1.51332,-5.68675 1.58359,-7.52272 0.31751,-8.29535 -5.81377,-3.54785 -5.80883,-3.41908 -0.34584,-9.01369 2.8936,-2.96331 6.27587,-5.38784 7.51615,-5.38784 2.85276,0 10.53708,7.08476 10.53708,9.71493 0,1.08811 -1.48071,2.94858 -3.29047,4.13438 -1.80976,1.1858 -3.01183,2.9048 -2.67124,3.82001 0.34057,0.9152 1.14381,4.51401 1.78499,7.99735 l 1.16577,6.33333 h -8.49453 c -4.67199,0 -8.4874,-0.45 -8.4787,-1 z m 30.65084,-0.21161 c 0,-0.66639 2.06198,-8.31639 4.58218,-17 2.5202,-8.68362 4.9873,-18.86156 5.48246,-22.61766 1.18074,-8.95676 2.56142,-11.2834 4.88271,-8.22813 1.97472,2.59912 33.1877,13.28736 47.05265,16.11223 10.87911,2.21653 17.28789,5.73537 20.71781,11.37542 2.4523,4.03247 6.61552,16.50024 6.61552,19.81175 0,1.42012 -8.58461,1.758 -44.66666,1.758 -25.89744,0 -44.66667,-0.50913 -44.66667,-1.21161 z m 4.96947,-53.97702 c -0.94179,-2.30476 -1.86044,-2.42225 -10.66667,-1.36417 -5.29988,0.63677 -13.83613,0.94673 -18.96946,0.68877 -5.13334,-0.25794 -12.33334,-0.54406 -16,-0.63582 -7.54045,-0.18868 -8.61743,-1.07378 -8.64625,-7.10574 -0.0169,-3.52457 -1.12882,-5.1109 -6.35376,-9.06421 -7.528324,-5.6961 -13.666663,-13.41405 -13.666663,-17.18357 0,-1.7674 1.04467,-0.64003 3,3.23752 2.075741,4.11632 6.697036,8.92471 15.000003,15.60727 14.26572,11.48161 22.07528,14.46534 34.47037,13.16981 10.527,-1.1003 17.82642,-5.51408 34.44468,-20.82789 l 6.51108,-6 5.72754,-22.29759 c 3.65469,-14.22797 5.21004,-22.47007 4.29765,-22.7742 -0.98823,-0.3294 -0.85796,-2.91433 0.42176,-8.36908 3.13121,-13.34659 3.16461,-21.10335 0.16635,-38.632895 -3.8092,-22.270802 -6.87399,-30.004282 -14.5864,-36.806515 -21.26616,-18.756403 -51.70782,-20.903729 -75.54921,-5.329174 -14.179019,9.262548 -15.961169,12.623847 -21.31892,40.209457 -3.756472,19.341057 -4.008985,26.412757 -1.266001,35.454757 2.329185,7.67794 2.598328,13.87857 0.602409,13.87857 -0.776612,0 -1.099571,0.50556 -0.717685,1.12347 1.289889,2.08708 8.79752,30.90181 8.658572,33.2321 -0.07579,1.2711 -0.735396,0.0611 -1.465787,-2.6889 -1.031284,-3.8829 -1.991196,-5 -4.296444,-5 -3.945499,0 -8.26177,-4.89884 -9.398198,-10.66667 -0.505707,-2.56667 -2.89232,-7.96667 -5.303584,-12 -7.122384,-11.91365 -7.414472,-21.21225 -0.732932,-23.33288 2.414472,-0.76633 2.668081,-2.01566 2.668081,-13.1435 0,-19.511784 6.220679,-38.312537 15.059052,-45.51296 12.718105,-10.361153 16.794149,-13.232215 23.534967,-16.577435 11.62747,-5.770284 18.756,-7.215031 31.77392,-6.439658 15.92252,0.94838 24.57416,4.654636 42.16128,18.061384 14.34601,10.936037 19.50162,22.664295 20.49001,46.611719 0.37077,8.98333 1.19312,16.33333 1.82745,16.33333 2.42137,0 6.48665,5.48083 6.48665,8.74536 0,1.87661 -0.54404,3.07578 -1.20898,2.66482 -0.66495,-0.41095 -0.90486,0.41584 -0.53312,1.83732 0.40784,1.55958 -1.21744,5.65818 -4.09836,10.33517 -2.62583,4.26286 -5.16648,9.85066 -5.64591,12.41733 -1.07948,5.77909 -5.33877,10.66667 -9.29552,10.66667 -2.4776,0 -3.13917,0.9612 -3.90018,5.66666 -1.69172,10.46014 -5.27839,16.45438 -13.80974,23.07956 -7.99252,6.20675 -8.05458,6.30782 -8.4466,13.75324 -0.26892,5.10743 -0.72372,6.69588 -1.42545,4.97857 z m -78.638475,-51.1447 c -0.35568,-1.28333 -2.019789,-7.28333 -3.698022,-13.33333 -3.23341,-11.65639 -5.299639,-14.09496 -5.299639,-6.25464 0,3.17752 -0.495937,4.43884 -1.50105,3.81765 -0.962754,-0.59501 -1.24141,-3.44339 -0.777038,-7.94272 1.0341,-10.01946 -3.346474,-21.54252 -6.34508,-16.69067 -0.477149,0.77204 -0.282133,1.40371 0.433368,1.40371 0.715502,0 1.300911,2.66986 1.300911,5.93301 0,3.26316 0.390433,7.16316 0.867628,8.66667 1.380552,4.34973 -0.586296,3.16583 -2.657581,-1.59968 -1.035895,-2.38333 -1.906931,-3.32937 -1.935635,-2.1023 -0.02871,1.22707 1.311055,3.92707 2.977241,5.99999 3.655486,4.54786 7.637236,12.98566 7.637236,16.1842 0,3.62802 3.864948,8.25144 6.89778,8.25144 1.973251,0 2.564489,-0.65697 2.099881,-2.33333 z m 111.230685,0.12667 c 1.34108,-1.21364 2.43832,-3.63755 2.43832,-5.38644 0,-3.45066 4.21096,-12.50047 8.18327,-17.58671 1.36586,-1.74889 2.45937,-3.84889 2.43001,-4.66667 -0.0293,-0.81776 -0.94852,0.16315 -2.04257,2.17982 -1.09407,2.01666 -2.21315,3.66666 -2.48686,3.66666 -1.09265,0 1.06196,-16.72315 2.25471,-17.5 0.76916,-0.50096 0.64456,-1.22573 -0.31239,-1.81715 -2.10985,-1.30397 -3.26433,0.21638 -5.11335,6.73383 -1.03836,3.66002 -1.1256,6.85019 -0.269,9.83696 0.8225,2.86792 0.79852,5.297 -0.0683,6.91667 -1.59088,2.97259 -3.18941,3.35265 -2.09392,0.49784 0.4218,-1.09917 0.25475,-3.34917 -0.37121,-5 l -1.13814,-3.00148 -1.45005,3.33333 c -0.79753,1.83334 -2.37773,7.06404 -3.51155,11.6238 -1.1338,4.55975 -2.41424,9.20975 -2.84538,10.33334 -1.07352,2.79752 3.24641,2.6869 6.39638,-0.16379 z m -70.53633,21.85865 c -2.8402,-3.67476 -3.14276,-4.98532 -1.15095,-4.98532 2.39504,0 5.35136,4.83041 3.61362,5.9044 -0.65223,0.40309 -1.76043,-0.0107 -2.46267,-0.91908 z m 23.64132,-4.5554 c 0,-1.52353 0.98655,-3.58883 2.19233,-4.58953 1.96223,-1.62852 2.08644,-1.47072 1.18347,1.5034 -1.42129,4.68132 -3.3758,6.46813 -3.3758,3.08613 z m -15.76758,-16.84919 c -3.56494,-3.7947 -3.57512,-4.30069 -0.1735,-8.62514 l 2.72559,-3.46503 -0.29813,4.58805 c -0.16397,2.52343 0.43062,5.93806 1.32132,7.58806 2.10334,3.89638 0.12115,3.84873 -3.57528,-0.0859 z m -30.38209,-27.1643 c -4.418197,-0.86873 -10.261774,-7.68628 -9.269074,-10.814 2.069081,-6.5191 19.604714,-5.62212 27.085414,1.38547 3.50716,3.28536 4.10984,6.37853 0.66666,3.42156 -3.4608,-2.97211 -6.24969,-4.4315 -5.18907,-2.71539 1.3948,2.25683 -1.83544,7.99926 -4.97346,8.84138 -2.96909,0.79679 -3.71716,0.7861 -8.32047,-0.11906 z m 0.82223,-3.74266 c -0.90968,-1.0961 -1.33932,-3.1961 -0.95476,-4.66667 0.765,-2.92534 -2.133966,-3.63454 -5.682863,-1.39024 -1.656968,1.04785 -1.463743,1.77631 1.232419,4.64625 3.516706,3.74336 8.398564,5.01744 5.405204,1.41066 z m 58.32835,3.78088 c -1.28283,-0.35741 -2.68532,-2.25592 -3.11663,-4.21891 -0.43131,-1.96299 -0.89607,-4.06213 -1.0328,-4.66475 -0.13673,-0.60262 -1.88424,0.19093 -3.88337,1.76344 -1.99912,1.57252 -3.63478,2.47612 -3.63478,2.00802 0,-7.75574 20.85126,-13.39927 28.02979,-7.58644 3.26671,2.64522 2.62823,5.4427 -2.23963,9.81276 -2.64334,2.37304 -10.32741,3.94324 -14.12258,2.88588 z m 13.6086,-5.35148 c 2.16758,-2.75564 2.41622,-3.80896 1.09677,-4.64625 -2.4762,-1.57132 -6.06761,-1.36298 -7.16693,0.41576 -0.62483,1.01099 -0.36154,1.17481 0.7671,0.47727 1.30406,-0.80595 1.57019,-0.0518 1.1036,3.12732 -0.75248,5.12696 0.51082,5.31524 4.19946,0.6259 z m -65.94284,-13.46162 c -7.33334,-1.06184 -15.13334,-2.74468 -17.33334,-3.73964 -3.589878,-1.62355 -2.261482,-1.77962 12.95615,-1.52214 13.42848,0.22721 17.39528,0.72682 19.06691,2.40143 4.09059,4.09788 -0.27381,4.94771 -14.68972,2.86035 z m 40.52262,0.93609 c -2.71609,-1.67864 -0.19144,-5.06134 4.4073,-5.90519 2.42188,-0.44441 10.70341,-0.62751 18.40341,-0.4069 13.32407,0.38175 13.74249,0.47965 8.66667,2.02759 -8.02844,2.44839 -29.67984,5.39544 -31.47738,4.2845 z"
     style="fill:#c28875;stroke-width:1.33333325" />
  <path
     inkscape:connector-curvature="0"
     id="path86"
     d="m 24.886446,262.84619 c 1.447145,-8.35497 6.668376,-18.417 11.448625,-22.06308 2.972472,-2.26721 8.706372,-4.35907 16.77617,-6.12033 6.743104,-1.47171 14.833396,-3.57048 17.978428,-4.66395 20.942753,-7.28139 25.975498,-9.27741 28.023773,-11.11449 2.812918,-2.52286 2.996708,-2.11067 4.927318,11.05066 0.76017,5.18219 3.19029,15.08219 5.40027,22 2.20999,6.91782 4.02162,13.32786 4.02585,14.24452 0.006,1.30036 -9.8225,1.66667 -44.71939,1.66667 H 24.020407 Z m 101.358794,1.33333 c 0.45181,-2.01666 1.36119,-5.76666 2.02085,-8.33333 1.19706,-4.65765 0.0736,-6.7008 -4.64726,-8.45191 -2.0612,-0.76456 8.54401,-11.54809 11.35711,-11.54809 2.24641,0 10.49864,7.2342 10.49864,9.20348 0,0.54909 -1.4284,2.34025 -3.17422,3.98037 -2.75866,2.59163 -3.02465,3.62574 -2.03181,7.89908 2.42817,10.45118 2.13715,10.91707 -6.81938,10.91707 h -8.0254 z m 29.896,3.26343 c 0,-0.22177 2.1107,-7.87177 4.69043,-17 2.57973,-9.12821 5.05483,-19.68287 5.50021,-23.45476 1.05058,-8.89711 2.41696,-11.26417 4.75671,-8.24039 2.10192,2.7164 29.46523,12.26106 45.34329,15.81628 13.35016,2.98922 18.90908,5.92731 22.55375,11.92048 2.20222,3.62128 6.48894,17.03739 6.48894,20.30843 0,0.57925 -20.1,1.0532 -44.66666,1.0532 -24.56667,0 -44.66667,-0.18145 -44.66667,-0.40324 z m 5.66958,-58.93009 c 0.0148,-2.93334 0.28785,-3.97634 0.60677,-2.31779 0.31892,1.65855 0.30681,4.05855 -0.0269,5.33333 -0.33372,1.27479 -0.59467,-0.0823 -0.57987,-3.01554 z m -31.33624,2.3688 c 2.38333,-0.29576 6.28333,-0.29576 8.66666,0 2.38334,0.29577 0.43334,0.53777 -4.33333,0.53777 -4.76667,0 -6.71667,-0.242 -4.33333,-0.53777 z m -7.91667,-1.27962 c 0.9625,-0.38516 2.1125,-0.3378 2.55556,0.1052 0.44305,0.44306 -0.34445,0.75819 -1.75,0.7003 -1.55326,-0.064 -1.8692,-0.37992 -0.80556,-0.80555 z m -5.74056,-1.74058 c -0.46712,-0.75582 0.0681,-0.97934 1.25464,-0.52402 2.30989,0.88639 2.73252,1.84208 0.81461,1.84208 -0.69005,0 -1.62122,-0.59313 -2.06925,-1.31806 z m 32.65723,0.79405 c 0,-0.28821 0.93116,-0.88133 2.06925,-1.31807 1.18656,-0.45532 1.72176,-0.2318 1.25464,0.52402 -0.78301,1.26694 -3.32389,1.87393 -3.32389,0.79405 z m -42.512,-5.18956 c -0.13346,-3.20441 0.18029,-3.53432 2.28832,-2.40613 1.34365,0.71909 3.28331,2.39021 4.31036,3.71357 1.78797,2.30384 1.7505,2.30693 -0.88131,0.0728 -1.51178,-1.28333 -3.10744,-2.33333 -3.54593,-2.33333 -0.43848,0 -1.07164,1.05 -1.40701,2.33333 -0.37023,1.41675 -0.67052,0.87455 -0.76443,-1.38024 z m 49.09198,1.30744 c 2.46404,-3.17495 6.75335,-5.48734 6.75335,-3.64077 0,0.75913 -0.70276,1.38024 -1.56168,1.38024 -0.85892,0 -2.79859,1.05 -4.31036,2.33333 -2.63181,2.23413 -2.66928,2.23104 -0.88131,-0.0728 z m 12.08668,-9.43061 c 0,-0.27687 1.05,-1.32687 2.33334,-2.33333 2.11474,-1.6585 2.1619,-1.61134 0.50341,0.50341 -1.74183,2.221 -2.83675,2.92731 -2.83675,1.82992 z m -45.30831,-12.13311 c -2.58096,-3.10986 -0.92628,-5.236 1.7626,-2.26481 1.33681,1.47715 1.828,2.98152 1.11698,3.42095 -0.69801,0.4314 -1.99382,-0.0889 -2.87958,-1.15614 z m 24.01738,-4.86689 c -0.0233,-1.19353 0.8576,-2.917 1.9576,-3.82992 2.5634,-2.12743 2.59037,0.0431 0.0424,3.41183 -1.64459,2.17434 -1.96437,2.24118 -2,0.41809 z M 82.325739,163.17953 c 0.42211,-1.1 1.003279,-2 1.291487,-2 0.288208,0 0.524015,0.9 0.524015,2 0,1.1 -0.58117,2 -1.291487,2 -0.710319,0 -0.946125,-0.9 -0.524015,-2 z m 103.148841,0 c 0,-1.1 0.23581,-2 0.52401,-2 0.28821,0 0.86937,0.9 1.29149,2 0.42211,1.1 0.1863,2 -0.52401,2 -0.71032,0 -1.29149,-0.9 -1.29149,-2 z m 4,1.47598 c 0,-0.28821 0.93116,-0.88133 2.06925,-1.31806 1.18656,-0.45532 1.72176,-0.2318 1.25464,0.52401 -0.78301,1.26695 -3.32389,1.87393 -3.32389,0.79405 z m -59.2313,-3.36324 c -2.17601,-2.40445 -2.17913,-2.75557 -0.0533,-6 1.24188,-1.89534 2.33896,-3.44417 2.43795,-3.44182 0.22362,0.005 0.31218,11.99574 0.0886,11.99574 -0.0891,0 -1.20205,-1.14926 -2.47325,-2.55392 z m 67.27214,-10.11274 c 0,-0.73334 0.58161,-2.23334 1.29249,-3.33334 0.71088,-1.1 1.29249,-1.4 1.29249,-0.66666 0,0.73333 -0.58161,2.23333 -1.29249,3.33333 -0.71088,1.1 -1.29249,1.4 -1.29249,0.66667 z M 70.933588,140.51286 c -0.04667,-2.2 0.405842,-4.7734 1.005573,-5.71868 0.627529,-0.98909 0.07133,-4.66814 -1.310223,-8.66667 -3.022486,-8.74774 -3.279386,-28.841164 -0.5056,-39.545554 4.107896,-15.852889 8.969332,-23.321804 20.851582,-32.03553 l 4.499654,-3.299776 -4.832563,5.451616 c -5.746113,6.482194 -8.237362,13.479231 -11.802101,33.147933 -3.274713,18.068461 -3.363759,26.399641 -0.401004,37.518491 1.936488,7.26741 2.007892,8.80194 0.454245,9.76216 -1.013881,0.62661 -2.58453,0.8549 -3.49033,0.50732 -0.921075,-0.35346 -2.250148,1.02309 -3.015648,3.12336 l -1.368739,3.75533 -0.08485,-4 z m 126.147682,0.33333 c -0.95373,-3.52937 -3.60669,-5.17564 -3.60669,-2.23809 0,0.78571 -0.9656,0.46297 -2.14578,-0.7172 -1.25942,-1.25944 -1.86173,-3.36411 -1.45813,-5.09524 5.10008,-21.8752 5.03055,-20.68773 2.16356,-36.949461 -3.74453,-21.239206 -4.98431,-26.294567 -7.95776,-32.448907 -3.28769,-6.804752 -2.33683,-7.739577 2.83505,-2.787222 5.55746,5.321553 11.38202,18.028699 13.2871,28.987736 2.05554,11.824594 1.13788,33.622134 -1.63831,38.915054 -1.50919,2.87733 -1.7528,4.91803 -0.86797,7.27088 0.67652,1.79897 1.03873,4.49897 0.8049,6 -0.35822,2.29953 -0.58112,2.15196 -1.41597,-0.93755 z M 64.295401,133.04862 c -1.780055,-5.10626 -1.925859,-9.20243 -0.327563,-9.20243 1.060547,0 3.110432,12.14091 2.206427,13.06807 -0.215253,0.22076 -1.060743,-1.51877 -1.878864,-3.86564 z m 139.078489,2.35519 c 0.42204,-1.34331 0.76735,-4.49331 0.76735,-7 0,-2.50669 0.66677,-4.55762 1.48172,-4.55762 1.69047,0 0.45327,8.71179 -1.70417,12 -1.06019,1.61586 -1.16484,1.5309 -0.5449,-0.44238 z M 94.259766,130.41056 c -4.209011,-5.00213 -4.257731,-5.8487 -0.488518,-8.48876 5.752276,-4.02905 18.562962,-2.17307 24.703332,3.57896 4.23348,3.96574 3.74049,5.78812 -0.63478,2.34653 -1.99912,-1.57251 -3.74664,-2.36606 -3.88337,-1.76344 -0.13673,0.60262 -0.61251,2.74568 -1.05729,4.76234 -0.76018,3.44668 -1.24006,3.66667 -7.99811,3.66667 -6.391231,0 -7.572636,-0.45544 -10.641264,-4.1023 z m 10.659254,1.76897 c -0.55,-0.55 -1.7,-1.01468 -2.55555,-1.03261 -0.91805,-0.0192 -1.42344,-1.74672 -1.23319,-4.21509 0.30292,-3.9301 0.10703,-4.12489 -3.246454,-3.22803 -1.962855,0.52494 -3.766971,1.54888 -4.00915,2.27542 -0.788292,2.36487 4.947311,7.20031 8.540734,7.20031 1.92698,0 3.05361,-0.45 2.50361,-1 z m 53.15766,0.89554 c -0.48873,-0.79078 -1.28866,-2.9337 -1.77764,-4.76203 l -0.88904,-3.32424 -3.63437,2.8588 c -4.37499,3.44136 -4.86767,1.61871 -0.63439,-2.34684 5.68586,-5.32626 17.73695,-7.49472 23.75432,-4.27432 3.70312,1.98184 3.23611,7.24267 -0.93413,10.52298 -3.81736,3.00273 -14.3072,3.87816 -15.88475,1.32565 z m 3.3979,-0.48352 c 0,-0.32339 -0.6,-0.9588 -1.33334,-1.41202 -0.73333,-0.45323 -1.33333,-0.18864 -1.33333,0.58797 0,0.77662 0.6,1.41203 1.33333,1.41203 0.73334,0 1.33334,-0.26459 1.33334,-0.58798 z m 12.01658,-2.76302 c 4.23119,-4.50389 1.6837,-6.68098 -7.17984,-6.13588 -2.05604,0.12644 -2.20584,0.50388 -0.84893,2.13886 0.90623,1.09193 2.26719,1.60244 3.02439,1.13447 0.89096,-0.55065 1.06392,0.39542 0.49018,2.68134 -1.11328,4.43568 0.45808,4.49876 4.5142,0.18121 z M 101.6895,115.04381 c -17.466087,-2.92866 -17.77669,-4.46389 -0.88159,-4.3575 16.65807,0.10491 21.13231,0.97237 21.75743,4.21834 0.54337,2.82151 -4.67139,2.85627 -20.87584,0.13916 z m 45.37026,-0.18734 c 0.59532,-3.0913 5.53031,-4.00395 22.41482,-4.14531 16.63101,-0.13924 15.62781,1.43644 -2.81934,4.42815 -16.77017,2.71975 -20.16429,2.67076 -19.59548,-0.28284 z M 130.47458,37.548339 c 2.38333,-0.295768 6.28333,-0.295768 8.66666,0 2.38334,0.29577 0.43334,0.537763 -4.33333,0.537763 -4.76667,0 -6.71667,-0.241993 -4.33333,-0.537763 z"
     style="fill:#ac735f;stroke-width:1.33333325" />
  <path
     inkscape:connector-curvature="0"
     id="path84"
     d="m 24.902255,264.17952 c 4.470339,-20.19077 9.299168,-25.06262 29.28926,-29.55021 14.920363,-3.34948 41.357052,-12.50012 44.604701,-15.43921 2.273834,-2.05779 2.482024,-2.04271 3.112194,0.22538 0.37144,1.3369 1.05645,5.43071 1.52224,9.09738 0.4658,3.66666 2.54975,12.36666 4.631,19.33333 2.08126,6.96667 4.16202,14.31667 4.62392,16.33333 l 0.83981,3.66667 H 68.807908 24.090437 Z m 102.747075,-4.64188 1.93825,-8.30856 -3.4845,-2.53828 -3.4845,-2.53828 5.03193,-5.15317 c 2.76756,-2.83424 5.99246,-5.15316 7.16644,-5.15316 1.17399,0 4.16717,2.09717 6.65155,4.66039 l 4.51702,4.66038 -3.52268,3.6769 c -3.18022,3.31944 -3.40258,4.19497 -2.28728,9.00626 2.28463,9.85568 2.19219,9.99607 -6.58273,9.99607 h -7.88175 z m 30.48942,1.30855 c 0.90608,-3.85 2.85515,-10.9 4.33127,-15.66667 1.47612,-4.76666 3.08813,-11.36666 3.58224,-14.66666 2.02002,-13.49092 2.11313,-13.72479 4.57654,-11.49543 3.17004,2.86885 29.18544,11.94144 44.17911,15.40699 6.96666,1.61024 14.90481,4.38953 17.64033,6.17622 5.28031,3.44882 9.43553,10.23784 10.96316,17.91222 0.51091,2.56666 1.22456,5.71666 1.58589,7 0.61628,2.1888 -2.10456,2.33333 -43.92449,2.33333 H 156.49132 Z M 122.8279,182.55021 c -1.64605,-3.07568 0.18716,-3.66756 2.54816,-0.82272 1.00701,1.21337 1.08872,2.17338 0.23016,2.70401 -0.73215,0.45249 -1.9824,-0.39409 -2.77832,-1.88129 z m 24.00042,-3.62532 c 0.0112,-0.59328 0.60204,-1.9787 1.31292,-3.0787 1.11387,-1.72358 1.29532,-1.68838 1.31292,0.25464 0.0107,1.24006 -0.57958,2.62547 -1.31292,3.0787 -0.73333,0.45322 -1.32414,0.33864 -1.31292,-0.25464 z M 71.800882,128.22553 C 64.021054,107.17847 69.394788,74.797781 82.91047,61.282099 c 4.024519,-4.024519 7.267609,-4.83004 4.105285,-1.019675 -2.88363,3.474563 -5.693049,13.707868 -8.952317,32.608805 -3.51739,20.397821 -3.589661,18.631521 1.690184,41.308301 0.546013,2.3451 0.11548,3 -1.972248,3 -2.078395,0 -3.404808,-1.98591 -5.980492,-8.954 z m 117.705078,7.954 c 0.0172,-0.55 1.21726,-5.45943 2.66667,-10.90983 1.4494,-5.45041 2.63528,-11.31878 2.63528,-13.04082 0,-6.85364 -6.88361,-39.848876 -9.84089,-47.170348 -2.84702,-7.048509 -2.91364,-7.663058 -0.70252,-6.479698 3.84921,2.060036 10.0882,12.034301 13.37208,21.377931 2.50306,7.121989 3.02085,11.461389 3.08921,25.889425 0.0743,15.6651 -0.23067,18.00705 -3.16773,24.33334 -2.17026,4.67461 -4.05271,7 -5.66667,7 -1.32924,0 -2.40269,-0.45 -2.38543,-1 z m -93.851574,-4.43011 c -4.17024,-3.28031 -4.637247,-8.54114 -0.934134,-10.52298 6.296718,-3.3699 23.595638,1.17148 25.215838,6.61975 0.46972,1.57955 0.0412,1.50948 -2.03837,-0.33333 -1.44821,-1.28333 -3.63587,-2.33333 -4.86146,-2.33333 -1.24113,0 -2.2193,1.03373 -2.20793,2.33333 0.0174,1.99406 0.20835,2.04253 1.31291,0.33333 1.81408,-2.80708 1.774,0.68526 -0.0469,4.08766 -0.96005,1.79386 -2.6852,2.53098 -5.66667,2.42126 l -4.28643,-0.15776 4,-0.89341 4,-0.89341 -3.33333,-1.09304 c -1.83333,-0.60117 -3.78333,-1.02814 -4.33333,-0.94883 -0.55,0.0793 -1.00001,-1.6558 -1.00001,-3.8558 0,-4.51381 0.0752,-4.46951 -4.579863,-2.69967 -4.336441,1.64871 -4.311971,3.33381 0.107893,7.43 4.30099,3.98603 3.47155,4.29747 -1.348218,0.50623 z m 64.787334,1.85067 c 1.8298,-0.47998 1.96764,-0.95976 0.6737,-2.34494 -0.89475,-0.95782 -2.37996,-1.45248 -3.3005,-1.09924 -1.01633,0.39001 -1.67368,-0.46112 -1.67368,-2.16706 0,-3.57647 -1.0344,-3.53777 -5.09697,0.19068 -2.09271,1.9206 -3.04611,2.2804 -2.6498,1 0.911,-2.94334 8.67933,-7.80398 14.09668,-8.82028 7.17763,-1.34653 14.22387,0.83163 14.75244,4.56033 0.48288,3.40627 -1.45091,6.32065 -5.65936,8.52916 -2.13773,1.12184 -1.93295,0.60326 0.89035,-2.25461 2.01666,-2.04136 3.66666,-4.24461 3.66666,-4.89609 0,-1.8809 -5.79989,-3.58108 -9.68361,-2.83866 -3.03036,0.57929 -3.27783,0.94918 -1.69443,2.53259 1.01983,1.01982 2.48423,1.85422 3.25422,1.85422 0.94609,0 0.90757,1.08073 -0.1188,3.33334 -1.17276,2.57391 -2.45726,3.29809 -5.6381,3.17866 -2.26561,-0.0851 -3.08409,-0.42621 -1.81882,-0.7581 z m -56.20886,-18.59697 c -19.199955,-2.99508 -19.637206,-4.79172 -0.92252,-3.79059 17.06038,0.91264 19.88081,1.473 19.11615,3.79794 -0.7197,2.18827 -4.12744,2.18689 -18.19363,-0.007 z m 43.18689,0.75437 c -0.48337,-0.78213 -0.48931,-1.81161 -0.0133,-2.28774 1.07374,-1.07375 17.54873,-2.77764 27.40133,-2.83391 10.79941,-0.0617 5.84812,1.96186 -10.87689,4.44529 -16.78823,2.49281 -15.4232,2.43689 -16.51127,0.67636 z"
     style="fill:#674837;stroke-width:1.33333325" />
  <path
     inkscape:connector-curvature="0"
     id="path82"
     d="m 26.034201,260.84619 c 2.382833,-10.09416 6.678,-17.6268 11.716353,-20.54753 2.414878,-1.39992 9.190688,-3.65887 15.057354,-5.01991 16.716606,-3.87819 44.737636,-13.6866 46.676882,-16.33868 1.88058,-2.57185 1.77189,-2.90816 4.06314,12.57279 0.40701,2.75 2.28836,10.1 4.18076,16.33333 1.89241,6.23333 3.89622,13.28333 4.4529,15.66667 l 1.01216,4.33333 H 70.751922 28.310099 l 2.645522,-9 c 4.055522,-13.79679 4.188014,-14.68911 1.435312,-9.66667 -1.406739,2.56667 -3.298248,7.81667 -4.203354,11.66667 -0.905105,3.85 -2.131681,7 -2.725724,7 -0.594044,0 -0.336488,-3.15 0.572346,-7 z M 46.281358,240.6039 c 5.100974,-1.86934 5.122169,-1.90466 1.193217,-1.98831 -4.194868,-0.0893 -11.995793,4.12369 -10.466757,5.65273 0.488436,0.48844 1.606324,0.29196 2.484194,-0.4366 0.877871,-0.72857 3.933076,-2.18109 6.789346,-3.22782 z m 9.498773,-2.8966 c -0.443056,-0.44306 -1.593056,-0.49042 -2.555556,-0.1052 -1.063644,0.42562 -0.747702,0.74157 0.805556,0.80554 1.405554,0.0579 2.193054,-0.25724 1.75,-0.70029 z m 33.694443,-11.19444 c 1.1,-0.71088 1.4,-1.2925 0.666666,-1.2925 -0.733333,0 -2.233333,0.58162 -3.333333,1.2925 -1.1,0.71088 -1.4,1.29249 -0.666666,1.29249 0.733333,0 2.233333,-0.58161 3.333333,-1.29249 z m 37.333336,39.25709 c 0,-1.14193 0.69566,-4.83895 1.54591,-8.21559 1.43968,-5.7175 1.34005,-6.30604 -1.44993,-8.56522 l -2.99583,-2.42588 2.83228,-3.60068 c 6.40227,-8.13916 9.32434,-8.34412 16.06757,-1.12698 l 3.33333,3.5676 -3.77152,3.24774 c -3.65393,3.14646 -3.72668,3.45682 -2.33333,9.95378 2.03301,9.47964 2.18495,9.24147 -5.89515,9.24147 -5.74931,0 -7.33333,-0.44848 -7.33333,-2.07624 z m 32.11163,-6.92376 c 5.49333,-18.94659 7.8891,-28.90675 7.90878,-32.87995 0.0107,-2.26602 0.5746,-4.9962 1.25194,-6.06704 1.06728,-1.68732 1.55356,-1.65672 3.64625,0.22946 1.32811,1.19704 4.06059,2.58718 6.07219,3.08921 2.06328,0.51493 3.28109,1.52175 2.79398,2.30989 -0.49174,0.79568 -0.22533,1.00274 0.61887,0.48099 0.81528,-0.50387 7.05799,0.88635 13.87268,3.08936 6.81469,2.20303 17.26676,5.16052 23.22681,6.57223 12.36141,2.92794 16.72135,5.35646 20.31168,11.31381 3.87579,6.43097 7.81337,20.86204 5.69231,20.86204 -0.6657,0 -1.62896,-2.25 -2.1406,-5 -0.99447,-5.34512 -6.07163,-18.07267 -6.88495,-17.25935 -0.26867,0.26867 0.61953,3.73692 1.97376,7.70724 1.35423,3.97034 2.86721,8.86878 3.36219,10.88544 l 0.89994,3.66667 H 198.91774 156.3101 Z m 73.19718,-13.62085 c 1.19016,-2.22384 0.80336,-2.93074 -2.55355,-4.66667 -2.17589,-1.1252 -5.63597,-2.01319 -7.68905,-1.97331 -3.28193,0.0637 -3.00805,0.35448 2.26712,2.4066 4.03261,1.56874 5.93928,3.07515 5.81481,4.59415 -0.24338,2.97047 0.4388,2.85656 2.16067,-0.36077 z m -15.00325,-7.51804 c -0.44307,-0.44306 -1.59307,-0.49042 -2.55556,-0.1052 -1.06364,0.42562 -0.74771,0.74157 0.80556,0.80554 1.40554,0.0579 2.19305,-0.25724 1.75,-0.70029 z m -93.69372,-55.28315 c -0.48338,-0.78212 -0.59291,-1.708 -0.24341,-2.0575 0.34951,-0.34951 0.99076,0.29041 1.42501,1.42204 0.90157,2.34948 0.13313,2.76274 -1.1816,0.63546 z M 94.637834,130.84619 c -1.658495,-2.11474 -1.611335,-2.1619 0.503406,-0.5034 1.283334,1.00646 2.333334,2.05646 2.333334,2.33333 0,1.09738 -1.094915,0.39107 -2.83674,-1.82993 z m 10.898866,-0.92515 c -1.82619,-2.20042 -0.82192,-4.74151 1.87391,-4.74151 2.54742,0 3.5556,3.5421 1.49495,5.25229 -1.28221,1.06414 -2.17401,0.92893 -3.36886,-0.51078 z m 55.49344,1.03626 c -0.4889,-0.48888 -0.8889,-1.8612 -0.8889,-3.04959 0,-2.89452 -5.28193,-3.188 -8.29533,-0.46091 -1.30423,1.18031 -2.37133,1.50197 -2.37133,0.71479 0,-2.14631 7.97982,-6.5353 13.7497,-7.56248 6.4363,-1.14582 14.2503,1.28277 14.2503,4.42898 0,1.26963 -0.9331,3.4731 -2.07356,4.8966 -1.96295,2.45011 -1.9895,2.41599 -0.49784,-0.63961 1.32934,-2.72314 1.19677,-3.50486 -0.84796,-5 -2.61718,-1.91373 -11.24731,-2.4551 -11.24731,-0.70555 0,0.58666 0.67967,1.74633 1.51037,2.57704 0.83071,0.83071 1.14955,2.45071 0.70852,3.6 -0.8431,2.19709 -2.50194,2.69546 -3.99666,1.20073 z m -44.70327,-4.4888 c -3.87139,-3.22519 -9.89537,-3.38875 -12.93296,-0.35116 -2.13932,2.13931 -2.21703,2.10061 -1.33872,-0.66667 0.63995,-2.01632 0.38146,-2.9321 -0.8241,-2.9196 -3.981207,0.0413 -7.65353,1.72323 -8.264628,3.78529 -0.358018,1.20807 -0.540155,0.73689 -0.404748,-1.04707 0.180124,-2.37312 1.319649,-3.54093 4.246193,-4.35159 7.374403,-2.04272 20.781873,1.83092 22.583013,6.5246 0.8509,2.21742 0.71454,2.17409 -3.06405,-0.9738 z m 82.69156,-5.28897 c 0,-1.83334 0.30264,-2.58334 0.67252,-1.66667 0.36988,0.91667 0.36988,2.41667 0,3.33333 -0.36988,0.91667 -0.67252,0.16667 -0.67252,-1.66666 z M 69.579837,119.06842 c 0.06397,-1.55326 0.379921,-1.8692 0.805556,-0.80556 0.385161,0.9625 0.337792,2.1125 -0.105267,2.55556 -0.443056,0.44305 -0.758188,-0.34445 -0.700293,-1.75 z M 200.60712,106.51286 c 0,-6.23333 0.22968,-8.783327 0.5104,-5.66666 0.28071,3.11666 0.28071,8.21666 0,11.33333 -0.28072,3.11666 -0.5104,0.56666 -0.5104,-5.66667 z M 68.578761,105.84619 c 0.0059,-5.13332 0.246911,-7.069941 0.535544,-4.30359 0.288635,2.76636 0.283795,6.96636 -0.0108,9.33333 -0.294504,2.36698 -0.530659,0.1036 -0.524744,-5.02974 z m 7.667742,-12.111101 c 0.06397,-1.553258 0.379922,-1.8692 0.805556,-0.805556 0.385162,0.9625 0.337792,2.1125 -0.105266,2.555556 -0.443056,0.443054 -0.758188,-0.344446 -0.700294,-1.75 z m -6.561402,-1.88889 c 0,-1.833333 0.302631,-2.583333 0.672515,-1.666666 0.369882,0.916666 0.369882,2.416666 0,3.333333 -0.369884,0.916667 -0.672515,0.166667 -0.672515,-1.666667 z m 122.561409,0.555556 c 0.064,-1.553257 0.37992,-1.8692 0.80555,-0.805556 0.38516,0.9625 0.3378,2.1125 -0.1052,2.555556 -0.44307,0.443055 -0.75819,-0.344445 -0.7003,-1.75 z m 6.66667,-2.666666 c 0.064,-1.553258 0.37992,-1.8692 0.80554,-0.805556 0.38516,0.9625 0.3378,2.1125 -0.1052,2.555556 -0.44306,0.443054 -0.75818,-0.344446 -0.70029,-1.75 z M 77.579837,87.068422 c 0.06397,-1.553257 0.379921,-1.8692 0.805556,-0.805556 0.385161,0.9625 0.337792,2.1125 -0.105267,2.555556 -0.443056,0.443055 -0.758188,-0.344445 -0.700293,-1.75 z m -6.674508,-1.505538 c -0.153308,-2.544054 5.256238,-16.238535 6.788586,-17.185577 0.788586,-0.487374 0.691218,0.434166 -0.227189,2.150225 -0.883977,1.651725 -2.699998,6.07413 -4.035604,9.827569 -1.335604,3.753437 -2.472212,6.09694 -2.525793,5.207783 z M 190.93731,68.432756 c -1.54036,-2.610727 -2.19536,-4.37268 -1.45555,-3.915449 1.44482,0.892944 5.77282,8.662226 4.82543,8.662226 -0.31307,0 -1.82951,-2.136049 -3.36988,-4.746777 z M 78.807907,66.00946 c 0,-0.276875 1.05,-1.326875 2.333334,-2.333333 2.114741,-1.658495 2.161901,-1.611335 0.503406,0.503406 -1.741825,2.220998 -2.83674,2.927306 -2.83674,1.829927 z"
     style="fill:#602f1e;stroke-width:1.33333325" />
  <path
     inkscape:connector-curvature="0"
     id="path80"
     d="m 78.96477,259.68932 c -1.542757,-4.56834 -2.575601,-8.5355 -2.295209,-8.81589 0.280392,-0.2804 1.77206,3.22793 3.314817,7.79629 1.542757,4.56835 2.575601,8.53551 2.295209,8.8159 -0.280392,0.2804 -1.77206,-3.22794 -3.314817,-7.7963 z m 27.50981,-9.19216 c -2.75,-9.90864 -4.92684,-20.40864 -4.83741,-23.33333 0.14295,-4.67536 0.29933,-4.38259 1.29475,2.42401 0.62268,4.2579 2.97847,13.50544 5.23507,20.5501 2.2566,7.04465 3.92396,14.0609 3.70525,15.59168 -0.21871,1.53078 -2.64766,-5.32383 -5.39766,-15.23246 z m 20.33333,15.27279 c 0,-1.14193 0.69566,-4.83895 1.54591,-8.21559 1.43968,-5.7175 1.34005,-6.30604 -1.44993,-8.56522 l -2.99583,-2.42588 2.83228,-3.60068 c 5.31417,-6.75586 7.5906,-7.6376 11.86341,-4.5951 7.35499,5.23722 7.91115,6.76688 3.68537,10.13639 -3.68897,2.94149 -3.74046,3.16384 -2.2941,9.90796 0.81376,3.79443 1.47956,7.46941 1.47956,8.16665 0,0.69724 -3.3,1.26771 -7.33334,1.26771 -5.74931,0 -7.33333,-0.44848 -7.33333,-2.07624 z m 30.79849,0.4784 c -0.0725,-1.24548 1.3186,-6.94548 3.09134,-12.66667 2.94708,-9.51117 5.3411,-19.82342 6.59366,-28.40216 0.26768,-1.83333 0.5684,-0.55045 0.66827,2.85084 0.201,6.84574 -9.98969,44.46359 -10.35327,38.21799 z m 29.47774,0.26451 c 0.36777,-1.1 1.71721,-5.18887 2.99874,-9.08638 1.28152,-3.8975 2.63006,-6.78638 2.99672,-6.41972 0.88912,0.88912 -3.56296,14.47832 -5.29849,16.17276 -0.92112,0.89931 -1.148,0.6823 -0.69697,-0.66666 z M 25.685102,263.84619 c 0,-1.83333 0.302631,-2.58333 0.672515,-1.66667 0.369882,0.91667 0.369882,2.41667 0,3.33334 -0.369884,0.91666 -0.672515,0.16666 -0.672515,-1.66667 z m 217.333328,-1.33333 c 0,-1.83334 0.30264,-2.58334 0.67252,-1.66667 0.36988,0.91667 0.36988,2.41667 0,3.33333 -0.36988,0.91667 -0.67252,0.16667 -0.67252,-1.66666 z m -1.43859,-6.11111 c 0.064,-1.55327 0.37992,-1.8692 0.80555,-0.80556 0.38516,0.96249 0.3378,2.11249 -0.1052,2.55556 -0.44307,0.44305 -0.75819,-0.34445 -0.7003,-1.75 z M 28.182077,253.84619 c 0,-0.73333 0.581624,-2.23333 1.292498,-3.33333 0.710875,-1.1 1.292499,-1.4 1.292499,-0.66667 0,0.73333 -0.581624,2.23333 -1.292499,3.33333 -0.710874,1.1 -1.292498,1.4 -1.292498,0.66667 z m 54.634356,-11.26661 c -2.561978,-2.12386 -4.320966,-4.19872 -3.908863,-4.61083 0.412103,-0.41211 2.775967,1.34173 5.253031,3.89741 5.461939,5.6353 4.932201,5.91646 -1.344168,0.71342 z m 102.638787,-0.71342 c 2.47706,-2.55568 4.82304,-4.3274 5.21328,-3.93716 0.7871,0.78711 -7.13014,8.58386 -8.7165,8.58386 -0.55029,0 1.02615,-2.09102 3.50322,-4.6467 z M 50.557908,236.26871 c 0.9625,-0.38516 2.1125,-0.3378 2.555556,0.1052 0.443055,0.44305 -0.344445,0.75819 -1.75,0.70029 -1.553257,-0.064 -1.8692,-0.37992 -0.805556,-0.80554 z m 166.666662,0 c 0.9625,-0.38516 2.1125,-0.3378 2.55556,0.1052 0.44306,0.44305 -0.34445,0.75819 -1.75,0.70029 -1.55326,-0.064 -1.8692,-0.37992 -0.80556,-0.80554 z M 94.14124,223.84619 c 1.327315,-1.46667 2.7133,-2.66667 3.079967,-2.66667 0.366667,0 -0.419319,1.2 -1.746633,2.66667 -1.327315,1.46667 -2.7133,2.66667 -3.079967,2.66667 -0.366667,0 0.419319,-1.2 1.746633,-2.66667 z m 79.87332,-0.33333 -2.53998,-3 3,2.53998 c 2.81925,2.38696 3.60698,3.46002 2.53998,3.46002 -0.25301,0 -1.60301,-1.35 -3,-3 z m -68.30441,-95.07043 c 0.60302,-2.89615 2.96936,-3.07336 3.5106,-0.2629 0.28107,1.45947 -0.3729,2.33333 -1.74617,2.33333 -1.28097,0 -2.01596,-0.86245 -1.76443,-2.07043 z m 55.09193,0.72768 c -0.45641,-0.73851 0.13406,-1.71264 1.31216,-2.16472 2.55286,-0.97962 3.97562,0.0999 2.7485,2.08543 -1.10718,1.79144 -2.97988,1.82801 -4.06066,0.0793 z m -44.77882,-2.83088 c -2.1503,-1.6773 -6.15645,-2.90461 -10.62743,-3.25577 -8.537646,-0.67055 -11.541895,0.098 -12.347554,3.15872 -0.439096,1.66814 -0.638741,1.49124 -0.752368,-0.66665 -0.3462,-6.57474 18.490532,-6.35687 25.138162,0.29076 3.9682,3.9682 3.34005,4.17877 -1.41081,0.47294 z m 34.78465,0.5322 c 0,-2.47745 8.89984,-5.6919 15.75912,-5.6919 8.63161,0 10.94308,0.96216 10.75288,4.47598 -0.11467,2.11783 -0.30809,2.27628 -0.74745,0.61222 -0.32603,-1.23483 -2.32691,-2.62602 -4.4464,-3.09154 -5.31663,-1.16773 -16.16376,0.56906 -18.98482,3.03976 -1.28333,1.12395 -2.33333,1.41892 -2.33333,0.65548 z"
     style="fill:#1d0e09;stroke-width:1.33333325" />
</svg>
