<!DOCTYPE svg PUBLIC "-//W3C//DTD SVG 20010904//EN" "http://www.w3.org/TR/2001/REC-SVG-20010904/DTD/svg10.dtd">
<svg version="1.0" xmlns="http://www.w3.org/2000/svg" width="200px" height="200px" viewBox="0 0 2000 2000" preserveAspectRatio="xMidYMid meet">
<g id="layer101" fill="#f1eff2" stroke="none">
 <path d="M130 1978 c1 -43 28 -137 44 -153 9 -9 16 -20 16 -25 0 -16 86 -58 145 -70 101 -19 358 -110 380 -133 11 -12 29 -41 39 -64 28 -64 17 -102 -49 -161 -51 -45 -105 -131 -105 -166 0 -9 -7 -12 -20 -9 -26 7 -66 -28 -75 -65 -3 -15 -14 -38 -23 -52 -43 -64 -74 -165 -78 -251 -2 -47 -10 -112 -19 -145 -21 -81 -19 -136 5 -167 11 -14 20 -35 20 -46 0 -30 36 -99 60 -113 11 -7 20 -20 20 -29 0 -22 75 -106 103 -115 12 -4 41 -28 64 -55 45 -49 118 -87 148 -75 17 6 65 -12 65 -26 0 -4 61 -8 135 -8 74 0 135 4 135 8 0 13 48 32 64 26 26 -10 88 17 133 59 23 22 43 45 43 52 0 7 11 16 25 19 35 9 90 60 106 98 7 18 27 49 44 69 18 20 35 53 39 74 4 22 14 48 22 59 17 25 18 115 2 171 -11 42 -17 98 -17 175 0 47 -42 168 -73 209 -10 12 -20 38 -24 57 -7 38 -49 78 -75 71 -13 -3 -21 9 -35 52 -15 44 -33 69 -82 117 -52 50 -64 68 -69 101 -6 43 12 88 51 129 22 23 276 114 376 133 96 20 136 47 175 122 24 45 35 80 35 108 l0 41 -875 0 -875 0 0 -22z"/>
 </g>
<g id="layer102" fill="#d4adac" stroke="none">
 <path d="M130 1978 c1 -43 28 -137 44 -153 9 -9 16 -20 16 -25 0 -16 86 -58 145 -70 97 -19 358 -110 377 -131 9 -10 18 -19 21 -19 10 0 26 58 32 115 3 33 17 94 30 135 13 41 31 96 38 123 l14 47 -358 0 -359 0 0 -22z"/>
 <path d="M935 1953 c4 -27 11 -56 17 -67 8 -15 5 -23 -18 -42 l-29 -23 39 -40 c47 -48 48 -45 -66 -106 -64 -34 -68 -38 -83 -88 -8 -29 -19 -77 -25 -107 -9 -49 -17 -61 -69 -111 -53 -50 -101 -128 -101 -164 0 -8 -8 -11 -20 -8 -26 7 -66 -28 -75 -65 -3 -15 -14 -38 -23 -52 -43 -64 -74 -165 -78 -251 -2 -47 -10 -112 -19 -145 -21 -81 -19 -136 5 -167 11 -14 20 -35 20 -46 0 -30 36 -99 60 -113 11 -7 20 -20 20 -29 0 -22 75 -106 103 -115 12 -4 41 -28 64 -55 45 -49 118 -87 148 -75 17 6 65 -12 65 -26 0 -4 61 -8 135 -8 74 0 135 4 135 8 0 13 48 32 64 26 26 -10 88 17 133 59 23 22 43 45 43 52 0 7 11 16 25 19 35 9 90 60 106 98 7 18 27 49 44 69 18 20 35 53 39 74 4 22 14 48 22 59 17 25 18 115 2 171 -11 42 -17 98 -17 175 0 47 -42 168 -73 209 -10 12 -20 38 -24 57 -7 38 -49 78 -75 71 -13 -3 -21 9 -35 52 -15 44 -33 69 -82 116 l-63 61 -14 89 c-17 102 -36 130 -120 170 -27 13 -59 30 -70 39 -20 14 -19 15 13 48 38 41 40 51 8 76 -26 20 -26 18 -1 130 5 21 3 22 -66 22 l-71 0 7 -47z m108 -574 c32 -16 55 -49 50 -70 -4 -15 -9 -16 -23 -9 -10 6 -48 10 -85 10 -50 0 -64 3 -58 13 4 6 8 19 8 27 0 16 40 40 68 40 10 0 28 -5 40 -11z m-184 -435 c35 -7 39 -19 14 -46 -20 -22 -33 -23 -33 -1 0 9 -7 25 -17 35 -17 20 -12 21 36 12z m331 -4 c0 -5 -4 -10 -10 -10 -5 0 -10 -11 -10 -25 0 -31 -7 -31 -37 -3 -36 33 -32 37 45 47 6 0 12 -3 12 -9z m-450 -15 c-7 -8 -10 -24 -7 -35 6 -22 -16 -27 -43 -10 -12 7 -11 13 10 34 26 29 62 38 40 11z m566 -12 l29 -26 -28 -10 c-33 -11 -32 -11 -40 31 -8 39 1 40 39 5z"/>
 <path d="M950 1340 c0 -6 11 -8 28 -4 39 10 40 14 4 14 -18 0 -32 -5 -32 -10z"/>
 <path d="M1165 1988 c34 -104 67 -233 81 -313 9 -55 18 -101 19 -103 2 -2 14 8 26 21 25 26 273 115 379 136 96 20 136 47 175 122 24 45 35 80 35 108 l0 41 -360 0 c-283 0 -358 -3 -355 -12z"/>
 </g>
<g id="layer103" fill="#e29f96" stroke="none">
 <path d="M130 1978 c1 -43 28 -137 44 -153 9 -9 16 -20 16 -25 0 -16 86 -58 145 -70 97 -19 358 -110 377 -131 9 -10 18 -19 21 -19 10 0 26 58 32 115 3 33 17 94 30 135 13 41 31 96 38 123 l14 47 -358 0 -359 0 0 -22z"/>
 <path d="M935 1953 c4 -27 11 -56 17 -67 8 -15 5 -23 -18 -42 l-29 -23 39 -40 c47 -49 44 -55 -55 -107 -60 -32 -70 -41 -82 -78 -21 -60 -34 -107 -42 -143 -4 -22 -24 -48 -61 -81 -50 -45 -104 -131 -104 -166 0 -9 -7 -12 -20 -9 -26 7 -66 -28 -75 -65 -3 -15 -14 -38 -23 -52 -43 -64 -74 -165 -78 -251 -2 -47 -10 -112 -19 -145 -21 -81 -19 -136 5 -167 11 -14 20 -35 20 -46 0 -30 36 -99 60 -113 11 -7 20 -20 20 -29 0 -22 75 -106 103 -115 12 -4 41 -28 64 -55 45 -49 118 -87 148 -75 17 6 65 -12 65 -26 0 -4 61 -8 135 -8 74 0 135 4 135 8 0 13 48 32 64 26 26 -10 88 17 133 59 23 22 43 45 43 52 0 7 11 16 25 19 35 9 90 60 106 98 7 18 27 49 44 69 18 20 35 53 39 74 4 22 14 48 22 59 17 25 18 115 2 171 -11 42 -17 98 -17 175 0 47 -42 168 -73 209 -10 12 -20 38 -24 57 -7 38 -49 78 -75 71 -13 -3 -21 9 -35 52 -15 44 -33 69 -81 116 -53 51 -64 68 -73 110 -30 149 -32 154 -129 204 -44 23 -82 45 -85 50 -3 4 10 23 29 41 41 40 43 52 11 78 -26 20 -26 18 -1 130 5 21 3 22 -66 22 l-71 0 7 -47z m138 -591 c30 -31 29 -79 -2 -67 -9 4 -46 9 -83 12 -46 4 -65 9 -60 17 3 6 5 18 4 27 -3 20 33 37 79 38 26 1 42 -6 62 -27z m-179 -421 c7 -10 -31 -61 -45 -61 -5 0 -9 8 -9 17 0 9 -7 25 -17 35 -15 17 -14 18 25 18 22 0 43 -4 46 -9z m296 -1 c0 -5 -4 -10 -10 -10 -5 0 -10 -11 -10 -25 0 -14 -4 -25 -8 -25 -16 0 -54 48 -47 59 8 14 75 14 75 1z m-450 -15 c-7 -8 -10 -24 -7 -35 6 -22 -16 -27 -43 -10 -12 7 -11 13 10 34 26 29 62 38 40 11z m566 -12 l29 -26 -28 -10 c-33 -11 -32 -11 -40 31 -8 39 1 40 39 5z"/>
 <path d="M950 1340 c0 -6 11 -8 28 -4 39 10 40 14 4 14 -18 0 -32 -5 -32 -10z"/>
 <path d="M1165 1988 c34 -104 67 -233 81 -313 9 -55 18 -101 19 -103 2 -2 14 8 26 21 25 26 273 115 379 136 96 20 136 47 175 122 24 45 35 80 35 108 l0 41 -360 0 c-283 0 -358 -3 -355 -12z"/>
 </g>
<g id="layer104" fill="#a4a2a1" stroke="none">
 <path d="M130 1978 c1 -43 28 -137 44 -153 9 -9 16 -20 16 -25 0 -16 86 -58 145 -70 97 -19 358 -110 377 -131 9 -10 18 -19 21 -19 10 0 26 58 32 115 3 33 17 94 30 135 13 41 31 96 38 123 l14 47 -358 0 -359 0 0 -22z"/>
 <path d="M935 1953 c4 -27 11 -56 17 -67 8 -15 5 -23 -18 -41 l-29 -23 25 -27 c14 -15 37 -36 52 -46 l27 -20 41 37 c46 42 49 55 16 82 -26 20 -26 18 -1 130 5 21 3 22 -66 22 l-71 0 7 -47z"/>
 <path d="M1165 1988 c34 -104 67 -233 81 -313 9 -55 18 -101 19 -103 2 -2 14 8 26 21 25 26 273 115 379 136 96 20 136 47 175 122 24 45 35 80 35 108 l0 41 -360 0 c-283 0 -358 -3 -355 -12z"/>
 <path d="M960 1618 c-19 -5 -61 -27 -92 -49 -64 -43 -70 -46 -62 -24 4 8 2 15 -3 15 -8 0 -23 -43 -39 -113 -4 -16 -29 -48 -60 -76 -50 -44 -104 -130 -104 -165 0 -9 -7 -12 -20 -9 -26 7 -66 -28 -75 -65 -3 -15 -14 -38 -23 -52 -43 -64 -74 -165 -78 -251 -2 -47 -10 -112 -19 -145 -21 -81 -19 -136 5 -167 11 -14 20 -35 20 -46 0 -30 36 -99 60 -113 11 -7 20 -20 20 -29 0 -22 75 -106 103 -115 12 -4 41 -28 64 -55 45 -49 118 -87 148 -75 17 6 65 -12 65 -26 0 -4 61 -8 135 -8 74 0 135 4 135 8 0 13 48 32 64 26 26 -10 88 17 133 59 23 22 43 45 43 52 0 7 11 16 25 19 35 9 90 60 106 98 7 18 27 49 44 69 18 20 35 53 39 74 4 22 14 48 22 59 17 25 18 115 2 171 -11 42 -17 98 -17 175 0 47 -42 168 -73 209 -10 12 -20 38 -24 57 -7 38 -49 78 -75 71 -13 -3 -21 9 -35 52 -15 44 -33 69 -82 116 -48 47 -64 69 -69 98 -3 21 -10 40 -14 43 -5 3 -9 22 -10 42 -1 37 -1 37 -12 11 l-12 -27 -35 25 c-85 59 -142 77 -200 61z m119 -108 c51 -26 176 -125 227 -181 59 -65 123 -248 117 -334 -4 -49 -1 -70 17 -108 12 -26 19 -54 16 -63 -4 -9 -1 -23 5 -30 7 -8 11 -49 11 -95 0 -64 -4 -85 -19 -102 -28 -34 -44 -67 -38 -78 4 -5 -10 -16 -29 -24 -20 -9 -36 -19 -36 -23 0 -4 -9 -13 -21 -20 -17 -11 -28 -9 -76 13 -30 15 -72 29 -92 32 -20 2 -43 7 -51 10 -30 11 -157 8 -224 -4 -43 -8 -88 -25 -116 -43 -26 -17 -52 -30 -57 -30 -6 0 -25 13 -42 29 -17 16 -37 31 -44 34 -7 2 -29 33 -50 68 -31 51 -39 76 -44 134 -4 51 -2 78 8 96 7 13 12 28 11 32 -2 5 7 35 18 66 20 59 27 141 11 141 -5 0 7 44 26 98 19 53 40 112 46 130 11 35 84 110 173 181 117 92 178 110 253 71z m-493 -356 c-3 -9 -9 -27 -12 -40 -3 -13 -10 -24 -15 -24 -5 0 -9 -7 -9 -15 0 -8 -4 -15 -9 -15 -5 0 -18 -14 -28 -30 -15 -24 -18 -41 -13 -80 7 -56 4 -64 -27 -74 -20 -6 -23 -4 -23 17 0 68 93 277 124 277 12 0 16 -5 12 -16z m914 -89 c43 -89 51 -112 48 -152 l-3 -48 -21 21 c-18 18 -21 31 -19 77 3 48 1 58 -22 78 l-25 24 7 -24 c5 -17 4 -21 -5 -16 -6 4 -10 17 -8 30 1 12 -3 29 -10 37 -6 8 -15 29 -18 46 -5 25 -3 32 10 32 10 0 33 -36 66 -105z"/>
 <path d="M906 1341 c-26 -28 -16 -48 12 -24 14 11 19 23 14 31 -7 10 -13 8 -26 -7z"/>
 <path d="M950 1340 c0 -6 11 -8 28 -4 39 10 40 14 4 14 -18 0 -32 -5 -32 -10z"/>
 <path d="M1090 1302 c0 -9 10 -23 21 -31 19 -11 21 -11 15 4 -3 9 -6 23 -6 31 0 8 -7 14 -15 14 -8 0 -15 -8 -15 -18z"/>
 <path d="M926 1189 l-21 -17 24 -54 c12 -29 28 -73 34 -98 9 -37 12 -41 15 -20 2 14 -1 48 -8 77 -15 70 -3 93 50 93 21 0 42 -4 45 -10 10 -16 25 -11 25 9 0 29 -21 39 -84 38 -39 -1 -66 -7 -80 -18z"/>
 <path d="M730 963 c-24 -9 -84 -65 -92 -85 -6 -14 -3 -18 17 -18 31 0 41 -17 15 -25 -47 -15 -12 -23 105 -24 70 0 125 3 125 8 0 5 -7 11 -15 13 -12 2 -11 8 8 28 22 24 35 80 19 80 -5 0 -18 -13 -30 -30 -25 -33 -42 -39 -42 -13 0 9 -7 25 -17 35 -15 17 -14 18 28 18 32 0 40 3 29 10 -16 10 -125 12 -150 3z m10 -38 c-7 -8 -10 -24 -7 -35 6 -22 -16 -27 -43 -10 -12 7 -11 13 10 34 26 29 62 38 40 11z"/>
 <path d="M1125 960 c-4 -6 8 -10 29 -10 20 0 36 -4 36 -10 0 -5 -4 -10 -10 -10 -5 0 -10 -11 -10 -25 0 -14 -4 -25 -8 -25 -5 0 -19 11 -32 25 -29 31 -40 32 -36 3 6 -53 7 -54 151 -54 74 0 135 1 135 4 0 2 -12 19 -26 38 -43 55 -82 74 -157 74 -36 0 -69 -4 -72 -10z m181 -47 l29 -26 -28 -10 c-33 -11 -32 -11 -40 31 -8 39 1 40 39 5z"/>
 <path d="M1120 797 c0 -7 15 -24 32 -38 91 -68 118 -73 185 -34 35 21 43 31 43 55 0 34 -13 39 -32 12 -35 -47 -96 -61 -135 -30 -12 9 -84 48 -90 48 -2 0 -3 -6 -3 -13z"/>
 </g>
<g id="layer105" fill="#ce7e73" stroke="none">
 <path d="M130 1978 c1 -43 28 -137 44 -153 9 -9 16 -20 16 -25 0 -16 86 -58 145 -70 104 -20 358 -110 378 -133 24 -27 33 -14 42 62 8 68 26 138 63 254 l29 87 -358 0 -359 0 0 -22z"/>
 <path d="M930 1988 c0 -7 7 -38 15 -68 l15 -55 -28 -23 -27 -23 49 -45 48 -44 40 32 c52 41 56 54 23 80 -28 22 -29 27 -9 126 l7 32 -67 0 c-46 0 -66 -4 -66 -12z"/>
 <path d="M1182 1938 c39 -124 66 -234 73 -290 7 -66 18 -78 43 -50 18 22 275 112 372 131 96 20 136 47 175 122 24 45 35 80 35 108 l0 41 -359 0 -359 0 20 -62z"/>
 <path d="M960 1618 c-19 -5 -61 -27 -92 -49 -64 -43 -70 -46 -62 -24 4 8 2 15 -3 15 -8 0 -23 -43 -39 -113 -4 -16 -29 -48 -60 -76 -50 -44 -104 -130 -104 -165 0 -9 -7 -12 -20 -9 -26 7 -66 -28 -75 -65 -3 -15 -14 -38 -23 -52 -43 -64 -74 -165 -78 -251 -2 -47 -10 -112 -19 -145 -21 -81 -19 -136 5 -167 11 -14 20 -35 20 -46 0 -30 36 -99 60 -113 11 -7 20 -20 20 -29 0 -22 75 -106 103 -115 12 -4 41 -28 64 -55 45 -49 118 -87 148 -75 17 6 65 -12 65 -26 0 -4 61 -8 135 -8 74 0 135 4 135 8 0 13 48 32 64 26 26 -10 88 17 133 59 23 22 43 45 43 52 0 7 11 16 25 19 35 9 90 60 106 98 7 18 27 49 44 69 18 20 35 53 39 74 4 22 14 48 22 59 17 25 18 115 2 171 -11 42 -17 98 -17 175 0 47 -42 168 -73 209 -10 12 -20 38 -24 57 -7 38 -49 78 -75 71 -13 -3 -21 9 -35 52 -15 44 -33 69 -82 116 -48 47 -64 69 -69 98 -3 21 -10 40 -14 43 -5 3 -9 22 -10 42 -1 37 -1 37 -12 11 l-12 -27 -35 25 c-85 59 -142 77 -200 61z m119 -108 c51 -26 176 -125 227 -181 59 -65 123 -248 117 -334 -4 -49 -1 -70 17 -108 12 -26 19 -54 16 -63 -4 -9 -1 -23 5 -30 7 -8 11 -49 11 -95 0 -64 -4 -85 -19 -102 -28 -34 -44 -67 -38 -78 4 -5 -10 -16 -29 -24 -20 -9 -36 -19 -36 -23 0 -4 -9 -13 -21 -20 -17 -11 -28 -9 -76 13 -30 15 -72 29 -92 32 -20 2 -43 7 -51 10 -30 11 -157 8 -224 -4 -43 -8 -88 -25 -116 -43 -26 -17 -52 -30 -57 -30 -6 0 -25 13 -42 29 -17 16 -37 31 -44 34 -7 2 -29 33 -50 68 -31 51 -39 76 -44 134 -4 51 -2 78 8 96 7 13 12 28 11 32 -2 5 7 35 18 66 20 59 27 141 11 141 -5 0 7 44 26 98 19 53 40 112 46 130 11 35 84 110 173 181 117 92 178 110 253 71z m-493 -356 c-3 -9 -9 -27 -12 -40 -3 -13 -10 -24 -15 -24 -5 0 -9 -7 -9 -15 0 -8 -4 -15 -9 -15 -5 0 -18 -14 -28 -30 -15 -24 -18 -41 -13 -80 7 -56 4 -64 -27 -74 -20 -6 -23 -4 -23 17 0 68 93 277 124 277 12 0 16 -5 12 -16z m914 -89 c43 -89 51 -112 48 -152 l-3 -48 -21 21 c-18 18 -21 31 -19 77 3 48 1 58 -22 78 l-25 24 7 -24 c5 -17 4 -21 -5 -16 -6 4 -10 17 -8 30 1 12 -3 29 -10 37 -6 8 -15 29 -18 46 -5 25 -3 32 10 32 10 0 33 -36 66 -105z"/>
 <path d="M900 1335 c-19 -22 -7 -41 13 -21 18 19 22 36 8 36 -5 0 -14 -7 -21 -15z"/>
 <path d="M1100 1301 c0 -10 8 -25 17 -32 15 -12 16 -12 10 4 -4 10 -7 25 -7 33 0 8 -4 14 -10 14 -5 0 -10 -8 -10 -19z"/>
 <path d="M926 1189 l-21 -17 24 -54 c12 -29 28 -73 34 -98 9 -37 12 -41 15 -20 2 14 -1 48 -8 77 -15 70 -3 93 50 93 21 0 42 -4 45 -10 10 -16 25 -11 25 9 0 29 -21 39 -84 38 -39 -1 -66 -7 -80 -18z"/>
 <path d="M730 963 c-24 -9 -84 -65 -92 -85 -6 -14 -3 -18 17 -18 31 0 41 -17 15 -25 -47 -15 -12 -23 105 -24 70 0 125 3 125 8 0 5 -7 11 -15 13 -12 2 -11 8 8 28 23 25 35 80 17 80 -6 0 -10 -5 -10 -11 0 -10 -39 -48 -51 -49 -3 0 -13 16 -22 35 l-17 35 43 0 c31 0 38 3 27 10 -16 10 -125 12 -150 3z m30 -28 c0 -8 -4 -15 -10 -15 -5 0 -10 -11 -10 -25 0 -22 -4 -25 -35 -25 -43 0 -44 13 -4 51 34 32 59 38 59 14z"/>
 <path d="M1124 959 c-5 -9 6 -11 38 -7 40 5 45 3 41 -13 -3 -10 -11 -20 -19 -23 -8 -3 -14 -12 -14 -21 0 -23 -21 -18 -51 11 l-28 27 3 -24 c6 -54 7 -55 151 -55 74 0 135 1 135 4 0 12 -57 75 -85 92 -37 23 -158 29 -171 9z m175 -35 c46 -38 41 -54 -16 -54 -42 1 -46 2 -30 14 21 16 21 25 0 48 -26 29 9 23 46 -8z"/>
 <path d="M1120 797 c0 -7 15 -24 32 -38 91 -68 118 -73 185 -34 35 21 43 31 43 55 0 34 -13 39 -32 12 -35 -47 -96 -61 -135 -30 -12 9 -84 48 -90 48 -2 0 -3 -6 -3 -13z"/>
 </g>
<g id="layer106" fill="#c3685c" stroke="none">
 <path d="M130 1978 c1 -43 28 -137 44 -153 9 -9 16 -20 16 -25 0 -16 86 -58 145 -70 104 -20 358 -110 378 -133 24 -27 33 -14 42 62 8 68 26 138 63 254 l29 87 -358 0 -359 0 0 -22z"/>
 <path d="M930 1988 c0 -7 7 -38 15 -68 l15 -55 -27 -22 -28 -22 35 -36 c47 -48 64 -52 106 -20 48 37 51 51 19 77 -28 22 -29 27 -9 126 l7 32 -67 0 c-46 0 -66 -4 -66 -12z"/>
 <path d="M1182 1938 c39 -124 66 -234 73 -290 7 -66 18 -78 43 -50 18 22 275 112 372 131 96 20 136 47 175 122 24 45 35 80 35 108 l0 41 -359 0 -359 0 20 -62z"/>
 <path d="M1211 1548 c-1 -24 -21 -52 -21 -30 0 6 -7 13 -16 16 -8 3 -12 2 -9 -4 10 -17 -37 -11 -95 11 -60 23 -99 20 -160 -11 -22 -11 -42 -15 -55 -10 -11 4 -31 6 -45 5 -21 -1 -27 -10 -40 -54 -12 -41 -27 -63 -71 -104 -51 -48 -99 -126 -99 -162 0 -8 -8 -11 -20 -8 -26 7 -66 -28 -75 -65 -3 -15 -14 -38 -23 -52 -43 -64 -74 -165 -78 -251 -2 -47 -10 -112 -19 -145 -21 -81 -19 -136 5 -167 11 -14 20 -35 20 -46 0 -30 36 -99 60 -113 11 -7 20 -20 20 -29 0 -22 75 -106 103 -115 12 -4 41 -28 64 -55 45 -49 118 -87 148 -75 17 6 65 -12 65 -26 0 -4 61 -8 135 -8 74 0 135 4 135 8 0 13 48 32 64 26 26 -10 88 17 133 59 23 22 43 45 43 52 0 7 11 16 25 19 35 9 90 60 106 98 7 18 27 49 44 69 18 20 35 53 39 74 4 22 14 48 22 59 17 25 18 115 2 171 -11 42 -17 98 -17 175 0 47 -42 168 -73 209 -10 12 -20 38 -24 57 -7 38 -49 78 -75 71 -13 -3 -21 9 -35 52 -15 43 -33 69 -81 116 -38 37 -64 71 -68 90 -4 17 -11 39 -15 50 -5 11 -11 31 -13 45 -4 25 -4 25 -6 -2z m-138 -29 c112 -58 255 -188 287 -261 44 -100 78 -224 67 -243 -12 -22 -2 -98 18 -138 8 -17 15 -42 15 -57 0 -14 5 -31 11 -37 8 -8 9 -37 4 -92 -5 -61 -13 -87 -31 -112 -13 -18 -24 -40 -24 -49 0 -13 -99 -90 -116 -90 -3 0 -29 12 -58 26 -28 15 -67 28 -86 31 -114 14 -209 18 -240 10 -19 -4 -50 -10 -68 -12 -18 -2 -54 -17 -81 -34 -26 -17 -52 -31 -57 -31 -5 0 -25 13 -44 28 -19 16 -45 34 -58 41 -12 6 -22 20 -22 31 0 10 -12 32 -26 49 -23 28 -26 39 -26 119 0 103 4 134 26 184 23 53 30 112 16 137 -9 18 -6 37 16 104 49 150 66 178 145 249 127 114 209 167 262 168 15 0 47 -10 70 -21z m420 -432 c68 -143 78 -167 66 -167 -7 0 -9 -11 -7 -25 4 -19 1 -25 -12 -25 -30 0 -42 26 -39 82 4 58 -14 104 -30 79 -11 -18 -18 -6 -42 72 -13 44 -15 64 -8 74 17 19 24 10 72 -90z m-907 82 c7 -12 -23 -127 -38 -144 -6 -6 -12 -5 -17 4 -16 24 -30 -19 -24 -74 4 -40 2 -55 -12 -68 -23 -24 -45 -21 -45 6 0 18 -2 19 -10 7 -17 -27 -11 5 10 48 11 22 20 45 20 51 0 8 64 138 83 169 10 15 24 16 33 1z"/>
 <path d="M900 1335 c-19 -22 -7 -41 13 -21 18 19 22 36 8 36 -5 0 -14 -7 -21 -15z"/>
 <path d="M1100 1304 c0 -12 7 -27 15 -34 19 -16 19 -3 0 30 -13 24 -14 24 -15 4z"/>
 <path d="M929 1183 c-12 -16 -12 -17 1 -7 8 7 24 14 35 17 19 4 19 5 -1 6 -12 0 -28 -7 -35 -16z"/>
 <path d="M1045 1193 c11 -3 26 -12 33 -21 11 -14 12 -14 12 0 0 17 -21 29 -48 27 -13 -1 -12 -3 3 -6z"/>
 <path d="M671 913 l-46 -48 30 -3 c57 -6 62 -12 25 -32 l-35 -18 123 -1 c67 0 122 3 122 8 0 5 -9 11 -20 13 -28 4 -30 22 -3 26 29 4 44 24 33 42 -7 12 -12 12 -28 -3 -25 -23 -28 -22 -42 13 -15 36 -37 50 -81 50 -25 0 -42 -10 -78 -47z m89 22 c0 -8 -4 -15 -10 -15 -5 0 -10 -11 -10 -25 0 -22 -4 -25 -35 -25 -43 0 -44 13 -4 51 34 32 59 38 59 14z"/>
 <path d="M1203 943 c-4 -10 -12 -22 -20 -26 -7 -4 -13 -15 -13 -22 0 -21 -20 -18 -46 6 l-21 20 0 -25 c0 -28 6 -31 85 -41 63 -8 182 2 182 16 0 5 -18 27 -40 49 -33 33 -47 40 -80 40 -30 0 -42 -5 -47 -17z m96 -19 c46 -38 41 -54 -16 -54 -42 1 -46 2 -30 14 21 16 21 25 0 48 -26 29 9 23 46 -8z"/>
 <path d="M1340 781 c-52 -47 -74 -49 -142 -12 -32 18 -63 31 -70 29 -16 -6 71 -73 114 -89 33 -11 42 -11 72 4 39 18 69 57 64 83 -2 15 -9 12 -38 -15z"/>
 </g>
<g id="layer107" fill="#b8574b" stroke="none">
 <path d="M130 1978 c1 -43 28 -137 44 -153 9 -9 16 -20 16 -25 0 -16 86 -58 145 -70 104 -20 358 -110 378 -133 24 -27 33 -14 42 62 8 68 26 138 63 254 l29 87 -358 0 -359 0 0 -22z"/>
 <path d="M930 1988 c0 -7 7 -38 15 -68 l15 -55 -27 -22 -28 -22 35 -36 c47 -48 64 -52 106 -20 48 37 51 51 19 77 -28 22 -29 27 -9 126 l7 32 -67 0 c-46 0 -66 -4 -66 -12z"/>
 <path d="M1182 1938 c39 -124 66 -234 73 -290 7 -66 18 -78 43 -50 18 22 275 112 372 131 96 20 136 47 175 122 24 45 35 80 35 108 l0 41 -359 0 -359 0 20 -62z"/>
 <path d="M935 1534 c-16 -8 -53 -29 -81 -45 -43 -24 -53 -27 -58 -14 -3 8 -2 22 1 32 4 11 3 14 -5 9 -7 -4 -17 -27 -23 -52 -9 -34 -24 -56 -65 -93 -50 -44 -104 -130 -104 -165 0 -9 -7 -12 -20 -9 -26 7 -66 -28 -75 -65 -3 -15 -14 -38 -23 -52 -43 -64 -74 -165 -78 -251 -2 -47 -10 -112 -19 -145 -21 -81 -19 -136 5 -167 11 -14 20 -35 20 -46 0 -30 36 -99 60 -113 11 -7 20 -20 20 -29 0 -22 75 -106 103 -115 12 -4 41 -28 64 -55 45 -49 118 -87 148 -75 17 6 65 -12 65 -26 0 -4 61 -8 135 -8 74 0 135 4 135 8 0 13 48 32 64 26 26 -10 88 17 133 59 23 22 43 45 43 52 0 7 11 16 25 19 35 9 90 60 106 98 7 18 27 49 44 69 18 20 35 53 39 74 4 22 14 48 22 59 17 25 18 115 2 171 -11 42 -17 98 -17 175 0 47 -42 168 -73 209 -10 12 -20 38 -24 57 -7 38 -49 78 -75 71 -12 -3 -21 9 -34 47 -19 54 -59 116 -76 116 -19 0 -69 66 -75 100 -4 19 -13 44 -20 55 -13 18 -14 17 -14 -18 0 -43 -2 -44 -38 -18 -95 66 -178 86 -237 55z m159 -23 c28 -16 94 -66 148 -110 53 -44 99 -77 104 -73 4 4 4 2 1 -4 -3 -5 9 -47 26 -92 30 -74 34 -79 46 -61 12 20 13 20 31 4 11 -10 25 -34 31 -54 6 -20 19 -47 28 -61 25 -38 71 -157 70 -183 0 -21 -1 -21 -9 -2 -5 11 -9 14 -9 8 -1 -17 -36 -17 -49 0 -6 7 -12 42 -14 77 -2 48 -6 64 -17 62 -7 -1 -19 2 -26 8 -37 30 -44 -85 -10 -153 8 -17 15 -42 15 -57 0 -14 5 -31 11 -37 8 -8 9 -37 4 -92 -5 -61 -13 -87 -31 -112 -13 -18 -24 -40 -24 -49 0 -13 -99 -90 -116 -90 -3 0 -29 12 -58 26 -28 15 -67 28 -86 31 -114 14 -209 18 -240 10 -19 -4 -50 -10 -68 -12 -18 -2 -54 -17 -81 -34 -26 -17 -52 -31 -57 -31 -5 0 -25 13 -44 28 -19 16 -45 34 -57 41 -13 6 -23 20 -23 31 0 10 -12 32 -26 49 -23 28 -26 39 -26 119 0 102 4 134 25 182 21 47 30 104 22 129 -5 15 -13 20 -34 18 -43 -5 -48 -12 -43 -70 3 -41 0 -57 -13 -70 -21 -22 -42 -22 -48 1 -4 13 -5 11 -6 -5 0 -13 -5 -23 -11 -23 -15 0 -12 19 15 85 14 33 25 63 25 68 0 4 11 25 25 47 14 22 25 46 25 54 0 8 11 28 24 43 21 23 28 26 43 17 16 -10 21 -4 45 60 24 62 37 80 90 127 212 185 270 208 372 150z"/>
 <path d="M900 1335 c-19 -22 -7 -41 13 -21 18 19 22 36 8 36 -5 0 -14 -7 -21 -15z"/>
 <path d="M1100 1304 c0 -12 7 -27 15 -34 19 -16 19 -3 0 30 -13 24 -14 24 -15 4z"/>
 <path d="M1411 1130 c0 -8 4 -24 9 -35 5 -13 9 -14 9 -5 0 8 -4 24 -9 35 -5 13 -9 14 -9 5z"/>
 <path d="M671 913 l-46 -48 30 -3 c57 -6 62 -12 25 -32 l-35 -18 123 -1 c118 -1 158 10 87 23 -45 9 -46 26 -1 26 38 0 59 18 46 40 -7 12 -12 12 -28 -3 -25 -23 -28 -22 -42 13 -15 36 -37 50 -81 50 -25 0 -42 -10 -78 -47z m89 22 c0 -8 -4 -15 -10 -15 -5 0 -10 -11 -10 -25 0 -22 -4 -25 -35 -25 -43 0 -44 13 -4 51 34 32 59 38 59 14z"/>
 <path d="M1203 943 c-4 -10 -12 -22 -20 -26 -7 -4 -13 -15 -13 -22 0 -21 -20 -18 -46 6 l-21 20 0 -25 c0 -28 6 -31 85 -41 63 -8 182 2 182 16 0 5 -18 27 -40 49 -33 33 -47 40 -80 40 -30 0 -42 -5 -47 -17z m96 -19 c46 -38 41 -54 -16 -54 -42 1 -46 2 -30 14 21 16 21 25 0 48 -26 29 9 23 46 -8z"/>
 <path d="M1332 773 c-24 -18 -53 -33 -64 -33 -11 0 -45 14 -74 31 -30 17 -59 29 -66 27 -16 -6 70 -73 114 -89 33 -11 42 -11 72 4 38 17 70 58 64 80 -2 9 -16 4 -46 -20z"/>
 </g>
<g id="layer108" fill="#5d5b59" stroke="none">
 <path d="M130 1978 c1 -43 28 -137 44 -153 9 -9 16 -20 16 -25 0 -16 86 -58 145 -70 104 -20 358 -110 378 -133 24 -27 33 -14 42 62 8 68 26 138 63 254 l29 87 -358 0 -359 0 0 -22z"/>
 <path d="M930 1988 c0 -7 7 -38 15 -68 l15 -55 -27 -22 -28 -22 35 -36 c47 -48 64 -52 106 -20 48 37 51 51 19 77 -28 22 -29 27 -9 126 l7 32 -67 0 c-46 0 -66 -4 -66 -12z"/>
 <path d="M1182 1938 c39 -124 66 -234 73 -290 7 -66 18 -78 43 -50 18 22 275 112 372 131 96 20 136 47 175 122 24 45 35 80 35 108 l0 41 -359 0 -359 0 20 -62z"/>
 <path d="M900 1335 c-19 -22 -7 -41 13 -21 18 19 22 36 8 36 -5 0 -14 -7 -21 -15z"/>
 <path d="M1100 1304 c0 -12 7 -27 15 -34 19 -16 19 -3 0 30 -13 24 -14 24 -15 4z"/>
 <path d="M531 1004 c-13 -16 -21 -41 -21 -65 0 -41 -20 -69 -51 -69 -25 0 -59 -56 -59 -97 0 -18 -7 -58 -15 -90 -21 -80 -19 -135 5 -166 11 -14 20 -35 20 -46 0 -30 36 -99 60 -113 11 -7 20 -20 20 -29 0 -22 75 -106 103 -115 12 -4 41 -28 64 -55 45 -49 118 -87 148 -75 17 6 65 -12 65 -26 0 -4 61 -8 135 -8 74 0 135 4 135 8 0 13 48 32 64 26 26 -10 88 17 133 59 23 22 43 45 43 52 0 7 11 16 25 19 35 9 90 60 106 98 7 18 27 49 44 69 18 20 35 53 39 74 4 22 14 48 22 59 17 25 18 115 2 171 -6 22 -12 58 -13 80 0 22 -3 47 -6 55 -6 22 -39 50 -59 50 -26 0 -36 19 -44 75 -7 59 -38 94 -63 73 -19 -15 -12 -93 12 -140 8 -17 15 -43 15 -58 0 -14 5 -31 11 -37 8 -8 9 -37 4 -92 -5 -61 -13 -87 -31 -112 -13 -18 -24 -40 -24 -49 0 -13 -99 -90 -116 -90 -3 0 -29 12 -58 26 -28 15 -67 28 -86 31 -114 14 -209 18 -240 10 -19 -4 -50 -10 -68 -12 -18 -2 -54 -17 -81 -34 -26 -17 -52 -31 -57 -31 -5 0 -25 13 -44 28 -19 16 -45 34 -57 41 -13 6 -23 20 -23 31 0 10 -12 32 -26 49 -23 28 -26 39 -26 119 0 102 4 134 25 182 46 106 23 194 -32 124z"/>
 <path d="M671 913 l-46 -48 30 -3 c57 -6 62 -12 25 -32 l-35 -18 123 -1 c118 -1 158 10 87 23 -45 9 -46 26 -1 26 38 0 59 18 46 40 -7 12 -12 12 -28 -3 -25 -23 -28 -22 -42 13 -15 36 -37 50 -81 50 -25 0 -42 -10 -78 -47z m89 22 c0 -8 -4 -15 -10 -15 -5 0 -10 -11 -10 -25 0 -22 -4 -25 -35 -25 -43 0 -44 13 -4 51 34 32 59 38 59 14z"/>
 <path d="M1203 943 c-4 -10 -12 -22 -20 -26 -7 -4 -13 -15 -13 -22 0 -21 -20 -18 -46 6 l-21 20 0 -25 c0 -28 6 -31 85 -41 63 -8 182 2 182 16 0 5 -18 27 -40 49 -33 33 -47 40 -80 40 -30 0 -42 -5 -47 -17z m96 -19 c46 -38 41 -54 -16 -54 -42 1 -46 2 -30 14 21 16 21 25 0 48 -26 29 9 23 46 -8z"/>
 <path d="M1332 773 c-24 -18 -53 -33 -64 -33 -11 0 -45 14 -74 31 -30 17 -59 29 -66 27 -16 -6 70 -73 114 -89 33 -11 42 -11 72 4 38 17 70 58 64 80 -2 9 -16 4 -46 -20z"/>
 </g>
<g id="layer109" fill="#6a473c" stroke="none">
 <path d="M130 1978 c1 -43 28 -137 44 -153 9 -9 16 -20 16 -25 0 -16 86 -58 145 -70 104 -20 358 -110 378 -133 24 -28 33 -14 40 71 7 72 75 312 92 324 5 4 -153 8 -352 8 l-363 0 0 -22z"/>
 <path d="M946 1933 c12 -65 12 -69 -8 -90 -21 -23 -21 -23 -2 -45 28 -33 58 -57 69 -57 11 0 85 65 85 75 0 3 -12 15 -26 27 -23 18 -26 25 -20 64 3 23 8 54 12 68 6 25 5 25 -58 25 l-65 0 13 -67z"/>
 <path d="M1165 1992 c15 -10 64 -192 95 -354 6 -32 14 -58 17 -58 2 0 12 9 21 19 18 21 278 112 372 130 96 20 136 47 175 122 24 45 35 80 35 108 l0 41 -362 0 c-200 0 -358 -4 -353 -8z"/>
 <path d="M906 1334 c-9 -23 -2 -28 13 -10 7 8 8 17 3 20 -6 3 -13 -1 -16 -10z"/>
 <path d="M531 1004 c-13 -16 -21 -41 -21 -65 0 -41 -20 -69 -51 -69 -25 0 -59 -56 -59 -97 0 -18 -7 -58 -15 -90 -21 -80 -19 -135 5 -166 11 -14 20 -35 20 -46 0 -30 36 -99 60 -113 11 -7 20 -20 20 -29 0 -22 75 -106 103 -115 12 -4 41 -28 64 -55 45 -49 118 -87 148 -75 17 6 65 -12 65 -26 0 -4 61 -8 135 -8 74 0 135 4 135 8 0 13 48 32 64 26 26 -10 88 17 133 59 23 22 43 45 43 52 0 7 11 16 25 19 35 9 90 60 106 98 7 18 27 49 44 69 18 20 35 53 39 74 4 22 14 48 22 59 17 25 18 115 2 171 -6 22 -12 58 -13 80 0 22 -3 47 -6 55 -6 22 -39 50 -59 50 -26 0 -36 19 -44 75 -7 59 -38 94 -63 73 -19 -15 -12 -93 12 -140 8 -17 15 -43 15 -58 0 -14 5 -31 11 -37 8 -8 9 -37 4 -92 -5 -61 -13 -87 -31 -112 -13 -18 -24 -40 -24 -49 0 -13 -99 -90 -116 -90 -3 0 -29 12 -58 26 -28 15 -67 28 -86 31 -114 14 -209 18 -240 10 -19 -4 -50 -10 -68 -12 -18 -2 -54 -17 -81 -34 -26 -17 -52 -31 -57 -31 -5 0 -25 13 -44 28 -19 16 -45 34 -57 41 -13 6 -23 20 -23 31 0 10 -12 32 -26 49 -23 28 -26 39 -26 119 0 102 4 134 25 182 46 106 23 194 -32 124z"/>
 <path d="M673 913 l-48 -47 30 -4 c57 -6 62 -12 25 -32 l-35 -18 123 -1 c118 -1 158 10 87 23 -45 9 -46 26 -1 26 39 0 60 18 45 40 -8 13 -12 11 -27 -8 -14 -18 -26 -23 -48 -19 -27 4 -28 5 -7 12 18 6 21 11 13 25 -9 18 -60 25 -60 9 0 -5 -7 -9 -16 -9 -11 0 -15 -6 -11 -20 4 -17 0 -20 -34 -20 -50 0 -51 19 -2 59 21 17 32 31 25 31 -6 0 -33 -21 -59 -47z"/>
 <path d="M1287 938 c32 -23 58 -56 50 -65 -3 -2 -29 -2 -58 0 -42 3 -49 5 -31 11 23 9 26 14 14 32 -16 25 -96 -4 -86 -31 8 -19 -10 -19 -40 1 -18 11 -26 12 -31 3 -11 -17 11 -26 82 -34 62 -6 183 1 183 12 0 15 -45 65 -70 78 -43 22 -49 18 -13 -7z"/>
 <path d="M1332 773 c-24 -18 -53 -33 -64 -33 -11 0 -45 14 -74 31 -30 17 -59 29 -66 27 -16 -6 70 -73 114 -89 33 -11 42 -11 72 4 38 17 70 58 64 80 -2 9 -16 4 -46 -20z"/>
 </g>
<g id="layer110" fill="#384042" stroke="none">
 <path d="M130 1978 c1 -43 28 -137 44 -153 9 -9 16 -20 16 -25 0 -16 86 -58 145 -70 104 -20 358 -110 378 -133 24 -28 33 -14 40 71 7 72 75 312 92 324 5 4 -153 8 -352 8 l-363 0 0 -22z"/>
 <path d="M946 1933 c12 -65 12 -69 -8 -90 -21 -23 -21 -23 -2 -45 28 -33 58 -57 69 -57 11 0 85 65 85 75 0 3 -12 15 -26 27 -23 18 -26 25 -20 64 3 23 8 54 12 68 6 25 5 25 -58 25 l-65 0 13 -67z"/>
 <path d="M1165 1992 c15 -10 64 -192 95 -354 6 -32 14 -58 17 -58 2 0 12 9 21 19 18 21 278 112 372 130 96 20 136 47 175 122 24 45 35 80 35 108 l0 41 -362 0 c-200 0 -358 -4 -353 -8z"/>
 <path d="M906 1334 c-9 -23 -2 -28 13 -10 7 8 8 17 3 20 -6 3 -13 -1 -16 -10z"/>
 <path d="M1433 1017 c-16 -20 -6 -101 17 -140 12 -20 19 -41 15 -47 -4 -6 0 -26 9 -43 11 -24 13 -43 7 -69 -5 -20 -6 -48 -4 -61 4 -18 -5 -40 -26 -71 -17 -24 -31 -51 -31 -58 0 -12 -100 -88 -115 -88 -3 0 -35 14 -72 31 -51 25 -70 30 -83 21 -13 -8 -21 -7 -31 3 -15 15 -186 24 -207 11 -7 -4 -31 -9 -53 -11 -23 -2 -61 -17 -88 -34 -26 -17 -51 -31 -55 -31 -20 0 -126 85 -126 101 0 9 -11 30 -23 46 -36 42 -56 186 -30 215 8 9 14 25 12 35 -1 10 6 36 16 58 9 22 18 60 19 85 1 40 -2 45 -22 48 -18 3 -26 -4 -38 -33 -8 -20 -12 -40 -9 -45 10 -17 -18 -59 -51 -75 -42 -20 -64 -51 -64 -92 0 -17 -7 -58 -15 -90 -21 -80 -19 -135 5 -166 11 -14 20 -35 20 -46 0 -30 36 -99 60 -113 11 -7 20 -20 20 -29 0 -22 75 -106 103 -115 12 -4 41 -28 64 -55 45 -49 118 -87 148 -75 17 6 65 -12 65 -26 0 -4 61 -8 135 -8 74 0 135 4 135 8 0 13 48 32 64 26 26 -10 88 17 133 59 23 22 43 45 43 52 0 7 11 16 25 19 35 9 90 60 106 98 7 18 27 49 44 69 18 20 35 53 39 74 4 22 14 48 22 59 17 25 18 115 2 171 -6 22 -12 60 -14 85 -4 68 -4 68 -51 90 -41 19 -67 55 -61 84 8 42 -38 101 -59 73z m-653 -783 c-7 -13 -19 -25 -27 -28 -9 -4 -7 4 6 20 12 15 22 36 22 48 1 19 2 19 6 2 3 -10 -1 -29 -7 -42z m280 16 c12 -23 12 -24 -3 -11 -10 7 -17 20 -17 29 0 18 3 16 20 -18z"/>
 <path d="M673 915 c-25 -25 -44 -47 -42 -50 3 -2 31 -6 62 -7 57 -3 81 -18 30 -18 -16 -1 -38 -6 -50 -13 -18 -10 -1 -12 100 -13 118 -1 121 -1 85 14 -47 18 -49 32 -4 32 39 0 60 18 45 40 -8 13 -12 11 -27 -8 -14 -18 -26 -23 -48 -19 -27 4 -28 5 -7 12 18 6 21 11 13 25 -9 18 -60 25 -60 9 0 -5 -7 -9 -16 -9 -11 0 -15 -6 -11 -20 4 -17 0 -20 -34 -20 -50 0 -51 19 -2 59 21 17 32 31 25 31 -6 0 -33 -20 -59 -45z"/>
 <path d="M1287 938 c32 -23 58 -56 50 -65 -3 -2 -29 -2 -58 0 -42 3 -49 5 -31 11 23 9 26 14 14 32 -16 25 -96 -4 -86 -31 8 -19 -10 -19 -40 1 -18 11 -26 12 -31 3 -12 -18 11 -26 91 -33 68 -6 174 1 174 11 0 15 -46 65 -70 78 -43 22 -49 18 -13 -7z"/>
 <path d="M1130 792 c0 -13 28 -35 80 -65 34 -19 52 -24 75 -19 38 9 68 30 84 60 20 37 5 38 -35 2 -31 -27 -43 -31 -73 -27 -20 2 -54 16 -75 31 -40 27 -56 32 -56 18z"/>
 </g>
<g id="layer111" fill="#52372e" stroke="none">
 <path d="M130 1978 c1 -43 28 -137 44 -153 9 -9 16 -20 16 -25 0 -16 86 -58 145 -70 101 -19 358 -110 377 -132 18 -20 18 -20 27 4 4 12 12 50 16 82 4 33 20 101 35 152 16 51 32 109 36 128 l6 36 -351 0 -351 0 0 -22z m71 -110 c10 -27 17 -48 14 -48 -7 0 -35 69 -40 99 -6 28 -2 21 26 -51z m79 -83 c33 -19 21 -19 -21 0 -19 8 -27 14 -19 14 8 0 26 -6 40 -14z"/>
 <path d="M940 1982 c0 -10 6 -41 13 -69 13 -51 13 -52 -12 -71 l-26 -20 40 -41 c21 -23 44 -41 50 -41 13 1 85 68 85 80 0 6 -3 10 -7 10 -5 0 -19 9 -31 18 -21 17 -23 22 -14 58 6 21 13 51 16 67 l6 27 -60 0 c-51 0 -60 -3 -60 -18z"/>
 <path d="M1180 1982 c0 -10 11 -56 24 -102 24 -84 34 -131 56 -242 6 -32 14 -58 17 -58 2 0 12 9 21 19 18 21 278 112 372 130 96 20 136 47 175 122 24 45 35 80 35 108 l0 41 -350 0 c-330 0 -350 -1 -350 -18z m590 -180 c0 -10 -44 -32 -63 -32 -9 0 21 20 61 39 1 0 2 -3 2 -7z"/>
 <path d="M1433 1017 c-16 -20 -6 -101 17 -140 12 -20 19 -41 15 -47 -4 -6 0 -26 9 -43 11 -24 13 -43 7 -69 -5 -20 -6 -48 -4 -61 4 -18 -5 -40 -26 -71 -17 -24 -31 -51 -31 -58 0 -12 -100 -88 -115 -88 -3 0 -35 14 -72 31 -51 25 -70 30 -83 21 -13 -8 -21 -7 -31 3 -15 15 -186 24 -207 11 -7 -4 -31 -9 -53 -11 -23 -2 -61 -17 -88 -34 -26 -17 -51 -31 -55 -31 -20 0 -126 85 -126 101 0 9 -11 30 -23 46 -36 42 -56 186 -30 215 8 9 14 25 12 35 -1 10 6 36 16 58 9 22 18 60 19 85 1 40 -2 45 -22 48 -18 3 -26 -4 -38 -33 -8 -20 -12 -40 -9 -45 10 -17 -18 -59 -51 -75 -42 -20 -64 -51 -64 -92 0 -17 -7 -58 -15 -90 -21 -80 -19 -135 5 -166 11 -14 20 -35 20 -46 0 -30 36 -99 60 -113 11 -7 20 -20 20 -29 0 -22 75 -106 103 -115 12 -4 41 -28 64 -55 45 -49 118 -87 148 -75 17 6 65 -12 65 -26 0 -4 61 -8 135 -8 74 0 135 4 135 8 0 13 48 32 64 26 26 -10 88 17 133 59 23 22 43 45 43 52 0 7 11 16 25 19 35 9 90 60 106 98 7 18 27 49 44 69 18 20 35 53 39 74 4 22 14 48 22 59 17 25 18 115 2 171 -6 22 -12 60 -14 85 -4 68 -4 68 -51 90 -41 19 -67 55 -61 84 8 42 -38 101 -59 73z m-653 -783 c-7 -13 -19 -25 -27 -28 -9 -4 -7 4 6 20 12 15 22 36 22 48 1 19 2 19 6 2 3 -10 -1 -29 -7 -42z m280 16 c12 -23 12 -24 -3 -11 -10 7 -17 20 -17 29 0 18 3 16 20 -18z"/>
 <path d="M673 913 l-48 -47 40 -6 c22 -3 45 -3 50 0 6 3 -2 6 -17 8 -38 4 -35 24 7 61 20 17 31 31 26 31 -6 0 -32 -21 -58 -47z"/>
 <path d="M1291 935 c32 -21 55 -52 47 -61 -3 -2 -86 -7 -102 -5 -5 1 -4 7 2 14 15 18 -2 42 -23 33 -11 -4 -15 -13 -12 -25 3 -14 -1 -19 -22 -19 -14 0 -36 6 -48 14 -15 10 -24 11 -29 3 -11 -18 13 -26 92 -33 66 -6 174 0 174 11 0 14 -37 56 -65 73 -46 28 -57 25 -14 -5z"/>
 <path d="M766 911 c-3 -5 -3 -16 0 -25 4 -12 0 -16 -15 -16 -12 0 -21 -5 -21 -11 0 -5 5 -7 10 -4 6 3 10 1 10 -4 0 -6 -12 -11 -27 -11 -16 -1 -38 -6 -50 -13 -18 -10 -1 -12 100 -13 118 -1 121 -1 85 14 -47 18 -49 32 -4 32 18 0 39 6 45 14 17 20 -2 28 -25 11 -10 -8 -31 -15 -46 -15 -23 0 -27 4 -25 22 2 23 -26 38 -37 19z"/>
 <path d="M1130 792 c0 -13 28 -35 80 -65 34 -19 52 -24 75 -19 38 9 68 30 84 60 20 37 5 38 -35 2 -31 -27 -43 -31 -73 -27 -20 2 -54 16 -75 31 -40 27 -56 32 -56 18z"/>
 </g>
<g id="layer112" fill="#1d272d" stroke="none">
 <path d="M130 1978 c1 -43 28 -137 44 -153 9 -9 16 -20 16 -25 0 -16 86 -58 145 -70 101 -19 358 -110 377 -132 18 -20 18 -20 27 4 4 12 12 50 16 82 4 33 20 101 35 152 16 51 32 109 36 128 l6 36 -351 0 -351 0 0 -22z m71 -110 c10 -27 17 -48 14 -48 -7 0 -35 69 -40 99 -6 28 -2 21 26 -51z m79 -83 c33 -19 21 -19 -21 0 -19 8 -27 14 -19 14 8 0 26 -6 40 -14z"/>
 <path d="M940 1982 c0 -10 6 -41 13 -69 13 -51 13 -52 -12 -72 l-26 -20 43 -41 c45 -44 47 -44 101 2 29 25 40 48 24 48 -5 0 -19 9 -31 18 -21 17 -23 22 -14 58 6 21 13 51 16 67 l6 27 -60 0 c-51 0 -60 -3 -60 -18z"/>
 <path d="M1180 1981 c0 -10 13 -63 30 -118 16 -55 32 -120 35 -144 9 -63 26 -139 32 -139 3 0 12 9 21 19 18 21 278 112 372 130 96 20 136 47 175 122 24 45 35 80 35 108 l0 41 -350 0 c-335 0 -350 -1 -350 -19z m590 -179 c0 -10 -44 -32 -63 -32 -9 0 21 20 61 39 1 0 2 -3 2 -7z"/>
 <path d="M536 998 c-9 -12 -16 -35 -16 -51 0 -16 -9 -42 -21 -58 -11 -16 -16 -29 -10 -29 18 0 41 44 41 78 0 36 15 72 30 72 16 0 11 -40 -11 -100 -11 -30 -21 -68 -23 -83 -2 -15 -8 -33 -14 -39 -7 -7 -12 -30 -12 -52 0 -56 21 -167 30 -161 11 7 30 -18 39 -51 4 -15 16 -32 26 -38 11 -6 39 -26 64 -43 24 -18 50 -33 58 -33 8 0 34 14 59 30 49 34 75 40 218 47 67 3 107 0 122 -8 13 -6 30 -9 40 -5 9 4 44 -7 83 -25 62 -30 67 -30 91 -16 14 9 42 25 63 37 21 11 40 29 43 38 3 9 16 40 29 67 37 77 50 193 24 219 -5 6 -9 21 -9 35 -1 28 -39 106 -40 81 0 -9 6 -24 14 -35 7 -11 16 -37 20 -57 3 -21 9 -54 12 -73 3 -19 3 -43 -1 -52 -4 -10 -7 -30 -6 -46 2 -17 -9 -42 -28 -69 -17 -23 -31 -50 -31 -60 0 -10 -16 -26 -39 -38 -22 -11 -42 -24 -46 -30 -10 -17 -61 -11 -88 10 -14 11 -31 20 -39 20 -8 0 -19 5 -26 12 -8 8 -15 8 -25 0 -11 -9 -21 -8 -46 4 -23 12 -45 14 -77 9 -28 -4 -50 -2 -58 4 -14 11 -68 -1 -94 -22 -9 -7 -16 -7 -24 1 -7 7 -21 4 -47 -10 -101 -58 -101 -58 -155 -18 -22 17 -45 30 -52 30 -7 0 -18 19 -25 42 -6 23 -20 49 -31 56 -14 10 -18 21 -14 38 3 12 2 26 -4 29 -9 5 -7 85 4 165 3 22 23 75 47 122 12 25 11 52 -3 66 -17 17 -25 15 -42 -10z"/>
 <path d="M1447 1012 c16 -10 33 -57 33 -91 0 -15 8 -35 18 -44 27 -25 36 -21 12 5 -13 14 -20 33 -18 54 2 34 -25 84 -45 84 -9 0 -9 -2 0 -8z"/>
 <path d="M669 909 c-16 -17 -29 -35 -29 -39 0 -11 70 -18 76 -8 3 4 -6 8 -20 8 -32 0 -33 16 -4 47 12 13 18 23 14 23 -4 0 -21 -14 -37 -31z"/>
 <path d="M1315 915 c36 -35 31 -45 -22 -46 -39 -1 -43 -2 -22 -9 14 -4 43 -5 64 -1 l39 6 -33 38 c-18 20 -37 37 -42 37 -4 0 3 -11 16 -25z"/>
 <path d="M766 911 c-3 -5 -3 -16 0 -24 4 -11 -2 -17 -18 -20 -13 -2 -5 -5 20 -6 58 -2 53 -21 -5 -21 -52 0 -93 -9 -93 -19 0 -3 50 -6 112 -6 106 0 110 0 75 14 -45 17 -48 31 -8 31 17 0 33 5 36 11 10 16 -4 24 -17 11 -7 -7 -25 -12 -40 -12 -23 0 -27 4 -25 22 2 23 -26 38 -37 19z"/>
 <path d="M1204 905 c-3 -8 -3 -18 0 -23 7 -12 -44 -13 -66 -1 -10 5 -19 5 -22 0 -3 -5 1 -12 10 -15 25 -10 116 -7 109 3 -3 5 -1 12 4 16 14 8 2 35 -15 35 -8 0 -17 -7 -20 -15z"/>
 <path d="M421 834 c-12 -15 -21 -41 -21 -60 0 -18 -7 -59 -15 -91 -21 -80 -19 -135 5 -166 11 -14 20 -35 20 -46 0 -30 36 -99 60 -113 11 -7 20 -20 20 -29 0 -22 75 -106 103 -115 12 -4 41 -28 64 -55 45 -49 118 -87 148 -75 17 6 65 -12 65 -26 0 -4 61 -8 135 -8 74 0 135 4 135 8 0 13 48 32 64 26 26 -10 88 17 133 59 23 22 43 45 43 52 0 7 11 16 25 19 35 9 90 60 106 98 7 18 27 49 44 69 18 20 35 53 39 74 4 22 14 48 22 59 18 26 18 119 0 178 -7 24 -11 58 -9 74 2 16 -2 38 -11 49 -14 18 -15 16 -10 -35 3 -30 10 -79 15 -109 13 -77 11 -122 -6 -154 -8 -16 -19 -46 -25 -68 -6 -22 -24 -54 -39 -72 -16 -17 -35 -46 -44 -63 -18 -34 -71 -84 -91 -84 -6 0 -28 -20 -48 -44 -39 -46 -118 -92 -143 -82 -8 3 -31 -2 -52 -10 -58 -25 -216 -27 -282 -5 -29 10 -61 17 -71 14 -27 -7 -92 31 -135 79 -22 23 -53 49 -69 58 -17 8 -45 35 -63 60 -18 25 -44 60 -58 79 -14 19 -31 53 -37 75 -6 23 -18 50 -25 61 -16 24 -17 90 -2 187 6 40 13 88 15 106 4 22 12 36 27 42 16 6 17 9 5 9 -9 1 -26 -11 -37 -25z"/>
 <path d="M1147 775 c10 -13 23 -25 28 -25 6 0 21 -9 35 -20 41 -32 96 -26 136 14 33 33 43 56 26 56 -5 0 -17 -9 -28 -21 -33 -37 -69 -50 -101 -38 -15 6 -35 16 -43 23 -8 7 -28 18 -43 24 l-28 12 18 -25z"/>
 </g>
<g id="layer113" fill="#331f16" stroke="none">
 <path d="M130 1978 c1 -43 28 -137 44 -153 9 -9 16 -20 16 -25 0 -16 86 -58 145 -70 97 -19 358 -110 376 -131 21 -24 25 -14 39 80 5 36 22 109 38 161 37 119 46 160 35 160 -10 0 -83 -245 -83 -280 0 -14 -3 -42 -7 -63 l-6 -38 -26 24 c-14 13 -44 36 -66 51 l-40 28 40 -37 c45 -42 46 -42 -100 9 -55 20 -134 43 -175 52 -111 25 -141 42 -167 94 -12 25 -28 71 -35 103 -12 57 -28 77 -28 35z"/>
 <path d="M562 1934 c-26 -77 -22 -98 6 -33 24 57 35 99 24 99 -4 0 -18 -30 -30 -66z"/>
 <path d="M940 1988 c0 -7 7 -38 15 -68 l15 -55 -27 -22 -27 -22 43 -41 43 -41 31 24 c52 40 56 54 23 80 -28 23 -28 24 -17 76 17 82 18 81 -44 81 -37 0 -55 -4 -55 -12z"/>
 <path d="M1180 1989 c0 -6 14 -59 31 -118 17 -58 37 -137 44 -176 l13 -70 1 54 c1 56 -66 321 -81 321 -5 0 -8 -5 -8 -11z"/>
 <path d="M1410 1993 c0 -20 45 -133 53 -133 5 0 7 6 4 13 -2 6 -13 38 -23 69 -11 32 -22 58 -26 58 -5 0 -8 -3 -8 -7z"/>
 <path d="M1851 1946 c-7 -30 -23 -76 -37 -104 -28 -57 -53 -71 -184 -101 -88 -21 -196 -56 -265 -86 l-40 -17 25 27 c21 23 21 26 5 17 -33 -17 -88 -79 -80 -91 4 -8 12 -5 23 8 18 21 277 112 372 130 96 20 136 47 175 122 24 45 35 80 35 108 0 58 -15 51 -29 -13z"/>
 <path d="M282 1915 c-17 -37 -14 -45 4 -12 9 16 14 31 11 33 -2 2 -9 -7 -15 -21z"/>
 <path d="M614 1822 c3 -5 -8 -19 -24 -31 -17 -12 -30 -27 -30 -33 0 -7 16 3 35 22 36 35 43 50 24 50 -5 0 -8 -4 -5 -8z"/>
 <path d="M1376 1822 c-3 -2 11 -20 30 -39 20 -19 39 -32 42 -29 3 4 -11 21 -31 40 -20 18 -39 31 -41 28z"/>
 <path d="M536 998 c-9 -12 -16 -35 -16 -51 0 -16 -9 -42 -21 -58 -11 -16 -16 -29 -10 -29 18 0 41 44 41 78 0 36 15 72 30 72 16 0 11 -40 -11 -100 -11 -30 -21 -68 -23 -83 -2 -15 -8 -33 -14 -39 -7 -7 -12 -30 -12 -52 0 -56 21 -167 30 -161 11 7 30 -18 39 -51 4 -15 16 -32 26 -38 11 -6 39 -26 64 -43 24 -18 50 -33 58 -33 8 0 34 14 59 30 49 34 75 40 218 47 67 3 107 0 122 -8 13 -6 30 -9 40 -5 9 4 44 -7 83 -25 62 -30 67 -30 91 -16 14 9 42 25 63 37 21 11 40 29 43 38 3 9 16 40 29 67 37 77 50 193 24 219 -5 6 -9 21 -9 35 -1 28 -39 106 -40 81 0 -9 6 -24 14 -35 7 -11 16 -37 20 -57 3 -21 9 -54 12 -73 3 -19 3 -43 -1 -52 -4 -10 -7 -30 -6 -46 2 -17 -9 -42 -28 -69 -17 -23 -31 -50 -31 -60 0 -10 -16 -26 -39 -38 -22 -11 -42 -24 -46 -30 -10 -17 -61 -11 -88 10 -14 11 -31 20 -39 20 -8 0 -19 5 -26 12 -8 8 -15 8 -25 0 -11 -9 -21 -8 -46 4 -23 12 -45 14 -77 9 -28 -4 -50 -2 -58 4 -14 11 -68 -1 -94 -22 -9 -7 -16 -7 -24 1 -7 7 -21 4 -47 -10 -101 -58 -101 -58 -155 -18 -22 17 -45 30 -52 30 -7 0 -18 19 -25 42 -6 23 -20 49 -31 56 -14 10 -18 21 -14 38 3 12 2 26 -4 29 -9 5 -7 85 4 165 3 22 23 75 47 122 12 25 11 52 -3 66 -17 17 -25 15 -42 -10z"/>
 <path d="M1447 1012 c16 -10 33 -57 33 -91 0 -15 8 -35 18 -44 27 -25 36 -21 12 5 -13 14 -20 33 -18 54 2 34 -25 84 -45 84 -9 0 -9 -2 0 -8z"/>
 <path d="M1318 919 c12 -14 22 -33 22 -42 0 -9 7 -17 15 -17 21 0 7 26 -32 60 l-28 25 23 -26z"/>
 <path d="M660 901 c-11 -16 -17 -32 -13 -34 5 -3 16 10 25 29 22 42 16 44 -12 5z"/>
 <path d="M770 895 c0 -10 7 -15 18 -13 21 4 19 22 -2 26 -10 2 -16 -3 -16 -13z"/>
 <path d="M1210 894 c0 -9 5 -14 12 -12 18 6 21 28 4 28 -9 0 -16 -7 -16 -16z"/>
 <path d="M1183 863 c9 -2 25 -2 35 0 9 3 1 5 -18 5 -19 0 -27 -2 -17 -5z"/>
 <path d="M421 834 c-12 -15 -21 -41 -21 -60 0 -18 -7 -59 -15 -91 -21 -80 -19 -135 5 -166 11 -14 20 -35 20 -46 0 -30 36 -99 60 -113 11 -7 20 -20 20 -29 0 -22 75 -106 103 -115 12 -4 41 -28 64 -55 45 -49 118 -87 148 -75 17 6 65 -12 65 -26 0 -4 61 -8 135 -8 74 0 135 4 135 8 0 13 48 32 64 26 26 -10 88 17 133 59 23 22 43 45 43 52 0 7 12 16 27 20 31 7 98 73 108 106 4 13 22 40 40 60 18 20 35 53 39 74 4 22 14 48 22 59 18 26 18 119 0 178 -7 24 -11 58 -9 74 2 16 -2 38 -11 49 -14 18 -15 16 -10 -35 3 -30 10 -79 15 -109 13 -77 11 -122 -6 -154 -8 -16 -19 -46 -25 -68 -6 -22 -24 -54 -39 -72 -16 -17 -35 -46 -44 -63 -18 -34 -71 -84 -91 -84 -6 0 -28 -20 -48 -44 -39 -46 -118 -92 -143 -82 -8 3 -31 -2 -52 -10 -58 -25 -216 -27 -282 -5 -29 10 -61 17 -71 14 -27 -7 -92 31 -135 79 -22 23 -53 49 -69 58 -17 8 -45 35 -63 60 -18 25 -44 60 -58 79 -14 19 -31 53 -37 75 -6 23 -18 50 -25 61 -16 24 -17 90 -2 187 6 40 13 88 15 106 4 22 12 36 27 42 16 6 17 9 5 9 -9 1 -26 -11 -37 -25z"/>
 <path d="M1144 783 c10 -13 23 -20 28 -17 5 3 17 0 26 -8 15 -12 16 -11 3 5 -8 10 -19 16 -25 14 -6 -3 -20 3 -31 12 -20 16 -20 16 -1 -6z"/>
 <path d="M1344 777 c-14 -15 -14 -18 -2 -9 13 10 17 10 20 0 3 -8 6 -6 11 5 10 26 -8 29 -29 4z"/>
 </g>
<g id="layer114" fill="#0d0f0f" stroke="none">
 <path d="M130 1978 c1 -43 28 -137 44 -153 9 -9 16 -20 16 -25 0 -16 86 -58 145 -70 97 -19 358 -110 376 -131 21 -24 25 -14 39 80 5 36 22 109 38 161 37 119 46 160 35 160 -10 0 -83 -245 -83 -280 0 -14 -3 -42 -7 -63 l-6 -38 -26 24 c-14 13 -44 36 -66 51 l-40 28 40 -37 c45 -42 46 -42 -100 9 -55 20 -134 43 -175 52 -111 25 -141 42 -167 94 -12 25 -28 71 -35 103 -12 57 -28 77 -28 35z"/>
 <path d="M562 1934 c-26 -77 -22 -98 6 -33 24 57 35 99 24 99 -4 0 -18 -30 -30 -66z"/>
 <path d="M940 1988 c0 -7 7 -38 15 -68 l15 -55 -27 -22 -26 -22 35 -35 c43 -43 57 -44 97 -10 38 31 39 42 5 69 -26 20 -26 23 -15 74 17 82 18 81 -44 81 -37 0 -55 -4 -55 -12z"/>
 <path d="M1180 1989 c0 -6 14 -59 31 -118 17 -58 37 -137 44 -176 l13 -70 1 54 c1 56 -66 321 -81 321 -5 0 -8 -5 -8 -11z"/>
 <path d="M1410 1993 c0 -20 45 -133 53 -133 5 0 7 6 4 13 -2 6 -13 38 -23 69 -11 32 -22 58 -26 58 -5 0 -8 -3 -8 -7z"/>
 <path d="M1851 1946 c-7 -30 -23 -76 -37 -104 -28 -57 -53 -71 -184 -101 -88 -21 -196 -56 -265 -86 l-40 -17 25 27 c21 23 21 26 5 17 -33 -17 -88 -79 -80 -91 4 -8 12 -5 23 8 18 21 277 112 372 130 96 20 136 47 175 122 24 45 35 80 35 108 0 58 -15 51 -29 -13z"/>
 <path d="M282 1915 c-17 -37 -14 -45 4 -12 9 16 14 31 11 33 -2 2 -9 -7 -15 -21z"/>
 <path d="M614 1822 c3 -5 -8 -19 -24 -31 -17 -12 -30 -27 -30 -33 0 -7 16 3 35 22 36 35 43 50 24 50 -5 0 -8 -4 -5 -8z"/>
 <path d="M1376 1822 c-3 -2 11 -20 30 -39 20 -19 39 -32 42 -29 3 4 -11 21 -31 40 -20 18 -39 31 -41 28z"/>
 <path d="M1323 915 c9 -12 17 -29 17 -38 0 -9 5 -17 10 -17 18 0 11 19 -17 48 -16 15 -20 18 -10 7z"/>
 <path d="M662 900 c-7 -11 -12 -25 -12 -32 0 -7 7 0 15 16 18 33 15 45 -3 16z"/>
 <path d="M770 895 c0 -10 7 -15 18 -13 21 4 19 22 -2 26 -10 2 -16 -3 -16 -13z"/>
 <path d="M1210 894 c0 -9 5 -14 12 -12 18 6 21 28 4 28 -9 0 -16 -7 -16 -16z"/>
 <path d="M1183 863 c9 -2 25 -2 35 0 9 3 1 5 -18 5 -19 0 -27 -2 -17 -5z"/>
 </g>

</svg>