<svg xmlns="http://www.w3.org/2000/svg" width="83.936" height="96.436" viewBox="0 0 78.69 90.408"><path d="M12.691.553C6.31.6.553 3.423.553 8.253c0 3.965 6.207 16.255 8.808 17.44.888.405.94.866.172 1.56-1.445 1.308-.96 2.951 1.748 5.907.946 1.033 2.094 2.616 2.551 3.518.934 1.844 1.48 2.367 2.484 2.38.577.009.675.146.596.83-.052.452-.197.785-.322.74-1.1-.39-5.434 4.955-5.781 7.13-.119.74-.376 1.204-.73 1.316-.507.16-1.893 1.71-2.962 3.309-.246.368-1.04 1.515-1.763 2.549-2.878 4.108-3.615 7.81-3.02 15.175.56 6.935 2.978 17.994 4.205 19.235.032.032.42.484.445.513H48.27c-.39-.656.291-1.528 1.17-1.539.213-.002 1.393-.955 2.622-2.119 1.315-1.244 1.926-1.75 2.301-1.834v-2.802l-6.93-10.178c-.594-.02-1.008-.474-1.5-1.217-2.18-3.296-5.201-8.231-7.704-12.594-3.194-5.564-4.103-6.883-4.893-7.09-.303-.079-.55-.246-.55-.37 0-.493 4.108-4.382 5.421-5.132.766-.437 1.952-1.51 2.635-2.384.682-.874 2.07-2.265 3.084-3.092 1.45-1.184 1.86-1.704 1.933-2.445.119-1.21 1.431-1.703 3.877-1.457 4.304.431 5.617-2.038 1.405-2.641-1.624-.232-2.893-.89-4.012-2.08-.928-.987-.664-1.221.664-.588 2.777 1.324 2.902-1.775.232-5.744-1.175-1.747-1.175-1.746-.484-2.11 1.644-.865 2.217-5.2.977-7.39-1.223-2.16-4.03-3.087-6.33-2.092-.533.23-.555.203-.19-.246.822-1.01-1.14-2.295-3.508-2.295-1.165 0-1.524-.116-1.656-.533-.262-.825-1.814-1.584-3.615-1.77-1.366-.14-1.696-.294-2.004-.922-.64-1.303-1.839-1.948-3.873-2.087-1.028-.07-2.07-.3-2.317-.508C21.718 1.786 17.058.52 12.691.553zm41.672 86.306c-.117.134-.243.27-.386.41-1.24 1.211-1.41 1.63-.823 2.167h1.104c.603-.399 1.259-1.292 1.756-2.309h-1.65v-.268z" fill="#f5f0ea" stroke="#484848" stroke-width="1.104" stroke-linecap="round" stroke-linejoin="round"/><path d="M12.691.553C6.31.6.553 3.423.553 8.253c0 3.965 6.207 16.255 8.808 17.44.888.405.94.866.172 1.56-1.445 1.308-.96 2.951 1.748 5.907.946 1.033 2.094 2.616 2.551 3.518.934 1.844 1.48 2.367 2.484 2.38.577.009.675.146.596.83-.052.452-.197.785-.322.74-1.1-.39-5.434 4.955-5.781 7.13-.119.74-.376 1.204-.73 1.316-.507.16-1.893 1.71-2.962 3.309-.246.368-1.04 1.515-1.763 2.549-2.878 4.108-3.615 7.81-3.02 15.175.56 6.935 2.978 17.994 4.205 19.235.389.393.15.575-1.178.668 3.817-.08 7.51-.151 10.614-.203-5.362-.058-9.12-.147-9.102-.225.03-.123-.374-1.567-.898-3.209-3.333-10.43-4.208-22.504-2.022-27.885.774-1.905 5.498-8.444 5.984-8.283.173.057.41 1.243.528 2.637.312 3.716 2.6 9.707 5.459 14.3 1.8 2.894 2.806 4.464 5.719 8.919 3.708 5.672 3.607 6.253-.811 4.654-1.53-.554-1.333-.194-3.578-6.488-1.328-3.724-3.186-7.883-3.938-8.817-.501-.623-.894-.078-.447.621 1.068 1.667 5.582 13.432 5.588 14.563.003.538-.83.845-2.31.851-.534.003-.971.136-.971.297 0 .564 1.49.658 2.88.184 1.594-.543 2.792-.618 2.792-.178 0 .164-.168.298-.373.299-.206 0-.818.271-1.36.601-1.174.717-1.017 1.387.182.776 1.175-.599 5.125-1.35 15.28-2.908 9.58-1.47 8.673-1.524 9.786.564 1.02 1.913 1.762 4.661 1.93 7.158.058.858-.04 1.257-3.273 1.45 3.839.118 2.02.262 5.628-.221-.42-.674-.101-1.14.791-1.15.214-.003 1.394-.956 2.623-2.12 1.315-1.244 1.926-1.75 2.301-1.834v-2.802l-3.384-4.973c-.714-.184-1.413-.323-1.944-.322-.822 0-1.475.37-4.365 2.47-1.186.862-3.296-4.76-5.928-15.79-.215-.904-.585-1.844-.822-2.09-.686-.714-.218 2.136 1.023 6.222 3.256 10.716 3.385 11.387 2.202 11.387-.728 0-1.049-.689-1.465-3.135-.957-5.613-2.356-11.17-4.905-19.475-.847-2.76-1.209-4.179-.935-4.173.31.006 1.435 1.84 3.596 5.623 2.613 4.575 6.752 11.319 7.783 12.681.88 1.165.871 1.588-.053 2.465-.746.708-.955 1.238-.488 1.238.138 0 .506-.283.818-.628.727-.803 1.628-1.308 2.16-1.35l-.222-.328c-.595-.02-1.009-.474-1.5-1.217-2.182-3.296-5.202-8.231-7.705-12.594-3.194-5.564-4.103-6.883-4.893-7.09-.303-.079-.55-.246-.55-.37 0-.493 4.108-4.382 5.421-5.132.766-.437 1.952-1.51 2.635-2.384.682-.874 2.07-2.265 3.084-3.092 1.45-1.184 1.86-1.704 1.933-2.445.119-1.21 1.431-1.703 3.877-1.457 4.304.431 5.617-2.038 1.405-2.641-1.624-.232-2.893-.89-4.012-2.08-.928-.987-.664-1.221.664-.588 2.777 1.324 2.902-1.775.232-5.744-1.175-1.747-1.175-1.746-.484-2.11 1.644-.865 2.217-5.2.977-7.39-1.223-2.16-4.03-3.087-6.33-2.092-.533.23-.555.203-.19-.246.822-1.01-1.14-2.295-3.508-2.295-1.165 0-1.524-.116-1.656-.533-.262-.825-1.814-1.584-3.615-1.77-1.366-.14-1.696-.294-2.004-.922-.64-1.303-1.839-1.948-3.873-2.087-1.028-.07-2.07-.3-2.317-.508C21.718 1.786 17.058.52 12.691.553zM43.02 89.688c-3.119-.097-10.3-.162-27.045.119 3.116.033 6.633.058 10.634.058 8.957 0 13.737-.019 16.41-.177zM5.36 90.01c-1.729.036-2.921.051-4.808.094 2.462 0 3.869-.028 4.808-.094zm38.99-76.965c2.645.038 5.298 4.243 3.596 7.978-.341.75-1.351.992-1.896.456-.156-.154-1.277-.678-2.492-1.165-3.021-1.21-3.534-2.958-1.688-5.748.718-1.085 1.599-1.534 2.48-1.521zm1.727 2.146c-.654 0-3.274 2.534-3.03 2.93.374.604.879.39 2.36-1 1.35-1.266 1.582-1.93.67-1.93zm-13.113.76c.465-.02.957.035 1.469.176 3.799 1.049 4.88 6.92 1.802 9.795-1.128 1.054-4.075 1.21-5.472.29-4.393-2.89-2.295-10.063 2.2-10.26zm14.637 1.33c-.66 0-2.676 2.303-2.475 2.826.235.614.869.294 2.242-1.134.951-.989 1.047-1.692.233-1.692zm-12.864.793c-.94.008-3.744 2.314-3.744 3.22 0 .808.695.486 2.537-1.173 1.395-1.256 1.713-1.692 1.434-1.973-.052-.052-.13-.075-.227-.074zm1.043 2.787c-.635 0-2.996 2.081-2.996 2.641 0 .713 1.212.304 2.375-.803 1.324-1.26 1.519-1.838.621-1.838zm-19.988 20.82c.405-.047.356.787-.15 2.493-1.754 5.904.847 14.131 8.91 28.172 3.53 6.147 4.32 7.742 3.992 8.07-1.135 1.135-2.919.432-4.287-1.691l-2.67-4.141c-4.265-6.61-5.362-8.433-6.961-11.574-4.836-9.5-4.741-15.443.33-20.717.372-.387.652-.59.836-.611zm17.041 11.12c.566-.01 5.348 16.919 5.934 21.008.162 1.132.241 2.111.175 2.177-.18.182-1.856-3.957-3.775-9.33-.942-2.637-2.28-6.013-2.97-7.502-1.179-2.535-.799-6.33.636-6.353zm15.238 19.52c-.04.21 0 .302.164.24l-.164-.24zm6.291 14.538c-.117.134-.243.27-.386.41-1.302 1.271-1.434 1.668-.739 2.245.72.597 1.958-.728 2.77-2.387h-1.645v-.268z" fill="#f8d28f"/><path d="M12.691.553C6.31.6.553 3.423.553 8.253c0 3.965 6.207 16.255 8.808 17.44.888.405.94.866.172 1.56-1.445 1.308-.96 2.951 1.748 5.907.946 1.033 2.094 2.616 2.551 3.518.934 1.844 1.48 2.367 2.484 2.38.577.009.675.146.596.83-.052.452-.197.785-.322.74-1.1-.39-5.434 4.955-5.781 7.13-.119.74-.376 1.204-.73 1.316-.507.16-1.893 1.71-2.962 3.309-.246.368-1.04 1.515-1.763 2.549-2.878 4.108-3.615 7.81-3.02 15.175.56 6.935 2.978 17.994 4.205 19.235.664.67-.045.762-5.986.762l48.156.01c-2.217-3.186-2.289-1.702.73-1.798.214-.002 1.394-.955 2.623-2.119 1.315-1.244 1.926-1.75 2.301-1.834v-.455c-.462.041-1.06.54-2.336 1.727-3.383 3.148-4.341 3.19-4.984.217-.51-2.363-.43-2.632.973-3.213 1.066-.442 1.257-1.376.214-1.047-2.266.715-3.166.336-2.043-.86.69-.734.567-1.071-.394-1.082-.59-.006-.583-.037.125-.615 1.495-1.22 2.693-1.814 3.543-1.77.386.021.7.173.937.46.218.262.614.38.934.279.193-.061.376-.086.55-.088l-1.003-1.473c-1.73-.189-3.63.333-5.004 1.575-1.315 1.188-1.746 1.272-2.459.484-.439-.485-3.543-10.819-4.674-15.557-.215-.903-.585-1.843-.822-2.09-.686-.713-.218 2.137 1.023 6.223 3.256 10.716 3.385 11.387 2.202 11.387-.728 0-1.049-.689-1.465-3.135-.957-5.615-2.356-11.17-4.909-19.486-.831-2.71-1.114-4.054-.773-3.989.387.074 1.575 1.958 3.672 5.717 1.81 3.244 6.461 10.859 7.685 12.582.738 1.04.704 1.45-.189 2.297-.746.708-.955 1.238-.488 1.238.138 0 .506-.283.818-.628.727-.803 1.628-1.308 2.16-1.35l-.222-.328c-.595-.02-1.009-.474-1.5-1.217-2.182-3.296-5.202-8.231-7.705-12.594-3.194-5.564-4.103-6.883-4.893-7.09-.303-.079-.55-.246-.55-.37 0-.493 4.108-4.382 5.421-5.132.766-.437 1.952-1.51 2.635-2.384.682-.874 2.07-2.265 3.084-3.092 1.45-1.184 1.86-1.704 1.933-2.445.119-1.21 1.431-1.703 3.877-1.457 4.304.431 5.617-2.038 1.405-2.641-1.624-.232-2.893-.89-4.012-2.08-.928-.987-.664-1.221.664-.588 2.777 1.324 2.902-1.775.232-5.744-1.175-1.747-1.175-1.746-.484-2.11 1.644-.865 2.217-5.2.977-7.39-1.223-2.16-4.03-3.087-6.33-2.092-.533.23-.555.203-.19-.246.822-1.01-1.14-2.295-3.508-2.295-1.165 0-1.524-.116-1.656-.533-.262-.825-1.814-1.584-3.615-1.77-1.366-.14-1.696-.294-2.004-.922-.64-1.303-1.839-1.948-3.873-2.087-1.028-.07-2.07-.3-2.317-.508C21.718 1.786 17.058.52 12.691.553zm-1.12.24c3.984-.07 10.75 1.996 13.232 4.184.3.265 1.001.443 1.642.418 2.154-.086 4.131.897 4.309 2.142.078.545.36.672 1.883.852 2.521.297 3.775.996 3.531 1.966-.187.746-.187.745 1.572.55 1.777-.198 3.85.417 3.85 1.144 0 .16-1.006.678-2.235 1.15-1.228.472-2.596 1.117-3.039 1.432-.667.475-1.013.525-2.02.299-1.643-.37-7.289 1.071-10.507 2.681-1.24.62-2.346 2.553-2.346 4.1 0 1.105.24 1.005-4.029 1.676-1.806.283-4.29.838-5.521 1.23-1.232.393-2.319.717-2.416.719-.552.012-4.301-5.703-6.143-9.361C-1.184 7.002.983 2.394 10.43.885a8.205 8.205 0 0 1 1.14-.092zM9.026 4.74c-.392-.016-.798.13-1.142.475-.652.652-.585 2.1.129 2.814 1.163 1.164 2.685.445 2.685-1.267 0-1.175-.808-1.987-1.672-2.022zm11.84 5.46c-1.138.013-3.004.773-3.004 1.32 0 .34.172.402.67.242.37-.119 1.267-.3 1.992-.407 1.51-.22 1.93-.823.778-1.113a1.734 1.734 0 0 0-.436-.043zm-13.002.962c-1.007 0-1.435 1.26-.72 2.121.737.89 1.615.385 1.615-.928 0-1.127-.05-1.193-.895-1.193zm36.487 1.883c2.644.038 5.297 4.243 3.595 7.978-.341.75-1.351.992-1.896.456-.156-.154-1.277-.678-2.492-1.165-3.021-1.21-3.534-2.958-1.688-5.748.718-1.085 1.599-1.534 2.48-1.521zm-19.7.078c-1.731-.072-4.46.826-4.648 1.846-.123.666-.015.654 1.293-.117.723-.427 1.69-.662 2.926-.715 1.015-.044 1.898-.093 1.959-.11.06-.016-.058-.23-.262-.476-.225-.271-.69-.404-1.268-.428zm21.426 2.068c-.654 0-3.274 2.534-3.03 2.93.374.604.879.39 2.36-1 1.35-1.266 1.582-1.93.67-1.93zm-13.113.76c.465-.02.957.035 1.469.176 3.799 1.049 4.88 6.92 1.802 9.795-1.128 1.054-4.075 1.21-5.472.29-4.393-2.89-2.295-10.063 2.2-10.26zm14.637 1.33c-.66 0-2.676 2.303-2.475 2.826.235.614.869.294 2.242-1.134.951-.989 1.047-1.692.233-1.692zm-12.864.793c-.94.008-3.744 2.314-3.744 3.22 0 .808.695.486 2.537-1.173 1.395-1.256 1.713-1.692 1.434-1.973-.052-.052-.13-.075-.227-.074zm5.233 2.309c.525-.038 1.492.347 3.369 1.12 3.363 1.387 5.619 4.082 6.05 7.231.24 1.745-.111 1.87-2.187.787-1.156-.603-2.474-.995-3.96-1.18-2.946-.364-3.779-1.412-2.393-3.009.445-.514.508-.756.24-.922-1.145-.707-2.28 1.563-1.598 3.195.484 1.159.958 1.39 3.88 1.893 1.824.315 2.255.523 3.513 1.7 1.609 1.504 2.706 2.045 4.781 2.355 3.092.461 1.843 1.635-1.74 1.635-1.419 0-2.979.19-3.723.453-.704.248-1.51.38-1.789.29-.623-.197-2.078.321-2.078.74 0 .173.719.308 1.64.308 2.234 0 2.171.432-.337 2.308-.827.618-2.1 1.863-2.83 2.766s-1.987 2.044-2.791 2.537c-.805.492-3.016 2.473-4.914 4.402-2.93 2.978-3.593 3.51-4.374 3.508-1.277-.002-1.401-.243-.707-1.367.945-1.53.126-1.633-1.166-.149-1.202 1.383-3.62 1.265-3.377-.164.053-.308.17-.962.262-1.455.092-.492.754-1.682 1.47-2.642 1.214-1.625 1.666-2.88 1.036-2.88-.148 0-.545.436-.883.97a22.993 22.993 0 0 1-1.388 1.912c-.427.517-.935 1.589-1.131 2.382-.702 2.836-3.905.856-3.735-2.308.101-1.874-.336-2.404-.73-.885-.289 1.113-.61 1.158-1.069.152-.631-1.386-.121-6.317.727-7.021.82-.68.5-1.189-.418-.662-1.424.817-2.302.352-3.377-1.783-.515-1.023-1.699-2.678-2.63-3.676-3.361-3.6-2.953-7.067.67-5.684 2.062.788 2.568.072.607-.86-1.327-.629-1.104-.788 1.988-1.43 6.753-1.405 6.402-1.458 8.006 1.208 1.056 1.756 1.603 1.978 5.199 2.112 3.566.132 3.922.372 1.717 1.156-1.623.576-1.994 1.287-.672 1.285.877-.001 2.546-.896 3.328-1.781.262-.297 1.138-.697 1.947-.889 2.748-.654 4.445-2.838 4.848-6.242.109-.918.193-1.378.719-1.416zm-4.19.478c-.635 0-2.996 2.081-2.996 2.641 0 .713 1.212.304 2.375-.803 1.324-1.26 1.519-1.838.621-1.838zM11.95 28.332c-.834-.011-1.549.41-1.549 1.09 0 .21.852 1.291 1.893 2.402 1.04 1.111 2.05 2.481 2.242 3.045.192.564.576 1.275.852 1.58.612.677 1.686.58 1.828-.166.08-.416-.053-.522-.559-.447-.696.103-.808-.035-1.627-2.025-.28-.681-1.09-1.718-1.82-2.329-1.56-1.303-1.7-1.964-.42-1.964 1.019 0 1.173-.428.318-.885a2.546 2.546 0 0 0-1.158-.301zm24.528 1.898c-.191-.022-.446.48-.655 1.522-.183.912-.79 2.698-1.347 3.967-1.107 2.516-1.55 4.463-1.24 5.441.352 1.112.887.442 1.095-1.37.12-1.04.647-2.72 1.28-4.081.721-1.554 1.096-2.818 1.14-3.848.045-1.06-.083-1.608-.273-1.63zm3.425 7.065a1.051 1.051 0 0 0-.388.086c-.254.097-.461.448-.461.781 0 .794.798.785 1.05-.012.178-.558.109-.847-.2-.855zm-23.904 4.158c.367-.024.317.721-.182 2.24-2.02 6.156.427 14.181 8.737 28.653 3.53 6.147 4.32 7.742 3.992 8.07-1.135 1.135-2.919.432-4.287-1.691l-2.67-4.141c-4.263-6.608-5.362-8.433-6.963-11.574-4.468-8.767-4.725-14.063-.934-19.178 1.158-1.562 1.94-2.355 2.307-2.379zm-6.06 8.752c.172.057.41 1.243.527 2.637.312 3.716 2.6 9.707 5.459 14.3 1.8 2.894 2.806 4.464 5.719 8.919 3.708 5.672 3.607 6.253-.811 4.654-1.53-.554-1.333-.194-3.578-6.488-1.328-3.724-3.186-7.883-3.938-8.817-.501-.623-.894-.078-.447.621 1.068 1.667 5.582 13.432 5.588 14.563.003.538-.83.845-2.31.851-.534.003-.971.136-.971.297 0 .564 1.49.658 2.88.184 1.594-.543 2.792-.618 2.792-.178 0 .164-.168.298-.373.299-.206 0-.818.271-1.36.601-1.174.717-1.017 1.387.182.776 1.175-.599 5.125-1.35 15.28-2.908 9.58-1.47 8.673-1.524 9.788.568 1.109 2.08 1.905 4.949 1.987 7.154.057 1.567.058 1.567-19.737 1.567-10.887 0-19.772-.1-19.742-.223.03-.123-.374-1.567-.898-3.209-3.333-10.43-4.208-22.504-2.022-27.885.774-1.905 5.498-8.444 5.984-8.283zm22.896 2.596c.566-.01 5.348 16.919 5.934 21.008.162 1.132.241 2.111.175 2.177-.18.182-1.856-3.957-3.775-9.33-.942-2.637-2.28-6.013-2.97-7.502-1.179-2.535-.799-6.33.636-6.353zm15.238 19.52c-.04.21 0 .302.164.24l-.164-.24zm6.291 14.538c-.117.134-.243.27-.386.41-1.302 1.271-1.434 1.668-.739 2.245.72.597 1.958-.728 2.77-2.387h-.346c-.235.364-.52.727-.885 1.111-.505.534-1.018.971-1.14.971-.668 0-.383-.645.799-1.805.098-.097.178-.185.265-.277h-.338v-.268z" fill="#99c3ac"/><path d="M12.691.553C6.31.6.553 3.423.553 8.253c0 3.965 6.207 16.255 8.808 17.44.888.405.94.866.172 1.56-1.445 1.308-.96 2.951 1.748 5.907.946 1.033 2.094 2.616 2.551 3.518.934 1.844 1.48 2.367 2.484 2.38.577.009.675.146.596.83-.052.452-.197.785-.322.74-1.1-.39-5.434 4.955-5.781 7.13-.119.74-.376 1.204-.73 1.316-.507.16-1.893 1.71-2.962 3.309-.246.368-1.04 1.515-1.763 2.549-2.878 4.108-3.615 7.81-3.02 15.175.56 6.935 2.978 17.994 4.205 19.235.658.665-.062.76-5.87.762h6.388l-1.15-3.526C2.34 75.643 1.576 63.024 4.16 57.721c1.124-2.307 4.97-7.35 5.967-7.825.58-.276.889-.79 1.256-2.09.318-1.126 1.035-2.44 2.066-3.79 2.4-3.143 3.307-3.44 2.615-.856-1.73 6.465.815 15.847 7.096 26.162 2.72 4.466 5.791 10.319 5.69 10.84-.053.268-.63.658-1.288.87-1.828.586-.484.432 10.41-1.208 3.593-.54 3.541-.493 2.028-1.877-1.287-1.177-2.452-3.715-4.691-10.222-1.34-3.892-2.697-7.277-3.76-9.38-.892-1.763-.893-1.764-.127-3.47.421-.938.765-2.044.765-2.457 0-.567.198-.8.805-.953.938-.235 1.154 0 3.168 3.422 4.574 7.77 6.483 10.924 8.16 13.482 1.042 1.589 1.895 3.033 1.895 3.21 0 .407.472.406 1.232 0 .034-.019.06-.025.092-.04l-.105-.156c-.595-.02-1.009-.474-1.5-1.217-2.182-3.296-5.202-8.231-7.705-12.594-3.194-5.564-4.103-6.883-4.893-7.09-.303-.079-.55-.246-.55-.37 0-.493 4.108-4.382 5.421-5.132.766-.437 1.952-1.51 2.635-2.384.682-.874 2.07-2.265 3.084-3.092 1.45-1.184 1.86-1.704 1.933-2.445.119-1.21 1.431-1.703 3.877-1.457 4.304.431 5.617-2.038 1.405-2.641-1.624-.232-2.893-.89-4.012-2.08-.928-.987-.664-1.221.664-.588 2.777 1.324 2.902-1.775.232-5.744-1.175-1.747-1.175-1.746-.484-2.11 1.644-.865 2.217-5.2.977-7.39-1.223-2.16-4.03-3.087-6.33-2.092-.533.23-.555.203-.19-.246.822-1.01-1.14-2.295-3.508-2.295-1.165 0-1.524-.116-1.656-.533-.262-.825-1.814-1.584-3.615-1.77-1.366-.14-1.696-.294-2.004-.922-.64-1.303-1.839-1.948-3.873-2.087-1.028-.07-2.07-.3-2.317-.508C21.718 1.786 17.058.52 12.691.553zm-1.12.24c3.984-.07 10.75 1.996 13.232 4.184.3.265 1.001.443 1.642.418 2.154-.086 4.131.897 4.309 2.142.078.545.36.672 1.883.852 2.521.297 3.775.996 3.531 1.966-.187.746-.187.745 1.572.55 1.777-.198 3.85.417 3.85 1.144 0 .16-1.006.678-2.235 1.15-1.228.472-2.596 1.117-3.039 1.432-.667.475-1.013.525-2.02.299-1.643-.37-7.289 1.071-10.507 2.681-1.24.62-2.346 2.553-2.346 4.1 0 1.105.24 1.005-4.029 1.676-1.806.283-4.29.838-5.521 1.23-1.232.393-2.319.717-2.416.719-.552.012-4.301-5.703-6.143-9.361C-1.184 7.002.983 2.394 10.43.885a8.205 8.205 0 0 1 1.14-.092zM9.026 4.74c-.392-.016-.798.13-1.142.475-.652.652-.585 2.1.129 2.814 1.163 1.164 2.685.445 2.685-1.267 0-1.175-.808-1.987-1.672-2.022zm11.84 5.46c-1.138.013-3.004.773-3.004 1.32 0 .34.172.402.67.242.37-.119 1.267-.3 1.992-.407 1.51-.22 1.93-.823.778-1.113a1.734 1.734 0 0 0-.436-.043zm-13.002.962c-1.007 0-1.435 1.26-.72 2.121.737.89 1.615.385 1.615-.928 0-1.127-.05-1.193-.895-1.193zm36.377 1.662c2.9.165 5.801 4.275 3.94 8.114-.684 1.41-1.022 1.398-4.559-.153-3.577-1.568-4.25-3.209-2.498-6.09.849-1.395 1.982-1.935 3.117-1.87zm-19.59.299c-1.731-.072-4.46.826-4.648 1.846-.123.666-.015.654 1.293-.117.723-.427 1.69-.662 2.926-.715 1.015-.044 1.898-.093 1.959-.11.06-.016-.058-.23-.262-.476-.225-.271-.69-.404-1.268-.428zm15.823.926c.374.023.355.31.046.887-.203.379-.447 1.42-.544 2.314-.254 2.323-.628 2.332-2.39.064-1.257-1.62-1.072-2.046 1.253-2.859.814-.285 1.343-.425 1.635-.406zm-7.067 1.537c.803.002 1.64.202 2.479.65 3.317 1.775 3.322 8.263.008 10.31-1.934 1.196-5.26.615-6.772-1.18-3.36-3.994-.052-9.79 4.285-9.78zm-5.342 1.66c.621.018.581.43-.04 1.272-1.402 1.896-1.116 4.532.757 6.986.56.733 1.018 1.398 1.018 1.478 0 .4-4.687.117-5.31-.32-3.541-2.48-2.536-7.728 1.728-9.031.864-.264 1.475-.396 1.847-.385zm11.905 3.137c.525-.038 1.492.347 3.369 1.12 3.363 1.387 5.619 4.082 6.05 7.231.24 1.745-.111 1.87-2.187.787-1.156-.603-2.474-.995-3.96-1.18-2.946-.364-3.779-1.412-2.393-3.009.445-.514.508-.756.24-.922-1.145-.707-2.28 1.563-1.598 3.195.484 1.159.958 1.39 3.88 1.893 1.824.315 2.255.523 3.513 1.7 1.609 1.504 2.706 2.045 4.781 2.355 3.092.461 1.843 1.635-1.74 1.635-1.419 0-2.979.19-3.723.453-.704.248-1.51.38-1.789.29-.623-.197-2.078.321-2.078.74 0 .173.719.308 1.64.308 2.234 0 2.171.432-.337 2.308-.827.618-2.1 1.863-2.83 2.766s-1.987 2.044-2.791 2.537c-.805.492-3.016 2.473-4.914 4.402-2.93 2.978-3.593 3.51-4.374 3.508-1.277-.002-1.401-.243-.707-1.367.945-1.53.126-1.633-1.166-.149-1.202 1.383-3.62 1.265-3.377-.164.053-.308.17-.962.262-1.455.092-.492.754-1.682 1.47-2.642 1.214-1.625 1.666-2.88 1.036-2.88-.148 0-.545.436-.883.97a22.993 22.993 0 0 1-1.388 1.912c-.427.517-.935 1.589-1.131 2.382-.702 2.836-3.905.856-3.735-2.308.101-1.874-.336-2.404-.73-.885-.289 1.113-.61 1.158-1.069.152-.631-1.386-.121-6.317.727-7.021.82-.68.5-1.189-.418-.662-1.424.817-2.302.352-3.377-1.783-.515-1.023-1.699-2.678-2.63-3.676-3.361-3.6-2.953-7.067.67-5.684 2.062.788 2.568.072.607-.86-1.327-.629-1.104-.788 1.988-1.43 6.753-1.405 6.402-1.458 8.006 1.208 1.056 1.756 1.603 1.978 5.199 2.112 3.566.132 3.922.372 1.717 1.156-1.623.576-1.994 1.287-.672 1.285.877-.001 2.546-.896 3.328-1.781.262-.297 1.138-.697 1.947-.889 2.748-.654 4.445-2.838 4.848-6.242.109-.918.193-1.378.719-1.416zm-28.022 7.949c-.834-.011-1.549.41-1.549 1.09 0 .21.852 1.291 1.893 2.402 1.04 1.111 2.05 2.481 2.242 3.045.192.564.576 1.275.852 1.58.612.677 1.686.58 1.828-.166.08-.416-.053-.522-.559-.447-.696.103-.808-.035-1.627-2.025-.28-.681-1.09-1.718-1.82-2.329-1.56-1.303-1.7-1.964-.42-1.964 1.019 0 1.173-.428.318-.885a2.546 2.546 0 0 0-1.158-.301zm24.528 1.898c-.191-.022-.446.48-.655 1.522-.183.912-.79 2.698-1.347 3.967-1.107 2.516-1.55 4.463-1.24 5.441.352 1.112.887.442 1.095-1.37.12-1.04.647-2.72 1.28-4.081.721-1.554 1.096-2.818 1.14-3.848.045-1.06-.083-1.608-.273-1.63zm3.425 7.065a1.051 1.051 0 0 0-.388.086c-.254.097-.461.448-.461.781 0 .794.798.785 1.05-.012.178-.558.109-.847-.2-.855zM16.801 47.996c.064.013.137.07.219.176 3.1 4.02 10.211 6.71 13.392 5.064 1.487-.768-.254 2.87-2.039 4.262-1.878 1.465-9.499-1.508-11.186-4.363-.803-1.36-1.006-5.263-.386-5.139zm1.197 8.152c.04-.043.843.386 1.785.954 3.833 2.308 7.705 2.912 9.416 1.472.546-.46 1.045-.676 1.2-.521.398.4 3.132 7.406 4.994 12.8.906 2.627 1.974 5.427 2.375 6.223.897 1.786 1.214 1.573-3.364 2.28-2.12.327-3.96.595-4.086.597-.233.003-1.41-1.776-1.412-2.135 0-.109-.598-1.184-1.328-2.388-1.268-2.092-3.143-5.475-6.09-10.992-1.232-2.308-3.67-8.097-3.49-8.29zM14.49 68.52c-.106.021.112.747.627 1.86.26.562.522.875.582.696.06-.18-.24-.975-.664-1.767-.301-.562-.481-.803-.545-.79zm34.74 7.91c-1.075-.02-1.899.487-3.43 1.707-.637.508-1.41.924-1.718.924-.509 0-.476.167.36 1.822 1.112 2.204 2.072 5.806 2.072 7.775 0 .679.042 1.038 3.216 1.229-.865-.094-.961-.228-1.082-.42-.42-.674-.101-1.14.791-1.15.214-.003 1.394-.956 2.623-2.12 1.315-1.244 1.926-1.75 2.301-1.834v-.455c-.462.041-1.06.54-2.336 1.727-3.383 3.148-4.341 3.19-4.984.217-.51-2.363-.43-2.632.973-3.213 1.066-.442 1.257-1.376.214-1.047-2.266.715-3.166.336-2.043-.86.69-.734.567-1.071-.394-1.082-.59-.006-.583-.037.125-.615 1.495-1.22 2.693-1.814 3.543-1.77.386.021.7.173.937.46.218.262.614.38.934.279.193-.061.376-.086.55-.088l-.732-1.074c-.761-.24-1.393-.403-1.92-.412zm-6.492 1.826c-.19.001-.445.123-.644.322-.445.445-.419.483.328.483.824 0 1.075-.398.482-.764a.312.312 0 0 0-.166-.041zm-24.158 1.04c-.031-.002-.032.05.004.163.095.3.174.87.174 1.268 0 .745.22.811 1.492.449.746-.213.746-.211 0-.405-.41-.106-.992-.569-1.293-1.027-.188-.286-.325-.443-.377-.447zm6.543 1.571c-.257-.008-.387.126-.504.432-.123.321.03.449.547.449.864 0 1.239-.464.58-.717-.268-.103-.469-.159-.623-.164zm-3.707.313c-.217-.01-.242.1-.195.324.04.195-.396.604-.971.908-1.13.599-1.156.6 2.072-.092 1.613-.346 1.612-.346.442-.754-.722-.25-1.13-.378-1.348-.386zm32.947 5.68c-.117.133-.243.27-.386.41-1.302 1.27-1.434 1.667-.739 2.244.72.597 1.958-.728 2.77-2.387h-.346c-.235.364-.52.727-.885 1.111-.505.534-1.018.971-1.14.971-.668 0-.383-.645.799-1.805.098-.097.178-.185.265-.277h-.338v-.268z" fill="#9fac9e"/><path d="M12.691.553C6.31.6.553 3.423.553 8.253c0 3.965 6.207 16.255 8.808 17.44.888.405.94.866.172 1.56-1.445 1.308-.96 2.951 1.748 5.907.946 1.033 2.094 2.616 2.551 3.518.934 1.844 1.48 2.367 2.484 2.38.577.009.675.146.596.83-.052.452-.197.785-.322.74-1.1-.39-5.434 4.955-5.781 7.13-.065.403-.173.72-.313.947.295-.383.502-.728.502-.892 0-1.002 2.911-5.296 4.365-6.44 1.131-.89 1.402-.364.998 1.951-.523 3.006 1.827 6.235 5.979 8.213 2.363 1.126 6.497 1.752 7.336 1.111.532-.406.504-.426-.389-.26-1.68.314-2.03-.013-1.29-1.208.968-1.567.172-1.704-1.14-.196-1.202 1.383-3.62 1.265-3.377-.164.053-.308.17-.962.262-1.455.092-.492.754-1.682 1.47-2.642 1.214-1.625 1.666-2.88 1.036-2.88-.148 0-.545.436-.883.97a22.993 22.993 0 0 1-1.388 1.912c-.427.517-.935 1.589-1.131 2.382-.692 2.795-3.908.862-3.735-2.244.102-1.819-.354-2.398-.734-.931-.284 1.096-.608 1.136-1.065.134-.631-1.386-.121-6.317.727-7.021.82-.68.5-1.189-.418-.662-1.424.817-2.302.352-3.377-1.783-.515-1.023-1.699-2.678-2.63-3.676-3.361-3.6-2.953-7.067.67-5.684 2.062.788 2.568.072.607-.86-.792-.375-.977-.579-.672-.741.96-.512 8.79-1.913 9.217-1.649.374.232.641-.297.43-.85-.118-.305-.446-.42-.971-.34-4.519.701-7.132 1.232-9.08 1.843-2.796.875-2.485 1.05-5.055-2.846C-1.822 8.79-.755 2.686 10.416.887c3.68-.593 11.644 1.672 14.387 4.09.3.265 1.001.443 1.642.418 2.154-.086 4.131.897 4.309 2.142.078.545.36.672 1.883.852 2.525.297 3.775.995 3.531 1.968-.188.749-.188.748 1.5.55 2.8-.33 4.996.91 3.121 1.761-.838.38-.66.453 1.065.232.04-.054.077-.107.144-.19.822-1.01-1.14-2.294-3.508-2.294-1.165 0-1.524-.116-1.656-.533-.262-.825-1.814-1.584-3.615-1.77-1.366-.14-1.696-.294-2.004-.922-.64-1.303-1.839-1.948-3.873-2.087-1.028-.07-2.07-.3-2.317-.508C21.718 1.786 17.058.52 12.691.553zM9.027 4.74c-.392-.016-.798.13-1.142.475-.652.652-.585 2.1.129 2.814 1.163 1.164 2.685.445 2.685-1.267 0-1.175-.808-1.987-1.672-2.022zm11.84 5.46c-1.138.013-3.004.773-3.004 1.32 0 .34.172.402.67.242.37-.119 1.267-.3 1.992-.407 1.51-.22 1.93-.823.778-1.113a1.734 1.734 0 0 0-.436-.043zm-13.002.962c-1.007 0-1.435 1.26-.72 2.121.737.89 1.615.385 1.615-.928 0-1.127-.05-1.193-.895-1.193zm36.11 1.399c-.458.014-.917.09-1.362.234.351-.049.62-.081 1.067-.147 2.882-.421 5.208 2.024 5.216 5.483.01 3.563-1.232 4.987-3.445 3.947-.724-.34-1.385-.619-1.467-.619-.08 0-.98-.402-1.996-.895-2.82-1.366-3.234-1.27-3.234.754 0 4.242-2.092 6.16-6.863 6.287-5.382.145-7.49-.141-8.43-1.148-.453-.485-.822-.76-.822-.61 0 1.487 2.457 2.477 6.154 2.477 2.857 0 3.165.336 1.008 1.102-1.623.576-1.994 1.287-.672 1.285.877-.001 2.546-.896 3.328-1.781.262-.297 1.138-.697 1.947-.889 2.748-.654 4.445-2.838 4.848-6.242.217-1.835.334-1.842 4.088-.295 3.363 1.386 5.619 4.081 6.05 7.23.24 1.745-.111 1.87-2.187.787-1.156-.603-2.474-.995-3.96-1.18-2.946-.364-3.779-1.412-2.393-3.009.445-.514.508-.756.24-.922-1.145-.707-2.28 1.563-1.598 3.195.484 1.159.958 1.39 3.88 1.893 1.824.315 2.255.523 3.513 1.7 1.609 1.504 2.706 2.045 4.781 2.355 3.092.461 1.843 1.635-1.74 1.635-1.419 0-2.979.19-3.723.453-.704.248-1.51.38-1.789.29-.623-.197-2.078.321-2.078.74 0 .173.719.308 1.64.308 2.234 0 2.171.432-.337 2.308-.827.618-2.1 1.863-2.83 2.766s-1.994 2.044-2.805 2.537c-1.493.906-7.005 6.313-6.996 6.863.002.164.184.065.402-.223 1.158-1.525 2.668-.37 5.168 3.956.902 1.559 2.923 4.983 4.492 7.609 2.409 4.03 3.812 6.593 5.114 7.732a9.308 9.308 0 0 1-.25-.361c-2.182-3.296-5.202-8.231-7.705-12.594-3.194-5.564-4.103-6.883-4.893-7.09-.303-.079-.55-.246-.55-.37 0-.493 4.108-4.382 5.421-5.132.766-.437 1.952-1.51 2.635-2.384.682-.874 2.07-2.265 3.084-3.092 1.45-1.184 1.86-1.704 1.933-2.445.119-1.21 1.431-1.703 3.877-1.457 4.304.431 5.617-2.038 1.405-2.641-1.624-.232-2.893-.89-4.012-2.08-.928-.987-.664-1.221.664-.588 2.777 1.324 2.902-1.775.232-5.744-1.175-1.747-1.175-1.746-.484-2.11 1.644-.865 2.217-5.2.977-7.39-.918-1.62-2.726-2.546-4.543-2.488zm-19.323.562c-1.731-.072-4.46.826-4.648 1.846-.123.666-.015.654 1.293-.117.723-.427 1.69-.662 2.926-.715 1.015-.044 1.898-.093 1.959-.11.06-.016-.058-.23-.262-.476-.225-.271-.69-.404-1.268-.428zm7.278 1.81c-.288.002-1.254.245-2.576.69-2.09.703-2.09.704-.672.658.78-.025 1.418-.132 1.418-.238 0-.106.503-.399 1.119-.654.749-.31.935-.457.71-.455zM11.95 28.333c-.835-.011-1.55.41-1.55 1.09 0 .21.852 1.291 1.893 2.402 1.04 1.111 2.05 2.481 2.242 3.045.192.564.576 1.275.852 1.58.612.677 1.686.58 1.828-.166.08-.416-.053-.522-.559-.447-.696.103-.808-.035-1.627-2.025-.28-.681-1.09-1.718-1.82-2.329-1.56-1.303-1.7-1.964-.42-1.964 1.019 0 1.173-.428.318-.885a2.546 2.546 0 0 0-1.158-.301zm24.527 1.898c-.191-.022-.446.48-.655 1.522-.183.912-.79 2.698-1.347 3.967-1.107 2.516-1.55 4.463-1.24 5.441.352 1.112.887.442 1.095-1.37.12-1.04.647-2.72 1.28-4.081.721-1.554 1.096-2.818 1.14-3.848.045-1.06-.083-1.608-.273-1.63zm3.425 7.065a1.051 1.051 0 0 0-.388.086c-.254.097-.461.448-.461.781 0 .794.798.785 1.05-.012.178-.558.109-.847-.2-.855zm-29.568 11.62a.658.658 0 0 1-.256.16c-.506.16-1.892 1.708-2.96 3.308-.247.368-1.04 1.515-1.764 2.549-2.878 4.108-3.615 7.81-3.02 15.175.56 6.935 2.978 17.994 4.205 19.235.015.014.024.029.037.043C2.891 80.2 1.238 65.057 3.311 59.148c.788-2.248 4.317-7.477 6.558-9.72.168-.168.322-.342.465-.514zm38.783 27.901c-1.137.072-2.387.725-3.726 1.95-.974.89-.974.89-.22 2.683.416.986.955 2.766 1.198 3.955.72 3.522.714 3.506 1.342 3.506.324 0 .756.27.96.598.017.025.036.047.054.07-.03-.035-.052-.071-.077-.111-.42-.674-.101-1.14.791-1.15.214-.003 1.394-.956 2.623-2.12 1.315-1.244 1.926-1.75 2.301-1.834v-.455c-.462.041-1.06.54-2.336 1.727-3.383 3.148-4.341 3.19-4.984.217-.51-2.363-.43-2.632.973-3.213 1.066-.442 1.257-1.376.214-1.047-2.266.715-3.166.336-2.043-.86.69-.734.567-1.071-.394-1.082-.59-.006-.583-.037.125-.615 1.495-1.22 2.693-1.814 3.543-1.77.386.021.7.173.937.46.218.262.614.38.934.279.193-.061.376-.086.55-.088l-.439-.646c-.418-.11-.808-.205-1.226-.33a3.127 3.127 0 0 0-1.1-.124zm-.392 12.762c.122.158.356.269 1.398.346-1.023-.077-1.268-.188-1.398-.346zm5.638-2.719c-.117.134-.243.27-.386.41-1.302 1.271-1.434 1.668-.739 2.245.72.597 1.958-.728 2.77-2.387h-.346c-.235.364-.52.727-.885 1.111-.505.534-1.018.971-1.14.971-.668 0-.383-.645.799-1.805.098-.097.178-.185.265-.277h-.338v-.268zM6.717 89.748c-.102.153-.53.24-1.483.291 1.106-.053 1.516-.142 1.483-.291zm-1.498.293zm-1.41.041l-.418.006.418-.006z" fill="#c3996e"/></svg>