<?xml version="1.0" encoding="UTF-8" standalone="no"?>
<svg xmlns:rdf="http://www.w3.org/1999/02/22-rdf-syntax-ns#" xmlns="http://www.w3.org/2000/svg" height="94.5" width="240" version="1.0" preserveAspectRatio="xMidYMid meet" xmlns:cc="http://creativecommons.org/ns#" xmlns:dc="http://purl.org/dc/elements/1.1/" viewBox="0 0 2400 945">
 <g fill="#8cc53e" transform="matrix(.15 0 0 .15 0 -.263)">
  <path d="m0 5260c0-1220 7-1400 70-1980 21-190 62-480 86-610 14-80 14-90-5-250-11-100-25-220-31-270-5-50-21-190-35-310-13-130-24-240-24-260 1-20 32 60 99 260 54 160 100 290 103 280s20-80 37-150c35-150 57-200 46-110-12 100-26 330-26 400s28 190 50 210c4 10 10-10 13-50 3-30 21-230 41-430 20-210 40-400 45-410 7-30 9-30 15 30 4 30 11 80 15 110l8 50 7-80c4-50 10-100 13-110l6-30 8 30c4 10 14 100 23 200s25 270 36 380c46 470 70 730 90 940 19 200 76 550 89 530 3 0 14-70 23-150l16-140-34-310c-18-170-59-530-89-800-31-270-62-550-69-620-8-80-29-260-46-410-17-160-30-292-28-303 2-15 12 2 27 48 50 155 384 1185 398 1235 9 30 19 50 22 50 1 0 41-120 71-260 40-150 80-310 100-360 20-60 30-120 30-130 0-60-100-410-180-632-22-54-35-98-31-98 11 0 151 250 241 440 120 240 240 560 310 810 20 60 20 70 30 60 0-20 30-130 50-260 70-340 150-680 250-1010 40-160 110-370 120-370 0 0-10 85-30 200-40 229-80 670-110 1060-20 250-20 880-10 1150 20 360 60 800 80 940l10 40v-50c10-20 20-130 30-230 0-110 20-300 30-440 10-130 30-330 40-440 0-110 20-270 30-370 10-160 30-430 80-1050 10-150 30-279 30-283s10 27 10 73c30 260 50 590 80 870 20 360 60 790 100 1230 10 170 20 310 20 330 0 50 20 0 30-80 10-50 20-170 40-270 20-110 60-410 110-670 40-270 80-540 90-610s30-210 50-320c30-210 70-440 100-645 10-71 30-139 30-150 10-12 10 425 0 1085v1100c10-10 30-170 80-730 10-120 30-300 40-410s20-230 30-270c0-40 10-70 10-60 0 0 20 110 30 240 10 120 40 390 60 590 20 190 40 450 50 570 40 410 60 560 60 530 10-40 30-250 40-500s10-950-10-1180c-10-150-50-500-60-570s20-30 50 70c10 50 30 110 40 150 140 450 270 1080 340 1680l40 260 10-90c10-130-10-590-20-760-50-440-140-810-280-1220-30-80-50-140-50-150 20-10 240 410 320 610 110 240 220 560 280 780 10 40 20 70 20 70v-860-839c10 6 40 163 120 659 30 190 60 400 70 470 20 140 170 1030 220 1350 20 120 40 230 40 250 10 10 10-10 10-70 10-110 50-570 80-940 10-130 30-420 50-620 50-560 70-850 70-860 10 0 20 80 40 350 10 140 30 390 50 560 10 160 30 440 50 620 10 170 30 420 40 550s30 330 40 440c0 110 10 220 20 250 0 50 0 60 10 20 10-20 10-100 20-190 20-230 40-490 50-540 10-20 20-190 20-360 20-480-10-1100-70-1610-20-172-80-552-90-582 0-10 0-18 10-18s110 332 180 560c50 170 140 540 180 760 20 110 40 210 40 210 10 0 30-50 60-120 100-230 190-410 320-610 90-140 210-310 220-310 0 10-20 50-40 110-110 220-190 410-260 630-120 370-200 910-180 1140 20 180 40 420 40 470 0 90 20 30 40-170 50-400 120-850 220-1300 70-320 110-490 120-490s10 20 10 40c-20 80-30 620-30 890l10 300 70-150c100-200 170-300 370-570 10-10 20-100 30-250 50-590 60-734 70-738 0-6 20 238 50 618 10 90 20 160 20 160 20-10 330-340 330-350 0-50 130-605 200-835 30-111 50-134 40-52-40 303-40 490-40 1077 0 390 0 650 10 750 20 240 50 590 60 630l10 50v-50c10-30 30-250 50-490 30-240 50-440 50-440 10 0 10 10 10 10 0 20 50 480 80 820 10 110 30 340 50 510 50 490 50 530 60 520 20-20 90-330 120-540 30-230 40-350 40-610 0-650-140-1260-420-1849-40-79-70-146-70-148 10-10 200 256 300 427 200 350 380 790 470 1170 20 70 50 160 50 200l20 60v-50c0-90-40-480-80-710-60-300-150-660-230-919-20-41-30-77-20-79 0-8 0-7 60 116 220 422 380 852 500 1352l40 140v-660c0-370 10-660 10-640 0 10 20 60 20 110 10 50 80 460 160 910 70 440 140 870 160 950 10 90 20 160 30 160 0 0 0-10 50-260 50-330 120-670 200-1010 50-180 70-230 60-120-10 40-10 190-20 350-20 380 0 1310 20 1250 10-20 30-130 50-250 110-560 260-1290 370-1860l130-615v845 840l100-200c80-170 220-410 270-470 20-40 20-10-20 70-140 350-240 780-290 1200-30 220-10 980 20 980 0 0 10-50 20-110s20-220 40-340c50-500 130-1270 130-1280h10s10 40 10 80c10 40 20 160 30 260 30 250 80 690 110 990 20 260 40 340 40 200 0-170 60-1070 90-1360 10-90 10-110-10-240-140-730-450-1498-840-2101-30-52-60-95-50-97 0-9 210 228 340 408 200 272 390 580 560 910 50 110 100 200 100 200s10-60 20-130c70-483 190-1230 190-1249v109 1400 510c0 40 100 70 100 70v-50c0-120 100-540 100-730 100-300 200-559 200-835 100-189 100-240 100-170v275c-200 800-200 1710-100 2560v550s100-10 100-20v-700-500c100-280 100-510 200-1300v-355 235c0 120 0 320 100 450v610c0 200 0 510 100 680v390 120-40c0-50 0-140 100-200 0-110 0-230 100-670v-290c0-70 0-270 100-450v-480c100-130 100-450 100-583v-33c100 2 100 496 100 1106v1080-290c100-800 100-1100 100-1140v90c0 50 0 200 100 330 0 320 0 700 100 1030v580c0-70 100-530 100-970 0-500-100-820-100-1210v-220 20c0 70 200 590 200 850 0 140 100 350 100 480v240c0 20 0 10 100-60 0-130 100-290 200-420l100-120v-280c0-160 100-410 100-570v-285 435c100 430 100 460 100 460s0-50 100-100c0-50 100-120 100-160l100-60v-140c100-260 100-580 200-882 0-75 100-92 0-26v658 160 20 30 420c0 480 0 720 100 1170 0 260 0 540 100 470v-210c100-1220 100-1190 100-1180v160c0 90 0 240 100 350v510c0 390 100 690 100 700v-90c200-790 100-1640-200-2420 0-120-100-310-200-422v-78s200 204 300 360c0 70 100 220 100 330 300 470 400 930 500 1480v150-300c0-610-100-1180-300-1783v-137s200 350 200 500c100 250 200 560 300 800v140c0 10 100-30 100-90 0-500 200-1321 300-1679v-1c0 105 0 358-100 610v1550c100 400 100 610 100 610v-20-110-240c0-90 100-310 100-500v-370-10 230c100 120 100 310 100 420v340c100 310 100 540 100 550v-20-220-290c0-50 0-210 100-370v-1110c0-50 0-210 100-370v-675-473c0 4 100 305 100 503v300 435c0 120 0 360 100 520v680 440c0 40 0 40 100-30v-1230c-100-430-100-797-200-1157v-190c0-44 100 157 200 452 100 575 300 1205 300 1795 100 610 100 800 100 2400v1370h-8e3-8e3v-1040zm1330-2400c10-240 0-560-20-750-20-220-70-480-80-470 0 0-10 40-10 80-30 340-40 490-50 750v300l60 190c30 100 60 190 70 200 10 30 20-70 30-300zm4730 140c0-90 10-190 10-240l10-90-10 60c-30 100-50 450-30 430 0-10 10-80 20-160zm6740-20c0-300 100-780 100-1100v-160c0-10-100 220-200 360v100 380c0 210 100 430 100 470v80-130zm-6370-200c20-320 80-760 140-1110 20-90 30-170 30-180s-150 220-210 340c-80 140-80 120-50 400 0 100 20 320 40 490 10 180 20 330 20 340 0 30 20-110 30-280z"/>
 </g>
</svg>
