<?xml version="1.0" encoding="UTF-8" standalone="no"?>
<svg xmlns:rdf="http://www.w3.org/1999/02/22-rdf-syntax-ns#" xmlns="http://www.w3.org/2000/svg" enable-background="new 0 0 172 271" xml:space="preserve" height="1.6e2" viewBox="0 0 270 1.6e+02" width="2.7e2" version="1.1" y="0px" x="0px" xmlns:cc="http://creativecommons.org/ns#" xmlns:xlink="http://www.w3.org/1999/xlink" xmlns:dc="http://purl.org/dc/elements/1.1/"><defs><linearGradient id="linearGradient4145" y2="2.5e2" gradientUnits="userSpaceOnUse" x2="1.4e2" gradientTransform="translate(-6)" y1="25" x1="1.4e2"><stop stop-color="#241807" offset="0"/><stop stop-color="#4a320e" stop-opacity="0" offset="1"/></linearGradient><radialGradient id="radialGradient4153" gradientUnits="userSpaceOnUse" cy="81" cx="1.4e2" gradientTransform="matrix(1,0,-4e-4,0.58,-2.5,30)" r="1.3e2"><stop stop-color="#6c6c6c" offset="0"/><stop stop-color="#8fe1f5" offset="1"/></radialGradient></defs><path d="m94 1.3e2c-48-10-76-32-77-52 2-53 1.7e2-69 46-44-5 1-19 5-20 5 0-2 14-12 20-14 67-20 1.4e2-7 1.7e2 24 10 4 10 19 10 3 20 4 20 15 20 34-10 24-40 34-80 44h-40z" fill="url(#linearGradient4145)"/><path fill="url(#radialGradient4153)" d="m37 1.3e2c16 10 29 10 47 10-36-10-96-30-82-78 8-28 40-46 74-55 64-19 1.6e2 1.3 1.8e2 45 20 30 0 58-20 68-50 50-1.6e2 40-2e2 10zm-6-30c33 40 1.7e2 40 2.1e2 0 10-8 20-38 0-48 20 30-20 48-50 58 30-10 60-38 40-58-30-43-1.3e2-45-1.9e2-14 27-9 59-15 80-7-46-7-1.3e2 21-89 69z"/></svg>
