<?xml version="1.0" encoding="UTF-8" standalone="no"?>
<svg xmlns:rdf="http://www.w3.org/1999/02/22-rdf-syntax-ns#" xmlns="http://www.w3.org/2000/svg" height="128" width="213" version="1.0" preserveAspectRatio="xMidYMid meet" xmlns:cc="http://creativecommons.org/ns#" xmlns:dc="http://purl.org/dc/elements/1.1/" viewBox="0 0 2130 1.28e+03">
 <g fill="#efeff0" transform="translate(-7150,-7560)">
  <path d="m7160 8830c-10-20-10-110 30-470 30-340 40-370 90-480 20-60 60-150 80-210l40-110h840c790 0 840 0 840 20 100 330 130 440 140 570 30 260 60 550 60 620s-10 80-70 70c-30-10-90-70-90-100 0-40-30-30-70 10-40 50-70 50-110 0l-40-40s-20 10-40 30c-40 50-60 50-110 10l-40-40c-10 0-30 20-50 40-20 10-40 30-50 30 0 0-30-20-50-40l-50-30-40 40c-40 60-80 60-120 0-10-20-30-40-30-40s-30 20-50 40c-20 10-50 30-60 30 0 0-30-20-50-40-40-30-50-30-90 10-30 40-70 40-100 0l-40-40c-10 0-30 10-50 30-10 20-40 30-50 30-20 0-40-10-60-30s-40-30-40-30c-10 0-20 10-40 30-40 50-60 50-110 10-20-20-40-40-50-40l-40 40c-20 10-40 30-50 30 0 0-20-10-40-30-50-40-80-30-100 20-30 60-110 90-140 60z"/>
 </g>
</svg>
