<?xml version="1.0" encoding="UTF-8" standalone="no"?>
<!-- Created with Inkscape (http://www.inkscape.org/) -->

<svg
   xmlns:dc="http://purl.org/dc/elements/1.1/"
   xmlns:cc="http://creativecommons.org/ns#"
   xmlns:rdf="http://www.w3.org/1999/02/22-rdf-syntax-ns#"
   xmlns:svg="http://www.w3.org/2000/svg"
   xmlns="http://www.w3.org/2000/svg"
   xmlns:sodipodi="http://sodipodi.sourceforge.net/DTD/sodipodi-0.dtd"
   xmlns:inkscape="http://www.inkscape.org/namespaces/inkscape"
   version="1.1"
   id="svg1863"
   width="200"
   height="200"
   viewBox="0 0 200 200"
   sodipodi:docname="Professor4.svg"
   inkscape:version="0.92.2 (5c3e80d, 2017-08-06)">
  <metadata
     id="metadata1869">
    <rdf:RDF>
      <cc:Work
         rdf:about="">
        <dc:format>image/svg+xml</dc:format>
        <dc:type
           rdf:resource="http://purl.org/dc/dcmitype/StillImage" />
        <dc:title></dc:title>
      </cc:Work>
    </rdf:RDF>
  </metadata>
  <defs
     id="defs1867" />
  <sodipodi:namedview
     pagecolor="#ffffff"
     bordercolor="#666666"
     borderopacity="1"
     objecttolerance="10"
     gridtolerance="10"
     guidetolerance="10"
     inkscape:pageopacity="0"
     inkscape:pageshadow="2"
     inkscape:window-width="640"
     inkscape:window-height="480"
     id="namedview1865"
     showgrid="false"
     inkscape:zoom="1.18"
     inkscape:cx="100"
     inkscape:cy="100"
     inkscape:window-x="0"
     inkscape:window-y="0"
     inkscape:window-maximized="0"
     inkscape:current-layer="svg1863" />
  <path
     inkscape:connector-curvature="0"
     id="path1975"
     d="M 0.5157427,100 V 0 h 99.9999973 100 v 100 100 h -100 -99.9999973 z"
     style="fill:#fcfcfc" />
  <path
     inkscape:connector-curvature="0"
     id="path1973"
     d="m 35.056375,197.75 c -3.401512,-15.3846 -4.880953,-20.8423 -5.804542,-21.41311 -1.59455,-0.98548 -9.293515,7.92706 -11.16122,12.92055 -1.089128,2.91189 -1.406678,3.30162 -1.012443,1.24256 0.866668,-4.52654 5.045753,-11.08885 8.691431,-13.64794 1.785378,-1.25324 3.717689,-2.89538 4.294025,-3.64918 1.203885,-1.57458 17.27021,-5.85671 25.44352,-6.78142 l 5.518667,-0.62436 5.894683,9.85145 c 3.242076,5.4183 8.305527,13.11395 11.252114,17.10145 L 83.530041,200 H 59.541944 35.553847 Z m 57.91849,-1 c 0.339918,-1.7875 1.128213,-5.23057 1.751767,-7.65126 1.052783,-4.087 0.969388,-4.53434 -1.167964,-6.26506 -1.887143,-1.52812 -2.593584,-1.63906 -3.922312,-0.61598 -1.884322,1.45088 0.697138,-1.94833 5.280091,-6.95272 1.629425,-1.77926 2.738983,-3.45863 2.465686,-3.73192 -0.273298,-0.2733 -3.576889,-2.19254 -7.341315,-4.26498 -8.423475,-4.63741 -10.502011,-7.33807 -11.452943,-14.8809 -0.633377,-5.02398 -1.345242,-6.52645 -4.855039,-10.24711 -4.524499,-4.79631 -9.621537,-14.43319 -10.897487,-20.60368 -0.711464,-3.44063 -1.255778,-4.05221 -4.125347,-4.6351 -3.968485,-0.80611 -5.686296,-2.9211 -7.194865,-8.85837 -0.622862,-2.45139 -2.677532,-6.96026 -4.565935,-10.019718 -4.176542,-6.766534 -4.797761,-13.9542 -1.411059,-16.326338 1.334889,-0.934993 1.795275,-2.008422 1.354282,-3.157629 -0.367464,-0.957596 -0.17759,-2.044247 0.421943,-2.414779 0.776753,-0.480059 0.790386,-1.960017 0.04743,-5.149075 -0.573445,-2.461459 -1.080283,-7.856835 -1.126307,-11.989723 -0.07178,-6.446009 0.337892,-8.345428 2.881535,-13.359947 1.630868,-3.215083 3.347826,-5.769233 3.81546,-5.67589 0.467634,0.09334 1.688731,-1.703105 2.713548,-3.992107 1.024816,-2.289002 3.235844,-5.894797 4.913395,-8.012877 4.145351,-5.233932 11.190306,-10.742848 11.717124,-9.162394 0.288102,0.864306 1.165713,0.633911 2.959235,-0.776873 3.141212,-2.470878 4.691328,-2.572852 3.884974,-0.25557 -0.418161,1.2017 0.01829,1.010333 1.393011,-0.610784 1.781412,-2.1007 2.006552,-2.155784 2.043593,-0.5 0.03213,1.436518 0.830149,0.967781 3.5,-2.055826 3.202909,-3.627293 3.458377,-3.741572 3.458377,-1.547052 0,2.23747 0.222532,2.152261 3.992083,-1.528607 2.195645,-2.1439905 4.848376,-5.6288879 5.894958,-7.7442165 l 1.902876,-3.84605204 1.99896,2.54126874 C 104.40405,3.8564291 105.78566,5 106.37486,5 c 0.58921,0 2.59719,1.3397581 4.46218,2.9772402 1.86499,1.6374822 3.5989,2.7692238 3.85315,2.5149808 0.25424,-0.254243 1.98227,1.105999 3.84007,3.022759 1.8578,1.916761 3.93001,3.48502 4.60492,3.48502 0.67491,0 2.54918,1.112452 4.16505,2.472116 1.61587,1.359664 3.23009,2.17997 3.58716,1.822902 1.03367,-1.033668 6.57311,4.759984 9.63247,10.074512 2.09424,3.637975 2.89526,4.396706 3.16721,3 0.46077,-2.36644 4.35385,5.582522 5.35951,10.943157 0.37865,2.018397 1.04448,3.44978 1.47962,3.18085 1.31203,-0.810883 3.4294,9.566162 3.36803,16.506463 -0.0317,3.587116 -0.76842,8.155823 -1.64394,10.194911 l -1.58646,3.694912 3.42595,2.021363 c 4.95941,2.926122 4.71206,7.194533 -1.07404,18.534003 -2.475,4.850451 -4.5,9.598871 -4.5,10.552051 0,2.78592 -3.81496,6.84758 -6.75184,7.18846 -2.39431,0.27791 -2.8916,1.00902 -4.29494,6.3143 -2.10804,7.96942 -3.90856,11.1958 -9.91639,17.76932 -4.69824,5.14062 -5.03683,5.86103 -5.03683,10.7166 0,7.35021 -2.11235,10.30791 -10.45655,14.64124 -10.28807,5.34281 -10.19508,5.21133 -6.08296,8.60088 1.94673,1.60466 3.53951,3.35629 3.53951,3.89251 0,0.53622 -1.17391,2.06289 -2.60868,3.39259 -2.55099,2.36418 -2.58416,2.55844 -1.5,8.78417 0.60977,3.50158 1.10868,6.89216 1.10868,7.5346 0,0.78079 -2.34733,1.16809 -7.079452,1.16809 H 92.356832 Z M 74.015743,88.098612 c 0,-3.579412 -0.165057,-3.816047 -2,-2.867315 -4.240053,2.19226 -4.668334,2.925214 -2.870241,4.912085 2.892518,3.196197 4.870241,2.36585 4.870241,-2.04477 z m 15.5,3.056376 c 0,-0.971293 -3.888028,-4.685198 -4.256131,-4.065524 C 82.324412,92.030657 82.319745,92 86.007269,92 c 1.929661,0 3.508474,-0.380256 3.508474,-0.845012 z m 27.606987,-0.736775 c -0.33385,-0.869984 -0.60699,-2.298425 -0.60699,-3.174314 0,-1.255076 -0.52974,-1.09486 -2.5,0.756101 -3.29131,3.092021 -3.15352,4 0.60699,4 2.42232,0 2.97323,-0.348567 2.5,-1.581787 z M 131.31574,90.8 c 1.92032,-1.920317 1.40385,-3.643225 -1.55,-5.17072 l -2.75,-1.42208 v 3.8964 c 0,4.075944 1.79492,5.201483 4.3,2.6964 z M 118.2376,198.87814 c 0.61702,-0.61702 0.87681,-1.76042 0.57731,-2.54089 -0.32177,-0.83852 -0.009,-1.30003 0.76515,-1.12814 1.44438,0.32081 16.17004,-20.7799 18.11621,-25.95911 1.43484,-3.81842 2.11454,-3.90065 13.959,-1.68865 14.86075,2.7753 17.532,3.8992 23.89419,10.05324 6.17618,5.97412 8.33088,9.98455 9.34071,17.38541 0.54783,4.01493 0.41466,3.82766 -1.2354,-1.73729 -2.03411,-6.8602 -6.02536,-13.30298 -9.75495,-15.74671 -2.31615,-1.5176 -2.45192,-1.47093 -3.49804,1.20256 -0.8079,2.06467 -4.77625,19.19205 -4.8729,21.03144 -0.007,0.1375 -10.90314,0.25 -24.21314,0.25 -17.88572,0 -23.90729,-0.29271 -23.07814,-1.12186 z M 15.59469,195.41667 c 0.04798,-1.16495 0.284941,-1.4019 0.604167,-0.60417 0.288871,0.72187 0.253344,1.58437 -0.07895,1.91667 -0.332292,0.33229 -0.568641,-0.25834 -0.52522,-1.3125 z"
     style="fill:#d9a696" />
  <path
     inkscape:connector-curvature="0"
     id="path1971"
     d="m 35.009423,197.25 c -0.299433,-1.5125 -1.657745,-7.40589 -3.018471,-13.09643 -1.360726,-5.69054 -2.233049,-10.73638 -1.938495,-11.21297 0.703566,-1.1384 5.773069,-2.55417 17.786793,-4.96736 13.266993,-2.66493 13.284133,-2.66265 15.707618,2.08777 2.885759,5.65655 8.381345,14.24787 14.11191,22.0613 2.671331,3.64228 4.856965,6.90478 4.856965,7.25 0,0.34523 -10.566427,0.62769 -23.480948,0.62769 H 35.553847 Z m 57.50632,2.19741 c 0,-0.30393 0.731015,-3.76663 1.624478,-7.69488 l 1.624478,-7.14229 -2.609551,-2.08078 -2.609551,-2.08078 4.100156,-4.22434 C 96.900839,173.90095 99.502795,172 100.42788,172 c 0.92508,0 3.38689,1.746 5.47068,3.88 l 3.78872,3.88 -2.70749,2.51053 c -2.67099,2.47668 -2.69237,2.59736 -1.58577,8.95191 0.61695,3.54276 1.12172,6.96703 1.12172,7.60947 0,0.77954 -2.32847,1.16809 -6.999997,1.16809 -3.85,0 -7,-0.24867 -7,-0.55259 z m 25.999997,0.0993 c 0,-0.24934 3.76744,-5.98684 8.37209,-12.75 4.60464,-6.76316 9.36311,-14.25683 10.57436,-16.65259 l 2.20228,-4.35593 5.17564,0.6554 c 7.40597,0.93784 24.6511,5.13193 25.79187,6.2727 0.62009,0.62009 0.25929,3.61364 -1.00935,8.37441 -1.08593,4.07514 -2.48613,9.99685 -3.11155,13.15935 l -1.13714,5.75 h -23.4291 c -12.886,-5e-5 -23.4291,-0.20405 -23.4291,-0.45339 z M 92.222703,160.46698 c -2.086172,-0.76565 -5.042764,-2.28197 -6.570204,-3.3696 -1.52744,-1.08763 -3.420572,-2.11699 -4.20696,-2.28745 -1.711245,-0.37094 -2.763631,-2.45407 -2.859511,-5.66021 -0.04096,-1.36955 -1.901276,-4.20751 -4.458154,-6.80103 -4.91051,-4.98086 -10.604959,-14.8891 -10.625786,-18.48867 C 63.472929,118.82027 62.403485,117 59.471692,117 c -3.045507,0 -6.955949,-3.93676 -6.955949,-7.00276 0,-0.95318 -2.025,-5.7016 -4.5,-10.552051 -5.09352,-9.982172 -5.851272,-15.385313 -2.488051,-17.741005 2.319083,-1.624349 2.484678,-3.910017 1.436576,-19.828741 l -0.699529,-10.624556 3.274333,-6.143279 c 1.800884,-3.378803 3.486689,-5.930923 3.746235,-5.671377 0.259545,0.259545 1.562577,-1.716801 2.895626,-4.391881 1.333048,-2.67508 4.153818,-6.81691 6.268376,-9.204066 4.155814,-4.69156 10.066434,-8.701123 10.066434,-6.828726 0,0.618547 1.306967,0.193988 2.90437,-0.943464 3.526724,-2.511248 4.518576,-2.612657 3.659584,-0.374161 -0.569731,1.484696 -0.397664,1.465552 1.393012,-0.154987 1.551575,-1.404157 2.049543,-1.510946 2.070092,-0.443934 0.01496,0.776838 1.57976,-0.265018 3.5,-2.330327 3.101219,-3.335509 3.472942,-3.501096 3.472942,-1.547052 0,1.965414 0.419492,1.785702 4.119207,-1.764685 2.265563,-2.1741215 4.918511,-5.6964264 5.895439,-7.8273444 l 1.776231,-3.8743964 1.71957,2.6243964 C 103.97195,3.8190216 105.41401,5 106.23075,5 c 0.81674,0 3.01499,1.53 4.88499,3.4 1.87,1.87 3.4,2.903674 3.4,2.297052 0,-0.606621 1.70647,0.563379 3.79216,2.6 C 120.39359,15.333674 122.46163,17 122.90353,17 c 0.44191,0 2.22155,1.009764 3.95476,2.24392 1.73322,1.234156 3.67177,2.124399 4.30789,1.978319 1.43502,-0.329538 8.00552,7.142594 10.14138,11.533032 1.07634,2.212493 1.82881,2.858565 2.34901,2.016863 0.85089,-1.376775 4.4471,5.917523 5.49118,11.137936 0.3399,1.699461 0.95832,3.08993 1.37428,3.08993 1.29024,0 3.11915,9.080649 3.10993,15.44103 -0.005,3.332434 -0.68877,7.973667 -1.51986,10.313853 -1.50307,4.232313 -1.49673,4.264018 1.19628,5.976902 1.48905,0.94711 3.06423,2.182413 3.5004,2.745117 1.55941,2.011795 -0.33166,9.785119 -3.73695,15.360867 -1.90195,3.114231 -3.98721,7.814181 -4.6339,10.444341 -1.24143,5.04908 -3.85746,7.71789 -7.56524,7.71789 -1.64683,0 -2.34335,0.75232 -2.77749,3 -0.31871,1.65 -0.83541,4.32812 -1.14823,5.95137 -0.70529,3.65975 -7.09537,13.55181 -11.29543,17.48572 -2.58513,2.42132 -3.1358,3.70217 -3.1358,7.29384 0,2.97017 -0.39782,4.26637 -1.25,4.07278 -0.6875,-0.15618 -2.87438,0.72179 -4.85973,1.95104 -8.30774,5.14379 -16.751212,6.4399 -24.183307,3.71223 z m 20.790077,-16.3188 c 6.79155,-3.17815 17.69266,-12.70108 19.33517,-16.89071 1.66772,-4.25392 6.37815,-22.38044 5.93186,-22.82674 -0.2181,-0.21809 -1.93876,0.0458 -3.8237,0.58637 -5.21969,1.49699 -15.42203,1.1741 -19.93303,-0.63084 -4.83988,-1.93653 -7.72117,-5.728919 -10.51352,-13.837975 C 102.78496,86.992008 101.34544,84.5 100.51574,84.5 c -0.8297,0 -2.269222,2.492008 -3.493822,6.048285 -2.792343,8.109056 -5.673639,11.901445 -10.513516,13.837975 -4.837349,1.93552 -15.987682,2.06392 -21.082457,0.24276 l -3.589799,-1.28319 1.422138,5.07708 c 5.910181,21.09958 5.90663,21.0918 12.253441,26.83534 14.037276,12.703 24.202961,15.11286 37.501055,8.88993 z M 97.015743,135 c -0.373806,-0.60483 1.009288,-1 3.499997,-1 2.49071,0 3.87381,0.39517 3.5,1 -0.33992,0.55 -1.91492,1 -3.5,1 -1.585078,0 -3.160078,-0.45 -3.499997,-1 z m -9.5,-4.86025 c 0,-1.01433 24.615467,-0.85761 25.636297,0.16322 0.38337,0.38337 -5.22797,0.69703 -12.46963,0.69703 -7.241667,0 -13.166667,-0.38711 -13.166667,-0.86025 z m 7.739782,-12.68022 C 91.995768,114.43691 91.863867,111.9788 94.479633,103 c 2.104565,-7.224065 2.769882,-4.519905 0.961994,3.90999 -1.475696,6.88093 0.239576,10.59501 4.885373,10.57829 2.86611,-0.0103 3.05018,0.13987 1.53199,1.25 -2.456784,1.79644 -3.506161,1.59323 -6.603465,-1.27875 z m -35.346363,-6.24244 c -0.369915,-1.84957 -1.416871,-3.40715 -2.527021,-3.75949 -1.042492,-0.33088 -1.594376,-1.08872 -1.22641,-1.6841 0.383431,-0.62041 0.205684,-0.79615 -0.416381,-0.4117 -0.596976,0.36895 -1.368062,0.21348 -1.713526,-0.34549 -0.581725,-0.94125 0.802045,-1.47001 2.8626,-1.09384 0.479975,0.0876 0.592475,-0.57089 0.25,-1.46336 -0.342474,-0.89248 -0.675923,-2.37338 -0.740996,-3.290897 C 56.332358,98.250696 55.89869,98.85 55.433728,100.5 c -0.706637,2.50763 -0.780019,2.26144 -0.447116,-1.5 0.260352,-2.941688 0.09235,-3.956383 -0.485159,-2.930175 -1.511251,2.685448 -1.466859,9.642845 0.07363,11.539945 1.10873,1.36538 1.127974,1.58587 0.08352,0.95696 -2.165932,-1.3042 -0.366562,3.59009 2.104111,5.72319 2.63567,2.27555 3.957864,0.98429 3.146442,-3.07283 z m 86.163168,1.4675 c 0.24398,-0.65153 0.6027,-2.58836 0.79714,-4.30408 l 0.35353,-3.11948 -2.82758,1.61948 c -2.78596,1.59565 -4.65494,6.05608 -3.39309,8.0978 0.74802,1.21031 4.37171,-0.42909 5.07,-2.29372 z m -0.20256,-11.91561 c -0.27711,-2.968563 -0.22466,-3.039232 0.57073,-0.76898 0.7334,2.09332 0.8896,2.17466 0.96025,0.5 0.0464,-1.1 -0.30608,-2.61634 -0.78328,-3.369645 -0.63663,-1.00496 -1.14112,-0.472436 -1.8947,2 -1.36677,4.484205 -1.23604,7.138615 0.28923,5.872745 0.63961,-0.53082 1.02561,-2.43618 0.85777,-4.23412 z M 88.1278,99.942974 c 3.519961,-3.242792 6.338852,-9.549166 6.365981,-14.241866 0.02028,-3.507539 -0.303988,-3.946846 -4.228038,-5.728038 -5.713502,-2.593454 -18.764034,-2.715248 -23.736089,-0.221516 -5.637389,2.82743 -7.260502,8.219581 -4.96369,16.4899 1.545859,5.566296 4.606242,6.871346 15.179917,6.473216 7.613194,-0.28667 9.06941,-0.64128 11.381919,-2.771696 z M 66.765743,90.304187 c -3.413595,-5.089396 -4.190842,-7.329906 -1.876467,-5.409146 1.078329,0.894934 1.744844,0.573238 3.101182,-1.496795 1.675336,-2.556886 1.93758,-2.61604 8.660588,-1.953572 8.666642,0.853989 12.914365,2.262318 12.226902,4.053818 -0.283917,0.739875 -0.0096,2.39289 0.609646,3.673367 0.839589,1.736171 0.395683,1.501772 -1.745823,-0.921859 -3.423148,-3.874119 -4.10012,-4.042183 -3.493186,-0.867217 0.250523,1.310531 -0.03688,2.687088 -0.638672,3.059017 -2.266105,1.40053 -1.054965,2.7085 1.90583,2.0582 1.887487,-0.414562 3,-0.258608 3,0.420545 0,0.624546 -2.048302,1.079455 -4.860429,1.079455 -2.673236,0 -6.835736,0.258677 -9.25,0.574839 -4.346405,0.569185 -4.421531,0.527189 -7.639571,-4.270652 z m 7.757601,1.204972 c -0.680508,-0.819963 -1.038545,-2.844963 -0.795637,-4.5 0.51543,-3.511852 -0.69382,-3.790462 -4.10883,-0.946672 l -2.396866,1.995948 2.32118,2.470782 c 2.582519,2.748966 7.202828,3.658101 4.980153,0.979942 z m 63.012106,8.714831 c 1.01357,-1.25171 2.14498,-4.693993 2.51425,-7.649523 1.314,-10.51688 -3.44902,-14.585606 -17.03396,-14.550951 -10.52851,0.02686 -16.5,2.480009 -16.5,6.778369 0,3.743656 1.78041,8.944199 4.29921,12.557886 3.06993,4.404389 7.03201,5.698199 16.53922,5.400849 7.29559,-0.22819 8.5689,-0.54543 10.18128,-2.53663 z m -18.26971,-5.96554 c -3.75471,-0.194594 -6.75,-0.808559 -6.75,-1.383595 0,-0.634937 1.19138,-0.772095 3.08806,-0.355514 2.93912,0.64554 3.03125,0.5721 1.9101,-1.522778 -0.64787,-1.210565 -0.95463,-3.055023 -0.68168,-4.098796 0.75006,-2.868216 -0.86889,-2.281757 -3.73291,1.352233 -2.61626,3.319615 -3.40761,3.158245 -1.54839,-0.315741 C 112.31765,86.501624 112.26207,86 111.33664,86 c -0.89049,0 -0.82047,-0.429 0.2437,-1.493168 0.82352,-0.823526 5.19286,-2.016374 9.74276,-2.659812 l 8.24959,-1.166645 2.77383,2.657504 c 2.24886,2.15454 3.0308,2.421363 4.13156,1.409812 1.5669,-1.439911 -2.55197,5.882986 -4.78224,8.502309 -0.81954,0.9625 -2.43283,1.661863 -3.58509,1.55414 -1.15225,-0.107724 -5.13251,-0.353284 -8.84501,-0.54569 z M 130.687,91.345012 c 2.25917,-2.044525 2.29471,-3.172642 0.17375,-5.516271 -2.3523,-2.599263 -4.16141,-2.319118 -3.61118,0.5592 0.25106,1.313368 -0.0522,3.338368 -0.67386,4.5 C 125.63064,92.653819 125.72507,93 127.15182,93 c 0.93854,0 2.52937,-0.744744 3.53518,-1.654988 z M 151.6128,92.55 c 1.38373,-1.455849 1.13042,-7.792493 -0.29254,-7.318173 -1.7309,0.576965 -2.92194,5.779972 -2.12162,9.268173 0.54872,2.391595 0.77176,2.594397 1.09977,1 0.2263,-1.1 0.81778,-2.4275 1.31439,-2.95 z m -2.01811,-1.133333 c 0.048,-1.164943 0.28494,-1.4019 0.60416,-0.604167 0.28887,0.721875 0.25335,1.584375 -0.0789,1.916667 -0.3323,0.332291 -0.56864,-0.258334 -0.52522,-1.3125 z m -97.09426,0.274316 c 0.0084,-0.444959 -0.434687,-0.530902 -0.984687,-0.190983 -0.55,0.339919 -0.993109,1.378976 -0.984687,2.309017 0.0132,1.457275 0.149288,1.48367 0.984687,0.190983 0.533156,-0.825 0.976265,-1.864058 0.984687,-2.309017 z M 49.736238,87.75 c -0.952752,-1.975508 -1.085134,-1.701016 -1.085134,2.25 0,3.951016 0.132382,4.225508 1.085134,2.25 0.780178,-1.617682 0.780178,-2.882318 0,-4.5 z M 153.01574,83 c 0.33992,-0.55 0.16803,-1 -0.38197,-1 -0.55,0 -1.27811,0.45 -1.61803,1 -0.33992,0.55 -0.16803,1 0.38197,1 0.55,0 1.27811,-0.45 1.61803,-1 z m -45.61787,-5.44293 c 1.85956,-0.605549 2.07893,-0.975272 1,-1.685397 -1.12999,-0.74373 -1.02802,-1.179851 0.559,-2.390676 3.8503,-2.937608 15.13093,-1.828577 30.0898,2.958211 1.54739,0.495158 -0.0732,-15.254861 -2.08773,-20.289571 -0.92325,-2.307423 -3.50666,-5.760038 -5.74092,-7.672476 -4.7001,-4.02311 -8.80984,-4.465596 -18.36359,-1.977161 -7.35066,1.914604 -17.326718,1.914604 -24.677378,0 -8.254426,-2.150005 -12.701289,-1.92161 -16.451142,0.844944 -6.952693,5.129535 -9.0267,9.518002 -10.058189,21.282496 l -0.71415,8.145131 4.531086,-1.457528 c 8.400455,-2.702198 11.506196,-3.267239 18.089956,-3.291186 6.761868,-0.0246 11.585477,1.841847 8.957521,3.466013 -3.652166,2.257162 8.915586,4.004809 14.865736,2.0672 z M 90.24491,75.395833 c -0.332292,-0.332291 -1.194792,-0.367818 -1.916667,-0.07895 -0.797733,0.319226 -0.560776,0.556183 0.604167,0.604167 1.054166,0.04342 1.644791,-0.192928 1.3125,-0.52522 z"
     style="fill:#aa9c9a" />
  <path
     inkscape:connector-curvature="0"
     id="path1969"
     d="m 34.493186,193.25 c -0.68696,-3.7125 -2.10882,-9.57165 -3.159688,-13.02032 -1.050868,-3.44868 -1.682441,-6.63961 -1.403496,-7.09095 0.768255,-1.24306 17.354149,-5.27486 27.085741,-6.58417 l 4,-0.53816 5,8.68275 c 2.75,4.77552 6.828576,11.18433 9.063503,14.2418 2.234926,3.05748 4.87418,6.79655 5.865009,8.30905 L 82.745763,200 H 59.243984 35.742205 Z m 58.739551,3 c 0.32519,-2.0625 1.101598,-5.54106 1.725352,-7.73013 1.056927,-3.7093 0.961382,-4.12989 -1.404124,-6.18105 l -2.538222,-2.20092 3.952948,-4.06895 C 97.142812,173.83103 99.489654,172 100.18389,172 c 1.72252,0 8.33185,5.90868 8.33185,7.4486 0,0.68279 -0.9435,2.09528 -2.09667,3.13888 -2.1325,1.92989 -2.17686,4.79489 -0.22529,14.55273 L 106.76574,200 h -7.062126 -7.06213 z m 25.283003,3.31076 c 0,-0.24158 2.46463,-3.87442 5.47696,-8.07298 3.01233,-4.19856 7.81089,-11.53841 10.66346,-16.31076 2.85257,-4.77236 5.29361,-8.8202 5.42455,-8.9952 0.36428,-0.48688 18.28704,2.83169 23.93503,4.4318 7.98736,2.26287 7.94525,2.19294 5.71906,9.49686 -1.07112,3.51424 -2.50954,9.42702 -3.1965,13.13952 l -1.24902,6.75 h -23.38677 c -12.86272,0 -23.38677,-0.19766 -23.38677,-0.43924 z M 92.222703,160.46698 c -2.086172,-0.76565 -5.042764,-2.28197 -6.570204,-3.3696 -1.52744,-1.08763 -3.420572,-2.11699 -4.20696,-2.28745 -1.748238,-0.37896 -2.76618,-2.4696 -2.859511,-5.87284 -0.04162,-1.51751 -1.349358,-3.76093 -3.206086,-5.5 C 71.179883,139.50318 64.789807,129.61112 64.084518,125.95137 63.771692,124.32812 63.254988,121.65 62.936288,120 c -0.481998,-2.49544 -1.05845,-3 -3.42742,-3 -3.0829,0 -6.993125,-3.91561 -6.993125,-7.00276 0,-0.95318 -2.025,-5.7016 -4.5,-10.552051 -5.095811,-9.986661 -5.884526,-15.563591 -2.5,-17.677262 1.1,-0.686961 2,-2.292332 2,-3.567491 0,-1.275158 0.388221,-2.078536 0.862713,-1.785284 0.474492,0.293252 0.256522,-2.04269 -0.484379,-5.190983 -0.740901,-3.148293 -1.354122,-8.905977 -1.362713,-12.794854 -0.01274,-5.768354 0.490894,-8.056856 2.734379,-12.424854 1.5125,-2.944794 3.131625,-5.254618 3.598055,-5.132943 0.46643,0.121675 2.08282,-2.387141 3.591977,-5.575145 2.769729,-5.850886 9.826062,-14.030455 14.057277,-16.294933 2.121174,-1.135218 2.250577,-1.057358 1.705689,1.026296 -0.519192,1.985391 -0.17833,1.856069 2.853691,-1.082682 2.815777,-2.729157 3.443311,-3.000019 3.443311,-1.486233 0,1.754065 0.09946,1.761148 1.89629,0.135036 1.47475,-1.334631 2.014644,-1.424658 2.428707,-0.404988 0.360363,0.887431 1.516232,0.180083 3.576809,-2.188869 2.254402,-2.591783 3.051373,-3.045892 3.071293,-1.75 0.0148,0.9625 0.466437,1.75 1.003647,1.75 1.250133,0 8.691952,-9.3807999 9.525661,-12.0075957 0.75297,-2.37239644 2.32726,-2.59984928 3.15026,-0.4551481 0.32445,0.845491 2.07532,2.1579044 3.89083,2.9164744 1.81552,0.7585699 4.06016,2.5379409 4.9881,3.9541576 0.92794,1.4162168 2.10491,2.3167638 2.61547,2.0012148 0.51057,-0.315549 2.63701,0.925815 4.72542,2.758586 4.04961,3.55391 9.66381,7.000546 12.12751,7.445261 1.966,0.354876 7.48154,6.87636 9.90618,11.712902 1.48053,2.953298 2.01743,3.409434 2.3541,2 0.5478,-2.293315 4.25058,5.37551 5.27034,10.915398 0.37878,2.057687 1.05138,3.517087 1.49469,3.243109 1.17694,-0.727388 2.9817,8.703397 2.9308,15.314862 -0.0241,3.135428 -0.69615,7.500779 -1.49336,9.700779 -1.38324,3.81724 -1.34697,4.079941 0.79389,5.749649 1.23385,0.962307 2.85793,2.266187 3.60907,2.897511 2.17451,1.827661 0.60104,9.287391 -3.30962,15.690609 -1.90195,3.114231 -3.98721,7.814181 -4.6339,10.444341 -1.24511,5.06405 -3.8582,7.71789 -7.59938,7.71789 -1.80235,0 -2.35176,0.72211 -2.85315,3.75 -1.27072,7.6739 -6.26603,16.81172 -12.4022,22.68709 -2.50447,2.39803 -3.06746,3.73672 -3.06746,7.29384 0,2.97017 -0.39782,4.26637 -1.25,4.07278 -0.6875,-0.15618 -2.87438,0.72179 -4.85973,1.95104 -8.30774,5.14379 -16.751212,6.4399 -24.183307,3.71223 z m 20.790077,-16.3188 c 6.79155,-3.17815 17.69266,-12.70108 19.33517,-16.89071 1.66772,-4.25392 6.37815,-22.38044 5.93186,-22.82674 -0.2181,-0.21809 -1.93876,0.0458 -3.8237,0.58637 -5.21969,1.49699 -15.42203,1.1741 -19.93303,-0.63084 -4.83988,-1.93653 -7.72117,-5.728919 -10.51352,-13.837975 C 102.78496,86.992008 101.34544,84.5 100.51574,84.5 c -0.8297,0 -2.269222,2.492008 -3.493822,6.048285 -2.792343,8.109056 -5.673639,11.901445 -10.513516,13.837975 -4.837349,1.93552 -15.987682,2.06392 -21.082457,0.24276 l -3.589799,-1.28319 1.422138,5.07708 c 5.910181,21.09958 5.90663,21.0918 12.253441,26.83534 14.037276,12.703 24.202961,15.11286 37.501055,8.88993 z M 97.015743,135 c -0.373806,-0.60483 1.009288,-1 3.499997,-1 2.49071,0 3.87381,0.39517 3.5,1 -0.33992,0.55 -1.91492,1 -3.5,1 -1.585078,0 -3.160078,-0.45 -3.499997,-1 z m -9.5,-4.86025 c 0,-1.01433 24.615467,-0.85761 25.636297,0.16322 0.38337,0.38337 -5.22797,0.69703 -12.46963,0.69703 -7.241667,0 -13.166667,-0.38711 -13.166667,-0.86025 z m 7.739782,-12.68022 C 91.995768,114.43691 91.863867,111.9788 94.479633,103 c 2.104565,-7.224065 2.769882,-4.519905 0.961994,3.90999 -1.475696,6.88093 0.239576,10.59501 4.885373,10.57829 2.86611,-0.0103 3.05018,0.13987 1.53199,1.25 -2.456784,1.79644 -3.506161,1.59323 -6.603465,-1.27875 z m -35.346363,-6.24244 c -0.369915,-1.84957 -1.416871,-3.40715 -2.527021,-3.75949 -1.042492,-0.33088 -1.594376,-1.08872 -1.22641,-1.6841 0.383431,-0.62041 0.205684,-0.79615 -0.416381,-0.4117 -0.596976,0.36895 -1.368062,0.21348 -1.713526,-0.34549 -0.581725,-0.94125 0.802045,-1.47001 2.8626,-1.09384 0.479975,0.0876 0.592475,-0.57089 0.25,-1.46336 -0.342474,-0.89248 -0.675923,-2.37338 -0.740996,-3.290897 C 56.332358,98.250696 55.89869,98.85 55.433728,100.5 c -0.706637,2.50763 -0.780019,2.26144 -0.447116,-1.5 0.260352,-2.941688 0.09235,-3.956383 -0.485159,-2.930175 -1.511251,2.685448 -1.466859,9.642845 0.07363,11.539945 1.10873,1.36538 1.127974,1.58587 0.08352,0.95696 -2.165932,-1.3042 -0.366562,3.59009 2.104111,5.72319 2.63567,2.27555 3.957864,0.98429 3.146442,-3.07283 z m 86.163168,1.4675 c 0.24398,-0.65153 0.6027,-2.58836 0.79714,-4.30408 l 0.35353,-3.11948 -2.82758,1.61948 c -2.78596,1.59565 -4.65494,6.05608 -3.39309,8.0978 0.74802,1.21031 4.37171,-0.42909 5.07,-2.29372 z m -0.20256,-11.91561 c -0.27711,-2.968563 -0.22466,-3.039232 0.57073,-0.76898 0.7334,2.09332 0.8896,2.17466 0.96025,0.5 0.0464,-1.1 -0.30608,-2.61634 -0.78328,-3.369645 -0.63663,-1.00496 -1.14112,-0.472436 -1.8947,2 -1.36677,4.484205 -1.23604,7.138615 0.28923,5.872745 0.63961,-0.53082 1.02561,-2.43618 0.85777,-4.23412 z M 88.433572,99.579917 c 3.719638,-3.565095 6.344894,-10.084975 5.907375,-14.671096 -0.462523,-4.848217 -5.599789,-7.248912 -15.377174,-7.185906 -8.127532,0.05237 -13.393822,1.454717 -15.911857,4.237114 -2.284686,2.52455 -2.99346,8.628021 -1.602016,13.79545 1.626097,6.038861 4.435565,7.329241 15.251424,7.004941 8.066185,-0.24185 8.902849,-0.46866 11.732248,-3.180503 z M 69.10728,93 c -3.213688,-3.83261 -5.614869,-7.946184 -4.356485,-7.463297 0.748518,0.287234 2.425811,-0.611257 3.727317,-1.996647 2.144457,-2.28267 2.890191,-2.464586 7.952003,-1.939832 8.99868,0.932887 11.79603,2.104509 12.385362,5.187398 l 0.516941,2.704204 -1.926566,-2.379208 c -1.059611,-1.308564 -3.279059,-2.536682 -4.932106,-2.729151 -2.507493,-0.291954 -2.794464,-0.122494 -1.731772,1.02263 0.924431,0.996138 1.475261,1.060105 2.008456,0.233238 0.404078,-0.626634 0.741578,0.296607 0.75,2.051648 0.0084,1.755041 -0.547187,3.555041 -1.234687,4 -0.795194,0.51466 0.205379,1.016094 2.75,1.378154 2.934251,0.417498 1.51538,0.683935 -5.325348,1 C 72.242223,94.413268 70.111861,94.198053 69.10728,93 Z m 5.83914,-2.076601 c -1.779876,-1.96674 -1.790536,-2.231262 -0.201498,-5 C 76.376572,83.080412 76.363885,83 74.283684,83 c -2.216091,0 -6.767941,3.595221 -6.767941,5.345573 0,2.113945 3.444114,4.654427 6.309975,4.654427 2.973546,0 2.983429,-0.01831 1.120702,-2.076601 z m 60.05259,11.082961 c 3.25195,-1.23639 5.51673,-6.389002 5.51673,-12.551164 0,-3.719912 -0.54274,-5.151785 -2.81345,-7.422494 -5.35543,-5.355429 -19.3129,-6.121446 -28.16166,-1.545575 -3.53217,1.826559 -3.91044,4.751496 -1.49856,11.5875 1.83746,5.207917 3.97108,7.756073 7.97367,9.522863 3.55325,1.56844 15.26963,1.82079 18.98327,0.40887 z m -13.98327,-8.067389 c -4.95,-0.308567 -7.2574,-0.646067 -5.12756,-0.75 3.30882,-0.161467 3.69236,-0.40596 2.63516,-1.679812 -0.68051,-0.819963 -1.03854,-2.844963 -0.79564,-4.5 0.56819,-3.871272 -0.66117,-3.804973 -4.46579,0.240841 -2.13388,2.269161 -2.69704,2.570958 -1.86602,1 0.89159,-1.685477 0.89977,-2.25 0.0326,-2.25 -2.68024,0 1.38558,-2.874248 4.89483,-3.4603 8.75398,-1.461933 13.1713,-0.934126 16.16198,1.931124 l 2.84631,2.726944 -2.00859,3.404311 c -1.10473,1.872371 -2.30079,3.515373 -2.65793,3.651116 -0.35715,0.135743 -4.69935,-0.0057 -9.64935,-0.314224 z m 10.5,-3.438971 2.34863,-2.5 -2.34863,-2.5 c -2.34086,-2.491731 -6.36414,-3.337862 -7.45771,-1.568422 -0.31666,0.512368 0.39875,1.614144 1.58981,2.448392 2.0704,1.450168 2.09209,1.628925 0.49367,4.068422 C 124.51277,92.934167 124.53023,93 126.81837,93 c 1.29181,0 3.40562,-1.125 4.69737,-2.5 z m 20.09706,2.05 c 1.38373,-1.455849 1.13042,-7.792493 -0.29254,-7.318173 -1.7309,0.576965 -2.92194,5.779972 -2.12162,9.268173 0.54872,2.391595 0.77176,2.594397 1.09977,1 0.2263,-1.1 0.81778,-2.4275 1.31439,-2.95 z m -2.01811,-1.133333 c 0.048,-1.164943 0.28494,-1.4019 0.60416,-0.604167 0.28887,0.721875 0.25335,1.584375 -0.0789,1.916667 -0.3323,0.332291 -0.56864,-0.258334 -0.52522,-1.3125 z m -97.09426,0.274316 c 0.0084,-0.444959 -0.434687,-0.530902 -0.984687,-0.190983 -0.55,0.339919 -0.993109,1.378976 -0.984687,2.309017 0.0132,1.457275 0.149288,1.48367 0.984687,0.190983 0.533156,-0.825 0.976265,-1.864058 0.984687,-2.309017 z M 49.736238,87.75 c -0.952752,-1.975508 -1.085134,-1.701016 -1.085134,2.25 0,3.951016 0.132382,4.225508 1.085134,2.25 0.780178,-1.617682 0.780178,-2.882318 0,-4.5 z M 153.01574,83 c 0.33992,-0.55 0.16803,-1 -0.38197,-1 -0.55,0 -1.27811,0.45 -1.61803,1 -0.33992,0.55 -0.16803,1 0.38197,1 0.55,0 1.27811,-0.45 1.61803,-1 z m -45.61787,-5.44293 c 1.85956,-0.605549 2.07893,-0.975272 1,-1.685397 -1.12999,-0.74373 -1.02802,-1.179851 0.559,-2.390676 3.8503,-2.937608 15.13093,-1.828577 30.0898,2.958211 1.54739,0.495158 -0.0732,-15.254861 -2.08773,-20.289571 -0.92325,-2.307423 -3.50666,-5.760038 -5.74092,-7.672476 -4.7001,-4.02311 -8.80984,-4.465596 -18.36359,-1.977161 -7.35066,1.914604 -17.326718,1.914604 -24.677378,0 -8.254426,-2.150005 -12.701289,-1.92161 -16.451142,0.844944 -6.952693,5.129535 -9.0267,9.518002 -10.058189,21.282496 l -0.71415,8.145131 4.531086,-1.457528 c 8.400455,-2.702198 11.506196,-3.267239 18.089956,-3.291186 6.761868,-0.0246 11.585477,1.841847 8.957521,3.466013 -3.652166,2.257162 8.915586,4.004809 14.865736,2.0672 z M 90.24491,75.395833 c -0.332292,-0.332291 -1.194792,-0.367818 -1.916667,-0.07895 -0.797733,0.319226 -0.560776,0.556183 0.604167,0.604167 1.054166,0.04342 1.644791,-0.192928 1.3125,-0.52522 z"
     style="fill:#c38775" />
  <path
     inkscape:connector-curvature="0"
     id="path1967"
     d="m 34.493186,193.25 c -0.68696,-3.7125 -2.10882,-9.57165 -3.159688,-13.02032 -1.050868,-3.44868 -1.682441,-6.63961 -1.403496,-7.09095 0.768255,-1.24306 17.354149,-5.27486 27.085741,-6.58417 l 4,-0.53816 5,8.68275 c 2.75,4.77552 6.828576,11.18433 9.063503,14.2418 2.234926,3.05748 4.87418,6.79655 5.865009,8.30905 L 82.745763,200 H 59.243984 35.742205 Z m 58.739551,3 c 0.32519,-2.0625 1.101598,-5.54106 1.725352,-7.73013 1.056927,-3.7093 0.961382,-4.12989 -1.404124,-6.18105 l -2.538222,-2.20092 3.952948,-4.06895 C 97.142812,173.83103 99.489654,172 100.18389,172 c 1.72252,0 8.33185,5.90868 8.33185,7.4486 0,0.68279 -0.9435,2.09528 -2.09667,3.13888 -2.1325,1.92989 -2.17686,4.79489 -0.22529,14.55273 L 106.76574,200 h -7.062126 -7.06213 z m 25.283003,3.31076 c 0,-0.24158 2.46463,-3.87442 5.47696,-8.07298 3.01233,-4.19856 7.81089,-11.53841 10.66346,-16.31076 2.85257,-4.77236 5.29361,-8.8202 5.42455,-8.9952 0.36428,-0.48688 18.28704,2.83169 23.93503,4.4318 7.98736,2.26287 7.94525,2.19294 5.71906,9.49686 -1.07112,3.51424 -2.50954,9.42702 -3.1965,13.13952 l -1.24902,6.75 h -23.38677 c -12.86272,0 -23.38677,-0.19766 -23.38677,-0.43924 z M 92.515743,155.14833 C 86.106381,152.984 80.561184,149.92809 80.45178,148.5 c -0.04213,-0.55 -0.463351,-0.1 -0.936037,1 -0.800572,1.86303 -0.864243,1.83589 -0.929715,-0.3963 -0.04042,-1.37804 -1.905933,-4.35875 -4.390193,-7.01462 -5.214578,-5.57481 -9.61427,-12.84986 -10.121129,-16.73567 C 63.232487,118.89658 62.336835,117 60.129841,117 c -3.991026,0 -6.339173,-2.73622 -8.525619,-9.93461 -1.163367,-3.83013 -2.606054,-7.267235 -3.205972,-7.638005 -1.810068,-1.118683 -4.837109,-8.708589 -4.860545,-12.187172 -0.01376,-2.042912 0.724636,-3.899045 1.978038,-4.972241 1.1,-0.94185 2,-2.764003 2,-4.04923 0,-1.285227 0.388221,-2.096842 0.862713,-1.80359 0.474492,0.293252 0.256522,-2.04269 -0.484379,-5.190983 -0.740901,-3.148293 -1.354122,-8.905977 -1.362713,-12.794854 -0.01274,-5.768354 0.490894,-8.056856 2.734379,-12.424854 1.5125,-2.944794 3.131625,-5.254618 3.598055,-5.132943 0.46643,0.121675 2.08282,-2.387141 3.591977,-5.575145 2.769729,-5.850886 9.826062,-14.030455 14.057277,-16.294933 2.121174,-1.135218 2.250577,-1.057358 1.705689,1.026296 -0.519192,1.985391 -0.17833,1.856069 2.853691,-1.082682 2.815777,-2.729157 3.443311,-3.000019 3.443311,-1.486233 0,1.754065 0.09946,1.761148 1.89629,0.135036 1.47475,-1.334631 2.014644,-1.424658 2.428707,-0.404988 0.360363,0.887431 1.516232,0.180083 3.576809,-2.188869 2.254402,-2.591783 3.051373,-3.045892 3.071293,-1.75 0.0148,0.9625 0.466437,1.75 1.003647,1.75 1.250133,0 8.691952,-9.3807999 9.525661,-12.0075957 0.75297,-2.37239644 2.32726,-2.59984928 3.15026,-0.4551481 0.32445,0.845491 2.07532,2.1579044 3.89083,2.9164744 1.81552,0.7585699 4.06016,2.5379409 4.9881,3.9541576 0.92794,1.4162168 2.10491,2.3167638 2.61547,2.0012148 0.51057,-0.315549 2.63701,0.925815 4.72542,2.758586 4.04961,3.55391 9.66381,7.000546 12.12751,7.445261 1.966,0.354876 7.48154,6.87636 9.90618,11.712902 1.48053,2.953298 2.01743,3.409434 2.3541,2 0.5478,-2.293315 4.25058,5.37551 5.27034,10.915398 0.37878,2.057687 1.05138,3.517087 1.49469,3.243109 1.17694,-0.727388 2.9817,8.703397 2.9308,15.314862 -0.0241,3.135428 -0.6645,7.441754 -1.42302,9.569612 C 150.56051,78.543998 150.93725,81 153.06602,81 c 1.63322,0 4.47587,3.876706 4.37943,5.972506 -0.0497,1.081055 -0.34736,0.942956 -1.01831,-0.472506 -0.7229,-1.525084 -0.83716,-1.092846 -0.48118,1.82027 0.55436,4.536418 -0.90969,9.119472 -2.58286,8.085396 -0.68773,-0.425041 -0.88643,-0.277904 -0.4903,0.363055 0.36635,0.592756 -0.20288,2.574785 -1.26494,4.404509 -1.06206,1.82972 -2.44101,5.26301 -3.06432,7.62952 -1.35299,5.13687 -4.13377,8.19725 -7.44834,8.19725 -1.90627,0 -2.58414,0.69051 -3.1905,3.25 -0.42348,1.7875 -0.67862,3.60435 -0.56697,4.03745 0.47481,1.84201 -5.48155,12.05333 -9.96517,17.08383 -2.72617,3.0587 -4.88765,6.47566 -4.92711,7.78898 -0.0661,2.19927 -0.12188,2.21966 -0.92971,0.33974 -0.47269,-1.1 -0.89106,-1.50483 -0.92971,-0.89961 -0.12205,1.91066 -12.33275,7.41633 -17.57029,7.92224 -3.352391,0.32382 -6.812364,-0.12904 -10.499997,-1.3743 z m 20.820877,-10.76152 c 3.22707,-1.57886 9.02695,-6.03584 13.73005,-10.551 l 8.14279,-7.81741 4.04867,-14.09056 4.04867,-14.090568 -3.18704,3.479448 c -2.82586,3.08511 -3.94602,3.56072 -9.88405,4.19663 -9.44042,1.01098 -15.12744,-0.0542 -19.15111,-3.58704 -3.73817,-3.282152 -6.6403,-8.657282 -7.51906,-13.92631 -0.47545,-2.850773 -1.02316,-3.5 -2.9527,-3.5 -2.031224,0 -2.567581,0.776101 -3.762117,5.443745 -1.510156,5.900925 -4.931421,11.092295 -9.112289,13.826825 -2.056198,1.34488 -4.787483,1.72128 -12.283367,1.69276 -10.650273,-0.0405 -14.207271,-1.40769 -16.011937,-6.154317 -0.540839,-1.422514 -1.220199,-2.349534 -1.50969,-2.060044 -0.28949,0.289491 1.340997,6.764401 3.623306,14.388691 4.028914,13.45901 4.314178,14.03166 9.804324,19.68185 15.725394,16.1838 27.874995,19.96606 41.97555,13.0673 z M 98.765743,130.31067 c 0.9625,-0.25152 2.537497,-0.25152 3.499997,0 0.9625,0.25153 0.175,0.45733 -1.75,0.45733 -1.924997,0 -2.712497,-0.2058 -1.749997,-0.45733 z m -3.389216,-13.36713 c -2.236622,-1.94831 -2.245378,-2.00062 -0.166478,-0.99463 1.206869,0.58402 2.470927,1.50943 2.809017,2.05647 0.983056,1.59061 -0.09474,1.15753 -2.642539,-1.06184 z m -1.781837,-6.52687 c 0.04798,-1.16495 0.284941,-1.4019 0.604167,-0.60417 0.288871,0.72187 0.253344,1.58437 -0.07895,1.91667 -0.332292,0.33229 -0.568641,-0.25834 -0.52522,-1.3125 z M 61.143479,114.25 c -4.017307,-13.86537 -5.921173,-19.18668 -6.693798,-18.709171 -0.513666,0.317463 -0.947622,2.238147 -0.964347,4.268188 -0.02588,3.141613 -0.191961,3.412923 -1.115819,1.822813 -0.596976,-1.02749 -0.84457,-3.663767 -0.550209,-5.858392 0.375755,-2.801464 0.01197,-4.850623 -1.221104,-6.878243 -2.230842,-3.668325 -3.235163,-2.702345 -2.429395,2.33665 0.345118,2.158248 0.688331,4.676503 0.762695,5.596121 0.07437,0.919619 0.872662,3.037584 1.773994,4.706594 0.901332,1.669 1.96401,4.76815 2.361507,6.88699 0.832556,4.4379 3.532871,7.57845 6.516128,7.57845 1.495431,0 1.927112,-0.48415 1.560348,-1.75 z m 84.299681,-0.88486 c 1.13992,-1.44917 2.07258,-3.60402 2.07258,-4.78856 0,-1.18453 0.94114,-3.93635 2.09143,-6.11514 2.33235,-4.417769 2.59784,-5.67904 2.78095,-13.21144 0.0981,-4.033755 0.48879,-5.25 1.68664,-5.25 0.85746,0 1.2655,-0.474916 0.90676,-1.055368 -1.31211,-2.123038 -3.75378,-0.335043 -5.44007,3.983664 -1.35063,3.459083 -1.50727,5.150963 -0.71571,7.730127 0.70529,2.298044 0.68078,3.991893 -0.0806,5.571707 -1.04187,2.16171 -1.09722,2.11781 -1.16168,-0.921113 -0.13312,-6.276293 -2.01391,-4.204951 -5.01632,5.524553 -1.67829,5.43846 -3.0514,10.17574 -3.0514,10.52727 0,1.71048 4.09726,0.33097 5.92742,-1.9957 z M 88.433572,99.579917 c 3.719638,-3.565095 6.344894,-10.084975 5.907375,-14.671096 -0.476086,-4.990383 -5.682184,-7.315362 -16.321445,-7.288957 -12.128753,0.0301 -17.561281,3.720629 -17.447317,11.852642 0.08172,5.83114 2.073363,10.781164 4.943558,12.286704 1.651716,0.86639 5.447135,1.21455 11.185581,1.02607 8.049442,-0.26439 8.908722,-0.49915 11.732248,-3.205363 z m -21.295985,-9.185796 -2.450258,-3.605879 3.309089,-2.905418 c 3.288112,-2.887 3.354832,-2.898932 10.524498,-1.88209 5.973302,0.847166 12.552244,2.858769 9.709643,2.968857 -0.431851,0.01673 -0.293943,1.042909 0.306463,2.280409 1.062354,2.189625 1.035976,2.186048 -0.983045,-0.133295 -1.14108,-1.310812 -3.427184,-2.540769 -5.080231,-2.733238 -2.507493,-0.291954 -2.794464,-0.122494 -1.731772,1.02263 0.924431,0.996138 1.475261,1.060105 2.008456,0.233238 0.404078,-0.626634 0.741578,0.296607 0.75,2.051648 0.0084,1.755041 -0.547187,3.552132 -1.234687,3.993537 -0.813043,0.522009 -0.02652,1.02097 2.25,1.427376 2.238544,0.399626 0.179144,0.672267 -5.713949,0.756463 L 69.587845,94 Z m 7.808833,0.529278 c -1.779876,-1.96674 -1.790536,-2.231262 -0.201498,-5 C 76.376572,83.080412 76.363885,83 74.283684,83 c -2.216091,0 -6.767941,3.595221 -6.767941,5.345573 0,2.113945 3.444114,4.654427 6.309975,4.654427 2.973546,0 2.983429,-0.01831 1.120702,-2.076601 z m 60.71972,10.996111 c 4.39538,-2.352336 6.47156,-14.158822 3.2889,-18.702715 -2.80019,-3.997822 -7.29416,-5.575466 -15.94306,-5.596931 -10.21226,-0.02535 -15.82017,2.330436 -16.33504,6.862059 -0.71201,6.266648 4.14961,15.482974 9.25724,17.549227 3.04169,1.23049 17.3757,1.14939 19.73196,-0.11164 z M 121.01574,94 c -4.95,-0.342132 -7.2574,-0.707096 -5.12756,-0.811029 3.30882,-0.161467 3.69236,-0.40596 2.63516,-1.679812 -0.68051,-0.819963 -1.03854,-2.844963 -0.79564,-4.5 0.53068,-3.615714 -0.50554,-3.806489 -3.64159,-0.670441 l -2.33871,2.338717 0.13417,-2.359891 c 0.16254,-2.858963 4.37694,-4.303566 12.57945,-4.311967 4.51813,-0.0046 5.91141,0.441003 8.18291,2.61724 l 2.73763,2.622817 -2.56579,3.877183 c -1.41119,2.132451 -2.6185,3.792146 -2.68292,3.688212 C 130.06844,94.707096 125.96574,94.342132 121.01574,94 Z m 10.5,-3.5 2.34863,-2.5 -2.34863,-2.5 c -2.34086,-2.491731 -6.36414,-3.337862 -7.45771,-1.568422 -0.31666,0.512368 0.39875,1.614144 1.58981,2.448392 2.0704,1.450168 2.09209,1.628925 0.49367,4.068422 C 124.51277,92.934167 124.53023,93 126.81837,93 c 1.29181,0 3.40562,-1.125 4.69737,-2.5 z M 45.198857,88.8125 c -0.319226,-0.797733 -0.556183,-0.560776 -0.604167,0.604167 -0.04342,1.054166 0.192928,1.644791 0.52522,1.3125 0.332291,-0.332292 0.367818,-1.194792 0.07895,-1.916667 z M 47.158093,84 c 0.811626,0 1.184064,-0.471851 0.827639,-1.048558 -0.780939,-1.263586 -3.51248,0.686572 -3.391042,2.421003 C 44.6443,86.080931 44.861099,86.035423 45.178024,85.25 45.455436,84.5625 46.346467,84 47.158093,84 Z m 60.185987,-6.361825 c 0.73059,-0.469175 2.53059,-1.216021 4,-1.659658 2.57429,-0.777214 2.54592,-0.809744 -0.77834,-0.892564 -5.81218,-0.144804 -1.99438,-2.241157 5.10775,-2.804666 4.85741,-0.385405 8.48966,0.08669 15.51457,2.016474 l 9.17232,2.519693 -0.38362,-3.158727 c -0.21099,-1.7373 -0.59559,-5.766257 -0.85466,-8.953238 -0.62298,-7.663615 -3.88499,-14.199735 -8.66564,-17.363413 -4.199,-2.77877 -7.76878,-2.844424 -22.69072,-0.417316 -7.12791,1.159382 -12.766347,0.759179 -24.988239,-1.773606 -6.305253,-1.306659 -9.16967,-0.33848 -14.362813,4.854663 -4.993605,4.993605 -6.121561,8.28568 -7.240254,21.131544 l -0.490935,5.637361 5.166122,-1.457156 c 11.082179,-3.125839 13.378271,-3.48069 19.508374,-3.014935 7.092598,0.538884 10.933857,2.635254 5.107748,2.787557 l -3.45,0.09019 3.20077,0.925646 c 1.760423,0.509106 3.437549,1.308766 3.726948,1.777021 0.671513,1.086532 11.639479,0.886114 13.400619,-0.244869 z M 85.277402,74.31292 c -0.956087,-0.250293 -2.756087,-0.259374 -4,-0.02018 -1.243912,0.239192 -0.461659,0.443977 1.738341,0.455077 2.2,0.0111 3.217747,-0.184605 2.261659,-0.434897 z m 35.507368,0.03114 c -0.67703,-0.273923 -2.02703,-0.290597 -3,-0.03705 -0.97297,0.253544 -0.41903,0.477663 1.23097,0.498042 1.65,0.02038 2.44606,-0.187065 1.76903,-0.460988 z"
     style="fill:#a76a58" />
  <path
     inkscape:connector-curvature="0"
     id="path1965"
     d="m 34.493186,193.25 c -0.68696,-3.7125 -2.10882,-9.57165 -3.159688,-13.02032 -1.050868,-3.44868 -1.682441,-6.63961 -1.403496,-7.09095 0.756592,-1.22419 16.90715,-5.16815 27.085741,-6.61432 3.974323,-0.56467 4.018465,-0.53448 6.876435,4.70364 2.391531,4.38321 12.146727,19.35394 17.495537,26.84937 C 82.730129,199.95858 82.253207,200 59.250946,200 H 35.742205 Z m 58.739551,3 c 0.32519,-2.0625 1.101598,-5.54106 1.725352,-7.73013 1.056927,-3.7093 0.961382,-4.12989 -1.404124,-6.18105 l -2.538222,-2.20092 3.952948,-4.06895 C 97.142812,173.83103 99.489654,172 100.18389,172 c 1.72252,0 8.33185,5.90868 8.33185,7.4486 0,0.68279 -0.9435,2.09528 -2.09667,3.13888 -2.1325,1.92989 -2.17686,4.79489 -0.22529,14.55273 L 106.76574,200 h -7.062126 -7.06213 z m 25.283003,3.31076 c 0,-0.24158 2.46463,-3.87442 5.47696,-8.07298 3.01233,-4.19856 7.81089,-11.53841 10.66346,-16.31076 2.85257,-4.77236 5.29361,-8.8202 5.42455,-8.9952 0.36428,-0.48688 18.28704,2.83169 23.93503,4.4318 7.75784,2.19784 7.91697,2.39077 6.18526,7.49878 -0.81812,2.41318 -2.26857,8.3251 -3.22322,13.1376 l -1.73573,8.75 h -23.36316 c -12.84973,0 -23.36315,-0.19766 -23.36315,-0.43924 z M 94.445092,155.67649 c -7.010199,-1.95741 -13.006894,-5.93552 -19.646181,-13.03294 -5.573319,-5.95789 -12.255601,-17.00445 -11.02858,-18.23147 0.286931,-0.28693 2.211571,1.54058 4.276978,4.06114 4.499799,5.49141 14.280547,13.40629 20.396042,16.50511 6.580997,3.33469 14.286299,3.70515 21.378449,1.02783 6.4391,-2.43078 18.82925,-11.86398 23.76008,-18.08966 1.74623,-2.2048 3.37968,-3.80401 3.62989,-3.55381 1.36254,1.36255 -5.97531,12.92685 -12.28972,19.36836 -10.53755,10.74966 -20.61444,14.69929 -30.476958,11.94544 z M 68.515743,105.07015 c -4.725666,-0.94493 -7.745737,-2.69368 -8.442337,-4.88847 -0.317782,-1.001241 -1.962436,-2.844157 -3.654787,-4.095366 -3.488105,-2.578867 -8.900896,-13.155859 -8.902087,-17.395331 -4.34e-4,-1.544959 0.387432,-2.569083 0.861924,-2.275831 0.474492,0.293252 0.256522,-2.04269 -0.484379,-5.190983 -0.740901,-3.148293 -1.354122,-8.905977 -1.362713,-12.794854 -0.0127,-5.750436 0.497863,-8.084455 2.734379,-12.5 C 50.778243,42.943192 52.445376,40.5 52.970484,40.5 c 0.525107,0 2.247326,-2.586692 3.827153,-5.748205 2.806094,-5.615493 9.910556,-13.714056 13.906887,-15.852827 1.79614,-0.961265 1.927989,-0.832033 1.290826,1.265205 -0.629482,2.071951 -0.301265,1.946518 2.905372,-1.11034 2.943709,-2.806211 3.615021,-3.102406 3.615021,-1.595012 0,1.787812 0.06843,1.789222 2,0.04118 1.933438,-1.749737 2.00125,-1.746575 2.037547,0.09501 0.02927,1.485063 0.797512,1.023249 3.485123,-2.095012 2.44185,-2.833121 3.451916,-3.48949 3.462453,-2.25 0.0082,0.9625 0.454413,1.75 0.991623,1.75 1.250133,0 8.691952,-9.3807999 9.525661,-12.0075957 0.75297,-2.37239644 2.32726,-2.59984928 3.15026,-0.4551481 0.32445,0.845491 2.07532,2.1579044 3.89083,2.9164744 1.81552,0.7585699 4.06016,2.5379409 4.9881,3.9541576 0.92794,1.4162168 2.10491,2.3167638 2.61547,2.0012148 0.51057,-0.315549 2.71265,1.038315 4.8935,3.008586 C 121.73717,16.38796 123.93568,18 124.4419,18 c 0.50621,0 2.39739,1.2375 4.20261,2.75 1.80521,1.5125 2.91044,2.142604 2.45604,1.400232 -0.66616,-1.088351 -0.42481,-1.134971 1.24613,-0.240711 2.50696,1.341688 10.14098,11.781921 10.23935,14.003271 0.0515,1.162172 0.29159,1.051631 0.89672,-0.412792 0.72239,-1.74819 1.08131,-1.433427 2.85069,2.5 1.11334,2.475 2.33415,6.183562 2.71292,8.24125 0.37878,2.057687 1.05138,3.517087 1.49469,3.243109 1.17694,-0.727388 2.9817,8.703397 2.9308,15.314862 -0.0241,3.135428 -0.67456,7.471023 -1.44538,9.634655 -0.77081,2.163632 -1.1533,4.335442 -0.84997,4.826246 1.09374,1.769706 -4.74552,15.484803 -7.72175,18.136632 -1.61645,1.440271 -2.93901,3.053646 -2.93901,3.585276 0,2.99409 -12.53516,5.68218 -21.04159,4.51225 -7.97318,-1.09659 -13.71823,-7.374836 -15.76557,-17.228747 C 103.06528,85.169302 102.49777,84.5 100.51574,84.5 c -1.982025,0 -2.549534,0.669302 -3.192836,3.765533 -1.03573,4.985001 -4.024343,10.6856 -7.113188,13.567977 -3.980601,3.71453 -12.756218,5.02381 -21.693973,3.23664 z m 17.96802,-3.55361 c 2.864073,-1.48107 7.171434,-9.008422 8.461905,-14.787645 0.86925,-3.892836 -2.700161,-7.192199 -9.315795,-8.610998 -6.474835,-1.388604 -8.717962,-1.396209 -14.991254,-0.05083 -7.314696,1.568721 -10.122876,4.597282 -10.122876,10.917302 0,6.309417 2.186498,11.75639 5.20557,12.96803 3.788208,1.52033 17.537773,1.23168 20.76245,-0.43586 z M 67.137587,90.394121 64.687329,86.788242 67.851536,84.030856 c 3.053668,-2.66106 3.405097,-2.727969 10.059765,-1.91531 9.205563,1.12417 10.152605,1.503067 10.333545,4.134296 0.147828,2.149722 0.09251,2.166441 -1.239262,0.374565 -0.766699,-1.031576 -2.776258,-2.036533 -4.465688,-2.233238 -2.563865,-0.298518 -2.861105,-0.130726 -1.797922,1.014928 0.924431,0.996138 1.475261,1.060105 2.008456,0.233238 0.404078,-0.626634 0.741578,0.296607 0.75,2.051648 0.0084,1.755041 -0.517318,3.520167 -1.168311,3.922503 -0.813671,0.502876 -0.579251,0.968193 0.75,1.488731 1.153031,0.45153 -1.180453,0.785586 -5.780325,0.827498 L 69.587845,94 Z m 7.808833,0.529278 c -1.779876,-1.96674 -1.790536,-2.231262 -0.201498,-5 C 76.376572,83.080412 76.363885,83 74.283684,83 c -2.216091,0 -6.767941,3.595221 -6.767941,5.345573 0,2.113945 3.444114,4.654427 6.309975,4.654427 2.973546,0 2.983429,-0.01831 1.120702,-2.076601 z m 60.62471,11.046961 c 3.05091,-1.6328 4.94461,-6.408002 4.94461,-12.468449 0,-4.738198 -0.39764,-5.965933 -2.59049,-7.998195 -5.39765,-5.002372 -22.03942,-5.597128 -28.99994,-1.036421 -5.44776,3.569512 -0.57158,18.409459 7.09043,21.578675 2.88674,1.19404 17.28707,1.13835 19.55539,-0.0756 z m -17.75229,-8.669912 c 1.42567,-0.369679 1.55862,-0.762135 0.63516,-1.87484 -0.64237,-0.77401 -0.9692,-2.761412 -0.7263,-4.416449 0.50064,-3.411079 0.10492,-3.619839 -2.88798,-1.52353 -1.80099,1.261463 -2.20226,1.273951 -2.65936,0.08276 -0.71832,-1.871907 1.22143,-2.499733 10.02161,-3.24362 7.10659,-0.600727 7.50252,-0.518112 10.28279,2.145553 l 2.89161,2.770337 -2.18031,3.367293 c -2.1687,3.349348 -2.22029,3.36674 -9.68032,3.263669 -4.125,-0.05699 -6.6886,-0.31402 -5.6969,-0.571173 z M 131.51574,90.5 133.86437,88 131.51574,85.5 c -2.34086,-2.491731 -6.36414,-3.337862 -7.45771,-1.568422 -0.31666,0.512368 0.39875,1.614144 1.58981,2.448392 2.0704,1.450168 2.09209,1.628925 0.49367,4.068422 C 124.51277,92.934167 124.53023,93 126.81837,93 c 1.29181,0 3.40562,-1.125 4.69737,-2.5 z M 108.30323,77.33615 c 1.80812,-0.806062 6.08312,-1.867016 9.5,-2.357674 5.98639,-0.859637 5.90313,-0.876838 -2.28749,-0.472611 -9.33793,0.460851 -9.25239,-1.022727 0.11784,-2.043852 4.02223,-0.438325 7.77362,0.04877 14.8468,1.927755 5.20556,1.382853 9.56745,2.411477 9.6931,2.28583 0.12564,-0.125647 -0.15507,-4.316851 -0.6238,-9.313787 -0.97738,-10.419284 -3.31078,-15.94571 -8.35822,-19.795581 -4.60413,-3.51174 -8.32716,-4.027356 -15.60922,-2.161777 -7.86997,2.016191 -22.965488,2.059581 -29.475428,0.08472 -8.68968,-2.636106 -10.97436,-2.131351 -17.022655,3.760824 -5.967094,5.813069 -7.079204,8.616784 -8.198118,20.668088 -0.572271,6.163663 -0.450435,7.326645 0.720482,6.877336 6.928435,-2.658607 19.756626,-4.919994 24.527966,-4.323855 8.2697,1.033231 7.327068,2.420962 -1.35683,1.99751 l -7.761914,-0.378491 6.233672,0.892316 c 3.42852,0.490774 7.47852,1.532165 9,2.314202 3.626577,1.864053 11.914825,1.884211 16.053815,0.03905 z"
     style="fill:#685f5b" />
  <path
     inkscape:connector-curvature="0"
     id="path1963"
     d="m 35.016537,195.75 c -0.712873,-4.48844 -4.097358,-18.53509 -5.087943,-21.11651 -0.450038,-1.17278 0.989742,-1.99363 6.251221,-3.56396 8.794789,-2.62487 24.741984,-5.35136 25.095577,-4.29058 0.759432,2.27829 9.672035,16.63746 14.472003,23.31596 3.002235,4.1772 5.779859,8.1147 6.172496,8.75 C 82.451971,199.70583 76.656373,200 59.162658,200 H 35.691539 Z m 58.499206,1.40893 c 0,-1.56259 0.669692,-5.05009 1.488206,-7.75 1.470743,-4.85133 1.458941,-4.93049 -1.005731,-6.74651 l -2.493937,-1.83758 1.979861,-2.78046 c 1.088924,-1.52925 3.131326,-3.53493 4.538673,-4.45706 2.432095,-1.59357 2.705835,-1.5719 5.527905,0.43759 1.633,1.16279 3.47876,3.0665 4.10169,4.23045 0.96157,1.79673 0.74686,2.44807 -1.42199,4.31364 -2.26713,1.9501 -2.46289,2.63246 -1.73969,6.06418 0.4482,2.12675 1.10757,5.55432 1.46527,7.61682 l 0.65037,3.75 h -6.54531 c -6.524541,0 -6.545317,-0.009 -6.545317,-2.84107 z M 119.11234,198.75 c 0.39304,-0.6875 2.84892,-4.175 5.45749,-7.75 4.46749,-6.12259 14.44194,-21.98809 15.13972,-24.08144 0.39791,-1.19373 15.69819,1.33236 25.14212,4.15097 5.63266,1.68111 6.71775,2.33861 6.16455,3.73535 -1.19995,3.02971 -4.3022,15.69006 -5.02389,20.50266 L 165.28865,200 h -23.44547 c -18.47085,0 -23.29385,-0.26522 -22.73084,-1.25 z M 94.445092,155.67649 c -6.957488,-1.9427 -13.042918,-5.95173 -19.310809,-12.7218 -4.600374,-4.96895 -11.61854,-16.09063 -11.61854,-18.41189 0,-0.28282 3.71389,3.19184 8.253088,7.72149 5.092493,5.08177 10.741139,9.57482 14.75,11.73246 5.790864,3.11674 7.311969,3.49458 13.996909,3.47682 5.91635,-0.0157 8.45019,-0.51813 12,-2.37935 6.0922,-3.19424 16.08505,-11.22646 21.04994,-16.91986 l 4.07624,-4.67436 -1.59547,4 c -4.03753,10.12245 -14.87188,21.89242 -24.03071,26.10594 -6.53547,3.00664 -11.9381,3.64329 -17.570648,2.07055 z M 63.334414,103.46401 c -1.474731,-0.80076 -2.941759,-2.27646 -3.260061,-3.27935 C 59.75605,99.18178 58.11097,97.337523 56.418619,96.086314 51.473842,92.430482 45.444917,77.940227 48.408079,76.833333 48.898863,76.65 48.6342,73.35 47.819939,69.5 45.879115,60.32338 46.583466,51.286608 49.713626,45.204115 c 1.331451,-2.587263 2.782539,-4.568021 3.224638,-4.401683 0.4421,0.166338 1.845634,-1.946222 3.118965,-4.694576 2.385925,-5.149773 8.770871,-12.76996 13.553319,-16.175363 l 2.718876,-1.93601 -0.549486,2.251758 C 71.269542,22.339816 71.463374,22.286588 74.5047,19.5 c 2.287616,-2.096007 3.416508,-2.604916 3.746355,-1.688869 0.364683,1.012789 0.9036,0.920636 2.368398,-0.404988 1.798533,-1.627649 1.898436,-1.617913 1.937917,0.188869 0.03285,1.503172 0.771095,1.078864 3.5,-2.011622 2.327737,-2.636164 3.458373,-3.37175 3.458373,-2.25 0,0.916636 0.414935,1.66661 0.922077,1.66661 1.314789,0 7.825583,-7.8086386 9.313455,-11.1699759 1.395835,-3.15342277 2.276835,-3.54314559 3.108755,-1.3752041 0.30705,0.8001511 2.36514,2.3766209 4.57355,3.5032663 2.20841,1.1266454 4.4872,2.9302191 5.06398,4.0079415 0.57678,1.0777222 1.65034,1.7286212 2.38569,1.4464412 0.73534,-0.282179 2.73973,1.084578 4.45419,3.037239 C 121.0519,16.402369 122.98841,18 123.6408,18 c 0.65239,0 2.69113,1.147901 4.53055,2.550891 1.83941,1.40299 3.34439,2.214715 3.34439,1.803833 0,-1.715433 7.36114,6.497256 9.5415,10.645276 1.62024,3.082416 2.39006,3.869963 2.44374,2.5 0.0761,-1.940758 0.12037,-1.944535 1.49636,-0.12753 0.77989,1.029858 2.20746,4.937129 3.17238,8.682824 0.96491,3.745696 2.06049,6.621173 2.43462,6.389951 1.1051,-0.682991 2.9114,7.994769 2.9114,13.986849 0,3.050549 -0.85669,7.801068 -1.90375,10.556709 -1.04706,2.755641 -1.49706,4.75891 -1,4.45171 2.94736,-1.82157 -3.56952,14.449871 -7.15319,17.860173 -1.61868,1.540377 -2.94306,3.216324 -2.94306,3.724324 0,0.50799 -1.40387,1.6496 -3.11971,2.53689 -2.42999,1.2566 -5.39736,1.53863 -13.42197,1.27568 C 114.60835,104.53069 113.42858,104.27273 110.99645,102 107.74684,98.96337 104.76288,93.339905 103.70858,88.265533 103.06753,85.180136 102.49455,84.5 100.53632,84.5 c -2.011857,0 -2.580137,0.745785 -3.592657,4.71486 -1.632543,6.399565 -4.380102,10.8363 -8.379869,13.53174 -2.906227,1.95851 -4.600403,2.24816 -12.945934,2.21336 -6.444395,-0.0269 -10.48389,-0.51882 -12.283446,-1.49595 z m 23.583795,-2.28163 C 92.297102,98.064569 96.655175,86.388266 93.969765,82.2896 92.282878,79.714951 84.094284,77 78.015743,77 c -5.979845,0 -14.172721,2.694657 -15.962665,5.250159 -2.908146,4.151961 -1.231615,16.96665 2.523341,19.287341 4.502318,2.78259 17.278933,2.5795 22.34179,-0.35512 z M 68.096045,91.218575 66.176347,88.5 l 2.419698,2.183471 c 1.500933,1.354402 4.128358,2.332246 6.919698,2.575293 l 4.5,0.391822 -5,0.143282 C 70.631317,93.91951 69.7794,93.602453 68.096045,91.218575 Z M 67.41334,85.25 c 2.075806,-3.013667 2.615409,-3.237296 7.420497,-3.075293 l 5.181906,0.174707 -4.5,0.389072 c -3.124891,0.270179 -5.392445,1.209927 -7.420497,3.075293 L 65.174748,88.5 Z M 85.949076,85.080398 C 85.435743,84.59295 84.115743,83.977651 83.015743,83.713066 l -2,-0.481063 2,-0.100689 c 2.226254,-0.112079 5.241253,1.460767 4.404373,2.297646 -0.295738,0.295739 -0.957706,0.138886 -1.47104,-0.348562 z m 50.341444,16.331522 c 3.0497,-1.998244 4.22522,-5.343719 4.22522,-12.024769 0,-4.593332 -0.41392,-5.866256 -2.55181,-7.847589 -6.96223,-6.452374 -27.73833,-5.471495 -31.46153,1.485358 -1.34454,2.512303 -0.0882,7.419784 3.44149,13.442689 2.45888,4.195761 3.91748,5.105441 11.07185,6.905181 3.38615,0.85181 12.83291,-0.3609 15.27478,-1.96087 z m -11.04538,-8.148447 c 3.97323,-0.27851 5.59467,-0.888057 6.75,-2.537524 0.83633,-1.194029 1.5206,-1.690578 1.5206,-1.103443 0,2.556767 -3.72072,4.375117 -8.57874,4.192512 l -4.92126,-0.184983 z M 114.01574,84 c 1.1,-0.472686 2.675,-0.859429 3.5,-0.859429 0.94548,0 0.76064,0.317714 -0.5,0.859429 -1.1,0.472686 -2.675,0.859429 -3.5,0.859429 -0.94548,0 -0.76064,-0.317714 0.5,-0.859429 z m 8.75,-1.689326 c 0.9625,-0.251527 2.5375,-0.251527 3.5,0 0.9625,0.251528 0.175,0.457323 -1.75,0.457323 -1.925,0 -2.7125,-0.205795 -1.75,-0.457323 z M 108.47385,77.37101 c 1.79596,-0.895944 6.7026,-1.988197 10.90364,-2.427228 l 7.63825,-0.79824 -9.18852,0.232266 c -9.66587,0.244332 -11.61088,-0.751164 -3.56036,-1.822269 4.84827,-0.645052 9.17975,-0.02412 19.67452,2.82041 3.2591,0.883356 6.046,1.485748 6.19309,1.33865 0.1471,-0.147098 -0.11606,-4.355852 -0.58479,-9.352788 -0.98125,-10.460602 -3.31108,-15.94594 -8.43175,-19.851664 -4.54232,-3.4646 -9.13679,-4.078068 -15.8739,-2.119537 -7.06277,2.053203 -22.521554,2.105497 -29.137218,0.09857 -8.68968,-2.63611 -10.97436,-2.131355 -17.022655,3.76082 -3.658222,3.563795 -5.729602,6.534728 -6.449242,9.25 -1.144135,4.316933 -2.671821,18.5 -1.992672,18.5 0.227534,0 3.779654,-0.96762 7.893599,-2.150267 8.123252,-2.335213 21.216366,-3.013268 23.036632,-1.193002 0.801567,0.801567 -1.437051,1.01535 -8.227778,0.785736 l -9.328953,-0.315438 7.552052,0.800833 c 4.153628,0.440458 8.878628,1.518859 10.5,2.396448 3.846864,2.082165 12.277765,2.106164 16.406055,0.0467 z"
     style="fill:#662663" />
  <path
     inkscape:connector-curvature="0"
     id="path1961"
     d="m 35.052019,195.39334 c -0.674226,-4.49606 -3.884877,-17.53225 -5.094024,-20.68323 -0.731503,-1.90627 7.827294,-4.8092 19.557748,-6.63352 4.125,-0.64151 8.45983,-1.36654 9.632956,-1.61117 1.65667,-0.34545 2.431939,0.27864 3.471895,2.7949 0.736416,1.78183 5.491423,9.42718 10.566682,16.98968 8.554372,12.74663 9.048987,13.75 6.778105,13.75 -1.397318,0 -2.449638,-0.58355 -2.449638,-1.35842 0,-1.55712 -10.474849,-8.8334 -11.393699,-7.91455 -0.333465,0.33347 -0.606301,2.5563 -0.606301,4.93964 0,3.86208 -0.251529,4.33333 -2.312909,4.33333 -1.2721,0 -3.606291,-1.35 -5.187091,-3 -1.5808,-1.65 -3.183741,-3 -3.562091,-3 -0.37835,0 -0.957909,1.35 -1.287909,3 -0.525596,2.62798 -1.021938,3 -4.002555,3 -1.871406,0 -3.986354,-0.70343 -4.699886,-1.56319 -1.176491,-1.41758 -1.378815,-1.41758 -2.172135,0 C 41.810025,199.29657 40.139818,200 38.579597,200 c -2.605185,0 -2.893161,-0.37607 -3.527578,-4.60666 z M 43.529398,191.25 c 0.0075,-2.0625 0.266835,-4.69306 0.576278,-5.84569 0.508796,-1.89519 1.020768,-1.61542 5.351201,2.92413 l 4.788576,5.01983 0.727721,-6.79536 0.727721,-6.79536 4.88438,4.81094 c 2.686409,2.64601 5.131155,4.56416 5.432769,4.26254 0.301614,-0.30161 0.24931,-3.19948 -0.116232,-6.43971 -0.599469,-5.31379 -1.116617,-6.33068 -5.275346,-10.37317 l -4.610723,-4.48184 -0.5,5.93044 -0.5,5.93043 -4.262114,-4.85314 c -2.344163,-2.66923 -4.424118,-4.6711 -4.622122,-4.44859 -0.198005,0.2225 -0.755053,3.09544 -1.237886,6.3843 l -0.877878,5.97976 -3.989499,-5.44 -3.9895,-5.43999 -0.702871,3.96024 c -1.439888,8.11287 -0.999567,10.53284 2.74882,15.10725 1.961822,2.39414 3.986822,4.35299 4.5,4.35299 0.513177,0 0.939195,-1.6875 0.946705,-3.75 z m 49.986345,5.90893 c 0,-1.56259 0.669692,-5.05009 1.488206,-7.75 1.470743,-4.85133 1.458941,-4.93049 -1.005731,-6.74651 l -2.493937,-1.83758 1.979861,-2.78046 c 1.088924,-1.52925 3.131326,-3.53493 4.538673,-4.45706 2.432095,-1.59357 2.705835,-1.5719 5.527905,0.43759 1.633,1.16279 3.47876,3.0665 4.10169,4.23045 0.96157,1.79673 0.74686,2.44807 -1.42199,4.31364 -2.26713,1.9501 -2.46289,2.63246 -1.73969,6.06418 0.4482,2.12675 1.10757,5.55432 1.46527,7.61682 l 0.65037,3.75 h -6.54531 c -6.524541,0 -6.545317,-0.009 -6.545317,-2.84107 z M 119.89437,197.75 c 5.47276,-7.58899 16.71066,-24.86939 18.18819,-27.96779 1.95716,-4.10423 0.67717,-4.01437 15.81162,-1.11002 13.30878,2.554 17.88891,4.19704 17.11881,6.14111 -1.19706,3.02194 -4.29982,15.68733 -5.02066,20.49424 -0.65338,4.35704 -0.91225,4.69246 -3.62152,4.69246 -1.70742,0 -3.16349,-0.64016 -3.51001,-1.54317 -0.52912,-1.37887 -0.782,-1.37138 -2.37508,0.0703 -1.09821,0.99388 -3.06691,1.49049 -5.12644,1.29317 -2.80828,-0.26905 -3.3942,-0.76057 -3.65996,-3.07033 -0.17403,-1.5125 -0.56463,-2.75 -0.86799,-2.75 -0.30336,0 -2.08913,1.35 -3.96837,3 -4.74591,4.16697 -7.34722,4.0189 -7.34722,-0.41821 0,-6.56759 -0.63343,-6.84561 -6.58839,-2.89174 -2.97638,1.97621 -5.41161,4.2044 -5.41161,4.95153 0,0.79917 -1.07945,1.35842 -2.62197,1.35842 -2.53318,0 -2.56703,-0.0762 -0.9994,-2.25 z M 166.43754,183 c -0.0204,-1.925 -0.35335,-5.28211 -0.73993,-7.46024 l -0.70287,-3.96024 -3.9895,5.44742 -3.9895,5.44742 -0.88955,-6.23718 C 155.63694,172.80673 154.94473,170 154.58795,170 c -0.35677,0 -2.43148,2.1375 -4.61045,4.75 l -3.96176,4.75 -0.5,-5.98185 -0.5,-5.98184 -4.62462,4.48184 c -4.13975,4.01195 -4.69884,5.09354 -5.33248,10.31604 -0.38932,3.20881 -0.43537,6.10668 -0.10233,6.43971 0.33303,0.33304 2.78847,-1.5446 5.45652,-4.17253 l 4.85099,-4.77806 0.73308,6.83835 0.73307,6.83834 4.78788,-5.20555 c 4.42274,-4.80857 4.83297,-5.03735 5.37923,-3 0.32524,1.21305 0.61478,4.23055 0.64343,6.70555 l 0.0521,4.5 4.44101,-5 c 3.49242,-3.932 4.4331,-5.7476 4.40395,-8.5 z M 94.445092,155.67649 c -6.957488,-1.9427 -13.042918,-5.95173 -19.310809,-12.7218 -4.600374,-4.96895 -11.61854,-16.09063 -11.61854,-18.41189 0,-0.28282 3.71389,3.19184 8.253088,7.72149 5.092493,5.08177 10.741139,9.57482 14.75,11.73246 5.790864,3.11674 7.311969,3.49458 13.996909,3.47682 5.91635,-0.0157 8.45019,-0.51813 12,-2.37935 6.0922,-3.19424 16.08505,-11.22646 21.04994,-16.91986 l 4.07624,-4.67436 -1.59547,4 c -4.03753,10.12245 -14.87188,21.89242 -24.03071,26.10594 -6.53547,3.00664 -11.9381,3.64329 -17.570648,2.07055 z M 63.334414,103.46401 c -1.474731,-0.80076 -2.941759,-2.27646 -3.260061,-3.27935 C 59.75605,99.18178 58.11097,97.337523 56.418619,96.086314 51.473842,92.430482 45.444917,77.940227 48.408079,76.833333 48.898863,76.65 48.6342,73.35 47.819939,69.5 45.879115,60.32338 46.583466,51.286608 49.713626,45.204115 c 1.331451,-2.587263 2.782539,-4.568021 3.224638,-4.401683 0.4421,0.166338 1.845634,-1.946222 3.118965,-4.694576 2.385925,-5.149773 8.770871,-12.76996 13.553319,-16.175363 l 2.718876,-1.93601 -0.549486,2.251758 C 71.269542,22.339816 71.463374,22.286588 74.5047,19.5 c 2.287616,-2.096007 3.416508,-2.604916 3.746355,-1.688869 0.364683,1.012789 0.9036,0.920636 2.368398,-0.404988 1.798533,-1.627649 1.898436,-1.617913 1.937917,0.188869 0.03285,1.503172 0.771095,1.078864 3.5,-2.011622 2.327737,-2.636164 3.458373,-3.37175 3.458373,-2.25 0,0.916636 0.414935,1.66661 0.922077,1.66661 1.314789,0 7.825583,-7.8086386 9.313455,-11.1699759 1.395835,-3.15342277 2.276835,-3.54314559 3.108755,-1.3752041 0.30705,0.8001511 2.36514,2.3766209 4.57355,3.5032663 2.20841,1.1266454 4.4872,2.9302191 5.06398,4.0079415 0.57678,1.0777222 1.65034,1.7286212 2.38569,1.4464412 0.73534,-0.282179 2.73973,1.084578 4.45419,3.037239 C 121.0519,16.402369 122.98841,18 123.6408,18 c 0.65239,0 2.69113,1.147901 4.53055,2.550891 1.83941,1.40299 3.34439,2.214715 3.34439,1.803833 0,-1.715433 7.36114,6.497256 9.5415,10.645276 1.62024,3.082416 2.39006,3.869963 2.44374,2.5 0.0761,-1.940758 0.12037,-1.944535 1.49636,-0.12753 0.77989,1.029858 2.20746,4.937129 3.17238,8.682824 0.96491,3.745696 2.06049,6.621173 2.43462,6.389951 1.1051,-0.682991 2.9114,7.994769 2.9114,13.986849 0,3.050549 -0.85669,7.801068 -1.90375,10.556709 -1.04706,2.755641 -1.49706,4.75891 -1,4.45171 2.94736,-1.82157 -3.56952,14.449871 -7.15319,17.860173 -1.61868,1.540377 -2.94306,3.216324 -2.94306,3.724324 0,0.50799 -1.40387,1.6496 -3.11971,2.53689 -2.42999,1.2566 -5.39736,1.53863 -13.42197,1.27568 C 114.60835,104.53069 113.42858,104.27273 110.99645,102 107.74684,98.96337 104.76288,93.339905 103.70858,88.265533 103.06753,85.180136 102.49455,84.5 100.53632,84.5 c -2.011857,0 -2.580137,0.745785 -3.592657,4.71486 -1.632543,6.399565 -4.380102,10.8363 -8.379869,13.53174 -2.906227,1.95851 -4.600403,2.24816 -12.945934,2.21336 -6.444395,-0.0269 -10.48389,-0.51882 -12.283446,-1.49595 z m 23.583795,-2.28163 C 92.297102,98.064569 96.655175,86.388266 93.969765,82.2896 92.282878,79.714951 84.094284,77 78.015743,77 c -5.979845,0 -14.172721,2.694657 -15.962665,5.250159 -2.908146,4.151961 -1.231615,16.96665 2.523341,19.287341 4.502318,2.78259 17.278933,2.5795 22.34179,-0.35512 z M 68.096045,91.218575 66.176347,88.5 l 2.419698,2.183471 c 1.500933,1.354402 4.128358,2.332246 6.919698,2.575293 l 4.5,0.391822 -5,0.143282 C 70.631317,93.91951 69.7794,93.602453 68.096045,91.218575 Z M 67.41334,85.25 c 2.075806,-3.013667 2.615409,-3.237296 7.420497,-3.075293 l 5.181906,0.174707 -4.5,0.389072 c -3.124891,0.270179 -5.392445,1.209927 -7.420497,3.075293 L 65.174748,88.5 Z M 85.949076,85.080398 C 85.435743,84.59295 84.115743,83.977651 83.015743,83.713066 l -2,-0.481063 2,-0.100689 c 2.226254,-0.112079 5.241253,1.460767 4.404373,2.297646 -0.295738,0.295739 -0.957706,0.138886 -1.47104,-0.348562 z m 50.341444,16.331522 c 3.0497,-1.998244 4.22522,-5.343719 4.22522,-12.024769 0,-4.593332 -0.41392,-5.866256 -2.55181,-7.847589 -6.96223,-6.452374 -27.73833,-5.471495 -31.46153,1.485358 -1.34454,2.512303 -0.0882,7.419784 3.44149,13.442689 2.45888,4.195761 3.91748,5.105441 11.07185,6.905181 3.38615,0.85181 12.83291,-0.3609 15.27478,-1.96087 z m -11.04538,-8.148447 c 3.97323,-0.27851 5.59467,-0.888057 6.75,-2.537524 0.83633,-1.194029 1.5206,-1.690578 1.5206,-1.103443 0,2.556767 -3.72072,4.375117 -8.57874,4.192512 l -4.92126,-0.184983 z M 114.01574,84 c 1.1,-0.472686 2.675,-0.859429 3.5,-0.859429 0.94548,0 0.76064,0.317714 -0.5,0.859429 -1.1,0.472686 -2.675,0.859429 -3.5,0.859429 -0.94548,0 -0.76064,-0.317714 0.5,-0.859429 z m 8.75,-1.689326 c 0.9625,-0.251527 2.5375,-0.251527 3.5,0 0.9625,0.251528 0.175,0.457323 -1.75,0.457323 -1.925,0 -2.7125,-0.205795 -1.75,-0.457323 z M 108.47385,77.37101 c 1.79596,-0.895944 6.7026,-1.988197 10.90364,-2.427228 l 7.63825,-0.79824 -9.18852,0.232266 c -9.66587,0.244332 -11.61088,-0.751164 -3.56036,-1.822269 4.84827,-0.645052 9.17975,-0.02412 19.67452,2.82041 3.2591,0.883356 6.046,1.485748 6.19309,1.33865 0.1471,-0.147098 -0.11606,-4.355852 -0.58479,-9.352788 -0.98125,-10.460602 -3.31108,-15.94594 -8.43175,-19.851664 -4.54232,-3.4646 -9.13679,-4.078068 -15.8739,-2.119537 -7.06277,2.053203 -22.521554,2.105497 -29.137218,0.09857 -8.68968,-2.63611 -10.97436,-2.131355 -17.022655,3.76082 -3.658222,3.563795 -5.729602,6.534728 -6.449242,9.25 -1.144135,4.316933 -2.671821,18.5 -1.992672,18.5 0.227534,0 3.779654,-0.96762 7.893599,-2.150267 8.123252,-2.335213 21.216366,-3.013268 23.036632,-1.193002 0.801567,0.801567 -1.437051,1.01535 -8.227778,0.785736 l -9.328953,-0.315438 7.552052,0.800833 c 4.153628,0.440458 8.878628,1.518859 10.5,2.396448 3.846864,2.082165 12.277765,2.106164 16.406055,0.0467 z"
     style="fill:#66493b" />
  <path
     inkscape:connector-curvature="0"
     id="path1959"
     d="m 35.052019,195.39334 c -0.674226,-4.49606 -3.884877,-17.53225 -5.094024,-20.68323 -0.731503,-1.90627 7.827294,-4.8092 19.557748,-6.63352 4.125,-0.64151 8.45983,-1.36654 9.632956,-1.61117 1.65667,-0.34545 2.431939,0.27864 3.471895,2.7949 0.736416,1.78183 5.491423,9.42718 10.566682,16.98968 8.554372,12.74663 9.048987,13.75 6.778105,13.75 -1.397318,0 -2.449638,-0.58355 -2.449638,-1.35842 0,-1.55712 -10.474849,-8.8334 -11.393699,-7.91455 -0.333465,0.33347 -0.606301,2.5563 -0.606301,4.93964 0,3.86208 -0.251529,4.33333 -2.312909,4.33333 -1.2721,0 -3.606291,-1.35 -5.187091,-3 -1.5808,-1.65 -3.183741,-3 -3.562091,-3 -0.37835,0 -0.957909,1.35 -1.287909,3 -0.525596,2.62798 -1.021938,3 -4.002555,3 -1.871406,0 -3.986354,-0.70343 -4.699886,-1.56319 -1.176491,-1.41758 -1.378815,-1.41758 -2.172135,0 C 41.810025,199.29657 40.139818,200 38.579597,200 c -2.605185,0 -2.893161,-0.37607 -3.527578,-4.60666 z M 43.529398,191.25 c 0.0075,-2.0625 0.266835,-4.69306 0.576278,-5.84569 0.508796,-1.89519 1.020768,-1.61542 5.351201,2.92413 l 4.788576,5.01983 0.727721,-6.79536 0.727721,-6.79536 4.88438,4.81094 c 2.686409,2.64601 5.131155,4.56416 5.432769,4.26254 0.301614,-0.30161 0.24931,-3.19948 -0.116232,-6.43971 -0.599469,-5.31379 -1.116617,-6.33068 -5.275346,-10.37317 l -4.610723,-4.48184 -0.5,5.93044 -0.5,5.93043 -4.262114,-4.85314 c -2.344163,-2.66923 -4.424118,-4.6711 -4.622122,-4.44859 -0.198005,0.2225 -0.755053,3.09544 -1.237886,6.3843 l -0.877878,5.97976 -3.989499,-5.44 -3.9895,-5.43999 -0.702871,3.96024 c -1.439888,8.11287 -0.999567,10.53284 2.74882,15.10725 1.961822,2.39414 3.986822,4.35299 4.5,4.35299 0.513177,0 0.939195,-1.6875 0.946705,-3.75 z m 49.986345,5.90893 c 0,-1.56259 0.669692,-5.05009 1.488206,-7.75 1.470743,-4.85133 1.458941,-4.93049 -1.005731,-6.74651 l -2.493937,-1.83758 1.979861,-2.78046 c 1.088924,-1.52925 3.131326,-3.53493 4.538673,-4.45706 2.432095,-1.59357 2.705835,-1.5719 5.527905,0.43759 1.633,1.16279 3.47876,3.0665 4.10169,4.23045 0.96318,1.79972 0.74385,2.45066 -1.46628,4.35174 l -2.59887,2.23545 1.44687,6.82873 c 0.79579,3.75579 1.4547,7.16622 1.46425,7.57872 0.01,0.4125 -2.90764,0.75 -6.48264,0.75 -6.47475,0 -6.499997,-0.011 -6.499997,-2.84107 z M 119.89437,197.75 c 5.47276,-7.58899 16.71066,-24.86939 18.18819,-27.96779 1.95716,-4.10423 0.67717,-4.01437 15.81162,-1.11002 13.30878,2.554 17.88891,4.19704 17.11881,6.14111 -1.19706,3.02194 -4.29982,15.68733 -5.02066,20.49424 -0.65338,4.35704 -0.91225,4.69246 -3.62152,4.69246 -1.70742,0 -3.16349,-0.64016 -3.51001,-1.54317 -0.52912,-1.37887 -0.782,-1.37138 -2.37508,0.0703 -1.09821,0.99388 -3.06691,1.49049 -5.12644,1.29317 -2.80828,-0.26905 -3.3942,-0.76057 -3.65996,-3.07033 -0.17403,-1.5125 -0.56463,-2.75 -0.86799,-2.75 -0.30336,0 -2.08913,1.35 -3.96837,3 -4.74591,4.16697 -7.34722,4.0189 -7.34722,-0.41821 0,-6.56759 -0.63343,-6.84561 -6.58839,-2.89174 -2.97638,1.97621 -5.41161,4.2044 -5.41161,4.95153 0,0.79917 -1.07945,1.35842 -2.62197,1.35842 -2.53318,0 -2.56703,-0.0762 -0.9994,-2.25 z M 166.43754,183 c -0.0204,-1.925 -0.35335,-5.28211 -0.73993,-7.46024 l -0.70287,-3.96024 -3.9895,5.44742 -3.9895,5.44742 -0.88955,-6.23718 C 155.63694,172.80673 154.94473,170 154.58795,170 c -0.35677,0 -2.43148,2.1375 -4.61045,4.75 l -3.96176,4.75 -0.5,-5.98185 -0.5,-5.98184 -4.62462,4.48184 c -4.13975,4.01195 -4.69884,5.09354 -5.33248,10.31604 -0.38932,3.20881 -0.43537,6.10668 -0.10233,6.43971 0.33303,0.33304 2.78847,-1.5446 5.45652,-4.17253 l 4.85099,-4.77806 0.73308,6.83835 0.73307,6.83834 4.78788,-5.20555 c 4.42274,-4.80857 4.83297,-5.03735 5.37923,-3 0.32524,1.21305 0.61478,4.23055 0.64343,6.70555 l 0.0521,4.5 4.44101,-5 c 3.49242,-3.932 4.4331,-5.7476 4.40395,-8.5 z M 94.548649,155.39715 c -9.831405,-2.63858 -20.31707,-11.1782 -26.291168,-21.41178 -5.579375,-9.55741 -4.798603,-9.8978 3.592011,-1.56601 9.979127,9.90917 18.300663,14.63342 27.66243,15.70434 l 6.503818,0.74398 -6.999997,-0.28593 c -8.187934,-0.33446 -14.366572,-3.05095 -21.75,-9.56258 -6.950389,-6.12972 -5.802145,-3.34651 1.520184,3.68476 8.515336,8.17684 13.514933,10.63568 21.729813,10.6869 8.5387,0.0532 15.31262,-3.40441 23.75,-12.12282 6.29756,-6.50732 8.64601,-10.72899 3.4518,-6.2051 -1.53901,1.3404 -0.8882,0.5227 1.44624,-1.81712 2.33444,-2.33981 4.94364,-5.25244 5.7982,-6.4725 2.84499,-4.06179 1.66987,0.49063 -1.6073,6.22671 -6.38085,11.16849 -19.88651,21.7171 -29.83894,23.30574 -1.925,0.30727 -5.960189,-0.10159 -8.967091,-0.90859 z M 72.515743,134.62244 c 0,-0.20765 -0.7875,-0.99515 -1.75,-1.75 -1.586056,-1.24387 -1.621426,-1.2085 -0.377555,0.37756 1.306369,1.66575 2.127555,2.19548 2.127555,1.37244 z m 36.864807,11.83842 c 1.85065,-0.80347 3.65065,-1.44491 4,-1.42542 1.30105,0.0726 -4.42369,2.89354 -5.86481,2.88998 -0.825,-0.002 0.0142,-0.66109 1.86481,-1.46456 z m 5.63519,-2.12393 c 2.5551,-2.42037 8.83282,-6.51425 7.31709,-4.77169 -0.9256,1.06412 -3.1756,2.7862 -5,3.82686 -1.8244,1.04065 -2.86709,1.46582 -2.31709,0.94483 z M 65.515743,104.29377 c -2.357416,-0.86176 -6,-4.504027 -6,-5.999469 0,-0.746389 -0.7875,-1.658564 -1.75,-2.027056 -2.484952,-0.951361 -5.274567,-4.529409 -4.731821,-6.069183 0.252402,-0.716066 0.0061,-1.022113 -0.547233,-0.680106 C 51.197135,90.314945 47.523711,82.286999 47.673887,79 c 0.08961,-1.961286 0.201012,-2.069029 0.516992,-0.5 0.346714,1.721635 5.112441,5.045757 5.98419,4.174007 0.167764,-0.167764 -0.585156,-3.417831 -1.673157,-7.222372 C 49.69892,65.650083 49.021587,57.228342 50.530425,50.938799 l 1.267916,-5.285266 2.313513,4.423233 2.313514,4.423234 0.06892,-5 c 0.07392,-5.362782 3.23717,-14.185466 6.961011,-19.415118 1.253243,-1.760018 2.081307,-3.397349 1.840142,-3.638514 -0.77357,-0.77357 -4.62052,3.948537 -7.806293,9.582174 -3.010716,5.324072 -3.201898,3.381749 -0.239749,-2.435747 1.809148,-3.553066 9.92558,-12.354654 12.724455,-13.7986 1.493704,-0.770605 1.252314,-0.21211 -0.899137,2.080299 -2.58849,2.758084 -2.909145,3.762523 -2.675084,8.379609 0.306913,6.054173 1.55587,8.114195 2.540648,4.190528 0.37296,-1.485991 1.780012,-4.323398 3.126784,-6.305351 l 2.448678,-3.603549 0.07013,4.482134 0.07013,4.482135 1.801573,-5.288367 c 2.646304,-7.768007 2.827197,-7.756048 4.361847,0.288367 0.322582,1.690932 0.562844,1.536398 1.554752,-1 2.943471,-7.526726 2.669152,-7.314242 4.606387,-3.568043 l 1.768159,3.419243 1.280678,-3.045836 c 0.704373,-1.67521 3.118335,-4.522617 5.36436,-6.327572 2.246025,-1.804955 4.366497,-4.172807 4.712161,-5.261892 1.08367,-3.4143488 2.37764,0.182757 2.39452,6.656545 0.0133,5.108732 0.21062,5.710356 1.51708,4.626088 0.82597,-0.685497 2.35975,-4.003097 3.4084,-7.372445 L 109.33255,10.5 111.40218,15 c 1.1383,2.475 2.11115,5.625 2.16188,7 0.0507,1.375 0.45906,3.4 0.90738,4.5 0.87694,2.151636 0.6988,2.571863 2.95276,-6.9656 0.65445,-2.769253 0.96206,-2.356963 4.64619,6.227171 2.16994,5.056024 4.26039,9.203044 4.64545,9.2156 0.38505,0.01256 0.83505,-2.531594 1,-5.653666 l 0.2999,-5.676494 2.91534,4.218827 c 1.60343,2.320355 3.48556,6.337277 4.1825,8.926494 1.1578,4.301349 1.273,4.42716 1.33467,1.457668 0.0371,-1.7875 0.41796,-3.25 0.84631,-3.25 0.86555,0 5.04917,14.796268 5.5136,19.5 0.27221,2.75691 0.42155,2.59865 1.84299,-1.953094 l 1.54678,-4.953094 0.6805,6.641987 c 0.37427,3.653093 0.44263,8.581985 0.15192,10.953094 L 146.50178,69.5 l 1.46187,-3 c 1.28556,-2.63816 1.46732,-2.733145 1.50699,-0.787513 0.0248,1.216868 -0.81295,4.591868 -1.86167,7.5 -1.04873,2.908132 -2.21012,7.060318 -2.58088,9.227079 -0.58828,3.437994 -0.48211,3.78023 0.83385,2.688077 1.24579,-1.033915 1.18068,-0.170599 -0.37449,4.965803 -2.29566,7.582042 -1.12955,6.623175 1.91569,-1.57523 1.38235,-3.721563 1.82641,-6.113612 1.17524,-6.330671 -0.70599,-0.235329 -0.72427,-0.951278 -0.0562,-2.199653 2.26083,-4.224401 4.09395,-15.33593 3.41997,-20.730293 -0.42274,-3.383492 -0.98803,-4.966973 -1.48571,-4.161722 -0.56982,0.922 -0.95198,0.588305 -1.31474,-1.148032 C 145.86337,38.256313 144.65044,35.033614 144.45673,41.5 l -0.11982,4 -1.30036,-4.724049 c -1.4986,-5.444257 -5.36705,-12.421838 -8.41717,-15.182156 -2.49405,-2.257091 -2.65702,-1.564603 -0.57796,2.455865 C 134.88054,29.672347 135.3421,31 135.0671,31 c -0.275,0 -1.15408,-1.264854 -1.95351,-2.810787 C 131.57868,25.221036 125.66402,19 124.37693,19 c -0.41753,0 -0.1071,1.560547 0.68984,3.467881 2.11487,5.061608 1.68986,5.661946 -0.73069,1.032119 -1.1502,-2.2 -3.4294,-5.8 -5.0649,-8 l -2.97362,-4 3.09499,3.25 c 1.70225,1.7875 3.62136,3.25 4.2647,3.25 0.64334,0 2.67468,1.147901 4.5141,2.550891 1.83941,1.40299 3.34439,2.218799 3.34439,1.812909 0,-1.634885 6.37979,5.446893 8.98718,9.976062 1.71364,2.976695 2.99303,4.324065 3.3234,3.5 0.86656,-2.161521 2.4138,0.793778 4.36792,8.342963 0.95143,3.675553 2.05003,6.484952 2.44134,6.243109 1.01598,-0.627907 2.88614,8.81203 2.84751,14.373287 -0.018,2.585428 -0.84441,7.050294 -1.83656,9.921924 -0.99216,2.87163 -1.44096,5.34663 -0.99733,5.5 0.44362,0.15337 -0.30771,3.344496 -1.66963,7.091391 -1.82747,5.027736 -3.81343,8.171588 -7.58035,12 l -5.10415,5.187464 -9.76561,0.33983 C 112.44391,105.32999 108.33971,102.59458 104.4894,90.150357 103.05043,85.499622 102.34744,84.5 100.51574,84.5 c -1.831699,0 -2.534691,0.999622 -3.973653,5.650357 -2.109439,6.817718 -5.191649,11.366643 -9.055522,13.364733 -2.836109,1.46661 -18.564086,2.02403 -21.970822,0.77868 z m 21.632572,-2.97259 c 5.104148,-3.344368 9.908314,-15.759599 7.309844,-18.890565 -3.662772,-4.41337 -16.503115,-6.730351 -24.807368,-4.476374 -6.845169,1.857945 -9.135789,4.805549 -9.13131,11.750304 0.0046,7.191539 2.511662,11.789525 7.208174,13.220085 4.349211,1.32478 16.480232,0.32319 19.42066,-1.60345 z M 68.920731,91.75 c -1.890408,-2.23278 -1.889667,-2.237139 0.09682,-0.569625 1.100993,0.924206 4.025993,1.858088 6.5,2.075293 l 4.498192,0.394918 -4.595012,0.174707 c -3.665097,0.139351 -4.980535,-0.280637 -6.5,-2.075293 z m -0.967897,-6.5 c 2.474985,-2.738662 3.576328,-3.223552 7,-3.081897 l 4.062909,0.168103 -4,0.399319 c -2.512934,0.250865 -5.1153,1.396611 -7,3.081897 l -3,2.682578 z m 16.562909,-0.833306 c -1.681352,-0.932956 -1.967042,-1.392038 -0.872445,-1.401952 0.895156,-0.0081 2.187756,0.660258 2.872445,1.485258 1.460276,1.759525 1.309817,1.753258 -2,-0.08331 z m 52.953387,16.084456 c 2.05568,-2.055679 2.5472,-3.668685 2.87257,-9.426804 0.35837,-6.34223 0.17546,-7.163835 -2.10177,-9.441061 -6.36656,-6.366564 -26.13418,-5.868837 -31.66661,0.79733 -1.67337,2.016289 -0.0199,9.084759 3.38798,14.483146 3.43299,5.438209 8.71626,7.241259 19.04112,6.498249 4.68663,-0.33727 6.52523,-0.96938 8.46671,-2.91086 z m -11.97301,-7.244612 c 2.46421,-0.216726 5.16421,-0.925608 6,-1.575293 1.32751,-1.031914 1.34612,-0.960013 0.14718,0.568755 -0.99866,1.273386 -2.63277,1.702418 -6,1.575293 l -4.62756,-0.174707 z m -9.16788,-9.939652 c 0.72187,-0.288871 1.58437,-0.253344 1.91667,0.07895 0.33229,0.332292 -0.25834,0.568641 -1.3125,0.52522 -1.16495,-0.04798 -1.4019,-0.284941 -0.60417,-0.604167 z m 6.4375,-1.006212 c 0.9625,-0.251527 2.5375,-0.251527 3.5,0 0.9625,0.251528 0.175,0.457323 -1.75,0.457323 -1.925,0 -2.7125,-0.205795 -1.75,-0.457323 z M 108.8154,77.289741 c 2.44588,-1.307077 5.79351,-1.719627 14.20034,-1.75 6.05,-0.02186 12.52905,0.299818 14.39788,0.714835 l 3.39788,0.754576 -0.66393,-8.754576 C 138.67332,48.815127 129.94535,41.224637 113.8714,45.402856 106.17779,47.40271 93.548864,47.44344 87.106812,45.489176 84.4069,44.670129 80.274395,44 77.923467,44 c -3.761904,0 -4.872809,0.582855 -9.265124,4.861103 -5.547383,5.40332 -6.901437,8.919416 -8.044892,20.890323 l -0.693799,7.263426 3.548046,-0.757426 c 1.951425,-0.416584 8.498045,-0.74118 14.548045,-0.721324 8.372665,0.02748 11.716546,0.435901 14,1.709962 3.976271,2.218574 12.687477,2.241222 16.799657,0.04368 z M 48.411579,72.774767 C 46.381793,63.59841 46.591099,51.240563 48.839661,47.5 c 0.991864,-1.65 1.48721,-2.1 1.100771,-1 -1.368308,3.894885 -1.662172,19.615522 -0.479081,25.629056 1.590332,8.083506 0.7146,8.622167 -1.049772,0.645711 z M 53.18241,43.333333 c -0.366667,-0.366666 -0.652983,-1.379166 -0.636258,-2.25 0.02497,-1.300307 0.220111,-1.257107 1.091664,0.24167 1.076773,1.85169 0.764606,3.228342 -0.455406,2.00833 z M 69.546152,26.252881 c -0.04317,-1.770585 7.005349,-9.348815 8.078475,-8.685587 0.490114,0.302907 0.859488,1.311682 0.820831,2.241723 -0.0627,1.508497 -0.146491,1.49802 -0.776439,-0.09708 -0.635091,-1.608128 -0.966765,-1.507495 -3.295868,1 C 72.948808,22.24537 71.286889,24.4 70.679998,25.5 c -0.606891,1.1 -1.117122,1.438796 -1.133846,0.752881 z M 81.710692,18.5 c 0.02038,-1.65 0.244498,-2.203936 0.498042,-1.230968 0.253543,0.972967 0.236869,2.322967 -0.03705,3 C 81.897757,20.946064 81.690312,20.15 81.710692,18.5 Z M 85.015743,17 c 0.995486,-1.1 2.034975,-2 2.309975,-2 0.275,0 -0.314489,0.9 -1.309975,2 -0.995486,1.1 -2.034975,2 -2.309975,2 -0.275,0 0.314489,-0.9 1.309975,-2 z m 29.064287,-2.706872 c -0.54268,-1.425198 -0.42782,-1.540062 0.5598,-0.559795 0.68342,0.678334 0.99067,1.485241 0.68278,1.793128 -0.30789,0.307888 -0.86705,-0.247112 -1.24258,-1.233333 z M 94.614619,11.558475 c 1.429381,-1.6821612 3.341881,-4.1711028 4.25,-5.5309812 0.908118,-1.3598785 1.651121,-1.9659147 1.651121,-1.3467472 0,0.6191675 -1.912497,3.1081091 -4.249997,5.5309814 -2.3375,2.422872 -3.080506,3.028908 -1.651124,1.346747 z M 104.178,6.417941 c -0.9329,-1.9563192 -1.2108,-3.2569557 -0.61754,-2.8903033 1.15016,0.710837 3.24708,5.5138961 2.66248,6.0984932 C 106.03113,9.8179457 105.1109,8.3742603 104.178,6.417941 Z"
     style="fill:#571854" />
  <path
     inkscape:connector-curvature="0"
     id="path1957"
     d="m 35.710692,197.5 c 0.02038,-1.65 0.244498,-2.20394 0.498042,-1.23097 0.253543,0.97297 0.236869,2.32297 -0.03705,3 C 35.897757,199.94606 35.690312,199.15 35.710692,197.5 Z m 41.882538,-1.40216 c -3.544793,-4.47567 -14.077487,-22.02013 -14.077487,-23.44908 0,-0.52467 2.472556,2.98438 5.494568,7.79788 3.022012,4.81351 6.930425,10.61968 8.685361,12.9026 1.754937,2.28292 3.612481,4.71326 4.127877,5.40076 0.599063,0.79911 0.562511,1.25 -0.101332,1.25 -0.571128,0 -2.429172,-1.75597 -4.128987,-3.90216 z m 15.922513,1.06109 c 0,-1.56259 0.669692,-5.05009 1.488206,-7.75 1.470743,-4.85133 1.458941,-4.93049 -1.005731,-6.74651 l -2.493937,-1.83758 1.979861,-2.78046 c 1.088924,-1.52925 3.131326,-3.53493 4.538673,-4.45706 2.432095,-1.59357 2.705835,-1.5719 5.527905,0.43759 1.633,1.16279 3.47876,3.0665 4.10169,4.23045 0.96318,1.79972 0.74385,2.45066 -1.46628,4.35174 l -2.59887,2.23545 1.44687,6.82873 c 0.79579,3.75579 1.4547,7.16622 1.46425,7.57872 0.01,0.4125 -2.90764,0.75 -6.48264,0.75 -6.47475,0 -6.499997,-0.011 -6.499997,-2.84107 z m 34.273997,-10.89257 c 5.0743,-7.63637 9.37952,-13.77924 9.56716,-13.65083 1.20655,0.82567 -15.37209,26.44152 -17.56716,27.14322 -0.6743,0.21555 2.9257,-5.85602 8,-13.49239 z M 164.71421,197 c -0.007,-2.8052 2.52157,-13.34561 2.6391,-11 0.0413,0.825 -0.53409,4.2 -1.27873,7.5 -0.74465,3.3 -1.35681,4.875 -1.36037,3.5 z M 34.673638,192 c 0,-1.375 0.226973,-1.9375 0.504386,-1.25 0.277412,0.6875 0.277412,1.8125 0,2.5 -0.277413,0.6875 -0.504386,0.125 -0.504386,-1.25 z m -1.078948,-4.58333 c 0.04798,-1.16495 0.284941,-1.4019 0.604167,-0.60417 0.288871,0.72187 0.253344,1.58437 -0.07895,1.91667 -0.332292,0.33229 -0.568641,-0.25834 -0.52522,-1.3125 z m -1,-4 c 0.04798,-1.16495 0.284941,-1.4019 0.604167,-0.60417 0.288871,0.72187 0.253344,1.58437 -0.07895,1.91667 -0.332292,0.33229 -0.568641,-0.25834 -0.52522,-1.3125 z m 136,-4 c 0.048,-1.16495 0.28494,-1.4019 0.60416,-0.60417 0.28887,0.72187 0.25335,1.58437 -0.0789,1.91667 -0.3323,0.33229 -0.56864,-0.25834 -0.52522,-1.3125 z M 35.328243,171.31689 c 0.721875,-0.28887 1.584375,-0.25335 1.916667,0.0789 0.332291,0.33229 -0.258334,0.56864 -1.3125,0.52522 -1.164943,-0.048 -1.4019,-0.28494 -0.604167,-0.60416 z m 124.999997,-1 c 0.72187,-0.28887 1.58437,-0.25335 1.91667,0.0789 0.33229,0.33229 -0.25834,0.56864 -1.3125,0.52522 -1.16495,-0.048 -1.4019,-0.28494 -0.60417,-0.60416 z m -106.999997,-3 c 0.721875,-0.28887 1.584375,-0.25335 1.916667,0.0789 0.332291,0.33229 -0.258334,0.56864 -1.3125,0.52522 -1.164943,-0.048 -1.4019,-0.28494 -0.604167,-0.60416 z m 92.999997,0 c 0.72187,-0.28887 1.58437,-0.25335 1.91667,0.0789 0.33229,0.33229 -0.25834,0.56864 -1.3125,0.52522 -1.16495,-0.048 -1.4019,-0.28494 -0.60417,-0.60416 z M 94.548649,155.39715 c -9.831405,-2.63858 -20.31707,-11.1782 -26.291168,-21.41178 -5.579375,-9.55741 -4.798603,-9.8978 3.592011,-1.56601 9.979127,9.90917 18.300663,14.63342 27.66243,15.70434 l 6.503818,0.74398 -6.999997,-0.28593 c -8.187934,-0.33446 -14.366572,-3.05095 -21.75,-9.56258 -6.950389,-6.12972 -5.802145,-3.34651 1.520184,3.68476 8.515336,8.17684 13.514933,10.63568 21.729813,10.6869 8.5387,0.0532 15.31262,-3.40441 23.75,-12.12282 6.29756,-6.50732 8.64601,-10.72899 3.4518,-6.2051 -1.53901,1.3404 -0.8882,0.5227 1.44624,-1.81712 2.33444,-2.33981 4.94364,-5.25244 5.7982,-6.4725 2.84499,-4.06179 1.66987,0.49063 -1.6073,6.22671 -6.38085,11.16849 -19.88651,21.7171 -29.83894,23.30574 -1.925,0.30727 -5.960189,-0.10159 -8.967091,-0.90859 z M 72.515743,134.62244 c 0,-0.20765 -0.7875,-0.99515 -1.75,-1.75 -1.586056,-1.24387 -1.621426,-1.2085 -0.377555,0.37756 1.306369,1.66575 2.127555,2.19548 2.127555,1.37244 z m 36.864807,11.83842 c 1.85065,-0.80347 3.65065,-1.44491 4,-1.42542 1.30105,0.0726 -4.42369,2.89354 -5.86481,2.88998 -0.825,-0.002 0.0142,-0.66109 1.86481,-1.46456 z m 5.63519,-2.12393 c 2.5551,-2.42037 8.83282,-6.51425 7.31709,-4.77169 -0.9256,1.06412 -3.1756,2.7862 -5,3.82686 -1.8244,1.04065 -2.86709,1.46582 -2.31709,0.94483 z M 65.515743,104.29377 c -2.357416,-0.86176 -6,-4.504027 -6,-5.999469 0,-0.746389 -0.7875,-1.658564 -1.75,-2.027056 -2.484952,-0.951361 -5.274567,-4.529409 -4.731821,-6.069183 0.252402,-0.716066 0.0061,-1.022113 -0.547233,-0.680106 C 51.197135,90.314945 47.523711,82.286999 47.673887,79 c 0.08961,-1.961286 0.201012,-2.069029 0.516992,-0.5 0.346714,1.721635 5.112441,5.045757 5.98419,4.174007 0.167764,-0.167764 -0.585156,-3.417831 -1.673157,-7.222372 C 49.69892,65.650083 49.021587,57.228342 50.530425,50.938799 l 1.267916,-5.285266 2.313513,4.423233 2.313514,4.423234 0.06892,-5 c 0.07392,-5.362782 3.23717,-14.185466 6.961011,-19.415118 1.253243,-1.760018 2.081307,-3.397349 1.840142,-3.638514 -0.77357,-0.77357 -4.62052,3.948537 -7.806293,9.582174 -3.010716,5.324072 -3.201898,3.381749 -0.239749,-2.435747 1.809148,-3.553066 9.92558,-12.354654 12.724455,-13.7986 1.493704,-0.770605 1.252314,-0.21211 -0.899137,2.080299 -2.58849,2.758084 -2.909145,3.762523 -2.675084,8.379609 0.306913,6.054173 1.55587,8.114195 2.540648,4.190528 0.37296,-1.485991 1.780012,-4.323398 3.126784,-6.305351 l 2.448678,-3.603549 0.07013,4.482134 0.07013,4.482135 1.801573,-5.288367 c 2.646304,-7.768007 2.827197,-7.756048 4.361847,0.288367 0.322582,1.690932 0.562844,1.536398 1.554752,-1 2.943471,-7.526726 2.669152,-7.314242 4.606387,-3.568043 l 1.768159,3.419243 1.280678,-3.045836 c 0.704373,-1.67521 3.118335,-4.522617 5.36436,-6.327572 2.246025,-1.804955 4.366497,-4.172807 4.712161,-5.261892 1.08367,-3.4143488 2.37764,0.182757 2.39452,6.656545 0.0133,5.108732 0.21062,5.710356 1.51708,4.626088 0.82597,-0.685497 2.35975,-4.003097 3.4084,-7.372445 L 109.33255,10.5 111.40218,15 c 1.1383,2.475 2.11115,5.625 2.16188,7 0.0507,1.375 0.45906,3.4 0.90738,4.5 0.87694,2.151636 0.6988,2.571863 2.95276,-6.9656 0.65445,-2.769253 0.96206,-2.356963 4.64619,6.227171 2.16994,5.056024 4.26039,9.203044 4.64545,9.2156 0.38505,0.01256 0.83505,-2.531594 1,-5.653666 l 0.2999,-5.676494 2.91534,4.218827 c 1.60343,2.320355 3.48556,6.337277 4.1825,8.926494 1.1578,4.301349 1.273,4.42716 1.33467,1.457668 0.0371,-1.7875 0.41796,-3.25 0.84631,-3.25 0.86555,0 5.04917,14.796268 5.5136,19.5 0.27221,2.75691 0.42155,2.59865 1.84299,-1.953094 l 1.54678,-4.953094 0.6805,6.641987 c 0.37427,3.653093 0.44263,8.581985 0.15192,10.953094 L 146.50178,69.5 l 1.46187,-3 c 1.28556,-2.63816 1.46732,-2.733145 1.50699,-0.787513 0.0248,1.216868 -0.81295,4.591868 -1.86167,7.5 -1.04873,2.908132 -2.21012,7.060318 -2.58088,9.227079 -0.58828,3.437994 -0.48211,3.78023 0.83385,2.688077 1.24579,-1.033915 1.18068,-0.170599 -0.37449,4.965803 -2.29566,7.582042 -1.12955,6.623175 1.91569,-1.57523 1.38235,-3.721563 1.82641,-6.113612 1.17524,-6.330671 -0.70599,-0.235329 -0.72427,-0.951278 -0.0562,-2.199653 2.26083,-4.224401 4.09395,-15.33593 3.41997,-20.730293 -0.42274,-3.383492 -0.98803,-4.966973 -1.48571,-4.161722 -0.56982,0.922 -0.95198,0.588305 -1.31474,-1.148032 C 145.86337,38.256313 144.65044,35.033614 144.45673,41.5 l -0.11982,4 -1.30036,-4.724049 c -1.4986,-5.444257 -5.36705,-12.421838 -8.41717,-15.182156 -2.49405,-2.257091 -2.65702,-1.564603 -0.57796,2.455865 C 134.88054,29.672347 135.3421,31 135.0671,31 c -0.275,0 -1.15408,-1.264854 -1.95351,-2.810787 C 131.57868,25.221036 125.66402,19 124.37693,19 c -0.41753,0 -0.1071,1.560547 0.68984,3.467881 2.11487,5.061608 1.68986,5.661946 -0.73069,1.032119 -1.1502,-2.2 -3.4294,-5.8 -5.0649,-8 l -2.97362,-4 3.09499,3.25 c 1.70225,1.7875 3.62136,3.25 4.2647,3.25 0.64334,0 2.67468,1.147901 4.5141,2.550891 1.83941,1.40299 3.34439,2.218799 3.34439,1.812909 0,-1.634885 6.37979,5.446893 8.98718,9.976062 1.71364,2.976695 2.99303,4.324065 3.3234,3.5 0.86656,-2.161521 2.4138,0.793778 4.36792,8.342963 0.95143,3.675553 2.05003,6.484952 2.44134,6.243109 1.01598,-0.627907 2.88614,8.81203 2.84751,14.373287 -0.018,2.585428 -0.84441,7.050294 -1.83656,9.921924 -0.99216,2.87163 -1.44096,5.34663 -0.99733,5.5 0.44362,0.15337 -0.30771,3.344496 -1.66963,7.091391 -1.82747,5.027736 -3.81343,8.171588 -7.58035,12 l -5.10415,5.187464 -9.76561,0.33983 C 112.44391,105.32999 108.33971,102.59458 104.4894,90.150357 103.05043,85.499622 102.34744,84.5 100.51574,84.5 c -1.831699,0 -2.534691,0.999622 -3.973653,5.650357 -2.109439,6.817718 -5.191649,11.366643 -9.055522,13.364733 -2.836109,1.46661 -18.564086,2.02403 -21.970822,0.77868 z m 21.632572,-2.97259 c 5.104148,-3.344368 9.908314,-15.759599 7.309844,-18.890565 -3.662772,-4.41337 -16.503115,-6.730351 -24.807368,-4.476374 -6.845169,1.857945 -9.135789,4.805549 -9.13131,11.750304 0.0046,7.191539 2.511662,11.789525 7.208174,13.220085 4.349211,1.32478 16.480232,0.32319 19.42066,-1.60345 z M 68.920731,91.75 c -1.890408,-2.23278 -1.889667,-2.237139 0.09682,-0.569625 1.100993,0.924206 4.025993,1.858088 6.5,2.075293 l 4.498192,0.394918 -4.595012,0.174707 c -3.665097,0.139351 -4.980535,-0.280637 -6.5,-2.075293 z m -0.967897,-6.5 c 2.474985,-2.738662 3.576328,-3.223552 7,-3.081897 l 4.062909,0.168103 -4,0.399319 c -2.512934,0.250865 -5.1153,1.396611 -7,3.081897 l -3,2.682578 z m 16.562909,-0.833306 c -1.681352,-0.932956 -1.967042,-1.392038 -0.872445,-1.401952 0.895156,-0.0081 2.187756,0.660258 2.872445,1.485258 1.460276,1.759525 1.309817,1.753258 -2,-0.08331 z m 52.953387,16.084456 c 2.05568,-2.055679 2.5472,-3.668685 2.87257,-9.426804 0.35837,-6.34223 0.17546,-7.163835 -2.10177,-9.441061 -6.36656,-6.366564 -26.13418,-5.868837 -31.66661,0.79733 -1.67337,2.016289 -0.0199,9.084759 3.38798,14.483146 3.43299,5.438209 8.71626,7.241259 19.04112,6.498249 4.68663,-0.33727 6.52523,-0.96938 8.46671,-2.91086 z m -11.97301,-7.244612 c 2.46421,-0.216726 5.16421,-0.925608 6,-1.575293 1.32751,-1.031914 1.34612,-0.960013 0.14718,0.568755 -0.99866,1.273386 -2.63277,1.702418 -6,1.575293 l -4.62756,-0.174707 z m -9.16788,-9.939652 c 0.72187,-0.288871 1.58437,-0.253344 1.91667,0.07895 0.33229,0.332292 -0.25834,0.568641 -1.3125,0.52522 -1.16495,-0.04798 -1.4019,-0.284941 -0.60417,-0.604167 z m 6.4375,-1.006212 c 0.9625,-0.251527 2.5375,-0.251527 3.5,0 0.9625,0.251528 0.175,0.457323 -1.75,0.457323 -1.925,0 -2.7125,-0.205795 -1.75,-0.457323 z M 108.8154,77.289741 c 2.44588,-1.307077 5.79351,-1.719627 14.20034,-1.75 6.05,-0.02186 12.52905,0.299818 14.39788,0.714835 l 3.39788,0.754576 -0.66393,-8.754576 C 138.67332,48.815127 129.94535,41.224637 113.8714,45.402856 106.17779,47.40271 93.548864,47.44344 87.106812,45.489176 84.4069,44.670129 80.274395,44 77.923467,44 c -3.761904,0 -4.872809,0.582855 -9.265124,4.861103 -5.547383,5.40332 -6.901437,8.919416 -8.044892,20.890323 l -0.693799,7.263426 3.548046,-0.757426 c 1.951425,-0.416584 8.498045,-0.74118 14.548045,-0.721324 8.372665,0.02748 11.716546,0.435901 14,1.709962 3.976271,2.218574 12.687477,2.241222 16.799657,0.04368 z M 48.411579,72.774767 C 46.381793,63.59841 46.591099,51.240563 48.839661,47.5 c 0.991864,-1.65 1.48721,-2.1 1.100771,-1 -1.368308,3.894885 -1.662172,19.615522 -0.479081,25.629056 1.590332,8.083506 0.7146,8.622167 -1.049772,0.645711 z M 53.18241,43.333333 c -0.366667,-0.366666 -0.652983,-1.379166 -0.636258,-2.25 0.02497,-1.300307 0.220111,-1.257107 1.091664,0.24167 1.076773,1.85169 0.764606,3.228342 -0.455406,2.00833 z M 69.546152,26.252881 c -0.04317,-1.770585 7.005349,-9.348815 8.078475,-8.685587 0.490114,0.302907 0.859488,1.311682 0.820831,2.241723 -0.0627,1.508497 -0.146491,1.49802 -0.776439,-0.09708 -0.635091,-1.608128 -0.966765,-1.507495 -3.295868,1 C 72.948808,22.24537 71.286889,24.4 70.679998,25.5 c -0.606891,1.1 -1.117122,1.438796 -1.133846,0.752881 z M 81.710692,18.5 c 0.02038,-1.65 0.244498,-2.203936 0.498042,-1.230968 0.253543,0.972967 0.236869,2.322967 -0.03705,3 C 81.897757,20.946064 81.690312,20.15 81.710692,18.5 Z M 85.015743,17 c 0.995486,-1.1 2.034975,-2 2.309975,-2 0.275,0 -0.314489,0.9 -1.309975,2 -0.995486,1.1 -2.034975,2 -2.309975,2 -0.275,0 0.314489,-0.9 1.309975,-2 z m 29.064287,-2.706872 c -0.54268,-1.425198 -0.42782,-1.540062 0.5598,-0.559795 0.68342,0.678334 0.99067,1.485241 0.68278,1.793128 -0.30789,0.307888 -0.86705,-0.247112 -1.24258,-1.233333 z M 94.614619,11.558475 c 1.429381,-1.6821612 3.341881,-4.1711028 4.25,-5.5309812 0.908118,-1.3598785 1.651121,-1.9659147 1.651121,-1.3467472 0,0.6191675 -1.912497,3.1081091 -4.249997,5.5309814 -2.3375,2.422872 -3.080506,3.028908 -1.651124,1.346747 z M 104.178,6.417941 c -0.9329,-1.9563192 -1.2108,-3.2569557 -0.61754,-2.8903033 1.15016,0.710837 3.24708,5.5138961 2.66248,6.0984932 C 106.03113,9.8179457 105.1109,8.3742603 104.178,6.417941 Z"
     style="fill:#58392b" />
  <path
     inkscape:connector-curvature="0"
     id="path1955"
     d="m 35.710692,197.5 c 0.02038,-1.65 0.244498,-2.20394 0.498042,-1.23097 0.253543,0.97297 0.236869,2.32297 -0.03705,3 C 35.897757,199.94606 35.690312,199.15 35.710692,197.5 Z m 41.882538,-1.40216 c -3.544793,-4.47567 -14.077487,-22.02013 -14.077487,-23.44908 0,-0.52467 2.472556,2.98438 5.494568,7.79788 3.022012,4.81351 6.930425,10.61968 8.685361,12.9026 1.754937,2.28292 3.612481,4.71326 4.127877,5.40076 0.599063,0.79911 0.562511,1.25 -0.101332,1.25 -0.571128,0 -2.429172,-1.75597 -4.128987,-3.90216 z m 16.333466,-1.1381 c 0.367738,-2.77215 1.185644,-6.17502 1.817568,-7.56194 1.015193,-2.22811 0.839345,-2.77642 -1.51046,-4.70974 L 91.574389,180.5 93.851472,178 c 1.252395,-1.375 3.236112,-3.33182 4.408259,-4.3485 2.087389,-1.81052 2.202579,-1.79404 5.606719,0.80243 4.82433,3.67969 5.33756,5.58553 2.18179,8.10185 -2.77662,2.214 -2.77746,1.82411 0.0327,15.19422 0.45297,2.15512 0.19259,2.25 -6.174966,2.25 h -6.647882 l 0.668614,-5.04026 z m 33.863044,-8.69338 c 5.0743,-7.63637 9.37952,-13.77924 9.56716,-13.65083 1.20655,0.82567 -15.37209,26.44152 -17.56716,27.14322 -0.6743,0.21555 2.9257,-5.85602 8,-13.49239 z M 164.71421,197 c -0.007,-2.8052 2.52157,-13.34561 2.6391,-11 0.0413,0.825 -0.53409,4.2 -1.27873,7.5 -0.74465,3.3 -1.35681,4.875 -1.36037,3.5 z M 34.673638,192 c 0,-1.375 0.226973,-1.9375 0.504386,-1.25 0.277412,0.6875 0.277412,1.8125 0,2.5 -0.277413,0.6875 -0.504386,0.125 -0.504386,-1.25 z m -1.078948,-4.58333 c 0.04798,-1.16495 0.284941,-1.4019 0.604167,-0.60417 0.288871,0.72187 0.253344,1.58437 -0.07895,1.91667 -0.332292,0.33229 -0.568641,-0.25834 -0.52522,-1.3125 z m -1,-4 c 0.04798,-1.16495 0.284941,-1.4019 0.604167,-0.60417 0.288871,0.72187 0.253344,1.58437 -0.07895,1.91667 -0.332292,0.33229 -0.568641,-0.25834 -0.52522,-1.3125 z m 136,-4 c 0.048,-1.16495 0.28494,-1.4019 0.60416,-0.60417 0.28887,0.72187 0.25335,1.58437 -0.0789,1.91667 -0.3323,0.33229 -0.56864,-0.25834 -0.52522,-1.3125 z M 35.328243,171.31689 c 0.721875,-0.28887 1.584375,-0.25335 1.916667,0.0789 0.332291,0.33229 -0.258334,0.56864 -1.3125,0.52522 -1.164943,-0.048 -1.4019,-0.28494 -0.604167,-0.60416 z m 124.999997,-1 c 0.72187,-0.28887 1.58437,-0.25335 1.91667,0.0789 0.33229,0.33229 -0.25834,0.56864 -1.3125,0.52522 -1.16495,-0.048 -1.4019,-0.28494 -0.60417,-0.60416 z m -106.999997,-3 c 0.721875,-0.28887 1.584375,-0.25335 1.916667,0.0789 0.332291,0.33229 -0.258334,0.56864 -1.3125,0.52522 -1.164943,-0.048 -1.4019,-0.28494 -0.604167,-0.60416 z m 92.999997,0 c 0.72187,-0.28887 1.58437,-0.25335 1.91667,0.0789 0.33229,0.33229 -0.25834,0.56864 -1.3125,0.52522 -1.16495,-0.048 -1.4019,-0.28494 -0.60417,-0.60416 z M 74.920731,142.75 l -1.904988,-2.25 2.25,1.90499 C 77.380188,144.19521 77.970984,145 77.170731,145 c -0.189757,0 -1.202257,-1.0125 -2.25,-2.25 z M 64.515743,103.72737 c -3.316822,-1.64933 -6.268171,-7.91602 -6.811019,-14.462052 -0.241837,-2.916231 -0.833291,-5.545489 -1.314342,-5.842795 -0.481051,-0.297307 -0.874639,-1.377834 -0.874639,-2.401173 0,-1.345459 1.453592,-2.367399 5.25,-3.690983 7.26378,-2.532454 25.816177,-2.570489 30.45034,-0.06243 4.091371,2.214296 14.274087,2.313766 18.400817,0.179747 4.16971,-2.15624 18.30332,-3.009977 24.99169,-1.509615 10.66442,2.392286 12.24948,3.63814 9.95614,7.825497 -0.52306,0.955037 -1.2276,4.301223 -1.56566,7.435968 -0.70633,6.549803 -3.8012,11.880296 -7.49457,12.908356 -4.5821,1.27544 -17.92399,0.94601 -21.45603,-0.52977 -3.92541,-1.64014 -9.02875,-9.63559 -10.06496,-15.768866 C 103.41564,84.448025 103.00778,84 100.51574,84 c -2.492033,0 -2.899895,0.448025 -3.467771,3.809257 -1.008633,5.970046 -5.890153,13.658173 -9.871836,15.547613 -4.20497,1.99538 -18.909226,2.2358 -22.66039,0.3705 z m 22.793382,-2.40309 c 3.488922,-2.579933 6.935906,-8.779148 7.765207,-13.965307 0.546121,-3.415255 0.294546,-4.417888 -1.536554,-6.123817 -6.512413,-6.067236 -26.545392,-5.357332 -31.914892,1.130961 -1.775194,2.145075 -1.822157,11.493473 -0.07888,15.702113 1.895604,4.57639 5.897756,6.04903 15.26512,5.61696 5.822314,-0.26855 8.477929,-0.86566 10.5,-2.36091 z m 47.087775,1.5673 c 4.29302,-1.49655 6.11884,-5.431442 6.11884,-13.186933 0,-5.051715 -0.40612,-6.762207 -1.9338,-8.14474 -6.42203,-5.811857 -24.99032,-6.005823 -31.08824,-0.324751 -1.81139,1.68757 -2.08037,2.722918 -1.55728,5.994147 1.25082,7.822231 5.72177,14.094257 11.22187,15.742487 4.15803,1.24605 13.55958,1.20231 17.23861,-0.0802 z M 47.59469,68.416667 c 0.04798,-1.164943 0.284941,-1.4019 0.604167,-0.604167 0.288871,0.721875 0.253344,1.584375 -0.07895,1.916667 -0.332292,0.332291 -0.568641,-0.258334 -0.52522,-1.3125 z M 152.8154,64 c 0,-3.025 0.18747,-4.2625 0.41659,-2.75 0.22913,1.5125 0.22913,3.9875 0,5.5 -0.22912,1.5125 -0.41659,0.275 -0.41659,-2.75 z M 46.815407,59 c 0,-3.025 0.187466,-4.2625 0.41659,-2.75 0.229125,1.5125 0.229125,3.9875 0,5.5 -0.229124,1.5125 -0.41659,0.275 -0.41659,-2.75 z m 0.779283,-7.583333 c 0.04798,-1.164943 0.284941,-1.4019 0.604167,-0.604167 0.288871,0.721875 0.253344,1.584375 -0.07895,1.916667 -0.332292,0.332291 -0.568641,-0.258334 -0.52522,-1.3125 z M 60.262529,29.5 c 1.138754,-1.65 3.560863,-4.35 5.382463,-6 2.44696,-2.216448 2.169303,-1.69408 -1.063068,2 -5.901271,6.744203 -6.765957,7.54495 -4.319395,4 z"
     style="fill:#260a16" />
</svg>
