<?xml version="1.0" encoding="UTF-8" standalone="no"?>
<!-- Created with Inkscape (http://www.inkscape.org/) -->

<svg
   xmlns:dc="http://purl.org/dc/elements/1.1/"
   xmlns:cc="http://creativecommons.org/ns#"
   xmlns:rdf="http://www.w3.org/1999/02/22-rdf-syntax-ns#"
   xmlns:svg="http://www.w3.org/2000/svg"
   xmlns="http://www.w3.org/2000/svg"
   xmlns:sodipodi="http://sodipodi.sourceforge.net/DTD/sodipodi-0.dtd"
   xmlns:inkscape="http://www.inkscape.org/namespaces/inkscape"
   version="1.1"
   id="svg2030"
   width="266.66666"
   height="266.66666"
   viewBox="0 0 266.66666 266.66666"
   sodipodi:docname="Professor4xeye.svg"
   inkscape:version="0.92.2 (5c3e80d, 2017-08-06)">
  <metadata
     id="metadata2036">
    <rdf:RDF>
      <cc:Work
         rdf:about="">
        <dc:format>image/svg+xml</dc:format>
        <dc:type
           rdf:resource="http://purl.org/dc/dcmitype/StillImage" />
        <dc:title></dc:title>
      </cc:Work>
    </rdf:RDF>
  </metadata>
  <defs
     id="defs2034" />
  <sodipodi:namedview
     pagecolor="#ffffff"
     bordercolor="#666666"
     borderopacity="1"
     objecttolerance="10"
     gridtolerance="10"
     guidetolerance="10"
     inkscape:pageopacity="0"
     inkscape:pageshadow="2"
     inkscape:window-width="640"
     inkscape:window-height="480"
     id="namedview2032"
     showgrid="false"
     inkscape:zoom="0.88500003"
     inkscape:cx="133.33333"
     inkscape:cy="133.33333"
     inkscape:window-x="132"
     inkscape:window-y="199"
     inkscape:window-maximized="0"
     inkscape:current-layer="svg2030" />
  <path
     inkscape:connector-curvature="0"
     id="path2084"
     d="M -0.1093556,134.3334 V 1.0000665 H 133.22397 266.5573 V 134.3334 267.66673 H 133.22397 -0.1093556 Z"
     style="fill:#fcfcfd;stroke-width:1.33333325" />
  <path
     inkscape:connector-curvature="0"
     id="path2082"
     d="M 45.944819,264.66673 C 41.40947,244.15393 39.436882,236.877 38.20543,236.11592 c -2.126067,-1.31398 -12.391353,10.56941 -14.881627,17.2274 -1.45217,3.88252 -1.87557,4.40216 -1.349924,1.65674 1.155558,-6.03538 6.727671,-14.78513 11.588575,-18.19725 2.380504,-1.67099 4.956918,-3.86051 5.725366,-4.86557 1.60518,-2.09944 23.026946,-7.80895 33.924693,-9.0419 l 7.358222,-0.83248 7.859577,13.13527 c 4.322768,7.2244 11.074036,17.48527 15.002818,22.80193 l 7.14324,9.66667 H 78.592243 46.608115 Z m 77.224651,-1.33333 c 0.45322,-2.38334 1.50428,-6.9741 2.33569,-10.20168 1.40371,-5.44934 1.29251,-6.04579 -1.55729,-8.35342 -2.53267,-2.05084 -3.44651,-2.19033 -5.22975,-0.79832 -1.95312,1.52462 -1.9755,1.43043 -0.23276,-0.97992 1.06043,-1.46666 3.93806,-4.82026 6.39474,-7.45244 5.1946,-5.56568 5.0559,-5.80066 -7.40595,-12.54756 -9.41764,-5.09874 -12.25732,-9.06057 -13.48734,-18.81709 -0.8445,-6.69864 -1.79365,-8.70193 -6.473378,-13.66281 -6.032665,-6.39508 -12.828715,-19.24425 -14.529982,-27.47157 -0.948619,-4.58751 -1.674371,-5.40295 -5.500463,-6.18014 -5.291313,-1.07481 -7.581727,-3.8948 -9.593153,-11.81116 -0.830482,-3.26852 -3.570042,-9.28034 -6.087913,-13.35962 -5.568722,-9.02205 -6.397014,-18.6056 -1.881412,-21.76845 1.779852,-1.24666 2.3937,-2.6779 1.805709,-4.21017 -0.489952,-1.2768 -0.236786,-2.72567 0.562591,-3.21971 1.035671,-0.64008 1.053848,-2.613358 0.06324,-6.865435 -0.764593,-3.281945 -1.440377,-10.47578 -1.501743,-15.986297 -0.09571,-8.594678 0.450523,-11.127237 3.842047,-17.813262 2.174491,-4.286777 4.463768,-7.692311 5.08728,-7.567853 0.623512,0.124453 2.251641,-2.270807 3.618064,-5.32281 1.366421,-3.052002 4.314458,-7.859729 6.551193,-10.683835 5.527135,-6.978576 14.920408,-14.323797 15.622832,-12.216525 0.384136,1.152408 1.554284,0.845214 3.945646,-1.035831 4.188282,-3.294504 6.255102,-3.430469 5.179962,-0.34076 -0.55755,1.602267 0.0244,1.347111 1.85735,-0.814379 2.37521,-2.800933 2.6754,-2.874378 2.72479,-0.666666 0.0428,1.915357 1.10686,1.290374 4.66666,-2.741101 4.27055,-4.836391 4.61117,-4.988763 4.61117,-2.062736 0,2.983293 0.29671,2.869681 5.32278,-2.038143 2.92753,-2.858654 6.4645,-7.5051832 7.85994,-10.3256213 l 2.53718,-5.12806925 2.66528,3.38835825 c 1.4659,1.8635971 3.30805,3.3883583 4.09365,3.3883583 0.78561,0 3.46292,1.7863441 5.94957,3.969653 2.48666,2.18331 4.79854,3.692298 5.13754,3.353308 0.33898,-0.338991 2.64302,1.474665 5.12009,4.030345 2.47707,2.555681 5.24001,4.646693 6.13989,4.646693 0.89988,0 3.39891,1.483269 5.5534,3.296155 2.1545,1.812885 4.30679,2.906626 4.78288,2.430536 1.37823,-1.378224 8.76415,6.346645 12.8433,13.432682 2.79232,4.850633 3.86034,5.862274 4.22294,4 0.61436,-3.155253 5.80514,7.443362 7.14602,14.590875 0.50486,2.691196 1.39264,4.599707 1.97282,4.241134 1.74937,-1.081178 4.57253,12.754882 4.49071,22.008616 -0.0423,4.782822 -1.02456,10.874431 -2.19192,13.59322 l -2.11528,4.92655 4.56793,2.69515 c 6.61255,3.90149 6.28275,9.59271 -1.43205,24.712 -3.3,6.46727 -6,12.7985 -6,14.0694 0,3.71456 -5.08661,9.13011 -9.00245,9.58462 -3.19242,0.37054 -3.85547,1.34536 -5.72659,8.41906 -2.81072,10.6259 -5.21141,14.92774 -13.22185,23.69243 -6.24824,6.83657 -6.71578,7.82704 -6.71578,14.2274 0,10.16904 -2.38976,13.5791 -13.59641,19.40141 -14.10624,7.32876 -13.95344,7.11825 -8.45627,11.64948 2.59564,2.13955 4.71935,4.47505 4.71935,5.19001 0,0.71496 -1.56521,2.75052 -3.47824,4.52346 -3.40132,3.15224 -3.44555,3.41125 -2,11.71222 0.81303,4.66878 1.47824,9.18955 1.47824,10.04614 0,1.04105 -3.12977,1.55745 -9.43927,1.55745 h -9.43928 z m 33.68365,2.83752 c 0.82269,-0.8227 1.16908,-2.34723 0.76974,-3.38786 -0.42902,-1.11802 -0.012,-1.73337 1.0202,-1.50418 1.92584,0.42774 21.56006,-27.70654 24.15495,-34.61215 1.91312,-5.09123 2.81939,-5.20087 18.612,-2.25153 19.81433,3.7004 23.376,5.19893 31.85892,13.40432 8.2349,7.96549 11.10784,13.31273 12.45428,23.18054 0.7364,5.39692 0.57289,5.17164 -1.62666,-2.24133 -1.34493,-4.53275 -3.3586,-9.63275 -4.47481,-11.33333 -3.44291,-5.24544 -10.85852,-11.83126 -12.01724,-10.67254 -0.92755,0.92755 -5.22075,17.59086 -7.19185,27.91387 l -0.57282,3 h -32.24126 c -23.82885,0 -31.85099,-0.39028 -30.74545,-1.49581 z M 20.10117,262.3334 c 0,-1.83334 0.302631,-2.58334 0.672515,-1.66667 0.369882,0.91667 0.369882,2.41667 0,3.33333 -0.369884,0.91667 -0.672515,0.16667 -0.672515,-1.66666 z"
     style="fill:#d9a798;stroke-width:1.33333325" />
  <path
     inkscape:connector-curvature="0"
     id="path2080"
     d="m 45.230192,260.00006 c -0.833898,-4.21666 -2.686052,-12.0584 -4.115896,-17.42608 -1.429844,-5.36769 -2.30638,-10.23405 -1.947857,-10.81416 1.298628,-2.10122 40.002812,-10.80657 41.217579,-9.27066 0.222245,0.281 3.515977,5.71712 7.319402,12.08026 3.803426,6.36314 10.201498,16.1496 14.21793,21.74768 4.01644,5.59808 7.30262,10.44187 7.30262,10.76398 0,0.3221 -14.057456,0.58565 -31.238797,0.58565 H 46.746371 Z m 78.283108,2.66667 c 0.43358,-2.75 1.46879,-7.38808 2.30046,-10.30684 1.40924,-4.94573 1.28185,-5.50652 -1.87216,-8.2414 l -3.3843,-2.93456 5.2706,-5.42527 c 2.89883,-2.98389 6.02795,-5.42526 6.95361,-5.42526 2.29669,0 11.10913,7.87824 11.10913,9.93146 0,0.91039 -1.258,2.79371 -2.79556,4.18518 -2.84334,2.57318 -2.90248,6.39318 -0.30039,19.40364 l 0.76261,3.81305 h -9.41617 -9.41617 z m 33.71067,4.16308 c 0,-0.46029 2.93909,-4.81029 6.53131,-9.66667 5.31157,-7.18077 13.10678,-19.46349 21.16484,-33.34889 0.89473,-1.54177 2.63176,-1.58963 10.35612,-0.28528 12.05407,2.03548 30.30801,6.67429 31.71825,8.06047 0.60713,0.59676 -0.0615,4.90828 -1.48562,9.58114 -1.42421,4.67288 -3.33888,12.54615 -4.25482,17.49615 l -1.66536,9 h -31.18236 c -17.15029,0 -31.18236,-0.37661 -31.18236,-0.83692 z m -37.33333,-52.90227 c -3.3,-1.64401 -7.65,-4.09426 -9.66667,-5.44498 -2.01667,-1.35072 -3.70884,-1.93686 -3.76038,-1.30251 -0.19466,2.39577 -2.38965,-4.33037 -2.47924,-7.5972 -0.0555,-2.02334 -1.79914,-5.01457 -4.274776,-7.33333 -5.600079,-5.24521 -14.12018,-18.43463 -15.060565,-23.31429 -0.417102,-2.16434 -1.10604,-5.73516 -1.530974,-7.93516 -0.642664,-3.32726 -1.411266,-4 -4.569893,-4 -4.110533,0 -9.324166,-5.22082 -9.324166,-9.33702 0,-1.2709 -2.7,-7.60213 -6,-14.0694 -6.794415,-13.31555 -7.846035,-20.75145 -3.333334,-23.56968 1.466667,-0.91595 2.666667,-3.05644 2.666667,-4.75665 0,-1.70022 0.506267,-2.77841 1.125036,-2.39599 0.618769,0.38242 0.318769,-2.41293 -0.666667,-6.211883 -0.985436,-3.798954 -1.791702,-11.468845 -1.791702,-17.044199 0,-8.414736 0.622965,-11.366927 3.666666,-17.376096 2.016667,-3.981497 4.356644,-7.109094 5.199948,-6.950214 0.843306,0.158878 1.931188,-1.296515 2.417519,-3.234207 2.417124,-9.63059 21.991774,-30.843819 23.160538,-25.099289 0.369204,1.814654 1.022352,1.607903 3.848485,-1.218229 3.950678,-3.95068 5.989338,-4.40798 4.772238,-1.07048 -0.7639,2.094747 -0.55512,2.073619 2.04185,-0.206652 2.17931,-1.913543 2.90165,-2.077964 2.92883,-0.666665 0.0201,1.042 2.05597,-0.298629 4.58778,-3.02102 4.23388,-4.5526 4.5847,-4.692245 5.02434,-2 0.43097,2.639196 0.95566,2.387353 5.95216,-2.856916 3.01374,-3.16319 6.20934,-7.5131901 7.10134,-9.6666672 1.90165,-4.5909806 3.32949,-4.9275053 5.2983,-1.2487464 0.78493,1.4666666 2.36604,2.6666666 3.51357,2.6666666 1.14754,0 4.05892,1.9725 6.46976,4.383334 2.41084,2.410833 4.92944,4.201297 5.59691,3.978807 0.66747,-0.222487 2.94723,1.405012 5.06612,3.616666 2.11891,2.211656 4.39767,4.021192 5.06393,4.021192 0.66627,0 3.10216,1.346352 5.41311,2.991893 2.31096,1.645542 4.89569,2.832532 5.74385,2.637759 1.91336,-0.439384 10.67403,9.523458 13.52184,15.377376 1.4251,2.929392 2.4411,3.807077 3.12538,2.699897 1.2507,-2.023701 6.0943,8.094378 7.30929,15.268839 0.46345,2.73667 1.29835,4.694122 1.85532,4.349894 1.62826,-1.006321 4.15526,11.150647 4.14254,19.929047 -0.007,4.443245 -0.91836,10.631556 -2.02648,13.751803 -2.00409,5.64309 -1.99564,5.68536 1.59504,7.96921 1.9854,1.26281 4.08564,2.90988 4.6672,3.66015 2.07922,2.6824 -0.44221,13.04683 -4.9826,20.48116 -2.53593,4.15231 -5.31627,10.41891 -6.17853,13.92579 -1.65524,6.7321 -5.14328,10.29052 -10.08698,10.29052 -2.19578,0 -3.12447,1.00309 -3.70332,4 -0.42495,2.2 -1.11388,5.77082 -1.53098,7.93516 -0.94038,4.87966 -9.46049,18.06908 -15.06057,23.31429 -3.45797,3.23885 -4.18107,4.92987 -4.18107,9.77777 0,4.11387 -0.49696,5.68644 -1.66666,5.274 -0.91667,-0.32321 -3.24775,0.51856 -5.18018,1.87061 -11.61009,8.12322 -25.38833,9.95248 -35.81982,4.75564 z m 30.54686,-21.38971 c 4.8307,-2.37635 12.14436,-7.68283 16.82075,-12.20443 8.26419,-7.99063 8.27888,-8.01851 12.54261,-23.79941 2.3478,-8.68968 4.03872,-16.02942 3.7576,-16.31054 -0.2811,-0.2811 -2.56741,0.0787 -5.08066,0.79942 -6.95959,1.99598 -20.56271,1.56546 -26.57738,-0.84112 -6.45317,-2.58204 -10.29489,-7.63856 -14.01802,-18.45064 -1.6328,-4.7417 -3.55216,-8.06438 -4.65843,-8.06438 -1.10627,0 -3.02563,3.32268 -4.65843,8.06438 -3.72313,10.81208 -7.56486,15.8686 -14.01802,18.45064 -6.43459,2.57461 -21.312578,2.75368 -28.068803,0.33782 l -4.745259,-1.69678 4.523244,16.08864 c 4.809278,17.10604 7.440836,21.72041 16.633318,29.16616 7.59136,6.14888 13.42052,9.13985 23.00062,11.80173 9.613,2.67104 13.3618,2.16072 24.54686,-3.34149 z m -31.26835,-15.62647 c -1.5418,-2.49467 0.68547,-3.22321 11.33183,-3.70669 10.25856,-0.46587 16.9782,1.22508 15.34831,3.86229 -1.09308,1.76865 -25.57915,1.62585 -26.68014,-0.1556 z m 7.0412,-19.29859 c -4.37098,-4.053 -4.53331,-7.39428 -0.93667,-19.27937 l 2.62269,-8.66667 -0.90471,9.33334 c -1.61127,16.62261 -0.41141,20.02401 6.69563,18.98092 3.59101,-0.52706 3.72565,-0.41666 1.48767,1.2198 -3.44441,2.51861 -4.79355,2.27962 -8.96461,-1.58802 z m -47.128483,-8.32325 c -0.49322,-2.46609 -1.889161,-4.54287 -3.369361,-5.01265 -1.389989,-0.44118 -2.125835,-1.45163 -1.635213,-2.24547 0.511241,-0.82721 0.274245,-1.06153 -0.555175,-0.54893 -0.795968,0.49193 -1.824082,0.28464 -2.284701,-0.46066 -0.775633,-1.255 1.069393,-1.96001 3.8168,-1.45845 0.639966,0.1168 0.789966,-0.76119 0.333333,-1.95115 -0.456632,-1.18997 -0.901231,-3.1645 -0.987995,-4.38786 -0.08676,-1.22336 -0.664984,-0.42428 -1.284933,1.77572 -0.942182,3.3435 -1.040025,3.01525 -0.596154,-2 0.347136,-3.92225 0.123133,-5.27518 -0.646879,-3.9069 -2.015001,3.58059 -1.955812,12.85712 0.09817,15.38659 1.478307,1.82051 1.503965,2.11449 0.11136,1.27595 -2.887909,-1.73894 -0.488749,4.78678 2.805481,7.63092 3.514227,3.03406 5.277152,1.31238 4.195256,-4.09711 z m 114.884223,1.95667 c 0.32531,-0.86871 0.8036,-3.45115 1.06285,-5.73878 l 0.47138,-4.1593 -3.77011,2.1593 c -3.71461,2.12754 -6.20659,8.07478 -4.52412,10.79707 0.99736,1.61375 5.82895,-0.57212 6.76,-3.05829 z m -0.27008,-15.88748 c -0.36948,-3.95809 -0.29955,-4.05231 0.76097,-1.02531 0.97787,2.79109 1.18614,2.89955 1.28034,0.66667 0.0619,-1.46667 -0.40811,-3.48846 -1.04438,-4.49286 -0.84884,-1.33995 -1.52149,-0.62992 -2.52626,2.66666 -1.82236,5.97894 -1.64806,9.51816 0.38564,7.83033 0.85281,-0.70776 1.36748,-3.24824 1.14369,-5.64549 z m -78.23548,-0.45887 c 4.18315,-3.07546 10.42989,-19.03282 9.09595,-23.2357 -1.23392,-3.88774 -10.27495,-6.6643 -21.69282,-6.662 -19.440725,0.004 -26.207217,7.63207 -21.572723,24.31987 2.015797,7.25844 6.190817,9.11948 19.502923,8.69356 8.56495,-0.27402 11.71032,-0.94221 14.66667,-3.11573 z m -18.374842,-11.7571 c 3.718902,-3.83694 4.162042,-4.94026 2.917902,-7.26495 -0.8068,-1.50753 -2.795775,-3.67173 -4.419939,-4.80934 -2.901811,-2.03251 -2.869643,-2.06838 1.854807,-2.06838 3.808252,0 4.964732,0.6 5.562522,2.88593 0.63503,2.42839 1.08015,2.61583 2.80749,1.18226 1.12904,-0.93702 1.724,-2.23569 1.32213,-2.88594 -0.40187,-0.65024 1.15807,-1.18225 3.46654,-1.18225 h 4.19721 l -3.45185,4.1023 c -4.23154,5.02889 -4.23222,5.08337 -0.11853,9.5198 4.0989,4.42048 4.13858,5.04456 0.32073,5.04456 -1.65693,0 -3.76202,-1.2 -4.67797,-2.66666 -0.91594,-1.46667 -2.21984,-2.66667 -2.89754,-2.66667 -0.6777,0 -1.61305,1.2 -2.07855,2.66667 -0.60879,1.91812 -2.017377,2.66666 -5.01807,2.66666 h -4.171707 z m 82.631892,11.52077 c 3.29979,-2.46364 3.50639,-3.27721 3.50639,-13.80734 v -11.18944 l -4.86831,-2.38022 c -7.03145,-3.43784 -23.05102,-3.33161 -31.04813,0.20589 -5.45931,2.41492 -6.08223,3.1434 -6.07053,7.09936 0.0144,4.86974 5.34986,17.41739 8.18326,19.24492 7.76942,5.01124 24.09598,5.4568 30.29732,0.82683 z m -27.22813,-11.45596 c 4.22283,-5.53641 4.21692,-5.87679 -0.1816,-10.46786 l -3.58279,-3.73962 h 3.76914 c 2.07301,0 4.58526,1.05 5.58278,2.33333 1.7273,2.22222 1.90002,2.22222 3.62731,0 0.99752,-1.28333 3.16873,-2.33333 4.82492,-2.33333 h 3.01127 l -3.50896,4.60048 -3.50896,4.60048 4.15549,4.73285 4.15549,4.73285 h -4.04826 c -2.87727,0 -4.2931,-0.77136 -4.89464,-2.66666 -0.46551,-1.46667 -1.40086,-2.66667 -2.07855,-2.66667 -0.67771,0 -1.9816,1.2 -2.89755,2.66667 -0.91594,1.46666 -3.05157,2.66666 -4.74582,2.66666 h -3.08046 z m 48.86393,1.19252 c 1.84497,-1.94114 1.50723,-10.38999 -0.39005,-9.75757 -2.30787,0.76929 -3.89592,7.70663 -2.82883,12.35757 0.73163,3.18879 1.02902,3.45919 1.46636,1.33333 0.30173,-1.46667 1.09037,-3.23667 1.75252,-3.93333 z m -2.69081,-1.51111 c 0.064,-1.55326 0.37992,-1.8692 0.80555,-0.80556 0.38516,0.9625 0.3378,2.1125 -0.1052,2.55556 -0.44307,0.44305 -0.75819,-0.34445 -0.7003,-1.75 z m -129.459012,0.36575 c 0.01123,-0.59328 -0.579582,-0.70787 -1.312916,-0.25464 -0.733333,0.45322 -1.324145,1.83863 -1.312916,3.07869 0.0176,1.94303 0.199051,1.97822 1.312916,0.25464 0.710875,-1.1 1.301687,-2.48541 1.312916,-3.07869 z m -3.685589,-5.25464 c -1.270336,-2.63401 -1.446845,-2.26802 -1.446845,3 0,5.26802 0.176509,5.63401 1.446845,3 1.040237,-2.15691 1.040237,-3.84309 0,-6 z m 137.706001,-6.33334 c 0.45322,-0.73333 0.22404,-1.33333 -0.5093,-1.33333 -0.73333,0 -1.70414,0.6 -2.15737,1.33333 -0.45323,0.73334 -0.22404,1.33334 0.50929,1.33334 0.73334,0 1.70415,-0.6 2.15738,-1.33334 z m -60.82383,-7.25724 c 2.47942,-0.80739 2.77191,-1.30036 1.33334,-2.24719 -1.50666,-0.99164 -1.3707,-1.57314 0.74533,-3.187573 5.13373,-3.91681 20.17457,-2.438102 40.11973,3.944283 2.06319,0.66021 -0.0976,-20.339816 -2.78364,-27.052762 -1.231,-3.076564 -4.67554,-7.680051 -7.65456,-10.229968 -6.2668,-5.364146 -11.74645,-5.954128 -24.48478,-2.636215 -9.80088,2.552806 -23.1023,2.552806 -32.90318,0 -11.0059,-2.866673 -16.935045,-2.562146 -21.934849,1.126592 -9.270257,6.83938 -12.0356,12.690669 -13.410918,28.376661 l -0.9522,10.860182 6.041448,-1.92806 c 3.322795,-1.06043 7.837486,-2.492197 10.032645,-3.181711 9.911954,-3.113416 31.918574,-0.239442 26.030654,3.399501 -4.86956,3.00955 11.88745,5.33974 19.82098,2.75626 z m -22.87061,-2.88165 c -0.44306,-0.44305 -1.59306,-0.49042 -2.55556,-0.10526 -1.06364,0.42563 -0.7477,0.74158 0.80556,0.80555 1.40555,0.0579 2.19305,-0.25723 1.75,-0.70029 z"
     style="fill:#c38775;stroke-width:1.33333325" />
  <path
     inkscape:connector-curvature="0"
     id="path2078"
     d="m 45.849387,262.66673 c -0.455817,-2.75 -2.048147,-9.8 -3.538509,-15.66667 -4.090746,-16.10281 -4.26965,-15.43916 4.903545,-18.18957 7.93015,-2.37771 32.728699,-7.03157 33.191642,-6.22899 6.194314,10.73894 16.103613,26.4656 20.846845,33.08523 3.41551,4.76667 6.64166,9.41667 7.16923,10.33333 0.75582,1.31328 -5.68842,1.66667 -30.392391,1.66667 H 46.678144 Z m 77.663913,0 c 0.43358,-2.75 1.46879,-7.38808 2.30046,-10.30684 1.40924,-4.94573 1.28185,-5.50652 -1.87216,-8.2414 l -3.3843,-2.93456 5.2706,-5.42527 c 2.89883,-2.98389 6.02795,-5.42526 6.95361,-5.42526 2.29669,0 11.10913,7.87824 11.10913,9.93146 0,0.91039 -1.258,2.79371 -2.79556,4.18518 -2.84334,2.57318 -2.90248,6.39318 -0.30039,19.40364 l 0.76261,3.81305 h -9.41617 -9.41617 z m 33.71067,4.41435 c 0,-0.32211 3.36289,-5.27211 7.47309,-11 4.1102,-5.7279 10.5602,-15.6713 14.33334,-22.09644 l 6.86024,-11.6821 5.33333,0.77684 c 7.69417,1.12072 23.23365,4.32112 28.66666,5.90399 8.40416,2.44848 8.51415,2.68632 5.62542,12.164 -1.42816,4.68565 -3.34606,12.56936 -4.262,17.51936 l -1.66536,9 h -31.18236 c -17.15029,0 -31.18236,-0.26355 -31.18236,-0.58565 z m -35.0308,-59.3513 c -4.23361,-1.3531 -9.74012,-4.01821 -12.2367,-5.92244 -4.05189,-3.09053 -4.60457,-3.21235 -5.14786,-1.13475 -0.42866,1.63925 -0.65437,1.3827 -0.7633,-0.86759 -0.0859,-1.77536 -2.71403,-5.93121 -5.914546,-9.35283 -6.95277,-7.43308 -12.819026,-17.13314 -13.494838,-22.31422 -1.165624,-8.9362 -2.275983,-11.13788 -5.617101,-11.13788 -4.154967,0 -9.829104,-5.63066 -9.680245,-9.60607 0.09713,-2.59392 0.296381,-2.45092 1.306754,0.93785 1.34148,4.4993 4.533416,7.33488 8.256664,7.33488 1.751205,0 2.298871,-0.69997 1.825625,-2.33333 -5.356409,-18.48716 -7.894897,-25.58224 -8.925063,-24.94556 -0.684888,0.42328 -1.263496,2.98419 -1.285796,5.69092 -0.03451,4.18881 -0.255948,4.55056 -1.487759,2.43041 -0.795968,-1.36998 -1.126093,-4.88502 -0.733612,-7.81119 0.506605,-3.77703 0.01395,-6.4708 -1.69842,-9.28655 -3.092316,-5.08491 -4.327661,-3.05073 -2.873696,4.73197 0.627357,3.35808 0.889329,6.35693 0.582159,6.6641 -0.307171,0.30717 0.671597,2.57615 2.17504,5.04219 1.503442,2.46604 2.711042,5.38371 2.683556,6.48371 -0.04632,1.85376 -2.2395,-1.82035 -9.152898,-15.33333 -3.535215,-6.90997 -3.582757,-13.34489 -0.120492,-16.30937 1.466667,-1.2558 2.666667,-3.68534 2.666667,-5.39898 0,-1.71363 0.517628,-2.79579 1.150284,-2.40478 0.632656,0.391 0.342029,-2.72359 -0.645839,-6.921317 -0.987868,-4.197724 -1.805496,-11.874635 -1.81695,-17.059805 -0.01699,-7.691138 0.654525,-10.742474 3.645838,-16.566471 2.016667,-3.926392 4.1755,-7.006157 4.797407,-6.843924 0.621907,0.162233 2.777093,-3.182855 4.789302,-7.433527 3.692972,-7.801181 13.101416,-18.707272 18.743036,-21.726576 2.828232,-1.513624 3.000769,-1.409811 2.274252,1.368394 -0.692256,2.647188 -0.237773,2.474759 3.804921,-1.443576 3.75437,-3.638877 4.59108,-4.000026 4.59108,-1.981645 0,2.338755 0.13261,2.348198 2.52838,0.180048 1.96634,-1.779508 2.6862,-1.899544 3.23828,-0.539984 0.48048,1.183242 2.02164,0.240111 4.76908,-2.918492 3.00587,-3.45571 4.0685,-4.061189 4.09506,-2.333333 0.0197,1.283334 0.62191,2.333333 1.33819,2.333333 1.66685,0 11.58927,-12.5077319 12.70089,-16.0101262 1.00396,-3.1631952 3.10301,-3.4664656 4.20034,-0.6068641 0.4326,1.1273213 2.7671,2.8772058 5.18778,3.8886324 2.42069,1.0114265 5.41354,3.3839209 6.6508,5.2722099 1.23725,1.888289 2.80654,3.089018 3.48729,2.668286 0.68076,-0.420732 3.51601,1.23442 6.30056,3.678115 5.39948,4.738546 12.88508,9.334061 16.17001,9.927014 2.62134,0.473168 9.97539,9.168481 13.20824,15.617202 1.97404,3.937731 2.68991,4.545912 3.1388,2.666667 0.7304,-3.057753 5.66744,7.167346 7.02712,14.553863 0.50504,2.743583 1.40184,4.68945 1.99292,4.324146 1.56925,-0.969851 3.9756,11.604529 3.90773,20.419815 -0.0321,4.180571 -0.886,9.922339 -1.89736,12.759485 -1.98442,5.56689 -1.4821,8.84156 1.35626,8.84156 2.17762,0 5.96782,5.16894 5.83924,7.96334 -0.0663,1.44141 -0.46315,1.25727 -1.35775,-0.63001 -0.96387,-2.03344 -1.11621,-1.45713 -0.64157,2.42703 0.73914,6.04855 -1.21292,12.15929 -3.44382,10.78052 -0.90476,-0.55917 -1.18232,-0.3712 -0.67176,0.45491 0.47855,0.7743 -0.66917,4.01701 -2.55049,7.20602 -2.07312,3.51415 -3.05828,4.48511 -2.50088,2.46485 0.50583,-1.83333 1.5287,-4.09414 2.27304,-5.02402 1.519,-1.89764 1.90404,-4.5198 2.15012,-14.64264 0.1308,-5.37834 0.65172,-7 2.24885,-7 1.14328,0 1.68734,-0.63322 1.20902,-1.40716 -1.74948,-2.83072 -5.00504,-0.44672 -7.25343,5.31155 -1.80084,4.61211 -2.00969,6.86795 -0.95428,10.30684 0.94039,3.06406 0.90771,5.32252 -0.10746,7.42894 -1.38916,2.88228 -1.46296,2.82375 -1.54891,-1.22815 -0.17749,-8.36839 -2.68521,-5.6066 -6.68843,7.36607 -2.23772,7.25128 -4.06853,13.56765 -4.06853,14.03636 0,0.46872 1.15645,0.85221 2.56989,0.85221 3.11364,0 8.09678,-5.9916 8.09678,-9.73537 0,-1.48999 0.37205,-2.33701 0.8268,-1.88228 1.37494,1.37496 -0.72404,7.51489 -3.52739,10.31824 -1.44801,1.44801 -4.08508,2.63275 -5.86013,2.63275 -2.5417,0 -3.44552,0.92068 -4.254,4.33333 -0.56464,2.38333 -0.90483,4.8058 -0.75596,5.38327 0.63308,2.45601 -7.30874,16.0711 -13.2869,22.77844 -3.56166,3.9961 -6.54536,8.66949 -6.63042,10.3853 -0.10387,2.09436 -0.34886,2.38511 -0.74551,0.88464 -0.51296,-1.94046 -1.32725,-1.74066 -6.17865,1.51604 -6.47951,4.34963 -16.75832,8.08379 -21.96778,7.9806 -1.99103,-0.0395 -7.08392,-1.17879 -11.31753,-2.53191 z m 28.22209,-14.26133 c 4.20328,-2.05646 12.01451,-8.07277 18.23566,-14.04532 10.81553,-10.38334 10.9045,-10.52401 14.4019,-22.76881 1.93554,-6.77651 4.42566,-15.29888 5.53362,-18.93861 l 2.01448,-6.6177 -4.4105,4.81514 c -3.94854,4.3108 -5.34574,4.91529 -13.33982,5.77138 -12.58723,1.34798 -20.16992,-0.0723 -25.53482,-4.78272 -4.98422,-4.3762 -8.85373,-11.54304 -10.02541,-18.56841 -0.63393,-3.80103 -1.36421,-4.66667 -3.93693,-4.66667 -2.70831,0 -3.42345,1.03481 -5.01616,7.25833 -2.01354,7.8679 -6.57523,14.78973 -12.14972,18.43577 -2.7416,1.79317 -6.38331,2.29504 -16.37782,2.25701 -14.200363,-0.054 -18.943027,-1.87692 -21.349249,-8.20576 -0.721118,-1.89668 -1.626932,-3.13271 -2.01292,-2.74672 -0.385986,0.38599 1.787587,9.0192 4.830163,19.18492 5.479292,18.30716 5.61009,18.56299 13.7391,26.87169 20.475006,20.92766 36.778896,25.85617 55.398426,16.74648 z m -29.91278,-16.55709 c -1.60083,-2.5902 0.83058,-3.24463 12.05482,-3.24463 6.11111,0 11.52119,0.41008 12.0224,0.9113 2.44986,2.44985 -1.72962,3.75537 -12.0224,3.75537 -6.47716,0 -11.54546,-0.59788 -12.05482,-1.42204 z m 5.8692,-19.98657 c -2.98216,-2.59775 -2.99384,-2.6675 -0.22197,-1.32618 1.60916,0.7787 3.29457,2.01258 3.74536,2.74196 1.31074,2.12082 -0.12632,1.54338 -3.52339,-1.41578 z m -2.37578,-8.7025 c 0.064,-1.55326 0.37992,-1.8692 0.80556,-0.80556 0.38516,0.9625 0.33779,2.1125 -0.10527,2.55556 -0.44306,0.44306 -0.75819,-0.34445 -0.70029,-1.75 z m -6.89346,-14.43753 c 4.51572,-4.32811 8.53294,-14.73084 7.88094,-20.40798 -0.6609,-5.75472 -8.40408,-8.91669 -21.7544,-8.88356 -16.171664,0.0401 -23.415034,4.96084 -23.263082,15.80352 0.10896,7.77485 2.764484,14.37489 6.59141,16.38227 2.202288,1.15519 7.262847,1.6194 14.914102,1.3681 10.72424,-0.35224 11.88034,-0.6675 15.63103,-4.26235 z M 97.065766,123.41362 c 2.287014,-2.33922 4.158204,-4.85639 4.158204,-5.59371 0,-0.73733 -1.61225,-3.02342 -3.582783,-5.08022 l -3.582788,-3.73962 h 3.535876 c 2.273549,0 4.093795,1.04248 5.098645,2.92007 l 1.56277,2.92006 2.36453,-2.92006 c 1.30049,-1.60604 3.73061,-2.92007 5.40026,-2.92007 3.02872,0 3.02746,0.009 -0.54705,3.73962 -4.39852,4.59107 -4.40443,4.93145 -0.1816,10.46786 l 3.40118,4.45918 h -3.18716 c -2.139,0 -3.70699,-1.14086 -4.76776,-3.46901 -1.30295,-2.85966 -1.92606,-3.18229 -3.54735,-1.83674 -1.08172,0.89775 -1.96677,2.45881 -1.96677,3.46901 0,1.16747 -1.515176,1.83674 -4.158204,1.83674 h -4.158211 z m 84.320054,10.96306 c 3.7566,-3.75661 3.93687,-4.44543 3.5641,-13.61935 -0.37446,-9.2158 -0.59126,-9.79623 -4.68815,-12.55159 -7.88955,-5.30612 -27.74377,-5.211 -35.95971,0.17229 -3.71068,2.43133 -4.11788,8.88579 -1.02724,16.28273 4.33302,10.37037 10.01428,13.54368 24.38504,13.62045 9.08595,0.0485 10.04598,-0.22456 13.72596,-3.90453 z m -30.78057,-7.70995 c 0.0264,-0.55 1.47967,-2.75127 3.22953,-4.89171 l 3.18159,-3.89172 -3.38779,-4.44162 -3.38778,-4.44161 h 3.33608 c 2.21473,0 3.57046,0.89633 4.03342,2.66666 0.38355,1.46667 1.3131,2.66667 2.06566,2.66667 0.75257,0 1.74917,-1.2 2.21468,-2.66667 0.55157,-1.73784 2.01737,-2.66666 4.20837,-2.66666 h 3.36201 l -3.45186,4.1023 c -4.24575,5.04578 -4.24966,5.35004 -0.11852,9.23103 1.83333,1.72233 3.33333,3.62692 3.33333,4.23242 0,0.6055 -1.5,1.10091 -3.33333,1.10091 -1.94239,0 -3.33334,-0.76644 -3.33334,-1.83674 0,-1.0102 -0.88504,-2.57126 -1.96676,-3.46901 -1.62129,-1.34555 -2.24441,-1.02292 -3.54736,1.83674 -1.39964,3.07187 -6.56176,5.0516 -6.43793,2.46901 z m -91.137122,-7.25 c -0.425635,-1.06364 -0.741577,-0.7477 -0.805556,0.80556 -0.05789,1.40555 0.257237,2.19305 0.700293,1.75 0.443055,-0.44306 0.490424,-1.59306 0.105267,-2.55556 z m 2.612314,-6.41666 c 1.082168,0 1.578752,-0.62914 1.103519,-1.39808 -1.041252,-1.68478 -4.683306,0.91543 -4.521389,3.228 0.06615,0.94465 0.355212,0.88397 0.777779,-0.16326 0.369882,-0.91666 1.557923,-1.66666 2.640091,-1.66666 z m 80.247978,-8.48244 c 0.97412,-0.62556 3.37412,-1.62136 5.33334,-2.21287 3.43238,-1.03629 3.39456,-1.07966 -1.03779,-1.19009 -7.74957,-0.19307 -2.65917,-2.988211 6.81033,-3.739556 6.47655,-0.513873 11.31955,0.115587 20.6861,2.688636 l 12.22976,3.35959 -0.5115,-4.211639 c -0.28132,-2.3164 -0.79412,-7.688343 -1.13954,-11.937651 -0.83064,-10.218153 -5.17999,-18.93298 -11.55419,-23.151218 -5.59713,-3.704006 -10.6942,-3.80113 -29.92096,-0.570132 -9.96585,1.674733 -17.37556,1.178444 -31.50262,-2.109983 -8.1805,-1.904215 -9.19756,-1.885194 -13.710684,0.256425 C 87.141858,66.856729 82.176307,76.512674 80.779669,95.20631 l -0.613106,8.20625 11.528707,-3.18969 c 12.89594,-3.567956 22.88493,-4.00783 28.86203,-1.270959 l 4,1.831569 -4.66666,0.20973 -4.66667,0.20973 4.23764,1.56523 c 2.3307,0.86088 4.60046,1.93498 5.0439,2.38691 1.18721,1.20991 15.75774,0.68879 17.82291,-0.63745 z m -29.42224,-4.43367 c -1.27478,-0.333726 -3.67478,-0.345834 -5.33333,-0.0269 -1.65855,0.31892 -0.61555,0.59197 2.31779,0.60677 2.93333,0.0148 4.29033,-0.24614 3.01554,-0.57987 z m 47.34316,0.0415 c -0.9027,-0.365233 -2.7027,-0.387465 -4,-0.0494 -1.29729,0.33806 -0.5587,0.63688 1.6413,0.66405 2.2,0.0272 3.26141,-0.24942 2.3587,-0.61465 z"
     style="fill:#a46656;stroke-width:1.33333325" />
  <path
     inkscape:connector-curvature="0"
     id="path2076"
     d="m 45.1939,258.66673 c -0.915946,-4.95 -2.81176,-12.7622 -4.212917,-17.36043 -1.401157,-4.59824 -2.243255,-8.85281 -1.871328,-9.4546 1.19234,-1.92924 40.408232,-10.75312 41.278614,-9.288 11.128837,18.73326 15.704214,26.02288 20.777311,33.10303 3.41543,4.76667 6.6612,9.41667 7.21282,10.33333 0.791,1.31447 -5.60324,1.66667 -30.258094,1.66667 H 46.859259 Z m 78.3194,4 c 0.43358,-2.75 1.46879,-7.38808 2.30046,-10.30684 1.40924,-4.94573 1.28185,-5.50652 -1.87216,-8.2414 l -3.3843,-2.93456 5.2706,-5.42527 c 2.89883,-2.98389 6.02795,-5.42526 6.95361,-5.42526 2.29669,0 11.10913,7.87824 11.10913,9.93146 0,0.91039 -1.258,2.79371 -2.79556,4.18518 -2.84334,2.57318 -2.90248,6.39318 -0.30039,19.40364 l 0.76261,3.81305 h -9.41617 -9.41617 z m 33.71067,4.41915 c 0,-0.31948 3.57407,-5.56948 7.94237,-11.66667 4.36832,-6.0972 10.76606,-15.88581 14.21719,-21.75248 3.45115,-5.86667 6.44927,-10.88887 6.66251,-11.16043 0.63693,-0.81122 34.64481,6.30803 38.47997,8.05544 2.75502,1.25528 3.34084,2.22438 2.63525,4.35954 -0.49899,1.51 -2.4592,9.49545 -4.35604,17.74545 l -3.44879,15 H 188.2902 c -17.08643,0 -31.06623,-0.26139 -31.06623,-0.58085 z m -32.0942,-58.51716 c -9.31626,-2.60132 -17.34112,-7.91009 -26.017128,-17.21141 -7.340591,-7.86966 -16.472827,-22.88419 -14.8847,-24.47232 0.383757,-0.38376 2.950912,2.05196 5.704788,5.4127 5.999732,7.32188 19.04072,17.87506 27.19472,22.00682 17.71323,8.97555 37.01556,2.01778 58.45612,-21.07127 6.87615,-7.40483 6.99285,-7.46679 5.46235,-2.89984 -4.1627,12.42119 -20.07898,29.80749 -32.48862,35.48924 -8.72776,3.99601 -15.92833,4.84002 -23.42753,2.74608 z m -3.71482,-31.4224 c -3.17686,-2.01296 0.75172,-3.10921 11.14235,-3.10921 10.39064,0 14.31922,1.09625 11.14235,3.10921 -0.99496,0.63044 -6.00901,1.14624 -11.14235,1.14624 -5.13333,0 -10.14739,-0.5158 -11.14235,-1.14624 z M 90.557308,141.0936 c -6.300887,-1.25991 -10.327649,-3.59157 -11.256449,-6.51796 -0.423709,-1.33499 -2.616581,-3.79221 -4.873049,-5.46049 -4.650806,-3.43849 -11.867861,-17.54114 -11.869449,-23.19377 -5.79e-4,-2.05995 0.490235,-3.44173 1.090695,-3.07062 0.600461,0.3711 0.253089,-3.343489 -0.771938,-8.254647 -2.59803,-12.447824 -1.715981,-24.679953 2.374512,-32.929381 1.818123,-3.666666 3.878523,-6.666666 4.578667,-6.666666 0.700143,0 2.996435,-3.448923 5.10287,-7.664273 3.741459,-7.487324 13.214075,-18.285409 18.542516,-21.137104 2.394853,-1.281686 2.570652,-1.109376 1.721101,1.68694 -0.839309,2.762603 -0.401686,2.595358 3.87383,-1.480453 3.924936,-3.741615 4.820026,-4.136541 4.820026,-2.126683 0,2.38375 0.0912,2.38563 2.66666,0.05491 2.57792,-2.332983 2.66834,-2.328767 2.71673,0.12668 0.039,1.980084 1.06335,1.364332 4.64683,-2.793349 3.2558,-3.777495 4.60256,-4.652653 4.61661,-3 0.0109,1.283333 0.60588,2.333333 1.32216,2.333333 1.66685,0 11.58927,-12.5077322 12.70089,-16.0101265 1.00396,-3.1631952 3.10301,-3.4664656 4.20034,-0.6068642 0.4326,1.1273214 2.7671,2.8772058 5.18778,3.8886325 2.42069,1.0114265 5.41354,3.3839212 6.6508,5.2722102 1.23725,1.888289 2.80654,3.089018 3.48729,2.668286 0.68076,-0.420731 3.61687,1.38442 6.52467,4.011448 2.90781,2.62703 5.83916,4.776415 6.51412,4.776415 0.67494,0 3.19652,1.65 5.60348,3.666668 2.40694,2.016667 3.88058,2.856805 3.27472,1.866976 -0.8771,-1.432982 -0.56756,-1.513911 1.51906,-0.397177 3.26307,1.746341 8.8413,8.969837 11.93223,15.451589 1.91256,4.010706 2.49725,4.470113 3.18691,2.504057 0.72072,-2.054589 1.1414,-1.822315 2.86774,1.583374 1.11272,2.19515 2.76316,7.139808 3.66764,10.988131 0.90448,3.848322 2.13439,6.694188 2.73313,6.324145 1.58094,-0.977067 3.98983,11.560532 3.92168,20.411198 -0.0321,4.180571 -0.89941,9.961364 -1.92717,12.846211 -1.02775,2.88484 -1.53773,5.78058 -1.13329,6.43499 1.45832,2.35961 -6.32736,20.6464 -10.29567,24.18218 -2.15526,1.92036 -3.91868,4.07152 -3.91868,4.78036 0,3.99212 -16.71354,7.57624 -28.05545,6.01634 -10.63091,-1.46212 -18.29097,-9.83312 -21.02076,-22.97167 -0.85773,-4.1283 -1.61441,-5.02071 -4.25712,-5.02071 -2.6427,0 -3.39938,0.89241 -4.25712,5.02071 -1.38097,6.64667 -5.36579,14.24747 -9.48425,18.09064 -5.30747,4.95271 -17.00829,6.69841 -28.925292,4.31552 z m 23.928532,-4.72324 c 4.76738,-2.46531 10.73813,-14.10568 10.73813,-20.93468 0,-6.38473 -3.28731,-8.73095 -14.93799,-10.66153 -10.692972,-1.77188 -21.954214,0.27562 -26.942549,4.89865 -2.841746,2.63364 -3.452789,4.39859 -3.452789,9.97309 0,8.41256 2.915331,15.67519 6.94076,17.29071 5.029444,2.01848 23.382868,1.64267 27.654438,-0.56624 z M 97.822787,123.20755 c 4.222813,-5.53641 4.216913,-5.87679 -0.1816,-10.46786 -3.574515,-3.73099 -3.575777,-3.73962 -0.547057,-3.73962 1.669652,0 4.10306,1.3181 5.40758,2.92911 l 2.37186,2.92912 1.82926,-2.92912 c 1.0061,-1.61101 2.88494,-2.92911 4.1752,-2.92911 3.08585,0 2.96978,1.68879 -0.32073,4.66666 -3.30579,2.99171 -3.30579,4.44046 0,8.66667 3.26922,4.17946 3.31553,5.33333 0.21402,5.33333 -1.34895,0 -3.16391,-1.56105 -4.03323,-3.46901 -1.30295,-2.85966 -1.92606,-3.18229 -3.54735,-1.83674 -1.08172,0.89775 -1.96677,2.45881 -1.96677,3.46901 0,1.08008 -1.401156,1.83674 -3.401183,1.83674 h -3.401189 z m 84.128453,11.85312 c 2.8816,-2.88159 3.27029,-4.43526 3.25232,-13 -0.0107,-5.35 -0.46123,-10.39355 -1,-11.20789 -4.42922,-6.69469 -26.66283,-9.01109 -36.97959,-3.85271 -4.16532,2.08266 -5.43227,3.53739 -5.78507,6.64256 -0.94934,8.35553 5.53282,20.64397 12.34299,23.39897 1.52648,0.61752 7.75268,1.1608 13.83601,1.20728 10.02463,0.0767 11.36715,-0.22201 14.33334,-3.18821 z m -31.39394,-8.20146 c 0,-0.44414 1.51894,-2.61268 3.37542,-4.81898 l 3.37541,-4.01145 -3.44327,-4.51436 -3.44326,-4.51435 h 3.24568 c 2.12433,0 3.4866,0.92129 3.94302,2.66666 0.38355,1.46667 1.3131,2.66667 2.06566,2.66667 0.75257,0 1.74917,-1.2 2.21468,-2.66667 0.56262,-1.77266 2.01737,-2.66666 4.3393,-2.66666 h 3.49294 l -3.58279,3.73962 c -4.40807,4.60104 -4.42764,5.37648 -0.24945,9.88248 1.83333,1.97716 3.33333,3.92103 3.33333,4.3197 0,0.39868 -1.5,0.72486 -3.33333,0.72486 -1.94239,0 -3.33334,-0.76644 -3.33334,-1.83674 0,-1.0102 -0.88504,-2.57126 -1.96676,-3.46901 -1.62129,-1.34555 -2.24441,-1.02292 -3.54736,1.83674 -1.34698,2.95633 -6.48588,5.06507 -6.48588,2.66149 z m -6.95001,-22.74428 c 2.41083,-1.07475 8.11083,-2.48935 12.66667,-3.14356 7.98185,-1.146188 7.87084,-1.169122 -3.04999,-0.63015 -12.45057,0.61447 -12.33652,-1.363639 0.15712,-2.725139 5.36297,-0.584433 10.36483,0.06503 19.79573,2.570339 6.94075,1.84381 12.7566,3.21531 12.92414,3.04778 0.16752,-0.16753 -0.20676,-5.755807 -0.83174,-12.418388 -1.30317,-13.892379 -4.41437,-21.260946 -11.14429,-26.394108 -6.13884,-4.682319 -11.10288,-5.369807 -20.81229,-2.882369 -10.4933,2.688255 -30.62066,2.746108 -39.30058,0.11296 -11.58624,-3.514808 -14.632473,-2.841801 -22.696866,5.014432 -7.956125,7.750758 -9.438939,11.489045 -10.930824,27.55745 -0.763028,8.218223 -0.60058,9.768863 0.960643,9.169783 9.237913,-3.544811 26.342167,-6.559994 32.703947,-5.765142 11.02627,1.377642 9.76943,3.227952 -1.8091,2.663352 l -10.34922,-0.50466 8.31156,1.18976 c 4.57136,0.65436 9.97136,2.04289 12,3.0856 4.83544,2.48541 15.88644,2.51228 21.40509,0.0521 z"
     style="fill:#705654;stroke-width:1.33333325" />
  <path
     inkscape:connector-curvature="0"
     id="path2074"
     d="m 45.891702,262.00006 c -0.950498,-5.98458 -5.463144,-24.71345 -6.783924,-28.15534 -0.600051,-1.56371 1.319656,-2.65818 8.334961,-4.75195 11.726385,-3.49983 32.989311,-7.13515 33.460768,-5.72077 1.012576,3.03772 12.896047,22.18328 19.296003,31.08794 4.00298,5.5696 7.70648,10.8196 8.22999,11.66667 0.70944,1.14789 -7.01802,1.54012 -30.342971,1.54012 H 46.791704 Z m 77.998938,1.87858 c 0,-2.08346 0.89292,-6.73346 1.98427,-10.33334 1.96099,-6.46844 1.94526,-6.57398 -1.34097,-8.99534 l -3.32525,-2.45011 2.63981,-3.70728 c 1.4519,-2.039 4.1751,-4.71324 6.05157,-5.94275 3.24279,-2.12476 3.60778,-2.09586 7.37054,0.58346 2.17733,1.55038 4.63835,4.08866 5.46892,5.6406 1.28209,2.39564 0.99581,3.26409 -1.89599,5.75152 -3.02284,2.60013 -3.28385,3.50994 -2.31958,8.08557 0.5976,2.83567 1.47676,7.40576 1.95369,10.15576 l 0.86716,5 h -8.72709 c -8.69938,0 -8.72708,-0.012 -8.72708,-3.78809 z m 34.1288,2.12142 c 0.52405,-0.91666 3.79856,-5.56666 7.27665,-10.33333 5.95665,-8.16345 19.25592,-29.31745 20.18629,-32.10859 0.53055,-1.59164 20.93092,1.77648 33.52283,5.53463 7.51021,2.24148 8.957,3.11815 8.2194,4.98047 -1.59994,4.03961 -5.73627,20.92008 -6.69852,27.33688 l -0.93824,6.25661 h -31.26063 c -24.6278,0 -31.05846,-0.35363 -30.30778,-1.66667 z m -31.81618,-57.06008 c -13.54671,-3.34624 -30.664936,-18.12327 -38.133256,-32.91793 -2.298649,-4.5536 -4.179362,-8.58781 -4.179362,-8.96492 0,-0.37709 4.951853,4.25579 11.004117,10.29532 6.789991,6.7757 14.321511,12.76643 19.666661,15.64328 7.69786,4.14312 9.77618,4.66234 18.66255,4.66234 8.88045,0 10.95575,-0.5176 18.53684,-4.62323 4.95647,-2.68424 13.17809,-9.1714 19.6032,-15.46763 10.06273,-9.86088 10.88683,-10.40857 9.08665,-6.03909 -9.7792,23.73668 -36.10604,41.89306 -54.2474,37.41186 z m -4.78831,-31.79366 c -3.17686,-2.01296 0.75172,-3.10921 11.14235,-3.10921 10.39064,0 14.31922,1.09625 11.14235,3.10921 -0.99496,0.63044 -6.00901,1.14624 -11.14235,1.14624 -5.13333,0 -10.14739,-0.5158 -11.14235,-1.14624 z M 83.574251,138.91297 c -2.007348,-1.08917 -4.022392,-3.46514 -4.477877,-5.27994 -0.455484,-1.8148 -1.55852,-3.29963 -2.451191,-3.29963 -5.713985,0 -17.743798,-25.07877 -12.898093,-26.88889 0.654379,-0.24444 0.301495,-4.644446 -0.784186,-9.77778 -2.587766,-12.235493 -1.648631,-24.284522 2.524916,-32.394512 1.775268,-3.449684 3.710052,-6.090695 4.299517,-5.868911 0.589467,0.221784 2.460845,-2.594962 4.15862,-6.259434 3.181233,-6.866364 11.694494,-17.026613 18.071091,-21.56715 l 3.625168,-2.581347 -0.732648,3.002344 c -0.679873,2.786081 -0.426274,2.715905 3.520654,-0.974236 3.224348,-3.014573 4.513708,-3.555216 5.329768,-2.234815 0.85921,1.390232 1.51923,1.299008 3.27022,-0.45199 2.03612,-2.03612 2.19775,-2.019247 2.24926,0.234814 0.042,1.836276 1.18011,1.154959 4.66667,-2.793574 3.10365,-3.514885 4.61116,-4.495667 4.61116,-3 0,1.222181 0.55325,2.222146 1.22944,2.222146 1.75305,0 10.43411,-10.411517 12.41794,-14.8932998 1.86112,-4.2045636 3.03578,-4.724194 4.14501,-1.8336054 0.4094,1.0668681 3.15352,3.1688277 6.09807,4.6710216 2.94454,1.5021936 5.98293,3.9069586 6.75197,5.3439216 0.76904,1.436963 2.20045,2.304828 3.18092,1.928588 0.98045,-0.376239 3.65297,1.446104 5.93892,4.049652 2.28595,2.603548 4.86796,4.733722 5.73781,4.733722 0.86986,0 3.58818,1.530535 6.04074,3.401188 2.45254,1.870654 4.45918,2.952954 4.45918,2.405111 0,-2.287244 9.81486,8.663008 12.722,14.193701 2.16032,4.109888 3.18675,5.15995 3.25832,3.333333 0.10147,-2.587677 0.1605,-2.592713 1.99515,-0.17004 1.03985,1.373144 2.94328,6.582839 4.22984,11.577099 1.28655,4.994261 2.74732,8.82823 3.24616,8.519934 1.47346,-0.910655 3.88186,10.659693 3.88186,18.649133 0,4.067398 -1.14225,10.401422 -2.53833,14.075606 -1.39608,3.6742 -1.99608,6.34522 -1.33333,5.93562 4.28686,-2.64943 -4.87377,19.23898 -10.22812,24.43906 -2.51179,2.43941 -4.56688,4.98232 -4.56688,5.65092 0,2.47319 -10.50684,4.26007 -22.32836,3.79735 -10.7408,-0.42043 -12.53489,-0.85569 -15.69573,-3.80801 -4.33386,-4.04796 -8.31271,-11.54512 -9.71879,-18.31263 -0.85473,-4.11386 -1.61871,-5.02071 -4.22968,-5.02071 -2.68002,0 -3.44004,0.99381 -4.7815,6.25233 -2.10437,8.24913 -6.6631,15.43082 -11.77291,18.54671 -5.34356,3.25843 -27.393028,3.55612 -33.122749,0.4472 z m 31.102979,-2.64158 c 6.80376,-3.51837 13.40771,-19.25889 10.42126,-24.83911 -5.03039,-9.39939 -36.707866,-9.97429 -43.145671,-0.78303 -3.889405,5.5529 -1.664502,22.63374 3.352058,25.73415 5.725121,3.53832 22.436623,3.47459 29.372353,-0.112 z M 98.591007,122.28607 c 2.966503,-4.16607 2.885143,-5.15738 -0.844156,-10.286 -2.051359,-2.82107 -2.031851,-3 0.327099,-3 1.379712,0 3.25798,1.2 4.17392,2.66666 0.91595,1.46667 2.21985,2.66667 2.89755,2.66667 0.6777,0 1.61305,-1.2 2.07855,-2.66667 0.47161,-1.48591 2.01738,-2.66666 3.49104,-2.66666 2.49724,0 2.45884,0.24364 -0.68884,4.37045 l -3.33351,4.37046 3.36229,4.29621 c 2.99753,3.83013 3.09731,4.29621 0.91972,4.29621 -1.34342,0 -3.19199,-1.2 -4.10794,-2.66667 -0.91594,-1.46666 -2.21984,-2.66666 -2.89754,-2.66666 -0.6777,0 -1.61305,1.2 -2.07855,2.66666 -0.47484,1.49607 -2.017377,2.66667 -3.513974,2.66667 -2.620848,0 -2.617091,-0.071 0.214341,-4.04733 z m 82.332673,13.92989 c 3.98889,-2.61363 5.63362,-7.10682 5.63362,-15.39035 0,-12.81987 -5.10958,-16.41431 -23.33333,-16.41431 -22.80923,0 -27.90724,7.3327 -17.47465,25.13457 4.61389,7.87301 11.36345,10.40489 24.7815,9.29597 4.01878,-0.33212 8.69555,-1.51377 10.39286,-2.62588 z m -27.08382,-13.82956 3.78147,-3.947 -3.59987,-4.71967 -3.59986,-4.71966 h 3.24568 c 2.12433,0 3.4866,0.92129 3.94302,2.66666 0.38355,1.46667 1.4097,2.66667 2.28034,2.66667 0.87064,0 1.89678,-1.2 2.28033,-2.66667 0.38596,-1.47588 1.81869,-2.66666 3.20851,-2.66666 3.2442,0 3.16873,1.12817 -0.32419,4.84622 -2.91229,3.09999 -2.78773,4.30683 0.97913,9.48711 2.06914,2.84552 2.0404,3 -0.55797,3 -1.56844,0 -3.10124,-1.1399 -3.58581,-2.66667 -0.46551,-1.46666 -1.40086,-2.66666 -2.07855,-2.66666 -0.67771,0 -1.9816,1.2 -2.89755,2.66666 -0.91594,1.46667 -2.83329,2.66667 -4.26076,2.66667 -2.30452,0 -2.1716,-0.44235 1.18608,-3.947 z m -9.65034,-18.20756 c 4.82725,-2.49626 26.74393,-4.64839 31.67994,-3.11083 1.84498,0.57471 5.09367,1.42834 7.21931,1.89695 l 3.8648,0.85204 -0.74533,-9.855038 c -1.0592,-14.004975 -3.423,-20.67719 -9.61483,-27.139331 -6.58627,-6.873808 -11.00365,-8.123272 -20.65312,-5.841757 -12.10228,2.86146 -32.06021,3.259621 -40.49398,0.807857 -12.49386,-3.632061 -15.690252,-3.021184 -24.018383,4.59026 -6.703749,6.126848 -7.527128,7.516176 -9.440784,15.929873 -1.786841,7.856141 -2.884514,21.357866 -1.736369,21.357866 0.198073,0 4.848073,-1.28507 10.333333,-2.85573 10.582743,-3.03026 25.745873,-3.88942 29.656573,-1.680371 1.6603,0.937861 -1.47041,1.242121 -10.66667,1.036641 l -13.016702,-0.290832 10.692662,1.024872 c 5.88096,0.56368 12.48096,1.99247 14.66667,3.17509 5.17735,2.80133 16.9491,2.85548 22.27288,0.10244 z m 0.14166,-4.14625 c 1.23703,-2.001537 14.0822,-3.192636 19.55946,-1.813694 4.094,1.030698 3.52133,1.193854 -4.66667,1.329559 -5.13333,0.08508 -10.77716,0.541005 -12.54183,1.013175 -2.06745,0.55319 -2.90353,0.36504 -2.35096,-0.52904 z"
     style="fill:#662663;stroke-width:1.33333325" />
  <path
     inkscape:connector-curvature="0"
     id="path2072"
     d="m 45.939011,261.52452 c -0.898968,-5.99475 -5.179836,-23.37634 -6.792032,-27.57764 -0.975337,-2.5417 10.436392,-6.41227 26.076997,-8.8447 5.5,-0.85534 11.279773,-1.82205 12.843941,-2.14822 2.208893,-0.4606 3.242585,0.37152 4.629193,3.72653 0.981888,2.37577 7.321897,12.56957 14.088909,22.65291 11.405821,16.9955 12.065311,18.33333 9.037471,18.33333 -1.86309,0 -3.26619,-0.77807 -3.26619,-1.81123 0,-2.07616 -13.966457,-11.77786 -15.19159,-10.55273 -0.44462,0.44463 -0.808402,3.4084 -0.808402,6.58619 0,5.14944 -0.335371,5.77777 -3.083878,5.77777 -1.696133,0 -4.808388,-1.8 -6.916121,-4 -2.107734,-2.2 -4.244988,-4 -4.749455,-4 -0.504466,0 -1.277212,1.8 -1.717212,4 -0.700794,3.50397 -1.362584,4 -5.33674,4 -2.495208,0 -5.315138,-0.93791 -6.266514,-2.08425 -1.568655,-1.89011 -1.83842,-1.89011 -2.89618,0 -0.641523,1.14634 -2.868465,2.08425 -4.94876,2.08425 -3.47358,0 -3.857548,-0.50143 -4.703437,-6.14221 z m 11.303172,-5.52446 c 0.01,-2.75 0.35578,-6.25741 0.76837,-7.79425 0.678395,-2.52692 1.361024,-2.15389 7.134935,3.89884 l 6.384768,6.69311 0.970294,-9.06048 0.970295,-9.06048 6.512506,6.41458 c 3.581879,3.52802 6.84154,6.08555 7.243692,5.68339 0.402152,-0.40215 0.332413,-4.26597 -0.154976,-8.58628 -0.799292,-7.08505 -1.488822,-8.44091 -7.033794,-13.83089 l -6.147631,-5.97579 -0.666667,7.90725 -0.666666,7.90724 -5.682819,-6.47085 c -3.12555,-3.55897 -5.898824,-6.22813 -6.162829,-5.93145 -0.264007,0.29666 -1.006737,4.12725 -1.650514,8.5124 l -1.170504,7.97301 -5.319332,-7.25333 -5.319334,-7.25332 -0.937161,5.28032 c -1.91985,10.81716 -1.332756,14.04378 3.665093,20.143 2.615763,3.19218 5.315763,5.80398 6,5.80398 0.684236,0 1.25226,-2.25 1.262274,-5 z m 66.648457,7.87858 c 0,-2.08346 0.89292,-6.73346 1.98427,-10.33334 1.96099,-6.46844 1.94526,-6.57398 -1.34097,-8.99534 l -3.32525,-2.45011 2.63981,-3.70728 c 1.4519,-2.039 4.1751,-4.71324 6.05157,-5.94275 3.24279,-2.12476 3.60778,-2.09586 7.37054,0.58346 2.17733,1.55038 4.63835,4.08866 5.46892,5.6406 1.28209,2.39564 0.99581,3.26409 -1.89599,5.75152 -3.02284,2.60013 -3.28385,3.50994 -2.31958,8.08557 0.5976,2.83567 1.47676,7.40576 1.95369,10.15576 l 0.86716,5 h -8.72709 c -8.69938,0 -8.72708,-0.012 -8.72708,-3.78809 z m 35.1715,0.78809 c 7.29702,-10.11865 22.28088,-33.15919 24.25092,-37.29039 2.60955,-5.4723 0.9029,-5.35249 21.08216,-1.48002 17.74504,3.40533 23.85188,5.59605 22.82508,8.18814 -1.59608,4.02926 -5.73309,20.91644 -6.69421,27.32566 -0.87118,5.80938 -1.21634,6.25661 -4.8287,6.25661 -2.27656,0 -4.21798,-0.85355 -4.68001,-2.05756 -0.70549,-1.83849 -1.04267,-1.82851 -3.16677,0.0937 -1.46428,1.32518 -4.08922,1.98732 -6.83526,1.72423 -3.74437,-0.35873 -4.52559,-1.01409 -4.87994,-4.09377 -0.23204,-2.01667 -0.75284,-3.66667 -1.15732,-3.66667 -0.40448,0 -2.78551,1.8 -5.29116,4 -6.32788,5.55596 -9.79629,5.35853 -9.79629,-0.55761 0,-8.75679 -0.84458,-9.12748 -8.78452,-3.85566 -3.96851,2.63495 -7.21548,5.60587 -7.21548,6.60204 0,1.06556 -1.43927,1.81123 -3.49596,1.81123 -3.37758,0 -3.42271,-0.1016 -1.33254,-3 z m 62.05756,-19.66667 c -0.0272,-2.56666 -0.47113,-7.04281 -0.98657,-9.94698 l -0.93716,-5.28032 -5.31934,7.26322 -5.31933,7.26323 -1.18607,-8.31624 c -0.65233,-4.57393 -1.57528,-8.31624 -2.05098,-8.31624 -0.4757,0 -3.24198,2.85 -6.14727,6.33333 l -5.28234,6.33334 -0.66667,-7.9758 -0.66667,-7.97579 -6.16616,5.97579 c -5.51966,5.34926 -6.26512,6.79138 -7.10997,13.75472 -0.51909,4.27841 -0.58049,8.14224 -0.13644,8.58628 0.44404,0.44405 3.71796,-2.05947 7.27536,-5.56338 l 6.46799,-6.37074 0.97744,9.1178 0.97742,9.11778 6.38384,-6.94073 c 5.89699,-6.41143 6.44396,-6.71647 7.17231,-4 0.43365,1.6174 0.8197,5.64073 0.8579,8.94073 l 0.0695,6 5.92135,-6.66666 c 4.65656,-5.24267 5.9108,-7.66347 5.87193,-11.33334 z m -94.91644,-36.06008 c -13.54671,-3.34624 -30.664936,-18.12327 -38.133256,-32.91793 -2.298649,-4.5536 -4.179362,-8.58781 -4.179362,-8.96492 0,-0.37709 4.951853,4.25579 11.004117,10.29532 6.789991,6.7757 14.321511,12.76643 19.666661,15.64328 7.69786,4.14312 9.77618,4.66234 18.66255,4.66234 8.88045,0 10.95575,-0.5176 18.53684,-4.62323 4.95647,-2.68424 13.17809,-9.1714 19.6032,-15.46763 10.06273,-9.86088 10.88683,-10.40857 9.08665,-6.03909 -9.7792,23.73668 -36.10604,41.89306 -54.2474,37.41186 z m -4.78831,-31.79366 c -3.17686,-2.01296 0.75172,-3.10921 11.14235,-3.10921 10.39064,0 14.31922,1.09625 11.14235,3.10921 -0.99496,0.63044 -6.00901,1.14624 -11.14235,1.14624 -5.13333,0 -10.14739,-0.5158 -11.14235,-1.14624 z M 83.574251,138.91297 c -2.007348,-1.08917 -4.022392,-3.46514 -4.477877,-5.27994 -0.455484,-1.8148 -1.55852,-3.29963 -2.451191,-3.29963 -5.713985,0 -17.743798,-25.07877 -12.898093,-26.88889 0.654379,-0.24444 0.301495,-4.644446 -0.784186,-9.77778 -2.587766,-12.235493 -1.648631,-24.284522 2.524916,-32.394512 1.775268,-3.449684 3.710052,-6.090695 4.299517,-5.868911 0.589467,0.221784 2.460845,-2.594962 4.15862,-6.259434 3.181233,-6.866364 11.694494,-17.026613 18.071091,-21.56715 l 3.625168,-2.581347 -0.732648,3.002344 c -0.679873,2.786081 -0.426274,2.715905 3.520654,-0.974236 3.224348,-3.014573 4.513708,-3.555216 5.329768,-2.234815 0.85921,1.390232 1.51923,1.299008 3.27022,-0.45199 2.03612,-2.03612 2.19775,-2.019247 2.24926,0.234814 0.042,1.836276 1.18011,1.154959 4.66667,-2.793574 3.10365,-3.514885 4.61116,-4.495667 4.61116,-3 0,1.222181 0.55325,2.222146 1.22944,2.222146 1.75305,0 10.43411,-10.411517 12.41794,-14.8932998 1.86112,-4.2045636 3.03578,-4.724194 4.14501,-1.8336054 0.4094,1.0668681 3.15352,3.1688277 6.09807,4.6710216 2.94454,1.5021936 5.98293,3.9069586 6.75197,5.3439216 0.76904,1.436963 2.20045,2.304828 3.18092,1.928588 0.98045,-0.376239 3.65297,1.446104 5.93892,4.049652 2.28595,2.603548 4.86796,4.733722 5.73781,4.733722 0.86986,0 3.58818,1.530535 6.04074,3.401188 2.45254,1.870654 4.45918,2.952954 4.45918,2.405111 0,-2.287244 9.81486,8.663008 12.722,14.193701 2.16032,4.109888 3.18675,5.15995 3.25832,3.333333 0.10147,-2.587677 0.1605,-2.592713 1.99515,-0.17004 1.03985,1.373144 2.94328,6.582839 4.22984,11.577099 1.28655,4.994261 2.74732,8.82823 3.24616,8.519934 1.47346,-0.910655 3.88186,10.659693 3.88186,18.649133 0,4.067398 -1.14225,10.401422 -2.53833,14.075606 -1.39608,3.6742 -1.99608,6.34522 -1.33333,5.93562 4.28686,-2.64943 -4.87377,19.23898 -10.22812,24.43906 -2.51179,2.43941 -4.56688,4.98232 -4.56688,5.65092 0,2.47319 -10.50684,4.26007 -22.32836,3.79735 -10.7408,-0.42043 -12.53489,-0.85569 -15.69573,-3.80801 -4.33386,-4.04796 -8.31271,-11.54512 -9.71879,-18.31263 -0.85473,-4.11386 -1.61871,-5.02071 -4.22968,-5.02071 -2.68002,0 -3.44004,0.99381 -4.7815,6.25233 -2.10437,8.24913 -6.6631,15.43082 -11.77291,18.54671 -5.34356,3.25843 -27.393028,3.55612 -33.122749,0.4472 z m 31.102979,-2.64158 c 6.80376,-3.51837 13.40771,-19.25889 10.42126,-24.83911 -5.03039,-9.39939 -36.707866,-9.97429 -43.145671,-0.78303 -3.889405,5.5529 -1.664502,22.63374 3.352058,25.73415 5.725121,3.53832 22.436623,3.47459 29.372353,-0.112 z M 98.591007,122.28607 c 2.966503,-4.16607 2.885143,-5.15738 -0.844156,-10.286 -2.051359,-2.82107 -2.031851,-3 0.327099,-3 1.379712,0 3.25798,1.2 4.17392,2.66666 0.91595,1.46667 2.21985,2.66667 2.89755,2.66667 0.6777,0 1.61305,-1.2 2.07855,-2.66667 0.47161,-1.48591 2.01738,-2.66666 3.49104,-2.66666 2.49724,0 2.45884,0.24364 -0.68884,4.37045 l -3.33351,4.37046 3.36229,4.29621 c 2.99753,3.83013 3.09731,4.29621 0.91972,4.29621 -1.34342,0 -3.19199,-1.2 -4.10794,-2.66667 -0.91594,-1.46666 -2.21984,-2.66666 -2.89754,-2.66666 -0.6777,0 -1.61305,1.2 -2.07855,2.66666 -0.47484,1.49607 -2.017377,2.66667 -3.513974,2.66667 -2.620848,0 -2.617091,-0.071 0.214341,-4.04733 z m 82.332673,13.92989 c 3.98889,-2.61363 5.63362,-7.10682 5.63362,-15.39035 0,-12.81987 -5.10958,-16.41431 -23.33333,-16.41431 -22.80923,0 -27.90724,7.3327 -17.47465,25.13457 4.61389,7.87301 11.36345,10.40489 24.7815,9.29597 4.01878,-0.33212 8.69555,-1.51377 10.39286,-2.62588 z m -27.08382,-13.82956 3.78147,-3.947 -3.59987,-4.71967 -3.59986,-4.71966 h 3.24568 c 2.12433,0 3.4866,0.92129 3.94302,2.66666 0.38355,1.46667 1.4097,2.66667 2.28034,2.66667 0.87064,0 1.89678,-1.2 2.28033,-2.66667 0.38596,-1.47588 1.81869,-2.66666 3.20851,-2.66666 3.2442,0 3.16873,1.12817 -0.32419,4.84622 -2.91229,3.09999 -2.78773,4.30683 0.97913,9.48711 2.06914,2.84552 2.0404,3 -0.55797,3 -1.56844,0 -3.10124,-1.1399 -3.58581,-2.66667 -0.46551,-1.46666 -1.40086,-2.66666 -2.07855,-2.66666 -0.67771,0 -1.9816,1.2 -2.89755,2.66666 -0.91594,1.46667 -2.83329,2.66667 -4.26076,2.66667 -2.30452,0 -2.1716,-0.44235 1.18608,-3.947 z m -9.65034,-18.20756 c 4.82725,-2.49626 26.74393,-4.64839 31.67994,-3.11083 1.84498,0.57471 5.09367,1.42834 7.21931,1.89695 l 3.8648,0.85204 -0.74533,-9.855038 c -1.0592,-14.004975 -3.423,-20.67719 -9.61483,-27.139331 -6.58627,-6.873808 -11.00365,-8.123272 -20.65312,-5.841757 -12.10228,2.86146 -32.06021,3.259621 -40.49398,0.807857 -12.49386,-3.632061 -15.690252,-3.021184 -24.018383,4.59026 -6.703749,6.126848 -7.527128,7.516176 -9.440784,15.929873 -1.786841,7.856141 -2.884514,21.357866 -1.736369,21.357866 0.198073,0 4.848073,-1.28507 10.333333,-2.85573 10.582743,-3.03026 25.745873,-3.88942 29.656573,-1.680371 1.6603,0.937861 -1.47041,1.242121 -10.66667,1.036641 l -13.016702,-0.290832 10.692662,1.024872 c 5.88096,0.56368 12.48096,1.99247 14.66667,3.17509 5.17735,2.80133 16.9491,2.85548 22.27288,0.10244 z m 0.14166,-4.14625 c 1.23703,-2.001537 14.0822,-3.192636 19.55946,-1.813694 4.094,1.030698 3.52133,1.193854 -4.66667,1.329559 -5.13333,0.08508 -10.77716,0.541005 -12.54183,1.013175 -2.06745,0.55319 -2.90353,0.36504 -2.35096,-0.52904 z"
     style="fill:#67493b;stroke-width:1.33333325" />
  <path
     inkscape:connector-curvature="0"
     id="path2070"
     d="m 45.939011,261.52452 c -0.898968,-5.99475 -5.179836,-23.37634 -6.792032,-27.57764 -0.975337,-2.5417 10.436392,-6.41227 26.076997,-8.8447 5.5,-0.85534 11.279773,-1.82205 12.843941,-2.14822 2.208893,-0.4606 3.242585,0.37152 4.629193,3.72653 0.981888,2.37577 7.321897,12.56957 14.088909,22.65291 11.405821,16.9955 12.065311,18.33333 9.037471,18.33333 -1.86309,0 -3.26619,-0.77807 -3.26619,-1.81123 0,-2.07616 -13.966457,-11.77786 -15.19159,-10.55273 -0.44462,0.44463 -0.808402,3.4084 -0.808402,6.58619 0,5.14944 -0.335371,5.77777 -3.083878,5.77777 -1.696133,0 -4.808388,-1.8 -6.916121,-4 -2.107734,-2.2 -4.244988,-4 -4.749455,-4 -0.504466,0 -1.277212,1.8 -1.717212,4 -0.700794,3.50397 -1.362584,4 -5.33674,4 -2.495208,0 -5.315138,-0.93791 -6.266514,-2.08425 -1.568655,-1.89011 -1.83842,-1.89011 -2.89618,0 -0.641523,1.14634 -2.868465,2.08425 -4.94876,2.08425 -3.47358,0 -3.857548,-0.50143 -4.703437,-6.14221 z m 11.303172,-5.52446 c 0.01,-2.75 0.35578,-6.25741 0.76837,-7.79425 0.678395,-2.52692 1.361024,-2.15389 7.134935,3.89884 l 6.384768,6.69311 0.970294,-9.06048 0.970295,-9.06048 6.512506,6.41458 c 3.581879,3.52802 6.84154,6.08555 7.243692,5.68339 0.402152,-0.40215 0.332413,-4.26597 -0.154976,-8.58628 -0.799292,-7.08505 -1.488822,-8.44091 -7.033794,-13.83089 l -6.147631,-5.97579 -0.666667,7.90725 -0.666666,7.90724 -5.682819,-6.47085 c -3.12555,-3.55897 -5.898824,-6.22813 -6.162829,-5.93145 -0.264007,0.29666 -1.006737,4.12725 -1.650514,8.5124 l -1.170504,7.97301 -5.319332,-7.25333 -5.319334,-7.25332 -0.937161,5.28032 c -1.91985,10.81716 -1.332756,14.04378 3.665093,20.143 2.615763,3.19218 5.315763,5.80398 6,5.80398 0.684236,0 1.25226,-2.25 1.262274,-5 z m 66.648457,7.87858 c 0,-2.08346 0.89292,-6.73346 1.98427,-10.33334 1.96099,-6.46844 1.94526,-6.57398 -1.34097,-8.99534 l -3.32525,-2.45011 2.63981,-3.70728 c 1.4519,-2.039 4.1751,-4.71324 6.05157,-5.94275 3.24279,-2.12476 3.60778,-2.09586 7.37054,0.58346 2.17733,1.55038 4.63835,4.08866 5.46892,5.6406 1.28424,2.39962 0.9918,3.26754 -1.95504,5.80232 l -3.46516,2.9806 1.92916,9.10497 c 1.06105,5.00772 1.9396,9.55496 1.95233,10.10496 0.0133,0.55 -3.87685,1 -8.64352,1 -8.633,0 -8.66666,-0.0147 -8.66666,-3.78809 z m 35.1715,0.78809 c 7.29702,-10.11865 22.28088,-33.15919 24.25092,-37.29039 2.60955,-5.4723 0.9029,-5.35249 21.08216,-1.48002 17.74504,3.40533 23.85188,5.59605 22.82508,8.18814 -1.59608,4.02926 -5.73309,20.91644 -6.69421,27.32566 -0.87118,5.80938 -1.21634,6.25661 -4.8287,6.25661 -2.27656,0 -4.21798,-0.85355 -4.68001,-2.05756 -0.70549,-1.83849 -1.04267,-1.82851 -3.16677,0.0937 -1.46428,1.32518 -4.08922,1.98732 -6.83526,1.72423 -3.74437,-0.35873 -4.52559,-1.01409 -4.87994,-4.09377 -0.23204,-2.01667 -0.75284,-3.66667 -1.15732,-3.66667 -0.40448,0 -2.78551,1.8 -5.29116,4 -6.32788,5.55596 -9.79629,5.35853 -9.79629,-0.55761 0,-8.75679 -0.84458,-9.12748 -8.78452,-3.85566 -3.96851,2.63495 -7.21548,5.60587 -7.21548,6.60204 0,1.06556 -1.43927,1.81123 -3.49596,1.81123 -3.37758,0 -3.42271,-0.1016 -1.33254,-3 z m 62.05756,-19.66667 c -0.0272,-2.56666 -0.47113,-7.04281 -0.98657,-9.94698 l -0.93716,-5.28032 -5.31934,7.26322 -5.31933,7.26323 -1.18607,-8.31624 c -0.65233,-4.57393 -1.57528,-8.31624 -2.05098,-8.31624 -0.4757,0 -3.24198,2.85 -6.14727,6.33333 l -5.28234,6.33334 -0.66667,-7.9758 -0.66667,-7.97579 -6.16616,5.97579 c -5.51966,5.34926 -6.26512,6.79138 -7.10997,13.75472 -0.51909,4.27841 -0.58049,8.14224 -0.13644,8.58628 0.44404,0.44405 3.71796,-2.05947 7.27536,-5.56338 l 6.46799,-6.37074 0.97744,9.1178 0.97742,9.11778 6.38384,-6.94073 c 5.89699,-6.41143 6.44396,-6.71647 7.17231,-4 0.43365,1.6174 0.8197,5.64073 0.8579,8.94073 l 0.0695,6 5.92135,-6.66666 c 4.65656,-5.24267 5.9108,-7.66347 5.87193,-11.33334 z m -95.85186,-36.8038 c -13.10853,-3.5181 -27.089417,-14.90426 -35.054881,-28.54903 -7.439166,-12.74322 -6.398137,-13.19707 4.789348,-2.08802 13.305503,13.21223 24.400883,19.51123 36.883233,20.93912 l 8.67176,0.99198 -9.33333,-0.38124 c -10.91725,-0.44595 -19.15543,-4.06794 -29,-12.75011 -9.26718,-8.17296 -7.736188,-4.46201 2.02691,4.91301 11.35378,10.90245 18.01991,14.18091 28.97309,14.2492 11.38493,0.0709 20.41683,-4.53921 31.66667,-16.16376 8.39674,-8.67642 11.52801,-14.30532 4.6024,-8.27346 -2.05202,1.7872 -1.18427,0.69693 1.92832,-2.42283 3.11258,-3.11975 6.59152,-7.00325 7.73093,-8.63 3.79332,-5.41572 2.22649,0.65417 -2.14307,8.30228 -8.5078,14.89132 -26.51534,28.95613 -39.78525,31.07432 -2.56667,0.40969 -7.94692,-0.13546 -11.95613,-1.21146 z M 95.890642,180.49665 c 0,-0.27686 -1.05,-1.32686 -2.333334,-2.33333 -2.114741,-1.65849 -2.161901,-1.61133 -0.503406,0.50341 1.741825,2.221 2.83674,2.92731 2.83674,1.82992 z m 49.153078,15.78456 c 2.46753,-1.07129 4.86753,-1.92654 5.33333,-1.90056 1.73473,0.0968 -5.89825,3.85806 -7.81975,3.85331 -1.1,-0.003 0.0189,-0.88145 2.48642,-1.95275 z m 7.51358,-2.8319 c 3.4068,-3.22716 11.7771,-8.68567 9.75612,-6.36226 -1.23413,1.41883 -4.23413,3.71494 -6.66666,5.10248 -2.43254,1.38754 -3.82279,1.95443 -3.08946,1.25978 z m -30,-16.3102 c -2.93011,-0.81616 -3.03788,-1.04203 -0.89095,-1.8671 3.5163,-1.35132 20.5981,-1.15782 21.46394,0.24314 1.57081,2.54164 -13.11625,3.70098 -20.57299,1.62396 z M 86.557308,140.05843 c -3.143221,-1.14902 -7.999999,-6.00537 -7.999999,-7.9993 0,-0.99518 -1.05,-2.21141 -2.333334,-2.70274 -3.313269,-1.26848 -7.032755,-6.03921 -6.309094,-8.09224 0.336536,-0.95475 0.0081,-1.36282 -0.729644,-0.90681 -1.719405,1.06265 -6.617304,-9.64127 -6.417069,-14.02394 0.11948,-2.61505 0.268016,-2.7587 0.689322,-0.66667 0.462286,2.29552 6.816588,6.72768 7.97892,5.56535 0.223686,-0.22369 -0.780208,-4.55711 -2.230876,-9.62983 C 65.468212,88.533508 64.565101,77.304521 66.576885,68.918464 l 1.690555,-7.047022 3.084684,5.897644 3.084685,5.897645 0.09189,-6.666667 c 0.09856,-7.150375 4.316227,-18.913954 9.281348,-25.886823 1.670991,-2.346691 2.745041,-4.559833 2.38678,-4.918095 -0.8755,-0.875504 -7.915125,8.186135 -11.501348,14.804919 -3.203025,5.911552 -2.452426,1.256612 0.840039,-5.209607 3.467593,-6.81016 19.565762,-22.593946 18.882925,-18.514157 -0.539907,3.225816 0.54967,3.16243 4.099468,-0.238493 3.673649,-3.519585 4.020809,-3.610109 4.791649,-1.249455 0.45707,1.399775 1.34689,4.045046 1.97738,5.878379 0.63049,1.833333 1.36713,4.833333 1.63699,6.666666 0.48925,3.323867 0.49517,3.321974 2.0831,-0.666666 4.01512,-10.085375 3.58594,-9.754456 6.17003,-4.757391 l 2.35754,4.558991 1.70757,-4.061115 c 0.93917,-2.233613 4.15778,-6.030156 7.15248,-8.436762 2.9947,-2.406607 5.822,-5.563743 6.28288,-7.015856 1.44489,-4.552465 3.17019,0.243676 3.19269,8.875393 0.0177,6.811643 0.28083,7.613808 2.02278,6.168117 1.10129,-0.913996 3.14633,-5.337462 4.54453,-9.829926 l 2.54219,-8.168117 2.7595,5.999999 c 1.51774,3.3 2.81487,7.5 2.88251,9.333334 0.0676,1.833334 0.61208,4.533334 1.20984,6 1.16925,2.868847 0.93173,3.42915 3.93701,-9.287467 0.8726,-3.692337 1.28275,-3.142617 6.19492,8.302894 2.89326,6.741366 5.68052,12.270726 6.19394,12.287467 0.5134,0.01675 1.1134,-3.375458 1.33333,-7.538221 l 0.39987,-7.568658 3.88712,5.625103 c 2.1379,3.093806 4.64741,8.449702 5.57666,11.901991 1.54374,5.735132 1.69734,5.90288 1.77956,1.943558 0.0495,-2.383334 0.54686,-4.333334 1.10523,-4.333334 1.42091,0 6.96165,19.849281 7.09352,25.411987 l 0.1088,4.588013 1.97343,-4.525411 c 1.4452,-3.31407 1.62153,-5.455471 0.65877,-8 -0.72307,-1.911024 -1.71149,-5.853855 -2.19651,-8.761849 -1.05584,-6.330522 -3.63734,-11.621966 -8.99665,-18.440891 -4.57867,-5.825685 -6.15271,-5.721352 -3.08823,0.204698 3.17478,6.139316 2.43355,6.870888 -1.114,1.099496 C 173.15142,33.504961 166.63057,26.3334 164.94028,26.3334 c -0.61498,0 -0.20271,1.770204 0.91612,3.933786 1.11882,2.163583 2.02106,5.013583 2.00496,6.333333 -0.0161,1.319751 -1.21419,-0.211685 -2.6624,-3.403191 -1.44822,-3.191507 -4.5005,-8.291507 -6.78284,-11.333334 l -4.14972,-5.530594 4.12665,4.333333 c 2.26967,2.383333 4.82848,4.333333 5.68627,4.333333 0.85778,0 3.56624,1.530535 6.0188,3.401188 2.45254,1.870653 4.45918,2.958399 4.45918,2.417212 0,-2.179847 8.50639,7.262524 11.98291,13.301416 2.28485,3.968926 3.99071,5.76542 4.4312,4.666666 1.15541,-2.882027 3.2184,1.058371 5.82389,11.123951 1.26858,4.900736 2.73338,8.646602 3.25512,8.324145 1.35464,-0.837209 3.84819,11.749373 3.79668,19.164382 -0.024,3.447237 -1.12588,9.400392 -2.44875,13.229234 -1.32288,3.82884 -1.92127,7.12884 -1.32977,7.33333 0.59149,0.2045 -0.41028,4.45933 -2.22617,9.45519 -2.43663,6.70365 -5.08457,10.89545 -10.10713,16 l -6.80554,6.91662 -13.02081,0.45311 c -18.78073,0.65354 -24.253,-2.99367 -29.38675,-19.58597 -1.91862,-6.20098 -2.85594,-7.53381 -5.29821,-7.53381 -2.44227,0 -3.37959,1.33283 -5.29821,7.53381 -2.81258,9.09029 -6.9222,15.15553 -12.07403,17.81965 -3.78148,1.95548 -24.752107,2.6987 -29.294422,1.03824 z m 28.843422,-3.96346 c 6.80553,-4.45915 13.21109,-21.01279 9.74646,-25.18742 -4.88369,-5.88449 -22.00415,-8.9738 -33.076484,-5.96849 -9.126892,2.47726 -12.181052,6.40739 -12.17508,15.66707 0.0061,9.58872 3.348883,15.71936 9.610898,17.62678 5.798948,1.76637 21.973636,0.43092 25.894206,-2.13794 z m -16.386852,-13.99929 3.316512,-4.23771 -3.378127,-4.42895 c -3.068453,-4.02295 -3.148567,-4.42895 -0.873936,-4.42895 1.377304,0 3.253603,1.2 4.169543,2.66666 0.91595,1.46667 2.21985,2.66667 2.89755,2.66667 0.6777,0 1.61305,-1.2 2.07855,-2.66667 0.47161,-1.48591 2.01738,-2.66666 3.49104,-2.66666 2.48009,0 2.4304,0.28093 -0.7986,4.51435 l -3.44327,4.51436 3.49394,4.15231 c 2.85128,3.38855 3.08227,4.15231 1.25581,4.15231 -1.23098,0 -3.35312,-1.35 -4.71587,-3 l -2.47774,-3 -2.14493,3 c -1.17971,1.65 -3.054383,3 -4.165951,3 -1.534085,0 -1.221952,-1.02103 1.295479,-4.23772 z m 83.481282,12.90592 c 2.7409,-2.74091 3.39626,-4.89158 3.83009,-12.56907 0.47783,-8.45631 0.23395,-9.55178 -2.80236,-12.58808 -8.48875,-8.48875 -34.84557,-7.82512 -42.22215,1.0631 -1.38424,1.66793 -1.41129,3.34706 -0.13564,8.42125 3.97575,15.8144 11.86368,20.95625 30.04111,19.58269 6.22336,-0.47026 8.71087,-1.3318 11.28895,-3.90989 z m -28.70832,-12.55985 c 3.90929,-4.08042 3.81192,-5.10362 -0.99364,-10.44168 -2.46167,-2.73445 -2.49254,-3 -0.34871,-3 1.29363,0 3.40104,1.29546 4.68316,2.87881 2.41325,2.98024 5.42965,2.44831 5.42965,-0.9575 0,-1.05672 1.2,-1.92131 2.66667,-1.92131 1.46667,0 2.66667,0.50701 2.66667,1.12668 0,0.61968 -1.2,2.21267 -2.66667,3.53998 -3.33932,3.02204 -3.32931,3.99109 0.0908,8.79418 2.22717,3.12777 2.36992,3.87249 0.74228,3.87249 -1.10836,0 -2.98041,-1.35 -4.16012,-3 l -2.14492,-3 -2.47773,3 c -1.36276,1.65 -3.54382,3 -4.8468,3 -1.95938,0 -1.7243,-0.673 1.35937,-3.89165 z m 44.05276,-9.28087 c 0.759,-2.3914 0.58865,-2.9051 -0.69936,-2.10906 -1.26551,0.78212 -1.43223,0.39701 -0.64926,-1.49969 3.38336,-8.19587 4.72621,-15.599749 4.67285,-25.763974 -0.0555,-10.562852 -0.19424,-11.143304 -1.78234,-7.454758 -1.67169,3.882711 -1.74528,3.726326 -2.5096,-5.333333 -0.43307,-5.133333 -1.54957,-11.733333 -2.48113,-14.666666 -1.45866,-4.593112 -1.76614,-4.88976 -2.21535,-2.137368 -0.28688,1.75778 0.25612,5.95778 1.20667,9.333333 0.95054,3.375552 1.73241,11.481179 1.73746,18.012505 0.008,10.650128 0.17983,11.475388 1.66334,8 2.82042,-6.607364 2.18669,0.881604 -0.76794,9.074845 -1.3983,3.877516 -2.94682,9.413756 -3.44117,12.302776 -0.80931,4.72975 -0.68471,5.07506 1.25151,3.46816 1.9121,-1.58691 2.01953,-1.43029 0.96973,1.41391 -0.64932,1.75918 -1.55047,4.99851 -2.00255,7.19851 -0.6926,3.37038 -0.43904,3.15963 1.61087,-1.33888 1.33808,-2.93639 2.8844,-6.76152 3.43627,-8.50031 z m -53.54942,-9.10782 c 3.26118,-1.74277 7.72468,-2.29284 18.93379,-2.33334 8.06667,-0.0291 16.7054,0.39976 19.19717,0.95312 l 4.53051,1.0061 -0.88524,-11.672775 C 184.10074,66.0869 172.46345,55.966248 151.03152,61.537207 140.77337,64.203678 123.9348,64.257985 115.3454,61.6523 c -3.59989,-1.092062 -9.10989,-1.985568 -12.24446,-1.985568 -5.015872,0 -6.497078,0.77714 -12.353498,6.481471 -7.396511,7.204426 -9.201916,11.892554 -10.726523,27.853763 l -0.925065,9.684574 4.730728,-1.0099 c 2.6019,-0.55545 11.330726,-0.98824 19.397388,-0.96177 11.16355,0.0366 15.62206,0.5812 18.66667,2.27995 5.30169,2.9581 16.91664,2.9883 22.39954,0.0582 z m -48.862892,-65.695841 3.13002,-4.642846 0.0935,5.97618 0.0935,5.97618 2.387212,-7.005506 c 1.31296,-3.853028 2.0961,-8.528341 1.7403,-10.389584 -0.62868,-3.288743 -0.72273,-3.31676 -3.338279,-0.994495 -1.48026,1.314271 -3.811706,4.189584 -5.180994,6.389585 l -2.489614,4 0.846698,-4.666668 0.846696,-4.666666 -3.089915,2.960773 c -2.589855,2.481612 -3.029615,4.096889 -2.717315,9.980922 0.466679,8.792668 1.586642,10.739513 3.255631,5.6593 0.710893,-2.16388 2.701043,-6.023609 4.422553,-8.577175 z M 63.82252,98.277111 c -2.755816,-12.598655 -2.492159,-27.432202 0.610085,-34.323888 3.134465,-6.963268 3.999032,-6.707298 1.456491,0.431216 -2.26183,6.350381 -2.549615,23.247726 -0.55439,32.551139 0.794235,3.703392 1.202678,7.457602 0.907651,8.342682 -0.295027,0.88508 -1.383953,-2.26544 -2.419837,-7.001149 z m 6.068122,-39.943712 c -0.500582,-1.577196 -0.610149,-3.167628 -0.243482,-3.534295 0.366666,-0.366666 1.076233,0.623766 1.576816,2.200962 0.500582,1.577196 0.610149,3.167628 0.243482,3.534294 -0.366666,0.366667 -1.076233,-0.623765 -1.576816,-2.200961 z m 38.309328,-32 c 0,-2.566667 0.2744,-3.616667 0.60977,-2.333334 0.33537,1.283334 0.33537,3.383334 0,4.666667 -0.33537,1.283333 -0.60977,0.233333 -0.60977,-2.333333 z m 9.19303,-4 c 0,-4.899675 0.22114,-5.449837 1.20585,-3 0.71892,1.788564 0.71892,4.211436 0,6 -0.98471,2.449837 -1.20585,1.899674 -1.20585,-3 z m -4.8357,1.333333 c 1.32732,-1.466667 2.7133,-2.666667 3.07997,-2.666667 0.36667,0 -0.41932,1.2 -1.74663,2.666667 -1.32732,1.466667 -2.7133,2.666667 -3.07997,2.666667 -0.36667,0 0.41932,-1.2 1.74663,-2.666667 z m 37.55171,-5 c -1.52801,-3.357509 -1.65337,-4.210289 -0.38161,-2.595996 1.42069,1.803343 2.06782,1.969915 2.58997,0.666667 0.38284,-0.955535 0.74344,0.212663 0.80133,2.595996 0.0579,2.383333 -0.0836,4.333333 -0.31445,4.333333 -0.23084,0 -1.44369,-2.25 -2.69524,-5 z M 125.3558,16.411366 c 1.90585,-2.242881 4.45585,-5.56147 5.66667,-7.3746413 1.21083,-1.8131713 2.2015,-2.6212195 2.2015,-1.7956629 0,0.8255567 -2.55,4.1441462 -5.66667,7.3746422 -3.11666,3.230495 -4.10734,4.038543 -2.2015,1.795662 z m 13.55274,-5.030882 c -1.94685,-4.3592226 -2.31768,-6.1257995 -1.0682,-5.0888215 1.87976,1.5600548 5.4306,10.4649005 4.51651,11.3265495 -0.25641,0.241712 -1.80815,-2.565265 -3.44831,-6.237728 z"
     style="fill:#571854;stroke-width:1.33333325" />
  <path
     inkscape:connector-curvature="0"
     id="path2068"
     d="m 46.817241,264.3334 c 0.02717,-2.2 0.325998,-2.93859 0.664056,-1.6413 0.338058,1.2973 0.315826,3.0973 -0.0494,4 -0.365236,0.90271 -0.641829,-0.1587 -0.614656,-2.3587 z m 55.843379,-1.86955 c -4.726386,-5.96756 -18.769978,-29.36017 -18.769978,-31.26544 0,-0.69956 3.296741,3.97917 7.32609,10.39717 4.02935,6.41802 9.240558,14.15958 11.580478,17.20347 2.33992,3.04389 4.81664,6.28435 5.50384,7.20101 0.79875,1.06548 0.75001,1.66667 -0.13511,1.66667 -0.76151,0 -3.2389,-2.34129 -5.50532,-5.20288 z m 21.23002,1.41479 c 0,-2.08346 0.89292,-6.73346 1.98427,-10.33334 1.96099,-6.46844 1.94526,-6.57398 -1.34097,-8.99534 l -3.32525,-2.45011 2.63981,-3.70728 c 1.4519,-2.039 4.1751,-4.71324 6.05157,-5.94275 3.24279,-2.12476 3.60778,-2.09586 7.37054,0.58346 2.17733,1.55038 4.63835,4.08866 5.46892,5.6406 1.28424,2.39962 0.9918,3.26754 -1.95504,5.80232 l -3.46516,2.9806 1.92916,9.10497 c 1.06105,5.00772 1.9396,9.55496 1.95233,10.10496 0.0133,0.55 -3.87685,1 -8.64352,1 -8.633,0 -8.66666,-0.0147 -8.66666,-3.78809 z m 45.69866,-14.52343 c 6.76574,-10.18183 12.50603,-18.37232 12.75622,-18.20111 1.60873,1.1009 -20.49612,35.25536 -23.42288,36.19096 -0.89907,0.2874 3.90093,-7.80802 10.66666,-17.98985 z m 49.23263,14.31152 c -0.009,-3.74027 3.36209,-17.79415 3.5188,-14.66667 0.0551,1.1 -0.71212,5.6 -1.70498,10 -0.99286,4.4 -1.80908,6.5 -1.81382,4.66667 z M 45.434503,257.00006 c 0,-1.83333 0.302631,-2.58333 0.672515,-1.66666 0.369882,0.91666 0.369882,2.41666 0,3.33333 -0.369884,0.91667 -0.672515,0.16667 -0.672515,-1.66667 z m -1.438597,-6.1111 c 0.06397,-1.55327 0.379921,-1.8692 0.805556,-0.80556 0.385161,0.96249 0.337792,2.11249 -0.105267,2.55556 -0.443056,0.44305 -0.758188,-0.34446 -0.700293,-1.75 z m -1.333334,-5.33334 c 0.06397,-1.55326 0.379922,-1.8692 0.805556,-0.80556 0.385162,0.9625 0.337792,2.1125 -0.105266,2.55556 -0.443056,0.44306 -0.758188,-0.34445 -0.700294,-1.75 z M 212.97397,228.08925 c 0.96249,-0.38516 2.11249,-0.3378 2.55556,0.1052 0.44305,0.44305 -0.34446,0.75819 -1.75,0.70029 -1.55327,-0.064 -1.8692,-0.37992 -0.80556,-0.80554 z m -142.666661,-4 c 0.9625,-0.38516 2.1125,-0.3378 2.555556,0.1052 0.443054,0.44305 -0.344445,0.75819 -1.75,0.70029 -1.553257,-0.064 -1.8692,-0.37992 -0.805556,-0.80554 z m 54.960531,-15.89299 c -13.10853,-3.5181 -27.089417,-14.90426 -35.054881,-28.54903 -7.439166,-12.74322 -6.398137,-13.19707 4.789348,-2.08802 13.305503,13.21223 24.400883,19.51123 36.883233,20.93912 l 8.67176,0.99198 -9.33333,-0.38124 c -10.91725,-0.44595 -19.15543,-4.06794 -29,-12.75011 -9.26718,-8.17296 -7.736188,-4.46201 2.02691,4.91301 11.35378,10.90245 18.01991,14.18091 28.97309,14.2492 11.38493,0.0709 20.41683,-4.53921 31.66667,-16.16376 8.39674,-8.67642 11.52801,-14.30532 4.6024,-8.27346 -2.05202,1.7872 -1.18427,0.69693 1.92832,-2.42283 3.11258,-3.11975 6.59152,-7.00325 7.73093,-8.63 3.79332,-5.41572 2.22649,0.65417 -2.14307,8.30228 -8.5078,14.89132 -26.51534,28.95613 -39.78525,31.07432 -2.56667,0.40969 -7.94692,-0.13546 -11.95613,-1.21146 z M 95.890642,180.49665 c 0,-0.27686 -1.05,-1.32686 -2.333334,-2.33333 -2.114741,-1.65849 -2.161901,-1.61133 -0.503406,0.50341 1.741825,2.221 2.83674,2.92731 2.83674,1.82992 z m 49.153078,15.78456 c 2.46753,-1.07129 4.86753,-1.92654 5.33333,-1.90056 1.73473,0.0968 -5.89825,3.85806 -7.81975,3.85331 -1.1,-0.003 0.0189,-0.88145 2.48642,-1.95275 z m 7.51358,-2.8319 c 3.4068,-3.22716 11.7771,-8.68567 9.75612,-6.36226 -1.23413,1.41883 -4.23413,3.71494 -6.66666,5.10248 -2.43254,1.38754 -3.82279,1.95443 -3.08946,1.25978 z m -30,-16.3102 c -2.93011,-0.81616 -3.03788,-1.04203 -0.89095,-1.8671 3.5163,-1.35132 20.5981,-1.15782 21.46394,0.24314 1.57081,2.54164 -13.11625,3.70098 -20.57299,1.62396 z M 86.557308,140.05843 c -3.143221,-1.14902 -7.999999,-6.00537 -7.999999,-7.9993 0,-0.99518 -1.05,-2.21141 -2.333334,-2.70274 -3.313269,-1.26848 -7.032755,-6.03921 -6.309094,-8.09224 0.336536,-0.95475 0.0081,-1.36282 -0.729644,-0.90681 -1.719405,1.06265 -6.617304,-9.64127 -6.417069,-14.02394 0.11948,-2.61505 0.268016,-2.7587 0.689322,-0.66667 0.462286,2.29552 6.816588,6.72768 7.97892,5.56535 0.223686,-0.22369 -0.780208,-4.55711 -2.230876,-9.62983 C 65.468212,88.533508 64.565101,77.304521 66.576885,68.918464 l 1.690555,-7.047022 3.084684,5.897644 3.084685,5.897645 0.09189,-6.666667 c 0.09856,-7.150375 4.316227,-18.913954 9.281348,-25.886823 1.670991,-2.346691 2.745041,-4.559833 2.38678,-4.918095 -0.8755,-0.875504 -7.915125,8.186135 -11.501348,14.804919 -3.203025,5.911552 -2.452426,1.256612 0.840039,-5.209607 3.467593,-6.81016 19.565762,-22.593946 18.882925,-18.514157 -0.539907,3.225816 0.54967,3.16243 4.099468,-0.238493 3.673649,-3.519585 4.020809,-3.610109 4.791649,-1.249455 0.45707,1.399775 1.34689,4.045046 1.97738,5.878379 0.63049,1.833333 1.36713,4.833333 1.63699,6.666666 0.48925,3.323867 0.49517,3.321974 2.0831,-0.666666 4.01512,-10.085375 3.58594,-9.754456 6.17003,-4.757391 l 2.35754,4.558991 1.70757,-4.061115 c 0.93917,-2.233613 4.15778,-6.030156 7.15248,-8.436762 2.9947,-2.406607 5.822,-5.563743 6.28288,-7.015856 1.44489,-4.552465 3.17019,0.243676 3.19269,8.875393 0.0177,6.811643 0.28083,7.613808 2.02278,6.168117 1.10129,-0.913996 3.14633,-5.337462 4.54453,-9.829926 l 2.54219,-8.168117 2.7595,5.999999 c 1.51774,3.3 2.81487,7.5 2.88251,9.333334 0.0676,1.833334 0.61208,4.533334 1.20984,6 1.16925,2.868847 0.93173,3.42915 3.93701,-9.287467 0.8726,-3.692337 1.28275,-3.142617 6.19492,8.302894 2.89326,6.741366 5.68052,12.270726 6.19394,12.287467 0.5134,0.01675 1.1134,-3.375458 1.33333,-7.538221 l 0.39987,-7.568658 3.88712,5.625103 c 2.1379,3.093806 4.64741,8.449702 5.57666,11.901991 1.54374,5.735132 1.69734,5.90288 1.77956,1.943558 0.0495,-2.383334 0.54686,-4.333334 1.10523,-4.333334 1.42091,0 6.96165,19.849281 7.09352,25.411987 l 0.1088,4.588013 1.97343,-4.525411 c 1.4452,-3.31407 1.62153,-5.455471 0.65877,-8 -0.72307,-1.911024 -1.71149,-5.853855 -2.19651,-8.761849 -1.05584,-6.330522 -3.63734,-11.621966 -8.99665,-18.440891 -4.57867,-5.825685 -6.15271,-5.721352 -3.08823,0.204698 3.17478,6.139316 2.43355,6.870888 -1.114,1.099496 C 173.15142,33.504961 166.63057,26.3334 164.94028,26.3334 c -0.61498,0 -0.20271,1.770204 0.91612,3.933786 1.11882,2.163583 2.02106,5.013583 2.00496,6.333333 -0.0161,1.319751 -1.21419,-0.211685 -2.6624,-3.403191 -1.44822,-3.191507 -4.5005,-8.291507 -6.78284,-11.333334 l -4.14972,-5.530594 4.12665,4.333333 c 2.26967,2.383333 4.82848,4.333333 5.68627,4.333333 0.85778,0 3.56624,1.530535 6.0188,3.401188 2.45254,1.870653 4.45918,2.958399 4.45918,2.417212 0,-2.179847 8.50639,7.262524 11.98291,13.301416 2.28485,3.968926 3.99071,5.76542 4.4312,4.666666 1.15541,-2.882027 3.2184,1.058371 5.82389,11.123951 1.26858,4.900736 2.73338,8.646602 3.25512,8.324145 1.35464,-0.837209 3.84819,11.749373 3.79668,19.164382 -0.024,3.447237 -1.12588,9.400392 -2.44875,13.229234 -1.32288,3.82884 -1.92127,7.12884 -1.32977,7.33333 0.59149,0.2045 -0.41028,4.45933 -2.22617,9.45519 -2.43663,6.70365 -5.08457,10.89545 -10.10713,16 l -6.80554,6.91662 -13.02081,0.45311 c -18.78073,0.65354 -24.253,-2.99367 -29.38675,-19.58597 -1.91862,-6.20098 -2.85594,-7.53381 -5.29821,-7.53381 -2.44227,0 -3.37959,1.33283 -5.29821,7.53381 -2.81258,9.09029 -6.9222,15.15553 -12.07403,17.81965 -3.78148,1.95548 -24.752107,2.6987 -29.294422,1.03824 z m 28.843422,-3.96346 c 6.80553,-4.45915 13.21109,-21.01279 9.74646,-25.18742 -4.88369,-5.88449 -22.00415,-8.9738 -33.076484,-5.96849 -9.126892,2.47726 -12.181052,6.40739 -12.17508,15.66707 0.0061,9.58872 3.348883,15.71936 9.610898,17.62678 5.798948,1.76637 21.973636,0.43092 25.894206,-2.13794 z m -16.386852,-13.99929 3.316512,-4.23771 -3.378127,-4.42895 c -3.068453,-4.02295 -3.148567,-4.42895 -0.873936,-4.42895 1.377304,0 3.253603,1.2 4.169543,2.66666 0.91595,1.46667 2.21985,2.66667 2.89755,2.66667 0.6777,0 1.61305,-1.2 2.07855,-2.66667 0.47161,-1.48591 2.01738,-2.66666 3.49104,-2.66666 2.48009,0 2.4304,0.28093 -0.7986,4.51435 l -3.44327,4.51436 3.49394,4.15231 c 2.85128,3.38855 3.08227,4.15231 1.25581,4.15231 -1.23098,0 -3.35312,-1.35 -4.71587,-3 l -2.47774,-3 -2.14493,3 c -1.17971,1.65 -3.054383,3 -4.165951,3 -1.534085,0 -1.221952,-1.02103 1.295479,-4.23772 z m 83.481282,12.90592 c 2.7409,-2.74091 3.39626,-4.89158 3.83009,-12.56907 0.47783,-8.45631 0.23395,-9.55178 -2.80236,-12.58808 -8.48875,-8.48875 -34.84557,-7.82512 -42.22215,1.0631 -1.38424,1.66793 -1.41129,3.34706 -0.13564,8.42125 3.97575,15.8144 11.86368,20.95625 30.04111,19.58269 6.22336,-0.47026 8.71087,-1.3318 11.28895,-3.90989 z m -28.70832,-12.55985 c 3.90929,-4.08042 3.81192,-5.10362 -0.99364,-10.44168 -2.46167,-2.73445 -2.49254,-3 -0.34871,-3 1.29363,0 3.40104,1.29546 4.68316,2.87881 2.41325,2.98024 5.42965,2.44831 5.42965,-0.9575 0,-1.05672 1.2,-1.92131 2.66667,-1.92131 1.46667,0 2.66667,0.50701 2.66667,1.12668 0,0.61968 -1.2,2.21267 -2.66667,3.53998 -3.33932,3.02204 -3.32931,3.99109 0.0908,8.79418 2.22717,3.12777 2.36992,3.87249 0.74228,3.87249 -1.10836,0 -2.98041,-1.35 -4.16012,-3 l -2.14492,-3 -2.47773,3 c -1.36276,1.65 -3.54382,3 -4.8468,3 -1.95938,0 -1.7243,-0.673 1.35937,-3.89165 z m 44.05276,-9.28087 c 0.759,-2.3914 0.58865,-2.9051 -0.69936,-2.10906 -1.26551,0.78212 -1.43223,0.39701 -0.64926,-1.49969 3.38336,-8.19587 4.72621,-15.599749 4.67285,-25.763974 -0.0555,-10.562852 -0.19424,-11.143304 -1.78234,-7.454758 -1.67169,3.882711 -1.74528,3.726326 -2.5096,-5.333333 -0.43307,-5.133333 -1.54957,-11.733333 -2.48113,-14.666666 -1.45866,-4.593112 -1.76614,-4.88976 -2.21535,-2.137368 -0.28688,1.75778 0.25612,5.95778 1.20667,9.333333 0.95054,3.375552 1.73241,11.481179 1.73746,18.012505 0.008,10.650128 0.17983,11.475388 1.66334,8 2.82042,-6.607364 2.18669,0.881604 -0.76794,9.074845 -1.3983,3.877516 -2.94682,9.413756 -3.44117,12.302776 -0.80931,4.72975 -0.68471,5.07506 1.25151,3.46816 1.9121,-1.58691 2.01953,-1.43029 0.96973,1.41391 -0.64932,1.75918 -1.55047,4.99851 -2.00255,7.19851 -0.6926,3.37038 -0.43904,3.15963 1.61087,-1.33888 1.33808,-2.93639 2.8844,-6.76152 3.43627,-8.50031 z m -53.54942,-9.10782 c 3.26118,-1.74277 7.72468,-2.29284 18.93379,-2.33334 8.06667,-0.0291 16.7054,0.39976 19.19717,0.95312 l 4.53051,1.0061 -0.88524,-11.672775 C 184.10074,66.0869 172.46345,55.966248 151.03152,61.537207 140.77337,64.203678 123.9348,64.257985 115.3454,61.6523 c -3.59989,-1.092062 -9.10989,-1.985568 -12.24446,-1.985568 -5.015872,0 -6.497078,0.77714 -12.353498,6.481471 -7.396511,7.204426 -9.201916,11.892554 -10.726523,27.853763 l -0.925065,9.684574 4.730728,-1.0099 c 2.6019,-0.55545 11.330726,-0.98824 19.397388,-0.96177 11.16355,0.0366 15.62206,0.5812 18.66667,2.27995 5.30169,2.9581 16.91664,2.9883 22.39954,0.0582 z m -48.862892,-65.695841 3.13002,-4.642846 0.0935,5.97618 0.0935,5.97618 2.387212,-7.005506 c 1.31296,-3.853028 2.0961,-8.528341 1.7403,-10.389584 -0.62868,-3.288743 -0.72273,-3.31676 -3.338279,-0.994495 -1.48026,1.314271 -3.811706,4.189584 -5.180994,6.389585 l -2.489614,4 0.846698,-4.666668 0.846696,-4.666666 -3.089915,2.960773 c -2.589855,2.481612 -3.029615,4.096889 -2.717315,9.980922 0.466679,8.792668 1.586642,10.739513 3.255631,5.6593 0.710893,-2.16388 2.701043,-6.023609 4.422553,-8.577175 z M 63.82252,98.277111 c -2.755816,-12.598655 -2.492159,-27.432202 0.610085,-34.323888 3.134465,-6.963268 3.999032,-6.707298 1.456491,0.431216 -2.26183,6.350381 -2.549615,23.247726 -0.55439,32.551139 0.794235,3.703392 1.202678,7.457602 0.907651,8.342682 -0.295027,0.88508 -1.383953,-2.26544 -2.419837,-7.001149 z m 6.068122,-39.943712 c -0.500582,-1.577196 -0.610149,-3.167628 -0.243482,-3.534295 0.366666,-0.366666 1.076233,0.623766 1.576816,2.200962 0.500582,1.577196 0.610149,3.167628 0.243482,3.534294 -0.366666,0.366667 -1.076233,-0.623765 -1.576816,-2.200961 z m 38.309328,-32 c 0,-2.566667 0.2744,-3.616667 0.60977,-2.333334 0.33537,1.283334 0.33537,3.383334 0,4.666667 -0.33537,1.283333 -0.60977,0.233333 -0.60977,-2.333333 z m 9.19303,-4 c 0,-4.899675 0.22114,-5.449837 1.20585,-3 0.71892,1.788564 0.71892,4.211436 0,6 -0.98471,2.449837 -1.20585,1.899674 -1.20585,-3 z m -4.8357,1.333333 c 1.32732,-1.466667 2.7133,-2.666667 3.07997,-2.666667 0.36667,0 -0.41932,1.2 -1.74663,2.666667 -1.32732,1.466667 -2.7133,2.666667 -3.07997,2.666667 -0.36667,0 0.41932,-1.2 1.74663,-2.666667 z m 37.55171,-5 c -1.52801,-3.357509 -1.65337,-4.210289 -0.38161,-2.595996 1.42069,1.803343 2.06782,1.969915 2.58997,0.666667 0.38284,-0.955535 0.74344,0.212663 0.80133,2.595996 0.0579,2.383333 -0.0836,4.333333 -0.31445,4.333333 -0.23084,0 -1.44369,-2.25 -2.69524,-5 z M 125.3558,16.411366 c 1.90585,-2.242881 4.45585,-5.56147 5.66667,-7.3746413 1.21083,-1.8131713 2.2015,-2.6212195 2.2015,-1.7956629 0,0.8255567 -2.55,4.1441462 -5.66667,7.3746422 -3.11666,3.230495 -4.10734,4.038543 -2.2015,1.795662 z m 13.55274,-5.030882 c -1.94685,-4.3592226 -2.31768,-6.1257995 -1.0682,-5.0888215 1.87976,1.5600548 5.4306,10.4649005 4.51651,11.3265495 -0.25641,0.241712 -1.80815,-2.565265 -3.44831,-6.237728 z"
     style="fill:#58392b;stroke-width:1.33333325" />
  <path
     inkscape:connector-curvature="0"
     id="path2066"
     d="m 46.817241,264.3334 c 0.02717,-2.2 0.325998,-2.93859 0.664056,-1.6413 0.338058,1.2973 0.315826,3.0973 -0.0494,4 -0.365236,0.90271 -0.641829,-0.1587 -0.614656,-2.3587 z m 55.843379,-1.86955 c -4.726386,-5.96756 -18.769978,-29.36017 -18.769978,-31.26544 0,-0.69956 3.296741,3.97917 7.32609,10.39717 4.02935,6.41802 9.240558,14.15958 11.580478,17.20347 2.33992,3.04389 4.81664,6.28435 5.50384,7.20101 0.79875,1.06548 0.75001,1.66667 -0.13511,1.66667 -0.76151,0 -3.2389,-2.34129 -5.50532,-5.20288 z m 21.77795,-1.51747 c 0.49032,-3.6962 1.58086,-8.23336 2.42343,-10.08258 1.35359,-2.97082 1.11912,-3.7019 -2.01395,-6.27966 l -3.54589,-2.91741 3.03612,-3.33333 c 1.66986,-1.83334 4.31481,-4.44243 5.87767,-5.798 2.78319,-2.41403 2.93677,-2.39206 7.47563,1.0699 6.43244,4.90626 7.11675,7.44738 2.90906,10.80247 -3.70216,2.952 -3.70328,2.43215 0.0436,20.25896 0.60396,2.87349 0.25678,3 -8.2333,3 h -8.86384 l 0.89149,-6.72035 z m 45.15073,-11.59117 c 6.76574,-10.18183 12.50603,-18.37232 12.75622,-18.20111 1.60873,1.1009 -20.49612,35.25536 -23.42288,36.19096 -0.89907,0.2874 3.90093,-7.80802 10.66666,-17.98985 z m 49.23263,14.31152 c -0.009,-3.74027 3.36209,-17.79415 3.5188,-14.66667 0.0551,1.1 -0.71212,5.6 -1.70498,10 -0.99286,4.4 -1.80908,6.5 -1.81382,4.66667 z M 45.434503,257.00006 c 0,-1.83333 0.302631,-2.58333 0.672515,-1.66666 0.369882,0.91666 0.369882,2.41666 0,3.33333 -0.369884,0.91667 -0.672515,0.16667 -0.672515,-1.66667 z m -1.438597,-6.1111 c 0.06397,-1.55327 0.379921,-1.8692 0.805556,-0.80556 0.385161,0.96249 0.337792,2.11249 -0.105267,2.55556 -0.443056,0.44305 -0.758188,-0.34446 -0.700293,-1.75 z m -1.333334,-5.33334 c 0.06397,-1.55326 0.379922,-1.8692 0.805556,-0.80556 0.385162,0.9625 0.337792,2.1125 -0.105266,2.55556 -0.443056,0.44306 -0.758188,-0.34445 -0.700294,-1.75 z M 212.97397,228.08925 c 0.96249,-0.38516 2.11249,-0.3378 2.55556,0.1052 0.44305,0.44305 -0.34446,0.75819 -1.75,0.70029 -1.55327,-0.064 -1.8692,-0.37992 -0.80556,-0.80554 z m -142.666661,-4 c 0.9625,-0.38516 2.1125,-0.3378 2.555556,0.1052 0.443054,0.44305 -0.344445,0.75819 -1.75,0.70029 -1.553257,-0.064 -1.8692,-0.37992 -0.805556,-0.80554 z m 28.789983,-32.75585 -2.539984,-3 3,2.53999 c 2.819252,2.38696 3.606982,3.46001 2.539982,3.46001 -0.25301,0 -1.60301,-1.35 -2.999998,-3 z M 85.223975,139.30323 c -4.422429,-2.19911 -8.357561,-10.5547 -9.081358,-19.28274 -0.32245,-3.88831 -1.111055,-7.39398 -1.752456,-7.79039 -0.641402,-0.39641 -1.166186,-1.83711 -1.166186,-3.20157 0,-1.79394 1.938123,-3.15653 7,-4.92131 9.68504,-3.37661 34.421565,-3.42732 40.600445,-0.0832 5.45516,2.9524 19.03212,3.08502 24.53443,0.23967 5.55961,-2.87499 24.40443,-4.01331 33.32225,-2.01282 14.21923,3.18971 16.33264,4.85085 13.27486,10.43399 -0.69742,1.27338 -1.6368,5.73497 -2.08755,9.91463 -0.94177,8.73307 -5.06827,15.84039 -9.99276,17.21113 -6.10947,1.70059 -23.89865,1.26135 -28.60804,-0.70636 -5.23388,-2.18685 -12.03833,-12.84745 -13.41995,-21.02515 -0.75716,-4.48164 -1.30097,-5.079 -4.62369,-5.079 -3.32271,0 -3.86653,0.59736 -4.6237,5.07901 -1.34484,7.96006 -7.85354,18.21089 -13.16245,20.73015 -5.60662,2.6605 -25.212293,2.98106 -30.213845,0.494 z m 30.391175,-3.20412 c 4.65189,-3.43991 9.24787,-11.70553 10.35361,-18.62041 0.72816,-4.55368 0.39272,-5.89052 -2.04874,-8.16509 -8.68322,-8.08965 -35.393854,-7.14311 -42.553187,1.50795 -2.366926,2.8601 -2.429543,15.32463 -0.105174,20.93615 2.527472,6.10185 7.863675,8.06537 20.353491,7.48928 7.76308,-0.35807 11.3039,-1.15422 14,-3.14788 z m -16.441952,-13.71271 3.781462,-3.947 -3.599862,-4.71967 c -3.239943,-4.24778 -3.34786,-4.71966 -1.079364,-4.71966 1.420929,0 3.210026,1.51336 4.101086,3.46901 1.30295,2.85966 1.92606,3.18229 3.54735,1.83674 1.08172,-0.89775 1.96677,-2.4588 1.96677,-3.46901 0,-1.01021 1.30459,-1.83674 2.89908,-1.83674 h 2.89909 l -2.70073,3 c -4.80556,5.33806 -4.90293,6.36126 -0.99364,10.44168 3.08366,3.21865 3.31875,3.89165 1.35938,3.89165 -1.30299,0 -3.48405,-1.35 -4.8468,-3 l -2.47774,-3 -2.14493,3 c -1.17971,1.65 -3.123151,3 -4.318768,3 -1.647532,0 -1.258308,-0.95562 1.607616,-3.947 z m 79.225652,15.80244 c 5.72403,-1.9954 8.15845,-7.24192 8.15845,-17.58258 0,-6.49343 -0.56794,-9.0402 -2.38213,-10.68202 -8.90043,-8.05478 -33.23467,-8.44815 -41.5812,-0.67217 -3.53509,3.29345 -3.39907,8.21131 0.45404,16.41466 3.56624,7.59259 6.89137,10.98846 12.36603,12.62906 5.54404,1.6614 18.07944,1.60308 22.98481,-0.10694 z m -24.56217,-15.50848 c 4.17296,-4.50034 4.17266,-4.54232 -0.0645,-9.57799 -2.82597,-3.35845 -3.04605,-4.1023 -1.21376,-4.1023 1.23098,0 3.38432,1.35 4.7852,3 l 2.54706,3 2.54705,-3 c 4.04531,-4.76469 6.15424,-3.50449 2.39132,1.42895 l -3.37812,4.42895 3.31651,4.23771 c 2.51744,3.21669 2.82957,4.23772 1.29548,4.23772 -1.11156,0 -2.98626,-1.35 -4.16596,-3 l -2.14492,-3 -2.47774,3 c -1.36276,1.65 -3.45584,3 -4.6513,3 -1.71387,0 -1.45718,-0.7726 1.21372,-3.65304 z M 62.662572,92.222286 c 0.06397,-1.553257 0.379921,-1.8692 0.805556,-0.805556 0.385161,0.962501 0.337792,2.1125 -0.105267,2.555556 -0.443056,0.443055 -0.758188,-0.344444 -0.700293,-1.75 z M 202.95685,86.333398 c 0,-4.033333 0.24996,-5.683334 0.55545,-3.666667 0.30551,2.016666 0.30551,5.316666 0,7.333333 -0.30549,2.016666 -0.55545,0.366666 -0.55545,-3.666666 z M 61.623528,79.666731 c 0,-4.033334 0.249954,-5.683333 0.555453,-3.666667 0.3055,2.016667 0.3055,5.316667 0,7.333333 -0.305499,2.016667 -0.555453,0.366667 -0.555453,-3.666666 z m 1.039044,-10.11111 c 0.06397,-1.553257 0.379921,-1.869201 0.805556,-0.805556 0.385161,0.9625 0.337792,2.1125 -0.105267,2.555556 -0.443056,0.443055 -0.758188,-0.344445 -0.700293,-1.75 z m 16.88193,-29.222222 c 1.513652,-2.200001 4.443888,-5.5 6.511637,-7.333334 2.497016,-2.213936 2.029988,-1.318418 -1.390712,2.666668 -6.988724,8.141801 -8.391309,9.419968 -5.120925,4.666666 z"
     style="fill:#230a15;stroke-width:1.33333325" />
</svg>
