<?xml version="1.0" encoding="UTF-8" standalone="no"?>
<!-- Created with Inkscape (http://www.inkscape.org/) -->

<svg
   xmlns:dc="http://purl.org/dc/elements/1.1/"
   xmlns:cc="http://creativecommons.org/ns#"
   xmlns:rdf="http://www.w3.org/1999/02/22-rdf-syntax-ns#"
   xmlns:svg="http://www.w3.org/2000/svg"
   xmlns="http://www.w3.org/2000/svg"
   xmlns:sodipodi="http://sodipodi.sourceforge.net/DTD/sodipodi-0.dtd"
   xmlns:inkscape="http://www.inkscape.org/namespaces/inkscape"
   version="1.1"
   id="svg1988"
   width="266.66666"
   height="266.66666"
   viewBox="0 0 266.66666 266.66666"
   sodipodi:docname="Professor4smirk.svg"
   inkscape:version="0.92.2 (5c3e80d, 2017-08-06)">
  <metadata
     id="metadata1994">
    <rdf:RDF>
      <cc:Work
         rdf:about="">
        <dc:format>image/svg+xml</dc:format>
        <dc:type
           rdf:resource="http://purl.org/dc/dcmitype/StillImage" />
        <dc:title></dc:title>
      </cc:Work>
    </rdf:RDF>
  </metadata>
  <defs
     id="defs1992" />
  <sodipodi:namedview
     pagecolor="#ffffff"
     bordercolor="#666666"
     borderopacity="1"
     objecttolerance="10"
     gridtolerance="10"
     guidetolerance="10"
     inkscape:pageopacity="0"
     inkscape:pageshadow="2"
     inkscape:window-width="640"
     inkscape:window-height="480"
     id="namedview1990"
     showgrid="false"
     inkscape:zoom="0.88500003"
     inkscape:cx="133.33333"
     inkscape:cy="133.33333"
     inkscape:window-x="0"
     inkscape:window-y="0"
     inkscape:window-maximized="0"
     inkscape:current-layer="svg1988" />
  <path
     inkscape:connector-curvature="0"
     id="path2018"
     d="M 0.5685064,134.72316 V 1.3898269 H 133.90184 267.23517 V 134.72316 268.05649 H 133.90184 0.5685064 Z"
     style="fill:#fcfcfc;stroke-width:1.33333325" />
  <path
     inkscape:connector-curvature="0"
     id="path2016"
     d="m 46.622681,265.05649 c -4.535349,-20.5128 -6.507937,-27.78973 -7.739389,-28.55081 -2.126067,-1.31398 -12.391353,10.56941 -14.881627,17.2274 -1.45217,3.88252 -1.87557,4.40216 -1.349924,1.65674 1.155558,-6.03538 6.727671,-14.78513 11.588575,-18.19725 2.380504,-1.67099 4.956918,-3.86051 5.725366,-4.86557 1.60518,-2.09944 23.026946,-7.80895 33.924693,-9.0419 l 7.358222,-0.83248 7.859577,13.13527 c 4.322768,7.2244 11.074036,17.48527 15.002826,22.80193 l 7.14324,9.66667 H 79.270105 47.285977 Z m 77.224659,-1.33333 c 0.45322,-2.38334 1.50428,-6.9741 2.33569,-10.20168 1.40371,-5.44934 1.29251,-6.04579 -1.55729,-8.35342 -2.51619,-2.03749 -3.45811,-2.18541 -5.22975,-0.8213 -2.51243,1.9345 0.92952,-2.59778 7.04012,-9.2703 2.17257,-2.37234 3.65198,-4.6115 3.28758,-4.97589 -0.36439,-0.3644 -4.76918,-2.92339 -9.78842,-5.68664 -11.2313,-6.18321 -14.00268,-9.78409 -15.27059,-19.8412 -0.8445,-6.69864 -1.79365,-8.70193 -6.473386,-13.66281 -6.032665,-6.39508 -12.828715,-19.24425 -14.529982,-27.47157 -0.948619,-4.58751 -1.674371,-5.40295 -5.500463,-6.18014 -5.291313,-1.07481 -7.581727,-3.8948 -9.593153,-11.81116 -0.830482,-3.26852 -3.570042,-9.28034 -6.087913,-13.35962 -5.568722,-9.02205 -6.397014,-18.6056 -1.881412,-21.76845 1.779852,-1.24666 2.3937,-2.6779 1.805709,-4.21017 -0.489952,-1.2768 -0.236786,-2.72567 0.562591,-3.21971 1.035671,-0.64008 1.053848,-2.61336 0.06324,-6.865434 -0.764593,-3.281945 -1.440377,-10.47578 -1.501743,-15.986297 -0.09571,-8.594678 0.450523,-11.127237 3.842047,-17.813262 2.174491,-4.286777 4.463768,-7.692311 5.08728,-7.567853 0.623512,0.124453 2.251641,-2.270807 3.618064,-5.32281 1.366421,-3.052002 4.314458,-7.859729 6.551193,-10.683835 5.527135,-6.978576 14.920408,-14.323797 15.622832,-12.216525 0.384136,1.152408 1.554284,0.845214 3.945646,-1.035831 4.18829,-3.294504 6.25511,-3.430469 5.17997,-0.34076 -0.55755,1.602267 0.0244,1.347111 1.85735,-0.814379 2.37521,-2.800933 2.6754,-2.874378 2.72479,-0.666666 0.0428,1.915357 1.10686,1.290374 4.66666,-2.741101 4.27055,-4.836391 4.61117,-4.988763 4.61117,-2.062736 0,2.983293 0.29671,2.869681 5.32278,-2.038143 2.92753,-2.858654 6.4645,-7.5051838 7.85994,-10.3256219 l 2.53718,-5.1280693 2.66528,3.3883583 c 1.4659,1.8635971 3.30805,3.3883583 4.09365,3.3883583 0.78561,0 3.46292,1.7863441 5.94957,3.9696536 2.48666,2.18331 4.79854,3.692298 5.13754,3.353308 0.33898,-0.338991 2.64302,1.474665 5.12009,4.030345 2.47707,2.555681 5.24001,4.646693 6.13989,4.646693 0.89988,0 3.39891,1.483269 5.5534,3.296155 2.1545,1.812885 4.30679,2.906626 4.78288,2.430536 1.37823,-1.378224 8.76415,6.346645 12.8433,13.432682 2.79232,4.850633 3.86034,5.862274 4.22294,4 0.61436,-3.155253 5.80514,7.443362 7.14602,14.590875 0.50486,2.691196 1.39264,4.599707 1.97282,4.241134 1.74937,-1.081178 4.57253,12.754882 4.49071,22.008616 -0.0423,4.782822 -1.02456,10.874431 -2.19192,13.593219 l -2.11528,4.92655 4.56793,2.69515 c 6.61255,3.90149 6.28275,9.59271 -1.43205,24.712 -3.3,6.46727 -6,12.7985 -6,14.0694 0,3.71456 -5.08661,9.13011 -9.00245,9.58462 -3.19242,0.37054 -3.85547,1.34536 -5.72659,8.41906 -2.81072,10.6259 -5.21141,14.92774 -13.22185,23.69243 -6.26432,6.85416 -6.71578,7.81471 -6.71578,14.2888 0,9.80028 -2.81646,13.74388 -13.94206,19.52165 -13.71743,7.12375 -13.59344,6.94844 -8.11062,11.46784 2.59564,2.13955 4.71935,4.47505 4.71935,5.19001 0,0.71496 -1.56521,2.75052 -3.47824,4.52346 -3.40132,3.15224 -3.44555,3.41125 -2,11.71222 0.81303,4.66878 1.47824,9.18955 1.47824,10.04614 0,1.04105 -3.12977,1.55745 -9.43927,1.55745 h -9.43928 z m 21.0545,-84.75455 c 3.69487,-3.43726 5.15431,-7.90938 2,-6.12853 -1.33333,0.75276 -1.33333,0.58184 0,-0.85465 2.54136,-2.73796 1.98779,-4.19462 -0.98871,-2.60166 -1.46044,0.78162 -7.44178,1.79022 -13.29185,2.24135 -10.80052,0.83287 -13.64867,3.09804 -3.89539,3.09804 3.32188,0 5.01301,0.51829 4.484,1.37424 -0.4926,0.79704 -2.76574,1.01473 -5.41202,0.51828 -7.51781,-1.41035 -4.95451,3.72904 3.01873,6.05252 5.198,1.51475 9.77139,0.31352 14.08524,-3.69959 z M 98.568504,118.85464 c 0,-4.77255 -0.220076,-5.08806 -2.666667,-3.82308 -5.653404,2.92301 -6.224445,3.90028 -3.826988,6.54944 3.856691,4.2616 6.493655,3.15447 6.493655,-2.72636 z m 20.666666,4.07517 c 0,-1.29506 -5.18403,-6.24693 -5.67484,-5.4207 -3.9136,6.58826 -3.91982,6.54738 0.99688,6.54738 2.57288,0 4.67796,-0.507 4.67796,-1.12668 z m 36.80932,-0.98237 c -0.44513,-1.15997 -0.80932,-3.06456 -0.80932,-4.23241 0,-1.67344 -0.70632,-1.45982 -3.33333,1.00813 -4.38841,4.12269 -4.20469,5.33333 0.80932,5.33333 3.22976,0 3.96431,-0.46475 3.33333,-2.10905 z m 18.92402,0.50905 c 2.56042,-2.56042 1.8718,-4.85763 -2.06667,-6.89429 l -3.66667,-1.89611 v 5.1952 c 0,5.4346 2.39323,6.93531 5.73334,3.5952 z m -17.43752,144.10419 c 0.82269,-0.8227 1.16908,-2.34723 0.76974,-3.38786 -0.42902,-1.11802 -0.012,-1.73337 1.0202,-1.50418 1.92584,0.42774 21.56006,-27.70654 24.15495,-34.61215 1.91312,-5.09123 2.81939,-5.20087 18.612,-2.25153 19.81433,3.7004 23.376,5.19893 31.85892,13.40432 8.2349,7.96549 11.10784,13.31273 12.45428,23.18054 0.73044,5.35324 0.55288,5.10355 -1.6472,-2.31638 -2.71215,-9.14694 -8.03382,-17.73731 -13.0066,-20.99562 -3.0882,-2.02346 -3.26923,-1.96124 -4.66406,1.60342 -1.0772,2.75289 -6.36833,25.5894 -6.4972,28.04192 -0.009,0.18333 -14.53752,0.33333 -32.28418,0.33333 -23.84763,0 -31.87639,-0.39028 -30.77085,-1.49581 z m -136.857222,-4.6153 c 0.06397,-1.55326 0.379921,-1.8692 0.805556,-0.80556 0.385161,0.9625 0.337792,2.1125 -0.105267,2.55556 -0.443056,0.44306 -0.758188,-0.34445 -0.700293,-1.75 z"
     style="fill:#d9a696;stroke-width:1.33333325" />
  <path
     inkscape:connector-curvature="0"
     id="path2014"
     d="m 46.560078,264.38982 c -0.399244,-2.01666 -2.210326,-9.87452 -4.024628,-17.4619 -1.814301,-7.58739 -2.977398,-14.31518 -2.58466,-14.95063 0.938088,-1.51787 7.697425,-3.40556 23.715724,-6.62315 17.689323,-3.55324 17.712177,-3.5502 20.94349,2.7837 3.847678,7.54206 11.175126,18.99716 18.815886,29.41506 3.56177,4.85638 6.47595,9.20638 6.47595,9.66667 0,0.46031 -14.088572,0.83692 -31.307933,0.83692 h -31.30793 z m 76.675092,2.92988 c 0,-0.40524 0.97469,-5.02217 2.16597,-10.25984 l 2.16597,-9.52305 -3.4794,-2.77437 -3.4794,-2.77438 5.46688,-5.63245 c 3.00678,-3.09785 6.47605,-5.63245 7.7095,-5.63245 1.23344,0 4.51586,2.328 7.29424,5.17333 l 5.05163,5.17333 -3.60999,3.34738 c -3.56132,3.30224 -3.58982,3.46314 -2.11436,11.93588 0.8226,4.72368 1.49563,9.28937 1.49563,10.14596 0,1.03938 -3.10463,1.55745 -9.33333,1.55745 -5.13334,0 -9.33334,-0.33156 -9.33334,-0.73679 z m 41.35571,-10.26321 c 4.34469,-6.05 11.04659,-16.30295 14.89309,-22.78433 l 6.99366,-11.78432 6.7121,0.85029 c 9.72335,1.23175 32.69364,6.83323 34.20043,8.34001 0.82678,0.82679 0.34572,4.81819 -1.3458,11.16588 -1.44791,5.43352 -3.31484,13.32914 -4.14874,17.5458 l -1.51618,7.66667 h -31.844 -31.84401 z M 122.84445,215.3458 c -2.78156,-1.02087 -6.72368,-3.04263 -8.76027,-4.4928 -2.03658,-1.45018 -4.56076,-2.82266 -5.60928,-3.04994 -2.75409,-0.59698 -3.86276,-2.55994 -3.88598,-6.88027 -0.0144,-2.68316 -1.74032,-5.54494 -5.870908,-9.73471 -6.547347,-6.64115 -14.139945,-19.85213 -14.167715,-24.65156 -0.03888,-6.71967 -1.464804,-9.14669 -5.373861,-9.14669 -4.060676,0 -9.274598,-5.24902 -9.274598,-9.33702 0,-1.2709 -2.7,-7.60213 -6,-14.0694 -6.79136,-13.30956 -7.801696,-20.51375 -3.317402,-23.65467 3.092111,-2.1658 3.312904,-5.21336 1.915435,-26.438324 l -0.932705,-14.166075 4.365777,-8.191038 c 2.401179,-4.505071 4.648919,-7.907897 4.99498,-7.561836 0.34606,0.34606 2.083436,-2.289068 3.860834,-5.855841 1.777398,-3.566773 5.538424,-9.089213 8.357835,-12.272088 5.541085,-6.255413 13.421912,-11.601497 13.421912,-9.104968 0,0.82473 1.742622,0.258651 3.872496,-1.257952 4.7023,-3.34833 6.02477,-3.483542 4.87945,-0.498881 -0.75965,1.979595 -0.53022,1.954069 1.85735,-0.206649 2.06876,-1.87221 2.73272,-2.014595 2.76012,-0.591912 0.0199,1.035784 2.10634,-0.353358 4.66666,-3.107103 4.13496,-4.447345 4.63059,-4.668128 4.63059,-2.062736 0,2.620552 0.55933,2.380936 5.49228,-2.352913 3.02075,-2.898829 6.55801,-7.5952352 7.86058,-10.4364591 l 2.36832,-5.1658617 2.29276,3.4991951 c 1.26101,1.9245573 3.18376,3.4991951 4.27274,3.4991951 1.08899,0 4.01999,2.0399996 6.51332,4.5333336 2.49334,2.493333 4.53334,3.871565 4.53334,3.062736 0,-0.808828 2.27529,0.751172 5.05621,3.466666 2.78092,2.715496 5.53831,4.937264 6.12751,4.937264 0.58921,0 2.96206,1.346352 5.27301,2.991893 2.31096,1.645542 4.89569,2.832532 5.74385,2.637759 1.91336,-0.439384 10.67403,9.523458 13.52184,15.377376 1.43512,2.94999 2.43842,3.811419 3.13202,2.68915 1.13452,-1.8357 5.92946,7.890031 7.32157,14.850581 0.4532,2.265948 1.27776,4.119907 1.83237,4.119907 1.72032,0 4.15887,12.107531 4.14657,20.588039 -0.007,4.443245 -0.91836,10.631556 -2.02648,13.751802 -2.00409,5.64309 -1.99564,5.68536 1.59504,7.96921 1.9854,1.26281 4.08564,2.90988 4.6672,3.66015 2.07922,2.6824 -0.44221,13.04683 -4.9826,20.48116 -2.53593,4.15231 -5.31627,10.41891 -6.17853,13.92579 -1.65524,6.7321 -5.14328,10.29052 -10.08698,10.29052 -2.19578,0 -3.12447,1.00309 -3.70332,4 -0.42495,2.2 -1.11388,5.77082 -1.53098,7.93516 -0.94038,4.87966 -9.46049,18.06908 -15.06057,23.31429 -3.44684,3.22843 -4.18107,4.93623 -4.18107,9.72512 0,3.96022 -0.53042,5.68849 -1.66666,5.43037 -0.91667,-0.20824 -3.83251,0.96239 -6.47964,2.60139 -11.07699,6.85838 -22.33496,8.58653 -32.24442,4.94964 z m 28.1911,-22.35635 c 9.83566,-4.95592 23.18085,-16.50026 25.2905,-21.87774 2.23623,-5.70015 8.52598,-29.8828 7.92788,-30.48091 -0.2908,-0.29079 -2.58501,0.0611 -5.09826,0.78183 -6.95959,1.99598 -20.56271,1.56546 -26.57738,-0.84112 -6.45317,-2.58204 -10.29489,-7.63856 -14.01802,-18.45064 -1.6328,-4.7417 -3.55216,-8.06438 -4.65843,-8.06438 -1.10627,0 -3.02563,3.32268 -4.65843,8.06438 -3.72313,10.81208 -7.56486,15.8686 -14.01802,18.45064 -6.4498,2.58069 -21.316917,2.75189 -28.10995,0.32368 l -4.786399,-1.71092 1.896184,6.76944 c 7.783976,27.78909 7.937092,28.13064 15.855555,35.36766 8.53641,7.8018 15.27386,11.69586 25.82106,14.92383 9.19193,2.8132 14.43763,2.13368 25.13371,-3.25575 z m -27.49347,-12.3984 c -2.39787,-1.88973 -5.27326,-5.20238 -6.38977,-7.36146 l -2.03,-3.92559 8.43413,0.86409 c 10.81129,1.10766 22.484,-1.27845 27.69207,-5.66076 2.19266,-1.845 3.98666,-3.07588 3.98666,-2.73526 0,0.3406 -1.42824,3.84393 -3.17386,7.78518 -3.50028,7.90292 -9.34115,14.54567 -12.67462,14.41472 -1.54726,-0.0608 -1.37205,-0.39984 0.6239,-1.20728 3.58662,-1.45094 10.62832,-9.79584 8.78464,-10.4104 -0.77564,-0.25854 -1.11012,-1.25221 -0.7433,-2.20813 0.54175,-1.41177 -0.65321,-1.3956 -6.36548,0.0861 -3.86782,1.00331 -10.05166,1.84327 -13.74185,1.86659 -6.18945,0.0391 -6.50884,0.19412 -4.12125,2 1.42349,1.07668 1.87349,1.9576 1,1.9576 -2.98166,0 -1.59478,2.70184 2.74516,5.34795 2.38333,1.45314 3.43333,2.63768 2.33333,2.63228 -1.1,-0.005 -3.96189,-1.55594 -6.35976,-3.44567 z m 3.34614,-22.58852 c -4.34635,-4.03016 -4.52221,-7.30764 -1.03453,-19.27937 2.80609,-9.63209 3.69318,-6.02654 1.28266,5.21332 -1.96759,9.17457 0.31944,14.12668 6.51384,14.10439 3.82148,-0.0137 4.0669,0.18649 2.04265,1.66666 -3.27572,2.39526 -4.67489,2.12431 -8.80462,-1.705 z m -47.128491,-8.32325 c -0.49322,-2.46609 -1.889161,-4.54287 -3.369361,-5.01265 -1.389989,-0.44118 -2.125835,-1.45163 -1.635213,-2.24547 0.511241,-0.82721 0.274245,-1.06153 -0.555175,-0.54893 -0.795968,0.49193 -1.824082,0.28464 -2.284701,-0.46066 -0.775633,-1.255 1.069393,-1.96001 3.8168,-1.45845 0.639966,0.1168 0.789966,-0.76119 0.333333,-1.95115 -0.456632,-1.18997 -0.901231,-3.1645 -0.987995,-4.38786 -0.08676,-1.22336 -0.664984,-0.42428 -1.284933,1.77572 -0.942182,3.3435 -1.040025,3.01525 -0.596154,-2 0.347136,-3.92225 0.123133,-5.27518 -0.646879,-3.9069 -2.015001,3.58059 -1.955812,12.85712 0.09817,15.38659 1.478307,1.82051 1.503965,2.11449 0.11136,1.27595 -2.887909,-1.73894 -0.488749,4.78678 2.805481,7.63092 3.514227,3.03406 5.277152,1.31238 4.195256,-4.09711 z m 114.884231,1.95667 c 0.32531,-0.86871 0.8036,-3.45115 1.06285,-5.73878 l 0.47138,-4.1593 -3.77011,2.1593 c -3.71461,2.12754 -6.20659,8.07478 -4.52412,10.79707 0.99736,1.61375 5.82895,-0.57212 6.76,-3.05829 z m -0.27008,-15.88748 c -0.36948,-3.95809 -0.29955,-4.05231 0.76097,-1.02531 0.97787,2.79109 1.18614,2.89955 1.28034,0.66667 0.0619,-1.46667 -0.40811,-3.48846 -1.04438,-4.49286 -0.84884,-1.33995 -1.52149,-0.62992 -2.52626,2.66666 -1.82236,5.97894 -1.64806,9.51816 0.38564,7.83033 0.85281,-0.70776 1.36748,-3.24824 1.14369,-5.64549 z m -76.9893,-1.10134 c 4.69328,-4.32373 8.45181,-12.73223 8.48798,-18.98916 0.027,-4.67672 -0.40532,-5.26246 -5.63739,-7.63738 -7.618,-3.45794 -25.018712,-3.62033 -31.648118,-0.29536 -7.516519,3.76991 -9.680669,10.95944 -6.618253,21.98654 2.061145,7.42172 6.141655,9.16179 20.239891,8.63095 10.15093,-0.38223 12.09255,-0.85504 15.17589,-3.69559 z M 88.901837,121.79541 c -4.55146,-6.78586 -5.587789,-9.77321 -2.501956,-7.21219 1.437772,1.19324 2.326459,0.76431 4.134909,-1.99573 2.233782,-3.40918 2.58344,-3.48805 11.54745,-2.60476 11.55553,1.13865 17.21916,3.01642 16.30254,5.40509 -0.37856,0.9865 -0.0128,3.19052 0.81286,4.89782 1.11945,2.31489 0.52758,2.00236 -2.32776,-1.22915 -4.5642,-5.16549 -5.46683,-5.38957 -4.65758,-1.15629 0.33403,1.74738 -0.0492,3.58279 -0.85157,4.07869 -3.02147,1.86738 -1.40662,3.61134 2.54111,2.74427 2.51665,-0.55275 4,-0.34481 4,0.56073 0,0.83272 -2.73107,1.43927 -6.48057,1.43927 -3.56432,0 -9.11432,0.3449 -12.333338,0.76645 -5.795207,0.75892 -5.895375,0.70292 -10.186095,-5.6942 z m 10.343468,1.60663 c -0.907344,-1.09329 -1.384727,-3.79328 -1.060849,-6 0.68724,-4.68247 -0.925094,-5.05395 -5.47844,-1.26223 l -3.195822,2.66126 3.094907,3.29438 c 3.443359,3.66529 9.603779,4.87747 6.640204,1.30659 z m 84.016145,11.61977 c 1.35143,-1.66894 2.85998,-6.25865 3.35234,-10.19936 1.752,-14.02251 -4.5987,-19.44747 -22.71195,-19.40127 -14.03801,0.0358 -22,3.30668 -22,9.03783 0,4.99154 2.37388,11.9256 5.73228,16.74384 4.09324,5.87252 9.37601,7.5976 22.05229,7.20114 9.72746,-0.30426 11.4252,-0.72724 13.57504,-3.38218 z m -24.35961,-7.95405 c -5.00628,-0.25946 -9,-1.07808 -9,-1.84479 0,-0.84659 1.58851,-1.02946 4.11741,-0.47402 3.91883,0.86072 4.04167,0.7628 2.5468,-2.03037 -0.86382,-1.61409 -1.27284,-4.07337 -0.9089,-5.46506 1.00008,-3.82429 -1.15852,-3.04235 -4.97722,1.80297 -3.48834,4.42616 -4.54348,4.211 -2.06452,-0.42098 1.02231,-1.91018 0.9482,-2.57902 -0.2857,-2.57902 -1.18732,0 -1.09396,-0.572 0.32493,-1.99089 1.09803,-1.09803 6.92381,-2.6885 12.99035,-3.54641 l 10.99945,-1.55553 3.69844,3.54334 c 2.99848,2.87272 4.04107,3.22848 5.50875,1.87975 2.0892,-1.91988 -3.40263,7.84398 -6.37632,11.33641 -1.09272,1.28333 -3.24378,2.21582 -4.78012,2.07219 -1.53634,-0.14364 -6.84335,-0.47105 -11.79335,-0.72759 z m 15.22835,-3.88458 c 3.01222,-2.72604 3.05961,-4.23019 0.23166,-7.35503 -3.1364,-3.46569 -5.54854,-3.09216 -4.8149,0.7456 0.33474,1.75116 -0.0696,4.45116 -0.89848,6 -1.2601,2.3545 -1.13419,2.81608 0.76814,2.81608 1.25139,0 3.3725,-0.993 4.71358,-2.20665 z m 27.90106,1.60665 c 1.84497,-1.94114 1.50723,-10.38999 -0.39005,-9.75757 -2.30787,0.76929 -3.89592,7.70663 -2.82883,12.35757 0.73163,3.18879 1.02902,3.45919 1.46636,1.33333 0.30173,-1.46667 1.09037,-3.23667 1.75252,-3.93333 z m -2.69081,-1.51111 c 0.064,-1.55326 0.37992,-1.8692 0.80555,-0.80556 0.38516,0.9625 0.3378,2.1125 -0.1052,2.55556 -0.44307,0.44305 -0.75819,-0.34445 -0.7003,-1.75 z m -129.45902,0.36575 c 0.01123,-0.59328 -0.579582,-0.70787 -1.312916,-0.25464 -0.733333,0.45322 -1.324145,1.83863 -1.312916,3.07869 0.0176,1.94303 0.199051,1.97822 1.312916,0.25464 0.710875,-1.1 1.301687,-2.48541 1.312916,-3.07869 z m -3.685589,-5.25464 c -1.270336,-2.63401 -1.446845,-2.26802 -1.446845,3 0,5.26802 0.176509,5.63401 1.446845,3 1.040237,-2.15691 1.040237,-3.84309 0,-6 z m 137.706009,-6.33334 c 0.45322,-0.73333 0.22404,-1.33333 -0.5093,-1.33333 -0.73333,0 -1.70414,0.6 -2.15737,1.33333 -0.45323,0.73334 -0.22404,1.33334 0.50929,1.33334 0.73334,0 1.70415,-0.6 2.15738,-1.33334 z m -60.82383,-7.25724 c 2.47942,-0.80739 2.77191,-1.30036 1.33334,-2.24719 -1.50666,-0.99164 -1.3707,-1.57314 0.74533,-3.187573 5.13373,-3.91681 20.17457,-2.438102 40.11973,3.944283 2.06319,0.66021 -0.0976,-20.339816 -2.78364,-27.052762 -1.231,-3.076564 -4.67554,-7.680051 -7.65456,-10.229968 -6.2668,-5.364146 -11.74645,-5.954128 -24.48478,-2.636215 -9.80088,2.552806 -23.1023,2.552806 -32.90318,0 -11.0059,-2.866673 -16.93505,-2.562146 -21.934857,1.126592 -9.270257,6.83938 -12.0356,12.690669 -13.410918,28.376661 l -0.9522,10.860182 6.041448,-1.94338 c 11.200606,-3.602929 15.341597,-4.356317 24.119947,-4.388246 9.01582,-0.0328 15.4473,2.455796 11.94336,4.621356 -4.86956,3.00955 11.88745,5.33974 19.82098,2.75626 z M 120.2074,101.9176 c -0.44306,-0.44305 -1.59306,-0.49042 -2.55556,-0.10526 -1.06364,0.42563 -0.7477,0.74158 0.80556,0.80555 1.40555,0.0579 2.19305,-0.25723 1.75,-0.70029 z"
     style="fill:#ab9c9a;stroke-width:1.33333325" />
  <path
     inkscape:connector-curvature="0"
     id="path2012"
     d="m 45.871762,259.05649 c -0.915946,-4.95 -2.81176,-12.7622 -4.212917,-17.36043 -1.401157,-4.59824 -2.243255,-8.85281 -1.871328,-9.4546 1.02434,-1.65741 23.138865,-7.03314 36.11432,-8.77889 l 5.333334,-0.71755 6.666666,11.577 c 3.666667,6.36736 9.104768,14.91244 12.084671,18.98907 2.979902,4.07664 6.498912,9.06207 7.820012,11.07873 l 2.40201,3.66667 H 78.872825 47.537121 Z m 78.319408,4 c 0.43358,-2.75 1.46879,-7.38808 2.30046,-10.30684 1.40924,-4.94573 1.28185,-5.50652 -1.87216,-8.2414 l -3.3843,-2.93456 5.2706,-5.42527 c 2.89883,-2.98389 6.02795,-5.42526 6.95361,-5.42526 2.29669,0 11.10913,7.87824 11.10913,9.93146 0,0.91039 -1.258,2.79371 -2.79556,4.18518 -2.84334,2.57318 -2.90248,6.39318 -0.30039,19.40364 l 0.76261,3.81305 h -9.41617 -9.41617 z m 33.71067,4.41435 c 0,-0.32211 3.28617,-5.1659 7.30261,-10.76398 4.01644,-5.59808 10.41452,-15.38454 14.21795,-21.74768 3.80343,-6.36314 7.05815,-11.76026 7.23273,-11.9936 0.48571,-0.64917 24.38272,3.77559 31.91337,5.90907 10.64982,3.01716 10.59367,2.92392 7.62542,12.66248 -1.42816,4.68565 -3.34606,12.56936 -4.262,17.51936 l -1.66536,9 H 189.0842 c -17.15029,0 -31.18236,-0.26355 -31.18236,-0.58565 z M 122.84445,215.3458 c -2.78156,-1.02087 -6.72368,-3.04263 -8.76027,-4.4928 -2.03658,-1.45018 -4.56076,-2.82266 -5.60928,-3.04994 -2.33098,-0.50528 -3.68824,-3.2928 -3.81268,-7.83045 -0.0555,-2.02334 -1.79914,-5.01457 -4.27478,-7.33333 -5.600083,-5.24521 -14.120184,-18.43463 -15.060569,-23.31429 -0.417102,-2.16434 -1.10604,-5.73516 -1.530974,-7.93516 -0.642664,-3.32726 -1.411266,-4 -4.569893,-4 -4.110533,0 -9.324166,-5.22082 -9.324166,-9.33702 0,-1.2709 -2.7,-7.60213 -6,-14.0694 -6.794415,-13.31555 -7.846035,-20.75145 -3.333334,-23.56968 1.466667,-0.91595 2.666667,-3.05644 2.666667,-4.75665 0,-1.70022 0.517628,-2.77139 1.150284,-2.38038 0.632656,0.391 0.342029,-2.72359 -0.645839,-6.921317 -0.987868,-4.197724 -1.805496,-11.874635 -1.81695,-17.059805 -0.01699,-7.691138 0.654525,-10.742474 3.645838,-16.566471 2.016667,-3.926392 4.1755,-7.006157 4.797407,-6.843924 0.621907,0.162233 2.777093,-3.182855 4.789302,-7.433527 3.692972,-7.801181 13.101416,-18.707272 18.743036,-21.726576 2.828232,-1.513624 3.000769,-1.409811 2.274252,1.368394 -0.708317,2.708611 -0.358295,2.591574 3.535065,-1.18202 4.861614,-4.712053 6.514114,-5.294853 5.259674,-1.854961 -0.79115,2.169457 -0.65745,2.163733 1.90357,-0.08151 2.1236,-1.861757 2.91706,-2.014448 3.46436,-0.666666 0.48048,1.18324 2.02164,0.240109 4.76908,-2.918494 3.00587,-3.45571 4.0685,-4.061189 4.09506,-2.333333 0.0197,1.283334 0.62191,2.333333 1.33819,2.333333 1.66685,0 11.58927,-12.5077325 12.70089,-16.0101268 1.00396,-3.1631952 3.10301,-3.4664656 4.20034,-0.6068641 0.4326,1.1273213 2.7671,2.8772058 5.18778,3.8886324 2.42069,1.0114265 5.41354,3.3839215 6.6508,5.2722105 1.23725,1.888289 2.80654,3.089018 3.48729,2.668286 0.68076,-0.420732 3.51601,1.23442 6.30056,3.678115 5.39948,4.738546 12.88508,9.334061 16.17001,9.927014 2.62134,0.473168 9.97539,9.16848 13.20824,15.617202 1.97404,3.937731 2.68991,4.545912 3.1388,2.666667 0.7304,-3.057753 5.66744,7.167346 7.02712,14.553863 0.50504,2.743583 1.40184,4.68945 1.99292,4.324146 1.56925,-0.969851 3.9756,11.604529 3.90773,20.419815 -0.0321,4.180571 -0.9282,10.001039 -1.99114,12.934367 -1.84432,5.08966 -1.79596,5.43993 1.05852,7.66621 1.64513,1.28308 3.81057,3.02158 4.81209,3.86335 2.89935,2.43688 0.80139,12.38318 -4.41283,20.92081 -2.53593,4.15231 -5.31627,10.41891 -6.17853,13.92579 -1.66014,6.75206 -5.14426,10.29052 -10.1325,10.29052 -2.40279,0 -3.13616,0.9634 -3.80618,5 -1.78888,10.77717 -7.92828,22.00921 -16.53429,30.24945 -3.33929,3.19737 -4.08995,4.98229 -4.08995,9.72512 0,3.96022 -0.53042,5.68849 -1.66666,5.43037 -0.91667,-0.20824 -3.83251,0.96239 -6.47964,2.60139 -11.07699,6.85838 -22.33496,8.58653 -32.24442,4.94964 z m 28.1911,-22.35635 c 9.83566,-4.95592 23.18085,-16.50026 25.2905,-21.87774 2.23623,-5.70015 8.52598,-29.8828 7.92788,-30.48091 -0.2908,-0.29079 -2.58501,0.0611 -5.09826,0.78183 -6.95959,1.99598 -20.56271,1.56546 -26.57738,-0.84112 -6.45317,-2.58204 -10.29489,-7.63856 -14.01802,-18.45064 -1.6328,-4.7417 -3.55216,-8.06438 -4.65843,-8.06438 -1.10627,0 -3.02563,3.32268 -4.65843,8.06438 -3.72313,10.81208 -7.56486,15.8686 -14.01802,18.45064 -6.4498,2.58069 -21.316917,2.75189 -28.10995,0.32368 l -4.786399,-1.71092 1.896184,6.76944 c 7.783976,27.78909 7.937092,28.13064 15.855555,35.36766 8.53641,7.8018 15.27386,11.69586 25.82106,14.92383 9.19193,2.8132 14.43763,2.13368 25.13371,-3.25575 z m -24.4576,-10.25102 c -0.46712,-0.75582 0.0681,-0.97934 1.25464,-0.52402 2.30989,0.88639 2.73252,1.84208 0.81461,1.84208 -0.69006,0 -1.62122,-0.59313 -2.06925,-1.31806 z m -5.61041,-4.3486 c -1.50285,-1.65 -3.42855,-4.35 -4.27933,-6 -1.41927,-2.75256 -1.24973,-3 2.05561,-3 1.98135,0 3.20767,0.3948 2.72514,0.87732 -0.48252,0.48253 -0.2154,1.67488 0.59362,2.64969 0.80901,0.9748 1.15069,2.60689 0.75929,3.62687 -0.3914,1.01997 -0.0385,2.52761 0.78416,3.3503 0.8227,0.82271 1.1804,1.49582 0.7949,1.49582 -0.38551,0 -1.93053,-1.35 -3.43339,-3 z m 28.41506,-6.09479 c -1.10453,-1.78717 1.03393,-7.23261 3.71367,-9.4566 2.73446,-2.2694 2.68928,-1.63579 -0.37079,5.19911 -1.38035,3.08308 -2.88464,4.99894 -3.34288,4.25749 z m -22.49438,-14.29251 c -4.34635,-4.03016 -4.52221,-7.30764 -1.03453,-19.27937 2.80609,-9.63209 3.69318,-6.02654 1.28266,5.21332 -1.96759,9.17457 0.31944,14.12668 6.51384,14.10439 3.82148,-0.0137 4.0669,0.18649 2.04265,1.66666 -3.27572,2.39526 -4.67489,2.12431 -8.80462,-1.705 z m -47.128491,-8.32325 c -0.49322,-2.46609 -1.889161,-4.54287 -3.369361,-5.01265 -1.389989,-0.44118 -2.125835,-1.45163 -1.635213,-2.24547 0.511241,-0.82721 0.274245,-1.06153 -0.555175,-0.54893 -0.795968,0.49193 -1.824082,0.28464 -2.284701,-0.46066 -0.775633,-1.255 1.069393,-1.96001 3.8168,-1.45845 0.639966,0.1168 0.789966,-0.76119 0.333333,-1.95115 -0.456632,-1.18997 -0.901231,-3.1645 -0.987995,-4.38786 -0.08676,-1.22336 -0.664984,-0.42428 -1.284933,1.77572 -0.942182,3.3435 -1.040025,3.01525 -0.596154,-2 0.347136,-3.92225 0.123133,-5.27518 -0.646879,-3.9069 -2.015001,3.58059 -1.955812,12.85712 0.09817,15.38659 1.478307,1.82051 1.503965,2.11449 0.11136,1.27595 -2.887909,-1.73894 -0.488749,4.78678 2.805481,7.63092 3.514227,3.03406 5.277152,1.31238 4.195256,-4.09711 z m 114.884231,1.95667 c 0.32531,-0.86871 0.8036,-3.45115 1.06285,-5.73878 l 0.47138,-4.1593 -3.77011,2.1593 c -3.71461,2.12754 -6.20659,8.07478 -4.52412,10.79707 0.99736,1.61375 5.82895,-0.57212 6.76,-3.05829 z m -0.27008,-15.88748 c -0.36948,-3.95809 -0.29955,-4.05231 0.76097,-1.02531 0.97787,2.79109 1.18614,2.89955 1.28034,0.66667 0.0619,-1.46667 -0.40811,-3.48846 -1.04438,-4.49286 -0.84884,-1.33995 -1.52149,-0.62992 -2.52626,2.66666 -1.82236,5.97894 -1.64806,9.51816 0.38564,7.83033 0.85281,-0.70776 1.36748,-3.24824 1.14369,-5.64549 z m -76.5816,-1.58542 c 4.95952,-4.75346 8.45986,-13.44663 7.8765,-19.56146 -0.6167,-6.46429 -7.46639,-9.66522 -20.5029,-9.58121 -10.836712,0.0698 -17.858432,1.93962 -21.215812,5.64949 -3.046248,3.36606 -3.99128,11.50402 -2.136021,18.39393 2.168129,8.05181 5.914086,9.77232 20.335233,9.33992 10.75492,-0.32247 11.87047,-0.62488 15.643,-4.24067 z m -25.768394,-8.77322 c -4.284917,-5.11015 -7.486491,-10.59491 -5.808646,-9.95107 0.998024,0.38298 3.234414,-0.815 4.969756,-2.66219 2.859276,-3.04356 3.853588,-3.28612 10.602674,-2.58644 11.99824,1.24385 15.72804,2.80601 16.51382,6.91653 l 0.68925,3.6056 -2.56875,-3.17228 c -1.41282,-1.74475 -4.37208,-3.38224 -6.57615,-3.63886 -3.34332,-0.38928 -3.72595,-0.16333 -2.30902,1.3635 1.23257,1.32819 1.96701,1.41348 2.67794,0.31099 0.53877,-0.83551 0.98877,0.39547 1,2.73553 0.0112,2.34005 -0.72959,4.74005 -1.64625,5.33333 -1.06026,0.68621 0.27384,1.35479 3.66666,1.83754 3.91234,0.55666 2.02051,0.91191 -7.10046,1.33333 -9.9309,0.45884 -12.771382,0.17189 -14.110824,-1.42551 z m 7.78552,-2.7688 c -2.373168,-2.62232 -2.387381,-2.97502 -0.268664,-6.66667 2.175538,-3.79065 2.158618,-3.89787 -0.614984,-3.89787 -2.954788,0 -9.023921,4.79363 -9.023921,7.12743 0,2.8186 4.592152,6.20591 8.4133,6.20591 3.964733,0 3.977913,-0.0244 1.494269,-2.7688 z m 80.070124,14.77728 c 4.33594,-1.64852 7.35564,-8.51867 7.35564,-16.73489 0,-4.95988 -0.72365,-6.86904 -3.75126,-9.89666 -7.14058,-7.14057 -25.75054,-8.16192 -37.54888,-2.06076 -4.70956,2.43541 -5.21392,6.33532 -1.99808,15.45 2.44994,6.94389 5.29477,10.34143 10.63156,12.69715 4.73766,2.09125 20.3595,2.42772 25.31102,0.54516 z m -18.64436,-10.75652 c -6.6,-0.41142 -9.67653,-0.86142 -6.83674,-1 4.41176,-0.21529 4.92314,-0.54128 3.51354,-2.23975 -0.90734,-1.09329 -1.38472,-3.79328 -1.06085,-6 0.75759,-5.1617 -0.88156,-5.0733 -5.95439,0.32112 -2.84517,3.02555 -3.59605,3.42794 -2.48802,1.33333 1.18878,-2.2473 1.19969,-3 0.0435,-3 -3.57365,0 1.84744,-3.83233 6.52644,-4.61373 11.67198,-1.94924 17.56174,-1.2455 21.54931,2.57483 l 3.79508,3.63593 -2.67812,4.53908 c -1.47297,2.49649 -3.06772,4.68716 -3.54391,4.86815 -0.4762,0.18099 -6.2658,-0.008 -12.8658,-0.41896 z m 14,-4.5853 3.13151,-3.33333 -3.13151,-3.33333 c -3.12114,-3.32231 -8.48552,-4.45049 -9.94361,-2.09123 -0.42221,0.68316 0.53167,2.15219 2.11975,3.26452 2.76053,1.93356 2.78945,2.1719 0.65822,5.42456 -2.17165,3.31437 -2.14837,3.40215 0.90248,3.40215 1.72242,0 4.54083,-1.5 6.26316,-3.33334 z m 26.79608,2.73334 c 1.84497,-1.94114 1.50723,-10.38999 -0.39005,-9.75757 -2.30787,0.76929 -3.89592,7.70663 -2.82883,12.35757 0.73163,3.18879 1.02902,3.45919 1.46636,1.33333 0.30173,-1.46667 1.09037,-3.23667 1.75252,-3.93333 z m -2.69081,-1.51111 c 0.064,-1.55326 0.37992,-1.8692 0.80555,-0.80556 0.38516,0.9625 0.3378,2.1125 -0.1052,2.55556 -0.44307,0.44305 -0.75819,-0.34445 -0.7003,-1.75 z m -129.45902,0.36575 c 0.01123,-0.59328 -0.579582,-0.70787 -1.312916,-0.25464 -0.733333,0.45322 -1.324145,1.83863 -1.312916,3.07869 0.0176,1.94303 0.199051,1.97822 1.312916,0.25464 0.710875,-1.1 1.301687,-2.48541 1.312916,-3.07869 z m -3.685589,-5.25464 c -1.270336,-2.63401 -1.446845,-2.26802 -1.446845,3 0,5.26802 0.176509,5.63401 1.446845,3 1.040237,-2.15691 1.040237,-3.84309 0,-6 z m 137.706009,-6.33334 c 0.45322,-0.73333 0.22404,-1.33333 -0.5093,-1.33333 -0.73333,0 -1.70414,0.6 -2.15737,1.33333 -0.45323,0.73334 -0.22404,1.33334 0.50929,1.33334 0.73334,0 1.70415,-0.6 2.15738,-1.33334 z m -60.82383,-7.25724 c 2.47942,-0.80739 2.77191,-1.30036 1.33334,-2.24719 -1.50666,-0.99164 -1.3707,-1.57314 0.74533,-3.187573 5.13373,-3.91681 20.17457,-2.438102 40.11973,3.944283 2.06319,0.66021 -0.0976,-20.339816 -2.78364,-27.052762 -1.231,-3.076564 -4.67554,-7.680051 -7.65456,-10.229968 -6.2668,-5.364146 -11.74645,-5.954128 -24.48478,-2.636215 -9.80088,2.552806 -23.1023,2.552806 -32.90318,0 -11.0059,-2.866673 -16.93505,-2.562146 -21.934857,1.126592 -9.270257,6.83938 -12.0356,12.690669 -13.410918,28.376661 l -0.9522,10.860182 6.041448,-1.94338 c 11.200606,-3.602929 15.341597,-4.356317 24.119947,-4.388246 9.01582,-0.0328 15.4473,2.455796 11.94336,4.621356 -4.86956,3.00955 11.88745,5.33974 19.82098,2.75626 z M 120.2074,101.9176 c -0.44306,-0.44305 -1.59306,-0.49042 -2.55556,-0.10526 -1.06364,0.42563 -0.7477,0.74158 0.80556,0.80555 1.40555,0.0579 2.19305,-0.25723 1.75,-0.70029 z"
     style="fill:#c28775;stroke-width:1.33333325" />
  <path
     inkscape:connector-curvature="0"
     id="path2010"
     d="m 45.871762,259.05649 c -0.915946,-4.95 -2.81176,-12.7622 -4.212917,-17.36043 -1.401157,-4.59824 -2.243255,-8.85281 -1.871328,-9.4546 1.02434,-1.65741 23.138865,-7.03314 36.11432,-8.77889 l 5.333334,-0.71755 6.666666,11.577 c 3.666667,6.36736 9.104768,14.91244 12.084671,18.98907 2.979902,4.07664 6.498912,9.06207 7.820012,11.07873 l 2.40201,3.66667 H 78.872825 47.537121 Z m 78.319408,4 c 0.43358,-2.75 1.46879,-7.38808 2.30046,-10.30684 1.40924,-4.94573 1.28185,-5.50652 -1.87216,-8.2414 l -3.3843,-2.93456 5.2706,-5.42527 c 2.89883,-2.98389 6.02795,-5.42526 6.95361,-5.42526 2.29669,0 11.10913,7.87824 11.10913,9.93146 0,0.91039 -1.258,2.79371 -2.79556,4.18518 -2.84334,2.57318 -2.90248,6.39318 -0.30039,19.40364 l 0.76261,3.81305 h -9.41617 -9.41617 z m 33.71067,4.41435 c 0,-0.32211 3.28617,-5.1659 7.30261,-10.76398 4.01644,-5.59808 10.41452,-15.38454 14.21795,-21.74768 3.80343,-6.36314 7.05815,-11.76026 7.23273,-11.9936 0.48571,-0.64917 24.38272,3.77559 31.91337,5.90907 10.64982,3.01716 10.59367,2.92392 7.62542,12.66248 -1.42816,4.68565 -3.34606,12.56936 -4.262,17.51936 l -1.66536,9 H 189.0842 c -17.15029,0 -31.18236,-0.26355 -31.18236,-0.58565 z m -34.66667,-59.21658 c -8.54581,-2.88577 -15.93941,-6.96031 -16.08528,-8.86443 -0.0562,-0.73334 -0.6178,-0.13334 -1.24805,1.33333 -1.06743,2.48404 -1.15232,2.44785 -1.23962,-0.5284 -0.0539,-1.83739 -2.54124,-5.81167 -5.853594,-9.35283 -6.95277,-7.43308 -12.819026,-17.13314 -13.494838,-22.31422 -1.122959,-8.60911 -2.317161,-11.13788 -5.25982,-11.13788 -5.321368,0 -8.45223,-3.6483 -11.367492,-13.24615 -1.551156,-5.10684 -3.474738,-9.68965 -4.274629,-10.18401 -2.413424,-1.49157 -6.449478,-11.61145 -6.480726,-16.24956 -0.01835,-2.72388 0.966181,-5.19873 2.637383,-6.62965 1.466667,-1.2558 2.666667,-3.68534 2.666667,-5.39898 0,-1.71363 0.517628,-2.79579 1.150284,-2.40478 0.632656,0.391 0.342029,-2.72359 -0.645839,-6.921317 -0.987868,-4.197724 -1.805496,-11.874635 -1.81695,-17.059805 -0.01699,-7.691138 0.654525,-10.742474 3.645838,-16.566471 2.016667,-3.926392 4.1755,-7.006157 4.797407,-6.843924 0.621907,0.162233 2.777093,-3.182855 4.789302,-7.433527 3.692972,-7.801181 13.101416,-18.707272 18.743036,-21.726576 2.828232,-1.513624 3.000769,-1.409811 2.274252,1.368394 -0.708317,2.708611 -0.358295,2.591574 3.535065,-1.18202 4.861614,-4.712053 6.514114,-5.294853 5.259674,-1.854961 -0.79115,2.169457 -0.65745,2.163733 1.90357,-0.08151 2.1236,-1.861757 2.91706,-2.014448 3.46436,-0.666666 0.48048,1.18324 2.02164,0.240109 4.76908,-2.918494 3.00587,-3.45571 4.0685,-4.061189 4.09506,-2.333333 0.0197,1.283334 0.62191,2.333333 1.33819,2.333333 1.66685,0 11.58927,-12.5077325 12.70089,-16.0101268 1.00396,-3.1631952 3.10301,-3.4664656 4.20034,-0.6068641 0.4326,1.1273213 2.7671,2.8772058 5.18778,3.8886324 2.42069,1.0114265 5.41354,3.3839215 6.6508,5.2722105 1.23725,1.888289 2.80654,3.089018 3.48729,2.668286 0.68076,-0.420732 3.51601,1.23442 6.30056,3.678115 5.39948,4.738546 12.88508,9.334061 16.17001,9.927014 2.62134,0.473168 9.97539,9.16848 13.20824,15.617202 1.97404,3.937731 2.68991,4.545912 3.1388,2.666667 0.7304,-3.057753 5.66744,7.167346 7.02712,14.553863 0.50504,2.743583 1.40184,4.68945 1.99292,4.324146 1.56925,-0.969851 3.9756,11.604529 3.90773,20.419815 -0.0321,4.180571 -0.886,9.922339 -1.89736,12.759487 -1.98442,5.56689 -1.4821,8.84156 1.35626,8.84156 2.17762,0 5.96782,5.16894 5.83924,7.96334 -0.0663,1.44141 -0.46315,1.25727 -1.35775,-0.63001 -0.96387,-2.03344 -1.11621,-1.45713 -0.64157,2.42703 0.73914,6.04855 -1.21292,12.15929 -3.44382,10.78052 -0.91697,-0.56672 -1.1819,-0.37053 -0.65373,0.48408 0.48847,0.79034 -0.27051,3.43304 -1.68659,5.87268 -1.41608,2.43962 -3.25467,7.01734 -4.08575,10.17269 -1.80399,6.84916 -5.5117,10.92967 -9.93112,10.92967 -2.5417,0 -3.44552,0.92068 -4.254,4.33333 -0.56464,2.38333 -0.90483,4.8058 -0.75596,5.38327 0.63308,2.45601 -7.30874,16.0711 -13.2869,22.77844 -3.63489,4.07826 -6.51686,8.63421 -6.56948,10.3853 -0.0881,2.93236 -0.1625,2.95955 -1.23961,0.45299 -0.63025,-1.46667 -1.18808,-2.03952 -1.23961,-1.273 -0.0516,0.76652 -3.86902,3.33002 -8.48327,5.69666 -10.68551,5.4806 -19.20683,6.39546 -28.94379,3.10744 z m 27.85796,-14.39605 c 4.20328,-2.05646 12.01451,-8.07277 18.23566,-14.04532 10.81553,-10.38334 10.9045,-10.52401 14.4019,-22.76881 1.93554,-6.77651 4.42566,-15.29888 5.53362,-18.93861 l 2.01448,-6.6177 -4.4105,4.81514 c -3.94854,4.3108 -5.34574,4.91529 -13.33982,5.77138 -12.58723,1.34798 -20.16992,-0.0723 -25.53482,-4.78272 -4.98422,-4.3762 -8.85373,-11.54304 -10.02541,-18.56841 -0.63393,-3.80103 -1.36421,-4.66667 -3.93693,-4.66667 -2.70831,0 -3.42345,1.03481 -5.01616,7.25833 -2.01354,7.8679 -6.57523,14.78973 -12.14972,18.43577 -2.7416,1.79317 -6.38331,2.29504 -16.37783,2.25701 -14.200361,-0.054 -18.943025,-1.87692 -21.349247,-8.20576 -0.721118,-1.89668 -1.621918,-3.13772 -2.001778,-2.75786 -0.37986,0.37986 1.864918,9.21891 4.988394,19.64234 l 5.679049,18.95168 10.805956,10.20925 c 19.852506,18.75624 34.688776,22.71695 52.483156,14.01096 z m -32.56615,-19.21536 c -1.18531,-2.29213 -1.92466,-4.39794 -1.64301,-4.6796 0.98597,-0.98597 6.3512,3.59556 6.3512,5.4235 0,3.72274 -2.6118,3.31008 -4.70819,-0.7439 z m 30.56554,-4.69541 c 0.44513,-1.15997 0.80932,-2.51564 0.80932,-3.0126 0,-0.49696 1.18963,-1.64649 2.64361,-2.55452 2.59316,-1.61945 2.60118,-1.56195 0.41972,3.0126 -2.17224,4.55524 -5.47688,6.73508 -3.87265,2.55452 z m -22.04297,-12.63289 c -2.98216,-2.59775 -2.99384,-2.6675 -0.22197,-1.32618 1.60916,0.7787 3.29457,2.01258 3.74536,2.74196 1.31074,2.12082 -0.12632,1.54338 -3.52339,-1.41578 z m -2.37578,-8.7025 c 0.064,-1.55326 0.37992,-1.8692 0.80556,-0.80556 0.38516,0.9625 0.33779,2.1125 -0.10527,2.55556 -0.44306,0.44306 -0.75819,-0.34445 -0.70029,-1.75 z m -43.268285,5.11111 C 76.049076,135.236 73.510588,128.14092 72.480422,128.7776 c -0.684888,0.42328 -1.263496,2.98419 -1.285796,5.69092 -0.03451,4.18881 -0.255948,4.55056 -1.487759,2.43041 -0.795968,-1.36998 -1.126093,-4.88502 -0.733612,-7.81119 0.501007,-3.73528 0.01596,-6.46749 -1.628139,-9.17099 -2.974456,-4.8911 -4.31355,-3.60312 -3.239193,3.11554 0.460157,2.87766 0.917775,6.23533 1.016927,7.46149 0.09916,1.22616 1.163549,4.05011 2.365325,6.27546 1.201776,2.22533 2.61868,6.35753 3.148676,9.18265 1.110075,5.9172 4.710494,10.1046 8.68817,10.1046 1.993908,0 2.569483,-0.64553 2.080464,-2.33333 z m 112.399585,-1.17981 c 1.51989,-1.93223 2.76344,-4.80536 2.76344,-6.38475 0,-1.57937 1.25485,-5.24847 2.78857,-8.15352 3.1098,-5.89036 3.46378,-7.57205 3.70793,-17.61525 0.1308,-5.37834 0.65172,-7 2.24885,-7 1.14328,0 1.68734,-0.63322 1.20902,-1.40716 -1.74948,-2.83072 -5.00504,-0.44672 -7.25343,5.31155 -1.80084,4.61211 -2.00969,6.86795 -0.95428,10.30684 0.94039,3.06406 0.90771,5.32252 -0.10746,7.42894 -1.38916,2.88228 -1.46296,2.82375 -1.54891,-1.22815 -0.17749,-8.36839 -2.68521,-5.6066 -6.68843,7.36607 -2.23772,7.25128 -4.06853,13.56765 -4.06853,14.03636 0,2.28064 5.46301,0.44129 7.90323,-2.66093 z m -76.01279,-18.3803 c 4.95952,-4.75346 8.45986,-13.44663 7.8765,-19.56146 -0.63478,-6.65385 -7.57625,-9.75382 -21.76193,-9.71861 -16.171672,0.0401 -23.415042,4.96084 -23.26309,15.80352 0.10896,7.77485 2.764484,14.37489 6.59141,16.38227 2.202288,1.15519 7.262847,1.6194 14.91411,1.3681 10.73259,-0.35252 11.8783,-0.66554 15.643,-4.27382 z m -28.394651,-12.24773 -3.26701,-4.80784 4.412118,-3.87389 c 4.384149,-3.84933 4.473109,-3.86524 14.032663,-2.50945 7.96441,1.12955 16.73633,3.81169 12.9462,3.95848 -0.57581,0.0223 -0.39193,1.39054 0.40861,3.04054 1.41647,2.9195 1.3813,2.91473 -1.31072,-0.17773 -1.52144,-1.74775 -4.56958,-3.38769 -6.77365,-3.64431 -3.34332,-0.38928 -3.72595,-0.16333 -2.30902,1.3635 1.23257,1.32819 1.96701,1.41348 2.67794,0.31099 0.53877,-0.83551 0.98877,0.39547 1,2.73553 0.0112,2.34005 -0.72959,4.73617 -1.64625,5.32471 -1.08406,0.69602 -0.0354,1.3613 3,1.90317 2.98472,0.53284 0.23886,0.89636 -7.6186,1.00862 l -12.28527,0.17552 z m 10.411777,0.70571 c -2.373168,-2.62232 -2.387381,-2.97502 -0.268664,-6.66667 2.175538,-3.79065 2.158618,-3.89787 -0.614984,-3.89787 -2.954788,0 -9.023921,4.79363 -9.023921,7.12743 0,2.8186 4.592152,6.20591 8.4133,6.20591 3.964733,0 3.977913,-0.0244 1.494269,-2.7688 z m 80.959634,14.66148 c 5.86051,-3.13645 8.62875,-18.87843 4.3852,-24.93696 -3.73359,-5.33043 -9.72555,-7.43395 -21.25741,-7.46257 -13.61635,-0.0338 -21.09356,3.10725 -21.78006,9.14941 -0.94934,8.35553 5.53282,20.64397 12.34299,23.39897 4.05559,1.64065 23.1676,1.53252 26.30928,-0.14885 z m -19.53387,-10.55935 c -6.6,-0.45618 -9.67653,-0.94279 -6.83674,-1.08137 4.41176,-0.21529 4.92314,-0.54128 3.51354,-2.23975 -0.90734,-1.09329 -1.38472,-3.79328 -1.06085,-6 0.70757,-4.82095 -0.67405,-5.07532 -4.85545,-0.89392 l -3.11828,3.11829 0.17889,-3.14652 c 0.21672,-3.81195 5.83592,-5.73809 16.7726,-5.74929 6.02417,-0.006 7.88188,0.588 10.91055,3.48965 l 3.65017,3.49709 -3.42105,5.16958 c -1.88159,2.84326 -3.49134,5.05619 -3.57723,4.91761 -0.0859,-0.13858 -5.55615,-0.62519 -12.15615,-1.08137 z m 14,-4.66667 3.13151,-3.33333 -3.13151,-3.33333 c -3.12114,-3.32231 -8.48552,-4.45049 -9.94361,-2.09123 -0.42221,0.68316 0.53167,2.15219 2.11975,3.26452 2.76053,1.93356 2.78945,2.1719 0.65822,5.42456 -2.17165,3.31437 -2.14837,3.40215 0.90248,3.40215 1.72242,0 4.54083,-1.5 6.26316,-3.33334 z m -115.08918,-2.25 c -0.425635,-1.06364 -0.741577,-0.7477 -0.805556,0.80556 -0.05789,1.40555 0.257237,2.19305 0.700293,1.75 0.443055,-0.44306 0.490424,-1.59306 0.105267,-2.55556 z m 2.612314,-6.41666 c 1.082168,0 1.578752,-0.62914 1.103519,-1.39808 -1.041252,-1.68478 -4.683306,0.91543 -4.521389,3.228 0.06615,0.94465 0.355212,0.88397 0.777779,-0.16326 0.369882,-0.91666 1.557923,-1.66666 2.640091,-1.66666 z m 80.247986,-8.48244 c 0.97412,-0.62556 3.37412,-1.62136 5.33334,-2.21287 3.43238,-1.03629 3.39456,-1.07966 -1.03779,-1.19009 -7.74957,-0.19307 -2.65917,-2.988211 6.81033,-3.739556 6.47655,-0.513873 11.31955,0.115587 20.6861,2.688636 l 12.22976,3.35959 -0.5115,-4.211639 c -0.28132,-2.3164 -0.79412,-7.688343 -1.13954,-11.937651 -0.83064,-10.218153 -5.17999,-18.932979 -11.55419,-23.151217 -5.59713,-3.704007 -10.6942,-3.80113 -29.92096,-0.570132 -9.96585,1.674732 -17.37556,1.178443 -31.50262,-2.109984 -8.1805,-1.904215 -9.19756,-1.885194 -13.710692,0.256426 C 87.81972,67.246489 82.854169,76.902434 81.457531,95.59607 l -0.613106,8.20625 11.528707,-3.18969 c 12.895948,-3.567956 22.884938,-4.007829 28.862038,-1.270959 l 4,1.831569 -4.66666,0.22855 -4.66667,0.22854 4.26769,1.23419 c 2.34723,0.67881 4.5834,1.74503 4.96927,2.36937 0.89535,1.44871 15.51931,1.18148 17.86749,-0.3265 z m -29.42224,-4.43367 c -1.27478,-0.33373 -3.67478,-0.34583 -5.33333,-0.0269 -1.65855,0.31892 -0.61555,0.59197 2.31779,0.60677 2.93333,0.0148 4.29033,-0.24614 3.01554,-0.57987 z m 47.34316,0.0415 c -0.9027,-0.36523 -2.7027,-0.38747 -4,-0.0494 -1.29729,0.33806 -0.5587,0.63688 1.6413,0.66405 2.2,0.0272 3.26141,-0.24942 2.3587,-0.61465 z"
     style="fill:#a66958;stroke-width:1.33333325" />
  <path
     inkscape:connector-curvature="0"
     id="path2008"
     d="m 45.871762,259.05649 c -0.915946,-4.95 -2.81176,-12.7622 -4.212917,-17.36043 -1.401157,-4.59824 -2.243255,-8.85281 -1.871328,-9.4546 1.008789,-1.63225 22.542866,-6.89086 36.11432,-8.81909 5.299098,-0.75289 5.357954,-0.71264 9.16858,6.27152 3.188708,5.84428 16.195643,25.80525 23.327383,35.79916 1.78989,2.50821 1.15399,2.56344 -29.515692,2.56344 H 47.537121 Z m 78.319408,4 c 0.43358,-2.75 1.46879,-7.38808 2.30046,-10.30684 1.40924,-4.94573 1.28185,-5.50652 -1.87216,-8.2414 l -3.3843,-2.93456 5.2706,-5.42527 c 2.89883,-2.98389 6.02795,-5.42526 6.95361,-5.42526 2.29669,0 11.10913,7.87824 11.10913,9.93146 0,0.91039 -1.258,2.79371 -2.79556,4.18518 -2.84334,2.57318 -2.90248,6.39318 -0.30039,19.40364 l 0.76261,3.81305 h -9.41617 -9.41617 z m 33.71067,4.41435 c 0,-0.32211 3.28617,-5.1659 7.30261,-10.76398 4.01644,-5.59808 10.41452,-15.38454 14.21795,-21.74768 3.80343,-6.36314 7.05815,-11.76026 7.23273,-11.9936 0.48571,-0.64917 24.38272,3.77559 31.91337,5.90907 10.34379,2.93045 10.55596,3.18769 8.24702,9.99837 -1.09083,3.21758 -3.02476,11.10014 -4.29763,17.5168 l -2.31431,11.66667 h -31.15087 c -17.13298,0 -31.15087,-0.26355 -31.15087,-0.58565 z m -32.0942,-58.51236 c -9.34693,-2.60988 -17.34253,-7.91403 -26.194912,-17.37725 -7.347144,-7.85412 -16.346255,-22.66715 -14.743988,-24.26942 0.361005,-0.361 2.834918,2.00226 5.497586,5.2517 5.852976,7.14278 19.360724,18.03737 27.438994,22.13076 17.71323,8.97555 37.01556,2.01778 58.45612,-21.07127 6.87615,-7.40483 6.99285,-7.46679 5.46235,-2.89984 -4.1627,12.42119 -20.07898,29.80749 -32.48862,35.48924 -8.72776,3.99601 -15.92833,4.84002 -23.42753,2.74608 z m -7.1244,-34.40015 c -1.306,-2.21088 -2.1299,-4.26445 -1.83087,-4.56348 1.00915,-1.00914 6.3828,3.53027 6.3828,5.3919 0,3.55538 -2.19873,3.15524 -4.55193,-0.82842 z m 30.40928,-4.61089 c 0.44513,-1.15997 0.80932,-2.59579 0.80932,-3.19068 0,-0.59489 0.85639,-1.41025 1.90309,-1.81192 1.56208,-0.59941 1.65816,-0.0277 0.53623,3.19069 -0.75177,2.15652 -1.97235,3.92096 -2.7124,3.92096 -0.74005,0 -0.98136,-0.94906 -0.53624,-2.10905 z M 91.23517,141.48336 c -6.300887,-1.25991 -10.327649,-3.59157 -11.256449,-6.51796 -0.423709,-1.33499 -2.616581,-3.79221 -4.873049,-5.46049 -4.650806,-3.43849 -11.867861,-17.54114 -11.869449,-23.19377 -5.79e-4,-2.05995 0.516576,-3.42545 1.149232,-3.03444 0.632656,0.391 0.342029,-2.72359 -0.645839,-6.921317 -0.987868,-4.197724 -1.805496,-11.874635 -1.81695,-17.059805 -0.01693,-7.667247 0.663817,-10.779273 3.645838,-16.666666 2.016667,-3.981497 4.239511,-7.239086 4.939655,-7.239086 0.700143,0 2.996435,-3.448923 5.10287,-7.664273 3.741459,-7.487324 13.214075,-18.285408 18.542516,-21.137103 2.394853,-1.281686 2.570652,-1.109377 1.721101,1.68694 -0.839309,2.762602 -0.401686,2.595358 3.87383,-1.480453 3.924944,-3.741615 4.820034,-4.136541 4.820034,-2.126683 0,2.38375 0.0912,2.38563 2.66666,0.05491 2.57792,-2.332983 2.66834,-2.328767 2.71673,0.12668 0.039,1.980084 1.06335,1.364332 4.64683,-2.793349 3.2558,-3.777495 4.60256,-4.652653 4.61661,-3 0.0109,1.283333 0.60588,2.333333 1.32216,2.333333 1.66685,0 11.58927,-12.5077328 12.70089,-16.0101271 1.00396,-3.1631952 3.10301,-3.4664656 4.20034,-0.6068642 0.4326,1.1273214 2.7671,2.8772058 5.18778,3.8886325 2.42069,1.0114265 5.41354,3.3839208 6.6508,5.2722098 1.23725,1.888289 2.80654,3.089019 3.48729,2.668287 0.68076,-0.420732 3.61687,1.38442 6.52467,4.011448 2.90781,2.627029 5.83916,4.776415 6.51412,4.776415 0.67494,0 3.19652,1.65 5.60348,3.666667 2.40694,2.016667 3.88058,2.856805 3.27472,1.866976 -0.88822,-1.451135 -0.56642,-1.513295 1.6615,-0.320948 3.34262,1.788917 13.52131,15.709228 13.65247,18.671027 0.0687,1.549563 0.38879,1.402175 1.19563,-0.550389 0.96318,-2.33092 1.44174,-1.911236 3.80092,3.333333 1.48445,3.3 3.1122,8.24475 3.61722,10.988333 0.50504,2.743583 1.40184,4.68945 1.99292,4.324146 1.56925,-0.969851 3.9756,11.604529 3.90773,20.419815 -0.0321,4.180571 -0.89941,9.961364 -1.92717,12.846211 -1.02775,2.88484 -1.54999,5.76075 -1.16053,6.3909 1.42332,2.30298 -6.46191,20.83464 -10.3326,24.28345 -2.11997,1.88891 -3.85451,4.01434 -3.85451,4.72318 0,3.99212 -16.71354,7.57624 -28.05545,6.01634 -10.63091,-1.46212 -18.29097,-9.83312 -21.02076,-22.97167 -0.85773,-4.1283 -1.61441,-5.02071 -4.25712,-5.02071 -2.6427,0 -3.39938,0.89241 -4.25712,5.02071 -1.38097,6.64667 -5.36579,14.24747 -9.48425,18.09064 -5.30747,4.95271 -17.00829,6.69841 -28.9253,4.31552 z m 23.74723,-4.62948 c 4.09816,-2.11925 9.40863,-10.76548 11.03162,-17.96114 1.52414,-6.75735 -1.1126,-10.23812 -9.68366,-12.78345 -8.15087,-2.42055 -13.24383,-2.56467 -22.264688,-0.63004 -9.752928,2.09163 -13.497168,6.12971 -13.497168,14.5564 0,8.41256 2.915331,15.67519 6.94076,17.29071 4.892098,1.96335 23.377526,1.64544 27.473136,-0.47248 z m -25.584771,-14.93856 -3.26701,-4.80784 4.218942,-3.67651 c 4.071557,-3.54808 4.540129,-3.63729 13.413019,-2.55375 12.27409,1.4989 13.53681,2.00409 13.77806,5.5124 0.19711,2.86629 0.12335,2.88858 -1.65234,0.49942 -1.02227,-1.37544 -3.70168,-2.71538 -5.95426,-2.97765 -3.41848,-0.39803 -3.8148,-0.17431 -2.39722,1.35323 1.23257,1.32819 1.96701,1.41348 2.67794,0.31099 0.53877,-0.83551 0.98877,0.39547 1,2.73553 0.0112,2.34005 -0.68976,4.69355 -1.55775,5.23 -1.0849,0.6705 -0.77234,1.29093 1,1.98498 1.53737,0.60204 -1.57394,1.04744 -7.7071,1.10333 l -10.28527,0.0937 z m 10.411777,0.70571 c -2.373168,-2.62232 -2.387381,-2.97502 -0.268664,-6.66667 2.175538,-3.79065 2.158618,-3.89787 -0.614984,-3.89787 -2.954788,0 -9.023921,4.79363 -9.023921,7.12743 0,2.8186 4.592152,6.20591 8.4133,6.20591 3.964733,0 3.977913,-0.0244 1.494269,-2.7688 z m 80.832954,14.72928 c 4.06788,-2.17707 6.59281,-8.54401 6.59281,-16.6246 0,-6.3176 -0.53018,-7.95458 -3.45398,-10.66426 -7.19687,-6.66983 -29.3859,-7.46284 -38.66659,-1.3819 -7.26368,4.75935 -0.76211,24.54595 9.45391,28.77157 3.84898,1.59205 23.04942,1.5178 26.07385,-0.1008 z m -23.66972,-11.55989 c 1.90089,-0.4929 2.07816,-1.01618 0.84688,-2.49978 -0.85649,-1.03202 -1.29227,-3.68188 -0.9684,-5.8886 0.66752,-4.54811 0.13989,-4.82645 -3.85064,-2.03137 -2.40132,1.68195 -2.93635,1.6986 -3.54581,0.11034 -0.95776,-2.49587 1.62857,-3.33297 13.36214,-4.32482 9.47546,-0.80097 10.00336,-0.69082 13.71039,2.86073 l 3.85548,3.69379 -2.90708,4.48972 c -2.8916,4.4658 -2.96039,4.48899 -12.90709,4.35156 -5.5,-0.076 -8.91814,-0.4187 -7.59587,-0.76157 z m 18.26253,-3.73393 3.13151,-3.33333 -3.13151,-3.33333 c -3.12114,-3.32231 -8.48552,-4.45049 -9.94361,-2.09123 -0.42221,0.68316 0.53167,2.15219 2.11975,3.26452 2.76053,1.93356 2.78945,2.1719 0.65822,5.42456 -2.17165,3.31437 -2.14837,3.40215 0.90248,3.40215 1.72242,0 4.54083,-1.5 6.26316,-3.33334 z m -30.95001,-17.5518 c 2.41083,-1.07475 8.11083,-2.48935 12.66667,-3.14356 7.98185,-1.14619 7.87084,-1.16912 -3.04999,-0.63015 -12.45057,0.61447 -12.33652,-1.363638 0.15712,-2.725138 5.36297,-0.584433 10.36483,0.06503 19.79573,2.570338 6.94075,1.84381 12.7566,3.21531 12.92414,3.04778 0.16752,-0.16753 -0.20676,-5.755806 -0.83174,-12.418387 -1.30317,-13.892379 -4.41437,-21.260946 -11.14429,-26.394108 -6.13884,-4.682319 -11.10288,-5.369807 -20.81229,-2.882369 -10.4933,2.688255 -30.62066,2.746108 -39.30058,0.11296 -11.58624,-3.514808 -14.63248,-2.841801 -22.696874,5.014432 -7.956125,7.750758 -9.438939,11.489045 -10.930824,27.55745 -0.763028,8.218222 -0.60058,9.768862 0.960643,9.169782 9.237913,-3.54481 26.342175,-6.559993 32.703955,-5.765141 11.02627,1.377642 9.76943,3.227951 -1.8091,2.663351 l -10.34922,-0.50466 8.31156,1.18976 c 4.57136,0.65436 9.97136,2.04289 12,3.0856 4.83544,2.48541 15.88644,2.51228 21.40509,0.0521 z"
     style="fill:#685f5b;stroke-width:1.33333325" />
  <path
     inkscape:connector-curvature="0"
     id="path2006"
     d="m 47.233445,265.72316 c -0.0019,-2.4768 -5.873228,-27.44087 -7.352199,-31.26016 -0.719432,-1.85786 0.747136,-2.74436 8.239355,-4.98047 11.726385,-3.49983 32.989311,-7.13515 33.460768,-5.72077 1.012576,3.03772 12.896047,22.18328 19.296011,31.08794 4.00298,5.5696 7.70648,10.8196 8.22999,11.66667 0.70948,1.14796 -7.0466,1.54012 -30.460177,1.54012 -29.026664,0 -31.412152,-0.17719 -31.413748,-2.33333 z m 77.335065,-1.45476 c 0,-2.08346 0.89292,-6.73346 1.98427,-10.33334 1.96099,-6.46844 1.94526,-6.57398 -1.34097,-8.99534 l -3.32525,-2.45011 2.63981,-3.70728 c 1.4519,-2.039 4.1751,-4.71324 6.05157,-5.94275 3.24279,-2.12476 3.60778,-2.09586 7.37054,0.58346 2.17733,1.55038 4.63835,4.08866 5.46892,5.6406 1.28209,2.39564 0.99581,3.26409 -1.89599,5.75152 -3.02284,2.60013 -3.28385,3.50994 -2.31958,8.08557 0.5976,2.83567 1.47676,7.40576 1.95369,10.15576 l 0.86716,5 h -8.72709 c -8.69938,0 -8.72708,-0.012 -8.72708,-3.78809 z m 34.1288,2.12142 c 0.52405,-0.91666 3.79856,-5.56666 7.27665,-10.33333 5.95665,-8.16345 19.25592,-29.31745 20.18629,-32.10859 0.53055,-1.59164 20.93092,1.77648 33.52283,5.53463 7.51021,2.24148 8.957,3.11815 8.2194,4.98047 -1.59994,4.03961 -5.73627,20.92008 -6.69852,27.33688 l -0.93824,6.25661 h -31.26063 c -24.6278,0 -31.05846,-0.35363 -30.30778,-1.66667 z m -32.88967,-57.43134 c -9.27665,-2.59027 -17.39056,-7.93564 -25.74775,-16.9624 -6.133832,-6.62527 -15.491386,-21.45417 -15.491386,-24.54919 0,-0.37709 4.951853,4.25579 11.004117,10.29532 6.789999,6.7757 14.321519,12.76643 19.666669,15.64328 7.72115,4.15566 9.74929,4.65944 18.66255,4.63576 7.88847,-0.0209 11.26692,-0.69084 16,-3.17246 8.12293,-4.25899 21.44673,-14.96862 28.06659,-22.55982 l 5.43498,-6.23248 -2.12729,5.33334 c -5.38337,13.4966 -19.82917,29.18989 -32.04095,34.80791 -8.71396,4.00886 -15.91746,4.85772 -23.42753,2.76074 z m -7.12402,-34.91344 c -1.61178,-2.45988 -1.73285,-3.32188 -0.46658,-3.32188 2.16707,0 5.35501,4.96776 3.80334,5.92673 -0.6381,0.39438 -2.13964,-0.77781 -3.33676,-2.60485 z m 31.21822,-4.9364 c 0,-1.13243 0.99823,-2.88243 2.21829,-3.88889 2.02912,-1.67387 2.07056,-1.54566 0.48607,1.50341 -2.32289,4.46993 -2.70436,4.80641 -2.70436,2.38548 z m -65.575108,-29.7668 c -1.966308,-1.06768 -3.922345,-3.03528 -4.346748,-4.37247 -0.424404,-1.33717 -2.617844,-3.79618 -4.874312,-5.46446 -6.593036,-4.87444 -14.631602,-24.19478 -10.68072,-25.67064 0.654379,-0.24444 0.301495,-4.644445 -0.784186,-9.777779 C 61.053,81.820998 61.992135,69.771969 66.165682,61.661979 c 1.775268,-3.449684 3.710052,-6.090695 4.299517,-5.868911 0.589467,0.221784 2.460845,-2.594962 4.15862,-6.259434 3.181233,-6.866364 11.694494,-17.026613 18.071091,-21.56715 l 3.625168,-2.581347 -0.732648,3.002344 c -0.680528,2.788767 -0.422085,2.717796 3.633016,-0.997655 3.050154,-2.794676 4.555344,-3.473221 4.995144,-2.251825 0.48624,1.350385 1.2048,1.227515 3.15786,-0.539984 2.39805,-2.170199 2.53125,-2.157217 2.58389,0.251825 0.0438,2.00423 1.02813,1.438486 4.66667,-2.682162 3.10365,-3.514885 4.61116,-4.495667 4.61116,-3 0,1.222181 0.55325,2.222146 1.22944,2.222146 1.75305,0 10.43411,-10.411517 12.41794,-14.8933004 1.86112,-4.2045636 3.03578,-4.724194 4.14501,-1.8336054 0.4094,1.0668681 3.15352,3.1688277 6.09807,4.6710216 2.94454,1.5021942 5.98293,3.9069592 6.75197,5.3439222 0.76904,1.436963 2.20045,2.304828 3.18092,1.928588 0.98045,-0.376239 3.65297,1.446104 5.93892,4.049652 2.28595,2.603548 4.86796,4.733722 5.73781,4.733722 0.86986,0 3.58818,1.530535 6.04074,3.401188 2.45254,1.870654 4.45918,2.952954 4.45918,2.405111 0,-2.287244 9.81486,8.663008 12.722,14.193701 2.16032,4.109888 3.18675,5.15995 3.25832,3.333333 0.10147,-2.587677 0.1605,-2.592713 1.99515,-0.17004 1.03985,1.373144 2.94328,6.582839 4.22984,11.577099 1.28655,4.994261 2.74732,8.82823 3.24616,8.519934 1.47346,-0.910655 3.88186,10.659692 3.88186,18.649132 0,4.067398 -1.14225,10.401423 -2.53833,14.075606 -1.39608,3.6742 -1.99608,6.34522 -1.33333,5.93562 3.92981,-2.42876 -4.75936,19.2665 -9.53759,23.81356 -2.15824,2.05384 -3.92408,4.28844 -3.92408,4.96577 0,0.67732 -1.87182,2.19947 -4.15961,3.38252 -3.23999,1.67547 -7.19648,2.05151 -17.89596,1.70091 -12.48761,-0.40919 -14.06064,-0.75314 -17.30348,-3.78344 -4.33281,-4.04884 -8.31143,-11.5468 -9.71716,-18.31263 -0.85473,-4.11386 -1.61871,-5.02071 -4.22968,-5.02071 -2.68248,0 -3.44019,0.99438 -4.79021,6.28648 -2.17673,8.53276 -5.84014,14.4484 -11.17316,18.04232 -3.87497,2.61135 -6.13387,2.99755 -17.26125,2.95115 -8.592527,-0.0359 -13.97852,-0.69176 -16.377928,-1.9946 z m 31.445068,-3.04217 c 7.17185,-4.15708 12.98262,-19.72549 9.40207,-25.19038 -2.24918,-3.43286 -13.16731,-7.0528 -21.27203,-7.0528 -7.97313,0 -18.896964,3.59288 -21.283556,7.00022 -3.877528,5.53594 -1.642153,22.6222 3.364455,25.71645 6.00309,3.71012 23.038581,3.43933 29.789061,-0.47349 z m -25.096227,-13.28508 -2.559597,-3.62476 3.226264,2.91129 c 2.001244,1.80587 5.504477,3.10966 9.22626,3.43373 l 6.00001,0.52242 -6.666673,0.19105 c -5.845901,0.16752 -6.981791,-0.25522 -9.226264,-3.43373 z m -0.910273,-7.9581 c 2.767741,-4.01822 3.487212,-4.31639 9.893996,-4.10039 l 6.909214,0.23295 -6.00001,0.51876 c -4.166518,0.36024 -7.189923,1.61323 -9.893992,4.10039 l -3.893997,3.58163 z m 24.71432,-0.22613 c -0.68445,-0.64993 -2.44445,-1.47033 -3.91111,-1.82311 l -2.66667,-0.64142 2.66667,-0.13425 c 2.96834,-0.14944 6.98833,1.94769 5.87249,3.06353 -0.39431,0.39432 -1.27694,0.18518 -1.96138,-0.46475 z m 67.12193,21.77536 c 4.06626,-2.66433 5.63362,-7.12496 5.63362,-16.03302 0,-6.12445 -0.55189,-7.82168 -3.40241,-10.46346 -9.28297,-8.60316 -36.98444,-7.29532 -41.94871,1.98048 -1.79272,3.34974 -0.1176,9.89305 4.58866,17.92359 3.2785,5.59434 5.2233,6.80725 14.76246,9.2069 4.51487,1.13575 17.11055,-0.4812 20.36638,-2.61449 z m -14.72718,-10.8646 c 5.29764,-0.37134 7.45956,-1.18407 9,-3.38336 1.11511,-1.59204 2.02747,-2.2541 2.02747,-1.47126 0,3.40902 -4.96096,5.83349 -11.43832,5.59002 l -6.56168,-0.24665 z m -14.97253,-12.35129 c 1.46667,-0.63025 3.56667,-1.14591 4.66667,-1.14591 1.26064,0 1.01418,0.42362 -0.66667,1.14591 -1.46667,0.63025 -3.56667,1.1459 -4.66667,1.1459 -1.26064,0 -1.01418,-0.42362 0.66667,-1.1459 z m 11.66667,-2.25244 c 1.28333,-0.33537 3.38333,-0.33537 4.66666,0 1.28334,0.33537 0.23334,0.60977 -2.33333,0.60977 -2.56667,0 -3.61667,-0.2744 -2.33333,-0.60977 z m -19.05586,-6.58622 c 2.39462,-1.19459 8.9368,-2.65093 14.53819,-3.2363 l 10.18433,-1.06432 -12.25136,0.30968 c -12.88782,0.32578 -15.48117,-1.001547 -4.74714,-2.429687 6.46436,-0.860069 12.23966,-0.03216 26.23269,3.760547 4.34547,1.17781 8.06133,1.981 8.25745,1.78487 0.19614,-0.19613 -0.15474,-5.807806 -0.77972,-12.470387 -1.30833,-13.947469 -4.41477,-21.261253 -11.24233,-26.468885 -6.05643,-4.619466 -12.18239,-5.437424 -21.1652,-2.826049 -9.41703,2.737604 -30.02874,2.807329 -38.84963,0.131426 -11.58624,-3.514813 -14.63248,-2.841806 -22.696874,5.014427 -4.877629,4.751727 -7.639469,8.71297 -8.598989,12.333333 -1.525514,5.755911 -3.562428,24.666665 -2.656896,24.666665 0.303378,0 5.039538,-1.29016 10.524798,-2.86702 10.831011,-3.113619 28.288491,-4.017692 30.715511,-1.590671 1.06876,1.068751 -1.91607,1.353801 -10.97037,1.047651 l -12.438606,-0.42059 10.069406,1.06778 c 5.53817,0.58728 11.83817,2.02515 14,3.19527 5.12915,2.77622 16.37036,2.80822 21.87474,0.0623 z"
     style="fill:#66493b;stroke-width:1.33333325" />
  <path
     inkscape:connector-curvature="0"
     id="path2004"
     d="m 47.233445,265.72316 c -0.0019,-2.4768 -5.873228,-27.44087 -7.352199,-31.26016 -0.719432,-1.85786 0.747136,-2.74436 8.239355,-4.98047 11.726385,-3.49983 32.989311,-7.13515 33.460768,-5.72077 1.012576,3.03772 12.896047,22.18328 19.296011,31.08794 4.00298,5.5696 7.70648,10.8196 8.22999,11.66667 0.70948,1.14796 -7.0466,1.54012 -30.460177,1.54012 -29.026664,0 -31.412152,-0.17719 -31.413748,-2.33333 z m 77.335065,-1.45476 c 0,-2.08346 0.89292,-6.73346 1.98427,-10.33334 1.96099,-6.46844 1.94526,-6.57398 -1.34097,-8.99534 l -3.32525,-2.45011 2.63981,-3.70728 c 1.4519,-2.039 4.1751,-4.71324 6.05157,-5.94275 3.24279,-2.12476 3.60778,-2.09586 7.37054,0.58346 2.17733,1.55038 4.63835,4.08866 5.46892,5.6406 1.28424,2.39962 0.9918,3.26754 -1.95504,5.80232 l -3.46516,2.9806 1.92916,9.10497 c 1.06105,5.00772 1.9396,9.55496 1.95233,10.10496 0.0133,0.55 -3.87685,1 -8.64352,1 -8.633,0 -8.66666,-0.0147 -8.66666,-3.78809 z m 34.1288,2.12142 c 0.52405,-0.91666 3.79856,-5.56666 7.27665,-10.33333 5.95665,-8.16345 19.25592,-29.31745 20.18629,-32.10859 0.53055,-1.59164 20.93092,1.77648 33.52283,5.53463 7.51021,2.24148 8.957,3.11815 8.2194,4.98047 -1.59994,4.03961 -5.73627,20.92008 -6.69852,27.33688 l -0.93824,6.25661 h -31.26063 c -24.6278,0 -31.05846,-0.35363 -30.30778,-1.66667 z m -32.7516,-57.8038 c -13.10853,-3.5181 -27.089425,-14.90426 -35.054889,-28.54903 -7.439166,-12.74322 -6.398137,-13.19707 4.789348,-2.08802 13.305511,13.21223 24.400891,19.51123 36.883241,20.93912 l 8.67176,0.99198 -9.33333,-0.38124 c -10.91725,-0.44595 -19.15543,-4.06794 -29,-12.75011 -9.267188,-8.17296 -7.736196,-4.46201 2.02691,4.91301 11.35378,10.90245 18.01991,14.18091 28.97309,14.2492 11.38493,0.0709 20.41683,-4.53921 31.66667,-16.16376 8.39674,-8.67642 11.52801,-14.30532 4.6024,-8.27346 -2.05202,1.7872 -1.18427,0.69693 1.92832,-2.42283 3.11258,-3.11975 6.59152,-7.00325 7.73093,-8.63 3.79332,-5.41572 2.22649,0.65417 -2.14307,8.30228 -8.5078,14.89132 -26.51534,28.95613 -39.78525,31.07432 -2.56667,0.40969 -7.94692,-0.13546 -11.95613,-1.21146 z M 96.568504,180.88641 c 0,-0.27686 -1.05,-1.32686 -2.333334,-2.33333 -2.114741,-1.65849 -2.161901,-1.61133 -0.503406,0.50341 1.741825,2.221 2.83674,2.92731 2.83674,1.82992 z m 49.153086,15.78456 c 2.46753,-1.07129 4.86753,-1.92654 5.33333,-1.90056 1.73473,0.0968 -5.89825,3.85806 -7.81975,3.85331 -1.1,-0.003 0.0189,-0.88145 2.48642,-1.95275 z m 7.51358,-2.8319 c 3.4068,-3.22716 11.7771,-8.68567 9.75612,-6.36226 -1.23413,1.41883 -4.23413,3.71494 -6.66666,5.10248 -2.43254,1.38754 -3.82279,1.95443 -3.08946,1.25978 z m -33.9331,-18.99091 c -1.66184,-3.10517 -1.75767,-4.125 -0.38763,-4.125 1.74389,0 4.35508,5.15472 3.02699,5.97553 -0.68152,0.4212 -1.86923,-0.41153 -2.63936,-1.85053 z m 30.59977,-6.04631 c 0,-1.05672 0.54404,-2.25754 1.20899,-2.6685 0.66494,-0.41096 0.89496,0.45362 0.51116,1.9213 -0.81415,3.11332 -1.72015,3.50687 -1.72015,0.7472 z M 87.23517,140.44819 c -3.143221,-1.14902 -7.999999,-6.00537 -7.999999,-7.9993 0,-0.99518 -1.05,-2.21141 -2.333334,-2.70274 -3.313269,-1.26848 -7.032755,-6.03921 -6.309094,-8.09224 0.336536,-0.95475 0.0081,-1.36282 -0.729644,-0.90681 -1.719405,1.06265 -6.617304,-9.64127 -6.417069,-14.02394 0.11948,-2.61505 0.268016,-2.7587 0.689322,-0.66667 0.462286,2.29552 6.816588,6.72768 7.97892,5.56535 0.223686,-0.22369 -0.780208,-4.55711 -2.230876,-9.62983 C 66.146074,88.923269 65.242963,77.694281 67.254747,69.308224 l 1.690555,-7.047021 3.084684,5.897644 3.084685,5.897645 0.09189,-6.666667 c 0.09856,-7.150375 4.316227,-18.913954 9.281348,-25.886823 1.670991,-2.346691 2.775076,-4.529799 2.453523,-4.851352 -1.031427,-1.031427 -6.160694,5.264716 -10.408391,12.776232 -4.014288,7.098762 -4.269197,4.508998 -0.319665,-3.247663 2.412197,-4.737421 13.234106,-16.472871 16.965939,-18.398133 1.991606,-1.027473 1.669752,-0.282813 -1.198849,2.773732 -3.45132,3.677446 -3.87886,5.016697 -3.566779,11.172812 0.409218,8.07223 2.074494,10.818926 3.387531,5.587371 0.49728,-1.981322 2.373349,-5.764531 4.169045,-8.407135 l 3.264904,-4.804732 0.09351,5.976179 0.09351,5.97618 2.402093,-7.051156 c 3.52841,-10.357343 3.7696,-10.341397 5.8158,0.384489 0.43011,2.254576 0.75046,2.048531 2.073,-1.333333 3.92463,-10.035635 3.55887,-9.752323 6.14185,-4.757391 l 2.35755,4.558991 1.70757,-4.061115 c 0.93916,-2.233613 4.15778,-6.030156 7.15248,-8.436762 2.9947,-2.406607 5.82199,-5.563743 6.28288,-7.015856 1.44489,-4.552465 3.17018,0.243676 3.19269,8.875393 0.0177,6.811643 0.28083,7.613808 2.02277,6.168117 1.1013,-0.913996 3.14634,-5.337462 4.54454,-9.829926 l 2.54218,-8.168117 2.7595,5.999999 c 1.51774,3.3 2.81487,7.5 2.88251,9.333334 0.0676,1.833333 0.61208,4.533333 1.20984,5.999999 1.16925,2.868848 0.93173,3.429151 3.93701,-9.287466 0.8726,-3.692337 1.28275,-3.142617 6.19492,8.302894 2.89326,6.741366 5.68052,12.270726 6.19394,12.287467 0.5134,0.01675 1.1134,-3.375459 1.33333,-7.538221 l 0.39987,-7.568659 3.88712,5.625103 c 2.1379,3.093806 4.64741,8.449702 5.57666,11.901991 1.54374,5.735132 1.69734,5.90288 1.77956,1.943558 0.0495,-2.383334 0.55728,-4.333334 1.12842,-4.333334 1.15406,0 6.73222,19.728357 7.35146,26 0.36295,3.67588 0.56207,3.464866 2.45732,-2.604125 l 2.06238,-6.604126 0.90733,8.855983 c 0.49903,4.87079 0.59017,11.442646 0.20256,14.604125 l -0.70476,5.748142 1.94916,-4 c 1.71408,-3.517546 1.95643,-3.644193 2.00932,-1.050017 0.0331,1.622491 -1.08393,6.122491 -2.48223,10 -1.3983,3.877516 -2.94682,9.413756 -3.44117,12.302776 -0.78437,4.58399 -0.64281,5.04031 1.1118,3.5841 1.66105,-1.37855 1.57424,-0.22746 -0.49932,6.62107 -3.06088,10.10939 -1.50607,8.8309 2.55425,-2.1003 1.84314,-4.96209 2.43522,-8.15149 1.56699,-8.4409 -0.94132,-0.31377 -0.96569,-1.26837 -0.0749,-2.93287 3.01443,-5.63253 5.45859,-20.447909 4.55995,-27.640393 -0.56365,-4.511323 -1.31737,-6.62263 -1.98094,-5.548963 -0.75976,1.229334 -1.26931,0.784407 -1.75299,-1.530709 -4.3711,-20.922042 -5.98834,-25.218974 -6.24662,-16.597126 l -0.15976,5.333333 -1.73382,-6.298732 c -1.99813,-7.259009 -7.15606,-16.56245 -11.22289,-20.242874 -3.3254,-3.009454 -3.54269,-2.086137 -0.77061,3.274487 1.11882,2.163582 1.73424,3.933786 1.36757,3.933786 -0.36667,0 -1.53877,-1.686472 -2.60468,-3.747716 -2.04655,-3.957569 -9.93276,-12.252283 -11.64888,-12.252283 -0.55671,0 -0.1428,2.080729 0.91979,4.623841 2.81982,6.74881 2.25314,7.549261 -0.97426,1.376159 -1.5336,-2.933334 -4.57253,-7.733334 -6.7532,-10.666667 l -3.96482,-5.333333 4.12665,4.333333 c 2.26967,2.383333 4.82848,4.333333 5.68627,4.333333 0.85778,0 3.56624,1.530535 6.0188,3.401188 2.45254,1.870654 4.45918,2.958399 4.45918,2.417212 0,-2.179846 8.50639,7.262524 11.98291,13.301416 2.28485,3.968926 3.99071,5.76542 4.4312,4.666666 1.15541,-2.882027 3.2184,1.058371 5.82389,11.123951 1.26858,4.900737 2.73338,8.646602 3.25512,8.324145 1.35464,-0.837209 3.84819,11.749373 3.79668,19.164382 -0.024,3.447237 -1.12588,9.400392 -2.44875,13.229234 -1.32288,3.82884 -1.92127,7.12884 -1.32977,7.33333 0.59149,0.2045 -0.41028,4.45933 -2.22617,9.45519 -2.43663,6.70365 -5.08457,10.89545 -10.10713,16 l -6.80554,6.91662 -13.02081,0.45311 c -18.78073,0.65354 -24.253,-2.99367 -29.38675,-19.58597 -1.91862,-6.20098 -2.85594,-7.53381 -5.29821,-7.53381 -2.44227,0 -3.37959,1.33283 -5.29821,7.53381 -2.81258,9.09029 -6.9222,15.15553 -12.07403,17.81965 -3.78148,1.95548 -24.752115,2.6987 -29.29443,1.03824 z m 28.84343,-3.96346 c 6.80553,-4.45915 13.21109,-21.01279 9.74646,-25.18742 -4.88369,-5.88449 -22.00415,-8.9738 -33.076492,-5.96849 -9.126892,2.47726 -12.181052,6.40739 -12.17508,15.66707 0.0061,9.58872 3.348883,15.71936 9.610898,17.62678 5.798948,1.76637 21.973644,0.43092 25.894214,-2.13794 z M 91.775154,123.72316 c -2.520544,-2.97704 -2.519556,-2.98285 0.129094,-0.7595 1.46799,1.23227 5.36799,2.47745 8.666672,2.76706 l 5.99759,0.52655 -6.12669,0.23295 c -4.886795,0.1858 -6.640712,-0.37419 -8.666666,-2.76706 z m -1.290529,-8.66667 c 3.29998,-3.65155 4.768437,-4.29807 9.333333,-4.10919 l 5.417212,0.22414 -5.333333,0.53242 c -3.350579,0.33449 -6.8204,1.86215 -9.333333,4.1092 l -4,3.57677 z m 22.083885,-1.11107 c -2.24181,-1.24394 -2.62273,-1.85605 -1.16326,-1.86927 1.19354,-0.0108 2.91701,0.88034 3.82992,1.98034 1.94704,2.34604 1.74643,2.33768 -2.66666,-0.11108 z m 70.60452,21.44594 c 2.7409,-2.74091 3.39626,-4.89158 3.83009,-12.56907 0.47783,-8.45631 0.23395,-9.55178 -2.80236,-12.58808 -8.48875,-8.48875 -34.84557,-7.82512 -42.22215,1.0631 -2.23116,2.68839 -0.0265,12.11302 4.51731,19.31086 4.57732,7.25095 11.62168,9.65502 25.38816,8.66434 6.24884,-0.4497 8.70031,-1.29251 11.28895,-3.88115 z m -15.96402,-9.65948 c 3.28562,-0.28897 6.88562,-1.23415 8,-2.10039 1.77002,-1.37589 1.79483,-1.28002 0.19624,0.75834 -1.33154,1.69784 -3.51036,2.26989 -8,2.10039 l -6.17008,-0.23295 z m -12.22384,-13.25287 c 0.9625,-0.38516 2.1125,-0.33779 2.55556,0.10527 0.44306,0.44305 -0.34445,0.75818 -1.75,0.70029 -1.55326,-0.064 -1.8692,-0.37992 -0.80556,-0.80556 z m 8.58334,-1.34162 c 1.28333,-0.33537 3.38333,-0.33537 4.66666,0 1.28334,0.33537 0.23334,0.60977 -2.33333,0.60977 -2.56667,0 -3.61667,-0.2744 -2.33333,-0.60977 z m -18.60046,-6.69457 c 3.26118,-1.74277 7.72468,-2.29284 18.93379,-2.33334 8.06667,-0.0291 16.7054,0.39976 19.19717,0.95312 l 4.53051,1.0061 -0.88524,-11.672774 c -1.96567,-25.919265 -13.60296,-36.039918 -35.03489,-30.468959 -10.25815,2.666472 -27.09672,2.720778 -35.68612,0.115093 -3.59989,-1.092062 -9.10989,-1.985568 -12.24446,-1.985568 -5.01588,0 -6.497086,0.77714 -12.353506,6.481471 -7.396511,7.204426 -9.201916,11.892554 -10.726523,27.853763 l -0.925065,9.684574 4.730728,-1.0099 c 2.6019,-0.55545 11.330726,-0.98824 19.397396,-0.96177 11.16355,0.0366 15.62206,0.5812 18.66667,2.27995 5.30169,2.9581 16.91664,2.9883 22.39954,0.0582 z M 64.429619,98.422847 c -2.706381,-12.235142 -2.427307,-28.712271 0.570776,-33.699688 1.322485,-2.2 1.982947,-2.8 1.467695,-1.333334 -1.824411,5.19318 -2.21623,26.154029 -0.638775,34.172074 2.120443,10.778011 0.9528,11.496221 -1.399696,0.860948 z m 6.361108,-39.255244 c -0.488889,-0.488888 -0.870644,-1.838888 -0.848344,-3 0.03329,-1.733743 0.293481,-1.676143 1.455552,0.322227 1.435697,2.46892 1.019475,4.304456 -0.607208,2.677773 z M 92.609049,36.393667 c -0.05756,-2.360779 9.340471,-12.465086 10.771301,-11.580782 0.65349,0.403876 1.14599,1.748909 1.09444,2.988964 -0.0836,2.011329 -0.19532,1.99736 -1.03525,-0.12944 -0.84679,-2.144171 -1.28902,-2.009993 -4.394492,1.333333 -1.899124,2.044578 -4.115016,4.917418 -4.924204,6.384084 -0.809188,1.466667 -1.489496,1.918395 -1.511795,1.003841 z M 108.82844,26.056493 c 0.0272,-2.2 0.326,-2.938581 0.66406,-1.641291 0.33805,1.29729 0.31582,3.09729 -0.0494,4 -0.36524,0.90271 -0.64183,-0.158709 -0.61466,-2.358709 z m 4.40673,-2 c 1.32732,-1.466667 2.7133,-2.666667 3.07997,-2.666667 0.36667,0 -0.41932,1.2 -1.74663,2.666667 -1.32732,1.466667 -2.7133,2.666667 -3.07997,2.666667 -0.36667,0 0.41932,-1.2 1.74663,-2.666667 z m 38.75239,-3.609162 c -0.72357,-1.900264 -0.57043,-2.053416 0.7464,-0.746394 0.91123,0.904446 1.32089,1.980321 0.91037,2.390837 -0.41052,0.410518 -1.15606,-0.329482 -1.65677,-1.644443 z m -25.95389,-3.646204 c 1.90585,-2.242882 4.45585,-5.561471 5.66667,-7.3746419 1.21083,-1.8131713 2.2015,-2.6212195 2.2015,-1.7956629 0,0.8255567 -2.55,4.1441458 -5.66667,7.3746418 -3.11666,3.230496 -4.10734,4.038544 -2.2015,1.795663 z m 12.75118,-6.8540456 c -1.24386,-2.6084256 -1.6144,-4.3426075 -0.82338,-3.8537377 1.53354,0.9477827 4.32944,7.3518613 3.54997,8.1313243 -0.25575,0.255753 -1.48272,-1.669161 -2.72659,-4.2775866 z"
     style="fill:#5e1f5b;stroke-width:1.33333325" />
  <path
     inkscape:connector-curvature="0"
     id="path2002"
     d="M 45.645964,256.47832 C 44.405232,250.05 43.603554,244.577 43.864458,244.31609 c 0.791828,-0.79183 4.965789,19.41001 4.485217,21.70832 -0.24631,1.17796 -1.462981,-3.11779 -2.703711,-9.54609 z m 52.730961,-0.76018 c -7.583524,-11.4132 -15.141754,-24.9759 -15.141754,-27.1708 0,-0.5121 3.055774,4.11795 6.79061,10.28902 3.734835,6.17108 8.234835,13.17013 9.999999,15.55346 1.76517,2.38334 4.78061,6.43334 6.70098,9 2.34444,3.13346 2.89202,4.66503 1.66667,4.66166 -1.00371,-0.003 -5.51113,-5.55275 -10.016505,-12.33334 z m 26.191585,8.55026 c 0,-2.08346 0.89292,-6.73346 1.98427,-10.33334 1.96099,-6.46844 1.94526,-6.57398 -1.34097,-8.99534 l -3.32525,-2.45011 2.63981,-3.70728 c 1.4519,-2.039 4.1751,-4.71324 6.05157,-5.94275 3.24279,-2.12476 3.60778,-2.09586 7.37054,0.58346 2.17733,1.55038 4.63835,4.08866 5.46892,5.6406 1.28424,2.39962 0.9918,3.26754 -1.95504,5.80232 l -3.46516,2.9806 1.92916,9.10497 c 1.06105,5.00772 1.9396,9.55496 1.95233,10.10496 0.0133,0.55 -3.87685,1 -8.64352,1 -8.633,0 -8.66666,-0.0147 -8.66666,-3.78809 z m 40.55532,-6.72058 c 4.07312,-5.77977 10.11444,-14.90217 13.42517,-20.27202 7.63071,-12.37664 7.8644,-10.38711 0.33041,2.81297 -8.86621,15.53424 -17.47233,27.93177 -19.40274,27.95059 -0.97012,0.009 1.56165,-4.69418 5.64716,-10.49154 z m 53.48737,8.17534 c 1.80713,-9.17252 6.38141,-27.02034 6.81421,-26.58754 0.29125,0.29124 -0.6782,5.56759 -2.15433,11.7252 -1.47615,6.15762 -2.6881,12.54567 -2.69323,14.19567 -0.005,1.65 -0.55317,3 -1.21785,3 -0.66468,0 -1.00164,-1.05 -0.7488,-2.33333 z M 42.007101,241.83221 c -0.05789,-0.85669 -0.450565,-2.65669 -0.872603,-4 -0.729401,-2.32163 -0.691774,-2.32453 0.761032,-0.0588 0.840606,1.31096 1.233278,3.11096 0.872604,4 -0.473302,1.16665 -0.685058,1.18303 -0.761033,0.0588 z m 4.978071,-12.01987 c 0.962499,-0.38516 2.112499,-0.3378 2.555555,0.1052 0.443055,0.44306 -0.344445,0.75819 -1.75,0.7003 -1.553257,-0.064 -1.869199,-0.37992 -0.805555,-0.80555 z m 5.333333,-1.33333 c 0.9625,-0.38516 2.1125,-0.3378 2.555556,0.1052 0.443054,0.44305 -0.344446,0.75819 -1.75,0.70029 -1.553258,-0.064 -1.8692,-0.37992 -0.805556,-0.80554 z m 161.333335,0 c 0.96249,-0.38516 2.11249,-0.3378 2.55556,0.1052 0.44305,0.44305 -0.34446,0.75819 -1.75,0.70029 -1.55327,-0.064 -1.8692,-0.37992 -0.80556,-0.80554 z M 57.651838,227.14568 c 0.9625,-0.38516 2.1125,-0.3378 2.555556,0.1052 0.443054,0.44305 -0.344445,0.75818 -1.75,0.70029 -1.553257,-0.064 -1.8692,-0.37992 -0.805556,-0.80555 z m 150.666662,0 c 0.9625,-0.38516 2.1125,-0.3378 2.55556,0.1052 0.44306,0.44305 -0.34445,0.75818 -1.75,0.70029 -1.55326,-0.064 -1.8692,-0.37992 -0.80556,-0.80555 z M 64.235171,225.84012 c 0.916667,-0.36988 2.416667,-0.36988 3.333333,0 0.916667,0.36988 0.166667,0.67252 -1.666666,0.67252 -1.833334,0 -2.583334,-0.30264 -1.666667,-0.67252 z m 135.999999,0 c 0.91667,-0.36988 2.41667,-0.36988 3.33333,0 0.91667,0.36988 0.16667,0.67252 -1.66666,0.67252 -1.83333,0 -2.58333,-0.30264 -1.66667,-0.67252 z M 70.985171,224.47901 c 0.9625,-0.38516 2.1125,-0.3378 2.555556,0.1052 0.443054,0.44305 -0.344445,0.75819 -1.75,0.70029 -1.553257,-0.064 -1.8692,-0.37992 -0.805556,-0.80554 z m 123.999999,0 c 0.9625,-0.38516 2.1125,-0.3378 2.55556,0.1052 0.44306,0.44305 -0.34445,0.75819 -1.75,0.70029 -1.55326,-0.064 -1.8692,-0.37992 -0.80556,-0.80554 z m -69.03946,-15.89299 c -13.10853,-3.5181 -27.089425,-14.90426 -35.054889,-28.54903 -7.439166,-12.74322 -6.398137,-13.19707 4.789348,-2.08802 13.305511,13.21223 24.400891,19.51123 36.883241,20.93912 l 8.67176,0.99198 -9.33333,-0.38124 c -10.91725,-0.44595 -19.15543,-4.06794 -29,-12.75011 -9.267188,-8.17296 -7.736196,-4.46201 2.02691,4.91301 11.35378,10.90245 18.01991,14.18091 28.97309,14.2492 11.38493,0.0709 20.41683,-4.53921 31.66667,-16.16376 8.39674,-8.67642 11.52801,-14.30532 4.6024,-8.27346 -2.05202,1.7872 -1.18427,0.69693 1.92832,-2.42283 3.11258,-3.11975 6.59152,-7.00325 7.73093,-8.63 3.79332,-5.41572 2.22649,0.65417 -2.14307,8.30228 -8.5078,14.89132 -26.51534,28.95613 -39.78525,31.07432 -2.56667,0.40969 -7.94692,-0.13546 -11.95613,-1.21146 z M 96.568504,180.88641 c 0,-0.27686 -1.05,-1.32686 -2.333334,-2.33333 -2.114741,-1.65849 -2.161901,-1.61133 -0.503406,0.50341 1.741825,2.221 2.83674,2.92731 2.83674,1.82992 z m 49.153086,15.78456 c 2.46753,-1.07129 4.86753,-1.92654 5.33333,-1.90056 1.73473,0.0968 -5.89825,3.85806 -7.81975,3.85331 -1.1,-0.003 0.0189,-0.88145 2.48642,-1.95275 z m 7.51358,-2.8319 c 3.4068,-3.22716 11.7771,-8.68567 9.75612,-6.36226 -1.23413,1.41883 -4.23413,3.71494 -6.66666,5.10248 -2.43254,1.38754 -3.82279,1.95443 -3.08946,1.25978 z m -33.9331,-18.99091 c -1.66184,-3.10517 -1.75767,-4.125 -0.38763,-4.125 1.74389,0 4.35508,5.15472 3.02699,5.97553 -0.68152,0.4212 -1.86923,-0.41153 -2.63936,-1.85053 z m 30.59977,-6.04631 c 0,-1.05672 0.54404,-2.25754 1.20899,-2.6685 0.66494,-0.41096 0.89496,0.45362 0.51116,1.9213 -0.81415,3.11332 -1.72015,3.50687 -1.72015,0.7472 z M 87.23517,140.44819 c -3.143221,-1.14902 -7.999999,-6.00537 -7.999999,-7.9993 0,-0.99518 -1.05,-2.21141 -2.333334,-2.70274 -3.313269,-1.26848 -7.032755,-6.03921 -6.309094,-8.09224 0.336536,-0.95475 0.0081,-1.36282 -0.729644,-0.90681 -1.719405,1.06265 -6.617304,-9.64127 -6.417069,-14.02394 0.11948,-2.61505 0.268016,-2.7587 0.689322,-0.66667 0.462286,2.29552 6.816588,6.72768 7.97892,5.56535 0.223686,-0.22369 -0.780208,-4.55711 -2.230876,-9.62983 C 66.146074,88.923269 65.242963,77.694281 67.254747,69.308224 l 1.690555,-7.047021 3.084684,5.897644 3.084685,5.897645 0.09189,-6.666667 c 0.09856,-7.150375 4.316227,-18.913954 9.281348,-25.886823 1.670991,-2.346691 2.775076,-4.529799 2.453523,-4.851352 -1.031427,-1.031427 -6.160694,5.264716 -10.408391,12.776232 -4.014288,7.098762 -4.269197,4.508998 -0.319665,-3.247663 2.412197,-4.737421 13.234106,-16.472871 16.965939,-18.398133 1.991606,-1.027473 1.669752,-0.282813 -1.198849,2.773732 -3.45132,3.677446 -3.87886,5.016697 -3.566779,11.172812 0.409218,8.07223 2.074494,10.818926 3.387531,5.587371 0.49728,-1.981322 2.373349,-5.764531 4.169045,-8.407135 l 3.264904,-4.804732 0.09351,5.976179 0.09351,5.97618 2.402093,-7.051156 c 3.52841,-10.357343 3.7696,-10.341397 5.8158,0.384489 0.43011,2.254576 0.75046,2.048531 2.073,-1.333333 3.92463,-10.035635 3.55887,-9.752323 6.14185,-4.757391 l 2.35755,4.558991 1.70757,-4.061115 c 0.93916,-2.233613 4.15778,-6.030156 7.15248,-8.436762 2.9947,-2.406607 5.82199,-5.563743 6.28288,-7.015856 1.44489,-4.552465 3.17018,0.243676 3.19269,8.875393 0.0177,6.811643 0.28083,7.613808 2.02277,6.168117 1.1013,-0.913996 3.14634,-5.337462 4.54454,-9.829926 l 2.54218,-8.168117 2.7595,5.999999 c 1.51774,3.3 2.81487,7.5 2.88251,9.333334 0.0676,1.833333 0.61208,4.533333 1.20984,5.999999 1.16925,2.868848 0.93173,3.429151 3.93701,-9.287466 0.8726,-3.692337 1.28275,-3.142617 6.19492,8.302894 2.89326,6.741366 5.68052,12.270726 6.19394,12.287467 0.5134,0.01675 1.1134,-3.375459 1.33333,-7.538221 l 0.39987,-7.568659 3.88712,5.625103 c 2.1379,3.093806 4.64741,8.449702 5.57666,11.901991 1.54374,5.735132 1.69734,5.90288 1.77956,1.943558 0.0495,-2.383334 0.55728,-4.333334 1.12842,-4.333334 1.15406,0 6.73222,19.728357 7.35146,26 0.36295,3.67588 0.56207,3.464866 2.45732,-2.604125 l 2.06238,-6.604126 0.90733,8.855983 c 0.49903,4.87079 0.59017,11.442646 0.20256,14.604125 l -0.70476,5.748142 1.94916,-4 c 1.71408,-3.517546 1.95643,-3.644193 2.00932,-1.050017 0.0331,1.622491 -1.08393,6.122491 -2.48223,10 -1.3983,3.877516 -2.94682,9.413756 -3.44117,12.302776 -0.78437,4.58399 -0.64281,5.04031 1.1118,3.5841 1.66105,-1.37855 1.57424,-0.22746 -0.49932,6.62107 -3.06088,10.10939 -1.50607,8.8309 2.55425,-2.1003 1.84314,-4.96209 2.43522,-8.15149 1.56699,-8.4409 -0.94132,-0.31377 -0.96569,-1.26837 -0.0749,-2.93287 3.01443,-5.63253 5.45859,-20.447909 4.55995,-27.640393 -0.56365,-4.511323 -1.31737,-6.62263 -1.98094,-5.548963 -0.75976,1.229334 -1.26931,0.784407 -1.75299,-1.530709 -4.3711,-20.922042 -5.98834,-25.218974 -6.24662,-16.597126 l -0.15976,5.333333 -1.73382,-6.298732 c -1.99813,-7.259009 -7.15606,-16.56245 -11.22289,-20.242874 -3.3254,-3.009454 -3.54269,-2.086137 -0.77061,3.274487 1.11882,2.163582 1.73424,3.933786 1.36757,3.933786 -0.36667,0 -1.53877,-1.686472 -2.60468,-3.747716 -2.04655,-3.957569 -9.93276,-12.252283 -11.64888,-12.252283 -0.55671,0 -0.1428,2.080729 0.91979,4.623841 2.81982,6.74881 2.25314,7.549261 -0.97426,1.376159 -1.5336,-2.933334 -4.57253,-7.733334 -6.7532,-10.666667 l -3.96482,-5.333333 4.12665,4.333333 c 2.26967,2.383333 4.82848,4.333333 5.68627,4.333333 0.85778,0 3.56624,1.530535 6.0188,3.401188 2.45254,1.870654 4.45918,2.958399 4.45918,2.417212 0,-2.179846 8.50639,7.262524 11.98291,13.301416 2.28485,3.968926 3.99071,5.76542 4.4312,4.666666 1.15541,-2.882027 3.2184,1.058371 5.82389,11.123951 1.26858,4.900737 2.73338,8.646602 3.25512,8.324145 1.35464,-0.837209 3.84819,11.749373 3.79668,19.164382 -0.024,3.447237 -1.12588,9.400392 -2.44875,13.229234 -1.32288,3.82884 -1.92127,7.12884 -1.32977,7.33333 0.59149,0.2045 -0.41028,4.45933 -2.22617,9.45519 -2.43663,6.70365 -5.08457,10.89545 -10.10713,16 l -6.80554,6.91662 -13.02081,0.45311 c -18.78073,0.65354 -24.253,-2.99367 -29.38675,-19.58597 -1.91862,-6.20098 -2.85594,-7.53381 -5.29821,-7.53381 -2.44227,0 -3.37959,1.33283 -5.29821,7.53381 -2.81258,9.09029 -6.9222,15.15553 -12.07403,17.81965 -3.78148,1.95548 -24.752115,2.6987 -29.29443,1.03824 z m 28.84343,-3.96346 c 6.80553,-4.45915 13.21109,-21.01279 9.74646,-25.18742 -4.88369,-5.88449 -22.00415,-8.9738 -33.076492,-5.96849 -9.126892,2.47726 -12.181052,6.40739 -12.17508,15.66707 0.0061,9.58872 3.348883,15.71936 9.610898,17.62678 5.798948,1.76637 21.973644,0.43092 25.894214,-2.13794 z M 91.775154,123.72316 c -2.520544,-2.97704 -2.519556,-2.98285 0.129094,-0.7595 1.46799,1.23227 5.36799,2.47745 8.666672,2.76706 l 5.99759,0.52655 -6.12669,0.23295 c -4.886795,0.1858 -6.640712,-0.37419 -8.666666,-2.76706 z m -1.290529,-8.66667 c 3.29998,-3.65155 4.768437,-4.29807 9.333333,-4.10919 l 5.417212,0.22414 -5.333333,0.53242 c -3.350579,0.33449 -6.8204,1.86215 -9.333333,4.1092 l -4,3.57677 z m 22.083885,-1.11107 c -2.24181,-1.24394 -2.62273,-1.85605 -1.16326,-1.86927 1.19354,-0.0108 2.91701,0.88034 3.82992,1.98034 1.94704,2.34604 1.74643,2.33768 -2.66666,-0.11108 z m 70.60452,21.44594 c 2.7409,-2.74091 3.39626,-4.89158 3.83009,-12.56907 0.47783,-8.45631 0.23395,-9.55178 -2.80236,-12.58808 -8.48875,-8.48875 -34.84557,-7.82512 -42.22215,1.0631 -2.23116,2.68839 -0.0265,12.11302 4.51731,19.31086 4.57732,7.25095 11.62168,9.65502 25.38816,8.66434 6.24884,-0.4497 8.70031,-1.29251 11.28895,-3.88115 z m -15.96402,-9.65948 c 3.28562,-0.28897 6.88562,-1.23415 8,-2.10039 1.77002,-1.37589 1.79483,-1.28002 0.19624,0.75834 -1.33154,1.69784 -3.51036,2.26989 -8,2.10039 l -6.17008,-0.23295 z m -12.22384,-13.25287 c 0.9625,-0.38516 2.1125,-0.33779 2.55556,0.10527 0.44306,0.44305 -0.34445,0.75818 -1.75,0.70029 -1.55326,-0.064 -1.8692,-0.37992 -0.80556,-0.80556 z m 8.58334,-1.34162 c 1.28333,-0.33537 3.38333,-0.33537 4.66666,0 1.28334,0.33537 0.23334,0.60977 -2.33333,0.60977 -2.56667,0 -3.61667,-0.2744 -2.33333,-0.60977 z m -18.60046,-6.69457 c 3.26118,-1.74277 7.72468,-2.29284 18.93379,-2.33334 8.06667,-0.0291 16.7054,0.39976 19.19717,0.95312 l 4.53051,1.0061 -0.88524,-11.672774 c -1.96567,-25.919265 -13.60296,-36.039918 -35.03489,-30.468959 -10.25815,2.666472 -27.09672,2.720778 -35.68612,0.115093 -3.59989,-1.092062 -9.10989,-1.985568 -12.24446,-1.985568 -5.01588,0 -6.497086,0.77714 -12.353506,6.481471 -7.396511,7.204426 -9.201916,11.892554 -10.726523,27.853763 l -0.925065,9.684574 4.730728,-1.0099 c 2.6019,-0.55545 11.330726,-0.98824 19.397396,-0.96177 11.16355,0.0366 15.62206,0.5812 18.66667,2.27995 5.30169,2.9581 16.91664,2.9883 22.39954,0.0582 z M 64.429619,98.422847 c -2.706381,-12.235142 -2.427307,-28.712271 0.570776,-33.699688 1.322485,-2.2 1.982947,-2.8 1.467695,-1.333334 -1.824411,5.19318 -2.21623,26.154029 -0.638775,34.172074 2.120443,10.778011 0.9528,11.496221 -1.399696,0.860948 z m 6.361108,-39.255244 c -0.488889,-0.488888 -0.870644,-1.838888 -0.848344,-3 0.03329,-1.733743 0.293481,-1.676143 1.455552,0.322227 1.435697,2.46892 1.019475,4.304456 -0.607208,2.677773 z M 92.609049,36.393667 c -0.05756,-2.360779 9.340471,-12.465086 10.771301,-11.580782 0.65349,0.403876 1.14599,1.748909 1.09444,2.988964 -0.0836,2.011329 -0.19532,1.99736 -1.03525,-0.12944 -0.84679,-2.144171 -1.28902,-2.009993 -4.394492,1.333333 -1.899124,2.044578 -4.115016,4.917418 -4.924204,6.384084 -0.809188,1.466667 -1.489496,1.918395 -1.511795,1.003841 z M 108.82844,26.056493 c 0.0272,-2.2 0.326,-2.938581 0.66406,-1.641291 0.33805,1.29729 0.31582,3.09729 -0.0494,4 -0.36524,0.90271 -0.64183,-0.158709 -0.61466,-2.358709 z m 4.40673,-2 c 1.32732,-1.466667 2.7133,-2.666667 3.07997,-2.666667 0.36667,0 -0.41932,1.2 -1.74663,2.666667 -1.32732,1.466667 -2.7133,2.666667 -3.07997,2.666667 -0.36667,0 0.41932,-1.2 1.74663,-2.666667 z m 38.75239,-3.609162 c -0.72357,-1.900264 -0.57043,-2.053416 0.7464,-0.746394 0.91123,0.904446 1.32089,1.980321 0.91037,2.390837 -0.41052,0.410518 -1.15606,-0.329482 -1.65677,-1.644443 z m -25.95389,-3.646204 c 1.90585,-2.242882 4.45585,-5.561471 5.66667,-7.3746419 1.21083,-1.8131713 2.2015,-2.6212195 2.2015,-1.7956629 0,0.8255567 -2.55,4.1441458 -5.66667,7.3746418 -3.11666,3.230496 -4.10734,4.038544 -2.2015,1.795663 z m 12.75118,-6.8540456 c -1.24386,-2.6084256 -1.6144,-4.3426075 -0.82338,-3.8537377 1.53354,0.9477827 4.32944,7.3518613 3.54997,8.1313243 -0.25575,0.255753 -1.48272,-1.669161 -2.72659,-4.2775866 z"
     style="fill:#58392b;stroke-width:1.33333325" />
  <path
     inkscape:connector-curvature="0"
     id="path2000"
     d="M 45.645964,256.47832 C 44.405232,250.05 43.603554,244.577 43.864458,244.31609 c 0.791828,-0.79183 4.965789,19.41001 4.485217,21.70832 -0.24631,1.17796 -1.462981,-3.11779 -2.703711,-9.54609 z m 52.730961,-0.76018 c -7.583524,-11.4132 -15.141754,-24.9759 -15.141754,-27.1708 0,-0.5121 3.055774,4.11795 6.79061,10.28902 3.734835,6.17108 8.234835,13.17013 9.999999,15.55346 1.76517,2.38334 4.78061,6.43334 6.70098,9 2.34444,3.13346 2.89202,4.66503 1.66667,4.66166 -1.00371,-0.003 -5.51113,-5.55275 -10.016505,-12.33334 z m 26.739515,5.618 c 0.49032,-3.6962 1.58086,-8.23336 2.42343,-10.08258 1.35359,-2.97082 1.11912,-3.7019 -2.01395,-6.27966 l -3.54589,-2.91741 3.03612,-3.33333 c 1.66986,-1.83334 4.31481,-4.44243 5.87767,-5.798 2.78319,-2.41403 2.93677,-2.39206 7.47563,1.0699 6.43244,4.90626 7.11675,7.44738 2.90906,10.80247 -3.70216,2.952 -3.70328,2.43215 0.0436,20.25896 0.60396,2.87349 0.25678,3 -8.2333,3 h -8.86384 l 0.89149,-6.72035 z m 40.00739,-3.78832 c 4.07312,-5.77977 10.11444,-14.90217 13.42517,-20.27202 7.63071,-12.37664 7.8644,-10.38711 0.33041,2.81297 -8.86621,15.53424 -17.47233,27.93177 -19.40274,27.95059 -0.97012,0.009 1.56165,-4.69418 5.64716,-10.49154 z m 53.48737,8.17534 c 1.80713,-9.17252 6.38141,-27.02034 6.81421,-26.58754 0.29125,0.29124 -0.6782,5.56759 -2.15433,11.7252 -1.47615,6.15762 -2.6881,12.54567 -2.69323,14.19567 -0.005,1.65 -0.55317,3 -1.21785,3 -0.66468,0 -1.00164,-1.05 -0.7488,-2.33333 z M 42.007101,241.83221 c -0.05789,-0.85669 -0.450565,-2.65669 -0.872603,-4 -0.729401,-2.32163 -0.691774,-2.32453 0.761032,-0.0588 0.840606,1.31096 1.233278,3.11096 0.872604,4 -0.473302,1.16665 -0.685058,1.18303 -0.761033,0.0588 z m 4.978071,-12.01987 c 0.962499,-0.38516 2.112499,-0.3378 2.555555,0.1052 0.443055,0.44306 -0.344445,0.75819 -1.75,0.7003 -1.553257,-0.064 -1.869199,-0.37992 -0.805555,-0.80555 z m 5.333333,-1.33333 c 0.9625,-0.38516 2.1125,-0.3378 2.555556,0.1052 0.443054,0.44305 -0.344446,0.75819 -1.75,0.70029 -1.553258,-0.064 -1.8692,-0.37992 -0.805556,-0.80554 z m 161.333335,0 c 0.96249,-0.38516 2.11249,-0.3378 2.55556,0.1052 0.44305,0.44305 -0.34446,0.75819 -1.75,0.70029 -1.55327,-0.064 -1.8692,-0.37992 -0.80556,-0.80554 z M 57.651838,227.14568 c 0.9625,-0.38516 2.1125,-0.3378 2.555556,0.1052 0.443054,0.44305 -0.344445,0.75818 -1.75,0.70029 -1.553257,-0.064 -1.8692,-0.37992 -0.805556,-0.80555 z m 150.666662,0 c 0.9625,-0.38516 2.1125,-0.3378 2.55556,0.1052 0.44306,0.44305 -0.34445,0.75818 -1.75,0.70029 -1.55326,-0.064 -1.8692,-0.37992 -0.80556,-0.80555 z M 64.235171,225.84012 c 0.916667,-0.36988 2.416667,-0.36988 3.333333,0 0.916667,0.36988 0.166667,0.67252 -1.666666,0.67252 -1.833334,0 -2.583334,-0.30264 -1.666667,-0.67252 z m 135.999999,0 c 0.91667,-0.36988 2.41667,-0.36988 3.33333,0 0.91667,0.36988 0.16667,0.67252 -1.66666,0.67252 -1.83333,0 -2.58333,-0.30264 -1.66667,-0.67252 z M 70.985171,224.47901 c 0.9625,-0.38516 2.1125,-0.3378 2.555556,0.1052 0.443054,0.44305 -0.344445,0.75819 -1.75,0.70029 -1.553257,-0.064 -1.8692,-0.37992 -0.805556,-0.80554 z m 123.999999,0 c 0.9625,-0.38516 2.1125,-0.3378 2.55556,0.1052 0.44306,0.44305 -0.34445,0.75819 -1.75,0.70029 -1.55326,-0.064 -1.8692,-0.37992 -0.80556,-0.80554 z m -95.210016,-32.75585 -2.539984,-3 3,2.53999 c 2.81926,2.38696 3.60699,3.46001 2.53999,3.46001 -0.25301,0 -1.60301,-1.35 -3.000006,-3 z M 85.901837,139.69299 c -4.422429,-2.19911 -8.357561,-10.5547 -9.081358,-19.28274 -0.32245,-3.88831 -1.111055,-7.39398 -1.752456,-7.79039 -0.641402,-0.39641 -1.166186,-1.83711 -1.166186,-3.20157 0,-1.79394 1.938123,-3.15653 7,-4.92131 9.68504,-3.37661 34.421573,-3.42732 40.600453,-0.0832 5.45516,2.9524 19.03212,3.08502 24.53443,0.23967 5.55961,-2.87499 24.40443,-4.01331 33.32225,-2.01282 14.21923,3.18971 16.33264,4.85085 13.27486,10.43399 -0.69742,1.27338 -1.6368,5.73497 -2.08755,9.91463 -0.94177,8.73307 -5.06827,15.84039 -9.99276,17.21113 -6.10947,1.70059 -23.89865,1.26135 -28.60804,-0.70636 -5.23388,-2.18685 -12.03833,-12.84745 -13.41995,-21.02515 -0.75716,-4.48164 -1.30097,-5.079 -4.62369,-5.079 -3.32271,0 -3.86653,0.59736 -4.6237,5.07901 -1.34484,7.96006 -7.85354,18.21089 -13.16245,20.73015 -5.60662,2.6605 -25.212301,2.98106 -30.213853,0.494 z m 30.531333,-3.30876 c 4.52446,-3.34437 9.11952,-11.67466 10.21346,-18.51577 0.72816,-4.55368 0.39272,-5.89052 -2.04874,-8.16509 -8.68322,-8.08965 -35.393862,-7.14311 -42.553195,1.50795 -2.366926,2.8601 -2.429543,15.32463 -0.105174,20.93615 2.565334,6.19326 7.860553,8.10349 20.493649,7.393 7.60412,-0.42766 11.49545,-1.30495 14,-3.15624 z m 62.64355,2.19437 c 5.64544,-1.968 8.15845,-7.26087 8.15845,-17.18317 0,-6.77414 -0.52646,-8.65329 -3.16302,-11.28985 -7.81891,-7.8189 -32.64323,-8.06322 -40.86636,-0.40221 -2.41519,2.25009 -2.77383,3.63056 -2.07638,7.99219 1.66776,10.42965 7.62903,18.79235 14.9625,20.98999 5.54404,1.6614 18.07944,1.60308 22.98481,-0.10694 z M 63.340434,92.612047 c 0.06397,-1.553257 0.379921,-1.8692 0.805556,-0.805556 0.385161,0.9625 0.337792,2.1125 -0.105267,2.555556 -0.443056,0.443055 -0.758188,-0.344445 -0.700293,-1.75 z M 203.63472,86.723158 c 0,-4.033333 0.24996,-5.683333 0.55545,-3.666666 0.30551,2.016666 0.30551,5.316666 0,7.333333 -0.30549,2.016666 -0.55545,0.366666 -0.55545,-3.666667 z M 62.30139,80.056492 c 0,-4.033334 0.249954,-5.683333 0.555453,-3.666667 0.3055,2.016667 0.3055,5.316667 0,7.333333 -0.305499,2.016667 -0.555453,0.366667 -0.555453,-3.666666 z m 1.039044,-10.111111 c 0.06397,-1.553257 0.379921,-1.8692 0.805556,-0.805556 0.385161,0.9625 0.337792,2.1125 -0.105267,2.555556 -0.443056,0.443055 -0.758188,-0.344445 -0.700293,-1.75 z M 80.230885,40.723159 c 1.518339,-2.2 4.747818,-5.8 7.176617,-7.999999 3.262614,-2.955264 2.892404,-2.258774 -1.417423,2.666666 -7.868362,8.992271 -9.021276,10.059933 -5.759194,5.333333 z"
     style="fill:#260b17;stroke-width:1.33333325" />
</svg>
