<?xml version="1.0" encoding="UTF-8" standalone="no"?>
<svg xmlns:rdf="http://www.w3.org/1999/02/22-rdf-syntax-ns#" xmlns="http://www.w3.org/2000/svg" height="200" viewBox="0 0 200 200" width="200" version="1.1" xmlns:cc="http://creativecommons.org/ns#" xmlns:dc="http://purl.org/dc/elements/1.1/">
 <path d="m14.2 199c.0592-3.03 2.17-10.6 4.16-15 2.7-5.93 8.19-9.38 18.2-11.5 12-2.49 33.9-10.1 35.9-12.5 2.27-2.71 3.35-1.37 4.21 5.22.856 6.57 2.33 12.9 4.9 21l2.28 7.19 3.2-5.67c1.76-3.12 4.98-7.6 7.16-9.96l3.96-4.29-2.26-1.48c-1.24-.815-4.62-2.67-7.5-4.13-6.35-3.21-8.08-5.67-9.04-12.8-.664-4.96-1.22-5.9-5.92-10.1-2.85-2.53-6.1-4.88-7.23-5.24-1.35-.429-2.4-2.06-3.1-4.84-2.35-9.35-5.37-15.6-8.08-16.7-2.81-1.17-4.13-3.35-5.85-9.73-.586-2.18-2.2-5.63-3.59-7.67-5.04-7.42-5.76-17.1-1.35-18.3 1.85-.484 1.96-.985 1.2-5.64-.454-2.81-.823-9.61-.821-15.1.0035-8.73.342-10.7 2.66-15.7 3.23-6.89 9.86-14.3 14.2-15.9 1.79-.638 4.91-3.34 7.17-6.22 2.61-3.32 6.26-6.34 10.5-8.67 6.3-3.47 6.81-3.58 16.5-3.48 7.69.0817 12.1.723 19 2.77 19.8 5.87 30.8 13.8 36.8 26.3l3.21 6.78-.0010 16.7-.001 16.7 2.72 1.13c1.5.619 2.99 2 3.33 3.06 1.02 3.2-.526 9.43-3.5 14.1-1.54 2.43-3.37 6.18-4.05 8.33-2.37 7.43-3 8.51-5.95 10.2-3.03 1.74-6.23 8.32-7.61 15.7-.410 2.18-1.7 4.33-3.31 5.51-1.45 1.06-4.99 3.87-7.86 6.23-5.04 4.15-5.22 4.48-5.25 9.42-.0367 6.84-2.27 9.48-12.2 14.5l-8 4.02 3.86 3.3c2.12 1.82 5.62 6.32 7.78 10l3.92 6.71 2.87-9.32c1.58-5.13 3.3-12.7 3.83-16.8 1.11-8.69 2.12-10.3 4.66-7.24 2.01 2.39 24.3 10.2 36 12.5 7.05 1.43 13.5 4.52 16 7.62 1.78 2.24 4.92 10.9 5.74 15.8l.707 4.25h-73l.627-2.5c.608-2.42-2.18-9.24-5.68-13.9-1.41-1.88-1.47-1.88-4.11 0-2.82 2.01-2.87 2.66-.978 13.2l.584 3.25h-14.2l.561-3.25c.308-1.79.972-4.55 1.48-6.15 1.36-4.3 1.16-5.21-1.54-6.98-2.45-1.6-2.46-1.59-6.04 4.8-2.65 4.75-3.42 7.08-2.94 8.99l.647 2.58h-36.2c-27.8 0-35.6-.273-35.6-1.25zm95.7-65.9c1.24-.459 2.25-1.07 2.25-1.36 0-.289-5.04-.525-11.2-.525-7.63 0-10.9.326-10.2 1.02 2.58 2.58 13.2 3.06 19.1.863zm-20.4-40.9c.713-.727.259-1.68-1.47-3.1-2.4-1.96-2.51-1.97-2.85-.179-.194 1.03-1.09 2.72-2 3.77-1.59 1.83-1.52 1.88 1.82 1.23 1.91-.369 3.93-1.14 4.5-1.72zm29.2.261c-.910-1.01-1.65-2.59-1.65-3.52 0-1.58-.172-1.58-2.5-.0562-1.38.901-2.5 2.05-2.5 2.56 0 1.09 3.71 2.7 6.4 2.79 1.78.0593 1.8-.0542.25-1.77zm-44.5-2.4c-.8-4.2-.6-4-3.7-2.6-3.21 1.46-3.29 2.3-.407 4.32 3.58 2.51 4.81 2 4.11-1.69zm7.09 2.64c.870-.334 1.58-1.02 1.58-1.54 0-.511-.977-.405-2.17.234-1.76.945-2.39.860-3.35-.449-.648-.886-1.47-1.32-1.82-.969-.867.867 1.26 3.33 2.88 3.33.713 0 2.01-.273 2.88-.607zm44.4-1.24c.355-1.08.0165-1.12-1.69-.207-1.72.921-2.24.843-2.72-.403-.742-1.93-2.38-2.02-2.38-.126 0 2.67 5.94 3.31 6.79.736zm5.99.290c2.88-2.02 2.8-2.86-.407-4.32-3.08-1.4-2.91-1.52-3.7 2.63-.703 3.69.528 4.2 4.11 1.69zm-47.8-3.4c0-1.18-1.95-2.44-2.67-1.73-.716.716.546 2.67 1.73 2.67.518 0 .941-.423.941-.941zm43-.559c0-.825-.675-1.5-1.5-1.5-1.56 0-1.98 1.18-.833 2.33s2.33.728 2.33-.833z" fill="#f2c9b5"/>
 <path d="m14.8 196c.751-4.9 3.85-13.5 5.64-15.8 2.57-3.17 7.38-5.31 18.1-8.06 16.1-4.12 31.6-9.59 34.2-12l2.27-2.13.528 2.38c.290 1.31 1.02 5.28 1.63 8.82.606 3.55 2.64 11.8 4.52 18.3 1.88 6.54 3.42 12.1 3.42 12.3 0 .231-16 .420-35.5.420h-35.5zm79.4.5c.401-2.06 1.06-5.41 1.46-7.43.621-3.11.410-3.88-1.36-4.99-2.86-1.78-2.67-2.66 1.49-6.92l3.59-3.67-3.34-2.5c-1.84-1.37-4.91-3.28-6.84-4.23-5.96-2.96-7.91-5.43-9.21-11.7-1.25-6.06-3.55-8.72-13.2-15.3-2.15-1.46-3.41-3.61-4.71-8-3.24-11-4.36-13.5-6-13.5-2.39 0-4.41-2.86-6.35-9-.956-3.02-3.03-7.46-4.6-9.85-1.58-2.39-3.17-6.41-3.55-8.93-.624-4.16-.438-4.79 2.02-6.91l2.71-2.33-1.2-7.46c-1.86-11.5-.872-21.2 2.95-28.9 3.14-6.37 10.9-14.6 13.7-14.6.743 0 2.59-1.46 4.11-3.24 11.2-13.1 22-17.4 37.3-14.8 10.6 1.84 25.6 7.02 31.7 11 7.76 5.02 14.7 12.9 17.3 19.9 2.57 6.74 3.56 21 2.2 31.9-.493 3.95-.643 7.16-.334 7.13 2.54-.251 4.25.532 5.57 2.56 2.06 3.15.633 9.76-3.53 16.3-1.67 2.63-3.51 6.58-4.09 8.79-1.39 5.29-3.53 8.51-5.67 8.53-1.85.0157-5.88 9.06-6.94 15.6-.345 2.13-1.52 4.19-2.97 5.21-1.32.930-4.86 3.66-7.86 6.06-4.63 3.71-5.46 4.87-5.46 7.68 0 6.88-3.27 11.2-11 14.7-2.48 1.11-5.73 2.87-7.23 3.93l-2.73 1.91 3.48 3.05c3.96 3.48 4.44 6.26 1.35 7.91-2.2 1.18-2.25 3.12-.292 12.7l.664 3.25h-14zm16.8-63.6c1.48-1.48.632-1.61-10.3-1.61-10.4 0-11.7.174-9.96 1.38 3.02 2.11 5.42 2.54 12.3 2.17 4.14-.219 6.92-.898 7.96-1.94zm-28.6-30c4.96-1.38 10.3-6.17 11.8-10.5 2.34-7.09-4-11.8-16-11.8-8.98-.0548-13.9 1.98-16.5 6.84-2.26 4.19-1.4 7.94 2.68 11.7 4.75 4.44 11 5.75 18.1 3.79zm-6.01-4.57c-2.98-1.36-7.27-4.79-7.27-5.82 0-.344 1.01-.0825 2.25.580 1.24.663 5.51 1.24 9.49 1.29 6.82.0753 7.24.212 7.25 2.33.004 1.24-.330 2.3-.743 2.36-4.22.603-8.71.302-11-.736zm1.73-7.81c0-2.11 1.6-2.75 2.91-1.16.877 1.06.769 1.51-.468 1.99-2.25.865-2.44.801-2.44-.824zm10.4-1.4c-1.71-2.05-3.21-2.58-8.21-2.95-7.75-.561-11 .265-12.2 3.07-.850 2.01-.918 1.93-.707-.773.174-2.23 1-3.35 3.23-4.4 1.65-.776 3.24-1.78 3.54-2.23.297-.448 3.34.318 6.77 1.7s6.67 2.24 7.21 1.91c.541-.334 1.45.613 2.01 2.1 1.46 3.85.809 4.48-1.62 1.56zm48.5 11.3c5.09-3.58 6.53-7.93 4.23-12.7-1.99-4.16-6.15-6.44-13-7.11l-5.2-.507 6.25 3.65c4.69 2.74 6.23 4.19 6.19 5.81l-.0634 2.16-.893-2.22c-1.13-2.82-4.47-3.65-12.1-3.01-8.55.720-12.9 5.08-7.74 7.82 2.49 1.33 13.6.610 16.8-1.09 2.69-1.44 2.53-.616-.462 2.37-4.27 4.27-10.4 5.33-16.5 2.87l-3.5-1.41 2.09 2.15c5.48 5.63 16.8 6.23 23.9 1.26zm-16-10.1c.407-2.11 3.17-2.23 3.57-.158.183.951-.501 1.59-1.8 1.69-1.47.111-2-.345-1.77-1.53zm-4.2 110c0-.231 1.59-5.94 3.53-12.7 1.94-6.74 3.97-15.4 4.51-19.2 1.3-9.14 2.02-10.4 4.42-7.75 1.95 2.16 24.5 9.95 36.2 12.5 10.4 2.29 14.7 4.97 17.7 10.9 1.97 3.91 4.58 13.1 4.58 16.2 0 0.2-16 .364-35.5.364s-35.5-.189-35.5-.420z" fill="#f3af96"/>
 <path d="m14.2 200c0-3.06 2.61-12.3 4.58-16.2 2.88-5.7 7.49-8.75 15.9-10.5 13.3-2.76 36.1-10.6 38.5-13.2 1.72-1.85 1.81-1.85 2.33-.0844.296 1.01.830 4.09 1.19 6.84.357 2.75 2.41 11.2 4.56 18.8 2.15 7.61 3.91 14 3.91 14.3 0 .224-16 .408-35.5.408s-35.5-.164-35.5-.364zm80-3.39c.401-2.06 1.06-5.41 1.46-7.43.621-3.11.410-3.88-1.36-4.99-1.15-.721-2.1-1.65-2.1-2.07 0-1.39 7.22-8.76 8.58-8.76 2.14 0 8.42 6.02 8.42 8.07 0 1.02-.955 2.37-2.12 3-2.2 1.18-2.25 3.12-.292 12.7l.664 3.25h-14zm23 3.34c0-.224 1.76-6.64 3.91-14.2 2.15-7.61 4.2-16.1 4.56-18.8.357-2.75.905-5.87 1.22-6.94.538-1.83.642-1.84 1.85-.183 2.02 2.76 26.9 11.3 41.5 14.2 6.24 1.25 10.6 4.51 13.3 9.91 1.97 3.97 4.7 13.3 4.7 16.1 0 .248-16 .451-35.5.451s-35.5-.184-35.5-.408zm-29.3-38.5c-6.47-2.59-7.43-3.53-8.2-8.11-.524-3.1-1.73-4.81-5.76-8.19-2.81-2.35-5.99-4.72-7.07-5.27-2.32-1.18-2.87-2.21-5.16-9.5-3.27-10.5-3.99-12-5.59-12-2.4 0-4.59-2.97-5.88-8-.637-2.48-2.65-6.98-4.48-10-1.83-3.03-3.63-7.4-4.02-9.71-.615-3.72-.384-4.53 1.99-6.9l2.68-2.68-1.24-7.95c-1.2-10.5-.4-20.9 2.3-27.1 2.9-6.5 8.7-13.3 13-15.2 2-.9 6.4-4.6 9.9-8.3 8.2-8.8 13.6-11.2 25.2-11.2 10.6.0138 22.2 2.99 34.6 8.9 11.1 5.31 19 13.1 22.4 22.2 2.61 6.84 3.6 21 2.23 32-.873 7-.832 7.25 1.22 7.25 5.76 0 6.23 8.12 1 17.5-1.93 3.46-4.22 8.65-5.07 11.5-1.2 4.04-2.17 5.47-4.23 6.25-2.77 1.04-6.41 8.44-7.81 15.9-.657 3.48-2.94 6.9-4.61 6.9-.515 0-3.37 2.08-6.35 4.62-4.85 4.14-5.41 5.03-5.41 8.56 0 3.81-.180 4.02-5.75 6.62-7.72 3.61-22.2 4.23-29.6 1.28zm23.4-8.68c2.99-.885 7.3-2.7 9.58-4.03 5.74-3.36 13-11.4 15.5-17.1 2.61-6.09 10.9-34.9 10.9-37.9 0-4.07-1.9-3.57-4.09 1.08-2.29 4.87-5.35 7.52-10.8 9.37-10.5 3.58-23.1-2.49-26.1-12.6-1.19-4-1.48-4.25-4.95-4.25s-3.76.249-4.95 4.25c-4.88 16.3-29.8 18.5-37 3.22-2.21-4.71-4.09-5.15-4.09-.959 0 3.04 8.2 31.5 10.9 37.7 7.1 16.6 27.9 26.3 45.2 21.2zm-11.6-14c.962-.252 2.54-.252 3.5 0 .962.252.175.457-1.75.457s-2.71-.206-1.75-.457zm-1-3.03c1.51-.229 3.99-.229 5.5 0s.275.417-2.75.417-4.26-.187-2.75-.417zm-2.5-16c-2.06-.225-3.75-.774-3.75-1.22s2.07-.425 4.59.0471c2.83.529 5.3.480 6.43-.129 1.01-.543 2.89-.874 4.16-.737 1.48.160 2.22-.226 2.04-1.07-.151-.728.167-1.05.706-.718 1.85 1.15-.121 3.56-2.79 3.41-1.45-.0807-3.77.0729-5.14.341-1.38.269-4.19.304-6.25.0789zm-37.2-4.04c-.372-.962-.925-2.98-1.23-4.48-.303-1.5-.856-2.55-1.23-2.32-.372.230-1.33.004-2.13-.501-1.2-.760-1.15-.921.317-.934 1.42-.0123 1.64-.557 1.11-2.77-.362-1.51-1.21-3.85-1.9-5.19-1.17-2.31-1.23-2.22-1.13 1.67.0592 2.26.423 3.91.808 3.67.385-.238.958-.0148 1.27.496.676 1.09-1.35.911-3.29-.295-1.09-.681-1.14-.443-.236 1.24.612 1.14 1.05 2.44.981 2.87-.395 2.36.323 4.51 2.1 6.29 2.55 2.55 5.49 2.71 4.54.25zm89 .379c1.03-.754 1.97-2.7 2.08-4.33.113-1.63.963-4.43 1.89-6.22s1.47-3.48 1.2-3.74c-.265-.265-.798.511-1.18 1.73-1.02 3.22-2.5.381-1.83-3.51l.524-3.05-1.53 2.74c-1.91 3.44-2.42 6.25-1.14 6.29.541.0163.852-.659.692-1.5-.258-1.35-.171-1.35.746-.0296.789 1.14.474 1.98-1.32 3.5-1.85 1.57-4.64 7.07-4.64 9.15 0 .859 2.79.226 4.49-1.02zm-61.8-15c5.7-3 9.9-10.2 8.4-14.3-1.3-3.8-7.2-6.6-15-7.2-15.6-1.3-24.6 8.8-16.3 18.2 5.17 5.88 15.2 7.3 23 3.23zm-13.5-7.3c-2.08-1-2.29-1.27-.681-.866 1.28.319 5.33.930 9 1.36l6.68.779-6 .0863c-3.36.0483-7.32-.550-9-1.36zm5.5-3.91c0-2.11 1.6-2.75 2.91-1.16.877 1.06.769 1.51-.468 1.99-2.25.865-2.44.801-2.44-.824zm11.3-.838c-1.52-2.59-5.12-3.72-11.8-3.72-5.33 0-6.96.394-8.66 2.09-1.9 1.9-2.06 1.92-1.74.25.214-1.12 2-2.41 4.57-3.3 3.49-1.21 5.21-1.25 9.95-.258 5.33 1.12 10.5 4.38 9.09 5.77-.332.332-.982-.0403-1.44-.826zm42.8 13.1c8.67-2.6 12.4-11.6 7.34-17.6-6.25-7.43-25.9-6.63-31.1 1.27-1.32 2.01-1.4 3.05-.461 5.89 3.06 9.26 13.4 13.7 24.2 10.5zm-11-7.87c3.67-.429 7.72-1.04 9-1.36 1.61-.402 1.4-.137-.681.866-1.68.809-5.64 1.41-9 1.36l-6-.0863zm-10.1-4.15c.099-1.84 1.42-5 1.97-4.72.254.129 2.2-.340 4.33-1.04 6.88-2.27 17.6.235 17.6 4.11 0 .465-.947-.102-2.1-1.26-1.85-1.85-3.02-2.06-9.61-1.73-6.73.340-7.75.665-9.9 3.16-1.32 1.53-2.36 2.19-2.32 1.48zm10.1-.613c.407-2.11 3.17-2.23 3.57-.158.183.951-.501 1.59-1.8 1.69-1.47.111-2-.345-1.77-1.53zm-70.6 2.9c.529-1.71.410-2.2-.413-1.69-1.44.890-1.53-.633-.118-2.04 1.72-1.72-2.27-5.9-4.63-4.85-1.8.796-1.78.864.272 1.23 1.2.211 2.77 1.14 3.5 2.07 1.19 1.52 1.14 1.55-.416.327-1.49-1.17-1.83-1.13-2.39.325-.356.928-.137 3.39.488 5.48s1.19 4.86 1.25 6.17c.0858 1.78.317 1.5.913-1.12.439-1.92 1.13-4.58 1.54-5.91zm-2.49 1.32c.0480-1.16.285-1.4.604-.604.289.722.253 1.58-.0790 1.92-.332.332-.569-.258-.525-1.31zm107-2.79c.0921-4.5-.0332-4.77-1.65-3.5-1.59 1.24-1.62 1.21-.378-.378.755-.962 2.33-1.76 3.5-1.77 1.74-.0125 1.85-.192.628-.985-4.28-2.77-7.06 1.04-4.45 6.1.796 1.54 1.41 3.61 1.36 4.6-.0496.990-.517.321-1.04-1.49-.521-1.81-1.38-3.02-1.91-2.69-.575.356-.361 1.75.538 3.49.823 1.59 1.54 3.7 1.6 4.69.198 3.58 1.7-3.15 1.8-8.07zm-8.44-7.38c-3-13.1-7-25.1-13-32.5-5.75-7.3-17.9-10.6-27.7-7.51-1.92.606-10.3 1.39-18.6 1.75-14.3.616-15.3.786-19.3 3.47-6.71 4.44-9.88 12.8-11.6 30.4-.822 8.49-.143 8.96 5.2 3.62 8.36-8.36 23.5-10.9 30.7-5.24 1.8 1.41 2.33 2.44 1.68 3.23-1.89 2.27 1.1 4.15 6.53 4.1 5.68-.0536 9.06-1.89 7.32-3.98-2.68-3.23 6.43-7.02 14.8-6.16 6.24.644 15.8 4.91 17.3 7.74.804 1.5 5.2 4.69 6.76 4.9.162.0220.0119-1.65-.334-3.71z" fill="#df936e"/>
 <path d="m14.5 198c.264-.962.774-3.49 1.13-5.61.360-2.13 1.8-6.2 3.2-9.06 3-6.12 7.06-8.64 17.8-11.1 14.6-3.3 35.2-10.4 36.6-12.6 1.42-2.29 2.7.285 3.4 6.82.396 3.7 2.04 11 3.66 16.3 1.62 5.25 3.33 11.2 3.79 13.3l.848 3.75h-35.5c-33.3 0-35.4-.107-35-1.75zm79.7-.591c0-1.29.631-4.44 1.4-7 1.37-4.54 1.34-4.71-1.06-6.6-1.93-1.52-2.26-2.34-1.5-3.75 1.12-2.09 6.78-7.31 7.93-7.31 1.68 0 8.24 6.24 8.24 7.83 0 .928-.953 2.28-2.12 3.01-1.88 1.17-2.04 1.91-1.44 6.49.371 2.84.922 6.18 1.23 7.42.531 2.16.294 2.25-6.06 2.25-6.26 0-6.61-.122-6.61-2.34zm23.7.0911c.29-1.24 2-7.42 3.79-13.8 1.8-6.32 3.59-14.3 3.98-17.8.697-6.12 2.05-8.63 3.44-6.38 1.36 2.2 22 9.33 36.6 12.6 10.8 2.43 14.8 4.96 17.8 11.1 1.4 2.86 2.84 6.94 3.2 9.06.360 2.13.87 4.65 1.13 5.61.451 1.64-1.69 1.75-35 1.75h-36zm-26.3-42c-2.75-.669-6.44-1.94-8.2-2.81-2.28-1.14-3.34-1.27-3.67-.449-.259.632-.506.136-.550-1.1-.0434-1.24-.416-2.26-.829-2.26-.412-.007-2.6-1.69-4.86-3.75s-5.46-4.46-7.1-5.35c-2.19-1.19-3.14-2.57-3.57-5.21-.321-1.98-1.63-6.25-2.9-9.51-1.73-4.4-3-6.18-5-6.93-2.05-.775-3.03-2.2-4.19-6.11-.832-2.8-3.11-7.94-5.05-11.4-2.92-5.23-3.5-7.19-3.28-11.3.201-3.83.708-5.14 2.27-5.83 1.92-.854 1.95-1.22.763-8-.686-3.91-1.27-9.64-1.29-12.7-.0844-12 7.09-26.1 15.5-30.4 2.2-1.13 7.14-5.22 11-9.09 9.17-9.22 13.6-10.8 27.9-10.1 16.4.815 34.1 7.47 43.6 16.3 10.3 9.63 14 21.9 12.4 41.4l-.907 11.5 3 1.01c2.85.962 3 1.28 2.98 6.55-.0126 4.46-.624 6.5-3.14 10.5-1.72 2.72-3.65 6.75-4.3 8.95-1.86 6.28-3.24 8.51-5.62 9.11-1.67.418-2.86 2.33-4.82 7.72-1.43 3.94-2.61 8.2-2.6 9.46.003 1.55-1.02 2.85-3.13 4-1.73.937-4.99 3.39-7.25 5.44-2.26 2.06-4.45 3.74-4.86 3.75-.412.007-.802 1.25-.866 2.76-.0638 1.51-.312 2.01-.551 1.12-.399-1.5-.746-1.49-4.13.131-8.03 3.83-17.8 4.79-26.7 2.62zm26-4.11c8.43-4.03 16.6-12.4 19.4-20 4.14-11 10.8-35.6 10.3-38.1-.641-3.35-3.36-2.74-4.35.981-1.82 6.79-8.36 10.6-18.1 10.6-5.26 0-7.11-.488-10.9-2.87-4.53-2.87-7.87-7.97-7.87-12 0-1.38-.836-2.29-2.5-2.71-3.87-.972-7.5.308-7.5 2.65 0 3.97-3.93 9.81-8.34 12.4-3.38 1.98-5.7 2.54-10.5 2.54-9.64 0-16.2-3.86-18-10.6-.424-1.58-1.53-3.03-2.45-3.2-2.79-.538-2.07 6.17 2.24 20.9 7.23 24.7 10.2 29.9 21.1 36.9 7.55 4.84 12.2 6.03 22.5 5.68 7.45-.253 10-.798 15-3.17zm-58.8-34c0-1.67-5.28-19.1-6.02-19.8-.503-.516-1.14.330-1.51 2-1.08 4.87-1.2 4.99-1.97 2.08-.504-1.9-.186-4.06.977-6.64 1.63-3.61 1.63-4.02 0.01-7.44-1.7-3.58-2.86-4.17-5.91-3.01-2.16.827-2.01 2.32.168 1.75 1.5-.391 1.76.310 1.84 4.84.114 6.6.644 9.74 2.08 12.3.617 1.1 1.66 4.02 2.32 6.5 1.38 5.2 3.54 8 6.16 8 1.01 0 1.85-.249 1.85-.554zm89.2-1.2c.849-.962 1.87-3.32 2.28-5.25.836-4 2.93-8.42 5.63-11.9 1.02-1.31 1.84-2.89 1.82-3.5-.022-.613-.732.162-1.58 1.72-1.97 3.64-2.72 2.93-1.28-1.2.611-1.75.925-4.78.698-6.73-.357-3.06-.160-3.48 1.45-3.05 1.52.396 1.64.222.684-.934-.649-.782-2.21-1.42-3.48-1.42-3.61 0-5.12 5.7-2.98 11.3 1.24 3.26 1.39 4.93.605 6.99-.567 1.49-1.29 2.71-1.61 2.71-.321 0-.299-.461.0494-1.02.766-1.24-.380-6.98-1.39-6.98-.396 0-1.77 3.94-3.05 8.75s-2.55 9.54-2.82 10.5c-.347 1.24.0833 1.75 1.47 1.75 1.08 0 2.66-.788 3.51-1.75zm-62.2-15c4.77-2.17 8.29-6.63 9.08-11.5.459-2.83.0976-3.87-2.02-5.84-4.91-4.55-18-6.3-25-3.35-4.28 1.79-7.64 6.12-7.64 9.85 0 10 14.2 16.1 25.6 10.9zm-7.6-11.3c0-.808.675-1.47 1.5-1.47s1.5.402 1.5.893-.675 1.15-1.5 1.47c-.914.351-1.5.0016-1.5-.893zm-11-1.31c0-3.26 9.2-5.93 14.5-4.21 2.97.967 2.96.976-1 .917-7.98-.119-9.53.169-11.5 2.13-1.1 1.1-2 1.62-2 1.15zm67.5 12.9c9.93-4.81 9.88-16.5-.0919-20.6-7.5-3.13-22.8-.630-26 4.24-3.18 4.85.933 13.2 8.07 16.5 5.4 2.45 12.9 2.42 18.1-.0733zm-14-11.3c0-.825.648-1.5 1.44-1.5 2.12 0 2.8 1.69.971 2.4-2.23.855-2.41.787-2.41-.895zm-9.97-.0950c-.113-3.88 11-7.27 17.9-5.43 2.25.606 4.09 1.34 4.09 1.63 0 .291-.985.216-2.19-.166-3.3-1.05-12.6-.603-15.1.720-1.2.642-2.74 1.88-3.41 2.75-.67.873-1.23 1.09-1.25.492zm-67.3 2.41c-.319-.798-.556-.561-.604.604-.0434 1.05.193 1.64.525 1.31.332-.332.368-1.19.0790-1.92zm115-1c-.319-.798-.556-.561-.604.604-.0434 1.05.193 1.64.525 1.31.332-.332.368-1.19.0789-1.92zm-99.7-2.81c0-.55-.562-1.04-1.25-1.08-.857-.0541-.811-.253.147-.632.768-.304 2.68-2.01 4.24-3.79 6.18-7.04 21-10.2 28.6-6.18 3.13 1.67 4.48 4.68 2.1 4.68-.683 0-.464.763.534 1.87 2.3 2.54 12.7 2.46 15.3-.116 1.08-1.08 1.28-1.75.535-1.75-2.43 0-1.13-2.99 2.04-4.68 7.54-4.02 22.3-.891 28.6 6.06 1.55 1.72 3.86 3.73 5.12 4.46 2.3 1.34 2.3 1.33 1.61-3.5-2.68-18.9-11-34.4-20.9-39.2-5.14-2.49-13.1-2.7-22.7-.588-3.57.786-11.4 1.46-17.5 1.49-17 .0881-22.8 3.92-26.5 17.4-2.07 7.48-3.45 20.5-2.55 24.1.609 2.43 2.6 3.59 2.6 1.53zm86 0c0-.55-.45-1-1-1s-1 .45-1 1 .45 1 1 1 1-.45 1-1z" fill="#9ecb1b"/>
 <path d="m14.5 198c.264-.962.774-3.49 1.13-5.61.360-2.13 1.8-6.2 3.2-9.06 3-6.12 7.06-8.64 17.8-11.1 14.6-3.3 35.2-10.4 36.6-12.6 1.42-2.29 2.7.285 3.4 6.82.396 3.7 2.04 11 3.66 16.3 1.62 5.25 3.33 11.2 3.79 13.3l.848 3.75h-35.5c-33.3 0-35.4-.107-35-1.75zm79.7-.591c0-1.29.631-4.44 1.4-7 1.37-4.54 1.34-4.71-1.06-6.6-1.93-1.52-2.26-2.34-1.5-3.75 1.12-2.09 6.78-7.31 7.93-7.31 1.68 0 8.24 6.24 8.24 7.83 0 .928-.953 2.28-2.12 3.01-1.88 1.17-2.04 1.91-1.44 6.49.371 2.84.922 6.18 1.23 7.42.531 2.16.294 2.25-6.06 2.25-6.26 0-6.61-.122-6.61-2.34zm23.7.0911c.29-1.24 2-7.42 3.79-13.8 1.8-6.32 3.59-14.3 3.98-17.8.697-6.12 2.05-8.63 3.44-6.38 1.36 2.2 22 9.33 36.6 12.6 10.8 2.43 14.8 4.96 17.8 11.1 1.4 2.86 2.84 6.94 3.2 9.06.360 2.13.87 4.65 1.13 5.61.451 1.64-1.69 1.75-35 1.75h-36zm-26.3-42c-2.75-.669-6.44-1.94-8.2-2.81-2.28-1.14-3.34-1.27-3.67-.449-.259.632-.506.136-.550-1.1-.0434-1.24-.416-2.26-.829-2.26-.412-.007-2.6-1.69-4.86-3.75s-5.46-4.46-7.1-5.35c-2.19-1.19-3.14-2.57-3.57-5.21-.321-1.98-1.63-6.25-2.9-9.51-1.73-4.4-3-6.18-5-6.93-2.05-.775-3.03-2.2-4.19-6.11-.832-2.8-3.11-7.94-5.05-11.4-2.92-5.23-3.5-7.19-3.28-11.3.201-3.83.708-5.14 2.27-5.83 1.92-.854 1.95-1.22.763-8-.686-3.91-1.27-9.64-1.29-12.7-.0844-12 7.09-26.1 15.5-30.4 2.2-1.13 7.14-5.22 11-9.09 9.17-9.22 13.6-10.8 27.9-10.1 16.4.815 34.1 7.47 43.6 16.3 10.3 9.63 14 21.9 12.4 41.4l-.907 11.5 3 1.01c2.85.962 3 1.28 2.98 6.55-.0126 4.46-.624 6.5-3.14 10.5-1.72 2.72-3.65 6.75-4.3 8.95-1.86 6.28-3.24 8.51-5.62 9.11-1.67.418-2.86 2.33-4.82 7.72-1.43 3.94-2.61 8.2-2.6 9.46.003 1.55-1.02 2.85-3.13 4-1.73.937-4.99 3.39-7.25 5.44-2.26 2.06-4.45 3.74-4.86 3.75-.412.007-.802 1.25-.866 2.76-.0638 1.51-.312 2.01-.551 1.12-.399-1.5-.746-1.49-4.13.131-8.03 3.83-17.8 4.79-26.7 2.62zm26-4.11c3.4-1.63 8.42-5.28 11.6-8.44 6.37-6.36 7.8-9.58 14.3-32.2 4.03-14 4.18-15 3.42-22.9-2-21-10-37.9-21-43.2-5-2.5-13-2.7-23-.6-3.4.8-11.3 1.5-17.3 1.5-8.6.1-12 .5-15.2 2-8.8 4-12.5 13.1-14.4 35.9l-1.18 13.9 4.04 13.9c7.34 25.2 10.3 30.3 21.2 37.3 7.55 4.84 12.2 6.03 22.5 5.68 7.45-.253 10-.798 15-3.17zm-39.8-61.3c0-.808.675-1.47 1.5-1.47s1.5.402 1.5.893-.675 1.15-1.5 1.47c-.914.351-1.5.0016-1.5-.893zm43 .0314c0-.825.648-1.5 1.44-1.5 2.12 0 2.8 1.69.971 2.4-2.23.855-2.41.787-2.41-.895zm-9.97-.0950c-.113-3.88 11-7.27 17.9-5.43 2.25.606 4.09 1.34 4.09 1.63 0 .291-.985.216-2.19-.166-3.3-1.05-12.6-.603-15.1.720-1.2.642-2.74 1.88-3.41 2.75-.67.873-1.23 1.09-1.25.492zm-43.8-1.2c0-3.26 9.2-5.93 14.5-4.21 2.97.967 2.96.976-1 .917-7.98-.119-9.53.169-11.5 2.13-1.1 1.1-2 1.62-2 1.15zm20.5-8.79c-2.8-1-6.7-1.4-12.4-1.2l-8.35.316 4.35-1.95c8.04-3.61 22.9-1.68 22.9 2.98 0 1.81-1.32 1.77-6.5-.161zm20.5.161c0-4.67 14.8-6.59 22.9-2.97l4.38 1.97-8.1-.368c-5.65-.257-9.52.117-12.8 1.24-5.79 1.97-6.35 1.98-6.35.130zm-48.8 37.2c0-1.67-5.28-19.1-6.02-19.8-.503-.516-1.14.330-1.51 2-1.08 4.87-1.2 4.99-1.97 2.08-.504-1.9-.186-4.06.977-6.64 1.63-3.61 1.63-4.02 0.01-7.44-1.7-3.58-2.86-4.17-5.91-3.01-2.16.827-2.01 2.32.168 1.75 1.5-.391 1.76.310 1.84 4.84.114 6.6.644 9.74 2.08 12.3.617 1.1 1.66 4.02 2.32 6.5 1.38 5.2 3.54 8 6.16 8 1.01 0 1.85-.249 1.85-.554zm89.2-1.2c.849-.962 1.87-3.32 2.28-5.25.836-4 2.93-8.42 5.63-11.9 1.02-1.31 1.84-2.89 1.82-3.5-.022-.613-.732.162-1.58 1.72-1.97 3.64-2.72 2.93-1.28-1.2.611-1.75.925-4.78.698-6.73-.357-3.06-.160-3.48 1.45-3.05 1.52.396 1.64.222.684-.934-.649-.782-2.21-1.42-3.48-1.42-3.61 0-5.12 5.7-2.98 11.3 1.24 3.26 1.39 4.93.605 6.99-.567 1.49-1.29 2.71-1.61 2.71-.321 0-.299-.461.0494-1.02.766-1.24-.380-6.98-1.39-6.98-.396 0-1.77 3.94-3.05 8.75s-2.55 9.54-2.82 10.5c-.347 1.24.0833 1.75 1.47 1.75 1.08 0 2.66-.788 3.51-1.75zm-104-24c-.319-.798-.556-.561-.604.604-.0434 1.05.193 1.64.525 1.31.332-.332.368-1.19.0790-1.92zm115-1c-.319-.798-.556-.561-.604.604-.0434 1.05.193 1.64.525 1.31.332-.332.368-1.19.0789-1.92z" fill="#cb6a4c"/>
 <path d="m14.5 198c.264-.962.781-3.53 1.15-5.69 1.71-10.1 8.26-17.4 17-19 10.6-1.9 36.7-10.4 39.6-12.9 1.11-.951 2.4-1.5 2.85-1.21.459.284 1.16 3.56 1.55 7.28.395 3.72 1.77 10.1 3.05 14.3 1.28 4.12 2.99 10.1 3.8 13.2l1.47 5.75h-35.5c-33.3 0-35.4-.107-35-1.75zm79.7-.591c0-1.29.654-4.52 1.45-7.17 1.33-4.41 1.31-4.94-.25-6.13-.937-.712-2.04-1.31-2.45-1.33-1.62-.0689-.574-2.05 3.27-6.17 3.98-4.27 4.04-4.29 6.75-2.66 1.5.905 3.61 2.8 4.67 4.21 1.93 2.56 1.93 2.57-.391 5.04-1.98 2.11-2.24 3.14-1.71 7.01.342 2.49.904 5.66 1.25 7.04.622 2.48.569 2.5-5.98 2.5-6.26 0-6.61-.122-6.61-2.34zm24.7-3.41c.809-3.16 2.52-9.12 3.8-13.2 1.28-4.12 2.66-10.5 3.05-14.3.738-6.94 2.06-9.25 3.65-6.4.965 1.72 23.1 9.24 35.8 12.1 8.87 2.03 13.5 4.16 16.1 7.35 2.23 2.81 5.44 11.2 6.23 16.4l.578 3.75h-72zm-25.1-39c.688-.277 1.81-.277 2.5 0 .688.277.125.504-1.25.504s-1.94-.227-1.25-.504zm12 0c.688-.277 1.81-.277 2.5 0 .688.277.125.504-1.25.504s-1.94-.227-1.25-.504zm-20.7-2.34c-.825-.533-1.05-.969-.5-.969s1.68.436 2.5.969c.825.533 1.05.969.5.969s-1.68-.436-2.5-.969zm30 0c.825-.533 1.95-.969 2.5-.969s.325.436-.5.969-1.95.969-2.5.969-.325-.436.5-.969zm7.16-2c0-1.38.227-1.94.504-1.25.277.688.277 1.81 0 2.5-.277.688-.504.125-.504-1.25zm-47.3-4.75c-1.24-1.59-1.21-1.62.378-.378.962.755 1.75 1.54 1.75 1.75 0 .823-.821.293-2.13-1.37zm50.1 1.37c0-.208.788-.995 1.75-1.75 1.59-1.24 1.62-1.21.378.378-1.31 1.67-2.13 2.2-2.13 1.37zm6.78-7.02c3.42-3.89 6.72-10.7 8.39-17.3 1.05-4.17 2.39-6.04 3.52-4.91.304.304-.611 3.84-2.03 7.85s-2.71 8.39-2.87 9.73c-0.2 1.72-1.73 3.29-5.19 5.32l-4.91 2.88zm-64.3.113c-3.28-1.86-4.1-2.95-4.67-6.23-.380-2.19-1.63-6.16-2.77-8.81-2.31-5.36-2.66-8.03-.968-7.46.614.205 2.37 4.1 3.9 8.67 1.53 4.56 4.2 10.1 5.93 12.2 1.73 2.15 3.01 3.91 2.85 3.9-.163-.009-2.09-1.03-4.27-2.27zm-17.7-39c-.774-2.69.946-8.44 2.28-7.62 2.29 1.41-.706-6.98-3.97-11.1-2.46-3.13-4.61-17.7-3.71-25.3 1.24-10.5 8.26-22.3 15.5-25.8 2.13-1.06 6.36-4.6 9.39-7.87 7.8-8.43 13-10.8 24.3-11.2 7.42-.284 10.9.136 19 2.28 25.2 6.71 38 18.2 41.5 37.1 1.38 7.42 0.4 25.1-1.71 30.8-3.25 8.89-3.4 9.8-1.87 11.3.804.804 1.42 3.12 1.38 5.14-.0839 3.59-.106 3.61-.931.865-.465-1.55-1.33-3.4-1.93-4.12-.594-.716-1.53-4.88-2.08-9.26-2-21.5-9-36.6-20-41.9-5-2.5-13-2.7-23-.6-4.5.9-12.2 1.5-18 1.4-11.4-.1-13.9.5-19.2 5.1-5.71 5.01-7.83 12-9.68 32-.817 8.83-1.5 11.9-2.94 13.5-1.03 1.11-2.03 3.37-2.22 5.02-.313 2.79-.384 2.84-1 .682zm-4.78-6.09c-1.63-3.92-1.83-9.28-.380-9.79.775-.274 1.28 1.68 1.54 5.89.210 3.47.311 6.43.226 6.58-.0854.155-.709-1.05-1.39-2.69zm110 .575c.356-1.01.647-3.82.647-6.25 0-4.3 1.23-5.87 2.33-2.99.665 1.73-1.11 8.69-2.57 10.1-.728.690-.854.432-.407-.832zm-76.8-5.8c0-.808.675-1.47 1.5-1.47s1.5.402 1.5.893-.675 1.15-1.5 1.47c-.914.351-1.5.0016-1.5-.893zm43.6.796c-1.07-1.07-.629-2.26.843-2.26.793 0 1.69.403 1.99.895.636 1.03-1.94 2.27-2.84 1.37zm-50-5.9c.722-.289 1.58-.253 1.92.0790.332.332-.258.569-1.31.525-1.16-.0480-1.4-.285-.604-.604zm47 0c.722-.289 1.58-.253 1.92.0790.332.332-.258.569-1.31.525-1.16-.0480-1.4-.285-.604-.604zm10 0c.722-.289 1.58-.253 1.92.0790.332.332-.258.569-1.31.525-1.16-.0480-1.4-.285-.604-.604zm-41.3-5.1c-2.65-.961-6.79-1.34-12.3-1.13-4.54.179-8.25.249-8.25.155.000858-1 11.7-3.63 15.7-3.53 5.59.144 11.6 2.58 11 4.45-.554 1.66-1.8 1.67-6.25.0557zm20.5.224c0-4.28 12.8-6.11 21.8-3.11 2.89.961 5.25 1.83 5.25 1.92 0 .0974-3.61.0131-8.02-.187-5.53-.251-9.55.134-12.9 1.24-5.99 1.96-6.04 1.96-6.04.133z" fill="#c5603c"/>
 <path d="m14.5 198c.264-.962.781-3.53 1.15-5.69 1.1-6.49 5.13-13.3 9.5-16.1 2.18-1.38 4.56-2.5 5.3-2.5 5.44 0 41.4-11.6 42.6-13.7 1.58-2.83 2.9-.504 3.64 6.42.395 3.72 1.77 10.1 3.05 14.3 1.28 4.12 2.99 10.1 3.8 13.2l1.47 5.75h-35.5c-33.3 0-35.4-.107-35-1.75zm79.7-.591c0-1.29.662-4.54 1.47-7.23 1.14-3.8 1.2-5.05.25-5.63-4.09-2.5-4.09-2.48-1.89-5.57 1.16-1.63 3.27-3.73 4.67-4.65 2.43-1.59 2.71-1.57 5.53.438 4.75 3.38 5.55 5.72 2.91 8.53-2.25 2.4-2.35 6.01-.356 13.9.622 2.48.569 2.5-5.98 2.5-6.26 0-6.61-.122-6.61-2.34zm24.7-3.41c.809-3.16 2.52-9.12 3.8-13.2 1.28-4.12 2.66-10.5 3.05-14.3.738-6.94 2.06-9.25 3.65-6.4.965 1.72 23.1 9.24 35.8 12.1 8.87 2.03 13.5 4.16 16.1 7.35 2.23 2.81 5.44 11.2 6.23 16.4l.578 3.75h-72zm-52.6-55c-2.39-1.46-3.26-2.71-3.27-4.75-.0131-1.52-1.14-5.46-2.5-8.76-2.69-6.52-2.9-7.5-1.66-7.5.450 0 1.63 2.59 2.62 5.75 2.05 6.54 5.07 12.9 7.33 15.5 1.98 2.25 1.48 2.2-2.52-.239zm68.7-2.64c1.7-2.68 4.02-7.91 5.16-11.6 1.13-3.71 2.46-6.75 2.96-6.75 1.23 0 1.19.191-1.19 6.21-1.15 2.91-2.4 7.07-2.77 9.24-.526 3.06-1.43 4.39-3.97 5.88l-3.29 1.92zm-82.8-46.2c-1.12-2.61-2.88-5.83-3.92-7.15-2.43-3.09-4.56-17.7-3.68-25.3 1.24-10.6 8.26-22.3 15.5-25.9 2.16-1.07 6.17-4.4 8.91-7.4 7.49-8.19 13.7-11.2 24.3-11.7 7.04-.338 10.5.0782 19 2.25 33.1 8.52 45.2 24.8 42.1 56.5-.592 6.1-1.52 11.6-2.07 12.3-.545.669-1.57 3.16-2.27 5.53-1.58 5.31-2.44 4-3.32-5.04-1-18-10-35.1-20-39.8-5-2.2-14-2.4-24-.4-3.6.8-11.3 1.4-17 1.4-11.3-.2-14.7.7-19.2 5-5.85 5.53-7.96 12.3-9.67 31.2-.625 6.87-1.32 12.7-1.54 12.9-.220.220-1.32-1.73-2.43-4.34zm4.8-42.8c1.57-3.19 2.16-5.18 1.33-4.5-2.79 2.3-5.27 9.73-5.67 17l-.395 7.22.960-7c.536-3.91 2.2-9.53 3.77-12.7zm89.6 5.31c-1.51-2.78-3.65-5.84-4.75-6.82-1.19-1.05-.780-.0595 1.01 2.44 1.66 2.32 3.59 5.59 4.29 7.28s1.48 2.86 1.74 2.61c.256-.256-.771-2.74-2.28-5.51zm.724-11.3c-1.13-1.83-3.3-4.44-4.83-5.8-2.33-2.09-2.25-1.87.515 1.39 1.81 2.13 3.78 4.94 4.38 6.25.597 1.31 1.29 2.18 1.54 1.93.248-.248-.472-1.95-1.6-3.77zm-63.7-20.5c1.24-1.59 1.21-1.62-.378-.378-.962.755-1.75 1.54-1.75 1.75 0 .823.821.293 2.13-1.37zm35.9-.189c-.825-.483-3.3-1.14-5.5-1.45l-4-.571 4.5 1.38c5.31 1.63 7.08 1.86 5 .639zm-10.7-2.72c-.677-.274-2.03-.291-3-.0370-.973.254-.419.478 1.23.498 1.65.0204 2.45-.187 1.77-.461zm-30.8 72.1c0-.808.675-1.47 1.5-1.47s1.5.402 1.5.893-.675 1.15-1.5 1.47c-.914.351-1.5.0016-1.5-.893zm43.6.796c-1.07-1.07-.629-2.26.843-2.26.793 0 1.69.403 1.99.895.636 1.03-1.94 2.27-2.84 1.37zm-50-5.9c.722-.289 1.58-.253 1.92.0790.332.332-.258.569-1.31.525-1.16-.0480-1.4-.285-.604-.604zm47 0c.722-.289 1.58-.253 1.92.0790.332.332-.258.569-1.31.525-1.16-.0480-1.4-.285-.604-.604zm10 0c.722-.289 1.58-.253 1.92.0790.332.332-.258.569-1.31.525-1.16-.0480-1.4-.285-.604-.604zm-42.3-5.6c-3.99-1.27-7.84-1.77-11.5-1.5l-5.5.410 3.49-1.44c5.19-2.14 16.4-1.31 19.1 1.42 2.98 2.98 1.3 3.31-5.61 1.11zm22 1.44c-1.15-1.15-.437-2.04 2.85-3.6 4.08-1.94 13.9-2.06 18.1-.229 2.85 1.23 2.72 1.27-2.5.877-3.7-.281-7.53.224-11.7 1.54-3.41 1.08-6.45 1.71-6.75 1.41z" fill="#b74131"/>
 <path d="m14.5 198c.264-.962.781-3.53 1.15-5.69 1.1-6.49 5.13-13.3 9.5-16.1 2.18-1.38 4.56-2.5 5.3-2.5 5.44 0 41.4-11.6 42.6-13.7 1.58-2.83 2.9-.504 3.64 6.42.395 3.72 1.77 10.1 3.05 14.3 1.28 4.12 2.99 10.1 3.8 13.2l1.47 5.75h-35.5c-33.3 0-35.4-.107-35-1.75zm79.7-.591c0-1.29.662-4.54 1.47-7.23 1.14-3.8 1.2-5.05.25-5.63-4.09-2.5-4.09-2.48-1.89-5.57 1.16-1.63 3.27-3.73 4.67-4.65 2.43-1.59 2.71-1.57 5.53.438 4.75 3.38 5.55 5.72 2.91 8.53-2.25 2.4-2.35 6.01-.356 13.9.622 2.48.569 2.5-5.98 2.5-6.26 0-6.61-.122-6.61-2.34zm24.7-3.41c.809-3.16 2.52-9.12 3.8-13.2 1.28-4.12 2.66-10.5 3.05-14.3.733-6.9 2.05-9.25 3.62-6.46 1.23 2.19 37 13.7 42.6 13.7.732 0 3.16 1.16 5.4 2.57 4.65 2.94 8.5 10.1 9.8 18.4l.797 5.04h-71zm-53.7-56.2c-1.1-1.1-2-2.89-2-3.98s-1.13-4.98-2.51-8.65-2.28-6.91-2-7.19c.705-.705.741-.628 3.5 7.75 1.35 4.09 3.46 8.93 4.7 10.8 2.48 3.66 1.45 4.46-1.69 1.32zm69.8-.767c1.08-1.52 2.7-4.33 3.58-6.25.887-1.92 1.38-2.66 1.1-1.65-.283 1.01-.515 2.92-.515 4.25 0 2.46-3.13 6.42-5.07 6.42-.587 0-.182-1.24.902-2.77zm5.22-10.2c-.0111-.275.618-2.52 1.4-5 1.01-3.19 1.43-3.77 1.45-2 .025 1.99-2.77 8.86-2.85 7zm-86.6-35.5c.299-1.24.182-2.03-.259-1.76-.441.273-1.07-.214-1.41-1.08-.856-2.23-.723-3.15.237-1.63.446.703.891-4.53.989-11.6.198-14.4 1.2-21.2 4.09-27.7 2.15-4.87 6.94-8.43 11.3-8.44 3.47-.0047 3.49-1.27.0875-3.95-6.79-5.34-12-2.54-18 9.68l-3.8 7.7.0578 13.5c.0444 10.4-.156 12.6-.866 9.54-1.37-5.91-1.31-20.4.0883-25.1 1.86-6.24 8-14.9 12.5-17.5 2.19-1.3 7.19-5.55 11.1-9.46 11.1-11 21-13.6 38.4-9.95 22.1 4.66 37.3 14.3 43.1 27.6 4.97 11.2 4.99 31.9.0425 44.4l-2.76 7-.629-4c-4-25.4-11-38.6-22-44.6-4.86-2.51-12.9-2.66-23.5-.442-4.62.965-11.5 1.49-18 1.36-9.49-.187-10.9.0254-14.7 2.22-8.18 4.69-11.6 13-13.3 32.5-.571 6.59-1.54 12.4-2.15 13-0.8.738-.960.394-.570-1.23zm98.6-43.1c-4-11.3-11-19.5-22-25-17-8.8-37.8-11.8-48.7-7.1-5.46 2.35-13.1 9.77-13.1 12.7.0028.975 1.12 3.57 2.48 5.77l2.48 4-.611-3.27c-.718-3.84 1.76-11.1 4.68-13.8 1.93-1.75 1.96-1.68 1.96 4.44 0 3.89.374 5.98 1 5.6.55-.340 1-1.43 1-2.42 0-1.87 3.59-7.08 4.87-7.08 0.4 0 .543 1.57.318 3.5-.343 2.94.120 3.99 2.89 6.58 3.15 2.94 3.58 3.05 9.61 2.5 3.47-.317 9.25-.841 12.8-1.16 9.39-.843 18.6 2.09 25.2 8.05 4.98 4.47 10.1 13 13.9 23l1.88 5 .294-7.84c.192-5.12-.276-9.8-1.35-13.5zm-6.3-3.92c-1.09-2.55-1.07-2.61.339-.809.834 1.07 1.52 2.31 1.52 2.75 0 1.52-.678.810-1.86-1.94zm-3.74-5.4c-1.05-1.18-3.91-3.43-6.35-5-2.45-1.57-3.98-2.85-3.4-2.85 1.34 0 8.27 5.06 10.8 7.85 1.05 1.18 1.68 2.15 1.4 2.15-.275 0-1.36-.968-2.4-2.15zm-63.8 50.6c0-.808.675-1.47 1.5-1.47s1.5.402 1.5.893-.675 1.15-1.5 1.47c-.914.351-1.5.0016-1.5-.893zm43.6.796c-1.07-1.07-.629-2.26.843-2.26.793 0 1.69.403 1.99.895.636 1.03-1.94 2.27-2.84 1.37zm-73.2-7.51-1.9-2.25 2.25 1.9c2.11 1.79 2.71 2.6 1.9 2.6-.190 0-1.2-1.01-2.25-2.25zm23.4 1.57c.722-.289 1.58-.253 1.92.0790.332.332-.258.569-1.31.525-1.16-.0480-1.4-.285-.604-.604zm47 0c.722-.289 1.58-.253 1.92.0790.332.332-.258.569-1.31.525-1.16-.0480-1.4-.285-.604-.604zm10 0c.722-.289 1.58-.253 1.92.0790.332.332-.258.569-1.31.525-1.16-.0480-1.4-.285-.604-.604zm-81.7-17.4c0-1.38.227-1.94.504-1.25.277.688.277 1.81 0 2.5-.277.688-.504.125-.504-1.25zm1.92-5.58c.0480-1.16.285-1.4.604-.604.289.722.253 1.58-.0790 1.92-.332.332-.569-.258-.525-1.31zm1.04-5.8c-.183-4.56 1.92-10.3 5.11-13.8 2.89-3.24 2.91-3.25.948-.265-1.8 2.73-4.4 9.81-5.51 15-.295 1.37-.467 1.1-.547-.884z" fill="#9a1f0f"/>
 <path d="m14.5 198c.264-.962.781-3.53 1.15-5.69 1.1-6.49 5.13-13.3 9.5-16.1 2.18-1.38 4.56-2.5 5.3-2.5 5.44 0 41.4-11.6 42.6-13.7 1.58-2.83 2.9-.504 3.64 6.42.395 3.72 1.77 10.1 3.05 14.3 1.28 4.12 2.99 10.1 3.8 13.2l1.47 5.75h-35.5c-33.3 0-35.4-.107-35-1.75zm79.7-.591c0-1.29.662-4.54 1.47-7.23 1.14-3.8 1.2-5.05.25-5.63-4.09-2.5-4.09-2.48-1.89-5.57 1.16-1.63 3.27-3.73 4.67-4.65 2.43-1.59 2.71-1.57 5.53.438 4.75 3.38 5.55 5.72 2.91 8.53-2.25 2.4-2.35 6.01-.356 13.9.622 2.48.569 2.5-5.98 2.5-6.26 0-6.61-.122-6.61-2.34zm24.7-3.41c.809-3.16 2.52-9.12 3.8-13.2 1.28-4.12 2.66-10.5 3.05-14.3.733-6.9 2.05-9.25 3.62-6.46 1.23 2.19 37 13.7 42.6 13.7.732 0 3.16 1.16 5.4 2.57 4.65 2.94 8.5 10.1 9.8 18.4l.797 5.04h-71zm-40.8-104c0-.808.675-1.47 1.5-1.47s1.5.402 1.5.893-.675 1.15-1.5 1.47c-.914.351-1.5.0016-1.5-.893zm43.6.796c-1.07-1.07-.629-2.26.843-2.26.793 0 1.69.403 1.99.895.636 1.03-1.94 2.27-2.84 1.37zm-50-5.9c.722-.289 1.58-.253 1.92.0790.332.332-.258.569-1.31.525-1.16-.0480-1.4-.285-.604-.604zm47 0c.722-.289 1.58-.253 1.92.0790.332.332-.258.569-1.31.525-1.16-.0480-1.4-.285-.604-.604zm10 0c.722-.289 1.58-.253 1.92.0790.332.332-.258.569-1.31.525-1.16-.0480-1.4-.285-.604-.604z" fill="#612f1d"/>
 <path d="m15.2 198c-.109-3.52 2.57-12.2 5.06-16.4 3.08-5.22 3.25-4.19.280 1.67-1.44 2.83-3.21 7.9-3.94 11.2-.730 3.35-1.36 4.94-1.41 3.53zm43.8-.543c-2.25-5.64-3.93-11.8-2.95-10.8 1.28 1.28 5.2 12.6 4.57 13.2-.261.261-.993-.825-1.63-2.41zm23.8 1.11c-4.7-14-7.6-27-7.5-31l.122-5.17.863 5.92c.475 3.25 2.48 11.5 4.46 18.2 1.98 6.78 3.41 12.9 3.17 13.6-.255.748-.678.448-1.05-.750zm11.3-.318c0-1 .718-4.24 1.6-7.19l1.6-5.37-2.67-1.94-2.67-1.94 3.77-3.86c2.08-2.13 4.49-3.86 5.37-3.86s3.15 1.61 5.05 3.57l3.45 3.57-2.71 2.35-2.71 2.35 1.35 7.08 1.35 7.08h-6.38c-5.5 0-6.38-.250-6.38-1.82zm24.4-1.49c.379-2.1 2.01-8.1 3.62-13.3 1.61-5.24 3.33-12.3 3.82-15.7l.885-6.15.123 5.13c.0798 3.32-1.28 9.99-3.85 18.9-3.94 13.7-5.93 18.5-4.61 11.2zm23.1 1.31c1.54-5.19 4.7-13.1 5.08-12.7.570.57-3.67 13.1-4.83 14.2-.644.656-.727.139-.241-1.5zm44.2-2.5c-.401-2.75-1.85-7.41-3.23-10.4-2.25-4.84-2.67-5.23-4.24-4-1.61 1.26-1.63 1.21-.275-.634.807-1.1 1.54-2.13 1.63-2.29.0874-.161 1.1 1.31 2.26 3.27 2.65 4.5 5.4 13.8 4.93 16.8-.205 1.31-.656.169-1.08-2.75zm-125-17c-1.91-1.83-3.22-3.57-2.93-3.87.293-.293 2.05 1.03 3.9 2.94 4.36 4.5 3.56 5.28-.965.929zm78 2.79c0-.455 1.58-2.35 3.5-4.22s3.5-2.93 3.5-2.36-1.58 2.47-3.5 4.22-3.5 2.81-3.5 2.36zm-110-6c1.07-.855 2.88-1.56 4.02-1.56s5.39-.918 9.44-2.04 7.55-1.85 7.77-1.62c.516.516-14.7 4.66-17.1 4.66-.961 0-2.73.475-3.93 1.06-2.11 1.02-2.12 1-.243-.5zm147 .445c-.825-.533-2.37-.976-3.43-.985-2.57-.0204-17.8-4.14-17.2-4.68.229-.229 3.73 0.5 7.77 1.62 4.05 1.12 8.29 2.04 9.44 2.04 1.14 0 2.95.661 4.02 1.47 2.17 1.64 1.76 2.03-.559.532zm-119-8.07c2.98-1.06 5.59-1.75 5.8-1.54.466.466-8.64 3.64-10.2 3.54-.590-.0402 1.37-.939 4.35-2zm90.3.387c-2.37-.839-4.14-1.7-3.92-1.92.216-.216 2.83.473 5.81 1.53s4.74 1.92 3.92 1.92c-.825-.003-3.44-.692-5.81-1.53zm-80.2-.581c0-.220 1.91-1.92 4.25-3.78s3.61-2.59 2.84-1.62c-1.46 1.82-7.09 6.11-7.09 5.4zm65.9-4.49-2.42-2.75 2.75 2.42c2.57 2.27 3.21 3.08 2.42 3.08-.179 0-1.42-1.24-2.75-2.75z" fill="#210e07"/>
</svg>
