<!DOCTYPE svg PUBLIC "-//W3C//DTD SVG 20010904//EN" "http://www.w3.org/TR/2001/REC-SVG-20010904/DTD/svg10.dtd">
<svg version="1.0" xmlns="http://www.w3.org/2000/svg" width="200px" height="200px" viewBox="0 0 2000 2000" preserveAspectRatio="xMidYMid meet">
<g id="layer101" fill="#0e0c0c" stroke="none">
 <path d="M135 1953 c3 -27 18 -74 33 -107 32 -72 72 -100 176 -121 42 -9 135 -36 208 -60 73 -25 134 -45 135 -45 12 0 56 -55 69 -85 l16 -38 -45 -43 c-24 -23 -58 -49 -74 -58 -23 -11 -32 -24 -36 -51 -3 -20 -16 -62 -28 -93 -17 -43 -30 -61 -53 -72 -25 -12 -35 -27 -52 -80 -12 -36 -34 -85 -49 -108 -18 -28 -30 -61 -33 -94 -4 -47 -3 -53 23 -74 26 -21 27 -23 16 -73 -15 -73 -14 -199 4 -256 21 -71 80 -151 134 -182 25 -15 70 -53 99 -84 32 -35 75 -69 110 -86 51 -25 67 -28 157 -28 79 1 119 6 194 28 224 67 342 165 387 322 13 47 16 87 12 200 l-5 142 28 10 c51 20 49 108 -5 188 -14 20 -30 53 -36 73 -23 74 -32 90 -59 101 -28 12 -66 93 -78 166 -4 27 -13 40 -37 52 -17 9 -40 25 -51 37 -11 12 -32 31 -48 43 l-27 21 22 39 c12 21 32 48 43 59 23 25 255 105 371 129 104 21 144 49 176 121 15 33 30 80 33 107 l7 47 -872 0 -872 0 7 -47z"/>
 </g>
<g id="layer102" fill="#3f1507" stroke="none">
 <path d="M135 1953 c3 -27 18 -74 33 -107 32 -72 72 -100 176 -121 42 -9 135 -36 208 -60 73 -25 134 -45 135 -45 12 0 56 -55 69 -85 l16 -38 -45 -43 c-24 -23 -58 -49 -74 -58 -23 -11 -32 -24 -36 -51 -3 -20 -16 -62 -28 -93 -17 -43 -30 -61 -53 -72 -25 -12 -35 -27 -52 -80 -12 -36 -34 -85 -49 -108 -18 -28 -30 -61 -33 -94 -4 -47 -3 -53 23 -74 26 -21 27 -23 16 -73 -15 -73 -14 -199 4 -256 21 -71 80 -151 134 -182 25 -15 70 -53 99 -84 32 -35 75 -69 110 -86 51 -25 67 -28 157 -28 79 1 119 6 194 28 224 67 342 165 387 322 13 47 16 87 12 200 l-5 142 28 10 c51 20 49 108 -5 188 -14 20 -30 53 -36 73 -23 74 -32 90 -59 101 -28 12 -66 93 -78 166 -4 27 -13 40 -37 52 -17 9 -40 25 -51 37 -11 12 -32 31 -48 43 l-27 21 22 39 c12 21 32 48 43 59 23 25 255 105 371 129 104 21 144 49 176 121 15 33 30 80 33 107 l7 47 -408 -2 -407 -3 -14 -68 -14 -67 27 -24 c25 -21 26 -24 12 -44 -8 -12 -27 -31 -42 -43 l-28 -22 -44 44 -45 44 26 20 c25 21 25 21 10 70 -8 28 -15 60 -15 73 l0 22 -401 0 -401 0 7 -47z"/>
 </g>
<g id="layer103" fill="#481c0d" stroke="none">
 <path d="M150 1978 c0 -13 -3 -34 -6 -48 -5 -20 -4 -22 6 -10 9 12 11 10 7 -12 -2 -15 -1 -25 3 -23 4 2 12 -7 19 -21 14 -31 14 -37 1 -29 -19 12 -10 -5 20 -35 17 -17 30 -27 30 -23 0 4 5 1 10 -7 5 -8 15 -15 22 -16 7 0 26 -2 41 -2 19 -1 26 -6 21 -14 -5 -7 -3 -8 5 -4 7 5 29 5 48 1 28 -5 33 -9 22 -16 -10 -7 -3 -8 21 -4 27 5 32 4 20 -5 -12 -9 -9 -10 13 -5 20 4 27 2 22 -6 -5 -8 -1 -9 15 -4 16 5 20 4 15 -5 -5 -9 -2 -10 14 -5 13 4 21 2 21 -5 0 -6 4 -9 10 -5 5 3 37 -6 71 -20 72 -29 73 -29 63 -12 -5 8 -3 8 9 -2 9 -7 14 -17 11 -22 -3 -5 5 -13 18 -18 13 -6 20 -10 16 -10 -4 -1 2 -22 14 -47 l20 -46 -45 -43 c-24 -24 -58 -50 -74 -59 -23 -11 -32 -24 -36 -51 -3 -20 -16 -62 -28 -93 -17 -43 -30 -61 -53 -72 -25 -12 -35 -27 -52 -80 -12 -36 -34 -85 -49 -108 -18 -28 -30 -61 -33 -94 -4 -47 -3 -53 23 -74 26 -21 27 -23 16 -73 -15 -73 -14 -199 4 -256 21 -71 80 -151 134 -182 25 -15 70 -53 99 -84 32 -35 75 -69 110 -86 51 -25 67 -28 157 -28 79 1 119 6 194 28 224 67 342 165 387 322 13 47 16 87 12 200 l-5 142 28 10 c51 20 49 108 -5 188 -14 20 -30 53 -36 73 -23 74 -32 90 -59 101 -28 12 -66 93 -78 166 -4 27 -13 40 -37 52 -17 9 -40 25 -51 37 -11 12 -32 31 -48 42 l-27 22 24 43 c14 24 23 46 20 50 -2 4 5 10 16 14 11 4 18 10 15 15 -3 4 3 14 12 21 12 10 14 10 9 2 -10 -17 -9 -17 63 12 34 14 66 23 71 20 6 -4 10 -1 10 5 0 7 8 9 21 5 16 -5 19 -4 14 5 -5 9 -1 10 15 5 16 -5 20 -4 15 4 -5 8 2 10 22 6 22 -5 25 -4 13 5 -12 9 -7 10 20 5 24 -4 31 -3 21 4 -11 7 -6 11 22 16 19 4 41 4 48 -1 8 -4 10 -3 5 4 -5 8 2 13 21 14 15 0 34 2 41 2 7 1 17 8 22 16 5 8 10 11 10 7 0 -4 14 6 30 23 17 17 30 34 30 38 0 4 -7 -2 -15 -12 -20 -26 -19 -15 2 28 9 19 19 33 23 31 4 -2 5 7 2 22 -4 20 -2 24 8 18 10 -6 12 -4 7 9 -4 10 -7 29 -7 42 l0 24 -221 0 c-207 0 -221 -1 -214 -17 16 -41 33 -105 26 -97 -5 5 -16 33 -26 62 l-17 52 -109 0 c-60 0 -109 -2 -109 -4 0 -2 16 -60 36 -128 20 -67 38 -152 40 -188 l3 -65 -9 61 c-6 33 -27 119 -48 190 l-38 129 -54 0 -53 0 -14 -68 -14 -67 27 -24 c25 -21 26 -24 12 -44 -8 -12 -27 -31 -42 -43 l-28 -22 -44 44 -45 44 26 20 c25 21 25 21 10 70 -8 28 -15 60 -15 73 0 21 -4 23 -47 20 l-47 -3 -23 -80 c-13 -44 -30 -101 -38 -126 -9 -25 -20 -75 -25 -110 l-9 -64 3 65 c2 36 20 121 40 188 20 68 36 126 36 128 0 2 -49 4 -109 4 l-109 0 -17 -52 c-25 -75 -38 -83 -15 -10 l18 62 -219 0 -219 0 0 -22z"/>
 </g>
<g id="layer104" fill="#582817" stroke="none">
 <path d="M155 1953 c3 -27 18 -72 31 -102 29 -63 34 -62 83 29 17 30 31 51 31 47 0 -13 -31 -70 -57 -105 -14 -18 -23 -35 -22 -36 17 -15 73 -35 112 -40 50 -8 211 -57 307 -95 l55 -21 -30 22 c-50 38 -105 90 -105 99 0 12 63 69 69 63 3 -2 -10 -19 -28 -38 l-33 -34 48 -38 c27 -22 63 -53 81 -70 37 -36 43 -30 43 50 0 31 15 102 35 172 19 65 35 124 35 131 0 10 -27 13 -103 13 l-103 0 -27 -75 c-24 -69 -25 -75 -9 -84 9 -6 12 -11 6 -11 -6 0 -17 7 -24 15 -9 11 -8 28 9 79 12 36 21 68 21 71 0 3 -58 5 -129 5 -94 0 -131 -3 -134 -12 -4 -10 -6 -10 -6 0 -1 8 -24 12 -82 12 l-81 0 7 -47z"/>
 <path d="M836 1991 c-3 -5 -13 -38 -21 -75 -8 -36 -20 -78 -26 -93 -18 -45 -29 -93 -39 -175 -7 -63 -6 -85 6 -114 l16 -37 -45 -43 c-24 -23 -58 -49 -74 -58 -23 -11 -32 -24 -36 -51 -3 -20 -16 -62 -28 -93 -17 -43 -30 -61 -53 -72 -25 -12 -35 -27 -52 -80 -12 -36 -34 -85 -49 -108 -18 -28 -30 -61 -33 -94 -4 -47 -3 -53 23 -74 26 -21 27 -23 16 -73 -15 -73 -14 -199 4 -256 21 -71 80 -151 134 -182 25 -15 70 -53 99 -84 32 -35 75 -69 110 -86 51 -25 67 -28 157 -28 79 1 119 6 194 28 224 67 342 165 387 322 13 47 16 87 12 200 l-5 142 28 10 c51 20 49 108 -5 188 -14 20 -30 53 -36 73 -23 74 -32 90 -59 101 -28 12 -66 93 -78 166 -4 27 -13 40 -37 52 -17 9 -40 25 -51 37 -11 12 -32 31 -48 43 l-27 21 20 35 c20 33 20 42 10 119 -5 46 -21 119 -35 163 -14 44 -30 103 -38 130 l-13 50 -53 0 -54 0 -14 -68 -14 -67 27 -24 c25 -21 26 -24 12 -44 -8 -12 -27 -31 -42 -43 l-28 -22 -44 44 -45 44 26 20 c25 21 25 21 10 70 -8 28 -15 60 -15 73 0 19 -5 22 -44 22 -25 0 -47 -4 -50 -9z"/>
 <path d="M1190 1987 c0 -8 16 -67 35 -133 23 -79 35 -139 35 -181 0 -58 12 -89 23 -60 3 8 25 28 49 46 l43 33 -35 -32 -35 -31 55 22 c91 36 256 87 307 95 39 5 95 25 112 40 1 1 -8 18 -22 36 -26 35 -57 92 -57 105 0 4 14 -17 31 -47 49 -91 54 -92 83 -29 13 30 28 75 31 102 l7 47 -80 0 c-55 0 -82 -4 -85 -12 -4 -10 -6 -10 -6 0 -1 9 -34 12 -131 12 -71 0 -130 -4 -130 -8 0 -4 10 -36 21 -71 14 -40 18 -66 12 -72 -6 -6 -10 -5 -10 4 0 8 -10 44 -23 80 l-24 67 -103 0 c-79 0 -103 -3 -103 -13z m220 -269 c-34 -32 -34 -32 -7 -2 l27 30 -30 29 c-16 16 -30 33 -30 39 0 6 17 -6 37 -27 l38 -37 -35 -32z"/>
 </g>
<g id="layer105" fill="#393839" stroke="none">
 <path d="M155 1958 c9 -53 31 -115 51 -145 16 -26 83 -63 113 -63 25 0 230 -61 301 -89 l55 -22 -40 33 c-22 18 -51 44 -64 57 l-25 24 34 28 c38 32 38 30 -7 48 -40 16 -42 37 -13 113 11 29 20 54 20 56 0 1 -58 2 -129 2 l-129 0 -7 -32 c-10 -45 -59 -141 -81 -159 -14 -11 -13 -6 5 21 28 43 56 106 65 143 l6 27 -81 0 -81 0 7 -42z"/>
 <path d="M582 1932 c-12 -38 -22 -73 -22 -79 0 -5 19 -15 41 -22 l42 -13 -38 -38 -37 -38 53 -41 c30 -23 66 -52 80 -65 l27 -25 5 87 c3 62 15 118 40 195 l35 107 -102 0 -102 0 -22 -68z"/>
 <path d="M836 1991 c-3 -5 -13 -39 -22 -77 -8 -37 -22 -83 -29 -101 -8 -19 -21 -80 -30 -137 -14 -94 -14 -107 1 -141 l16 -38 -45 -43 c-24 -23 -58 -49 -74 -58 -23 -11 -32 -24 -36 -51 -3 -20 -16 -62 -28 -93 -17 -43 -30 -61 -53 -72 -25 -12 -35 -27 -52 -80 -12 -36 -34 -85 -49 -108 -18 -28 -30 -61 -33 -94 -4 -47 -3 -53 23 -74 26 -21 27 -23 16 -73 -15 -73 -14 -199 4 -256 21 -71 80 -151 134 -182 25 -15 70 -53 99 -84 32 -35 75 -69 110 -86 51 -25 67 -28 157 -28 79 1 119 6 194 28 224 67 342 165 387 322 13 47 16 87 12 200 l-5 142 28 10 c51 20 49 108 -5 188 -14 20 -30 53 -36 73 -23 74 -32 90 -59 101 -28 12 -66 93 -78 166 -4 27 -13 40 -37 52 -17 9 -40 25 -51 37 -11 12 -32 31 -48 43 l-27 21 20 34 c18 31 19 42 10 119 -6 46 -21 120 -35 164 -14 44 -31 103 -38 130 l-14 50 -53 0 -53 0 -14 -68 -14 -67 27 -24 c25 -21 26 -24 12 -44 -8 -12 -27 -31 -42 -43 l-28 -22 -44 44 -45 44 26 20 c25 21 25 21 10 70 -8 28 -15 60 -15 73 0 19 -5 22 -44 22 -25 0 -47 -4 -50 -9z"/>
 <path d="M1227 1893 c25 -76 37 -133 40 -194 l5 -86 23 21 c12 12 48 41 80 64 l57 44 -37 38 -38 38 42 13 c48 14 49 20 18 104 l-22 60 -101 3 -102 3 35 -108z"/>
 <path d="M1420 1998 c0 -2 9 -27 20 -56 29 -76 27 -97 -12 -113 -46 -18 -46 -16 -8 -48 l34 -28 -25 -24 c-13 -13 -42 -39 -64 -57 l-40 -32 55 21 c74 29 277 89 301 89 30 0 97 37 113 63 20 30 42 92 51 145 l7 42 -81 0 -81 0 6 -27 c9 -37 37 -100 65 -143 22 -34 22 -34 2 -17 -24 21 -67 106 -77 155 l-8 32 -129 0 c-71 0 -129 -1 -129 -2z"/>
 </g>
<g id="layer106" fill="#951808" stroke="none">
 <path d="M155 1958 c9 -53 31 -115 51 -145 16 -26 83 -63 113 -63 25 0 230 -61 301 -89 l55 -22 -40 33 c-22 18 -51 44 -64 57 l-25 24 34 28 c38 32 38 30 -7 48 -40 16 -42 37 -13 113 11 29 20 54 20 56 0 1 -58 2 -129 2 l-129 0 -7 -32 c-10 -45 -59 -141 -81 -159 -14 -11 -13 -6 5 21 28 43 56 106 65 143 l6 27 -81 0 -81 0 7 -42z"/>
 <path d="M582 1932 c-12 -38 -22 -73 -22 -79 0 -5 19 -15 41 -22 l42 -13 -38 -38 -37 -38 53 -41 c30 -23 66 -52 80 -65 l27 -25 5 87 c3 62 15 118 40 195 l35 107 -102 0 -102 0 -22 -68z"/>
 <path d="M836 1991 c-3 -5 -13 -39 -22 -77 -8 -37 -22 -83 -29 -101 -8 -19 -21 -80 -30 -137 -14 -94 -14 -107 1 -141 l16 -38 -45 -43 c-24 -23 -58 -49 -74 -58 -23 -11 -32 -24 -36 -51 -3 -20 -16 -62 -28 -93 -17 -43 -30 -61 -53 -72 -25 -12 -35 -27 -52 -80 -12 -36 -34 -85 -49 -108 -18 -28 -30 -61 -33 -94 -4 -47 -3 -53 23 -74 26 -21 27 -23 16 -73 -15 -73 -14 -199 4 -256 21 -71 80 -151 134 -182 25 -15 70 -53 99 -84 32 -35 75 -69 110 -86 51 -25 67 -28 157 -28 79 1 119 6 194 28 224 67 342 165 387 322 13 47 16 87 12 200 l-5 142 28 10 c51 20 49 108 -5 188 -14 20 -30 53 -36 73 -23 74 -32 90 -59 101 -28 12 -66 93 -78 166 -4 27 -13 40 -37 52 -17 9 -40 25 -51 37 -11 12 -32 31 -48 43 l-27 21 20 34 c18 31 19 42 10 119 -6 46 -21 120 -35 164 -14 44 -31 103 -38 130 l-14 50 -51 3 -50 3 -11 -51 c-16 -72 -14 -91 10 -116 19 -20 20 -25 7 -43 -8 -11 -26 -30 -41 -41 l-27 -21 -26 20 c-14 11 -34 31 -45 45 l-19 24 24 20 c24 19 25 20 10 67 -7 27 -14 59 -14 72 0 21 -5 23 -44 23 -25 0 -47 -4 -50 -9z m-36 -1102 c0 -5 -7 -9 -15 -9 -8 0 -15 7 -15 15 0 9 6 12 15 9 8 -4 15 -10 15 -15z m432 -1 c-9 -9 -15 -9 -24 0 -9 9 -7 12 12 12 19 0 21 -3 12 -12z"/>
 <path d="M1227 1893 c25 -76 37 -133 40 -194 l5 -86 23 21 c12 12 48 41 80 64 l57 44 -37 38 -38 38 42 13 c48 14 49 20 18 104 l-22 60 -101 3 -102 3 35 -108z"/>
 <path d="M1420 1998 c0 -2 9 -27 20 -56 29 -76 27 -97 -12 -113 -46 -18 -46 -16 -8 -48 l34 -28 -25 -24 c-13 -13 -42 -39 -64 -57 l-40 -32 55 21 c74 29 277 89 301 89 30 0 97 37 113 63 20 30 42 92 51 145 l7 42 -81 0 -81 0 6 -27 c9 -37 37 -100 65 -143 22 -34 22 -34 2 -17 -24 21 -67 106 -77 155 l-8 32 -129 0 c-71 0 -129 -1 -129 -2z"/>
 </g>
<g id="layer107" fill="#653220" stroke="none">
 <path d="M155 1958 c9 -53 31 -115 51 -145 16 -26 83 -63 113 -63 25 0 230 -61 301 -89 l55 -22 -40 33 c-22 18 -51 44 -64 57 l-25 24 34 28 c38 32 38 30 -7 48 -40 16 -42 37 -13 113 11 29 20 54 20 56 0 1 -58 2 -129 2 l-129 0 -7 -32 c-10 -45 -59 -141 -81 -159 -14 -11 -13 -6 5 21 28 43 56 106 65 143 l6 27 -81 0 -81 0 7 -42z"/>
 <path d="M582 1932 c-12 -38 -22 -73 -22 -79 0 -5 19 -15 41 -22 l42 -13 -38 -38 -37 -38 53 -41 c30 -23 66 -52 80 -65 l27 -25 5 87 c3 62 15 118 40 195 l35 107 -102 0 -102 0 -22 -68z"/>
 <path d="M836 1991 c-3 -5 -13 -39 -22 -77 -8 -37 -22 -83 -29 -101 -8 -19 -21 -80 -30 -137 -14 -94 -14 -107 1 -142 l16 -39 -34 -30 c-59 -53 -95 -108 -126 -195 -23 -65 -34 -84 -47 -82 -33 6 -63 -26 -80 -85 -9 -32 -31 -80 -48 -107 -21 -34 -32 -64 -35 -102 -4 -51 -3 -54 26 -71 l30 -17 -5 -131 c-5 -117 -3 -136 17 -188 24 -63 70 -129 111 -160 24 -17 29 -18 55 -4 16 8 40 27 53 41 l24 26 -27 0 c-82 0 -130 56 -151 178 -15 83 -18 271 -5 312 7 21 8 22 9 5 5 -83 24 -219 37 -265 23 -80 58 -125 121 -156 50 -25 60 -26 138 -20 64 4 107 1 185 -14 121 -24 132 -24 196 -5 125 37 219 207 250 449 l6 50 21 -55 c25 -61 52 -74 86 -40 34 34 24 107 -26 180 -13 19 -30 58 -39 88 -18 61 -35 82 -74 89 -23 5 -30 15 -49 74 -20 63 -93 190 -109 190 -4 0 -19 12 -34 25 l-28 24 20 34 c18 30 19 41 10 118 -6 46 -21 120 -35 164 -14 44 -31 103 -38 130 l-14 50 -51 3 -50 3 -11 -51 c-16 -72 -14 -91 10 -116 19 -20 20 -25 7 -43 -8 -11 -26 -30 -41 -41 l-27 -21 -26 20 c-14 11 -34 31 -45 45 l-19 24 24 20 c24 19 25 20 10 67 -7 27 -14 59 -14 72 0 21 -5 23 -44 23 -25 0 -47 -4 -50 -9z m-36 -1102 c0 -5 -7 -9 -15 -9 -8 0 -15 7 -15 15 0 9 6 12 15 9 8 -4 15 -10 15 -15z m432 -1 c-9 -9 -15 -9 -24 0 -9 9 -7 12 12 12 19 0 21 -3 12 -12z"/>
 <path d="M1227 1893 c25 -76 37 -133 40 -194 l5 -86 23 21 c12 12 48 41 80 64 l57 44 -37 38 -38 38 42 13 c48 14 49 20 18 104 l-22 60 -101 3 -102 3 35 -108z"/>
 <path d="M1420 1998 c0 -2 9 -27 20 -56 29 -76 27 -97 -12 -113 -46 -18 -46 -16 -8 -48 l34 -28 -25 -24 c-13 -13 -42 -39 -64 -57 l-40 -32 55 21 c74 29 277 89 301 89 30 0 97 37 113 63 20 30 42 92 51 145 l7 42 -81 0 -81 0 6 -27 c9 -37 37 -100 65 -143 22 -34 22 -34 2 -17 -24 21 -67 106 -77 155 l-8 32 -129 0 c-71 0 -129 -1 -129 -2z"/>
 <path d="M1519 705 c-4 -5 -19 -41 -34 -80 -60 -152 -124 -228 -226 -266 -57 -22 -159 -26 -248 -11 -94 16 -156 -17 -163 -88 l-4 -35 -17 37 c-24 53 -21 91 9 127 14 17 22 31 17 31 -13 0 -53 -44 -53 -57 0 -5 -7 -25 -16 -42 -11 -22 -15 -48 -11 -78 l5 -46 -20 32 c-41 64 -41 157 0 180 9 6 12 11 6 11 -13 0 -68 -57 -83 -87 -29 -57 13 -124 107 -170 51 -25 67 -28 152 -27 166 3 369 77 463 170 60 60 104 149 117 240 11 73 10 177 -1 159z"/>
 </g>
<g id="layer108" fill="#a42a19" stroke="none">
 <path d="M835 1988 c-2 -7 -11 -40 -19 -74 -9 -33 -23 -80 -31 -105 -9 -24 -23 -87 -31 -140 -13 -87 -12 -100 2 -135 l16 -39 -34 -30 c-59 -53 -95 -108 -126 -195 -23 -65 -34 -84 -47 -82 -33 6 -63 -26 -80 -85 -9 -32 -31 -80 -48 -107 -21 -34 -32 -64 -35 -102 -4 -51 -3 -54 26 -71 l30 -17 -5 -131 c-5 -117 -3 -136 17 -188 24 -63 70 -129 111 -160 24 -17 29 -18 55 -4 16 8 40 27 53 41 l24 26 -27 0 c-82 0 -130 56 -151 178 -15 83 -18 271 -5 312 7 21 8 22 9 5 5 -83 24 -219 37 -265 23 -80 58 -125 121 -156 50 -25 60 -26 138 -20 64 4 107 1 185 -14 121 -24 132 -24 196 -5 125 37 219 207 250 449 l6 50 21 -55 c25 -61 52 -74 86 -40 34 34 24 107 -26 180 -13 19 -30 58 -39 88 -18 61 -35 82 -74 89 -23 5 -30 15 -49 74 -20 63 -93 190 -109 190 -4 0 -19 12 -34 25 l-28 24 20 34 c20 33 20 38 5 135 -8 55 -20 113 -26 128 -6 16 -21 67 -33 114 l-23 85 -51 3 -50 3 -11 -51 c-16 -72 -14 -91 10 -116 19 -20 20 -25 7 -43 -8 -11 -26 -30 -41 -41 l-27 -21 -26 20 c-14 11 -34 31 -45 45 l-19 24 24 20 c24 19 25 20 10 67 -7 27 -14 59 -14 72 0 21 -4 23 -45 23 -28 0 -47 -5 -50 -12z m-35 -1099 c0 -5 -7 -9 -15 -9 -8 0 -15 7 -15 15 0 9 6 12 15 9 8 -4 15 -10 15 -15z m432 -1 c-9 -9 -15 -9 -24 0 -9 9 -7 12 12 12 19 0 21 -3 12 -12z"/>
 <path d="M1519 705 c-4 -5 -19 -41 -34 -80 -60 -152 -124 -228 -226 -266 -57 -22 -159 -26 -248 -11 -94 16 -156 -17 -163 -88 l-4 -35 -17 37 c-24 53 -21 91 9 127 14 17 22 31 17 31 -13 0 -53 -44 -53 -57 0 -5 -7 -25 -16 -42 -11 -22 -15 -48 -11 -78 l5 -46 -20 32 c-41 64 -41 157 0 180 9 6 12 11 6 11 -13 0 -68 -57 -83 -87 -29 -57 13 -124 107 -170 51 -25 67 -28 152 -27 166 3 369 77 463 170 60 60 104 149 117 240 11 73 10 177 -1 159z"/>
 </g>
<g id="layer109" fill="#b13928" stroke="none">
 <path d="M835 1988 c-2 -7 -11 -40 -19 -74 -9 -33 -23 -80 -31 -105 -9 -24 -23 -87 -31 -140 -13 -87 -12 -100 2 -135 l16 -39 -34 -30 c-54 -47 -103 -126 -129 -209 -20 -63 -27 -74 -42 -70 -33 10 -64 -22 -82 -83 -9 -32 -31 -80 -48 -107 -21 -33 -32 -65 -35 -101 -4 -49 -2 -54 22 -70 26 -17 28 -17 54 6 l27 24 -24 -27 c-23 -26 -24 -35 -25 -166 l-1 -138 38 -77 c60 -122 112 -150 180 -96 34 26 34 39 0 39 -44 0 -92 36 -114 84 -29 66 -39 134 -41 277 -1 82 -5 125 -11 117 -6 -9 -7 -8 -3 5 3 10 6 21 6 23 0 3 4 3 9 0 5 -4 7 4 4 16 -4 17 -3 20 5 13 7 -6 16 -64 22 -130 17 -195 51 -279 133 -326 38 -22 52 -24 147 -22 65 1 134 -4 180 -14 106 -22 187 -20 235 5 114 59 182 196 221 447 l6 40 22 -55 c25 -62 51 -75 85 -41 34 34 24 107 -26 180 -13 19 -30 57 -38 85 -9 28 -19 56 -23 62 -11 17 -49 34 -64 29 -9 -3 -20 18 -36 68 -32 101 -103 203 -170 243 -2 1 6 17 18 36 20 34 20 38 5 136 -8 55 -20 113 -26 128 -6 16 -21 67 -33 114 l-23 85 -51 3 -50 3 -11 -51 c-16 -72 -14 -91 10 -116 19 -20 20 -25 7 -43 -8 -11 -26 -30 -41 -41 l-27 -21 -26 20 c-14 11 -34 31 -45 45 l-19 24 24 20 c24 19 25 20 10 67 -7 27 -14 59 -14 72 0 21 -4 23 -45 23 -28 0 -47 -5 -50 -12z m-35 -1099 c0 -5 -7 -9 -15 -9 -8 0 -15 7 -15 15 0 9 6 12 15 9 8 -4 15 -10 15 -15z m432 -1 c-9 -9 -15 -9 -24 0 -9 9 -7 12 12 12 19 0 21 -3 12 -12z m-716 -393 c9 -27 25 -63 36 -80 19 -30 19 -30 -10 3 -32 36 -53 93 -51 138 1 20 3 23 6 9 2 -11 11 -42 19 -70z"/>
 <path d="M1496 645 c-38 -101 -89 -186 -139 -230 -66 -60 -158 -89 -252 -81 -36 3 -93 9 -128 12 -60 5 -65 4 -96 -25 -28 -26 -33 -37 -29 -66 2 -19 1 -35 -3 -35 -13 0 -49 52 -49 71 0 10 -4 21 -10 24 -6 4 -10 -19 -10 -61 l0 -68 -25 34 c-33 44 -48 95 -41 133 l6 32 -25 -40 c-14 -22 -25 -48 -25 -58 0 -29 77 -103 131 -127 110 -47 315 -17 492 72 153 76 231 211 225 385 l-3 78 -19 -50z m-82 -256 c-25 -28 -94 -79 -107 -79 -6 0 9 13 34 28 24 16 53 39 63 50 11 12 21 22 24 22 3 0 -3 -10 -14 -21z"/>
 </g>
<g id="layer110" fill="#b94232" stroke="none">
 <path d="M835 1988 c-2 -7 -11 -40 -19 -74 -9 -33 -23 -80 -31 -105 -9 -24 -23 -87 -31 -140 -13 -87 -12 -100 2 -135 l16 -38 -33 -30 c-52 -46 -96 -118 -126 -205 -23 -67 -31 -80 -46 -75 -33 10 -64 -22 -82 -83 -9 -32 -31 -80 -48 -107 -42 -66 -50 -146 -17 -169 33 -23 57 -6 88 61 l27 57 6 -60 c4 -33 12 -105 18 -159 12 -107 37 -175 79 -219 50 -53 77 -61 197 -59 67 1 134 -4 173 -13 87 -21 187 -19 237 4 100 45 191 212 210 386 12 114 15 117 39 50 24 -68 50 -81 85 -46 34 34 24 107 -26 180 -13 19 -30 57 -38 85 -9 28 -19 56 -23 62 -11 18 -49 34 -64 29 -10 -4 -20 11 -32 52 -37 119 -103 216 -174 259 -2 1 6 17 18 36 20 34 20 38 5 136 -8 55 -20 113 -26 128 -6 16 -21 67 -33 114 l-23 85 -51 3 -50 3 -11 -51 c-16 -72 -14 -91 10 -116 19 -20 20 -25 7 -43 -8 -11 -26 -30 -41 -41 l-27 -21 -26 20 c-14 11 -34 31 -45 45 l-19 24 24 20 c24 19 25 20 10 67 -7 27 -14 59 -14 72 0 21 -4 23 -45 23 -28 0 -47 -5 -50 -12z m-35 -1099 c0 -5 -7 -9 -15 -9 -8 0 -15 7 -15 15 0 9 6 12 15 9 8 -4 15 -10 15 -15z m432 -1 c-9 -9 -15 -9 -24 0 -9 9 -7 12 12 12 19 0 21 -3 12 -12z"/>
 <path d="M492 841 c-12 -16 -24 -49 -27 -73 -5 -41 -4 -41 5 -10 13 40 24 42 15 2 -9 -41 22 -234 47 -292 22 -52 49 -80 93 -97 l30 -11 -33 5 c-86 13 -132 89 -142 235 -7 92 -7 93 -10 30 l-3 -65 -7 65 -7 65 -1 -60 c-3 -108 38 -213 111 -283 40 -39 69 -37 111 7 l27 28 -32 1 c-35 1 -72 24 -101 63 -31 43 -49 142 -51 285 -1 74 -2 134 -3 134 0 0 -10 -13 -22 -29z"/>
 <path d="M1497 635 c-74 -165 -131 -236 -220 -276 -43 -20 -68 -23 -152 -23 -55 0 -121 4 -146 8 -78 14 -138 -32 -125 -95 3 -16 2 -29 -3 -29 -12 0 -44 38 -58 68 -11 24 -12 21 -10 -36 1 -34 -1 -62 -5 -62 -21 0 -61 75 -66 121 -4 43 -6 47 -17 32 -7 -10 -15 -31 -19 -47 -6 -25 -1 -34 42 -76 30 -28 68 -54 97 -64 150 -51 458 30 585 154 80 78 125 197 118 312 l-4 53 -17 -40z m-35 -178 c-10 -23 -33 -59 -51 -79 -38 -44 -123 -88 -165 -87 -30 0 -30 1 9 13 93 29 156 83 195 167 29 61 40 49 12 -14z m-167 -117 c-7 -12 -72 -30 -105 -29 -14 0 4 8 40 18 36 10 66 19 68 20 2 0 1 -3 -3 -9z m-165 -40 c20 -8 15 -9 -27 -4 -99 11 -161 7 -190 -11 -27 -18 -27 -18 -13 -1 8 10 23 22 35 27 25 11 162 4 195 -11z m-56 -40 c-49 -3 -96 -10 -102 -14 -7 -4 -12 -5 -12 -1 0 14 51 24 125 23 l80 -1 -91 -7z"/>
 </g>
<g id="layer111" fill="#ad6e27" stroke="none">
 <path d="M835 1988 c-2 -7 -11 -40 -19 -74 -9 -33 -23 -80 -31 -105 -9 -24 -23 -87 -31 -140 -13 -87 -12 -100 2 -135 l16 -38 -33 -30 c-58 -51 -104 -130 -135 -229 -15 -48 -21 -56 -36 -51 -34 10 -65 -21 -83 -83 -9 -32 -31 -80 -48 -107 -42 -66 -50 -146 -17 -169 33 -23 57 -6 86 60 14 31 27 54 29 52 2 -2 9 -60 15 -129 17 -189 38 -257 97 -312 44 -42 79 -51 191 -50 58 1 134 -5 173 -13 96 -20 185 -19 234 4 103 46 193 218 211 399 9 91 18 104 34 48 17 -60 42 -83 75 -68 47 22 43 110 -10 188 -14 21 -32 60 -40 88 -9 28 -19 56 -23 62 -12 18 -49 34 -65 28 -11 -4 -20 12 -36 63 -31 102 -104 210 -169 249 -2 1 6 17 18 36 20 34 20 38 5 136 -8 55 -20 113 -26 128 -6 16 -21 67 -33 114 l-23 85 -51 3 -50 3 -11 -51 c-16 -72 -14 -91 10 -116 19 -20 20 -25 7 -43 -8 -11 -26 -30 -41 -41 l-27 -21 -26 20 c-14 11 -34 31 -45 45 l-19 24 24 20 c24 19 25 20 10 67 -7 27 -14 59 -14 72 0 21 -4 23 -45 23 -28 0 -47 -5 -50 -12z m-35 -1099 c0 -5 -7 -9 -15 -9 -8 0 -15 7 -15 15 0 9 6 12 15 9 8 -4 15 -10 15 -15z m432 -1 c-9 -9 -15 -9 -24 0 -9 9 -7 12 12 12 19 0 21 -3 12 -12z m-308 -87 c3 -4 -4 -17 -15 -27 -27 -25 -140 -32 -189 -12 l-35 15 60 -4 c41 -2 76 3 110 16 62 23 63 23 69 12z m336 -28 c52 4 53 3 25 -9 -73 -32 -247 0 -210 38 3 3 34 -3 68 -14 42 -13 80 -18 117 -15z"/>
 <path d="M515 591 c5 -83 34 -155 75 -180 l25 -15 -26 25 c-33 32 -57 95 -69 179 l-9 65 4 -74z"/>
 <path d="M1460 550 c-7 -17 -26 -50 -43 -73 -18 -25 -22 -35 -10 -24 23 20 77 116 70 123 -2 3 -10 -9 -17 -26z"/>
 <path d="M1462 426 c-6 -13 -25 -41 -43 -62 -28 -33 -29 -35 -6 -14 31 27 72 88 65 96 -3 2 -10 -7 -16 -20z"/>
 <path d="M1140 194 l-45 -14 40 6 c22 3 47 10 55 15 21 12 3 10 -50 -7z"/>
 </g>
<g id="layer112" fill="#c7623d" stroke="none">
 <path d="M835 1988 c-2 -7 -11 -40 -19 -74 -9 -33 -23 -80 -31 -105 -9 -24 -23 -87 -31 -140 -13 -87 -12 -100 2 -135 l16 -38 -33 -30 c-58 -51 -104 -130 -135 -229 -15 -48 -21 -56 -36 -51 -34 10 -65 -21 -83 -83 -9 -32 -31 -80 -48 -107 -42 -66 -50 -146 -17 -169 33 -23 57 -6 86 60 14 31 27 54 29 51 3 -2 9 -58 15 -124 16 -188 38 -260 97 -316 44 -42 79 -51 191 -50 58 1 134 -5 173 -13 96 -20 185 -19 234 4 103 46 193 218 211 399 9 91 18 104 34 48 17 -60 42 -83 75 -68 47 22 43 110 -10 188 -14 21 -32 60 -40 88 -9 28 -19 56 -23 62 -12 18 -49 34 -65 28 -11 -4 -20 12 -36 63 -31 102 -104 210 -169 249 -2 1 6 17 18 36 20 34 20 38 5 136 -8 55 -20 113 -26 128 -6 16 -21 67 -33 114 l-23 85 -51 3 -50 3 -11 -51 c-16 -72 -14 -91 10 -116 19 -20 20 -25 7 -43 -8 -11 -26 -30 -41 -41 l-27 -21 -26 20 c-14 11 -34 31 -45 45 l-19 24 24 20 c24 19 25 20 10 67 -7 27 -14 59 -14 72 0 21 -4 23 -45 23 -28 0 -47 -5 -50 -12z m-35 -1099 c0 -5 -7 -9 -15 -9 -8 0 -15 7 -15 15 0 9 6 12 15 9 8 -4 15 -10 15 -15z m432 -1 c-9 -9 -15 -9 -24 0 -9 9 -7 12 12 12 19 0 21 -3 12 -12z m-308 -87 c3 -4 -4 -17 -15 -27 -28 -25 -141 -32 -189 -11 l-35 15 75 2 c41 1 91 8 110 15 43 17 47 17 54 6z m333 -19 l76 4 -39 -18 c-50 -22 -145 -23 -190 -2 -33 16 -40 25 -29 36 3 3 29 -1 56 -9 33 -10 78 -14 126 -11z"/>
 <path d="M515 591 c5 -83 34 -155 75 -180 l25 -15 -26 25 c-33 32 -57 95 -69 179 l-9 65 4 -74z"/>
 <path d="M1460 550 c-7 -17 -26 -50 -43 -73 -18 -25 -22 -35 -10 -24 23 20 77 116 70 123 -2 3 -10 -9 -17 -26z"/>
 <path d="M1462 426 c-6 -13 -25 -41 -43 -62 -28 -33 -29 -35 -6 -14 31 27 72 88 65 96 -3 2 -10 -7 -16 -20z"/>
 <path d="M1140 194 l-45 -14 40 6 c22 3 47 10 55 15 21 12 3 10 -50 -7z"/>
 </g>
<g id="layer113" fill="#c75b4a" stroke="none">
 <path d="M835 1988 c-2 -7 -11 -40 -19 -74 -9 -33 -23 -80 -31 -105 -9 -24 -23 -87 -31 -140 -12 -86 -12 -101 1 -133 9 -20 20 -34 25 -31 6 3 10 -1 10 -9 0 -9 -4 -16 -8 -16 -10 0 -79 -67 -110 -108 -14 -18 -40 -77 -58 -130 -18 -53 -33 -91 -33 -84 -1 6 -12 12 -25 12 -28 0 -56 -33 -56 -65 0 -11 -10 -40 -22 -65 -24 -50 -24 -51 -27 -132 0 -32 -6 -58 -11 -58 -20 0 -22 30 -7 77 9 26 14 49 12 51 -7 7 -24 -36 -31 -76 -5 -33 -2 -44 16 -62 11 -11 27 -20 33 -18 19 6 62 99 49 107 -19 12 -32 59 -22 83 8 22 9 21 9 -6 1 -17 10 -39 21 -51 16 -17 22 -44 30 -140 16 -189 38 -261 97 -317 44 -42 79 -51 191 -50 58 1 134 -5 173 -13 96 -20 185 -19 234 4 106 48 189 211 215 420 5 46 15 90 21 97 6 7 14 25 19 41 8 27 8 27 9 -9 1 -20 -6 -43 -14 -51 -11 -12 -12 -23 -4 -53 12 -45 32 -64 60 -57 32 9 41 36 29 90 -12 53 -27 76 -43 66 -6 -3 -7 -1 -3 6 4 6 3 17 -2 24 -6 7 -20 42 -32 80 -18 55 -26 68 -47 73 -15 4 -28 2 -32 -5 -4 -6 -18 22 -30 62 -40 124 -88 198 -157 243 -26 17 -35 68 -11 58 8 -3 18 6 25 21 9 20 9 47 -3 124 -8 55 -20 112 -26 127 -6 16 -21 67 -33 114 l-23 85 -51 3 -50 3 -11 -51 c-16 -72 -14 -91 10 -116 19 -20 20 -25 7 -43 -8 -11 -26 -30 -41 -41 l-27 -21 -26 20 c-14 11 -34 31 -45 45 l-19 24 24 20 c24 19 25 20 10 67 -7 27 -14 59 -14 72 0 21 -4 23 -45 23 -28 0 -47 -5 -50 -12z m733 -1071 c11 -39 7 -67 -9 -67 -5 0 -9 20 -9 44 0 24 -3 53 -6 63 -5 12 -4 15 4 8 5 -5 15 -27 20 -48z m-768 -28 c0 -5 -7 -9 -15 -9 -8 0 -15 7 -15 15 0 9 6 12 15 9 8 -4 15 -10 15 -15z m432 -1 c-9 -9 -15 -9 -24 0 -9 9 -7 12 12 12 19 0 21 -3 12 -12z m-308 -87 c3 -4 -4 -17 -15 -27 -28 -25 -141 -32 -189 -11 l-35 15 75 2 c41 1 91 8 110 15 43 17 47 17 54 6z m201 -6 c47 -17 162 -19 202 -4 15 5 24 6 18 1 -23 -21 -99 -42 -151 -42 -52 0 -124 23 -124 39 0 6 11 21 14 21 1 0 19 -7 41 -15z"/>
 <path d="M515 591 c5 -83 34 -155 75 -180 l25 -15 -26 25 c-33 32 -57 95 -69 179 l-9 65 4 -74z"/>
 <path d="M1460 550 c-7 -17 -26 -50 -43 -73 -18 -25 -22 -35 -10 -24 23 20 77 116 70 123 -2 3 -10 -9 -17 -26z"/>
 <path d="M1462 426 c-6 -13 -25 -41 -43 -62 -28 -33 -29 -35 -6 -14 31 27 72 88 65 96 -3 2 -10 -7 -16 -20z"/>
 <path d="M1140 194 l-45 -14 40 6 c22 3 47 10 55 15 21 12 3 10 -50 -7z"/>
 </g>
<g id="layer114" fill="#807e88" stroke="none">
 <path d="M835 1988 c-2 -7 -11 -40 -19 -74 -9 -33 -23 -80 -31 -105 -9 -24 -23 -87 -31 -140 -12 -86 -12 -101 1 -133 9 -20 20 -34 25 -31 6 3 10 -1 10 -9 0 -9 -4 -16 -8 -16 -10 0 -79 -67 -110 -108 -14 -18 -40 -77 -58 -130 -18 -53 -33 -91 -33 -84 -1 6 -12 12 -25 12 -28 0 -56 -33 -56 -65 0 -11 -10 -40 -22 -65 -24 -50 -24 -51 -27 -132 0 -32 -6 -58 -11 -58 -20 0 -22 30 -7 77 9 26 14 49 12 51 -7 7 -24 -36 -31 -76 -5 -33 -2 -44 15 -61 17 -17 26 -19 40 -12 23 13 56 92 42 100 -18 12 -31 60 -21 83 8 21 9 21 9 -8 1 -17 10 -39 20 -48 14 -13 21 -37 26 -84 22 -243 43 -321 102 -372 52 -46 77 -53 192 -51 58 0 134 -6 175 -14 192 -40 294 3 372 156 31 62 74 225 74 283 0 22 7 55 16 71 9 17 20 41 24 55 7 22 8 21 9 -12 1 -20 -6 -43 -14 -51 -11 -11 -12 -22 -4 -50 12 -46 33 -67 59 -60 33 9 42 36 30 90 -12 53 -27 76 -43 66 -6 -3 -7 -1 -3 6 4 6 3 17 -2 24 -6 7 -20 42 -32 80 -18 55 -26 68 -47 73 -15 4 -28 2 -32 -5 -4 -6 -18 22 -30 62 -40 124 -88 198 -157 243 -26 17 -35 68 -11 58 8 -3 18 6 25 21 9 20 9 47 -3 124 -8 55 -20 112 -26 127 -6 16 -21 67 -33 114 l-23 85 -51 3 -50 3 -11 -51 c-16 -72 -14 -91 10 -116 19 -20 20 -25 7 -43 -8 -11 -26 -30 -41 -41 l-27 -21 -26 20 c-14 11 -34 31 -45 45 l-19 24 24 20 c24 19 25 20 10 67 -7 27 -14 59 -14 72 0 21 -4 23 -45 23 -28 0 -47 -5 -50 -12z m733 -1071 c11 -39 7 -67 -9 -67 -5 0 -9 20 -9 44 0 24 -3 53 -6 63 -5 12 -4 15 4 8 5 -5 15 -27 20 -48z m-768 -28 c0 -5 -7 -9 -15 -9 -8 0 -15 7 -15 15 0 9 6 12 15 9 8 -4 15 -10 15 -15z m432 -1 c-9 -9 -15 -9 -24 0 -9 9 -7 12 12 12 19 0 21 -3 12 -12z m-302 -93 c0 -19 -43 -40 -97 -49 -43 -6 -166 24 -179 45 -4 8 0 8 14 0 28 -15 159 -12 202 4 46 18 60 18 60 0z m195 0 c46 -16 162 -20 200 -5 16 6 24 6 20 0 -12 -20 -136 -50 -178 -44 -54 9 -97 30 -97 49 0 18 5 18 55 0z"/>
 </g>
<g id="layer115" fill="#9fcc1c" stroke="none">
 <path d="M836 1988 c-26 -79 -78 -288 -86 -345 -8 -58 -7 -78 5 -108 9 -19 20 -33 25 -30 6 3 10 -1 10 -9 0 -9 -4 -16 -8 -16 -10 0 -79 -67 -110 -108 -14 -18 -40 -77 -58 -130 -18 -53 -33 -91 -33 -84 -1 6 -12 12 -25 12 -28 0 -56 -33 -56 -65 0 -11 -10 -40 -22 -65 -24 -50 -24 -51 -27 -132 0 -32 -6 -58 -11 -58 -20 0 -22 30 -7 77 9 26 14 49 12 51 -7 7 -24 -36 -31 -76 -5 -33 -2 -44 15 -61 17 -17 26 -19 40 -12 23 13 56 92 42 100 -18 12 -31 60 -21 83 8 21 9 21 9 -8 1 -17 10 -39 20 -48 14 -13 21 -37 26 -84 22 -243 43 -321 102 -372 52 -46 77 -53 192 -51 58 0 134 -6 175 -14 192 -40 294 3 372 156 31 62 74 225 74 283 0 22 7 55 16 71 9 17 20 41 24 55 7 22 8 21 9 -12 1 -20 -6 -43 -14 -51 -11 -11 -12 -22 -4 -50 12 -46 33 -67 59 -60 33 9 42 36 30 90 -12 53 -27 76 -43 66 -6 -3 -7 -1 -3 6 4 6 3 17 -2 24 -6 7 -20 42 -32 80 -18 55 -26 68 -47 73 -15 4 -28 2 -32 -5 -4 -6 -18 22 -30 62 -40 124 -88 198 -157 243 -26 17 -35 68 -11 58 8 -3 18 6 25 21 9 20 9 47 -3 124 -8 55 -20 112 -26 127 -6 16 -21 67 -33 114 l-23 85 -50 3 c-57 3 -56 5 -69 -95 -6 -45 -4 -52 15 -62 11 -7 21 -20 21 -31 0 -18 -68 -80 -88 -80 -5 0 -26 19 -47 41 l-37 41 24 25 24 24 -17 67 -17 67 -41 3 c-27 2 -43 -1 -45 -10z m732 -1071 c11 -39 7 -67 -9 -67 -5 0 -9 20 -9 44 0 24 -3 53 -6 63 -5 12 -4 15 4 8 5 -5 15 -27 20 -48z m-769 -33 c-13 -16 -29 -10 -29 11 0 8 7 11 20 8 16 -4 18 -8 9 -19z m425 20 c13 -5 14 -9 5 -20 -13 -16 -29 -9 -29 12 0 16 2 16 24 8z m-77 -42 c27 -15 137 -16 166 -1 21 10 21 10 3 -5 -29 -23 -81 -30 -134 -16 -48 12 -82 34 -82 54 0 6 6 4 13 -5 7 -9 22 -21 34 -27z m-379 -13 c55 0 63 -2 42 -10 -48 -20 -150 9 -150 43 0 4 9 -1 20 -12 16 -16 34 -20 88 -21z m162 -54 c0 -19 -43 -40 -97 -49 -43 -6 -166 24 -179 45 -4 8 0 8 14 0 28 -15 159 -12 202 4 46 18 60 18 60 0z m195 0 c46 -16 162 -20 200 -5 16 6 24 6 20 0 -12 -20 -136 -50 -178 -44 -54 9 -97 30 -97 49 0 18 5 18 55 0z"/>
 </g>
<g id="layer116" fill="#d07250" stroke="none">
 <path d="M836 1988 c-26 -79 -78 -288 -86 -345 -8 -58 -7 -78 5 -108 9 -19 20 -33 25 -30 6 3 10 -1 10 -9 0 -9 -4 -16 -8 -16 -10 0 -79 -67 -110 -108 -14 -18 -40 -77 -58 -130 -18 -53 -33 -91 -33 -84 -1 6 -12 12 -25 12 -28 0 -56 -33 -56 -65 0 -11 -10 -40 -22 -65 -24 -50 -24 -51 -27 -132 0 -32 -6 -58 -11 -58 -20 0 -22 30 -7 77 9 26 14 49 12 51 -7 7 -24 -36 -31 -76 -5 -33 -2 -44 15 -61 17 -17 26 -19 40 -12 23 13 56 92 42 100 -18 12 -31 60 -21 83 8 21 9 21 9 -8 1 -18 10 -39 21 -49 11 -10 20 -27 20 -37 0 -30 32 -18 41 16 23 85 161 134 262 92 40 -16 95 -77 103 -114 11 -50 13 -52 54 -52 41 0 43 2 54 52 8 37 63 98 103 114 101 42 239 -7 262 -92 11 -41 36 -42 52 -2 7 18 19 47 26 63 l12 30 0 -37 c1 -20 -6 -43 -14 -51 -11 -11 -12 -22 -4 -50 12 -46 33 -67 59 -60 33 9 42 36 30 90 -12 53 -27 76 -43 66 -6 -3 -7 -1 -3 6 4 6 3 17 -2 24 -6 7 -20 42 -32 80 -18 55 -26 68 -47 73 -15 4 -28 2 -32 -5 -4 -6 -18 22 -30 62 -40 124 -88 198 -157 243 -26 17 -35 68 -11 58 8 -3 18 6 25 21 9 20 9 47 -3 124 -8 55 -20 112 -26 127 -6 16 -21 67 -33 114 l-23 85 -50 3 c-57 3 -56 5 -69 -95 -6 -45 -4 -52 15 -62 11 -7 21 -20 21 -31 0 -18 -68 -80 -88 -80 -5 0 -26 19 -47 41 l-37 41 24 25 24 24 -17 67 -17 67 -41 3 c-27 2 -43 -1 -45 -10z m732 -1071 c11 -39 7 -67 -9 -67 -5 0 -9 20 -9 44 0 24 -3 53 -6 63 -5 12 -4 15 4 8 5 -5 15 -27 20 -48z"/>
 <path d="M658 1010 c-49 -27 -68 -56 -68 -106 0 -81 71 -120 198 -110 100 8 112 9 107 14 -2 3 7 13 20 24 46 36 27 113 -42 165 -49 37 -158 44 -215 13z m141 -126 c-13 -16 -29 -10 -29 11 0 8 7 11 20 8 16 -4 18 -8 9 -19z m-31 -35 c55 0 63 -2 42 -10 -48 -20 -150 9 -150 43 0 4 9 -1 20 -12 16 -16 34 -20 88 -21z"/>
 <path d="M1155 1016 c-36 -16 -82 -67 -91 -102 -10 -38 4 -73 36 -93 17 -10 28 -20 26 -22 -3 -2 35 -6 83 -7 135 -5 201 32 201 113 0 50 -20 79 -70 105 -46 23 -139 26 -185 6z m69 -112 c13 -5 14 -9 5 -20 -13 -16 -29 -9 -29 12 0 16 2 16 24 8z m-77 -42 c27 -15 137 -16 166 -1 21 10 21 10 3 -5 -29 -23 -81 -30 -134 -16 -48 12 -82 34 -82 54 0 6 6 4 13 -5 7 -9 22 -21 34 -27z"/>
 <path d="M554 863 c-10 -40 12 -213 36 -276 22 -57 69 -109 119 -129 14 -6 73 -10 130 -9 58 0 134 -6 175 -14 101 -21 181 -19 232 6 88 42 150 140 190 297 25 100 32 172 13 140 -5 -10 -14 -18 -18 -18 -4 0 -26 -18 -49 -40 -75 -71 -202 -95 -284 -53 -28 13 -39 43 -16 43 6 0 4 8 -6 19 -13 15 -31 19 -76 19 -45 0 -63 -4 -76 -19 -10 -11 -12 -19 -6 -19 23 0 12 -30 -15 -43 -82 -42 -210 -18 -284 53 -23 21 -46 41 -53 44 -7 3 -7 5 2 5 14 1 17 21 2 21 -5 0 -13 -12 -16 -27z"/>
 </g>
<g id="layer117" fill="#bbb74a" stroke="none">
 <path d="M836 1988 c-26 -79 -78 -288 -86 -345 -8 -59 -7 -78 6 -109 12 -29 18 -34 25 -23 5 8 9 9 9 2 0 -7 15 -4 42 9 98 47 238 47 336 0 32 -16 42 -17 42 -6 0 7 6 11 13 8 8 -3 18 6 25 21 9 20 9 47 -3 124 -8 55 -20 112 -26 127 -6 16 -21 67 -33 114 l-23 85 -50 3 c-57 3 -56 5 -69 -95 -6 -45 -4 -52 15 -62 11 -7 21 -20 21 -31 0 -18 -68 -80 -88 -80 -5 0 -26 19 -47 41 l-37 41 24 25 24 24 -17 67 -17 67 -41 3 c-27 2 -43 -1 -45 -10z"/>
 <path d="M883 1525 c-95 -29 -190 -112 -232 -201 -33 -70 -102 -304 -108 -368 -5 -52 -4 -58 12 -55 10 2 22 17 26 33 23 85 161 134 262 92 40 -16 95 -77 103 -114 11 -50 13 -52 54 -52 41 0 43 2 54 52 8 37 63 98 103 114 101 42 239 -7 262 -92 4 -16 15 -30 23 -32 37 -7 24 66 -53 308 -57 180 -127 263 -263 311 -65 22 -179 25 -243 4z"/>
 <path d="M527 1153 c-8 -10 -21 -38 -27 -63 -7 -25 -17 -54 -23 -65 -15 -26 -20 -57 -21 -122 -1 -53 -11 -64 -34 -41 -7 7 -12 9 -12 6 0 -4 7 -14 16 -22 26 -26 50 -19 69 20 16 34 16 38 0 75 -12 25 -15 47 -10 66 8 29 9 28 20 -21 3 -17 10 -25 15 -20 7 8 60 182 60 198 0 13 -38 5 -53 -11z"/>
 <path d="M1423 1153 c2 -10 15 -57 28 -105 13 -49 26 -88 30 -88 10 0 22 57 14 70 -3 5 -4 10 0 10 3 0 10 -12 16 -27 8 -21 6 -37 -6 -70 -22 -56 -7 -113 30 -113 12 0 28 6 34 14 10 12 9 14 -6 10 -17 -5 -19 -1 -15 30 2 20 -1 50 -7 67 -14 42 -7 49 13 12 8 -15 15 -23 16 -17 0 6 -8 22 -19 35 -27 35 -48 79 -56 119 -9 43 -31 70 -58 70 -14 0 -18 -5 -14 -17z"/>
 <path d="M658 1010 c-49 -27 -68 -56 -68 -106 0 -81 71 -120 198 -110 100 8 112 9 107 14 -2 3 7 13 20 24 46 36 27 113 -42 165 -49 37 -158 44 -215 13z m141 -126 c-13 -16 -29 -10 -29 11 0 8 7 11 20 8 16 -4 18 -8 9 -19z m-31 -35 c55 0 63 -2 42 -10 -48 -20 -150 9 -150 43 0 4 9 -1 20 -12 16 -16 34 -20 88 -21z"/>
 <path d="M1155 1016 c-36 -16 -82 -67 -91 -102 -10 -38 4 -73 36 -93 17 -10 28 -20 26 -22 -3 -2 35 -6 83 -7 135 -5 201 32 201 113 0 50 -20 79 -70 105 -46 23 -139 26 -185 6z m69 -112 c13 -5 14 -9 5 -20 -13 -16 -29 -9 -29 12 0 16 2 16 24 8z m-77 -42 c27 -15 137 -16 166 -1 21 10 21 10 3 -5 -29 -23 -81 -30 -134 -16 -48 12 -82 34 -82 54 0 6 6 4 13 -5 7 -9 22 -21 34 -27z"/>
 <path d="M554 865 c-9 -36 5 -166 26 -241 37 -135 95 -173 265 -174 61 0 139 -7 175 -15 96 -21 172 -19 225 6 80 38 145 133 184 272 24 82 38 191 21 165 -6 -10 -15 -18 -21 -18 -5 0 -23 -15 -39 -34 -56 -64 -178 -98 -259 -74 -48 15 -75 43 -53 57 10 6 8 11 -5 23 -27 24 -126 22 -149 -3 -10 -11 -12 -19 -6 -19 24 0 11 -30 -20 -47 -77 -40 -225 -8 -287 62 -15 18 -34 35 -42 38 -10 4 -10 6 -1 6 14 1 17 21 2 21 -5 0 -12 -11 -16 -25z"/>
 </g>
<g id="layer118" fill="#da9967" stroke="none">
 <path d="M836 1988 c-26 -79 -78 -288 -86 -345 -8 -59 -7 -78 6 -109 12 -29 18 -34 25 -23 5 8 9 9 9 2 0 -7 15 -4 42 9 98 47 238 47 336 0 32 -16 42 -17 42 -6 0 7 6 11 13 8 8 -3 18 6 25 21 9 20 9 47 -3 124 -8 55 -20 112 -26 127 -6 16 -21 67 -33 114 l-23 85 -50 3 c-57 3 -56 5 -69 -95 -6 -45 -4 -52 15 -62 11 -7 21 -20 21 -31 0 -18 -68 -80 -88 -80 -5 0 -26 19 -47 41 l-37 41 24 25 24 24 -17 67 -17 67 -41 3 c-27 2 -43 -1 -45 -10z"/>
 <path d="M880 1525 c-63 -20 -147 -81 -192 -140 -51 -68 -153 -378 -146 -447 4 -38 24 -48 33 -16 13 48 31 70 75 96 90 53 219 27 275 -55 14 -21 25 -50 25 -64 0 -30 31 -44 75 -33 19 5 25 13 25 33 0 14 11 43 25 64 56 82 185 108 275 55 44 -25 62 -48 75 -95 8 -29 23 -29 34 -1 9 25 -6 89 -70 288 -44 140 -82 201 -161 257 -96 69 -236 92 -348 58z"/>
 <path d="M527 1153 c-8 -10 -21 -38 -27 -63 -7 -25 -17 -54 -23 -65 -15 -26 -20 -57 -21 -122 -1 -53 -11 -64 -34 -41 -7 7 -12 9 -12 6 0 -4 7 -14 16 -22 26 -26 50 -19 69 20 16 34 16 38 0 75 -12 25 -15 47 -10 66 8 29 9 28 20 -21 3 -17 10 -25 15 -20 7 8 60 182 60 198 0 13 -38 5 -53 -11z"/>
 <path d="M1423 1153 c2 -10 15 -57 28 -105 13 -49 26 -88 30 -88 10 0 22 57 14 70 -3 5 -4 10 0 10 3 0 10 -12 16 -27 8 -21 6 -37 -6 -70 -22 -56 -7 -113 30 -113 12 0 28 6 34 14 10 12 9 14 -6 10 -17 -5 -19 -1 -15 30 2 20 -1 50 -7 67 -14 42 -7 49 13 12 8 -15 15 -23 16 -17 0 6 -8 22 -19 35 -27 35 -48 79 -56 119 -9 43 -31 70 -58 70 -14 0 -18 -5 -14 -17z"/>
 <path d="M675 1016 c-79 -34 -107 -118 -60 -174 65 -78 290 -62 320 22 15 42 -27 113 -84 143 -50 26 -128 30 -176 9z m124 -132 c-13 -16 -29 -10 -29 11 0 8 7 11 20 8 16 -4 18 -8 9 -19z m-31 -35 c55 0 63 -2 42 -10 -48 -20 -150 9 -150 43 0 4 9 -1 20 -12 16 -16 34 -20 88 -21z"/>
 <path d="M1149 1007 c-57 -30 -99 -101 -84 -143 20 -55 156 -91 252 -65 87 24 119 108 66 172 -53 63 -153 78 -234 36z m75 -103 c13 -5 14 -9 5 -20 -13 -16 -29 -9 -29 12 0 16 2 16 24 8z m-77 -42 c27 -15 137 -16 166 -1 21 10 21 10 3 -5 -29 -23 -81 -30 -134 -16 -48 12 -82 34 -82 54 0 6 6 4 13 -5 7 -9 22 -21 34 -27z"/>
 <path d="M1450 872 c0 -7 -6 -12 -13 -12 -7 0 -28 -15 -46 -34 -63 -65 -179 -98 -260 -74 -48 14 -75 43 -54 56 10 6 8 12 -5 22 -25 22 -122 20 -144 -2 -10 -10 -13 -18 -8 -18 23 0 8 -31 -22 -47 -77 -41 -218 -10 -289 63 -54 56 -63 48 -55 -50 9 -110 36 -206 71 -252 44 -57 91 -73 220 -74 61 0 139 -7 175 -15 84 -19 169 -19 213 0 78 32 142 114 183 235 26 79 50 198 40 207 -3 4 -6 1 -6 -5z"/>
 </g>
<g id="layer119" fill="#a4999d" stroke="none">
 <path d="M836 1988 c-26 -79 -78 -288 -86 -345 -8 -60 -7 -77 7 -110 l16 -38 11 28 c11 31 19 32 293 32 129 0 143 -2 143 -17 0 -26 15 -22 28 7 9 20 9 48 -3 124 -8 55 -20 112 -26 127 -6 16 -21 67 -33 114 l-23 85 -50 3 c-57 3 -56 5 -69 -95 -6 -45 -4 -52 15 -62 11 -7 21 -20 21 -31 0 -18 -68 -80 -88 -80 -5 0 -26 19 -47 41 l-37 41 24 25 24 24 -17 67 -17 67 -41 3 c-27 2 -43 -1 -45 -10z"/>
 <path d="M895 1527 c-135 -45 -216 -121 -262 -247 -35 -93 -93 -306 -93 -338 0 -49 17 -46 43 5 32 65 89 98 172 97 38 0 74 -7 99 -19 46 -22 96 -87 96 -125 0 -21 6 -29 25 -34 44 -11 75 3 75 34 0 38 50 103 96 125 25 12 61 19 99 19 92 1 144 -34 184 -122 11 -25 26 -17 29 15 4 36 -76 317 -110 390 -32 68 -106 139 -185 175 -54 26 -82 32 -148 35 -48 2 -96 -2 -120 -10z"/>
 <path d="M527 1152 c-9 -10 -20 -34 -23 -53 -8 -39 -29 -85 -53 -114 -15 -19 -15 -19 3 -5 18 14 18 13 10 -10 -5 -14 -9 -46 -9 -72 0 -33 -4 -48 -13 -48 -7 0 -10 -4 -7 -10 14 -22 43 -9 60 26 16 34 16 38 0 75 -12 25 -15 47 -10 66 8 29 9 28 20 -21 9 -41 20 -24 44 69 12 44 24 88 27 98 7 23 -28 23 -49 -1z"/>
 <path d="M1423 1153 c2 -10 15 -55 27 -100 27 -98 47 -111 41 -28 -2 20 -1 20 14 1 19 -25 19 -37 0 -82 -8 -19 -12 -40 -10 -47 2 -6 6 -24 9 -39 5 -21 12 -28 30 -28 13 0 29 6 35 14 10 12 9 14 -6 10 -16 -5 -19 1 -19 33 1 21 -3 53 -8 72 -7 27 -6 32 5 26 8 -5 6 1 -4 12 -10 12 -27 49 -37 83 -21 71 -35 90 -62 90 -15 0 -19 -5 -15 -17z"/>
 <path d="M675 1016 c-79 -34 -107 -118 -60 -174 65 -78 290 -62 320 22 15 42 -27 113 -84 143 -50 26 -128 30 -176 9z m124 -132 c-13 -16 -29 -10 -29 11 0 8 7 11 20 8 16 -4 18 -8 9 -19z m-31 -35 c55 0 63 -2 42 -10 -48 -20 -150 9 -150 43 0 4 9 -1 20 -12 16 -16 34 -20 88 -21z"/>
 <path d="M1149 1007 c-57 -30 -99 -101 -84 -143 20 -55 156 -91 252 -65 87 24 119 108 66 172 -53 63 -153 78 -234 36z m75 -103 c13 -5 14 -9 5 -20 -13 -16 -29 -9 -29 12 0 16 2 16 24 8z m-77 -42 c27 -15 137 -16 166 -1 21 10 21 10 3 -5 -29 -23 -81 -30 -134 -16 -48 12 -82 34 -82 54 0 6 6 4 13 -5 7 -9 22 -21 34 -27z"/>
 <path d="M1450 872 c0 -7 -6 -12 -13 -12 -8 0 -26 -14 -41 -31 -58 -65 -184 -101 -265 -77 -45 14 -77 46 -54 55 8 3 7 9 -5 21 -24 24 -121 23 -144 0 -10 -10 -13 -18 -8 -18 23 0 8 -31 -22 -47 -78 -41 -229 -7 -294 66 -48 54 -58 43 -50 -52 8 -96 25 -165 53 -222 43 -83 92 -105 240 -105 59 -1 137 -7 173 -15 84 -19 169 -19 213 0 78 32 140 112 181 231 27 80 51 202 42 211 -3 4 -6 1 -6 -5z"/>
 </g>
<g id="layer120" fill="#e59375" stroke="none">
 <path d="M829 1958 c-6 -24 -22 -79 -35 -123 -12 -44 -30 -121 -38 -171 -15 -84 -15 -94 1 -130 l16 -39 11 28 c11 31 19 32 293 32 129 0 143 -2 143 -17 0 -27 16 -21 29 11 9 20 10 40 3 67 -6 22 -13 63 -16 92 -4 30 -17 88 -30 130 -13 42 -29 96 -35 120 l-12 42 -48 0 -49 0 -13 -72 c-12 -69 -12 -72 9 -86 12 -8 22 -22 22 -32 0 -20 -63 -80 -83 -80 -7 0 -30 18 -52 40 l-39 40 23 24 c22 23 22 25 8 92 l-14 69 -41 3 c-40 3 -41 3 -53 -40z"/>
 <path d="M895 1527 c-135 -45 -216 -121 -262 -247 -35 -93 -93 -306 -93 -338 0 -49 17 -46 43 5 32 65 89 98 172 97 38 0 74 -7 99 -19 46 -22 96 -87 96 -125 0 -21 6 -29 25 -34 44 -11 75 3 75 34 0 38 50 103 96 125 25 12 61 19 99 19 92 1 144 -34 184 -122 11 -25 26 -17 29 15 4 36 -76 317 -110 390 -32 68 -106 139 -185 175 -54 26 -82 32 -148 35 -48 2 -96 -2 -120 -10z"/>
 <path d="M527 1152 c-9 -10 -20 -34 -23 -53 -8 -39 -29 -85 -53 -114 -15 -19 -15 -19 3 -5 18 14 18 13 10 -10 -5 -14 -9 -46 -9 -72 0 -33 -4 -48 -13 -48 -7 0 -10 -4 -7 -10 14 -22 43 -9 60 26 16 34 16 38 0 75 -12 25 -15 47 -10 66 8 29 9 28 20 -21 9 -41 20 -24 44 69 12 44 24 88 27 98 7 23 -28 23 -49 -1z"/>
 <path d="M1423 1153 c2 -10 15 -55 27 -100 27 -98 47 -111 41 -28 -2 20 -1 20 14 1 19 -25 19 -37 0 -82 -8 -19 -12 -40 -10 -47 2 -6 6 -24 9 -39 5 -21 12 -28 30 -28 13 0 29 6 35 14 10 12 9 14 -6 10 -16 -5 -19 1 -19 33 1 21 -3 53 -8 72 -7 27 -6 32 5 26 8 -5 6 1 -4 12 -10 12 -27 49 -37 83 -21 71 -35 90 -62 90 -15 0 -19 -5 -15 -17z"/>
 <path d="M675 1016 c-79 -34 -107 -118 -60 -174 65 -78 290 -62 320 22 15 42 -27 113 -84 143 -50 26 -128 30 -176 9z m188 -73 c3 -5 -21 -9 -53 -9 -33 -1 -73 -4 -91 -8 -18 -3 -29 -3 -26 1 16 16 162 29 170 16z m-69 -39 c13 -5 14 -9 5 -20 -16 -20 -29 -17 -29 6 0 22 1 23 24 14z m91 -35 c-20 -21 -74 -39 -123 -39 -46 0 -102 25 -102 46 0 16 1 16 14 -2 12 -16 27 -19 96 -19 76 0 84 2 103 26 12 14 24 22 26 17 1 -5 -5 -18 -14 -29z"/>
 <path d="M1149 1007 c-57 -30 -99 -101 -84 -143 20 -55 156 -91 252 -65 87 24 119 108 66 172 -53 63 -153 78 -234 36z m68 -63 c-9 -9 -86 -11 -80 -1 2 4 23 7 45 7 23 0 38 -3 35 -6z m83 -14 c10 -6 2 -7 -25 -3 -49 7 -58 13 -19 13 16 0 36 -5 44 -10z m-141 -69 c9 1 24 -1 34 -6 31 -13 119 0 134 21 7 10 13 13 13 7 0 -5 -9 -18 -21 -29 -31 -28 -147 -27 -186 2 -15 12 -30 30 -32 40 -2 14 2 12 19 -9 12 -15 30 -27 39 -26z m79 29 c-4 -20 -32 -19 -36 2 -2 12 3 16 18 15 13 -1 20 -7 18 -17z"/>
 <path d="M1450 872 c0 -7 -6 -12 -13 -12 -8 0 -26 -14 -41 -31 -58 -65 -184 -101 -265 -77 -45 14 -77 46 -54 55 8 3 7 9 -5 21 -24 24 -121 23 -144 0 -10 -10 -13 -18 -8 -18 23 0 8 -31 -22 -47 -78 -41 -229 -7 -294 66 -48 54 -58 43 -50 -52 8 -96 25 -165 53 -222 43 -83 92 -105 240 -105 59 -1 137 -7 173 -15 84 -19 169 -19 213 0 78 32 140 112 181 231 27 80 51 202 42 211 -3 4 -6 1 -6 -5z"/>
 </g>
<g id="layer121" fill="#dea390" stroke="none">
 <path d="M829 1958 c-6 -24 -22 -79 -35 -123 -12 -44 -30 -121 -38 -171 -15 -83 -15 -95 0 -129 17 -42 23 -41 33 7 5 27 15 37 56 58 44 22 63 25 155 25 93 0 111 -3 163 -27 47 -22 57 -31 57 -52 0 -34 15 -33 29 3 9 20 10 40 3 67 -6 22 -13 63 -16 92 -4 30 -17 88 -30 130 -13 42 -29 96 -35 120 l-12 42 -48 0 -49 0 -13 -72 c-12 -69 -12 -72 9 -86 12 -8 22 -22 22 -32 0 -20 -63 -80 -83 -80 -7 0 -30 18 -52 40 l-39 40 23 24 c22 23 22 25 8 92 l-14 69 -41 3 c-40 3 -41 3 -53 -40z"/>
 <path d="M890 1521 c-106 -34 -202 -117 -241 -209 -27 -62 -109 -347 -109 -377 0 -42 18 -37 43 12 32 65 89 98 172 97 38 0 74 -7 99 -19 46 -22 96 -87 96 -125 0 -31 31 -45 75 -34 19 5 25 13 25 34 0 38 50 103 96 125 58 29 148 26 202 -5 39 -22 54 -41 82 -100 11 -22 25 -18 28 8 4 26 -76 312 -107 385 -24 56 -97 137 -155 171 -95 55 -207 69 -306 37z m128 -138 c-10 -2 -26 -2 -35 0 -10 3 -2 5 17 5 19 0 27 -2 18 -5z m43 -194 c27 1 47 -23 28 -34 -5 -4 -8 -1 -7 7 2 8 -5 12 -20 11 -13 -2 -32 1 -42 7 -11 6 -36 6 -64 1 -25 -5 -46 -5 -46 0 0 10 67 18 100 11 14 -3 37 -4 51 -3z"/>
 <path d="M530 1150 c-18 -18 -25 -39 -21 -63 1 -4 -4 -17 -10 -29 -9 -16 -8 -19 3 -12 19 12 39 14 32 3 -3 -5 -9 -7 -12 -5 -4 2 -8 -14 -8 -37 -1 -39 -1 -39 11 -16 7 13 15 36 19 52 5 22 3 27 -11 27 -15 0 -15 2 -3 9 8 6 17 8 21 6 4 -3 9 8 12 23 3 15 9 35 12 45 10 24 -20 22 -45 -3z"/>
 <path d="M1420 1166 c0 -20 28 -75 46 -91 18 -15 21 -24 14 -35 -10 -13 -10 -13 -8 0 2 9 -1 15 -7 15 -13 0 -8 -28 12 -63 l15 -27 -5 30 c-7 39 8 68 18 36 4 -13 9 -20 12 -18 2 3 -3 20 -12 38 -10 18 -18 46 -19 62 -2 29 -28 57 -53 57 -7 0 -13 -2 -13 -4z"/>
 <path d="M675 1016 c-79 -34 -107 -118 -60 -174 65 -78 290 -62 320 22 15 42 -27 113 -84 143 -50 26 -128 30 -176 9z m188 -73 c3 -5 -21 -9 -53 -9 -33 -1 -73 -4 -91 -8 -18 -3 -29 -3 -26 1 16 16 162 29 170 16z m-69 -39 c13 -5 14 -9 5 -20 -16 -20 -29 -17 -29 6 0 22 1 23 24 14z m91 -35 c-20 -21 -74 -39 -123 -39 -46 0 -102 25 -102 46 0 16 1 16 14 -2 12 -16 27 -19 96 -19 76 0 84 2 103 26 12 14 24 22 26 17 1 -5 -5 -18 -14 -29z"/>
 <path d="M1149 1007 c-57 -30 -99 -101 -84 -143 20 -55 156 -91 252 -65 87 24 119 108 66 172 -53 63 -153 78 -234 36z m68 -63 c-9 -9 -86 -11 -80 -1 2 4 23 7 45 7 23 0 38 -3 35 -6z m83 -14 c10 -6 2 -7 -25 -3 -49 7 -58 13 -19 13 16 0 36 -5 44 -10z m-141 -69 c9 1 24 -1 34 -6 31 -13 119 0 134 21 7 10 13 13 13 7 0 -5 -9 -18 -21 -29 -31 -28 -147 -27 -186 2 -15 12 -30 30 -32 40 -2 14 2 12 19 -9 12 -15 30 -27 39 -26z m79 29 c-4 -20 -32 -19 -36 2 -2 12 3 16 18 15 13 -1 20 -7 18 -17z"/>
 <path d="M471 991 c0 -13 -6 -41 -12 -62 -7 -20 -9 -45 -5 -54 5 -15 9 -15 24 -4 15 13 16 12 4 -3 -8 -9 -23 -19 -35 -21 -21 -3 -21 -4 -3 -12 24 -10 64 31 46 49 -14 14 -13 29 2 20 8 -5 9 0 4 17 -4 13 -11 40 -16 59 -6 26 -8 29 -9 11z"/>
 <path d="M1521 987 c-1 -10 -8 -31 -16 -47 -9 -17 -11 -31 -5 -35 5 -3 14 9 19 27 5 18 10 25 10 15 1 -10 -6 -31 -13 -46 -27 -51 1 -89 44 -61 12 8 11 10 -6 10 -12 0 -28 8 -35 18 -13 15 -12 16 4 3 16 -12 17 -10 16 35 -1 50 -16 117 -18 81z"/>
 <path d="M1450 870 c0 -5 -6 -10 -13 -10 -7 0 -28 -16 -47 -37 -82 -87 -254 -110 -315 -43 -16 17 -16 20 -2 26 14 5 14 7 -1 22 -23 23 -121 23 -144 0 -15 -15 -15 -17 -1 -22 14 -6 14 -9 -2 -26 -61 -68 -259 -38 -323 50 -25 33 -52 40 -52 13 0 -56 25 -205 41 -250 44 -116 91 -142 259 -143 65 0 141 -7 175 -15 176 -42 279 4 359 162 36 73 90 283 72 283 -3 0 -6 -4 -6 -10z"/>
 </g>
<g id="layer122" fill="#e3c78f" stroke="none">
 <path d="M829 1958 c-6 -24 -22 -79 -35 -123 -12 -44 -30 -121 -38 -171 -15 -85 -15 -94 1 -130 l17 -39 9 42 c8 36 16 45 52 62 102 48 236 47 335 -3 34 -17 46 -29 48 -49 4 -35 17 -34 31 2 9 20 10 40 3 67 -6 22 -13 63 -16 92 -4 30 -17 88 -30 130 -13 42 -29 96 -35 120 l-12 42 -48 0 -49 0 -13 -72 c-12 -69 -12 -72 9 -86 12 -8 22 -22 22 -32 0 -20 -63 -80 -83 -80 -7 0 -30 18 -52 40 l-39 40 23 24 c22 23 22 25 8 92 l-14 69 -41 3 c-40 3 -41 3 -53 -40z"/>
 <path d="M884 1512 c-108 -37 -190 -122 -235 -241 -30 -80 -101 -349 -96 -364 2 -6 15 11 28 38 34 68 90 100 174 99 38 0 74 -7 99 -19 46 -22 96 -87 96 -125 0 -21 6 -29 25 -34 44 -11 75 3 75 34 0 38 50 103 96 125 55 27 147 26 200 -2 41 -22 74 -60 74 -86 0 -8 7 -20 15 -27 22 -19 20 -3 -24 160 -69 254 -103 322 -199 390 -96 69 -221 89 -328 52z m136 -122 c11 -7 6 -10 -20 -10 -26 0 -31 3 -20 10 8 5 17 10 20 10 3 0 12 -5 20 -10z m66 -46 c19 -9 33 -18 31 -20 -2 -3 -17 2 -33 11 -39 20 -127 19 -171 -2 -31 -14 -33 -18 -17 -24 15 -6 13 -8 -11 -8 -26 -1 -27 1 -15 13 47 47 151 61 216 30z m42 -41 c-10 -2 -26 -2 -35 0 -10 3 -2 5 17 5 19 0 27 -2 18 -5z m-33 -124 c5 -6 5 -13 -3 -21 -9 -9 -12 -9 -12 3 0 12 -16 15 -77 16 -50 1 -81 -3 -85 -10 -5 -8 -8 -6 -8 5 0 12 10 18 38 20 51 5 135 -3 147 -13z m-72 -91 c-6 -11 -51 -10 -57 0 -3 5 10 8 29 8 18 -1 31 -4 28 -8z"/>
 <path d="M530 1150 c-21 -21 -28 -56 -9 -44 6 3 3 -6 -7 -22 l-18 -29 27 24 c15 14 27 20 28 15 1 -17 18 31 18 54 1 27 -13 28 -39 2z"/>
 <path d="M1431 1138 c5 -18 18 -40 29 -50 20 -16 28 -34 11 -23 -19 11 -18 -11 0 -55 15 -35 18 -38 14 -15 -3 17 -1 36 4 44 6 10 4 25 -6 44 -8 16 -10 26 -4 23 14 -9 14 0 0 27 -13 25 -28 37 -46 37 -8 0 -9 -9 -2 -32z"/>
 <path d="M513 1047 c-3 -6 -1 -7 6 -3 8 6 10 0 5 -18 -8 -35 2 -33 14 2 8 23 7 29 -5 29 -7 0 -17 -5 -20 -10z"/>
 <path d="M675 1016 c-79 -34 -107 -118 -60 -174 65 -78 290 -62 320 22 15 42 -27 113 -84 143 -50 26 -128 30 -176 9z m188 -73 c3 -5 -29 -9 -69 -10 -41 -2 -85 -8 -97 -14 -20 -11 -21 -11 -9 4 8 9 23 18 35 20 39 8 136 7 140 0z m-69 -39 c13 -5 14 -9 5 -20 -16 -20 -29 -17 -29 6 0 22 1 23 24 14z m91 -34 c-27 -30 -81 -43 -148 -37 -61 5 -77 16 -76 52 0 19 1 19 9 -2 18 -45 168 -45 205 -1 11 14 22 21 24 16 1 -5 -5 -18 -14 -28z"/>
 <path d="M1149 1007 c-57 -30 -99 -101 -84 -143 20 -55 156 -91 252 -65 87 24 119 108 66 172 -53 63 -153 78 -234 36z m159 -82 c16 -16 16 -17 -6 -5 -13 6 -56 12 -97 13 -40 1 -70 6 -68 11 3 5 39 6 80 4 53 -4 79 -10 91 -23z m-174 -54 c9 -7 22 -11 31 -8 8 4 17 2 20 -3 8 -13 86 -13 119 -1 13 6 26 18 29 28 4 14 5 14 6 -4 2 -38 -49 -57 -137 -49 -86 7 -102 16 -101 60 0 26 2 28 9 11 4 -12 15 -27 24 -34z m104 19 c-4 -20 -32 -19 -36 2 -2 12 3 16 18 15 13 -1 20 -7 18 -17z"/>
 <path d="M471 980 c0 -14 6 -38 15 -55 15 -32 14 -23 -6 50 -7 28 -8 28 -9 5z"/>
 <path d="M1513 953 c-19 -65 -7 -123 23 -123 9 0 12 5 8 12 -4 7 -7 35 -6 62 l2 51 -14 -30 c-17 -36 -20 -21 -5 24 6 18 9 34 7 37 -3 2 -10 -13 -15 -33z"/>
 <path d="M457 918 c-9 -33 1 -61 17 -51 7 5 3 0 -7 -10 -11 -10 -17 -21 -13 -25 13 -12 48 39 37 52 -6 7 -14 23 -19 36 l-9 24 -6 -26z"/>
 <path d="M1450 870 c0 -5 -7 -10 -15 -10 -8 0 -24 -14 -37 -30 -51 -69 -197 -108 -282 -76 -46 18 -66 43 -42 52 12 5 12 8 -2 22 -23 23 -121 23 -144 0 -14 -14 -14 -17 -2 -22 24 -9 4 -34 -42 -52 -85 -32 -231 7 -282 76 -13 16 -30 30 -38 30 -14 0 -15 -10 -9 -72 17 -175 50 -261 118 -306 38 -25 50 -27 191 -33 83 -4 167 -12 186 -18 19 -6 60 -11 90 -11 136 0 237 105 289 302 23 86 35 158 27 158 -3 0 -6 -4 -6 -10z"/>
 </g>
<g id="layer123" fill="#f5b096" stroke="none">
 <path d="M829 1958 c-6 -24 -22 -79 -35 -123 -12 -44 -30 -121 -38 -171 -15 -85 -15 -94 1 -130 l17 -39 9 42 c8 36 16 45 52 62 102 48 236 47 335 -3 34 -17 46 -29 48 -49 4 -35 17 -34 31 2 9 20 10 40 3 67 -6 22 -13 63 -16 92 -4 30 -17 88 -30 130 -13 42 -29 96 -35 120 l-12 42 -48 0 -49 0 -13 -72 c-12 -69 -12 -72 9 -86 12 -8 22 -22 22 -32 0 -20 -63 -80 -83 -80 -7 0 -30 18 -52 40 l-39 40 23 24 c22 23 22 25 8 92 l-14 69 -41 3 c-40 3 -41 3 -53 -40z"/>
 <path d="M884 1512 c-108 -37 -190 -122 -235 -241 -30 -80 -101 -349 -96 -364 2 -6 13 9 24 34 53 120 223 146 324 49 21 -20 42 -53 49 -77 12 -41 15 -43 50 -43 35 0 38 2 50 43 30 101 156 161 261 125 55 -18 85 -45 109 -95 37 -78 34 -33 -8 124 -70 257 -104 325 -200 393 -96 69 -221 89 -328 52z m136 -122 c11 -7 6 -10 -20 -10 -26 0 -31 3 -20 10 8 5 17 10 20 10 3 0 12 -5 20 -10z m66 -46 c19 -9 33 -18 31 -20 -2 -3 -17 2 -33 11 -39 20 -127 19 -171 -2 -31 -14 -33 -18 -17 -24 15 -6 13 -8 -11 -8 -26 -1 -27 1 -15 13 47 47 151 61 216 30z m42 -41 c-10 -2 -26 -2 -35 0 -10 3 -2 5 17 5 19 0 27 -2 18 -5z m-33 -124 c5 -6 5 -13 -3 -21 -9 -9 -12 -9 -12 3 0 12 -16 15 -77 16 -50 1 -81 -3 -85 -10 -5 -8 -8 -6 -8 5 0 12 10 18 38 20 51 5 135 -3 147 -13z m-72 -91 c-6 -11 -51 -10 -57 0 -3 5 10 8 29 8 18 -1 31 -4 28 -8z"/>
 <path d="M530 1150 c-21 -21 -28 -56 -9 -44 6 3 3 -6 -7 -22 l-18 -29 27 24 c15 14 27 20 28 15 1 -17 18 31 18 54 1 27 -13 28 -39 2z"/>
 <path d="M1431 1138 c5 -18 18 -40 29 -50 20 -16 28 -34 11 -23 -19 11 -18 -11 0 -55 15 -35 18 -38 14 -15 -3 17 -1 36 4 44 6 10 4 25 -6 44 -8 16 -10 26 -4 23 14 -9 14 0 0 27 -13 25 -28 37 -46 37 -8 0 -9 -9 -2 -32z"/>
 <path d="M513 1047 c-3 -6 -1 -7 6 -3 8 6 10 0 5 -18 -8 -35 2 -33 14 2 8 23 7 29 -5 29 -7 0 -17 -5 -20 -10z"/>
 <path d="M685 1015 c-75 -26 -110 -91 -82 -151 21 -43 62 -64 140 -70 76 -5 151 18 180 57 17 23 18 31 8 62 -22 64 -105 118 -181 117 -14 -1 -43 -7 -65 -15z m178 -72 c3 -5 -29 -9 -69 -10 -41 -2 -85 -8 -97 -14 -20 -11 -21 -11 -9 4 8 9 23 18 35 20 39 8 136 7 140 0z m-69 -39 c13 -5 14 -9 5 -20 -16 -20 -29 -17 -29 6 0 22 1 23 24 14z m91 -34 c-27 -30 -81 -43 -148 -37 -61 5 -77 16 -76 52 0 19 1 19 9 -2 18 -45 168 -45 205 -1 11 14 22 21 24 16 1 -5 -5 -18 -14 -28z"/>
 <path d="M1170 1014 c-80 -35 -126 -113 -95 -160 25 -38 79 -57 165 -58 87 -1 131 17 156 65 54 105 -99 208 -226 153z m138 -89 c16 -16 16 -17 -6 -5 -13 6 -56 12 -97 13 -40 1 -70 6 -68 11 3 5 39 6 80 4 53 -4 79 -10 91 -23z m-174 -54 c9 -7 22 -11 31 -8 8 4 17 2 20 -3 8 -13 86 -13 119 -1 13 6 26 18 29 28 4 14 5 14 6 -4 2 -38 -49 -57 -137 -49 -86 7 -102 16 -101 60 0 26 2 28 9 11 4 -12 15 -27 24 -34z m104 19 c-4 -20 -32 -19 -36 2 -2 12 3 16 18 15 13 -1 20 -7 18 -17z"/>
 <path d="M471 980 c0 -14 6 -38 15 -55 15 -32 14 -23 -6 50 -7 28 -8 28 -9 5z"/>
 <path d="M1513 953 c-19 -65 -7 -123 23 -123 9 0 12 5 8 12 -4 7 -7 35 -6 62 l2 51 -14 -30 c-17 -36 -20 -21 -5 24 6 18 9 34 7 37 -3 2 -10 -13 -15 -33z"/>
 <path d="M457 918 c-9 -33 1 -61 17 -51 7 5 3 0 -7 -10 -11 -10 -17 -21 -13 -25 13 -12 48 39 37 52 -6 7 -14 23 -19 36 l-9 24 -6 -26z"/>
 <path d="M1435 858 c-11 -7 -28 -22 -38 -34 -26 -34 -117 -74 -179 -81 -84 -8 -175 29 -148 62 17 20 -15 38 -70 38 -55 0 -87 -18 -70 -38 27 -32 -64 -70 -146 -62 -68 7 -135 37 -180 81 -21 20 -41 36 -47 36 -10 0 -2 -106 14 -195 15 -79 55 -152 102 -183 38 -25 50 -27 191 -33 83 -4 167 -12 186 -18 19 -6 60 -11 90 -11 137 0 237 105 289 302 20 75 34 148 29 148 -2 0 -12 -6 -23 -12z"/>
 </g>
<g id="layer124" fill="#b6bdd3" stroke="none">
 <path d="M829 1958 c-6 -24 -22 -79 -35 -123 -12 -44 -30 -121 -38 -171 -15 -84 -15 -94 0 -130 l17 -39 14 55 c18 67 32 84 103 120 30 16 64 35 75 44 20 14 19 16 -19 55 l-40 41 23 24 c22 23 22 25 8 92 l-14 69 -41 3 c-40 3 -41 3 -53 -40z"/>
 <path d="M1049 1928 c-12 -69 -12 -72 9 -86 31 -21 27 -45 -12 -80 -32 -28 -33 -31 -18 -45 9 -8 42 -27 72 -42 75 -37 109 -71 116 -117 8 -45 17 -48 33 -9 9 20 10 40 3 67 -6 22 -13 63 -16 92 -4 30 -17 88 -30 130 -13 42 -29 96 -35 120 l-12 42 -48 0 -49 0 -13 -72z"/>
 <path d="M935 1343 c-11 -3 -29 -12 -40 -19 -17 -12 -4 -14 105 -14 120 0 124 1 100 17 -25 18 -125 27 -165 16z"/>
 <path d="M987 1215 c-14 -7 -28 -11 -30 -8 -3 2 -7 0 -10 -4 -3 -5 19 -9 49 -9 58 0 65 5 35 23 -14 9 -24 8 -44 -2z"/>
 <path d="M925 1170 c-12 -20 11 -86 33 -95 14 -5 14 -4 -1 13 -23 25 -22 35 2 23 19 -11 110 -11 112 -1 9 50 5 60 -25 62 -65 4 -118 3 -121 -2z"/>
 <path d="M1010 1074 c-14 -8 -18 -14 -10 -14 8 1 24 7 34 15 24 19 10 18 -24 -1z"/>
 <path d="M685 1015 c-75 -26 -110 -91 -82 -151 21 -43 62 -64 140 -70 76 -5 151 18 180 57 17 23 18 31 8 62 -22 64 -105 118 -181 117 -14 -1 -43 -7 -65 -15z m185 -72 c0 -5 -34 -9 -75 -10 -42 -2 -85 -8 -97 -14 -15 -8 -19 -8 -13 1 4 6 17 15 29 20 26 11 156 13 156 3z m-76 -39 c13 -5 14 -9 5 -20 -16 -20 -29 -17 -29 6 0 22 1 23 24 14z m94 -31 c-21 -26 -73 -43 -133 -43 -71 0 -95 12 -94 48 0 26 1 26 9 5 18 -45 168 -45 205 -1 11 14 22 21 23 16 2 -5 -2 -16 -10 -25z"/>
 <path d="M1165 1011 c-23 -10 -53 -33 -68 -50 -35 -42 -36 -69 -1 -35 24 25 30 26 109 23 66 -3 88 -8 102 -23 17 -18 17 -18 -2 -8 -27 14 -123 23 -162 16 -22 -4 -33 -12 -33 -24 0 -23 36 -54 54 -47 9 4 18 2 21 -3 8 -13 86 -13 119 -1 13 6 26 18 29 28 4 14 5 14 6 -4 2 -33 -41 -50 -134 -56 -85 -6 -106 2 -133 48 -6 11 -12 14 -12 7 0 -8 13 -26 28 -42 51 -50 187 -64 262 -25 66 34 76 121 19 169 -55 47 -137 58 -204 27z m73 -121 c-4 -20 -32 -19 -36 2 -2 12 3 16 18 15 13 -1 20 -7 18 -17z"/>
 <path d="M972 695 c-13 -7 -29 -18 -35 -25 -9 -10 -9 -11 3 -5 13 7 13 6 2 -7 -26 -33 0 -82 50 -93 23 -6 33 -3 40 9 5 9 14 14 19 10 5 -3 9 -2 8 3 -1 4 0 10 1 13 11 27 4 64 -18 85 -27 28 -36 29 -70 10z"/>
 </g>
<g id="layer125" fill="#f6bca7" stroke="none">
 <path d="M834 1976 c-3 -14 -3 -30 1 -37 4 -6 3 -14 -3 -18 -12 -8 -60 -158 -68 -214 -3 -23 -10 -62 -15 -87 -8 -36 -7 -53 7 -85 l17 -40 14 55 c18 67 32 84 103 120 99 51 98 49 46 104 -43 44 -57 64 -38 52 4 -2 18 4 31 13 23 17 23 20 11 72 -21 93 -18 89 -60 89 -34 0 -41 -4 -46 -24z"/>
 <path d="M1050 1929 c-7 -39 -10 -71 -9 -73 2 -1 16 -12 32 -23 l27 -21 -41 -40 c-25 -23 -39 -44 -35 -51 4 -6 35 -25 69 -42 82 -41 116 -74 123 -121 4 -21 10 -38 14 -38 13 0 33 59 26 76 -4 9 -11 46 -16 82 -5 35 -22 110 -39 166 -16 55 -32 113 -35 129 -6 25 -10 27 -55 27 l-49 0 -12 -71z"/>
 <path d="M935 1343 c-11 -3 -29 -12 -40 -19 -17 -12 -4 -14 105 -14 120 0 124 1 100 17 -25 18 -125 27 -165 16z"/>
 <path d="M987 1215 c-14 -7 -28 -11 -30 -8 -3 2 -7 0 -10 -4 -3 -5 19 -9 49 -9 58 0 65 5 35 23 -14 9 -24 8 -44 -2z"/>
 <path d="M925 1170 c-12 -20 11 -86 33 -95 14 -5 14 -4 -1 13 -23 25 -22 35 2 23 19 -11 110 -11 112 -1 9 50 5 60 -25 62 -65 4 -118 3 -121 -2z"/>
 <path d="M1010 1074 c-14 -8 -18 -14 -10 -14 8 1 24 7 34 15 24 19 10 18 -24 -1z"/>
 <path d="M685 1015 c-75 -26 -110 -91 -82 -151 21 -43 62 -64 140 -70 76 -5 151 18 180 57 17 23 18 31 8 62 -22 64 -105 118 -181 117 -14 -1 -43 -7 -65 -15z m185 -73 c0 -5 -15 -6 -32 -4 -32 5 -32 4 -16 -14 9 -11 18 -30 20 -43 l3 -23 28 26 c21 20 28 22 25 10 -6 -34 -55 -58 -127 -62 -80 -5 -111 8 -111 44 0 22 2 23 15 12 55 -49 60 -49 60 2 0 43 -4 46 -37 29 -15 -8 -19 -8 -13 1 4 6 17 15 29 20 27 11 156 13 156 2z"/>
 <path d="M751 916 c-7 -8 -8 -17 -3 -20 6 -3 13 1 16 10 9 23 2 28 -13 10z"/>
 <path d="M800 874 c0 -17 22 -14 28 4 2 7 -3 12 -12 12 -9 0 -16 -7 -16 -16z"/>
 <path d="M1165 1011 c-23 -10 -53 -33 -68 -50 -35 -42 -36 -69 -1 -35 24 25 30 26 109 23 66 -3 88 -8 102 -23 17 -18 17 -18 -4 -7 -35 18 -43 14 -37 -21 4 -23 3 -29 -4 -19 -10 13 -32 8 -32 -9 0 -15 50 -21 65 -8 43 39 45 40 45 19 0 -30 -45 -49 -135 -54 -85 -6 -106 2 -133 48 -6 11 -12 14 -12 7 0 -8 13 -26 28 -42 51 -50 187 -64 262 -25 66 34 76 121 19 169 -55 47 -137 58 -204 27z"/>
 <path d="M1133 933 c-13 -2 -23 -11 -23 -18 0 -8 10 -21 23 -30 20 -14 22 -14 26 2 1 10 10 26 19 36 14 15 13 17 -4 16 -10 -1 -29 -4 -41 -6z"/>
 <path d="M1180 905 c0 -8 5 -15 10 -15 6 0 10 7 10 15 0 8 -4 15 -10 15 -5 0 -10 -7 -10 -15z"/>
 <path d="M972 695 c-13 -7 -29 -18 -35 -25 -9 -10 -9 -11 3 -5 13 7 13 6 2 -7 -26 -33 0 -82 50 -93 23 -6 33 -3 40 9 5 9 14 14 19 10 5 -3 9 -2 8 3 -1 4 0 10 1 13 11 27 4 64 -18 85 -27 28 -36 29 -70 10z"/>
 </g>
<g id="layer126" fill="#f7cbba" stroke="none">
 <path d="M834 1976 c-3 -14 -3 -30 1 -37 4 -6 3 -14 -3 -18 -12 -8 -60 -158 -68 -214 -3 -23 -10 -62 -15 -87 -8 -37 -7 -53 8 -85 l17 -40 4 30 c1 17 7 39 11 50 5 11 12 28 15 37 3 9 29 29 58 44 61 30 108 62 108 72 0 4 -18 27 -40 51 -39 43 -49 57 -32 47 4 -2 18 4 31 13 23 17 23 20 11 72 -21 93 -18 89 -60 89 -34 0 -41 -4 -46 -24z"/>
 <path d="M1050 1929 c-7 -39 -10 -71 -9 -73 2 -1 17 -12 32 -23 l28 -21 -41 -38 c-22 -20 -40 -41 -40 -46 0 -5 28 -22 63 -38 110 -52 123 -65 133 -127 3 -24 10 -43 14 -43 13 0 33 59 26 76 -4 9 -11 46 -16 82 -5 35 -22 110 -39 166 -16 55 -32 113 -35 129 -6 25 -10 27 -55 27 l-49 0 -12 -71z"/>
 <path d="M920 1332 l-35 -17 58 -3 c31 -2 83 -2 115 0 l57 3 -37 18 c-47 21 -113 21 -158 -1z"/>
 <path d="M870 963 c0 -28 -2 -29 -32 -25 -32 5 -33 4 -15 -15 9 -11 17 -29 17 -42 0 -21 1 -21 25 -5 14 9 25 23 25 31 0 8 5 11 10 8 16 -10 12 -40 -7 -57 -10 -8 -34 -18 -54 -21 -19 -3 -51 -15 -70 -27 l-34 -22 54 7 c112 13 159 52 141 116 -6 20 -21 46 -35 59 l-25 23 0 -30z"/>
 <path d="M1360 969 c-1 -13 -7 -46 -14 -72 -11 -44 -18 -51 -62 -74 -27 -14 -51 -27 -54 -30 -10 -12 92 7 120 22 60 31 76 118 30 160 -19 18 -20 17 -20 -6z"/>
 <path d="M1132 929 c-27 -10 -25 -26 6 -47 20 -13 22 -13 22 3 0 10 7 27 17 37 15 17 15 18 -3 17 -10 0 -30 -4 -42 -10z"/>
 <path d="M693 918 c-28 -14 -30 -35 -3 -43 11 -3 20 -11 20 -16 0 -5 6 -9 13 -9 8 0 12 14 12 40 0 42 -5 46 -42 28z"/>
 <path d="M751 916 c-7 -8 -8 -17 -3 -20 6 -3 13 1 16 10 9 23 2 28 -13 10z"/>
 <path d="M1266 898 c4 -23 3 -29 -4 -19 -10 13 -32 8 -32 -9 0 -16 51 -21 66 -5 9 8 20 15 25 15 19 0 8 27 -16 38 -39 18 -45 15 -39 -20z"/>
 <path d="M1180 905 c0 -8 5 -15 10 -15 6 0 10 7 10 15 0 8 -4 15 -10 15 -5 0 -10 -7 -10 -15z"/>
 <path d="M800 874 c0 -17 22 -14 28 4 2 7 -3 12 -12 12 -9 0 -16 -7 -16 -16z"/>
 </g>
<g id="layer127" fill="#f2f0f2" stroke="none">
 <path d="M834 1976 c-3 -14 -3 -30 1 -37 4 -6 3 -14 -3 -18 -12 -8 -60 -158 -68 -214 -3 -23 -10 -62 -15 -87 -8 -37 -7 -53 7 -85 l18 -40 7 47 c11 72 33 99 115 143 41 22 74 42 74 45 0 3 -18 25 -40 49 -39 43 -49 57 -32 47 4 -2 18 4 31 13 23 17 23 20 11 72 -21 93 -18 89 -60 89 -34 0 -41 -4 -46 -24z"/>
 <path d="M1050 1929 c-7 -39 -10 -71 -9 -73 2 -1 17 -12 32 -23 l28 -21 -41 -38 c-38 -36 -39 -38 -22 -54 10 -10 46 -30 80 -45 69 -31 102 -71 102 -124 0 -17 4 -31 9 -31 13 0 34 58 27 76 -4 9 -11 46 -16 82 -5 35 -22 110 -39 166 -16 55 -32 113 -35 129 -6 25 -10 27 -55 27 l-49 0 -12 -71z"/>
 <path d="M940 1338 c-71 -20 -54 -28 60 -28 81 0 111 3 103 11 -12 12 -77 29 -108 28 -11 -1 -36 -5 -55 -11z"/>
 <path d="M823 922 c10 -10 17 -28 17 -41 0 -21 1 -21 25 -5 14 9 25 22 25 30 0 16 -31 34 -61 34 -21 0 -21 -1 -6 -18z"/>
 <path d="M1132 929 c-27 -10 -25 -26 6 -47 20 -13 22 -13 22 3 0 10 7 27 17 37 15 17 15 18 -3 17 -10 0 -30 -4 -42 -10z"/>
 <path d="M689 909 c-17 -14 -20 -22 -11 -26 7 -2 19 -11 26 -19 24 -23 31 -16 31 26 0 45 -11 50 -46 19z"/>
 <path d="M751 916 c-7 -8 -8 -17 -3 -20 6 -3 13 1 16 10 9 23 2 28 -13 10z"/>
 <path d="M1266 898 c4 -23 3 -29 -4 -19 -10 13 -32 8 -32 -9 0 -16 50 -21 65 -6 8 8 20 17 27 19 9 4 6 12 -11 26 -35 32 -52 27 -45 -11z"/>
 <path d="M1180 905 c0 -8 5 -15 10 -15 6 0 10 7 10 15 0 8 -4 15 -10 15 -5 0 -10 -7 -10 -15z"/>
 <path d="M800 874 c0 -17 22 -14 28 4 2 7 -3 12 -12 12 -9 0 -16 -7 -16 -16z"/>
 </g>

</svg>