<!DOCTYPE svg PUBLIC "-//W3C//DTD SVG 20010904//EN" "http://www.w3.org/TR/2001/REC-SVG-20010904/DTD/svg10.dtd">
<svg version="1.0" xmlns="http://www.w3.org/2000/svg" width="200px" height="200px" viewBox="0 0 2000 2000" preserveAspectRatio="xMidYMid meet">
<g id="layer101" fill="#f2f0f2" stroke="none">
 <path d="M135 1953 c3 -27 18 -74 33 -107 32 -72 72 -100 176 -121 42 -9 135 -36 208 -60 73 -25 134 -45 135 -45 12 0 56 -55 69 -85 l16 -38 -45 -43 c-24 -23 -58 -49 -74 -58 -23 -11 -32 -24 -36 -51 -3 -20 -16 -62 -28 -93 -17 -43 -30 -61 -53 -72 -25 -12 -35 -27 -52 -80 -12 -36 -34 -85 -49 -108 -18 -28 -30 -61 -33 -94 -4 -47 -3 -53 23 -74 26 -21 27 -23 16 -73 -15 -73 -14 -199 4 -256 21 -71 80 -151 134 -182 25 -15 70 -53 99 -84 32 -35 75 -69 110 -86 51 -25 67 -28 157 -28 79 1 119 6 194 28 224 67 342 165 387 322 13 47 16 87 12 200 l-5 142 28 10 c51 20 49 108 -5 188 -14 20 -30 53 -36 73 -23 74 -32 90 -59 101 -28 12 -66 93 -78 166 -4 27 -13 40 -37 52 -17 9 -40 25 -51 37 -11 12 -32 31 -48 43 l-27 21 22 39 c12 21 32 48 43 59 23 25 255 105 371 129 104 21 144 49 176 121 15 33 30 80 33 107 l7 47 -872 0 -872 0 7 -47z"/>
 </g>
<g id="layer102" fill="#f7cbba" stroke="none">
 <path d="M135 1953 c3 -27 18 -74 33 -107 32 -72 72 -100 176 -121 77 -16 313 -92 354 -114 12 -6 22 -16 22 -21 0 -16 17 -11 24 6 4 9 11 47 16 84 9 67 56 230 69 240 3 3 6 22 7 43 l1 37 -355 0 -354 0 7 -47z"/>
 <path d="M923 1983 c3 -10 11 -42 17 -72 12 -52 12 -55 -11 -72 -13 -9 -27 -15 -31 -13 -17 10 -7 -4 32 -47 22 -24 40 -46 40 -49 0 -3 -34 -23 -75 -45 -61 -33 -79 -47 -95 -81 -11 -22 -20 -54 -20 -70 0 -23 -12 -41 -49 -76 -27 -26 -62 -53 -79 -62 -22 -11 -31 -24 -35 -51 -3 -20 -16 -62 -28 -93 -17 -43 -30 -61 -53 -72 -25 -12 -35 -27 -52 -80 -12 -36 -34 -85 -49 -108 -18 -28 -30 -61 -33 -94 -4 -47 -3 -53 23 -74 26 -21 27 -23 16 -73 -15 -73 -14 -199 4 -256 21 -71 80 -151 134 -182 25 -15 70 -53 99 -84 32 -35 75 -69 110 -86 51 -25 67 -28 157 -28 79 1 119 6 194 28 224 67 342 165 387 322 13 47 16 87 12 200 l-5 142 28 10 c51 20 49 108 -5 188 -14 20 -30 53 -36 73 -23 74 -32 90 -59 101 -28 12 -66 93 -78 166 -5 29 -13 40 -44 56 -22 11 -39 23 -39 27 0 5 -17 21 -38 37 -34 25 -39 34 -41 74 -2 66 -30 104 -103 136 -34 15 -70 35 -80 45 -17 16 -16 18 23 54 l41 38 -32 22 c-33 22 -33 24 -14 134 l6 32 -72 0 c-63 0 -71 -2 -67 -17z m131 -642 c21 -5 43 -14 49 -20 8 -8 -22 -11 -103 -11 -114 0 -131 8 -60 28 45 13 66 14 114 3z m-183 -411 c26 -14 24 -34 -6 -54 -24 -16 -25 -16 -25 5 0 13 -7 31 -17 41 -15 17 -15 18 6 18 12 0 31 -5 42 -10z m306 -8 c-10 -10 -17 -27 -17 -37 0 -16 -2 -16 -22 -3 -12 8 -24 20 -26 26 -4 13 31 30 62 31 18 1 18 0 3 -17z m-442 -32 c0 -42 -7 -49 -31 -26 -7 8 -19 17 -26 19 -9 4 -6 12 11 26 35 31 46 26 46 -19z m29 16 c-3 -9 -10 -13 -16 -10 -5 3 -4 12 3 20 15 18 22 13 13 -10z m547 3 c17 -14 20 -22 11 -26 -7 -2 -19 -11 -27 -19 -15 -15 -65 -10 -65 6 0 17 22 22 32 9 7 -10 8 -4 4 19 -7 38 10 43 45 11z m-111 -4 c0 -8 -4 -15 -10 -15 -5 0 -10 7 -10 15 0 8 5 15 10 15 6 0 10 -7 10 -15z m-372 -27 c-6 -18 -28 -21 -28 -4 0 9 7 16 16 16 9 0 14 -5 12 -12z"/>
 <path d="M1167 1968 c3 -18 19 -76 35 -128 16 -52 33 -125 38 -161 10 -67 18 -99 27 -99 3 0 12 9 21 19 19 22 256 103 368 126 104 21 144 49 176 121 15 33 30 80 33 107 l7 47 -356 0 -355 0 6 -32z"/>
 </g>
<g id="layer103" fill="#b6bdd3" stroke="none">
 <path d="M135 1953 c3 -27 18 -74 33 -107 32 -72 72 -100 176 -121 77 -16 313 -92 354 -114 12 -6 22 -16 22 -21 0 -16 17 -11 24 6 4 9 11 47 16 84 9 67 56 230 69 240 3 3 6 22 7 43 l1 37 -355 0 -354 0 7 -47z"/>
 <path d="M923 1983 c3 -10 11 -42 17 -72 12 -52 12 -55 -11 -72 -13 -9 -27 -15 -31 -13 -17 10 -7 -4 32 -47 22 -24 40 -47 40 -51 0 -10 -47 -42 -108 -72 -29 -15 -55 -35 -58 -44 -3 -9 -10 -25 -15 -34 -5 -10 -9 -30 -9 -46 0 -20 -13 -40 -49 -74 -27 -26 -62 -53 -79 -62 -22 -11 -31 -24 -35 -51 -3 -20 -16 -62 -28 -93 -17 -43 -30 -61 -53 -72 -25 -12 -35 -27 -52 -80 -12 -36 -34 -85 -49 -108 -18 -28 -30 -61 -33 -94 -4 -47 -3 -53 23 -74 26 -21 27 -23 16 -73 -15 -73 -14 -199 4 -256 21 -71 80 -151 134 -182 25 -15 70 -53 99 -84 32 -35 75 -69 110 -86 51 -25 67 -28 157 -28 79 1 119 6 194 28 224 67 342 165 387 322 13 47 16 87 12 200 l-5 142 28 10 c51 20 49 108 -5 188 -14 20 -30 53 -36 73 -23 74 -32 90 -59 101 -28 12 -66 93 -78 166 -5 29 -13 40 -44 56 -22 11 -39 23 -39 27 0 5 -18 21 -40 38 -21 16 -39 34 -38 39 4 22 -14 101 -25 115 -17 20 -41 35 -114 70 -35 16 -63 33 -63 38 0 5 18 26 41 47 l41 37 -32 22 c-33 22 -33 24 -14 134 l6 32 -72 0 c-63 0 -71 -2 -67 -17z m155 -650 l37 -18 -57 -3 c-32 -2 -84 -2 -115 0 l-58 3 35 17 c45 22 111 22 158 1z m-148 -422 c18 -64 -29 -103 -141 -116 l-54 -7 34 22 c19 12 51 24 70 27 20 3 44 13 54 21 19 17 23 47 7 57 -5 3 -10 0 -10 -8 0 -8 -11 -22 -25 -31 -24 -16 -25 -16 -25 5 0 13 -8 31 -17 42 -18 19 -17 20 15 15 30 -4 32 -3 32 25 l0 30 25 -23 c14 -13 29 -39 35 -59z m476 14 c12 -68 -39 -119 -133 -132 -56 -7 -55 -3 11 30 44 23 51 30 62 74 7 26 13 59 14 72 0 23 1 24 20 6 11 -10 22 -32 26 -50z m-229 -3 c-10 -10 -17 -27 -17 -37 0 -16 -2 -16 -22 -3 -12 8 -24 20 -26 26 -4 13 31 30 62 31 18 1 18 0 3 -17z m-442 -32 c0 -26 -4 -40 -12 -40 -7 0 -13 4 -13 9 0 5 -9 13 -20 16 -27 8 -25 29 3 43 37 18 42 14 42 -28z m29 16 c-3 -9 -10 -13 -16 -10 -5 3 -4 12 3 20 15 18 22 13 13 -10z m541 12 c24 -11 35 -38 16 -38 -5 0 -16 -7 -25 -15 -15 -16 -66 -11 -66 5 0 17 22 22 32 9 7 -10 8 -4 4 19 -6 35 0 38 39 20z m-105 -13 c0 -8 -4 -15 -10 -15 -5 0 -10 7 -10 15 0 8 5 15 10 15 6 0 10 -7 10 -15z m-372 -27 c-6 -18 -28 -21 -28 -4 0 9 7 16 16 16 9 0 14 -5 12 -12z"/>
 <path d="M1167 1968 c3 -18 19 -76 35 -128 16 -52 33 -125 38 -161 10 -67 18 -99 27 -99 3 0 12 9 21 19 19 22 256 103 368 126 104 21 144 49 176 121 15 33 30 80 33 107 l7 47 -356 0 -355 0 6 -32z"/>
 </g>
<g id="layer104" fill="#f3b097" stroke="none">
 <path d="M135 1953 c3 -27 18 -74 33 -107 32 -72 72 -100 176 -121 76 -16 313 -92 353 -113 12 -7 24 -17 26 -24 9 -23 25 11 32 70 4 30 13 78 21 106 7 28 23 85 34 126 11 41 23 83 26 93 5 16 -16 17 -351 17 l-357 0 7 -47z"/>
 <path d="M925 1983 c2 -10 9 -42 16 -71 11 -50 10 -55 -12 -78 l-23 -24 34 -35 c43 -45 37 -57 -56 -107 -38 -20 -72 -43 -75 -50 -3 -7 -11 -23 -17 -35 -7 -13 -12 -35 -12 -51 0 -20 -13 -40 -49 -74 -27 -26 -62 -53 -79 -62 -22 -11 -31 -24 -35 -51 -3 -20 -16 -62 -28 -93 -17 -43 -30 -61 -53 -72 -25 -12 -35 -27 -52 -80 -12 -36 -34 -85 -49 -108 -18 -28 -30 -61 -33 -94 -4 -47 -3 -53 23 -74 26 -21 27 -23 16 -73 -15 -73 -14 -199 4 -256 21 -71 80 -151 134 -182 25 -15 70 -53 99 -84 32 -35 75 -69 110 -86 51 -25 67 -28 157 -28 79 1 119 6 194 28 224 67 342 165 387 322 13 47 16 87 12 200 l-5 142 28 10 c51 20 49 108 -5 188 -14 20 -30 53 -36 73 -23 74 -32 90 -59 101 -28 12 -66 93 -78 166 -5 29 -13 40 -44 56 -22 11 -39 23 -39 27 0 5 -18 21 -40 38 -21 16 -39 34 -38 39 4 22 -14 101 -25 115 -17 20 -42 36 -107 66 -83 39 -84 41 -44 76 39 34 44 62 13 79 -22 11 -23 31 -3 127 l7 32 -71 0 c-61 0 -70 -2 -67 -17z m153 -650 l37 -18 -57 -3 c-32 -2 -84 -2 -115 0 l-58 3 35 17 c45 22 111 22 158 1z m-148 -422 c18 -64 -29 -103 -141 -116 l-54 -7 34 22 c19 12 51 24 70 27 41 7 71 29 71 53 0 27 -12 31 -24 8 -16 -32 -53 -48 -113 -48 -66 0 -103 14 -103 39 0 26 43 41 128 44 l72 2 0 29 0 29 25 -23 c14 -13 29 -39 35 -59z m476 14 c12 -68 -39 -119 -133 -132 -56 -7 -55 -3 11 30 44 23 51 30 62 74 7 26 13 59 14 72 0 23 1 24 20 6 11 -10 22 -32 26 -50z m-100 -7 c32 -15 31 -46 -2 -58 -33 -13 -111 -13 -119 0 -3 5 -12 7 -21 3 -17 -6 -54 23 -54 44 0 7 10 18 23 23 26 11 139 3 173 -12z"/>
 <path d="M770 890 c0 -23 13 -26 29 -6 9 11 8 15 -5 20 -23 9 -24 8 -24 -14z"/>
 <path d="M1202 892 c4 -21 32 -22 36 -2 2 10 -5 16 -18 17 -15 1 -20 -3 -18 -15z"/>
 <path d="M1164 1983 c3 -10 15 -54 26 -97 12 -44 25 -87 30 -95 4 -9 11 -43 15 -76 8 -69 23 -135 31 -135 3 0 13 9 22 19 19 22 256 103 368 126 104 21 144 49 176 121 15 33 30 80 33 107 l7 47 -357 0 c-335 0 -356 -1 -351 -17z"/>
 </g>
<g id="layer105" fill="#e3c78f" stroke="none">
 <path d="M135 1953 c3 -27 18 -74 33 -107 32 -72 72 -100 176 -121 76 -16 313 -92 353 -113 12 -7 24 -17 26 -24 9 -23 25 11 32 70 4 30 13 78 21 106 7 28 23 85 34 126 11 41 23 83 26 93 5 16 -16 17 -351 17 l-357 0 7 -47z"/>
 <path d="M925 1983 c2 -10 9 -42 16 -71 11 -50 10 -55 -12 -78 l-23 -24 39 -40 c22 -22 45 -40 52 -40 20 0 83 61 83 81 0 10 -10 23 -21 30 -22 11 -23 31 -3 127 l7 32 -71 0 c-61 0 -70 -2 -67 -17z"/>
 <path d="M1164 1983 c3 -10 15 -54 26 -97 12 -44 25 -87 30 -95 4 -9 11 -43 15 -76 8 -69 23 -135 31 -135 3 0 13 9 22 19 19 22 256 103 368 126 104 21 144 49 176 121 15 33 30 80 33 107 l7 47 -357 0 c-335 0 -356 -1 -351 -17z"/>
 <path d="M882 1616 c-65 -21 -92 -43 -92 -72 0 -30 -84 -120 -136 -147 -24 -12 -33 -25 -37 -52 -3 -20 -16 -62 -28 -93 -17 -43 -30 -61 -53 -72 -25 -12 -35 -27 -52 -80 -12 -36 -34 -85 -49 -108 -18 -28 -30 -61 -33 -94 -4 -47 -3 -53 23 -74 26 -21 27 -23 16 -73 -15 -73 -14 -199 4 -256 21 -71 80 -151 134 -182 25 -15 70 -53 99 -84 32 -35 75 -69 110 -86 51 -25 67 -28 157 -28 79 1 119 6 194 28 224 67 342 165 387 322 13 47 16 87 12 200 l-5 142 28 10 c51 20 49 108 -5 188 -14 20 -30 53 -36 73 -23 74 -32 90 -59 101 -28 12 -66 93 -78 166 -5 29 -13 40 -44 56 -22 11 -39 23 -39 27 0 5 -18 21 -40 38 -21 16 -39 34 -38 39 4 56 -2 66 -59 93 -70 32 -210 41 -281 18z m219 -92 c30 -9 73 -27 95 -40 58 -34 131 -115 155 -171 26 -61 109 -349 109 -379 0 -41 -19 -36 -41 11 -23 48 -53 75 -108 93 -105 36 -231 -24 -261 -125 -12 -41 -15 -43 -50 -43 -35 0 -38 2 -50 43 -7 24 -28 57 -49 77 -100 96 -271 71 -323 -47 -20 -45 -38 -49 -38 -8 0 30 82 315 109 377 71 166 279 263 452 212z m-526 -371 c-3 -10 -9 -30 -12 -45 -3 -15 -8 -26 -12 -23 -4 2 -13 0 -21 -6 -12 -7 -12 -9 3 -9 14 0 16 -5 11 -27 -4 -16 -12 -39 -19 -52 -12 -23 -12 -23 -11 16 0 23 4 39 8 37 3 -2 9 0 12 5 7 11 -13 9 -32 -3 -11 -7 -12 -4 -3 12 6 12 11 25 10 29 -4 24 3 45 21 63 25 25 55 27 45 3z m890 3 c10 -7 20 -27 21 -43 1 -16 9 -44 19 -62 9 -18 14 -35 12 -38 -3 -2 -8 5 -12 18 -10 32 -25 3 -18 -36 l5 -30 -15 27 c-20 35 -25 63 -12 63 6 0 9 -6 7 -15 -2 -13 -2 -13 8 0 7 11 4 20 -14 35 -18 16 -46 71 -46 91 0 9 28 3 45 -10z m-652 -137 c50 -13 103 -61 118 -106 10 -31 9 -39 -8 -62 -29 -39 -104 -62 -180 -57 -78 6 -119 27 -140 70 -28 60 7 125 82 151 49 17 78 18 128 4z m489 1 c84 -24 127 -95 94 -159 -25 -48 -69 -66 -156 -65 -86 1 -140 20 -165 58 -31 47 15 125 95 160 41 18 81 20 132 6z m-806 -99 c5 -17 4 -22 -4 -17 -15 9 -16 -6 -2 -20 18 -18 -22 -59 -46 -49 -18 8 -18 9 3 12 12 2 27 12 35 21 12 15 11 16 -4 3 -15 -11 -19 -11 -24 4 -4 9 -2 34 5 54 6 21 12 49 12 62 1 18 3 15 9 -11 5 -19 12 -46 16 -59z m1043 -15 c1 -45 0 -47 -16 -35 -16 13 -17 12 -4 -3 7 -10 23 -18 35 -18 17 0 18 -2 6 -10 -43 -28 -71 10 -44 61 7 15 14 36 13 46 0 10 -5 3 -10 -15 -5 -18 -14 -30 -19 -27 -6 4 -4 18 5 35 8 16 15 37 16 47 2 36 17 -31 18 -81z m-84 -73 c-13 -77 -46 -186 -71 -236 -80 -158 -183 -204 -359 -162 -34 8 -110 15 -175 15 -168 1 -215 27 -259 143 -10 29 -24 93 -30 142 -18 144 -17 147 43 89 86 -84 238 -110 310 -53 20 16 24 24 16 34 -17 20 15 38 70 38 55 0 87 -18 70 -38 -8 -10 -4 -18 16 -34 70 -55 218 -32 303 48 29 27 60 50 69 51 2 0 0 -17 -3 -37z"/>
 <path d="M983 1383 c9 -2 25 -2 35 0 9 3 1 5 -18 5 -19 0 -27 -2 -17 -5z"/>
 <path d="M948 1193 c-21 -2 -38 -8 -38 -12 0 -5 21 -5 46 0 28 5 53 5 64 -1 10 -6 29 -9 42 -7 15 1 22 -3 20 -11 -1 -8 2 -11 7 -7 19 11 -1 35 -28 34 -14 -1 -37 0 -51 3 -14 3 -42 3 -62 1z"/>
 <path d="M743 941 c-24 -4 -46 -10 -50 -14 -3 -4 8 -4 26 -1 18 4 58 7 91 8 32 0 56 4 53 9 -5 8 -60 7 -120 -2z"/>
 <path d="M770 890 c0 -23 13 -26 29 -6 9 11 8 15 -5 20 -23 9 -24 8 -24 -14z"/>
 <path d="M873 881 c-19 -24 -27 -26 -103 -26 -69 0 -84 3 -96 19 -13 18 -14 18 -14 2 0 -21 56 -46 102 -46 69 0 148 39 137 68 -2 5 -14 -3 -26 -17z"/>
 <path d="M1137 943 c-6 -10 71 -8 80 1 3 3 -12 6 -35 6 -22 0 -43 -3 -45 -7z"/>
 <path d="M1231 936 c2 -2 22 -6 44 -9 27 -4 35 -3 25 3 -14 9 -79 15 -69 6z"/>
 <path d="M1101 896 c2 -10 17 -28 32 -40 39 -29 155 -30 186 -2 12 11 21 24 21 29 0 6 -6 3 -13 -7 -15 -21 -103 -34 -134 -21 -10 5 -25 7 -34 6 -9 -1 -27 11 -39 26 -17 21 -21 23 -19 9z"/>
 <path d="M1202 892 c4 -21 32 -22 36 -2 2 10 -5 16 -18 17 -15 1 -20 -3 -18 -15z"/>
 </g>
<g id="layer106" fill="#e59375" stroke="none">
 <path d="M135 1953 c3 -27 18 -74 33 -107 32 -72 72 -100 176 -121 76 -16 313 -92 353 -113 12 -7 24 -17 26 -24 9 -23 25 11 32 70 4 30 13 78 21 106 7 28 23 85 34 126 11 41 23 83 26 93 5 16 -16 17 -351 17 l-357 0 7 -47z"/>
 <path d="M925 1983 c2 -10 9 -42 16 -71 11 -50 10 -55 -12 -78 l-23 -24 39 -40 c22 -22 45 -40 52 -40 20 0 83 61 83 81 0 10 -10 23 -21 30 -22 11 -23 31 -3 127 l7 32 -71 0 c-61 0 -70 -2 -67 -17z"/>
 <path d="M1164 1983 c3 -10 15 -54 26 -97 12 -44 25 -87 30 -95 4 -9 11 -43 15 -76 8 -69 23 -135 31 -135 3 0 13 9 22 19 19 22 256 103 368 126 104 21 144 49 176 121 15 33 30 80 33 107 l7 47 -357 0 c-335 0 -356 -1 -351 -17z"/>
 <path d="M882 1616 c-65 -21 -92 -43 -92 -72 0 -30 -84 -120 -136 -147 -24 -12 -33 -25 -37 -52 -3 -20 -16 -62 -28 -93 -17 -43 -30 -61 -53 -72 -25 -12 -35 -27 -52 -80 -12 -36 -34 -85 -49 -108 -18 -28 -30 -61 -33 -94 -4 -47 -3 -53 23 -74 26 -21 27 -23 16 -73 -15 -73 -14 -199 4 -256 21 -71 80 -151 134 -182 25 -15 70 -53 99 -84 32 -35 75 -69 110 -86 51 -25 67 -28 157 -28 79 1 119 6 194 28 224 67 342 165 387 322 13 47 16 87 12 200 l-5 142 28 10 c51 20 49 108 -5 188 -14 20 -30 53 -36 73 -23 74 -32 90 -59 101 -28 12 -66 93 -78 166 -5 29 -13 40 -44 56 -22 11 -39 23 -39 27 0 5 -18 21 -40 38 -21 16 -39 34 -38 39 4 56 -2 66 -59 93 -70 32 -210 41 -281 18z m219 -92 c30 -9 73 -27 95 -40 58 -34 131 -115 155 -171 31 -73 111 -359 107 -385 -3 -26 -17 -30 -28 -8 -28 59 -43 78 -82 100 -54 31 -144 34 -202 5 -46 -22 -96 -87 -96 -125 0 -31 -31 -45 -75 -34 -19 5 -25 13 -25 34 0 38 -50 103 -96 125 -25 12 -61 19 -99 19 -83 1 -140 -32 -172 -97 -25 -49 -43 -54 -43 -12 0 30 82 315 109 377 71 166 279 263 452 212z m-526 -371 c-3 -10 -9 -30 -12 -45 -3 -15 -8 -26 -12 -23 -4 2 -13 0 -21 -6 -12 -7 -12 -9 3 -9 14 0 16 -5 11 -27 -4 -16 -12 -39 -19 -52 -12 -23 -12 -23 -11 16 0 23 4 39 8 37 3 -2 9 0 12 5 7 11 -13 9 -32 -3 -11 -7 -12 -4 -3 12 6 12 11 25 10 29 -4 24 3 45 21 63 25 25 55 27 45 3z m890 3 c10 -7 20 -27 21 -43 1 -16 9 -44 19 -62 9 -18 14 -35 12 -38 -3 -2 -8 5 -12 18 -10 32 -25 3 -18 -36 l5 -30 -15 27 c-20 35 -25 63 -12 63 6 0 9 -6 7 -15 -2 -13 -2 -13 8 0 7 11 4 20 -14 35 -18 16 -46 71 -46 91 0 9 28 3 45 -10z m-614 -149 c57 -30 99 -101 84 -143 -20 -56 -154 -91 -250 -64 -90 25 -122 106 -68 171 53 63 153 78 234 36z m472 9 c47 -19 87 -70 87 -111 0 -46 -40 -92 -93 -106 -56 -15 -157 -6 -204 18 -55 29 -64 62 -33 121 43 80 154 116 243 78z m-827 -95 c5 -17 4 -22 -4 -17 -15 9 -16 -6 -2 -20 18 -18 -22 -59 -46 -49 -18 8 -18 9 3 12 12 2 27 12 35 21 12 15 11 16 -4 3 -15 -11 -19 -11 -24 4 -4 9 -2 34 5 54 6 21 12 49 12 62 1 18 3 15 9 -11 5 -19 12 -46 16 -59z m1043 -15 c1 -45 0 -47 -16 -35 -16 13 -17 12 -4 -3 7 -10 23 -18 35 -18 17 0 18 -2 6 -10 -43 -28 -71 10 -44 61 7 15 14 36 13 46 0 10 -5 3 -10 -15 -5 -18 -14 -30 -19 -27 -6 4 -4 18 5 35 8 16 15 37 16 47 2 36 17 -31 18 -81z m-84 -68 c-12 -77 -45 -188 -71 -241 -80 -158 -183 -204 -359 -162 -34 8 -110 15 -175 15 -168 1 -215 27 -259 143 -16 45 -41 194 -41 250 0 27 27 20 52 -13 64 -88 262 -118 323 -50 16 17 16 20 2 26 -14 5 -14 7 1 22 23 23 121 23 144 0 15 -15 15 -17 1 -22 -14 -6 -14 -9 2 -26 61 -67 233 -44 315 43 19 21 40 37 47 37 7 0 13 5 13 10 0 6 3 10 6 10 3 0 3 -19 -1 -42z"/>
 <path d="M983 1383 c9 -2 25 -2 35 0 9 3 1 5 -18 5 -19 0 -27 -2 -17 -5z"/>
 <path d="M948 1193 c-21 -2 -38 -8 -38 -12 0 -5 21 -5 46 0 28 5 53 5 64 -1 10 -6 29 -9 42 -7 15 1 22 -3 20 -11 -1 -8 2 -11 7 -7 19 11 -1 35 -28 34 -14 -1 -37 0 -51 3 -14 3 -42 3 -62 1z"/>
 <path d="M743 941 c-24 -4 -46 -10 -50 -14 -3 -4 8 -4 26 -1 18 4 58 7 91 8 32 0 56 4 53 9 -5 8 -60 7 -120 -2z"/>
 <path d="M770 890 c0 -23 13 -26 29 -6 9 11 8 15 -5 20 -23 9 -24 8 -24 -14z"/>
 <path d="M873 881 c-19 -24 -27 -26 -103 -26 -69 0 -84 3 -96 19 -13 18 -14 18 -14 2 0 -21 56 -46 102 -46 69 0 148 39 137 68 -2 5 -14 -3 -26 -17z"/>
 <path d="M1137 943 c-6 -10 71 -8 80 1 3 3 -12 6 -35 6 -22 0 -43 -3 -45 -7z"/>
 <path d="M1231 936 c2 -2 22 -6 44 -9 27 -4 35 -3 25 3 -14 9 -79 15 -69 6z"/>
 <path d="M1101 896 c2 -10 17 -28 32 -40 39 -29 155 -30 186 -2 12 11 21 24 21 29 0 6 -6 3 -13 -7 -15 -21 -103 -34 -134 -21 -10 5 -25 7 -34 6 -9 -1 -27 11 -39 26 -17 21 -21 23 -19 9z"/>
 <path d="M1202 892 c4 -21 32 -22 36 -2 2 10 -5 16 -18 17 -15 1 -20 -3 -18 -15z"/>
 </g>
<g id="layer107" fill="#da9967" stroke="none">
 <path d="M135 1953 c3 -27 18 -74 33 -107 32 -72 72 -100 176 -121 76 -16 313 -92 353 -113 12 -7 24 -17 26 -24 9 -23 25 11 32 70 4 30 13 78 21 106 7 28 23 85 34 126 11 41 23 83 26 93 5 16 -16 17 -351 17 l-357 0 7 -47z"/>
 <path d="M925 1983 c2 -10 9 -42 16 -71 11 -50 10 -55 -12 -78 l-23 -24 39 -40 c22 -22 45 -40 52 -40 20 0 83 61 83 81 0 10 -10 23 -21 30 -22 11 -23 31 -3 127 l7 32 -71 0 c-61 0 -70 -2 -67 -17z"/>
 <path d="M1164 1983 c3 -10 15 -54 26 -97 12 -44 25 -87 30 -95 4 -9 11 -43 15 -76 8 -69 23 -135 31 -135 3 0 13 9 22 19 19 22 256 103 368 126 104 21 144 49 176 121 15 33 30 80 33 107 l7 47 -357 0 c-335 0 -356 -1 -351 -17z"/>
 <path d="M863 1553 c-58 -3 -73 -7 -73 -20 0 -19 -95 -115 -136 -136 -24 -12 -33 -25 -37 -52 -3 -20 -16 -62 -28 -93 -17 -43 -30 -61 -53 -72 -25 -12 -35 -27 -52 -80 -12 -36 -34 -85 -49 -108 -18 -28 -30 -61 -33 -94 -4 -47 -3 -53 23 -74 26 -21 27 -23 16 -73 -15 -73 -14 -199 4 -256 21 -71 80 -151 134 -182 25 -15 70 -53 99 -84 32 -35 75 -69 110 -86 51 -25 67 -28 157 -28 79 1 119 6 194 28 224 67 342 165 387 322 13 47 16 87 12 200 l-5 142 28 10 c51 20 49 108 -5 188 -14 20 -30 53 -36 73 -23 74 -32 90 -59 101 -28 12 -66 93 -78 166 -5 29 -13 40 -44 56 -22 11 -39 23 -39 27 0 5 -18 21 -40 38 -21 16 -39 34 -38 39 4 51 8 50 -145 51 -78 0 -175 -1 -214 -3z m300 -51 c79 -36 153 -107 185 -175 34 -73 114 -354 110 -390 -3 -32 -18 -40 -29 -15 -40 88 -92 123 -184 122 -38 0 -74 -7 -99 -19 -46 -22 -96 -87 -96 -125 0 -31 -31 -45 -75 -34 -19 5 -25 13 -25 34 0 38 -50 103 -96 125 -25 12 -61 19 -99 19 -83 1 -140 -32 -172 -97 -26 -51 -43 -54 -43 -5 0 32 58 245 93 338 62 169 203 264 382 257 66 -3 94 -9 148 -35z m-587 -349 c-3 -10 -15 -54 -27 -98 -24 -93 -35 -110 -44 -69 -11 49 -12 50 -20 21 -5 -19 -2 -41 10 -66 16 -37 16 -41 0 -75 -17 -35 -46 -48 -60 -26 -3 6 0 10 7 10 9 0 13 15 13 48 0 26 4 58 9 72 8 23 8 24 -10 10 -18 -14 -18 -14 -3 5 24 29 45 75 53 114 8 41 32 71 58 71 14 0 18 -5 14 -17z m894 3 c6 -8 20 -43 30 -76 10 -34 27 -71 37 -83 10 -11 12 -17 4 -12 -11 6 -12 1 -5 -26 5 -19 9 -51 8 -72 0 -32 3 -38 19 -33 15 4 16 2 6 -10 -6 -8 -22 -14 -35 -14 -18 0 -25 7 -30 28 -3 15 -7 33 -9 39 -2 7 2 28 10 47 19 45 19 57 0 82 -15 19 -16 19 -14 -1 6 -83 -14 -70 -41 28 -12 45 -25 90 -27 100 -7 21 29 24 47 3z m-619 -149 c57 -30 99 -101 84 -143 -20 -56 -154 -91 -250 -64 -90 25 -122 106 -68 171 53 63 153 78 234 36z m472 9 c47 -19 87 -70 87 -111 0 -46 -40 -92 -93 -106 -56 -15 -157 -6 -204 18 -55 29 -64 62 -33 121 43 80 154 116 243 78z m127 -213 c-28 -147 -86 -273 -152 -328 -67 -56 -150 -68 -278 -40 -36 8 -114 14 -173 15 -148 0 -197 22 -240 105 -28 57 -45 126 -53 222 -8 95 2 106 50 52 65 -73 216 -107 294 -66 30 16 45 47 22 47 -5 0 -2 8 8 18 23 23 120 24 144 0 12 -12 13 -18 5 -21 -23 -9 9 -41 54 -55 81 -24 207 12 265 77 15 17 33 31 41 31 7 0 13 5 13 12 0 6 3 9 6 5 4 -3 1 -37 -6 -74z"/>
 <path d="M743 941 c-24 -4 -46 -10 -50 -14 -3 -4 8 -4 26 -1 18 4 58 7 91 8 32 0 56 4 53 9 -5 8 -60 7 -120 -2z"/>
 <path d="M770 890 c0 -23 13 -26 29 -6 9 11 8 15 -5 20 -23 9 -24 8 -24 -14z"/>
 <path d="M873 881 c-19 -24 -27 -26 -103 -26 -69 0 -84 3 -96 19 -13 18 -14 18 -14 2 0 -21 56 -46 102 -46 69 0 148 39 137 68 -2 5 -14 -3 -26 -17z"/>
 <path d="M1137 943 c-6 -10 71 -8 80 1 3 3 -12 6 -35 6 -22 0 -43 -3 -45 -7z"/>
 <path d="M1231 936 c2 -2 22 -6 44 -9 27 -4 35 -3 25 3 -14 9 -79 15 -69 6z"/>
 <path d="M1101 896 c2 -10 17 -28 32 -40 39 -29 155 -30 186 -2 12 11 21 24 21 29 0 6 -6 3 -13 -7 -15 -21 -103 -34 -134 -21 -10 5 -25 7 -34 6 -9 -1 -27 11 -39 26 -17 21 -21 23 -19 9z"/>
 <path d="M1202 892 c4 -21 32 -22 36 -2 2 10 -5 16 -18 17 -15 1 -20 -3 -18 -15z"/>
 </g>
<g id="layer108" fill="#a4999d" stroke="none">
 <path d="M135 1953 c3 -27 18 -74 33 -107 32 -72 72 -100 176 -121 76 -16 313 -92 353 -113 12 -7 24 -17 26 -24 9 -23 25 11 32 70 4 30 13 78 21 106 7 28 23 85 34 126 11 41 23 83 26 93 5 16 -16 17 -351 17 l-357 0 7 -47z"/>
 <path d="M925 1983 c2 -10 9 -42 16 -71 11 -50 10 -55 -12 -78 l-23 -24 39 -40 c22 -22 45 -40 52 -40 20 0 83 61 83 81 0 10 -10 23 -21 30 -22 11 -23 31 -3 127 l7 32 -71 0 c-61 0 -70 -2 -67 -17z"/>
 <path d="M1164 1983 c3 -10 15 -54 26 -97 12 -44 25 -87 30 -95 4 -9 11 -43 15 -76 8 -69 23 -135 31 -135 3 0 13 9 22 19 19 22 256 103 368 126 104 21 144 49 176 121 15 33 30 80 33 107 l7 47 -357 0 c-335 0 -356 -1 -351 -17z"/>
 <path d="M907 1549 c-21 -5 -55 -17 -77 -28 -22 -11 -40 -16 -40 -11 0 4 -24 -16 -52 -45 -29 -28 -67 -59 -84 -68 -24 -12 -33 -25 -37 -52 -3 -20 -16 -62 -28 -93 -17 -43 -30 -61 -53 -72 -25 -12 -35 -27 -52 -80 -12 -36 -34 -85 -49 -108 -18 -28 -30 -61 -33 -94 -4 -47 -3 -53 23 -74 26 -21 27 -23 16 -73 -15 -73 -14 -199 4 -256 21 -71 80 -151 134 -182 25 -15 70 -53 99 -84 32 -35 75 -69 110 -86 51 -25 67 -28 157 -28 79 1 119 6 194 28 224 67 342 165 387 322 13 47 16 87 12 200 l-5 142 28 10 c51 20 49 108 -5 188 -14 20 -30 53 -36 73 -23 74 -32 90 -59 101 -28 12 -66 93 -78 166 -5 29 -13 40 -44 56 -22 11 -39 23 -39 27 0 5 -18 21 -40 38 -22 16 -38 34 -35 41 2 7 0 15 -5 18 -6 4 -10 0 -10 -9 0 -12 -7 -11 -39 5 -77 37 -179 48 -264 28z m219 -28 c136 -48 206 -131 263 -311 64 -199 79 -263 70 -288 -11 -28 -26 -28 -34 1 -13 47 -31 70 -75 95 -90 53 -219 27 -275 -55 -14 -21 -25 -50 -25 -64 0 -30 -31 -44 -75 -33 -19 5 -25 13 -25 33 0 14 -11 43 -25 64 -56 82 -185 108 -275 55 -44 -26 -62 -48 -75 -96 -9 -32 -29 -22 -33 16 -7 69 95 379 146 447 45 59 129 120 192 140 67 20 180 19 246 -4z m-546 -357 c0 -16 -53 -190 -60 -198 -5 -5 -12 3 -15 20 -11 49 -12 50 -20 21 -5 -19 -2 -41 10 -66 16 -37 16 -41 0 -75 -19 -39 -43 -46 -69 -20 -9 8 -16 18 -16 22 0 3 5 1 12 -6 23 -23 33 -12 34 41 1 65 6 96 21 122 6 11 16 40 23 65 14 52 35 80 62 80 10 0 18 -2 18 -6z m892 -11 c9 -10 19 -34 23 -53 8 -40 29 -84 56 -119 11 -13 19 -29 19 -35 -1 -6 -8 2 -16 17 -20 37 -27 30 -13 -12 6 -17 9 -47 7 -67 -4 -31 -2 -35 15 -30 15 4 16 2 6 -10 -6 -8 -22 -14 -34 -14 -37 0 -52 57 -30 113 12 33 14 49 6 70 -6 15 -13 27 -16 27 -4 0 -3 -5 0 -10 8 -13 -4 -70 -14 -70 -4 0 -17 39 -30 88 -13 48 -26 95 -28 105 -4 12 0 17 14 17 11 0 27 -8 35 -17z m-621 -146 c57 -30 99 -101 84 -143 -20 -56 -154 -91 -250 -64 -90 25 -122 106 -68 171 53 63 153 78 234 36z m472 9 c47 -19 87 -70 87 -111 0 -46 -40 -92 -93 -106 -56 -15 -157 -6 -204 18 -55 29 -64 62 -33 121 43 80 154 116 243 78z m128 -210 c-25 -142 -86 -275 -153 -331 -67 -56 -150 -68 -278 -40 -36 8 -114 15 -175 15 -129 1 -176 17 -220 74 -35 46 -62 142 -71 252 -8 98 1 106 55 50 71 -73 212 -104 289 -63 30 16 45 47 22 47 -5 0 -2 8 8 18 22 22 119 24 144 2 13 -10 15 -16 5 -22 -21 -13 6 -42 54 -56 81 -24 197 9 260 74 18 19 39 34 46 34 7 0 13 5 13 12 0 6 3 9 6 5 3 -3 1 -35 -5 -71z"/>
 <path d="M743 941 c-24 -4 -46 -10 -50 -14 -3 -4 8 -4 26 -1 18 4 58 7 91 8 32 0 56 4 53 9 -5 8 -60 7 -120 -2z"/>
 <path d="M770 890 c0 -23 13 -26 29 -6 9 11 8 15 -5 20 -23 9 -24 8 -24 -14z"/>
 <path d="M873 881 c-19 -24 -27 -26 -103 -26 -69 0 -84 3 -96 19 -13 18 -14 18 -14 2 0 -21 56 -46 102 -46 69 0 148 39 137 68 -2 5 -14 -3 -26 -17z"/>
 <path d="M1137 943 c-6 -10 71 -8 80 1 3 3 -12 6 -35 6 -22 0 -43 -3 -45 -7z"/>
 <path d="M1231 936 c2 -2 22 -6 44 -9 27 -4 35 -3 25 3 -14 9 -79 15 -69 6z"/>
 <path d="M1101 896 c2 -10 17 -28 32 -40 39 -29 155 -30 186 -2 12 11 21 24 21 29 0 6 -6 3 -13 -7 -15 -21 -103 -34 -134 -21 -10 5 -25 7 -34 6 -9 -1 -27 11 -39 26 -17 21 -21 23 -19 9z"/>
 <path d="M1202 892 c4 -21 32 -22 36 -2 2 10 -5 16 -18 17 -15 1 -20 -3 -18 -15z"/>
 </g>
<g id="layer109" fill="#bbb74a" stroke="none">
 <path d="M135 1953 c3 -27 18 -74 33 -107 32 -72 72 -100 176 -121 76 -16 313 -92 353 -113 12 -7 24 -17 26 -24 9 -21 27 12 27 48 0 29 14 86 69 292 l19 72 -355 0 -355 0 7 -47z"/>
 <path d="M936 1938 c8 -34 17 -64 19 -67 3 -2 -6 -17 -21 -32 l-26 -27 37 -41 c21 -23 42 -41 47 -41 20 0 88 62 88 80 0 11 -10 24 -21 31 -19 10 -21 17 -15 62 4 29 10 62 13 75 5 21 3 22 -65 22 l-70 0 14 -62z"/>
 <path d="M1177 1943 c8 -32 25 -92 38 -133 12 -41 26 -105 30 -141 9 -85 18 -100 42 -72 20 24 250 103 369 128 104 21 144 49 176 121 15 33 30 80 33 107 l7 47 -355 0 -355 0 15 -57z"/>
 <path d="M907 1549 c-21 -5 -55 -17 -77 -28 -22 -11 -40 -16 -40 -11 0 4 -24 -16 -52 -45 -29 -28 -67 -59 -84 -68 -24 -12 -33 -25 -37 -52 -3 -20 -16 -62 -28 -93 -17 -43 -30 -61 -53 -72 -25 -12 -35 -27 -52 -80 -12 -36 -34 -85 -49 -108 -18 -28 -30 -61 -33 -94 -4 -47 -3 -53 23 -74 26 -21 27 -23 16 -73 -15 -73 -14 -199 4 -256 21 -71 80 -151 134 -182 25 -15 70 -53 99 -84 32 -35 75 -69 110 -86 51 -25 67 -28 157 -28 79 1 119 6 194 28 224 67 342 165 387 322 13 47 16 87 12 200 l-5 142 28 10 c51 20 49 108 -5 188 -14 20 -30 53 -36 73 -23 74 -32 90 -59 101 -28 12 -66 93 -78 166 -5 29 -13 40 -44 56 -22 11 -39 23 -39 27 0 5 -18 21 -40 38 -22 16 -38 34 -35 41 2 7 0 15 -5 18 -6 4 -10 0 -10 -9 0 -12 -7 -11 -39 5 -77 37 -179 48 -264 28z m219 -28 c136 -48 206 -131 263 -311 64 -199 79 -263 70 -288 -11 -28 -26 -28 -34 1 -13 47 -31 70 -75 95 -90 53 -219 27 -275 -55 -14 -21 -25 -50 -25 -64 0 -30 -31 -44 -75 -33 -19 5 -25 13 -25 33 0 14 -11 43 -25 64 -56 82 -185 108 -275 55 -44 -26 -62 -48 -75 -96 -9 -32 -29 -22 -33 16 -7 69 95 379 146 447 45 59 129 120 192 140 67 20 180 19 246 -4z m-546 -357 c0 -16 -53 -190 -60 -198 -5 -5 -12 3 -15 20 -11 49 -12 50 -20 21 -5 -19 -2 -41 10 -66 16 -37 16 -41 0 -75 -19 -39 -43 -46 -69 -20 -9 8 -16 18 -16 22 0 3 5 1 12 -6 23 -23 33 -12 34 41 1 65 6 96 21 122 6 11 16 40 23 65 14 52 35 80 62 80 10 0 18 -2 18 -6z m892 -11 c9 -10 19 -34 23 -53 8 -40 29 -84 56 -119 11 -13 19 -29 19 -35 -1 -6 -8 2 -16 17 -20 37 -27 30 -13 -12 6 -17 9 -47 7 -67 -4 -31 -2 -35 15 -30 15 4 16 2 6 -10 -6 -8 -22 -14 -34 -14 -37 0 -52 57 -30 113 12 33 14 49 6 70 -6 15 -13 27 -16 27 -4 0 -3 -5 0 -10 8 -13 -4 -70 -14 -70 -4 0 -17 39 -30 88 -13 48 -26 95 -28 105 -4 12 0 17 14 17 11 0 27 -8 35 -17z m-621 -146 c57 -30 99 -101 84 -143 -20 -56 -154 -91 -250 -64 -90 25 -122 106 -68 171 53 63 153 78 234 36z m472 9 c47 -19 87 -70 87 -111 0 -46 -40 -92 -93 -106 -56 -15 -157 -6 -204 18 -55 29 -64 62 -33 121 43 80 154 116 243 78z m128 -210 c-25 -142 -86 -275 -153 -331 -67 -56 -150 -68 -278 -40 -36 8 -114 15 -175 15 -129 1 -176 17 -220 74 -35 46 -62 142 -71 252 -8 98 1 106 55 50 71 -73 212 -104 289 -63 30 16 45 47 22 47 -5 0 -2 8 8 18 22 22 119 24 144 2 13 -10 15 -16 5 -22 -21 -13 6 -42 54 -56 81 -24 197 9 260 74 18 19 39 34 46 34 7 0 13 5 13 12 0 6 3 9 6 5 3 -3 1 -35 -5 -71z"/>
 <path d="M770 895 c0 -21 16 -27 29 -11 9 11 7 15 -9 19 -13 3 -20 0 -20 -8z"/>
 <path d="M660 882 c0 -34 102 -63 150 -43 21 8 13 10 -42 10 -54 1 -72 5 -88 21 -11 11 -20 16 -20 12z"/>
 <path d="M1200 896 c0 -21 16 -28 29 -12 9 11 8 15 -5 20 -22 8 -24 8 -24 -8z"/>
 <path d="M1100 894 c0 -20 34 -42 82 -54 53 -14 105 -7 134 16 18 15 18 15 -3 5 -29 -15 -139 -14 -166 1 -12 6 -27 18 -34 27 -7 9 -13 11 -13 5z"/>
 </g>
<g id="layer110" fill="#d07250" stroke="none">
 <path d="M135 1953 c3 -27 18 -74 33 -107 32 -72 72 -100 176 -121 76 -16 313 -92 353 -113 12 -7 24 -17 26 -24 9 -21 27 12 27 48 0 29 14 86 69 292 l19 72 -355 0 -355 0 7 -47z"/>
 <path d="M936 1938 c8 -34 17 -64 19 -67 3 -2 -6 -17 -21 -32 l-26 -27 37 -41 c21 -23 42 -41 47 -41 20 0 88 62 88 80 0 11 -10 24 -21 31 -19 10 -21 17 -15 62 4 29 10 62 13 75 5 21 3 22 -65 22 l-70 0 14 -62z"/>
 <path d="M1177 1943 c8 -32 25 -92 38 -133 12 -41 26 -105 30 -141 9 -85 18 -100 42 -72 20 24 250 103 369 128 104 21 144 49 176 121 15 33 30 80 33 107 l7 47 -355 0 -355 0 15 -57z"/>
 <path d="M907 1549 c-21 -5 -55 -17 -77 -28 -22 -11 -40 -16 -40 -11 0 4 -24 -16 -52 -45 -29 -28 -67 -59 -84 -68 -24 -12 -33 -25 -37 -52 -3 -20 -16 -62 -28 -93 -17 -43 -30 -61 -53 -72 -25 -12 -35 -27 -52 -80 -12 -36 -34 -85 -49 -108 -18 -28 -30 -61 -33 -94 -4 -47 -3 -53 23 -74 26 -21 27 -23 16 -73 -15 -73 -14 -199 4 -256 21 -71 80 -151 134 -182 25 -15 70 -53 99 -84 32 -35 75 -69 110 -86 51 -25 67 -28 157 -28 79 1 119 6 194 28 224 67 342 165 387 322 13 47 16 87 12 200 l-5 142 28 10 c51 20 49 108 -5 188 -14 20 -30 53 -36 73 -23 74 -32 90 -59 101 -28 12 -66 93 -78 166 -5 29 -13 40 -44 56 -22 11 -39 23 -39 27 0 5 -18 21 -40 38 -22 16 -38 34 -35 41 2 7 0 15 -5 18 -6 4 -10 0 -10 -9 0 -12 -7 -11 -39 5 -77 37 -179 48 -264 28z m219 -28 c136 -48 206 -131 263 -311 77 -242 90 -315 53 -308 -8 2 -19 16 -23 32 -23 85 -161 134 -262 92 -40 -16 -95 -77 -103 -114 -11 -50 -13 -52 -54 -52 -41 0 -43 2 -54 52 -8 37 -63 98 -103 114 -101 42 -239 -7 -262 -92 -4 -16 -16 -31 -26 -33 -16 -3 -17 3 -12 55 6 64 75 298 108 368 42 89 137 172 232 201 64 21 178 18 243 -4z m-546 -357 c0 -16 -53 -190 -60 -198 -5 -5 -12 3 -15 20 -11 49 -12 50 -20 21 -5 -19 -2 -41 10 -66 16 -37 16 -41 0 -75 -19 -39 -43 -46 -69 -20 -9 8 -16 18 -16 22 0 3 5 1 12 -6 23 -23 33 -12 34 41 1 65 6 96 21 122 6 11 16 40 23 65 14 52 35 80 62 80 10 0 18 -2 18 -6z m892 -11 c9 -10 19 -34 23 -53 8 -40 29 -84 56 -119 11 -13 19 -29 19 -35 -1 -6 -8 2 -16 17 -20 37 -27 30 -13 -12 6 -17 9 -47 7 -67 -4 -31 -2 -35 15 -30 15 4 16 2 6 -10 -6 -8 -22 -14 -34 -14 -37 0 -52 57 -30 113 12 33 14 49 6 70 -6 15 -13 27 -16 27 -4 0 -3 -5 0 -10 8 -13 -4 -70 -14 -70 -4 0 -17 39 -30 88 -13 48 -26 95 -28 105 -4 12 0 17 14 17 11 0 27 -8 35 -17z m-599 -156 c69 -52 88 -129 42 -165 -13 -11 -22 -21 -20 -24 5 -5 -7 -6 -107 -14 -127 -10 -198 29 -198 110 0 83 63 128 176 123 60 -2 77 -7 107 -30z m467 13 c50 -26 70 -55 70 -105 0 -81 -66 -118 -201 -113 -48 1 -86 5 -83 7 2 2 -9 12 -26 22 -32 20 -46 55 -36 93 9 35 55 86 91 102 46 20 139 17 185 -6z m-760 -130 c0 -5 -6 -10 -12 -11 -9 0 -9 -2 1 -6 8 -3 27 -20 42 -38 62 -70 210 -102 287 -62 31 17 44 47 20 47 -6 0 -4 8 6 19 23 25 122 27 149 3 13 -12 15 -17 5 -23 -22 -14 5 -42 53 -57 81 -24 203 10 259 74 16 19 34 34 39 34 6 0 15 8 21 18 17 26 3 -83 -21 -165 -39 -139 -104 -234 -184 -272 -53 -25 -129 -27 -225 -6 -36 8 -114 15 -175 15 -170 1 -228 39 -265 174 -21 75 -35 205 -26 241 6 24 26 36 26 15z"/>
 <path d="M770 895 c0 -21 16 -27 29 -11 9 11 7 15 -9 19 -13 3 -20 0 -20 -8z"/>
 <path d="M660 882 c0 -34 102 -63 150 -43 21 8 13 10 -42 10 -54 1 -72 5 -88 21 -11 11 -20 16 -20 12z"/>
 <path d="M1200 896 c0 -21 16 -28 29 -12 9 11 8 15 -5 20 -22 8 -24 8 -24 -8z"/>
 <path d="M1100 894 c0 -20 34 -42 82 -54 53 -14 105 -7 134 16 18 15 18 15 -3 5 -29 -15 -139 -14 -166 1 -12 6 -27 18 -34 27 -7 9 -13 11 -13 5z"/>
 </g>
<g id="layer111" fill="#9fcc1c" stroke="none">
 <path d="M135 1953 c3 -27 18 -74 33 -107 32 -72 72 -100 176 -121 76 -16 313 -92 353 -113 12 -7 24 -17 26 -24 9 -21 27 12 27 48 0 29 14 86 69 292 l19 72 -355 0 -355 0 7 -47z"/>
 <path d="M936 1938 c8 -34 17 -64 19 -67 3 -2 -6 -17 -21 -32 l-26 -27 37 -41 c21 -23 42 -41 47 -41 20 0 88 62 88 80 0 11 -10 24 -21 31 -19 10 -21 17 -15 62 4 29 10 62 13 75 5 21 3 22 -65 22 l-70 0 14 -62z"/>
 <path d="M1177 1943 c8 -32 25 -92 38 -133 12 -41 26 -105 30 -141 9 -85 18 -100 42 -72 20 24 250 103 369 128 104 21 144 49 176 121 15 33 30 80 33 107 l7 47 -355 0 -355 0 15 -57z"/>
 <path d="M1210 1507 c0 -15 10 -31 24 -41 69 -45 117 -119 157 -243 12 -40 26 -68 30 -62 4 7 17 9 32 5 21 -5 29 -18 47 -73 12 -38 26 -73 32 -80 5 -7 6 -18 2 -24 -4 -7 -3 -9 3 -6 16 10 31 -13 43 -66 12 -54 3 -81 -30 -90 -26 -7 -47 14 -59 60 -8 28 -7 39 4 50 8 8 15 31 14 51 l0 37 -12 -30 c-7 -16 -19 -45 -26 -63 -16 -40 -41 -39 -52 2 -23 85 -161 134 -262 92 -40 -16 -95 -77 -103 -114 -11 -50 -13 -52 -54 -52 -41 0 -43 2 -54 52 -8 37 -63 98 -103 114 -101 42 -239 -7 -262 -92 -9 -34 -41 -46 -41 -16 0 10 -9 27 -20 37 -11 10 -20 31 -21 49 0 29 -1 29 -9 8 -10 -23 3 -71 21 -83 14 -8 -19 -87 -42 -100 -14 -7 -23 -5 -40 12 -17 17 -20 28 -15 61 7 40 24 83 31 76 2 -2 -3 -25 -12 -51 -15 -47 -13 -77 7 -77 5 0 11 26 11 58 3 81 3 82 27 132 12 25 22 54 22 65 0 32 28 65 56 65 13 0 24 -6 25 -12 0 -7 15 31 33 84 37 110 75 166 151 226 15 12 25 26 23 32 -1 5 -26 -12 -54 -39 -28 -27 -65 -56 -81 -65 -23 -11 -32 -24 -36 -51 -3 -20 -16 -62 -28 -93 -17 -43 -30 -61 -53 -72 -25 -12 -35 -27 -52 -80 -12 -36 -34 -85 -49 -108 -18 -28 -30 -61 -33 -94 -4 -47 -3 -53 23 -74 26 -21 27 -23 16 -73 -15 -73 -14 -199 4 -256 21 -71 80 -151 134 -182 25 -15 70 -53 99 -84 32 -35 75 -69 110 -86 51 -25 67 -28 157 -28 79 1 119 6 194 28 224 67 342 165 387 322 13 47 16 87 12 200 l-5 142 28 10 c51 20 49 108 -5 188 -14 20 -30 53 -36 73 -23 74 -32 90 -59 101 -28 12 -66 93 -78 166 -5 29 -13 40 -44 56 -22 11 -39 23 -39 27 0 5 -18 21 -40 38 -22 16 -38 34 -35 41 2 7 0 15 -5 18 -6 4 -10 -5 -10 -18z m-337 -510 c69 -52 88 -129 42 -165 -13 -11 -22 -21 -20 -24 5 -5 -7 -6 -107 -14 -127 -10 -198 29 -198 110 0 83 63 128 176 123 60 -2 77 -7 107 -30z m467 13 c50 -26 70 -55 70 -105 0 -81 -66 -118 -201 -113 -48 1 -86 5 -83 7 2 2 -9 12 -26 22 -32 20 -46 55 -36 93 9 35 55 86 91 102 46 20 139 17 185 -6z m-760 -130 c0 -5 -6 -10 -12 -11 -9 0 -9 -2 -2 -5 7 -3 30 -23 53 -44 74 -71 202 -95 284 -53 27 13 38 43 15 43 -6 0 -4 8 6 19 13 15 31 19 76 19 45 0 63 -4 76 -19 10 -11 12 -19 6 -19 -23 0 -12 -30 16 -43 82 -42 209 -18 284 53 23 22 45 40 49 40 4 0 13 8 18 18 19 32 12 -40 -13 -140 -40 -157 -102 -255 -190 -297 -51 -25 -131 -27 -232 -6 -41 8 -117 14 -175 14 -57 -1 -116 3 -130 9 -50 20 -97 72 -119 129 -24 63 -46 236 -36 276 6 26 26 38 26 17z"/>
 <path d="M770 895 c0 -21 16 -27 29 -11 9 11 7 15 -9 19 -13 3 -20 0 -20 -8z"/>
 <path d="M660 882 c0 -34 102 -63 150 -43 21 8 13 10 -42 10 -54 1 -72 5 -88 21 -11 11 -20 16 -20 12z"/>
 <path d="M1200 896 c0 -21 16 -28 29 -12 9 11 8 15 -5 20 -22 8 -24 8 -24 -8z"/>
 <path d="M1100 894 c0 -20 34 -42 82 -54 53 -14 105 -7 134 16 18 15 18 15 -3 5 -29 -15 -139 -14 -166 1 -12 6 -27 18 -34 27 -7 9 -13 11 -13 5z"/>
 <path d="M1544 957 c3 -10 6 -39 6 -63 0 -43 12 -59 23 -30 7 18 -11 87 -25 101 -8 7 -9 4 -4 -8z"/>
 </g>
<g id="layer112" fill="#807e88" stroke="none">
 <path d="M135 1953 c3 -27 18 -74 33 -107 32 -72 72 -100 176 -121 76 -16 313 -92 353 -113 12 -7 24 -17 26 -24 9 -21 27 12 27 48 0 29 14 86 69 292 l19 72 -355 0 -355 0 7 -47z"/>
 <path d="M936 1938 c8 -34 17 -64 19 -67 3 -2 -6 -17 -21 -32 l-26 -27 37 -41 c21 -23 42 -41 47 -41 20 0 88 62 88 80 0 11 -10 24 -21 31 -19 10 -21 17 -15 62 4 29 10 62 13 75 5 21 3 22 -65 22 l-70 0 14 -62z"/>
 <path d="M1177 1943 c8 -32 25 -92 38 -133 12 -41 26 -105 30 -141 9 -85 18 -100 42 -72 20 24 250 103 369 128 104 21 144 49 176 121 15 33 30 80 33 107 l7 47 -355 0 -355 0 15 -57z"/>
 <path d="M1210 1507 c0 -15 10 -31 24 -41 69 -45 117 -119 157 -243 12 -40 26 -68 30 -62 4 7 17 9 32 5 21 -5 29 -18 47 -73 12 -38 26 -73 32 -80 5 -7 6 -18 2 -24 -4 -7 -3 -9 3 -6 16 10 31 -13 43 -66 12 -54 3 -81 -30 -90 -26 -7 -47 14 -59 60 -8 28 -7 39 4 50 8 8 15 31 14 51 -1 33 -2 34 -9 12 -4 -14 -15 -38 -24 -55 -9 -16 -16 -49 -16 -71 0 -58 -43 -221 -74 -283 -78 -153 -180 -196 -372 -156 -41 8 -117 14 -175 14 -115 -2 -140 5 -192 51 -59 51 -80 129 -102 372 -5 47 -12 71 -26 84 -10 9 -19 31 -20 48 0 29 -1 29 -9 8 -10 -23 3 -71 21 -83 14 -8 -19 -87 -42 -100 -14 -7 -23 -5 -40 12 -17 17 -20 28 -15 61 7 40 24 83 31 76 2 -2 -3 -25 -12 -51 -15 -47 -13 -77 7 -77 5 0 11 26 11 58 3 81 3 82 27 132 12 25 22 54 22 65 0 32 28 65 56 65 13 0 24 -6 25 -12 0 -7 15 31 33 84 37 110 75 166 151 226 15 12 25 26 23 32 -1 5 -26 -12 -54 -39 -28 -27 -65 -56 -81 -65 -23 -11 -32 -24 -36 -51 -3 -20 -16 -62 -28 -93 -17 -43 -30 -61 -53 -72 -25 -12 -35 -27 -52 -80 -12 -36 -34 -85 -49 -108 -18 -28 -30 -61 -33 -94 -4 -47 -3 -53 23 -74 26 -21 27 -23 16 -73 -15 -73 -14 -199 4 -256 21 -71 80 -151 134 -182 25 -15 70 -53 99 -84 32 -35 75 -69 110 -86 51 -25 67 -28 157 -28 79 1 119 6 194 28 224 67 342 165 387 322 13 47 16 87 12 200 l-5 142 28 10 c51 20 49 108 -5 188 -14 20 -30 53 -36 73 -23 74 -32 90 -59 101 -28 12 -66 93 -78 166 -5 29 -13 40 -44 56 -22 11 -39 23 -39 27 0 5 -18 21 -40 38 -22 16 -38 34 -35 41 2 7 0 15 -5 18 -6 4 -10 -5 -10 -18z"/>
 <path d="M1544 957 c3 -10 6 -39 6 -63 0 -43 12 -59 23 -30 7 18 -11 87 -25 101 -8 7 -9 4 -4 -8z"/>
 <path d="M770 895 c0 -21 16 -27 29 -11 9 11 7 15 -9 19 -13 3 -20 0 -20 -8z"/>
 <path d="M1200 896 c0 -21 16 -28 29 -12 9 11 8 15 -5 20 -22 8 -24 8 -24 -8z"/>
 <path d="M1100 894 c0 -20 34 -42 82 -54 53 -14 105 -7 134 16 18 15 18 15 -3 5 -29 -15 -139 -14 -166 1 -12 6 -27 18 -34 27 -7 9 -13 11 -13 5z"/>
 <path d="M660 882 c0 -34 102 -63 150 -43 21 8 13 10 -42 10 -54 1 -72 5 -88 21 -11 11 -20 16 -20 12z"/>
 <path d="M870 795 c-43 -16 -174 -19 -202 -4 -14 8 -18 8 -14 0 13 -21 136 -51 179 -45 54 9 97 30 97 49 0 18 -14 18 -60 0z"/>
 <path d="M1070 795 c0 -19 43 -40 97 -49 42 -6 166 24 178 44 4 6 -4 6 -20 0 -38 -15 -154 -11 -200 5 -50 18 -55 18 -55 0z"/>
 </g>
<g id="layer113" fill="#c75b4a" stroke="none">
 <path d="M135 1953 c3 -27 18 -74 33 -107 32 -72 72 -100 176 -121 76 -16 313 -92 353 -113 12 -7 24 -17 26 -24 10 -24 24 12 31 79 4 35 17 99 31 141 13 42 30 103 38 135 l15 57 -355 0 -355 0 7 -47z"/>
 <path d="M930 1977 c0 -13 7 -45 14 -72 15 -47 14 -48 -10 -67 l-24 -20 19 -24 c11 -14 31 -34 45 -45 l26 -20 27 21 c15 11 33 30 41 41 13 18 12 23 -8 44 -23 25 -24 60 -4 140 6 25 6 25 -60 25 -63 0 -66 -1 -66 -23z"/>
 <path d="M1177 1943 c8 -32 25 -92 38 -133 12 -41 26 -105 30 -141 9 -85 18 -100 42 -72 20 24 250 103 369 128 104 21 144 49 176 121 15 33 30 80 33 107 l7 47 -355 0 -355 0 15 -57z"/>
 <path d="M1210 1507 c0 -15 10 -31 24 -41 69 -45 117 -119 157 -243 12 -40 26 -68 30 -62 4 7 17 9 32 5 21 -5 29 -18 47 -73 12 -38 26 -73 32 -80 5 -7 6 -18 2 -24 -4 -7 -3 -9 3 -6 16 10 31 -13 43 -66 12 -54 3 -81 -30 -90 -26 -7 -47 14 -59 60 -8 28 -7 39 4 50 8 8 15 31 14 51 -1 33 -2 34 -9 12 -4 -14 -15 -38 -24 -55 -9 -16 -16 -49 -16 -71 0 -58 -43 -221 -74 -283 -78 -153 -180 -196 -372 -156 -41 8 -117 14 -175 14 -115 -2 -140 5 -192 51 -59 51 -80 129 -102 372 -5 47 -12 71 -26 84 -10 9 -19 31 -20 48 0 29 -1 29 -9 8 -10 -23 3 -71 21 -83 14 -8 -19 -87 -42 -100 -14 -7 -23 -5 -40 12 -17 17 -20 28 -15 61 7 40 24 83 31 76 2 -2 -3 -25 -12 -51 -15 -47 -13 -77 7 -77 5 0 11 26 11 58 3 81 3 82 27 132 12 25 22 54 22 65 0 32 28 65 56 65 13 0 24 -6 25 -12 0 -7 15 31 33 84 37 110 75 166 151 226 15 12 25 26 23 32 -1 5 -26 -12 -54 -39 -28 -27 -65 -56 -81 -65 -23 -11 -32 -24 -36 -51 -3 -20 -16 -62 -28 -93 -17 -43 -30 -61 -53 -72 -25 -12 -35 -27 -52 -80 -12 -36 -34 -85 -49 -108 -18 -28 -30 -61 -33 -94 -4 -47 -3 -53 23 -74 26 -21 27 -23 16 -73 -15 -73 -14 -199 4 -256 21 -71 80 -151 134 -182 25 -15 70 -53 99 -84 32 -35 75 -69 110 -86 51 -25 67 -28 157 -28 79 1 119 6 194 28 224 67 342 165 387 322 13 47 16 87 12 200 l-5 142 28 10 c51 20 49 108 -5 188 -14 20 -30 53 -36 73 -23 74 -32 90 -59 101 -28 12 -66 93 -78 166 -5 29 -13 40 -44 56 -22 11 -39 23 -39 27 0 5 -18 21 -40 38 -22 16 -38 34 -35 41 2 7 0 15 -5 18 -6 4 -10 -5 -10 -18z"/>
 <path d="M1544 957 c3 -10 6 -39 6 -63 0 -43 12 -59 23 -30 7 18 -11 87 -25 101 -8 7 -9 4 -4 -8z"/>
 <path d="M770 895 c0 -8 7 -15 15 -15 8 0 15 4 15 9 0 5 -7 11 -15 15 -9 3 -15 0 -15 -9z"/>
 <path d="M1208 888 c9 -9 15 -9 24 0 9 9 7 12 -12 12 -19 0 -21 -3 -12 -12z"/>
 <path d="M870 795 c-43 -16 -174 -19 -202 -4 -14 8 -18 8 -14 0 13 -21 136 -51 179 -45 54 9 97 30 97 49 0 18 -14 18 -60 0z"/>
 <path d="M1070 795 c0 -19 43 -40 97 -49 42 -6 166 24 178 44 4 6 -4 6 -20 0 -38 -15 -154 -11 -200 5 -50 18 -55 18 -55 0z"/>
 </g>
<g id="layer114" fill="#c7623d" stroke="none">
 <path d="M135 1953 c3 -27 18 -74 33 -107 32 -72 72 -100 176 -121 76 -16 313 -92 353 -113 12 -7 24 -17 26 -24 10 -24 24 12 31 79 4 35 17 99 31 141 13 42 30 103 38 135 l15 57 -355 0 -355 0 7 -47z"/>
 <path d="M930 1977 c0 -13 7 -45 14 -72 15 -47 14 -48 -10 -67 l-24 -20 19 -24 c11 -14 31 -34 45 -45 l26 -20 27 21 c15 11 33 30 41 41 13 18 12 23 -8 44 -23 25 -24 60 -4 140 6 25 6 25 -60 25 -63 0 -66 -1 -66 -23z"/>
 <path d="M1177 1943 c8 -32 25 -92 38 -133 12 -41 26 -105 30 -141 9 -85 18 -100 42 -72 20 24 250 103 369 128 104 21 144 49 176 121 15 33 30 80 33 107 l7 47 -355 0 -355 0 15 -57z"/>
 <path d="M1210 1507 c0 -15 10 -31 24 -41 69 -45 117 -119 157 -243 12 -40 26 -68 30 -62 4 7 17 9 32 5 21 -5 29 -18 47 -73 12 -38 26 -73 32 -80 5 -7 6 -18 2 -24 -4 -7 -3 -9 3 -6 16 10 31 -13 43 -66 12 -54 3 -81 -29 -90 -28 -7 -48 12 -60 57 -8 30 -7 41 4 53 8 8 15 31 14 51 -1 36 -1 36 -9 9 -5 -16 -13 -34 -19 -41 -6 -7 -16 -51 -21 -97 -26 -209 -109 -372 -215 -420 -49 -23 -138 -24 -234 -4 -39 8 -115 14 -173 13 -112 -1 -147 8 -191 50 -59 56 -81 128 -97 317 -8 96 -14 123 -30 140 -11 12 -20 34 -21 51 0 27 -1 28 -9 6 -10 -24 3 -71 22 -83 13 -8 -30 -101 -49 -107 -6 -2 -22 7 -33 18 -18 18 -21 29 -16 62 7 40 24 83 31 76 2 -2 -3 -25 -12 -51 -15 -47 -13 -77 7 -77 5 0 11 26 11 58 3 81 3 82 27 132 12 25 22 54 22 65 0 32 28 65 56 65 13 0 24 -6 25 -12 0 -7 15 31 33 84 37 110 75 166 151 226 15 12 25 26 23 32 -1 5 -26 -12 -54 -39 -28 -27 -65 -56 -81 -65 -23 -11 -32 -24 -36 -51 -3 -20 -16 -62 -28 -93 -17 -43 -30 -61 -53 -72 -25 -12 -35 -27 -52 -80 -12 -36 -34 -85 -49 -108 -18 -28 -30 -61 -33 -94 -4 -47 -3 -53 23 -74 26 -21 27 -23 16 -73 -15 -73 -14 -199 4 -256 21 -71 80 -151 134 -182 25 -15 70 -53 99 -84 32 -35 75 -69 110 -86 51 -25 67 -28 157 -28 79 1 119 6 194 28 224 67 342 165 387 322 13 47 16 87 12 200 l-5 142 28 10 c51 20 49 108 -5 188 -14 20 -30 53 -36 73 -23 74 -32 90 -59 101 -28 12 -66 93 -78 166 -5 29 -13 40 -44 56 -22 11 -39 23 -39 27 0 5 -18 21 -40 38 -22 16 -38 34 -35 41 2 7 0 15 -5 18 -6 4 -10 -5 -10 -18z m-664 -1016 c10 -25 29 -56 43 -70 l26 -25 -25 15 c-41 25 -70 97 -75 180 l-4 74 9 -65 c5 -36 17 -85 26 -109z m909 30 c-16 -28 -37 -59 -48 -68 -12 -11 -8 -1 10 24 17 23 36 56 43 73 7 17 15 29 17 26 3 -3 -7 -27 -22 -55z m7 -113 c-12 -18 -33 -45 -49 -58 -23 -21 -22 -19 6 14 18 21 37 49 43 62 6 13 13 22 16 20 2 -3 -5 -20 -16 -38z m-272 -207 c-8 -5 -33 -12 -55 -15 l-40 -6 45 14 c53 17 71 19 50 7z"/>
 <path d="M1544 957 c3 -10 6 -39 6 -63 0 -43 12 -59 23 -30 7 18 -11 87 -25 101 -8 7 -9 4 -4 -8z"/>
 <path d="M770 895 c0 -8 7 -15 15 -15 8 0 15 4 15 9 0 5 -7 11 -15 15 -9 3 -15 0 -15 -9z"/>
 <path d="M1208 888 c9 -9 15 -9 24 0 9 9 7 12 -12 12 -19 0 -21 -3 -12 -12z"/>
 <path d="M870 795 c-19 -7 -69 -14 -110 -15 l-75 -2 35 -15 c48 -21 161 -14 189 11 11 10 18 23 15 27 -7 11 -11 11 -54 -6z"/>
 <path d="M1077 803 c-13 -12 -7 -21 27 -37 60 -28 197 -14 241 26 6 5 -3 4 -18 -1 -40 -15 -155 -13 -202 4 -22 8 -40 15 -41 15 0 0 -4 -3 -7 -7z"/>
 </g>
<g id="layer115" fill="#ad6e27" stroke="none">
 <path d="M135 1953 c3 -27 18 -74 33 -107 32 -72 72 -100 176 -121 76 -16 313 -92 353 -113 12 -7 24 -17 26 -24 10 -24 24 12 31 79 4 35 17 99 31 141 13 42 30 103 38 135 l15 57 -355 0 -355 0 7 -47z"/>
 <path d="M930 1977 c0 -13 7 -45 14 -72 15 -47 14 -48 -10 -67 l-24 -20 19 -24 c11 -14 31 -34 45 -45 l26 -20 27 21 c15 11 33 30 41 41 13 18 12 23 -8 44 -23 25 -24 60 -4 140 6 25 6 25 -60 25 -63 0 -66 -1 -66 -23z"/>
 <path d="M1177 1943 c8 -32 25 -92 38 -133 12 -41 26 -105 30 -141 9 -85 18 -100 42 -72 20 24 250 103 369 128 104 21 144 49 176 121 15 33 30 80 33 107 l7 47 -355 0 -355 0 15 -57z"/>
 <path d="M649 1395 c-19 -10 -28 -25 -33 -54 -3 -21 -15 -60 -26 -86 -21 -49 -25 -75 -12 -75 5 0 16 26 26 58 21 65 51 129 74 155 18 20 7 21 -29 2z"/>
 <path d="M1341 1363 c16 -27 39 -78 50 -115 12 -38 25 -68 30 -68 14 0 11 25 -11 75 -11 26 -23 65 -26 86 -5 30 -14 43 -35 54 -41 22 -42 20 -8 -32z"/>
 <path d="M506 887 c-13 -30 -30 -59 -38 -63 -35 -21 -50 -240 -23 -329 21 -71 80 -151 134 -182 25 -15 70 -53 99 -84 32 -35 75 -69 110 -86 51 -25 67 -28 157 -28 79 1 119 6 194 28 224 67 342 165 387 322 22 78 16 335 -9 363 -8 9 -21 36 -28 60 -15 53 -24 40 -33 -50 -18 -181 -108 -353 -211 -399 -49 -23 -138 -24 -234 -4 -39 8 -115 14 -173 13 -112 -1 -147 8 -191 50 -59 56 -81 128 -97 316 -6 66 -12 122 -15 124 -2 3 -15 -20 -29 -51z m40 -396 c10 -25 29 -56 43 -70 l26 -25 -25 15 c-41 25 -70 97 -75 180 l-4 74 9 -65 c5 -36 17 -85 26 -109z m909 30 c-16 -28 -37 -59 -48 -68 -12 -11 -8 -1 10 24 17 23 36 56 43 73 7 17 15 29 17 26 3 -3 -7 -27 -22 -55z m7 -113 c-12 -18 -33 -45 -49 -58 -23 -21 -22 -19 6 14 18 21 37 49 43 62 6 13 13 22 16 20 2 -3 -5 -20 -16 -38z m-272 -207 c-8 -5 -33 -12 -55 -15 l-40 -6 45 14 c53 17 71 19 50 7z"/>
 <path d="M770 895 c0 -8 7 -15 15 -15 8 0 15 4 15 9 0 5 -7 11 -15 15 -9 3 -15 0 -15 -9z"/>
 <path d="M1208 888 c9 -9 15 -9 24 0 9 9 7 12 -12 12 -19 0 -21 -3 -12 -12z"/>
 <path d="M870 795 c-19 -7 -69 -14 -110 -15 l-75 -2 35 -15 c48 -21 161 -14 189 11 11 10 18 23 15 27 -7 11 -11 11 -54 -6z"/>
 <path d="M1075 802 c-11 -11 -4 -20 29 -36 45 -21 140 -20 190 2 l39 18 -76 -4 c-48 -3 -93 1 -126 11 -27 8 -53 12 -56 9z"/>
 </g>
<g id="layer116" fill="#b74030" stroke="none">
 <path d="M135 1953 c3 -27 18 -74 33 -107 32 -72 72 -100 176 -121 76 -16 313 -92 353 -113 12 -7 24 -17 26 -24 10 -24 24 12 31 79 4 35 17 99 31 141 13 42 30 103 38 135 l15 57 -355 0 -355 0 7 -47z"/>
 <path d="M930 1977 c0 -13 7 -45 14 -72 15 -47 14 -48 -10 -67 l-24 -20 19 -24 c11 -14 31 -34 45 -45 l26 -20 27 21 c15 11 33 30 41 41 13 18 12 23 -8 44 -23 25 -24 60 -4 140 6 25 6 25 -60 25 -63 0 -66 -1 -66 -23z"/>
 <path d="M1177 1943 c8 -32 25 -92 38 -133 12 -41 26 -105 30 -141 9 -85 18 -100 42 -72 20 24 250 103 369 128 104 21 144 49 176 121 15 33 30 80 33 107 l7 47 -355 0 -355 0 15 -57z"/>
 <path d="M649 1395 c-19 -10 -28 -25 -33 -54 -3 -21 -15 -60 -26 -86 -21 -49 -25 -75 -12 -75 5 0 16 26 26 58 21 65 51 129 74 155 18 20 7 21 -29 2z"/>
 <path d="M1341 1363 c16 -27 39 -78 50 -115 12 -38 25 -68 30 -68 14 0 11 25 -11 75 -11 26 -23 65 -26 86 -5 30 -14 43 -35 54 -41 22 -42 20 -8 -32z"/>
 <path d="M506 887 c-13 -30 -30 -59 -38 -63 -35 -21 -50 -240 -23 -329 21 -71 80 -151 134 -182 25 -15 70 -53 99 -84 32 -35 75 -69 110 -86 51 -25 67 -28 157 -28 79 1 119 6 194 28 224 67 342 165 387 322 22 78 16 335 -9 363 -8 9 -21 36 -28 60 -15 53 -24 40 -33 -50 -18 -181 -108 -353 -211 -399 -49 -23 -138 -24 -234 -4 -39 8 -115 14 -173 13 -112 -1 -147 8 -191 50 -59 55 -80 123 -97 312 -6 69 -13 127 -15 129 -2 2 -15 -21 -29 -52z m40 -396 c10 -25 29 -56 43 -70 l26 -25 -25 15 c-41 25 -70 97 -75 180 l-4 74 9 -65 c5 -36 17 -85 26 -109z m909 30 c-16 -28 -37 -59 -48 -68 -12 -11 -8 -1 10 24 17 23 36 56 43 73 7 17 15 29 17 26 3 -3 -7 -27 -22 -55z m7 -113 c-12 -18 -33 -45 -49 -58 -23 -21 -22 -19 6 14 18 21 37 49 43 62 6 13 13 22 16 20 2 -3 -5 -20 -16 -38z m-272 -207 c-8 -5 -33 -12 -55 -15 l-40 -6 45 14 c53 17 71 19 50 7z"/>
 <path d="M770 895 c0 -8 7 -15 15 -15 8 0 15 4 15 9 0 5 -7 11 -15 15 -9 3 -15 0 -15 -9z"/>
 <path d="M1208 888 c9 -9 15 -9 24 0 9 9 7 12 -12 12 -19 0 -21 -3 -12 -12z"/>
 <path d="M855 789 c-34 -13 -69 -18 -110 -16 l-60 4 35 -15 c49 -20 162 -13 189 12 11 10 18 23 15 27 -6 11 -7 11 -69 -12z"/>
 <path d="M1075 802 c-11 -11 -4 -20 29 -36 41 -19 139 -20 181 -2 28 12 27 13 -25 9 -37 -3 -75 2 -117 15 -34 11 -65 17 -68 14z"/>
 </g>
<g id="layer117" fill="#a42a19" stroke="none">
 <path d="M135 1953 c3 -27 18 -74 33 -107 32 -72 72 -100 176 -121 76 -16 313 -92 353 -113 12 -7 24 -17 26 -24 10 -24 24 12 31 79 4 35 17 99 31 141 13 42 30 103 38 135 l15 57 -355 0 -355 0 7 -47z"/>
 <path d="M930 1977 c0 -13 7 -45 14 -72 15 -47 14 -48 -10 -67 l-24 -20 19 -24 c11 -14 31 -34 45 -45 l26 -20 27 21 c15 11 33 30 41 41 13 18 12 23 -8 44 -23 25 -24 60 -4 140 6 25 6 25 -60 25 -63 0 -66 -1 -66 -23z"/>
 <path d="M1177 1943 c8 -32 25 -92 38 -133 12 -41 26 -105 30 -141 9 -85 18 -100 42 -72 20 24 250 103 369 128 104 21 144 49 176 121 15 33 30 80 33 107 l7 47 -355 0 -355 0 15 -57z"/>
 <path d="M649 1395 c-19 -11 -28 -25 -33 -54 -3 -21 -15 -60 -26 -86 -21 -49 -25 -75 -12 -75 4 0 18 34 31 76 13 41 35 91 48 111 13 19 23 37 21 38 -2 2 -15 -3 -29 -10z"/>
 <path d="M1320 1405 c0 -3 11 -22 24 -42 13 -19 35 -68 48 -109 13 -40 26 -74 31 -74 12 0 8 26 -13 75 -11 26 -23 65 -26 86 -5 30 -14 43 -35 55 -16 8 -29 12 -29 9z"/>
 <path d="M523 912 c3 -12 2 -20 -3 -17 -4 3 -11 -2 -14 -11 -9 -22 -7 -31 2 -16 5 7 9 -46 10 -117 2 -143 12 -211 41 -277 22 -48 70 -84 114 -84 34 0 34 -13 0 -39 -68 -54 -120 -26 -180 96 l-38 77 1 138 c1 131 2 140 25 166 l24 27 -26 -23 c-47 -41 -66 -232 -34 -337 21 -71 80 -151 134 -182 25 -15 70 -53 99 -84 32 -35 75 -69 110 -86 51 -25 67 -28 157 -28 79 1 119 6 194 28 224 66 342 165 387 321 13 47 16 88 12 197 -2 79 -9 143 -15 151 -6 7 -20 36 -31 63 l-20 50 -6 -40 c-40 -252 -107 -388 -221 -447 -48 -25 -129 -27 -235 -5 -46 10 -115 15 -180 14 -95 -2 -109 0 -147 22 -82 47 -116 131 -133 326 -6 66 -15 124 -22 130 -8 7 -9 4 -5 -13z m981 -430 c-32 -113 -102 -196 -211 -250 -177 -89 -382 -119 -492 -72 -54 24 -131 98 -131 127 0 10 11 36 25 58 l25 40 -6 -32 c-7 -38 8 -89 41 -133 l25 -34 0 68 c0 42 4 65 10 61 6 -3 10 -14 10 -24 0 -19 36 -71 49 -71 4 0 5 16 3 35 -4 29 1 40 29 66 31 29 36 30 96 25 35 -3 92 -9 128 -12 94 -8 186 21 252 81 50 44 101 129 139 230 l19 50 3 -78 c2 -52 -3 -98 -14 -135z"/>
 <path d="M1404 388 c-10 -11 -39 -34 -63 -50 -25 -15 -40 -28 -34 -28 13 0 82 51 107 79 11 11 17 21 14 21 -3 0 -13 -10 -24 -22z"/>
 <path d="M770 895 c0 -8 7 -15 15 -15 8 0 15 4 15 9 0 5 -7 11 -15 15 -9 3 -15 0 -15 -9z"/>
 <path d="M1208 888 c9 -9 15 -9 24 0 9 9 7 12 -12 12 -19 0 -21 -3 -12 -12z"/>
 <path d="M491 556 c-2 -45 19 -102 51 -138 29 -33 29 -33 10 -3 -18 28 -44 98 -55 150 -3 14 -5 11 -6 -9z"/>
 </g>
<g id="layer118" fill="#643120" stroke="none">
 <path d="M135 1953 c3 -27 18 -74 33 -107 32 -72 72 -100 176 -121 76 -16 313 -92 353 -113 12 -7 24 -17 26 -24 10 -24 24 12 31 79 4 35 17 99 31 141 13 42 30 103 38 135 l15 57 -355 0 -355 0 7 -47z"/>
 <path d="M930 1977 c0 -13 7 -45 14 -72 15 -47 14 -48 -10 -67 l-24 -20 19 -24 c11 -14 31 -34 45 -45 l26 -20 27 21 c15 11 33 30 41 41 13 18 12 23 -8 44 -23 25 -24 60 -4 140 6 25 6 25 -60 25 -63 0 -66 -1 -66 -23z"/>
 <path d="M1177 1943 c8 -32 25 -92 38 -133 12 -41 26 -105 30 -141 9 -85 18 -100 42 -72 20 24 250 103 369 128 104 21 144 49 176 121 15 33 30 80 33 107 l7 47 -355 0 -355 0 15 -57z"/>
 <path d="M649 1395 c-19 -10 -28 -25 -33 -54 -3 -21 -15 -60 -26 -86 -20 -48 -27 -87 -12 -70 5 6 21 46 36 90 16 44 34 87 41 95 14 18 28 40 23 40 -2 -1 -15 -7 -29 -15z"/>
 <path d="M1349 1358 c16 -29 37 -79 47 -110 10 -32 22 -58 27 -58 10 0 8 9 -22 92 -12 32 -21 66 -21 77 0 13 -12 27 -30 36 l-31 16 30 -53z"/>
 <path d="M1466 875 c-31 -243 -125 -413 -250 -450 -64 -19 -75 -19 -196 5 -78 15 -121 18 -185 14 -78 -6 -88 -5 -138 20 -63 31 -98 76 -121 156 -13 46 -32 182 -37 265 -1 17 -2 16 -9 -5 -13 -41 -10 -229 5 -312 21 -122 69 -178 151 -178 l27 0 -24 -26 c-13 -14 -37 -33 -53 -41 -26 -14 -31 -13 -55 4 -41 31 -87 97 -111 160 -20 52 -22 72 -18 193 4 123 4 130 -8 85 -17 -70 -17 -212 1 -270 21 -71 80 -151 134 -182 25 -15 70 -53 99 -84 32 -35 75 -69 110 -86 51 -25 67 -28 157 -28 79 1 119 6 194 28 224 66 342 165 387 321 13 47 16 88 12 197 -3 90 -9 143 -17 153 -7 8 -21 36 -31 63 l-18 48 -6 -50z m54 -329 c-13 -91 -57 -180 -117 -240 -94 -93 -297 -167 -463 -170 -85 -1 -101 2 -152 27 -94 46 -136 113 -107 170 15 30 70 87 83 87 6 0 3 -5 -6 -11 -41 -23 -41 -116 0 -180 l20 -32 -5 46 c-4 30 0 56 11 78 9 17 16 37 16 42 0 13 40 57 53 57 5 0 -3 -14 -17 -31 -30 -36 -33 -74 -9 -127 l17 -37 4 35 c7 71 69 104 163 88 89 -15 191 -11 248 11 102 38 166 114 226 266 15 39 30 75 34 80 11 18 12 -86 1 -159z"/>
 <path d="M770 895 c0 -8 7 -15 15 -15 8 0 15 4 15 9 0 5 -7 11 -15 15 -9 3 -15 0 -15 -9z"/>
 <path d="M1208 888 c9 -9 15 -9 24 0 9 9 7 12 -12 12 -19 0 -21 -3 -12 -12z"/>
 </g>
<g id="layer119" fill="#951808" stroke="none">
 <path d="M135 1953 c3 -27 18 -74 33 -107 32 -73 72 -100 179 -122 75 -15 310 -91 352 -114 45 -23 18 11 -48 64 -39 31 -72 60 -75 64 -3 5 8 22 24 37 17 16 30 33 30 38 0 13 -68 -46 -69 -59 -1 -12 48 -60 104 -102 l30 -22 -55 21 c-96 38 -257 87 -307 95 -39 5 -95 25 -112 40 -1 1 8 18 22 36 26 35 57 92 57 105 0 4 -14 -17 -31 -47 -49 -91 -54 -92 -83 -29 -13 30 -28 75 -31 102 -4 26 -12 47 -17 47 -7 0 -8 -18 -3 -47z"/>
 <path d="M561 1930 c-18 -56 -20 -74 -11 -85 7 -8 18 -15 24 -15 6 0 3 5 -6 11 -16 9 -16 14 7 78 28 76 29 81 16 81 -4 0 -18 -32 -30 -70z"/>
 <path d="M778 1867 c-22 -77 -38 -155 -38 -186 0 -29 -5 -61 -11 -73 -6 -11 -8 -23 -4 -26 11 -11 25 22 25 63 1 39 22 144 34 163 3 5 16 50 29 101 38 145 7 109 -35 -42z"/>
 <path d="M930 1977 c0 -13 7 -45 14 -72 15 -47 14 -48 -10 -67 l-24 -20 19 -24 c11 -14 31 -34 45 -45 l26 -20 27 21 c15 11 33 30 41 41 13 18 12 23 -8 44 -23 25 -24 60 -4 140 6 25 6 25 -60 25 -63 0 -66 -1 -66 -23z"/>
 <path d="M1185 1918 c12 -46 28 -96 34 -113 7 -16 18 -72 26 -124 8 -51 17 -96 19 -99 3 -3 13 4 23 15 15 18 253 106 318 119 11 2 43 8 72 14 80 14 125 48 155 116 29 65 46 154 30 154 -5 0 -13 -21 -17 -47 -3 -27 -18 -72 -31 -102 -29 -63 -34 -62 -83 29 -17 30 -31 51 -31 47 0 -13 31 -70 57 -105 14 -18 23 -35 22 -36 -17 -15 -73 -35 -112 -40 -51 -8 -216 -59 -307 -95 l-55 -22 35 31 35 32 -43 -33 c-24 -18 -46 -38 -49 -46 -11 -28 -23 1 -23 55 1 65 -68 332 -86 332 -7 0 -3 -30 11 -82z"/>
 <path d="M1400 1994 c0 -4 11 -37 24 -74 14 -37 24 -70 23 -72 -1 -2 2 0 6 3 10 8 -33 149 -45 149 -4 0 -8 -3 -8 -6z"/>
 <path d="M1370 1814 c0 -6 14 -23 30 -39 l30 -29 -27 -30 c-27 -30 -27 -30 7 2 l35 32 -38 37 c-20 21 -37 33 -37 27z"/>
 <path d="M649 1395 c-19 -10 -28 -25 -33 -54 -3 -21 -15 -60 -26 -86 -20 -48 -27 -87 -12 -70 5 6 21 46 36 90 16 44 34 87 41 95 14 18 28 40 23 40 -2 -1 -15 -7 -29 -15z"/>
 <path d="M1349 1358 c16 -29 37 -79 47 -110 10 -32 22 -58 27 -58 10 0 8 9 -22 92 -12 32 -21 66 -21 77 0 13 -12 27 -30 36 l-31 16 30 -53z"/>
 <path d="M1466 875 c-31 -243 -125 -413 -250 -450 -64 -19 -75 -19 -196 5 -78 15 -121 18 -185 14 -78 -6 -88 -5 -138 20 -63 31 -98 76 -121 156 -13 46 -32 182 -37 265 -1 17 -2 16 -9 -5 -13 -41 -10 -229 5 -312 21 -122 69 -178 151 -178 l27 0 -24 -26 c-13 -14 -37 -33 -53 -41 -26 -14 -31 -13 -55 4 -41 31 -87 97 -111 160 -20 52 -22 72 -18 193 4 123 4 130 -8 85 -17 -70 -17 -212 1 -270 21 -71 80 -151 134 -182 25 -15 70 -53 99 -84 32 -35 75 -69 110 -86 51 -25 67 -28 157 -28 79 1 119 6 194 28 224 66 342 165 387 321 13 47 16 88 12 197 -3 90 -9 143 -17 153 -7 8 -21 36 -31 63 l-18 48 -6 -50z m54 -329 c-13 -91 -57 -180 -117 -240 -94 -93 -297 -167 -463 -170 -85 -1 -101 2 -152 27 -94 46 -136 113 -107 170 15 30 70 87 83 87 6 0 3 -5 -6 -11 -41 -23 -41 -116 0 -180 l20 -32 -5 46 c-4 30 0 56 11 78 9 17 16 37 16 42 0 13 40 57 53 57 5 0 -3 -14 -17 -31 -30 -36 -33 -74 -9 -127 l17 -37 4 35 c7 71 69 104 163 88 89 -15 191 -11 248 11 102 38 166 114 226 266 15 39 30 75 34 80 11 18 12 -86 1 -159z"/>
 <path d="M770 895 c0 -8 7 -15 15 -15 8 0 15 4 15 9 0 5 -7 11 -15 15 -9 3 -15 0 -15 -9z"/>
 <path d="M1208 888 c9 -9 15 -9 24 0 9 9 7 12 -12 12 -19 0 -21 -3 -12 -12z"/>
 </g>
<g id="layer120" fill="#393839" stroke="none">
 <path d="M135 1953 c3 -27 18 -74 33 -107 32 -73 72 -100 179 -122 75 -15 310 -91 352 -114 45 -23 18 11 -48 64 -39 31 -72 60 -75 64 -3 5 8 22 24 37 17 16 30 33 30 38 0 13 -68 -46 -69 -59 -1 -12 48 -60 104 -102 l30 -22 -55 21 c-96 38 -257 87 -307 95 -39 5 -95 25 -112 40 -1 1 8 18 22 36 26 35 57 92 57 105 0 4 -14 -17 -31 -47 -49 -91 -54 -92 -83 -29 -13 30 -28 75 -31 102 -4 26 -12 47 -17 47 -7 0 -8 -18 -3 -47z"/>
 <path d="M561 1930 c-18 -56 -20 -74 -11 -85 7 -8 18 -15 24 -15 6 0 3 5 -6 11 -16 9 -16 14 7 78 28 76 29 81 16 81 -4 0 -18 -32 -30 -70z"/>
 <path d="M778 1867 c-22 -77 -38 -155 -38 -186 0 -29 -5 -61 -11 -73 -6 -11 -8 -23 -4 -26 11 -11 25 22 25 63 1 39 22 144 34 163 3 5 16 50 29 101 38 145 7 109 -35 -42z"/>
 <path d="M930 1977 c0 -13 7 -45 14 -72 15 -47 14 -48 -10 -67 l-24 -20 19 -24 c11 -14 31 -34 45 -45 l26 -20 27 21 c15 11 33 30 41 41 13 18 12 23 -8 44 -23 25 -24 60 -4 140 6 25 6 25 -60 25 -63 0 -66 -1 -66 -23z"/>
 <path d="M1185 1918 c12 -46 28 -96 34 -113 7 -16 18 -72 26 -124 8 -51 17 -96 19 -99 3 -3 13 4 23 15 15 18 253 106 318 119 11 2 43 8 72 14 80 14 125 48 155 116 29 65 46 154 30 154 -5 0 -13 -21 -17 -47 -3 -27 -18 -72 -31 -102 -29 -63 -34 -62 -83 29 -17 30 -31 51 -31 47 0 -13 31 -70 57 -105 14 -18 23 -35 22 -36 -17 -15 -73 -35 -112 -40 -51 -8 -216 -59 -307 -95 l-55 -22 35 31 35 32 -43 -33 c-24 -18 -46 -38 -49 -46 -11 -28 -23 1 -23 55 1 65 -68 332 -86 332 -7 0 -3 -30 11 -82z"/>
 <path d="M1400 1994 c0 -4 11 -37 24 -74 14 -37 24 -70 23 -72 -1 -2 2 0 6 3 10 8 -33 149 -45 149 -4 0 -8 -3 -8 -6z"/>
 <path d="M1370 1814 c0 -6 14 -23 30 -39 l30 -29 -27 -30 c-27 -30 -27 -30 7 2 l35 32 -38 37 c-20 21 -37 33 -37 27z"/>
 <path d="M770 895 c0 -8 7 -15 15 -15 8 0 15 4 15 9 0 5 -7 11 -15 15 -9 3 -15 0 -15 -9z"/>
 <path d="M1208 888 c9 -9 15 -9 24 0 9 9 7 12 -12 12 -19 0 -21 -3 -12 -12z"/>
 </g>
<g id="layer121" fill="#481c0d" stroke="none">
 <path d="M135 1953 c3 -27 18 -74 33 -107 32 -73 72 -100 179 -122 75 -15 310 -91 352 -114 45 -23 18 11 -48 64 -39 31 -72 60 -75 64 -3 5 8 22 24 37 17 16 30 33 30 38 0 13 -68 -46 -69 -59 -1 -12 48 -60 104 -102 l30 -22 -55 21 c-96 38 -257 87 -307 95 -39 5 -95 25 -112 40 -1 1 8 18 22 36 26 35 57 92 57 105 0 4 -14 -17 -31 -47 -49 -91 -54 -92 -83 -29 -13 30 -28 75 -31 102 -4 26 -12 47 -17 47 -7 0 -8 -18 -3 -47z"/>
 <path d="M561 1930 c-18 -56 -20 -74 -11 -85 7 -8 18 -15 24 -15 6 0 3 5 -6 11 -16 9 -16 14 7 78 28 76 29 81 16 81 -4 0 -18 -32 -30 -70z"/>
 <path d="M778 1867 c-22 -77 -38 -155 -38 -186 0 -29 -5 -61 -11 -73 -6 -11 -8 -23 -4 -26 11 -11 25 22 25 63 1 39 22 144 34 163 3 5 16 50 29 101 38 145 7 109 -35 -42z"/>
 <path d="M930 1978 c0 -13 7 -45 15 -73 15 -49 15 -49 -10 -70 l-26 -20 45 -44 44 -44 28 22 c15 12 34 31 42 43 14 20 13 23 -12 45 -27 23 -28 25 -16 76 6 29 13 60 15 70 3 15 -5 17 -61 17 -60 0 -64 -1 -64 -22z"/>
 <path d="M1185 1918 c12 -46 28 -96 34 -113 7 -16 18 -72 26 -124 8 -51 17 -96 19 -99 3 -3 13 4 23 15 15 18 253 106 318 119 11 2 43 8 72 14 80 14 125 48 155 116 29 65 46 154 30 154 -5 0 -13 -21 -17 -47 -3 -27 -18 -72 -31 -102 -29 -63 -34 -62 -83 29 -17 30 -31 51 -31 47 0 -13 31 -70 57 -105 14 -18 23 -35 22 -36 -17 -15 -73 -35 -112 -40 -51 -8 -216 -59 -307 -95 l-55 -22 35 31 35 32 -43 -33 c-24 -18 -46 -38 -49 -46 -11 -28 -23 1 -23 55 1 65 -68 332 -86 332 -7 0 -3 -30 11 -82z"/>
 <path d="M1400 1994 c0 -4 11 -37 24 -74 14 -37 24 -70 23 -72 -1 -2 2 0 6 3 10 8 -33 149 -45 149 -4 0 -8 -3 -8 -6z"/>
 <path d="M1370 1814 c0 -6 14 -23 30 -39 l30 -29 -27 -30 c-27 -30 -27 -30 7 2 l35 32 -38 37 c-20 21 -37 33 -37 27z"/>
 </g>
<g id="layer122" fill="#391103" stroke="none">
 <path d="M136 1978 c-3 -13 -1 -27 4 -32 7 -7 10 1 10 22 0 37 -5 41 -14 10z"/>
 <path d="M585 1989 c-16 -43 -33 -111 -26 -103 12 13 42 106 36 112 -2 3 -7 -1 -10 -9z"/>
 <path d="M810 1958 c-6 -24 -23 -79 -36 -123 -14 -44 -27 -111 -29 -150 l-4 -70 9 64 c5 35 16 85 25 110 36 110 63 211 55 211 -5 0 -14 -19 -20 -42z"/>
 <path d="M930 1978 c0 -13 7 -45 15 -73 15 -49 15 -49 -10 -70 l-26 -20 45 -44 44 -44 28 22 c15 12 34 31 42 43 14 20 13 23 -12 45 -27 23 -28 25 -16 76 6 29 13 60 15 70 3 15 -5 17 -61 17 -60 0 -64 -1 -64 -22z"/>
 <path d="M1201 1869 c21 -72 43 -159 49 -193 l9 -61 -4 70 c-2 39 -15 106 -29 150 -13 44 -30 99 -36 123 -6 23 -15 42 -19 42 -5 0 9 -59 30 -131z"/>
 <path d="M1400 1999 c0 -11 33 -104 41 -113 10 -11 -16 78 -30 102 -6 9 -11 14 -11 11z"/>
 <path d="M1851 1971 c-1 -24 2 -32 9 -25 7 7 7 19 1 35 -9 23 -10 22 -10 -10z"/>
 <path d="M147 1916 c-3 -8 -2 -18 4 -21 5 -4 7 -11 4 -16 -4 -5 -1 -9 4 -9 6 0 11 -6 11 -14 0 -8 5 -18 12 -22 8 -5 9 -2 3 12 -4 10 -13 34 -20 52 -9 25 -14 30 -18 18z"/>
 <path d="M1840 1917 c0 -10 -9 -36 -21 -58 -11 -23 -19 -43 -16 -45 2 -2 10 8 18 24 8 15 18 30 24 34 5 4 6 8 1 8 -5 0 -3 7 4 15 10 12 10 19 2 27 -9 9 -12 8 -12 -5z"/>
 <path d="M257 1755 c3 -8 10 -16 17 -17 6 0 22 -2 36 -4 14 -2 42 -5 63 -9 58 -8 43 2 -20 15 -32 6 -68 15 -80 20 -17 7 -21 6 -16 -5z"/>
 <path d="M1725 1760 c-11 -5 -46 -14 -77 -20 -64 -13 -79 -23 -20 -15 20 4 48 7 62 9 14 2 30 4 36 4 7 1 14 9 18 17 3 8 4 15 3 14 -1 0 -11 -4 -22 -9z"/>
 <path d="M550 1673 c0 -11 150 -61 155 -53 3 4 -3 14 -12 21 -12 10 -14 10 -9 2 10 -17 9 -17 -62 12 -68 27 -72 28 -72 18z"/>
 <path d="M1376 1655 c-69 -29 -70 -29 -60 -12 5 8 2 7 -9 -2 -10 -8 -15 -16 -12 -19 7 -8 155 40 155 50 0 12 -9 10 -74 -17z"/>
 </g>
<g id="layer123" fill="#0e0c0c" stroke="none">
 <path d="M930 1978 c0 -13 7 -45 15 -73 15 -49 15 -49 -10 -70 l-26 -20 45 -44 44 -44 28 22 c15 12 34 31 42 43 14 20 13 23 -12 45 -27 23 -28 25 -16 76 6 29 13 60 15 70 3 15 -5 17 -61 17 -60 0 -64 -1 -64 -22z"/>
 </g>

</svg>