<!DOCTYPE svg PUBLIC "-//W3C//DTD SVG 20010904//EN" "http://www.w3.org/TR/2001/REC-SVG-20010904/DTD/svg10.dtd">
<svg version="1.0" xmlns="http://www.w3.org/2000/svg" width="200px" height="200px" viewBox="0 0 2000 2000" preserveAspectRatio="xMidYMid meet">
<g id="layer101" fill="#f4f2f5" stroke="none">
 <path d="M120 1983 c0 -32 24 -123 33 -123 4 0 5 -4 2 -10 -3 -5 -1 -10 4 -10 6 0 10 -3 9 -7 -5 -16 29 -49 72 -70 25 -12 80 -29 123 -38 43 -9 115 -29 160 -45 193 -68 193 -68 222 -136 l15 -38 -47 -42 c-27 -24 -53 -43 -60 -44 -19 0 -53 -51 -53 -78 0 -43 -48 -136 -80 -154 -32 -18 -33 -20 -50 -85 -5 -22 -26 -64 -45 -92 -55 -79 -58 -169 -7 -185 17 -6 17 -11 3 -101 -18 -115 -6 -209 36 -288 29 -53 112 -134 147 -143 11 -3 36 -25 54 -50 18 -24 57 -60 87 -80 l53 -36 169 4 c159 4 172 5 238 33 113 48 178 90 229 146 92 102 111 171 104 370 -3 76 -1 136 3 133 5 -3 21 7 35 21 24 24 26 32 20 75 -4 28 -21 72 -41 107 -20 32 -38 75 -42 95 -6 38 -45 88 -68 88 -14 0 -65 129 -65 165 0 16 -10 31 -27 42 -16 10 -51 37 -80 62 l-52 44 18 36 c24 46 46 66 96 84 147 55 199 71 290 92 131 29 175 57 209 129 16 34 26 72 26 100 l0 46 -870 0 c-816 0 -870 -1 -870 -17z"/>
 </g>
<g id="layer102" fill="#dbd3d9" stroke="none">
 <path d="M120 1983 c0 -32 24 -123 33 -123 4 0 5 -4 2 -10 -3 -5 -1 -10 4 -10 6 0 10 -3 9 -7 -5 -16 29 -49 72 -70 25 -12 80 -29 123 -38 69 -15 145 -38 287 -90 50 -18 75 -41 90 -81 6 -15 13 -25 16 -22 2 3 0 17 -6 32 -6 18 -6 42 1 77 6 28 8 60 5 72 -3 11 -1 26 3 31 5 6 21 51 36 100 l27 89 24 -42 c13 -23 46 -65 75 -92 l51 -51 -31 -19 c-17 -10 -53 -30 -81 -44 -59 -30 -76 -53 -86 -120 -6 -43 -14 -56 -58 -97 -28 -26 -56 -48 -63 -48 -19 0 -53 -50 -53 -78 0 -43 -48 -136 -80 -154 -32 -18 -33 -20 -50 -85 -5 -22 -26 -64 -45 -92 -55 -79 -58 -169 -7 -185 17 -6 17 -11 3 -101 -18 -115 -6 -209 36 -288 29 -53 112 -134 147 -143 11 -3 36 -25 54 -50 18 -24 57 -60 87 -80 l53 -36 169 4 c159 4 172 5 238 33 113 48 178 90 229 146 92 102 111 171 104 370 -3 76 -1 136 3 133 5 -3 21 7 35 21 24 24 26 32 20 75 -4 28 -21 72 -41 107 -20 32 -38 75 -42 95 -6 38 -45 88 -68 88 -14 0 -65 129 -65 165 0 16 -10 31 -27 42 -16 10 -51 37 -80 62 l-52 44 18 36 c24 46 46 66 96 84 147 55 199 71 290 92 131 29 175 57 209 129 16 34 26 72 26 100 l0 46 -354 0 -354 0 9 -39 c5 -21 14 -51 20 -67 7 -16 12 -32 11 -36 -1 -6 24 -100 35 -128 3 -8 6 -36 8 -62 1 -26 6 -53 12 -60 7 -9 5 -22 -8 -43 l-19 -30 0 30 c0 54 -33 91 -120 135 l-80 40 16 26 c9 13 25 29 36 35 23 13 91 116 86 131 -2 6 -19 -14 -36 -46 l-32 -57 -26 18 c-23 16 -24 23 -19 70 3 28 8 58 11 67 5 14 -4 16 -65 16 l-71 0 4 -32 c2 -18 9 -48 15 -67 6 -19 10 -35 8 -36 -11 -9 -49 -26 -52 -23 -19 20 -65 115 -65 133 l0 25 -355 0 c-329 0 -355 -1 -355 -17z"/>
 </g>
<g id="layer103" fill="#fcc7b1" stroke="none">
 <path d="M120 1983 c0 -32 24 -123 33 -123 4 0 5 -4 2 -10 -3 -5 -1 -10 4 -10 6 0 10 -3 9 -7 -5 -14 27 -48 62 -67 19 -10 80 -29 135 -41 55 -13 138 -37 185 -55 47 -17 100 -36 118 -41 18 -6 36 -17 39 -25 3 -8 9 -14 13 -14 12 0 30 59 30 99 0 20 11 72 25 115 14 43 30 97 36 120 5 22 12 49 15 59 5 16 -16 17 -350 17 -330 0 -356 -1 -356 -17z"/>
 <path d="M920 1992 c0 -4 7 -34 15 -67 13 -47 13 -60 3 -67 -44 -27 -44 -26 -4 -67 47 -48 43 -57 -46 -102 -78 -40 -94 -57 -107 -122 -10 -47 -19 -60 -66 -100 -29 -26 -58 -47 -64 -47 -17 0 -51 -52 -51 -78 0 -43 -48 -136 -80 -154 -32 -18 -33 -20 -50 -85 -5 -22 -26 -64 -45 -92 -55 -79 -58 -169 -7 -185 17 -6 17 -11 3 -101 -18 -115 -6 -209 36 -288 29 -53 112 -134 147 -143 11 -3 36 -25 54 -50 18 -24 57 -60 87 -80 l53 -36 169 4 c159 4 172 5 238 33 113 48 178 90 229 146 92 102 111 171 104 370 -3 76 -1 136 3 133 5 -3 21 7 35 21 24 24 26 32 20 75 -4 28 -21 72 -41 107 -20 32 -38 75 -42 95 -6 38 -45 88 -68 88 -14 0 -65 129 -65 165 0 16 -10 31 -27 42 -16 10 -52 38 -80 62 -40 34 -53 51 -53 72 0 66 -32 104 -125 151 -92 46 -91 46 -49 90 l38 38 -27 28 c-26 27 -27 32 -18 73 19 79 19 79 -54 79 -36 0 -65 -4 -65 -8z"/>
 <path d="M1160 1993 c0 -5 18 -70 40 -146 22 -76 40 -154 40 -172 0 -19 5 -46 10 -61 10 -24 12 -25 28 -11 9 8 35 22 57 30 147 55 199 71 290 92 131 29 175 57 209 129 16 34 26 72 26 100 l0 46 -350 0 c-192 0 -350 -3 -350 -7z"/>
 </g>
<g id="layer104" fill="#e9c393" stroke="none">
 <path d="M120 1983 c0 -32 24 -123 33 -123 4 0 5 -4 2 -10 -3 -5 -1 -10 4 -10 6 0 10 -3 9 -7 -5 -14 27 -48 62 -67 19 -10 80 -29 135 -41 55 -13 138 -37 185 -55 47 -17 100 -36 118 -41 18 -6 36 -17 39 -25 3 -8 9 -14 13 -14 12 0 30 59 30 99 0 20 11 72 25 115 14 43 30 97 36 120 5 22 12 49 15 59 5 16 -16 17 -350 17 -330 0 -356 -1 -356 -17z"/>
 <path d="M920 1992 c0 -4 7 -34 15 -67 13 -47 13 -60 3 -67 -44 -27 -44 -26 -4 -67 47 -48 43 -57 -46 -102 -78 -40 -94 -57 -107 -122 -10 -47 -19 -60 -66 -100 -29 -26 -58 -47 -64 -47 -17 0 -51 -52 -51 -78 0 -43 -48 -136 -80 -154 -32 -18 -33 -20 -50 -85 -5 -22 -26 -64 -45 -92 -55 -79 -58 -169 -7 -185 17 -6 17 -11 3 -101 -18 -115 -6 -209 36 -288 29 -53 112 -134 147 -143 11 -3 36 -25 54 -50 18 -24 57 -60 87 -80 l53 -36 169 4 c159 4 172 5 238 33 113 48 178 90 229 146 92 102 111 171 104 370 -3 76 -1 136 3 133 5 -3 21 7 35 21 24 24 26 32 20 75 -4 28 -21 72 -41 107 -20 32 -38 75 -42 95 -6 38 -45 88 -68 88 -14 0 -65 129 -65 165 0 16 -10 31 -27 42 -16 10 -52 38 -80 62 -41 35 -53 51 -53 73 0 33 -25 87 -49 106 -9 7 -47 29 -86 48 -38 20 -72 38 -74 40 -3 3 13 22 34 44 l39 40 -27 28 c-26 27 -27 32 -18 73 19 79 19 79 -54 79 -36 0 -65 -4 -65 -8z m-1 -1065 c0 -6 -5 -2 -11 11 -14 29 -20 28 -47 -8 -22 -30 -21 -40 7 -73 15 -16 16 -16 36 0 21 18 21 18 2 -4 -11 -13 -22 -23 -25 -23 -3 0 -18 15 -33 34 l-27 34 29 37 c17 21 30 39 30 41 0 2 -13 1 -30 -2 -18 -4 -30 -2 -30 4 0 6 10 12 23 15 23 4 78 -42 76 -66z m-303 41 c-36 -51 -10 -120 55 -145 33 -13 33 -13 4 -8 -42 8 -85 57 -85 98 0 29 23 77 36 77 3 0 -2 -10 -10 -22z m149 12 c-3 -5 -15 -10 -26 -10 -10 0 -19 5 -19 10 0 6 12 10 26 10 14 0 23 -4 19 -10z m415 0 c0 -5 -9 -10 -19 -10 -11 0 -23 5 -26 10 -4 6 5 10 19 10 14 0 26 -4 26 -10z m95 0 c-3 -5 -15 -10 -26 -10 -10 0 -19 5 -19 10 0 6 12 10 26 10 14 0 23 -4 19 -10z m-515 -82 c0 -4 -14 -22 -31 -40 l-32 -33 28 38 27 39 -26 27 c-14 15 -26 31 -26 36 0 5 14 -7 30 -25 17 -18 30 -37 30 -42z m43 47 c-9 -15 -11 -15 -24 1 -12 16 -12 17 4 11 10 -4 17 -2 17 5 0 6 3 9 6 5 3 -3 2 -13 -3 -22z m348 -86 c-17 -23 -31 -38 -31 -33 0 5 9 20 20 34 11 14 20 30 20 35 0 6 -9 21 -20 35 -31 40 -23 44 11 6 l30 -35 -30 -42z m61 102 c7 11 8 9 6 -6 -4 -24 -22 -23 -25 2 -2 11 0 13 3 4 5 -11 8 -11 16 0z m60 -34 c-28 -30 -28 -35 5 -71 25 -28 24 -27 -9 3 l-37 34 20 29 c11 15 25 28 31 28 7 0 2 -10 -10 -23z m-462 -88 c0 -5 -7 -9 -15 -9 -15 0 -20 12 -9 23 8 8 24 -1 24 -14z m410 6 c0 -8 -7 -15 -15 -15 -16 0 -20 12 -8 23 11 12 23 8 23 -8z m-435 -35 c15 -6 8 -9 -28 -9 -30 -1 -46 3 -42 9 7 12 42 12 70 0z m495 -1 c0 -10 -71 -10 -115 0 -21 5 -7 7 43 8 39 0 72 -4 72 -8z"/>
 <path d="M1160 1993 c0 -5 18 -70 40 -146 22 -76 40 -154 40 -172 0 -19 5 -46 10 -61 10 -24 12 -25 28 -11 9 8 35 22 57 30 147 55 199 71 290 92 131 29 175 57 209 129 16 34 26 72 26 100 l0 46 -350 0 c-192 0 -350 -3 -350 -7z"/>
 </g>
<g id="layer105" fill="#f5b199" stroke="none">
 <path d="M120 1983 c0 -32 24 -123 33 -123 4 0 5 -4 2 -10 -3 -5 -1 -10 4 -10 6 0 10 -3 9 -7 -5 -14 27 -48 62 -67 19 -10 80 -29 135 -41 55 -13 138 -37 185 -55 47 -17 100 -36 118 -41 18 -6 36 -17 39 -25 3 -8 9 -14 13 -14 12 0 30 59 30 99 0 20 11 72 25 115 14 43 30 97 36 120 5 22 12 49 15 59 5 16 -16 17 -350 17 -330 0 -356 -1 -356 -17z"/>
 <path d="M920 1992 c0 -4 7 -34 15 -67 13 -47 13 -60 3 -67 -44 -27 -44 -26 -4 -67 47 -48 43 -57 -46 -102 -78 -40 -94 -57 -107 -122 -10 -47 -19 -60 -66 -100 -29 -26 -58 -47 -64 -47 -17 0 -51 -52 -51 -78 0 -43 -48 -136 -80 -154 -32 -18 -33 -20 -50 -85 -5 -22 -26 -64 -45 -92 -55 -79 -58 -169 -7 -185 17 -6 17 -11 3 -101 -18 -115 -6 -209 36 -288 29 -53 112 -134 147 -143 11 -3 36 -25 54 -50 18 -24 57 -60 87 -80 l53 -36 169 4 c159 4 172 5 238 33 113 48 178 90 229 146 92 102 111 171 104 370 -3 76 -1 136 3 133 5 -3 21 7 35 21 24 24 26 32 20 75 -4 28 -21 72 -41 107 -20 32 -38 75 -42 95 -6 38 -45 88 -68 88 -14 0 -65 129 -65 165 0 16 -10 31 -27 42 -67 42 -133 107 -133 130 0 32 -26 93 -48 110 -9 7 -48 30 -87 49 -38 20 -72 38 -74 40 -3 3 13 22 34 44 l39 40 -27 28 c-26 27 -27 32 -18 73 19 79 19 79 -54 79 -36 0 -65 -4 -65 -8z m-5 -1046 c8 -14 10 -26 5 -26 -5 0 -12 9 -15 20 -9 27 -17 25 -43 -10 -24 -31 -20 -52 11 -78 11 -10 17 -9 27 3 7 8 16 15 21 15 5 0 0 -9 -11 -20 -27 -27 -30 -26 -62 14 l-27 34 19 25 c11 14 20 30 20 35 0 6 6 13 13 15 6 3 -3 3 -20 0 -21 -3 -33 -1 -33 6 0 6 9 11 20 11 11 0 20 5 20 10 0 15 40 -24 55 -54z m461 43 c19 -22 19 -22 -3 -10 -13 6 -23 16 -23 21 0 15 5 12 26 -11z m-760 -21 c-36 -51 -6 -130 54 -143 17 -4 30 -11 30 -16 0 -12 -17 -12 -25 1 -4 6 -10 8 -14 5 -9 -5 -66 44 -66 56 0 4 -3 11 -7 15 -11 11 -10 52 2 59 6 4 8 10 5 15 -3 5 3 13 12 19 25 15 26 14 9 -11z m149 12 c-3 -5 -15 -10 -26 -10 -10 0 -19 5 -19 10 0 6 12 10 26 10 14 0 23 -4 19 -10z m415 0 c0 -5 -9 -10 -19 -10 -11 0 -23 5 -26 10 -4 6 5 10 19 10 14 0 26 -4 26 -10z m95 0 c-3 -5 -15 -10 -26 -10 -10 0 -19 5 -19 10 0 6 12 10 26 10 14 0 23 -4 19 -10z m-526 -62 c11 -14 10 -22 -5 -47 -10 -17 -24 -33 -32 -36 -8 -3 -2 11 13 31 l27 36 -26 27 c-14 15 -26 30 -26 34 0 8 27 -17 49 -45z m54 27 c-9 -15 -11 -15 -24 1 -12 16 -12 17 4 11 10 -4 17 -2 17 5 0 6 3 9 6 5 3 -3 2 -13 -3 -22z m337 13 c0 -6 9 -22 21 -34 l21 -23 -27 -36 c-15 -19 -25 -38 -22 -42 4 -3 38 -6 77 -6 38 0 70 -4 70 -10 0 -12 -138 -3 -152 11 -7 7 -4 19 11 40 26 37 26 40 1 72 -22 28 -25 40 -10 40 6 0 10 -5 10 -12z m72 3 c7 11 8 9 6 -6 -4 -24 -22 -23 -25 2 -2 11 0 13 3 4 5 -11 8 -11 16 0z m60 -34 c-28 -30 -28 -35 5 -71 25 -28 24 -27 -9 3 l-37 34 20 29 c11 15 25 28 31 28 7 0 2 -10 -10 -23z m113 -77 c-10 -11 -23 -20 -29 -20 -6 0 1 11 14 24 30 28 41 25 15 -4z m-161 -11 c-5 -9 -34 -13 -34 -5 0 2 3 12 6 20 5 13 9 14 20 5 8 -6 11 -15 8 -20z m-414 6 c0 -8 -7 -15 -15 -15 -16 0 -20 12 -8 23 11 12 23 8 23 -8z m514 -30 c-22 -17 -34 -19 -34 -6 0 5 8 12 18 14 32 9 36 7 16 -8z m-479 -6 c-27 -10 -137 -11 -131 0 3 4 38 8 78 8 46 0 65 -3 53 -8z"/>
 <path d="M1160 1993 c0 -5 18 -70 40 -146 22 -76 40 -154 40 -172 0 -19 5 -46 10 -61 10 -24 12 -25 28 -11 9 8 35 22 57 30 147 55 199 71 290 92 131 29 175 57 209 129 16 34 26 72 26 100 l0 46 -350 0 c-192 0 -350 -3 -350 -7z"/>
 </g>
<g id="layer106" fill="#e59375" stroke="none">
 <path d="M120 1983 c0 -32 24 -123 33 -123 4 0 5 -4 2 -10 -3 -5 -1 -10 4 -10 6 0 10 -3 9 -7 -5 -14 27 -48 62 -67 19 -10 80 -29 135 -41 55 -13 138 -37 185 -55 47 -17 100 -36 118 -41 18 -6 36 -17 39 -25 3 -8 9 -14 13 -14 12 0 30 59 30 99 0 20 11 72 25 115 14 43 30 97 36 120 5 22 12 49 15 59 5 16 -16 17 -350 17 -330 0 -356 -1 -356 -17z"/>
 <path d="M920 1992 c0 -4 7 -34 15 -67 13 -47 13 -60 3 -67 -45 -27 -45 -25 2 -73 24 -25 49 -45 55 -45 6 0 28 18 50 40 l39 40 -27 28 c-26 27 -27 32 -18 73 19 79 19 79 -54 79 -36 0 -65 -4 -65 -8z"/>
 <path d="M1160 1993 c0 -5 18 -70 40 -146 22 -76 40 -154 40 -172 0 -19 5 -46 10 -61 10 -24 12 -25 28 -11 9 8 35 22 57 30 147 55 199 71 290 92 131 29 175 57 209 129 16 34 26 72 26 100 l0 46 -350 0 c-192 0 -350 -3 -350 -7z"/>
 <path d="M863 1621 c-70 -26 -69 -25 -82 -76 -6 -25 -15 -45 -20 -45 -4 0 -29 -18 -54 -40 -25 -22 -50 -40 -55 -40 -18 0 -52 -51 -52 -78 0 -43 -48 -136 -80 -154 -32 -18 -33 -20 -50 -85 -5 -22 -26 -64 -45 -92 -55 -79 -58 -169 -7 -185 17 -6 17 -11 3 -101 -18 -115 -6 -209 36 -288 29 -53 112 -134 147 -143 11 -3 36 -25 54 -50 18 -24 57 -60 87 -80 l53 -36 169 4 c159 4 172 5 238 33 113 48 178 90 229 146 92 102 111 171 104 370 -3 76 -1 136 3 133 5 -3 21 7 35 21 24 24 26 32 20 75 -4 28 -21 72 -41 107 -20 32 -38 75 -42 95 -6 38 -45 88 -68 88 -14 0 -65 129 -65 165 0 16 -10 31 -27 42 -16 10 -54 39 -85 66 -43 38 -58 56 -60 81 -3 26 -11 35 -53 55 -70 34 -216 40 -292 12z m225 -85 c101 -27 206 -106 242 -183 20 -42 56 -154 106 -328 17 -62 19 -118 2 -113 -7 3 -15 17 -19 32 -17 63 -99 116 -179 116 -43 0 -106 -24 -141 -52 -25 -21 -59 -81 -59 -105 0 -25 -29 -38 -66 -29 -15 4 -24 14 -24 27 0 48 -58 117 -122 143 -100 42 -244 -15 -262 -104 -8 -41 -26 -38 -26 4 0 46 84 337 116 403 14 29 46 71 72 94 109 95 233 128 360 95z m-524 -383 c-4 -16 -13 -43 -21 -60 -7 -18 -13 -36 -13 -40 0 -5 -3 -23 -6 -40 -9 -46 -28 -42 -21 3 5 30 3 35 -10 30 -11 -5 -13 -2 -8 11 4 10 11 33 15 51 9 38 36 72 57 72 10 0 11 -8 7 -27z m898 10 c8 -10 18 -31 21 -48 3 -16 9 -39 13 -49 5 -14 4 -17 -5 -11 -10 6 -12 0 -6 -23 3 -17 2 -38 -3 -47 -6 -12 -12 -2 -21 42 -7 32 -19 75 -27 96 -8 20 -14 42 -14 47 0 16 26 11 42 -7z m-598 -156 c42 -33 66 -74 66 -115 0 -54 -72 -92 -175 -92 -113 0 -170 39 -170 115 0 80 67 127 176 122 54 -2 73 -7 103 -30z m466 14 c50 -26 83 -78 76 -119 -6 -42 -20 -58 -67 -83 -44 -22 -145 -26 -200 -8 -86 29 -105 98 -47 165 18 20 46 43 63 50 45 20 134 17 175 -5z m-837 -114 c-4 -7 -8 -16 -8 -22 0 -5 -5 -19 -12 -29 -9 -17 -15 -18 -35 -9 -22 11 -22 12 -2 12 17 1 20 6 16 31 -2 16 -1 47 3 67 l7 38 19 -38 c11 -21 16 -43 12 -50z m1047 1 c0 -20 -6 -39 -12 -41 -7 -3 -3 -6 10 -6 28 -1 19 -21 -8 -21 -28 0 -40 58 -25 119 l8 33 13 -23 c7 -13 13 -40 14 -61z m-95 -80 c-18 -134 -82 -276 -151 -337 -66 -58 -154 -75 -249 -50 -22 6 -107 14 -190 18 -122 5 -156 10 -183 26 -41 25 -77 78 -96 146 -18 61 -36 239 -24 239 4 0 24 -16 45 -35 77 -72 193 -102 277 -73 45 15 69 44 48 57 -24 15 17 35 71 36 36 0 57 -5 69 -17 12 -12 13 -18 5 -21 -22 -8 8 -41 49 -55 52 -18 143 -10 196 18 23 12 62 39 86 61 25 21 47 39 49 39 3 0 2 -24 -2 -52z"/>
 <path d="M918 1353 c-23 -6 -23 -20 1 -33 21 -11 139 -14 165 -4 9 3 16 12 16 19 0 7 -7 16 -16 19 -18 7 -140 6 -166 -1z"/>
 <path d="M941 1201 c-19 -3 -36 -13 -38 -21 -3 -10 -2 -11 4 -4 11 16 101 26 109 13 3 -6 16 -8 27 -5 12 3 27 0 34 -6 9 -7 13 -7 13 1 0 6 -6 13 -12 16 -29 8 -105 12 -137 6z"/>
 <path d="M720 963 c0 -4 12 -19 26 -35 l27 -27 -27 -36 c-26 -34 -26 -35 -6 -35 12 0 30 10 41 23 l19 22 6 -22 c4 -16 14 -23 30 -23 29 0 30 11 4 35 -25 22 -25 33 0 65 25 32 25 40 0 40 -10 0 -24 -9 -30 -20 -6 -11 -15 -20 -21 -20 -6 0 -13 9 -16 20 -3 13 -14 20 -29 20 -13 0 -24 -3 -24 -7z"/>
 <path d="M1140 963 c0 -5 9 -19 20 -33 25 -32 25 -43 0 -65 -27 -24 -25 -35 4 -35 17 0 27 7 32 22 l7 22 17 -22 c10 -12 28 -22 40 -22 21 0 21 0 -4 31 -32 38 -32 40 -1 69 14 13 25 27 25 32 0 17 -43 7 -60 -14 l-17 -22 -14 22 c-13 20 -49 31 -49 15z"/>
 </g>
<g id="layer107" fill="#da9867" stroke="none">
 <path d="M120 1983 c0 -32 24 -123 33 -123 4 0 5 -4 2 -10 -3 -5 -1 -10 4 -10 6 0 10 -3 9 -7 -5 -14 27 -48 62 -67 19 -10 80 -29 135 -41 55 -13 138 -37 185 -55 47 -17 100 -36 118 -41 18 -6 36 -17 39 -25 3 -8 9 -14 13 -14 12 0 30 59 30 99 0 20 11 72 25 115 14 43 30 97 36 120 5 22 12 49 15 59 5 16 -16 17 -350 17 -330 0 -356 -1 -356 -17z"/>
 <path d="M920 1992 c0 -4 7 -34 15 -67 13 -47 13 -60 3 -67 -45 -27 -45 -25 2 -73 24 -25 49 -45 55 -45 6 0 28 18 50 40 l39 40 -27 28 c-26 27 -27 32 -18 73 19 79 19 79 -54 79 -36 0 -65 -4 -65 -8z"/>
 <path d="M1160 1993 c0 -5 18 -70 40 -146 22 -76 40 -154 40 -172 0 -19 5 -46 10 -61 10 -24 12 -25 28 -11 9 8 35 22 57 30 147 55 199 71 290 92 131 29 175 57 209 129 16 34 26 72 26 100 l0 46 -350 0 c-192 0 -350 -3 -350 -7z"/>
 <path d="M790 1564 c-6 -14 -10 -31 -10 -39 0 -7 -15 -22 -33 -34 -18 -11 -43 -31 -56 -45 -14 -14 -30 -26 -37 -26 -19 0 -54 -50 -54 -78 0 -43 -48 -136 -80 -154 -32 -18 -33 -20 -50 -85 -5 -22 -26 -64 -45 -92 -55 -79 -58 -169 -7 -185 17 -6 17 -11 3 -101 -18 -115 -6 -209 36 -288 29 -53 112 -134 147 -143 11 -3 36 -25 54 -50 18 -24 57 -60 87 -80 l53 -36 169 4 c159 4 172 5 238 33 113 48 178 90 229 146 92 102 111 171 104 370 -3 76 -1 136 3 133 5 -3 21 7 35 21 24 24 26 32 20 75 -4 28 -21 72 -41 107 -20 32 -38 75 -42 95 -6 38 -45 88 -68 88 -14 0 -65 129 -65 165 0 16 -10 31 -27 42 -16 10 -54 40 -85 67 -46 38 -58 55 -58 77 0 16 -4 29 -10 29 -5 0 -10 -10 -10 -22 0 -13 -4 -18 -8 -12 -4 5 -50 16 -102 23 -91 12 -166 7 -222 -14 -11 -4 -18 -3 -18 4 0 8 -5 9 -19 2 -16 -9 -18 -8 -14 9 8 29 -6 24 -17 -6z m363 -46 c69 -33 159 -115 187 -173 22 -46 90 -265 111 -358 9 -41 9 -61 2 -68 -15 -15 -33 -3 -33 21 0 28 -49 81 -95 101 -70 32 -163 18 -226 -33 -25 -21 -59 -81 -59 -105 0 -16 -8 -25 -24 -29 -35 -9 -66 4 -66 27 0 48 -59 117 -122 143 -100 42 -244 -15 -262 -104 -7 -35 -21 -39 -30 -7 -12 45 93 389 140 457 36 53 135 123 202 145 74 23 203 15 275 -17z m-583 -348 c0 -5 -6 -29 -14 -52 -8 -24 -20 -67 -27 -95 -7 -29 -16 -53 -20 -53 -4 0 -9 19 -11 43 l-3 42 -14 -27 c-12 -23 -11 -33 4 -75 16 -46 16 -51 1 -81 -16 -31 -48 -43 -61 -22 -3 6 0 10 7 10 9 0 14 14 14 43 2 63 9 97 33 147 11 25 21 54 21 65 0 30 28 65 51 65 10 0 19 -4 19 -10z m886 2 c15 -10 34 -47 34 -67 0 -9 9 -35 20 -58 12 -23 23 -74 27 -114 4 -55 10 -73 22 -76 12 -3 10 -7 -9 -14 -50 -21 -64 25 -45 143 4 26 3 44 -4 48 -7 5 -11 -4 -11 -23 0 -48 -17 -45 -29 7 -7 26 -19 67 -27 92 -8 25 -14 51 -14 58 0 13 19 16 36 4z m-592 -165 c42 -33 66 -74 66 -115 0 -54 -72 -92 -175 -92 -113 0 -170 39 -170 115 0 80 67 127 176 122 54 -2 73 -7 103 -30z m466 14 c50 -26 83 -78 76 -119 -6 -42 -20 -58 -67 -83 -44 -22 -145 -26 -200 -8 -86 29 -105 98 -47 165 18 20 46 43 63 50 45 20 134 17 175 -5z m114 -213 c-48 -253 -152 -378 -313 -378 -36 0 -91 7 -121 15 -33 9 -101 15 -170 15 -91 0 -124 4 -157 19 -68 32 -114 121 -128 250 -3 31 -8 75 -11 99 -6 50 3 53 48 11 92 -86 242 -113 313 -57 19 15 23 23 15 33 -17 21 17 39 73 40 57 0 95 -23 74 -45 -27 -27 78 -66 151 -56 62 8 126 39 179 86 25 22 49 40 53 40 4 0 1 -32 -6 -72z"/>
 <path d="M921 1349 c-56 -22 43 -48 133 -35 49 8 62 29 24 40 -35 9 -130 6 -157 -5z"/>
 <path d="M720 963 c0 -4 12 -19 26 -35 l27 -27 -27 -36 c-26 -34 -26 -35 -6 -35 12 0 30 10 41 23 l19 22 6 -22 c4 -16 14 -23 30 -23 29 0 30 11 4 35 -25 22 -25 33 0 65 25 32 25 40 0 40 -10 0 -24 -9 -30 -20 -6 -11 -15 -20 -21 -20 -6 0 -13 9 -16 20 -3 13 -14 20 -29 20 -13 0 -24 -3 -24 -7z"/>
 <path d="M1140 963 c0 -5 9 -19 20 -33 25 -32 25 -43 0 -65 -27 -24 -25 -35 4 -35 17 0 27 7 32 22 l7 22 17 -22 c10 -12 28 -22 40 -22 21 0 21 0 -4 31 -32 38 -32 40 -1 69 14 13 25 27 25 32 0 17 -43 7 -60 -14 l-17 -22 -14 22 c-13 20 -49 31 -49 15z"/>
 </g>
<g id="layer108" fill="#bdbd4e" stroke="none">
 <path d="M120 1983 c0 -32 24 -123 33 -123 4 0 5 -4 2 -10 -3 -5 -1 -10 4 -10 6 0 10 -3 9 -7 -5 -14 27 -48 62 -67 19 -10 80 -29 135 -41 55 -13 138 -37 185 -55 47 -17 100 -36 118 -41 18 -6 36 -17 39 -25 3 -8 9 -14 13 -14 12 0 30 59 30 99 0 20 11 72 25 115 14 43 30 97 36 120 5 22 12 49 15 59 5 16 -16 17 -350 17 -330 0 -356 -1 -356 -17z"/>
 <path d="M920 1992 c0 -4 7 -34 15 -67 13 -47 13 -60 3 -67 -45 -27 -45 -25 2 -73 24 -25 49 -45 55 -45 6 0 28 18 50 40 l39 40 -27 28 c-26 27 -27 32 -18 73 19 79 19 79 -54 79 -36 0 -65 -4 -65 -8z"/>
 <path d="M1160 1993 c0 -5 18 -70 40 -146 22 -76 40 -154 40 -172 0 -19 5 -46 10 -61 10 -24 12 -25 28 -11 9 8 35 22 57 30 147 55 199 71 290 92 131 29 175 57 209 129 16 34 26 72 26 100 l0 46 -350 0 c-192 0 -350 -3 -350 -7z"/>
 <path d="M1198 1574 c-5 -4 -8 -16 -8 -27 0 -14 -4 -17 -17 -12 -57 24 -115 35 -178 35 -63 0 -121 -11 -177 -35 -13 -5 -18 -2 -19 11 0 13 -5 8 -15 -13 -7 -18 -26 -39 -41 -47 -16 -8 -39 -26 -52 -40 -14 -14 -30 -26 -37 -26 -19 0 -54 -50 -54 -78 0 -43 -48 -136 -80 -154 -32 -18 -33 -20 -50 -85 -5 -22 -26 -64 -45 -92 -55 -79 -58 -169 -7 -185 17 -6 17 -11 3 -101 -18 -115 -6 -209 36 -288 29 -53 112 -134 147 -143 11 -3 36 -25 54 -50 18 -24 57 -60 87 -80 l53 -36 169 4 c159 4 172 5 238 33 113 48 178 90 229 146 92 102 111 171 104 370 -3 76 -1 136 3 133 5 -3 21 7 35 21 24 24 26 32 20 75 -4 28 -21 72 -41 107 -20 32 -38 75 -42 95 -6 38 -45 88 -68 88 -15 0 -65 129 -65 165 0 17 -11 32 -34 47 -96 65 -134 103 -138 136 -1 19 -6 30 -10 26z m-43 -57 c156 -79 192 -138 279 -457 31 -114 33 -153 9 -148 -9 2 -20 16 -24 32 -16 60 -103 116 -179 116 -79 0 -181 -71 -196 -137 -11 -53 -13 -54 -50 -51 -34 3 -38 6 -50 47 -23 77 -110 141 -193 141 -77 0 -164 -55 -179 -113 -10 -39 -28 -45 -36 -12 -7 29 72 329 107 403 40 86 153 177 252 203 17 5 71 7 120 5 73 -2 100 -8 140 -29z m-588 -359 c-9 -45 -48 -183 -53 -187 -8 -8 -15 6 -17 38 -2 37 -3 37 -17 11 -8 -14 -7 -29 5 -56 20 -48 19 -62 -5 -102 -18 -29 -22 -31 -42 -21 -18 10 -19 13 -8 18 10 4 15 21 16 51 1 25 5 56 9 69 5 15 5 22 -2 18 -5 -3 3 19 19 50 15 31 28 65 28 76 0 27 28 57 53 57 15 0 18 -5 14 -22z m903 2 c11 -11 20 -31 20 -45 0 -14 9 -44 20 -65 12 -23 23 -71 27 -114 4 -58 10 -76 22 -78 12 -3 11 -7 -8 -17 -19 -11 -26 -11 -36 1 -23 23 -33 80 -18 108 15 30 17 76 3 85 -6 4 -10 -6 -10 -24 0 -62 -18 -37 -47 64 -29 99 -29 105 -12 105 11 0 28 -9 39 -20z m-606 -153 c42 -33 66 -74 66 -115 0 -54 -72 -92 -175 -92 -113 0 -170 39 -170 115 0 80 67 127 176 122 54 -2 73 -7 103 -30z m466 14 c50 -26 83 -78 76 -119 -6 -42 -20 -58 -67 -83 -44 -22 -145 -26 -200 -8 -86 29 -105 98 -47 165 18 20 46 43 63 50 45 20 134 17 175 -5z m115 -207 c-35 -185 -97 -302 -187 -353 -44 -26 -64 -31 -120 -31 -37 0 -96 7 -132 15 -41 10 -104 14 -169 13 -92 -2 -108 0 -152 22 -83 42 -120 127 -140 323 -7 76 3 86 45 42 58 -62 167 -102 244 -91 54 8 102 42 86 61 -17 21 20 40 76 40 57 -1 92 -23 71 -44 -28 -28 77 -67 152 -56 62 8 137 47 191 99 25 23 46 42 48 41 1 -1 -5 -37 -13 -81z"/>
 <path d="M921 1350 c-44 -19 -8 -35 79 -35 74 0 115 13 97 31 -11 12 -151 14 -176 4z"/>
 <path d="M720 963 c0 -4 12 -19 26 -35 l27 -27 -27 -36 c-26 -34 -26 -35 -6 -35 12 0 30 10 41 23 l19 22 6 -22 c4 -16 14 -23 30 -23 29 0 30 11 4 35 -25 22 -25 33 0 65 25 32 25 40 0 40 -10 0 -24 -9 -30 -20 -6 -11 -15 -20 -21 -20 -6 0 -13 9 -16 20 -3 13 -14 20 -29 20 -13 0 -24 -3 -24 -7z"/>
 <path d="M1140 963 c0 -5 9 -19 20 -33 25 -32 25 -43 0 -65 -27 -24 -25 -35 4 -35 17 0 27 7 32 22 l7 22 17 -22 c10 -12 28 -22 40 -22 21 0 21 0 -4 31 -32 38 -32 40 -1 69 14 13 25 27 25 32 0 17 -43 7 -60 -14 l-17 -22 -14 22 c-13 20 -49 31 -49 15z"/>
 </g>
<g id="layer109" fill="#aacb2c" stroke="none">
 <path d="M120 1983 c0 -32 24 -123 33 -123 4 0 5 -4 2 -10 -3 -5 -1 -10 4 -10 6 0 10 -3 9 -7 -5 -14 27 -48 62 -67 19 -10 80 -29 135 -41 55 -13 138 -37 185 -55 47 -17 100 -36 118 -41 18 -6 36 -17 39 -25 3 -8 9 -14 13 -14 12 0 30 59 30 99 0 20 11 72 25 115 14 43 30 97 36 120 5 22 12 49 15 59 5 16 -16 17 -350 17 -330 0 -356 -1 -356 -17z"/>
 <path d="M920 1992 c0 -4 7 -34 15 -67 13 -47 13 -60 3 -67 -45 -27 -45 -25 2 -73 24 -25 49 -45 55 -45 6 0 28 18 50 40 l39 40 -27 28 c-26 27 -27 32 -18 73 19 79 19 79 -54 79 -36 0 -65 -4 -65 -8z"/>
 <path d="M1160 1993 c0 -5 18 -70 40 -146 22 -76 40 -154 40 -172 0 -19 5 -46 10 -61 10 -24 12 -25 28 -11 9 8 35 22 57 30 147 55 199 71 290 92 131 29 175 57 209 129 16 34 26 72 26 100 l0 46 -350 0 c-192 0 -350 -3 -350 -7z"/>
 <path d="M1198 1574 c-5 -4 -8 -16 -8 -27 0 -14 -4 -17 -17 -12 -57 24 -115 35 -178 35 -63 0 -121 -11 -177 -35 -13 -5 -18 -2 -19 11 0 13 -5 8 -15 -13 -7 -18 -26 -39 -41 -47 -16 -8 -39 -26 -52 -40 -14 -14 -30 -26 -37 -26 -19 0 -54 -50 -54 -78 0 -43 -48 -136 -80 -154 -32 -18 -33 -20 -50 -85 -5 -22 -26 -64 -45 -92 -55 -79 -58 -169 -7 -185 17 -6 17 -11 3 -101 -18 -115 -6 -209 36 -288 29 -53 112 -134 147 -143 11 -3 36 -25 54 -50 18 -24 57 -60 87 -80 l53 -36 169 4 c159 4 172 5 238 33 113 48 178 90 229 146 92 102 111 171 104 370 -3 76 -1 136 3 133 5 -3 21 7 35 21 24 24 26 32 20 75 -4 28 -21 72 -41 107 -20 32 -38 75 -42 95 -6 38 -45 88 -68 88 -15 0 -65 129 -65 165 0 17 -11 32 -34 47 -96 65 -134 103 -138 136 -1 19 -6 30 -10 26z m-43 -57 c156 -79 192 -138 279 -457 30 -111 31 -140 11 -246 -35 -185 -97 -302 -187 -353 -44 -26 -64 -31 -120 -31 -37 0 -96 7 -132 15 -40 9 -106 15 -168 14 -201 -4 -259 57 -288 308 -12 98 -8 133 16 133 8 0 14 5 14 11 0 6 -8 8 -19 4 -37 -11 -34 37 14 211 25 91 55 187 68 212 40 86 153 177 252 203 17 5 71 7 120 5 73 -2 100 -8 140 -29z m-588 -359 c-9 -45 -48 -183 -53 -187 -8 -8 -15 6 -17 38 -2 37 -3 37 -17 11 -8 -14 -7 -29 5 -56 20 -48 19 -62 -5 -102 -18 -29 -22 -31 -42 -21 -18 10 -19 13 -8 18 10 4 15 21 16 51 1 25 5 56 9 69 5 15 5 22 -2 18 -5 -3 3 19 19 50 15 31 28 65 28 76 0 27 28 57 53 57 15 0 18 -5 14 -22z m903 2 c11 -11 20 -31 20 -45 0 -14 9 -44 20 -65 12 -23 23 -71 27 -114 4 -58 10 -76 22 -78 12 -3 11 -7 -8 -17 -19 -11 -26 -11 -36 1 -23 23 -33 80 -18 108 15 30 17 76 3 85 -6 4 -10 -6 -10 -24 0 -62 -18 -37 -47 64 -29 99 -29 105 -12 105 11 0 28 -9 39 -20z"/>
 <path d="M921 1350 c-44 -19 -8 -35 79 -35 74 0 115 13 97 31 -11 12 -151 14 -176 4z"/>
 <path d="M622 1014 c-12 -8 -27 -25 -32 -37 -10 -20 -9 -20 10 2 12 14 29 30 38 38 24 18 11 16 -16 -3z"/>
 <path d="M878 1002 c18 -16 39 -45 47 -64 8 -18 14 -26 15 -18 0 22 -47 87 -73 101 -15 8 -12 2 11 -19z"/>
 <path d="M1106 1009 c-14 -11 -31 -30 -37 -42 -9 -20 -8 -20 9 2 11 13 30 32 43 42 13 10 21 19 18 19 -4 0 -18 -9 -33 -21z"/>
 <path d="M1379 992 c6 -12 16 -24 22 -28 8 -4 8 -1 0 14 -6 12 -16 24 -22 28 -8 4 -8 1 0 -14z"/>
 <path d="M720 963 c0 -4 12 -19 26 -35 l27 -27 -27 -36 c-26 -34 -26 -35 -6 -35 12 0 30 10 41 23 l19 22 6 -22 c4 -16 14 -23 30 -23 29 0 30 11 4 35 -25 22 -25 33 0 65 25 32 25 40 0 40 -10 0 -24 -9 -30 -20 -6 -11 -15 -20 -21 -20 -6 0 -13 9 -16 20 -3 13 -14 20 -29 20 -13 0 -24 -3 -24 -7z"/>
 <path d="M1140 963 c0 -5 9 -19 20 -33 25 -32 25 -43 0 -65 -27 -24 -25 -35 4 -35 17 0 27 7 32 22 l7 22 17 -22 c10 -12 28 -22 40 -22 21 0 21 0 -4 31 -32 38 -32 40 -1 69 14 13 25 27 25 32 0 17 -43 7 -60 -14 l-17 -22 -14 22 c-13 20 -49 31 -49 15z"/>
 <path d="M1411 917 c0 -21 -8 -50 -17 -65 -16 -27 -16 -27 2 -6 11 12 27 24 37 27 20 8 23 37 3 37 -8 0 -17 10 -19 23 -3 13 -5 7 -6 -16z"/>
 <path d="M1038 892 c-5 -18 -13 -22 -47 -22 -26 0 -41 5 -41 13 0 8 -4 7 -10 -3 -7 -12 -3 -16 23 -22 18 -4 42 -4 55 -1 14 3 31 -2 45 -13 17 -15 19 -15 9 -2 -8 9 -17 29 -21 45 -7 27 -8 27 -13 5z"/>
 <path d="M568 870 c12 -5 22 -14 22 -20 0 -17 103 -78 152 -91 60 -14 128 -5 164 23 24 19 25 23 10 33 -12 9 -27 8 -68 -6 -29 -10 -72 -18 -96 -19 -54 0 -136 34 -157 66 -8 13 -23 24 -33 23 -13 0 -11 -3 6 -9z"/>
 <path d="M1072 814 c-16 -13 -16 -15 3 -29 65 -51 199 -39 275 24 l25 21 -45 -20 c-56 -24 -119 -25 -188 -1 -44 15 -55 16 -70 5z"/>
 </g>
<g id="layer110" fill="#d17352" stroke="none">
 <path d="M120 1983 c0 -32 24 -123 33 -123 4 0 5 -4 2 -10 -3 -5 -1 -10 4 -10 6 0 10 -3 9 -7 -5 -14 27 -48 62 -67 19 -10 80 -29 135 -41 55 -13 138 -37 185 -55 47 -17 100 -36 118 -41 18 -6 36 -17 39 -25 3 -8 9 -14 13 -14 12 0 30 59 30 99 0 20 11 72 25 115 14 43 30 97 36 120 5 22 12 49 15 59 5 16 -16 17 -350 17 -330 0 -356 -1 -356 -17z"/>
 <path d="M920 1992 c0 -4 7 -34 15 -67 13 -47 13 -60 3 -67 -45 -27 -45 -25 2 -73 24 -25 49 -45 55 -45 6 0 28 18 50 40 l39 40 -27 28 c-26 27 -27 32 -18 73 19 79 19 79 -54 79 -36 0 -65 -4 -65 -8z"/>
 <path d="M1160 1993 c0 -5 18 -70 40 -146 22 -76 40 -154 40 -172 0 -19 5 -46 10 -61 10 -24 12 -25 28 -11 9 8 35 22 57 30 147 55 199 71 290 92 131 29 175 57 209 129 16 34 26 72 26 100 l0 46 -350 0 c-192 0 -350 -3 -350 -7z"/>
 <path d="M1198 1574 c-5 -4 -8 -16 -8 -27 0 -14 -4 -17 -17 -12 -57 24 -115 35 -178 35 -63 0 -121 -11 -177 -35 -13 -5 -18 -2 -19 11 0 13 -5 8 -15 -13 -7 -18 -26 -39 -41 -47 -16 -8 -39 -26 -52 -40 -14 -14 -30 -26 -37 -26 -19 0 -54 -50 -54 -78 0 -43 -48 -136 -80 -154 -32 -18 -33 -20 -50 -85 -5 -22 -26 -64 -45 -92 -55 -79 -58 -169 -7 -185 17 -6 17 -11 3 -101 -18 -115 -6 -209 36 -288 29 -53 112 -134 147 -143 11 -3 36 -25 54 -50 18 -24 57 -60 87 -80 l53 -36 169 4 c159 4 172 5 238 33 113 48 178 90 229 146 92 102 111 171 104 370 -3 76 -1 136 3 133 5 -3 21 7 35 21 24 24 26 32 20 75 -4 28 -21 72 -41 107 -20 32 -38 75 -42 95 -6 38 -45 88 -68 88 -15 0 -65 129 -65 165 0 17 -11 32 -34 47 -96 65 -134 103 -138 136 -1 19 -6 30 -10 26z m-43 -57 c156 -79 192 -138 279 -457 30 -111 31 -140 11 -246 -35 -185 -97 -302 -187 -353 -44 -26 -64 -31 -120 -31 -37 0 -96 7 -132 15 -41 10 -104 14 -169 13 -92 -2 -108 0 -152 22 -90 45 -123 132 -143 370 l-10 115 44 163 c25 90 54 185 67 210 40 86 153 177 252 203 17 5 71 7 120 5 73 -2 100 -8 140 -29z m-588 -359 c-9 -45 -48 -183 -53 -187 -8 -8 -15 6 -17 38 -2 37 -3 37 -17 11 -8 -14 -7 -29 5 -56 20 -48 19 -62 -5 -102 -18 -29 -22 -31 -42 -21 -18 10 -19 13 -8 18 10 4 15 21 16 51 1 25 5 56 9 69 5 15 5 22 -2 18 -5 -3 3 19 19 50 15 31 28 65 28 76 0 27 28 57 53 57 15 0 18 -5 14 -22z m903 2 c11 -11 20 -31 20 -45 0 -14 9 -44 20 -65 12 -23 23 -71 27 -114 4 -58 10 -76 22 -78 12 -3 11 -7 -8 -17 -19 -11 -26 -11 -36 1 -23 23 -33 80 -18 108 15 30 17 76 3 85 -6 4 -10 -6 -10 -24 0 -62 -18 -37 -47 64 -29 99 -29 105 -12 105 11 0 28 -9 39 -20z"/>
 <path d="M921 1350 c-44 -19 -8 -35 79 -35 74 0 115 13 97 31 -11 12 -151 14 -176 4z"/>
 <path d="M720 963 c0 -4 12 -19 26 -35 l27 -27 -27 -36 c-26 -34 -26 -35 -6 -35 12 0 30 10 41 23 l19 22 6 -22 c4 -16 14 -23 30 -23 29 0 30 11 4 35 -25 22 -25 33 0 65 25 32 25 40 0 40 -10 0 -24 -9 -30 -20 -6 -11 -15 -20 -21 -20 -6 0 -13 9 -16 20 -3 13 -14 20 -29 20 -13 0 -24 -3 -24 -7z"/>
 <path d="M1140 963 c0 -5 9 -19 20 -33 25 -32 25 -43 0 -65 -27 -24 -25 -35 4 -35 17 0 27 7 32 22 l7 22 17 -22 c10 -12 28 -22 40 -22 21 0 21 0 -4 31 -32 38 -32 40 -1 69 14 13 25 27 25 32 0 17 -43 7 -60 -14 l-17 -22 -14 22 c-13 20 -49 31 -49 15z"/>
 <path d="M861 803 c-37 -16 -139 -21 -181 -9 -23 7 -24 6 -7 -8 28 -22 113 -39 162 -32 46 7 99 41 90 57 -8 12 -23 10 -64 -8z"/>
 <path d="M1064 808 c-18 -28 84 -63 155 -53 47 7 117 32 110 39 -2 2 -24 1 -49 -4 -47 -9 -135 1 -169 19 -25 14 -38 14 -47 -1z"/>
 </g>
<g id="layer111" fill="#c95f50" stroke="none">
 <path d="M120 1983 c0 -32 24 -123 33 -123 4 0 5 -4 2 -10 -3 -5 -1 -10 4 -10 6 0 10 -3 9 -7 -5 -14 27 -48 62 -67 19 -10 80 -29 135 -41 55 -13 138 -37 185 -55 47 -17 100 -36 118 -41 18 -6 36 -17 39 -25 3 -8 9 -14 13 -14 12 0 30 59 30 99 0 20 11 72 25 115 14 43 30 97 36 120 5 22 12 49 15 59 5 16 -16 17 -350 17 -330 0 -356 -1 -356 -17z"/>
 <path d="M920 1992 c0 -4 7 -34 15 -67 13 -47 13 -60 3 -67 -45 -27 -45 -25 2 -73 24 -25 49 -45 55 -45 6 0 28 18 50 40 l39 40 -27 28 c-26 27 -27 32 -18 73 19 79 19 79 -54 79 -36 0 -65 -4 -65 -8z"/>
 <path d="M1160 1993 c0 -5 18 -70 40 -146 22 -76 40 -154 40 -172 0 -19 5 -46 10 -61 10 -24 12 -25 28 -11 9 8 35 22 57 30 147 55 199 71 290 92 131 29 175 57 209 129 16 34 26 72 26 100 l0 46 -350 0 c-192 0 -350 -3 -350 -7z"/>
 <path d="M1200 1514 c0 -4 27 -32 60 -62 67 -60 86 -92 121 -200 18 -57 26 -71 39 -67 19 6 70 -30 70 -48 0 -32 24 -90 55 -135 47 -68 55 -116 24 -148 -40 -42 -61 -30 -83 52 -4 11 1 35 10 52 8 18 14 38 11 45 -3 6 -10 0 -16 -15 -6 -16 -14 -28 -19 -28 -5 0 -12 -33 -15 -72 -18 -205 -105 -386 -210 -437 -54 -26 -150 -28 -257 -5 -51 11 -98 14 -147 10 -180 -16 -262 63 -292 278 -6 43 -11 104 -11 135 0 44 -5 65 -21 85 -11 15 -25 39 -29 54 -8 26 -8 26 -9 -9 -1 -19 5 -44 13 -54 17 -23 6 -70 -23 -99 -19 -18 -21 -18 -47 -2 -23 16 -26 23 -22 60 3 25 22 70 45 109 22 36 43 84 47 106 6 42 32 66 70 66 14 0 24 16 41 65 41 120 71 164 165 239 14 11 19 20 13 21 -7 0 -13 -4 -13 -10 0 -5 -7 -10 -15 -10 -8 0 -32 -16 -54 -35 -21 -19 -43 -35 -49 -35 -18 0 -52 -51 -52 -78 0 -43 -48 -136 -80 -154 -32 -18 -33 -20 -50 -85 -5 -22 -25 -63 -44 -90 -54 -79 -59 -157 -12 -182 l22 -12 -15 -95 c-18 -114 -6 -209 36 -287 29 -53 112 -134 147 -143 11 -3 36 -25 54 -50 18 -24 57 -60 87 -80 l53 -36 169 4 c159 4 172 5 238 33 113 48 178 90 229 146 92 102 111 171 104 370 -3 76 -1 136 3 133 5 -3 21 7 35 21 24 24 26 32 20 75 -4 28 -21 72 -41 106 -19 31 -38 73 -41 93 -7 37 -48 91 -70 91 -14 0 -64 130 -64 165 0 16 -10 31 -27 42 -16 9 -48 35 -73 56 -48 42 -80 62 -80 51z"/>
 <path d="M932 1353 c-36 -7 -20 -27 30 -36 78 -15 172 16 106 35 -26 7 -101 8 -136 1z"/>
 <path d="M1536 975 c4 -11 10 -42 14 -70 4 -34 9 -45 14 -34 8 18 -7 85 -25 109 -9 12 -9 11 -3 -5z"/>
 <path d="M430 944 c-12 -32 -13 -71 -1 -78 5 -4 11 19 13 49 1 30 2 55 0 55 -1 0 -7 -12 -12 -26z"/>
 <path d="M720 963 c0 -4 12 -19 26 -35 l27 -27 -27 -36 c-26 -34 -26 -35 -6 -35 12 0 30 10 41 23 l19 22 6 -22 c4 -16 14 -23 30 -23 29 0 30 11 4 35 -25 22 -25 33 0 65 25 32 25 40 0 40 -10 0 -24 -9 -30 -20 -6 -11 -15 -20 -21 -20 -6 0 -13 9 -16 20 -3 13 -14 20 -29 20 -13 0 -24 -3 -24 -7z"/>
 <path d="M1140 963 c0 -5 9 -19 20 -33 25 -32 25 -43 0 -65 -27 -24 -25 -35 4 -35 17 0 27 7 32 22 l7 22 17 -22 c10 -12 28 -22 40 -22 21 0 21 0 -4 31 -32 38 -32 40 -1 69 14 13 25 27 25 32 0 17 -43 7 -60 -14 l-17 -22 -14 22 c-13 20 -49 31 -49 15z"/>
 <path d="M861 803 c-36 -15 -138 -21 -181 -10 -14 4 -7 -2 15 -13 74 -36 215 -22 223 23 4 20 -11 21 -57 0z"/>
 <path d="M1066 811 c-3 -4 4 -17 15 -27 32 -29 160 -31 214 -4 22 11 29 17 15 13 -44 -11 -146 -5 -185 11 -43 18 -52 19 -59 7z"/>
 </g>
<g id="layer112" fill="#a3695d" stroke="none">
 <path d="M120 1983 c0 -32 24 -123 33 -123 4 0 5 -4 2 -10 -3 -5 -1 -10 4 -10 6 0 10 -3 9 -7 -5 -14 27 -48 62 -67 19 -10 80 -29 135 -41 55 -13 138 -37 185 -55 47 -17 100 -36 118 -41 18 -6 36 -17 39 -25 3 -8 9 -14 13 -14 12 0 30 59 30 99 0 20 11 72 25 115 14 43 30 97 36 120 5 22 12 49 15 59 5 16 -16 17 -350 17 -330 0 -356 -1 -356 -17z"/>
 <path d="M920 1992 c0 -4 7 -34 15 -67 13 -47 13 -60 3 -67 -45 -27 -45 -25 2 -73 24 -25 49 -45 55 -45 6 0 28 18 50 40 l39 40 -27 28 c-26 27 -27 32 -18 73 19 79 19 79 -54 79 -36 0 -65 -4 -65 -8z"/>
 <path d="M1160 1993 c0 -5 18 -70 40 -146 22 -76 40 -154 40 -172 0 -19 5 -46 10 -61 10 -24 12 -25 28 -11 9 8 35 22 57 30 147 55 199 71 290 92 131 29 175 57 209 129 16 34 26 72 26 100 l0 46 -350 0 c-192 0 -350 -3 -350 -7z"/>
 <path d="M750 1490 c-19 -10 -46 -30 -59 -44 -14 -14 -30 -26 -37 -26 -19 0 -54 -50 -54 -78 0 -43 -48 -136 -80 -154 -32 -18 -33 -20 -50 -85 -5 -22 -25 -63 -44 -90 -54 -79 -59 -157 -12 -182 l22 -12 -15 -95 c-18 -114 -6 -209 36 -287 29 -53 112 -134 147 -143 11 -3 36 -25 54 -50 18 -24 57 -60 87 -80 l53 -36 169 4 c159 4 172 5 238 33 113 48 178 90 229 146 92 102 111 171 104 370 -3 76 -2 136 2 134 4 -3 20 8 35 23 23 23 26 32 21 68 -3 23 -23 76 -46 118 -22 42 -40 87 -40 100 0 22 -47 76 -67 76 -13 0 -63 131 -63 166 0 16 -10 30 -28 42 -15 9 -49 35 -75 56 -25 22 -54 41 -64 42 -14 2 -12 -2 7 -17 93 -73 142 -149 171 -263 10 -40 14 -45 33 -40 29 7 62 -30 74 -84 6 -23 26 -66 46 -95 46 -68 56 -123 26 -155 -33 -35 -61 -25 -78 26 -11 32 -12 50 -4 65 19 38 25 70 13 63 -6 -4 -11 -13 -11 -20 0 -8 -6 -19 -14 -25 -7 -6 -16 -42 -19 -84 -13 -153 -84 -329 -159 -392 -74 -63 -128 -72 -279 -45 -78 13 -135 18 -184 14 -198 -17 -274 80 -294 372 -6 93 -11 119 -25 129 -9 7 -21 26 -26 42 -7 25 -8 26 -9 5 -1 -13 6 -36 15 -52 16 -26 16 -30 -2 -66 -26 -52 -47 -63 -74 -39 -30 27 -24 100 12 147 35 46 54 87 62 131 7 40 41 71 72 65 13 -2 23 15 45 80 32 95 81 167 139 206 22 14 40 28 40 31 0 3 -1 5 -2 4 -2 -1 -19 -9 -38 -19z m-227 -960 c6 -34 6 -34 -8 5 -7 22 -13 56 -13 75 l1 35 6 -40 c4 -22 10 -56 14 -75z m38 -85 c7 -13 3 -12 -10 5 -11 14 -21 30 -21 35 0 11 14 -7 31 -40z"/>
 <path d="M942 1352 c-64 -18 23 -45 106 -33 75 11 44 39 -43 39 -22 0 -50 -3 -63 -6z"/>
 <path d="M436 962 c-3 -5 -8 -28 -12 -50 -5 -30 -3 -42 5 -42 7 0 10 4 6 9 -3 6 -1 28 4 50 9 40 8 50 -3 33z"/>
 <path d="M720 963 c0 -4 12 -19 26 -35 l27 -27 -27 -36 c-26 -34 -26 -35 -6 -35 12 0 30 10 41 23 l19 22 6 -22 c4 -16 14 -23 30 -23 29 0 30 11 4 35 -25 22 -25 33 0 65 25 32 25 40 0 40 -10 0 -24 -9 -30 -20 -6 -11 -15 -20 -21 -20 -6 0 -13 9 -16 20 -3 13 -14 20 -29 20 -13 0 -24 -3 -24 -7z"/>
 <path d="M1140 963 c0 -5 9 -19 20 -33 25 -32 25 -43 0 -65 -27 -24 -25 -35 4 -35 17 0 27 7 32 22 l7 22 17 -22 c10 -12 28 -22 40 -22 21 0 21 0 -4 31 -32 38 -32 40 -1 69 14 13 25 27 25 32 0 17 -43 7 -60 -14 l-17 -22 -14 22 c-13 20 -49 31 -49 15z"/>
 <path d="M1551 905 c0 -34 3 -45 9 -35 4 9 5 31 0 50 -8 34 -8 33 -9 -15z"/>
 <path d="M861 803 c-37 -15 -139 -21 -181 -9 -23 6 -23 6 3 -9 43 -24 154 -31 200 -12 20 9 37 23 37 31 0 19 -14 19 -59 -1z"/>
 <path d="M1070 804 c0 -8 17 -22 38 -31 45 -19 156 -12 199 12 26 15 26 15 3 9 -43 -12 -145 -6 -185 10 -47 20 -55 20 -55 0z"/>
 </g>
<g id="layer113" fill="#c3593b" stroke="none">
 <path d="M120 1983 c0 -32 24 -123 33 -123 4 0 5 -4 2 -10 -3 -5 -1 -10 4 -10 6 0 10 -3 9 -7 -5 -14 27 -48 62 -67 19 -10 80 -29 135 -41 55 -13 138 -37 185 -55 47 -17 100 -36 118 -41 18 -6 36 -17 39 -25 3 -8 9 -14 13 -14 12 0 18 22 30 108 6 41 24 114 40 162 17 49 30 100 30 114 l0 26 -350 0 c-324 0 -350 -1 -350 -17z"/>
 <path d="M920 1992 c0 -4 7 -34 15 -67 13 -47 13 -60 3 -67 -44 -26 -44 -26 -8 -63 58 -60 64 -61 113 -16 l42 40 -28 29 c-26 27 -27 32 -18 73 19 79 19 79 -54 79 -36 0 -65 -4 -65 -8z"/>
 <path d="M1160 1992 c0 -4 16 -61 35 -127 20 -66 40 -151 46 -190 13 -85 16 -90 37 -71 10 8 35 21 57 29 147 55 199 71 290 92 131 29 175 57 209 129 16 34 26 72 26 100 l0 46 -350 0 c-192 0 -350 -3 -350 -8z"/>
 <path d="M750 1490 c-19 -10 -46 -30 -59 -44 -14 -14 -30 -26 -37 -26 -19 0 -54 -50 -54 -78 0 -43 -48 -136 -80 -154 -32 -18 -33 -20 -50 -85 -5 -22 -25 -63 -44 -90 -53 -77 -58 -158 -12 -182 l22 -12 -15 -95 c-18 -114 -6 -209 36 -287 29 -53 112 -134 147 -143 11 -3 36 -25 54 -50 18 -24 57 -60 87 -80 l53 -36 169 4 c159 4 172 5 238 33 113 48 178 90 229 146 92 102 111 171 104 370 -4 111 -3 139 8 139 7 0 23 10 34 23 30 31 21 85 -30 181 -22 42 -40 87 -40 100 0 22 -47 76 -67 76 -13 0 -63 131 -63 166 0 16 -10 30 -28 42 -16 9 -50 35 -76 56 -26 22 -55 41 -64 42 -12 2 -10 -3 8 -17 93 -73 142 -149 171 -263 10 -40 14 -45 33 -40 29 7 62 -30 74 -84 6 -23 26 -66 46 -95 46 -68 56 -123 26 -155 -33 -35 -61 -25 -78 26 -11 32 -12 50 -4 65 19 38 25 70 13 63 -6 -4 -11 -13 -11 -20 0 -8 -6 -19 -14 -25 -7 -6 -16 -42 -19 -84 -13 -153 -84 -329 -159 -392 -74 -63 -128 -72 -279 -45 -78 13 -135 18 -184 14 -198 -17 -274 80 -294 372 -6 93 -11 119 -25 129 -9 7 -21 26 -26 42 -7 25 -8 26 -9 5 -1 -13 6 -36 15 -52 16 -26 16 -30 -2 -66 -26 -52 -47 -63 -74 -39 -30 27 -24 100 12 147 35 46 54 87 62 131 7 40 41 71 72 65 13 -2 23 15 45 80 32 95 81 167 139 206 22 14 40 28 40 31 0 3 -1 5 -2 4 -2 -1 -19 -9 -38 -19z m-227 -960 c6 -34 6 -34 -8 5 -7 22 -13 56 -13 75 l1 35 6 -40 c4 -22 10 -56 14 -75z m38 -85 c7 -13 3 -12 -10 5 -11 14 -21 30 -21 35 0 11 14 -7 31 -40z"/>
 <path d="M917 1344 c-16 -16 10 -24 78 -24 82 0 115 7 93 21 -15 10 -162 12 -171 3z"/>
 <path d="M436 962 c-3 -5 -8 -28 -12 -50 -5 -30 -3 -42 5 -42 7 0 10 4 6 9 -3 6 -1 28 4 50 9 40 8 50 -3 33z"/>
 <path d="M730 964 c0 -3 10 -19 21 -36 l22 -30 -22 -28 c-26 -36 -26 -40 -2 -40 11 0 23 9 26 20 3 11 11 20 16 20 5 0 14 -9 21 -20 7 -11 21 -20 32 -20 17 0 16 3 -8 34 l-26 35 25 29 c30 36 31 42 6 42 -11 0 -23 -9 -26 -20 -3 -11 -13 -20 -21 -20 -7 0 -19 9 -26 20 -12 18 -38 28 -38 14z"/>
 <path d="M1140 964 c0 -3 11 -19 25 -36 l25 -29 -26 -35 c-22 -29 -24 -34 -9 -34 9 0 25 10 34 22 18 22 41 18 41 -8 0 -8 9 -14 20 -14 11 0 20 4 20 8 0 5 -9 17 -20 27 -25 22 -25 33 0 65 23 30 25 40 6 40 -7 0 -22 -12 -31 -27 l-18 -27 -21 27 c-20 24 -46 36 -46 21z"/>
 <path d="M1551 905 c0 -34 3 -45 9 -35 4 9 5 31 0 50 -8 34 -8 33 -9 -15z"/>
 <path d="M861 803 c-37 -15 -139 -21 -181 -9 -23 6 -23 6 3 -9 43 -24 154 -31 200 -12 20 9 37 23 37 31 0 19 -14 19 -59 -1z"/>
 <path d="M1070 804 c0 -8 17 -22 38 -31 45 -19 156 -12 199 12 26 15 26 15 3 9 -43 -12 -145 -6 -185 10 -47 20 -55 20 -55 0z"/>
 </g>
<g id="layer114" fill="#b74030" stroke="none">
 <path d="M120 1983 c0 -32 24 -123 33 -123 4 0 5 -4 2 -10 -3 -5 -1 -10 4 -10 6 0 10 -3 9 -7 -5 -14 27 -48 62 -67 19 -10 80 -29 135 -41 55 -13 138 -37 185 -55 47 -17 100 -36 118 -41 18 -6 36 -17 39 -25 3 -8 9 -14 13 -14 12 0 18 22 30 108 6 41 24 114 40 162 17 49 30 100 30 114 l0 26 -350 0 c-324 0 -350 -1 -350 -17z"/>
 <path d="M920 1992 c0 -4 7 -34 15 -67 13 -47 13 -60 3 -67 -44 -26 -44 -26 -8 -63 58 -60 64 -61 113 -16 l42 40 -28 29 c-26 27 -27 32 -18 73 19 79 19 79 -54 79 -36 0 -65 -4 -65 -8z"/>
 <path d="M1160 1992 c0 -4 16 -61 35 -127 20 -66 40 -151 46 -190 13 -85 16 -90 37 -71 10 8 35 21 57 29 147 55 199 71 290 92 131 29 175 57 209 129 16 34 26 72 26 100 l0 46 -350 0 c-192 0 -350 -3 -350 -8z"/>
 <path d="M1301 1427 c7 -12 22 -38 35 -57 12 -19 32 -68 45 -107 13 -42 29 -73 36 -73 18 0 17 8 -12 84 -14 37 -25 77 -25 91 0 17 -13 32 -45 54 -41 28 -44 29 -34 8z"/>
 <path d="M654 1420 c-29 -11 -54 -49 -54 -80 0 -14 -12 -49 -25 -79 -18 -37 -22 -58 -15 -65 15 -15 25 0 49 75 12 36 35 87 51 113 30 47 30 51 -6 36z"/>
 <path d="M917 1344 c-16 -16 10 -24 78 -24 82 0 115 7 93 21 -15 10 -162 12 -171 3z"/>
 <path d="M730 964 c0 -3 10 -19 21 -36 l22 -30 -22 -28 c-26 -36 -26 -40 -2 -40 11 0 23 9 26 20 3 11 11 20 16 20 5 0 14 -9 21 -20 7 -11 21 -20 32 -20 17 0 16 3 -8 34 l-26 35 25 29 c30 36 31 42 6 42 -11 0 -23 -9 -26 -20 -3 -11 -13 -20 -21 -20 -7 0 -19 9 -26 20 -12 18 -38 28 -38 14z"/>
 <path d="M1140 964 c0 -3 11 -19 25 -36 l25 -29 -26 -35 c-22 -29 -24 -34 -9 -34 9 0 25 10 34 22 18 22 41 18 41 -8 0 -8 9 -14 20 -14 11 0 20 4 20 8 0 5 -9 17 -20 27 -25 22 -25 33 0 65 23 30 25 40 6 40 -7 0 -22 -12 -31 -27 l-18 -27 -21 27 c-20 24 -46 36 -46 21z"/>
 <path d="M510 933 c-1 -30 -38 -103 -53 -103 -19 0 -22 -9 -38 -117 -15 -110 -3 -200 39 -276 28 -53 111 -134 146 -143 11 -3 36 -25 54 -50 18 -24 57 -60 87 -80 l53 -36 169 4 c159 4 172 5 238 33 113 48 178 90 229 146 91 101 111 173 104 367 -4 114 -7 133 -26 157 -12 16 -25 45 -28 67 -8 47 -24 50 -24 5 0 -78 -41 -239 -82 -320 -27 -54 -85 -115 -132 -140 -51 -26 -147 -27 -256 -4 -51 11 -99 14 -150 10 -101 -7 -154 8 -206 61 -52 51 -80 136 -89 263 -9 130 -15 173 -26 173 -5 0 -9 -8 -9 -17z m11 -368 c11 -64 48 -138 77 -154 9 -6 12 -11 5 -11 -6 0 -27 18 -47 41 -38 45 -57 109 -55 187 1 26 3 36 5 22 3 -14 9 -52 15 -85z m959 20 c-17 -45 -49 -100 -75 -130 -30 -34 -25 -20 14 40 15 22 34 57 44 78 19 41 32 51 17 12z m4 -118 c-9 -25 -33 -66 -55 -89 l-40 -43 46 68 c25 38 45 76 45 86 0 17 10 34 17 28 1 -2 -4 -24 -13 -50z m-599 -147 c-10 -11 -21 -17 -24 -14 -3 3 3 12 13 20 28 20 32 17 11 -6z m-110 -128 c11 -6 14 -12 7 -12 -7 0 -27 15 -45 33 -18 17 -21 22 -7 11 14 -12 34 -26 45 -32z m435 29 c0 -15 -91 -41 -139 -40 l-46 1 50 9 c28 4 68 15 90 23 22 8 41 15 43 15 1 1 2 -3 2 -8z"/>
 <path d="M861 803 c-37 -15 -139 -21 -181 -10 -15 4 -10 0 10 -9 71 -33 215 -25 227 12 6 19 -20 22 -56 7z"/>
 <path d="M1079 809 c-38 -25 73 -57 154 -45 73 11 73 23 0 24 -38 0 -85 7 -105 15 -22 9 -40 12 -49 6z"/>
 </g>
<g id="layer115" fill="#a76421" stroke="none">
 <path d="M120 1983 c0 -32 24 -123 33 -123 4 0 5 -4 2 -10 -3 -5 -1 -10 4 -10 6 0 10 -3 9 -7 -5 -14 27 -48 62 -67 19 -10 80 -29 135 -41 55 -13 138 -37 185 -55 47 -17 100 -36 118 -41 18 -6 36 -17 39 -25 3 -8 9 -14 13 -14 12 0 18 22 30 108 6 41 24 114 40 162 17 49 30 100 30 114 l0 26 -350 0 c-324 0 -350 -1 -350 -17z"/>
 <path d="M920 1992 c0 -4 7 -34 15 -67 13 -47 13 -60 3 -67 -44 -26 -44 -26 -8 -63 58 -60 64 -61 113 -16 l42 40 -28 29 c-26 27 -27 32 -18 73 19 79 19 79 -54 79 -36 0 -65 -4 -65 -8z"/>
 <path d="M1160 1992 c0 -4 16 -61 35 -127 20 -66 40 -151 46 -190 13 -85 16 -90 37 -71 10 8 35 21 57 29 147 55 199 71 290 92 131 29 175 57 209 129 16 34 26 72 26 100 l0 46 -350 0 c-192 0 -350 -3 -350 -8z"/>
 <path d="M654 1420 c-29 -11 -54 -48 -54 -80 0 -14 -11 -47 -23 -75 -23 -48 -25 -75 -7 -75 5 0 20 36 35 80 14 43 38 96 51 116 28 41 28 45 -2 34z"/>
 <path d="M1310 1425 c0 -4 9 -19 20 -35 11 -15 34 -66 51 -114 19 -54 35 -84 41 -78 5 5 1 30 -12 63 -12 30 -25 72 -29 94 -5 30 -14 43 -39 58 -17 10 -32 16 -32 12z"/>
 <path d="M922 1341 c-21 -13 10 -21 78 -21 32 0 66 3 75 6 31 12 -6 24 -75 24 -36 0 -71 -4 -78 -9z"/>
 <path d="M730 964 c0 -3 10 -19 21 -36 l22 -30 -22 -28 c-26 -36 -26 -40 -2 -40 11 0 23 9 26 20 3 11 11 20 16 20 5 0 14 -9 21 -20 7 -11 21 -20 32 -20 17 0 16 3 -8 34 l-26 35 25 29 c30 36 31 42 6 42 -11 0 -23 -9 -26 -20 -3 -11 -13 -20 -21 -20 -7 0 -19 9 -26 20 -12 18 -38 28 -38 14z"/>
 <path d="M1140 964 c0 -3 11 -19 25 -36 l25 -29 -26 -35 c-22 -29 -24 -34 -9 -34 9 0 25 10 34 22 18 22 41 18 41 -8 0 -8 9 -14 20 -14 11 0 20 4 20 8 0 5 -9 17 -20 27 -25 22 -25 33 0 65 23 30 25 40 6 40 -7 0 -22 -12 -31 -27 l-18 -27 -21 27 c-20 24 -46 36 -46 21z"/>
 <path d="M517 934 c-4 -4 -7 -17 -7 -29 0 -11 -6 -27 -12 -34 -7 -8 -8 -11 -2 -8 7 4 11 -28 12 -97 4 -230 43 -336 136 -367 l47 -16 -31 -27 c-17 -14 -42 -26 -54 -26 -30 0 -91 62 -121 124 -45 92 -50 151 -28 331 5 43 4 48 -9 37 -9 -7 -20 -49 -28 -104 -16 -111 -4 -205 37 -281 29 -53 112 -134 147 -143 11 -3 36 -25 54 -50 18 -24 57 -60 87 -80 l53 -36 169 4 c159 4 172 5 238 33 113 48 178 90 229 146 90 100 111 173 103 360 -4 107 -8 130 -29 170 -14 26 -28 57 -32 70 -6 18 -11 0 -20 -66 -23 -162 -77 -287 -157 -359 -73 -66 -151 -80 -274 -51 -33 8 -109 15 -170 15 -60 0 -127 5 -147 10 -102 29 -163 164 -169 375 -3 75 -10 110 -22 99z m1000 -322 c-17 -229 -118 -348 -362 -425 -115 -36 -220 -49 -292 -36 -72 13 -108 31 -155 77 -42 40 -48 73 -23 122 22 42 31 37 27 -15 -3 -35 2 -55 22 -90 15 -25 31 -45 36 -45 5 0 6 22 3 49 -9 81 4 94 32 33 28 -61 45 -67 43 -15 -1 29 5 42 32 66 31 28 36 29 89 22 31 -5 101 -9 156 -9 90 -1 106 2 157 27 31 15 73 46 93 68 34 38 99 158 123 229 19 53 25 33 19 -58z"/>
 <path d="M1416 419 c-15 -22 -48 -53 -73 -70 -50 -31 -51 -39 -4 -14 42 21 130 125 107 125 -2 0 -15 -18 -30 -41z"/>
 <path d="M670 790 c8 -5 28 -10 44 -10 39 0 30 6 -19 13 -27 4 -35 3 -25 -3z"/>
 <path d="M783 783 c9 -2 25 -2 35 0 9 3 1 5 -18 5 -19 0 -27 -2 -17 -5z"/>
 <path d="M1173 783 c9 -2 25 -2 35 0 9 3 1 5 -18 5 -19 0 -27 -2 -17 -5z"/>
 <path d="M475 593 c14 -83 18 -99 35 -134 18 -34 50 -69 50 -54 0 4 -8 19 -19 33 -21 30 -51 123 -51 158 0 13 -5 26 -11 29 -7 5 -8 -5 -4 -32z"/>
 </g>
<g id="layer116" fill="#6d4c41" stroke="none">
 <path d="M120 1983 c0 -32 24 -123 33 -123 4 0 5 -4 2 -10 -3 -5 -1 -10 4 -10 6 0 10 -3 9 -7 -5 -14 27 -48 62 -67 19 -10 80 -29 135 -41 55 -13 138 -37 185 -55 47 -17 100 -36 118 -41 18 -6 36 -17 39 -25 3 -8 9 -14 13 -14 12 0 18 22 30 108 6 41 24 114 40 162 17 49 30 100 30 114 l0 26 -350 0 c-324 0 -350 -1 -350 -17z"/>
 <path d="M920 1992 c0 -4 7 -34 15 -67 13 -47 13 -60 3 -67 -44 -26 -44 -26 -8 -63 58 -60 64 -61 113 -16 l42 40 -28 29 c-26 27 -27 32 -18 73 19 79 19 79 -54 79 -36 0 -65 -4 -65 -8z"/>
 <path d="M1160 1992 c0 -4 16 -61 35 -127 20 -66 40 -151 46 -190 13 -85 16 -90 37 -71 10 8 35 21 57 29 147 55 199 71 290 92 131 29 175 57 209 129 16 34 26 72 26 100 l0 46 -350 0 c-192 0 -350 -3 -350 -8z"/>
 <path d="M654 1420 c-29 -11 -54 -48 -54 -80 0 -14 -11 -47 -23 -75 -23 -48 -25 -75 -7 -75 5 0 20 36 35 80 14 43 38 96 51 116 28 41 28 45 -2 34z"/>
 <path d="M1310 1425 c0 -4 9 -19 20 -35 11 -15 34 -66 51 -114 19 -54 35 -84 41 -78 5 5 1 30 -12 63 -12 30 -25 72 -29 94 -5 30 -14 43 -39 58 -17 10 -32 16 -32 12z"/>
 <path d="M922 1341 c-21 -13 10 -21 78 -21 32 0 66 3 75 6 31 12 -6 24 -75 24 -36 0 -71 -4 -78 -9z"/>
 <path d="M730 964 c0 -3 10 -19 21 -36 l22 -30 -22 -28 c-26 -36 -26 -40 -2 -40 11 0 23 9 26 20 3 11 11 20 16 20 5 0 14 -9 21 -20 7 -11 21 -20 32 -20 17 0 16 3 -8 34 l-26 35 25 29 c30 36 31 42 6 42 -11 0 -23 -9 -26 -20 -3 -11 -13 -20 -21 -20 -7 0 -19 9 -26 20 -12 18 -38 28 -38 14z"/>
 <path d="M1140 964 c0 -3 11 -19 25 -36 l25 -29 -26 -35 c-22 -29 -24 -34 -9 -34 9 0 25 10 34 22 18 22 41 18 41 -8 0 -8 9 -14 20 -14 11 0 20 4 20 8 0 5 -9 17 -20 27 -25 22 -25 33 0 65 23 30 25 40 6 40 -7 0 -22 -12 -31 -27 l-18 -27 -21 27 c-20 24 -46 36 -46 21z"/>
 <path d="M518 934 c-5 -4 -8 -17 -8 -29 0 -11 -6 -27 -12 -34 -7 -8 -8 -11 -2 -8 7 4 11 -28 12 -97 4 -230 43 -336 136 -367 l47 -16 -31 -27 c-17 -14 -42 -26 -54 -26 -30 0 -91 62 -121 124 -45 92 -50 151 -28 331 5 43 4 48 -9 37 -9 -7 -20 -49 -28 -104 -16 -111 -4 -205 37 -281 29 -53 112 -134 147 -143 11 -3 36 -25 54 -50 18 -24 57 -60 87 -80 l53 -36 169 4 c159 4 172 5 238 33 113 48 178 90 229 146 90 100 111 173 103 360 -4 107 -8 130 -29 170 -14 26 -28 57 -32 70 -6 18 -11 0 -20 -66 -23 -162 -77 -287 -157 -359 -73 -66 -151 -80 -274 -51 -33 8 -109 15 -170 15 -132 0 -174 10 -216 53 -63 63 -82 128 -106 365 -5 41 -11 70 -15 66z m999 -322 c-17 -229 -118 -348 -362 -425 -115 -36 -220 -49 -292 -36 -72 13 -108 31 -155 77 -42 40 -48 73 -23 122 22 42 31 37 27 -15 -3 -35 2 -55 22 -90 15 -25 31 -45 36 -45 5 0 6 22 3 49 -9 81 4 94 32 33 28 -61 45 -67 43 -15 -1 29 5 42 32 66 31 28 36 29 89 22 31 -5 101 -9 156 -9 90 -1 106 2 157 27 31 15 73 46 93 68 34 38 99 158 123 229 19 53 25 33 19 -58z"/>
 <path d="M1416 419 c-15 -22 -48 -53 -73 -70 -50 -31 -51 -39 -4 -14 42 21 130 125 107 125 -2 0 -15 -18 -30 -41z"/>
 <path d="M475 593 c14 -83 18 -99 35 -134 18 -34 50 -69 50 -54 0 4 -8 19 -19 33 -21 30 -51 123 -51 158 0 13 -5 26 -11 29 -7 5 -8 -5 -4 -32z"/>
 </g>
<g id="layer117" fill="#a72d1b" stroke="none">
 <path d="M120 1983 c0 -32 24 -123 33 -123 4 0 5 -4 2 -10 -3 -5 -1 -10 4 -10 6 0 10 -3 9 -7 -5 -16 29 -49 72 -70 25 -12 80 -29 123 -38 69 -15 131 -34 287 -90 25 -9 51 -23 57 -32 7 -9 15 -14 18 -11 4 3 12 46 20 94 7 49 24 125 38 169 14 44 28 95 32 113 l7 32 -351 0 c-325 0 -351 -1 -351 -17z m48 -35 c5 -24 13 -52 16 -63 5 -12 2 -10 -7 5 -15 25 -32 100 -23 100 2 0 9 -19 14 -42z m122 -164 c22 -8 27 -13 15 -13 -11 0 -36 9 -55 20 -35 20 -28 19 40 -7z"/>
 <path d="M930 1976 c0 -13 7 -42 14 -64 15 -40 14 -42 -11 -62 -24 -19 -25 -21 -9 -45 9 -13 28 -32 42 -42 24 -15 28 -15 52 -1 15 9 34 28 42 41 13 24 13 27 -13 47 -17 14 -26 28 -22 39 2 9 9 37 14 64 l8 47 -58 0 c-55 0 -59 -1 -59 -24z"/>
 <path d="M1170 1985 c0 -7 7 -40 16 -72 9 -32 19 -72 24 -89 4 -18 10 -36 14 -42 3 -6 11 -48 17 -93 12 -97 16 -105 37 -85 10 8 35 21 57 29 147 55 199 71 290 92 131 29 175 57 209 129 16 34 26 72 26 100 l0 46 -345 0 c-295 0 -345 -2 -345 -15z m655 -52 c-4 -21 -13 -49 -22 -63 -9 -17 -12 -18 -8 -5 4 11 11 39 18 63 14 52 22 55 12 5z m-85 -143 c-19 -11 -44 -19 -55 -19 -11 0 0 8 25 19 59 24 74 24 30 0z"/>
 <path d="M654 1420 c-29 -11 -54 -48 -54 -80 0 -14 -11 -47 -23 -75 -23 -48 -25 -75 -7 -75 5 0 20 36 35 80 14 43 38 96 51 116 28 41 28 45 -2 34z"/>
 <path d="M1310 1425 c0 -4 9 -19 20 -35 11 -15 34 -66 51 -114 19 -54 35 -84 41 -78 5 5 1 30 -12 63 -12 30 -25 72 -29 94 -5 30 -14 43 -39 58 -17 10 -32 16 -32 12z"/>
 <path d="M922 1341 c-21 -13 10 -21 78 -21 32 0 66 3 75 6 31 12 -6 24 -75 24 -36 0 -71 -4 -78 -9z"/>
 <path d="M730 963 c1 -4 12 -21 25 -37 l24 -30 -26 -30 c-17 -21 -21 -32 -13 -34 7 -3 21 6 30 18 19 25 50 22 50 -5 0 -8 7 -15 15 -15 20 0 19 5 -7 40 l-22 30 23 24 c13 14 21 30 19 37 -3 8 -14 2 -32 -17 -24 -26 -28 -27 -37 -12 -11 19 -49 43 -49 31z"/>
 <path d="M1155 961 c-4 -7 2 -22 15 -36 l22 -24 -21 -29 c-11 -17 -21 -33 -21 -36 0 -14 23 -4 41 17 l19 22 19 -22 c19 -23 41 -31 41 -15 0 5 -11 19 -25 32 l-25 23 26 34 c33 43 26 52 -14 18 l-30 -25 -20 26 c-13 19 -21 23 -27 15z"/>
 <path d="M518 934 c-5 -4 -8 -17 -8 -29 0 -11 -6 -27 -12 -34 -7 -8 -8 -11 -2 -8 7 4 11 -28 12 -97 4 -230 43 -336 136 -367 l47 -16 -31 -27 c-17 -14 -42 -26 -54 -26 -30 0 -91 62 -121 124 -45 92 -50 151 -28 331 5 43 4 48 -9 37 -9 -7 -20 -49 -28 -104 -16 -111 -4 -205 37 -281 29 -53 112 -134 147 -143 11 -3 36 -25 54 -50 18 -24 57 -60 87 -80 l53 -36 169 4 c159 4 172 5 238 33 113 48 178 90 229 146 90 100 111 173 103 360 -4 107 -8 130 -29 170 -14 26 -28 57 -32 70 -6 18 -11 0 -20 -66 -23 -162 -77 -287 -157 -359 -73 -66 -151 -80 -274 -51 -33 8 -109 15 -170 15 -132 0 -174 10 -216 53 -63 63 -82 128 -106 365 -5 41 -11 70 -15 66z m999 -322 c-17 -229 -118 -348 -362 -425 -115 -36 -220 -49 -292 -36 -72 13 -108 31 -155 77 -42 40 -48 73 -23 122 22 42 31 37 27 -15 -3 -35 2 -55 22 -90 15 -25 31 -45 36 -45 5 0 6 22 3 49 -9 81 4 94 32 33 28 -61 45 -67 43 -15 -1 29 5 42 32 66 31 28 36 29 89 22 31 -5 101 -9 156 -9 90 -1 106 2 157 27 31 15 73 46 93 68 34 38 99 158 123 229 19 53 25 33 19 -58z"/>
 <path d="M1416 419 c-15 -22 -48 -53 -73 -70 -50 -31 -51 -39 -4 -14 42 21 130 125 107 125 -2 0 -15 -18 -30 -41z"/>
 <path d="M475 593 c14 -83 18 -99 35 -134 18 -34 50 -69 50 -54 0 4 -8 19 -19 33 -21 30 -51 123 -51 158 0 13 -5 26 -11 29 -7 5 -8 -5 -4 -32z"/>
 </g>
<g id="layer118" fill="#64311f" stroke="none">
 <path d="M120 1983 c0 -32 24 -123 33 -123 4 0 5 -4 2 -10 -3 -5 -1 -10 4 -10 6 0 10 -3 9 -7 -5 -16 29 -49 72 -70 25 -12 80 -29 123 -38 69 -15 131 -34 287 -90 25 -9 51 -23 57 -32 7 -9 15 -14 18 -11 4 3 12 46 20 94 7 49 24 125 38 169 14 44 28 95 32 113 l7 32 -351 0 c-325 0 -351 -1 -351 -17z m48 -35 c5 -24 13 -52 16 -63 5 -12 2 -10 -7 5 -15 25 -32 100 -23 100 2 0 9 -19 14 -42z m122 -164 c22 -8 27 -13 15 -13 -11 0 -36 9 -55 20 -35 20 -28 19 40 -7z"/>
 <path d="M930 1976 c0 -13 7 -42 14 -64 15 -40 14 -42 -11 -62 -24 -19 -25 -21 -9 -45 9 -13 28 -32 42 -42 24 -15 28 -15 52 -1 15 9 34 28 42 41 13 24 13 27 -13 47 -17 14 -26 28 -22 39 2 9 9 37 14 64 l8 47 -58 0 c-55 0 -59 -1 -59 -24z"/>
 <path d="M1170 1985 c0 -7 7 -40 16 -72 9 -32 19 -72 24 -89 4 -18 10 -36 14 -42 3 -6 11 -48 17 -93 12 -97 16 -105 37 -85 10 8 35 21 57 29 147 55 199 71 290 92 131 29 175 57 209 129 16 34 26 72 26 100 l0 46 -345 0 c-295 0 -345 -2 -345 -15z m655 -52 c-4 -21 -13 -49 -22 -63 -9 -17 -12 -18 -8 -5 4 11 11 39 18 63 14 52 22 55 12 5z m-85 -143 c-19 -11 -44 -19 -55 -19 -11 0 0 8 25 19 59 24 74 24 30 0z"/>
 <path d="M654 1420 c-29 -11 -54 -49 -54 -80 0 -14 -11 -48 -24 -77 -19 -41 -22 -54 -12 -62 10 -8 17 3 30 46 21 67 49 130 72 161 18 24 18 24 -12 12z"/>
 <path d="M1310 1426 c0 -4 9 -19 20 -34 11 -15 36 -68 54 -116 18 -49 36 -84 40 -78 3 6 -3 34 -15 64 -11 29 -24 71 -28 93 -5 30 -14 43 -39 58 -17 10 -32 16 -32 13z"/>
 <path d="M922 1341 c-21 -13 10 -21 78 -21 32 0 66 3 75 6 31 12 -6 24 -75 24 -36 0 -71 -4 -78 -9z"/>
 <path d="M730 963 c1 -4 12 -21 25 -37 l24 -30 -26 -30 c-17 -21 -21 -32 -13 -34 7 -3 21 6 30 18 19 25 50 22 50 -5 0 -8 7 -15 15 -15 20 0 19 5 -7 40 l-22 30 23 24 c13 14 21 30 19 37 -3 8 -14 2 -32 -17 -24 -26 -28 -27 -37 -12 -11 19 -49 43 -49 31z"/>
 <path d="M1155 961 c-4 -7 2 -22 15 -36 l22 -24 -21 -29 c-11 -17 -21 -33 -21 -36 0 -14 23 -4 41 17 l19 22 19 -22 c19 -23 41 -31 41 -15 0 5 -11 19 -25 32 l-25 23 26 34 c33 43 26 52 -14 18 l-30 -25 -20 26 c-13 19 -21 23 -27 15z"/>
 <path d="M519 925 c-11 -18 -10 -211 1 -302 18 -149 68 -223 150 -223 16 0 30 -3 30 -7 0 -10 -61 -62 -81 -68 -38 -12 -100 52 -147 153 -24 51 -27 68 -27 167 0 61 4 125 8 143 5 25 4 33 -5 30 -18 -6 -40 -143 -34 -218 7 -101 40 -175 106 -242 32 -31 68 -60 81 -63 13 -4 39 -26 57 -51 18 -24 57 -60 87 -80 l53 -36 169 4 c158 4 172 6 238 34 112 46 178 88 229 145 90 100 111 174 104 362 -4 108 -8 129 -26 152 -12 15 -24 42 -28 61 -11 58 -21 47 -28 -32 -17 -191 -109 -365 -220 -415 -47 -21 -142 -25 -196 -8 -19 6 -103 14 -186 18 -141 6 -154 8 -191 33 -76 50 -106 129 -127 335 -6 65 -14 114 -17 108z m992 -383 c-29 -186 -145 -296 -387 -367 -198 -57 -316 -43 -413 50 l-55 53 12 39 c6 21 25 52 42 68 l31 30 -15 -30 c-9 -16 -16 -37 -16 -45 0 -29 20 -85 40 -110 l19 -25 -2 50 c-2 45 32 145 48 145 3 0 1 -9 -5 -19 -15 -28 -12 -77 5 -111 20 -38 33 -38 27 0 -3 24 2 36 29 61 36 34 32 34 219 13 60 -7 146 9 200 36 71 36 141 124 180 228 10 26 24 61 31 77 l14 30 3 -54 c2 -29 -1 -83 -7 -119z"/>
 </g>
<g id="layer119" fill="#951909" stroke="none">
 <path d="M120 1983 c0 -32 24 -123 33 -123 4 0 5 -4 2 -10 -3 -5 -1 -10 4 -10 6 0 10 -3 9 -7 -5 -16 29 -49 72 -70 25 -12 80 -29 123 -38 69 -15 131 -34 287 -90 25 -9 51 -23 57 -32 7 -9 15 -14 18 -12 2 3 10 40 16 83 5 43 23 119 38 169 38 124 45 157 32 157 -6 0 -11 -6 -11 -13 0 -7 -16 -62 -35 -122 -24 -75 -35 -129 -35 -171 0 -68 -7 -83 -26 -55 -8 10 -31 28 -51 40 l-38 21 30 -25 c33 -27 20 -33 -23 -11 -41 21 -210 74 -286 90 -36 8 -81 23 -99 33 -37 22 -70 83 -87 161 -11 49 -30 72 -30 35z"/>
 <path d="M551 1938 c-23 -69 -25 -82 -12 -73 5 3 17 29 27 58 9 28 19 58 22 65 2 6 0 12 -6 12 -6 0 -20 -28 -31 -62z"/>
 <path d="M930 1976 c0 -13 7 -43 15 -67 12 -34 13 -44 3 -51 -42 -25 -42 -25 -20 -55 11 -16 32 -35 45 -42 23 -12 29 -11 56 8 43 31 48 56 17 83 -25 23 -25 24 -12 86 l14 62 -59 0 c-55 0 -59 -1 -59 -24z"/>
 <path d="M1170 1987 c0 -7 16 -66 35 -131 19 -66 35 -130 35 -142 0 -13 5 -46 11 -74 10 -47 12 -50 27 -36 10 8 35 21 57 29 147 55 199 71 290 92 58 13 119 34 143 48 51 33 92 114 92 184 -1 54 -13 43 -25 -21 -18 -105 -75 -165 -171 -179 -46 -8 -241 -67 -296 -91 -52 -22 -58 -20 -23 11 l30 26 -30 -18 c-16 -10 -42 -29 -57 -43 l-28 -26 0 55 c0 50 -9 92 -56 262 -17 60 -34 88 -34 54z"/>
 <path d="M1406 1973 c10 -40 44 -117 49 -111 7 7 -38 138 -47 138 -5 0 -5 -12 -2 -27z"/>
 <path d="M1373 1832 c-9 -6 -1 -19 27 -47 22 -22 40 -34 40 -28 0 6 -14 23 -32 38 -25 21 -29 28 -17 36 8 5 10 9 4 9 -5 0 -16 -4 -22 -8z"/>
 <path d="M582 1799 c-18 -16 -32 -34 -30 -40 2 -5 21 8 43 31 45 46 36 54 -13 9z"/>
 <path d="M654 1420 c-29 -11 -54 -49 -54 -80 0 -14 -11 -48 -24 -77 -19 -41 -22 -54 -12 -62 10 -8 17 3 30 46 21 67 49 130 72 161 18 24 18 24 -12 12z"/>
 <path d="M1310 1426 c0 -4 9 -19 20 -34 11 -15 36 -68 54 -116 18 -49 36 -84 40 -78 3 6 -3 34 -15 64 -11 29 -24 71 -28 93 -5 30 -14 43 -39 58 -17 10 -32 16 -32 13z"/>
 <path d="M925 1341 c-3 -5 -2 -12 2 -14 15 -8 138 -7 151 2 24 15 -12 21 -53 8 -28 -8 -41 -8 -56 1 -23 14 -36 15 -44 3z"/>
 <path d="M754 931 l28 -29 -23 -31 c-29 -39 -16 -55 15 -17 l22 29 21 -29 c12 -16 25 -26 29 -21 4 4 -3 18 -16 32 -23 25 -22 33 6 73 11 15 13 22 4 22 -6 0 -21 -10 -31 -22 l-20 -23 -15 23 c-9 12 -23 22 -32 22 -11 0 -8 -8 12 -29z"/>
 <path d="M1156 948 c4 -7 14 -21 22 -31 14 -16 13 -20 -6 -47 -26 -34 -27 -40 -8 -40 8 0 18 9 21 20 8 26 30 25 49 -1 8 -12 20 -19 26 -17 8 2 3 15 -14 35 l-26 31 26 31 c20 24 22 31 10 31 -9 0 -21 -9 -28 -20 -7 -11 -17 -20 -23 -20 -6 0 -16 9 -23 20 -13 21 -38 28 -26 8z"/>
 <path d="M519 925 c-11 -18 -10 -211 1 -302 18 -149 68 -223 150 -223 16 0 30 -3 30 -7 0 -10 -61 -62 -81 -68 -38 -12 -100 52 -147 153 -24 51 -27 68 -27 167 0 61 4 125 8 143 5 25 4 33 -5 30 -18 -6 -40 -143 -34 -218 7 -101 40 -175 106 -242 32 -31 68 -60 81 -63 13 -4 39 -26 57 -51 18 -24 57 -60 87 -80 l53 -36 169 4 c158 4 172 6 238 34 112 46 178 88 229 145 90 100 111 174 104 362 -4 108 -8 129 -26 152 -12 15 -24 42 -28 61 -11 58 -21 47 -28 -32 -17 -191 -109 -365 -220 -415 -47 -21 -142 -25 -196 -8 -19 6 -103 14 -186 18 -141 6 -154 8 -191 33 -76 50 -106 129 -127 335 -6 65 -14 114 -17 108z m992 -383 c-29 -186 -145 -296 -387 -367 -198 -57 -316 -43 -413 50 l-55 53 12 39 c6 21 25 52 42 68 l31 30 -15 -30 c-9 -16 -16 -37 -16 -45 0 -29 20 -85 40 -110 l19 -25 -2 50 c-2 45 32 145 48 145 3 0 1 -9 -5 -19 -15 -28 -12 -77 5 -111 20 -38 33 -38 27 0 -3 24 2 36 29 61 36 34 32 34 219 13 60 -7 146 9 200 36 71 36 141 124 180 228 10 26 24 61 31 77 l14 30 3 -54 c2 -29 -1 -83 -7 -119z"/>
 </g>
<g id="layer120" fill="#581d13" stroke="none">
 <path d="M120 1983 c0 -32 24 -123 33 -123 4 0 5 -4 2 -10 -3 -5 -1 -10 4 -10 6 0 10 -3 9 -7 -5 -16 29 -49 72 -70 25 -12 80 -29 123 -38 69 -15 131 -34 287 -90 25 -9 51 -23 57 -32 7 -9 15 -14 18 -12 2 3 10 40 16 83 5 43 23 119 38 169 38 124 45 157 32 157 -6 0 -11 -6 -11 -13 0 -7 -16 -62 -35 -122 -24 -75 -35 -129 -35 -171 0 -68 -7 -83 -26 -55 -8 10 -31 28 -51 40 l-38 21 30 -25 c33 -27 20 -33 -23 -11 -41 21 -210 74 -286 90 -36 8 -81 23 -99 33 -37 22 -70 83 -87 161 -11 49 -30 72 -30 35z"/>
 <path d="M551 1938 c-23 -69 -25 -82 -12 -73 5 3 17 29 27 58 9 28 19 58 22 65 2 6 0 12 -6 12 -6 0 -20 -28 -31 -62z"/>
 <path d="M930 1976 c0 -13 7 -43 15 -67 12 -34 13 -44 3 -51 -42 -25 -42 -25 -20 -55 11 -16 32 -35 45 -42 23 -12 29 -11 56 8 43 31 48 56 17 83 -25 23 -25 24 -12 86 l14 62 -59 0 c-55 0 -59 -1 -59 -24z"/>
 <path d="M1170 1987 c0 -7 16 -66 35 -131 19 -66 35 -130 35 -142 0 -13 5 -46 11 -74 10 -47 12 -50 27 -36 10 8 35 21 57 29 147 55 199 71 290 92 58 13 119 34 143 48 51 33 92 114 92 184 -1 54 -13 43 -25 -21 -18 -105 -75 -165 -171 -179 -46 -8 -241 -67 -296 -91 -52 -22 -58 -20 -23 11 l30 26 -30 -18 c-16 -10 -42 -29 -57 -43 l-28 -26 0 55 c0 50 -9 92 -56 262 -17 60 -34 88 -34 54z"/>
 <path d="M1406 1973 c10 -40 44 -117 49 -111 7 7 -38 138 -47 138 -5 0 -5 -12 -2 -27z"/>
 <path d="M1373 1832 c-9 -6 -1 -19 27 -47 22 -22 40 -34 40 -28 0 6 -14 23 -32 38 -25 21 -29 28 -17 36 8 5 10 9 4 9 -5 0 -16 -4 -22 -8z"/>
 <path d="M582 1799 c-18 -16 -32 -34 -30 -40 2 -5 21 8 43 31 45 46 36 54 -13 9z"/>
 <path d="M754 931 l28 -29 -23 -31 c-29 -39 -16 -55 15 -17 l22 29 21 -29 c12 -16 25 -26 29 -21 4 4 -3 18 -16 32 -23 25 -22 33 6 73 11 15 13 22 4 22 -6 0 -21 -10 -31 -22 l-20 -23 -15 23 c-9 12 -23 22 -32 22 -11 0 -8 -8 12 -29z"/>
 <path d="M1156 948 c4 -7 14 -21 22 -31 14 -16 13 -20 -6 -47 -26 -34 -27 -40 -8 -40 8 0 18 9 21 20 8 26 30 25 49 -1 8 -12 20 -19 26 -17 8 2 3 15 -14 35 l-26 31 26 31 c20 24 22 31 10 31 -9 0 -21 -9 -28 -20 -7 -11 -17 -20 -23 -20 -6 0 -16 9 -23 20 -13 21 -38 28 -26 8z"/>
 </g>
<g id="layer121" fill="#33140e" stroke="none">
 <path d="M120 1975 c0 -14 7 -42 15 -61 8 -20 12 -40 9 -45 -3 -5 0 -9 6 -9 6 0 8 -4 5 -10 -3 -5 -1 -10 4 -10 6 0 10 -3 9 -7 -10 -30 82 -87 157 -98 45 -7 204 -56 325 -100 25 -9 50 -23 57 -31 8 -11 13 -12 18 -4 7 11 -33 47 -47 43 -4 -2 -28 7 -55 19 -58 26 -248 85 -300 93 -82 14 -111 34 -143 99 -16 34 -32 80 -35 104 -7 46 -25 58 -25 17z"/>
 <path d="M575 1989 c-23 -65 -35 -103 -32 -106 2 -2 14 22 25 54 12 31 19 59 17 61 -3 3 -7 -1 -10 -9z"/>
 <path d="M806 1989 c-40 -123 -76 -272 -75 -313 l2 -51 7 55 c4 30 24 113 44 183 21 71 35 131 32 134 -3 3 -8 0 -10 -8z"/>
 <path d="M930 1976 c0 -13 7 -43 15 -67 12 -34 13 -44 3 -51 -42 -25 -42 -25 -20 -55 11 -16 32 -35 45 -42 23 -12 29 -11 56 8 43 31 48 56 17 83 -25 23 -25 24 -12 86 l14 62 -59 0 c-55 0 -59 -1 -59 -24z"/>
 <path d="M1170 1988 c0 -8 14 -61 31 -118 17 -57 37 -138 45 -179 l13 -76 -5 70 c-3 38 -21 123 -40 189 -34 118 -44 144 -44 114z"/>
 <path d="M1405 1980 c13 -42 44 -116 44 -104 1 17 -31 108 -41 119 -7 7 -8 1 -3 -15z"/>
 <path d="M1837 1932 c-21 -80 -51 -131 -88 -149 -14 -7 -78 -26 -142 -42 -64 -17 -153 -45 -197 -62 -45 -17 -88 -32 -95 -33 -18 -3 -55 -36 -55 -49 0 -6 8 -3 18 6 9 8 35 22 57 30 147 55 199 71 290 92 131 29 175 56 210 130 19 41 25 68 23 102 l-3 47 -18 -72z"/>
 <path d="M1370 1821 c0 -11 59 -65 65 -60 3 3 -11 19 -30 36 -19 17 -35 28 -35 24z"/>
 <path d="M573 1785 c-15 -13 -23 -25 -17 -25 6 0 21 11 34 25 30 32 19 32 -17 0z"/>
 <path d="M754 931 l28 -29 -23 -31 c-29 -39 -16 -55 15 -17 l22 29 21 -29 c12 -16 25 -26 29 -21 4 4 -3 18 -16 32 -23 25 -22 33 6 73 11 15 13 22 4 22 -6 0 -21 -10 -31 -22 l-20 -23 -15 23 c-9 12 -23 22 -32 22 -11 0 -8 -8 12 -29z"/>
 <path d="M1156 948 c4 -7 14 -21 22 -31 14 -16 13 -20 -6 -47 -26 -34 -27 -40 -8 -40 8 0 18 9 21 20 8 26 30 25 49 -1 8 -12 20 -19 26 -17 8 2 3 15 -14 35 l-26 31 26 31 c20 24 22 31 10 31 -9 0 -21 -9 -28 -20 -7 -11 -17 -20 -23 -20 -6 0 -16 9 -23 20 -13 21 -38 28 -26 8z"/>
 </g>
<g id="layer122" fill="#0a0908" stroke="none">
 <path d="M930 1987 c0 -7 7 -37 16 -67 13 -44 13 -55 2 -61 -45 -28 -45 -26 -3 -69 21 -22 44 -40 50 -40 6 0 27 16 46 36 l34 35 -28 25 c-28 24 -28 26 -18 75 17 80 18 79 -44 79 -39 0 -55 -4 -55 -13z"/>
 <path d="M740 953 c0 -4 10 -17 21 -29 l21 -23 -22 -30 c-12 -17 -17 -31 -11 -31 5 0 17 10 26 23 l16 22 20 -24 c11 -13 22 -21 26 -17 3 3 -1 14 -10 24 -22 24 -21 34 4 66 25 32 5 35 -22 4 l-19 -23 -19 23 c-19 22 -31 28 -31 15z"/>
 <path d="M1169 934 c25 -32 26 -42 4 -66 -9 -10 -13 -21 -10 -24 4 -4 15 4 26 17 l20 24 16 -22 c9 -13 21 -23 26 -23 5 0 0 13 -13 30 l-22 30 29 30 c19 20 24 30 14 30 -8 0 -20 -9 -27 -20 -7 -11 -18 -20 -25 -20 -7 0 -18 9 -25 20 -7 11 -17 20 -23 20 -6 0 -1 -12 10 -26z"/>
 </g>

</svg>