<!DOCTYPE svg PUBLIC "-//W3C//DTD SVG 20010904//EN" "http://www.w3.org/TR/2001/REC-SVG-20010904/DTD/svg10.dtd">
<svg version="1.0" xmlns="http://www.w3.org/2000/svg" width="200px" height="200px" viewBox="0 0 2000 2000" preserveAspectRatio="xMidYMid meet">
<g id="layer101" fill="#1c0f0b" stroke="none">
 <path d="M135 1953 c3 -27 18 -74 33 -107 32 -72 72 -100 176 -121 42 -9 135 -36 208 -60 73 -25 134 -45 135 -45 12 0 56 -55 69 -85 l16 -38 -45 -43 c-24 -23 -58 -49 -74 -58 -23 -11 -32 -24 -36 -51 -3 -20 -16 -62 -28 -93 -17 -43 -30 -61 -53 -72 -25 -12 -35 -27 -52 -80 -12 -36 -34 -85 -49 -108 -18 -28 -30 -61 -33 -94 -4 -47 -3 -53 23 -74 26 -21 27 -23 16 -73 -15 -73 -14 -199 4 -256 21 -71 80 -151 134 -182 25 -15 70 -53 99 -84 32 -35 75 -69 110 -86 51 -25 67 -28 157 -28 79 1 119 6 194 28 224 67 342 165 387 322 13 47 16 87 12 200 l-5 142 28 10 c51 20 49 108 -5 188 -14 20 -30 53 -36 73 -23 74 -32 90 -59 101 -28 12 -66 93 -78 166 -4 27 -13 40 -37 52 -17 9 -40 25 -51 37 -11 12 -32 31 -48 43 l-27 21 22 39 c12 21 32 48 43 59 23 25 255 105 371 129 104 21 144 49 176 121 15 33 30 80 33 107 l7 47 -872 0 -872 0 7 -47z"/>
 </g>
<g id="layer102" fill="#381104" stroke="none">
 <path d="M135 1953 c3 -27 18 -74 33 -107 32 -72 72 -100 176 -121 42 -9 135 -36 208 -60 73 -25 134 -45 135 -45 12 0 56 -55 69 -85 l16 -38 -45 -43 c-24 -23 -58 -49 -74 -58 -23 -11 -32 -24 -36 -51 -3 -20 -16 -62 -28 -93 -17 -43 -30 -61 -53 -72 -25 -12 -35 -27 -52 -80 -12 -36 -34 -85 -49 -108 -18 -28 -30 -61 -33 -94 -4 -47 -3 -53 23 -74 26 -21 27 -23 16 -73 -15 -73 -14 -199 4 -256 21 -71 80 -151 134 -182 25 -15 70 -53 99 -84 32 -35 75 -69 110 -86 51 -25 67 -28 157 -28 79 1 119 6 194 28 224 67 342 165 387 322 13 47 16 87 12 200 l-5 142 28 10 c51 20 49 108 -5 188 -14 20 -30 53 -36 73 -23 74 -32 90 -59 101 -28 12 -66 93 -78 166 -4 27 -13 40 -37 52 -17 9 -40 25 -51 37 -11 12 -32 31 -48 43 l-27 21 22 39 c12 21 32 48 43 59 23 25 255 105 371 129 104 21 144 49 176 121 15 33 30 80 33 107 l7 47 -408 -2 -407 -3 -14 -68 -14 -67 28 -24 28 -25 -34 -35 c-19 -20 -42 -36 -51 -36 -9 0 -33 17 -54 39 l-37 38 25 19 26 19 -17 72 -18 73 -399 0 -398 0 7 -47z m757 -579 c-18 -12 -20 -19 -12 -35 6 -10 18 -19 26 -19 8 0 12 -5 9 -10 -4 -6 13 -19 37 -30 24 -11 36 -20 28 -20 -26 0 -94 44 -107 70 -14 28 -1 60 25 60 13 0 12 -3 -6 -16z m113 -4 c-3 -5 -1 -10 6 -10 7 0 10 -3 7 -6 -4 -3 -19 1 -35 10 l-28 15 28 1 c16 0 26 -4 22 -10z m120 -49 c-3 -16 -18 -37 -33 -47 -26 -17 -26 -17 -12 0 13 16 12 20 -5 32 -19 14 -19 14 4 12 13 -2 26 3 28 10 3 8 -9 12 -39 14 l-43 1 50 6 c28 4 52 5 53 4 2 -1 1 -15 -3 -32z m-102 2 c-18 -2 -48 -2 -65 0 -18 2 -4 4 32 4 36 0 50 -2 33 -4z m-153 -283 c17 -12 35 -31 42 -43 8 -15 2 -12 -21 10 -34 34 -84 53 -141 53 -49 0 -82 -20 -102 -60 -15 -28 -18 -31 -18 -13 0 32 40 74 80 82 49 10 125 -4 160 -29z m395 20 c14 -6 2 -9 -42 -9 -51 -1 -67 -5 -92 -27 -17 -14 -31 -33 -31 -42 0 -8 -3 -12 -7 -9 -13 14 23 61 62 78 43 20 78 23 110 9z m115 -142 c0 -49 -21 -90 -57 -113 -28 -18 -28 -18 4 18 37 43 50 93 34 139 -10 30 -9 31 4 14 8 -11 15 -37 15 -58z m-702 -96 c29 -40 85 -66 128 -58 41 8 92 50 110 91 7 16 13 23 14 14 0 -29 -45 -84 -88 -105 -39 -20 -45 -21 -88 -8 -26 8 -54 20 -62 26 -20 17 -62 108 -61 133 0 11 6 1 13 -22 8 -22 23 -55 34 -71z m465 -9 c17 -18 26 -33 21 -33 -22 0 -75 74 -73 102 0 7 5 2 10 -12 6 -14 24 -40 42 -57z"/>
 </g>
<g id="layer103" fill="#4c1d11" stroke="none">
 <path d="M150 1971 c0 -16 -2 -35 -3 -43 -2 -7 -2 -9 1 -4 3 5 13 -13 23 -40 22 -57 22 -57 9 -49 -19 12 -10 -5 20 -35 17 -17 30 -27 30 -23 0 4 4 2 9 -6 5 -8 21 -15 35 -17 15 -1 52 -8 83 -14 41 -9 52 -15 42 -22 -10 -7 -7 -8 11 -4 32 7 72 -3 64 -16 -3 -5 6 -6 23 -3 22 5 25 4 13 -5 -12 -9 -11 -10 6 -6 12 4 51 -6 94 -24 83 -34 84 -34 74 -17 -3 6 7 -1 24 -18 16 -16 28 -31 27 -33 -2 -2 6 -24 17 -49 l20 -45 -45 -43 c-24 -24 -58 -50 -74 -59 -23 -11 -32 -24 -36 -51 -3 -20 -16 -62 -28 -93 -17 -43 -30 -61 -53 -72 -25 -12 -35 -27 -52 -80 -12 -36 -34 -85 -49 -108 -18 -28 -30 -61 -33 -94 -4 -47 -3 -53 23 -74 26 -21 27 -23 16 -73 -15 -73 -14 -199 4 -256 21 -71 80 -151 134 -182 25 -15 70 -53 99 -84 32 -35 75 -69 110 -86 51 -25 67 -28 157 -28 79 1 119 6 194 28 224 67 342 165 387 322 13 47 16 87 12 200 l-5 142 28 10 c51 20 49 108 -5 188 -14 20 -30 53 -36 73 -23 74 -32 90 -59 101 -28 12 -66 93 -78 166 -4 27 -13 40 -37 52 -17 9 -40 25 -51 37 -11 12 -32 31 -48 42 l-27 22 24 43 c14 24 23 45 22 48 -2 3 10 20 26 36 17 17 27 24 24 18 -9 -17 -9 -17 63 12 34 14 67 22 73 19 6 -4 8 -3 5 3 -9 14 35 25 59 16 11 -4 15 -3 11 4 -8 12 3 16 122 43 47 10 88 17 93 14 4 -3 11 2 14 10 3 9 10 13 15 10 5 -3 9 0 9 6 0 6 5 8 12 4 6 -4 8 -3 5 3 -4 6 4 35 18 65 14 29 25 62 25 73 0 17 2 18 11 5 9 -12 10 -12 5 3 -3 10 -6 30 -6 43 l0 24 -221 0 c-121 0 -218 -3 -216 -7 3 -5 12 -33 21 -63 20 -68 4 -54 -19 18 l-17 52 -109 0 c-60 0 -109 -2 -109 -4 0 -2 16 -60 36 -128 20 -67 38 -152 40 -188 l3 -65 -9 55 c-4 30 -25 117 -47 193 l-38 138 -54 -3 -54 -3 -14 -68 -14 -67 28 -24 28 -25 -34 -35 c-19 -20 -42 -36 -51 -36 -9 0 -33 17 -54 39 l-37 38 25 19 26 19 -17 72 -18 73 -47 0 c-35 0 -48 -4 -48 -14 0 -8 -16 -68 -36 -133 -20 -65 -40 -145 -44 -178 l-9 -60 4 70 c2 40 19 122 40 189 19 66 35 121 35 123 0 1 -49 3 -109 3 l-109 0 -17 -52 c-23 -72 -39 -86 -19 -18 9 30 18 58 21 63 2 4 -95 7 -216 7 l-221 0 0 -29z m1290 -228 c0 -4 -16 8 -35 27 -19 19 -35 38 -35 42 0 5 16 -7 35 -26 19 -20 35 -39 35 -43z m-820 54 c0 -2 -14 -16 -31 -33 -26 -24 -30 -25 -20 -7 11 22 51 53 51 40z m300 -416 c-29 -5 -35 -10 -35 -30 0 -24 1 -25 95 -25 52 -1 101 -3 109 -6 7 -3 15 0 18 6 2 7 -16 13 -50 16 -29 2 -64 12 -77 21 l-24 17 27 0 c16 0 26 -4 23 -9 -7 -11 28 -21 76 -21 26 0 38 5 41 18 3 11 5 9 6 -8 1 -42 -10 -68 -38 -86 -25 -17 -25 -17 -11 0 13 16 12 20 -5 32 -22 16 -150 19 -160 4 -4 -6 13 -19 37 -30 24 -11 36 -20 28 -20 -26 0 -94 44 -107 70 -18 37 -1 60 45 59 l37 -2 -35 -6z m-50 -341 c17 -12 35 -31 42 -43 8 -15 2 -12 -21 10 -34 34 -84 53 -141 53 -49 0 -82 -20 -102 -60 -15 -28 -18 -31 -18 -13 0 32 40 74 80 82 49 10 125 -4 160 -29z m395 20 c14 -6 2 -9 -42 -9 -51 -1 -67 -5 -92 -27 -17 -14 -31 -33 -31 -42 0 -8 -3 -12 -7 -9 -13 14 23 61 62 78 43 20 78 23 110 9z m115 -142 c0 -49 -21 -90 -57 -113 -28 -18 -28 -18 4 18 37 43 50 93 34 139 -10 30 -9 31 4 14 8 -11 15 -37 15 -58z m-702 -96 c29 -40 85 -66 128 -58 41 8 92 50 110 91 7 16 13 23 14 14 0 -29 -45 -84 -88 -105 -39 -20 -45 -21 -88 -8 -26 8 -54 20 -62 26 -20 17 -62 108 -61 133 0 11 6 1 13 -22 8 -22 23 -55 34 -71z m465 -9 c17 -18 26 -33 21 -33 -22 0 -75 74 -73 102 0 7 5 2 10 -12 6 -14 24 -40 42 -57z"/>
 </g>
<g id="layer104" fill="#332f2b" stroke="none">
 <path d="M155 1953 c3 -27 18 -72 31 -102 29 -63 34 -62 83 29 17 30 31 51 31 47 0 -13 -31 -70 -57 -105 -14 -18 -23 -35 -22 -36 18 -15 73 -35 114 -40 40 -6 221 -62 320 -100 11 -5 -6 15 -37 44 -32 28 -58 56 -58 61 0 6 12 21 28 34 23 21 25 26 12 35 -19 12 0 13 20 0 12 -8 9 -15 -18 -43 l-34 -35 48 -38 c27 -22 63 -53 81 -70 37 -36 43 -30 43 50 0 29 15 104 35 173 19 67 35 127 35 132 0 7 -37 11 -103 11 l-102 0 -27 -75 c-25 -69 -26 -75 -10 -85 9 -5 12 -10 6 -10 -6 0 -17 7 -24 15 -11 13 0 70 26 140 5 13 -11 15 -124 15 -95 0 -132 -3 -135 -12 -4 -10 -6 -10 -6 0 -1 8 -24 12 -82 12 l-81 0 7 -47z"/>
 <path d="M826 1964 c-4 -19 -20 -78 -36 -130 -42 -135 -55 -250 -34 -299 l16 -38 -45 -43 c-24 -23 -58 -49 -74 -58 -23 -11 -32 -24 -36 -51 -3 -20 -16 -62 -28 -93 -17 -43 -30 -61 -53 -72 -25 -12 -35 -27 -52 -80 -12 -36 -34 -85 -49 -108 -18 -28 -30 -61 -33 -94 -4 -47 -3 -53 23 -74 26 -21 27 -23 16 -73 -15 -73 -14 -199 4 -256 21 -71 80 -151 134 -182 25 -15 70 -53 99 -84 32 -35 75 -69 110 -86 51 -25 67 -28 157 -28 79 1 119 6 194 28 224 67 342 165 387 322 13 47 16 87 12 200 l-5 142 28 10 c51 20 49 108 -5 188 -14 20 -30 53 -36 73 -23 74 -32 90 -59 101 -28 12 -66 93 -78 166 -4 27 -13 40 -37 52 -17 9 -40 25 -51 37 -11 12 -32 31 -48 43 l-27 21 20 35 c20 33 20 41 9 124 -6 48 -24 129 -40 180 -15 50 -31 108 -35 128 l-6 36 -56 -3 -55 -3 -14 -68 -14 -67 28 -24 28 -25 -34 -35 c-19 -20 -42 -36 -51 -36 -9 0 -33 17 -54 39 l-37 38 25 19 26 19 -17 72 -18 73 -46 0 c-46 0 -47 -1 -53 -36z m304 -608 c0 -40 -12 -65 -39 -82 -25 -17 -25 -17 -11 0 13 16 12 20 -5 32 -22 16 -150 19 -160 4 -4 -6 13 -19 37 -30 24 -11 37 -20 30 -20 -18 0 -86 36 -99 52 -18 24 -22 46 -9 63 10 14 22 16 79 10 37 -4 65 -11 62 -15 -7 -12 21 -20 66 -20 41 0 50 14 27 40 -11 12 -10 12 5 1 9 -7 17 -23 17 -35z m-260 -316 c17 -12 35 -31 42 -43 8 -15 2 -12 -21 10 -34 34 -84 53 -141 53 -49 0 -82 -20 -102 -60 -15 -28 -18 -31 -18 -13 0 32 40 74 80 82 49 10 125 -4 160 -29z m395 20 c14 -6 2 -9 -42 -9 -51 -1 -67 -5 -92 -27 -17 -14 -31 -33 -31 -42 0 -8 -3 -12 -7 -9 -13 14 23 61 62 78 43 20 78 23 110 9z m115 -142 c0 -49 -21 -90 -57 -113 -28 -18 -28 -18 4 18 37 43 50 93 34 139 -10 30 -9 31 4 14 8 -11 15 -37 15 -58z m-702 -96 c29 -40 85 -66 128 -58 41 8 92 50 110 91 7 16 13 24 14 16 1 -34 -44 -90 -88 -109 -40 -18 -49 -18 -90 -6 -24 8 -52 20 -60 26 -20 17 -62 108 -61 133 0 11 6 1 13 -22 8 -22 23 -55 34 -71z m465 -9 c17 -18 26 -33 21 -33 -22 0 -75 74 -73 102 0 7 5 2 10 -12 6 -14 24 -40 42 -57z"/>
 <path d="M884 1365 c-13 -32 1 -37 96 -39 52 -1 101 -4 109 -6 7 -3 16 1 18 8 3 8 -9 12 -42 12 -26 0 -63 9 -85 20 -46 24 -88 26 -96 5z"/>
 <path d="M1190 1987 c0 -7 16 -66 35 -131 20 -70 35 -141 35 -172 0 -80 6 -86 43 -50 18 17 54 48 81 70 l48 38 -34 35 c-27 28 -30 35 -18 43 20 13 39 12 20 0 -13 -9 -11 -14 13 -35 15 -13 27 -28 27 -34 0 -5 -26 -33 -57 -61 -32 -29 -49 -49 -38 -44 99 38 280 94 320 100 41 5 96 25 114 40 1 1 -8 18 -22 36 -26 35 -57 92 -57 105 0 4 14 -17 31 -47 49 -91 54 -92 83 -29 13 30 28 75 31 102 l7 47 -80 0 c-55 0 -82 -4 -85 -12 -4 -10 -6 -10 -6 0 -1 9 -34 12 -131 12 -71 0 -130 -2 -130 -5 0 -2 10 -34 21 -70 18 -53 19 -68 9 -80 -7 -8 -18 -15 -24 -15 -6 0 -4 5 6 10 15 9 14 16 -10 85 l-27 75 -102 0 c-77 0 -103 -3 -103 -13z"/>
 </g>
<g id="layer105" fill="#582818" stroke="none">
 <path d="M155 1953 c3 -27 18 -72 31 -102 29 -63 34 -62 83 29 17 30 31 51 31 47 0 -13 -31 -70 -57 -105 -14 -18 -23 -35 -22 -36 18 -15 73 -35 114 -40 40 -6 221 -62 320 -100 11 -5 -6 15 -37 44 -32 28 -58 56 -58 61 0 6 12 21 28 34 23 21 25 26 12 35 -19 12 0 13 20 0 12 -8 9 -15 -18 -43 l-34 -35 48 -38 c27 -22 63 -53 81 -70 37 -36 43 -30 43 50 0 29 15 104 35 173 19 67 35 127 35 132 0 7 -37 11 -103 11 l-102 0 -27 -75 c-25 -69 -26 -75 -10 -85 9 -5 12 -10 6 -10 -6 0 -17 7 -24 15 -11 13 0 70 26 140 5 13 -11 15 -124 15 -95 0 -132 -3 -135 -12 -4 -10 -6 -10 -6 0 -1 8 -24 12 -82 12 l-81 0 7 -47z"/>
 <path d="M826 1964 c-4 -19 -20 -78 -36 -130 -42 -135 -55 -250 -34 -299 l16 -38 -45 -43 c-24 -23 -58 -49 -74 -58 -23 -11 -32 -24 -36 -51 -3 -20 -16 -62 -28 -93 -17 -43 -30 -61 -53 -72 -25 -12 -35 -27 -52 -80 -12 -36 -34 -85 -49 -108 -18 -28 -30 -61 -33 -94 -4 -47 -3 -53 23 -74 26 -21 27 -23 16 -73 -15 -73 -14 -199 4 -256 21 -71 80 -151 134 -182 25 -15 70 -53 99 -84 32 -35 75 -69 110 -86 51 -25 67 -28 157 -28 79 1 119 6 194 28 224 67 342 165 387 322 13 47 16 87 12 200 l-5 142 28 10 c51 20 49 108 -5 188 -14 20 -30 53 -36 73 -23 74 -32 90 -59 101 -28 12 -66 93 -78 166 -4 27 -13 40 -37 52 -17 9 -40 25 -51 37 -11 12 -32 31 -48 43 l-27 21 20 35 c20 33 20 41 9 124 -6 48 -24 129 -40 180 -15 50 -31 108 -35 127 -6 36 -6 36 -60 36 -50 0 -54 -2 -59 -27 -4 -16 -10 -46 -15 -68 -8 -36 -6 -43 17 -67 l27 -28 -34 -35 c-19 -19 -42 -35 -51 -35 -9 0 -33 17 -53 38 l-37 37 27 22 c24 19 26 25 17 46 -6 13 -15 45 -18 71 l-7 46 -48 0 c-47 0 -48 -1 -54 -36z m307 -592 c9 -42 -32 -112 -66 -112 -6 0 -2 6 9 14 33 25 3 41 -78 41 -82 0 -97 -14 -41 -39 32 -14 33 -16 9 -11 -64 13 -115 69 -96 104 9 17 20 19 94 18 55 -1 77 -5 63 -10 -32 -12 -3 -27 51 -27 44 0 54 14 30 39 -11 10 -10 11 4 6 9 -4 19 -14 21 -23z m-283 -320 c36 -18 80 -73 80 -101 -1 -9 -7 -2 -14 15 -39 88 -197 125 -253 59 -45 -52 -24 -164 44 -226 35 -33 69 -41 115 -28 39 10 97 68 99 97 0 10 3 12 6 5 9 -25 -40 -92 -82 -113 -39 -19 -44 -19 -93 -5 -63 19 -95 57 -116 140 -24 91 1 157 67 177 31 10 106 -1 147 -20z m440 -4 c60 -31 90 -77 90 -140 0 -43 -4 -54 -34 -84 -19 -19 -39 -34 -46 -34 -6 0 2 12 19 26 70 58 59 179 -20 220 -32 16 -106 19 -143 4 -14 -5 -35 -24 -46 -42 -11 -18 -20 -26 -20 -18 0 25 30 61 64 76 45 19 86 17 136 -8z m-176 -196 c24 -46 63 -72 110 -73 34 0 37 -2 19 -9 -72 -29 -165 65 -162 164 1 28 2 26 9 -11 5 -23 16 -55 24 -71z"/>
 <path d="M884 1365 c-13 -32 1 -37 96 -39 52 -1 101 -4 109 -6 7 -3 16 1 18 8 3 8 -9 12 -42 12 -26 0 -63 9 -85 20 -46 24 -88 26 -96 5z"/>
 <path d="M1190 1987 c0 -7 16 -66 35 -131 20 -70 35 -141 35 -172 0 -80 6 -86 43 -50 18 17 54 48 81 70 l48 38 -34 35 c-27 28 -30 35 -18 43 20 13 39 12 20 0 -13 -9 -11 -14 13 -35 15 -13 27 -28 27 -34 0 -5 -26 -33 -57 -61 -32 -29 -49 -49 -38 -44 99 38 280 94 320 100 41 5 96 25 114 40 1 1 -8 18 -22 36 -26 35 -57 92 -57 105 0 4 14 -17 31 -47 49 -91 54 -92 83 -29 13 30 28 75 31 102 l7 47 -80 0 c-55 0 -82 -4 -85 -12 -4 -10 -6 -10 -6 0 -1 9 -34 12 -131 12 -71 0 -130 -2 -130 -5 0 -2 10 -34 21 -70 18 -53 19 -68 9 -80 -7 -8 -18 -15 -24 -15 -6 0 -4 5 6 10 15 9 14 16 -10 85 l-27 75 -102 0 c-77 0 -103 -3 -103 -13z"/>
 </g>
<g id="layer106" fill="#3c4521" stroke="none">
 <path d="M155 1958 c9 -53 31 -115 51 -145 16 -26 83 -63 113 -63 25 0 230 -61 301 -89 l55 -22 -40 33 c-22 18 -51 44 -64 57 l-25 24 32 27 c38 32 39 36 8 44 -14 3 -31 13 -40 21 -15 15 -9 45 29 138 7 16 -3 17 -123 17 l-130 0 -7 -32 c-10 -45 -59 -141 -81 -159 -14 -11 -13 -6 5 21 28 43 56 106 65 143 l6 27 -81 0 -81 0 7 -42z"/>
 <path d="M605 1990 c-9 -15 -45 -122 -45 -135 0 -7 19 -17 41 -24 l42 -13 -38 -38 -37 -38 53 -41 c30 -23 66 -52 80 -65 l27 -25 4 87 c4 60 15 117 37 183 17 53 31 101 31 108 0 14 -186 16 -195 1z"/>
 <path d="M826 1964 c-4 -19 -20 -77 -35 -127 -16 -51 -34 -131 -40 -178 -10 -74 -9 -91 5 -124 l16 -38 -45 -43 c-24 -23 -58 -49 -74 -58 -23 -11 -32 -24 -36 -51 -3 -20 -16 -62 -28 -93 -17 -43 -30 -61 -53 -72 -25 -12 -35 -27 -52 -80 -12 -36 -34 -85 -49 -108 -18 -28 -30 -61 -33 -94 -4 -47 -3 -53 23 -74 26 -21 27 -23 16 -73 -15 -73 -14 -199 4 -256 21 -71 80 -151 134 -182 25 -15 70 -53 99 -84 32 -35 75 -69 110 -86 51 -25 67 -28 157 -28 79 1 119 6 194 28 224 67 342 165 387 322 13 47 16 87 12 200 l-5 142 28 10 c51 20 49 108 -5 188 -14 20 -30 53 -36 73 -23 74 -32 90 -59 101 -28 12 -66 93 -78 166 -4 27 -13 40 -37 52 -17 9 -40 25 -51 37 -11 12 -32 31 -48 43 l-27 21 20 35 c20 33 20 41 9 124 -6 48 -27 138 -45 198 -19 61 -34 118 -34 128 0 14 -9 17 -55 17 -52 0 -55 -2 -60 -27 -4 -16 -10 -46 -15 -68 -8 -36 -6 -43 17 -67 l27 -28 -34 -35 c-19 -19 -42 -35 -51 -35 -9 0 -33 17 -53 38 l-37 37 27 22 c24 19 26 25 17 46 -6 13 -15 45 -18 71 l-7 46 -48 0 c-47 0 -48 -1 -54 -36z m291 -572 c12 -8 16 -24 14 -60 -1 -25 -42 -72 -62 -72 -7 0 -4 6 7 14 33 25 3 41 -78 41 -82 0 -97 -14 -41 -39 32 -14 33 -16 9 -11 -65 14 -115 69 -95 106 10 19 17 21 72 15 34 -4 76 -2 92 3 38 12 67 13 82 3z m-267 -340 c36 -18 80 -73 80 -101 -1 -9 -7 -2 -14 15 -39 88 -197 125 -253 59 -45 -52 -24 -164 44 -226 35 -33 69 -41 115 -28 39 10 97 68 99 97 0 9 3 12 5 5 11 -25 -35 -91 -78 -112 -39 -18 -48 -19 -92 -8 -62 16 -99 60 -120 141 -24 92 1 158 67 178 31 10 106 -1 147 -20z m440 -4 c60 -31 90 -77 90 -140 0 -43 -4 -54 -34 -84 -19 -19 -39 -34 -46 -34 -6 0 2 12 19 26 70 58 59 179 -20 220 -32 16 -106 19 -143 4 -14 -5 -35 -24 -46 -42 -11 -18 -20 -26 -20 -18 0 25 30 61 64 76 45 19 86 17 136 -8z m-176 -196 c24 -46 63 -72 110 -73 34 0 37 -2 19 -9 -72 -29 -165 65 -162 164 1 28 2 26 9 -11 5 -23 16 -55 24 -71z"/>
 <path d="M1045 1383 c-34 -8 -39 -21 -13 -28 40 -10 83 -2 83 15 0 16 -34 22 -70 13z"/>
 <path d="M884 1365 c-12 -30 3 -45 38 -37 42 9 81 9 141 -1 31 -6 47 -5 47 2 0 6 -20 11 -45 11 -26 0 -63 9 -85 20 -46 24 -88 26 -96 5z"/>
 <path d="M1200 1989 c0 -7 14 -55 31 -108 22 -66 33 -123 37 -182 l4 -86 23 21 c12 12 48 41 80 64 l57 44 -37 38 -38 38 42 13 c48 14 49 20 18 104 l-22 60 -98 3 c-69 2 -97 -1 -97 -9z"/>
 <path d="M1420 1998 c0 -2 9 -27 20 -56 29 -76 27 -97 -12 -113 -46 -18 -46 -16 -8 -48 l34 -28 -25 -24 c-13 -13 -42 -39 -64 -57 l-40 -32 55 21 c74 29 277 89 301 89 30 0 97 37 113 63 20 30 42 92 51 145 l7 42 -81 0 -81 0 6 -27 c9 -37 37 -100 65 -143 22 -34 22 -34 2 -17 -24 21 -67 106 -77 155 l-8 32 -129 0 c-71 0 -129 -1 -129 -2z"/>
 </g>
<g id="layer107" fill="#951808" stroke="none">
 <path d="M155 1958 c9 -53 31 -115 51 -145 16 -26 83 -63 113 -63 25 0 230 -61 301 -89 l55 -22 -40 33 c-22 18 -51 44 -64 57 l-25 24 32 27 c38 32 39 36 8 44 -14 3 -31 13 -40 21 -15 15 -9 45 29 138 7 16 -3 17 -123 17 l-130 0 -7 -32 c-10 -45 -59 -141 -81 -159 -14 -11 -13 -6 5 21 28 43 56 106 65 143 l6 27 -81 0 -81 0 7 -42z"/>
 <path d="M605 1990 c-9 -15 -45 -122 -45 -135 0 -7 19 -17 41 -24 l42 -13 -38 -38 -37 -38 53 -41 c30 -23 66 -52 80 -65 l27 -25 4 87 c4 60 15 117 37 183 17 53 31 101 31 108 0 14 -186 16 -195 1z"/>
 <path d="M826 1964 c-4 -19 -20 -77 -35 -127 -16 -51 -34 -131 -40 -178 -10 -74 -9 -91 5 -124 l16 -38 -45 -43 c-24 -23 -58 -49 -74 -58 -23 -11 -32 -24 -36 -51 -3 -20 -16 -62 -28 -93 -17 -43 -30 -61 -53 -72 -25 -12 -35 -27 -52 -80 -12 -36 -34 -85 -49 -108 -18 -28 -30 -61 -33 -94 -4 -47 -3 -53 23 -74 26 -21 27 -23 16 -73 -15 -73 -14 -199 4 -256 21 -71 80 -151 134 -182 25 -15 70 -53 99 -84 32 -35 75 -69 110 -86 51 -25 67 -28 157 -28 79 1 119 6 194 28 224 67 342 165 387 322 13 47 16 87 12 200 l-5 142 28 10 c51 20 49 108 -5 188 -14 20 -30 53 -36 73 -23 74 -32 90 -59 101 -28 12 -66 93 -78 166 -4 27 -13 40 -37 52 -17 9 -40 25 -51 37 -11 12 -32 31 -48 43 l-27 21 20 35 c20 33 20 41 9 124 -6 48 -27 138 -45 198 -19 61 -34 118 -34 128 0 14 -9 17 -55 17 -60 0 -54 8 -73 -92 -8 -42 -7 -48 17 -72 l25 -26 -34 -35 c-19 -19 -42 -35 -51 -35 -9 0 -33 17 -53 38 l-37 37 27 22 c24 19 26 25 17 46 -6 13 -15 45 -18 71 l-7 46 -48 0 c-47 0 -48 -1 -54 -36z m291 -572 c12 -8 16 -24 14 -60 -1 -25 -42 -72 -62 -72 -7 0 -4 6 7 14 33 25 3 41 -78 41 -82 0 -98 -15 -41 -38 25 -10 31 -16 18 -16 -27 -1 -80 33 -100 63 -13 20 -14 29 -5 47 11 20 17 21 74 15 33 -3 75 -2 91 3 38 12 67 13 82 3z m-318 -323 c28 -6 62 -20 77 -31 31 -25 64 -92 63 -128 0 -15 -6 -6 -14 25 -26 98 -135 150 -230 111 -42 -18 -55 -42 -55 -101 0 -52 25 -108 67 -147 62 -58 170 -30 210 57 l14 30 -6 -29 c-9 -44 -33 -73 -78 -95 -36 -18 -48 -19 -87 -9 -55 13 -83 37 -108 92 -57 122 -19 226 85 235 7 1 35 -4 62 -10z m491 -21 c113 -57 124 -199 20 -253 -42 -22 -51 -18 -13 5 64 39 85 105 55 174 -27 60 -65 80 -145 74 -50 -4 -64 -9 -83 -31 -72 -84 -8 -236 99 -238 34 0 38 -2 20 -9 -30 -12 -90 6 -118 36 -12 13 -28 44 -35 69 -40 142 71 238 200 173z"/>
 <path d="M1045 1383 c-34 -8 -39 -21 -13 -28 40 -10 83 -2 83 15 0 16 -34 22 -70 13z"/>
 <path d="M884 1365 c-12 -30 3 -45 38 -37 42 9 81 9 141 -1 31 -6 47 -5 47 2 0 6 -20 11 -45 11 -26 0 -63 9 -85 20 -46 24 -88 26 -96 5z"/>
 <path d="M1200 1989 c0 -7 14 -55 31 -108 22 -66 33 -123 37 -182 l4 -86 23 21 c12 12 48 41 80 64 l57 44 -37 38 -38 38 42 13 c48 14 49 20 18 104 l-22 60 -98 3 c-69 2 -97 -1 -97 -9z"/>
 <path d="M1420 1998 c0 -2 9 -27 20 -56 29 -76 27 -97 -12 -113 -46 -18 -46 -16 -8 -48 l34 -28 -25 -24 c-13 -13 -42 -39 -64 -57 l-40 -32 55 21 c74 29 277 89 301 89 30 0 97 37 113 63 20 30 42 92 51 145 l7 42 -81 0 -81 0 6 -27 c9 -37 37 -100 65 -143 22 -34 22 -34 2 -17 -24 21 -67 106 -77 155 l-8 32 -129 0 c-71 0 -129 -1 -129 -2z"/>
 </g>
<g id="layer108" fill="#653220" stroke="none">
 <path d="M155 1958 c9 -53 31 -115 51 -145 16 -26 83 -63 113 -63 25 0 230 -61 301 -89 l55 -22 -40 33 c-22 18 -51 44 -64 57 l-25 24 32 27 c38 32 39 36 8 44 -14 3 -31 13 -40 21 -15 15 -9 45 29 138 7 16 -3 17 -123 17 l-130 0 -7 -32 c-10 -45 -59 -141 -81 -159 -14 -11 -13 -6 5 21 28 43 56 106 65 143 l6 27 -81 0 -81 0 7 -42z"/>
 <path d="M605 1990 c-9 -15 -45 -122 -45 -135 0 -7 19 -17 41 -24 l42 -13 -38 -38 -37 -38 53 -41 c30 -23 66 -52 80 -65 l27 -25 4 87 c4 60 15 117 37 183 17 53 31 101 31 108 0 14 -186 16 -195 1z"/>
 <path d="M826 1964 c-4 -19 -20 -77 -35 -127 -16 -51 -34 -131 -40 -178 -10 -74 -9 -91 5 -125 l16 -39 -34 -30 c-59 -53 -95 -108 -126 -195 -23 -65 -34 -84 -47 -82 -33 6 -63 -26 -80 -85 -9 -32 -31 -80 -48 -107 -21 -34 -32 -64 -35 -102 -4 -51 -3 -54 26 -71 l30 -17 -5 -131 c-5 -117 -3 -136 17 -188 24 -63 70 -129 111 -160 24 -17 29 -18 55 -4 16 8 40 27 53 41 l24 26 -27 0 c-82 0 -130 56 -151 178 -15 83 -18 271 -5 312 7 21 8 22 9 5 5 -83 24 -219 37 -265 23 -80 58 -125 121 -156 50 -25 60 -26 138 -20 64 4 107 1 185 -14 121 -24 132 -24 196 -5 125 37 219 207 250 449 l6 50 21 -55 c25 -61 52 -74 86 -40 34 34 24 107 -26 180 -13 19 -30 58 -39 88 -18 61 -35 82 -74 89 -23 5 -30 15 -49 74 -20 63 -93 190 -109 190 -4 0 -19 12 -34 25 l-28 24 21 35 c19 32 19 40 8 123 -6 48 -27 138 -45 198 -19 61 -34 118 -34 128 0 14 -9 17 -55 17 -60 0 -54 8 -73 -92 -8 -42 -7 -48 17 -72 l25 -26 -34 -35 c-19 -19 -42 -35 -51 -35 -9 0 -33 17 -53 38 l-37 37 27 22 c24 19 26 25 17 46 -6 13 -15 45 -18 71 l-7 46 -48 0 c-47 0 -48 -1 -54 -36z m291 -572 c12 -8 16 -24 14 -60 -1 -25 -42 -72 -62 -72 -7 0 -4 6 7 14 33 25 3 41 -78 41 -82 0 -98 -15 -41 -38 25 -10 31 -16 18 -16 -27 -1 -80 33 -100 63 -13 20 -14 29 -5 47 11 20 17 21 74 15 33 -3 75 -2 91 3 38 12 67 13 82 3z m-318 -323 c28 -6 62 -20 77 -31 31 -25 64 -92 63 -128 0 -15 -6 -6 -14 25 -26 98 -135 150 -230 111 -42 -18 -55 -42 -55 -101 0 -52 25 -108 67 -147 62 -58 170 -30 210 57 l14 30 -6 -29 c-9 -44 -33 -73 -78 -95 -36 -18 -48 -19 -87 -9 -55 13 -83 37 -108 92 -57 122 -19 226 85 235 7 1 35 -4 62 -10z m491 -21 c113 -57 124 -199 20 -253 -42 -22 -51 -18 -13 5 64 39 85 105 55 174 -27 60 -65 80 -145 74 -50 -4 -64 -9 -83 -31 -72 -84 -8 -236 99 -238 34 0 38 -2 20 -9 -30 -12 -90 6 -118 36 -12 13 -28 44 -35 69 -40 142 71 238 200 173z"/>
 <path d="M1045 1383 c-34 -8 -39 -21 -13 -28 40 -10 83 -2 83 15 0 16 -34 22 -70 13z"/>
 <path d="M884 1365 c-14 -35 1 -42 66 -32 l63 10 -34 18 c-42 22 -88 24 -95 4z"/>
 <path d="M1045 1330 c44 -11 65 -11 65 0 0 6 -21 9 -47 9 -43 -1 -45 -2 -18 -9z"/>
 <path d="M1200 1989 c0 -7 14 -55 31 -108 22 -66 33 -123 37 -182 l4 -86 23 21 c12 12 48 41 80 64 l57 44 -37 38 -38 38 42 13 c48 14 49 20 18 104 l-22 60 -98 3 c-69 2 -97 -1 -97 -9z"/>
 <path d="M1420 1998 c0 -2 9 -27 20 -56 29 -76 27 -97 -12 -113 -46 -18 -46 -16 -8 -48 l34 -28 -25 -24 c-13 -13 -42 -39 -64 -57 l-40 -32 55 21 c74 29 277 89 301 89 30 0 97 37 113 63 20 30 42 92 51 145 l7 42 -81 0 -81 0 6 -27 c9 -37 37 -100 65 -143 22 -34 22 -34 2 -17 -24 21 -67 106 -77 155 l-8 32 -129 0 c-71 0 -129 -1 -129 -2z"/>
 <path d="M1519 705 c-4 -5 -19 -41 -34 -80 -60 -152 -124 -228 -226 -266 -57 -22 -159 -26 -248 -11 -94 16 -156 -17 -163 -88 l-4 -35 -17 37 c-24 54 -21 91 10 129 25 29 26 31 5 20 -36 -19 -75 -115 -69 -169 l5 -44 -19 28 c-43 65 -43 159 -1 183 9 6 12 11 6 11 -13 0 -68 -57 -83 -87 -29 -57 13 -124 107 -170 51 -25 67 -28 152 -27 166 3 369 77 463 170 60 60 104 149 117 240 11 73 10 177 -1 159z"/>
 </g>
<g id="layer109" fill="#a12a1b" stroke="none">
 <path d="M155 1976 c3 -14 8 -38 11 -53 7 -37 46 -125 51 -119 3 2 -7 36 -21 76 -14 39 -26 80 -26 90 0 10 -5 22 -10 25 -7 4 -9 -3 -5 -19z"/>
 <path d="M830 1981 c0 -10 -16 -69 -35 -132 -47 -158 -61 -263 -39 -315 l16 -39 -34 -30 c-59 -53 -95 -108 -126 -195 -23 -65 -34 -84 -47 -82 -33 6 -63 -26 -80 -85 -9 -32 -31 -80 -48 -107 -21 -34 -32 -64 -35 -102 -4 -51 -3 -54 26 -71 l30 -17 -5 -131 c-5 -117 -3 -136 17 -188 24 -63 70 -129 111 -160 24 -17 29 -18 55 -4 16 8 40 27 53 41 l24 26 -27 0 c-82 0 -130 56 -151 178 -15 83 -18 271 -5 312 7 21 8 22 9 5 5 -83 24 -219 37 -265 23 -80 58 -125 121 -156 50 -25 60 -26 138 -20 64 4 107 1 185 -14 121 -24 132 -24 196 -5 125 37 219 207 250 449 l6 50 21 -55 c25 -61 52 -74 86 -40 34 34 24 107 -26 180 -13 19 -30 58 -39 88 -18 61 -35 82 -74 89 -23 5 -30 15 -49 74 -20 63 -93 190 -109 190 -4 0 -19 12 -34 25 l-28 24 21 35 c19 32 19 41 9 116 -6 45 -22 119 -36 163 -13 45 -30 106 -36 135 l-12 52 -53 0 c-58 0 -52 8 -71 -92 -8 -42 -7 -48 17 -72 l25 -26 -34 -35 c-19 -19 -42 -35 -51 -35 -9 0 -33 17 -53 38 l-37 37 27 22 c24 19 26 25 17 46 -6 13 -15 45 -18 71 l-7 46 -49 0 c-41 0 -49 -3 -49 -19z m287 -589 c12 -8 16 -24 14 -60 -1 -25 -42 -72 -62 -72 -7 0 -4 6 7 14 33 25 3 41 -78 41 -82 0 -98 -15 -41 -38 25 -10 31 -16 18 -16 -27 -1 -80 33 -100 63 -13 20 -14 29 -5 47 11 20 17 21 74 15 33 -3 75 -2 91 3 38 12 67 13 82 3z m-318 -323 c28 -6 62 -20 77 -31 31 -25 64 -92 63 -128 0 -15 -6 -6 -14 25 -26 98 -135 150 -230 111 -42 -18 -55 -42 -55 -101 0 -52 25 -108 67 -147 62 -58 170 -30 210 57 l14 30 -6 -29 c-9 -44 -33 -73 -78 -95 -36 -17 -49 -19 -87 -10 -53 12 -82 37 -108 93 -57 122 -19 226 85 235 7 1 35 -4 62 -10z m491 -21 c113 -57 124 -199 20 -253 -42 -22 -51 -18 -13 5 64 39 85 105 55 174 -27 60 -65 80 -145 74 -50 -4 -64 -9 -83 -31 -72 -84 -8 -236 99 -238 34 0 38 -2 20 -9 -30 -12 -90 6 -118 36 -12 13 -28 44 -35 69 -40 142 71 238 200 173z"/>
 <path d="M1035 1376 l-30 -13 37 -8 c46 -9 73 -4 73 15 0 20 -42 23 -80 6z"/>
 <path d="M891 1371 c-7 -5 -11 -17 -7 -28 6 -17 11 -18 66 -9 l60 10 -37 18 c-43 19 -62 22 -82 9z"/>
 <path d="M1836 1988 c-2 -7 -16 -51 -30 -97 -15 -46 -25 -86 -23 -88 8 -7 49 100 56 148 7 45 5 67 -3 37z"/>
 <path d="M230 1792 c0 -12 41 -30 87 -37 34 -5 31 -3 -22 19 -69 30 -65 29 -65 18z"/>
 <path d="M1700 1773 c-52 -23 -53 -24 -17 -18 46 7 87 25 87 37 0 11 -7 9 -70 -19z"/>
 <path d="M1519 705 c-4 -5 -19 -41 -34 -80 -60 -152 -124 -228 -226 -266 -57 -22 -159 -26 -248 -11 -94 16 -156 -17 -163 -88 l-4 -35 -17 37 c-24 54 -21 91 10 129 25 29 26 31 5 20 -36 -19 -75 -115 -69 -169 l5 -44 -19 28 c-43 65 -43 159 -1 183 9 6 12 11 6 11 -13 0 -68 -57 -83 -87 -29 -57 13 -124 107 -170 51 -25 67 -28 152 -27 166 3 369 77 463 170 60 60 104 149 117 240 11 73 10 177 -1 159z"/>
 </g>
<g id="layer110" fill="#6f4532" stroke="none">
 <path d="M155 1976 c3 -14 8 -38 11 -53 7 -37 46 -125 51 -119 3 2 -7 36 -21 76 -14 39 -26 80 -26 90 0 10 -5 22 -10 25 -7 4 -9 -3 -5 -19z"/>
 <path d="M830 1981 c0 -10 -16 -69 -35 -132 -47 -158 -61 -263 -39 -315 l16 -39 -34 -30 c-54 -47 -103 -126 -129 -209 -20 -63 -27 -74 -42 -70 -33 10 -64 -22 -82 -83 -9 -32 -31 -80 -48 -107 -21 -33 -32 -65 -35 -101 -4 -49 -2 -54 22 -70 26 -17 28 -17 54 6 l27 24 -24 -27 c-23 -26 -24 -35 -25 -166 l-1 -138 38 -77 c60 -122 112 -150 180 -96 34 26 34 39 0 39 -44 0 -92 36 -114 84 -29 66 -39 134 -41 277 -1 82 -5 125 -11 117 -6 -9 -7 -8 -3 5 3 10 6 21 6 23 0 3 4 3 9 0 5 -4 7 4 4 16 -4 17 -3 20 5 13 7 -6 16 -64 22 -130 17 -195 51 -279 133 -326 38 -22 52 -24 147 -22 64 1 134 -4 180 -13 104 -22 188 -20 236 4 113 59 181 197 220 447 l6 40 22 -55 c25 -62 51 -75 85 -41 34 34 24 107 -26 180 -13 19 -30 57 -38 85 -9 28 -19 56 -23 62 -11 17 -49 34 -64 29 -9 -3 -20 18 -36 68 -32 101 -103 203 -170 243 -2 1 7 17 18 37 20 33 20 41 10 117 -6 45 -22 119 -36 163 -13 45 -30 106 -36 135 l-12 52 -53 0 c-58 0 -52 8 -71 -92 -8 -42 -7 -48 17 -72 l25 -26 -34 -35 c-19 -19 -42 -35 -51 -35 -9 0 -33 17 -53 38 l-37 37 27 22 c24 19 26 25 17 46 -6 13 -15 45 -18 71 l-7 46 -49 0 c-41 0 -49 -3 -49 -19z m287 -589 c12 -8 16 -24 14 -60 -1 -25 -42 -72 -62 -72 -7 0 -4 6 7 14 33 25 3 41 -78 41 -82 0 -98 -15 -41 -38 25 -10 31 -16 18 -16 -27 -1 -80 33 -100 63 -13 20 -14 29 -5 47 11 20 17 21 74 15 33 -3 75 -2 91 3 38 12 67 13 82 3z m-318 -323 c28 -6 62 -20 77 -31 31 -25 64 -92 63 -128 0 -15 -6 -6 -14 25 -26 98 -135 150 -230 111 -42 -18 -55 -42 -55 -101 0 -52 25 -108 67 -147 62 -58 170 -30 210 57 l14 30 -6 -29 c-9 -44 -33 -73 -78 -95 -36 -17 -49 -19 -87 -10 -53 12 -82 37 -108 93 -57 122 -19 226 85 235 7 1 35 -4 62 -10z m491 -21 c113 -57 124 -199 20 -253 -42 -22 -51 -18 -13 5 64 39 85 105 55 174 -27 60 -65 80 -145 74 -50 -4 -64 -9 -83 -31 -72 -84 -8 -236 99 -238 34 0 38 -2 20 -9 -30 -12 -90 6 -118 36 -12 13 -28 44 -35 69 -40 142 71 238 200 173z m-774 -553 c9 -27 25 -63 36 -80 19 -30 19 -30 -10 3 -32 36 -53 93 -51 138 1 20 3 23 6 9 2 -11 11 -42 19 -70z"/>
 <path d="M1035 1376 l-30 -13 37 -8 c46 -9 73 -4 73 15 0 20 -42 23 -80 6z"/>
 <path d="M1836 1988 c-2 -7 -16 -51 -30 -97 -15 -46 -25 -86 -23 -88 8 -7 49 100 56 148 7 45 5 67 -3 37z"/>
 <path d="M230 1792 c0 -12 41 -30 87 -37 34 -5 31 -3 -22 19 -69 30 -65 29 -65 18z"/>
 <path d="M1700 1773 c-52 -23 -53 -24 -17 -18 46 7 87 25 87 37 0 11 -7 9 -70 -19z"/>
 <path d="M1496 645 c-38 -101 -89 -186 -139 -230 -66 -60 -158 -89 -252 -81 -36 3 -93 9 -128 12 -60 5 -65 4 -96 -25 -28 -26 -33 -37 -29 -66 2 -19 1 -35 -3 -35 -13 0 -49 52 -49 71 0 10 -4 21 -10 24 -6 4 -10 -17 -10 -56 0 -61 0 -62 -20 -44 -29 26 -54 99 -46 137 l6 33 -25 -40 c-14 -22 -25 -48 -25 -58 0 -29 77 -103 131 -127 110 -47 315 -17 492 72 153 76 231 211 225 385 l-3 78 -19 -50z m-82 -256 c-25 -28 -94 -79 -107 -79 -6 0 9 13 34 28 24 16 53 39 63 50 11 12 21 22 24 22 3 0 -3 -10 -14 -21z"/>
 </g>
<g id="layer111" fill="#b13928" stroke="none">
 <path d="M830 1982 c0 -9 -16 -70 -35 -135 -48 -165 -60 -262 -39 -313 l16 -39 -34 -30 c-54 -47 -103 -126 -129 -209 -20 -63 -27 -74 -42 -70 -33 10 -64 -22 -82 -83 -9 -32 -31 -80 -48 -107 -21 -33 -32 -65 -35 -101 -4 -49 -2 -54 22 -70 26 -17 28 -17 54 6 l27 24 -24 -27 c-23 -26 -24 -35 -25 -166 l-1 -138 38 -77 c60 -122 112 -150 180 -96 34 26 34 39 0 39 -44 0 -92 36 -114 84 -29 66 -39 134 -41 277 -1 82 -5 125 -11 117 -6 -9 -7 -8 -3 5 3 10 6 21 6 23 0 3 4 3 9 0 5 -4 7 4 4 16 -4 17 -3 20 5 13 7 -6 16 -64 22 -130 17 -195 51 -279 133 -326 38 -22 52 -24 147 -22 64 1 134 -4 180 -13 104 -22 188 -20 236 4 113 59 181 197 220 447 l6 40 22 -55 c25 -62 51 -75 85 -41 34 34 24 107 -26 180 -13 19 -30 57 -38 85 -9 28 -19 56 -23 62 -11 17 -49 34 -64 29 -9 -3 -20 18 -36 68 -32 101 -103 203 -170 243 -2 1 7 18 18 37 21 36 21 38 5 134 -9 54 -31 150 -49 213 l-34 115 -51 3 c-56 3 -50 11 -69 -90 -8 -42 -7 -48 17 -72 l25 -26 -39 -40 c-21 -22 -42 -40 -45 -40 -4 0 -26 19 -49 43 l-42 42 27 22 c24 19 26 25 17 46 -6 13 -15 45 -18 71 l-7 46 -49 0 c-40 0 -49 -3 -49 -18z m299 -604 c16 -43 -24 -118 -62 -118 -6 0 -2 6 9 14 16 12 17 17 6 28 -17 17 -153 18 -159 2 -4 -11 54 -37 102 -47 11 -3 0 -3 -24 -1 -51 5 -96 28 -123 65 -17 22 -18 30 -8 49 11 21 17 22 78 17 37 -3 76 -2 87 3 11 5 35 9 53 9 25 1 35 -4 41 -21z m-280 -323 c49 -25 92 -95 90 -147 0 -13 -6 -1 -14 27 -26 98 -135 150 -230 111 -42 -18 -55 -42 -55 -101 0 -52 25 -108 67 -147 62 -59 172 -29 209 57 9 20 13 24 14 11 0 -35 -42 -88 -86 -108 -96 -42 -185 19 -214 146 -18 82 7 148 64 166 38 11 120 4 155 -15z m441 -7 c91 -46 120 -153 61 -220 -39 -45 -113 -71 -166 -58 -120 28 -144 237 -32 285 46 20 87 18 137 -7z m-774 -553 c9 -27 25 -63 36 -80 19 -30 19 -30 -10 3 -32 36 -53 93 -51 138 1 20 3 23 6 9 2 -11 11 -42 19 -70z"/>
 <path d="M1035 1376 l-30 -13 38 -7 c43 -8 80 0 74 17 -5 17 -47 19 -82 3z"/>
 <path d="M1154 1040 c-78 -31 -79 -170 -3 -235 74 -61 192 -10 214 92 9 45 -24 117 -64 137 -32 17 -112 20 -147 6z"/>
 <path d="M1496 645 c-38 -101 -89 -186 -139 -230 -66 -60 -158 -89 -252 -81 -36 3 -93 9 -128 12 -60 5 -65 4 -96 -25 -28 -26 -33 -37 -29 -66 2 -19 1 -35 -3 -35 -13 0 -49 52 -49 71 0 10 -4 21 -10 24 -6 4 -10 -17 -10 -56 0 -61 0 -62 -20 -44 -29 26 -54 99 -46 137 l6 33 -25 -40 c-14 -22 -25 -48 -25 -58 0 -29 77 -103 131 -127 110 -47 315 -17 492 72 153 76 231 211 225 385 l-3 78 -19 -50z m-82 -256 c-25 -28 -94 -79 -107 -79 -6 0 9 13 34 28 24 16 53 39 63 50 11 12 21 22 24 22 3 0 -3 -10 -14 -21z"/>
 </g>
<g id="layer112" fill="#665e5b" stroke="none">
 <path d="M830 1982 c0 -9 -16 -70 -35 -135 -48 -164 -60 -262 -39 -312 l16 -39 -33 -30 c-52 -46 -96 -118 -126 -205 -23 -67 -31 -80 -46 -75 -33 10 -64 -22 -82 -83 -9 -32 -31 -80 -48 -107 -42 -66 -50 -146 -17 -169 33 -23 57 -6 88 61 l27 57 6 -60 c4 -33 12 -105 18 -159 12 -107 37 -175 79 -219 50 -53 77 -61 197 -59 67 1 134 -4 173 -13 87 -21 187 -19 237 4 100 45 191 212 210 386 12 114 15 117 39 50 24 -68 50 -81 85 -46 34 34 24 107 -26 180 -13 19 -30 57 -38 85 -9 28 -19 56 -23 62 -11 18 -49 34 -64 29 -10 -4 -20 11 -32 52 -37 119 -103 216 -174 259 -2 1 7 18 18 37 21 36 21 38 5 134 -9 54 -31 150 -49 213 l-34 115 -51 3 c-56 3 -50 11 -69 -90 -8 -42 -7 -48 17 -72 l25 -26 -39 -40 c-21 -22 -42 -40 -45 -40 -4 0 -26 19 -49 43 l-42 42 27 22 c24 19 26 25 17 46 -6 13 -15 45 -18 71 l-7 46 -49 0 c-40 0 -49 -3 -49 -18z m299 -604 c16 -43 -24 -118 -62 -118 -6 0 -2 6 9 14 16 12 17 17 6 28 -17 17 -153 18 -159 2 -4 -11 54 -37 102 -47 11 -3 0 -3 -24 -1 -51 5 -96 28 -123 65 -17 22 -18 30 -8 49 11 21 17 22 78 17 37 -3 76 -2 87 3 11 5 35 9 53 9 25 1 35 -4 41 -21z m-280 -323 c49 -25 92 -95 90 -147 0 -13 -6 -1 -14 27 -26 98 -135 150 -230 111 -42 -18 -55 -42 -55 -101 0 -52 25 -108 67 -147 62 -59 172 -29 209 57 9 20 13 24 14 11 0 -35 -42 -88 -86 -108 -96 -42 -185 19 -214 146 -18 82 7 148 64 166 38 11 120 4 155 -15z m441 -7 c92 -47 120 -153 60 -222 -17 -18 -41 -37 -55 -40 -14 -4 -25 -10 -25 -15 0 -10 -81 -7 -115 4 -31 10 -67 80 -72 144 -3 45 0 63 17 89 38 62 115 78 190 40z"/>
 <path d="M1035 1376 l-30 -13 38 -7 c43 -8 80 0 74 17 -5 17 -47 19 -82 3z"/>
 <path d="M1154 1040 c-78 -31 -79 -170 -3 -235 74 -61 192 -10 214 92 9 45 -24 117 -64 137 -32 17 -112 20 -147 6z"/>
 <path d="M492 841 c-12 -16 -24 -49 -27 -73 -5 -41 -4 -41 5 -10 13 40 24 42 15 2 -9 -41 22 -234 47 -292 22 -52 49 -80 93 -97 l30 -11 -33 5 c-86 13 -132 89 -142 235 -7 92 -7 93 -10 30 l-3 -65 -7 65 -7 65 -1 -60 c-3 -108 38 -213 111 -283 40 -39 69 -37 111 7 l27 28 -32 1 c-35 1 -72 24 -101 63 -31 43 -49 142 -51 285 -1 74 -2 134 -3 134 0 0 -10 -13 -22 -29z"/>
 <path d="M1497 635 c-74 -165 -131 -236 -220 -276 -43 -20 -68 -23 -152 -23 -55 0 -121 4 -146 8 -78 14 -138 -32 -125 -95 3 -16 2 -29 -3 -29 -12 0 -44 38 -58 68 -11 24 -12 21 -10 -36 1 -34 -1 -62 -5 -62 -21 0 -61 75 -66 121 -4 43 -6 47 -17 32 -7 -10 -15 -31 -19 -47 -6 -25 -1 -34 42 -76 30 -28 68 -54 97 -64 150 -51 458 30 585 154 80 78 125 197 118 312 l-4 53 -17 -40z m-35 -178 c-10 -23 -33 -59 -51 -79 -38 -44 -123 -88 -165 -87 -30 0 -30 1 9 13 93 29 156 83 195 167 29 61 40 49 12 -14z m-167 -117 c-7 -12 -72 -30 -105 -29 -14 0 4 8 40 18 36 10 66 19 68 20 2 0 1 -3 -3 -9z m-165 -40 c20 -8 15 -9 -27 -4 -99 11 -161 7 -190 -11 -27 -18 -27 -18 -13 -1 8 10 23 22 35 27 25 11 162 4 195 -11z m-56 -40 c-49 -3 -96 -10 -102 -14 -7 -4 -12 -5 -12 -1 0 14 51 24 125 23 l80 -1 -91 -7z"/>
 </g>
<g id="layer113" fill="#9a5933" stroke="none">
 <path d="M835 1988 c-2 -7 -11 -40 -19 -74 -9 -33 -23 -80 -31 -104 -9 -25 -22 -88 -30 -141 -13 -87 -13 -101 1 -135 l16 -38 -33 -30 c-52 -46 -96 -118 -126 -205 -23 -67 -31 -80 -46 -75 -33 10 -64 -22 -82 -83 -9 -32 -31 -80 -48 -107 -42 -66 -50 -146 -17 -169 33 -23 57 -6 88 61 l27 57 6 -60 c4 -33 12 -105 18 -159 12 -107 37 -175 79 -219 50 -53 77 -61 197 -59 67 1 134 -4 173 -13 87 -21 187 -19 237 4 100 45 191 212 210 386 12 114 15 117 39 50 24 -68 50 -81 85 -46 34 34 24 107 -26 180 -13 19 -30 57 -38 85 -9 28 -19 56 -23 62 -11 18 -49 34 -64 29 -10 -4 -20 11 -32 52 -37 119 -103 216 -174 259 -2 1 6 17 18 36 20 34 20 38 5 136 -8 55 -20 113 -26 128 -6 16 -21 67 -33 114 l-23 85 -50 3 c-57 3 -56 5 -69 -94 -5 -46 -4 -53 16 -67 16 -11 20 -21 15 -36 -6 -19 -63 -71 -78 -71 -11 0 -56 42 -73 67 -14 23 -14 25 9 44 24 18 25 20 11 66 -8 25 -14 57 -14 70 0 21 -4 23 -45 23 -28 0 -47 -5 -50 -12z m295 -607 c14 -28 2 -76 -27 -103 -33 -30 -122 -32 -172 -3 -49 29 -78 71 -65 93 9 14 27 17 92 17 44 0 84 3 88 8 16 15 73 7 84 -12z m-317 -312 c83 -23 137 -106 122 -188 -26 -142 -192 -185 -268 -69 -63 97 -57 216 13 250 40 20 79 22 133 7z m473 -15 c19 -9 48 -33 64 -53 25 -29 30 -45 30 -88 0 -44 -5 -58 -30 -87 -17 -18 -41 -37 -55 -40 -14 -4 -25 -10 -25 -15 0 -10 -81 -7 -116 4 -13 4 -33 29 -49 61 -23 45 -27 63 -23 109 5 60 24 89 73 111 41 18 90 17 131 -2z"/>
 <path d="M1035 1376 l-30 -13 38 -7 c43 -8 80 0 74 17 -5 17 -47 19 -82 3z"/>
 <path d="M932 1311 c-19 -12 3 -27 61 -43 49 -13 76 -6 85 20 8 25 -113 44 -146 23z"/>
 <path d="M703 1049 c-86 -25 -82 -178 6 -252 60 -50 159 -28 197 45 44 85 5 175 -88 203 -58 17 -69 17 -115 4z"/>
 <path d="M1151 1033 c-105 -55 -47 -253 74 -253 78 0 135 60 135 143 0 40 -5 53 -33 84 -29 31 -41 37 -88 40 -39 3 -64 -1 -88 -14z"/>
 <path d="M492 841 c-12 -16 -24 -49 -27 -73 -5 -41 -4 -41 5 -10 13 40 24 42 15 2 -9 -41 22 -234 47 -292 22 -52 49 -80 93 -97 l30 -11 -33 5 c-86 13 -132 89 -142 235 -7 92 -7 93 -10 30 l-3 -65 -7 65 -7 65 -1 -60 c-3 -108 38 -213 111 -283 40 -39 69 -37 111 7 l27 28 -32 1 c-35 1 -72 24 -101 63 -31 43 -49 142 -51 285 -1 74 -2 134 -3 134 0 0 -10 -13 -22 -29z"/>
 <path d="M1497 635 c-74 -165 -131 -236 -220 -276 -43 -20 -68 -23 -152 -23 -55 0 -121 4 -146 8 -78 14 -138 -32 -125 -95 3 -16 2 -29 -3 -29 -12 0 -44 38 -58 68 -11 24 -12 21 -10 -36 1 -34 -1 -62 -5 -62 -21 0 -61 75 -66 121 -4 43 -6 47 -17 32 -7 -10 -15 -31 -19 -47 -6 -25 -1 -34 42 -76 30 -28 68 -54 97 -64 150 -51 458 30 585 154 80 78 125 197 118 312 l-4 53 -17 -40z m-35 -178 c-10 -23 -33 -59 -51 -79 -38 -44 -123 -88 -165 -87 -30 0 -30 1 9 13 93 29 156 83 195 167 29 61 40 49 12 -14z m-167 -117 c-7 -12 -72 -30 -105 -29 -14 0 4 8 40 18 36 10 66 19 68 20 2 0 1 -3 -3 -9z m-165 -40 c20 -8 15 -9 -27 -4 -99 11 -161 7 -190 -11 -27 -18 -27 -18 -13 -1 8 10 23 22 35 27 25 11 162 4 195 -11z m-56 -40 c-49 -3 -96 -10 -102 -14 -7 -4 -12 -5 -12 -1 0 14 51 24 125 23 l80 -1 -91 -7z"/>
 </g>
<g id="layer114" fill="#b94232" stroke="none">
 <path d="M835 1988 c-2 -7 -11 -40 -19 -74 -9 -33 -23 -80 -31 -104 -9 -25 -22 -88 -30 -141 -13 -87 -13 -101 1 -135 l16 -38 -33 -30 c-52 -46 -96 -118 -126 -205 -23 -67 -31 -80 -46 -75 -33 10 -64 -22 -82 -83 -9 -32 -31 -80 -48 -107 -42 -66 -50 -146 -17 -169 33 -23 57 -6 88 61 l27 57 7 -60 c4 -33 12 -105 18 -159 11 -107 35 -174 78 -219 50 -53 77 -61 197 -59 67 1 134 -4 173 -13 87 -21 187 -19 237 4 100 45 191 212 210 386 12 114 15 117 39 50 24 -68 50 -81 85 -46 34 34 24 107 -26 180 -13 19 -30 57 -38 85 -9 28 -19 56 -23 62 -11 18 -49 34 -64 29 -10 -4 -20 11 -32 52 -37 119 -103 216 -174 259 -2 1 6 17 18 36 20 34 20 38 5 136 -8 55 -20 113 -26 128 -6 16 -21 67 -33 114 l-23 85 -50 3 c-57 3 -56 5 -69 -94 -5 -46 -4 -53 16 -67 16 -11 20 -21 15 -36 -6 -19 -63 -71 -78 -71 -11 0 -56 42 -73 67 -14 23 -14 25 9 44 24 18 25 20 11 66 -8 25 -14 57 -14 70 0 21 -4 23 -45 23 -28 0 -47 -5 -50 -12z m295 -607 c14 -28 2 -76 -27 -103 -33 -30 -122 -32 -172 -3 -49 29 -78 71 -65 93 9 14 27 17 92 17 44 0 84 3 88 8 16 15 73 7 84 -12z m-315 -312 c55 -16 111 -73 119 -125 19 -112 -67 -219 -160 -199 -47 11 -84 27 -84 37 0 5 -5 6 -10 3 -6 -4 -10 -3 -9 2 1 4 -7 28 -19 53 -76 163 3 273 163 229z m471 -15 c19 -9 48 -33 64 -53 25 -29 30 -45 30 -88 0 -44 -5 -58 -30 -86 -16 -19 -27 -37 -24 -40 3 -3 -4 -3 -17 0 -14 4 -20 2 -16 -4 14 -22 -93 -31 -136 -12 -14 6 -37 35 -52 65 -23 45 -27 63 -23 109 5 60 24 89 73 111 41 18 90 17 131 -2z"/>
 <path d="M1040 1376 l-35 -13 37 -6 c44 -7 80 1 75 17 -5 16 -37 17 -77 2z"/>
 <path d="M932 1311 c-19 -12 3 -27 61 -43 49 -13 76 -6 85 20 8 25 -113 44 -146 23z"/>
 <path d="M703 1049 c-86 -25 -82 -178 6 -252 60 -50 159 -28 197 45 44 85 5 175 -88 203 -58 17 -69 17 -115 4z"/>
 <path d="M1151 1033 c-105 -55 -47 -253 74 -253 78 0 135 60 135 143 0 40 -5 53 -33 84 -29 31 -41 37 -88 40 -39 3 -64 -1 -88 -14z"/>
 <path d="M492 841 c-12 -16 -24 -49 -27 -73 -5 -41 -4 -41 5 -10 13 40 24 42 15 2 -9 -41 22 -234 47 -292 22 -52 49 -80 93 -97 l30 -11 -33 5 c-86 13 -132 89 -142 235 -7 92 -7 93 -10 30 l-3 -65 -7 65 -7 65 -1 -60 c-3 -108 38 -213 111 -283 40 -39 69 -37 111 7 l27 28 -32 1 c-35 1 -72 24 -101 63 -31 43 -49 142 -51 285 -1 74 -2 134 -3 134 0 0 -10 -13 -22 -29z"/>
 <path d="M1497 635 c-74 -165 -131 -236 -220 -276 -43 -20 -68 -23 -152 -23 -55 0 -121 4 -146 8 -78 14 -138 -32 -125 -95 3 -16 2 -29 -3 -29 -12 0 -44 38 -58 68 -11 24 -12 21 -10 -36 1 -34 -1 -62 -5 -62 -21 0 -61 75 -66 121 -4 43 -6 47 -17 32 -7 -10 -15 -31 -19 -47 -6 -25 -1 -34 42 -76 30 -28 68 -54 97 -64 150 -51 458 30 585 154 80 78 125 197 118 312 l-4 53 -17 -40z m-35 -178 c-10 -23 -33 -59 -51 -79 -38 -44 -123 -88 -165 -87 -30 0 -30 1 9 13 93 29 156 83 195 167 29 61 40 49 12 -14z m-167 -117 c-7 -12 -72 -30 -105 -29 -14 0 4 8 40 18 36 10 66 19 68 20 2 0 1 -3 -3 -9z m-165 -40 c20 -8 15 -9 -27 -4 -99 11 -161 7 -190 -11 -27 -18 -27 -18 -13 -1 8 10 23 22 35 27 25 11 162 4 195 -11z m-56 -40 c-49 -3 -96 -10 -102 -14 -7 -4 -12 -5 -12 -1 0 14 51 24 125 23 l80 -1 -91 -7z"/>
 </g>
<g id="layer115" fill="#809245" stroke="none">
 <path d="M835 1988 c-2 -7 -11 -40 -19 -74 -9 -33 -23 -80 -31 -104 -9 -25 -22 -88 -30 -141 -13 -87 -13 -101 1 -135 l16 -38 -33 -30 c-58 -51 -104 -130 -135 -229 -15 -48 -21 -56 -36 -51 -34 10 -65 -21 -83 -83 -9 -32 -31 -80 -48 -107 -42 -66 -50 -146 -17 -169 33 -23 57 -6 86 60 14 31 27 54 29 51 3 -2 9 -58 15 -124 16 -188 38 -260 97 -316 44 -42 79 -51 191 -50 58 1 134 -5 173 -13 96 -20 185 -19 234 4 103 46 193 218 211 399 9 91 18 104 34 48 17 -60 42 -83 75 -68 47 22 43 110 -10 188 -14 21 -32 60 -40 88 -9 28 -19 56 -23 62 -12 18 -49 34 -65 28 -11 -4 -20 12 -36 63 -31 102 -104 210 -169 249 -2 1 6 17 18 36 20 34 20 38 5 136 -8 55 -20 113 -26 128 -6 16 -21 67 -33 114 l-23 85 -50 3 c-57 3 -56 5 -69 -94 -5 -46 -4 -53 16 -67 16 -11 20 -21 15 -36 -6 -19 -63 -71 -78 -71 -11 0 -56 42 -73 67 -14 23 -14 25 9 44 24 18 25 20 11 66 -8 25 -14 57 -14 70 0 21 -4 23 -45 23 -28 0 -47 -5 -50 -12z m295 -607 c14 -28 2 -76 -27 -103 -33 -30 -122 -32 -172 -3 -49 29 -78 71 -65 93 9 14 27 17 92 17 44 0 84 3 88 8 16 15 73 7 84 -12z m-315 -312 c93 -26 144 -124 112 -217 -9 -25 -11 -45 -5 -48 34 -22 -93 -71 -150 -58 -45 9 -82 26 -82 36 0 5 -5 6 -10 3 -6 -4 -10 -3 -9 2 1 4 -7 28 -19 53 -76 163 3 273 163 229z m471 -15 c19 -9 48 -33 64 -53 25 -29 30 -45 30 -88 0 -44 -5 -58 -30 -86 -16 -19 -27 -37 -24 -40 3 -3 -5 -3 -18 0 -16 3 -19 2 -10 -5 11 -7 6 -12 -19 -21 -82 -28 -241 4 -203 42 3 3 17 2 30 -3 l23 -9 -25 47 c-21 39 -25 57 -22 104 5 63 23 92 73 114 41 18 90 17 131 -2z"/>
 <path d="M1040 1376 l-35 -13 37 -6 c44 -7 80 1 75 17 -5 16 -37 17 -77 2z"/>
 <path d="M932 1311 c-19 -12 3 -27 61 -43 49 -13 76 -6 85 20 8 25 -113 44 -146 23z"/>
 <path d="M703 1049 c-86 -25 -82 -178 6 -252 60 -50 159 -28 197 45 44 85 5 175 -88 203 -58 17 -69 17 -115 4z"/>
 <path d="M1151 1033 c-105 -55 -47 -253 74 -253 78 0 135 60 135 143 0 40 -5 53 -33 84 -29 31 -41 37 -88 40 -39 3 -64 -1 -88 -14z"/>
 <path d="M515 593 c4 -73 29 -147 57 -170 8 -7 2 13 -14 45 -16 32 -32 88 -38 127 l-9 70 4 -72z"/>
 <path d="M1460 550 c-7 -17 -26 -50 -43 -73 -18 -25 -22 -35 -10 -24 23 20 77 116 70 123 -2 3 -10 -9 -17 -26z"/>
 <path d="M1462 426 c-6 -13 -25 -41 -43 -62 -28 -33 -29 -35 -6 -14 31 27 72 88 65 96 -3 2 -10 -7 -16 -20z"/>
 <path d="M1140 194 l-45 -14 40 6 c22 3 47 10 55 15 21 12 3 10 -50 -7z"/>
 </g>
<g id="layer116" fill="#9e655c" stroke="none">
 <path d="M835 1988 c-2 -7 -11 -40 -19 -74 -9 -33 -23 -80 -31 -104 -9 -25 -22 -88 -30 -141 -13 -87 -13 -101 1 -135 l16 -38 -33 -30 c-58 -51 -104 -130 -135 -229 -15 -48 -21 -56 -36 -51 -34 10 -65 -21 -83 -83 -9 -32 -31 -80 -48 -107 -42 -66 -50 -146 -17 -169 33 -23 57 -6 86 60 14 31 27 54 29 51 3 -2 9 -58 15 -124 16 -188 38 -260 97 -316 44 -42 79 -51 191 -50 58 1 134 -5 173 -13 96 -20 185 -19 234 4 103 46 193 218 211 399 9 91 18 104 34 48 17 -60 42 -83 75 -68 47 22 43 110 -10 188 -14 21 -32 60 -40 88 -9 28 -19 56 -23 62 -12 18 -49 34 -65 28 -11 -4 -20 12 -36 63 -31 102 -104 210 -169 249 -2 1 6 17 18 36 20 34 20 38 5 136 -8 55 -20 113 -26 128 -6 16 -21 67 -33 114 l-23 85 -50 3 c-57 3 -56 5 -69 -94 -5 -46 -4 -53 16 -67 16 -11 20 -21 15 -36 -6 -19 -63 -71 -78 -71 -11 0 -56 42 -73 67 -14 23 -14 25 9 44 24 18 25 20 11 66 -8 25 -14 57 -14 70 0 21 -4 23 -45 23 -28 0 -47 -5 -50 -12z m295 -607 c14 -28 2 -76 -27 -103 -33 -30 -122 -32 -172 -3 -49 29 -78 71 -65 93 9 14 27 17 92 17 44 0 84 3 88 8 16 15 73 7 84 -12z m-317 -312 c49 -13 103 -61 117 -105 13 -37 5 -130 -11 -140 -6 -4 -6 -11 0 -18 24 -29 -85 -74 -147 -60 -73 15 -97 33 -120 91 -13 31 -26 78 -29 103 -12 106 70 163 190 129z m487 -23 c57 -30 78 -67 79 -133 1 -44 -4 -57 -29 -86 -16 -19 -27 -36 -24 -39 11 -12 -80 -38 -132 -38 -55 0 -124 21 -124 38 0 16 12 21 34 12 l22 -8 -24 46 c-29 58 -28 148 4 183 46 52 125 62 194 25z"/>
 <path d="M1040 1376 l-35 -13 37 -6 c44 -7 80 1 75 17 -5 16 -37 17 -77 2z"/>
 <path d="M932 1311 c-19 -12 3 -27 61 -43 49 -13 76 -6 85 20 8 25 -113 44 -146 23z"/>
 <path d="M703 1049 c-86 -25 -82 -178 6 -252 60 -50 159 -28 197 45 44 85 5 175 -88 203 -58 17 -69 17 -115 4z"/>
 <path d="M1151 1033 c-105 -55 -47 -253 74 -253 78 0 135 60 135 143 0 40 -5 53 -33 84 -29 31 -41 37 -88 40 -39 3 -64 -1 -88 -14z"/>
 <path d="M515 593 c4 -73 29 -147 57 -170 8 -7 2 13 -14 45 -16 32 -32 88 -38 127 l-9 70 4 -72z"/>
 <path d="M1460 550 c-7 -17 -26 -50 -43 -73 -18 -25 -22 -35 -10 -24 23 20 77 116 70 123 -2 3 -10 -9 -17 -26z"/>
 <path d="M1462 426 c-6 -13 -25 -41 -43 -62 -28 -33 -29 -35 -6 -14 31 27 72 88 65 96 -3 2 -10 -7 -16 -20z"/>
 <path d="M1140 194 l-45 -14 40 6 c22 3 47 10 55 15 21 12 3 10 -50 -7z"/>
 </g>
<g id="layer117" fill="#c7623d" stroke="none">
 <path d="M836 1988 c-2 -7 -19 -69 -39 -138 -49 -174 -61 -267 -41 -316 l16 -38 -33 -30 c-58 -51 -104 -130 -135 -229 -15 -48 -21 -56 -36 -51 -34 10 -65 -21 -83 -83 -9 -32 -31 -80 -48 -107 -42 -66 -50 -146 -17 -169 33 -23 57 -6 86 60 14 31 27 54 29 51 3 -2 9 -58 15 -124 16 -188 38 -260 97 -316 44 -42 79 -51 191 -50 58 1 134 -5 173 -13 96 -20 185 -19 234 4 103 46 193 218 211 399 9 91 18 104 34 48 17 -60 42 -83 75 -68 47 22 43 110 -10 188 -14 21 -32 60 -40 88 -9 28 -19 56 -23 62 -12 18 -49 34 -65 28 -11 -4 -20 12 -36 63 -31 102 -104 210 -169 249 -2 1 6 17 18 36 20 34 20 38 5 129 -8 51 -29 142 -46 203 -17 61 -33 117 -35 124 -2 7 -22 12 -53 12 -55 0 -54 1 -67 -96 -5 -46 -4 -53 16 -67 16 -11 20 -21 15 -36 -6 -19 -63 -71 -79 -71 -10 0 -67 53 -78 73 -7 14 -4 22 15 38 24 18 25 20 11 66 -8 25 -14 57 -14 70 0 21 -4 23 -45 23 -28 0 -47 -5 -49 -12z m144 -599 c19 -1 58 2 87 6 46 7 52 5 63 -14 15 -29 5 -73 -23 -99 -50 -47 -142 -41 -206 14 -22 20 -41 44 -41 54 0 25 38 51 65 44 11 -3 36 -5 55 -5z m-116 -338 c50 -31 80 -98 73 -163 -4 -28 -11 -56 -17 -63 -8 -10 -8 -15 0 -20 21 -13 -21 -44 -75 -55 -55 -11 -124 -1 -155 23 -26 21 -60 106 -66 165 -4 47 -1 63 15 90 12 18 31 37 44 42 37 16 142 5 181 -19z m434 -2 c56 -27 82 -69 82 -132 0 -52 -13 -85 -42 -105 -10 -7 -16 -17 -13 -22 9 -14 -74 -40 -131 -40 -55 0 -124 21 -124 38 0 17 12 21 35 12 l23 -9 -25 45 c-46 83 -21 194 52 224 36 15 98 10 143 -11z"/>
 <path d="M1045 1376 l-30 -14 53 -1 c39 -1 53 2 50 12 -6 17 -38 19 -73 3z"/>
 <path d="M932 1314 c-24 -11 7 -32 64 -45 48 -11 57 -10 72 4 12 13 13 20 4 29 -12 12 -118 21 -140 12z"/>
 <path d="M703 1049 c-122 -36 -51 -279 80 -279 112 0 180 131 116 221 -35 50 -130 78 -196 58z"/>
 <path d="M1154 1036 c-55 -25 -73 -108 -38 -181 61 -130 244 -79 244 68 0 40 -5 53 -33 84 -29 31 -41 37 -88 40 -32 2 -66 -2 -85 -11z"/>
 <path d="M515 593 c4 -73 29 -147 57 -170 8 -7 2 13 -14 45 -16 32 -32 88 -38 127 l-9 70 4 -72z"/>
 <path d="M1460 550 c-7 -17 -26 -50 -43 -73 -18 -25 -22 -35 -10 -24 23 20 77 116 70 123 -2 3 -10 -9 -17 -26z"/>
 <path d="M1462 426 c-6 -13 -25 -41 -43 -62 -28 -33 -29 -35 -6 -14 31 27 72 88 65 96 -3 2 -10 -7 -16 -20z"/>
 <path d="M1140 194 l-45 -14 40 6 c22 3 47 10 55 15 21 12 3 10 -50 -7z"/>
 </g>
<g id="layer118" fill="#cb5c4e" stroke="none">
 <path d="M836 1988 c-2 -7 -19 -69 -39 -138 -49 -172 -61 -267 -42 -315 9 -20 20 -33 25 -30 6 3 10 -1 10 -9 0 -9 -4 -16 -8 -16 -10 0 -79 -67 -110 -108 -14 -18 -40 -77 -58 -130 -18 -53 -33 -91 -33 -84 -1 6 -12 12 -25 12 -28 0 -56 -33 -56 -65 0 -11 -10 -40 -22 -65 -24 -50 -24 -51 -27 -132 0 -32 -6 -58 -11 -58 -20 0 -22 30 -7 77 9 26 14 49 12 51 -7 7 -24 -36 -31 -76 -5 -33 -2 -44 16 -62 11 -11 27 -20 33 -18 19 6 62 99 49 107 -19 12 -32 59 -22 83 8 22 9 21 9 -6 1 -17 10 -39 21 -51 15 -16 21 -45 30 -140 17 -192 38 -262 97 -317 44 -42 79 -51 190 -49 58 0 134 -6 173 -14 102 -21 185 -19 236 6 110 53 186 204 214 422 5 44 15 86 21 93 6 7 14 25 19 41 8 27 8 27 9 -9 1 -20 -6 -43 -14 -51 -11 -11 -12 -22 -4 -50 12 -46 33 -67 59 -60 33 9 42 36 30 90 -12 53 -27 76 -43 66 -6 -3 -7 -1 -3 6 4 6 3 17 -2 24 -6 7 -20 42 -32 80 -18 55 -26 68 -47 73 -15 4 -28 2 -32 -5 -4 -6 -18 22 -30 62 -40 124 -88 198 -157 243 -26 17 -35 68 -11 58 8 -3 18 6 25 21 15 33 -5 163 -49 319 -17 61 -33 117 -35 124 -2 7 -22 12 -53 12 -55 0 -54 1 -67 -96 -5 -46 -4 -53 16 -67 16 -11 20 -21 15 -36 -6 -19 -63 -71 -79 -71 -10 0 -67 53 -78 73 -7 14 -4 22 15 38 24 18 25 20 11 66 -8 25 -14 57 -14 70 0 21 -4 23 -45 23 -28 0 -47 -5 -49 -12z m144 -599 c19 -1 58 2 87 6 46 7 52 5 63 -14 15 -29 5 -73 -23 -99 -50 -47 -142 -41 -206 14 -22 20 -41 44 -41 54 0 25 38 51 65 44 11 -3 36 -5 55 -5z m-116 -338 c51 -32 80 -98 73 -164 -4 -28 -11 -55 -16 -60 -7 -7 -7 -15 1 -25 17 -20 -10 -38 -78 -52 -38 -8 -64 -8 -94 0 -58 16 -90 31 -84 41 2 5 -4 26 -16 49 -11 22 -23 66 -26 97 -4 48 -2 64 15 91 12 18 31 37 44 42 37 16 142 5 181 -19z m434 -2 c56 -27 82 -69 82 -132 0 -53 -12 -82 -44 -109 -16 -13 -17 -18 -6 -18 41 -3 -82 -39 -133 -39 -82 -1 -153 32 -117 54 5 3 18 1 29 -5 17 -9 17 -5 -6 36 -47 83 -21 194 52 224 36 15 98 10 143 -11z m270 -132 c11 -39 7 -67 -9 -67 -5 0 -9 20 -9 44 0 24 -3 53 -6 63 -5 12 -4 15 4 8 5 -5 15 -27 20 -48z"/>
 <path d="M1045 1376 l-30 -14 53 -1 c39 -1 53 2 50 12 -6 17 -38 19 -73 3z"/>
 <path d="M932 1314 c-24 -11 7 -32 64 -45 48 -11 57 -10 72 4 12 13 13 20 4 29 -12 12 -118 21 -140 12z"/>
 <path d="M703 1049 c-122 -36 -51 -279 80 -279 112 0 180 131 116 221 -35 50 -130 78 -196 58z"/>
 <path d="M1154 1036 c-55 -25 -73 -108 -38 -181 61 -130 244 -79 244 68 0 40 -5 53 -33 84 -29 31 -41 37 -88 40 -32 2 -66 -2 -85 -11z"/>
 <path d="M515 595 c5 -79 21 -129 50 -162 22 -26 22 -24 -5 32 -16 33 -34 89 -39 125 l-10 65 4 -60z"/>
 <path d="M1460 553 c0 -6 -16 -35 -35 -63 -20 -29 -29 -47 -20 -40 23 19 69 100 61 107 -3 4 -6 2 -6 -4z"/>
 <path d="M1430 378 c-15 -21 -17 -28 -6 -19 16 13 41 51 33 51 -2 0 -14 -15 -27 -32z"/>
 </g>
<g id="layer119" fill="#9ecc1b" stroke="none">
 <path d="M836 1988 c-2 -7 -19 -69 -39 -138 -49 -172 -61 -267 -42 -315 9 -20 20 -33 25 -30 6 3 10 -1 10 -9 0 -9 -4 -16 -8 -16 -10 0 -79 -67 -110 -108 -14 -18 -40 -77 -58 -130 -18 -53 -33 -91 -33 -84 -1 6 -12 12 -25 12 -28 0 -56 -33 -56 -65 0 -11 -10 -40 -22 -65 -24 -50 -24 -51 -27 -132 0 -32 -6 -58 -11 -58 -20 0 -22 30 -7 77 9 26 14 49 12 51 -7 7 -24 -36 -31 -76 -5 -33 -2 -44 15 -61 17 -17 26 -19 40 -12 23 13 56 92 42 100 -18 12 -31 60 -21 83 8 21 9 21 9 -8 1 -17 10 -39 20 -48 14 -13 21 -37 26 -84 22 -243 43 -321 102 -372 52 -46 77 -53 192 -51 58 0 134 -6 175 -14 192 -40 294 3 372 156 31 62 74 225 74 283 0 22 7 55 16 71 9 17 20 41 24 55 7 22 8 21 9 -12 1 -20 -6 -43 -14 -51 -11 -11 -12 -22 -4 -50 12 -46 33 -67 59 -60 33 9 42 36 30 90 -12 53 -27 76 -43 66 -6 -3 -7 -1 -3 6 4 6 3 17 -2 24 -6 7 -20 42 -32 80 -18 55 -26 68 -47 73 -15 4 -28 2 -32 -5 -4 -6 -18 22 -30 62 -40 124 -88 198 -157 243 -26 17 -35 68 -11 58 8 -3 18 6 25 21 15 33 -5 163 -49 319 -17 61 -33 117 -35 124 -2 7 -22 12 -53 12 -55 0 -54 1 -67 -96 -5 -46 -4 -53 16 -67 16 -11 20 -21 15 -36 -6 -19 -63 -71 -79 -71 -10 0 -67 53 -78 73 -7 14 -4 22 15 38 24 18 25 20 11 66 -8 25 -14 57 -14 70 0 21 -4 23 -45 23 -28 0 -47 -5 -49 -12z m144 -599 c19 -1 58 2 87 6 46 7 52 5 63 -14 15 -29 5 -73 -23 -99 -50 -47 -142 -41 -206 14 -22 20 -41 44 -41 54 0 25 38 51 65 44 11 -3 36 -5 55 -5z m-116 -338 c50 -31 80 -98 73 -163 -4 -28 -12 -56 -18 -64 -8 -10 -8 -14 0 -14 23 0 10 -30 -20 -46 -44 -22 -134 -23 -192 -1 -26 10 -45 23 -42 28 3 4 -3 26 -15 49 -11 22 -23 66 -26 97 -4 48 -2 64 15 91 12 18 31 37 44 42 37 16 142 5 181 -19z m434 -2 c56 -27 82 -69 82 -132 0 -53 -13 -85 -43 -106 -14 -10 -16 -15 -6 -21 22 -14 -117 -51 -164 -44 -54 9 -97 30 -97 49 0 17 14 19 40 5 16 -9 15 -3 -7 36 -47 83 -21 194 52 224 36 15 98 10 143 -11z m270 -132 c11 -39 7 -67 -9 -67 -5 0 -9 20 -9 44 0 24 -3 53 -6 63 -5 12 -4 15 4 8 5 -5 15 -27 20 -48z"/>
 <path d="M1035 1370 c-14 -6 -5 -9 34 -9 30 -1 51 2 48 6 -11 10 -60 12 -82 3z"/>
 <path d="M932 1314 c-24 -11 7 -32 64 -45 48 -11 57 -10 72 4 12 13 13 20 4 29 -12 12 -118 21 -140 12z"/>
 <path d="M703 1049 c-122 -36 -51 -279 80 -279 112 0 180 131 116 221 -35 50 -130 78 -196 58z"/>
 <path d="M1154 1036 c-55 -25 -73 -108 -38 -181 61 -130 244 -79 244 68 0 40 -5 53 -33 84 -29 31 -41 37 -88 40 -32 2 -66 -2 -85 -11z"/>
 </g>
<g id="layer120" fill="#d07250" stroke="none">
 <path d="M836 1988 c-2 -7 -19 -69 -39 -138 -49 -172 -61 -267 -42 -315 9 -20 20 -33 25 -30 6 3 10 -1 10 -9 0 -9 -4 -16 -8 -16 -10 0 -79 -67 -110 -108 -14 -18 -40 -77 -58 -130 -18 -53 -33 -91 -33 -84 -1 6 -12 12 -25 12 -28 0 -56 -33 -56 -65 0 -11 -10 -40 -22 -65 -24 -50 -24 -51 -27 -132 0 -32 -6 -58 -11 -58 -20 0 -22 30 -7 77 9 26 14 49 12 51 -7 7 -24 -36 -31 -76 -5 -33 -2 -44 15 -61 17 -17 26 -19 40 -12 23 13 56 92 42 100 -18 12 -31 60 -21 83 8 21 9 21 9 -8 1 -18 10 -39 21 -49 11 -10 20 -27 20 -37 0 -29 32 -18 41 14 7 26 19 45 76 116 20 25 27 27 95 27 114 0 162 -39 191 -156 l14 -54 44 0 c40 0 44 2 50 30 11 49 46 119 73 144 37 34 111 40 168 12 65 -31 117 -78 126 -114 11 -44 36 -46 53 -5 7 18 19 47 26 63 l12 30 0 -37 c1 -20 -6 -43 -14 -51 -11 -11 -12 -22 -4 -50 12 -46 33 -67 59 -60 33 9 42 36 30 90 -12 53 -27 76 -43 66 -6 -3 -7 -1 -3 6 4 6 3 17 -2 24 -6 7 -20 42 -32 80 -18 55 -26 68 -47 73 -15 4 -28 2 -32 -5 -4 -6 -18 22 -30 62 -40 124 -88 198 -157 243 -26 17 -35 68 -11 58 8 -3 18 6 25 21 15 33 -5 163 -49 319 -17 61 -33 117 -35 124 -2 7 -22 12 -53 12 -55 0 -54 1 -67 -96 -5 -46 -4 -53 16 -67 16 -11 20 -21 15 -36 -6 -19 -63 -71 -79 -71 -10 0 -67 53 -78 73 -7 14 -4 22 15 38 24 18 25 20 11 66 -8 25 -14 57 -14 70 0 21 -4 23 -45 23 -28 0 -47 -5 -49 -12z m144 -599 c19 -1 58 2 87 6 46 7 52 5 63 -14 15 -29 5 -73 -23 -99 -50 -47 -142 -41 -206 14 -22 20 -41 44 -41 54 0 25 38 51 65 44 11 -3 36 -5 55 -5z m588 -472 c11 -39 7 -67 -9 -67 -5 0 -9 20 -9 44 0 24 -3 53 -6 63 -5 12 -4 15 4 8 5 -5 15 -27 20 -48z"/>
 <path d="M1035 1370 c-14 -6 -5 -9 34 -9 30 -1 51 2 48 6 -11 10 -60 12 -82 3z"/>
 <path d="M932 1314 c-24 -11 7 -32 64 -45 48 -11 57 -10 72 4 12 13 13 20 4 29 -12 12 -118 21 -140 12z"/>
 <path d="M703 1049 c-122 -36 -51 -279 80 -279 112 0 180 131 116 221 -35 50 -130 78 -196 58z"/>
 <path d="M1154 1036 c-55 -25 -73 -108 -38 -181 61 -130 244 -79 244 68 0 40 -5 53 -33 84 -29 31 -41 37 -88 40 -32 2 -66 -2 -85 -11z"/>
 <path d="M1369 983 c15 -29 14 -109 -1 -136 -6 -12 -18 -28 -27 -36 -9 -7 -2 -5 14 5 43 25 54 44 55 89 0 29 -7 49 -26 70 -17 21 -22 23 -15 8z"/>
 <path d="M602 960 c-15 -25 -15 -90 1 -111 7 -8 25 -24 41 -34 l29 -19 -19 35 c-10 18 -23 60 -28 92 -10 51 -12 55 -24 37z"/>
 <path d="M1067 927 c-12 -30 -8 -61 10 -87 16 -24 16 -24 -2 -10 -11 9 -40 15 -72 16 -35 0 -58 5 -65 15 -8 12 -9 12 -5 -1 2 -8 -2 -23 -11 -32 -10 -12 -11 -18 -4 -18 7 0 12 -7 12 -15 0 -24 -59 -47 -124 -49 -72 -1 -159 36 -200 85 -14 16 -31 29 -38 29 -10 0 -9 3 2 10 8 5 11 12 7 17 -13 12 -27 -19 -27 -59 0 -65 21 -190 41 -244 21 -54 69 -106 118 -126 14 -6 73 -10 130 -9 58 0 134 -6 175 -14 101 -21 181 -19 232 6 88 42 150 140 190 297 25 100 32 172 13 140 -5 -10 -14 -18 -18 -18 -4 0 -26 -18 -49 -40 -52 -49 -152 -83 -215 -74 -81 13 -126 53 -77 69 17 5 18 9 8 28 -7 12 -14 40 -18 62 -4 30 -7 35 -13 22z"/>
 </g>
<g id="layer121" fill="#b0a85a" stroke="none">
 <path d="M836 1988 c-2 -7 -19 -69 -39 -138 -49 -174 -61 -267 -41 -316 12 -29 18 -34 25 -23 5 8 9 9 9 2 0 -7 13 -5 38 7 22 11 69 24 105 31 76 14 171 2 239 -31 30 -14 38 -15 38 -4 0 7 6 11 13 8 8 -3 18 6 25 21 15 33 -5 163 -49 319 -17 61 -33 117 -35 124 -2 7 -22 12 -53 12 -55 0 -54 1 -67 -96 -5 -46 -4 -53 16 -67 16 -11 20 -21 15 -36 -6 -19 -63 -71 -79 -71 -10 0 -67 53 -78 73 -7 14 -4 22 15 38 24 18 25 20 11 66 -8 25 -14 57 -14 70 0 21 -4 23 -45 23 -28 0 -47 -5 -49 -12z"/>
 <path d="M883 1526 c-61 -20 -137 -71 -183 -123 -44 -51 -64 -99 -121 -292 -43 -147 -50 -215 -22 -209 9 2 20 15 24 30 7 26 19 45 76 116 20 25 27 27 95 27 114 0 162 -39 191 -156 l14 -54 44 0 c40 0 44 2 50 30 11 49 46 119 73 144 37 34 111 40 168 12 65 -31 117 -78 126 -114 10 -40 38 -48 44 -13 5 25 -61 271 -103 381 -28 76 -110 160 -194 200 -50 24 -75 29 -150 32 -57 2 -105 -2 -132 -11z m97 -137 c19 -1 58 2 87 6 46 7 52 5 63 -14 15 -29 5 -73 -23 -99 -50 -47 -142 -41 -206 14 -22 20 -41 44 -41 54 0 25 38 51 65 44 11 -3 36 -5 55 -5z"/>
 <path d="M932 1314 c-24 -11 7 -32 64 -45 48 -11 57 -10 72 4 12 13 13 20 4 29 -12 12 -118 21 -140 12z"/>
 <path d="M527 1153 c-8 -10 -21 -38 -27 -63 -7 -25 -17 -54 -23 -65 -15 -26 -20 -57 -21 -122 -1 -53 -11 -64 -34 -41 -7 7 -12 9 -12 6 0 -4 7 -14 16 -22 26 -26 50 -19 69 20 16 34 16 38 0 75 -12 25 -15 47 -10 66 8 29 9 28 20 -21 3 -17 10 -25 15 -20 7 8 60 182 60 198 0 13 -38 5 -53 -11z"/>
 <path d="M1423 1153 c2 -10 15 -57 28 -105 13 -49 26 -88 30 -88 10 0 22 57 14 70 -3 5 -4 10 0 10 3 0 10 -12 16 -27 8 -21 6 -37 -6 -70 -22 -56 -7 -113 30 -113 12 0 28 6 34 14 10 12 9 14 -6 10 -17 -5 -19 -1 -15 30 2 20 -1 50 -7 67 -14 42 -7 49 13 12 8 -15 15 -23 16 -17 0 6 -8 22 -19 35 -27 35 -48 79 -56 119 -9 43 -31 70 -58 70 -14 0 -18 -5 -14 -17z"/>
 <path d="M703 1049 c-122 -36 -51 -279 80 -279 112 0 180 131 116 221 -35 50 -130 78 -196 58z"/>
 <path d="M1154 1036 c-55 -25 -73 -108 -38 -181 61 -130 244 -79 244 68 0 40 -5 53 -33 84 -29 31 -41 37 -88 40 -32 2 -66 -2 -85 -11z"/>
 <path d="M1369 983 c15 -29 14 -109 -1 -136 -6 -12 -18 -28 -27 -36 -9 -7 -2 -5 14 5 43 25 54 44 55 89 0 29 -7 49 -26 70 -17 21 -22 23 -15 8z"/>
 <path d="M602 960 c-15 -25 -15 -90 1 -111 7 -8 25 -24 41 -34 l29 -19 -19 35 c-10 18 -23 60 -28 92 -10 51 -12 55 -24 37z"/>
 <path d="M1067 927 c-12 -30 -8 -61 10 -87 16 -24 16 -24 -2 -10 -11 9 -40 15 -72 16 -35 0 -58 5 -65 15 -8 12 -9 12 -5 -1 2 -8 -2 -23 -11 -32 -10 -12 -11 -18 -4 -18 24 0 11 -30 -20 -47 -51 -27 -151 -23 -214 10 -28 14 -63 40 -77 57 -14 16 -32 30 -39 30 -10 0 -9 3 2 10 8 5 11 12 7 17 -32 32 -31 -142 2 -260 38 -138 95 -176 266 -177 61 0 139 -7 175 -15 96 -21 175 -19 227 6 78 38 143 135 182 272 24 82 38 191 21 165 -6 -10 -15 -18 -21 -18 -5 0 -23 -15 -39 -34 -63 -71 -211 -104 -287 -63 -37 20 -43 43 -13 52 17 5 18 9 8 28 -7 12 -14 40 -18 62 -4 30 -7 35 -13 22z"/>
 </g>
<g id="layer122" fill="#db9568" stroke="none">
 <path d="M836 1988 c-2 -7 -19 -69 -39 -138 -49 -174 -61 -267 -41 -316 12 -29 18 -34 25 -23 5 8 9 9 9 2 0 -7 13 -5 38 7 22 11 69 24 105 31 76 14 171 2 239 -31 30 -14 38 -15 38 -4 0 7 6 11 13 8 8 -3 18 6 25 21 15 33 -5 163 -49 319 -17 61 -33 117 -35 124 -2 7 -22 12 -53 12 -55 0 -54 1 -67 -96 -5 -46 -4 -53 16 -67 16 -11 20 -21 15 -36 -6 -19 -63 -71 -79 -71 -10 0 -67 53 -78 73 -7 14 -4 22 15 38 24 18 25 20 11 66 -8 25 -14 57 -14 70 0 21 -4 23 -45 23 -28 0 -47 -5 -49 -12z"/>
 <path d="M883 1526 c-106 -34 -207 -128 -243 -225 -43 -113 -101 -327 -98 -360 4 -44 26 -53 34 -13 3 17 17 43 30 59 12 15 34 42 48 58 23 28 28 30 98 30 95 0 136 -24 173 -100 14 -30 25 -65 25 -78 0 -18 7 -27 25 -31 41 -10 75 3 75 29 0 32 43 115 74 144 41 39 112 40 183 5 70 -36 108 -73 117 -114 6 -34 25 -36 36 -4 8 20 -56 260 -101 379 -28 76 -110 160 -194 200 -50 24 -75 29 -150 32 -57 2 -105 -2 -132 -11z m112 -139 c11 1 43 5 72 9 46 6 52 4 63 -15 28 -54 -29 -131 -98 -131 -20 0 -53 5 -74 10 -41 12 -98 65 -98 91 0 29 40 50 80 42 19 -4 44 -6 55 -6z"/>
 <path d="M932 1314 c-24 -11 7 -32 64 -45 48 -11 57 -10 72 4 12 13 13 20 4 29 -12 12 -118 21 -140 12z"/>
 <path d="M527 1153 c-8 -10 -21 -38 -27 -63 -7 -25 -17 -54 -23 -65 -15 -26 -20 -57 -21 -122 -1 -53 -11 -64 -34 -41 -7 7 -12 9 -12 6 0 -4 7 -14 16 -22 26 -26 50 -19 69 20 16 34 16 38 0 75 -12 25 -15 47 -10 66 8 29 9 28 20 -21 3 -17 10 -25 15 -20 7 8 60 182 60 198 0 13 -38 5 -53 -11z"/>
 <path d="M1423 1153 c2 -10 15 -57 28 -105 13 -49 26 -88 30 -88 10 0 22 57 14 70 -3 5 -4 10 0 10 3 0 10 -12 16 -27 8 -21 6 -37 -6 -70 -22 -56 -7 -113 30 -113 12 0 28 6 34 14 10 12 9 14 -6 10 -17 -5 -19 -1 -15 30 2 20 -1 50 -7 67 -14 42 -7 49 13 12 8 -15 15 -23 16 -17 0 6 -8 22 -19 35 -27 35 -48 79 -56 119 -9 43 -31 70 -58 70 -14 0 -18 -5 -14 -17z"/>
 <path d="M703 1049 c-122 -36 -51 -279 80 -279 112 0 180 131 116 221 -35 50 -130 78 -196 58z"/>
 <path d="M1154 1036 c-55 -25 -73 -108 -38 -181 61 -130 244 -79 244 68 0 40 -5 53 -33 84 -29 31 -41 37 -88 40 -32 2 -66 -2 -85 -11z"/>
 <path d="M1378 935 c5 -55 -3 -88 -24 -109 -8 -9 -11 -16 -6 -16 6 0 22 14 36 31 31 36 34 87 8 119 -17 21 -17 21 -14 -25z"/>
 <path d="M602 953 c-21 -38 -14 -80 17 -115 32 -36 50 -34 30 4 -7 12 -18 48 -24 78 -10 50 -12 53 -23 33z"/>
 <path d="M1066 908 c-10 -34 -2 -60 24 -76 20 -12 21 -12 9 10 -7 13 -16 39 -19 58 -7 35 -7 35 -14 8z"/>
 <path d="M1451 873 c-1 -7 -7 -13 -14 -13 -7 0 -28 -15 -46 -34 -71 -73 -212 -104 -288 -63 -32 17 -45 47 -21 47 6 0 3 8 -8 18 -26 24 -122 24 -148 0 -11 -10 -14 -18 -8 -18 24 0 11 -30 -20 -47 -22 -12 -54 -17 -98 -17 -74 1 -145 31 -194 83 -51 53 -60 44 -52 -53 9 -110 36 -206 71 -252 44 -57 92 -74 216 -74 59 0 142 -7 185 -16 111 -23 192 -16 246 22 82 57 149 187 179 347 5 32 8 64 5 70 -3 9 -5 9 -5 0z"/>
 </g>
<g id="layer123" fill="#a6a19f" stroke="none">
 <path d="M836 1988 c-2 -7 -19 -69 -39 -138 -50 -175 -61 -267 -40 -317 16 -40 18 -39 37 20 5 16 22 18 216 17 l210 -1 0 -25 c0 -31 14 -31 28 1 15 33 -5 164 -49 319 -17 61 -33 117 -35 124 -2 7 -22 12 -53 12 -55 0 -54 1 -67 -96 -5 -46 -4 -53 16 -67 16 -11 20 -21 15 -36 -6 -19 -63 -71 -79 -71 -10 0 -67 53 -78 73 -7 14 -4 22 15 38 24 18 25 20 11 66 -8 25 -14 57 -14 70 0 21 -4 23 -45 23 -28 0 -47 -5 -49 -12z"/>
 <path d="M895 1527 c-109 -36 -187 -99 -233 -185 -34 -64 -122 -354 -122 -402 0 -46 18 -45 40 2 11 24 38 63 59 87 36 42 42 45 98 49 112 8 178 -43 214 -165 11 -40 14 -43 48 -43 34 0 37 3 53 48 26 70 68 130 102 142 93 32 222 -23 265 -115 23 -49 41 -51 41 -5 0 48 -89 340 -123 403 -61 115 -183 189 -322 194 -48 2 -96 -2 -120 -10z m236 -144 c19 -19 2 -79 -32 -107 -50 -43 -150 -31 -208 24 -34 33 -39 55 -17 79 12 13 38 16 130 16 75 0 119 -4 127 -12z"/>
 <path d="M932 1314 c-24 -11 7 -32 64 -45 48 -11 57 -10 72 4 12 13 13 20 4 29 -12 12 -118 21 -140 12z"/>
 <path d="M527 1152 c-9 -10 -20 -34 -23 -53 -8 -39 -29 -85 -53 -114 -15 -19 -15 -19 3 -5 18 14 18 13 10 -10 -5 -14 -9 -46 -9 -72 0 -33 -4 -48 -13 -48 -7 0 -10 -4 -7 -10 14 -22 43 -9 60 26 16 34 16 39 1 71 -18 37 -20 71 -7 91 5 9 10 0 15 -29 9 -55 19 -43 45 56 12 44 24 88 27 98 7 23 -28 23 -49 -1z"/>
 <path d="M1423 1153 c3 -10 15 -55 28 -100 12 -46 26 -83 30 -83 4 0 9 17 11 38 l3 37 14 -27 c12 -24 12 -33 -2 -69 -9 -22 -14 -46 -12 -52 2 -7 6 -24 9 -39 5 -21 12 -28 31 -28 13 0 27 5 30 10 3 6 0 10 -8 10 -11 0 -15 11 -14 38 1 20 -2 52 -7 71 -6 26 -5 32 4 26 7 -4 3 6 -9 22 -12 16 -27 50 -32 74 -6 24 -17 54 -25 67 -18 27 -59 31 -51 5z"/>
 <path d="M703 1049 c-122 -36 -51 -279 80 -279 112 0 180 131 116 221 -35 50 -130 78 -196 58z"/>
 <path d="M1154 1036 c-55 -25 -73 -108 -38 -181 61 -130 244 -79 244 68 0 40 -5 53 -33 84 -29 31 -41 37 -88 40 -32 2 -66 -2 -85 -11z"/>
 <path d="M1378 935 c5 -55 -3 -88 -24 -109 -8 -9 -11 -16 -6 -16 6 0 22 14 36 31 31 36 34 87 8 119 -17 21 -17 21 -14 -25z"/>
 <path d="M602 953 c-21 -39 -15 -82 18 -115 34 -34 48 -32 29 4 -7 12 -18 48 -24 78 -10 50 -12 53 -23 33z"/>
 <path d="M1067 917 c-13 -33 -8 -53 19 -78 l27 -24 -13 25 c-8 14 -16 41 -20 60 -4 27 -7 31 -13 17z"/>
 <path d="M1422 850 c-18 -11 -32 -24 -32 -29 0 -5 -30 -25 -67 -43 -56 -27 -79 -33 -133 -33 -76 0 -125 23 -117 55 7 29 -18 43 -78 44 -57 1 -67 -6 -69 -49 -3 -54 -154 -68 -241 -23 -27 14 -65 40 -82 57 -50 47 -57 42 -49 -41 10 -107 26 -177 51 -228 45 -90 91 -110 247 -110 63 -1 140 -7 173 -15 77 -19 163 -19 208 0 103 43 176 163 213 354 8 41 13 75 11 77 -2 2 -17 -6 -35 -16z"/>
 </g>
<g id="layer124" fill="#e59375" stroke="none">
 <path d="M830 1958 c-6 -24 -22 -79 -35 -123 -13 -44 -31 -121 -39 -172 -14 -83 -14 -95 0 -130 17 -40 19 -39 38 20 5 16 22 18 216 17 l210 -1 0 -25 c0 -13 4 -24 9 -24 13 0 34 58 27 76 -4 9 -11 49 -16 87 -6 39 -21 107 -35 151 -13 45 -29 100 -35 124 l-11 42 -48 0 -49 0 -12 -70 -12 -71 27 -25 28 -25 -39 -40 c-21 -21 -45 -39 -54 -39 -16 0 -90 69 -90 84 0 4 10 16 21 25 21 16 21 21 10 72 -22 93 -19 89 -61 89 -38 0 -40 -2 -50 -42z"/>
 <path d="M895 1527 c-109 -36 -187 -99 -233 -185 -34 -64 -122 -354 -122 -402 0 -46 18 -45 40 2 11 24 38 63 59 87 36 42 42 45 98 49 113 8 172 -36 210 -155 16 -52 18 -53 55 -53 24 0 38 5 38 13 0 7 16 45 35 85 28 60 41 76 69 87 95 40 230 -14 275 -110 23 -49 41 -51 41 -5 0 48 -89 340 -123 403 -61 115 -183 189 -322 194 -48 2 -96 -2 -120 -10z m236 -144 c19 -19 2 -79 -32 -107 -23 -19 -42 -26 -75 -26 -104 0 -199 83 -151 132 18 17 240 19 258 1z"/>
 <path d="M935 1311 c-18 -8 -16 -11 18 -25 21 -9 54 -17 73 -18 38 -1 64 16 48 32 -13 13 -115 21 -139 11z"/>
 <path d="M527 1152 c-9 -10 -20 -34 -23 -53 -8 -39 -29 -85 -53 -114 -15 -19 -15 -19 3 -5 18 14 18 13 10 -10 -5 -14 -9 -46 -9 -72 0 -33 -4 -48 -13 -48 -7 0 -10 -4 -7 -10 14 -22 43 -9 60 26 16 34 16 39 1 71 -18 37 -20 71 -7 91 5 9 10 0 15 -29 9 -55 19 -43 45 56 12 44 24 88 27 98 7 23 -28 23 -49 -1z"/>
 <path d="M1423 1153 c3 -10 15 -55 28 -100 12 -46 26 -83 30 -83 4 0 9 17 11 38 l3 37 14 -27 c12 -24 12 -33 -2 -69 -9 -22 -14 -46 -12 -52 2 -7 6 -24 9 -39 5 -21 12 -28 31 -28 13 0 27 5 30 10 3 6 0 10 -8 10 -11 0 -15 11 -14 38 1 20 -2 52 -7 71 -6 26 -5 32 4 26 7 -4 3 6 -9 22 -12 16 -27 50 -32 74 -6 24 -17 54 -25 67 -18 27 -59 31 -51 5z"/>
 <path d="M675 1027 c-80 -69 0 -257 110 -257 100 0 167 119 119 211 -33 64 -175 93 -229 46z"/>
 <path d="M1178 1043 c-88 -14 -105 -159 -27 -229 79 -72 209 -5 209 108 0 37 -29 92 -58 107 -24 13 -88 20 -124 14z"/>
 <path d="M1378 920 c3 -44 -1 -68 -13 -88 -14 -24 -13 -23 14 6 36 38 41 87 14 121 -18 22 -18 21 -15 -39z"/>
 <path d="M602 953 c-26 -47 -7 -109 39 -134 19 -10 20 -9 9 11 -6 12 -17 49 -24 83 -11 56 -14 60 -24 40z"/>
 <path d="M1067 917 c-13 -33 -7 -53 20 -78 15 -13 22 -17 15 -8 -7 9 -16 36 -20 60 -6 33 -10 39 -15 26z"/>
 <path d="M1422 850 c-18 -11 -32 -24 -32 -29 0 -5 -30 -25 -67 -43 -56 -27 -79 -33 -133 -33 -76 0 -125 23 -117 55 7 29 -18 43 -78 44 -57 1 -67 -6 -69 -49 -3 -54 -154 -68 -241 -23 -27 14 -65 40 -82 57 -50 47 -57 42 -49 -41 10 -107 26 -177 51 -228 45 -90 91 -110 247 -110 63 -1 140 -7 173 -15 77 -19 163 -19 208 0 103 43 176 163 213 354 8 41 13 75 11 77 -2 2 -17 -6 -35 -16z"/>
 </g>
<g id="layer125" fill="#60bdd6" stroke="none">
 <path d="M830 1958 c-6 -24 -22 -79 -35 -123 -13 -44 -31 -121 -39 -172 -14 -84 -14 -94 1 -130 l16 -38 12 40 c9 34 19 44 61 65 43 22 62 25 154 25 93 0 111 -3 163 -27 47 -22 57 -31 57 -52 0 -15 4 -26 9 -26 13 0 34 58 27 76 -4 9 -11 49 -16 87 -6 39 -21 107 -35 151 -13 45 -29 100 -35 124 l-11 42 -48 0 -49 0 -12 -70 -12 -71 27 -25 28 -25 -39 -40 c-21 -21 -45 -39 -54 -39 -16 0 -90 69 -90 84 0 4 10 16 21 25 21 16 21 21 10 72 -22 93 -19 89 -61 89 -38 0 -40 -2 -50 -42z"/>
 <path d="M944 1529 c-104 -14 -224 -102 -276 -202 -10 -21 -39 -108 -63 -193 -63 -219 -72 -292 -24 -189 11 24 40 65 63 90 41 44 44 45 102 45 111 -1 164 -42 201 -157 16 -52 18 -53 55 -53 24 0 38 5 38 13 0 7 15 45 34 84 25 51 43 76 65 87 88 46 234 -12 282 -111 38 -80 34 -26 -10 137 -56 202 -76 253 -125 313 -84 104 -211 154 -342 136z m184 -142 c16 -11 15 -52 -2 -86 -30 -57 -118 -68 -204 -25 -44 22 -52 31 -58 61 -5 27 -3 39 8 47 17 13 237 15 256 3z m-67 -198 c27 1 47 -23 29 -34 -6 -4 -10 0 -10 8 0 9 -12 15 -32 16 -83 3 -123 0 -130 -12 -5 -8 -8 -7 -8 5 0 18 54 29 100 20 14 -3 37 -4 51 -3z"/>
 <path d="M935 1311 c-18 -8 -16 -11 18 -25 21 -9 54 -17 73 -18 38 -1 64 16 48 32 -13 13 -115 21 -139 11z"/>
 <path d="M530 1150 c-18 -18 -25 -39 -21 -63 1 -4 -4 -17 -10 -29 -6 -11 -7 -18 -1 -14 14 8 23 -20 16 -52 l-5 -27 14 25 c19 32 25 65 12 67 -6 0 -9 -3 -7 -9 1 -5 -2 -7 -8 -3 -17 10 -11 25 14 36 29 13 54 89 30 89 -8 0 -23 -9 -34 -20z"/>
 <path d="M1432 1130 c6 -24 18 -42 29 -45 21 -7 27 -27 7 -22 -17 3 -12 -34 9 -71 l15 -27 -6 27 c-7 32 2 60 17 51 6 -4 0 11 -13 32 -13 21 -18 35 -12 31 20 -12 14 18 -8 42 -34 36 -50 29 -38 -18z"/>
 <path d="M675 1027 c-80 -69 0 -257 110 -257 100 0 167 119 119 211 -33 64 -175 93 -229 46z"/>
 <path d="M1178 1043 c-88 -14 -105 -159 -27 -229 79 -72 209 -5 209 108 0 37 -29 92 -58 107 -24 13 -88 20 -124 14z"/>
 <path d="M463 950 c-12 -66 -8 -96 11 -83 7 5 3 0 -7 -10 -11 -10 -17 -21 -13 -25 4 -4 16 3 26 16 17 20 17 25 4 50 -7 15 -14 34 -13 42 0 8 6 2 15 -15 12 -25 13 -26 8 -5 -3 14 -9 40 -12 59 -7 32 -8 30 -19 -29z"/>
 <path d="M1521 987 c-1 -10 -8 -31 -16 -47 -9 -17 -11 -31 -5 -35 5 -3 14 9 19 27 5 18 10 25 10 15 1 -10 -6 -31 -14 -48 -24 -46 4 -85 43 -60 10 6 5 10 -17 14 -17 4 -31 12 -31 18 0 8 4 8 15 -1 13 -11 15 -6 14 36 -1 50 -16 117 -18 81z"/>
 <path d="M1378 920 c3 -44 -1 -68 -13 -88 -14 -24 -13 -23 14 6 36 38 41 87 14 121 -18 22 -18 21 -15 -39z"/>
 <path d="M602 953 c-26 -47 -7 -109 39 -134 19 -10 20 -9 9 11 -6 12 -17 49 -24 83 -11 56 -14 60 -24 40z"/>
 <path d="M1067 917 c-13 -33 -8 -53 20 -78 15 -13 21 -16 13 -6 -8 10 -16 37 -20 60 -4 31 -7 37 -13 24z"/>
 <path d="M1428 854 c-15 -8 -32 -23 -38 -33 -15 -29 -110 -71 -172 -78 -84 -8 -175 29 -148 62 17 21 -17 39 -73 40 -55 0 -85 -19 -66 -41 7 -8 1 -19 -17 -33 -72 -57 -223 -31 -307 53 -53 53 -60 48 -52 -36 17 -177 49 -260 116 -305 40 -27 50 -28 193 -34 83 -4 167 -12 186 -18 59 -19 140 -13 196 13 80 37 146 136 183 278 20 75 34 148 29 148 -2 -1 -15 -7 -30 -16z"/>
 </g>
<g id="layer126" fill="#f5b096" stroke="none">
 <path d="M830 1958 c-6 -24 -22 -79 -35 -123 -13 -44 -31 -121 -39 -172 -14 -84 -14 -94 1 -130 l16 -38 12 40 c9 34 19 44 61 65 43 22 62 25 154 25 93 0 111 -3 163 -27 47 -22 57 -31 57 -52 0 -15 4 -26 9 -26 13 0 34 58 27 76 -4 9 -11 49 -16 87 -6 39 -21 107 -35 151 -13 45 -29 100 -35 124 l-11 42 -48 0 -49 0 -12 -70 -12 -71 27 -25 28 -25 -39 -40 c-21 -21 -45 -39 -54 -39 -16 0 -90 69 -90 84 0 4 10 16 21 25 21 16 21 21 10 72 -22 93 -19 89 -61 89 -38 0 -40 -2 -50 -42z"/>
 <path d="M944 1529 c-104 -14 -224 -102 -276 -202 -10 -21 -39 -108 -63 -193 -63 -219 -72 -292 -24 -189 11 24 40 65 63 90 41 44 44 45 102 45 111 -1 164 -42 201 -157 16 -52 18 -53 55 -53 24 0 38 5 38 13 0 7 15 45 34 84 25 51 43 76 65 87 88 46 234 -12 282 -111 38 -80 34 -26 -10 137 -56 202 -76 253 -125 313 -84 104 -211 154 -342 136z m184 -142 c16 -11 15 -52 -2 -86 -30 -57 -118 -68 -204 -25 -44 22 -52 31 -58 61 -5 27 -3 39 8 47 17 13 237 15 256 3z m-67 -198 c27 1 47 -23 29 -34 -6 -4 -10 0 -10 8 0 9 -12 15 -32 16 -83 3 -123 0 -130 -12 -5 -8 -8 -7 -8 5 0 18 54 29 100 20 14 -3 37 -4 51 -3z"/>
 <path d="M935 1311 c-18 -8 -16 -11 18 -25 21 -9 54 -17 73 -18 38 -1 64 16 48 32 -13 13 -115 21 -139 11z"/>
 <path d="M530 1150 c-18 -18 -25 -39 -21 -63 1 -4 -4 -17 -10 -29 -6 -11 -7 -18 -1 -14 14 8 23 -20 16 -52 l-5 -27 14 25 c19 32 25 65 12 67 -6 0 -9 -3 -7 -9 1 -5 -2 -7 -8 -3 -17 10 -11 25 14 36 29 13 54 89 30 89 -8 0 -23 -9 -34 -20z"/>
 <path d="M1432 1130 c6 -24 18 -42 29 -45 21 -7 27 -27 7 -22 -17 3 -12 -34 9 -71 l15 -27 -6 27 c-7 32 2 60 17 51 6 -4 0 11 -13 32 -13 21 -18 35 -12 31 20 -12 14 18 -8 42 -34 36 -50 29 -38 -18z"/>
 <path d="M675 1027 c-80 -69 0 -257 110 -257 100 0 167 119 119 211 -33 64 -175 93 -229 46z m145 -112 c26 -31 -9 -62 -55 -51 -51 13 -39 66 15 66 15 0 33 -7 40 -15z"/>
 <path d="M1178 1043 c-88 -14 -105 -159 -27 -229 79 -72 209 -5 209 108 0 37 -29 92 -58 107 -24 13 -88 20 -124 14z m70 -125 c31 -31 -9 -71 -53 -54 -15 5 -21 47 -8 59 11 11 48 8 61 -5z"/>
 <path d="M463 950 c-12 -66 -8 -96 11 -83 7 5 3 0 -7 -10 -11 -10 -17 -21 -13 -25 4 -4 16 3 26 16 17 20 17 25 4 50 -7 15 -14 34 -13 42 0 8 6 2 15 -15 12 -25 13 -26 8 -5 -3 14 -9 40 -12 59 -7 32 -8 30 -19 -29z"/>
 <path d="M1521 987 c-1 -10 -8 -31 -16 -47 -9 -17 -11 -31 -5 -35 5 -3 14 9 19 27 5 18 10 25 10 15 1 -10 -6 -31 -14 -48 -24 -46 4 -85 43 -60 10 6 5 10 -17 14 -17 4 -31 12 -31 18 0 8 4 8 15 -1 13 -11 15 -6 14 36 -1 50 -16 117 -18 81z"/>
 <path d="M1378 920 c3 -44 -1 -68 -13 -88 -14 -24 -13 -23 14 6 36 38 41 87 14 121 -18 22 -18 21 -15 -39z"/>
 <path d="M602 953 c-26 -47 -7 -109 39 -134 19 -10 20 -9 9 11 -6 12 -17 49 -24 83 -11 56 -14 60 -24 40z"/>
 <path d="M1067 917 c-13 -33 -8 -53 20 -78 15 -13 21 -16 13 -6 -8 10 -16 37 -20 60 -4 31 -7 37 -13 24z"/>
 <path d="M1428 854 c-15 -8 -32 -23 -38 -33 -15 -29 -110 -71 -172 -78 -84 -8 -175 29 -148 62 17 21 -17 39 -73 40 -55 0 -85 -19 -66 -41 7 -8 1 -19 -17 -33 -72 -57 -223 -31 -307 53 -53 53 -60 48 -52 -36 17 -177 49 -260 116 -305 40 -27 50 -28 193 -34 83 -4 167 -12 186 -18 59 -19 140 -13 196 13 80 37 146 136 183 278 20 75 34 148 29 148 -2 -1 -15 -7 -30 -16z"/>
 </g>
<g id="layer127" fill="#f0b49e" stroke="none">
 <path d="M830 1958 c-6 -24 -22 -79 -35 -123 -13 -44 -31 -121 -39 -172 -14 -81 -14 -95 -1 -127 9 -20 17 -36 19 -36 3 0 10 24 16 54 12 60 31 82 105 119 28 14 59 32 70 41 20 14 19 15 -17 53 -21 21 -38 42 -38 47 0 4 10 16 21 25 21 16 21 21 10 72 -22 93 -19 89 -61 89 -38 0 -40 -2 -50 -42z"/>
 <path d="M1050 1930 l-12 -71 27 -25 28 -25 -38 -39 c-20 -21 -34 -43 -30 -49 3 -6 34 -25 68 -42 82 -41 116 -74 123 -121 4 -21 10 -38 14 -38 13 0 33 59 26 76 -4 9 -11 49 -16 87 -6 39 -21 107 -35 151 -13 45 -29 100 -35 124 l-11 42 -48 0 -49 0 -12 -70z"/>
 <path d="M935 1311 c-18 -8 -16 -11 18 -25 21 -9 54 -17 73 -18 38 -1 64 16 48 32 -13 13 -115 21 -139 11z"/>
 <path d="M937 1237 c-9 -11 -17 -17 -17 -12 0 19 -32 -50 -34 -75 -1 -14 5 -38 13 -55 17 -32 41 -61 41 -49 0 3 6 2 13 -4 21 -18 65 -22 78 -6 6 7 15 12 19 9 4 -2 20 9 35 25 16 17 25 30 21 30 -5 0 -4 6 1 13 18 24 0 90 -32 117 -9 8 -29 16 -44 17 -14 2 -37 5 -51 7 -17 3 -31 -2 -43 -17z m156 -54 c11 -6 9 -33 -3 -33 -5 0 -10 6 -10 13 0 8 -23 12 -80 13 -66 1 -80 -2 -80 -15 0 -12 -3 -12 -12 -3 -27 27 30 43 122 34 30 -2 58 -6 63 -9z m-64 -95 c-27 -23 -41 -23 -69 0 -22 18 -22 18 34 18 56 -1 57 -1 35 -18z"/>
 <path d="M675 1027 c-80 -69 0 -257 110 -257 100 0 167 119 119 211 -33 64 -175 93 -229 46z m145 -112 c26 -31 -9 -62 -55 -51 -51 13 -39 66 15 66 15 0 33 -7 40 -15z"/>
 <path d="M1178 1043 c-88 -14 -105 -159 -27 -229 79 -72 209 -5 209 108 0 37 -29 92 -58 107 -24 13 -88 20 -124 14z m70 -125 c31 -31 -9 -71 -53 -54 -15 5 -21 47 -8 59 11 11 48 8 61 -5z"/>
 <path d="M1378 920 c3 -44 -1 -68 -13 -88 -14 -24 -13 -23 14 6 36 38 41 87 14 121 -18 22 -18 21 -15 -39z"/>
 <path d="M601 945 c-21 -52 -3 -101 47 -130 12 -6 12 -3 2 15 -6 12 -17 49 -25 83 -13 62 -13 62 -24 32z"/>
 <path d="M1067 907 c-8 -30 2 -56 30 -78 17 -13 17 -13 4 4 -8 10 -18 37 -21 60 -5 40 -6 41 -13 14z"/>
 <path d="M975 730 c-3 -6 -10 -8 -14 -6 -4 3 -21 -8 -36 -24 -16 -17 -25 -30 -21 -30 5 0 4 -6 -2 -12 -14 -19 -5 -59 20 -85 28 -30 76 -54 84 -42 3 5 9 7 14 4 5 -3 11 -1 15 5 4 6 10 8 14 5 15 -9 47 40 50 76 2 38 -27 103 -47 105 -7 1 -13 2 -14 4 -11 8 -58 8 -63 0z"/>
 </g>
<g id="layer128" fill="#d7d0c5" stroke="none">
 <path d="M830 1958 c-6 -24 -22 -79 -35 -123 -13 -44 -31 -121 -39 -172 -14 -83 -14 -95 0 -130 l17 -38 16 60 c9 33 20 65 23 71 4 5 36 25 73 43 86 44 97 63 56 105 -37 38 -37 43 -10 65 21 16 21 21 10 72 -22 93 -19 89 -61 89 -38 0 -40 -2 -50 -42z"/>
 <path d="M1050 1930 l-12 -71 27 -25 28 -25 -37 -38 c-20 -20 -36 -39 -36 -42 0 -3 30 -21 66 -40 90 -45 122 -77 130 -128 4 -22 10 -41 14 -41 13 0 33 59 26 76 -4 9 -11 49 -16 87 -6 39 -21 107 -35 151 -13 45 -29 100 -35 124 l-11 42 -48 0 -49 0 -12 -70z"/>
 <path d="M935 1311 c-18 -8 -16 -11 18 -25 21 -9 54 -17 73 -18 38 -1 64 16 48 32 -13 13 -115 21 -139 11z"/>
 <path d="M675 1027 c-80 -69 0 -257 110 -257 100 0 167 119 119 211 -33 64 -175 93 -229 46z m145 -112 c26 -31 -9 -62 -55 -51 -51 13 -39 66 15 66 15 0 33 -7 40 -15z"/>
 <path d="M1178 1043 c-88 -14 -105 -159 -27 -229 79 -72 209 -5 209 108 0 37 -29 92 -58 107 -24 13 -88 20 -124 14z m70 -125 c31 -31 -9 -71 -53 -54 -15 5 -21 47 -8 59 11 11 48 8 61 -5z"/>
 <path d="M1378 921 c2 -35 -1 -69 -9 -83 -11 -20 -11 -22 3 -10 39 31 46 94 16 135 -11 15 -13 9 -10 -42z"/>
 </g>
<g id="layer129" fill="#f8f8f7" stroke="none">
 <path d="M836 1975 c-4 -14 -4 -31 0 -37 4 -5 3 -13 -2 -17 -11 -8 -49 -120 -63 -186 -32 -156 -32 -159 -15 -201 18 -42 19 -41 29 27 7 56 32 86 98 120 26 13 56 31 67 39 20 15 20 16 -20 57 -37 39 -52 61 -32 49 4 -2 18 4 31 13 23 17 23 20 11 72 -21 93 -18 89 -60 89 -32 0 -39 -4 -44 -25z"/>
 <path d="M1050 1933 l-11 -68 30 -27 31 -28 -40 -36 c-22 -20 -38 -40 -35 -44 3 -5 38 -24 79 -43 86 -42 116 -74 116 -128 0 -45 12 -50 29 -13 9 20 9 41 0 87 -21 112 -40 186 -59 229 -10 23 -16 46 -14 50 3 4 0 8 -6 8 -7 0 -9 7 -6 16 3 8 3 26 0 40 -5 21 -12 24 -54 24 l-48 0 -12 -67z"/>
 <path d="M950 1309 l-35 -6 38 -17 c47 -21 122 -18 122 4 0 18 -70 28 -125 19z"/>
 <path d="M677 1030 c-49 -38 -45 -124 8 -200 15 -21 40 -44 56 -50 117 -49 234 113 152 211 -34 40 -79 59 -141 59 -35 0 -57 -6 -75 -20z m143 -115 c26 -31 -9 -62 -55 -51 -51 13 -39 66 15 66 15 0 33 -7 40 -15z"/>
 <path d="M1137 1020 c-52 -41 -48 -141 8 -197 28 -28 40 -33 83 -33 55 0 92 22 117 70 29 55 12 130 -37 164 -34 24 -138 21 -171 -4z m111 -102 c31 -31 -9 -71 -53 -54 -15 5 -21 47 -8 59 11 11 48 8 61 -5z"/>
 </g>

</svg>