<!DOCTYPE svg PUBLIC "-//W3C//DTD SVG 20010904//EN" "http://www.w3.org/TR/2001/REC-SVG-20010904/DTD/svg10.dtd">
<svg version="1.0" xmlns="http://www.w3.org/2000/svg" width="200px" height="200px" viewBox="0 0 2000 2000" preserveAspectRatio="xMidYMid meet">
<g id="layer101" fill="#f8f8f7" stroke="none">
 <path d="M135 1953 c3 -27 18 -74 33 -107 32 -72 72 -100 176 -121 42 -9 135 -36 208 -60 73 -25 134 -45 135 -45 12 0 56 -55 69 -85 l16 -38 -45 -43 c-24 -23 -58 -49 -74 -58 -23 -11 -32 -24 -36 -51 -3 -20 -16 -62 -28 -93 -17 -43 -30 -61 -53 -72 -25 -12 -35 -27 -52 -80 -12 -36 -34 -85 -49 -108 -18 -28 -30 -61 -33 -94 -4 -47 -3 -53 23 -74 26 -21 27 -23 16 -73 -15 -73 -14 -199 4 -256 21 -71 80 -151 134 -182 25 -15 70 -53 99 -84 32 -35 75 -69 110 -86 51 -25 67 -28 157 -28 79 1 119 6 194 28 224 67 342 165 387 322 13 47 16 87 12 200 l-5 142 28 10 c51 20 49 108 -5 188 -14 20 -30 53 -36 73 -23 74 -32 90 -59 101 -28 12 -66 93 -78 166 -4 27 -13 40 -37 52 -17 9 -40 25 -51 37 -11 12 -32 31 -48 43 l-27 21 22 39 c12 21 32 48 43 59 23 25 255 105 371 129 104 21 144 49 176 121 15 33 30 80 33 107 l7 47 -872 0 -872 0 7 -47z"/>
 </g>
<g id="layer102" fill="#d7d0c5" stroke="none">
 <path d="M135 1953 c3 -27 18 -74 33 -107 32 -72 72 -100 176 -121 76 -16 313 -92 353 -113 12 -7 24 -17 26 -24 9 -21 26 12 32 62 10 77 59 254 75 270 3 3 6 22 7 43 l2 37 -356 0 -355 0 7 -47z"/>
 <path d="M923 1983 c3 -10 11 -42 17 -72 12 -52 12 -55 -11 -72 -13 -9 -27 -15 -31 -13 -20 12 -5 -10 32 -49 40 -41 40 -42 20 -57 -11 -8 -41 -26 -67 -40 -27 -13 -56 -32 -66 -42 -21 -21 -37 -69 -37 -108 0 -28 -75 -106 -128 -134 -22 -11 -31 -24 -35 -51 -3 -20 -16 -62 -28 -93 -17 -43 -30 -61 -53 -72 -25 -12 -35 -27 -52 -80 -12 -36 -34 -85 -49 -108 -18 -28 -30 -61 -33 -94 -4 -47 -3 -53 23 -74 26 -21 27 -23 16 -73 -15 -73 -14 -199 4 -256 21 -71 80 -151 134 -182 25 -15 70 -53 99 -84 32 -35 75 -69 110 -86 51 -25 67 -28 157 -28 79 1 119 6 194 28 224 67 342 165 387 322 13 47 16 87 12 200 l-5 142 28 10 c51 20 49 108 -5 188 -14 20 -30 53 -36 73 -23 74 -32 90 -59 101 -28 12 -66 93 -78 166 -5 29 -13 40 -44 56 -22 11 -39 23 -39 27 0 5 -17 21 -38 37 -36 27 -39 33 -41 80 -2 67 -22 93 -111 137 -40 21 -77 41 -82 46 -5 5 9 25 32 46 l41 37 -31 26 c-27 22 -31 31 -26 60 3 18 9 49 12 68 l6 35 -72 0 c-63 0 -71 -2 -67 -17z m152 -693 c0 -22 -75 -25 -122 -4 l-38 17 35 6 c55 9 125 -1 125 -19z m-242 -254 c51 -21 87 -70 87 -117 0 -100 -95 -174 -179 -139 -16 6 -41 29 -56 50 -53 76 -57 162 -8 200 31 24 106 27 156 6z m475 -12 c49 -34 66 -109 37 -164 -25 -48 -62 -70 -117 -70 -43 0 -55 5 -83 33 -56 56 -60 156 -8 197 33 25 137 28 171 4z"/>
 <path d="M740 915 c-17 -20 -6 -43 25 -51 30 -8 53 0 61 21 9 22 -14 45 -46 45 -15 0 -33 -7 -40 -15z"/>
 <path d="M1187 923 c-13 -12 -7 -54 8 -59 44 -17 84 23 53 54 -13 13 -50 16 -61 5z"/>
 <path d="M1164 1960 c0 -22 4 -40 9 -40 4 0 6 -4 3 -8 -2 -4 4 -27 14 -50 21 -46 45 -141 55 -212 8 -66 19 -79 42 -53 20 24 250 103 369 128 104 21 144 49 176 121 15 33 30 80 33 107 l7 47 -355 0 -354 0 1 -40z"/>
 </g>
<g id="layer103" fill="#f4b096" stroke="none">
 <path d="M135 1953 c3 -27 18 -74 33 -107 32 -72 72 -100 176 -121 76 -16 313 -92 353 -113 12 -7 24 -17 26 -24 10 -24 25 12 36 86 5 40 26 127 46 195 19 67 35 124 35 127 0 2 -160 4 -356 4 l-356 0 7 -47z"/>
 <path d="M923 1983 c3 -10 11 -42 18 -72 11 -51 11 -56 -10 -72 -27 -22 -27 -27 10 -65 41 -42 30 -61 -57 -105 -70 -36 -85 -55 -99 -130 -7 -39 -77 -114 -133 -143 -22 -11 -31 -24 -35 -51 -3 -20 -16 -62 -28 -93 -17 -43 -30 -61 -53 -72 -25 -12 -35 -27 -52 -80 -12 -36 -34 -85 -49 -108 -18 -28 -30 -61 -33 -94 -4 -47 -3 -53 23 -74 26 -21 27 -23 16 -73 -15 -73 -14 -199 4 -256 21 -71 80 -151 134 -182 25 -15 70 -53 99 -84 32 -35 75 -69 110 -86 51 -25 67 -28 157 -28 79 1 119 6 194 28 224 67 342 165 387 322 13 47 16 87 12 200 l-5 142 28 10 c51 20 49 108 -5 188 -14 20 -30 53 -36 73 -23 74 -32 90 -59 101 -28 12 -66 93 -78 166 -5 29 -13 40 -44 56 -22 11 -39 23 -39 27 0 5 -17 21 -38 37 -30 23 -39 36 -40 62 -3 65 -26 98 -99 142 -38 23 -74 41 -80 41 -28 0 -23 25 12 60 l38 39 -28 25 c-27 25 -27 26 -16 89 6 35 11 67 11 70 0 4 -32 7 -71 7 -62 0 -70 -2 -66 -17z m151 -683 c16 -16 -10 -33 -48 -32 -19 1 -52 9 -73 18 -34 14 -36 17 -18 25 24 10 126 2 139 -11z m-227 -269 c126 -57 77 -261 -62 -261 -50 0 -94 35 -122 96 -32 70 -28 127 12 161 33 29 112 31 172 4z m455 -2 c29 -15 58 -70 58 -107 0 -113 -130 -180 -209 -108 -78 70 -61 215 27 229 36 6 100 -1 124 -14z m105 -107 c6 -26 -12 -75 -35 -94 -14 -12 -14 -10 -3 10 8 14 11 48 9 83 -3 51 -1 57 10 42 7 -10 15 -28 19 -41z"/>
 <path d="M740 915 c-17 -20 -6 -43 25 -51 30 -8 53 0 61 21 9 22 -14 45 -46 45 -15 0 -33 -7 -40 -15z"/>
 <path d="M1187 923 c-13 -12 -7 -54 8 -59 44 -17 84 23 53 54 -13 13 -50 16 -61 5z"/>
 <path d="M1160 1996 c0 -3 16 -60 35 -127 20 -67 40 -153 45 -189 10 -68 18 -100 27 -100 3 0 12 9 21 19 19 22 256 103 368 126 104 21 144 49 176 121 15 33 30 80 33 107 l7 47 -356 0 c-196 0 -356 -2 -356 -4z"/>
 </g>
<g id="layer104" fill="#60bdd6" stroke="none">
 <path d="M135 1953 c3 -27 18 -74 33 -107 32 -72 72 -100 176 -121 76 -16 313 -92 353 -113 12 -7 24 -17 26 -24 10 -24 25 12 36 86 5 40 26 127 46 195 19 67 35 124 35 127 0 2 -160 4 -356 4 l-356 0 7 -47z"/>
 <path d="M923 1983 c3 -10 11 -42 18 -72 11 -51 11 -56 -10 -72 -11 -9 -21 -21 -21 -26 0 -15 75 -83 91 -83 8 0 32 18 53 39 l39 40 -28 25 c-27 25 -27 26 -16 89 6 35 11 67 11 70 0 4 -32 7 -71 7 -62 0 -70 -2 -66 -17z"/>
 <path d="M1160 1996 c0 -3 16 -60 35 -127 20 -67 40 -153 45 -189 10 -68 18 -100 27 -100 3 0 12 9 21 19 19 22 256 103 368 126 104 21 144 49 176 121 15 33 30 80 33 107 l7 47 -356 0 c-196 0 -356 -2 -356 -4z"/>
 <path d="M867 1610 c-63 -24 -74 -34 -81 -73 -7 -35 -81 -113 -134 -141 -22 -11 -31 -24 -35 -51 -3 -20 -16 -62 -28 -93 -17 -43 -30 -61 -53 -72 -25 -12 -35 -27 -52 -80 -12 -36 -34 -85 -49 -108 -18 -28 -30 -61 -33 -94 -4 -47 -3 -53 23 -74 26 -21 27 -23 16 -73 -15 -73 -14 -199 4 -256 21 -71 80 -151 134 -182 25 -15 70 -53 99 -84 32 -35 75 -69 110 -86 51 -25 67 -28 157 -28 79 1 119 6 194 28 224 67 342 165 387 322 13 47 16 87 12 200 l-5 142 28 10 c51 20 49 108 -5 188 -14 20 -30 53 -36 73 -23 74 -32 90 -59 101 -28 12 -66 93 -78 166 -5 29 -13 40 -44 56 -22 11 -39 23 -39 27 0 5 -17 21 -38 37 -32 24 -39 36 -40 64 -2 41 -15 53 -89 81 -71 27 -198 27 -266 0z m233 -91 c58 -14 141 -71 186 -126 49 -60 69 -111 125 -313 44 -163 48 -217 10 -137 -48 99 -194 157 -282 111 -22 -11 -40 -36 -65 -87 -19 -39 -34 -77 -34 -84 0 -8 -14 -13 -38 -13 -37 0 -39 1 -55 53 -37 115 -90 156 -201 157 -58 0 -61 -1 -102 -45 -23 -25 -52 -66 -63 -90 -48 -103 -39 -30 24 189 50 175 66 212 123 277 91 103 230 143 372 108z m-532 -388 c-6 -25 -18 -42 -34 -50 -25 -11 -31 -26 -14 -36 6 -4 9 -2 8 3 -2 6 1 9 7 9 13 -2 7 -35 -12 -67 l-14 -25 5 27 c7 32 -2 60 -16 52 -6 -4 -5 3 1 14 6 12 11 25 10 29 -6 36 25 83 55 83 11 0 12 -8 4 -39z m902 17 c22 -24 28 -54 8 -42 -6 4 -1 -10 12 -31 13 -21 19 -36 13 -32 -15 9 -24 -19 -17 -51 l6 -27 -15 27 c-21 37 -26 74 -9 71 20 -5 14 15 -7 22 -24 7 -47 85 -25 85 7 0 22 -10 34 -22z m-623 -117 c126 -57 77 -261 -62 -261 -50 0 -94 35 -122 96 -32 70 -28 127 12 161 33 29 112 31 172 4z m455 -2 c29 -15 58 -70 58 -107 0 -113 -130 -180 -209 -108 -78 70 -61 215 27 229 36 6 100 -1 124 -14z m-808 -109 c5 -21 4 -20 -8 5 -9 17 -15 23 -15 15 -1 -8 6 -27 13 -42 13 -25 13 -30 -4 -50 -10 -13 -22 -20 -26 -16 -4 4 2 15 13 25 10 10 14 15 7 10 -19 -13 -23 17 -11 83 11 59 12 61 19 29 3 -19 9 -45 12 -59z m1045 -14 c1 -42 -1 -47 -14 -36 -11 9 -15 9 -15 1 0 -6 14 -14 31 -18 22 -4 27 -8 17 -14 -39 -25 -67 14 -43 60 8 17 15 38 14 48 0 10 -5 3 -10 -15 -5 -18 -14 -30 -19 -27 -6 4 -4 18 5 35 8 16 15 37 16 47 2 36 17 -31 18 -81z m-129 -2 c0 -24 -9 -43 -31 -66 -27 -29 -28 -30 -14 -6 12 20 16 44 13 88 -3 60 -3 61 15 39 9 -11 17 -36 17 -55z m-760 -74 c11 -20 10 -21 -9 -11 -46 25 -65 87 -39 134 10 20 13 16 24 -40 7 -34 18 -71 24 -83z m450 3 c8 -10 2 -7 -13 6 -28 25 -33 45 -20 78 6 13 9 7 13 -24 4 -23 12 -50 20 -60z m355 0 c-23 -133 -69 -252 -128 -327 -58 -73 -179 -106 -277 -75 -19 6 -103 14 -186 18 -143 6 -153 7 -193 34 -67 45 -99 128 -116 305 -8 84 -1 89 52 36 84 -84 235 -110 307 -53 18 14 24 25 17 33 -19 22 11 41 66 41 56 -1 90 -19 73 -40 -27 -33 64 -70 148 -62 62 7 157 49 172 78 8 15 52 46 68 49 2 0 0 -17 -3 -37z"/>
 <path d="M872 1384 c-11 -8 -13 -20 -8 -47 6 -30 14 -39 58 -61 86 -43 174 -32 204 25 17 34 18 75 2 86 -19 12 -239 10 -256 -3z m202 -84 c16 -16 -10 -33 -48 -32 -19 1 -52 9 -73 18 -34 14 -36 17 -18 25 24 10 126 2 139 -11z"/>
 <path d="M948 1193 c-28 -3 -38 -9 -38 -21 0 -12 3 -13 8 -5 7 12 47 15 130 12 20 -1 32 -7 32 -16 0 -8 4 -12 10 -8 18 11 -2 35 -29 34 -14 -1 -37 0 -51 3 -14 3 -42 3 -62 1z"/>
 <path d="M740 915 c-17 -20 -6 -43 25 -51 30 -8 53 0 61 21 9 22 -14 45 -46 45 -15 0 -33 -7 -40 -15z"/>
 <path d="M1187 923 c-13 -12 -7 -54 8 -59 44 -17 84 23 53 54 -13 13 -50 16 -61 5z"/>
 </g>
<g id="layer105" fill="#e59375" stroke="none">
 <path d="M135 1953 c3 -27 18 -74 33 -107 32 -72 72 -100 176 -121 76 -16 313 -92 353 -113 12 -7 24 -17 26 -24 10 -24 25 12 36 86 5 40 26 127 46 195 19 67 35 124 35 127 0 2 -160 4 -356 4 l-356 0 7 -47z"/>
 <path d="M923 1983 c3 -10 11 -42 18 -72 11 -51 11 -56 -10 -72 -11 -9 -21 -21 -21 -26 0 -15 75 -83 91 -83 8 0 32 18 53 39 l39 40 -28 25 c-27 25 -27 26 -16 89 6 35 11 67 11 70 0 4 -32 7 -71 7 -62 0 -70 -2 -66 -17z"/>
 <path d="M1160 1996 c0 -3 16 -60 35 -127 20 -67 40 -153 45 -189 10 -68 18 -100 27 -100 3 0 12 9 21 19 19 22 256 103 368 126 104 21 144 49 176 121 15 33 30 80 33 107 l7 47 -356 0 c-196 0 -356 -2 -356 -4z"/>
 <path d="M867 1610 c-63 -24 -74 -34 -81 -73 -7 -35 -81 -113 -134 -141 -22 -11 -31 -24 -35 -51 -3 -20 -16 -62 -28 -93 -17 -43 -30 -61 -53 -72 -25 -12 -35 -27 -52 -80 -12 -36 -34 -85 -49 -108 -18 -28 -30 -61 -33 -94 -4 -47 -3 -53 23 -74 26 -21 27 -23 16 -73 -15 -73 -14 -199 4 -256 21 -71 80 -151 134 -182 25 -15 70 -53 99 -84 32 -35 75 -69 110 -86 51 -25 67 -28 157 -28 79 1 119 6 194 28 224 67 342 165 387 322 13 47 16 87 12 200 l-5 142 28 10 c51 20 49 108 -5 188 -14 20 -30 53 -36 73 -23 74 -32 90 -59 101 -28 12 -66 93 -78 166 -5 29 -13 40 -44 56 -22 11 -39 23 -39 27 0 5 -17 21 -38 37 -32 24 -39 36 -40 64 -2 41 -15 53 -89 81 -71 27 -198 27 -266 0z m233 -91 c58 -14 141 -71 186 -126 49 -60 69 -111 125 -313 44 -163 48 -217 10 -137 -48 99 -194 157 -282 111 -22 -11 -40 -36 -65 -87 -19 -39 -34 -77 -34 -84 0 -8 -14 -13 -38 -13 -37 0 -39 1 -55 53 -37 115 -90 156 -201 157 -58 0 -61 -1 -102 -45 -23 -25 -52 -66 -63 -90 -48 -103 -39 -30 24 189 50 175 66 212 123 277 91 103 230 143 372 108z m-532 -388 c-6 -25 -18 -42 -34 -50 -25 -11 -31 -26 -14 -36 6 -4 9 -2 8 3 -2 6 1 9 7 9 13 -2 7 -35 -12 -67 l-14 -25 5 27 c7 32 -2 60 -16 52 -6 -4 -5 3 1 14 6 12 11 25 10 29 -6 36 25 83 55 83 11 0 12 -8 4 -39z m902 17 c22 -24 28 -54 8 -42 -6 4 -1 -10 12 -31 13 -21 19 -36 13 -32 -15 9 -24 -19 -17 -51 l6 -27 -15 27 c-21 37 -26 74 -9 71 20 -5 14 15 -7 22 -24 7 -47 85 -25 85 7 0 22 -10 34 -22z m-623 -117 c126 -57 77 -261 -62 -261 -50 0 -94 35 -122 96 -32 70 -28 127 12 161 33 29 112 31 172 4z m455 -2 c29 -15 58 -70 58 -107 0 -113 -130 -180 -209 -108 -78 70 -61 215 27 229 36 6 100 -1 124 -14z m-808 -109 c5 -21 4 -20 -8 5 -9 17 -15 23 -15 15 -1 -8 6 -27 13 -42 13 -25 13 -30 -4 -50 -10 -13 -22 -20 -26 -16 -4 4 2 15 13 25 10 10 14 15 7 10 -19 -13 -23 17 -11 83 11 59 12 61 19 29 3 -19 9 -45 12 -59z m1045 -14 c1 -42 -1 -47 -14 -36 -11 9 -15 9 -15 1 0 -6 14 -14 31 -18 22 -4 27 -8 17 -14 -39 -25 -67 14 -43 60 8 17 15 38 14 48 0 10 -5 3 -10 -15 -5 -18 -14 -30 -19 -27 -6 4 -4 18 5 35 8 16 15 37 16 47 2 36 17 -31 18 -81z m-129 -2 c0 -24 -9 -43 -31 -66 -27 -29 -28 -30 -14 -6 12 20 16 44 13 88 -3 60 -3 61 15 39 9 -11 17 -36 17 -55z m-760 -74 c11 -20 10 -21 -9 -11 -46 25 -65 87 -39 134 10 20 13 16 24 -40 7 -34 18 -71 24 -83z m450 3 c8 -10 2 -7 -13 6 -28 25 -33 45 -20 78 6 13 9 7 13 -24 4 -23 12 -50 20 -60z m355 0 c-23 -133 -69 -252 -128 -327 -58 -73 -179 -106 -277 -75 -19 6 -103 14 -186 18 -143 6 -153 7 -193 34 -67 45 -99 128 -116 305 -8 84 -1 89 52 36 84 -84 235 -110 307 -53 18 14 24 25 17 33 -19 22 11 41 66 41 56 -1 90 -19 73 -40 -27 -33 64 -70 148 -62 62 7 157 49 172 78 8 15 52 46 68 49 2 0 0 -17 -3 -37z"/>
 <path d="M872 1384 c-11 -8 -13 -20 -8 -47 6 -30 14 -39 58 -61 86 -43 174 -32 204 25 17 34 18 75 2 86 -19 12 -239 10 -256 -3z m202 -84 c16 -16 -10 -33 -48 -32 -19 1 -52 9 -73 18 -34 14 -36 17 -18 25 24 10 126 2 139 -11z"/>
 <path d="M948 1193 c-28 -3 -38 -9 -38 -21 0 -12 3 -13 8 -5 7 12 47 15 130 12 20 -1 32 -7 32 -16 0 -8 4 -12 10 -8 18 11 -2 35 -29 34 -14 -1 -37 0 -51 3 -14 3 -42 3 -62 1z"/>
 </g>
<g id="layer106" fill="#a6a19f" stroke="none">
 <path d="M135 1953 c3 -27 18 -74 33 -107 32 -72 72 -100 176 -121 76 -16 313 -92 353 -113 12 -7 24 -17 26 -24 10 -24 25 12 36 86 5 40 26 127 46 195 19 67 35 124 35 127 0 2 -160 4 -356 4 l-356 0 7 -47z"/>
 <path d="M923 1983 c3 -10 11 -42 18 -72 11 -51 11 -56 -10 -72 -11 -9 -21 -21 -21 -26 0 -15 75 -83 91 -83 8 0 32 18 53 39 l39 40 -28 25 c-27 25 -27 26 -16 89 6 35 11 67 11 70 0 4 -32 7 -71 7 -62 0 -70 -2 -66 -17z"/>
 <path d="M1160 1996 c0 -3 16 -60 35 -127 20 -67 40 -153 45 -189 10 -68 18 -100 27 -100 3 0 12 9 21 19 19 22 256 103 368 126 104 21 144 49 176 121 15 33 30 80 33 107 l7 47 -356 0 c-196 0 -356 -2 -356 -4z"/>
 <path d="M797 1564 c-4 -4 -7 -16 -7 -27 0 -23 -92 -117 -136 -140 -24 -12 -33 -25 -37 -52 -3 -20 -16 -62 -28 -93 -17 -43 -30 -61 -53 -72 -25 -12 -35 -27 -52 -80 -12 -36 -34 -85 -49 -108 -18 -28 -30 -61 -33 -94 -4 -47 -3 -53 23 -74 26 -21 27 -23 16 -73 -15 -73 -14 -199 4 -256 21 -71 80 -151 134 -182 25 -15 70 -53 99 -84 32 -35 75 -69 110 -86 51 -25 67 -28 157 -28 79 1 119 6 194 28 224 67 342 165 387 322 13 47 16 87 12 200 l-5 142 28 10 c51 20 49 108 -5 188 -14 20 -30 53 -36 73 -23 74 -32 90 -59 101 -28 12 -66 93 -78 166 -5 29 -13 40 -44 56 -22 11 -39 23 -39 27 0 5 -18 21 -40 38 -21 16 -39 34 -38 39 0 6 0 22 -1 37 l-1 27 -208 1 c-114 0 -211 -3 -215 -6z m363 -61 c86 -41 140 -89 177 -160 34 -63 123 -355 123 -403 0 -46 -18 -44 -41 5 -45 96 -180 150 -275 110 -28 -11 -41 -27 -69 -87 -19 -40 -35 -78 -35 -85 0 -8 -14 -13 -38 -13 -37 0 -39 1 -55 53 -38 119 -97 163 -210 155 -56 -4 -62 -7 -98 -49 -21 -24 -48 -63 -59 -87 -22 -47 -40 -48 -40 -2 0 48 88 338 122 402 68 127 200 201 353 195 66 -3 93 -9 145 -34z m-584 -350 c-3 -10 -15 -54 -27 -98 -26 -99 -36 -111 -45 -56 -5 29 -10 38 -15 29 -13 -20 -11 -54 7 -91 15 -32 15 -37 -1 -71 -17 -35 -46 -48 -60 -26 -3 6 0 10 7 10 9 0 13 15 13 48 0 26 4 58 9 72 8 23 8 24 -10 10 -18 -14 -18 -14 -3 5 24 29 45 75 53 114 8 41 32 71 58 71 14 0 18 -5 14 -17z m898 -5 c8 -13 19 -43 25 -67 5 -24 20 -58 32 -74 12 -16 16 -26 9 -22 -9 6 -10 0 -4 -26 5 -19 8 -51 7 -71 -1 -27 3 -38 14 -38 8 0 11 -4 8 -10 -3 -5 -17 -10 -30 -10 -19 0 -26 7 -31 28 -3 15 -7 32 -9 39 -2 6 3 30 12 52 14 36 14 45 2 69 l-14 27 -3 -37 c-2 -21 -7 -38 -11 -38 -4 0 -18 37 -30 83 -13 45 -25 90 -28 100 -8 26 33 22 51 -5z m-627 -117 c126 -57 77 -261 -62 -261 -50 0 -94 35 -122 96 -32 70 -28 127 12 161 33 29 112 31 172 4z m455 -2 c29 -15 58 -70 58 -107 0 -113 -130 -180 -209 -108 -78 70 -61 215 27 229 36 6 100 -1 124 -14z m108 -125 c0 -24 -9 -43 -31 -66 -27 -29 -28 -30 -14 -6 12 20 16 44 13 88 -3 60 -3 61 15 39 9 -11 17 -36 17 -55z m-760 -74 c11 -20 10 -21 -9 -11 -46 25 -65 87 -39 134 10 20 13 16 24 -40 7 -34 18 -71 24 -83z m452 1 c7 -9 0 -5 -15 8 -27 25 -33 45 -20 78 5 13 9 7 15 -26 4 -24 13 -51 20 -60z m344 -42 c-37 -191 -110 -311 -213 -354 -45 -19 -131 -19 -208 0 -33 8 -110 14 -173 15 -156 0 -202 20 -247 110 -25 51 -41 121 -51 228 -8 83 -1 88 49 41 17 -17 55 -43 82 -57 87 -45 238 -31 241 23 2 43 12 50 69 49 60 -1 85 -15 78 -44 -8 -32 41 -55 117 -55 54 0 77 6 133 33 37 18 67 38 67 43 0 9 61 51 67 45 2 -2 -3 -36 -11 -77z"/>
 <path d="M873 1382 c-48 -49 47 -132 151 -132 33 0 52 7 75 26 34 28 51 88 32 107 -18 18 -240 16 -258 -1z m201 -82 c16 -16 -10 -33 -48 -32 -19 1 -52 9 -73 18 -34 14 -36 17 -18 25 24 10 126 2 139 -11z"/>
 </g>
<g id="layer107" fill="#db9568" stroke="none">
 <path d="M135 1953 c3 -27 18 -74 33 -107 32 -72 72 -100 176 -121 76 -16 313 -92 353 -113 12 -7 24 -17 26 -24 10 -25 25 13 32 81 4 36 20 108 36 161 17 52 34 112 38 133 l9 37 -355 0 -355 0 7 -47z"/>
 <path d="M930 1977 c0 -13 6 -45 14 -70 14 -46 13 -48 -11 -66 -19 -16 -22 -24 -15 -38 11 -20 68 -73 78 -73 16 0 73 52 79 71 5 15 1 25 -15 36 -20 14 -21 21 -16 67 4 28 10 61 13 74 5 21 3 22 -61 22 -63 0 -66 -1 -66 -23z"/>
 <path d="M1167 1978 c3 -13 20 -75 38 -138 18 -63 36 -142 40 -176 9 -80 18 -95 42 -67 20 24 250 103 369 128 104 21 144 49 176 121 15 33 30 80 33 107 l7 47 -355 0 -355 0 5 -22z"/>
 <path d="M797 1564 c-4 -4 -7 -16 -7 -27 0 -23 -92 -117 -136 -140 -24 -12 -33 -25 -37 -52 -3 -20 -16 -62 -28 -93 -17 -43 -30 -61 -53 -72 -25 -12 -35 -27 -52 -80 -12 -36 -34 -85 -49 -108 -18 -28 -30 -61 -33 -94 -4 -47 -3 -53 23 -74 26 -21 27 -23 16 -73 -15 -73 -14 -199 4 -256 21 -71 80 -151 134 -182 25 -15 70 -53 99 -84 32 -35 75 -69 110 -86 51 -25 67 -28 157 -28 79 1 119 6 194 28 224 67 342 165 387 322 13 47 16 87 12 200 l-5 142 28 10 c51 20 49 108 -5 188 -14 20 -30 53 -36 73 -23 74 -32 90 -59 101 -28 12 -66 93 -78 166 -5 29 -13 40 -44 56 -22 11 -39 23 -39 27 0 5 -18 21 -40 38 -21 16 -39 34 -38 39 0 6 0 22 -1 37 l-1 27 -208 1 c-114 0 -211 -3 -215 -6z m363 -61 c86 -41 140 -89 177 -160 34 -63 123 -355 123 -403 0 -46 -18 -44 -41 5 -43 92 -172 147 -265 115 -34 -12 -76 -72 -102 -142 -16 -45 -19 -48 -53 -48 -34 0 -37 3 -48 43 -36 122 -102 173 -214 165 -56 -4 -62 -7 -98 -49 -21 -24 -48 -63 -59 -87 -22 -47 -40 -48 -40 -2 0 48 88 338 122 402 68 127 200 201 353 195 66 -3 93 -9 145 -34z m-584 -350 c-3 -10 -15 -54 -27 -98 -26 -99 -36 -111 -45 -56 -5 29 -10 38 -15 29 -13 -20 -11 -54 7 -91 15 -32 15 -37 -1 -71 -17 -35 -46 -48 -60 -26 -3 6 0 10 7 10 9 0 13 15 13 48 0 26 4 58 9 72 8 23 8 24 -10 10 -18 -14 -18 -14 -3 5 24 29 45 75 53 114 8 41 32 71 58 71 14 0 18 -5 14 -17z m898 -5 c8 -13 19 -43 25 -67 5 -24 20 -58 32 -74 12 -16 16 -26 9 -22 -9 6 -10 0 -4 -26 5 -19 8 -51 7 -71 -1 -27 3 -38 14 -38 8 0 11 -4 8 -10 -3 -5 -17 -10 -30 -10 -19 0 -26 7 -31 28 -3 15 -7 32 -9 39 -2 6 3 30 12 52 14 36 14 45 2 69 l-14 27 -3 -37 c-2 -21 -7 -38 -11 -38 -4 0 -18 37 -30 83 -13 45 -25 90 -28 100 -8 26 33 22 51 -5z m-628 -113 c68 -28 97 -121 60 -193 -38 -73 -137 -95 -197 -45 -88 74 -92 227 -6 252 36 11 97 5 143 -14z m481 -28 c101 -110 -36 -285 -163 -208 -82 50 -89 202 -10 237 19 9 53 13 85 11 47 -3 59 -9 88 -40z m83 -102 c0 -33 -40 -95 -62 -95 -5 0 -2 7 6 16 21 21 29 54 24 109 -3 46 -3 46 14 25 10 -12 18 -37 18 -55z m-761 -63 c19 -36 5 -38 -29 -4 -33 33 -39 76 -18 115 11 20 13 17 23 -33 6 -30 17 -66 24 -78z m451 -2 l13 -25 -27 24 c-27 25 -32 45 -19 78 6 14 9 10 13 -17 4 -19 12 -46 20 -60z m346 -51 c-37 -191 -110 -311 -213 -354 -45 -19 -131 -19 -208 0 -33 8 -110 14 -173 15 -156 0 -202 20 -247 110 -25 51 -41 121 -51 228 -8 83 -1 88 49 41 17 -17 55 -43 82 -57 87 -45 238 -31 241 23 2 43 12 50 69 49 60 -1 85 -15 78 -44 -8 -32 41 -55 117 -55 54 0 77 6 133 33 37 18 67 38 67 43 0 9 61 51 67 45 2 -2 -3 -36 -11 -77z"/>
 <path d="M874 1379 c-22 -24 -17 -46 17 -79 58 -55 158 -67 208 -24 34 28 51 88 32 107 -8 8 -52 12 -127 12 -92 0 -118 -3 -130 -16z m198 -77 c9 -9 8 -16 -4 -29 -15 -14 -24 -15 -72 -4 -57 13 -88 34 -64 45 22 9 128 0 140 -12z"/>
 </g>
<g id="layer108" fill="#b0a85a" stroke="none">
 <path d="M135 1953 c3 -27 18 -74 33 -107 32 -72 72 -100 176 -121 76 -16 313 -92 353 -113 12 -7 24 -17 26 -24 10 -25 25 13 32 81 4 36 20 108 36 161 17 52 34 112 38 133 l9 37 -355 0 -355 0 7 -47z"/>
 <path d="M930 1977 c0 -13 6 -45 14 -70 14 -46 13 -48 -11 -66 -19 -16 -22 -24 -15 -38 11 -20 68 -73 78 -73 16 0 73 52 79 71 5 15 1 25 -15 36 -20 14 -21 21 -16 67 4 28 10 61 13 74 5 21 3 22 -61 22 -63 0 -66 -1 -66 -23z"/>
 <path d="M1167 1978 c3 -13 20 -75 38 -138 18 -63 36 -142 40 -176 9 -80 18 -95 42 -67 20 24 250 103 369 128 104 21 144 49 176 121 15 33 30 80 33 107 l7 47 -355 0 -355 0 5 -22z"/>
 <path d="M905 1546 c-27 -7 -65 -19 -82 -28 -18 -9 -33 -13 -33 -8 0 4 -24 -16 -52 -45 -29 -28 -67 -59 -84 -68 -24 -12 -33 -25 -37 -52 -3 -20 -16 -62 -28 -93 -17 -43 -30 -61 -53 -72 -25 -12 -35 -27 -52 -80 -12 -36 -34 -85 -49 -108 -18 -28 -30 -61 -33 -94 -4 -47 -3 -53 23 -74 26 -21 27 -23 16 -73 -15 -73 -14 -199 4 -256 21 -71 80 -151 134 -182 25 -15 70 -53 99 -84 32 -35 75 -69 110 -86 51 -25 67 -28 157 -28 79 1 119 6 194 28 224 67 342 165 387 322 13 47 16 87 12 200 l-5 142 28 10 c51 20 49 108 -5 188 -14 20 -30 53 -36 73 -23 74 -32 90 -59 101 -28 12 -66 93 -78 166 -5 29 -13 40 -44 56 -22 11 -39 23 -39 27 0 5 -18 21 -40 38 -22 16 -38 34 -35 41 2 7 0 15 -5 18 -6 4 -10 0 -10 -9 0 -12 -6 -11 -37 4 -81 38 -179 48 -268 26z m260 -41 c84 -40 166 -124 194 -200 45 -119 109 -359 101 -379 -11 -32 -30 -30 -36 4 -9 41 -47 78 -117 114 -71 35 -142 34 -183 -5 -31 -29 -74 -112 -74 -144 0 -26 -34 -39 -75 -29 -18 4 -25 13 -25 31 0 13 -11 48 -25 78 -37 76 -78 100 -173 100 -70 0 -75 -2 -98 -30 -14 -16 -36 -43 -48 -58 -13 -16 -27 -42 -30 -59 -8 -40 -30 -31 -34 13 -3 33 55 247 98 360 25 68 81 135 150 179 75 48 122 60 225 57 75 -3 100 -8 150 -32z m-585 -341 c0 -16 -53 -190 -60 -198 -5 -5 -12 3 -15 20 -11 49 -12 50 -20 21 -5 -19 -2 -41 10 -66 16 -37 16 -41 0 -75 -19 -39 -43 -46 -69 -20 -9 8 -16 18 -16 22 0 3 5 1 12 -6 23 -23 33 -12 34 41 1 65 6 96 21 122 6 11 16 40 23 65 14 52 35 80 62 80 10 0 18 -2 18 -6z m892 -11 c9 -10 19 -34 23 -53 8 -40 29 -84 56 -119 11 -13 19 -29 19 -35 -1 -6 -8 2 -16 17 -20 37 -27 30 -13 -12 6 -17 9 -47 7 -67 -4 -31 -2 -35 15 -30 15 4 16 2 6 -10 -6 -8 -22 -14 -34 -14 -37 0 -52 57 -30 113 12 33 14 49 6 70 -6 15 -13 27 -16 27 -4 0 -3 -5 0 -10 8 -13 -4 -70 -14 -70 -4 0 -17 39 -30 88 -13 48 -26 95 -28 105 -4 12 0 17 14 17 11 0 27 -8 35 -17z m-626 -118 c68 -28 97 -121 60 -193 -38 -73 -137 -95 -197 -45 -88 74 -92 227 -6 252 36 11 97 5 143 -14z m481 -28 c101 -110 -36 -285 -163 -208 -82 50 -89 202 -10 237 19 9 53 13 85 11 47 -3 59 -9 88 -40z m83 -102 c0 -33 -40 -95 -62 -95 -5 0 -2 7 6 16 21 21 29 54 24 109 -3 46 -3 46 14 25 10 -12 18 -37 18 -55z m-761 -63 c20 -38 2 -40 -30 -4 -31 35 -38 77 -17 115 11 20 13 17 23 -33 6 -30 17 -66 24 -78z m450 0 c12 -22 11 -22 -9 -10 -26 16 -34 42 -24 76 7 27 7 27 14 -8 3 -19 12 -45 19 -58z m352 -39 c-30 -160 -97 -290 -179 -347 -54 -38 -135 -45 -246 -22 -43 9 -126 16 -185 16 -124 0 -172 17 -216 74 -35 46 -62 142 -71 252 -8 97 1 106 52 53 49 -52 120 -82 194 -83 44 0 76 5 98 17 31 17 44 47 20 47 -6 0 -3 8 8 18 26 24 122 24 148 0 11 -10 14 -18 8 -18 -24 0 -11 -30 21 -47 76 -41 217 -10 288 63 18 19 39 34 46 34 7 0 13 6 14 13 0 9 2 9 5 0 3 -6 0 -38 -5 -70z"/>
 <path d="M882 1384 c-30 -21 -28 -44 9 -82 33 -34 82 -52 141 -52 69 0 126 77 98 131 -11 19 -17 21 -63 15 -77 -11 -89 -11 -127 -3 -25 5 -42 3 -58 -9z m190 -82 c9 -9 8 -16 -4 -29 -15 -14 -24 -15 -72 -4 -57 13 -88 34 -64 45 22 9 128 0 140 -12z"/>
 </g>
<g id="layer109" fill="#d07250" stroke="none">
 <path d="M135 1953 c3 -27 18 -74 33 -107 32 -72 72 -100 176 -121 76 -16 313 -92 353 -113 12 -7 24 -17 26 -24 10 -25 25 13 32 81 4 36 20 108 36 161 17 52 34 112 38 133 l9 37 -355 0 -355 0 7 -47z"/>
 <path d="M930 1977 c0 -13 6 -45 14 -70 14 -46 13 -48 -11 -66 -19 -16 -22 -24 -15 -38 11 -20 68 -73 78 -73 16 0 73 52 79 71 5 15 1 25 -15 36 -20 14 -21 21 -16 67 4 28 10 61 13 74 5 21 3 22 -61 22 -63 0 -66 -1 -66 -23z"/>
 <path d="M1167 1978 c3 -13 20 -75 38 -138 18 -63 36 -142 40 -176 9 -80 18 -95 42 -67 20 24 250 103 369 128 104 21 144 49 176 121 15 33 30 80 33 107 l7 47 -355 0 -355 0 5 -22z"/>
 <path d="M905 1546 c-27 -7 -65 -19 -82 -28 -18 -9 -33 -13 -33 -8 0 4 -24 -16 -52 -45 -29 -28 -67 -59 -84 -68 -24 -12 -33 -25 -37 -52 -3 -20 -16 -62 -28 -93 -17 -43 -30 -61 -53 -72 -25 -12 -35 -27 -52 -80 -12 -36 -34 -85 -49 -108 -18 -28 -30 -61 -33 -94 -4 -47 -3 -53 23 -74 26 -21 27 -23 16 -73 -15 -73 -14 -199 4 -256 21 -71 80 -151 134 -182 25 -15 70 -53 99 -84 32 -35 75 -69 110 -86 51 -25 67 -28 157 -28 79 1 119 6 194 28 224 67 342 165 387 322 13 47 16 87 12 200 l-5 142 28 10 c51 20 49 108 -5 188 -14 20 -30 53 -36 73 -23 74 -32 90 -59 101 -28 12 -66 93 -78 166 -5 29 -13 40 -44 56 -22 11 -39 23 -39 27 0 5 -18 21 -40 38 -22 16 -38 34 -35 41 2 7 0 15 -5 18 -6 4 -10 0 -10 -9 0 -12 -6 -11 -37 4 -81 38 -179 48 -268 26z m260 -41 c84 -40 166 -124 194 -200 42 -110 108 -356 103 -381 -6 -35 -34 -27 -44 13 -9 36 -61 83 -126 114 -57 28 -131 22 -168 -12 -27 -25 -62 -95 -73 -144 -6 -28 -10 -30 -50 -30 l-44 0 -14 54 c-29 117 -77 156 -191 156 -68 0 -75 -2 -95 -27 -57 -71 -69 -90 -76 -116 -4 -15 -15 -28 -24 -30 -28 -6 -21 62 22 209 72 247 102 299 211 369 75 48 122 60 225 57 75 -3 100 -8 150 -32z m-585 -341 c0 -16 -53 -190 -60 -198 -5 -5 -12 3 -15 20 -11 49 -12 50 -20 21 -5 -19 -2 -41 10 -66 16 -37 16 -41 0 -75 -19 -39 -43 -46 -69 -20 -9 8 -16 18 -16 22 0 3 5 1 12 -6 23 -23 33 -12 34 41 1 65 6 96 21 122 6 11 16 40 23 65 14 52 35 80 62 80 10 0 18 -2 18 -6z m892 -11 c9 -10 19 -34 23 -53 8 -40 29 -84 56 -119 11 -13 19 -29 19 -35 -1 -6 -8 2 -16 17 -20 37 -27 30 -13 -12 6 -17 9 -47 7 -67 -4 -31 -2 -35 15 -30 15 4 16 2 6 -10 -6 -8 -22 -14 -34 -14 -37 0 -52 57 -30 113 12 33 14 49 6 70 -6 15 -13 27 -16 27 -4 0 -3 -5 0 -10 8 -13 -4 -70 -14 -70 -4 0 -17 39 -30 88 -13 48 -26 95 -28 105 -4 12 0 17 14 17 11 0 27 -8 35 -17z m-626 -118 c68 -28 97 -121 60 -193 -38 -73 -137 -95 -197 -45 -88 74 -92 227 -6 252 36 11 97 5 143 -14z m481 -28 c101 -110 -36 -285 -163 -208 -82 50 -89 202 -10 237 19 9 53 13 85 11 47 -3 59 -9 88 -40z m83 -102 c-1 -45 -12 -64 -55 -89 -16 -10 -23 -12 -14 -5 9 8 21 24 27 36 15 27 16 107 1 136 -7 15 -2 13 15 -8 19 -21 26 -41 26 -70z m-756 -74 l19 -35 -29 19 c-16 10 -34 26 -41 34 -16 21 -16 86 -1 111 12 18 14 14 24 -37 5 -32 18 -74 28 -92z m444 12 c10 -19 9 -23 -8 -28 -30 -9 -24 -32 13 -52 76 -41 224 -8 287 63 16 19 34 34 39 34 6 0 15 8 21 18 17 26 3 -83 -21 -165 -39 -137 -104 -234 -182 -272 -52 -25 -131 -27 -227 -6 -36 8 -114 15 -175 15 -171 1 -228 39 -266 177 -33 118 -34 292 -2 260 4 -5 1 -12 -7 -17 -11 -7 -12 -10 -2 -10 7 0 25 -14 39 -30 14 -17 49 -43 77 -57 63 -33 163 -37 214 -10 31 17 44 47 20 47 -7 0 -6 6 4 18 9 9 13 24 11 32 -4 13 -3 13 5 1 7 -10 30 -15 65 -15 32 -1 61 -7 72 -16 18 -14 18 -14 2 10 -18 26 -22 57 -10 87 6 13 9 8 13 -22 4 -22 11 -50 18 -62z"/>
 <path d="M882 1384 c-33 -23 -27 -48 19 -88 64 -55 156 -61 206 -14 28 26 38 70 23 99 -11 19 -17 21 -63 14 -60 -8 -112 -8 -142 -1 -12 3 -31 -1 -43 -10z m190 -82 c9 -9 8 -16 -4 -29 -15 -14 -24 -15 -72 -4 -57 13 -88 34 -64 45 22 9 128 0 140 -12z"/>
 </g>
<g id="layer110" fill="#9ecc1b" stroke="none">
 <path d="M135 1953 c3 -27 18 -74 33 -107 32 -72 72 -100 176 -121 76 -16 313 -92 353 -113 12 -7 24 -17 26 -24 10 -25 25 13 32 81 4 36 20 108 36 161 17 52 34 112 38 133 l9 37 -355 0 -355 0 7 -47z"/>
 <path d="M930 1977 c0 -13 6 -45 14 -70 14 -46 13 -48 -11 -66 -19 -16 -22 -24 -15 -38 11 -20 68 -73 78 -73 16 0 73 52 79 71 5 15 1 25 -15 36 -20 14 -21 21 -16 67 4 28 10 61 13 74 5 21 3 22 -61 22 -63 0 -66 -1 -66 -23z"/>
 <path d="M1167 1978 c3 -13 20 -75 38 -138 18 -63 36 -142 40 -176 9 -80 18 -95 42 -67 20 24 250 103 369 128 104 21 144 49 176 121 15 33 30 80 33 107 l7 47 -355 0 -355 0 5 -22z"/>
 <path d="M1210 1507 c0 -15 10 -31 24 -41 69 -45 117 -119 157 -243 12 -40 26 -68 30 -62 4 7 17 9 32 5 21 -5 29 -18 47 -73 12 -38 26 -73 32 -80 5 -7 6 -18 2 -24 -4 -7 -3 -9 3 -6 16 10 31 -13 43 -66 12 -54 3 -81 -30 -90 -26 -7 -47 14 -59 60 -8 28 -7 39 4 50 8 8 15 31 14 51 l0 37 -12 -30 c-7 -16 -19 -45 -26 -63 -17 -41 -42 -39 -53 5 -9 36 -61 83 -126 114 -57 28 -131 22 -168 -12 -27 -25 -62 -95 -73 -144 -6 -28 -10 -30 -50 -30 l-44 0 -14 54 c-29 117 -77 156 -191 156 -68 0 -75 -2 -95 -27 -57 -71 -69 -90 -76 -116 -9 -32 -41 -43 -41 -14 0 10 -9 27 -20 37 -11 10 -20 31 -21 49 0 29 -1 29 -9 8 -10 -23 3 -71 21 -83 14 -8 -19 -87 -42 -100 -14 -7 -23 -5 -40 12 -17 17 -20 28 -15 61 7 40 24 83 31 76 2 -2 -3 -25 -12 -51 -15 -47 -13 -77 7 -77 5 0 11 26 11 58 3 81 3 82 27 132 12 25 22 54 22 65 0 32 28 65 56 65 13 0 24 -6 25 -12 0 -7 15 31 33 84 37 110 75 166 151 226 15 12 25 26 23 32 -1 5 -26 -12 -54 -39 -28 -27 -65 -56 -81 -65 -23 -11 -32 -24 -36 -51 -3 -20 -16 -62 -28 -93 -17 -43 -30 -61 -53 -72 -25 -12 -35 -27 -52 -80 -12 -36 -34 -85 -49 -108 -18 -28 -30 -61 -33 -94 -4 -47 -3 -53 23 -74 26 -21 27 -23 16 -73 -15 -73 -14 -199 4 -256 21 -71 80 -151 134 -182 25 -15 70 -53 99 -84 32 -35 75 -69 110 -86 51 -25 67 -28 157 -28 79 1 119 6 194 28 224 67 342 165 387 322 13 47 16 87 12 200 l-5 142 28 10 c51 20 49 108 -5 188 -14 20 -30 53 -36 73 -23 74 -32 90 -59 101 -28 12 -66 93 -78 166 -5 29 -13 40 -44 56 -22 11 -39 23 -39 27 0 5 -18 21 -40 38 -22 16 -38 34 -35 41 2 7 0 15 -5 18 -6 4 -10 -5 -10 -18z m-364 -472 c68 -28 97 -121 60 -193 -38 -73 -137 -95 -197 -45 -88 74 -92 227 -6 252 36 11 97 5 143 -14z m481 -28 c101 -110 -36 -285 -163 -208 -82 50 -89 202 -10 237 19 9 53 13 85 11 47 -3 59 -9 88 -40z m83 -102 c-1 -45 -12 -64 -55 -89 -16 -10 -23 -12 -14 -5 9 8 21 24 27 36 15 27 16 107 1 136 -7 15 -2 13 15 -8 19 -21 26 -41 26 -70z m-756 -74 l19 -35 -29 19 c-16 10 -34 26 -41 34 -16 21 -16 86 -1 111 12 18 14 14 24 -37 5 -32 18 -74 28 -92z m444 12 c10 -19 9 -23 -8 -28 -49 -16 -4 -56 77 -69 63 -9 163 25 215 74 23 22 45 40 49 40 4 0 13 8 18 18 19 32 12 -40 -13 -140 -40 -157 -102 -255 -190 -297 -51 -25 -131 -27 -232 -6 -41 8 -117 14 -175 14 -57 -1 -116 3 -130 9 -49 20 -97 72 -118 126 -20 54 -41 179 -41 244 0 40 14 71 27 59 4 -5 1 -12 -7 -17 -11 -7 -12 -10 -2 -10 7 0 24 -13 38 -29 41 -49 128 -86 200 -85 65 2 124 25 124 49 0 8 -5 15 -12 15 -7 0 -6 6 4 18 9 9 13 24 11 32 -4 13 -3 13 5 1 7 -10 30 -15 65 -15 32 -1 61 -7 72 -16 18 -14 18 -14 2 10 -18 26 -22 57 -10 87 6 13 9 8 13 -22 4 -22 11 -50 18 -62z"/>
 <path d="M882 1384 c-33 -23 -27 -48 19 -88 64 -55 156 -61 206 -14 28 26 38 70 23 99 -11 19 -17 21 -63 14 -60 -8 -112 -8 -142 -1 -12 3 -31 -1 -43 -10z m235 -17 c3 -4 -18 -7 -48 -6 -39 0 -48 3 -34 9 22 9 71 7 82 -3z m-45 -65 c9 -9 8 -16 -4 -29 -15 -14 -24 -15 -72 -4 -57 13 -88 34 -64 45 22 9 128 0 140 -12z"/>
 <path d="M1544 957 c3 -10 6 -39 6 -63 0 -43 12 -59 23 -30 7 18 -11 87 -25 101 -8 7 -9 4 -4 -8z"/>
 </g>
<g id="layer111" fill="#cb5c4e" stroke="none">
 <path d="M135 1953 c3 -27 18 -74 33 -107 32 -72 72 -100 176 -121 76 -16 313 -92 353 -113 12 -7 24 -17 26 -24 10 -25 25 13 32 81 4 36 20 108 36 161 17 52 34 112 38 133 l9 37 -355 0 -355 0 7 -47z"/>
 <path d="M930 1977 c0 -13 6 -45 14 -70 14 -46 13 -48 -11 -66 -19 -16 -22 -24 -15 -38 11 -20 68 -73 78 -73 16 0 73 52 79 71 5 15 1 25 -15 36 -20 14 -21 21 -16 67 4 28 10 61 13 74 5 21 3 22 -61 22 -63 0 -66 -1 -66 -23z"/>
 <path d="M1167 1978 c3 -13 20 -75 38 -138 18 -63 36 -142 40 -176 9 -80 18 -95 42 -67 20 24 250 103 369 128 104 21 144 49 176 121 15 33 30 80 33 107 l7 47 -355 0 -355 0 5 -22z"/>
 <path d="M1210 1507 c0 -15 10 -31 24 -41 69 -45 117 -119 157 -243 12 -40 26 -68 30 -62 4 7 17 9 32 5 21 -5 29 -18 47 -73 12 -38 26 -73 32 -80 5 -7 6 -18 2 -24 -4 -7 -3 -9 3 -6 16 10 31 -13 43 -66 12 -54 3 -81 -30 -90 -26 -7 -47 14 -59 60 -8 28 -7 39 4 50 8 8 15 31 14 51 -1 33 -2 34 -9 12 -4 -14 -15 -38 -24 -55 -9 -16 -16 -49 -16 -71 0 -58 -43 -221 -74 -283 -78 -153 -180 -196 -372 -156 -41 8 -117 14 -175 14 -115 -2 -140 5 -192 51 -59 51 -80 129 -102 372 -5 47 -12 71 -26 84 -10 9 -19 31 -20 48 0 29 -1 29 -9 8 -10 -23 3 -71 21 -83 14 -8 -19 -87 -42 -100 -14 -7 -23 -5 -40 12 -17 17 -20 28 -15 61 7 40 24 83 31 76 2 -2 -3 -25 -12 -51 -15 -47 -13 -77 7 -77 5 0 11 26 11 58 3 81 3 82 27 132 12 25 22 54 22 65 0 32 28 65 56 65 13 0 24 -6 25 -12 0 -7 15 31 33 84 37 110 75 166 151 226 15 12 25 26 23 32 -1 5 -26 -12 -54 -39 -28 -27 -65 -56 -81 -65 -23 -11 -32 -24 -36 -51 -3 -20 -16 -62 -28 -93 -17 -43 -30 -61 -53 -72 -25 -12 -35 -27 -52 -80 -12 -36 -34 -85 -49 -108 -18 -28 -30 -61 -33 -94 -4 -47 -3 -53 23 -74 26 -21 27 -23 16 -73 -15 -73 -14 -199 4 -256 21 -71 80 -151 134 -182 25 -15 70 -53 99 -84 32 -35 75 -69 110 -86 51 -25 67 -28 157 -28 79 1 119 6 194 28 224 67 342 165 387 322 13 47 16 87 12 200 l-5 142 28 10 c51 20 49 108 -5 188 -14 20 -30 53 -36 73 -23 74 -32 90 -59 101 -28 12 -66 93 -78 166 -5 29 -13 40 -44 56 -22 11 -39 23 -39 27 0 5 -18 21 -40 38 -22 16 -38 34 -35 41 2 7 0 15 -5 18 -6 4 -10 -5 -10 -18z"/>
 <path d="M882 1384 c-33 -23 -27 -48 19 -88 64 -55 156 -61 206 -14 28 26 38 70 23 99 -11 19 -17 21 -63 14 -60 -8 -112 -8 -142 -1 -12 3 -31 -1 -43 -10z m235 -17 c3 -4 -18 -7 -48 -6 -39 0 -48 3 -34 9 22 9 71 7 82 -3z m-45 -65 c9 -9 8 -16 -4 -29 -15 -14 -24 -15 -72 -4 -57 13 -88 34 -64 45 22 9 128 0 140 -12z"/>
 <path d="M683 1070 c-13 -5 -32 -24 -44 -42 -17 -27 -19 -43 -15 -91 3 -31 15 -75 26 -97 12 -23 18 -45 15 -49 -3 -5 16 -18 42 -28 58 -22 148 -21 192 1 30 16 43 46 20 46 -8 0 -8 4 0 14 6 8 14 36 18 64 7 65 -23 132 -73 163 -39 24 -144 35 -181 19z m163 -35 c68 -28 97 -121 60 -193 -38 -73 -137 -95 -197 -45 -88 74 -92 227 -6 252 36 11 97 5 143 -14z"/>
 <path d="M1155 1060 c-73 -30 -99 -141 -52 -224 22 -39 23 -45 7 -36 -26 14 -40 12 -40 -5 0 -19 43 -40 97 -49 47 -7 186 30 164 44 -10 6 -8 11 6 21 11 8 25 24 31 36 19 34 15 114 -7 149 -34 57 -143 90 -206 64z m172 -53 c101 -110 -36 -285 -163 -208 -82 50 -89 202 -10 237 19 9 53 13 85 11 47 -3 59 -9 88 -40z"/>
 <path d="M1544 957 c3 -10 6 -39 6 -63 0 -43 12 -59 23 -30 7 18 -11 87 -25 101 -8 7 -9 4 -4 -8z"/>
 </g>
<g id="layer112" fill="#c7623d" stroke="none">
 <path d="M135 1953 c3 -27 18 -74 33 -107 32 -72 72 -100 176 -121 76 -16 313 -92 353 -113 12 -7 24 -17 26 -24 10 -25 25 13 32 81 4 36 20 108 36 161 17 52 34 112 38 133 l9 37 -355 0 -355 0 7 -47z"/>
 <path d="M930 1977 c0 -13 6 -45 14 -70 14 -46 13 -48 -11 -66 -19 -16 -22 -24 -15 -38 11 -20 68 -73 78 -73 16 0 73 52 79 71 5 15 1 25 -15 36 -20 14 -21 21 -16 67 4 28 10 61 13 74 5 21 3 22 -61 22 -63 0 -66 -1 -66 -23z"/>
 <path d="M1167 1978 c3 -13 20 -75 38 -138 18 -63 36 -142 40 -176 9 -80 18 -95 42 -67 20 24 250 103 369 128 104 21 144 49 176 121 15 33 30 80 33 107 l7 47 -355 0 -355 0 5 -22z"/>
 <path d="M1210 1507 c0 -15 10 -31 24 -41 69 -45 117 -119 157 -243 12 -40 26 -68 30 -62 4 7 17 9 32 5 21 -5 29 -18 47 -73 12 -38 26 -73 32 -80 5 -7 6 -18 2 -24 -4 -7 -3 -9 3 -6 16 10 31 -13 43 -66 12 -54 3 -81 -30 -90 -26 -7 -47 14 -59 60 -8 28 -7 39 4 50 8 8 15 31 14 51 -1 36 -1 36 -9 9 -5 -16 -13 -34 -19 -41 -6 -7 -16 -49 -21 -93 -28 -218 -104 -369 -214 -422 -51 -25 -134 -27 -236 -6 -39 8 -115 14 -173 14 -111 -2 -146 7 -190 49 -59 55 -80 125 -97 317 -9 95 -15 124 -30 140 -11 12 -20 34 -21 51 0 27 -1 28 -9 6 -10 -24 3 -71 22 -83 13 -8 -30 -101 -49 -107 -6 -2 -22 7 -33 18 -18 18 -21 29 -16 62 7 40 24 83 31 76 2 -2 -3 -25 -12 -51 -15 -47 -13 -77 7 -77 5 0 11 26 11 58 3 81 3 82 27 132 12 25 22 54 22 65 0 32 28 65 56 65 13 0 24 -6 25 -12 0 -7 15 31 33 84 37 110 75 166 151 226 15 12 25 26 23 32 -1 5 -26 -12 -54 -39 -28 -27 -65 -56 -81 -65 -23 -11 -32 -24 -36 -51 -3 -20 -16 -62 -28 -93 -17 -43 -30 -61 -53 -72 -25 -12 -35 -27 -52 -80 -12 -36 -34 -85 -49 -108 -18 -28 -30 -61 -33 -94 -4 -47 -3 -53 23 -74 26 -21 27 -23 16 -73 -15 -73 -14 -199 4 -256 21 -71 80 -151 134 -182 25 -15 70 -53 99 -84 32 -35 75 -69 110 -86 51 -25 67 -28 157 -28 79 1 119 6 194 28 224 67 342 165 387 322 13 47 16 87 12 200 l-5 142 28 10 c51 20 49 108 -5 188 -14 20 -30 53 -36 73 -23 74 -32 90 -59 101 -28 12 -66 93 -78 166 -5 29 -13 40 -44 56 -22 11 -39 23 -39 27 0 5 -18 21 -40 38 -22 16 -38 34 -35 41 2 7 0 15 -5 18 -6 4 -10 -5 -10 -18z m-650 -1042 c27 -56 27 -58 5 -32 -29 33 -45 83 -50 162 l-4 60 10 -65 c5 -36 23 -92 39 -125z m887 42 c-14 -24 -33 -50 -42 -57 -9 -7 0 11 20 40 19 28 35 57 35 63 0 6 3 8 6 4 4 -3 -5 -26 -19 -50z m4 -115 c-5 -10 -18 -25 -27 -33 -11 -9 -9 -2 6 19 26 35 36 42 21 14z"/>
 <path d="M882 1384 c-33 -23 -27 -48 19 -88 64 -55 156 -61 206 -14 28 26 38 70 23 99 -11 19 -17 21 -63 14 -60 -8 -112 -8 -142 -1 -12 3 -31 -1 -43 -10z m236 -11 c3 -10 -11 -13 -50 -12 l-53 1 30 14 c35 16 67 14 73 -3z m-46 -71 c9 -9 8 -16 -4 -29 -15 -14 -24 -15 -72 -4 -57 13 -88 34 -64 45 22 9 128 0 140 -12z"/>
 <path d="M683 1070 c-13 -5 -32 -24 -44 -42 -17 -27 -19 -43 -15 -91 3 -31 15 -75 26 -97 12 -23 18 -44 16 -49 -6 -10 26 -25 84 -41 30 -8 56 -8 94 0 68 14 95 32 78 52 -8 10 -8 18 -1 25 5 5 12 32 16 60 7 66 -22 132 -73 164 -39 24 -144 35 -181 19z m163 -35 c68 -28 97 -121 60 -193 -38 -73 -137 -95 -197 -45 -88 74 -92 227 -6 252 36 11 97 5 143 -14z"/>
 <path d="M1155 1060 c-73 -30 -99 -141 -52 -224 23 -41 23 -45 6 -36 -11 6 -24 8 -29 5 -36 -22 35 -55 117 -54 51 0 174 36 133 39 -11 0 -10 5 6 18 12 10 26 27 33 39 18 34 13 114 -8 149 -34 57 -143 90 -206 64z m172 -53 c101 -110 -36 -285 -163 -208 -82 50 -89 202 -10 237 19 9 53 13 85 11 47 -3 59 -9 88 -40z"/>
 <path d="M1544 957 c3 -10 6 -39 6 -63 0 -43 12 -59 23 -30 7 18 -11 87 -25 101 -8 7 -9 4 -4 -8z"/>
 </g>
<g id="layer113" fill="#9e655c" stroke="none">
 <path d="M135 1953 c3 -27 18 -74 33 -107 32 -72 72 -100 176 -121 76 -16 313 -92 353 -113 12 -7 24 -17 26 -24 10 -25 25 13 32 81 4 36 20 108 36 161 17 52 34 112 38 133 l9 37 -355 0 -355 0 7 -47z"/>
 <path d="M930 1977 c0 -13 6 -45 14 -70 14 -46 13 -48 -11 -66 -19 -16 -22 -24 -15 -38 11 -20 68 -73 78 -73 16 0 73 52 79 71 5 15 1 25 -15 36 -20 14 -21 21 -16 67 4 28 10 61 13 74 5 21 3 22 -61 22 -63 0 -66 -1 -66 -23z"/>
 <path d="M1167 1978 c3 -13 20 -75 38 -138 18 -63 36 -142 40 -176 9 -80 18 -95 42 -67 20 24 250 103 369 128 104 21 144 49 176 121 15 33 30 80 33 107 l7 47 -355 0 -355 0 5 -22z"/>
 <path d="M649 1395 c-19 -10 -28 -25 -33 -54 -3 -21 -15 -60 -26 -86 -21 -49 -25 -75 -12 -75 5 0 16 26 26 58 21 65 51 129 74 155 18 20 7 21 -29 2z"/>
 <path d="M1341 1363 c16 -27 39 -78 50 -115 12 -38 25 -68 30 -68 14 0 11 25 -11 75 -11 26 -23 65 -26 86 -5 30 -14 43 -35 54 -41 22 -42 20 -8 -32z"/>
 <path d="M882 1384 c-33 -23 -27 -48 19 -88 64 -55 156 -61 206 -14 28 26 38 70 23 99 -11 19 -17 21 -63 14 -60 -8 -112 -8 -142 -1 -12 3 -31 -1 -43 -10z m236 -11 c3 -10 -11 -13 -50 -12 l-53 1 30 14 c35 16 67 14 73 -3z m-46 -71 c9 -9 8 -16 -4 -29 -15 -14 -24 -15 -72 -4 -57 13 -88 34 -64 45 22 9 128 0 140 -12z"/>
 <path d="M683 1070 c-13 -5 -32 -24 -44 -42 -16 -27 -19 -43 -15 -90 6 -59 40 -144 66 -165 31 -24 100 -34 155 -23 54 11 96 42 75 55 -8 5 -8 10 0 20 6 7 13 35 17 63 7 65 -23 132 -73 163 -39 24 -144 35 -181 19z m163 -35 c68 -28 97 -121 60 -193 -38 -73 -137 -95 -197 -45 -88 74 -92 227 -6 252 36 11 97 5 143 -14z"/>
 <path d="M1155 1060 c-73 -30 -98 -141 -52 -224 l25 -45 -23 9 c-23 9 -35 5 -35 -12 0 -17 69 -38 124 -38 57 0 140 26 131 40 -3 5 3 15 13 22 46 32 57 128 23 184 -34 57 -143 90 -206 64z m172 -53 c101 -110 -36 -285 -163 -208 -82 50 -89 202 -10 237 19 9 53 13 85 11 47 -3 59 -9 88 -40z"/>
 <path d="M506 887 c-13 -30 -30 -59 -38 -63 -35 -21 -50 -240 -23 -329 21 -71 80 -151 134 -182 25 -15 70 -53 99 -84 32 -35 75 -69 110 -86 51 -25 67 -28 157 -28 79 1 119 6 194 28 224 67 342 165 387 322 22 78 16 335 -9 363 -8 9 -21 36 -28 60 -15 53 -24 40 -33 -50 -18 -181 -108 -353 -211 -399 -49 -23 -138 -24 -234 -4 -39 8 -115 14 -173 13 -112 -1 -147 8 -191 50 -59 56 -81 128 -97 316 -6 66 -12 122 -15 124 -2 3 -15 -20 -29 -51z m52 -419 c16 -32 22 -52 14 -45 -28 23 -53 97 -57 170 l-4 72 9 -70 c6 -39 22 -95 38 -127z m897 53 c-16 -28 -37 -59 -48 -68 -12 -11 -8 -1 10 24 17 23 36 56 43 73 7 17 15 29 17 26 3 -3 -7 -27 -22 -55z m7 -113 c-12 -18 -33 -45 -49 -58 -23 -21 -22 -19 6 14 18 21 37 49 43 62 6 13 13 22 16 20 2 -3 -5 -20 -16 -38z m-272 -207 c-8 -5 -33 -12 -55 -15 l-40 -6 45 14 c53 17 71 19 50 7z"/>
 </g>
<g id="layer114" fill="#809245" stroke="none">
 <path d="M135 1953 c3 -27 18 -74 33 -107 32 -72 72 -100 176 -121 76 -16 313 -92 353 -113 12 -7 24 -17 26 -24 10 -25 25 13 32 81 4 36 18 100 30 141 13 41 30 101 38 133 l15 57 -355 0 -355 0 7 -47z"/>
 <path d="M930 1977 c0 -13 6 -45 14 -70 14 -46 13 -48 -11 -66 -23 -19 -23 -21 -9 -44 17 -25 62 -67 73 -67 15 0 72 52 78 71 5 15 1 25 -15 36 -20 14 -21 21 -16 67 4 28 10 61 13 74 5 21 3 22 -61 22 -63 0 -66 -1 -66 -23z"/>
 <path d="M1177 1943 c8 -32 25 -92 38 -133 12 -41 26 -105 30 -141 9 -85 18 -100 42 -72 20 24 250 103 369 128 104 21 144 49 176 121 15 33 30 80 33 107 l7 47 -355 0 -355 0 15 -57z"/>
 <path d="M649 1395 c-19 -10 -28 -25 -33 -54 -3 -21 -15 -60 -26 -86 -21 -49 -25 -75 -12 -75 5 0 16 26 26 58 21 65 51 129 74 155 18 20 7 21 -29 2z"/>
 <path d="M1341 1363 c16 -27 39 -78 50 -115 12 -38 25 -68 30 -68 14 0 11 25 -11 75 -11 26 -23 65 -26 86 -5 30 -14 43 -35 54 -41 22 -42 20 -8 -32z"/>
 <path d="M1046 1393 c-4 -5 -44 -8 -88 -8 -65 0 -83 -3 -92 -17 -13 -22 16 -64 65 -93 50 -29 139 -27 172 3 29 27 41 75 27 103 -11 19 -68 27 -84 12z m71 -19 c5 -16 -31 -24 -75 -17 l-37 6 35 13 c40 15 72 14 77 -2z m-62 -64 c28 -11 29 -27 2 -44 -11 -7 -30 -7 -64 2 -58 16 -80 31 -61 43 18 12 91 11 123 -1z"/>
 <path d="M683 1065 c-67 -29 -79 -111 -31 -228 23 -58 47 -76 120 -91 62 -14 171 31 147 60 -6 7 -6 14 0 18 16 10 24 103 11 140 -29 88 -157 141 -247 101z m135 -20 c93 -28 132 -118 88 -203 -38 -73 -137 -95 -197 -45 -88 74 -92 227 -6 252 46 13 57 13 115 -4z"/>
 <path d="M1155 1056 c-50 -22 -68 -51 -73 -114 -3 -46 1 -66 20 -104 l24 -46 -22 8 c-22 9 -34 4 -34 -12 0 -17 69 -38 124 -38 52 0 143 26 132 38 -3 3 8 20 24 39 25 29 30 42 29 86 -1 66 -22 103 -79 133 -50 27 -100 30 -145 10z m172 -49 c97 -107 -28 -279 -156 -213 -57 30 -90 117 -68 182 18 53 63 77 136 71 47 -3 59 -9 88 -40z"/>
 <path d="M506 887 c-13 -30 -30 -59 -38 -63 -35 -21 -50 -240 -23 -329 21 -71 80 -151 134 -182 25 -15 70 -53 99 -84 32 -35 75 -69 110 -86 51 -25 67 -28 157 -28 79 1 119 6 194 28 224 67 342 165 387 322 22 78 16 335 -9 363 -8 9 -21 36 -28 60 -15 53 -24 40 -33 -50 -18 -181 -108 -353 -211 -399 -49 -23 -138 -24 -234 -4 -39 8 -115 14 -173 13 -112 -1 -147 8 -191 50 -59 56 -81 128 -97 316 -6 66 -12 122 -15 124 -2 3 -15 -20 -29 -51z m52 -419 c16 -32 22 -52 14 -45 -28 23 -53 97 -57 170 l-4 72 9 -70 c6 -39 22 -95 38 -127z m897 53 c-16 -28 -37 -59 -48 -68 -12 -11 -8 -1 10 24 17 23 36 56 43 73 7 17 15 29 17 26 3 -3 -7 -27 -22 -55z m7 -113 c-12 -18 -33 -45 -49 -58 -23 -21 -22 -19 6 14 18 21 37 49 43 62 6 13 13 22 16 20 2 -3 -5 -20 -16 -38z m-272 -207 c-8 -5 -33 -12 -55 -15 l-40 -6 45 14 c53 17 71 19 50 7z"/>
 </g>
<g id="layer115" fill="#b94232" stroke="none">
 <path d="M135 1953 c3 -27 18 -74 33 -107 32 -72 72 -100 176 -121 76 -16 313 -92 353 -113 12 -7 24 -17 26 -24 10 -25 25 13 32 81 4 36 18 100 30 141 13 41 30 101 38 133 l15 57 -355 0 -355 0 7 -47z"/>
 <path d="M930 1977 c0 -13 6 -45 14 -70 14 -46 13 -48 -11 -66 -23 -19 -23 -21 -9 -44 17 -25 62 -67 73 -67 15 0 72 52 78 71 5 15 1 25 -15 36 -20 14 -21 21 -16 67 4 28 10 61 13 74 5 21 3 22 -61 22 -63 0 -66 -1 -66 -23z"/>
 <path d="M1177 1943 c8 -32 25 -92 38 -133 12 -41 26 -105 30 -141 9 -85 18 -100 42 -72 20 24 250 103 369 128 104 21 144 49 176 121 15 33 30 80 33 107 l7 47 -355 0 -355 0 15 -57z"/>
 <path d="M649 1395 c-19 -10 -28 -25 -33 -54 -3 -21 -15 -60 -26 -86 -21 -49 -25 -75 -12 -75 5 0 16 26 26 58 21 65 51 129 74 155 18 20 7 21 -29 2z"/>
 <path d="M1341 1363 c16 -27 39 -78 50 -115 12 -38 25 -68 30 -68 14 0 11 25 -11 75 -11 26 -23 65 -26 86 -5 30 -14 43 -35 54 -41 22 -42 20 -8 -32z"/>
 <path d="M1046 1393 c-4 -5 -44 -8 -88 -8 -65 0 -83 -3 -92 -17 -13 -22 16 -64 65 -93 50 -29 139 -27 172 3 29 27 41 75 27 103 -11 19 -68 27 -84 12z m71 -19 c5 -16 -31 -24 -75 -17 l-37 6 35 13 c40 15 72 14 77 -2z m-62 -64 c28 -11 29 -27 2 -44 -11 -7 -30 -7 -64 2 -58 16 -80 31 -61 43 18 12 91 11 123 -1z"/>
 <path d="M680 1062 c-63 -31 -75 -121 -28 -222 12 -25 20 -49 19 -53 -1 -5 3 -6 9 -2 5 3 10 2 10 -3 0 -10 37 -27 82 -36 57 -13 184 36 150 58 -6 3 -4 23 5 48 10 28 12 58 8 88 -16 104 -156 172 -255 122z m138 -17 c93 -28 132 -118 88 -203 -38 -73 -137 -95 -197 -45 -88 74 -92 227 -6 252 46 13 57 13 115 -4z"/>
 <path d="M1155 1056 c-50 -22 -68 -51 -73 -114 -3 -47 1 -65 22 -104 l25 -47 -23 9 c-13 5 -27 6 -30 3 -38 -38 121 -70 203 -42 25 9 30 14 19 21 -9 7 -6 8 10 5 13 -3 21 -3 18 0 -3 3 8 21 24 40 25 28 30 42 30 86 0 43 -5 59 -30 88 -52 64 -128 85 -195 55z m172 -49 c97 -107 -28 -279 -156 -213 -57 30 -90 117 -68 182 18 53 63 77 136 71 47 -3 59 -9 88 -40z"/>
 <path d="M506 887 c-13 -30 -30 -59 -38 -63 -35 -21 -50 -240 -23 -329 21 -71 80 -151 134 -182 25 -15 70 -53 99 -84 32 -35 75 -69 110 -86 51 -25 67 -28 157 -28 79 1 119 6 194 28 224 67 342 165 387 322 22 78 16 335 -9 363 -8 9 -21 36 -28 60 -15 53 -24 40 -33 -50 -18 -181 -108 -353 -211 -399 -49 -23 -138 -24 -234 -4 -39 8 -115 14 -173 13 -112 -1 -147 8 -191 50 -59 56 -81 128 -97 316 -6 66 -12 122 -15 124 -2 3 -15 -20 -29 -51z m52 -419 c16 -32 22 -52 14 -45 -28 23 -53 97 -57 170 l-4 72 9 -70 c6 -39 22 -95 38 -127z m897 53 c-16 -28 -37 -59 -48 -68 -12 -11 -8 -1 10 24 17 23 36 56 43 73 7 17 15 29 17 26 3 -3 -7 -27 -22 -55z m7 -113 c-12 -18 -33 -45 -49 -58 -23 -21 -22 -19 6 14 18 21 37 49 43 62 6 13 13 22 16 20 2 -3 -5 -20 -16 -38z m-272 -207 c-8 -5 -33 -12 -55 -15 l-40 -6 45 14 c53 17 71 19 50 7z"/>
 </g>
<g id="layer116" fill="#9a5933" stroke="none">
 <path d="M135 1953 c3 -27 18 -74 33 -107 32 -72 72 -100 176 -121 76 -16 313 -92 353 -113 12 -7 24 -17 26 -24 10 -25 25 13 32 81 4 36 18 100 30 141 13 41 30 101 38 133 l15 57 -355 0 -355 0 7 -47z"/>
 <path d="M930 1977 c0 -13 6 -45 14 -70 14 -46 13 -48 -11 -66 -23 -19 -23 -21 -9 -44 17 -25 62 -67 73 -67 15 0 72 52 78 71 5 15 1 25 -15 36 -20 14 -21 21 -16 67 4 28 10 61 13 74 5 21 3 22 -61 22 -63 0 -66 -1 -66 -23z"/>
 <path d="M1177 1943 c8 -32 25 -92 38 -133 12 -41 26 -105 30 -141 9 -85 18 -100 42 -72 20 24 250 103 369 128 104 21 144 49 176 121 15 33 30 80 33 107 l7 47 -355 0 -355 0 15 -57z"/>
 <path d="M649 1395 c-19 -10 -28 -25 -33 -54 -3 -21 -15 -60 -26 -86 -21 -49 -25 -75 -12 -75 4 0 20 37 35 83 16 45 40 97 53 115 27 35 23 39 -17 17z"/>
 <path d="M1322 1393 c23 -26 53 -90 74 -155 10 -32 21 -58 26 -58 13 0 9 26 -12 75 -11 26 -23 65 -26 86 -5 30 -14 43 -35 54 -37 20 -45 19 -27 -2z"/>
 <path d="M1046 1393 c-4 -5 -44 -8 -88 -8 -65 0 -83 -3 -92 -17 -13 -22 16 -64 65 -93 50 -29 139 -27 172 3 29 27 41 75 27 103 -11 19 -68 27 -84 12z m71 -19 c5 -16 -31 -24 -75 -17 l-37 6 35 13 c40 15 72 14 77 -2z m-62 -64 c28 -11 29 -27 2 -44 -11 -7 -30 -7 -64 2 -58 16 -80 31 -61 43 18 12 91 11 123 -1z"/>
 <path d="M680 1062 c-63 -31 -75 -121 -28 -222 12 -25 20 -49 19 -53 -1 -5 3 -6 9 -2 5 3 10 2 10 -3 0 -10 37 -26 84 -37 93 -20 179 87 160 199 -17 101 -157 167 -254 118z m138 -17 c93 -28 132 -118 88 -203 -38 -73 -137 -95 -197 -45 -88 74 -92 227 -6 252 46 13 57 13 115 -4z"/>
 <path d="M1155 1056 c-49 -22 -68 -51 -73 -111 -4 -46 0 -64 23 -109 15 -30 38 -59 52 -65 43 -19 150 -10 136 12 -4 6 2 8 16 4 13 -3 20 -3 17 0 -3 3 8 21 24 40 25 28 30 42 30 86 0 43 -5 59 -30 88 -52 64 -128 85 -195 55z m172 -49 c97 -107 -28 -279 -156 -213 -57 30 -90 117 -68 182 18 53 63 77 136 71 47 -3 59 -9 88 -40z"/>
 <path d="M511 892 c-13 -29 -31 -58 -41 -65 -37 -27 -53 -239 -25 -332 21 -71 80 -151 134 -182 25 -15 70 -53 99 -84 32 -35 75 -69 110 -86 51 -25 67 -28 157 -28 79 1 119 6 194 28 224 66 342 165 387 321 22 79 17 317 -8 356 -9 14 -22 44 -29 68 -15 53 -24 40 -33 -50 -18 -181 -108 -353 -211 -399 -50 -23 -150 -25 -237 -4 -39 9 -106 14 -173 13 -120 -2 -147 6 -197 59 -43 45 -67 112 -78 219 -6 54 -15 126 -19 159 l-7 60 -23 -53z m6 -156 c2 -143 20 -242 51 -285 29 -39 66 -62 101 -63 l32 -1 -27 -28 c-42 -44 -71 -46 -111 -7 -73 70 -114 175 -111 283 l1 60 7 -65 7 -65 3 65 c3 63 3 62 10 -30 10 -146 56 -222 142 -235 l33 -5 -30 11 c-44 17 -71 45 -93 97 -25 58 -56 251 -47 292 9 40 -2 38 -15 -2 -9 -31 -10 -31 -5 10 3 24 15 57 27 73 12 16 22 29 22 29 1 0 2 -60 3 -134z m993 -219 c-37 -180 -162 -289 -404 -351 -182 -48 -299 -31 -388 54 -43 42 -48 51 -42 76 4 16 12 37 19 47 11 15 13 11 17 -32 5 -46 45 -121 66 -121 4 0 6 28 5 62 -2 57 -1 60 10 36 14 -30 46 -68 58 -68 5 0 6 13 3 29 -13 63 47 109 125 95 25 -4 91 -8 146 -8 84 0 109 3 152 23 89 40 146 111 220 276 l17 40 4 -53 c2 -30 -2 -77 -8 -105z"/>
 <path d="M1450 471 c-39 -84 -102 -138 -195 -167 -39 -12 -39 -13 -9 -13 42 -1 127 43 165 87 34 38 73 116 67 133 -2 6 -14 -12 -28 -40z"/>
 <path d="M1230 329 c-36 -10 -54 -18 -40 -18 33 -1 98 17 105 29 4 6 5 9 3 9 -2 -1 -32 -10 -68 -20z"/>
 <path d="M935 311 c-12 -5 -27 -17 -35 -27 -14 -17 -14 -17 13 1 29 18 91 22 190 11 42 -5 47 -4 27 4 -33 15 -170 22 -195 11z"/>
 <path d="M983 260 c-13 -5 -23 -12 -23 -15 0 -4 5 -3 12 1 6 4 53 11 102 14 l91 7 -80 1 c-44 0 -90 -3 -102 -8z"/>
 </g>
<g id="layer117" fill="#665e5b" stroke="none">
 <path d="M135 1953 c3 -27 18 -74 33 -107 32 -72 72 -100 176 -121 76 -16 313 -92 353 -113 12 -7 24 -17 26 -24 10 -25 25 13 32 81 4 36 18 100 30 141 13 41 30 101 38 133 l15 57 -355 0 -355 0 7 -47z"/>
 <path d="M930 1977 c0 -13 6 -45 14 -70 14 -46 13 -48 -11 -66 -23 -19 -23 -21 -9 -44 17 -25 62 -67 73 -67 15 0 72 52 78 71 5 15 1 25 -15 36 -20 14 -21 21 -16 67 4 28 10 61 13 74 5 21 3 22 -61 22 -63 0 -66 -1 -66 -23z"/>
 <path d="M1177 1943 c8 -32 25 -92 38 -133 12 -41 26 -105 30 -141 9 -85 18 -100 42 -72 20 24 250 103 369 128 104 21 144 49 176 121 15 33 30 80 33 107 l7 47 -355 0 -355 0 15 -57z"/>
 <path d="M649 1395 c-19 -10 -28 -25 -33 -54 -3 -21 -15 -60 -26 -86 -21 -49 -25 -75 -12 -75 4 0 20 37 35 83 16 45 40 97 53 115 27 35 23 39 -17 17z"/>
 <path d="M1322 1393 c23 -26 53 -90 74 -155 10 -32 21 -58 26 -58 13 0 9 26 -12 75 -11 26 -23 65 -26 86 -5 30 -14 43 -35 54 -37 20 -45 19 -27 -2z"/>
 <path d="M1046 1393 c-4 -5 -44 -8 -88 -8 -65 0 -83 -3 -92 -17 -13 -22 16 -64 65 -93 50 -29 139 -27 172 3 29 27 41 75 27 103 -11 19 -68 27 -84 12z m71 -20 c6 -17 -31 -25 -74 -17 l-38 7 30 13 c35 16 77 14 82 -3z m-62 -63 c28 -11 29 -27 2 -44 -11 -7 -30 -7 -64 2 -58 16 -80 31 -61 43 18 12 91 11 123 -1z"/>
 <path d="M680 1062 c-70 -34 -76 -153 -13 -250 76 -116 242 -73 268 69 25 133 -131 244 -255 181z m138 -17 c93 -28 132 -118 88 -203 -38 -73 -137 -95 -197 -45 -88 74 -92 227 -6 252 46 13 57 13 115 -4z"/>
 <path d="M1155 1056 c-49 -22 -68 -51 -73 -111 -4 -46 0 -64 23 -109 16 -32 36 -57 49 -61 35 -11 116 -14 116 -4 0 5 11 11 25 15 14 3 38 22 55 40 25 29 30 43 30 87 0 43 -5 59 -30 88 -52 64 -128 85 -195 55z m172 -49 c97 -107 -28 -279 -156 -213 -57 30 -90 117 -68 182 18 53 63 77 136 71 47 -3 59 -9 88 -40z"/>
 <path d="M511 892 c-13 -29 -31 -58 -41 -65 -37 -27 -53 -239 -25 -332 21 -71 80 -151 134 -182 25 -15 70 -53 99 -84 32 -35 75 -69 110 -86 51 -25 67 -28 157 -28 79 1 119 6 194 28 224 66 342 165 387 321 22 79 17 317 -8 356 -9 14 -22 44 -29 68 -15 53 -24 40 -33 -50 -18 -181 -108 -353 -211 -399 -50 -23 -150 -25 -237 -4 -39 9 -106 14 -173 13 -120 -2 -147 6 -197 59 -42 44 -67 112 -79 219 -6 54 -14 126 -18 159 l-7 60 -23 -53z m6 -156 c2 -143 20 -242 51 -285 29 -39 66 -62 101 -63 l32 -1 -27 -28 c-42 -44 -71 -46 -111 -7 -73 70 -114 175 -111 283 l1 60 7 -65 7 -65 3 65 c3 63 3 62 10 -30 10 -146 56 -222 142 -235 l33 -5 -30 11 c-44 17 -71 45 -93 97 -25 58 -56 251 -47 292 9 40 -2 38 -15 -2 -9 -31 -10 -31 -5 10 3 24 15 57 27 73 12 16 22 29 22 29 1 0 2 -60 3 -134z m993 -219 c-37 -180 -162 -289 -404 -351 -182 -48 -299 -31 -388 54 -43 42 -48 51 -42 76 4 16 12 37 19 47 11 15 13 11 17 -32 5 -46 45 -121 66 -121 4 0 6 28 5 62 -2 57 -1 60 10 36 14 -30 46 -68 58 -68 5 0 6 13 3 29 -13 63 47 109 125 95 25 -4 91 -8 146 -8 84 0 109 3 152 23 89 40 146 111 220 276 l17 40 4 -53 c2 -30 -2 -77 -8 -105z"/>
 <path d="M1450 471 c-39 -84 -102 -138 -195 -167 -39 -12 -39 -13 -9 -13 42 -1 127 43 165 87 34 38 73 116 67 133 -2 6 -14 -12 -28 -40z"/>
 <path d="M1230 329 c-36 -10 -54 -18 -40 -18 33 -1 98 17 105 29 4 6 5 9 3 9 -2 -1 -32 -10 -68 -20z"/>
 <path d="M935 311 c-12 -5 -27 -17 -35 -27 -14 -17 -14 -17 13 1 29 18 91 22 190 11 42 -5 47 -4 27 4 -33 15 -170 22 -195 11z"/>
 <path d="M983 260 c-13 -5 -23 -12 -23 -15 0 -4 5 -3 12 1 6 4 53 11 102 14 l91 7 -80 1 c-44 0 -90 -3 -102 -8z"/>
 </g>
<g id="layer118" fill="#a83121" stroke="none">
 <path d="M135 1953 c3 -27 18 -74 33 -107 32 -72 72 -100 176 -121 76 -16 313 -92 353 -113 12 -7 23 -17 26 -24 8 -25 18 1 28 71 6 39 26 124 45 189 19 64 34 125 34 134 0 17 -22 18 -351 18 l-351 0 7 -47z"/>
 <path d="M935 1954 c3 -26 12 -58 18 -71 9 -21 7 -27 -17 -46 l-27 -22 42 -42 c23 -24 45 -43 49 -43 3 0 24 18 45 40 l39 40 -26 26 c-22 22 -24 31 -18 62 4 21 10 52 14 70 l6 32 -66 0 -66 0 7 -46z"/>
 <path d="M1181 1928 c11 -40 26 -94 35 -119 8 -25 21 -85 29 -133 7 -49 16 -91 19 -94 3 -2 13 4 23 16 20 23 252 103 369 127 104 21 144 49 176 121 15 33 30 80 33 107 l7 47 -355 0 -356 0 20 -72z"/>
 <path d="M649 1395 c-19 -10 -28 -25 -33 -54 -3 -21 -15 -60 -26 -86 -21 -49 -25 -75 -12 -75 4 0 20 37 35 83 16 45 40 97 53 115 27 35 23 39 -17 17z"/>
 <path d="M1322 1393 c23 -26 53 -90 74 -155 10 -32 21 -58 26 -58 13 0 9 26 -12 75 -11 26 -23 65 -26 86 -5 30 -14 43 -35 54 -37 20 -45 19 -27 -2z"/>
 <path d="M1035 1390 c-11 -5 -50 -6 -87 -3 -61 5 -67 4 -78 -17 -10 -19 -9 -27 8 -49 27 -37 72 -60 123 -65 24 -2 35 -2 24 1 -48 10 -106 36 -102 47 6 16 142 15 159 -2 11 -11 10 -16 -6 -28 -11 -8 -15 -14 -9 -14 20 0 53 35 62 65 13 47 -2 75 -41 74 -18 0 -42 -4 -53 -9z m82 -17 c6 -17 -31 -25 -74 -17 l-38 7 30 13 c35 16 77 14 82 -3z"/>
 <path d="M694 1070 c-57 -18 -82 -84 -64 -166 29 -127 118 -188 214 -146 44 20 86 73 86 108 -1 13 -5 9 -14 -11 -37 -86 -147 -116 -209 -57 -42 39 -67 95 -67 147 0 59 13 83 55 101 95 39 204 -13 230 -111 8 -28 14 -40 14 -27 1 28 -24 90 -47 115 -39 43 -135 66 -198 47z"/>
 <path d="M1153 1055 c-51 -22 -75 -69 -70 -136 5 -64 41 -134 72 -144 34 -11 115 -14 115 -4 0 5 11 11 25 15 14 3 38 22 55 40 60 69 32 175 -60 222 -50 25 -91 27 -137 7z m148 -21 c40 -20 73 -92 64 -137 -22 -102 -140 -153 -214 -92 -76 65 -75 204 3 235 35 14 115 11 147 -6z"/>
 <path d="M511 892 c-13 -29 -31 -58 -41 -65 -37 -27 -53 -239 -25 -332 21 -71 80 -151 134 -182 25 -15 70 -53 99 -84 32 -35 75 -69 110 -86 51 -25 67 -28 157 -28 79 1 119 6 194 28 224 66 342 165 387 321 22 79 17 317 -8 356 -9 14 -22 44 -29 68 -15 53 -24 40 -33 -50 -18 -181 -108 -353 -211 -399 -50 -23 -150 -25 -237 -4 -39 9 -106 14 -173 13 -120 -2 -147 6 -197 59 -42 44 -67 112 -79 219 -6 54 -14 126 -18 159 l-7 60 -23 -53z m6 -156 c2 -143 20 -242 51 -285 29 -39 66 -62 101 -63 l32 -1 -27 -28 c-42 -44 -71 -46 -111 -7 -73 70 -114 175 -111 283 l1 60 7 -65 7 -65 3 65 c3 63 3 62 10 -30 10 -146 56 -222 142 -235 l33 -5 -30 11 c-44 17 -71 45 -93 97 -25 58 -56 251 -47 292 9 40 -2 38 -15 -2 -9 -31 -10 -31 -5 10 3 24 15 57 27 73 12 16 22 29 22 29 1 0 2 -60 3 -134z m993 -219 c-37 -180 -162 -289 -404 -351 -182 -48 -299 -31 -388 54 -43 42 -48 51 -42 76 4 16 12 37 19 47 11 15 13 11 17 -32 5 -46 45 -121 66 -121 4 0 6 28 5 62 -2 57 -1 60 10 36 14 -30 46 -68 58 -68 5 0 6 13 3 29 -13 63 47 109 125 95 25 -4 91 -8 146 -8 84 0 109 3 152 23 89 40 146 111 220 276 l17 40 4 -53 c2 -30 -2 -77 -8 -105z"/>
 <path d="M1450 471 c-39 -84 -102 -138 -195 -167 -39 -12 -39 -13 -9 -13 42 -1 127 43 165 87 34 38 73 116 67 133 -2 6 -14 -12 -28 -40z"/>
 <path d="M1230 329 c-36 -10 -54 -18 -40 -18 33 -1 98 17 105 29 4 6 5 9 3 9 -2 -1 -32 -10 -68 -20z"/>
 <path d="M935 311 c-12 -5 -27 -17 -35 -27 -14 -17 -14 -17 13 1 29 18 91 22 190 11 42 -5 47 -4 27 4 -33 15 -170 22 -195 11z"/>
 <path d="M983 260 c-13 -5 -23 -12 -23 -15 0 -4 5 -3 12 1 6 4 53 11 102 14 l91 7 -80 1 c-44 0 -90 -3 -102 -8z"/>
 </g>
<g id="layer119" fill="#6f4532" stroke="none">
 <path d="M135 1953 c3 -27 18 -74 33 -107 32 -72 72 -100 176 -121 76 -16 313 -92 353 -113 12 -7 23 -17 26 -24 8 -25 18 1 28 71 6 39 26 124 45 189 19 64 34 125 34 134 0 17 -22 18 -351 18 l-351 0 7 -47z"/>
 <path d="M935 1954 c3 -26 12 -58 18 -71 9 -21 7 -27 -17 -46 l-27 -22 42 -42 c23 -24 45 -43 49 -43 3 0 24 18 45 40 l39 40 -26 26 c-22 22 -24 31 -18 62 4 21 10 52 14 70 l6 32 -66 0 -66 0 7 -46z"/>
 <path d="M1181 1928 c11 -40 26 -94 35 -119 8 -25 21 -85 29 -133 7 -49 16 -91 19 -94 3 -2 13 4 23 16 20 23 252 103 369 127 104 21 144 49 176 121 15 33 30 80 33 107 l7 47 -355 0 -356 0 20 -72z"/>
 <path d="M649 1395 c-19 -10 -28 -25 -33 -54 -3 -21 -15 -60 -26 -86 -20 -48 -27 -87 -12 -70 5 6 21 46 36 90 16 44 34 87 41 95 14 18 28 40 23 40 -2 -1 -15 -7 -29 -15z"/>
 <path d="M1349 1358 c16 -29 37 -79 47 -110 10 -32 22 -58 27 -58 10 0 8 9 -22 92 -12 32 -21 66 -21 77 0 13 -12 27 -30 36 l-31 16 30 -53z"/>
 <path d="M1035 1390 c-11 -5 -50 -6 -87 -3 -61 5 -67 4 -78 -17 -10 -19 -9 -27 8 -49 27 -37 72 -60 123 -65 24 -2 35 -2 24 1 -48 10 -106 36 -102 47 6 16 142 15 159 -2 11 -11 10 -16 -6 -28 -11 -8 -15 -14 -9 -14 20 0 53 35 62 65 13 47 -2 75 -41 74 -18 0 -42 -4 -53 -9z m82 -17 c6 -17 -31 -25 -74 -17 l-38 7 30 13 c35 16 77 14 82 -3z m-144 -11 l37 -18 -60 -10 c-55 -9 -60 -8 -66 9 -12 38 30 46 89 19z"/>
 <path d="M694 1070 c-57 -18 -82 -84 -64 -166 29 -127 118 -188 214 -146 44 20 86 73 86 108 -1 13 -5 9 -14 -11 -37 -86 -147 -116 -209 -57 -42 39 -67 95 -67 147 0 59 13 83 55 101 95 39 204 -13 230 -111 8 -28 14 -40 14 -27 1 28 -24 90 -47 115 -39 43 -135 66 -198 47z"/>
 <path d="M1153 1055 c-112 -48 -88 -257 32 -285 53 -13 127 13 166 58 59 67 30 174 -61 220 -50 25 -91 27 -137 7z m148 -21 c40 -20 73 -92 64 -137 -22 -102 -140 -153 -214 -92 -76 65 -75 204 3 235 35 14 115 11 147 -6z"/>
 <path d="M1466 875 c-31 -243 -125 -413 -250 -450 -64 -19 -75 -19 -196 5 -78 15 -121 18 -185 14 -78 -6 -88 -5 -138 20 -63 31 -98 76 -121 156 -13 46 -32 182 -37 265 -1 17 -2 16 -9 -5 -13 -41 -10 -229 5 -312 21 -122 69 -178 151 -178 l27 0 -24 -26 c-13 -14 -37 -33 -53 -41 -26 -14 -31 -13 -55 4 -41 31 -87 97 -111 160 -20 52 -22 72 -18 193 4 123 4 130 -8 85 -17 -70 -17 -212 1 -270 21 -71 80 -151 134 -182 25 -15 70 -53 99 -84 32 -35 75 -69 110 -86 51 -25 67 -28 157 -28 79 1 119 6 194 28 224 66 342 165 387 321 13 47 16 88 12 197 -3 90 -9 143 -17 153 -7 8 -21 36 -31 63 l-18 48 -6 -50z m54 -329 c-13 -91 -57 -180 -117 -240 -94 -93 -297 -167 -463 -170 -85 -1 -101 2 -152 27 -94 46 -136 113 -107 170 15 30 70 87 83 87 6 0 3 -5 -6 -11 -42 -24 -42 -118 1 -183 l19 -28 -5 44 c-6 54 33 150 69 169 21 11 20 9 -5 -20 -31 -38 -34 -75 -10 -129 l17 -37 4 35 c7 71 69 104 163 88 89 -15 191 -11 248 11 102 38 166 114 226 266 15 39 30 75 34 80 11 18 12 -86 1 -159z"/>
 </g>
<g id="layer120" fill="#64311f" stroke="none">
 <path d="M135 1953 c3 -27 18 -74 33 -107 32 -72 72 -100 176 -121 76 -16 313 -92 353 -113 12 -7 23 -17 26 -24 9 -25 18 1 31 88 8 49 28 133 45 188 48 153 85 136 -303 136 l-334 0 9 -39 c5 -22 18 -65 30 -96 11 -31 19 -58 16 -61 -5 -6 -43 81 -51 119 -3 15 -8 38 -11 52 -3 14 -10 25 -16 25 -8 0 -9 -16 -4 -47z m160 -179 c53 -22 56 -24 22 -19 -46 7 -87 25 -87 37 0 11 -4 12 65 -18z"/>
 <path d="M935 1954 c3 -26 12 -58 18 -71 9 -21 7 -27 -17 -46 l-27 -22 37 -37 c20 -21 44 -38 53 -38 9 0 32 16 51 35 l34 35 -26 26 c-22 22 -24 31 -18 62 4 21 10 52 14 70 l6 32 -66 0 -66 0 7 -46z"/>
 <path d="M1170 1981 c0 -10 13 -61 29 -114 27 -86 39 -141 56 -249 7 -43 10 -45 33 -19 19 22 256 103 368 126 104 21 144 49 176 121 32 73 48 159 27 152 -8 -3 -17 -25 -20 -49 -8 -50 -51 -159 -57 -141 -2 6 1 19 7 30 6 10 19 51 30 91 l20 71 -335 0 c-320 0 -334 -1 -334 -19z m600 -189 c0 -12 -41 -30 -87 -37 -36 -6 -35 -5 17 18 63 28 70 30 70 19z"/>
 <path d="M649 1395 c-19 -10 -28 -25 -33 -54 -3 -21 -15 -60 -26 -86 -20 -48 -27 -87 -12 -70 5 6 21 46 36 90 16 44 34 87 41 95 14 18 28 40 23 40 -2 -1 -15 -7 -29 -15z"/>
 <path d="M1349 1358 c16 -29 37 -79 47 -110 10 -32 22 -58 27 -58 10 0 8 9 -22 92 -12 32 -21 66 -21 77 0 13 -12 27 -30 36 l-31 16 30 -53z"/>
 <path d="M1035 1389 c-16 -5 -58 -6 -91 -3 -57 6 -63 5 -74 -15 -9 -18 -8 -27 5 -47 20 -30 73 -64 100 -63 13 0 7 6 -18 16 -57 23 -41 38 41 38 81 0 111 -16 78 -41 -11 -8 -14 -14 -7 -14 20 0 61 47 62 72 4 66 -20 80 -96 57z m80 -19 c0 -19 -27 -24 -73 -15 l-37 8 30 13 c38 17 80 14 80 -6z m-142 -8 l37 -18 -60 -10 c-55 -9 -60 -8 -66 9 -12 38 30 46 89 19z"/>
 <path d="M705 1072 c-41 -14 -56 -29 -71 -71 -17 -49 -11 -94 18 -157 26 -56 55 -81 108 -93 76 -17 149 30 165 105 l6 29 -14 -30 c-40 -87 -148 -115 -210 -57 -42 39 -67 95 -67 147 0 59 13 83 55 101 95 39 204 -13 230 -111 8 -31 14 -40 14 -25 1 36 -32 103 -63 128 -15 11 -49 25 -77 31 -55 12 -64 12 -94 3z"/>
 <path d="M1153 1055 c-60 -26 -86 -99 -63 -180 7 -25 23 -56 35 -69 28 -30 88 -48 118 -36 18 7 14 9 -20 9 -107 2 -171 154 -99 238 19 22 33 27 83 31 80 6 118 -14 145 -74 30 -69 9 -135 -55 -174 -38 -23 -29 -27 13 -5 47 24 70 62 70 115 0 61 -31 108 -90 138 -50 25 -91 27 -137 7z"/>
 <path d="M1466 875 c-31 -243 -125 -413 -250 -450 -64 -19 -75 -19 -196 5 -78 15 -121 18 -185 14 -78 -6 -88 -5 -138 20 -63 31 -98 76 -121 156 -13 46 -32 182 -37 265 -1 17 -2 16 -9 -5 -13 -41 -10 -229 5 -312 21 -122 69 -178 151 -178 l27 0 -24 -26 c-13 -14 -37 -33 -53 -41 -26 -14 -31 -13 -55 4 -41 31 -87 97 -111 160 -20 52 -22 72 -18 193 4 123 4 130 -8 85 -17 -70 -17 -212 1 -270 21 -71 80 -151 134 -182 25 -15 70 -53 99 -84 32 -35 75 -69 110 -86 51 -25 67 -28 157 -28 79 1 119 6 194 28 224 66 342 165 387 321 13 47 16 88 12 197 -3 90 -9 143 -17 153 -7 8 -21 36 -31 63 l-18 48 -6 -50z m54 -329 c-13 -91 -57 -180 -117 -240 -94 -93 -297 -167 -463 -170 -85 -1 -101 2 -152 27 -94 46 -136 113 -107 170 15 30 70 87 83 87 6 0 3 -5 -6 -11 -42 -24 -42 -118 1 -183 l19 -28 -5 44 c-6 54 33 150 69 169 21 11 20 9 -5 -20 -31 -38 -34 -75 -10 -129 l17 -37 4 35 c7 71 69 104 163 88 89 -15 191 -11 248 11 102 38 166 114 226 266 15 39 30 75 34 80 11 18 12 -86 1 -159z"/>
 </g>
<g id="layer121" fill="#951808" stroke="none">
 <path d="M135 1953 c3 -27 18 -74 33 -107 32 -73 72 -100 179 -122 75 -15 310 -91 352 -114 38 -20 22 8 -26 46 -27 21 -60 49 -76 63 l-27 25 32 33 c27 28 30 35 18 43 -20 13 -39 12 -20 0 13 -9 11 -14 -12 -35 -16 -13 -28 -28 -28 -34 0 -5 26 -33 58 -61 31 -29 48 -49 37 -44 -99 38 -280 94 -320 100 -41 5 -96 25 -114 40 -1 1 8 18 22 36 26 35 57 92 57 105 0 4 -14 -17 -31 -47 -49 -91 -54 -92 -83 -29 -13 30 -28 75 -31 102 -4 26 -12 47 -17 47 -7 0 -8 -18 -3 -47z"/>
 <path d="M559 1930 c-17 -56 -19 -73 -9 -85 7 -8 18 -15 24 -15 6 0 3 5 -6 11 -16 9 -16 14 7 76 28 72 30 83 15 83 -5 0 -19 -32 -31 -70z"/>
 <path d="M777 1867 c-21 -77 -37 -156 -37 -186 0 -29 -5 -61 -11 -73 -6 -11 -8 -22 -5 -26 12 -11 18 8 27 82 5 41 23 118 39 170 35 113 45 166 34 166 -5 0 -26 -60 -47 -133z"/>
 <path d="M935 1954 c3 -26 12 -58 18 -71 9 -21 7 -27 -17 -46 l-27 -22 37 -37 c20 -21 44 -38 53 -38 9 0 32 16 51 35 l34 35 -26 26 c-22 22 -24 31 -18 62 4 21 10 52 14 70 l6 32 -66 0 -66 0 7 -46z"/>
 <path d="M1175 1963 c4 -21 18 -72 31 -113 13 -41 31 -117 39 -169 8 -52 17 -96 20 -99 11 -12 16 8 6 26 -6 12 -11 44 -11 73 0 56 -69 319 -84 319 -4 0 -5 -17 -1 -37z"/>
 <path d="M1400 1990 c0 -5 11 -39 24 -75 23 -60 24 -65 8 -74 -9 -6 -12 -11 -6 -11 6 0 17 7 24 15 10 12 8 28 -10 85 -12 39 -26 70 -31 70 -5 0 -9 -4 -9 -10z"/>
 <path d="M1845 1953 c-3 -27 -18 -72 -31 -102 -29 -63 -34 -62 -83 29 -17 30 -31 51 -31 47 0 -13 31 -70 57 -105 14 -18 23 -35 22 -36 -18 -15 -73 -35 -114 -40 -40 -6 -221 -62 -320 -100 -11 -5 6 15 38 44 31 28 57 56 57 61 0 6 -12 21 -27 34 -24 21 -26 26 -13 35 19 12 0 13 -20 0 -12 -8 -9 -15 18 -43 l32 -33 -27 -25 c-16 -14 -49 -42 -75 -63 -27 -20 -48 -42 -48 -48 0 -7 4 -7 13 -1 20 16 281 101 363 118 104 21 144 49 176 121 29 65 46 154 30 154 -5 0 -13 -21 -17 -47z"/>
 <path d="M649 1395 c-19 -10 -28 -25 -33 -54 -3 -21 -15 -60 -26 -86 -20 -48 -27 -87 -12 -70 5 6 21 46 36 90 16 44 34 87 41 95 14 18 28 40 23 40 -2 -1 -15 -7 -29 -15z"/>
 <path d="M1349 1358 c16 -29 37 -79 47 -110 10 -32 22 -58 27 -58 10 0 8 9 -22 92 -12 32 -21 66 -21 77 0 13 -12 27 -30 36 l-31 16 30 -53z"/>
 <path d="M1108 1389 c24 -25 14 -39 -30 -39 -54 0 -83 15 -51 27 14 5 -7 9 -63 10 -75 2 -85 0 -95 -18 -8 -16 -7 -26 6 -45 20 -30 73 -64 100 -63 13 0 7 6 -18 16 -57 23 -41 38 41 38 81 0 111 -16 78 -41 -11 -8 -15 -14 -9 -14 20 0 53 35 61 65 11 39 5 62 -16 70 -14 5 -15 4 -4 -6z m-133 -26 c19 -9 35 -20 35 -24 0 -14 -122 -15 -127 -1 -16 41 31 54 92 25z m135 -32 c0 -17 -14 -18 -55 -5 l-40 12 48 1 c26 1 47 -3 47 -8z"/>
 <path d="M703 1072 c-92 -27 -105 -162 -26 -269 17 -23 39 -37 75 -48 49 -14 54 -14 92 5 46 23 72 54 81 96 l6 29 -14 -30 c-40 -87 -148 -115 -210 -57 -42 39 -67 95 -67 147 0 59 13 83 55 101 95 39 204 -13 230 -111 8 -31 14 -40 14 -25 1 36 -32 103 -63 128 -15 11 -49 25 -77 31 -55 12 -63 12 -96 3z"/>
 <path d="M1153 1055 c-60 -26 -86 -99 -63 -180 7 -25 23 -56 35 -69 28 -30 88 -48 118 -36 18 7 14 9 -20 9 -107 2 -171 154 -99 238 19 22 33 27 83 31 80 6 118 -14 145 -74 30 -69 9 -135 -55 -174 -38 -23 -29 -27 13 -5 47 24 70 62 70 115 0 61 -31 108 -90 138 -50 25 -91 27 -137 7z"/>
 <path d="M1466 875 c-31 -243 -125 -413 -250 -450 -64 -19 -75 -19 -196 5 -78 15 -121 18 -185 14 -78 -6 -88 -5 -138 20 -63 31 -98 76 -121 156 -13 46 -32 182 -37 265 -1 17 -2 16 -9 -5 -13 -41 -10 -229 5 -312 21 -122 69 -178 151 -178 l27 0 -24 -26 c-13 -14 -37 -33 -53 -41 -26 -14 -31 -13 -55 4 -41 31 -87 97 -111 160 -20 52 -22 72 -18 193 4 123 4 130 -8 85 -17 -70 -17 -212 1 -270 21 -71 80 -151 134 -182 25 -15 70 -53 99 -84 32 -35 75 -69 110 -86 51 -25 67 -28 157 -28 79 1 119 6 194 28 224 66 342 165 387 321 13 47 16 88 12 197 -3 90 -9 143 -17 153 -7 8 -21 36 -31 63 l-18 48 -6 -50z m54 -329 c-13 -91 -57 -180 -117 -240 -94 -93 -297 -167 -463 -170 -85 -1 -101 2 -152 27 -94 46 -136 113 -107 170 15 30 70 87 83 87 6 0 3 -5 -6 -11 -42 -24 -42 -118 1 -183 l19 -28 -5 44 c-6 54 33 150 69 169 21 11 20 9 -5 -20 -31 -38 -34 -75 -10 -129 l17 -37 4 35 c7 71 69 104 163 88 89 -15 191 -11 248 11 102 38 166 114 226 266 15 39 30 75 34 80 11 18 12 -86 1 -159z"/>
 </g>
<g id="layer122" fill="#3c4521" stroke="none">
 <path d="M135 1953 c3 -27 18 -74 33 -107 32 -73 72 -100 179 -122 75 -15 310 -91 352 -114 38 -20 22 8 -26 46 -27 21 -60 49 -76 63 l-27 25 32 33 c27 28 30 35 18 43 -20 13 -39 12 -20 0 13 -9 11 -14 -12 -35 -16 -13 -28 -28 -28 -34 0 -5 26 -33 58 -61 31 -29 48 -49 37 -44 -99 38 -280 94 -320 100 -41 5 -96 25 -114 40 -1 1 8 18 22 36 26 35 57 92 57 105 0 4 -14 -17 -31 -47 -49 -91 -54 -92 -83 -29 -13 30 -28 75 -31 102 -4 26 -12 47 -17 47 -7 0 -8 -18 -3 -47z"/>
 <path d="M559 1930 c-17 -56 -19 -73 -9 -85 7 -8 18 -15 24 -15 6 0 3 5 -6 11 -16 9 -16 14 7 76 28 72 30 83 15 83 -5 0 -19 -32 -31 -70z"/>
 <path d="M777 1867 c-21 -77 -37 -156 -37 -186 0 -29 -5 -61 -11 -73 -6 -11 -8 -22 -5 -26 12 -11 18 8 27 82 5 41 23 118 39 170 35 113 45 166 34 166 -5 0 -26 -60 -47 -133z"/>
 <path d="M935 1954 c3 -26 12 -58 18 -71 9 -21 7 -27 -17 -46 l-27 -22 37 -37 c20 -21 44 -38 53 -38 9 0 32 16 51 35 l34 35 -26 26 c-22 22 -24 31 -18 62 4 21 10 52 14 70 l6 32 -66 0 -66 0 7 -46z"/>
 <path d="M1175 1963 c4 -21 18 -72 31 -113 13 -41 31 -117 39 -169 8 -52 17 -96 20 -99 11 -12 16 8 6 26 -6 12 -11 44 -11 73 0 56 -69 319 -84 319 -4 0 -5 -17 -1 -37z"/>
 <path d="M1400 1990 c0 -5 11 -39 24 -75 23 -60 24 -65 8 -74 -9 -6 -12 -11 -6 -11 6 0 17 7 24 15 10 12 8 28 -10 85 -12 39 -26 70 -31 70 -5 0 -9 -4 -9 -10z"/>
 <path d="M1845 1953 c-3 -27 -18 -72 -31 -102 -29 -63 -34 -62 -83 29 -17 30 -31 51 -31 47 0 -13 31 -70 57 -105 14 -18 23 -35 22 -36 -18 -15 -73 -35 -114 -40 -40 -6 -221 -62 -320 -100 -11 -5 6 15 38 44 31 28 57 56 57 61 0 6 -12 21 -27 34 -24 21 -26 26 -13 35 19 12 0 13 -20 0 -12 -8 -9 -15 18 -43 l32 -33 -27 -25 c-16 -14 -49 -42 -75 -63 -27 -20 -48 -42 -48 -48 0 -7 4 -7 13 -1 20 16 281 101 363 118 104 21 144 49 176 121 29 65 46 154 30 154 -5 0 -13 -21 -17 -47z"/>
 <path d="M1108 1389 c24 -25 14 -39 -30 -39 -54 0 -83 15 -51 27 14 5 -7 9 -63 10 -75 2 -85 0 -95 -18 -8 -16 -7 -26 6 -45 20 -30 73 -64 100 -63 13 0 7 6 -18 16 -57 23 -41 38 41 38 81 0 111 -16 78 -41 -11 -8 -15 -14 -9 -14 20 0 53 35 61 65 11 39 5 62 -16 70 -14 5 -15 4 -4 -6z m-128 -29 c22 -11 59 -20 85 -20 33 0 45 -4 42 -12 -2 -7 -11 -11 -18 -8 -8 2 -57 5 -109 6 -95 2 -109 7 -96 39 8 21 50 19 96 -5z"/>
 <path d="M703 1072 c-92 -27 -105 -162 -26 -269 17 -23 39 -37 75 -48 49 -14 54 -14 92 5 46 23 72 54 81 96 l6 29 -14 -30 c-40 -87 -148 -115 -210 -57 -42 39 -67 95 -67 147 0 59 13 83 55 101 95 39 204 -13 230 -111 8 -31 14 -40 14 -25 1 36 -32 103 -63 128 -15 11 -49 25 -77 31 -55 12 -63 12 -96 3z"/>
 <path d="M1153 1055 c-60 -26 -86 -99 -63 -180 7 -25 23 -56 35 -69 28 -30 88 -48 118 -36 18 7 14 9 -20 9 -107 2 -171 154 -99 238 19 22 33 27 83 31 80 6 118 -14 145 -74 30 -69 9 -135 -55 -174 -38 -23 -29 -27 13 -5 47 24 70 62 70 115 0 61 -31 108 -90 138 -50 25 -91 27 -137 7z"/>
 </g>
<g id="layer123" fill="#332f2b" stroke="none">
 <path d="M135 1953 c3 -27 18 -74 33 -107 32 -73 72 -100 179 -122 75 -15 310 -91 352 -114 38 -20 22 8 -26 46 -27 21 -60 49 -76 63 l-27 25 32 33 c27 28 30 35 18 43 -20 13 -39 12 -20 0 13 -9 11 -14 -12 -35 -16 -13 -28 -28 -28 -34 0 -5 26 -33 58 -61 31 -29 48 -49 37 -44 -99 38 -280 94 -320 100 -41 5 -96 25 -114 40 -1 1 8 18 22 36 26 35 57 92 57 105 0 4 -14 -17 -31 -47 -49 -91 -54 -92 -83 -29 -13 30 -28 75 -31 102 -4 26 -12 47 -17 47 -7 0 -8 -18 -3 -47z"/>
 <path d="M559 1930 c-17 -56 -19 -73 -9 -85 7 -8 18 -15 24 -15 6 0 3 5 -6 11 -16 9 -16 14 7 76 28 72 30 83 15 83 -5 0 -19 -32 -31 -70z"/>
 <path d="M777 1867 c-21 -77 -37 -156 -37 -186 0 -29 -5 -61 -11 -73 -6 -11 -8 -22 -5 -26 12 -11 18 8 27 82 5 41 23 118 39 170 35 113 45 166 34 166 -5 0 -26 -60 -47 -133z"/>
 <path d="M935 1954 c3 -26 12 -58 18 -71 9 -21 7 -27 -17 -46 l-27 -22 37 -37 c20 -21 44 -38 53 -38 9 0 32 16 51 35 l34 35 -27 28 c-23 24 -25 32 -18 62 5 19 12 50 15 68 l6 32 -66 0 -66 0 7 -46z"/>
 <path d="M1175 1963 c4 -21 18 -72 31 -113 13 -41 31 -117 39 -169 8 -52 17 -96 20 -99 11 -12 16 8 6 26 -6 12 -11 44 -11 73 0 56 -69 319 -84 319 -4 0 -5 -17 -1 -37z"/>
 <path d="M1400 1990 c0 -5 11 -39 24 -75 23 -60 24 -65 8 -74 -9 -6 -12 -11 -6 -11 6 0 17 7 24 15 10 12 8 28 -10 85 -12 39 -26 70 -31 70 -5 0 -9 -4 -9 -10z"/>
 <path d="M1845 1953 c-3 -27 -18 -72 -31 -102 -29 -63 -34 -62 -83 29 -17 30 -31 51 -31 47 0 -13 31 -70 57 -105 14 -18 23 -35 22 -36 -18 -15 -73 -35 -114 -40 -40 -6 -221 -62 -320 -100 -11 -5 6 15 38 44 31 28 57 56 57 61 0 6 -12 21 -27 34 -24 21 -26 26 -13 35 19 12 0 13 -20 0 -12 -8 -9 -15 18 -43 l32 -33 -27 -25 c-16 -14 -49 -42 -75 -63 -27 -20 -48 -42 -48 -48 0 -7 4 -7 13 -1 20 16 281 101 363 118 104 21 144 49 176 121 29 65 46 154 30 154 -5 0 -13 -21 -17 -47z"/>
 <path d="M1108 1389 c24 -25 14 -39 -30 -39 -54 0 -83 15 -51 27 14 5 -8 9 -63 10 -74 1 -85 -1 -94 -18 -19 -35 32 -91 96 -104 24 -5 23 -3 -9 11 -56 25 -41 39 41 39 81 0 111 -16 78 -41 -11 -8 -15 -14 -9 -14 20 0 53 35 61 65 11 39 5 62 -16 70 -14 5 -15 4 -4 -6z m-128 -29 c22 -11 59 -20 85 -20 33 0 45 -4 42 -12 -2 -7 -11 -11 -18 -8 -8 2 -57 5 -109 6 -95 2 -109 7 -96 39 8 21 50 19 96 -5z"/>
 <path d="M703 1072 c-66 -20 -91 -86 -67 -177 21 -83 53 -121 116 -140 49 -14 54 -14 93 5 42 21 91 88 82 113 -3 7 -6 5 -6 -5 -2 -29 -60 -87 -99 -97 -46 -13 -80 -5 -115 28 -68 62 -89 174 -44 226 56 66 214 29 253 -59 7 -17 13 -24 14 -15 0 28 -44 83 -80 101 -41 19 -116 30 -147 20z"/>
 <path d="M1154 1056 c-34 -15 -64 -51 -64 -76 0 -8 9 0 20 18 11 18 32 37 46 42 37 15 111 12 143 -4 79 -41 90 -162 20 -220 -17 -14 -25 -26 -19 -26 7 0 27 15 46 34 30 30 34 41 34 84 0 63 -30 109 -90 140 -50 25 -91 27 -136 8z"/>
 <path d="M1081 934 c-3 -99 90 -193 162 -164 18 7 15 9 -19 9 -68 1 -115 52 -134 144 -7 37 -8 39 -9 11z"/>
 </g>
<g id="layer124" fill="#4c1d11" stroke="none">
 <path d="M135 1953 c3 -27 18 -74 33 -107 32 -73 72 -100 179 -122 75 -15 310 -91 352 -114 38 -20 22 8 -26 46 -27 21 -60 49 -76 63 l-27 25 32 33 c27 28 30 35 18 43 -20 13 -39 12 -20 0 13 -9 11 -14 -12 -35 -16 -13 -28 -28 -28 -34 0 -5 26 -33 58 -61 31 -29 48 -49 37 -44 -99 38 -280 94 -320 100 -41 5 -96 25 -114 40 -1 1 8 18 22 36 26 35 57 92 57 105 0 4 -14 -17 -31 -47 -49 -91 -54 -92 -83 -29 -13 30 -28 75 -31 102 -4 26 -12 47 -17 47 -7 0 -8 -18 -3 -47z"/>
 <path d="M559 1930 c-17 -56 -19 -73 -9 -85 7 -8 18 -15 24 -15 6 0 3 5 -6 11 -16 9 -16 14 7 76 28 72 30 83 15 83 -5 0 -19 -32 -31 -70z"/>
 <path d="M777 1867 c-21 -77 -37 -156 -37 -186 0 -29 -5 -61 -11 -73 -6 -11 -8 -22 -5 -26 12 -11 18 8 27 82 5 41 23 118 39 170 35 113 45 166 34 166 -5 0 -26 -60 -47 -133z"/>
 <path d="M930 1982 c0 -10 7 -43 16 -72 l16 -54 -27 -19 -26 -20 37 -38 c21 -22 45 -39 54 -39 9 0 32 16 51 36 l34 35 -28 25 c-28 24 -29 26 -17 77 6 29 13 60 15 70 3 15 -5 17 -61 17 -55 0 -64 -2 -64 -18z"/>
 <path d="M1175 1963 c4 -21 18 -72 31 -113 13 -41 31 -117 39 -169 8 -52 17 -96 20 -99 11 -12 16 8 6 26 -6 12 -11 44 -11 73 0 56 -69 319 -84 319 -4 0 -5 -17 -1 -37z"/>
 <path d="M1400 1990 c0 -5 11 -39 24 -75 23 -60 24 -65 8 -74 -9 -6 -12 -11 -6 -11 6 0 17 7 24 15 10 12 8 28 -10 85 -12 39 -26 70 -31 70 -5 0 -9 -4 -9 -10z"/>
 <path d="M1845 1953 c-3 -27 -18 -72 -31 -102 -29 -63 -34 -62 -83 29 -17 30 -31 51 -31 47 0 -13 31 -70 57 -105 14 -18 23 -35 22 -36 -18 -15 -73 -35 -114 -40 -40 -6 -221 -62 -320 -100 -11 -5 6 15 38 44 31 28 57 56 57 61 0 6 -12 21 -27 34 -24 21 -26 26 -13 35 19 12 0 13 -20 0 -12 -8 -9 -15 18 -43 l32 -33 -27 -25 c-16 -14 -49 -42 -75 -63 -27 -20 -48 -42 -48 -48 0 -7 4 -7 13 -1 20 16 281 101 363 118 104 21 144 49 176 121 29 65 46 154 30 154 -5 0 -13 -21 -17 -47z"/>
 <path d="M1108 1390 c23 -26 14 -40 -27 -40 -45 0 -73 8 -66 20 3 4 -25 11 -62 15 -57 6 -69 4 -79 -10 -13 -17 -9 -39 9 -63 13 -16 81 -52 99 -52 7 0 -6 9 -30 20 -24 11 -41 24 -37 30 10 15 138 12 160 -4 17 -12 18 -16 5 -32 -14 -17 -14 -17 11 0 41 26 53 93 22 117 -15 11 -16 11 -5 -1z m-128 -30 c22 -11 59 -20 85 -20 33 0 45 -4 42 -12 -2 -7 -11 -11 -18 -8 -8 2 -57 5 -109 6 -95 2 -109 7 -96 39 8 21 50 19 96 -5z"/>
 <path d="M710 1069 c-40 -8 -80 -50 -80 -82 0 -18 3 -15 18 13 20 40 53 60 102 60 57 0 107 -19 141 -53 23 -22 29 -25 21 -10 -29 53 -126 88 -202 72z"/>
 <path d="M1155 1051 c-39 -17 -75 -64 -62 -78 4 -3 7 1 7 9 0 9 14 28 31 42 25 22 41 26 92 27 44 0 56 3 42 9 -32 14 -67 11 -110 -9z"/>
 <path d="M1361 962 c16 -46 3 -96 -34 -139 -32 -36 -32 -36 -4 -18 15 10 35 31 43 46 18 36 18 100 -1 125 -13 17 -14 16 -4 -14z"/>
 <path d="M631 915 c-1 -25 41 -116 61 -133 8 -6 36 -18 60 -26 41 -12 50 -12 90 6 44 19 89 75 88 109 -1 8 -7 0 -14 -16 -7 -17 -28 -43 -45 -58 -84 -71 -188 -27 -227 96 -7 23 -13 33 -13 22z"/>
 <path d="M1091 882 c-2 -28 51 -102 73 -102 5 0 -4 15 -21 33 -18 17 -36 43 -42 57 -5 14 -10 19 -10 12z"/>
 </g>
<g id="layer125" fill="#381104" stroke="none">
 <path d="M138 1981 c-4 -13 -2 -33 3 -43 5 -10 7 -23 4 -28 -3 -5 -1 -11 5 -15 6 -4 8 -11 5 -16 -4 -5 -2 -9 3 -9 5 0 12 -10 15 -22 4 -12 9 -20 12 -17 3 3 -2 23 -11 45 -9 21 -19 59 -23 84 -6 38 -8 41 -13 21z"/>
 <path d="M587 1993 c-10 -17 -37 -117 -28 -108 11 13 42 107 37 112 -2 3 -6 1 -9 -4z"/>
 <path d="M821 1999 c0 -3 -17 -59 -36 -125 -21 -67 -38 -149 -40 -189 l-4 -70 9 60 c4 33 25 114 45 179 19 66 34 127 32 135 -3 9 -5 13 -6 10z"/>
 <path d="M930 1982 c0 -10 7 -43 16 -72 l16 -54 -27 -19 -26 -20 37 -38 c21 -22 45 -39 54 -39 9 0 32 16 51 36 l34 35 -28 25 c-28 24 -29 26 -17 77 6 29 13 60 15 70 3 15 -5 17 -61 17 -55 0 -64 -2 -64 -18z"/>
 <path d="M1170 1989 c0 -7 16 -68 35 -134 19 -66 39 -147 45 -180 l9 -60 -3 65 c-2 36 -20 121 -40 189 -36 122 -46 149 -46 120z"/>
 <path d="M1400 1999 c0 -13 34 -105 41 -114 5 -5 2 15 -7 45 -13 46 -34 88 -34 69z"/>
 <path d="M1846 1954 c-3 -27 -20 -78 -36 -112 -34 -72 -36 -78 -16 -60 8 7 12 16 10 19 -2 4 6 19 17 33 11 15 22 32 23 39 1 6 5 18 9 25 5 6 6 16 2 22 -3 5 0 18 6 28 8 13 9 24 2 37 -8 14 -11 8 -17 -31z"/>
 <path d="M1370 1812 c0 -4 16 -23 35 -42 19 -19 35 -31 35 -27 0 4 -16 23 -35 43 -19 19 -35 31 -35 26z"/>
 <path d="M598 1789 c-10 -5 -23 -20 -29 -32 -10 -18 -6 -17 20 7 39 37 42 45 9 25z"/>
 <path d="M256 1755 c6 -15 30 -21 107 -30 65 -7 59 1 -10 15 -32 6 -68 15 -80 20 -17 7 -21 6 -17 -5z"/>
 <path d="M1730 1761 c-8 -5 -33 -12 -55 -15 -71 -12 -155 -38 -150 -46 3 -5 18 -2 33 6 15 7 50 16 77 19 80 9 103 15 109 31 6 16 6 16 -14 5z"/>
 <path d="M440 1706 c14 -7 29 -10 34 -8 11 6 -20 20 -44 21 -8 0 -4 -5 10 -13z"/>
 <path d="M490 1689 c0 -5 4 -7 10 -4 5 3 20 -1 32 -8 13 -8 54 -25 92 -37 38 -12 77 -31 87 -41 10 -10 20 -15 22 -11 3 4 -9 21 -25 37 -17 17 -27 24 -24 18 9 -17 12 -18 -87 22 -93 38 -107 41 -107 24z"/>
 <path d="M1401 1665 c-97 -40 -94 -39 -85 -22 3 6 -7 -1 -24 -18 -16 -16 -27 -33 -25 -38 2 -4 12 1 21 12 9 10 49 29 87 41 39 13 73 28 77 34 4 6 8 7 8 2 0 -5 7 -3 15 4 8 6 19 9 25 5 5 -3 10 -1 10 4 0 17 -19 13 -109 -24z"/>
 <path d="M871 1372 c-14 -27 7 -63 54 -89 22 -13 47 -23 55 -23 8 0 -4 9 -28 20 -24 11 -41 24 -37 30 10 15 138 12 160 -4 17 -12 18 -16 5 -32 -14 -17 -14 -17 11 0 28 18 39 44 38 86 -1 17 -3 19 -6 8 -3 -13 -15 -18 -41 -18 -48 0 -83 10 -76 21 3 5 -7 9 -23 9 l-27 0 24 -17 c13 -9 48 -19 77 -21 34 -3 52 -9 50 -16 -3 -6 -11 -9 -18 -6 -8 3 -57 5 -109 6 -94 0 -95 1 -95 25 0 20 6 25 35 30 l35 6 -37 2 c-27 1 -40 -4 -47 -17z"/>
 <path d="M710 1069 c-40 -8 -80 -50 -80 -82 0 -18 3 -15 18 13 20 40 53 60 102 60 57 0 107 -19 141 -53 23 -22 29 -25 21 -10 -29 53 -126 88 -202 72z"/>
 <path d="M1155 1051 c-39 -17 -75 -64 -62 -78 4 -3 7 1 7 9 0 9 14 28 31 42 25 22 41 26 92 27 44 0 56 3 42 9 -32 14 -67 11 -110 -9z"/>
 <path d="M1361 962 c16 -46 3 -96 -34 -139 -32 -36 -32 -36 -4 -18 15 10 35 31 43 46 18 36 18 100 -1 125 -13 17 -14 16 -4 -14z"/>
 <path d="M631 915 c-1 -25 41 -116 61 -133 8 -6 36 -18 62 -26 43 -13 49 -12 88 8 43 21 88 76 88 105 -1 9 -7 2 -14 -14 -7 -17 -28 -43 -45 -58 -84 -71 -188 -27 -227 96 -7 23 -13 33 -13 22z"/>
 <path d="M1091 882 c-2 -28 51 -102 73 -102 5 0 -4 15 -21 33 -18 17 -36 43 -42 57 -5 14 -10 19 -10 12z"/>
 </g>
<g id="layer126" fill="#0b0a0a" stroke="none">
 <path d="M930 1982 c0 -10 7 -43 16 -72 l16 -54 -27 -19 -26 -20 37 -38 c21 -22 45 -39 54 -39 9 0 32 16 51 36 l34 35 -28 25 c-28 24 -29 26 -17 77 6 29 13 60 15 70 3 15 -5 17 -61 17 -55 0 -64 -2 -64 -18z"/>
 <path d="M871 1372 c-14 -27 7 -63 54 -89 22 -13 47 -23 55 -23 8 0 -4 9 -28 20 -24 11 -41 24 -37 30 3 5 -1 10 -9 10 -8 0 -20 9 -26 19 -8 16 -6 23 12 35 18 13 19 16 6 16 -10 0 -22 -8 -27 -18z"/>
 <path d="M983 1364 c16 -9 31 -13 35 -10 3 3 0 6 -7 6 -7 0 -9 5 -6 10 4 6 -6 10 -22 10 l-28 -1 28 -15z"/>
 <path d="M1075 1349 l-50 -6 43 -1 c30 -2 42 -6 39 -14 -2 -7 -15 -12 -28 -10 -23 2 -23 2 -4 -12 17 -12 18 -16 5 -32 -14 -17 -14 -17 12 0 22 14 49 73 36 79 -1 1 -25 0 -53 -4z"/>
 <path d="M958 1323 c17 -2 47 -2 65 0 17 2 3 4 -33 4 -36 0 -50 -2 -32 -4z"/>
 <path d="M710 1069 c-40 -8 -80 -50 -80 -82 0 -18 3 -15 18 13 20 40 53 60 102 60 57 0 107 -19 141 -53 23 -22 29 -25 21 -10 -29 53 -126 88 -202 72z"/>
 <path d="M1155 1051 c-39 -17 -75 -64 -62 -78 4 -3 7 1 7 9 0 9 14 28 31 42 25 22 41 26 92 27 44 0 56 3 42 9 -32 14 -67 11 -110 -9z"/>
 <path d="M1361 962 c16 -46 3 -96 -34 -139 -32 -36 -32 -36 -4 -18 15 10 35 31 43 46 18 36 18 100 -1 125 -13 17 -14 16 -4 -14z"/>
 <path d="M631 915 c-1 -25 41 -116 61 -133 8 -6 36 -18 62 -26 43 -13 49 -12 88 8 43 21 88 76 88 105 -1 9 -7 2 -14 -14 -7 -17 -28 -43 -45 -58 -84 -71 -188 -27 -227 96 -7 23 -13 33 -13 22z"/>
 <path d="M1091 882 c-2 -28 51 -102 73 -102 5 0 -4 15 -21 33 -18 17 -36 43 -42 57 -5 14 -10 19 -10 12z"/>
 </g>

</svg>