<!DOCTYPE svg PUBLIC "-//W3C//DTD SVG 20010904//EN" "http://www.w3.org/TR/2001/REC-SVG-20010904/DTD/svg10.dtd">
<svg version="1.0" xmlns="http://www.w3.org/2000/svg" width="200px" height="200px" viewBox="0 0 2000 2000" preserveAspectRatio="xMidYMid meet">
<g id="layer101" fill="#0b0a0a" stroke="none">
 <path d="M133 1949 c10 -85 48 -153 104 -188 26 -17 59 -31 72 -31 43 0 187 -41 266 -75 17 -8 51 -19 77 -25 52 -13 80 -38 102 -91 l15 -36 -50 -39 c-27 -22 -63 -49 -78 -61 -19 -15 -30 -35 -35 -61 -10 -67 -45 -136 -79 -157 -24 -15 -35 -32 -43 -66 -12 -49 -33 -89 -64 -129 -12 -14 -23 -48 -27 -77 -5 -49 -4 -54 24 -80 29 -28 29 -28 16 -78 -7 -27 -14 -84 -14 -125 -1 -64 4 -88 31 -154 34 -81 98 -158 151 -180 14 -6 49 -36 77 -67 28 -31 77 -70 110 -87 55 -30 67 -32 157 -32 85 0 112 5 209 36 128 42 185 69 241 114 61 49 121 136 141 204 18 64 23 190 11 286 -7 54 -6 55 26 75 27 17 32 27 35 66 2 33 -3 56 -18 80 -37 62 -70 134 -70 155 0 20 -48 74 -66 74 -11 0 -54 115 -54 145 -1 28 -14 42 -97 104 -40 30 -73 57 -73 59 0 2 14 25 32 52 30 47 35 49 157 93 135 49 235 77 271 77 13 0 46 13 74 30 44 24 57 39 79 88 17 37 27 75 27 105 l0 47 -871 0 -872 0 6 -51z"/>
 </g>
<g id="layer102" fill="#36110a" stroke="none">
 <path d="M133 1951 c9 -78 54 -155 110 -191 26 -16 59 -30 73 -30 33 0 192 -45 265 -75 32 -13 71 -26 87 -30 36 -7 66 -38 86 -86 l15 -36 -50 -39 c-27 -22 -63 -49 -78 -61 -19 -15 -30 -35 -35 -61 -10 -67 -45 -136 -79 -157 -24 -15 -35 -32 -43 -66 -12 -49 -33 -89 -64 -129 -12 -14 -23 -48 -27 -77 -5 -49 -4 -54 24 -80 29 -28 29 -28 16 -78 -7 -27 -14 -84 -14 -125 -1 -64 4 -88 31 -154 34 -81 98 -158 151 -180 14 -6 49 -36 77 -67 28 -31 77 -70 110 -87 55 -30 67 -32 157 -32 85 0 112 5 209 36 128 42 185 69 241 114 61 49 121 136 141 204 18 64 23 190 11 286 -7 54 -6 55 26 75 27 17 32 27 35 66 2 33 -3 56 -18 80 -37 62 -70 134 -70 155 0 20 -48 74 -66 74 -11 0 -54 115 -54 145 -1 28 -14 42 -97 104 -40 30 -73 56 -73 57 0 2 10 20 22 41 39 67 26 60 248 136 41 14 104 31 140 37 36 7 88 24 116 38 45 22 56 35 83 89 21 42 31 78 31 108 l0 45 -409 0 -408 0 -7 -42 c-4 -24 -9 -53 -12 -64 -4 -15 3 -29 22 -48 l28 -25 -24 -27 c-39 -41 -58 -48 -86 -30 -13 9 -31 28 -40 41 -16 24 -15 26 9 45 25 20 26 22 11 62 -7 22 -14 51 -14 64 l0 24 -406 0 -407 0 6 -49z"/>
 </g>
<g id="layer103" fill="#501c10" stroke="none">
 <path d="M140 1992 c0 -19 34 -120 51 -154 24 -48 52 -61 196 -98 125 -32 147 -39 231 -77 29 -13 57 -21 62 -18 5 3 17 -3 27 -14 11 -13 20 -17 24 -10 3 6 6 -2 6 -18 0 -15 7 -44 16 -64 l16 -36 -50 -39 c-27 -22 -63 -49 -78 -61 -19 -15 -30 -35 -35 -61 -10 -67 -45 -136 -79 -157 -24 -15 -35 -32 -43 -66 -12 -49 -33 -89 -64 -129 -12 -14 -23 -48 -27 -77 -5 -49 -4 -54 24 -80 29 -28 29 -28 16 -78 -14 -56 -19 -141 -10 -196 16 -99 106 -231 178 -263 14 -6 49 -36 77 -67 28 -31 77 -70 110 -87 55 -30 67 -32 157 -32 85 0 112 5 209 36 128 42 185 69 241 114 61 49 121 136 141 204 18 64 23 190 11 286 -7 54 -6 55 26 75 27 17 32 27 35 66 2 33 -3 56 -18 80 -37 62 -70 134 -70 155 0 20 -48 74 -66 74 -11 0 -54 115 -54 145 -1 28 -14 42 -97 104 -40 30 -73 56 -73 58 0 1 9 17 20 35 11 18 20 42 20 53 0 20 32 47 60 51 8 1 50 15 92 33 42 17 125 43 185 57 163 40 178 48 212 119 16 33 32 79 36 103 l7 42 -221 0 c-122 0 -221 -2 -221 -4 0 -3 5 -17 11 -33 21 -52 28 -84 18 -78 -5 4 -9 11 -9 18 0 6 -7 31 -16 54 l-17 43 -108 0 c-60 0 -109 -1 -109 -3 0 -2 16 -59 35 -128 19 -68 37 -151 40 -184 l5 -60 -14 71 c-7 39 -25 107 -39 153 -15 45 -29 97 -33 116 l-6 35 -63 0 -62 0 -11 -62 c-10 -61 -9 -64 16 -91 l26 -27 -34 -35 c-19 -19 -40 -35 -47 -35 -15 0 -83 58 -83 72 0 6 11 19 25 30 14 11 22 25 18 31 -4 6 -12 34 -18 62 l-11 50 -51 3 c-46 3 -52 1 -58 -20 -4 -13 -18 -59 -32 -103 -14 -44 -31 -111 -38 -150 -9 -48 -13 -59 -14 -35 -1 36 12 92 48 217 12 40 21 77 21 83 0 6 -42 10 -109 10 l-109 0 -18 -55 c-9 -31 -19 -53 -22 -51 -2 3 3 26 12 52 9 26 16 49 16 51 0 2 -99 3 -220 3 -121 0 -220 -4 -220 -8z"/>
 </g>
<g id="layer104" fill="#582818" stroke="none">
 <path d="M154 1954 c3 -25 19 -71 36 -102 25 -46 38 -60 73 -74 23 -10 49 -18 57 -18 26 -1 213 -57 279 -84 35 -14 67 -23 70 -20 3 3 -1 9 -9 14 -8 5 -24 16 -35 25 -19 16 -19 16 3 5 13 -7 41 -27 62 -46 l37 -34 7 38 c3 20 6 50 6 65 0 15 16 82 35 148 19 67 35 123 35 125 0 3 -48 3 -106 2 l-106 -3 -24 -64 c-12 -36 -20 -70 -17 -75 3 -6 0 -5 -8 2 -11 10 -10 23 8 77 l21 65 -215 0 -216 0 7 -46z m116 -73 c0 -5 -9 -19 -21 -32 l-20 -24 17 33 c19 33 24 38 24 23z m360 -59 c0 -5 -16 -23 -35 -41 -41 -37 -48 -19 -7 20 28 28 42 35 42 21z"/>
 <path d="M820 1958 c-6 -24 -22 -77 -35 -118 -21 -66 -52 -228 -48 -255 0 -5 8 -26 17 -46 l15 -36 -50 -39 c-27 -22 -63 -49 -78 -61 -19 -15 -30 -35 -35 -61 -10 -67 -45 -136 -79 -157 -24 -15 -35 -32 -43 -66 -12 -49 -33 -89 -64 -129 -12 -14 -23 -48 -27 -77 -5 -49 -4 -54 24 -80 26 -24 28 -32 21 -58 -9 -31 -20 -114 -20 -150 0 -138 89 -288 200 -336 24 -10 41 -23 38 -28 -9 -13 86 -96 142 -125 45 -23 64 -26 148 -26 84 0 111 5 208 36 128 42 185 69 241 114 61 49 121 136 141 204 18 64 23 190 11 286 -7 54 -6 55 26 75 27 17 32 27 35 66 2 33 -3 56 -18 80 -37 62 -70 134 -70 155 0 20 -48 74 -66 74 -11 0 -54 115 -54 145 -1 28 -14 42 -97 104 -40 30 -73 56 -73 57 0 2 9 19 21 38 19 33 20 41 9 113 -6 43 -27 130 -46 194 -19 64 -34 123 -34 133 0 13 -11 16 -64 16 l-63 0 -11 -62 c-10 -61 -9 -64 16 -91 l26 -27 -34 -35 c-19 -19 -40 -35 -47 -35 -15 0 -83 58 -83 72 0 6 11 19 25 30 14 11 22 25 18 31 -4 6 -12 34 -18 62 l-11 50 -52 3 -51 3 -11 -43z"/>
 <path d="M1200 1989 c0 -7 14 -60 31 -118 17 -58 33 -139 36 -178 3 -40 8 -73 11 -73 2 0 13 11 23 24 10 13 36 34 56 45 l38 22 -35 -30 c-40 -35 -27 -40 29 -11 46 23 268 90 300 90 12 0 40 9 62 21 33 16 46 32 69 82 15 34 31 79 34 100 l7 37 -80 0 c-54 0 -81 -4 -84 -12 -4 -10 -6 -10 -6 0 -1 9 -34 12 -131 12 -71 0 -130 -4 -130 -8 0 -5 9 -35 20 -67 23 -68 23 -65 10 -65 -5 0 -13 12 -16 28 -4 15 -15 46 -25 70 l-18 42 -101 0 c-68 0 -100 -4 -100 -11z m571 -154 c7 -13 3 -12 -10 5 -11 14 -21 30 -21 35 0 11 14 -7 31 -40z m-353 -39 c20 -19 34 -38 31 -41 -6 -5 -79 61 -79 71 0 10 14 1 48 -30z"/>
 </g>
<g id="layer105" fill="#951808" stroke="none">
 <path d="M154 1958 c10 -65 57 -150 92 -170 17 -10 58 -23 90 -29 48 -9 152 -40 309 -94 13 -4 10 1 -10 17 -16 13 -43 35 -60 50 l-30 27 28 28 c31 33 34 43 12 43 -8 0 -24 9 -35 20 -19 19 -19 20 0 76 11 31 20 61 20 66 0 5 -57 7 -127 6 l-127 -3 -6 -30 c-8 -35 -41 -99 -69 -135 -29 -36 -26 -25 19 65 22 44 40 85 40 92 0 9 -21 13 -76 13 l-77 0 7 -42z"/>
 <path d="M600 1996 c0 -1 -11 -33 -24 -69 l-23 -65 43 -18 44 -18 -35 -36 -35 -36 22 -21 c13 -11 44 -34 70 -52 26 -17 52 -39 57 -49 8 -12 10 2 11 56 0 55 8 98 35 181 19 59 35 113 35 119 0 8 -31 12 -100 12 -55 0 -100 -2 -100 -4z"/>
 <path d="M797 1878 c-32 -106 -59 -238 -60 -288 0 -8 7 -31 16 -51 l16 -36 -50 -39 c-27 -22 -63 -49 -78 -61 -19 -15 -30 -35 -35 -61 -10 -67 -45 -136 -79 -157 -24 -15 -35 -32 -43 -66 -12 -49 -33 -89 -64 -129 -12 -14 -23 -48 -27 -77 -5 -49 -4 -54 24 -80 26 -24 28 -32 21 -58 -9 -31 -20 -114 -20 -150 0 -138 89 -288 200 -336 24 -10 41 -23 38 -28 -9 -13 86 -96 142 -125 45 -23 64 -26 148 -26 84 0 111 5 208 36 128 42 185 69 241 114 61 49 121 136 141 204 18 64 23 190 11 286 -7 54 -6 55 26 75 27 17 32 27 35 66 2 33 -3 56 -18 80 -37 62 -70 134 -70 155 0 20 -48 74 -66 74 -11 0 -54 115 -54 145 -1 28 -14 42 -97 104 -40 30 -73 56 -73 57 0 2 9 19 21 38 19 33 20 41 9 108 -7 40 -27 128 -46 195 -19 67 -34 129 -34 137 0 13 -12 16 -64 16 l-63 0 -11 -62 c-10 -61 -9 -64 16 -90 27 -30 24 -41 -23 -80 -30 -26 -45 -22 -87 19 l-38 37 27 22 c29 23 29 12 -4 137 -3 13 -15 17 -52 17 l-47 0 -37 -122z"/>
 <path d="M1206 1973 c4 -16 20 -66 36 -112 21 -63 28 -104 28 -158 0 -40 3 -73 6 -73 4 0 23 15 44 33 20 17 54 45 74 61 l38 28 -33 34 c-32 33 -32 34 -13 49 10 8 27 15 36 15 28 0 28 14 2 84 l-26 66 -99 0 -99 0 6 -27z"/>
 <path d="M1434 1983 c4 -9 14 -39 23 -67 16 -48 16 -49 -6 -68 -13 -10 -29 -18 -37 -18 -21 0 -17 -16 11 -38 14 -11 25 -24 25 -30 0 -12 -88 -92 -101 -92 -5 0 -9 -4 -9 -9 0 -6 21 0 48 11 59 27 258 88 284 88 11 0 42 10 69 21 57 25 80 60 103 159 l14 60 -80 0 c-78 0 -79 0 -72 -22 9 -31 46 -107 69 -143 l19 -30 -23 20 c-28 24 -51 64 -71 125 l-15 45 -129 3 c-118 2 -128 1 -122 -15z"/>
 </g>
<g id="layer106" fill="#653220" stroke="none">
 <path d="M154 1958 c10 -65 57 -150 92 -170 17 -10 58 -23 90 -29 48 -9 152 -40 309 -94 13 -4 10 1 -10 17 -16 13 -43 35 -60 50 l-30 27 28 28 c31 33 34 43 12 43 -8 0 -24 9 -35 20 -19 19 -19 20 0 76 11 31 20 61 20 66 0 5 -57 7 -127 6 l-127 -3 -6 -30 c-8 -35 -41 -99 -69 -135 -29 -36 -26 -25 19 65 22 44 40 85 40 92 0 9 -21 13 -76 13 l-77 0 7 -42z"/>
 <path d="M600 1996 c0 -1 -11 -33 -24 -69 l-23 -65 43 -18 44 -18 -35 -36 -35 -36 22 -21 c13 -11 44 -34 70 -52 26 -17 52 -39 57 -49 8 -12 10 2 11 56 0 55 8 98 35 181 19 59 35 113 35 119 0 8 -31 12 -100 12 -55 0 -100 -2 -100 -4z"/>
 <path d="M797 1878 c-20 -68 -41 -156 -47 -197 -6 -40 -12 -77 -15 -81 -3 -4 4 -27 14 -50 l19 -43 -54 -53 c-56 -54 -93 -122 -115 -209 -12 -46 -29 -70 -29 -40 0 12 -3 13 -12 5 -7 -5 -25 -19 -40 -31 -17 -12 -30 -33 -34 -57 -7 -41 -33 -93 -64 -132 -11 -14 -23 -48 -26 -77 -6 -45 -4 -54 18 -76 13 -13 29 -26 35 -28 8 -3 8 -31 3 -93 -5 -49 -6 -112 -3 -140 8 -69 52 -163 100 -214 46 -48 76 -53 117 -21 l27 21 -17 -36 c-17 -34 -17 -36 8 -73 53 -80 177 -132 288 -119 96 11 222 47 306 87 129 61 206 149 238 274 17 63 22 215 7 215 -5 0 -16 -24 -26 -52 -30 -92 -85 -186 -138 -233 -64 -58 -159 -89 -244 -81 -32 3 -90 8 -129 12 l-70 6 -38 -36 c-30 -27 -37 -41 -34 -61 7 -37 -10 -20 -21 22 -13 48 -4 89 27 113 22 18 23 20 5 20 -40 0 -82 -80 -84 -159 l-1 -46 -19 40 c-27 57 -25 110 6 140 21 22 22 25 6 25 -10 0 -24 -6 -30 -13 -8 -10 -23 -12 -53 -7 -79 12 -104 37 -133 131 -19 63 -31 268 -20 325 7 34 10 24 22 -80 20 -186 51 -256 131 -303 44 -26 53 -28 152 -26 72 1 134 -4 199 -17 52 -11 106 -20 121 -20 82 0 185 69 232 157 34 62 73 182 83 253 10 72 20 91 29 54 9 -33 33 -64 51 -64 7 0 24 9 39 21 22 17 26 28 25 67 0 28 -8 59 -20 77 -34 53 -69 129 -69 151 0 22 -48 74 -68 74 -7 0 -12 6 -13 13 0 6 -4 4 -7 -6 -6 -13 -12 -3 -27 40 -16 51 -47 116 -81 174 -6 10 -28 32 -50 50 -21 17 -40 32 -42 34 -2 1 7 19 19 39 19 33 20 40 9 108 -7 40 -27 128 -46 195 -19 67 -34 129 -34 137 0 13 -12 16 -64 16 l-63 0 -11 -62 c-10 -61 -9 -64 16 -90 27 -30 24 -41 -23 -80 -30 -26 -45 -22 -87 19 l-38 37 27 22 c29 23 29 12 -4 137 -3 13 -15 17 -52 17 l-47 0 -37 -122z"/>
 <path d="M1206 1973 c4 -16 20 -66 36 -112 21 -63 28 -104 28 -158 0 -40 3 -73 6 -73 4 0 23 15 44 33 20 17 54 45 74 61 l38 28 -33 34 c-32 33 -32 34 -13 49 10 8 27 15 36 15 28 0 28 14 2 84 l-26 66 -99 0 -99 0 6 -27z"/>
 <path d="M1434 1983 c4 -9 14 -39 23 -67 16 -48 16 -49 -6 -68 -13 -10 -29 -18 -37 -18 -21 0 -17 -16 11 -38 14 -11 25 -24 25 -30 0 -12 -88 -92 -101 -92 -5 0 -9 -4 -9 -9 0 -6 21 0 48 11 59 27 258 88 284 88 11 0 42 10 69 21 57 25 80 60 103 159 l14 60 -80 0 c-78 0 -79 0 -72 -22 9 -31 46 -107 69 -143 l19 -30 -23 20 c-28 24 -51 64 -71 125 l-15 45 -129 3 c-118 2 -128 1 -122 -15z"/>
 </g>
<g id="layer107" fill="#724433" stroke="none">
 <path d="M157 1968 c9 -49 43 -137 55 -144 8 -5 9 -1 3 12 -19 46 -45 129 -45 146 0 10 -4 18 -10 18 -5 0 -7 -14 -3 -32z"/>
 <path d="M819 1948 c-6 -29 -22 -84 -35 -121 -13 -37 -26 -96 -30 -130 -4 -34 -11 -72 -15 -84 -6 -15 -2 -36 10 -64 l19 -42 -54 -53 c-56 -54 -93 -122 -115 -209 -12 -46 -29 -70 -29 -40 0 12 -3 13 -12 5 -7 -5 -25 -19 -40 -31 -17 -12 -30 -33 -34 -57 -7 -41 -33 -93 -64 -132 -11 -14 -23 -48 -26 -77 -6 -45 -4 -54 18 -76 13 -13 29 -26 35 -28 8 -3 8 -31 3 -93 -5 -49 -6 -112 -3 -140 8 -69 52 -163 100 -214 46 -48 76 -53 117 -21 l27 21 -17 -36 c-17 -34 -17 -36 8 -73 53 -80 177 -132 288 -119 96 11 222 47 306 87 129 61 206 149 238 274 17 63 22 215 7 215 -5 0 -16 -24 -26 -52 -30 -92 -85 -186 -138 -233 -64 -58 -159 -89 -244 -81 -32 3 -90 8 -129 12 l-70 6 -38 -36 c-30 -27 -37 -41 -34 -61 7 -37 -10 -20 -21 22 -13 48 -4 89 27 113 22 18 23 20 5 20 -40 0 -82 -80 -84 -159 l-1 -46 -19 40 c-27 57 -25 110 6 140 21 22 22 25 6 25 -10 0 -24 -6 -30 -13 -8 -10 -23 -12 -53 -7 -79 12 -104 37 -133 131 -19 63 -31 268 -20 325 7 34 10 24 22 -80 20 -186 51 -256 131 -303 44 -26 53 -28 152 -26 72 1 134 -4 199 -17 52 -11 106 -20 121 -20 82 0 185 69 232 157 34 62 73 182 83 253 10 72 20 91 29 54 9 -33 33 -64 51 -64 7 0 24 9 39 21 22 17 26 28 25 67 0 28 -8 59 -20 77 -34 53 -69 129 -69 151 0 22 -48 74 -68 74 -7 0 -12 6 -13 13 0 6 -4 4 -7 -6 -6 -13 -12 -3 -27 40 -16 51 -47 116 -81 174 -6 10 -28 32 -50 50 -21 17 -40 32 -42 34 -2 1 7 18 18 38 20 34 21 38 6 124 -13 70 -43 189 -82 321 -2 8 -24 12 -62 12 l-58 0 -11 -62 c-10 -60 -10 -64 14 -89 28 -31 22 -54 -21 -83 -36 -23 -45 -21 -88 21 l-38 37 26 21 c24 19 25 24 16 60 -6 22 -13 52 -16 68 -6 25 -10 27 -55 27 l-49 0 -13 -52z"/>
 <path d="M1836 1988 c-45 -153 -50 -181 -23 -123 23 48 43 135 32 135 -3 0 -7 -6 -9 -12z"/>
 <path d="M1752 1819 c2 -9 -18 -21 -62 -36 -36 -12 -58 -22 -50 -22 27 -1 102 19 122 33 17 12 17 14 3 26 -13 11 -16 11 -13 -1z"/>
 <path d="M226 1812 c-7 -12 58 -39 109 -46 35 -4 32 -3 -18 14 -32 10 -64 23 -71 30 -8 6 -17 7 -20 2z"/>
 </g>
<g id="layer108" fill="#a12817" stroke="none">
 <path d="M798 1872 c-48 -164 -64 -285 -44 -334 l15 -35 -38 -31 c-53 -43 -94 -109 -121 -194 -24 -75 -40 -106 -40 -75 0 13 -3 15 -12 7 -7 -5 -25 -19 -40 -31 -17 -12 -30 -33 -34 -57 -7 -41 -33 -93 -64 -132 -11 -14 -23 -48 -26 -77 -6 -45 -4 -54 18 -76 13 -13 29 -26 35 -28 8 -3 8 -31 3 -93 -5 -49 -6 -112 -3 -140 8 -69 52 -163 100 -214 46 -48 76 -53 117 -21 l27 21 -17 -36 c-17 -34 -17 -36 8 -73 53 -80 177 -132 288 -119 96 11 222 47 306 87 129 61 206 149 238 274 17 63 22 215 7 215 -5 0 -16 -24 -26 -52 -30 -92 -85 -186 -138 -233 -64 -58 -159 -89 -244 -81 -32 3 -90 8 -129 12 l-70 6 -38 -36 c-30 -27 -37 -41 -34 -61 7 -37 -10 -20 -21 22 -13 48 -4 89 27 113 22 18 23 20 5 20 -40 0 -82 -80 -84 -159 l-1 -46 -19 40 c-27 57 -25 110 6 140 21 22 22 25 6 25 -10 0 -24 -6 -30 -13 -8 -10 -23 -12 -53 -7 -79 12 -104 37 -133 131 -19 63 -31 268 -20 325 7 34 10 24 22 -80 20 -186 51 -256 131 -303 44 -26 53 -28 152 -26 72 1 134 -4 199 -17 52 -11 106 -20 121 -20 82 0 185 69 232 157 34 62 73 182 83 253 10 72 20 91 29 54 9 -33 33 -64 51 -64 7 0 24 9 39 21 22 17 26 28 25 67 0 28 -8 59 -20 77 -34 53 -69 129 -69 151 0 22 -48 74 -68 74 -7 0 -12 6 -13 13 0 6 -4 4 -7 -6 -6 -13 -12 -3 -27 40 -16 51 -47 116 -81 174 -6 10 -28 32 -50 50 -21 17 -40 32 -42 34 -2 1 7 19 19 39 14 24 19 45 15 62 -4 14 -13 64 -22 111 -8 47 -18 91 -22 97 -4 6 -16 49 -28 96 l-21 85 -60 3 -60 3 -9 -65 c-9 -62 -9 -67 13 -89 29 -28 24 -47 -24 -83 l-35 -26 -44 43 -45 44 26 21 26 21 -17 66 -16 67 -47 0 -46 0 -37 -128z"/>
 </g>
<g id="layer109" fill="#a8631c" stroke="none">
 <path d="M798 1872 c-48 -165 -64 -285 -43 -335 14 -35 14 -35 -18 -60 -44 -34 -100 -127 -128 -214 -20 -64 -25 -72 -44 -67 -31 8 -73 -30 -81 -74 -7 -41 -33 -93 -64 -132 -11 -14 -23 -48 -26 -77 -6 -46 -4 -54 19 -77 16 -16 32 -23 42 -20 13 6 15 2 8 -22 -4 -16 -7 -83 -7 -149 -1 -116 1 -122 32 -187 39 -80 103 -142 135 -132 12 3 35 19 52 35 l30 29 -28 0 c-68 0 -116 53 -141 156 -16 63 -27 332 -16 374 l7 25 6 -25 c4 -14 11 -77 17 -140 23 -262 104 -350 306 -333 50 4 100 -1 180 -16 84 -17 121 -20 152 -13 56 13 124 54 154 94 61 80 112 219 124 341 4 37 10 67 13 67 3 0 13 -21 21 -47 20 -61 40 -74 77 -47 22 16 29 31 31 64 3 45 -7 73 -45 125 -12 17 -27 53 -34 80 -7 28 -24 62 -37 77 -26 28 -62 43 -62 25 0 -23 -18 9 -35 63 -28 87 -81 179 -122 212 -21 16 -39 31 -41 33 -2 1 7 19 19 39 14 24 19 45 15 62 -4 14 -13 64 -22 111 -8 47 -18 91 -22 97 -4 6 -16 49 -28 96 l-21 85 -60 3 -60 3 -9 -65 c-9 -62 -9 -67 13 -89 29 -28 24 -47 -24 -83 l-35 -26 -44 43 -45 44 26 21 26 21 -17 66 -16 67 -47 0 -46 0 -37 -128z m-295 -1321 c3 -22 17 -65 31 -97 14 -31 20 -51 12 -45 -29 25 -85 204 -58 187 5 -3 12 -23 15 -45z"/>
 <path d="M1511 678 c-91 -235 -166 -313 -326 -341 -54 -9 -79 -8 -144 5 -89 19 -128 13 -168 -24 -16 -15 -23 -33 -23 -57 0 -32 -1 -34 -16 -20 -8 9 -21 34 -29 55 -17 49 -29 27 -23 -46 3 -54 -1 -59 -24 -32 -28 31 -40 63 -40 108 -1 48 -10 48 -34 2 -21 -42 -12 -69 40 -115 88 -77 207 -92 380 -47 287 74 405 199 423 446 6 87 1 109 -16 66z m-76 -266 c-15 -22 -43 -52 -64 -66 -53 -37 -60 -32 -9 7 24 18 54 49 67 70 13 20 26 35 28 33 3 -2 -7 -22 -22 -44z"/>
 </g>
<g id="layer110" fill="#676063" stroke="none">
 <path d="M798 1872 c-48 -165 -64 -285 -43 -335 14 -35 14 -35 -18 -60 -44 -34 -100 -127 -128 -214 -20 -64 -25 -72 -44 -67 -31 8 -73 -30 -81 -74 -7 -41 -33 -93 -64 -132 -11 -14 -23 -48 -26 -77 -6 -46 -4 -54 19 -77 16 -16 32 -23 42 -20 13 6 15 2 8 -22 -4 -16 -7 -83 -7 -149 -1 -116 1 -122 32 -187 39 -80 103 -142 135 -132 12 3 35 19 52 35 l30 29 -28 0 c-68 0 -116 53 -141 156 -16 63 -27 332 -16 374 l7 25 6 -25 c4 -14 11 -77 17 -140 23 -262 104 -350 306 -333 50 4 100 -1 180 -16 84 -17 121 -20 152 -13 56 13 124 54 154 94 61 80 112 219 124 341 4 37 10 67 13 67 3 0 13 -21 21 -47 20 -61 40 -74 77 -47 22 16 29 31 31 64 3 45 -7 73 -45 125 -12 17 -27 53 -34 80 -7 28 -24 62 -37 77 -26 28 -62 43 -62 25 0 -23 -18 10 -35 63 -9 30 -33 84 -53 120 -32 58 -48 77 -100 115 -11 9 -10 17 8 48 15 25 20 45 16 63 -4 14 -13 64 -22 111 -8 47 -18 91 -22 97 -4 6 -16 49 -28 96 l-21 85 -60 3 -60 3 -9 -65 c-9 -62 -9 -67 13 -89 29 -28 24 -47 -24 -83 l-35 -26 -44 43 -45 44 26 21 26 21 -17 66 -16 67 -47 0 -46 0 -37 -128z m98 -1067 c-11 -8 -27 -15 -35 -15 -9 1 -2 7 14 15 39 18 44 18 21 0z m434 -15 c-8 -5 -24 -9 -35 -9 -16 1 -16 2 5 9 35 11 48 11 30 0z m-827 -239 c3 -22 17 -65 31 -97 14 -31 20 -51 12 -45 -29 25 -85 204 -58 187 5 -3 12 -23 15 -45z"/>
 <path d="M1511 678 c-91 -235 -166 -313 -326 -341 -54 -9 -79 -8 -144 5 -89 19 -128 13 -168 -24 -16 -15 -23 -33 -23 -57 0 -32 -1 -34 -16 -20 -8 9 -21 34 -29 55 -17 49 -29 27 -23 -46 3 -54 -1 -59 -24 -32 -28 31 -40 63 -40 108 -1 48 -10 48 -34 2 -21 -42 -12 -69 40 -115 88 -77 207 -92 380 -47 287 74 405 199 423 446 6 87 1 109 -16 66z m-76 -266 c-15 -22 -43 -52 -64 -66 -53 -37 -60 -32 -9 7 24 18 54 49 67 70 13 20 26 35 28 33 3 -2 -7 -22 -22 -44z"/>
 </g>
<g id="layer111" fill="#ba4633" stroke="none">
 <path d="M830 1983 c0 -10 -9 -47 -21 -83 -35 -113 -47 -163 -58 -246 -10 -67 -9 -86 3 -116 15 -36 15 -36 -17 -61 -44 -34 -100 -127 -128 -214 -20 -64 -25 -72 -44 -67 -31 8 -73 -30 -81 -74 -7 -41 -33 -93 -64 -132 -11 -14 -23 -48 -26 -77 -6 -46 -4 -54 19 -77 16 -16 32 -23 42 -20 13 6 15 2 8 -22 -4 -16 -7 -83 -7 -149 -1 -116 1 -122 32 -187 39 -80 103 -142 135 -132 12 3 35 19 52 35 l30 29 -28 0 c-68 0 -116 53 -141 156 -16 63 -27 332 -16 374 l7 25 6 -25 c4 -14 11 -77 17 -140 23 -262 104 -350 306 -333 50 4 100 -1 180 -16 84 -17 121 -20 152 -13 56 13 124 54 154 94 61 80 112 219 124 341 4 37 10 67 13 67 3 0 13 -21 21 -47 20 -61 40 -74 77 -47 22 16 29 31 31 64 3 45 -7 73 -45 125 -12 17 -27 53 -34 80 -7 28 -24 62 -37 77 -26 28 -62 43 -62 25 0 -23 -18 10 -35 63 -9 30 -33 84 -53 120 -32 58 -48 77 -100 115 -11 9 -10 17 9 49 19 32 20 42 11 74 -6 20 -15 64 -21 97 -6 33 -18 85 -27 115 -9 30 -23 81 -31 113 l-15 57 -53 0 -53 0 -11 -44 c-17 -67 -14 -88 17 -113 l27 -23 -44 -40 c-24 -22 -47 -40 -51 -40 -4 0 -27 19 -50 42 l-43 41 26 23 27 23 -17 65 -18 66 -47 0 c-39 0 -48 -3 -48 -17z m100 -622 c0 -13 -29 -35 -37 -28 -7 8 15 37 28 37 5 0 9 -4 9 -9z m203 -71 c-8 -8 -33 32 -26 43 3 5 12 -1 19 -14 7 -13 10 -26 7 -29z m-335 -391 c-2 -6 -8 -10 -13 -10 -5 0 -11 4 -13 10 -2 6 4 11 13 11 9 0 15 -5 13 -11z m440 -1 c-6 -18 -28 -21 -28 -4 0 9 7 16 16 16 9 0 14 -5 12 -12z m-342 -93 c-11 -8 -27 -15 -35 -15 -9 1 -2 7 14 15 39 18 44 18 21 0z m434 -15 c-8 -5 -24 -9 -35 -9 -16 1 -16 2 5 9 35 11 48 11 30 0z m-827 -239 c3 -22 17 -65 31 -97 14 -31 20 -51 12 -45 -29 25 -85 204 -58 187 5 -3 12 -23 15 -45z"/>
 <path d="M1511 678 c-91 -235 -166 -313 -326 -341 -54 -9 -79 -8 -144 5 -89 19 -128 13 -168 -24 -16 -15 -23 -33 -23 -57 0 -32 -1 -34 -16 -20 -8 9 -21 34 -29 55 -17 49 -29 27 -23 -46 3 -54 -1 -59 -24 -32 -28 31 -40 63 -40 108 -1 48 -10 48 -34 2 -21 -42 -12 -69 40 -115 88 -77 207 -92 380 -47 287 74 405 199 423 446 6 87 1 109 -16 66z m-76 -266 c-15 -22 -43 -52 -64 -66 -53 -37 -60 -32 -9 7 24 18 54 49 67 70 13 20 26 35 28 33 3 -2 -7 -22 -22 -44z"/>
 </g>
<g id="layer112" fill="#c3583b" stroke="none">
 <path d="M830 1983 c0 -10 -9 -47 -21 -83 -35 -113 -47 -163 -58 -246 -10 -67 -9 -86 4 -117 15 -35 14 -36 -14 -56 -38 -28 -103 -140 -132 -228 -20 -65 -24 -71 -42 -61 -30 16 -70 -19 -83 -74 -14 -53 -28 -83 -60 -121 -44 -53 -42 -151 4 -176 28 -15 68 26 83 84 6 25 15 43 20 38 4 -4 11 -51 14 -103 12 -180 43 -287 97 -337 46 -43 95 -56 211 -54 66 1 133 -5 173 -14 88 -20 163 -19 216 4 49 21 117 90 147 149 29 58 69 201 77 278 8 78 19 90 28 30 4 -27 16 -52 32 -67 l24 -23 28 21 c21 15 28 30 30 63 3 45 -7 73 -45 125 -12 17 -27 53 -34 80 -17 66 -54 108 -89 100 -24 -5 -27 -2 -44 52 -31 99 -80 182 -138 234 l-29 26 22 37 c19 32 20 43 11 74 -6 20 -15 64 -21 97 -6 33 -18 85 -27 115 -9 30 -23 81 -31 113 l-15 57 -53 0 -53 0 -11 -44 c-17 -67 -14 -88 17 -113 l27 -23 -44 -40 c-24 -22 -47 -40 -51 -40 -4 0 -27 19 -50 42 l-43 41 26 23 27 23 -17 65 -18 66 -47 0 c-39 0 -48 -3 -48 -17z m100 -622 c0 -13 -29 -35 -37 -28 -7 8 15 37 28 37 5 0 9 -4 9 -9z m203 -71 c-8 -8 -33 32 -26 43 3 5 12 -1 19 -14 7 -13 10 -26 7 -29z m-335 -391 c-2 -6 -8 -10 -13 -10 -5 0 -11 4 -13 10 -2 6 4 11 13 11 9 0 15 -5 13 -11z m440 -1 c-6 -18 -28 -21 -28 -4 0 9 7 16 16 16 9 0 14 -5 12 -12z m-308 -98 c0 -4 -15 -15 -34 -24 -40 -19 -128 -21 -177 -5 -49 17 -60 30 -14 18 42 -12 124 -5 170 15 30 13 55 11 55 -4z m295 -14 c33 0 74 2 90 6 29 7 28 6 -5 -10 -49 -23 -192 -24 -216 0 -27 27 -8 39 34 21 20 -9 64 -16 97 -17z"/>
 <path d="M504 644 c3 -76 9 -114 25 -150 22 -49 57 -94 73 -94 5 0 -3 12 -17 28 -36 39 -54 92 -70 212 l-14 105 3 -101z"/>
 <path d="M1438 506 c-40 -68 -42 -75 -17 -46 27 31 74 119 67 125 -2 1 -24 -34 -50 -79z"/>
 <path d="M1485 477 c-7 -18 -30 -56 -50 -86 -20 -29 -34 -55 -32 -57 9 -9 70 78 88 126 21 55 16 69 -6 17z"/>
 <path d="M879 313 l-24 -28 30 25 c17 14 32 26 34 28 2 1 0 2 -6 2 -5 0 -20 -12 -34 -27z"/>
 <path d="M725 221 c19 -22 55 -46 55 -38 0 3 -17 17 -37 33 -31 23 -34 24 -18 5z"/>
 <path d="M816 215 c9 -14 21 -25 27 -25 6 0 0 11 -13 25 -13 14 -25 25 -27 25 -2 0 4 -11 13 -25z"/>
 <path d="M1160 205 c-19 -7 -48 -14 -65 -14 -39 -2 -72 -21 -35 -21 34 0 142 28 155 41 13 13 -13 10 -55 -6z"/>
 </g>
<g id="layer113" fill="#c85c4c" stroke="none">
 <path d="M830 1983 c0 -10 -9 -47 -21 -83 -35 -113 -47 -163 -58 -246 -10 -68 -9 -86 4 -118 12 -29 20 -36 33 -31 20 7 14 1 -47 -45 -56 -44 -94 -103 -126 -201 -25 -75 -37 -91 -50 -69 -13 22 -62 -41 -74 -95 -7 -31 -23 -68 -37 -84 -27 -33 -54 -91 -54 -119 0 -10 10 -32 23 -48 l22 -31 29 28 c31 29 37 64 22 134 -3 17 -3 23 0 15 4 -8 15 -23 24 -32 14 -13 20 -40 25 -105 13 -187 33 -266 82 -332 42 -55 91 -71 223 -71 65 0 141 -7 175 -15 136 -33 215 -15 296 65 44 44 62 71 86 135 32 84 63 215 63 269 0 17 9 45 20 61 21 31 28 19 10 -16 -14 -25 -3 -83 22 -114 l20 -26 30 32 c27 28 29 36 24 72 -4 23 -17 55 -30 72 -33 43 -52 84 -60 127 -8 41 -49 82 -76 73 -13 -4 -21 10 -39 67 -36 113 -71 168 -144 223 -32 23 -36 30 -23 37 9 5 23 23 32 40 13 25 14 39 6 67 -6 20 -15 63 -21 96 -6 33 -18 85 -27 115 -9 30 -23 81 -31 113 l-15 57 -53 0 -53 0 -11 -44 c-17 -67 -14 -88 17 -113 l27 -23 -44 -40 c-24 -22 -47 -40 -51 -40 -4 0 -27 19 -50 42 l-43 41 26 23 27 23 -17 65 -18 66 -47 0 c-39 0 -48 -3 -48 -17z m100 -622 c0 -13 -29 -35 -37 -28 -7 8 15 37 28 37 5 0 9 -4 9 -9z m203 -71 c-8 -8 -33 32 -26 43 3 5 12 -1 19 -14 7 -13 10 -26 7 -29z m-687 -380 c-1 -27 -4 -50 -8 -50 -9 0 -11 62 -2 84 9 24 11 20 10 -34z m1126 -6 c2 -19 0 -37 -4 -40 -4 -3 -8 13 -8 35 0 51 6 53 12 5z m-774 -5 c-2 -6 -8 -10 -13 -10 -5 0 -11 4 -13 10 -2 6 4 11 13 11 9 0 15 -5 13 -11z m440 -1 c-6 -18 -28 -21 -28 -4 0 9 7 16 16 16 9 0 14 -5 12 -12z m-308 -99 c0 -12 -49 -35 -90 -43 -36 -6 -147 17 -164 34 -5 5 8 5 29 -1 42 -12 124 -5 170 15 30 13 55 11 55 -5z m295 -13 c33 0 74 2 90 7 25 6 27 5 11 -4 -10 -6 -42 -18 -70 -25 -79 -21 -194 9 -172 45 4 6 20 4 44 -6 20 -9 64 -16 97 -17z"/>
 <path d="M516 565 c6 -48 38 -130 55 -141 14 -8 11 2 -13 41 -11 21 -27 62 -34 94 l-13 56 5 -50z"/>
 </g>
<g id="layer114" fill="#788192" stroke="none">
 <path d="M830 1983 c0 -10 -9 -47 -21 -83 -35 -113 -47 -163 -58 -246 -10 -67 -9 -86 4 -117 10 -25 20 -35 30 -31 27 11 16 -2 -30 -35 -60 -43 -109 -117 -141 -213 -25 -75 -35 -90 -49 -67 -12 19 -62 -46 -70 -90 -4 -23 -22 -63 -40 -90 -43 -63 -60 -123 -43 -151 7 -11 16 -20 20 -20 5 0 8 -7 8 -16 0 -11 9 -6 32 15 33 31 38 57 24 141 -3 19 -3 26 0 15 3 -11 14 -27 24 -35 15 -12 21 -39 29 -140 18 -207 49 -293 128 -341 34 -22 51 -24 163 -26 69 -1 158 -9 198 -17 88 -19 131 -20 186 -4 54 16 134 96 168 168 29 62 65 198 75 280 6 50 40 137 50 127 2 -3 -3 -23 -12 -45 -13 -32 -14 -48 -6 -80 15 -55 34 -69 66 -48 21 14 25 24 25 64 0 39 -8 60 -39 108 -21 32 -41 76 -45 98 -9 46 -46 87 -73 80 -16 -4 -22 6 -42 68 -13 40 -35 92 -48 115 -25 44 -116 133 -137 134 -6 0 -1 4 11 9 36 15 57 66 45 109 -6 20 -15 63 -21 96 -6 33 -18 85 -27 115 -9 30 -23 81 -31 113 l-15 57 -53 0 -53 0 -11 -44 c-17 -67 -14 -88 17 -113 l27 -23 -44 -40 c-24 -22 -47 -40 -51 -40 -4 0 -27 19 -50 42 l-43 41 26 23 27 23 -17 65 -18 66 -47 0 c-39 0 -48 -3 -48 -17z m100 -622 c0 -13 -29 -35 -37 -28 -7 8 15 37 28 37 5 0 9 -4 9 -9z m203 -71 c-8 -8 -33 32 -26 43 3 5 12 -1 19 -14 7 -13 10 -26 7 -29z m-686 -375 c-1 -31 -6 -53 -12 -51 -10 3 -10 43 0 84 9 38 15 24 12 -33z m1128 -42 c-10 -29 -20 -10 -16 30 4 41 4 42 12 12 5 -16 7 -36 4 -42z m-777 26 c-2 -6 -8 -10 -13 -10 -5 0 -11 4 -13 10 -2 6 4 11 13 11 9 0 15 -5 13 -11z m440 -1 c-6 -18 -28 -21 -28 -4 0 9 7 16 16 16 9 0 14 -5 12 -12z m-308 -99 c0 -16 -46 -39 -92 -45 -45 -6 -151 17 -163 35 -3 5 11 5 32 -1 41 -11 122 -3 168 16 30 13 55 11 55 -5z m276 -14 c28 -4 67 -2 89 4 50 14 57 6 11 -13 -78 -33 -172 -29 -221 9 -30 23 -2 37 40 19 17 -7 54 -16 81 -19z"/>
 </g>
<g id="layer115" fill="#d07250" stroke="none">
 <path d="M817 1922 c-11 -42 -22 -81 -27 -87 -7 -9 -31 -127 -45 -220 -7 -50 17 -117 40 -109 27 11 16 -2 -30 -35 -60 -43 -109 -117 -141 -213 -25 -75 -35 -90 -49 -67 -12 19 -62 -46 -70 -90 -4 -23 -22 -63 -40 -90 -43 -63 -60 -123 -43 -151 7 -11 16 -20 20 -20 5 0 8 -7 8 -16 0 -11 9 -6 32 15 33 31 38 57 24 141 -3 19 -3 26 0 15 3 -11 14 -27 24 -35 15 -12 21 -39 29 -140 18 -207 49 -293 128 -341 34 -22 51 -24 163 -26 69 -1 158 -9 198 -17 88 -19 131 -20 186 -4 54 16 134 96 168 168 29 62 65 198 75 280 6 50 40 137 50 127 2 -3 -3 -23 -12 -45 -13 -32 -14 -48 -6 -80 15 -55 34 -69 66 -48 21 14 25 24 25 64 0 39 -8 60 -39 108 -21 32 -41 76 -45 98 -9 46 -46 87 -73 80 -16 -4 -22 6 -42 68 -13 40 -35 92 -48 115 -25 44 -116 133 -137 134 -6 0 -1 4 12 9 31 13 58 78 43 102 -6 10 -11 32 -11 50 0 18 -12 76 -26 128 -14 52 -33 121 -41 153 l-15 57 -53 0 -52 0 -11 -51 c-17 -70 -16 -77 16 -104 l27 -24 -40 -40 c-21 -23 -43 -41 -49 -41 -15 0 -75 49 -87 71 -8 17 -6 23 14 39 l23 19 -15 65 -16 66 -45 0 -45 0 -18 -78z m108 -571 c-3 -12 -13 -21 -21 -21 -18 0 -18 9 3 32 20 22 27 17 18 -11z m203 -36 c6 -14 8 -25 4 -25 -12 0 -32 23 -32 37 0 22 16 15 28 -12z m-681 -400 c-1 -31 -6 -53 -12 -51 -10 3 -10 43 0 84 9 38 15 24 12 -33z m1128 -42 c-10 -29 -20 -10 -16 30 4 41 4 42 12 12 5 -16 7 -36 4 -42z m-335 27 c0 -5 -5 -12 -11 -16 -14 -8 -33 11 -25 25 7 11 36 4 36 -9z m-440 -5 c0 -8 -7 -15 -15 -15 -8 0 -15 7 -15 15 0 8 7 15 15 15 8 0 15 -7 15 -15z m425 -36 c33 -2 71 1 85 5 24 7 24 6 6 -8 -42 -34 -191 -10 -204 33 -3 9 6 6 24 -7 20 -15 47 -22 89 -23z m-457 -1 c46 1 62 -1 52 -8 -40 -26 -160 -2 -160 32 0 6 9 3 20 -7 16 -15 35 -18 88 -17z m162 -59 c0 -16 -46 -39 -92 -45 -45 -6 -151 17 -163 35 -3 5 11 5 32 -1 41 -11 122 -3 168 16 30 13 55 11 55 -5z m276 -14 c28 -4 67 -2 89 4 50 14 57 6 11 -13 -78 -33 -172 -29 -221 9 -30 23 -2 37 40 19 17 -7 54 -16 81 -19z"/>
 </g>
<g id="layer116" fill="#afc437" stroke="none">
 <path d="M817 1922 c-11 -42 -22 -81 -27 -87 -7 -9 -31 -127 -45 -220 -4 -26 0 -53 10 -78 16 -38 35 -42 35 -7 0 10 5 22 10 25 6 3 10 -1 10 -10 0 -12 5 -15 18 -10 56 24 114 35 177 35 67 0 154 -20 183 -43 9 -7 12 -2 12 22 0 17 5 31 10 31 6 0 10 -13 10 -30 0 -41 18 -38 37 7 11 28 12 42 4 55 -6 10 -11 32 -11 50 0 18 -12 76 -26 128 -14 52 -33 121 -41 153 l-15 57 -53 0 -52 0 -11 -51 c-17 -70 -16 -77 16 -104 l27 -24 -40 -40 c-21 -23 -43 -41 -49 -41 -15 0 -75 49 -87 71 -8 17 -6 23 14 39 l23 19 -15 65 -16 66 -45 0 -45 0 -18 -78z"/>
 <path d="M866 1530 c-132 -55 -209 -142 -249 -280 -9 -30 -27 -93 -41 -140 -38 -128 -39 -139 -26 -282 20 -218 51 -300 130 -346 42 -25 54 -27 170 -28 74 -1 154 -8 195 -18 88 -20 120 -20 177 0 63 21 119 72 155 141 32 61 67 170 77 238 18 131 18 131 -29 302 -25 93 -57 192 -71 221 -33 69 -103 135 -184 175 -57 28 -75 32 -160 34 -76 2 -104 -1 -144 -17z m59 -179 c-3 -12 -13 -21 -21 -21 -18 0 -18 9 3 32 20 22 27 17 18 -11z m203 -36 c6 -14 8 -25 4 -25 -12 0 -32 23 -32 37 0 22 16 15 28 -12z m112 -415 c0 -5 -5 -12 -11 -16 -14 -8 -33 11 -25 25 7 11 36 4 36 -9z m-440 -5 c0 -8 -7 -15 -15 -15 -8 0 -15 7 -15 15 0 8 7 15 15 15 8 0 15 -7 15 -15z m425 -36 c33 -2 71 1 85 5 24 7 24 6 6 -8 -42 -34 -191 -10 -204 33 -3 9 6 6 24 -7 20 -15 47 -22 89 -23z m-457 -1 c46 1 62 -1 52 -8 -40 -26 -160 -2 -160 32 0 6 9 3 20 -7 16 -15 35 -18 88 -17z m157 -59 c0 -21 -64 -49 -111 -49 -45 0 -144 28 -144 41 0 4 17 3 37 -3 41 -11 123 -3 168 17 35 16 50 14 50 -6z m249 -7 c46 -12 69 -13 110 -5 28 6 53 9 54 8 2 -2 -11 -11 -29 -20 -66 -35 -197 -29 -229 10 -15 18 -3 38 19 29 9 -4 42 -14 75 -22z"/>
 <path d="M521 1154 c-12 -15 -21 -38 -21 -51 0 -13 -9 -42 -21 -64 -11 -23 -23 -70 -26 -109 -4 -52 -10 -70 -22 -72 -13 -3 -11 -6 7 -16 28 -16 40 -9 59 35 12 31 12 40 -3 78 -10 27 -13 51 -9 62 7 15 9 13 14 -11 11 -52 26 -38 48 46 12 46 25 93 29 106 9 32 -29 30 -55 -4z"/>
 <path d="M1425 1163 c3 -10 16 -52 27 -93 11 -41 24 -82 28 -90 9 -16 14 -9 23 35 4 19 4 19 12 1 5 -12 2 -35 -7 -60 -28 -76 20 -162 62 -111 10 12 10 15 -4 15 -12 0 -16 10 -16 43 0 23 -3 53 -7 67 -6 23 -5 24 11 10 10 -8 4 6 -12 31 -17 25 -35 65 -41 88 -11 49 -36 81 -64 81 -14 0 -17 -5 -12 -17z"/>
 <path d="M430 969 c-6 -11 -10 -25 -8 -30 2 -5 8 4 15 21 13 34 9 40 -7 9z"/>
 </g>
<g id="layer117" fill="#b9bc4a" stroke="none">
 <path d="M817 1922 c-11 -42 -22 -81 -27 -87 -7 -9 -31 -127 -45 -220 -4 -26 0 -53 10 -78 16 -38 35 -42 35 -7 0 10 5 22 10 25 6 3 10 -1 10 -10 0 -12 5 -15 18 -10 56 24 114 35 177 35 67 0 154 -20 183 -43 9 -7 12 -2 12 22 0 17 5 31 10 31 6 0 10 -13 10 -30 0 -41 18 -38 37 7 11 28 12 42 4 55 -6 10 -11 32 -11 50 0 18 -12 76 -26 128 -14 52 -33 121 -41 153 l-15 57 -53 0 -52 0 -11 -51 c-17 -70 -16 -77 16 -104 l27 -24 -40 -40 c-21 -23 -43 -41 -49 -41 -15 0 -75 49 -87 71 -8 17 -6 23 14 39 l23 19 -15 65 -16 66 -45 0 -45 0 -18 -78z"/>
 <path d="M866 1530 c-132 -55 -209 -142 -249 -280 -9 -30 -28 -95 -43 -145 -15 -49 -29 -114 -32 -143 -4 -48 -3 -54 13 -50 10 1 22 16 26 32 13 48 82 105 112 92 7 -2 4 -5 -5 -5 -27 -1 -86 -59 -98 -96 -31 -94 100 -168 240 -135 104 25 136 86 85 163 -32 47 -74 68 -150 77 l-60 7 50 1 c87 2 176 -57 191 -126 11 -52 12 -53 56 -50 38 3 43 6 51 38 5 19 17 46 28 61 24 33 84 73 102 66 7 -3 5 -6 -5 -6 -10 -1 -33 -15 -53 -32 -99 -87 -80 -171 45 -198 98 -21 166 -7 218 45 19 19 38 34 43 34 5 0 9 5 9 11 0 5 -4 7 -10 4 -5 -3 -10 1 -10 9 0 12 5 14 23 7 20 -8 23 -6 25 16 3 36 -84 348 -114 411 -33 69 -103 135 -184 175 -57 28 -75 32 -160 34 -76 2 -104 -1 -144 -17z m59 -179 c-3 -12 -13 -21 -21 -21 -18 0 -18 9 3 32 20 22 27 17 18 -11z m203 -36 c6 -14 8 -25 4 -25 -12 0 -32 23 -32 37 0 22 16 15 28 -12z m145 -272 c-13 -2 -35 -2 -50 0 -16 2 -5 4 22 4 28 0 40 -2 28 -4z m77 -18 c30 -16 70 -60 70 -79 0 -6 -9 3 -20 21 -10 18 -36 41 -57 52 -21 11 -34 20 -30 21 4 0 21 -7 37 -15z m-110 -125 c0 -5 -5 -12 -11 -16 -14 -8 -33 11 -25 25 7 11 36 4 36 -9z m-440 -5 c0 -8 -7 -15 -15 -15 -8 0 -15 7 -15 15 0 8 7 15 15 15 8 0 15 -7 15 -15z m425 -36 c33 -2 71 1 85 5 24 7 24 6 6 -8 -42 -34 -191 -10 -204 33 -3 9 6 6 24 -7 20 -15 47 -22 89 -23z m-457 -1 c46 1 62 -1 52 -8 -40 -26 -160 -2 -160 32 0 6 9 3 20 -7 16 -15 35 -18 88 -17z"/>
 <path d="M521 1154 c-12 -15 -21 -38 -21 -51 0 -13 -9 -42 -21 -64 -11 -23 -23 -70 -26 -109 -4 -52 -10 -70 -22 -72 -13 -3 -11 -6 7 -16 28 -16 40 -9 59 35 12 31 12 40 -3 78 -10 27 -13 51 -9 62 7 15 9 13 14 -11 11 -52 26 -38 48 46 12 46 25 93 29 106 9 32 -29 30 -55 -4z"/>
 <path d="M1425 1163 c3 -10 16 -52 27 -93 11 -41 24 -82 28 -90 9 -16 14 -9 23 35 4 19 4 19 12 1 5 -12 2 -35 -7 -60 -28 -76 20 -162 62 -111 10 12 10 15 -4 15 -12 0 -16 10 -16 43 0 23 -3 53 -7 67 -6 23 -5 24 11 10 10 -8 4 6 -12 31 -17 25 -35 65 -41 88 -11 49 -36 81 -64 81 -14 0 -17 -5 -12 -17z"/>
 <path d="M430 969 c-6 -11 -10 -25 -8 -30 2 -5 8 4 15 21 13 34 9 40 -7 9z"/>
 <path d="M554 875 c-8 -33 4 -164 23 -234 20 -81 54 -132 105 -161 39 -22 55 -25 168 -26 74 -1 154 -8 195 -18 39 -8 84 -16 101 -16 48 0 118 28 161 65 67 57 131 205 149 344 l7 53 -24 -12 c-13 -7 -30 -21 -37 -31 -25 -35 -120 -81 -181 -86 -89 -8 -171 26 -142 61 19 23 -15 41 -78 41 -59 0 -100 -22 -79 -43 24 -24 -43 -62 -111 -62 -44 0 -141 29 -141 42 0 4 -5 8 -11 8 -18 0 -99 78 -86 83 8 2 8 5 -1 11 -7 4 -14 -3 -18 -19z"/>
 </g>
<g id="layer118" fill="#d99a66" stroke="none">
 <path d="M817 1922 c-11 -42 -22 -81 -27 -87 -7 -9 -31 -127 -45 -220 -4 -26 0 -53 10 -78 16 -38 35 -42 35 -7 0 10 5 22 10 25 6 3 10 -1 10 -10 0 -12 5 -15 18 -10 56 24 114 35 177 35 67 0 154 -20 183 -43 9 -7 12 -2 12 22 0 17 5 31 10 31 6 0 10 -13 10 -30 0 -41 18 -38 37 7 11 28 12 42 4 55 -6 10 -11 32 -11 50 0 18 -12 76 -26 128 -14 52 -33 121 -41 153 l-15 57 -53 0 -52 0 -11 -51 c-17 -70 -16 -77 16 -104 l27 -24 -40 -40 c-21 -23 -43 -41 -49 -41 -15 0 -75 49 -87 71 -8 17 -6 23 14 39 l23 19 -15 65 -16 66 -45 0 -45 0 -18 -78z"/>
 <path d="M866 1530 c-132 -55 -209 -142 -249 -280 -9 -30 -28 -95 -43 -145 -34 -113 -43 -195 -21 -195 8 0 18 12 22 28 17 70 124 130 209 118 84 -13 136 -60 175 -158 9 -23 17 -28 46 -28 36 0 38 3 49 53 4 15 22 45 42 67 91 100 264 84 322 -30 23 -46 44 -58 50 -29 5 26 -86 347 -114 407 -33 69 -103 135 -184 175 -57 28 -75 32 -160 34 -76 2 -104 -1 -144 -17z m59 -179 c-3 -12 -13 -21 -21 -21 -18 0 -18 9 3 32 20 22 27 17 18 -11z m203 -36 c6 -14 8 -25 4 -25 -12 0 -32 23 -32 37 0 22 16 15 28 -12z"/>
 <path d="M521 1154 c-12 -15 -21 -38 -21 -51 0 -13 -9 -42 -21 -64 -11 -23 -23 -70 -26 -109 -4 -52 -10 -70 -22 -72 -13 -3 -11 -6 7 -16 28 -16 40 -9 59 35 12 31 12 40 -3 78 -10 27 -13 51 -9 62 7 15 9 13 14 -11 11 -52 26 -38 48 46 12 46 25 93 29 106 9 32 -29 30 -55 -4z"/>
 <path d="M1425 1163 c3 -10 16 -52 27 -93 11 -41 24 -82 28 -90 9 -16 14 -9 23 35 4 19 4 19 12 1 5 -12 2 -35 -7 -60 -28 -76 20 -162 62 -111 10 12 10 15 -4 15 -12 0 -16 10 -16 43 0 23 -3 53 -7 67 -6 23 -5 24 11 10 10 -8 4 6 -12 31 -17 25 -35 65 -41 88 -11 49 -36 81 -64 81 -14 0 -17 -5 -12 -17z"/>
 <path d="M680 1022 c-80 -31 -113 -111 -68 -167 30 -39 77 -55 155 -55 77 0 144 25 163 61 28 52 -27 135 -109 164 -55 19 -84 18 -141 -3z m120 -127 c0 -8 -7 -15 -15 -15 -8 0 -15 7 -15 15 0 8 7 15 15 15 8 0 15 -7 15 -15z m-32 -37 c46 1 62 -1 52 -8 -40 -26 -160 -2 -160 32 0 6 9 3 20 -7 16 -15 35 -18 88 -17z"/>
 <path d="M1185 1028 c-52 -19 -87 -50 -107 -96 -20 -44 -20 -45 -1 -71 30 -39 70 -55 154 -59 63 -3 83 0 118 18 100 51 80 164 -36 206 -45 16 -87 16 -128 2z m55 -128 c0 -5 -5 -12 -11 -16 -14 -8 -33 11 -25 25 7 11 36 4 36 -9z m-15 -41 c33 -2 71 1 85 5 24 7 24 6 6 -8 -42 -34 -191 -10 -204 33 -3 9 6 6 24 -7 20 -15 47 -22 89 -23z"/>
 <path d="M430 969 c-6 -11 -10 -25 -8 -30 2 -5 8 4 15 21 13 34 9 40 -7 9z"/>
 <path d="M1405 839 c-73 -60 -121 -81 -195 -86 -79 -5 -136 18 -133 54 3 31 -21 46 -77 46 -56 0 -80 -15 -77 -46 1 -16 -8 -27 -33 -40 -72 -38 -209 -4 -297 73 -19 17 -36 30 -40 30 -10 0 7 -165 23 -227 21 -83 55 -134 106 -163 39 -22 55 -25 168 -26 74 -1 154 -8 195 -18 88 -20 120 -20 177 0 95 32 163 122 207 269 19 68 38 175 30 175 -3 0 -27 -18 -54 -41z"/>
 </g>
<g id="layer119" fill="#a69d9f" stroke="none">
 <path d="M817 1922 c-11 -42 -22 -81 -27 -87 -7 -9 -31 -127 -45 -220 -4 -27 0 -53 11 -80 16 -38 17 -39 25 -17 5 12 13 32 18 45 10 22 10 22 10 -4 l1 -26 53 18 c64 23 195 25 262 4 27 -8 53 -11 58 -8 6 3 7 1 3 -5 -4 -7 -2 -12 3 -12 6 0 11 11 11 25 0 14 5 25 10 25 6 0 10 -13 10 -30 0 -41 18 -38 37 7 11 28 12 42 4 55 -6 10 -11 32 -11 50 0 18 -12 76 -26 128 -14 52 -33 121 -41 153 l-15 57 -53 0 -52 0 -11 -51 c-17 -70 -16 -77 16 -104 l27 -24 -40 -40 c-21 -23 -43 -41 -49 -41 -15 0 -75 49 -87 71 -8 17 -6 23 14 39 l23 19 -15 65 -16 66 -45 0 -45 0 -18 -78z"/>
 <path d="M880 1533 c-99 -35 -188 -112 -230 -198 -28 -59 -112 -361 -108 -392 3 -29 28 -45 28 -18 0 55 81 120 163 131 106 15 194 -49 231 -169 4 -14 14 -17 38 -15 28 3 35 9 45 41 7 20 23 51 35 67 28 38 111 80 158 80 86 0 172 -53 189 -116 8 -31 34 -39 39 -13 5 25 -94 362 -122 418 -31 60 -109 131 -184 167 -72 35 -210 43 -282 17z m50 -167 c0 -19 -33 -52 -38 -38 -4 14 16 52 28 52 6 0 10 -6 10 -14z m199 -48 c5 -13 7 -25 5 -27 -7 -7 -34 21 -34 35 0 22 20 16 29 -8z"/>
 <path d="M527 1162 c-9 -10 -20 -34 -23 -53 -4 -19 -16 -51 -26 -72 -11 -22 -22 -70 -25 -108 -3 -38 -10 -69 -14 -69 -15 0 -10 -18 7 -24 39 -15 73 64 48 112 -16 31 -18 78 -4 87 6 3 10 -4 10 -17 0 -13 4 -30 10 -38 7 -11 11 -9 19 12 5 14 13 43 17 64 3 22 10 46 14 54 4 8 10 27 14 43 5 22 3 27 -12 27 -11 0 -26 -8 -35 -18z"/>
 <path d="M1428 1174 c-3 -3 2 -28 12 -57 10 -29 23 -73 30 -99 13 -49 30 -56 30 -12 0 16 4 23 11 18 7 -4 8 -20 4 -43 -12 -61 -11 -129 2 -142 10 -10 18 -10 40 1 21 10 24 14 12 17 -12 3 -18 22 -22 79 -4 41 -14 85 -23 99 -9 14 -20 44 -26 67 -13 58 -48 94 -70 72z"/>
 <path d="M701 1028 c-97 -27 -139 -110 -89 -173 30 -39 77 -55 155 -55 77 0 144 25 163 61 28 52 -27 135 -109 164 -49 17 -71 18 -120 3z m99 -133 c0 -8 -7 -15 -15 -15 -8 0 -15 7 -15 15 0 8 7 15 15 15 8 0 15 -7 15 -15z m-32 -37 c46 1 62 -1 52 -8 -40 -26 -160 -2 -160 32 0 6 9 3 20 -7 16 -15 35 -18 88 -17z"/>
 <path d="M1190 1028 c-100 -28 -155 -133 -97 -185 52 -47 186 -59 258 -22 98 50 77 164 -38 205 -44 15 -75 16 -123 2z m50 -128 c0 -5 -5 -12 -11 -16 -14 -8 -33 11 -25 25 7 11 36 4 36 -9z m-15 -41 c33 -2 71 1 85 5 24 7 24 6 6 -8 -42 -34 -191 -10 -204 33 -3 9 6 6 24 -7 20 -15 47 -22 89 -23z"/>
 <path d="M1434 860 c-12 -5 -24 -15 -27 -24 -12 -30 -127 -79 -197 -83 -76 -5 -135 18 -135 52 0 35 -13 42 -75 42 -62 1 -75 -6 -75 -42 0 -13 -13 -27 -35 -38 -69 -36 -229 1 -289 67 -45 48 -54 36 -46 -56 15 -166 53 -256 127 -298 39 -22 55 -25 168 -26 74 -1 153 -8 195 -17 88 -21 120 -21 177 -1 104 35 176 141 218 318 25 102 24 117 -6 106z"/>
 </g>
<g id="layer120" fill="#e59375" stroke="none">
 <path d="M836 1988 c-34 -122 -77 -297 -86 -348 -10 -56 -9 -71 6 -105 16 -38 17 -39 25 -17 5 12 13 32 18 45 10 22 10 22 10 -4 l1 -26 53 18 c64 23 195 25 262 4 27 -8 53 -11 58 -8 6 3 7 1 3 -5 -4 -7 -2 -12 3 -12 6 0 11 11 11 25 0 14 5 25 10 25 6 0 10 -13 10 -30 0 -36 16 -39 31 -6 16 34 -3 158 -47 307 -19 65 -34 125 -34 134 0 12 -12 15 -53 15 l-53 0 -12 -62 c-11 -60 -11 -63 14 -89 15 -16 22 -32 18 -42 -7 -20 -68 -67 -86 -67 -16 0 -88 71 -88 87 0 6 11 18 24 26 23 15 23 18 10 54 -7 21 -13 50 -14 66 0 25 -3 27 -45 27 -28 0 -47 -5 -49 -12z"/>
 <path d="M880 1533 c-99 -35 -188 -112 -230 -198 -28 -59 -112 -361 -108 -392 3 -29 28 -45 28 -18 0 55 81 120 163 131 106 15 194 -49 231 -169 4 -14 14 -17 38 -15 28 3 35 9 45 41 7 20 23 51 35 67 28 38 111 80 158 80 86 0 172 -53 189 -116 8 -31 34 -39 39 -13 5 25 -94 362 -122 418 -31 60 -109 131 -184 167 -72 35 -210 43 -282 17z m55 -163 c3 -5 -4 -19 -17 -32 -24 -24 -36 -11 -18 21 12 23 25 27 35 11z m194 -52 c5 -13 7 -25 5 -27 -7 -7 -34 21 -34 35 0 22 20 16 29 -8z"/>
 <path d="M527 1162 c-9 -10 -20 -34 -23 -53 -4 -19 -16 -51 -26 -72 -11 -22 -22 -70 -25 -108 -3 -38 -10 -69 -14 -69 -15 0 -10 -18 7 -24 39 -15 73 64 48 112 -16 31 -18 78 -4 87 6 3 10 -4 10 -17 0 -13 4 -30 10 -38 7 -11 11 -9 19 12 5 14 13 43 17 64 3 22 10 46 14 54 4 8 10 27 14 43 5 22 3 27 -12 27 -11 0 -26 -8 -35 -18z"/>
 <path d="M1428 1174 c-3 -3 2 -28 12 -57 10 -29 23 -73 30 -99 13 -49 30 -56 30 -12 0 16 4 23 11 18 7 -4 8 -20 4 -43 -12 -61 -11 -129 2 -142 10 -10 18 -10 40 1 21 10 24 14 12 17 -12 3 -18 22 -22 79 -4 41 -14 85 -23 99 -9 14 -20 44 -26 67 -13 58 -48 94 -70 72z"/>
 <path d="M701 1028 c-97 -27 -139 -110 -89 -173 30 -39 77 -55 155 -55 77 0 144 25 163 61 28 52 -27 135 -109 164 -49 17 -71 18 -120 3z m159 -76 c0 -4 -33 -8 -72 -9 -56 -1 -65 1 -38 7 49 10 110 12 110 2z m-61 -41 c16 -10 6 -31 -14 -31 -17 0 -28 17 -20 30 8 12 16 12 34 1z m97 -26 c-22 -60 -236 -59 -236 1 0 10 5 9 20 -6 16 -16 33 -20 93 -20 63 0 77 3 98 23 27 25 35 26 25 2z"/>
 <path d="M1190 1028 c-100 -28 -155 -133 -97 -185 52 -47 186 -59 258 -22 98 50 77 164 -38 205 -44 15 -75 16 -123 2z m108 -88 c15 -10 15 -10 -3 -6 -11 3 -50 6 -87 8 -38 1 -64 6 -61 11 7 12 128 1 151 -13z m-60 -43 c2 -10 -3 -17 -12 -17 -18 0 -29 16 -21 31 9 14 29 6 33 -14z m-20 -34 c57 -5 76 -2 97 11 29 19 33 11 8 -16 -24 -27 -145 -26 -190 2 -18 11 -33 27 -33 37 0 14 4 13 24 -6 18 -17 40 -23 94 -28z"/>
 <path d="M1434 860 c-12 -5 -24 -15 -27 -24 -12 -30 -127 -79 -197 -83 -76 -5 -135 18 -135 52 0 35 -13 42 -75 42 -62 1 -75 -6 -75 -42 0 -13 -13 -27 -35 -38 -69 -36 -229 1 -289 67 -45 48 -54 36 -46 -56 15 -166 53 -256 127 -298 39 -22 55 -25 168 -26 74 -1 153 -8 195 -17 88 -21 120 -21 177 -1 104 35 176 141 218 318 25 102 24 117 -6 106z"/>
 </g>
<g id="layer121" fill="#dea490" stroke="none">
 <path d="M836 1988 c-34 -122 -77 -297 -86 -348 -10 -56 -9 -71 6 -105 15 -35 18 -38 25 -20 4 11 10 33 14 48 17 83 290 103 403 31 15 -10 22 -24 22 -44 0 -36 16 -39 31 -6 16 34 -3 158 -47 307 -19 65 -34 125 -34 134 0 12 -12 15 -53 15 l-53 0 -12 -62 c-11 -60 -11 -63 14 -89 15 -16 22 -32 18 -42 -7 -20 -68 -67 -86 -67 -16 0 -88 71 -88 87 0 6 11 18 24 26 23 15 23 18 10 54 -7 21 -13 50 -14 66 0 25 -3 27 -45 27 -28 0 -47 -5 -49 -12z"/>
 <path d="M931 1539 c-109 -19 -218 -100 -268 -200 -18 -35 -44 -109 -59 -164 -14 -55 -34 -127 -43 -160 -17 -61 -17 -105 0 -105 5 0 9 7 9 16 0 54 81 119 163 130 106 15 194 -49 231 -169 4 -14 14 -17 38 -15 28 3 35 9 45 41 7 20 23 51 35 67 28 38 111 80 158 80 85 0 172 -53 189 -115 4 -16 12 -30 19 -33 16 -5 15 44 -2 99 -7 24 -21 73 -31 109 -65 248 -109 316 -250 384 -79 39 -149 49 -234 35z m4 -169 c3 -5 -4 -19 -17 -32 -24 -24 -36 -11 -18 21 12 23 25 27 35 11z m194 -52 c5 -13 7 -25 5 -27 -7 -7 -34 21 -34 35 0 22 20 16 29 -8z m-137 -120 c-14 -14 -82 -21 -82 -8 0 5 19 11 43 13 23 2 44 4 47 5 2 1 -1 -3 -8 -10z m105 -15 c3 -9 -5 -11 -29 -7 -56 11 -66 23 -19 21 25 -1 46 -7 48 -14z"/>
 <path d="M532 1160 c-12 -12 -22 -32 -22 -46 0 -14 -5 -34 -10 -45 -7 -12 -7 -19 -1 -19 5 0 11 -17 13 -37 l3 -38 17 47 c10 30 13 50 7 54 -6 3 -4 11 5 17 17 14 33 87 19 87 -5 0 -19 -9 -31 -20z"/>
 <path d="M1430 1170 c0 -5 6 -29 14 -52 7 -24 19 -64 26 -90 13 -50 36 -57 25 -7 -4 16 -2 29 3 29 14 0 -16 104 -35 118 -20 14 -33 16 -33 2z"/>
 <path d="M701 1028 c-97 -27 -139 -110 -89 -173 30 -39 77 -55 155 -55 77 0 144 25 163 61 28 52 -27 135 -109 164 -49 17 -71 18 -120 3z m159 -76 c0 -4 -33 -8 -72 -9 -56 -1 -65 1 -38 7 49 10 110 12 110 2z m-61 -41 c16 -10 6 -31 -14 -31 -17 0 -28 17 -20 30 8 12 16 12 34 1z m97 -26 c-22 -60 -236 -59 -236 1 0 10 5 9 20 -6 16 -16 33 -20 93 -20 63 0 77 3 98 23 27 25 35 26 25 2z"/>
 <path d="M1190 1028 c-100 -28 -155 -133 -97 -185 52 -47 186 -59 258 -22 98 50 77 164 -38 205 -44 15 -75 16 -123 2z m108 -88 c15 -10 15 -10 -3 -6 -11 3 -50 6 -87 8 -38 1 -64 6 -61 11 7 12 128 1 151 -13z m-60 -43 c2 -10 -3 -17 -12 -17 -18 0 -29 16 -21 31 9 14 29 6 33 -14z m-20 -34 c57 -5 76 -2 97 11 29 19 33 11 8 -16 -24 -27 -145 -26 -190 2 -18 11 -33 27 -33 37 0 14 4 13 24 -6 18 -17 40 -23 94 -28z"/>
 <path d="M471 973 c-1 -12 -5 -25 -11 -28 -5 -3 -10 -22 -10 -42 0 -29 3 -34 18 -29 12 4 10 0 -7 -14 -22 -19 -22 -20 -2 -20 26 0 48 71 33 104 -6 12 -13 28 -15 36 -4 9 -6 7 -6 -7z"/>
 <path d="M1514 951 c-6 -15 -8 -46 -5 -67 5 -32 11 -40 31 -42 24 -3 25 -3 5 12 -11 8 -14 16 -7 16 13 0 16 30 6 79 -8 39 -16 39 -30 2z"/>
 <path d="M1440 863 c-8 -4 -27 -19 -42 -35 -67 -71 -209 -102 -291 -63 -32 15 -38 22 -34 41 6 33 -9 41 -73 41 -61 1 -87 -11 -69 -33 14 -17 5 -30 -29 -48 -87 -44 -233 -9 -306 73 -30 34 -47 27 -42 -16 3 -21 8 -63 11 -94 2 -31 14 -86 25 -122 37 -119 115 -162 272 -150 58 4 96 1 150 -13 40 -10 100 -18 133 -18 136 1 233 102 284 296 20 75 34 149 29 147 -2 0 -10 -3 -18 -6z"/>
 </g>
<g id="layer122" fill="#f6b097" stroke="none">
 <path d="M836 1988 c-32 -114 -77 -297 -86 -346 -8 -49 -8 -71 2 -97 16 -46 25 -44 33 5 8 48 26 59 134 86 86 20 159 13 249 -26 45 -19 52 -26 52 -51 0 -37 17 -46 31 -15 16 34 -3 157 -47 307 -19 65 -34 125 -34 134 0 12 -12 15 -53 15 l-53 0 -12 -62 c-11 -60 -11 -63 14 -89 15 -16 22 -32 18 -42 -7 -20 -68 -67 -86 -67 -16 0 -88 71 -88 87 0 6 11 18 24 26 23 15 23 18 10 54 -7 21 -13 50 -14 66 0 25 -3 27 -45 27 -28 0 -47 -5 -49 -12z"/>
 <path d="M872 1522 c-107 -45 -185 -128 -227 -242 -9 -25 -21 -54 -26 -65 -17 -38 -70 -267 -67 -289 3 -17 8 -12 24 24 12 25 30 53 42 63 50 45 153 59 220 31 64 -26 122 -95 122 -143 0 -14 9 -23 25 -27 38 -9 50 0 64 47 32 109 170 169 279 123 49 -20 89 -59 103 -101 13 -39 29 -44 29 -8 0 14 -4 25 -9 25 -5 0 -9 10 -9 23 1 32 -54 232 -87 318 -34 89 -102 161 -192 205 -50 25 -72 29 -153 31 -72 2 -105 -1 -138 -15z m188 -107 c16 -8 35 -25 41 -38 10 -19 8 -19 -18 6 -21 19 -40 27 -66 27 -42 0 -88 -18 -85 -34 5 -30 -14 -56 -42 -56 l-29 0 37 41 c58 65 108 82 162 54z m77 -107 c15 -33 5 -43 -19 -21 -18 16 -24 44 -11 57 8 8 16 -1 30 -36z m-119 15 c-15 -2 -42 -2 -60 0 -18 2 -6 4 27 4 33 0 48 -2 33 -4z m47 -126 c21 -1 31 -8 34 -22 2 -15 0 -17 -10 -9 -21 17 -89 24 -136 15 -33 -6 -43 -5 -43 5 0 14 59 24 100 17 14 -2 38 -5 55 -6z m-59 -105 c-16 -2 -32 0 -37 5 -5 5 7 7 29 4 34 -5 35 -6 8 -9z"/>
 <path d="M537 1160 c-14 -12 -27 -31 -27 -43 0 -12 0 -31 -2 -42 -1 -11 0 -38 1 -60 l3 -40 13 30 c16 35 20 69 6 46 -5 -8 -11 -9 -15 -3 -9 15 4 42 19 42 14 0 39 62 33 81 -2 6 -15 1 -31 -11z"/>
 <path d="M1430 1170 c0 -22 23 -65 46 -86 l24 -23 -4 22 c-3 12 -7 34 -10 48 -5 24 -56 60 -56 39z"/>
 <path d="M1460 1064 c0 -5 7 -27 15 -49 14 -38 14 -39 14 -10 0 17 -6 39 -14 49 -8 11 -15 16 -15 10z"/>
 <path d="M663 1011 c-73 -34 -94 -120 -40 -168 39 -35 82 -46 161 -41 83 5 136 30 150 69 12 35 -14 90 -59 125 -50 38 -148 45 -212 15z m207 -59 c0 -5 -33 -9 -72 -10 -40 -1 -82 -5 -93 -8 -20 -5 -20 -5 -1 10 21 17 166 23 166 8z m-71 -41 c16 -10 6 -31 -14 -31 -17 0 -28 17 -20 30 8 12 16 12 34 1z m84 -42 c-10 -11 -44 -24 -75 -31 -67 -14 -131 0 -149 33 -15 29 -4 34 20 10 17 -17 33 -21 94 -21 63 0 77 3 98 23 28 26 40 14 12 -14z"/>
 <path d="M1150 1007 c-70 -37 -103 -123 -61 -161 73 -66 273 -58 311 13 16 31 12 86 -10 113 -47 60 -161 77 -240 35z m162 -66 c11 -11 8 -12 -17 -7 -16 3 -60 7 -97 8 -38 1 -65 6 -61 11 9 14 160 4 175 -12z m-189 -46 c19 -22 33 -27 94 -32 59 -5 77 -3 98 11 34 22 43 14 16 -13 -42 -42 -158 -39 -211 5 -16 14 -30 32 -30 40 0 20 8 17 33 -11z m115 2 c2 -10 -3 -17 -12 -17 -18 0 -29 16 -21 31 9 14 29 6 33 -14z"/>
 <path d="M466 950 c-10 -52 -8 -82 7 -75 6 4 1 -3 -13 -15 -21 -19 -22 -22 -6 -19 29 6 43 35 28 59 -17 28 -15 49 3 26 19 -25 19 -18 1 24 l-13 32 -7 -32z"/>
 <path d="M1512 945 c-17 -37 -15 -42 8 -17 21 22 26 42 12 42 -5 0 -14 -11 -20 -25z"/>
 <path d="M1520 900 c-15 -37 -7 -60 21 -60 21 0 21 0 -2 20 -13 11 -18 19 -10 18 8 -2 14 8 16 25 5 36 -9 35 -25 -3z"/>
 <path d="M1440 862 c-8 -3 -23 -16 -33 -28 -10 -13 -48 -38 -85 -56 -53 -27 -78 -33 -127 -33 -78 1 -129 26 -122 61 6 32 -9 41 -70 39 -58 -2 -68 -7 -68 -38 0 -13 -13 -28 -35 -41 -76 -45 -223 -14 -295 62 -46 49 -52 43 -44 -50 23 -260 80 -322 287 -319 62 1 130 -5 168 -14 207 -48 319 14 393 217 18 47 53 200 48 204 -1 1 -9 -1 -17 -4z"/>
 </g>
<g id="layer123" fill="#b6bed4" stroke="none">
 <path d="M836 1988 c-32 -114 -77 -297 -86 -346 -8 -49 -8 -71 2 -97 16 -45 25 -44 33 3 9 58 39 98 92 127 26 14 62 33 80 44 l32 18 -40 38 c-45 45 -48 57 -15 78 23 15 23 18 10 54 -7 21 -13 50 -14 66 0 25 -3 27 -45 27 -28 0 -47 -5 -49 -12z"/>
 <path d="M1052 1938 c-11 -60 -11 -63 14 -89 30 -31 25 -48 -23 -85 l-35 -26 88 -48 c93 -49 124 -83 124 -132 0 -37 17 -45 31 -14 16 34 -3 157 -47 307 -19 65 -34 125 -34 134 0 12 -12 15 -53 15 l-53 0 -12 -62z"/>
 <path d="M952 1398 c-12 -6 -21 -16 -19 -22 3 -6 0 -19 -5 -28 -8 -16 -2 -18 57 -18 36 0 66 1 68 2 1 1 12 -4 23 -10 19 -10 23 -9 28 11 9 36 -38 77 -88 76 -23 0 -51 -5 -64 -11z"/>
 <path d="M965 1226 c-47 -9 -55 -13 -36 -18 13 -4 33 -3 46 2 13 5 26 6 29 2 4 -3 25 -6 48 -6 35 -1 45 -6 55 -26 8 -16 13 -19 13 -9 0 24 -33 49 -64 49 -16 0 -25 4 -21 10 3 6 3 9 -2 9 -4 -1 -35 -7 -68 -13z"/>
 <path d="M978 1179 c-10 -5 -26 -9 -35 -7 -14 2 -19 -5 -21 -34 -2 -22 1 -38 7 -38 6 0 11 7 11 16 0 12 5 14 18 8 9 -5 36 -8 59 -7 48 1 49 -18 2 -37 -25 -11 -32 -10 -49 5 -11 10 -20 13 -20 7 0 -13 32 -32 55 -32 9 0 27 11 40 24 13 13 27 21 31 17 3 -3 3 4 0 17 -6 17 -3 22 11 23 10 0 13 3 6 6 -7 2 -13 10 -13 17 0 9 -9 12 -24 9 -13 -3 -27 0 -30 6 -9 14 -25 14 -48 0z"/>
 <path d="M733 1063 c15 -2 39 -2 55 0 15 2 2 4 -28 4 -30 0 -43 -2 -27 -4z"/>
 <path d="M1175 1060 c-12 -4 7 -6 45 -3 36 3 67 7 69 9 9 8 -95 2 -114 -6z"/>
 <path d="M830 1053 c8 -3 24 -10 35 -15 20 -9 20 -9 1 6 -11 9 -27 16 -35 15 -14 0 -14 -1 -1 -6z"/>
 <path d="M1119 1035 c-14 -8 -34 -27 -44 -42 -16 -26 -15 -26 21 7 22 19 43 38 49 42 14 12 3 9 -26 -7z"/>
 <path d="M675 1016 c-35 -16 -70 -52 -79 -83 -12 -39 19 -92 66 -113 78 -35 207 -22 255 26 67 67 -37 185 -162 184 -27 -1 -63 -7 -80 -14z m186 -56 c5 0 9 -4 9 -8 0 -5 -30 -9 -67 -10 -38 -1 -81 -5 -98 -8 -24 -5 -28 -4 -18 6 12 13 126 30 151 24 8 -2 18 -4 23 -4z m-62 -49 c16 -10 6 -31 -14 -31 -17 0 -28 17 -20 30 8 12 16 12 34 1z m84 -42 c-24 -25 -117 -44 -166 -35 -23 4 -43 16 -53 32 -22 32 -12 42 15 15 17 -17 33 -21 94 -21 63 0 77 3 98 23 28 26 40 14 12 -14z"/>
 <path d="M1165 1016 c-62 -27 -109 -111 -86 -154 16 -30 76 -53 155 -59 60 -5 78 -2 114 16 23 11 46 30 52 40 15 29 12 83 -6 109 -38 55 -157 80 -229 48z m138 -68 c29 -15 18 -16 -62 -9 -95 9 -131 4 -131 -19 0 -32 35 -51 108 -57 57 -5 76 -2 96 11 33 21 39 20 26 -3 -15 -30 -74 -44 -148 -38 -83 8 -115 27 -106 65 9 35 31 60 58 64 36 5 140 -4 159 -14z m-65 -51 c2 -10 -3 -17 -12 -17 -18 0 -29 16 -21 31 9 14 29 6 33 -14z"/>
 <path d="M1407 698 c-8 -29 -22 -70 -31 -90 -9 -21 -14 -38 -11 -38 12 0 71 167 62 176 -2 3 -11 -19 -20 -48z"/>
 <path d="M947 677 c-30 -25 -28 -57 6 -94 41 -46 111 -12 111 54 0 62 -66 85 -117 40z"/>
 <path d="M600 585 c0 -10 40 -75 47 -75 2 0 -6 17 -18 38 -28 45 -29 47 -29 37z"/>
 <path d="M1320 518 c-19 -24 -26 -37 -17 -29 19 15 61 71 54 71 -2 0 -19 -19 -37 -42z"/>
 <path d="M1045 446 c28 -8 73 -14 100 -14 l50 1 -60 7 c-33 4 -78 10 -100 13 -34 5 -33 4 10 -7z"/>
 </g>
<g id="layer124" fill="#f9baa8" stroke="none">
 <path d="M831 1958 c-6 -24 -22 -79 -35 -123 -14 -44 -28 -102 -31 -130 -4 -27 -11 -67 -16 -88 -7 -27 -6 -48 3 -72 16 -45 25 -44 33 3 9 58 39 98 92 127 26 14 62 33 80 44 l32 18 -45 44 -45 44 27 21 26 21 -14 64 -14 64 -42 3 c-41 3 -41 3 -51 -40z"/>
 <path d="M1052 1938 c-9 -60 -9 -64 14 -89 13 -14 24 -30 24 -37 0 -6 -18 -26 -40 -43 l-40 -32 87 -47 c92 -49 123 -83 123 -132 0 -36 14 -43 29 -14 17 31 0 143 -45 298 -19 64 -34 126 -34 138 0 18 -6 20 -54 20 l-53 0 -11 -62z"/>
 <path d="M952 1398 c-14 -7 -21 -17 -17 -26 3 -8 0 -21 -6 -28 -10 -12 0 -14 55 -14 36 0 67 1 69 2 1 1 13 -4 26 -11 21 -12 23 -11 18 3 -3 8 -2 18 4 21 5 4 -4 20 -20 36 -32 31 -84 38 -129 17z"/>
 <path d="M965 1226 c-47 -9 -55 -13 -36 -18 13 -4 33 -3 46 2 13 5 26 6 29 2 4 -3 25 -6 48 -6 35 -1 45 -6 55 -26 8 -16 13 -19 13 -9 0 24 -33 49 -64 49 -16 0 -25 4 -21 10 3 6 3 9 -2 9 -4 -1 -35 -7 -68 -13z"/>
 <path d="M978 1179 c-10 -5 -26 -9 -35 -7 -14 2 -19 -5 -21 -34 -2 -22 1 -38 7 -38 6 0 11 7 11 16 0 12 5 14 18 8 9 -5 36 -8 59 -7 48 1 49 -18 2 -37 -25 -11 -32 -10 -49 5 -11 10 -20 13 -20 7 0 -13 32 -32 55 -32 9 0 27 11 40 24 13 13 27 21 31 17 3 -3 3 4 0 17 -6 17 -3 22 11 23 10 0 13 3 6 6 -7 2 -13 10 -13 17 0 9 -9 12 -24 9 -13 -3 -27 0 -30 6 -9 14 -25 14 -48 0z"/>
 <path d="M733 1063 c15 -2 39 -2 55 0 15 2 2 4 -28 4 -30 0 -43 -2 -27 -4z"/>
 <path d="M1175 1060 c-12 -4 7 -6 45 -3 36 3 67 7 69 9 9 8 -95 2 -114 -6z"/>
 <path d="M830 1053 c8 -3 24 -10 35 -15 20 -9 20 -9 1 6 -11 9 -27 16 -35 15 -14 0 -14 -1 -1 -6z"/>
 <path d="M1119 1035 c-14 -8 -34 -27 -44 -42 -16 -26 -15 -26 21 7 22 19 43 38 49 42 14 12 3 9 -26 -7z"/>
 <path d="M675 1016 c-35 -16 -70 -52 -79 -83 -12 -39 19 -92 66 -113 78 -35 207 -22 255 26 67 67 -37 185 -162 184 -27 -1 -63 -7 -80 -14z m194 -62 c10 -9 -9 -14 -58 -17 -58 -4 -75 -15 -65 -42 7 -17 8 -17 15 3 9 23 33 29 44 12 3 -5 1 -19 -5 -30 -10 -18 -8 -19 22 -13 18 3 43 15 56 26 17 16 22 17 22 5 0 -25 -34 -48 -91 -60 -71 -15 -124 -4 -145 28 -20 30 -11 43 13 22 10 -9 27 -18 38 -22 18 -5 20 -1 20 34 1 44 1 44 -25 30 -21 -11 -38 4 -18 16 27 17 160 23 177 8z"/>
 <path d="M1165 1016 c-62 -27 -109 -111 -86 -154 16 -30 76 -53 155 -59 60 -5 78 -2 114 16 23 11 46 30 52 40 15 29 12 83 -6 109 -38 55 -157 80 -229 48z m138 -68 c21 -11 23 -33 2 -24 -8 3 -22 9 -31 12 -12 5 -14 1 -9 -22 5 -25 4 -26 -4 -7 -5 12 -19 24 -31 28 -29 9 -56 -16 -45 -42 8 -16 9 -16 12 5 3 13 12 22 23 22 28 0 34 -19 14 -41 -17 -18 -16 -19 14 -19 35 0 82 19 82 32 0 5 5 6 10 3 18 -11 -8 -43 -47 -55 -45 -16 -157 -6 -189 15 -19 12 -23 21 -18 43 9 35 31 60 58 64 35 5 140 -4 159 -14z"/>
 <path d="M1110 927 c0 -16 37 -57 51 -57 6 0 8 9 4 19 -3 11 -1 22 5 26 21 13 9 25 -25 25 -22 0 -35 -5 -35 -13z"/>
 <path d="M1407 698 c-8 -29 -22 -70 -31 -90 -9 -21 -14 -38 -11 -38 12 0 71 167 62 176 -2 3 -11 -19 -20 -48z"/>
 <path d="M947 677 c-30 -25 -28 -57 6 -94 41 -46 111 -12 111 54 0 62 -66 85 -117 40z"/>
 <path d="M600 585 c0 -10 40 -75 47 -75 2 0 -6 17 -18 38 -28 45 -29 47 -29 37z"/>
 <path d="M1320 518 c-19 -24 -26 -37 -17 -29 19 15 61 71 54 71 -2 0 -19 -19 -37 -42z"/>
 <path d="M1045 446 c28 -8 73 -14 100 -14 l50 1 -60 7 c-33 4 -78 10 -100 13 -34 5 -33 4 10 -7z"/>
 </g>
<g id="layer125" fill="#f3c9ac" stroke="none">
 <path d="M831 1958 c-6 -24 -22 -79 -35 -123 -14 -44 -28 -102 -31 -130 -4 -27 -11 -67 -16 -88 -7 -27 -6 -48 3 -72 16 -45 24 -44 33 3 14 75 29 95 96 131 112 58 110 54 60 105 l-42 43 26 20 27 19 -14 65 -14 64 -42 3 c-41 3 -41 3 -51 -40z"/>
 <path d="M1052 1938 c-9 -60 -9 -64 14 -89 32 -33 30 -43 -11 -76 -19 -15 -35 -31 -35 -34 0 -3 28 -21 63 -39 99 -52 125 -75 132 -118 11 -64 14 -68 31 -43 14 19 15 33 4 104 -6 44 -27 134 -46 198 -19 65 -34 127 -34 139 0 18 -6 20 -54 20 l-53 0 -11 -62z"/>
 <path d="M952 1398 c-14 -7 -21 -17 -17 -26 3 -8 0 -21 -6 -28 -10 -12 1 -14 60 -14 40 0 82 -5 93 -11 18 -10 20 -9 15 5 -3 8 -2 18 4 21 5 4 -4 20 -20 36 -32 31 -84 38 -129 17z"/>
 <path d="M870 975 c12 -30 5 -35 -64 -39 -53 -3 -70 -14 -60 -41 7 -17 8 -17 15 3 9 23 33 29 44 12 3 -5 1 -19 -5 -30 -10 -18 -8 -19 22 -13 18 3 43 15 55 26 28 25 38 18 22 -17 -7 -16 -21 -26 -33 -26 -12 -1 -39 -8 -61 -16 -22 -9 -56 -20 -75 -24 -27 -7 -16 -8 45 -6 153 5 206 74 128 166 -30 37 -46 39 -33 5z"/>
 <path d="M1355 945 c-10 -81 -11 -82 -74 -115 l-56 -29 43 -1 c48 0 116 30 132 59 18 34 12 88 -14 117 l-23 28 -8 -59z"/>
 <path d="M710 931 c-8 -6 -17 -8 -21 -5 -4 2 -12 -2 -18 -10 -12 -15 9 -39 44 -50 18 -5 20 -1 20 34 1 42 -1 45 -25 31z"/>
 <path d="M1117 933 c-11 -10 -8 -18 13 -41 26 -27 43 -29 35 -3 -3 11 -1 22 5 26 19 12 10 25 -18 25 -16 0 -32 -3 -35 -7z"/>
 <path d="M1190 925 c-7 -9 -9 -22 -4 -32 7 -16 8 -15 11 5 3 13 12 22 23 22 28 0 34 -19 14 -41 -17 -18 -16 -19 15 -19 65 0 121 51 69 63 -13 2 -31 8 -41 12 -16 6 -17 4 -12 -21 3 -16 2 -22 -1 -14 -8 19 -34 40 -50 40 -6 0 -17 -7 -24 -15z"/>
 </g>
<g id="layer126" fill="#e0d3d7" stroke="none">
 <path d="M831 1958 c-6 -24 -22 -79 -35 -123 -14 -44 -28 -102 -31 -130 -4 -27 -11 -67 -16 -88 -10 -36 5 -107 21 -107 3 0 11 26 18 59 13 64 25 78 92 111 25 12 58 32 73 43 l29 20 -42 42 -41 42 26 20 27 19 -14 65 -14 64 -42 3 c-41 3 -41 3 -51 -40z"/>
 <path d="M1052 1938 c-9 -60 -9 -64 14 -89 32 -33 30 -42 -11 -77 -41 -33 -41 -34 51 -80 73 -37 112 -79 120 -133 6 -38 7 -39 21 -19 20 28 4 140 -43 301 -19 65 -34 127 -34 139 0 18 -6 20 -54 20 l-53 0 -11 -62z"/>
 <path d="M952 1398 c-14 -7 -21 -17 -17 -26 3 -8 0 -21 -6 -28 -10 -12 1 -14 60 -14 40 0 81 -5 91 -10 18 -10 19 -7 16 21 -7 58 -81 87 -144 57z"/>
 <path d="M1383 951 c8 -23 13 -28 15 -16 2 10 -3 25 -12 33 -14 15 -15 13 -3 -17z"/>
 <path d="M698 924 c-16 -8 -28 -18 -28 -23 0 -11 21 -27 45 -35 18 -5 20 -1 20 34 1 45 1 45 -37 24z"/>
 <path d="M754 925 c-10 -7 -12 -17 -8 -29 7 -18 8 -18 15 2 9 23 33 29 44 12 3 -5 1 -19 -5 -30 -10 -18 -8 -19 22 -13 44 8 82 42 67 59 -13 16 -113 15 -135 -1z"/>
 <path d="M1117 933 c-11 -10 -8 -18 13 -41 26 -27 43 -29 35 -3 -3 11 -1 22 5 26 19 12 10 25 -18 25 -16 0 -32 -3 -35 -7z"/>
 <path d="M1190 925 c-7 -9 -9 -22 -4 -32 7 -16 8 -15 11 5 3 13 12 22 23 22 28 0 34 -19 14 -41 -17 -18 -16 -19 14 -19 42 0 82 20 82 40 0 10 -8 20 -17 23 -10 2 -26 8 -36 12 -16 6 -17 4 -12 -21 3 -16 2 -22 -1 -14 -8 19 -34 40 -50 40 -6 0 -17 -7 -24 -15z"/>
 <path d="M1389 881 c-9 -26 -26 -37 -99 -65 -8 -4 1 -4 19 -1 48 7 77 28 89 64 6 17 9 31 6 31 -3 0 -10 -13 -15 -29z"/>
 </g>
<g id="layer127" fill="#f4f3f5" stroke="none">
 <path d="M840 1973 c0 -25 57 -133 70 -133 3 0 13 7 23 14 17 13 17 17 1 80 l-16 66 -39 0 c-36 0 -39 -2 -39 -27z"/>
 <path d="M1066 1985 c-3 -8 -8 -38 -12 -66 -6 -48 -5 -52 22 -74 l29 -24 -39 -39 -39 -40 64 -32 c85 -43 128 -84 136 -133 5 -37 6 -37 21 -16 12 17 12 28 3 59 -6 20 -11 49 -11 63 0 14 -15 79 -34 144 -18 65 -36 130 -40 146 -6 24 -11 27 -50 27 -30 0 -46 -5 -50 -15z m78 -105 c-15 -27 -31 -50 -36 -50 -12 0 -11 2 18 54 14 25 30 46 35 46 6 0 -2 -22 -17 -50z"/>
 <path d="M825 1919 c-44 -121 -80 -310 -68 -356 4 -16 6 -35 5 -43 -6 -35 16 16 22 55 11 60 28 79 111 125 41 23 75 43 75 45 0 2 -16 20 -36 42 -55 58 -60 65 -82 107 -14 26 -23 34 -27 25z"/>
 <path d="M960 1393 l-35 -17 50 -6 c42 -6 44 -7 15 -9 -64 -3 -71 -21 -8 -21 31 0 69 -5 83 -10 23 -9 26 -8 21 5 -3 8 0 15 7 15 6 0 0 11 -13 25 -33 33 -76 39 -120 18z"/>
 <path d="M837 908 c8 -42 6 -41 32 -17 24 23 20 32 -16 44 -21 6 -22 4 -16 -27z"/>
 <path d="M1138 933 c-24 -6 -23 -30 2 -43 17 -9 20 -8 20 8 0 10 5 23 12 30 13 13 2 15 -34 5z"/>
 <path d="M698 919 c-22 -12 -23 -35 -2 -43 27 -10 32 -7 36 24 5 32 -4 37 -34 19z"/>
 <path d="M1187 923 c-10 -9 -9 -23 2 -23 5 0 11 7 15 15 5 15 -5 20 -17 8z"/>
 <path d="M1274 896 c0 -32 1 -33 23 -23 25 11 29 27 11 45 -21 21 -34 13 -34 -22z"/>
 <path d="M1240 885 c-10 -12 -10 -15 4 -15 9 0 16 7 16 15 0 8 -2 15 -4 15 -2 0 -9 -7 -16 -15z"/>
 </g>

</svg>