<?xml version="1.0" encoding="UTF-8" standalone="no"?>
<svg xmlns:rdf="http://www.w3.org/1999/02/22-rdf-syntax-ns#" xmlns="http://www.w3.org/2000/svg" height="267" viewBox="0 0 266.66666 266.66666" width="267" version="1.1" xmlns:cc="http://creativecommons.org/ns#" xmlns:dc="http://purl.org/dc/elements/1.1/">
 <g stroke-width="1.33">
  <path d="m36.7 261c.484-3.12 2.4-8.7 4.26-12.4 3.73-7.44 10.3-11.8 19.9-13.3 9.15-1.41 42.5-12.9 45.6-15.7l2.93-2.65.660 3.17c3.88 18.6 5.21 24.3 7.28 30.9 2.57 8.27 3.16 8.28 7.26.190 1.13-2.24 4.49-6.57 7.46-9.63l5.4-5.56-9.31-5.44c-10.6-6.2-12.7-8.82-14-17.5-.755-5.19-1.86-6.97-7.07-11.3-3.39-2.85-7.33-5.78-8.75-6.51-1.61-.831-3.41-4.35-4.79-9.33-2.87-10.4-5.47-15.1-9.38-17.1-2.24-1.12-3.85-3.87-5.48-9.36-1.27-4.28-3.93-10.1-5.91-13-2.01-2.9-3.89-7.76-4.25-11-.565-5.01-.202-6.17 2.63-8.4l3.29-2.59-1.87-10.6c-2.32-13.2-1.37-21.9 3.49-32.1 3.92-8.2 11.9-17.2 16.6-18.7 1.5-.476 5.76-4.19 9.47-8.26 12.3-13.5 26-17.4 45.2-12.9 23 5.34 35.5 11.3 45.3 21.9 12.7 13.6 16.4 31.3 12 57.1-.549 3.2-.248 4.33 1.15 4.33 7.76 0 9 11.1 2.43 21.7-2.18 3.51-4.78 9.22-5.78 12.7-1.26 4.39-3.04 7.09-5.87 8.96-3.86 2.53-7.91 11.3-10.2 22.1-.418 1.95-2.22 4.11-4.16 5-1.88.857-5.72 3.69-8.53 6.29-4.11 3.8-5.25 5.93-5.8 10.8-.874 7.76-4.25 12.2-12.5 16.5-13.1 6.87-12.5 5.53-5.63 12.9 3.38 3.62 7.11 8.44 8.29 10.7 3.61 6.98 2.38 6.54-2.26-.824l-4.4-6.98-3.07 3.27c-2.85 3.04-2.96 3.75-1.6 10.1.807 3.76 1.47 7.11 1.47 7.44 0 .331-3.85.601-8.55.601h-8.55l1.83-7.67c1.75-7.32 1.7-7.77-.976-10-1.54-1.3-2.96-2.2-3.14-2-3.08 3.36-8.53 15.2-7.91 17.2.777 2.45-.580 2.53-42.1 2.53h-41.1zm112-68c4.44-3.49 4.38-8.22-.0867-7.1-1.72.431-6.33.861-10.3.955-7.75.186-8.87 2.17-1.24 2.17 3.06 0 4.35.506 3.76 1.47-.516.835-2.56 1.14-4.75.7-4.89-.978-5.01 1.18-.172 2.95 5.7 2.08 9.01 1.78 12.7-1.15zm-21.8-55.5c.805-.805-1.76-4.87-3.42-5.43-.701-.234-1.98 1.44-2.84 3.71-1.54 4.08-1.51 4.13 2.03 3.24 1.98-.496 3.88-1.18 4.22-1.52zm34.2.0633c-.445-1.16-.809-2.98-.809-4.05 0-1.52-.569-1.63-2.67-.511-4.5 2.41-3.06 6.24 2.48 6.56 1.12.0651 1.5-.701 1-2zm-52.5-3.22c-.666-4.54-1.38-4.82-5.03-2-2.56 1.98-2.56 2.02 0 4 4.04 3.12 5.69 2.47 5.03-2zm10.4 1.31c1.49-2.78.796-5.31-1.45-5.31-.704 0-.904 1.5-.443 3.33.686 2.73.351 3.33-1.86 3.33-1.49 0-2.97-.75-3.3-1.67-.327-.917-1.04-1.26-1.58-.755-1.69 1.57.630 3.76 3.98 3.76 1.85 0 3.82-1.14 4.65-2.69zm52 1.55c0-.632-1.5-.862-3.33-.511-2.59.495-3.34.0809-3.35-1.85-.0167-2.03-.246-2.13-1.25-.552-.674 1.06-.929 2.41-.568 3 .888 1.44 8.5 1.36 8.5-.0848zm7.41-.762c2.05-1.52 2.25-2.25.947-3.57-2.24-2.27-11.4-2.96-10.6-0.8.314.890 1.61 1.53 2.88 1.41 1.66-.147 2.12.515 1.65 2.33-.793 3.03 1.53 3.31 5.16.629zm-18.1 129c0-.588 2.1-8.51 4.67-17.6s4.67-18.2 4.67-20.2c0-2.01.618-5.28 1.37-7.26l1.37-3.61 2.96 2.67c3.05 2.76 36.2 14.2 45.6 15.7 2.93.481 7.86 2.16 11 3.74 4.53 2.3 6.28 4.33 9 10.4 1.86 4.14 3.38 9.7 3.38 12.4v4.83h-42c-23.1 0-42-.481-42-1.07z" fill="#f1c8b1"/>
  <path d="m36.9 261c2.4-14.4 11.1-23.7 23.7-25.4 8.13-1.1 45-13.6 46.3-15.7 1.87-3.02 3.59.105 4.5 8.15.505 4.46 2.68 13.8 4.84 20.9 6.12 19.9 10.7 17.8-38.2 17.8h-42.1zm95.3 3.33c.004-1.28.650-4.65 1.43-7.47 1.28-4.59 1.11-5.48-1.59-8.35l-3.02-3.21 4.89-5.01 4.89-5.01-2.97-1.86c-1.64-1.02-5.71-3.23-9.04-4.91-8.06-4.05-10-6.52-11.8-14.8-1.56-7.44-7.72-14.7-15.2-17.8-2.27-.960-3.96-2.9-4.41-5.05-1.54-7.38-7.55-21.5-9.15-21.5-2.67 0-5.72-4.22-7.28-10.1-.792-2.98-3.18-8.08-5.32-11.3-2.13-3.26-4.29-8.45-4.79-11.5-.811-4.97-.512-6 2.56-8.86 3.23-3 3.39-3.64 2.14-9.04-2.3-9.96-1.7-25.6 1.27-33.5 3.11-8.31 10.4-17.4 16.5-20.5 2.31-1.17 6.8-5.06 9.98-8.64 11.2-12.6 24.6-17.4 40.7-14.5 14.1 2.49 31.9 8.67 39.8 13.8 9.58 6.22 14.8 12.1 19.3 21.5 3.58 7.67 3.74 8.85 3.74 28.3 0 13.8.466 20.3 1.46 20.3.803-.00002 2.53 1.19 3.84 2.63 3.39 3.74 2.1 12.4-3.04 20.5-2.27 3.56-4.51 8.36-4.99 10.7-1.2 5.78-4.22 10.2-6.99 10.2-1.63 0-3.2 2.46-5.3 8.33-1.64 4.58-2.99 9.66-2.99 11.3.00016 1.64-1.51 3.99-3.43 5.33-1.88 1.32-6.23 4.74-9.67 7.6-5.43 4.53-6.35 6.05-7.1 11.7-1.09 8.23-2.19 9.48-14.1 16-5.36 2.94-9.75 5.64-9.75 5.98 0 .348 1.8 2.15 4 4 4.72 3.97 4.97 5.84 1.23 9.22-2.33 2.11-2.63 3.45-1.89 8.38.484 3.23 1.2 6.69 1.58 7.7.548 1.43-1.09 1.83-7.44 1.83-6.87 0-8.14-.365-8.14-2.33zm17.9-72c2-2 3.01-3.83 2.26-4.09-.755-.252-1.04-1.33-.628-2.4.611-1.59.105-1.7-2.83-.581-1.96.747-6.78 1.36-10.7 1.36-6.71 0-7.08.174-6.41 3 1.73 7.27 12.2 8.82 18.3 2.7zm-8.27-23.9c-.917-.370-2.42-.370-3.33 0-.917.370-.167.673 1.67.673 1.83 0 2.58-.303 1.67-.673zm-20.3-19.9c8.13-3.25 13.5-12.6 10.5-18.2-1.86-3.48-11.4-7.61-17.6-7.64-13.6-.0785-22.3 5.36-22.3 14 0 11.2 15.4 17.4 29.3 11.8zm-9.32-4.15c-1.1-.419-2.3-1.14-2.67-1.6-.367-.460-2.17-1.59-4-2.5l-3.33-1.66 3.33.683c1.83.376 7.08.691 11.7.702 6.23.0136 8.33.488 8.33 1.88 0 3.1-7.88 4.58-13.3 2.5zm.559-8.54c-1.14-1.84 1.47-4.37 3.32-3.23.797.493 1.45 1.4 1.45 2.01 0 1.77-3.83 2.75-4.77 1.22zm-15.1-1c-.0155-4.49 2.08-6.34 8.23-7.27 7.74-1.18 18 2.09 20.9 6.61l2.08 3.33-3.6-3.23c-3.06-2.74-5.02-3.25-13-3.33-8.52-.0925-9.65.212-12 3.23-2.35 3.05-2.57 3.1-2.58.667zm82.6 14c15.5-7.89 7.71-25.7-11-25.2-3.14.0851-4.65.430-3.36.768 1.29.337 2.05 1.09 1.69 1.68-.361.584 1.49 1.41 4.1 1.83 5.51.894 8.52 3.01 8.52 5.99 0 1.67-.385 1.57-1.9-.497-1.59-2.16-3.46-2.57-11.4-2.48-7.77.0849-10 .611-12.3 2.89-4.91 4.91-2.43 7.01 8.3 7.01 5.2 0 10.6-.621 12-1.38 1.73-.926 2.58-.934 2.58-.0255 0 .745-1.65 1.76-3.67 2.25-2.02.494-4.03 1.45-4.47 2.13-.444.676-3.33 1.57-6.42 1.98-4.54.609-6.42.156-9.86-2.38l-4.25-3.13 2.09 3.17c5.18 7.85 19.3 10.5 29.3 5.38zm-16.8-12.2c-1.14-1.84 1.47-4.37 3.32-3.23.797.493 1.45 1.4 1.45 2.01 0 1.77-3.83 2.75-4.77 1.22zm-4.56 130c0-.222 2.02-7.57 4.5-16.3 2.47-8.76 4.93-19.1 5.46-22.9 1.07-7.76 2.44-9.46 5.32-6.58 2.32 2.32 36.3 13.7 44.7 15 13.5 2.07 22.1 11.3 23.7 25.3l.663 5.88h-42.2c-23.2 0-42.2-.181-42.2-.403z" fill="#f3b097"/>
  <path d="m36.7 262c.484-2.75 2.5-8.3 4.48-12.3 4.05-8.25 10-12.5 19.5-13.8 8-1.1 43.1-12.8 45.5-15.1 3.02-3.02 4.18-1.26 5.12 7.7.474 4.53 2.66 13.9 4.86 20.7 6.37 19.9 10.8 17.8-38.1 17.8h-42.2zm95.4 2.67c.004-1.28.650-4.65 1.43-7.47 1.28-4.6 1.11-5.48-1.61-8.37l-3.04-3.23 4.9-4.9c4.31-4.31 5.33-4.74 8.47-3.63 1.96.699 4.79 2.91 6.29 4.92l2.72 3.65-3.06 3.26c-2.82 3-2.96 3.84-1.78 10.7l1.28 7.42h-7.8c-6.54 0-7.8-.376-7.79-2.33zm29.5-3.33c.694-3.12 2.7-10.5 4.47-16.3 1.76-5.87 3.61-13.8 4.11-17.7.977-7.64 2.51-9.67 4.97-6.6.868 1.08 9.38 4.51 18.9 7.61 24.4 7.95 24.7 8.03 28.3 8.03 1.78 0 5.85 1.54 9.05 3.41 6.65 3.89 11.3 11.9 12.3 21.4l.663 5.88h-84zm-36.1-39.5c-8-2.86-10.7-5.58-10.8-10.7-.0182-3.28-3.63-6.88-16.3-16.2-2.02-1.49-3.67-3.79-3.67-5.11 0-5.34-6.24-18.9-9.41-20.5-3.54-1.77-6.54-6.75-6.57-10.9-.0108-1.49-2.12-5.97-4.69-9.96-6.05-9.39-6.72-17.6-1.74-21.5 2.5-1.95 2.6-2.69 1.23-9.07-2.08-9.71-1.85-22.4.545-30.5 2.39-8.05 8.98-17.2 15.1-21 2.38-1.47 8.37-6.57 13.3-11.3 14.7-14.2 27.4-16.9 50.9-10.7 25 6.53 39.3 16.2 47 31.9 4.32 8.79 4.33 8.86 4.26 29l-.0732 20.1 3.74 2.15c5.25 3.01 5.16 10.2-.235 18.7-2.19 3.45-4.97 9.3-6.18 13-2.27 6.95-4.86 10.6-7.6 10.6-1.88.0234-7.57 14.2-7.57 18.9 0 3.05-3.55 7.72-5.86 7.72-.540 0-3.94 2.55-7.56 5.67-5.63 4.85-6.58 6.36-6.58 10.5-.00061 4.55-.403 5.01-6.91 7.81-9.88 4.25-24.8 4.91-34.4 1.51zm30.4-12c3.56-1.35 9.2-4.33 12.5-6.63 10.9-7.47 14.6-15.1 24.3-50.5 4-15 4-17 1-17-1.1 0-2 1.15-2 2.56 0 3.62-6.41 10.8-11.6 13-5.56 2.32-15.3 2.33-20.8.0173-5.48-2.29-12.4-10.1-13.6-15.4-.911-4.15-3.18-5.34-8.37-4.41-1.89.340-3 1.49-3 3.12 0 8.72-9.75 17-21.2 18.1-11.2 1.01-19.4-2.99-23.1-11.2-2.51-5.66-5.09-6.66-5.09-1.97 0 2.2 3.48 15.1 9.57 35.5 5.2 17.4 12.1 25.8 27 32.8 9.99 4.73 23.6 5.28 33.9 1.37zm-15.4-13.1c1.3-.338 3.1-.316 4 .0495.903.365-.159.642-2.36.615-2.2-.0272-2.94-.326-1.64-.664zm-10.9-5.12c-4.87-5.55-4.97-5.95-1.5-5.95 1.78 0 2.93 1.2 3.52 3.67.482 2.02 1.47 4.42 2.19 5.33 2.93 3.72-.356 1.34-4.21-3.05zm18.5 4.21c0-.277 1.05-1.33 2.33-2.33 2.11-1.66 2.16-1.61.503.503-1.74 2.22-2.84 2.93-2.84 1.83zm4.61-8.68c-.0307-2.3.910-4.45 2.34-5.34 2.89-1.8 2.93-1.36.456 4.57-2.35 5.62-2.73 5.73-2.79.770zm-18.3-15.8c-2.75-.278-5-.972-5-1.54 0-.571 1.95-.814 4.33-.540 8.09.931 16 .227 17.4-1.55.674-.843.890-.602.557.622-0.3 1.1-2 2.06-3.77 2.13-1.77.0735-4.42.414-5.89.757s-4.92.397-7.67.119zm4-13.2c.917-.370 2.42-.370 3.33 0 .917.370.167.673-1.67.673-1.83 0-2.58-.303-1.67-.673zm-49.8 6.55c-.458-2.02-2.41-5-4.33-6.63-2.85-2.41-3.18-3.28-1.78-4.67s1.55-1.27.830.627c-1 1-.8 2 .1 2 1.98 0 1.77-3.77-.476-8.67l-1.83-4-.108 5.08c-0.07 3.28-.618 4.76-1.55 4.19-.794-.491-.576.824.484 2.92s1.65 4.6 1.31 5.56c-.750 2.11 3.35 6.92 5.89 6.92 1.3 0 1.58-1.05.987-3.67zm108 2c2.8-2.2 4.8-8.47 2.2-6.91-1.38.832-1.35.527.121-1.29 2.23-2.75 2.03-11.5-.306-13.5-.869-.735-1.19-.837-.716-.227.475.610.007 3.16-1.04 5.67-1.81 4.34-1.57 5.12 1.46 4.68.733-.105.0427.874-1.53 2.18-3 1-6 10-4 10 .651 0 2.14-.75 3.3-1.67zm.659-13.9c.375-.978.854-1.78 1.06-1.78.210 0 .688.8 1.06 1.78.375.978-.103 1.78-1.06 1.78-.960 0-1.44-.8-1.06-1.78zm-75.6-3.4c4.9-1.8 9.06-6.17 10.7-11.3 2.95-8.95-5.26-15.1-20.2-15.1-14 0-22.6 6.76-20.6 16.1.935 4.26 7.22 10.3 11.8 11.2 7.22 1.53 8.43 1.64 11.6 1 1.83-.371 4.83-1.23 6.67-1.9zm-11-8.68c2.37-.295 6.57-.299 9.33-.0107 2.77.289.830.530-4.3.536-5.13.005-7.4-.230-5.03-.525zm2.26-4.55c-1.14-1.84 1.47-4.37 3.32-3.23.797.493 1.45 1.4 1.45 2.01 0 1.77-3.83 2.75-4.77 1.22zm-13.9-2.08c0-.733 1.21-2.43 2.68-3.76 5.12-4.64 26.6-1.83 26.6 3.48 0 .768-1.55.177-3.44-1.31-4.64-3.65-18.9-3.4-23.1.401-1.54 1.39-2.79 1.93-2.79 1.19zm83.3 14.4c2.2-1.22 5.09-4.42 6.42-7.12 2.25-4.57 2.27-5.23.288-9.4-2.71-5.71-9.38-8.94-18.4-8.94-8.89 0-15.2 1.83-19.2 5.53-3.8 3.57-3.94 7.11-.512 12.7 6.15 10.1 20.3 13.3 31.4 7.21zm-23.3-7.55c4.77-1.04 18.5-1.33 17-.362-.923.586-5.58 1.01-10.3.931-4.77-.0739-7.77-.330-6.67-.569zm5.89-4.76c-1.14-1.84 1.47-4.37 3.32-3.23.797.493 1.45 1.4 1.45 2.01 0 1.77-3.83 2.75-4.77 1.22zm-12.5-.593c.250-7.27 21.2-11.1 27.4-4.98 1.06 1.06 1.93 2.61 1.93 3.43 0 .821-.854.328-1.9-1.1-1.58-2.16-3.46-2.57-11.3-2.49-7.99.0864-9.95.583-12.8 3.23-1.83 1.72-3.31 2.58-3.29 1.9zm53.2-.311c.0524-3.01-.413-4.11-1.46-3.46-.954.589-1.18.366-.588-.588.523-.847 1.97-1.55 3.21-1.56 1.84-.0166 1.91-.240.376-1.21-4.87-3.09-6.59 1.83-3.46 9.9l1.03 2.67-2-2-2-3 1 3c.538 1.47 1.3 4.77 1.69 7.33l.711 4.67 1.01-5.33c.555-2.93 1.04-7.32 1.09-9.75zm-125 2.49c-.0303-1.33-.731-.882-1.95 1.25-2.59 4.54-2.51 2.2.0969-2.85 1.92-3.72 1.91-4.26-.125-6.51-1.22-1.35-3.14-2.1-4.25-1.68-1.52.583-1.07 1.24 1.79 2.6 2.1 1 2.77 1.53 1.49 1.17-1.89-.522-2.33.213-2.33 3.87 0 2.48.396 5.55.881 6.81.822 2.14 1 2.13 2.67-.146.982-1.34 1.76-3.38 1.74-4.52zm114-15c-3.32-16-8.15-26.5-15.8-34.2-9.65-9.68-15.8-11-34.3-7.44-8.46 1.63-16.4 2.38-20.7 1.95-15-1.52-25.2 2.93-30.6 13.4-3.62 7-7.59 35.6-4.94 35.6.461 0 3.08-2.03 5.83-4.51 5.09-4.6 17.7-10.2 23.1-10.2 8.79.0221 18.4 5.32 15.6 8.62-2.17 2.61 1.11 4.28 8.01 4.07 7.44-.222 9.65-1.47 8.58-4.85-1.24-3.91 9.69-8.45 17.7-7.35 8.03 1.1 17.1 5.31 21.4 9.91 3.03 3.25 6.89 5.71 7.83 5.02.148-.109-.651-4.64-1.78-10.1z" fill="#df926f"/>
  <path d="m36.9 262c.465-2.75 2.31-8.1 4.11-11.9 3.84-8.13 9.43-12 20.4-14 11.2-2.08 43.3-13.1 45.2-15.6 2.4-3.05 3.72-.547 4.72 8.93.434 4.15 2.61 13.5 4.84 20.7 2.23 7.24 4.05 14 4.05 15 0 1.52-7.23 1.84-42.1 1.84h-42zm95.4 2c.0414-1.65.828-5.1 1.75-7.67 1.56-4.36 1.45-4.85-1.7-7.51l-3.37-2.84 4.83-4.83c2.65-2.65 5.67-4.83 6.71-4.83 2.02 0 10.4 7.59 10.4 9.42 0 .605-1.26 1.99-2.81 3.07-2.54 1.78-2.72 2.76-1.87 10.1l.941 8.11h-7.46c-6.87 0-7.46-.237-7.39-3zm28.9 0c.378-1.65 2.38-8.7 4.45-15.7 2.07-6.97 4.15-15.7 4.62-19.3 1.3-10.1 1.62-10.7 4.35-8.32 2.83 2.51 36.3 13.9 44.4 15.1 10.3 1.53 17.1 5.74 20.7 12.9 1.78 3.51 3.6 9.07 4.05 12.4l.821 5.99h-84.2zm4.4-51.1c0-2.79-.460-3.28-2.33-2.51-7.6 3.16-15.2 4.64-23.5 4.59-8.34-.0516-12.7-.994-21-4.53-1.53-.652-2.41-.190-2.85 1.49-.430 1.66-.677 1.31-.783-1.12-.148-3.39-4.1-7.21-16.8-16.2-2.18-1.54-3.39-3.68-3.41-6-.0161-1.98-1.22-6.22-2.67-9.42s-2.64-6.6-2.64-7.57c0-.966-1.05-2.03-2.33-2.37-2.22-.581-2.22-.617 0-.764 2.94-.195 2.92-.610-.469-13.1s-4.62-14.1-6.33-8.2l-1.3 4.51-.120-4.27c-.0661-2.35.583-5.81 1.44-7.7 1.27-2.78 1.15-4.31-.645-8.06-1.21-2.55-2.72-4.63-3.35-4.63-1.89 0-4.69-21.9-3.84-30.1 1.44-14 12.3-30.8 21.6-33.4 1.47-.409 4.88-3.64 7.59-7.17 6.91-9.02 19.2-15 30.7-15 10.3.0049 32 5.57 43.4 11.1 10.7 5.24 20.8 15.1 25.4 24.9 3.43 7.33 3.6 8.69 3.61 28.7.007 15-.441 21.2-1.58 21.6-2.54.974-3.5 9.38-1.66 14.5.976 2.7 1.22 5.65.587 7.11-1.03 2.4-1.1 2.39-1.62-.165-.851-4.21-1.73-6.43-2.32-5.84-0.3 0.3-1.75 5.05-3.23 10.6-1.48 5.5-3.08 11-3.57 12.3-1.35 3.51 4.12 2.97 6.66-.659 1.14-1.63 2.08-2.32 2.08-1.54 0 1.77-4.38 5.84-6.28 5.84-1.52 0-5.22 9.48-7.02 18-.618 2.93-2.14 5.93-3.39 6.67-1.25.739-5.35 3.71-9.12 6.59l-6.85 5.25 6.27-6.43c7.74-7.94 10.6-13.8 16.5-34.5 5.68-19.7 7.08-28.9 4.4-28.9-1.02.008-2.85 2.38-4.06 5.28-5.17 12.3-24.6 15.8-36.5 6.47-2.03-1.6-5.12-6.13-6.87-10.1-2.98-6.74-3.44-7.15-7.44-6.76-3.58.350-4.4 1.09-5.11 4.6-1.97 9.71-12.6 17.8-23.3 17.8-9.97-.0557-21.9-8.13-21.9-14.8 0-3.54-3.73-3.09-4.25.513-.825 5.7 9.65 41.8 14.8 51 7.23 12.9 25.3 23.3 40.5 23.3 7.29 0 17.9-2.91 23.3-6.37 2.94-1.9 3-1.83 3 3.55 0 3.02-.3 5.49-.667 5.49s-.667-1.56-.667-3.48zm-47.7-61.9c6.95-1.93 12.7-7.23 14.6-13.4 1.38-4.61 1.26-5.57-.976-8.09-3.85-4.33-10.3-6.49-19.2-6.49-18.4 0-27 10.8-17.4 21.7 5.84 6.65 13.7 8.77 23 6.19zm-5.27-10.2c1.3-.338 3.1-.316 4 .0493.903.365-.159.642-2.36.615-2.2-.0272-2.94-.326-1.64-.664zm.494-4c-1.5-1.5-.915-3.07 1.15-3.07 1.1 0 2 .565 2 1.25 0 1.68-2.08 2.89-3.15 1.82zm-10.9-6.31c1.74-1.41 5.02-2.04 10-1.92l7.41.182-8.1.926c-4.45.510-8.95 1.37-10 1.92-1.05.545-.738.0456.686-1.11zm80 18.2c2.26-1.31 5.3-4.57 6.74-7.23 2.48-4.57 2.5-5.1.455-9.4-2.92-6.12-9.3-8.98-19.9-8.94-9.83.034-19.1 3.6-20.4 7.88-2.19 6.9 4.3 16.6 13.3 19.9 5.17 1.89 14.6.84 19.9-2.2zm-16.2-7.86c1.3-.338 3.1-.316 4 .0493.903.365-.159.642-2.36.615-2.2-.0272-2.94-.326-1.64-.664zm-.359-5.12c0-1.08.9-1.96 2-1.96s2 .536 2 1.19c0 .655-.9 1.54-2 1.96-1.22.467-2 .003-2-1.19zm-12-1.83c0-4.08 18.7-7.5 23.7-4.33.960.609-1.53.825-5.61.486-8.49-.704-13.1.197-16 3.14-1.15 1.15-2.09 1.47-2.09.699zm40.7-12.3c-4-22.2-12-35.4-23-41.1-8.01-3.99-12.8-4.28-25.2-1.54-4.77 1.05-15 1.94-22.7 1.98-21.7.118-27.8 4.04-32.9 21.3-1.18 4-2.53 12.2-2.99 18.2-.943 12.1-.210 12.8 6.77 5.82 5.36-5.32 12.8-8.4 21.9-9.01 9.37-.633 17.4 2.36 16 5.99-1.43 3.72 1.86 5.74 9.33 5.74 7.31 0 9.11-1.17 9.2-5.95.07-3.7 5.48-6.01 14-6 8.92.0117 16.7 3.31 25 10.6 3.35 2.95 6.36 5.1 6.69 4.77.329-.329-.407-5.56-1.64-11.6zm-66 68.3c-2-3.74-1.72-4.36 1.29-2.75 1.47.785 2.67 2.31 2.67 3.38 0 2.78-2.33 2.42-3.95-.626zm24.9-2.38c-.884-1.43 2.46-6.8 3.55-5.71.367.367-.0988 2.1-1.03 3.84-.936 1.75-2.07 2.59-2.51 1.86zm47.2-27.4c-.0321-1.31 1.25-4.91 2.85-8 3.12-6.01 3.18-6.29 3.53-16 .138-3.89.753-6.09 1.56-5.59.733.453 1.33.189 1.33-.588s-.7-1.41-1.56-1.41c-.856 0-1.17-.386-.699-.857s1.77-.0977 2.89.830c2.33 1.94 2.77 9.36.556 9.36-.826 0-1.1.972-.629 2.21.508 1.32-.556 4.23-2.66 7.26-1.93 2.78-4.32 7.34-5.31 10.1-.995 2.79-1.83 4-1.87 2.68zm9.23-18.9c0-.733-.582-.433-1.29.667-.711 1.1-1.29 2.6-1.29 3.33 0 .733.582.433 1.29-.667.711-1.1 1.29-2.6 1.29-3.33zm-130 15c-.0579-1.13-2.19-5.33-4.74-9.33s-4.62-8.17-4.61-9.27c.0143-1.1.850-.2 1.86 2 2.22 4.85 2.64 3.66.554-1.58-2.38-5.98-2.42-9.5-.126-11.4 1.31-1.06 1.77-1.13 1.2-.174-.512.854-.361 1.75.336 2 .697.246 1.4 4.34 1.57 9.09 0.2 5.67 1.18 10.1 2.86 13 1.41 2.38 2.25 5.09 1.88 6.02-.464 1.15-.713 1.03-.785-.373z" fill="#a1cb20"/>
  <path d="m36.9 262c.465-2.75 2.31-8.1 4.11-11.9 3.84-8.13 9.43-12 20.4-14 11.2-2.08 43.3-13.1 45.2-15.6 2.4-3.05 3.72-.547 4.72 8.93.434 4.15 2.61 13.5 4.84 20.7 2.23 7.24 4.05 14 4.05 15 0 1.52-7.23 1.84-42.1 1.84h-42zm95.4 2c.0414-1.65.828-5.1 1.75-7.67 1.56-4.36 1.45-4.85-1.7-7.51l-3.37-2.84 4.83-4.83c2.65-2.65 5.67-4.83 6.71-4.83 2.02 0 10.4 7.59 10.4 9.42 0 .605-1.26 1.99-2.81 3.07-2.54 1.78-2.72 2.76-1.87 10.1l.941 8.11h-7.46c-6.87 0-7.46-.237-7.39-3zm28.9 0c.378-1.65 2.38-8.7 4.45-15.7 2.07-6.97 4.15-15.7 4.62-19.3 1.3-10.1 1.62-10.7 4.35-8.32 2.83 2.51 36.3 13.9 44.4 15.1 10.3 1.53 17.1 5.74 20.7 12.9 1.78 3.51 3.6 9.07 4.05 12.4l.821 5.99h-84.2zm4.4-51.1c0-2.79-.460-3.28-2.33-2.51-7.6 3.16-15.2 4.64-23.5 4.59-8.34-.0516-12.7-.994-21-4.53-1.53-.652-2.41-.190-2.85 1.49-.430 1.66-.677 1.31-.783-1.12-.148-3.39-4.1-7.21-16.8-16.2-2.18-1.54-3.39-3.68-3.41-6-.0161-1.98-1.22-6.22-2.67-9.42s-2.64-6.6-2.64-7.57c0-.966-1.05-2.03-2.33-2.37-2.22-.581-2.22-.617 0-.764 2.94-.195 2.92-.610-.469-13.1s-4.62-14.1-6.33-8.2l-1.3 4.51-.120-4.27c-.0661-2.35.583-5.81 1.44-7.7 1.27-2.78 1.15-4.31-.645-8.06-1.21-2.55-2.72-4.63-3.35-4.63-1.89 0-4.69-21.9-3.84-30.1 1.44-14 12.3-30.8 21.6-33.4 1.47-.409 4.88-3.64 7.59-7.17 6.91-9.02 19.2-15 30.7-15 10.3.0049 32 5.57 43.4 11.1 10.7 5.24 20.8 15.1 25.4 24.9 3.43 7.33 3.6 8.69 3.61 28.7.007 15-.441 21.2-1.58 21.6-2.54.974-3.5 9.38-1.66 14.5.976 2.7 1.22 5.65.587 7.11-1.03 2.4-1.1 2.39-1.62-.165-.851-4.21-1.73-6.43-2.32-5.84-0.3 0.3-1.75 5.05-3.23 10.6-1.48 5.5-3.08 11-3.57 12.3-1.35 3.51 4.12 2.97 6.66-.659 1.14-1.63 2.08-2.32 2.08-1.54 0 1.77-4.38 5.84-6.28 5.84-1.52 0-5.22 9.48-7.02 18-.618 2.93-2.14 5.93-3.39 6.67-1.25.739-5.35 3.71-9.12 6.59l-6.85 5.25 6.27-6.43c7.73-7.92 10.5-13.8 16.5-34.5 6.02-20.7 6.8-29.4 3.91-43.6-4.35-21.5-12-34.7-23.5-40.4-8.01-3.99-12.8-4.28-25.2-1.54-4.77 1.05-15 1.93-22.7 1.95-18.3.0610-24.2 2.68-29.5 13-5.12 10.1-9.72 43.3-7.28 52.5 10.1 38.1 14.1 47 25 55.5 16 12.5 37.7 14.4 52.8 4.62 2.94-1.9 3-1.83 3 3.55 0 3.02-.3 5.49-.667 5.49s-.667-1.56-.667-3.48zm-37-24c-2-3.74-1.72-4.36 1.29-2.75 1.47.785 2.67 2.31 2.67 3.38 0 2.78-2.33 2.42-3.95-.626zm24.9-2.38c-.884-1.43 2.46-6.8 3.55-5.71.367.367-.0988 2.1-1.03 3.84-.936 1.75-2.07 2.59-2.51 1.86zm47.2-27.4c-.0321-1.31 1.25-4.91 2.85-8 3.12-6.01 3.18-6.29 3.53-16 .138-3.89.753-6.09 1.56-5.59.733.453 1.33.189 1.33-.588s-.7-1.41-1.56-1.41c-.856 0-1.17-.386-.699-.857s1.77-.0977 2.89.830c2.33 1.94 2.77 9.36.556 9.36-.826 0-1.1.972-.629 2.21.508 1.32-.556 4.23-2.66 7.26-1.93 2.78-4.32 7.34-5.31 10.1-.995 2.79-1.83 4-1.87 2.68zm9.23-18.9c0-.733-.582-.433-1.29.667-.711 1.1-1.29 2.6-1.29 3.33 0 .733.582.433 1.29-.667.711-1.1 1.29-2.6 1.29-3.33zm-130 16c-.0579-1.13-2.19-5.33-4.74-9.33s-4.62-8.17-4.61-9.27c.0143-1.1.850-.2 1.86 2 2.22 4.85 2.64 3.66.554-1.58-2.38-5.98-2.42-9.5-.126-11.4 1.31-1.06 1.77-1.13 1.2-.174-.512.854-.361 1.75.336 2 .697.246 1.4 4.34 1.57 9.09 0.2 5.67 1.18 10.1 2.86 13 1.41 2.38 2.25 5.09 1.88 6.02-.464 1.15-.713 1.03-.785-.373zm33.6-16.9c1.3-.338 3.1-.316 4 .0493.903.365-.159.642-2.36.615-2.2-.0272-2.94-.326-1.64-.664zm53.3 0c1.3-.338 3.1-.316 4 .0493.903.365-.159.642-2.36.615-2.2-.0272-2.94-.326-1.64-.664zm-52.8-4c-1.5-1.5-.915-3.07 1.15-3.07 1.1 0 2 .565 2 1.25 0 1.68-2.08 2.89-3.15 1.82zm52.5-1.12c0-1.08.9-1.96 2-1.96s2 .536 2 1.19c0 .655-.9 1.54-2 1.96-1.22.467-2 .003-2-1.19zm-12-1.83c0-4.08 18.7-7.5 23.7-4.33.960.609-1.53.825-5.61.486-8.49-.704-13.1.197-16 3.14-1.15 1.15-2.09 1.47-2.09.699zm-51.4-3.36c1.74-1.41 5.02-2.04 10-1.92l7.41.182-8.1.926c-4.45.510-8.95 1.37-10 1.92-1.05.545-.738.0456.686-1.11zm25.7-6.28c-4.64-2.6-17.7-4.1-23-2.65-6.05 1.67-4.54-.169 1.91-2.33 9.11-3.05 25.5-.623 25.5 3.77 0 2.04-1.93 2.57-4.36 1.2zm21.9-.595c.264-1.37 1.98-3.25 3.8-4.17 4.43-2.24 17-2.07 22 .301l4 1.9-6-.684c-5.37-.613-14.9 1.19-21.8 4.1-1.96.832-2.37.533-1.99-1.45z" fill="#cc6b4d"/>
  <path d="m36.6 264c.348-1.28 1.02-4.05 1.49-6.15 1.71-7.66 6.33-15.4 10.7-18 2.43-1.43 7.93-3.3 12.2-4.16 10.5-2.09 43.3-13.2 46-15.6 2.43-2.14 2.62-1.64 4.51 11.6.470 3.3 2.6 11.7 4.74 18.6 2.14 6.94 3.88 13.4 3.88 14.3 0 1.37-8.61 1.72-42.1 1.72-39.4 0-42-.147-41.5-2.33zm95.5-.166c0-1.37.865-4.95 1.92-7.95 1.87-5.31 1.84-5.51-1.51-7.95l-3.43-2.5 4.89-4.89c2.69-2.69 5.65-4.89 6.58-4.89.932 0 3.76 2.14 6.29 4.76l4.59 4.76-3.17 2.59c-2.92 2.38-3.1 3.22-2.27 10.6l.903 7.98h-7.4c-6.35 0-7.4-.356-7.4-2.5zm29.3.166c.008-1.28 1.76-8.13 3.9-15.2 2.14-7.09 4.28-15.8 4.76-19.3 1.55-11.4 1.6-11.5 5.74-8.53 4.07 2.89 39.8 14.7 44.5 14.8 1.7.007 6.13 1.43 9.84 3.16 5.88 2.74 7.16 4.08 9.83 10.3 1.69 3.93 3.38 9.41 3.75 12.2l.675 5.03h-41.5c-38.6 0-41.5-.161-41.5-2.33zm-63.2-70c-1.8-1.26-2.97-3.49-2.99-5.67-.0161-1.98-1.22-6.21-2.67-9.4-2.75-6.05-3.35-9.54-1.64-9.49.55.0161 2.36 4.29 4.03 9.51 1.67 5.21 4.26 11.2 5.76 13.3 3.02 4.24 2.04 4.93-2.49 1.75zm84.3-3.59c1.71-3.12 4.18-9.12 5.48-13.3 1.3-4.22 2.86-7.67 3.46-7.67 1.41 0 1.57-.734-2.22 10-1.81 5.13-3.31 10.4-3.33 11.6-.0237 1.93-3.63 5.05-5.85 5.05-.363 0 .740-2.55 2.45-5.67zm-53.3-.992c-2.05-2.26-2.1-2.67-.357-2.67 1.14 0 2.44.986 2.9 2.19 1.26 3.28.172 3.49-2.55.484zm24.7-4.67c0-1.1.581-2 1.29-2 .710 0 .946.9.524 2s-1 2-1.29 2c-.288 0-.524-.9-.524-2zm-75.1-38c.0640-1.55.380-1.87.806-.806.385.962.338 2.11-.105 2.56-.443.443-.758-.344-0.7-1.75zm3.15-9.14c-.509-2.71-2.28-6.55-3.94-8.52-3.72-4.42-6.68-21-5.61-31.5 1.39-13.4 9.93-27.7 19.2-32.1 2.74-1.3 6.2-3.92 7.68-5.82 12.2-15.7 28.1-20.6 50-15.4 33.8 7.96 49.7 21 54.9 44.9 2.07 9.66.449 32.6-2.91 41.1-1.44 3.66-2.64 7.98-2.66 9.6-.0824 6-2.26-.942-3.15-10-2.3-23.6-12.2-42.7-25.5-48.9-7.14-3.36-13.9-3.53-27.3-.677-6.68 1.42-13.2 1.87-19.5 1.36-18-1.44-28.1 4.38-33.2 19.1-1.16 3.34-2.73 13.6-3.5 22.7-1.47 17.5-3 22.3-4.54 14.1zm5.76-54.5c1.64-2.79 2.38-4.69 1.63-4.23-2.9 1.79-6.63 11.5-7.28 18.9l-.673 7.77 1.66-8.68c.915-4.77 3.01-11 4.65-13.7zm77.7 53.1c0-2.16 2.08-2.65 3.25-.765.406.656-.159 1.54-1.25 1.96-1.21.464-1.99-.004-1.99-1.19zm-52.7-.625c.453-.733 1.39-1.33 2.08-1.33s1.25.6 1.25 1.33c0 .733-.935 1.33-2.08 1.33s-1.71-.6-1.25-1.33zm-4.32-6.29c2.03-.306 5.03-.298 6.67.0182s-.0183.567-3.68.557c-3.67-.01-5.01-.269-2.98-.575zm57.3.002c2.02-.306 5.32-.306 7.33 0 2.02.306.367.555-3.67.555-4.03 0-5.68-.250-3.67-.555zm-45-6.6c-3.67-1.04-9.37-1.62-12.7-1.29l-6 .603 6-1.96c6.65-2.17 16.8-1.64 21.2 1.12 6.3 3.94 2.37 4.64-8.56 1.53zm28.7.822c0-.771 2.25-2.34 4.99-3.49 5.31-2.22 16.8-1.84 21.3.697 1.8 1.01 1.03 1.17-3.08.620-3.25-.433-8.48.145-12.9 1.42-8.68 2.52-10.3 2.64-10.3.749z" fill="#b84232"/>
  <path d="m37 262c.436-2.38 2.3-7.77 4.13-12 4.03-9.21 7.81-11.8 22.3-15 13.3-2.95 40.7-12.4 43.7-15 2.43-2.16 2.17-2.89 4.5 12.6.414 2.75 2.51 10.8 4.67 17.8 2.15 7.05 3.91 13.5 3.91 14.3 0 1.1-11.5 1.52-42 1.52h-42zm95.1 1.83c0-1.37.865-4.95 1.92-7.95 1.87-5.31 1.84-5.51-1.51-7.95l-3.43-2.5 4.89-4.89c2.69-2.69 5.65-4.89 6.58-4.89.932 0 3.76 2.14 6.29 4.76l4.59 4.76-3.17 2.59c-2.92 2.38-3.1 3.22-2.27 10.6l.903 7.98h-7.4c-6.35 0-7.4-.356-7.4-2.5zm29.3.436c0-1.13 2.1-9.29 4.67-18.1 2.57-8.83 4.68-18 4.69-20.3.0285-5.88 1.7-8.3 3.9-5.64 1.9 2.29 40.8 15.4 45.7 15.4 1.75 0 6.23 1.52 9.96 3.38 5.64 2.81 7.25 4.47 9.55 9.8 1.52 3.53 3.16 8.91 3.65 12l.884 5.53h-41.5c-36.6 0-41.5-.245-41.5-2.06zm-64-71.3c-1.47-1.47-2.67-3.84-2.67-5.28s-1.22-5.72-2.72-9.51c-1.49-3.79-2.49-7.56-2.22-8.38.274-.818 1.58 1.81 2.9 5.85 1.32 4.03 3.83 10.2 5.58 13.7 3.45 6.89 3.24 7.78-.873 3.67zm82.7 2.38c.007-.209 1.55-3.38 3.42-7.05s3.08-5.17 2.67-3.33c-.404 1.83-.743 4.36-.753 5.62s-1.22 2.93-2.68 3.71c-1.47.785-2.66 1.26-2.65 1.05zm-51.3-6.37c-2.05-2.26-2.1-2.67-.357-2.67 1.14 0 2.44.986 2.9 2.19 1.26 3.28.172 3.49-2.55.484zm24.7-4.67c0-1.1.581-2 1.29-2 .710 0 .946.9.524 2s-1 2-1.29 2c-.288 0-.524-.9-.524-2zm34.2-6c1.42-5.73 3.18-9.73 3.95-8.97.403.403-.507 3.34-2.02 6.52s-2.38 4.29-1.92 2.45zm-106-41c-.5-3-2.3-6-4-9-3.9-6-6.7-22-5.5-31.8 1.6-14 9.2-26.3 19.3-31.5 3.36-1.73 7.21-4.83 8.57-6.91 3.39-5.18 12.6-12 19.5-14.4 7.2-2.54 16-2.57 27.7-.0970 44.2 9.29 61.8 31.6 56.6 71.4-1.57 11.8-6.08 25.3-7.36 22-.463-1.21-.853-3.8-.866-5.75-.0445-6.83-3.96-22.1-7.76-30.2-9.75-20.8-22.6-26.8-45.9-21.4-5.07 1.18-13.8 1.86-21.7 1.7-9.02-.179-14.3.311-16.6 1.53-10.9 5.86-15.5 15.9-17.6 38.7-1.57 17-2.82 21.4-4.32 15.3zm.272-22.2c.378-16.5 2.57-27.8 6.58-33.9 2.47-3.77 8.3-7.06 12.6-7.13 2.97-.0465 2.95-.144-.839-3.24-2.15-1.76-4.97-3.47-6.27-3.81-5.7-1.49-17.6 16.1-19.2 28.4-1.02 7.76 1.33 4.48 3.39-4.74 2.68-11.9 10.4-20.2 17.7-18.9 2.54.443 2.4.644-1.09 1.59-2.2.597-4.99 1.95-6.21 3-3.79 3.29-7.93 14.9-8.74 24.5-.425 5.07-1.34 9.22-2.04 9.22-.737 0-.937 2.92-.478 7 .538 4.79.397 6.16-.448 4.33-1.09-2.36-1.25-2.4-1.33-.279-.0670 1.71 4.87 10.4 5.82 10.3.0454-.007.251-7.36.457-16.3zm118-29.4c-6-19.8-20-31.2-48-38.4-22-5.57-36.2-3.6-45.9 6.32-5.59 5.76-6.33 9.06-3.26 14.4 1.9 3.33 1.91 3.33 1.95-1.73.0532-5.71 2.43-11.1 6.58-14.8l2.8-2.54.115 8.54c.093 6.93.330 7.82 1.26 4.73 1.91-6.36 8.61-12.3 7.02-6.21-2.2 8.41 5.15 14.4 15.5 12.6 3.36-.583 11.5-1.06 18.1-1.06 10.3-.0012 12.9.484 18.8 3.49 3.73 1.92 8.79 5.77 11.2 8.56 4.04 4.61 14.3 24.3 14.9 28.6.141.992.471-1.99.733-6.63.292-5.17-.360-11.4-1.69-16zm-6.46-1.99c-4.46-9.11-12.2-16.1-21.4-19.1-3.75-1.25-6.07-2.51-5.15-2.82 3.12-1.04 14.6 3.75 20 8.32 3.06 2.62 6.58 7.48 8.27 11.4 4.11 9.56 2.75 11.3-1.71 2.21zm-17.2-13.8c-.463-.463-4.61-1.92-9.22-3.24-4.74-1.36-6.93-2.43-5.05-2.48 4.94-.130 12.8 2.33 14.7 4.59 1.6 1.92 1.27 2.82-.417 1.13zm-44.4-5.05c-2.27-.998-4.52-2.82-4.99-4.05-.685-1.79-.117-1.65 2.8.647 3.35 2.65 4.72 2.82 16.3 2.13 13.3-.798 11.9 0.8-2 2.26-5.48.573-9.3.265-12.1-.978zm5.13-6.15c-3.83-1.54-3.94-3.1-.131-1.89 1.58.501 7.13 1.36 12.3 1.91l9.46.998-9.33.0965c-5.13.0531-10.7-.446-12.3-1.11zm27.7 76.7c0-2.16 2.08-2.65 3.25-.765.406.656-.159 1.54-1.25 1.96-1.21.464-1.99-.004-1.99-1.19zm-52.7-.625c.453-.733 1.39-1.33 2.08-1.33s1.25.6 1.25 1.33c0 .733-.935 1.33-2.08 1.33s-1.71-.6-1.25-1.33zm-4.32-6.29c2.03-.306 5.03-.298 6.67.0182s-.0183.567-3.68.557c-3.67-.01-5.01-.269-2.98-.575zm57.3.002c2.02-.306 5.32-.306 7.33 0 2.02.306.367.555-3.67.555-4.03 0-5.68-.250-3.67-.555zm-36.9-6.57c-.702-1.83-.507-1.91 1.19-.503 2.31 1.92 2.55 2.69.840 2.69-.655 0-1.57-.985-2.03-2.19zm20.6 1.68c0-.277.914-1.26 2.03-2.19 1.7-1.41 1.89-1.33 1.19.503-.717 1.87-3.22 3.18-3.22 1.69zm-27-3.72c.775-.775 2.2-1.15 3.16-.826.999.333.394.937-1.41 1.41-2.22.580-2.74.406-1.75-.583zm33 1c-2.17-.934-2.25-1.16-.412-1.24 1.24-.0515 2.63.506 3.08 1.24.948 1.53.901 1.53-2.67 0zm-46-1.27c3.33-1.13 11.6-1.84 10.6-.903-.306.273-3.56.842-7.22 1.27-4.5.519-5.58.401-3.33-.363zm52.7-.0654-4-1.02 4-.0249c2.2-.0137 5.5.456 7.33 1.04l3.33 1.07-3.33-.0249c-1.83-.0136-5.13-.483-7.33-1.04z" fill="#b2392a"/>
  <path d="m37 262c.436-2.38 2.3-7.77 4.13-12 4.03-9.21 7.81-11.8 22.3-15 13.3-2.95 40.7-12.4 43.7-15 2.43-2.16 2.17-2.89 4.5 12.6.414 2.75 2.51 10.8 4.67 17.8 2.15 7.05 3.91 13.5 3.91 14.3 0 1.1-11.5 1.52-42 1.52h-42zm95.1 1.83c0-1.37.865-4.95 1.92-7.95 1.87-5.31 1.84-5.51-1.51-7.95l-3.43-2.5 4.89-4.89c2.69-2.69 5.65-4.89 6.58-4.89.932 0 3.76 2.14 6.29 4.76l4.59 4.76-3.17 2.59c-2.92 2.38-3.1 3.22-2.27 10.6l.903 7.98h-7.4c-6.35 0-7.4-.356-7.4-2.5zm29.3.436c0-1.13 2.1-9.29 4.67-18.1 2.57-8.83 4.68-18 4.69-20.3.0285-5.88 1.7-8.3 3.9-5.64 1.9 2.29 40.8 15.4 45.7 15.4 1.75 0 6.23 1.52 9.96 3.38 5.64 2.81 7.25 4.47 9.55 9.8 1.52 3.53 3.16 8.91 3.65 12l.884 5.53h-41.5c-36.6 0-41.5-.245-41.5-2.06zm-64.9-72c-.806-1.51-1.28-3.69-1.05-4.86.264-1.34 1.27-.335 2.73 2.74 2.4 5.04.896 6.94-1.68 2.12zm85.4 1.82c0-.683.881-2.41 1.96-3.83 1.64-2.17 1.96-2.24 2-.418.0233 1.19-.858 2.92-1.96 3.83-1.1.913-2 1.1-2 .418zm-52.7-4.41c-2.05-2.26-2.1-2.67-.357-2.67 1.14 0 2.44.986 2.9 2.19 1.26 3.28.172 3.49-2.55.484zm24.7-4.67c0-1.1.581-2 1.29-2 .710 0 .946.9.524 2s-1 2-1.29 2c-.288 0-.524-.9-.524-2zm34-7c.139-2.53 2.36-6.78 2.44-4.67.0403 1.1-.508 2.9-1.22 4-.711 1.1-1.26 1.4-1.22.667zm-97.9-4.05c-.457-1.19-.793-2.87-.747-3.72.0465-.857.659-.121 1.36 1.64.703 1.76 1.04 3.43.747 3.72-.292.292-.905-.444-1.36-1.64zm-7.57-37.4c-.467-16.2.591-36.2 2.32-43.9 2.69-11.9 8.1-18 16-18.1l5.13-.0361-4.98-4.63c-2.74-2.55-5.87-4.63-6.95-4.63-3.74 0-11.4 8.29-15.4 16.7-3.6 7.55-4.02 9.78-4.16 22.2-.122 11-.380 12.7-1.26 8.48-3.04-14.7.907-30.2 10.4-40.7 3.21-3.57 7.16-6.9 8.78-7.4 1.62-.497 5.85-4.14 9.4-8.09s7.75-7.85 9.33-8.66c1.58-.812.319.749-2.81 3.47-7.78 6.77-8.79 8.99-6.55 14.3 1 2.4 2.79 5.16 3.96 6.14 1.91 1.59 2.06 1.28 1.4-2.81-.523-3.22.167-6.53 2.31-11.1l3.06-6.52.782 7.33c.430 4.03 1.5 8.53 2.38 10 1.42 2.36 1.6 2.04 1.64-2.85.0267-3.63.983-6.59 2.8-8.67l2.76-3.15-.745 3.51c-.971 4.57 3.3 10.1 8.98 11.6 2.68.704 7.69.454 13.6-.679 5.13-.988 11.7-1.44 14.7-1.01 20 2.95 30.9 12.4 38.9 33.8 1.82 4.86 3.86 9.4 4.54 10.1 2.04 2.09 1.4 9.84-1.29 15.8-1.39 3.08-2.78 6.79-3.09 8.26 0 1-1-2-2-8-4-26-13-41.4-25-48.1-6.17-3.18-17.5-3.34-30-.427-6.3 1.47-11.8 1.86-18 1.26-11.3-1.09-18.5.806-24.8 6.57-6.55 5.92-9.32 14.1-11.5 34-1.61 14.7-3.28 22-3.47 15.3zm82.7-1.26c0-2.16 2.08-2.65 3.25-.765.406.656-.159 1.54-1.25 1.96-1.21.464-1.99-.004-1.99-1.19zm-52.7-.625c.453-.733 1.39-1.33 2.08-1.33s1.25.6 1.25 1.33c0 .733-.935 1.33-2.08 1.33s-1.71-.6-1.25-1.33zm-4.32-6.29c2.03-.306 5.03-.298 6.67.0182s-.0183.567-3.68.557c-3.67-.01-5.01-.269-2.98-.575zm57.3.002c2.02-.306 5.32-.306 7.33 0 2.02.306.367.555-3.67.555-4.03 0-5.68-.250-3.67-.555zm39-29.3c-1-15.5-5-25.2-15-34.5-8-8.6-13-11.5-29-16.7-9.33-3.07-13.6-3.72-25.3-3.77-7.7-.0344-15.5.455-17.3 1.09-2.15.741-2.86.692-2-.137 2.91-2.81 14.1-4.7 22.7-3.83 11.6 1.19 30.2 6.71 39.7 11.8 10.1 5.38 20 16.2 23.7 26 2.63 6.93 5.47 31 3.65 31-.365 0-.991-4.95-1.39-11z" fill="#931606"/>
  <path d="m37 262c.436-2.38 2.3-7.77 4.13-12 4.03-9.21 7.81-11.8 22.3-15 13.3-2.95 40.7-12.4 43.7-15 2.43-2.16 2.17-2.89 4.5 12.6.414 2.75 2.51 10.8 4.67 17.8 2.15 7.05 3.91 13.5 3.91 14.3 0 1.1-11.5 1.52-42 1.52h-42zm95.1 1.83c0-1.37.865-4.95 1.92-7.95 1.87-5.31 1.84-5.51-1.51-7.95l-3.43-2.5 4.89-4.89c2.69-2.69 5.65-4.89 6.58-4.89.932 0 3.76 2.14 6.29 4.76l4.59 4.76-3.17 2.59c-2.92 2.38-3.1 3.22-2.27 10.6l.903 7.98h-7.4c-6.35 0-7.4-.356-7.4-2.5zm29.3.436c0-1.13 2.1-9.29 4.67-18.1 2.57-8.83 4.68-18 4.69-20.3.0285-5.88 1.7-8.3 3.9-5.64 1.9 2.29 40.8 15.4 45.7 15.4 1.75 0 6.23 1.52 9.96 3.38 5.64 2.81 7.25 4.47 9.55 9.8 1.52 3.53 3.16 8.91 3.65 12l.884 5.53h-41.5c-36.6 0-41.5-.245-41.5-2.06zm-32-75c-2.05-2.26-2.1-2.67-.357-2.67 1.14 0 2.44.986 2.9 2.19 1.26 3.28.172 3.49-2.55.484zm24.7-4.67c0-1.1.581-2 1.29-2 .710 0 .946.9.524 2s-1 2-1.29 2c-.288 0-.524-.9-.524-2zm12-49.4c0-2.16 2.08-2.65 3.25-.765.406.656-.159 1.54-1.25 1.96-1.21.464-1.99-.004-1.99-1.19zm-52.7-.625c.453-.733 1.39-1.33 2.08-1.33s1.25.6 1.25 1.33c0 .733-.935 1.33-2.08 1.33s-1.71-.6-1.25-1.33zm-4.32-6.29c2.03-.306 5.03-.298 6.67.0182s-.0183.567-3.68.557c-3.67-.01-5.01-.269-2.98-.575zm57.3.002c2.02-.306 5.32-.306 7.33 0 2.02.306.367.555-3.67.555-4.03 0-5.68-.250-3.67-.555z" fill="#612f1d"/>
  <path d="m90.1 265c-3.24-8.96-4.59-13.5-4.14-13.9.293-.293 1.76 3.1 3.26 7.54s2.45 8.07 2.11 8.07c-.342 0-.892-.75-1.22-1.67zm28.3.755c-1.72-2.89-8.94-31-8.85-34.5.0652-2.42.827-.604 1.98 4.73 1.03 4.77 2.49 10.2 3.23 12 1.8 4.43 5.24 17.9 4.7 18.4-.233.233-.715-.0661-1.07-.665zm13.7-.210c0-.617 0.9-4.07 2-7.67 1.9-6.22 1.87-6.66-.667-8.76-3.45-2.87-3.37-3.57.917-8.05 4.49-4.69 7.91-4.73 12.7-.152l3.75 3.59-3.39 3.54c-3.13 3.26-3.29 4-2.04 9.41 2.13 9.25 2.16 9.21-5.91 9.21-4.03 0-7.33-.505-7.33-1.12zm29.4.312c-.0496-.812 1.79-8.01 4.08-16 2.3-7.99 4.67-17.5 5.27-21.2l1.1-6.67-.462 8.13c-.519 9.12-9.63 41.7-10 35.7zm27.9.380c0-1.51 4.57-13.8 5.51-14.8.638-.699-.0968 2.45-1.63 7-2.31 6.85-3.88 10-3.88 7.84zm-150-10c-.0048-1.92 3.76-9.55 3.85-7.82.0260.466-.829 2.87-1.9 5.33-1.07 2.47-1.95 3.59-1.95 2.49zm146-11c0-.251 1.8-2.18 4-4.29s4-3.23 4-2.5c0 .733-1.8 2.66-4 4.29s-4 2.75-4 2.5zm-95.5-3.96-2.54-3 3.33 2.65c1.83 1.46 3.58 2.81 3.89 3 .306.191-.0514.348-.793.348s-2.49-1.35-3.89-3zm137-2.33c-1.2-.777-1.37-1.3-.412-1.31.873-.0107 1.96.580 2.41 1.31 1.02 1.66.561 1.66-2 0zm-165-3c.962-.385 2.11-.338 2.56.105.443.443-.344.758-1.75 0.7-1.55-.064-1.87-.380-.806-.806zm40.2-10.3c0-.277 1.05-1.33 2.33-2.33 2.11-1.66 2.16-1.61.503.503-1.74 2.22-2.84 2.93-2.84 1.83zm75.8-1.83c-1.66-2.11-1.61-2.16.503-.503 1.28 1.01 2.33 2.06 2.33 2.33 0 1.1-1.09.391-2.84-1.83z" fill="#1d0d09"/>
 </g>
</svg>
