<!DOCTYPE svg PUBLIC "-//W3C//DTD SVG 20010904//EN" "http://www.w3.org/TR/2001/REC-SVG-20010904/DTD/svg10.dtd">
<svg version="1.0" xmlns="http://www.w3.org/2000/svg" width="200px" height="200px" viewBox="0 0 2000 2000" preserveAspectRatio="xMidYMid meet">
<g id="layer101" fill="#f4f3f5" stroke="none">
 <path d="M133 1949 c10 -85 48 -153 104 -188 26 -17 59 -31 72 -31 43 0 187 -41 266 -75 17 -8 51 -19 77 -25 52 -13 80 -38 102 -91 l15 -36 -50 -39 c-27 -22 -63 -49 -78 -61 -19 -15 -30 -35 -35 -61 -10 -67 -45 -136 -79 -157 -24 -15 -35 -32 -43 -66 -12 -49 -33 -89 -64 -129 -12 -14 -23 -48 -27 -77 -5 -49 -4 -54 24 -80 29 -28 29 -28 16 -78 -7 -27 -14 -84 -14 -125 -1 -64 4 -88 31 -154 34 -81 98 -158 151 -180 14 -6 49 -36 77 -67 28 -31 77 -70 110 -87 55 -30 67 -32 157 -32 85 0 112 5 209 36 128 42 185 69 241 114 61 49 121 136 141 204 18 64 23 190 11 286 -7 54 -6 55 26 75 27 17 32 27 35 66 2 33 -3 56 -18 80 -37 62 -70 134 -70 155 0 20 -48 74 -66 74 -11 0 -54 115 -54 145 -1 28 -14 42 -97 104 -40 30 -73 57 -73 59 0 2 14 25 32 52 30 47 35 49 157 93 135 49 235 77 271 77 13 0 46 13 74 30 44 24 57 39 79 88 17 37 27 75 27 105 l0 47 -871 0 -872 0 6 -51z"/>
 </g>
<g id="layer102" fill="#e0d3d7" stroke="none">
 <path d="M133 1949 c10 -85 48 -153 104 -188 26 -17 59 -31 72 -31 43 0 187 -41 266 -75 17 -8 51 -19 78 -25 45 -12 69 -32 104 -86 10 -16 10 -13 2 12 -16 48 18 230 66 363 4 9 13 1 27 -25 22 -42 27 -49 82 -107 20 -22 36 -40 36 -42 0 -2 -34 -22 -75 -45 -86 -48 -99 -63 -115 -141 -10 -50 -16 -61 -61 -95 -27 -22 -63 -49 -78 -61 -19 -15 -30 -35 -35 -61 -10 -67 -45 -136 -79 -157 -24 -15 -35 -32 -43 -66 -12 -49 -33 -89 -64 -129 -12 -14 -23 -48 -27 -77 -5 -49 -4 -54 24 -80 29 -28 29 -28 16 -78 -7 -27 -14 -84 -14 -125 -1 -64 4 -88 31 -154 34 -81 98 -158 151 -180 14 -6 49 -36 77 -67 28 -31 77 -70 110 -87 55 -30 67 -32 157 -32 85 0 112 5 209 36 128 42 185 69 241 114 61 49 121 136 141 204 18 64 23 190 11 286 -7 54 -6 55 26 75 27 17 32 27 35 66 2 33 -3 56 -18 80 -37 62 -70 134 -70 155 0 20 -48 74 -66 74 -11 0 -54 115 -54 145 -1 28 -14 42 -97 104 -40 30 -73 57 -73 59 0 2 14 25 32 52 30 47 35 49 157 93 135 49 235 77 271 77 13 0 46 13 74 30 44 24 57 39 79 88 17 37 27 75 27 105 l0 47 -355 0 -355 0 6 -27 c4 -16 22 -81 40 -146 19 -65 34 -130 34 -144 0 -14 5 -43 11 -63 9 -31 9 -42 -3 -59 -15 -21 -16 -21 -21 16 -8 49 -51 90 -136 133 l-64 32 39 40 39 39 -29 24 c-27 22 -28 26 -22 74 4 28 9 58 12 66 5 12 -7 15 -70 15 -42 0 -76 -3 -76 -6 0 -3 7 -33 16 -66 14 -56 14 -61 -3 -74 -10 -7 -20 -14 -23 -14 -13 0 -70 108 -70 133 l0 27 -356 0 -357 0 6 -51z m947 -574 c13 -14 19 -25 13 -25 -7 0 -10 -7 -7 -15 5 -13 2 -14 -21 -5 -14 5 -52 10 -83 10 -63 0 -56 18 8 21 29 2 27 3 -15 9 l-50 6 35 17 c44 21 87 15 120 -18z m-197 -455 c5 -4 -2 -17 -14 -29 -26 -24 -24 -25 -32 17 -6 31 -5 33 16 27 12 -4 26 -11 30 -15z m289 8 c-7 -7 -12 -20 -12 -30 0 -16 -3 -17 -20 -8 -37 20 -22 45 30 49 11 1 11 -2 2 -11z m-440 -28 c-4 -31 -9 -34 -36 -24 -21 8 -20 31 2 43 30 18 39 13 34 -19z m472 15 c-6 -16 -24 -21 -24 -7 0 11 11 22 21 22 5 0 6 -7 3 -15z m104 3 c18 -18 14 -34 -11 -45 -22 -10 -23 -9 -23 23 0 35 13 43 34 22z m-48 -33 c0 -8 -7 -15 -16 -15 -14 0 -14 3 -4 15 7 8 14 15 16 15 2 0 4 -7 4 -15z"/>
 <path d="M1126 1884 c-29 -52 -30 -54 -18 -54 5 0 21 23 36 50 15 28 23 50 17 50 -5 0 -21 -21 -35 -46z"/>
 </g>
<g id="layer103" fill="#f3c9ac" stroke="none">
 <path d="M133 1949 c10 -85 48 -153 104 -188 26 -17 59 -31 72 -31 42 0 185 -41 266 -75 17 -7 50 -19 75 -25 25 -6 55 -21 67 -32 l22 -20 10 38 c5 22 13 63 16 93 4 30 16 80 27 110 10 31 23 76 29 101 5 25 12 53 15 63 5 16 -16 17 -352 17 l-357 0 6 -51z"/>
 <path d="M937 1933 l15 -66 -27 -20 -26 -20 41 -42 42 -42 -29 -20 c-15 -11 -48 -31 -73 -43 -67 -33 -79 -47 -92 -112 -13 -62 -14 -64 -149 -167 -17 -13 -29 -34 -33 -59 -10 -67 -45 -136 -79 -157 -24 -15 -35 -32 -43 -66 -12 -49 -33 -89 -64 -129 -12 -14 -23 -48 -27 -77 -5 -49 -4 -54 24 -80 29 -28 29 -28 16 -78 -7 -27 -14 -84 -14 -125 -1 -64 4 -88 31 -154 34 -81 98 -158 151 -180 14 -6 49 -36 77 -67 28 -31 77 -70 110 -87 55 -30 67 -32 157 -32 85 0 112 5 209 36 128 42 185 69 241 114 61 49 121 136 141 204 18 64 23 190 11 286 -7 54 -6 55 26 75 27 17 32 27 35 66 2 33 -3 56 -18 80 -36 61 -70 134 -70 153 0 21 -47 76 -64 76 -12 0 -56 113 -56 145 -1 28 -14 42 -97 104 -60 45 -73 60 -73 82 0 69 -37 117 -125 161 -91 46 -91 47 -50 80 42 35 43 44 11 77 -22 23 -24 31 -16 71 16 82 18 80 -59 80 l-69 0 15 -67z m132 -542 c13 -10 25 -31 27 -50 3 -28 2 -31 -16 -21 -10 5 -51 10 -91 10 -59 0 -70 2 -60 14 6 7 9 20 6 28 -14 35 93 50 134 19z m329 -456 c-2 -12 -7 -7 -15 16 -12 30 -11 32 3 17 9 -8 14 -23 12 -33z m-663 -35 c0 -35 -2 -39 -20 -34 -24 8 -45 24 -45 35 0 8 47 38 60 39 4 0 6 -18 5 -40z m154 26 c15 -17 -23 -51 -67 -59 -30 -6 -32 -5 -22 13 6 11 8 25 5 30 -11 17 -35 11 -44 -12 -7 -20 -8 -20 -15 -2 -4 12 -2 22 8 29 22 16 122 17 135 1z m291 5 c0 -6 -5 -13 -10 -16 -6 -4 -8 -15 -5 -26 8 -26 -9 -24 -35 3 -21 23 -24 31 -13 41 10 11 63 8 63 -2z m62 -3 c9 -7 18 -20 22 -28 3 -8 4 -2 1 14 -5 25 -4 27 12 21 10 -4 26 -10 36 -12 9 -3 17 -13 17 -23 0 -20 -40 -40 -82 -40 -30 0 -31 1 -14 19 20 22 14 41 -14 41 -11 0 -20 -9 -23 -22 -3 -20 -4 -21 -11 -5 -9 19 8 47 28 47 7 0 19 -6 28 -12z m156 -49 c-12 -36 -41 -57 -89 -64 -18 -3 -27 -3 -19 1 73 28 90 39 99 65 5 16 12 29 15 29 3 0 0 -14 -6 -31z"/>
 <path d="M1170 1978 c0 -13 14 -68 30 -123 26 -84 59 -239 60 -279 1 -6 9 -1 19 11 28 34 343 143 411 143 13 0 46 13 74 30 44 24 57 39 79 88 17 37 27 75 27 105 l0 47 -350 0 -350 0 0 -22z"/>
 </g>
<g id="layer104" fill="#b6bed4" stroke="none">
 <path d="M133 1949 c10 -85 48 -153 104 -188 26 -17 59 -31 72 -31 42 0 185 -41 266 -75 17 -7 50 -19 75 -25 25 -6 55 -21 67 -32 l22 -20 10 38 c5 22 13 63 16 93 4 30 16 80 27 110 10 31 23 76 29 101 5 25 12 53 15 63 5 16 -16 17 -352 17 l-357 0 6 -51z"/>
 <path d="M937 1933 l15 -66 -27 -20 -26 -20 42 -43 c50 -51 52 -47 -60 -105 -67 -36 -82 -56 -96 -131 -7 -37 -22 -52 -146 -147 -17 -13 -29 -34 -33 -59 -10 -67 -45 -136 -79 -157 -24 -15 -35 -32 -43 -66 -12 -49 -33 -89 -64 -129 -12 -14 -23 -48 -27 -77 -5 -49 -4 -54 24 -80 29 -28 29 -28 16 -78 -7 -27 -14 -84 -14 -125 -1 -64 4 -88 31 -154 34 -81 98 -158 151 -180 14 -6 49 -36 77 -67 28 -31 77 -70 110 -87 55 -30 67 -32 157 -32 85 0 112 5 209 36 128 42 185 69 241 114 61 49 121 136 141 204 18 64 23 190 11 286 -7 54 -6 55 26 75 27 17 32 27 35 66 2 33 -3 56 -18 80 -36 61 -70 134 -70 153 0 21 -47 76 -64 76 -12 0 -56 113 -56 145 -1 27 -14 42 -97 104 -52 39 -74 62 -78 83 -3 15 -8 42 -11 58 -6 34 -39 62 -131 110 -35 18 -63 36 -63 39 0 3 16 19 35 34 41 33 43 43 11 76 -22 23 -24 31 -16 71 16 82 18 80 -59 80 l-69 0 15 -67z m142 -552 c18 -17 28 -32 22 -35 -6 -4 -7 -14 -4 -22 5 -14 3 -15 -15 -5 -11 6 -53 11 -93 11 -59 0 -70 2 -60 14 6 7 9 20 6 28 -7 19 29 36 76 37 26 1 44 -7 68 -28z m-175 -413 c34 -46 42 -83 23 -112 -21 -32 -97 -56 -171 -55 -54 1 -57 2 -26 9 19 5 53 15 75 24 22 8 49 15 61 16 12 0 26 10 33 26 16 35 6 42 -22 17 -12 -11 -37 -23 -55 -26 -30 -6 -32 -5 -22 13 6 11 8 25 5 30 -11 17 -35 11 -44 -12 -7 -20 -8 -20 -15 -3 -10 27 7 38 60 41 69 4 76 9 64 39 -13 35 4 32 34 -7z m506 -54 c0 -19 -7 -45 -16 -59 -19 -29 -82 -55 -132 -55 l-37 1 56 29 c63 33 64 34 74 115 l8 59 23 -28 c15 -17 24 -40 24 -62z m-675 -14 c0 -35 -2 -39 -20 -34 -35 11 -56 35 -44 50 6 8 14 12 18 10 4 -3 13 -1 21 5 24 14 26 11 25 -31z m445 31 c0 -6 -5 -13 -10 -16 -6 -4 -8 -15 -5 -26 8 -26 -9 -24 -35 3 -21 23 -24 31 -13 41 10 11 63 8 63 -2z m62 -3 c9 -7 18 -20 22 -28 3 -8 4 -2 1 14 -5 25 -4 27 12 21 10 -4 28 -10 41 -12 52 -12 -4 -63 -69 -63 -31 0 -32 1 -15 19 20 22 14 41 -14 41 -11 0 -20 -9 -23 -22 -3 -20 -4 -21 -11 -5 -9 19 8 47 28 47 7 0 19 -6 28 -12z"/>
 <path d="M1170 1978 c0 -13 14 -68 30 -123 26 -84 59 -239 60 -279 1 -6 9 -1 19 11 28 34 343 143 411 143 13 0 46 13 74 30 44 24 57 39 79 88 17 37 27 75 27 105 l0 47 -350 0 -350 0 0 -22z"/>
 </g>
<g id="layer105" fill="#f4b198" stroke="none">
 <path d="M133 1949 c10 -85 48 -153 104 -188 26 -17 59 -31 72 -31 42 0 185 -41 266 -75 17 -7 50 -19 75 -25 25 -6 55 -21 66 -31 l21 -20 12 45 c6 25 11 56 11 69 0 13 13 69 30 124 16 54 33 118 38 141 l10 42 -355 0 -356 0 6 -51z"/>
 <path d="M930 1973 c1 -16 7 -45 14 -66 13 -36 13 -39 -10 -54 -32 -21 -30 -31 13 -75 43 -44 44 -42 -66 -99 -67 -36 -82 -56 -96 -131 -7 -37 -22 -52 -146 -147 -17 -13 -29 -34 -33 -59 -10 -67 -45 -136 -79 -157 -24 -15 -35 -32 -43 -66 -12 -49 -33 -89 -64 -129 -12 -14 -23 -48 -27 -77 -5 -49 -4 -54 24 -80 29 -28 29 -28 16 -78 -7 -27 -14 -84 -14 -125 -1 -64 4 -88 31 -154 34 -81 98 -158 151 -180 14 -6 49 -36 77 -67 28 -31 77 -70 110 -87 55 -30 67 -32 157 -32 85 0 112 5 209 36 128 42 185 69 241 114 61 49 121 136 141 204 18 64 23 190 11 286 -7 54 -6 55 26 75 27 17 32 27 35 66 2 33 -3 56 -18 80 -36 61 -70 134 -70 153 0 21 -47 76 -64 76 -12 0 -56 113 -56 145 -1 27 -14 42 -97 104 -52 39 -74 62 -78 83 -3 15 -8 42 -11 58 -6 34 -39 62 -131 110 -35 18 -63 37 -63 41 0 5 11 16 25 25 45 29 50 52 21 83 -25 26 -26 31 -17 72 19 79 19 79 -54 79 -64 0 -65 0 -65 -27z m150 -590 c22 -21 28 -34 24 -50 -5 -18 -10 -21 -24 -13 -10 6 -51 10 -90 10 -64 0 -70 2 -62 18 5 9 8 22 5 28 -5 15 35 33 79 33 28 1 46 -6 68 -26z m-176 -415 c34 -46 42 -83 23 -112 -21 -32 -97 -56 -171 -55 -54 1 -57 2 -26 9 19 5 53 15 75 24 22 8 49 15 61 16 12 0 26 10 33 26 16 37 8 40 -24 10 -25 -23 -36 -26 -101 -26 -61 0 -78 4 -94 20 -38 38 0 58 112 61 40 1 76 4 80 6 4 2 3 15 -2 28 -13 35 4 31 34 -7z m506 -54 c0 -19 -7 -45 -16 -59 -19 -29 -82 -55 -132 -55 l-37 1 56 29 c63 33 64 34 74 115 l8 59 23 -28 c15 -17 24 -40 24 -62z m-102 14 c39 -12 41 -32 7 -54 -34 -22 -158 -14 -187 12 -24 23 -19 47 12 54 32 8 126 1 168 -12z"/>
 <path d="M765 910 c-8 -13 3 -30 20 -30 20 0 30 21 14 31 -18 11 -26 11 -34 -1z"/>
 <path d="M1205 911 c-8 -15 3 -31 21 -31 9 0 14 7 12 17 -4 20 -24 28 -33 14z"/>
 <path d="M1170 1985 c0 -9 15 -69 34 -134 19 -64 40 -155 47 -201 12 -81 12 -83 29 -62 27 32 342 142 410 142 13 0 46 13 74 30 44 24 57 39 79 88 17 37 27 75 27 105 l0 47 -350 0 c-309 0 -350 -2 -350 -15z"/>
 </g>
<g id="layer106" fill="#ccca66" stroke="none">
 <path d="M133 1949 c10 -85 48 -153 104 -188 26 -17 59 -31 72 -31 42 0 185 -41 266 -75 17 -7 50 -19 75 -25 25 -6 55 -21 66 -31 l21 -20 12 45 c6 25 11 56 11 69 0 13 13 69 30 124 16 54 33 118 38 141 l10 42 -355 0 -356 0 6 -51z"/>
 <path d="M930 1973 c1 -16 7 -45 14 -66 13 -36 13 -39 -10 -54 -13 -8 -24 -21 -24 -27 0 -16 72 -86 89 -86 17 0 78 47 85 67 4 10 -3 27 -19 43 -24 25 -25 30 -16 71 19 79 19 79 -54 79 -64 0 -65 0 -65 -27z"/>
 <path d="M1170 1985 c0 -9 15 -69 34 -134 19 -64 40 -155 47 -201 12 -81 12 -83 29 -62 27 32 342 142 410 142 13 0 46 13 74 30 44 24 57 39 79 88 17 37 27 75 27 105 l0 47 -350 0 c-309 0 -350 -2 -350 -15z"/>
 <path d="M915 1633 c-86 -18 -125 -47 -125 -92 0 -12 -8 -28 -17 -35 -19 -15 -83 -65 -132 -103 -19 -15 -30 -35 -35 -61 -10 -67 -45 -136 -79 -157 -24 -15 -35 -32 -43 -66 -12 -49 -33 -89 -64 -129 -12 -14 -23 -48 -27 -77 -5 -49 -4 -54 24 -80 29 -28 29 -28 16 -78 -7 -27 -14 -84 -14 -125 -1 -64 4 -88 31 -154 34 -81 98 -158 151 -180 14 -6 49 -36 77 -67 28 -31 77 -70 110 -87 55 -30 67 -32 157 -32 85 0 112 5 209 36 128 42 185 69 241 114 61 49 121 136 141 204 18 64 23 190 11 286 -7 54 -6 55 26 75 27 17 32 27 35 66 2 33 -3 56 -18 80 -37 62 -70 134 -70 155 0 20 -48 74 -66 74 -11 0 -54 115 -54 145 -1 27 -14 42 -84 94 -83 61 -96 77 -96 111 0 35 -22 52 -99 74 -50 15 -158 20 -206 9z m252 -129 c122 -59 193 -158 233 -328 6 -22 19 -72 31 -111 28 -99 36 -159 18 -153 -7 2 -17 18 -21 35 -10 39 -66 89 -115 102 -60 17 -105 13 -161 -15 -57 -28 -85 -61 -104 -120 -11 -33 -18 -39 -46 -42 -24 -2 -34 1 -38 15 -34 112 -110 173 -214 173 -76 0 -180 -77 -180 -134 0 -9 -4 -16 -10 -16 -18 0 -10 60 26 198 52 200 88 276 154 333 131 113 278 134 427 63z m-602 -361 c-3 -21 -13 -43 -21 -50 -9 -6 -11 -14 -5 -17 6 -4 3 -24 -7 -54 l-17 -47 -3 38 c-2 20 -8 37 -13 37 -6 0 -6 7 1 19 5 11 10 31 10 45 0 24 34 66 53 66 5 0 6 -16 2 -37z m905 17 c11 -11 20 -32 20 -46 0 -14 5 -34 10 -45 8 -13 7 -19 0 -19 -8 0 -9 -11 -5 -29 3 -16 2 -32 -3 -35 -10 -6 -32 58 -32 91 0 10 -4 23 -9 29 -5 5 -12 24 -16 42 -8 37 5 42 35 12z m-622 -148 c65 -30 107 -112 79 -156 -33 -49 -183 -73 -260 -41 -121 50 -91 188 46 214 49 9 89 4 135 -17z m479 6 c70 -21 105 -106 67 -163 -49 -75 -269 -71 -317 6 -17 27 1 87 38 123 51 51 120 62 212 34z m-835 -74 c15 -33 -7 -104 -33 -104 -20 0 -20 1 2 20 16 13 18 18 7 14 -15 -5 -17 0 -16 30 1 20 5 39 10 42 4 3 8 15 9 27 0 14 2 16 6 7 2 -8 9 -24 15 -36z m1052 5 c10 -49 7 -79 -6 -79 -7 0 -4 -8 7 -16 20 -15 19 -15 -5 -12 -20 2 -25 9 -25 33 0 17 -3 32 -7 36 -9 6 13 69 23 69 4 0 9 -14 13 -31z m-89 -116 c-24 -141 -78 -272 -136 -331 -76 -77 -165 -93 -307 -58 -54 14 -92 17 -150 13 -156 -12 -235 32 -272 150 -11 36 -23 91 -25 122 -3 31 -8 73 -11 94 -5 47 7 48 57 2 22 -19 47 -35 56 -35 13 0 14 -3 5 -12 -7 -7 -12 -16 -12 -20 0 -4 56 -8 125 -8 84 0 125 4 125 11 0 6 -9 13 -20 16 -20 5 -28 23 -11 23 5 0 22 11 38 23 36 30 123 32 166 3 45 -31 98 -45 167 -45 71 -1 146 26 157 54 4 13 29 30 51 34 2 1 0 -16 -3 -36z"/>
 <path d="M900 1359 c-18 -32 -6 -45 18 -21 13 13 20 27 17 32 -10 16 -23 12 -35 -11z"/>
 <path d="M1100 1326 c0 -14 27 -42 34 -35 2 2 0 14 -5 27 -9 24 -29 30 -29 8z"/>
 <path d="M953 1203 c-24 -2 -43 -8 -43 -14 0 -14 54 -11 76 6 10 8 17 14 14 13 -3 -1 -24 -3 -47 -5z"/>
 <path d="M1020 1191 c30 -16 82 -22 77 -8 -2 7 -23 13 -48 14 -26 1 -38 -2 -29 -6z"/>
 <path d="M750 950 c-27 -6 -18 -8 38 -7 39 1 72 5 72 9 0 10 -61 8 -110 -2z"/>
 <path d="M765 910 c-8 -13 3 -30 20 -30 20 0 30 21 14 31 -18 11 -26 11 -34 -1z"/>
 <path d="M871 883 c-21 -20 -35 -23 -98 -23 -60 0 -77 4 -93 20 -15 15 -20 16 -20 6 0 -60 214 -61 236 -1 10 24 2 23 -25 -2z"/>
 <path d="M1147 953 c-3 -5 23 -10 61 -11 37 -2 76 -5 87 -8 18 -4 18 -4 3 6 -23 14 -144 25 -151 13z"/>
 <path d="M1205 911 c-8 -15 3 -31 21 -31 9 0 14 7 12 17 -4 20 -24 28 -33 14z"/>
 <path d="M1100 897 c0 -10 15 -26 33 -37 45 -28 166 -29 190 -2 25 27 21 35 -8 16 -38 -25 -158 -14 -191 17 -20 19 -24 20 -24 6z"/>
 <path d="M1075 750 c-15 -24 105 -90 164 -90 49 0 101 39 101 77 l0 24 -55 -31 -54 -31 -48 21 c-66 30 -102 40 -108 30z"/>
 </g>
<g id="layer107" fill="#e59375" stroke="none">
 <path d="M133 1949 c10 -85 48 -153 104 -188 26 -17 59 -31 72 -31 42 0 185 -41 266 -75 17 -7 50 -19 75 -25 25 -6 55 -21 66 -31 l21 -20 12 45 c6 25 11 56 11 69 0 13 13 69 30 124 16 54 33 118 38 141 l10 42 -355 0 -356 0 6 -51z"/>
 <path d="M930 1973 c1 -16 7 -45 14 -66 13 -36 13 -39 -10 -54 -13 -8 -24 -21 -24 -27 0 -16 72 -86 89 -86 17 0 78 47 85 67 4 10 -3 27 -19 43 -24 25 -25 30 -16 71 19 79 19 79 -54 79 -64 0 -65 0 -65 -27z"/>
 <path d="M1170 1985 c0 -9 15 -69 34 -134 19 -64 40 -155 47 -201 12 -81 12 -83 29 -62 27 32 342 142 410 142 13 0 46 13 74 30 44 24 57 39 79 88 17 37 27 75 27 105 l0 47 -350 0 c-309 0 -350 -2 -350 -15z"/>
 <path d="M915 1633 c-86 -18 -125 -47 -125 -92 0 -12 -8 -28 -17 -35 -19 -15 -83 -65 -132 -103 -19 -15 -30 -35 -35 -61 -10 -67 -45 -136 -79 -157 -24 -15 -35 -32 -43 -66 -12 -49 -33 -89 -64 -129 -12 -14 -23 -48 -27 -77 -5 -49 -4 -54 24 -80 29 -28 29 -28 16 -78 -7 -27 -14 -84 -14 -125 -1 -64 4 -88 31 -154 34 -81 98 -158 151 -180 14 -6 49 -36 77 -67 28 -31 77 -70 110 -87 55 -30 67 -32 157 -32 85 0 112 5 209 36 128 42 185 69 241 114 61 49 121 136 141 204 18 64 23 190 11 286 -7 54 -6 55 26 75 27 17 32 27 35 66 2 33 -3 56 -18 80 -37 62 -70 134 -70 155 0 20 -48 74 -66 74 -11 0 -54 115 -54 145 -1 27 -14 42 -84 94 -83 61 -96 77 -96 111 0 35 -22 52 -99 74 -50 15 -158 20 -206 9z m252 -129 c122 -59 193 -158 233 -328 6 -22 19 -72 31 -111 26 -91 35 -155 21 -155 -6 0 -20 20 -30 43 -33 75 -137 119 -229 96 -55 -14 -128 -80 -138 -124 -12 -56 -13 -56 -57 -53 -40 3 -43 5 -48 38 -23 138 -220 193 -330 93 -21 -19 -42 -47 -45 -64 -4 -16 -11 -29 -16 -29 -17 0 -9 62 27 198 52 200 88 276 154 333 131 113 278 134 427 63z m-602 -361 c-3 -21 -13 -43 -21 -50 -9 -6 -11 -14 -5 -17 6 -4 3 -24 -7 -54 l-17 -47 -3 38 c-2 20 -8 37 -13 37 -6 0 -6 7 1 19 5 11 10 31 10 45 0 24 34 66 53 66 5 0 6 -16 2 -37z m905 17 c11 -11 20 -32 20 -46 0 -14 5 -34 10 -45 8 -13 7 -19 0 -19 -8 0 -9 -11 -5 -29 3 -16 2 -32 -3 -35 -10 -6 -32 58 -32 91 0 10 -4 23 -9 29 -5 5 -12 24 -16 42 -8 37 5 42 35 12z m-642 -133 c88 -33 142 -137 92 -182 -29 -26 -25 -39 4 -14 17 15 39 21 80 22 31 1 56 -1 56 -5 0 -4 21 -19 46 -34 65 -38 180 -46 247 -16 26 12 47 25 47 31 0 5 14 20 31 32 l31 22 -7 -44 c-21 -141 -77 -277 -136 -337 -76 -77 -165 -93 -307 -58 -54 14 -92 17 -150 13 -156 -12 -235 32 -272 151 -22 72 -43 242 -31 255 4 4 26 -11 48 -33 23 -22 49 -40 59 -40 14 0 15 -3 6 -12 -7 -7 -12 -16 -12 -20 0 -4 56 -8 125 -8 84 0 125 4 125 11 0 6 -9 13 -20 16 -21 6 -28 23 -8 23 6 0 9 3 6 6 -3 3 -33 0 -66 -6 -124 -25 -232 25 -232 108 0 95 127 159 238 119z m511 -10 c54 -28 86 -81 76 -126 -14 -66 -106 -108 -204 -96 -143 18 -188 88 -113 177 56 67 160 86 241 45z m-847 -73 c15 -33 -7 -104 -33 -104 -20 0 -20 1 2 20 16 13 18 18 7 14 -15 -5 -17 0 -16 30 1 20 5 39 10 42 4 3 8 15 9 27 0 14 2 16 6 7 2 -8 9 -24 15 -36z m1052 5 c10 -49 7 -79 -6 -79 -7 0 -4 -8 7 -16 20 -15 19 -15 -5 -12 -20 2 -25 9 -25 33 0 17 -3 32 -7 36 -9 6 13 69 23 69 4 0 9 -14 13 -31z"/>
 <path d="M900 1359 c-18 -32 -6 -45 18 -21 13 13 20 27 17 32 -10 16 -23 12 -35 -11z"/>
 <path d="M1100 1326 c0 -14 27 -42 34 -35 2 2 0 14 -5 27 -9 24 -29 30 -29 8z"/>
 <path d="M953 1203 c-24 -2 -43 -8 -43 -14 0 -14 54 -11 76 6 10 8 17 14 14 13 -3 -1 -24 -3 -47 -5z"/>
 <path d="M1020 1191 c30 -16 82 -22 77 -8 -2 7 -23 13 -48 14 -26 1 -38 -2 -29 -6z"/>
 <path d="M750 950 c-27 -6 -18 -8 38 -7 39 1 72 5 72 9 0 10 -61 8 -110 -2z"/>
 <path d="M765 910 c-8 -13 3 -30 20 -30 20 0 30 21 14 31 -18 11 -26 11 -34 -1z"/>
 <path d="M871 883 c-21 -20 -35 -23 -98 -23 -60 0 -77 4 -93 20 -15 15 -20 16 -20 6 0 -60 214 -61 236 -1 10 24 2 23 -25 -2z"/>
 <path d="M1075 750 c-15 -24 105 -90 164 -90 49 0 101 39 101 77 l0 24 -55 -31 -54 -31 -48 21 c-66 30 -102 40 -108 30z"/>
 <path d="M1147 953 c-3 -5 23 -10 61 -11 37 -2 76 -5 87 -8 18 -4 18 -4 3 6 -23 14 -144 25 -151 13z"/>
 <path d="M1205 911 c-8 -15 3 -31 21 -31 9 0 14 7 12 17 -4 20 -24 28 -33 14z"/>
 <path d="M1100 897 c0 -10 15 -26 33 -37 45 -28 166 -29 190 -2 25 27 21 35 -8 16 -38 -25 -158 -14 -191 17 -20 19 -24 20 -24 6z"/>
 </g>
<g id="layer108" fill="#a69d9f" stroke="none">
 <path d="M133 1949 c10 -85 48 -153 104 -188 26 -17 59 -31 72 -31 42 0 185 -41 266 -75 17 -7 50 -19 75 -25 25 -6 55 -21 66 -31 l21 -20 12 45 c6 25 11 56 11 69 0 13 13 69 30 124 16 54 33 118 38 141 l10 42 -355 0 -356 0 6 -51z"/>
 <path d="M930 1973 c1 -16 7 -45 14 -66 13 -36 13 -39 -10 -54 -13 -8 -24 -21 -24 -27 0 -16 72 -86 89 -86 17 0 78 47 85 67 4 10 -3 27 -19 43 -24 25 -25 30 -16 71 19 79 19 79 -54 79 -64 0 -65 0 -65 -27z"/>
 <path d="M1170 1985 c0 -9 15 -69 34 -134 19 -64 40 -155 47 -201 12 -81 12 -83 29 -62 27 32 342 142 410 142 13 0 46 13 74 30 44 24 57 39 79 88 17 37 27 75 27 105 l0 47 -350 0 c-309 0 -350 -2 -350 -15z"/>
 <path d="M1200 1554 c0 -21 -3 -25 -17 -19 -98 41 -225 47 -316 16 -57 -20 -57 -20 -57 0 0 11 -4 17 -10 14 -5 -3 -10 -15 -10 -26 0 -10 -8 -26 -17 -33 -19 -15 -83 -65 -132 -103 -19 -15 -30 -35 -35 -61 -10 -67 -45 -136 -79 -157 -24 -15 -35 -32 -43 -66 -12 -49 -33 -89 -64 -129 -12 -14 -23 -48 -27 -77 -5 -49 -4 -54 24 -80 29 -28 29 -28 16 -78 -7 -27 -14 -84 -14 -125 -1 -64 4 -88 31 -154 34 -81 98 -158 151 -180 14 -6 49 -36 77 -67 28 -31 77 -70 110 -87 55 -30 67 -32 157 -32 85 0 112 5 209 36 128 42 185 69 241 114 61 49 121 136 141 204 18 64 23 190 11 286 -7 54 -6 55 26 75 27 17 32 27 35 66 2 33 -3 56 -18 80 -36 61 -70 134 -70 153 0 21 -47 76 -64 76 -12 0 -56 113 -56 145 -1 27 -14 42 -84 94 -83 62 -96 77 -96 111 0 17 -4 30 -10 30 -5 0 -10 -12 -10 -26z m-40 -36 c86 -39 158 -111 195 -193 38 -84 120 -378 112 -400 -11 -26 -25 -17 -45 28 -33 75 -137 119 -229 96 -55 -14 -128 -80 -138 -124 -12 -56 -13 -56 -57 -53 -40 3 -43 5 -48 38 -23 138 -220 193 -330 93 -21 -19 -42 -48 -45 -64 -8 -37 -29 -33 -33 7 -3 34 79 328 110 393 40 83 128 158 228 194 69 25 209 18 280 -15z m-584 -355 c-3 -10 -15 -54 -27 -98 -12 -44 -24 -84 -26 -89 -8 -12 -23 16 -23 44 0 20 -2 22 -10 10 -14 -22 -12 -51 5 -84 12 -23 13 -36 5 -62 -16 -46 -33 -58 -62 -43 -18 10 -20 14 -7 17 12 2 18 20 22 72 3 37 14 85 25 107 10 21 22 53 26 72 8 41 32 71 58 71 14 0 18 -5 14 -17z m903 -9 c12 -15 21 -38 21 -53 0 -14 9 -41 20 -59 13 -21 23 -60 27 -107 4 -56 10 -75 22 -78 12 -3 9 -7 -12 -17 -22 -11 -30 -11 -40 -1 -13 13 -14 81 -2 142 4 23 3 39 -4 43 -7 5 -11 -2 -11 -18 0 -44 -17 -37 -30 12 -7 26 -21 70 -31 98 -10 29 -15 55 -12 58 13 13 32 5 52 -20z m-651 -127 c17 -7 46 -25 63 -41 53 -51 63 -104 27 -144 -21 -23 -11 -23 19 1 7 5 36 10 65 11 42 1 57 -4 77 -22 72 -66 257 -68 320 -3 14 15 35 33 45 41 19 14 19 13 12 -40 -18 -140 -82 -288 -149 -345 -43 -37 -113 -65 -161 -65 -17 0 -62 8 -101 16 -41 10 -121 17 -195 18 -113 1 -129 4 -168 26 -51 29 -85 80 -106 162 -19 76 -31 214 -19 221 6 4 29 -11 51 -33 23 -23 50 -40 64 -40 20 -1 21 -2 6 -11 -39 -22 -14 -29 107 -29 84 0 125 4 125 11 0 6 -9 13 -20 16 -21 6 -28 23 -8 23 6 0 9 3 6 6 -3 3 -33 0 -66 -6 -124 -25 -232 25 -232 108 0 95 127 159 238 119z m511 -10 c54 -28 86 -81 76 -126 -14 -66 -106 -108 -204 -96 -143 18 -188 88 -113 177 56 67 160 86 241 45z"/>
 <path d="M900 1359 c-18 -32 -6 -45 18 -21 13 13 20 27 17 32 -10 16 -23 12 -35 -11z"/>
 <path d="M1100 1326 c0 -14 27 -42 34 -35 2 2 0 14 -5 27 -9 24 -29 30 -29 8z"/>
 <path d="M750 950 c-27 -6 -18 -8 38 -7 39 1 72 5 72 9 0 10 -61 8 -110 -2z"/>
 <path d="M765 910 c-8 -13 3 -30 20 -30 20 0 30 21 14 31 -18 11 -26 11 -34 -1z"/>
 <path d="M871 883 c-21 -20 -35 -23 -98 -23 -60 0 -77 4 -93 20 -15 15 -20 16 -20 6 0 -60 214 -61 236 -1 10 24 2 23 -25 -2z"/>
 <path d="M1310 743 c-51 -38 -75 -43 -124 -27 -26 9 -48 20 -52 25 -6 11 -54 12 -54 1 0 -25 111 -82 160 -82 48 0 104 45 98 79 -3 23 -3 23 -28 4z"/>
 <path d="M1147 953 c-3 -5 23 -10 61 -11 37 -2 76 -5 87 -8 18 -4 18 -4 3 6 -23 14 -144 25 -151 13z"/>
 <path d="M1205 911 c-8 -15 3 -31 21 -31 9 0 14 7 12 17 -4 20 -24 28 -33 14z"/>
 <path d="M1100 897 c0 -10 15 -26 33 -37 45 -28 166 -29 190 -2 25 27 21 35 -8 16 -38 -25 -158 -14 -191 17 -20 19 -24 20 -24 6z"/>
 </g>
<g id="layer109" fill="#d89c66" stroke="none">
 <path d="M133 1949 c10 -85 48 -153 104 -188 26 -17 59 -31 72 -31 42 0 185 -41 266 -75 17 -7 50 -19 75 -25 25 -6 55 -21 67 -32 l22 -20 5 33 c22 132 30 168 52 236 13 43 27 95 30 116 l7 37 -353 0 -353 0 6 -51z"/>
 <path d="M930 1982 c0 -11 6 -40 14 -65 14 -46 13 -48 -11 -66 -20 -17 -22 -23 -14 -40 12 -22 72 -71 87 -71 6 0 28 18 49 41 l40 40 -29 25 c-30 26 -30 29 -10 122 l7 32 -67 0 c-57 0 -66 -2 -66 -18z"/>
 <path d="M1170 1993 c0 -5 7 -33 16 -63 49 -179 64 -239 64 -272 0 -20 5 -40 11 -44 6 -3 8 -16 5 -28 l-5 -21 18 22 c28 33 343 143 411 143 13 0 46 13 74 30 44 24 57 39 79 88 17 37 27 75 27 105 l0 47 -350 0 c-192 0 -350 -3 -350 -7z"/>
 <path d="M1200 1554 c0 -21 -3 -25 -17 -19 -98 41 -225 47 -316 16 -57 -20 -57 -20 -57 0 0 11 -4 17 -10 14 -5 -3 -10 -15 -10 -26 0 -10 -8 -26 -17 -33 -19 -15 -83 -65 -132 -103 -19 -15 -30 -35 -35 -61 -10 -67 -45 -136 -79 -157 -24 -15 -35 -32 -43 -66 -12 -49 -33 -89 -64 -129 -12 -14 -23 -48 -27 -77 -5 -49 -4 -54 24 -80 29 -28 29 -28 16 -78 -7 -27 -14 -84 -14 -125 -1 -64 4 -88 31 -154 34 -81 98 -158 151 -180 14 -6 49 -36 77 -67 28 -31 77 -70 110 -87 55 -30 67 -32 157 -32 85 0 112 5 209 36 128 42 185 69 241 114 61 49 121 136 141 204 18 64 23 190 11 286 -7 54 -6 55 26 75 27 17 32 27 35 66 2 33 -3 56 -18 80 -36 61 -70 134 -70 153 0 21 -47 76 -64 76 -12 0 -56 113 -56 145 -1 27 -14 42 -84 94 -83 62 -96 77 -96 111 0 17 -4 30 -10 30 -5 0 -10 -12 -10 -26z m-40 -36 c86 -39 158 -111 195 -193 38 -84 120 -378 112 -400 -11 -26 -25 -17 -45 28 -33 75 -137 119 -229 96 -55 -14 -128 -80 -138 -124 -12 -56 -13 -56 -57 -53 -40 3 -43 5 -48 38 -23 138 -220 193 -330 93 -21 -19 -42 -48 -45 -64 -8 -37 -29 -33 -33 7 -3 34 79 328 110 393 40 83 128 158 228 194 69 25 209 18 280 -15z m-584 -355 c-3 -10 -15 -54 -27 -98 -12 -44 -24 -84 -26 -89 -8 -12 -23 16 -23 44 0 20 -2 22 -10 10 -14 -22 -12 -51 5 -84 12 -23 13 -36 5 -62 -16 -46 -33 -58 -62 -43 -18 10 -20 14 -7 17 12 2 18 20 22 72 3 37 14 85 25 107 10 21 22 53 26 72 8 41 32 71 58 71 14 0 18 -5 14 -17z m903 -9 c12 -15 21 -38 21 -53 0 -14 9 -41 20 -59 13 -21 23 -60 27 -107 4 -56 10 -75 22 -78 12 -3 9 -7 -12 -17 -22 -11 -30 -11 -40 -1 -13 13 -14 81 -2 142 4 23 3 39 -4 43 -7 5 -11 -2 -11 -18 0 -44 -17 -37 -30 12 -7 26 -21 70 -31 98 -10 29 -15 55 -12 58 13 13 32 5 52 -20z m-651 -127 c17 -7 46 -25 63 -41 53 -51 63 -104 27 -144 -21 -23 -11 -23 19 1 7 5 36 10 65 11 42 1 57 -4 77 -22 72 -66 257 -68 320 -3 14 15 35 33 45 41 19 14 19 13 12 -40 -18 -140 -82 -288 -149 -345 -43 -37 -113 -65 -161 -65 -17 0 -62 8 -101 16 -41 10 -121 17 -195 18 -113 1 -129 4 -168 26 -51 29 -85 80 -106 162 -19 76 -31 214 -19 221 6 4 29 -11 51 -33 23 -23 50 -40 64 -40 20 -1 21 -2 6 -11 -39 -22 -14 -29 107 -29 84 0 125 4 125 11 0 6 -9 13 -20 16 -21 6 -28 23 -8 23 6 0 9 3 6 6 -3 3 -33 0 -66 -6 -124 -25 -232 25 -232 108 0 95 127 159 238 119z m511 -10 c54 -28 86 -81 76 -126 -14 -66 -106 -108 -204 -96 -143 18 -188 88 -113 177 56 67 160 86 241 45z"/>
 <path d="M900 1359 c-6 -11 -10 -25 -8 -31 5 -14 38 19 38 38 0 21 -18 17 -30 -7z"/>
 <path d="M1100 1326 c0 -14 27 -42 34 -35 2 2 0 14 -5 27 -9 24 -29 30 -29 8z"/>
 <path d="M770 895 c0 -8 7 -15 15 -15 8 0 15 7 15 15 0 8 -7 15 -15 15 -8 0 -15 -7 -15 -15z"/>
 <path d="M660 882 c0 -34 120 -58 160 -32 10 7 -6 9 -52 8 -53 -1 -72 2 -88 17 -11 10 -20 13 -20 7z"/>
 <path d="M1310 743 c-51 -38 -75 -43 -124 -27 -26 9 -48 20 -52 25 -6 11 -54 12 -54 1 0 -25 111 -82 160 -82 48 0 104 45 98 79 -3 23 -3 23 -28 4z"/>
 <path d="M1204 909 c-8 -14 11 -33 25 -25 6 4 11 11 11 16 0 13 -29 20 -36 9z"/>
 <path d="M1112 889 c13 -43 162 -67 204 -33 18 14 18 15 -6 8 -48 -14 -143 -5 -174 18 -18 13 -27 16 -24 7z"/>
 </g>
<g id="layer110" fill="#b6ba4c" stroke="none">
 <path d="M133 1949 c10 -85 48 -153 104 -188 26 -17 59 -31 72 -31 42 0 185 -41 266 -75 17 -7 50 -19 75 -25 25 -6 55 -21 67 -32 l22 -20 5 33 c22 132 30 168 52 236 13 43 27 95 30 116 l7 37 -353 0 -353 0 6 -51z"/>
 <path d="M930 1982 c0 -11 6 -40 14 -65 14 -46 13 -48 -11 -66 -20 -17 -22 -23 -14 -40 12 -22 72 -71 87 -71 6 0 28 18 49 41 l40 40 -29 25 c-30 26 -30 29 -10 122 l7 32 -67 0 c-57 0 -66 -2 -66 -18z"/>
 <path d="M1170 1993 c0 -5 7 -33 16 -63 49 -179 64 -239 64 -272 0 -20 5 -40 11 -44 6 -3 8 -16 5 -28 l-5 -21 18 22 c28 33 343 143 411 143 13 0 46 13 74 30 44 24 57 39 79 88 17 37 27 75 27 105 l0 47 -350 0 c-192 0 -350 -3 -350 -7z"/>
 <path d="M1200 1551 l0 -29 -42 21 c-80 39 -231 34 -335 -9 -8 -3 -13 1 -13 11 0 9 -4 13 -10 10 -5 -3 -10 -15 -10 -25 0 -11 -8 -24 -19 -29 -10 -6 -37 -25 -59 -43 -23 -18 -55 -43 -71 -55 -19 -15 -30 -35 -35 -61 -10 -67 -45 -136 -79 -157 -24 -15 -35 -32 -43 -66 -12 -49 -33 -89 -64 -129 -12 -14 -23 -48 -27 -77 -5 -49 -4 -54 24 -80 29 -28 29 -28 16 -78 -7 -27 -14 -84 -14 -125 -1 -64 4 -88 31 -154 34 -81 98 -158 151 -180 14 -6 49 -36 77 -67 28 -31 77 -70 110 -87 55 -30 67 -32 157 -32 85 0 112 5 209 36 128 42 185 69 241 114 61 49 121 136 141 204 18 64 23 190 11 286 -7 54 -6 55 26 75 27 17 32 27 35 66 2 33 -3 56 -18 80 -36 61 -70 134 -70 153 0 21 -47 76 -64 76 -12 0 -56 113 -56 145 -1 27 -14 42 -84 94 -83 62 -96 77 -96 111 0 17 -4 30 -10 30 -5 0 -10 -13 -10 -29z m-30 -38 c81 -40 151 -107 184 -175 31 -66 120 -392 112 -413 -10 -26 -24 -17 -44 28 -33 75 -137 119 -229 96 -55 -14 -128 -80 -138 -124 -12 -56 -13 -56 -57 -53 -40 3 -43 5 -48 38 -23 138 -220 193 -330 93 -21 -19 -42 -47 -45 -64 -4 -16 -13 -29 -21 -29 -21 0 -18 57 7 143 12 39 27 95 34 122 43 167 86 241 180 305 82 56 130 70 235 67 85 -2 103 -6 160 -34z m-593 -345 c-2 -7 -15 -55 -28 -106 -24 -93 -39 -110 -50 -56 -5 24 -7 26 -14 11 -4 -11 -1 -35 9 -62 15 -38 15 -47 3 -78 -19 -44 -31 -51 -59 -35 -18 10 -20 13 -7 16 12 2 18 20 22 72 3 39 15 86 26 109 12 22 21 51 21 64 0 32 36 77 62 77 12 0 18 -5 15 -12z m902 -14 c12 -15 21 -36 21 -48 0 -12 9 -40 20 -61 12 -23 23 -71 27 -112 4 -55 10 -73 21 -73 12 0 12 -3 2 -15 -39 -46 -93 38 -64 97 16 32 18 74 4 83 -6 3 -10 -5 -10 -19 0 -48 -19 -36 -35 21 -9 32 -23 78 -31 102 -17 55 -18 51 5 51 11 0 29 -12 40 -26z m-651 -127 c17 -7 46 -25 63 -41 53 -51 63 -104 27 -144 -21 -23 -11 -23 19 0 14 12 123 16 123 6 0 -4 9 -12 21 -18 21 -12 21 -11 -1 18 -56 76 47 192 170 191 62 0 128 -35 153 -82 33 -64 3 -122 -80 -153 l-38 -15 34 6 c36 5 50 14 110 62 l34 28 -7 -55 c-18 -140 -82 -288 -149 -345 -43 -37 -113 -65 -161 -65 -17 0 -62 8 -101 16 -41 10 -121 17 -195 18 -113 1 -129 4 -168 26 -75 42 -114 137 -128 305 -8 95 -1 104 42 55 15 -16 43 -35 62 -41 29 -9 32 -13 18 -21 -38 -21 -11 -28 109 -28 130 0 152 8 93 34 -23 10 -27 15 -14 15 11 1 17 3 14 6 -2 3 -29 0 -60 -6 -119 -24 -228 28 -228 109 0 95 127 159 238 119z m-391 -67 c-7 -17 -13 -26 -15 -21 -3 10 15 51 22 51 3 0 -1 -14 -7 -30z"/>
 <path d="M907 1362 c-21 -23 -21 -32 -3 -32 8 0 18 9 21 21 9 28 2 33 -18 11z"/>
 <path d="M1100 1327 c0 -14 20 -37 32 -37 4 0 2 11 -4 25 -12 27 -28 34 -28 12z"/>
 <path d="M1204 909 c-8 -14 11 -33 25 -25 6 4 11 11 11 16 0 13 -29 20 -36 9z"/>
 <path d="M770 895 c0 -8 7 -15 15 -15 8 0 15 7 15 15 0 8 -7 15 -15 15 -8 0 -15 -7 -15 -15z"/>
 <path d="M1112 889 c13 -43 162 -67 204 -33 18 14 18 15 -6 8 -48 -14 -143 -5 -174 18 -18 13 -27 16 -24 7z"/>
 <path d="M660 882 c0 -34 120 -58 160 -32 10 7 -6 9 -52 8 -53 -1 -72 2 -88 17 -11 10 -20 13 -20 7z"/>
 <path d="M1310 743 c-51 -38 -75 -43 -124 -27 -26 9 -48 20 -52 25 -6 11 -54 12 -54 1 0 -25 110 -82 159 -82 47 0 104 46 99 80 -3 22 -3 22 -28 3z"/>
 </g>
<g id="layer111" fill="#a7cb28" stroke="none">
 <path d="M133 1949 c10 -85 48 -153 104 -188 26 -17 59 -31 72 -31 42 0 185 -41 266 -75 17 -7 50 -19 75 -25 25 -6 55 -21 67 -32 l22 -20 5 33 c22 132 30 168 52 236 13 43 27 95 30 116 l7 37 -353 0 -353 0 6 -51z"/>
 <path d="M930 1982 c0 -11 6 -40 14 -65 14 -46 13 -48 -11 -66 -20 -17 -22 -23 -14 -40 12 -22 72 -71 87 -71 6 0 28 18 49 41 l40 40 -29 25 c-30 26 -30 29 -10 122 l7 32 -67 0 c-57 0 -66 -2 -66 -18z"/>
 <path d="M1170 1993 c0 -5 7 -33 16 -63 49 -179 64 -239 64 -272 0 -20 5 -40 11 -44 6 -3 8 -16 5 -28 l-5 -21 18 22 c28 33 343 143 411 143 13 0 46 13 74 30 44 24 57 39 79 88 17 37 27 75 27 105 l0 47 -350 0 c-192 0 -350 -3 -350 -7z"/>
 <path d="M1200 1551 l0 -29 -42 21 c-80 39 -231 34 -335 -9 -8 -3 -13 1 -13 11 0 9 -4 13 -10 10 -5 -3 -10 -15 -10 -25 0 -11 -8 -24 -19 -29 -10 -6 -37 -25 -59 -43 -23 -18 -55 -43 -71 -55 -19 -15 -30 -35 -35 -61 -10 -67 -45 -136 -79 -157 -24 -15 -35 -32 -43 -66 -12 -49 -33 -89 -64 -129 -12 -14 -23 -48 -27 -77 -5 -49 -4 -54 24 -80 29 -28 29 -28 16 -78 -7 -27 -14 -84 -14 -125 -1 -64 4 -88 31 -154 34 -81 98 -158 151 -180 14 -6 49 -36 77 -67 28 -31 77 -70 110 -87 55 -30 67 -32 157 -32 85 0 112 5 209 36 128 42 185 69 241 114 61 49 121 136 141 204 18 64 23 190 11 286 -7 54 -6 55 26 75 27 17 32 27 35 66 2 33 -3 56 -18 80 -36 61 -70 134 -70 153 0 21 -47 76 -64 76 -12 0 -56 113 -56 145 -1 27 -14 42 -84 94 -83 62 -96 77 -96 111 0 17 -4 30 -10 30 -5 0 -10 -13 -10 -29z m-30 -38 c75 -37 137 -93 174 -155 28 -48 127 -393 124 -431 -2 -25 -24 -26 -40 -3 -4 6 -8 1 -8 -12 0 -13 4 -20 10 -17 6 3 10 1 10 -4 0 -6 -6 -11 -12 -12 -7 0 -26 -17 -43 -36 -25 -31 -26 -34 -8 -25 12 7 26 18 30 26 4 7 19 19 32 26 l24 12 -7 -53 c-18 -139 -82 -287 -149 -344 -43 -37 -113 -65 -161 -65 -17 0 -62 8 -101 16 -41 10 -121 17 -195 18 -116 1 -128 3 -170 28 -74 43 -112 135 -126 302 -6 80 4 134 20 107 4 -6 3 -11 -3 -11 -11 0 27 -40 61 -64 12 -9 27 -16 33 -16 5 0 -4 9 -22 20 -47 28 -67 72 -53 115 12 37 71 95 98 96 9 0 12 3 5 5 -30 13 -99 -44 -112 -92 -4 -16 -15 -30 -24 -32 -24 -5 -22 50 4 141 12 39 27 95 34 122 43 167 86 241 180 305 82 56 130 70 235 67 85 -2 103 -6 160 -34z m-593 -345 c-2 -7 -15 -55 -28 -106 -24 -93 -39 -110 -50 -56 -5 24 -7 26 -14 11 -4 -11 -1 -35 9 -62 15 -38 15 -47 3 -78 -19 -44 -31 -51 -59 -35 -18 10 -20 13 -7 16 12 2 18 20 22 72 3 39 15 86 26 109 12 22 21 51 21 64 0 32 36 77 62 77 12 0 18 -5 15 -12z m902 -14 c12 -15 21 -36 21 -48 0 -12 9 -40 20 -61 12 -23 23 -71 27 -112 4 -55 10 -73 21 -73 12 0 12 -3 2 -15 -39 -46 -93 38 -64 97 16 32 18 74 4 83 -6 3 -10 -5 -10 -19 0 -48 -19 -36 -35 21 -9 32 -23 78 -31 102 -17 55 -18 51 5 51 11 0 29 -12 40 -26z m-1042 -194 c-7 -17 -13 -26 -15 -21 -3 10 15 51 22 51 3 0 -1 -14 -7 -30z"/>
 <path d="M907 1362 c-21 -23 -21 -32 -3 -32 8 0 18 9 21 21 9 28 2 33 -18 11z"/>
 <path d="M1100 1327 c0 -14 20 -37 32 -37 4 0 2 11 -4 25 -12 27 -28 34 -28 12z"/>
 <path d="M765 1040 c33 -4 74 -14 92 -23 63 -33 105 -131 71 -165 -9 -9 -9 -12 0 -12 7 0 12 4 12 8 0 14 117 7 136 -8 18 -14 18 -14 2 6 -22 25 -23 56 -4 93 19 35 81 91 104 92 10 0 12 3 5 6 -18 7 -78 -33 -102 -66 -11 -15 -23 -42 -28 -61 -8 -32 -13 -35 -51 -38 -44 -3 -45 -2 -56 50 -15 69 -104 128 -191 126 l-50 -1 60 -7z"/>
 <path d="M1223 1043 c15 -2 37 -2 50 0 12 2 0 4 -28 4 -27 0 -38 -2 -22 -4z"/>
 <path d="M1343 1019 c21 -11 47 -34 57 -52 11 -18 20 -27 20 -21 0 28 -77 95 -107 94 -4 -1 9 -10 30 -21z"/>
 <path d="M1204 909 c-8 -14 11 -33 25 -25 6 4 11 11 11 16 0 13 -29 20 -36 9z"/>
 <path d="M770 895 c0 -8 7 -15 15 -15 8 0 15 7 15 15 0 8 -7 15 -15 15 -8 0 -15 -7 -15 -15z"/>
 <path d="M1112 889 c13 -43 162 -67 204 -33 18 14 18 15 -6 8 -48 -14 -143 -5 -174 18 -18 13 -27 16 -24 7z"/>
 <path d="M660 882 c0 -34 120 -58 160 -32 10 7 -6 9 -52 8 -53 -1 -72 2 -88 17 -11 10 -20 13 -20 7z"/>
 <path d="M678 779 c-39 -22 -14 -29 107 -29 124 0 155 9 99 30 -33 13 -184 12 -206 -1z"/>
 <path d="M1310 743 c-51 -38 -75 -43 -124 -27 -26 9 -48 20 -52 25 -6 11 -54 12 -54 1 0 -25 110 -82 159 -82 47 0 104 46 99 80 -3 22 -3 22 -28 3z"/>
 </g>
<g id="layer112" fill="#d07250" stroke="none">
 <path d="M133 1949 c10 -85 48 -153 104 -188 26 -17 59 -31 72 -31 42 0 185 -41 266 -75 17 -7 50 -19 75 -25 25 -6 55 -21 67 -32 l22 -20 5 33 c22 132 30 168 52 236 13 43 27 95 30 116 l7 37 -353 0 -353 0 6 -51z"/>
 <path d="M930 1982 c0 -11 6 -40 14 -65 14 -46 13 -48 -11 -66 -20 -17 -22 -23 -14 -40 12 -22 72 -71 87 -71 6 0 28 18 49 41 l40 40 -29 25 c-30 26 -30 29 -10 122 l7 32 -67 0 c-57 0 -66 -2 -66 -18z"/>
 <path d="M1170 1993 c0 -5 7 -33 16 -63 49 -179 64 -239 64 -272 0 -20 5 -40 11 -44 6 -3 8 -16 5 -28 l-5 -21 18 22 c28 33 343 143 411 143 13 0 46 13 74 30 44 24 57 39 79 88 17 37 27 75 27 105 l0 47 -350 0 c-192 0 -350 -3 -350 -7z"/>
 <path d="M1200 1551 l0 -29 -42 21 c-80 39 -231 34 -335 -9 -8 -3 -13 1 -13 11 0 9 -4 13 -10 10 -5 -3 -10 -15 -10 -25 0 -11 -8 -24 -19 -29 -10 -6 -37 -25 -59 -43 -23 -18 -55 -43 -71 -55 -19 -15 -30 -35 -35 -61 -10 -67 -45 -136 -79 -157 -24 -15 -35 -32 -43 -66 -12 -49 -33 -89 -64 -129 -12 -14 -23 -48 -27 -77 -5 -49 -4 -54 24 -80 29 -28 29 -28 16 -78 -7 -27 -14 -84 -14 -125 -1 -64 4 -88 31 -154 34 -81 98 -158 151 -180 14 -6 49 -36 77 -67 28 -31 77 -70 110 -87 55 -30 67 -32 157 -32 85 0 112 5 209 36 128 42 185 69 241 114 61 49 121 136 141 204 18 64 23 190 11 286 -7 54 -6 55 26 75 27 17 32 27 35 66 2 33 -3 56 -18 80 -36 61 -70 134 -70 153 0 21 -47 76 -64 76 -12 0 -56 113 -56 145 -1 27 -14 42 -84 94 -83 62 -96 77 -96 111 0 17 -4 30 -10 30 -5 0 -10 -13 -10 -29z m-30 -38 c75 -37 137 -93 174 -155 14 -23 48 -125 76 -226 52 -188 52 -186 34 -317 -10 -68 -45 -177 -77 -238 -36 -69 -92 -120 -155 -141 -57 -20 -89 -20 -177 0 -41 10 -121 17 -195 18 -116 1 -128 3 -170 28 -81 47 -111 131 -130 355 -12 132 -11 141 10 213 12 41 28 98 35 125 43 167 86 241 180 305 82 56 130 70 235 67 85 -2 103 -6 160 -34z m-593 -345 c-2 -7 -15 -55 -28 -106 -24 -93 -39 -110 -50 -56 -5 24 -7 26 -14 11 -4 -11 -1 -35 9 -62 15 -38 15 -47 3 -78 -19 -44 -31 -51 -59 -35 -18 10 -20 13 -7 16 12 2 18 20 22 72 3 39 15 86 26 109 12 22 21 51 21 64 0 32 36 77 62 77 12 0 18 -5 15 -12z m902 -14 c12 -15 21 -36 21 -48 0 -12 9 -40 20 -61 12 -23 23 -71 27 -112 4 -55 10 -73 21 -73 12 0 12 -3 2 -15 -39 -46 -93 38 -64 97 16 32 18 74 4 83 -6 3 -10 -5 -10 -19 0 -48 -19 -36 -35 21 -9 32 -23 78 -31 102 -17 55 -18 51 5 51 11 0 29 -12 40 -26z m-1042 -194 c-7 -17 -13 -26 -15 -21 -3 10 15 51 22 51 3 0 -1 -14 -7 -30z"/>
 <path d="M907 1362 c-21 -23 -21 -32 -3 -32 8 0 18 9 21 21 9 28 2 33 -18 11z"/>
 <path d="M1100 1327 c0 -14 20 -37 32 -37 4 0 2 11 -4 25 -12 27 -28 34 -28 12z"/>
 <path d="M1204 909 c-8 -14 11 -33 25 -25 6 4 11 11 11 16 0 13 -29 20 -36 9z"/>
 <path d="M770 895 c0 -8 7 -15 15 -15 8 0 15 7 15 15 0 8 -7 15 -15 15 -8 0 -15 -7 -15 -15z"/>
 <path d="M1112 889 c13 -43 162 -67 204 -33 18 14 18 15 -6 8 -48 -14 -143 -5 -174 18 -18 13 -27 16 -24 7z"/>
 <path d="M660 882 c0 -34 120 -58 160 -32 10 7 -6 9 -52 8 -53 -1 -72 2 -88 17 -11 10 -20 13 -20 7z"/>
 <path d="M678 779 c-39 -22 -14 -29 107 -29 124 0 155 9 99 30 -33 13 -184 12 -206 -1z"/>
 <path d="M1310 743 c-51 -38 -75 -43 -124 -27 -26 9 -48 20 -52 25 -6 11 -54 12 -54 1 0 -25 110 -82 159 -82 47 0 104 46 99 80 -3 22 -3 22 -28 3z"/>
 </g>
<g id="layer113" fill="#788192" stroke="none">
 <path d="M133 1949 c10 -85 48 -153 104 -188 26 -17 59 -31 72 -31 42 0 185 -41 266 -75 17 -7 50 -19 75 -25 25 -6 55 -21 67 -32 l22 -20 5 33 c22 132 30 168 52 236 13 43 27 95 30 116 l7 37 -353 0 -353 0 6 -51z"/>
 <path d="M930 1982 c0 -11 6 -40 14 -65 14 -46 13 -48 -11 -66 -20 -17 -22 -23 -14 -40 12 -22 72 -71 87 -71 6 0 28 18 49 41 l40 40 -29 25 c-30 26 -30 29 -10 122 l7 32 -67 0 c-57 0 -66 -2 -66 -18z"/>
 <path d="M1170 1993 c0 -5 7 -33 16 -63 49 -179 64 -239 64 -272 0 -20 5 -40 11 -44 6 -3 8 -16 5 -28 l-5 -21 18 22 c28 33 343 143 411 143 13 0 46 13 74 30 44 24 57 39 79 88 17 37 27 75 27 105 l0 47 -350 0 c-192 0 -350 -3 -350 -7z"/>
 <path d="M724 1466 c-33 -25 -71 -54 -85 -65 -17 -13 -29 -34 -33 -60 -3 -21 -15 -61 -26 -87 -20 -46 -21 -74 -1 -74 5 0 21 35 35 78 32 96 81 170 141 213 25 18 45 34 45 36 0 11 -25 -2 -76 -41z"/>
 <path d="M1214 1497 c42 -26 106 -91 129 -130 14 -23 35 -75 48 -115 20 -62 26 -72 42 -68 27 7 64 -34 73 -80 4 -22 24 -66 45 -98 31 -48 39 -69 39 -108 0 -40 -4 -50 -25 -64 -32 -21 -51 -7 -66 48 -8 32 -7 48 6 80 9 22 14 42 12 45 -10 10 -44 -77 -50 -127 -10 -82 -46 -218 -75 -280 -15 -30 -49 -78 -77 -105 -75 -75 -146 -91 -280 -60 -36 9 -123 17 -193 18 -121 2 -131 4 -169 29 -77 51 -106 131 -124 338 -8 101 -14 128 -29 140 -10 8 -21 26 -24 40 -2 14 -2 7 0 -15 12 -93 9 -117 -19 -140 -33 -29 -59 -125 -59 -221 0 -56 6 -85 32 -148 34 -81 98 -158 151 -180 14 -6 49 -36 77 -67 28 -31 77 -70 110 -87 55 -30 67 -32 157 -32 85 0 112 5 209 36 128 42 185 69 241 114 61 49 121 136 141 204 18 64 23 190 11 286 -7 54 -6 55 26 75 26 17 33 27 35 62 2 33 -6 58 -42 128 -26 47 -46 97 -46 110 0 20 -39 65 -68 77 -11 4 -52 115 -52 141 0 12 -6 29 -13 37 -22 27 -164 130 -178 129 -9 0 -7 -4 5 -12z"/>
 <path d="M907 1362 c-21 -23 -21 -32 -3 -32 8 0 18 9 21 21 9 28 2 33 -18 11z"/>
 <path d="M1100 1327 c0 -14 20 -37 32 -37 4 0 2 11 -4 25 -12 27 -28 34 -28 12z"/>
 <path d="M517 1180 c-16 -13 -29 -35 -33 -58 -7 -41 -33 -93 -64 -132 -11 -14 -23 -48 -26 -75 -5 -41 -3 -55 14 -75 11 -14 24 -21 28 -17 5 4 4 11 -2 15 -42 27 -34 93 21 173 18 27 36 67 40 90 4 24 18 53 32 67 31 31 24 39 -10 12z"/>
 <path d="M435 948 c-10 -41 -10 -81 0 -84 6 -2 11 20 12 51 3 57 -3 71 -12 33z"/>
 <path d="M1559 903 c-3 -24 -1 -43 4 -43 13 0 17 24 8 55 -8 30 -8 29 -12 -12z"/>
 <path d="M1204 909 c-8 -14 11 -33 25 -25 6 4 11 11 11 16 0 13 -29 20 -36 9z"/>
 <path d="M770 895 c0 -8 7 -15 15 -15 8 0 15 7 15 15 0 8 -7 15 -15 15 -8 0 -15 -7 -15 -15z"/>
 <path d="M1112 889 c13 -43 162 -67 204 -33 18 14 18 15 -6 8 -48 -14 -143 -5 -174 18 -18 13 -27 16 -24 7z"/>
 <path d="M660 882 c0 -34 120 -58 160 -32 10 7 -6 9 -52 8 -53 -1 -72 2 -88 17 -11 10 -20 13 -20 7z"/>
 <path d="M678 779 c-39 -22 -14 -29 107 -29 124 0 155 9 99 30 -33 13 -184 12 -206 -1z"/>
 <path d="M1290 729 c-33 -22 -52 -28 -70 -23 -14 3 -32 7 -40 9 -8 2 -28 10 -45 19 -53 28 -75 16 -31 -16 50 -36 98 -58 128 -58 44 0 108 46 108 76 0 13 -1 24 -2 23 -2 0 -23 -14 -48 -30z"/>
 </g>
<g id="layer114" fill="#c4593f" stroke="none">
 <path d="M133 1949 c10 -85 48 -153 104 -188 26 -17 59 -31 72 -31 42 0 185 -41 266 -75 17 -7 50 -19 75 -25 25 -6 55 -21 68 -33 12 -11 22 -17 22 -13 0 39 28 173 56 267 19 64 34 123 34 133 0 15 -32 16 -351 16 l-352 0 6 -51z"/>
 <path d="M930 1987 c0 -7 7 -37 15 -65 l16 -52 -27 -24 -27 -23 43 -41 c23 -23 46 -42 50 -42 4 0 27 18 51 40 l44 40 -29 24 c-26 22 -28 28 -23 68 4 23 10 53 13 66 6 21 4 22 -60 22 -48 0 -66 -4 -66 -13z"/>
 <path d="M1170 1993 c0 -5 7 -33 16 -63 45 -158 64 -237 64 -261 0 -15 6 -41 14 -59 11 -27 15 -30 22 -17 15 26 342 137 404 137 13 0 46 13 74 30 44 24 57 39 79 88 17 37 27 75 27 105 l0 47 -350 0 c-192 0 -350 -3 -350 -7z"/>
 <path d="M724 1466 c-33 -25 -71 -54 -85 -65 -17 -13 -29 -34 -33 -60 -3 -21 -15 -61 -26 -87 -20 -46 -21 -74 -1 -74 5 0 21 35 35 78 32 96 81 170 141 213 25 18 45 34 45 36 0 11 -25 -2 -76 -41z"/>
 <path d="M1214 1497 c42 -26 106 -91 129 -130 14 -23 35 -75 48 -115 20 -62 26 -72 42 -68 27 7 64 -34 73 -80 4 -22 24 -66 45 -98 31 -48 39 -69 39 -108 0 -40 -4 -50 -25 -64 -32 -21 -51 -7 -66 48 -8 32 -7 48 6 80 9 22 14 42 12 45 -10 10 -44 -77 -50 -127 -10 -82 -46 -218 -75 -280 -15 -30 -49 -78 -77 -105 -75 -75 -146 -91 -280 -60 -36 9 -123 17 -193 18 -121 2 -131 4 -169 29 -77 51 -106 131 -124 338 -8 101 -14 128 -29 140 -10 8 -21 26 -24 40 -2 14 -2 7 0 -15 12 -93 9 -117 -19 -140 -33 -29 -59 -125 -59 -221 0 -56 6 -85 32 -148 34 -81 98 -158 151 -180 14 -6 49 -36 77 -67 28 -31 77 -70 110 -87 55 -30 67 -32 157 -32 85 0 112 5 209 36 128 42 185 69 241 114 61 49 121 136 141 204 18 64 23 190 11 286 -7 54 -6 55 26 75 26 17 33 27 35 62 2 33 -6 58 -42 128 -26 47 -46 97 -46 110 0 20 -39 65 -68 77 -11 4 -52 115 -52 141 0 12 -6 29 -13 37 -22 27 -164 130 -178 129 -9 0 -7 -4 5 -12z"/>
 <path d="M900 1355 c-7 -9 -10 -18 -7 -22 8 -7 37 15 37 28 0 14 -16 11 -30 -6z"/>
 <path d="M1107 1333 c-7 -11 18 -51 26 -43 3 3 0 16 -7 29 -7 13 -16 19 -19 14z"/>
 <path d="M517 1180 c-16 -13 -29 -35 -33 -58 -7 -41 -33 -93 -64 -132 -11 -14 -23 -48 -26 -75 -5 -41 -3 -55 14 -75 11 -14 24 -21 28 -17 5 4 4 11 -2 15 -42 27 -34 93 21 173 18 27 36 67 40 90 4 24 18 53 32 67 31 31 24 39 -10 12z"/>
 <path d="M435 948 c-10 -41 -10 -81 0 -84 6 -2 11 20 12 51 3 57 -3 71 -12 33z"/>
 <path d="M1559 903 c-3 -24 -1 -43 4 -43 13 0 17 24 8 55 -8 30 -8 29 -12 -12z"/>
 <path d="M772 899 c2 -6 8 -10 13 -10 5 0 11 4 13 10 2 6 -4 11 -13 11 -9 0 -15 -5 -13 -11z"/>
 <path d="M1210 894 c0 -9 5 -14 12 -12 18 6 21 28 4 28 -9 0 -16 -7 -16 -16z"/>
 <path d="M678 779 c-39 -22 -14 -29 107 -29 124 0 155 9 99 30 -33 13 -184 12 -206 -1z"/>
 <path d="M1290 729 c-33 -22 -52 -28 -70 -23 -14 3 -32 7 -40 9 -8 2 -28 10 -45 19 -53 28 -75 16 -31 -16 50 -36 98 -58 128 -58 44 0 108 46 108 76 0 13 -1 24 -2 23 -2 0 -23 -14 -48 -30z"/>
 </g>
<g id="layer115" fill="#b63f2f" stroke="none">
 <path d="M133 1949 c10 -85 48 -153 104 -188 26 -17 59 -31 72 -31 42 0 185 -41 266 -75 17 -7 50 -19 75 -25 25 -6 55 -21 68 -33 12 -11 22 -17 22 -13 0 39 28 173 56 267 19 64 34 123 34 133 0 15 -32 16 -351 16 l-352 0 6 -51z"/>
 <path d="M930 1987 c0 -7 7 -37 15 -65 l16 -52 -27 -24 -27 -23 43 -41 c23 -23 46 -42 50 -42 4 0 27 18 51 40 l44 40 -29 24 c-26 22 -28 28 -23 68 4 23 10 53 13 66 6 21 4 22 -60 22 -48 0 -66 -4 -66 -13z"/>
 <path d="M1170 1993 c0 -5 7 -33 16 -63 45 -158 64 -237 64 -261 0 -15 6 -41 14 -59 11 -27 15 -30 22 -17 15 26 342 137 404 137 13 0 46 13 74 30 44 24 57 39 79 88 17 37 27 75 27 105 l0 47 -350 0 c-192 0 -350 -3 -350 -7z"/>
 <path d="M1312 1418 c34 -45 62 -102 84 -170 10 -32 24 -58 31 -58 18 0 16 21 -7 80 -11 28 -20 61 -20 73 -1 27 -14 44 -62 80 -48 36 -56 34 -26 -5z"/>
 <path d="M665 1422 c-40 -25 -51 -40 -59 -82 -3 -19 -16 -59 -28 -88 -18 -45 -19 -55 -7 -63 11 -6 20 9 40 69 15 43 37 96 51 118 47 75 47 72 3 46z"/>
 <path d="M900 1355 c-7 -9 -10 -18 -7 -22 8 -7 37 15 37 28 0 14 -16 11 -30 -6z"/>
 <path d="M1107 1333 c-7 -11 18 -51 26 -43 3 3 0 16 -7 29 -7 13 -16 19 -19 14z"/>
 <path d="M511 905 c-6 -26 -23 -57 -37 -70 -33 -31 -54 -110 -56 -205 0 -64 5 -88 32 -154 34 -81 98 -158 151 -180 14 -6 49 -36 77 -67 28 -31 77 -70 110 -87 55 -30 67 -32 157 -32 85 0 112 5 209 36 182 60 247 101 322 201 68 91 90 197 73 363 -8 79 -15 110 -29 125 -10 11 -22 39 -26 62 -9 58 -20 46 -28 -31 -8 -77 -48 -220 -77 -278 -30 -59 -98 -128 -147 -149 -53 -23 -128 -24 -216 -4 -40 9 -107 15 -173 14 -116 -2 -165 11 -211 54 -54 50 -85 157 -97 337 -3 52 -10 99 -14 103 -5 5 -14 -13 -20 -38z m34 -411 c8 -22 30 -56 48 -74 20 -20 24 -29 12 -22 -63 33 -96 114 -101 246 l-3 101 14 -105 c8 -58 21 -123 30 -146z m926 45 c-10 -24 -33 -60 -50 -79 -25 -29 -23 -22 17 46 26 45 48 80 50 79 1 -1 -6 -22 -17 -46z m21 -77 c-19 -50 -80 -138 -89 -128 -2 2 10 26 29 53 18 26 42 67 52 91 26 58 31 46 8 -16z m-573 -124 c-2 -2 -17 -14 -34 -28 l-30 -25 24 28 c14 15 29 27 34 27 6 0 8 -1 6 -2z m-76 -148 c-6 -6 -43 38 -43 52 0 5 11 -4 24 -19 13 -15 22 -30 19 -33z m-63 -7 c0 -8 -36 16 -55 38 -16 19 -13 18 18 -5 20 -16 37 -30 37 -33z m448 32 c-54 -30 -220 -62 -178 -35 8 5 26 10 40 10 14 0 52 9 85 20 72 23 90 24 53 5z"/>
 <path d="M772 899 c2 -6 8 -10 13 -10 5 0 11 4 13 10 2 6 -4 11 -13 11 -9 0 -15 -5 -13 -11z"/>
 <path d="M1210 894 c0 -9 5 -14 12 -12 18 6 21 28 4 28 -9 0 -16 -7 -16 -16z"/>
 <path d="M678 779 c-39 -22 -14 -29 107 -29 124 0 155 9 99 30 -33 13 -184 12 -206 -1z"/>
 <path d="M1296 729 c-48 -35 -75 -36 -144 -4 -64 30 -84 32 -57 6 29 -27 112 -71 136 -71 44 0 114 54 107 84 -2 12 -11 9 -42 -15z"/>
 </g>
<g id="layer116" fill="#676063" stroke="none">
 <path d="M133 1949 c10 -85 48 -153 104 -188 26 -17 59 -31 72 -31 42 0 185 -41 266 -75 17 -7 50 -19 75 -25 25 -6 55 -21 68 -33 12 -11 22 -17 22 -13 0 39 28 173 56 267 19 64 34 123 34 133 0 15 -32 16 -351 16 l-352 0 6 -51z"/>
 <path d="M930 1987 c0 -7 7 -37 15 -65 l16 -52 -27 -24 -27 -23 43 -41 c23 -23 46 -42 50 -42 4 0 27 18 51 40 l44 40 -29 24 c-26 22 -28 28 -23 68 4 23 10 53 13 66 6 21 4 22 -60 22 -48 0 -66 -4 -66 -13z"/>
 <path d="M1170 1993 c0 -5 7 -33 16 -63 45 -158 64 -237 64 -261 0 -15 6 -41 14 -59 11 -27 15 -30 22 -17 15 26 342 137 404 137 13 0 46 13 74 30 44 24 57 39 79 88 17 37 27 75 27 105 l0 47 -350 0 c-192 0 -350 -3 -350 -7z"/>
 <path d="M1342 1379 c20 -35 44 -89 53 -119 23 -71 26 -76 37 -57 5 10 1 34 -12 67 -11 28 -20 61 -20 73 -1 27 -15 46 -59 77 l-34 23 35 -64z"/>
 <path d="M642 1405 c-20 -16 -31 -38 -36 -64 -3 -22 -15 -60 -26 -86 -19 -44 -19 -65 -1 -65 4 0 17 33 30 73 13 39 29 82 37 95 8 12 21 33 30 47 21 32 4 32 -34 0z"/>
 <path d="M900 1355 c-7 -9 -10 -18 -7 -22 8 -7 37 15 37 28 0 14 -16 11 -30 -6z"/>
 <path d="M1107 1333 c-7 -11 18 -51 26 -43 3 3 0 16 -7 29 -7 13 -16 19 -19 14z"/>
 <path d="M519 920 c-4 -79 -4 -117 2 -235 11 -195 43 -267 132 -289 l47 -12 -27 -26 c-16 -14 -38 -29 -50 -32 -33 -10 -96 52 -135 133 -26 54 -32 81 -36 151 -2 47 1 112 6 145 6 33 8 62 6 64 -16 17 -45 -100 -46 -189 0 -64 5 -88 32 -154 34 -81 98 -158 151 -180 14 -6 49 -36 77 -67 28 -31 77 -70 110 -87 55 -30 67 -32 157 -32 85 0 112 5 209 36 182 60 247 101 322 201 45 60 61 103 75 200 13 89 -5 247 -31 280 -11 14 -22 40 -26 59 -10 53 -21 40 -28 -33 -12 -122 -63 -261 -124 -341 -30 -40 -98 -81 -154 -94 -31 -7 -68 -4 -152 13 -80 15 -130 20 -180 16 -99 -9 -160 7 -210 53 -58 53 -83 130 -97 289 -11 120 -26 190 -30 131z m1008 -307 c-16 -237 -124 -360 -387 -439 -190 -56 -331 -42 -420 45 -28 26 -50 56 -50 67 0 10 10 35 22 54 l23 35 5 -57 c5 -53 31 -107 56 -115 5 -2 7 19 6 47 -6 73 6 95 23 46 8 -21 21 -46 29 -55 15 -14 16 -12 16 20 0 24 7 42 23 57 40 37 79 43 168 24 134 -28 259 7 340 95 37 40 102 158 127 233 19 52 25 33 19 -57z"/>
 <path d="M1425 418 c-11 -18 -39 -47 -63 -65 -51 -39 -44 -44 9 -7 35 24 98 104 82 104 -5 -1 -17 -15 -28 -32z"/>
 <path d="M772 899 c2 -6 8 -10 13 -10 5 0 11 4 13 10 2 6 -4 11 -13 11 -9 0 -15 -5 -13 -11z"/>
 <path d="M1210 894 c0 -9 5 -14 12 -12 18 6 21 28 4 28 -9 0 -16 -7 -16 -16z"/>
 <path d="M487 558 c6 -50 39 -132 59 -149 8 -6 2 14 -12 45 -14 32 -28 75 -31 97 -3 22 -9 42 -13 44 -5 3 -6 -14 -3 -37z"/>
 </g>
<g id="layer117" fill="#a62c1a" stroke="none">
 <path d="M133 1949 c10 -85 48 -153 104 -188 26 -17 59 -31 72 -31 42 0 185 -41 266 -75 17 -7 50 -19 75 -25 25 -6 55 -21 68 -33 12 -11 22 -16 22 -11 0 44 36 217 60 294 16 51 30 100 30 107 0 10 -70 13 -351 13 l-352 0 6 -51z"/>
 <path d="M930 1994 c0 -3 7 -33 16 -67 l15 -60 -26 -21 -26 -21 45 -44 44 -43 35 26 c48 36 52 54 24 85 -20 22 -22 32 -16 66 16 84 16 85 -51 85 -33 0 -60 -3 -60 -6z"/>
 <path d="M1177 1978 c3 -13 14 -54 25 -93 20 -70 35 -136 58 -250 10 -49 14 -56 24 -43 21 28 344 138 406 138 13 0 46 13 74 30 44 24 57 39 79 88 17 37 27 75 27 105 l0 47 -349 0 -349 0 5 -22z"/>
 <path d="M1342 1379 c20 -35 44 -89 53 -119 23 -71 26 -76 37 -57 5 10 1 34 -12 67 -11 28 -20 61 -20 73 -1 27 -15 46 -59 77 l-34 23 35 -64z"/>
 <path d="M642 1405 c-20 -16 -31 -38 -36 -64 -3 -22 -15 -60 -26 -86 -19 -44 -19 -65 -1 -65 4 0 17 33 30 73 13 39 29 82 37 95 8 12 21 33 30 47 21 32 4 32 -34 0z"/>
 <path d="M519 920 c-4 -79 -4 -117 2 -235 11 -195 43 -267 132 -289 l47 -12 -27 -26 c-16 -14 -38 -29 -50 -32 -33 -10 -96 52 -135 133 -26 54 -32 81 -36 151 -2 47 1 112 6 145 6 33 8 62 6 64 -16 17 -45 -100 -46 -189 0 -64 5 -88 32 -154 34 -81 98 -158 151 -180 14 -6 49 -36 77 -67 28 -31 77 -70 110 -87 55 -30 67 -32 157 -32 85 0 112 5 209 36 182 60 247 101 322 201 45 60 61 103 75 200 13 89 -5 247 -31 280 -11 14 -22 40 -26 59 -10 53 -21 40 -28 -33 -12 -122 -63 -261 -124 -341 -30 -40 -98 -81 -154 -94 -31 -7 -68 -4 -152 13 -80 15 -130 20 -180 16 -99 -9 -160 7 -210 53 -58 53 -83 130 -97 289 -11 120 -26 190 -30 131z m1008 -307 c-16 -237 -124 -360 -387 -439 -190 -56 -331 -42 -420 45 -28 26 -50 56 -50 67 0 10 10 35 22 54 l23 35 5 -57 c5 -53 31 -107 56 -115 5 -2 7 19 6 47 -6 73 6 95 23 46 8 -21 21 -46 29 -55 15 -14 16 -12 16 20 0 24 7 42 23 57 40 37 79 43 168 24 134 -28 259 7 340 95 37 40 102 158 127 233 19 52 25 33 19 -57z"/>
 <path d="M1425 418 c-11 -18 -39 -47 -63 -65 -51 -39 -44 -44 9 -7 35 24 98 104 82 104 -5 -1 -17 -15 -28 -32z"/>
 <path d="M487 558 c6 -50 39 -132 59 -149 8 -6 2 14 -12 45 -14 32 -28 75 -31 97 -3 22 -9 42 -13 44 -5 3 -6 -14 -3 -37z"/>
 </g>
<g id="layer118" fill="#724433" stroke="none">
 <path d="M133 1949 c10 -85 48 -153 104 -188 26 -17 59 -31 72 -31 42 0 185 -41 266 -75 17 -7 50 -19 75 -25 25 -6 55 -21 68 -33 12 -11 22 -16 22 -11 0 44 36 217 60 294 16 51 30 100 30 107 0 10 -70 13 -351 13 l-352 0 6 -51z"/>
 <path d="M930 1994 c0 -3 7 -33 16 -67 l15 -60 -26 -21 -26 -21 45 -44 44 -43 35 26 c48 36 52 54 24 85 -20 22 -22 32 -16 66 16 84 16 85 -51 85 -33 0 -60 -3 -60 -6z"/>
 <path d="M1177 1978 c3 -13 14 -54 25 -93 20 -70 35 -136 58 -250 10 -49 14 -56 24 -43 21 28 344 138 406 138 13 0 46 13 74 30 44 24 57 39 79 88 17 37 27 75 27 105 l0 47 -349 0 -349 0 5 -22z"/>
 <path d="M1323 1416 c9 -14 23 -36 31 -48 8 -13 27 -58 42 -101 19 -55 30 -74 35 -64 8 13 0 42 -43 167 -5 14 -25 36 -45 49 l-37 24 17 -27z"/>
 <path d="M641 1405 c-17 -15 -31 -35 -31 -46 0 -11 -9 -45 -20 -76 -21 -61 -25 -93 -12 -93 5 0 14 23 22 52 7 29 28 81 47 117 18 35 31 66 29 68 -2 2 -18 -8 -35 -22z"/>
 <path d="M520 915 c-5 -64 3 -280 12 -335 19 -119 67 -180 139 -180 47 0 49 -10 8 -44 -60 -51 -101 -42 -154 34 -55 79 -75 146 -75 255 0 55 4 117 9 138 5 21 5 37 0 37 -5 0 -11 -12 -15 -27 -3 -16 -10 -44 -15 -63 -5 -19 -9 -68 -9 -108 0 -60 6 -88 31 -148 33 -79 98 -156 150 -178 14 -6 49 -36 77 -67 28 -31 77 -70 110 -87 55 -30 67 -32 157 -32 85 0 112 5 209 36 133 44 176 65 236 113 64 52 86 78 120 146 39 78 52 180 39 305 -7 70 -14 99 -29 115 -11 12 -23 35 -26 53 -11 55 -21 45 -28 -29 -3 -38 -19 -110 -35 -159 -48 -150 -113 -230 -214 -264 -60 -20 -72 -20 -185 4 -65 14 -125 19 -200 17 -122 -2 -146 6 -205 72 -45 50 -65 114 -78 256 -10 109 -26 183 -29 140z m1000 -389 c-23 -113 -92 -213 -189 -275 -26 -17 -96 -47 -157 -68 -101 -34 -118 -37 -229 -37 -136 -1 -159 7 -232 77 -58 56 -55 105 12 167 l26 25 -15 -30 c-9 -17 -16 -39 -16 -50 0 -34 19 -89 40 -115 l20 -25 -6 46 c-5 36 -1 57 19 101 14 31 31 60 38 64 7 4 5 -3 -4 -17 -22 -30 -22 -91 0 -132 l17 -32 6 44 c11 72 80 106 167 83 62 -17 174 -15 230 4 105 36 173 108 228 244 51 124 50 123 53 46 2 -37 -2 -91 -8 -120z"/>
 </g>
<g id="layer119" fill="#64311f" stroke="none">
 <path d="M133 1949 c10 -85 48 -153 104 -188 26 -17 59 -31 72 -31 42 0 185 -41 266 -75 17 -7 50 -19 75 -25 25 -7 53 -19 62 -27 16 -14 18 -14 26 8 5 13 12 51 16 84 4 33 20 101 35 150 16 50 32 105 36 123 l7 32 -331 0 c-315 0 -331 -1 -331 -18 0 -16 15 -66 44 -147 7 -20 7 -20 -8 -1 -15 18 -38 81 -50 139 -11 50 -29 31 -23 -24z m184 -169 c50 -17 53 -18 18 -14 -51 7 -116 34 -109 46 3 5 12 4 20 -2 7 -7 39 -20 71 -30z"/>
 <path d="M936 1973 c3 -16 10 -46 16 -68 9 -36 8 -41 -16 -60 l-26 -21 38 -37 c43 -42 52 -44 88 -21 44 29 49 52 20 83 -22 23 -24 30 -16 66 19 82 17 85 -50 85 l-60 0 6 -27z"/>
 <path d="M1177 1978 c3 -13 18 -67 34 -120 15 -53 33 -125 39 -160 21 -123 21 -124 34 -106 21 28 344 138 406 138 13 0 46 13 74 30 44 24 57 39 79 88 17 37 27 75 27 105 0 56 -17 62 -25 10 -8 -44 -45 -146 -52 -139 -2 2 3 25 11 51 9 25 20 64 25 86 l9 39 -333 0 -333 0 5 -22z m585 -184 c-20 -14 -95 -34 -122 -33 -8 0 14 10 50 22 44 15 64 27 62 36 -3 12 0 12 13 1 14 -12 14 -14 -3 -26z"/>
 <path d="M641 1405 c-17 -15 -31 -35 -31 -46 0 -11 -9 -45 -20 -76 -21 -61 -25 -93 -12 -93 5 0 14 23 22 52 7 29 28 81 47 117 18 35 31 66 29 68 -2 2 -18 -8 -35 -22z"/>
 <path d="M1320 1425 c0 -3 11 -22 24 -43 13 -20 37 -72 52 -115 19 -55 30 -74 35 -64 8 13 1 39 -43 168 -8 22 -68 70 -68 54z"/>
 <path d="M520 915 c-5 -64 3 -280 12 -335 19 -119 67 -180 139 -180 47 0 49 -10 8 -44 -60 -51 -101 -42 -154 34 -55 79 -75 146 -75 255 0 55 4 117 9 138 5 21 5 37 0 37 -5 0 -11 -12 -15 -27 -3 -16 -10 -44 -15 -63 -5 -19 -9 -68 -9 -108 0 -60 6 -88 31 -148 33 -79 98 -156 150 -178 14 -6 49 -36 77 -67 28 -31 77 -70 110 -87 55 -30 67 -32 157 -32 85 0 112 5 209 36 133 44 176 65 236 113 64 52 86 78 120 146 39 78 52 180 39 305 -7 70 -14 99 -29 115 -11 12 -23 35 -26 53 -11 55 -21 45 -28 -29 -3 -38 -19 -110 -35 -159 -48 -150 -113 -230 -214 -264 -60 -20 -72 -20 -185 4 -65 14 -125 19 -200 17 -122 -2 -146 6 -205 72 -45 50 -65 114 -78 256 -10 109 -26 183 -29 140z m1000 -389 c-23 -113 -92 -213 -189 -275 -26 -17 -96 -47 -157 -68 -101 -34 -118 -37 -229 -37 -136 -1 -159 7 -232 77 -58 56 -55 105 12 167 l26 25 -15 -30 c-9 -17 -16 -39 -16 -50 0 -34 19 -89 40 -115 l20 -25 -6 46 c-5 36 -1 57 19 101 14 31 31 60 38 64 7 4 5 -3 -4 -17 -22 -30 -22 -91 0 -132 l17 -32 6 44 c11 72 80 106 167 83 62 -17 174 -15 230 4 105 36 173 108 228 244 51 124 50 123 53 46 2 -37 -2 -91 -8 -120z"/>
 </g>
<g id="layer120" fill="#951909" stroke="none">
 <path d="M133 1949 c10 -85 48 -153 104 -188 26 -17 59 -31 72 -31 42 0 185 -41 266 -75 17 -7 50 -19 75 -25 25 -7 52 -18 62 -27 21 -19 24 -13 38 82 6 44 24 121 39 170 38 121 43 145 32 145 -6 0 -15 -19 -21 -42 -6 -24 -22 -79 -36 -124 -13 -44 -24 -93 -24 -110 0 -16 -3 -46 -6 -66 l-7 -38 -37 34 c-21 19 -49 39 -62 46 -22 11 -22 11 -3 -5 11 -9 27 -20 35 -25 8 -5 12 -11 9 -14 -3 -3 -35 6 -70 20 -66 27 -253 83 -279 84 -8 0 -34 8 -57 18 -35 14 -48 28 -73 74 -17 31 -33 77 -36 102 -9 64 -28 60 -21 -5z"/>
 <path d="M571 1977 c-29 -74 -34 -108 -21 -120 7 -7 10 -7 7 -1 -3 5 5 40 18 77 14 37 20 67 15 67 -6 0 -14 -10 -19 -23z"/>
 <path d="M944 1947 c7 -29 16 -58 19 -64 4 -6 -4 -20 -18 -31 -14 -11 -25 -24 -25 -30 0 -14 68 -72 83 -72 7 0 28 16 47 35 l34 35 -26 27 c-24 26 -26 32 -18 73 16 81 17 80 -49 80 l-59 0 12 -53z"/>
 <path d="M1180 1984 c0 -10 15 -69 34 -133 28 -94 54 -220 56 -268 0 -4 6 0 13 9 22 28 345 138 407 138 13 0 46 13 74 30 44 24 57 39 80 89 20 45 26 71 24 108 l-3 48 -12 -53 c-21 -87 -58 -149 -103 -172 -21 -11 -49 -20 -61 -20 -32 0 -254 -67 -300 -90 -56 -29 -69 -24 -29 11 l35 30 -38 -22 c-20 -11 -46 -32 -56 -45 -10 -13 -21 -24 -24 -24 -2 0 -6 31 -9 68 -8 107 -88 377 -88 296z"/>
 <path d="M1419 1958 c10 -24 21 -55 25 -70 3 -16 11 -28 17 -28 6 0 9 6 6 13 -2 6 -13 38 -23 70 -10 31 -23 57 -30 57 -10 0 -9 -11 5 -42z"/>
 <path d="M246 1858 l-17 -33 20 24 c18 20 27 41 18 41 -1 0 -11 -15 -21 -32z"/>
 <path d="M1740 1875 c0 -5 10 -21 21 -35 13 -17 17 -18 10 -5 -17 33 -31 51 -31 40z"/>
 <path d="M588 1801 c-41 -39 -34 -57 7 -20 33 30 44 50 28 48 -5 -1 -20 -13 -35 -28z"/>
 <path d="M1370 1826 c0 -10 73 -76 79 -71 3 3 -11 22 -31 41 -34 31 -48 40 -48 30z"/>
 <path d="M641 1405 c-17 -15 -31 -35 -31 -46 0 -11 -9 -45 -20 -76 -21 -61 -25 -93 -12 -93 5 0 14 23 22 52 7 29 28 81 47 117 18 35 31 66 29 68 -2 2 -18 -8 -35 -22z"/>
 <path d="M1320 1425 c0 -3 11 -22 24 -43 13 -20 37 -72 52 -115 19 -55 30 -74 35 -64 8 13 1 39 -43 168 -8 22 -68 70 -68 54z"/>
 <path d="M520 915 c-5 -64 3 -280 12 -335 19 -119 67 -180 139 -180 47 0 49 -10 8 -44 -60 -51 -101 -42 -154 34 -55 79 -75 146 -75 255 0 55 4 117 9 138 5 21 5 37 0 37 -5 0 -11 -12 -15 -27 -3 -16 -10 -44 -15 -63 -5 -19 -9 -68 -9 -108 0 -60 6 -88 31 -148 33 -79 98 -156 150 -178 14 -6 49 -36 77 -67 28 -31 77 -70 110 -87 55 -30 67 -32 157 -32 85 0 112 5 209 36 133 44 176 65 236 113 64 52 86 78 120 146 39 78 52 180 39 305 -7 70 -14 99 -29 115 -11 12 -23 35 -26 53 -11 55 -21 45 -28 -29 -3 -38 -19 -110 -35 -159 -48 -150 -113 -230 -214 -264 -60 -20 -72 -20 -185 4 -65 14 -125 19 -200 17 -122 -2 -146 6 -205 72 -45 50 -65 114 -78 256 -10 109 -26 183 -29 140z m1000 -389 c-23 -113 -92 -213 -189 -275 -26 -17 -96 -47 -157 -68 -101 -34 -118 -37 -229 -37 -136 -1 -159 7 -232 77 -58 56 -55 105 12 167 l26 25 -15 -30 c-9 -17 -16 -39 -16 -50 0 -34 19 -89 40 -115 l20 -25 -6 46 c-5 36 -1 57 19 101 14 31 31 60 38 64 7 4 5 -3 -4 -17 -22 -30 -22 -91 0 -132 l17 -32 6 44 c11 72 80 106 167 83 62 -17 174 -15 230 4 105 36 173 108 228 244 51 124 50 123 53 46 2 -37 -2 -91 -8 -120z"/>
 </g>
<g id="layer121" fill="#501c10" stroke="none">
 <path d="M133 1949 c10 -85 48 -153 104 -188 26 -17 59 -31 72 -31 42 0 185 -41 266 -75 17 -7 50 -19 75 -25 25 -7 52 -18 62 -27 21 -19 24 -13 38 82 6 44 24 121 39 170 38 121 43 145 32 145 -6 0 -15 -19 -21 -42 -6 -24 -22 -79 -36 -124 -13 -44 -24 -93 -24 -110 0 -16 -3 -46 -6 -66 l-7 -38 -37 34 c-21 19 -49 39 -62 46 -22 11 -22 11 -3 -5 11 -9 27 -20 35 -25 8 -5 12 -11 9 -14 -3 -3 -35 6 -70 20 -66 27 -253 83 -279 84 -8 0 -34 8 -57 18 -35 14 -48 28 -73 74 -17 31 -33 77 -36 102 -9 64 -28 60 -21 -5z"/>
 <path d="M571 1977 c-29 -74 -34 -108 -21 -120 7 -7 10 -7 7 -1 -3 5 5 40 18 77 14 37 20 67 15 67 -6 0 -14 -10 -19 -23z"/>
 <path d="M944 1947 c7 -29 16 -58 19 -64 4 -6 -4 -20 -18 -31 -14 -11 -25 -24 -25 -30 0 -14 68 -72 83 -72 7 0 28 16 47 35 l34 35 -26 27 c-24 26 -26 32 -18 73 16 81 17 80 -49 80 l-59 0 12 -53z"/>
 <path d="M1180 1984 c0 -10 15 -69 34 -133 28 -94 54 -220 56 -268 0 -4 6 0 13 9 22 28 345 138 407 138 13 0 46 13 74 30 44 24 57 39 80 89 20 45 26 71 24 108 l-3 48 -12 -53 c-21 -87 -58 -149 -103 -172 -21 -11 -49 -20 -61 -20 -32 0 -254 -67 -300 -90 -56 -29 -69 -24 -29 11 l35 30 -38 -22 c-20 -11 -46 -32 -56 -45 -10 -13 -21 -24 -24 -24 -2 0 -6 31 -9 68 -8 107 -88 377 -88 296z"/>
 <path d="M1419 1958 c10 -24 21 -55 25 -70 3 -16 11 -28 17 -28 6 0 9 6 6 13 -2 6 -13 38 -23 70 -10 31 -23 57 -30 57 -10 0 -9 -11 5 -42z"/>
 <path d="M246 1858 l-17 -33 20 24 c18 20 27 41 18 41 -1 0 -11 -15 -21 -32z"/>
 <path d="M1740 1875 c0 -5 10 -21 21 -35 13 -17 17 -18 10 -5 -17 33 -31 51 -31 40z"/>
 <path d="M588 1801 c-41 -39 -34 -57 7 -20 33 30 44 50 28 48 -5 -1 -20 -13 -35 -28z"/>
 <path d="M1370 1826 c0 -10 73 -76 79 -71 3 3 -11 22 -31 41 -34 31 -48 40 -48 30z"/>
 </g>
<g id="layer122" fill="#36110a" stroke="none">
 <path d="M135 1952 c7 -80 45 -155 94 -187 35 -22 125 -48 149 -43 4 1 20 -4 35 -10 16 -7 34 -12 42 -12 7 0 26 -7 41 -15 16 -8 36 -15 45 -15 8 0 19 -4 25 -9 5 -5 36 -16 69 -26 33 -9 67 -23 76 -31 15 -13 17 -13 23 2 4 9 4 19 1 22 -3 3 -5 -1 -5 -8 0 -9 -7 -6 -21 8 -11 12 -24 20 -29 17 -5 -3 -33 5 -62 18 -84 38 -106 45 -231 77 -180 46 -186 50 -234 195 l-23 70 5 -53z"/>
 <path d="M565 1950 c-9 -28 -15 -53 -13 -56 3 -2 12 19 22 47 9 29 14 54 12 56 -2 2 -12 -19 -21 -47z"/>
 <path d="M791 1918 c-42 -152 -51 -193 -50 -228 1 -24 5 -13 14 35 7 39 24 106 38 150 37 118 39 125 30 125 -5 0 -19 -37 -32 -82z"/>
 <path d="M944 1947 c7 -29 16 -58 19 -64 4 -6 -4 -20 -18 -31 -14 -11 -25 -24 -25 -30 0 -14 68 -72 83 -72 7 0 28 16 47 35 l34 35 -26 27 c-24 26 -26 32 -18 73 16 81 17 80 -49 80 l-59 0 12 -53z"/>
 <path d="M1184 1968 c4 -20 18 -74 33 -119 14 -46 32 -114 39 -153 l14 -71 -5 60 c-3 33 -21 116 -40 184 -35 124 -54 169 -41 99z"/>
 <path d="M1411 2000 c-1 -9 35 -109 42 -116 4 -4 3 6 -2 22 -10 34 -39 102 -40 94z"/>
 <path d="M1856 1960 c-4 -25 -21 -72 -37 -105 -34 -71 -49 -79 -212 -119 -60 -14 -143 -40 -185 -57 -42 -18 -84 -32 -92 -33 -28 -4 -60 -31 -60 -51 1 -19 1 -19 14 -3 23 30 285 118 433 144 12 2 28 10 35 18 8 7 24 17 37 21 35 11 83 120 79 181 l-3 49 -9 -45z"/>
 </g>
<g id="layer123" fill="#0b0a0a" stroke="none">
 <path d="M940 1976 c0 -13 7 -42 14 -64 15 -40 14 -42 -11 -62 -24 -19 -25 -21 -9 -45 9 -13 27 -32 40 -41 28 -18 47 -11 86 30 l24 27 -28 25 c-19 19 -26 33 -22 48 3 11 8 40 12 64 l7 42 -57 0 c-52 0 -56 -2 -56 -24z"/>
 </g>

</svg>