<!DOCTYPE svg PUBLIC "-//W3C//DTD SVG 20010904//EN" "http://www.w3.org/TR/2001/REC-SVG-20010904/DTD/svg10.dtd">
<svg version="1.0" xmlns="http://www.w3.org/2000/svg" width="200px" height="200px" viewBox="0 0 2000 2000" preserveAspectRatio="xMidYMid meet">
<g id="layer101" fill="#fdfefa" stroke="none">
 <path d="M173 1952 c9 -80 46 -161 92 -206 40 -40 42 -44 48 -121 4 -45 16 -114 27 -154 18 -64 19 -79 8 -131 -9 -46 -9 -70 1 -114 12 -53 11 -61 -16 -139 -35 -105 -37 -199 -5 -271 13 -29 22 -69 22 -100 0 -83 26 -180 62 -238 19 -29 40 -80 47 -113 35 -161 48 -177 194 -252 l112 -57 101 -2 c56 0 106 -4 112 -8 6 -3 23 -1 39 5 15 6 57 11 93 10 56 -1 71 3 100 24 19 14 41 25 49 25 26 1 130 46 172 75 39 28 99 128 99 166 0 10 4 20 9 23 13 8 40 102 55 191 8 44 23 105 34 135 17 47 20 79 20 215 0 137 -4 172 -24 240 -17 61 -21 95 -17 142 3 34 1 75 -5 93 -9 24 -8 46 2 93 8 34 17 92 21 130 l7 67 48 25 c27 14 60 39 74 57 32 43 63 124 72 187 l7 51 -833 0 -833 0 6 -48z"/>
 </g>
<g id="layer102" fill="#e8dfdd" stroke="none">
 <path d="M173 1952 c9 -80 46 -161 92 -206 40 -40 42 -44 48 -121 4 -45 16 -114 27 -154 18 -64 19 -79 8 -131 -9 -46 -9 -70 1 -114 12 -53 11 -61 -16 -139 -35 -105 -37 -199 -5 -271 13 -29 22 -69 22 -100 0 -83 26 -180 62 -238 19 -29 40 -80 47 -113 35 -161 48 -177 194 -252 l112 -57 101 -2 c56 0 106 -4 112 -8 6 -3 23 -1 39 5 15 6 57 11 93 10 56 -1 71 3 100 24 19 14 41 25 49 25 26 1 130 46 172 75 39 28 99 128 99 166 0 10 4 20 9 23 13 8 40 102 55 191 8 44 23 105 34 135 17 47 20 79 20 215 0 137 -4 172 -24 240 -17 61 -21 95 -17 142 3 34 1 75 -5 93 -9 24 -8 46 2 93 8 34 17 92 21 130 l7 67 48 25 c27 14 60 39 74 57 32 43 63 124 72 187 l7 51 -833 0 -833 0 6 -48z m896 -711 c7 -5 10 -14 7 -20 -11 -17 -77 -13 -121 8 l-40 19 70 1 c39 0 76 -3 84 -8z m-268 -281 c86 -24 126 -127 77 -200 -30 -46 -88 -74 -133 -66 -47 9 -99 70 -114 133 -27 112 44 168 170 133z m483 -21 c31 -24 56 -69 56 -99 0 -30 -36 -96 -62 -114 -12 -9 -43 -16 -68 -16 -55 0 -84 18 -110 70 -24 47 -25 90 -4 131 18 37 43 48 110 48 38 1 58 -5 78 -20z"/>
 <path d="M728 849 c-21 -12 -23 -40 -6 -57 19 -19 76 -15 87 6 11 21 4 35 -26 51 -26 13 -33 13 -55 0z"/>
 <path d="M1168 849 c-24 -13 -23 -42 2 -64 17 -15 24 -16 45 -7 31 14 34 56 6 72 -24 12 -31 12 -53 -1z"/>
 </g>
<g id="layer103" fill="#f0d4cf" stroke="none">
 <path d="M173 1952 c9 -80 46 -161 92 -206 40 -40 42 -44 48 -121 4 -45 16 -114 27 -154 18 -64 19 -79 8 -131 -9 -46 -9 -70 1 -114 12 -53 11 -61 -16 -139 -35 -105 -37 -199 -5 -271 13 -29 22 -69 22 -100 0 -83 26 -180 62 -238 19 -29 40 -80 47 -113 35 -161 48 -177 194 -252 l112 -57 101 -2 c56 0 106 -4 112 -8 6 -3 23 -1 39 5 15 6 57 11 93 10 56 -1 71 3 100 24 19 14 41 25 49 25 26 1 130 46 172 75 39 28 99 128 99 166 0 10 4 20 9 23 13 8 40 102 55 191 8 44 23 105 34 135 17 47 20 79 20 215 0 137 -4 172 -24 240 -17 61 -21 95 -17 142 3 34 1 75 -5 93 -9 24 -8 46 2 93 8 34 17 92 21 130 l7 67 48 25 c27 14 60 39 74 57 32 43 63 124 72 187 l7 51 -833 0 -833 0 6 -48z m890 -709 c31 -8 12 -28 -30 -31 -23 -2 -58 4 -80 14 l-38 17 30 7 c28 7 78 4 118 -7z m-32 -153 c12 0 12 -37 0 -44 -5 -4 -12 -29 -16 -56 -4 -28 -10 -50 -15 -50 -9 0 -20 35 -20 70 0 14 -7 34 -15 44 -8 11 -15 23 -15 27 0 9 40 18 58 13 8 -2 18 -4 23 -4z m-218 -134 c100 -41 116 -157 34 -234 -87 -81 -220 7 -222 146 0 47 4 57 28 78 33 28 106 33 160 10z m475 -12 c49 -34 66 -109 37 -164 -25 -48 -62 -70 -117 -70 -43 0 -55 5 -83 33 -56 56 -60 156 -8 197 33 25 137 28 171 4z m-250 -342 c-4 -32 -41 -47 -63 -26 -19 20 -19 38 0 58 24 23 67 1 63 -32z"/>
 <path d="M721 836 c-16 -19 -3 -45 25 -52 45 -12 79 21 54 51 -16 19 -64 19 -79 1z"/>
 <path d="M1167 843 c-13 -12 -7 -54 8 -59 44 -17 84 23 53 54 -13 13 -50 16 -61 5z"/>
 </g>
<g id="layer104" fill="#dba8a1" stroke="none">
 <path d="M173 1952 c9 -80 46 -161 92 -206 40 -40 42 -44 48 -121 4 -45 16 -114 27 -154 18 -64 19 -79 8 -131 -9 -46 -9 -70 1 -114 12 -53 11 -61 -16 -139 -35 -105 -37 -199 -5 -271 13 -29 22 -69 22 -100 0 -83 26 -180 62 -238 19 -29 40 -80 47 -113 35 -161 48 -177 194 -252 l112 -57 101 -2 c56 0 106 -4 112 -8 6 -3 23 -1 39 5 15 6 57 11 93 10 56 -1 71 3 100 24 19 14 41 25 49 25 26 1 130 46 172 75 39 28 99 128 99 166 0 10 4 20 9 23 13 8 40 102 55 191 8 44 23 105 34 135 17 47 20 79 20 215 0 137 -4 172 -24 240 -17 61 -21 95 -17 142 3 34 1 75 -5 93 -9 24 -8 46 2 93 8 34 17 92 21 130 l7 67 48 25 c27 14 60 39 74 57 32 43 63 124 72 187 l7 51 -833 0 -833 0 6 -48z m841 -218 c10 -74 32 -109 96 -151 33 -21 61 -46 64 -55 5 -23 5 -23 -57 9 -74 38 -161 38 -235 -1 -30 -15 -57 -25 -60 -22 -9 9 37 54 84 81 46 27 71 69 80 139 4 25 10 46 14 46 4 0 10 -21 14 -46z m91 -303 c73 -34 160 -102 209 -160 20 -24 36 -46 36 -49 0 -4 7 -38 15 -76 8 -38 13 -71 11 -75 -2 -3 5 -47 15 -96 17 -78 18 -98 8 -149 -7 -32 -22 -70 -35 -85 -27 -31 -43 -22 -20 11 9 12 16 33 16 45 0 13 5 23 12 23 9 0 9 3 0 12 -7 7 -12 22 -12 34 0 11 -10 36 -23 55 -19 28 -21 42 -15 79 16 104 9 151 -32 230 -42 81 -53 70 -25 -24 18 -59 19 -120 4 -178 l-12 -43 -52 3 c-97 7 -146 -41 -144 -140 1 -102 40 -154 124 -166 l44 -7 -61 -70 c-60 -68 -108 -152 -108 -189 0 -15 -6 -13 -38 16 -22 20 -77 50 -132 71 -120 48 -197 100 -234 161 -16 25 -27 49 -24 52 3 3 22 -6 42 -20 71 -48 133 -44 205 14 36 29 37 33 39 98 3 87 -23 137 -88 170 -60 30 -146 31 -184 1 l-26 -20 0 25 c0 14 14 46 31 71 32 47 33 58 14 152 -6 25 -2 39 20 67 36 48 135 122 210 157 79 38 131 38 210 0z m-278 -480 c126 -57 77 -261 -62 -261 -50 0 -94 35 -122 96 -32 70 -28 127 12 161 33 29 112 31 172 4z m455 -2 c29 -15 58 -70 58 -107 0 -55 -27 -99 -75 -122 -96 -47 -185 20 -185 139 0 48 37 97 78 104 36 6 100 -1 124 -14z"/>
 <path d="M872 1321 c-14 -14 -9 -55 10 -78 35 -42 149 -66 201 -42 42 19 73 108 45 126 -7 4 -64 8 -127 8 -85 0 -118 -4 -129 -14z m202 -81 c16 -16 -10 -34 -47 -33 -18 0 -50 9 -72 18 -36 15 -38 18 -20 26 24 10 126 2 139 -11z"/>
 <path d="M958 1129 c-33 -19 -18 -29 42 -29 61 0 76 11 41 30 -25 13 -61 12 -83 -1z"/>
 <path d="M721 836 c-16 -19 -3 -45 25 -52 45 -12 79 21 54 51 -16 19 -64 19 -79 1z"/>
 <path d="M1164 836 c-12 -31 0 -51 30 -51 36 0 56 26 37 49 -17 20 -60 21 -67 2z"/>
 </g>
<g id="layer105" fill="#60bdd6" stroke="none">
 <path d="M173 1952 c9 -80 46 -161 92 -206 40 -40 42 -44 48 -121 4 -45 16 -114 27 -154 18 -64 19 -79 8 -131 -9 -46 -9 -70 1 -114 12 -53 11 -61 -16 -139 -35 -105 -37 -199 -5 -271 13 -29 22 -69 22 -100 0 -83 26 -180 62 -238 19 -29 40 -80 47 -113 35 -161 48 -177 194 -252 l112 -57 101 -2 c56 0 106 -4 112 -8 6 -3 23 -1 39 5 15 6 57 11 93 10 56 -1 71 3 100 24 19 14 41 25 49 25 26 1 130 46 172 75 39 28 99 128 99 166 0 10 4 20 9 23 13 8 40 102 55 191 8 44 23 105 34 135 17 47 20 79 20 215 0 137 -4 172 -24 240 -17 61 -21 95 -17 142 3 34 1 75 -5 93 -9 24 -8 46 2 93 8 34 17 92 21 130 l7 67 48 25 c27 14 60 39 74 57 32 43 63 124 72 187 l7 51 -833 0 -833 0 6 -48z m841 -221 c8 -64 39 -107 109 -155 54 -38 57 -42 57 -83 0 -42 -1 -43 -34 -43 -18 0 -50 7 -69 15 -43 18 -104 19 -144 4 -15 -6 -48 -14 -73 -18 l-45 -7 0 44 c0 43 3 47 50 79 86 59 105 83 118 151 6 34 14 62 18 62 4 0 9 -22 13 -49z m66 -284 c114 -47 227 -142 270 -227 22 -44 28 -67 26 -110 -2 -30 6 -95 17 -144 17 -77 18 -96 7 -143 -6 -29 -22 -66 -35 -81 -27 -32 -44 -24 -21 10 9 12 16 33 16 45 0 13 5 23 12 23 9 0 9 3 0 12 -7 7 -12 21 -12 33 0 11 -10 36 -23 54 -20 29 -22 41 -16 80 17 101 11 143 -30 226 -42 86 -55 76 -26 -20 20 -64 21 -108 5 -170 -12 -50 -13 -50 -49 -47 -63 6 -117 -14 -140 -52 -24 -38 -28 -107 -10 -166 13 -42 58 -74 123 -87 l37 -8 -62 -70 c-60 -67 -109 -151 -109 -188 0 -15 -7 -13 -40 15 -22 19 -81 51 -132 71 -153 61 -239 130 -254 205 l-7 33 30 -30 c33 -32 102 -56 140 -46 34 8 127 77 114 84 -6 4 -7 12 -1 21 33 52 -10 174 -73 207 -47 25 -168 25 -196 -1 -21 -19 -21 -19 -21 7 0 15 14 48 30 74 33 52 38 97 14 131 -20 29 -11 55 40 110 74 81 231 172 296 172 14 0 50 -11 80 -23z m-253 -496 c126 -57 77 -261 -62 -261 -50 0 -94 35 -122 96 -32 70 -28 127 12 161 33 29 112 31 172 4z m455 -2 c29 -15 58 -70 58 -107 0 -55 -27 -99 -75 -122 -96 -47 -185 20 -185 139 0 48 37 97 78 104 36 6 100 -1 124 -14z m38 -269 c-27 -39 -34 -39 -12 0 9 16 21 30 25 30 5 0 -1 -13 -13 -30z"/>
 <path d="M876 1325 c-20 -20 -20 -28 -1 -64 19 -38 89 -71 149 -71 39 0 53 5 76 29 33 33 48 77 33 100 -10 16 -52 19 -128 10 -16 -1 -49 1 -71 5 -32 6 -45 4 -58 -9z m198 -85 c16 -16 -10 -34 -47 -33 -18 0 -50 9 -72 18 -36 15 -38 18 -20 26 24 10 126 2 139 -11z"/>
 <path d="M721 836 c-16 -19 -3 -45 25 -52 45 -12 79 21 54 51 -16 19 -64 19 -79 1z"/>
 <path d="M1164 836 c-12 -31 0 -51 30 -51 36 0 56 26 37 49 -17 20 -60 21 -67 2z"/>
 </g>
<g id="layer106" fill="#a99d9a" stroke="none">
 <path d="M173 1952 c9 -80 46 -161 92 -206 40 -40 42 -44 48 -121 4 -45 16 -114 27 -154 18 -64 19 -79 8 -131 -9 -46 -9 -70 1 -114 12 -53 11 -61 -16 -139 -35 -105 -37 -199 -5 -271 13 -29 22 -69 22 -100 0 -83 26 -180 62 -238 19 -29 40 -80 47 -113 35 -161 48 -177 194 -252 l112 -57 101 -2 c56 0 106 -4 112 -8 6 -3 23 -1 39 5 15 6 57 11 93 10 56 -1 71 3 100 24 19 14 41 25 49 25 26 1 130 46 172 75 39 28 99 128 99 166 0 10 4 20 9 23 13 8 40 102 55 191 8 44 23 105 34 135 17 47 20 79 20 215 0 137 -4 172 -24 240 -17 61 -21 95 -17 142 3 34 1 75 -5 93 -9 24 -8 46 2 93 8 34 17 92 21 130 l7 67 48 25 c27 14 60 39 74 57 32 43 63 124 72 187 l7 51 -833 0 -833 0 6 -48z m841 -221 c8 -64 39 -107 109 -155 54 -38 57 -42 57 -83 0 -42 -1 -43 -34 -43 -18 0 -50 7 -69 15 -43 18 -104 19 -144 4 -15 -6 -48 -14 -73 -18 l-45 -7 0 44 c0 43 3 47 50 79 86 59 105 83 118 151 6 34 14 62 18 62 4 0 9 -22 13 -49z m66 -284 c114 -47 227 -142 270 -227 22 -44 28 -67 26 -110 -2 -30 6 -95 17 -144 17 -77 18 -96 7 -143 -6 -29 -22 -66 -35 -81 -27 -32 -44 -24 -21 10 9 12 16 33 16 45 0 13 5 23 12 23 9 0 9 3 0 12 -7 7 -12 21 -12 33 0 11 -10 36 -23 54 -20 29 -22 41 -16 80 17 101 11 143 -30 226 -42 86 -55 76 -26 -20 20 -64 21 -108 5 -170 -12 -50 -13 -50 -49 -47 -63 6 -117 -14 -140 -52 -24 -38 -28 -107 -10 -166 13 -42 58 -74 123 -87 l37 -8 -62 -70 c-60 -67 -109 -151 -109 -188 0 -15 -7 -13 -40 15 -22 19 -81 51 -132 71 -153 61 -239 130 -254 205 l-7 33 30 -30 c33 -32 102 -56 140 -46 34 8 127 77 114 84 -6 4 -7 12 -1 21 33 52 -10 174 -73 207 -47 25 -168 25 -196 -1 -21 -19 -21 -19 -21 7 0 15 14 48 30 74 33 52 38 97 14 131 -20 29 -11 55 40 110 74 81 231 172 296 172 14 0 50 -11 80 -23z m-253 -496 c126 -57 77 -261 -62 -261 -50 0 -94 35 -122 96 -32 70 -28 127 12 161 33 29 112 31 172 4z m455 -2 c29 -15 58 -70 58 -107 0 -55 -27 -99 -75 -122 -96 -47 -185 20 -185 139 0 48 37 97 78 104 36 6 100 -1 124 -14z m38 -269 c-27 -39 -34 -39 -12 0 9 16 21 30 25 30 5 0 -1 -13 -13 -30z"/>
 <path d="M876 1325 c-20 -20 -20 -28 -1 -64 19 -38 89 -71 149 -71 39 0 53 5 76 29 33 33 48 77 33 100 -10 16 -52 19 -128 10 -16 -1 -49 1 -71 5 -32 6 -45 4 -58 -9z m198 -85 c16 -16 -10 -34 -47 -33 -18 0 -50 9 -72 18 -36 15 -38 18 -20 26 24 10 126 2 139 -11z"/>
 </g>
<g id="layer107" fill="#c0847b" stroke="none">
 <path d="M173 1952 c9 -80 46 -161 92 -206 40 -40 42 -44 48 -121 4 -45 16 -114 27 -154 18 -64 19 -79 8 -131 -9 -46 -9 -70 1 -114 12 -53 11 -61 -16 -139 -35 -105 -37 -199 -5 -271 13 -29 22 -69 22 -100 0 -83 26 -180 62 -238 19 -29 40 -80 47 -113 35 -161 48 -177 194 -252 l112 -57 101 -2 c56 0 106 -4 112 -8 6 -3 23 -1 39 5 15 6 57 11 93 10 56 -1 71 3 100 24 19 14 41 25 49 25 26 1 130 46 172 75 39 28 99 128 99 166 0 10 4 20 9 23 13 8 40 102 55 191 8 44 23 105 34 135 17 47 20 79 20 215 0 137 -4 172 -24 240 -17 61 -21 95 -17 142 3 34 1 75 -5 93 -9 24 -8 46 2 93 8 34 17 92 21 130 l7 67 48 25 c27 14 60 39 74 57 32 43 63 124 72 187 l7 51 -833 0 -833 0 6 -48z m843 -223 c9 -65 37 -105 107 -152 55 -36 57 -39 57 -82 0 -44 0 -45 -34 -45 -18 0 -50 7 -69 15 -43 18 -104 19 -144 4 -15 -6 -48 -14 -73 -18 l-45 -7 0 45 c0 44 2 46 60 86 73 50 101 90 110 155 4 28 11 50 16 50 4 0 11 -23 15 -51z m64 -282 c114 -47 227 -142 270 -227 21 -42 28 -70 28 -119 1 -35 9 -99 18 -143 14 -67 15 -87 5 -134 -13 -55 -53 -116 -67 -101 -4 4 0 21 9 36 27 46 23 123 -9 161 -26 30 -26 33 -15 87 19 95 14 131 -26 210 -20 40 -39 70 -42 68 -2 -3 6 -43 19 -89 22 -83 22 -86 5 -148 l-17 -63 -64 0 c-59 0 -67 -3 -96 -33 -31 -30 -33 -37 -33 -100 0 -40 6 -79 15 -96 19 -37 70 -68 115 -69 19 -1 35 -4 35 -7 0 -4 -27 -38 -60 -75 -58 -65 -110 -156 -110 -190 0 -12 -10 -8 -39 17 -22 18 -68 44 -103 57 -192 74 -290 156 -287 238 1 15 3 21 6 13 2 -8 20 -27 40 -42 33 -26 67 -34 118 -29 26 2 133 73 119 78 -8 3 -9 15 -2 43 15 56 2 105 -38 149 -53 60 -147 78 -217 42 l-37 -19 0 24 c0 13 14 45 30 71 33 52 38 97 14 131 -20 29 -11 55 40 110 74 81 231 172 296 172 14 0 50 -11 80 -23z m-250 -495 c127 -61 76 -262 -67 -262 -99 0 -177 146 -128 240 26 50 114 60 195 22z m477 -25 c101 -110 -36 -285 -163 -208 -55 34 -81 126 -55 194 15 38 63 58 130 54 47 -3 59 -9 88 -40z m33 -225 c0 -5 -14 -21 -31 -38 l-31 -29 24 37 c22 35 38 48 38 30z m-116 -137 c-35 -43 -44 -51 -44 -40 0 6 71 85 77 85 2 0 -12 -20 -33 -45z"/>
 <path d="M1046 1333 c-4 -5 -44 -8 -88 -8 -65 0 -83 -3 -92 -17 -8 -13 -6 -23 10 -45 30 -39 74 -63 131 -69 61 -6 92 10 117 59 25 53 11 87 -37 87 -19 0 -37 -3 -41 -7z m27 -92 c9 -10 8 -15 -7 -27 -27 -19 -53 -17 -106 7 -35 16 -41 22 -30 30 20 13 127 6 143 -10z"/>
 </g>
<g id="layer108" fill="#b4534f" stroke="none">
 <path d="M183 1943 c10 -91 35 -152 82 -197 40 -40 42 -44 48 -121 4 -45 16 -114 27 -154 18 -64 19 -79 8 -131 -9 -46 -9 -70 1 -114 12 -53 11 -61 -16 -139 -35 -105 -37 -199 -5 -271 13 -29 22 -69 22 -100 0 -83 26 -180 62 -238 19 -29 40 -80 47 -113 35 -161 48 -177 194 -252 l112 -57 101 -2 c56 0 106 -4 112 -8 6 -3 23 -1 39 5 15 6 57 11 93 10 56 -1 71 3 100 24 19 14 41 25 49 25 26 1 130 46 172 75 39 28 99 128 99 166 0 10 4 20 9 23 13 8 40 102 55 191 8 44 23 105 34 135 17 47 20 79 20 215 0 137 -4 172 -24 240 -17 61 -21 95 -17 142 3 34 1 75 -5 93 -9 24 -8 46 2 93 8 34 17 92 21 130 l7 67 48 25 c80 41 124 117 137 237 l6 58 -823 0 -823 0 6 -57z m833 -214 c9 -65 37 -105 107 -152 43 -28 57 -43 57 -62 0 -13 5 -46 12 -74 10 -44 19 -57 62 -91 96 -74 126 -130 126 -239 0 -44 7 -114 17 -156 14 -64 14 -84 4 -130 -13 -56 -53 -117 -67 -102 -4 4 0 21 9 36 27 46 23 123 -9 161 -26 30 -26 33 -15 87 19 95 14 131 -26 210 -20 40 -39 70 -42 68 -2 -3 6 -43 19 -89 22 -83 22 -86 5 -148 l-17 -63 -64 0 c-59 0 -67 -3 -96 -33 -31 -30 -33 -37 -33 -100 0 -40 6 -79 15 -96 19 -37 70 -68 115 -69 19 -1 35 -4 35 -7 0 -4 -27 -38 -60 -75 -58 -65 -110 -156 -110 -190 0 -12 -10 -8 -39 17 -22 18 -68 44 -103 57 -192 74 -290 156 -287 238 1 15 3 21 6 13 2 -8 20 -27 40 -42 33 -26 67 -34 118 -29 26 2 133 73 119 78 -8 3 -9 15 -2 43 15 56 2 105 -38 149 -53 60 -147 78 -217 42 l-37 -19 0 24 c0 13 14 45 30 71 35 55 38 100 9 137 -12 16 -18 33 -14 45 7 22 76 97 123 132 30 23 34 32 40 95 l7 69 60 40 c73 50 101 90 110 155 4 28 11 50 16 50 4 0 11 -23 15 -51z m-186 -777 c127 -61 76 -262 -67 -262 -99 0 -177 146 -128 240 26 50 114 60 195 22z m477 -25 c101 -110 -36 -285 -163 -208 -55 34 -81 126 -55 194 15 38 63 58 130 54 47 -3 59 -9 88 -40z m33 -225 c0 -5 -14 -21 -31 -38 l-31 -29 24 37 c22 35 38 48 38 30z m-116 -137 c-35 -43 -44 -51 -44 -40 0 6 71 85 77 85 2 0 -12 -20 -33 -45z"/>
 <path d="M1046 1333 c-4 -5 -44 -8 -88 -8 -65 0 -83 -3 -92 -17 -8 -13 -6 -23 10 -45 30 -39 74 -63 131 -69 61 -6 92 10 117 59 25 53 11 87 -37 87 -19 0 -37 -3 -41 -7z m71 -26 c3 -4 -18 -7 -48 -6 -39 0 -48 3 -34 9 22 9 71 7 82 -3z m-44 -66 c9 -10 8 -15 -7 -27 -27 -19 -53 -17 -106 7 -35 16 -41 22 -30 30 20 13 127 6 143 -10z"/>
 </g>
<g id="layer109" fill="#706461" stroke="none">
 <path d="M183 1943 c10 -91 35 -152 82 -197 40 -40 42 -44 48 -121 4 -45 16 -114 27 -154 18 -64 19 -79 8 -131 -9 -46 -9 -70 1 -114 12 -53 11 -61 -16 -139 -35 -105 -37 -199 -5 -271 13 -29 22 -69 22 -100 0 -83 26 -180 62 -238 19 -29 40 -80 47 -113 35 -161 48 -177 194 -252 l112 -57 101 -2 c56 0 106 -4 112 -8 6 -3 23 -1 39 5 15 6 57 11 93 10 56 -1 71 3 100 24 19 14 41 25 49 25 26 1 130 46 172 75 39 28 99 128 99 166 0 10 4 20 9 23 13 8 40 102 55 191 8 44 23 105 34 135 17 47 20 79 20 215 0 137 -4 172 -24 240 -17 61 -21 95 -17 142 3 34 1 75 -5 93 -9 24 -8 46 2 93 8 34 17 92 21 130 l7 67 48 25 c80 41 124 117 137 237 l6 58 -823 0 -823 0 6 -57z m833 -214 c9 -65 37 -105 107 -152 43 -28 57 -43 57 -62 0 -13 5 -46 12 -74 10 -44 19 -57 62 -91 96 -74 126 -130 126 -239 0 -44 7 -114 17 -156 14 -64 14 -84 4 -130 -13 -56 -53 -117 -67 -102 -4 4 0 21 9 36 27 46 23 123 -9 161 -26 30 -26 33 -15 87 19 95 14 131 -26 210 -20 40 -39 70 -42 68 -2 -3 6 -43 19 -89 22 -83 22 -86 5 -148 l-17 -63 -64 0 c-59 0 -67 -3 -96 -33 -31 -30 -33 -37 -33 -100 0 -40 6 -79 15 -96 19 -37 70 -68 115 -69 19 -1 35 -4 35 -7 0 -4 -27 -38 -60 -75 -58 -65 -110 -156 -110 -190 0 -12 -10 -8 -39 17 -22 18 -68 44 -103 57 -192 74 -290 156 -287 238 1 15 3 21 6 13 2 -8 20 -27 40 -42 33 -26 67 -34 118 -29 26 2 133 73 119 78 -8 3 -9 15 -2 43 15 56 2 105 -38 149 -53 60 -147 78 -217 42 l-37 -19 0 24 c0 13 14 45 30 71 35 55 38 100 9 137 -12 16 -18 33 -14 45 7 22 76 97 123 132 30 23 34 32 40 95 l7 69 60 40 c73 50 101 90 110 155 4 28 11 50 16 50 4 0 11 -23 15 -51z m-186 -777 c127 -61 76 -262 -67 -262 -99 0 -177 146 -128 240 26 50 114 60 195 22z m477 -25 c101 -110 -36 -285 -163 -208 -55 34 -81 126 -55 194 15 38 63 58 130 54 47 -3 59 -9 88 -40z m33 -225 c0 -5 -14 -21 -31 -38 l-31 -29 24 37 c22 35 38 48 38 30z m-116 -137 c-35 -43 -44 -51 -44 -40 0 6 71 85 77 85 2 0 -12 -20 -33 -45z"/>
 <path d="M1046 1333 c-4 -5 -44 -8 -88 -8 -65 0 -83 -3 -92 -17 -8 -13 -6 -23 10 -45 30 -39 74 -63 131 -69 61 -6 92 10 117 59 25 53 11 87 -37 87 -19 0 -37 -3 -41 -7z m71 -20 c6 -18 -38 -26 -78 -15 l-34 9 35 11 c43 13 72 11 77 -5z m-44 -72 c9 -10 8 -15 -7 -27 -27 -19 -53 -17 -106 7 -35 16 -41 22 -30 30 20 13 127 6 143 -10z"/>
 </g>
<g id="layer110" fill="#6b443d" stroke="none">
 <path d="M183 1943 c10 -91 35 -152 82 -197 40 -40 42 -44 48 -121 4 -45 16 -114 27 -154 18 -64 19 -79 8 -131 -9 -46 -9 -70 1 -114 12 -53 11 -61 -16 -139 -35 -105 -37 -199 -5 -271 13 -29 22 -69 22 -100 0 -83 26 -180 62 -238 19 -29 40 -80 47 -113 35 -161 48 -177 194 -252 l112 -57 101 -2 c56 0 106 -4 112 -8 6 -3 23 -1 39 5 15 6 57 11 93 10 56 -1 71 3 100 24 19 14 41 25 49 25 26 1 130 46 172 75 39 28 99 128 99 166 0 10 4 20 9 23 13 8 40 102 55 191 8 44 23 105 34 135 17 47 20 79 20 215 0 137 -4 172 -24 240 -17 61 -21 95 -17 142 3 34 1 75 -5 93 -9 24 -8 46 2 93 8 34 17 92 21 130 l7 67 48 25 c80 41 122 113 136 235 l7 60 -823 0 -823 0 6 -57z m831 -179 c3 -9 6 -30 6 -48 0 -41 34 -93 80 -123 71 -45 80 -54 80 -78 0 -13 5 -46 12 -74 10 -44 19 -57 62 -91 97 -74 126 -130 126 -241 0 -46 7 -112 16 -147 31 -122 7 -190 -116 -332 -31 -36 -71 -85 -88 -109 -18 -24 -32 -40 -32 -35 0 17 37 69 99 138 34 38 64 81 68 95 3 14 13 36 21 49 22 34 12 125 -18 157 -22 24 -23 26 -10 99 15 89 8 133 -32 200 -33 56 -33 51 -8 -66 11 -49 10 -65 -5 -115 l-17 -58 -63 0 c-53 0 -68 -4 -89 -24 -34 -32 -50 -84 -42 -137 12 -88 58 -135 132 -137 19 -1 34 -4 34 -8 0 -4 -27 -38 -60 -76 -61 -69 -110 -155 -110 -193 0 -18 -4 -17 -35 14 -30 31 -112 76 -136 76 -23 0 -145 68 -185 103 -49 43 -63 65 -75 114 -9 42 -1 42 32 0 31 -38 106 -62 147 -46 37 14 117 72 105 76 -7 3 -8 16 0 44 13 52 -3 107 -44 154 -50 57 -183 71 -230 24 -34 -34 -28 30 8 84 36 57 41 101 14 138 -13 18 -20 37 -16 48 7 22 76 97 123 132 30 23 34 32 40 95 l7 69 60 40 c70 48 105 95 105 141 0 37 8 64 20 64 4 0 11 -7 14 -16z m-222 -794 c52 -15 96 -55 109 -100 10 -33 9 -47 -5 -84 -25 -65 -66 -96 -126 -96 -38 0 -55 6 -80 26 -43 37 -70 94 -70 149 0 58 13 83 53 100 39 17 70 18 119 5z m488 -15 c58 -30 80 -118 46 -183 -23 -44 -71 -72 -124 -72 -36 0 -50 6 -77 33 -70 70 -66 197 8 227 35 14 115 11 147 -5z m242 -332 c-16 -21 -40 -47 -53 -58 -13 -11 -1 6 25 38 54 63 75 78 28 20z"/>
 <path d="M1035 1329 c-16 -5 -58 -6 -91 -3 -57 6 -63 5 -74 -16 -24 -45 49 -106 136 -115 l49 -5 -44 11 c-56 14 -96 38 -82 52 12 12 138 4 152 -10 7 -7 6 -15 -6 -27 -22 -22 -3 -21 24 2 26 21 41 70 30 100 -9 24 -39 28 -94 11z m82 -16 c6 -18 -38 -26 -78 -15 l-34 9 35 11 c43 13 72 11 77 -5z"/>
 </g>
<g id="layer111" fill="#504644" stroke="none">
 <path d="M180 1985 c0 -9 7 -51 16 -93 17 -85 41 -132 83 -161 26 -19 29 -27 34 -103 4 -46 16 -116 27 -156 18 -65 19 -80 8 -132 -9 -46 -9 -70 1 -114 12 -53 11 -61 -16 -139 -35 -105 -37 -199 -5 -271 13 -29 22 -69 22 -100 0 -83 26 -180 62 -238 19 -29 40 -80 47 -113 35 -161 48 -177 194 -252 l112 -57 101 -2 c56 0 106 -4 112 -8 6 -3 23 -1 39 5 15 6 57 11 93 10 56 -1 71 3 100 24 19 14 41 25 49 25 26 1 130 46 172 75 39 28 99 128 99 166 0 10 4 20 9 23 13 8 40 102 55 191 8 44 23 105 34 135 17 47 20 79 20 215 0 137 -4 172 -24 240 -17 61 -21 95 -17 142 3 34 1 75 -5 93 -9 24 -8 46 2 93 8 34 17 92 21 130 l7 67 49 25 c82 42 112 98 134 248 l7 47 -821 0 c-733 0 -821 -2 -821 -15z m834 -221 c3 -9 6 -30 6 -48 0 -41 34 -93 80 -123 83 -53 87 -57 93 -128 4 -55 9 -69 28 -83 53 -37 119 -106 139 -146 15 -32 20 -62 20 -126 0 -46 7 -113 16 -148 31 -122 7 -190 -116 -332 -31 -36 -71 -85 -88 -109 -18 -24 -32 -40 -32 -35 0 17 37 69 99 138 34 38 64 81 68 95 3 14 13 36 21 49 22 34 12 125 -18 157 -22 24 -23 26 -10 99 15 89 8 133 -32 200 -33 56 -33 51 -8 -66 11 -49 10 -65 -5 -115 l-17 -58 -63 0 c-53 0 -68 -4 -89 -24 -34 -32 -50 -84 -42 -137 12 -88 58 -135 132 -137 19 -1 34 -4 34 -8 0 -4 -27 -38 -60 -76 -61 -69 -110 -155 -110 -193 0 -18 -4 -17 -35 14 -30 31 -112 76 -136 76 -23 0 -145 68 -185 103 -49 43 -63 65 -75 114 -9 42 -1 42 32 0 31 -38 106 -62 147 -46 37 14 117 72 105 76 -7 3 -8 16 0 44 13 52 -3 107 -44 154 -50 57 -183 71 -230 24 -34 -34 -28 30 8 84 36 56 41 102 14 137 -11 16 -21 37 -21 46 0 10 37 53 82 96 l81 79 6 62 6 62 60 40 c70 48 105 95 105 141 0 37 8 64 20 64 4 0 11 -7 14 -16z m-222 -794 c52 -15 96 -55 109 -100 10 -33 9 -47 -5 -84 -25 -65 -66 -96 -126 -96 -38 0 -55 6 -80 26 -43 37 -70 94 -70 149 0 58 13 83 53 100 39 17 70 18 119 5z m488 -15 c58 -30 80 -118 46 -183 -23 -44 -71 -72 -124 -72 -36 0 -50 6 -77 33 -70 70 -66 197 8 227 35 14 115 11 147 -5z m242 -332 c-16 -21 -40 -47 -53 -58 -13 -11 -1 6 25 38 54 63 75 78 28 20z"/>
 <path d="M1035 1329 c-16 -5 -58 -6 -91 -3 -57 6 -63 5 -74 -16 -24 -45 49 -106 136 -115 l49 -5 -44 11 c-56 14 -96 38 -82 52 12 12 138 4 152 -10 7 -7 6 -15 -6 -27 -22 -22 -3 -21 24 2 26 21 41 70 30 100 -9 24 -39 28 -94 11z m80 -19 c0 -18 -26 -24 -72 -15 -36 6 -35 19 2 28 36 9 70 3 70 -13z"/>
 </g>
<g id="layer112" fill="#2e3746" stroke="none">
 <path d="M180 1985 c0 -9 7 -51 16 -93 17 -85 41 -132 83 -161 26 -19 29 -27 34 -103 4 -46 16 -116 27 -156 18 -65 19 -80 8 -132 -9 -46 -9 -70 1 -114 12 -53 11 -61 -16 -139 -35 -105 -37 -199 -5 -271 13 -29 22 -69 22 -100 0 -83 26 -180 62 -238 19 -29 40 -80 47 -113 35 -161 48 -177 194 -252 l112 -57 101 -2 c56 0 106 -4 112 -8 6 -3 23 -1 39 5 15 6 57 11 93 10 56 -1 71 3 100 24 19 14 41 25 49 25 26 1 130 46 172 75 39 28 99 128 99 166 0 10 4 20 9 23 13 8 40 102 55 191 8 44 23 105 34 135 17 47 20 79 20 215 0 137 -4 172 -24 240 -17 61 -21 95 -17 142 3 34 1 75 -5 93 -9 24 -8 46 2 93 8 34 17 92 21 130 l7 67 49 25 c82 42 112 98 134 248 l7 47 -140 0 -139 0 -7 -47 c-7 -41 -23 -275 -29 -398 -1 -28 9 -63 36 -119 42 -89 45 -114 18 -188 -41 -110 -38 -151 25 -311 31 -80 36 -100 31 -152 -9 -120 -73 -214 -224 -328 -48 -37 -110 -95 -138 -129 -27 -35 -64 -77 -82 -95 -17 -18 -27 -33 -21 -33 42 0 235 167 328 284 24 30 46 53 49 51 2 -3 -10 -34 -28 -69 -21 -42 -51 -82 -89 -117 -31 -29 -46 -47 -33 -40 40 22 111 92 136 136 13 22 29 64 35 93 14 61 35 84 24 25 -19 -108 -82 -230 -150 -293 -49 -45 -154 -100 -194 -101 -14 0 -34 -5 -45 -10 -14 -6 1 -8 50 -6 78 4 131 26 205 85 l45 36 -34 -36 c-66 -71 -236 -134 -338 -126 -30 3 -48 1 -41 -3 7 -5 38 -9 68 -9 39 0 51 -3 40 -10 -8 -5 -36 -7 -62 -4 -33 5 -60 1 -88 -10 -52 -21 -86 -21 -47 0 35 19 35 27 0 12 -42 -17 -191 -14 -233 4 -35 15 -34 15 60 16 56 1 114 7 140 16 25 9 32 13 15 10 -16 -3 -74 -5 -130 -5 -165 1 -277 41 -321 117 -13 22 -24 44 -24 48 0 5 25 -15 55 -42 33 -30 78 -59 113 -73 64 -25 194 -36 257 -22 33 8 24 9 -55 10 -156 1 -268 55 -345 168 -36 51 -39 61 -46 155 -10 125 -8 121 -76 262 -69 145 -72 189 -25 343 41 132 47 186 30 260 -10 42 -11 70 -5 89 6 19 4 64 -8 144 -20 129 -24 255 -12 350 l8 62 -101 0 c-83 0 -100 -3 -100 -15z"/>
 <path d="M406 1984 c-12 -31 -6 -328 8 -386 9 -39 11 -74 5 -110 -6 -33 -4 -77 2 -117 15 -82 7 -168 -27 -326 l-28 -126 48 -91 c44 -84 49 -101 57 -192 12 -121 31 -167 95 -227 99 -91 197 -130 328 -128 l81 1 -89 14 c-152 23 -287 104 -346 207 -29 50 -30 56 -28 152 3 96 1 104 -35 191 -20 51 -37 105 -37 122 0 17 14 64 30 105 36 90 36 103 9 210 -18 70 -21 98 -15 188 5 92 3 116 -15 175 -22 71 -22 104 -3 292 6 58 5 62 -14 62 -11 0 -23 -7 -26 -16z"/>
 <path d="M485 1988 c-9 -30 -12 -251 -4 -344 5 -56 18 -131 29 -168 20 -64 20 -69 5 -125 -15 -53 -15 -62 0 -112 15 -50 15 -61 -1 -150 -15 -90 -15 -100 0 -145 11 -33 16 -82 16 -162 0 -138 8 -159 95 -241 100 -93 224 -152 314 -150 33 0 30 2 -31 24 -161 56 -296 161 -333 258 -18 46 -18 52 -1 121 17 71 17 75 -3 134 -25 74 -26 94 -5 156 12 35 14 62 9 99 -8 54 -9 112 -4 207 4 84 -21 279 -42 333 -21 52 -24 112 -10 167 5 19 12 52 16 73 6 35 4 37 -20 37 -14 0 -27 -6 -30 -12z"/>
 <path d="M575 1878 c4 -68 9 -177 10 -243 2 -66 6 -143 10 -170 5 -35 2 -67 -8 -103 -9 -29 -15 -58 -13 -65 2 -7 14 -44 27 -83 l23 -71 -22 -60 c-22 -59 -28 -116 -16 -147 3 -9 9 -14 13 -12 3 2 6 -22 6 -54 1 -32 -2 -57 -6 -55 -3 3 -9 -19 -12 -47 -5 -40 -2 -62 14 -97 38 -86 85 -121 264 -193 129 -52 194 -91 196 -117 0 -9 9 10 19 41 21 67 47 111 107 181 25 29 53 68 63 88 l19 36 -52 -5 c-43 -3 -57 0 -81 19 -34 26 -65 91 -66 134 0 39 33 93 66 105 37 15 111 12 143 -4 78 -41 89 -149 24 -219 -20 -21 -23 -28 -10 -24 15 6 16 4 6 -14 -6 -11 -34 -49 -64 -83 -70 -83 -84 -112 -95 -203 -11 -82 -7 -113 5 -41 11 63 17 72 140 198 163 167 175 197 151 383 -9 65 -16 162 -16 215 0 91 -2 101 -36 170 -45 91 -46 123 -10 235 l29 87 -27 88 c-20 64 -27 111 -28 170 l0 82 -390 0 -390 0 7 -122z m440 -125 c15 -72 28 -104 51 -133 14 -16 31 -30 38 -30 6 0 28 -13 47 -30 33 -27 37 -34 42 -95 4 -55 9 -69 28 -83 50 -35 103 -89 131 -131 25 -40 28 -54 28 -130 0 -48 7 -111 15 -141 34 -128 11 -206 -97 -331 -36 -41 -81 -96 -101 -122 -20 -27 -37 -44 -37 -39 0 15 49 84 95 132 23 25 50 60 59 78 9 17 23 45 31 61 24 46 19 112 -11 156 -25 37 -25 38 -13 126 l13 87 -34 68 c-18 38 -36 62 -38 55 -2 -7 1 -17 7 -20 6 -4 9 -16 5 -27 -4 -14 -3 -15 4 -5 7 10 14 2 27 -32 15 -40 16 -53 3 -126 -10 -60 -16 -78 -26 -73 -10 7 -9 18 3 58 16 54 18 108 5 139 -6 13 -7 4 -3 -26 3 -28 -1 -67 -10 -100 l-16 -54 -65 0 c-54 0 -68 -4 -90 -24 -50 -47 -58 -127 -20 -206 20 -42 68 -68 122 -67 l33 1 -18 -23 c-10 -13 -46 -58 -80 -100 -35 -43 -63 -83 -63 -89 0 -7 -5 -29 -11 -50 l-10 -37 -29 28 c-16 16 -73 48 -127 72 -127 55 -158 74 -216 129 -44 43 -67 88 -67 135 0 14 8 8 30 -22 23 -32 41 -44 81 -56 47 -14 53 -14 87 3 55 28 87 62 90 96 l2 30 -14 -30 c-28 -62 -96 -100 -157 -88 -31 6 -94 69 -109 109 -18 47 -12 121 13 149 56 66 214 29 253 -59 7 -17 13 -25 14 -18 0 20 -26 65 -52 88 -48 45 -175 52 -218 12 -19 -18 -21 -18 -27 -2 -4 11 7 43 30 85 42 76 46 105 17 142 -11 14 -20 33 -20 43 0 10 37 53 82 96 81 78 81 80 86 136 5 63 19 85 72 112 63 33 82 64 105 173 3 15 10 27 15 27 5 0 12 -12 15 -27z"/>
 <path d="M1045 1330 c-14 -6 -7 -8 25 -7 34 2 45 -2 45 -13 0 -8 -8 -16 -18 -18 -27 -5 -88 8 -83 17 5 7 -70 21 -116 21 -25 0 -41 -35 -28 -59 14 -27 60 -58 96 -66 26 -5 25 -4 -9 12 -20 10 -36 22 -34 28 6 15 143 13 159 -3 11 -11 10 -16 -6 -28 -11 -8 -15 -14 -9 -14 21 0 53 35 62 67 16 56 -26 88 -84 63z"/>
 <path d="M1430 1998 c-1 -2 -5 -88 -10 -193 -7 -140 -14 -210 -30 -265 -25 -90 -21 -118 27 -214 38 -76 42 -105 29 -221 -7 -57 -4 -86 13 -156 12 -48 21 -102 21 -121 0 -52 -42 -125 -124 -215 -101 -110 -141 -182 -159 -283 -6 -32 -4 -29 24 22 47 86 117 167 197 229 40 30 83 71 96 90 48 70 57 154 30 254 -9 33 -23 82 -30 110 -12 43 -12 62 2 143 18 104 16 119 -27 208 -36 73 -37 97 -14 184 14 53 16 89 11 190 -3 69 -2 151 2 183 l9 57 -34 0 c-18 0 -33 -1 -33 -2z"/>
 </g>
<g id="layer113" fill="#3c2e2c" stroke="none">
 <path d="M180 1985 c0 -9 7 -51 16 -93 17 -85 41 -132 83 -161 26 -19 29 -27 34 -103 4 -46 16 -116 27 -156 18 -65 19 -80 8 -132 -9 -46 -9 -70 1 -114 12 -53 11 -61 -16 -139 -35 -105 -37 -199 -5 -271 13 -29 22 -69 22 -100 0 -83 26 -180 62 -238 19 -29 40 -80 47 -113 35 -161 48 -177 194 -252 l112 -57 101 -2 c56 0 106 -4 112 -8 6 -3 23 -1 39 5 15 6 57 11 93 10 56 -1 71 3 100 24 19 14 41 25 49 25 26 1 130 46 172 75 39 28 99 128 99 166 0 10 4 20 9 23 13 8 40 102 55 191 8 44 23 105 34 135 17 47 20 79 20 215 0 137 -4 172 -24 240 -17 61 -21 95 -17 142 3 34 1 75 -5 93 -9 24 -8 46 2 93 8 34 17 92 21 130 l7 67 49 25 c82 42 112 98 134 248 l7 47 -140 0 -139 0 -7 -47 c-7 -41 -23 -275 -29 -398 -1 -28 9 -63 36 -119 42 -89 45 -114 18 -188 -41 -110 -38 -151 25 -311 31 -80 36 -100 31 -152 -9 -120 -73 -214 -224 -328 -48 -37 -110 -95 -138 -129 -27 -35 -64 -77 -82 -95 -17 -18 -27 -33 -21 -33 42 0 235 167 328 284 24 30 46 53 49 51 2 -3 -10 -34 -28 -69 -21 -42 -51 -82 -89 -117 -31 -29 -46 -47 -33 -40 40 22 111 92 136 136 13 22 29 64 35 93 14 61 35 84 24 25 -19 -108 -82 -230 -150 -293 -49 -45 -154 -100 -194 -101 -14 0 -34 -5 -45 -10 -14 -6 1 -8 50 -6 78 4 131 26 205 85 l45 36 -34 -36 c-66 -71 -236 -134 -338 -126 -30 3 -48 1 -41 -3 7 -5 38 -9 68 -9 39 0 51 -3 40 -10 -8 -5 -36 -7 -62 -4 -33 5 -60 1 -88 -10 -52 -21 -86 -21 -47 0 35 19 35 27 0 12 -42 -17 -191 -14 -233 4 -35 15 -34 15 60 16 56 1 114 7 140 16 25 9 32 13 15 10 -16 -3 -74 -5 -130 -5 -165 1 -277 41 -321 117 -13 22 -24 44 -24 48 0 5 25 -15 55 -42 33 -30 78 -59 113 -73 64 -25 194 -36 257 -22 33 8 24 9 -55 10 -156 1 -268 55 -345 168 -36 51 -39 61 -46 155 -10 125 -8 121 -76 262 -69 145 -72 189 -25 343 41 132 47 186 30 260 -10 42 -11 70 -5 89 6 19 4 64 -8 144 -20 129 -24 255 -12 350 l8 62 -101 0 c-83 0 -100 -3 -100 -15z m102 -189 c21 -25 35 -47 30 -50 -24 -14 -93 94 -106 164 -5 28 -2 25 15 -18 12 -29 39 -72 61 -96z m1489 43 c-10 -24 -28 -54 -39 -65 -29 -30 -90 -66 -104 -62 -6 2 5 14 25 27 48 29 103 95 119 140 7 21 13 29 15 20 2 -8 -5 -35 -16 -60z"/>
 <path d="M406 1984 c-12 -31 -6 -328 8 -386 9 -39 11 -74 5 -110 -6 -33 -4 -77 2 -117 15 -82 7 -168 -27 -326 l-28 -126 48 -91 c44 -84 49 -101 57 -192 12 -121 31 -167 95 -227 99 -91 197 -130 328 -128 l81 1 -89 14 c-152 23 -287 104 -346 207 -29 50 -30 56 -28 152 3 96 1 104 -35 191 -20 51 -37 105 -37 122 0 17 14 64 30 105 36 90 36 103 9 210 -18 70 -21 98 -15 188 5 92 3 116 -15 175 -22 71 -22 104 -3 292 6 58 5 62 -14 62 -11 0 -23 -7 -26 -16z"/>
 <path d="M485 1988 c-9 -30 -12 -251 -4 -344 5 -56 18 -131 29 -168 20 -64 20 -69 5 -125 -15 -53 -15 -62 0 -112 15 -50 15 -61 -1 -150 -15 -90 -15 -100 0 -145 11 -33 16 -82 16 -162 0 -138 8 -159 95 -241 100 -93 224 -152 314 -150 33 0 30 2 -31 24 -161 56 -296 161 -333 258 -18 46 -18 52 -1 121 17 71 17 75 -3 134 -25 74 -26 94 -5 156 12 35 14 62 9 99 -8 54 -9 112 -4 207 4 84 -21 279 -42 333 -21 52 -24 112 -10 167 5 19 12 52 16 73 6 35 4 37 -20 37 -14 0 -27 -6 -30 -12z"/>
 <path d="M575 1878 c4 -68 9 -177 10 -243 2 -66 6 -143 10 -170 5 -35 2 -67 -8 -103 -9 -29 -15 -58 -13 -65 2 -7 14 -44 27 -83 l23 -71 -22 -60 c-22 -59 -28 -116 -16 -147 3 -9 9 -14 13 -12 3 2 6 -22 6 -54 1 -32 -2 -57 -6 -55 -3 3 -9 -19 -12 -47 -5 -40 -2 -62 14 -97 38 -86 85 -121 264 -193 129 -52 194 -91 196 -117 0 -9 9 10 19 41 21 67 47 111 107 181 25 29 53 68 63 88 l19 36 -52 -5 c-43 -3 -57 0 -81 19 -34 26 -65 91 -66 134 0 39 33 93 66 105 37 15 111 12 143 -4 78 -41 89 -149 24 -219 -20 -21 -23 -28 -10 -24 15 6 16 4 6 -14 -6 -11 -34 -49 -64 -83 -70 -83 -84 -112 -95 -203 -11 -82 -7 -113 5 -41 11 63 17 72 140 198 163 167 175 197 151 383 -9 65 -16 162 -16 215 0 91 -2 101 -36 170 -45 91 -46 123 -10 235 l29 87 -27 88 c-20 64 -27 111 -28 170 l0 82 -390 0 -390 0 7 -122z m140 -125 c-30 -55 -85 -123 -85 -106 0 7 12 24 26 40 14 15 37 49 52 75 14 26 28 45 30 43 2 -2 -8 -25 -23 -52z m613 -46 c8 -9 13 -20 10 -23 -7 -6 -37 36 -62 83 -25 51 -19 53 11 3 14 -25 33 -53 41 -63z m-313 46 c15 -72 28 -104 51 -133 14 -16 31 -30 38 -30 6 0 28 -13 47 -30 33 -27 37 -34 42 -95 4 -55 9 -69 28 -83 50 -35 103 -89 131 -131 25 -40 28 -54 28 -130 0 -48 7 -111 15 -141 34 -128 11 -206 -97 -331 -36 -41 -81 -96 -101 -122 -20 -27 -37 -44 -37 -39 0 15 49 84 95 132 23 25 50 60 59 78 9 17 23 45 31 61 24 46 19 112 -11 156 -25 37 -25 38 -13 126 l13 87 -34 68 c-18 38 -36 62 -38 55 -2 -7 1 -17 7 -20 6 -4 9 -16 5 -27 -4 -14 -3 -15 4 -5 7 10 14 2 27 -32 15 -40 16 -53 3 -126 -10 -60 -16 -78 -26 -73 -10 7 -9 18 3 58 16 54 18 108 5 139 -6 13 -7 4 -3 -26 3 -28 -1 -67 -10 -100 l-16 -54 -65 0 c-54 0 -68 -4 -90 -24 -50 -47 -58 -127 -20 -206 20 -42 68 -68 122 -67 l33 1 -18 -23 c-10 -13 -46 -58 -80 -100 -35 -43 -63 -83 -63 -89 0 -7 -5 -29 -11 -50 l-10 -37 -29 28 c-16 16 -73 48 -127 72 -127 55 -158 74 -216 129 -44 43 -67 88 -67 135 0 14 8 8 30 -22 23 -32 41 -44 81 -56 47 -14 53 -14 87 3 55 28 87 62 90 96 l2 30 -14 -30 c-28 -62 -96 -100 -157 -88 -31 6 -94 69 -109 109 -18 47 -12 121 13 149 56 66 214 29 253 -59 7 -17 13 -25 14 -18 0 20 -26 65 -52 88 -48 45 -175 52 -218 12 -19 -18 -21 -18 -27 -2 -4 11 7 43 30 85 42 76 46 105 17 142 -11 14 -20 33 -20 43 0 10 37 53 82 96 81 78 81 80 86 136 5 63 19 85 72 112 63 33 82 64 105 173 3 15 10 27 15 27 5 0 12 -12 15 -27z m-355 -133 c10 -5 29 -25 41 -42 l23 -33 -30 28 c-16 15 -38 34 -49 42 -23 16 -13 20 15 5z m649 -42 c-18 -18 -27 -24 -19 -13 27 38 43 55 48 50 3 -2 -10 -19 -29 -37z"/>
 <path d="M1045 1330 c-14 -6 -7 -8 25 -7 34 2 45 -2 45 -13 0 -8 -8 -16 -18 -18 -27 -5 -88 8 -83 17 5 7 -70 21 -116 21 -25 0 -41 -35 -28 -59 14 -27 60 -58 96 -66 26 -5 25 -4 -9 12 -20 10 -36 22 -34 28 6 15 143 13 159 -3 11 -11 10 -16 -6 -28 -11 -8 -15 -14 -9 -14 21 0 53 35 62 67 16 56 -26 88 -84 63z"/>
 <path d="M1430 1998 c-1 -2 -5 -88 -10 -193 -7 -140 -14 -210 -30 -265 -25 -90 -21 -118 27 -214 38 -76 42 -105 29 -221 -7 -57 -4 -86 13 -156 12 -48 21 -102 21 -121 0 -52 -42 -125 -124 -215 -101 -110 -141 -182 -159 -283 -6 -32 -4 -29 24 22 47 86 117 167 197 229 40 30 83 71 96 90 48 70 57 154 30 254 -9 33 -23 82 -30 110 -12 43 -12 62 2 143 18 104 16 119 -27 208 -36 73 -37 97 -14 184 14 53 16 89 11 190 -3 69 -2 151 2 183 l9 57 -34 0 c-18 0 -33 -1 -33 -2z"/>
 </g>
<g id="layer114" fill="#681f1f" stroke="none">
 <path d="M180 1990 c0 -5 5 -10 11 -10 7 0 8 -11 4 -29 -8 -35 20 -144 46 -182 21 -31 68 -63 77 -54 3 3 -8 20 -26 36 -37 35 -77 108 -86 159 -5 29 -2 26 15 -17 22 -54 87 -139 98 -128 3 4 7 30 7 58 1 29 4 80 8 115 l6 62 -80 0 c-47 0 -80 -4 -80 -10z"/>
 <path d="M619 1953 c-1 -27 0 -52 2 -58 1 -5 2 -23 2 -40 0 -16 3 -32 7 -35 4 -3 3 -34 -3 -70 -5 -36 -10 -132 -11 -215 -1 -82 -7 -171 -14 -196 -13 -53 -7 -82 34 -156 l29 -53 -32 -59 c-22 -40 -33 -72 -32 -98 l1 -38 8 42 c5 23 21 60 36 83 36 54 34 92 -6 157 -35 56 -35 58 -11 196 4 26 4 73 -1 104 -5 31 -8 65 -6 75 3 17 5 17 26 3 21 -15 22 -23 23 -158 l2 -142 8 110 c12 158 12 158 37 102 12 -27 22 -61 23 -75 0 -15 4 -36 9 -47 7 -16 9 -13 9 16 1 30 4 35 24 35 19 -1 22 5 25 44 4 53 10 61 83 111 63 42 89 89 89 160 0 33 3 40 17 37 13 -2 20 -18 25 -56 8 -56 29 -106 50 -118 10 -6 10 -4 3 7 -5 8 -1 5 10 -6 11 -12 36 -32 55 -45 47 -32 50 -37 50 -92 0 -41 3 -48 19 -48 11 0 22 -8 24 -17 4 -15 5 -15 6 2 1 11 8 29 16 39 15 20 15 20 16 0 1 -10 5 3 9 29 8 43 36 94 47 83 2 -2 -3 -21 -11 -41 -27 -64 -21 -116 26 -208 40 -79 41 -85 40 -170 -1 -51 5 -117 14 -159 10 -41 15 -97 12 -134 -3 -42 -1 -59 5 -48 5 9 6 53 3 97 -4 45 -10 145 -14 222 -7 137 -8 141 -44 207 -45 78 -48 125 -18 213 20 59 25 126 14 184 -4 17 -11 28 -16 25 -5 -3 -6 6 -2 22 5 19 4 25 -5 20 -9 -6 -10 0 -5 20 5 20 4 25 -6 19 -9 -5 -10 -2 -5 14 3 11 2 21 -3 21 -6 0 -8 9 -5 20 3 12 0 20 -6 20 -7 0 -11 8 -10 18 1 9 -1 29 -5 45 l-8 27 -329 0 -329 0 -1 -47z m205 -162 c-7 -7 -64 59 -63 74 0 6 15 -8 34 -29 19 -22 32 -42 29 -45z m406 59 c-6 -11 -16 -20 -22 -20 -6 0 -3 9 7 20 10 11 20 20 22 20 2 0 -1 -9 -7 -20z m-100 -9 c0 -10 -6 -21 -14 -24 -11 -4 -11 -1 -2 19 13 29 16 30 16 5z m-408 -77 c-11 -22 -36 -59 -55 -84 l-36 -44 28 -17 c15 -9 35 -29 46 -45 17 -27 15 -26 -23 9 -23 20 -47 37 -52 37 -12 0 -13 37 -1 44 5 3 7 14 4 25 -4 14 0 18 18 17 12 0 24 5 27 13 3 9 0 11 -9 6 -8 -5 -11 -4 -6 1 5 5 14 9 19 9 6 0 13 6 16 14 3 9 0 11 -8 6 -7 -4 -4 4 5 19 9 14 22 23 28 19 7 -4 8 0 3 13 -5 14 -4 16 4 8 9 -9 7 -21 -8 -50z m551 39 c-4 -10 -2 -14 5 -9 6 3 14 1 18 -5 5 -8 3 -9 -6 -4 -8 5 -11 3 -8 -6 3 -8 10 -14 16 -14 5 0 14 -4 19 -9 5 -5 2 -6 -6 -1 -9 5 -12 3 -9 -6 3 -8 9 -14 14 -14 20 0 34 -18 34 -42 0 -25 -1 -25 -19 -9 -26 23 -73 114 -66 126 10 16 15 12 8 -7z m75 -196 c-1 -1 -19 -15 -38 -32 -20 -17 -28 -21 -20 -10 30 43 55 66 58 55 2 -6 2 -12 0 -13z"/>
 <path d="M1606 1984 c-8 -20 -5 -227 4 -324 6 -69 12 -73 14 -10 1 20 12 31 53 53 29 16 65 43 79 62 30 39 58 146 49 187 -4 17 -2 28 4 28 6 0 11 5 11 10 0 6 -41 10 -104 10 -85 0 -105 -3 -110 -16z m166 -145 c-21 -49 -62 -93 -105 -116 -44 -22 -55 -10 -14 16 48 29 103 95 119 140 7 21 13 29 15 20 2 -8 -5 -35 -15 -60z"/>
 <path d="M423 1855 c0 -22 2 -30 4 -17 2 12 2 30 0 40 -3 9 -5 -1 -4 -23z"/>
 <path d="M1422 1755 c-2 -81 -9 -145 -22 -195 -28 -106 -25 -131 21 -232 l40 -88 -6 -112 c-6 -98 -4 -124 15 -198 31 -121 15 -182 -78 -284 l-46 -51 48 45 c56 52 92 110 101 161 4 23 -1 79 -15 150 -19 95 -20 121 -11 167 19 96 14 132 -29 217 -45 89 -50 134 -25 233 11 42 15 96 12 183 l-3 124 -2 -120z"/>
 <path d="M411 1763 c0 -24 8 -77 20 -119 14 -53 19 -90 15 -119 -11 -73 -7 -198 9 -255 21 -78 19 -104 -16 -204 -35 -100 -34 -114 14 -221 28 -62 32 -84 37 -186 5 -107 7 -119 35 -164 17 -26 50 -64 75 -83 l45 -36 -41 40 c-22 21 -54 59 -70 83 -28 43 -29 49 -27 148 3 100 1 107 -38 204 -45 112 -45 124 -4 224 30 73 31 118 5 219 -16 64 -18 96 -13 185 5 88 3 117 -12 161 -10 30 -21 79 -25 110 -7 52 -7 53 -9 13z"/>
 <path d="M1526 1685 c-16 -149 -14 -174 24 -254 39 -84 40 -111 10 -201 -29 -86 -23 -159 24 -272 47 -113 52 -152 31 -224 -23 -82 -59 -139 -129 -209 -63 -61 -50 -59 17 4 24 23 37 30 38 21 0 -8 5 -1 10 15 4 17 20 42 34 57 14 15 25 29 24 30 -3 4 22 81 30 93 10 15 5 127 -6 155 -6 14 -21 48 -33 75 -33 76 -42 141 -29 203 6 29 14 50 17 48 7 -4 13 34 15 99 2 47 -4 77 -17 87 -6 4 -4 14 5 25 12 16 12 17 -2 6 -12 -10 -18 -8 -31 15 -28 48 -38 102 -27 146 6 23 9 68 7 101 l-3 60 -9 -80z"/>
 <path d="M319 1625 c-3 -11 1 -45 8 -75 8 -30 15 -64 17 -75 2 -11 8 -33 15 -48 10 -26 7 -67 -7 -91 -7 -13 -6 -106 2 -113 3 -4 6 18 6 48 0 66 15 96 25 51 8 -37 -4 -122 -17 -122 -5 0 -6 -5 -3 -10 6 -9 -28 -128 -43 -155 -13 -22 -18 -122 -7 -147 4 -9 4 -21 1 -27 -4 -5 -2 -12 4 -16 6 -4 8 -11 5 -16 -4 -5 -1 -9 5 -9 6 0 9 -4 6 -9 -3 -5 1 -14 9 -21 8 -7 13 -16 10 -20 -2 -4 5 -18 17 -31 41 -47 71 -130 76 -213 3 -56 2 -77 -6 -72 -6 4 -5 -6 3 -21 8 -15 15 -35 15 -43 0 -8 5 -22 11 -30 9 -12 10 -11 4 5 -4 11 -11 74 -15 139 -8 119 -8 119 -66 235 -76 151 -80 199 -34 346 48 150 49 208 10 346 -18 63 -36 137 -39 164 -4 30 -9 42 -12 30z"/>
 <path d="M547 1540 c7 -132 7 -168 -2 -223 -5 -32 -3 -68 5 -104 11 -45 11 -63 0 -101 -23 -83 -23 -103 1 -179 20 -65 21 -79 11 -119 -7 -24 -11 -63 -11 -87 2 -41 2 -40 9 13 5 30 11 74 15 96 6 31 2 59 -15 109 l-22 67 21 73 c21 70 21 75 6 135 -14 52 -14 71 -4 113 7 31 9 70 4 106 -4 31 -11 88 -15 126 -6 59 -7 55 -3 -25z"/>
 <path d="M1045 1330 c-13 -5 -14 -9 -5 -9 8 0 24 4 35 9 13 5 14 9 5 9 -8 0 -24 -4 -35 -9z"/>
 <path d="M871 1312 c-14 -27 7 -63 54 -89 22 -13 47 -23 55 -23 8 0 -4 9 -28 20 -24 11 -41 24 -37 30 10 15 138 12 160 -4 17 -12 18 -16 5 -32 -14 -17 -14 -17 11 0 28 17 39 43 39 86 -1 22 -2 23 -11 8 -5 -10 -20 -18 -33 -18 -38 0 -86 12 -81 20 4 7 -65 20 -106 20 -10 0 -23 -8 -28 -18z"/>
 <path d="M1615 1150 c3 -14 8 -47 12 -74 5 -38 8 -45 14 -29 4 12 0 41 -12 74 -11 30 -17 43 -14 29z"/>
 <path d="M692 989 c-18 -4 -42 -15 -52 -24 -20 -18 -46 -92 -36 -102 2 -3 9 13 15 34 17 62 41 78 121 78 77 0 107 -16 148 -75 25 -38 29 -33 7 10 -30 59 -124 96 -203 79z"/>
 <path d="M1298 975 c-3 -15 1 -30 10 -37 13 -11 14 -11 7 2 -5 8 -8 25 -6 38 3 30 -5 28 -11 -3z"/>
 <path d="M1135 971 c-39 -17 -75 -64 -62 -78 4 -3 7 1 7 9 0 9 14 28 31 42 25 22 41 26 89 26 70 0 88 14 21 17 -28 2 -62 -4 -86 -16z"/>
 <path d="M1341 882 c15 -46 3 -96 -33 -137 -17 -20 -23 -33 -14 -29 32 12 11 -29 -48 -96 l-31 -35 33 30 c37 33 77 93 69 101 -3 3 6 22 19 41 28 41 32 108 9 139 -13 17 -14 16 -4 -14z"/>
 <path d="M1062 850 c0 -19 2 -27 5 -17 2 9 2 25 0 35 -3 9 -5 1 -5 -18z"/>
 <path d="M612 785 c-1 -79 20 -135 65 -176 l27 -24 -28 35 c-37 45 -56 91 -56 132 l1 33 19 -36 c24 -46 37 -56 94 -73 43 -13 49 -12 88 8 43 21 88 76 88 105 -1 9 -7 2 -14 -14 -7 -17 -28 -43 -45 -58 -84 -71 -189 -26 -226 96 l-12 42 -1 -70z"/>
 <path d="M1071 802 c-1 -19 24 -64 46 -84 11 -10 35 -20 54 -23 33 -5 33 -5 5 4 -37 13 -74 48 -91 86 -7 17 -14 24 -14 17z"/>
 <path d="M1376 748 l-18 -33 21 25 c18 22 26 40 18 40 -1 0 -11 -15 -21 -32z"/>
 <path d="M358 685 c-4 -16 -2 -35 4 -42 5 -6 8 -20 6 -30 -1 -10 1 -23 5 -30 4 -6 8 -23 9 -37 1 -14 5 -26 9 -26 3 0 11 -12 18 -26 18 -41 23 -22 5 21 -9 22 -24 75 -33 119 -15 68 -19 76 -23 51z"/>
 <path d="M1220 658 c-15 -21 -17 -28 -6 -19 16 13 41 51 33 51 -2 0 -14 -15 -27 -32z"/>
 <path d="M1159 583 l-34 -38 38 34 c34 33 42 41 34 41 -2 0 -19 -17 -38 -37z"/>
 <path d="M1573 536 c-20 -96 -76 -201 -140 -263 -46 -45 -51 -53 -25 -38 19 11 48 36 65 55 17 19 35 35 41 35 5 0 10 11 11 23 1 13 6 27 11 30 5 4 11 16 12 27 2 11 7 22 10 25 4 3 8 12 8 20 1 8 8 43 17 78 8 34 11 62 8 62 -4 0 -12 -24 -18 -54z"/>
 <path d="M1503 461 c-28 -58 -29 -63 -7 -36 22 28 50 93 42 99 -1 2 -17 -27 -35 -63z"/>
 <path d="M1485 274 c-25 -47 -67 -81 -140 -115 -33 -16 -55 -28 -48 -29 24 0 168 74 168 87 1 4 11 24 23 43 20 31 27 50 19 50 -1 0 -11 -16 -22 -36z"/>
 <path d="M490 268 c0 -29 56 -106 73 -100 4 1 7 -2 7 -8 0 -5 9 -10 20 -10 11 0 20 -5 20 -11 0 -5 4 -8 9 -4 5 3 12 1 16 -5 4 -6 10 -8 15 -5 5 3 13 -3 19 -12 6 -10 11 -12 11 -6 0 9 25 11 98 8 l97 -4 -91 9 c-142 14 -233 55 -275 124 -10 17 -19 28 -19 24z"/>
 <path d="M1201 100 c-18 -15 -38 -20 -90 -20 -36 0 -71 -4 -78 -8 -6 -4 23 -7 65 -7 65 0 81 3 101 22 14 12 28 20 33 17 4 -3 8 0 8 5 0 16 -12 13 -39 -9z"/>
 <path d="M696 99 c15 -25 211 -55 231 -36 3 4 -25 7 -63 7 -40 1 -91 8 -121 19 -29 10 -50 14 -47 10z"/>
 </g>
<g id="layer115" fill="#182228" stroke="none">
 <path d="M180 1990 c0 -5 5 -10 11 -10 7 0 8 -11 4 -29 -8 -35 20 -144 46 -182 21 -31 68 -63 77 -54 3 3 -8 20 -26 36 -37 35 -77 108 -86 159 -5 29 -2 26 15 -17 22 -54 87 -139 98 -128 3 4 7 30 7 58 1 29 4 80 8 115 l6 62 -80 0 c-47 0 -80 -4 -80 -10z"/>
 <path d="M619 1953 c-1 -27 0 -52 2 -58 1 -5 2 -23 2 -40 0 -16 3 -32 7 -35 4 -3 3 -34 -3 -70 -5 -36 -10 -132 -11 -215 -1 -82 -7 -171 -14 -196 -13 -53 -7 -82 34 -156 l29 -53 -32 -59 c-22 -40 -33 -72 -32 -98 l1 -38 8 42 c5 23 21 60 36 83 36 54 34 92 -6 157 -35 56 -35 58 -11 196 4 26 4 73 -1 104 -5 31 -8 65 -6 75 3 17 5 17 26 3 21 -15 22 -23 23 -158 l2 -142 8 110 c12 158 12 158 37 102 12 -27 22 -61 23 -75 0 -15 4 -36 9 -47 7 -16 9 -13 9 16 1 30 4 35 24 35 19 -1 22 5 25 44 4 53 10 61 83 111 63 42 89 89 89 160 0 33 3 40 17 37 13 -2 20 -18 25 -56 8 -56 29 -106 50 -118 10 -6 10 -4 3 7 -5 8 -1 5 10 -6 11 -12 36 -32 55 -45 47 -32 50 -37 50 -92 0 -41 3 -48 19 -48 11 0 22 -8 24 -17 4 -15 5 -15 6 2 1 11 8 29 16 39 15 20 15 20 16 0 1 -10 5 3 9 29 8 43 36 94 47 83 2 -2 -3 -21 -11 -41 -27 -64 -21 -116 26 -208 40 -79 41 -85 40 -170 -1 -51 5 -117 14 -159 10 -41 15 -97 12 -134 -3 -42 -1 -59 5 -48 5 9 6 53 3 97 -4 45 -10 145 -14 222 -7 137 -8 141 -44 207 -45 78 -48 125 -18 213 20 59 25 126 14 184 -4 17 -11 28 -16 25 -5 -3 -6 6 -2 22 5 19 4 25 -5 20 -9 -6 -10 0 -5 20 5 20 4 25 -6 19 -9 -5 -10 -2 -5 14 3 11 2 21 -3 21 -6 0 -8 9 -5 20 3 12 0 20 -6 20 -7 0 -11 8 -10 18 1 9 -1 29 -5 45 l-8 27 -329 0 -329 0 -1 -47z m205 -162 c-7 -7 -64 59 -63 74 0 6 15 -8 34 -29 19 -22 32 -42 29 -45z m406 59 c-6 -11 -16 -20 -22 -20 -6 0 -3 9 7 20 10 11 20 20 22 20 2 0 -1 -9 -7 -20z m-100 -9 c0 -10 -6 -21 -14 -24 -11 -4 -11 -1 -2 19 13 29 16 30 16 5z m-408 -77 c-11 -22 -36 -59 -55 -84 l-36 -44 28 -17 c15 -9 35 -29 46 -45 17 -27 15 -26 -23 9 -23 20 -47 37 -52 37 -12 0 -13 37 -1 44 5 3 7 14 4 25 -4 14 0 18 18 17 12 0 24 5 27 13 3 9 0 11 -9 6 -8 -5 -11 -4 -6 1 5 5 14 9 19 9 6 0 13 6 16 14 3 9 0 11 -8 6 -7 -4 -4 4 5 19 9 14 22 23 28 19 7 -4 8 0 3 13 -5 14 -4 16 4 8 9 -9 7 -21 -8 -50z m551 39 c-4 -10 -2 -14 5 -9 6 3 14 1 18 -5 5 -8 3 -9 -6 -4 -8 5 -11 3 -8 -6 3 -8 10 -14 16 -14 5 0 14 -4 19 -9 5 -5 2 -6 -6 -1 -9 5 -12 3 -9 -6 3 -8 9 -14 14 -14 20 0 34 -18 34 -42 0 -25 -1 -25 -19 -9 -26 23 -73 114 -66 126 10 16 15 12 8 -7z m75 -196 c-1 -1 -19 -15 -38 -32 -20 -17 -28 -21 -20 -10 30 43 55 66 58 55 2 -6 2 -12 0 -13z"/>
 <path d="M1606 1984 c-8 -20 -5 -227 4 -324 6 -69 12 -73 14 -10 1 20 12 31 53 53 29 16 65 43 79 62 30 39 58 146 49 187 -4 17 -2 28 4 28 6 0 11 5 11 10 0 6 -41 10 -104 10 -85 0 -105 -3 -110 -16z m166 -145 c-21 -49 -62 -93 -105 -116 -44 -22 -55 -10 -14 16 48 29 103 95 119 140 7 21 13 29 15 20 2 -8 -5 -35 -15 -60z"/>
 <path d="M423 1855 c0 -22 2 -30 4 -17 2 12 2 30 0 40 -3 9 -5 -1 -4 -23z"/>
 <path d="M1422 1755 c-2 -81 -9 -145 -22 -195 -28 -106 -25 -131 21 -232 l40 -88 -6 -112 c-6 -98 -4 -124 15 -198 31 -121 15 -182 -78 -284 l-46 -51 48 45 c56 52 92 110 101 161 4 23 -1 79 -15 150 -19 95 -20 121 -11 167 19 96 14 132 -29 217 -45 89 -50 134 -25 233 11 42 15 96 12 183 l-3 124 -2 -120z"/>
 <path d="M411 1763 c0 -24 8 -77 20 -119 14 -53 19 -90 15 -119 -11 -73 -7 -198 9 -255 21 -78 19 -104 -16 -204 -35 -100 -34 -114 14 -221 28 -62 32 -84 37 -186 5 -107 7 -119 35 -164 17 -26 50 -64 75 -83 l45 -36 -41 40 c-22 21 -54 59 -70 83 -28 43 -29 49 -27 148 3 100 1 107 -38 204 -45 112 -45 124 -4 224 30 73 31 118 5 219 -16 64 -18 96 -13 185 5 88 3 117 -12 161 -10 30 -21 79 -25 110 -7 52 -7 53 -9 13z"/>
 <path d="M1526 1685 c-16 -149 -14 -174 24 -254 39 -84 40 -111 10 -201 -29 -86 -23 -159 24 -272 47 -113 52 -152 31 -224 -23 -82 -59 -139 -129 -209 -63 -61 -50 -59 17 4 24 23 37 30 38 21 0 -8 5 -1 10 15 4 17 20 42 34 57 14 15 25 29 24 30 -3 4 22 81 30 93 10 15 5 127 -6 155 -6 14 -21 48 -33 75 -33 76 -42 141 -29 203 6 29 14 50 17 48 7 -4 13 34 15 99 2 47 -4 77 -17 87 -6 4 -4 14 5 25 12 16 12 17 -2 6 -12 -10 -18 -8 -31 15 -28 48 -38 102 -27 146 6 23 9 68 7 101 l-3 60 -9 -80z"/>
 <path d="M319 1625 c-3 -11 1 -45 8 -75 8 -30 15 -64 17 -75 2 -11 8 -33 15 -48 10 -26 7 -67 -7 -91 -7 -13 -6 -106 2 -113 3 -4 6 18 6 48 0 66 15 96 25 51 8 -37 -4 -122 -17 -122 -5 0 -6 -5 -3 -10 6 -9 -28 -128 -43 -155 -13 -22 -18 -122 -7 -147 4 -9 4 -21 1 -27 -4 -5 -2 -12 4 -16 6 -4 8 -11 5 -16 -4 -5 -1 -9 5 -9 6 0 9 -4 6 -9 -3 -5 1 -14 9 -21 8 -7 13 -16 10 -20 -2 -4 5 -18 17 -31 41 -47 71 -130 76 -213 3 -56 2 -77 -6 -72 -6 4 -5 -6 3 -21 8 -15 15 -35 15 -43 0 -8 5 -22 11 -30 9 -12 10 -11 4 5 -4 11 -11 74 -15 139 -8 119 -8 119 -66 235 -76 151 -80 199 -34 346 48 150 49 208 10 346 -18 63 -36 137 -39 164 -4 30 -9 42 -12 30z"/>
 <path d="M547 1540 c7 -132 7 -168 -2 -223 -5 -32 -3 -68 5 -104 11 -45 11 -63 0 -101 -23 -83 -23 -103 1 -179 20 -65 21 -79 11 -119 -7 -24 -11 -63 -11 -87 2 -41 2 -40 9 13 5 30 11 74 15 96 6 31 2 59 -15 109 l-22 67 21 73 c21 70 21 75 6 135 -14 52 -14 71 -4 113 7 31 9 70 4 106 -4 31 -11 88 -15 126 -6 59 -7 55 -3 -25z"/>
 <path d="M871 1312 c-14 -27 7 -63 54 -89 22 -13 47 -23 55 -23 8 0 -4 9 -28 20 -24 11 -41 24 -37 30 10 15 138 12 160 -4 17 -12 18 -16 5 -32 -14 -17 -14 -17 11 0 28 18 39 44 38 86 -1 17 -3 19 -6 8 -3 -13 -15 -18 -41 -18 -48 0 -83 10 -76 21 3 5 -7 9 -23 9 l-27 0 24 -17 c13 -9 48 -19 77 -21 34 -3 52 -9 50 -16 -3 -6 -11 -9 -18 -6 -8 3 -57 5 -109 6 -94 0 -95 1 -95 25 0 20 6 25 35 30 l35 6 -37 2 c-27 1 -40 -4 -47 -17z"/>
 <path d="M1615 1150 c3 -14 8 -47 12 -74 5 -38 8 -45 14 -29 4 12 0 41 -12 74 -11 30 -17 43 -14 29z"/>
 <path d="M692 989 c-18 -4 -42 -15 -52 -24 -20 -18 -46 -92 -36 -102 2 -3 9 13 15 34 17 62 41 78 121 78 77 0 107 -16 148 -75 25 -38 29 -33 7 10 -30 59 -124 96 -203 79z"/>
 <path d="M1298 975 c-3 -15 1 -30 10 -37 13 -11 14 -11 7 2 -5 8 -8 25 -6 38 3 30 -5 28 -11 -3z"/>
 <path d="M1135 971 c-39 -17 -75 -64 -62 -78 4 -3 7 1 7 9 0 9 14 28 31 42 25 22 41 26 89 26 70 0 88 14 21 17 -28 2 -62 -4 -86 -16z"/>
 <path d="M1341 882 c15 -46 3 -96 -33 -137 -17 -20 -23 -33 -14 -29 32 12 11 -29 -48 -96 l-31 -35 33 30 c37 33 77 93 69 101 -3 3 6 22 19 41 28 41 32 108 9 139 -13 17 -14 16 -4 -14z"/>
 <path d="M1062 850 c0 -19 2 -27 5 -17 2 9 2 25 0 35 -3 9 -5 1 -5 -18z"/>
 <path d="M612 785 c-1 -79 20 -135 65 -176 l27 -24 -28 35 c-37 45 -56 91 -56 132 l1 33 19 -36 c24 -46 37 -56 94 -73 43 -13 49 -12 88 8 43 21 88 76 88 105 -1 9 -7 2 -14 -14 -7 -17 -28 -43 -45 -58 -84 -71 -189 -26 -226 96 l-12 42 -1 -70z"/>
 <path d="M1071 802 c-1 -19 24 -64 46 -84 11 -10 35 -20 54 -23 33 -5 33 -5 5 4 -37 13 -74 48 -91 86 -7 17 -14 24 -14 17z"/>
 <path d="M1376 748 l-18 -33 21 25 c18 22 26 40 18 40 -1 0 -11 -15 -21 -32z"/>
 <path d="M358 685 c-4 -16 -2 -35 4 -42 5 -6 8 -20 6 -30 -1 -10 1 -23 5 -30 4 -6 8 -23 9 -37 1 -14 5 -26 9 -26 3 0 11 -12 18 -26 18 -41 23 -22 5 21 -9 22 -24 75 -33 119 -15 68 -19 76 -23 51z"/>
 <path d="M1220 658 c-15 -21 -17 -28 -6 -19 16 13 41 51 33 51 -2 0 -14 -15 -27 -32z"/>
 <path d="M1159 583 l-34 -38 38 34 c34 33 42 41 34 41 -2 0 -19 -17 -38 -37z"/>
 <path d="M1573 536 c-20 -96 -76 -201 -140 -263 -46 -45 -51 -53 -25 -38 19 11 48 36 65 55 17 19 35 35 41 35 5 0 10 11 11 23 1 13 6 27 11 30 5 4 11 16 12 27 2 11 7 22 10 25 4 3 8 12 8 20 1 8 8 43 17 78 8 34 11 62 8 62 -4 0 -12 -24 -18 -54z"/>
 <path d="M1503 461 c-28 -58 -29 -63 -7 -36 22 28 50 93 42 99 -1 2 -17 -27 -35 -63z"/>
 <path d="M1485 274 c-25 -47 -67 -81 -140 -115 -33 -16 -55 -28 -48 -29 24 0 168 74 168 87 1 4 11 24 23 43 20 31 27 50 19 50 -1 0 -11 -16 -22 -36z"/>
 <path d="M490 268 c0 -29 56 -106 73 -100 4 1 7 -2 7 -8 0 -5 9 -10 20 -10 11 0 20 -5 20 -11 0 -5 4 -8 9 -4 5 3 12 1 16 -5 4 -6 10 -8 15 -5 5 3 13 -3 19 -12 6 -10 11 -12 11 -6 0 9 25 11 98 8 l97 -4 -91 9 c-142 14 -233 55 -275 124 -10 17 -19 28 -19 24z"/>
 <path d="M1201 100 c-18 -15 -38 -20 -90 -20 -36 0 -71 -4 -78 -8 -6 -4 23 -7 65 -7 65 0 81 3 101 22 14 12 28 20 33 17 4 -3 8 0 8 5 0 16 -12 13 -39 -9z"/>
 <path d="M696 99 c15 -25 211 -55 231 -36 3 4 -25 7 -63 7 -40 1 -91 8 -121 19 -29 10 -50 14 -47 10z"/>
 </g>
<g id="layer116" fill="#251815" stroke="none">
 <path d="M911 1973 c4 -35 -36 -167 -56 -183 -8 -6 -19 -9 -25 -5 -17 10 15 -47 46 -84 14 -17 32 -31 39 -31 34 0 20 -21 -39 -58 -35 -23 -73 -53 -85 -68 -22 -29 -28 -78 -10 -90 8 -4 7 -9 -2 -16 -11 -7 -9 -8 6 -6 16 2 21 12 23 43 1 22 6 47 9 55 3 8 5 19 4 23 -1 5 3 6 8 3 5 -4 24 9 42 26 18 18 29 26 24 19 -5 -8 6 -5 23 8 29 20 37 32 33 54 0 4 4 7 10 7 6 0 9 7 5 15 -3 8 -1 15 4 15 5 0 8 18 8 40 0 48 7 58 29 44 11 -7 17 -27 19 -57 2 -49 33 -114 53 -110 6 2 11 -1 11 -6 0 -11 80 -64 81 -54 2 27 18 -40 18 -79 1 -40 4 -48 20 -48 11 0 22 -8 24 -17 4 -14 5 -13 6 4 0 12 6 25 11 28 6 3 10 11 10 17 0 6 -8 4 -18 -5 -21 -19 -42 -23 -24 -5 22 22 14 72 -15 99 -41 37 -82 61 -94 54 -5 -4 -8 -2 -7 4 2 5 -6 16 -17 25 -20 15 -19 16 15 44 19 17 42 43 52 58 16 28 15 30 -8 57 -13 16 -28 25 -34 22 -5 -3 -3 7 5 22 9 17 11 29 5 31 -6 2 -10 14 -10 27 0 13 -4 27 -10 30 -5 3 -10 22 -10 41 l0 34 -91 0 -90 0 2 -27z"/>
 <path d="M1603 1860 c-1 -171 17 -345 21 -210 1 19 13 31 56 55 63 35 106 92 114 150 l5 40 -14 -40 c-9 -23 -29 -58 -46 -78 -32 -38 -106 -84 -117 -72 -4 4 -10 68 -13 143 l-5 137 -1 -125z"/>
 <path d="M201 1885 c-1 -15 23 -87 37 -112 13 -23 70 -68 78 -61 2 3 -16 25 -40 50 -24 25 -51 65 -59 89 -8 24 -16 40 -16 34z"/>
 <path d="M423 1855 c0 -22 2 -30 4 -17 2 12 2 30 0 40 -3 9 -5 -1 -4 -23z"/>
 <path d="M1422 1755 c-2 -81 -9 -145 -22 -195 -28 -106 -25 -131 21 -232 l40 -88 -6 -112 c-6 -98 -4 -124 15 -198 31 -121 15 -182 -78 -284 l-46 -51 48 45 c56 52 92 110 101 161 4 23 -1 79 -15 150 -19 95 -20 121 -11 167 19 96 14 132 -29 217 -45 89 -50 134 -25 233 11 42 15 96 12 183 l-3 124 -2 -120z"/>
 <path d="M411 1763 c0 -24 8 -77 20 -119 14 -53 19 -90 15 -119 -11 -73 -7 -198 9 -255 21 -78 19 -104 -16 -204 -35 -100 -34 -114 14 -221 28 -62 32 -84 37 -186 5 -107 7 -119 35 -164 17 -26 50 -64 75 -83 l45 -36 -41 40 c-22 21 -54 59 -70 83 -28 43 -29 49 -27 148 3 100 1 107 -38 204 -45 112 -45 124 -4 224 30 73 31 118 5 219 -16 64 -18 96 -13 185 5 88 3 117 -12 161 -10 30 -21 79 -25 110 -7 52 -7 53 -9 13z"/>
 <path d="M624 1733 c-5 -38 -8 -121 -6 -185 1 -73 -4 -143 -13 -187 -16 -77 -12 -100 31 -178 l29 -53 -32 -59 c-22 -40 -33 -72 -32 -98 l1 -38 8 42 c5 23 21 60 36 83 36 54 34 92 -6 157 -35 56 -35 58 -11 196 4 26 4 73 -1 104 -5 31 -8 65 -6 75 3 17 5 17 26 3 21 -15 22 -23 23 -158 2 -157 5 -156 15 8 5 89 8 106 18 93 14 -19 32 -75 42 -133 l8 -40 6 40 c3 22 2 46 -4 53 -5 7 -19 35 -32 62 -15 32 -36 58 -63 76 -38 25 -51 51 -34 67 7 8 17 137 10 137 -2 0 -8 -30 -13 -67z"/>
 <path d="M1338 1738 c-3 -15 -1 -25 3 -22 5 3 9 -22 9 -55 0 -50 -3 -62 -20 -71 -11 -6 -31 -30 -45 -54 -20 -34 -24 -51 -18 -73 7 -26 8 -24 14 20 4 27 15 57 25 68 24 27 28 17 10 -26 -27 -64 -21 -116 26 -208 40 -79 41 -85 40 -170 -1 -51 5 -117 14 -159 10 -41 15 -97 12 -134 -3 -42 -1 -59 5 -48 5 9 6 53 3 97 -4 45 -10 145 -14 222 -7 137 -8 141 -44 207 -45 78 -48 125 -18 213 20 58 25 146 11 195 l-7 25 -6 -27z"/>
 <path d="M1526 1685 c-16 -149 -14 -174 24 -254 39 -84 40 -111 10 -201 -29 -86 -23 -159 24 -272 47 -113 52 -152 31 -224 -23 -82 -59 -139 -129 -209 -63 -61 -50 -59 17 4 24 23 37 30 38 21 0 -8 5 -1 10 15 4 17 20 42 34 57 14 15 25 29 24 30 -3 4 22 81 30 93 10 15 5 127 -6 155 -6 14 -21 48 -33 75 -33 76 -42 141 -29 203 6 29 14 50 17 48 7 -4 13 34 15 99 2 47 -4 77 -17 87 -6 4 -4 14 5 25 12 16 12 17 -2 6 -12 -10 -18 -8 -31 15 -28 48 -38 102 -27 146 6 23 9 68 7 101 l-3 60 -9 -80z"/>
 <path d="M319 1625 c-3 -11 1 -45 8 -75 8 -30 15 -64 17 -75 2 -11 8 -33 15 -48 10 -26 7 -67 -7 -91 -7 -13 -6 -106 2 -113 3 -4 6 18 6 48 0 66 15 96 25 51 8 -37 -4 -122 -17 -122 -5 0 -6 -5 -3 -10 6 -9 -28 -128 -43 -155 -13 -22 -18 -122 -7 -147 4 -9 4 -21 1 -27 -4 -5 -2 -12 4 -16 6 -4 8 -11 5 -16 -4 -5 -1 -9 5 -9 6 0 9 -4 6 -9 -3 -5 1 -14 9 -21 8 -7 13 -16 10 -20 -2 -4 5 -18 17 -31 41 -47 71 -130 76 -213 3 -56 2 -77 -6 -72 -6 4 -5 -6 3 -21 8 -15 15 -35 15 -43 0 -8 5 -22 11 -30 9 -12 10 -11 4 5 -4 11 -11 74 -15 139 -8 119 -8 119 -66 235 -76 151 -80 199 -34 346 48 150 49 208 10 346 -18 63 -36 137 -39 164 -4 30 -9 42 -12 30z"/>
 <path d="M547 1540 c7 -132 7 -168 -2 -223 -5 -32 -3 -68 5 -104 11 -45 11 -63 0 -101 -23 -83 -23 -103 1 -179 20 -65 21 -79 11 -119 -7 -24 -11 -63 -11 -87 2 -41 2 -40 9 13 5 30 11 74 15 96 6 31 2 59 -15 109 l-22 67 21 73 c21 70 21 75 6 135 -14 52 -14 71 -4 113 7 31 9 70 4 106 -4 31 -11 88 -15 126 -6 59 -7 55 -3 -25z"/>
 <path d="M883 1323 c-19 -7 -16 -58 5 -75 22 -20 78 -48 94 -48 7 0 -6 9 -30 20 -24 11 -41 24 -37 30 10 15 138 12 160 -4 17 -12 18 -16 5 -32 -14 -17 -14 -17 11 0 28 18 39 44 38 86 -1 17 -3 19 -6 8 -3 -13 -15 -18 -41 -18 -48 0 -83 10 -76 21 3 5 -7 9 -23 9 l-27 0 24 -17 c13 -9 48 -19 77 -21 34 -3 52 -9 50 -16 -3 -6 -11 -9 -18 -6 -8 3 -57 5 -109 6 -94 0 -95 1 -95 25 0 20 6 25 35 30 33 6 34 6 5 7 -16 0 -36 -2 -42 -5z"/>
 <path d="M1615 1150 c3 -14 8 -47 12 -74 5 -38 8 -45 14 -29 4 12 0 41 -12 74 -11 30 -17 43 -14 29z"/>
 <path d="M692 989 c-44 -9 -70 -34 -83 -82 -14 -51 -6 -59 9 -9 16 51 42 73 94 79 61 7 121 -12 160 -50 26 -26 30 -27 17 -7 -33 52 -125 84 -197 69z"/>
 <path d="M1298 975 c-3 -15 1 -30 10 -37 13 -11 14 -11 7 2 -5 8 -8 25 -6 38 3 30 -5 28 -11 -3z"/>
 <path d="M1140 974 c-19 -8 -43 -25 -52 -37 -29 -37 -20 -37 16 -1 31 31 39 34 94 34 34 0 63 3 65 8 9 14 -88 11 -123 -4z"/>
 <path d="M1342 878 c14 -48 -1 -104 -39 -142 -16 -16 -20 -24 -10 -20 33 12 13 -29 -47 -96 l-31 -35 33 30 c37 33 77 93 69 101 -3 3 6 22 19 41 28 41 32 108 9 139 -13 17 -13 15 -3 -18z"/>
 <path d="M612 784 c-1 -78 20 -134 65 -175 l27 -24 -28 35 c-37 45 -56 91 -56 132 l1 33 19 -36 c24 -46 37 -56 94 -73 43 -13 49 -12 88 8 40 20 88 75 88 100 0 6 -10 -6 -22 -27 -29 -49 -94 -82 -145 -72 -48 9 -99 62 -116 122 l-13 46 -2 -69z"/>
 <path d="M1070 802 c0 -28 52 -102 73 -102 6 0 -2 11 -17 25 -15 14 -33 40 -41 57 -8 18 -14 27 -15 20z"/>
 <path d="M1376 748 l-18 -33 21 25 c18 22 26 40 18 40 -1 0 -11 -15 -21 -32z"/>
 <path d="M358 685 c-4 -16 -2 -35 4 -42 5 -6 8 -20 6 -30 -1 -10 1 -23 5 -30 4 -6 8 -23 9 -37 1 -14 5 -26 9 -26 3 0 11 -12 18 -26 18 -41 23 -22 5 21 -9 22 -24 75 -33 119 -15 68 -19 76 -23 51z"/>
 <path d="M1220 658 c-15 -21 -17 -28 -6 -19 16 13 41 51 33 51 -2 0 -14 -15 -27 -32z"/>
 <path d="M1159 583 l-34 -38 38 34 c34 33 42 41 34 41 -2 0 -19 -17 -38 -37z"/>
 <path d="M1573 536 c-20 -96 -76 -201 -140 -263 -46 -45 -51 -53 -25 -38 19 11 48 36 65 55 17 19 35 35 41 35 5 0 10 11 11 23 1 13 6 27 11 30 5 4 11 16 12 27 2 11 7 22 10 25 4 3 8 12 8 20 1 8 8 43 17 78 8 34 11 62 8 62 -4 0 -12 -24 -18 -54z"/>
 <path d="M1503 461 c-28 -58 -29 -63 -7 -36 22 28 50 93 42 99 -1 2 -17 -27 -35 -63z"/>
 <path d="M1485 274 c-25 -47 -67 -81 -140 -115 -33 -16 -55 -28 -48 -29 24 0 168 74 168 87 1 4 11 24 23 43 20 31 27 50 19 50 -1 0 -11 -16 -22 -36z"/>
 <path d="M490 268 c0 -29 56 -106 73 -100 4 1 7 -2 7 -8 0 -5 9 -10 20 -10 11 0 20 -5 20 -11 0 -5 4 -8 9 -4 5 3 12 1 16 -5 4 -6 10 -8 15 -5 5 3 13 -3 19 -12 6 -10 11 -12 11 -6 0 9 25 11 98 8 l97 -4 -91 9 c-142 14 -233 55 -275 124 -10 17 -19 28 -19 24z"/>
 <path d="M1201 100 c-18 -15 -38 -20 -90 -20 -36 0 -71 -4 -78 -8 -6 -4 23 -7 65 -7 65 0 81 3 101 22 14 12 28 20 33 17 4 -3 8 0 8 5 0 16 -12 13 -39 -9z"/>
 <path d="M696 99 c15 -25 211 -55 231 -36 3 4 -25 7 -63 7 -40 1 -91 8 -121 19 -29 10 -50 14 -47 10z"/>
 </g>
<g id="layer117" fill="#100f10" stroke="none">
 <path d="M912 1976 c6 -32 -37 -164 -62 -191 l-20 -22 30 -42 c17 -23 42 -46 55 -51 14 -5 25 -11 25 -14 0 -2 -29 -22 -64 -45 -35 -22 -73 -52 -85 -67 -22 -28 -28 -78 -11 -89 6 -4 8 -11 5 -16 -4 -5 -2 -9 3 -9 13 0 18 17 21 70 1 25 7 50 13 55 8 7 9 6 4 -5 -4 -8 2 -4 13 9 12 13 21 19 21 15 0 -5 10 2 21 16 11 14 18 18 14 10 -4 -8 1 -6 9 4 9 11 16 16 16 12 0 -5 7 -3 15 4 8 7 12 16 9 21 -3 5 0 9 6 9 6 0 8 5 5 10 -3 6 -1 10 5 10 7 0 10 7 6 15 -3 8 -1 15 3 15 5 0 9 20 9 44 0 33 -4 46 -16 49 -9 3 8 5 38 6 84 2 105 17 105 73 1 26 -3 44 -7 42 -4 -3 -8 15 -8 40 l0 46 -91 0 c-91 0 -91 0 -87 -24z"/>
 <path d="M205 1870 c3 -14 8 -38 12 -54 6 -29 80 -113 90 -102 3 3 -13 26 -35 51 -23 26 -48 65 -57 88 -8 23 -13 31 -10 17z"/>
 <path d="M1782 1852 c-16 -51 -71 -114 -121 -137 -23 -10 -41 -22 -41 -27 0 -12 6 -10 60 17 58 29 98 79 111 136 12 53 6 61 -9 11z"/>
 <path d="M1075 1798 l-50 -16 1 -50 c1 -53 32 -119 53 -114 6 1 11 -2 11 -7 0 -10 71 -56 82 -53 9 2 17 -29 20 -82 2 -23 9 -41 17 -44 8 -3 11 0 7 6 -3 6 -2 13 4 17 21 13 11 71 -17 96 -41 37 -82 61 -94 54 -5 -4 -8 -2 -7 4 2 5 -6 16 -17 25 -20 15 -19 16 15 44 19 17 42 43 52 58 15 28 15 30 -5 54 l-22 25 -50 -17z"/>
 <path d="M672 1576 c20 -19 44 -56 53 -80 10 -25 24 -47 33 -51 12 -5 13 -3 2 10 -7 9 -23 37 -35 64 -13 27 -37 58 -56 71 l-34 23 37 -37z"/>
 <path d="M1273 1513 c-10 -21 -24 -47 -32 -58 l-15 -20 21 20 c20 19 58 95 47 95 -2 0 -12 -17 -21 -37z"/>
 <path d="M983 1304 c16 -9 31 -13 35 -10 3 3 0 6 -7 6 -7 0 -9 5 -6 10 4 6 -6 10 -22 10 l-28 -1 28 -15z"/>
 <path d="M1075 1289 l-50 -6 43 -1 c30 -2 42 -6 39 -14 -2 -7 -15 -12 -28 -10 -23 2 -23 2 -4 -12 17 -12 18 -16 5 -32 -14 -17 -14 -17 12 0 22 14 49 73 36 79 -1 1 -25 0 -53 -4z"/>
 <path d="M870 1279 c0 -25 76 -79 112 -79 7 0 -6 9 -30 20 -24 11 -41 24 -37 30 3 5 -1 10 -9 10 -8 0 -20 8 -25 18 -9 14 -10 15 -11 1z"/>
 <path d="M958 1263 c17 -2 47 -2 65 0 17 2 3 4 -33 4 -36 0 -50 -2 -32 -4z"/>
 <path d="M647 969 c-15 -11 -31 -38 -37 -61 -14 -52 -7 -60 8 -10 16 51 42 73 94 79 61 7 121 -12 160 -50 27 -26 30 -27 17 -7 -42 66 -184 95 -242 49z"/>
 <path d="M1135 970 c-22 -11 -31 -17 -20 -13 11 3 49 9 85 12 58 5 62 7 31 14 -46 10 -51 9 -96 -13z"/>
 <path d="M1342 878 c14 -48 -1 -104 -39 -143 -25 -25 -26 -27 -5 -16 53 28 81 132 47 177 -13 17 -13 15 -3 -18z"/>
 <path d="M611 835 c-1 -32 45 -122 72 -140 41 -27 117 -30 155 -6 31 20 72 75 72 96 0 6 -10 -7 -22 -28 -29 -49 -94 -82 -145 -72 -48 9 -98 62 -117 123 -8 26 -15 38 -15 27z"/>
 <path d="M1070 802 c0 -28 52 -102 73 -102 6 0 -2 11 -17 25 -15 14 -33 40 -41 57 -8 18 -14 27 -15 20z"/>
 </g>

</svg>