<!DOCTYPE svg PUBLIC "-//W3C//DTD SVG 20010904//EN" "http://www.w3.org/TR/2001/REC-SVG-20010904/DTD/svg10.dtd">
<svg version="1.0" xmlns="http://www.w3.org/2000/svg" width="200px" height="200px" viewBox="0 0 2000 2000" preserveAspectRatio="xMidYMid meet">
<g id="layer101" fill="#f8f2f0" stroke="none">
 <path d="M180 1965 c0 -19 10 -65 22 -102 17 -51 34 -79 69 -114 l46 -47 7 -88 c3 -49 15 -118 26 -155 16 -51 18 -73 10 -94 -12 -33 -13 -126 -1 -157 6 -17 2 -44 -15 -97 -13 -41 -27 -97 -30 -126 -7 -56 10 -158 32 -192 8 -13 14 -49 14 -85 0 -89 21 -164 62 -228 19 -31 38 -69 41 -85 3 -17 11 -54 16 -84 18 -93 43 -120 184 -190 133 -67 177 -78 245 -63 27 7 44 6 48 0 4 -6 24 -7 48 -4 22 4 75 10 116 14 54 5 83 13 103 28 15 12 43 25 62 28 88 17 192 82 221 138 9 17 24 54 34 82 10 28 28 76 39 107 11 31 25 87 30 125 5 38 19 94 30 124 18 49 19 75 17 240 -3 152 -7 196 -23 247 -17 51 -19 70 -10 106 7 34 6 54 -5 88 -12 37 -13 52 -2 94 8 28 17 85 20 127 l7 78 53 30 c31 17 65 47 79 69 29 43 65 151 65 194 l0 27 -830 0 -830 0 0 -35z"/>
 </g>
<g id="layer102" fill="#f0d3ce" stroke="none">
 <path d="M180 1965 c0 -19 10 -65 22 -102 17 -51 34 -79 69 -114 l46 -47 7 -88 c3 -49 15 -118 26 -155 16 -51 18 -73 10 -94 -12 -33 -13 -126 -1 -157 6 -17 2 -44 -15 -97 -13 -41 -27 -97 -30 -126 -7 -56 10 -158 32 -192 8 -13 14 -49 14 -85 0 -89 21 -164 62 -228 19 -31 38 -69 41 -85 3 -17 11 -54 16 -84 18 -93 43 -120 184 -190 133 -67 177 -78 245 -63 27 7 44 6 48 0 4 -6 24 -7 48 -4 22 4 75 10 116 14 54 5 83 13 103 28 15 12 43 25 62 28 88 17 192 82 221 138 9 17 24 54 34 82 10 28 28 76 39 107 11 31 25 87 30 125 5 38 19 94 30 124 18 49 19 75 17 240 -3 152 -7 196 -23 247 -17 51 -19 70 -10 106 7 34 6 54 -5 88 -12 37 -13 52 -2 94 8 28 17 85 20 127 l7 78 53 30 c31 17 65 47 79 69 29 43 65 151 65 194 l0 27 -830 0 -830 0 0 -35z m829 -212 c0 -25 -1 -25 -8 -8 -5 11 -7 23 -4 28 8 14 13 7 12 -20z m67 -475 c16 -17 23 -27 15 -23 -11 6 -13 4 -8 -8 5 -14 1 -15 -26 -9 -18 4 -53 7 -79 7 -27 0 -48 3 -48 8 0 4 21 7 46 7 27 0 43 4 39 10 -3 6 -25 10 -48 10 -41 1 -42 1 -17 15 44 25 93 19 126 -17z m-58 -205 c-4 -39 -29 -43 -26 -4 1 18 8 31 16 31 9 0 12 -9 10 -27z"/>
 </g>
<g id="layer103" fill="#d4b3ae" stroke="none">
 <path d="M180 1965 c0 -19 10 -65 22 -102 17 -51 34 -79 69 -114 l46 -47 7 -88 c3 -49 15 -118 26 -155 16 -51 18 -73 10 -94 -12 -33 -13 -126 -1 -157 6 -17 2 -44 -15 -97 -13 -41 -27 -97 -30 -126 -7 -56 10 -158 32 -192 8 -13 14 -49 14 -85 0 -89 21 -164 62 -228 19 -31 38 -69 41 -85 3 -17 11 -54 16 -84 18 -93 43 -120 184 -190 133 -67 177 -78 245 -63 27 7 44 6 48 0 4 -6 24 -7 48 -4 22 4 75 10 116 14 54 5 83 13 103 28 15 12 43 25 62 28 88 17 192 82 221 138 9 17 24 54 34 82 10 28 28 76 39 107 11 31 25 87 30 125 5 38 19 94 30 124 18 49 19 75 17 240 -3 152 -7 196 -23 247 -17 51 -19 70 -10 106 7 34 6 54 -5 88 -12 37 -13 52 -2 94 8 28 17 85 20 127 l7 78 53 30 c31 17 65 47 79 69 29 43 65 151 65 194 l0 27 -830 0 -830 0 0 -35z m870 -313 c15 -24 49 -57 76 -75 27 -18 50 -40 52 -50 3 -16 -3 -15 -49 9 -34 18 -73 29 -110 32 -56 4 -76 -2 -181 -56 -5 -2 -8 3 -8 12 0 16 59 66 77 66 32 0 99 123 92 167 -5 32 6 19 14 -17 6 -25 22 -64 37 -88z m80 -229 c66 -36 136 -88 179 -133 31 -34 64 -99 57 -116 -3 -8 0 -13 6 -11 7 1 10 -20 9 -63 -1 -39 6 -97 19 -144 17 -67 18 -85 8 -120 -16 -53 -40 -98 -58 -104 -18 -6 -7 63 14 84 18 17 13 34 -10 34 -23 0 -32 39 -27 120 10 176 10 181 -26 255 -38 78 -39 80 -45 74 -3 -2 2 -31 11 -64 23 -90 26 -126 13 -175 -7 -25 -17 -66 -23 -91 -10 -45 -11 -46 -61 -55 -47 -8 -51 -11 -47 -34 3 -24 2 -24 -16 -8 -18 16 -19 16 -32 -4 -13 -20 -11 -25 20 -50 41 -35 76 -45 100 -29 23 14 49 14 49 0 0 -6 -10 -33 -21 -60 -25 -57 -35 -57 -103 -8 -45 32 -56 35 -56 15 0 -15 82 -86 99 -86 20 0 11 -14 -38 -66 -27 -29 -56 -73 -66 -100 -10 -27 -21 -52 -25 -57 -3 -4 -21 6 -40 23 -18 16 -43 32 -54 35 -23 7 -38 13 -108 44 -26 12 -50 21 -53 21 -22 0 -120 80 -136 112 -17 33 -28 148 -15 148 3 0 17 -5 33 -11 27 -10 27 -11 9 -25 -11 -7 -17 -16 -14 -19 3 -3 54 -4 114 -3 101 3 107 4 82 17 -16 8 -28 17 -28 21 0 4 16 15 35 26 30 16 35 23 30 44 -9 34 -15 38 -29 18 -14 -20 -26 -14 -26 12 0 18 -36 30 -86 30 -27 0 -104 -45 -104 -60 0 -6 -5 -10 -11 -10 -7 0 -9 11 -6 28 4 16 -2 43 -14 69 l-20 42 34 54 c46 72 50 87 32 130 -8 20 -15 45 -15 55 0 50 167 187 272 223 66 23 103 17 188 -28z m-414 -590 c-2 -3 -9 -2 -15 2 -8 4 -7 13 1 28 l13 22 3 -23 c2 -13 1 -26 -2 -29z"/>
 <path d="M919 1287 c-36 -30 -45 -57 -19 -57 11 0 20 5 20 10 0 6 10 15 23 20 17 7 18 9 5 9 -10 1 -18 5 -18 11 0 5 8 14 18 19 9 6 13 11 7 11 -5 0 -22 -10 -36 -23z"/>
 <path d="M1080 1286 c18 -20 21 -30 12 -33 -10 -4 -10 -8 0 -20 11 -14 10 -15 -12 -10 l-25 7 26 -13 c14 -6 33 -18 43 -26 20 -17 20 -12 -3 41 -10 24 -29 52 -42 63 -23 19 -23 19 1 -9z"/>
 <path d="M972 1138 c-12 -6 -21 -16 -19 -21 4 -13 106 -17 113 -5 4 7 -57 40 -68 37 -2 0 -13 -5 -26 -11z"/>
 </g>
<g id="layer104" fill="#adb5c8" stroke="none">
 <path d="M180 1965 c0 -19 10 -65 22 -102 17 -51 34 -79 69 -114 l46 -47 7 -88 c3 -49 15 -118 26 -155 16 -51 18 -73 10 -94 -12 -33 -13 -126 -1 -157 6 -17 2 -44 -15 -97 -13 -41 -27 -97 -30 -126 -7 -56 10 -158 32 -192 8 -13 14 -49 14 -85 0 -89 21 -164 62 -228 19 -31 38 -69 41 -85 3 -17 11 -54 16 -84 18 -93 43 -120 184 -190 133 -67 177 -78 245 -63 27 7 44 6 48 0 4 -6 24 -7 48 -4 22 4 75 10 116 14 54 5 83 13 103 28 15 12 43 25 62 28 88 17 192 82 221 138 9 17 24 54 34 82 10 28 28 76 39 107 11 31 25 87 30 125 5 38 19 94 30 124 18 49 19 75 17 240 -3 152 -7 196 -23 247 -17 51 -19 70 -10 106 7 34 6 54 -5 88 -12 37 -13 52 -2 94 8 28 17 85 20 127 l7 78 53 30 c31 17 65 47 79 69 29 43 65 151 65 194 l0 27 -830 0 -830 0 0 -35z m844 -232 c8 -66 36 -106 101 -149 34 -23 55 -44 55 -56 0 -17 -4 -16 -52 9 -35 19 -72 29 -113 31 -51 3 -69 -1 -120 -27 -32 -16 -61 -28 -63 -26 -11 11 13 37 68 75 65 44 90 83 90 139 0 36 9 63 20 56 4 -2 10 -26 14 -52z m106 -310 c66 -36 136 -88 179 -133 31 -34 64 -99 57 -116 -3 -8 0 -13 6 -11 7 1 10 -15 9 -48 -1 -27 7 -92 18 -143 16 -69 19 -102 12 -132 -10 -46 -41 -102 -59 -108 -19 -6 -16 73 4 89 14 11 13 14 -6 29 -29 22 -36 89 -20 197 l12 84 -40 82 c-42 84 -54 80 -27 -9 19 -62 19 -108 0 -170 -8 -27 -15 -66 -15 -87 0 -34 -2 -38 -20 -32 -33 10 -90 -13 -90 -37 0 -17 -2 -18 -16 -8 -12 11 -18 10 -31 -3 -15 -15 -15 -18 2 -37 10 -11 24 -20 32 -20 7 0 13 -5 13 -11 0 -5 5 -7 10 -4 6 3 10 1 10 -6 0 -10 3 -10 12 -1 15 15 32 16 23 2 -3 -5 -2 -10 4 -10 5 0 13 5 16 10 3 6 15 10 26 10 18 0 20 -4 14 -30 -10 -44 -35 -90 -48 -90 -7 0 -36 16 -64 35 -57 38 -63 41 -63 23 0 -14 81 -88 98 -88 19 0 15 -9 -29 -58 -43 -48 -89 -133 -89 -164 0 -22 -13 -23 -31 -2 -18 22 -75 57 -119 73 -213 81 -309 182 -280 291 11 39 12 40 33 25 12 -8 29 -15 39 -15 10 0 18 -4 18 -10 0 -5 -6 -10 -14 -10 -7 0 -19 -7 -26 -15 -11 -13 1 -15 101 -15 102 1 112 2 95 15 -11 8 -25 15 -32 15 -7 0 -16 6 -20 13 -4 6 -4 9 1 5 6 -6 52 15 83 38 2 1 1 12 -3 23 -7 23 -30 28 -38 9 -4 -8 -8 -4 -12 9 -16 52 -132 50 -178 -3 -27 -32 -37 -30 -37 5 0 16 -7 45 -15 66 -18 42 -14 60 26 123 31 50 37 88 16 116 -8 10 -12 29 -9 42 11 60 169 189 274 225 66 23 103 17 188 -28z m-414 -590 c-2 -3 -9 -2 -15 2 -8 4 -7 13 1 28 l13 22 3 -23 c2 -13 1 -26 -2 -29z m625 -131 c-5 -9 -19 -26 -31 -37 l-22 -20 22 38 c22 37 50 55 31 19z m-117 -137 c-35 -43 -44 -51 -44 -40 0 6 71 85 77 85 2 0 -12 -20 -33 -45z"/>
 <path d="M895 1258 c-19 -28 -2 -37 24 -14 10 9 24 16 32 17 8 0 6 4 -6 9 -30 13 -32 12 -50 -12z"/>
 <path d="M1097 1225 c17 -23 33 -32 33 -19 0 16 -23 44 -36 44 -13 0 -12 -4 3 -25z"/>
 <path d="M972 1138 c-12 -6 -21 -16 -19 -21 4 -13 106 -17 113 -5 4 7 -57 40 -68 37 -2 0 -13 -5 -26 -11z"/>
 </g>
<g id="layer105" fill="#dda79e" stroke="none">
 <path d="M180 1965 c0 -19 10 -65 22 -102 17 -51 34 -79 69 -114 l46 -47 7 -88 c3 -49 15 -118 26 -155 16 -51 18 -73 10 -94 -12 -33 -13 -126 -1 -157 6 -17 2 -44 -15 -97 -13 -41 -27 -97 -30 -126 -7 -56 10 -158 32 -192 8 -13 14 -49 14 -85 0 -89 21 -164 62 -228 19 -31 38 -69 41 -85 3 -17 11 -54 16 -84 18 -93 43 -120 184 -190 133 -67 177 -78 245 -63 27 7 44 6 48 0 4 -6 24 -7 48 -4 22 4 75 10 116 14 54 5 83 13 103 28 15 12 43 25 62 28 88 17 192 82 221 138 9 17 24 54 34 82 10 28 28 76 39 107 11 31 25 87 30 125 5 38 19 94 30 124 18 49 19 75 17 240 -3 152 -7 196 -23 247 -17 51 -19 70 -10 106 7 34 6 54 -5 88 -12 37 -13 52 -2 94 8 28 17 85 20 127 l7 78 53 30 c31 17 65 47 79 69 29 43 65 151 65 194 l0 27 -830 0 -830 0 0 -35z m844 -232 c8 -66 36 -106 101 -149 34 -23 55 -44 55 -56 0 -17 -4 -16 -52 9 -35 19 -72 29 -113 31 -51 3 -69 -1 -120 -27 -32 -16 -61 -28 -63 -26 -11 11 13 37 68 75 65 44 90 83 90 139 0 36 9 63 20 56 4 -2 10 -26 14 -52z m106 -310 c66 -36 136 -88 179 -133 31 -34 64 -99 57 -116 -3 -8 0 -13 6 -11 7 1 10 -15 9 -48 -1 -27 7 -92 18 -143 16 -69 19 -102 12 -132 -10 -46 -41 -102 -59 -108 -19 -6 -16 73 4 89 14 11 13 14 -6 29 -29 22 -36 89 -20 197 l12 84 -40 82 c-42 84 -54 80 -27 -9 19 -62 19 -108 0 -170 -8 -27 -15 -66 -15 -87 0 -34 -2 -37 -23 -32 -35 9 -74 -10 -81 -40 -7 -26 -8 -26 -25 -11 -16 15 -19 15 -31 1 -11 -13 -10 -19 5 -35 10 -11 24 -20 32 -20 7 0 13 -5 13 -11 0 -5 5 -7 10 -4 6 3 10 1 10 -6 0 -10 3 -10 12 -1 15 15 32 16 23 2 -3 -5 -2 -10 4 -10 5 0 13 5 16 10 3 6 15 10 26 10 18 0 20 -4 14 -30 -10 -44 -35 -90 -48 -90 -7 0 -36 16 -64 35 -57 38 -63 41 -63 23 0 -14 81 -88 98 -88 19 0 15 -9 -29 -58 -43 -48 -89 -133 -89 -164 0 -22 -13 -23 -31 -2 -18 22 -75 57 -119 73 -213 81 -309 182 -280 291 11 39 12 40 33 25 12 -8 29 -15 39 -15 10 0 18 -4 18 -10 0 -5 -6 -10 -14 -10 -7 0 -19 -7 -26 -15 -11 -13 1 -15 101 -15 102 1 112 2 95 15 -11 8 -25 15 -32 15 -7 0 -16 5 -19 10 -4 6 -3 9 2 8 14 -4 83 35 83 47 0 5 -5 17 -10 25 -8 13 -11 13 -27 -2 -16 -17 -18 -16 -29 11 -22 53 -118 48 -168 -8 -26 -29 -36 -26 -36 8 0 16 -7 45 -15 66 -18 42 -14 60 26 123 31 50 37 88 16 116 -8 10 -12 29 -9 42 11 60 169 189 274 225 66 23 103 17 188 -28z m-408 -563 c-5 -33 -19 -39 -29 -14 -4 11 1 22 12 30 10 8 19 14 20 14 1 0 0 -13 -3 -30z m619 -158 c-5 -9 -19 -26 -31 -37 l-22 -20 22 38 c22 37 50 55 31 19z m-117 -137 c-35 -43 -44 -51 -44 -40 0 6 71 85 77 85 2 0 -12 -20 -33 -45z"/>
 <path d="M895 1258 c-9 -14 -11 -24 -5 -26 14 -5 40 17 40 34 0 21 -17 17 -35 -8z"/>
 <path d="M1100 1233 c0 -14 19 -38 25 -32 8 8 -5 39 -16 39 -5 0 -9 -3 -9 -7z"/>
 <path d="M972 1138 c-12 -6 -21 -16 -19 -21 4 -13 106 -17 113 -5 4 7 -57 40 -68 37 -2 0 -13 -5 -26 -11z"/>
 </g>
<g id="layer106" fill="#7985b6" stroke="none">
 <path d="M180 1965 c0 -19 10 -65 22 -102 17 -51 34 -79 69 -114 l46 -47 7 -88 c3 -49 15 -118 26 -155 16 -51 18 -73 10 -94 -12 -33 -13 -126 -1 -157 6 -17 2 -44 -15 -97 -13 -41 -27 -97 -30 -126 -7 -56 10 -158 32 -192 8 -13 14 -49 14 -85 0 -89 21 -164 62 -228 19 -31 38 -69 41 -85 3 -17 11 -54 16 -84 18 -93 43 -120 184 -190 133 -67 177 -78 245 -63 27 7 44 6 48 0 4 -6 24 -7 48 -4 22 4 75 10 116 14 54 5 83 13 103 28 15 12 43 25 62 28 88 17 192 82 221 138 9 17 24 54 34 82 10 28 28 76 39 107 11 31 25 87 30 125 5 38 19 94 30 124 18 49 19 75 17 240 -3 152 -7 196 -23 247 -17 51 -19 70 -10 106 7 34 6 54 -5 88 -12 37 -13 52 -2 94 8 28 17 85 20 127 l7 78 53 30 c31 17 65 47 79 69 29 43 65 151 65 194 l0 27 -830 0 -830 0 0 -35z m844 -232 c8 -64 34 -104 93 -143 65 -44 70 -51 72 -114 l1 -55 -66 31 c-88 41 -149 41 -236 -1 -34 -16 -64 -29 -65 -27 -2 1 1 29 5 61 7 59 7 60 71 104 66 46 91 84 91 140 0 36 9 63 20 56 4 -2 10 -26 14 -52z m73 -282 c22 -11 67 -36 99 -58 32 -21 69 -45 83 -54 14 -8 33 -28 43 -45 54 -90 60 -108 59 -171 -1 -34 8 -103 19 -153 15 -67 18 -100 11 -130 -10 -46 -41 -102 -59 -108 -19 -6 -16 73 4 89 14 11 13 14 -6 29 -29 22 -36 89 -20 197 l12 84 -40 82 c-42 84 -54 80 -27 -9 19 -62 19 -108 0 -170 -8 -27 -15 -66 -15 -86 0 -30 -4 -37 -17 -36 -57 4 -74 -2 -85 -33 -10 -29 -11 -29 -29 -13 -11 9 -19 12 -19 7 0 -6 16 -25 35 -42 29 -25 45 -31 81 -31 45 0 46 0 39 -30 -4 -17 -14 -44 -22 -61 -13 -26 -19 -30 -41 -24 -14 3 -39 17 -55 31 -16 13 -36 24 -45 24 -18 0 61 -83 88 -92 11 -3 3 -17 -29 -54 -44 -50 -91 -135 -91 -166 0 -22 -13 -23 -31 -2 -18 22 -75 57 -119 73 -213 81 -309 182 -280 291 11 39 12 40 33 25 12 -8 29 -15 39 -15 26 0 22 -15 -9 -31 -27 -14 -27 -14 30 -17 31 -2 83 -2 115 0 58 3 58 5 -11 30 l-28 11 38 25 c40 27 53 40 53 57 0 5 -8 2 -17 -8 -16 -16 -18 -15 -29 12 -22 53 -118 48 -168 -8 -26 -29 -36 -26 -36 8 0 16 -7 45 -15 66 -18 42 -14 60 26 123 34 54 36 86 10 126 -17 26 -18 33 -6 55 30 57 168 167 260 207 43 19 123 17 172 -5z m-375 -591 c-5 -33 -19 -39 -29 -14 -4 11 1 22 12 30 10 8 19 14 20 14 1 0 0 -13 -3 -30z m619 -158 c-5 -9 -19 -26 -31 -37 l-22 -20 22 38 c22 37 50 55 31 19z m-117 -137 c-35 -43 -44 -51 -44 -40 0 6 71 85 77 85 2 0 -12 -20 -33 -45z"/>
 <path d="M895 1258 c-9 -14 -11 -24 -5 -26 14 -5 40 17 40 34 0 21 -17 17 -35 -8z"/>
 <path d="M1100 1233 c0 -14 19 -38 25 -32 8 8 -5 39 -16 39 -5 0 -9 -3 -9 -7z"/>
 </g>
<g id="layer107" fill="#c47e72" stroke="none">
 <path d="M180 1965 c0 -19 10 -65 22 -102 17 -51 34 -79 69 -114 l46 -47 7 -88 c3 -49 15 -118 26 -155 16 -51 18 -73 10 -94 -12 -33 -13 -126 -1 -157 6 -17 2 -44 -15 -97 -13 -41 -27 -97 -30 -126 -7 -56 10 -158 32 -192 8 -13 14 -49 14 -85 0 -89 21 -164 62 -228 19 -31 38 -69 41 -85 3 -17 11 -54 16 -84 18 -93 43 -120 184 -190 133 -67 177 -78 245 -63 27 7 44 6 48 0 4 -6 24 -7 48 -4 22 4 75 10 116 14 54 5 83 13 103 28 15 12 43 25 62 28 88 17 192 82 221 138 9 17 24 54 34 82 10 28 28 76 39 107 11 31 25 87 30 125 5 38 19 94 30 124 18 49 19 75 17 240 -3 152 -7 196 -23 247 -17 51 -19 70 -10 106 7 34 6 54 -5 88 -12 37 -13 52 -2 94 8 28 17 85 20 127 l7 78 53 30 c31 17 65 47 79 69 29 43 65 151 65 194 l0 27 -830 0 -830 0 0 -35z m844 -232 c8 -64 34 -104 93 -143 65 -44 70 -51 72 -114 l1 -55 -66 31 c-88 41 -149 41 -236 -1 -34 -16 -64 -29 -65 -27 -2 1 1 29 5 61 7 59 7 60 71 104 66 46 91 84 91 140 0 36 9 63 20 56 4 -2 10 -26 14 -52z m73 -282 c22 -11 67 -36 99 -58 32 -21 69 -45 83 -54 14 -8 33 -28 43 -45 54 -90 60 -108 59 -171 -1 -34 8 -103 19 -153 15 -67 18 -100 11 -130 -10 -46 -41 -102 -59 -108 -19 -6 -16 73 4 89 14 11 13 14 -6 29 -29 22 -36 89 -20 197 l12 84 -40 82 c-42 84 -54 80 -27 -9 19 -62 19 -108 0 -170 -8 -27 -15 -65 -15 -85 0 -33 -2 -35 -35 -36 -41 -1 -65 -17 -65 -44 0 -23 -8 -24 -32 -2 -10 9 -18 11 -18 6 0 -6 16 -25 35 -42 29 -25 45 -31 81 -31 45 0 46 0 39 -30 -4 -17 -14 -44 -22 -61 -13 -26 -19 -30 -41 -24 -14 3 -39 17 -55 31 -16 13 -36 24 -45 24 -18 0 61 -83 88 -92 11 -3 3 -17 -29 -54 -44 -50 -91 -135 -91 -166 0 -22 -13 -23 -31 -2 -18 22 -75 57 -119 73 -213 81 -309 182 -280 291 11 39 12 40 33 25 12 -8 29 -15 39 -15 26 0 22 -15 -9 -31 -27 -14 -27 -14 30 -17 31 -2 83 -2 115 0 58 3 58 5 -11 30 l-28 11 38 25 c39 26 53 40 53 56 0 5 -8 1 -19 -8 -18 -16 -19 -16 -29 12 -19 54 -116 50 -166 -7 -26 -29 -36 -26 -36 8 0 16 -7 45 -15 66 -18 42 -14 60 26 123 34 54 36 86 10 126 -17 26 -18 33 -6 55 30 57 168 167 260 207 43 19 123 17 172 -5z m-269 -571 c4 -12 2 -13 -9 -2 -18 17 -39 15 -62 -5 -19 -18 -20 -17 -8 5 10 18 19 22 43 20 17 -2 33 -10 36 -18z m402 13 c-14 -3 -28 -10 -32 -17 -5 -7 -8 -5 -8 7 0 13 8 17 33 16 27 -2 28 -2 7 -6z m-504 -33 c-1 -33 -15 -40 -30 -17 -7 10 -5 21 3 31 20 24 29 19 27 -14z m112 -12 c-2 -6 -10 -14 -16 -16 -7 -2 -10 2 -6 12 7 18 28 22 22 4z m503 -146 c-5 -9 -19 -26 -31 -37 l-22 -20 22 38 c22 37 50 55 31 19z m-117 -137 c-35 -43 -44 -51 -44 -40 0 6 71 85 77 85 2 0 -12 -20 -33 -45z"/>
 <path d="M895 1258 c-9 -14 -11 -24 -5 -26 14 -5 40 17 40 34 0 21 -17 17 -35 -8z"/>
 <path d="M1100 1233 c0 -14 19 -38 25 -32 8 8 -5 39 -16 39 -5 0 -9 -3 -9 -7z"/>
 </g>
<g id="layer108" fill="#606da1" stroke="none">
 <path d="M195 1943 c13 -112 26 -145 75 -194 l47 -47 7 -88 c3 -49 15 -118 26 -155 16 -51 18 -73 10 -94 -12 -33 -13 -126 -1 -157 6 -17 2 -44 -15 -97 -13 -41 -27 -97 -30 -126 -7 -56 10 -158 32 -192 8 -13 14 -49 14 -85 0 -89 21 -164 62 -228 19 -31 38 -69 41 -85 3 -17 11 -54 16 -84 18 -93 43 -120 184 -190 133 -67 177 -78 245 -63 27 7 44 6 48 0 4 -6 24 -7 48 -4 22 4 75 10 116 14 54 5 83 13 103 28 15 12 43 25 62 28 88 17 192 82 221 138 9 17 24 54 34 82 10 28 28 76 39 107 11 31 25 87 30 125 5 38 19 94 30 124 18 49 19 75 17 240 -3 152 -7 196 -23 247 -17 51 -19 70 -10 106 7 34 6 54 -5 88 -12 37 -13 52 -2 94 8 28 17 85 20 127 l7 77 56 33 c72 43 109 101 116 183 3 33 8 70 10 83 l5 22 -821 0 -821 0 7 -57z m829 -210 c9 -67 35 -105 105 -153 57 -38 61 -43 61 -79 0 -78 9 -97 74 -148 86 -69 119 -132 117 -224 0 -38 8 -110 19 -159 15 -67 18 -100 11 -130 -10 -46 -41 -102 -59 -108 -19 -6 -16 73 4 89 14 11 13 14 -6 29 -29 22 -36 89 -20 197 l12 84 -40 82 c-42 84 -54 80 -27 -9 19 -62 19 -108 0 -170 -8 -27 -15 -65 -15 -85 0 -33 -2 -35 -35 -36 -41 -1 -65 -17 -65 -44 0 -23 -8 -24 -32 -2 -10 9 -18 11 -18 6 0 -6 16 -25 35 -42 29 -25 45 -31 81 -31 45 0 46 0 39 -30 -4 -17 -14 -44 -22 -61 -13 -26 -19 -30 -41 -24 -14 3 -39 17 -55 31 -16 13 -36 24 -45 24 -18 0 61 -83 88 -92 11 -3 3 -17 -29 -54 -44 -50 -91 -135 -91 -166 0 -22 -13 -23 -31 -2 -18 22 -75 57 -119 73 -213 81 -309 182 -280 291 11 39 12 40 33 25 12 -8 29 -15 39 -15 26 0 22 -15 -9 -31 -28 -14 -28 -14 24 -17 29 -2 78 -2 110 0 l58 3 -43 19 -43 19 38 25 c39 26 53 40 53 56 0 5 -8 1 -19 -8 -18 -16 -19 -16 -29 12 -19 54 -116 50 -166 -7 -26 -29 -36 -26 -36 8 0 16 -7 45 -15 66 -18 42 -14 60 26 123 34 54 36 83 8 128 -18 30 -19 36 -6 61 19 36 63 81 109 113 37 25 48 53 48 126 0 34 16 52 93 104 51 34 77 77 77 129 0 36 9 63 20 56 4 -2 10 -26 14 -52z m-196 -853 c4 -12 2 -13 -9 -2 -18 17 -39 15 -62 -5 -19 -18 -20 -17 -8 5 10 18 19 22 43 20 17 -2 33 -10 36 -18z m402 13 c-14 -3 -28 -10 -32 -17 -5 -7 -8 -5 -8 7 0 13 8 17 33 16 27 -2 28 -2 7 -6z m-504 -33 c-1 -33 -15 -40 -30 -17 -7 10 -5 21 3 31 20 24 29 19 27 -14z m112 -12 c-2 -6 -10 -14 -16 -16 -7 -2 -10 2 -6 12 7 18 28 22 22 4z m503 -146 c-5 -9 -19 -26 -31 -37 l-22 -20 22 38 c22 37 50 55 31 19z m-117 -137 c-35 -43 -44 -51 -44 -40 0 6 71 85 77 85 2 0 -12 -20 -33 -45z"/>
 <path d="M895 1258 c-9 -14 -11 -24 -5 -26 14 -5 40 17 40 34 0 21 -17 17 -35 -8z"/>
 <path d="M1100 1233 c0 -14 19 -38 25 -32 8 8 -5 39 -16 39 -5 0 -9 -3 -9 -7z"/>
 </g>
<g id="layer109" fill="#6a5b5e" stroke="none">
 <path d="M195 1943 c13 -112 26 -145 75 -194 l47 -47 7 -88 c3 -49 15 -118 26 -155 16 -51 18 -73 10 -94 -12 -33 -13 -126 -1 -157 6 -17 2 -44 -15 -97 -13 -41 -27 -97 -30 -126 -7 -56 10 -158 32 -192 8 -13 14 -49 14 -85 0 -89 21 -164 62 -228 19 -31 38 -69 41 -85 3 -17 11 -54 16 -84 18 -93 43 -120 184 -190 133 -67 177 -78 245 -63 27 7 44 6 48 0 4 -6 24 -7 48 -4 22 4 75 10 116 14 54 5 83 13 103 28 15 12 43 25 62 28 88 17 192 82 221 138 9 17 24 54 34 82 10 28 28 76 39 107 11 31 25 87 30 125 5 38 19 94 30 124 18 49 19 75 17 240 -3 152 -7 196 -23 247 -17 51 -19 70 -10 106 7 34 6 54 -5 88 -12 37 -13 52 -2 94 8 28 17 85 20 127 l7 77 56 33 c72 43 109 101 116 183 3 33 8 70 10 83 l5 22 -821 0 -821 0 7 -57z m829 -210 c9 -67 35 -105 105 -153 57 -38 61 -43 61 -79 0 -78 9 -97 74 -148 86 -69 119 -132 117 -224 0 -38 8 -110 19 -159 15 -67 18 -100 11 -130 -10 -46 -41 -102 -59 -108 -19 -6 -16 73 4 89 14 11 13 14 -6 29 -29 22 -36 89 -20 197 l12 84 -40 82 c-42 84 -54 80 -27 -9 19 -62 19 -108 0 -170 -8 -27 -15 -66 -15 -86 0 -29 -4 -38 -17 -39 -17 -1 -17 -2 0 -6 9 -2 17 -11 17 -20 0 -13 -3 -13 -15 -3 -20 16 -45 5 -45 -20 0 -21 -14 -27 -25 -10 -4 6 -11 8 -16 4 -6 -3 -19 2 -30 12 -10 9 -19 12 -19 7 0 -6 16 -25 35 -42 29 -25 45 -31 81 -31 45 0 46 0 39 -30 -4 -17 -14 -44 -22 -61 -13 -26 -19 -30 -41 -24 -14 3 -39 17 -55 31 -16 13 -36 24 -45 24 -18 0 61 -83 88 -92 11 -3 3 -17 -29 -54 -44 -50 -91 -135 -91 -166 0 -22 -13 -23 -31 -2 -18 22 -75 57 -119 73 -213 81 -309 182 -280 291 11 39 12 40 33 25 12 -8 29 -15 39 -15 26 0 22 -15 -9 -31 -28 -14 -28 -14 24 -17 29 -2 78 -2 110 0 l58 3 -43 19 -43 19 38 25 c39 26 53 40 53 56 0 5 -9 1 -19 -8 -11 -10 -25 -15 -31 -11 -6 3 -9 1 -8 -7 2 -7 -8 -14 -22 -16 -21 -3 -22 -2 -11 12 19 22 6 48 -21 44 -18 -2 -23 -9 -23 -30 1 -36 -22 -36 -28 0 -4 24 -4 24 -6 -6 -1 -35 -16 -39 -35 -10 -14 23 8 46 50 54 19 3 32 10 29 14 -8 13 -60 -8 -86 -36 -29 -31 -39 -30 -39 5 0 16 -7 45 -15 66 -18 42 -14 60 26 123 34 54 36 83 8 128 -18 30 -19 36 -6 61 19 36 63 81 109 113 37 25 48 53 48 126 0 34 16 52 93 104 51 34 77 77 77 129 0 36 9 63 20 56 4 -2 10 -26 14 -52z m246 -899 c0 -8 -9 -14 -20 -14 -17 0 -19 3 -8 19 13 21 28 19 28 -5z m71 -132 c-5 -9 -19 -26 -31 -37 l-22 -20 22 38 c22 37 50 55 31 19z m-117 -137 c-35 -43 -44 -51 -44 -40 0 6 71 85 77 85 2 0 -12 -20 -33 -45z"/>
 <path d="M895 1258 c-9 -14 -11 -24 -5 -26 14 -5 40 17 40 34 0 21 -17 17 -35 -8z"/>
 <path d="M1100 1233 c0 -14 19 -38 25 -32 8 8 -5 39 -16 39 -5 0 -9 -3 -9 -7z"/>
 </g>
<g id="layer110" fill="#3d4d89" stroke="none">
 <path d="M195 1943 c13 -112 26 -145 75 -194 l47 -47 7 -88 c3 -49 15 -118 26 -155 16 -51 18 -73 10 -94 -12 -33 -13 -126 -1 -157 6 -17 2 -44 -15 -97 -13 -41 -27 -97 -30 -126 -7 -56 10 -158 32 -192 8 -13 14 -49 14 -85 0 -89 21 -164 62 -228 19 -31 38 -69 41 -85 3 -17 11 -54 16 -84 18 -93 43 -120 184 -190 133 -67 177 -78 245 -63 27 7 44 6 48 0 4 -6 24 -7 48 -4 22 4 75 10 116 14 54 5 83 13 103 28 15 12 43 25 62 28 88 17 192 82 221 138 9 17 24 54 34 82 10 28 28 76 39 107 11 31 25 87 30 125 5 38 19 94 30 124 18 49 19 75 17 240 -3 152 -7 196 -23 247 -17 51 -19 70 -10 106 7 34 6 54 -5 88 -12 37 -13 52 -2 94 8 28 17 85 20 127 l7 77 56 33 c72 43 109 101 116 183 3 33 8 70 10 83 l5 22 -821 0 -821 0 7 -57z m829 -205 c10 -74 27 -100 101 -152 52 -38 65 -52 65 -74 0 -15 6 -48 13 -74 10 -37 22 -54 64 -87 28 -23 66 -65 85 -94 30 -49 32 -58 34 -147 0 -57 8 -118 18 -154 19 -65 15 -115 -14 -183 -13 -30 -25 -43 -38 -43 -18 0 -19 5 -15 43 3 23 9 46 14 51 5 6 2 17 -6 26 -21 23 -34 104 -24 148 5 20 9 65 9 100 0 53 -6 74 -35 129 -19 36 -35 63 -35 60 0 -3 9 -43 20 -90 20 -83 20 -84 0 -158 -11 -41 -20 -86 -20 -101 0 -19 -5 -28 -17 -29 -17 -1 -17 -2 0 -6 9 -2 17 -11 17 -20 0 -13 -3 -13 -15 -3 -20 16 -45 5 -45 -20 0 -23 -10 -26 -28 -8 -9 9 -12 9 -12 -2 0 -9 -5 -8 -20 5 -11 10 -20 13 -20 7 0 -20 58 -52 104 -58 50 -7 56 -19 34 -71 -6 -15 -12 -32 -12 -38 -2 -19 -64 -7 -102 19 -21 14 -43 26 -48 26 -13 0 31 -45 70 -72 19 -13 34 -27 34 -31 0 -4 -18 -27 -40 -50 -44 -45 -90 -132 -90 -167 0 -21 -2 -20 -36 9 -31 27 -60 44 -149 82 -142 60 -201 103 -236 171 -10 21 -19 52 -19 70 1 38 24 86 34 70 3 -6 27 -14 51 -18 44 -6 63 -24 27 -24 -10 0 -26 -6 -35 -12 -14 -11 1 -13 85 -15 93 -2 101 0 78 12 -14 8 -35 14 -47 15 -33 0 -28 18 10 33 17 8 41 25 52 38 15 17 15 20 3 10 -10 -7 -24 -11 -33 -7 -8 3 -14 1 -12 -5 1 -6 -8 -15 -20 -20 -29 -11 -41 8 -17 26 14 10 16 17 8 25 -21 21 -49 7 -49 -23 1 -35 -22 -35 -28 1 -4 25 -4 25 -6 -5 -1 -35 -20 -44 -39 -20 -17 20 12 55 53 63 19 3 33 10 30 14 -9 15 -65 -11 -87 -41 -25 -33 -38 -29 -38 10 0 16 -7 45 -15 66 -18 42 -14 60 27 124 31 50 32 90 2 137 -14 20 -14 26 -1 51 19 36 63 81 109 113 33 22 38 30 43 80 10 91 11 94 81 140 74 49 94 82 94 155 0 66 25 61 34 -7z m343 -305 c-3 -10 -5 -2 -5 17 0 19 2 27 5 18 2 -10 2 -26 0 -35z m-757 -272 c0 -45 -6 -37 -13 18 -4 29 -2 40 4 30 5 -7 9 -29 9 -48z m-229 -286 c7 -21 6 -26 -1 -19 -6 6 -13 28 -15 50 -2 21 -2 30 1 19 3 -11 10 -33 15 -50z m889 -35 c0 -13 -7 -20 -20 -20 -22 0 -28 25 -7 33 22 10 27 7 27 -13z m27 -57 c-3 -10 -5 -2 -5 17 0 19 2 27 5 18 2 -10 2 -26 0 -35z m277 -85 c-26 -50 -68 -101 -121 -144 -41 -33 -38 -27 25 39 40 43 80 93 89 112 9 19 18 33 21 31 2 -2 -4 -19 -14 -38z m-233 5 c-19 -32 -70 -88 -71 -77 0 6 7 17 16 25 8 7 22 25 30 41 8 15 19 28 25 28 6 0 6 -6 0 -17z m-88 -105 c-6 -7 -27 -35 -47 -61 -20 -27 -36 -42 -36 -35 0 24 69 108 88 108 3 0 0 -6 -5 -12z"/>
 <path d="M902 1259 c-12 -18 -11 -20 5 -17 10 2 19 11 21 21 5 23 -10 21 -26 -4z"/>
 </g>
<g id="layer111" fill="#4b3f3d" stroke="none">
 <path d="M195 1943 c13 -112 26 -145 75 -194 l47 -47 7 -88 c3 -49 15 -118 26 -155 16 -51 18 -73 10 -94 -12 -33 -13 -126 -1 -157 6 -17 2 -44 -15 -97 -13 -41 -27 -97 -30 -126 -7 -56 10 -158 32 -192 8 -13 14 -49 14 -85 0 -89 21 -164 62 -228 19 -31 38 -69 41 -85 3 -17 11 -54 16 -84 18 -93 43 -120 184 -190 133 -67 177 -78 245 -63 27 7 44 6 48 0 4 -6 24 -7 48 -4 22 4 75 10 116 14 54 5 83 13 103 28 15 12 43 25 62 28 88 17 192 82 221 138 9 17 24 54 34 82 10 28 28 76 39 107 11 31 25 87 30 125 5 38 19 94 30 124 18 49 19 75 17 240 -3 152 -7 196 -23 247 -17 51 -19 70 -10 106 7 34 6 54 -5 88 -12 37 -13 52 -2 94 8 28 17 85 20 127 l7 77 56 33 c72 43 109 101 116 183 3 33 8 70 10 83 l5 22 -821 0 -821 0 7 -57z m829 -205 c10 -74 27 -100 101 -152 52 -38 65 -52 65 -74 0 -15 6 -48 13 -74 10 -37 22 -54 64 -87 28 -23 66 -65 85 -94 30 -49 32 -58 34 -147 0 -57 8 -118 18 -154 19 -65 15 -115 -14 -183 -13 -30 -25 -43 -38 -43 -18 0 -19 5 -15 43 3 23 9 46 14 51 5 6 2 17 -6 26 -21 23 -34 104 -24 148 5 20 9 65 9 100 0 53 -6 74 -35 129 -19 36 -35 63 -35 60 0 -3 9 -43 20 -89 20 -84 20 -85 0 -159 -22 -86 -26 -129 -15 -181 7 -36 6 -38 -17 -38 -33 0 -89 19 -110 38 -10 9 -18 10 -18 4 0 -20 58 -52 104 -58 50 -7 56 -19 34 -71 -6 -15 -12 -32 -12 -38 -2 -19 -64 -7 -102 19 -21 14 -43 26 -48 26 -13 0 31 -45 70 -72 19 -13 34 -27 34 -31 0 -4 -18 -27 -40 -50 -44 -45 -90 -132 -90 -167 0 -21 -2 -20 -36 9 -31 27 -60 44 -149 82 -142 60 -201 103 -236 171 -10 21 -19 52 -19 70 1 38 24 86 34 70 3 -6 27 -14 51 -18 44 -6 63 -24 27 -24 -10 0 -26 -6 -35 -12 -14 -11 1 -13 85 -15 93 -2 101 0 78 12 -14 8 -35 14 -47 15 -33 0 -28 18 10 33 17 8 40 23 50 35 17 18 14 18 -29 -4 -51 -26 -141 -33 -162 -12 -16 16 3 47 41 63 22 10 26 14 13 15 -10 0 -33 -16 -51 -34 -36 -38 -45 -37 -45 4 0 15 -7 44 -15 65 -18 42 -14 60 27 124 31 50 32 90 2 137 -14 20 -14 26 -1 51 19 36 63 81 109 113 33 22 38 30 43 80 10 91 11 94 81 140 74 49 94 82 94 155 0 66 25 61 34 -7z m343 -305 c-3 -10 -5 -2 -5 17 0 19 2 27 5 18 2 -10 2 -26 0 -35z m-757 -272 c0 -45 -6 -37 -13 18 -4 29 -2 40 4 30 5 -7 9 -29 9 -48z m-229 -286 c7 -21 6 -26 -1 -19 -6 6 -13 28 -15 50 -2 21 -2 30 1 19 3 -11 10 -33 15 -50z m916 -92 c-3 -10 -5 -2 -5 17 0 19 2 27 5 18 2 -10 2 -26 0 -35z m277 -85 c-26 -50 -68 -101 -121 -144 -41 -33 -38 -27 25 39 40 43 80 93 89 112 9 19 18 33 21 31 2 -2 -4 -19 -14 -38z m-233 5 c-19 -32 -70 -88 -71 -77 0 6 7 17 16 25 8 7 22 25 30 41 8 15 19 28 25 28 6 0 6 -6 0 -17z m-88 -105 c-6 -7 -27 -35 -47 -61 -20 -27 -36 -42 -36 -35 0 24 69 108 88 108 3 0 0 -6 -5 -12z"/>
 <path d="M902 1259 c-12 -18 -11 -20 5 -17 10 2 19 11 21 21 5 23 -10 21 -26 -4z"/>
 <path d="M766 875 c-5 -14 2 -45 10 -45 2 0 13 8 24 17 14 13 17 20 8 30 -14 17 -35 16 -42 -2z"/>
 <path d="M1207 883 c-10 -10 -8 -41 3 -48 15 -9 43 23 36 40 -6 16 -28 20 -39 8z"/>
 </g>
<g id="layer112" fill="#663f39" stroke="none">
 <path d="M194 1962 c15 -125 30 -166 77 -213 l46 -47 7 -88 c3 -49 15 -118 26 -155 16 -51 18 -73 10 -94 -12 -33 -13 -126 -1 -157 6 -17 2 -44 -15 -97 -13 -41 -27 -97 -30 -126 -7 -56 10 -158 32 -192 8 -13 14 -49 14 -85 0 -89 21 -164 62 -228 19 -31 38 -69 41 -85 3 -17 11 -54 16 -84 18 -93 43 -120 184 -190 133 -67 177 -78 245 -63 27 7 44 6 48 0 4 -6 24 -7 48 -4 22 4 75 10 116 14 54 5 83 13 103 28 15 12 43 25 62 28 88 17 192 82 221 138 9 17 24 54 34 82 10 28 28 76 39 107 11 31 25 87 30 125 5 38 19 94 30 124 18 49 19 75 17 240 -3 152 -7 196 -23 247 -17 51 -19 70 -10 106 7 34 6 54 -5 88 -12 37 -13 52 -2 94 8 28 17 85 20 127 l7 78 52 29 c29 17 63 43 74 60 30 42 54 101 41 101 -6 0 -8 5 -4 11 4 7 8 26 10 43 2 17 6 41 9 54 5 22 5 22 -108 22 l-114 0 -7 -85 c-3 -47 -1 -127 4 -179 8 -65 8 -119 0 -177 -5 -46 -10 -87 -10 -91 0 -21 -19 -4 -35 32 -14 31 -16 51 -10 92 4 29 8 118 9 198 1 80 6 160 10 178 5 20 5 32 -1 32 -18 0 -37 -121 -39 -245 -1 -66 -5 -145 -9 -176 -7 -51 -4 -61 27 -125 50 -99 52 -112 23 -201 -38 -120 -32 -170 40 -342 34 -80 30 -142 -13 -235 -38 -81 -76 -123 -192 -211 -58 -44 -113 -96 -139 -131 l-44 -59 74 71 c41 39 105 93 142 119 38 26 75 58 84 72 25 37 26 21 3 -40 -12 -32 -41 -79 -68 -108 -27 -30 -38 -47 -25 -41 54 29 133 160 133 221 0 10 7 24 15 31 19 16 19 19 -5 -68 -23 -84 -67 -175 -105 -220 -42 -50 -125 -105 -195 -130 -62 -22 -63 -23 -20 -17 61 7 159 58 209 108 23 22 41 36 41 31 0 -19 -63 -85 -104 -109 -53 -31 -179 -75 -220 -76 l-31 -1 30 -8 c25 -6 27 -8 12 -15 -10 -4 -38 -5 -63 -1 -30 4 -57 1 -81 -9 -36 -15 -88 -21 -66 -7 6 4 -35 7 -90 7 -71 0 -113 5 -137 16 -34 15 -33 16 73 16 60 0 112 4 117 9 5 5 -37 9 -98 10 -170 1 -286 45 -327 125 -25 48 -17 51 27 8 72 -69 180 -111 281 -108 39 2 37 2 -15 9 -138 18 -255 88 -302 183 -24 49 -30 75 -36 170 -7 110 -8 114 -66 231 -56 113 -59 124 -58 190 0 50 10 100 32 170 38 118 41 196 12 306 -43 161 -52 229 -45 360 3 69 9 146 12 173 l6 47 -87 0 -87 0 5 -38z m193 -699 c-2 -16 -4 -5 -4 22 0 28 2 40 4 28 2 -13 2 -35 0 -50z m1239 -223 l4 -85 -21 45 c-24 51 -36 144 -24 187 8 28 8 28 22 -17 8 -25 16 -83 19 -130z m-1209 -366 c16 -36 27 -80 30 -123 5 -82 -9 -66 -36 41 -38 152 -36 174 6 82z"/>
 <path d="M422 1866 c-10 -120 -9 -141 6 -193 13 -45 16 -87 14 -188 -2 -93 1 -150 12 -199 22 -92 20 -124 -9 -202 -35 -93 -33 -138 13 -242 35 -82 37 -92 34 -174 -4 -114 18 -167 98 -242 96 -89 208 -138 305 -135 32 2 34 3 10 6 -94 11 -191 52 -265 112 -102 82 -120 120 -120 251 0 93 -3 108 -35 186 -42 100 -44 143 -11 224 37 91 39 110 17 198 -16 61 -21 112 -21 209 0 90 -5 146 -16 184 -13 44 -15 79 -9 196 4 85 3 143 -2 143 -5 0 -14 -60 -21 -134z"/>
 <path d="M518 1925 c-22 -100 -22 -140 -2 -196 17 -45 37 -235 35 -324 -1 -63 -1 -186 2 -245 0 -25 -5 -66 -13 -92 -13 -43 -12 -52 9 -121 17 -52 22 -84 17 -108 -20 -93 -18 -135 7 -186 39 -75 145 -165 259 -218 85 -40 90 -29 7 13 -145 73 -249 175 -265 261 -4 19 -2 55 4 78 16 59 15 117 -3 160 -19 46 -19 101 1 149 12 28 14 52 9 89 -8 51 -9 121 -5 210 3 63 -25 298 -39 323 -24 45 -29 101 -14 169 7 37 12 79 11 93 -2 15 -10 -9 -20 -55z"/>
 <path d="M615 1913 c5 -49 8 -117 7 -153 -1 -36 -3 -132 -5 -215 -1 -85 -8 -169 -15 -193 -16 -54 -9 -93 30 -155 33 -52 33 -78 -3 -128 -39 -55 -42 -82 -19 -137 19 -45 21 -57 11 -102 -22 -103 -7 -153 71 -226 53 -51 110 -84 210 -122 42 -17 92 -40 110 -52 l33 -22 -33 30 c-19 17 -55 38 -80 47 -138 52 -254 131 -288 196 -17 34 -18 84 -2 144 11 39 10 53 -5 94 -24 67 -22 89 13 141 33 50 38 91 15 138 -14 27 -14 34 -1 59 18 35 86 107 109 116 9 3 17 11 17 17 0 6 5 8 10 5 6 -3 10 4 11 17 1 50 11 113 19 127 4 8 34 33 66 56 66 46 82 72 91 145 8 64 28 66 38 3 10 -71 33 -112 79 -140 61 -38 86 -64 86 -89 0 -44 24 -126 39 -132 20 -8 132 -119 135 -135 1 -6 7 -21 13 -33 7 -11 12 -56 11 -100 0 -45 7 -107 17 -144 30 -112 10 -183 -80 -294 -53 -65 -70 -69 -29 -6 15 23 33 69 40 103 11 53 11 65 -2 85 -17 26 -21 99 -9 204 6 56 4 85 -5 108 -9 23 -15 28 -21 18 -5 -7 -9 -17 -9 -23 0 -5 4 -3 9 4 16 25 25 -33 16 -102 -11 -82 -11 -157 -1 -243 8 -68 8 -71 -17 -86 l-25 -17 10 42 c6 27 6 69 -1 118 -7 52 -7 88 0 113 6 21 8 40 6 42 -6 6 -27 -80 -29 -116 0 -14 2 -42 7 -62 7 -36 6 -38 -18 -38 -13 0 -44 7 -67 15 -24 8 -45 13 -47 11 -8 -8 54 -35 96 -42 34 -5 41 -10 41 -29 0 -26 -25 -91 -39 -100 -9 -5 -51 15 -107 52 -14 8 -27 13 -30 11 -6 -7 90 -88 105 -88 20 0 11 -18 -25 -49 -37 -33 -94 -130 -94 -161 0 -10 -7 -25 -15 -34 -10 -9 -11 -17 -5 -21 6 -3 12 0 15 7 39 113 53 137 104 191 52 55 116 104 83 65 -7 -9 -10 -22 -7 -29 3 -8 -13 -38 -35 -68 -22 -29 -40 -57 -40 -62 0 -5 -6 -8 -12 -6 -8 1 -14 -11 -15 -33 -2 -30 -1 -32 7 -12 14 33 56 93 61 87 3 -2 27 19 55 48 28 29 33 37 12 17 -58 -52 -45 -26 25 54 69 76 117 151 118 182 0 18 1 18 10 -1 12 -28 1 98 -14 150 -6 22 -12 94 -13 160 -2 134 -5 165 -15 159 -10 -6 -20 26 -12 38 3 6 1 8 -5 5 -14 -9 -52 71 -52 109 0 17 11 64 25 104 14 40 25 86 25 101 0 16 -16 90 -35 165 -19 75 -35 147 -35 160 l0 24 -351 0 -352 0 8 -87z"/>
 <path d="M1435 1953 c-4 -27 -9 -109 -10 -183 -2 -103 -8 -154 -25 -214 -27 -98 -23 -132 25 -231 41 -82 42 -88 30 -210 -6 -65 -3 -96 14 -166 12 -48 21 -100 21 -115 -1 -50 -35 -108 -125 -210 -85 -96 -134 -178 -148 -249 -6 -28 -6 -29 4 -5 45 107 81 162 160 246 48 50 96 109 108 132 25 50 28 132 6 212 -18 67 -19 118 -3 209 l12 70 -47 94 c-53 105 -55 126 -28 235 15 58 20 121 23 255 3 176 -3 220 -17 130z"/>
 <path d="M766 875 c-5 -14 2 -45 10 -45 2 0 13 9 23 19 14 14 16 22 8 30 -15 15 -34 14 -41 -4z"/>
 <path d="M1204 875 c-8 -19 2 -45 16 -45 6 0 9 4 5 9 -3 6 2 14 11 19 9 5 14 14 10 21 -10 16 -36 14 -42 -4z"/>
 <path d="M671 846 c-15 -18 2 -32 52 -41 45 -9 48 -20 5 -29 -49 -10 -30 -15 71 -19 98 -4 104 8 13 22 l-47 8 56 25 c31 14 60 31 64 38 4 7 -4 4 -19 -5 -34 -22 -150 -33 -171 -15 -8 7 -12 16 -9 21 8 14 -2 11 -15 -5z"/>
 <path d="M1218 593 c-14 -16 -33 -41 -42 -58 -17 -30 -17 -30 1 -5 10 13 31 39 47 57 34 40 30 44 -6 6z"/>
 </g>
<g id="layer113" fill="#353b54" stroke="none">
 <path d="M195 1963 c25 -159 28 -166 76 -214 l46 -47 7 -88 c3 -49 15 -118 26 -155 16 -51 18 -73 10 -94 -12 -33 -13 -126 -1 -157 6 -17 2 -44 -15 -97 -13 -41 -27 -97 -30 -126 -7 -56 10 -158 32 -192 8 -13 14 -49 14 -85 0 -89 21 -164 62 -228 19 -31 38 -69 41 -85 3 -17 11 -54 16 -84 18 -93 43 -120 184 -190 133 -67 177 -78 245 -63 27 7 44 6 48 0 4 -6 24 -7 48 -4 22 4 75 10 116 14 54 5 83 13 103 28 15 12 43 25 62 28 88 17 192 82 221 138 9 17 24 54 34 82 10 28 28 76 39 107 11 31 25 87 30 125 5 38 19 94 30 124 18 49 19 75 17 240 -3 152 -7 196 -23 247 -17 51 -19 70 -10 106 7 34 6 54 -5 88 -12 37 -13 52 -2 94 8 28 17 85 20 127 l7 78 52 29 c29 17 63 43 74 60 28 39 54 101 42 101 -5 0 -5 15 0 38 5 20 9 49 9 65 l0 27 -109 0 -108 0 -7 -85 c-3 -47 -1 -127 4 -179 8 -65 8 -119 0 -177 -5 -46 -10 -87 -10 -91 0 -21 -19 -4 -35 32 -14 31 -16 51 -10 92 4 29 8 118 9 198 1 80 6 160 10 178 5 20 5 32 -1 32 -18 0 -37 -121 -39 -245 -1 -66 -5 -145 -9 -176 -7 -51 -4 -61 27 -125 50 -99 52 -112 23 -201 -38 -120 -32 -170 40 -342 34 -80 30 -142 -13 -235 -38 -81 -76 -123 -192 -211 -58 -44 -113 -96 -139 -131 l-44 -59 74 71 c41 39 105 93 142 119 38 26 75 58 84 72 25 37 26 21 3 -40 -12 -32 -41 -79 -68 -108 -27 -30 -38 -47 -25 -41 54 29 133 160 133 221 0 10 7 24 15 31 19 16 19 19 -5 -68 -23 -84 -67 -175 -105 -220 -42 -50 -125 -105 -195 -130 -62 -22 -63 -23 -20 -17 61 7 159 58 209 108 23 22 41 36 41 31 0 -19 -63 -85 -104 -109 -53 -31 -179 -75 -220 -76 l-31 -1 30 -8 c25 -6 27 -8 12 -15 -10 -4 -38 -5 -63 -1 -30 4 -57 1 -81 -9 -36 -15 -88 -21 -66 -7 6 4 -35 7 -90 7 -71 0 -113 5 -137 16 -34 15 -33 16 73 16 60 0 112 4 117 9 5 5 -37 9 -98 10 -170 1 -286 45 -327 125 -25 48 -17 51 27 8 72 -69 180 -111 281 -108 39 2 37 2 -15 9 -138 18 -255 88 -302 183 -24 49 -30 75 -36 170 -7 110 -8 114 -66 231 -56 113 -59 124 -58 190 0 50 10 100 32 170 38 118 41 196 12 306 -43 161 -52 229 -45 360 3 69 9 146 12 173 l6 47 -87 0 -87 0 6 -37z m192 -700 c-2 -16 -4 -5 -4 22 0 28 2 40 4 28 2 -13 2 -35 0 -50z m1239 -223 l4 -85 -21 45 c-24 51 -36 144 -24 187 8 28 8 28 22 -17 8 -25 16 -83 19 -130z m-1209 -366 c16 -36 27 -80 30 -123 5 -82 -9 -66 -36 41 -38 152 -36 174 6 82z"/>
 <path d="M422 1866 c-10 -120 -9 -141 6 -193 13 -45 16 -87 14 -188 -2 -93 1 -150 12 -199 22 -92 20 -124 -9 -202 -35 -93 -33 -138 13 -242 35 -82 37 -92 34 -174 -4 -114 18 -167 98 -242 96 -89 208 -138 305 -135 32 2 34 3 10 6 -94 11 -191 52 -265 112 -102 82 -120 120 -120 251 0 93 -3 108 -35 186 -42 100 -44 143 -11 224 37 91 39 110 17 198 -16 61 -21 112 -21 209 0 90 -5 146 -16 184 -13 44 -15 79 -9 196 4 85 3 143 -2 143 -5 0 -14 -60 -21 -134z"/>
 <path d="M518 1925 c-22 -100 -22 -140 -2 -196 17 -45 37 -235 35 -324 -1 -63 -1 -186 2 -245 0 -25 -5 -66 -13 -92 -13 -43 -12 -52 9 -121 17 -52 22 -84 17 -108 -20 -93 -18 -135 7 -186 39 -75 145 -165 259 -218 85 -40 90 -29 7 13 -145 73 -249 175 -265 261 -4 19 -2 55 4 78 16 59 15 117 -3 160 -19 46 -19 101 1 149 12 28 14 52 9 89 -8 51 -9 121 -5 210 3 63 -25 298 -39 323 -24 45 -29 101 -14 169 7 37 12 79 11 93 -2 15 -10 -9 -20 -55z"/>
 <path d="M615 1913 c5 -49 8 -117 7 -153 -1 -36 -3 -132 -5 -215 -1 -85 -8 -169 -15 -193 -16 -54 -9 -93 30 -155 33 -52 33 -78 -3 -128 -39 -55 -42 -82 -19 -137 19 -45 21 -57 11 -102 -22 -103 -7 -153 71 -226 53 -51 110 -84 210 -122 42 -17 92 -40 110 -52 l33 -22 -33 30 c-19 17 -55 38 -80 47 -138 52 -254 131 -288 196 -17 34 -18 84 -2 144 11 39 10 53 -5 94 -24 67 -22 89 13 141 36 54 39 100 9 141 -20 28 -20 31 -4 57 9 15 46 54 81 88 61 57 65 64 79 130 15 72 17 74 99 131 50 35 64 62 73 136 3 28 11 47 18 47 7 0 16 -20 20 -47 11 -75 33 -111 89 -147 67 -43 72 -50 84 -124 11 -61 14 -66 85 -133 90 -83 106 -118 105 -225 0 -45 7 -107 17 -144 30 -112 10 -183 -80 -294 -53 -65 -70 -69 -29 -6 15 23 33 69 40 103 11 53 11 65 -2 85 -17 26 -21 99 -9 204 6 56 4 85 -5 108 -9 23 -15 28 -21 18 -5 -7 -9 -17 -9 -23 0 -5 4 -3 9 4 16 25 25 -33 16 -102 -11 -82 -11 -157 -1 -242 8 -67 7 -71 -18 -94 l-26 -25 7 35 c9 37 9 81 3 174 -3 33 -2 76 2 95 6 27 4 25 -7 -9 -17 -53 -20 -93 -10 -143 7 -36 6 -38 -18 -38 -13 0 -44 7 -67 15 -24 8 -45 13 -47 11 -8 -8 54 -35 96 -42 34 -5 41 -10 41 -29 0 -26 -25 -91 -39 -100 -9 -5 -51 15 -107 52 -14 8 -27 13 -30 11 -6 -7 90 -88 105 -88 20 0 11 -18 -25 -49 -37 -33 -94 -130 -94 -161 0 -10 -7 -25 -15 -34 -10 -9 -11 -17 -5 -21 6 -3 12 0 15 7 39 113 53 137 104 191 52 55 116 104 83 65 -7 -9 -10 -22 -7 -29 3 -8 -13 -38 -35 -68 -22 -29 -40 -57 -40 -62 0 -5 -6 -8 -12 -6 -8 1 -14 -11 -15 -33 -2 -30 -1 -32 7 -12 14 33 56 93 61 87 3 -2 27 19 55 48 28 29 33 37 12 17 -58 -52 -45 -26 25 54 69 76 117 151 118 182 0 18 1 18 10 -1 12 -28 1 98 -14 150 -6 22 -12 94 -13 160 -2 134 -5 165 -15 159 -10 -6 -20 26 -12 38 3 6 1 8 -5 5 -14 -9 -52 71 -52 109 0 17 11 64 25 104 14 40 25 86 25 101 0 16 -16 90 -35 165 -19 75 -35 147 -35 160 l0 24 -351 0 -352 0 8 -87z"/>
 <path d="M1435 1953 c-4 -27 -9 -109 -10 -183 -2 -103 -8 -154 -25 -214 -27 -98 -23 -132 25 -231 41 -82 42 -88 30 -210 -6 -65 -3 -96 14 -166 12 -48 21 -100 21 -115 -1 -50 -35 -108 -125 -210 -85 -96 -134 -178 -148 -249 -6 -28 -6 -29 4 -5 45 107 81 162 160 246 48 50 96 109 108 132 25 50 28 132 6 212 -18 67 -19 118 -3 209 l12 70 -47 94 c-53 105 -55 126 -28 235 15 58 20 121 23 255 3 176 -3 220 -17 130z"/>
 <path d="M766 875 c-5 -14 2 -45 10 -45 2 0 13 9 23 19 14 14 16 22 8 30 -15 15 -34 14 -41 -4z"/>
 <path d="M1204 875 c-8 -19 2 -45 16 -45 6 0 9 4 5 9 -3 6 2 14 11 19 9 5 14 14 10 21 -10 16 -36 14 -42 -4z"/>
 <path d="M671 846 c-16 -19 6 -35 63 -42 50 -7 124 14 148 43 11 14 8 13 -15 -1 -53 -36 -204 -31 -181 5 8 14 -2 11 -15 -5z"/>
 <path d="M710 770 c-12 -8 -10 -10 10 -10 14 0 59 -2 100 -4 69 -3 73 -2 45 10 -35 15 -133 18 -155 4z"/>
 <path d="M1218 593 c-14 -16 -33 -41 -42 -58 -17 -30 -17 -30 1 -5 10 13 31 39 47 57 34 40 30 44 -6 6z"/>
 </g>
<g id="layer114" fill="#382c2b" stroke="none">
 <path d="M195 1963 c25 -159 28 -166 76 -214 l46 -47 7 -88 c3 -49 15 -118 26 -155 16 -51 18 -73 10 -94 -12 -33 -13 -126 -1 -157 6 -17 2 -44 -15 -97 -13 -41 -27 -97 -30 -126 -7 -56 10 -158 32 -192 8 -13 14 -49 14 -85 0 -89 21 -164 62 -228 19 -31 38 -69 41 -85 3 -17 11 -54 16 -84 18 -93 43 -120 184 -190 133 -67 177 -78 245 -63 27 7 44 6 48 0 4 -6 24 -7 48 -4 22 4 75 10 116 14 54 5 83 13 103 28 15 12 43 25 62 28 88 17 192 82 221 138 9 17 24 54 34 82 10 28 28 76 39 107 11 31 25 87 30 125 5 38 19 94 30 124 18 49 19 75 17 240 -3 152 -7 196 -23 247 -17 51 -19 70 -10 106 7 34 6 54 -5 88 -12 37 -13 52 -2 94 8 28 17 85 20 127 l7 78 52 29 c29 17 63 43 74 60 28 39 54 101 42 101 -5 0 -5 15 0 38 5 20 9 49 9 65 l0 27 -109 0 -108 0 -7 -85 c-3 -47 -1 -127 4 -179 8 -65 8 -119 0 -177 -5 -46 -10 -87 -10 -91 0 -21 -19 -4 -35 32 -14 31 -16 51 -10 92 4 29 8 118 9 198 1 80 6 160 10 178 5 20 5 32 -1 32 -18 0 -37 -121 -39 -245 -1 -66 -5 -145 -9 -176 -7 -51 -4 -61 27 -125 50 -99 52 -112 23 -201 -38 -120 -32 -170 40 -342 34 -80 30 -142 -13 -235 -38 -81 -76 -123 -192 -211 -58 -44 -113 -96 -139 -131 l-44 -59 74 71 c41 39 105 93 142 119 38 26 75 58 84 72 25 37 26 21 3 -40 -12 -32 -41 -79 -68 -108 -27 -30 -38 -47 -25 -41 54 29 133 160 133 221 0 10 7 24 15 31 19 16 19 19 -5 -68 -23 -84 -67 -175 -105 -220 -42 -50 -125 -105 -195 -130 -62 -22 -63 -23 -20 -17 61 7 159 58 209 108 23 22 41 36 41 31 0 -19 -63 -85 -104 -109 -53 -31 -179 -75 -220 -76 l-31 -1 30 -8 c25 -6 27 -8 12 -15 -10 -4 -38 -5 -63 -1 -30 4 -57 1 -81 -9 -36 -15 -88 -21 -66 -7 6 4 -35 7 -90 7 -71 0 -113 5 -137 16 -34 15 -33 16 73 16 60 0 112 4 117 9 5 5 -37 9 -98 10 -170 1 -286 45 -327 125 -25 48 -17 51 27 8 72 -69 180 -111 281 -108 39 2 37 2 -15 9 -138 18 -255 88 -302 183 -24 49 -30 75 -36 170 -7 110 -8 114 -66 231 -56 113 -59 124 -58 190 0 50 10 100 32 170 38 118 41 196 12 306 -43 161 -52 229 -45 360 3 69 9 146 12 173 l6 47 -87 0 -87 0 6 -37z m192 -700 c-2 -16 -4 -5 -4 22 0 28 2 40 4 28 2 -13 2 -35 0 -50z m1239 -223 l4 -85 -21 45 c-24 51 -36 144 -24 187 8 28 8 28 22 -17 8 -25 16 -83 19 -130z m-1209 -366 c16 -36 27 -80 30 -123 5 -82 -9 -66 -36 41 -38 152 -36 174 6 82z"/>
 <path d="M422 1866 c-10 -120 -9 -141 6 -193 13 -45 16 -87 14 -188 -2 -93 1 -150 12 -199 22 -92 20 -124 -9 -202 -35 -93 -33 -138 13 -242 35 -82 37 -92 34 -174 -4 -114 18 -167 98 -242 96 -89 208 -138 305 -135 32 2 34 3 10 6 -94 11 -191 52 -265 112 -102 82 -120 120 -120 251 0 93 -3 108 -35 186 -42 100 -44 143 -11 224 37 91 39 110 17 198 -16 61 -21 112 -21 209 0 90 -5 146 -16 184 -13 44 -15 79 -9 196 4 85 3 143 -2 143 -5 0 -14 -60 -21 -134z"/>
 <path d="M518 1925 c-22 -100 -22 -140 -2 -196 17 -45 37 -235 35 -324 -1 -63 -1 -186 2 -245 0 -25 -5 -66 -13 -92 -13 -43 -12 -52 9 -121 17 -52 22 -84 17 -108 -20 -93 -18 -135 7 -186 39 -75 145 -165 259 -218 85 -40 90 -29 7 13 -145 73 -249 175 -265 261 -4 19 -2 55 4 78 16 59 15 117 -3 160 -19 46 -19 101 1 149 12 28 14 52 9 89 -8 51 -9 121 -5 210 3 63 -25 298 -39 323 -24 45 -29 101 -14 169 7 37 12 79 11 93 -2 15 -10 -9 -20 -55z"/>
 <path d="M615 1913 c5 -49 8 -117 7 -153 -1 -36 -3 -132 -5 -215 -1 -85 -8 -169 -15 -193 -16 -54 -9 -93 30 -155 33 -52 33 -78 -3 -128 -39 -55 -42 -82 -19 -137 19 -45 21 -57 11 -102 -22 -103 -7 -153 71 -226 53 -51 110 -84 210 -122 42 -17 92 -40 110 -52 l33 -22 -33 30 c-19 17 -55 38 -80 47 -138 52 -254 131 -288 196 -17 34 -18 84 -2 144 11 39 10 53 -5 94 -24 67 -22 89 13 141 36 54 39 100 9 141 -20 28 -20 31 -4 57 9 15 46 54 81 88 61 57 65 64 79 130 15 72 17 74 99 131 50 35 64 62 73 136 3 28 11 47 18 47 7 0 16 -20 20 -47 11 -75 33 -111 89 -147 67 -43 72 -50 84 -124 11 -61 14 -66 85 -133 90 -83 106 -118 105 -225 0 -45 7 -107 17 -144 30 -112 10 -183 -80 -294 -53 -65 -70 -69 -29 -6 15 23 33 69 40 103 11 53 11 65 -2 85 -17 26 -21 99 -9 204 6 56 4 85 -5 108 -9 23 -15 28 -21 18 -5 -7 -9 -17 -9 -23 0 -5 4 -3 9 4 16 25 25 -33 16 -102 -11 -82 -11 -157 -1 -242 8 -67 7 -71 -18 -94 l-26 -25 7 35 c9 37 9 81 3 174 -3 33 -2 76 2 95 6 27 4 25 -8 -10 -11 -32 -13 -64 -8 -112 l6 -68 -31 0 c-18 0 -48 7 -68 15 -20 8 -38 13 -40 11 -8 -8 54 -35 96 -42 34 -5 41 -10 41 -29 0 -26 -25 -91 -39 -100 -9 -5 -51 15 -107 52 -14 8 -27 13 -30 11 -6 -7 90 -88 105 -88 20 0 11 -18 -25 -49 -37 -33 -94 -130 -94 -161 0 -10 -7 -25 -15 -34 -10 -9 -11 -17 -5 -21 6 -3 12 0 15 7 39 113 53 137 104 191 52 55 116 104 83 65 -7 -9 -10 -22 -7 -29 3 -8 -13 -38 -35 -68 -22 -29 -40 -57 -40 -62 0 -5 -6 -8 -12 -6 -8 1 -14 -11 -15 -33 -2 -30 -1 -32 7 -12 14 33 56 93 61 87 3 -2 27 19 55 48 28 29 33 37 12 17 -58 -52 -45 -26 25 54 69 76 117 151 118 182 0 18 1 18 10 -1 12 -28 1 98 -14 150 -6 22 -12 94 -13 160 -2 134 -5 165 -15 159 -10 -6 -20 26 -12 38 3 6 1 8 -5 5 -14 -9 -52 71 -52 109 0 17 11 64 25 104 14 40 25 86 25 101 0 16 -16 90 -35 165 -19 75 -35 147 -35 160 l0 24 -351 0 -352 0 8 -87z"/>
 <path d="M1435 1953 c-4 -27 -9 -109 -10 -183 -2 -103 -8 -154 -25 -214 -27 -98 -23 -132 25 -231 41 -82 42 -88 30 -210 -6 -65 -3 -96 14 -166 12 -48 21 -100 21 -115 -1 -50 -35 -108 -125 -210 -85 -96 -134 -178 -148 -249 -6 -28 -6 -29 4 -5 45 107 81 162 160 246 48 50 96 109 108 132 25 50 28 132 6 212 -18 67 -19 118 -3 209 l12 70 -47 94 c-53 105 -55 126 -28 235 15 58 20 121 23 255 3 176 -3 220 -17 130z"/>
 <path d="M770 875 c-10 -12 -10 -19 -2 -27 15 -15 48 14 38 31 -10 15 -21 14 -36 -4z"/>
 <path d="M1211 881 c-8 -5 -11 -16 -8 -25 6 -14 10 -14 27 -4 20 13 22 29 4 35 -5 1 -15 -1 -23 -6z"/>
 <path d="M671 846 c-16 -19 6 -35 63 -42 49 -7 124 14 146 41 7 8 -3 6 -27 -6 -44 -23 -145 -26 -162 -6 -6 8 -8 17 -4 20 3 4 4 7 1 7 -3 0 -11 -6 -17 -14z"/>
 <path d="M710 770 c-12 -8 -10 -10 10 -10 14 0 59 -2 100 -4 69 -3 73 -2 45 10 -35 15 -133 18 -155 4z"/>
 <path d="M1218 593 c-14 -16 -33 -41 -42 -58 -17 -30 -17 -30 1 -5 10 13 31 39 47 57 34 40 30 44 -6 6z"/>
 </g>
<g id="layer115" fill="#171b1f" stroke="none">
 <path d="M197 1953 c3 -27 9 -61 14 -77 5 -16 9 -40 9 -53 0 -15 17 -41 48 -72 l49 -49 7 -88 c3 -49 15 -118 26 -155 16 -51 18 -73 10 -94 -12 -33 -13 -126 -1 -157 6 -17 2 -44 -15 -97 -13 -41 -27 -97 -30 -126 -7 -56 10 -158 32 -192 8 -13 14 -49 14 -85 0 -89 21 -164 62 -228 19 -31 38 -69 41 -85 3 -17 11 -54 16 -84 18 -93 43 -120 184 -190 133 -67 177 -78 245 -63 27 7 44 6 48 0 4 -6 24 -7 48 -4 22 4 75 10 116 14 54 5 83 13 103 28 15 12 43 25 62 28 88 17 192 82 221 138 9 17 24 54 34 82 10 28 28 76 39 106 11 30 22 82 26 115 3 33 16 83 28 110 20 46 22 66 21 250 -1 175 -3 208 -22 264 -18 55 -19 71 -10 106 9 33 8 50 -4 86 -12 37 -13 51 -2 94 8 28 17 85 20 127 l7 78 52 29 c29 17 63 43 74 60 28 39 54 101 42 101 -4 0 -5 18 0 43 18 91 22 87 -95 87 -95 0 -105 -2 -111 -19 -3 -11 -5 -120 -3 -243 3 -210 -3 -288 -22 -288 -15 0 -44 75 -42 110 2 19 4 100 5 180 2 80 6 170 10 200 6 47 5 50 -4 20 -8 -29 -26 -248 -32 -405 -1 -28 10 -64 36 -119 20 -43 37 -88 37 -100 0 -11 -12 -57 -26 -101 -32 -100 -28 -142 28 -280 35 -87 39 -108 36 -160 -8 -116 -85 -231 -222 -330 -34 -24 -79 -62 -101 -86 l-40 -43 45 40 c25 22 72 58 105 81 33 22 75 55 93 74 19 20 32 27 32 18 0 -19 -55 -135 -69 -143 -6 -4 -16 -17 -23 -29 -10 -20 -10 -21 6 -8 34 28 76 100 90 154 17 65 38 107 43 90 8 -22 -27 -137 -62 -210 -39 -79 -114 -156 -194 -199 -25 -13 -35 -22 -21 -18 39 10 110 53 158 98 43 39 44 40 29 11 -34 -67 -118 -123 -239 -161 -31 -9 -55 -21 -53 -25 8 -12 -24 -19 -85 -19 -31 0 -74 -7 -95 -16 -27 -11 -41 -12 -48 -5 -6 6 -48 11 -92 11 -75 0 -175 22 -175 38 0 4 46 6 102 6 l103 -2 -95 8 c-127 9 -209 34 -260 77 -33 29 -70 87 -70 111 0 2 22 -16 49 -41 47 -44 137 -98 163 -96 7 0 -11 11 -40 24 -68 31 -159 117 -173 164 -6 20 -14 88 -19 151 -8 112 -10 116 -65 226 -75 148 -80 196 -35 339 48 151 50 217 9 356 l-34 114 1 223 2 222 -78 0 -78 0 5 -47z m97 -162 c14 -14 26 -31 26 -39 0 -22 -48 24 -70 68 -28 55 -33 90 -6 40 13 -25 36 -56 50 -69z m1472 38 c-8 -19 -26 -46 -40 -61 -29 -29 -88 -60 -96 -51 -3 3 0 8 7 10 34 12 81 53 108 94 17 26 31 45 33 44 1 -1 -4 -17 -12 -36z m-1376 -544 c0 -37 -4 -65 -10 -65 -11 0 -13 71 -4 108 10 37 14 25 14 -43z m1242 -231 c16 -115 3 -138 -30 -54 -18 46 -25 84 -25 131 0 138 32 93 55 -77z m-1196 -418 c8 -21 16 -71 19 -110 l5 -71 -25 50 c-23 49 -55 173 -55 218 0 19 3 17 21 -13 12 -19 28 -52 35 -74z"/>
 <path d="M431 1900 c-15 -135 -14 -182 5 -248 13 -45 15 -80 10 -169 -4 -82 -2 -131 9 -183 21 -100 19 -149 -10 -226 -34 -89 -32 -119 15 -229 38 -90 40 -98 38 -187 -3 -113 11 -149 89 -224 47 -45 188 -132 198 -122 2 2 -25 18 -60 37 -71 36 -162 118 -191 171 -16 29 -19 53 -17 134 2 92 0 105 -33 189 -43 109 -44 153 -10 235 31 74 32 122 5 222 -16 63 -18 92 -13 180 6 90 3 116 -15 181 -19 70 -20 85 -11 204 6 70 9 129 7 132 -2 2 -9 -42 -16 -97z"/>
 <path d="M620 1936 c0 -35 5 -88 10 -117 8 -43 7 -70 -6 -131 -13 -62 -15 -90 -7 -145 7 -42 7 -87 2 -118 -5 -27 -12 -77 -15 -110 -5 -55 -4 -63 25 -105 39 -57 39 -86 0 -149 -33 -53 -35 -83 -8 -148 11 -26 11 -46 1 -101 -14 -85 -5 -123 43 -180 33 -38 151 -119 160 -110 3 3 -14 15 -38 28 -50 27 -123 95 -143 132 -17 33 -18 83 -2 143 11 39 10 53 -5 94 -24 67 -22 89 13 141 35 53 39 103 10 140 -11 14 -20 31 -20 39 0 7 36 49 80 91 69 67 81 85 90 127 6 26 12 58 15 70 3 13 30 39 63 62 77 52 81 59 94 135 13 80 34 88 44 19 11 -79 31 -111 99 -154 l62 -39 12 -74 12 -74 62 -48 c34 -27 66 -47 70 -46 5 1 6 -2 3 -7 -3 -5 5 -29 19 -53 21 -36 25 -56 25 -128 0 -47 7 -110 15 -140 31 -117 7 -205 -86 -313 -49 -57 -64 -55 -24 4 16 22 34 68 41 102 11 53 11 65 -2 85 -17 25 -20 90 -11 212 l6 85 -11 -80 c-13 -93 -14 -142 -3 -245 l7 -75 -32 -30 c-26 -24 -30 -26 -21 -8 13 25 14 150 1 208 -6 30 -7 22 -3 -32 l6 -73 -32 0 c-17 0 -48 7 -68 15 -48 20 -54 19 -18 -5 16 -11 49 -22 72 -26 37 -5 43 -10 43 -30 0 -34 -26 -93 -44 -100 -17 -6 -49 9 -89 42 -16 13 -34 24 -40 24 -16 -1 84 -90 101 -90 21 0 13 -17 -22 -48 -19 -16 -39 -40 -46 -53 -12 -25 -2 -16 70 67 29 34 82 57 59 26 -7 -9 -24 -30 -38 -47 l-26 -30 32 29 c17 15 36 26 41 22 5 -3 30 16 54 42 89 95 125 188 107 272 -6 25 -13 113 -17 195 -7 148 -7 151 -41 205 -45 72 -52 142 -22 218 30 74 27 126 -16 299 l-38 153 -337 0 -338 0 0 -64z m699 -202 c18 -25 31 -48 28 -50 -5 -5 -67 79 -67 90 0 12 8 5 39 -40z m-595 24 c-22 -39 -77 -108 -82 -103 -3 3 6 18 20 33 14 15 33 39 43 55 17 26 33 39 19 15z m-24 -163 c10 -12 3 -10 -23 5 -20 12 -40 26 -43 32 -10 15 51 -19 66 -37z m650 18 c0 -5 -13 -17 -28 -28 -27 -19 -27 -19 -12 0 22 29 40 42 40 28z m-44 -105 c-8 -30 -12 -36 -14 -21 -3 19 13 63 22 63 2 0 -2 -19 -8 -42z m-649 -60 c-2 -18 -4 -6 -4 27 0 33 2 48 4 33 2 -15 2 -42 0 -60z"/>
 <path d="M1442 1970 c0 -19 2 -27 5 -17 2 9 2 25 0 35 -3 9 -5 1 -5 -18z"/>
 <path d="M1432 1805 c-2 -100 -8 -154 -28 -234 -30 -123 -28 -139 28 -257 l41 -85 -11 -63 c-17 -88 -15 -126 9 -219 36 -140 21 -186 -102 -322 -44 -49 -85 -98 -91 -109 -6 -12 -9 -19 -6 -16 130 142 198 222 211 246 28 55 30 96 7 208 -19 91 -20 115 -11 169 18 105 15 132 -29 214 -45 87 -51 135 -25 234 12 44 15 99 12 211 l-3 153 -2 -130z"/>
 <path d="M506 1869 c-10 -51 -7 -83 12 -140 11 -30 22 -99 25 -154 4 -55 10 -113 15 -130 6 -20 4 -52 -6 -93 -12 -57 -12 -71 2 -128 16 -62 16 -67 -5 -134 l-21 -69 20 -59 c27 -78 29 -97 13 -163 -8 -31 -11 -72 -7 -91 8 -42 58 -115 106 -154 26 -22 22 -15 -17 29 -76 85 -80 104 -56 268 3 24 -3 60 -17 103 l-22 65 22 70 c23 69 23 72 7 138 -14 60 -15 75 -2 128 12 51 11 68 -1 115 -8 30 -14 80 -14 112 0 34 -11 90 -26 139 -20 64 -25 94 -20 131 7 54 2 65 -8 17z"/>
 <path d="M770 875 c-10 -12 -10 -19 -2 -27 13 -13 47 16 37 32 -9 14 -21 12 -35 -5z"/>
 <path d="M1210 875 c-18 -22 0 -37 24 -20 10 8 15 18 11 24 -9 15 -20 14 -35 -4z"/>
 <path d="M855 839 c-38 -24 -146 -27 -169 -4 -8 8 -17 11 -20 6 -10 -15 19 -31 68 -37 49 -7 124 14 146 42 16 18 12 17 -25 -7z"/>
 <path d="M710 770 c-12 -8 -10 -10 10 -10 14 0 58 -2 99 -3 67 -3 72 -2 45 10 -35 15 -133 17 -154 3z"/>
 </g>
<g id="layer116" fill="#2a1d1a" stroke="none">
 <path d="M431 1900 c-15 -135 -14 -182 5 -248 13 -45 15 -80 10 -169 -4 -82 -2 -131 9 -183 21 -100 19 -149 -10 -226 -34 -89 -32 -119 15 -229 38 -90 40 -98 38 -187 -3 -113 11 -149 89 -224 47 -45 188 -132 198 -122 2 2 -25 18 -60 37 -71 36 -162 118 -191 171 -16 29 -19 53 -17 134 2 92 0 105 -33 189 -43 109 -44 153 -10 235 31 74 32 122 5 222 -16 63 -18 92 -13 180 6 90 3 116 -15 181 -19 70 -20 85 -11 204 6 70 9 129 7 132 -2 2 -9 -42 -16 -97z"/>
 <path d="M621 1939 c0 -37 4 -91 9 -120 8 -43 7 -70 -6 -131 -13 -62 -15 -90 -7 -145 7 -42 7 -87 2 -118 -5 -27 -12 -77 -15 -110 -5 -55 -4 -63 25 -105 39 -57 39 -86 0 -149 -33 -53 -35 -83 -8 -148 11 -26 11 -46 1 -101 -14 -85 -5 -123 43 -180 33 -38 151 -119 160 -110 3 3 -14 15 -38 28 -50 27 -123 95 -143 132 -17 33 -18 83 -2 143 11 39 10 53 -5 94 -24 67 -22 89 13 141 35 53 39 103 10 140 -11 14 -20 31 -20 39 0 7 36 49 80 92 77 75 81 80 94 146 15 71 17 73 100 130 57 40 63 53 75 176 1 4 7 7 15 7 10 0 17 -16 22 -47 11 -79 31 -111 99 -154 l62 -39 12 -74 12 -74 62 -48 c34 -27 66 -47 70 -46 5 1 6 -2 3 -7 -3 -5 5 -29 19 -53 21 -36 25 -56 25 -128 0 -47 7 -110 15 -140 31 -117 7 -205 -86 -313 -49 -57 -64 -55 -24 4 16 22 34 68 41 102 11 53 11 65 -2 85 -17 25 -20 90 -11 212 l6 85 -11 -80 c-13 -94 -14 -142 -3 -245 6 -63 5 -78 -8 -88 -9 -8 -14 -19 -11 -26 3 -7 -4 -21 -16 -31 -11 -10 -20 -13 -20 -8 0 6 7 13 15 17 8 3 15 11 15 17 0 8 -5 7 -17 -2 -15 -13 -15 -12 -5 8 14 25 15 149 2 208 -6 29 -7 20 -3 -36 l6 -76 -53 8 c-30 5 -58 13 -64 19 -5 5 -15 10 -20 10 -27 0 53 -40 91 -46 37 -5 43 -10 43 -30 0 -30 -24 -89 -40 -99 -16 -10 -70 14 -97 42 -12 13 -28 23 -35 23 -16 -1 82 -90 100 -90 21 0 13 -17 -22 -48 -19 -16 -39 -40 -46 -53 -12 -25 -2 -16 70 67 29 34 82 57 59 26 -7 -9 -24 -30 -38 -47 l-26 -30 32 29 c17 15 36 26 41 22 5 -3 30 16 54 42 89 95 125 188 107 272 -6 25 -13 113 -17 195 -7 148 -7 151 -41 205 -45 72 -52 142 -22 218 12 30 21 75 21 105 0 54 -79 374 -80 324 0 -16 11 -74 25 -129 14 -55 24 -102 21 -105 -4 -5 -9 1 -61 87 l-28 44 -42 -47 c-38 -44 -43 -46 -56 -31 -7 9 -12 28 -11 41 2 13 -6 40 -17 59 -12 19 -21 51 -21 70 l0 34 -95 0 -95 0 10 -26 c7 -18 6 -33 -4 -52 -8 -15 -17 -43 -21 -62 -4 -19 -15 -46 -26 -59 -17 -20 -21 -22 -36 -10 -16 13 -16 11 1 -16 47 -76 63 -95 89 -106 21 -9 25 -15 16 -25 -11 -14 -99 -68 -111 -69 -4 0 -13 -6 -20 -14 -11 -12 -10 -13 2 -6 8 4 5 -2 -7 -14 -25 -24 -30 -60 -10 -80 10 -10 8 -12 -8 -9 -13 2 -31 25 -50 63 -20 40 -42 68 -67 84 -32 20 -37 28 -32 50 4 14 17 37 29 51 30 34 55 72 55 84 0 5 -16 -13 -36 -40 -36 -49 -36 -49 -30 -16 3 18 1 54 -5 80 -6 26 -14 81 -19 122 l-7 75 -2 -66z m650 -121 c28 -55 60 -98 69 -93 4 2 8 -23 9 -57 2 -55 -1 -64 -28 -92 -16 -17 -40 -51 -53 -75 -13 -25 -29 -46 -36 -49 -11 -3 -11 0 -1 15 23 38 3 70 -76 121 -41 26 -77 53 -80 60 -2 7 6 17 20 22 15 6 44 40 72 82 44 70 72 108 79 108 2 0 13 -19 25 -42z m35 -310 c-8 -30 -12 -36 -14 -21 -3 19 13 63 22 63 2 0 -2 -19 -8 -42z m-649 -60 c-2 -18 -4 -6 -4 27 0 33 2 48 4 33 2 -15 2 -42 0 -60z"/>
 <path d="M1442 1970 c0 -19 2 -27 5 -17 2 9 2 25 0 35 -3 9 -5 1 -5 -18z"/>
 <path d="M1605 1981 c-3 -11 -5 -120 -3 -243 3 -210 -3 -288 -22 -288 -15 0 -44 75 -42 110 2 19 4 100 5 180 2 80 6 170 10 200 6 47 5 50 -4 20 -8 -29 -26 -248 -32 -405 -1 -28 10 -64 36 -119 20 -43 37 -88 37 -100 0 -11 -12 -57 -26 -101 -32 -100 -28 -142 28 -280 35 -87 39 -108 36 -160 -8 -116 -85 -231 -222 -330 -34 -24 -79 -62 -101 -86 l-40 -43 45 40 c25 22 72 58 105 81 33 22 75 55 93 74 19 20 32 27 32 18 0 -19 -55 -135 -69 -143 -6 -4 -16 -17 -23 -29 -10 -20 -10 -21 6 -8 34 28 76 100 90 154 17 65 38 107 43 90 8 -22 -27 -137 -62 -210 -39 -79 -114 -156 -194 -199 -25 -13 -35 -22 -21 -18 39 10 110 53 158 98 43 39 44 40 29 11 -34 -67 -118 -123 -239 -161 -31 -9 -55 -21 -53 -25 8 -12 -24 -19 -85 -19 -31 0 -74 -7 -95 -16 -27 -11 -41 -12 -48 -5 -6 6 -48 11 -92 11 -75 0 -175 22 -175 38 0 4 46 6 102 6 l103 -2 -95 8 c-127 9 -209 34 -260 77 -33 29 -70 87 -70 111 0 2 22 -16 49 -41 47 -44 137 -98 163 -96 7 0 -11 11 -40 24 -68 31 -159 117 -173 164 -6 20 -14 88 -19 151 -8 112 -10 116 -65 226 -75 148 -80 196 -35 339 48 150 50 217 9 356 -28 98 -34 135 -39 264 -4 83 -8 128 -10 100 -2 -27 -3 -56 -3 -62 1 -9 -5 -10 -16 -4 -35 19 -71 77 -98 156 -9 28 -12 31 -8 10 3 -16 8 -48 12 -70 4 -29 19 -52 53 -86 47 -47 47 -47 53 -130 4 -46 16 -116 27 -156 15 -54 17 -79 10 -98 -12 -33 -13 -126 -1 -157 6 -17 2 -44 -15 -97 -13 -41 -27 -97 -30 -126 -7 -56 10 -158 32 -192 8 -13 14 -49 14 -85 0 -89 21 -164 61 -228 30 -48 45 -93 65 -200 12 -63 48 -95 177 -159 133 -67 177 -78 245 -63 27 7 44 6 48 0 4 -6 24 -7 48 -4 22 4 75 10 116 14 54 5 83 13 103 28 15 12 43 25 62 28 53 10 123 42 167 77 36 29 88 117 88 150 0 8 9 30 19 50 24 45 39 98 46 169 4 30 16 78 28 105 20 46 22 66 21 250 -1 175 -3 208 -22 264 -18 55 -19 71 -10 106 9 33 8 50 -4 86 -12 37 -13 52 -2 93 7 28 16 84 19 125 5 53 11 79 22 86 96 62 109 73 136 125 15 30 24 56 19 58 -6 2 -6 21 -1 49 13 66 3 66 -11 0 -16 -79 -49 -137 -98 -174 -78 -59 -84 -48 -83 130 1 70 -1 127 -3 127 -3 0 -7 -9 -11 -19z m-1215 -696 c0 -37 -4 -65 -10 -65 -11 0 -13 71 -4 108 10 37 14 25 14 -43z m1242 -231 c16 -115 3 -138 -30 -54 -18 46 -25 84 -25 131 0 138 32 93 55 -77z m-1196 -418 c8 -21 16 -71 19 -110 l5 -71 -25 50 c-23 49 -55 173 -55 218 0 19 3 17 21 -13 12 -19 28 -52 35 -74z"/>
 <path d="M343 1930 c0 -36 2 -50 4 -32 2 17 2 47 0 65 -2 17 -4 3 -4 -33z"/>
 <path d="M1432 1805 c-2 -100 -8 -154 -28 -234 -30 -123 -28 -139 28 -257 l41 -85 -11 -63 c-17 -88 -15 -126 9 -219 36 -140 21 -186 -102 -322 -44 -49 -85 -98 -91 -109 -6 -12 -9 -19 -6 -16 130 142 198 222 211 246 28 55 30 96 7 208 -19 91 -20 115 -11 169 18 105 15 132 -29 214 -45 87 -51 135 -25 234 12 44 15 99 12 211 l-3 153 -2 -130z"/>
 <path d="M506 1869 c-10 -51 -7 -83 12 -140 11 -30 22 -99 25 -154 4 -55 10 -113 15 -130 6 -20 4 -52 -6 -93 -12 -57 -12 -71 2 -128 16 -62 16 -67 -5 -134 l-21 -69 20 -59 c27 -78 29 -97 13 -163 -8 -31 -11 -72 -7 -91 8 -42 58 -115 106 -154 26 -22 22 -15 -17 29 -76 85 -80 104 -56 268 3 24 -3 60 -17 103 l-22 65 22 70 c23 69 23 72 7 138 -14 60 -15 75 -2 128 12 51 11 68 -1 115 -8 30 -14 80 -14 112 0 34 -11 90 -26 139 -20 64 -25 94 -20 131 7 54 2 65 -8 17z"/>
 <path d="M741 1834 c-12 -19 -16 -32 -11 -29 11 7 43 65 36 65 -2 0 -13 -16 -25 -36z"/>
 <path d="M1210 875 c-18 -22 0 -37 23 -21 14 11 15 15 3 25 -10 9 -16 8 -26 -4z"/>
 <path d="M770 860 c0 -18 2 -19 20 -8 11 7 20 16 20 20 0 5 -9 8 -20 8 -13 0 -20 -7 -20 -20z"/>
 <path d="M855 839 c-38 -24 -146 -27 -169 -4 -8 8 -17 11 -20 6 -10 -15 19 -31 68 -37 49 -7 124 14 146 42 16 18 12 17 -25 -7z"/>
 <path d="M710 770 c-12 -9 -12 -10 5 -8 11 1 26 -1 34 -6 9 -6 12 -5 9 5 -6 18 -29 22 -48 9z"/>
 <path d="M840 766 c14 -9 32 -15 40 -15 13 0 13 1 0 8 -8 5 -26 12 -40 15 l-25 7 25 -15z"/>
 </g>
<g id="layer117" fill="#161212" stroke="none">
 <path d="M623 1945 c0 -33 2 -45 4 -27 2 18 2 45 0 60 -2 15 -4 0 -4 -33z"/>
 <path d="M920 1974 c7 -18 6 -33 -4 -52 -8 -15 -17 -43 -21 -62 -4 -19 -15 -46 -26 -59 -17 -20 -21 -22 -36 -10 -16 13 -16 11 1 -16 47 -76 63 -95 89 -106 21 -9 25 -15 16 -25 -11 -14 -99 -68 -111 -69 -4 0 -13 -6 -20 -14 -11 -12 -10 -13 2 -6 8 4 5 -2 -7 -14 -25 -24 -30 -60 -11 -79 9 -9 9 -12 -1 -12 -7 0 -9 -5 -6 -10 12 -19 25 1 25 36 0 47 23 79 86 119 63 40 84 76 87 148 2 47 4 53 22 49 16 -3 20 -12 22 -45 4 -72 30 -114 96 -155 62 -38 77 -61 77 -117 0 -40 7 -46 38 -34 14 5 31 27 43 56 11 27 30 59 42 73 l21 25 -24 -23 c-14 -12 -36 -43 -50 -69 -14 -26 -31 -48 -38 -51 -11 -3 -11 0 -1 15 23 38 3 70 -76 121 -41 26 -77 53 -80 60 -2 7 6 17 20 22 15 6 47 43 80 94 29 46 59 87 64 90 6 4 21 -15 35 -41 28 -54 85 -125 86 -105 0 6 -4 12 -10 12 -5 0 -6 7 -3 17 4 11 3 14 -5 9 -6 -4 -17 3 -25 16 -8 13 -27 43 -42 68 l-28 44 -42 -47 c-40 -46 -42 -47 -58 -29 -9 10 -14 22 -10 25 3 4 1 7 -7 7 -9 0 -10 3 -1 14 13 16 4 49 -12 39 -6 -4 -8 0 -4 10 3 9 2 19 -3 22 -6 4 -10 24 -10 46 l0 39 -95 0 -95 0 10 -26z"/>
 <path d="M1614 1910 c0 -52 1 -74 3 -47 2 26 2 68 0 95 -2 26 -3 4 -3 -48z"/>
 <path d="M343 1955 c0 -22 2 -30 4 -17 2 12 2 30 0 40 -3 9 -5 -1 -4 -23z"/>
 <path d="M214 1870 c3 -14 6 -35 6 -48 0 -14 19 -42 49 -72 27 -27 52 -57 54 -67 3 -10 5 4 4 30 0 27 -4 42 -8 35 -12 -19 -47 18 -81 87 -17 33 -27 49 -24 35z"/>
 <path d="M1782 1851 c-15 -50 -58 -100 -107 -127 -31 -16 -37 -17 -45 -4 -8 12 -10 9 -10 -12 0 -36 14 -35 80 5 69 41 114 108 102 151 l-8 29 -12 -42z"/>
 <path d="M741 1834 c-12 -19 -16 -32 -11 -29 11 7 43 65 36 65 -2 0 -13 -16 -25 -36z"/>
 <path d="M333 1810 c0 -25 2 -35 4 -22 2 12 2 32 0 45 -2 12 -4 2 -4 -23z"/>
 <path d="M685 1745 c-16 -24 -32 -39 -36 -34 -3 6 -9 -1 -11 -16 l-5 -26 24 23 c26 24 68 87 62 93 -2 2 -17 -16 -34 -40z"/>
 <path d="M1352 1660 c0 -19 2 -27 5 -17 2 9 2 25 0 35 -3 9 -5 1 -5 -18z"/>
 <path d="M682 1574 c20 -22 44 -58 53 -81 10 -24 21 -43 25 -43 9 0 -38 99 -59 123 -9 11 -25 23 -36 29 -12 6 -5 -6 17 -28z"/>
 <path d="M1523 1565 c0 -27 2 -38 4 -22 2 15 2 37 0 50 -2 12 -4 0 -4 -28z"/>
 <path d="M462 1550 c0 -19 2 -27 5 -17 2 9 2 25 0 35 -3 9 -5 1 -5 -18z"/>
 <path d="M553 1545 c0 -22 2 -30 4 -17 2 12 2 30 0 40 -3 9 -5 -1 -4 -23z"/>
 <path d="M1393 1465 c0 -27 2 -38 4 -22 2 15 2 37 0 50 -2 12 -4 0 -4 -28z"/>
 <path d="M1530 1506 c0 -11 40 -86 45 -86 3 0 -4 19 -16 43 -23 45 -29 54 -29 43z"/>
 <path d="M451 1414 c1 -38 4 -80 9 -94 4 -14 5 16 2 65 -6 108 -12 126 -11 29z"/>
 <path d="M573 1415 c0 -22 2 -30 4 -17 2 12 2 30 0 40 -3 9 -5 -1 -4 -23z"/>
 <path d="M1400 1407 c0 -4 14 -36 31 -70 18 -34 35 -73 40 -87 6 -20 7 -21 8 -5 0 19 -77 179 -79 162z"/>
 <path d="M1352 1331 c18 -33 34 -58 36 -56 5 4 -57 115 -64 115 -3 0 10 -27 28 -59z"/>
 <path d="M551 1294 c0 -21 4 -48 9 -59 5 -12 6 1 3 35 -7 66 -13 79 -12 24z"/>
 <path d="M402 1280 c0 -19 2 -27 5 -17 2 9 2 25 0 35 -3 9 -5 1 -5 -18z"/>
 <path d="M1578 1247 c-34 -111 -31 -164 14 -269 29 -68 32 -55 4 17 -34 84 -37 137 -15 224 22 86 20 105 -3 28z"/>
 <path d="M475 1270 c18 -89 17 -107 -10 -174 -15 -37 -25 -69 -23 -71 8 -8 58 135 57 162 0 16 -7 46 -15 68 -7 22 -11 29 -9 15z"/>
 <path d="M1393 1220 c0 -25 2 -35 4 -22 2 12 2 32 0 45 -2 12 -4 2 -4 -23z"/>
 <path d="M620 1243 c0 -5 12 -26 25 -48 32 -51 31 -68 -3 -124 -40 -64 -43 -84 -22 -138 22 -57 26 -44 5 16 -14 40 -13 42 20 106 42 78 43 93 9 151 -25 42 -34 53 -34 37z"/>
 <path d="M573 1165 c0 -27 2 -38 4 -22 2 15 2 37 0 50 -2 12 -4 0 -4 -28z"/>
 <path d="M1393 1105 c0 -38 2 -53 4 -32 2 20 2 52 0 70 -2 17 -4 1 -4 -38z"/>
 <path d="M356 1094 c-10 -31 -16 -58 -14 -60 3 -2 12 21 22 52 10 31 16 58 14 60 -3 2 -12 -21 -22 -52z"/>
 <path d="M1462 1110 c0 -19 2 -27 5 -17 2 9 2 25 0 35 -3 9 -5 1 -5 -18z"/>
 <path d="M1462 1030 c0 -19 2 -27 5 -17 2 9 2 25 0 35 -3 9 -5 1 -5 -18z"/>
 <path d="M542 1020 c0 -19 2 -27 5 -17 2 9 2 25 0 35 -3 9 -5 1 -5 -18z"/>
 <path d="M433 975 c0 -22 2 -30 4 -17 2 12 2 30 0 40 -3 9 -5 -1 -4 -23z"/>
 <path d="M1423 885 c0 -22 2 -30 4 -17 2 12 2 30 0 40 -3 9 -5 -1 -4 -23z"/>
 <path d="M1210 875 c-18 -22 0 -37 23 -21 14 11 15 15 3 25 -10 9 -16 8 -26 -4z"/>
 <path d="M770 860 c0 -18 2 -19 20 -8 11 7 20 16 20 20 0 5 -9 8 -20 8 -13 0 -20 -7 -20 -20z"/>
 <path d="M1324 850 c3 -14 6 -32 6 -40 1 -12 3 -11 11 3 7 13 6 23 -7 40 l-16 22 6 -25z"/>
 <path d="M471 845 c0 -5 6 -21 14 -35 8 -14 14 -20 14 -15 0 6 -6 21 -14 35 -8 14 -14 21 -14 15z"/>
 <path d="M666 841 c-17 -27 78 -49 140 -32 22 6 48 18 59 26 18 15 17 15 -12 0 -42 -20 -146 -20 -167 0 -8 8 -17 11 -20 6z"/>
 <path d="M1150 835 c21 -25 130 -47 130 -27 0 4 -19 9 -42 11 -24 1 -56 8 -72 16 -24 13 -26 13 -16 0z"/>
 <path d="M1642 820 c0 -19 2 -27 5 -17 2 9 2 25 0 35 -3 9 -5 1 -5 -18z"/>
 <path d="M412 705 c12 -24 23 -43 26 -41 4 5 -36 86 -43 86 -3 0 5 -20 17 -45z"/>
 <path d="M1310 735 c-7 -9 -10 -18 -6 -22 3 -3 6 -1 6 6 0 7 5 9 10 6 6 -3 10 1 10 9 0 20 -4 20 -20 1z"/>
 <path d="M1130 705 c52 -56 101 -68 142 -35 14 10 29 16 34 12 5 -4 2 1 -5 10 -13 17 -37 15 -26 -2 3 -5 1 -11 -5 -15 -5 -3 -10 -2 -10 4 0 7 -7 7 -23 0 -16 -7 -32 -6 -60 6 -20 8 -37 19 -37 24 0 5 -8 12 -17 15 -13 5 -10 -1 7 -19z"/>
 <path d="M503 625 c0 -27 2 -38 4 -22 2 15 2 37 0 50 -2 12 -4 0 -4 -28z"/>
 <path d="M1471 307 c-25 -28 -32 -41 -17 -27 26 23 71 80 64 80 -2 0 -23 -24 -47 -53z"/>
 <path d="M1490 251 c0 -7 -4 -10 -9 -7 -4 3 -19 -7 -32 -22 -18 -20 -19 -22 -3 -9 11 9 23 15 26 12 3 -3 11 1 18 10 7 9 10 18 6 22 -3 3 -6 1 -6 -6z"/>
 <path d="M1083 83 c9 -2 25 -2 35 0 9 3 1 5 -18 5 -19 0 -27 -2 -17 -5z"/>
 </g>

</svg>