<!DOCTYPE svg PUBLIC "-//W3C//DTD SVG 20010904//EN" "http://www.w3.org/TR/2001/REC-SVG-20010904/DTD/svg10.dtd">
<svg version="1.0" xmlns="http://www.w3.org/2000/svg" width="1350px" height="616px" viewBox="0 0 13500 6160" preserveAspectRatio="xMidYMid meet">
<g id="layer101" fill="#ec1c24" stroke="none">
 <path d="M7195 3874 c-6 -1 -22 -5 -37 -8 -56 -13 -76 -66 -38 -101 27 -24 25 -37 -4 -29 -15 4 -36 -1 -54 -12 -28 -16 -33 -16 -64 -2 -59 27 -127 30 -186 8 -29 -11 -61 -20 -72 -20 -11 0 -29 -9 -41 -21 -17 -17 -19 -28 -14 -74 7 -51 6 -55 -16 -63 -43 -17 -119 -32 -158 -32 -23 0 -41 -5 -44 -13 -3 -7 -35 -28 -72 -46 -53 -26 -82 -34 -140 -36 -57 -3 -86 -10 -134 -34 -44 -23 -74 -31 -111 -31 -50 0 -98 -17 -133 -48 -9 -8 -27 -20 -39 -26 -29 -15 -45 -43 -33 -55 6 -6 44 -11 86 -13 71 -3 80 -1 129 30 33 21 59 30 71 27 29 -10 171 15 199 34 47 33 50 34 42 9 -5 -15 -34 -36 -83 -61 -81 -42 -99 -72 -43 -72 18 0 41 -8 51 -17 26 -24 36 -23 70 6 25 21 38 23 111 23 72 0 84 -2 93 -19 8 -14 17 -18 34 -14 13 3 26 2 29 -2 9 -14 -93 -121 -129 -136 -34 -14 -108 -99 -120 -137 -4 -12 -2 -26 3 -31 11 -11 22 -4 131 88 27 23 67 48 88 55 40 13 92 40 134 69 14 10 49 28 77 38 29 11 61 31 71 44 17 20 27 23 87 21 55 -1 75 2 103 20 19 12 47 27 62 32 15 6 38 26 51 45 13 19 34 36 46 38 12 2 64 44 114 93 51 49 100 89 108 89 8 0 26 -9 40 -20 14 -11 29 -20 34 -20 5 0 33 18 62 40 29 22 73 50 99 62 52 26 63 49 45 103 -18 53 -59 75 -142 75 -58 0 -68 3 -68 18 0 22 -36 82 -53 86 -6 2 -46 9 -87 16 -41 6 -91 15 -110 19 -19 4 -40 7 -45 5z"/>
 <path d="M5200 3123 c-33 -6 -50 -21 -50 -44 0 -30 60 -26 90 7 21 21 22 27 10 34 -8 5 -17 9 -20 8 -3 0 -16 -3 -30 -5z"/>
 <path d="M4580 2982 c-34 -17 -80 -73 -80 -97 0 -23 41 -65 78 -81 47 -20 205 -12 295 16 34 10 91 22 127 26 36 3 76 13 89 21 24 15 24 16 5 30 -13 10 -32 12 -56 9 -43 -7 -44 -5 -22 29 9 13 13 29 10 34 -14 22 -87 31 -246 31 -137 0 -171 -3 -200 -18z"/>
 </g>
<g id="layer102" fill="#bf928e" stroke="none">
 <path d="M7445 3808 c17 -19 32 -33 34 -31 7 5 -34 56 -50 62 -7 2 0 -12 16 -31z"/>
 <path d="M7123 3762 c10 -10 17 -24 17 -30 0 -7 5 -12 10 -12 16 0 11 26 -8 43 -25 23 -39 22 -19 -1z"/>
 <path d="M6834 3735 c-10 -8 -14 -14 -9 -15 15 0 40 18 34 24 -3 3 -14 -1 -25 -9z"/>
 <path d="M7050 3715 c-7 -8 -8 -15 -2 -15 5 0 15 7 22 15 7 8 8 15 2 15 -5 0 -15 -7 -22 -15z"/>
 <path d="M7659 3696 c14 -14 26 -24 29 -22 7 8 -8 25 -31 37 -21 11 -21 10 2 -15z"/>
 <path d="M6767 3633 c-10 -9 -9 -23 2 -23 5 0 11 7 15 15 5 15 -5 20 -17 8z"/>
 <path d="M7665 3569 c-34 -21 -29 -25 10 -7 14 6 25 15 25 20 0 10 1 10 -35 -13z"/>
 <path d="M6470 3511 c0 -5 -24 -23 -52 -40 -29 -17 -49 -31 -45 -31 13 0 92 42 99 53 3 6 19 12 35 15 41 5 41 12 0 12 -20 0 -37 -4 -37 -9z"/>
 <path d="M7355 3458 c-31 -29 -76 -72 -99 -95 -23 -24 -49 -43 -56 -43 -17 -1 -65 -38 -58 -45 3 -3 13 4 23 15 10 11 26 20 36 20 10 0 59 41 111 90 51 50 99 90 106 90 7 0 25 -7 40 -16 26 -15 26 -15 -3 10 -16 14 -33 26 -36 26 -4 0 -33 -24 -64 -52z"/>
 <path d="M5905 3332 c-16 -11 -37 -27 -45 -38 -14 -18 -14 -18 5 -3 11 9 36 26 55 38 19 11 31 21 25 21 -5 0 -23 -8 -40 -18z"/>
 <path d="M6325 3300 c-4 -6 -34 -24 -67 -41 -33 -17 -58 -33 -55 -35 3 -3 16 0 29 7 12 7 25 14 28 14 18 4 60 30 60 37 0 5 4 7 8 4 5 -3 9 1 9 9 0 18 -3 19 -12 5z"/>
 <path d="M6020 3260 c-14 -11 -20 -20 -15 -19 13 0 50 28 44 33 -2 3 -15 -4 -29 -14z"/>
 <path d="M6780 3250 c-8 -5 -11 -12 -7 -16 4 -4 13 -2 19 4 15 15 7 24 -12 12z"/>
 <path d="M7038 3207 c-21 -12 -38 -26 -38 -30 0 -10 57 23 72 41 14 16 9 15 -34 -11z"/>
 <path d="M6340 3202 c0 -7 -15 -21 -32 -32 -18 -11 -28 -20 -21 -20 18 0 69 47 61 56 -5 4 -8 2 -8 -4z"/>
 <path d="M6526 3184 c18 -26 28 -27 18 -1 -3 8 -12 18 -20 21 -11 4 -11 0 2 -20z"/>
 <path d="M6590 3170 c0 -18 25 -28 37 -15 9 10 7 14 -13 18 -13 2 -24 1 -24 -3z"/>
 <path d="M5162 3108 c-7 -7 -12 -20 -12 -30 0 -28 61 -24 88 5 24 26 28 37 11 37 -5 0 -8 -4 -4 -9 8 -13 -35 -41 -62 -41 -33 0 -28 19 10 35 30 13 31 14 7 15 -15 0 -31 -5 -38 -12z"/>
 <path d="M6523 3070 c-28 -28 -48 -50 -44 -50 4 0 29 23 56 50 64 65 55 64 -12 0z"/>
 <path d="M6699 3079 c-23 -19 -23 -20 -2 -10 12 6 25 16 28 21 10 16 -1 12 -26 -11z"/>
 <path d="M6390 2959 c-22 -28 -40 -56 -40 -62 0 -7 6 -3 12 8 6 11 27 39 46 63 19 23 32 42 28 42 -3 0 -24 -23 -46 -51z"/>
 <path d="M6498 2970 c-35 -35 -36 -37 -6 -12 20 16 42 32 50 34 7 3 10 9 6 13 -4 4 -26 -12 -50 -35z"/>
 <path d="M4758 2993 c18 -2 45 -2 60 0 15 2 0 4 -33 4 -33 0 -45 -2 -27 -4z"/>
 <path d="M4901 2996 c11 -9 69 -15 64 -6 -3 6 -20 10 -37 10 -17 0 -29 -2 -27 -4z"/>
 <path d="M4545 2957 c-19 -19 -35 -39 -35 -45 0 -5 18 8 40 31 22 22 38 42 36 45 -3 2 -21 -11 -41 -31z"/>
 <path d="M5030 2903 c0 -5 14 -9 30 -10 18 -1 28 2 25 7 -7 12 -55 14 -55 3z"/>
 <path d="M4510 2864 c0 -16 42 -51 70 -59 20 -5 17 -2 -10 15 -19 12 -41 29 -47 38 -7 9 -13 11 -13 6z"/>
 </g>
<g id="layer103" fill="#ebc8c2" stroke="none">
 <path d="M7445 3808 c17 -19 32 -33 34 -31 7 5 -34 56 -50 62 -7 2 0 -12 16 -31z"/>
 <path d="M7123 3762 c10 -10 17 -24 17 -30 0 -7 5 -12 10 -12 16 0 11 26 -8 43 -25 23 -39 22 -19 -1z"/>
 <path d="M6834 3735 c-10 -8 -14 -14 -9 -15 15 0 40 18 34 24 -3 3 -14 -1 -25 -9z"/>
 <path d="M7050 3715 c-7 -8 -8 -15 -2 -15 5 0 15 7 22 15 7 8 8 15 2 15 -5 0 -15 -7 -22 -15z"/>
 <path d="M7659 3696 c14 -14 26 -24 29 -22 7 8 -8 25 -31 37 -21 11 -21 10 2 -15z"/>
 <path d="M6767 3633 c-10 -9 -9 -23 2 -23 5 0 11 7 15 15 5 15 -5 20 -17 8z"/>
 <path d="M7665 3569 c-34 -21 -29 -25 10 -7 14 6 25 15 25 20 0 10 1 10 -35 -13z"/>
 <path d="M6470 3511 c0 -5 -24 -23 -52 -40 -29 -17 -49 -31 -45 -31 13 0 92 42 99 53 3 6 19 12 35 15 41 5 41 12 0 12 -20 0 -37 -4 -37 -9z"/>
 <path d="M7355 3458 c-31 -29 -76 -72 -99 -95 -23 -24 -49 -43 -56 -43 -17 -1 -65 -38 -58 -45 3 -3 13 4 23 15 10 11 26 20 36 20 10 0 59 41 111 90 51 50 99 90 106 90 7 0 25 -7 40 -16 26 -15 26 -15 -3 10 -16 14 -33 26 -36 26 -4 0 -33 -24 -64 -52z"/>
 <path d="M5905 3332 c-16 -11 -37 -27 -45 -38 -14 -18 -14 -18 5 -3 11 9 36 26 55 38 19 11 31 21 25 21 -5 0 -23 -8 -40 -18z"/>
 <path d="M6325 3300 c-4 -6 -34 -24 -67 -41 -33 -17 -58 -33 -55 -35 3 -3 16 0 29 7 12 7 25 14 28 14 18 4 60 30 60 37 0 5 4 7 8 4 5 -3 9 1 9 9 0 18 -3 19 -12 5z"/>
 <path d="M6020 3260 c-14 -11 -20 -20 -15 -19 13 0 50 28 44 33 -2 3 -15 -4 -29 -14z"/>
 <path d="M6780 3250 c-8 -5 -11 -12 -7 -16 4 -4 13 -2 19 4 15 15 7 24 -12 12z"/>
 <path d="M7038 3207 c-21 -12 -38 -26 -38 -30 0 -10 57 23 72 41 14 16 9 15 -34 -11z"/>
 <path d="M6340 3202 c0 -7 -15 -21 -32 -32 -18 -11 -28 -20 -21 -20 18 0 69 47 61 56 -5 4 -8 2 -8 -4z"/>
 <path d="M6526 3184 c18 -26 28 -27 18 -1 -3 8 -12 18 -20 21 -11 4 -11 0 2 -20z"/>
 <path d="M6590 3170 c0 -18 25 -28 37 -15 9 10 7 14 -13 18 -13 2 -24 1 -24 -3z"/>
 <path d="M5162 3108 c-14 -14 -16 -48 -2 -48 5 0 7 6 4 14 -3 8 5 21 18 30 15 11 18 16 7 16 -8 0 -20 -5 -27 -12z"/>
 <path d="M5226 3088 c-16 -16 -24 -28 -19 -28 11 0 59 48 52 53 -2 1 -17 -10 -33 -25z"/>
 <path d="M6523 3070 c-28 -28 -48 -50 -44 -50 4 0 29 23 56 50 64 65 55 64 -12 0z"/>
 <path d="M6699 3079 c-23 -19 -23 -20 -2 -10 12 6 25 16 28 21 10 16 -1 12 -26 -11z"/>
 <path d="M6390 2959 c-22 -28 -40 -56 -40 -62 0 -7 6 -3 12 8 6 11 27 39 46 63 19 23 32 42 28 42 -3 0 -24 -23 -46 -51z"/>
 <path d="M6498 2970 c-35 -35 -36 -37 -6 -12 20 16 42 32 50 34 7 3 10 9 6 13 -4 4 -26 -12 -50 -35z"/>
 <path d="M4758 2993 c18 -2 45 -2 60 0 15 2 0 4 -33 4 -33 0 -45 -2 -27 -4z"/>
 <path d="M4901 2996 c11 -9 69 -15 64 -6 -3 6 -20 10 -37 10 -17 0 -29 -2 -27 -4z"/>
 <path d="M4545 2957 c-19 -19 -35 -39 -35 -45 0 -5 18 8 40 31 22 22 38 42 36 45 -3 2 -21 -11 -41 -31z"/>
 <path d="M5030 2903 c0 -5 14 -9 30 -10 18 -1 28 2 25 7 -7 12 -55 14 -55 3z"/>
 <path d="M4532 2835 c15 -16 30 -26 33 -23 4 3 -9 16 -27 28 l-33 23 27 -28z"/>
 </g>

</svg>