<!DOCTYPE svg PUBLIC "-//W3C//DTD SVG 20010904//EN" "http://www.w3.org/TR/2001/REC-SVG-20010904/DTD/svg10.dtd">
<svg version="1.0" xmlns="http://www.w3.org/2000/svg" width="200px" height="200px" viewBox="0 0 2000 2000" preserveAspectRatio="xMidYMid meet">
<g id="layer101" fill="#f1f2f3" stroke="none">
 <path d="M95 1978 c32 -109 108 -208 189 -248 45 -21 257 -62 305 -58 29 2 63 -18 143 -85 l47 -40 -37 -27 c-61 -44 -137 -134 -150 -177 -7 -22 -15 -68 -18 -102 -6 -49 -10 -61 -25 -61 -21 0 -59 -45 -59 -70 0 -10 -20 -57 -45 -106 -46 -89 -58 -157 -34 -181 8 -8 8 -17 0 -31 -6 -11 -9 -27 -6 -34 3 -8 -1 -41 -10 -73 -8 -33 -15 -78 -15 -102 0 -43 17 -93 32 -93 4 0 8 -14 8 -31 0 -35 13 -63 45 -99 12 -14 34 -46 48 -71 26 -46 64 -79 90 -79 7 0 25 -17 38 -37 28 -44 90 -81 145 -87 21 -2 58 -11 82 -20 59 -22 247 -18 284 6 13 9 41 16 62 16 48 0 124 46 145 89 10 19 26 33 41 36 33 7 79 52 98 97 8 19 23 41 34 49 24 16 48 70 48 106 0 14 4 25 8 25 15 0 32 49 32 88 0 21 -6 63 -14 93 -14 52 -16 77 -13 210 0 48 -5 65 -32 108 -18 28 -41 77 -50 108 -13 47 -23 61 -48 73 -28 14 -31 21 -37 74 -12 120 -48 180 -158 267 l-48 37 48 40 c64 53 100 75 125 77 53 5 243 36 276 45 113 31 175 106 225 268 l7 22 -906 0 -906 0 6 -22z"/>
 </g>
<g id="layer102" fill="#d0d2d3" stroke="none">
 <path d="M95 1978 c32 -109 108 -208 189 -248 45 -21 257 -62 305 -58 29 2 63 -18 143 -85 l47 -40 -37 -27 c-61 -44 -137 -134 -150 -177 -7 -22 -15 -68 -18 -102 -6 -49 -10 -61 -25 -61 -21 0 -59 -45 -59 -70 0 -10 -20 -57 -45 -106 -46 -89 -58 -157 -34 -181 8 -8 8 -17 0 -31 -6 -11 -9 -27 -6 -34 3 -8 -1 -41 -10 -73 -8 -33 -15 -78 -15 -102 0 -43 17 -93 32 -93 4 0 8 -14 8 -31 0 -35 13 -63 45 -99 12 -14 34 -46 48 -71 26 -46 64 -79 90 -79 7 0 25 -17 38 -37 28 -44 90 -81 145 -87 21 -2 58 -11 82 -20 59 -22 247 -18 284 6 13 9 41 16 62 16 48 0 124 46 145 89 10 19 26 33 41 36 33 7 79 52 98 97 8 19 23 41 34 49 24 16 48 70 48 106 0 14 4 25 8 25 15 0 32 49 32 88 0 21 -6 63 -14 93 -14 52 -16 77 -13 210 0 48 -5 65 -32 108 -18 28 -41 77 -50 108 -13 47 -23 61 -48 73 -28 14 -31 21 -37 74 -12 120 -48 180 -158 267 l-48 37 48 40 c64 53 100 75 125 77 53 5 243 36 276 45 113 31 175 106 225 268 l7 22 -906 0 -906 0 6 -22z m660 -1058 c4 -6 1 -9 -7 -8 -8 2 -14 -9 -16 -29 -3 -30 -4 -31 -33 -21 -33 11 -36 24 -12 50 17 20 58 24 68 8z m562 -17 c15 -20 0 -43 -28 -43 -13 0 -19 7 -19 23 0 13 -6 29 -12 36 -11 11 -8 12 17 7 17 -4 36 -14 42 -23z m-449 -3 c1 -8 -7 -21 -19 -28 -18 -11 -20 -11 -16 0 2 7 0 21 -5 31 -8 16 -6 18 14 15 12 -2 24 -10 26 -18z m298 -9 c-1 -28 -6 -29 -33 -9 -16 13 -5 38 17 38 13 0 17 -8 16 -29z"/>
 </g>
<g id="layer103" fill="#9f9e9d" stroke="none">
 <path d="M95 1978 c32 -109 108 -208 189 -248 45 -21 257 -62 305 -58 29 2 63 -18 143 -85 l47 -40 -37 -27 c-61 -44 -137 -134 -150 -177 -7 -22 -15 -68 -18 -102 -6 -49 -10 -61 -25 -61 -21 0 -59 -45 -59 -70 0 -10 -20 -57 -45 -106 -46 -89 -58 -157 -34 -181 8 -8 8 -17 0 -31 -6 -11 -9 -27 -6 -34 3 -8 -1 -41 -10 -73 -8 -33 -15 -78 -15 -102 0 -43 17 -93 32 -93 4 0 8 -14 8 -31 0 -35 13 -63 45 -99 12 -14 34 -46 48 -71 26 -46 64 -79 90 -79 7 0 25 -17 38 -37 28 -44 90 -81 145 -87 21 -2 58 -11 82 -20 59 -22 247 -18 284 6 13 9 41 16 62 16 48 0 124 46 145 89 10 19 26 33 41 36 33 7 79 52 98 97 8 19 23 41 34 49 24 16 48 70 48 106 0 14 4 25 8 25 15 0 32 49 32 88 0 21 -6 63 -14 93 -14 52 -16 77 -13 210 0 48 -5 65 -32 108 -18 28 -41 77 -50 108 -13 47 -23 61 -48 73 -28 14 -31 21 -37 74 -12 120 -48 180 -158 267 l-48 37 48 40 c64 53 100 75 125 77 53 5 243 36 276 45 113 31 175 106 225 268 l7 22 -906 0 -906 0 6 -22z m660 -1058 c4 -6 1 -9 -7 -8 -9 2 -13 -8 -12 -34 1 -30 -2 -38 -17 -38 -49 0 -65 36 -32 72 17 20 58 24 68 8z m555 -10 c33 -33 19 -70 -27 -70 -20 0 -22 4 -17 30 4 18 1 36 -6 45 -20 24 26 19 50 -5z m-430 -9 c8 -16 6 -23 -12 -35 -32 -22 -35 -20 -40 19 -4 31 -1 35 19 35 12 0 27 -9 33 -19z m292 -16 c-5 -39 -20 -44 -47 -15 -15 16 -15 22 -5 35 7 8 22 15 34 15 19 0 21 -4 18 -35z"/>
 </g>
<g id="layer104" fill="#7e8281" stroke="none">
 <path d="M95 1978 c32 -109 108 -208 189 -248 45 -21 257 -62 305 -58 29 2 63 -18 143 -85 l47 -40 -37 -27 c-61 -44 -137 -134 -150 -177 -7 -22 -15 -68 -18 -102 -6 -49 -10 -61 -25 -61 -21 0 -59 -45 -59 -70 0 -10 -20 -57 -45 -106 -46 -89 -58 -157 -34 -181 8 -8 8 -17 0 -31 -6 -11 -9 -27 -6 -34 3 -8 -1 -41 -10 -73 -8 -33 -15 -78 -15 -102 0 -43 17 -93 32 -93 4 0 8 -14 8 -31 0 -35 13 -63 45 -99 12 -14 34 -46 48 -71 26 -46 64 -79 90 -79 7 0 25 -17 38 -37 28 -44 90 -81 145 -87 21 -2 58 -11 82 -20 59 -22 247 -18 284 6 13 9 41 16 62 16 48 0 124 46 145 89 10 19 26 33 41 36 33 7 79 52 98 97 8 19 23 41 34 49 24 16 48 70 48 106 0 14 4 25 8 25 15 0 32 49 32 88 0 21 -6 63 -14 93 -14 52 -16 77 -13 210 0 48 -5 65 -32 108 -18 28 -41 77 -50 108 -13 47 -23 61 -48 73 -28 14 -31 21 -37 74 -12 120 -48 180 -158 267 l-48 37 48 40 c64 53 100 75 125 77 53 5 243 36 276 45 113 31 175 106 225 268 l7 22 -906 0 -906 0 6 -22z m661 -1060 c4 -7 3 -8 -4 -4 -21 13 -26 -43 -6 -65 19 -21 19 -21 -21 -14 -22 4 -43 10 -47 12 -15 8 -8 62 10 72 23 14 59 14 68 -1z m552 -4 c16 -11 22 -24 20 -42 -3 -23 -9 -28 -43 -33 -46 -8 -64 3 -45 26 11 13 15 13 21 3 6 -9 9 -5 9 13 0 14 -5 30 -12 37 -19 19 23 15 50 -4z m-430 -6 c17 -17 15 -26 -13 -44 -28 -18 -75 -27 -75 -14 0 13 26 30 35 22 4 -4 5 5 3 21 -4 23 -2 27 16 27 12 0 27 -5 34 -12z m297 -27 c1 -38 1 -38 -28 -29 -50 18 -50 68 0 68 26 0 28 -3 28 -39z"/>
 </g>
<g id="layer105" fill="#8a766f" stroke="none">
 <path d="M95 1978 c32 -109 108 -208 189 -248 45 -21 257 -62 305 -58 29 2 63 -18 143 -85 l47 -40 -37 -27 c-61 -44 -137 -134 -150 -177 -7 -22 -15 -68 -18 -102 -6 -49 -10 -61 -25 -61 -21 0 -59 -45 -59 -70 0 -10 -20 -57 -45 -106 -46 -89 -58 -157 -34 -181 8 -8 8 -17 0 -31 -6 -11 -9 -27 -6 -34 3 -8 -1 -41 -10 -73 -8 -33 -15 -78 -15 -102 0 -43 17 -93 32 -93 4 0 8 -14 8 -31 0 -35 13 -63 45 -99 12 -14 34 -46 48 -71 26 -46 64 -79 90 -79 7 0 25 -17 38 -37 28 -44 90 -81 145 -87 21 -2 58 -11 82 -20 59 -22 247 -18 284 6 13 9 41 16 62 16 48 0 124 46 145 89 10 19 26 33 41 36 33 7 79 52 98 97 8 19 23 41 34 49 24 16 48 70 48 106 0 14 4 25 8 25 15 0 32 49 32 88 0 21 -6 63 -14 93 -14 52 -16 77 -13 210 0 48 -5 65 -32 108 -18 28 -41 77 -50 108 -13 47 -23 61 -48 73 -28 14 -31 21 -37 74 -12 120 -48 180 -158 267 l-48 37 48 40 c64 53 100 75 125 77 53 5 243 36 276 45 113 31 175 106 225 268 l7 22 -906 0 -906 0 6 -22z m665 -1064 c0 -8 -5 -12 -10 -9 -19 11 -22 -25 -5 -51 l16 -25 -38 7 c-51 9 -53 11 -53 44 0 33 21 49 63 50 18 0 27 -5 27 -16z m554 -3 c29 -32 17 -64 -28 -73 -46 -10 -66 2 -46 26 7 9 17 13 22 10 14 -9 -2 39 -16 48 -6 4 3 8 20 8 18 0 38 -8 48 -19z m-434 -6 c10 -13 10 -19 -5 -35 -17 -19 -72 -37 -82 -26 -9 9 18 36 30 29 6 -4 8 3 3 21 -6 23 -3 26 18 26 13 0 29 -7 36 -15z m315 5 c-4 -6 -11 -8 -16 -5 -13 9 -11 -39 3 -53 16 -16 5 -15 -37 2 -33 14 -46 42 -28 59 11 11 85 8 78 -3z"/>
 </g>
<g id="layer106" fill="#3087af" stroke="none">
 <path d="M95 1978 c32 -109 108 -208 189 -248 45 -21 257 -62 305 -58 29 2 63 -18 143 -85 l47 -40 -37 -27 c-61 -44 -137 -134 -150 -177 -7 -22 -15 -68 -18 -102 -6 -49 -10 -61 -25 -61 -21 0 -59 -45 -59 -70 0 -10 -20 -57 -45 -106 -46 -89 -58 -157 -34 -181 8 -8 8 -17 0 -31 -6 -11 -9 -27 -6 -34 3 -8 -1 -41 -10 -73 -8 -33 -15 -78 -15 -102 0 -43 17 -93 32 -93 4 0 8 -14 8 -31 0 -35 13 -63 45 -99 12 -14 34 -46 48 -71 26 -46 64 -79 90 -79 7 0 25 -17 38 -37 28 -44 90 -81 145 -87 21 -2 58 -11 82 -20 59 -22 247 -18 284 6 13 9 41 16 62 16 48 0 124 46 145 89 10 19 26 33 41 36 33 7 79 52 98 97 8 19 23 41 34 49 24 16 48 70 48 106 0 14 4 25 8 25 15 0 32 49 32 88 0 21 -6 63 -14 93 -14 52 -16 77 -13 210 0 48 -5 65 -32 108 -18 28 -41 77 -50 108 -13 47 -23 61 -48 73 -28 14 -31 21 -37 74 -12 120 -48 180 -158 267 l-48 37 48 40 c64 53 100 75 125 77 53 5 243 36 276 45 113 31 175 106 225 268 l7 22 -906 0 -906 0 6 -22z m665 -1059 c0 -11 -5 -17 -10 -14 -19 11 -22 -25 -5 -51 l16 -25 -38 7 c-51 9 -53 11 -53 44 0 32 8 40 54 51 17 4 32 7 34 8 1 1 2 -8 2 -20z m562 -11 c4 -7 7 -24 6 -38 -3 -20 -10 -26 -46 -33 -24 -5 -47 -6 -50 -2 -9 9 14 40 28 37 13 -3 3 41 -11 46 -5 2 -9 7 -9 12 0 12 72 -7 82 -22z m-135 -3 c-20 -14 -22 -36 -5 -53 18 -18 -6 -16 -43 4 -43 22 -37 57 11 65 43 6 58 0 37 -16z m-307 0 c10 -13 10 -19 -5 -35 -17 -19 -72 -37 -82 -26 -9 9 18 36 30 29 6 -4 8 3 3 21 -6 23 -3 26 18 26 13 0 29 -7 36 -15z"/>
 </g>
<g id="layer107" fill="#93614a" stroke="none">
 <path d="M95 1978 c32 -109 108 -208 189 -248 45 -21 257 -62 305 -58 29 2 63 -18 143 -85 l47 -40 -37 -27 c-61 -44 -137 -134 -150 -177 -7 -22 -15 -68 -18 -102 -6 -49 -10 -61 -25 -61 -21 0 -59 -45 -59 -70 0 -10 -20 -57 -45 -106 -46 -89 -58 -157 -34 -181 8 -8 8 -17 0 -31 -6 -11 -9 -27 -6 -34 3 -8 -1 -41 -10 -73 -8 -33 -15 -78 -15 -102 0 -43 17 -93 32 -93 4 0 8 -14 8 -31 0 -35 13 -63 45 -99 12 -14 34 -46 48 -71 26 -46 64 -79 90 -79 7 0 25 -17 38 -37 28 -44 90 -81 145 -87 21 -2 58 -11 82 -20 59 -22 247 -18 284 6 13 9 41 16 62 16 48 0 124 46 145 89 10 19 26 33 41 36 33 7 79 52 98 97 8 19 23 41 34 49 24 16 48 70 48 106 0 14 4 25 8 25 15 0 32 49 32 88 0 21 -6 63 -14 93 -14 52 -16 77 -13 210 0 48 -5 65 -32 108 -18 28 -41 77 -50 108 -13 47 -23 61 -48 73 -28 14 -31 21 -37 74 -12 120 -48 180 -158 267 l-48 37 48 40 c64 53 100 75 125 77 53 5 243 36 276 45 93 26 162 92 199 192 33 90 35 98 19 98 -8 0 -19 -19 -27 -42 -31 -105 -90 -182 -163 -213 -32 -13 -204 -45 -246 -45 -40 0 9 14 91 26 126 19 181 39 221 81 35 36 80 116 92 166 l7 27 -887 0 -886 0 6 -22z m110 -132 c49 -62 116 -93 249 -116 62 -11 95 -20 84 -24 -22 -10 -176 19 -232 44 -49 20 -110 78 -140 131 -22 39 -15 33 39 -35z m1050 -32 c33 -23 76 -58 94 -78 21 -21 45 -37 60 -37 25 -2 25 -2 3 -6 -17 -3 -35 7 -67 36 -23 22 -72 61 -107 86 -102 76 -90 75 17 -1z m-640 -94 c-26 -27 -75 -43 -60 -20 3 6 14 10 24 10 10 0 26 9 36 20 10 11 20 20 23 20 3 0 -7 -13 -23 -30z m145 -801 c0 -11 -5 -17 -10 -14 -19 11 -22 -25 -5 -51 l16 -25 -38 7 c-51 9 -53 11 -53 44 0 32 8 40 54 51 17 4 32 7 34 8 1 1 2 -8 2 -20z m562 -11 c4 -7 7 -24 6 -38 -3 -20 -10 -26 -46 -33 -24 -5 -47 -6 -50 -2 -9 9 14 40 28 37 13 -3 3 41 -11 46 -5 2 -9 7 -9 12 0 12 72 -7 82 -22z m-135 -3 c-20 -14 -22 -36 -5 -53 18 -18 -6 -16 -43 4 -43 22 -37 57 11 65 43 6 58 0 37 -16z m-307 0 c10 -13 10 -19 -5 -35 -17 -19 -72 -37 -82 -26 -9 9 18 36 30 29 6 -4 8 3 3 21 -6 23 -3 26 18 26 13 0 29 -7 36 -15z"/>
 </g>
<g id="layer108" fill="#1e78a2" stroke="none">
 <path d="M95 1978 c32 -109 108 -208 189 -248 45 -21 257 -62 305 -58 15 1 41 -8 58 -20 17 -12 34 -22 38 -22 4 0 16 -11 27 -26 11 -14 23 -23 25 -20 3 3 13 -5 23 -16 17 -21 17 -23 -19 -48 -60 -44 -136 -134 -149 -177 -7 -22 -15 -68 -18 -102 -6 -49 -10 -61 -25 -61 -21 0 -59 -45 -59 -70 0 -10 -20 -57 -45 -106 -46 -89 -58 -157 -34 -181 8 -8 8 -17 0 -31 -6 -11 -9 -27 -6 -34 3 -8 -1 -41 -10 -73 -8 -33 -15 -78 -15 -102 0 -43 17 -93 32 -93 4 0 8 -14 8 -31 0 -35 13 -63 45 -99 12 -14 34 -46 48 -71 26 -46 64 -79 90 -79 7 0 25 -17 38 -37 28 -44 90 -81 145 -87 21 -2 58 -11 82 -20 59 -22 247 -18 284 6 13 9 41 16 62 16 48 0 124 46 145 89 10 19 26 33 41 36 33 7 79 52 98 97 8 19 23 41 34 49 24 16 48 70 48 106 0 14 4 25 8 25 15 0 32 49 32 88 0 21 -6 63 -14 93 -14 52 -16 77 -13 210 0 48 -5 65 -32 108 -18 28 -41 77 -50 108 -13 47 -23 61 -48 73 -28 14 -31 21 -37 74 -12 120 -48 180 -157 266 l-48 38 46 41 c25 22 50 41 54 41 4 0 12 7 17 16 5 9 12 15 15 15 4 -1 8 -1 10 0 1 0 13 2 27 3 75 9 247 37 279 46 93 26 162 92 199 192 33 90 35 98 19 98 -8 0 -19 -19 -27 -42 -31 -105 -90 -182 -163 -213 -32 -13 -204 -45 -246 -45 -40 0 9 14 91 26 126 19 181 39 221 81 35 36 80 116 92 166 l7 27 -887 0 -886 0 6 -22z m1050 -125 l80 -54 -50 6 c-27 4 -64 10 -81 15 l-31 8 21 -51 c20 -47 21 -49 24 -21 l3 30 67 -4 c69 -4 113 -24 161 -76 l22 -23 -76 -57 c-41 -31 -75 -61 -75 -66 0 -13 -75 15 -132 50 -62 38 -98 38 -161 -1 -59 -36 -127 -62 -127 -49 0 5 -38 37 -85 72 l-86 63 45 41 c39 36 52 42 107 48 34 3 75 6 92 6 l30 0 -6 -62 -6 -63 23 73 c13 40 30 80 37 89 12 15 12 16 -6 9 -39 -14 -148 -37 -164 -34 -9 2 43 34 114 70 126 64 131 66 155 51 14 -9 61 -41 105 -70z m-940 -7 c49 -62 116 -93 249 -116 62 -11 95 -20 84 -24 -22 -10 -176 19 -232 44 -49 20 -110 78 -140 131 -22 39 -15 33 39 -35z m1050 -32 c33 -23 76 -58 94 -78 21 -21 45 -37 60 -37 25 -2 25 -2 3 -6 -17 -3 -35 7 -67 36 -23 22 -72 61 -107 86 -102 76 -90 75 17 -1z m-640 -94 c-26 -27 -75 -43 -60 -20 3 6 14 10 24 10 10 0 26 9 36 20 10 11 20 20 23 20 3 0 -7 -13 -23 -30z m323 -262 c7 -7 12 -26 12 -43 0 -39 17 -61 53 -68 33 -5 37 0 45 60 9 62 27 72 85 44 56 -27 133 -94 153 -133 8 -16 22 -64 30 -106 8 -45 30 -108 51 -151 21 -41 46 -104 56 -140 10 -36 23 -84 29 -106 7 -22 11 -78 11 -123 -1 -73 -5 -89 -27 -121 -14 -20 -26 -44 -26 -53 0 -16 -92 -78 -116 -78 -8 0 -37 11 -64 25 -28 14 -62 24 -77 23 -16 -1 -37 3 -48 9 -26 15 -180 15 -214 1 -14 -6 -35 -10 -46 -9 -11 1 -42 -12 -68 -29 -59 -37 -73 -37 -117 -2 -19 16 -43 31 -52 35 -10 3 -18 14 -18 24 0 9 -12 34 -26 55 -23 33 -27 48 -27 120 0 46 4 101 11 123 6 22 19 69 27 105 9 36 21 73 26 83 50 94 69 142 80 202 6 39 20 86 30 106 22 44 94 110 152 138 49 24 59 25 75 9z m-384 -320 c-4 -13 -11 -34 -17 -48 -6 -14 -9 -30 -8 -37 1 -6 -3 -14 -9 -18 -6 -4 -7 1 -4 12 5 16 4 16 -10 -1 -9 -11 -16 -15 -16 -9 0 7 5 15 11 18 6 4 8 14 5 22 -4 8 -2 11 5 7 8 -4 9 1 4 15 -4 15 -1 29 11 42 23 26 37 24 28 -3z m922 -3 c9 -14 14 -32 10 -40 -3 -9 2 -28 12 -43 9 -14 12 -23 6 -19 -15 9 -24 -14 -18 -45 l5 -23 -11 23 c-5 13 -7 28 -4 33 3 6 0 18 -8 27 -12 15 -11 16 5 3 10 -8 17 -9 17 -3 0 6 -9 17 -19 24 -22 15 -40 88 -22 88 6 0 18 -11 27 -25z m-990 -173 c1 -15 5 -38 8 -52 5 -21 4 -20 -8 5 -17 34 -21 20 -6 -19 8 -21 6 -26 -11 -31 -29 -10 -31 -3 -14 45 8 23 15 54 15 68 0 33 15 18 16 -16z m1053 -59 c1 -46 -12 -56 -29 -22 -9 16 -8 32 2 66 11 39 14 42 19 21 4 -12 7 -42 8 -65z"/>
 <path d="M975 1860 c-4 -6 7 -10 25 -10 18 0 29 4 25 10 -3 6 -15 10 -25 10 -10 0 -22 -4 -25 -10z"/>
 <path d="M866 1311 c-5 -8 23 -11 96 -10 57 1 121 -2 143 -6 33 -6 38 -5 27 6 -16 17 -256 27 -266 10z"/>
 <path d="M970 1181 c-33 -9 -36 -35 -11 -109 12 -34 21 -81 22 -104 1 -42 1 -42 10 -13 6 17 8 70 5 119 -4 59 -2 94 5 102 12 15 8 16 -31 5z"/>
 <path d="M690 930 c-11 -7 -5 -8 20 -4 43 8 51 14 19 14 -13 0 -31 -5 -39 -10z"/>
 <path d="M760 919 c0 -11 -5 -17 -10 -14 -19 11 -22 -25 -5 -51 l16 -25 -38 7 c-49 9 -53 11 -53 37 0 20 -1 21 -17 3 -17 -16 -17 -18 6 -37 15 -13 40 -20 75 -21 l51 -1 -50 -7 c-50 -7 -50 -7 -10 -8 48 -2 155 24 173 42 21 21 23 55 2 66 -15 8 -17 6 -13 -8 2 -10 -4 -25 -15 -35 -22 -20 -82 -34 -82 -19 0 15 26 33 35 24 4 -4 5 5 1 21 -5 23 -3 27 16 28 19 1 18 3 -7 9 -56 14 -75 12 -75 -11z"/>
 <path d="M1150 930 l-35 -8 37 1 c41 2 60 -9 34 -19 -19 -7 -21 -35 -4 -52 18 -18 -6 -16 -42 3 -19 10 -30 23 -30 36 0 30 -24 18 -28 -15 -3 -23 2 -29 40 -46 24 -10 73 -21 108 -23 47 -3 54 -3 25 3 l-40 7 43 1 c39 2 102 25 102 38 0 3 -6 12 -14 20 -13 12 -15 11 -18 -8 -2 -18 -12 -24 -46 -31 -24 -5 -47 -6 -50 -2 -9 9 14 40 28 37 8 -2 9 5 4 20 -15 47 -37 55 -114 38z"/>
 <path d="M1250 936 c0 -2 13 -6 29 -8 17 -2 28 -1 25 4 -5 8 -54 12 -54 4z"/>
 <path d="M622 809 c10 -29 66 -49 161 -58 52 -5 104 -14 115 -20 27 -14 32 -14 32 3 0 30 -33 40 -145 46 -84 5 -120 11 -140 24 -19 13 -26 14 -23 5z"/>
 <path d="M1352 802 c-16 -10 -59 -17 -137 -22 -112 -6 -145 -16 -145 -46 0 -17 5 -17 32 -3 11 6 62 15 114 20 89 8 144 25 159 50 11 17 2 18 -23 1z"/>
 <path d="M1516 924 c-4 -14 -5 -29 -2 -31 3 -3 8 7 12 21 3 15 4 29 1 32 -2 3 -8 -7 -11 -22z"/>
 </g>
<g id="layer109" fill="#6e5c56" stroke="none">
 <path d="M95 1979 c32 -110 108 -209 189 -249 45 -21 257 -62 305 -58 15 1 41 -8 58 -20 17 -12 34 -22 38 -22 4 0 16 -11 27 -26 11 -14 23 -23 25 -20 3 3 13 -5 23 -16 17 -21 17 -23 -19 -48 -60 -44 -136 -134 -149 -177 -7 -22 -15 -68 -18 -102 -6 -49 -10 -61 -25 -61 -21 0 -59 -45 -59 -70 0 -10 -20 -57 -45 -106 -46 -89 -58 -157 -34 -181 8 -8 8 -17 0 -31 -6 -11 -9 -27 -6 -34 3 -8 -1 -41 -10 -73 -8 -33 -15 -78 -15 -102 0 -43 17 -93 32 -93 4 0 8 -14 8 -31 0 -35 13 -63 45 -99 12 -14 34 -46 48 -71 26 -46 64 -79 90 -79 7 0 25 -17 38 -37 28 -44 90 -81 145 -87 21 -2 58 -11 82 -20 59 -22 247 -18 284 6 13 9 41 16 62 16 48 0 124 46 145 89 10 19 26 33 41 36 33 7 79 52 98 97 8 19 23 41 34 49 24 16 48 70 48 106 0 14 4 25 8 25 15 0 32 49 32 88 0 21 -6 63 -14 93 -14 52 -16 77 -13 210 0 48 -5 65 -32 108 -18 28 -41 77 -50 108 -13 47 -23 61 -48 73 -28 14 -31 21 -37 74 -12 120 -48 180 -157 266 l-48 38 46 41 c25 22 50 41 54 41 4 0 12 7 17 16 5 9 12 15 15 15 4 -1 8 -1 10 0 1 0 13 2 27 3 75 9 247 37 279 46 93 26 162 92 199 192 33 88 35 101 22 96 -7 -2 -22 -31 -34 -64 -55 -151 -117 -195 -316 -224 -72 -11 -135 -22 -141 -26 -6 -3 -38 21 -72 53 -34 33 -124 101 -201 152 -101 68 -135 96 -125 102 11 7 10 9 -4 9 -26 0 -305 -144 -349 -180 -20 -16 -51 -49 -70 -73 l-33 -42 57 51 c70 64 141 110 243 161 103 52 122 58 141 42 13 -10 -2 -21 -93 -64 -132 -63 -209 -111 -263 -165 l-41 -41 -82 11 c-113 15 -205 44 -255 80 -44 32 -98 107 -124 175 -17 44 -45 64 -33 24z m1050 -126 l80 -54 -50 6 c-27 4 -64 10 -81 15 l-31 8 21 -51 c20 -47 21 -49 24 -21 l3 30 67 -4 c69 -4 113 -24 161 -76 l22 -23 -76 -57 c-41 -31 -75 -61 -75 -66 0 -13 -75 15 -132 50 -62 38 -98 38 -161 -1 -59 -36 -127 -62 -127 -49 0 5 -38 37 -85 72 l-86 63 45 41 c39 36 52 42 107 48 34 3 75 6 92 6 l30 0 -6 -62 -6 -63 23 73 c13 40 30 80 37 89 12 15 12 16 -6 9 -39 -14 -148 -37 -164 -34 -9 2 43 34 114 70 126 64 131 66 155 51 14 -9 61 -41 105 -70z m-207 -395 c7 -7 12 -26 12 -43 0 -39 17 -61 53 -68 33 -5 37 0 45 60 9 62 27 72 85 44 56 -27 133 -94 153 -133 8 -16 22 -64 30 -106 8 -45 30 -108 51 -151 21 -41 46 -104 56 -140 10 -36 23 -84 29 -106 7 -22 11 -78 11 -123 -1 -73 -5 -89 -27 -121 -14 -20 -26 -44 -26 -53 0 -16 -92 -78 -116 -78 -8 0 -37 11 -64 25 -28 14 -62 24 -77 23 -16 -1 -37 3 -48 9 -26 15 -180 15 -214 1 -14 -6 -35 -10 -46 -9 -11 1 -42 -12 -68 -29 -59 -37 -73 -37 -117 -2 -19 16 -43 31 -52 35 -10 3 -18 14 -18 24 0 9 -12 34 -26 55 -23 33 -27 48 -27 120 0 46 4 101 11 123 6 22 19 69 27 105 9 36 21 73 26 83 50 94 69 142 80 202 6 39 20 86 30 106 22 44 94 110 152 138 49 24 59 25 75 9z m-384 -320 c-4 -13 -11 -34 -17 -48 -6 -14 -9 -30 -8 -37 1 -6 -3 -14 -9 -18 -6 -4 -7 1 -4 12 5 16 4 16 -10 -1 -9 -11 -16 -15 -16 -9 0 7 5 15 11 18 6 4 8 14 5 22 -4 8 -2 11 5 7 8 -4 9 1 4 15 -4 15 -1 29 11 42 23 26 37 24 28 -3z m922 -3 c9 -14 14 -32 10 -40 -3 -9 2 -28 12 -43 9 -14 12 -23 6 -19 -15 9 -24 -14 -18 -45 l5 -23 -11 23 c-5 13 -7 28 -4 33 3 6 0 18 -8 27 -12 15 -11 16 5 3 10 -8 17 -9 17 -3 0 6 -9 17 -19 24 -22 15 -40 88 -22 88 6 0 18 -11 27 -25z m-990 -173 c1 -15 5 -38 8 -52 5 -21 4 -20 -8 5 -17 34 -21 20 -6 -19 8 -21 6 -26 -11 -31 -29 -10 -31 -3 -14 45 8 23 15 54 15 68 0 33 15 18 16 -16z m1053 -59 c1 -46 -12 -56 -29 -22 -9 16 -8 32 2 66 11 39 14 42 19 21 4 -12 7 -42 8 -65z"/>
 <path d="M975 1860 c-4 -6 7 -10 25 -10 18 0 29 4 25 10 -3 6 -15 10 -25 10 -10 0 -22 -4 -25 -10z"/>
 <path d="M866 1311 c-5 -8 23 -11 96 -10 57 1 121 -2 143 -6 33 -6 38 -5 27 6 -16 17 -256 27 -266 10z"/>
 <path d="M970 1181 c-33 -9 -36 -35 -11 -109 12 -34 21 -81 22 -104 1 -42 1 -42 10 -13 6 17 8 70 5 119 -4 59 -2 94 5 102 12 15 8 16 -31 5z"/>
 <path d="M690 930 c-11 -7 -5 -8 20 -4 43 8 51 14 19 14 -13 0 -31 -5 -39 -10z"/>
 <path d="M760 919 c0 -11 -5 -17 -10 -14 -19 11 -22 -25 -5 -51 l16 -25 -38 7 c-49 9 -53 11 -53 37 0 20 -1 21 -17 3 -17 -16 -17 -18 6 -37 15 -13 40 -20 75 -21 l51 -1 -50 -7 c-50 -7 -50 -7 -10 -8 48 -2 155 24 173 42 21 21 23 55 2 66 -15 8 -17 6 -13 -8 2 -10 -4 -25 -15 -35 -22 -20 -82 -34 -82 -19 0 15 26 33 35 24 4 -4 5 5 1 21 -5 23 -3 27 16 28 19 1 18 3 -7 9 -56 14 -75 12 -75 -11z"/>
 <path d="M1150 930 l-35 -8 37 1 c41 2 60 -9 34 -19 -19 -7 -21 -35 -4 -52 18 -18 -6 -16 -42 3 -19 10 -30 23 -30 36 0 30 -24 18 -28 -15 -3 -23 2 -29 40 -46 24 -10 73 -21 108 -23 47 -3 54 -3 25 3 l-40 7 43 1 c39 2 102 25 102 38 0 3 -6 12 -14 20 -13 12 -15 11 -18 -8 -2 -18 -12 -24 -46 -31 -24 -5 -47 -6 -50 -2 -9 9 14 40 28 37 8 -2 9 5 4 20 -15 47 -37 55 -114 38z"/>
 <path d="M1250 936 c0 -2 13 -6 29 -8 17 -2 28 -1 25 4 -5 8 -54 12 -54 4z"/>
 <path d="M622 809 c10 -29 66 -49 161 -58 52 -5 104 -14 115 -20 27 -14 32 -14 32 3 0 30 -33 40 -145 46 -84 5 -120 11 -140 24 -19 13 -26 14 -23 5z"/>
 <path d="M1352 802 c-16 -10 -59 -17 -137 -22 -112 -6 -145 -16 -145 -46 0 -17 5 -17 32 -3 11 6 62 15 114 20 89 8 144 25 159 50 11 17 2 18 -23 1z"/>
 <path d="M1516 924 c-4 -14 -5 -29 -2 -31 3 -3 8 7 12 21 3 15 4 29 1 32 -2 3 -8 -7 -11 -22z"/>
 <path d="M1050 1996 c0 -2 48 -39 108 -82 59 -43 142 -109 186 -147 43 -37 81 -65 85 -61 10 10 -162 155 -280 234 -83 56 -99 65 -99 56z"/>
 </g>
<g id="layer110" fill="#176d95" stroke="none">
 <path d="M95 1979 c32 -110 108 -209 189 -249 45 -21 257 -62 305 -58 15 1 41 -8 58 -20 17 -12 34 -22 38 -22 4 0 16 -11 27 -26 11 -14 23 -23 25 -20 3 3 13 -5 23 -16 17 -21 17 -23 -19 -48 -60 -44 -136 -134 -149 -177 -7 -22 -15 -68 -18 -102 -6 -49 -10 -61 -25 -61 -21 0 -59 -45 -59 -70 0 -10 -20 -57 -45 -106 -46 -89 -58 -157 -34 -181 8 -8 8 -17 0 -31 -6 -11 -9 -27 -6 -34 3 -8 -1 -41 -10 -73 -8 -33 -15 -78 -15 -102 0 -43 17 -93 32 -93 4 0 8 -14 8 -31 0 -35 13 -63 45 -99 12 -14 34 -46 48 -71 26 -46 64 -79 90 -79 7 0 25 -17 38 -37 28 -44 90 -81 145 -87 21 -2 58 -11 82 -20 59 -22 247 -18 284 6 13 9 41 16 62 16 48 0 124 46 145 89 10 19 26 33 41 36 33 7 79 52 98 97 8 19 23 41 34 49 24 16 48 70 48 106 0 14 4 25 8 25 15 0 32 49 32 88 0 21 -6 63 -14 93 -14 52 -16 77 -13 210 0 48 -5 65 -32 108 -18 28 -41 77 -50 108 -13 47 -23 61 -48 73 -28 14 -31 21 -37 74 -12 120 -48 180 -157 266 l-48 38 46 41 c25 22 50 41 54 41 4 0 12 7 17 16 5 9 12 15 15 15 4 -1 8 -1 10 0 1 0 13 2 27 3 75 9 247 37 279 46 93 26 162 92 199 192 33 88 35 101 22 96 -7 -2 -22 -31 -34 -64 -55 -151 -117 -195 -316 -224 -72 -11 -135 -22 -141 -26 -6 -3 -38 21 -72 53 -34 33 -124 101 -201 152 -101 68 -135 96 -125 102 11 7 10 9 -4 9 -26 0 -305 -144 -349 -180 -20 -16 -51 -49 -70 -73 l-33 -42 57 51 c70 64 141 110 243 161 103 52 122 58 141 42 13 -10 -2 -21 -93 -64 -132 -63 -209 -111 -263 -165 l-41 -41 -82 11 c-113 15 -205 44 -255 80 -44 32 -98 107 -124 175 -17 44 -45 64 -33 24z m1018 -100 c51 -34 97 -66 102 -71 11 -10 -64 -3 -121 12 l-31 8 21 -51 c20 -47 21 -49 24 -21 l3 30 67 -4 c75 -5 89 -11 149 -60 l41 -35 -79 -58 c-43 -33 -79 -63 -79 -69 0 -13 -74 15 -132 50 -62 38 -98 38 -162 -1 -28 -18 -66 -37 -84 -43 -32 -11 -36 -10 -70 22 -21 18 -63 51 -94 72 l-57 38 46 38 c48 39 93 52 192 53 l44 1 -6 -62 -6 -63 23 73 c13 40 29 79 36 87 15 18 12 18 -26 5 -45 -16 -177 -39 -168 -30 7 7 262 138 272 139 1 1 44 -27 95 -60z m-175 -421 c7 -7 12 -26 12 -43 0 -39 17 -61 53 -68 33 -5 37 0 45 60 9 62 27 72 85 44 56 -27 133 -94 153 -133 8 -16 22 -64 30 -106 8 -45 30 -108 51 -151 21 -41 46 -104 56 -140 10 -36 23 -84 29 -106 7 -22 11 -78 11 -123 -1 -73 -5 -89 -27 -121 -14 -20 -26 -44 -26 -53 0 -16 -92 -78 -116 -78 -8 0 -37 11 -64 25 -28 14 -62 24 -77 23 -16 -1 -37 3 -48 9 -26 15 -180 15 -214 1 -14 -6 -35 -10 -46 -9 -11 1 -42 -12 -68 -29 -59 -37 -73 -37 -117 -2 -19 16 -43 31 -52 35 -10 3 -18 14 -18 24 0 9 -12 34 -26 55 -23 33 -27 48 -27 120 0 46 4 101 11 123 6 22 19 69 27 105 9 36 21 73 26 83 50 94 69 142 80 202 6 39 20 86 30 106 22 44 94 110 152 138 49 24 59 25 75 9z m-384 -320 c-4 -13 -11 -34 -17 -48 -6 -14 -9 -30 -8 -37 1 -6 -3 -14 -9 -18 -6 -4 -7 1 -4 12 5 16 4 16 -10 -1 -9 -11 -16 -15 -16 -9 0 7 5 15 11 18 6 4 8 14 5 22 -4 8 -2 11 5 7 8 -4 9 1 4 15 -4 15 -1 29 11 42 23 26 37 24 28 -3z m922 -3 c9 -14 14 -32 10 -40 -3 -9 2 -28 12 -43 9 -14 12 -23 6 -19 -15 9 -24 -14 -18 -45 l5 -23 -11 23 c-5 13 -7 28 -4 33 3 6 0 18 -8 27 -12 15 -11 16 5 3 10 -8 17 -9 17 -3 0 6 -9 17 -19 24 -22 15 -40 88 -22 88 6 0 18 -11 27 -25z m-990 -173 c1 -15 5 -38 8 -52 5 -21 4 -20 -8 5 -17 34 -21 20 -6 -19 8 -21 6 -26 -11 -31 -29 -10 -31 -3 -14 45 8 23 15 54 15 68 0 33 15 18 16 -16z m1053 -59 c1 -46 -12 -56 -29 -22 -9 16 -8 32 2 66 11 39 14 42 19 21 4 -12 7 -42 8 -65z"/>
 <path d="M975 1860 c-4 -6 7 -10 25 -10 18 0 29 4 25 10 -3 6 -15 10 -25 10 -10 0 -22 -4 -25 -10z"/>
 <path d="M866 1311 c-5 -8 23 -11 96 -10 57 1 121 -2 143 -6 33 -6 38 -5 27 6 -16 17 -256 27 -266 10z"/>
 <path d="M970 1181 c-33 -9 -36 -35 -11 -109 12 -34 21 -81 22 -104 1 -42 1 -42 10 -13 6 17 8 70 5 119 -4 59 -2 94 5 102 12 15 8 16 -31 5z"/>
 <path d="M763 920 c-3 -11 -12 -20 -19 -20 -18 0 -18 -20 2 -48 14 -21 14 -22 -5 -22 -33 0 -71 19 -71 35 0 18 -16 20 -26 3 -13 -21 35 -48 90 -50 l51 -1 -50 -7 c-50 -7 -50 -7 -10 -8 48 -2 155 24 173 42 21 20 23 55 4 65 -15 8 -18 5 -17 -17 0 -23 -7 -29 -42 -41 -23 -9 -45 -12 -49 -8 -10 10 16 38 29 30 6 -4 8 3 3 20 -4 16 -2 27 6 30 7 2 5 3 -4 2 -10 -2 -18 1 -18 6 0 18 -42 9 -47 -11z"/>
 <path d="M1150 930 l-35 -8 39 1 c24 1 41 -3 44 -11 2 -6 -3 -12 -12 -12 -19 0 -21 -31 -4 -48 18 -18 -6 -16 -42 3 -19 10 -30 23 -30 36 0 30 -24 18 -28 -15 -3 -23 2 -29 40 -46 24 -10 73 -21 108 -23 47 -3 54 -3 25 3 l-40 7 43 1 c39 2 102 25 102 38 0 3 -7 12 -15 20 -13 14 -15 13 -15 -5 0 -25 -6 -29 -58 -37 -34 -5 -42 -4 -42 9 0 9 10 23 21 31 l21 15 -25 25 c-27 27 -38 29 -97 16z"/>
 <path d="M1250 936 c0 -2 13 -6 29 -8 17 -2 28 -1 25 4 -5 8 -54 12 -54 4z"/>
 <path d="M622 809 c10 -29 66 -49 161 -58 52 -5 104 -14 115 -20 27 -14 32 -14 32 3 0 30 -33 40 -145 46 -84 5 -120 11 -140 24 -19 13 -26 14 -23 5z"/>
 <path d="M1352 802 c-16 -10 -59 -17 -137 -22 -112 -6 -145 -16 -145 -46 0 -17 5 -17 32 -3 11 6 62 15 114 20 89 8 144 25 159 50 11 17 2 18 -23 1z"/>
 <path d="M1516 924 c-4 -14 -5 -29 -2 -31 3 -3 8 7 12 21 3 15 4 29 1 32 -2 3 -8 -7 -11 -22z"/>
 <path d="M1050 1996 c0 -2 48 -39 108 -82 59 -43 142 -109 186 -147 43 -37 81 -65 85 -61 10 10 -162 155 -280 234 -83 56 -99 65 -99 56z"/>
 </g>
<g id="layer111" fill="#865139" stroke="none">
 <path d="M95 1978 c32 -109 108 -208 189 -248 45 -21 257 -62 305 -58 15 1 41 -8 58 -20 17 -12 34 -22 38 -22 4 0 16 -11 27 -26 11 -14 23 -23 25 -20 3 3 13 -5 23 -16 17 -21 17 -23 -19 -48 -60 -44 -136 -134 -149 -177 -7 -22 -15 -68 -18 -102 -6 -49 -10 -61 -25 -61 -21 0 -59 -45 -59 -70 0 -10 -20 -57 -45 -106 -46 -89 -58 -157 -34 -181 8 -8 8 -17 0 -31 -6 -11 -9 -27 -6 -34 3 -8 -1 -41 -10 -73 -8 -33 -15 -78 -15 -102 0 -43 17 -93 32 -93 4 0 8 -14 8 -31 0 -35 13 -63 45 -99 12 -14 34 -46 48 -71 26 -46 64 -79 90 -79 7 0 25 -17 38 -37 28 -44 90 -81 145 -87 21 -2 58 -11 82 -20 59 -22 247 -18 284 6 13 9 41 16 62 16 48 0 124 46 145 89 10 19 26 33 41 36 33 7 79 52 98 97 8 19 23 41 34 49 24 16 48 70 48 106 0 14 4 25 8 25 15 0 32 49 32 88 0 21 -6 63 -14 93 -14 52 -16 77 -13 210 0 48 -5 65 -32 108 -18 28 -41 77 -50 108 -13 47 -23 61 -48 73 -28 14 -31 21 -37 74 -12 120 -48 180 -157 266 l-48 38 46 41 c25 22 50 41 54 41 4 0 12 7 17 16 5 9 12 15 15 15 4 -1 8 -1 10 0 1 0 13 2 27 3 75 9 247 37 279 46 93 26 162 92 199 192 33 88 35 101 22 96 -7 -2 -23 -32 -35 -66 -40 -111 -98 -173 -185 -201 -19 -6 -78 -17 -130 -24 l-95 -13 -76 71 c-79 73 -306 241 -315 233 -2 -3 8 -13 23 -23 55 -36 229 -169 292 -224 58 -51 61 -56 43 -64 -17 -8 -33 1 -94 57 -40 37 -129 104 -198 149 -69 45 -124 88 -123 95 2 6 0 12 -3 12 -3 0 -72 -32 -152 -72 -130 -64 -155 -81 -222 -146 -73 -72 -73 -73 -9 -16 70 63 182 133 291 182 57 26 69 28 85 17 10 -7 16 -15 13 -18 -3 -2 -61 -32 -130 -65 -128 -63 -236 -135 -263 -176 -14 -21 -20 -23 -54 -15 -21 4 -78 15 -127 24 -108 20 -172 51 -220 107 -33 38 -73 111 -90 161 -8 26 -29 21 -21 -5z m1018 -99 c51 -34 97 -66 102 -71 11 -10 -64 -3 -121 12 l-31 8 21 -51 c20 -47 21 -49 24 -21 l3 30 67 -4 c75 -5 89 -11 149 -60 l41 -35 -79 -58 c-43 -33 -79 -63 -79 -69 0 -13 -74 15 -132 50 -62 38 -98 38 -162 -1 -28 -18 -66 -37 -84 -43 -32 -11 -36 -10 -70 22 -21 18 -63 51 -94 72 l-57 38 46 38 c48 39 93 52 192 53 l44 1 -6 -62 -6 -63 23 73 c13 40 29 79 36 87 15 18 12 18 -26 5 -45 -16 -177 -39 -168 -30 7 7 262 138 272 139 1 1 44 -27 95 -60z m-175 -421 c7 -7 12 -26 12 -43 0 -39 17 -61 53 -68 33 -5 37 0 45 60 9 62 27 72 85 44 56 -27 133 -94 153 -133 8 -16 22 -64 30 -106 8 -45 30 -108 51 -151 21 -41 46 -104 56 -140 10 -36 23 -84 29 -106 7 -22 11 -78 11 -123 -1 -73 -5 -89 -27 -121 -14 -20 -26 -44 -26 -53 0 -16 -92 -78 -116 -78 -8 0 -37 11 -64 25 -28 14 -62 24 -77 23 -16 -1 -37 3 -48 9 -26 15 -180 15 -214 1 -14 -6 -35 -10 -46 -9 -11 1 -42 -12 -68 -29 -59 -37 -73 -37 -117 -2 -19 16 -43 31 -52 35 -10 3 -18 14 -18 24 0 9 -12 34 -26 55 -23 33 -27 48 -27 120 0 46 4 101 11 123 6 22 19 69 27 105 9 36 21 73 26 83 50 94 69 142 80 202 6 39 20 86 30 106 22 44 94 110 152 138 49 24 59 25 75 9z m-384 -320 c-4 -13 -11 -34 -17 -48 -6 -14 -9 -30 -8 -37 1 -6 -3 -14 -9 -18 -6 -4 -7 1 -4 12 5 16 4 16 -10 -1 -9 -11 -16 -15 -16 -9 0 7 5 15 11 18 6 4 8 14 5 22 -4 8 -2 11 5 7 8 -4 9 1 4 15 -4 15 -1 29 11 42 23 26 37 24 28 -3z m922 -3 c9 -14 14 -32 10 -40 -3 -9 2 -28 12 -43 9 -14 12 -23 6 -19 -15 9 -24 -14 -18 -45 l5 -23 -11 23 c-5 13 -7 28 -4 33 3 6 0 18 -8 27 -12 15 -11 16 5 3 10 -8 17 -9 17 -3 0 6 -9 17 -19 24 -22 15 -40 88 -22 88 6 0 18 -11 27 -25z m-990 -173 c1 -15 5 -38 8 -52 5 -21 4 -20 -8 5 -17 34 -21 20 -6 -19 8 -21 6 -26 -11 -31 -29 -10 -31 -3 -14 45 8 23 15 54 15 68 0 33 15 18 16 -16z m1053 -59 c1 -46 -12 -56 -29 -22 -9 16 -8 32 2 66 11 39 14 42 19 21 4 -12 7 -42 8 -65z"/>
 <path d="M975 1860 c-4 -6 7 -10 25 -10 18 0 29 4 25 10 -3 6 -15 10 -25 10 -10 0 -22 -4 -25 -10z"/>
 <path d="M866 1311 c-5 -8 23 -11 96 -10 57 1 121 -2 143 -6 33 -6 38 -5 27 6 -16 17 -256 27 -266 10z"/>
 <path d="M970 1181 c-33 -9 -36 -35 -11 -109 12 -34 21 -81 22 -104 1 -42 1 -42 10 -13 6 17 8 70 5 119 -4 59 -2 94 5 102 12 15 8 16 -31 5z"/>
 <path d="M763 920 c-3 -11 -12 -20 -19 -20 -18 0 -18 -20 2 -48 14 -21 14 -22 -5 -22 -33 0 -71 19 -71 35 0 18 -16 20 -26 3 -13 -21 35 -48 90 -50 l51 -1 -50 -7 c-50 -7 -50 -7 -10 -8 48 -2 155 24 173 42 21 20 23 55 4 65 -15 8 -18 5 -17 -17 0 -23 -7 -29 -42 -41 -23 -9 -45 -12 -49 -8 -10 10 16 38 29 30 6 -4 8 3 3 20 -4 16 -2 27 6 30 7 2 5 3 -4 2 -10 -2 -18 1 -18 6 0 18 -42 9 -47 -11z"/>
 <path d="M1150 930 l-35 -8 39 1 c24 1 41 -3 44 -11 2 -6 -3 -12 -12 -12 -19 0 -21 -31 -4 -48 18 -18 -6 -16 -42 3 -19 10 -30 23 -30 36 0 30 -24 18 -28 -15 -3 -23 2 -29 40 -46 24 -10 73 -21 108 -23 47 -3 54 -3 25 3 l-40 7 43 1 c39 2 102 25 102 38 0 3 -7 12 -15 20 -13 14 -15 13 -15 -5 0 -25 -6 -29 -58 -37 -34 -5 -42 -4 -42 9 0 9 10 23 21 31 l21 15 -25 25 c-27 27 -38 29 -97 16z"/>
 <path d="M1250 936 c0 -2 13 -6 29 -8 17 -2 28 -1 25 4 -5 8 -54 12 -54 4z"/>
 <path d="M622 809 c10 -29 66 -49 161 -58 52 -5 104 -14 115 -20 27 -14 32 -14 32 3 0 30 -33 40 -145 46 -84 5 -120 11 -140 24 -19 13 -26 14 -23 5z"/>
 <path d="M1352 802 c-16 -10 -59 -17 -137 -22 -112 -6 -145 -16 -145 -46 0 -17 5 -17 32 -3 11 6 62 15 114 20 89 8 144 25 159 50 11 17 2 18 -23 1z"/>
 <path d="M1516 924 c-4 -14 -5 -29 -2 -31 3 -3 8 7 12 21 3 15 4 29 1 32 -2 3 -8 -7 -11 -22z"/>
 </g>
<g id="layer112" fill="#106288" stroke="none">
 <path d="M95 1978 c32 -109 108 -208 189 -248 47 -22 250 -60 312 -58 21 1 40 -4 42 -10 2 -7 10 -12 17 -12 7 0 15 -5 17 -11 2 -7 10 -10 17 -8 8 3 -6 17 -33 36 l-47 30 41 33 c73 58 112 82 243 147 l127 63 92 -62 c93 -62 137 -94 215 -157 36 -29 41 -37 32 -54 -9 -15 -8 -18 2 -11 7 4 22 8 33 10 53 4 242 35 275 44 93 26 162 92 199 192 33 88 35 101 22 96 -7 -2 -23 -32 -35 -66 -40 -111 -98 -173 -185 -201 -19 -6 -78 -17 -130 -24 l-95 -13 -76 71 c-79 73 -306 241 -315 233 -2 -3 8 -13 23 -23 55 -36 229 -169 292 -224 58 -51 61 -56 43 -64 -17 -8 -33 1 -94 57 -40 37 -129 104 -198 149 -69 45 -124 88 -123 95 2 6 0 12 -3 12 -3 0 -72 -32 -152 -72 -130 -64 -155 -81 -222 -146 -73 -72 -73 -73 -9 -16 70 63 182 133 291 182 57 26 69 28 85 17 10 -7 16 -15 13 -18 -3 -2 -61 -32 -130 -65 -128 -63 -236 -135 -263 -176 -14 -21 -20 -23 -54 -15 -21 4 -78 15 -127 24 -108 20 -172 51 -220 107 -33 38 -73 111 -90 161 -8 26 -29 21 -21 -5z"/>
 <path d="M1285 1625 c-28 -24 -35 -34 -23 -35 9 0 23 8 30 18 7 10 21 21 31 25 17 6 24 27 10 27 -5 0 -26 -16 -48 -35z"/>
 <path d="M710 1611 c0 -13 26 -32 33 -24 8 7 -11 33 -24 33 -5 0 -9 -4 -9 -9z"/>
 <path d="M846 1569 c-46 -17 -50 -17 -62 -1 -7 9 -16 14 -20 10 -4 -4 -2 -14 4 -21 9 -10 5 -17 -17 -30 -16 -9 -55 -45 -87 -80 -64 -68 -80 -104 -90 -206 -6 -49 -10 -61 -25 -61 -21 0 -59 -45 -59 -70 0 -10 -20 -57 -45 -106 -46 -89 -58 -157 -34 -181 8 -8 8 -17 0 -31 -6 -11 -9 -27 -6 -34 3 -8 -1 -41 -10 -73 -8 -33 -15 -78 -15 -102 0 -43 17 -93 32 -93 4 0 8 -14 8 -31 0 -35 13 -63 45 -99 12 -14 34 -46 48 -71 26 -46 64 -79 90 -79 7 0 25 -17 38 -37 28 -44 90 -81 145 -87 21 -2 58 -11 82 -20 59 -22 247 -18 284 6 13 9 41 16 62 16 48 0 124 46 145 89 10 19 26 33 41 36 33 7 79 52 98 97 8 19 23 41 34 49 24 16 48 70 48 106 0 14 4 25 8 25 15 0 32 49 32 88 0 21 -6 62 -14 92 -8 30 -16 78 -18 105 -2 28 -7 56 -11 62 -6 9 -3 11 9 6 29 -11 11 89 -27 148 -17 27 -39 75 -48 106 -13 47 -23 61 -48 73 -28 14 -31 21 -37 74 -12 120 -48 180 -157 266 -35 28 -45 40 -36 49 6 6 7 14 3 18 -4 5 -13 0 -20 -9 -12 -16 -16 -16 -67 2 -73 27 -232 26 -303 -1z m98 -115 c3 -9 6 -27 6 -40 0 -41 18 -64 50 -64 32 0 50 23 50 64 0 36 10 56 29 56 53 -1 192 -105 212 -158 5 -13 18 -65 29 -115 13 -60 32 -111 55 -150 19 -32 35 -67 35 -78 0 -16 13 -64 52 -188 17 -54 1 -173 -28 -212 -13 -18 -24 -40 -24 -49 0 -18 -88 -80 -114 -80 -9 0 -39 11 -66 25 -28 14 -62 25 -77 24 -16 -1 -39 3 -54 9 -34 14 -178 13 -203 -1 -12 -6 -33 -10 -47 -9 -15 1 -45 -11 -70 -28 -24 -16 -52 -30 -61 -30 -27 0 -128 72 -128 91 0 10 -12 32 -26 49 -25 29 -27 39 -27 118 1 103 5 139 22 169 6 12 16 46 21 75 6 29 28 87 50 128 23 46 43 102 51 145 16 93 32 128 80 175 41 40 130 90 160 90 9 0 20 -7 23 -16z m-387 -308 c-3 -8 -13 -50 -23 -95 -9 -44 -21 -78 -27 -74 -5 3 -7 18 -5 34 3 19 1 26 -5 20 -15 -15 -17 -82 -3 -87 8 -3 11 -15 8 -32 -6 -35 -20 -52 -42 -52 -20 0 -21 36 -2 83 7 16 12 35 12 43 0 8 7 28 15 45 9 16 15 35 14 42 -4 26 33 87 54 87 5 0 7 -6 4 -14z m929 -32 c11 -21 19 -44 17 -51 -3 -6 2 -24 10 -40 8 -15 18 -48 22 -73 4 -25 11 -50 16 -56 6 -7 3 -16 -7 -25 -14 -11 -19 -10 -34 9 -17 21 -17 25 -3 62 14 34 14 44 2 72 l-14 33 -5 -40 c-5 -39 -6 -37 -28 47 -12 48 -22 92 -22 98 0 23 25 3 46 -36z"/>
 <path d="M874 1308 c-5 -8 12 -10 67 -6 41 4 99 3 129 -2 30 -4 57 -6 59 -4 12 11 -17 15 -127 19 -85 3 -123 1 -128 -7z"/>
 <path d="M964 1166 c-18 -14 -19 -16 -1 -64 9 -27 17 -72 18 -98 0 -37 3 -44 9 -29 11 27 12 112 1 119 -9 6 -6 60 4 77 9 14 -9 11 -31 -5z"/>
 <path d="M763 920 c-3 -11 -12 -20 -19 -20 -18 0 -18 -20 2 -48 14 -21 14 -22 -5 -22 -32 0 -69 18 -73 34 -2 11 -7 13 -18 6 -13 -8 -13 -12 3 -27 14 -15 33 -18 100 -17 97 2 127 6 121 15 -2 4 3 12 11 19 8 7 15 16 15 21 0 5 -9 0 -19 -10 -19 -19 -78 -37 -88 -27 -9 9 18 36 30 29 6 -4 8 3 3 20 -4 16 -2 27 6 30 7 2 5 3 -4 2 -10 -2 -18 1 -18 6 0 18 -42 9 -47 -11z"/>
 <path d="M1195 920 c5 -14 2 -20 -9 -20 -19 0 -21 -31 -4 -48 20 -20 -12 -15 -49 8 -22 13 -30 15 -27 5 10 -25 70 -45 137 -45 57 0 70 4 94 26 15 14 22 23 16 19 -8 -4 -13 1 -14 12 -1 12 -3 10 -8 -7 -7 -24 -33 -37 -78 -39 -29 -1 -30 23 -2 43 l21 15 -25 25 c-32 32 -61 35 -52 6z"/>
 <path d="M622 810 c10 -31 65 -51 168 -60 56 -4 107 -13 113 -19 15 -15 27 -14 27 4 0 27 -52 42 -162 47 -88 4 -112 8 -129 24 -16 14 -21 15 -17 4z"/>
 <path d="M1357 803 c-12 -13 -44 -18 -135 -23 -119 -6 -152 -16 -152 -46 0 -16 12 -18 26 -4 6 6 56 14 112 20 96 9 152 26 167 51 12 18 0 19 -18 2z"/>
 </g>
<g id="layer113" fill="#764935" stroke="none">
 <path d="M95 1978 c24 -81 96 -198 121 -198 7 0 14 -6 17 -14 9 -24 94 -57 179 -71 111 -18 123 -6 17 15 -46 10 -103 25 -126 35 -58 23 -134 108 -169 189 -27 63 -53 91 -39 44z"/>
 <path d="M1869 1963 c-19 -59 -56 -129 -89 -166 -40 -46 -108 -74 -219 -88 -62 -9 -87 -16 -76 -21 9 -6 52 -3 107 7 177 30 244 93 302 283 4 12 3 22 -3 22 -5 0 -15 -17 -22 -37z"/>
 <path d="M950 1979 c-12 -9 -12 -10 4 -5 11 4 26 0 37 -10 17 -16 10 -21 -132 -91 -116 -58 -164 -88 -212 -133 -52 -49 -67 -57 -90 -53 -16 3 -27 1 -27 -6 0 -7 19 -11 52 -10 32 2 53 -2 56 -9 2 -7 10 -12 17 -12 7 0 15 -5 17 -11 2 -7 10 -10 17 -8 8 3 -6 17 -33 36 l-47 30 41 33 c73 58 112 82 243 147 l127 63 92 -62 c93 -62 137 -94 215 -157 36 -29 41 -37 32 -54 -9 -15 -8 -18 1 -12 7 5 29 9 48 11 20 2 40 9 46 15 8 9 1 10 -27 5 -36 -7 -41 -4 -99 49 -44 41 -350 256 -362 255 0 0 -8 -5 -16 -11z"/>
 <path d="M1100 1966 c0 -2 14 -14 30 -26 17 -12 30 -19 30 -16 0 2 -13 14 -30 26 -16 12 -30 19 -30 16z"/>
 <path d="M1200 1893 c19 -15 76 -63 127 -105 51 -43 93 -76 93 -73 0 8 -157 139 -206 173 -37 25 -41 26 -14 5z"/>
 <path d="M695 1846 c-28 -18 -57 -42 -65 -51 -8 -10 5 -3 30 16 25 19 57 42 70 51 14 9 23 17 20 17 -3 1 -28 -14 -55 -33z"/>
 <path d="M1285 1625 c-28 -24 -35 -34 -23 -35 9 0 23 8 30 18 7 10 21 21 31 25 17 6 24 27 10 27 -5 0 -26 -16 -48 -35z"/>
 <path d="M710 1611 c0 -13 26 -32 33 -24 8 7 -11 33 -24 33 -5 0 -9 -4 -9 -9z"/>
 <path d="M846 1569 c-46 -17 -50 -17 -62 -1 -7 9 -16 14 -20 10 -4 -4 -2 -14 4 -21 9 -10 5 -17 -17 -30 -16 -9 -55 -45 -87 -80 -64 -68 -80 -104 -90 -206 -6 -49 -10 -61 -25 -61 -21 0 -59 -45 -59 -70 0 -10 -20 -57 -45 -106 -46 -89 -58 -157 -34 -181 8 -8 8 -17 0 -31 -6 -11 -9 -27 -6 -34 3 -8 -1 -41 -10 -73 -8 -33 -15 -78 -15 -102 0 -43 17 -93 32 -93 4 0 8 -14 8 -31 0 -35 13 -63 45 -99 12 -14 34 -46 48 -71 26 -46 64 -79 90 -79 7 0 25 -17 38 -37 28 -44 90 -81 145 -87 21 -2 58 -11 82 -20 59 -22 247 -18 284 6 13 9 41 16 62 16 48 0 124 46 145 89 10 19 26 33 41 36 33 7 79 52 98 97 8 19 23 41 34 49 24 16 48 70 48 106 0 14 4 25 8 25 15 0 32 49 32 88 0 21 -6 62 -14 92 -8 30 -16 78 -18 105 -2 28 -7 56 -11 62 -6 9 -3 11 9 6 29 -11 11 89 -27 148 -17 27 -39 75 -48 106 -13 47 -23 61 -48 73 -28 14 -31 21 -37 74 -12 120 -48 180 -157 266 -35 28 -45 40 -36 49 6 6 7 14 3 18 -4 5 -13 0 -20 -9 -12 -16 -16 -16 -67 2 -73 27 -232 26 -303 -1z m98 -115 c3 -9 6 -27 6 -40 0 -41 18 -64 50 -64 32 0 50 23 50 64 0 36 10 56 29 56 53 -1 192 -105 212 -158 5 -13 18 -65 29 -115 13 -60 32 -111 55 -150 19 -32 35 -67 35 -78 0 -16 13 -64 52 -188 17 -54 1 -173 -28 -212 -13 -18 -24 -40 -24 -49 0 -18 -88 -80 -114 -80 -9 0 -39 11 -66 25 -28 14 -62 25 -77 24 -16 -1 -39 3 -54 9 -34 14 -178 13 -203 -1 -12 -6 -33 -10 -47 -9 -15 1 -45 -11 -70 -28 -24 -16 -52 -30 -61 -30 -27 0 -128 72 -128 91 0 10 -12 32 -26 49 -25 29 -27 39 -27 118 1 103 5 139 22 169 6 12 16 46 21 75 6 29 28 87 50 128 23 46 43 102 51 145 16 93 32 128 80 175 41 40 130 90 160 90 9 0 20 -7 23 -16z m-387 -308 c-3 -8 -13 -50 -23 -95 -9 -44 -21 -78 -27 -74 -5 3 -7 18 -5 34 3 19 1 26 -5 20 -15 -15 -17 -82 -3 -87 8 -3 11 -15 8 -32 -6 -35 -20 -52 -42 -52 -20 0 -21 36 -2 83 7 16 12 35 12 43 0 8 7 28 15 45 9 16 15 35 14 42 -4 26 33 87 54 87 5 0 7 -6 4 -14z m929 -32 c11 -21 19 -44 17 -51 -3 -6 2 -24 10 -40 8 -15 18 -48 22 -73 4 -25 11 -50 16 -56 6 -7 3 -16 -7 -25 -14 -11 -19 -10 -34 9 -17 21 -17 25 -3 62 14 34 14 44 2 72 l-14 33 -5 -40 c-5 -39 -6 -37 -28 47 -12 48 -22 92 -22 98 0 23 25 3 46 -36z"/>
 <path d="M874 1308 c-5 -8 12 -10 67 -6 41 4 99 3 129 -2 30 -4 57 -6 59 -4 12 11 -17 15 -127 19 -85 3 -123 1 -128 -7z"/>
 <path d="M964 1166 c-18 -14 -19 -16 -1 -64 9 -27 17 -72 18 -98 0 -37 3 -44 9 -29 11 27 12 112 1 119 -9 6 -6 60 4 77 9 14 -9 11 -31 -5z"/>
 <path d="M763 920 c-3 -11 -12 -20 -19 -20 -18 0 -18 -20 2 -48 14 -21 14 -22 -5 -22 -32 0 -69 18 -73 34 -2 11 -7 13 -18 6 -13 -8 -13 -12 3 -27 14 -15 33 -18 100 -17 97 2 127 6 121 15 -2 4 3 12 11 19 8 7 15 16 15 21 0 5 -9 0 -19 -10 -19 -19 -78 -37 -88 -27 -9 9 18 36 30 29 6 -4 8 3 3 20 -4 16 -2 27 6 30 7 2 5 3 -4 2 -10 -2 -18 1 -18 6 0 18 -42 9 -47 -11z"/>
 <path d="M1195 920 c5 -14 2 -20 -9 -20 -19 0 -21 -31 -4 -48 20 -20 -12 -15 -49 8 -22 13 -30 15 -27 5 10 -25 70 -45 137 -45 57 0 70 4 94 26 15 14 22 23 16 19 -8 -4 -13 1 -14 12 -1 12 -3 10 -8 -7 -7 -24 -33 -37 -78 -39 -29 -1 -30 23 -2 43 l21 15 -25 25 c-32 32 -61 35 -52 6z"/>
 <path d="M622 810 c10 -31 65 -51 168 -60 56 -4 107 -13 113 -19 15 -15 27 -14 27 4 0 27 -52 42 -162 47 -88 4 -112 8 -129 24 -16 14 -21 15 -17 4z"/>
 <path d="M1357 803 c-12 -13 -44 -18 -135 -23 -119 -6 -152 -16 -152 -46 0 -16 12 -18 26 -4 6 6 56 14 112 20 96 9 152 26 167 51 12 18 0 19 -18 2z"/>
 </g>
<g id="layer114" fill="#4e4e4e" stroke="none">
 <path d="M95 1978 c24 -81 96 -198 121 -198 7 0 14 -6 17 -14 9 -24 94 -57 179 -71 111 -18 123 -6 17 15 -46 10 -103 25 -126 35 -58 23 -134 108 -169 189 -27 63 -53 91 -39 44z"/>
 <path d="M1869 1963 c-19 -59 -56 -129 -89 -166 -40 -46 -108 -74 -219 -88 -62 -9 -87 -16 -76 -21 9 -6 52 -3 107 7 177 30 244 93 302 283 4 12 3 22 -3 22 -5 0 -15 -17 -22 -37z"/>
 <path d="M950 1979 c-12 -9 -12 -10 4 -5 11 4 26 0 37 -10 17 -16 10 -21 -132 -91 -116 -58 -164 -88 -212 -133 -52 -49 -67 -57 -90 -53 -16 3 -27 1 -27 -6 0 -7 19 -11 52 -10 32 2 53 -2 56 -9 2 -7 10 -12 17 -12 7 0 15 -5 17 -11 2 -7 10 -10 17 -8 8 3 -6 17 -33 36 l-47 30 41 33 c73 58 112 82 243 147 l127 63 92 -62 c93 -62 137 -94 215 -157 36 -29 41 -37 32 -54 -9 -15 -8 -18 1 -12 7 5 29 9 48 11 20 2 40 9 46 15 8 9 1 10 -27 5 -36 -7 -41 -4 -99 49 -44 41 -350 256 -362 255 0 0 -8 -5 -16 -11z"/>
 <path d="M1100 1966 c0 -2 14 -14 30 -26 17 -12 30 -19 30 -16 0 2 -13 14 -30 26 -16 12 -30 19 -30 16z"/>
 <path d="M1200 1893 c19 -15 76 -63 127 -105 51 -43 93 -76 93 -73 0 8 -157 139 -206 173 -37 25 -41 26 -14 5z"/>
 <path d="M695 1846 c-28 -18 -57 -42 -65 -51 -8 -10 5 -3 30 16 25 19 57 42 70 51 14 9 23 17 20 17 -3 1 -28 -14 -55 -33z"/>
 <path d="M1259 1604 c-12 -14 -11 -16 5 -13 11 2 21 10 24 17 5 17 -13 15 -29 -4z"/>
 <path d="M722 1601 c2 -7 7 -12 11 -12 12 1 9 15 -3 20 -7 2 -11 -2 -8 -8z"/>
 <path d="M870 1574 c-90 -24 -135 -51 -202 -122 -68 -73 -84 -107 -94 -211 -6 -53 -10 -61 -28 -61 -20 -1 -20 -1 -3 -14 16 -13 16 -18 -6 -107 -19 -74 -28 -93 -41 -91 -19 3 -22 -16 -2 -24 8 -3 11 -15 8 -32 -6 -35 -20 -52 -42 -52 -10 0 -23 -7 -30 -15 -7 -8 -17 -12 -24 -8 -6 4 -5 0 2 -9 10 -13 11 -22 3 -37 -6 -11 -9 -26 -6 -33 3 -8 -1 -41 -10 -73 -8 -33 -15 -78 -15 -102 0 -43 17 -93 32 -93 4 0 8 -14 8 -31 0 -35 13 -63 45 -99 12 -14 34 -46 48 -71 26 -46 64 -79 90 -79 7 0 25 -17 38 -37 28 -44 90 -81 145 -87 21 -2 58 -11 82 -20 59 -22 247 -18 284 6 13 9 41 16 62 16 48 0 124 46 145 89 10 19 26 33 41 36 33 7 79 52 98 97 8 19 23 41 34 49 24 16 48 70 48 106 0 14 4 25 8 25 15 0 32 49 32 88 0 21 -6 62 -14 92 -8 30 -16 78 -18 105 -2 28 -7 56 -11 62 -6 9 -3 11 7 7 13 -5 16 1 15 27 -2 52 -13 87 -23 70 -12 -20 -27 7 -19 36 3 13 1 23 -5 23 -5 0 -18 27 -28 60 -11 33 -22 60 -26 60 -12 0 -10 -28 2 -35 6 -4 8 -11 4 -16 -3 -5 4 -26 15 -45 12 -20 19 -39 16 -44 -8 -13 16 -71 29 -68 6 2 12 -2 13 -7 0 -6 -3 -9 -8 -8 -5 2 -9 -8 -9 -22 0 -21 -3 -23 -22 -16 -13 4 -28 19 -34 32 -18 37 -68 258 -61 266 4 3 15 -2 26 -11 11 -10 21 -13 25 -7 7 10 -31 41 -50 41 -6 0 -14 26 -18 61 -11 110 -24 138 -102 216 -41 42 -90 80 -115 91 -100 43 -236 53 -339 26z m80 -154 c7 -59 15 -70 50 -70 35 0 43 11 50 70 4 37 9 46 27 48 45 7 180 -85 206 -141 9 -19 24 -68 32 -108 8 -42 35 -114 60 -165 25 -50 45 -103 45 -118 0 -14 7 -43 16 -64 21 -48 26 -80 27 -179 1 -73 -2 -85 -26 -120 -15 -22 -27 -47 -27 -56 0 -9 -13 -23 -28 -31 -16 -8 -34 -22 -41 -30 -19 -23 -62 -20 -114 9 -25 14 -58 24 -74 23 -16 -1 -35 2 -42 6 -21 13 -162 15 -206 3 -22 -6 -48 -9 -58 -8 -10 1 -40 -11 -66 -28 -57 -37 -80 -39 -118 -7 -15 12 -38 28 -50 35 -13 6 -23 19 -23 28 0 9 -11 30 -24 47 -13 17 -26 41 -30 54 -12 36 -8 152 5 168 6 8 9 20 6 28 -3 8 1 29 9 45 8 17 17 47 20 68 3 21 25 79 50 128 28 57 50 119 59 168 14 77 37 128 72 159 41 37 139 89 163 86 22 -3 26 -9 30 -48z"/>
 <path d="M880 1310 c-12 -8 -10 -9 7 -7 12 2 26 6 29 10 11 11 -19 8 -36 -3z"/>
 <path d="M983 1313 c9 -2 25 -2 35 0 9 3 1 5 -18 5 -19 0 -27 -2 -17 -5z"/>
 <path d="M1050 1306 c0 -2 18 -6 39 -8 22 -2 37 0 35 4 -5 8 -74 11 -74 4z"/>
 <path d="M966 1164 c-19 -19 -20 -32 -1 -64 8 -14 14 -37 15 -52 0 -15 5 -30 11 -34 8 -5 10 6 5 37 -3 24 -6 52 -7 61 0 10 -5 20 -10 24 -6 4 -4 13 7 25 21 23 2 26 -20 3z"/>
 <path d="M763 920 c-3 -11 -12 -20 -19 -20 -18 0 -18 -20 2 -48 14 -21 14 -22 -5 -22 -33 0 -71 19 -71 34 0 10 -6 13 -15 10 -24 -10 -17 -24 20 -40 44 -18 126 -18 169 0 51 21 52 36 1 17 -24 -8 -47 -12 -51 -8 -10 10 16 38 29 30 6 -4 8 3 3 20 -4 16 -2 27 6 30 7 2 5 3 -4 2 -10 -2 -21 1 -24 6 -10 16 -36 9 -41 -11z"/>
 <path d="M1197 934 c-3 -3 -3 -12 0 -20 3 -8 -1 -14 -11 -14 -19 0 -21 -31 -4 -48 20 -20 -13 -14 -52 9 l-35 21 19 -20 c44 -50 186 -57 229 -12 12 12 16 20 10 16 -8 -4 -13 -2 -14 6 0 7 -4 4 -9 -8 -8 -19 -45 -34 -86 -34 -21 0 -17 27 7 44 l21 15 -25 25 c-26 26 -39 31 -50 20z"/>
 <path d="M622 810 c8 -27 71 -49 171 -59 54 -5 105 -15 112 -21 20 -16 28 5 9 24 -19 20 1 16 -137 25 -93 7 -122 12 -139 27 -15 14 -20 15 -16 4z"/>
 <path d="M1357 803 c-12 -12 -44 -18 -129 -23 -109 -6 -158 -19 -158 -42 0 -6 9 -8 23 -3 12 3 62 10 111 16 100 10 148 23 167 45 17 21 6 27 -14 7z"/>
 <path d="M496 1134 c-11 -28 -6 -39 9 -20 8 11 15 23 15 28 0 14 -18 9 -24 -8z"/>
 <path d="M468 1050 c-9 -22 -12 -42 -8 -45 12 -7 43 66 33 76 -5 4 -16 -10 -25 -31z"/>
 <path d="M1494 994 c0 -21 4 -33 10 -31 6 2 10 15 8 28 -4 38 -17 41 -18 3z"/>
 <path d="M448 961 c-6 -10 -17 -17 -23 -14 -13 5 -25 -27 -25 -69 0 -18 5 -26 16 -24 19 3 38 32 30 45 -3 5 1 25 9 45 16 39 13 48 -7 17z"/>
 </g>
<g id="layer115" fill="#38505a" stroke="none">
 <path d="M95 1978 c24 -81 96 -198 121 -198 7 0 14 -6 17 -14 9 -24 94 -57 179 -71 111 -18 123 -6 17 15 -46 10 -103 25 -126 35 -58 23 -134 108 -169 189 -27 63 -53 91 -39 44z"/>
 <path d="M1869 1963 c-19 -59 -56 -129 -89 -166 -40 -46 -108 -74 -219 -88 -62 -9 -87 -16 -76 -21 9 -6 52 -3 107 7 177 30 244 93 302 283 4 12 3 22 -3 22 -5 0 -15 -17 -22 -37z"/>
 <path d="M950 1979 c-12 -9 -12 -10 4 -5 11 4 26 0 37 -10 17 -16 10 -21 -132 -91 -116 -58 -164 -88 -212 -133 -52 -49 -67 -57 -90 -53 -16 3 -27 1 -27 -6 0 -7 19 -11 52 -10 32 2 53 -2 56 -9 2 -7 10 -12 17 -12 7 0 15 -5 17 -11 2 -7 10 -10 17 -8 8 3 -5 17 -33 35 l-46 30 22 21 c50 45 139 100 261 160 l127 63 93 -62 c84 -56 196 -139 239 -176 14 -11 15 -19 7 -34 -9 -16 -8 -19 1 -13 7 5 29 9 48 11 20 2 40 9 46 15 8 9 1 10 -27 5 -36 -7 -41 -4 -99 49 -44 41 -350 256 -362 255 0 0 -8 -5 -16 -11z"/>
 <path d="M1100 1966 c0 -2 14 -14 30 -26 17 -12 30 -19 30 -16 0 2 -13 14 -30 26 -16 12 -30 19 -30 16z"/>
 <path d="M1200 1893 c19 -15 76 -63 127 -105 51 -43 93 -76 93 -73 0 8 -157 139 -206 173 -37 25 -41 26 -14 5z"/>
 <path d="M695 1846 c-28 -18 -57 -42 -65 -51 -8 -10 5 -3 30 16 25 19 57 42 70 51 14 9 23 17 20 17 -3 1 -28 -14 -55 -33z"/>
 <path d="M1259 1604 c-12 -14 -11 -16 5 -13 11 2 21 10 24 17 5 17 -13 15 -29 -4z"/>
 <path d="M722 1601 c2 -7 7 -12 11 -12 12 1 9 15 -3 20 -7 2 -11 -2 -8 -8z"/>
 <path d="M870 1574 c-90 -24 -135 -51 -202 -122 -68 -73 -84 -107 -94 -211 -6 -53 -10 -61 -28 -61 -20 -1 -20 -1 -3 -14 16 -13 16 -18 -6 -107 -19 -74 -28 -93 -41 -91 -19 3 -22 -16 -2 -24 8 -3 11 -15 8 -32 -6 -35 -20 -52 -42 -52 -10 0 -23 -7 -30 -15 -7 -8 -17 -12 -24 -8 -6 4 -5 0 2 -9 10 -13 11 -22 3 -37 -6 -11 -9 -26 -6 -33 3 -8 -1 -41 -10 -73 -8 -33 -15 -78 -15 -102 0 -43 17 -93 32 -93 4 0 8 -14 8 -31 0 -35 13 -63 45 -99 12 -14 34 -46 48 -71 26 -46 64 -79 90 -79 7 0 25 -17 38 -37 28 -44 90 -81 145 -87 21 -2 58 -11 82 -20 59 -22 247 -18 284 6 13 9 41 16 62 16 48 0 124 46 145 89 10 19 26 33 41 36 33 7 79 52 98 97 8 19 23 41 34 49 24 16 48 70 48 106 0 14 4 25 8 25 15 0 32 49 32 88 0 21 -6 62 -14 92 -8 30 -16 78 -18 105 -2 28 -7 56 -11 62 -6 9 -3 11 7 7 13 -5 16 1 15 27 -2 52 -13 87 -23 70 -12 -20 -27 7 -19 36 3 13 1 23 -5 23 -5 0 -18 27 -28 60 -11 33 -22 60 -26 60 -12 0 -10 -28 2 -35 6 -4 8 -11 4 -16 -3 -5 4 -26 15 -45 12 -20 19 -39 16 -44 -8 -13 16 -71 29 -68 6 2 12 -2 13 -7 0 -6 -3 -9 -8 -8 -5 2 -9 -8 -9 -22 0 -21 -3 -23 -22 -16 -13 4 -28 19 -34 32 -18 37 -68 258 -61 266 4 3 15 -2 26 -11 11 -10 21 -13 25 -7 7 10 -31 41 -50 41 -6 0 -14 26 -18 61 -11 110 -24 138 -102 216 -41 42 -90 80 -115 91 -100 43 -236 53 -339 26z m80 -154 c7 -59 15 -70 50 -70 35 0 43 11 50 70 4 37 9 46 27 48 45 7 180 -85 206 -141 9 -19 24 -68 32 -108 8 -42 35 -114 60 -165 25 -50 45 -103 45 -118 0 -14 7 -43 16 -64 21 -48 26 -80 27 -179 1 -73 -2 -85 -26 -120 -15 -22 -27 -47 -27 -56 0 -9 -13 -23 -28 -31 -16 -8 -34 -22 -41 -30 -19 -23 -62 -20 -114 9 -25 14 -58 24 -74 23 -16 -1 -35 2 -42 6 -21 13 -162 15 -206 3 -22 -6 -48 -9 -58 -8 -10 1 -40 -11 -66 -28 -57 -37 -80 -39 -118 -7 -15 12 -38 28 -50 35 -13 6 -23 19 -23 28 0 9 -11 30 -24 47 -13 17 -26 41 -30 54 -12 36 -8 152 5 168 6 8 9 20 6 28 -3 8 1 29 9 45 8 17 17 47 20 68 3 21 25 79 50 128 28 57 50 119 59 168 14 77 37 128 72 159 41 37 139 89 163 86 22 -3 26 -9 30 -48z"/>
 <path d="M880 1310 c-12 -8 -10 -9 7 -7 12 2 26 6 29 10 11 11 -19 8 -36 -3z"/>
 <path d="M983 1313 c9 -2 25 -2 35 0 9 3 1 5 -18 5 -19 0 -27 -2 -17 -5z"/>
 <path d="M1050 1306 c0 -2 18 -6 39 -8 22 -2 37 0 35 4 -5 8 -74 11 -74 4z"/>
 <path d="M966 1164 c-19 -19 -20 -32 -1 -64 8 -14 14 -37 15 -52 0 -15 5 -30 11 -34 8 -5 10 6 5 37 -3 24 -6 52 -7 61 0 10 -5 20 -10 24 -6 4 -4 13 7 25 21 23 2 26 -20 3z"/>
 <path d="M765 931 c-3 -6 4 -9 15 -8 11 1 20 5 20 9 0 11 -28 10 -35 -1z"/>
 <path d="M1203 925 c4 -8 1 -17 -4 -21 -6 -3 -9 -15 -6 -25 3 -11 1 -17 -4 -13 -5 3 -9 13 -10 22 0 10 -3 12 -5 5 -3 -7 0 -22 6 -34 12 -20 11 -21 -16 -15 -16 4 -38 15 -49 24 -20 17 -20 17 -1 -5 42 -50 186 -59 229 -13 12 12 17 20 10 16 -6 -3 -14 0 -16 6 -3 8 -6 6 -6 -5 -2 -29 -91 -52 -106 -26 -4 5 0 18 7 27 26 30 28 39 11 53 -14 12 -16 12 -9 0 6 -9 5 -12 -5 -9 -8 3 -13 11 -11 17 1 6 -3 11 -9 11 -6 0 -9 -7 -6 -15z"/>
 <path d="M754 895 c-3 -8 -3 -20 1 -27 4 -7 -1 -4 -9 6 -9 11 -16 14 -16 8 0 -7 9 -21 20 -32 l20 -20 -24 0 c-37 0 -76 18 -76 34 0 10 -6 13 -15 10 -45 -17 27 -54 105 -54 52 0 112 19 125 40 4 7 -5 5 -23 -4 -38 -20 -72 -21 -72 -2 0 8 5 16 12 18 6 2 9 12 5 21 -8 21 -46 22 -53 2z"/>
 <path d="M622 810 c8 -27 71 -49 171 -59 54 -5 105 -15 112 -21 20 -16 28 5 9 24 -19 20 1 16 -137 25 -93 7 -122 12 -139 27 -15 14 -20 15 -16 4z"/>
 <path d="M1357 803 c-12 -12 -44 -18 -129 -23 -109 -6 -158 -19 -158 -42 0 -6 9 -8 23 -3 12 3 62 10 111 16 100 10 148 23 167 45 17 21 6 27 -14 7z"/>
 <path d="M496 1134 c-11 -28 -6 -39 9 -20 8 11 15 23 15 28 0 14 -18 9 -24 -8z"/>
 <path d="M468 1050 c-9 -22 -12 -42 -8 -45 12 -7 43 66 33 76 -5 4 -16 -10 -25 -31z"/>
 <path d="M1494 994 c0 -21 4 -33 10 -31 6 2 10 15 8 28 -4 38 -17 41 -18 3z"/>
 <path d="M448 961 c-6 -10 -17 -17 -23 -14 -13 5 -25 -27 -25 -69 0 -18 5 -26 16 -24 19 3 38 32 30 45 -3 5 1 25 9 45 16 39 13 48 -7 17z"/>
 </g>
<g id="layer116" fill="#5d423a" stroke="none">
 <path d="M95 1978 c24 -81 96 -198 121 -198 7 0 14 -6 17 -14 9 -24 94 -57 179 -71 111 -18 123 -6 17 15 -46 10 -103 25 -126 35 -58 23 -134 108 -169 189 -27 63 -53 91 -39 44z"/>
 <path d="M1869 1963 c-19 -59 -56 -129 -89 -166 -40 -46 -108 -74 -219 -88 -62 -9 -87 -16 -76 -21 9 -6 52 -3 107 7 177 30 244 93 302 283 4 12 3 22 -3 22 -5 0 -15 -17 -22 -37z"/>
 <path d="M950 1979 c-12 -9 -12 -10 4 -5 11 4 26 0 35 -8 9 -8 63 -46 121 -84 58 -38 116 -78 128 -88 13 -11 48 -38 78 -62 48 -38 53 -46 43 -64 -9 -16 -8 -19 1 -13 7 5 29 9 48 11 20 2 40 9 46 15 8 9 1 10 -27 5 -36 -7 -41 -4 -99 49 -44 41 -350 256 -362 255 0 0 -8 -5 -16 -11z"/>
 <path d="M1100 1966 c0 -2 14 -14 30 -26 17 -12 30 -19 30 -16 0 2 -13 14 -30 26 -16 12 -30 19 -30 16z"/>
 <path d="M825 1857 c-80 -41 -139 -81 -180 -119 -50 -47 -65 -55 -88 -51 -16 3 -27 1 -27 -6 0 -7 19 -11 52 -10 32 2 53 -2 56 -9 2 -7 10 -12 17 -12 7 0 15 -5 17 -11 2 -7 10 -10 17 -8 8 3 -6 17 -33 36 l-48 30 49 42 c26 22 53 41 60 41 6 0 13 4 15 10 2 5 55 36 118 69 63 34 111 61 105 60 -5 0 -64 -28 -130 -62z"/>
 <path d="M1200 1893 c19 -15 76 -63 127 -105 51 -43 93 -76 93 -73 0 8 -157 139 -206 173 -37 25 -41 26 -14 5z"/>
 <path d="M695 1846 c-28 -18 -57 -42 -65 -51 -8 -10 5 -3 30 16 25 19 57 42 70 51 14 9 23 17 20 17 -3 1 -28 -14 -55 -33z"/>
 <path d="M1259 1604 c-12 -14 -11 -16 5 -13 11 2 21 10 24 17 5 17 -13 15 -29 -4z"/>
 <path d="M722 1601 c2 -7 7 -12 11 -12 12 1 9 15 -3 20 -7 2 -11 -2 -8 -8z"/>
 <path d="M870 1574 c-90 -24 -135 -51 -202 -122 -68 -73 -84 -107 -94 -211 -6 -53 -10 -61 -28 -61 -20 -1 -20 -1 -3 -14 16 -13 16 -18 -6 -107 -19 -74 -28 -93 -41 -91 -19 3 -22 -16 -2 -24 8 -3 11 -15 8 -32 -6 -35 -20 -52 -42 -52 -10 0 -23 -7 -30 -15 -7 -8 -17 -12 -24 -8 -6 4 -5 0 2 -9 10 -13 11 -22 3 -37 -6 -11 -9 -26 -6 -33 3 -8 -1 -41 -10 -73 -8 -33 -15 -78 -15 -102 0 -43 17 -93 32 -93 4 0 8 -14 8 -31 0 -35 13 -63 45 -99 12 -14 34 -46 48 -71 26 -46 64 -79 90 -79 7 0 25 -17 38 -37 28 -44 90 -81 145 -87 21 -2 58 -11 82 -20 59 -22 247 -18 284 6 13 9 41 16 62 16 48 0 124 46 145 89 10 19 26 33 41 36 33 7 79 52 98 97 8 19 23 41 34 49 24 16 48 70 48 106 0 14 4 25 8 25 15 0 32 49 32 88 0 21 -6 62 -14 92 -8 30 -16 78 -18 105 -2 28 -7 56 -11 62 -6 9 -3 11 7 7 13 -5 16 1 15 27 -2 52 -13 87 -23 70 -12 -20 -27 7 -19 36 3 13 1 23 -5 23 -5 0 -18 27 -28 60 -11 33 -22 60 -26 60 -12 0 -10 -28 2 -35 6 -4 8 -11 4 -16 -3 -5 4 -26 15 -45 12 -20 19 -39 16 -44 -8 -13 16 -71 29 -68 6 2 12 -2 13 -7 0 -6 -3 -9 -8 -8 -5 2 -9 -8 -9 -22 0 -21 -3 -23 -22 -16 -13 4 -28 19 -34 32 -18 37 -68 258 -61 266 4 3 15 -2 26 -11 11 -10 21 -13 25 -7 7 10 -31 41 -50 41 -6 0 -14 26 -18 61 -11 110 -24 138 -102 216 -41 42 -90 80 -115 91 -100 43 -236 53 -339 26z m80 -154 c7 -59 15 -70 50 -70 35 0 43 11 50 70 4 37 9 46 27 48 45 7 180 -85 206 -141 9 -19 24 -68 32 -108 8 -42 35 -114 60 -165 25 -50 45 -103 45 -118 0 -14 7 -43 16 -64 21 -48 26 -80 27 -179 1 -73 -2 -85 -26 -120 -15 -22 -27 -47 -27 -56 0 -9 -13 -23 -28 -31 -16 -8 -34 -22 -41 -30 -19 -23 -62 -20 -114 9 -25 14 -58 24 -74 23 -16 -1 -35 2 -42 6 -21 13 -162 15 -206 3 -22 -6 -48 -9 -58 -8 -10 1 -40 -11 -66 -28 -57 -37 -80 -39 -118 -7 -15 12 -38 28 -50 35 -13 6 -23 19 -23 28 0 9 -11 30 -24 47 -13 17 -26 41 -30 54 -12 36 -8 152 5 168 6 8 9 20 6 28 -3 8 1 29 9 45 8 17 17 47 20 68 3 21 25 79 50 128 28 57 50 119 59 168 14 77 37 128 72 159 41 37 139 89 163 86 22 -3 26 -9 30 -48z"/>
 <path d="M880 1310 c-12 -8 -10 -9 7 -7 12 2 26 6 29 10 11 11 -19 8 -36 -3z"/>
 <path d="M983 1313 c9 -2 25 -2 35 0 9 3 1 5 -18 5 -19 0 -27 -2 -17 -5z"/>
 <path d="M1050 1306 c0 -2 18 -6 39 -8 22 -2 37 0 35 4 -5 8 -74 11 -74 4z"/>
 <path d="M966 1164 c-19 -19 -20 -32 -1 -64 8 -14 14 -37 15 -52 0 -15 5 -30 11 -34 8 -5 10 6 5 37 -3 24 -6 52 -7 61 0 10 -5 20 -10 24 -6 4 -4 13 7 25 21 23 2 26 -20 3z"/>
 <path d="M765 931 c-3 -6 4 -9 15 -8 11 1 20 5 20 9 0 11 -28 10 -35 -1z"/>
 <path d="M1203 925 c4 -8 1 -17 -4 -21 -6 -3 -9 -15 -6 -25 3 -11 1 -17 -4 -13 -5 3 -9 13 -10 22 0 10 -3 12 -5 5 -3 -7 0 -22 6 -34 12 -20 11 -21 -16 -15 -16 4 -38 15 -49 24 -20 17 -20 17 -1 -5 42 -50 186 -59 229 -13 12 12 17 20 10 16 -6 -3 -14 0 -16 6 -3 8 -6 6 -6 -5 -2 -29 -91 -52 -106 -26 -4 5 0 18 7 27 26 30 28 39 11 53 -14 12 -16 12 -9 0 6 -9 5 -12 -5 -9 -8 3 -13 11 -11 17 1 6 -3 11 -9 11 -6 0 -9 -7 -6 -15z"/>
 <path d="M754 895 c-3 -8 -3 -20 1 -27 4 -7 -1 -4 -9 6 -9 11 -16 14 -16 8 0 -7 9 -21 20 -32 l20 -20 -24 0 c-37 0 -76 18 -76 34 0 10 -6 13 -15 10 -45 -17 27 -54 105 -54 52 0 112 19 125 40 4 7 -5 5 -23 -4 -38 -20 -72 -21 -72 -2 0 8 5 16 12 18 6 2 9 12 5 21 -8 21 -46 22 -53 2z"/>
 <path d="M622 810 c8 -27 71 -49 171 -59 54 -5 105 -15 112 -21 20 -16 28 5 9 24 -19 20 1 16 -137 25 -93 7 -122 12 -139 27 -15 14 -20 15 -16 4z"/>
 <path d="M1357 803 c-12 -12 -44 -18 -129 -23 -109 -6 -158 -19 -158 -42 0 -6 9 -8 23 -3 12 3 62 10 111 16 100 10 148 23 167 45 17 21 6 27 -14 7z"/>
 <path d="M496 1134 c-11 -28 -6 -39 9 -20 8 11 15 23 15 28 0 14 -18 9 -24 -8z"/>
 <path d="M468 1050 c-9 -22 -12 -42 -8 -45 12 -7 43 66 33 76 -5 4 -16 -10 -25 -31z"/>
 <path d="M1494 994 c0 -21 4 -33 10 -31 6 2 10 15 8 28 -4 38 -17 41 -18 3z"/>
 <path d="M448 961 c-6 -10 -17 -17 -23 -14 -13 5 -25 -27 -25 -69 0 -18 5 -26 16 -24 19 3 38 32 30 45 -3 5 1 25 9 45 16 39 13 48 -7 17z"/>
 </g>
<g id="layer117" fill="#713c24" stroke="none">
 <path d="M95 1978 c24 -81 96 -198 121 -198 7 0 14 -6 17 -14 9 -24 94 -57 179 -71 111 -18 123 -6 17 15 -46 10 -103 25 -126 35 -58 23 -134 108 -169 189 -27 63 -53 91 -39 44z"/>
 <path d="M1869 1963 c-19 -59 -56 -129 -89 -166 -40 -46 -108 -74 -219 -88 -62 -9 -87 -16 -76 -21 9 -6 52 -3 107 7 177 30 244 93 302 283 4 12 3 22 -3 22 -5 0 -15 -17 -22 -37z"/>
 <path d="M950 1979 c-12 -9 -12 -10 4 -5 11 4 26 0 35 -8 9 -8 63 -45 121 -83 58 -39 140 -98 183 -132 70 -56 76 -64 66 -82 -9 -17 -8 -20 1 -14 7 5 29 9 48 11 20 2 40 9 46 15 8 9 1 10 -27 5 -36 -7 -41 -4 -99 49 -44 41 -350 256 -362 255 0 0 -8 -5 -16 -11z"/>
 <path d="M1100 1966 c0 -2 14 -14 30 -26 17 -12 30 -19 30 -16 0 2 -13 14 -30 26 -16 12 -30 19 -30 16z"/>
 <path d="M825 1857 c-80 -41 -139 -81 -180 -119 -50 -47 -65 -55 -88 -51 -16 3 -27 1 -27 -6 0 -7 19 -11 52 -10 32 2 53 -2 56 -9 2 -7 10 -12 17 -12 7 0 15 -5 17 -11 2 -7 10 -10 18 -7 8 2 -5 16 -33 33 -44 28 -45 30 -29 48 33 37 115 90 225 148 62 32 108 59 102 58 -5 0 -64 -28 -130 -62z"/>
 <path d="M1200 1893 c19 -15 76 -63 127 -105 51 -43 93 -76 93 -73 0 8 -157 139 -206 173 -37 25 -41 26 -14 5z"/>
 <path d="M695 1846 c-28 -18 -57 -42 -65 -51 -8 -10 5 -3 30 16 25 19 57 42 70 51 14 9 23 17 20 17 -3 1 -28 -14 -55 -33z"/>
 <path d="M1259 1604 c-12 -14 -11 -16 5 -13 11 2 21 10 24 17 5 17 -13 15 -29 -4z"/>
 <path d="M722 1601 c2 -7 7 -12 11 -12 12 1 9 15 -3 20 -7 2 -11 -2 -8 -8z"/>
 <path d="M870 1575 c-91 -26 -136 -53 -202 -123 -68 -73 -84 -107 -94 -211 -6 -53 -10 -61 -28 -61 -20 -1 -20 -1 -3 -14 16 -13 16 -18 -6 -107 -19 -74 -28 -93 -41 -91 -19 3 -22 -16 -2 -24 8 -3 11 -15 8 -32 -6 -35 -20 -52 -42 -52 -10 0 -23 -7 -30 -15 -7 -8 -17 -12 -24 -8 -6 4 -5 0 2 -9 10 -13 11 -22 3 -37 -6 -11 -9 -26 -6 -33 3 -8 -1 -41 -10 -73 -8 -33 -15 -78 -15 -102 0 -43 17 -93 32 -93 4 0 8 -14 8 -31 0 -35 13 -63 45 -99 12 -14 34 -46 48 -71 26 -46 64 -79 90 -79 7 0 25 -17 38 -37 28 -44 90 -81 145 -87 21 -2 58 -11 82 -20 59 -22 247 -18 284 6 13 9 41 16 62 16 48 0 124 46 145 89 10 19 26 33 41 36 33 7 79 52 98 97 8 19 23 41 34 49 24 16 48 70 48 106 0 14 4 25 8 25 15 0 32 49 32 88 0 21 -6 62 -14 92 -8 30 -16 78 -18 105 -2 28 -7 56 -11 62 -6 9 -3 11 7 7 13 -5 16 1 15 27 -2 52 -13 87 -23 70 -12 -20 -27 7 -19 36 3 13 1 23 -5 23 -5 0 -18 27 -28 60 -11 33 -22 60 -26 60 -12 0 -10 -28 2 -35 6 -4 8 -11 4 -16 -3 -5 4 -26 15 -45 12 -20 19 -39 16 -44 -8 -13 16 -71 29 -68 6 2 12 -2 13 -7 0 -6 -3 -9 -8 -8 -5 2 -9 -8 -9 -21 0 -23 -2 -24 -29 -15 -22 8 -31 19 -36 42 -3 18 -18 80 -32 139 -15 59 -24 111 -20 114 4 4 15 -1 26 -10 11 -10 21 -13 25 -7 7 10 -31 41 -50 41 -6 0 -14 26 -18 61 -11 112 -24 138 -106 220 -63 63 -87 80 -141 98 -84 30 -232 37 -309 16z m82 -157 c8 -61 13 -68 49 -68 33 0 49 27 49 81 0 55 42 52 137 -10 79 -51 108 -95 127 -196 10 -51 32 -113 61 -170 25 -49 45 -102 45 -116 0 -15 8 -44 17 -65 9 -22 15 -47 14 -57 -1 -10 3 -24 9 -32 7 -8 10 -44 9 -91 -3 -62 -8 -85 -27 -112 -12 -19 -26 -47 -29 -63 -3 -16 -10 -29 -16 -29 -5 0 -25 -11 -43 -25 -41 -32 -71 -32 -131 1 -31 16 -57 23 -74 20 -14 -3 -31 0 -37 6 -15 15 -159 19 -207 5 -22 -6 -48 -9 -58 -8 -10 1 -40 -11 -66 -28 -60 -39 -79 -39 -126 -1 -21 17 -44 30 -51 30 -8 0 -14 8 -14 18 0 10 -14 39 -31 65 -27 41 -30 54 -31 122 0 45 5 82 12 90 7 8 10 21 7 30 -4 8 3 34 13 57 11 24 20 56 20 72 0 16 18 61 40 101 27 49 47 103 60 165 19 90 42 140 77 172 41 37 139 89 163 86 21 -3 26 -9 32 -50z"/>
 <path d="M880 1310 c-12 -8 -10 -9 7 -7 12 2 26 6 29 10 11 11 -19 8 -36 -3z"/>
 <path d="M983 1313 c9 -2 25 -2 35 0 9 3 1 5 -18 5 -19 0 -27 -2 -17 -5z"/>
 <path d="M1050 1306 c0 -2 18 -6 39 -8 22 -2 37 0 35 4 -5 8 -74 11 -74 4z"/>
 <path d="M966 1164 c-19 -19 -20 -32 -1 -64 8 -14 14 -37 15 -52 0 -15 5 -30 11 -34 8 -5 10 6 5 37 -3 24 -6 52 -7 61 0 10 -5 20 -10 24 -6 4 -4 13 7 25 21 23 2 26 -20 3z"/>
 <path d="M1206 922 c2 -3 -1 -11 -7 -18 -6 -8 -9 -21 -5 -29 3 -9 2 -13 -4 -10 -6 3 -10 14 -11 23 0 10 -3 12 -5 5 -3 -7 0 -21 6 -32 13 -26 -2 -28 -43 -6 -15 8 -25 9 -21 4 12 -20 73 -39 121 -38 27 1 37 4 23 6 -37 7 -46 20 -28 40 26 31 28 40 11 54 -12 10 -14 10 -9 2 8 -15 -5 -17 -20 -4 -6 5 -9 6 -8 3z"/>
 <path d="M754 895 c-3 -8 -3 -20 1 -27 4 -7 -1 -4 -9 6 -9 11 -16 14 -16 8 0 -7 9 -21 20 -32 l20 -20 -24 0 c-38 0 -74 17 -78 36 -3 16 -4 16 -16 1 -11 -13 -10 -17 8 -27 40 -21 126 -24 175 -6 25 10 48 22 51 28 3 5 -8 3 -24 -6 -38 -20 -72 -21 -72 -2 0 8 5 16 12 18 6 2 9 12 5 21 -8 21 -46 22 -53 2z"/>
 <path d="M1330 867 c0 -10 -10 -22 -22 -27 -23 -9 -23 -9 -2 -9 28 -1 46 20 34 39 -8 13 -10 12 -10 -3z"/>
 <path d="M647 786 c14 -10 65 -22 130 -31 60 -8 118 -17 131 -21 18 -5 21 -3 16 9 -8 23 -34 29 -154 37 -58 3 -114 10 -125 15 -17 6 -17 5 2 -9z"/>
 <path d="M1340 791 c-8 -5 -62 -11 -120 -14 -114 -6 -135 -11 -144 -34 -5 -12 -2 -14 16 -8 13 4 68 12 123 19 55 7 114 20 130 29 17 9 26 16 20 16 -5 0 -17 -3 -25 -8z"/>
 <path d="M496 1134 c-11 -28 -6 -39 9 -20 8 11 15 23 15 28 0 14 -18 9 -24 -8z"/>
 <path d="M468 1050 c-9 -22 -12 -42 -8 -45 12 -7 43 66 33 76 -5 4 -16 -10 -25 -31z"/>
 <path d="M1494 994 c0 -21 4 -33 10 -31 6 2 10 15 8 28 -4 38 -17 41 -18 3z"/>
 <path d="M448 961 c-6 -10 -17 -17 -23 -14 -13 5 -25 -27 -25 -69 0 -18 5 -26 16 -24 19 3 38 32 30 45 -3 5 1 25 9 45 16 39 13 48 -7 17z"/>
 </g>
<g id="layer118" fill="#035276" stroke="none">
 <path d="M95 1978 c24 -81 96 -198 121 -198 7 0 14 -6 17 -14 9 -24 94 -57 179 -71 111 -18 123 -6 17 15 -46 10 -103 25 -126 35 -58 23 -134 108 -169 189 -27 63 -53 91 -39 44z"/>
 <path d="M1869 1963 c-19 -59 -56 -129 -89 -166 -40 -46 -108 -74 -219 -88 -62 -9 -87 -16 -76 -21 9 -6 52 -3 107 7 177 30 244 93 302 283 4 12 3 22 -3 22 -5 0 -15 -17 -22 -37z"/>
 <path d="M950 1979 c-12 -9 -12 -10 4 -5 11 4 26 0 35 -8 9 -8 63 -45 121 -83 150 -99 261 -190 254 -207 -5 -12 3 -14 37 -11 23 3 47 10 53 16 8 8 1 10 -27 5 -36 -7 -41 -4 -99 49 -44 41 -350 256 -362 255 0 0 -8 -5 -16 -11z"/>
 <path d="M1100 1966 c0 -2 14 -14 30 -26 17 -12 30 -19 30 -16 0 2 -13 14 -30 26 -16 12 -30 19 -30 16z"/>
 <path d="M825 1857 c-80 -41 -139 -81 -180 -119 -50 -47 -65 -55 -88 -51 -16 3 -27 1 -27 -6 0 -6 15 -11 34 -11 25 0 38 6 50 25 26 39 115 101 237 165 63 33 110 60 104 59 -5 0 -64 -28 -130 -62z"/>
 <path d="M1200 1893 c19 -15 76 -63 127 -105 51 -43 93 -76 93 -73 0 8 -157 139 -206 173 -37 25 -41 26 -14 5z"/>
 <path d="M695 1846 c-28 -18 -57 -42 -65 -51 -8 -10 5 -3 30 16 25 19 57 42 70 51 14 9 23 17 20 17 -3 1 -28 -14 -55 -33z"/>
 <path d="M915 1584 c-16 -3 -59 -14 -95 -26 -56 -18 -76 -32 -141 -97 -84 -85 -92 -102 -109 -246 -11 -91 -45 -231 -61 -251 -4 -5 -6 -20 -2 -32 7 -29 -22 -72 -48 -72 -16 0 -19 4 -14 21 5 15 4 19 -5 14 -6 -4 -10 -16 -7 -26 5 -20 -15 -43 -29 -31 -4 4 -3 -1 5 -10 9 -12 10 -22 2 -37 -6 -11 -9 -26 -6 -33 3 -8 -1 -41 -10 -73 -8 -33 -15 -78 -15 -102 0 -43 17 -93 32 -93 4 0 8 -14 8 -31 0 -35 13 -63 45 -99 12 -14 34 -46 48 -71 26 -46 64 -79 90 -79 7 0 25 -17 38 -37 28 -44 90 -81 145 -87 21 -2 58 -11 82 -20 59 -22 247 -18 284 6 13 9 41 16 62 16 48 0 124 46 145 89 10 19 26 33 41 36 33 7 79 52 98 97 8 19 23 41 34 49 24 16 48 70 48 106 0 14 4 25 8 25 15 0 32 49 32 88 0 21 -6 62 -14 92 -8 30 -16 80 -18 110 -4 54 -5 55 -46 75 -35 16 -43 25 -48 55 -3 19 -17 77 -30 128 -14 52 -30 133 -35 180 -16 140 -24 158 -109 243 -63 63 -87 80 -141 98 -63 22 -198 35 -264 25z m37 -166 c8 -61 13 -68 49 -68 33 0 49 27 49 81 0 55 42 52 137 -10 79 -51 108 -95 127 -196 10 -51 32 -113 61 -170 25 -49 45 -102 45 -116 0 -15 8 -44 17 -65 9 -22 15 -47 14 -57 -1 -10 3 -24 9 -32 7 -8 10 -44 9 -91 -3 -62 -8 -85 -27 -112 -12 -19 -26 -47 -29 -63 -3 -16 -10 -29 -16 -29 -5 0 -25 -11 -43 -25 -41 -32 -71 -32 -131 1 -31 16 -57 23 -74 20 -14 -3 -31 0 -37 6 -15 15 -159 19 -207 5 -22 -6 -48 -9 -58 -8 -10 1 -40 -11 -66 -28 -60 -39 -79 -39 -126 -1 -21 17 -44 30 -51 30 -8 0 -14 8 -14 18 0 10 -14 39 -31 65 -27 41 -30 54 -31 122 0 45 5 82 12 90 7 8 10 21 7 30 -4 8 3 34 13 57 11 24 20 56 20 72 0 16 18 61 40 101 27 49 47 103 60 165 19 90 42 140 77 172 41 37 139 89 163 86 21 -3 26 -9 32 -50z"/>
 <path d="M1206 922 c2 -3 -1 -11 -7 -18 -6 -8 -9 -21 -5 -29 3 -9 2 -13 -4 -10 -6 3 -10 14 -11 23 0 10 -3 12 -5 5 -3 -7 0 -21 6 -32 13 -26 -2 -28 -43 -6 -15 8 -25 9 -21 4 12 -20 73 -39 121 -38 27 1 37 4 23 6 -37 7 -46 20 -28 40 26 31 28 40 11 54 -12 10 -14 10 -9 2 8 -15 -5 -17 -20 -4 -6 5 -9 6 -8 3z"/>
 <path d="M754 895 c-3 -8 -3 -20 1 -27 4 -7 -1 -4 -9 6 -9 11 -16 14 -16 8 0 -7 9 -21 20 -32 l20 -20 -24 0 c-38 0 -74 17 -78 36 -3 16 -4 16 -16 1 -11 -13 -10 -17 8 -27 40 -21 126 -24 175 -6 25 10 48 22 51 28 3 5 -8 3 -24 -6 -38 -20 -72 -21 -72 -2 0 8 5 16 12 18 6 2 9 12 5 21 -8 21 -46 22 -53 2z"/>
 <path d="M1330 867 c0 -10 -10 -22 -22 -27 -23 -9 -23 -9 -2 -9 28 -1 46 20 34 39 -8 13 -10 12 -10 -3z"/>
 <path d="M647 786 c14 -10 65 -22 130 -31 60 -8 118 -17 131 -21 18 -5 21 -3 16 9 -8 23 -34 29 -154 37 -58 3 -114 10 -125 15 -17 6 -17 5 2 -9z"/>
 <path d="M1340 791 c-8 -5 -62 -11 -120 -14 -114 -6 -135 -11 -144 -34 -5 -12 -2 -14 16 -8 13 4 68 12 123 19 55 7 114 20 130 29 17 9 26 16 20 16 -5 0 -17 -3 -25 -8z"/>
 </g>
<g id="layer119" fill="#3c4040" stroke="none">
 <path d="M915 1584 c-16 -3 -59 -14 -95 -26 -56 -18 -76 -32 -141 -97 -84 -85 -92 -102 -109 -246 -11 -91 -45 -231 -61 -251 -4 -5 -6 -20 -2 -32 7 -29 -22 -72 -48 -72 -16 0 -19 4 -14 21 5 15 4 19 -5 14 -6 -4 -10 -16 -7 -26 5 -20 -15 -43 -29 -31 -4 4 -3 -1 5 -10 9 -12 10 -22 2 -37 -6 -11 -9 -26 -6 -33 3 -8 -1 -41 -10 -73 -8 -33 -15 -78 -15 -102 0 -43 17 -93 32 -93 4 0 8 -14 8 -31 0 -35 13 -63 45 -99 12 -14 34 -46 48 -71 26 -46 64 -79 90 -79 7 0 25 -17 38 -37 28 -44 90 -81 145 -87 21 -2 58 -11 82 -20 59 -22 247 -18 284 6 13 9 41 16 62 16 48 0 124 46 145 89 10 19 26 33 41 36 33 7 79 52 98 97 8 19 23 41 34 49 24 16 48 70 48 106 0 14 4 25 8 25 15 0 32 49 32 88 0 21 -6 62 -14 92 -8 30 -16 80 -18 110 -4 54 -5 55 -46 75 -35 16 -43 25 -48 55 -3 19 -17 77 -30 128 -14 52 -30 133 -35 180 -16 140 -24 158 -109 243 -63 63 -87 80 -141 98 -63 22 -198 35 -264 25z m37 -166 c8 -61 13 -68 49 -68 33 0 49 27 49 81 0 55 42 52 137 -10 79 -51 108 -95 127 -196 10 -51 32 -113 61 -170 25 -49 45 -102 45 -116 0 -15 8 -44 17 -65 9 -22 15 -47 14 -57 -1 -10 3 -24 9 -32 7 -8 10 -44 9 -91 -3 -62 -8 -85 -27 -112 -12 -19 -26 -47 -29 -63 -3 -16 -10 -29 -16 -29 -5 0 -25 -11 -43 -25 -41 -32 -71 -32 -131 1 -31 16 -57 23 -74 20 -14 -3 -31 0 -37 6 -15 15 -159 19 -207 5 -22 -6 -48 -9 -58 -8 -10 1 -40 -11 -66 -28 -60 -39 -79 -39 -126 -1 -21 17 -44 30 -51 30 -8 0 -14 8 -14 18 0 10 -14 39 -31 65 -27 41 -30 54 -31 122 0 45 5 82 12 90 7 8 10 21 7 30 -4 8 3 34 13 57 11 24 20 56 20 72 0 16 18 61 40 101 27 49 47 103 60 165 19 90 42 140 77 172 41 37 139 89 163 86 21 -3 26 -9 32 -50z"/>
 <path d="M1206 922 c2 -3 -1 -11 -7 -18 -6 -8 -9 -21 -5 -29 3 -9 2 -13 -4 -10 -6 3 -10 14 -11 23 0 10 -3 12 -5 5 -3 -7 0 -21 6 -32 13 -26 -2 -28 -43 -6 -15 8 -25 9 -21 4 12 -20 73 -39 121 -38 27 1 37 4 23 6 -37 7 -46 20 -28 40 26 31 28 40 11 54 -12 10 -14 10 -9 2 8 -15 -5 -17 -20 -4 -6 5 -9 6 -8 3z"/>
 <path d="M754 895 c-3 -8 -3 -20 1 -27 4 -7 -1 -4 -9 6 -9 11 -16 14 -16 8 0 -7 9 -21 20 -32 l20 -20 -24 0 c-38 0 -74 17 -78 36 -3 16 -4 16 -16 1 -11 -13 -10 -17 8 -27 40 -21 126 -24 175 -6 25 10 48 22 51 28 3 5 -8 3 -24 -6 -38 -20 -72 -21 -72 -2 0 8 5 16 12 18 6 2 9 12 5 21 -8 21 -46 22 -53 2z"/>
 <path d="M1330 867 c0 -10 -10 -22 -22 -27 -23 -9 -23 -9 -2 -9 28 -1 46 20 34 39 -8 13 -10 12 -10 -3z"/>
 <path d="M647 786 c14 -10 65 -22 130 -31 60 -8 118 -17 131 -21 18 -5 21 -3 16 9 -8 23 -34 29 -154 37 -58 3 -114 10 -125 15 -17 6 -17 5 2 -9z"/>
 <path d="M1340 791 c-8 -5 -62 -11 -120 -14 -114 -6 -135 -11 -144 -34 -5 -12 -2 -14 16 -8 13 4 68 12 123 19 55 7 114 20 130 29 17 9 26 16 20 16 -5 0 -17 -3 -25 -8z"/>
 </g>
<g id="layer120" fill="#4d352e" stroke="none">
 <path d="M915 1584 c-16 -3 -59 -14 -95 -26 -56 -18 -76 -32 -141 -97 -84 -85 -92 -102 -109 -246 -11 -91 -45 -231 -61 -251 -4 -5 -6 -20 -2 -32 7 -29 -22 -72 -48 -72 -16 0 -19 4 -14 21 5 15 4 19 -5 14 -6 -4 -10 -16 -7 -26 5 -20 -15 -43 -29 -31 -4 4 -3 -1 5 -10 9 -12 10 -22 2 -37 -6 -11 -9 -26 -6 -33 3 -8 -1 -41 -10 -73 -8 -33 -15 -78 -15 -102 0 -43 17 -93 32 -93 4 0 8 -14 8 -31 0 -35 13 -63 45 -99 12 -14 34 -46 48 -71 26 -46 64 -79 90 -79 7 0 25 -17 38 -37 28 -44 90 -81 145 -87 21 -2 58 -11 82 -20 59 -22 247 -18 284 6 13 9 41 16 62 16 48 0 124 46 145 89 10 19 26 33 41 36 33 7 79 52 98 97 8 19 23 41 34 49 24 16 48 70 48 106 0 14 4 25 8 25 15 0 32 49 32 88 0 21 -6 62 -14 92 -8 30 -16 80 -18 110 -4 54 -5 55 -46 75 -35 16 -43 25 -48 55 -3 19 -17 77 -30 128 -14 52 -30 133 -35 180 -16 140 -24 158 -109 243 -63 63 -87 80 -141 98 -63 22 -198 35 -264 25z m37 -166 c8 -61 13 -68 49 -68 33 0 49 27 49 81 0 55 42 52 137 -10 79 -51 108 -95 127 -196 10 -51 32 -113 61 -170 25 -49 45 -102 45 -116 0 -15 8 -44 17 -65 9 -22 15 -47 14 -57 -1 -10 3 -24 9 -32 7 -8 10 -44 9 -91 -3 -62 -8 -85 -27 -112 -12 -19 -26 -47 -29 -63 -3 -16 -10 -29 -16 -29 -5 0 -25 -11 -43 -25 -41 -32 -71 -32 -131 1 -31 16 -57 23 -74 20 -14 -3 -31 0 -37 6 -15 15 -159 19 -207 5 -22 -6 -48 -9 -58 -8 -10 1 -40 -11 -66 -28 -60 -39 -79 -39 -126 -1 -21 17 -44 30 -51 30 -8 0 -14 8 -14 18 0 10 -14 39 -31 65 -27 41 -30 54 -31 122 0 45 5 82 12 90 7 8 10 21 7 30 -4 8 3 34 13 57 11 24 20 56 20 72 0 16 18 61 40 101 27 49 47 103 60 165 19 90 42 140 77 172 41 37 139 89 163 86 21 -3 26 -9 32 -50z m107 -1188 l12 -25 -20 24 c-14 15 -21 36 -20 60 l1 36 7 -35 c4 -19 13 -46 20 -60z m-63 38 c-6 -23 -12 -35 -14 -26 -3 14 14 68 21 68 2 0 -1 -19 -7 -42z m114 -8 c12 -23 12 -24 -3 -11 -10 7 -17 20 -17 29 0 18 3 16 20 -18z m-329 -23 c-6 -14 -20 -31 -33 -38 l-23 -12 21 24 c12 13 25 35 29 49 5 14 10 20 12 14 2 -6 -1 -23 -6 -37z m196 -92 c-4 -8 -11 -15 -17 -15 -6 0 -6 7 2 20 14 22 24 19 15 -5z"/>
 <path d="M763 894 c-8 -21 13 -42 28 -27 13 13 5 43 -11 43 -6 0 -13 -7 -17 -16z"/>
 <path d="M1207 904 c-15 -15 -7 -45 11 -42 9 2 17 12 17 22 0 20 -16 31 -28 20z"/>
 <path d="M1330 868 c0 -9 -8 -22 -17 -27 -16 -9 -16 -10 -2 -11 24 0 40 23 29 40 -8 13 -10 12 -10 -2z"/>
 <path d="M646 862 c-8 -13 30 -36 47 -28 8 3 7 5 -2 5 -8 1 -19 8 -26 18 -8 11 -14 12 -19 5z"/>
 <path d="M857 854 c-16 -8 -56 -19 -90 -23 l-62 -8 50 -2 c45 0 135 28 135 44 0 7 -1 7 -33 -11z"/>
 <path d="M1115 860 c13 -21 73 -40 122 -39 47 1 47 2 -17 11 -36 5 -76 16 -89 25 -13 8 -20 10 -16 3z"/>
 <path d="M647 786 c14 -10 65 -22 130 -31 60 -8 118 -17 131 -21 18 -5 21 -3 16 9 -8 23 -34 29 -154 37 -58 3 -114 10 -125 15 -17 6 -17 5 2 -9z"/>
 <path d="M1340 791 c-8 -5 -62 -11 -120 -14 -114 -6 -135 -11 -144 -34 -5 -12 -2 -14 16 -8 13 4 68 12 123 19 55 7 114 20 130 29 17 9 26 16 20 16 -5 0 -17 -3 -25 -8z"/>
 </g>
<g id="layer121" fill="#2a232b" stroke="none">
 <path d="M882 1575 c-96 -21 -144 -49 -214 -123 -71 -76 -81 -101 -98 -237 -10 -82 -43 -225 -58 -250 -4 -5 -7 -27 -7 -48 -1 -39 -16 -57 -48 -57 -14 0 -17 5 -12 21 5 15 4 19 -5 14 -6 -4 -10 -16 -7 -26 5 -20 -15 -43 -29 -31 -4 4 -3 -1 5 -10 9 -12 10 -22 2 -37 -6 -11 -9 -26 -6 -33 3 -8 -1 -41 -10 -73 -8 -33 -15 -78 -15 -102 0 -43 17 -93 32 -93 4 0 8 -14 8 -31 0 -35 13 -63 45 -99 12 -14 34 -46 48 -71 26 -46 64 -79 90 -79 7 0 25 -17 38 -37 28 -44 90 -81 145 -87 21 -2 58 -11 82 -20 59 -22 247 -18 284 6 13 9 41 16 62 16 48 0 124 46 145 89 10 19 26 33 41 36 33 7 79 52 98 97 8 19 23 41 34 49 24 16 48 70 48 106 0 14 4 25 8 25 15 0 32 49 32 88 0 21 -6 62 -14 92 -8 30 -16 80 -18 110 -4 54 -5 55 -46 75 -30 14 -44 27 -48 45 -2 14 -17 81 -34 150 -16 69 -31 154 -34 189 -10 112 -23 139 -106 222 -64 64 -86 79 -141 98 -84 28 -214 35 -297 16z m69 -152 c6 -47 23 -73 49 -73 25 0 40 22 48 71 6 35 12 45 30 47 47 7 177 -80 207 -138 8 -15 23 -69 34 -120 14 -61 34 -116 61 -165 22 -40 40 -85 40 -101 0 -16 9 -48 20 -72 10 -23 17 -49 13 -57 -3 -9 0 -21 6 -29 12 -14 16 -112 6 -158 -3 -15 -16 -44 -30 -64 -14 -20 -25 -45 -25 -55 0 -11 -4 -19 -8 -19 -5 0 -30 -14 -56 -32 l-48 -31 -64 32 c-42 21 -71 30 -84 26 -12 -4 -28 -1 -36 6 -19 16 -208 17 -227 1 -7 -6 -22 -9 -33 -6 -11 3 -38 -7 -65 -24 -73 -47 -81 -47 -129 -7 -23 19 -48 35 -56 35 -8 0 -14 7 -14 17 0 9 -14 38 -31 64 -27 42 -30 57 -31 122 0 41 5 84 11 96 7 12 9 25 6 30 -2 5 4 29 15 52 11 24 20 59 20 77 0 18 12 51 26 73 40 64 63 124 74 196 6 36 19 82 30 103 35 68 156 154 210 148 21 -3 26 -9 31 -45z m108 -1193 l12 -25 -20 24 c-14 15 -21 36 -20 60 l1 36 7 -35 c4 -19 13 -46 20 -60z m-63 38 c-6 -23 -12 -35 -14 -26 -3 14 14 68 21 68 2 0 -1 -19 -7 -42z m114 -8 c12 -23 12 -24 -3 -11 -10 7 -17 20 -17 29 0 18 3 16 20 -18z m-329 -23 c-6 -14 -20 -31 -33 -38 l-23 -12 21 24 c12 13 25 35 29 49 5 14 10 20 12 14 2 -6 -1 -23 -6 -37z m196 -92 c-4 -8 -11 -15 -17 -15 -6 0 -6 7 2 20 14 22 24 19 15 -5z"/>
 <path d="M763 894 c-8 -21 13 -42 28 -27 13 13 5 43 -11 43 -6 0 -13 -7 -17 -16z"/>
 <path d="M1207 904 c-15 -15 -7 -45 11 -42 9 2 17 12 17 22 0 20 -16 31 -28 20z"/>
 <path d="M1330 868 c0 -9 -8 -22 -17 -27 -10 -6 -13 -11 -7 -11 22 0 44 25 34 40 -8 13 -10 13 -10 -2z"/>
 <path d="M660 845 c7 -8 20 -14 29 -14 13 1 13 2 -1 6 -10 2 -18 9 -18 14 0 5 -5 9 -11 9 -8 0 -8 -5 1 -15z"/>
 <path d="M830 844 c-19 -7 -53 -14 -75 -15 -22 -1 -32 -3 -21 -6 28 -7 101 6 122 22 22 17 20 17 -26 -1z"/>
 <path d="M1175 830 c19 -8 113 -14 104 -6 -2 2 -31 6 -64 9 -38 4 -53 3 -40 -3z"/>
 <path d="M663 780 c10 -6 61 -16 114 -21 53 -6 105 -15 116 -20 25 -14 37 -1 15 15 -10 8 -62 15 -120 19 -57 3 -112 8 -123 12 -18 6 -18 5 -2 -5z"/>
 <path d="M1295 779 c-22 -4 -71 -8 -108 -8 -67 -1 -107 -12 -107 -31 0 -6 9 -6 25 0 13 5 67 14 119 19 53 5 103 14 113 20 21 12 14 12 -42 0z"/>
 </g>
<g id="layer122" fill="#241d25" stroke="none">
 <path d="M882 1575 c-96 -21 -144 -49 -214 -123 -71 -76 -81 -101 -98 -237 -10 -82 -43 -225 -58 -250 -4 -5 -7 -27 -7 -48 -1 -39 -16 -57 -48 -57 -14 0 -17 5 -12 21 5 15 4 19 -5 14 -6 -4 -10 -16 -7 -26 5 -20 -15 -43 -29 -31 -4 4 -3 -1 5 -10 9 -12 10 -22 2 -37 -6 -11 -9 -26 -6 -33 3 -8 -1 -41 -10 -73 -8 -33 -15 -78 -15 -102 0 -43 17 -93 32 -93 4 0 8 -14 8 -31 0 -35 13 -63 45 -99 12 -14 34 -46 48 -71 26 -46 64 -79 90 -79 7 0 25 -17 38 -37 28 -44 90 -81 145 -87 21 -2 58 -11 82 -20 59 -22 247 -18 284 6 13 9 41 16 62 16 48 0 124 46 145 89 10 19 26 33 41 36 33 7 79 52 98 97 8 19 23 41 34 49 24 16 48 70 48 106 0 14 4 25 8 25 15 0 32 49 32 88 0 21 -6 62 -14 92 -8 30 -16 78 -18 105 -3 56 -14 71 -58 86 -21 8 -32 19 -35 37 -3 15 -18 83 -35 152 -16 69 -31 154 -34 189 -10 112 -23 139 -106 222 -64 64 -86 79 -141 98 -84 28 -214 35 -297 16z m302 -54 c110 -54 193 -167 217 -296 6 -33 21 -94 33 -135 l22 -75 -25 0 c-20 0 -29 10 -52 61 -15 33 -35 97 -43 143 -22 114 -47 157 -123 212 -90 64 -174 70 -172 11 l1 -27 7 25 c4 15 15 26 29 28 48 7 176 -79 207 -138 8 -15 23 -68 34 -118 13 -60 34 -116 60 -165 23 -40 41 -87 41 -103 0 -16 9 -48 20 -72 10 -23 17 -49 13 -57 -3 -9 0 -21 6 -29 13 -15 17 -103 7 -153 -3 -18 -17 -49 -31 -69 -14 -20 -25 -45 -25 -55 0 -11 -4 -19 -8 -19 -5 0 -30 -14 -56 -32 l-48 -31 -64 32 c-40 20 -71 30 -84 26 -10 -3 -28 -1 -39 4 -27 15 -207 17 -224 3 -7 -6 -22 -9 -33 -6 -11 3 -38 -7 -65 -24 -73 -47 -81 -47 -129 -7 -23 19 -48 35 -56 35 -8 0 -14 7 -14 17 0 9 -14 38 -31 64 -27 42 -30 57 -31 122 0 41 5 84 11 96 7 12 9 25 6 30 -2 5 4 29 15 52 11 24 20 60 20 80 0 19 4 39 9 45 35 38 84 162 95 242 13 89 75 166 172 213 64 30 88 24 95 -28 11 -83 67 -101 92 -30 4 10 3 16 -3 12 -5 -3 -18 0 -29 7 -15 9 -23 9 -35 -1 -14 -12 -16 -9 -16 22 0 73 -79 68 -184 -11 -64 -49 -100 -114 -115 -212 -16 -98 -62 -195 -94 -195 l-23 0 22 75 c12 41 27 102 33 135 28 154 140 282 280 322 28 8 83 12 143 9 85 -3 105 -7 162 -35z m-639 -606 c-8 -30 -29 -70 -46 -89 -18 -21 -25 -37 -19 -41 5 -3 10 -29 10 -57 0 -39 -5 -57 -21 -74 -20 -22 -20 -22 -1 -28 28 -9 46 -58 38 -106 -5 -32 -3 -40 9 -40 23 0 55 -60 55 -105 1 -32 3 -37 11 -22 18 30 64 21 97 -19 28 -34 30 -35 37 -15 7 23 53 51 82 51 28 -1 64 -25 79 -51 l13 -24 1 28 c0 29 31 67 54 67 19 0 46 -38 46 -64 0 -17 3 -16 27 8 44 44 99 48 118 9 9 -18 13 -19 21 -7 5 8 25 17 45 20 30 5 41 1 72 -26 33 -29 37 -30 37 -12 0 35 49 65 97 59 l42 -4 -2 41 c-2 37 1 43 30 57 29 14 30 17 16 32 -22 22 -9 65 25 79 15 7 28 13 30 14 2 1 -6 19 -17 40 -26 47 -26 60 -4 73 17 9 16 12 -6 41 -15 21 -21 40 -18 58 4 19 -1 31 -20 46 -14 10 -32 34 -39 52 -16 38 -19 94 -4 94 15 0 30 -36 30 -75 0 -41 36 -85 69 -85 32 0 30 6 57 -242 5 -43 3 -63 -9 -81 -9 -13 -19 -41 -23 -61 -3 -21 -21 -57 -38 -79 -17 -23 -44 -61 -60 -84 -16 -24 -45 -50 -66 -60 -21 -10 -46 -31 -56 -46 -27 -40 -102 -87 -138 -87 -17 0 -49 -7 -71 -15 -24 -8 -77 -14 -135 -14 -58 0 -111 6 -135 14 -22 8 -53 15 -68 15 -43 0 -105 37 -135 80 -15 21 -36 41 -48 44 -34 9 -73 45 -94 86 -11 21 -31 51 -45 66 -14 15 -30 45 -36 68 -6 23 -17 53 -25 68 -17 32 -18 83 -3 180 21 140 21 139 59 152 38 12 60 45 60 89 0 16 5 38 12 50 20 36 22 -4 3 -68z"/>
 <path d="M762 883 c2 -10 10 -18 18 -18 8 0 16 8 18 18 2 12 -3 17 -18 17 -15 0 -20 -5 -18 -17z"/>
 <path d="M1202 883 c2 -10 10 -18 18 -18 8 0 16 8 18 18 2 12 -3 17 -18 17 -15 0 -20 -5 -18 -17z"/>
 <path d="M1318 848 c-21 -21 -10 -24 17 -5 10 8 14 16 9 19 -5 3 -17 -3 -26 -14z"/>
 </g>
<g id="layer123" fill="#261e22" stroke="none">
 <path d="M882 1575 c-96 -21 -144 -49 -214 -123 -71 -76 -81 -101 -98 -237 -10 -82 -43 -225 -58 -250 -4 -5 -7 -27 -7 -48 -1 -39 -16 -57 -48 -57 -14 0 -17 5 -12 21 5 15 4 19 -5 14 -6 -4 -10 -16 -7 -26 5 -20 -15 -43 -29 -31 -4 4 -3 -1 5 -10 9 -12 10 -22 2 -37 -6 -11 -9 -26 -6 -33 3 -8 -1 -41 -10 -73 -8 -33 -15 -78 -15 -102 0 -43 17 -93 32 -93 4 0 8 -14 8 -31 0 -35 13 -63 45 -99 12 -14 34 -46 48 -71 26 -46 64 -79 90 -79 7 0 25 -17 38 -37 28 -44 90 -81 145 -87 21 -2 58 -11 82 -20 59 -22 247 -18 284 6 13 9 41 16 62 16 48 0 124 46 145 89 10 19 26 33 41 36 33 7 79 52 98 97 8 19 23 41 34 49 24 16 48 70 48 106 0 14 4 25 8 25 15 0 32 49 32 88 0 21 -6 62 -14 92 -8 30 -16 78 -18 105 -3 47 -29 92 -48 80 -14 -9 -50 36 -50 63 0 15 -12 68 -26 117 -14 50 -29 130 -35 179 -15 143 -23 162 -109 247 -64 64 -86 79 -141 98 -84 28 -214 35 -297 16z m305 -50 c123 -61 191 -159 223 -322 10 -54 25 -120 34 -146 13 -45 13 -47 -4 -42 -10 3 -20 0 -23 -8 -7 -20 10 -111 27 -145 9 -17 13 -38 10 -46 -4 -9 -1 -22 5 -30 13 -15 17 -103 7 -153 -3 -18 -17 -49 -31 -69 -14 -20 -25 -45 -25 -55 0 -11 -4 -19 -8 -19 -5 0 -30 -14 -56 -32 l-48 -31 -64 32 c-40 20 -71 30 -84 26 -10 -3 -28 -1 -39 4 -27 15 -207 17 -224 3 -7 -6 -22 -9 -33 -6 -11 3 -38 -7 -65 -24 -73 -47 -81 -47 -129 -7 -23 19 -48 35 -56 35 -8 0 -14 7 -14 17 0 9 -14 38 -31 64 -27 42 -30 57 -31 122 0 41 5 84 11 96 7 12 9 25 6 30 -2 5 4 29 15 52 11 24 20 60 20 80 0 19 4 39 9 45 35 38 84 162 95 242 13 89 75 166 172 213 64 30 88 24 95 -28 8 -66 48 -95 79 -58 24 28 -31 60 -58 33 -9 -9 -12 -4 -12 23 0 19 -5 40 -12 47 -30 30 -116 1 -188 -64 -58 -53 -78 -92 -94 -183 -16 -90 -73 -228 -89 -212 -5 5 -16 7 -23 4 -12 -4 -11 2 1 36 8 23 23 88 34 145 11 57 32 127 46 156 54 106 157 186 270 210 22 5 78 7 125 5 72 -4 96 -10 157 -40z m-622 -562 c-9 -51 -43 -128 -64 -147 -15 -14 -17 -25 -10 -68 6 -39 5 -59 -6 -82 -14 -27 -14 -31 6 -53 16 -16 22 -36 23 -70 1 -38 7 -54 28 -74 15 -15 30 -43 33 -62 7 -33 9 -36 36 -30 25 5 35 0 64 -31 20 -22 35 -31 35 -23 0 17 38 44 66 47 39 5 61 -1 80 -18 19 -18 19 -18 37 10 14 24 23 29 50 26 25 -2 35 -10 47 -35 15 -31 16 -32 28 -12 7 11 25 24 39 30 32 12 83 2 83 -16 0 -12 6 -12 35 1 40 16 76 11 101 -17 17 -19 17 -19 31 1 22 31 72 53 105 46 26 -5 28 -4 22 19 -7 29 18 75 41 75 11 0 14 7 9 25 -9 38 3 70 31 83 25 11 25 13 10 41 -18 35 -19 73 -4 88 8 8 5 19 -11 41 -15 20 -21 38 -17 54 5 17 1 27 -14 36 -26 17 -49 71 -49 117 0 34 12 46 26 24 4 -7 12 -36 18 -67 11 -55 18 -64 68 -82 20 -7 28 -17 32 -42 2 -18 9 -66 15 -106 15 -97 14 -163 -2 -187 -7 -11 -19 -39 -26 -63 -6 -23 -24 -57 -39 -75 -15 -17 -34 -45 -42 -60 -18 -36 -75 -87 -98 -87 -9 0 -24 -13 -33 -29 -26 -45 -81 -81 -140 -91 -30 -4 -67 -13 -82 -19 -41 -16 -211 -14 -271 4 -28 8 -69 17 -91 21 -30 4 -52 18 -90 57 -27 28 -63 58 -80 66 -16 9 -44 36 -62 61 -18 25 -46 63 -63 86 -16 22 -33 56 -36 75 -4 19 -13 43 -21 54 -16 24 -17 99 -2 197 19 125 21 130 59 143 36 12 59 48 60 97 0 38 10 58 27 58 12 0 14 -8 8 -37z"/>
 <path d="M1047 1473 c-4 -3 -7 -18 -6 -32 l1 -26 7 25 c14 51 95 29 187 -52 47 -41 60 -69 83 -178 12 -54 33 -114 51 -146 18 -30 33 -54 35 -54 2 0 -9 29 -26 63 -16 35 -34 90 -40 123 -26 136 -75 210 -172 259 -48 24 -106 33 -120 18z"/>
 <path d="M762 883 c4 -21 33 -25 33 -3 0 8 -8 16 -18 18 -14 3 -18 -1 -15 -15z"/>
 <path d="M1202 883 c2 -10 10 -18 18 -18 8 0 16 8 18 18 2 12 -3 17 -18 17 -15 0 -20 -5 -18 -17z"/>
 </g>
<g id="layer124" fill="#161016" stroke="none">
 <path d="M882 1575 c-96 -21 -144 -49 -214 -123 -71 -76 -81 -101 -98 -237 -11 -91 -45 -231 -61 -251 -4 -5 -6 -19 -3 -30 9 -35 -13 -74 -41 -74 -22 0 -25 3 -20 21 5 14 3 19 -4 15 -14 -9 -10 -56 6 -56 48 0 83 49 83 117 0 20 23 53 37 53 10 0 -8 -83 -28 -131 -12 -26 -29 -55 -38 -63 -15 -14 -17 -25 -10 -68 6 -39 5 -59 -6 -82 -14 -27 -14 -31 6 -53 16 -16 22 -36 23 -70 1 -38 7 -54 28 -74 15 -15 30 -43 33 -62 7 -33 9 -36 36 -30 25 5 35 0 64 -31 20 -22 35 -31 35 -23 0 17 38 44 66 47 39 5 61 -1 80 -18 19 -18 19 -18 37 10 24 40 75 37 95 -5 l14 -29 21 20 c12 11 32 23 44 26 29 9 73 -3 73 -20 0 -11 6 -10 35 2 40 16 76 11 101 -17 17 -19 17 -19 31 1 22 31 72 53 105 46 26 -5 28 -4 22 19 -7 29 18 75 41 75 11 0 14 7 9 25 -9 38 3 70 31 83 25 11 25 13 10 41 -18 35 -19 73 -4 88 8 8 5 19 -11 41 -15 20 -21 38 -17 54 5 17 1 27 -14 36 -27 17 -49 72 -49 123 0 40 1 41 19 25 11 -10 21 -37 24 -68 7 -58 15 -69 60 -84 35 -12 36 -15 56 -152 15 -98 14 -163 -2 -187 -8 -11 -19 -41 -26 -67 -7 -26 -26 -59 -42 -74 -16 -15 -29 -34 -29 -41 0 -19 -84 -103 -103 -103 -8 0 -26 -14 -38 -31 -33 -47 -97 -89 -134 -89 -18 0 -49 -7 -68 -15 -50 -21 -244 -21 -294 0 -19 8 -49 15 -65 15 -42 0 -80 23 -126 75 -22 25 -44 45 -50 45 -18 0 -82 61 -99 94 -9 17 -28 46 -44 63 -15 18 -31 50 -35 70 -4 21 -13 47 -20 58 -16 22 -19 132 -5 185 5 19 11 58 14 87 5 41 3 53 -10 57 -13 5 -14 4 -4 -8 9 -11 9 -20 2 -35 -6 -11 -9 -26 -6 -33 3 -8 -1 -41 -10 -73 -8 -33 -15 -78 -15 -102 0 -43 17 -93 32 -93 4 0 8 -14 8 -31 0 -35 13 -63 45 -99 12 -14 34 -46 48 -71 26 -46 64 -79 90 -79 7 0 25 -17 38 -37 28 -44 90 -81 145 -87 21 -2 58 -11 82 -20 59 -22 247 -18 284 6 13 9 41 16 62 16 48 0 124 46 145 89 10 19 26 33 41 36 33 7 79 52 98 97 8 19 23 41 34 49 24 16 48 70 48 106 0 14 4 25 8 25 15 0 32 49 32 88 0 21 -6 62 -14 92 -8 30 -16 78 -18 105 -3 47 -29 92 -48 80 -14 -9 -50 36 -50 63 0 15 -12 68 -26 117 -14 50 -29 130 -35 179 -15 143 -23 162 -109 247 -64 64 -86 79 -141 98 -84 28 -214 35 -297 16z m305 -50 c123 -61 191 -159 223 -322 10 -54 25 -120 34 -146 12 -40 12 -48 1 -43 -7 2 -18 -1 -23 -7 -13 -15 1 -105 22 -145 9 -17 13 -38 10 -46 -4 -9 -1 -22 5 -30 13 -15 17 -103 7 -153 -3 -18 -17 -49 -31 -69 -14 -20 -25 -45 -25 -55 0 -11 -4 -19 -8 -19 -5 0 -30 -14 -56 -32 l-48 -31 -64 32 c-40 20 -71 30 -84 26 -10 -3 -28 -1 -39 4 -27 15 -207 17 -224 3 -7 -6 -22 -9 -33 -6 -11 3 -38 -7 -65 -24 -73 -47 -81 -47 -129 -7 -23 19 -48 35 -56 35 -8 0 -14 7 -14 17 0 9 -14 38 -31 64 -27 42 -30 57 -31 122 0 41 5 84 11 96 7 12 10 25 7 30 -3 5 3 28 13 52 33 74 30 156 -4 143 -13 -5 -13 -1 0 35 8 23 23 88 34 145 11 57 32 127 46 156 54 106 157 186 270 210 22 5 78 7 125 5 72 -4 96 -10 157 -40z"/>
 <path d="M809 1438 c-93 -63 -123 -107 -142 -213 -9 -48 -29 -116 -46 -151 -16 -35 -28 -64 -25 -64 13 0 73 149 84 207 6 36 20 82 30 103 36 71 153 154 208 148 21 -2 28 -10 33 -33 6 -28 7 -28 8 -4 3 63 -61 66 -150 7z"/>
 <path d="M1046 1464 c-3 -9 -6 -23 -5 -32 1 -10 4 -6 8 8 15 54 102 28 190 -58 50 -48 60 -71 90 -207 12 -51 58 -152 74 -162 4 -3 -6 23 -24 58 -18 36 -37 97 -45 141 -17 96 -41 145 -95 192 -79 67 -178 98 -193 60z"/>
 <path d="M970 1395 c-10 -12 -10 -18 0 -30 16 -19 44 -19 60 0 10 11 9 18 -3 30 -20 19 -41 19 -57 0z"/>
 <path d="M764 889 c-8 -14 18 -31 30 -19 9 9 0 30 -14 30 -5 0 -12 -5 -16 -11z"/>
 <path d="M1200 886 c0 -8 4 -17 9 -20 11 -7 33 18 24 27 -12 12 -33 7 -33 -7z"/>
 </g>

</svg>