<!DOCTYPE svg PUBLIC "-//W3C//DTD SVG 20010904//EN" "http://www.w3.org/TR/2001/REC-SVG-20010904/DTD/svg10.dtd">
<svg version="1.0" xmlns="http://www.w3.org/2000/svg" width="200px" height="200px" viewBox="0 0 2000 2000" preserveAspectRatio="xMidYMid meet">
<g id="layer101" fill="#fdfefa" stroke="none">
 <path d="M173 1950 c8 -66 51 -160 90 -198 46 -45 113 -71 219 -85 72 -11 100 -19 122 -38 90 -76 105 -93 120 -133 12 -32 25 -47 45 -54 25 -9 28 -14 22 -40 -7 -35 -106 -122 -138 -122 -44 0 -118 -35 -158 -75 -32 -31 -45 -55 -55 -96 -7 -30 -26 -72 -41 -94 -31 -43 -49 -111 -49 -178 0 -23 -2 -100 -4 -172 -4 -137 7 -191 47 -224 11 -8 17 -28 17 -53 0 -51 24 -101 64 -134 17 -14 48 -41 68 -59 20 -19 56 -39 80 -46 24 -7 47 -19 52 -27 10 -18 68 -42 99 -42 14 0 30 -7 37 -15 7 -8 30 -20 51 -26 32 -10 42 -9 63 4 19 13 31 15 51 7 39 -15 134 -12 196 6 64 19 138 64 176 108 17 18 47 37 73 45 56 16 86 43 101 90 7 20 27 54 44 76 72 89 101 200 77 289 -9 30 -8 43 3 60 23 36 38 102 31 139 -4 19 -18 51 -31 71 -14 21 -25 51 -25 69 0 25 -9 42 -36 68 -20 18 -44 50 -55 71 -25 49 -78 91 -174 138 -94 46 -141 84 -150 123 -6 24 -4 29 22 37 22 8 36 25 56 68 17 37 40 66 63 82 20 14 45 34 57 44 14 14 49 23 114 32 113 16 182 44 227 94 37 41 73 128 83 196 l6 44 -833 0 -833 0 6 -50z"/>
 </g>
<g id="layer102" fill="#c4a98e" stroke="none">
 <path d="M173 1950 c8 -66 51 -160 90 -198 46 -45 113 -71 219 -85 72 -11 100 -19 122 -38 90 -76 105 -93 120 -133 12 -32 25 -47 45 -54 25 -9 28 -14 22 -40 -7 -35 -106 -122 -138 -122 -44 0 -118 -35 -158 -75 -32 -31 -45 -55 -55 -96 -7 -30 -26 -72 -41 -94 -31 -43 -49 -111 -49 -178 0 -23 -2 -100 -4 -172 -4 -137 7 -191 47 -224 11 -8 17 -28 17 -53 0 -51 24 -101 64 -134 17 -14 48 -41 68 -59 20 -19 56 -39 80 -46 24 -7 47 -19 52 -27 10 -18 68 -42 99 -42 14 0 30 -7 37 -15 7 -8 30 -20 51 -26 32 -10 42 -9 63 4 19 13 31 15 51 7 39 -15 134 -12 196 6 64 19 138 64 176 108 17 18 47 37 73 45 56 16 86 43 101 90 7 20 27 54 44 76 72 89 101 200 77 289 -9 30 -8 43 3 60 23 36 38 102 31 139 -4 19 -18 51 -31 71 -14 21 -25 51 -25 69 0 25 -9 42 -36 68 -20 18 -44 50 -55 71 -25 49 -78 91 -174 138 -94 46 -141 84 -150 123 -6 24 -4 29 22 37 22 8 36 25 56 68 17 37 40 66 63 82 20 14 45 34 57 44 14 14 49 23 114 32 113 16 182 44 227 94 37 41 73 128 83 196 l6 44 -833 0 -833 0 6 -50z m909 -718 c7 -7 2 -15 -16 -27 -23 -15 -32 -16 -74 -5 -58 16 -89 35 -70 44 20 9 148 0 160 -12z m-252 -258 c41 -9 79 -44 94 -89 36 -103 -56 -204 -163 -180 -57 12 -111 101 -111 181 0 59 67 110 129 98 13 -3 36 -7 51 -10z m452 -4 c11 0 35 -15 54 -34 28 -28 34 -41 34 -77 0 -83 -56 -141 -136 -141 -54 0 -96 33 -115 91 -34 101 21 180 115 165 16 -2 37 -4 48 -4z"/>
 <path d="M750 845 c-17 -20 -6 -43 25 -51 30 -8 53 0 61 21 9 22 -14 45 -46 45 -15 0 -33 -7 -40 -15z"/>
 <path d="M1197 853 c-13 -12 -7 -54 8 -59 44 -17 84 23 53 54 -13 13 -50 16 -61 5z"/>
 </g>
<g id="layer103" fill="#5bbbd5" stroke="none">
 <path d="M173 1950 c8 -66 51 -160 90 -198 46 -45 113 -71 219 -85 72 -11 100 -19 122 -38 90 -76 105 -93 120 -133 12 -32 25 -47 45 -54 25 -9 28 -14 22 -40 -7 -35 -106 -122 -138 -122 -44 0 -118 -35 -158 -75 -32 -31 -45 -55 -55 -96 -7 -30 -26 -72 -41 -94 -31 -43 -49 -111 -49 -178 0 -23 -2 -100 -4 -172 -4 -137 7 -191 47 -224 11 -8 17 -28 17 -53 0 -51 24 -101 64 -134 17 -14 48 -41 68 -59 20 -19 56 -39 80 -46 24 -7 47 -19 52 -27 10 -18 68 -42 99 -42 14 0 30 -7 37 -15 7 -8 30 -20 51 -26 32 -10 42 -9 63 4 19 13 31 15 51 7 39 -15 134 -12 196 6 64 19 138 64 176 108 17 18 47 37 73 45 56 16 86 43 101 90 7 20 27 54 44 76 72 89 101 200 77 289 -9 30 -8 43 3 60 23 36 38 102 31 139 -4 19 -18 51 -31 71 -14 21 -25 51 -25 69 0 25 -9 42 -36 68 -20 18 -44 50 -55 71 -25 49 -78 91 -174 138 -94 46 -141 84 -150 123 -6 24 -4 29 22 37 22 8 36 25 56 68 17 37 40 66 63 82 20 14 45 34 57 44 14 14 49 23 114 32 113 16 182 44 227 94 37 41 73 128 83 196 l6 44 -833 0 -833 0 6 -50z m909 -718 c18 -18 -36 -45 -74 -37 -56 12 -101 37 -86 47 17 12 146 4 160 -10z m337 -46 c19 -20 33 -38 30 -40 -2 -3 -27 18 -54 46 -28 28 -41 46 -30 40 11 -6 35 -26 54 -46z m-859 -36 c-11 -21 -24 -63 -30 -92 l-9 -53 3 56 c1 37 10 68 25 92 30 49 37 47 11 -3z m270 -176 c41 -9 79 -44 94 -88 34 -100 -44 -197 -148 -183 -93 12 -162 169 -105 241 23 29 72 47 108 40 13 -3 36 -7 51 -10z m464 -8 c48 -20 76 -61 76 -110 0 -57 -28 -107 -70 -128 -74 -36 -140 -14 -172 59 -24 55 -25 100 -4 141 24 47 105 65 170 38z m293 -333 c-2 -16 -4 -5 -4 22 0 28 2 40 4 28 2 -13 2 -35 0 -50z m-17 -80 c-11 -17 -11 -17 -6 0 3 10 7 26 7 35 1 15 2 15 6 0 2 -10 -1 -25 -7 -35z m-207 -38 c-73 -16 -92 -25 -146 -73 l-42 -37 26 34 c39 52 119 89 194 89 17 0 3 -5 -32 -13z m-878 -67 c0 -29 3 -69 7 -88 l7 -35 -14 30 c-15 31 -19 102 -9 129 3 9 7 16 8 16 0 0 1 -24 1 -52z m854 -101 c-2 -2 -37 -34 -77 -71 -41 -36 -83 -71 -95 -77 -25 -14 105 109 142 133 22 15 43 25 30 15z m-421 -226 c13 -7 51 -19 85 -27 l62 -14 -54 5 c-66 5 -146 43 -186 86 l-30 32 50 -35 c28 -20 61 -41 73 -47z"/>
 <path d="M750 845 c-17 -20 -6 -43 25 -51 30 -8 53 0 61 21 9 22 -14 45 -46 45 -15 0 -33 -7 -40 -15z"/>
 <path d="M1197 853 c-13 -12 -7 -54 8 -59 44 -17 84 23 53 54 -13 13 -50 16 -61 5z"/>
 </g>
<g id="layer104" fill="#b79574" stroke="none">
 <path d="M173 1950 c8 -66 51 -160 90 -198 46 -45 113 -71 219 -85 72 -11 100 -19 122 -38 90 -76 105 -93 120 -133 12 -32 25 -47 45 -54 25 -9 28 -14 22 -40 -7 -35 -106 -122 -138 -122 -44 0 -118 -35 -158 -75 -32 -31 -45 -55 -55 -96 -7 -30 -26 -72 -41 -94 -31 -43 -49 -111 -49 -178 0 -23 -2 -100 -4 -172 -4 -137 7 -191 47 -224 11 -8 17 -28 17 -53 0 -51 24 -101 64 -134 17 -14 48 -41 68 -59 20 -19 56 -39 80 -46 24 -7 47 -19 52 -27 10 -18 68 -42 99 -42 14 0 30 -7 37 -15 7 -8 30 -20 51 -26 32 -10 42 -9 63 4 19 13 31 15 51 7 39 -15 134 -12 196 6 64 19 138 64 176 108 17 18 47 37 73 45 56 16 86 43 101 90 7 20 27 54 44 76 72 89 101 200 77 289 -9 30 -8 43 3 60 23 36 38 102 31 139 -4 19 -18 51 -31 71 -14 21 -25 51 -25 69 0 25 -9 42 -36 68 -20 18 -44 50 -55 71 -25 49 -78 91 -174 138 -94 46 -141 84 -150 123 -6 24 -4 29 22 37 22 8 36 25 56 68 17 37 40 66 63 82 20 14 45 34 57 44 14 14 49 23 114 32 113 16 182 44 227 94 37 41 73 128 83 196 l6 44 -833 0 -833 0 6 -50z m909 -718 c18 -18 -36 -45 -74 -37 -56 12 -101 37 -86 47 17 12 146 4 160 -10z m337 -46 c19 -20 33 -38 30 -40 -2 -3 -27 18 -54 46 -28 28 -41 46 -30 40 11 -6 35 -26 54 -46z m-859 -36 c-11 -21 -24 -63 -30 -92 l-9 -53 3 56 c1 37 10 68 25 92 30 49 37 47 11 -3z m270 -176 c41 -9 79 -44 94 -88 34 -100 -44 -197 -148 -183 -93 12 -162 169 -105 241 23 29 72 47 108 40 13 -3 36 -7 51 -10z m464 -8 c48 -20 76 -61 76 -110 0 -57 -28 -107 -70 -128 -74 -36 -140 -14 -172 59 -24 55 -25 100 -4 141 24 47 105 65 170 38z m293 -333 c-2 -16 -4 -5 -4 22 0 28 2 40 4 28 2 -13 2 -35 0 -50z m-17 -80 c-11 -17 -11 -17 -6 0 3 10 7 26 7 35 1 15 2 15 6 0 2 -10 -1 -25 -7 -35z m-207 -38 c-73 -16 -92 -25 -146 -73 l-42 -37 26 34 c39 52 119 89 194 89 17 0 3 -5 -32 -13z m-878 -67 c0 -29 3 -69 7 -88 l7 -35 -14 30 c-15 31 -19 102 -9 129 3 9 7 16 8 16 0 0 1 -24 1 -52z m854 -101 c-2 -2 -37 -34 -77 -71 -41 -36 -83 -71 -95 -77 -25 -14 105 109 142 133 22 15 43 25 30 15z m-421 -226 c13 -7 51 -19 85 -27 l62 -14 -54 5 c-66 5 -146 43 -186 86 l-30 32 50 -35 c28 -20 61 -41 73 -47z"/>
 </g>
<g id="layer105" fill="#de6465" stroke="none">
 <path d="M173 1950 c8 -66 51 -160 90 -198 46 -45 113 -71 219 -85 72 -11 100 -19 122 -38 90 -76 105 -93 120 -133 12 -32 25 -47 45 -54 25 -9 28 -14 22 -40 -7 -35 -106 -122 -138 -122 -44 0 -118 -35 -158 -75 -32 -31 -45 -55 -55 -96 -7 -30 -26 -72 -41 -94 -31 -43 -49 -111 -49 -178 0 -23 -2 -100 -4 -172 -4 -137 7 -191 47 -224 11 -8 17 -28 17 -53 0 -51 24 -101 64 -134 17 -14 48 -41 68 -59 20 -19 56 -39 80 -46 24 -7 47 -19 52 -27 10 -18 68 -42 99 -42 14 0 30 -7 37 -15 7 -8 30 -20 51 -26 32 -10 42 -9 63 4 19 13 31 15 51 7 39 -15 134 -12 196 6 64 19 138 64 176 108 17 18 47 37 73 45 56 16 86 43 101 90 7 20 27 54 44 76 72 89 101 200 77 289 -9 30 -8 43 3 60 23 36 38 102 31 139 -4 19 -18 51 -31 71 -14 21 -25 51 -25 69 0 25 -9 42 -36 68 -20 18 -44 50 -55 71 -25 49 -78 91 -174 138 -94 46 -141 84 -150 123 -6 24 -4 29 22 37 22 8 36 25 56 68 17 37 40 66 63 82 20 14 45 34 57 44 14 14 49 23 114 32 113 16 182 44 227 94 37 41 73 128 83 196 l6 44 -833 0 -833 0 6 -50z m1262 -743 c41 -27 85 -69 85 -80 0 -5 -7 -4 -15 3 -9 7 -18 11 -21 8 -2 -3 19 -25 47 -49 44 -36 79 -88 79 -115 0 -4 -12 3 -27 17 -21 18 -19 14 9 -21 19 -25 40 -55 47 -67 14 -28 14 -111 -1 -153 -10 -30 -12 -32 -20 -14 -4 10 -5 -1 0 -26 12 -78 6 -171 -17 -231 -25 -67 -68 -129 -75 -108 -2 8 -7 21 -9 29 -3 8 -6 -2 -6 -23 -1 -59 -25 -103 -72 -134 -29 -19 -44 -24 -47 -15 -2 7 -23 -9 -49 -38 -101 -112 -277 -156 -397 -99 -50 24 -57 24 -29 0 19 -16 20 -20 7 -25 -31 -12 -72 -5 -100 16 -15 13 -37 21 -48 20 -29 -3 -82 32 -107 70 -16 25 -20 28 -16 11 3 -15 0 -23 -7 -23 -23 0 -95 59 -112 91 -10 20 -19 28 -23 20 -5 -8 -14 -4 -28 11 -39 43 -57 91 -57 154 -1 34 -4 60 -8 57 -5 -2 -8 -14 -9 -26 0 -17 -5 -13 -20 18 -23 48 -22 132 3 183 9 17 13 32 8 32 -4 0 -11 -8 -15 -17 -6 -16 -7 -16 -15 -2 -5 9 -5 42 2 80 6 35 10 83 9 105 -2 59 23 121 71 178 28 33 34 45 20 37 -15 -8 -22 -8 -22 -1 0 23 41 89 72 115 38 32 115 71 123 63 4 -3 -3 -24 -14 -46 -43 -85 -45 -134 -15 -332 l6 -35 -24 37 c-20 32 -128 137 -128 125 0 -2 14 -22 31 -43 69 -87 109 -197 123 -344 14 -140 59 -210 135 -210 20 0 47 7 59 16 22 15 22 15 22 -26 0 -59 14 -80 54 -80 24 0 42 9 68 34 28 27 42 57 76 162 23 71 53 145 66 165 l25 36 52 -13 c60 -16 87 -11 149 25 25 14 54 29 65 33 17 5 17 6 3 7 -24 1 -23 11 7 51 44 59 29 183 -42 340 -14 30 -32 70 -39 88 l-15 33 48 -27 c26 -15 62 -37 78 -47z m-353 25 c18 -18 -36 -45 -74 -37 -56 12 -101 37 -86 47 17 12 146 4 160 -10z m-252 -258 c41 -9 79 -44 94 -88 34 -100 -44 -197 -148 -183 -93 12 -162 169 -105 241 23 29 72 47 108 40 13 -3 36 -7 51 -10z m464 -8 c48 -20 76 -61 76 -110 0 -57 -28 -107 -70 -128 -74 -36 -140 -14 -172 59 -24 55 -25 100 -4 141 24 47 105 65 170 38z"/>
 <path d="M1450 1073 c0 -4 20 -33 45 -65 25 -31 52 -70 60 -85 8 -16 15 -22 15 -15 0 24 -32 77 -76 124 -24 26 -44 44 -44 41z"/>
 <path d="M445 895 c4 -11 13 -58 21 -105 40 -241 57 -296 112 -361 32 -39 112 -79 154 -78 30 1 29 2 -11 10 -128 25 -172 102 -225 393 -9 48 -26 105 -37 125 -11 20 -17 27 -14 16z"/>
 <path d="M1482 883 c48 -94 62 -200 34 -268 -14 -34 -14 -37 -1 -20 44 56 44 176 0 250 -14 25 -28 45 -31 45 -3 0 -4 -3 -2 -7z"/>
 <path d="M1259 606 c-93 -33 -129 -72 -175 -188 -49 -125 -151 -182 -232 -131 -25 17 -26 17 -13 0 14 -17 74 -38 94 -32 7 2 24 6 39 9 43 10 99 66 130 131 15 33 28 66 28 73 0 28 104 117 155 134 28 9 41 17 30 17 -11 0 -36 -6 -56 -13z"/>
 <path d="M1254 420 c-38 -21 -64 -47 -97 -97 -54 -81 -70 -96 -119 -114 -44 -15 -132 1 -171 32 -27 21 -42 25 -32 9 4 -6 28 -22 55 -35 38 -19 65 -25 114 -25 58 0 69 3 100 30 19 17 49 54 67 83 56 90 92 120 164 138 l30 7 -30 1 c-16 0 -53 -12 -81 -29z"/>
 <path d="M517 400 c15 -114 85 -160 195 -130 21 6 40 15 43 20 4 6 -4 6 -20 0 -38 -15 -102 -12 -135 5 -32 17 -46 37 -72 105 l-17 45 6 -45z"/>
 <path d="M780 293 c0 -23 73 -94 119 -118 125 -62 292 -57 390 12 40 28 37 27 -34 -8 -44 -21 -63 -24 -155 -23 -83 0 -116 5 -161 22 -66 26 -116 61 -141 99 -10 16 -18 22 -18 16z"/>
 <path d="M750 197 c0 -26 27 -74 45 -81 32 -12 37 -6 13 14 -14 10 -32 34 -41 52 -11 21 -17 26 -17 15z"/>
 </g>
<g id="layer106" fill="#a68059" stroke="none">
 <path d="M173 1950 c8 -66 51 -160 90 -198 46 -45 113 -71 219 -85 72 -11 100 -19 122 -38 90 -76 105 -93 120 -133 12 -32 25 -47 45 -54 25 -9 28 -14 22 -40 -7 -35 -106 -122 -138 -122 -44 0 -118 -35 -158 -75 -32 -31 -45 -55 -55 -96 -7 -30 -26 -72 -41 -94 -31 -43 -49 -111 -49 -178 0 -23 -2 -100 -4 -172 -4 -137 7 -191 47 -224 11 -8 17 -28 17 -53 0 -51 24 -101 64 -134 17 -14 48 -41 68 -59 20 -19 56 -39 80 -46 24 -7 47 -19 52 -27 10 -18 68 -42 99 -42 14 0 30 -7 37 -15 7 -8 30 -20 51 -26 32 -10 42 -9 63 4 19 13 31 15 51 7 39 -15 134 -12 196 6 64 19 138 64 176 108 17 18 47 37 73 45 56 16 86 43 101 90 7 20 27 54 44 76 72 89 101 200 77 289 -9 30 -8 43 3 60 23 36 38 102 31 139 -4 19 -18 51 -31 71 -14 21 -25 51 -25 69 0 25 -9 42 -36 68 -20 18 -44 50 -55 71 -25 49 -78 91 -174 138 -94 46 -141 84 -150 123 -6 24 -4 29 22 37 22 8 36 25 56 68 17 37 40 66 63 82 20 14 45 34 57 44 14 14 49 23 114 32 113 16 182 44 227 94 37 41 73 128 83 196 l6 44 -833 0 -833 0 6 -50z m947 -646 c0 -16 -65 -20 -89 -5 -10 7 -2 12 30 18 49 11 59 9 59 -13z m315 -97 c41 -27 85 -69 85 -80 0 -5 -7 -4 -15 3 -9 7 -18 11 -21 8 -2 -3 19 -25 47 -49 44 -36 79 -88 79 -115 0 -4 -12 3 -27 17 -21 18 -19 14 9 -21 19 -25 40 -55 47 -67 14 -28 14 -111 -1 -153 -10 -30 -12 -32 -20 -14 -4 10 -5 -1 0 -26 12 -78 6 -171 -17 -231 -25 -67 -68 -129 -75 -108 -2 8 -7 21 -9 29 -3 8 -6 -2 -6 -23 -1 -59 -25 -103 -72 -134 -29 -19 -44 -24 -47 -15 -2 7 -23 -9 -49 -38 -101 -112 -277 -156 -397 -99 -50 24 -57 24 -29 0 19 -16 20 -20 7 -25 -31 -12 -72 -5 -100 16 -15 13 -37 21 -48 20 -29 -3 -82 32 -107 70 -16 25 -20 28 -16 11 3 -15 0 -23 -7 -23 -23 0 -95 59 -112 91 -10 20 -19 28 -23 20 -5 -8 -14 -4 -28 11 -39 43 -57 91 -57 154 -1 34 -4 60 -8 57 -5 -2 -8 -14 -9 -26 0 -17 -5 -13 -20 18 -23 48 -22 132 3 183 9 17 13 32 8 32 -4 0 -11 -8 -15 -17 -6 -16 -7 -16 -15 -2 -5 9 -5 42 2 80 6 35 10 83 9 105 -2 59 23 121 71 178 28 33 34 45 20 37 -15 -8 -22 -8 -22 -1 0 23 41 89 72 115 38 32 115 71 123 63 4 -3 -3 -24 -14 -46 -43 -85 -45 -134 -15 -332 l6 -35 -24 37 c-20 32 -128 137 -128 125 0 -2 14 -22 31 -43 69 -87 109 -197 123 -344 14 -140 59 -210 135 -210 20 0 47 7 59 16 22 15 22 15 22 -26 0 -59 14 -80 54 -80 24 0 42 9 68 34 28 27 42 57 76 162 23 71 53 145 66 165 l25 36 52 -13 c60 -16 87 -11 149 25 25 14 54 29 65 33 17 5 17 6 3 7 -24 1 -23 11 7 51 44 59 29 183 -42 340 -14 30 -32 70 -39 88 l-15 33 48 -27 c26 -15 62 -37 78 -47z m-353 25 c18 -18 -36 -45 -74 -37 -56 12 -101 37 -86 47 17 12 146 4 160 -10z m-252 -258 c41 -9 79 -44 94 -88 34 -100 -44 -197 -148 -183 -93 12 -162 169 -105 241 23 29 72 47 108 40 13 -3 36 -7 51 -10z m464 -8 c48 -20 76 -61 76 -110 0 -57 -28 -107 -70 -128 -74 -36 -140 -14 -172 59 -24 55 -25 100 -4 141 24 47 105 65 170 38z"/>
 <path d="M1450 1073 c0 -4 20 -33 45 -65 25 -31 52 -70 60 -85 8 -16 15 -22 15 -15 0 24 -32 77 -76 124 -24 26 -44 44 -44 41z"/>
 <path d="M445 895 c4 -11 13 -58 21 -105 40 -241 57 -296 112 -361 32 -39 112 -79 154 -78 30 1 29 2 -11 10 -128 25 -172 102 -225 393 -9 48 -26 105 -37 125 -11 20 -17 27 -14 16z"/>
 <path d="M1482 883 c48 -94 62 -200 34 -268 -14 -34 -14 -37 -1 -20 44 56 44 176 0 250 -14 25 -28 45 -31 45 -3 0 -4 -3 -2 -7z"/>
 <path d="M1259 606 c-93 -33 -129 -72 -175 -188 -49 -125 -151 -182 -232 -131 -25 17 -26 17 -13 0 14 -17 74 -38 94 -32 7 2 24 6 39 9 43 10 99 66 130 131 15 33 28 66 28 73 0 28 104 117 155 134 28 9 41 17 30 17 -11 0 -36 -6 -56 -13z"/>
 <path d="M1254 420 c-38 -21 -64 -47 -97 -97 -54 -81 -70 -96 -119 -114 -44 -15 -132 1 -171 32 -27 21 -42 25 -32 9 4 -6 28 -22 55 -35 38 -19 65 -25 114 -25 58 0 69 3 100 30 19 17 49 54 67 83 56 90 92 120 164 138 l30 7 -30 1 c-16 0 -53 -12 -81 -29z"/>
 <path d="M517 400 c15 -114 85 -160 195 -130 21 6 40 15 43 20 4 6 -4 6 -20 0 -38 -15 -102 -12 -135 5 -32 17 -46 37 -72 105 l-17 45 6 -45z"/>
 <path d="M780 293 c0 -23 73 -94 119 -118 125 -62 292 -57 390 12 40 28 37 27 -34 -8 -44 -21 -63 -24 -155 -23 -83 0 -116 5 -161 22 -66 26 -116 61 -141 99 -10 16 -18 22 -18 16z"/>
 <path d="M750 197 c0 -26 27 -74 45 -81 32 -12 37 -6 13 14 -14 10 -32 34 -41 52 -11 21 -17 26 -17 15z"/>
 </g>
<g id="layer107" fill="#9b7147" stroke="none">
 <path d="M173 1950 c8 -66 51 -160 90 -198 46 -45 113 -71 219 -85 72 -11 100 -19 122 -38 90 -76 105 -93 120 -133 12 -32 25 -47 45 -54 25 -9 28 -14 22 -40 -7 -35 -106 -122 -138 -122 -44 0 -118 -35 -158 -75 -32 -31 -45 -55 -55 -96 -7 -30 -26 -72 -41 -94 -31 -43 -49 -111 -49 -178 0 -23 -2 -100 -4 -172 -4 -137 7 -191 47 -224 11 -8 17 -28 17 -53 0 -51 24 -101 64 -134 17 -14 48 -41 68 -59 20 -19 56 -39 80 -46 24 -7 47 -19 52 -27 10 -18 68 -42 99 -42 14 0 30 -7 37 -15 7 -8 30 -20 51 -26 32 -10 42 -9 63 4 19 13 31 15 51 7 101 -39 296 21 370 114 18 23 40 36 74 45 55 14 85 41 102 91 7 19 27 53 44 75 72 89 101 200 77 289 -9 30 -8 43 3 60 23 36 38 102 31 139 -4 19 -18 51 -31 71 -14 21 -25 51 -25 69 0 25 -9 42 -36 68 -20 18 -44 50 -55 71 -25 49 -78 91 -174 138 -94 46 -141 84 -150 123 -6 24 -4 29 22 37 22 8 36 25 56 68 17 37 40 66 63 82 20 14 45 34 57 44 14 14 49 23 114 32 113 16 182 44 227 94 37 41 73 128 83 196 l6 44 -833 0 -833 0 6 -50z m947 -646 c0 -16 -65 -20 -89 -5 -10 7 -2 12 30 18 49 11 59 9 59 -13z m351 -122 c22 -19 44 -43 50 -54 10 -18 9 -19 -12 -7 -13 6 3 -12 34 -42 33 -32 59 -66 63 -84 7 -28 6 -29 -11 -15 -10 8 -2 -6 17 -32 46 -60 55 -110 33 -185 -10 -34 -18 -96 -19 -148 -1 -80 -5 -98 -35 -162 -18 -40 -42 -80 -52 -89 -18 -16 -19 -16 -20 2 -1 10 -5 -1 -10 -25 -5 -24 -19 -55 -31 -69 -21 -22 -102 -70 -104 -61 -1 2 -13 -11 -29 -29 -35 -42 -93 -75 -179 -103 -79 -25 -161 -23 -217 6 -26 14 -31 15 -22 3 18 -21 7 -28 -42 -28 -27 0 -51 7 -67 20 -14 10 -28 17 -31 14 -11 -11 -74 25 -106 61 -25 29 -32 33 -26 16 l7 -22 -40 20 c-21 11 -53 36 -70 56 -18 20 -32 30 -32 24 0 -19 -39 21 -67 68 -14 24 -27 66 -30 98 -4 35 -9 51 -14 43 -13 -21 -39 54 -39 112 0 28 7 67 15 88 11 28 12 33 1 20 -24 -32 -29 -19 -22 55 4 39 8 97 10 128 5 65 37 147 72 180 16 15 21 25 13 30 -36 22 50 132 137 175 60 29 72 28 53 -8 -9 -15 -15 -84 -19 -200 -3 -97 -8 -179 -12 -183 -3 -4 -13 6 -21 22 -9 15 -30 42 -47 58 l-33 30 36 -47 c49 -65 74 -138 97 -284 21 -133 36 -173 72 -198 26 -18 71 -21 99 -6 17 10 19 7 19 -27 0 -47 23 -83 53 -83 57 0 85 52 131 243 39 163 69 206 113 166 25 -24 88 -40 123 -32 45 10 102 47 116 75 33 64 -2 352 -61 492 -7 16 2 13 54 -15 35 -19 80 -49 102 -67z m-389 50 c18 -18 -36 -45 -74 -37 -56 12 -101 37 -86 47 17 12 146 4 160 -10z m-252 -258 c41 -9 79 -44 94 -88 34 -100 -44 -197 -148 -183 -93 12 -162 169 -105 241 23 29 72 47 108 40 13 -3 36 -7 51 -10z m464 -8 c48 -20 76 -61 76 -110 0 -57 -28 -107 -70 -128 -74 -36 -140 -14 -172 59 -24 55 -25 100 -4 141 24 47 105 65 170 38z"/>
 <path d="M1487 1024 c12 -17 30 -37 40 -45 13 -10 12 -6 -4 17 -12 17 -30 37 -40 45 -13 10 -12 6 4 -17z"/>
 <path d="M471 822 c-1 -6 6 -58 14 -115 22 -146 48 -218 98 -270 23 -24 30 -29 15 -13 -39 45 -64 109 -84 211 -22 118 -42 203 -43 187z"/>
 <path d="M1194 571 c-44 -27 -69 -62 -101 -144 -19 -49 -42 -86 -71 -116 -40 -39 -41 -41 -12 -25 41 24 59 51 107 155 28 59 52 95 79 117 44 36 43 41 -2 13z"/>
 <path d="M1222 395 c-16 -13 -48 -54 -71 -89 -50 -77 -77 -96 -145 -106 l-51 -8 45 -1 c66 -2 108 25 157 99 23 35 57 78 75 97 38 39 32 44 -10 8z"/>
 <path d="M521 387 c-1 -4 5 -22 13 -41 16 -39 60 -76 90 -76 17 1 16 3 -9 14 -35 15 -65 46 -82 84 -6 15 -12 23 -12 19z"/>
 <path d="M860 204 c0 -13 115 -55 162 -59 l53 -4 -55 10 c-30 5 -78 20 -107 34 -29 13 -53 22 -53 19z"/>
 </g>
<g id="layer108" fill="#64625f" stroke="none">
 <path d="M173 1950 c8 -66 51 -160 90 -198 46 -45 113 -71 219 -85 72 -11 100 -19 122 -38 90 -76 105 -93 120 -133 12 -32 25 -47 45 -54 25 -9 28 -14 22 -40 -7 -35 -106 -122 -138 -122 -44 0 -118 -35 -158 -75 -32 -31 -45 -55 -55 -96 -7 -30 -26 -72 -41 -94 -31 -43 -49 -111 -49 -178 0 -23 -2 -100 -4 -172 -4 -137 7 -191 47 -224 11 -8 17 -28 17 -53 0 -51 24 -101 64 -134 17 -14 48 -41 68 -59 20 -19 56 -39 80 -46 24 -7 47 -19 52 -27 10 -18 68 -42 99 -42 14 0 30 -7 37 -15 7 -8 30 -20 51 -26 32 -10 42 -9 63 4 19 13 31 15 51 7 42 -16 138 -12 203 9 69 21 114 50 158 101 23 25 46 39 82 48 56 15 86 42 103 92 7 19 27 53 44 75 72 89 101 200 77 289 -9 30 -8 43 3 60 23 36 38 102 31 139 -4 19 -18 51 -31 71 -14 21 -25 51 -25 69 0 25 -9 42 -36 68 -20 18 -44 50 -55 71 -25 49 -78 91 -174 138 -94 46 -141 84 -150 123 -6 24 -4 29 22 37 22 8 36 25 56 68 17 37 40 66 63 82 20 14 45 34 57 44 14 14 49 23 114 32 113 16 182 44 227 94 37 41 73 128 83 196 l6 44 -833 0 -833 0 6 -50z m947 -646 c0 -16 -65 -20 -89 -5 -10 7 -2 12 30 18 49 11 59 9 59 -13z m272 -66 c72 -43 138 -100 138 -119 0 -6 -6 -7 -12 -3 -7 4 8 -14 34 -39 46 -45 66 -85 54 -106 -4 -5 -1 -13 5 -17 18 -11 49 -86 49 -120 0 -17 -7 -51 -16 -75 -11 -29 -16 -70 -15 -122 2 -52 -4 -97 -15 -134 -20 -64 -74 -149 -92 -146 -7 2 -12 -6 -12 -18 0 -45 -63 -112 -114 -121 -11 -2 -36 -20 -55 -41 -88 -97 -287 -145 -390 -94 -26 13 -30 13 -21 2 27 -33 -71 -39 -113 -7 -7 5 -31 14 -54 20 -23 7 -55 26 -72 42 -16 17 -31 25 -33 20 -6 -18 -89 32 -114 69 -13 19 -24 29 -24 22 0 -26 -51 31 -76 84 -13 28 -24 65 -24 83 0 18 -4 31 -8 28 -16 -10 -42 65 -42 120 0 30 7 71 15 92 11 28 12 33 1 20 -24 -32 -29 -19 -22 55 3 39 8 99 10 132 5 66 22 112 59 163 15 19 23 41 20 52 -7 28 39 102 84 133 41 28 113 61 119 54 2 -2 0 -17 -5 -33 -5 -16 -11 -104 -14 -195 -2 -91 -8 -172 -12 -179 -6 -9 -13 -7 -26 11 -14 19 -13 11 6 -37 13 -33 31 -103 40 -155 28 -173 36 -201 65 -231 30 -29 61 -35 104 -18 25 9 26 8 26 -28 0 -72 55 -107 100 -62 28 28 48 80 76 200 30 130 41 158 72 192 l24 26 22 -24 c23 -28 87 -46 126 -37 45 10 102 47 116 76 31 59 -5 343 -61 490 -10 24 -4 22 77 -25z m-310 -6 c18 -18 -36 -45 -74 -37 -56 12 -101 37 -86 47 17 12 146 4 160 -10z m-252 -258 c41 -9 79 -44 94 -88 34 -100 -44 -197 -148 -183 -93 12 -162 169 -105 241 23 29 72 47 108 40 13 -3 36 -7 51 -10z m464 -8 c48 -20 76 -61 76 -110 0 -57 -28 -107 -70 -128 -74 -36 -140 -14 -172 59 -24 55 -25 100 -4 141 24 47 105 65 170 38z"/>
 </g>
<g id="layer109" fill="#8a5c30" stroke="none">
 <path d="M173 1950 c8 -66 51 -160 90 -198 46 -45 113 -71 219 -85 72 -11 100 -19 122 -38 90 -76 105 -93 120 -133 12 -32 25 -47 45 -54 25 -9 28 -14 22 -40 -7 -35 -106 -122 -138 -122 -44 0 -118 -35 -158 -75 -32 -31 -45 -55 -55 -96 -7 -30 -26 -72 -41 -94 -31 -43 -49 -111 -49 -178 0 -23 -2 -100 -4 -172 -4 -137 7 -191 47 -224 11 -8 17 -28 17 -53 0 -51 24 -101 64 -134 17 -14 48 -41 68 -59 20 -19 56 -39 80 -46 24 -7 47 -19 52 -27 10 -18 68 -42 99 -42 14 0 30 -7 37 -15 7 -8 30 -20 51 -26 32 -10 42 -9 63 4 19 13 31 15 51 7 42 -16 138 -12 203 9 69 21 114 50 158 101 23 25 46 39 82 48 56 15 86 42 103 92 7 19 27 53 44 75 72 89 101 200 77 289 -9 30 -8 43 3 60 23 36 38 102 31 139 -4 19 -18 51 -31 71 -14 21 -25 51 -25 69 0 25 -9 42 -36 68 -20 18 -44 50 -55 71 -25 49 -78 91 -174 138 -94 46 -141 84 -150 123 -6 24 -4 29 22 37 22 8 36 25 56 68 17 37 40 66 63 82 20 14 45 34 57 44 14 14 49 23 114 32 113 16 182 44 227 94 37 41 73 128 83 196 l6 44 -833 0 -833 0 6 -50z m947 -646 c0 -16 -65 -20 -89 -5 -10 7 -2 12 30 18 49 11 59 9 59 -13z m272 -66 c72 -43 138 -100 138 -119 0 -6 -6 -7 -12 -3 -7 4 8 -14 34 -39 46 -45 66 -85 54 -106 -4 -5 -1 -13 5 -17 18 -11 49 -86 49 -120 0 -17 -7 -51 -16 -75 -11 -29 -16 -70 -15 -122 2 -52 -4 -97 -15 -134 -20 -64 -74 -149 -92 -146 -7 2 -12 -6 -12 -18 0 -45 -63 -112 -114 -121 -11 -2 -36 -20 -55 -41 -88 -97 -287 -145 -390 -94 -26 13 -30 13 -21 2 27 -33 -71 -39 -113 -7 -7 5 -31 14 -54 20 -23 7 -55 26 -72 42 -16 17 -31 25 -33 20 -6 -18 -89 32 -114 69 -13 19 -24 29 -24 22 0 -26 -51 31 -76 84 -13 28 -24 65 -24 83 0 18 -4 31 -8 28 -16 -10 -42 65 -42 120 0 30 7 71 15 92 11 28 12 33 1 20 -24 -32 -29 -19 -22 55 3 39 8 99 10 132 5 66 22 112 59 163 15 19 23 41 20 52 -7 28 39 102 84 133 41 28 113 61 119 54 2 -2 0 -17 -5 -33 -5 -16 -11 -104 -14 -195 -2 -91 -8 -172 -12 -179 -6 -9 -13 -7 -26 11 -14 19 -13 11 6 -37 13 -33 31 -103 40 -155 28 -173 36 -201 65 -231 30 -29 61 -35 104 -18 25 9 26 8 26 -28 0 -72 55 -107 100 -62 28 28 48 80 76 200 30 130 41 158 72 192 l25 27 22 -23 c28 -30 88 -48 118 -36 18 7 15 9 -19 9 -67 1 -117 55 -130 140 -6 43 21 100 57 118 34 18 110 16 149 -3 41 -21 74 -90 65 -137 -10 -44 -31 -75 -68 -97 -38 -23 -29 -27 13 -5 54 28 71 61 69 139 -2 106 -40 309 -74 399 -10 24 -4 22 77 -25z m-316 -2 c25 -19 10 -35 -39 -43 -26 -4 -49 1 -81 17 -25 12 -46 26 -46 31 0 15 144 11 166 -5z m-206 -279 c20 -14 44 -42 54 -66 17 -36 18 -46 7 -83 -7 -23 -28 -57 -46 -75 -27 -27 -41 -33 -76 -33 -60 0 -88 17 -126 74 -27 39 -33 58 -33 100 0 57 10 76 55 100 41 22 117 14 165 -17z"/>
 </g>
<g id="layer110" fill="#74482b" stroke="none">
 <path d="M173 1950 c8 -66 51 -160 90 -198 46 -45 113 -71 219 -85 72 -11 100 -19 122 -38 90 -76 105 -93 120 -133 12 -32 25 -47 45 -54 44 -16 32 -59 -31 -108 -74 -58 -80 -76 -89 -249 -4 -82 -12 -175 -17 -205 -7 -44 -5 -64 9 -107 11 -29 24 -85 30 -125 6 -40 16 -89 23 -108 12 -37 62 -77 105 -86 14 -2 46 -11 71 -19 66 -22 99 -20 109 8 5 12 16 64 25 116 22 118 30 138 69 179 l31 32 27 -29 c31 -34 90 -54 122 -41 18 7 15 9 -19 9 -67 1 -117 55 -130 140 -6 43 21 100 57 118 34 18 110 16 149 -3 41 -21 74 -90 65 -137 -10 -44 -31 -75 -68 -97 -18 -11 -27 -20 -22 -20 19 0 74 39 90 64 12 19 16 40 12 78 -6 62 -37 224 -69 358 -23 95 -27 102 -94 155 -7 6 -16 22 -20 38 -5 24 -3 29 23 37 22 8 36 25 56 68 17 37 40 66 63 82 20 14 45 34 57 44 14 14 49 23 114 32 113 16 182 44 227 94 37 41 73 128 83 196 l6 44 -833 0 -833 0 6 -50z m945 -643 c3 -13 -4 -17 -31 -17 -20 0 -43 3 -53 7 -14 5 -11 9 17 19 43 16 63 13 67 -9z m-42 -71 c25 -19 10 -35 -39 -43 -26 -4 -49 1 -81 17 -25 12 -46 26 -46 31 0 15 144 11 166 -5z m-206 -279 c20 -14 44 -42 54 -66 17 -36 18 -46 7 -83 -7 -23 -28 -57 -46 -75 -27 -27 -41 -33 -76 -33 -60 0 -88 17 -126 74 -27 39 -33 58 -33 100 0 57 10 76 55 100 41 22 117 14 165 -17z"/>
 </g>
<g id="layer111" fill="#952627" stroke="none">
 <path d="M173 1950 c8 -66 51 -160 90 -198 46 -45 113 -71 219 -85 72 -11 100 -19 122 -38 90 -76 105 -93 120 -133 12 -32 25 -47 45 -54 44 -16 32 -59 -31 -108 -75 -59 -82 -77 -85 -234 -2 -74 -7 -148 -13 -165 -22 -71 -6 -195 24 -178 8 4 8 3 0 -6 -11 -12 5 -124 29 -206 13 -42 59 -81 106 -91 14 -2 46 -11 71 -19 51 -17 96 -19 105 -6 3 6 16 65 30 133 15 77 32 133 45 150 12 16 18 34 14 40 -4 6 -3 8 4 4 6 -3 18 1 26 10 9 8 16 11 16 6 0 -5 11 -21 24 -35 28 -31 89 -49 119 -37 18 7 15 9 -19 9 -67 1 -117 55 -130 140 -6 43 21 100 57 118 30 16 125 17 135 2 3 -6 15 -9 25 -6 10 3 24 -2 31 -12 11 -14 11 -14 -3 -3 -12 9 -10 -1 8 -35 37 -73 18 -142 -50 -183 -38 -23 -29 -27 13 -5 48 25 70 62 70 119 0 29 -6 61 -15 72 -8 12 -12 24 -9 27 7 6 -10 102 -44 247 -27 118 -29 121 -98 175 -7 6 -16 22 -20 38 -5 24 -3 29 23 37 22 8 36 25 56 68 17 37 40 66 63 82 20 14 45 34 57 44 14 14 49 23 114 32 113 16 182 44 227 94 37 41 73 128 83 196 l6 44 -833 0 -833 0 6 -50z m945 -642 c3 -15 -4 -18 -46 -18 -61 0 -73 10 -30 26 44 16 72 13 76 -8z m-42 -72 c25 -19 10 -35 -39 -43 -26 -4 -49 1 -81 17 -25 12 -46 26 -46 31 0 15 144 11 166 -5z m-206 -279 c20 -14 44 -42 54 -66 17 -36 18 -46 7 -83 -7 -23 -28 -57 -46 -75 -27 -27 -41 -33 -76 -33 -60 0 -88 17 -126 74 -27 39 -33 58 -33 100 0 57 10 76 55 100 41 22 117 14 165 -17z"/>
 </g>
<g id="layer112" fill="#4d4147" stroke="none">
 <path d="M173 1950 c8 -66 51 -160 90 -198 46 -45 113 -71 219 -85 72 -11 100 -19 122 -38 90 -76 105 -93 120 -133 12 -32 25 -47 45 -54 44 -16 32 -59 -31 -108 -75 -59 -82 -77 -85 -234 -2 -74 -7 -148 -13 -165 -22 -71 -6 -195 24 -178 8 4 8 3 0 -6 -11 -12 5 -124 29 -206 13 -42 59 -81 106 -91 14 -2 46 -11 71 -19 51 -17 96 -19 105 -6 3 6 16 65 30 133 15 77 32 133 45 150 12 16 18 34 14 40 -4 6 -3 8 4 4 6 -3 18 1 26 10 9 8 16 11 16 6 0 -5 11 -21 24 -35 28 -31 89 -49 119 -37 18 7 15 9 -19 9 -67 1 -117 55 -130 140 -6 43 21 100 57 118 30 16 125 17 135 2 3 -6 15 -9 25 -6 10 3 24 -2 31 -12 11 -14 11 -14 -3 -3 -12 9 -10 -1 8 -35 37 -73 18 -142 -50 -183 -38 -23 -29 -27 13 -5 48 25 70 62 70 119 0 29 -6 61 -15 72 -8 12 -12 24 -9 27 7 6 -10 102 -44 247 -27 118 -29 121 -98 175 -7 6 -16 22 -20 38 -5 24 -3 29 23 37 22 8 36 25 56 68 17 37 40 66 63 82 20 14 45 34 57 44 14 14 49 23 114 32 113 16 182 44 227 94 37 41 73 128 83 196 l6 44 -833 0 -833 0 6 -50z m946 -633 c16 -20 3 -27 -49 -27 -59 0 -71 11 -28 26 44 17 63 17 77 1z m-135 -28 l41 -19 -50 0 c-27 0 -60 -3 -72 -6 -31 -8 -44 23 -18 42 20 15 34 13 99 -17z m126 -29 c0 -12 -8 -12 -35 0 -18 8 -17 9 8 9 15 1 27 -3 27 -9z m-34 -24 c25 -19 10 -35 -39 -43 -26 -4 -49 1 -81 17 -25 12 -46 26 -46 31 0 15 144 11 166 -5z m-206 -279 c20 -14 44 -42 54 -66 17 -36 18 -46 7 -83 -7 -23 -28 -57 -46 -75 -27 -27 -41 -33 -76 -33 -60 0 -88 17 -126 74 -27 39 -33 58 -33 100 0 57 10 76 55 100 41 22 117 14 165 -17z"/>
 </g>
<g id="layer113" fill="#753915" stroke="none">
 <path d="M173 1950 c8 -66 51 -160 90 -198 46 -45 113 -71 219 -85 72 -11 100 -19 122 -38 90 -76 105 -93 120 -133 12 -32 25 -47 45 -54 44 -16 32 -59 -31 -108 -75 -59 -82 -77 -85 -233 -2 -73 -7 -150 -12 -170 -9 -34 -14 -86 -12 -123 1 -10 9 -26 19 -36 25 -26 50 -61 32 -45 -8 7 -17 13 -20 13 -7 0 16 -137 33 -195 13 -42 59 -81 106 -91 14 -2 46 -11 71 -19 51 -17 96 -19 105 -6 3 6 16 65 30 133 15 77 32 133 45 150 12 16 18 33 15 38 -3 6 3 10 14 10 12 0 21 5 21 10 0 6 14 -5 31 -24 34 -39 88 -60 122 -46 18 7 15 9 -19 9 -26 1 -51 9 -68 22 -31 24 -66 96 -66 135 0 36 37 93 67 105 33 12 120 11 129 -2 3 -6 15 -9 25 -6 10 3 24 -2 31 -12 12 -15 11 -15 -7 -1 -16 12 -15 9 5 -19 17 -25 24 -48 24 -82 0 -54 -21 -91 -67 -119 -38 -23 -29 -27 13 -5 66 34 90 116 55 184 -8 16 -12 31 -9 34 7 6 -10 102 -44 247 -27 118 -29 121 -98 175 -7 6 -16 22 -20 38 -5 24 -3 29 23 37 22 8 36 25 56 68 17 37 40 66 63 82 20 14 45 34 57 44 14 14 49 23 114 32 113 16 182 44 227 94 37 41 73 128 83 196 l6 44 -833 0 -833 0 6 -50z m946 -633 c16 -20 3 -27 -49 -27 -59 0 -71 11 -28 26 44 17 63 17 77 1z m-135 -28 l41 -19 -50 0 c-27 0 -60 -3 -72 -6 -31 -8 -44 23 -18 42 20 15 34 13 99 -17z m-110 -46 c11 -13 16 -23 13 -23 -10 0 -37 31 -37 42 0 6 1 9 3 7 1 -2 11 -14 21 -26z m236 17 c0 -12 -8 -12 -35 0 -18 8 -17 9 8 9 15 1 27 -3 27 -9z m-37 -16 c42 -13 0 -54 -55 -54 -26 0 -108 38 -108 50 0 18 107 20 163 4z m-204 -287 c47 -31 76 -92 67 -142 -14 -73 -99 -134 -165 -118 -35 8 -58 29 -93 82 -48 76 -35 175 26 202 36 15 125 3 165 -24z"/>
 </g>
<g id="layer114" fill="#343946" stroke="none">
 <path d="M173 1950 c8 -66 51 -160 90 -198 46 -45 113 -71 219 -85 72 -11 100 -19 122 -38 90 -76 105 -93 120 -133 12 -32 25 -47 45 -54 45 -16 32 -59 -35 -112 -30 -24 -54 -46 -54 -51 0 -4 -3 -16 -6 -26 -5 -16 -4 -16 5 -1 32 49 284 228 321 228 26 0 132 -67 215 -136 33 -28 66 -54 73 -58 27 -16 -6 31 -42 61 -19 15 -38 40 -41 56 -6 24 -4 29 22 37 22 8 36 25 56 68 17 37 40 66 63 82 20 14 45 34 57 44 14 14 49 23 114 32 113 16 182 44 227 94 37 41 73 128 83 196 l6 44 -833 0 -833 0 6 -50z m841 -217 c8 -66 36 -107 97 -144 28 -18 55 -43 60 -57 5 -13 8 -26 7 -27 -2 -2 -37 17 -78 41 -41 24 -86 44 -100 44 -14 0 -59 -20 -100 -44 -41 -24 -77 -40 -78 -35 -8 20 9 39 63 73 66 43 92 82 101 153 8 63 19 61 28 -4z"/>
 <path d="M871 1321 c-29 -29 -26 -48 12 -86 49 -49 144 -70 200 -44 30 14 57 59 57 96 0 49 -12 57 -71 48 -77 -10 -110 -10 -146 -2 -25 7 -36 4 -52 -12z m248 -4 c16 -20 3 -27 -49 -27 -59 0 -71 11 -28 26 44 17 63 17 77 1z m-135 -28 l41 -19 -50 0 c-27 0 -60 -3 -72 -6 -31 -8 -44 23 -18 42 20 15 34 13 99 -17z m126 -29 c0 -12 -8 -12 -35 0 -18 8 -17 9 8 9 15 1 27 -3 27 -9z m-37 -16 c42 -13 0 -54 -55 -54 -26 0 -108 38 -108 50 0 18 107 20 163 4z"/>
 <path d="M963 1140 c-38 -15 -26 -28 30 -32 62 -5 77 4 46 26 -26 18 -43 19 -76 6z"/>
 <path d="M693 1001 c-12 -6 -29 -21 -37 -34 -16 -23 -38 -147 -27 -147 3 0 19 -25 35 -56 31 -59 57 -78 121 -88 87 -13 171 78 162 176 -5 54 -37 108 -80 133 -34 20 -141 29 -174 16z m176 -44 c47 -31 76 -92 67 -142 -14 -73 -99 -134 -165 -118 -35 8 -58 29 -93 82 -48 76 -35 175 26 202 36 15 125 3 165 -24z"/>
 <path d="M1162 989 c-55 -21 -90 -106 -71 -172 21 -77 107 -139 162 -117 18 7 15 9 -19 9 -52 1 -88 28 -114 86 -26 56 -25 89 1 132 25 40 53 53 113 53 86 0 140 -50 140 -131 0 -54 -21 -91 -67 -119 -38 -23 -29 -27 13 -5 99 51 94 183 -9 252 -36 25 -105 30 -149 12z"/>
 </g>
<g id="layer115" fill="#5d3125" stroke="none">
 <path d="M173 1950 c8 -66 51 -160 90 -198 46 -45 113 -71 219 -85 72 -11 100 -19 122 -38 90 -76 105 -93 120 -133 12 -32 25 -47 45 -54 45 -16 32 -59 -35 -112 -30 -24 -54 -46 -54 -51 0 -4 -3 -16 -6 -26 -5 -16 -4 -16 5 -1 32 49 284 228 321 228 26 0 132 -67 215 -136 33 -28 66 -54 73 -58 27 -16 -6 31 -42 61 -19 15 -38 40 -41 56 -6 24 -4 29 22 37 22 8 36 25 56 68 17 37 40 66 63 82 20 14 45 34 57 44 14 14 49 23 114 32 113 16 182 44 227 94 37 41 73 128 83 196 l6 44 -833 0 -833 0 6 -50z m1613 -55 c-10 -24 -21 -47 -25 -50 -5 -2 1 20 13 49 12 30 23 52 25 50 2 -2 -4 -24 -13 -49z m-1552 -22 c9 -18 14 -33 12 -33 -6 0 -36 55 -36 66 0 11 5 3 24 -33z m86 -113 l25 -21 -28 17 c-15 9 -37 31 -48 48 l-21 31 24 -27 c13 -14 34 -36 48 -48z m694 -27 c8 -66 36 -107 97 -144 28 -18 55 -43 60 -57 5 -13 8 -26 7 -27 -2 -2 -37 17 -78 41 -41 24 -86 44 -100 44 -14 0 -59 -20 -100 -44 -41 -24 -77 -40 -78 -35 -8 20 9 39 63 73 66 43 92 82 101 153 8 63 19 61 28 -4z m345 -66 c24 -26 29 -37 17 -37 -8 0 -31 -12 -49 -27 -31 -26 -31 -25 3 6 l36 35 -48 63 c-26 35 -48 69 -48 75 0 7 13 -8 28 -33 16 -25 44 -61 61 -82z m353 111 c-6 -7 -25 -22 -44 -32 -39 -23 -32 -13 14 20 38 26 45 29 30 12z m-1011 -45 c-5 -10 -23 -34 -39 -53 l-29 -35 41 -38 c38 -37 39 -37 3 -8 -21 17 -44 31 -52 31 -9 0 3 23 33 60 49 62 60 72 43 43z"/>
 <path d="M871 1321 c-29 -29 -26 -48 12 -86 49 -49 144 -70 200 -44 30 14 57 59 57 96 0 49 -12 57 -71 48 -77 -10 -110 -10 -146 -2 -25 7 -36 4 -52 -12z m248 -4 c16 -20 3 -27 -49 -27 -59 0 -71 11 -28 26 44 17 63 17 77 1z m-135 -28 l41 -19 -50 0 c-27 0 -60 -3 -72 -6 -31 -8 -44 23 -18 42 20 15 34 13 99 -17z m126 -29 c0 -12 -8 -12 -35 0 -18 8 -17 9 8 9 15 1 27 -3 27 -9z m-36 -16 c20 -8 21 -28 1 -44 -28 -23 -152 5 -162 37 -2 6 6 14 19 16 26 6 119 0 142 -9z"/>
 <path d="M963 1140 c-38 -15 -26 -28 30 -32 62 -5 77 4 46 26 -26 18 -43 19 -76 6z"/>
 <path d="M693 1001 c-12 -6 -29 -21 -37 -34 -16 -23 -38 -147 -27 -147 3 0 20 -25 36 -56 32 -60 57 -78 120 -88 87 -13 171 78 162 176 -5 54 -37 108 -80 133 -34 20 -141 29 -174 16z m164 -33 c15 -7 40 -31 55 -53 46 -65 29 -144 -45 -199 -35 -26 -105 -26 -139 0 -48 36 -79 100 -80 162 0 48 22 88 55 103 28 12 118 4 154 -13z"/>
 <path d="M1162 989 c-55 -21 -90 -106 -71 -172 21 -77 107 -139 162 -117 18 7 15 9 -19 9 -52 1 -88 28 -114 86 -25 56 -25 89 1 131 27 45 47 54 111 53 64 -1 104 -22 129 -69 31 -57 21 -110 -29 -164 -23 -25 -24 -27 -5 -17 92 47 83 181 -16 248 -36 25 -105 30 -149 12z"/>
 </g>
<g id="layer116" fill="#592607" stroke="none">
 <path d="M173 1950 c8 -66 51 -160 90 -198 46 -45 113 -71 219 -85 72 -11 100 -19 122 -38 90 -76 105 -93 120 -133 12 -32 25 -47 45 -54 45 -16 32 -59 -35 -112 -30 -24 -54 -46 -54 -51 0 -4 -3 -16 -6 -26 -5 -16 -4 -16 5 -1 32 49 284 228 321 228 26 0 132 -67 215 -136 33 -28 66 -54 73 -58 27 -16 -6 31 -42 61 -19 15 -38 40 -41 56 -6 24 -4 29 22 37 22 8 36 25 56 68 17 37 40 66 63 82 20 14 45 34 57 44 14 14 49 23 114 32 113 16 182 44 227 94 37 41 73 128 83 196 l6 44 -833 0 -833 0 6 -50z m1613 -55 c-10 -24 -21 -47 -25 -50 -5 -2 1 20 13 49 12 30 23 52 25 50 2 -2 -4 -24 -13 -49z m-1552 -22 c9 -18 14 -33 12 -33 -6 0 -36 55 -36 66 0 11 5 3 24 -33z m86 -113 l25 -21 -28 17 c-15 9 -37 31 -48 48 l-21 31 24 -27 c13 -14 34 -36 48 -48z m693 -21 c8 -69 33 -107 97 -150 44 -29 80 -73 68 -84 -2 -2 -37 17 -78 41 -41 24 -86 44 -100 44 -14 0 -59 -20 -100 -44 -41 -24 -77 -40 -78 -35 -8 20 9 39 63 73 66 43 92 82 101 153 3 29 10 53 14 53 4 0 10 -23 13 -51z m346 -72 c24 -26 29 -37 17 -37 -8 0 -31 -12 -49 -27 -31 -26 -31 -25 3 6 l36 35 -48 63 c-26 35 -48 69 -48 75 0 7 13 -8 28 -33 16 -25 44 -61 61 -82z m353 111 c-6 -7 -25 -22 -44 -32 -39 -23 -32 -13 14 20 38 26 45 29 30 12z m-1011 -45 c-5 -10 -23 -34 -39 -53 l-29 -35 41 -38 c38 -37 39 -37 3 -8 -21 17 -44 31 -52 31 -9 0 3 23 33 60 49 62 60 72 43 43z"/>
 <path d="M1040 1330 c-9 -7 -45 -8 -92 -4 -77 6 -78 6 -89 -20 -11 -23 -10 -31 7 -53 28 -38 82 -63 145 -68 l54 -4 -47 8 c-54 10 -100 31 -105 47 -8 25 128 28 168 3 11 -7 12 -12 1 -29 -17 -27 -1 -25 26 3 27 29 38 78 23 106 -13 23 -64 29 -91 11z m84 -16 c9 -25 0 -29 -55 -27 -67 3 -81 14 -38 29 49 18 86 17 93 -2z m-139 -24 l40 -18 -50 -1 c-27 -1 -60 -4 -72 -7 -31 -8 -44 23 -18 42 20 15 37 12 100 -16z m125 -30 c0 -12 -8 -12 -35 0 -18 8 -17 9 8 9 15 1 27 -3 27 -9z"/>
 <path d="M963 1140 c-38 -15 -26 -28 30 -32 62 -5 77 4 46 26 -26 18 -43 19 -76 6z"/>
 <path d="M693 996 c-41 -19 -55 -47 -58 -115 -2 -41 3 -65 22 -100 35 -67 60 -89 112 -100 89 -19 166 44 176 145 l4 49 -9 -45 c-18 -82 -73 -133 -143 -133 -50 0 -80 19 -115 71 -61 93 -39 202 46 218 78 15 163 -24 200 -91 6 -11 12 -15 12 -9 0 20 -45 78 -75 96 -43 25 -132 32 -172 14z"/>
 <path d="M1165 986 c-38 -16 -51 -32 -70 -86 -13 -38 -13 -47 1 -89 27 -81 102 -133 157 -111 18 7 15 9 -19 9 -52 1 -88 28 -114 86 -25 56 -25 89 1 131 27 45 47 54 111 54 65 0 108 -24 131 -73 28 -58 18 -108 -31 -161 -23 -25 -24 -27 -5 -17 40 21 63 60 63 111 0 111 -123 191 -225 146z"/>
 </g>
<g id="layer117" fill="#1f2528" stroke="none">
 <path d="M173 1950 c8 -66 51 -160 90 -198 46 -45 113 -71 219 -85 72 -11 100 -19 122 -38 90 -76 105 -93 120 -133 12 -32 25 -47 45 -54 25 -9 28 -14 22 -40 -4 -19 -24 -45 -56 -71 -27 -22 -53 -50 -57 -62 -5 -14 12 -2 51 33 65 60 248 188 269 188 18 0 162 -94 235 -153 64 -53 80 -48 18 5 -22 19 -43 46 -46 61 -6 24 -4 29 22 37 22 8 36 25 56 68 17 37 40 66 63 82 20 14 45 34 57 44 14 14 49 23 114 32 113 16 182 44 227 94 37 41 73 128 83 196 l6 44 -833 0 -833 0 6 -50z m1613 -55 c-10 -24 -21 -47 -25 -50 -5 -2 1 20 13 49 12 30 23 52 25 50 2 -2 -4 -24 -13 -49z m-1552 -22 c9 -18 14 -33 12 -33 -6 0 -36 55 -36 66 0 11 5 3 24 -33z m86 -113 l25 -21 -28 17 c-15 9 -37 31 -48 48 l-21 31 24 -27 c13 -14 34 -36 48 -48z m695 -17 c11 -75 33 -112 90 -148 28 -18 56 -39 62 -46 5 -8 13 -45 15 -84 3 -38 4 -62 1 -52 -2 9 -14 17 -25 17 -11 0 -51 17 -89 38 l-69 37 -62 -34 c-34 -19 -77 -37 -96 -42 l-35 -7 7 55 c4 31 9 60 12 64 3 5 31 27 63 48 63 43 85 78 96 154 4 26 11 47 15 47 4 0 11 -21 15 -47z m344 -76 c24 -26 29 -37 17 -37 -8 0 -31 -12 -49 -27 -31 -26 -31 -25 3 6 l36 35 -48 63 c-26 35 -48 69 -48 75 0 7 13 -8 28 -33 16 -25 44 -61 61 -82z m353 111 c-6 -7 -25 -22 -44 -32 -39 -23 -32 -13 14 20 38 26 45 29 30 12z m-1011 -45 c-5 -10 -23 -34 -39 -53 l-29 -35 41 -38 c38 -37 39 -37 3 -8 -21 17 -44 31 -52 31 -9 0 3 23 33 60 49 62 60 72 43 43z"/>
 <path d="M1040 1330 c-9 -7 -45 -8 -92 -4 -77 6 -78 6 -89 -20 -11 -23 -10 -31 7 -53 28 -38 82 -63 145 -68 l54 -4 -47 8 c-54 10 -100 31 -105 47 -8 25 128 28 168 3 11 -7 12 -12 1 -29 -17 -27 -1 -25 26 3 27 29 38 78 23 106 -13 23 -64 29 -91 11z m84 -16 c9 -25 0 -29 -55 -27 -67 3 -81 14 -38 29 49 18 86 17 93 -2z m-144 -18 l52 -24 -59 -4 c-32 -2 -66 -8 -75 -12 -13 -6 -19 -2 -24 19 -12 50 27 58 106 21z m133 -37 c-7 -7 -21 -7 -44 -1 l-34 10 45 1 c31 1 41 -2 33 -10z"/>
 <path d="M693 996 c-41 -19 -55 -47 -58 -115 -2 -41 3 -65 22 -100 35 -67 60 -89 112 -100 89 -19 166 44 176 145 l4 49 -9 -45 c-18 -82 -73 -133 -143 -133 -50 0 -80 19 -115 71 -61 93 -39 202 46 218 78 15 163 -24 200 -91 6 -11 12 -15 12 -9 0 20 -45 78 -75 96 -43 25 -132 32 -172 14z"/>
 <path d="M1163 985 c-55 -24 -80 -83 -68 -161 12 -80 98 -148 158 -124 18 7 15 9 -19 9 -52 1 -88 28 -114 86 -25 56 -25 89 1 131 27 45 47 54 111 54 65 0 108 -24 131 -73 28 -58 18 -108 -31 -161 -23 -25 -24 -27 -5 -17 40 21 63 60 63 111 0 112 -123 191 -227 145z"/>
 </g>
<g id="layer118" fill="#4b1b04" stroke="none">
 <path d="M173 1950 c8 -66 51 -160 90 -198 46 -45 113 -71 219 -85 72 -11 100 -19 122 -38 90 -76 105 -93 120 -133 12 -32 25 -47 45 -54 25 -9 28 -14 22 -40 -4 -19 -24 -45 -56 -71 -27 -22 -53 -50 -57 -62 -5 -14 12 -2 51 33 65 60 248 188 269 188 18 0 162 -94 235 -153 64 -53 80 -48 18 5 -22 19 -43 46 -46 61 -6 24 -4 29 22 37 22 8 36 25 56 68 17 37 40 66 63 82 20 14 45 34 57 44 14 14 49 23 114 32 113 16 182 44 227 94 37 41 73 128 83 196 7 54 -12 60 -20 7 -21 -125 -78 -215 -159 -248 -39 -16 -258 -60 -263 -53 -19 25 -107 161 -119 186 -20 39 -39 33 -77 -22 -13 -20 -27 -36 -31 -36 -12 0 -22 24 -25 58 -1 19 -11 50 -23 69 -13 23 -19 45 -15 60 5 23 5 23 -95 23 l-100 0 9 -23 c6 -14 6 -30 0 -38 -5 -8 -16 -40 -25 -71 -22 -76 -37 -89 -66 -53 -11 15 -31 36 -42 47 -20 18 -22 18 -31 2 -7 -13 -116 -181 -130 -202 -4 -5 -192 30 -239 45 -97 31 -162 119 -181 246 -10 65 -30 62 -22 -3z m663 -195 c26 -41 58 -79 70 -86 l23 -12 -22 -17 c-12 -9 -36 -24 -52 -33 -17 -8 -43 -28 -59 -43 -23 -24 -27 -35 -24 -70 3 -40 2 -42 -14 -27 -10 8 -22 30 -28 49 -12 35 -74 98 -109 109 -21 6 -30 25 -12 25 12 0 105 126 127 172 16 35 19 37 35 22 10 -9 39 -49 65 -89z m503 -47 c24 -32 47 -58 52 -58 20 0 7 -18 -20 -29 -38 -16 -87 -68 -105 -112 -8 -19 -23 -42 -32 -50 -16 -13 -16 -12 -5 9 25 47 -6 89 -113 155 l-46 28 31 26 c16 14 46 51 66 82 19 31 45 66 56 79 l21 22 26 -47 c14 -27 45 -74 69 -105z m-324 35 c11 -75 33 -112 90 -148 28 -18 56 -39 62 -46 5 -8 13 -45 15 -84 3 -38 4 -62 1 -52 -2 9 -14 17 -25 17 -11 0 -51 17 -89 38 l-69 37 -62 -34 c-34 -19 -77 -37 -96 -42 l-35 -7 7 55 c4 31 9 60 12 64 3 5 31 27 63 48 63 43 85 78 96 154 4 26 11 47 15 47 4 0 11 -21 15 -47z"/>
 <path d="M1040 1329 c-15 -6 -55 -8 -97 -4 -71 7 -73 6 -85 -19 -10 -23 -8 -31 8 -53 28 -38 83 -63 145 -68 30 -2 43 -2 29 1 -102 19 -149 45 -119 65 19 14 145 5 164 -11 14 -12 14 -15 -1 -31 -25 -27 -1 -23 24 4 27 29 38 78 23 106 -13 23 -48 27 -91 10z m84 -15 c9 -25 0 -29 -55 -27 -67 3 -81 14 -38 29 49 18 86 17 93 -2z m-144 -18 l52 -24 -59 -4 c-32 -2 -66 -8 -75 -12 -13 -6 -19 -2 -24 19 -12 50 27 58 106 21z m133 -37 c-7 -7 -21 -7 -44 -1 l-34 10 45 1 c31 1 41 -2 33 -10z"/>
 <path d="M703 999 c-66 -20 -89 -134 -45 -219 35 -66 57 -85 110 -98 69 -16 122 11 156 81 14 28 25 65 25 81 -2 27 -2 28 -6 6 -14 -84 -62 -143 -127 -155 -122 -23 -227 187 -135 271 16 15 36 19 89 19 77 0 107 -16 148 -75 12 -18 22 -28 22 -23 0 20 -46 77 -75 94 -38 22 -120 31 -162 18z"/>
 <path d="M1163 985 c-60 -26 -86 -99 -63 -179 17 -63 57 -97 117 -102 l48 -3 -42 8 c-111 20 -164 172 -84 243 27 24 40 28 94 29 44 0 56 3 42 9 -30 13 -76 11 -112 -5z"/>
 <path d="M1342 943 c50 -62 48 -129 -5 -190 -25 -29 -27 -34 -10 -25 79 43 86 163 12 227 -20 17 -20 16 3 -12z"/>
 </g>
<g id="layer119" fill="#252120" stroke="none">
 <path d="M181 1978 c-1 -15 4 -51 10 -80 31 -145 107 -206 291 -231 72 -11 100 -19 122 -38 90 -76 105 -93 120 -133 13 -34 25 -47 48 -55 17 -6 32 -11 33 -11 1 0 5 26 9 58 6 57 7 57 67 97 67 44 92 83 103 158 9 60 22 60 31 0 10 -71 39 -119 89 -148 59 -35 72 -52 80 -109 3 -27 8 -51 9 -53 2 -2 17 2 33 7 23 8 37 25 57 68 17 37 40 66 63 82 20 14 45 34 57 44 14 14 49 24 114 33 199 27 282 104 297 273 l6 65 -20 -79 c-43 -168 -101 -214 -319 -251 -52 -8 -95 -14 -96 -13 -20 27 -107 161 -119 186 -20 39 -39 33 -77 -22 -13 -20 -27 -36 -31 -36 -12 0 -22 24 -25 58 -1 19 -11 50 -23 69 -13 23 -19 45 -15 60 5 23 5 23 -95 23 l-100 0 9 -23 c6 -14 6 -30 0 -38 -5 -8 -16 -40 -25 -71 -22 -76 -37 -89 -66 -53 -11 15 -31 36 -42 47 -20 18 -22 18 -31 2 -7 -13 -116 -181 -130 -202 -4 -5 -192 30 -239 45 -96 31 -151 104 -181 241 -8 34 -13 46 -14 30z m655 -223 c26 -41 58 -79 70 -86 l23 -12 -22 -17 c-12 -9 -36 -24 -52 -33 -17 -8 -43 -28 -59 -43 -23 -24 -27 -35 -24 -70 3 -40 2 -42 -14 -27 -10 8 -22 30 -28 49 -12 35 -74 98 -109 109 -21 6 -30 25 -12 25 12 0 105 126 127 172 16 35 19 37 35 22 10 -9 39 -49 65 -89z m503 -47 c24 -32 47 -58 52 -58 20 0 7 -18 -20 -29 -38 -16 -87 -68 -105 -112 -8 -19 -23 -42 -32 -50 -16 -13 -16 -12 -5 9 25 47 -6 89 -113 155 l-46 28 31 26 c16 14 46 51 66 82 19 31 45 66 56 79 l21 22 26 -47 c14 -27 45 -74 69 -105z"/>
 <path d="M1045 1331 c-13 -6 -3 -8 31 -7 29 1 50 4 47 9 -5 9 -52 8 -78 -2z"/>
 <path d="M859 1306 c-11 -23 -10 -30 7 -53 28 -38 83 -63 145 -68 30 -2 43 -2 29 1 -102 19 -149 45 -119 66 10 7 7 8 -13 4 -33 -8 -58 25 -37 50 16 20 48 18 105 -7 26 -12 71 -25 98 -29 46 -6 49 -8 27 -17 -17 -7 -21 -12 -12 -17 9 -6 8 -13 -5 -27 -25 -28 -2 -23 25 5 12 13 24 41 27 62 4 29 3 35 -5 24 -7 -11 -25 -14 -61 -13 -58 3 -79 11 -59 24 10 6 7 9 -11 9 -14 0 -48 3 -77 6 -49 6 -53 5 -64 -20z"/>
 <path d="M958 1263 c12 -2 30 -2 40 0 9 3 -1 5 -23 4 -22 0 -30 -2 -17 -4z"/>
 <path d="M703 999 c-66 -20 -89 -134 -45 -219 35 -66 57 -85 110 -98 69 -16 122 11 156 81 14 28 25 65 25 81 -2 27 -2 28 -6 6 -14 -84 -62 -143 -127 -155 -122 -23 -227 187 -135 271 16 15 36 19 89 19 77 0 107 -16 148 -75 12 -18 22 -28 22 -23 0 20 -46 77 -75 94 -38 22 -120 31 -162 18z"/>
 <path d="M1163 985 c-60 -26 -86 -99 -63 -179 17 -63 57 -97 117 -102 l48 -3 -42 8 c-111 20 -164 172 -84 243 27 24 40 28 94 29 44 0 56 3 42 9 -30 13 -76 11 -112 -5z"/>
 <path d="M1342 943 c50 -62 48 -129 -5 -190 -25 -29 -27 -34 -10 -25 79 43 86 163 12 227 -20 17 -20 16 3 -12z"/>
 </g>
<g id="layer120" fill="#2c160f" stroke="none">
 <path d="M181 1978 c-1 -15 4 -51 10 -80 31 -145 107 -206 291 -231 52 -8 99 -17 105 -20 7 -4 14 -3 18 3 3 5 4 10 2 10 -35 0 -239 46 -265 59 -78 40 -121 107 -147 226 -8 33 -14 48 -14 33z"/>
 <path d="M915 1971 c3 -16 2 -32 -3 -35 -6 -3 -16 -30 -22 -58 -7 -29 -22 -63 -33 -75 l-20 -22 -27 37 c-46 64 -54 67 -74 24 -10 -20 -40 -67 -67 -104 -27 -37 -49 -71 -49 -74 0 -13 70 82 102 138 18 32 36 58 41 58 4 0 32 -38 62 -84 53 -82 90 -120 107 -110 4 3 8 3 8 0 0 -4 -31 -26 -70 -51 -83 -53 -105 -82 -97 -130 8 -48 -16 -36 -38 18 -19 47 -57 92 -97 113 -43 22 -44 16 -2 -15 52 -38 69 -58 89 -108 12 -30 25 -44 47 -52 17 -6 32 -11 33 -11 1 0 5 26 9 58 6 57 7 57 67 97 37 24 68 54 78 75 24 46 35 121 21 130 -6 4 12 10 41 13 61 7 103 31 95 54 -4 9 -12 44 -18 79 l-13 64 -88 0 -89 0 7 -29z"/>
 <path d="M1805 1953 c-25 -168 -104 -241 -295 -273 -112 -18 -119 -21 -114 -34 3 -8 -8 -18 -25 -26 -40 -16 -96 -78 -110 -123 -7 -19 -18 -38 -26 -41 -11 -4 -12 -1 -4 18 18 38 -12 79 -93 131 l-71 47 26 21 c15 12 51 58 80 101 28 44 57 81 63 83 5 2 18 -14 28 -34 21 -44 108 -165 114 -159 2 3 -15 29 -37 59 -23 29 -54 77 -70 106 l-28 52 -42 -47 c-38 -44 -42 -46 -59 -31 -16 14 -22 14 -75 -1 l-59 -16 7 -45 c10 -69 39 -117 89 -146 59 -35 72 -52 80 -109 3 -27 8 -51 9 -53 2 -2 17 2 33 7 23 8 37 25 57 68 17 37 40 66 63 82 20 14 45 34 57 44 14 14 49 23 114 32 197 28 280 103 299 272 8 72 0 84 -11 15z"/>
 <path d="M1053 1332 c-7 -4 8 -7 32 -7 23 0 41 3 38 8 -6 9 -54 9 -70 -1z"/>
 <path d="M866 1314 c-21 -21 -20 -27 10 -64 27 -31 73 -60 96 -60 7 0 -7 10 -32 21 -43 20 -44 21 -25 36 19 15 19 15 -7 9 -21 -5 -30 -2 -38 15 -14 24 0 46 33 52 l22 4 -22 2 c-12 0 -29 -6 -37 -15z"/>
 <path d="M980 1298 c24 -12 67 -24 95 -28 45 -6 48 -8 26 -17 -17 -7 -21 -12 -12 -17 9 -6 8 -13 -6 -28 -13 -15 -14 -20 -4 -16 20 6 48 47 55 80 6 26 5 27 -20 18 -29 -12 -84 -4 -123 16 -14 8 -33 14 -41 13 -8 0 5 -10 30 -21z"/>
 <path d="M958 1263 c12 -2 30 -2 40 0 9 3 -1 5 -23 4 -22 0 -30 -2 -17 -4z"/>
 <path d="M711 997 c-40 -14 -67 -49 -75 -97 l-6 -35 15 40 c22 56 46 76 96 82 62 7 122 -12 160 -50 23 -22 29 -25 21 -10 -19 34 -66 62 -123 73 -28 6 -52 10 -53 9 0 0 -16 -5 -35 -12z"/>
 <path d="M1165 986 c-29 -12 -72 -62 -62 -72 2 -2 9 7 16 20 18 33 52 46 119 47 41 0 51 3 37 9 -30 13 -76 11 -110 -4z"/>
 <path d="M1337 950 c46 -53 53 -105 23 -165 -25 -49 -18 -59 9 -14 37 60 23 138 -30 184 l-24 20 22 -25z"/>
 <path d="M1092 860 c0 -19 2 -27 5 -17 2 9 2 25 0 35 -3 9 -5 1 -5 -18z"/>
 <path d="M638 842 c-4 -12 -3 -22 0 -22 4 0 15 -20 25 -44 23 -55 42 -72 100 -90 44 -13 50 -13 89 8 40 20 88 75 88 100 0 6 -10 -6 -22 -27 -29 -49 -94 -82 -145 -72 -48 9 -99 62 -116 122 -11 38 -15 43 -19 25z"/>
 <path d="M1100 812 c0 -29 52 -102 74 -102 6 0 -2 12 -18 26 -15 15 -34 41 -42 58 -7 17 -13 25 -14 18z"/>
 </g>
<g id="layer121" fill="#100f0e" stroke="none">
 <path d="M915 1971 c3 -16 2 -32 -3 -35 -6 -3 -16 -30 -22 -58 -7 -29 -22 -63 -33 -75 l-20 -22 -19 22 c-19 22 34 -76 56 -102 6 -8 24 -20 40 -26 l30 -13 -72 -46 c-85 -54 -107 -83 -99 -131 8 -48 -16 -36 -38 18 -19 47 -57 92 -97 113 -43 22 -44 16 -2 -15 52 -38 69 -58 89 -108 12 -29 25 -45 45 -51 16 -6 31 -8 34 -5 3 4 6 28 6 54 0 47 1 48 62 91 33 24 70 54 80 68 22 30 41 132 26 141 -5 3 14 9 43 12 61 7 103 31 95 54 -4 9 -12 44 -18 79 l-13 64 -88 0 -89 0 7 -29z"/>
 <path d="M1800 1930 c0 -45 -42 -129 -84 -168 -46 -42 -102 -65 -206 -82 -112 -18 -119 -21 -114 -34 3 -8 -8 -18 -25 -26 -40 -16 -96 -78 -110 -123 -7 -19 -18 -38 -26 -41 -11 -4 -12 -1 -4 18 17 37 -12 79 -91 130 -39 25 -70 50 -70 55 0 5 9 13 21 16 11 4 41 39 66 78 25 40 55 83 67 97 l21 25 -23 -20 c-13 -11 -31 -32 -40 -47 -16 -28 -16 -28 -37 -8 -21 19 -23 19 -76 2 -53 -17 -54 -18 -51 -52 7 -82 33 -121 115 -169 45 -28 57 -48 57 -99 0 -48 5 -53 39 -41 19 7 35 26 54 67 17 37 40 66 63 82 20 14 45 34 57 44 14 14 49 24 114 33 144 19 221 61 263 143 18 35 37 140 26 140 -3 0 -6 -9 -6 -20z"/>
 <path d="M190 1927 c0 -44 34 -132 66 -167 45 -50 113 -78 227 -94 51 -7 98 -16 104 -19 7 -4 14 -3 18 3 3 5 4 10 2 10 -35 0 -239 46 -265 59 -60 31 -103 84 -128 158 -13 37 -24 60 -24 50z"/>
 <path d="M727 1825 c-9 -19 -15 -35 -12 -35 7 0 37 61 33 66 -3 2 -12 -12 -21 -31z"/>
 <path d="M1271 1810 c12 -26 100 -150 106 -150 6 0 -15 34 -54 87 -21 28 -44 59 -51 70 -10 15 -11 14 -1 -7z"/>
 <path d="M693 1768 c-46 -60 -66 -91 -56 -84 13 7 77 96 70 96 -3 0 -9 -6 -14 -12z"/>
 <path d="M866 1314 c-21 -21 -20 -27 10 -64 27 -31 73 -60 96 -60 7 0 -7 10 -32 21 -43 20 -44 21 -25 35 19 15 19 15 -7 9 -21 -5 -29 -2 -39 16 -10 20 -9 25 11 41 12 10 18 18 12 18 -6 0 -18 -7 -26 -16z"/>
 <path d="M970 1306 c14 -8 27 -12 29 -10 6 6 -1 11 -29 18 l-25 7 25 -15z"/>
 <path d="M1119 1283 c-1 -5 -2 -15 -3 -23 0 -8 -9 -14 -20 -13 -13 1 -15 -2 -7 -10 8 -8 6 -16 -7 -30 -16 -19 -16 -20 5 -8 26 13 32 22 43 61 5 18 5 30 -1 30 -5 0 -10 -3 -10 -7z"/>
 <path d="M711 997 c-40 -14 -67 -49 -75 -97 l-6 -35 15 40 c22 56 46 76 96 82 62 7 122 -12 160 -50 23 -22 29 -25 21 -10 -19 34 -66 62 -123 73 -28 6 -52 10 -53 9 0 0 -16 -5 -35 -12z"/>
 <path d="M1163 982 c-32 -17 -69 -59 -61 -68 3 -2 10 7 17 20 18 33 52 46 119 47 41 0 51 3 37 9 -32 14 -78 10 -112 -8z"/>
 <path d="M1370 897 c15 -41 12 -68 -10 -112 -25 -49 -18 -59 9 -14 25 40 27 107 6 135 -14 18 -14 17 -5 -9z"/>
 <path d="M1092 860 c0 -19 2 -27 5 -17 2 9 2 25 0 35 -3 9 -5 1 -5 -18z"/>
 <path d="M638 842 c-4 -12 -3 -22 0 -22 4 0 15 -20 25 -44 23 -55 42 -72 100 -90 44 -13 50 -13 89 8 40 20 88 75 88 100 0 6 -10 -6 -22 -27 -29 -49 -94 -82 -145 -72 -48 9 -99 62 -116 122 -11 38 -15 43 -19 25z"/>
 <path d="M1100 812 c0 -29 52 -102 74 -102 6 0 -2 12 -18 26 -15 15 -34 41 -42 58 -7 17 -13 25 -14 18z"/>
 </g>

</svg>