<!DOCTYPE svg PUBLIC "-//W3C//DTD SVG 20010904//EN" "http://www.w3.org/TR/2001/REC-SVG-20010904/DTD/svg10.dtd">
<svg version="1.0" xmlns="http://www.w3.org/2000/svg" width="300px" height="245px" viewBox="0 0 3000 2450" preserveAspectRatio="xMidYMid meet">
<g id="layer101" fill="#efefef" stroke="none">
 <path d="M0 1225 l0 -1225 1500 0 1500 0 0 1225 0 1225 -1500 0 -1500 0 0 -1225z"/>
 </g>
<g id="layer102" fill="#9d9d9d" stroke="none">
 <path d="M133 2433 c-20 -14 -23 -24 -23 -87 0 -39 4 -120 9 -181 5 -60 15 -202 22 -315 6 -113 16 -212 21 -220 8 -15 6 61 -9 325 -10 177 -5 465 8 481 15 19 -1 17 -28 -3z"/>
 <path d="M2865 2430 c3 -5 1 -143 -4 -307 -6 -168 -6 -313 -2 -333 8 -31 9 -28 11 30 1 36 3 72 4 80 2 8 7 67 10 130 4 63 11 173 16 245 7 113 6 132 -7 147 -17 19 -38 25 -28 8z"/>
 <path d="M275 2351 c3 -5 5 -139 6 -298 0 -158 1 -376 2 -483 1 -191 -1 -534 -4 -677 -2 -72 -2 -73 -29 -73 -27 0 -59 -24 -43 -33 8 -4 164 5 373 22 161 13 531 15 1431 9 l727 -4 32 -28 c24 -20 36 -24 44 -16 8 8 0 22 -31 51 l-43 40 -5 92 c-10 154 -12 692 -6 1057 3 190 6 346 5 348 -1 3 -26 -67 -40 -113 -6 -20 -17 -31 -31 -33 -18 -3 -28 8 -52 57 -17 33 -36 63 -42 66 -7 5 -7 0 1 -16 9 -17 11 -57 6 -153 -4 -72 -9 -284 -11 -471 -4 -407 -16 -657 -31 -643 -19 20 -43 656 -36 988 4 163 -3 244 -19 235 -13 -9 -11 2 8 38 13 26 13 30 1 20 -8 -7 -23 -32 -33 -55 -20 -46 -43 -78 -56 -78 -5 0 -24 25 -44 55 -19 30 -37 55 -40 55 -4 0 -3 -5 1 -12 18 -28 -22 -957 -42 -977 -9 -9 -14 9 -25 99 -12 100 -7 870 6 891 4 6 -2 5 -14 -3 -11 -7 -31 -32 -43 -55 -29 -54 -47 -62 -73 -28 -11 14 -32 40 -47 58 l-26 32 5 -27 c8 -41 -19 -922 -34 -1133 l-8 -110 -7 205 c-4 113 -8 273 -8 355 0 83 -5 252 -11 376 -6 125 -10 248 -7 273 l3 47 -44 -51 c-50 -58 -57 -57 -97 22 -13 26 -26 48 -29 48 -2 0 -1 -152 3 -337 15 -705 13 -793 -13 -793 -7 0 -15 -6 -18 -12 -6 -17 -36 20 -37 44 0 9 -4 18 -8 20 -13 5 -23 118 -11 118 9 0 7 314 -4 700 -2 52 0 139 3 192 6 110 -2 113 -44 18 -15 -33 -32 -62 -38 -66 -11 -7 -58 38 -88 84 -13 21 -15 -38 -18 -565 -2 -349 -7 -589 -13 -591 -5 -2 -9 -15 -9 -28 0 -33 -16 -30 -24 4 -10 46 -27 763 -24 990 l3 213 -50 -57 c-48 -53 -51 -55 -66 -37 -9 10 -23 32 -32 48 -8 17 -25 39 -38 50 l-23 20 22 -29 c16 -21 19 -33 12 -46 -6 -11 -9 -92 -8 -187 3 -230 -13 -802 -22 -808 -4 -3 -7 -21 -6 -40 1 -19 -2 -35 -7 -35 -5 0 -6 -10 -2 -22 5 -19 4 -20 -4 -7 -18 28 -29 143 -37 369 -4 118 -9 244 -10 280 -2 36 -7 153 -10 261 -5 172 -4 200 11 229 9 18 12 30 7 26 -5 -3 -20 -27 -32 -53 -39 -85 -62 -88 -111 -17 -16 24 -33 44 -37 44 -4 0 -7 -262 -7 -583 0 -520 -2 -587 -17 -627 l-17 -45 -1 100 c-1 55 -3 111 -5 125 -2 14 -4 81 -5 150 -1 69 -6 166 -11 215 -6 50 -12 180 -14 290 -2 110 -5 240 -6 289 l-3 88 -20 -26 c-12 -14 -30 -38 -42 -53 l-21 -27 -24 25 c-13 14 -30 34 -37 45 -10 15 -12 15 -8 2 3 -10 1 -20 -4 -23 -6 -3 -8 -64 -5 -143 5 -177 6 -328 3 -698 -3 -271 -5 -302 -20 -318 -10 -10 -18 -22 -18 -27 0 -24 -18 -4 -30 33 -10 32 -14 147 -16 463 -4 632 -3 738 2 749 3 6 -5 -2 -18 -19 -12 -16 -36 -43 -52 -60 l-29 -29 -21 27 c-26 35 -83 98 -67 75 10 -13 10 -22 1 -39 -8 -15 -11 -71 -9 -178 5 -201 4 -337 -4 -651 -8 -276 -15 -377 -26 -363 -5 4 -18 39 -30 76 -21 63 -22 85 -22 300 1 128 3 252 5 277 2 25 8 131 14 235 10 191 7 280 -10 302 -5 7 -7 18 -3 25 4 7 -3 2 -14 -12 -11 -14 -21 -27 -21 -30 0 -3 -9 -11 -21 -18 -18 -12 -24 -11 -45 9 -13 12 -24 30 -24 40 0 19 -28 89 -36 89 -3 0 -3 -4 1 -9z"/>
 <path d="M775 2300 c3 -5 8 -10 11 -10 3 0 2 5 -1 10 -3 6 -8 10 -11 10 -3 0 -2 -4 1 -10z"/>
 <path d="M2852 1680 c0 -19 2 -27 5 -17 2 9 2 25 0 35 -3 9 -5 1 -5 -18z"/>
 <path d="M160 1600 c0 -7 3 -10 7 -7 3 4 3 10 0 14 -4 3 -7 0 -7 -7z"/>
 <path d="M160 1540 c0 -7 3 -10 7 -7 3 4 3 10 0 14 -4 3 -7 0 -7 -7z"/>
 <path d="M1983 733 c4 -3 10 -3 14 0 3 4 0 7 -7 7 -7 0 -10 -3 -7 -7z"/>
 <path d="M1315 710 c3 -5 11 -10 16 -10 6 0 7 5 4 10 -3 6 -11 10 -16 10 -6 0 -7 -4 -4 -10z"/>
 <path d="M1363 703 c4 -3 10 -3 14 0 3 4 0 7 -7 7 -7 0 -10 -3 -7 -7z"/>
 <path d="M1397 695 c-14 -7 -71 -11 -147 -10 -503 7 -635 6 -638 -5 -4 -12 -48 -33 -72 -35 -9 0 -15 -9 -14 -22 0 -17 -5 -22 -20 -20 -12 1 -20 -3 -19 -9 3 -14 -136 -24 -182 -14 l-31 7 1 -81 c2 -85 32 -226 87 -403 l31 -103 1147 0 1147 0 12 57 c8 42 18 63 39 79 26 21 26 23 9 41 -21 24 -21 60 -2 183 10 60 21 99 31 107 11 8 13 16 6 28 -5 9 -7 40 -5 68 l4 52 -20 -23 c-12 -14 -25 -20 -32 -16 -7 4 -9 3 -6 -4 6 -8 -97 -10 -210 -3 -7 1 -13 8 -13 16 0 13 -12 19 -32 16 -4 0 -18 3 -31 8 -14 5 -59 11 -100 12 -53 2 -78 7 -82 17 -3 7 -9 10 -15 7 -6 -3 -12 0 -15 7 -4 9 -22 13 -58 11 -63 -1 -139 14 -149 30 -10 16 -590 18 -621 2z m51 -12 c-10 -2 -28 -2 -40 0 -13 2 -5 4 17 4 22 1 32 -1 23 -4z m90 0 c-10 -2 -28 -2 -40 0 -13 2 -5 4 17 4 22 1 32 -1 23 -4z m929 -100 c-4 -3 -10 -3 -14 0 -3 4 0 7 7 7 7 0 10 -3 7 -7z"/>
 </g>
<g id="layer103" fill="#b6b6b6" stroke="none">
 <path d="M133 2433 c-20 -14 -23 -24 -23 -87 0 -39 4 -120 9 -181 5 -60 15 -202 22 -315 6 -113 16 -212 21 -220 8 -15 6 61 -9 325 -10 177 -5 465 8 481 15 19 -1 17 -28 -3z"/>
 <path d="M2865 2430 c3 -5 1 -143 -4 -307 -6 -168 -6 -313 -2 -333 8 -31 9 -28 11 30 1 36 3 72 4 80 2 8 7 67 10 130 4 63 11 173 16 245 7 113 6 132 -7 147 -17 19 -38 25 -28 8z"/>
 <path d="M275 2351 c3 -5 5 -139 6 -298 0 -158 1 -376 2 -483 1 -191 -1 -534 -4 -677 -2 -72 -2 -73 -29 -73 -27 0 -59 -24 -43 -33 8 -4 164 5 373 22 161 13 531 15 1431 9 l727 -4 32 -28 c24 -20 36 -24 44 -16 8 8 0 22 -31 51 l-43 40 -5 92 c-10 154 -12 692 -6 1057 3 190 6 346 5 348 -1 3 -26 -67 -40 -113 -6 -20 -17 -31 -31 -33 -18 -3 -28 8 -52 57 -17 33 -36 63 -42 66 -7 5 -7 0 1 -16 9 -17 11 -57 6 -153 -4 -72 -9 -284 -11 -471 -4 -407 -16 -657 -31 -643 -19 20 -43 656 -36 988 4 163 -3 244 -19 235 -13 -9 -11 2 8 38 13 26 13 30 1 20 -8 -7 -23 -32 -33 -55 -20 -46 -43 -78 -56 -78 -5 0 -24 25 -44 55 -19 30 -37 55 -40 55 -4 0 -3 -5 1 -12 18 -28 -22 -957 -42 -977 -9 -9 -14 9 -25 99 -12 100 -7 870 6 891 4 6 -2 5 -14 -3 -11 -7 -31 -32 -43 -55 -29 -54 -47 -62 -73 -28 -11 14 -32 40 -47 58 l-26 32 5 -27 c8 -41 -19 -922 -34 -1133 l-8 -110 -7 205 c-4 113 -8 273 -8 355 0 83 -5 252 -11 376 -6 125 -10 248 -7 273 l3 47 -44 -51 c-50 -58 -57 -57 -97 22 -13 26 -26 48 -29 48 -2 0 -1 -152 3 -337 15 -705 13 -793 -13 -793 -7 0 -15 -6 -18 -12 -6 -17 -36 20 -37 44 0 9 -4 18 -8 20 -13 5 -23 118 -11 118 9 0 7 314 -4 700 -2 52 0 139 3 192 6 110 -2 113 -44 18 -15 -33 -32 -62 -38 -66 -11 -7 -58 38 -88 84 -13 21 -15 -38 -18 -565 -2 -349 -7 -589 -13 -591 -5 -2 -9 -15 -9 -28 0 -33 -16 -30 -24 4 -10 46 -27 763 -24 990 l3 213 -50 -57 c-48 -53 -51 -55 -66 -37 -9 10 -23 32 -32 48 -8 17 -25 39 -38 50 l-23 20 22 -29 c16 -21 19 -33 12 -46 -6 -11 -9 -92 -8 -187 3 -230 -13 -802 -22 -808 -4 -3 -7 -21 -6 -40 1 -19 -2 -35 -7 -35 -5 0 -6 -10 -2 -22 5 -19 4 -20 -4 -7 -18 28 -29 143 -37 369 -4 118 -9 244 -10 280 -2 36 -7 153 -10 261 -5 172 -4 200 11 229 9 18 12 30 7 26 -5 -3 -20 -27 -32 -53 -39 -85 -62 -88 -111 -17 -16 24 -33 44 -37 44 -4 0 -7 -262 -7 -583 0 -520 -2 -587 -17 -627 l-17 -45 -1 100 c-1 55 -3 111 -5 125 -2 14 -4 81 -5 150 -1 69 -6 166 -11 215 -6 50 -12 180 -14 290 -2 110 -5 240 -6 289 l-3 88 -20 -26 c-12 -14 -30 -38 -42 -53 l-21 -27 -24 25 c-13 14 -30 34 -37 45 -10 15 -12 15 -8 2 3 -10 1 -20 -4 -23 -6 -3 -8 -64 -5 -143 5 -177 6 -328 3 -698 -3 -271 -5 -302 -20 -318 -10 -10 -18 -22 -18 -27 0 -24 -18 -4 -30 33 -10 32 -14 147 -16 463 -4 632 -3 738 2 749 3 6 -5 -2 -18 -19 -12 -16 -36 -43 -52 -60 l-29 -29 -21 27 c-26 35 -83 98 -67 75 10 -13 10 -22 1 -39 -8 -15 -11 -71 -9 -178 5 -201 4 -337 -4 -651 -8 -276 -15 -377 -26 -363 -5 4 -18 39 -30 76 -21 63 -22 85 -22 300 1 128 3 252 5 277 2 25 8 131 14 235 10 191 7 280 -10 302 -5 7 -7 18 -3 25 4 7 -3 2 -14 -12 -11 -14 -21 -27 -21 -30 0 -3 -9 -11 -21 -18 -18 -12 -24 -11 -45 9 -13 12 -24 30 -24 40 0 19 -28 89 -36 89 -3 0 -3 -4 1 -9z m69 -175 c-1 -17 -3 -65 -4 -106 l-3 -75 -8 75 c-20 191 -20 175 -1 155 9 -10 16 -32 16 -49z m2347 -123 c-3 -87 -6 -144 -8 -128 -24 233 -25 268 -12 276 8 5 16 9 19 9 3 0 3 -71 1 -157z"/>
 <path d="M775 2300 c3 -5 8 -10 11 -10 3 0 2 5 -1 10 -3 6 -8 10 -11 10 -3 0 -2 -4 1 -10z"/>
 <path d="M2852 1680 c0 -19 2 -27 5 -17 2 9 2 25 0 35 -3 9 -5 1 -5 -18z"/>
 <path d="M160 1600 c0 -7 3 -10 7 -7 3 4 3 10 0 14 -4 3 -7 0 -7 -7z"/>
 <path d="M160 1540 c0 -7 3 -10 7 -7 3 4 3 10 0 14 -4 3 -7 0 -7 -7z"/>
 <path d="M1983 733 c4 -3 10 -3 14 0 3 4 0 7 -7 7 -7 0 -10 -3 -7 -7z"/>
 <path d="M1315 710 c3 -5 11 -10 16 -10 6 0 7 5 4 10 -3 6 -11 10 -16 10 -6 0 -7 -4 -4 -10z"/>
 <path d="M1363 703 c4 -3 10 -3 14 0 3 4 0 7 -7 7 -7 0 -10 -3 -7 -7z"/>
 <path d="M1397 695 c-14 -7 -71 -11 -147 -10 -503 7 -635 6 -638 -5 -4 -12 -48 -33 -72 -35 -9 0 -15 -9 -14 -22 0 -17 -5 -22 -20 -20 -12 1 -20 -3 -19 -9 3 -14 -136 -24 -182 -14 l-31 7 1 -81 c2 -85 32 -226 87 -403 l31 -103 1147 0 1147 0 12 57 c8 42 18 63 39 79 26 21 26 23 9 41 -21 24 -21 60 -2 183 10 60 21 99 31 107 11 8 13 16 6 28 -5 9 -7 40 -5 68 l4 52 -20 -23 c-12 -14 -25 -20 -32 -16 -7 4 -9 3 -6 -4 6 -8 -97 -10 -210 -3 -7 1 -13 8 -13 16 0 13 -12 19 -32 16 -4 0 -18 3 -31 8 -14 5 -59 11 -100 12 -53 2 -78 7 -82 17 -3 7 -9 10 -15 7 -6 -3 -12 0 -15 7 -4 9 -22 13 -58 11 -63 -1 -139 14 -149 30 -10 16 -590 18 -621 2z m51 -12 c-10 -2 -28 -2 -40 0 -13 2 -5 4 17 4 22 1 32 -1 23 -4z m90 0 c-10 -2 -28 -2 -40 0 -13 2 -5 4 17 4 22 1 32 -1 23 -4z m929 -100 c-4 -3 -10 -3 -14 0 -3 4 0 7 7 7 7 0 10 -3 7 -7z"/>
 </g>
<g id="layer104" fill="#c0c1c2" stroke="none">
 <path d="M133 2433 c-20 -14 -23 -24 -23 -87 0 -39 4 -120 9 -181 5 -60 15 -202 22 -315 6 -113 16 -212 21 -220 8 -15 6 61 -9 325 -10 177 -5 465 8 481 15 19 -1 17 -28 -3z"/>
 <path d="M2865 2430 c3 -5 1 -143 -4 -307 -6 -168 -6 -313 -2 -333 8 -31 9 -28 11 30 1 36 3 72 4 80 2 8 7 67 10 130 4 63 11 173 16 245 7 113 6 132 -7 147 -17 19 -38 25 -28 8z"/>
 <path d="M275 2351 c3 -5 5 -139 6 -298 0 -158 1 -376 2 -483 1 -191 -1 -534 -4 -677 -2 -72 -2 -73 -29 -73 -27 0 -59 -24 -43 -33 8 -4 164 5 373 22 161 13 531 15 1431 9 l727 -4 32 -28 c24 -20 36 -24 44 -16 8 8 0 22 -31 51 l-43 40 -5 92 c-10 154 -12 692 -6 1057 3 190 6 346 5 348 -2 4 -32 -82 -38 -111 -4 -16 -16 -32 -29 -37 -14 -5 -16 -9 -6 -9 8 -1 20 4 25 9 8 8 11 -66 12 -236 1 -216 0 -244 -13 -234 -12 10 -15 9 -15 -6 -1 -12 -6 -6 -16 15 -11 27 -15 85 -17 252 -1 122 -6 215 -11 212 -5 -3 -6 0 -4 8 6 16 -35 104 -53 114 -7 5 -7 0 1 -16 9 -17 11 -57 6 -153 -4 -72 -9 -284 -11 -471 -4 -407 -16 -657 -31 -643 -19 20 -43 656 -36 988 4 163 -3 244 -19 235 -13 -9 -11 2 8 38 13 26 13 30 1 20 -8 -7 -23 -32 -33 -55 -20 -46 -43 -78 -56 -78 -5 0 -24 25 -44 55 -19 30 -37 55 -40 55 -4 0 -3 -5 1 -12 18 -28 -22 -957 -42 -977 -9 -9 -14 9 -25 99 -12 100 -7 870 6 891 4 6 -2 5 -14 -3 -11 -7 -31 -32 -43 -55 -29 -54 -47 -62 -73 -28 -11 14 -32 40 -47 58 l-26 32 5 -27 c8 -41 -19 -922 -34 -1133 l-8 -110 -7 205 c-4 113 -8 273 -8 355 0 83 -5 252 -11 376 -6 125 -10 248 -7 273 l3 47 -44 -51 c-50 -58 -57 -57 -97 22 -13 26 -26 48 -29 48 -2 0 -1 -152 3 -337 15 -705 13 -793 -13 -793 -7 0 -15 -6 -18 -12 -6 -17 -36 20 -37 44 0 9 -4 18 -8 20 -13 5 -23 118 -11 118 9 0 7 314 -4 700 -2 52 0 139 3 192 6 110 -2 113 -44 18 -15 -33 -32 -62 -38 -66 -11 -7 -58 38 -88 84 -13 21 -15 -38 -18 -565 -2 -349 -7 -589 -13 -591 -5 -2 -9 -15 -9 -28 0 -33 -16 -30 -24 4 -10 46 -27 763 -24 990 l3 213 -50 -57 c-48 -53 -51 -55 -66 -37 -9 10 -23 32 -32 48 -8 17 -25 39 -38 50 l-23 20 22 -29 c16 -21 19 -33 12 -46 -6 -11 -9 -92 -8 -187 3 -230 -13 -802 -22 -808 -4 -3 -7 -21 -6 -40 1 -19 -2 -35 -7 -35 -5 0 -6 -10 -2 -22 5 -19 4 -20 -4 -7 -18 28 -29 143 -37 369 -4 118 -9 244 -10 280 -2 36 -7 153 -10 261 -5 172 -4 200 11 229 9 18 12 30 7 26 -5 -3 -21 -30 -36 -61 -24 -51 -35 -61 -61 -55 -5 1 -15 3 -22 3 -7 0 -10 3 -8 7 5 8 -43 80 -53 80 -4 0 -7 -262 -7 -583 0 -520 -2 -587 -17 -627 l-17 -45 -1 100 c-1 55 -3 111 -5 125 -2 14 -4 81 -5 150 -1 69 -6 166 -11 215 -6 50 -12 180 -14 290 -2 110 -5 240 -6 289 l-3 88 -20 -26 c-12 -14 -30 -38 -42 -53 l-21 -27 -24 25 c-13 14 -30 34 -37 45 -10 15 -12 15 -8 2 3 -10 1 -20 -4 -23 -6 -3 -8 -64 -5 -143 5 -177 6 -328 3 -698 -3 -271 -5 -302 -20 -318 -10 -10 -18 -22 -18 -27 0 -24 -18 -4 -30 33 -10 32 -14 147 -16 463 -4 632 -3 738 2 749 3 6 -5 -2 -18 -19 -12 -16 -36 -43 -52 -60 l-29 -29 -21 27 c-26 35 -83 98 -67 75 10 -13 10 -22 1 -39 -8 -15 -11 -71 -9 -178 5 -201 4 -337 -4 -651 -8 -276 -15 -377 -26 -363 -5 4 -18 39 -30 76 -21 63 -22 85 -22 300 1 128 3 252 5 277 2 25 8 131 14 235 10 191 7 280 -10 302 -5 7 -7 18 -3 25 4 7 -1 4 -9 -7 -9 -11 -26 -31 -38 -44 -18 -20 -19 -23 -5 -18 13 5 17 1 18 -21 3 -52 -3 -217 -8 -237 -3 -11 -9 -45 -13 -76 -4 -30 -12 -64 -17 -75 -6 -10 -16 -43 -23 -72 -21 -91 -43 -75 -31 24 3 32 6 155 5 272 l-2 214 21 -19 c21 -17 21 -17 0 8 -13 14 -23 32 -23 41 0 19 -28 88 -36 88 -3 0 -3 -4 1 -9z m822 -218 c-4 -3 -10 -3 -14 0 -3 4 0 7 7 7 7 0 10 -3 7 -7z"/>
 <path d="M775 2300 c3 -5 8 -10 11 -10 3 0 2 5 -1 10 -3 6 -8 10 -11 10 -3 0 -2 -4 1 -10z"/>
 <path d="M2852 1680 c0 -19 2 -27 5 -17 2 9 2 25 0 35 -3 9 -5 1 -5 -18z"/>
 <path d="M160 1600 c0 -7 3 -10 7 -7 3 4 3 10 0 14 -4 3 -7 0 -7 -7z"/>
 <path d="M160 1540 c0 -7 3 -10 7 -7 3 4 3 10 0 14 -4 3 -7 0 -7 -7z"/>
 <path d="M1983 733 c4 -3 10 -3 14 0 3 4 0 7 -7 7 -7 0 -10 -3 -7 -7z"/>
 <path d="M1315 710 c3 -5 11 -10 16 -10 6 0 7 5 4 10 -3 6 -11 10 -16 10 -6 0 -7 -4 -4 -10z"/>
 <path d="M1363 703 c4 -3 10 -3 14 0 3 4 0 7 -7 7 -7 0 -10 -3 -7 -7z"/>
 <path d="M1397 695 c-14 -7 -71 -11 -147 -10 -503 7 -635 6 -638 -5 -4 -12 -48 -33 -72 -35 -9 0 -15 -9 -14 -22 0 -17 -5 -22 -20 -20 -12 1 -20 -3 -19 -9 3 -14 -136 -24 -182 -14 l-31 7 1 -81 c2 -85 32 -226 87 -403 l31 -103 1147 0 1147 0 12 57 c8 42 18 63 39 79 26 21 26 23 9 41 -21 24 -21 60 -2 183 10 60 21 99 31 107 11 8 13 16 6 28 -5 9 -7 40 -5 68 l4 52 -20 -23 c-12 -14 -25 -20 -32 -16 -7 4 -9 3 -6 -4 6 -8 -97 -10 -210 -3 -7 1 -13 8 -13 16 0 13 -12 19 -32 16 -4 0 -18 3 -31 8 -14 5 -59 11 -100 12 -53 2 -78 7 -82 17 -3 7 -9 10 -15 7 -6 -3 -12 0 -15 7 -4 9 -22 13 -58 11 -63 -1 -139 14 -149 30 -10 16 -590 18 -621 2z m51 -12 c-10 -2 -28 -2 -40 0 -13 2 -5 4 17 4 22 1 32 -1 23 -4z m90 0 c-10 -2 -28 -2 -40 0 -13 2 -5 4 17 4 22 1 32 -1 23 -4z m929 -100 c-4 -3 -10 -3 -14 0 -3 4 0 7 7 7 7 0 10 -3 7 -7z"/>
 </g>
<g id="layer105" fill="#c2c0c0" stroke="none">
 <path d="M133 2433 c-20 -14 -23 -24 -23 -87 0 -39 4 -120 9 -181 5 -60 15 -202 22 -315 6 -113 16 -212 21 -220 8 -15 6 61 -9 325 -10 177 -5 465 8 481 15 19 -1 17 -28 -3z"/>
 <path d="M2865 2430 c3 -5 1 -143 -4 -307 -6 -168 -6 -313 -2 -333 8 -31 9 -28 11 30 1 36 3 72 4 80 2 8 7 67 10 130 4 63 11 173 16 245 7 113 6 132 -7 147 -17 19 -38 25 -28 8z"/>
 <path d="M275 2351 c3 -5 5 -139 6 -298 0 -158 1 -376 2 -483 1 -191 -1 -534 -4 -677 -2 -72 -2 -73 -29 -73 -27 0 -59 -24 -43 -33 8 -4 164 5 373 22 161 13 531 15 1431 9 l727 -4 32 -28 c24 -20 36 -24 44 -16 8 8 0 22 -32 51 l-42 40 -7 112 c-8 126 -6 1339 2 1371 3 12 -3 5 -12 -14 -24 -52 -31 -242 -19 -533 3 -75 3 -77 -15 -61 -18 16 -19 16 -19 -1 0 -10 -11 4 -25 31 -14 27 -25 54 -24 59 0 6 4 1 9 -10 13 -31 13 67 -1 102 -7 19 -7 29 0 31 14 5 14 49 1 54 -5 2 -12 26 -16 53 -4 34 -3 46 4 36 7 -10 11 6 14 57 3 77 -8 86 -15 12 -3 -38 -4 -35 -5 18 -1 43 1 61 9 57 6 -4 -1 16 -15 43 -14 28 -31 54 -37 57 -7 5 -7 0 1 -16 9 -17 11 -57 6 -153 -4 -72 -9 -284 -11 -471 -4 -407 -16 -657 -31 -643 -19 20 -43 656 -36 988 4 163 -3 244 -19 235 -13 -9 -11 2 8 38 13 26 13 30 1 20 -8 -7 -23 -32 -33 -55 -20 -46 -43 -78 -56 -78 -5 0 -24 25 -44 55 -19 30 -37 55 -40 55 -4 0 -3 -5 1 -12 18 -28 -22 -957 -42 -977 -9 -9 -14 9 -25 99 -12 100 -7 870 6 891 4 6 -2 5 -13 -2 -19 -12 -62 -78 -63 -96 -1 -5 -4 -7 -8 -6 -7 2 -13 -38 -15 -104 0 -17 -5 -29 -9 -26 -5 3 -7 -5 -5 -18 2 -13 9 -23 15 -22 9 2 10 -4 4 -20 -10 -26 -27 -24 -23 3 2 11 -2 20 -7 20 -15 0 -14 33 2 49 7 9 7 11 1 8 -7 -4 -15 0 -18 9 -9 24 -7 44 5 44 5 0 8 -4 4 -9 -3 -5 0 -13 7 -17 7 -4 10 -4 6 1 -4 4 -3 15 2 24 5 11 5 23 -2 32 -8 11 -9 11 -4 -3 3 -10 1 -18 -4 -18 -13 0 -13 23 1 37 8 8 5 14 -10 23 -12 6 -19 15 -16 20 3 5 -8 24 -24 42 l-29 33 5 -27 c8 -41 -19 -922 -34 -1133 l-8 -110 -7 205 c-4 113 -8 273 -8 355 0 83 -5 252 -11 376 -6 125 -10 248 -7 273 l3 47 -41 -48 c-30 -34 -41 -55 -38 -71 3 -12 1 -30 -4 -39 -8 -13 -10 -11 -14 11 -3 15 -1 29 4 32 4 3 6 10 2 15 -3 5 -10 7 -15 3 -5 -3 -8 -2 -7 3 2 9 -50 113 -57 113 -2 0 -1 -152 3 -337 15 -705 13 -793 -13 -793 -7 0 -15 -6 -18 -12 -6 -17 -36 20 -37 44 0 9 -4 18 -8 20 -13 5 -23 118 -11 118 9 0 7 314 -4 700 -2 52 0 139 3 192 6 110 -2 113 -44 18 -15 -33 -32 -62 -38 -66 -11 -7 -58 38 -88 84 -13 21 -15 -38 -18 -565 -2 -349 -7 -589 -13 -591 -5 -2 -9 -15 -9 -28 0 -33 -16 -30 -24 4 -10 46 -27 763 -24 989 l3 212 -22 -21 c-13 -12 -23 -25 -23 -30 0 -5 -10 -19 -23 -31 -17 -16 -18 -18 -2 -7 19 15 20 14 3 -6 -10 -11 -18 -31 -19 -45 0 -22 -1 -22 -12 6 -18 46 -49 95 -81 129 -26 29 -27 29 -7 2 15 -21 18 -33 11 -46 -6 -11 -9 -92 -8 -187 3 -230 -13 -802 -22 -808 -4 -3 -7 -21 -6 -40 1 -19 -2 -35 -7 -35 -5 0 -6 -10 -2 -22 5 -19 4 -20 -4 -7 -18 28 -29 143 -37 369 -4 118 -9 244 -10 280 -2 36 -7 153 -10 261 -5 171 -4 200 11 230 l16 34 -20 -25 c-19 -23 -25 -42 -22 -62 0 -5 -4 -8 -10 -8 -5 0 -7 -4 -4 -10 3 -5 2 -10 -3 -10 -5 0 -13 -15 -17 -32 l-7 -33 -11 25 c-26 56 -57 46 -58 -19 l-1 -46 -8 55 c-9 57 -4 82 11 59 7 -11 9 -10 9 3 0 9 -8 22 -17 27 -10 6 -14 11 -9 11 9 0 -13 30 -23 30 -3 0 -6 -262 -6 -583 0 -520 -2 -587 -17 -627 l-17 -45 -1 100 c-1 55 -3 111 -5 125 -2 14 -4 81 -5 150 -1 69 -6 166 -11 215 -6 50 -12 180 -14 290 -8 379 -7 375 -23 363 -20 -17 -42 -64 -34 -73 4 -3 2 -6 -3 -5 -24 5 -27 -1 -9 -15 19 -15 19 -15 -1 -8 -11 3 -23 11 -26 16 -4 5 -6 -3 -6 -18 0 -19 2 -23 8 -14 6 11 11 11 20 2 18 -18 15 -160 -4 -181 -8 -9 -12 -23 -10 -29 6 -16 -13 -17 -22 -2 -4 6 2 21 14 33 l21 23 -25 13 c-14 7 -25 17 -25 22 0 5 5 6 10 3 6 -3 10 1 10 9 0 9 -4 16 -9 16 -4 0 -7 30 -6 67 2 51 -2 74 -17 100 -20 34 -35 45 -25 18 4 -8 2 -17 -3 -20 -6 -3 -8 -64 -5 -143 5 -177 6 -328 3 -698 -3 -271 -5 -302 -20 -318 -10 -10 -18 -22 -18 -27 0 -24 -18 -4 -30 33 -10 32 -14 147 -16 463 -4 644 -3 738 3 749 12 20 -8 -1 -45 -50 -20 -27 -44 -49 -52 -49 -8 0 -25 16 -38 35 -12 19 -33 44 -44 55 -13 12 -17 13 -9 3 10 -13 10 -22 1 -39 -8 -15 -11 -71 -9 -178 5 -201 4 -337 -4 -651 -8 -276 -15 -377 -26 -363 -5 4 -18 39 -30 76 -21 63 -22 85 -22 300 1 128 3 252 5 277 2 25 8 131 14 235 10 191 7 280 -10 302 -5 7 -7 18 -3 25 4 7 -3 2 -14 -12 -11 -14 -19 -30 -16 -37 2 -7 -2 -10 -9 -7 -8 3 -17 1 -21 -5 -3 -6 0 -9 7 -6 27 10 39 -12 42 -78 2 -40 -1 -70 -7 -74 -6 -4 -8 0 -4 10 3 9 2 27 -3 39 -6 17 -9 2 -10 -57 -1 -44 -4 -89 -7 -100 -2 -11 -8 -45 -13 -76 -4 -30 -13 -66 -19 -78 -7 -12 -10 -27 -7 -34 2 -7 8 -2 11 11 4 12 11 22 16 22 5 0 3 -11 -3 -25 -6 -14 -17 -25 -25 -25 -7 0 -13 -7 -13 -15 0 -8 4 -15 9 -15 5 0 7 -10 3 -22 -5 -21 -6 -21 -13 -2 -7 19 -8 19 -9 -1 -2 -11 -2 -24 -1 -30 1 -5 -7 1 -18 15 -13 16 -16 29 -10 36 5 6 9 27 9 45 -1 19 1 104 3 189 2 85 1 160 -2 165 -3 6 -6 38 -6 72 l0 62 25 -22 c24 -21 24 -21 -1 8 -15 17 -25 35 -23 41 5 11 -23 84 -32 84 -3 0 -3 -4 1 -9z m1671 -133 c4 -7 3 -8 -4 -4 -8 5 -10 -15 -5 -72 6 -82 -1 -152 -16 -152 -19 0 -15 199 3 229 9 14 13 14 22 -1z m-1319 -50 c1 -10 -2 -18 -7 -18 -5 0 -7 -7 -4 -15 4 -8 10 -13 14 -10 4 3 11 -2 14 -11 9 -25 7 -64 -4 -64 -5 0 -10 -8 -9 -17 0 -11 3 -13 6 -5 2 6 9 12 14 12 4 0 6 -7 3 -15 -4 -8 -14 -15 -23 -15 -14 0 -14 -2 -1 -10 13 -8 12 -10 -4 -10 -14 0 -17 -6 -14 -25 3 -13 0 -26 -6 -29 -7 -2 -3 -10 8 -18 10 -8 16 -20 12 -26 -3 -5 -1 -12 5 -14 18 -6 -7 -57 -28 -54 -23 4 -23 35 -1 61 17 20 17 21 -5 22 -17 2 -19 0 -7 -7 14 -9 12 -12 -6 -9 -4 0 -11 -5 -15 -13 -13 -19 -12 18 1 41 10 19 2 93 -9 86 -4 -2 -8 13 -8 33 -1 20 4 40 10 44 9 6 9 8 0 8 -14 0 8 47 29 62 9 7 6 8 -11 5 -22 -6 -23 -5 -5 13 24 22 50 22 51 -2z m511 -50 c-3 -18 -2 -45 3 -60 5 -17 4 -28 -2 -28 -6 0 -7 -5 -3 -11 13 -22 12 -88 -2 -100 -10 -8 -11 -16 -3 -30 6 -13 6 -19 0 -19 -6 0 -7 -8 -4 -17 6 -16 5 -16 -11 -4 -32 26 -48 71 -42 117 3 24 2 44 -2 44 -5 0 -8 23 -9 51 -1 64 13 51 20 -20 6 -59 12 -70 29 -53 6 6 10 41 9 86 -1 52 2 76 10 76 7 0 10 -12 7 -32z m-41 15 c-4 -3 -10 -3 -14 0 -3 4 0 7 7 7 7 0 10 -3 7 -7z m303 -34 c0 -11 -3 -18 -7 -16 -5 3 -8 -37 -8 -88 0 -53 4 -91 9 -87 5 3 6 0 2 -7 -5 -8 -12 -9 -19 -2 -19 15 -10 221 9 221 8 0 14 -9 14 -21z m-983 -111 c-2 -13 -4 -5 -4 17 -1 22 1 32 4 23 2 -10 2 -28 0 -40z m443 22 c0 -17 -26 -17 -27 1 -1 12 3 16 13 12 8 -3 14 -9 14 -13z m1767 -37 c-4 -3 -7 0 -7 7 0 7 3 10 7 7 3 -4 3 -10 0 -14z m-2207 -33 c0 -5 -4 -10 -10 -10 -5 0 -10 5 -10 10 0 6 5 10 10 10 6 0 10 -4 10 -10z m450 -4 c0 -2 3 -12 7 -22 5 -14 3 -16 -11 -11 -11 5 -15 3 -10 -5 4 -7 3 -8 -4 -4 -17 10 -15 46 3 46 8 0 15 -2 15 -4z m-462 -58 c2 -40 -11 -79 -21 -68 -7 8 5 110 13 110 4 0 7 -19 8 -42z m2219 -25 c-4 -3 -7 0 -7 7 0 7 3 10 7 7 3 -4 3 -10 0 -14z m-2047 -36 c0 -5 -4 -5 -10 -2 -5 3 -10 14 -10 23 0 15 2 15 10 2 5 -8 10 -19 10 -23z m1600 -27 c0 -5 -5 -10 -11 -10 -5 0 -7 5 -4 10 3 6 8 10 11 10 2 0 4 -4 4 -10z m471 -95 c1 -27 5 -63 9 -80 l7 -30 11 27 c6 15 13 38 15 52 1 14 7 29 11 33 5 4 5 -7 1 -25 -4 -19 -7 -57 -7 -85 0 -37 -2 -46 -8 -32 -7 17 -9 17 -9 3 -1 -23 -41 -24 -41 -2 0 9 5 12 13 8 9 -6 9 -4 -1 8 -8 10 -14 49 -15 97 -1 45 -6 81 -10 81 -5 0 -5 5 -1 11 11 19 24 -12 25 -66z m-2341 -45 c5 0 7 -14 5 -31 -5 -39 -15 -51 -15 -17 0 14 -2 38 -4 54 -2 16 -1 21 1 12 2 -10 8 -18 13 -18z m2380 -155 c5 3 10 -1 10 -10 0 -9 -5 -13 -11 -9 -7 4 -7 -1 1 -16 13 -23 6 -55 -9 -45 -6 3 -7 13 -4 22 5 12 3 14 -7 8 -10 -6 -12 -2 -8 18 3 15 0 28 -5 30 -6 2 -7 11 -3 23 8 18 8 18 17 -4 5 -13 13 -20 19 -17z m7 18 c-4 -3 -10 -3 -14 0 -3 4 0 7 7 7 7 0 10 -3 7 -7z"/>
 <path d="M1910 2090 c0 -11 2 -20 4 -20 2 0 6 9 9 20 3 11 1 20 -4 20 -5 0 -9 -9 -9 -20z"/>
 <path d="M583 2133 c4 -3 2 -12 -4 -20 -15 -17 -2 -17 16 1 14 14 10 26 -8 26 -6 0 -7 -3 -4 -7z"/>
 <path d="M580 2080 c0 -7 3 -10 7 -7 3 4 3 10 0 14 -4 3 -7 0 -7 -7z"/>
 <path d="M581 2046 c-10 -12 -11 -23 -4 -39 10 -21 10 -21 20 -2 6 11 7 28 4 38 -6 17 -8 18 -20 3z"/>
 <path d="M614 1858 c-4 -7 -3 -8 4 -4 12 7 16 16 8 16 -3 0 -8 -5 -12 -12z"/>
 <path d="M1109 1951 c7 -5 10 -14 7 -20 -4 -6 -3 -11 2 -11 17 0 21 28 6 34 -23 9 -31 7 -15 -3z"/>
 <path d="M1084 1928 c4 -25 23 -51 30 -40 3 5 -1 13 -10 16 -8 3 -13 10 -9 15 3 5 1 12 -4 15 -5 4 -8 0 -7 -6z"/>
 <path d="M775 2300 c3 -5 8 -10 11 -10 3 0 2 5 -1 10 -3 6 -8 10 -11 10 -3 0 -2 -4 1 -10z"/>
 <path d="M2686 2223 c-6 -14 -5 -15 5 -6 7 7 10 15 7 18 -3 3 -9 -2 -12 -12z"/>
 <path d="M2653 2203 c4 -3 10 -3 14 0 3 4 0 7 -7 7 -7 0 -10 -3 -7 -7z"/>
 <path d="M401 2184 c0 -11 3 -14 6 -6 3 7 2 16 -1 19 -3 4 -6 -2 -5 -13z"/>
 <path d="M862 2095 c0 -16 2 -22 5 -12 2 9 2 23 0 30 -3 6 -5 -1 -5 -18z"/>
 <path d="M2630 2040 c0 -7 3 -10 7 -7 3 4 3 10 0 14 -4 3 -7 0 -7 -7z"/>
 <path d="M2852 1680 c0 -19 2 -27 5 -17 2 9 2 25 0 35 -3 9 -5 1 -5 -18z"/>
 <path d="M160 1600 c0 -7 3 -10 7 -7 3 4 3 10 0 14 -4 3 -7 0 -7 -7z"/>
 <path d="M160 1540 c0 -7 3 -10 7 -7 3 4 3 10 0 14 -4 3 -7 0 -7 -7z"/>
 <path d="M1983 733 c4 -3 10 -3 14 0 3 4 0 7 -7 7 -7 0 -10 -3 -7 -7z"/>
 <path d="M1315 710 c3 -5 11 -10 16 -10 6 0 7 5 4 10 -3 6 -11 10 -16 10 -6 0 -7 -4 -4 -10z"/>
 <path d="M1363 703 c4 -3 10 -3 14 0 3 4 0 7 -7 7 -7 0 -10 -3 -7 -7z"/>
 <path d="M1397 695 c-14 -7 -71 -11 -147 -10 -503 7 -635 6 -638 -5 -4 -12 -48 -33 -72 -35 -9 0 -15 -9 -14 -22 0 -17 -5 -22 -20 -20 -12 1 -20 -3 -19 -9 3 -14 -136 -24 -182 -14 l-31 7 1 -81 c2 -85 32 -226 87 -402 27 -89 33 -102 53 -102 17 0 21 5 18 19 -7 26 -23 34 -24 12 0 -19 -38 103 -39 126 0 11 4 9 14 -4 8 -11 12 -23 10 -27 -3 -5 0 -8 5 -8 6 0 11 -7 11 -15 0 -8 3 -14 7 -14 28 5 35 -1 22 -18 -12 -15 -12 -16 1 -8 8 6 62 10 120 10 96 0 106 -2 112 -20 6 -20 6 -20 7 1 1 19 7 20 91 20 68 -1 87 -4 75 -12 -8 -6 -12 -14 -8 -17 9 -10 103 -8 103 1 0 5 -21 7 -47 6 -34 -3 -44 -1 -35 8 15 15 153 19 171 4 12 -9 13 -8 6 3 -6 11 -3 13 16 8 13 -4 27 -7 31 -7 4 0 5 -7 2 -15 -5 -12 1 -15 27 -14 24 1 27 3 12 6 -13 2 -23 11 -23 18 0 16 38 17 58 2 11 -8 11 -12 0 -18 -8 -6 0 -9 22 -8 30 0 32 2 14 9 -12 5 -24 12 -27 17 -7 11 244 11 261 0 7 -5 12 -4 12 3 0 6 5 8 10 5 18 -11 -1 -27 -26 -22 -12 2 -29 0 -36 -4 -8 -6 0 -9 23 -9 33 0 66 19 54 31 -2 3 91 5 207 4 137 0 213 -4 215 -10 2 -7 -18 -10 -52 -10 -30 1 -55 -2 -55 -7 0 -4 27 -8 60 -8 56 0 64 4 62 31 -1 7 276 4 284 -3 3 -4 18 -3 32 1 34 9 134 7 150 -3 7 -4 12 -3 12 3 0 5 28 9 65 8 36 -1 65 -5 65 -9 0 -5 -3 -8 -7 -9 -5 0 -18 -2 -30 -3 -44 -5 -37 -17 7 -14 32 2 45 7 45 18 0 8 6 15 13 14 6 -1 26 -2 44 -3 37 -1 32 -10 -14 -22 l-33 -8 35 2 c27 2 38 8 48 29 7 15 21 30 32 33 11 4 18 11 15 16 -4 5 -1 9 4 9 6 0 11 11 11 25 0 14 5 25 11 25 7 0 9 -12 5 -33 -3 -17 -9 -50 -13 -72 -5 -32 -8 -36 -14 -20 -7 19 -8 19 -8 -2 -1 -12 5 -24 12 -27 6 -2 3 -4 -8 -3 -11 1 -21 -2 -22 -8 -1 -5 8 -11 21 -12 21 -1 25 5 35 55 8 41 19 62 39 78 26 21 26 23 9 41 -21 24 -21 60 -2 183 10 60 21 99 31 107 11 8 13 16 6 28 -5 9 -7 40 -5 68 l4 52 -20 -23 c-12 -14 -25 -20 -32 -16 -7 4 -9 3 -6 -4 6 -8 -97 -10 -210 -3 -7 1 -13 8 -13 16 0 13 -12 19 -32 16 -4 0 -18 3 -31 8 -14 5 -59 11 -100 12 -53 2 -78 7 -82 17 -3 7 -9 10 -15 7 -6 -3 -12 0 -15 7 -4 9 -22 13 -58 11 -63 -1 -139 14 -149 30 -10 16 -590 18 -621 2z m51 -12 c-10 -2 -28 -2 -40 0 -13 2 -5 4 17 4 22 1 32 -1 23 -4z m90 0 c-10 -2 -28 -2 -40 0 -13 2 -5 4 17 4 22 1 32 -1 23 -4z m929 -100 c-4 -3 -10 -3 -14 0 -3 4 0 7 7 7 7 0 10 -3 7 -7z"/>
 <path d="M504 58 c-3 -5 -13 -7 -23 -3 -12 5 -13 4 -4 -6 10 -10 16 -9 29 2 13 11 18 11 21 2 6 -17 19 -17 26 0 5 14 -40 20 -49 5z"/>
 <path d="M1483 63 c4 -3 10 -3 14 0 3 4 0 7 -7 7 -7 0 -10 -3 -7 -7z"/>
 <path d="M2103 63 c-20 -7 -15 -19 7 -20 11 -1 20 2 20 7 0 12 -13 18 -27 13z"/>
 <path d="M2390 55 c-10 -13 -9 -15 11 -14 13 0 18 3 11 6 -6 2 -10 9 -6 14 9 15 -2 10 -16 -6z"/>
 <path d="M570 43 c0 -11 4 -11 20 -3 14 7 20 7 20 0 0 -5 -4 -10 -10 -10 -5 0 -10 -5 -10 -11 0 -8 5 -8 15 1 23 19 18 38 -10 38 -15 0 -25 -6 -25 -15z"/>
 <path d="M635 50 c-3 -5 1 -10 10 -10 9 0 13 5 10 10 -3 6 -8 10 -10 10 -2 0 -7 -4 -10 -10z"/>
 <path d="M695 50 c3 -5 14 -10 23 -10 15 0 15 2 2 10 -20 13 -33 13 -25 0z"/>
 <path d="M795 50 c-19 -8 -19 -9 3 -9 12 -1 22 4 22 9 0 6 -1 10 -2 9 -2 0 -12 -4 -23 -9z"/>
 <path d="M950 49 c0 -5 9 -9 20 -9 11 0 20 2 20 4 0 2 -9 6 -20 9 -11 3 -20 1 -20 -4z"/>
 <path d="M1006 51 c-3 -4 6 -8 20 -9 13 -1 24 0 24 2 0 7 -40 14 -44 7z"/>
 <path d="M1060 50 c0 -7 3 -10 7 -7 3 4 3 10 0 14 -4 3 -7 0 -7 -7z"/>
 <path d="M1230 50 c0 -7 3 -10 7 -7 3 4 3 10 0 14 -4 3 -7 0 -7 -7z"/>
 <path d="M1260 50 c0 -6 17 -10 37 -10 42 0 37 12 -7 17 -16 1 -30 -2 -30 -7z"/>
 <path d="M1340 50 c0 -5 5 -10 11 -10 5 0 7 5 4 10 -3 6 -8 10 -11 10 -2 0 -4 -4 -4 -10z"/>
 <path d="M1510 49 c0 -5 21 -9 47 -9 25 0 44 2 42 4 -10 8 -89 13 -89 5z"/>
 <path d="M1610 48 c0 -4 7 -8 15 -8 8 0 15 4 15 8 0 5 -7 9 -15 9 -8 0 -15 -4 -15 -9z"/>
 <path d="M1657 48 c2 -5 25 -8 50 -8 26 0 44 3 41 6 -9 8 -97 10 -91 2z"/>
 <path d="M1950 49 c-13 -9 -12 -10 3 -5 11 3 24 -2 34 -14 10 -11 22 -20 28 -20 5 0 3 5 -5 10 -12 8 -13 12 -2 19 10 6 8 10 -10 14 -30 9 -30 9 -48 -4z"/>
 <path d="M2036 48 c3 -4 12 -8 20 -8 8 0 14 4 14 8 0 4 -9 8 -19 8 -11 0 -17 -4 -15 -8z"/>
 <path d="M2244 49 c-3 -5 7 -9 22 -9 15 0 24 3 20 7 -11 11 -35 12 -42 2z"/>
 <path d="M753 43 c4 -3 10 -3 14 0 3 4 0 7 -7 7 -7 0 -10 -3 -7 -7z"/>
 <path d="M2153 43 c9 -2 25 -2 35 0 9 3 1 5 -18 5 -19 0 -27 -2 -17 -5z"/>
 <path d="M2318 43 c7 -3 16 -2 19 1 4 3 -2 6 -13 5 -11 0 -14 -3 -6 -6z"/>
 <path d="M2353 43 c4 -3 10 -3 14 0 3 4 0 7 -7 7 -7 0 -10 -3 -7 -7z"/>
 <path d="M520 20 c0 -5 5 -10 11 -10 5 0 7 5 4 10 -3 6 -8 10 -11 10 -2 0 -4 -4 -4 -10z"/>
 <path d="M557 19 c7 -7 15 -10 18 -7 3 3 -2 9 -12 12 -14 6 -15 5 -6 -5z"/>
 <path d="M647 19 c7 -7 15 -10 18 -7 3 3 -2 9 -12 12 -14 6 -15 5 -6 -5z"/>
 <path d="M760 20 c0 -6 7 -10 15 -10 8 0 15 2 15 4 0 2 -7 6 -15 10 -8 3 -15 1 -15 -4z"/>
 <path d="M1146 21 c-3 -4 6 -8 20 -9 13 -1 24 0 24 2 0 7 -40 14 -44 7z"/>
 <path d="M1420 20 c0 -7 3 -10 7 -7 3 4 3 10 0 14 -4 3 -7 0 -7 -7z"/>
 <path d="M1465 20 c3 -5 8 -10 11 -10 2 0 4 5 4 10 0 6 -5 10 -11 10 -5 0 -7 -4 -4 -10z"/>
 <path d="M1510 20 c0 -7 3 -10 7 -7 3 4 3 10 0 14 -4 3 -7 0 -7 -7z"/>
 <path d="M1590 20 c8 -5 20 -10 25 -10 6 0 3 5 -5 10 -8 5 -19 10 -25 10 -5 0 -3 -5 5 -10z"/>
 <path d="M1683 23 c4 -3 10 -3 14 0 3 4 0 7 -7 7 -7 0 -10 -3 -7 -7z"/>
 <path d="M1734 18 c-4 -7 -3 -8 4 -4 12 7 16 16 8 16 -3 0 -8 -5 -12 -12z"/>
 <path d="M1888 23 c7 -3 16 -2 19 1 4 3 -2 6 -13 5 -11 0 -14 -3 -6 -6z"/>
 <path d="M2080 20 c-23 -7 -23 -8 -3 -9 12 -1 25 4 28 9 3 6 5 10 3 9 -2 -1 -14 -5 -28 -9z"/>
 <path d="M2205 20 c3 -5 8 -10 11 -10 3 0 2 5 -1 10 -3 6 -8 10 -11 10 -3 0 -2 -4 1 -10z"/>
 <path d="M2235 20 c3 -5 8 -10 11 -10 3 0 2 5 -1 10 -3 6 -8 10 -11 10 -3 0 -2 -4 1 -10z"/>
 <path d="M2275 20 c-3 -5 -1 -10 4 -10 6 0 11 5 11 10 0 6 -2 10 -4 10 -3 0 -8 -4 -11 -10z"/>
 <path d="M2320 20 c-9 -6 -10 -10 -3 -10 6 0 15 5 18 10 8 12 4 12 -15 0z"/>
 <path d="M2375 20 c3 -5 8 -10 11 -10 3 0 2 5 -1 10 -3 6 -8 10 -11 10 -3 0 -2 -4 1 -10z"/>
 <path d="M2436 22 c-3 -5 1 -9 9 -9 8 0 15 4 15 9 0 10 -17 10 -24 0z"/>
 <path d="M1073 13 c9 -2 25 -2 35 0 9 3 1 5 -18 5 -19 0 -27 -2 -17 -5z"/>
 <path d="M2563 13 c4 -3 10 -3 14 0 3 4 0 7 -7 7 -7 0 -10 -3 -7 -7z"/>
 </g>
<g id="layer106" fill="#d4d4d4" stroke="none">
 <path d="M133 2433 c-20 -14 -23 -24 -23 -87 0 -39 4 -120 9 -181 5 -60 15 -202 22 -315 6 -113 16 -212 21 -220 8 -15 6 61 -9 325 -10 177 -5 465 8 481 15 19 -1 17 -28 -3z"/>
 <path d="M2865 2430 c3 -5 1 -143 -4 -307 -6 -168 -6 -313 -2 -333 8 -31 9 -28 11 30 1 36 3 72 4 80 2 8 7 67 10 130 4 63 11 173 16 245 7 113 6 132 -7 147 -17 19 -38 25 -28 8z"/>
 <path d="M275 2351 c3 -5 5 -139 6 -298 0 -158 1 -376 2 -483 1 -202 -1 -553 -4 -675 -3 -70 -3 -70 -33 -76 -18 -4 7 -7 60 -8 50 0 113 3 141 8 27 5 112 12 188 15 l140 5 -161 -13 c-88 -8 -174 -16 -190 -19 -16 -4 -73 -8 -126 -9 -54 -2 -94 -6 -90 -9 7 -6 142 1 372 20 161 13 531 15 1431 9 l727 -4 32 -28 c24 -20 36 -24 44 -16 8 8 0 22 -32 51 l-42 40 -7 112 c-8 126 -6 1339 2 1371 3 12 -3 5 -12 -14 -15 -31 -17 -85 -19 -469 -2 -269 -6 -437 -12 -443 -33 -33 -60 156 -73 504 -6 160 -9 301 -6 314 2 13 0 24 -6 24 -6 0 -8 3 -4 6 7 8 -18 60 -34 70 -7 4 -7 -2 1 -17 9 -17 11 -57 6 -153 -4 -72 -9 -284 -11 -471 -4 -407 -16 -657 -31 -643 -19 20 -43 656 -36 988 4 163 -3 244 -19 235 -13 -9 -11 2 8 38 13 26 13 30 1 20 -8 -7 -23 -32 -33 -55 -20 -46 -43 -78 -56 -78 -5 0 -24 25 -44 55 -19 30 -37 55 -40 55 -4 0 -3 -5 1 -12 18 -28 -22 -957 -42 -977 -9 -9 -14 9 -25 99 -12 100 -7 870 6 891 4 6 -2 5 -13 -2 -19 -12 -62 -78 -63 -96 -1 -5 -5 -7 -9 -6 -5 1 -8 -42 -8 -97 0 -55 -3 -104 -7 -110 -10 -17 -24 -2 -18 20 3 11 0 20 -6 20 -6 0 -12 12 -12 28 -2 86 0 114 11 127 9 11 7 16 -10 25 -11 6 -18 15 -15 20 3 5 -8 24 -24 42 l-29 33 5 -27 c8 -41 -19 -922 -34 -1133 l-8 -110 -7 205 c-4 113 -8 273 -8 355 0 83 -5 252 -11 376 -6 125 -10 247 -8 273 2 25 4 46 3 46 0 0 -20 -24 -44 -52 -24 -29 -34 -44 -22 -34 12 11 22 15 23 10 2 -36 -3 -193 -8 -211 -6 -27 -25 -31 -22 -5 2 9 -4 51 -11 92 -8 41 -13 81 -11 88 1 8 -4 21 -12 30 -8 10 -24 36 -36 60 -12 23 -23 42 -26 42 -2 0 -1 -152 3 -337 15 -705 13 -793 -13 -793 -7 0 -15 -6 -18 -12 -6 -17 -36 20 -37 44 0 9 -4 18 -8 20 -13 5 -23 118 -11 118 9 0 7 314 -4 700 -2 52 0 139 3 192 6 110 -2 113 -44 18 -15 -33 -32 -62 -38 -66 -11 -7 -58 38 -88 84 -13 21 -15 -38 -18 -565 -2 -349 -7 -589 -13 -591 -5 -2 -9 -15 -9 -28 0 -33 -16 -30 -24 4 -10 46 -27 763 -24 989 l3 212 -22 -21 c-13 -12 -23 -25 -23 -30 0 -5 -10 -19 -23 -31 -17 -16 -18 -18 -2 -7 19 15 20 14 3 -6 -10 -11 -18 -31 -19 -45 0 -22 -1 -22 -12 6 -18 46 -49 95 -81 129 -26 29 -27 29 -7 2 15 -21 18 -33 11 -46 -6 -11 -9 -92 -8 -187 3 -230 -13 -802 -22 -808 -4 -3 -7 -21 -6 -40 1 -19 -2 -35 -7 -35 -5 0 -6 -10 -2 -22 5 -19 4 -20 -4 -7 -18 28 -29 143 -37 369 -4 118 -9 244 -10 280 -2 36 -7 153 -10 261 -5 171 -4 200 11 230 l16 34 -20 -25 c-19 -23 -25 -42 -22 -62 0 -5 -4 -8 -10 -8 -5 0 -8 -4 -5 -9 4 -5 0 -11 -6 -13 -10 -4 -14 -44 -15 -149 -2 -79 -5 -157 -7 -174 -2 -16 -5 -36 -5 -44 -1 -20 -36 13 -50 47 -11 28 -31 318 -23 339 2 7 9 10 16 7 6 -3 2 2 -8 10 -11 9 -16 16 -12 16 5 0 3 7 -4 15 -7 8 -15 15 -19 15 -3 0 -6 -262 -6 -583 0 -520 -2 -587 -17 -627 l-17 -45 -1 100 c-1 55 -3 111 -5 125 -2 14 -4 81 -5 150 -1 69 -6 166 -11 215 -6 50 -12 180 -14 290 -7 334 -9 374 -16 369 -5 -2 -22 -26 -40 -51 -17 -26 -25 -42 -18 -36 21 17 17 -192 -4 -215 -8 -10 -12 -23 -10 -29 3 -7 0 -13 -6 -13 -21 0 -29 45 -27 155 2 93 0 115 -17 142 -19 34 -34 45 -24 18 4 -8 2 -17 -3 -20 -6 -3 -8 -64 -5 -143 5 -177 6 -328 3 -698 -3 -271 -5 -302 -20 -318 -10 -10 -18 -22 -18 -27 0 -24 -18 -4 -30 33 -10 32 -14 147 -16 463 -4 644 -3 738 3 749 12 20 -8 -1 -45 -50 -20 -27 -44 -49 -52 -49 -8 0 -25 16 -38 35 -12 19 -33 44 -44 55 -13 12 -17 13 -9 3 10 -13 10 -22 1 -39 -8 -15 -11 -71 -9 -178 5 -201 4 -337 -4 -651 -8 -276 -15 -377 -26 -363 -5 4 -18 39 -30 76 -21 63 -22 85 -22 300 1 128 3 252 5 277 2 25 8 131 14 235 10 191 7 280 -10 302 -5 7 -7 18 -3 25 4 7 -2 2 -13 -11 -18 -22 -18 -27 -5 -70 20 -64 0 -348 -28 -403 -10 -20 -30 -71 -44 -113 -13 -42 -28 -83 -33 -91 -16 -28 -23 88 -11 173 7 48 9 165 5 309 -4 205 -13 284 -31 284 -4 0 -4 -4 0 -9z m350 -169 c-2 -2 3 -21 10 -43 17 -48 22 -110 10 -129 -13 -20 -23 -129 -12 -133 4 -1 4 -14 -2 -29 -7 -20 -16 -26 -31 -23 -11 2 -20 -1 -20 -6 0 -6 -5 -7 -10 -4 -6 4 -10 41 -9 88 0 45 -2 104 -6 131 -5 32 -3 56 5 71 7 13 10 29 7 37 -6 18 21 47 43 45 11 -1 17 -3 15 -5z m768 -174 c-2 -62 -3 -115 -3 -117 0 -2 -6 1 -12 7 -18 14 -12 222 5 222 9 0 12 -30 10 -112z m-522 -75 c8 -46 6 -52 -12 -42 -23 12 -25 49 -4 49 8 0 16 -3 16 -7z m1309 -143 c0 -5 -5 -10 -11 -10 -5 0 -7 5 -4 10 3 6 8 10 11 10 2 0 4 -4 4 -10z m-892 -940 c20 0 33 -2 31 -4 -2 -3 -126 -7 -274 -9 -194 -3 -230 -2 -127 3 79 4 146 11 150 15 4 4 47 5 96 1 49 -3 105 -6 124 -6z m1257 -12 l200 5 33 -32 c44 -44 41 -51 -5 -11 l-37 33 -168 -6 c-184 -6 -658 3 -658 12 0 3 98 3 217 0 120 -3 308 -4 418 -1z m-886 -8 c-136 -4 -264 -4 -285 0 -22 4 89 7 246 7 l285 0 -246 -7z"/>
 <path d="M775 2300 c3 -5 8 -10 11 -10 3 0 2 5 -1 10 -3 6 -8 10 -11 10 -3 0 -2 -4 1 -10z"/>
 <path d="M2686 2223 c-6 -14 -5 -15 5 -6 7 7 10 15 7 18 -3 3 -9 -2 -12 -12z"/>
 <path d="M335 2220 c3 -5 8 -10 11 -10 3 0 2 5 -1 10 -3 6 -8 10 -11 10 -3 0 -2 -4 1 -10z"/>
 <path d="M374 2218 c-4 -7 -3 -8 4 -4 12 7 16 16 8 16 -3 0 -8 -5 -12 -12z"/>
 <path d="M2653 2203 c4 -3 10 -3 14 0 3 4 0 7 -7 7 -7 0 -10 -3 -7 -7z"/>
 <path d="M2852 1680 c0 -19 2 -27 5 -17 2 9 2 25 0 35 -3 9 -5 1 -5 -18z"/>
 <path d="M160 1600 c0 -7 3 -10 7 -7 3 4 3 10 0 14 -4 3 -7 0 -7 -7z"/>
 <path d="M160 1540 c0 -7 3 -10 7 -7 3 4 3 10 0 14 -4 3 -7 0 -7 -7z"/>
 <path d="M1983 733 c4 -3 10 -3 14 0 3 4 0 7 -7 7 -7 0 -10 -3 -7 -7z"/>
 <path d="M1315 710 c3 -5 11 -10 16 -10 6 0 7 5 4 10 -3 6 -11 10 -16 10 -6 0 -7 -4 -4 -10z"/>
 <path d="M1363 703 c4 -3 10 -3 14 0 3 4 0 7 -7 7 -7 0 -10 -3 -7 -7z"/>
 <path d="M1397 695 c-14 -7 -71 -11 -147 -10 -503 7 -635 6 -638 -5 -4 -12 -48 -33 -72 -35 -9 0 -15 -9 -14 -22 0 -17 -5 -22 -20 -20 -12 1 -20 -3 -19 -9 3 -14 -136 -24 -182 -14 l-31 7 1 -81 c3 -112 102 -506 128 -506 5 0 6 7 3 15 -14 37 -37 138 -33 148 2 7 10 1 17 -13 7 -14 24 -34 36 -45 23 -20 37 -20 1104 -19 1124 1 1130 1 1130 41 0 7 5 13 10 13 6 0 10 9 10 20 0 11 5 20 10 20 12 0 13 -24 1 -70 -15 -57 -20 -110 -12 -110 5 0 13 26 20 57 8 42 18 63 39 79 26 21 26 23 9 41 -21 24 -21 60 -2 183 10 60 21 99 31 107 11 8 13 16 6 28 -5 9 -7 40 -5 68 l4 52 -20 -23 c-12 -14 -25 -20 -32 -16 -7 4 -9 3 -6 -4 6 -8 -97 -10 -210 -3 -7 1 -13 8 -13 16 0 13 -12 19 -32 16 -4 0 -18 3 -31 8 -14 5 -59 11 -100 12 -53 2 -78 7 -82 17 -3 7 -9 10 -15 7 -6 -3 -12 0 -15 7 -4 9 -22 13 -58 11 -63 -1 -139 14 -149 30 -10 16 -590 18 -621 2z m51 -12 c-10 -2 -28 -2 -40 0 -13 2 -5 4 17 4 22 1 32 -1 23 -4z m90 0 c-10 -2 -28 -2 -40 0 -13 2 -5 4 17 4 22 1 32 -1 23 -4z m929 -100 c-4 -3 -10 -3 -14 0 -3 4 0 7 7 7 7 0 10 -3 7 -7z"/>
 </g>
<g id="layer107" fill="#e0e0e1" stroke="none">
 <path d="M133 2433 c-20 -14 -23 -24 -23 -87 0 -39 4 -120 9 -181 5 -60 15 -202 22 -315 6 -113 16 -212 21 -220 8 -15 6 61 -9 325 -10 177 -5 465 8 481 15 19 -1 17 -28 -3z"/>
 <path d="M2865 2430 c3 -5 1 -143 -4 -307 -6 -168 -6 -313 -2 -333 8 -31 9 -28 11 30 1 36 3 72 4 80 2 8 7 67 10 130 4 63 11 173 16 245 7 113 6 132 -7 147 -17 19 -38 25 -28 8z"/>
 <path d="M278 2330 c2 -17 8 -28 12 -25 9 6 2 43 -9 50 -4 2 -5 -9 -3 -25z"/>
 <path d="M2725 2343 c-4 -10 -9 -243 -11 -518 -3 -630 -8 -697 -47 -682 -23 9 -34 66 -42 207 -3 69 -8 132 -10 140 -9 37 -15 188 -21 485 -3 176 -7 321 -8 322 -8 8 -18 -291 -21 -602 -4 -407 -16 -657 -31 -643 -19 20 -43 656 -36 988 4 191 -1 235 -29 237 -10 1 -17 -2 -14 -8 4 -5 2 -9 -4 -9 -6 0 -8 -6 -5 -13 2 -7 -3 -21 -12 -32 -8 -11 -12 -13 -8 -5 5 10 4 12 -4 5 -6 -6 -8 -24 -3 -45 5 -26 13 -36 29 -38 22 -3 22 -5 16 -140 -3 -75 -11 -166 -19 -202 -7 -36 -17 -94 -20 -129 -4 -43 -12 -69 -23 -78 -26 -19 -32 -16 -32 22 0 19 -4 35 -9 35 -17 0 -22 75 -22 359 1 258 -1 290 -16 302 -14 12 -16 12 -8 -1 14 -23 -3 -561 -26 -845 -15 -176 -22 -182 -40 -35 -8 66 -10 212 -6 482 5 299 4 387 -6 391 -9 3 -11 -35 -9 -167 2 -94 -2 -220 -8 -281 -7 -60 -10 -141 -9 -180 2 -38 4 -121 4 -183 0 -101 -2 -115 -19 -128 -11 -7 -21 -12 -24 -10 -2 3 -7 29 -11 58 -7 62 -30 76 -48 28 -6 -16 -16 -30 -21 -30 -15 0 -25 132 -19 246 3 54 7 212 9 349 2 138 7 257 12 265 5 8 6 12 1 8 -4 -4 -14 0 -21 10 -11 15 -13 6 -14 -58 -1 -226 -24 -878 -38 -1065 l-7 -110 -7 205 c-4 113 -7 264 -8 335 0 240 -23 696 -34 691 -6 -2 -10 -7 -9 -12 6 -35 9 -650 3 -694 -4 -30 -8 -43 -9 -28 0 15 -5 30 -11 33 -5 3 -10 17 -10 31 0 25 -15 33 -22 12 -2 -7 -3 -43 -3 -80 4 -158 -30 -19 -44 182 -14 186 -19 500 -9 494 4 -3 3 7 -3 23 -6 15 -13 37 -15 47 -2 11 -8 24 -13 29 -7 7 -8 -108 -3 -329 15 -707 13 -794 -13 -794 -7 0 -15 -6 -18 -12 -6 -17 -36 20 -37 44 0 9 -4 18 -8 20 -13 5 -23 118 -11 118 9 0 7 314 -4 700 -2 52 0 139 3 192 4 76 2 94 -7 86 -7 -6 -10 -14 -7 -19 3 -5 0 -9 -5 -9 -6 0 -10 -3 -10 -7 4 -23 -2 -43 -11 -38 -7 4 -7 -3 0 -20 6 -15 8 -36 5 -48 -2 -12 -6 -62 -9 -112 -11 -209 -19 -268 -38 -287 -10 -10 -18 -33 -19 -50 0 -18 -3 -51 -7 -73 l-7 -40 -13 30 c-10 25 -20 301 -13 355 7 52 -9 230 -23 258 -9 18 -18 32 -19 32 -1 0 -3 -264 -5 -588 -2 -348 -7 -588 -13 -590 -5 -2 -9 -15 -9 -28 0 -33 -16 -30 -24 4 -10 46 -27 763 -24 989 3 181 1 210 -11 198 -11 -10 -14 -64 -17 -242 -4 -327 -20 -422 -76 -436 -12 -4 -23 -5 -24 -4 -1 1 -7 49 -12 107 -14 141 -14 487 -1 513 9 15 8 18 -2 12 -9 -6 -11 -3 -6 8 4 11 1 17 -8 17 -22 0 -26 -29 -23 -191 4 -207 -12 -801 -22 -814 -4 -5 -7 -25 -6 -43 0 -17 -3 -32 -7 -32 -5 0 -6 -10 -2 -22 5 -19 4 -20 -4 -7 -17 27 -29 142 -36 359 -8 248 -13 345 -19 430 -3 36 -6 121 -6 190 -1 87 -4 118 -11 102 -5 -13 -6 -95 -3 -185 7 -206 7 -197 -6 -362 -5 -77 -10 -162 -10 -189 1 -28 -6 -58 -15 -72 -18 -27 -51 -34 -41 -8 3 9 0 41 -8 72 -13 49 -23 114 -41 247 -2 17 -7 144 -11 284 -6 217 -5 253 7 246 12 -8 12 -6 0 8 -7 9 -16 17 -20 17 -3 0 -6 -262 -6 -583 0 -520 -2 -587 -17 -627 l-17 -45 -1 100 c-1 55 -3 111 -5 125 -2 14 -4 81 -5 150 -1 69 -6 166 -11 215 -6 50 -12 180 -14 290 -8 398 -6 377 -27 358 -19 -17 -24 -28 -8 -18 6 3 7 -1 4 -9 -3 -9 -1 -16 5 -16 15 0 5 -233 -13 -323 -7 -34 -10 -69 -6 -77 4 -8 10 -72 13 -142 3 -69 11 -136 17 -148 8 -15 8 -25 1 -34 -6 -8 -8 -21 -5 -31 5 -12 0 -23 -16 -35 -13 -10 -22 -28 -22 -43 0 -37 -13 -34 -34 11 -29 58 -42 120 -36 168 2 25 -1 138 -8 252 -14 235 -16 350 -7 372 9 19 -7 45 -22 36 -7 -5 -9 -52 -6 -144 5 -177 6 -328 3 -698 -3 -271 -5 -302 -21 -318 -9 -10 -17 -22 -17 -27 0 -24 -18 -4 -30 34 -10 31 -14 146 -16 462 -4 630 -3 738 2 747 3 4 2 8 -1 8 -3 0 -11 -13 -16 -30 -7 -18 -15 -27 -22 -23 -7 4 -6 -1 1 -10 11 -13 13 -66 11 -244 -1 -125 2 -272 6 -327 6 -77 5 -100 -5 -106 -8 -5 -14 -28 -14 -57 -1 -44 -3 -48 -25 -45 -13 1 -29 -2 -35 -7 -33 -28 -58 43 -55 155 2 49 -3 132 -9 184 -25 191 -26 460 -2 445 4 -3 6 4 3 16 -8 30 -25 8 -32 -43 -4 -24 -3 -119 2 -213 4 -93 5 -215 2 -270 -3 -55 -7 -201 -10 -325 -6 -251 -13 -356 -24 -344 -4 5 -18 40 -30 77 -21 63 -22 85 -22 300 1 128 3 252 5 277 2 25 8 131 14 235 10 191 7 280 -10 302 -5 7 -6 18 -2 24 4 8 3 9 -4 5 -15 -9 -15 -39 0 -54 17 -17 12 -360 -6 -409 -8 -21 -17 -63 -21 -93 -10 -87 -16 -122 -26 -160 -5 -19 -9 -47 -9 -62 0 -15 -6 -31 -14 -35 -7 -4 -19 -39 -26 -76 -7 -37 -14 -66 -16 -64 -20 20 -30 308 -19 512 4 77 5 138 2 135 -10 -10 -21 -281 -17 -440 5 -152 4 -478 -2 -645 l-2 -70 80 0 c43 0 132 6 198 13 65 7 189 12 275 12 86 0 180 4 210 8 63 11 214 7 316 -8 43 -6 135 -7 240 -3 94 5 303 5 465 2 162 -3 382 -4 488 -1 l192 5 -5 101 c-10 163 -13 684 -6 1056 3 190 6 346 5 348 -1 2 -5 -5 -9 -15z m-1332 -753 c3 -11 1 -23 -4 -26 -5 -3 -9 6 -9 20 0 31 6 34 13 6z m-2 -153 c-17 -17 -21 -3 -14 49 l7 49 9 -44 c6 -29 5 -47 -2 -54z m556 31 c-3 -7 -5 -2 -5 12 0 14 2 19 5 13 2 -7 2 -19 0 -25z"/>
 <path d="M2480 2325 c-7 -9 -8 -15 -2 -15 5 0 12 7 16 15 3 8 4 15 2 15 -2 0 -9 -7 -16 -15z"/>
 <path d="M2566 2325 c4 -8 11 -15 16 -15 6 0 5 6 -2 15 -7 8 -14 15 -16 15 -2 0 -1 -7 2 -15z"/>
 <path d="M1205 2319 c-4 -6 -5 -12 -2 -15 2 -3 7 2 10 11 7 17 1 20 -8 4z"/>
 <path d="M1287 2305 c10 -13 22 -25 27 -25 5 0 -1 11 -14 25 -30 32 -36 32 -13 0z"/>
 <path d="M2244 2308 c-4 -7 -3 -8 4 -4 12 7 16 16 8 16 -3 0 -8 -5 -12 -12z"/>
 <path d="M515 2300 c3 -5 8 -10 11 -10 3 0 2 5 -1 10 -3 6 -8 10 -11 10 -3 0 -2 -4 1 -10z"/>
 <path d="M775 2300 c3 -5 8 -10 11 -10 3 0 2 5 -1 10 -3 6 -8 10 -11 10 -3 0 -2 -4 1 -10z"/>
 <path d="M2463 2293 c4 -3 10 -3 14 0 3 4 0 7 -7 7 -7 0 -10 -3 -7 -7z"/>
 <path d="M1183 2283 c4 -3 10 -3 14 0 3 4 0 7 -7 7 -7 0 -10 -3 -7 -7z"/>
 <path d="M287 2273 c-4 -3 -7 -69 -7 -146 0 -77 3 -137 7 -134 5 5 13 287 8 287 -1 0 -5 -3 -8 -7z"/>
 <path d="M790 2270 c0 -5 5 -10 11 -10 5 0 7 5 4 10 -3 6 -8 10 -11 10 -2 0 -4 -4 -4 -10z"/>
 <path d="M374 2218 c-4 -7 -3 -8 4 -4 12 7 16 16 8 16 -3 0 -8 -5 -12 -12z"/>
 <path d="M1394 2218 c-4 -7 -3 -8 4 -4 7 4 12 9 12 12 0 8 -9 4 -16 -8z"/>
 <path d="M1600 2226 c0 -2 8 -10 18 -17 15 -13 16 -12 3 4 -13 16 -21 21 -21 13z"/>
 <path d="M1680 2220 c0 -7 3 -10 7 -7 3 4 3 10 0 14 -4 3 -7 0 -7 -7z"/>
 <path d="M1914 2218 c-4 -7 -3 -8 4 -4 12 7 16 16 8 16 -3 0 -8 -5 -12 -12z"/>
 <path d="M1875 2210 c3 -5 8 -10 11 -10 3 0 2 5 -1 10 -3 6 -8 10 -11 10 -3 0 -2 -4 1 -10z"/>
 <path d="M2653 2203 c4 -3 10 -3 14 0 3 4 0 7 -7 7 -7 0 -10 -3 -7 -7z"/>
 <path d="M2852 1680 c0 -19 2 -27 5 -17 2 9 2 25 0 35 -3 9 -5 1 -5 -18z"/>
 <path d="M1387 1683 c-4 -3 -7 -16 -6 -27 0 -19 1 -19 10 3 10 24 8 36 -4 24z"/>
 <path d="M160 1600 c0 -7 3 -10 7 -7 3 4 3 10 0 14 -4 3 -7 0 -7 -7z"/>
 <path d="M160 1540 c0 -7 3 -10 7 -7 3 4 3 10 0 14 -4 3 -7 0 -7 -7z"/>
 <path d="M2779 818 c21 -23 30 -41 26 -50 -7 -10 -5 -11 6 0 11 10 7 19 -26 50 l-40 37 34 -37z"/>
 <path d="M1093 833 c26 -2 68 -2 95 0 26 2 4 3 -48 3 -52 0 -74 -1 -47 -3z"/>
 <path d="M738 823 c23 -2 61 -2 85 0 23 2 4 4 -43 4 -47 0 -66 -2 -42 -4z"/>
 <path d="M988 823 c6 -2 18 -2 25 0 6 3 1 5 -13 5 -14 0 -19 -2 -12 -5z"/>
 <path d="M1298 823 c12 -2 32 -2 45 0 12 2 2 4 -23 4 -25 0 -35 -2 -22 -4z"/>
 <path d="M1723 823 c37 -2 96 -2 130 0 34 2 4 3 -68 3 -71 0 -99 -1 -62 -3z"/>
 <path d="M233 813 c9 -2 23 -2 30 0 6 3 -1 5 -18 5 -16 0 -22 -2 -12 -5z"/>
 <path d="M583 813 c15 -2 37 -2 50 0 12 2 0 4 -28 4 -27 0 -38 -2 -22 -4z"/>
 <path d="M1418 813 c23 -2 61 -2 85 0 23 2 4 4 -43 4 -47 0 -66 -2 -42 -4z"/>
 <path d="M2013 813 c53 -2 141 -2 195 0 53 1 9 3 -98 3 -107 0 -151 -2 -97 -3z"/>
 <path d="M2453 813 c15 -2 37 -2 50 0 12 2 0 4 -28 4 -27 0 -38 -2 -22 -4z"/>
 <path d="M2760 795 c13 -14 26 -25 28 -25 3 0 -5 11 -18 25 -13 14 -26 25 -28 25 -3 0 5 -11 18 -25z"/>
 <path d="M468 803 c6 -2 18 -2 25 0 6 3 1 5 -13 5 -14 0 -19 -2 -12 -5z"/>
 <path d="M205 790 c3 -5 8 -10 11 -10 3 0 2 5 -1 10 -3 6 -8 10 -11 10 -3 0 -2 -4 1 -10z"/>
 <path d="M413 793 c4 -3 10 -3 14 0 3 4 0 7 -7 7 -7 0 -10 -3 -7 -7z"/>
 <path d="M1983 733 c4 -3 10 -3 14 0 3 4 0 7 -7 7 -7 0 -10 -3 -7 -7z"/>
 <path d="M1315 710 c3 -5 11 -10 16 -10 6 0 7 5 4 10 -3 6 -11 10 -16 10 -6 0 -7 -4 -4 -10z"/>
 <path d="M1363 703 c4 -3 10 -3 14 0 3 4 0 7 -7 7 -7 0 -10 -3 -7 -7z"/>
 <path d="M1397 695 c-14 -7 -71 -11 -147 -10 -503 7 -635 6 -638 -5 -4 -12 -48 -33 -72 -35 -9 0 -15 -9 -14 -22 0 -17 -5 -22 -20 -20 -12 1 -20 -3 -19 -9 3 -14 -136 -24 -182 -14 l-31 7 1 -81 c2 -54 14 -129 38 -226 35 -140 75 -267 76 -243 1 6 -4 24 -10 40 -17 45 -80 324 -77 340 2 10 16 2 47 -29 25 -23 42 -38 38 -31 -4 6 -1 13 5 16 17 5 59 -14 52 -24 -7 -12 43 -23 63 -14 10 5 54 9 98 11 116 4 235 16 240 24 3 4 21 6 40 3 20 -3 35 -1 34 4 -4 24 6 28 63 27 120 -3 390 -15 427 -20 20 -2 171 -6 336 -9 252 -5 360 -9 360 -14 0 -1 56 -3 125 -6 390 -14 373 -13 412 -29 26 -12 52 -3 63 22 5 12 13 22 16 22 11 0 1 -218 -11 -240 -6 -12 -9 -26 -6 -33 3 -8 5 -7 5 3 1 8 13 24 28 36 27 21 27 23 10 41 -21 24 -21 60 -2 183 10 60 21 99 31 107 11 8 13 16 6 28 -5 9 -7 40 -5 68 l4 52 -20 -23 c-12 -14 -25 -20 -32 -16 -7 4 -9 3 -6 -4 6 -8 -97 -10 -210 -3 -7 1 -13 8 -13 16 0 13 -12 19 -32 16 -4 0 -18 3 -31 8 -14 5 -59 11 -100 12 -53 2 -78 7 -82 17 -3 7 -9 10 -15 7 -6 -3 -12 0 -15 7 -4 9 -22 13 -58 11 -63 -1 -139 14 -149 30 -10 16 -590 18 -621 2z m51 -12 c-10 -2 -28 -2 -40 0 -13 2 -5 4 17 4 22 1 32 -1 23 -4z m90 0 c-10 -2 -28 -2 -40 0 -13 2 -5 4 17 4 22 1 32 -1 23 -4z m929 -100 c-4 -3 -10 -3 -14 0 -3 4 0 7 7 7 7 0 10 -3 7 -7z m-1750 -220 c-4 -3 -10 -3 -14 0 -3 4 0 7 7 7 7 0 10 -3 7 -7z"/>
 <path d="M2692 60 c0 -14 2 -19 5 -12 2 6 2 18 0 25 -3 6 -5 1 -5 -13z"/>
 <path d="M2681 14 c0 -11 3 -14 6 -6 3 7 2 16 -1 19 -3 4 -6 -2 -5 -13z"/>
 <path d="M390 10 c0 -7 3 -10 7 -7 3 4 3 10 0 14 -4 3 -7 0 -7 -7z"/>
 </g>
<g id="layer108" fill="#e0e1e1" stroke="none">
 <path d="M146 2435 c-3 -8 -11 -14 -17 -13 -6 2 -14 -4 -16 -12 -4 -13 -3 -13 7 0 9 12 10 8 5 -20 -12 -65 -17 -141 -10 -158 4 -9 8 -56 10 -104 7 -190 28 -484 37 -498 8 -15 6 61 -9 325 -10 177 -5 465 8 481 7 9 8 14 1 14 -5 0 -12 -7 -16 -15z m-19 -177 c-2 -18 -4 -4 -4 32 0 36 2 50 4 33 2 -18 2 -48 0 -65z"/>
 <path d="M2865 2430 c3 -5 1 -143 -4 -307 -6 -168 -6 -313 -2 -333 8 -31 9 -28 11 30 1 36 4 74 6 85 3 11 6 103 7 205 1 106 4 164 8 135 3 -27 4 -3 2 55 -5 115 -9 140 -24 140 -6 0 -7 -4 -4 -10z"/>
 <path d="M2902 2385 c0 -16 2 -22 5 -12 2 9 2 23 0 30 -3 6 -5 -1 -5 -18z"/>
 <path d="M275 2350 c3 -5 8 -10 11 -10 3 0 2 5 -1 10 -3 6 -8 10 -11 10 -3 0 -2 -4 1 -10z"/>
 <path d="M1205 2319 c-4 -6 -5 -12 -2 -15 2 -3 7 2 10 11 7 17 1 20 -8 4z"/>
 <path d="M1720 2318 c0 -7 -3 -41 -5 -75 -2 -34 -7 -148 -9 -254 -4 -111 -10 -197 -16 -204 -6 -7 -10 -28 -10 -46 2 -63 -22 -189 -36 -189 -9 0 -14 -19 -16 -62 -3 -55 -6 -63 -24 -66 -20 -3 -22 2 -29 110 -4 62 -7 254 -7 425 1 186 -3 315 -9 318 -5 4 -9 -52 -9 -142 -1 -386 -14 -998 -21 -1001 -5 -2 -9 -15 -9 -28 0 -33 -16 -30 -24 4 -10 46 -27 763 -24 989 2 117 0 209 -3 205 -4 -4 -10 -137 -14 -297 -10 -473 -15 -531 -48 -593 -22 -43 -32 -53 -50 -50 -20 3 -23 10 -29 98 -4 52 -9 235 -12 405 -3 171 -8 327 -11 348 -4 25 -2 36 5 32 5 -3 10 -2 10 4 0 19 -19 21 -25 2 -3 -10 -4 -88 -3 -172 4 -207 -12 -801 -22 -814 -4 -5 -7 -25 -6 -43 0 -17 -3 -32 -7 -32 -5 0 -6 -10 -2 -22 5 -19 4 -20 -4 -6 -17 26 -29 148 -36 358 -11 345 -14 403 -20 409 -3 3 -4 -73 -1 -169 4 -142 2 -179 -10 -194 -9 -13 -14 -44 -14 -86 0 -52 -4 -71 -18 -83 -10 -10 -23 -17 -29 -17 -6 0 -15 -17 -20 -37 -4 -20 -13 -38 -19 -40 -12 -4 -34 303 -41 575 -9 307 -18 161 -19 -296 -1 -395 -3 -462 -17 -497 l-16 -40 -1 90 c0 50 -3 119 -5 155 -3 36 -7 126 -9 200 -3 74 -9 198 -15 275 -5 77 -9 177 -8 222 1 44 -1 79 -4 77 -6 -3 -20 -136 -21 -199 0 -16 7 -79 16 -140 19 -118 23 -442 7 -458 -6 -6 -16 4 -25 22 -11 20 -21 28 -31 25 -8 -4 -15 -1 -15 5 0 5 -11 20 -24 33 -29 29 -36 80 -41 323 -3 99 -10 253 -16 342 -8 120 -8 170 0 194 12 34 9 45 -8 35 -7 -5 -9 -55 -6 -144 5 -177 6 -328 3 -698 -3 -271 -5 -302 -20 -318 -10 -10 -18 -22 -18 -27 0 -5 -4 -9 -9 -9 -4 0 -15 21 -22 48 -11 36 -13 113 -11 332 2 290 -5 556 -16 545 -3 -3 -4 -72 -2 -153 6 -188 5 -236 -6 -352 l-9 -94 -35 -1 c-51 -2 -90 16 -91 40 0 11 -2 29 -4 40 -3 11 -6 107 -9 213 -4 192 -15 270 -18 136 0 -38 -2 -80 -3 -94 -2 -14 -6 -140 -9 -280 -7 -275 -14 -377 -25 -363 -5 4 -18 39 -30 76 -21 63 -22 85 -22 300 1 227 2 258 14 402 16 188 -27 -114 -61 -429 -11 -102 -24 -181 -31 -185 -6 -4 -10 -27 -8 -52 2 -38 -1 -44 -19 -47 -20 -3 -21 1 -18 50 2 29 0 76 -5 103 -8 45 -9 37 -11 -65 -1 -63 -4 -144 -6 -180 -2 -36 -4 -99 -6 -140 l-2 -75 45 -3 c24 -2 94 4 154 14 71 11 183 18 315 20 113 1 262 6 333 10 l127 6 0 29 c0 15 3 30 8 33 4 2 6 -12 4 -33 l-4 -37 54 -5 c29 -2 130 -3 225 -3 140 2 176 5 195 18 12 9 17 16 10 16 -6 0 -12 5 -12 10 0 6 11 10 24 10 17 0 26 -7 30 -25 7 -28 5 -28 303 -29 116 -1 149 2 141 11 -7 9 -4 11 11 10 11 0 18 -4 15 -8 -12 -20 14 -22 319 -20 l167 1 -7 123 c-4 67 -6 212 -4 322 1 110 0 198 -2 195 -3 -3 -8 -106 -11 -230 -4 -143 -9 -226 -16 -228 -19 -7 -60 28 -66 56 -4 15 -13 39 -20 54 -10 19 -15 105 -20 330 -3 167 -7 341 -9 388 -1 47 -3 132 -4 189 0 57 -3 102 -6 99 -3 -2 -7 -184 -10 -404 -5 -462 -16 -707 -31 -692 -19 20 -43 656 -36 988 4 178 -2 237 -23 237 -8 0 -15 -7 -15 -14 0 -8 -3 -12 -7 -10 -5 3 -9 -6 -9 -20 -2 -23 -1 -23 16 -8 16 15 18 14 22 -12 3 -15 3 -64 0 -108 -4 -93 -4 -163 0 -370 2 -82 0 -162 -5 -177 -6 -25 -12 -28 -47 -28 -34 0 -42 -4 -50 -25 -10 -26 -49 -36 -51 -12 -2 34 2 540 5 595 2 34 0 64 -4 67 -4 3 -11 -84 -14 -193 -13 -353 -33 -642 -46 -642 -16 0 -23 86 -29 360 -5 258 -7 274 -14 172 -7 -105 -1 -451 8 -498 5 -25 -8 -38 -46 -47 -21 -5 -28 -2 -40 19 -7 15 -12 40 -10 57 3 27 1 30 -13 18 -9 -7 -16 -18 -16 -23 0 -16 -30 -40 -43 -35 -13 5 -13 223 -1 532 9 215 9 396 2 408 -4 7 -8 -22 -8 -63 -1 -215 -24 -876 -38 -1065 l-7 -110 -7 205 c-4 113 -8 286 -9 385 0 99 -7 286 -14 415 l-13 235 6 -235 c9 -317 6 -614 -8 -618 -5 -2 -10 -16 -10 -31 0 -34 -19 -91 -30 -91 -4 0 -14 20 -21 45 -7 25 -17 45 -22 45 -5 0 -5 9 -2 20 4 12 0 26 -9 36 -14 13 -22 49 -17 77 1 4 -3 49 -9 100 -5 50 -12 217 -15 371 -3 153 -10 286 -15 295 -5 10 -6 -114 -2 -319 15 -704 13 -790 -13 -790 -7 0 -15 -6 -18 -12 -6 -17 -36 20 -37 44 0 9 -4 18 -8 20 -13 5 -23 118 -11 118 7 0 8 107 4 303 -4 166 -6 384 -5 485 1 100 -1 182 -4 182 -4 0 -6 -6 -6 -12z m997 -1315 c-4 -3 -7 0 -7 7 0 7 3 10 7 7 3 -4 3 -10 0 -14z m-1000 -130 c-4 -3 -10 -3 -14 0 -3 4 0 7 7 7 7 0 10 -3 7 -7z"/>
 <path d="M280 2310 c0 -7 3 -10 7 -7 3 4 3 10 0 14 -4 3 -7 0 -7 -7z"/>
 <path d="M2244 2308 c-4 -7 -3 -8 4 -4 12 7 16 16 8 16 -3 0 -8 -5 -12 -12z"/>
 <path d="M775 2300 c3 -5 8 -10 11 -10 3 0 2 5 -1 10 -3 6 -8 10 -11 10 -3 0 -2 -4 1 -10z"/>
 <path d="M1540 2300 c0 -5 5 -10 11 -10 5 0 7 5 4 10 -3 6 -8 10 -11 10 -2 0 -4 -4 -4 -10z"/>
 <path d="M2723 2270 c0 -25 2 -35 4 -22 2 12 2 32 0 45 -2 12 -4 2 -4 -23z"/>
 <path d="M934 2289 c-3 -6 -2 -15 3 -20 5 -5 9 -1 9 11 0 23 -2 24 -12 9z"/>
 <path d="M1021 2297 c2 -1 13 -9 24 -17 19 -14 19 -14 6 3 -7 9 -18 17 -24 17 -6 0 -8 -1 -6 -3z"/>
 <path d="M2463 2293 c4 -3 10 -3 14 0 3 4 0 7 -7 7 -7 0 -10 -3 -7 -7z"/>
 <path d="M1183 2283 c4 -3 10 -3 14 0 3 4 0 7 -7 7 -7 0 -10 -3 -7 -7z"/>
 <path d="M2243 2210 c0 -47 2 -66 4 -42 2 23 2 61 0 85 -2 23 -4 4 -4 -43z"/>
 <path d="M2323 2283 c4 -3 10 -3 14 0 3 4 0 7 -7 7 -7 0 -10 -3 -7 -7z"/>
 <path d="M2582 2270 c0 -14 2 -19 5 -12 2 6 2 18 0 25 -3 6 -5 1 -5 -13z"/>
 <path d="M689 2268 c-2 -7 -2 -71 1 -143 l6 -130 2 143 c2 131 0 161 -9 130z"/>
 <path d="M282 2245 c0 -16 2 -22 5 -12 2 9 2 23 0 30 -3 6 -5 -1 -5 -18z"/>
 <path d="M525 2260 c3 -5 8 -10 11 -10 2 0 4 5 4 10 0 6 -5 10 -11 10 -5 0 -7 -4 -4 -10z"/>
 <path d="M793 2263 c4 -3 10 -3 14 0 3 4 0 7 -7 7 -7 0 -10 -3 -7 -7z"/>
 <path d="M439 2228 c4 -28 6 -29 9 -9 2 13 0 27 -5 32 -6 6 -7 -3 -4 -23z"/>
 <path d="M1177 2240 c-3 -11 -1 -20 4 -20 5 0 9 9 9 20 0 11 -2 20 -4 20 -2 0 -6 -9 -9 -20z"/>
 <path d="M2320 2213 c0 -25 2 -44 4 -42 8 10 13 89 5 89 -5 0 -9 -21 -9 -47z"/>
 <path d="M512 2220 c0 -19 2 -27 5 -17 2 9 2 25 0 35 -3 9 -5 1 -5 -18z"/>
 <path d="M374 2218 c-4 -7 -3 -8 4 -4 12 7 16 16 8 16 -3 0 -8 -5 -12 -12z"/>
 <path d="M1394 2218 c-4 -7 -3 -8 4 -4 7 4 12 9 12 12 0 8 -9 4 -16 -8z"/>
 <path d="M1605 2220 c3 -5 8 -10 11 -10 3 0 2 5 -1 10 -3 6 -8 10 -11 10 -3 0 -2 -4 1 -10z"/>
 <path d="M1875 2210 c3 -5 8 -10 11 -10 3 0 2 5 -1 10 -3 6 -8 10 -11 10 -3 0 -2 -4 1 -10z"/>
 <path d="M2414 2208 c-4 -7 -3 -8 4 -4 7 4 12 9 12 12 0 8 -9 4 -16 -8z"/>
 <path d="M2724 2005 c0 -121 2 -169 3 -107 2 62 2 161 0 220 -1 59 -3 8 -3 -113z"/>
 <path d="M1182 2113 c-1 -56 1 -104 6 -106 4 -3 6 27 4 66 -5 129 -9 144 -10 40z"/>
 <path d="M284 2090 c0 -58 1 -81 3 -52 2 28 2 76 0 105 -2 28 -3 5 -3 -53z"/>
 <path d="M500 2170 c0 -7 3 -10 7 -7 3 4 3 10 0 14 -4 3 -7 0 -7 -7z"/>
 <path d="M453 2125 c0 -27 2 -38 4 -22 2 15 2 37 0 50 -2 12 -4 0 -4 -28z"/>
 <path d="M940 2126 c0 -8 4 -17 9 -20 5 -4 7 3 4 14 -6 23 -13 26 -13 6z"/>
 <path d="M513 2075 c0 -22 2 -30 4 -17 2 12 2 30 0 40 -3 9 -5 -1 -4 -23z"/>
 <path d="M2242 2080 c-1 -19 -4 -53 -7 -75 l-5 -40 11 40 c5 22 8 56 6 75 l-4 35 -1 -35z"/>
 <path d="M443 2020 c0 -30 2 -43 4 -27 2 15 2 39 0 55 -2 15 -4 2 -4 -28z"/>
 <path d="M513 1970 c0 -30 2 -43 4 -27 2 15 2 39 0 55 -2 15 -4 2 -4 -28z"/>
 <path d="M292 1890 c0 -19 2 -27 5 -17 2 9 2 25 0 35 -3 9 -5 1 -5 -18z"/>
 <path d="M521 1894 c0 -11 3 -14 6 -6 3 7 2 16 -1 19 -3 4 -6 -2 -5 -13z"/>
 <path d="M281 1824 c0 -11 3 -14 6 -6 3 7 2 16 -1 19 -3 4 -6 -2 -5 -13z"/>
 <path d="M282 1755 c0 -16 2 -22 5 -12 2 9 2 23 0 30 -3 6 -5 -1 -5 -18z"/>
 <path d="M2852 1680 c0 -19 2 -27 5 -17 2 9 2 25 0 35 -3 9 -5 1 -5 -18z"/>
 <path d="M273 1650 c0 -30 2 -43 4 -27 2 15 2 39 0 55 -2 15 -4 2 -4 -28z"/>
 <path d="M160 1600 c0 -7 3 -10 7 -7 3 4 3 10 0 14 -4 3 -7 0 -7 -7z"/>
 <path d="M2441 1584 c0 -11 3 -14 6 -6 3 7 2 16 -1 19 -3 4 -6 -2 -5 -13z"/>
 <path d="M160 1540 c0 -7 3 -10 7 -7 3 4 3 10 0 14 -4 3 -7 0 -7 -7z"/>
 <path d="M284 1460 c0 -52 1 -74 3 -47 2 26 2 68 0 95 -2 26 -3 4 -3 -48z"/>
 <path d="M285 1350 c-3 -5 -1 -10 4 -10 6 0 11 5 11 10 0 6 -2 10 -4 10 -3 0 -8 -4 -11 -10z"/>
 <path d="M340 1270 c0 -7 3 -10 7 -7 3 4 3 10 0 14 -4 3 -7 0 -7 -7z"/>
 <path d="M1163 833 c4 -3 10 -3 14 0 3 4 0 7 -7 7 -7 0 -10 -3 -7 -7z"/>
 <path d="M1283 823 c4 -3 10 -3 14 0 3 4 0 7 -7 7 -7 0 -10 -3 -7 -7z"/>
 <path d="M1323 823 c4 -3 10 -3 14 0 3 4 0 7 -7 7 -7 0 -10 -3 -7 -7z"/>
 <path d="M628 813 c7 -3 16 -2 19 1 4 3 -2 6 -13 5 -11 0 -14 -3 -6 -6z"/>
 <path d="M1383 813 c4 -3 10 -3 14 0 3 4 0 7 -7 7 -7 0 -10 -3 -7 -7z"/>
 <path d="M1503 813 c4 -3 10 -3 14 0 3 4 0 7 -7 7 -7 0 -10 -3 -7 -7z"/>
 <path d="M1983 813 c9 -2 25 -2 35 0 9 3 1 5 -18 5 -19 0 -27 -2 -17 -5z"/>
 <path d="M2098 813 c34 -2 90 -2 125 0 34 2 6 3 -63 3 -69 0 -97 -1 -62 -3z"/>
 <path d="M2488 813 c6 -2 18 -2 25 0 6 3 1 5 -13 5 -14 0 -19 -2 -12 -5z"/>
 <path d="M483 803 c4 -3 10 -3 14 0 3 4 0 7 -7 7 -7 0 -10 -3 -7 -7z"/>
 <path d="M2765 790 c10 -11 20 -20 23 -20 3 0 -3 9 -13 20 -10 11 -20 20 -23 20 -3 0 3 -9 13 -20z"/>
 <path d="M1983 733 c4 -3 10 -3 14 0 3 4 0 7 -7 7 -7 0 -10 -3 -7 -7z"/>
 <path d="M1315 710 c3 -5 11 -10 16 -10 6 0 7 5 4 10 -3 6 -11 10 -16 10 -6 0 -7 -4 -4 -10z"/>
 <path d="M1363 703 c4 -3 10 -3 14 0 3 4 0 7 -7 7 -7 0 -10 -3 -7 -7z"/>
 <path d="M1397 695 c-14 -7 -71 -11 -147 -10 -503 7 -635 6 -638 -5 -4 -12 -48 -33 -72 -35 -9 0 -15 -9 -14 -22 0 -17 -5 -22 -20 -20 -12 1 -20 -3 -19 -9 3 -14 -136 -24 -184 -14 -26 6 -33 5 -33 -7 0 -8 4 -12 9 -9 4 3 4 -17 -1 -45 -5 -28 -7 -56 -5 -62 2 -7 8 5 12 26 4 22 12 36 19 34 6 -3 10 -10 9 -16 -2 -6 3 -10 10 -8 6 1 11 -4 9 -12 -2 -9 5 -12 22 -9 14 3 23 1 20 -4 -3 -5 6 -7 20 -4 15 3 26 0 26 -6 0 -6 6 -5 15 2 12 10 19 10 27 2 7 -7 47 -12 101 -12 56 0 86 -4 82 -10 -3 -5 1 -10 10 -10 9 0 13 4 10 10 -11 18 5 32 22 19 12 -10 16 -10 24 2 6 10 9 10 9 2 0 -7 7 -13 15 -13 8 0 15 6 15 13 0 8 4 7 10 -3 6 -10 10 -11 10 -2 0 7 14 12 37 12 29 0 34 3 25 12 -16 16 -15 36 1 35 41 -1 44 7 4 12 -26 3 -47 11 -47 16 0 13 50 27 50 14 0 -15 32 -10 45 7 6 9 20 14 31 12 17 -4 16 -6 -6 -16 l-25 -11 23 0 c21 -1 56 22 47 30 -2 2 7 4 19 4 13 0 23 -5 23 -12 0 -6 -7 -9 -15 -5 -10 3 -13 1 -8 -6 4 -7 17 -10 29 -7 12 3 36 7 52 10 24 4 26 3 10 -4 -14 -7 -16 -10 -5 -10 9 -1 20 3 26 9 5 5 23 11 39 12 17 1 36 6 44 12 11 8 13 8 7 -1 -4 -8 -2 -13 6 -14 7 0 4 -4 -7 -9 -16 -7 -14 -9 13 -7 22 1 31 5 27 14 -3 11 0 11 16 2 29 -15 70 -19 62 -6 -4 7 0 8 12 4 9 -4 23 -3 29 1 22 18 56 21 56 5 0 -11 11 -14 45 -12 24 2 47 0 50 -3 9 -9 55 3 49 13 -3 5 0 9 5 9 6 0 11 -4 11 -9 0 -5 11 -8 25 -8 13 0 22 3 20 8 -3 4 -1 10 4 13 5 4 12 -2 15 -12 3 -10 15 -18 27 -18 18 0 18 2 4 12 -15 11 9 15 87 15 10 0 21 5 24 11 4 6 9 5 15 -3 5 -8 35 -17 71 -20 l63 -6 -60 -1 c-34 -1 -66 3 -71 8 -7 7 -17 5 -30 -5 -18 -14 -18 -14 6 -15 136 -6 163 -6 174 4 15 15 39 19 31 6 -4 -6 4 -10 19 -10 14 0 26 -4 26 -9 0 -5 -34 -8 -75 -7 -62 1 -75 -2 -73 -14 3 -11 18 -15 59 -16 31 -1 62 -5 69 -9 8 -5 11 -4 6 3 -3 6 -2 13 3 17 5 3 14 -3 20 -12 9 -16 10 -15 8 6 -1 14 4 26 13 28 12 4 12 3 1 -5 -21 -15 -2 -20 71 -18 36 1 66 -3 65 -8 -1 -4 4 -11 12 -14 8 -3 11 0 7 7 -5 7 2 11 20 11 22 0 24 3 15 14 -10 12 -7 14 21 9 18 -2 38 -9 43 -15 7 -6 1 -7 -17 -3 -18 5 -28 3 -28 -4 0 -12 6 -13 119 -13 41 0 69 -3 62 -7 -10 -7 -10 -9 1 -13 18 -7 39 2 33 13 -4 5 1 6 10 2 13 -4 14 -8 4 -14 -14 -8 -13 -8 36 -24 8 -2 15 1 15 7 0 7 6 6 16 -3 12 -10 17 -10 23 -1 6 9 15 8 39 -3 17 -9 34 -20 37 -26 4 -5 12 -9 18 -9 8 0 8 3 2 8 -15 11 -17 34 -3 30 7 -3 15 -14 18 -25 5 -20 7 -21 38 -8 17 8 32 20 33 27 1 7 5 2 9 -12 8 -24 8 -24 9 -2 1 12 8 25 16 28 8 4 15 10 15 16 0 5 -4 7 -8 4 -5 -3 -7 25 -5 62 l3 67 -19 -23 c-12 -14 -25 -20 -32 -16 -7 4 -9 3 -6 -4 6 -8 -97 -10 -210 -3 -7 1 -13 8 -13 16 0 13 -12 19 -32 16 -4 0 -18 3 -31 8 -14 5 -59 11 -100 12 -53 2 -78 7 -82 17 -3 7 -9 10 -15 7 -6 -3 -12 0 -15 7 -4 9 -22 13 -58 11 -63 -1 -139 14 -149 30 -10 16 -590 18 -621 2z m51 -12 c-10 -2 -28 -2 -40 0 -13 2 -5 4 17 4 22 1 32 -1 23 -4z m90 0 c-10 -2 -28 -2 -40 0 -13 2 -5 4 17 4 22 1 32 -1 23 -4z m-861 -40 c-4 -3 -10 -3 -14 0 -3 4 0 7 7 7 7 0 10 -3 7 -7z m100 0 c-4 -3 -10 -3 -14 0 -3 4 0 7 7 7 7 0 10 -3 7 -7z m88 -21 c-8 -8 -25 10 -19 20 4 6 9 5 15 -3 4 -7 6 -15 4 -17z m82 21 c-4 -3 -10 -3 -14 0 -3 4 0 7 7 7 7 0 10 -3 7 -7z m350 0 c-4 -3 -10 -3 -14 0 -3 4 0 7 7 7 7 0 10 -3 7 -7z m547 -2 c4 -5 -1 -8 -9 -7 -21 3 -31 16 -12 16 9 0 18 -4 21 -9z m76 -6 c0 -8 -4 -15 -8 -15 -5 0 -9 7 -9 15 0 8 4 15 9 15 4 0 8 -7 8 -15z m-1210 -5 c0 -5 -4 -10 -10 -10 -5 0 -10 5 -10 10 0 6 5 10 10 10 6 0 10 -4 10 -10z m1112 -28 c3 -11 0 -19 -7 -19 -7 0 -10 8 -7 19 2 10 6 18 7 18 1 0 5 -8 7 -18z m-1205 1 c-4 -3 -10 -3 -14 0 -3 4 0 7 7 7 7 0 10 -3 7 -7z m303 3 c0 -3 -5 -8 -12 -12 -7 -4 -8 -3 -4 4 7 12 16 16 16 8z m37 -3 c-4 -3 -10 -3 -14 0 -3 4 0 7 7 7 7 0 10 -3 7 -7z m976 -5 c3 -9 -9 -13 -39 -13 -45 -1 -47 10 -4 18 14 2 28 5 31 6 4 0 9 -5 12 -11z m356 -4 c2 -2 -20 -4 -50 -3 -37 0 -48 3 -34 8 19 8 75 4 84 -5z m-979 -4 c0 -5 -2 -10 -4 -10 -3 0 -8 5 -11 10 -3 6 -1 10 4 10 6 0 11 -4 11 -10z m217 3 c-4 -3 -10 -3 -14 0 -3 4 0 7 7 7 7 0 10 -3 7 -7z m-506 -26 c-10 -9 -11 -8 -5 6 3 10 9 15 12 12 3 -3 0 -11 -7 -18z m444 13 c-3 -5 -11 -10 -16 -10 -6 0 -7 5 -4 10 3 6 11 10 16 10 6 0 7 -4 4 -10z m518 -5 c-3 -9 -8 -14 -10 -11 -3 3 -2 9 2 15 9 16 15 13 8 -4z m484 8 c-4 -3 -10 -3 -14 0 -3 4 0 7 7 7 7 0 10 -3 7 -7z m-1187 -7 c0 -3 -5 -8 -12 -12 -7 -4 -8 -3 -4 4 7 12 16 16 16 8z m-520 -36 c13 -8 13 -10 -2 -10 -9 0 -20 5 -23 10 -8 13 5 13 25 0z m1375 -9 c-2 -4 -21 -5 -42 -3 -29 4 -33 7 -19 12 23 8 68 1 61 -9z m-1598 2 c-4 -3 -10 -3 -14 0 -3 4 0 7 7 7 7 0 10 -3 7 -7z m1940 0 c-4 -3 -10 -3 -14 0 -3 4 0 7 7 7 7 0 10 -3 7 -7z m-102 -13 c-7 -12 -45 -13 -63 -2 -8 6 3 9 28 10 25 1 39 -2 35 -8z m130 0 c3 -5 4 -10 1 -10 -3 0 -8 5 -11 10 -3 6 -4 10 -1 10 3 0 8 -4 11 -10z m-2055 -4 c0 -3 -4 -8 -10 -11 -5 -3 -10 -1 -10 4 0 6 5 11 10 11 6 0 10 -2 10 -4z m352 -20 c-3 -11 -7 -15 -10 -8 -2 6 -19 12 -37 12 -53 0 -49 15 5 16 43 1 47 -1 42 -20z m1815 17 c-4 -3 -10 -3 -14 0 -3 4 0 7 7 7 7 0 10 -3 7 -7z m-10 -30 c-4 -3 -7 0 -7 7 0 7 3 10 7 7 3 -4 3 -10 0 -14z m68 7 c3 -5 4 -10 1 -10 -3 0 -8 5 -11 10 -3 6 -4 10 -1 10 3 0 8 -4 11 -10z m-1898 -6 c-3 -3 -12 -4 -19 -1 -8 3 -5 6 6 6 11 1 17 -2 13 -5z m1983 -4 c0 -5 -5 -10 -11 -10 -5 0 -7 5 -4 10 3 6 8 10 11 10 2 0 4 -4 4 -10z m-2203 -17 c-4 -3 -10 -3 -14 0 -3 4 0 7 7 7 7 0 10 -3 7 -7z m2155 -25 c-9 -9 -15 -9 -24 1 -9 10 -9 12 -1 7 6 -3 15 -1 18 5 4 5 10 8 13 4 3 -3 0 -11 -6 -17z"/>
 <path d="M1353 563 c4 -3 10 -3 14 0 3 4 0 7 -7 7 -7 0 -10 -3 -7 -7z"/>
 <path d="M1670 560 c0 -5 7 -7 15 -4 8 4 15 8 15 10 0 2 -7 4 -15 4 -8 0 -15 -4 -15 -10z"/>
 <path d="M1108 553 c7 -3 16 -2 19 1 4 3 -2 6 -13 5 -11 0 -14 -3 -6 -6z"/>
 <path d="M1755 530 c-22 -3 -59 -5 -82 -5 -71 1 -48 -13 26 -17 44 -2 67 1 63 7 -3 6 2 4 11 -4 14 -11 20 -11 34 0 11 10 14 10 9 2 -5 -9 -1 -13 12 -13 14 0 19 5 16 18 -5 18 -27 22 -89 12z"/>
 <path d="M1263 518 c-5 -10 24 -9 57 2 21 7 19 8 -13 7 -22 -1 -41 -5 -44 -9z"/>
 <path d="M1388 523 c7 -3 16 -2 19 1 4 3 -2 6 -13 5 -11 0 -14 -3 -6 -6z"/>
 <path d="M1448 523 c17 -2 47 -2 65 0 17 2 3 4 -33 4 -36 0 -50 -2 -32 -4z"/>
 <path d="M1575 520 c3 -5 8 -10 11 -10 2 0 4 5 4 10 0 6 -5 10 -11 10 -5 0 -7 -4 -4 -10z"/>
 <path d="M1605 520 c3 -5 8 -10 11 -10 3 0 2 5 -1 10 -3 6 -8 10 -11 10 -3 0 -2 -4 1 -10z"/>
 <path d="M1173 513 c4 -3 10 -3 14 0 3 4 0 7 -7 7 -7 0 -10 -3 -7 -7z"/>
 <path d="M2078 493 c7 -3 16 -2 19 1 4 3 -2 6 -13 5 -11 0 -14 -3 -6 -6z"/>
 <path d="M2203 493 c4 -3 10 -3 14 0 3 4 0 7 -7 7 -7 0 -10 -3 -7 -7z"/>
 <path d="M282 420 c0 -14 2 -19 5 -12 2 6 2 18 0 25 -3 6 -5 1 -5 -13z"/>
 <path d="M513 433 c4 -3 10 -3 14 0 3 4 0 7 -7 7 -7 0 -10 -3 -7 -7z"/>
 <path d="M558 433 c6 -2 18 -2 25 0 6 3 1 5 -13 5 -14 0 -19 -2 -12 -5z"/>
 <path d="M708 433 c6 -2 18 -2 25 0 6 3 1 5 -13 5 -14 0 -19 -2 -12 -5z"/>
 <path d="M2742 380 c0 -14 2 -19 5 -12 2 6 2 18 0 25 -3 6 -5 1 -5 -13z"/>
 <path d="M292 375 c0 -11 4 -31 8 -45 6 -20 8 -21 8 -5 0 11 -4 31 -8 45 -6 20 -8 21 -8 5z"/>
 <path d="M2732 310 c0 -14 2 -19 5 -12 2 6 2 18 0 25 -3 6 -5 1 -5 -13z"/>
 <path d="M310 290 c0 -7 3 -10 7 -7 3 4 3 10 0 14 -4 3 -7 0 -7 -7z"/>
 <path d="M321 244 c0 -11 3 -14 6 -6 3 7 2 16 -1 19 -3 4 -6 -2 -5 -13z"/>
 <path d="M2721 222 c0 -12 4 -31 11 -42 10 -16 9 -23 -7 -41 l-20 -22 22 12 c32 16 37 30 20 49 -8 9 -17 28 -20 42 -4 23 -4 23 -6 2z"/>
 <path d="M331 204 c0 -11 3 -14 6 -6 3 7 2 16 -1 19 -3 4 -6 -2 -5 -13z"/>
 <path d="M341 164 c0 -11 3 -14 6 -6 3 7 2 16 -1 19 -3 4 -6 -2 -5 -13z"/>
 <path d="M350 130 c0 -7 3 -10 7 -7 3 4 3 10 0 14 -4 3 -7 0 -7 -7z"/>
 <path d="M2700 100 c0 -7 3 -10 7 -7 3 4 3 10 0 14 -4 3 -7 0 -7 -7z"/>
 <path d="M2690 50 c0 -7 3 -10 7 -7 3 4 3 10 0 14 -4 3 -7 0 -7 -7z"/>
 </g>

</svg>