<!DOCTYPE svg PUBLIC "-//W3C//DTD SVG 20010904//EN" "http://www.w3.org/TR/2001/REC-SVG-20010904/DTD/svg10.dtd">
<svg version="1.0" xmlns="http://www.w3.org/2000/svg" width="960px" height="960px" viewBox="0 0 9600 9600" preserveAspectRatio="xMidYMid meet">
<g id="layer101" fill="#efeff0" stroke="none">
 <path d="M7160 8825 c-15 -19 -10 -109 26 -465 34 -337 40 -368 89 -484 23 -55 62 -149 86 -208 l43 -108 837 0 c789 0 838 1 843 18 98 329 125 437 140 572 29 262 56 554 56 617 0 69 -12 81 -70 68 -33 -7 -90 -67 -90 -94 0 -38 -33 -34 -68 8 -44 54 -71 54 -113 1 -18 -22 -36 -40 -40 -40 -4 0 -21 13 -36 29 -45 46 -66 47 -111 6 -22 -19 -42 -35 -45 -35 -3 0 -24 16 -47 35 -23 19 -45 35 -49 35 -4 0 -29 -17 -55 -37 l-48 -37 -35 42 c-47 57 -82 58 -119 2 -15 -22 -30 -40 -34 -40 -5 0 -27 16 -50 35 -23 19 -48 35 -56 35 -8 0 -32 -16 -54 -36 -42 -39 -50 -38 -88 8 -34 40 -72 38 -106 -7 -15 -19 -32 -35 -38 -35 -6 0 -26 14 -45 30 -18 17 -45 30 -58 30 -13 0 -40 -13 -58 -30 -19 -16 -38 -30 -41 -30 -4 0 -19 13 -34 29 -43 46 -63 47 -112 6 -23 -19 -44 -35 -47 -35 -3 0 -23 16 -44 35 -22 19 -43 35 -49 35 -5 0 -25 -14 -45 -31 -45 -40 -73 -34 -98 20 -27 58 -108 91 -137 56z"/>
 </g>

</svg>