<!DOCTYPE svg PUBLIC "-//W3C//DTD SVG 20010904//EN" "http://www.w3.org/TR/2001/REC-SVG-20010904/DTD/svg10.dtd">
<svg version="1.0" xmlns="http://www.w3.org/2000/svg" width="960px" height="960px" viewBox="0 0 9600 9600" preserveAspectRatio="xMidYMid meet">
<g id="layer101" fill="#0b701c" stroke="none">
 <path d="M0 4800 l0 -4800 4800 0 4800 0 0 4800 0 4800 -4800 0 -4800 0 0 -4800z"/>
 </g>
<g id="layer102" fill="#217e40" stroke="none">
 <path d="M8658 9593 c7 -3 16 -2 19 1 4 3 -2 6 -13 5 -11 0 -14 -3 -6 -6z"/>
 <path d="M1270 3834 c-83 -14 -1109 -18 -1212 -5 l-58 7 0 -1918 0 -1918 4800 0 4800 0 0 1915 0 1914 -28 -4 c-127 -23 -496 -38 -1077 -46 -357 -4 -684 -12 -726 -18 -42 -5 -125 -23 -185 -40 -72 -20 -172 -37 -294 -51 -102 -11 -205 -25 -230 -30 -51 -11 -510 -35 -640 -34 -47 1 -110 8 -141 17 -48 13 -90 14 -275 7 -121 -5 -262 -13 -314 -19 -155 -16 -641 -23 -785 -11 -71 6 -294 15 -495 20 -348 8 -518 17 -730 38 -52 6 -225 11 -385 11 -293 2 -515 17 -680 47 -71 12 -171 16 -480 17 -390 2 -390 2 -507 30 -65 15 -143 37 -175 48 -97 34 -105 35 -183 23z"/>
 </g>
<g id="layer103" fill="#2c8651" stroke="none">
 <path d="M1275 3830 c-16 -4 -120 -8 -231 -9 -110 0 -203 -4 -207 -7 -6 -7 -113 -6 -507 2 -151 3 -276 7 -279 10 -2 2 -15 4 -28 4 l-23 0 0 -1915 0 -1915 4800 0 4800 0 -2 1907 -3 1908 -45 -2 c-25 0 -72 -3 -105 -6 -33 -3 -86 -5 -118 -6 -31 0 -62 -3 -69 -7 -15 -9 -23 -9 -753 -15 -335 -2 -616 -8 -623 -12 -7 -5 -50 -10 -95 -12 -54 -2 -118 -14 -184 -33 -57 -17 -129 -34 -160 -38 -32 -3 -62 -9 -67 -11 -8 -5 -79 -11 -136 -12 -29 0 -228 -30 -250 -38 -8 -2 -82 -6 -165 -7 -82 -2 -174 -3 -203 -4 -29 -1 -57 -4 -63 -8 -20 -12 -202 -4 -262 12 -45 11 -91 13 -200 9 -78 -4 -177 -6 -219 -5 -43 1 -83 -2 -90 -6 -7 -4 -29 -7 -50 -5 -21 1 -42 0 -47 -4 -25 -15 -676 -20 -861 -7 -80 6 -153 9 -490 18 -382 10 -546 19 -573 29 -9 4 -29 5 -42 2 -14 -2 -28 0 -31 5 -3 5 -70 10 -147 10 -459 4 -638 7 -647 13 -6 4 -27 5 -48 4 -21 -2 -43 1 -50 5 -7 4 -27 7 -45 5 -17 -1 -39 1 -47 4 -8 2 -60 12 -115 20 -77 12 -183 14 -465 13 -201 -1 -372 1 -380 6 -8 4 -62 17 -119 28 -57 12 -135 33 -175 47 -78 28 -135 36 -181 23z"/>
 </g>
<g id="layer104" fill="#3a8e67" stroke="none">
 <path d="M1290 3829 c-78 -20 -174 -23 -600 -21 -482 2 -645 6 -672 17 -17 7 -18 -92 -18 -1909 l0 -1916 4800 0 4800 0 -2 1908 -3 1907 -25 -2 c-14 -1 -56 -5 -95 -8 -38 -3 -95 -7 -125 -10 -156 -12 -271 -15 -800 -18 -316 -1 -595 -6 -620 -10 -25 -4 -72 -9 -105 -11 -101 -7 -137 -14 -250 -46 -61 -17 -128 -33 -150 -36 -39 -4 -72 -8 -180 -18 -27 -3 -68 -7 -90 -10 -22 -3 -47 -6 -55 -7 -8 0 -22 -3 -30 -6 -26 -9 -72 -13 -215 -17 -77 -2 -174 -6 -215 -10 -84 -7 -294 -9 -325 -3 -11 2 -29 8 -40 13 -11 5 -51 8 -90 8 -111 -1 -376 -12 -425 -18 -145 -15 -238 -18 -545 -16 -387 2 -478 4 -491 12 -5 3 -133 7 -284 8 -151 1 -304 4 -340 6 -36 3 -99 7 -140 9 -82 4 -195 14 -250 22 -46 7 -243 13 -570 19 -146 2 -283 7 -305 9 -163 19 -232 29 -290 41 -33 7 -66 7 -440 5 -260 -2 -381 4 -425 23 -8 3 -29 7 -45 9 -17 2 -35 6 -40 9 -6 3 -35 11 -65 18 -30 7 -83 24 -118 36 -68 26 -70 26 -122 13z"/>
 </g>
<g id="layer105" fill="#6aaeb4" stroke="none">
 <path d="M1240 3814 c-50 -9 -195 -11 -625 -7 -308 2 -571 5 -585 6 l-25 2 -3 -1908 -2 -1907 4800 0 4800 0 0 1905 0 1906 -72 -6 c-40 -4 -100 -8 -133 -11 -33 -3 -78 -7 -100 -10 -22 -2 -240 -7 -485 -9 -943 -10 -1039 -15 -1185 -60 -117 -35 -192 -49 -345 -61 -116 -9 -179 -18 -235 -33 -17 -5 -98 -9 -180 -10 -83 -1 -164 -4 -180 -6 -173 -22 -302 -22 -387 -1 -56 15 -97 16 -255 11 -182 -5 -214 -7 -334 -19 -93 -10 -297 -16 -532 -17 -197 -1 -260 2 -437 17 -25 2 -169 6 -320 8 -151 3 -309 7 -350 10 -41 3 -120 8 -175 11 -96 6 -139 10 -215 20 -19 3 -192 7 -385 10 -326 5 -399 8 -515 21 -95 11 -117 14 -190 28 -57 10 -162 14 -435 13 -198 0 -380 3 -405 7 -108 17 -283 60 -337 83 -51 21 -95 23 -173 7z"/>
 </g>
<g id="layer106" fill="#79b8cc" stroke="none">
 <path d="M1317 3819 c-10 -6 -25 -8 -32 -5 -8 3 -16 2 -19 -2 -5 -9 -390 -18 -611 -15 -412 5 -623 11 -632 16 -6 4 -13 4 -17 0 -3 -3 -6 -863 -6 -1910 l0 -1903 4800 0 4800 0 0 1900 c0 1513 -3 1900 -12 1902 -37 4 -44 4 -54 -4 -7 -5 -29 -9 -50 -9 -79 1 -189 -6 -204 -12 -8 -4 -35 -6 -60 -6 -25 1 -312 1 -639 0 -430 0 -597 -3 -607 -12 -8 -6 -25 -8 -38 -5 -14 3 -28 1 -32 -5 -4 -7 -29 -9 -74 -4 -45 5 -70 3 -74 -4 -4 -6 -15 -11 -25 -11 -10 0 -66 -14 -125 -31 -58 -16 -110 -28 -115 -24 -5 3 -12 1 -16 -5 -3 -5 -20 -10 -38 -10 -18 0 -54 -3 -82 -6 -27 -2 -75 -6 -105 -7 -30 -1 -60 -6 -66 -10 -7 -4 -23 -7 -35 -7 -30 0 -70 -6 -89 -13 -18 -6 -17 -6 -210 -11 -85 -2 -177 -7 -205 -11 -27 -3 -81 -7 -120 -8 -38 -1 -75 -6 -82 -10 -6 -4 -14 -3 -17 2 -4 5 -25 8 -48 6 -23 -2 -46 -1 -52 2 -5 4 -23 8 -40 10 -16 2 -34 7 -40 11 -6 4 -45 6 -86 4 -41 -2 -131 -5 -200 -8 -69 -2 -152 -7 -185 -10 -33 -3 -87 -7 -120 -8 -33 0 -64 -4 -70 -7 -8 -6 -720 -4 -720 1 0 4 -169 10 -415 14 -146 2 -294 6 -330 10 -36 3 -110 8 -165 10 -111 5 -178 10 -245 21 -25 4 -108 8 -185 9 -77 0 -145 5 -152 9 -7 4 -121 7 -255 7 -134 -1 -265 1 -293 4 -27 3 -70 8 -95 10 -25 3 -57 5 -72 6 -15 0 -29 4 -33 9 -3 6 -12 8 -20 4 -8 -3 -23 -2 -32 2 -37 15 -231 26 -239 13 -7 -11 -492 -10 -498 1 -3 4 -26 7 -50 5 -25 -2 -47 0 -50 5 -3 5 -15 7 -25 4 -10 -3 -22 0 -25 6 -4 5 -13 8 -21 4 -9 -3 -21 0 -29 6 -7 6 -15 9 -18 6 -8 -8 -191 41 -238 64 -24 12 -44 21 -44 21 -1 0 -9 -5 -19 -11z"/>
 </g>
<g id="layer107" fill="#86bfe0" stroke="none">
 <path d="M1245 3798 c-28 -5 -299 -8 -647 -6 l-598 3 0 -1897 0 -1898 4800 0 4800 0 0 1898 0 1898 -137 -12 c-305 -27 -516 -34 -996 -34 -570 0 -706 -10 -875 -59 -74 -22 -158 -36 -295 -51 -106 -11 -210 -25 -232 -30 -22 -6 -143 -15 -270 -20 -126 -5 -273 -12 -325 -16 -77 -5 -111 -2 -176 14 -73 17 -98 19 -285 11 -112 -4 -247 -13 -299 -19 -52 -6 -157 -10 -233 -9 -75 1 -140 -1 -144 -4 -10 -10 -332 -7 -458 4 -60 5 -279 13 -486 18 -207 5 -382 12 -389 16 -7 5 -43 7 -79 6 -36 -1 -104 2 -151 8 -47 6 -102 12 -123 13 -21 1 -41 6 -43 10 -7 11 -52 10 -59 -2 -7 -11 -48 -14 -58 -4 -3 4 -118 6 -254 5 -252 -2 -447 12 -638 45 -70 12 -178 16 -480 18 l-390 2 -145 36 c-80 20 -162 43 -182 52 -41 18 -78 19 -153 4z"/>
 </g>
<g id="layer108" fill="#99ccff" stroke="none">
 <path d="M1256 3788 c-28 -5 -304 -8 -653 -6 l-603 3 0 -1892 0 -1893 4800 0 4800 0 0 1891 0 1892 -92 -7 c-432 -33 -512 -36 -1008 -36 -599 -1 -731 -10 -900 -59 -74 -22 -150 -36 -260 -46 -85 -8 -195 -23 -245 -32 -49 -9 -148 -18 -220 -19 -71 -1 -208 -8 -302 -15 -172 -13 -215 -10 -323 18 -40 11 -400 0 -526 -16 -147 -18 -742 -23 -919 -8 -88 8 -263 15 -390 16 -233 1 -481 13 -655 32 -52 5 -248 12 -435 15 -340 5 -590 22 -740 51 -62 12 -168 15 -470 17 -389 1 -390 1 -503 29 -62 15 -147 38 -190 52 -83 27 -92 27 -166 13z"/>
 </g>
<g id="layer109" fill="#add6ff" stroke="none">
 <path d="M635 1716 c-100 -25 -178 -70 -259 -151 -25 -24 -58 -47 -73 -51 -127 -28 -205 -77 -245 -154 -16 -29 -28 -68 -28 -89 0 -81 71 -176 168 -225 42 -21 153 -46 209 -46 42 0 44 -2 84 -65 68 -107 149 -157 284 -174 132 -16 288 13 385 72 75 45 106 88 128 177 l18 75 78 12 c93 14 138 28 193 60 61 35 110 94 128 155 13 46 14 58 0 103 -20 70 -64 118 -145 158 -91 46 -184 61 -334 54 l-118 -5 -52 33 c-109 69 -285 95 -421 61z"/>
 <path d="M8165 1716 c-100 -25 -178 -70 -259 -151 -25 -24 -58 -47 -73 -51 -127 -28 -205 -77 -245 -154 -16 -29 -28 -68 -28 -89 0 -81 71 -176 168 -225 42 -21 153 -46 209 -46 42 0 44 -2 84 -65 68 -107 149 -157 284 -174 132 -16 288 13 385 72 75 45 106 88 128 177 l18 75 78 12 c93 14 138 28 193 60 61 35 110 94 128 155 13 46 14 58 0 103 -20 70 -64 118 -145 158 -91 46 -184 61 -334 54 l-118 -5 -52 33 c-109 69 -285 95 -421 61z"/>
 <path d="M4445 1616 c-100 -25 -178 -70 -259 -151 -25 -24 -58 -47 -73 -51 -127 -28 -205 -77 -245 -154 -16 -29 -28 -68 -28 -89 0 -81 71 -176 168 -225 42 -21 153 -46 209 -46 42 0 44 -2 84 -65 68 -107 149 -157 284 -174 132 -16 288 13 385 72 75 45 106 88 128 177 l18 75 78 12 c93 14 138 28 193 60 61 35 110 94 128 155 13 46 14 58 0 103 -20 70 -64 118 -145 158 -91 46 -184 61 -334 54 l-118 -5 -52 33 c-109 69 -285 95 -421 61z"/>
 <path d="M2385 986 c-100 -25 -178 -70 -259 -151 -25 -24 -58 -47 -73 -51 -127 -28 -205 -77 -245 -154 -16 -29 -28 -68 -28 -89 0 -81 71 -176 168 -225 42 -21 153 -46 209 -46 42 0 44 -2 84 -65 68 -107 149 -157 284 -174 132 -16 288 13 385 72 75 45 106 88 128 177 l18 75 78 12 c93 14 138 28 193 60 61 35 110 94 128 155 13 46 14 58 0 103 -20 70 -64 118 -145 158 -91 46 -184 61 -334 54 l-118 -5 -52 33 c-109 69 -285 95 -421 61z"/>
 <path d="M6415 986 c-100 -25 -178 -70 -259 -151 -25 -24 -58 -47 -73 -51 -127 -28 -205 -77 -245 -154 -16 -29 -28 -68 -28 -89 0 -81 71 -176 168 -225 42 -21 153 -46 209 -46 42 0 44 -2 84 -65 68 -107 149 -157 284 -174 132 -16 288 13 385 72 75 45 106 88 128 177 l18 75 78 12 c93 14 138 28 193 60 61 35 110 94 128 155 13 46 14 58 0 103 -20 70 -64 118 -145 158 -91 46 -184 61 -334 54 l-118 -5 -52 33 c-109 69 -285 95 -421 61z"/>
 </g>
<g id="layer110" fill="#c1e0ff" stroke="none">
 <path d="M646 1705 c-83 -21 -171 -71 -241 -137 -52 -48 -71 -59 -127 -73 -144 -36 -228 -117 -228 -219 0 -140 117 -234 322 -259 l100 -12 20 -40 c49 -95 116 -150 221 -180 77 -22 245 -15 337 14 133 42 199 109 222 227 6 32 15 64 20 70 4 6 43 14 86 16 108 7 184 39 247 102 56 56 82 122 71 178 -10 51 -53 115 -100 147 -94 65 -217 85 -431 72 -65 -5 -73 -3 -120 27 -27 18 -74 41 -105 53 -73 27 -214 34 -294 14z"/>
 <path d="M8176 1705 c-83 -21 -171 -71 -241 -137 -52 -48 -71 -59 -127 -73 -144 -36 -228 -117 -228 -219 0 -140 117 -234 322 -259 l100 -12 20 -40 c49 -95 116 -150 221 -180 77 -22 245 -15 337 14 133 42 199 109 222 227 6 32 15 64 20 70 4 6 43 14 86 16 108 7 184 39 247 102 56 56 82 122 71 178 -10 51 -53 115 -100 147 -94 65 -217 85 -431 72 -65 -5 -73 -3 -120 27 -27 18 -74 41 -105 53 -73 27 -214 34 -294 14z"/>
 <path d="M4456 1605 c-83 -21 -171 -71 -241 -137 -52 -48 -71 -59 -127 -73 -144 -36 -228 -117 -228 -219 0 -140 117 -234 322 -259 l100 -12 20 -40 c49 -95 116 -150 221 -180 77 -22 245 -15 337 14 133 42 199 109 222 227 6 32 15 64 20 70 4 6 43 14 86 16 108 7 184 39 247 102 56 56 82 122 71 178 -10 51 -53 115 -100 147 -94 65 -217 85 -431 72 -65 -5 -73 -3 -120 27 -27 18 -74 41 -105 53 -73 27 -214 34 -294 14z"/>
 <path d="M2396 975 c-83 -21 -171 -71 -241 -137 -52 -48 -71 -59 -127 -73 -144 -36 -228 -117 -228 -219 0 -140 117 -234 322 -259 l100 -12 20 -40 c49 -95 116 -150 221 -180 77 -22 245 -15 337 14 133 42 199 109 222 227 6 32 15 64 20 70 4 6 43 14 86 16 108 7 184 39 247 102 56 56 82 122 71 178 -10 51 -53 115 -100 147 -94 65 -217 85 -431 72 -65 -5 -73 -3 -120 27 -27 18 -74 41 -105 53 -73 27 -214 34 -294 14z"/>
 <path d="M6426 975 c-83 -21 -171 -71 -241 -137 -52 -48 -71 -59 -127 -73 -144 -36 -228 -117 -228 -219 0 -140 117 -234 322 -259 l100 -12 20 -40 c49 -95 116 -150 221 -180 77 -22 245 -15 337 14 133 42 199 109 222 227 6 32 15 64 20 70 4 6 43 14 86 16 108 7 184 39 247 102 56 56 82 122 71 178 -10 51 -53 115 -100 147 -94 65 -217 85 -431 72 -65 -5 -73 -3 -120 27 -27 18 -74 41 -105 53 -73 27 -214 34 -294 14z"/>
 </g>
<g id="layer111" fill="#fefeff" stroke="none">
 <path d="M630 1682 c-88 -30 -135 -58 -204 -123 -59 -55 -73 -63 -143 -80 -130 -33 -202 -97 -211 -188 -6 -63 11 -110 54 -155 66 -68 173 -106 297 -106 l63 0 27 -59 c66 -143 223 -211 422 -181 198 30 291 104 317 251 6 35 15 70 20 77 7 7 37 12 82 12 128 0 231 47 286 129 58 85 48 168 -30 242 -73 72 -137 92 -290 93 -69 1 -150 -1 -180 -4 -50 -4 -60 -2 -101 27 -80 56 -143 75 -254 79 -78 3 -112 0 -155 -14z"/>
 <path d="M8160 1682 c-88 -30 -135 -58 -204 -123 -59 -55 -73 -63 -143 -80 -130 -33 -202 -97 -211 -188 -6 -63 11 -110 54 -155 66 -68 173 -106 297 -106 l63 0 27 -59 c66 -143 223 -211 422 -181 198 30 291 104 317 251 6 35 15 70 20 77 7 7 37 12 82 12 128 0 231 47 286 129 58 85 48 168 -30 242 -73 72 -137 92 -290 93 -69 1 -150 -1 -180 -4 -50 -4 -60 -2 -101 27 -80 56 -143 75 -254 79 -78 3 -112 0 -155 -14z"/>
 <path d="M4440 1582 c-88 -30 -135 -58 -204 -123 -59 -55 -73 -63 -143 -80 -130 -33 -202 -97 -211 -188 -6 -63 11 -110 54 -155 66 -68 173 -106 297 -106 l63 0 27 -59 c66 -143 223 -211 422 -181 198 30 291 104 317 251 6 35 15 70 20 77 7 7 37 12 82 12 128 0 231 47 286 129 58 85 48 168 -30 242 -73 72 -137 92 -290 93 -69 1 -150 -1 -180 -4 -50 -4 -60 -2 -101 27 -80 56 -143 75 -254 79 -78 3 -112 0 -155 -14z"/>
 <path d="M2380 952 c-88 -30 -135 -58 -204 -123 -59 -55 -73 -63 -143 -80 -130 -33 -202 -97 -211 -188 -6 -63 11 -110 54 -155 66 -68 173 -106 297 -106 l63 0 27 -59 c66 -143 223 -211 422 -181 198 30 291 104 317 251 6 35 15 70 20 77 7 7 37 12 82 12 128 0 231 47 286 129 58 85 48 168 -30 242 -73 72 -137 92 -290 93 -69 1 -150 -1 -180 -4 -50 -4 -60 -2 -101 27 -80 56 -143 75 -254 79 -78 3 -112 0 -155 -14z"/>
 <path d="M6410 952 c-88 -30 -135 -58 -204 -123 -59 -55 -73 -63 -143 -80 -130 -33 -202 -97 -211 -188 -6 -63 11 -110 54 -155 66 -68 173 -106 297 -106 l63 0 27 -59 c66 -143 223 -211 422 -181 198 30 291 104 317 251 6 35 15 70 20 77 7 7 37 12 82 12 128 0 231 47 286 129 58 85 48 168 -30 242 -73 72 -137 92 -290 93 -69 1 -150 -1 -180 -4 -50 -4 -60 -2 -101 27 -80 56 -143 75 -254 79 -78 3 -112 0 -155 -14z"/>
 </g>

</svg>