<!DOCTYPE svg PUBLIC "-//W3C//DTD SVG 20010904//EN" "http://www.w3.org/TR/2001/REC-SVG-20010904/DTD/svg10.dtd">
<svg version="1.0" xmlns="http://www.w3.org/2000/svg" width="200px" height="200px" viewBox="0 0 2000 2000" preserveAspectRatio="xMidYMid meet">
<g id="layer101" fill="#f4f3f5" stroke="none">
 <path d="M130 1980 c0 -35 22 -114 44 -159 27 -56 76 -87 171 -106 99 -21 345 -103 368 -124 29 -24 57 -91 57 -132 0 -32 -7 -43 -62 -92 -50 -43 -68 -67 -87 -116 -20 -51 -28 -61 -48 -61 -27 0 -63 -33 -63 -58 0 -10 -13 -39 -30 -65 -16 -26 -32 -59 -34 -73 -3 -14 -9 -31 -14 -37 -6 -7 -15 -30 -22 -53 -10 -32 -10 -46 0 -63 8 -16 8 -26 0 -36 -6 -7 -10 -28 -9 -46 0 -19 -4 -50 -10 -69 -17 -55 -14 -165 6 -185 9 -9 17 -29 18 -45 3 -31 41 -100 55 -100 5 0 18 -19 28 -43 21 -48 83 -107 112 -107 11 0 20 -6 20 -14 0 -39 137 -127 176 -112 8 3 29 -3 47 -14 27 -17 50 -20 160 -20 70 0 127 4 127 8 0 14 46 31 67 26 11 -3 36 1 55 9 43 18 118 84 118 103 0 8 9 14 20 14 28 0 85 54 110 105 11 24 27 46 35 49 18 7 44 57 48 94 2 16 11 39 20 52 21 30 22 106 3 179 -7 29 -11 62 -9 72 3 10 2 27 -2 36 -4 10 -8 43 -9 73 -1 44 -11 76 -54 161 -28 59 -52 111 -52 116 0 16 -35 43 -57 43 -15 0 -27 16 -48 65 -20 48 -42 79 -83 116 -47 43 -56 57 -59 91 -5 45 14 93 49 124 26 24 258 105 364 127 116 24 145 44 187 131 24 49 37 89 37 115 l0 41 -875 0 c-866 0 -875 0 -875 -20z"/>
 </g>
<g id="layer102" fill="#d8d3db" stroke="none">
 <path d="M130 1980 c0 -35 22 -114 44 -159 27 -56 76 -87 171 -106 111 -23 346 -104 373 -129 13 -11 30 -34 37 -51 7 -16 14 -23 14 -15 0 8 -6 26 -14 40 -9 18 -10 29 -3 38 6 7 12 41 13 76 2 62 19 132 36 151 5 5 9 19 9 32 0 13 5 32 12 43 11 17 14 15 40 -31 16 -27 37 -55 48 -61 11 -7 20 -17 20 -22 0 -5 11 -19 25 -31 l26 -21 -81 -44 c-44 -24 -85 -49 -91 -57 -14 -16 -38 -126 -39 -174 0 -32 -8 -43 -62 -92 -50 -43 -68 -67 -87 -116 -20 -51 -28 -61 -48 -61 -27 0 -63 -33 -63 -58 0 -10 -13 -39 -30 -65 -16 -26 -32 -59 -34 -73 -3 -14 -9 -31 -14 -37 -6 -7 -15 -30 -22 -53 -10 -32 -10 -46 0 -63 8 -16 8 -26 0 -36 -6 -7 -10 -28 -9 -46 0 -19 -4 -50 -10 -69 -17 -55 -14 -165 6 -185 9 -9 17 -29 18 -45 3 -31 41 -100 55 -100 5 0 18 -19 28 -43 21 -48 83 -107 112 -107 11 0 20 -6 20 -14 0 -39 137 -127 176 -112 8 3 29 -3 47 -14 27 -17 50 -20 160 -20 70 0 127 4 127 8 0 14 46 31 67 26 11 -3 36 1 55 9 43 18 118 84 118 103 0 8 9 14 20 14 28 0 85 54 110 105 11 24 27 46 35 49 18 7 44 57 48 94 2 16 11 39 20 52 21 30 22 106 3 179 -7 29 -11 62 -9 72 3 10 2 27 -2 36 -4 10 -8 43 -9 73 -1 44 -11 76 -54 161 -28 59 -52 111 -52 116 0 16 -35 43 -57 43 -15 0 -27 16 -48 65 -20 48 -42 79 -83 116 -49 45 -56 57 -60 94 -4 48 13 88 50 121 26 24 258 105 364 127 116 24 145 44 187 131 24 49 37 89 37 115 l0 41 -360 0 c-359 0 -361 0 -350 -20 6 -11 8 -25 5 -31 -4 -5 0 -25 9 -43 17 -35 48 -141 48 -166 1 -8 5 -20 10 -27 5 -7 7 -26 3 -43 -4 -19 -1 -41 9 -62 16 -30 15 -33 -4 -52 l-20 -20 0 24 c0 48 -35 86 -115 126 -42 21 -79 42 -81 46 -3 4 16 29 43 55 59 57 83 92 83 118 0 13 -11 2 -30 -31 -29 -49 -32 -51 -55 -40 -24 10 -25 15 -20 61 2 28 8 62 11 78 l6 27 -76 0 c-42 0 -76 -3 -76 -6 0 -3 4 -14 10 -24 5 -10 12 -43 15 -73 6 -50 4 -56 -15 -62 -26 -8 -20 -14 -65 63 -27 47 -34 67 -26 75 6 6 11 15 11 19 0 4 -162 8 -360 8 -352 0 -360 0 -360 -20z"/>
 </g>
<g id="layer103" fill="#d7adae" stroke="none">
 <path d="M130 1980 c0 -35 22 -114 44 -159 27 -56 76 -87 171 -106 105 -22 346 -104 371 -126 20 -19 20 -18 32 14 7 19 12 49 12 68 0 34 22 123 40 164 5 11 14 45 21 75 6 30 16 63 21 73 8 16 -12 17 -352 17 -352 0 -360 0 -360 -20z"/>
 <path d="M930 1989 c0 -6 7 -39 16 -72 l16 -61 -26 -19 -26 -19 35 -40 c44 -48 40 -55 -54 -103 -36 -18 -71 -42 -78 -53 -16 -27 -43 -133 -43 -170 0 -24 -12 -40 -62 -85 -50 -43 -68 -67 -87 -116 -20 -51 -28 -61 -48 -61 -27 0 -63 -33 -63 -58 0 -10 -13 -39 -30 -65 -16 -26 -32 -59 -34 -73 -3 -14 -9 -31 -14 -37 -6 -7 -15 -30 -22 -53 -10 -32 -10 -46 0 -63 8 -16 8 -26 0 -36 -6 -7 -10 -28 -9 -46 0 -19 -4 -50 -10 -69 -17 -55 -14 -165 6 -185 9 -9 17 -29 18 -45 3 -31 41 -100 55 -100 5 0 18 -19 28 -43 21 -48 83 -107 112 -107 11 0 20 -6 20 -14 0 -39 137 -127 176 -112 8 3 29 -3 47 -14 27 -17 50 -20 160 -20 70 0 127 4 127 8 0 14 46 31 67 26 11 -3 36 1 55 9 43 18 118 84 118 103 0 8 9 14 20 14 28 0 85 54 110 105 11 24 27 46 35 49 18 7 44 57 48 94 2 16 11 39 20 52 21 30 22 106 3 179 -7 29 -11 62 -9 72 3 10 2 27 -2 36 -4 10 -8 43 -9 73 -1 44 -11 76 -54 161 -28 59 -52 111 -52 116 0 16 -35 43 -57 43 -15 0 -27 16 -48 65 -20 48 -42 79 -83 116 -30 28 -57 60 -58 72 -18 157 -35 187 -139 239 -90 45 -89 45 -50 85 19 20 35 40 35 44 0 5 -11 16 -24 25 -26 17 -27 34 -7 124 l9 40 -69 0 c-44 0 -69 -4 -69 -11z"/>
 <path d="M1171 1973 c41 -130 71 -248 76 -298 2 -33 9 -70 15 -83 11 -22 12 -22 32 -3 24 22 261 103 362 124 116 24 145 44 187 131 24 49 37 89 37 115 l0 41 -359 0 -359 0 9 -27z"/>
 </g>
<g id="layer104" fill="#e2a097" stroke="none">
 <path d="M130 1980 c0 -35 22 -114 44 -159 27 -56 76 -87 171 -106 105 -22 346 -104 371 -126 20 -19 20 -18 32 14 7 19 12 49 12 68 0 30 71 296 85 320 4 5 -136 9 -354 9 -353 0 -361 0 -361 -20z"/>
 <path d="M930 1989 c0 -6 7 -39 16 -72 l16 -61 -27 -19 -26 -20 41 -42 c38 -38 40 -43 24 -56 -19 -16 -85 -53 -126 -71 -29 -13 -48 -46 -54 -97 -3 -18 -9 -41 -14 -51 -6 -10 -10 -32 -10 -48 0 -24 -12 -41 -62 -85 -50 -43 -68 -67 -87 -116 -20 -51 -28 -61 -48 -61 -27 0 -63 -33 -63 -58 0 -10 -13 -39 -30 -65 -16 -26 -32 -59 -34 -73 -3 -14 -9 -31 -14 -37 -6 -7 -15 -30 -22 -53 -10 -32 -10 -46 0 -63 8 -16 8 -26 0 -36 -6 -7 -10 -28 -9 -46 0 -19 -4 -50 -10 -69 -17 -55 -14 -165 6 -185 9 -9 17 -29 18 -45 3 -31 41 -100 55 -100 5 0 18 -19 28 -43 21 -48 83 -107 112 -107 11 0 20 -6 20 -14 0 -39 137 -127 176 -112 8 3 29 -3 47 -14 27 -17 50 -20 160 -20 70 0 127 4 127 8 0 14 46 31 67 26 11 -3 36 1 55 9 43 18 118 84 118 103 0 8 9 14 20 14 28 0 85 54 110 105 11 24 27 46 35 49 18 7 44 57 48 94 2 16 11 39 20 52 21 30 22 106 3 179 -7 29 -11 62 -9 72 3 10 2 27 -2 36 -4 10 -8 43 -9 73 -1 44 -11 76 -54 161 -28 59 -52 111 -52 116 0 16 -35 43 -57 43 -15 0 -27 16 -48 65 -20 48 -42 79 -83 116 -41 38 -56 59 -59 82 -2 18 -7 43 -12 57 -5 14 -12 42 -16 62 -7 43 -33 66 -132 119 -63 33 -74 45 -50 55 8 3 24 19 37 36 l23 31 -28 23 -28 22 15 71 16 71 -69 0 c-44 0 -69 -4 -69 -11z"/>
 <path d="M1171 1973 c35 -110 72 -253 79 -306 4 -34 11 -70 15 -80 7 -17 9 -17 29 1 24 23 260 104 362 125 116 24 145 44 187 131 24 49 37 89 37 115 l0 41 -359 0 -359 0 9 -27z"/>
 </g>
<g id="layer105" fill="#e1857a" stroke="none">
 <path d="M130 1980 c0 -35 22 -114 44 -159 27 -56 76 -87 171 -106 105 -22 346 -104 371 -126 20 -19 20 -18 32 14 7 19 12 49 12 68 0 30 71 296 85 320 4 5 -136 9 -354 9 -353 0 -361 0 -361 -20z"/>
 <path d="M930 1989 c0 -6 7 -38 16 -72 l15 -60 -26 -21 -26 -21 45 -44 c42 -41 47 -44 70 -32 13 7 34 27 47 44 l22 30 -28 23 -28 22 15 71 16 71 -69 0 c-44 0 -69 -4 -69 -11z"/>
 <path d="M1171 1973 c35 -110 72 -253 79 -306 4 -34 11 -70 15 -80 7 -17 9 -17 29 1 24 23 260 104 362 125 116 24 145 44 187 131 24 49 37 89 37 115 l0 41 -359 0 -359 0 9 -27z"/>
 <path d="M925 1598 c-22 -11 -57 -34 -77 -50 -29 -23 -38 -26 -38 -14 0 9 -3 16 -8 16 -9 0 -32 -72 -32 -104 0 -16 -19 -40 -62 -79 -50 -43 -68 -67 -87 -116 -20 -51 -28 -61 -48 -61 -27 0 -63 -33 -63 -58 0 -10 -13 -39 -30 -65 -16 -26 -32 -59 -34 -73 -3 -14 -9 -31 -14 -37 -6 -7 -15 -30 -22 -53 -10 -32 -10 -46 0 -63 8 -16 8 -26 0 -36 -6 -7 -10 -28 -9 -46 0 -19 -4 -50 -10 -69 -17 -55 -14 -165 6 -185 9 -9 17 -29 18 -45 3 -31 41 -100 55 -100 5 0 18 -19 28 -43 21 -48 83 -107 112 -107 11 0 20 -6 20 -14 0 -39 137 -127 176 -112 8 3 29 -3 47 -14 27 -17 50 -20 160 -20 70 0 127 4 127 8 0 14 46 31 67 26 11 -3 36 1 55 9 43 18 118 84 118 103 0 8 9 14 20 14 28 0 85 54 110 105 11 24 27 46 35 49 18 7 44 57 48 94 2 16 11 39 20 52 21 30 22 106 3 179 -7 29 -11 62 -9 72 3 10 2 27 -2 36 -4 10 -8 43 -9 73 -1 44 -11 76 -54 161 -28 59 -52 111 -52 116 0 16 -35 43 -57 43 -15 0 -27 16 -48 65 -20 48 -42 79 -83 116 -45 41 -56 58 -59 87 -2 21 -8 41 -14 47 -5 5 -9 22 -9 38 0 16 -4 26 -10 22 -5 -3 -10 -16 -10 -27 l0 -21 -22 20 c-13 11 -48 35 -79 52 -66 37 -116 40 -174 9z m173 -105 c75 -43 220 -171 242 -212 41 -82 82 -224 81 -283 -1 -31 6 -76 15 -100 9 -23 17 -55 19 -69 1 -14 8 -36 14 -47 7 -13 9 -40 5 -69 -4 -26 -7 -59 -7 -72 1 -13 -12 -44 -28 -69 -16 -25 -29 -52 -29 -59 0 -7 -5 -13 -11 -13 -6 0 -24 -11 -41 -25 -37 -32 -78 -32 -126 -1 -24 16 -49 23 -71 22 -19 -2 -46 2 -60 9 -24 11 -72 9 -246 -8 -16 -2 -52 -17 -79 -35 -28 -18 -52 -32 -55 -32 -4 0 -19 9 -36 20 -16 11 -45 30 -62 41 -18 12 -30 25 -27 30 3 5 -9 29 -26 54 -26 38 -31 56 -35 120 -4 58 -1 82 11 100 9 13 13 29 10 34 -4 6 0 27 9 48 22 52 32 153 15 153 -9 0 -9 4 -3 13 6 6 23 50 38 97 49 148 56 160 149 240 109 93 167 131 214 140 46 9 65 5 120 -27z m-516 -359 c-2 -16 -9 -36 -16 -44 -8 -8 -11 -21 -8 -29 2 -8 0 -11 -5 -8 -6 4 -20 -4 -31 -16 -16 -17 -22 -38 -24 -92 -2 -57 -6 -70 -20 -73 -15 -3 -18 4 -18 45 0 36 11 69 40 128 22 44 40 85 40 91 0 15 23 35 35 31 5 -2 9 -17 7 -33z m888 -6 c0 -5 18 -46 40 -92 27 -56 40 -97 40 -125 0 -44 -2 -46 -29 -31 -15 7 -18 20 -16 67 1 37 -3 66 -13 81 -16 25 -37 30 -28 6 3 -8 2 -12 -4 -9 -6 3 -10 16 -10 29 0 13 -7 37 -16 55 -9 17 -13 39 -10 48 6 14 8 14 26 -2 11 -10 20 -22 20 -27z"/>
 <path d="M921 1350 c-33 -14 -16 -30 43 -41 43 -8 129 1 143 15 26 26 -133 48 -186 26z"/>
 <path d="M925 1180 c-18 -20 -18 -22 7 -78 15 -31 31 -73 36 -92 l10 -35 1 32 c1 18 -4 53 -11 77 -11 40 -10 47 7 66 19 21 69 27 80 10 12 -20 36 -11 33 13 -3 20 -9 22 -74 25 -60 2 -73 0 -89 -18z"/>
 <path d="M720 965 c0 -3 11 -18 25 -33 30 -32 31 -43 5 -67 -27 -24 -25 -35 4 -35 17 0 27 7 32 22 l7 22 16 -21 c18 -22 61 -40 61 -25 0 4 -11 19 -25 32 -14 13 -25 27 -25 31 0 5 14 24 31 44 l31 35 -30 0 c-21 0 -31 -6 -35 -20 -3 -11 -13 -20 -22 -20 -9 0 -19 9 -22 20 -3 13 -14 20 -29 20 -13 0 -24 -2 -24 -5z"/>
 <path d="M1140 959 c0 -7 12 -23 26 -36 l26 -24 -27 -34 c-25 -34 -26 -35 -5 -35 12 0 30 10 40 22 l17 22 7 -22 c5 -15 15 -22 32 -22 31 0 30 10 -1 40 l-25 23 25 33 c30 39 31 44 6 44 -10 0 -26 -10 -35 -22 l-15 -23 -20 23 c-20 23 -51 30 -51 11z"/>
 <path d="M875 810 c-33 -21 -120 -33 -145 -21 -23 12 -100 20 -100 11 0 -11 140 -41 181 -38 36 2 109 41 109 58 0 14 -10 11 -45 -10z"/>
 <path d="M1090 816 c0 -35 161 -67 214 -43 34 16 33 29 -1 20 -46 -13 -115 -7 -165 15 -36 16 -48 18 -48 8z"/>
 <path d="M1340 790 c0 -13 11 -13 30 0 12 8 11 10 -7 10 -13 0 -23 -4 -23 -10z"/>
 </g>
<g id="layer106" fill="#cb776c" stroke="none">
 <path d="M130 1980 c0 -35 22 -114 44 -159 27 -56 76 -87 171 -106 105 -22 346 -104 371 -126 20 -19 20 -18 32 14 7 19 12 49 12 68 0 30 71 296 85 320 4 5 -136 9 -354 9 -353 0 -361 0 -361 -20z"/>
 <path d="M930 1989 c0 -6 7 -38 16 -72 l15 -60 -26 -21 -26 -21 45 -44 c42 -41 47 -44 70 -32 13 7 34 27 47 44 l22 30 -28 23 -28 22 15 71 16 71 -69 0 c-44 0 -69 -4 -69 -11z"/>
 <path d="M1171 1973 c35 -110 72 -253 79 -306 4 -34 11 -70 15 -80 7 -17 9 -17 29 1 24 23 260 104 362 125 116 24 145 44 187 131 24 49 37 89 37 115 l0 41 -359 0 -359 0 9 -27z"/>
 <path d="M925 1598 c-22 -11 -57 -34 -77 -50 -29 -23 -38 -26 -38 -14 0 9 -3 16 -8 16 -9 0 -32 -72 -32 -104 0 -16 -19 -40 -62 -79 -50 -43 -68 -67 -87 -116 -20 -51 -28 -61 -48 -61 -27 0 -63 -33 -63 -58 0 -10 -13 -39 -30 -65 -16 -26 -32 -59 -34 -73 -3 -14 -9 -31 -14 -37 -6 -7 -15 -30 -22 -53 -10 -32 -10 -46 0 -63 8 -16 8 -26 0 -36 -6 -7 -10 -28 -9 -46 0 -19 -4 -50 -10 -69 -17 -55 -14 -165 6 -185 9 -9 17 -29 18 -45 3 -31 41 -100 55 -100 5 0 18 -19 28 -43 21 -48 83 -107 112 -107 11 0 20 -6 20 -14 0 -39 137 -127 176 -112 8 3 29 -3 47 -14 27 -17 50 -20 160 -20 70 0 127 4 127 8 0 14 46 31 67 26 11 -3 36 1 55 9 43 18 118 84 118 103 0 8 9 14 20 14 28 0 85 54 110 105 11 24 27 46 35 49 18 7 44 57 48 94 2 16 11 39 20 52 21 30 22 106 3 179 -7 29 -11 62 -9 72 3 10 2 27 -2 36 -4 10 -8 43 -9 73 -1 44 -11 76 -54 161 -28 59 -52 111 -52 116 0 16 -35 43 -57 43 -15 0 -27 16 -48 65 -20 48 -42 79 -83 116 -45 41 -56 58 -59 87 -2 21 -8 41 -14 47 -5 5 -9 22 -9 38 0 17 -4 26 -11 22 -6 -4 -8 -13 -5 -21 8 -20 -10 -26 -24 -9 -7 9 -41 31 -75 50 -73 41 -120 44 -180 13z m173 -105 c75 -43 220 -171 242 -212 41 -82 82 -224 81 -283 -1 -31 6 -76 15 -100 9 -23 17 -55 19 -69 1 -14 8 -36 14 -47 7 -13 9 -40 5 -69 -4 -26 -7 -59 -7 -72 1 -13 -12 -44 -28 -69 -16 -25 -29 -52 -29 -59 0 -7 -5 -13 -11 -13 -6 0 -24 -11 -41 -25 -37 -32 -78 -32 -126 -1 -24 16 -49 23 -71 22 -19 -2 -46 2 -60 9 -24 11 -72 9 -246 -8 -16 -2 -52 -17 -79 -35 -28 -18 -52 -32 -55 -32 -4 0 -19 9 -36 20 -16 11 -45 30 -62 41 -18 12 -30 25 -27 30 3 5 -9 29 -26 54 -26 38 -31 56 -35 120 -4 58 -1 82 11 100 9 13 13 29 10 34 -4 6 0 27 9 48 22 52 32 153 15 153 -9 0 -9 4 -3 13 6 6 23 50 38 97 49 148 56 160 149 240 109 93 167 131 214 140 46 9 65 5 120 -27z m-516 -359 c-2 -16 -9 -36 -16 -44 -8 -8 -11 -21 -8 -29 2 -8 0 -11 -5 -8 -6 4 -19 -4 -30 -16 -16 -17 -21 -36 -21 -85 -1 -70 -5 -82 -31 -82 -28 0 -12 92 32 181 20 42 37 80 37 85 0 15 23 35 35 31 5 -2 9 -17 7 -33z m888 -6 c0 -5 18 -46 40 -92 27 -56 40 -97 40 -125 0 -44 -2 -46 -29 -31 -15 7 -18 20 -16 67 1 37 -3 66 -13 81 -16 25 -37 30 -28 6 3 -8 2 -12 -4 -9 -6 3 -10 16 -10 29 0 13 -7 37 -16 55 -9 17 -13 39 -10 48 6 14 8 14 26 -2 11 -10 20 -22 20 -27z"/>
 <path d="M921 1350 c-33 -14 -16 -30 43 -41 43 -8 129 1 143 15 26 26 -133 48 -186 26z"/>
 <path d="M925 1180 c-18 -20 -18 -22 7 -78 15 -31 31 -73 36 -92 l10 -35 1 32 c1 18 -4 53 -11 77 -11 40 -10 47 7 66 19 21 69 27 80 10 12 -20 36 -11 33 13 -3 20 -9 22 -74 25 -60 2 -73 0 -89 -18z"/>
 <path d="M720 965 c0 -3 11 -18 25 -33 30 -32 31 -43 5 -67 -27 -24 -25 -35 4 -35 17 0 27 7 32 22 l7 22 16 -21 c18 -22 61 -40 61 -25 0 4 -11 19 -25 32 -14 13 -25 27 -25 31 0 5 14 24 31 44 l31 35 -30 0 c-21 0 -31 -6 -35 -20 -3 -11 -13 -20 -22 -20 -9 0 -19 9 -22 20 -3 13 -14 20 -29 20 -13 0 -24 -2 -24 -5z"/>
 <path d="M1140 959 c0 -7 12 -23 26 -36 l26 -24 -27 -34 c-25 -34 -26 -35 -5 -35 12 0 30 10 40 22 l17 22 7 -22 c5 -15 15 -22 32 -22 31 0 30 10 -1 40 l-25 23 25 33 c30 39 31 44 6 44 -10 0 -26 -10 -35 -22 l-15 -23 -20 23 c-20 23 -51 30 -51 11z"/>
 <path d="M875 810 c-33 -21 -120 -33 -145 -21 -23 12 -100 20 -100 11 0 -11 140 -41 181 -38 36 2 109 41 109 58 0 14 -10 11 -45 -10z"/>
 <path d="M1090 816 c0 -35 161 -67 214 -43 34 16 33 29 -1 20 -46 -13 -115 -7 -165 15 -36 16 -48 18 -48 8z"/>
 <path d="M1340 790 c0 -13 11 -13 30 0 12 8 11 10 -7 10 -13 0 -23 -4 -23 -10z"/>
 </g>
<g id="layer107" fill="#b8584c" stroke="none">
 <path d="M130 1980 c0 -35 22 -114 44 -159 27 -56 76 -87 171 -106 105 -22 346 -104 371 -126 20 -19 20 -18 32 14 7 19 12 49 12 68 0 30 71 296 85 320 4 5 -136 9 -354 9 -353 0 -361 0 -361 -20z"/>
 <path d="M930 1989 c0 -6 7 -38 16 -72 l15 -60 -26 -21 -26 -21 45 -44 c42 -41 47 -44 70 -32 13 7 34 27 47 44 l22 30 -28 23 -28 22 15 71 16 71 -69 0 c-44 0 -69 -4 -69 -11z"/>
 <path d="M1171 1973 c35 -110 72 -253 79 -306 4 -34 11 -70 15 -80 7 -17 9 -17 29 1 24 23 260 104 362 125 116 24 145 44 187 131 24 49 37 89 37 115 l0 41 -359 0 -359 0 9 -27z"/>
 <path d="M955 1538 c-16 -6 -57 -28 -90 -49 l-60 -38 -3 30 c-3 25 -6 28 -18 18 -8 -6 -14 -26 -14 -44 0 -27 -10 -41 -62 -88 -50 -43 -68 -67 -87 -116 -20 -51 -28 -61 -48 -61 -27 0 -63 -33 -63 -58 0 -10 -13 -39 -30 -65 -16 -26 -32 -59 -34 -73 -3 -14 -9 -31 -14 -37 -5 -7 -15 -29 -22 -51 -10 -30 -10 -43 0 -62 10 -18 10 -27 1 -38 -6 -8 -11 -29 -10 -47 0 -19 -4 -50 -10 -69 -17 -55 -14 -165 6 -185 9 -9 17 -29 18 -45 3 -31 41 -100 55 -100 5 0 18 -19 28 -43 21 -48 83 -107 112 -107 11 0 20 -6 20 -14 0 -39 137 -127 176 -112 8 3 29 -3 47 -14 27 -17 50 -20 160 -20 70 0 127 4 127 8 0 14 46 31 67 26 11 -3 36 1 55 9 43 18 118 84 118 103 0 8 9 14 20 14 28 0 85 54 110 105 11 24 27 46 35 49 18 7 44 57 48 94 2 16 11 39 20 52 21 30 22 106 3 179 -7 29 -11 62 -9 72 3 10 2 27 -2 36 -4 10 -8 43 -9 73 -1 44 -11 76 -54 161 -28 59 -52 111 -52 116 0 16 -35 43 -57 43 -15 0 -27 16 -48 65 -20 48 -42 79 -83 116 -40 37 -56 59 -59 82 -2 17 -7 33 -12 36 -4 4 -11 13 -14 21 -3 8 -6 -2 -6 -23 l-1 -39 -32 22 c-53 35 -151 80 -173 79 -11 0 -33 -5 -50 -11z m151 -41 c72 -44 197 -149 228 -189 14 -19 39 -74 56 -124 16 -49 27 -73 24 -53 -4 26 -2 38 9 42 22 8 31 -3 80 -103 88 -181 95 -210 50 -202 -44 8 -53 20 -53 77 0 63 -9 93 -21 74 -6 -10 -10 -10 -23 0 -8 7 -20 10 -26 6 -15 -9 -11 -84 6 -130 9 -22 17 -52 19 -66 1 -14 8 -37 15 -49 21 -39 4 -153 -31 -208 -16 -25 -29 -51 -29 -56 0 -11 -93 -76 -107 -76 -5 0 -30 11 -57 25 -27 14 -66 25 -86 25 -20 0 -41 5 -47 11 -12 12 -192 7 -258 -7 -22 -5 -61 -22 -87 -37 -48 -29 -48 -29 -76 -10 -16 10 -45 29 -65 41 -21 13 -37 32 -37 42 0 10 -11 32 -24 47 -20 23 -26 46 -32 107 -4 46 -3 86 3 99 12 26 30 92 45 164 9 41 8 56 -2 68 -10 12 -15 13 -28 3 -12 -10 -16 -11 -19 0 -11 30 -23 -4 -23 -62 0 -35 -5 -67 -12 -74 -18 -18 -46 -15 -51 6 -4 13 -5 11 -6 -5 0 -13 -6 -23 -11 -23 -13 0 -3 43 20 90 10 19 21 46 25 60 4 14 15 36 25 50 9 14 23 42 29 63 15 45 43 64 62 41 11 -13 16 -7 34 45 12 33 30 72 39 85 21 33 154 146 230 197 78 52 137 54 212 6z"/>
 <path d="M915 1339 c-12 -19 6 -24 90 -24 46 0 86 3 90 7 19 18 -13 28 -90 28 -49 0 -87 -4 -90 -11z"/>
 <path d="M720 965 c0 -3 11 -18 25 -33 30 -32 31 -43 5 -67 -27 -24 -25 -35 4 -35 17 0 27 7 32 22 l7 22 17 -22 c18 -22 50 -30 50 -14 0 5 -9 17 -20 27 -26 23 -25 27 5 63 31 37 31 42 1 42 -15 0 -26 -7 -29 -20 -3 -11 -13 -20 -22 -20 -9 0 -19 9 -22 20 -3 13 -14 20 -29 20 -13 0 -24 -2 -24 -5z"/>
 <path d="M1140 964 c0 -3 11 -20 25 -36 l26 -30 -26 -34 c-26 -33 -26 -34 -5 -34 12 0 30 10 40 22 l17 22 7 -22 c5 -15 15 -22 32 -22 l25 0 -25 33 -25 33 24 29 c13 17 24 33 25 38 0 16 -39 5 -54 -15 l-15 -23 -20 23 c-17 20 -51 31 -51 16z"/>
 <path d="M871 807 c-36 -22 -112 -29 -163 -14 -16 4 -28 3 -28 -2 0 -15 96 -33 138 -26 43 7 102 39 102 55 0 14 -10 12 -49 -13z"/>
 <path d="M1090 816 c0 -16 61 -43 115 -51 23 -3 59 0 85 8 l45 14 -75 0 c-56 -1 -87 5 -122 21 -35 16 -48 18 -48 8z"/>
 </g>
<g id="layer108" fill="#6a4a41" stroke="none">
 <path d="M130 1980 c0 -35 22 -114 44 -159 27 -56 76 -87 171 -106 105 -22 346 -104 371 -126 20 -19 20 -18 32 14 7 19 12 49 12 68 0 30 71 296 85 320 4 5 -136 9 -354 9 -353 0 -361 0 -361 -20z"/>
 <path d="M930 1989 c0 -6 7 -38 16 -72 l15 -60 -26 -21 -26 -21 45 -44 c42 -41 47 -44 70 -32 13 7 34 27 47 44 l22 30 -28 23 -28 22 15 71 16 71 -69 0 c-44 0 -69 -4 -69 -11z"/>
 <path d="M1171 1973 c35 -110 72 -253 79 -306 4 -34 11 -70 15 -80 7 -17 9 -17 29 1 24 23 260 104 362 125 116 24 145 44 187 131 24 49 37 89 37 115 l0 41 -359 0 -359 0 9 -27z"/>
 <path d="M930 1340 c-12 -7 -11 -10 5 -17 26 -10 124 -10 150 1 l20 8 -20 8 c-28 12 -137 12 -155 0z"/>
 <path d="M538 1003 c-19 -20 -28 -41 -30 -73 -3 -41 -7 -47 -41 -65 -43 -23 -68 -64 -66 -109 0 -17 -4 -47 -10 -66 -17 -55 -14 -165 6 -185 9 -9 17 -29 18 -45 3 -31 41 -100 55 -100 5 0 18 -19 28 -42 21 -49 83 -108 112 -108 11 0 20 -6 20 -14 0 -39 137 -127 176 -112 8 3 29 -3 47 -14 27 -17 50 -20 160 -20 70 0 127 4 127 8 0 14 46 31 67 26 11 -3 36 1 55 9 43 18 118 84 118 103 0 8 9 14 20 14 28 0 85 54 110 105 11 24 27 46 35 49 18 7 44 57 48 94 2 16 11 39 20 52 21 30 22 106 3 179 -7 29 -11 62 -9 72 9 32 -25 88 -65 107 -32 15 -38 23 -47 69 -12 60 -41 99 -62 82 -17 -15 -16 -74 3 -124 9 -22 17 -52 19 -66 1 -14 8 -37 15 -49 21 -39 4 -153 -31 -208 -16 -25 -29 -51 -29 -56 0 -11 -93 -76 -107 -76 -5 0 -30 11 -57 25 -27 14 -66 25 -86 25 -20 0 -41 5 -47 11 -12 12 -192 7 -258 -7 -22 -5 -61 -22 -87 -37 -48 -29 -48 -29 -76 -10 -16 10 -45 29 -65 41 -21 13 -37 32 -37 42 0 10 -11 32 -24 47 -20 23 -26 46 -32 107 -4 46 -3 86 3 99 12 26 30 92 45 165 10 44 9 55 -3 68 -13 13 -18 11 -41 -13z"/>
 <path d="M720 965 c0 -3 11 -18 25 -33 30 -32 31 -43 5 -67 -27 -24 -25 -35 4 -35 17 0 27 7 32 22 l7 22 17 -22 c18 -22 50 -30 50 -14 0 5 -9 17 -20 27 -26 23 -25 27 5 63 31 37 31 42 1 42 -15 0 -26 -7 -29 -20 -3 -11 -13 -20 -22 -20 -9 0 -19 9 -22 20 -3 13 -14 20 -29 20 -13 0 -24 -2 -24 -5z"/>
 <path d="M1140 964 c0 -3 11 -20 25 -36 l26 -30 -26 -34 c-26 -33 -26 -34 -5 -34 12 0 30 10 40 22 l17 22 7 -22 c5 -15 15 -22 32 -22 l25 0 -25 33 -25 33 24 29 c13 17 24 33 25 38 0 16 -39 5 -54 -15 l-15 -23 -20 23 c-17 20 -51 31 -51 16z"/>
 <path d="M871 807 c-36 -22 -112 -29 -163 -14 -16 4 -28 3 -28 -2 0 -15 96 -33 138 -26 43 7 102 39 102 55 0 14 -10 12 -49 -13z"/>
 <path d="M1090 816 c0 -16 61 -43 115 -51 23 -3 59 0 85 8 l45 14 -75 0 c-56 -1 -87 5 -122 21 -35 16 -48 18 -48 8z"/>
 </g>
<g id="layer109" fill="#533b31" stroke="none">
 <path d="M130 1980 c0 -35 22 -114 44 -159 27 -56 76 -87 171 -106 105 -22 346 -104 371 -126 20 -19 20 -18 32 14 7 19 12 49 12 68 0 30 71 296 85 320 4 5 -136 9 -354 9 -353 0 -361 0 -361 -20z"/>
 <path d="M930 1989 c0 -6 7 -38 16 -72 l15 -60 -26 -21 -27 -22 46 -42 c40 -37 48 -41 70 -31 13 6 34 25 47 42 l22 30 -28 23 -28 22 15 71 16 71 -69 0 c-44 0 -69 -4 -69 -11z"/>
 <path d="M1171 1973 c35 -110 72 -253 79 -306 4 -34 11 -70 15 -80 7 -17 9 -17 29 1 24 23 260 104 362 125 116 24 145 44 187 131 24 49 37 89 37 115 l0 41 -359 0 -359 0 9 -27z"/>
 <path d="M930 1340 c-12 -7 -11 -10 5 -17 26 -10 124 -10 150 1 l20 8 -20 8 c-28 12 -137 12 -155 0z"/>
 <path d="M538 1000 c-13 -18 -22 -41 -20 -52 6 -36 -18 -77 -51 -86 -37 -10 -68 -59 -66 -105 0 -18 -4 -48 -10 -67 -17 -55 -14 -165 6 -185 9 -9 17 -29 18 -45 3 -31 41 -100 55 -100 5 0 18 -19 28 -42 21 -49 83 -108 112 -108 11 0 20 -6 20 -14 0 -39 137 -127 176 -112 8 3 29 -3 47 -14 27 -17 50 -20 160 -20 70 0 127 4 127 8 0 14 46 31 67 26 11 -3 36 1 55 9 43 18 118 84 118 103 0 8 9 14 20 14 28 0 85 54 110 105 11 24 27 46 35 49 18 7 44 57 48 94 2 16 11 39 20 52 21 30 22 106 3 179 -7 29 -11 62 -8 73 8 31 -28 87 -65 99 -40 13 -53 35 -53 87 0 28 -7 45 -24 61 -13 12 -26 19 -29 14 -15 -24 -9 -101 11 -145 11 -26 17 -50 12 -53 -5 -3 -2 -18 5 -33 29 -58 17 -165 -25 -227 -15 -22 -25 -46 -23 -52 3 -7 -4 -16 -14 -20 -10 -3 -33 -17 -50 -31 -38 -28 -84 -25 -128 9 -19 16 -35 20 -59 16 -19 -3 -39 0 -45 6 -17 17 -190 19 -223 3 -14 -8 -38 -11 -53 -9 -18 4 -33 -1 -48 -15 -37 -35 -72 -43 -111 -27 -19 8 -38 20 -41 25 -4 6 -18 15 -31 20 -13 5 -24 17 -24 27 0 9 -12 34 -26 55 -15 21 -28 50 -31 66 -10 71 -8 125 4 149 8 15 11 33 8 40 -2 8 2 25 11 38 22 34 34 142 18 156 -9 7 -19 2 -36 -21z m464 -720 c-2 -16 -8 -30 -13 -30 -11 0 -11 3 1 34 13 34 18 33 12 -4z m64 -57 c-7 -7 -36 54 -35 74 0 10 9 -2 20 -26 11 -24 17 -46 15 -48z m46 42 c9 -20 9 -20 -6 -1 -9 11 -16 27 -15 35 0 14 1 14 6 1 3 -8 10 -24 15 -35z m-336 -40 c-9 -14 -21 -25 -27 -25 -6 0 -1 12 10 26 12 15 22 34 22 43 1 13 2 12 6 -2 3 -10 -3 -29 -11 -42z m74 -2 c0 -20 -3 -24 -11 -16 -7 7 -9 19 -6 27 10 24 17 19 17 -11z"/>
 <path d="M748 937 c27 -29 28 -51 2 -77 -26 -26 -25 -30 4 -30 16 0 27 7 31 20 3 11 9 20 13 20 4 0 13 -9 20 -20 7 -11 19 -20 28 -20 13 0 12 6 -8 32 l-25 33 24 32 c24 31 24 33 5 33 -11 0 -22 -7 -26 -15 -3 -8 -12 -15 -21 -15 -9 0 -18 7 -21 15 -4 8 -15 15 -27 15 -20 0 -20 0 1 -23z"/>
 <path d="M1150 955 c0 -3 10 -19 22 -35 l22 -30 -29 -30 c-27 -29 -28 -30 -7 -30 12 0 27 9 34 20 7 11 16 20 20 20 4 0 10 -9 13 -20 3 -11 15 -20 26 -20 24 0 24 12 -1 35 -26 24 -25 33 7 67 25 26 25 28 6 28 -11 0 -28 -10 -37 -22 l-15 -23 -20 23 c-18 20 -41 30 -41 17z"/>
 <path d="M1090 816 c0 -18 137 -63 151 -49 7 7 -6 12 -38 17 -26 3 -63 15 -80 26 -25 15 -33 16 -33 6z"/>
 <path d="M870 800 c-19 -11 -44 -20 -55 -20 -12 -1 -15 -4 -7 -7 17 -6 102 25 102 38 0 11 2 12 -40 -11z"/>
 </g>
<g id="layer110" fill="#323c42" stroke="none">
 <path d="M130 1980 c0 -35 22 -114 44 -159 27 -56 76 -87 171 -106 105 -22 346 -104 371 -126 20 -19 20 -18 32 14 7 19 12 49 12 68 0 30 71 296 85 320 4 5 -136 9 -354 9 -353 0 -361 0 -361 -20z"/>
 <path d="M930 1989 c0 -6 7 -38 16 -72 l15 -60 -26 -21 -26 -21 39 -39 c34 -32 44 -37 69 -32 17 4 40 21 53 38 l23 31 -28 23 c-29 23 -30 38 -7 127 l10 37 -69 0 c-44 0 -69 -4 -69 -11z"/>
 <path d="M1170 1980 c6 -11 14 -39 19 -62 5 -24 20 -81 34 -128 14 -47 27 -108 30 -135 3 -28 9 -58 13 -68 6 -17 8 -17 28 1 24 23 260 104 362 125 116 24 145 44 187 131 24 49 37 89 37 115 l0 41 -360 0 c-357 0 -361 0 -350 -20z"/>
 <path d="M930 1340 c-12 -7 -11 -10 5 -17 26 -10 124 -10 150 1 l20 8 -20 8 c-28 12 -137 12 -155 0z"/>
 <path d="M537 996 c-17 -18 -22 -34 -19 -54 5 -39 -13 -70 -46 -79 -42 -10 -76 -60 -71 -104 1 -13 -3 -42 -9 -64 -18 -62 -15 -170 5 -190 9 -9 17 -29 18 -45 3 -31 41 -100 55 -100 5 0 18 -19 28 -42 21 -49 83 -108 112 -108 11 0 20 -6 20 -14 0 -39 137 -127 176 -112 8 3 29 -3 47 -14 27 -17 50 -20 160 -20 70 0 127 4 127 8 0 14 46 31 67 26 11 -3 36 1 55 9 43 18 118 84 118 103 0 8 9 14 20 14 28 0 85 54 110 105 11 24 27 46 35 49 18 7 44 57 48 94 2 16 11 39 20 52 21 30 22 106 3 178 -7 29 -11 64 -8 77 5 28 -39 95 -64 95 -29 0 -54 38 -54 84 0 35 -5 48 -22 60 -12 9 -24 13 -27 10 -3 -3 1 -10 10 -15 10 -5 20 -29 24 -56 9 -65 19 -79 59 -93 36 -12 59 -53 54 -96 -1 -10 4 -59 11 -108 14 -85 14 -90 -6 -130 -12 -22 -25 -56 -28 -74 -4 -17 -21 -50 -38 -72 -18 -21 -41 -54 -52 -72 -11 -18 -36 -42 -55 -55 -19 -12 -55 -42 -80 -66 -54 -53 -105 -81 -133 -73 -11 3 -34 -2 -51 -11 -48 -26 -213 -28 -283 -4 -30 10 -63 17 -73 14 -26 -7 -90 29 -136 78 -23 24 -57 53 -75 64 -19 11 -43 35 -54 53 -11 18 -34 51 -52 73 -17 21 -37 56 -43 77 -6 20 -18 51 -26 69 -17 38 -18 82 -3 154 6 30 11 63 11 74 -1 65 9 85 49 101 45 18 59 39 59 84 0 35 15 70 31 70 24 0 -16 -131 -55 -179 -6 -8 -9 -41 -7 -78 2 -39 -2 -69 -9 -78 -9 -11 -7 -21 10 -45 17 -23 21 -42 18 -75 -2 -25 0 -45 4 -45 14 0 60 -70 62 -94 1 -21 5 -24 27 -19 19 4 35 -3 60 -25 l34 -30 28 24 c36 31 98 33 127 4 23 -23 30 -25 30 -7 0 20 33 47 57 47 21 0 53 -29 53 -48 0 -18 9 -15 42 13 35 30 71 32 97 6 12 -12 23 -16 32 -10 25 16 88 10 108 -10 19 -19 19 -19 40 5 28 32 67 46 104 38 26 -5 28 -4 19 13 -12 23 1 58 27 74 15 10 18 20 14 46 -6 38 17 73 49 73 19 0 19 1 -1 34 -25 39 -27 69 -6 86 13 11 12 16 -11 43 -17 20 -24 39 -21 54 2 13 0 26 -5 30 -6 3 -19 26 -30 50 -11 25 -22 42 -25 40 -2 -3 5 -28 17 -55 12 -28 19 -55 16 -61 -4 -6 1 -22 10 -36 24 -37 11 -158 -22 -202 -13 -18 -27 -45 -30 -61 -4 -18 -15 -33 -32 -40 -15 -7 -41 -21 -59 -32 l-32 -21 -59 30 c-33 17 -73 30 -89 31 -15 0 -66 4 -113 8 -47 4 -101 4 -120 -1 -19 -4 -49 -9 -66 -10 -17 -2 -53 -17 -82 -35 -48 -31 -52 -32 -79 -19 -15 8 -37 24 -47 36 -11 12 -27 21 -36 21 -12 0 -20 11 -24 31 -3 17 -17 44 -30 60 -33 39 -47 166 -22 203 9 14 13 31 11 39 -3 7 3 33 14 58 22 47 28 124 11 134 -5 3 -20 -5 -33 -19z"/>
 <path d="M753 932 c32 -34 33 -43 7 -67 -11 -10 -20 -22 -20 -27 0 -16 22 -8 41 15 l19 22 19 -25 c27 -34 38 -18 13 17 l-21 29 25 32 c20 25 22 32 10 32 -9 0 -21 -9 -28 -20 -7 -11 -17 -20 -23 -20 -6 0 -16 9 -23 20 -7 11 -20 20 -29 20 -13 0 -11 -6 10 -28z"/>
 <path d="M1170 925 l22 -35 -22 -30 c-16 -23 -18 -30 -7 -30 8 0 21 10 30 23 l15 22 26 -24 c32 -30 46 -21 17 10 -26 28 -26 34 0 67 26 33 6 43 -21 10 l-20 -23 -19 23 c-30 35 -45 26 -21 -13z"/>
 </g>
<g id="layer111" fill="#54251e" stroke="none">
 <path d="M130 1980 c0 -35 22 -114 44 -159 27 -56 76 -87 171 -106 109 -23 346 -104 373 -128 l22 -20 0 21 c0 11 5 24 11 28 6 3 9 17 6 30 -4 25 7 106 20 134 3 8 7 20 8 25 0 6 4 17 7 25 4 8 14 47 24 85 10 39 23 73 28 77 6 4 -152 8 -351 8 -356 0 -363 0 -363 -20z m65 -118 c-5 -5 -35 97 -34 117 0 9 9 -13 20 -48 10 -36 17 -67 14 -69z m86 -82 c24 -11 39 -20 33 -20 -15 0 -84 29 -84 35 0 8 5 6 51 -15z"/>
 <path d="M930 1988 c0 -7 9 -40 20 -73 l20 -59 -27 -22 -27 -22 37 -37 c31 -31 42 -36 65 -30 15 3 37 18 49 33 l21 27 -25 27 c-21 22 -24 33 -19 65 4 21 7 47 9 58 1 11 6 26 10 33 6 9 -8 12 -62 12 -50 0 -71 -4 -71 -12z"/>
 <path d="M1165 1992 c9 -6 34 -81 40 -122 1 -8 8 -28 14 -45 7 -16 14 -41 17 -55 2 -14 8 -47 14 -75 6 -27 8 -55 6 -62 -3 -7 -1 -15 4 -18 6 -4 10 -16 10 -27 l0 -21 23 20 c25 23 258 104 363 126 116 24 145 44 187 131 39 80 50 156 23 156 -8 0 -17 -6 -19 -12 -4 -10 -6 -10 -6 0 -1 9 -77 12 -343 12 -189 0 -338 -4 -333 -8z m671 -63 c-4 -23 -14 -53 -22 -68 -9 -15 -13 -18 -9 -6 4 11 12 41 18 68 14 58 22 62 13 6z m-86 -149 c-19 -11 -44 -19 -55 -19 -11 0 -3 6 18 14 21 7 41 16 44 19 4 3 11 6 17 6 6 -1 -5 -9 -24 -20z"/>
 <path d="M930 1340 c-12 -7 -11 -10 5 -17 26 -10 124 -10 150 1 l20 8 -20 8 c-28 12 -137 12 -155 0z"/>
 <path d="M537 996 c-17 -18 -22 -34 -19 -54 5 -39 -13 -70 -46 -79 -42 -10 -76 -60 -71 -104 1 -13 -3 -42 -9 -64 -18 -62 -15 -170 5 -190 9 -9 17 -29 18 -45 3 -31 41 -100 55 -100 5 0 18 -19 28 -42 21 -49 83 -108 112 -108 11 0 20 -6 20 -14 0 -39 137 -127 176 -112 8 3 29 -3 47 -14 27 -17 50 -20 160 -20 70 0 127 4 127 8 0 14 46 31 67 26 11 -3 36 1 55 9 43 18 118 84 118 103 0 8 9 14 20 14 28 0 85 54 110 105 11 24 27 46 35 49 18 7 44 57 48 94 2 16 11 39 20 52 21 30 22 106 3 178 -7 29 -11 64 -8 77 5 28 -39 95 -64 95 -29 0 -54 38 -54 84 0 35 -5 48 -22 60 -12 9 -24 13 -27 10 -3 -3 1 -10 10 -15 10 -5 20 -29 24 -56 9 -65 19 -79 59 -93 36 -12 59 -53 54 -96 -1 -10 4 -59 11 -108 14 -85 14 -90 -6 -130 -12 -22 -25 -56 -28 -74 -4 -17 -21 -50 -38 -72 -18 -21 -41 -54 -52 -72 -11 -18 -36 -42 -55 -55 -19 -12 -55 -42 -80 -66 -54 -53 -105 -81 -133 -73 -11 3 -34 -2 -51 -11 -48 -26 -213 -28 -283 -4 -30 10 -63 17 -73 14 -26 -7 -90 29 -136 78 -23 24 -57 53 -75 64 -19 11 -43 35 -54 53 -11 18 -34 51 -52 73 -17 21 -37 56 -43 77 -6 20 -18 51 -26 69 -17 38 -18 82 -3 154 6 30 11 63 11 74 -1 65 9 85 49 101 45 18 59 39 59 84 0 35 15 70 31 70 24 0 -16 -131 -55 -179 -6 -8 -9 -41 -7 -78 2 -39 -2 -69 -9 -78 -9 -11 -7 -21 10 -45 17 -23 21 -42 18 -75 -2 -25 0 -45 4 -45 14 0 60 -70 62 -94 1 -21 5 -24 27 -19 19 4 35 -3 60 -25 l34 -30 28 24 c36 31 98 33 127 4 23 -23 30 -25 30 -7 0 20 33 47 57 47 21 0 53 -29 53 -48 0 -18 9 -15 42 13 35 30 71 32 97 6 12 -12 23 -16 32 -10 25 16 88 10 108 -10 19 -19 19 -19 40 5 28 32 67 46 104 38 26 -5 28 -4 19 13 -12 23 1 58 27 74 15 10 18 20 14 46 -6 38 17 73 49 73 19 0 19 1 -1 34 -25 39 -27 69 -6 86 13 11 12 16 -11 43 -17 20 -24 39 -21 54 2 13 0 26 -5 30 -6 3 -19 26 -30 50 -11 25 -22 42 -25 40 -2 -3 5 -28 17 -55 12 -28 19 -55 16 -61 -4 -6 1 -22 10 -36 24 -37 11 -158 -22 -202 -13 -18 -27 -45 -30 -61 -4 -18 -15 -33 -32 -40 -15 -7 -41 -21 -59 -32 l-32 -21 -59 30 c-33 17 -73 30 -89 31 -15 0 -66 4 -113 8 -47 4 -101 4 -120 -1 -19 -4 -49 -9 -66 -10 -17 -2 -53 -17 -82 -35 -48 -31 -52 -32 -79 -19 -15 8 -37 24 -47 36 -11 12 -27 21 -36 21 -12 0 -20 11 -24 31 -3 17 -17 44 -30 60 -33 39 -47 166 -22 203 9 14 13 31 11 39 -3 7 3 33 14 58 22 47 28 124 11 134 -5 3 -20 -5 -33 -19z"/>
 <path d="M753 932 c32 -34 33 -43 7 -67 -11 -10 -20 -22 -20 -27 0 -16 22 -8 41 15 l19 22 19 -25 c27 -34 38 -18 13 17 l-21 29 25 32 c20 25 22 32 10 32 -9 0 -21 -9 -28 -20 -7 -11 -17 -20 -23 -20 -6 0 -16 9 -23 20 -7 11 -20 20 -29 20 -13 0 -11 -6 10 -28z"/>
 <path d="M1170 925 l22 -35 -22 -30 c-16 -23 -18 -30 -7 -30 8 0 21 10 30 23 l15 22 26 -24 c32 -30 46 -21 17 10 -26 28 -26 34 0 67 26 33 6 43 -21 10 l-20 -23 -19 23 c-30 35 -45 26 -21 -13z"/>
 </g>
<g id="layer112" fill="#362118" stroke="none">
 <path d="M130 1980 c0 -35 22 -114 44 -159 27 -56 76 -87 171 -106 109 -23 346 -104 373 -128 l22 -20 0 21 c0 11 5 24 11 28 6 3 9 17 6 30 -4 25 7 106 20 134 3 8 7 20 8 25 0 6 4 17 7 25 4 8 14 47 24 85 10 39 23 73 28 77 6 4 -152 8 -351 8 -356 0 -363 0 -363 -20z m65 -118 c-5 -5 -35 97 -34 117 0 9 9 -13 20 -48 10 -36 17 -67 14 -69z m86 -82 c24 -11 39 -20 33 -20 -15 0 -84 29 -84 35 0 8 5 6 51 -15z"/>
 <path d="M930 1988 c0 -7 9 -40 20 -73 l20 -59 -27 -22 -27 -22 37 -37 c31 -31 42 -36 65 -30 15 3 37 18 49 33 l21 27 -25 27 c-21 22 -24 33 -19 65 4 21 7 47 9 58 1 11 6 26 10 33 6 9 -8 12 -62 12 -50 0 -71 -4 -71 -12z"/>
 <path d="M1165 1992 c9 -6 34 -81 40 -122 1 -8 8 -28 14 -45 7 -16 14 -41 17 -55 2 -14 8 -47 14 -75 6 -27 8 -55 6 -62 -3 -7 -1 -15 4 -18 6 -4 10 -16 10 -27 l0 -21 23 20 c25 23 258 104 363 126 116 24 145 44 187 131 39 80 50 156 23 156 -8 0 -17 -6 -19 -12 -4 -10 -6 -10 -6 0 -1 9 -77 12 -343 12 -189 0 -338 -4 -333 -8z m671 -63 c-4 -23 -14 -53 -22 -68 -9 -15 -13 -18 -9 -6 4 11 12 41 18 68 14 58 22 62 13 6z m-86 -149 c-19 -11 -44 -19 -55 -19 -11 0 -3 6 18 14 21 7 41 16 44 19 4 3 11 6 17 6 6 -1 -5 -9 -24 -20z"/>
 <path d="M546 1007 c-9 -7 -20 -35 -25 -64 -9 -59 -21 -78 -56 -87 -33 -8 -66 -58 -64 -98 0 -18 -4 -49 -10 -68 -17 -55 -14 -165 6 -185 9 -9 17 -29 18 -45 3 -31 41 -100 55 -100 5 0 18 -19 28 -42 21 -49 83 -108 112 -108 11 0 20 -6 20 -14 0 -39 137 -127 176 -112 8 3 29 -3 47 -14 27 -17 50 -20 160 -20 70 0 127 4 127 8 0 14 46 31 67 26 11 -3 36 1 55 9 43 18 118 84 118 103 0 8 9 14 20 14 28 0 85 54 110 105 11 24 27 46 35 49 18 7 44 57 48 94 2 16 11 39 20 52 21 30 22 106 3 178 -7 29 -11 64 -8 77 6 31 -38 92 -70 97 -25 3 -45 36 -53 90 -6 37 -32 75 -44 63 -3 -4 1 -11 10 -16 10 -5 20 -29 24 -56 9 -65 19 -79 59 -93 36 -12 59 -53 54 -96 -1 -10 4 -59 11 -108 14 -85 14 -90 -6 -130 -12 -22 -25 -56 -28 -74 -4 -17 -21 -50 -38 -72 -18 -21 -41 -54 -52 -72 -11 -18 -36 -42 -55 -55 -19 -12 -55 -42 -80 -66 -54 -53 -105 -81 -133 -73 -11 3 -34 -2 -51 -11 -48 -26 -213 -28 -283 -4 -30 10 -63 17 -73 14 -26 -7 -90 29 -136 78 -23 24 -57 53 -75 64 -19 11 -43 35 -54 53 -11 18 -34 51 -52 73 -17 21 -37 56 -43 77 -6 20 -18 51 -26 69 -17 38 -18 82 -3 154 6 30 11 63 11 74 -1 65 9 85 49 101 45 19 59 39 59 86 0 35 23 78 35 66 12 -12 -14 -107 -41 -150 -23 -36 -27 -53 -25 -108 1 -36 -3 -71 -8 -79 -7 -10 -4 -22 10 -39 10 -14 19 -31 19 -39 0 -8 4 -12 10 -8 10 6 40 -45 40 -67 -1 -7 -7 2 -15 20 -8 18 -19 31 -25 27 -19 -12 -10 -47 20 -82 17 -19 33 -47 36 -62 5 -23 10 -27 34 -23 22 3 36 -3 58 -25 l28 -30 28 23 c15 13 35 24 44 25 39 3 68 -4 86 -19 14 -13 20 -14 23 -4 20 56 113 56 113 0 0 -15 4 -15 36 7 20 14 44 25 53 25 33 0 61 -13 61 -27 0 -11 4 -13 13 -6 25 20 67 24 97 8 17 -9 30 -21 30 -27 0 -6 9 1 20 14 24 31 72 52 104 46 22 -5 24 -2 20 21 -5 25 24 71 45 71 5 0 7 17 4 39 -5 34 -2 41 25 61 31 23 31 23 15 54 -9 17 -18 55 -20 85 -3 30 -9 63 -14 72 -6 12 -5 20 2 24 7 5 5 13 -5 24 -8 9 -22 34 -31 55 -9 21 -18 36 -21 33 -3 -3 4 -28 16 -55 12 -28 19 -55 16 -61 -4 -6 1 -22 10 -36 25 -38 12 -158 -22 -202 -13 -18 -27 -45 -30 -61 -4 -18 -15 -33 -32 -40 -15 -7 -41 -21 -59 -32 l-32 -21 -60 31 c-43 21 -69 28 -86 24 -14 -3 -31 -1 -39 5 -18 15 -198 16 -226 1 -12 -6 -29 -9 -38 -5 -9 3 -39 -9 -74 -30 -63 -40 -75 -39 -130 12 -15 14 -34 23 -45 20 -15 -3 -14 -5 7 -14 14 -6 32 -19 40 -29 12 -14 7 -13 -25 6 -51 30 -63 40 -46 40 20 0 6 59 -20 86 -37 39 -53 190 -24 214 9 7 13 21 10 30 -3 9 4 37 15 61 20 45 27 124 11 133 -4 3 -16 0 -25 -7z m930 -439 c-14 -24 -26 -39 -26 -35 0 12 44 86 48 82 2 -2 -8 -23 -22 -47z m-401 -86 c-3 -3 -40 -6 -82 -7 -43 -2 -89 -6 -103 -9 -20 -6 -19 -4 5 7 27 13 192 21 180 9z m324 -25 c-20 -12 -49 -31 -63 -41 -23 -16 -32 -17 -65 -7 -22 6 -41 18 -45 26 -4 11 5 9 37 -6 l42 -21 54 36 c29 20 58 36 65 36 6 0 -5 -10 -25 -23z m-557 3 c-13 -6 -37 -21 -55 -34 -43 -33 -77 -40 -102 -22 -11 9 -15 16 -8 16 6 0 15 -4 18 -10 11 -17 31 -11 81 24 27 19 58 35 69 35 18 0 18 -1 -3 -9z m363 0 c4 -6 -6 -7 -27 -3 -44 8 -48 13 -10 13 17 0 34 -4 37 -10z"/>
 <path d="M753 932 c32 -34 33 -43 7 -67 -11 -10 -20 -22 -20 -27 0 -16 22 -8 41 15 l19 22 19 -25 c27 -34 38 -18 13 17 l-21 29 25 32 c20 25 22 32 10 32 -9 0 -21 -9 -28 -20 -7 -11 -17 -20 -23 -20 -6 0 -16 9 -23 20 -7 11 -20 20 -29 20 -13 0 -11 -6 10 -28z"/>
 <path d="M1170 925 l22 -35 -22 -30 c-16 -23 -18 -30 -7 -30 8 0 21 10 30 23 l15 22 26 -24 c32 -30 46 -21 17 10 -26 28 -26 34 0 67 26 33 6 43 -21 10 l-20 -23 -19 23 c-30 35 -45 26 -21 -13z"/>
 <path d="M1510 735 c0 -16 16 -20 24 -6 3 5 -1 11 -9 15 -9 3 -15 0 -15 -9z"/>
 </g>
<g id="layer113" fill="#1d272d" stroke="none">
 <path d="M130 1980 c0 -35 22 -114 44 -159 27 -56 76 -87 171 -106 109 -23 346 -104 373 -128 l22 -20 0 21 c0 11 5 24 11 28 6 3 9 17 6 30 -4 25 7 106 20 134 3 8 7 20 8 25 0 6 4 17 7 25 4 8 15 50 26 93 l20 77 -354 0 c-346 0 -354 0 -354 -20z m65 -118 c-5 -5 -35 97 -34 117 0 9 9 -13 20 -48 10 -36 17 -67 14 -69z m86 -82 c24 -11 39 -20 33 -20 -15 0 -84 29 -84 35 0 8 5 6 51 -15z"/>
 <path d="M935 1990 c-3 -5 3 -37 15 -72 l20 -62 -27 -22 -27 -22 37 -37 c31 -31 42 -36 65 -30 15 3 37 18 49 33 l21 27 -25 27 c-21 22 -24 33 -19 65 3 21 8 53 10 71 l4 32 -58 0 c-32 0 -61 -4 -65 -10z"/>
 <path d="M1181 1961 c5 -21 13 -50 19 -65 5 -15 9 -30 8 -34 -1 -4 4 -20 11 -37 7 -16 14 -41 17 -55 2 -14 8 -47 14 -75 6 -27 8 -55 6 -62 -3 -7 -1 -15 4 -18 6 -4 10 -16 10 -27 l0 -21 23 20 c25 23 258 104 363 126 116 24 145 44 187 131 39 80 50 156 23 156 -8 0 -17 -6 -19 -12 -4 -10 -6 -10 -6 0 -1 9 -75 12 -335 12 l-334 0 9 -39z m655 -32 c-4 -23 -14 -53 -22 -68 -9 -15 -13 -18 -9 -6 4 11 12 41 18 68 14 58 22 62 13 6z m-86 -149 c-19 -11 -44 -19 -55 -19 -11 0 -3 6 18 14 21 7 41 16 44 19 4 3 11 6 17 6 6 -1 -5 -9 -24 -20z"/>
 <path d="M750 941 c5 -11 15 -23 20 -26 16 -10 12 -29 -10 -53 -14 -14 -16 -22 -8 -22 7 0 19 9 26 21 l13 21 25 -23 c13 -12 26 -20 29 -17 3 2 -4 13 -15 23 -26 24 -25 33 7 67 15 15 21 28 14 28 -6 0 -22 -12 -35 -27 l-23 -27 -18 27 c-20 31 -41 37 -25 8z"/>
 <path d="M1175 930 l29 -30 -22 -30 c-26 -35 -18 -39 14 -9 l23 21 13 -21 c20 -32 29 -25 10 8 -16 29 -16 31 6 60 15 20 18 31 10 31 -7 0 -19 -9 -26 -20 -7 -11 -18 -20 -25 -20 -7 0 -18 9 -25 20 -7 11 -17 20 -24 20 -6 0 1 -14 17 -30z"/>
 </g>
<g id="layer114" fill="#0b0c0e" stroke="none">
 <path d="M130 1980 c0 -35 22 -114 44 -159 27 -56 76 -87 171 -106 93 -20 344 -103 366 -121 8 -8 18 -14 21 -14 10 0 20 44 23 100 2 30 17 100 33 155 36 121 48 174 35 160 -21 -22 -83 -261 -83 -317 0 -31 -4 -60 -10 -63 -5 -3 -10 -2 -10 4 0 5 -21 24 -48 41 -37 25 -41 26 -17 6 34 -29 20 -34 -26 -10 -39 19 -196 68 -274 84 -71 14 -102 27 -132 54 -25 21 -57 98 -68 164 -7 42 -25 59 -25 22z"/>
 <path d="M585 1988 c-15 -41 -45 -132 -45 -137 0 -3 4 -1 9 5 15 15 59 144 49 144 -5 0 -11 -6 -13 -12z"/>
 <path d="M934 1985 c-4 -8 -2 -21 3 -28 5 -6 15 -32 22 -56 13 -44 12 -45 -14 -64 l-26 -20 37 -38 c21 -22 43 -39 49 -39 6 0 27 16 46 36 l34 36 -28 22 c-23 19 -26 27 -21 56 4 19 10 40 15 45 4 6 5 22 2 38 -5 25 -8 27 -59 27 -40 0 -56 -4 -60 -15z"/>
 <path d="M1185 1970 c3 -19 18 -73 31 -119 14 -45 23 -86 20 -89 -3 -3 -1 -11 5 -18 6 -7 12 -38 14 -69 2 -31 6 -59 9 -63 3 -3 6 -14 6 -25 0 -20 0 -20 23 0 25 23 258 104 363 126 116 24 145 44 187 131 24 49 37 89 37 115 0 59 -17 50 -30 -16 -26 -125 -74 -180 -175 -197 -63 -11 -246 -67 -287 -87 -52 -27 -68 -23 -33 7 18 16 22 22 9 15 -11 -5 -36 -24 -53 -40 -18 -17 -34 -31 -36 -31 -1 0 -5 33 -7 73 -5 71 -62 292 -81 312 -6 6 -7 -3 -2 -25z"/>
 <path d="M1404 1984 c4 -11 17 -43 28 -71 11 -29 23 -53 28 -53 13 0 -35 133 -50 138 -9 3 -11 -1 -6 -14z"/>
 <path d="M590 1785 c-29 -30 -32 -37 -20 -48 8 -6 11 -8 7 -3 -4 6 9 27 30 48 20 21 33 38 27 38 -6 0 -25 -16 -44 -35z"/>
 <path d="M1401 1783 c18 -21 35 -40 37 -42 1 -2 5 -1 9 3 7 7 -59 76 -73 76 -4 0 8 -17 27 -37z"/>
 <path d="M750 941 c5 -11 15 -23 20 -26 16 -10 12 -29 -10 -53 -14 -14 -16 -22 -8 -22 7 0 19 9 26 21 l13 21 25 -23 c13 -12 26 -20 29 -17 3 2 -4 13 -15 23 -26 24 -25 33 7 67 15 15 21 28 14 28 -6 0 -22 -12 -35 -27 l-23 -27 -18 27 c-20 31 -41 37 -25 8z"/>
 <path d="M1175 930 l29 -30 -22 -30 c-26 -35 -18 -39 14 -9 l23 21 13 -21 c20 -32 29 -25 10 8 -16 29 -16 31 6 60 17 24 19 31 8 31 -8 0 -18 -9 -21 -20 -3 -11 -14 -20 -23 -20 -10 0 -23 9 -30 20 -7 11 -17 20 -24 20 -6 0 1 -14 17 -30z"/>
 </g>

</svg>