<!DOCTYPE svg PUBLIC "-//W3C//DTD SVG 20010904//EN" "http://www.w3.org/TR/2001/REC-SVG-20010904/DTD/svg10.dtd">
<svg version="1.0" xmlns="http://www.w3.org/2000/svg" width="200px" height="200px" viewBox="0 0 2000 2000" preserveAspectRatio="xMidYMid meet">
<g id="layer101" fill="#f8f8f7" stroke="none">
 <path d="M130 1983 c1 -37 22 -110 46 -158 30 -61 72 -86 188 -110 105 -23 316 -96 347 -120 33 -27 64 -100 60 -144 -2 -29 -14 -46 -66 -93 -49 -45 -67 -70 -85 -117 -20 -54 -25 -60 -53 -63 -16 -2 -33 -10 -37 -18 -98 -196 -120 -254 -120 -319 0 -31 0 -66 0 -78 0 -13 -7 -49 -15 -80 -21 -81 -19 -145 5 -176 11 -14 20 -35 20 -47 0 -29 28 -88 50 -103 9 -7 25 -29 35 -49 21 -45 78 -98 105 -98 11 0 20 -6 20 -13 0 -15 65 -80 97 -96 12 -6 38 -11 58 -11 20 0 50 -8 68 -17 45 -24 248 -24 294 0 18 10 46 17 63 17 17 0 45 6 63 14 32 13 97 78 97 96 0 6 9 10 20 10 26 0 84 52 104 94 9 19 29 48 46 66 16 17 32 48 35 68 7 40 9 45 30 82 19 33 19 88 -1 163 -8 33 -16 95 -16 136 -1 82 -13 120 -89 279 -36 74 -43 82 -68 82 -25 0 -31 7 -55 64 -20 46 -44 80 -86 120 -46 44 -59 63 -62 93 -6 45 21 107 60 137 32 25 243 98 348 121 116 24 158 49 188 110 24 48 45 121 46 158 0 16 -48 17 -870 17 -822 0 -870 -1 -870 -17z"/>
 </g>
<g id="layer102" fill="#dee1e6" stroke="none">
 <path d="M130 1983 c1 -37 22 -110 46 -158 30 -61 72 -86 188 -110 105 -23 316 -96 347 -120 33 -27 64 -100 60 -144 -2 -29 -14 -46 -66 -93 -49 -45 -67 -70 -85 -117 -20 -54 -25 -60 -53 -63 -16 -2 -33 -10 -37 -18 -98 -196 -120 -254 -120 -319 0 -31 0 -66 0 -78 0 -13 -7 -49 -15 -80 -21 -81 -19 -145 5 -176 11 -14 20 -35 20 -47 0 -29 28 -88 50 -103 9 -7 25 -29 35 -49 21 -45 78 -98 105 -98 11 0 20 -6 20 -13 0 -15 65 -80 97 -96 12 -6 38 -11 58 -11 20 0 50 -8 68 -17 45 -24 248 -24 294 0 18 10 46 17 63 17 17 0 45 6 63 14 32 13 97 78 97 96 0 6 9 10 20 10 26 0 84 52 104 94 9 19 29 48 46 66 16 17 32 48 35 68 7 40 9 45 30 82 19 33 19 88 -1 163 -8 33 -16 95 -16 136 -1 82 -13 120 -89 279 -36 74 -43 82 -68 82 -25 0 -31 7 -55 64 -20 46 -44 80 -86 120 -46 44 -59 63 -62 93 -6 45 21 107 60 137 32 25 243 98 348 121 116 24 158 49 188 110 24 48 45 121 46 158 0 16 -24 17 -356 17 l-356 0 5 -27 c5 -28 -6 -56 -49 -125 l-24 -37 -26 24 c-24 23 -25 26 -15 81 17 88 19 84 -58 84 l-70 0 6 -37 c3 -21 12 -55 19 -75 13 -37 12 -38 -15 -52 l-28 -15 -37 62 c-27 47 -35 69 -30 90 l6 27 -356 0 c-332 0 -356 -1 -356 -17z m1115 -355 c9 -74 -6 -106 -24 -49 -13 45 -45 74 -131 116 -30 15 -56 28 -57 29 -2 1 19 25 45 53 27 28 57 70 67 94 l20 43 36 -115 c21 -63 40 -140 44 -171z m-305 128 l30 -25 -33 -19 c-17 -10 -54 -31 -80 -46 -53 -30 -77 -70 -77 -128 l-1 -33 -15 35 c-20 45 -12 108 28 244 17 55 32 105 35 109 3 5 23 -19 45 -52 21 -33 52 -71 68 -85z m135 -476 c0 -22 -72 -24 -120 -4 -37 16 -38 18 -17 23 13 3 49 4 80 1 42 -4 57 -9 57 -20z m-221 -289 c69 -43 75 -147 12 -210 -32 -32 -42 -36 -87 -36 -46 0 -54 3 -87 40 -21 22 -44 60 -52 83 -12 38 -12 49 1 85 8 25 24 47 39 55 36 19 131 9 174 -17z m434 2 c29 -18 62 -71 62 -101 0 -34 -36 -99 -66 -118 -38 -25 -110 -21 -141 8 -55 51 -69 143 -30 190 38 46 120 56 175 21z"/>
 <path d="M737 892 c-21 -23 -21 -27 -1 -46 21 -22 71 -21 83 2 11 21 4 35 -26 51 -29 15 -37 14 -56 -7z"/>
 <path d="M1178 899 c-24 -13 -23 -42 2 -64 18 -16 23 -17 45 -5 30 16 33 55 6 70 -24 12 -31 12 -53 -1z"/>
 </g>
<g id="layer103" fill="#deaaa6" stroke="none">
 <path d="M130 1983 c1 -37 22 -110 46 -158 30 -61 72 -86 188 -110 105 -23 321 -98 346 -120 29 -26 38 -11 50 75 5 41 22 118 38 170 16 52 33 110 37 128 l7 32 -356 0 c-332 0 -356 -1 -356 -17z"/>
 <path d="M927 1963 c3 -21 12 -54 18 -73 12 -33 11 -36 -14 -57 l-26 -22 39 -40 c39 -40 39 -41 20 -56 -10 -9 -41 -27 -69 -41 -90 -47 -107 -74 -120 -189 -7 -69 -7 -70 -70 -127 -49 -45 -67 -70 -85 -117 -20 -54 -25 -60 -53 -63 -16 -2 -33 -10 -37 -18 -98 -196 -120 -254 -120 -319 0 -31 0 -66 0 -78 0 -13 -7 -49 -15 -80 -21 -81 -19 -145 5 -176 11 -14 20 -35 20 -47 0 -29 28 -88 50 -103 9 -7 25 -29 35 -49 21 -45 78 -98 105 -98 11 0 20 -6 20 -13 0 -15 65 -80 97 -96 12 -6 38 -11 58 -11 20 0 50 -8 68 -17 45 -24 248 -24 294 0 18 10 46 17 63 17 17 0 45 6 63 14 32 13 97 78 97 96 0 6 9 10 20 10 26 0 84 52 104 94 9 19 29 48 46 66 16 17 32 48 35 68 7 40 9 45 30 82 19 33 19 88 -1 163 -8 33 -16 95 -16 136 -1 82 -13 120 -89 279 -36 74 -43 82 -68 82 -25 0 -31 7 -55 64 -20 47 -44 80 -86 121 l-59 56 -7 77 c-9 109 -24 129 -130 181 -34 16 -65 35 -69 41 -4 7 8 27 29 49 l36 37 -27 26 c-25 26 -26 28 -15 84 18 88 21 84 -57 84 l-70 0 6 -37z m147 -673 c32 -30 -60 -41 -122 -14 -37 16 -37 17 -12 25 28 9 120 1 134 -11z m-237 -291 c56 -27 77 -66 70 -132 -9 -99 -115 -157 -195 -107 -46 29 -86 117 -79 173 11 84 105 114 204 66z m460 -5 c60 -38 69 -141 17 -195 -90 -94 -224 -28 -224 110 0 51 38 98 83 104 45 5 98 -3 124 -19z"/>
 <path d="M731 886 c-16 -19 -3 -45 25 -52 45 -12 79 21 54 51 -16 19 -64 19 -79 1z"/>
 <path d="M1183 893 c-18 -7 -16 -52 2 -59 27 -11 65 5 65 26 0 28 -36 46 -67 33z"/>
 <path d="M1165 1968 c4 -18 21 -76 37 -128 16 -52 33 -129 38 -170 12 -86 21 -101 50 -75 25 22 241 97 346 120 116 24 158 49 188 110 24 48 45 121 46 158 0 16 -24 17 -356 17 l-356 0 7 -32z"/>
 </g>
<g id="layer104" fill="#e19f96" stroke="none">
 <path d="M130 1983 c1 -37 22 -110 46 -158 30 -61 72 -86 188 -110 105 -23 321 -98 346 -120 29 -26 38 -11 50 75 5 41 22 118 38 170 16 52 33 110 37 128 l7 32 -356 0 c-332 0 -356 -1 -356 -17z"/>
 <path d="M927 1963 c3 -21 12 -54 18 -73 12 -33 11 -36 -14 -57 l-26 -22 40 -40 c47 -49 46 -51 -60 -108 -65 -36 -71 -42 -86 -88 -10 -28 -20 -75 -24 -105 -7 -51 -12 -59 -70 -112 -49 -45 -67 -70 -85 -117 -20 -54 -25 -60 -53 -63 -16 -2 -33 -10 -37 -18 -98 -196 -120 -254 -120 -319 0 -31 0 -66 0 -78 0 -13 -7 -49 -15 -80 -21 -81 -19 -145 5 -176 11 -14 20 -35 20 -47 0 -29 28 -88 50 -103 9 -7 25 -29 35 -49 21 -45 78 -98 105 -98 11 0 20 -6 20 -13 0 -15 65 -80 97 -96 12 -6 38 -11 58 -11 20 0 50 -8 68 -17 45 -24 248 -24 294 0 18 10 46 17 63 17 17 0 45 6 63 14 32 13 97 78 97 96 0 6 9 10 20 10 26 0 84 52 104 94 9 19 29 48 46 66 16 17 32 48 35 68 7 40 9 45 30 82 19 33 19 88 -1 163 -8 33 -16 95 -16 136 -1 82 -13 120 -89 279 -36 74 -43 82 -68 82 -25 0 -31 7 -55 64 -20 46 -44 80 -86 120 -57 55 -59 57 -65 123 -12 113 -25 134 -108 176 -116 57 -115 55 -67 102 l40 39 -27 28 c-25 26 -26 29 -14 84 17 88 20 84 -58 84 l-70 0 6 -37z m147 -673 c32 -30 -60 -41 -122 -14 -37 16 -37 17 -12 25 28 9 120 1 134 -11z m-237 -291 c56 -27 77 -66 70 -132 -9 -99 -115 -157 -195 -107 -46 29 -86 117 -79 173 11 84 105 114 204 66z m460 -5 c60 -38 69 -141 17 -195 -90 -94 -224 -28 -224 110 0 51 38 98 83 104 45 5 98 -3 124 -19z"/>
 <path d="M731 886 c-16 -19 -3 -45 25 -52 45 -12 79 21 54 51 -16 19 -64 19 -79 1z"/>
 <path d="M1183 893 c-18 -7 -16 -52 2 -59 27 -11 65 5 65 26 0 28 -36 46 -67 33z"/>
 <path d="M1165 1968 c4 -18 21 -76 37 -128 16 -52 33 -129 38 -170 12 -86 21 -101 50 -75 25 22 241 97 346 120 116 24 158 49 188 110 24 48 45 121 46 158 0 16 -24 17 -356 17 l-356 0 7 -32z"/>
 </g>
<g id="layer105" fill="#5bbbd5" stroke="none">
 <path d="M130 1983 c1 -37 22 -110 46 -158 30 -61 72 -86 188 -110 105 -23 321 -98 346 -120 29 -26 38 -11 50 75 5 41 22 118 38 170 16 52 33 110 37 128 l7 32 -356 0 c-332 0 -356 -1 -356 -17z"/>
 <path d="M927 1963 c3 -21 12 -54 18 -73 12 -33 11 -36 -14 -57 l-26 -22 40 -40 c21 -23 46 -41 54 -41 8 0 32 17 53 37 l38 37 -27 28 c-25 26 -26 29 -14 84 17 88 20 84 -58 84 l-70 0 6 -37z"/>
 <path d="M1165 1968 c4 -18 21 -76 37 -128 16 -52 33 -129 38 -170 12 -86 21 -101 50 -75 25 22 241 97 346 120 116 24 158 49 188 110 24 48 45 121 46 158 0 16 -24 17 -356 17 l-356 0 7 -32z"/>
 <path d="M874 1565 c-36 -25 -68 -45 -70 -45 -2 0 -4 8 -4 18 0 36 -19 -12 -26 -68 -6 -51 -11 -59 -69 -112 -49 -45 -67 -70 -85 -117 -20 -54 -25 -60 -53 -63 -16 -2 -33 -10 -37 -18 -98 -196 -120 -254 -120 -319 0 -31 0 -66 0 -78 0 -13 -7 -49 -15 -80 -21 -81 -19 -145 5 -176 11 -14 20 -35 20 -47 0 -29 28 -88 50 -103 9 -7 25 -29 35 -49 21 -45 78 -98 105 -98 11 0 20 -6 20 -13 0 -15 65 -80 97 -96 12 -6 38 -11 58 -11 20 0 50 -8 68 -17 45 -24 248 -24 294 0 18 10 46 17 63 17 17 0 45 6 63 14 32 13 97 78 97 96 0 6 9 10 20 10 26 0 84 52 104 94 9 19 29 48 46 66 16 17 32 48 35 68 7 40 9 45 30 82 19 33 19 88 -1 163 -8 33 -16 95 -16 136 -1 59 -7 92 -30 151 -17 41 -36 80 -45 87 -8 6 -13 13 -12 15 5 7 -23 78 -32 78 -16 0 -9 -24 34 -111 34 -69 42 -94 39 -127 -3 -30 -8 -39 -20 -38 -9 2 -18 9 -20 17 -3 11 -1 11 8 -1 10 -13 11 -12 6 3 -3 10 -6 21 -6 23 0 3 -3 3 -7 1 -5 -3 -6 15 -5 39 3 36 -1 49 -22 75 -14 17 -26 35 -26 40 0 6 -4 8 -9 5 -8 -5 -36 72 -28 80 2 2 15 5 30 6 34 3 24 18 -12 18 -25 0 -31 7 -55 64 -20 46 -44 80 -86 120 -57 55 -58 57 -67 128 -8 59 -11 69 -19 51 -9 -22 -10 -21 -78 23 -62 39 -76 44 -127 44 -51 0 -64 -5 -125 -45z m222 -76 c104 -66 218 -168 244 -219 10 -20 34 -82 54 -138 29 -85 33 -106 25 -131 -10 -29 -9 -37 33 -186 7 -22 11 -77 11 -123 -1 -73 -5 -87 -27 -117 -14 -18 -26 -42 -27 -52 0 -17 -89 -83 -111 -83 -5 0 -28 10 -51 22 -58 30 -124 41 -247 41 -128 0 -183 -11 -235 -46 -22 -15 -44 -27 -48 -27 -19 0 -126 76 -126 89 -1 8 -12 31 -26 51 -29 42 -46 174 -27 213 6 12 13 33 16 47 3 14 13 52 22 85 13 46 14 67 6 88 -9 24 -6 44 18 116 53 159 64 175 162 259 180 153 236 172 334 111z m-510 -345 c-3 -9 -9 -27 -12 -40 -3 -13 -10 -24 -14 -24 -4 0 -7 -12 -7 -26 0 -14 -6 -31 -12 -37 -10 -9 -10 -5 -1 18 11 29 11 29 -10 10 -11 -10 -18 -25 -16 -32 3 -7 1 -12 -5 -10 -6 1 -12 -18 -13 -43 -2 -25 -6 -54 -10 -65 -7 -17 -6 -17 4 -5 8 10 10 11 8 2 -2 -8 -6 -12 -9 -10 -3 2 -13 -3 -22 -11 -15 -12 -17 -10 -17 27 0 42 11 73 67 190 26 54 39 72 55 72 14 0 18 -5 14 -16z"/>
 <path d="M873 1372 c-47 -47 47 -132 146 -132 22 0 51 5 65 11 42 20 73 107 44 126 -22 14 -240 10 -255 -5z m201 -82 c32 -30 -60 -41 -122 -14 -37 16 -37 17 -12 25 28 9 120 1 134 -11z"/>
 <path d="M931 1184 c-26 -18 -25 -30 7 -109 11 -27 25 -66 31 -85 10 -33 10 -32 6 15 -3 28 -8 67 -11 88 -4 23 -2 43 6 52 14 17 63 20 91 5 24 -13 38 12 19 35 -17 21 -118 20 -149 -1z"/>
 <path d="M648 1021 c-31 -28 -33 -33 -32 -93 2 -104 8 -124 52 -166 103 -99 250 -39 259 106 7 110 -68 182 -189 182 -50 0 -62 -4 -90 -29z m189 -22 c56 -27 77 -66 70 -132 -9 -99 -115 -157 -195 -107 -46 29 -86 117 -79 173 11 84 105 114 204 66z"/>
 <path d="M731 886 c-16 -19 -3 -45 25 -52 45 -12 79 21 54 51 -16 19 -64 19 -79 1z"/>
 <path d="M1124 1021 c-43 -26 -58 -68 -51 -148 5 -63 8 -70 46 -105 54 -51 99 -51 196 -2 39 19 62 33 53 30 -15 -4 -15 -2 -4 25 15 37 6 117 -17 153 -40 61 -159 86 -223 47z m173 -27 c60 -38 69 -141 17 -195 -90 -94 -224 -28 -224 110 0 51 38 98 83 104 45 5 98 -3 124 -19z"/>
 <path d="M1183 893 c-18 -7 -16 -52 2 -59 27 -11 65 5 65 26 0 28 -36 46 -67 33z"/>
 </g>
<g id="layer106" fill="#a89f9d" stroke="none">
 <path d="M130 1983 c1 -37 22 -110 46 -158 30 -61 72 -86 188 -110 105 -23 321 -98 346 -120 29 -26 38 -11 50 75 5 41 22 118 38 170 16 52 33 110 37 128 l7 32 -356 0 c-332 0 -356 -1 -356 -17z"/>
 <path d="M927 1963 c3 -21 12 -54 18 -73 12 -33 11 -36 -14 -57 l-26 -22 40 -40 c21 -23 46 -41 54 -41 8 0 32 17 53 37 l38 37 -27 28 c-25 26 -26 29 -14 84 17 88 20 84 -58 84 l-70 0 6 -37z"/>
 <path d="M1165 1968 c4 -18 21 -76 37 -128 16 -52 33 -129 38 -170 12 -86 21 -101 50 -75 25 22 241 97 346 120 116 24 158 49 188 110 24 48 45 121 46 158 0 16 -24 17 -356 17 l-356 0 7 -32z"/>
 <path d="M874 1565 c-36 -25 -68 -45 -70 -45 -2 0 -4 8 -4 18 0 36 -19 -12 -26 -68 -6 -51 -11 -59 -69 -112 -49 -45 -67 -70 -85 -117 -20 -54 -25 -60 -53 -63 -16 -2 -33 -10 -37 -18 -98 -196 -120 -254 -120 -319 0 -31 0 -66 0 -78 0 -13 -7 -49 -15 -80 -21 -81 -19 -145 5 -176 11 -14 20 -35 20 -47 0 -29 28 -88 50 -103 9 -7 25 -29 35 -49 21 -45 78 -98 105 -98 11 0 20 -6 20 -13 0 -15 65 -80 97 -96 12 -6 38 -11 58 -11 20 0 50 -8 68 -17 45 -24 248 -24 294 0 18 10 46 17 63 17 17 0 45 6 63 14 32 13 97 78 97 96 0 6 9 10 20 10 26 0 84 52 104 94 9 19 29 48 46 66 16 17 32 48 35 68 7 40 9 45 30 82 19 33 19 88 -1 163 -8 33 -16 95 -16 136 -1 59 -7 92 -30 151 -17 41 -36 80 -45 87 -8 6 -13 13 -12 15 5 7 -23 78 -32 78 -16 0 -9 -24 34 -111 34 -69 42 -94 39 -127 -3 -30 -8 -39 -20 -38 -9 2 -18 9 -20 17 -3 11 -1 11 8 -1 10 -13 11 -12 6 3 -3 10 -6 21 -6 23 0 3 -3 3 -7 1 -5 -3 -6 15 -5 39 3 36 -1 49 -22 75 -14 17 -26 35 -26 40 0 6 -4 8 -9 5 -8 -5 -36 72 -28 80 2 2 15 5 30 6 34 3 24 18 -12 18 -25 0 -31 7 -55 64 -20 46 -44 80 -86 120 -57 55 -58 57 -67 128 -8 59 -11 69 -19 51 -9 -22 -10 -21 -78 23 -62 39 -76 44 -127 44 -51 0 -64 -5 -125 -45z m222 -76 c104 -66 218 -168 244 -219 10 -20 34 -82 54 -138 29 -85 33 -106 25 -131 -10 -29 -9 -37 33 -186 7 -22 11 -77 11 -123 -1 -73 -5 -87 -27 -117 -14 -18 -26 -42 -27 -52 0 -17 -89 -83 -111 -83 -5 0 -28 10 -51 22 -58 30 -124 41 -247 41 -128 0 -183 -11 -235 -46 -22 -15 -44 -27 -48 -27 -19 0 -126 76 -126 89 -1 8 -12 31 -26 51 -29 42 -46 174 -27 213 6 12 13 33 16 47 3 14 13 52 22 85 13 46 14 67 6 88 -9 24 -6 44 18 116 53 159 64 175 162 259 180 153 236 172 334 111z m-510 -345 c-3 -9 -9 -27 -12 -40 -3 -13 -10 -24 -14 -24 -4 0 -7 -12 -7 -26 0 -14 -6 -31 -12 -37 -10 -9 -10 -5 -1 18 11 29 11 29 -10 10 -11 -10 -18 -25 -16 -32 3 -7 1 -12 -5 -10 -6 1 -12 -18 -13 -43 -2 -25 -6 -54 -10 -65 -7 -17 -6 -17 4 -5 8 10 10 11 8 2 -2 -8 -6 -12 -9 -10 -3 2 -13 -3 -22 -11 -15 -12 -17 -10 -17 27 0 42 11 73 67 190 26 54 39 72 55 72 14 0 18 -5 14 -16z"/>
 <path d="M873 1372 c-47 -47 47 -132 146 -132 22 0 51 5 65 11 42 20 73 107 44 126 -22 14 -240 10 -255 -5z m201 -82 c32 -30 -60 -41 -122 -14 -37 16 -37 17 -12 25 28 9 120 1 134 -11z"/>
 <path d="M931 1184 c-26 -18 -25 -30 7 -109 11 -27 25 -66 31 -85 10 -33 10 -32 6 15 -3 28 -8 67 -11 88 -4 23 -2 43 6 52 14 17 63 20 91 5 24 -13 38 12 19 35 -17 21 -118 20 -149 -1z"/>
 <path d="M648 1021 c-31 -28 -33 -33 -32 -93 2 -104 8 -124 52 -166 103 -99 250 -39 259 106 7 110 -68 182 -189 182 -50 0 -62 -4 -90 -29z m189 -22 c56 -27 77 -66 70 -132 -9 -99 -115 -157 -195 -107 -46 29 -86 117 -79 173 11 84 105 114 204 66z"/>
 <path d="M1124 1021 c-43 -26 -58 -68 -51 -148 5 -63 8 -70 46 -105 54 -51 99 -51 196 -2 39 19 62 33 53 30 -15 -4 -15 -2 -4 25 15 37 6 117 -17 153 -40 61 -159 86 -223 47z m173 -27 c60 -38 69 -141 17 -195 -90 -94 -224 -28 -224 110 0 51 38 98 83 104 45 5 98 -3 124 -19z"/>
 </g>
<g id="layer107" fill="#cf7e73" stroke="none">
 <path d="M130 1983 c1 -37 22 -110 46 -158 30 -61 72 -86 188 -110 106 -23 321 -98 347 -121 26 -24 35 -11 44 65 3 31 24 118 46 194 21 77 39 141 39 143 0 2 -160 4 -355 4 -332 0 -355 -1 -355 -17z"/>
 <path d="M932 1949 c5 -28 13 -60 17 -72 7 -17 3 -27 -18 -44 l-26 -22 40 -40 c21 -23 46 -41 55 -41 18 0 80 60 80 76 0 6 -9 19 -21 30 -18 16 -20 26 -14 69 3 27 9 60 12 73 5 21 3 22 -65 22 l-69 0 9 -51z"/>
 <path d="M1160 1996 c0 -2 18 -66 39 -143 22 -76 43 -163 46 -194 9 -76 18 -89 44 -65 26 23 241 98 347 121 116 24 158 49 188 110 24 48 45 121 46 158 0 16 -23 17 -355 17 -195 0 -355 -2 -355 -4z"/>
 <path d="M874 1565 c-36 -25 -68 -45 -70 -45 -2 0 -4 8 -4 18 0 36 -19 -12 -26 -68 -6 -51 -11 -59 -69 -112 -49 -45 -67 -70 -85 -117 -20 -54 -25 -60 -53 -63 -16 -2 -33 -10 -37 -18 -98 -196 -120 -254 -120 -319 0 -31 0 -66 0 -78 0 -13 -7 -49 -15 -80 -21 -81 -19 -145 5 -176 11 -14 20 -35 20 -47 0 -29 28 -88 50 -103 9 -7 25 -29 35 -49 21 -45 78 -98 105 -98 11 0 20 -6 20 -13 0 -15 65 -80 97 -96 12 -6 38 -11 58 -11 20 0 50 -8 68 -17 45 -24 248 -24 294 0 18 10 46 17 63 17 17 0 45 6 63 14 32 13 97 78 97 96 0 6 9 10 20 10 26 0 84 52 104 94 9 19 29 48 46 66 16 17 32 48 35 68 7 40 9 45 30 82 19 33 19 88 -1 163 -8 33 -16 95 -16 136 -1 59 -7 92 -30 151 -17 41 -36 80 -45 87 -8 6 -13 13 -12 15 5 7 -23 78 -32 78 -16 0 -9 -24 34 -111 34 -69 42 -94 39 -127 -3 -30 -8 -39 -20 -38 -9 2 -18 9 -20 17 -3 11 -1 11 8 -1 10 -13 11 -12 6 3 -3 10 -6 21 -6 23 0 3 -3 3 -7 1 -5 -3 -6 15 -5 39 3 36 -1 49 -22 75 -14 17 -26 35 -26 40 0 6 -4 8 -9 5 -8 -5 -36 72 -28 80 2 2 15 5 30 6 34 3 24 18 -12 18 -25 0 -31 7 -55 64 -20 46 -44 80 -86 120 -57 55 -58 57 -67 128 -8 59 -11 69 -19 51 -9 -22 -10 -21 -78 23 -62 39 -76 44 -127 44 -51 0 -64 -5 -125 -45z m222 -76 c104 -66 218 -168 244 -219 10 -20 34 -82 54 -138 29 -85 33 -106 25 -131 -10 -29 -9 -37 33 -186 7 -22 11 -77 11 -123 -1 -73 -5 -87 -27 -117 -14 -18 -26 -42 -27 -52 0 -17 -89 -83 -111 -83 -5 0 -28 10 -51 22 -58 30 -124 41 -247 41 -128 0 -183 -11 -235 -46 -22 -15 -44 -27 -48 -27 -19 0 -126 76 -126 89 -1 8 -12 31 -26 51 -29 42 -46 174 -27 213 6 12 13 33 16 47 3 14 13 52 22 85 13 46 14 67 6 88 -9 24 -6 44 18 116 53 159 64 175 162 259 180 153 236 172 334 111z m-510 -345 c-3 -9 -9 -27 -12 -40 -3 -13 -10 -24 -14 -24 -4 0 -7 -12 -7 -26 0 -14 -6 -31 -12 -37 -10 -9 -10 -5 -1 18 11 29 11 29 -10 10 -11 -10 -18 -25 -16 -32 3 -7 1 -12 -5 -10 -6 1 -12 -18 -13 -43 -2 -25 -6 -54 -10 -65 -7 -17 -6 -17 4 -5 8 10 10 11 8 2 -2 -8 -6 -12 -9 -10 -3 2 -13 -3 -22 -11 -15 -12 -17 -10 -17 27 0 42 11 73 67 190 26 54 39 72 55 72 14 0 18 -5 14 -16z"/>
 <path d="M873 1372 c-47 -47 47 -132 146 -132 22 0 51 5 65 11 42 20 73 107 44 126 -22 14 -240 10 -255 -5z m200 -81 c9 -10 8 -15 -8 -27 -23 -17 -71 -12 -119 13 -23 12 -26 17 -15 24 19 13 126 6 142 -10z"/>
 <path d="M931 1184 c-26 -18 -25 -30 7 -109 11 -27 25 -66 31 -85 10 -33 10 -32 6 15 -3 28 -8 67 -11 88 -4 23 -2 43 6 52 14 17 63 20 91 5 24 -13 38 12 19 35 -17 21 -118 20 -149 -1z"/>
 <path d="M648 1021 c-31 -28 -33 -33 -32 -93 2 -104 8 -124 52 -166 103 -99 250 -39 259 106 7 110 -68 182 -189 182 -50 0 -62 -4 -90 -29z m192 -19 c92 -44 96 -188 7 -242 -47 -29 -108 -26 -148 7 -88 74 -92 227 -6 252 40 12 101 5 147 -17z"/>
 <path d="M1124 1021 c-43 -26 -58 -68 -51 -148 5 -63 8 -70 46 -105 54 -51 99 -51 196 -2 39 19 62 33 53 30 -15 -4 -15 -2 -4 25 15 37 6 117 -17 153 -40 61 -159 86 -223 47z m193 -44 c101 -110 -36 -285 -163 -208 -82 50 -88 202 -10 237 19 9 53 13 85 11 47 -3 59 -9 88 -40z"/>
 </g>
<g id="layer108" fill="#b3847d" stroke="none">
 <path d="M130 1983 c1 -37 22 -110 46 -158 30 -61 72 -86 188 -110 106 -23 321 -98 347 -121 26 -24 35 -11 44 65 3 31 24 118 46 194 21 77 39 141 39 143 0 2 -160 4 -355 4 -332 0 -355 -1 -355 -17z"/>
 <path d="M932 1949 c5 -28 13 -60 17 -72 7 -17 3 -27 -18 -44 l-26 -22 40 -40 c21 -23 46 -41 55 -41 18 0 80 60 80 76 0 6 -9 19 -21 30 -18 16 -20 26 -14 69 3 27 9 60 12 73 5 21 3 22 -65 22 l-69 0 9 -51z"/>
 <path d="M1160 1996 c0 -2 18 -66 39 -143 22 -76 43 -163 46 -194 9 -76 18 -89 44 -65 26 23 241 98 347 121 116 24 158 49 188 110 24 48 45 121 46 158 0 16 -23 17 -355 17 -195 0 -355 -2 -355 -4z"/>
 <path d="M935 1530 c-11 -5 -43 -9 -72 -9 -38 -1 -55 -6 -62 -18 -6 -10 -11 -13 -11 -8 0 6 -5 3 -10 -5 -12 -19 -13 -90 -1 -90 13 0 32 26 24 33 -3 4 1 7 9 7 9 0 43 18 76 40 33 22 64 40 70 40 6 0 14 5 17 10 7 12 -12 12 -40 0z"/>
 <path d="M1020 1537 c0 -3 20 -16 44 -28 24 -12 67 -39 96 -61 55 -42 70 -42 70 0 0 24 -19 70 -20 48 0 -6 -6 -3 -12 6 -8 10 -35 18 -73 21 -33 3 -70 8 -82 12 -13 4 -23 5 -23 2z"/>
 <path d="M1244 1394 c2 -10 8 -20 14 -22 17 -5 15 13 -2 27 -12 10 -14 9 -12 -5z"/>
 <path d="M715 1370 c-19 -21 -13 -42 7 -22 10 10 21 42 14 42 -2 0 -11 -9 -21 -20z"/>
 <path d="M873 1372 c-47 -47 47 -132 146 -132 22 0 51 5 65 11 42 20 73 107 44 126 -22 14 -240 10 -255 -5z m192 -12 c-3 -5 -18 -9 -33 -9 l-27 1 30 8 c17 4 31 8 33 9 2 0 0 -3 -3 -9z m8 -69 c9 -10 8 -15 -8 -27 -23 -17 -71 -12 -119 13 -23 12 -26 17 -15 24 19 13 126 6 142 -10z"/>
 <path d="M642 1293 c-16 -32 -49 -126 -73 -206 -15 -51 -27 -76 -35 -73 -17 6 -26 -19 -29 -78 -2 -34 -8 -54 -21 -63 -27 -20 -34 -16 -34 16 0 34 -18 51 -31 30 -5 -8 -9 -41 -9 -74 0 -33 0 -70 0 -82 0 -13 -7 -49 -15 -80 -21 -81 -19 -145 5 -176 11 -14 20 -35 20 -47 0 -29 28 -88 50 -103 9 -7 25 -29 35 -49 21 -45 78 -98 105 -98 11 0 20 -6 20 -13 0 -15 65 -80 97 -96 12 -6 38 -11 58 -11 20 0 50 -8 68 -17 45 -24 248 -24 294 0 18 10 46 17 63 17 17 0 45 6 63 14 32 13 97 78 97 96 0 6 9 10 20 10 26 0 84 52 104 94 9 19 29 48 46 66 16 17 32 48 35 68 7 40 9 45 30 82 19 33 19 88 -1 163 -8 33 -16 95 -16 136 -1 75 -21 151 -40 151 -6 0 -7 -7 -2 -17 4 -10 7 -28 7 -40 -1 -13 3 -20 8 -17 5 3 9 -4 9 -15 0 -15 -6 -19 -27 -16 -39 4 -52 29 -48 90 4 43 1 56 -16 71 -19 17 -20 17 -13 -2 7 -17 6 -17 -9 -5 -9 7 -17 17 -17 22 0 15 -21 62 -26 57 -2 -3 0 -18 6 -33 7 -20 7 -37 0 -60 -7 -22 -8 -45 -1 -71 26 -101 34 -131 44 -151 17 -38 0 -170 -29 -212 -13 -19 -24 -42 -25 -51 0 -15 -92 -80 -113 -80 -6 0 -29 10 -51 22 -55 30 -121 41 -245 41 -132 -1 -172 -8 -229 -44 -25 -16 -49 -29 -54 -29 -19 0 -126 76 -126 89 -1 8 -12 31 -26 51 -20 29 -27 54 -32 118 -4 55 -2 86 6 95 6 8 10 25 10 38 -1 13 6 42 16 63 20 47 25 128 8 133 -13 5 41 172 78 245 10 20 19 40 19 43 0 12 -20 4 -28 -12z"/>
 <path d="M1330 1305 c0 -4 7 -19 15 -35 22 -42 38 -37 18 5 -14 30 -33 47 -33 30z"/>
 <path d="M1376 1198 c11 -39 33 -88 38 -88 3 0 4 12 3 27 -2 24 2 28 25 27 15 -1 25 3 22 8 -4 6 -17 8 -31 5 -19 -3 -27 1 -35 19 -14 30 -32 31 -22 2z"/>
 <path d="M932 1184 c-12 -8 -22 -23 -21 -32 0 -14 2 -13 8 3 4 11 19 22 32 25 13 3 19 9 13 13 -6 3 -20 -1 -32 -9z"/>
 <path d="M531 1166 c-7 -8 -8 -17 -3 -20 6 -3 15 1 21 8 7 8 8 17 3 20 -6 3 -15 -1 -21 -8z"/>
 <path d="M1460 1146 c0 -3 4 -16 10 -30 14 -37 32 -33 19 4 -6 17 -15 30 -20 30 -5 0 -9 -2 -9 -4z"/>
 <path d="M502 1098 c-7 -18 -12 -35 -11 -37 0 -2 -4 -7 -10 -10 -14 -9 -43 -81 -32 -81 8 0 81 138 81 153 0 19 -17 3 -28 -25z"/>
 <path d="M1502 1051 c2 -7 7 -12 11 -12 12 1 9 15 -3 20 -7 2 -11 -2 -8 -8z"/>
 <path d="M648 1021 c-31 -28 -33 -33 -32 -93 2 -104 8 -124 52 -166 103 -99 250 -39 259 106 7 110 -68 182 -189 182 -50 0 -62 -4 -90 -29z m192 -19 c92 -44 96 -188 7 -242 -47 -29 -108 -26 -148 7 -88 74 -92 227 -6 252 40 12 101 5 147 -17z"/>
 <path d="M1124 1021 c-43 -26 -58 -68 -51 -148 5 -63 8 -70 46 -105 54 -51 99 -51 196 -2 39 19 62 33 53 30 -15 -4 -15 -2 -4 25 15 37 6 117 -17 153 -40 61 -159 86 -223 47z m193 -44 c101 -110 -36 -285 -163 -208 -82 50 -88 202 -10 237 19 9 53 13 85 11 47 -3 59 -9 88 -40z"/>
 <path d="M1526 1021 c-5 -7 -3 -18 3 -24 14 -14 20 -6 11 17 -5 15 -9 16 -14 7z"/>
 </g>
<g id="layer109" fill="#c7695e" stroke="none">
 <path d="M130 1983 c1 -37 22 -110 46 -158 30 -61 72 -86 188 -110 106 -23 321 -98 347 -121 26 -24 35 -10 44 69 4 33 25 121 46 195 22 74 39 136 39 138 0 2 -160 4 -355 4 -332 0 -355 -1 -355 -17z"/>
 <path d="M932 1949 c5 -28 13 -60 17 -72 7 -17 3 -27 -18 -44 l-26 -22 40 -40 c21 -23 46 -41 55 -41 18 0 80 60 80 76 0 6 -9 19 -21 30 -18 16 -20 26 -14 69 3 27 9 60 12 73 5 21 3 22 -65 22 l-69 0 9 -51z"/>
 <path d="M1160 1996 c0 -2 18 -66 39 -143 22 -76 43 -163 46 -194 9 -76 18 -89 44 -65 26 23 241 98 347 121 116 24 158 49 188 110 24 48 45 121 46 158 0 16 -23 17 -355 17 -195 0 -355 -2 -355 -4z"/>
 <path d="M935 1530 c-11 -5 -43 -9 -72 -9 -38 -1 -55 -6 -62 -18 -6 -10 -11 -13 -11 -8 0 6 -5 3 -10 -5 -12 -19 -13 -90 -1 -90 13 0 32 26 24 33 -3 4 1 7 9 7 9 0 43 18 76 40 33 22 64 40 70 40 6 0 14 5 17 10 7 12 -12 12 -40 0z"/>
 <path d="M1020 1537 c0 -3 20 -16 44 -28 24 -12 67 -39 96 -61 55 -42 70 -42 70 0 0 24 -19 70 -20 48 0 -6 -6 -3 -12 6 -8 10 -35 18 -73 21 -33 3 -70 8 -82 12 -13 4 -23 5 -23 2z"/>
 <path d="M1244 1394 c2 -10 8 -20 14 -22 17 -5 15 13 -2 27 -12 10 -14 9 -12 -5z"/>
 <path d="M715 1370 c-19 -21 -13 -42 7 -22 10 10 21 42 14 42 -2 0 -11 -9 -21 -20z"/>
 <path d="M881 1374 c-30 -22 -26 -47 13 -82 89 -78 221 -62 241 29 4 15 1 38 -5 50 -11 19 -17 21 -63 14 -76 -10 -98 -10 -133 -3 -21 5 -38 2 -53 -8z m184 -14 c-3 -5 -18 -9 -33 -9 l-27 1 30 8 c17 4 31 8 33 9 2 0 0 -3 -3 -9z m7 -68 c9 -9 8 -16 -4 -29 -15 -14 -24 -15 -72 -4 -57 13 -88 34 -64 45 22 9 128 0 140 -12z"/>
 <path d="M642 1293 c-16 -32 -49 -126 -73 -206 -14 -49 -27 -76 -35 -73 -17 7 -33 -37 -28 -78 3 -27 -1 -41 -16 -56 -28 -28 -40 -25 -40 9 0 34 -18 51 -31 30 -5 -8 -9 -41 -9 -74 0 -33 0 -70 0 -82 0 -13 -7 -49 -15 -80 -21 -81 -19 -145 5 -176 11 -14 20 -35 20 -47 0 -29 28 -88 50 -103 9 -7 25 -29 35 -49 21 -45 78 -98 105 -98 11 0 20 -6 20 -13 0 -15 65 -80 97 -96 12 -6 38 -11 58 -11 20 0 50 -8 68 -17 45 -24 248 -24 294 0 18 10 46 17 63 17 17 0 45 6 63 14 32 13 97 78 97 96 0 6 9 10 20 10 26 0 84 52 104 94 9 19 29 48 46 66 16 17 32 48 35 68 7 40 9 45 30 82 19 33 19 88 -1 163 -8 33 -16 95 -16 136 -1 75 -21 151 -40 151 -6 0 -7 -7 -2 -17 4 -10 7 -28 7 -40 -1 -13 3 -20 8 -17 5 3 9 -4 9 -15 0 -15 -6 -19 -27 -16 -39 4 -52 29 -48 90 4 43 1 56 -16 71 -18 16 -19 16 -13 1 3 -9 2 -17 -4 -17 -6 0 -16 17 -22 38 -7 20 -17 42 -22 47 -7 7 -7 2 -2 -15 4 -14 7 -36 6 -50 -5 -71 -1 -113 14 -147 9 -21 16 -50 15 -65 -1 -15 4 -30 10 -33 6 -4 9 -38 8 -88 -3 -69 -7 -86 -31 -121 -15 -23 -28 -48 -28 -57 0 -18 -92 -79 -118 -79 -9 0 -33 10 -52 22 -39 24 -98 36 -214 45 -96 6 -171 -8 -248 -48 -31 -16 -63 -29 -70 -29 -7 0 -33 16 -57 35 -24 19 -48 35 -52 35 -5 0 -9 8 -9 18 0 9 -14 37 -30 61 -27 40 -30 52 -30 122 0 43 5 81 10 84 6 4 10 18 9 33 -1 15 6 44 15 64 19 44 24 130 8 136 -12 4 43 174 79 244 10 20 19 40 19 43 0 12 -20 4 -28 -12z"/>
 <path d="M1330 1305 c0 -4 7 -19 15 -35 22 -42 38 -37 18 5 -14 30 -33 47 -33 30z"/>
 <path d="M1376 1198 c11 -39 33 -88 38 -88 3 0 4 12 3 27 -2 24 2 28 25 27 15 -1 25 3 22 8 -4 6 -17 8 -31 5 -19 -3 -27 1 -35 19 -14 30 -32 31 -22 2z"/>
 <path d="M932 1184 c-12 -8 -22 -23 -21 -32 0 -14 2 -13 8 3 4 11 19 22 32 25 13 3 19 9 13 13 -6 3 -20 -1 -32 -9z"/>
 <path d="M531 1166 c-7 -8 -8 -17 -3 -20 6 -3 15 1 21 8 7 8 8 17 3 20 -6 3 -15 -1 -21 -8z"/>
 <path d="M1460 1146 c0 -3 4 -16 10 -30 14 -37 32 -33 19 4 -6 17 -15 30 -20 30 -5 0 -9 -2 -9 -4z"/>
 <path d="M502 1098 c-7 -18 -12 -35 -11 -37 0 -2 -4 -7 -10 -10 -14 -9 -43 -81 -32 -81 8 0 81 138 81 153 0 19 -17 3 -28 -25z"/>
 <path d="M1502 1051 c2 -7 7 -12 11 -12 12 1 9 15 -3 20 -7 2 -11 -2 -8 -8z"/>
 <path d="M670 1038 c-31 -16 -60 -72 -60 -115 0 -42 26 -119 52 -154 22 -30 53 -45 108 -54 75 -12 160 76 160 164 0 50 -36 117 -76 142 -44 27 -147 36 -184 17z m138 -23 c158 -47 130 -275 -35 -275 -131 0 -202 244 -80 279 46 13 57 13 115 -4z"/>
 <path d="M1145 1030 c-46 -18 -69 -58 -73 -123 -8 -141 93 -208 223 -148 60 28 75 54 75 128 0 45 -5 58 -32 89 -18 20 -47 43 -65 50 -36 15 -97 17 -128 4z m172 -53 c101 -110 -36 -285 -163 -208 -82 50 -89 202 -10 237 19 9 53 13 85 11 47 -3 59 -9 88 -40z"/>
 <path d="M1526 1021 c-5 -7 -3 -18 3 -24 14 -14 20 -6 11 17 -5 15 -9 16 -14 7z"/>
 </g>
<g id="layer110" fill="#a36c64" stroke="none">
 <path d="M130 1983 c1 -37 22 -110 46 -158 30 -61 72 -86 188 -110 106 -23 321 -98 347 -121 26 -24 35 -10 44 69 4 33 25 121 46 195 22 74 39 136 39 138 0 2 -160 4 -355 4 -332 0 -355 -1 -355 -17z"/>
 <path d="M932 1949 c5 -28 13 -60 17 -72 7 -17 3 -27 -18 -44 l-26 -22 40 -40 c21 -23 46 -41 55 -41 18 0 80 60 80 76 0 6 -9 19 -21 30 -18 16 -20 26 -14 69 3 27 9 60 12 73 5 21 3 22 -65 22 l-69 0 9 -51z"/>
 <path d="M1160 1996 c0 -2 18 -66 39 -143 22 -76 43 -163 46 -194 9 -76 18 -89 44 -65 26 23 241 98 347 121 116 24 158 49 188 110 24 48 45 121 46 158 0 16 -23 17 -355 17 -195 0 -355 -2 -355 -4z"/>
 <path d="M881 1374 c-30 -22 -26 -47 13 -82 89 -78 221 -62 241 29 4 15 1 38 -5 50 -11 19 -17 21 -63 14 -76 -10 -98 -10 -133 -3 -21 5 -38 2 -53 -8z m236 -11 c6 -18 -38 -26 -78 -15 l-34 9 35 11 c43 13 72 11 77 -5z m-45 -71 c9 -9 8 -16 -4 -29 -15 -14 -24 -15 -72 -4 -57 13 -88 34 -64 45 22 9 128 0 140 -12z"/>
 <path d="M670 1038 c-31 -16 -60 -72 -60 -115 0 -42 26 -119 52 -154 22 -30 53 -45 108 -54 75 -12 160 76 160 164 0 50 -36 117 -76 142 -44 27 -147 36 -184 17z m138 -23 c158 -47 130 -275 -35 -275 -131 0 -202 244 -80 279 46 13 57 13 115 -4z"/>
 <path d="M1145 1030 c-46 -18 -69 -58 -73 -123 -8 -141 93 -208 223 -148 60 28 75 54 75 128 0 45 -5 58 -32 89 -18 20 -47 43 -65 50 -36 15 -97 17 -128 4z m172 -53 c101 -110 -36 -285 -163 -208 -82 50 -89 202 -10 237 19 9 53 13 85 11 47 -3 59 -9 88 -40z"/>
 <path d="M519 1015 c0 0 -2 -20 -5 -45 -8 -81 -12 -89 -57 -110 -43 -21 -45 -24 -47 -94 -1 -17 -8 -55 -16 -85 -20 -79 -18 -143 6 -174 11 -14 20 -35 20 -47 0 -29 28 -88 50 -103 9 -7 25 -29 35 -49 21 -45 78 -98 105 -98 11 0 20 -6 20 -13 0 -15 65 -80 97 -96 12 -6 38 -11 58 -11 20 0 50 -8 68 -17 45 -24 248 -24 294 0 18 10 46 17 63 17 17 0 45 6 63 14 32 13 97 78 97 96 0 6 9 10 20 10 26 0 84 52 104 94 9 19 29 48 46 66 16 17 32 48 35 68 7 40 9 45 30 82 19 32 19 87 1 159 -8 31 -16 81 -18 113 -2 31 -5 56 -8 55 -3 0 -21 6 -42 15 -39 17 -43 26 -53 103 -6 46 -8 50 -35 52 -20 1 -29 -3 -33 -17 -6 -23 9 -103 25 -133 6 -12 11 -34 10 -49 -1 -15 3 -30 9 -33 6 -4 9 -38 8 -88 -3 -69 -7 -86 -31 -121 -15 -23 -28 -48 -28 -57 0 -18 -92 -79 -118 -79 -9 0 -33 10 -52 22 -39 24 -98 36 -214 45 -96 6 -171 -8 -248 -48 -31 -16 -63 -29 -70 -29 -7 0 -33 16 -57 35 -24 19 -48 35 -52 35 -5 0 -9 8 -9 18 0 9 -14 37 -30 61 -27 40 -30 52 -30 122 0 43 5 81 10 84 6 4 10 18 9 33 -1 15 5 43 14 62 14 32 21 78 18 122 -1 13 -9 17 -31 15 -16 -1 -30 -2 -31 -2z"/>
 </g>
<g id="layer111" fill="#645652" stroke="none">
 <path d="M130 1983 c1 -37 22 -110 46 -158 30 -61 72 -86 188 -110 106 -23 321 -98 347 -121 27 -24 33 -13 47 84 6 42 24 120 40 172 16 52 32 107 36 123 l6 27 -355 0 c-332 0 -355 -1 -355 -17z"/>
 <path d="M931 1953 c5 -27 13 -60 18 -75 8 -24 6 -30 -17 -47 l-27 -20 40 -40 c21 -23 45 -41 52 -41 17 0 83 59 83 75 0 8 -10 21 -21 29 -19 13 -21 21 -15 68 4 29 10 63 13 76 5 21 3 22 -65 22 l-69 0 8 -47z"/>
 <path d="M1160 1996 c0 -2 17 -64 39 -138 21 -74 42 -162 46 -195 9 -79 18 -93 44 -69 26 23 241 98 347 121 116 24 158 49 188 110 24 48 45 121 46 158 0 16 -23 17 -355 17 -195 0 -355 -2 -355 -4z"/>
 <path d="M1046 1383 c-4 -5 -44 -8 -88 -8 -65 0 -83 -3 -92 -17 -8 -13 -6 -23 10 -45 30 -39 74 -63 131 -69 61 -6 92 10 117 59 25 53 11 87 -37 87 -19 0 -37 -3 -41 -7z m71 -20 c6 -18 -38 -26 -78 -15 l-34 9 35 11 c43 13 72 11 77 -5z m-68 -59 c35 -7 39 -29 9 -48 -19 -11 -101 5 -126 26 -28 24 42 37 117 22z"/>
 <path d="M673 1035 c-35 -15 -48 -34 -58 -87 -10 -51 19 -141 58 -184 109 -119 292 1 248 162 -25 95 -153 151 -248 109z m166 -33 c49 -24 74 -63 74 -114 0 -86 -59 -148 -140 -148 -127 0 -199 226 -88 277 36 16 105 10 154 -15z"/>
 <path d="M1129 1017 c-49 -33 -61 -62 -56 -133 9 -127 101 -180 218 -125 56 26 79 64 79 128 0 39 -6 55 -30 84 -57 70 -147 89 -211 46z m161 -13 c87 -52 78 -201 -15 -240 -82 -34 -149 -2 -178 85 -24 73 -9 128 43 153 44 22 113 23 150 2z"/>
 <path d="M540 1005 c-7 -8 -16 -13 -20 -10 -4 2 -8 -19 -9 -47 -2 -54 -21 -88 -50 -88 -37 -1 -52 -28 -52 -94 0 -17 -7 -55 -15 -85 -20 -79 -18 -143 6 -174 11 -14 20 -35 20 -47 0 -29 28 -88 50 -103 9 -7 25 -29 35 -49 21 -45 78 -98 105 -98 11 0 20 -6 20 -13 0 -15 65 -80 97 -96 12 -6 38 -11 58 -11 20 0 50 -8 68 -17 45 -24 248 -24 294 0 18 10 46 17 63 17 17 0 45 6 63 14 32 13 97 78 97 96 0 6 9 10 20 10 26 0 84 52 104 94 9 19 29 48 46 66 16 17 32 48 35 68 7 40 9 45 30 82 19 32 19 87 1 159 -8 31 -16 81 -18 113 -2 31 -6 54 -10 52 -4 -2 -9 0 -13 6 -3 5 -15 10 -25 10 -25 0 -50 37 -50 76 0 34 -33 84 -56 84 -20 0 -19 -90 2 -138 9 -20 17 -48 19 -62 2 -14 8 -46 13 -72 11 -62 1 -131 -26 -167 -12 -16 -24 -40 -27 -54 -7 -26 -90 -87 -119 -87 -9 0 -39 11 -66 25 -28 14 -62 24 -77 23 -16 -1 -37 3 -48 9 -28 15 -183 14 -215 -1 -14 -7 -33 -11 -43 -8 -10 2 -39 -10 -66 -27 -59 -38 -77 -39 -121 -3 -19 16 -43 31 -52 35 -10 3 -18 15 -18 26 0 11 -12 33 -26 50 -30 36 -44 113 -31 181 4 25 9 56 11 70 3 14 11 42 20 62 20 48 22 138 2 138 -7 0 -19 -7 -26 -15z"/>
 </g>
<g id="layer112" fill="#922626" stroke="none">
 <path d="M130 1983 c1 -37 22 -110 46 -158 30 -61 72 -86 188 -110 106 -23 321 -98 347 -121 27 -24 34 -11 43 72 4 34 20 107 37 161 16 54 34 115 38 136 l9 37 -354 0 c-331 0 -354 -1 -354 -17z"/>
 <path d="M930 1977 c0 -13 7 -46 15 -73 15 -49 15 -49 -11 -70 l-26 -22 37 -41 c21 -22 43 -41 51 -41 18 0 84 59 84 75 0 7 -11 22 -25 32 -22 16 -23 22 -16 58 5 22 11 55 15 73 l6 32 -65 0 c-61 0 -65 -1 -65 -23z"/>
 <path d="M1167 1978 c3 -13 20 -75 38 -138 18 -63 36 -142 40 -176 9 -80 17 -94 44 -70 26 23 241 98 347 121 116 24 158 49 188 110 24 48 45 121 46 158 0 16 -23 17 -354 17 l-354 0 5 -22z"/>
 <path d="M1046 1383 c-4 -5 -44 -8 -88 -8 -65 0 -83 -3 -92 -17 -23 -38 58 -105 135 -112 24 -2 35 -2 24 1 -48 10 -106 36 -102 47 6 16 142 15 159 -2 11 -11 10 -16 -6 -28 -23 -17 -13 -19 16 -3 29 16 50 72 38 104 -8 20 -16 25 -43 25 -19 0 -37 -3 -41 -7z m71 -20 c6 -18 -38 -26 -78 -15 l-34 9 35 11 c43 13 72 11 77 -5z"/>
 <path d="M684 1040 c-57 -18 -81 -81 -64 -166 17 -80 62 -134 125 -150 45 -12 54 -11 92 7 118 57 119 234 2 294 -35 19 -117 26 -155 15z m118 -20 c113 -32 150 -148 74 -235 -69 -80 -173 -58 -227 47 -21 41 -25 118 -8 149 12 24 63 48 99 49 14 0 42 -5 62 -10z"/>
 <path d="M1143 1025 c-111 -48 -88 -251 33 -284 21 -6 44 -6 57 -1 18 7 14 9 -20 9 -107 2 -171 154 -99 238 19 22 33 27 83 31 80 6 118 -14 145 -74 30 -69 9 -135 -55 -174 -38 -23 -29 -27 13 -5 47 24 70 62 70 115 0 61 -31 108 -90 138 -50 25 -91 27 -137 7z"/>
 <path d="M540 1005 c-7 -8 -16 -13 -20 -10 -4 2 -8 -19 -9 -47 -2 -54 -21 -88 -50 -88 -37 -1 -52 -28 -52 -94 0 -17 -7 -55 -15 -85 -20 -79 -18 -143 6 -174 11 -14 20 -35 20 -47 0 -29 28 -88 50 -103 9 -7 25 -29 35 -49 21 -45 78 -98 105 -98 11 0 20 -6 20 -13 0 -15 65 -80 97 -96 12 -6 38 -11 58 -11 20 0 50 -8 68 -17 45 -24 248 -24 294 0 18 10 46 17 63 17 17 0 45 6 63 14 32 13 97 78 97 96 0 6 9 10 20 10 26 0 84 52 104 94 9 19 29 48 46 66 16 17 32 48 35 68 7 40 9 45 30 82 19 32 19 87 1 159 -8 31 -16 81 -18 113 -2 31 -6 54 -10 52 -4 -2 -9 0 -13 6 -3 5 -14 10 -24 10 -28 0 -51 33 -51 72 0 38 -32 88 -56 88 -20 0 -19 -90 2 -138 9 -20 18 -48 20 -62 2 -14 7 -46 12 -72 11 -62 0 -132 -26 -167 -12 -16 -24 -40 -27 -54 -7 -26 -90 -87 -119 -87 -9 0 -39 11 -66 25 -28 14 -62 25 -77 24 -16 -1 -39 3 -54 9 -35 14 -177 13 -208 -2 -14 -7 -34 -11 -44 -8 -10 2 -39 -10 -66 -27 -57 -37 -80 -39 -118 -7 -15 12 -38 28 -50 35 -13 6 -23 20 -23 31 0 10 -11 32 -26 49 -31 37 -44 112 -32 178 5 26 10 59 12 73 2 14 11 42 20 62 20 47 22 138 2 138 -7 0 -19 -7 -26 -15z m514 -765 c4 -8 0 -6 -8 4 -9 11 -15 34 -15 50 1 31 1 31 8 -4 4 -20 11 -42 15 -50z"/>
 </g>
<g id="layer113" fill="#5b453c" stroke="none">
 <path d="M130 1983 c1 -37 22 -110 46 -158 30 -61 72 -86 188 -110 106 -23 321 -98 347 -121 27 -24 34 -11 43 72 4 34 20 107 37 161 16 54 34 115 38 136 l9 37 -354 0 c-331 0 -354 -1 -354 -17z"/>
 <path d="M930 1977 c0 -13 7 -46 15 -73 15 -49 15 -49 -11 -70 l-26 -22 37 -41 c21 -22 43 -41 51 -41 18 0 84 59 84 75 0 7 -11 22 -25 32 -22 16 -23 22 -16 58 5 22 11 55 15 73 l6 32 -65 0 c-61 0 -65 -1 -65 -23z"/>
 <path d="M1167 1978 c3 -13 20 -75 38 -138 18 -63 36 -142 40 -176 9 -80 17 -94 44 -70 26 23 241 98 347 121 116 24 158 49 188 110 24 48 45 121 46 158 0 16 -23 17 -354 17 l-354 0 5 -22z"/>
 <path d="M1046 1383 c-4 -5 -44 -8 -88 -8 -65 0 -83 -3 -92 -17 -23 -38 58 -105 135 -112 24 -2 35 -2 24 1 -48 10 -106 36 -102 47 6 16 142 15 159 -2 11 -11 10 -16 -6 -28 -23 -17 -13 -19 16 -3 29 16 50 72 38 104 -8 20 -16 25 -43 25 -19 0 -37 -3 -41 -7z m71 -20 c6 -18 -38 -26 -78 -15 l-34 9 35 11 c43 13 72 11 77 -5z m-137 -13 c21 -11 59 -21 84 -22 25 -2 46 -7 46 -11 0 -5 -21 -5 -47 0 -60 10 -110 10 -145 0 -22 -6 -28 -3 -33 14 -13 41 33 51 95 19z"/>
 <path d="M684 1040 c-57 -18 -81 -81 -64 -166 17 -80 62 -134 125 -150 45 -12 54 -11 92 7 118 57 119 234 2 294 -35 19 -117 26 -155 15z m118 -20 c113 -32 150 -148 74 -235 -69 -80 -173 -58 -227 47 -21 41 -25 118 -8 149 12 24 63 48 99 49 14 0 42 -5 62 -10z"/>
 <path d="M1143 1025 c-111 -48 -88 -251 33 -284 21 -6 44 -6 57 -1 18 7 14 9 -20 9 -107 2 -171 154 -99 238 19 22 33 27 83 31 80 6 118 -14 145 -74 30 -69 9 -135 -55 -174 -38 -23 -29 -27 13 -5 47 24 70 62 70 115 0 61 -31 108 -90 138 -50 25 -91 27 -137 7z"/>
 <path d="M540 1005 c-7 -8 -16 -13 -20 -10 -4 2 -8 -19 -9 -47 -2 -54 -21 -88 -50 -88 -37 -1 -52 -28 -52 -94 0 -17 -7 -55 -15 -85 -20 -79 -18 -143 6 -174 11 -14 20 -35 20 -47 0 -29 28 -88 50 -103 9 -7 25 -29 35 -49 21 -45 78 -98 105 -98 11 0 20 -6 20 -13 0 -15 65 -80 97 -96 12 -6 38 -11 58 -11 20 0 50 -8 68 -17 45 -24 248 -24 294 0 18 10 46 17 63 17 17 0 45 6 63 14 32 13 97 78 97 96 0 6 9 10 20 10 26 0 84 52 104 94 9 19 29 48 46 66 16 17 32 48 35 68 7 40 9 45 30 82 19 32 19 87 1 159 -8 31 -16 81 -18 113 -2 31 -6 54 -10 52 -4 -2 -9 0 -13 6 -3 5 -14 10 -24 10 -28 0 -51 33 -51 72 0 38 -32 88 -56 88 -20 0 -19 -90 2 -138 9 -20 18 -48 20 -62 2 -14 7 -46 12 -72 11 -62 0 -132 -26 -167 -12 -16 -24 -40 -27 -54 -7 -26 -90 -87 -119 -87 -9 0 -39 11 -66 25 -28 14 -62 25 -77 24 -16 -1 -39 3 -54 9 -35 14 -177 13 -208 -2 -14 -7 -34 -11 -44 -8 -10 2 -39 -10 -66 -27 -57 -37 -80 -39 -118 -7 -15 12 -38 28 -50 35 -13 6 -23 20 -23 31 0 10 -11 32 -26 49 -31 37 -44 112 -32 178 5 26 10 59 12 73 2 14 11 42 20 62 20 47 22 138 2 138 -7 0 -19 -7 -26 -15z m514 -765 c4 -8 0 -6 -8 4 -9 11 -15 34 -15 50 1 31 1 31 8 -4 4 -20 11 -42 15 -50z"/>
 </g>
<g id="layer114" fill="#4f372d" stroke="none">
 <path d="M130 1983 c1 -37 22 -110 46 -158 30 -61 72 -86 188 -110 106 -23 321 -98 347 -121 27 -24 34 -11 43 73 4 35 17 99 31 141 13 42 30 103 38 135 l15 57 -354 0 c-331 0 -354 -1 -354 -17z"/>
 <path d="M930 1977 c0 -13 7 -46 15 -73 15 -49 15 -49 -11 -70 l-26 -22 37 -41 c21 -22 43 -41 51 -41 18 0 84 59 84 75 0 7 -11 22 -25 32 -22 16 -23 22 -16 58 5 22 11 55 15 73 l6 32 -65 0 c-61 0 -65 -1 -65 -23z"/>
 <path d="M1177 1943 c8 -32 25 -93 38 -135 14 -42 27 -106 31 -141 9 -84 16 -97 43 -73 26 23 241 98 347 121 116 24 158 49 188 110 24 48 45 121 46 158 0 16 -23 17 -354 17 l-354 0 15 -57z"/>
 <path d="M1035 1379 c-16 -5 -58 -6 -91 -3 -57 6 -63 5 -74 -15 -9 -18 -8 -27 5 -47 20 -30 73 -64 100 -63 13 0 7 6 -18 16 -57 23 -41 38 41 38 81 0 111 -16 78 -41 -11 -8 -14 -14 -7 -14 20 0 61 47 62 72 4 66 -20 80 -96 57z m82 -16 c6 -17 -31 -25 -74 -17 l-38 7 30 13 c35 16 77 14 82 -3z m-137 -13 c21 -11 59 -21 84 -22 25 -2 46 -7 46 -11 0 -5 -21 -5 -47 0 -60 10 -110 10 -145 0 -22 -6 -28 -3 -33 14 -13 41 33 51 95 19z"/>
 <path d="M693 1042 c-92 -28 -105 -162 -26 -269 33 -45 109 -68 157 -48 42 18 96 79 96 108 -1 19 -3 18 -14 -8 -27 -61 -99 -102 -155 -88 -94 22 -158 189 -98 258 56 66 214 29 253 -59 7 -17 13 -24 14 -15 0 28 -44 83 -80 101 -41 19 -116 30 -147 20z"/>
 <path d="M1143 1025 c-110 -48 -87 -251 33 -284 21 -6 44 -6 57 -1 18 7 14 9 -20 9 -107 2 -171 154 -99 237 18 22 34 28 79 32 102 8 161 -39 161 -129 0 -54 -21 -91 -67 -119 -38 -23 -29 -27 13 -5 47 24 70 62 70 115 0 61 -31 108 -90 138 -50 25 -91 27 -137 7z"/>
 <path d="M540 1005 c-7 -8 -16 -13 -20 -10 -4 2 -8 -19 -9 -47 -2 -54 -21 -88 -50 -88 -37 -1 -52 -28 -52 -94 0 -17 -7 -55 -15 -85 -20 -79 -18 -143 6 -174 11 -14 20 -35 20 -47 0 -29 28 -88 50 -103 9 -7 25 -29 35 -49 21 -45 78 -98 105 -98 11 0 20 -6 20 -13 0 -15 65 -80 97 -96 12 -6 38 -11 58 -11 20 0 50 -8 68 -17 45 -24 248 -24 294 0 18 10 46 17 63 17 17 0 45 6 63 14 32 13 97 78 97 96 0 6 9 10 20 10 26 0 84 52 104 94 9 19 29 48 46 66 16 17 32 48 35 68 7 40 9 45 30 82 19 32 19 87 1 159 -8 31 -16 81 -18 113 -2 31 -6 54 -10 52 -4 -2 -9 0 -13 6 -3 5 -14 10 -24 10 -28 0 -51 33 -51 72 0 38 -32 88 -56 88 -22 0 -18 -96 6 -149 11 -23 18 -47 15 -51 -3 -4 1 -23 8 -41 7 -19 12 -45 12 -59 -1 -14 -2 -41 -3 -61 -1 -20 -13 -53 -27 -73 -14 -20 -27 -47 -31 -61 -6 -26 -88 -85 -118 -85 -9 0 -39 11 -66 25 -28 14 -62 25 -77 24 -16 -1 -39 3 -54 9 -35 14 -177 13 -208 -2 -14 -7 -34 -11 -44 -8 -10 2 -39 -10 -66 -27 -57 -37 -80 -39 -118 -7 -15 12 -38 28 -50 35 -13 6 -23 20 -23 31 0 10 -12 32 -26 49 -36 44 -54 159 -31 207 9 18 14 39 12 46 -3 7 4 31 15 53 38 74 22 180 -20 130z m-90 -210 c-7 -9 -15 -13 -18 -10 -3 2 1 11 8 20 7 9 15 13 18 10 3 -2 -1 -11 -8 -20z m1088 13 c-2 -3 6 -15 16 -27 11 -12 14 -21 8 -21 -13 0 -37 40 -25 40 4 0 1 5 -7 11 -10 7 -11 9 -2 7 8 -2 12 -6 10 -10z m-1065 -131 c-4 -6 -10 -2 -14 9 -12 31 -9 40 6 20 8 -10 11 -24 8 -29z m-25 -1 c2 -10 0 -22 -6 -28 -6 -6 -11 1 -14 22 -5 32 14 38 20 6z m1108 -12 c-4 -14 -9 -24 -12 -21 -3 2 -2 17 2 31 3 15 9 25 11 22 3 -3 2 -17 -1 -32z m-1116 -112 c0 -9 -7 -6 -20 11 -11 14 -20 29 -20 33 0 4 9 -1 20 -11 11 -10 20 -25 20 -33z m43 24 c9 9 20 -43 13 -61 -9 -26 -23 -16 -19 13 3 19 2 23 -5 13 -7 -10 -11 -5 -14 18 -3 22 -1 28 7 21 7 -5 15 -7 18 -4z m1051 -12 c10 -25 -1 -29 -14 -5 -6 12 -7 21 -1 21 5 0 12 -7 15 -16z m42 -30 c4 -22 1 -36 -11 -48 -23 -22 -33 -11 -12 12 19 20 23 37 7 27 -6 -4 -10 7 -10 26 0 40 17 28 26 -17z m-1088 -66 c7 -7 12 -21 11 -32 0 -15 -2 -17 -6 -6 -3 8 -12 23 -21 33 -17 19 -3 24 16 5z m60 -41 c-1 -37 -14 -57 -37 -57 -15 1 -14 2 1 13 9 7 16 20 16 28 -2 36 3 60 11 54 5 -3 9 -20 9 -38z m952 1 c0 -6 -7 -5 -15 2 -8 7 -15 17 -15 22 0 6 7 5 15 -2 8 -7 15 -17 15 -22z m10 -28 c12 -8 12 -10 -5 -10 -11 0 -27 5 -35 10 -12 8 -12 10 5 10 11 0 27 -5 35 -10z m-950 -34 c0 -8 3 -23 7 -33 6 -16 5 -17 -13 -3 -12 9 -11 5 5 -13 17 -19 20 -27 10 -27 -8 -1 -3 -7 11 -15 24 -14 24 -14 3 -15 -12 0 -28 6 -35 14 -13 12 -14 26 -9 89 1 20 21 23 21 3z m849 -19 c0 -21 -1 -21 -9 -2 -12 28 -12 37 0 30 6 -3 10 -16 9 -28z m-581 -17 c-2 -7 -10 1 -17 16 -12 27 -11 28 4 12 10 -9 16 -21 13 -28z m612 11 c0 -11 -4 -23 -10 -26 -6 -4 -10 5 -10 19 0 14 5 26 10 26 6 0 10 -9 10 -19z m-597 -52 c-5 -5 -7 7 -4 29 5 34 6 35 9 8 2 -16 0 -32 -5 -37z m349 49 c-17 -17 -15 -33 3 -18 9 7 18 11 20 8 10 -10 -23 -28 -39 -22 -12 5 -13 10 -5 25 5 10 15 19 21 19 9 0 9 -3 0 -12z m-182 -32 c-5 -15 -10 -43 -10 -62 0 -21 -4 -33 -10 -29 -16 10 -12 64 7 96 20 34 27 32 13 -5z m38 -1 c0 -19 10 -51 22 -72 l21 -36 -23 15 c-32 21 -51 63 -43 98 9 41 23 38 23 -5z m69 -39 c17 -39 10 -43 -16 -10 -12 15 -21 40 -20 58 l0 31 11 -25 c6 -14 17 -38 25 -54z m-407 0 c0 -17 -4 -15 -20 12 -25 41 -25 50 0 27 11 -10 20 -28 20 -39z m40 29 c9 -24 4 -55 -9 -55 -3 0 -7 18 -8 40 -1 46 4 50 17 15z m694 -26 c-28 -31 -35 -22 -11 15 14 21 23 28 25 19 2 -8 -4 -23 -14 -34z m-664 -48 c-6 -12 -22 -24 -36 -27 -19 -5 -24 -12 -21 -25 3 -11 0 -19 -5 -19 -6 0 -5 -8 3 -17 11 -15 10 -14 -9 1 -22 19 -31 43 -12 31 6 -3 10 -1 10 6 0 6 14 27 30 46 17 18 30 44 30 57 0 12 3 26 8 30 12 13 14 -61 2 -83z m519 85 c-2 -1 -19 -8 -38 -14 -29 -10 -32 -10 -21 3 7 8 24 15 38 15 14 0 23 -2 21 -4z m-439 -51 c-7 -8 -10 -31 -8 -50 5 -41 3 -42 -17 -11 -13 19 -14 28 -4 50 7 14 19 26 27 26 12 0 12 -3 2 -15z m481 5 c10 -6 19 -18 19 -26 0 -13 -2 -13 -22 0 -12 9 -30 16 -40 16 -9 0 -20 5 -23 10 -8 13 41 13 66 0z m-381 -55 c0 -13 -4 -26 -9 -29 -5 -3 -9 10 -9 29 0 19 4 32 9 29 5 -3 9 -16 9 -29z m260 20 c7 -8 19 -15 26 -15 8 0 14 -4 14 -10 0 -12 -2 -12 -34 0 -23 8 -25 7 -28 -22 -2 -17 -9 -33 -15 -36 -10 -3 -9 7 2 38 8 23 12 46 9 51 -9 15 13 10 26 -6z m-51 -43 c0 -24 -1 -25 -9 -7 -12 28 -12 47 0 40 6 -3 10 -18 9 -33z m-187 -27 c-6 -14 -19 -25 -28 -25 -16 0 -16 1 -1 18 10 10 17 27 17 37 0 15 3 16 12 7 9 -9 9 -18 0 -37z m74 -7 c4 -5 -4 -8 -17 -6 -12 1 -24 8 -26 15 -5 14 34 6 43 -9z m154 -13 c-21 -25 -32 -17 -13 9 10 13 20 20 21 15 2 -5 -2 -16 -8 -24z m-304 -16 c16 0 16 -2 -4 -11 -18 -9 -28 -8 -49 8 -42 31 -42 51 -1 26 20 -12 44 -22 54 -23z m179 1 c-3 -5 -16 -10 -28 -9 -21 0 -21 1 -2 9 28 12 37 12 30 0z m35 -25 c-7 -8 -22 -15 -34 -15 -21 1 -21 1 -1 12 11 6 24 18 29 27 7 11 11 12 14 3 2 -7 -2 -19 -8 -27z"/>
 </g>
<g id="layer115" fill="#5a2621" stroke="none">
 <path d="M130 1983 c1 -37 22 -110 46 -158 30 -61 72 -86 188 -110 106 -23 321 -98 347 -121 27 -24 34 -11 43 73 4 35 17 99 31 141 13 42 30 103 38 135 l15 57 -354 0 c-331 0 -354 -1 -354 -17z"/>
 <path d="M930 1977 c0 -13 7 -46 15 -73 15 -49 15 -49 -12 -71 l-27 -22 41 -40 c22 -23 46 -41 51 -41 17 0 82 60 82 75 0 7 -12 22 -26 32 -24 18 -25 22 -16 59 5 21 13 54 16 72 l6 32 -65 0 c-61 0 -65 -1 -65 -23z"/>
 <path d="M1177 1943 c8 -32 25 -93 38 -135 14 -42 27 -106 31 -141 9 -84 16 -97 43 -73 26 23 241 98 347 121 116 24 158 49 188 110 24 48 45 121 46 158 0 16 -23 17 -354 17 l-354 0 15 -57z"/>
 <path d="M1045 1380 c-15 -6 -8 -8 24 -7 46 2 67 -16 32 -28 -24 -7 -93 4 -86 15 4 6 -73 20 -117 20 -25 0 -41 -35 -28 -59 14 -27 60 -58 96 -66 24 -5 23 -3 -9 11 -56 25 -41 39 41 39 81 0 111 -16 78 -41 -11 -8 -15 -14 -9 -14 21 0 53 35 62 67 16 56 -26 88 -84 63z m-65 -30 c21 -11 59 -21 84 -22 25 -2 46 -7 46 -11 0 -5 -21 -5 -47 0 -60 10 -110 10 -145 0 -22 -6 -28 -3 -33 14 -13 41 33 51 95 19z"/>
 <path d="M700 1043 c-55 -10 -95 -80 -84 -147 17 -95 57 -150 126 -171 49 -14 53 -14 92 8 42 23 86 78 86 106 -1 9 -7 3 -14 -14 -28 -62 -96 -100 -157 -88 -31 6 -94 69 -109 109 -18 47 -12 121 13 149 56 66 214 29 253 -59 7 -17 13 -24 14 -15 0 28 -44 83 -80 100 -39 19 -102 28 -140 22z"/>
 <path d="M1143 1025 c-59 -25 -83 -91 -63 -173 17 -71 54 -104 122 -108 l53 -3 -47 7 c-26 4 -57 17 -69 27 -28 26 -59 92 -59 130 0 39 33 93 66 105 33 13 110 13 135 0 10 -6 19 -8 19 -5 0 11 -69 35 -97 35 -15 -1 -42 -7 -60 -15z"/>
 <path d="M540 1005 c-7 -8 -16 -13 -20 -10 -4 2 -8 -17 -9 -43 -2 -66 -9 -81 -39 -88 -52 -13 -62 -29 -63 -98 0 -17 -7 -55 -15 -85 -20 -79 -18 -143 6 -174 11 -14 20 -35 20 -47 0 -29 28 -88 50 -103 9 -7 25 -29 35 -49 21 -45 78 -98 105 -98 11 0 20 -6 20 -13 0 -15 65 -80 97 -96 12 -6 38 -11 58 -11 20 0 50 -8 68 -17 45 -24 248 -24 294 0 18 10 46 17 63 17 17 0 45 6 63 14 32 13 97 78 97 96 0 6 9 10 20 10 26 0 84 52 104 94 9 19 29 48 46 66 16 17 32 48 35 68 7 40 9 45 30 82 19 32 19 87 1 159 -8 31 -16 81 -18 113 -2 31 -6 54 -10 52 -4 -2 -9 0 -12 5 -3 4 -19 11 -36 14 -30 7 -37 18 -44 85 -3 33 -30 72 -49 72 -6 0 -1 -9 11 -20 12 -12 22 -31 22 -43 0 -12 5 -39 10 -59 9 -32 17 -39 50 -48 37 -10 39 -13 45 -58 3 -26 10 -75 15 -108 13 -77 13 -161 1 -169 -5 -3 -17 -31 -26 -61 -9 -31 -27 -67 -41 -81 -13 -13 -33 -41 -44 -63 -21 -41 -61 -77 -94 -86 -12 -3 -29 -18 -38 -34 -22 -39 -103 -90 -142 -90 -17 0 -49 -7 -71 -15 -24 -8 -77 -14 -135 -14 -58 0 -111 6 -135 14 -22 8 -54 15 -71 15 -38 0 -120 51 -141 89 -9 16 -32 34 -50 40 -32 12 -93 75 -93 97 0 6 -9 19 -21 30 -27 24 -59 87 -59 114 0 12 -7 28 -15 36 -18 18 -20 116 -5 191 5 26 12 69 15 95 5 42 10 49 33 54 42 10 61 33 68 83 8 53 20 81 36 81 27 0 -20 -148 -60 -188 -17 -17 -18 -25 -10 -70 8 -40 7 -56 -5 -82 -15 -29 -15 -32 3 -50 24 -24 35 -82 21 -109 -9 -17 -9 -21 2 -21 22 0 57 -45 63 -81 6 -32 8 -34 38 -31 25 3 38 -3 63 -28 24 -24 32 -28 36 -16 17 43 117 57 147 21 10 -13 16 -10 41 16 35 37 56 35 86 -10 13 -19 23 -30 23 -25 0 16 57 44 90 44 23 0 33 -5 37 -19 4 -17 7 -18 31 -5 44 23 91 13 118 -25 10 -13 12 -12 18 7 10 30 61 55 102 50 32 -4 33 -3 31 31 -2 29 3 38 32 58 19 13 29 23 22 23 -6 0 -11 15 -11 35 0 27 6 38 28 52 15 9 29 18 31 19 1 2 -4 13 -13 26 -19 26 -21 85 -4 90 7 3 3 15 -12 35 -15 21 -21 40 -18 58 4 17 1 28 -8 32 -21 8 -45 53 -55 102 l-8 46 3 -45 c2 -25 11 -62 20 -83 10 -20 16 -42 13 -49 -2 -7 2 -26 10 -41 20 -41 8 -150 -23 -197 -12 -19 -26 -47 -29 -62 -4 -16 -11 -28 -17 -28 -5 0 -29 -13 -53 -30 l-43 -30 -66 31 c-42 20 -73 28 -86 24 -12 -4 -28 -1 -36 6 -22 18 -206 18 -228 0 -8 -7 -23 -10 -32 -7 -9 4 -39 -7 -69 -24 -66 -37 -83 -37 -130 0 -21 17 -44 30 -51 30 -7 0 -16 15 -19 33 -4 17 -16 41 -26 53 -11 11 -24 49 -31 84 -12 70 -1 143 34 217 12 28 18 58 16 89 -3 50 -17 64 -38 39z"/>
 <path d="M1327 975 c43 -62 37 -133 -14 -188 -24 -25 -25 -28 -6 -18 12 6 31 23 42 37 37 47 23 145 -25 185 -15 11 -14 8 3 -16z"/>
 </g>
<g id="layer116" fill="#3c251c" stroke="none">
 <path d="M130 1983 c1 -37 22 -110 46 -158 30 -61 72 -86 188 -110 106 -23 321 -98 347 -121 27 -24 34 -11 43 73 4 35 17 99 31 141 13 42 30 103 38 135 l15 57 -354 0 c-331 0 -354 -1 -354 -17z"/>
 <path d="M930 1977 c0 -13 7 -46 15 -73 15 -49 15 -49 -12 -71 l-27 -22 41 -40 c22 -23 46 -41 51 -41 17 0 82 60 82 75 0 7 -12 22 -26 32 -24 18 -25 22 -16 59 5 21 13 54 16 72 l6 32 -65 0 c-61 0 -65 -1 -65 -23z"/>
 <path d="M1177 1943 c8 -32 25 -93 38 -135 14 -42 27 -106 31 -141 9 -84 16 -97 43 -73 26 23 241 98 347 121 116 24 158 49 188 110 24 48 45 121 46 158 0 16 -23 17 -354 17 l-354 0 15 -57z"/>
 <path d="M1085 1381 c17 -3 31 -14 33 -24 3 -14 -4 -17 -40 -17 -38 0 -89 17 -63 21 15 2 -75 17 -107 18 -34 1 -54 -29 -38 -58 14 -27 60 -58 96 -66 24 -5 23 -3 -9 11 -56 25 -41 39 41 39 81 0 111 -16 78 -41 -11 -8 -15 -14 -9 -14 21 0 53 35 62 67 12 41 -9 73 -47 72 -27 -1 -27 -1 3 -8z m-104 -31 c24 -11 64 -20 87 -20 31 0 42 -4 39 -12 -2 -7 -11 -11 -18 -8 -8 3 -56 5 -108 6 -96 1 -110 6 -97 39 8 21 46 19 97 -5z"/>
 <path d="M700 1043 c-55 -10 -95 -80 -84 -147 17 -95 57 -150 126 -171 49 -14 53 -14 92 8 42 23 86 78 86 106 -1 9 -7 3 -14 -14 -28 -62 -96 -100 -157 -88 -31 6 -94 69 -109 109 -18 47 -12 121 13 149 56 66 214 29 253 -59 7 -17 13 -24 14 -15 0 28 -44 83 -80 100 -39 19 -102 28 -140 22z"/>
 <path d="M1143 1025 c-59 -25 -83 -91 -63 -173 17 -71 54 -104 122 -108 l53 -3 -47 7 c-26 4 -57 17 -69 27 -28 26 -59 92 -59 130 0 39 33 93 66 105 33 13 110 13 135 0 10 -6 19 -8 19 -5 0 11 -69 35 -97 35 -15 -1 -42 -7 -60 -15z"/>
 <path d="M564 976 c-1 -47 -32 -124 -62 -154 -17 -17 -18 -25 -10 -70 8 -40 7 -56 -5 -82 -15 -29 -15 -32 3 -50 24 -24 35 -82 21 -109 -9 -17 -9 -21 2 -21 22 0 57 -45 63 -81 6 -32 8 -34 38 -31 25 3 38 -3 63 -28 24 -24 32 -28 36 -16 17 43 117 57 147 21 10 -13 16 -10 41 16 35 37 56 35 86 -10 13 -19 23 -30 23 -25 0 16 57 44 90 44 23 0 33 -5 37 -19 4 -17 7 -18 31 -5 44 23 91 13 118 -25 10 -13 12 -12 18 7 10 30 61 55 102 50 32 -4 33 -3 31 31 -2 29 3 38 32 58 19 13 29 23 22 23 -6 0 -11 15 -11 35 0 27 6 38 28 52 15 9 29 18 31 19 1 2 -4 13 -13 26 -19 26 -21 85 -4 90 7 3 3 15 -12 35 -15 21 -21 40 -18 58 4 17 1 28 -8 32 -21 8 -45 53 -55 102 l-8 46 3 -45 c2 -25 11 -62 20 -83 10 -20 16 -42 13 -49 -2 -7 2 -26 10 -41 20 -41 8 -150 -23 -197 -12 -19 -26 -47 -29 -62 -4 -16 -11 -28 -17 -28 -5 0 -29 -13 -53 -30 l-43 -30 -66 31 c-42 20 -73 28 -86 24 -12 -4 -28 -1 -36 6 -22 18 -206 18 -228 0 -8 -7 -23 -10 -32 -7 -9 4 -39 -7 -69 -24 -66 -37 -83 -37 -130 0 -21 17 -44 30 -51 30 -7 0 -16 15 -19 33 -4 17 -16 41 -26 53 -11 11 -24 49 -31 84 -12 70 -1 143 33 216 19 41 26 128 12 137 -5 3 -9 -14 -9 -37z"/>
 <path d="M1448 1001 c12 -12 22 -32 22 -44 0 -12 5 -39 10 -59 9 -31 17 -39 47 -47 48 -14 55 -6 9 9 -26 8 -38 19 -42 38 -19 85 -26 103 -47 113 l-22 11 23 -21z"/>
 <path d="M535 1000 c-4 -6 -10 -8 -14 -6 -4 3 -9 -16 -10 -42 -2 -69 -7 -78 -54 -96 -44 -16 -45 -18 -47 -90 -1 -17 -8 -55 -16 -85 -20 -79 -18 -143 6 -174 11 -14 20 -35 20 -47 0 -29 28 -88 50 -103 9 -7 25 -29 35 -49 21 -45 78 -98 105 -98 11 0 20 -6 20 -13 0 -15 65 -80 97 -96 12 -6 38 -11 58 -11 20 0 50 -8 68 -17 45 -24 248 -24 294 0 18 10 46 17 63 17 17 0 45 6 63 14 32 13 97 78 97 96 0 6 9 10 20 10 26 0 84 52 104 94 9 19 29 48 46 66 16 17 32 48 35 68 7 40 9 45 30 82 19 32 19 90 0 160 -8 30 -15 71 -15 90 0 19 -5 42 -10 50 -11 17 -5 -63 11 -143 12 -62 12 -154 0 -162 -5 -3 -17 -31 -26 -61 -9 -31 -27 -67 -41 -81 -13 -13 -33 -41 -44 -63 -21 -41 -61 -77 -94 -86 -12 -3 -29 -18 -38 -34 -22 -39 -103 -90 -142 -90 -17 0 -49 -7 -71 -15 -24 -8 -77 -14 -135 -14 -58 0 -111 6 -135 14 -22 8 -54 15 -71 15 -38 0 -120 51 -141 89 -9 16 -32 34 -50 40 -32 12 -93 75 -93 97 0 6 -9 19 -21 30 -27 24 -59 87 -59 114 0 12 -7 28 -15 36 -18 18 -20 116 -5 191 5 26 12 69 15 95 5 42 10 49 33 54 42 10 61 33 68 83 4 25 11 54 16 64 9 18 4 24 -7 7z"/>
 <path d="M1327 975 c43 -62 37 -133 -14 -188 -24 -25 -25 -28 -6 -18 12 6 31 23 42 37 37 47 23 145 -25 185 -15 11 -14 8 3 -16z"/>
 </g>
<g id="layer117" fill="#1d272d" stroke="none">
 <path d="M130 1983 c1 -37 22 -110 46 -158 30 -61 72 -86 188 -110 106 -23 321 -98 347 -121 27 -24 34 -11 43 73 4 35 17 99 31 141 13 42 30 103 38 135 l15 57 -354 0 c-331 0 -354 -1 -354 -17z"/>
 <path d="M930 1977 c0 -13 7 -46 15 -73 15 -49 15 -49 -12 -71 l-27 -22 41 -40 c22 -23 46 -41 51 -41 17 0 82 60 82 75 0 7 -12 22 -26 32 -24 18 -25 22 -16 59 5 21 13 54 16 72 l6 32 -65 0 c-61 0 -65 -1 -65 -23z"/>
 <path d="M1177 1943 c8 -32 25 -93 38 -135 14 -42 27 -106 31 -141 9 -84 16 -97 43 -73 26 23 241 98 347 121 116 24 158 49 188 110 24 48 45 121 46 158 0 16 -23 17 -354 17 l-354 0 15 -57z"/>
 <path d="M870 1360 c-19 -36 32 -92 96 -105 24 -5 23 -3 -9 11 -56 25 -41 39 41 39 81 0 111 -16 78 -41 -11 -8 -15 -14 -9 -14 34 0 80 83 62 111 -7 11 -9 10 -9 -3 0 -14 -8 -18 -37 -18 -49 0 -84 10 -77 21 3 5 -7 9 -23 9 l-27 0 24 -17 c13 -9 48 -19 77 -21 34 -3 52 -9 50 -16 -3 -6 -11 -9 -18 -6 -8 3 -57 5 -109 6 -94 0 -95 1 -95 25 0 20 6 25 35 30 l35 6 -37 2 c-28 1 -40 -4 -48 -19z"/>
 <path d="M700 1043 c-55 -10 -95 -80 -84 -147 17 -96 56 -149 126 -170 50 -14 54 -14 92 7 42 23 86 78 86 106 -1 9 -7 3 -14 -14 -28 -62 -96 -100 -157 -88 -31 6 -94 69 -109 109 -18 47 -12 121 13 149 56 66 214 29 253 -59 7 -17 13 -24 14 -15 0 28 -44 83 -80 100 -39 19 -102 28 -140 22z"/>
 <path d="M1141 1022 c-36 -18 -71 -72 -71 -110 0 -49 23 -111 50 -137 23 -22 40 -28 82 -31 l53 -3 -47 7 c-26 4 -57 17 -69 27 -28 26 -59 92 -59 130 0 39 33 93 66 105 33 13 110 13 135 0 10 -6 19 -8 19 -5 0 11 -69 35 -97 35 -15 -1 -43 -9 -62 -18z"/>
 <path d="M573 965 c0 -22 2 -30 4 -17 2 12 2 30 0 40 -3 9 -5 -1 -4 -23z"/>
 <path d="M1333 967 c36 -56 28 -128 -20 -180 -24 -25 -25 -28 -6 -18 63 32 83 121 42 187 -11 19 -23 34 -26 34 -3 0 1 -10 10 -23z"/>
 <path d="M503 893 c-10 -34 -10 -36 3 -19 12 17 20 56 11 56 -1 0 -7 -17 -14 -37z"/>
 <path d="M391 670 c-17 -79 -14 -134 9 -163 11 -14 20 -35 20 -47 0 -29 28 -88 50 -103 9 -7 25 -29 35 -49 21 -45 78 -98 105 -98 11 0 20 -6 20 -13 0 -15 65 -80 97 -96 12 -6 38 -11 58 -11 20 0 50 -8 68 -17 45 -24 248 -24 294 0 18 10 46 17 63 17 17 0 45 6 63 14 32 13 97 78 97 96 0 6 9 10 20 10 27 0 84 53 105 98 10 20 26 42 35 49 23 16 50 75 49 105 0 15 -5 9 -14 -21 -7 -24 -25 -55 -38 -70 -14 -14 -32 -40 -40 -57 -18 -35 -81 -94 -100 -94 -7 0 -23 -14 -36 -30 -34 -47 -99 -90 -136 -90 -18 0 -49 -7 -68 -15 -50 -21 -251 -21 -291 0 -15 8 -45 15 -66 15 -42 0 -104 39 -141 89 -12 16 -32 32 -44 35 -24 6 -78 62 -108 112 -9 16 -28 44 -42 63 -14 19 -25 43 -25 54 0 12 -10 41 -22 65 -20 42 -20 50 -9 120 13 87 8 108 -8 32z"/>
 <path d="M1591 712 c-1 -7 4 -43 10 -80 10 -57 9 -73 -5 -107 -16 -38 -16 -39 0 -23 23 23 28 110 10 173 -8 28 -15 44 -15 37z"/>
 </g>
<g id="layer118" fill="#2e1912" stroke="none">
 <path d="M130 1983 c1 -37 22 -110 46 -158 30 -61 72 -86 188 -110 105 -23 321 -98 346 -120 11 -10 23 -16 26 -12 3 3 10 39 15 81 5 41 25 126 44 188 33 107 43 160 28 144 -18 -17 -83 -275 -83 -328 0 -54 -12 -83 -23 -55 -3 8 -29 30 -59 51 l-53 37 40 -36 40 -36 -55 22 c-88 34 -199 68 -288 89 -46 11 -93 25 -104 31 -26 14 -76 122 -84 182 -6 44 -24 67 -24 30z"/>
 <path d="M578 1970 c-41 -96 -46 -140 -16 -140 10 0 10 2 1 8 -9 6 -6 25 13 76 26 72 28 116 2 56z"/>
 <path d="M930 1983 c0 -9 7 -43 16 -75 17 -58 17 -58 -7 -77 l-24 -20 42 -42 41 -42 31 22 c50 36 57 57 25 84 -26 23 -27 26 -16 70 7 25 12 57 12 71 0 25 -2 26 -60 26 -50 0 -60 -3 -60 -17z"/>
 <path d="M1170 1983 c0 -11 15 -72 34 -134 19 -63 39 -147 45 -187 5 -41 12 -76 15 -80 3 -3 15 3 26 13 25 22 241 97 346 120 116 24 158 49 188 110 36 71 58 175 37 175 -5 0 -11 -21 -15 -47 -3 -27 -19 -76 -35 -110 -33 -68 -52 -81 -153 -102 -59 -13 -204 -58 -288 -90 l-55 -22 40 36 40 36 -53 -37 c-30 -21 -56 -43 -59 -51 -11 -28 -23 1 -23 55 0 36 -14 105 -38 189 -38 131 -52 166 -52 126z"/>
 <path d="M1400 1994 c0 -18 40 -128 50 -138 16 -16 12 8 -11 71 -21 57 -39 88 -39 67z"/>
 <path d="M1710 1895 c0 -12 48 -85 56 -85 3 0 -3 12 -14 28 -10 15 -24 36 -30 47 -6 11 -12 15 -12 10z"/>
 <path d="M598 1817 l22 -13 -30 -22 c-36 -27 -38 -42 -7 -68 l22 -19 -19 23 c-19 22 -19 22 13 56 32 33 33 34 13 45 -12 6 -24 11 -29 11 -4 -1 2 -6 15 -13z"/>
 <path d="M1387 1819 c-18 -10 -17 -13 14 -45 32 -34 32 -34 13 -56 l-19 -23 23 19 c30 26 28 41 -8 68 l-30 22 22 13 c13 7 19 12 13 12 -5 0 -18 -4 -28 -10z"/>
 <path d="M883 1373 c-7 -2 -13 -18 -13 -33 0 -32 44 -72 90 -84 17 -5 13 0 -13 14 -21 11 -35 25 -32 30 10 16 138 12 160 -4 17 -12 18 -16 5 -32 -14 -17 -14 -17 11 0 28 18 39 44 38 86 -1 17 -3 19 -6 8 -3 -13 -15 -18 -41 -18 -48 0 -83 10 -76 21 3 5 -7 9 -23 9 l-27 0 24 -17 c13 -9 48 -19 77 -21 34 -3 52 -9 50 -16 -3 -6 -11 -9 -18 -6 -8 3 -57 5 -109 6 -94 0 -95 1 -95 25 0 20 6 25 35 30 33 6 34 6 5 7 -16 0 -36 -2 -42 -5z"/>
 <path d="M691 1037 c-40 -14 -67 -49 -75 -97 l-6 -35 15 40 c22 56 46 76 96 82 62 7 122 -12 161 -50 27 -26 30 -27 17 -7 -35 55 -143 89 -208 67z"/>
 <path d="M1143 1022 c-32 -17 -69 -59 -61 -68 3 -2 10 7 17 20 18 32 52 46 114 46 37 0 48 3 37 10 -23 15 -71 11 -107 -8z"/>
 <path d="M573 965 c0 -22 2 -30 4 -17 2 12 2 30 0 40 -3 9 -5 -1 -4 -23z"/>
 <path d="M1350 937 c15 -42 12 -73 -10 -120 l-21 -42 26 28 c19 22 25 39 25 76 0 27 -6 56 -15 67 -14 18 -14 17 -5 -9z"/>
 <path d="M503 893 c-10 -34 -10 -36 3 -19 12 17 20 56 11 56 -1 0 -7 -17 -14 -37z"/>
 <path d="M1080 852 c0 -28 52 -102 73 -102 6 0 -2 11 -17 25 -15 14 -33 40 -41 57 -8 18 -14 27 -15 20z"/>
 <path d="M630 844 c0 -6 13 -31 29 -56 24 -38 38 -49 78 -61 41 -12 53 -12 83 0 19 8 43 21 53 31 20 18 51 71 45 78 -2 2 -12 -12 -22 -31 -19 -34 -84 -75 -119 -75 -41 0 -88 30 -117 76 -16 27 -30 43 -30 38z"/>
 <path d="M391 670 c-17 -79 -14 -134 9 -163 11 -14 20 -35 20 -47 0 -29 28 -88 50 -103 9 -7 25 -29 35 -49 21 -45 78 -98 105 -98 11 0 20 -6 20 -13 0 -15 65 -80 97 -96 12 -6 38 -11 58 -11 20 0 50 -8 68 -17 45 -24 248 -24 294 0 18 10 46 17 63 17 17 0 45 6 63 14 32 13 97 78 97 96 0 6 9 10 20 10 27 0 84 53 105 98 10 20 26 42 35 49 23 16 50 75 49 105 0 15 -5 9 -14 -21 -7 -24 -25 -55 -38 -70 -14 -14 -32 -40 -40 -57 -18 -35 -81 -94 -100 -94 -7 0 -23 -14 -36 -30 -34 -47 -99 -90 -136 -90 -18 0 -49 -7 -68 -15 -50 -21 -251 -21 -291 0 -15 8 -45 15 -66 15 -42 0 -104 39 -141 89 -12 16 -32 32 -44 35 -24 6 -78 62 -108 112 -9 16 -28 44 -42 63 -14 19 -25 43 -25 54 0 12 -10 41 -22 65 -20 42 -20 50 -9 120 13 87 8 108 -8 32z"/>
 <path d="M1591 712 c-1 -7 4 -43 10 -80 10 -57 9 -73 -5 -107 -16 -38 -16 -39 0 -23 23 23 28 110 10 173 -8 28 -15 44 -15 37z"/>
 </g>
<g id="layer119" fill="#0a0a0b" stroke="none">
 <path d="M130 1983 c1 -37 22 -110 46 -158 30 -61 72 -86 188 -110 105 -23 321 -98 346 -120 11 -10 23 -16 26 -12 3 3 10 39 15 81 5 41 25 126 44 188 33 107 43 160 28 144 -18 -17 -83 -275 -83 -328 0 -54 -12 -83 -23 -55 -3 8 -29 30 -59 51 l-53 37 40 -36 40 -36 -55 22 c-88 34 -199 68 -288 89 -46 11 -93 25 -104 31 -26 14 -76 122 -84 182 -6 44 -24 67 -24 30z"/>
 <path d="M578 1970 c-41 -96 -46 -140 -16 -140 10 0 10 2 1 8 -9 6 -6 25 13 76 26 72 28 116 2 56z"/>
 <path d="M930 1983 c0 -9 7 -43 16 -75 17 -58 17 -58 -7 -77 l-24 -20 42 -42 41 -42 31 22 c50 36 57 57 25 84 -26 23 -27 26 -16 70 7 25 12 57 12 71 0 25 -2 26 -60 26 -50 0 -60 -3 -60 -17z"/>
 <path d="M1170 1983 c0 -11 15 -72 34 -134 19 -63 39 -147 45 -187 5 -41 12 -76 15 -80 3 -3 15 3 26 13 25 22 241 97 346 120 116 24 158 49 188 110 36 71 58 175 37 175 -5 0 -11 -21 -15 -47 -3 -27 -19 -76 -35 -110 -33 -68 -52 -81 -153 -102 -59 -13 -204 -58 -288 -90 l-55 -22 40 36 40 36 -53 -37 c-30 -21 -56 -43 -59 -51 -11 -28 -23 1 -23 55 0 36 -14 105 -38 189 -38 131 -52 166 -52 126z"/>
 <path d="M1400 1994 c0 -18 40 -128 50 -138 16 -16 12 8 -11 71 -21 57 -39 88 -39 67z"/>
 <path d="M1710 1895 c0 -12 48 -85 56 -85 3 0 -3 12 -14 28 -10 15 -24 36 -30 47 -6 11 -12 15 -12 10z"/>
 <path d="M598 1817 l22 -13 -30 -22 c-36 -27 -38 -42 -7 -68 l22 -19 -19 23 c-19 22 -19 22 13 56 32 33 33 34 13 45 -12 6 -24 11 -29 11 -4 -1 2 -6 15 -13z"/>
 <path d="M1387 1819 c-18 -10 -17 -13 14 -45 32 -34 32 -34 13 -56 l-19 -23 23 19 c30 26 28 41 -8 68 l-30 22 22 13 c13 7 19 12 13 12 -5 0 -18 -4 -28 -10z"/>
 <path d="M983 1354 c16 -9 31 -13 35 -10 3 3 0 6 -7 6 -7 0 -9 5 -6 10 4 6 -6 10 -22 10 l-28 -1 28 -15z"/>
 <path d="M1075 1339 l-50 -6 43 -1 c31 -2 42 -6 42 -18 0 -13 -6 -15 -27 -9 -26 6 -27 5 -8 -8 17 -13 18 -17 5 -33 -14 -17 -14 -17 12 0 22 14 49 73 36 79 -1 1 -25 0 -53 -4z"/>
 <path d="M870 1329 c0 -9 8 -23 18 -31 20 -18 77 -48 89 -48 4 1 -9 10 -30 21 -21 11 -35 24 -32 29 4 6 -1 10 -9 10 -8 0 -20 8 -25 18 -9 14 -10 15 -11 1z"/>
 <path d="M958 1313 c17 -2 47 -2 65 0 17 2 3 4 -33 4 -36 0 -50 -2 -32 -4z"/>
 <path d="M649 1011 c-16 -16 -29 -40 -29 -53 0 -20 3 -18 18 12 20 40 53 60 102 60 57 0 107 -19 142 -53 27 -26 30 -27 17 -7 -28 44 -86 70 -157 70 -57 0 -67 -3 -93 -29z"/>
 <path d="M1145 1021 c-36 -17 -73 -56 -62 -67 2 -2 9 7 16 20 18 32 51 46 114 47 38 0 47 3 32 9 -31 13 -57 11 -100 -9z"/>
 <path d="M1350 937 c15 -42 12 -73 -10 -117 -25 -48 -18 -53 10 -7 24 38 26 105 5 133 -14 18 -14 17 -5 -9z"/>
 <path d="M1080 852 c0 -28 52 -102 73 -102 6 0 -2 11 -17 25 -15 14 -33 40 -41 57 -8 18 -14 27 -15 20z"/>
 <path d="M630 844 c0 -6 13 -31 29 -56 30 -48 69 -68 131 -68 48 0 131 73 130 115 0 6 -10 -7 -22 -28 -22 -37 -85 -77 -121 -77 -41 0 -88 30 -117 76 -16 27 -30 43 -30 38z"/>
 </g>

</svg>