<?xml version="1.0" encoding="UTF-8" standalone="no"?>
<!-- Created with Inkscape (http://www.inkscape.org/) -->

<svg
   xmlns:dc="http://purl.org/dc/elements/1.1/"
   xmlns:cc="http://creativecommons.org/ns#"
   xmlns:rdf="http://www.w3.org/1999/02/22-rdf-syntax-ns#"
   xmlns:svg="http://www.w3.org/2000/svg"
   xmlns="http://www.w3.org/2000/svg"
   xmlns:sodipodi="http://sodipodi.sourceforge.net/DTD/sodipodi-0.dtd"
   xmlns:inkscape="http://www.inkscape.org/namespaces/inkscape"
   version="1.1"
   id="svg5433"
   width="200"
   height="200"
   viewBox="0 0 200 200"
   sodipodi:docname="Admin4.svg"
   inkscape:version="0.92.2 (5c3e80d, 2017-08-06)">
  <metadata
     id="metadata5439">
    <rdf:RDF>
      <cc:Work
         rdf:about="">
        <dc:format>image/svg+xml</dc:format>
        <dc:type
           rdf:resource="http://purl.org/dc/dcmitype/StillImage" />
        <dc:title></dc:title>
      </cc:Work>
    </rdf:RDF>
  </metadata>
  <defs
     id="defs5437" />
  <sodipodi:namedview
     pagecolor="#ffffff"
     bordercolor="#666666"
     borderopacity="1"
     objecttolerance="10"
     gridtolerance="10"
     guidetolerance="10"
     inkscape:pageopacity="0"
     inkscape:pageshadow="2"
     inkscape:window-width="640"
     inkscape:window-height="480"
     id="namedview5435"
     showgrid="false"
     inkscape:zoom="1.18"
     inkscape:cx="100"
     inkscape:cy="100"
     inkscape:window-x="48"
     inkscape:window-y="72"
     inkscape:window-maximized="0"
     inkscape:current-layer="svg5433" />
  <path
     inkscape:connector-curvature="0"
     id="path5525"
     d="M -0.3050845,100.23729 V 0.2372883 H 99.694915 199.69492 v 100.0000017 100 H 99.694915 -0.3050845 Z"
     style="fill:#fefefe" />
  <path
     inkscape:connector-curvature="0"
     id="path5523"
     d="m 12.719362,198.98729 c 0.06399,-3.27177 2.296141,-10.74451 4.563996,-15.2792 3.073747,-6.14611 6.910805,-8.30044 20.411557,-11.46015 12.348635,-2.89007 33.097672,-10.4338 34.221463,-12.4419 0.882587,-1.57709 2.927024,-2.21909 2.607297,-0.81875 -0.583844,2.55712 5.790478,28.83523 7.89473,32.54598 0.248256,0.43778 1.99802,-1.81222 3.888365,-5 1.890346,-3.18779 4.993118,-7.25731 6.895051,-9.04338 l 3.458059,-3.24741 -3.732483,-2.362 c -2.052865,-1.2991 -5.855452,-3.56072 -8.450194,-5.02583 -5.106504,-2.88335 -6.139006,-5.05969 -7.172011,-15.11736 -0.398432,-3.87926 -1.14079,-5.53133 -3.311909,-7.37043 -10.777865,-9.12968 -12.569109,-11.63071 -14.381071,-20.0796 -0.845934,-3.94445 -1.504796,-5.04997 -3.009665,-5.04997 -1.132922,0 -3.055639,-1.66629 -4.667136,-4.04468 -1.507272,-2.22457 -4.194319,-5.85676 -5.971213,-8.07153 -4.079684,-5.08503 -5.615843,-10.685824 -4.736656,-17.269713 0.650302,-4.86986 2.934401,-9.061508 4.433055,-8.135289 0.384113,0.237395 0.508375,-3.035717 0.276138,-7.273581 -0.7461,-13.614776 4.055221,-29.343815 11.131576,-36.466844 23.980516,-24.138686 52.144209,-27.027516 76.126609,-7.808523 14.79551,11.856813 19.35889,21.144276 20.02537,40.755915 0.29496,8.679735 0.65135,10.490967 2.41039,12.25 1.71373,1.713738 2.06424,3.320806 2.06424,9.464561 v 7.400324 l -6.28209,9.34968 c -4.198,6.24792 -6.99468,9.45265 -8.43008,9.66007 -1.6895,0.24413 -2.37642,1.37546 -3.21808,5.29997 -1.57803,7.35813 -3.29127,10.02785 -10.7622,16.77064 l -6.75051,6.09258 -0.19244,6.41702 c -0.11972,3.99219 -0.81586,7.36847 -1.84224,8.93492 -0.90738,1.38485 -5.22112,4.37592 -9.58608,6.64682 -4.36495,2.2709 -7.93628,4.32507 -7.93628,4.56483 0,0.23975 1.56401,1.90447 3.47558,3.69937 1.91156,1.7949 5.03516,5.89315 6.94133,9.10721 l 3.46576,5.84374 3.48718,-11.34374 c 3.12363,-10.16112 5.2704,-20.03957 4.80139,-22.09375 -0.31973,-1.40034 1.72471,-0.75834 2.6073,0.81875 1.12379,2.0081 21.87283,9.55183 34.22146,12.4419 13.50075,3.15971 17.33781,5.31404 20.41156,11.46015 2.26785,4.53469 4.50001,12.00743 4.56399,15.2792 0.0191,0.97706 -7.75251,1.25 -35.59218,1.25 h -35.61663 l 0.56162,-2.14766 c 0.56752,-2.17019 -1.8527,-7.8878 -5.57412,-13.16846 l -1.98458,-2.81611 -2.45165,2.3032 c -1.96009,1.84141 -2.33799,2.9574 -1.88482,5.56611 0.31174,1.79461 0.84189,4.83792 1.1781,6.76292 l 0.61129,3.5 h -7.130346 -7.130343 l 0.619333,-2.75 c 0.340633,-1.5125 1.059087,-4.50262 1.596563,-6.64471 0.853422,-3.40128 0.706719,-4.16144 -1.157953,-6 -2.130392,-2.10057 -2.138599,-2.1008 -3.657279,-0.10529 -3.25311,4.27452 -6.234633,11.27319 -5.689911,13.35621 l 0.560614,2.14379 H 48.311546 c -27.839676,0 -35.611293,-0.27294 -35.592184,-1.25 z M 88.171597,92.275017 c 0.248712,-0.402424 -0.836747,-1.966571 -2.41213,-3.475884 l -2.864332,-2.744204 0.06114,2.341179 c 0.03363,1.287649 -0.255749,3.05358 -0.643058,3.92429 -0.576967,1.297083 -0.152202,1.502095 2.350989,1.134705 1.680353,-0.246624 3.258679,-0.777662 3.50739,-1.180086 z m 28.526623,-0.529045 c -0.52096,-1.370224 -0.66659,-3.222574 -0.32362,-4.116334 0.51928,-1.353225 0.29177,-1.447437 -1.36029,-0.56328 -5.10238,2.730709 -5.24282,5.566821 -0.31939,6.450072 1.375,0.246672 2.60136,0.509776 2.72525,0.584676 0.12389,0.0749 -0.20099,-0.98491 -0.72195,-2.355134 z M 73.194915,89.237288 c 0,-4.382637 -0.219712,-4.540461 -3.952947,-2.839485 -3.070666,1.399089 -3.163774,2.222764 -0.547053,4.839485 3.120726,3.120726 4.5,2.507715 4.5,-2 z m 57.471685,1.308872 2.11684,-2.691128 -2.29426,-1.273437 c -3.63365,-2.01687 -4.29426,-1.608332 -4.29426,2.655693 0,4.714163 1.4575,5.140778 4.47168,1.308872 z M 81.694915,87.796305 c 0,-0.242541 -0.45,-0.719098 -1,-1.059017 -0.55,-0.339919 -1,-0.141476 -1,0.440983 0,0.582459 0.45,1.059017 1,1.059017 0.55,0 1,-0.198442 1,-0.440983 z m 43.000005,-0.559017 c 0,-0.55 -0.47656,-1 -1.05902,-1 -0.58246,0 -0.7809,0.45 -0.44098,1 0.33992,0.55 0.81648,1 1.05902,1 0.24254,0 0.44098,-0.45 0.44098,-1 z"
     style="fill:#ebcbc5" />
  <path
     inkscape:connector-curvature="0"
     id="path5521"
     d="m 13.194298,195.98729 c 0.371348,-2.3375 2.005914,-7.18639 3.632369,-10.77531 3.490192,-7.70142 6.750103,-9.8249 19.133424,-12.46337 11.047671,-2.35388 34.001977,-10.27235 35.488571,-12.24237 1.942137,-2.57371 3.07515,-0.5263 4.235214,7.65322 0.575659,4.05892 2.349529,11.6994 3.941932,16.97884 1.592404,5.27945 3.167964,10.83649 3.501245,12.34899 l 0.605966,2.75 h -35.60695 -35.60695 z m 79.723812,-0.97771 c 0.522592,-2.87523 1.352375,-5.97924 1.843964,-6.89778 0.671819,-1.2553 0.277761,-2.07372 -1.586681,-3.29534 -3.18658,-2.08793 -3.125845,-2.77454 0.623114,-7.04437 4.044011,-4.60588 7.027813,-4.6034 11.640893,0.01 l 3.54448,3.54448 -2.79103,2.9132 c -2.73025,2.84977 -2.76606,3.03753 -1.64448,8.62231 0.6306,3.14 1.14655,6.08404 1.14655,6.54231 0,0.45795 -3.08857,0.8329 -6.86349,0.8329 h -6.863485 z m 23.34467,2.47771 c 0.33328,-1.5125 1.90884,-7.06954 3.50125,-12.34899 1.5924,-5.27944 3.36627,-12.91992 3.94193,-16.97884 1.16006,-8.17952 2.29308,-10.22693 4.23521,-7.65322 1.4866,1.97002 24.4409,9.88849 35.48857,12.24237 12.38333,2.63847 15.64324,4.76195 19.13343,12.46337 1.62645,3.58892 3.26102,8.43781 3.63237,10.77531 l 0.67518,4.25 H 151.26377 115.65682 Z M 87.194915,161.17987 c -9.745885,-4.90583 -9.5,-4.6506 -9.5,-9.86115 0,-4.49979 -0.26326,-4.99187 -4.089042,-7.64314 -6.362702,-4.40935 -11.499906,-10.85951 -12.885105,-16.17824 -0.681833,-2.61803 -1.432708,-5.50281 -1.66861,-6.41064 -0.235902,-0.90782 -1.506703,-1.92109 -2.824002,-2.25171 -1.599407,-0.40143 -4.411324,-3.63592 -8.464165,-9.73617 -5.962585,-8.97474 -6.069076,-9.256613 -6.069076,-16.064024 0,-7.267562 1.13052,-10.797508 3.45807,-10.797508 1.10371,0 1.281512,-1.483699 0.868814,-7.25 -0.86413,-12.073816 3.679223,-28.214815 10.084596,-35.827169 5.88608,-6.99521 22.406587,-17.796449 30.460644,-19.915414 7.050831,-1.855023 20.699161,-1.415014 28.127881,0.906815 10.41282,3.254502 24.96118,13.766759 30.42232,21.98235 5.71113,8.591677 9.46518,25.015074 8.05748,35.250259 -0.56117,4.080208 -0.40969,4.853159 0.95111,4.853159 2.28691,0 3.56909,4.101589 3.56909,11.417216 0,5.07566 -0.47116,6.941706 -2.44535,9.684906 -1.34494,1.86883 -4.11436,5.99423 -6.15427,9.16755 -2.20911,3.43652 -4.64301,6.00411 -6.01882,6.34941 -1.27044,0.31886 -2.5029,1.32251 -2.7388,2.23033 -0.23591,0.90783 -0.98678,3.79261 -1.66861,6.41064 -1.3852,5.31873 -6.52241,11.76889 -12.88511,16.17824 -3.99412,2.76793 -4.08904,2.96911 -4.08904,8.66633 0,4.83651 -0.26253,5.73187 -1.53725,5.24271 -0.84548,-0.32444 -2.32445,0.12252 -3.28659,0.99325 -5.55598,5.02809 -21.993372,6.46932 -29.676165,2.602 z m 24.000005,-10.93269 c 4.80548,-2.10598 19.8736,-14.12424 22.2437,-17.74148 0.92874,-1.41744 3.56342,-9.80929 5.85484,-18.64855 3.43426,-13.24778 3.92788,-16.251334 2.80962,-17.095623 -1.13694,-0.85839 -1.09452,-2.157711 0.26196,-8.024239 1.40621,-6.081607 1.47326,-9.164782 0.51103,-23.5 -1.42669,-21.254833 -2.61633,-25.229943 -9.49849,-31.738808 -2.93118,-2.772181 -7.21284,-6.001183 -9.51481,-7.175561 l -4.1854,-2.135233 -3.23265,3.681781 c -8.64588,9.847117 -23.905198,9.788491 -32.609608,-0.125285 l -3.342649,-3.807067 -4.49361,2.183165 c -2.471485,1.20074 -6.928647,4.486121 -9.904804,7.300847 -6.982108,6.603387 -8.163278,10.531567 -9.566838,31.816161 -0.917502,13.913628 -0.851259,17.597249 0.422606,23.5 1.213658,5.623773 1.261923,7.201369 0.245496,8.024239 -1.001276,0.810604 -0.396175,4.376403 2.901059,17.095623 2.291422,8.83926 4.914913,17.21404 5.829981,18.61061 1.839826,2.80792 15.098933,13.85187 20.349563,16.94982 6.463866,3.81378 17.287404,4.17411 24.919004,0.8296 z M 98.944915,134.54796 c 0.9625,-0.25152 2.537505,-0.25152 3.500005,0 0.9625,0.25153 0.175,0.45733 -1.75,0.45733 -1.925005,0 -2.712505,-0.2058 -1.750005,-0.45733 z m -11.25,-1.08236 c 0,-3.00869 15.371185,-4.81041 21.250005,-2.49079 2.0625,0.8138 3.75,1.92892 3.75,2.47805 0,0.61015 -0.68053,0.66568 -1.75,0.14278 -2.27356,-1.1116 -19.226446,-1.1116 -21.500005,0 -1.061746,0.51912 -1.75,0.46798 -1.75,-0.13004 z m 6.4,-14.62831 c -3.588932,-3.58893 -4.083582,-5.4542 -2.320183,-8.74914 0.593899,-1.10971 1.708986,-4.79263 2.47797,-8.18426 l 1.398155,-6.166602 -0.58829,10.616032 c -0.566462,10.22212 -0.50425,10.67488 1.676636,12.20244 1.643082,1.15086 2.771585,1.31526 4.110327,0.59879 2.34211,-1.25346 2.40913,-0.0657 0.0954,1.69069 -2.530332,1.9208 -3.083373,1.75868 -6.850004,-2.00795 z m 9.678955,-5.18333 c 0.048,-1.16495 0.28494,-1.4019 0.60416,-0.60417 0.28887,0.72187 0.25335,1.58437 -0.0789,1.91667 -0.3323,0.33229 -0.56864,-0.25834 -0.52522,-1.3125 z M 73.572777,95.418518 c -2.542175,-0.924677 -5.354675,-2.29883 -6.25,-3.053675 -1.798747,-1.516517 -2.24656,-7.127555 -0.568845,-7.127555 0.582459,0 0.737092,-0.520886 0.343628,-1.157524 -0.490217,-0.793188 -0.03623,-0.979919 1.442363,-0.593258 1.186764,0.310345 1.905573,0.156231 1.597355,-0.342477 -0.308218,-0.498707 0.253661,-0.922687 1.24862,-0.942176 0.994959,-0.01949 2.934017,-0.678544 4.309017,-1.464565 l 2.5,-1.429129 -2.5,-0.01099 c -4.492037,-0.01975 -11.472941,1.984172 -12.739668,3.657012 -0.681817,0.900408 -1.492393,1.384378 -1.801282,1.07549 -0.308889,-0.308889 0.473961,-1.740073 1.739667,-3.18041 2.468608,-2.809206 9.297387,-4.611973 17.469891,-4.611973 2.417596,0 6.011132,-0.675 7.985635,-1.5 4.390252,-1.834365 4.345757,-1.833784 4.345757,-0.0567 0,1.984247 -3.910327,4.552058 -6.972506,4.578666 -2.124537,0.01846 -1.850086,0.32945 1.721453,1.950637 4.717721,2.141459 6.837371,5.555194 5.862092,9.441009 -1.386482,5.524183 -11.16078,7.885696 -19.733177,4.767622 z m 14.953158,-2.737125 c 0.755862,-0.622948 -2.033312,-4.482001 -4.000247,-5.534672 -1.88532,-1.008993 -2.06332,-0.906698 -1.587619,0.912389 0.294675,1.126836 -0.09592,2.950657 -0.867983,4.052934 -1.345426,1.920864 -1.24734,1.98 2.360537,1.423151 2.070361,-0.319544 3.913251,-0.703755 4.095312,-0.853802 z M 73.243638,89.234117 c 0.05164,-4.236122 -0.987225,-4.902885 -4.614464,-2.961645 -2.561027,1.370619 -2.447981,3.491583 0.288247,5.408112 3.409574,2.388158 4.273235,1.89976 4.326217,-2.446467 z m 7.951277,-1.996829 c -0.339919,-0.55 -1.068034,-1 -1.618034,-1 -0.549999,0 -0.721885,0.45 -0.381966,1 0.339919,0.55 1.068034,1 1.618034,1 0.55,0 0.721885,-0.45 0.381966,-1 z m 1.229167,-7.604167 c -0.332291,-0.332291 -1.194792,-0.367818 -1.916667,-0.07895 -0.797733,0.319226 -0.560776,0.556183 0.604167,0.604167 1.054166,0.04342 1.644791,-0.192928 1.3125,-0.52522 z m 28.770448,16.257036 c -4.22506,-1.895982 -5.68562,-4.021426 -5.31784,-7.738674 0.38153,-3.856289 3.99915,-6.881071 9.50346,-7.946085 l 3.81477,-0.738112 -4.02749,-0.114999 c -4.38262,-0.125139 -8.47251,-2.380288 -8.47251,-4.671703 0,-1.77708 -0.0445,-1.777661 4.34576,0.0567 1.9745,0.825 5.56804,1.5 7.98563,1.5 8.17251,0 15.00128,1.802767 17.46989,4.611973 2.73383,3.11102 2.23152,4.420825 -0.60687,1.582439 -1.95158,-1.951577 -13.58747,-4.134683 -14.92244,-2.79972 -0.33291,0.332923 0.34314,0.605312 1.50235,0.605312 1.1592,0 2.35423,0.398987 2.65562,0.886637 0.30138,0.48765 2.12154,1.181841 4.0448,1.542646 1.92326,0.360805 3.43178,0.974319 3.35229,1.363363 -0.0795,0.389045 0.22712,1.565424 0.68138,2.614177 1.27054,2.933317 -1.45892,6.716298 -5.96614,8.268953 -6.07602,2.093075 -12.6619,2.494195 -16.04266,0.977093 z m 6.16763,-3.717561 c -0.79539,-1.135581 -1.20507,-2.98665 -0.91039,-4.113486 0.45935,-1.756573 0.2637,-1.903187 -1.37173,-1.027932 -1.04912,0.561474 -2.75122,1.95316 -3.78243,3.092637 -1.97537,2.182759 -1.79107,2.401505 2.89731,3.438922 4.33752,0.95978 4.70134,0.800094 3.16724,-1.390141 z m 13.33276,-0.935308 c 2.65609,-2.656091 2.52169,-3.851156 -0.5651,-5.024751 -3.83796,-1.45919 -4.03641,-1.308665 -3.98362,3.02158 0.0549,4.500446 1.44101,5.11088 4.54872,2.003171 z m -6,-4 c 0,-0.55 -0.47656,-1 -1.05902,-1 -0.58246,0 -0.7809,0.45 -0.44098,1 0.33992,0.55 0.81648,1 1.05902,1 0.24254,0 0.44098,-0.45 0.44098,-1 z M 57.301904,115.6555 c -0.333844,-0.86998 -0.606989,-1.96994 -0.606989,-2.44435 0,-0.98022 -5.509175,-6.8652 -8.457113,-9.03401 -1.298921,-0.95562 -0.976512,-0.13902 0.958679,2.42813 1.603686,2.12739 3.012862,4.52936 3.131502,5.33771 0.263696,1.79668 3.321741,5.29431 4.628908,5.29431 0.523601,0 0.678857,-0.7118 0.345013,-1.58179 z m 88.005426,-0.94942 c 0.91218,-1.39216 1.3634,-2.82632 1.00271,-3.18701 -0.36069,-0.36068 1.04085,-2.42672 3.11454,-4.59118 2.07369,-2.16445 2.87034,-3.45852 1.77034,-2.87569 -3.92091,2.07748 -9.5,9.56531 -9.5,12.75019 0,1.34841 2.18685,0.0794 3.61241,-2.09631 z M 53.779784,103.13247 c -0.526953,-1.31735 -0.98662,-1.86948 -1.021483,-1.22697 -0.08468,1.56062 1.080231,4.52151 1.581635,4.0201 0.21887,-0.21887 -0.0332,-1.47578 -0.560152,-2.79313 z m 92.829536,-0.89518 c -0.0362,-0.98906 -0.34772,-0.81874 -0.9144,0.5 -1.18132,2.74909 -1.18132,4.32797 0,2.5 0.53316,-0.825 0.94464,-2.175 0.9144,-3 z M 51.384242,99.487288 c -0.251529,-0.9625 -0.457324,-0.175 -0.457324,1.750002 0,1.925 0.205795,2.7125 0.457324,1.75 0.251527,-0.9625 0.251527,-2.5375 0,-3.500002 z m 96.972958,0.5 c -0.27741,-0.6875 -0.50439,-0.125 -0.50439,1.250002 0,1.375 0.22698,1.9375 0.50439,1.25 0.27741,-0.6875 0.27741,-1.8125 0,-2.500002 z m -99.800749,-5.5 c 0.664857,-1.2375 0.815231,-2.25 0.334163,-2.25 -1.325843,0 -3.208869,4.746346 -3.093338,7.797052 l 0.102362,2.70295 0.72399,-3.000002 c 0.398194,-1.65 1.267964,-4.0125 1.932823,-5.25 z M 152.09374,94.053685 c -0.94667,-1.824018 -1.90731,-2.765489 -2.13476,-2.092157 -0.22746,0.673332 0.29508,2.23596 1.16119,3.472507 0.86611,1.236546 1.64217,3.385638 1.72458,4.775755 l 0.14983,2.5275 0.41019,-2.6836 c 0.2256,-1.475987 -0.36437,-4.175987 -1.31103,-6.000005 z M 47.672679,90.046305 c 0.01223,-0.380041 -0.427764,-0.969098 -0.977764,-1.309017 -0.549999,-0.339919 -1,-0.476005 -1,-0.302415 0,0.17359 -0.44001,1.887648 -0.977801,3.809017 l -0.977803,3.493398 1.955566,-2.5 c 1.075561,-1.375 1.965572,-2.810942 1.977802,-3.190983 z m 107.006931,2.940983 c -0.0183,-2.693856 -1.59903,-5.468998 -2.56492,-4.503104 -0.63849,0.638486 1.35491,6.753104 2.20155,6.753104 0.20827,0 0.37179,-1.0125 0.36337,-2.25 z m -107.623068,-7.25 c -0.316583,-0.825 -1.032559,-1.5 -1.59106,-1.5 -0.585304,0 -0.488115,0.635407 0.229433,1.5 0.684689,0.825 1.400667,1.5 1.59106,1.5 0.190394,0 0.08715,-0.675 -0.229433,-1.5 z M 155.09191,85.070621 c -0.28326,-0.458333 -0.93847,-0.833333 -1.45601,-0.833333 -0.51754,0 -0.94098,0.375 -0.94098,0.833333 0,0.458334 0.65521,0.833334 1.45601,0.833334 0.80081,0 1.22425,-0.375 0.94098,-0.833334 z"
     style="fill:#e6c3ba" />
  <path
     inkscape:connector-curvature="0"
     id="path5519"
     d="m 13.284607,195.98729 c 0.337329,-2.3375 1.880343,-7.03331 3.428918,-10.43512 3.378335,-7.42133 7.381401,-10.29271 16.98139,-12.18071 10.315173,-2.02865 36.891796,-11.12018 37.941224,-12.97922 1.567115,-2.77611 2.992091,-0.11078 3.955046,7.39769 0.490047,3.82105 2.51386,12.50094 4.497362,19.28865 1.983502,6.78771 3.606368,12.52521 3.606368,12.75 0,0.22479 -15.980318,0.40871 -35.511817,0.40871 H 12.671281 Z m 79.637328,-1 c 0.524695,-2.8875 1.335143,-5.925 1.800995,-6.75 0.599461,-1.06161 0.06156,-2.1301 -1.840506,-3.65598 l -2.687509,-2.15599 3.100638,-3.84401 c 4.323177,-5.35966 7.509647,-5.56716 12.021837,-0.78284 l 3.49547,3.70628 -2.70552,2.82395 c -2.63311,2.74838 -2.67484,2.97676 -1.55897,8.53306 0.6306,3.14 1.14655,6.08404 1.14655,6.54231 0,0.45827 -3.08857,0.83322 -6.86349,0.83322 h -6.863485 z m 22.772985,4.84129 c 0,-0.22479 1.57225,-5.81897 3.4939,-12.4315 1.92164,-6.61253 3.95962,-15.30659 4.52884,-19.32013 1.11458,-7.85882 2.47526,-10.44959 4.03604,-7.68471 1.04942,1.85904 27.62605,10.95057 37.94122,12.97922 3.575,0.70308 8.18056,2.31178 10.23458,3.57489 4.1389,2.5452 8.18884,9.46751 9.27089,15.84617 0.36804,2.16962 0.8852,4.73227 1.14924,5.69477 0.45068,1.64286 -1.6974,1.75 -35.08732,1.75 -19.56207,0 -35.56739,-0.18392 -35.56739,-0.40871 z M 91.87916,162.16864 c -4.264636,-0.83945 -9.849956,-3.73992 -12.710768,-6.60073 -0.810412,-0.81041 -1.473477,-3.18727 -1.473477,-5.2819 0,-3.44103 -0.524627,-4.20453 -5.438268,-7.91436 -6.832367,-5.15849 -10.060446,-9.39603 -11.529075,-15.13436 -0.633434,-2.475 -1.366039,-5.24276 -1.628011,-6.15059 -0.261973,-0.90782 -1.54578,-1.919 -2.852905,-2.24707 -1.373933,-0.34483 -3.653089,-2.60169 -5.402272,-5.34941 -1.664126,-2.61411 -4.403535,-6.73315 -6.087576,-9.15341 -2.696445,-3.87527 -3.061893,-5.225842 -3.061893,-11.315744 0,-7.076856 1.129168,-10.783518 3.285185,-10.784113 0.871307,-2.41e-4 1.226739,-2.89859 1.256985,-10.25 0.04839,-11.760073 2.455967,-21.231407 7.356482,-28.94012 3.864444,-6.07893 16.582477,-16.16535 26.101348,-20.700461 6.765001,-3.223074 8.491802,-3.610154 17.620438,-3.949792 15.793117,-0.587595 24.912777,2.966014 39.879567,15.539652 11.16445,9.379279 15.82597,20.882906 15.79161,38.970276 -0.0149,7.821462 0.23411,9.234996 1.69383,9.616721 3.28502,0.859053 4.12426,14.12668 1.21538,19.214061 -5.30029,9.26972 -10.83073,16.61999 -12.89493,17.13807 -1.65907,0.41641 -2.57909,1.70999 -3.35538,4.71782 -0.58825,2.27926 -1.32,5.04411 -1.6261,6.14411 -0.94689,3.40275 -5.20594,8.34577 -10.88614,12.63436 -5.41448,4.08797 -5.43827,4.12972 -5.43827,9.5448 0,3.23966 -0.39019,5.19772 -0.96497,4.84249 -0.53074,-0.32801 -2.67875,0.53774 -4.77336,1.92388 -5.98829,3.96286 -15.01489,5.2697 -24.07743,3.48582 z m 17.81576,-10.01026 c 4.72897,-1.18303 23.11172,-15.79031 25.24111,-20.05705 1.35787,-2.72084 9.75889,-32.249813 9.75889,-34.30181 0,-0.309227 -0.675,-0.562232 -1.5,-0.562232 -1.73738,0 -1.92869,-3.424437 -0.53072,-9.5 1.33618,-5.807064 1.37052,-11.362436 0.16192,-26.195948 -1.53338,-18.819541 -2.45361,-21.79561 -8.59726,-27.804052 -2.81188,-2.75 -7.21767,-6.116448 -9.79064,-7.480995 l -4.67812,-2.480995 -3.28259,3.578862 C 107.2687,37.394116 93.94596,37.715212 84.589656,28.1227 l -4.605259,-4.721522 -5.302939,3.028633 c -2.916616,1.665749 -7.403137,5.128833 -9.970046,7.695742 -5.593372,5.593373 -6.579075,8.838692 -8.154091,26.846459 -1.282604,14.664518 -1.257007,20.600477 0.114464,26.543555 1.449871,6.282811 1.281187,9.721721 -0.47687,9.721721 -1.942946,0 -1.934494,0.08774 0.975246,10.124442 1.361384,4.69588 3.188307,11.65143 4.059831,15.45676 2.184623,9.53874 4.682028,12.85427 16.313799,21.65801 8.256174,6.24886 10.942281,7.74381 14.864177,8.27263 2.632822,0.35501 5.236947,0.77486 5.786947,0.93301 1.270444,0.36532 6.964735,-0.38918 11.500005,-1.52376 z m -19.000005,-20.348 c 3.371262,-2.02575 15.635435,-2.02313 19.000005,0.004 l 2.5,1.50628 -2.5,-0.75523 c -2.59845,-0.78497 -13.2866,-0.64767 -18.500005,0.23766 l -3,0.50946 2.5,-1.50223 z m 3.634859,-12.64567 c -3.184489,-2.50492 -3.320116,-5.20724 -0.673909,-13.42742 2.119715,-6.584687 2.575597,-5.60218 1.074143,2.31496 -0.647768,3.41566 -0.620296,6.07648 0.08358,8.09562 1.078006,3.09237 3.969251,4.77115 6.026892,3.49946 0.72404,-0.44748 0.89397,-0.28302 0.44993,0.43545 -1.09248,1.76767 -4.040598,1.37883 -6.960637,-0.91807 z M 70.694915,94.527853 c -2.340289,-0.86051 -5,-3.467078 -5,-4.900098 0,-0.752377 1.03349,-0.266067 2.454545,1.154988 3.603664,3.603663 5.03664,3.146169 5.096925,-1.627252 0.05466,-4.328128 -0.536867,-4.561423 -6.05147,-2.38667 -1.768536,0.697444 -1.719429,0.480863 0.424314,-1.871404 2.042592,-2.241276 3.259688,-2.660129 7.729764,-2.660129 2.917997,0 7.087802,0.713156 9.266233,1.584792 4.579908,1.832515 8.081224,6.178191 6.009429,7.458631 -0.822929,0.508598 -2.378294,-0.341214 -4.348289,-2.375795 l -3.067076,-3.167628 -0.345673,3 c -0.19012,1.65 -0.859526,3.621025 -1.487568,4.380055 -0.946718,1.14417 -0.547011,1.272798 2.338485,0.752543 2.545994,-0.459044 2.943437,-0.378593 1.480381,0.299659 -2.170865,1.006383 -12.072048,1.25105 -14.5,0.358308 z m 9.979944,-7.814731 c -0.695719,-0.838291 -1.470881,-1.31823 -1.722579,-1.066531 -0.693499,0.693497 0.715542,2.590697 1.924097,2.590697 0.663093,0 0.587231,-0.573782 -0.201518,-1.524166 z m 33.020061,7.446065 c -1.91268,-0.6723 -1.57449,-0.747347 1.43957,-0.319444 3.49894,0.496741 3.79367,0.383506 2.63515,-1.01242 -0.71742,-0.864445 -1.10566,-2.925839 -0.86276,-4.580876 0.24291,-1.655038 0.29589,-3.009159 0.11773,-3.009159 -0.17816,0 -2.12079,1.623358 -4.31696,3.607462 -3.2106,2.900588 -4.11001,3.302618 -4.59002,2.051721 -0.71765,-1.870166 1.90659,-4.80979 6.27763,-7.032087 3.57282,-1.816472 12.72833,-2.188538 14.59187,-0.59299 0.66428,0.568758 2.10779,1.730494 3.20779,2.581635 l 2,1.547529 -2,-0.710231 c -5.70442,-2.025728 -6.10612,-1.862089 -6.05147,2.465164 0.0615,4.871866 1.54002,5.246106 5.26147,1.331797 1.8003,-1.893592 2.40827,-2.179543 1.95226,-0.918213 -0.36424,1.007484 -0.66226,2.008428 -0.66226,2.22432 0,0.215893 -1.32765,1.079089 -2.95034,1.918213 -3.18091,1.64491 -11.94773,1.889392 -16.04966,0.447579 z m 10.97994,-7.446065 c -0.69572,-0.838291 -1.47088,-1.31823 -1.72258,-1.066531 -0.69349,0.693497 0.71555,2.590697 1.9241,2.590697 0.6631,0 0.58723,-0.573782 -0.20152,-1.524166 z M 61.694915,82.931231 c 0,-0.338818 0.951788,-1.502758 2.115084,-2.586533 2.196523,-2.046373 4.31326,-2.558241 16.884916,-4.0831 4.125,-0.500335 8.5125,-1.212972 9.75,-1.583637 1.361757,-0.407883 2.25,-0.247007 2.25,0.407512 0,2.268705 -4.892272,3.569088 -15.737553,4.183095 -8.849971,0.501043 -11.665126,1.023165 -13.25,2.457456 -1.106846,1.001681 -2.012447,1.544025 -2.012447,1.205207 z M 135.47262,81.58642 c -1.26042,-1.260424 -4.51895,-1.816012 -13.7777,-2.349132 -9.17833,-0.528489 -12.52244,-1.093866 -13.75389,-2.325323 -2.34238,-2.342371 -1.14003,-2.88187 3.86936,-1.736205 2.41149,0.551515 8.08216,1.452879 12.60148,2.00303 8.17228,0.994836 11.80065,2.358994 12.73236,4.786986 0.64456,1.679698 0.31197,1.60422 -1.67161,-0.379356 z m -78.172863,33.40087 c -0.345632,-1.2375 -1.351246,-5.05622 -2.234699,-8.48605 -0.883454,-3.42982 -1.961183,-6.0167 -2.394953,-5.74862 -0.43377,0.26809 -0.57224,-0.52569 -0.307711,-1.763952 0.451893,-2.115307 0.392208,-2.142801 -0.987485,-0.454904 -0.807645,0.988062 -1.228612,2.713606 -0.935482,3.834536 0.416003,1.5908 0.738678,1.74519 1.470357,0.70352 0.747544,-1.06425 0.855069,-1.03255 0.530905,0.15654 -0.223569,0.82009 0.192172,2.08973 0.923869,2.82143 1.572336,1.57234 1.739734,3.1875 0.330357,3.1875 -0.549999,0 -1,-0.59037 -1,-1.31194 0,-0.72157 -1.35,-2.31004 -3,-3.52994 -3.463543,-2.56071 -3.639611,-3.74899 -1.286605,-8.683293 1.488633,-3.121698 1.521428,-3.714442 0.25,-4.518614 -0.804868,-0.509074 -1.099337,-0.93248 -0.654377,-0.940902 0.444959,-0.0084 0.466262,-0.569901 0.04734,-1.247732 -0.418923,-0.67783 -0.82026,-2.02761 -0.891863,-2.999512 -0.168076,-2.281412 -1.05733,-3.137745 -2.397964,-2.309188 -1.528017,0.944367 -1.31601,2.541119 0.337395,2.541119 1.134634,0 1.030578,0.982574 -0.542485,5.122541 -2.282619,6.007366 -1.938446,8.831311 0.503042,4.127459 2.229896,-4.296198 2.913232,-4.158911 1.084491,0.217881 -0.796936,1.907335 -1.448974,3.83501 -1.448974,4.283723 0,1.755298 6.747322,11.172248 7.510278,10.481778 0.445705,-0.40336 0.494524,-0.18359 0.108487,0.48837 -0.910343,1.58462 2.164455,6.27825 4.112877,6.27825 1.076769,0 1.323822,-0.63659 0.8732,-2.25 z m 88.895163,-0.75 c 0.85325,-1.65 1.27974,-3 0.94776,-3 -0.33198,0 1.00646,-1.881 2.97432,-4.18 1.96785,-2.299 3.57792,-4.774 3.57792,-5.5 0,-0.726 0.45,-1.32 1,-1.32 0.55,0 1,-0.47656 1,-1.059019 0,-0.582459 -0.45,-0.780902 -1,-0.440983 -0.55,0.339919 -1,0.178281 -1,-0.359196 0,-0.537476 -0.31232,-1.801533 -0.69405,-2.809017 -0.66806,-1.763218 -0.62617,-1.764497 1.11905,-0.03417 2.16865,2.15014 3.11025,1.62658 1.70897,-0.95024 -0.55254,-1.016059 -1.451,-3.283183 -1.99659,-5.038056 -0.78147,-2.513583 -0.69468,-3.256318 0.40899,-3.5 0.96711,-0.213531 1.11628,-0.764877 0.48167,-1.780363 -1.05093,-1.681689 -2.27792,-0.850697 -2.54189,1.721528 -0.0987,0.962232 -0.74234,2.924637 -1.4302,4.3609 -1.04003,2.171582 -0.98164,3.131625 0.34669,5.70034 2.30349,4.454456 2.08535,5.195466 -2.89484,9.833476 -5.65204,5.26371 -8.35216,11.3548 -5.03348,11.3548 0.81088,0 2.17243,-1.35 3.02568,-3 z m 1.1118,-9.83541 c 0.48851,0.18448 1.02921,-1.12709 1.20156,-2.91459 0.19224,-1.993865 -0.13899,-3.250002 -0.85699,-3.250002 -0.64687,0 -0.90398,0.694152 -0.57481,1.551938 0.34149,0.889924 0.17385,1.291324 -0.39301,0.940984 -0.5437,-0.33602 -0.99469,-0.2469 -1.0022,0.19806 -0.008,0.44496 -0.27155,1.93402 -0.58675,3.30902 -0.39777,1.73517 -0.2829,2.09146 0.37546,1.16459 0.5217,-0.73448 1.34824,-1.18448 1.83674,-1 z"
     style="fill:#d7ab98" />
  <path
     inkscape:connector-curvature="0"
     id="path5517"
     d="m 13.04021,198.48729 c 0.264037,-0.9625 0.781196,-3.52515 1.14924,-5.69477 1.033007,-6.08959 5.044591,-13.10727 8.829984,-15.44678 1.867697,-1.1543 8.888282,-3.48104 15.601299,-5.17053 14.97324,-3.76839 31.16512,-9.49472 32.757647,-11.5849 1.904351,-2.49945 3.005727,-0.81684 3.745534,5.72219 0.380817,3.36598 1.848393,10.01355 3.26128,14.77238 1.412887,4.75882 3.144983,11.01491 3.849103,13.90241 l 1.280217,5.25 H 48.037328 c -33.304014,0 -35.44778,-0.1072 -34.997118,-1.75 z m 79.654705,-0.59107 c 0,-1.28759 0.629614,-4.43312 1.399142,-6.99006 1.372748,-4.5613 1.350719,-4.68427 -1.167812,-6.51889 l -2.566954,-1.8699 2.083423,-2.9259 c 1.145882,-1.60924 3.27108,-3.56151 4.722663,-4.33837 2.310071,-1.23631 2.975383,-1.21217 5.334393,0.19355 1.48233,0.88331 3.37015,2.79985 4.19515,4.25897 1.4056,2.48598 1.35127,2.77512 -0.86324,4.5943 -2.1006,1.72559 -2.28712,2.46906 -1.67824,6.68936 0.37675,2.61141 0.9265,5.76051 1.22165,6.99801 0.5153,2.16049 0.27374,2.25 -6.071767,2.25 -6.262666,0 -6.608408,-0.12248 -6.608408,-2.34107 z m 24.460625,-2.90893 c 0.70412,-2.8875 2.41114,-9.075 3.79339,-13.75 1.38224,-4.675 2.83483,-11.31331 3.22798,-14.75179 0.76027,-6.64952 1.91142,-8.41928 3.83454,-5.89519 1.59253,2.09018 17.78441,7.81651 32.75765,11.5849 6.71302,1.68949 13.7336,4.01623 15.6013,5.17053 3.78539,2.33951 7.79698,9.35719 8.82999,15.44678 0.36804,2.16962 0.8852,4.73227 1.14924,5.69477 0.45066,1.6428 -1.69311,1.75 -34.99712,1.75 h -35.47719 z m -22.460625,-39.8255 c -8.750182,-1.31749 -14.997944,-3.35353 -15.070285,-4.91115 -0.04766,-1.02628 -0.346894,-0.86965 -0.929715,0.48665 -0.729111,1.69673 -0.870087,1.52563 -0.929715,-1.12839 -0.05814,-2.58792 -1.050839,-3.88364 -5.745994,-7.5 -5.601006,-4.31407 -11.319013,-11.79218 -11.329868,-14.81739 -0.0031,-0.85482 -0.474219,-3.24172 -1.047004,-5.30422 -0.812527,-2.92577 -1.540222,-3.75 -3.310804,-3.75 -2.175499,0 -7.34603,-6.58119 -12.885061,-16.40046 -3.186921,-5.649585 -1.893293,-19.599542 1.817534,-19.599542 1.360799,0 1.512281,-0.772951 0.951109,-4.853159 -1.3439,-9.771318 2.568356,-27.148956 7.93925,-35.264924 3.753071,-5.671274 22.2846,-19.823857 26.017801,-19.869872 0.537486,-0.0066 -1.860435,1.666655 -5.328712,3.718401 -12.588848,7.447241 -18.144869,16.385511 -18.151352,29.201055 -0.0015,3.062675 -0.485266,9.50214 -1.074927,14.309923 -0.880033,7.175329 -0.789949,10.105808 0.502817,16.356964 2.040566,9.867137 2.00643,11.401612 -0.253641,11.401612 -1.662372,0 -1.401258,1.59625 2.872885,17.562602 5.307021,19.82474 5.02072,19.364 18.682506,30.06554 9.263873,7.25656 14.170737,9.37186 21.739972,9.37186 8.278059,0 13.643159,-2.19472 22.692379,-9.28284 13.79074,-10.80209 13.48432,-10.31051 18.79651,-30.15456 4.27415,-15.966352 4.53526,-17.562602 2.87289,-17.562602 -2.26328,0 -2.302,-1.65994 -0.26095,-11.184624 0.91055,-4.249123 1.32487,-9.233938 0.98847,-11.892624 -0.31853,-2.517487 -0.99329,-10.033259 -1.49946,-16.701716 -1.34949,-17.77835 -4.5848,-23.315479 -18.4978,-31.658413 -6.59161,-3.952656 -6.48609,-4.926483 0.12424,-1.146574 6.00667,3.434728 17.78032,13.021614 20.24819,16.487414 4.81779,6.765967 7.33983,15.938421 7.84776,28.541683 0.42438,10.530287 0.72586,12.143098 2.54529,13.616381 3.26639,2.644963 3.54227,13.11493 0.48972,18.585535 -6.25466,11.20924 -12.37273,18.46091 -14.10965,16.72399 -0.60108,-0.60109 -2.6896,6.11855 -2.6988,8.68317 -0.0109,3.02521 -5.72887,10.50332 -11.32987,14.81739 -5.20726,4.0108 -5.68548,4.71235 -5.79402,8.5 -0.11254,3.92678 -0.1556,3.98188 -0.88169,1.12839 -0.41985,-1.65 -0.81661,-2.2125 -0.88169,-1.25 -0.0664,0.983 -0.9168,1.75 -1.94017,1.75 -1.00202,0 -3.81452,0.63801 -6.25,1.41781 -5.77542,1.84918 -11.35511,2.3458 -16.928145,1.50669 z m 54.156825,-44.54907 c 7.08529,-10.57465 7.85028,-12.394731 7.72331,-18.375432 -0.0863,-4.063031 -0.2818,-4.754691 -0.74844,-2.647331 l -0.63169,2.852669 -1.16314,-3.102669 c -0.97701,-2.606177 -0.92367,-3.102669 0.33334,-3.102669 0.82306,0 1.30897,-0.5625 1.0798,-1.25 -0.90318,-2.709544 -3.08537,-1.011916 -4.53407,3.527275 -1.14848,3.598487 -1.25789,5.32573 -0.44343,7 1.78033,3.659797 2.00363,5.132547 1.05719,6.972727 -1.22403,2.37991 -3.18675,2.22339 -2.55209,-0.20352 0.28097,-1.07444 -0.0687,-2.74612 -0.77705,-3.71484 -1.13284,-1.549249 -1.55203,-0.874416 -3.48167,5.60497 -1.20657,4.05145 -2.43977,8.88215 -2.74043,10.7349 -0.81759,5.03823 1.66168,3.48972 6.87837,-4.29608 z m -91.54229,3.44724 c -1.330976,-6.65488 -4.738536,-16.822672 -5.637828,-16.822672 -1.266445,0 -2.348408,4.589562 -1.431655,6.072902 0.453354,0.73354 0.230227,1.01886 -0.584413,0.74731 -2.860469,-0.95349 -3.442064,-3.58744 -1.630811,-7.385676 1.636293,-3.431342 1.644888,-3.994585 0.130536,-8.553873 -0.891604,-2.684365 -2.008375,-4.880663 -2.481713,-4.880663 -1.44424,0 -2.30525,2.180116 -1.144365,2.897583 0.623992,0.385648 0.809908,1.728169 0.434586,3.138196 l -0.655931,2.464221 -0.706791,-2.5 c -0.486686,-1.721468 -0.737832,-0.596257 -0.80647,3.61325 -0.09582,5.876263 0.135638,6.467443 5.970535,15.250002 6.313006,9.50219 9.729448,11.88507 8.54432,5.95942 z m 38.135465,16.51505 c 0.6875,-0.27741 1.8125,-0.27741 2.5,0 0.6875,0.27741 0.125,0.50439 -1.25,0.50439 -1.375,0 -1.9375,-0.22698 -1.25,-0.50439 z m 6.011665,-0.045 c 1.24391,-0.23919 3.04391,-0.23011 4,0.0202 0.95609,0.25029 -0.0617,0.446 -2.26166,0.4349 -2.2,-0.0111 -2.98225,-0.21589 -1.73834,-0.45508 z m -6.254586,-11.28129 c -0.350339,-0.56686 0.05106,-0.7345 0.940983,-0.39301 1.732417,0.66479 2.049387,1.38156 0.610956,1.38156 -0.517541,0 -1.215913,-0.44485 -1.551939,-0.98855 z m -2.349184,-7.01143 c 0,-1.375 0.226973,-1.9375 0.504386,-1.25 0.277412,0.6875 0.277412,1.8125 0,2.5 -0.277413,0.6875 -0.504386,0.125 -0.504386,-1.25 z M 70.094576,93.809348 c -1.705187,-0.742311 -3.417671,-2.176611 -3.805521,-3.187332 -0.625402,-1.62977 -0.444347,-1.601399 1.600339,0.250765 2.470271,2.237677 8.059564,4.21855 5.949571,2.108557 -1.494033,-1.494033 -1.463851,-5.024249 0.05595,-6.54405 0.933333,-0.933333 0.725578,-1.2 -0.9349,-1.2 -1.174195,0 -3.289196,0.438862 -4.7,0.975249 -3.483127,1.324283 -3.244826,0.427611 0.38524,-1.449569 6.510594,-3.366759 17.140192,-0.96207 20.087065,4.544212 1.026364,1.917778 0.746976,1.843325 -2.347055,-0.62546 -3.518762,-2.807687 -8.085798,-4.066793 -7.361044,-2.0294 0.212273,0.596733 1.125019,1.022468 2.028323,0.946079 1.894341,-0.160197 2.332176,4.094533 0.535608,5.204872 -0.77153,0.476832 -0.695806,0.944412 0.25,1.543704 2.26501,1.435181 -8.325517,0.950341 -11.743576,-0.537627 z m 47.350344,0.396778 c 2.40083,-0.965014 3.0816,-2.135159 1,-1.718838 -0.83746,0.167491 -1.21236,-0.987633 -1.13594,-3.5 0.0627,-2.0625 -0.0341,-3.75 -0.2152,-3.75 -0.1811,0 -1.91993,1.396616 -3.86406,3.103592 -4.28057,3.75839 -4.74731,2.432248 -0.55693,-1.582393 3.7834,-3.624727 11.5793,-4.568719 17.45518,-2.113618 2.13072,0.89027 3.61848,1.874224 3.30614,2.186566 -0.31235,0.312341 -1.49223,0.0732 -2.62198,-0.531416 -2.44174,-1.30678 -8.28096,-1.053992 -7.81683,0.3384 0.17854,0.535628 0.92163,1.172873 1.65132,1.416101 0.88723,0.295743 1.06636,-0.0148 0.54079,-0.9375 -0.6386,-1.121132 -0.53087,-1.14283 0.57477,-0.115766 1.06306,0.987506 1.11972,1.902331 0.25903,4.182543 -1.08318,2.869685 -1.05745,2.9022 1.53604,1.941006 1.45072,-0.537664 3.20017,-1.718316 3.88767,-2.623672 1.10917,-1.460647 1.25,-1.468411 1.25,-0.06891 0,2.408858 -6.16008,4.812681 -12.15113,4.741685 -4.21996,-0.05001 -4.874,-0.254262 -3.09887,-0.967776 z M 64.428248,80.1132 c 0.678335,-0.683418 1.485241,-0.990671 1.793128,-0.682784 0.307888,0.307887 -0.247112,0.867048 -1.233333,1.242579 -1.425198,0.542685 -1.540062,0.427821 -0.559795,-0.559795 z m 69.266672,0.124088 c -0.90129,-0.58246 -1.02463,-0.975486 -0.30902,-0.984687 0.65504,-0.0084 1.4691,0.434687 1.80902,0.984687 0.7673,1.241525 0.42112,1.241525 -1.5,0 z m -65.86421,-1.42261 c 0.349688,-0.375273 5.036254,-1.132512 10.414591,-1.682755 5.378338,-0.550242 10.60473,-1.442467 11.614205,-1.982721 2.085684,-1.116225 2.517654,0.276983 0.583564,1.882136 -1.368534,1.135782 -23.646104,2.892719 -22.61236,1.78334 z m 47.89452,-0.322251 c -5.29671,-0.36304 -8.03031,-1.524779 -8.03031,-3.412767 0,-0.52506 0.77958,-0.495522 1.83541,0.06954 1.00947,0.540254 6.23587,1.432479 11.6142,1.982721 16.14537,1.651787 12.43193,2.58404 -5.4193,1.360504 z"
     style="fill:#c79e75" />
  <path
     inkscape:connector-curvature="0"
     id="path5515"
     d="m 13.04021,198.48729 c 0.264037,-0.9625 0.781196,-3.52515 1.14924,-5.69477 1.033007,-6.08959 5.044591,-13.10727 8.829984,-15.44678 1.867697,-1.1543 8.888282,-3.48104 15.601299,-5.17053 14.97324,-3.76839 31.16512,-9.49472 32.757647,-11.5849 1.953398,-2.56383 3.041144,-0.74892 3.80041,6.341 0.395915,3.697 2.044366,11.01576 3.663225,16.2639 1.618858,5.24814 3.325187,11.22958 3.791842,13.29208 l 0.848463,3.75 H 48.02123 c -33.288684,0 -35.431681,-0.10721 -34.98102,-1.75 z m 79.654705,-0.59107 c 0,-1.28759 0.629614,-4.43312 1.399142,-6.99006 1.378982,-4.58201 1.360972,-4.677 -1.25,-6.59244 l -2.649142,-1.94344 3.952948,-4.0665 c 2.174121,-2.23657 4.727006,-4.06649 5.673072,-4.06649 2.044625,0 7.873985,5.56746 7.873985,7.52022 0,0.7515 -0.95576,2.03581 -2.1239,2.85401 -1.86008,1.30285 -2.03749,2.08624 -1.42824,6.3067 0.38262,2.65049 0.93716,5.83157 1.23231,7.06907 0.5153,2.16049 0.27374,2.25 -6.071767,2.25 -6.262666,0 -6.608408,-0.12248 -6.608408,-2.34107 z m 24.083575,-1.53538 c 0.47904,-2.13205 1.99396,-7.43129 3.36648,-11.77609 1.37252,-4.3448 3.01263,-11.4879 3.64469,-15.87355 1.27539,-8.8496 2.24537,-10.75559 4.15151,-8.15765 1.43556,1.95657 23.58853,9.68576 34.75375,12.12562 15.92174,3.47927 20.51771,8.25932 23.37199,24.30812 l 0.57801,3.25 h -35.3687 -35.36871 z M 91.48222,154.417 c -0.941983,-0.37384 2.75373,-0.67971 8.212695,-0.67971 5.458965,0 9.154685,0.30587 8.212705,0.67971 -0.94199,0.37385 -4.6377,0.67972 -8.212705,0.67972 -3.575,0 -7.270713,-0.30587 -8.212695,-0.67972 z m -8.192167,-3.67971 c -4.385937,-2.97638 -4.326379,-2.96727 -4.905811,-0.75 -0.323122,1.23646 -0.491365,1.04601 -0.573325,-0.64902 -0.0764,-1.58006 -2.614145,-4.82313 -7.433863,-9.5 -4.024822,-3.90554 -5.037323,-5.04918 -2.25,-2.54143 6.659744,5.99177 13.244478,11.16384 17.570563,13.80102 1.923514,1.17257 2.997594,2.13364 2.386845,2.13569 -0.610749,0.002 -2.768233,-1.12126 -4.794409,-2.49626 z m 30.402167,0.36057 c 4.32608,-2.63718 10.91082,-7.80925 17.57056,-13.80102 2.78732,-2.50775 1.77482,-1.36411 -2.25,2.54143 -6.07558,5.89551 -7.3433,7.67799 -7.46769,10.5 -0.13336,3.02537 -0.19563,3.09672 -0.56642,0.64902 -0.22913,-1.5125 -0.59172,-2.75 -0.80576,-2.75 -0.21405,0 -2.04695,1.125 -4.07313,2.5 -2.02617,1.375 -4.18366,2.49832 -4.79441,2.49626 -0.61075,-0.002 0.46333,-0.96312 2.38685,-2.13569 z m -52.918357,-24.4439 c 0.04798,-1.16495 0.284941,-1.4019 0.604167,-0.60417 0.288871,0.72187 0.253344,1.58438 -0.07895,1.91667 -0.332292,0.33229 -0.568641,-0.25834 -0.52522,-1.3125 z m 77.000007,0 c 0.048,-1.16495 0.28494,-1.4019 0.60416,-0.60417 0.28887,0.72187 0.25335,1.58438 -0.0789,1.91667 -0.3323,0.33229 -0.56864,-0.25834 -0.52522,-1.3125 z m -78.000007,-4 c 0.04798,-1.16495 0.284941,-1.4019 0.604167,-0.60417 0.288871,0.72187 0.253344,1.58437 -0.07895,1.91667 -0.332292,0.33229 -0.568641,-0.25834 -0.52522,-1.3125 z m 79.000007,0 c 0.048,-1.16495 0.28494,-1.4019 0.60416,-0.60417 0.28887,0.72187 0.25335,1.58437 -0.0789,1.91667 -0.3323,0.33229 -0.56864,-0.25834 -0.52522,-1.3125 z m -80.440581,-3.91667 c -0.316583,-0.825 -0.139727,-1.5 0.393011,-1.5 0.532739,0 0.968615,0.675 0.968615,1.5 0,0.825 -0.176855,1.5 -0.393011,1.5 -0.216156,0 -0.652033,-0.675 -0.968615,-1.5 z m 81.361631,0 c 0,-0.825 0.43588,-1.5 0.96862,-1.5 0.53273,0 0.70959,0.675 0.39301,1.5 -0.31659,0.825 -0.75246,1.5 -0.96862,1.5 -0.21615,0 -0.39301,-0.675 -0.39301,-1.5 z m 4,-0.87756 c 0,-0.20765 0.7875,-0.99515 1.75,-1.75 1.58606,-1.24387 1.62143,-1.2085 0.37756,0.37756 -1.30637,1.66575 -2.12756,2.19548 -2.12756,1.37244 z m -92.000005,-3.62244 c -0.588701,-1.1 -0.845368,-2 -0.570368,-2 0.275,0 0.981666,0.9 1.570368,2 0.588702,1.1 0.845368,2 0.570369,2 -0.275,0 -0.981666,-0.9 -1.570369,-2 z m 6.078947,0.41667 c 0.04798,-1.16495 0.284942,-1.4019 0.604167,-0.60417 0.288871,0.72187 0.253344,1.58437 -0.07895,1.91667 -0.332292,0.33229 -0.568641,-0.25834 -0.52522,-1.3125 z m 83.000008,0 c 0.048,-1.16495 0.28494,-1.4019 0.60416,-0.60417 0.28887,0.72187 0.25335,1.58437 -0.0789,1.91667 -0.3323,0.33229 -0.56864,-0.25834 -0.52522,-1.3125 z m 6.92105,-2.41667 c 0.5887,-1.1 1.29537,-2 1.57037,-2 0.275,0 0.0183,0.9 -0.57037,2 -0.5887,1.1 -1.29537,2 -1.57037,2 -0.275,0 -0.0183,-0.9 0.57037,-2 z m -91.921058,-4.58333 c 0.04798,-1.16495 0.284942,-1.4019 0.604167,-0.60417 0.288871,0.72187 0.253344,1.58437 -0.07895,1.91667 -0.332292,0.33229 -0.568641,-0.25834 -0.52522,-1.3125 z m 87.000008,0 c 0.048,-1.16495 0.28494,-1.4019 0.60416,-0.60417 0.28887,0.72187 0.25335,1.58437 -0.0789,1.91667 -0.3323,0.33229 -0.56864,-0.25834 -0.52522,-1.3125 z m 8.42105,-0.41667 c 0.99549,-1.1 2.03498,-2 2.30998,-2 0.275,0 -0.31449,0.9 -1.30998,2 -0.99549,1.1 -2.03498,2 -2.30998,2 -0.275,0 0.31449,-0.9 1.30998,-2 z m -105.095016,-1.25 -1.904989,-2.25 2.25,1.90499 c 2.114446,1.79022 2.705242,2.59501 1.904989,2.59501 -0.189757,0 -1.202258,-1.0125 -2.25,-2.25 z m 8.673958,-2.33333 c 0.04798,-1.16495 0.284942,-1.4019 0.604167,-0.60417 0.288871,0.72187 0.253344,1.58437 -0.07895,1.91667 -0.332292,0.33229 -0.568641,-0.25834 -0.52522,-1.3125 z m 89.000008,0 c 0.048,-1.16495 0.28494,-1.4019 0.60416,-0.60417 0.28887,0.72187 0.25335,1.58437 -0.0789,1.91667 -0.3323,0.33229 -0.56864,-0.25834 -0.52522,-1.3125 z m -95.967664,-1.20872 c -0.674624,-1.26055 -0.445166,-2.956866 0.773648,-5.719372 1.436871,-3.256741 1.853687,-3.612097 2.441147,-2.081198 0.389632,1.015363 0.197703,2.461492 -0.426508,3.21362 -0.62421,0.752128 -0.919377,2.49509 -0.655925,3.87325 0.554756,2.90202 -0.730914,3.33233 -2.132362,0.7137 z m 101.479704,0.41553 c 0.35022,-0.91267 0.075,-3.01575 -0.61171,-4.673507 -1.48457,-3.584056 -0.41199,-5.262227 1.60248,-2.507273 1.85383,2.535268 1.80611,5.99051 -0.10465,7.5763 -1.27502,1.05817 -1.41925,0.99379 -0.88612,-0.39552 z m 5.4893,-0.62348 c 1.45781,-3.061034 1.91971,-3.628341 1.91971,-2.357798 0,0.536548 -0.69982,1.849048 -1.55517,2.916668 -1.46637,1.83031 -1.48719,1.7984 -0.36454,-0.55887 z M 42.014989,93.237288 c 0,-3.575 0.181495,-5.0375 0.403323,-3.25 0.221826,1.7875 0.221826,4.7125 0,6.5 -0.221827,1.7875 -0.403323,0.325 -0.403323,-3.25 z m 114.965941,0.5 c 0.008,-2.75 0.20172,-3.756313 0.43157,-2.23625 0.22986,1.520062 0.22371,3.770062 -0.0136,5 -0.23741,1.229937 -0.42547,-0.01375 -0.41797,-2.76375 z M 55.274064,89.272694 c -2.564069,-9.885885 -2.398234,-22.188457 0.445307,-33.035406 0.789665,-3.012255 0.8554,-2.733543 0.471702,2 -1.722857,21.254228 -1.723516,21.880451 -0.03106,29.487727 2.150928,9.668011 1.510406,10.786947 -0.885951,1.547679 z m 86.497286,6.276647 c -0.042,-0.653371 0.6413,-4.253371 1.51854,-8 1.54971,-6.618759 1.53337,-10.656968 -0.12059,-29.812053 -0.39145,-4.533469 -0.34541,-4.673428 0.49348,-1.5 2.92442,11.062828 2.97455,24.470032 0.12712,34 -1.06816,3.575 -1.97651,5.965424 -2.01855,5.312053 z M 70.094576,93.809348 c -1.705187,-0.742311 -3.417671,-2.176611 -3.805521,-3.187332 -0.593609,-1.546918 -0.330206,-1.485403 1.66479,0.388798 3.335498,3.133538 5.970035,2.986925 5.148455,-0.286512 -0.361747,-1.441313 -0.104428,-3.147129 0.603392,-4 1.024186,-1.234068 0.884151,-1.487014 -0.823233,-1.487014 -1.131539,0 -3.21164,0.438862 -4.622444,0.975249 -3.867841,1.47055 -3.079402,0.137587 0.902781,-1.526276 7.386172,-3.086139 16.709479,-0.827604 19.597907,4.747516 1.069254,2.06383 0.879941,2.009543 -1.819432,-0.52173 -1.657074,-1.553882 -4.190398,-2.954501 -5.629609,-3.112486 -2.895132,-0.317805 -3.356838,0.578617 -1.213993,2.35702 1.077175,0.893976 1.523051,0.86437 1.921053,-0.127555 0.285064,-0.710456 0.553825,-0.0808 0.597246,1.399245 0.04342,1.480041 -0.378393,2.973635 -0.937365,3.319098 -0.558971,0.345464 -0.757414,1.047021 -0.440983,1.559017 0.876337,1.417943 -7.61404,1.039227 -11.143044,-0.497038 z m 5.600339,-1.07206 c 0,-0.825 -0.176855,-1.5 -0.393011,-1.5 -0.216156,0 -0.652033,0.675 -0.968615,1.5 -0.316583,0.825 -0.139728,1.5 0.393011,1.5 0.532738,0 0.968615,-0.675 0.968615,-1.5 z m 42.892505,1.138033 c 0.76588,-0.927501 1.10338,-1.97549 0.75,-2.328866 -0.35337,-0.353375 -0.6425,-0.09094 -0.6425,0.583183 0,0.674126 -0.4996,0.916917 -1.11021,0.539535 -0.65001,-0.401728 -0.88333,-2.084258 -0.56287,-4.059017 0.30104,-1.855077 0.36629,-3.372868 0.14501,-3.372868 -0.22129,0 -2.06868,1.4625 -4.10531,3.25 -3.07322,2.697283 -3.49346,2.858249 -2.47098,0.946489 1.83416,-3.429383 7.04928,-6.188507 11.70514,-6.192751 4.65103,-0.0042 10.39922,1.72547 10.39922,3.129271 0,0.549428 -0.8005,0.508943 -1.93426,-0.09783 -1.06384,-0.569346 -2.86765,-1.035179 -4.00847,-1.035179 -1.79729,0 -1.91364,0.257126 -0.87147,1.925906 0.91799,1.469935 0.92937,2.525918 0.0481,4.460204 -1.1236,2.466032 -1.0817,2.507221 1.55572,1.529067 1.49074,-0.552878 3.27293,-1.745978 3.96043,-2.651334 0.6875,-0.905356 1.25,-1.179838 1.25,-0.60996 0,2.35863 -4.07011,4.497693 -9.64681,5.069919 -5.4086,0.554978 -5.74742,0.472507 -4.46069,-1.085769 z m 7.1075,-6.015588 c 0,-0.207656 -0.675,-0.937756 -1.5,-1.622445 -1.22851,-1.019571 -1.5,-0.951235 -1.5,0.377555 0,0.892345 0.675,1.622445 1.5,1.622445 0.825,0 1.5,-0.1699 1.5,-0.377555 z m 23.55407,2.877555 c 2.53435,-8.675929 3.10267,-18.392452 1.19593,-20.446704 -1,-1.077364 -1,-1.205561 0,-0.640983 0.85092,0.480412 1.25,-0.07136 1.25,-1.728296 0,-5.10914 -1.35448,-8.74225 -4.80548,-12.889697 -3.46868,-4.168691 -3.47991,-4.208396 -0.38387,-1.357229 3.7529,3.456071 3.80656,3.287578 1.18467,-3.720045 -1.24756,-3.334414 -3.76869,-7.121999 -6.67544,-10.02874 -5.07058,-5.070588 -5.26649,-7.90984 -0.21496,-3.115404 7.17047,6.80553 11.85576,20.977988 11.8803,35.936551 0.013,7.917324 0.25722,9.16086 2.01478,10.258474 1.1,0.686961 2,1.781216 2,2.431677 0,0.65046 -0.60673,0.352898 -1.3483,-0.66125 -1.36855,-1.871612 -3.61447,-1.403413 -3.6968,0.770663 -0.0248,0.655041 -0.7066,2.540983 -1.51508,4.190983 -0.80849,1.65 -1.20708,2.1 -0.88575,1 z m 5.56193,-0.168213 c -0.0638,-0.642516 -0.40723,-1.992516 -0.76318,-3 -0.50214,-1.42127 -0.36907,-1.575457 0.59378,-0.688007 0.68253,0.629079 1.02596,1.979079 0.76318,3 -0.26278,1.020921 -0.52998,1.330524 -0.59378,0.688007 z M 43.710228,88.487288 c -0.0084,-1.2375 0.434688,-2.25 0.984687,-2.25 1.252922,0 1.252922,1.061241 0,3 -0.783873,1.212959 -0.972304,1.069438 -0.984687,-0.75 z m 4.501701,-1.172537 c -0.370319,-1.686052 -1.425642,-3.504546 -2.345161,-4.041097 -0.919519,-0.536552 -1.170717,-0.989233 -0.558217,-1.005957 0.735208,-0.02008 1.116022,-3.173691 1.120655,-9.280409 0.0078,-10.332882 1.899224,-19.085172 5.882151,-27.21937 2.740381,-5.596589 8.84339,-12.404132 10.044016,-11.203505 0.379731,0.37973 -1.411423,2.792262 -3.980343,5.361181 -2.90674,2.906741 -5.427874,6.694326 -6.675437,10.02874 -2.621888,7.007623 -2.56823,7.176116 1.184671,3.720045 3.096044,-2.851167 3.084815,-2.811462 -0.383863,1.357229 -3.451005,4.147447 -4.805486,7.780557 -4.805486,12.889697 0,1.656932 0.399077,2.208708 1.25,1.728296 1,-0.564578 1,-0.436381 0,0.640983 -1.496321,1.612081 -1.588411,8.766763 -0.190863,14.82868 0.555634,2.410087 0.812456,4.579764 0.570715,4.821506 -0.241741,0.241742 -0.742518,-0.939967 -1.112838,-2.626019 z m 1.482986,-19.455018 c 0,-0.207656 0.787501,-0.995156 1.75,-1.75 1.586056,-1.243871 1.621426,-1.208501 0.377556,0.377555 -1.30637,1.665748 -2.127556,2.195479 -2.127556,1.372445 z m 97.872445,-1.372445 c -1.24387,-1.586056 -1.2085,-1.621426 0.37756,-0.377555 1.66575,1.306369 2.19548,2.127555 1.37244,2.127555 -0.20765,0 -0.99515,-0.7875 -1.75,-1.75 z m -80.872445,-35.75 c 1.291745,-1.375 2.573628,-2.5 2.848628,-2.5 0.275,0 -0.556883,1.125 -1.848628,2.5 -1.291745,1.375 -2.573628,2.5 -2.848628,2.5 -0.275,0 0.556883,-1.125 1.848628,-2.5 z m 64.924315,-0.25 -2.42431,-2.75 2.75,2.424314 c 1.5125,1.333373 2.75,2.570873 2.75,2.75 0,0.784274 -0.8098,0.145975 -3.07569,-2.424314 z M 75.136045,24.792454 c 1.067621,-0.855341 2.380121,-1.555166 2.916666,-1.555166 1.270543,0 0.703236,0.4619 -2.357796,1.919712 -2.357268,1.122645 -2.389176,1.101832 -0.55887,-0.364546 z m 47.558875,-0.05517 c -1.375,-0.786021 -2.02351,-1.445075 -1.44113,-1.464565 0.58238,-0.01949 1.93238,0.625253 3,1.432762 2.46898,1.86744 1.68038,1.883528 -1.55887,0.0318 z"
     style="fill:#b78f5f" />
  <path
     inkscape:connector-curvature="0"
     id="path5513"
     d="m 13.322928,196.98729 c 2.852922,-16.04119 7.42351,-20.79901 23.371987,-24.32943 11.496074,-2.54481 32.152128,-9.5727 34.223374,-11.64394 1.017267,-1.01727 2.230069,-1.61442 2.695116,-1.32701 0.465046,0.28742 1.170689,3.55878 1.568094,7.2697 0.397407,3.71092 1.55072,9.45468 2.562922,12.7639 1.012201,3.30923 2.736475,9.27928 3.831722,13.26678 l 1.991355,7.25 H 48.156207 12.744916 Z m 79.371987,0.90893 c 0,-1.28759 0.629614,-4.43312 1.399142,-6.99006 1.378982,-4.58201 1.360972,-4.677 -1.25,-6.59244 l -2.649142,-1.94344 3.952948,-4.0665 c 2.174121,-2.23657 4.673346,-4.06649 5.553832,-4.06649 1.810395,0 7.993225,5.98766 7.993225,7.7409 0,0.63013 -0.96458,1.82131 -2.14351,2.64706 -1.84634,1.29323 -2.05696,2.13281 -1.51922,6.05602 0.34335,2.50505 0.90672,5.67995 1.25191,7.05533 0.6221,2.47863 0.56934,2.50069 -5.980777,2.50069 -6.262666,0 -6.608408,-0.12248 -6.608408,-2.34107 z m 24.661345,-3.40893 c 0.80932,-3.1625 2.52112,-9.125 3.80402,-13.25 1.28289,-4.125 2.6561,-10.54376 3.05157,-14.2639 0.39547,-3.72015 1.09953,-6.99906 1.56458,-7.28648 0.46505,-0.28741 1.67785,0.30974 2.69512,1.32701 2.00757,2.00757 22.16081,8.90269 34.22337,11.709 16.07639,3.74012 20.62842,8.46365 23.38335,24.26437 l 0.56665,3.25 H 151.26485 115.88478 Z M 96.944915,154.52104 c 1.5125,-0.22913 3.987505,-0.22913 5.500005,0 1.5125,0.22912 0.275,0.41659 -2.750005,0.41659 -3.025,0 -4.2625,-0.18747 -2.75,-0.41659 z m -13.654862,-3.78375 c -4.385937,-2.97638 -4.326379,-2.96727 -4.905811,-0.75 -0.320173,1.22518 -0.492113,1.02387 -0.573325,-0.67126 -0.0638,-1.33169 -0.903502,-3.34801 -1.866001,-4.48071 -0.9625,-1.13269 0.275,-0.44907 2.75,1.51916 2.475,1.96823 5.85,4.30404 7.5,5.19067 1.65,0.88664 2.500296,1.63008 1.889546,1.6521 -0.610748,0.022 -2.768232,-1.08496 -4.794409,-2.45996 z m 29.904867,0.80786 c 1.65,-0.88663 5.025,-3.22244 7.5,-5.19067 2.475,-1.96823 3.7125,-2.65185 2.75,-1.51916 -0.9625,1.1327 -1.81742,3.59902 -1.89983,5.48071 -0.13249,3.02521 -0.19806,3.10292 -0.56642,0.67126 -0.22913,-1.5125 -0.59172,-2.75 -0.80576,-2.75 -0.21405,0 -2.04695,1.125 -4.07313,2.5 -2.02617,1.375 -4.18366,2.48198 -4.79441,2.45996 -0.61075,-0.022 0.23955,-0.76546 1.88955,-1.6521 z M 70.56736,140.48729 c -1.243871,-1.58606 -1.208501,-1.62143 0.377555,-0.37756 0.9625,0.75485 1.75,1.54235 1.75,1.75 0,0.82304 -0.821186,0.29331 -2.127555,-1.37244 z m 56.12756,1.37244 c 0,-0.20765 0.7875,-0.99515 1.75,-1.75 1.58606,-1.24387 1.62143,-1.2085 0.37756,0.37756 -1.30637,1.66575 -2.12756,2.19548 -2.12756,1.37244 z m -63.12756,-8.37244 c -1.243871,-1.58606 -1.208501,-1.62143 0.377555,-0.37756 0.9625,0.75485 1.75,1.54235 1.75,1.75 0,0.82304 -0.821186,0.29331 -2.127555,-1.37244 z m 70.12756,1.37244 c 0,-0.20765 0.7875,-0.99515 1.75,-1.75 1.58606,-1.24387 1.62143,-1.2085 0.37756,0.37756 -1.30637,1.66575 -2.12756,2.19548 -2.12756,1.37244 z m -72.921058,-8.20577 c 0.04798,-1.16495 0.284942,-1.4019 0.604167,-0.60417 0.288871,0.72187 0.253344,1.58438 -0.07895,1.91667 -0.332292,0.33229 -0.568641,-0.25834 -0.52522,-1.3125 z m 77.000008,0 c 0.048,-1.16495 0.28494,-1.4019 0.60416,-0.60417 0.28887,0.72187 0.25335,1.58438 -0.0789,1.91667 -0.3323,0.33229 -0.56864,-0.25834 -0.52522,-1.3125 z m -78.000007,-4 c 0.04798,-1.16495 0.284941,-1.4019 0.604167,-0.60417 0.288871,0.72187 0.253344,1.58437 -0.07895,1.91667 -0.332292,0.33229 -0.568641,-0.25834 -0.52522,-1.3125 z m -1.578948,-4.41667 c -0.339919,-0.55 -0.141475,-1 0.440984,-1 0.582459,0 1.059016,0.45 1.059016,1 0,0.55 -0.198442,1 -0.440983,1 -0.242541,0 -0.719098,-0.45 -1.059017,-1 z m 81.500005,0 c 0,-0.55 0.47656,-1 1.05902,-1 0.58246,0 0.7809,0.45 0.44098,1 -0.33992,0.55 -0.81648,1 -1.05902,1 -0.24254,0 -0.44098,-0.45 -0.44098,-1 z m 4,-0.37756 c 0,-0.20765 0.7875,-0.99515 1.75,-1.75 1.58606,-1.24387 1.62143,-1.2085 0.37756,0.37756 -1.30637,1.66575 -2.12756,2.19548 -2.12756,1.37244 z m -92.000005,-3.62244 c -0.588701,-1.1 -0.845368,-2 -0.570368,-2 0.275,0 0.981666,0.9 1.570368,2 0.588702,1.1 0.845368,2 0.570369,2 -0.275,0 -0.981666,-0.9 -1.570369,-2 z m 89.078955,0.41667 c 0.048,-1.16495 0.28494,-1.4019 0.60416,-0.60417 0.28887,0.72187 0.25335,1.58437 -0.0789,1.91667 -0.3323,0.33229 -0.56864,-0.25834 -0.52522,-1.3125 z m 6.92105,-2.41667 c 0.5887,-1.1 1.29537,-2 1.57037,-2 0.275,0 0.0183,0.9 -0.57037,2 -0.5887,1.1 -1.29537,2 -1.57037,2 -0.275,0 -0.0183,-0.9 0.57037,-2 z m -91.921058,-4.58333 c 0.04798,-1.16495 0.284942,-1.4019 0.604167,-0.60417 0.288871,0.72187 0.253344,1.58437 -0.07895,1.91667 -0.332292,0.33229 -0.568641,-0.25834 -0.52522,-1.3125 z m 87.000008,0 c 0.048,-1.16495 0.28494,-1.4019 0.60416,-0.60417 0.28887,0.72187 0.25335,1.58437 -0.0789,1.91667 -0.3323,0.33229 -0.56864,-0.25834 -0.52522,-1.3125 z m 8.42105,-0.41667 c 0.99549,-1.1 2.03498,-2 2.30998,-2 0.275,0 -0.31449,0.9 -1.30998,2 -0.99549,1.1 -2.03498,2 -2.30998,2 -0.275,0 0.31449,-0.9 1.30998,-2 z m -105.095016,-1.25 -1.904989,-2.25 2.25,1.90499 c 2.114446,1.79022 2.705242,2.59501 1.904989,2.59501 -0.189757,0 -1.202258,-1.0125 -2.25,-2.25 z m 1.706302,-3.54205 c -0.674624,-1.26055 -0.445166,-2.956866 0.773648,-5.719372 1.436871,-3.256741 1.853687,-3.612097 2.441147,-2.081198 0.389632,1.015363 0.197703,2.461492 -0.426508,3.21362 -0.62421,0.752128 -0.919377,2.49509 -0.655925,3.87325 0.554756,2.90202 -0.730914,3.33233 -2.132362,0.7137 z m 101.557284,-0.0486 c 0.28117,-1.0752 -4e-5,-2.910222 -0.62492,-4.077816 -1.53817,-2.874106 -0.19061,-5.003026 1.60899,-2.541927 1.75444,2.399332 1.71936,5.906743 -0.074,7.395073 -1.16101,0.96356 -1.32769,0.82156 -0.9101,-0.77533 z m 5.41172,-0.15935 c 1.45781,-3.061034 1.91971,-3.628341 1.91971,-2.357798 0,0.536548 -0.69982,1.849048 -1.55517,2.916668 -1.46637,1.83031 -1.48719,1.7984 -0.36454,-0.55887 z M 42.014989,93.237288 c 0,-3.575 0.181495,-5.0375 0.403323,-3.25 0.221826,1.7875 0.221826,4.7125 0,6.5 -0.221827,1.7875 -0.403323,0.325 -0.403323,-3.25 z m 114.952291,0 c 0,-2.475 0.19502,-3.4875 0.43337,-2.25 0.23836,1.2375 0.23836,3.2625 0,4.5 -0.23835,1.2375 -0.43337,0.225 -0.43337,-2.25 z m -81.522365,1.294267 c 1.2375,-0.238353 2.25,-1.051233 2.25,-1.8064 0,-0.84586 -0.786993,-1.221471 -2.049742,-0.978288 -2.599055,0.500533 -3.689142,-2.09679 -2.009084,-4.786992 1.203228,-1.926674 1.071386,-1.987772 -3.092179,-1.432965 -3.121309,0.415924 -3.856632,0.30259 -2.604832,-0.401476 5.91907,-3.329141 17.305439,-1.466757 19.825905,3.242777 1.156367,2.160692 1.035264,2.135495 -1.996234,-0.415342 -1.775007,-1.49357 -4.317758,-2.715581 -5.650559,-2.715581 -2.918822,0 -3.116091,1.086236 -0.494587,2.723392 1.50657,0.940868 2.036447,0.938799 2.421053,-0.0095 0.270801,-0.667666 0.527891,-0.003 0.571313,1.477045 0.04342,1.480041 -0.378393,2.973635 -0.937365,3.319098 -0.558971,0.345464 -0.757414,1.047021 -0.440983,1.559017 0.325479,0.526636 -1.295964,0.871762 -3.733688,0.79472 -2.36996,-0.07485 -3.296518,-0.331152 -2.059018,-0.569505 z m 44.000005,0 c 3.9937,-0.76922 2.48464,-2.914404 -1.6433,-2.336006 -1.05785,0.148224 -1.25349,-0.666289 -0.81259,-3.3832 0.55494,-3.419725 0.48368,-3.528811 -1.60671,-2.459704 -1.20307,0.615298 -3.0051,2.078555 -4.00451,3.251683 l -1.81712,2.13296 1.13094,-2.303511 c 1.56575,-3.189157 6.83841,-6.188278 10.88727,-6.192751 4.1884,-0.0046 11.11602,1.998102 11.11602,3.213567 0,0.495401 -0.52782,0.574517 -1.17294,0.175814 -0.64511,-0.398703 -2.9048,-1.041609 -5.02153,-1.428681 -4.38696,-0.802212 -6.1059,0.61154 -3.26728,2.687192 1.46192,1.068979 2.00819,1.089338 2.63747,0.0983 1.21919,-1.920093 1.03448,1.988789 -0.20326,4.301536 -0.94679,1.769084 -0.81183,1.837963 1.71723,0.876419 1.50962,-0.573958 3.4084,-1.580032 4.2195,-2.235721 1.17802,-0.952308 1.31095,-0.920143 0.66069,0.159874 -1.25732,2.088282 -7.09423,4.16278 -11.28776,4.011784 -2.31896,-0.0835 -2.91168,-0.303836 -1.53212,-0.569551 z M 68.933456,93.571188 c -0.693803,-0.279514 -1.767375,-1.481487 -2.385717,-2.671053 l -1.124259,-2.162847 2.385718,2.122719 c 1.312144,1.167496 3.060717,2.369469 3.885717,2.671053 1.333333,0.487407 1.333333,0.548333 0,0.548333 -0.825,0 -2.067657,-0.228692 -2.761459,-0.508205 z m 85.877464,-3.002113 c -0.0638,-0.642516 -0.40723,-1.992516 -0.76318,-3 -0.50214,-1.42127 -0.36907,-1.575457 0.59378,-0.688007 0.68253,0.629079 1.02596,1.979079 0.76318,3 -0.26278,1.020921 -0.52998,1.330524 -0.59378,0.688007 z M 43.710228,88.487288 c -0.0084,-1.2375 0.434688,-2.25 0.984687,-2.25 1.252922,0 1.252922,1.061241 0,3 -0.783873,1.212959 -0.972304,1.069438 -0.984687,-0.75 z m 4.063634,-2.833333 c 0.04798,-1.164943 0.284942,-1.4019 0.604167,-0.604167 0.288871,0.721875 0.253344,1.584375 -0.07895,1.916667 -0.332292,0.332291 -0.568641,-0.258334 -0.52522,-1.3125 z m 103.000008,0 c 0.048,-1.164943 0.28494,-1.4019 0.60416,-0.604167 0.28887,0.721875 0.25335,1.584375 -0.0789,1.916667 -0.3323,0.332291 -0.56864,-0.258334 -0.52522,-1.3125 z m 4.57597,-0.873539 c -0.32568,-0.84872 -1.28127,-1.543128 -2.12354,-1.543128 -1.28907,0 -1.49854,-1.621842 -1.32384,-10.25 l 0.20754,-10.25 0.33159,9.371395 c 0.29157,8.240091 0.59849,9.587786 2.54246,11.16392 1.21598,0.985889 1.92896,2.075669 1.58441,2.421733 -0.34456,0.346065 -0.89293,-0.0652 -1.21862,-0.91392 z M 45.40611,82.436941 c 0.776062,-0.493192 1.329577,-4.349732 1.54071,-10.734687 l 0.329516,-9.964966 0.209289,10.75 c 0.187995,9.656195 0.03123,10.748442 -1.54071,10.734687 -1.202309,-0.01052 -1.370938,-0.256209 -0.538805,-0.785034 z m 2.446701,-23.199653 c 0,-1.375 0.226973,-1.9375 0.504385,-1.25 0.277412,0.6875 0.277412,1.8125 0,2.5 -0.277413,0.6875 -0.504385,0.125 -0.504385,-1.25 z m 102.999999,0 c 0,-1.375 0.22698,-1.9375 0.50439,-1.25 0.27741,0.6875 0.27741,1.8125 0,2.5 -0.27741,0.6875 -0.50439,0.125 -0.50439,-1.25 z m -102.036713,-4 c -0.01704,-0.825 0.587181,-2.85 1.342703,-4.5 1.768408,-3.86206 1.794358,-2.065699 0.03612,2.5 -0.741314,1.925 -1.361782,2.825 -1.378818,2 z m 98.502363,-6.538659 c -0.96498,-2.514694 -0.68031,-3.163555 0.49853,-1.136338 0.58369,1.003751 0.8506,2.035659 0.59313,2.293128 -0.25747,0.257469 -0.74872,-0.263087 -1.09166,-1.15679 z M 53.694915,43.237288 c 0.588702,-1.1 1.295369,-2 1.570369,-2 0.274999,0 0.01833,0.9 -0.570369,2 -0.588701,1.1 -1.295368,2 -1.570368,2 -0.275,0 -0.01833,-0.9 0.570368,-2 z m 91.000005,0 c -0.5887,-1.1 -0.84537,-2 -0.57037,-2 0.275,0 0.98167,0.9 1.57037,2 0.5887,1.1 0.84537,2 0.57037,2 -0.275,0 -0.98167,-0.9 -1.57037,-2 z m -78.000005,-12.5 c 1.291745,-1.375 2.573628,-2.5 2.848628,-2.5 0.275,0 -0.556883,1.125 -1.848628,2.5 -1.291745,1.375 -2.573628,2.5 -2.848628,2.5 -0.275,0 0.556883,-1.125 1.848628,-2.5 z m 64.924315,-0.25 -2.42431,-2.75 2.75,2.424314 c 1.5125,1.333373 2.75,2.570873 2.75,2.75 0,0.784274 -0.8098,0.145975 -3.07569,-2.424314 z M 75.136045,24.792454 c 1.067621,-0.855341 2.380121,-1.555166 2.916666,-1.555166 1.270543,0 0.703236,0.4619 -2.357796,1.919712 -2.357268,1.122645 -2.389176,1.101832 -0.55887,-0.364546 z m 47.558875,-0.05517 c -1.375,-0.786021 -2.02351,-1.445075 -1.44113,-1.464565 0.58238,-0.01949 1.93238,0.625253 3,1.432762 2.46898,1.86744 1.68038,1.883528 -1.55887,0.0318 z"
     style="fill:#b7725c" />
  <path
     inkscape:connector-curvature="0"
     id="path5511"
     d="m 13.322928,196.98729 c 2.852922,-16.04119 7.42351,-20.79901 23.371987,-24.32943 11.496074,-2.54481 32.152128,-9.5727 34.223374,-11.64394 1.017267,-1.01727 2.230069,-1.61442 2.695116,-1.32701 0.465046,0.28742 1.170689,3.55878 1.568094,7.2697 0.397407,3.71092 1.55072,9.45468 2.562922,12.7639 1.012201,3.30923 2.736475,9.27928 3.831722,13.26678 l 1.991355,7.25 H 48.156207 12.744916 Z m 79.371987,0.90893 c 0,-1.28759 0.629614,-4.43312 1.399142,-6.99006 1.378982,-4.58201 1.360972,-4.677 -1.25,-6.59244 l -2.649142,-1.94344 3.952948,-4.0665 c 2.174121,-2.23657 4.673346,-4.06649 5.553832,-4.06649 1.810395,0 7.993225,5.98766 7.993225,7.7409 0,0.63013 -0.96458,1.82131 -2.14351,2.64706 -1.84634,1.29323 -2.05696,2.13281 -1.51922,6.05602 0.34335,2.50505 0.90672,5.67995 1.25191,7.05533 0.6221,2.47863 0.56934,2.50069 -5.980777,2.50069 -6.262666,0 -6.608408,-0.12248 -6.608408,-2.34107 z m 24.661345,-3.40893 c 0.80932,-3.1625 2.52112,-9.125 3.80402,-13.25 1.28289,-4.125 2.6561,-10.54376 3.05157,-14.2639 0.39547,-3.72015 1.09953,-6.99906 1.56458,-7.28648 0.46505,-0.28741 1.67785,0.30974 2.69512,1.32701 2.00757,2.00757 22.16081,8.90269 34.22337,11.709 16.07639,3.74012 20.62842,8.46365 23.38335,24.26437 l 0.56665,3.25 H 151.26485 115.88478 Z M 75.444915,94.531555 c 1.2375,-0.238353 2.25,-1.129555 2.25,-1.980449 0,-1.054494 -0.636478,-1.380638 -1.999004,-1.024329 -1.099452,0.287513 -2.25101,0.114997 -2.559017,-0.383369 -0.308007,-0.498366 0.02904,-0.913011 0.749004,-0.921433 0.988482,-0.01156 0.957463,-0.237767 -0.126681,-0.923784 -1.247597,-0.789447 -1.247597,-1.136185 0,-2.646513 1.336277,-1.617682 1.124075,-1.696741 -3.064302,-1.141646 -3.207888,0.425148 -3.999188,0.314716 -2.755837,-0.384598 5.91907,-3.329141 17.305439,-1.466757 19.825905,3.242777 1.156367,2.160692 1.035264,2.135495 -1.996234,-0.415342 -1.775007,-1.49357 -4.317758,-2.715581 -5.650559,-2.715581 -2.672543,0 -3.283198,1.732786 -0.929019,2.63617 0.821842,0.31537 1.245284,0.976246 0.940984,1.468615 -0.304301,0.492368 0.148284,0.895215 1.005743,0.895215 2.031794,0 2.01424,1.888084 -0.02483,2.670548 -1.275223,0.489349 -1.323938,0.772535 -0.25,1.453303 0.828908,0.525444 -0.369664,0.799767 -3.166154,0.724654 -2.475,-0.06648 -3.4875,-0.315885 -2.25,-0.554238 z m 44.000005,0 c 1.2375,-0.238353 2.25,-1.125855 2.25,-1.972226 0,-1.142104 -0.64456,-1.377083 -2.5,-0.911397 -1.44165,0.36183 -2.5,0.196053 -2.5,-0.391592 0,-0.560479 0.5625,-1.025943 1.25,-1.034365 0.86795,-0.01063 0.8112,-0.292975 -0.1857,-0.923784 -1.18984,-0.7529 -1.21168,-1.178393 -0.12755,-2.484688 0.71948,-0.866918 0.99846,-1.576215 0.61995,-1.576215 -1.46858,0 -5.14121,2.33328 -6.87381,4.36704 l -1.81712,2.13296 1.13094,-2.303511 c 1.56575,-3.189157 6.83841,-6.188278 10.88727,-6.192751 4.1884,-0.0046 11.11602,1.998102 11.11602,3.213567 0,0.495401 -0.52782,0.574517 -1.17294,0.175814 -0.64511,-0.398703 -2.9048,-1.041609 -5.02153,-1.428681 -4.25295,-0.777707 -6.13086,0.59329 -3.47385,2.536143 0.90048,0.658445 1.34423,1.490178 0.98611,1.848296 -0.35812,0.358118 0.0847,0.651123 0.98416,0.651123 1.04274,0 1.42671,0.543522 1.05968,1.5 -0.77271,2.013638 1.58716,1.924595 4.58173,-0.172878 1.34184,-0.939866 2.04311,-1.114245 1.60042,-0.397966 -1.25215,2.026026 -7.13978,4.083078 -11.26166,3.934662 -2.31896,-0.0835 -2.91168,-0.303836 -1.53212,-0.569551 z M 68.933456,93.571188 c -0.693803,-0.279514 -1.767375,-1.481487 -2.385717,-2.671053 l -1.124259,-2.162847 2.385718,2.122719 c 1.312144,1.167496 3.060717,2.369469 3.885717,2.671053 1.333333,0.487407 1.333333,0.548333 0,0.548333 -0.825,0 -2.067657,-0.228692 -2.761459,-0.508205 z"
     style="fill:#5f5f5b" />
  <path
     inkscape:connector-curvature="0"
     id="path5509"
     d="m 14.030549,195.0512 c 0.837164,-7.06853 5.162931,-15.3205 9.315528,-17.7706 1.830089,-1.07978 7.269752,-2.88548 12.088137,-4.01267 13.22421,-3.09361 33.477432,-10.00697 35.959883,-12.27476 l 2.19918,-2.00902 0.496223,2.37657 c 0.272924,1.30711 0.775434,4.62657 1.116691,7.37657 0.341256,2.75 2.165824,10.2214 4.054596,16.6031 1.88877,6.38171 3.434128,12.34421 3.434128,13.25 0,1.4975 -3.142274,1.6469 -34.639291,1.6469 h -34.63929 z m 78.664366,3.34502 c 0,-1.01259 0.6766,-4.05009 1.503556,-6.75 1.494889,-4.88063 1.488343,-4.9223 -1.135758,-7.22774 l -2.639313,-2.31881 3.838706,-3.93119 c 2.111287,-2.16215 4.40672,-3.93119 5.100961,-3.93119 1.641083,0 8.331853,5.87503 8.331853,7.31603 0,0.60986 -1.09693,2.02574 -2.43763,3.14641 -2.40859,2.01329 -2.42195,2.11795 -1.12178,8.78756 l 1.31583,6.75 h -6.378214 c -5.528011,0 -6.378211,-0.24541 -6.378211,-1.84107 z m 24.000005,0.29357 c 0,-0.85112 1.53076,-6.81495 3.40168,-13.25297 1.87093,-6.43801 3.6955,-13.95413 4.0546,-16.7025 0.3591,-2.74837 0.87621,-6.06649 1.14914,-7.3736 l 0.49622,-2.37657 2.19918,2.00902 c 2.41819,2.20909 22.5885,9.13904 35.25089,12.11122 11.99243,2.81492 15.52439,4.95323 18.76681,11.36176 1.5024,2.96943 3.00803,7.73271 3.34585,10.58505 l 0.61421,5.18609 h -34.63929 c -30.59632,0 -34.63929,-0.18062 -34.63929,-1.5475 z m 13,-105.830057 c 0,-0.207656 0.7875,-0.995156 1.75,-1.75 1.58606,-1.243871 1.62143,-1.208501 0.37756,0.377555 -1.30637,1.665748 -2.12756,2.195479 -2.12756,1.372445 z M 75.967945,91.452485 c -2.223353,-0.347697 -2.223759,-0.35171 -0.25,-2.470291 l 1.97697,-2.122029 1.943952,2.086587 c 1.768333,1.898084 1.790919,2.121251 0.25,2.470292 -0.931674,0.211037 -2.696089,0.226986 -3.920922,0.03544 z m 44.039315,-0.02081 c -2.06535,-0.299414 -2.09485,-0.425524 -0.52776,-2.255763 2.12276,-2.479196 2.65837,-2.437727 4.48306,0.347095 1.6288,2.485872 1.25859,2.664524 -3.9553,1.908668 z m -35.4399,-4.944387 c -1.243871,-1.586056 -1.208501,-1.621426 0.377555,-0.377555 0.9625,0.754844 1.75,1.542344 1.75,1.75 0,0.823034 -0.821186,0.293303 -2.127555,-1.372445 z m 42.94006,-1.933114 c 0.72187,-0.288871 1.58437,-0.253344 1.91667,0.07895 0.33229,0.332292 -0.25834,0.568641 -1.3125,0.52522 -1.16495,-0.04798 -1.4019,-0.284941 -0.60417,-0.604167 z m -52.000005,-1 c 0.721875,-0.288871 1.584375,-0.253344 1.916667,0.07895 0.332291,0.332292 -0.258334,0.568641 -1.3125,0.52522 -1.164942,-0.04798 -1.4019,-0.284941 -0.604167,-0.604167 z m 46.000005,0 c 0.72187,-0.288871 1.58437,-0.253344 1.91667,0.07895 0.33229,0.332292 -0.25834,0.568641 -1.3125,0.52522 -1.16495,-0.04798 -1.4019,-0.284941 -0.60417,-0.604167 z"
     style="fill:#1b262c" />
  <path
     inkscape:connector-curvature="0"
     id="path5507"
     d="m 14.189696,195.86876 c 0.274698,-2.67769 1.715064,-7.57727 3.200812,-10.88796 2.394525,-5.33571 3.27514,-6.28661 7.752883,-8.3717 2.778339,-1.29375 5.803036,-2.35667 6.72155,-2.36204 1.388169,-0.008 20.322936,-5.20779 27.329974,-7.50507 1.539114,-0.50461 1.654336,-0.43036 0.5,0.3222 -2.336295,1.52312 -16.269379,5.87664 -24.792072,7.74651 -4.23936,0.93012 -8.955509,2.32337 -10.48033,3.09612 l -2.772402,1.405 3.078046,4.47379 c 3.31855,4.82334 6.009708,10.60592 5.896296,12.66956 -0.03875,0.70517 -0.71756,-0.48442 -1.508458,-2.64351 -1.397147,-3.81412 -7.193072,-13.57437 -8.060863,-13.57437 -0.770618,0 -4.475401,9.35773 -5.93859,15 l -1.426296,5.5 z m 41.597023,-1.82564 c -1.150491,-3.4068 -2.091804,-6.8038 -2.091804,-7.54889 0,-0.7451 1.78946,-2.15589 3.976577,-3.13509 l 3.976577,-1.78037 -2.976577,-2.20068 c -1.637116,-1.21037 -2.976577,-2.8333 -2.976577,-3.6065 0,-1.48709 14.779624,-14.08801 15.582333,-13.2853 0.258278,0.25828 -2.945536,3.04003 -7.119583,6.18167 -8.202379,6.1736 -8.055345,5.64363 -3.127983,11.27452 l 1.929673,2.2052 -4.047276,1.6194 -4.047277,1.61939 2.415057,7.10056 c 2.773428,8.15422 2.694887,7.75026 1.50686,7.75026 -0.499507,0 -1.849507,-2.78738 -3,-6.19417 z m 21.67566,-7.05583 c -2.023096,-7.3284 -3.847256,-16.50608 -4.081682,-20.5357 -0.523217,-8.99374 0.130028,-8.72617 1.419883,0.58159 0.532961,3.84592 2.527216,12.28795 4.431678,18.76007 3.590501,12.20196 4.005775,14.44404 2.675304,14.44404 -0.433043,0 -2.433375,-5.9625 -4.445183,-13.25 z m 15.232536,12.0656 c 0,-0.65141 0.749545,-3.85575 1.665655,-7.12074 1.66142,-5.92126 1.659847,-5.94073 -0.618743,-7.65947 -1.912931,-1.44293 -2.102808,-2.06243 -1.167688,-3.80972 0.614188,-1.14762 2.467624,-3.04852 4.118742,-4.22422 l 3.002034,-2.13764 2.980745,2.12248 c 4.76317,3.39167 5.27593,5.11245 2.41658,8.10979 -2.27048,2.38004 -2.39209,2.96254 -1.46139,7 1.99157,8.6396 1.84505,8.90392 -4.935935,8.90392 -3.956084,0 -6,-0.40347 -6,-1.1844 z m 24.000005,-0.15387 c 0,-0.73605 1.5582,-6.63364 3.46266,-13.10577 1.90446,-6.47212 3.89871,-14.91415 4.43168,-18.76007 1.29022,-9.31041 1.95052,-9.58646 1.39116,-0.58159 -0.46982,7.56322 -7.04585,33.7857 -8.47273,33.7857 -0.44702,0 -0.81277,-0.60222 -0.81277,-1.33827 z m 23,0.70926 c 0,-0.34596 1.10114,-3.68165 2.44699,-7.41264 l 2.44698,-6.78361 -4.01566,-1.60675 -4.01567,-1.60676 3.10952,-3.92608 3.10952,-3.92609 -7.5668,-5.69523 c -4.16175,-3.13238 -7.35549,-5.90655 -7.09721,-6.16483 0.80271,-0.80271 15.58233,11.79821 15.58233,13.2853 0,0.7732 -1.33946,2.39613 -2.97658,3.6065 l -2.97657,2.20068 3.97657,1.78037 c 2.18712,0.9792 3.97658,2.38999 3.97658,3.13509 0,2.48639 -4.17059,13.74306 -5.0918,13.74306 -0.49951,0 -0.9082,-0.28306 -0.9082,-0.62901 z m 44.97891,-1.62099 c -0.0246,-2.62005 -4.47405,-15.64514 -5.79617,-16.96726 -1.05909,-1.05909 -6.48534,7.00832 -8.60382,12.79163 -0.7909,2.15909 -1.4697,3.34868 -1.50846,2.64351 -0.11341,-2.06364 2.57775,-7.84622 5.8963,-12.66956 l 3.07804,-4.47379 -2.7724,-1.405 c -1.52482,-0.77275 -6.24097,-2.166 -10.48033,-3.09612 -8.52269,-1.86987 -22.45578,-6.22339 -24.79207,-7.74651 -1.15434,-0.75256 -1.03911,-0.82681 0.5,-0.3222 7.00704,2.29728 25.9418,7.49695 27.32997,7.50507 0.91852,0.005 3.94322,1.06829 6.72155,2.36204 4.47775,2.08509 5.35836,3.03599 7.75289,8.3717 2.58912,5.76933 4.6608,15.25649 3.33151,15.25649 -0.34975,0 -0.64541,-1.0125 -0.65701,-2.25 z m -121.978915,-32.75 c 0.825001,-0.53316 1.95,-0.96937 2.5,-0.96937 0.55,0 0.325,0.43621 -0.5,0.96937 -0.825,0.53316 -1.95,0.96937 -2.5,0.96937 -0.549999,0 -0.325,-0.43621 0.5,-0.96937 z M 76.19055,90.230225 c -0.34232,-0.553884 0.10053,-1.284477 0.984111,-1.623538 1.914649,-0.73472 2.981717,0.07492 2.061373,1.56407 -0.830379,1.343581 -2.234909,1.371006 -3.045484,0.05947 z m 43.95052,-0.08007 c -0.36954,-0.597923 -0.27983,-1.479185 0.19934,-1.95836 1.18268,-1.182681 3.78562,0.538917 2.92361,1.933689 -0.87355,1.413425 -2.25789,1.424361 -3.12295,0.02467 z"
     style="fill:#090a0b" />
</svg>
