<!DOCTYPE svg PUBLIC "-//W3C//DTD SVG 20010904//EN" "http://www.w3.org/TR/2001/REC-SVG-20010904/DTD/svg10.dtd">
<svg version="1.0" xmlns="http://www.w3.org/2000/svg" width="200px" height="200px" viewBox="0 0 2000 2000" preserveAspectRatio="xMidYMid meet">
<g id="layer101" fill="#eeedf0" stroke="none">
 <path d="M133 1950 c3 -27 18 -74 33 -105 31 -63 80 -98 153 -109 65 -10 372 -114 393 -133 20 -18 58 -96 58 -118 0 -8 -19 -28 -42 -46 -82 -62 -101 -91 -128 -196 -7 -28 -15 -40 -24 -37 -26 10 -73 -43 -86 -96 -6 -27 -26 -70 -43 -96 -53 -80 -47 -194 11 -194 12 0 13 -9 8 -48 -7 -57 9 -194 30 -254 25 -71 73 -141 127 -183 126 -99 151 -115 227 -139 203 -66 389 -7 576 183 70 70 121 247 110 378 -5 57 -4 61 18 67 55 14 55 102 1 187 -19 28 -39 73 -45 99 -16 65 -45 96 -86 91 -6 -1 -14 21 -18 48 -8 61 -54 133 -116 179 -27 21 -47 45 -50 61 -6 26 17 78 50 112 18 20 250 101 366 128 44 10 99 30 120 44 50 31 94 116 94 181 l0 46 -871 0 -872 0 6 -50z"/>
 </g>
<g id="layer102" fill="#dedde6" stroke="none">
 <path d="M133 1950 c3 -27 18 -74 33 -105 31 -63 80 -98 153 -109 66 -10 372 -114 394 -134 24 -22 57 -85 57 -111 0 -11 -18 -33 -42 -52 -82 -62 -101 -91 -128 -196 -7 -28 -15 -40 -24 -37 -26 10 -73 -43 -86 -96 -6 -27 -26 -70 -43 -96 -53 -80 -47 -194 11 -194 12 0 13 -9 8 -48 -7 -57 9 -194 30 -254 25 -71 73 -141 127 -183 126 -99 151 -115 227 -139 203 -66 389 -7 576 183 70 70 121 247 110 378 -5 57 -4 61 18 67 55 14 55 102 1 187 -19 28 -39 73 -45 99 -16 65 -45 96 -86 91 -6 -1 -14 21 -18 48 -8 61 -54 133 -116 179 -27 21 -47 45 -50 61 -6 26 17 78 50 112 18 20 250 101 366 128 44 10 99 30 120 44 50 31 94 116 94 181 l0 46 -355 0 c-195 0 -355 -4 -355 -8 0 -4 5 -13 11 -19 7 -7 6 -14 -3 -24 -8 -8 -27 -38 -44 -67 l-30 -52 -28 29 c-16 16 -25 34 -22 40 4 5 10 30 15 55 l8 46 -73 0 -74 0 6 -27 c3 -16 10 -44 15 -63 8 -31 6 -37 -17 -57 l-27 -21 37 -38 c20 -20 36 -40 36 -43 0 -3 -36 -26 -81 -50 -85 -46 -109 -75 -109 -138 -1 -27 -1 -27 -15 -9 -11 14 -14 36 -10 75 4 56 43 220 64 275 l12 29 20 -39 c25 -47 36 -60 45 -51 3 3 -8 29 -25 57 -17 28 -31 61 -31 75 l0 25 -356 0 -357 0 6 -50z m1072 -120 c14 -52 30 -102 35 -111 5 -9 6 -26 3 -38 -3 -11 0 -34 6 -52 8 -24 7 -37 -4 -57 l-14 -27 -1 32 c0 45 -41 88 -124 130 -39 19 -72 36 -73 37 -2 1 21 27 50 57 29 30 61 71 71 92 10 21 19 37 21 35 2 -2 15 -46 30 -98z m-143 -480 c18 -16 27 -30 20 -30 -8 0 -10 -5 -6 -12 5 -8 2 -9 -10 -5 -10 4 -45 7 -78 7 -66 0 -75 8 -15 12 47 4 48 23 2 23 -40 0 -44 7 -12 23 38 18 65 13 99 -18z m101 -438 c-4 -18 -8 -20 -19 -11 -12 10 -11 14 3 24 22 16 24 15 16 -13z m-436 -12 c0 -23 -4 -29 -14 -25 -8 3 -17 5 -19 5 -2 0 -4 7 -4 15 0 11 18 28 36 35 0 0 1 -14 1 -30z m134 17 c-1 -12 -15 -9 -19 4 -3 6 1 10 8 8 6 -3 11 -8 11 -12z m449 -21 c0 -8 -6 -16 -14 -19 -9 -4 -15 4 -18 23 -4 25 -2 28 14 19 10 -5 18 -16 18 -23z"/>
 </g>
<g id="layer103" fill="#d6cfd3" stroke="none">
 <path d="M133 1950 c3 -27 18 -74 33 -105 31 -63 80 -98 153 -109 55 -8 370 -112 389 -129 9 -6 22 -24 31 -38 16 -26 16 -25 15 35 0 57 32 227 48 251 6 10 38 126 38 139 0 3 -160 6 -356 6 l-357 0 6 -50z"/>
 <path d="M937 1948 c21 -76 20 -81 -5 -93 -36 -19 -36 -22 2 -61 20 -21 35 -42 33 -48 -2 -5 -37 -28 -77 -51 -84 -45 -94 -60 -111 -158 -11 -62 -16 -71 -53 -99 -80 -61 -99 -90 -126 -195 -7 -28 -15 -40 -24 -37 -26 10 -73 -43 -86 -96 -6 -27 -26 -70 -43 -96 -53 -80 -47 -194 11 -194 12 0 13 -9 8 -48 -7 -57 9 -194 30 -254 25 -71 73 -141 127 -183 126 -99 151 -115 227 -139 203 -66 389 -7 576 183 70 70 121 247 110 378 -5 57 -4 61 18 67 55 14 55 102 1 187 -19 28 -39 73 -45 99 -16 65 -45 96 -86 91 -6 -1 -14 20 -18 46 -10 75 -60 146 -143 203 -17 11 -24 29 -29 75 -11 100 -40 135 -156 189 l-57 27 34 35 c19 19 35 39 35 45 0 5 -12 21 -26 34 -23 22 -24 27 -15 62 22 79 20 83 -58 83 l-69 0 15 -52z m131 -595 c18 -18 22 -28 14 -31 -10 -3 -10 -7 -1 -18 10 -13 8 -13 -15 -4 -15 5 -51 10 -81 10 -50 0 -53 1 -48 23 13 53 86 65 131 20z m-336 -429 c-5 -9 -7 -25 -5 -35 6 -20 0 -22 -32 -10 -18 7 -18 9 9 34 33 31 41 34 28 11z m131 8 c16 -7 16 -9 0 -31 -16 -23 -17 -23 -24 -5 -16 41 -11 49 24 36z m300 -20 c-5 -22 -6 -22 -25 -5 -20 18 -20 18 4 24 29 7 28 8 21 -19z m153 -31 c-4 -6 -15 -11 -24 -11 -13 0 -17 9 -18 36 l-1 35 25 -24 c13 -14 21 -30 18 -36z"/>
 <path d="M955 1340 c-4 -6 9 -10 32 -10 28 0 34 3 23 10 -20 13 -47 13 -55 0z"/>
 <path d="M1165 1990 c4 -6 9 -27 11 -48 3 -20 9 -41 14 -46 6 -6 10 -18 10 -27 0 -10 5 -30 12 -46 6 -15 11 -31 10 -34 -1 -4 3 -22 9 -40 6 -19 12 -56 14 -82 1 -27 8 -54 13 -59 8 -8 7 -20 -4 -42 -8 -17 -9 -23 -2 -13 38 55 58 67 188 111 74 25 171 54 216 65 44 10 99 30 120 44 50 31 94 116 94 181 l0 46 -356 0 c-242 0 -353 -3 -349 -10z"/>
 <path d="M1134 1888 c-4 -7 -14 -24 -22 -38 -14 -24 -13 -24 3 -5 20 24 37 55 31 55 -3 0 -8 -6 -12 -12z"/>
 </g>
<g id="layer104" fill="#ecc4b8" stroke="none">
 <path d="M133 1950 c3 -27 18 -74 33 -105 31 -63 80 -98 153 -109 72 -11 374 -115 397 -137 20 -19 22 -19 28 -2 4 9 9 42 12 73 6 63 27 149 54 224 10 28 21 63 24 79 l6 27 -356 0 -357 0 6 -50z"/>
 <path d="M930 1978 c1 -13 7 -41 15 -63 15 -39 14 -41 -11 -61 l-27 -22 27 -35 c15 -20 33 -38 39 -41 15 -6 -22 -37 -88 -72 -76 -41 -83 -50 -102 -136 -16 -73 -22 -83 -58 -111 -79 -60 -98 -89 -125 -194 -7 -28 -15 -40 -24 -37 -26 10 -73 -43 -86 -96 -6 -27 -26 -70 -43 -96 -53 -80 -47 -194 11 -194 12 0 13 -9 8 -48 -7 -57 9 -194 30 -254 25 -71 73 -141 127 -183 126 -99 151 -115 227 -139 203 -66 389 -7 576 183 70 70 121 247 110 378 -5 57 -4 61 18 67 55 14 55 102 1 187 -19 28 -39 73 -45 99 -16 65 -45 96 -86 91 -6 -1 -14 21 -18 48 -8 62 -55 134 -118 181 -44 32 -48 38 -54 90 -7 59 -27 107 -53 128 -9 7 -43 26 -76 43 -92 48 -91 47 -49 91 l38 38 -27 28 c-26 27 -27 31 -17 82 5 29 10 57 10 61 0 5 -29 9 -65 9 -61 0 -65 -1 -65 -22z m138 -620 c27 -26 31 -74 5 -63 -10 4 -45 9 -79 12 -58 5 -61 7 -56 30 6 30 49 55 82 47 14 -3 35 -15 48 -26z m-332 -434 c-3 -9 -6 -24 -6 -35 0 -12 -7 -19 -19 -19 -31 0 -35 19 -10 46 26 27 44 32 35 8z m143 0 c2 -2 -4 -13 -15 -25 -17 -19 -19 -19 -25 -2 -14 35 -10 45 14 37 12 -3 24 -8 26 -10z m289 -6 c-7 -13 -14 -25 -15 -27 -4 -6 -33 20 -33 29 0 8 21 16 48 19 10 1 10 -3 0 -21z m148 -37 c-4 -6 -15 -11 -24 -11 -13 0 -17 9 -18 36 l-1 35 25 -24 c13 -14 21 -30 18 -36z"/>
 <path d="M1175 1963 c4 -21 16 -63 27 -93 20 -55 35 -125 42 -190 2 -19 8 -46 13 -60 6 -14 8 -32 5 -40 -2 -8 6 -3 19 11 26 29 227 103 375 138 44 10 99 30 120 44 50 31 94 116 94 181 l0 46 -350 0 -351 0 6 -37z"/>
 </g>
<g id="layer105" fill="#d5c3be" stroke="none">
 <path d="M133 1950 c3 -27 18 -74 33 -105 31 -63 80 -98 153 -109 72 -11 374 -115 397 -137 20 -19 22 -19 28 -2 4 9 9 42 12 73 6 63 27 149 54 224 10 28 21 63 24 79 l6 27 -356 0 -357 0 6 -50z"/>
 <path d="M930 1978 c1 -13 7 -41 15 -63 15 -39 14 -40 -12 -62 -27 -22 -27 -22 -8 -45 37 -44 64 -68 78 -68 7 0 30 18 52 40 l39 40 -27 28 c-26 27 -27 31 -17 82 5 29 10 57 10 61 0 5 -29 9 -65 9 -61 0 -65 -1 -65 -22z"/>
 <path d="M1175 1963 c4 -21 16 -63 27 -93 20 -55 35 -125 42 -190 2 -19 8 -46 13 -60 6 -14 8 -32 5 -40 -2 -8 6 -3 19 11 26 29 227 103 375 138 44 10 99 30 120 44 50 31 94 116 94 181 l0 46 -350 0 -351 0 6 -37z"/>
 <path d="M955 1640 c-58 -8 -102 -24 -128 -48 -16 -14 -20 -14 -29 -2 -8 12 -9 12 -4 -2 3 -10 1 -20 -4 -23 -5 -3 -12 -26 -16 -50 -5 -37 -13 -51 -48 -77 -80 -61 -99 -90 -126 -195 -7 -28 -15 -40 -24 -37 -26 10 -73 -43 -86 -96 -6 -27 -26 -70 -43 -96 -53 -80 -47 -194 11 -194 12 0 13 -9 8 -48 -7 -57 9 -194 30 -254 25 -71 73 -141 127 -183 126 -99 151 -115 227 -139 203 -66 389 -7 576 183 70 70 121 247 110 378 -5 57 -4 61 18 67 55 14 55 102 1 187 -19 28 -39 73 -45 99 -16 65 -45 96 -86 91 -6 -1 -14 21 -18 48 -8 62 -55 134 -118 180 -42 32 -47 40 -53 85 -9 68 -16 91 -24 78 -4 -7 -27 -1 -66 18 -68 32 -117 40 -190 30z m160 -125 c31 -13 174 -125 213 -168 17 -18 35 -69 63 -182 22 -87 42 -163 46 -168 3 -5 0 -13 -7 -17 -11 -7 -10 -21 5 -72 24 -83 35 -189 22 -206 -5 -7 -7 -15 -4 -19 4 -3 3 -11 -2 -17 -6 -7 -12 -34 -15 -61 -8 -72 -33 -170 -56 -214 -51 -101 -229 -191 -375 -191 -123 1 -262 58 -338 139 -48 51 -87 147 -93 228 -2 24 -7 49 -10 55 -24 38 -23 184 1 276 16 62 17 75 5 82 -10 6 -11 12 -3 22 5 7 25 74 43 148 18 74 41 152 52 173 18 35 153 152 216 186 56 31 171 33 237 6z m-540 -377 c-4 -22 -15 -37 -31 -45 -22 -10 -24 -10 -13 3 10 13 10 17 -1 24 -10 6 -7 14 14 35 32 32 39 29 31 -17z m880 22 c9 -10 15 -26 12 -34 -4 -9 -2 -18 3 -21 6 -4 10 -10 10 -16 0 -16 -40 15 -46 36 -3 11 -8 28 -10 38 -7 23 9 22 31 -3z m24 -159 c0 -24 -2 -23 -14 9 -18 46 -18 59 0 36 8 -11 15 -31 14 -45z m-989 -103 c0 -9 -4 -20 -10 -23 -6 -4 -10 9 -10 32 0 28 3 34 10 23 5 -8 10 -23 10 -32z m1040 5 c-1 -28 -3 -34 -10 -22 -8 14 -3 59 6 59 2 0 4 -17 4 -37z"/>
 <path d="M941 1374 c-17 -14 -40 -38 -51 -53 l-19 -28 89 -2 c87 -1 117 -8 152 -33 25 -18 31 -5 13 28 -8 16 -15 34 -15 40 0 7 -16 26 -35 43 -46 40 -91 41 -134 5z m127 -16 c27 -26 31 -74 5 -63 -10 4 -45 9 -79 12 -58 5 -61 7 -56 30 6 30 49 55 82 47 14 -3 35 -15 48 -26z"/>
 <path d="M965 1170 l-28 -29 27 -41 c14 -22 29 -40 32 -40 3 0 3 18 -1 40 l-7 40 38 0 38 0 -29 30 c-16 17 -32 30 -35 30 -3 0 -19 -13 -35 -30z"/>
 <path d="M1143 962 c-39 -4 -83 -43 -83 -75 0 -13 11 -34 25 -47 22 -20 33 -23 102 -21 42 1 82 6 89 11 6 6 14 7 17 4 9 -9 57 24 57 39 0 7 -13 28 -28 47 -25 30 -36 35 -88 39 -32 4 -73 5 -91 3z m23 -48 c-12 -27 -24 -27 -42 2 -12 17 -10 19 20 21 32 1 33 0 22 -23z m150 -33 c-4 -6 -15 -11 -24 -11 -13 0 -17 9 -18 36 l-1 35 25 -24 c13 -14 21 -30 18 -36z"/>
 <path d="M685 925 c-19 -20 -35 -39 -35 -43 0 -19 29 -45 51 -48 37 -4 37 -5 -10 -17 -25 -7 -46 -18 -49 -24 -3 -10 29 -13 137 -13 138 0 170 8 114 28 -18 7 -22 11 -10 11 26 1 57 38 57 66 0 14 -11 37 -25 50 -22 23 -32 25 -109 25 -84 0 -86 0 -121 -35z m51 -1 c-3 -9 -6 -24 -6 -35 0 -12 -7 -19 -19 -19 -31 0 -35 19 -10 46 26 27 44 32 35 8z m144 -5 c-11 -20 -40 -44 -40 -33 0 5 -3 18 -6 30 -5 18 -1 21 24 20 24 -1 28 -4 22 -17z"/>
 <path d="M1092 773 c5 -28 117 -83 168 -83 58 0 120 39 120 75 0 32 -8 31 -70 -7 l-51 -31 -77 31 c-89 37 -95 38 -90 15z"/>
 </g>
<g id="layer106" fill="#e7b9ac" stroke="none">
 <path d="M133 1950 c3 -27 18 -74 33 -105 31 -63 80 -98 153 -109 72 -11 374 -115 397 -137 l22 -21 12 74 c12 71 29 139 69 281 l20 67 -356 0 -356 0 6 -50z"/>
 <path d="M930 1978 c1 -13 7 -41 15 -63 15 -39 14 -41 -11 -61 l-27 -22 27 -34 c14 -19 37 -41 51 -48 24 -13 28 -12 68 28 l41 42 -27 28 c-26 27 -27 31 -17 82 5 29 10 57 10 61 0 5 -29 9 -65 9 -61 0 -65 -1 -65 -22z"/>
 <path d="M1175 1968 c4 -18 18 -67 30 -108 30 -97 61 -252 56 -280 -2 -9 7 -4 21 11 25 29 225 103 374 138 44 10 99 30 120 44 50 31 94 116 94 181 l0 46 -351 0 -351 0 7 -32z"/>
 <path d="M955 1640 c-102 -13 -168 -61 -180 -128 -5 -33 -15 -48 -48 -73 -81 -62 -100 -91 -127 -196 -7 -28 -15 -40 -24 -37 -26 10 -73 -43 -86 -96 -6 -27 -26 -70 -43 -96 -53 -80 -47 -194 11 -194 12 0 13 -9 8 -48 -7 -57 9 -194 30 -254 25 -71 73 -141 127 -183 126 -99 151 -115 227 -139 203 -66 389 -7 576 183 70 70 121 247 110 378 -5 57 -4 61 18 67 55 14 55 102 1 187 -19 28 -39 73 -45 99 -16 65 -45 96 -86 91 -6 -1 -14 21 -18 48 -8 61 -54 133 -116 179 -36 28 -47 43 -56 81 -5 25 -11 49 -12 54 -1 4 -2 11 -2 16 0 5 -6 8 -12 8 -7 -1 -38 11 -68 25 -63 30 -114 38 -185 28z m160 -125 c31 -13 174 -125 213 -168 17 -18 35 -69 63 -182 22 -87 42 -163 46 -168 3 -5 0 -13 -7 -17 -11 -7 -10 -21 5 -72 24 -83 35 -189 22 -206 -5 -7 -7 -15 -4 -19 4 -3 3 -11 -2 -17 -6 -7 -12 -34 -15 -61 -8 -72 -33 -170 -56 -214 -51 -101 -229 -191 -375 -191 -123 1 -262 58 -338 139 -48 51 -87 147 -93 228 -2 24 -7 49 -10 55 -24 38 -23 184 1 276 16 62 17 75 5 82 -10 6 -11 12 -3 22 5 7 25 74 43 148 18 74 41 152 52 173 18 35 153 152 216 186 56 31 171 33 237 6z m-540 -377 c-4 -22 -15 -37 -31 -45 -22 -10 -24 -10 -13 3 10 13 10 17 -1 24 -10 6 -7 14 14 35 32 32 39 29 31 -17z m880 22 c9 -10 15 -26 12 -34 -4 -9 -2 -18 3 -21 6 -4 10 -10 10 -16 0 -16 -40 15 -46 36 -3 11 -8 28 -10 38 -7 23 9 22 31 -3z m24 -159 c0 -24 -2 -23 -14 9 -18 46 -18 59 0 36 8 -11 15 -31 14 -45z m-989 -103 c0 -9 -4 -20 -10 -23 -6 -4 -10 9 -10 32 0 28 3 34 10 23 5 -8 10 -23 10 -32z m1040 5 c-1 -28 -3 -34 -10 -22 -8 14 -3 59 6 59 2 0 4 -17 4 -37z"/>
 <path d="M916 1348 c-41 -43 -47 -53 -33 -56 25 -5 59 27 52 48 -8 24 53 55 89 46 37 -9 70 -50 70 -87 1 -18 8 -36 18 -42 25 -16 30 -4 13 29 -8 16 -15 34 -15 40 0 7 -16 26 -35 43 -57 49 -96 44 -159 -21z"/>
 <path d="M940 1294 c36 -7 139 -10 128 -2 -7 4 -42 7 -78 7 -36 -1 -58 -3 -50 -5z"/>
 <path d="M965 1170 l-28 -29 27 -41 c14 -22 29 -40 32 -40 3 0 3 18 -1 40 l-7 40 38 0 38 0 -29 30 c-16 17 -32 30 -35 30 -3 0 -19 -13 -35 -30z"/>
 <path d="M1143 962 c-39 -4 -83 -43 -83 -75 0 -13 11 -34 25 -47 22 -20 33 -23 102 -21 42 1 82 6 89 11 6 6 14 7 17 4 9 -9 57 24 57 39 0 7 -13 28 -28 47 -25 30 -36 35 -88 39 -32 4 -73 5 -91 3z m30 -47 c-22 -30 -28 -31 -48 -2 -15 21 -15 22 17 28 45 7 51 2 31 -26z m143 -34 c-4 -6 -19 -11 -33 -11 -19 0 -24 4 -19 16 3 9 6 25 6 37 0 21 1 21 26 -5 15 -14 23 -31 20 -37z"/>
 <path d="M685 925 c-19 -20 -35 -39 -35 -43 0 -19 29 -45 51 -48 37 -4 37 -5 -10 -17 -25 -7 -46 -18 -49 -24 -3 -10 29 -13 137 -13 138 0 170 8 114 28 -18 7 -22 11 -10 11 26 1 57 38 57 66 0 14 -11 37 -25 50 -22 23 -32 25 -109 25 -84 0 -86 0 -121 -35z m51 -1 c-3 -9 -6 -24 -6 -35 0 -12 -7 -19 -19 -19 -31 0 -35 19 -10 46 26 27 44 32 35 8z m154 8 c0 -5 -11 -19 -25 -32 -14 -13 -25 -19 -25 -14 0 5 -3 19 -6 32 -6 19 -3 22 25 22 17 0 31 -4 31 -8z"/>
 <path d="M1092 773 c5 -28 117 -83 168 -83 58 0 120 39 120 75 0 32 -8 31 -70 -7 l-51 -31 -77 31 c-89 37 -95 38 -90 15z"/>
 </g>
<g id="layer107" fill="#d9b3a8" stroke="none">
 <path d="M133 1950 c3 -27 18 -74 33 -105 31 -63 80 -98 153 -109 72 -11 374 -115 397 -137 l22 -21 12 74 c12 71 29 139 69 281 l20 67 -356 0 -356 0 6 -50z"/>
 <path d="M930 1978 c1 -13 7 -41 15 -63 15 -39 14 -41 -11 -61 l-27 -22 27 -34 c14 -19 37 -41 51 -48 24 -13 28 -12 68 28 l41 42 -27 28 c-26 27 -27 31 -17 82 5 29 10 57 10 61 0 5 -29 9 -65 9 -61 0 -65 -1 -65 -22z"/>
 <path d="M1175 1968 c4 -18 18 -67 30 -108 30 -97 61 -252 56 -280 -2 -9 7 -4 21 11 25 29 225 103 374 138 44 10 99 30 120 44 50 31 94 116 94 181 l0 46 -351 0 -351 0 7 -32z"/>
 <path d="M916 1629 c-65 -15 -125 -59 -136 -99 -5 -19 -10 -40 -10 -47 0 -6 -19 -26 -42 -44 -82 -62 -101 -91 -128 -196 -7 -28 -15 -40 -24 -37 -26 10 -73 -43 -86 -96 -6 -27 -26 -70 -43 -96 -53 -80 -47 -194 11 -194 12 0 13 -9 8 -48 -7 -57 9 -194 30 -254 25 -71 73 -141 127 -183 126 -99 151 -115 227 -139 203 -66 389 -7 576 183 70 70 121 247 110 378 -5 57 -4 61 18 67 55 14 55 102 1 187 -19 28 -39 73 -45 99 -16 65 -45 96 -86 91 -6 -1 -14 21 -18 48 -8 61 -54 133 -116 179 -38 29 -47 43 -57 86 -6 28 -12 52 -12 54 -1 1 -1 8 -1 15 0 8 -3 8 -9 -2 -7 -12 -14 -10 -36 8 -57 44 -168 61 -259 40z m186 -103 c40 -15 221 -155 242 -189 22 -34 94 -339 89 -374 -3 -17 2 -55 10 -85 18 -62 25 -157 13 -176 -4 -7 -5 -16 -2 -19 3 -3 1 -13 -3 -22 -8 -14 -18 -73 -25 -147 -1 -11 -5 -24 -8 -30 -3 -5 -13 -32 -22 -61 -39 -120 -220 -223 -390 -223 -190 0 -354 99 -404 241 -13 37 -26 90 -28 120 -3 29 -8 58 -12 63 -3 6 -7 18 -7 26 0 8 -4 41 -9 73 -7 48 -4 77 14 154 19 76 21 96 10 103 -7 4 -10 12 -6 18 3 5 24 80 46 167 30 121 46 164 67 189 44 51 189 160 231 173 50 16 149 15 194 -1z m-520 -372 c-2 -10 -10 -32 -18 -48 -7 -16 -11 -32 -9 -36 3 -5 0 -21 -7 -37 -6 -15 -10 -34 -9 -40 1 -7 -3 -13 -9 -13 -9 0 -16 52 -12 95 2 11 3 29 3 41 -1 25 36 67 52 61 7 -2 11 -13 9 -23z m872 13 c19 -14 42 -110 28 -115 -4 -1 -6 -19 -5 -40 l4 -37 -16 35 c-9 19 -15 44 -13 56 1 12 -2 27 -8 35 -15 19 -28 79 -17 79 5 0 17 -6 27 -13z m-959 -264 c-8 -16 -15 -36 -15 -45 0 -11 -7 -18 -17 -17 -11 0 -13 3 -5 6 6 2 12 22 12 43 0 20 3 52 6 70 l7 32 13 -31 c11 -26 11 -35 -1 -58z m1040 -5 c-3 -17 1 -38 8 -46 10 -12 9 -14 -2 -11 -7 3 -19 23 -27 44 -18 50 -18 46 -9 73 l8 23 13 -25 c7 -14 11 -40 9 -58z"/>
 <path d="M959 1385 c-23 -13 -79 -76 -79 -89 0 -3 6 -6 13 -6 20 0 48 35 42 52 -8 21 55 53 88 44 36 -9 76 -53 70 -77 -3 -11 2 -28 12 -39 22 -25 38 -26 26 -2 -5 9 -16 34 -25 55 -17 39 -67 77 -101 77 -11 -1 -32 -7 -46 -15z"/>
 <path d="M969 1172 l-33 -30 24 -36 c14 -20 28 -36 32 -36 3 0 4 18 1 40 l-6 41 32 -6 c37 -6 39 4 7 34 l-24 23 -33 -30z"/>
 <path d="M699 937 c-43 -37 -52 -53 -40 -75 8 -16 24 -21 78 -24 66 -5 99 3 144 36 8 6 1 -1 -15 -17 l-30 -27 42 16 c28 12 42 23 42 36 0 10 -4 18 -10 18 -5 0 -10 8 -10 17 0 13 -6 11 -29 -11 l-28 -27 -7 23 c-9 35 -8 38 17 38 18 0 19 2 7 10 -8 5 -42 10 -75 10 -48 0 -65 -5 -86 -23z m37 -13 c-3 -9 -6 -24 -6 -35 0 -12 -7 -19 -19 -19 -31 0 -35 19 -10 46 26 27 44 32 35 8z"/>
 <path d="M1140 949 c-12 -8 -9 -9 12 -7 30 3 31 2 11 -33 l-14 -24 -20 24 c-27 32 -38 17 -16 -22 l17 -32 -25 30 c-23 27 -25 28 -25 9 0 -41 40 -55 170 -58 50 -1 69 3 83 17 24 24 22 30 -17 71 -32 34 -37 36 -97 36 -35 0 -71 -5 -79 -11z m176 -68 c-4 -6 -19 -11 -33 -11 -19 0 -24 4 -19 16 3 9 6 25 6 37 0 21 1 21 26 -5 15 -14 23 -31 20 -37z"/>
 <path d="M663 810 c-13 -5 -23 -14 -23 -20 0 -13 266 -14 275 -1 15 26 -198 43 -252 21z"/>
 <path d="M1091 775 c6 -29 116 -85 169 -85 58 0 120 39 120 75 0 32 -8 31 -69 -7 l-51 -31 -68 26 c-111 43 -104 42 -101 22z"/>
 </g>
<g id="layer108" fill="#daa697" stroke="none">
 <path d="M133 1950 c3 -27 18 -74 33 -105 31 -63 80 -98 153 -109 72 -11 374 -115 397 -137 l22 -21 12 74 c12 71 29 139 69 281 l20 67 -356 0 -356 0 6 -50z"/>
 <path d="M930 1978 c1 -13 7 -41 15 -63 15 -39 14 -41 -11 -61 l-26 -22 23 -31 c13 -17 33 -38 46 -47 22 -14 26 -13 51 4 15 11 36 29 46 41 19 21 19 22 -7 49 -26 27 -27 31 -17 82 5 29 10 57 10 61 0 5 -29 9 -65 9 -61 0 -65 -1 -65 -22z"/>
 <path d="M1175 1968 c4 -18 18 -67 30 -108 30 -97 61 -252 56 -280 -2 -9 7 -4 21 11 25 29 225 103 374 138 44 10 99 30 120 44 50 31 94 116 94 181 l0 46 -351 0 -351 0 7 -32z"/>
 <path d="M938 1629 c-26 -4 -70 -20 -98 -36 -48 -27 -70 -61 -70 -110 0 -6 -19 -26 -42 -44 -82 -62 -101 -91 -128 -196 -7 -28 -15 -40 -24 -37 -26 10 -73 -43 -86 -96 -6 -27 -26 -70 -43 -96 -53 -80 -47 -194 11 -194 12 0 13 -9 8 -48 -7 -57 9 -194 30 -254 25 -71 73 -141 127 -183 126 -99 151 -115 227 -139 203 -66 389 -7 576 183 70 70 121 247 110 378 -5 57 -4 61 18 67 55 14 55 102 1 187 -19 28 -39 73 -45 99 -16 65 -45 96 -86 91 -6 -1 -14 21 -18 48 -8 61 -54 133 -116 179 -43 33 -52 49 -67 124 -3 15 -10 25 -15 22 -5 -3 -17 1 -26 9 -44 40 -153 61 -244 46z m157 -100 c41 -12 206 -137 244 -186 12 -14 24 -38 27 -52 3 -14 20 -80 36 -146 17 -66 32 -150 33 -187 1 -37 7 -73 12 -80 5 -7 10 -42 12 -78 2 -36 5 -68 7 -71 2 -4 -3 -29 -11 -55 -12 -42 -21 -91 -29 -164 -1 -9 -5 -20 -8 -25 -3 -6 -13 -33 -22 -62 -12 -36 -31 -64 -65 -96 -161 -151 -414 -170 -600 -46 -105 70 -143 135 -157 264 -3 33 -8 64 -11 68 -6 10 -11 41 -19 127 -5 51 -2 82 14 139 14 49 18 79 12 91 -11 20 68 332 94 372 25 38 190 167 235 183 45 17 143 19 196 4z m-510 -366 c-3 -10 -9 -30 -12 -45 -3 -16 -10 -28 -15 -28 -5 0 -7 -4 -3 -9 8 -13 -15 -101 -26 -101 -5 0 -9 16 -9 36 0 24 -4 33 -12 28 -8 -5 -9 -2 -3 12 4 10 11 37 15 58 8 40 31 66 58 66 9 0 12 -6 7 -17z m875 -3 c11 -11 20 -32 20 -46 0 -14 5 -34 10 -45 7 -12 7 -19 1 -19 -5 0 -11 -17 -13 -37 l-3 -38 -13 45 c-7 25 -20 65 -28 90 -23 73 -14 90 26 50z m-959 -230 c1 -28 -26 -90 -38 -90 -7 0 -13 5 -13 10 0 6 5 10 10 10 6 0 9 12 8 28 -1 15 2 52 7 82 l9 55 8 -40 c5 -22 9 -47 9 -55z m1036 -30 c-3 -21 0 -43 6 -49 8 -8 7 -11 -3 -11 -21 0 -49 91 -36 119 l9 21 15 -21 c9 -13 13 -34 9 -59z"/>
 <path d="M900 1325 c-7 -14 -11 -27 -8 -30 10 -10 51 31 44 43 -11 18 -21 14 -36 -13z"/>
 <path d="M1090 1297 c0 -14 20 -37 32 -37 4 0 2 11 -4 25 -12 27 -28 34 -28 12z"/>
 <path d="M971 1171 l-33 -28 23 -36 c13 -20 27 -37 31 -37 3 0 4 18 1 39 -5 36 -3 40 20 43 25 3 25 4 8 24 l-17 22 -33 -27z"/>
 <path d="M698 937 c-41 -34 -51 -61 -30 -80 24 -21 130 -28 164 -11 15 8 31 13 35 12 13 -4 53 22 53 34 0 6 -12 1 -27 -13 -20 -17 -23 -18 -10 -3 32 39 16 61 -18 24 -18 -20 -18 -20 -36 20 -17 38 -20 40 -61 40 -30 0 -51 -7 -70 -23z m38 -37 c1 -37 0 -40 -20 -34 -37 11 -41 22 -16 49 13 14 26 25 29 25 4 0 7 -18 7 -40z"/>
 <path d="M1189 955 c-1 -3 -2 -9 -3 -14 0 -5 -4 -13 -8 -17 -5 -4 -8 -16 -8 -26 0 -25 -9 -23 -42 9 -35 33 -39 11 -5 -33 25 -34 37 -37 132 -34 52 1 73 5 83 17 17 24 16 27 -22 67 -29 31 -40 36 -80 36 -25 0 -47 -2 -47 -5z m127 -74 c-4 -6 -19 -11 -33 -11 -19 0 -24 4 -19 16 3 9 6 25 6 37 0 21 1 21 26 -5 15 -14 23 -31 20 -37z"/>
 <path d="M1080 886 c0 -2 12 -12 28 -21 l27 -18 -19 21 c-17 20 -36 29 -36 18z"/>
 <path d="M663 810 c-13 -5 -23 -14 -23 -20 0 -13 256 -14 264 -1 16 26 -186 43 -241 21z"/>
 <path d="M1096 781 c-15 -24 106 -91 166 -91 56 0 118 40 118 75 0 32 -8 31 -69 -6 -55 -34 -47 -35 -158 10 -29 11 -54 17 -57 12z"/>
 </g>
<g id="layer109" fill="#d59b8a" stroke="none">
 <path d="M133 1950 c3 -27 18 -74 33 -105 31 -63 80 -98 153 -109 72 -11 374 -115 397 -137 l22 -21 12 74 c12 71 29 139 69 281 l20 67 -356 0 -356 0 6 -50z"/>
 <path d="M930 1978 c1 -13 7 -41 15 -63 15 -39 14 -41 -11 -61 l-27 -22 28 -36 c44 -58 82 -58 134 -2 l25 26 -27 28 c-26 27 -27 31 -17 82 5 29 10 57 10 61 0 5 -29 9 -65 9 -61 0 -65 -1 -65 -22z"/>
 <path d="M1175 1968 c4 -18 18 -67 30 -108 30 -97 61 -252 56 -280 -2 -9 7 -4 21 11 25 29 225 103 374 138 44 10 99 30 120 44 50 31 94 116 94 181 l0 46 -351 0 -351 0 7 -32z"/>
 <path d="M1140 1589 c0 -8 -12 -10 -38 -5 -22 3 -42 3 -46 -1 -8 -9 -97 -12 -111 -4 -20 10 -101 7 -126 -5 -19 -9 -31 -27 -40 -60 -10 -34 -25 -55 -54 -77 -79 -60 -98 -89 -125 -194 -7 -28 -15 -40 -24 -37 -26 10 -73 -43 -86 -96 -6 -27 -26 -70 -43 -96 -53 -80 -47 -194 11 -194 12 0 13 -9 8 -48 -7 -57 9 -194 30 -254 25 -71 73 -141 127 -183 126 -99 151 -115 227 -139 203 -66 389 -7 576 183 70 70 121 247 110 378 -5 57 -4 61 18 67 55 14 55 102 1 187 -19 28 -39 73 -45 99 -16 65 -45 96 -86 91 -6 -1 -14 21 -18 48 -8 61 -54 133 -116 179 -43 33 -52 49 -67 125 -4 21 -8 25 -18 17 -9 -8 -15 -8 -20 -1 -11 19 -45 33 -45 20z m-25 -64 c43 -18 195 -139 226 -180 16 -22 32 -63 42 -112 9 -43 27 -117 40 -166 15 -51 21 -90 15 -93 -9 -6 -2 -79 10 -99 3 -5 7 -16 7 -25 1 -8 5 -38 9 -67 5 -36 3 -68 -7 -105 -8 -29 -18 -80 -22 -113 -10 -99 -41 -179 -86 -224 -98 -97 -206 -141 -348 -141 -137 0 -246 44 -336 134 -57 56 -77 104 -95 216 -5 36 -14 85 -19 110 -15 67 -13 140 5 217 8 37 13 79 10 94 -7 35 77 355 100 381 44 49 204 167 240 177 75 21 153 19 209 -4z m-525 -353 c0 -5 -6 -28 -14 -53 -8 -24 -20 -65 -26 -91 -15 -57 -30 -63 -30 -12 0 31 -2 35 -15 24 -19 -16 -19 -10 0 26 8 16 15 38 15 49 0 29 28 65 51 65 10 0 19 -4 19 -8z m872 -9 c10 -9 18 -26 18 -37 0 -12 11 -44 24 -73 13 -28 22 -54 18 -57 -3 -3 0 -17 7 -30 8 -13 12 -42 9 -65 -3 -30 0 -41 10 -41 12 0 12 -3 2 -15 -14 -17 -30 -11 -30 13 0 9 -7 30 -15 46 -13 24 -13 36 -5 57 14 32 10 71 -8 77 -7 2 -10 -2 -6 -12 3 -8 1 -23 -4 -32 -8 -15 -15 -1 -36 67 -14 47 -26 93 -26 102 0 22 18 22 42 0z m-958 -211 c4 -6 -1 -34 -11 -62 -17 -47 -34 -62 -48 -40 -3 6 0 10 7 10 9 0 14 14 14 43 0 35 8 98 14 117 1 3 5 -9 9 -26 4 -17 11 -36 15 -42z"/>
 <path d="M902 1329 c-7 -11 -11 -24 -7 -27 9 -9 40 13 40 28 0 22 -19 21 -33 -1z"/>
 <path d="M1090 1297 c0 -14 20 -37 32 -37 4 0 2 11 -4 25 -12 27 -28 34 -28 12z"/>
 <path d="M973 1171 c-28 -23 -28 -34 -5 -68 l17 -27 6 39 c3 22 9 48 14 58 9 22 -4 21 -32 -2z"/>
 <path d="M703 940 c-37 -22 -53 -65 -32 -85 17 -18 136 -23 164 -8 29 16 70 62 62 70 -4 3 -17 -3 -30 -15 l-23 -22 -12 34 c-18 50 -73 61 -129 26z m33 -40 c1 -37 0 -40 -20 -34 -37 11 -41 22 -16 49 13 14 26 25 29 25 4 0 7 -18 7 -40z"/>
 <path d="M1192 937 c-12 -13 -22 -31 -22 -40 0 -23 -9 -21 -37 5 -13 12 -26 18 -30 15 -8 -8 33 -54 62 -70 25 -13 144 -10 162 5 36 29 -9 93 -72 103 -34 5 -44 2 -63 -18z m124 -56 c-4 -6 -19 -11 -33 -11 -19 0 -24 4 -19 16 3 9 6 25 6 37 0 21 1 21 26 -5 15 -14 23 -31 20 -37z"/>
 <path d="M663 810 c-13 -5 -23 -14 -23 -20 0 -13 256 -14 264 -1 16 26 -186 43 -241 21z"/>
 <path d="M1307 758 l-47 -31 -68 26 c-70 28 -92 32 -92 19 0 -28 107 -82 162 -82 56 0 118 40 118 75 0 32 -14 30 -73 -7z"/>
 </g>
<g id="layer110" fill="#cc8b77" stroke="none">
 <path d="M133 1950 c3 -27 18 -74 33 -105 31 -63 80 -98 153 -109 72 -11 374 -115 397 -137 l22 -21 12 74 c12 71 29 139 69 281 l20 67 -356 0 -356 0 6 -50z"/>
 <path d="M930 1978 c1 -13 7 -41 15 -63 15 -39 14 -41 -11 -61 l-27 -22 28 -36 c44 -58 82 -58 134 -2 l25 26 -27 28 c-26 27 -27 31 -17 82 5 29 10 57 10 61 0 5 -29 9 -65 9 -61 0 -65 -1 -65 -22z"/>
 <path d="M1175 1968 c4 -18 18 -67 30 -108 30 -97 61 -252 56 -280 -2 -9 7 -4 21 11 25 29 225 103 374 138 44 10 99 30 120 44 50 31 94 116 94 181 l0 46 -351 0 -351 0 7 -32z"/>
 <path d="M1204 1550 c-4 -19 -7 -39 -6 -43 2 -5 -10 0 -25 11 -45 31 -91 42 -178 42 -70 0 -90 -4 -138 -28 -31 -16 -54 -25 -51 -21 2 4 1 17 -4 28 -6 18 -9 15 -21 -24 -10 -33 -24 -54 -55 -77 -80 -61 -99 -90 -126 -195 -7 -28 -15 -40 -24 -37 -26 10 -73 -43 -86 -96 -6 -27 -26 -70 -43 -96 -53 -80 -47 -194 11 -194 12 0 13 -9 8 -48 -7 -57 9 -194 30 -254 25 -71 73 -141 127 -183 126 -99 151 -115 227 -139 203 -66 390 -7 576 183 70 70 121 247 110 378 -5 57 -4 61 18 67 55 14 55 102 1 187 -19 28 -39 73 -45 99 -16 65 -45 96 -86 91 -6 -1 -14 21 -18 48 -8 61 -54 133 -116 179 -44 34 -54 51 -70 122 l-7 35 -9 -35z m-89 -22 c31 -13 198 -142 227 -174 25 -28 108 -364 95 -384 -7 -12 -5 -31 6 -66 29 -89 31 -143 8 -270 -36 -196 -56 -250 -110 -303 -129 -126 -324 -170 -493 -112 -81 28 -110 45 -171 101 -67 61 -82 96 -113 264 -28 151 -30 228 -8 307 10 34 13 66 9 76 -5 10 -8 21 -7 25 17 82 85 326 96 342 40 60 195 181 258 202 50 16 159 12 203 -8z m-525 -355 c0 -23 -55 -203 -62 -203 -5 0 -11 14 -15 31 -4 21 -9 27 -16 20 -7 -7 -7 -22 1 -48 12 -43 -6 -139 -27 -137 -26 2 -31 5 -31 14 0 6 6 10 13 10 8 0 12 21 14 69 1 45 8 82 21 107 10 22 22 54 26 73 7 41 32 71 58 71 10 0 18 -3 18 -7z m873 -11 c9 -10 20 -34 23 -53 4 -19 15 -48 25 -65 12 -19 22 -61 25 -108 4 -42 11 -76 15 -76 15 0 10 -18 -6 -24 -10 -3 -18 1 -21 12 -4 9 -13 32 -21 50 -12 27 -12 39 -2 67 9 25 10 40 1 57 l-11 23 0 -25 c-1 -29 -16 -56 -24 -43 -3 4 -14 44 -25 88 -11 44 -23 88 -27 98 -10 24 26 23 48 -1z m107 -222 c12 -43 -3 -26 -19 20 -7 22 -8 31 -1 24 6 -6 15 -25 20 -44z"/>
 <path d="M902 1329 c-7 -11 -11 -24 -7 -27 9 -9 40 13 40 28 0 22 -19 21 -33 -1z"/>
 <path d="M1090 1297 c0 -14 20 -37 32 -37 4 0 2 11 -4 25 -12 27 -28 34 -28 12z"/>
 <path d="M972 1167 c-27 -29 -27 -35 -1 -67 l21 -25 -6 33 c-4 22 0 42 10 58 21 31 4 31 -24 1z"/>
 <path d="M720 947 c-42 -15 -70 -58 -54 -84 8 -14 27 -19 74 -21 71 -3 107 8 141 44 29 31 17 45 -14 16 l-23 -22 -12 34 c-17 45 -48 55 -112 33z m16 -47 c1 -37 0 -40 -20 -34 -37 11 -41 22 -16 49 13 14 26 25 29 25 4 0 7 -18 7 -40z"/>
 <path d="M1192 937 c-12 -13 -22 -31 -22 -40 0 -23 -9 -21 -37 5 -13 12 -26 18 -30 15 -9 -10 25 -44 60 -62 36 -18 148 -20 165 -3 33 33 -10 93 -73 103 -34 5 -44 2 -63 -18z m124 -56 c-4 -6 -19 -11 -33 -11 -19 0 -24 4 -19 16 3 9 6 25 6 37 0 21 1 21 26 -5 15 -14 23 -31 20 -37z"/>
 <path d="M662 809 c-48 -19 -9 -29 113 -29 126 0 160 9 103 29 -37 13 -184 13 -216 0z"/>
 <path d="M1307 758 l-47 -31 -68 26 c-70 28 -92 32 -92 19 0 -28 107 -82 162 -82 56 0 118 40 118 75 0 32 -14 30 -73 -7z"/>
 </g>
<g id="layer111" fill="#c37b65" stroke="none">
 <path d="M133 1950 c3 -27 18 -74 33 -105 31 -63 80 -98 153 -109 72 -11 374 -115 397 -137 l22 -21 12 74 c12 71 29 139 69 281 l20 67 -356 0 -356 0 6 -50z"/>
 <path d="M930 1978 c1 -13 7 -41 15 -63 15 -39 14 -41 -11 -61 l-27 -22 28 -36 c44 -58 82 -58 134 -2 l25 26 -27 28 c-26 27 -27 31 -17 82 5 29 10 57 10 61 0 5 -29 9 -65 9 -61 0 -65 -1 -65 -22z"/>
 <path d="M1175 1968 c4 -18 18 -67 30 -108 30 -97 61 -252 56 -280 -2 -9 7 -4 21 11 25 29 225 103 374 138 44 10 99 30 120 44 50 31 94 116 94 181 l0 46 -351 0 -351 0 7 -32z"/>
 <path d="M896 1545 c-22 -8 -52 -23 -67 -34 -38 -28 -42 -27 -35 12 5 27 3 25 -13 -13 -12 -28 -35 -57 -64 -80 -74 -57 -90 -83 -117 -187 -7 -28 -15 -40 -24 -37 -26 10 -73 -43 -86 -96 -6 -27 -26 -70 -43 -96 -53 -80 -47 -194 11 -194 12 0 13 -9 8 -48 -7 -57 9 -194 30 -254 25 -71 73 -141 127 -183 126 -99 151 -115 227 -139 203 -66 390 -7 576 183 70 70 121 247 110 378 -5 57 -4 61 18 67 55 14 55 102 1 187 -19 28 -39 73 -45 99 -16 65 -45 96 -86 91 -6 -1 -14 21 -18 48 -8 61 -54 133 -116 179 -35 27 -49 46 -61 86 l-17 51 -3 -38 -4 -37 -35 23 c-19 13 -50 29 -69 35 -46 16 -157 14 -205 -3z m248 -31 c75 -49 149 -109 188 -152 29 -32 40 -56 54 -120 15 -65 20 -77 30 -64 11 14 14 14 38 -1 14 -10 28 -27 30 -40 3 -12 7 -33 10 -47 3 -14 21 -50 41 -80 53 -82 58 -147 14 -170 -15 -9 -20 -7 -25 7 -3 10 -13 33 -21 52 -12 27 -13 41 -4 71 13 45 14 50 2 50 -5 0 -11 -10 -13 -22 -2 -17 -9 -22 -26 -21 -31 4 -37 -18 -18 -74 28 -88 30 -143 7 -269 -37 -202 -55 -251 -115 -309 -176 -171 -433 -181 -643 -24 -70 52 -97 112 -128 279 -29 157 -31 229 -8 316 16 60 16 65 0 81 -11 11 -17 13 -17 5 0 -25 -20 -11 -29 21 -8 28 -10 24 -9 -33 1 -73 -12 -132 -29 -137 -19 -7 -53 35 -53 65 0 15 9 43 19 62 42 75 70 136 75 160 6 27 40 70 57 70 5 0 13 -10 18 -22 7 -19 10 -13 21 37 19 94 30 123 55 153 33 39 203 167 240 181 17 6 67 9 112 8 71 -3 88 -7 127 -33z"/>
 <path d="M902 1329 c-7 -11 -11 -24 -7 -27 9 -9 40 13 40 28 0 22 -19 21 -33 -1z"/>
 <path d="M1090 1297 c0 -14 20 -37 32 -37 4 0 2 11 -4 25 -12 27 -28 34 -28 12z"/>
 <path d="M965 1160 c-17 -18 -17 -21 -1 -45 21 -32 28 -32 20 -1 -3 13 -1 34 6 45 14 27 -1 27 -25 1z"/>
 <path d="M1534 977 c3 -10 6 -41 6 -69 0 -35 4 -48 13 -45 16 6 12 70 -8 105 -9 15 -14 19 -11 9z"/>
 <path d="M450 956 c-21 -55 -23 -78 -9 -87 11 -7 15 3 20 49 6 66 4 76 -11 38z"/>
 <path d="M720 947 c-42 -15 -70 -58 -54 -84 9 -14 27 -19 80 -21 59 -2 75 1 104 20 19 13 37 33 39 43 3 19 2 19 -21 -2 l-24 -23 -12 34 c-17 45 -48 55 -112 33z m16 -47 c1 -37 0 -40 -20 -34 -37 11 -41 22 -16 49 13 14 26 25 29 25 4 0 7 -18 7 -40z"/>
 <path d="M1192 937 c-12 -13 -22 -31 -22 -40 0 -23 -9 -21 -37 5 -18 16 -23 18 -23 6 0 -16 19 -34 57 -55 29 -17 145 -17 161 -1 33 33 -10 93 -73 103 -34 5 -44 2 -63 -18z m124 -56 c-4 -6 -19 -11 -33 -11 -19 0 -24 4 -19 16 3 9 6 25 6 37 0 21 1 21 26 -5 15 -14 23 -31 20 -37z"/>
 <path d="M662 809 c-48 -19 -9 -29 113 -29 126 0 160 9 103 29 -37 13 -184 13 -216 0z"/>
 <path d="M1307 758 l-47 -31 -68 26 c-70 28 -92 32 -92 19 0 -28 107 -82 162 -82 56 0 118 40 118 75 0 32 -14 30 -73 -7z"/>
 </g>
<g id="layer112" fill="#7e7f85" stroke="none">
 <path d="M133 1950 c3 -27 18 -74 33 -105 31 -63 80 -98 153 -109 72 -11 374 -115 397 -137 l22 -21 12 74 c12 71 29 139 69 281 l20 67 -356 0 -356 0 6 -50z"/>
 <path d="M930 1978 c1 -13 7 -41 15 -63 15 -39 14 -41 -11 -61 l-27 -22 28 -36 c44 -58 82 -58 134 -2 l25 26 -27 28 c-26 27 -27 31 -17 82 5 29 10 57 10 61 0 5 -29 9 -65 9 -61 0 -65 -1 -65 -22z"/>
 <path d="M1175 1968 c4 -18 18 -67 30 -108 30 -97 61 -252 56 -280 -2 -9 7 -4 21 11 25 29 225 103 374 138 44 10 99 30 120 44 50 31 94 116 94 181 l0 46 -351 0 -351 0 7 -32z"/>
 <path d="M902 1329 c-7 -11 -11 -24 -7 -27 9 -9 40 13 40 28 0 22 -19 21 -33 -1z"/>
 <path d="M1090 1297 c0 -14 20 -37 32 -37 4 0 2 11 -4 25 -12 27 -28 34 -28 12z"/>
 <path d="M1434 965 c-3 -8 1 -36 10 -62 28 -88 30 -143 6 -269 -25 -140 -45 -215 -71 -267 -27 -52 -6 -48 47 9 52 56 81 127 102 252 13 79 14 106 3 167 -6 40 -21 92 -32 114 -10 22 -19 44 -19 49 0 6 -7 13 -16 16 -22 8 -24 8 -30 -9z"/>
 <path d="M510 924 c-11 -26 -20 -55 -20 -65 0 -10 -4 -20 -9 -23 -27 -17 -18 -226 15 -318 21 -60 71 -139 106 -167 29 -23 50 -23 31 1 -22 29 -46 110 -69 232 -28 149 -30 232 -9 302 20 66 19 84 -5 84 -13 0 -25 -14 -40 -46z"/>
 <path d="M720 947 c-42 -15 -70 -58 -54 -84 9 -14 27 -19 80 -21 59 -2 75 1 104 20 19 13 37 33 39 43 3 19 2 19 -21 -2 l-24 -23 -12 34 c-17 45 -48 55 -112 33z m16 -47 c1 -37 0 -40 -20 -34 -37 11 -41 22 -16 49 13 14 26 25 29 25 4 0 7 -18 7 -40z"/>
 <path d="M1192 937 c-12 -13 -22 -31 -22 -40 0 -23 -9 -21 -37 5 -18 16 -23 18 -23 6 0 -16 19 -34 57 -55 29 -17 145 -17 161 -1 33 33 -10 93 -73 103 -34 5 -44 2 -63 -18z m124 -56 c-4 -6 -19 -11 -33 -11 -19 0 -24 4 -19 16 3 9 6 25 6 37 0 21 1 21 26 -5 15 -14 23 -31 20 -37z"/>
 <path d="M662 809 c-48 -19 -9 -29 113 -29 126 0 160 9 103 29 -37 13 -184 13 -216 0z"/>
 <path d="M1307 758 l-47 -31 -68 26 c-70 28 -92 32 -92 19 0 -28 107 -82 162 -82 56 0 118 40 118 75 0 32 -14 30 -73 -7z"/>
 </g>
<g id="layer113" fill="#846439" stroke="none">
 <path d="M133 1950 c3 -27 18 -74 33 -105 31 -63 80 -98 153 -109 64 -10 372 -114 393 -133 10 -9 21 -14 24 -11 3 3 9 34 14 69 9 57 24 119 74 292 l14 47 -355 0 -356 0 6 -50z"/>
 <path d="M936 1973 c3 -16 10 -44 15 -63 8 -31 6 -38 -17 -58 l-27 -23 39 -40 c21 -21 46 -39 56 -39 9 0 34 16 54 36 l36 37 -30 28 c-27 25 -30 32 -22 61 4 18 11 45 14 61 l6 27 -65 0 -65 0 6 -27z"/>
 <path d="M1170 1992 c0 -5 13 -53 29 -108 28 -94 43 -161 56 -246 7 -43 21 -56 38 -35 14 18 247 98 363 126 44 10 99 30 120 44 50 31 94 116 94 181 l0 46 -350 0 c-192 0 -350 -4 -350 -8z"/>
 <path d="M906 1334 c-11 -27 -7 -37 9 -24 16 14 20 40 6 40 -5 0 -12 -7 -15 -16z"/>
 <path d="M1100 1289 c7 -11 14 -19 16 -16 7 7 -7 37 -17 37 -6 0 -5 -9 1 -21z"/>
 <path d="M1434 965 c-3 -8 1 -36 10 -62 28 -88 30 -143 6 -269 -25 -140 -45 -215 -71 -267 -27 -52 -6 -48 47 9 52 56 81 127 102 252 13 79 14 106 3 167 -6 40 -21 92 -32 114 -10 22 -19 44 -19 49 0 6 -7 13 -16 16 -22 8 -24 8 -30 -9z"/>
 <path d="M510 924 c-11 -26 -20 -55 -20 -65 0 -10 -4 -20 -9 -23 -27 -17 -18 -226 15 -318 21 -60 71 -139 106 -167 29 -23 50 -23 31 1 -22 29 -46 110 -69 232 -28 149 -30 232 -9 302 20 66 19 84 -5 84 -13 0 -25 -14 -40 -46z"/>
 <path d="M755 950 c-3 -5 -3 -10 2 -10 4 0 0 -5 -10 -11 -14 -8 -17 -18 -12 -40 5 -22 3 -29 -8 -29 -47 0 -64 39 -27 62 11 7 20 17 20 22 0 5 -13 -3 -30 -19 -57 -54 -35 -85 61 -85 52 0 73 5 99 23 19 12 35 28 38 35 3 11 -2 10 -20 -2 -23 -15 -24 -15 -36 18 -8 20 -21 36 -35 40 -30 8 -35 8 -42 -4z"/>
 <path d="M1193 936 c-13 -13 -23 -31 -23 -40 0 -20 -9 -20 -32 1 -22 19 -36 10 -18 -12 26 -31 76 -46 140 -43 75 4 94 21 70 65 -8 14 -22 29 -30 31 -12 4 -11 1 3 -15 35 -39 18 -60 -50 -61 -28 -1 -30 14 -3 21 22 6 26 28 10 58 -14 26 -40 24 -67 -5z"/>
 <path d="M662 809 c-48 -19 -9 -29 113 -29 126 0 160 9 103 29 -37 13 -184 13 -216 0z"/>
 <path d="M1307 758 l-47 -31 -68 26 c-70 28 -92 32 -92 19 0 -28 107 -82 162 -82 56 0 118 40 118 75 0 32 -14 30 -73 -7z"/>
 </g>
<g id="layer114" fill="#645e5c" stroke="none">
 <path d="M133 1950 c3 -27 18 -74 33 -105 31 -63 80 -98 153 -109 64 -10 372 -114 393 -133 10 -9 21 -14 24 -11 3 3 9 34 14 69 9 57 24 119 74 292 l14 47 -355 0 -356 0 6 -50z"/>
 <path d="M936 1973 c3 -16 10 -44 15 -63 8 -31 6 -38 -17 -58 l-27 -23 39 -40 c21 -21 46 -39 56 -39 9 0 34 16 54 36 l36 37 -30 28 c-27 25 -30 32 -22 61 4 18 11 45 14 61 l6 27 -65 0 -65 0 6 -27z"/>
 <path d="M1170 1992 c0 -5 13 -53 29 -108 28 -94 43 -161 56 -246 7 -43 21 -56 38 -35 14 18 247 98 363 126 44 10 99 30 120 44 50 31 94 116 94 181 l0 46 -350 0 c-192 0 -350 -4 -350 -8z"/>
 <path d="M906 1334 c-11 -27 -7 -37 9 -24 16 14 20 40 6 40 -5 0 -12 -7 -15 -16z"/>
 <path d="M1100 1289 c7 -11 14 -19 16 -16 7 7 -7 37 -17 37 -6 0 -5 -9 1 -21z"/>
 <path d="M1440 965 c-9 -11 -8 -25 4 -62 23 -71 30 -154 17 -209 -11 -48 -20 -104 -25 -154 -3 -34 -34 -126 -58 -173 -26 -52 -5 -48 48 9 51 54 80 126 101 244 18 103 13 168 -23 271 -28 80 -44 98 -64 74z"/>
 <path d="M513 923 c-43 -97 -55 -176 -44 -273 6 -48 18 -108 26 -131 22 -61 72 -139 107 -168 29 -23 50 -23 31 1 -13 16 -54 126 -58 153 -2 11 -10 64 -19 117 -20 122 -20 201 -1 264 20 65 19 84 -3 84 -12 0 -25 -16 -39 -47z"/>
 <path d="M756 951 c-3 -5 10 -11 30 -13 32 -4 34 -3 18 9 -21 15 -40 17 -48 4z"/>
 <path d="M1210 951 c0 -10 36 -21 44 -14 3 3 3 10 0 14 -7 12 -44 12 -44 0z"/>
 <path d="M687 922 c-52 -54 -30 -82 64 -82 52 0 73 5 99 23 19 12 36 29 38 37 4 12 3 13 -10 2 -9 -7 -24 -14 -34 -17 -11 -2 -28 -7 -39 -11 -18 -7 -18 -6 -6 9 18 22 7 51 -17 42 -9 -4 -23 -8 -29 -8 -7 0 -13 -13 -13 -29 0 -28 -12 -34 -44 -22 -23 9 -20 40 6 58 12 9 19 18 17 21 -3 2 -18 -8 -32 -23z"/>
 <path d="M1303 923 c24 -27 21 -52 -5 -57 -39 -7 -68 -5 -68 5 0 5 6 9 14 9 19 0 15 33 -6 42 -20 8 -68 -12 -68 -29 0 -17 -10 -16 -32 4 -22 19 -36 10 -18 -12 26 -31 76 -46 140 -43 75 4 94 21 70 65 -8 14 -22 29 -30 31 -12 4 -11 1 3 -15z"/>
 <path d="M663 806 c-13 -7 -20 -16 -16 -19 10 -11 251 -8 257 2 17 26 -199 42 -241 17z"/>
 <path d="M1309 758 c-45 -28 -49 -29 -90 -17 -24 7 -53 19 -64 26 -21 14 -55 18 -55 5 0 -28 107 -82 162 -82 56 0 118 40 118 75 0 32 -14 30 -71 -7z"/>
 </g>
<g id="layer115" fill="#6c4d3d" stroke="none">
 <path d="M133 1950 c3 -27 18 -74 33 -105 31 -63 80 -98 153 -109 64 -10 372 -114 393 -133 10 -9 21 -14 24 -10 3 3 10 38 15 77 10 79 21 125 51 215 11 33 24 72 28 88 l9 27 -356 0 -356 0 6 -50z"/>
 <path d="M947 1933 c14 -71 12 -79 -31 -97 -13 -5 68 -86 87 -86 16 0 77 58 77 73 0 6 -11 20 -25 32 -22 18 -24 24 -15 60 19 81 17 85 -49 85 l-59 0 15 -67z"/>
 <path d="M1182 1958 c6 -24 21 -79 33 -123 13 -44 28 -113 34 -154 11 -82 23 -104 43 -79 15 19 245 99 364 127 44 10 99 30 120 44 50 31 94 116 94 181 l0 46 -349 0 -349 0 10 -42z"/>
 <path d="M906 1324 c-4 -10 -1 -14 6 -12 15 5 23 28 10 28 -5 0 -13 -7 -16 -16z"/>
 <path d="M1440 965 c-9 -11 -8 -25 4 -62 23 -71 30 -154 17 -209 -11 -48 -20 -104 -25 -154 -3 -34 -34 -126 -58 -173 -26 -52 -5 -48 48 9 51 54 80 126 101 244 18 103 13 168 -23 271 -28 80 -44 98 -64 74z"/>
 <path d="M513 923 c-43 -97 -55 -176 -44 -273 6 -48 18 -108 26 -131 22 -61 72 -139 107 -168 29 -23 50 -23 31 1 -13 16 -54 126 -58 153 -2 11 -10 64 -19 117 -20 122 -20 201 -1 264 20 65 19 84 -3 84 -12 0 -25 -16 -39 -47z"/>
 <path d="M776 951 c-3 -5 5 -11 19 -13 30 -6 32 -2 6 12 -11 6 -22 6 -25 1z"/>
 <path d="M1210 952 c0 -5 9 -12 21 -15 13 -3 19 -1 16 6 -5 15 -37 22 -37 9z"/>
 <path d="M682 917 c-25 -26 -28 -47 -10 -65 16 -16 132 -16 161 1 34 19 57 39 57 50 0 6 -9 2 -19 -7 -11 -10 -34 -20 -52 -23 -29 -4 -31 -3 -20 11 18 21 6 50 -17 41 -9 -4 -23 -8 -30 -8 -9 0 -12 -10 -10 -29 4 -23 1 -28 -17 -28 -12 0 -29 6 -39 13 -16 12 -16 14 4 40 26 33 21 35 -8 4z"/>
 <path d="M1309 915 c21 -28 21 -30 5 -42 -21 -15 -84 -17 -84 -3 0 6 6 10 14 10 19 0 15 33 -6 42 -23 10 -68 -13 -68 -35 0 -17 -2 -17 -31 4 -31 21 -31 21 -20 1 17 -33 68 -52 136 -52 88 0 111 33 58 81 l-27 24 23 -30z"/>
 <path d="M663 806 c-13 -7 -20 -16 -16 -19 10 -11 251 -8 257 2 17 26 -199 42 -241 17z"/>
 <path d="M1309 758 c-45 -28 -49 -29 -90 -17 -24 7 -53 19 -64 26 -21 14 -55 18 -55 5 0 -28 107 -82 162 -82 56 0 118 40 118 75 0 32 -14 30 -71 -7z"/>
 </g>
<g id="layer116" fill="#5f432e" stroke="none">
 <path d="M133 1950 c3 -27 18 -74 33 -105 31 -63 80 -98 153 -109 64 -10 372 -114 393 -133 10 -9 20 -14 22 -12 3 2 9 40 15 84 10 70 70 288 87 316 3 6 -126 9 -352 9 l-357 -1 6 -49z m76 -98 c7 -13 10 -26 8 -29 -10 -9 -46 75 -52 119 l-6 43 19 -55 c10 -30 24 -66 31 -78z m87 -66 c29 -11 33 -15 16 -15 -28 -1 -82 26 -82 40 0 8 4 8 14 0 7 -6 31 -17 52 -25z"/>
 <path d="M947 1933 c14 -71 12 -79 -31 -97 -13 -5 68 -86 87 -86 16 0 77 58 77 73 0 6 -11 20 -25 32 -22 18 -24 24 -15 60 19 81 17 85 -49 85 l-59 0 15 -67z"/>
 <path d="M1191 1933 c22 -77 52 -200 69 -285 12 -61 16 -66 34 -44 13 17 249 98 362 125 44 10 99 30 120 44 50 31 94 116 94 181 0 55 -15 61 -25 9 -8 -43 -45 -146 -51 -140 -2 2 5 28 15 58 10 30 22 69 26 87 l7 32 -336 0 -335 0 20 -67z m558 -144 c-19 -10 -45 -18 -59 -18 -20 0 -17 3 15 15 22 8 44 19 49 24 5 5 14 6 19 3 5 -3 -5 -14 -24 -24z"/>
 <path d="M906 1324 c-4 -10 -1 -14 6 -12 15 5 23 28 10 28 -5 0 -13 -7 -16 -16z"/>
 <path d="M1439 955 c-3 -11 1 -32 8 -46 7 -14 15 -39 17 -55 2 -16 7 -37 11 -47 9 -21 -3 -124 -15 -132 -4 -3 -6 -14 -3 -24 3 -10 0 -22 -6 -25 -5 -4 -8 -13 -5 -21 3 -7 1 -22 -5 -33 -5 -10 -7 -31 -3 -46 6 -23 10 -15 20 46 7 40 18 95 24 122 6 26 8 71 4 100 -8 72 -42 186 -47 161z"/>
 <path d="M546 914 c-4 -14 -5 -28 -3 -31 3 -2 8 8 11 23 4 14 5 28 3 31 -3 2 -8 -8 -11 -23z"/>
 <path d="M680 915 c-20 -21 -22 -28 -12 -50 10 -22 18 -25 67 -25 64 0 111 17 140 51 l20 23 -29 -22 c-16 -12 -39 -22 -52 -22 -22 0 -23 2 -12 20 17 28 -8 46 -33 24 -8 -8 -19 -11 -24 -7 -4 5 -5 -4 -1 -19 6 -25 3 -28 -17 -28 -13 0 -31 6 -41 13 -16 12 -16 14 4 40 27 34 21 35 -10 2z"/>
 <path d="M1309 915 c21 -28 21 -30 5 -42 -17 -13 -94 -19 -94 -7 0 3 7 13 16 21 14 14 14 17 -1 32 -15 15 -17 14 -31 -3 -8 -11 -14 -16 -15 -10 0 5 -4 -1 -10 -14 l-9 -23 -32 22 -33 23 20 -23 c28 -34 76 -51 138 -51 80 0 101 35 50 81 l-27 24 23 -30z"/>
 <path d="M506 898 c-2 -7 -12 -35 -22 -63 -36 -96 -16 -279 43 -387 26 -48 89 -118 106 -118 13 0 -13 40 -48 76 -63 63 -102 224 -90 366 4 45 11 94 15 110 5 15 7 28 4 28 -3 0 -6 -6 -8 -12z"/>
 <path d="M1495 866 c22 -73 19 -221 -6 -314 -20 -75 -52 -142 -69 -142 -12 0 -54 -70 -46 -77 13 -13 96 90 117 146 45 118 61 313 30 344 -6 6 -11 20 -11 32 0 12 -7 30 -15 41 -12 17 -12 13 0 -30z"/>
 <path d="M518 786 c-3 -28 -3 -59 2 -70 11 -32 23 51 12 89 -8 29 -9 28 -14 -19z"/>
 <path d="M530 669 c0 -13 5 -44 12 -69 6 -25 11 -56 12 -70 0 -14 6 -23 11 -21 6 1 9 8 7 13 -1 6 -9 44 -17 86 -15 78 -25 103 -25 61z"/>
 </g>
<g id="layer117" fill="#3f4244" stroke="none">
 <path d="M133 1950 c3 -27 18 -74 33 -105 31 -63 80 -98 153 -109 64 -10 372 -114 393 -133 10 -9 20 -14 22 -12 3 2 9 40 15 84 10 70 70 288 87 316 3 6 -126 9 -352 9 l-357 -1 6 -49z m76 -98 c7 -13 10 -26 8 -29 -10 -9 -46 75 -52 119 l-6 43 19 -55 c10 -30 24 -66 31 -78z m87 -66 c29 -11 33 -15 16 -15 -28 -1 -82 26 -82 40 0 8 4 8 14 0 7 -6 31 -17 52 -25z"/>
 <path d="M947 1933 c14 -71 12 -79 -31 -97 -13 -5 68 -86 87 -86 16 0 77 58 77 73 0 6 -11 20 -25 32 -22 18 -24 24 -15 60 19 81 17 85 -49 85 l-59 0 15 -67z"/>
 <path d="M1191 1933 c22 -77 52 -200 69 -285 12 -61 16 -66 34 -44 13 17 249 98 362 125 44 10 99 30 120 44 50 31 94 116 94 181 0 55 -15 61 -25 9 -8 -43 -45 -146 -51 -140 -2 2 5 28 15 58 10 30 22 69 26 87 l7 32 -336 0 -335 0 20 -67z m558 -144 c-19 -10 -45 -18 -59 -18 -20 0 -17 3 15 15 22 8 44 19 49 24 5 5 14 6 19 3 5 -3 -5 -14 -24 -24z"/>
 <path d="M906 1324 c-4 -10 -1 -14 6 -12 15 5 23 28 10 28 -5 0 -13 -7 -16 -16z"/>
 <path d="M680 915 c-20 -21 -22 -28 -12 -50 10 -22 18 -25 67 -25 64 0 111 17 140 50 l20 23 -30 -20 c-35 -24 -75 -35 -91 -25 -6 4 -16 16 -23 27 -11 18 -12 18 -6 -7 5 -24 2 -28 -18 -28 -13 0 -31 6 -41 13 -16 12 -16 14 4 40 27 34 21 35 -10 2z"/>
 <path d="M1309 915 c21 -28 21 -30 5 -42 -20 -15 -94 -18 -94 -4 0 6 5 13 10 16 18 11 10 35 -11 35 -17 0 -20 -5 -17 -25 6 -28 -8 -35 -15 -7 -4 16 -5 16 -6 0 -1 -23 -6 -23 -44 4 l-32 22 20 -23 c28 -34 76 -51 138 -51 80 0 101 35 50 81 l-27 24 23 -30z"/>
 <path d="M765 910 c-4 -7 -3 -16 3 -22 14 -14 45 -2 40 15 -6 16 -34 21 -43 7z"/>
 <path d="M479 818 c-32 -75 -6 -271 48 -370 27 -49 92 -122 102 -113 7 7 -21 55 -29 50 -12 -7 -58 69 -82 137 -19 53 -23 83 -23 196 0 72 -1 132 -1 132 -1 0 -8 -15 -15 -32z"/>
 <path d="M1514 754 c6 -152 -34 -290 -107 -368 -41 -43 -48 -63 -17 -46 82 44 157 257 146 414 -7 93 -26 93 -22 0z"/>
 <path d="M1481 769 c0 -15 -3 -42 -6 -60 l-5 -34 11 34 c5 18 8 45 6 60 l-4 26 -2 -26z"/>
 <path d="M1460 652 c0 -11 -4 -23 -9 -26 -5 -3 -7 -15 -4 -26 3 -11 0 -26 -5 -33 -7 -8 -8 -25 -4 -41 6 -22 10 -12 20 55 7 44 11 84 8 87 -4 3 -6 -4 -6 -16z"/>
 <path d="M541 619 c0 -13 4 -33 9 -44 7 -14 8 -8 3 20 -7 46 -13 59 -12 24z"/>
 </g>
<g id="layer118" fill="#583a2e" stroke="none">
 <path d="M133 1950 c3 -27 18 -74 33 -105 31 -63 80 -98 153 -109 64 -10 372 -114 393 -133 10 -9 20 -14 22 -12 3 2 9 40 15 84 10 70 70 288 87 316 3 6 -126 9 -352 9 l-357 -1 6 -49z m76 -98 c7 -13 10 -26 8 -29 -10 -9 -46 75 -52 119 l-6 43 19 -55 c10 -30 24 -66 31 -78z m87 -66 c29 -11 33 -15 16 -15 -28 -1 -82 26 -82 40 0 8 4 8 14 0 7 -6 31 -17 52 -25z"/>
 <path d="M940 1979 c0 -11 5 -41 12 -66 10 -43 10 -47 -12 -63 l-23 -17 22 -32 c20 -27 50 -51 65 -51 11 0 76 63 76 73 0 6 -12 20 -26 32 -24 19 -25 23 -15 65 18 79 18 80 -44 80 -49 0 -55 -2 -55 -21z"/>
 <path d="M1191 1933 c22 -77 52 -200 69 -285 12 -61 16 -66 34 -44 13 17 249 98 362 125 44 10 99 30 120 44 50 31 94 116 94 181 0 55 -15 61 -25 9 -8 -43 -45 -146 -51 -140 -2 2 5 28 15 58 10 30 22 69 26 87 l7 32 -336 0 -335 0 20 -67z m558 -144 c-19 -10 -45 -18 -59 -18 -20 0 -17 3 15 15 22 8 44 19 49 24 5 5 14 6 19 3 5 -3 -5 -14 -24 -24z"/>
 <path d="M670 905 c-11 -13 -11 -20 0 -40 12 -22 20 -25 67 -25 59 0 110 17 133 45 14 18 14 18 -10 3 -32 -20 -72 -29 -86 -20 -6 4 -16 16 -22 27 -11 18 -12 17 -10 -10 3 -27 0 -30 -22 -27 -38 5 -57 27 -40 46 7 9 10 16 7 16 -2 0 -10 -7 -17 -15z"/>
 <path d="M765 910 c-4 -7 -3 -16 3 -22 14 -14 45 -2 40 15 -6 16 -34 21 -43 7z"/>
 <path d="M1202 895 c6 -28 -8 -35 -15 -7 -4 16 -5 16 -6 0 -1 -24 -12 -23 -47 4 l-29 22 20 -23 c28 -34 76 -51 138 -51 47 0 55 3 67 25 11 21 11 27 0 38 -10 9 -11 9 -6 -1 13 -23 -14 -42 -60 -42 -41 0 -56 11 -34 25 18 11 10 35 -11 35 -17 0 -20 -5 -17 -25z"/>
 <path d="M479 818 c-32 -76 -6 -271 48 -370 27 -49 92 -122 102 -113 7 7 -21 55 -29 50 -12 -7 -58 69 -82 137 -19 53 -23 83 -23 196 0 72 -1 132 -1 132 -1 0 -8 -15 -15 -32z"/>
 <path d="M1514 754 c6 -152 -34 -290 -107 -368 -41 -43 -48 -63 -17 -46 82 44 157 257 146 414 -7 93 -26 93 -22 0z"/>
 <path d="M1481 769 c0 -15 -3 -42 -6 -60 l-5 -34 11 34 c5 18 8 45 6 60 l-4 26 -2 -26z"/>
 <path d="M1460 652 c0 -11 -4 -23 -9 -26 -5 -3 -7 -15 -4 -26 3 -11 0 -26 -5 -33 -7 -8 -8 -25 -4 -41 6 -22 10 -12 20 55 7 44 11 84 8 87 -4 3 -6 -4 -6 -16z"/>
 <path d="M541 619 c0 -13 4 -33 9 -44 7 -14 8 -8 3 20 -7 46 -13 59 -12 24z"/>
 </g>
<g id="layer119" fill="#653220" stroke="none">
 <path d="M133 1950 c3 -27 18 -74 33 -105 31 -63 80 -98 153 -109 61 -9 372 -114 391 -131 20 -18 26 -19 27 -2 5 77 67 330 94 380 9 17 -9 17 -347 17 l-357 -1 6 -49z m76 -98 c7 -13 10 -26 8 -29 -10 -9 -46 75 -52 119 l-6 43 19 -55 c10 -30 24 -66 31 -78z m87 -66 c29 -11 33 -15 16 -15 -28 -1 -82 26 -82 40 0 8 4 8 14 0 7 -6 31 -17 52 -25z"/>
 <path d="M940 1979 c0 -11 5 -41 12 -66 10 -43 10 -47 -12 -63 l-23 -17 22 -32 c20 -27 50 -51 65 -51 11 0 76 63 76 73 0 6 -12 20 -26 32 -24 19 -25 23 -15 65 18 79 18 80 -44 80 -49 0 -55 -2 -55 -21z"/>
 <path d="M1180 1983 c0 -10 14 -63 31 -118 16 -55 36 -138 44 -184 8 -46 16 -86 20 -89 3 -3 11 2 18 10 14 19 244 99 363 127 44 10 99 30 120 44 50 31 94 116 94 181 0 55 -15 61 -25 9 -8 -43 -45 -146 -51 -140 -2 2 5 28 15 58 10 30 22 69 26 87 l7 32 -331 0 c-309 0 -331 -1 -331 -17z m569 -194 c-19 -10 -45 -18 -59 -18 -20 0 -17 3 15 15 22 8 44 19 49 24 5 5 14 6 19 3 5 -3 -5 -14 -24 -24z"/>
 <path d="M765 910 c-4 -7 -3 -16 3 -22 14 -14 45 -2 40 15 -6 16 -34 21 -43 7z"/>
 <path d="M1204 905 c-3 -8 -3 -19 1 -25 3 -5 2 -10 -4 -10 -5 0 -12 8 -14 18 -4 16 -5 16 -6 0 -1 -22 -10 -23 -41 -1 -24 16 -24 16 -10 -2 21 -26 72 -45 122 -45 44 0 88 21 88 42 0 6 -8 4 -18 -5 -11 -10 -36 -17 -60 -17 -40 0 -54 11 -32 25 16 10 12 35 -5 35 -9 0 -18 -7 -21 -15z"/>
 <path d="M742 885 c3 -27 0 -30 -22 -27 -14 2 -33 11 -42 19 -10 9 -18 11 -18 5 0 -21 44 -42 88 -42 49 0 100 19 122 45 14 18 14 18 -10 3 -32 -20 -72 -29 -86 -20 -6 4 -16 16 -22 27 -11 18 -12 17 -10 -10z"/>
 <path d="M474 808 c-12 -38 -5 -190 11 -252 23 -88 63 -156 119 -206 26 -23 28 -23 24 -5 -2 11 -10 20 -18 20 -21 0 -86 118 -105 190 -9 35 -16 105 -17 168 0 59 -2 107 -4 107 -1 0 -6 -10 -10 -22z"/>
 <path d="M1520 729 c0 -146 -45 -282 -118 -361 -14 -16 -21 -28 -14 -28 22 0 90 100 111 162 27 83 41 179 36 252 -6 93 -15 78 -15 -25z"/>
 </g>
<g id="layer120" fill="#572917" stroke="none">
 <path d="M133 1950 c3 -27 18 -74 33 -105 31 -63 80 -98 153 -109 61 -9 372 -114 391 -131 20 -18 26 -19 27 -2 4 77 66 329 94 380 7 13 5 17 -9 17 -13 0 -22 -12 -30 -37 -7 -21 -21 -67 -32 -103 -12 -36 -24 -102 -27 -148 l-6 -83 -26 24 c-14 13 -50 41 -79 62 l-53 38 37 38 37 38 -29 12 c-45 18 -59 26 -57 36 1 4 11 33 23 63 24 65 23 60 6 60 -15 0 -57 -116 -49 -136 2 -7 20 -19 40 -27 l35 -14 -31 -26 c-39 -32 -34 -46 33 -96 25 -19 44 -36 43 -37 -2 -2 -37 10 -79 26 -65 25 -197 62 -298 84 -14 3 -34 12 -44 19 -19 14 -19 16 -3 31 41 41 99 176 77 176 -5 0 -14 -17 -20 -37 -11 -43 -66 -143 -78 -143 -13 0 -39 61 -53 124 -17 69 -34 74 -26 6z"/>
 <path d="M940 1979 c0 -11 5 -41 12 -66 10 -43 10 -47 -12 -63 l-23 -17 22 -32 c20 -27 50 -51 65 -51 11 0 76 63 76 73 0 6 -12 20 -26 32 -24 19 -25 23 -15 65 18 79 18 80 -44 80 -49 0 -55 -2 -55 -21z"/>
 <path d="M1180 1983 c0 -10 14 -63 31 -118 16 -55 36 -138 44 -184 8 -46 16 -86 20 -89 3 -3 11 2 18 10 14 19 244 99 363 127 44 10 99 30 120 44 50 31 94 116 94 181 0 59 -15 60 -23 2 -4 -24 -17 -68 -30 -98 -28 -63 -45 -72 -212 -113 -60 -14 -143 -40 -184 -56 -71 -28 -108 -34 -59 -9 32 17 88 71 88 86 0 7 -14 24 -31 37 l-32 25 31 7 c52 11 58 28 36 98 -13 39 -26 63 -37 65 -14 3 -13 -5 8 -65 14 -37 25 -69 25 -70 0 -1 -18 -7 -40 -13 -22 -6 -40 -15 -40 -21 0 -5 14 -22 32 -38 39 -35 35 -42 -54 -102 -32 -22 -58 -45 -58 -51 0 -8 -3 -8 -9 -3 -5 6 -11 44 -13 85 -3 48 -16 112 -38 178 -30 94 -50 128 -50 85z"/>
 <path d="M1689 1978 c26 -66 52 -116 75 -143 21 -25 19 -18 -12 45 -21 41 -41 85 -44 98 -4 12 -11 22 -17 22 -7 0 -7 -8 -2 -22z"/>
 <path d="M765 910 c-4 -7 -3 -16 3 -22 14 -14 45 -2 40 15 -6 16 -34 21 -43 7z"/>
 <path d="M1204 909 c-3 -6 -2 -15 4 -21 13 -13 32 -2 32 18 0 16 -26 19 -36 3z"/>
 <path d="M852 883 c-12 -9 -40 -16 -62 -16 -22 0 -43 -3 -45 -7 -7 -11 -46 0 -67 18 -11 9 -18 11 -18 4 0 -21 44 -42 88 -42 48 0 100 19 121 43 17 21 13 21 -17 0z"/>
 <path d="M1130 886 c21 -27 72 -46 122 -46 44 0 88 21 88 42 0 6 -9 3 -20 -7 -15 -14 -30 -16 -67 -12 -88 11 -102 14 -120 28 -17 13 -17 13 -3 -5z"/>
 <path d="M474 798 c-21 -95 4 -260 53 -351 28 -51 93 -121 102 -110 3 3 0 8 -7 10 -6 3 -10 9 -6 14 3 5 0 8 -7 7 -18 -4 -86 117 -104 187 -9 35 -16 105 -17 168 0 59 -2 107 -4 107 -1 0 -6 -15 -10 -32z"/>
 <path d="M1520 729 c0 -146 -45 -282 -118 -361 -14 -16 -21 -28 -14 -28 22 0 90 100 111 162 27 83 41 179 36 252 -6 93 -15 78 -15 -25z"/>
 </g>
<g id="layer121" fill="#322d2a" stroke="none">
 <path d="M133 1950 c3 -27 18 -74 33 -105 31 -63 80 -98 153 -109 63 -10 372 -114 392 -132 21 -19 23 -14 39 91 6 39 24 112 40 163 17 51 30 101 30 111 0 11 6 22 13 24 7 3 5 6 -5 6 -10 1 -18 -1 -18 -3 0 -3 -16 -57 -35 -120 -19 -63 -38 -147 -41 -186 l-7 -71 -36 33 c-19 18 -29 25 -22 16 18 -24 4 -23 -63 7 -65 29 -249 85 -278 85 -11 0 -41 9 -67 20 -40 18 -51 29 -74 76 -15 31 -30 76 -34 100 -8 62 -27 57 -20 -6z"/>
 <path d="M571 1977 c-29 -74 -34 -108 -21 -120 9 -9 11 -9 6 0 -3 6 5 41 18 77 14 36 21 66 15 66 -5 0 -13 -10 -18 -23z"/>
 <path d="M940 1979 c0 -11 5 -41 12 -66 10 -43 10 -47 -12 -63 l-23 -17 22 -32 c20 -27 50 -51 65 -51 11 0 76 63 76 73 0 6 -12 20 -26 32 -24 19 -25 23 -15 65 18 79 18 80 -44 80 -49 0 -55 -2 -55 -21z"/>
 <path d="M1180 1987 c0 -8 13 -58 30 -113 16 -54 37 -139 46 -189 8 -49 17 -92 20 -94 2 -3 10 3 17 11 14 19 244 99 363 127 44 10 99 30 120 44 52 32 94 116 94 184 -1 54 -13 43 -25 -21 -3 -22 -17 -61 -30 -86 -19 -38 -33 -51 -74 -69 -27 -11 -58 -21 -69 -21 -28 0 -212 -57 -277 -86 -60 -26 -83 -25 -49 2 18 15 18 15 -3 5 -12 -6 -31 -23 -42 -37 -24 -30 -27 -25 -34 53 -5 61 -68 303 -79 303 -5 0 -8 -6 -8 -13z"/>
 <path d="M1410 1992 c0 -4 9 -32 20 -62 11 -30 18 -62 15 -70 -5 -13 -4 -13 9 0 13 13 13 22 -7 78 -12 34 -25 62 -29 62 -5 0 -8 -3 -8 -8z"/>
 <path d="M270 1900 c-11 -22 -18 -40 -15 -40 2 0 14 18 25 40 11 22 18 40 15 40 -2 0 -14 -18 -25 -40z"/>
 <path d="M1730 1895 c0 -5 10 -21 21 -35 13 -17 17 -18 10 -5 -17 33 -31 51 -31 40z"/>
 <path d="M1382 1833 c-10 -4 -4 -15 19 -39 18 -19 37 -34 43 -34 5 0 -5 15 -23 34 -23 24 -29 35 -19 39 7 3 9 5 3 5 -5 0 -16 -2 -23 -5z"/>
 <path d="M591 1802 c-19 -15 -32 -32 -30 -38 2 -5 19 7 38 28 40 45 37 48 -8 10z"/>
 <path d="M770 906 c0 -8 4 -17 9 -20 11 -7 33 18 24 27 -12 12 -33 7 -33 -7z"/>
 <path d="M1204 909 c-3 -6 -2 -15 4 -21 13 -13 32 -2 32 18 0 16 -26 19 -36 3z"/>
 <path d="M865 890 c-8 -13 -79 -31 -126 -32 -25 0 -47 6 -59 17 -11 10 -20 13 -20 7 0 -37 100 -55 163 -29 28 12 69 47 54 47 -3 0 -9 -4 -12 -10z"/>
 <path d="M1130 885 c22 -26 73 -45 122 -45 44 0 88 21 88 42 0 6 -9 3 -20 -7 -17 -15 -31 -17 -86 -12 -37 4 -79 14 -93 23 -25 17 -25 17 -11 -1z"/>
 <path d="M474 794 c-11 -43 3 -226 20 -274 21 -56 76 -148 93 -154 7 -3 0 13 -16 35 -16 21 -42 74 -58 117 -25 68 -28 91 -28 189 0 62 -1 113 -2 113 -2 0 -6 -12 -9 -26z"/>
 <path d="M1521 771 c-1 -32 2 -42 10 -34 7 7 7 21 1 44 l-10 34 -1 -44z"/>
 <path d="M1517 643 c-8 -88 -36 -169 -87 -246 l-40 -62 40 45 c42 47 74 119 90 199 16 85 20 131 12 131 -5 0 -12 -30 -15 -67z"/>
 </g>
<g id="layer122" fill="#491b0c" stroke="none">
 <path d="M133 1950 c3 -27 18 -74 33 -105 31 -63 80 -98 153 -109 63 -10 372 -114 392 -132 21 -19 23 -14 39 91 6 39 24 112 40 163 17 51 30 101 30 111 0 11 6 22 13 24 7 3 5 6 -5 6 -10 1 -18 -1 -18 -3 0 -3 -16 -57 -35 -120 -19 -63 -38 -147 -41 -186 l-7 -71 -36 33 c-19 18 -29 25 -22 16 18 -24 4 -23 -63 7 -65 29 -249 85 -278 85 -11 0 -41 9 -67 20 -40 18 -51 29 -74 76 -15 31 -30 76 -34 100 -8 62 -27 57 -20 -6z"/>
 <path d="M571 1977 c-29 -74 -34 -108 -21 -120 9 -9 11 -9 6 0 -3 6 5 41 18 77 14 36 21 66 15 66 -5 0 -13 -10 -18 -23z"/>
 <path d="M940 1981 c0 -10 7 -38 15 -62 16 -44 16 -44 -11 -67 l-26 -23 23 -27 c29 -33 52 -51 62 -52 4 0 24 15 45 34 l37 35 -28 28 c-26 28 -27 32 -17 83 5 29 10 57 10 61 0 5 -25 9 -55 9 -47 0 -55 -3 -55 -19z"/>
 <path d="M1180 1987 c0 -7 15 -64 34 -127 18 -63 37 -140 41 -170 4 -30 12 -66 17 -79 8 -21 10 -22 21 -8 14 18 245 98 363 126 44 10 99 30 120 44 52 32 94 116 94 184 -1 54 -13 43 -25 -21 -3 -22 -17 -61 -30 -86 -19 -38 -33 -51 -74 -69 -27 -11 -58 -21 -69 -21 -28 0 -212 -57 -277 -86 -60 -26 -83 -25 -49 2 18 15 18 15 -3 5 -12 -6 -31 -23 -42 -37 -24 -30 -27 -25 -34 53 -5 61 -68 303 -79 303 -5 0 -8 -6 -8 -13z"/>
 <path d="M1410 1992 c0 -4 9 -32 20 -62 11 -30 18 -62 15 -70 -5 -13 -4 -13 9 0 13 13 13 22 -7 78 -12 34 -25 62 -29 62 -5 0 -8 -3 -8 -8z"/>
 <path d="M270 1900 c-11 -22 -18 -40 -15 -40 2 0 14 18 25 40 11 22 18 40 15 40 -2 0 -14 -18 -25 -40z"/>
 <path d="M1730 1895 c0 -5 10 -21 21 -35 13 -17 17 -18 10 -5 -17 33 -31 51 -31 40z"/>
 <path d="M1382 1833 c-10 -4 -4 -15 19 -39 18 -19 37 -34 43 -34 5 0 -5 15 -23 34 -23 24 -29 35 -19 39 7 3 9 5 3 5 -5 0 -16 -2 -23 -5z"/>
 <path d="M591 1802 c-19 -15 -32 -32 -30 -38 2 -5 19 7 38 28 40 45 37 48 -8 10z"/>
 <path d="M770 906 c0 -8 4 -17 9 -20 11 -7 33 18 24 27 -12 12 -33 7 -33 -7z"/>
 <path d="M1204 909 c-3 -6 -2 -15 4 -21 13 -13 32 -2 32 18 0 16 -26 19 -36 3z"/>
 <path d="M1330 883 c0 -15 -51 -32 -81 -27 -96 16 -95 16 -74 2 31 -19 131 -17 152 4 9 10 14 21 10 24 -4 4 -7 3 -7 -3z"/>
 <path d="M678 859 c16 -18 119 -18 147 -1 19 11 18 12 -5 7 -43 -9 -104 -10 -130 -1 -21 7 -23 6 -12 -5z"/>
 <path d="M474 794 c-11 -43 3 -226 20 -274 21 -56 76 -148 93 -154 7 -3 0 13 -16 35 -16 21 -42 74 -58 117 -25 68 -28 91 -28 189 0 62 -1 113 -2 113 -2 0 -6 -12 -9 -26z"/>
 <path d="M1521 771 c-1 -28 3 -41 8 -35 6 5 6 24 1 44 l-8 35 -1 -44z"/>
 <path d="M1517 642 c-8 -87 -37 -169 -86 -243 -22 -32 -38 -59 -35 -59 15 0 86 111 103 163 23 67 42 195 31 202 -4 3 -10 -26 -13 -63z"/>
 </g>
<g id="layer123" fill="#350d04" stroke="none">
 <path d="M134 1953 c3 -29 17 -77 32 -108 32 -65 71 -92 159 -110 111 -23 361 -108 388 -132 11 -11 17 -12 17 -4 0 17 -29 45 -49 46 -9 1 -59 17 -111 37 -125 47 -230 78 -258 78 -12 0 -41 9 -62 20 -44 22 -83 86 -95 156 -12 64 -27 76 -21 17z"/>
 <path d="M810 1983 c0 -10 -16 -67 -35 -127 -19 -60 -34 -128 -34 -150 l1 -41 9 52 c5 28 22 94 39 146 16 52 30 101 30 110 0 8 6 18 13 20 7 3 5 6 -5 6 -11 1 -18 -6 -18 -16z"/>
 <path d="M940 1981 c0 -10 7 -38 15 -62 16 -44 16 -44 -11 -67 l-26 -23 23 -27 c29 -33 52 -51 62 -52 4 0 24 15 45 34 l37 35 -28 28 c-26 28 -27 32 -17 83 5 29 10 57 10 61 0 5 -25 9 -55 9 -47 0 -55 -3 -55 -19z"/>
 <path d="M1186 1970 c4 -19 18 -71 31 -115 14 -44 32 -114 39 -155 l14 -75 -5 65 c-3 36 -19 112 -36 170 -35 119 -53 165 -43 110z"/>
 <path d="M1410 1995 c1 -6 7 -21 16 -35 l15 -25 -7 25 c-7 26 -24 52 -24 35z"/>
 <path d="M1852 1945 c-7 -33 -22 -78 -35 -100 -24 -42 -86 -85 -126 -85 -30 0 -235 -64 -306 -96 -31 -13 -63 -24 -71 -24 -21 0 -47 -27 -39 -41 5 -7 11 -5 18 4 19 24 355 135 412 137 11 0 40 13 65 29 60 37 102 120 98 189 l-3 47 -13 -60z"/>
 <path d="M772 904 c4 -21 22 -23 26 -1 2 10 -3 17 -13 17 -10 0 -15 -6 -13 -16z"/>
 <path d="M1212 906 c1 -10 8 -17 13 -17 15 1 12 24 -3 29 -9 3 -13 -2 -10 -12z"/>
 <path d="M1330 883 c0 -6 -13 -15 -28 -21 -28 -10 -45 -9 -112 3 -31 6 -33 5 -15 -6 31 -20 131 -18 152 3 9 10 14 21 10 24 -4 4 -7 3 -7 -3z"/>
 <path d="M678 859 c16 -18 119 -18 147 -1 19 11 18 12 -5 7 -43 -9 -104 -10 -130 -1 -21 7 -23 6 -12 -5z"/>
 <path d="M1506 554 c-4 -14 -5 -28 -3 -31 3 -2 8 8 11 23 4 14 5 28 3 31 -3 2 -8 -8 -11 -23z"/>
 <path d="M511 478 c23 -46 64 -108 71 -108 4 0 -9 23 -28 51 -19 28 -34 57 -34 65 0 8 -5 14 -10 14 -7 0 -7 -8 1 -22z"/>
 </g>
<g id="layer124" fill="#0c0a0a" stroke="none">
 <path d="M940 1981 c0 -10 7 -38 15 -62 16 -44 16 -44 -11 -67 l-26 -23 23 -27 c29 -33 52 -51 62 -52 4 0 24 15 45 34 l37 35 -28 28 c-26 28 -27 32 -17 83 5 29 10 57 10 61 0 5 -25 9 -55 9 -47 0 -55 -3 -55 -19z"/>
 <path d="M776 912 c-3 -6 -1 -14 5 -17 15 -10 25 3 12 16 -7 7 -13 7 -17 1z"/>
 <path d="M1215 909 c-10 -15 3 -25 16 -12 7 7 7 13 1 17 -6 3 -14 1 -17 -5z"/>
 <path d="M1330 883 c0 -26 -63 -34 -142 -19 -29 6 -31 5 -13 -6 31 -19 131 -17 152 4 9 10 14 21 10 24 -4 4 -7 3 -7 -3z"/>
 <path d="M678 859 c16 -18 119 -18 147 -1 19 11 18 12 -5 7 -43 -9 -104 -10 -130 -1 -21 7 -23 6 -12 -5z"/>
 </g>

</svg>