<?xml version="1.0" encoding="UTF-8" standalone="no"?>
<svg xmlns:rdf="http://www.w3.org/1999/02/22-rdf-syntax-ns#" xmlns="http://www.w3.org/2000/svg" height="200" viewBox="0 0 200 200" width="200" version="1.1" xmlns:cc="http://creativecommons.org/ns#" xmlns:dc="http://purl.org/dc/elements/1.1/">
 <path d="m17.3 196c.898-6.55 4.51-15.4 7.85-19.2 4.08-4.65 11.9-8.2 20.8-9.46 12.5-1.75 14.2-2.11 13.6-2.73-.328-.328 1.53-2.03 4.14-3.79 3.39-2.29 5.6-4.87 7.77-9.09 1.81-3.51 4.09-6.4 5.63-7.14 3.86-1.85 2.56-5.95-3.65-11.5-3.8-3.4-6.1-4.64-9.61-5.16-10.4-1.55-19-9.64-20.5-19.3-.351-2.32-1.3-4.76-2.1-5.43-4.5-4-6.4-13.3-6.3-31.5.0129-3.3.0077-7.35-.0115-9-.2-10.9 0-11.7 3.1-16.1 2-3 3.1-5.7 3.1-8 0-4.72 3.23-10.8 7.23-13.5 1.8-1.24 4.42-3.45 5.82-4.92s4.78-3.51 7.5-4.53 5.9-2.84 7.05-4.05c1.17-1.22 4.04-2.52 6.5-2.93 2.4-.41 5.5-1.53 6.9-2.49 4.1-2.89 6.7-3.25 10.4-1.49 2.6 1.24 3.9 1.38 5.5.56 3.1-1.48 11.1-1.34 18.1.28 7.26 1.94 12.9 5.08 18.2 10.2 2.78 2.66 6.3 4.92 8.65 5.56 4.51 1.21 9.65 5.82 9.65 8.65 0 1.04 1.8 4.31 3.99 7.25 7.99 10.7 10.4 19.3 8.11 28.5-1.02 4.03-0.9 5 1.05 8.77 3.23 6.25 3.08 13.3-.412 18.5-1.55 2.34-2.75 5.54-2.75 7.33 0 2.36-.967 4.11-3.75 6.81-2.06 2-4.63 5.34-5.7 7.42-2.62 5.08-6.5 8.18-16 12.8-10 5-17 11-17 14 0 1.29 1.05 2.58 2.75 3.39 1.78.845 3.71 3.31 5.47 7.01 2.06 4.32 3.94 6.52 7.75 9.09 2.77 1.86 4.76 3.66 4.43 3.98-.329.329.911.827 2.75 1.11 21.7 3.29 27.3 5.38 32.4 12.1 3.18 4.17 6.02 11.4 6.98 17.8v4h-166zm67.7-111c0-.55-.702-1-1.56-1-.857 0-1.28.45-.941 1 .340.55 1.04 1 1.56 1 .5 0 .9-.4.9-1zm43.1-.5c-.007-.55-.929-1.14-2.05-1.32-1.52-.239-1.88.0875-1.41 1.3.656 1.71 3.48 1.73 3.46.0198z" fill="#d4c5b7"/>
 <path d="m17.5 195c2.56-17.1 11.8-25.8 30-28.2 10.1-1.37 12.9-1.98 12.2-2.68-.310-.310 1.55-1.98 4.13-3.7 3.27-2.18 5.52-4.77 7.41-8.49 3.5-7 4.6-8 7-8 1.72 0 1.91-.452 1.36-3.25-.691-3.5-9.8-12.6-12.7-12.7-.863-.0238-3.93-.744-6.81-1.6-8.5-2-16.1-10-16.1-17 0-1-1.7-5-3.7-8-3.4-4.6-3.8-5.9-4.6-14.8-.5-5.3-.9-12-.8-14.7.0170-2.75.0387-8.39.0481-12.5.0153-6.72.344-8.02 3.04-12 1.82-2.69 3.03-5.76 3.04-7.74 0.01-1.81.637-4.76 1.39-6.57 1.82-4.36 15.5-16.3 20.2-17.5 2.02-.558 4.71-1.99 5.97-3.17 1.26-1.19 4.35-2.54 6.86-3.01 2.4-.56 5.8-1.91 7.4-3.09 2.3-1.71 3.7-2.01 6.8-1.49 4.9.85 6.7.86 13.3.03 10-1.35 22 3.27 31 11.6 3 2.8 6 5 7 5 4 0 11 6.1 11 10.5 0 .747 1.61 3.29 3.58 5.64 1.97 2.36 4.75 6.56 6.18 9.34 2.62 5.09 2.75 6.43 2.13 22.1-.0648 1.65.857 5.64 2.05 8.87 2.46 6.67 2.16 9.74-1.51 15.1-1 2-2 4.9-2 7 0 2.89-.836 4.36-4.5 7.92-2.48 2.41-4.5 5-4.5 5.77 0 2.51-9.36 10.2-16.5 13.6-14.1 6.65-20.8 15.2-13.8 17.6 1.85.652 3.63 2.79 5.75 6.94 2.25 4.39 4.35 6.86 7.85 9.2 2.63 1.76 4.66 3.54 4.5 3.97-.157.423 3.99 1.34 9.21 2.04 11.3 1.51 17.1 3.34 21.7 6.84 4.8 3.66 9.15 12.8 10.8 22.7l.630 3.75h-166zm85.5-70c-1.51-.229-3.99-.229-5.5 0s-.275.417 2.75.417 4.26-.187 2.75-.417zm-14.3-38.2c-.319-.798-.556-.561-.604.604-.0434 1.05.193 1.64.525 1.31.332-.332.368-1.19.0790-1.92zm23 0c-.319-.798-.556-.561-.604.604-.0434 1.05.193 1.64.525 1.31.332-.332.368-1.19.0789-1.92zm-26-1.7c0-.4-1.1-1.3-2.5-1.9-2.8-1.3-3.3-.1-.9 2.2 1.5 1.5 3.4 1.4 3.4-.3zm42.5-.685c0-1.23-.810-2.03-2.25-2.24-2.48-.352-3.04 1.63-1.04 3.63 1.64 1.64 3.29.944 3.29-1.4zm3.5.524c0-.5 0-.9-1-.9-.55 0-1 .702-1 1.56 0 .857.45 1.28 1 .941.55-.340 1-1.04 1-1.56zm-62 .1c0-.55-.45-1-1-1s-1 .45-1 1 .45 1 1 1 1-.45 1-1z" fill="#c3aa92"/>
 <path d="m17.5 195c2.64-17.6 11.9-25.9 31.8-28.5 5.37-0.7 9.85-1.72 9.95-2.27.101-.55 2.05-2.18 4.33-3.63 4.43-2.81 7.73-6.81 8.94-10.9 1.03-3.43 3.46-6 5.67-6 1.3 0 1.8-1 1.8-3 0-4-10-13-15.4-14-11.5-1-20.6-10-20.6-19 0-1-.7-3-1.6-4-4.5-4-7.8-17.7-7.6-32.5.0302-2.2.0714-7.63.0916-12.1.0331-7.29.328-8.5 3.04-12.5 1.65-2.44 3.01-5.66 3.02-7.16s.728-4.5 1.6-6.67c2.1-5.2 14-15.8 19.8-17.5 2.4-.7 5.5-2.5 6.9-3.9 1.9-1.85 3.7-2.6 6.3-2.6 2.4 0 4.6-.83 6.6-2.5 3.1-2.61 7.5-3.24 10.8-1.51 1.23.657 3.7.612 7.41-.134 10.8-2.17 25.2 2.79 33.7 11.6 2.41 2.49 4.93 4.54 5.61 4.55.676.0091 3.06.747 5.29 1.64 4.08 1.63 6.98 5.43 6.98 9.15 0 1.03 1.15 2.96 2.56 4.28 7.21 6.77 11.1 18.6 9.41 28.1-.971 5.35-.865 6.48.974 10.4 2.91 6.19 2.74 13.1-.438 17.8-1.43 2.11-2.5 5.11-2.5 7.03 0 2.62-.974 4.33-4.5 7.91-2.48 2.51-4.5 5.03-4.5 5.61 0 2.73-8.01 9.54-15.9 13.5-15.9 8.04-21.2 15-13.8 18.5 2.21 1.05 3.56 2.68 4.49 5.43 1.61 4.77 3.55 7.06 8.86 10.5 2.23 1.43 4.03 3.03 4 3.57-.0284.532 4.19 1.53 9.37 2.23 5.18.694 11 1.79 13 2.43 9.59 3.12 15.6 10.6 18.5 23 .831 3.53 1.52 6.75 1.53 7.16.008.412-37.4.75-83.1.75h-83.2zm85.3-70c-1.5-.228-4.2-.233-6-.0102s-.568.409 2.73.415 4.77-.176 3.27-.405zm39.2-6.94 2.5-2.84-3.5 2.99c-5.54 4.74-5.6 4.81-3.5 3.72 1.1-.567 3.12-2.31 4.5-3.87zm-86.7-3c-.4-1-1.3-4-1.9-7-1-4-1.2-5-1.3-2s2.2 10 3.4 10c.336 0 .258-.562-.172-1.25zm33.4-28.2c-.319-.798-.556-.561-.604.604-.0434 1.05.193 1.64.525 1.31.332-.332.368-1.19.0790-1.92zm23 0c-.319-.798-.556-.561-.604.604-.0434 1.05.193 1.64.525 1.31.332-.332.368-1.19.0789-1.92zm-26.4-2.6c-.8-1.3-4.6-2.3-4.6-1.2 0 1.72 3.26 4.12 4.25 3.13.537-.537.708-1.41.380-1.94zm42.4.2c0-1.23-.810-2.03-2.25-2.24-2.48-.352-3.04 1.63-1.04 3.63 1.64 1.64 3.29.944 3.29-1.4zm3.5.524c0-.5 0-.9-1-.9-.55 0-1 .702-1 1.56 0 .857.45 1.28 1 .941.55-.340 1-1.04 1-1.56zm-62 .1c0-.55-.45-1-1-1s-1 .45-1 1 .45 1 1 1 1-.45 1-1zm89-20.7c-1-1-1-.5-1 1.2-.0204 1.65.187 2.45.461 1.77.274-.677.291-2.03.0371-3zm-24-12.9c-.332-.332-1.19-.368-1.92-.0790-.798.319-.561.556.604.604 1.05.0434 1.64-.193 1.31-.525zm-3.81-.715c-2-1.2-8-4.5-8-4.2 0 .669 6.29 4.44 7.42 4.45.504.0021.729-.140.5-.316zm-83.3-9.9c-.2-1.3-.4-.3-.4 2.2 0 2.48.195 3.49.433 2.25s.238-3.26 0-4.5zm.977-4.94c-.319-.798-.556-.561-.604.604-.0434 1.05.193 1.64.525 1.31.332-.332.368-1.19.0790-1.92zm83.3-2.2c0-.190-1.01-1.2-2.25-2.25l-2-1.9 1.9 2.25c1 2.1 2 2.7 2 1.9zm-37.6-22.7c.537 0 .706-.270.376-.599-.709-.709-10.3 4.34-11.9 6.27-.609.733 1.51-.242 4.71-2.17 3.2-1.9 6.2-3.5 6.8-3.5zm4.3-1.6c-.3-.34-1.2-.37-1.9-.08-.798.319-.561.556.604.604 1.05.0434 1.64-.193 1.31-.525z" fill="#b4a08e"/>
 <path d="m17 198c-.0017-.962.969-5.03 2.16-9.04 1.53-5.17 3.31-8.59 6.12-11.8 5.97-6.79 12.3-9.36 27.2-11 4.14-.464 6.65-1.33 8.09-2.78 1.15-1.16 3.76-3.38 5.8-4.94 2.27-1.73 4.63-4.92 6.09-8.21 1.76-3.97 3.05-5.55 4.95-6.03 2 0 2.6-1 2.6-3 0-4-10.1-13-15.3-14-11.5-1-20.7-10-20.7-19 0-1-.7-3-1.6-4-4.5-4-7.8-17.9-7.5-32.5.0402-2.2.0873-7.64.105-12.1.0284-7.3.322-8.52 3.02-12.5 1.64-2.43 3-5.64 3.01-7.14.0386-5.79 3.1-10.7 10.8-17.3 4.65-3.98 8.8-6.69 10.8-7.08 1.82-.341 4.67-1.92 6.34-3.52 2.3-2.11 4.1-2.9 6.7-2.9 2.4 0 4.6-.84 6.6-2.5 3.3-2.78 8.3-3.31 11.2-1.18 1.51 1.1 2.55 1.08 6.25-.138 9.08-2.99 25.6 2.36 34.5 11.2 2.63 2.61 5.99 4.77 8.57 5.51 5.01 1.44 7.89 4.23 8.83 8.53.372 1.71 1.94 4.56 3.48 6.33 7.64 8.74 10.6 18.2 8.84 27.9-.912 4.93-.784 6.24 1.03 10.5 2.86 6.65 2.71 12.7-.428 17.4-1.38 2.03-2.5 4.77-2.5 6.09 0 3.46-1.95 7.24-4.64 9-1.28.841-3.21 3.25-4.29 5.36-2.69 5.27-7.75 9.45-17.1 14.2-10 6-16 11-16 15 0 2.15.582 2.92 2.57 3.42 1.9.477 3.19 2.05 4.95 6.03 1.46 3.3 3.82 6.48 6.09 8.21 2.04 1.56 4.65 3.78 5.8 4.93 1.56 1.56 4.27 2.38 10.6 3.19 21.3 2.72 28.3 9.15 32.5 30l.649 3.25h-83.1c-78.5 0-83.1-.0974-83.1-1.75zm86-73c-1.79-.222-4.71-.222-6.5 0s-.325.403 3.25.403 5.04-.182 3.25-.403zm40.5-8.55c1.39-2.07 2.34-3.89 2.12-4.04-.218-.147-2.87 2.41-5.9 5.68-4.97 5.38-5.18 5.76-2.12 4.04 1.86-1.05 4.51-3.61 5.9-5.68zm-87.3-1.04c-1.33-2.37-2.82-6.76-3.31-9.75l-1.2-5-.117 4.8c-.115 4.71 1.59 9.45 4.66 13 2.37 2.7 2.29 2.12-.327-2.56zm32-28.2c-.319-.798-.556-.561-.604.604-.0434 1.05.193 1.64.525 1.31.332-.332.368-1.19.0790-1.92zm23 0c-.319-.798-.556-.561-.604.604-.0434 1.05.193 1.64.525 1.31.332-.332.368-1.19.0789-1.92zm-42-2c0-2.33-0.3-2.9-1.1-2.1-.605.605-.799 2.04-.433 3.2.9 3 1.5 2.6 1.5-1.1zm61.2-2.03c-.890-.890-1.15-.347-1.1 2.28.0636 3.24.135 3.31 1.17 1.17.813-1.69.795-2.59-.0677-3.45zm-45 2.7c0-1.5-3.78-4.09-4.67-3.2-.272.272.0069 1.43.621 2.58 1.2 2.4 4 2.8 4 .6zm42.5-1.62c0-1.74-.626-2.51-2.25-2.74-1.64-.234-2.25.183-2.25 1.55 0 2.19 1.98 4.44 3.46 3.95.571-.190 1.04-1.43 1.04-2.76zm30-12.1c-.277-.688-.504-.125-.504 1.25s.227 1.94.504 1.25c.277-.688.277-1.81 0-2.5zm-102 0c-.319-.798-.556-.561-.604.604-.0434 1.05.193 1.64.525 1.31.332-.332.368-1.19.0790-1.92zm102-15.4c-2.07-7.11-2.79-6.62-.918.616.780 3.01 1.5 7.28 1.59 9.5l.175 4.03.385-4.29c.212-2.36-.344-6.8-1.23-9.86zm-99.4-1.2c-.539-.539-2.59 9.44-2.48 12.1.0517 1.21.714-.924 1.47-4.74.758-3.82 1.21-7.11 1-7.32zm77.4-3.7c-7.4-1.61-9.27-2.55-14.6-7.33-2.91-2.62-3.74-3.04-2.9-1.46 2.78 5.22 12.9 10.2 20.6 10.1 1.79-.0072.520-.551-3.17-1.35zm-87.6-5.3c-.287-2.66.106-7.05.891-9.96.772-2.87 1.04-4.99.597-4.71-2.15 1.33-3.58 12.2-2.25 17.2.982 3.66 1.31 2.58.762-2.5zm89.6-9.7c0-.261-1.46-1.22-3.25-2.13-1.79-.908-5.95-4.22-9.25-7.36s-7.07-6.28-8.38-6.98c-1.31-.698.857 1.82 4.81 5.59 7 6.8 16 12.9 16 10.9zm-44.5-24.9c2.2-.9 6-2.05 8.5-2.58l4-.97-5 .45c-6.5.54-14.5 4.3-18.5 8.6l-3 3.3 5-3.6c2.76-1.98 6.81-4.32 9-5.19z" fill="#b59472"/>
 <path d="m17.4 196c1.49-8.31 4.12-14.6 7.89-18.9 5.91-6.72 12.3-9.29 27.2-11 4.14-.464 6.65-1.33 8.09-2.78 1.15-1.16 3.76-3.38 5.8-4.94 2.27-1.73 4.63-4.92 6.09-8.21 1.76-3.97 3.05-5.55 4.95-6.03 2 0 2.6-1 2.6-3 0-2.17-1.32-3.97-5.75-7.88-3.16-2.79-6.61-5.08-7.67-5.08-1.05-.008-1.66-.274-1.34-.592.318-.318-.797-3.52-2.48-7.11-3.01-6.43-3.04-6.7-2.39-17.7.3-6.5.9-13.1 1.2-15 .4-3 .3-3.2-.7-1.5-1.7 2.9-10.2 11.5-11.3 11.5-.5 0 0-1 1.1-2.2 5.9-6.7 9.7-17.1 11.7-32.6 1.6-12 3.4-17.1 7.4-20.2 3-2.4 8.9-2.6 12-.4 2.2 1.5 2.2 1.5 2.2-2.6 0-5.9 1.4-8 5.3-8 5.94 0 10.9 6.61 14.2 19 2.64 9.77 7.08 18.5 11.1 21.8 5.77 4.76 13.7 6.33 21.4 4.25 2.5-.671 3.05-.639 1.95.111-1.32 0.9-1.07 1.52 1.75 4.34 3 3 3 4 3 8.8 0 8.49-2.02 15.1-10.6 34.6l-1.46 3.31 6.14-3.31c6.88-3.71 15.8-11.2 14.7-12.4-.399-.407-1.52-.127-2.5.624-.976.751 1.03-1.32 4.46-4.61 3.85-3.69 6.48-7.12 6.89-8.97l.658-3-2.84 2.5c-1.75 1.54-1.25.649 1.29-2.32 5.26-6.13 6.74-12.1 5-20.2-.610-2.84-.560-2.81.917.497 2.04 4.57 1.33 12.2-1.5 16-2 1.5-3 4.2-3 6 0 2.33-1.01 4.17-3.88 7.03-2.13 2.13-4.43 5.22-5.12 6.87-1.8 4.35-8.2 9.71-16.1 13.5-3.8 1.82-9.15 5.02-11.9 7.12-4.15 3.17-5 4.35-5 7 0 2.59.483 3.31 2.57 3.83 1.9.477 3.19 2.05 4.95 6.03 1.46 3.3 3.82 6.48 6.09 8.21 2.04 1.56 4.65 3.78 5.8 4.94 1.44 1.46 3.95 2.32 8.09 2.78 18.4 2.06 26.1 6.32 31.1 17.1 1.27 2.75 2.71 7.59 3.2 10.8l.896 5.75h-166zm88.5-70.9c.229-.196-2.47-.303-6-.238-4.91.0906-5.71.288-3.42.842 2.71.654 8.37.291 9.42-.604zm-17.3-38.2c-.319-.798-.556-.561-.604.604-.0434 1.05.193 1.64.525 1.31.332-.332.368-1.19.0790-1.92zm23 0c-.319-.798-.556-.561-.604.604-.0434 1.05.193 1.64.525 1.31.332-.332.368-1.19.0789-1.92zm-42-2c0-2.33-0.3-2.9-1.1-2.1-.605.605-.799 2.04-.433 3.2.9 3 1.5 2.6 1.5-1.1zm61.2-2.03c-.890-.890-1.15-.347-1.1 2.28.0636 3.24.135 3.31 1.17 1.17.813-1.69.795-2.59-.0677-3.45zm-45.3 2.59c-.371-1.89-3.42-4.1-4.36-3.16-.346.346-.127 1.57.487 2.71 1.33 2.48 4.34 2.83 3.87.443zm42.3-1.5c0-1.89-.596-2.49-2.75-2.73-3.15-.363-3.41.436-1.16 3.65 1.96 2.79 3.91 2.34 3.91-.913zm-72 40.7c-2.2-2-5.5-4-6.7-5-2.7-3-5.3-9-5.3-12 0-1.36-.445-2.75-.988-3.08-.543-.336-2.17-2.62-3.61-5.08-2.1-3.9-2.8-7-3.6-15.1-.6-5.6-1-11.8-.9-13.7.0427-1.92.0990-6.65.125-10.5.0545-8.05 1.26-12.5 4.05-15 1.08-.977 1.96-2.94 1.97-4.37.0119-5.53 2.24-10.6 6.35-14.4 2.2-2.1 5.2-4.8 6.6-6.1 2.83-2.65 8.25-5.59 10.2-5.53.715.0215-.0503.628-1.7 1.35-1.65.720-4.69 3.18-6.75 5.46s-3.75 3.63-3.75 3c0-1.84-3.97 2.25-6.7 6.9-1.61 2.74-2.69 6.46-3.06 10.5-.386 4.26-.797 5.6-1.3 4.25-.644-1.72-.944-1.5-2.34 1.75-2.2 5.1-2.04 13 .377 18.1 1.87 3.96 1.87 4.07.0897 1.95-1.1-1.4-2.2-2.4-2.5-2.4-.310 0-.306 3.26.0101 7.25s.577 8.26.581 9.49c.0035 1.23.453 1.97 1 1.63.656-.405.660.0224.0128 1.26-1.44 2.75 1.26 12.1 4.76 16.5 1.87 2.33 2.71 4.33 2.37 5.63-1.16 4.43 6.78 13.6 15 17.3 2.28 1.03 3.46 1.88 2.64 1.89-.825.007-3.75-1.05-6.5-2.35zm89-18c0-.355 2.05-3.25 4.55-6.43s5.2-7.04 5.99-8.56c.797-1.53 1.45-2.19 1.45-1.48.0114 2.4-3.22 7.66-7.63 12.4-2 3-4 5-4 4zm-100-17.5c.362-1.1 1.29-5.82 2.06-10.5 3.98-24.1 5.68-29.6 11.2-36.1 3.26-3.87 11.3-7.91 15.5-7.77 2.99.0998 2.89.186-1.13.976-12.7 2.5-17.2 10.2-22.5 39.3-0.9 4.88-2.55 10.5-3.66 12.5-1.2 2-1.8 2.7-1.5 1.6zm104-1.3c4.79-9.31 6.14-20 3.38-26.8-1.36-3.37-1.37-3.66-.0785-1.99 4.34 5.64 4.34 17.7.00009 25.1-1 2.5-2 4.5-3 4.5-.298 0-.367-.338-.155-.75zm13-14.7c-.035-.55.317-1.6.782-2.33.677-1.07.971-1.01 1.47.302.345 0.9.221 1.38-.275 1.08-.497-.307-1.13.0071-1.41.698-1 .7-1 .8-1 .3zm2-12.6c0-5.4-2-11.3-4-16.9-2.11-4.37-4.86-7.97-5.89-7.73-.552.127-1.61-1.49-2.35-3.58-1.6-4.52-3.97-7.34-7.92-9.38-2.17-1.12-3.07-1.2-3.62-.309-.477.772-1.5-.0682-2.96-2.42-7-11-29-17.4-40.9-11.8-5.5 2.7-6.4 2.7-3.1.24l2.5-1.91-2.7-1.01c-3.1-1.2-8.1-.05-11.2 2.6-2 1.68-2 1.68-.7-.04 3.3-4.21 10.1-5.9 13-3.24 1.39 1.26 2.21 1.24 6.41-.146 9.42-3.1 24.3 1.54 33.9 10.5 3.01 2.83 6.62 5.22 8.5 5.62 4.52.971 8.94 4.96 9.78 8.81.386 1.77 1.9 4.6 3.37 6.28 6.87 7.86 10.6 18.6 9.13 25.9-.820 3.99-.823 3.99-.937-1.62zm-37-.3c-9-3.3-13-7.2-18-18.8-4-12.5-14.7-18.2-22.8-13.1-2.54 1.62-2.63 1.62-1.36.0171 1.42-1.8 7.45-3.88 9.47-3.27.646.196 2.4.626 3.91.954 4.31.944 9.83 6.52 12.9 13.1 1.56 3.3 2.84 6.6 2.84 7.32.002 2.74 10.4 11.7 15.5 13.4 2.75.907 4.1 1.66 3 1.67-1.1.0098-3.63-.564-5.62-1.27zm-.530-18.6c-3.79-2.17-6.34-4.75-9.68-9.78-5.36-8.06-6.95-9.58-11.8-11.3-4.46-1.57-13.2.0153-17.2 3.11-2.68 2.11-4.14 2.54-3.14.923.346-.560 2.83-2.14 5.53-3.5 4.1-1.8 6.8-2.4 11.3-2.4 5.81 0 6.86.322 9.95 3.03 1.9 1.67 4.92 5.38 6.71 8.25 5.63 9.01 9.24 12 16.4 13.8l3 .730-3 .0930c-1.65.0511-5.32-1.24-8.15-2.86zm-73.3-2c1.49-11.4 8.49-16 19.5-13 2.04.567 3.98 1.46 4.31 1.99.367.593-.408.579-2.03-.0370-3.8-1.5-10.2-1.2-13.5.5-3.2 1.7-4.6 3.7-7.2 10.5l-1.7 4.5zm99.4-.583c.048-1.16.285-1.4.604-.604.289.722.253 1.58-.0789 1.92-.332.332-.569-.258-.525-1.31zm-73-10.1c-.0118-2.23 7.25-9.35 11.9-11.7 12.5-6.28 29.1-5.79 39 1.15 3.98 2.8 3.67 2.74-3.45-.748-4.37-2.14-6.31-2.44-15.5-2.39-8.34.0483-11.6.511-16.1 2.25-6.6 2.6-11.6 6.11-14.1 9.92-1 1.52-1.83 2.21-1.83 1.52zm-3-9.6c-.0328-2.6 2.63-7.35 4.52-8.08 3.14-1.2 3.7-.599 1.24 1.34-1.37 1.08-3.22 3.44-4.11 5.25-1.03 2.09-1.63 2.63-1.64 1.49zm-9.5-2.04c.805-4.05 4.43-7.53 8.49-8.15 3.48-.532 3.49-.529.793.756-3.4 1.63-7.74 5.62-8.93 8.23-.724 1.59-.797 1.41-.349-.838z" fill="#a78059"/>
 <path d="m17.5 196c1.42-8.32 4.01-14.6 7.79-18.9 5.91-6.72 12.3-9.29 27.2-11 4.14-.464 6.65-1.33 8.09-2.78 1.15-1.16 3.76-3.38 5.8-4.94 2.27-1.73 4.63-4.92 6.09-8.21 1.76-3.97 3.05-5.55 4.95-6.03 1.9 0 2.5-1 2.5-3 0-2.21-1.33-3.97-6.14-8.14-3.38-2.93-6.53-5.21-7-5.07-.473.138-.764-.0875-.647-.5s-.427-1.88-1.21-3.25c-1.01-1.77-1.59-7.68-2.01-20.2-.4-10-1-18.2-1.4-18.6s-.7-.3-.7.3c0 1.5-8.9 11.3-10.2 11.3-.6 0 .5-1.6 2.5-3.5 6.2-6 8.8-12.7 11.6-30.3 2.2-13.4 3.1-16.2 6.2-19.1 2.5-2.3 7.7-2.8 11-1.1 1.7 1 1.9.7 1.9-3 0-5.9 1.4-8 5.4-8 5.65 0 8.24 4.48 12.5 21.6 3.68 14.8 4.25 16.2 7.77 19.5 4.15 3.91 7.84 4.97 17.1 4.91 7.7-.0529 8.35.106 9.87 2.43 3.7 5.65 2.45 22.8-2.85 39.2-1.2 3.71-2.2 7.2-2.22 7.75-.0204.55-2.62 3.01-5.79 5.46-4.86 3.77-5.75 4.95-5.75 7.64 0 2.59.483 3.3 2.57 3.83 1.9.477 3.19 2.05 4.95 6.03 1.46 3.3 3.82 6.48 6.09 8.21 2.04 1.56 4.65 3.78 5.8 4.94 1.44 1.46 3.95 2.32 8.09 2.78 18.4 2.06 26.1 6.32 31.1 17.1 1.27 2.75 2.71 7.59 3.2 10.8l.896 5.75h-166zm88.4-70.9c.229-.196-2.47-.303-6-.238-4.91.0906-5.71.288-3.42.842 2.71.654 8.37.291 9.42-.604zm-17.3-38.2c-.319-.798-.556-.561-.604.604-.0434 1.05.193 1.64.525 1.31.332-.332.368-1.19.0790-1.92zm23 0c-.319-.798-.556-.561-.604.604-.0434 1.05.193 1.64.525 1.31.332-.332.368-1.19.0789-1.92zm-42-2c0-2.33-0.3-2.9-1.1-2.1-.605.605-.799 2.04-.433 3.2.9 3 1.5 2.6 1.5-1.1zm61.2-2.03c-.890-.890-1.15-.347-1.1 2.28.0636 3.24.135 3.31 1.17 1.17.813-1.69.795-2.59-.0677-3.45zm-45.3 2.59c-.371-1.89-3.42-4.1-4.36-3.16-.346.346-.127 1.57.487 2.71 1.33 2.48 4.34 2.83 3.87.443zm42.3-1.5c0-1.89-.596-2.49-2.75-2.73-3.15-.363-3.41.436-1.16 3.65 1.96 2.79 3.91 2.34 3.91-.913zm12 39c4.4-2.81 8.15-5.51 8.33-6 .183-.489.830-.890 1.44-.890 2.19 0-4.61 5.9-10.3 8.92-8.71 4.64-8.48 3.71 0.5-2.03zm-84 1.73c-5.82-2.75-8.8-5.69-11-10.9-2.46-5.9-1.79-6.65.975-1.1 2.99 6 4.36 7.34 11.5 11.3 6.48 3.57 5.5 3.99-1.56.657zm92.5-12c0-.220 1.8-1.65 4-3.17 5-3 9-9 9-11.5 0-1.53-.227-1.58-1.75-.382-.962.755-.335-.276 1.39-2.29 4.08-4.75 5.73-9.93 5.03-15.7-.460-3.78-.375-4.17.464-2.13 1.51 3.68.491 11.3-1.98 14.8-1 1.6-2 4.5-2 6.2 0 2.42-.993 4.21-4 7.21-2.2 2.2-4 4.47-4 5.05 0 .577-.284.765-.631.418s-1.47-.181-2.5.369-1.87.820-1.87.601zm-105-9c-1.5-2-3.4-4.6-4.3-6.3-1.5-3-3.3-18.8-3.1-27.7.0809-3.7.248-3.26.944 2.5.465 3.85.860 9.1.878 11.7.0437 6.35 2.1 12.7 5.9 18.2 3.66 5.32 3.48 6.07-.359 1.51zm104 1c4-5.6 9-12 9-11.2 0 1.36-5.3 8.4-8.09 10.7-1.31 1.1-1.89 1.32-1.3.5zm-101-18c.267-1.38 1.56-8.98 2.86-16.9 2.99-18.1 6.49-25.9 13.9-30.8 2.67-1.79 5.37-3.23 5.99-3.21.625.0243-.509.914-2.52 1.98-8.33 4.4-11.8 11.8-15.9 33.9-1.16 6.29-2.73 12.8-3.49 14.5-1.2 2.5-1.3 2.6-.9.5zm105-4.5c1.55-3.53 2.2-7.06 2.23-12 .0385-6.5.104-6.71.922-2.92 1.1 5.07-.620 13.9-3.37 17.4-1.81 2.3-1.8 2.1.218-2.5zm-114-17.5c-.349-.564-.879-3.4-1.18-6.31-.430-4.17-.0956-6.16 1.6-9.47 1.2-2.3 2.4-4.2 2.6-4.2.278 0-.227 1.42-1.12 3.15-1.2 2.32-1.53 5.08-1.26 10.5.3 4.1.3 7.4.2 7.4s-.5-.5-.8-1zm126-4.1c0-7.2-2-14.2-6-20.4-1.94-3.16-2.27-4.08-.890-2.5 1.2 1.38 3.48 5.27 5.08 8.65 2.51 5.31 2.85 7.09 2.55 13-.339 6.6-.359 6.65-.548 1.28zm-41-1.8c-5.75-2.67-10.1-7.74-13-15.1-3.59-9.16-6.71-13.4-11.7-15.8-2.38-1.18-3.75-2.14-3.04-2.14 2.89-.0018 9.41 4.3 12.1 7.96 1.55 2.15 3.8 6.56 4.98 9.82 2.48 6.81 7.64 12.6 13.6 15.3 2.24 1.02 3.41 1.85 2.58 1.85-.825 0-3.3-.835-5.5-1.86zm-80.7-17.6c.0111-2.2.216-2.98.455-1.74s.230 3.04-.0202 4c-.3.9-.5-.1-.4-2.3zm86.7 1.6c-5-1.9-11-8-13-12.8-5-9.2-15.2-12.7-24.8-8.3-2.3 1-4.2 1.7-4.2 1.4 0-1.52 9.16-4.36 14.1-4.38 7.26-.0284 11 2.46 16.6 10.9 5.69 8.65 8.86 11.8 13.7 13.5 2.25.799 3.42 1.48 2.59 1.51-.825.0313-3.3-.763-5.5-1.76zm23.6-3.72c.048-1.16.285-1.4.604-.604.289.722.253 1.58-.0789 1.92-.332.332-.569-.258-.525-1.31zm-100-.9c.009-1.08 1.03-3.75 2.26-5.92 2.91-5.14 7.91-7.23 14-5.85l4.2.9h-5.3c-6.4 0-9.8 2.2-13 8.4-1.3 2.7-2.2 3.7-2.2 2.5zm-9.9-3c-.0590-2.76 3.24-7.91 6.49-10.1 1.49-1.02 3.89-3.04 5.33-4.49 2.4-2.5 8.1-5.9 9.7-5.9.410 0-1.34 1.32-3.89 2.94s-5.32 4.2-6.16 5.75c-.839 1.55-1.54 2.17-1.57 1.39 0-2.3-4.9 2.8-7.6 7.9-1.57 3-2.37 3.83-2.4 2.5zm109-1.5c0-3.11-2.7-7.22-6.41-9.76-4-2.4-6-2.8-6-1 0 .6-1-.8-3-3.1-8-10.7-27-16.8-38.8-12.3-3.8 1.47-5 1.65-4.2.64 1-1.13.7-1.6-1.3-2.37-3-1.15-8 .05-11.1 2.65-2 1.68-2 1.68-.7-.04 3.4-4.26 10.7-6.03 13.1-3.13.744.897 1.95 1.26 2.87.875 11-4.63 28.8.234 38.4 10.5 2.52 2.7 4.81 4.68 5.08 4.41.942-.942 7.34 1.78 9.38 3.99 2.41 2.61 4.51 9.44 3.16 10.3-1 .3-1-.5-1-1.6zm-68.5-10.9c6.8-7.2 22.5-11.4 33.5-9.1 6 1.1 14 4.3 14 5.5 0 .275-1.91-.492-4.25-1.71-3.2-1.66-6.53-2.31-13.4-2.64-11.3-.531-20.7 1.97-28 7.44-4.77 3.59-4.79 3.6-1.85.457zm-6.9-5.1c.832-3.1 2.16-4.8 4.84-6.18 1.76-.907 1.67-.625-.534 1.8-1.5 1.6-3.2 3.8-3.8 4.9-1.1 1.8-1.1 1.8-.5-.5zm-9.53-1.5c0-1.52 3.19-5.13 5.64-6.38 3.9-1.96 4.9-1.16 1.3 1-1.9 1.1-4.3 3.1-5.2 4.2-1 1.2-1.8 1.7-1.8 1.2z" fill="#a27b55"/>
 <path d="m17.6 196c1.7-11.1 7.74-20.9 15.3-24.7 3.94-2 11.3-3.64 20.8-4.64 4.22-.445 6.25-1.09 6.25-2 0-.735 1.01-1.86 2.25-2.49 4.2-2.16 7.95-6.4 10.3-11.6 1.7-3.81 3.02-5.39 4.9-5.86 3.86-.969 3.54-5.58-.641-9.17-13.7-13-13.7-12-13.8-34-.0518-7.7-.444-14.9-.872-16-.719-1.84-.897-1.77-2.34 1-.9 2.2-3.1 4.8-4.8 6.5l-3.22 3 3.55-4.72c4.9-6.52 7.39-13.8 9.74-28.4 2.13-13.3 3.59-17.3 7.2-19.8 2.56-1.79 7.03-2.03 9.85-.526 1.7.9 1.9.6 1.9-2.8 0-4.7 2.3-8.3 5.3-8.3 5.69 0 8.48 5.23 13.1 24.6 3.21 13.4 4.95 16.4 11.2 19.5 4.05 2 6.2 2.36 13.1 2.21 8.23-.172 8.27-.159 9.8 2.8 3.39 6.56 2.44 20.2-2.6 37.4-1.13 3.85-2.15 7.68-2.26 8.5-.112.825-2.79 3.51-5.95 5.96-4.86 3.77-5.75 4.95-5.75 7.64 0 2.59.483 3.3 2.57 3.83 1.88.472 3.2 2.05 4.9 5.86 2.33 5.23 6.08 9.46 10.3 11.6 1.24.637 2.25 1.76 2.25 2.49 0 .901 2.03 1.55 6.25 2 14.9 1.57 21.8 3.91 27.2 9.25 3.8 3.75 7.28 11.5 8.39 18.6l.896 5.75h-166zm88.3-70.4c.229-.196-2.47-.303-6-.238-4.91.0906-5.71.288-3.42.842 2.71.654 8.37.291 9.42-.604zm-17.3-39.2c-.319-.798-.556-.561-.604.604-.0434 1.05.193 1.64.525 1.31.332-.332.368-1.19.0790-1.92zm23 0c-.319-.798-.556-.561-.604.604-.0434 1.05.193 1.64.525 1.31.332-.332.368-1.19.0789-1.92zm-42-2c0-2.33-0.3-2.9-1.1-2.1-.605.605-.799 2.04-.433 3.2.9 3 1.5 2.6 1.5-1.1zm61.2-2.03c-.890-.890-1.15-.347-1.1 2.28.0636 3.24.135 3.31 1.17 1.17.813-1.69.795-2.59-.0677-3.45zm-44.7 3.5c.9-.9-2.2-4.3-4-4.3-1.6 0-1.7 2.2-.1 3.8 1.33 1.33 3.11 1.56 4.14.531zm41.7-2.4c0-1.89-.596-2.49-2.75-2.73-3.17-.365-3.59 1.23-1.07 4.01 2.15 2.37 3.82 1.81 3.82-1.28zm9.88 40.5c3.23-1.95 7.51-4.73 9.5-6.18l3.62-2.64-2.5 2.63c-2.66 2.8-13.7 9.74-15.4 9.74-.582-.0010 1.59-1.6 4.82-3.55zm-82.3-.0848c-5.3-2.64-11.1-9.06-11.1-12.3.0034-.880.684-.250 1.51 1.4 1.94 3.85 7.51 8.81 12.8 11.4 2.29 1.11 3.69 2.04 3.11 2.07-.580.0274-3.43-1.14-6.34-2.59zm99.7-17.1c3.96-3.66 6.07-8.07 4.82-10.1-.336-.543-.147-1.27.420-1.62s1.98-2.49 3.14-4.76c1.67-3.27 2-5.28 1.57-9.68-.412-4.3-.307-4.99.463-3.06 1.44 3.63.465 11.3-1.87 14.6-1.11 1.58-2.29 4.67-2.63 6.86-.436 2.79-1.75 5.1-4.4 7.7-2.08 2.04-4.19 3.74-4.69 3.76-.504.027.925-1.65 3.18-3.73zm-113-5c-4.3-5.1-5.3-9.1-5.9-23.5-.455-11.1-.401-11.8.372-5 .497 4.4 1.04 10.5 1.21 13.5.295 5.29 2.83 12 6.31 16.8 2.67 3.63 1.17 2.58-2.01-1.41zm107 .0752c1.19-1.7 2.96-3.72 3.92-4.5 1.32-1.06 1.21-.633-.407 1.68-1.19 1.7-2.96 3.72-3.92 4.5-1.32 1.06-1.21.633.407-1.68zm-102-19.8c-.0609-.691.574-5.87 1.41-11.5 2.17-14.6 4.78-21.8 9.81-27 2.29-2.38 2.96-2.94 1.47-1.26-3.9 4.42-6.44 10.8-8.37 21.1-2.22 11.8-4.18 20.3-4.32 18.7zm106-5.2c0-1.38.227-1.94.504-1.25.277.688.277 1.81 0 2.5-.277.688-.504.125-.504-1.25zm-116-12c-.371-.601-.921-3.48-1.22-6.39-.405-3.93-.111-6.06 1.14-8.22.927-1.61 1.46-2.17 1.18-1.24-1.44 4.79-1.69 8.93-.735 12.4 1.06 3.85.892 5.51-.362 3.49zm82.5-7.9c-4.43-2.7-6.88-6.21-10.1-14.4-1.9-4.87-4.22-8.62-7.14-11.6-3.94-3.96-4.05-4.19-1.16-2.5 4.09 2.39 5.91 5 10.7 15.4 2.75 5.96 5.12 9.5 7.83 11.7 4.41 3.63 4.35 4.06-.158 1.31zm43.4-1.79c-.352-2.3-1.79-6.69-3.19-9.75-1-3.1-2-5.6-1-5.6 1.43 0 6.5 13.2 6.2 16.2-.318 3.24-.337 3.22-.963-.876zm-121-15.3c0-1.38.227-1.94.504-1.25.277.688.277 1.81 0 2.5-.277.688-.504.125-.504-1.25zm81.1-.478c-1.62-1.36-4.84-5.38-7.15-8.93-4.98-7.64-7.64-9.59-14.5-10.6l-4.5-.8 4.52-.125c6.56-.181 10.8 2.47 15.7 9.87 2.32 3.49 5.67 7.85 7.45 9.68 3.79 3.91 3.25 4.39-.957.851zm-69.9-.8c-.0447-.430.539-2.27 1.3-4.08 1.64-3.93 6.06-7.65 9.01-7.6 1.73.0321 1.57.278-.885 1.36-3.46 1.53-6.47 4.63-8.16 8.44-.650 1.46-1.22 2.31-1.26 1.88zm-10.1-3.2c0-3.2 3.6-8.2 8-11.1 2.2-1.5 4-3 4-3.5 0-.8 6.3-4.9 7.6-4.9.475 0-.804 1.13-2.84 2.52s-4.19 3.42-4.78 4.53c-.591 1.1-1.46 1.77-1.92 1.48-1.11-.689-6.92 5.97-8.63 9.89-1 2.3-1.35 2.57-1.38 1.08zm108-4.94c-1.18-2.44-3.58-5.36-5.34-6.48-3.47-2.23-3.23-2.61.693-1.12 2.86 1.09 5.27 4.36 6.58 8.92 1.25 4.35.589 3.9-1.94-1.32zm-67.5-7.6c.995-1.1 2.03-2 2.31-2 .275 0-.314.9-1.31 2-.995 1.1-2.03 2-2.31 2-.275 0 .314-.9 1.31-2zm52.6-4.09c-5-7.3-21-13.6-31-12.6-3 .25-7.1 1.22-8.8 2.12-4.2 2.18-4.1 1.29.2-1.34 6.6-4.17 22.6-2.14 32.6 4.22 4.36 2.8 11 9.41 10.3 10.2-.276.276-1.52-.877-2.77-2.56zm-49 1.5c0-1.33 11.5-5.52 16.2-5.89l6-.4-6 1c-3 .5-7.8 2-10.7 3.4-2.9 1.3-5.3 2.2-5.3 1.9zm-9.03-5.33c.572-1.07 1.53-2.25 2.14-2.62.604-.373.325.502-.620 1.94-2 3.05-3.04 3.52-1.52.679zm-9.1-1.8c1.1-2.2 6.8-4.98 7.8-3.93.3.34 0 .63-.7.63-.727 0-2.87 1.18-4.77 2.63-2.89 2.21-3.28 2.31-2.38.637zm47.4 1.04c.973-.254 2.32-.237 3 .0370.677.274-.119.481-1.77.461-1.65-.0204-2.2-.244-1.23-.498zm-33.1-7.34c3.1-2.63 6.7-3.45 9.4-2.14 2 .96 1.9 1.02-.8.57-1.88-.310-4.49.261-7 1.53-3.92 1.98-3.95 1.98-1.62.0373z" fill="#997047"/>
 <path d="m17 199c.0521-2.64 3.3-13.9 4.89-17 2.23-4.32 7.3-9.35 11.6-11.5 3.43-1.71 11.2-3.37 20.2-4.33 4.22-.445 6.25-1.09 6.25-2 0-.735 1.01-1.86 2.25-2.49 4.2-2.16 7.95-6.4 10.3-11.6 1.7-3.81 3.02-5.39 4.9-5.86 1.96-.491 2.57-1.28 2.56-3.29-.0193-3.32-.198-3.55-7.61-9.89-3.37-2.88-6.6-6.48-7.18-7.99-.580-1.52-1.25-10.2-1.48-19.3-.246-9.56-.898-17.4-1.54-18.5-.613-1.06-1.13-1.44-1.14-.861-.0167.582-.686 1.93-1.49 3-.801 1.07-.356-.814.988-4.18s3.54-12.5 4.87-20.2c3.26-19 6.35-23.1 15.2-20.4l3.3.8v-3.7c0-7.3 5.4-10.5 9.7-5.9 3.26 3.56 4.89 7.57 7.21 17.8 3.4 14.9 4.87 18.6 8.63 21.9 4.47 3.93 10.4 5.45 18.5 4.78 5.77-.476 6.7-.306 7.78 1.42 3.91 6.27 2.96 20.7-2.61 39.7-2.59 8.82-2.99 9.5-7.98 13.5-4.33 3.47-5.25 4.75-5.25 7.35 0 2.55.490 3.28 2.57 3.8 1.88.472 3.2 2.05 4.9 5.86 2.33 5.23 6.08 9.46 10.3 11.6 1.24.637 2.25 1.76 2.25 2.49 0 .901 2.03 1.55 6.25 2 23.8 2.51 31.7 8.55 35.2 26.7l2 7h-83.1c-45.6 0-82.9-.338-82.9-.75zm88.9-73.9c.229-.196-2.47-.303-6-.238-4.91.0906-5.71.288-3.42.842 2.71.654 8.37.291 9.42-.604zm-17.3-38.2c-.277-.688-.504-.125-.504 1.25s.227 1.94.504 1.25c.277-.688.277-1.81 0-2.5zm23 0c-.277-.688-.504-.125-.504 1.25s.227 1.94.504 1.25c.277-.688.277-1.81 0-2.5zm-42-2c0-2.33-0.3-2.9-1.1-2.1-.605.605-.799 2.04-.433 3.2.9 3 1.5 2.6 1.5-1.1zm61.2-2.03c-.890-.890-1.15-.347-1.1 2.28.0636 3.24.135 3.31 1.17 1.17.813-1.69.795-2.59-.0677-3.45zm-44.5 3.1c.8-1.1-2.2-3.8-4.3-3.9-1.5 0-1.6 2.2 0 3.8 1.49 1.49 3.47 1.55 4.34.133zm41.5-2c0-1.89-.596-2.49-2.75-2.73-3.17-.365-3.59 1.23-1.07 4.01 2.15 2.37 3.82 1.81 3.82-1.28zm12.6 39c3.52-2.26 7.3-4.85 8.39-5.75 1.89-1.57 1.92-1.55.5.282-2 2-13 9-14 9-.55 0 1.88-1.85 5.41-4.11zm-88.3-.357c-2-1.36-4.58-4-5.73-5.87-3.1-5.02-2.55-5.59.859-.878 1.63 2.25 4.66 5.24 6.73 6.65s3.32 2.56 2.77 2.56-2.63-1.11-4.63-2.47zm105-17c1.57-2.04 3.07-3.49 3.34-3.22.267.267-1.02 1.93-2.85 3.7l-3 4zm-117-5c-2.56-2.82-4.6-10.7-4.45-17 .133-5.32.175-5.22.874 2.09.511 5.35 1.51 9.07 3.29 12.2 2.81 5.03 2.86 5.52.282 2.67zm120-2c0-1.38.227-1.94.504-1.25.277.688.277 1.81 0 2.5-.277.688-.504.125-.504-1.25zm0-3.4c0-.208.788-.995 1.75-1.75 1.59-1.24 1.62-1.21.378.378-1 1.7-2 2.2-2 1.4zm4.74-10.2c.289-2.69.691-5.07.892-5.3.797-.905.281 7.5-.541 8.8-.536.847-.673-.514-.352-3.5zm-131-13.4c0-3.58.181-5.04.403-3.25s.222 4.71 0 6.5-.403.325-.403-3.25zm.179-12.2c-.363-2.96-.193-6.34.391-7.75.879-2.12.951-1.89.475 1.56-.309 2.24-.103 5.72.456 7.75.6 1.9.7 3.6.2 3.6s-1.1-2.4-1.5-5.2zm128-5.1c-0.4-2.61-1.64-6.55-2.77-8.75-1-2.2-2-4-1-4 1.41 0 5.57 11.2 5.28 14.2-.287 2.94-.391 2.79-1.05-1.48zm-122-14.7c0-1.38.227-1.94.504-1.25.277.688.277 1.81 0 2.5-.277.688-.504.125-.504-1.25zm.864-3.85c-.1-3.3 3.6-8.7 8.1-11.9 2.6-1.9 4.8-3.8 4.8-4.2 0-1 6.1-4.4 6.7-3.7.4.3.1.6-.5.6-2.3 0-15.5 12.5-17.3 16.5-1.01 2.22-1.84 3.43-1.86 2.69zm109-3.8c.048-1.16.285-1.4.604-.604.289.722.253 1.58-.0789 1.92-.332.332-.569-.258-.525-1.31zm-2.06-4.38c-.630-1.18-2.58-3.01-4.33-4.08-3.77-2.3-2.85-2.6 1.33-.440 2.86 1.48 5.64 5.17 4.64 6.16-.275.275-1.02-.463-1.64-1.64zm-17-12.2-2-3.3l3.25 2.94c1.79 1.62 3.25 3.08 3.25 3.25 0 .773-.825.0924-3.56-2.94zm-64.4-2.3c.608-1.58 4.21-3.96 4.93-3.24.221.221-.930 1.39-2.56 2.59-2.12 1.57-2.79 1.75-2.37.651zm51.4-5.16c-5.11-1.87-7.99-2.3-13.5-2.02-3.85.195-7.9.719-9 1.16-1.66.670-1.78.574-.732-.558 2.24-2.41 14.2-2.43 22.1-.0259 3.85 1.17 7.27 2.57 7.6 3.11.335.543.471.923.301.846 0 0-3-1.15-7-2.46zm-34-3.33c.8-.54 2.6-.99 3.9-.99 3.2-.03 2.4.54-1.9 1.33-2.5.46-3.1.36-2-.34z" fill="#9e2e54"/>
 <path d="m17 199c.0521-2.64 3.3-13.9 4.89-17 2.23-4.32 7.3-9.35 11.6-11.5 3.43-1.71 11.2-3.37 20.2-4.33 4.22-.445 6.25-1.09 6.25-2 0-.735 1.01-1.86 2.25-2.49 4.2-2.16 7.95-6.4 10.3-11.6 1.7-3.81 3.02-5.39 4.9-5.86 1.96-.491 2.57-1.28 2.56-3.29-.0193-3.32-.198-3.55-7.61-9.89-3.37-2.88-6.6-6.48-7.18-7.99-.580-1.52-1.25-10.2-1.48-19.3-.246-9.56-.898-17.4-1.54-18.5-.613-1.06-1.13-1.44-1.14-.861-.0167.582-.686 1.93-1.49 3-.801 1.07-.356-.814.988-4.18s3.54-12.5 4.87-20.2c3.26-19 6.35-23.1 15.2-20.4l3.3.8v-3.7c0-7.3 5.4-10.5 9.7-5.9 3.26 3.56 4.89 7.57 7.21 17.8 3.4 14.9 4.87 18.6 8.63 21.9 4.47 3.93 10.4 5.45 18.5 4.78 5.77-.476 6.7-.306 7.78 1.42 3.91 6.27 2.96 20.7-2.61 39.7-2.59 8.82-2.99 9.5-7.98 13.5-4.33 3.47-5.25 4.75-5.25 7.35 0 2.55.490 3.28 2.57 3.8 1.88.472 3.2 2.05 4.9 5.86 2.33 5.23 6.08 9.46 10.3 11.6 1.24.637 2.25 1.76 2.25 2.49 0 .901 2.03 1.55 6.25 2 23.8 2.51 31.7 8.55 35.2 26.7l2 7h-83.1c-45.6 0-82.9-.338-82.9-.75zm91-71c2.72-1.85 2.95-2.3 1.5-2.88-1.51-.598-1.47-.703.281-.852 4.41-.375-3.08-1.77-9.5-1.77-5.88 0-14.2 1.45-9.75 1.7.962.0548 1.75.536 1.75 1.07 0 .533-.788.721-1.75.418-1.46-.459-1.42-.270.25 1.14 5.61 4.73 11.4 5.13 17.2 1.18zm-19.3-41.2c-.277-.688-.504-.125-.504 1.25s.227 1.94.504 1.25c.277-.688.277-1.81 0-2.5zm23 0c-.277-.688-.504-.125-.504 1.25s.227 1.94.504 1.25c.277-.688.277-1.81 0-2.5zm-42-2c0-2.33-0.3-2.9-1.1-2.1-.605.605-.799 2.04-.433 3.2.9 3 1.5 2.6 1.5-1.1zm61.2-2.03c-.890-.890-1.15-.347-1.1 2.28.0636 3.24.135 3.31 1.17 1.17.813-1.69.795-2.59-.0677-3.45zm-44.5 3.1c.8-1.1-2.2-3.8-4.3-3.9-1.5 0-1.6 2.2 0 3.8 1.49 1.49 3.47 1.55 4.34.133zm41.5-2c0-1.89-.596-2.49-2.75-2.73-3.17-.365-3.59 1.23-1.07 4.01 2.15 2.37 3.82 1.81 3.82-1.28zm12.6 39c3.52-2.26 7.3-4.85 8.39-5.75 1.89-1.57 1.92-1.55.5.282-2 2-13 9-14 9-.55 0 1.88-1.85 5.41-4.11zm-88.3-.357c-2-1.36-4.58-4-5.73-5.87-3.1-5.02-2.55-5.59.859-.878 1.63 2.25 4.66 5.24 6.73 6.65s3.32 2.56 2.77 2.56-2.63-1.11-4.63-2.47zm105-17c1.57-2.04 3.07-3.49 3.34-3.22.267.267-1.02 1.93-2.85 3.7l-3 4zm-117-5c-2.56-2.82-4.6-10.7-4.45-17 .133-5.32.175-5.22.874 2.09.511 5.35 1.51 9.07 3.29 12.2 2.81 5.03 2.86 5.52.282 2.67zm120-2c0-1.38.227-1.94.504-1.25.277.688.277 1.81 0 2.5-.277.688-.504.125-.504-1.25zm0-3.4c0-.208.788-.995 1.75-1.75 1.59-1.24 1.62-1.21.378.378-1 1.7-2 2.2-2 1.4zm4.74-10.2c.289-2.69.691-5.07.892-5.3.797-.905.281 7.5-.541 8.8-.536.847-.673-.514-.352-3.5zm-131-13.4c0-3.58.181-5.04.403-3.25s.222 4.71 0 6.5-.403.325-.403-3.25zm.179-12.2c-.363-2.96-.193-6.34.391-7.75.879-2.12.951-1.89.475 1.56-.309 2.24-.103 5.72.456 7.75.6 1.9.7 3.6.2 3.6s-1.1-2.4-1.5-5.2zm128-5.1c-0.4-2.61-1.64-6.55-2.77-8.75-1-2.2-2-4-1-4 1.41 0 5.57 11.2 5.28 14.2-.287 2.94-.391 2.79-1.05-1.48zm-122-14.7c0-1.38.227-1.94.504-1.25.277.688.277 1.81 0 2.5-.277.688-.504.125-.504-1.25zm.864-3.85c-.1-3.3 3.6-8.7 8.1-11.9 2.6-1.9 4.8-3.8 4.8-4.2 0-1 6.1-4.4 6.7-3.7.4.3.1.6-.5.6-2.3 0-15.5 12.5-17.3 16.5-1.01 2.22-1.84 3.43-1.86 2.69zm109-3.8c.048-1.16.285-1.4.604-.604.289.722.253 1.58-.0789 1.92-.332.332-.569-.258-.525-1.31zm-2.06-4.38c-.630-1.18-2.58-3.01-4.33-4.08-3.77-2.3-2.85-2.6 1.33-.440 2.86 1.48 5.64 5.17 4.64 6.16-.275.275-1.02-.463-1.64-1.64zm-17-12.2-2-3.3l3.25 2.94c1.79 1.62 3.25 3.08 3.25 3.25 0 .773-.825.0924-3.56-2.94zm-64.4-2.3c.608-1.58 4.21-3.96 4.93-3.24.221.221-.930 1.39-2.56 2.59-2.12 1.57-2.79 1.75-2.37.651zm51.4-5.16c-5.11-1.87-7.99-2.3-13.5-2.02-3.85.195-7.9.719-9 1.16-1.66.670-1.78.574-.732-.558 2.24-2.41 14.2-2.43 22.1-.0259 3.85 1.17 7.27 2.57 7.6 3.11.335.543.471.923.301.846 0 0-3-1.15-7-2.46zm-34-3.33c.8-.54 2.6-.99 3.9-.99 3.2-.03 2.4.54-1.9 1.33-2.5.46-3.1.36-2-.34z" fill="#885b2f"/>
 <path d="m17 199c.0521-2.64 3.3-13.9 4.89-17 2.23-4.32 7.3-9.35 11.6-11.5 3.43-1.71 11.2-3.37 20.2-4.33 4.22-.445 6.25-1.09 6.25-2 0-.735 1.01-1.86 2.25-2.49 4.2-2.16 7.95-6.4 10.3-11.6 1.7-3.81 3.02-5.39 4.9-5.86 2 0 2.6-1 2.6-3 0-2.84-.371-3.28-9.8-11.5-4.23-3.7-5.14-7.71-5.19-22.9-.0217-6.6-.658-14.6-1.41-17.8-1.25-5.31-1.2-6.33.513-11.2 1.04-2.96 2.39-8.65 3-12.7.612-4 1.64-8.85 2.29-10.8 1.25-3.7 6.18-7.72 10.5-8.58 1.41-.279 4.66-1.2 7.23-2.04 2.57-.846 5.95-1.39 7.5-1.21 2.71.310 2.9.699 4.65 9.32 3.83 18.9 5.94 23 13.6 26.2 4.18 1.77 12.6 2.38 17.5 1.28 3.32-.748 3.72-.584 5.08 2.04 2.14 4.15 1.81 13.8-.944 27-4.56 21.9-4.37 21.4-9.73 25.6-4 3-5 4-5 7 0 2.56.488 3.28 2.57 3.81 1.88.472 3.2 2.05 4.9 5.86 2.33 5.23 6.08 9.46 10.3 11.6 1.24.637 2.25 1.76 2.25 2.49 0 .901 2.03 1.55 6.25 2 23.8 2.51 31.7 8.55 35.2 26.7l2 6h-83.1c-45.6 0-82.9-.338-82.9-.75zm91-71c2.72-1.85 2.95-2.3 1.5-2.88-1.51-.598-1.47-.703.281-.852 4.41-.375-3.08-1.77-9.5-1.77-5.88 0-14.2 1.45-9.75 1.7.962.0548 1.75.536 1.75 1.07 0 .533-.788.721-1.75.418-1.46-.459-1.42-.270.25 1.14 5.61 4.73 11.4 5.13 17.2 1.18zm-19.3-41.2c-.277-.688-.504-.125-.504 1.25s.227 1.94.504 1.25c.277-.688.277-1.81 0-2.5zm23 0c-.277-.688-.504-.125-.504 1.25s.227 1.94.504 1.25c.277-.688.277-1.81 0-2.5zm-42-2c0-2.33-0.3-2.9-1.1-2.1-.605.605-.799 2.04-.433 3.2.9 3 1.5 2.6 1.5-1.1zm61.2-2.03c-.890-.890-1.15-.347-1.1 2.28.0636 3.24.135 3.31 1.17 1.17.813-1.69.795-2.59-.0677-3.45zm-44.5 3.1c.8-1.1-2.2-3.8-4.3-3.9-1.5 0-1.6 2.2 0 3.8 1.49 1.49 3.47 1.55 4.34.133zm41.5-2c0-1.89-.596-2.49-2.75-2.73-3.17-.365-3.59 1.23-1.07 4.01 2.15 2.37 3.82 1.81 3.82-1.28z" fill="#54504e"/>
 <path d="m17 199c.0081-.412.681-3.58 1.5-7.03 3.93-16.7 11.6-22.6 32.6-25.3 6.2-1 8.9-2 8.9-3 0-.739 1.24-1.99 2.75-2.78 3.92-2.05 7.89-6.5 9.74-10.9.884-2.12 2.91-4.57 4.55-5.5 2.13-1.21 2.95-2.44 2.96-4.4.0062-2.68-.462-3.22-9.8-11.4-4.23-3.7-5.14-7.71-5.19-22.9-.0217-6.6-.658-14.6-1.41-17.8-1.25-5.31-1.2-6.33.513-11.2 1.04-2.96 2.39-8.65 3-12.7.612-4 1.64-8.85 2.29-10.8 1.25-3.7 6.18-7.72 10.5-8.58 1.41-.279 4.66-1.2 7.23-2.04 2.57-.846 5.95-1.39 7.5-1.21 2.71.310 2.9.699 4.65 9.32 2.69 13.3 4.42 18.8 6.6 21.2 1.07 1.15 1.64 2.41 1.26 2.79-.379.379-.240.583.310.452s2.77.549 4.94 1.51c4.56 2.02 12.8 2.74 18 1.57 3.32-.748 3.72-.584 5.08 2.04 2.14 4.15 1.81 13.8-.944 27-4.56 21.9-4.37 21.4-9.73 25.6-3.89 3.08-4.85 4.44-4.85 6.87.005 2.29.715 3.42 2.96 4.7 1.63.930 3.66 3.38 4.55 5.5 1.85 4.44 5.82 8.89 9.74 10.9 1.51.790 2.75 2.04 2.75 2.78 0 .938 2.66 1.69 8.82 2.47 14.2 1.82 19 3.63 24.3 9.1 4.7 4.85 7 9.92 8.74 19.3l.881 4.75h-83.1c-45.6 0-82.9-.338-82.9-.75zm91-71c2.72-1.85 2.95-2.3 1.5-2.88-1.51-.598-1.47-.703.281-.852 4.41-.375-3.08-1.77-9.5-1.77-5.88 0-14.2 1.45-9.75 1.7.962.0548 1.75.536 1.75 1.07 0 .533-.788.721-1.75.418-1.46-.459-1.42-.270.25 1.14 5.61 4.73 11.4 5.13 17.2 1.18zm-32.4-38.6c-.3-.9-.6-2-.6-2.5s-.7-.9-1.5-.9c-.9 0-1.5.9-1.5 2.5 0 1.88.526 2.5 2.11 2.5 1.51 0 1.94-.448 1.5-1.58zm8.92-.225c-.308-.308-1.11-.000634-1.79.683-.980.988-.865 1.1.560.560.986-.376 1.54-.935 1.23-1.24zm4.5-1.1c0-1.93-2.12-4.12-5.84-6.05-2.97-1.54-3.38-1.09-1.81 1.99.787 1.55 2.07 2.44 3.45 2.39 1.7 0 2.2.5 2.2 2.3 0 1.34.440 2.12 1 1.77.55-.340 1-1.42 1-2.4zm24-1.9c-.399-1.67-.455-1.67-1.18 0-.419.962-.419 2.54 0 3.5.725 1.67.782 1.67 1.18 0 .230-.962.230-2.54 0-3.5zm5.51 2.2c-.604-3.16-3.59-2.93-4.05.309-1 1.9-1 2.3 1 2.3 2.07 0 2.36-.382 1.94-2.55zm8.22 1.62c.316-.512.118-1.21-.441-1.56-2-.2-2 .2-2 1 0 1.76 0.6 2.02 1.46.628zm-57.2-6.5c-.181-.823-.820-1.15-1.45-.75-.798.514-.827 1.45-.0977 3.22.841 2.05 1.1 2.18 1.45.75.232-.962.276-2.41.0977-3.22zm62.2 2.3c.668-1.78.398-2.51-1.28-3.46-3-1.5-8-1.7-8-.2 0 3.8 5.1 6.76 6.34 3.68.301-.747.536-.545.583.5.109 2.41.977 2.19 1.99-.5zm-40-11.7c0-.988-6.2-3.4-9.5-3.71-2.64-.240-11.6 1.61-13.5 2.79-.986.609-0.3.687 2 .227 4.99-.999 16.2-.618 17.4.592 1.3 1.3 3.6 1.3 3.6.1z" fill="#872234"/>
 <path d="m17 199c.0081-.412.681-3.58 1.5-7.03 3.93-16.7 11.6-22.6 32.6-25.3 6.2-1 8.9-2 8.9-3 0-.739 1.24-1.99 2.75-2.78 3.92-2.05 7.89-6.5 9.74-10.9.884-2.12 2.91-4.57 4.55-5.5 2.13-1.21 2.95-2.44 2.96-4.4.0062-2.68-.462-3.22-9.8-11.4-4.23-3.7-5.14-7.71-5.19-22.9-.0217-6.6-.658-14.6-1.41-17.8-1.25-5.31-1.2-6.33.513-11.2 1.04-2.96 2.39-8.65 3-12.7.612-4 1.64-8.85 2.29-10.8 1.25-3.7 6.18-7.72 10.5-8.58 1.41-.279 4.66-1.2 7.23-2.04 2.57-.846 5.95-1.39 7.5-1.21 2.71.310 2.9.699 4.65 9.32 2.69 13.3 4.42 18.8 6.6 21.2 1.07 1.15 1.64 2.41 1.26 2.79-.379.379-.240.583.310.452s2.77.549 4.94 1.51c4.56 2.02 12.8 2.74 18 1.57 3.32-.748 3.72-.584 5.08 2.04 2.14 4.15 1.81 13.8-.944 27-4.56 21.9-4.37 21.4-9.73 25.6-3.89 3.08-4.85 4.44-4.85 6.87.005 2.29.715 3.42 2.96 4.7 1.63.930 3.66 3.38 4.55 5.5 1.85 4.44 5.82 8.89 9.74 10.9 1.51.790 2.75 2.04 2.75 2.78 0 .938 2.66 1.69 8.82 2.47 14.2 1.82 19 3.63 24.3 9.1 4.7 4.85 7 9.92 8.74 19.3l.881 4.75h-83.1c-45.6 0-82.9-.338-82.9-.75zm91-71c3-2 5-4 5-4 0-1.17-7.9-2.95-13-2.94-5.81.019-14.1 1.99-13.3 3.18.313.507 2.63 2.23 5.15 3.82 6.09 3.86 10.5 3.81 16.5-.192zm-32.4-38.6c-.3-.9-.6-2-.6-2.5s-.7-.9-1.5-.9c-.9 0-1.5.9-1.5 2.5 0 1.88.526 2.5 2.11 2.5 1.51 0 1.94-.448 1.5-1.58zm8.92-.225c-.308-.308-1.11-.000634-1.79.683-.980.988-.865 1.1.560.560.986-.376 1.54-.935 1.23-1.24zm4.5-1.1c0-1.93-2.12-4.12-5.84-6.05-2.97-1.54-3.38-1.09-1.81 1.99.787 1.55 2.07 2.44 3.45 2.39 1.7 0 2.2.5 2.2 2.3 0 1.34.440 2.12 1 1.77.55-.340 1-1.42 1-2.4zm24-1.9c-.399-1.67-.455-1.67-1.18 0-.419.962-.419 2.54 0 3.5.725 1.67.782 1.67 1.18 0 .230-.962.230-2.54 0-3.5zm5.51 2.2c-.604-3.16-3.59-2.93-4.05.309-1 1.9-1 2.3 1 2.3 2.07 0 2.36-.382 1.94-2.55zm8.22 1.62c.316-.512.118-1.21-.441-1.56-2-.2-2 .2-2 1 0 1.76 0.6 2.02 1.46.628zm-57.2-6.5c-.181-.823-.820-1.15-1.45-.75-.798.514-.827 1.45-.0977 3.22.841 2.05 1.1 2.18 1.45.75.232-.962.276-2.41.0977-3.22zm62.2 2.3c.668-1.78.398-2.51-1.28-3.46-3-1.5-8-1.7-8-.2 0 3.8 5.1 6.76 6.34 3.68.301-.747.536-.545.583.5.109 2.41.977 2.19 1.99-.5zm-40-11.7c0-.988-6.2-3.4-9.5-3.71-2.64-.240-11.6 1.61-13.5 2.79-.986.609-0.3.687 2 .227 4.99-.999 16.2-.618 17.4.592 1.3 1.3 3.6 1.3 3.6.1z" fill="#714425"/>
 <path d="m18.2 194c1.31-8.36 4.52-14.9 9.4-19.2 5.11-4.5 11.4-6.69 23.5-8.25 6.2-1 8.9-2 8.9-3 0-.739 1.24-1.99 2.75-2.78 3.92-2.05 7.89-6.5 9.74-10.9.884-2.12 2.91-4.57 4.55-5.5 2.26-1.28 2.95-2.4 2.96-4.74.0052-2.53-1.04-3.92-5.97-8-3.29-2.72-6.46-6.1-7.06-7.53-.592-1.43-1.26-9.08-1.49-17-.2-8-.9-17-1.7-20-1.19-4.94-1.14-5.93.485-9.68.999-2.3 2.58-8.82 3.51-14.5 1.46-8.89 2.11-10.8 4.74-13.6 3.48-3.71 12-6.57 20-6.69h5l1.11 5c1.93 8.67 2.38 12.6 1.39 12-.5-.4-.9.1-.9 1 0 .890.413 1.36.919 1.05.505-.312 1.21.771 1.57 2.41.359 1.64 1.73 4.57 3.05 6.51s2.07 3.55 1.68 3.58c-.881.0537 5.99 2.69 10.8 4.13 2.03.614 6.49.784 10.6.408l7.14-.647 1.11 3.18c2.18 6.25 1.55 11.3-5.64 44.7-.269 1.25-2.57 4.1-5.12 6.34-2.71 2.38-4.89 5.27-5.25 6.96-.538 2.51-.180 3.15 2.71 4.86 1.96 1.15 3.99 3.54 4.92 5.77 1.85 4.42 5.82 8.87 9.73 10.9 1.51.790 2.75 2.04 2.75 2.78 0 .938 2.66 1.69 8.82 2.47 14.2 1.82 19 3.62 24.4 9.16 3.58 3.69 5.18 6.42 6.75 11.5 1.13 3.67 2.06 7.97 2.06 9.57v2h-165zm89.8-66c3-2 5-4 5-4 0-1.17-7.9-2.95-13-2.94-5.81.019-14.1 1.99-13.3 3.18.313.507 2.63 2.23 5.15 3.82 6.09 3.86 10.5 3.81 16.5-.192zm-6.82-19.9c.788-2.48-.438-14.8-1.54-15.5-.972-.601-2.43 13.9-1.61 16 .822 2.14 2.39 1.89 3.16-.507zm-25.4-18.6c-.3-.9-.6-2-.6-2.5s-.7-.9-1.5-.9c-.9 0-1.5.9-1.5 2.5 0 1.88.526 2.5 2.11 2.5 1.51 0 1.94-.448 1.5-1.58zm8.92-.225c-.308-.308-1.11-.000634-1.79.683-.980.988-.865 1.1.560.560.986-.376 1.54-.935 1.23-1.24zm4.5-1.1c0-1.93-2.12-4.12-5.84-6.05-2.97-1.54-3.38-1.09-1.81 1.99.787 1.55 2.07 2.44 3.45 2.39 1.7 0 2.2.5 2.2 2.3 0 1.34.440 2.12 1 1.77.55-.340 1-1.42 1-2.4zm24-1.9c-.399-1.67-.455-1.67-1.18 0-.419.962-.419 2.54 0 3.5.725 1.67.782 1.67 1.18 0 .230-.962.230-2.54 0-3.5zm5.51 2.2c-.604-3.16-3.59-2.93-4.05.309-1 1.9-1 2.3 1 2.3 2.07 0 2.36-.382 1.94-2.55zm8.22 1.62c.316-.512.118-1.21-.441-1.56-2-.2-2 .2-2 1 0 1.76 0.6 2.02 1.46.628zm-57.2-6.5c-.181-.823-.820-1.15-1.45-.75-.798.514-.827 1.45-.0977 3.22.841 2.05 1.1 2.18 1.45.75.232-.962.276-2.41.0977-3.22zm62.2 2.3c.668-1.78.398-2.51-1.28-3.46-3-1.5-8-1.7-8-.2 0 3.8 5.1 6.76 6.34 3.68.301-.747.536-.545.583.5.109 2.41.977 2.19 1.99-.5zm-61.6-11.7c.308-.498 1.41-.684 2.45-.413s2.14.0842 2.45-.416c.309-0.5 2.27-.713 4.36-.473s4.81.497 6.05.572c1.3 0 2.3.4 2.3.8 0 .925 3.42.996 4.33.0897.932-.932-3.12-3.59-4.33-2.84-.6.4-1 .3-1-.3 0-1.2-11.1-1.1-12.8.2-.6.5-1.2.7-1.2.4 0-.314-1.35-.1-3 .475s-2.75 1.45-2.44 1.95c.717 1.16 2.16 1.16 2.88-.0035z" fill="#3d4240"/>
 <path d="m18.2 194c2.68-17.1 10.9-24.1 31.3-27 8.58-1.21 11.2-1.91 10.8-2.93-.3 0-.1-1 .5-1 2.16 0 10.1-8.24 11.6-12 .969-2.42 2.84-4.76 4.61-5.77 2.29-1.3 2.98-2.41 2.99-4.76.0052-2.53-1.04-3.92-5.97-8-3.29-2.72-6.46-6.1-7.06-7.53-.592-1.43-1.26-9.08-1.49-17-.2-8-.9-17-1.7-20-1.16-4.73-1.14-5.95.137-8.71 2.48-5.38 13.7-7.73 23.4-4.91 6.77 1.97 6.83 1.97 6.15.196-1.72-4.47-13.9-5.9-22.5-2.64l-5.1 1.94.580-2.31c.319-1.27 1.1-5.82 1.74-10.1.963-6.48 1.69-8.37 4.26-11.1 3.54-3.78 12-6.63 20.1-6.76l5-.1 1.11 5c1.93 8.67 2.38 12.6 1.39 12-.5-.4-.9.1-.9 1 0 .890.413 1.36.919 1.05.505-.312 1.21.771 1.57 2.41.359 1.64 1.73 4.57 3.05 6.51s2.07 3.55 1.68 3.58c-1.44.0878 7.41 3.19 12.3 4.31 5.28 1.21 5.31 1.26 5.82 8.9.1 1.51.482 2.75.850 2.75 2.26 0 3.84-1.57 3.9-3.86.0626-2.36.160-2.43.895-.643.785 1.9.873 1.88 1.81-.5.822-2.09.635-2.7-1.14-3.71-2-.8-3-1.4-5-1.5-1-.1-1-.2 1-.9 5.45-1.75 7.74-1.2 8.9 2.15 2.17 6.22 1.53 11.2-5.66 44.6-.270 1.25-2.62 4.18-5.23 6.5-3.16 2.81-4.94 5.3-5.35 7.47-.443 2.35-.243 3.25.728 3.25 2.21 0 6.77 4.13 6.2 5.62-.291.759-.0935 1.38.439 1.38.533 0 .969.590.969 1.31 0 1.66 5.4 7.22 9.17 9.45 1.58.932 2.67 2.21 2.43 2.85-.296.771 2.59 1.53 8.73 2.29 14 1.74 19.4 3.75 24.8 9.18 3.63 3.62 5.13 6.16 6.75 11.4 1.14 3.7 2.08 8.03 2.08 9.63v2h-165zm89.8-66c3-2 5-4 5-4 0-1.17-7.9-2.95-13-2.94-5.81.019-14.1 1.99-13.3 3.18.313.507 2.63 2.23 5.15 3.82 6.09 3.86 10.5 3.81 16.5-.192zm-6.82-19.9c.788-2.48-.438-14.8-1.54-15.5-.972-.601-2.43 13.9-1.61 16 .822 2.14 2.39 1.89 3.16-.507zm-25-20.3c0-1.82.427-3.73.948-4.25.822-.824-2.78-1.05-8.7-.555-1.93.163-1.5 1.61 1.47 5 3.7 4.2 6.3 4.1 6.3-.2zm5 2.3c0-.55-.45-1-1-1s-1 .45-1 1 .45 1 1 1 1-.45 1-1zm7.5-2.03c0-1.61-1.12-3.15-3.4-4.68-4.44-2.99-5.29-2.89-3.94.460.612 1.51 1.05 3.79.982 5.05-.116 2.03.257 2.26 3.11 1.93 2.7-.4 3.3-.9 3.3-2.8zm29.7.542c-.266-1.39.0748-3.2.757-4.02 1.62-1.95.0677-1.97-4.54-.0453-2.22.927-3.47 2.13-3.47 3.33 0 2.52.353 2.77 4.33 3.03 3.15.212 3.37.0367 2.92-2.3zm5 1.5c0-.55-.198-1-.441-1s-.719.45-1.06 1c-.340.55-.141 1 .441 1 1 0 1-.4 1-1z" fill="#733714"/>
 <path d="m18.2 194c2.68-17.1 10.9-24.1 31.3-27 8.58-1.21 11.2-1.91 10.8-2.93-.3 0-.1-1 .5-1 2.16 0 10.1-8.24 11.6-12 .969-2.42 2.84-4.76 4.61-5.77 5.08-2.89 4.17-6.38-3.51-13.4-3.58-3.28-6.49-6.48-6.47-7.12.0167-.639.470-.408 1.01.514 2.8 5 28.2 23 32 23 2.57 0 13.2-6.73 21.5-13.6 8.08-6.71 10.2-7.61 3.9-1.68-3.35 3.16-5.32 5.93-5.72 8.07-.452 2.36-.256 3.25.717 3.25 2.21 0 6.77 4.13 6.2 5.62-.291.759-.0935 1.38.439 1.38.533 0 .969.590.969 1.31 0 1.66 5.4 7.22 9.17 9.45 1.58.932 2.67 2.21 2.43 2.85-.296.771 2.59 1.53 8.73 2.29 14 1.74 19.4 3.75 24.8 9.18 3.63 3.62 5.13 6.16 6.75 11.4 1.14 3.7 2.08 8.03 2.08 9.63v3h-165zm82.8-21c.872-6.54 3.67-10.7 9.69-14.4 2.8-1.72 5.52-4.26 6.04-5.64.524-1.38.828-2.62.675-2.76-.153-.142-3.64 1.72-7.75 4.14-4 3-9 5-10 5-1.4 0-5.91-1.98-10-4.4-4.11-2.42-7.63-3.98-7.82-3.47-.723 1.95.917 3.85 6.3 7.29 6.66 4.26 9.22 8.12 10.1 15.2.791 6.33 1.93 6.17 2.81-0.4zm-4.8-59c-3.72-1.53-2.56-2.77 3-3.22 5.64-.450 7.62.260 5.54 1.99-2.01 1.67-6.05 2.25-8.54 1.23zm-29.7-26.7c-4.27-4.02-4.71-4.76-3-5.07 1.1-.201 4.66-1.22 7.92-2.27 6.5-2.2 11.1-2.6 10.1-1-.349.564.465 1 1.87 1 1.45 0 3.29 1.03 4.43 2.47 1.07 1.36 2.15 2.26 2.41 2 .256-.256.466.209.466 1.03 0 1.94-1.08 1.91-2.72-.0659-1.3-1.4-6.2-4.4-7.4-4.4-.289 0-.0240 1.24.588 2.75s1.05 3.81.977 5.12c-.115 2 .245 2.29 2.33 1.89 1.36-.260 2.23-.0868 1.94.384-.291.471-3.76.848-7.72.839-7.2.1-7.2.1-12.2-4.6zm9.5.4c0-1.82.427-3.73.948-4.25.822-.824-2.78-1.05-8.7-.555-1.93.163-1.5 1.61 1.47 5 3.7 4.2 6.3 4.1 6.3-.2zm5 2.3c0-.55-.45-1-1-1s-1 .45-1 1 .45 1 1 1 1-.45 1-1zm32.6 1.18c-.278-.450.766-.632 2.32-.404 2.58.378 2.78.186 2.33-2.19-.274-1.43.0607-3.27.743-4.1 1.67-2.02-.0123-1.96-4.79.153-5.65 2.5-6.67 2.46-4.18-.189 1.24-1.32 2.65-2.15 3.13-1.85.484.299.756-.0524.605-.781-.193-.930 1.21-1.41 4.73-1.62 5.49-.322 5.08-.871 5.76 7.79.130 1.65.537 3 .904 3 2.26 0 3.84-1.57 3.9-3.86.0626-2.36.160-2.43.895-.643.785 1.9.873 1.88 1.81-.5.822-2.09.635-2.7-1.14-3.71-2-.7-3-1.3-5-1.3-1-.1-1-.4 0-.7 2-.8 10 1.8 10 3.3 0 .746-1.69 2.93-3.75 4.84-3.55 3.3-4.13 3.49-10.9 3.51-3.96.0149-7.42-.342-7.7-.792zm9-1.2c0-.55-.198-1-.441-1s-.719.45-1.06 1c-.340.55-.141 1 .441 1 1 0 1-.4 1-1z" fill="#323845"/>
 <path d="m18.2 194c1.74-11.1 6.69-18.7 15-22.9 5.01-2.54 23.8-6.03 26.6-4.95 1.1.423 1.32.005.886-1.7-.484-1.91-.0697-1.71 2.64 1.24 1.77 1.92 4.25 4.85 5.51 6.5s1.85 2.1 1.31 1c-.542-1.1-2.31-3.57-3.93-5.48l-2.94-3.48 4.12-3.88c3.87-3.64 3.89-3.69.337-.772-5.41 4.44-6.95 3.85-1.68-.645 2.41-2.06 4.73-3.64 5.14-3.51.414.131.468-.505.120-1.41-.459-1.2-.269-1.43.690-.834.899.555 1.09.433.584-.380-.407-.659-.197-1.85.468-2.65.665-.801.858-1.46.431-1.46-.428 0 .530-1.12 2.13-2.5 1.6-1.37 3.24-2.5 3.66-2.5.412-.00067.75-1.41.75-3.13 0-2.58-1.15-4.19-6.5-9.09-3.58-3.28-6.49-6.48-6.47-7.12.0167-.639.470-.408 1.01.514 2.8 4 28.2 22 32 22 2.57 0 13.2-6.73 21.5-13.6 8.08-6.71 10.2-7.61 3.9-1.68-3.35 3.16-5.32 5.93-5.72 8.07-.448 2.34-.253 3.25.697 3.25 1.99 0 6.98 4.63 6.25 5.81-.348.563-.160 1.18.418 1.37.578.193 1.12 1.32 1.21 2.52.0897 1.19.576 2.08 1.08 1.99.505-.0994 1.14.444 1.42 1.21.337.926.045 1.16-.875.687-.759-.386.449.988 2.68 3.05l4.06 3.76-4.81 6.36c-2 3-4 7-4 7 0 .584 1.76-1.58 3.92-4.8 2.15-3.23 5.05-6.93 6.44-8.23 2.45-2.3 2.5-2.3 1.96-.235-.414 1.58-.183 1.99.903 1.57 2.52-.969 21.4 2.36 26.2 4.62 2.53 1.19 6.17 4 8.09 6.24 3 5 7 15 7 20v3h-165zm160-4.75c-.948-2.48-2.07-4.73-2.5-4.99-.429-.265.169 1.94 1.33 4.89 1.16 2.96 2.29 5.2 2.5 4.99.217-.210-.381-2.41-1.33-4.89zm-155-2c.9-2 1.4-3 1.2-3-.6 0-3.6 6-3.6 7 0 1.04.542.283 2.4-3.37zm8.6-11l2.5-2.15-2.78 1.69c-1.53.930-3.7 3.09-4.83 4.81l-2.1 3 2.4-3c1.3-2 3.4-4 4.8-5zm143 6.59c0-.208-.788-.995-1.75-1.75-1.59-1.24-1.62-1.21-.378.378 1.31 1.67 2.13 2.2 2.13 1.37zm-103-6c-.988-.980-1.1-.865-.560.560.376.986.935 1.54 1.24 1.23.308-.308.000634-1.11-.683-1.79zm29.2-3.46c.872-6.54 3.67-10.7 9.69-14.4 2.8-1.72 5.52-4.26 6.04-5.64.524-1.38.828-2.62.675-2.76-.153-.142-3.64 1.72-7.75 4.14-4 2-9 4-10 4-1.4 0-5.91-1.98-10-4.4-4.11-2.42-7.63-3.98-7.82-3.47-.723 1.95.917 3.85 6.3 7.29 6.66 4.26 9.22 8.12 10.1 15.2.791 6.33 1.93 6.17 2.81-0.4zm69.8 4.48c-.575-.688-2.54-2.11-4.37-3.16-3.92-2.25-3.27-1.31 1.38 1.98 3.78 2.67 4.47 2.95 3 1.18zm-129-7c.825-.533 1.05-.969.5-.969s-1.68.436-2.5.969c-.825.533-1.05.969-.5.969s1.68-.436 2.5-.969zm118 0c-.825-.533-1.95-.969-2.5-.969s-.325.436.5.969 1.95.969 2.5.969.325-.436-.5-.969zm-113-2c-.332-.332-1.19-.368-1.92-.0789-.798.319-.561.556.604.604 1.05.0434 1.64-.193 1.31-.525zm109 0c-.332-.332-1.19-.368-1.92-.0789-.798.319-.561.556.604.604 1.05.0434 1.64-.193 1.31-.525zm-104-1c-.332-.332-1.19-.368-1.92-.0789-.798.319-.561.556.604.604 1.05.0434 1.64-.193 1.31-.525zm99 0c-.332-.332-1.19-.368-1.92-.0789-.798.319-.561.556.604.604 1.05.0434 1.64-.193 1.31-.525zm-93-1c-.332-.332-1.19-.368-1.92-.0789-.798.319-.561.556.604.604 1.05.0434 1.64-.193 1.31-.525zm87 0c-.332-.332-1.19-.368-1.92-.0789-.798.319-.561.556.604.604 1.05.0434 1.64-.193 1.31-.525zm-11.4-6.86c-3.65-3.21-1.72-3.21 2.19-.0006 1.65 1.35 2.46 2.46 1.81 2.46-.657.003-2.46-1.11-4-2.46zm-37.8-46c-3.72-1.53-2.56-2.77 3-3.22 5.64-.450 7.62.260 5.54 1.99-2.01 1.67-6.05 2.25-8.54 1.23zm-29.7-26.7c-4.27-4.02-4.71-4.76-3-5.07 1.1-.201 4.66-1.22 7.92-2.27 6.5-2.2 11.1-2.6 10.1-1-.349.564.465 1 1.87 1 1.45 0 3.29 1.03 4.43 2.47 1.07 1.36 2.15 2.26 2.41 2 .256-.256.466.209.466 1.03 0 1.94-1.08 1.91-2.72-.0659-2.7-3.25-6.34-4.36-10.9-3.33-2.39.537-4.95.746-5.68.465-1.7-.6-4.4.3-4.4 1.4 0 1.8 5.3 7 7.1 7 1.5 0 1.9-.7 1.9-3.5 0-2.75.499-3.72 2.25-4.37 1.87-.693 2.43-.392 3.33 1.78.596 1.44.863 3.47.595 4.51-.408 1.58-.0568 1.81 2.14 1.39 1.44-.276 2.39-.117 2.1.354-.291.471-3.76.848-7.72.839-7.2 0-7.2 0-12.2-4.7zm14.5 2.7c0-.55-.45-1-1-1s-1 .45-1 1 .45 1 1 1 1-.45 1-1zm32.6 1.18c-.278-.450.714-.640 2.21-.421 2.47.362 2.71.112 2.7-2.81-.0193-4.31 2.95-6.32 5.1-3.45.825 1.1 1.31 3.01 1.08 4.25-.247 1.32.0779 2.25.786 2.25 1.62 0 6.07-4.07 6.84-6.25.339-.962.519-1.76.399-1.77-1.68-.115-7.69-2.91-6.33-2.94 3-.1 9 2.2 9 3.5 0 .731-1.69 2.9-3.75 4.81-3.55 3.3-4.13 3.49-10.9 3.51-3.96.0149-7.42-.342-7.7-.792zm9-1.2c0-.55-.198-1-.441-1s-.719.45-1.06 1c-.340.55-.141 1 .441 1 1 0 1-.4 1-1zm-13-5.54c1.24-1.32 2.65-2.15 3.13-1.85.484.299.756-.0524.605-.781-.195-.940 1.28-1.41 5.07-1.63 5.82-.333 6.4 1.16.895 2.35-1.78.384-4.59 1.41-6.24 2.27-4.66 2.45-5.97 2.31-3.46-.358z" fill="#2b2f32"/>
 <path d="m18.2 195c1.74-11.1 6.81-19 14.8-23.1 5.56-2.82 16.1-4.91 20.1-4.01 3.83.841 9.11-.328 8.35-1.85-1.63-3.27 6.99 7.66 10.1 12.8 1.99 3.3 3.31 4.88 2.93 3.5-.987-3.57-5.11-10.5-8.64-14.5l-3.02-3.44 2.57-1.17c2.95-1.34 5.97-5.45 5.08-6.9-.333-.538.124-1.26 1.02-1.6.891-.342 1.38-1.24 1.09-1.99-.3 0-.2-1 .3-1 .473 0 1.12-1.05 1.44-2.33.321-1.28 1.72-2.85 3.11-3.48 2-1 2.6-2 2.6-4 0-2.6-1.13-4.19-6.5-9.11-3.58-3.28-6.49-6.48-6.47-7.12.0167-.639.470-.408 1.01.514 2.8 5 28.2 23 32 23 2.57 0 13.2-6.73 21.5-13.6 8.08-6.71 10.2-7.61 3.9-1.68-6.25 5.9-7.67 10.4-3.82 12.2 1.36.620 2.74 1.8 3.05 2.63.317.827.974 1.26 1.46.957.486-0.3.616.152.288 1.01-.328.854-.112 1.55.480 1.55s.839.617.550 1.37c-.289.754.203 1.65 1.09 1.99.891.342 1.35 1.07 1.01 1.61-.981 1.59 1.3 4.88 4.54 6.56l3 1.55-3.91 4.71c-3.96 4.76-7.63 11.1-6.88 11.8.223.223 1.8-1.73 3.51-4.34 3.02-4.62 10-13 8.74-10.5-.720 1.43-.819 1.42 10.5 1.75 13.5.392 22.4 4.41 27.5 12.4 3 4 6 13 6 17v3h-165zm1.53 2.23c-.319-.798-.556-.561-.604.604-.0434 1.05.193 1.64.525 1.31.332-.332.368-1.19.0790-1.92zm161 0c-.319-.798-.556-.561-.604.604-.0434 1.05.193 1.64.525 1.31.332-.332.368-1.19.0789-1.92zm-153-17c4.7-5.23 10.1-8.36 18.6-10.8l5.5-1-4.5 1c-7.26.902-14.7 3.62-18.5 6.76-4.09 3.37-8.04 10.6-8.92 16.3-.595 3.84-.554 3.8 1.47-1.25 1.14-2.86 4.03-7.36 6.41-10zm149 6.11c-3-10-11-16-25-17l-5-.609 6 1.8c3.3.988 7.86 2.76 10.1 3.94 5.52 2.86 12 10.4 14.1 16.5.954 2.71 1.87 4.28 2.03 3.5.162-.782-.695-4.08-1.9-7.33zm-76-13c.872-6.54 3.67-10.7 9.69-14.4 2.8-1.72 5.52-4.26 6.04-5.64.524-1.38.828-2.62.675-2.76-.153-.142-3.64 1.72-7.75 4.14-4 3-9 5-10 5-1.4 0-5.91-1.98-10-4.4-4.11-2.42-7.63-3.98-7.82-3.47-.723 1.95.917 3.85 6.3 7.29 6.66 4.26 9.22 8.12 10.1 15.2.791 6.33 1.93 6.17 2.81-0.4zm-20.4-23c-.0586-1.62-.489-2.57-.956-2.1-.467.465-.549 1.79-.183 2.95.917 2.89 1.26 2.63 1.14-.845zm39.5-2.32c-.988-.980-1.1-.865-.560.560.376.986.935 1.54 1.24 1.23.308-.308.00064-1.11-.683-1.79zm-64.2 18c.688-.277 1.81-.277 2.5 0 .688.277.125.504-1.25.504s-1.94-.227-1.25-.504zm87.1-.0208c.722-.289 1.58-.253 1.92.0789.332.332-.258.569-1.31.525-1.16-.048-1.4-.285-.604-.604zm-46.8-52c-3.72-1.53-2.56-2.77 3-3.22 5.64-.450 7.62.260 5.54 1.99-2.01 1.67-6.05 2.25-8.54 1.23zm-29.7-26.7c-4.27-4.02-4.71-4.76-3-5.07 1.1-.201 4.66-1.22 7.92-2.27 6.5-2.2 11.1-2.6 10.1-1-.349.564.465 1 1.87 1 1.45 0 3.29 1.03 4.43 2.47 1.07 1.36 2.15 2.26 2.41 2 .256-.256.466.209.466 1.03 0 1.94-1.08 1.91-2.72-.0659-2.2-2.6-6.7-4.4-10.8-4.4-4.3 0-10.2 1.7-10.2 3 0 2 5.3 7 7.4 7 1.88 0 2.17-.444 1.83-2.81-.267-1.82.187-3.3 1.29-4.22 1.49-1.24 1.92-1.14 3.54.856 2.01 2.49 1.6 5.36-.647 4.5-.8-.3-1.4 0-1.4.5 0 .576 1.69 1.22 3.75 1.44 2.06.216.375.460-3.75.543l-7.5.151zm49.8 4.02c2.21-.333 2.67-.816 2.19-2.31 0-2.4 2-6 4-6 1.57 0 3.5 2.98 3.5 5.4 0 .904-.575 1.31-1.4.998-.769-.295-1.7-.0561-2.06.531-1 .7 0 1.1 2 1.1 2.65 0 4.08-.730 6.06-3.08 2-1.7 3-3.4 3-3.9 0-.449-1.69-1.52-3.75-2.37-4.43-1.84-2.63-2.15 2.88-0.5 2 .7 4 1.8 4 2.5 0 .731-1.69 2.9-3.75 4.81-3.63 3.37-4 3.48-11.2 3.36-4.12-.0675-6.24-.312-4.71-.544zm-6.26-6.82c1.24-1.32 2.65-2.15 3.13-1.85.484.299.756-.0524.605-.781-.194-.935 1.19-1.39 4.73-1.56l5-.240-3.74 1.37c-2.06.753-4.98 2.19-6.5 3.2-4.1 2.72-5.83 2.65-3.22-.132z" fill="#582405"/>
 <path d="m18.1 195c2.34-12.6 6.69-19.6 14.8-23.7 5.58-2.83 16.1-4.92 20.2-4.02 3.83.841 9.11-.328 8.35-1.85-1.63-3.27 6.99 7.66 10.1 12.8 1.99 3.3 3.31 4.88 2.93 3.5-.987-3.57-5.11-10.5-8.64-14.5l-3.02-3.44 2.57-1.17c2.95-1.34 5.97-5.45 5.08-6.9-.333-.538.124-1.26 1.02-1.6.891-.342 1.38-1.24 1.09-1.99-.3 0-.2-1 .3-1 .473 0 1.12-1.05 1.44-2.33.321-1.28 1.72-2.85 3.11-3.48 3.07-1.4 3.49-6.46.774-9.49-.962-1.07 2.08.790 6.75 4.14 4.68 3.35 9.93 6.87 11.7 7.81 3.05 1.65 3.34 1.64 6.77-.206 1.97-1.06 7.29-4.58 11.8-7.81 4.53-3.24 7.44-5.01 6.48-3.93-.962 1.07-1.75 2.73-1.75 3.68 0 .952-.45 1.45-1 1.11s-1 .0835-1 .941c0 .919-.865 1.56-2.11 1.56-1.16 0-5.22 1.69-9.01 3.75l-6.91 3.75-6.19-3.4c-3.4-1.87-7.67-3.74-9.49-4.14-2.9-1-3.4-1-3.4 1 0 1.05-.513 2.73-1.14 3.73-.855 1.37-.851 2.3.0137 3.74.987 1.64 1.06 1.48.511-1.09-.444-2.07-.320-2.69.402-2 .574.55 1.2 2.11 1.38 3.46.229 1.68 2.21 3.78 6.29 6.63 6.71 4.7 9.08 8.35 10.1 15.5.372 2.71 1.03 4.92 1.47 4.92.436 0 1.11-2.14 1.49-4.75 1.04-7.03 3.35-11.1 7.93-14 7.12-4.54 8.59-6.26 8.61-10.1.0236-5.5 1.23-6.8 4.4-4.72 1.42.932 2.59 2.16 2.59 2.73s.445.761.989.425c.567-.350.734.0511.393.941-.328.854-.112 1.55.480 1.55s.839.617.550 1.37c-.289.754.203 1.65 1.09 1.99.891.342 1.35 1.07 1.01 1.61-.981 1.59 1.3 4.88 4.54 6.56l3 1.55-3.91 4.71c-3.96 4.76-7.63 11.1-6.88 11.8.223.223 1.8-1.73 3.51-4.34 3.02-4.62 10-13 8.74-10.5-.720 1.43-.819 1.42 10.5 1.75 13.6.395 22.4 4.4 27.6 12.6 3 4 6 14 6 18v2h-165zm1.54 1.56c-.319-.798-.556-.561-.604.604-.0434 1.05.193 1.64.525 1.31.332-.332.368-1.19.0790-1.92zm161 0c-.319-.798-.556-.561-.604.604-.0434 1.05.193 1.64.525 1.31.332-.332.368-1.19.0789-1.92zm-153-17c4.7-5.23 10.1-8.36 18.6-10.8l5.5-1-4.5 1c-7.26.902-14.7 3.62-18.5 6.76-4.09 3.37-8.04 10.6-8.92 16.3-.595 3.84-.554 3.8 1.47-1.25 1.14-2.86 4.03-7.36 6.41-10zm149 6.11c-3-10-11-16-25-17l-5-.609 6 1.8c3.3.988 7.86 2.76 10.1 3.94 5.52 2.86 12 10.4 14.1 16.5.954 2.71 1.87 4.28 2.03 3.5.162-.782-.695-4.08-1.9-7.33zm-57.8-38.7c-.988-.980-1.1-.865-.560.560.376.986.935 1.54 1.24 1.23.308-.308.00064-1.11-.683-1.79zm-63.2 19c.688-.277 1.81-.277 2.5 0 .688.277.125.504-1.25.504s-1.94-.227-1.25-.504zm87.1-.0208c.722-.289 1.58-.253 1.92.0789.332.332-.258.569-1.31.525-1.16-.048-1.4-.285-.604-.604zm-72-36c-2.43-2.48-4.19-4.5-3.92-4.5.275 0 2.49 2.02 4.92 4.5s4.19 4.5 3.92 4.5c-.275 0-2.49-2.02-4.92-4.5zm55 2c1.29-1.38 2.57-2.5 2.85-2.5.275 0-.557 1.12-1.85 2.5s-2.57 2.5-2.85 2.5c-.275 0 .557-1.12 1.85-2.5zm-57.3-43c-1.4-1.6-3-3-3.5-3-.8 0-2.2-2.2-2.2-3.4 0-.444 10.4-2.7 13-2.82 4.6-.221 9.34.240 8.73.849-.332.332.606 1.7 2.08 3.04l2.7 2.4-3.9-2.6c-2.6-1.7-5.3-2.5-8.1-2.5-4.6 0-10.5 1.7-10.5 3 0 2 5.3 7 7.4 7 1.88 0 2.17-.444 1.83-2.81-.267-1.82.187-3.3 1.29-4.22 1.49-1.24 1.92-1.14 3.54.856 2.01 2.49 1.6 5.36-.647 4.5-.8-.3-1.4 0-1.4.5 0 .572 1.24 1.23 2.75 1.46 1.51.229-.247.484-3.91.566-6.2.2-6.8 0-9.1-2.8zm48.6 2.3c1.23-.319 1.6-1.06 1.19-2.35 0-2.4 2-6 4-6 1.57 0 3.5 2.98 3.5 5.4 0 .904-.575 1.31-1.4.998-.769-.295-1.7-.0561-2.06.531-1 .7 0 1.1 2 1.1 2.65 0 4.08-.730 6.06-3.08 2-1.7 3-3.4 3-3.9 0-.449-1.69-1.52-3.75-2.37-4.43-1.84-2.63-2.15 2.88-0.5 2.67 0.8 3.87 1.73 3.87 3 0 1.1 0 1.9-1 1.9-.586 0-2.2 1.35-3.59 3-2.36 2.81-2.95 2.99-9.19 2.88-3.66-.0638-5.85-.325-4.87-.581zm-4.11-7.64c1.48-1.35 2.41-2.73 2.08-3.06-.332-.332 1.38-.583 3.81-.559l4.42.0439-3.74 1.34c-2.06.734-4.98 2.09-6.5 3.02l-4 1.6z" fill="#1d2326"/>
 <path d="m18.1 195c2.17-11.7 5.68-17.9 12.6-22.3 2.56-1.62 5.12-2.93 5.7-2.9.580.0243-.554.894-2.52 1.93-5.87 3.1-10.6 9.17-12.9 16.6-1.1 4-2 8-2 10 0 1-.4 2-.9 2-.493 0-.488-2.06.0109-4.75zm73.2 1.79c.326-1.63.202-3.2-.275-3.5-.477-.295-1.42-2.9-2.09-5.79-.673-2.89-2.13-6.25-3.24-7.46l-2.01-2.21-2.7 3.71c-4.78 6.58-5.71 6.91-7.47 2.7-.845-2.02-3.79-6.78-6.55-10.6-2.7-4-5-7-5-8 0-1.27 6.99 8.2 10.2 13.8 1.8 3.15 3.62 5.73 4.05 5.75.425.0164 3.21-3.75 6.19-8.37 5.3-8.21 9.02-12 10.7-11 .5 1 .9 1 .9 1 0-.311-3.1-2.55-6.89-4.98s-7.61-5.45-8.5-6.72c-2.01-2.87-2.07-6.87-.143-9.41 2.01-2.65 1.9-7.37-.218-9.73-.962-1.07 2.08.790 6.75 4.14 4.68 3.35 9.93 6.87 11.7 7.81 3.05 1.65 3.34 1.64 6.77-.206 1.97-1.06 7.29-4.58 11.8-7.81 4.53-3.24 7.44-5.01 6.48-3.93-.962 1.07-1.75 2.73-1.75 3.68 0 .952-.45 1.45-1 1.11s-1 .0835-1 .941c0 .919-.865 1.56-2.11 1.56-1.16 0-5.22 1.69-9.01 3.75l-6.91 3.75-6.19-3.4c-9.9-5-13.5-6-13-1 .1 0-.3 1-.9 1-.5 0-1 1-1 3 0 3.45 1.94 4.14 2.12.75.0926-1.76.256-1.61.754.717.464 2.16 2.29 4.12 6.76 7.24 6.97 4.86 9.42 8.97 9.69 16.2l.2 5 4.67.627c2.57.345 5.6 1.4 6.75 2.35 2 1.66 2.02 1.94.593 7.23-.817 3.02-1.49 6.51-1.5 7.75-.0114 2.17-.344 2.25-9.14 2.25h-8.9zm89.2-1.75c-1.24-8.28-4.3-14.8-8.91-19.1-2.37-2.19-5.32-4.3-6.54-4.68-1.22-.388-2.01-.920-1.74-1.18.777-.777 7.99 3.27 10.4 5.82 3.23 3.46 7.1 12.6 7.88 18.6.850 6.52-.0839 7-1.05.539zm-60.4-11.9c-3.94-4.48-4.24-4.63-6-3.04-1.74 1.57-2.22 1.57-7.57-.0814l-5.72-1.76.665-4.52c1.31-8.88 3.59-11.6 16.4-19.5.888-.55 1.95-1.45 2.35-2 1.07-1.45.928-5.28-.220-5.99-.607-.375-.760.515-.399 2.32.336 1.68.117 3.22-.515 3.61-1.68 1.04-1.37-5.97.332-7.38 1.16-.959 1.77-.681 3.16 1.44 2.72 4.16.164 8.27-8.7 14l-7.23 4.68 3.17 2.48c1.74 1.37 4.38 4.59 5.87 7.16 3.41 5.92 7.32 11.2 8.3 11.2.418 0 1.34-1.41 2.05-3.13 1.19-2.88 8.85-14.1 11.2-16.4 1.62-1.58-.165 1.41-4.02 6.76-1.89 2.62-4.68 7.04-6.2 9.82l-2.76 5.05-4.15-4.71zm-12-12c1.24-1.59 1.21-1.62-.378-.378-.962.755-1.75 1.54-1.75 1.75 0 .823.821.293 2.13-1.37zm51.7-1.93c.722-.289 1.58-.253 1.92.0789.332.332-.258.569-1.31.525-1.16-.048-1.4-.285-.604-.604zm-118-1c.688-.277 1.81-.277 2.5 0 .688.277.125.504-1.25.504s-1.94-.227-1.25-.504zm113 0c.688-.277 1.81-.277 2.5 0 .688.277.125.504-1.25.504s-1.94-.227-1.25-.504zm-106-1c.688-.277 1.81-.277 2.5 0 .688.277.125.504-1.25.504s-1.94-.227-1.25-.504zm100 0c.688-.277 1.81-.277 2.5 0 .688.277.125.504-1.25.504s-1.94-.227-1.25-.504zm-78-37c-2.43-2.48-4.19-4.5-3.92-4.5.275 0 2.49 2.02 4.92 4.5s4.19 4.5 3.92 4.5c-.275 0-2.49-2.02-4.92-4.5zm55 2c1.29-1.38 2.57-2.5 2.85-2.5.275 0-.557 1.12-1.85 2.5s-2.57 2.5-2.85 2.5c-.275 0 .557-1.12 1.85-2.5zm-57.3-43c-1.4-1.6-3-3-3.5-3-.8 0-2.2-2.2-2.2-3.4 0-.444 10.4-2.7 13-2.82 4.6-.221 9.34.240 8.73.849-.332.332.606 1.72 2.08 3.09 2.46 2.27 2.37 2.25-1.06-.220-3.3-2.5-4.4-2.7-10.2-2.3-8 .5-9.2 1.5-7.1 5.6 1.6 3 3.4 4.2 6.5 4.2 1.4 0 1.7-.6 1.3-2.7-.6-3.2 2.3-6 4.5-4.2 1.5 1.3 1.8 6.3.3 5.4-.55-.340-1.56-.257-2.25.185-.813.522-.0265 1.02 2.25 1.43 2.69.480 1.96.655-3.16.756-6.2.1-6.8-.1-9.1-2.9zm48.6 2.3c.989-.257 1.73-1.22 1.63-2.13-.504-5.13 1.73-7.36 4.54-4.55 3 2.2 2 4.4 0 4.4-1.1 0-2 .45-2 1s1.54 1 3.41 1c2.59 0 4.04-.750 6.04-3.13 3.19-3.8 2.94-4.87-1.51-6.48-4.39-1.59-1.92-1.77 3.19-.237 2.67 0.8 3.87 1.73 3.87 3 0 1 0 1.8-1 1.8-.586 0-2.2 1.35-3.59 3-2.36 2.81-2.95 2.99-9.19 2.88-3.66-.0638-5.85-.326-4.86-.583zm-4.11-7.63c1.48-1.36 2.41-2.74 2.08-3.07-.332-.332 1.38-.557 3.81-0.5 4.4.102 4.4.105 1.05.897-1.85.437-4.78 1.77-6.5 2.97l-3 2.1z" fill="#491c01"/>
 <path d="m18.1 198c-.134-4.29 2.87-14.3 5.51-18.3 2.36-3.59 10.6-9.74 12.9-9.66.580.022-.296.749-1.95 1.62-7.91 4.16-12.5 11-15 22.7-.739 3.4-1.38 5.04-1.42 3.64zm73.3-.921c.326-1.63.202-3.2-.275-3.5-.477-.295-1.42-2.9-2.09-5.79-.673-2.89-2.13-6.25-3.24-7.46l-2.01-2.21-2.7 3.71c-4.78 6.58-5.71 6.91-7.47 2.7-.845-2.02-3.79-6.78-6.55-10.6-2.8-4-5.1-7-5.1-8 0-1.27 6.99 8.2 10.2 13.8 1.8 3.15 3.62 5.73 4.05 5.75.425.0164 3.21-3.75 6.19-8.37 5.3-8.21 9.02-12 10.7-11 .5 1 .9 1 .9 1 0-1-3.1-3-6.9-5-7.6-5-10.1-8-10.1-12 0-3.48 2.37-6.8 3.52-4.93.502.812.365 1.5-.347 1.73-1.8 0-1.5 6 .3 6 .825 0 1.5.340 1.5.756s2.7 2.55 5.99 4.75c6.82 4.55 9.75 9.32 10.2 16.6l.3 5 4.67.620c2.57.341 5.6 1.4 6.75 2.35 2 1.66 2.02 1.94.593 7.23-.817 3.02-1.49 6.51-1.5 7.75-.0114 2.17-.344 2.25-9.14 2.25h-8.9zm89.2-1.5c-1.29-8.54-4.31-15-8.96-19.3-2.37-2.19-5.32-4.3-6.54-4.68-1.22-.388-2.01-.920-1.74-1.18.786-.786 8.01 3.29 10.3 5.81 4.37 4.8 9.45 19.1 8.15 23-.259.762-.808-.846-1.22-3.57zm-60.4-12.1c-3.94-4.48-4.24-4.63-6-3.04-1.74 1.57-2.21 1.57-7.47-.0509l-5.62-1.73.586-4.05c1.13-7.8 3.82-11.7 11.4-16.6 7.33-4.69 9.28-7.71 7.16-11.1-1.82-2.91.545-3.26 2.44-.365 2.7 4.12.113 8.26-8.73 14l-7.23 4.68 3.17 2.48c1.74 1.37 4.38 4.59 5.87 7.16 3.41 5.92 7.32 11.2 8.3 11.2.418 0 1.34-1.41 2.05-3.13 1.19-2.88 8.85-14.1 11.2-16.4 1.62-1.58-.165 1.41-4.02 6.76-1.89 2.62-4.68 7.04-6.2 9.82l-2.76 5.05-4.15-4.71zm-13-13c1.24-1.59 1.21-1.62-.378-.378-.962.755-1.75 1.54-1.75 1.75 0 .823.821.293 2.13-1.37zm51.7-1.93c.722-.289 1.58-.253 1.92.0789.332.332-.258.569-1.31.525-1.16-.048-1.4-.285-.604-.604zm-118-1c.688-.277 1.81-.277 2.5 0 .688.277.125.504-1.25.504s-1.94-.227-1.25-.504zm113 0c.688-.277 1.81-.277 2.5 0 .688.277.125.504-1.25.504s-1.94-.227-1.25-.504zm-106-1c.688-.277 1.81-.277 2.5 0 .688.277.125.504-1.25.504s-1.94-.227-1.25-.504zm100 0c.688-.277 1.81-.277 2.5 0 .688.277.125.504-1.25.504s-1.94-.227-1.25-.504zm-31-16c0-1.1.45-2.28 1-2.62s1 .282 1 1.38-.45 2.28-1 2.62-1-.282-1-1.38zm-41.8-62.4c-.262-3.89 2.52-6.45 4.67-4.3 1.8 1.8 1.4 5.5-.7 5.3-.9 0-1.6.5-1.4 1.2.1.6-.4 1.2-1.1 1.2-.8 0-1.4-1.4-1.5-3.4zm-9.48-1.69c-2.09-2.25-3.66-4.18-3.5-4.27 1.7-1 11-2.6 15.2-2.6 4.06 0 5.53.401 6.01 1.64.526 1.37.379 1.43-.886.383-1.82-1.51-14-.999-15.6.658-1.25 1.25 1.15 6.78 3.31 7.65.699.281.821.539.271.572-.55.0334-2.71-1.78-4.8-4.04zm52.3 2.3c-1.07-4.47 1.88-7.41 4.66-4.64 2 2.2 1 4.4-1 4.4-1.1 0-2 .45-2 1 0 1.7-1.74 1.1-2.19-.75zm11.6-1.38c3.19-3.79 2.95-4.84-1.51-6.57-1.9-.737-2.32-1.09-.940-.795 1.38.296 3.74.809 5.25 1.14s2.75.913 2.75 1.29c-1 1.1-7 8.1-8 8.1-.447 0 .370-1.41 1.82-3.13zm-14.8-6.32c.399-1.04 1.8-1.52 4.24-1.45l3.64.102-3.09.738c-1.7.406-3.61 1.06-4.24 1.45-.749.463-.943.169-.556-.840z" fill="#100e0e"/>
</svg>
