<?xml version="1.0" encoding="UTF-8" standalone="no"?>
<svg xmlns:rdf="http://www.w3.org/1999/02/22-rdf-syntax-ns#" xmlns="http://www.w3.org/2000/svg" height="267" viewBox="0 0 266.66666 266.66666" width="267" version="1.1" xmlns:cc="http://creativecommons.org/ns#" xmlns:dc="http://purl.org/dc/elements/1.1/">
 <g stroke-width="1.33">
  <path d="m25 262c1.99-11 6.2-19.6 12.6-25.9 7.06-6.89 10.5-8.23 28.8-11 9.18-1.41 13-2.64 15.5-4.97 1.83-1.7 4.96-4.22 6.97-5.6s5.1-5.79 6.87-9.8c2.31-5.22 4.28-7.69 6.92-8.68 5.76-2.17 4.19-7.37-4.49-14.9-3.91-3.38-7.94-6.14-8.96-6.14-4.99 0-16.2-4.58-20.6-8.38-5.18-4.55-9.69-12.9-9.74-18.1-.0161-1.73-1.52-4.92-3.35-7.09-3.98-4.73-7.48-16-7.43-24 .0178-3.18-.171-13.3-.420-22.4-.456-16.8.638-22.8 5.05-28 .973-1.13 2.16-5.03 2.63-8.67 1.03-7.92 5.99-15.9 12.1-19.5 2.46-1.45 4.8-3.51 5.21-4.57.408-1.06 3.61-3.21 7.12-4.78 6.93-3.09 8.35-3.87 14.4-7.85 2.2-1.45 5.71-2.64 7.81-2.65 2.11-.0028 5.57-1.49 7.77-3.34 4.42-3.72 9.93-4.3 13.8-1.45 1.5 1.1 3.41 1.45 4.59.842 4.7-2.41 12.3-2.7 21.4-.802 11 2.3 19.4 6.71 28 14.7 3.43 3.21 8.4 6.29 11.6 7.2 5.93 1.68 10.6 6.36 12 12.1.467 1.9 2.78 5.85 5.14 8.78 9.51 11.8 13.5 26.6 10 37-1.36 4.11-1.21 5.49 1.05 9.92 5.33 10.5 4.86 20.9-1.2 26.4-1.73 1.57-2.62 4.09-2.62 7.48 0 4.24-.912 5.97-5.33 10.1-2.93 2.76-5.33 5.76-5.33 6.68-.005 3.95-10.4 12.8-21.5 18.4-18.6 9.35-27.9 20.3-19.1 22.5 2.53.635 4.26 2.74 6.6 8.04 1.93 4.36 5.1 8.66 8.09 11 2.71 2.08 6.07 4.86 7.48 6.19 1.65 1.56 6.89 3.08 14.8 4.3 18.5 2.85 21.9 4.17 28.9 11.1 6.49 6.49 12 19 12 27.1v3.74h-216z" fill="#d5c6b8"/>
  <path d="m25 263c5.15-24.4 15.4-33.8 40.7-37.4 8.89-1.27 13.6-2.6 15.5-4.37 1.48-1.4 4.91-4.25 7.61-6.32 2.99-2.29 6.16-6.59 8.09-11 2.32-5.25 4.08-7.4 6.54-8.02 2.95-.742 3.27-1.36 2.57-5.05-.439-2.31-.863-4.23-.941-4.27-.078-.0353-3.14-2.49-6.81-5.46-4.08-3.3-9.25-6.03-13.3-7.02-8.46-2.07-17.1-7.06-20.5-11.9-1.47-2.07-3.39-6.71-4.27-10.3-.878-3.61-2.9-8.37-4.49-10.6-1.59-2.2-3.62-5.8-4.5-8-2.1-5.26-3.62-26.6-2.99-42 .0604-1.47-.0121-5.67-.161-9.33-.227-5.59.414-7.64 3.99-12.7 2.9-4.11 4.26-7.59 4.26-10.9 0-4.54 5.57-16.4 7.72-16.4.519-.0065 4.38-2.96 8.59-6.56 4.2-3.6 9.6-6.97 12-7.5 2.4-.524 5.63-2.33 7.19-4 1.76-1.89 5.17-3.4 8.96-3.97 3.37-.505 6.79-1.72 7.6-2.7.816-.983 3.5-2.45 5.96-3.26 3.58-1.18 5.27-1.07 8.44.571 3.16 1.63 4.82 1.75 8.2.572 2.38-.830 8.3-1.19 13.5-.813 11.5.824 26.8 7.9 33.4 15.5 2.84 3.24 6.48 5.64 10.2 6.73 6.55 1.91 12.2 6.77 12.2 10.5 0 1.38 2.32 5.76 5.15 9.73 10.7 14.9 13.3 23.5 10.8 35.4-1.36 6.55-1.23 7.95 1.26 13.2 3.91 8.32 3.69 17.5-.556 23.8-1.83 2.7-3.33 6.78-3.33 9.06 0 3.06-1.32 5.4-5.04 8.94-2.77 2.64-5.85 6.77-6.86 9.19-2.37 5.72-10.4 12.2-22.4 18-18.8 9.12-25.1 17.6-16.7 22.4 2.13 1.21 5.26 5.22 7.29 9.33 2.29 4.65 5.35 8.38 8.59 10.5 2.77 1.8 6.11 4.35 7.42 5.67 1.31 1.31 4.19 2.39 6.39 2.39 7.65 0 24.6 4.22 30.3 7.55 8.73 5.07 14.7 15.5 17.1 30.1l.825 5h-215z" fill="#c4ac94"/>
  <path d="m25 264c3.54-15.7 7.59-23.6 15-29.3 6.27-4.79 11.8-6.59 27.6-8.93 6.17-.917 11.8-2.56 13.3-3.85 1.42-1.24 5.05-4.35 8.07-6.91 3.22-2.73 6.41-7.07 7.72-10.5 1.6-4.2 3.39-6.35 6.25-7.53 3.58-1.48 3.91-2.1 3.12-5.8-.488-2.28-.967-4.17-1.06-4.21-.0977-.0354-3.18-2.49-6.84-5.46-4.08-3.3-9.25-6.03-13.3-7.02-14.2-3.46-22.4-10.9-24.5-22-.628-3.36-2.68-8.36-4.57-11.1-4.85-7.05-6.24-11.4-6.24-19.7 0-3.98-.724-9.94-1.61-13.2-1.22-4.57-1.24-7.39-.0973-11.7.869-3.25 1.09-7.65.516-10.3-1.25-5.86.509-12.7 4.66-18.2 1.85-2.46 3.2-6.07 3.2-8.58 0-5.34 4.72-15.4 8.06-17.2 1.36-.726 5.17-3.66 8.47-6.52s8.29-5.94 11.1-6.85c2.78-.910 6.36-3.04 7.94-4.73 1.93-2.06 5.12-3.37 9.67-3.97 3.73-.495 6.79-1.35 6.79-1.91 0-.555 2.19-2.05 4.86-3.32 4.48-2.12 5.21-2.14 9.28-.201 3.51 1.68 5.27 1.81 8.62.640 2.47-.861 8.04-1.14 13.5-.685 11.8.987 23.6 6.37 31.7 14.4 3.61 3.58 8.21 6.6 11.6 7.58 5.93 1.75 12.4 8.14 12.4 12.2 0 1.34 2.14 5 4.76 8.14 9.68 11.6 13 22.4 11 35.4-1.03 6.59-.799 8.61 1.67 14.3 3.5 8.13 3.02 17.3-1.21 23.2-1.58 2.22-2.88 5.99-2.88 8.38 0 3.26-1.24 5.54-5 9.18-2.75 2.67-6.16 7.11-7.58 9.86-3.03 5.88-12.1 12.9-22.7 17.6-4.18 1.85-10.2 5.57-13.5 8.27-7.29 6.09-7.77 10.4-1.59 14.3 2.3 1.47 4.83 4.47 5.62 6.67 2.34 6.52 5.74 10.6 11.4 13.8 2.95 1.66 5.05 3.53 4.66 4.16-.907 1.47 2.01 2.26 12.4 3.38 19 2.04 29.8 7.28 35.6 17.2 3.25 5.63 7.36 18.1 7.36 22.3 0 2.32-4.48 2.42-108 2.42h-108zm164-103c3.52-4.67 1.99-3.7-3.87 2.46-3.11 3.26-3.87 4.53-1.86 3.08 1.87-1.35 4.45-3.85 5.73-5.54zm-115-5c-1.57-2.7-1.95-1.84-.665 1.52.457 1.19 1.11 1.89 1.46 1.54.343-.343-.0125-1.72-.791-3.06zm97.2-82.5c-.306-.222-2.36-1.46-4.56-2.75l-4-2.34 3.15 2.75c1.73 1.51 3.78 2.75 4.56 2.75.774 0 1.16-.182.852-.404zm-106-14.6c-.370-.917-.673-.167-.673 1.67 0 1.83.303 2.58.673 1.67.370-.917.370-2.42 0-3.33zm106-9.4c0-.239-1.65-1.89-3.67-3.67l-3.67-3.23 3.23 3.67c3.02 3.43 4.1 4.28 4.1 3.23zm-46.8-27.1c1.83-1.6-2.51-.114-4.63 1.59-2.44 1.96-2.4 1.98.745.486 1.83-.873 3.58-1.81 3.89-2.07zm5.08-1.29c-.443-.443-1.59-.490-2.56-.105-1.06.426-.748.742.806.806 1.41.0579 2.19-.257 1.75-0.7z" fill="#bda186"/>
  <path d="m25 264c5.65-26 16.3-35.4 43.6-38.3 5.6-.599 10.1-1.89 12-3.46 11.5-9.44 14.2-12.4 16.3-17.7 1.6-4.2 3.39-6.35 6.25-7.53 3.58-1.48 3.91-2.1 3.12-5.8-.488-2.28-.967-4.17-1.06-4.21-.0977-.0353-3.23-2.56-6.97-5.61-4.4-3.6-9.09-6.06-13.3-7.01-13.9-3.11-22.6-11.2-24.4-22.8-.577-3.65-2.26-7.97-3.74-9.6s-3.48-4.46-4.44-6.29c-1.86-3.56-4.21-23-4.12-34 .0312-3.67.0688-10.7.0838-15.6.0263-8.69 3.16-18.1 6.76-20.4.744-.460 1.35-3.01 1.35-5.67 0-5.76 4.59-15.9 8.06-17.7 1.36-.726 5.17-3.66 8.47-6.52s8.29-5.93 11.1-6.82c2.78-.890 6.56-3.01 8.4-4.72 1.86-1.73 5.96-3.52 9.29-4.06 3.27-.524 7.08-2 8.46-3.29 3.76-3.5 8.44-4.21 12.9-1.93 2.92 1.51 4.8 1.69 7.41.695 7.87-2.99 23.7-.569 35.5 5.43 2.66 1.36 7.46 5.06 10.7 8.24 3.46 3.43 8.09 6.44 11.4 7.41 5.93 1.75 12.4 8.14 12.4 12.2 0 1.34 2.19 5.04 4.87 8.23s6.36 9.02 8.18 13c2.97 6.44 3.24 8.38 2.62 19.2-.576 10.1-.261 13 1.98 18 3.24 7.32 2.72 16.8-1.23 22.4-1.48 2.11-3.06 6.23-3.51 9.16-.611 3.91-2.26 6.64-6.2 10.3-2.95 2.72-5.36 5.81-5.36 6.85 0 3.58-10.3 12.2-20.8 17.4-20.6 10.2-26.6 18.4-17.6 24.2 2.3 1.47 4.83 4.47 5.62 6.67 2.34 6.52 5.74 10.6 11.4 13.8 2.95 1.66 5.05 3.53 4.66 4.16-.907 1.47 2.01 2.26 12.4 3.38 19 2.04 29.8 7.28 35.6 17.2 3.25 5.63 7.36 18.1 7.36 22.3 0 2.32-4.48 2.42-108 2.42h-109zm164-103c4.68-6.07 3.08-5.22-3.8 2.02-3.49 3.67-4.61 5.42-2.7 4.23 1.78-1.11 4.71-3.92 6.5-6.25zm-114-4c-1.39-2.72-2.52-6.59-2.52-8.59s-.6-4.01-1.33-4.46c-3.19-1.97-.0272 11.3 3.73 15.7 2.93 3.39 2.95 2.92.127-2.62zm134-66.7c-.305-2.02-.555-.367-.555 3.67 0 4.03.250 5.68.555 3.67.306-2.02.306-5.32 0-7.33zm-132-.6c-.426-1.06-.742-.748-.806.806-.0579 1.41.257 2.19 0.7 1.75.4-.5.5-1.6.1-2.6zm97.8-15.4c-3.47-1.16-8.87-4.27-12-6.92-4.63-3.92-5.29-4.19-3.53-1.48 2.49 3.85 14.8 10.7 19 10.6 1.6-.0462.0836-1-3.46-2.19zm-109-12.8c.346-4.99.343-8.79-.0068-8.44-1.58 1.58-2.92 11.3-2.15 15.5 1.03 5.67 1.35 4.64 2.16-7.07zm109-9.7c-2.85-1.92-8.59-6.72-12.8-10.7-4.16-3.95-7.92-7.18-8.36-7.18-1.24 0 17.9 17.8 21.1 19.6 5.25 2.99 5.28 1.75.0343-1.77zm-55.9-26.1c2.93-1.58 8.03-3.68 11.3-4.66l6-1.78-5.92.717c-6.56.794-17.4 6.16-21 10.4-2.35 2.75-2.35 2.75.971.474 1.83-1.26 5.73-3.58 8.67-5.17z" fill="#b99d82"/>
  <path d="m25 264c5.82-26.3 16.3-35.4 43.9-38.3 6.34-.663 10.2-1.79 12-3.52 1.47-1.4 5.19-4.68 8.27-7.28 3.3-2.8 6.5-7.11 7.81-10.5 1.55-4.06 3.38-6.29 6.08-7.41 3.8-1.58 4.54-3.77 2.76-8.2-1.43-3.55-16.2-14.4-19.6-14.4-11.8 0-25.9-13.3-25.9-24.3 0-1.91-1.41-5.17-3.14-7.25-1.72-2.07-3.93-5.27-4.9-7.1-1.84-3.47-4.35-24.2-4.18-34.7.0515-3.3.103-10.2.115-15.3.0190-8.09.564-10.2 4.06-15.7 2.37-3.73 4.04-8.17 4.04-10.7 0-5.22 4.16-13.8 7.97-16.5 1.52-1.06 5.42-4.23 8.66-7.04 3.25-2.81 8.18-5.85 11-6.76 2.78-.908 6.71-3.03 8.74-4.71 2.02-1.68 6.35-3.46 9.62-3.95 3.27-.491 6.7-1.79 7.61-2.89 3.01-3.63 7.55-4.51 12.5-2.42 3.33 1.39 5.6 1.58 8.02.658 12.9-4.89 36.3 3.09 49 16.6 1.56 1.67 5.34 3.72 8.4 4.57 5.94 1.65 12.4 7.98 12.4 12.1 0 1.34 2.19 5.04 4.87 8.23s6.36 9.02 8.18 13c2.97 6.44 3.24 8.38 2.62 19.2-.576 10.1-.261 13 1.98 18 3.24 7.32 2.72 16.8-1.23 22.4-1.48 2.11-3.06 6.23-3.51 9.16-.611 3.91-2.26 6.64-6.2 10.3-2.95 2.72-5.36 5.75-5.36 6.73 0 3.32-11.3 12.7-21.3 17.7-13.6 6.76-21.4 13.5-21.4 18.3 0 2.76.868 4.08 3.28 5 2.09.793 4.64 4.01 7.03 8.86 2.67 5.42 5.55 8.85 9.98 11.9 3.43 2.36 5.89 4.63 5.48 5.05-.844.844.547 1.15 17.7 3.95 6.69 1.09 14.4 3.04 17.2 4.35 10.4 4.92 17.5 15.9 20 30.9l.943 5.67h-217zm163-101c6.5-7.4 4.93-7.9-2.48-.796-3.67 3.52-6.67 6.8-6.67 7.31 0 1.77 5.01-1.8 9.15-6.51zm-112-5c-2.43-4.62-3.93-9.48-3.93-12.7 0-3.18-.530-4.95-1.33-4.45-3.48 2.15.0451 15.7 5.63 21.6 1.56 1.66 3 3.02 3.2 3.02s-1.4-3.36-3.57-7.47zm-19.1-43c-2.42-3.46-2.87-2.32-.695 1.75.793 1.48 1.75 2.38 2.14 2 .382-.382-.267-2.07-1.44-3.74zm152-23.7c-.485-7.9-2.94-17.1-4.21-15.8-.286.286.359 3.82 1.43 7.85 1.8 6.75 1.73 13.2-.250 25.3-.301 1.83.377.633 1.51-2.67 1.33-3.89 1.87-9.05 1.52-14.7zm-154 15.7c-.426-1.06-.742-.748-.806.806-.0579 1.41.257 2.19 0.7 1.75.443-.443.490-1.59.105-2.56zm24.8-25.1.877-4.67-2.05 4.48c-1.13 2.46-2.3 8.46-2.61 13.3l-.566 8.85 1.74-8.67c.9-4.7 2.1-10.7 2.5-13.3zm-23.1 5.32c-.692-2.94-1.14-3.59-1.23-1.77-.137 2.91 1.18 7.57 1.93 6.82.220-.220-.0928-2.5-.695-5.06zm129-10.5c-1.47-.598-6.04-2.06-10.2-3.26-4.83-1.4-9.8-4.17-14-7.81-6.13-5.32-6.09-4.3.0983 2.8 4.56 5.22 14.6 9.11 24.1 9.3l2.67.0558-2.67-1.09zm-119-8.7c-.258-3.25.421-8.95 1.51-12.7 2.07-7.08.953-9.43-1.48-3.09-2.76 7.2-3.17 10-2.3 15.8 1.15 7.64 2.87 7.61 2.27-.0406zm114-14.3c-2.93-1.51-8.33-5.59-12-9.06-7.95-7.53-13.9-12.1-15.7-12.1-.735 0 .874 1.76 3.58 3.91 2.7 2.15 7.33 6.4 10.3 9.45 2.96 3.05 7.88 6.68 10.9 8.07 7.45 3.38 9.59 3.17 2.89-.284zm-54.5-30.4c3.99-1.49 8.42-2.71 9.86-2.71s2.62-.667 2.62-1.48c0-1.98-7.44-.539-15.4 2.98-6.33 2.8-16.6 11.1-16.6 13.4 0 .710 2.76-1.14 6.14-4.11s9.4-6.62 13.4-8.11z" fill="#b69574"/>
  <path d="m25.8 261c.648-3.47 2.9-9.99 5.01-14.5 6.03-12.9 17.1-19 38.8-21.3 5.69-.604 9.58-1.79 11.3-3.44 1.47-1.39 5.18-4.65 8.26-7.25 3.3-2.8 6.5-7.11 7.81-10.5 1.55-4.06 3.38-6.29 6.08-7.41 3.79-1.57 4.56-3.81 2.76-8.12-1.59-3.81-15.9-14.5-19.4-14.5-11.8 0-26.2-13.6-26.2-24.7 0-1.73-1.41-4.84-3.14-6.91-1.72-2.07-3.93-5.27-4.9-7.1-1.78-3.35-4.32-24-4.18-34 .0412-2.93.102-9.86.135-15.4.0525-8.83.548-10.8 4.07-16.4 2.21-3.48 4.01-8.13 4.01-10.3 0-2.2.817-5.95 1.82-8.34 2.33-5.58 19.2-20.1 25.8-22.3 2.79-.909 6.7-3.01 8.69-4.67s6.19-3.43 9.33-3.95c3.14-.513 6.99-2.11 8.56-3.54 3.27-3.01 10.1-3.62 13.1-1.17 1.54 1.28 3.02 1.33 6.25.202 9.07-3.16 25.3-.655 35.8 5.52 2.57 1.51 7.37 5.3 10.7 8.43 3.64 3.45 8.19 6.27 11.6 7.15 6.12 1.61 12.4 7.88 12.4 12.4 0 1.5 2.16 5.13 4.8 8.04 7.52 8.33 11.2 17.5 11.1 27.7-.113 12.2-1.86 15.3-2.05 3.61-.168-10.3-2.44-17.9-8.22-27.6-3.53-5.88-3.64-5.94-4.05-2.38-.667 5.8-2.91 4.26-2.92-2-.003-3.27-1.11-7.48-2.61-9.94-3.12-5.11-10.6-9.48-12-7.07-.635 1.03-2.03-.135-4.01-3.34-4.35-7.04-12.2-12.2-24.5-16.1-12.4-3.96-20.1-3.79-30.8.687-6.22 2.6-6.47 2.62-3.67.234 1.65-1.4 3-2.91 3-3.34 0-1.82-11.6-.619-14.7 1.52-1.81 1.27-3.9 2.38-4.63 2.46-.734.0856-2.36.247-3.62.359-2.95.262-11.7 7.94-11.7 10.3 0 .981-.687 2.21-1.53 2.73-1.05.649-1.32-.135-.866-2.51l.661-3.46-4.97 2.53c-5.14 2.62-12 9.68-12 12.4-.0129.995-.444.896-1.18-.273-1.62-2.55-3.5-1.04-7.75 6.2-2.99 5.1-3.66 7.86-3.68 15.2-.0315 8.47-.160 8.84-2.12 6.26-2.04-2.68-2.13-2.62-3.67 2.51-2.23 7.43-1.97 12.5 1.04 20.6l2.62 7.01-2.8-3.33-2.8-3.33.924 10.7c.508 5.87.869 13 .801 15.8-.184 7.72 2.25 13.9 8.84 22.6 3.9 5.1 4.99 7.25 3.19 6.29-6.04-3.23-1.39 6.59 6.49 13.7 4.69 4.24 13.1 8.93 16.1 8.93.530 0-.803-3.45-2.96-7.67-3.85-7.52-3.91-7.97-3.18-23 .410-8.43 1.14-16.8 1.62-18.7.798-3.05.603-2.97-2.28.922-4.09 5.53-18 17.9-16.1 14.3.813-1.52 2.41-3.53 3.54-4.48 3.35-2.78 9.69-14.8 12-22.7 1.16-4.03 3.02-13.8 4.13-21.8 3-21.4 7.06-27.6 18.2-27.6 3.49 0 6.71.6 7.16 1.33 1.67 2.7 2.67 1.18 2.74-4.18.0945-7.32 4.15-11 9.94-8.95 6.32 2.2 11.6 9.41 14.6 20.1 6.59 22.9 10.4 29.9 19.5 35.2 6.64 3.89 16.2 4.92 25.8 2.77 4.25-.957 4.4-.894 1.7.698-2.9 1.71-2.91 1.78-.375 3.37 4.82 3.01 7.08 9.44 6.22 17.7-.806 7.71-5.74 22.7-12 36.3-1.93 4.22-3.25 7.67-2.93 7.67 1.98 0 18.2-10.5 22.4-14.4 2.75-2.62 5-4.16 5-3.43 0 2.92-11.9 12.6-21.3 17.2-13.6 6.76-21.4 13.5-21.4 18.3 0 2.76.868 4.08 3.28 5 2.09.793 4.64 4.01 7.03 8.86 2.67 5.42 5.55 8.85 9.98 11.9 3.43 2.36 5.92 4.61 5.54 4.99-.968.968 2.83 1.9 12 2.95 19.1 2.18 29.6 7.15 35.7 17 3.08 4.93 7.77 19.1 7.77 23.6 0 1.06-30 1.47-108 1.47h-108zm169-104c0-.591 3.6-4.45 8-8.57s8-8.63 8-10c0-2.43-.0897-2.43-2.67-.0973-4.25 3.85-3.08.231 1.27-3.94 5.38-5.15 8.08-11.4 7.96-18.3-.098-5.6-3.59-17.4-3.8-12.9-.0557 1.24-.615 2.57-1.24 2.96-.627.388-.857-.777-.511-2.59.921-4.82 2.78-4.04 5.69 2.37 3.54 7.81 3.31 15.1-.719 22.1-1.82 3.19-3.32 6.98-3.32 8.42s-.681 3.93-1.51 5.53c-1.51 2.9-10.2 11.6-11.5 11.6-0.4 0-1.82.993-3.17 2.21-1.34 1.21-2.44 1.72-2.44 1.13zm-4-8.55c0-.605 3-4.98 6.66-9.73s7.52-11 8.57-13.8c1.13-3.09 1.94-4.13 1.97-2.54.112 4.63-5.08 14.2-11.3 20.9-3.28 3.5-5.96 5.87-5.96 5.27zm-132-20c0-.319.608-2.18 1.35-4.13.743-1.95 2.56-11.1 4.03-20.4 4.84-30.5 9.99-40.4 25.1-48.2 4.57-2.36 12.1-2.03 14.7.655 2.04 2.14 1.99 2.19-.731.8-4.63-2.37-8.59-1.75-16 2.49-9.58 5.49-13.8 14.6-18.5 39.3-3.13 16.7-7.2 30-9.22 30-.408 0-.742-.261-.742-.580zm136-5.82c5.88-6.5 8.15-24.9 4.25-34.6l-1.99-4.96 2.59 3.06c5.54 6.54 5.22 25.1-.582 33.8-1.86 2.82-4.07 5.12-4.91 5.12-.898 0-.632-.983.650-2.4zm-23-33c-13.4-2.98-21.8-10.3-26.8-23.5-5.27-13.8-13.8-22.3-22.5-22.3-4.23 0-11.3 3.5-11.3 5.59 0 .837-.402 1.12-.894.627-1.54-1.54 4.89-7.22 9.16-8.07 10.6-2.12 22.9 7.01 27.9 20.7 1.6 4.38 4.6 10.3 6.68 13.2 3.62 4.99 14.7 11.9 19.1 11.9 1.12 0 2.04.6 2.04 1.33 0 .733-.15 1.26-.333 1.18-.183-.0851-1.53-.421-3-.747zm1.92-22.3c-8.83-2.38-13.8-6.5-21.3-17.6-3.66-5.42-8.41-10.8-10.6-11.9-8.25-4.27-22.1-1.64-29.7 5.63-2.02 1.93-3.67 2.85-3.67 2.05 0-2.1 7.86-8.43 13.3-10.7 3-1.26 7.57-1.75 13-1.4 9.83.626 12.9 3.04 23 18 7.02 10.4 11.8 13.6 22.1 14.7 4.77.492 6.84 1.18 5.72 1.89-2.29 1.45-4.45 1.33-11.8-.662zm-104-7c1.02-11.4 7.2-17.7 17.4-17.7 4.31 0 14 3.06 14 4.41 0 .302-2.62-.0493-5.82-.781-12.3-2.8-19.2 1.3-23.7 13.9l-2.53 7.07zm33.8-13.6c0-.458 1.49-3.03 3.32-5.72 6.38-9.39 27.9-17 43.2-15.2 9 1.05 19 5.28 23 9.78l3.13 3.46-4-2.75c-11-7.52-30.5-9.29-46.9-4.24-7.18 2.21-10.5 4.17-15.5 9.14-3.48 3.48-6.33 5.95-6.33 5.49zm-5.33-9.37c0-5.23 6.81-14.8 10.6-14.8 1.46 0 .949 1.06-1.71 3.52-2.09 1.94-4.64 5.54-5.67 8-1.82 4.37-3.17 5.74-3.17 3.23z" fill="#ac8864"/>
  <path d="m26.4 259c5.01-21.5 15-29.8 39.8-33.2 8.13-1.11 12.9-2.45 14.7-4.13 1.47-1.37 5.02-4.42 7.89-6.78s6.38-6.9 7.79-10.1c1.46-3.3 4.23-6.75 6.44-8 3.85-2.19 4.52-4.21 2.79-8.4-1.45-3.53-15.6-14.5-18.7-14.5-12.1 0-26.9-13.5-26.9-24.5 0-1.8-1.41-4.97-3.14-7.04-1.72-2.07-3.9-5.21-4.83-6.98-1.66-3.15-4.4-25.6-4.24-34.8.0448-2.57.103-9.19.129-14.7.0419-8.84.531-10.8 4.06-16.4 2.21-3.48 4.03-7.96 4.04-9.95.0454-5.61 4.46-14 9.45-18 2.49-1.99 6.02-5.05 7.86-6.8 3.77-3.59 8.31-6.14 10.9-6.12.965.0069-.646 1.46-3.58 3.22-2.93 1.77-6.46 5.13-7.83 7.47-1.54 2.63-2.85 3.69-3.42 2.76-1.31-2.11-5.96 3.15-9.3 10.5-1.5 3.3-2.78 9-2.84 12.7-.0896 4.86-.422 5.94-1.23 4-.985-2.38-1.33-2.14-3.24 2.29-2.69 6.24-2.74 15.7-.119 22 1.11 2.66 1.72 5.12 1.36 5.48-.359.359-1.03-.333-1.49-1.54-.462-1.2-1.46-2.19-2.22-2.19-.912 0-1.04 2.83-.376 8.33.553 4.58 1.17 11.9 1.37 16.3.441 9.62 3.12 16.5 9.45 24.2 2.6 3.17 3.78 5.4 2.64 4.96-5.29-2.03.390 10.1 7.29 15.5 4.9 3.88 13.1 7.97 15.9 7.97.769 0-.211-3.15-2.18-7-3.99-7.81-4.76-18.4-2.69-37l1.11-10-3.15 5.01c-2.98 4.74-13.1 14.2-13.1 12.3 0-.498 1.59-2.79 3.54-5.1 7-8.29 12.4-25.1 14.5-45.5.984-9.47 5.02-18.6 9.49-21.6 3.15-2.07 10-1.95 15.5.252 1.97.794 2.33.177 2.33-3.96 0-7.12 2.01-10.1 6.87-10.1 7.11 0 12.4 7.39 17.9 25.2 4.98 15.9 6.76 19.7 12.4 26 5.77 6.39 12.7 9.16 21.6 8.65 4.31-.244 7.84-.034 7.84.467-.001.501 1.2 1.29 2.68 1.76 9.99 3.17 8.36 24.7-3.93 51.9-2.29 5.07-4 9.65-3.8 10.2.538 1.38 18-9.52 23.2-14.5 5.94-5.65 5.68-4.2-.460 2.6-2.93 3.25-9.27 7.64-15.7 10.9-14.7 7.41-22.1 13.6-22.1 18.6 0 2.89.835 4.19 3.28 5.12 2.1.799 4.63 4.01 7.06 8.97 2.77 5.65 5.48 8.86 10.1 12 3.48 2.35 6.28 4.75 6.23 5.33-.0487.588 5.07 1.75 11.4 2.59 18.6 2.47 23.1 4.2 30.7 11.7 6.6 6.62 9.64 13.1 12.1 25.7l.841 4.33h-215zm170-103c0-.675 2.37-2.87 5.27-4.88 5.67-3.93 8.49-7.55 9.75-12.5.779-3.07.745-3.08-1.97-.667-2.71 2.41-2.74 2.4-1.31-.320 0.8-1.53 2.43-3.58 3.62-4.57 3.67-3.05 6.21-9.35 6.21-15.4 0-6.9-2.59-15.6-4.33-14.5-.674.417-1.23.122-1.23-.654 0-3.34 3-.968 5.37 4.25 3.56 7.85 3.34 15.2-.668 21.7-1.81 2.93-3.3 6.71-3.33 8.4-.0623 4.59-3.24 9.86-8.2 13.6-8.46 6.38-9.17 6.81-9.17 5.59zm-3.36-9.44c2.36-4.07 14-18.9 14-17.8 0 2.08-7.56 12.9-11.4 16.3-2.05 1.83-3.25 2.5-2.66 1.48zm-131-24c-.0598-.540 1.14-8.85 2.68-18.5 3.15-19.8 6.33-30.2 11.5-37.7 3.78-5.45 15.2-12.9 19.7-12.8 1.62.0280.784.719-2.15 1.77-15.1 5.4-20.3 14.8-25.8 47.4-1.82 10.6-5.53 23.1-5.89 19.8zm137-6.84c2.27-5.27 2.7-8.57 2.33-17.6-.495-11.8 1.25-12 2.45-.207.828 8.09-1.18 16.7-4.93 21.1-2.54 3.01-2.54 2.88.148-3.36zm15.6-30.3c-1.03-9.72-3.8-17.8-8.92-25.9-2.53-4-3.49-4.75-3.86-3-.901 4.32-2.61 2.38-3.3-3.75-.732-6.5-4.28-11.4-10.6-14.7-4.44-2.31-5.48-2.36-4.33-.207.491.917-1.64-1.21-4.74-4.72-12.3-14-37.3-20.8-51.8-14.3-6.87 3.12-8.33 3.34-4.78.746 5.89-4.31-5.86-5.67-12.2-1.42-2.11 1.41-4.63 2.39-5.59 2.19-2.01-.424-13.6 6.04-13.6 7.59 0 .562-.892 2.19-1.98 3.61-1.91 2.49-1.97 2.47-1.67-.745.430-4.53 7.81-10.2 14.7-11.4 3.09-.507 6.52-1.71 7.62-2.68 4.09-3.6 8.77-4.52 12.7-2.5 2.82 1.46 4.83 1.6 8.51.574 6.93-1.93 14.6-1.67 22.9.773 9.17 2.69 15 6.13 22.6 13.3 3.48 3.29 8.41 6.39 11.7 7.36 6.17 1.81 12.3 7.76 12.3 12 0 1.42 2.56 5.73 5.7 9.58 7.73 9.48 10.5 17.3 10 27.9l-0.4 8.45zm-52.5-.373c-6.13-2.85-15.2-11.6-15.2-14.7 0-.673-2.1-5.6-4.68-10.9-4.91-10.2-9.7-14.8-17.1-16.6l-4.18-.997 4-.131c8.58-.282 17.1 8.09 23.4 23.1 4.49 10.6 8.79 15.6 16.9 19.5 5.44 2.63 6.99 3.89 4.75 3.86-.55-.0072-4.04-1.43-7.76-3.16zm7.67-20.2c-6.9-3-10.7-6.56-17.4-16.2-3.4-4.9-7.84-10.1-9.88-11.6-4.99-3.67-16.1-3.54-23.8.294-7.34 3.63-8.08 2.94-1.06-1.01 3.15-1.77 8.57-3.3 13-3.65 9.47-.770 15.2 1.95 20.9 9.87 2.22 3.11 5.84 8.17 8.04 11.3 4.85 6.8 11.3 10.8 19.3 11.9l6.02.848-5.33.126c-2.93.0693-7.32-.738-9.76-1.79zm-100-3.2c-.224-4.58 2.79-11.7 6.4-15.2 4.33-4.15 12.2-5.81 17.5-3.68 2.9 1.18 2.43 1.37-3.62 1.44-5.78.0702-7.73.769-11.6 4.14-2.54 2.23-5.52 6.58-6.61 9.67s-2.03 4.71-2.08 3.61zm44.3-17.6c1.4-1.28 3.53-2.3 4.73-2.25 1.38.0534.986.564-1.08 1.39-1.79.716-3.92 1.73-4.73 2.25-.807.520-.323-.104 1.08-1.39zm-8.42-.707c0-.770 2.75-3.82 6.1-6.77 13.2-11.6 36.9-14.7 53.4-6.99 4.7 2.2 8.55 4.34 8.55 4.76s-2.32-.418-5.15-1.86c-8.83-4.5-21.3-6.13-32.2-4.19-10.9 1.95-24.1 8.09-28 13-1.48 1.88-2.69 2.79-2.69 2.02zm-5.28-10.3c-.0675-3.42 3.21-8.16 7.02-10.1l2.93-1.52-2.84 3.18c-1.56 1.75-3.79 4.98-4.95 7.18-1.72 3.25-2.12 3.5-2.16 1.3z" fill="#a7815b"/>
  <path d="m26.4 259c4.99-21.4 15.2-29.8 39.9-33.2 8.05-1.11 12.8-2.44 14.6-4.13 1.47-1.37 5.02-4.42 7.89-6.78s6.38-6.9 7.79-10.1c1.46-3.3 4.23-6.75 6.44-8 2.51-1.43 3.87-3.28 3.88-5.27.009-3.11-6-9.55-14.3-15.3-6.78-4.7-7.58-7.71-8.05-30.3-.235-11.4-.747-22.1-1.14-23.9l-.712-3.22-2.42 3.89c-2.75 4.42-12.1 13.7-12.1 12 0-.612 2.32-3.63 5.15-6.7 6.74-7.31 10.2-16.9 13.7-38.2 3.14-18.9 5.81-24.8 12.1-27 2.7-.948 4.8-.704 8.29.961l4.68 2.23v-5.4c0-2.97.621-6.56 1.38-7.98 2.72-5.09 12.1-2.16 15.7 4.89.786 1.54 3.56 11.1 6.17 21.3 5.16 20.2 7 23.7 14.8 28.2 4.28 2.45 7.27 2.98 16.8 3l11.6.0219 2.15 4.15c3.56 6.88 3.76 16.6.664 31.6-1.56 7.58-4.02 16.9-5.46 20.7-1.44 3.79-2.62 7.32-2.62 7.85-.00086 1.23 15-7.48 22-12.7l5.33-4.03-4.57 4.88c-2.51 2.69-9.41 7.39-15.3 10.5-14.3 7.39-21.6 13.5-22.4 18.5-.486 3.31-.007 4.11 3.11 5.2 2.63.917 4.77 3.51 7.49 9.05 2.79 5.7 5.49 8.9 10.1 12 3.48 2.35 6.29 4.75 6.25 5.33-.0363.588 5.74 1.84 12.8 2.79 26.5 3.53 36.3 12.4 41.2 37.3l.855 4.33h-218zm50.5-88.3c-9.94-4.7-16.9-13.4-16.5-20.6.0661-1.24.649-.447 1.29 1.75 1.92 6.54 8.76 13.5 17.5 17.9 9.56 4.78 7.62 5.57-2.23.917zm126-21c4.22-4 7.67-7.91 7.67-8.69 0-.782.412-2.52.916-3.86.835-2.23.696-2.27-1.57-.442-1.37 1.1-.353-1.11 2.25-4.91 6.26-9.13 7.13-14.3 3.98-23.7-2.98-8.82-2.46-9.64 1.12-1.75 3.63 7.99 3.38 15.5-.703 21.5-1.83 2.7-3.33 6.36-3.33 8.12 0 5.62-2.89 9.86-10.5 15.5l-7.45 5.46zm-144-6c-5.96-6.36-8.05-12.2-9.44-26.3-1.34-13.6-1.33-13.3-.738-31.4.347-10.6.852-12.8 4.06-17.6 2.02-3.05 3.68-7.2 3.7-9.24.0450-5.68 4.43-14.1 9.45-18.1 2.49-1.99 6.02-5.05 7.86-6.8 3.77-3.59 8.31-6.14 10.9-6.12.965.0069-.799 1.54-3.92 3.41s-6.63 5.25-7.8 7.51c-1.35 2.61-2.47 3.55-3.08 2.57-.655-1.06-1.84-0.6-3.78 1.47-4.52 4.82-8.26 14.5-8.39 21.7-.0860 4.66-.435 5.87-1.16 4.01-.942-2.41-1.25-2.25-3.35 1.81-2.43 4.71-2.49 18.1-.105 23.5 1.08 2.46.983 2.51-1.29.667-2.37-1.92-2.43-1.62-1.41 8 .581 5.5.996 12.1.921 14.7-.215 7.42 3.42 18 8.46 24.6 5.41 7.09 4.96 7.98-.885 1.75zm135 .891c6.1-8.73 11.2-15.1 11.6-14.7.898.898-5.85 10.6-9.78 14.1-3.02 2.67-3.38 2.78-1.83.557zm-132-25c.358-2.2 1.56-10 2.68-17.3 2.97-19.5 6.69-30.2 13-37.4 4.84-5.5 11.2-10 13.9-9.89.586.0324-1.15 1.23-3.86 2.66-10.2 5.36-15.4 16.2-19.8 40.6-1.51 8.44-3.62 17.6-4.68 20.4-1.69 4.39-1.85 4.52-1.28 1.01zm137-4.17c1.99-4.46 2.93-9.3 3-15.4.0948-8.94 1.82-8.62 2 .371.121 6.12-3.34 17.8-5.91 19.9-1.4 1.17-1.14-.262.909-4.84zm16-27.4c-.523-13.1-9.86-34.3-14.4-32.6-1.36.521-1.88-.357-1.88-3.13 0-2.21-1.49-5.62-3.49-8.01-3.41-4.05-10.1-8.33-12.1-7.83-.572.139-4.11-2.78-7.86-6.48-12.1-11.9-34.9-17.1-48.4-11-4.67 2.12-5.49 2.23-4.09.536 4.44-5.35-8.6-5.72-14.3-.398-1.73 1.62-3.14 2.4-3.13 1.72.005-.678 1.99-2.58 4.42-4.23 4.72-3.21 11.4-3.94 13.9-1.51 1.09 1.09 3.29 1.02 8.31-.263 13.4-3.44 32.1 2.53 44.1 14.1 3.58 3.46 8.31 6.48 11.7 7.48 6.44 1.89 12.3 7.81 12.3 12.5 0 1.69.999 3.89 2.22 4.9 3.52 2.9 10.7 14.8 12.4 20.6.861 2.9 1.33 8.58 1.05 12.6-.513 7.3-.517 7.3-.762 1.14zm-54.6-3.98c-7.02-3.47-11.3-8.85-15.7-20-4.32-10.7-8.63-16.4-14.9-19.9-3.41-1.87-3.9-2.44-1.6-1.84 8.23 2.13 15.5 10.4 19.4 22 2.49 7.47 9.85 16.4 16.4 19.8 6.64 3.51 3.6 3.38-3.53-.150zm9.62-19.1c-5.67-2.47-13.2-9.34-16.7-15.2-4.48-7.51-10.5-13.4-15.4-15-4.97-1.64-13.6-.638-19.7 2.31-3.67 1.75-3.78 1.73-1.39-.170 5.79-4.61 17.8-6 25.1-2.89 5.07 2.16 8.56 5.91 13.4 14.4 4.64 8.13 13.2 15.4 20.1 16.9 3.64.818 4.35 1.26 2.14 1.32-1.83.0498-5.18-.713-7.44-1.7zm-99.8-6.9c2.48-11 11.3-17.8 20.4-15.9l4.94 1.06-6.67.799c-9.23 1.11-11.9 2.91-16 11-2.54 4.95-3.34 5.84-2.7 3.02zm39.8-20.2c9.4-10.4 34.5-15.7 50-10.5 3.74 1.24 7.13 2.79 7.53 3.44.402.651-1.47.264-4.16-.861-15.1-6.3-41-1.85-53.9 9.26-2.73 2.35-2.65 2.11.465-1.33zm-22.6-7.7c.110-1.89.622-3.45 1.14-3.45.517-.000517 2.44-1.5 4.27-3.33s4.71-3.32 6.39-3.3c2.65.0263 2.47.323-1.37 2.21-2.44 1.2-5.83 4.24-7.53 6.75-3 4.42-3.1 4.45-2.9 1.12zm12.9 2.44c.009-2.17 5.24-9.89 6.71-9.89.781 0-.235 2.25-2.26 5s-3.85 5.25-4.07 5.56c-.213.306-.385.0056-.382-.667z" fill="#a37c55"/>
  <path d="m26.4 259c4.99-21.4 15.2-29.9 39.9-33.2 7.67-1.02 12.8-2.42 14.6-3.95 1.47-1.3 5.44-4.82 8.82-7.82 3.47-3.08 6.68-7.34 7.38-9.8.743-2.59 2.95-5.42 5.48-7.01 7.53-4.74 6.03-8.21-8.8-20.4-3.19-2.63-6.41-6.31-7.16-8.18-.746-1.87-1.55-13.2-1.79-25.3-.399-20.2-1.78-28.2-3.79-21.9-.443 1.39-3.31 4.91-6.37 7.8l-5.57 5.26 4.74-5.71c6.5-7.84 9.95-17.6 13.3-37.8 2.96-17.8 5.26-23.5 11.1-27.3 3.16-2.07 3.88-2.09 8.73-.180l5.29 2.08v-5.69c0-8.79 5.36-12.5 11.7-8.02 4.51 3.16 6.69 8.41 11.7 28.2 6.48 25.7 11 30.1 31.7 30.2 13.3.111 13.4.194 15.6 11.3 1.5 7.93-1.08 25.5-6.08 41.4-1.73 5.5-3.14 10.5-3.13 11.1.008.591-3.25 3.76-7.24 7.04-8.89 7.32-10.7 13-4.71 15.1 2.63.917 4.77 3.51 7.49 9.05 2.79 5.7 5.49 8.9 10.1 12 3.48 2.35 6.29 4.75 6.25 5.33-.0363.588 5.74 1.84 12.8 2.79 26.5 3.53 36.3 12.4 41.2 37.3l.855 4.33h-216zm153-87c2.83-1.62 8.83-5.57 13.3-8.78 8.13-5.8 8.16-5.81 3.68-1.1-2.48 2.61-7.96 6.58-12.2 8.84-8.75 4.67-12.6 5.5-4.83 1.04zm-102-1c-9.91-4.68-16.8-13.2-16.6-20.6.0322-1.24.885.0711 1.89 2.9 2.56 7.18 8.03 12.5 17.4 17 4.4 2.11 7.1 3.83 6 3.82-1.1-.007-5-1.43-8.67-3.16zm126-21c3.45-3.19 7.15-7.9 8.22-10.5 1.15-2.76 1.99-3.69 2.06-2.27.197 4.35-3.53 9.56-10.1 14.1l-6.46 4.46zm-145-5.89c-2.38-2.61-5.16-6.66-6.2-9-1.68-3.8-4.63-26.8-4.32-33.6.0669-1.47.163-7.44.213-13.3.0504-5.84.916-12.6 1.92-15 2.71-6.5 3.28-5.31 1.07 2.24-1.68 5.73-1.69 7.61-.0619 14 1.65 6.48 1.64 7.18-.0817 5.75-1.71-1.42-1.85-.333-1.15 8.34.447 5.48 1.02 13.6 1.27 18 .484 8.47 3.61 16 9.64 23.2 4.82 5.73 3.02 5.29-2.31-.569zm140-4.75c2.19-2.48 4.53-5.1 5.19-5.83.660-.733.145.516-1.14 2.78-1.29 2.26-3.62 4.89-5.19 5.83-2.12 1.28-1.83.576 1.14-2.78zm14.4-7.55c3.98-4.4 6.55-12.5 5.78-18.2-.510-3.74-.374-4.58.445-2.74 2.32 5.24 1.46 12-2.26 17.7-2 3.08-4.19 5.6-4.87 5.6-.683 0-.272-1.07.914-2.38zm-149-12c-.0630-.562 1.08-8.48 2.54-17.6 3.32-20.7 6.84-30.3 13.7-37.3l5.3-5.41-4.78 5.85c-5.6 7-7.9 13.4-11.4 32.8-2.5 13.7-5 23.7-5.3 21.7zm139-9.76c.064-1.55.380-1.87.806-.806.385.962.338 2.11-.105 2.56-.443.443-.758-.344-0.7-1.75zm1.44-7.22c0-1.83.303-2.58.673-1.67.370.917.370 2.42 0 3.33-.370.917-.673.167-.673-1.67zm12-14.1c-.303-8.01-4.32-20.4-9.04-27.9-2.85-4.51-2.91-4.82-.430-2 1.61 1.83 4.68 7.03 6.81 11.5 3.28 6.95 3.8 9.5 3.4 16.7-.447 7.94-.492 8.04-.734 1.67zm-56.3-4.51c-4.92-2.6-10.9-10.2-12.6-16-2.11-7.22-7.45-15.9-12.2-20-4.97-4.2-4.98-4.23-.782-2.14 5.46 2.72 10.1 8.92 13.6 18 3.53 9.31 9.04 17.2 13.8 19.6 2.06 1.07 3.75 2.23 3.75 2.57 0 .862-.0335.849-5.42-2zm-103-24c1.39-8.79 4.24-13.9 10.2-18.4 2.75-2.05 5.44-4.4 5.97-5.23 1.41-2.19 6.53-5.33 10.4-6.37 2.21-.597 1.65.0205-1.65 1.83-2.74 1.5-5.96 4.22-7.15 6.04s-2.89 3.31-3.77 3.31c-4.65 0-12.8 13.5-12.8 21.3 0 2.22-.510 4.04-1.13 4.04-.624 0-.669-2.94-.101-6.54zm106 1.13c-1.92-1.51-6.55-7.18-10.3-12.6-6.89-9.97-11.1-12.8-21.2-14.4-2.72-.434-2.54-.565.973-.714 9.48-0.4 17.6 5.32 23.4 16.5 1.14 2.2 4.33 6.25 7.09 9 5.51 5.49 5.56 6.54.113 2.26zm-91.1-4.3c0-2.37 4.19-8.89 6.96-10.8 1.63-1.14 4.19-2.06 5.67-2.03 2.03.0392 1.66.508-1.5 1.88-2.31 1.01-5.76 4.12-7.67 6.92-1.9 2.8-3.46 4.63-3.46 4.05zm128-4.4c0-3.9-4.37-9.59-9.63-12.5-2.86-1.61-5.5-2.63-5.87-2.27-.362.362-3.36-2.23-6.66-5.76-11.5-12.3-35.4-18.2-49.1-12.1-4.92 2.17-5.98 2.34-4.64.726 1.44-1.74 1.41-2.32-.174-3.38-2.38-1.59-10.2-.550-13.1 1.76-1.23.948-.820.374.906-1.28 3.39-3.23 10.7-4.07 13.3-1.51 1.09 1.09 3.21 1.04 8.01-.186 13.4-3.43 32.4 2.54 44.4 13.9 3.3 3.14 8.78 6.73 12.2 7.97 3.39 1.24 7.08 3.29 8.2 4.54 2.52 2.83 5.23 12.3 3.52 12.3-.674 0-1.23-.957-1.23-2.13zm-86-15.8c6.63-5.66 17.4-9.05 30-9.48l11.3-.387-11.3 1.14c-12.5 1.26-20.6 3.74-28.7 8.79l-5.33 3.35zm11.1-1.64c.962-.385 2.11-.338 2.56.105.443.443-.344.758-1.75 0.7-1.55-.0640-1.87-.380-.806-.806zm-23.7-.822c-.0906-2.38 4.01-8.67 6.21-9.51 1.98-.759 1.91-.416-.435 2.17-1.53 1.69-3.45 4.27-4.26 5.74-.811 1.47-1.49 2.19-1.52 1.6zm-11.7-3.7c0-2.79 7.74-9.33 11-9.27 2.61.0452 2.46.291-1.1 1.84-2.26.985-5.41 3.44-7 5.46s-2.89 2.9-2.89 1.97zm69.1-2.23c.962-.385 2.11-.338 2.56.105.443.443-.344.758-1.75 0.7-1.55-.0640-1.87-.380-.806-.806z" fill="#997148"/>
  <path d="m26.1 261c.468-3.48 2.65-10 4.84-14.5 6.17-12.6 15.3-17.9 35.4-20.6 7.67-1.02 12.8-2.42 14.6-3.95 1.47-1.3 5.44-4.82 8.82-7.82 3.47-3.08 6.68-7.34 7.38-9.8.743-2.59 2.95-5.42 5.48-7.01 6.93-4.37 5.91-8.15-4.66-17.2-4.95-4.25-9.72-9.31-10.6-11.3-.969-2.13-1.67-10.7-1.77-21.5-.0874-9.9-.584-20.7-1.1-24l-.944-6-3.57 5.55c-1.96 3.06-4.34 6.01-5.29 6.56-.946.554-.699-.161.550-1.59 4.71-5.39 9.1-17.8 11.7-33.2 3.72-21.8 4.85-25.4 8.87-28.6 3.63-2.85 11.7-3.72 13.1-1.4 1.76 2.85 3.33 1.11 3.33-3.7 0-5.75 3.07-11 6.45-11 3.75 0 8.12 3.85 10.3 9.09 1.13 2.7 3.79 11.9 5.92 20.5 4.72 19.1 6.52 22.7 13.6 27.4 5.04 3.33 6.65 3.66 17.9 3.66 11.9 0 12.4.128 13.9 3.33 4.18 9.07 2.28 29.5-4.85 52.1-2.87 9.1-4.1 11.1-9.77 15.8-8.14 6.81-9.71 12.6-3.97 14.6 2.63.917 4.77 3.51 7.49 9.05 2.79 5.7 5.49 8.9 10.1 12 3.48 2.35 6.29 4.75 6.25 5.33-.0363.588 5.74 1.84 12.8 2.79 26.5 3.53 36.3 12.4 41.2 37.3l.855 4.33h-215zm157-90.5c3.3-1.94 8.7-5.64 12-8.22l6-4.7-4.35 4.65c-2.39 2.56-7.34 6.26-11 8.23-8.54 4.61-10.5 4.64-2.66.0388zm-110-1.61c-5.31-3.3-9.5-7.99-11.2-12.6-2.34-6.18-1.55-7.31 1.11-1.58 2.43 5.25 6.97 10.1 13.4 14.5 4.54 3.04 1.65 2.78-3.3-.290zm127-16c.904-.911 1.98-1.32 2.39-.910.411.411-.329 1.16-1.64 1.66-1.9.724-2.05.570-.746-.746zm7.26-5.98c1.96-2.12 3.99-5.53 4.49-7.58.507-2.05 1.21-3.44 1.56-3.09 1.51 1.51-2.73 10.1-6.03 12.2l-3.6 2.29zm-149-3c-4.8-5.25-7.39-12-8.07-20.9-.367-4.8-.246-8.33.270-7.85s1.09 4.38 1.28 8.67c.348 7.99 3.02 14.8 7.86 20.1 1.51 1.65 2.44 3 2.08 3-.367 0-1.9-1.35-3.41-3zm157-14c1.65-2.25 3.49-7.05 4.1-10.7.889-5.31 1.13-5.73 1.26-2.19.190 5.3-2.54 12.2-5.89 15-1.87 1.52-1.74 1.02.537-2.1zm-166-18c-.457-1.19-.737-5.57-.622-9.72l.210-7.56.865 9.33c.928 10 .851 11.3-.454 7.95zm15.3-.0596c.0640-1.55.380-1.87.806-.806.385.962.338 2.11-.105 2.56-.443.443-.758-.344-0.7-1.75zm1.44-7.22c0-1.83.303-2.58.673-1.67.370.917.370 2.42 0 3.33-.370.917-.673.167-.673-1.67zm1.33-8c0-1.83.303-2.58.673-1.67.370.917.370 2.42 0 3.33-.370.917-.673.167-.673-1.67zm-17.2-4.4c-1.51-3.68-1.12-17.4.548-19 1.12-1.12 1.15.0296.138 4.47-.940 4.11-.934 7.69.0190 11.4 1.42 5.58 1.02 7.33-.705 3.13zm165-5.2c-.136-3.76-1.15-9.4-2.26-12.5-2.67-7.57-1.56-8.42 1.29-.975 1.43 3.73 2.04 8.41 1.72 13.1l-.499 7.27zm-147 1.4c.0640-1.55.380-1.87.806-.806.385.962.338 2.11-.105 2.56-.443.443-.758-.344-0.7-1.75zm85.1-9.56-3.23-3.67 3.67 3.23c3.43 3.02 4.28 4.1 3.23 4.1-.239 0-1.89-1.65-3.67-3.67zm-5.29-7.11c-.819-1.53-1.24-3.03-.930-3.34.307-.307 1.24.944 2.08 2.78 1.84 4.03.943 4.47-1.15.558zm-92.6-11.8c-.2-5.5 4.6-14.1 10-18.2 2.83-2.11 5.62-4.59 6.21-5.51.586-.921 2.96-2.65 5.27-3.85 4.13-2.14 4.12-2.09-1.07 3.02-2.9 2.86-5.65 5.04-6.11 4.86-2.73-1.07-11.4 11.3-13.2 19-.887 3.64-.983 3.7-1.08.667zm87.8 1.74c0-.753-1.57-3.69-3.49-6.52s-2.48-4.31-1.25-3.28c2.8 2.33 6.53 9.38 5.51 10.4-.421.421-.765.149-.765-.605zm14.5-4.07c-1.66-2.11-1.61-2.16.503-.503 2.22 1.74 2.93 2.84 1.83 2.84-.277 0-1.33-1.05-2.33-2.33zm-82.5-9c1.72-1.83 3.43-3.33 3.8-3.33.367 0-.743 1.5-2.46 3.33s-3.43 3.33-3.8 3.33c-.367 0 .743-1.5 2.46-3.33zm122-.7c-.986-2.23-3.97-5.53-6.64-7.34-5.78-3.93-4.09-4.42 2.14-.621 2.4 1.46 4.97 4.25 5.71 6.2 1.94 5.09.919 6.58-1.21 1.77zm-46.1-1.14c-1.09-2.11-3.85-5.41-6.14-7.33-2.28-1.92-3.62-3.49-2.98-3.49 1.58 0 9 7.93 10.9 11.7.847 1.65 1.23 3 .861 3-.374 0-1.57-1.73-2.67-3.84zm23.2-17.2-4.59-5 5 4.59c2.75 2.53 5 4.78 5 5 0 1.02-1.13.059-5.41-4.59zm-84.2-2.7c1.59-2.97 7.82-6.31 9.19-4.93.387.387.05.704-.749.704s-3.39 1.63-5.76 3.62c-3.97 3.34-4.18 3.39-2.69.603zm51.1.153c2.03-.306 5.03-.298 6.67.0182s-.0184.567-3.68.557c-3.67-.01-5.01-.269-2.98-.575zm14.3-7.24c-8.15-2.97-21.1-3.56-27.3-1.26-3.63 1.34-3.77 1.29-1.49-.479 5.91-4.59 21.6-3.71 33.5 1.88 7 3.29 4.56 3.22-4.67-.142zm-44.7-3.06c2.7-2.16 10.8-2.85 11.9-1.02.359.580-1.34.822-3.77.539-2.43-.284-5.84.175-7.57 1.02-3 1.46-3.03 1.43-.564-.539z" fill="#90653a"/>
  <path d="m26.2 261c.485-3.48 2.65-10 4.81-14.5 6.07-12.6 15.2-17.9 35.4-20.6 7.67-1.02 12.8-2.42 14.6-3.95 1.47-1.3 5.44-4.82 8.82-7.82 3.47-3.08 6.68-7.34 7.38-9.8.743-2.59 2.95-5.42 5.48-7.01 6.86-4.32 5.89-8.19-4.2-16.8-4.7-3.98-9.29-8.74-10.2-10.6-1.04-2.08-1.98-12.3-2.5-27.2-.561-16.3-1.32-24.1-2.37-24.4-1.15-.383-1.09-1.79.209-5.48.964-2.73 3.09-12.7 4.73-22.3 1.64-9.51 3.92-18.9 5.08-20.9 2.94-5.04 8.35-7.08 13.8-5.2 5.93 2.07 5.84 2.14 5.88-4.66.0495-7.72 2.86-10.3 8.86-8.25 4.84 1.69 7.5 7.28 11.7 24.4 4.56 18.8 6.54 23.9 11.1 28.3 6.07 5.85 10.8 7.24 23 6.78 10.6-.398 10.7-.383 12.5 3.48 1.02 2.14 2.13 6.32 2.47 9.3.774 6.91-2.61 26.6-7.05 40.9-2.98 9.65-4.31 12-9.9 17.2-3.55 3.3-6.81 7.59-7.24 9.54-.674 3.03-.222 3.74 3.13 4.9 2.9 1.01 4.91 3.39 7.72 9.13 2.79 5.7 5.49 8.9 10.1 12 3.48 2.35 6.29 4.75 6.25 5.33-.0363.588 5.74 1.84 12.8 2.79 26.5 3.53 36.3 12.4 41.2 37.3l.855 4.33h-215zm45-93.6c-3.01-2.18-6.16-5.33-7.01-7-1.24-2.43-.788-2.24 2.26.967 2.1 2.2 5.61 5.34 7.81 6.96s3.64 2.97 3.2 2.99c-.440.0232-3.26-1.74-6.26-3.92zm114 2.05c0-.367 1.2-1.31 2.67-2.09 1.47-.785 2.67-1.13 2.67-.760 0 .367-1.2 1.31-2.67 2.09-1.47.785-2.67 1.13-2.67.760zm8.67-6.09c1.33-1.47 2.71-2.67 3.08-2.67.367 0-.419 1.2-1.75 2.67s-2.71 2.67-3.08 2.67c-.367 0 .419-1.2 1.75-2.67zm15.5-19.6c.971-1.62 2.05-2.65 2.4-2.3.351.351-.444 1.67-1.77 2.94-2.3 2.2-2.32 2.17-.638-.638zm-153-1c-2.35-2.74-4.11-5.67-3.41-5.67.272 0 1.83 1.8 3.45 4 3.21 4.35 3.18 5.43-.0464 1.67zm-7.4-20c0-2.57.274-3.62.610-2.33.335 1.28.335 3.38 0 4.67-.335 1.28-.610.233-.610-2.33zm169-4.67c.0148-2.93.288-3.98.607-2.32s.307 4.06-.0269 5.33-.595-.0822-.580-3.02zm-170-15c0-4.03.250-5.68.555-3.67.306 2.02.306 5.32 0 7.33-.305 2.02-.555.367-.555-3.67zm1.04-11.4c.0640-1.55.380-1.87.806-.806.385.962.338 2.11-.105 2.56-.443.443-.758-.344-0.7-1.75zm-1.13-8.56c0-2.57.274-3.62.610-2.33.335 1.28.335 3.38 0 4.67-.335 1.28-.610.233-.610-2.33zm166-2.7c-.468-2.57-1.21-5.87-1.65-7.33-.440-1.47.141-.642 1.29 1.83s1.89 5.77 1.65 7.33c-.313 2.02-.685 1.49-1.29-1.83zm-157-25.4c-.0846-2.03 6.05-12 7.39-12 .390 0-.528 1.74-2.04 3.86s-3.31 5.27-4.01 7c-.699 1.75-1.3 2.24-1.34 1.12zm140-6.5c-.473-1.49-2.67-4.23-4.89-6.1-4.21-3.55-4.11-4.35.247-2.02 2.67 1.43 7.27 9.06 6.15 10.2-.354.354-1.03-.576-1.5-2.07zm-125-11.3c1.16-1.77 3.12-3.61 4.36-4.09 1.32-.507.634.824-1.66 3.22-4.71 4.92-5.53 5.18-2.7.864zm17.5-9.48c.430-1.12 2.06-2.7 3.62-3.51 2.62-1.36 2.58-1.2-.389 2.04-3.72 4.04-4.33 4.32-3.24 1.48zm65.5-8c-2.57-.988-3.77-1.82-2.67-1.84 1.1-.0227 3.8.783 6 1.79 5.15 2.36 2.75 2.39-3.33.0482zm-29-.8c.904-.911 1.98-1.32 2.39-.910.411.411-.329 1.16-1.64 1.66-1.9.724-2.05.570-.746-.746zm5.44-2.08c.962-.385 2.11-.338 2.56.105.443.443-.344.758-1.75 0.7-1.55-.0640-1.87-.380-.806-.806zm16 0c.962-.385 2.11-.338 2.56.105.443.443-.344.758-1.75 0.7-1.55-.0640-1.87-.380-.806-.806zm-32.8-1.34c1.28-.335 3.38-.335 4.67 0 1.28.335.233.610-2.33.610-2.57 0-3.62-.274-2.33-.610zm22.7-.0049c1.3-.338 3.1-.316 4 .0494.903.365-.159.642-2.36.615-2.2-.0272-2.94-.326-1.64-.664z" fill="#87592c"/>
  <path d="m26.2 261c.485-3.48 2.65-10 4.81-14.5 6.07-12.6 15.2-17.9 35.4-20.6 7.67-1.02 12.8-2.42 14.6-3.95 1.47-1.3 5.44-4.82 8.82-7.82 3.47-3.08 6.68-7.34 7.38-9.8.743-2.59 2.95-5.42 5.48-7.01 6.86-4.32 5.89-8.19-4.21-16.8-4.7-3.98-8.98-8.74-9.51-10.6-.530-1.83-1.19-11.4-1.46-21.3-.271-9.9-1.27-21.3-2.21-25.3-1.52-6.48-1.44-8.07.660-13.7 1.94-5.17 6.4-26.3 6.4-30.4 0-.581 1.52-2.86 3.38-5.07 3.77-4.48 20.9-10.9 29.2-10.9 5.37 0 5.55.421 9.53 22.5 2.51 13.9 6.51 20.2 15.1 23.8 4.51 1.89 24.3 2.56 26.9.926.688-.425 2.21 1.52 3.38 4.32 2.78 6.65 1.95 16.6-3.52 41.8l-4.2 19.3-6.46 6c-3.55 3.3-6.81 7.59-7.23 9.54-.659 3.02-.199 3.74 3.14 4.9 2.9 1.01 4.91 3.39 7.72 9.13 2.79 5.7 5.49 8.9 10.1 12 3.48 2.35 6.29 4.75 6.25 5.33-.0363.588 5.74 1.84 12.8 2.79 26.5 3.53 36.3 12.4 41.2 37.3l.855 4.33h-214z" fill="#5a5453"/>
  <path d="m25.6 264c.0155-1.65 1.49-7.15 3.28-12.2 5.96-16.9 15.4-23.1 39.8-26.1 8.03-1.01 12.9-2.19 12.6-3.07-.261-.784 2.25-3.26 5.59-5.5 4.36-2.93 7.14-6.24 9.89-11.8 2.4-4.87 5.02-8.2 7.03-8.97 2.34-.890 3.2-2.23 3.2-5.01 0-3.01-1.75-5.27-8.54-11-4.7-3.98-8.98-8.74-9.51-10.6-.530-1.83-1.18-11.4-1.44-21.3-.264-9.9-1.27-21.3-2.25-25.4-1.51-6.3-1.48-8.03.215-12 1.09-2.55 2.13-5.24 2.3-5.97.644-2.66 4.56-25 4.56-26.1 0-.581 1.52-2.86 3.38-5.07 3.77-4.48 20.9-10.9 29.2-10.9 5.37 0 5.55.429 9.51 22.4 1.59 8.8 3.15 13.5 5.38 16.1 1.73 2.05 2.71 4.17 2.18 4.7s-.363.820.371.646c.733-.174 3.7.731 6.58 2.01 5.12 2.27 24.5 3.21 27.6 1.33.688-.425 2.21 1.52 3.38 4.32 2.78 6.65 1.95 16.6-3.52 41.8l-4.2 19.3-6.46 6c-3.55 3.3-6.8 7.58-7.22 9.51-.651 2.99-.148 3.77 3.36 5.22 2.93 1.21 4.89 3.48 6.74 7.82 3 7 6.84 11.5 12.1 14.3 2.02 1.05 3.67 2.72 3.67 3.71 0 1.28 3.77 2.28 13 3.43 7.14.899 16 2.77 19.7 4.16 11.5 4.32 18.9 14.5 21.7 30.2l1.26 7h-213l.0281-3zm96.4-160c-5.05-5.05-17.6-5.59-29-1.24-2.12.808-3.55 1.77-3.18 2.14.367.367 2.29.0499 4.27-.704 5.1-1.94 19.3-1.59 24.1.581 5.82 2.66 6.97 2.43 3.77-.771z" fill="#754422"/>
  <path d="m26.3 262c2.62-15.7 10.8-27.1 22.6-31.5 3.71-1.39 12.6-3.26 19.8-4.16 8.03-1.01 12.9-2.19 12.6-3.07-.261-.784 2.25-3.26 5.59-5.5 4.36-2.93 7.14-6.24 9.89-11.8 2.4-4.87 5.02-8.2 7.03-8.97 2.32-.881 3.2-2.24 3.2-4.92.00046-2.87-2.01-5.52-9-11.9l-9-8.16-.806-21.8c-.443-12-1.55-24.6-2.45-28-2.41-9.05.280-13.7 9.51-16.4 8.68-2.58 12.2-2.57 21 .0417 7.21 2.14 9.11 1.94 7.41-.805-3.27-5.29-17.1-6.63-28.4-2.76-5.85 2.02-6.94 2.11-6.33.493.412-1.07 1.38-6.24 2.14-11.5.768-5.25 2.04-11.2 2.82-13.2 2.5-6.44 13.4-11.3 28.6-12.6l6.83-.616 1.67 8.83c1.47 7.79 1.41 9.11-.494 11.2-2.69 2.97-2.73 4.71-.161 6.84 1.61 1.34 2.01 1.3 2.08-.170.0422-1.01 1.51 1.17 3.26 4.84 3.9 8.19 5.42 9.97 11.3 13.3 3.8 2.12 6.96 2.55 17.6 2.36 12.2-.211 13.1-.041 14.6 2.75 2.75 5.12 1.82 18.2-2.87 40.3-4.66 21.9-5.1 22.9-13.5 29.4-1.93 1.49-3.9 4.55-4.4 6.8-.807 3.67-.476 4.26 3.31 5.83 3.01 1.25 4.95 3.47 6.82 7.86 3 7 6.84 11.5 12.1 14.3 2.02 1.05 3.67 2.72 3.67 3.71 0 1.28 3.77 2.28 13 3.43 7.14.899 16 2.77 19.7 4.16 11.5 4.32 18.9 14.5 21.7 30.2l1.26 7h-214zm111-113c-.517-1.28-1.14-3.83-1.39-5.67-.247-1.83-.845-6.31-1.33-9.95-1.07-8.06-2.58-6.04-3.92 5.28-.523 4.4-1.89 9.05-3.04 10.3-1.95 2.19-1.69 2.33 4.26 2.33 5.52 0 6.23-.306 5.41-2.33z" fill="#743814"/>
  <path d="m26.3 262c2.62-15.7 10.8-27.1 22.6-31.5 3.71-1.39 12.6-3.26 19.8-4.16 8.03-1.01 12.9-2.19 12.6-3.07-.261-.784 2.25-3.26 5.59-5.5 4.36-2.93 7.14-6.24 9.89-11.8 2.4-4.87 5.02-8.2 7.03-8.97 2.34-.891 3.2-2.23 3.2-5.01 0-3-1.82-5.41-8.67-11.5-4.77-4.21-8.67-8.29-8.67-9.06s3.91 2.26 8.69 6.73c8.78 8.21 26.1 20.7 31.7 22.7 1.76.651 4.36.527 6.33-.303 4.56-1.93 19.2-12.1 27.7-19.2 3.85-3.24 7-5.31 7-4.6 0 1.03-4.35 4.92-10.8 9.59-.502.367-1.32 2.53-1.81 4.81-.812 3.74-.491 4.31 3.31 5.89 3.01 1.25 4.95 3.47 6.82 7.86 3 7 6.84 11.5 12.1 14.3 2.02 1.05 3.67 2.72 3.67 3.71 0 1.28 3.77 2.28 13 3.43 7.14.899 16 2.77 19.7 4.16 11.5 4.32 18.9 14.5 21.7 30.2l1.26 7h-215zm108-27c1.68-10.2 3.99-13.8 12.5-19.6 5.37-3.65 8.12-6.42 8.12-8.17 0-2.4-.929-2.14-9.78 2.72-5.38 2.95-11.2 5.37-12.9 5.37-1.69 0-7.49-2.65-12.9-5.9-9.14-5.49-9.81-5.7-9.78-3 .0261 2.06 2.4 4.45 8.16 8.23 9 5.91 13.1 12.4 13.1 21 .0396 6.77 2.24 6.34 3.39-.667zm-11.1-55.3c-1.69-.323-2.84-1.29-2.56-2.15.654-1.98 20.1-2.85 23.3-1.05 5.13 2.87-10.2 5.23-20.8 3.2zm3.56-24.3-3.15-2.62 7-.0444c3.85-.0244 7.44-.0893 7.97-.144 2.56-.264 1.37 2.49-1.66 3.87-4.74 2.16-6.52 1.97-10.2-1.06zm-28.9-30c4.15-4.93 4.18-5.28.785-9.59-3.42-4.35-3.36-4.97.511-4.97 2.06 0 3.42.941 3.88 2.67.384 1.47 1.31 2.67 2.07 2.67.753 0 1.75-1.2 2.21-2.67.555-1.75 2.02-2.67 4.25-2.67h3.4l-3.56 4.67-3.56 4.67 3.56 4.67 3.56 4.67h-3.17c-1.82 0-3.95-1.25-5-2.93l-1.83-2.93-2.37 2.93c-1.3 1.61-3.68 2.93-5.28 2.93-2.87 0-2.86-.0553.547-4.1zm51.5 3c0-.606 1.5-2.51 3.33-4.23s3.33-3.48 3.33-3.91-1.5-2.4-3.33-4.38c-4.1-4.42-4.14-5.04-.321-5.04 1.66 0 3.83 1.31 4.83 2.92 1.6 2.56 2.01 2.66 3.33.861 1.77-2.41 7.49-4.51 7.49-2.74 0 .669-1.2 2.3-2.67 3.63s-2.67 3.14-2.67 4.03c0 .887 1.2 3.14 2.67 5 3.42 4.35 3.36 4.97-.511 4.97-2.06 0-3.42-.941-3.88-2.67-.384-1.47-1.41-2.67-2.28-2.67-.871 0-1.9 1.2-2.28 2.67-.451 1.73-1.82 2.67-3.88 2.67-1.75 0-3.18-.495-3.18-1.1z" fill="#802020"/>
  <path d="m26.3 262c2.62-15.7 10.8-27.1 22.6-31.5 3.71-1.39 12.6-3.26 19.8-4.16 8.03-1.01 12.9-2.19 12.6-3.07-.261-.784 2.25-3.26 5.59-5.5 4.36-2.93 7.14-6.24 9.89-11.8 2.4-4.87 5.02-8.2 7.03-8.97 2.34-.891 3.2-2.23 3.2-5.01 0-3-1.82-5.41-8.67-11.5-4.77-4.21-8.67-8.29-8.67-9.06s3.91 2.26 8.69 6.73c8.78 8.21 26.1 20.7 31.7 22.7 1.76.651 4.36.527 6.33-.303 4.56-1.93 19.2-12.1 27.7-19.2 3.85-3.24 7-5.31 7-4.6 0 1.03-4.35 4.92-10.8 9.59-.502.367-1.32 2.53-1.81 4.81-.812 3.74-.491 4.31 3.31 5.89 3.01 1.25 4.95 3.47 6.82 7.86 3 7 6.84 11.5 12.1 14.3 2.02 1.05 3.67 2.72 3.67 3.71 0 1.28 3.77 2.28 13 3.43 7.14.899 16 2.77 19.7 4.16 11.5 4.32 18.9 14.5 21.7 30.2l1.26 7h-215zm108-27c1.68-10.2 3.99-13.8 12.5-19.6 5.37-3.65 8.12-6.42 8.12-8.17 0-2.4-.929-2.14-9.78 2.72-5.38 2.95-11.2 5.37-12.9 5.37-1.69 0-7.49-2.65-12.9-5.9-9.14-5.49-9.81-5.7-9.78-3 .0261 2.06 2.4 4.45 8.16 8.23 9 5.91 13.1 12.4 13.1 21 .0396 6.77 2.24 6.34 3.39-.667zm-7.55-79.6-3.15-2.62 7-.0444c3.85-.0244 7.44-.0893 7.97-.144 2.56-.264 1.37 2.49-1.66 3.87-4.74 2.16-6.52 1.97-10.2-1.06zm-27.9-29c4.15-4.93 4.18-5.28.785-9.59-3.42-4.35-3.36-4.97.511-4.97 2.06 0 3.42.941 3.88 2.67.384 1.47 1.31 2.67 2.07 2.67.753 0 1.75-1.2 2.21-2.67.555-1.75 2.02-2.67 4.25-2.67h3.4l-3.56 4.67-3.56 4.67 3.56 4.67 3.56 4.67h-3.17c-1.82 0-3.95-1.25-5-2.93l-1.83-2.93-2.37 2.93c-1.3 1.61-3.68 2.93-5.28 2.93-2.87 0-2.86-.0553.547-4.1zm51.5 3c0-.606 1.5-2.51 3.33-4.23s3.33-3.48 3.33-3.91-1.5-2.4-3.33-4.38c-4.1-4.42-4.14-5.04-.321-5.04 1.66 0 3.83 1.31 4.83 2.92 1.6 2.56 2.01 2.66 3.33.861 1.77-2.41 7.49-4.51 7.49-2.74 0 .669-1.2 2.3-2.67 3.63s-2.67 3.14-2.67 4.03c0 .887 1.2 3.14 2.67 5 3.42 4.35 3.36 4.97-.511 4.97-2.06 0-3.42-.941-3.88-2.67-.384-1.47-1.41-2.67-2.28-2.67-.871 0-1.9 1.2-2.28 2.67-.451 1.73-1.82 2.67-3.88 2.67-1.75 0-3.18-.495-3.18-1.1z" fill="#292e31"/>
  <path d="m25.6 266c.0087-.917.817-4.67 1.8-8.33 5.34-20 15.7-28.3 37.7-30.6 6.92-.696 6.52-.501-3.61 1.72-6.28 1.38-13.2 3.43-15.3 4.55-8.46 4.42-15.5 15.4-17.2 26.9l-.789 5.33 1.86-5.62c5.95-18 16.2-26.5 36.5-30.5 16.7-3.28 16.5-3.21 15.5-4.96-3-5.26 8.24 7.47 12.3 13.9 2.69 4.29 5.12 7.79 5.4 7.79 1.43 0-6.91-14.1-11.1-18.7-2.63-2.91-4.13-5.29-3.33-5.29 2.86 0 10.8-9.25 9.93-11.6-.618-1.61-.367-1.92.915-1.13 1.11.683 1.45.573.909-.295-1.59-2.58 2.02-9.75 5.92-11.8 6.67-3.45 5.35-8.13-4.81-17.1-4.77-4.21-8.67-8.29-8.67-9.06s3.91 2.26 8.69 6.73c8.78 8.21 26.1 20.7 31.7 22.7 1.76.651 4.36.527 6.33-.303 4.56-1.93 19.2-12.1 27.7-19.2 3.85-3.24 7-5.31 7-4.6 0 1.03-4.35 4.92-10.8 9.59-.502.367-1.33 2.61-1.85 4.99-.826 3.81-.536 4.48 2.43 5.61 4 1.52 7.52 6.48 8.04 11.3.520 4.88 5.47 11.1 10.8 13.7 2.49 1.19 4.22 2.64 3.86 3.23-.798 1.29 5.88 3.16 7.06 1.98.455-.455-.573-.827-2.28-.827s-2.8-.307-2.43-.682c.980-.980 20.6 1.85 28.5 4.11 12.9 3.7 22.4 15.8 24.2 31l.819 6.92h-107c-84.6 0-107-.347-107-1.67zm209-12c-3.21-10.6-8.27-17.2-15.8-20.8-5.28-2.51-19.2-5.89-23.7-5.74-1.47.0479 1.18.929 5.89 1.96 17.7 3.87 30.1 15.4 34.2 31.8.489 1.95 1.19 3.25 1.55 2.88.362-.362-.627-4.89-2.2-10.1zm-56-26c4.43-5.35 2.68-6.14-1.88-.849-4.2 4.87-11 16-11 18-.005.724 2.19-1.98 4.87-6s6.31-9.04 8.05-11.1zm-44.2 6.83c1.68-10.2 3.99-13.8 12.5-19.6 5.37-3.65 8.12-6.42 8.12-8.17 0-2.4-.929-2.14-9.78 2.72-5.38 2.95-11.2 5.37-12.9 5.37-1.69 0-7.49-2.65-12.9-5.9-9.14-5.49-9.81-5.7-9.78-3 .0261 2.06 2.4 4.45 8.16 8.23 9 5.91 13.1 12.4 13.1 21 .0396 6.77 2.24 6.34 3.39-.667zm-44.1-20c1.72-1.83 3.43-3.33 3.8-3.33.367 0-.743 1.5-2.46 3.33s-3.43 3.33-3.8 3.33c-.367 0 .743-1.5 2.46-3.33zm81.9-1-3.92-4.33 4.33 3.92c4.04 3.65 4.95 4.75 3.92 4.75-.229 0-2.18-1.95-4.33-4.33zm-46.1-58.3-3.15-2.62 7-.0444c3.85-.0244 7.44-.0893 7.97-.144 2.56-.264 1.37 2.49-1.66 3.87-4.74 2.16-6.52 1.97-10.2-1.06zm-28.9-30c4.15-4.93 4.18-5.28.785-9.59-3.42-4.35-3.36-4.97.511-4.97 2.06 0 3.42.941 3.88 2.67.384 1.47 1.31 2.67 2.07 2.67.753 0 1.75-1.2 2.21-2.67.555-1.75 2.02-2.67 4.25-2.67h3.4l-3.56 4.67-3.56 4.67 3.56 4.67 3.56 4.67h-3.17c-1.82 0-3.95-1.25-5-2.93l-1.83-2.93-2.37 2.93c-1.3 1.61-3.68 2.93-5.28 2.93-2.87 0-2.86-.0553.547-4.1zm51.5 3c0-.606 1.5-2.51 3.33-4.23s3.33-3.48 3.33-3.91-1.5-2.4-3.33-4.38c-4.1-4.42-4.14-5.04-.321-5.04 1.66 0 3.83 1.31 4.83 2.92 1.6 2.56 2.01 2.66 3.33.861 1.77-2.41 7.49-4.51 7.49-2.74 0 .669-1.2 2.3-2.67 3.63s-2.67 3.14-2.67 4.03c0 .887 1.2 3.14 2.67 5 3.42 4.35 3.36 4.97-.511 4.97-2.06 0-3.42-.941-3.88-2.67-.384-1.47-1.41-2.67-2.28-2.67-.871 0-1.9 1.2-2.28 2.67-.451 1.73-1.82 2.67-3.88 2.67-1.75 0-3.18-.495-3.18-1.1z" fill="#572507"/>
  <path d="m25.6 266c.0087-.917.817-4.67 1.8-8.33 5.34-20 15.7-28.3 37.7-30.6 6.92-.696 6.52-.501-3.61 1.72-6.28 1.38-13.2 3.43-15.3 4.55-8.46 4.42-15.5 15.4-17.2 26.9l-.789 5.33 1.86-5.62c5.95-18 16.2-26.5 36.5-30.5 16.7-3.28 16.5-3.21 15.5-4.96-3-5.26 8.24 7.47 12.3 13.9 2.69 4.29 5.12 7.79 5.4 7.79 1.43 0-6.91-14.1-11.1-18.7-2.63-2.91-4.13-5.29-3.33-5.29 2.86 0 10.8-9.25 9.93-11.6-.618-1.61-.367-1.92.915-1.13 1.15.711 1.45.575.851-.389-1.66-2.68 2.65-10.4 6.77-12.1 3.34-1.38 3.84-2.22 3.35-5.56-.318-2.17-.233-3.94.189-3.94s5.61 3.3 11.5 7.33c5.92 4.03 11.9 7.33 13.3 7.33 3 0 9.98-3.9 19.8-11l7.08-5.16-.890 4.75c-.796 4.24-.530 4.88 2.52 6.04 4.04 1.54 7.56 6.48 8.08 11.3.520 4.88 5.47 11.1 10.8 13.7 2.49 1.19 4.22 2.64 3.86 3.23-.798 1.29 5.88 3.16 7.06 1.98.455-.455-.573-.827-2.28-.827s-2.8-.307-2.43-.682c.980-.980 20.6 1.85 28.5 4.11 12.9 3.7 22.4 15.8 24.2 31l.819 6.92h-107c-84.6 0-107-.347-107-1.67zm209-12c-3.21-10.6-8.27-17.2-15.8-20.8-5.28-2.51-19.2-5.89-23.7-5.74-1.47.0479 1.18.929 5.89 1.96 17.7 3.87 30.1 15.4 34.2 31.8.489 1.95 1.19 3.25 1.55 2.88.362-.362-.627-4.89-2.2-10.1zm-56-26c4.43-5.35 2.68-6.14-1.88-.849-4.2 4.87-11 16-11 18-.005.724 2.19-1.98 4.87-6s6.31-9.04 8.05-11.1zm-43.9 7.73c.805-8.42 4.27-14.9 10-18.6 10.5-6.81 11.6-8.38 11.6-16.2 0-8.71-1.01-8.9-12.6-2.43-4.59 2.57-9.4 4.67-10.7 4.67-1.29 0-6.38-2.2-11.3-4.9-11.5-6.31-13.6-5.69-12.6 3.84.550 5.09 1.55 7.62 3.58 9.06 14.4 10.2 16.8 13.4 17.9 23.6.733 6.5 3.41 7.13 4 .931zm-44.1-21c1.72-1.83 3.43-3.33 3.8-3.33.367 0-.743 1.5-2.46 3.33s-3.43 3.33-3.8 3.33c-.367 0 .743-1.5 2.46-3.33zm81.9-1-3.92-4.33 4.33 3.92c4.04 3.65 4.95 4.75 3.92 4.75-.229 0-2.18-1.95-4.33-4.33zm-70.1-30c-1.66-2.11-1.61-2.16.503-.503 1.28 1.01 2.33 2.06 2.33 2.33 0 1.1-1.09.391-2.84-1.83zm58.8.497c0-.277 1.05-1.33 2.33-2.33 2.11-1.66 2.16-1.61.503.503-1.74 2.22-2.84 2.93-2.84 1.83zm-67.4-7.83-3.92-4.33 4.33 3.92c4.04 3.65 4.95 4.75 3.92 4.75-.229 0-2.18-1.95-4.33-4.33zm2.08-47.3c0-.510 1.52-2.51 3.37-4.44l3.37-3.52-2.7-3.43c-1.49-1.89-2.7-4.07-2.7-4.85 0-1.85 4.2-.251 6.33 2.42 1.51 1.89 1.82 1.89 3.33 0 1.73-2.16 6.33-4.4 6.33-3.08 0 .414-1.26 2.52-2.79 4.67l-2.79 3.92 3.52 4.62 3.52 4.62h-3.4c-2.07 0-3.4-.751-3.4-1.92 0-3.41-3.02-3.94-5.43-.958-2.19 2.7-6.57 4-6.57 1.95zm56.7-3.69 3.52-4.62-2.79-3.92c-3.28-4.6-3.43-5.51-.953-5.51 1.01 0 2.74 1.35 3.84 3 1.92 2.87 2.11 2.9 4.6.667 1.43-1.28 3.71-2.33 5.07-2.33 2.12 0 1.94.561-1.28 3.93l-3.76 3.93 3.71 4.41c3.13 3.71 3.36 4.47 1.48 4.84-1.23.241-3.42-.959-4.86-2.67l-2.63-3.1-2.55 3c-1.4 1.65-3.53 3-4.73 3-1.77 0-1.52-.881 1.34-4.62z" fill="#1d2326"/>
  <path d="m25.7 266c-.149-3.83 3.63-15.9 6.75-21.5 3.36-6.08 13.2-14.5 16.9-14.4 1.23.0287.364.864-1.92 1.86-6.57 2.86-13.4 10.6-16.4 18.7-1.54 4.11-2.84 8.49-2.89 9.75-.129 3.15-2.36 8.24-2.46 5.62zm95-2.33c-.328-6.18-4.34-18.1-6.96-20.7-2.42-2.42-2.56-2.37-5.45 2.32-5.17 8.36-7.24 8.43-11.8.416-2.17-3.84-6-9.68-8.51-13-2.51-3.3-5.11-6.9-5.77-8-1.04-1.73-.891-1.75 1.07-.157 3.2 2.6 10.7 13.1 14.3 19.9 1.64 3.15 3.65 5.5 4.48 5.23.826-.269 4.92-5.64 9.1-11.9 4.23-6.38 8.88-11.9 10.5-12.4 2.55-.808 1.87-1.56-5.6-6.23-4.67-2.92-9.54-6.61-10.8-8.19-3.07-3.79-2.82-13.8.370-14.6 1.65-.432 2.06-1.64 1.6-4.76-.337-2.3-.268-4.18.153-4.18.422 0 5.61 3.3 11.5 7.33 5.92 4.03 11.9 7.33 13.3 7.33 3 0 9.98-3.9 19.8-11l7.08-5.16-.892 4.76c-.782 4.17-.503 4.91 2.25 6.02 1.73.693 2.68 1.3 2.1 1.34-.576.0465-.408 1.28.374 2.74 2.32 4.34-1.73 10-12 16.7l-9.24 6.09 4.03 3.6c2.22 1.98 6.84 7.76 10.3 12.9 3.43 5.09 6.87 9.45 7.65 9.68.774.236 2.43-1.72 3.68-4.34 2.66-5.57 12.1-18.6 14.5-20.1.933-.572.625.434-.684 2.24-3.66 5.03-15.5 23.1-16.2 24.6-.594 1.39-7.45-5.23-9.83-9.48-1.29-2.3-1.5-2.27-3.81.595-2.36 2.92-2.64 2.95-7.41.959-2.73-1.14-6.32-2.01-8-1.93-1.77.0833-.750.658 2.46 1.38 8.25 1.85 10.3 4.75 8.41 12-.835 3.21-1.61 7.19-1.71 8.84-.187 2.87-.697 3-12.2 3h-12zm13.9-27.8c.805-8.42 4.27-14.9 10-18.6 10.5-6.81 11.6-8.38 11.6-16.2 0-8.71-1.01-8.9-12.6-2.43-4.59 2.57-9.4 4.67-10.7 4.67-1.29 0-6.38-2.2-11.3-4.9-11.5-6.31-13.6-5.69-12.6 3.84.550 5.09 1.55 7.62 3.58 9.06 14.4 10.2 16.8 13.4 17.9 23.6.733 6.5 3.41 7.13 4 .931zm103 25.4c-1.27-8.57-6.21-19-11.3-23.7-2.18-2.04-6.9-4.91-10.5-6.36-5.65-2.28-5.9-2.53-1.88-1.83 6.46 1.13 14 6.32 17.9 12.3 4.2 6.45 7.77 17.6 7.19 22.5-.358 2.96-.683 2.33-1.45-2.85zm-181-33c.917-.370 2.42-.370 3.33 0 .917.370.167.673-1.67.673-1.83 0-2.58-.303-1.67-.673zm147 0c.917-.370 2.42-.370 3.33 0 .917.370.167.673-1.67.673-1.83 0-2.58-.303-1.67-.673zm-139-2c.917-.370 2.42-.370 3.33 0 .917.370.167.673-1.67.673-1.83 0-2.58-.303-1.67-.673zm131 0c.917-.370 2.42-.370 3.33 0 .917.370.167.673-1.67.673-1.83 0-2.58-.303-1.67-.673zm-106-10c0-.277 1.05-1.33 2.33-2.33 2.11-1.66 2.16-1.61.503.503-1.74 2.22-2.84 2.93-2.84 1.83zm83.2-2.5-2.54-3 3 2.54c2.82 2.39 3.61 3.46 2.54 3.46-.253 0-1.6-1.35-3-3zm-70-30c-1.66-2.11-1.61-2.16.503-.503 1.28 1.01 2.33 2.06 2.33 2.33 0 1.1-1.09.391-2.84-1.83zm58.8.497c0-.277 1.05-1.33 2.33-2.33 2.11-1.66 2.16-1.61.503.503-1.74 2.22-2.84 2.93-2.84 1.83zm-67.4-7.83-3.92-4.33 4.33 3.92c4.04 3.65 4.95 4.75 3.92 4.75-.229 0-2.18-1.95-4.33-4.33zm2.08-47.3c0-.510 1.52-2.51 3.37-4.44l3.37-3.52-2.7-3.43c-1.49-1.89-2.7-4.07-2.7-4.85 0-1.85 4.2-.251 6.33 2.42 1.51 1.89 1.82 1.89 3.33 0 1.73-2.16 6.33-4.4 6.33-3.08 0 .414-1.26 2.52-2.79 4.67l-2.79 3.92 3.52 4.62 3.52 4.62h-3.4c-2.07 0-3.4-.751-3.4-1.92 0-3.41-3.02-3.94-5.43-.958-2.19 2.7-6.57 4-6.57 1.95zm56.7-3.69 3.52-4.62-2.79-3.92c-3.28-4.6-3.43-5.51-.953-5.51 1.01 0 2.74 1.35 3.84 3 1.92 2.87 2.11 2.9 4.6.667 1.43-1.28 3.71-2.33 5.07-2.33 2.12 0 1.94.561-1.28 3.93l-3.76 3.93 3.71 4.41c3.13 3.71 3.36 4.47 1.48 4.84-1.23.241-3.42-.959-4.86-2.67l-2.63-3.1-2.55 3c-1.4 1.65-3.53 3-4.73 3-1.77 0-1.52-.881 1.34-4.62z" fill="#481c01"/>
  <path d="m25.7 266c-.149-3.83 3.63-15.9 6.75-21.5 3.36-6.08 13.2-14.5 16.9-14.4 1.23.0287.364.864-1.92 1.86-6.57 2.86-13.4 10.6-16.4 18.7-1.54 4.11-2.84 8.49-2.89 9.75-.129 3.15-2.36 8.24-2.46 5.62zm95-2.33c-.328-6.18-4.34-18.1-6.96-20.7-2.42-2.42-2.56-2.37-5.45 2.32-5.17 8.36-7.24 8.43-11.8.416-2.17-3.84-6-9.68-8.51-13-2.51-3.3-5.11-6.9-5.77-8-1.04-1.73-.891-1.75 1.07-.157 3.2 2.6 10.7 13.1 14.3 19.9 1.64 3.15 3.65 5.5 4.48 5.23.826-.269 4.92-5.64 9.1-11.9 4.23-6.38 8.88-11.9 10.5-12.4 2.55-.808 1.87-1.56-5.6-6.23-4.67-2.92-9.54-6.61-10.8-8.19-3.16-3.9-2.81-13.8.510-14.6 1.99-.521 2.42.437 2.76 6.2.393 6.73.506 6.89 8.89 12.7 6 4.18 9.22 7.52 11 11.4 2.49 5.49 3.4 14.8 1.54 15.8-.55.308-.340.411.466.230 3.2-.718 13.7 2.4 15.8 4.67 1.85 2.05 1.95 3.29.663 8.25-.835 3.21-1.61 7.19-1.71 8.84-.187 2.87-.697 3-12.2 3h-12zm116-2.33c-1.27-8.57-6.21-19-11.3-23.7-2.18-2.04-6.9-4.91-10.5-6.36-5.65-2.28-5.9-2.53-1.88-1.83 6.46 1.13 14 6.32 17.9 12.3 4.2 6.45 7.77 17.6 7.19 22.5-.358 2.96-.683 2.33-1.45-2.85zm-77.5-12.7c-1.88-2.24-3.98-5.07-4.67-6.29-1.12-2-1.49-1.92-3.7.807-2.36 2.92-2.64 2.95-7.41.959-2.73-1.14-6.08-2.07-7.46-2.07-2.3 0-2.41-.629-1.32-7.55 1.6-10.2 3.91-13.6 13.2-19.6 7.19-4.65 7.89-5.54 7.98-9.96.138-7.16 1.38-9.36 4.57-8.1 1.47.581 2.2 1.1 1.62 1.15-.576.0516-.408 1.29.374 2.75 2.32 4.34-1.73 10-12 16.7l-9.24 6.09 4.03 3.6c2.22 1.98 6.84 7.76 10.3 12.9 3.43 5.09 6.87 9.45 7.65 9.68.774.236 2.43-1.72 3.68-4.34 2.66-5.57 12.1-18.6 14.5-20.1.933-.572.625.434-.684 2.24-5.28 7.27-15.6 23.3-15.6 24.3-.00038 2.16-2.59.804-5.85-3.07zm-103-21c.917-.370 2.42-.370 3.33 0 .917.370.167.673-1.67.673-1.83 0-2.58-.303-1.67-.673zm147 0c.917-.370 2.42-.370 3.33 0 .917.370.167.673-1.67.673-1.83 0-2.58-.303-1.67-.673zm-139-2c.917-.370 2.42-.370 3.33 0 .917.370.167.673-1.67.673-1.83 0-2.58-.303-1.67-.673zm131 0c.917-.370 2.42-.370 3.33 0 .917.370.167.673-1.67.673-1.83 0-2.58-.303-1.67-.673zm-106-10c0-.277 1.05-1.33 2.33-2.33 2.11-1.66 2.16-1.61.503.503-1.74 2.22-2.84 2.93-2.84 1.83zm83.2-2.5-2.54-3 3 2.54c2.82 2.39 3.61 3.46 2.54 3.46-.253 0-1.6-1.35-3-3zm-73.3-88.4 3.57-4.69-2.84-3.62c-3.36-4.28-1.23-5.88 2.88-2.17 2.56 2.32 2.8 2.33 4.4.137.931-1.27 2.7-2.32 3.92-2.32 1.92 0 1.82.556-.731 4l-2.96 4 2.92 3.95c3.35 4.53 3.55 5.39 1.3 5.39-.889 0-2.93-1.65-4.54-3.67l-2.93-3.67-1.67 3.67c-.995 2.18-2.73 3.67-4.28 3.67-2.41 0-2.34-.361.963-4.69zm51.4 3.96c0-.396 1.31-2.5 2.92-4.67l2.92-3.95-2.96-4c-2.68-3.63-2.74-4-.571-4 1.31 0 3.16 1.23 4.1 2.74l1.71 2.74 2.37-2.93c1.31-1.61 3.12-2.68 4.04-2.38 1.18.392.829 1.61-1.18 4.17l-2.84 3.62 3.57 4.69c2.98 3.91 3.2 4.69 1.3 4.69-1.25 0-3.42-1.35-4.82-3l-2.55-3-2.55 3c-2.32 2.74-5.45 4.04-5.45 2.28z" fill="#2c1609"/>
  <path d="m121 264c-.328-6.18-4.34-18.1-6.96-20.7-2.42-2.42-2.56-2.37-5.45 2.32-5.17 8.36-7.24 8.43-11.8.416-2.17-3.84-6-9.68-8.51-13-2.51-3.3-5.11-6.9-5.77-8-1.04-1.73-.891-1.75 1.07-.157 3.2 2.6 10.7 13.1 14.3 19.9 1.64 3.15 3.65 5.5 4.48 5.23.826-.269 4.92-5.64 9.1-11.9 4.23-6.38 8.88-11.9 10.5-12.4 2.55-.808 1.87-1.56-5.6-6.23-11.1-6.96-13.2-9.67-12.9-16.7.388-8.91 5.08-6.87 5.08 2.21 0 3.99 2.51 6.71 12.2 13.2 6.34 4.27 7.98 7.26 9.88 18 .653 3.69.389 5.52-.933 6.46-1.48 1.05-1.42 1.18.290.640 3.44-1.09 14.1 1.71 16.4 4.32 1.85 2.05 1.95 3.29.663 8.25-.835 3.21-1.61 7.19-1.71 8.84-.187 2.87-.697 3-12.2 3h-12zm116-2.67c-1.1-8.17-6.09-18.7-11.1-23.4-2.18-2.04-6.9-4.91-10.5-6.36-5.6-2.27-5.87-2.53-1.88-1.81 12.9 2.32 22.6 14.6 24.8 31.3.481 3.62.574 6.59.207 6.59s-1.05-2.85-1.52-6.33zm-210-2c1.49-12 14.4-29 21.8-28.6 1.82.0859 1.86.236.230.815-9.35 3.32-17 12.8-20.6 25.8-1.73 6.08-1.97 6.42-1.43 2.05zm132-10c-1.88-2.24-3.98-5.07-4.67-6.29-1.12-2.01-1.48-1.94-3.69.672-2.42 2.86-2.54 2.86-9.57.625l-7.12-2.27.684-6c1.08-9.5 3.04-13 9.8-17.7 10.5-7.22 12.4-9.59 12.4-15.6 0-4.64.402-5.39 2.89-5.39 1.59 0 2.51.379 2.05.842-.463.463-.245 1.96.485 3.32 2.22 4.14-2.01 9.96-12.1 16.6l-9.24 6.09 4.03 3.6c2.22 1.98 6.84 7.76 10.3 12.9 3.43 5.09 6.87 9.45 7.65 9.68.774.236 2.43-1.72 3.68-4.34 2.66-5.57 12.1-18.6 14.5-20.1.933-.572.625.434-.684 2.24-5.28 7.27-15.6 23.3-15.6 24.3-.00038 2.16-2.59.804-5.85-3.07zm-103-21c.917-.370 2.42-.370 3.33 0 .917.370.167.673-1.67.673-1.83 0-2.58-.303-1.67-.673zm147 0c.917-.370 2.42-.370 3.33 0 .917.370.167.673-1.67.673-1.83 0-2.58-.303-1.67-.673zm-139-2c.917-.370 2.42-.370 3.33 0 .917.370.167.673-1.67.673-1.83 0-2.58-.303-1.67-.673zm131 0c.917-.370 2.42-.370 3.33 0 .917.370.167.673-1.67.673-1.83 0-2.58-.303-1.67-.673zm-106-10c0-.277 1.05-1.33 2.33-2.33 2.11-1.66 2.16-1.61.503.503-1.74 2.22-2.84 2.93-2.84 1.83zm83.2-2.5-2.54-3 3 2.54c2.82 2.39 3.61 3.46 2.54 3.46-.253 0-1.6-1.35-3-3zm-74.6-87c.521-.917 1.82-2.68 2.89-3.93 1.72-2 1.6-2.73-.960-6.33-2.21-3.1-2.44-4.07-.971-4.07 1.06 0 2.86 1.35 3.99 3l2.06 3 2.18-3c1.2-1.65 3.15-3 4.33-3 1.77 0 1.64.549-.742 3.09-1.59 1.7-2.9 3.91-2.9 4.91 0 1.01 1.3 3.22 2.9 4.91 3.74 3.98.486 4.23-3.71.279l-2.99-2.81-1.75 2.81c-1.85 2.96-5.98 4.05-4.32 1.14zm55.4-2.33 2.96-4-2.96-4c-2.48-3.36-2.61-4-.798-4 1.19 0 3.23 1.32 4.53 2.93l2.37 2.93 1.83-2.93c1.01-1.61 2.63-2.93 3.6-2.93 1.23 0 .904 1.22-1.08 4l-2.85 4 2.85 4c2.18 3.07 2.4 4 .920 4-1.06 0-2.9-1.35-4.09-3l-2.16-3-2.16 3c-1.19 1.65-3.01 3-4.04 3-1.37 0-1.08-1.07 1.08-4z" fill="#131213"/>
  <path d="m238 261c.064-1.55.380-1.87.806-.806.385.962.338 2.11-.105 2.56-.443.443-.758-.344-0.7-1.75zm-1.33-5.33c.064-1.55.380-1.87.806-.806.385.962.338 2.11-.105 2.56-.443.443-.758-.344-0.7-1.75zm-207-5c0-1.43 3.97-8.82 4.74-8.82.367 0-.325 1.95-1.54 4.33-2.47 4.87-3.2 5.88-3.2 4.49zm203-4.43c-.724-1.9-.570-2.05.746-.746.911.904 1.32 1.98.910 2.39-.411.411-1.16-.329-1.66-1.64zm-75.6-1.39c-1.66-2.11-1.61-2.16.503-.503 1.28 1.01 2.33 2.06 2.33 2.33 0 1.1-1.09.391-2.84-1.83zm68.8-7.37c-4.97-5.11-5.04-5.28-.997-2.46 2.38 1.66 4.96 4.18 5.71 5.59 1.86 3.48 1.45 3.21-4.72-3.13zm-134-1c-1.57-2.2-2.55-4-2.18-4 .367 0 1.95 1.8 3.51 4 1.57 2.2 2.55 4 2.18 4-.367 0-1.95-1.8-3.51-4zm20.1-.996c1.71-3.11 4.57-7.01 6.37-8.67 2.32-2.13 1.79-.860-1.81 4.33-6.75 9.74-8.35 11.3-4.56 4.34zm37.2-3.34c-3.8-5.79-4.32-7.04-1.72-4.1 4.01 4.53 9.02 12.4 7.87 12.4-.381 0-3.15-3.75-6.16-8.33zm-112 3.67c1.72-1.83 3.43-3.33 3.8-3.33.367 0-.743 1.5-2.46 3.33s-3.43 3.33-3.8 3.33c-.367 0 .743-1.5 2.46-3.33zm92.1 1.22c.064-1.55.380-1.87.806-.806.385.962.338 2.11-.105 2.56-.443.443-.758-.344-0.7-1.75zm5.91-3.58c.826-8.7 3.7-13.7 10.4-17.9 3.1-1.97 7.16-4.82 9.02-6.33 1.87-1.51 1.49-.943-.838 1.26s-6.71 5.98-9.73 8.41c-5.03 4.03-7.77 8.41-3.83 6.11.917-.536.522.331-.877 1.93s-3.03 5.15-3.63 7.9c-.985 4.55-1.03 4.42-.478-1.36zm37.9.690c.723-1.28 2.89-4.13 4.82-6.33 2.65-3.03 2.45-2.46-.827 2.33-4.28 6.26-6.54 8.52-3.99 4zm-45.1-2.23c-.0851-1.41-1.2-3.76-2.49-5.23-1.3-1.49-1.52-2.19-.494-1.59 1.26.741 1.65.498 1.25-.771-.326-1.02-4.45-4.79-9.17-8.37-4.72-3.59-9.43-7.79-10.5-9.33-1.17-1.75-.166-1.25 2.67 1.33 2.5 2.28 7.35 6.02 10.8 8.32 6.35 4.27 9.99 10.9 8.69 15.9-.538 2.06-.630 2.04-.767-.218zm76.9-5.68c.962-.385 2.11-.338 2.56.105.443.443-.344.758-1.75 0.7-1.55-.064-1.87-.380-.806-.806zm-47.8-23.8c0-1.14.610-1.7 1.36-1.24.745.461 1.01 1.4.588 2.08-1.14 1.85-1.94 1.5-1.94-.838zm-51.3-.588c.453-.733 1.09-1.33 1.41-1.33.323 0 .588.6.588 1.33 0 .733-.635 1.33-1.41 1.33-.777 0-1.04-.6-.588-1.33zm-6-78.7 2.85-4-2.85-4c-2.18-3.07-2.4-4-.920-4 1.06 0 2.9 1.35 4.09 3l2.16 3 2.16-3c1.19-1.65 3.1-3 4.25-3 1.53 0 1.11 1.02-1.57 3.81l-3.65 3.81 3.52 4.19c2.62 3.12 3 4.19 1.48 4.19-1.12 0-3.01-1.35-4.19-3l-2.14-3-2.48 3c-3.72 4.5-6.03 3.65-2.72-1zm53.1.914c1.59-1.7 2.9-3.91 2.9-4.91 0-1.01-1.3-3.22-2.9-4.91l-2.9-3.09h2.81c1.64 0 3.16 1.11 3.66 2.67.466 1.47 1.4 2.67 2.08 2.67.678 0 1.98-1.2 2.9-2.67.916-1.47 2.44-2.67 3.38-2.67 1.14 0 .749 1.31-1.16 3.89l-2.88 3.89 2.93 4.11c2.23 3.13 2.46 4.11.999 4.11-1.06 0-2.9-1.35-4.09-3l-2.16-3-2.16 3c-1.19 1.65-3.09 3-4.23 3-1.63 0-1.46-.653.829-3.09z" fill="#040404"/>
 </g>
</svg>
