<?xml version="1.0" encoding="UTF-8" standalone="no"?>
<svg xmlns:rdf="http://www.w3.org/1999/02/22-rdf-syntax-ns#" xmlns="http://www.w3.org/2000/svg" height="267" viewBox="0 0 266.66666 266.66666" width="267" version="1.1" xmlns:cc="http://creativecommons.org/ns#" xmlns:dc="http://purl.org/dc/elements/1.1/">
 <g stroke-width="1.33">
  <path d="m24 264c0-5.12 5.42-19.9 9.24-25.1 5.81-8.02 17.4-13.2 33.8-15.2 7.5-.904 13-2.18 13-3.02.0132-.799 3.06-3.44 6.78-5.87 5-3.27 7.46-6.04 9.47-10.7 3.29-7.57 6.06-10.9 9.03-10.9 1.71 0 2.09-.916 1.65-3.96-.796-5.42-12.6-15.5-19.7-16.8-15.6-2.85-28.5-15.6-28.6-28.3-.0041-.923-1.75-4.08-3.88-7.02-4.28-5.91-6.8-14.8-6.81-24-.0021-3.3-.215-13.5-.472-22.7-.492-17.5 1.1-24.9 6.27-29.2 1.39-1.15 2.22-3.81 2.22-7.13 0-7.03 3.36-13.8 9.03-18.1 2.55-1.96 6.59-5.47 8.99-7.8s6.98-5 10.2-5.93c3.19-.932 6.32-2.53 6.94-3.55 1.36-2.23 9.06-5.61 12.8-5.61 1.46 0 4.86-1.5 7.56-3.33 5.53-3.76 10.6-4.27 13.8-1.39 1.88 1.7 3.02 1.68 9.19-.125 6.39-1.87 7.93-1.87 16.4.0531 11.7 2.64 23.7 8.96 29.7 15.6 2.91 3.22 6.6 5.61 10.1 6.56 6.5 1.75 11.4 6.2 12.7 11.5.518 2.08 3.17 6.78 5.9 10.4 2.73 3.67 6.34 9.37 8.03 12.7 3.09 6.05 3.09 5.99 2.38 29-.0624 2.02 1.17 7.14 2.74 11.4 3.2 8.65 2.44 15-2.56 21.3-1.46 1.86-2.66 5.31-2.66 7.66 0 3.16-1.31 5.6-5 9.32-2.75 2.77-6.18 7.26-7.62 9.98-3.53 6.67-9.96 11.8-22.7 18.1-13.2 6.52-20.7 12.9-20.7 17.5 0 2.52.874 3.6 3.43 4.24 2.53.635 4.26 2.74 6.6 8.04 1.94 4.4 5.09 8.64 8.12 11 2.72 2.08 6.2 5.04 7.73 6.58 1.98 1.99 5.3 3.08 11.5 3.75 26.7 2.91 37.5 10.4 43.4 29.9 1.03 3.41 1.89 7.85 1.9 9.86l.0144 3.67h-107c-107 0-110-.0672-110-2.53zm118-89c2.38-2.38 3.01-3.76 1.88-4.13-1.31-.437-1.33-.987-.0969-2.47 1.35-1.63 1.05-1.71-2.03-.537-1.99.757-6.7 1.38-10.5 1.38-7.6 0-7.35 2.12.353 3.02 4.25.499 4.13.572-1.33.806l-6 .258 3.15 2.62c4.47 3.73 10.2 3.35 14.5-.946zm-29-59.8c-.928-1.12-1.96-1.76-2.3-1.42-.925.925.954 3.45 2.57 3.45.884 0 .783-.765-.269-2.03zm59 0c0-1.15-1.2-2-2.83-2-2.36 0-2.56.329-1.17 2 .913 1.1 2.19 2 2.83 2 .644 0 1.17-.9 1.17-2z" fill="#d3cec9"/>
  <path d="m24 265c.0306-3.22 3.59-15 5.92-19.7 6.44-12.8 17.1-18.8 38-21.5 6.98-.895 12.1-2.17 12.1-3.04.0398-.821 2.89-3.29 6.33-5.49 4.75-3.03 7.18-5.89 10.1-11.8 2.71-5.6 4.87-8.24 7.58-9.26 3.32-1.25 3.69-1.94 3.02-5.5-.425-2.24-.837-4.11-.915-4.15-.078-.0407-3.51-2.89-7.62-6.33-4.8-4-8.7-6-11-6-1.96 0-5.76-.919-8.45-2.04-11-4.6-17.6-12.5-19.6-23.5-.485-2.68-1.98-6.28-3.31-8-4.86-6.26-6.14-10-7.01-20.5-.491-5.87-1.32-13.5-1.85-16.9-.549-3.58-.367-7.93.426-10.2.832-2.39.947-5.91.289-8.83-1.35-5.99.485-13.3 4.78-19 1.85-2.46 3.2-6.07 3.2-8.58 0-6.65 4.93-15.4 11.1-19.8 3.04-2.15 6.84-5.33 8.45-7.07 1.6-1.74 5.49-3.94 8.65-4.88 3.16-.946 7.01-3.08 8.55-4.75 1.63-1.76 5.27-3.45 8.67-4.02 3.22-.545 7.95-2.41 10.5-4.15 5.38-3.66 8.94-3.98 13-1.16 2.17 1.52 3.71 1.68 6.38.667 5.59-2.13 17-1.56 26.2 1.29 9.3 2.89 21.3 10.3 24.5 15.2 1.12 1.71 4.53 3.85 7.58 4.76 8.43 2.53 11.6 5.17 13.3 11.2.876 3.04 3.49 7.67 5.8 10.3 7.31 8.29 11.5 18.5 11.5 28.1-.00077 4.67-.549 9.96-1.22 11.8-.937 2.53-.460 4.79 2.07 9.83 4.06 8.08 3.74 18.2-.776 24.5-1.6 2.25-2.91 6.03-2.91 8.42 0 3.27-1.23 5.51-5.02 9.13-2.76 2.64-6.6 7.49-8.54 10.8-4.13 7.05-8.61 10.6-21.6 17-13.5 6.65-20.9 13-20.9 17.8 0 2.3.709 3.84 1.77 3.84 2.42 0 6.78 5.1 8.86 10.4 1.63 4.13 12.4 15 14.9 15 .630 0 1.15.779 1.15 1.73 0 1.18 3.93 2.23 12.4 3.3 20.2 2.55 29.6 7.14 36.2 17.5 3.44 5.45 7.4 17.4 7.4 22.3v3.09h-108c-87.1 0-110-.347-110-1.67zm119-90c4.47-5.31 3.49-8.15-2.25-6.51-2.33.667-7.12 1.21-10.6 1.21-7.13 0-7.6 2.55-.518 2.84l4.25.176-4.67.824-4.67.824 3.3 2.33c5.22 3.69 11.2 3.02 15.2-1.7zm34.2-60.3c.0112-.55-.580-1-1.31-1-.733 0-1.32 1.35-1.31 3 .0165 2.43.268 2.62 1.31 1 .711-1.1 1.3-2.45 1.31-3zm-84.4.0833c-.426-1.06-.742-.748-.806.806-.0579 1.41.257 2.19 0.7 1.75.443-.443.490-1.59.105-2.56zm23.4 1c0-1.59-5.28-4.54-6.3-3.52-1.1 1.1 2.34 4.81 4.47 4.81 1.01 0 1.84-.579 1.84-1.29zm56.7-1.4c0-1.09-1.35-2.17-3-2.41-2.92-.414-4.16 2.15-2.07 4.25 1.55 1.55 5.07.276 5.07-1.84z" fill="#d6c7b8"/>
  <path d="m24.8 262c1.73-9.56 6.27-19.5 11.5-25.2 6.58-7.14 15.5-10.6 32.4-12.7 8.44-1.04 12.6-2.11 12.6-3.23 0-.923 1.96-2.89 4.36-4.37 6.32-3.91 10-8.26 12.1-14.3 1.53-4.44 4.9-7.63 9.91-9.39.188-.0661-.0137-1.9-.449-4.08-1-6-13.8-16-20.9-17-13.3-3-23.7-12-25.9-24-.7-4-2.4-8-3.9-10-1.4-1-3.4-4-4.4-6-1.76-3.36-4.16-23.5-4.11-34.7.116-27-.0374-25.8 4.18-32.4 2.21-3.48 4.02-7.66 4.02-9.28.0154-6.13 2.95-13.2 7.06-16.9 10.8-9.88 17.2-14.6 21.9-16.1 2.78-.907 6.47-3.03 8.18-4.73 1.9-1.88 5.54-3.42 9.33-3.97 3.42-.489 7.42-1.95 8.88-3.24 4.27-3.77 8.18-4.35 13.2-1.97 3.5 1.66 5.24 1.84 7.28.746 4.19-2.25 16.5-1.69 25.6 1.16 8.99 2.8 21.2 10.4 24.3 15.3 1.07 1.64 4.56 3.75 7.75 4.69 7.15 2.1 12.7 7.16 13.9 12.6 0.5 2.28 2.8 6.35 5.12 9.06 9.42 11 13.6 26.4 10.5 38.4-1 3.8-.657 5.9 1.86 11.3 4.05 8.74 3.99 15.9-.185 22.7-1.81 2.93-3.31 6.83-3.33 8.67-.0556 3.98-4.55 11.8-7.43 12.9-1.13.432-3.18 2.99-4.55 5.69-3.79 7.43-10.3 13.1-21.8 18.8-14.4 7.2-22.3 13.9-22.3 18.8 0 2.3.709 3.84 1.77 3.84 2.52 0 6.67 5.08 9.5 11.6 1.65 3.82 4.5 7.03 8.88 10 3.55 2.4 6.46 5.02 6.48 5.82.0196.829 5.34 2.1 12.4 2.97 15.6 1.92 23.3 4.55 30 10.2 5.97 5.11 11.9 17.1 13.2 26.5l.844 6.16h-221zm118-87c3.63-4.32 3.43-8.8-.331-7.2-1.19.505-6.06 1.33-10.8 1.83-8.24.870-8.69 1.94-1.33 3.15 2.73.451 2.55.583-1 .732-5.05.211-5.6 1.83-1.33 3.89 5.81 2.8 11.2 1.93 14.8-2.41zm34.2-60.3c.0112-.55-.580-1-1.31-1-.733 0-1.32 1.35-1.31 3 .0165 2.43.268 2.62 1.31 1 .711-1.1 1.3-2.45 1.31-3zm-84.4.0833c-.426-1.06-.742-.748-.806.806-.0579 1.41.257 2.19 0.7 1.75.443-.443.490-1.59.105-2.56zm23.4 1c0-1.59-5.28-4.54-6.3-3.52-1.1 1.1 2.34 4.81 4.47 4.81 1.01 0 1.84-.579 1.84-1.29zm56.7-1.4c0-1.18-1.52-2.16-3.77-2.41-3.47-.398-3.65-.209-2.24 2.41 1.68 3.14 6.01 3.14 6.01-.00055z" fill="#c5ad96"/>
  <path d="m24.8 262c1.98-10.9 6.2-19.6 12.5-25.8 7.47-7.29 14.6-10 31.7-12.1 8.22-1.01 12.3-2.08 12.3-3.19 0-.923 1.96-2.89 4.36-4.37 6.32-3.91 10-8.26 12.1-14.3 1.53-4.44 4.9-7.63 9.91-9.39.188-.0661-.0137-1.9-.449-4.08-1-5-14.4-17-19.3-17-1.8 0-7.01-1.86-11.6-4.14-9.59-4.79-14.6-11.2-15.8-20.1-.410-3.28-2.02-7.2-3.72-9.1-5.07-5.63-6.26-9.26-7.63-23.2-1.42-14.5-1.45-15.5-.798-33.6.378-10.6.899-12.8 4.1-17.6 2.02-3.05 3.67-6.83 3.67-8.41 0-8.12 3.23-13.5 13.4-22.5 5.63-4.96 12.6-9.78 15.4-10.7 2.85-.928 6.8-3.04 8.79-4.7s6.11-3.44 9.15-3.95c3.04-.514 7.65-2.37 10.2-4.13 5.56-3.77 5.93-3.81 11.2-1.1 3.18 1.65 4.92 1.79 8.13.667 13-4.53 33.9 1.8 46.4 14 3.35 3.27 8.23 6.54 10.8 7.27 6.76 1.87 11.3 5.87 13.2 11.6.891 2.74 3.41 7.04 5.6 9.55 6.71 7.71 11.6 19.7 11.6 28.3.00057 4.17-.596 9.15-1.32 11.1-1.05 2.77-.725 4.64 1.58 9.09 4.38 8.43 4.12 18.9-.641 26.1-2.04 3.09-3.4 6.13-3.02 6.75 1.43 2.32-2.29 9.39-6.7 12.8-2.51 1.91-4.56 4.36-4.56 5.44 0 4.1-11.1 13.9-21.2 18.9-20.7 10.1-27.9 19.5-18.8 24.6 2.2 1.25 4.61 3.95 5.35 6 2.75 7.59 4.78 10.2 10.9 14.3 3.47 2.27 6.32 4.78 6.33 5.58.0137.830 5.31 2.1 12.4 2.97 26.4 3.25 36.3 10.7 41.8 31.6 3.39 12.7 16.2 11.3-108 11.3h-111zm118-87c3.63-4.31 3.42-8.77-.331-7.24-1.19.484-5.92 1.2-10.5 1.59-6.3.539-8.02 1.11-7.01 2.32.733.883.932 2.01.442 2.5-1.67 1.67 4.23 4.78 9.13 4.82 3.83.0332 5.62-.831 8.28-3.99zm50.1-19c-.33-.264-2.66 1.97-5.18 4.96l-4 5 5.18-4.96c2.85-2.73 4.91-5.17 4.58-5.44zm-120-9c-1.06-4.4-1.82-5.95-1.89-3.87-.109 3.34 2.44 12.4 3.26 11.6.219-.221-.399-3.7-1.37-7.73zm46.9-28.2c-.426-1.06-.742-.748-.806.806-.0579 1.41.257 2.19 0.7 1.75.443-.443.490-1.59.105-2.56zm30.7 0c-.426-1.06-.742-.748-.806.806-.0579 1.41.257 2.19 0.7 1.75.443-.443.490-1.59.105-2.56zm27.1-4.08c.0112-.55-.580-1-1.31-1-.733 0-1.32 1.35-1.31 3 .0165 2.43.268 2.62 1.31 1 .711-1.1 1.3-2.45 1.31-3zm-83.5 1c.422-1.1.186-2-.524-2s-1.29.9-1.29 2 .236 2 .524 2 .869-.9 1.29-2zm21.5 0c0-1.59-5.28-4.54-6.3-3.52-1.1 1.1 2.34 4.81 4.47 4.81 1.01 0 1.84-.579 1.84-1.29zm56.7-.175c1.3-2.1-2.81-5.72-5.37-4.74-1.72.659-1.87 1.38-.723 3.52 1.57 2.93 4.65 3.55 6.09 1.23zm4.11-45.9c-2.83-1.04-7.33-3.15-10-4.69-3.11-1.8-3.9-1.99-2.19-.541 3.42 2.9 12.7 7.26 15.3 7.18 1.1-.0356-.314-.913-3.14-1.95zm-111-14.1c.490-4.73.365-6.15-.353-4-1.1 3.3-1.83 13-.892 11.9.267-.306.828-3.86 1.25-7.89zm111-8.5c0-.252-3.15-3-7-6.1l-7-5.64 6.63 6.1c6.4 5.89 7.37 6.63 7.37 5.64zm-51-30.3c3.99-1.63 4.9-2.31 2.41-1.81-4.85.984-14.2 6.26-16.8 9.5-1.04 1.29.322.684 3.03-1.36s7.81-4.89 11.3-6.33z" fill="#b2a08e"/>
  <path d="m24.5 264c.361-1.28 1.08-4.41 1.59-6.95 4.43-21.9 16.6-30.6 47.6-34.1 5.22-.597 7.67-1.47 7.67-2.72 0-1.02.516-1.85 1.15-1.85 3.01 0 13.3-11 15.4-16.5 1.63-4.26 3.45-6.5 6.3-7.74 3.48-1.51 3.91-2.26 3.24-5.65-1.18-6.01-13.3-16.3-20.4-17.3-14.4-2-27-14.2-27-26.1 0-2.07-1.24-4.82-2.8-6.24-4.9-4.44-6.82-10-8.17-23.8-1.42-14.5-1.44-15.4-.795-33.5.374-10.5.911-12.8 3.95-17.3 1.93-2.87 3.9-7.83 4.37-11 .472-3.19 1.72-7.47 2.77-9.51 2.78-5.38 19.9-19.7 25.4-21.2 2.57-.711 6.52-2.84 8.76-4.73 2.25-1.89 5.69-3.44 7.65-3.46 1.96-.0108 5.06-.895 6.9-1.96 9.76-5.7 11.8-6.19 16.1-3.95 3.23 1.67 4.96 1.82 8.18.692 12.8-4.47 33.2 1.73 46.4 14.1 3.5 3.27 8.45 6.53 11 7.23 6.63 1.83 11.2 5.86 13 11.6.897 2.74 3.57 7.38 5.94 10.3 9.5 11.8 13.7 27.7 10.1 38.1-1.3 3.73-1.09 5.22 1.49 10.5 4.17 8.46 4.09 18.4-.191 24.2-1.76 2.38-3.41 6.17-3.68 8.43-.785 6.74-1.68 8.4-6.51 12.1-2.54 1.94-4.61 4.4-4.61 5.48 0 4.08-10.8 13.6-21 18.7-20 9.78-28.5 20.3-19.6 24.3 2.05.935 4.74 4.48 7 9.21 2.79 5.85 5.17 8.66 9.93 11.7 3.44 2.2 6.29 4.64 6.33 5.42.0399.780 6.72 2.42 14.8 3.64 22.4 3.37 31.5 9.32 37.2 24.5 1.33 3.53 2.84 8.96 3.35 12.1l.938 5.67h-107c-104 0-110-.125-110-2.33zm116-86c3.95-2.04 5.65-4.69 6.25-9.72.309-2.6.004-2.82-2.24-1.62-1.43.764-6.39 1.74-11 2.18-8.11.757-8.42.919-7.81 4.09 0.4 2.09 2.15 3.96 4.78 5.11 5.28 2.3 5.54 2.3 10.1-.0396zm46.6-13.9c2.92-2.1 9.33-10.8 7.95-10.8-.225.001-3.35 3-6.95 6.67-6.76 6.89-7.16 8.55-.999 4.13zm-110-7c-1.14-1.74-2.98-6.74-4.1-11.1l-2-8 .431 6.67c.273 4.23 1.61 8.47 3.64 11.6 1.77 2.69 3.42 4.69 3.67 4.44.251-.251-.477-1.88-1.62-3.62zm42.9-38.6c-.333-.999-.937-.394-1.41 1.41-.580 2.22-.406 2.74.583 1.75.775-.775 1.15-2.2.826-3.16zm30.5-.151c-.370-.917-.673-.167-.673 1.67 0 1.83.303 2.58.673 1.67.370-.917.370-2.42 0-3.33zm-55.5-3.27c0-2.68-.385-3.21-1.51-2.09-.831.831-1.15 2.45-.709 3.6 1.22 3.18 2.22 2.5 2.22-1.51zm21.5 0c0-.939-1.5-2.39-3.33-3.23-2.7-1.23-3.33-1.16-3.33.357 0 2.48 3.89 6.29 5.44 5.33.674-.417 1.23-1.53 1.23-2.46zm57.1-1.31c-.281-1.97-1.52-2.96-4.07-3.25-4.17-.480-4.54.584-1.63 4.74 2.48 3.55 6.28 2.56 5.7-1.48zm4.26 1.17c0-1.01-.6-2.21-1.33-2.67-.759-.469-1.33.679-1.33 2.67s.574 3.14 1.33 2.67c.733-.453 1.33-1.65 1.33-2.67zm-119-2c-.434-1.13-1.08-1.77-1.43-1.42s-.240 1.28.243 2.06c1.31 2.13 2.08 1.71 1.18-.635zm154-28.7c-.288-2.75-.523-.5-.523 5s.235 7.75.523 5 .288-7.25 0-10zm-135 2c-.370-.917-.673-.167-.673 1.67 0 1.83.303 2.58.673 1.67.370-.917.370-2.42 0-3.33zm1.36-5.25c-.426-1.06-.742-.748-.806.806-.0579 1.41.257 2.19 0.7 1.75.443-.443.490-1.59.105-2.56zm98.7-11.4c-3.51-1.17-9.15-4.57-12.5-7.54-3.42-3.01-5.52-4.24-4.74-2.77 3.08 5.76 14.1 12.5 20.3 12.5 2.32-.0203 1.4-.673-3.05-2.16zm-111-4.6c-.452-2.41.0529-8.16 1.12-12.8 2-8.68 1.1-9.63-1.57-1.64-1.64 4.92-2 13.3-.706 16.7 1.38 3.59 2.02 2.33 1.16-2.27zm115-16.6c-2.2-1.17-7.6-5.54-12-9.73-4.4-4.18-9.43-8.37-11.2-9.3-1.74-.930 1.16 2.42 6.44 7.45 9.17 8.71 16.4 13.9 19.4 13.8.745-.0294-.446-1.01-2.65-2.17zm-61-28c2.3-1.2 7.47-3.24 11.5-4.55 6.01-1.94 6.61-2.38 3.33-2.44-5.59-.0987-19.2 6.73-24 12l-4 4.43 4.49-3.64c2.47-2 6.37-4.62 8.67-5.82z" fill="#b69574"/>
  <path d="m25.6 260c4.39-24.2 16-33 48.1-36.7 5.22-.597 7.67-1.47 7.67-2.72 0-1.02.516-1.85 1.15-1.85 3.01 0 13.3-11 15.4-16.5 1.63-4.26 3.45-6.5 6.3-7.74 3.48-1.51 3.91-2.26 3.24-5.65-.943-4.79-13.5-16.6-17.7-16.7-5.58-.115-17.2-5.39-21.4-9.72-4.63-4.79-8.33-12.5-8.33-17.4 0-1.74-1.16-4.22-2.57-5.5-4.7-5-7.3-12-8.5-26-.7-7-1.2-14.8-1.2-16.7.0636-1.83.159-7.83.213-13.3.112-11.5 1.62-17.4 5.33-20.7 1.44-1.3 2.62-3.92 2.62-5.83.0190-8.83 2.83-14.1 12.4-23.1 6.18-5.83 11.4-9.56 14.9-10.6 2.93-.867 7.3-3.26 9.71-5.32 3.15-2.7 5.81-3.75 9.5-3.75 3.14 0 5.83-.854 6.95-2.2 3.52-4.25 9.33-5.76 14.2-3.72 3.53 1.48 5.73 1.54 11 .317 13.2-3.06 32 3.17 44.3 14.7 3.95 3.71 8.86 6.98 11.3 7.5 6.04 1.3 10.6 5.31 12.5 11 .883 2.68 3.66 7.56 6.17 10.8 9.5 12.4 12.4 22.2 10.3 34.5-1.1 6.38-1.12 6.34-1.89-4.9-.823-12-5.67-25.5-10.8-30.1-2.41-2.18-2.52-2.11-2.63 1.6-.0762 2.64-.626 1.54-1.73-3.46-.890-4.03-2.36-8.68-3.27-10.3-1.97-3.57-12.2-9.25-12.2-6.77 0 .895-2.97-1.71-6.6-5.78-7.06-7.92-13.8-11.6-28.1-15.2-9.13-2.34-16-1.73-25.1 2.25-7.1 3.08-8.39 3.21-4.44.443 6.75-4.73-3.89-6.5-11.4-1.9-2.4 1.46-5.4 2.66-6.67 2.67-3.76.0081-10.8 4.99-13.6 9.65-2.35 3.86-2.65 4.01-2.65 1.35-.0027-1.65-.516-3-1.14-3-2.47 0-10.3 6.33-12.9 10.3-1.47 2.33-3.35 4-4.19 3.71-.839-.288-2.72.782-4.18 2.38-5.14 5.62-7.49 12-7.56 20.4-.0370 4.51-.517 7.93-1.07 7.59-.55-.339-1.05-1.93-1.11-3.54-.0839-2.27-.689-1.73-2.72 2.41-3.09 6.31-2.75 17.7.712 24.5 2.35 4.54 1.52 5.69-1.37 1.88-1.54-2.03-1.78-1.36-1.81 5.17-.0233 4.12.840 10 1.92 13.1 1.26 3.56 1.42 5.22.457 4.63-2.31-1.42-.298 10.5 2.77 16.5 1.41 2.75 4.42 6.76 6.69 8.91 4.14 3.94 5.89 7.87 2.09 4.72-3.32-2.76-3.67-.588-.806 5.02 3.98 7.81 13.4 15.4 22.4 18.2 2.82.868 2.78.650-.945-6.16-2.13-3.89-4.24-10.1-4.71-13.8-.731-5.85.563-20.1 2.84-31.2.643-3.15.538-3.11-1.89.667-3.24 5.04-17.5 19.1-17.5 17.2 0-.764 1.45-2.75 3.23-4.42 7.84-7.36 15.5-29.3 17.4-50.1 1.16-12.3 5.24-20.5 11.8-23.7 6.6-2.7 7.6-2.7 16.6.8 2.02.819 2.33.126 2.33-5.17 0-5.05.579-6.49 3.34-8.3 2.84-1.86 3.95-1.94 7.41-.502 5.98 2.48 10 8.62 14 21.3 8.46 27.2 13.3 34.2 26.6 38 6.15 1.79 8.63 1.89 14.8.603 4.09-.849 7.79-1.19 8.22-.761.431.431-.517.783-2.11.783-3.57 0-3.8 2.2-.351 3.29 4.48 1.42 7.24 9.48 6.36 18.6-.832 8.66-5.35 23.2-10.1 32.5-1.6 3.13-3.48 7.22-4.2 9.09l-1.29 3.4 6.64-3.84c10.9-6.27 18.4-12 20.1-15.3 1.58-3.01 1.55-3.03-1.01-.764-1.45 1.28-3.17 2.33-3.82 2.33-.654 0 2.84-3.84 7.77-8.53s8.96-9.58 8.96-10.9c0-2.21-.150-2.21-2.67.0709-4.12 3.72-3.15.907 1.5-4.39 7.56-8.61 9.43-16.6 6.3-27.1-1.41-4.7-1.7-4.94-3.44-2.82-1.79 2.17-1.86 2.17-1.13-.133.427-1.34.779-3.44.784-4.67.0139-3.51 4.83 4.57 6.69 11.2 2.03 7.24.812 14-3.42 19-2.08 2.47-3.28 5.56-3.28 8.44 0 3.54-1.18 5.69-5.33 9.74-2.93 2.86-5.33 6.01-5.33 7 0 3.56-12.8 14.5-22 18.9-5.1 2.41-12.1 6.57-15.6 9.24-5.06 3.9-6.32 5.67-6.36 8.98-.0432 3.13.744 4.48 3.28 5.64 2.05.935 4.74 4.48 7 9.21 2.79 5.85 5.17 8.66 9.93 11.7 3.44 2.2 6.29 4.64 6.33 5.42.0399.780 6.72 2.42 14.8 3.64 22.4 3.37 31.5 9.32 37.2 24.5 1.33 3.53 2.84 8.96 3.35 12.1l.938 5.67h-220zm114-82c3.95-2.04 5.65-4.69 6.25-9.72.319-2.68.0509-2.84-2.49-1.48-1.56.837-6.63 1.59-11.3 1.67-6.41.114-8.25.572-7.74 1.92.368.977.669 2.66.669 3.73 0 1.08 1.95 2.8 4.33 3.84 5.48 2.38 5.7 2.38 10.2.0372zm-20.2-59.6c-.333-.999-.937-.394-1.41 1.41-.580 2.22-.406 2.74.583 1.75.775-.775 1.15-2.2.826-3.16zm30.5-.151c-.370-.917-.673-.167-.673 1.67 0 1.83.303 2.58.673 1.67.370-.917.370-2.42 0-3.33zm-55.5-3.27c0-2.68-.385-3.21-1.51-2.09-.831.831-1.15 2.45-.709 3.6 1.22 3.18 2.22 2.5 2.22-1.51zm21.5 0c0-.939-1.5-2.39-3.33-3.23-2.7-1.23-3.33-1.16-3.33.357 0 2.48 3.89 6.29 5.44 5.33.674-.417 1.23-1.53 1.23-2.46zm57.1-1.31c-.281-1.97-1.52-2.96-4.07-3.25-4.17-.480-4.54.584-1.63 4.74 2.48 3.55 6.28 2.56 5.7-1.48zm4.26 1.17c0-1.01-.6-2.21-1.33-2.67-.759-.469-1.33.679-1.33 2.67s.574 3.14 1.33 2.67c.733-.453 1.33-1.65 1.33-2.67zm16 31c-.0239-.733 3.27-5.48 7.31-10.5 4.04-5.07 7.69-10.8 8.11-12.7 1.27-5.79 1.64-6.29 1.75-2.32.0579 2.09-.895 5.91-2.12 8.48-2 5-15 19-15 17zm-134-20c0-.438.848-3.2 1.88-6.14 1.04-2.94 2.56-10.1 3.38-15.8 3.76-26.5 7.36-37.3 15.2-45.6 7.94-8.43 21.5-12.6 25.5-7.91.782.934.847 1.25.145.698-2.22-1.74-9.22-1.03-14.8 1.51-11 5.01-15.9 14.9-20.7 41.6-1.61 9.08-3.74 18.8-4.72 21.6-1.65 4.68-5.87 11.9-5.87 10.1zm142-12c4.51-9.8 5.08-23.9 1.26-31-1.33-2.46-1.76-4.08-.963-3.58 6.31 3.9 8.16 23.8 3.12 33.5-4.72 9.08-7.5 9.95-3.42 1.08zm-30-29.9c-6.99-2.13-14.6-6.9-17.9-11.1-1.84-2.42-5.14-8.79-7.33-14.2-5.95-14.6-12.2-20.1-22.9-20.1-4.52 0-6.28.796-9.61 4.33-2.64 2.81-3.54 3.32-2.54 1.44 4.31-8.15 13.5-10.6 22.6-5.89 7.35 3.78 11.9 9.25 16.2 19.6 5.08 12.1 10.9 18.8 19.6 22.8 8.9 4.07 9.75 5.58 1.78 3.15zm5.09-21.9c-8.72-2.35-14.8-7.41-22.1-18.5-5.25-7.95-7.38-10-12.6-12.1-5.64-2.32-7.05-2.41-13.8-.896-5.22 1.17-9.11 3.12-12.7 6.38-2.86 2.58-5.2 3.95-5.2 3.04 0-1.31-.414-1.31-2 .0081-3.08 2.56-2.37.0750 1.38-4.84 10.9-14.3 41.2-19.7 59.6-10.7 4.02 1.97 8.46 4.91 9.86 6.54l2.54 2.96-3.33-2.32c-9.3-6.46-15-8.08-28.7-8.15-7.33-.0351-15.7.658-18.7 1.54-6.92 2.08-19.6 9.78-20.4 12.3-.345 1.15 1.03.507 3.24-1.51 9.42-8.62 22-11.3 31.4-6.64 5.81 2.87 8.74 6.16 15.9 17.8 5.45 8.89 12.8 13.4 23 14.1 5.81.425 7.43.908 5.55 1.65-3.63 1.43-5.64 1.33-12.9-.624zm-107-2.9c-.174-5.62 3.02-13.4 7.24-17.6 3.9-3.9 5.21-4.39 11.5-4.35 3.92.0260 8.63.880 10.5 1.9 3.06 1.7 2.66 1.79-4.75 1.12-13.1-1.18-16 1.1-23 18.3-1.17 2.85-1.38 2.94-1.45.667zm30.6-28.7c0-2.48 3.55-9.92 5.46-11.5 1.03-.827 3.35-1.96 5.16-2.51 2.9-.892 2.72-.472-1.58 3.57-2.67 2.52-5.27 6.2-5.76 8.18-.865 3.45-3.28 5.08-3.28 2.22z" fill="#ab8864"/>
  <path d="m25 263c1.38-8.46 6-20.1 9.85-24.8 5.95-7.21 15.1-11.3 30.2-13.6 7.13-1.08 13.7-1.96 14.6-1.96.917-.004 1.67-.908 1.67-2.01s.516-2 1.15-2c2.99 0 13.3-11 15.4-16.5 1.61-4.22 3.4-6.4 6.21-7.56 6.33-2.62 5.29-6.94-3.72-15.4-4.22-3.95-8.61-7.2-9.76-7.22-5.33-.0744-16.4-4.55-20.8-8.41-5.3-4.65-9.7-13-9.74-18.4-.0161-1.9-1.19-4.51-2.6-5.79s-3.57-4.44-4.8-7.02c-2.3-4.84-5.23-29.5-4.49-37.7.229-2.57.283-8.23.12-12.6-.341-9.1 1.38-15.4 5.13-18.8 1.44-1.3 2.62-3.92 2.62-5.83.0157-7.32 3-14.1 8.47-19.3 3.04-2.87 7.34-6.92 9.55-8.99 4.04-3.79 12.1-7.45 13.5-6.1.396.396 2.72-1.33 5.15-3.85 3.04-3.13 5.62-4.55 8.21-4.51l3.78.0522-4.02 1.75c-2.21.965-5.96 3.96-8.33 6.66-2.63 3-4.31 4.11-4.31 2.86-.4.6-.8-.3-1.2-.3-1.34 0-11.2 5.76-11.2 6.58-.0264.415-1.55 2.55-3.38 4.75-2.41 2.9-3.11 3.27-2.52 1.33.526-1.72-.887-.805-4 2.6-5.39 5.91-9.29 17.1-8.46 24.2.615 5.27.124 5.77-1.52 1.54-1.1-2.85-1.27-2.75-3.29 1.96-2.87 6.68-2.63 16.4.568 23.7 2.56 5.81 2.56 5.91.0690 2.97-2.45-2.89-2.6-2.91-3.38-.460-.831 2.62 1.14 17.8 2.62 20.2.450.728.197 1.32-.561 1.32-3.24 0 1.63 16.4 6.92 23.3 7.11 9.3 7.29 9.59 4.63 7.5-2.88-2.26-3.05-.467-.524 5.58 3.23 7.74 13.1 15.7 23.3 18.9l3.08.953-3.71-7.12c-3.24-6.21-3.71-8.64-3.75-19.1-.0230-6.6.417-15.9.977-20.7.846-7.2.733-8.24-.667-6.15-3.63 5.41-8.07 10.2-11.9 13l-4.03 2.87 4.57-5.99c6.58-8.62 11.4-22.8 13.7-40.5 2.9-22.1 7.61-29.9 18-29.9 2.61 0 6.07.934 7.7 2.08 2.93 2.05 2.96 2.01 2.96-4 0-10.9 6.64-14 14.5-6.92 4.3 3.91 7.24 10.1 11.5 24.2 4.69 15.4 7.3 20.4 13.7 26.3 6.54 5.9 13.3 8.23 21.7 7.42 5.53-.532 7.06-.120 10.6 2.85 8.95 7.53 7.66 22.9-4.21 49.9-2.89 6.57-5.01 12.2-4.71 12.5.958.958 17-9.05 22.6-14.1 3.68-3.31 4.88-3.93 3.84-1.97-2.35 4.42-9.09 9.53-19.5 14.7-13.9 6.99-21.7 13.5-22.4 18.6-.434 3.52.0444 4.36 3.15 5.53 2.58.974 4.76 3.68 7.38 9.18 2.84 5.96 5.2 8.75 9.98 11.8 3.44 2.2 6.29 4.75 6.33 5.67.0399.917.822 1.67 1.74 1.68.917.005 7.24.846 14.1 1.87 25.6 3.84 35.1 12.8 39.7 37.6l.856 4.56h-222zm115-85c3.89-2.01 5.64-4.68 6.23-9.5.331-2.71.163-2.73-6.56-.933-3.8 1.02-8.91 1.55-11.4 1.18-3.61-.542-4.3-.282-3.67 1.38.431 1.12.784 2.88.784 3.89 0 1.9 5.99 5.79 9.07 5.88.953.0293 3.43-.824 5.51-1.9zm-20.2-59.6c-.333-.999-.937-.394-1.41 1.41-.580 2.22-.406 2.74.583 1.75.775-.775 1.15-2.2.826-3.16zm30.5-.151c-.370-.917-.673-.167-.673 1.67 0 1.83.303 2.58.673 1.67.370-.917.370-2.42 0-3.33zm-55.5-2.96c0-2.26-.580-3.07-1.85-2.58-1.07.411-1.57 1.8-1.18 3.29.962 3.68 3.03 3.19 3.03-.711zm21.5 0c0-.939-1.5-2.39-3.33-3.23-2.7-1.23-3.33-1.16-3.33.357 0 2.48 3.89 6.29 5.44 5.33.674-.417 1.23-1.53 1.23-2.46zm56.7-.760c0-3.8-5.65-6.51-6.88-3.3-.888 2.31 3.29 7.57 5.45 6.85.787-.262 1.43-1.86 1.43-3.55zm4.67.625c0-1.01-.6-2.21-1.33-2.67-.759-.469-1.33.679-1.33 2.67s.574 3.14 1.33 2.67c.733-.453 1.33-1.65 1.33-2.67zm29 30.5c5.69-5.37 8.33-8.88 8.33-11.1 0-3.15-.0255-3.16-3-.666-1.65 1.38-1.12.424 1.18-2.13 6.7-7.42 8.85-12.8 8.21-20.6-.311-3.75-1.58-8.84-2.81-11.3-3.01-6.04-2.83-7 .406-2.1 6.35 9.64 6.34 23.6-.0379 29.4-1.65 1.49-2.62 4.09-2.62 7.02 0 3.68-1.26 6-6 11.1-3.3 3.53-6 6.12-6 5.76 0-.361-1.35.0452-3 .903s.75-1.98 5.33-6.32zm-9.15-5.15c1.64-2.2 4.85-6.54 7.14-9.65s4.4-5.41 4.69-5.12c1.15 1.15-3.78 8.41-9.13 13.4-4.58 4.31-5.1 4.57-2.7 1.33zm-135-22c.380-1.83 1.62-9.63 2.75-17.3 2.64-18 6.52-31.3 11.1-38 3.9-5.73 12.2-12 17.5-13.3 1.83-.443.801.469-2.3 2.03-7.58 3.81-14.2 11.5-16.8 19.4-1.18 3.58-3.58 14.3-5.34 23.8-1.76 9.53-4.18 19.4-5.37 22-1.54 3.32-1.97 3.7-1.48 1.33zm137 .519c5.3-10.9 5.68-12.4 5.72-22.7.0248-5.98.486-10.2 1.02-9.33 2.19 3.43 1.05 19.5-1.8 25.6-1.55 3.3-3.43 6.38-4.17 6.84-.743.459-1.09.302-.775-.350zm18-35.5c0-10.6-3-19.7-9-29.1-3.92-6.18-4.22-6.38-4.96-3.33-.658 2.7-.952 2.26-1.75-2.62-1.16-7.07-4.99-12.8-10.5-15.6-3.05-1.58-4.32-1.71-5.05-.529-.637 1.03-1.98-.0572-3.89-3.14-4.29-6.94-12.7-12.5-24.8-16.3-12.6-4.01-22.1-3.78-31.4.744-5.29 2.58-5.6 2.61-2.96.313 3.72-3.24 2.72-4.23-4.32-4.23-3.58 0-6.98 1.01-9.44 2.8-3.43 2.5-3.37 2.36.508-1.33 4.76-4.52 11.1-5.47 15.3-2.28 1.95 1.48 3.34 1.45 8.44-.236 12.6-4.14 34.7 3.23 46.2 15.4 4.07 4.31 7.17 6.4 9.79 6.6 5.38.410 10.3 4.48 12.2 10.1.880 2.63 3.76 7.61 6.41 11.1 2.64 3.47 6.04 8.72 7.55 11.7 3.19 6.25 4.58 18.3 2.86 24.8-1.04 3.97-1.21 3.39-1.32-4.67zm-53-3c-9-4.2-16-11.9-20-24.4-2-7.8-11-16.8-18-19-4-1.3-5-1.9-3-2 5.42-.103 13.9 4.49 18.4 10 2.33 2.83 5.77 9.14 7.64 14 3.87 10.1 10.4 17.6 18.5 21.2 3.01 1.34 4.57 2.46 3.47 2.5-1.1.0357-4.4-1.04-7.33-2.38zm7.58-20.9c-7-3.04-11.1-6.9-17.6-16.4-7.54-11.1-13-14.9-21.2-14.9-6.24.0298-16.2 3.71-20.4 7.58-1.3 1.17-2.36 1.74-2.36 1.27 0-.476 2.44-2.64 5.43-4.8 6.97-5.05 17.8-7.42 25-5.48 5.68 1.53 13.1 8.69 17 16.3 5.19 10.3 13.1 15.8 24.6 17.2l7 .9-6.67.144c-3.67.0791-8.66-.720-11.1-1.78zm-102-5.6c-.130-4.22 2.98-11.1 6.38-14.2 3.39-3.02 14.1-4.3 18.9-2.24 2.89 1.26 2.6 1.35-2.16.689-9.81-1.36-17.4 3.51-21.1 13.5-1.43 3.89-1.95 4.46-2.01 2.2zm41.2-12.8c0-.277 1.05-1.33 2.33-2.33 2.11-1.66 2.16-1.61.503.503-2 2.2-3 2.9-3 1.8zm-2.89-7.12c1.9-2.71 6.77-6.15 13.2-9.33 9.88-4.89 10.6-5.04 24.3-5 12 .0339 15 0.5 20.4 3.15 3.49 1.71 6.71 3.69 7.14 4.39.434.702-1.82-.0786-5.02-1.73-4.43-2.3-8.75-3.15-18.2-3.59-17.5-.819-29 2.69-39.9 12.1l-4.99 4.33zm-7.73-6.78c-.0672-2.87 3.71-9.22 6.02-10.1 3.78-1.45 3.85-.916.368 2.84-1.87 2.02-4.07 4.87-4.88 6.33-.809 1.47-1.49 1.89-1.51.934z" fill="#a7815b"/>
  <path d="m25 263c1.38-8.46 6-20.1 9.85-24.8 5.95-7.21 15.1-11.3 30.2-13.6 7.13-1.08 13.7-1.96 14.6-1.96.917-.004 1.67-.908 1.67-2.01s.492-2 1.09-2c2.79 0 12.8-10.4 15-15.6 1.49-3.48 4.11-6.74 6.51-8.11 6.2-3.53 5.33-7.31-3.63-15.7-4.78-4.48-8.92-7.24-11-7.32-1.83-.074-2.63-.422-1.77-.773 1.17-.476 1.08-1.8-.333-5.19-1.29-3.09-1.9-9.79-1.91-20.9-.0064-9.01-.392-19.5-.857-23.4l-.845-7.04-2.62 4.37c-3.32 5.55-7.58 10.2-11 12-1.52.814-.457-1.03 2.49-4.3 7.62-8.46 11-17.2 14.8-38.5 3.66-20.3 5.49-25.4 10.3-28.7 3.69-2.58 7.3-2.63 12-.152l3.67 1.91v-5.34c0-7.76 1.89-10.5 7.26-10.5 6.57 0 10.3 5.21 14 19.5 7.17 27.9 8.34 31.1 13 35.2 5.75 5.05 13.5 7.07 24.8 6.44l9.02-.509 2.24 4.71c1.23 2.59 2.5 7.45 2.83 10.8.699 7.24-4.06 33.3-7.81 42.9-1.46 3.71-2.41 6.98-2.11 7.29.957.957 17-9.05 22.6-14.1 3.68-3.31 4.88-3.93 3.84-1.97-2.36 4.44-9.11 9.54-19.5 14.7-5.2 2.6-12.2 6.88-15.5 9.49-3.3 2.62-6.06 4.8-6.14 4.85-.078.0469-.490 1.92-.915 4.16-.677 3.57-.301 4.25 3.02 5.5 2.71 1.02 4.87 3.66 7.58 9.26 2.88 5.94 5.3 8.79 10.1 11.8 3.45 2.2 6.05 4.66 5.79 5.46-.299.917 4.89 2.21 14 3.47 28.1 3.92 36.7 11.7 42 38.1l.865 4.33h-221zm116-86c2.38-1.45 4.4-3.1 4.49-3.66.0836-.561.340-2.57.570-4.47l.418-3.45-6.9 1.85c-3.8 1.02-8.91 1.55-11.4 1.18-3.61-.542-4.3-.282-3.67 1.38.431 1.12.784 2.88.784 3.89 0 1.99 6.05 5.8 9.33 5.88 1.1.0267 3.95-1.14 6.33-2.59zm-21.3-58.9c-.333-.999-.937-.394-1.41 1.41-.580 2.22-.406 2.74.583 1.75.775-.775 1.15-2.2.826-3.16zm30.5-.151c-.370-.917-.673-.167-.673 1.67 0 1.83.303 2.58.673 1.67.370-.917.370-2.42 0-3.33zm-55.5-2.96c0-2.26-.580-3.07-1.85-2.58-1.07.411-1.57 1.8-1.18 3.29.962 3.68 3.03 3.19 3.03-.711zm21.5 0c0-.939-1.5-2.39-3.33-3.23-2.7-1.23-3.33-1.16-3.33.357 0 2.48 3.89 6.29 5.44 5.33.674-.417 1.23-1.53 1.23-2.46zm56.7-.760c0-3.8-5.65-6.51-6.88-3.3-.888 2.31 3.29 7.57 5.45 6.85.787-.262 1.43-1.86 1.43-3.55zm4.67.625c0-1.01-.6-2.21-1.33-2.67-.759-.469-1.33.679-1.33 2.67s.574 3.14 1.33 2.67c.733-.453 1.33-1.65 1.33-2.67zm-99.3 53.5c-9.66-4.22-17.9-15.1-18-23.7-.0161-1.93-.973-4.29-2.13-5.24-4.73-3.93-7.55-12.4-8.81-26.5-.695-7.74-1.24-14.7-1.21-15.4.0305-.733.219-7.38.420-14.8.330-12.2 0.7-13.9 3.86-18 2.14-2.8 3.86-7.22 4.43-11.4 1.15-8.35 4.28-13.7 11-18.7 2.81-2.1 5.84-4.79 6.73-5.98 1.79-2.39 9.76-6.51 12.6-6.51.989.000577-.783 1.28-3.94 2.84s-7.21 5-9 7.64-3.26 3.97-3.26 2.95c0-1.36-.744-1.18-2.8.689-4.82 4.36-9.26 13.3-10.1 20.4-.441 3.72-1.33 6.44-1.98 6.04-1.89-1.17-5.12 8.17-5.12 14.8 0 3.35.9 8.24 2 10.9 2.46 5.89 2.49 7.22.0856 4.05-1.25-1.65-2.12-1.94-2.77-.899-1.07 1.73.353 14.9 2.11 19.6.752 1.98.684 3.09-.187 3.09-3.51 0 2.43 18.2 8.41 25.7 2.39 3.02 3.51 4.98 2.49 4.35-1.5-.925-1.67-.397-.896 2.72 2.19 8.76 8.07 15.1 19.2 20.6 5.56 2.78 2.98 3.36-3.11.698zm127-22c5.6-5.33 8.33-8.95 8.33-11.1 0-2.78-.255-2.93-2.31-1.3-1.27 1.01-.0809-.818 2.65-4.05 5.49-6.52 7.01-11.9 5.96-21.1-.558-4.95-.404-5.66.774-3.58.809 1.43 1.48 5.67 1.48 9.43.0107 5.39-.749 7.83-3.6 11.6-2.3 3.01-3.62 6.4-3.62 9.29 0 3.59-1.12 5.58-5.33 9.48-2.93 2.71-5.33 5.61-5.33 6.44 0 .826-.379 1.12-.842.660-.463-.463-2.11-.163-3.66.667s.928-2.06 5.51-6.42zm-7.8-6.52c4.73-6.85 9.45-12.1 9.45-10.5.004.846-2.74 4.45-6.11 8-3.36 3.55-4.87 4.66-3.35 2.46zm-136-20c.414-1.44 1.9-10.1 3.3-19.3 2.87-18.9 5.28-27.7 9.66-35.3 3.01-5.27 13.1-14.1 16.1-14 .860.0223.363 0.7-1.1 1.51-5.87 3.23-12.8 11.3-15.2 17.8-1.4 3.75-4.13 15.1-6.07 25.3-1.94 10.1-4.39 20.3-5.46 22.6-1.07 2.27-1.6 2.96-1.19 1.52zm140-7.05c1.15-2.75 2.54-9.2 3.08-14.3l.991-9.33.152 8.67c.105 5.98-.645 10.4-2.42 14.3-3.17 6.99-4.69 7.55-1.81.667zm15.8-23.7c.973-7.66-1.45-18.8-6.05-27.8-4.79-9.38-2.04-7.77 3.22 1.88 4.23 7.77 5.81 19.4 3.6 26.6l-1.44 4.67zm-54.7-8.09c-6.87-3.56-12.6-10.1-15.4-17.8-4.38-11.8-8.83-18.3-14.9-22-3.11-1.86-4.64-3.39-3.42-3.4 4.22-.0238 13.5 8.5 16.8 15.3 8.99 19 10.5 21.3 16.9 25.7 6.77 4.58 6.82 5.72.107 2.24zm15-18.8c.917-.370 2.42-.370 3.33 0 .917.370.167.673-1.67.673-1.83 0-2.58-.303-1.67-.673zm-9.67-2.9c-4.49-2.74-9.91-8.72-16.3-18-2.37-3.43-6.27-7.44-8.67-8.9-5.08-3.1-13.9-3.42-21.4-.765-6.42 2.29-6.51 1.26-.119-1.41 7.22-3.02 17.7-2.89 23.2.280 2.52 1.45 7.28 6.64 10.6 11.5 7.45 11 11.1 14.9 16.5 17.6 2.31 1.14 3.29 2.08 2.19 2.09-1.1.0140-3.8-1.07-6-2.41zm-97.9-4.22c0-1.1 1.14-4.51 2.53-7.58 2.95-6.49 8.31-9.8 15.7-9.67l5.07 0.09-6.33 1.7c-7.66 2.06-11.3 5.06-14.5 12.1-1.35 2.93-2.45 4.43-2.45 3.33zm132-5.9c-1-6.9-5-11.6-11-15.2-5-2.6-5-2.6-1-1.9 8.56 1.69 14.8 10.5 13.7 19.3-.344 2.64-.670 2.16-1.5-2.25zm-91-14.2c11-12.7 38-18.2 53-11 2.57 1.21 3.47 1.84 2 1.4-19-5.65-42.5-1.18-55.3 10.5l-5 4.2zm11.7 2.24c.917-.370 2.42-.370 3.33 0 .917.370.167.673-1.67.673-1.83 0-2.58-.303-1.67-.673zm56-11c-12-12.1-36-18.1-49-12.2-7.41 3.28-9.1 3.53-5.53.829 2.44-1.84 2.4-1.96-.910-3.22-3.72-1.42-10.4-.0760-14.2 2.85-1.22.939-.531.0570 1.54-1.96 4.22-4.11 10.8-4.91 14.3-1.75 1.85 1.67 2.95 1.65 8.55-.194 12.8-4.22 34.8 2.94 46.1 15 3.14 3.35 5.49 6.27 5.22 6.5-.263.230-3.18-2.39-6.48-5.81zm-77.3 2.34c-.0707-2.68 6.21-10.5 8.39-10.4.851.0223.497.653-.788 1.4-1.28.748-3.51 3.58-4.94 6.29-1.44 2.72-2.63 3.93-2.66 2.7zm-13.3-2.4c1.6-5.03 6.32-9.21 11.3-10l4.66-.769-4.02 1.88c-2.21 1.03-6.04 4.17-8.5 6.97-3.55 4.04-4.27 4.45-3.48 1.96z" fill="#a37c55"/>
  <path d="m25 263c1.38-8.46 6-20.1 9.85-24.8 5.95-7.21 15.1-11.3 30.2-13.6 7.13-1.08 13.7-1.96 14.6-1.96.917-.004 1.67-.908 1.67-2.01s.492-2 1.09-2c2.79 0 12.8-10.4 15-15.6 1.49-3.48 4.11-6.74 6.51-8.11 6.26-3.56 5.37-7.45-3.63-15.8-4.76-4.42-8.93-7.16-11-7.24-1.83-.0689-2.66-.402-1.84-.739 1.07-.442.998-2-.275-5.56-1.12-3.13-1.79-11.6-1.84-22.9-.0403-9.9-.439-20.2-.885-22.9l-.812-4.91-4.17 6.13c-2.3 3.37-5.67 7.08-7.51 8.24-2.4 1.52-1.75.284 2.34-4.41 6.13-7.05 11.2-20.5 13-34.1 3.01-23.7 7.19-32 16.1-32 2.65 0 5.98.621 7.4 1.38 2.32 1.24 2.58.914 2.58-3.27 0-6.91 2.5-11.4 6.3-11.4 8.37 0 10.9 4.33 17.1 29 2.5 9.92 5.6 19.9 6.9 22.1 1.29 2.22 5.05 5.46 8.34 7.21 5.22 2.77 7.46 3.12 17.6 2.77h11l1.97 4.15c3.71 7.8 3.94 15.4.928 31.1-1.57 8.21-4.24 18.7-5.94 23.4l-3.08 8.5 4.14-2.13c7.79-4 18.4-11.2 21.8-14.8 2.68-2.84 3.08-3 1.91-.751-2.3 4.41-9.05 9.53-19.4 14.7-5.2 2.6-12.2 6.88-15.5 9.49-3.3 2.62-6.06 4.8-6.14 4.85-.078.0469-.490 1.92-.915 4.16-.677 3.57-.301 4.25 3.02 5.5 2.71 1.02 4.87 3.66 7.58 9.26 2.88 5.94 5.3 8.79 10.1 11.8 3.45 2.2 6.05 4.66 5.79 5.46-.299.917 4.89 2.21 14 3.47 28.1 3.92 36.7 11.7 42 38.1l.865 4.33h-220zm118-87c1.37-1.37 2.71-4.34 2.97-6.59.461-3.96.359-4.05-3.16-2.69-2 .773-7.1 1.49-11.3 1.6-5.85.149-7.52.627-7 1.99.379.988.689 2.63.689 3.64 0 2.88 6.82 6.03 11.3 5.23 2.2-.385 5.12-1.82 6.49-3.2zm-23.2-56.4c-.0165-2.43-.268-2.62-1.31-1-1.67 2.59-1.67 4 0 4 .733 0 1.32-1.35 1.31-3zm30.3-1.97c-.338-1.3-.637-.559-.664 1.64-.0272 2.2.249 3.26.615 2.36.365-.903.387-2.7.0493-4zm-55.6-2.47c0-1.89-.645-3.23-1.43-2.97-.788.263-1.39.913-1.33 1.44.055.532.1 1.87.1 2.97s.6 2 1.33 2c.733 0 1.33-1.55 1.33-3.44zm21.3 1.53c1.3-1.56.835-2.31-2.5-4.03-3.5-1.81-4.09-1.84-4.09-.178 0 1.65 3.36 6.13 4.6 6.13.224 0 1.12-.863 2-1.92zm57.2-1.85c.310-2.1-.532-3.26-3.09-4.23-4.58-1.74-4.67-1.72-4.67.893 0 2.8 3.99 7.33 5.9 6.7.787-.259 1.62-1.77 1.86-3.36zm4.24.436c0-1.01-.6-2.21-1.33-2.67-.759-.469-1.33.679-1.33 2.67s.574 3.14 1.33 2.67c.733-.453 1.33-1.65 1.33-2.67zm-99.3 53.5c-9.66-4.22-17.9-15.1-18-23.7-.0161-1.93-.973-4.29-2.13-5.24-2.51-2.09-6.51-9.81-7.76-15-.495-2.06-1.16-14.6-1.48-27.8-.593-24.8-.106-28 5.33-34.4.922-1.1 2.11-4.99 2.63-8.65 1.22-8.44 3.56-12.9 8.78-16.9 2.28-1.72 5.74-4.71 7.7-6.64 3.42-3.37 10.9-7.84 13.2-7.81.586.0069-1.42 1.51-4.47 3.33-3.04 1.82-6.78 5.27-8.31 7.65-1.53 2.39-2.79 3.48-2.8 2.44-.0338-2.86-6.45 3.59-9.51 9.56-1.41 2.75-2.93 7.7-3.38 11-.453 3.3-1.37 6-2.04 6-3.92 0-6.63 18.4-3.81 25.8 1.08 2.83.938 3.23-.880 2.53-1.91-.734-2.05.211-1.18 8.4.539 5.07 1.16 12.8 1.39 17.2.477 9.41 3.05 16.2 9.04 23.7 2.39 3.02 3.6 5.04 2.69 4.47-2.52-1.55-2.06 2.46.950 8.36 2.85 5.59 10.6 12.3 17.6 15.4 2.45 1.07 3.56 1.94 2.46 1.94s-3.8-.786-6-1.75zm126-21c2.35-2.01 4.75-3.68 5.34-3.71.586-.0299 2.22-2.6 3.64-5.72 2.28-5.02 2.58-5.26 2.6-2.1.0208 2.53-1.52 4.89-5.3 8.13-2.93 2.51-5.33 5.13-5.33 5.82 0 .689-1.17 1.25-2.61 1.25-2.18 0-1.91-.596 1.67-3.66zm-3-12c2.79-3.48 5.32-6.33 5.62-6.33 1.32 0-2.33 4.99-6.33 8.67-4.19 3.85-4.17 3.77.713-2.33zm16.3-9.9c3.29-4.32 3.73-6.03 3.73-14.5 0-9.75 1.2-10.6 2.67-1.87.442 2.61.136 6.53-.679 8.69-1.84 4.9-6.96 12.6-8.39 12.6-.587.005.613-2.19 2.67-4.89zm-154-12c.361-1.87 1.59-9.67 2.73-17.3 3.04-20.5 8.34-34.7 14.9-40 1.29-1.04.508.806-1.73 4.11-5.16 7.61-7.64 15.4-11 34.8-1.49 8.53-3.34 16.9-4.1 18.7l-1.5 3zm138 1.22c-.026-.466.829-2.87 1.9-5.33 1.07-2.47 1.95-3.59 1.95-2.49.005 1.92-3.76 9.55-3.85 7.82zm4.37-17.8c.008-4.4.256-6.04.553-3.64s.291 6-.0136 8c-.304 2-.547.0428-.540-4.36zm12.1-19.1c-.851-5.45-3.31-13.4-5.58-18-3.69-7.49-3.76-7.87-0.8-4.23 5.07 6.24 8.75 17.4 8.3 25.2l-.396 6.78zm-55.4 1.04c-6.68-3.53-10.9-9.23-16.4-21.9-3.05-7.09-6.27-12.2-9.62-15.2-5.03-4.52-5.03-4.52-.674-2.03 5.37 3.08 9.95 9.59 13.5 19.2 3.31 8.92 9.36 16.5 15.9 20 2.68 1.42 4.28 2.58 3.54 2.58-.733 0-3.56-1.18-6.28-2.61zm1.92-24.6c-3-2.8-7-8.4-10-12.7-6-9.7-10-12.3-20-13.5l-8-.9 7.13-.182c10.1-.258 15.6 2.76 21.4 11.8 6.35 9.82 9.3 13.4 14 17 2.12 1.64 3.27 2.98 2.57 2.98s-3.75-2.12-6.78-4.71zm-92.5-3.5c2.42-9.31 9.04-14.8 17.4-14.5 3.4.120 3.28.257-1.22 1.32-7.26 1.71-11 4.63-14.2 11-1.55 3.07-2.42 4.09-1.94 2.25zm130-4.7c-.718-3.64-2.72-6.91-6.32-10.3-5.81-5.53-5.42-6.38 1.11-2.4 4.32 2.63 7.82 10.8 6.74 15.8-.265 1.23-.955-.162-1.53-3.09zm-89.6-15.1c2.08-3.37 13-8.45 22.4-10.4 10.1-2.12 24-1.66 27.9.927 1.34.891.703.974-2.04.263-12.5-3.24-34.9.661-45 7.83-2.3 1.64-3.75 2.27-3.21 1.4zm66.7-7.08c-6.46-7.14-25-14.5-36.5-14.5-3.51 0-8.88.882-11.9 1.96-3.06 1.08-5.21 1.41-4.8.734 1.25-2.03-4.53-4.27-8.67-3.36-2.12.466-5.54 2.14-7.59 3.72-2.74 2.11-3.22 2.24-1.83.487 4.53-5.68 14.3-8 17.5-4.15.984 1.19 2.61 1.69 3.83 1.18 14-5.81 34.7-.912 48.3 11.4 3.19 2.88 5.44 5.27 5.01 5.3-.436.0301-1.94-1.21-3.33-2.75zm-88.8-2.2c3.15-5.59 4.25-6.48 9.18-7.53l3.99-.843-4 2.17c-2.2 1.2-5.73 4.08-7.84 6.4l-3.84 4.23zm12.5 1.33c0-.606 1.6-2.56 3.54-4.33l3.54-3.23-3.13 4.33c-3.25 4.51-3.96 5.08-3.96 3.23z" fill="#997148"/>
  <path d="m25.3 263c0-6.08 5.27-20.2 9.43-25.2 6.01-7.26 15.1-11.4 30.3-13.6 7.13-1.08 13.7-1.96 14.6-1.96.917-.004 1.67-.908 1.67-2.01s.492-2 1.09-2c2.79 0 12.8-10.4 15-15.6 1.49-3.48 4.11-6.74 6.51-8.11 6.52-3.71 5.5-7.95-3.86-16.1-4.2-3-8.3-6-9-6-3.01 0-4.9-10.8-5.2-29.7-.172-10.8-.708-21.5-1.19-23.7l-.880-4.01-3.89 5.37c-2.14 2.96-4.23 5.37-4.65 5.37-.415 0 .464-1.55 1.95-3.44 4.35-5.53 8.05-17.1 10.9-34.1 3.01-17.9 4.26-21.9 8.24-26.1 3.01-3.21 9.91-4.04 14.3-1.71 2.12 1.14 2.49.581 3.08-4.67.369-3.28 1.42-6.86 2.33-7.96 3.85-4.64 11.8-.886 14.8 7.05.775 1.99 3.46 11.7 5.96 21.6s5.65 19.5 6.99 21.3c1.34 1.83 5.09 4.83 8.32 6.65 5.16 2.91 7.33 3.29 17.7 3.09l11.8-.228 1.89 4.54c3.91 9.36 1.44 32.5-5.67 53-3.15 9.08-4.4 11-10 15.3-3.53 2.69-6.43 5.52-6.44 6.29-.0107.766-.342 2.6-.739 4.07-.554 2.06.191 3.02 3.23 4.17 2.89 1.09 4.96 3.58 7.74 9.32 2.88 5.94 5.3 8.79 10.1 11.8 3.45 2.2 6.05 4.66 5.79 5.46-.299.917 4.89 2.21 14 3.47 28.1 3.92 36.7 11.7 42 38.1l.865 4.33h-220zm117-86c4.29-3.69 6.15-12.6 2.26-10.8-1.28.589-6.42 1.3-11.4 1.59-7.41.418-8.96.885-8.33 2.51.421 1.1.766 2.83.766 3.84 0 2.24 6.22 5.81 10.3 5.88 1.61.0293 4.52-1.32 6.48-3zm-22.1-57.3c-.0165-2.43-.268-2.62-1.31-1-1.67 2.59-1.67 4 0 4 .733 0 1.32-1.35 1.31-3zm31-1c-.0149-2.67-.344-3.16-1.21-1.79-.654 1.03-.881 2.68-.504 3.67 1.08 2.82 1.74 2.1 1.71-1.88zm-56-3.78c0-1.89-.645-3.23-1.43-2.97-.788.263-1.39.913-1.33 1.44.055.532.1 1.87.1 2.97s.6 2 1.33 2c.733 0 1.33-1.55 1.33-3.44zm21.3 1.53c1.3-1.56.835-2.31-2.5-4.03-3.5-1.81-4.09-1.84-4.09-.178 0 1.65 3.36 6.13 4.6 6.13.224 0 1.12-.863 2-1.92zm57.2-1.85c.310-2.1-.532-3.26-3.09-4.23-4.58-1.74-4.67-1.72-4.67.893 0 2.8 3.99 7.33 5.9 6.7.787-.259 1.62-1.77 1.86-3.36zm4.24.436c0-1.01-.6-2.21-1.33-2.67-.759-.469-1.33.679-1.33 2.67s.574 3.14 1.33 2.67c.733-.453 1.33-1.65 1.33-2.67zm1.85 56.4c1.38-.940 7.08-4.58 12.7-8.08 7.11-4.46 8.8-5.19 5.65-2.43-2.48 2.17-8.18 5.8-12.7 8.08-4.49 2.28-7.04 3.37-5.65 2.43zm-101-2c-5.57-2.43-12.4-8.42-14.7-12.9-3.1-6-2.29-5.9 2.44.322 2.41 3.17 7.64 7.72 11.6 10.1 7.43 4.46 7.73 5.56.671 2.48zm-17.9-22c.0640-1.55.380-1.87.806-.806.385.962.338 2.11-.105 2.56-.443.443-.758-.344-0.7-1.75zm150-3.15c.866-1.14 2.51-3.88 3.66-6.07 1.34-2.56 2.09-3.17 2.09-1.68.004 1.27-1.64 4.01-3.66 6.07-2.02 2.07-2.96 2.83-2.09 1.68zm-152-3.81c-1.54-1.98-3.87-5.67-5.18-8.2-2.77-5.39-4.48-21.4-2.28-21.4.874 0 1.16 1.71.721 4.38-1 6.16 1.5 14.3 6.81 22.2 4.78 7.1 4.73 9.17-.0758 3.02zm157-8.8c0-.495 1.28-2.63 2.85-4.75s3.63-6.75 4.58-10.3c.950-3.53 1.77-5.06 1.82-3.38.113 3.82-3 11.4-6.54 15.9-1.49 1.89-2.7 3.03-2.7 2.53zm-166-25c-.450-1.68-.741-6.05-.647-9.72.156-6.1.254-5.87 1.15 2.67 1.03 9.83.862 12.1-.498 7.05zm173 .836c.064-1.55.380-1.87.806-.806.385.962.338 2.11-.105 2.56-.443.443-.758-.344-0.7-1.75zm-156-4c.0640-1.55.380-1.87.806-.806.385.962.338 2.11-.105 2.56-.443.443-.758-.344-0.7-1.75zm1.44-8.56c0-1.83.303-2.58.673-1.67.370.917.370 2.42 0 3.33-.370.917-.673.167-.673-1.67zm-18.7-11.7c-.555-4.04-.292-8.49.674-11.4 2.1-6.36 2.83-5.33 1.24 1.75-.768 3.42-.794 7.73-.0668 11 .659 2.93.718 5.33.132 5.33-.587 0-1.48-2.98-1.98-6.62zm19.5 3.95c0-1.83.303-2.58.673-1.67.370.917.370 2.42 0 3.33-.370.917-.673.167-.673-1.67zm151-4.9c-.024-2.75-1.18-8.29-2.57-12.3-2.95-8.54-2.42-10.8.752-3.22 2.23 5.34 4.24 20.5 2.71 20.5-.469 0-.871-2.25-.895-5zm-150-1.1c.0640-1.55.380-1.87.806-.806.385.962.338 2.11-.105 2.56-.443.443-.758-.344-0.7-1.75zm83.6-9.7c-1.93-2.79-3.51-5.57-3.51-6.19 0-.957 3.82 4.17 7.14 9.59 2.35 3.84-.384 1.27-3.62-3.41zm-96.8-14.9c0-1.83.303-2.58.673-1.67.370.917.370 2.42 0 3.33-.370.917-.673.167-.673-1.67zm89-1.55c-.980-2.37-3.59-6.44-5.8-9.04-3.99-4.71-3.99-4.72-.267-1.41 3.73 3.32 9.53 13.1 8.43 14.2-.319.319-1.38-1.36-2.36-3.72zm15.9-2.12c-1.66-2.11-1.61-2.16.503-.503 2.22 1.74 2.93 2.84 1.83 2.84-.277 0-1.33-1.05-2.33-2.33zm-104-1.4c-.1-4.3 4.9-11.6 10.8-15.9 3.54-2.54 6.43-5.15 6.43-5.8 0-.646 1.77-2.09 3.93-3.21 5.61-2.9 6.86-2.51 1.81.574-2.34 1.43-5.26 4.12-6.48 5.98s-2.66 3.11-3.2 2.78c-1.49-.921-7.68 6.06-10.6 12-1.45 2.91-2.66 4.47-2.69 3.48zm145-5.37c-.486-2.21-3.24-6.15-6.13-8.76-5.75-5.19-5.74-5.76.0385-2.77 3.65 1.89 9.46 13.1 7.71 14.8-.403.403-1.13-1.08-1.62-3.29zm-125-2.8c1.33-1.47 2.71-2.67 3.08-2.67.367 0-.419 1.2-1.75 2.67s-2.71 2.67-3.08 2.67c-.367 0 .419-1.2 1.75-2.67zm76.3-2.8c-1.96-2.96-5.49-6.56-7.84-8s-3.55-2.61-2.66-2.61c2.36-.0072 9.99 7.07 12.8 11.9 3.46 5.94 1.91 5.09-2.28-1.26zm25-16.2-4-4.4l4.33 3.92c4.04 3.65 4.95 4.75 3.92 4.75-.229 0-2.18-1.95-4.33-4.33zm-88.6.777c0-3.72 10.8-11.5 12.9-9.29 1 .4 0 .8-1 .8-1.17 0-4.27 2.02-6.89 4.49s-4.76 4.25-4.76 3.95zm46.6-2.7c.962-.385 2.11-.338 2.56.105.443.443-.344.758-1.75 0.7-1.55-.0640-1.87-.380-.806-.806zm22-8.5c-8.19-2.94-21.8-3.27-28-.675-5.65 2.36-6.09 1.56-.690-1.23 7.13-3.69 31.6-1.4 36.7 3.42 1.74 1.67.0147 1.34-7.93-1.51zm-43-4.28c.847-.539 2.74-.980 4.21-.980s3.36.441 4.21.980c.847.539-1.05.980-4.21.980s-5.05-.441-4.21-.980z" fill="#91663a"/>
  <path d="m25.3 263c0-6.08 5.27-20.2 9.43-25.2 6.01-7.26 15.1-11.4 30.3-13.6 7.13-1.08 13.7-1.96 14.6-1.96.917-.004 1.67-.908 1.67-2.01s.492-2 1.09-2c2.79 0 12.8-10.4 15-15.6 1.49-3.48 4.11-6.74 6.51-8.11 6.71-3.82 5.55-8.05-4.5-16.5-4.6-3-9.2-8-10.2-10-1.04-2.07-2.04-12.6-2.63-27.8-.545-14.1-1.54-25-2.35-25.8-.913-.913-.979-2.54-.189-4.62.671-1.76 2.75-11.7 4.63-22 5.16-28.5 7.98-31.9 22.7-27.1 2.55.814 2.8.358 2.88-5.26.253-16.8 13.4-12 18.2 6.62 7.1 27.9 8.99 33.4 13.1 37.7 6.4 6.62 13.8 8.89 25.5 7.83 9.73-.882 9.77-.871 11.5 2.82 4.29 9.39 2.61 27.6-4.85 52.7-3.23 10.9-3.93 12-9.93 16.6-3.55 2.71-6.46 5.55-6.47 6.32-.0107.766-.342 2.6-.739 4.07-.554 2.06.191 3.02 3.23 4.17 2.89 1.09 4.96 3.58 7.74 9.32 2.88 5.94 5.3 8.79 10.1 11.8 3.45 2.2 6.05 4.66 5.79 5.46-.299.917 4.89 2.21 14 3.47 28.1 3.92 36.7 11.7 42 38.1l.865 4.33h-219zm117-86c4.29-3.69 6.15-12.6 2.26-10.8-1.28.589-6.37 1.3-11.3 1.58-8.99.509-9 .515-8.15 4.07 1.16 4.88 1.66 5.57 4.95 6.9 4.88 1.97 8.57 1.45 12.3-1.73zm-22.1-57.3c-.0165-2.43-.268-2.62-1.31-1-1.67 2.59-1.67 4 0 4 .733 0 1.32-1.35 1.31-3zm30.7-.6c0-2.48-.430-3.17-1.38-2.22-.757.757-.993 2.38-.524 3.6 1.24 3.22 1.9 2.74 1.9-1.38zm-56-3.84c0-1.89-.645-3.23-1.43-2.97-.788.263-1.39.913-1.33 1.44.055.532.1 1.87.1 2.97s.6 2 1.33 2c.733 0 1.33-1.55 1.33-3.44zm21.3 1.53c1.3-1.56.835-2.31-2.5-4.03-3.5-1.81-4.09-1.84-4.09-.178 0 1.65 3.36 6.13 4.6 6.13.224 0 1.12-.863 2-1.92zm57.2-1.85c.310-2.1-.532-3.26-3.09-4.23-4.58-1.74-4.67-1.72-4.67.893 0 2.8 3.99 7.33 5.9 6.7.787-.259 1.62-1.77 1.86-3.36zm4.24.436c0-1.01-.6-2.21-1.33-2.67-.759-.469-1.33.679-1.33 2.67s.574 3.14 1.33 2.67c.733-.453 1.33-1.65 1.33-2.67zm5.33 55c.367-.407 4.87-3.5 10-6.86 5.13-3.37 7.4-4.45 5.03-2.4-3.69 3.2-16.9 11.3-15 9.26zm-112-6c-4.01-3.15-9.61-11.8-8.43-12.9.450-.450.819-.093.819.794s2.78 4.59 6.18 8.22c6.56 7.01 7.04 8.34 1.43 3.92zm141-21c.814-1.14 2.15-3.27 2.96-4.73.814-1.47 1.5-1.95 1.52-1.07.0223.876-1.31 3.01-2.96 4.73-1.65 1.73-2.33 2.21-1.52 1.07zm-152-3c-1.66-2.11-1.61-2.16.503-.503 1.28 1.01 2.33 2.06 2.33 2.33 0 1.1-1.09.391-2.84-1.83zm-5.22-7.11c-.819-1.53-1.24-3.03-.930-3.34.307-.307 1.24.944 2.08 2.78 1.84 4.03.943 4.47-1.15.558zm-2.5-7.33c.0640-1.55.380-1.87.806-.806.385.962.338 2.11-.105 2.56-.443.443-.758-.344-0.7-1.75zm-1.13-7.22c0-2.57.274-3.62.610-2.33.335 1.28.335 3.38 0 4.67-.335 1.28-.610.233-.610-2.33zm173-4.78c.064-1.55.380-1.87.806-.806.385.962.338 2.11-.105 2.56-.443.443-.758-.344-0.7-1.75zm-175-16c.0075-4.4.256-6.04.553-3.64s.291 6-.0136 8c-.304 2-.547.0428-.540-4.36zm1.13-11.3c0-1.83.303-2.58.673-1.67.370.917.370 2.42 0 3.33-.370.917-.673.167-.673-1.67zm170-7.4c.0148-2.93.288-3.98.607-2.32s.307 4.06-.0269 5.33-.595-.0822-.580-3.02zm-171-2c0-2.57.274-3.62.610-2.33.335 1.28.335 3.38 0 4.67-.335 1.28-.610.233-.610-2.33zm169-4.89c-.0579-.857-.451-2.66-.873-4-.729-2.32-.692-2.32.761-.0588.841 1.31 1.23 3.11.873 4-.473 1.17-.685 1.18-.761.0588zm-160-22.2c0-1.79 5.3-11.3 6.81-12.3.832-.514-.166 2-2.22 5.58-4.34 7.57-4.59 7.94-4.59 6.68zm143-9.5c-.837-1.84-3.48-4.54-5.88-6s-3.85-2.66-3.23-2.66c4.07-.0180 13.2 9.43 11.1 11.5-.275.275-1.19-1-2.02-2.84zm-126-9.8c.848-1.36 2.8-3.23 4.34-4.17 1.96-1.19 1.63-.448-1.11 2.47-4.46 4.74-5.46 5.27-3.23 1.7zm18.7-10.6c1.6-2.57 5.08-4.91 5.87-3.95.165.201-1.49 1.82-3.68 3.59-3.71 3.01-3.86 3.03-2.19.359zm65.2-7.59c-2.57-.988-3.77-1.82-2.67-1.84 1.1-.0227 3.8.783 6 1.79 5.15 2.36 2.75 2.39-3.33.0482zm-29-.7c1.1-.711 2.6-1.29 3.33-1.29.733 0 .433.582-.667 1.29-1.1.711-2.6 1.29-3.33 1.29 0 0 0-.6 1-1.3zm6.33-2.22c.917-.370 2.42-.370 3.33 0 .917.370.167.673-1.67.673-1.83 0-2.58-.303-1.67-.673zm12.7-.0409c1.3-.338 3.1-.316 4 .0494.903.365-.159.642-2.36.615-2.2-.0272-2.94-.326-1.64-.664zm-29.3-1.33c1.3-.338 3.1-.316 4 .0494.903.365-.159.642-2.36.615-2.2-.0272-2.94-.326-1.64-.664z" fill="#87592c"/>
  <path d="m25.3 263c0-6.08 5.27-20.2 9.43-25.2 6.01-7.26 15.1-11.4 30.3-13.6 7.13-1.08 13.7-1.96 14.6-1.96.917-.004 1.67-.908 1.67-2.01s.492-2 1.09-2c2.79 0 12.8-10.4 15-15.6 1.49-3.48 4.11-6.74 6.51-8.11 6.73-3.83 5.56-8.06-4.57-16.5-10.4-8-11.3-11-11.3-32-.0168-8.8-.879-20-1.92-24.9-1.73-8.15-1.68-9.44.552-15.3 1.34-3.54 3.17-11.2 4.07-17.1.896-5.87 2.24-12.3 2.98-14.4 1.87-5.12 8.13-10 14-11 2.73-.460 6.93-1.72 9.33-2.8s6.6-1.78 9.33-1.55l4.97.412 2.94 14.7c4.15 20.7 3.98 20.2 9.09 25.9 5.92 6.56 13.3 8.71 26.7 7.84 9.94-.638 10.1-.602 12 3.09 2.94 5.68 2.34 16.5-2.06 37.5-5.44 26-5.24 25.4-12 31.1-8.98 7.45-10.4 12.5-4.13 14.9 2.81 1.06 4.92 3.61 7.67 9.29 2.88 5.94 5.3 8.79 10.1 11.8 3.45 2.2 6.05 4.66 5.79 5.46-.299.917 4.89 2.21 14 3.47 28.1 3.92 36.7 11.7 42 38.1l.865 4.33h-219zm117-86c4.3-3.7 6.14-12.6 2.26-10.9-1.28.556-6.37 1.29-11.3 1.62-8.92.607-8.98.639-8.19 4.13 1.81 7.99 10.8 10.7 17.2 5.13zm-22.1-57.3c-.0165-2.43-.268-2.62-1.31-1-1.67 2.59-1.67 4 0 4 .733 0 1.32-1.35 1.31-3zm30.7-.6c0-2.68-.385-3.21-1.51-2.09-.831.831-1.15 2.45-.709 3.6 1.22 3.18 2.22 2.5 2.22-1.51zm-56-3.84c0-1.89-.645-3.23-1.43-2.97-.788.263-1.39.913-1.33 1.44.055.532.1 1.87.1 2.97s.6 2 1.33 2c.733 0 1.33-1.55 1.33-3.44zm21.3 1.53c1.3-1.56.835-2.31-2.5-4.03-3.5-1.81-4.09-1.84-4.09-.178 0 1.65 3.36 6.13 4.6 6.13.224 0 1.12-.863 2-1.92zm57.2-1.85c.310-2.1-.532-3.26-3.09-4.23-4.58-1.74-4.67-1.72-4.67.893 0 2.8 3.99 7.33 5.9 6.7.787-.259 1.62-1.77 1.86-3.36zm4.24.436c0-1.01-.6-2.21-1.33-2.67-.759-.469-1.33.679-1.33 2.67s.574 3.14 1.33 2.67c.733-.453 1.33-1.65 1.33-2.67z" fill="#575452"/>
  <path d="m25.8 260c1.25-9.14 7.71-22 13.1-26.1 6.92-5.28 13.3-7.47 27.5-9.47 11.4-1.61 13.6-2.35 18.2-6.29 9.02-7.7 12.4-11.6 13.4-15.4 1.16-4.64 3.11-6.99 6.99-8.47 2.22-.844 3.05-2.22 3.05-5.05 0-3.15-1.63-5.23-8.6-11-10.5-8-11.4-11-11.4-32-.0168-8.8-.889-20.1-1.94-25-1.71-8.07-1.68-9.52.259-14 2.53-5.83 2.27-4.72 4.36-18.3.905-5.87 2.25-12.3 2.99-14.4 1.87-5.12 8.13-10 14-11 2.73-.460 6.93-1.72 9.33-2.8s6.6-1.78 9.33-1.55l4.97.412 3.41 16.9c5.41 26.8 9.83 31.1 32.4 31.2 12.5.104 13.3.275 15 3.33 2.85 5.14 2.18 17-2.11 37.5-5.44 26-5.24 25.4-12 31.1-9.09 7.54-10.4 12.7-3.97 15.4 2.88 1.19 5.07 3.81 7.67 9.16 2.39 4.93 5.69 9.04 9.63 12 3.3 2.49 5.85 5.04 5.67 5.67-.183.625.117 1.14.667 1.14 3.38.0265 28.4 4.25 31.8 5.37 12.2 4.01 20.3 15.4 23.1 32.3l1.04 6.33h-218zm117-84c4.49-4.49 5.63-11.8 1.56-10-1.28.562-6.67 1.29-12 1.62-8.7.539-9.51.826-8.38 2.94.691 1.29.946 2.66.566 3.04-.379.379.923 1.96 2.89 3.51 5.11 4.02 10.6 3.63 15.3-1.08zm-41.1-56.2c-.857-3.28-4.36-3.39-4.36-.136 0 3.09 1.11 4.22 3.32 3.38.954-.366 1.42-1.81 1.05-3.24zm18.3-.326c-.006-1.81-1.69-4.07-4.42-5.92-7.05-4.8-9.58-3.79-5.42 2.15 1.39 1.98 3.05 2.84 4.67 2.42 1.96-.512 2.51.0679 2.51 2.63 0 1.85.582 2.93 1.33 2.46.733-.453 1.33-2.14 1.32-3.75zm36.8 3.39c2.3-1.54 1.68-5.65-.854-5.65-1.54 0-2.28 1.08-2.28 3.33 0 3.47.665 3.96 3.13 2.31zm-42.1-.901c0-1.41-2.56-2-3.32-.767-.461.745.0979 1.36 1.24 1.36s2.08-.265 2.08-.588zm36-3.01c0-2.68-.385-3.21-1.51-2.09-.831.831-1.15 2.45-.709 3.6 1.22 3.18 2.22 2.5 2.22-1.51zm21 3c0-.288-.9-.869-2-1.29-1.1-.422-2-.186-2 .524s.9 1.29 2 1.29 2-.236 2-.524zm-77.9-9.84c-.434-.434-1.43-.144-2.22.645-1.02 1.02-.925 2.33.346 4.58l1.78 3.14.443-3.79c.244-2.08.0878-4.14-.346-4.58zm83 4.33c1.38-3.04 1.2-3.5-1.84-4.66-7.84-2.98-9.93-3.06-9.93-.373 0 1.41.863 3.72 1.92 5.14 1.69 2.28 2.27 2.37 4.86.789 2.58-1.58 2.84-1.54 2.12.333-1.35 3.51 1.21 2.41 2.87-1.24z" fill="#744323"/>
  <path d="m25.8 260c1.25-9.14 7.71-22 13.1-26.1 6.92-5.28 13.3-7.47 27.5-9.47 11.4-1.61 13.6-2.35 18.2-6.29 9.02-7.7 12.4-11.6 13.4-15.4 1.16-4.64 3.11-6.99 6.99-8.47 2 0 3-2 3-5s0-5-1-5c-.563 0-4.76-3.47-9.33-7.71l-8.31-7.71v-15.7c0-15.6-1.91-32.9-4.1-37-.758-1.43-.209-4.11 1.62-7.9 1.52-3.15 2.91-6.98 3.09-8.5 1.04-8.82 3.75-23.3 4.96-26.4 1.64-4.27 7.65-8.32 15.1-10.2 2.91-.732 7.56-1.9 10.3-2.61 7.53-1.91 9.85-.776 11.4 5.58 2.39 9.88 3.23 17.8 1.66 15.5-1.23-1.74-1.58-1.75-2.65-.0718-1.6 2.49.813 7.19 3.22 6.26 1.1-.422 2.11.650 2.65 2.82.483 1.92 2.04 5.13 3.46 7.12s2.58 4.38 2.58 5.3c0 .926.346 1.34.769.914.423-.423 3.47.426 6.77 1.89 4.83 2.14 8.34 2.58 18 2.27 13.7-.433 14.3-.034 15.3 10.3.626 6 .176 8.94-5.79 37.8l-3.44 16.7-7.17 6.89c-8.54 8.2-9.43 12.5-3.13 15.1 2.88 1.19 5.07 3.81 7.67 9.16 2.39 4.93 5.69 9.04 9.63 12 3.3 2.49 5.85 5.04 5.67 5.67-.183.625.117 1.14.667 1.14 3.38.0265 28.4 4.25 31.8 5.37 12.2 4.01 20.3 15.4 23.1 32.3l1.04 6.33h-218zm117-84c3.3-3.3 4.26-5.23 3.69-7.41-.552-2.11-1.38-2.68-2.93-1.99-1.19.525-6.49 1.22-11.8 1.55-8.4.521-9.49.878-8.51 2.79.618 1.2.867 2.9.554 3.77-.750 2.09 5.93 5.63 10.7 5.7 2.58.0363 5.24-1.38 8.26-4.41zm7.27-12.9c0-.733-.265-1.33-.588-1.33s-.959.6-1.41 1.33c0 0 0 1 1 1 .777 0 1.41-.6 1.41-1.33zm-10.1-15.7c-2.41-.393-2.93-1.65-3.59-8.72-.425-4.55-1.33-9.76-2-11.6-1.02-2.77-1.52-1.37-2.96 8.33-1.32 8.89-2.24 11.7-3.85 11.8-1.17.0868-.319.546 1.88 1.02s6.1.579 8.67.234c3.1-.418 3.72-.782 1.85-1.09zm-38.8-27.1c-.857-3.28-4.36-3.39-4.36-.136 0 3.09 1.11 4.22 3.32 3.38.954-.366 1.42-1.81 1.05-3.24zm18.3-.326c-.006-1.81-1.69-4.07-4.42-5.92-7.05-4.8-9.58-3.79-5.42 2.15 1.39 1.98 3.05 2.84 4.67 2.42 1.96-.512 2.51.0679 2.51 2.63 0 1.85.582 2.93 1.33 2.46.733-.453 1.33-2.14 1.32-3.75zm30.7.145c0-3.1-0.4-3.87-1.47-2.8-.806.806-1.07 2.73-.577 4.27 1.27 4.01 2.04 3.46 2.04-1.47zm6.13 3.25c2.3-1.54 1.68-5.65-.854-5.65-1.54 0-2.28 1.08-2.28 3.33 0 3.47.665 3.96 3.13 2.31zm-42.1-.901c0-1.41-2.56-2-3.32-.767-.461.745.0979 1.36 1.24 1.36s2.08-.265 2.08-.588zm58 0c0-.288-.9-.869-2-1.29-1.1-.422-2-.186-2 .524s.9 1.29 2 1.29 2-.236 2-.524zm-77.9-9.84c-.434-.434-1.43-.144-2.22.645-1.02 1.02-.925 2.33.346 4.58l1.78 3.14.443-3.79c.244-2.08.0878-4.14-.346-4.58zm83 4.33c1.38-3.04 1.2-3.5-1.84-4.66-7.84-2.98-9.93-3.06-9.93-.373 0 1.41.863 3.72 1.92 5.14 1.69 2.28 2.27 2.37 4.86.789 2.58-1.58 2.84-1.54 2.12.333-1.35 3.51 1.21 2.41 2.87-1.24zm-52.3-16.3c-2.3-2.2-2.32-2.17-.638.638.971 1.62 2.05 2.65 2.4 2.3.351-.351-.444-1.67-1.77-2.94zm-15.1-1.18c-.903-.365-2.7-.387-4-.0494s-.559.637 1.64.664c2.2.0272 3.26-.249 2.36-.615z" fill="#3d4341"/>
  <path d="m25.8 260c1.19-8.88 7.94-22 13.5-26.2 6.39-4.87 13.8-7.25 29.2-9.43 7.26-1.02 13.9-2.58 14.7-3.46 1.11-1.21.978-1.32-.532-.479-1.74.973-1.76.818-.120-1.2 1.03-1.27 2.72-2 3.74-1.6 1.02.392 1.55.214 1.17-.394-.376-.608.998-2.35 3.05-3.87 2.06-1.52 5.33-6.13 7.28-10.2 2.32-4.9 4.69-7.92 6.88-8.75 2 0 3-2 3-5s0-5-1-5c-.563 0-4.76-3.47-9.33-7.71l-8.31-7.71v-15.7c0-15.6-1.91-32.9-4.1-37-.752-1.42-.260-4 1.43-7.5 2.17-4.5 3.5-5.56 8.55-6.83 8.47-2.13 18.5-1.86 24.8.662 8.34 3.34 9.16-.106 1.03-4.31-5.25-2.72-17.3-2.69-24.9.0590-3.23 1.16-6.01 1.96-6.18 1.76-.475-.549 4.28-25.4 5.35-28 1.28-3.07 8.2-7.23 14.7-8.88 2.91-.732 7.56-1.9 10.3-2.61 7.53-1.91 9.85-.776 11.4 5.58 2.39 9.88 3.23 17.8 1.66 15.5-1.23-1.74-1.58-1.75-2.65-.0718-1.6 2.49.813 7.19 3.22 6.26 1.1-.422 2.11.650 2.65 2.82.483 1.92 2.04 5.13 3.46 7.12s2.58 4.13 2.59 4.75c.0239 2.8 15 6.01 26.2 5.62 12.9-.446 13.6.0374 14.7 10.3.626 6 .176 8.94-5.79 37.8l-3.44 16.7-7.17 6.89c-8.58 8.24-9.6 13.1-3.24 15.3 2.88 1 4.52 2.91 6.14 7.14 1.21 3.18 3.92 7.42 6.02 9.43s3.53 4.12 3.18 4.69c-.353.570.0615 1.47.920 2 1.03.637 1.2.384.503-.748-.710-1.15-.448-1.49.794-1.04 1.02.370 1.71 1.33 1.53 2.12-.175.799.575 1.11 1.67.691 1.24-.477 1.98.0293 1.98 1.36 0 2.36 1.21 2.69 17.1 4.72 23.8 3.04 35.4 13.5 38.8 34.9l1.03 6.51h-218zm118-85c2.92-2.92 4.38-5.45 3.88-6.74-.453-1.18-.228-1.71.527-1.25.725.448 1.32.228 1.32-.488 0-.717.399-2.34.887-3.61.706-1.84.004-1.66-3.44.891-3.81 2.82-5.76 3.2-16.2 3.2-6.54 0-11.9.0335-11.9.0743-.001.0409 1.51 2.13 3.36 4.64 6.87 9.31 14.4 10.5 21.6 3.28zm-3.09-28.3c-2.41-.393-2.93-1.65-3.59-8.72-.425-4.55-1.33-9.76-2-11.6-1.02-2.77-1.52-1.37-2.96 8.33-1.32 8.89-2.24 11.7-3.85 11.8-1.17.0868-.319.546 1.88 1.02s6.1.579 8.67.234c3.1-.418 3.72-.782 1.85-1.09zm-38.3-27.4c.159-2.07.995-4.61 1.86-5.65 1.28-1.54.984-1.89-1.6-1.87-4.12.0266-6.08 1.36-6.85 4.65-.347 1.48-.506 1.01-.357-1.05.193-2.68-.293-3.61-1.73-3.33-3.36.652-3.17 3.18.563 7.62 4.26 5.07 7.71 4.91 8.12-.354zm14.1 1.22c.585-.854.988-.459 1 .981.0112 1.33.620 2.04 1.35 1.59 2.84-1.76 1.26-6.71-3.09-9.67-6.81-4.63-9.72-3.73-5.65 1.75 1.06 1.42 1.59 3.94 1.18 5.6-.612 2.51-.319 2.86 1.75 2.1 1.36-.505 2.92-1.56 3.46-2.35zm42.1-1.43c.229-2.2 1.39-4.75 2.59-5.67 1.73-1.33 1.79-1.66.250-1.64-4-1-14 4-14 5 0 3.68 1.79 5.25 5.76 5.05 3.67-.185 4.29-.750 4.65-4.21zm15 1.62c1.16-.893 2.83-2.96 3.7-4.59 1.45-2.72 1.17-3.14-3.28-5-8.27-3.45-11.8-1.87-7.94 3.6 1.14 1.63 2.08 4.03 2.08 5.34 0 2.73 2.38 3.02 5.45.661z" fill="#733814"/>
  <path d="m25.8 260c1.19-8.88 7.94-22 13.5-26.2 6.39-4.87 13.8-7.25 29.2-9.43 7.26-1.02 13.9-2.58 14.7-3.46 1.11-1.21.978-1.32-.532-.479-1.74.973-1.76.818-.120-1.2 1.03-1.27 2.72-2 3.74-1.6 1.02.392 1.55.214 1.17-.394-.376-.608.998-2.35 3.05-3.87 2.06-1.52 5.33-6.13 7.28-10.2 2.32-4.9 4.69-7.92 6.88-8.75 2.63-1 3.33-2.19 3.31-5.63-.0246-3.75-1.25-5.36-8.67-11.4-4.75-3.86-8.64-7.79-8.64-8.74 0-.952 3.19 1.36 7.1 5.15 7.65 7.41 23.8 19.2 32 23.5l5.09 2.62 6.24-3.58c7.07-4.06 23.1-15.8 28.6-21 2.02-1.9 3.67-2.97 3.67-2.39s-3 3.78-6.67 7.1c-8.1 7.35-9.05 12.4-2.74 14.6 2.88 1 4.52 2.91 6.14 7.14 1.21 3.18 3.92 7.42 6.02 9.43s3.53 4.12 3.18 4.69c-.353.570.0615 1.47.920 2 1.03.637 1.2.384.503-.748-.710-1.15-.448-1.49.794-1.04 1.02.370 1.71 1.33 1.53 2.12-.175.799.575 1.11 1.67.691 1.24-.477 1.98.0293 1.98 1.36 0 2.36 1.21 2.69 17.1 4.72 23.8 3.04 35.4 13.5 38.8 34.9l1.03 6.51h-219zm110-26c0-7.57 5.23-15.7 13.7-21.2 5.04-3.31 7.67-5.94 7.67-7.67 0-3.26-.671-3.28-5.13-.134-1.95 1.37-6.66 4.07-10.5 5.99-8 4.03-8.79 3.88-22.3-4.34-8.26-5.02-8.75-5.15-8.74-2.4.005 2.1 2.41 4.53 8.55 8.65 9.26 6.22 11.9 10.3 13.4 20.6.995 6.99 3.4 7.35 3.4.511zm-7-81c-4.3-2.5-2.4-3.68 6-3.7l8.33-.0211-3.15 2.58c-3.45 2.83-7.57 3.25-11.2 1.14zm-36.1-31.9c-1.85-2.2-3.86-4-4.46-4-.604 0-1.86-1.21-2.78-2.7-1.36-2.18-1.36-2.79.0127-3.2 19.4-5.78 27.9-5.27 33.1 1.99 1.54 2.17 3.35 3.6 4.02 3.19.669-.413.885.111.480 1.17-.568 1.48-1.7 1.04-4.96-1.94-7.04-6.43-12.6-6.9-8.54-.719 1.16 1.76 1.76 4.49 1.35 6.06-.616 2.36-.310 2.69 1.75 1.93 1.37-.507 2.93-1.57 3.47-2.35.602-.878.987-.585 1 .760.0277 2.98-2.71 3.81-12.6 3.81-7.74 0-8.72-.331-11.8-4zm9.36-1.79c.159-2.07.995-4.61 1.86-5.65 1.28-1.54.984-1.89-1.6-1.87-4.12.0266-6.08 1.36-6.85 4.65-.347 1.48-.506 1.01-.357-1.05.193-2.68-.293-3.61-1.73-3.33-3.36.652-3.17 3.18.563 7.62 4.26 5.07 7.71 4.91 8.12-.354zm50.6 4.69c-.373-.604.641-1.05 2.25-1 2.31.0776 3.02-.757 3.35-3.9.229-2.2 1.39-4.75 2.59-5.67 2.98-2.29.830-2.1-6.67.590-4.68 1.68-6.36 2.98-6.43 5.01-.0885 2.58-.149 2.6-1.09.206-1.08-2.75 2.24-7.2 7.43-9.93 3.57-1.88 20-2.04 21.1-.203.453.733 1.87 1.33 3.15 1.33s3.03.711 3.9 1.58c1.22 1.22.205 2.9-4.42 7.33-5.9 5.65-6.17 5.75-15.2 5.75-5.08 0-9.54-.494-9.91-1.1zm20.6-3.28c1.16-.893 2.83-2.96 3.7-4.59 1.45-2.72 1.17-3.14-3.28-5-8.27-3.45-11.8-1.87-7.94 3.6 1.14 1.63 2.08 4.03 2.08 5.34 0 2.73 2.38 3.02 5.45.661z" fill="#2a2e31"/>
  <path d="m25.9 261c.423-3.55 2.63-10.3 4.89-15.1 3.25-6.82 5.44-9.48 10.3-12.6 7.31-4.65 16.5-7.43 27.5-8.39l8-.692-9.88 1.9c-13.2 2.54-20.9 5.28-26.2 9.31-4.98 3.8-10.7 14.8-11.9 22.7l-.781 5.33 2.17-5.89c6.72-18.2 16.9-25.9 40.3-30.3 6.7-1.27 11.5-2.7 10.8-3.18-.894-.553-.661-1.16.633-1.66 2.05-.787 12 11 16.3 19.4 1.06 2.05 2.24 3.72 2.64 3.72 1.5 0-7.68-15.6-11.7-19.9-3.25-3.48-3.81-4.72-2.32-5.21 3.35-1.1 10.7-9.2 10-11.1-1.12-3.23 5.01-13.8 8.28-14.2 2.5-.355 3-1.25 2.97-5.33-.0258-4.41-.896-5.61-8.67-11.9-4.75-3.86-8.64-7.79-8.64-8.74 0-.952 3.19 1.36 7.1 5.15 7.65 7.41 23.8 19.2 32 23.5l5.09 2.62 6.24-3.58c7.07-4.06 23.1-15.8 28.6-21 2.02-1.9 3.67-2.97 3.67-2.39s-3 3.78-6.67 7.1c-8.08 7.33-9.04 12.4-2.77 14.5 2.73.950 4.53 2.95 6.02 6.69 1.17 2.93 1.8 5.86 1.4 6.52-.986 1.59 8.48 12 10.9 12 1.21 0-.0385 2.36-3.34 6.33-2.9 3.48-6.6 9.03-8.23 12.3-3.56 7.22-2.41 6.12 5.65-5.4 7.09-10.1 9.72-12.7 11-10.7.475.769.0787 1.46-.881 1.54-.960.0805 3.95 1.27 10.9 2.64 23.7 4.67 35.5 13.4 40.9 30.2 1.24 3.84 2.51 6.72 2.83 6.4.319-.319-.705-4.81-2.28-9.98-4.97-16.3-12.5-22.1-34.6-26.8-6.31-1.32-10.2-2.45-8.59-2.52 5.45-.242 22.9 3.7 28 6.33 10.1 5.21 17.1 16.3 18.7 29.5l.789 6.67h-107c-85.1 0-108-.347-108-1.67-.0138-1.13-.478-1.02-1.44.333-1.05 1.48-1.22.317-.655-4.46zm110-27c0-7.57 5.23-15.7 13.7-21.2 5.04-3.31 7.67-5.94 7.67-7.67 0-3.26-.671-3.28-5.13-.134-1.95 1.37-6.66 4.07-10.5 5.99-8 4.03-8.79 3.88-22.3-4.34-8.26-5.02-8.75-5.15-8.74-2.4.005 2.1 2.41 4.53 8.55 8.65 9.26 6.22 11.9 10.3 13.4 20.6.995 6.99 3.4 7.35 3.4.511zm-44-21c1.72-1.83 3.43-3.33 3.8-3.33.367 0-.743 1.5-2.46 3.33s-3.43 3.33-3.8 3.33c-.367 0 .743-1.5 2.46-3.33zm83.2-1-3.92-4.33 4.33 3.92c4.04 3.65 4.95 4.75 3.92 4.75-.229 0-2.18-1.95-4.33-4.33zm-46-59c-4.3-2.5-2.4-3.68 6-3.7l8.33-.0211-3.15 2.58c-3.45 2.83-7.57 3.25-11.2 1.14zm-36.1-31.9c-1.85-2.2-3.86-4-4.46-4-.604 0-1.86-1.21-2.78-2.7-1.36-2.18-1.36-2.79.0127-3.2 19.4-5.78 27.9-5.27 33.1 1.99 1.54 2.17 3.35 3.6 4.02 3.19.669-.413.869.152.445 1.26-.632 1.65-1.29 1.46-3.65-1.06-4.4-4.69-8.1-6.16-15.1-6.01-7.74.160-12.7 1.43-13.4 3.4-.744 2.23 6.2 9.8 8.99 9.8 1.89 0 2.56-1.17 2.88-4.99.704-8.49 7.68-7.38 7.73 1.22.0129 2.27.872 3.79 2.35 4.18 1.28.335-1.96.679-7.21.764-9.06.147-9.72-.0512-12.9-3.85zm16.5 1.33c0-.733-.6-1.33-1.33-1.33-.733 0-1.33.6-1.33 1.33 0 .733.6 1.33 1.33 1.33.733 0 1.33-.6 1.33-1.33zm46.9 1.73c2.97-.457 3.49-1.18 3.33-4.62-.257-5.55 3.78-8.26 6.62-4.44 1.11 1.5 1.65 3.98 1.23 5.67-.856 3.42-.754 3.46 3.82 1.72 1.85-.702 4.31-3.12 5.48-5.38l2.12-4.1-4.86-2.03c-5.63-2.35-10.5-1.73-19.6 2.51-4.32 2.02-6.35 3.79-6.43 5.61-.109 2.55-.157 2.56-1.11.136-1.08-2.75 2.24-7.2 7.43-9.93 3.57-1.88 20-2.04 21.1-.203.453.733 1.87 1.33 3.15 1.33s3.03.711 3.9 1.58c1.22 1.22.205 2.9-4.42 7.33l-6 5.75-9.64-0.2c-5.3-.110-8.06-.443-6.12-.741zm9.14-1.73c0-.733-.6-1.33-1.33-1.33-.733 0-1.33.6-1.33 1.33 0 .733.6 1.33 1.33 1.33.733 0 1.33-.6 1.33-1.33z" fill="#582506"/>
  <path d="m26 261c.481-3.67 2.68-10.5 4.88-15.1 3.14-6.62 5.34-9.29 10.2-12.4 7.31-4.65 16.5-7.43 27.5-8.39l8-.692-9.88 1.9c-13.2 2.54-20.9 5.28-26.2 9.31-4.98 3.8-10.7 14.8-11.9 22.7l-.781 5.33 2.17-5.89c6.72-18.2 16.9-25.9 40.3-30.3 6.7-1.27 11.5-2.7 10.8-3.18-.894-.553-.661-1.16.633-1.66 2.05-.787 12 11 16.3 19.4 1.06 2.05 2.24 3.72 2.64 3.72 1.5 0-7.68-15.6-11.7-19.9-3.25-3.48-3.81-4.72-2.32-5.21 3.35-1.1 10.7-9.2 10-11.1-1.02-2.95 4.99-13.7 7.94-14.3 4.11-.713 4.63-1.81 3.41-7.21l-1.13-5 4.86 3.83c8.34 6.56 20 13.5 22.6 13.5 2.58 0 15.4-7.76 24.9-15.1 2.93-2.26 4.28-2.88 3-1.39s-2.33 4.35-2.33 6.35c0 2.81.876 3.94 3.89 4.99 2.73.950 4.53 2.95 6.02 6.69 1.17 2.93 1.8 5.86 1.4 6.52-.986 1.59 8.48 12 10.9 12 1.21 0-.0385 2.36-3.34 6.33-2.9 3.48-6.6 9.03-8.23 12.3-3.56 7.22-2.41 6.12 5.65-5.4 7.09-10.1 9.72-12.7 11-10.7.475.769.0787 1.46-.881 1.54-.960.0805 3.95 1.27 10.9 2.64 23.7 4.67 35.5 13.4 40.9 30.2 1.24 3.84 2.51 6.72 2.83 6.4.319-.319-.705-4.81-2.28-9.98-4.97-16.3-12.5-22.1-34.6-26.8-6.31-1.32-10.2-2.45-8.59-2.52 5.45-.242 22.9 3.7 28 6.33 10.1 5.21 17.1 16.3 18.7 29.5l.789 6.67h-108c-85.1 0-108-.347-108-1.67-.0138-1.13-.475-1.02-1.43.333-1.03 1.46-1.17.187-.533-4.67zm110-28c1.07-9.06 4-14.1 10.6-18.3 10.6-6.76 11.6-8.16 11.6-16 0-6.3-.311-7.1-2.78-7.1-1.53 0-6.36 2.1-10.7 4.67-4.38 2.57-9.28 4.67-10.9 4.66-1.61-.001-6.46-2.13-10.8-4.74-8-4-13-5-13-1 .0611 1.28.211 4.68.333 7.56.191 4.48.924 5.66 5.15 8.27 11.9 7.34 14.9 11.7 17 24.2 1.17 6.95 2.87 6.24 3.79-1.59zm-44-20c1.72-1.83 3.43-3.33 3.8-3.33.367 0-.743 1.5-2.46 3.33s-3.43 3.33-3.8 3.33c-.367 0 .743-1.5 2.46-3.33zm83.2-1-3.92-4.33 4.33 3.92c4.04 3.65 4.95 4.75 3.92 4.75-.229 0-2.18-1.95-4.33-4.33zm-72.8-31.3c-1.66-2.11-1.61-2.16.503-.503 1.28 1.01 2.33 2.06 2.33 2.33 0 1.1-1.09.391-2.84-1.83zm66.2-3c1.33-1.47 2.71-2.67 3.08-2.67.367 0-.419 1.2-1.75 2.67 0 1-2 2-2 2-.367 0 .419-1.2 1.75-2.67zm-74.1-5l-2.54-3 3 2.54c2.82 2.39 3.61 3.46 2.54 3.46-.253 0-1.6-1.35-3-3zm-4.15-54.8-5.61-5.68 8.49-2.26c12.2-3.26 21.1-2.78 22.6 1.23.575 1.5.191 1.61-1.82.535-2.81-1.5-13.5-1.61-18.6-.194-4.56 1.28-4.73 3.2-.702 8 5.12 6.09 2.19 4.99-4.34-1.63zm13.2.804c.301-3.63 1.1-5.12 2.92-5.46 3.11-.590 4.79 1.9 4.79 7.12 0 3.19-.287 3.59-1.41 2-1.06-1.51-1.58-1.59-2.09-.333 0 1-1 2-3 2-1.46 0-1.86-1.29-1.56-4.99zm56.3 1.64c-1.54-6.16 4.62-9.95 7.48-4.6 1.82 3.41.363 9.28-1.61 6.46-.996-1.42-1.44-1.46-1.97-.176-1.11 2.72-3.01 1.9-3.91-1.68zm12.4 2c1.61-.649 3.89-3.03 5.06-5.29l2.13-4.11-4.79-2c-5.59-2.34-12.5-1.53-19.1 2.24-6.1 3.48-6.91 3.15-2.44-.993 4.92-4.56 12.8-5.46 22.7-2.6 4.14 1.2 7.53 2.65 7.53 3.22 0 2.27-9.18 10.9-11.5 10.8-2.13-.0724-2.07-.254.443-1.26z" fill="#1d2326"/>
  <path d="m26.1 261c1.02-8.41 5.78-19.1 10.7-23.9 3.89-3.85 13.7-9.51 14.7-8.5.303.303-1.88 1.65-4.86 2.99s-7.12 4.39-9.21 6.77c-3.69 4.2-9.31 17-9.5 21.6-.0516 1.26-.656 3.48-1.34 4.95-.873 1.86-1.01.688-.458-3.89zm96.7 2.89c.0569-1.65-.824-5.4-1.96-8.33-1.13-2.93-2.1-6.23-2.15-7.33-.0485-1.1-1.22-3.47-2.6-5.27l-2.51-3.27-5.94 6.56-5.94 6.56-2.35-4.63c-1.29-2.54-5.61-9.43-9.59-15.3-5.94-8.75-6.36-9.71-2.37-5.33 2.68 2.93 7.04 9.08 9.69 13.7 2.65 4.58 5.29 8.33 5.86 8.33.572 0 4.49-5.24 8.72-11.6 4.22-6.41 9.03-12.3 10.7-13.1 2.84-1.39 2.87-1.59.667-3.5-1.28-1.11-5.2-3.67-8.69-5.68-3.5-2.01-7.25-4.93-8.33-6.48-2.81-4.01-2.5-11 .617-13.9 2.15-2 2.4-3.27 1.47-7.39l-1.12-4.97 4.86 3.83c8.34 6.56 20 13.5 22.6 13.5 2.58 0 15.4-7.76 24.9-15.1 2.93-2.26 4.28-2.88 3-1.39-3.2 3.73-3.15 11.2.0727 11.2 1.87 0 2.48 1.2 2.73 5.41.273 4.62-.335 6.03-4.19 9.67-2.48 2.34-7.31 5.96-10.7 8.03-6.79 4.12-7.58 5.62-3.63 6.87 1.42.452 5.89 5.84 9.93 12 4.04 6.13 7.88 11.5 8.54 11.9.662.409 3.96-3.58 7.33-8.88 3.37-5.29 8-11.7 10.3-14.3 5.18-5.81 4.15-3.88-6.21 11.6-4.51 6.76-8.52 13.1-8.9 14-.719 1.77-7.14-4.1-10-9.14-1.35-2.38-1.52-2.37-4.29.371-2.6 2.57-3.22 2.67-6.4 1.01-1.94-1.01-5.26-1.84-7.38-1.85l-3.85-.008.741-7.18c.989-9.58 3.88-14.8 10.7-19.1 10.6-6.76 11.6-8.16 11.6-16 0-6.3-.311-7.1-2.78-7.1-1.53 0-6.36 2.1-10.7 4.67-4.38 2.57-9.28 4.67-10.9 4.66-1.61-.001-6.41-2.1-10.7-4.67-7.49-4.52-12.1-5.76-13.4-3.63-.350.567-.236 4.14.255 7.94.837 6.49 1.33 7.21 8.11 12 9.43 6.62 11.8 10.1 13.6 19.7 1.58 8.62 2.65 9.95 8.03 9.98 1.92.0107 4.97 1.19 6.79 2.62l3.31 2.6-2.12 9.4-2.12 9.4h-13c-11.2 0-11.7-.110-11.6-3zm118-3.5c-1.14-8.62-7.72-21.5-12.9-25.4-2.3-1.7-7.27-4.21-11-5.56-3.77-1.36-5.65-2.48-4.18-2.5 4.15-.0545 15.6 5.86 19.6 10.1 4.76 5.08 9.01 14.9 9.99 23.2.434 3.67.483 6.67.109 6.67s-1.07-2.93-1.54-6.5zm-187-33c.917-.370 2.42-.370 3.33 0 .917.370.167.673-1.67.673-1.83 0-2.58-.303-1.67-.673zm6.67-1.33c.917-.370 2.42-.370 3.33 0 .917.370.167.673-1.67.673-1.83 0-2.58-.303-1.67-.673zm143-.0409c1.3-.338 3.1-.316 4 .0495.903.365-.159.642-2.36.615-2.2-.0272-2.94-.326-1.64-.664zm-134-2c.962-.385 2.11-.338 2.56.105.443.443-.344.758-1.75 0.7-1.55-.064-1.87-.380-.806-.806zm125 .0277c.917-.370 2.42-.370 3.33 0 .917.370.167.673-1.67.673-1.83 0-2.58-.303-1.67-.673zm-105-10.3c0-.277 1.05-1.33 2.33-2.33 2.11-1.66 2.16-1.61.503.503-1.74 2.22-2.84 2.93-2.84 1.83zm11.8-33.8c-1.66-2.11-1.61-2.16.503-.503 1.28 1.01 2.33 2.06 2.33 2.33 0 1.1-1.09.391-2.84-1.83zm66.2-3c1.33-1.47 2.71-2.67 3.08-2.67.367 0-.419 1.2-1.75 2.67 0 2-2 3-2 3-.367 0 .419-1.2 1.75-2.67zm-74.1-4l-2.54-3 3 2.54c2.82 2.39 3.61 3.46 2.54 3.46-.253 0-1.6-1.35-3-3zm-4.15-54.8-5.61-5.68 8.49-2.26c12.4-3.31 21.1-2.78 22.7 1.39.654 1.71.443 1.77-1.24.375-2.3-1.91-14.2-2.5-19.7-.983-4.58 1.26-4.63 3.6-.215 8.85 5.08 6.03 2.1 4.89-4.39-1.69zm13.8 4.9c-1.61-1.61-.929-6.75 1.11-8.44 1.6-1.32 2.4-1.32 4 0 2.78 2.31 2.56 6.42-.333 6.19-1.28-.102-2.18.565-2 1.48.356 1.78-1.31 2.25-2.78.778zm55.7-2.46c-.867-3.45 1.23-7.32 3.97-7.32 2.02 0 5.13 5.1 4.11 6.74-.442.715-1.37.953-2.05.528-.688-.425-1.61.165-2.05 1.31-1.19 3.11-3.02 2.52-3.97-1.27zm14.4.716c5.04-3.96 5.49-7.68 1.22-10-1.95-1.06-2.89-1.95-2.08-1.98 2.4-.0875 9.87 2.8 9.87 3.82 0 1.71-8.99 10.8-10.7 10.8-.917 0-.159-1.19 1.68-2.63zm-21.3-8.57c2.26-2.21 5.65-3.87 8.67-4.24l4-1-4.87 1.91c-2.68 1.05-6.58 2.96-8.67 4.24l-3.79 2.33zm15-5c.962-.385 2.11-.338 2.56.105.443.443-.344.758-1.75 0.7-1.55-.064-1.87-.380-.806-.806z" fill="#481c01"/>
  <path d="m26.2 261c1.27-9.28 5.41-19.1 10.1-23.9 4.16-4.25 14.1-10.2 15.2-9.11.303.303-1.88 1.65-4.86 2.99s-7.12 4.39-9.21 6.77c-3.69 4.2-9.31 17-9.5 21.6-.0516 1.26-.649 3.48-1.33 4.95-.859 1.85-.985.838-.414-3.33zm96.6 2.33c.0569-1.65-.824-5.4-1.96-8.33-1.13-2.93-2.1-6.23-2.15-7.33-.0485-1.1-1.22-3.47-2.6-5.27l-2.51-3.27-5.94 6.56-5.94 6.56-2.35-4.63c-1.29-2.54-5.61-9.43-9.59-15.3-5.94-8.75-6.36-9.71-2.37-5.33 2.68 2.93 7.04 9.08 9.69 13.7 2.65 4.58 5.29 8.33 5.86 8.33.572 0 4.49-5.24 8.72-11.6 4.22-6.41 9.03-12.3 10.7-13.1 2.84-1.39 2.87-1.59.667-3.5-1.28-1.11-5.2-3.67-8.69-5.68-7-3-10-7-10-12 0-9.63 4.98-11 5.59-1.52.392 6.07.705 6.5 8.8 12.1 10.3 7.14 12.1 9.87 13.1 19.1.860 7.86 3.01 10.5 8.54 10.5 1.96 0 5.05 1.17 6.87 2.6l3.31 2.6-2.12 9.4-2.12 9.4h-12c-11.2 0-11.7-.110-11.6-3zm118-3.5c-1.14-8.62-7.72-21.5-12.9-25.4-2.3-1.7-7.27-4.21-11-5.56-3.77-1.36-5.65-2.48-4.18-2.5 4.15-.0545 15.6 5.86 19.6 10.1 4.76 5.08 9.01 14.9 9.99 23.2.434 3.67.483 6.67.109 6.67s-1.07-2.93-1.54-6.5zm-78.7-12.2c-1.88-2.24-4-5.09-4.71-6.33-1.18-2.08-1.52-2.03-4.17.584-2.6 2.57-3.22 2.67-6.4 1.01-1.94-1.01-5.25-1.84-7.36-1.85l-3.84-.008.894-6.74c1.44-10.9 4.34-15.4 13.7-21.2 7.04-4.41 8.42-5.88 8.43-8.99.0297-6.08 1.48-9.71 3.88-9.71 1.69 0 2.33 1.35 2.57 5.41.273 4.62-.335 6.03-4.19 9.67-2.48 2.34-7.31 5.96-10.7 8.03-6.79 4.12-7.58 5.62-3.63 6.87 1.42.452 5.89 5.84 9.93 12 4.04 6.13 7.88 11.5 8.54 11.9.662.409 3.96-3.58 7.33-8.88 3.37-5.29 8-11.7 10.3-14.3 5.19-5.83 4.15-3.89-6.33 11.8-4 7-8 13-8 14 0 2.34-2.49 1.12-5.85-2.88zm-108-21c.917-.370 2.42-.370 3.33 0 .917.370.167.673-1.67.673-1.83 0-2.58-.303-1.67-.673zm6.67-1.33c.917-.370 2.42-.370 3.33 0 .917.370.167.673-1.67.673-1.83 0-2.58-.303-1.67-.673zm143-.0409c1.3-.338 3.1-.316 4 .0495.903.365-.159.642-2.36.615-2.2-.0272-2.94-.326-1.64-.664zm-134-2c.962-.385 2.11-.338 2.56.105.443.443-.344.758-1.75 0.7-1.55-.064-1.87-.380-.806-.806zm125 .0277c.917-.370 2.42-.370 3.33 0 .917.370.167.673-1.67.673-1.83 0-2.58-.303-1.67-.673zm-105-10.3c0-.277 1.05-1.33 2.33-2.33 2.11-1.66 2.16-1.61.503.503-1.74 2.22-2.84 2.93-2.84 1.83zm-.332-95.8c-2.75-3.01-4.85-5.58-4.67-5.72.183-.141 2.13-.616 4.33-1.06 2.2-.441 3.25-.475 2.33-.0764-2.58 1.12-1.99 3.92 1.79 8.4 5.1 6.07 2.03 4.81-3.78-1.54zm13.2 4.76c-1.61-1.61-.929-6.75 1.11-8.44 1.6-1.32 2.4-1.32 4 0 2.78 2.31 2.56 6.42-.333 6.19-1.28-.102-2.18.565-2 1.48.356 1.78-1.31 2.25-2.78.778zm55.7-2.46c-.867-3.45 1.23-7.32 3.97-7.32 2.02 0 5.13 5.1 4.11 6.74-.442.715-1.37.953-2.05.528-.688-.425-1.61.165-2.05 1.31-1.19 3.11-3.02 2.52-3.97-1.27zm14.4.716c5.04-3.96 5.48-7.66 1.22-10.1-1.95-1.14-2.44-1.72-1.09-1.31 1.35.416 3.9 1.12 5.67 1.56 1.77.443 3.21 1.07 3.21 1.39 0 1.24-9.83 11.1-11.1 11.1-.714 0 .208-1.19 2.05-2.63zm-19-10c1.47-1.52 4.47-3.11 6.67-3.53 3.84-.742 3.81-.691-.667 1.3-2.57 1.14-5.57 2.73-6.67 3.53-1.1.803-.8.218.667-1.3zm-55-3c2.97-.703 7.03-.684 10 .047 4.39 1.08 3.78 1.23-5 1.18-8.75-.0411-9.37-.195-5-1.23z" fill="#131213"/>
  <path d="m241 261c.064-1.55.380-1.87.806-.806.385.962.338 2.11-.105 2.56-.443.443-.758-.344-0.7-1.75zm-214-3c-.0838-5.56 5.54-16.7 11-21.8l5.68-5.28-5.21 5.61c-3.39 3.65-6.29 8.77-8.3 14.7-1.7 4.98-3.1 8.03-3.12 6.78zm213-3.16c.064-1.55.380-1.87.806-.806.385.962.338 2.11-.105 2.56-.443.443-.758-.344-0.7-1.75zm-1.88-6.13c-.491-1.95-3.08-6.45-5.76-9.99s-3.52-5.24-1.86-3.77c3.97 3.52 9.78 13.5 9.07 15.6-.307.920-.959.0741-1.45-1.88zm-78.4-4.76c-1.66-2.11-1.61-2.16.503-.503 1.28 1.01 2.33 2.06 2.33 2.33 0 1.1-1.09.391-2.84-1.83zm10.8-1.67c.785-1.47 1.73-2.67 2.09-2.67.367 0 .0244 1.2-.760 2.67-.785 1.47-1.73 2.67-2.09 2.67-.367 0-.0244-1.2.760-2.67zm-59.1-4.13c1.32-2.27 4.21-6.06 6.41-8.41s3.07-3.04 1.93-1.54c-1.14 1.51-3.77 5.29-5.85 8.41-4.39 6.58-6.02 7.58-2.49 1.54zm40.4-5.54c-3.8-5.79-4.32-7.04-1.72-4.1 4.01 4.53 9.02 12.4 7.87 12.4-.381 0-3.15-3.75-6.16-8.33zm-21.8.814c-.467-3.41-1.9-7.05-3.18-8.1s-1.51-1.48-.494-.961c1.22.630 1.64.326 1.24-.901-.329-1.02-4.69-4.92-9.68-8.66-5-3.75-9.71-7.95-10.5-9.33-.765-1.39.964-.410 3.84 2.17s7.5 6.09 10.3 7.8c2.77 1.71 5.88 4.75 6.93 6.77 1.89 3.65 4.31 17.4 3.06 17.4-.361 0-1.04-2.78-1.51-6.19zm6.68.853c1.21-9.4 3.84-14.3 9.9-18.3 3.08-2.04 7.37-5.37 9.53-7.38 2.16-2.02 4.29-3.67 4.74-3.67 1.63 0-7.12 8.29-10.8 10.2-2.06 1.07-4.91 3.12-6.33 4.55-2.89 2.89-3.53 5.97-.929 4.45.917-.536.467.381-1 2.04s-3.4 5.51-4.29 8.56l-1.62 5.55zm-46.2-1.33c-1.57-2.2-2.55-4-2.18-4 .367 0 1.95 1.8 3.51 4 1.57 2.2 2.55 4 2.18 4-.367 0-1.95-1.8-3.51-4zm88-2.63c1.55-2.18 3.5-4.38 4.33-4.89.832-.514-.167 1.27-2.22 3.96-4.46 5.84-6.14 6.59-2.11.935zm42-.113c-2.93-1.39-4.55-2.54-3.6-2.56 1.94-.0392 9.6 3.68 9.6 4.67 0 .780.395.919-6-2.11zm-136-4c-1.66-2.11-1.61-2.16.503-.503 1.28 1.01 2.33 2.06 2.33 2.33 0 1.1-1.09.391-2.84-1.83zm73.5-22.9c0-2.24 2.36-2.79 3.15-.738.464 1.21-.004 1.99-1.19 1.99-1.08 0-1.96-.565-1.96-1.25zm-51.3-1.41c.453-.733 1.09-1.33 1.41-1.33.323 0 .588.6.588 1.33 0 .733-.635 1.33-1.41 1.33-.777 0-1.04-.6-.588-1.33zm-4.11-80.6c-1.2-4.79 2.24-8.7 5.37-6.11 2.41 2 2.89 7.39.531 5.93-.845-.522-2.31.116-3.27 1.42-1.6 2.18-1.8 2.09-2.64-1.24zm56.6 1.2c-.393-6.44 1.94-9.65 5.11-7.02 2.16 1.8 2.33 6.96.176 5.64-.845-.522-2.34.157-3.33 1.51-1.74 2.37-1.8 2.37-1.96-.130zm13-1c1.33-1.47 2.71-2.67 3.08-2.67.367 0-.419 1.2-1.75 2.67-1 2-2 3-3 3-.367 0 .419-1.2 1.75-2.67zm-84.2-4.67c-.422-1.1-1.6-2-2.62-2s-1.86-.6-1.86-1.33c0-.733.851-1.33 1.89-1.33s2.99-.357 4.33-.792c1.88-.610 2.01-.488.585.530-1.07.764-1.55 2.51-1.12 4.13.839 3.21-.0502 3.8-1.2.803zm88.2-.627c.507-.820.264-2.28-.539-3.25-1.16-1.4-.77-1.63 1.89-1.12 4.08.78 4.22 1.81.539 4.11-1.66 1.03-2.43 1.14-1.89.262zm-82.2-6.28c.962-.385 2.11-.338 2.56.105.443.443-.344.758-1.75 0.7-1.55-.064-1.87-.380-.806-.806zm61.3 0c.962-.385 2.11-.338 2.56.105.443.443-.344.758-1.75 0.7-1.55-.064-1.87-.380-.806-.806z" fill="#050506"/>
 </g>
</svg>
