<!DOCTYPE svg PUBLIC "-//W3C//DTD SVG 20010904//EN" "http://www.w3.org/TR/2001/REC-SVG-20010904/DTD/svg10.dtd">
<svg version="1.0" xmlns="http://www.w3.org/2000/svg" width="200px" height="200px" viewBox="0 0 2000 2000" preserveAspectRatio="xMidYMid meet">
<g id="layer101" fill="#694443" stroke="none">
 <path d="M174 1954 c15 -114 93 -220 178 -246 21 -6 38 -17 38 -23 0 -7 -9 -70 -20 -141 -57 -375 -48 -791 21 -1004 85 -259 281 -445 485 -458 40 -2 93 0 117 6 34 9 53 8 92 -3 255 -77 459 123 545 538 62 298 47 737 -35 994 l-22 71 36 7 c50 9 115 49 146 90 31 39 60 112 70 173 l7 42 -832 0 -833 0 7 -46z"/>
 </g>
<g id="layer102" fill="#a7291c" stroke="none">
 <path d="M174 1954 c15 -114 93 -220 178 -246 21 -6 38 -17 38 -23 0 -7 -9 -70 -20 -141 -57 -375 -48 -791 21 -1004 85 -259 281 -445 485 -458 40 -2 93 0 117 6 34 9 53 8 92 -3 255 -77 459 123 545 538 62 298 47 737 -35 994 l-22 71 36 7 c50 9 115 49 146 90 31 39 60 112 70 173 l7 42 -832 0 -833 0 7 -46z m126 -159 c19 -19 32 -35 29 -35 -3 0 -20 16 -39 35 -19 19 -32 35 -29 35 3 0 20 -16 39 -35z m1440 32 c0 -2 -17 -19 -37 -38 l-38 -34 34 38 c33 34 41 42 41 34z"/>
 </g>
<g id="layer103" fill="#6e3f31" stroke="none">
 <path d="M174 1954 c15 -114 93 -220 178 -246 21 -6 38 -17 38 -23 0 -7 -9 -70 -20 -141 -57 -375 -48 -791 21 -1004 85 -259 281 -445 485 -458 40 -2 93 0 117 6 34 9 53 8 92 -3 255 -77 459 123 545 538 62 298 47 737 -35 994 l-22 71 36 7 c50 9 115 49 146 90 31 39 60 112 70 173 l7 42 -832 0 -833 0 7 -46z m126 -159 c19 -19 32 -35 29 -35 -3 0 -20 16 -39 35 -19 19 -32 35 -29 35 3 0 20 -16 39 -35z m1440 32 c0 -2 -17 -19 -37 -38 l-38 -34 34 38 c33 34 41 42 41 34z m-646 -533 c24 -9 19 -33 -10 -44 -29 -11 -106 -13 -153 -4 -32 7 -44 37 -18 47 18 8 162 8 181 1z"/>
 </g>
<g id="layer104" fill="#5c453b" stroke="none">
 <path d="M174 1954 c15 -114 93 -220 178 -246 21 -6 38 -17 38 -23 0 -7 -9 -70 -20 -141 -57 -375 -48 -791 21 -1004 85 -259 281 -445 485 -458 40 -2 93 0 117 6 34 9 53 8 92 -3 255 -77 459 123 545 538 62 298 47 737 -35 994 l-22 71 36 7 c50 9 115 49 146 90 31 39 60 112 70 173 10 62 -11 53 -24 -10 -25 -117 -75 -186 -164 -223 -69 -29 -86 -16 -20 15 33 17 76 47 94 67 32 37 72 115 84 166 l7 27 -800 0 c-754 0 -801 -1 -805 -17 -4 -17 -5 -17 -6 0 0 9 -6 17 -12 17 -8 0 -10 -15 -5 -46z m111 -142 c15 -18 47 -44 71 -58 48 -28 60 -49 19 -34 -84 32 -123 70 -154 155 -30 81 -26 100 7 30 16 -33 41 -75 57 -93z m446 -17 c-22 -49 -80 -129 -88 -121 -3 3 18 39 46 81 28 42 51 82 51 88 0 5 3 8 6 4 3 -3 -4 -26 -15 -52z m-40 -182 c34 -39 31 -45 -9 -13 -23 18 -42 37 -42 42 0 12 32 -6 51 -29z m403 -319 c24 -9 19 -33 -10 -44 -29 -11 -106 -13 -153 -4 -32 7 -44 37 -18 47 18 8 162 8 181 1z"/>
 </g>
<g id="layer105" fill="#713819" stroke="none">
 <path d="M174 1954 c15 -114 93 -220 178 -246 21 -6 38 -17 38 -23 0 -7 -9 -70 -20 -141 -57 -375 -48 -791 21 -1004 85 -259 281 -445 485 -458 40 -2 93 0 117 6 34 9 53 8 92 -3 255 -77 459 123 545 538 62 298 47 737 -35 994 l-22 71 36 7 c50 9 115 49 146 90 31 39 60 112 70 173 10 62 -11 53 -24 -10 -25 -117 -75 -186 -164 -223 -69 -29 -86 -16 -20 15 33 17 76 47 94 67 32 37 72 115 84 166 l7 27 -800 0 c-754 0 -801 -1 -805 -17 -4 -17 -5 -17 -6 0 0 9 -6 17 -12 17 -8 0 -10 -15 -5 -46z m111 -142 c15 -18 47 -44 71 -58 48 -28 60 -49 19 -34 -84 32 -123 70 -154 155 -30 81 -26 100 7 30 16 -33 41 -75 57 -93z m446 -17 c-22 -49 -80 -129 -88 -121 -3 3 18 39 46 81 28 42 51 82 51 88 0 5 3 8 6 4 3 -3 -4 -26 -15 -52z m-40 -182 c41 -46 36 -60 -6 -19 -25 24 -45 47 -45 50 0 10 33 -10 51 -31z m802 -648 c2 -226 -9 -301 -67 -460 -31 -86 -20 -74 38 40 52 101 90 240 100 360 4 44 10 94 13 110 7 29 7 28 14 -15 4 -25 8 -119 8 -210 1 -210 -19 -316 -83 -445 -87 -176 -193 -259 -330 -259 -39 0 -88 5 -109 13 l-39 13 24 27 c19 22 17 21 -10 -4 -32 -29 -36 -30 -135 -30 -96 0 -106 2 -172 35 -98 49 -200 152 -248 250 -66 135 -98 279 -113 505 -7 111 1 123 17 24 19 -126 79 -271 161 -391 21 -32 40 -58 42 -58 2 0 -12 40 -30 88 -47 126 -79 243 -97 352 -22 132 -28 208 -17 190 5 -8 10 -23 10 -32 0 -36 64 -217 110 -314 153 -318 376 -518 484 -433 14 11 33 33 41 49 14 26 16 27 55 16 35 -9 47 -8 78 9 116 63 234 534 217 872 l-4 88 21 -90 c17 -75 21 -126 21 -300z m-399 329 c24 -9 19 -33 -10 -44 -29 -11 -106 -13 -153 -4 -32 7 -44 37 -18 47 18 8 162 8 181 1z"/>
 </g>
<g id="layer106" fill="#4e352b" stroke="none">
 <path d="M174 1954 c15 -114 93 -220 178 -246 21 -6 38 -17 38 -23 0 -7 -9 -70 -20 -141 -57 -375 -48 -791 21 -1004 85 -259 281 -445 485 -458 40 -2 93 0 117 6 34 9 53 8 92 -3 255 -77 459 123 545 538 62 298 47 737 -35 994 l-22 71 36 7 c50 9 115 49 146 90 31 39 60 112 70 173 10 62 -11 53 -24 -10 -25 -117 -75 -186 -164 -223 -61 -25 -69 -21 -110 60 -39 74 -59 96 -51 53 3 -13 -2 -9 -11 11 -8 18 -31 60 -51 92 -35 58 -36 59 -80 59 l-44 0 -1 -52 c-1 -29 -4 -66 -8 -82 l-6 -30 -12 27 c-16 34 -33 28 -72 -24 -25 -34 -30 -37 -41 -24 -7 9 -14 29 -15 45 -2 16 -12 48 -23 71 -11 23 -18 47 -15 55 4 11 -13 14 -91 14 -80 0 -96 -3 -96 -15 0 -28 -42 -149 -58 -167 -14 -16 -17 -15 -44 20 -45 56 -54 58 -77 15 -11 -21 -34 -58 -51 -83 l-31 -45 6 45 c6 39 30 136 51 208 6 21 4 22 -49 22 -52 0 -57 -2 -95 -44 -57 -62 -91 -116 -118 -188 l-23 -63 -1 40 -2 40 -11 -37 -12 -38 -50 24 c-27 13 -60 34 -72 47 -28 31 -60 102 -74 167 -14 66 -34 70 -25 6z m650 -169 c31 -47 65 -90 76 -97 11 -7 20 -16 20 -19 0 -4 -29 -25 -64 -47 -77 -48 -103 -88 -87 -134 11 -30 11 -31 -8 -14 -11 10 -23 32 -27 48 -3 17 -26 50 -50 74 -27 26 -44 51 -44 66 0 12 20 51 44 86 24 34 49 76 56 92 7 17 16 30 20 30 5 0 33 -38 64 -85z m431 63 c14 -46 14 -311 -1 -345 -14 -37 -25 -44 -17 -13 11 40 -18 81 -89 126 -37 24 -68 47 -68 52 0 4 9 13 20 19 10 7 44 51 75 98 31 47 60 85 64 85 5 0 12 -10 16 -22z m-240 -95 c11 -76 33 -112 91 -149 46 -30 74 -54 61 -54 -3 0 -21 7 -40 15 -23 10 -69 15 -127 15 -58 0 -104 -5 -127 -15 -19 -8 -37 -15 -40 -15 -12 0 14 23 61 55 59 39 80 74 91 148 4 26 11 47 15 47 4 0 11 -21 15 -47z m96 -289 c24 -8 80 -43 124 -77 75 -59 81 -66 102 -129 51 -151 61 -285 35 -463 -6 -45 -10 -50 -37 -56 -62 -13 -135 -9 -190 12 -58 22 -85 18 -50 -7 45 -33 120 -41 205 -23 28 6 54 9 56 6 5 -4 -41 -149 -67 -214 -29 -71 -218 -113 -373 -82 -49 10 -63 19 -101 61 -43 48 -177 239 -172 244 2 2 25 -3 52 -11 87 -27 178 -14 214 28 19 24 -4 23 -57 -3 -46 -22 -97 -25 -171 -9 -46 10 -51 14 -77 63 l-28 53 22 129 c12 71 24 158 28 192 5 47 15 76 38 110 36 54 164 156 221 176 54 19 171 20 226 0z m382 -499 c2 -226 -9 -301 -67 -460 -31 -86 -20 -74 38 40 52 101 90 240 100 360 4 44 10 94 13 110 7 29 7 28 14 -15 4 -25 8 -119 8 -210 1 -210 -19 -316 -83 -445 -87 -176 -193 -259 -330 -259 -39 0 -88 5 -109 13 l-39 13 24 27 c19 22 17 21 -10 -4 -32 -29 -36 -30 -135 -30 -96 0 -106 2 -172 35 -98 49 -200 152 -248 250 -66 135 -98 279 -113 505 -7 111 1 123 17 24 19 -126 79 -271 161 -391 21 -32 40 -58 42 -58 2 0 -12 40 -30 88 -47 126 -79 243 -97 352 -22 132 -28 208 -17 190 5 -8 10 -23 10 -32 0 -36 64 -217 110 -314 153 -318 376 -518 484 -433 14 11 33 33 41 49 14 26 16 27 55 16 35 -9 47 -8 78 9 116 63 234 534 217 872 l-4 88 21 -90 c17 -75 21 -126 21 -300z"/>
 <path d="M960 1145 c-24 -13 -21 -14 40 -14 61 0 64 1 40 14 -14 8 -32 14 -40 14 -8 0 -26 -6 -40 -14z"/>
 <path d="M739 876 c35 -36 35 -43 -2 -83 l-20 -23 30 0 c23 0 32 5 36 22 5 18 8 19 21 9 9 -8 13 -17 10 -22 -3 -5 9 -9 26 -9 l32 0 -26 31 c-32 37 -32 38 -1 71 31 33 31 38 2 38 -12 0 -28 -9 -35 -20 -7 -11 -16 -20 -21 -20 -5 0 -13 9 -16 20 -5 14 -15 20 -38 20 l-31 0 33 -34z"/>
 <path d="M1154 877 c32 -42 32 -45 -1 -79 l-27 -28 29 0 c15 0 34 8 41 18 13 16 15 16 28 0 7 -10 23 -18 36 -18 l22 0 -26 35 -26 34 31 36 31 35 -30 0 c-22 0 -32 -6 -37 -20 -3 -11 -10 -20 -14 -20 -13 0 -32 26 -24 33 3 4 -8 7 -26 7 l-32 0 25 -33z"/>
 </g>
<g id="layer107" fill="#50230d" stroke="none">
 <path d="M174 1954 c15 -114 93 -220 178 -246 21 -6 38 -17 38 -23 0 -7 -9 -70 -20 -141 -57 -375 -48 -791 21 -1004 85 -259 281 -445 485 -458 40 -2 93 0 117 6 34 9 53 8 92 -3 240 -73 438 104 529 471 43 173 51 247 50 494 0 254 -19 410 -69 567 l-22 71 36 7 c50 9 115 49 146 90 31 39 60 112 70 173 10 64 -10 51 -25 -15 -27 -126 -83 -194 -181 -226 -29 -9 -53 -15 -53 -14 -1 1 -18 37 -39 80 -38 76 -60 99 -51 55 3 -13 -2 -9 -11 11 -8 18 -31 60 -51 92 -35 58 -36 59 -80 59 l-44 0 -1 -52 c-1 -29 -4 -66 -8 -82 l-6 -30 -12 27 c-16 34 -33 28 -72 -24 -25 -34 -30 -37 -41 -24 -7 9 -14 29 -15 45 -2 16 -12 48 -23 71 -11 23 -18 47 -15 55 4 11 -13 14 -91 14 -80 0 -96 -3 -96 -15 0 -28 -42 -149 -58 -167 -14 -16 -17 -15 -44 20 -45 56 -54 58 -77 15 -11 -21 -34 -58 -51 -83 l-31 -45 6 45 c6 39 30 136 51 208 6 21 4 22 -49 22 -54 0 -56 -1 -102 -52 -58 -64 -92 -123 -116 -196 l-18 -57 0 44 c-1 49 -7 52 -14 6 -3 -25 -8 -30 -28 -27 -35 3 -99 51 -131 97 -16 22 -36 72 -45 113 -19 80 -39 98 -29 26z m402 -156 c-73 -172 -112 -413 -95 -597 11 -124 60 -307 109 -409 75 -157 253 -385 345 -442 79 -49 138 -42 170 20 18 34 15 33 50 20 39 -15 88 12 124 69 41 63 105 261 130 401 34 187 27 316 -33 630 -14 69 -27 148 -31 175 l-6 50 19 -45 c10 -25 31 -65 46 -89 16 -25 34 -58 42 -75 l13 -31 1 49 c0 27 -11 105 -25 174 -14 68 -24 127 -21 129 6 7 51 -94 80 -181 15 -44 36 -129 49 -188 12 -59 25 -108 30 -108 7 0 6 39 -9 200 -6 75 10 46 31 -55 37 -182 60 -593 35 -650 -8 -17 -9 -16 -11 10 -1 17 -5 -28 -9 -100 -15 -261 -74 -435 -191 -559 -97 -104 -198 -135 -326 -102 -51 12 -73 13 -118 4 -121 -24 -255 30 -376 151 -149 149 -215 349 -238 719 -10 159 -1 338 25 537 l19 140 5 -95 c6 -102 9 -102 34 3 8 37 26 94 39 126 27 66 116 215 124 207 3 -3 -11 -42 -31 -88z m248 -13 c31 -47 65 -90 76 -97 11 -7 20 -16 20 -19 0 -4 -29 -25 -64 -47 -77 -48 -103 -88 -87 -134 17 -49 -12 -17 -44 47 -15 32 -39 62 -56 72 -45 27 -40 64 26 162 30 45 55 86 55 92 0 25 23 1 74 -76z m431 68 c14 -35 14 -316 -1 -350 -14 -37 -25 -44 -17 -13 11 40 -18 81 -89 126 -37 24 -68 47 -68 52 0 4 9 13 20 19 10 7 44 51 75 98 31 47 60 85 65 85 4 0 11 -8 15 -17z m-240 -100 c11 -76 33 -112 91 -149 46 -30 74 -54 61 -54 -3 0 -21 7 -40 15 -23 10 -69 15 -127 15 -58 0 -104 -5 -127 -15 -19 -8 -37 -15 -40 -15 -12 0 14 23 61 55 59 39 80 74 91 148 4 26 11 47 15 47 4 0 11 -21 15 -47z m94 -288 c62 -21 200 -131 217 -171 23 -56 53 -194 60 -277 11 -125 -23 -311 -83 -467 -25 -64 -30 -71 -73 -89 -74 -31 -121 -41 -202 -41 -115 0 -162 16 -213 72 -51 57 -149 199 -200 292 l-38 69 21 136 c12 75 25 162 29 195 4 41 15 72 37 104 36 54 164 156 221 176 53 19 172 20 224 1z"/>
 <path d="M422 1170 c0 -19 2 -27 5 -17 2 9 2 25 0 35 -3 9 -5 1 -5 -18z"/>
 <path d="M960 1145 c-24 -13 -21 -14 40 -14 61 0 64 1 40 14 -14 8 -32 14 -40 14 -8 0 -26 -6 -40 -14z"/>
 <path d="M739 876 c35 -36 35 -43 -2 -83 l-20 -23 30 0 c23 0 32 5 36 22 5 18 8 19 21 9 9 -8 13 -17 10 -22 -3 -5 9 -9 26 -9 l32 0 -26 31 c-32 37 -32 38 -1 71 31 33 31 38 2 38 -12 0 -28 -9 -35 -20 -7 -11 -16 -20 -21 -20 -5 0 -13 9 -16 20 -5 14 -15 20 -38 20 l-31 0 33 -34z"/>
 <path d="M1154 877 c32 -42 32 -45 -1 -79 l-27 -28 29 0 c15 0 34 8 41 18 13 16 15 16 28 0 7 -10 23 -18 36 -18 l22 0 -26 35 -26 34 31 36 31 35 -30 0 c-22 0 -32 -6 -37 -20 -3 -11 -10 -20 -14 -20 -13 0 -32 26 -24 33 3 4 -8 7 -26 7 l-32 0 25 -33z"/>
 <path d="M870 755 c-7 -9 -15 -14 -17 -11 -3 2 -20 -2 -38 -10 -26 -11 -46 -11 -86 -4 -68 13 -75 6 -9 -10 79 -19 190 5 190 40 0 15 -26 12 -40 -5z"/>
 <path d="M1085 757 c13 -31 115 -53 185 -38 l45 9 -62 1 c-37 1 -80 9 -108 21 -54 23 -66 25 -60 7z"/>
 </g>
<g id="layer108" fill="#362016" stroke="none">
 <path d="M550 1939 c-54 -65 -82 -115 -111 -194 l-18 -50 -2 35 c-1 26 -3 29 -6 12 -7 -36 -28 -37 -87 -3 -40 23 -63 46 -86 84 -18 29 -29 43 -25 32 4 -11 8 -29 10 -40 6 -29 81 -93 126 -107 22 -6 39 -17 39 -23 0 -7 -9 -70 -20 -141 -57 -375 -48 -791 21 -1004 85 -259 281 -445 485 -458 40 -2 93 0 117 6 34 9 53 8 92 -3 240 -73 438 104 529 471 43 173 51 247 50 494 0 254 -19 410 -69 567 l-22 71 36 7 c20 4 55 18 79 31 44 26 106 100 96 115 -3 5 0 9 6 9 6 0 8 5 5 11 -4 5 -21 -13 -38 -42 -33 -54 -99 -99 -164 -112 -30 -6 -32 -4 -52 46 -12 29 -30 63 -41 77 -18 23 -20 23 -20 5 0 -12 -16 9 -38 50 -62 115 -62 115 -108 115 l-41 0 -7 -77 c-3 -43 -10 -103 -15 -133 -5 -30 -7 -102 -4 -160 6 -118 -3 -154 -42 -172 -14 -6 -24 -15 -23 -18 2 -4 28 -27 58 -51 49 -41 56 -52 77 -119 57 -186 66 -331 33 -499 -20 -97 -57 -216 -86 -273 -25 -48 -108 -72 -254 -73 -85 0 -135 4 -158 14 -66 28 -292 366 -292 437 0 16 9 76 19 134 10 58 22 142 26 188 7 79 9 84 50 130 24 27 62 61 84 76 23 16 41 32 41 36 0 4 -11 12 -25 18 -17 8 -34 32 -52 72 -18 42 -35 66 -55 76 -20 11 -28 22 -28 42 0 52 29 218 49 282 12 36 21 66 21 68 0 1 -25 2 -55 2 -54 0 -54 0 -105 -61z m26 -141 c-73 -172 -112 -413 -95 -597 11 -124 60 -307 109 -409 75 -157 253 -385 345 -442 79 -49 138 -42 170 20 18 34 15 33 50 20 39 -15 88 12 124 69 41 63 105 261 130 401 34 187 27 316 -33 630 -14 69 -27 148 -31 175 l-6 50 19 -45 c10 -25 31 -65 46 -89 16 -25 34 -58 42 -75 l13 -31 1 49 c0 27 -11 105 -25 174 -14 68 -24 127 -21 129 6 7 51 -94 80 -181 15 -44 36 -129 49 -188 12 -59 25 -108 30 -108 7 0 6 39 -9 200 -6 75 10 46 31 -55 37 -182 60 -593 35 -650 -8 -17 -9 -16 -11 10 -1 17 -5 -28 -9 -100 -15 -261 -74 -435 -191 -559 -97 -104 -198 -135 -326 -102 -51 12 -73 13 -118 4 -121 -24 -255 30 -376 151 -149 149 -215 349 -238 719 -10 159 -1 338 25 537 l19 140 5 -95 c6 -102 9 -102 34 3 8 37 26 94 39 126 27 66 116 215 124 207 3 -3 -11 -42 -31 -88z"/>
 <path d="M422 1170 c0 -19 2 -27 5 -17 2 9 2 25 0 35 -3 9 -5 1 -5 -18z"/>
 <path d="M911 1978 c1 -30 -44 -154 -65 -177 -15 -17 -14 -21 16 -62 l31 -43 47 52 c26 29 53 52 61 52 8 0 33 -23 57 -50 24 -28 46 -50 50 -50 4 0 19 19 34 42 26 42 27 43 9 63 -10 11 -19 35 -19 53 0 18 -10 49 -21 68 -12 19 -21 44 -21 55 0 17 -8 19 -90 19 -87 0 -90 -1 -89 -22z"/>
 <path d="M730 904 c0 -3 9 -19 21 -35 22 -31 21 -38 -7 -76 -15 -21 -15 -23 1 -23 9 0 25 10 35 22 l17 22 14 -22 c8 -12 22 -22 33 -22 17 0 16 3 -7 33 l-25 34 23 29 c14 16 24 32 25 36 0 13 -34 -5 -51 -26 -16 -19 -16 -19 -34 7 -15 24 -45 37 -45 21z"/>
 <path d="M1140 904 c0 -3 11 -20 25 -36 l26 -30 -26 -34 -26 -34 24 0 c16 0 26 7 30 20 3 11 10 20 17 20 7 0 14 -9 17 -20 4 -13 14 -20 31 -20 l26 0 -27 28 c-32 34 -33 37 -7 69 11 14 20 29 20 33 0 16 -31 3 -47 -19 l-16 -23 -24 26 c-22 24 -43 34 -43 20z"/>
 <path d="M857 748 c-40 -22 -85 -26 -152 -16 l-40 7 40 -14 c22 -7 58 -14 80 -14 43 -1 125 31 125 49 0 14 -9 12 -53 -12z"/>
 <path d="M1098 750 c38 -31 98 -43 161 -32 l56 9 -65 2 c-41 1 -81 9 -109 21 -55 25 -73 25 -43 0z"/>
 </g>
<g id="layer109" fill="#2f2428" stroke="none">
 <path d="M917 1981 c3 -10 -2 -32 -10 -47 -8 -16 -17 -45 -21 -64 -3 -19 -16 -44 -27 -56 l-21 -22 26 -41 c15 -23 30 -41 36 -41 5 0 25 21 45 47 20 26 41 48 48 49 7 1 20 5 30 9 13 6 16 3 11 -9 -6 -16 49 -96 67 -96 5 0 20 18 35 41 25 40 25 41 7 61 -10 11 -16 31 -15 48 2 15 -4 34 -12 43 -9 9 -16 22 -16 31 0 8 -4 17 -9 20 -5 3 -7 15 -4 26 5 19 0 20 -85 20 -83 0 -90 -1 -85 -19z"/>
 <path d="M754 869 l27 -31 -26 -34 c-24 -32 -25 -34 -6 -34 11 0 22 9 26 20 3 11 13 20 22 20 8 0 17 -9 20 -20 3 -11 14 -20 25 -20 18 0 18 2 -6 31 -27 32 -26 39 7 77 19 20 19 22 3 22 -10 0 -26 -10 -36 -22 l-19 -23 -16 23 c-9 12 -23 22 -31 22 -12 0 -9 -8 10 -31z"/>
 <path d="M1164 871 c30 -31 29 -38 -7 -78 -19 -21 -19 -23 -3 -23 10 0 27 10 37 23 l20 22 15 -22 c9 -13 23 -23 31 -23 13 0 13 3 -1 23 -28 38 -29 45 -6 77 17 24 18 30 6 30 -8 0 -22 -10 -31 -22 l-16 -23 -19 23 c-10 12 -26 22 -36 22 -15 0 -13 -5 10 -29z"/>
 <path d="M875 752 c-16 -8 -52 -21 -80 -28 -46 -11 -47 -12 -15 -12 35 0 77 12 115 35 31 18 13 23 -20 5z"/>
 <path d="M1090 760 c0 -14 50 -37 99 -45 31 -5 42 -4 37 4 -4 6 -16 11 -26 11 -10 0 -39 9 -64 20 -25 10 -46 15 -46 10z"/>
 </g>
<g id="layer110" fill="#120e0e" stroke="none">
 <path d="M917 1981 c3 -10 -2 -32 -10 -47 -8 -16 -17 -45 -21 -64 -3 -19 -16 -44 -27 -56 l-21 -22 26 -41 c15 -23 31 -41 36 -41 5 0 26 22 46 49 31 41 44 51 78 57 55 9 99 32 92 49 -2 7 -8 30 -12 49 -3 20 -10 38 -14 41 -5 3 -6 14 -3 25 5 19 0 20 -85 20 -83 0 -90 -1 -85 -19z"/>
 <path d="M1090 1820 c-8 -5 -25 -10 -37 -10 -13 0 -23 -5 -23 -11 0 -15 59 -89 71 -89 5 0 20 18 35 41 24 39 25 42 8 60 -19 21 -32 23 -54 9z"/>
 <path d="M754 869 l27 -31 -26 -34 c-24 -32 -25 -34 -6 -34 11 0 22 9 26 20 3 11 13 20 22 20 8 0 17 -9 20 -20 3 -11 14 -20 25 -20 18 0 18 2 -6 31 -27 32 -26 39 7 77 19 20 19 22 3 22 -10 0 -26 -10 -36 -22 l-19 -23 -16 23 c-9 12 -23 22 -31 22 -12 0 -9 -8 10 -31z"/>
 <path d="M1164 871 c30 -31 29 -38 -7 -78 -19 -21 -19 -23 -3 -23 10 0 27 10 37 23 l20 22 15 -22 c9 -13 23 -23 31 -23 13 0 13 3 -1 23 -28 38 -29 45 -6 77 17 24 18 30 6 30 -8 0 -22 -10 -31 -22 l-16 -23 -19 23 c-10 12 -26 22 -36 22 -15 0 -13 -5 10 -29z"/>
 </g>

</svg>