<?xml version="1.0" encoding="UTF-8" standalone="no"?>
<svg xmlns:rdf="http://www.w3.org/1999/02/22-rdf-syntax-ns#" xmlns="http://www.w3.org/2000/svg" height="200" viewBox="0 0 200 200" width="200" version="1.1" xmlns:cc="http://creativecommons.org/ns#" xmlns:dc="http://purl.org/dc/elements/1.1/">
 <path d="m17.5 198c0-6.15 4.18-16.1 9.02-21.4 4.53-4.98 4.69-5.38 5.33-13.1.362-4.37 1.58-11.3 2.72-15.3 1.83-6.51 1.92-7.96.824-12.9-.974-4.35-.978-6.83-.0203-11.7 1.13-5.77 1.04-6.7-1.35-13.7-4-11.6-4.2-16.3-1.3-25.2 1.4-4.1 2.8-11.1 3.1-15.5.8-10.2 1.9-13.8 5.9-20.5 1.8-3 3.9-8.2 4.6-11.5 3.6-16 4.7-17.4 19.3-25l11.3-5.86 10.1-.11c5.52-.0574 10.5-.395 11.1-.749.574-.355 3.03-.0460 5.46.686 2.46.741 6.66 1.12 9.47.846 4.3-.413 5.48-.121 8 1.96 1.63 1.35 5.15 2.99 7.83 3.65 11.5 2.83 19.8 9.59 23.1 18.7.975 2.7 2.83 7.67 4.13 11.1 1.3 3.38 2.85 9.68 3.46 14 .604 4.32 2.04 9.88 3.2 12.4 1.85 3.95 2.12 6.56 2.29 21.5.159 14.5-.119 18.1-1.88 24.5-1.44 5.22-1.99 9.83-1.81 15.2.143 4.33-.242 8.62-.878 9.81-.863 1.61-.782 3.7.340 8.81.809 3.68 1.77 9.7 2.14 13.4l.669 6.7 5.21 2.94c2.87 1.62 6.4 4.68 7.84 6.8 2.77 4.06 6.8 15.9 6.8 20v2.39h-166zm53.6-113c-1.02-1.02-1.86.514-1.02 1.86.630 1.02.866 1.02 1.2.004.232-.695.149-1.54-.183-1.87z" fill="#f3d8d3"/>
 <path d="m17.9 196c1.07-7.97 3.91-14.4 8.73-19.7 4.46-4.91 4.62-5.32 5.25-13.1.361-4.41 1.56-11.2 2.68-15 1.79-6.17 1.89-7.75.862-13.6-.896-5.11-.880-7.77.0683-11.7 1.14-4.74 1.02-5.72-1.59-13.4-3.49-10.3-3.65-18.7-.518-26.8 1.18-3.02 2.15-7.26 2.15-9.42.0013-9.88 3-20.3 7.96-27.6.932-1.38 2.27-5.2 2.96-8.5 2.91-13.7 6.95-20 14.6-22.5 1.94-.641 6.05-2.68 9.14-4.54 6.27-3.78 12.1-5.01 19.3-4.06 2.66.352 6.01.193 7.45-.354 1.77-.674 3.5-.650 5.37.0751 1.51.588 5.98 1.14 9.93 1.23 5.75.130 7.64.582 9.5 2.27 1.28 1.16 4.52 2.64 7.2 3.29 10.4 2.52 19.6 9.39 22.3 16.6.610 1.65 2.51 6.68 4.22 11.2 1.71 4.51 3.61 11.7 4.21 16 .606 4.29 2.15 10.5 3.43 13.8 2.17 5.6 2.31 7.16 2.02 23.5-.253 14.4-.679 18.7-2.37 23.9-1.59 4.93-1.93 7.87-1.48 12.7.363 3.89.139 7.37-.587 9.12-.926 2.23-.867 4.2.277 9.3.799 3.55 1.76 9.72 2.14 13.7.442 4.69 1.12 7.25 1.91 7.25.675 0 3.25 1.34 5.73 2.98 6.23 4.13 10.6 12.6 12.4 23.8l.658 4.25h-166zm94.4-71.5c-.138-.688.312-1.14 1-1 .688.138 1.14-.312 1-1-.138-.688.346-1.13 1.07-.975.728.151 1.06-.155.734-.681-.325-.526-.162-1.22.362-1.54 1.72-1.06 3.97-6.5 2.95-7.13-.607-.375-.558-1.09.130-1.92.796-.959.796-1.51 0-2-.796-.492-.796-1.04 0-2 .772-.930.781-1.52.0323-1.98-.586-.362-.825-1.05-.532-1.52.293-.474.0679-1.15-.5-1.5-.568-.351-.731-1.13-.362-1.72 0.4-.648.205-.798-.484-.372-.683.422-1.15.0814-1.15-.833 0-1.41-6.62-6.42-8.15-6.18-.355.0576-1.48-.599-2.5-1.46-1.95-1.64-5.04-1.93-7.04-.655-.649.413-1.47.286-1.82-.282-.351-.568-1.06-.769-1.59-.447-.521.322-.645 1.07-.276 1.67.373.604.211.801-.365.445-.570-.352-2.63.440-4.57 1.76-1.95 1.32-3.84 2.1-4.2 1.74-.366-.366-.515.0103-.331.835.185.830-.258 1.38-.991 1.23-.728-.151-1.09.106-.801.572.288.466-.110 2.07-.883 3.56-.973 1.88-1.03 2.5-.199 2.03.913-.514.909-.357-.0184.643-.968 1.04-.968 1.64 0 2.84.973 1.2.968 1.36-.0238.765-.901-.541-1.25.187-1.25 2.61 0 1.85.562 3.97 1.25 4.71.845.910.867 1.13.0682.683-1.94-1.09 1.32 4.68 4.14 7.33 2.42 2.28 2.64 2.3 6.28.793 5.04-2.09 10.9-1.98 15.2.295 4.28 2.27 4.08 2.23 3.77.702zm-15.5-9c-4.7-2.38-3.12-4.19 3.77-4.32 3.45-.0645 6.46.182 6.68.548.617.998-.691 2.63-3.14 3.92-2.77 1.46-4.2 1.43-7.32-.145zm-8.92-26c-.124-1.2-1.5-.964-1.92.325-.22.66.14 1.02.8.8s1.17-.726 1.12-1.12zm27.9.442c0-1.3-1.19-2.17-2.16-1.57-1.03.639-.142 2.4 1.21 2.4.518 0 .941-.375.941-.833zm-44.5-3c0-1.77-.419-2.31-1.48-1.9-1.12.430-1.23 1.03-.465 2.47 1.37 2.56 1.95 2.39 1.95-.569zm30.5-7.53c-.691 1.2-.479 1.17 1.06-.125 1.06-.894 2.71-1.5 3.67-1.34 1.16.190 1.75-.362 1.75-1.64 0-1.22 1.29-2.54 3.49-3.59 3.1-1.48 4.75-3.73 4.99-6.8.0421-.55-1.39-3.07-3.19-5.6s-4.43-7.15-5.86-10.3c-2.79-6.08-2.67-6.06-8.6-1.45-2.02 1.57-6.17 4-9.23 5.4-6.42 2.94-6.65 3.2-6.69 7.62-.0444 6.42 1.29 8.82 6.35 11.4 2.03 1.05 2.77 2.06 2.44 3.33-.331 1.27.0182 1.74 1.15 1.55.896-.146 2.28.239 3.07.856 1.15.895 1.27.818.609-.378-.595-1.07-.312-1.01.992.220 1.47 1.38 2.12 1.48 3.33.5 1.24-1 1.36-.955.644.280z" fill="#f1d3ce"/>
 <path d="m18 196c1.22-8.11 4.56-15.5 9.02-20 4.1-4.13 4.22-4.44 4.85-12.6.355-4.62 1.6-11.5 2.76-15.3 1.93-6.24 2.01-7.45.869-13.5-.990-5.25-.995-7.68-.0224-11.7 1.14-4.73 1.02-5.72-1.59-13.4-3.49-10.3-3.65-18.7-.518-26.8 1.18-3.02 2.15-7.52 2.16-10 .0306-7.69 2.77-18 6.38-24.1 2.05-3.44 4.13-8.92 5.15-13.6 2.82-12.9 6.24-17.6 14.7-20.5 1.81-.619 4.86-2.18 6.77-3.46 5.94-3.98 12.6-5.67 19.9-5.05 3.63.303 7.5.197 8.6-.234 1.14-.449 3.87-.228 6.37.518 2.42.723 6.43 1.06 9 .769 3.77-.435 5.28-.0965 8.13 1.83 1.92 1.3 6.2 3.19 9.5 4.21s7.61 2.67 9.57 3.66c4.33 2.19 10.1 8.38 11.6 12.5.610 1.65 2.51 6.68 4.22 11.2 1.71 4.51 3.75 12.2 4.54 17 .788 4.84 2.33 11.3 3.42 14.3 1.74 4.83 1.95 7.58 1.69 22.5-.241 13.8-.678 18.2-2.35 23.4-1.59 4.92-1.92 7.89-1.49 13.1.361 4.31.137 7.5-.627 8.93-.937 1.75-.869 3.75.319 9.43.829 3.96 1.79 10.2 2.13 13.9.559 6 .864 6.72 3.08 7.28 3.43.860 10.2 7.19 12.5 11.7 1.77 3.46 4.87 14.6 4.91 17.6.0117.990-17.3 1.25-83.1 1.25h-84.7zm84-22c.845-7.14 3.08-10.7 9.17-14.6 9.02-5.77 8.97-7.94-.0795-3.79-7.95 3.64-13.2 3.55-21.6-.402-8.25-3.86-8.07-1.91.343 3.8 6.61 4.49 8.73 7.8 9.58 15 .322 2.72.910 4.95 1.31 4.95.397 0 .985-2.23 1.31-4.95zm9.17-30.5c6.99-3.42 18.4-14 21.8-20.3 2.63-4.84 4.92-16.8 6.46-33.7.480-5.29.357-5.84-1.18-5.25-.942.362-2.07.657-2.51.657-.438 0-1.36 1.35-2.04 3-.903 2.18-1.05 6.36-.530 15.3l.712 12.3-4.04 7.91c-4.51 8.83-5.1 7.84-2.47-4.14 1.63-7.43 1.62-7.76-.5-14.3-1.19-3.71-2.17-8.17-2.17-9.92v-3.18h-5.55c-6.7 0-11-2.01-11.9-5.56-1.43-5.69 7.3-11 14-8.43 2.86 1.09 3.91-.105 3.07-3.47-.521-2.08-.952-2.25-3.84-1.55-1.79.432-4.93 1.51-6.97 2.4-4.55 1.97-4.78 1.98-4.78.136 0-1.85 4.91-4.44 10.1-5.34l3.96-.685-4.95-5.86c-4.96-5.86-11.1-17-11.1-20 0-2.32-.672-2.06-4.82 1.86-2.03 1.92-8.18 5.69-13.7 8.39-11.9 5.84-17.9 10-20.5 14.4-1.08 1.77-1.96 3.51-1.97 3.87-.0021.359 2.09.0212 4.66-.75 2.56-.771 6.72-1.39 9.25-1.38 5.4.0258 13.1 3.21 13.1 5.43 0 1.94-1.9 1.94-4.47-.0034-3.8-2.87-9.4-3.7-16.2-2.41-6.34 1.2-6.39 1.23-6.09 4.33.261 2.69.656 3.08 2.8 2.82 1.38-.167 3.47-.392 4.65-.5s1.95-.530 1.7-.939c-.253-.409.578-.768 1.85-.798 9.69-.232 11.7-.0907 13.7.967 2.54 1.36 4.46 5.55 3.64 7.96-.303.890-1.7 2.45-3.11 3.48-3.63 2.64-16.8 2.47-20.5-.263l-2.58-1.9-1.85 5.46-1.85 5.46 2.77 5.47c2.25 4.44 2.7 6.46 2.36 10.7-.224 2.87-.747 5.97-1.16 6.88-.965 2.12 10.3 14.3 17.5 18.9 10.3 6.61 15.8 7.15 25.4 2.49zm-16.9-14c-5.09-3.53-5.3-4.51-1.35-6.37 5.2-2.46 18.8-.792 18.8 2.3 0 1.41-9.15 6.86-11.4 6.82-1.13-.0183-3.82-1.26-5.97-2.75zm2.5-15.8c-4.56-1.97-2.91-3.57 3.91-3.8 5.52-.184 7.11.750 4.89 2.86-2.3 2.18-5.2 2.49-8.79.939zm-8.3-25.3c-.618-1.85-2.77-2.16-2.77-.396 0 .871.712 1.58 1.58 1.58.871 0 1.41-.534 1.19-1.19zm27.2-.396c0-1.77-2.15-1.46-2.77.396-.218.653.317 1.19 1.19 1.19.871 0 1.58-.712 1.58-1.58zm-44.8-4.1c-.283-.283-.995-.217-1.58.147-.745.460-.696 1.32.161 2.85l1.23 2.19.353-2.34c.194-1.28.121-2.57-.161-2.85zm67.4-1.85c0-1.22-2.87-7.27-3.69-7.78-1.31-.811-.252 6.68 1.07 7.54 1.32.868 2.62.983 2.62.233z" fill="#e9c2bc"/>
 <path d="m17.6 200c.0356-3.01 3.14-14.1 4.92-17.6 1.07-2.1 3.47-5.16 5.34-6.8 3.2-2.81 3.43-3.45 4.03-11.2.349-4.52 1.6-11.5 2.79-15.4 1.96-6.55 2.04-7.77.896-13.6-1-5.08-1.01-7.41-.0159-11.5 1.15-4.79 1.04-5.81-1.51-13.6-3.57-11-3.74-19.5-.540-26.5 1.48-3.23 2.24-6.63 2.14-9.61-.259-7.51 2.58-18.8 6.27-24.9 3.13-5.17 4.64-9.52 6.24-18 1.37-7.28 7.01-14.1 13.3-16.1 1.97-.625 5.61-2.38 8.08-3.91 7.26-4.47 10.3-5.04 24-4.41 6.87.316 15 .525 18.1.465 4.29-.0847 6.36.422 9 2.2 1.89 1.27 6.29 3.17 9.78 4.22s8.31 3.15 10.7 4.67c4.05 2.57 10.4 9.97 10.4 12.1 0 .513 1.4 4.38 3.11 8.6s3.93 12.2 4.94 17.7 2.72 12.5 3.81 15.5c1.74 4.83 1.94 7.56 1.65 22.5-.265 13.7-.720 18.2-2.38 23.4-1.54 4.81-1.9 7.87-1.46 12.1.353 3.38.106 7.14-.614 9.32-.979 2.97-.920 4.93.313 10.4.836 3.71 1.65 9.6 1.82 13.1.293 6.2.376 6.37 3.81 7.8 7.47 3.12 13.1 10.9 15.1 20.6.573 2.91 1.26 6.3 1.52 7.53l.473 2.25h-83c-65.8 0-83-.260-83-1.25zm84.4-26c1.02-7.43 3.28-11 9.68-15.1 3.22-2.09 6.06-4.58 6.32-5.55.575-2.2.869-2.24-5.5.730-7.4 3.45-16.3 3.44-23.7-.0213-2.97-1.38-5.63-2.28-5.91-2-.835.835 2.74 4.28 7.86 7.56 5.25 3.37 7.63 7.34 8.59 14.4.345 2.52.956 4.58 1.36 4.58 0.4 0 1.01-2.06 1.36-4.58zm9.14-30.3c10.1-4.82 22.1-15.3 24.4-21.3.517-1.36 1.24-5.14 1.61-8.41.368-3.26 1.57-10.5 2.68-16.1 1.89-9.56 1.91-10.5.433-15.6-1.53-5.27-4.88-10.7-5.94-9.66-.287.286-.273 2.38.0322 4.65.389 2.9 1.19 4.43 2.69 5.12 2.09.973 2.08 1.01-.533 2.04-4.07 1.61-4.69 5.64-3.33 21.7l.762 9.01-4.08 7.99c-4.36 8.53-5.58 7.65-2.67-1.92 1.89-6.22 1.88-12.7-.0216-19-.819-2.7-1.49-6.19-1.49-7.75 0-2.32-.432-2.84-2.38-2.84-1.31 0-3.73-.270-5.38-.601-2.34-.467-2.89-1.02-2.51-2.5.561-2.15-2.26-2.75-3.02-.649-.246.688-.725.995-1.07.684-1.13-1.03 1.73-7 3.11-6.47.721.277 1.58-.190 1.9-1.04.325-.847 1.21-1.3 1.96-1.01.754.289 1.37.0401 1.37-.554 0-.696 1.33-.850 3.75-.432 2.71.468 3.33.364 2.25-.373-.825-.562-1-1.03-.389-1.04 1.48-.0204.495-5.04-1.11-5.65-1.07-.412-8.4 1.77-13.7 4.09-1.25.543-1.75.308-1.75-.821 0-2.07 4.83-4.51 10.5-5.29 2.48-.341 4.51-.895 4.5-1.23-.01-.338-2.78-3.76-6.15-7.6-6.02-6.85-10.8-15.2-10.8-18.9-.008-1.55-.646-1.29-3.78 1.54-2.2 1.99-7.73 4.98-13.2 7.17-12 4.75-19.6 10-23.4 16-1.6 2.57-2.65 4.92-2.35 5.23.305.305 2.93-.152 5.83-1.01 7.12-2.12 13.2-1.97 17.9.418 3.83 1.95 5.66 3.71 4.78 4.6-.246.246-3.07-.752-6.27-2.22-5.61-2.57-6.1-2.62-13.3-1.51-8.75 1.36-9.23 1.59-9.21 4.46.0264 3.77 1.29 4.82 4.55 3.78 4.82-1.53 13.4-2.27 13.4-1.16 0 .552.617.766 1.37.477.754-.289 1.64.167 1.96 1.01.325.847 1.18 1.31 1.9 1.04 1.38-.528 4.24 5.44 3.11 6.47-.341.311-.820.0034-1.07-.684-.767-2.15-3.58-1.49-3 .705.433 1.66-.156 2.05-3.88 2.61-6.7 1-10.9-.179-13.8-3.85l-2.53-3.21-.0111 2.78c-.0061 1.53-.686 4.4-1.51 6.37-2.13 5.11-1.9 6.98 1.59 12.6 3.17 5.16 3.27 6.21 1.36 15.4-.528 2.55-.115 3.9 2.07 6.76 3.61 4.73 13.5 12.1 21 15.7 7.86 3.74 13.1 3.74 21-.005zm-16.6-14c-2.03-1.07-3.95-2.38-4.28-2.91-.782-1.26 4.72-4.09 7.67-3.93 1.92.0986 1.8.245-0.7.882l-3 .763 2.69.118c1.48.0651 2.97-.332 3.31-.882.919-1.49 5.19-1.21 8.61.558l3.01 1.56-2.31 1.79c-5.97 4.63-9.27 5.08-15 2.06zm11.1-1.87c.863-.547-1.17-.886-5.44-.911-4.47-.0258-6.32.274-5.38.872 1.83 1.16 9.01 1.19 10.8.0393zm.393-3.75c-.677-.274-2.03-.291-3-.037-.973.254-.419.478 1.23.498 1.65.0204 2.45-.187 1.77-.461zm-9.52-10.4c-3.26-1.9-1.77-2.92 4.25-2.92 6.41 0 7.58.961 3.45 2.84-3.09 1.41-5.38 1.43-7.7.0804zm-24.8-27.4c0-1.56-.567-2.5-1.5-2.5-1.77 0-1.85.482-.465 3.07 1.39 2.6 1.96 2.43 1.96-.566zm63.3-15.2c0-.243-.45-.719-1-1.06-.55-.340-1-.141-1 .441s.45 1.06 1 1.06 1-.198 1-.441zm-11-12.9c0-.208-.788-.995-1.75-1.75-1.59-1.24-1.62-1.21-.378.378 1.31 1.67 2.13 2.2 2.13 1.37z" fill="#dca7a3"/>
 <path d="m18 199c.260-1.24.942-4.63 1.52-7.53 1.37-6.92 4.14-12.2 8.33-15.9 3.21-2.82 3.44-3.46 4.1-11.4.383-4.63 1.64-11.6 2.78-15.4 1.87-6.27 1.96-7.64.870-13.2-.951-4.81-.954-7.34-.0143-11.5 1.11-4.96.989-6.03-1.55-13.8-3.53-10.9-3.73-19.5-.636-26.4 1.47-3.29 2.35-7.6 2.63-13 .506-9.5 2.38-16.2 6.05-21.8 2.75-4.15 4.83-10.3 5.97-17.5 1.18-7.46 7.4-14.7 14.5-16.8 1.36-.410 4.5-2 6.98-3.52 7.25-4.48 10.3-5.04 24-4.42 6.87.316 15 .525 18.1.465 4.29-.0847 6.36.422 9 2.2 1.89 1.27 6.29 3.17 9.78 4.22s8.31 3.15 10.7 4.67c4.05 2.57 10.4 9.97 10.4 12.1 0 .513 1.4 4.38 3.11 8.6s3.93 12.2 4.94 17.7c1 5.5 2.72 12.5 3.82 15.5 1.76 4.86 1.95 7.45 1.63 22.5-.290 13.6-.773 18.3-2.39 23.4-1.51 4.79-1.88 7.89-1.44 12.1.353 3.38.106 7.14-.614 9.32-.979 2.97-.920 4.93.313 10.4.836 3.71 1.65 9.6 1.82 13.1.293 6.2.375 6.37 3.81 7.8 8.34 3.47 14.5 13 15.7 24.3l.631 6.04h-168zm84-25c.847-6.39 3.89-10.7 10.9-15.6 5.62-3.87 5.72-4.02 5.72-8.75 0-5.68-.961-5.98-9-2.81-6.42 2.53-11.6 2.53-18.2.0005-8.44-3.21-9.32-2.92-8.92 2.95.324 4.67.611 5.13 5.02 7.96 7.71 4.95 10.1 8.11 11.4 15 .641 3.37 1.45 6.13 1.81 6.13.353 0 .934-2.2 1.29-4.88zm4.88-27.6c16.4-5.85 33-23.5 31.1-33.2-.413-2.2.188-7.72 1.6-14.7 2.46-12.2 2.15-15.7-1.99-22.4-2.31-3.76-4.56-4.38-3.66-1 .332 1.24.609 3.19.617 4.35.008 1.19.987 2.55 2.26 3.14l2.25 1.04-2.66 1.05c-4.05 1.6-4.66 5.5-3.38 21.7l.712 9-4.01 8c-4.3 8.59-5.55 7.64-2.61-2 2.02-6.62 2.04-11.8.072-18.4-.890-2.99-1.62-6.7-1.62-8.25 0-2.48-.370-2.82-3.07-2.82-3.8 0-6.93-1.6-6.93-3.54 0-.806-.675-1.46-1.5-1.46s-1.5.45-1.5 1-.440 1-.979 1c-.597 0-.537-.969.154-2.49 1.29-2.84 8.15-6.51 12.1-6.51 2.91 0 2.99-.205 2.06-4.88-.751-3.75-2.24-3.93-9.61-1.13-5.75 2.19-7.76 2.47-7.76 1.11 0-1.33 6.75-4.27 11.1-4.86 2.12-.285 3.86-.813 3.86-1.17 0-.361-2.76-3.77-6.14-7.58-5.99-6.75-10.8-15.1-10.8-18.8-.008-1.51-.720-1.22-4.03 1.62-2.21 1.89-7.91 4.95-12.7 6.78-17.2 6.64-25.4 14-26 23.2-.472 6.59.457 8.11 4.12 6.72 7.16-2.72 19.1.324 21.4 5.48 1.31 2.87.494 3.3-1.39.735-1.19-1.61-1.36-1.55-2.28.864-1.15 3.01-2.91 3.89-7.78 3.89-4.29 0-8.93-2.31-10.5-5.22-1.1-2.06-1.27-1.87-2.54 2.76-2.81 10.3-2.79 10.9.539 16.8 3.46 6.05 3.92 10.1 1.52 13.5-2.29 3.27-.484 6.96 6.56 13.4 8.96 8.22 20.8 14.7 27 14.7 1.38 0 4.19-.605 6.27-1.34zm-14.3-18c-2.87-2.12-3.06-2.53-1.56-3.36 1.03-.576 3.24-.610 5.57-.085 2.19.492 5.55.492 7.73 0 2.4-.540 4.54-.491 5.65.129 1.57.881 1.33 1.27-2.12 3.36-5.2 3.15-11 3.14-15.3-.0387zm12.9-.0901c2.34-1.34 2.04-1.43-4.75-1.46-7.58-.0371-8.76.420-5 1.93 3.3 1.33 6.91 1.15 9.75-.469zm-18.4-53.3c-5.11-2.76-9.37-3.28-16.2-1.94-6.88 1.35-8.98.756-3.2-.910 7.64-2.2 13.1-2.39 17.8-.625 4.53 1.73 7.31 4.04 5.88 4.88-.439.261-2.36-.373-4.28-1.41zm-16.1 11.6c0-1.56-.567-2.5-1.5-2.5-1.77 0-1.85.482-.465 3.07 1.39 2.6 1.96 2.43 1.96-.566zm61-17.5c-2.75-3.86-3.4-3.86-1.2-.0063.937 1.65 2.07 3 2.52 3 .450.0035-.143-1.34-1.32-2.99zm-8-9.35c0-.190-1.01-1.2-2.25-2.25l-2.25-1.9 1.9 2.25c1.79 2.11 2.6 2.71 2.6 1.9z" fill="#e86e9d"/>
 <path d="m18 199c.260-1.24.942-4.63 1.52-7.53 1.37-6.92 4.14-12.2 8.33-15.9 3.21-2.82 3.44-3.46 4.1-11.4.383-4.63 1.64-11.6 2.78-15.4 1.87-6.27 1.96-7.64.870-13.2-.951-4.81-.954-7.34-.0143-11.5 1.11-4.96.989-6.03-1.55-13.8-3.53-10.9-3.73-19.5-.636-26.4 1.47-3.29 2.35-7.6 2.63-13 .506-9.5 2.38-16.2 6.05-21.8 2.75-4.15 4.83-10.3 5.97-17.5 1.18-7.46 7.4-14.7 14.5-16.8 1.36-.410 4.5-2 6.98-3.52 7.25-4.48 10.3-5.04 24-4.42 6.87.316 15 .525 18.1.465 4.29-.0847 6.36.422 9 2.2 1.89 1.27 6.29 3.17 9.78 4.22s8.31 3.15 10.7 4.67c4.05 2.57 10.4 9.97 10.4 12.1 0 .513 1.4 4.38 3.11 8.6s3.93 12.2 4.94 17.7c1 5.5 2.72 12.5 3.82 15.5 1.76 4.86 1.95 7.45 1.63 22.5-.290 13.6-.773 18.3-2.39 23.4-1.51 4.79-1.88 7.89-1.44 12.1.353 3.38.106 7.14-.614 9.32-.979 2.97-.920 4.93.313 10.4.836 3.71 1.65 9.6 1.82 13.1.293 6.2.375 6.37 3.81 7.8 8.34 3.47 14.5 13 15.7 24.3l.631 6.04h-168zm84-25c.847-6.39 3.89-10.7 10.9-15.6 5.62-3.87 5.72-4.02 5.72-8.75 0-5.68-.961-5.98-9-2.81-6.42 2.53-11.6 2.53-18.2.0005-8.44-3.21-9.32-2.92-8.92 2.95.324 4.67.611 5.13 5.02 7.96 7.71 4.95 10.1 8.11 11.4 15 .641 3.37 1.45 6.13 1.81 6.13.353 0 .934-2.2 1.29-4.88zm4.88-27.6c16.4-5.85 33-23.5 31.1-33.2-.413-2.2.188-7.72 1.6-14.7 2.46-12.2 2.15-15.7-1.99-22.4-2.31-3.76-4.56-4.38-3.66-1 .332 1.24.609 3.19.617 4.35.008 1.19.987 2.55 2.26 3.14l2.25 1.04-2.66 1.05c-4.05 1.6-4.66 5.5-3.38 21.7l.712 9-4.01 8c-4.3 8.59-5.55 7.64-2.61-2 2.02-6.62 2.04-11.8.072-18.4-.890-2.99-1.62-6.7-1.62-8.25 0-2.48-.370-2.82-3.07-2.82-3.8 0-6.93-1.6-6.93-3.54 0-.806-.675-1.46-1.5-1.46s-1.5.45-1.5 1-.440 1-.979 1c-.597 0-.537-.969.154-2.49 1.29-2.84 8.15-6.51 12.1-6.51 2.91 0 2.99-.205 2.06-4.88-.751-3.75-2.24-3.93-9.61-1.13-5.75 2.19-7.76 2.47-7.76 1.11 0-1.33 6.75-4.27 11.1-4.86 2.12-.285 3.86-.813 3.86-1.17 0-.361-2.76-3.77-6.14-7.58-5.99-6.75-10.8-15.1-10.8-18.8-.008-1.51-.720-1.22-4.03 1.62-2.21 1.89-7.91 4.95-12.7 6.78-17.2 6.64-25.4 14-26 23.2-.472 6.59.457 8.11 4.12 6.72 7.16-2.72 19.1.324 21.4 5.48 1.31 2.87.494 3.3-1.39.735-1.19-1.61-1.36-1.55-2.28.864-1.15 3.01-2.91 3.89-7.78 3.89-4.29 0-8.93-2.31-10.5-5.22-1.1-2.06-1.27-1.87-2.54 2.76-2.81 10.3-2.79 10.9.539 16.8 3.46 6.05 3.92 10.1 1.52 13.5-2.29 3.27-.484 6.96 6.56 13.4 8.96 8.22 20.8 14.7 27 14.7 1.38 0 4.19-.605 6.27-1.34zm-19.4-71.3c-5.11-2.76-9.37-3.28-16.2-1.94-6.88 1.35-8.98.756-3.2-.910 7.64-2.2 13.1-2.39 17.8-.625 4.53 1.73 7.31 4.04 5.88 4.88-.439.261-2.36-.373-4.28-1.41zm-16.1 11.6c0-1.56-.567-2.5-1.5-2.5-1.77 0-1.85.482-.465 3.07 1.39 2.6 1.96 2.43 1.96-.566zm61-17.5c-2.75-3.86-3.4-3.86-1.2-.0063.937 1.65 2.07 3 2.52 3 .450.0035-.143-1.34-1.32-2.99zm-8-9.35c0-.190-1.01-1.2-2.25-2.25l-2.25-1.9 1.9 2.25c1.79 2.11 2.6 2.71 2.6 1.9z" fill="#a59898"/>
 <path d="m18 199c.264-1.24.968-4.78 1.56-7.88 1.2-6.24 5.56-13.9 9.32-16.4 2.17-1.42 2.53-2.58 3.17-10.3.398-4.79 1.69-12.1 2.88-16.2 1.93-6.71 2.02-8.03.877-12.5-.997-3.91-1.03-6.44-.128-11.6 1.07-6.14.966-7.15-1.5-14.5-3.71-11.2-3.66-20.4.152-27.9.842-1.65 1.66-6.16 1.83-10 .425-10.1 2.01-16.1 5.96-22.6 2.21-3.63 4.24-9.04 5.62-15 2.81-12 4.83-14.3 19.2-21.6l11.2-5.66 12.5.150c25.2.302 27.3.491 30.5 2.79 1.66 1.18 5.02 2.69 7.47 3.35 7.25 1.95 15.6 6.66 18.9 10.7 1.69 2.06 3.94 6.24 4.98 9.29 1.05 3.05 2.87 8.15 4.04 11.3 1.18 3.18 2.42 8.58 2.76 12 .341 3.42 1.78 9.15 3.19 12.7 1.83 4.63 2.54 8.23 2.47 12.5-.0538 3.3-.0681 8.92-.0318 12.5.132 13-0.2 16.3-2.27 23.2-1.62 5.35-1.96 8.27-1.45 12.8.405 3.58.208 7.2-.511 9.38-.937 2.84-.860 5.05.384 11.1.855 4.14 1.55 10 1.55 13.1v5.53l4.9 2.48c2.69 1.37 6.31 4.19 8.03 6.27 3.39 4.1 7.07 14.4 7.07 19.9v3.39h-166zm84.2-24.8c.874-6.59 3.68-10.6 10.7-15.2 5.68-3.76 5.71-3.81 5.71-8.75 0-5.86-.913-6.16-9-2.97-6.42 2.53-11.6 2.53-18.2.0005-2.89-1.1-6.17-2-7.29-2-1.84-.00045-1.98.469-1.5 5.08.503 4.84.784 5.25 6 8.75 6.74 4.52 9.64 8.69 10.5 15.2.377 2.74 1.08 4.99 1.56 4.99.479 0 1.17-2.27 1.54-5.05zm4.66-27.4c16.4-5.83 33.1-23.6 31.3-33.3-.386-2.06.231-7.9 1.54-14.6 1.8-9.2 1.99-11.9 1.07-15.2-1.34-4.79-4.7-10.5-6.18-10.5s-.631 7.97.952 8.95c1.62 1 1.49 1.64-.782 3.92-2.48 2.48-3.41 9.39-2.16 16 1.79 9.41 1.32 13-2.68 20.8-2.04 3.96-3.9 7.02-4.12 6.79-.229-.229.566-4.26 1.77-8.97l2.18-8.55-2.06-7.5c-1.13-4.13-2.06-8.62-2.06-9.99 0-1.91-.523-2.49-2.25-2.5-4.74-.0288-6.84-1.21-7.43-4.15-.553-2.77-.670-2.82-2.45-1.22-1.03.930-1.87 1.25-1.87.710 0-2.81 7.75-7.33 12.6-7.33 2.65 0 2.74-.238 1.81-4.88-.769-3.84-3.26-4.09-10.4-1.02-2.69 1.16-5.47 1.9-6.19 1.65-2.09-.719 5.16-4.63 9.92-5.34 2.36-.353 4.28-.974 4.28-1.38s-2.7-3.79-5.99-7.53c-5.76-6.53-11-15.6-11-19 0-1.23-.972-.810-3.9 1.69-2.14 1.83-7.78 4.84-12.5 6.69-11.1 4.31-19.7 9.91-23.6 15.3-2.7 3.73-3.05 4.95-2.79 9.8.323 6.1-.336 5.76 8.47 4.42 2.3-.348 5.77-.334 7.72.0320 3.64.683 9.61 4.93 9.61 6.83 0 .586-.841.305-1.87-.624-1.78-1.61-1.9-1.55-2.46 1.29-.495 2.47-1.22 3.1-4.23 3.66-4.89.917-11.1-1.06-13.1-4.22l-1.67-2.56-1.4 4.85c-2.73 9.48-2.67 10.9.648 16.7 3.45 6.03 3.9 10.1 1.51 13.5-2.29 3.27-.484 6.96 6.56 13.4 8.96 8.22 20.8 14.7 27 14.7 1.38 0 4.19-.605 6.27-1.34zm-21-73.3c-3.91-1.92-11.5-2.08-19.5-.416-1.38.284-.475-.168 2-1 7.68-2.6 12.6-2.89 17.4-1.04 4.59 1.75 8.11 4.66 5.45 4.5-.755-.0445-3.17-.963-5.37-2.04zm-14 12.6c0-3.62-2.03-4.88-3.15-1.96-.428 1.11 2.01 5.46 3.06 5.46.0523 0 .0950-1.58.0950-3.5zm54.5-1.5c0-.55-.477-1-1.06-1-.582 0-.781.45-.441 1s.816 1 1.06 1c.243 0 .441-.45.441-1zm7.13-14.8c-.518-.969-1.94-2.66-3.15-3.75-2.15-1.94-2.14-1.89.157 1.72 2.37 3.72 4.76 5.34 2.99 2.03zm-10.8-12.7c-3.68-4.4-4.34-5.01-4.34-4 0 .638 7.09 8.5 7.67 8.5.238 0-1.26-2.02-3.33-4.5z" fill="#b7827a"/>
 <path d="m18.6 198c.0305-8.35 5.16-19.8 10.4-23.3 2.1-1.38 2.47-2.61 3.11-10.3.398-4.79 1.69-12.1 2.88-16.2 1.93-6.71 2.02-8.03.877-12.5-.997-3.91-1.03-6.44-.128-11.6 1.07-6.14.966-7.15-1.5-14.5-3.71-11.2-3.66-20.4.152-27.9.842-1.65 1.66-6.16 1.83-10 .425-10.1 2.01-16.1 5.96-22.6 2.21-3.63 4.24-9.04 5.62-15 2.81-12 4.83-14.3 19.2-21.6l11.2-5.66 12.5.150c25.2.302 27.3.491 30.5 2.79 1.66 1.18 5.02 2.69 7.47 3.35 7.25 1.95 15.6 6.66 18.9 10.7 1.69 2.06 3.94 6.24 4.98 9.29 1.05 3.05 2.87 8.15 4.04 11.3 1.18 3.18 2.42 8.58 2.76 12 .341 3.42 1.78 9.15 3.19 12.7 1.83 4.63 2.54 8.23 2.47 12.5-.0538 3.3-.0681 8.92-.0318 12.5.132 13-0.2 16.3-2.27 23.2-1.62 5.35-1.96 8.27-1.45 12.8.405 3.58.208 7.2-.511 9.38-.937 2.84-.860 5.05.384 11.1.855 4.14 1.55 10 1.55 13.1v5.53l4.9 2.48c2.69 1.37 6.31 4.19 8.03 6.27 3.39 4.1 7.07 14.4 7.07 19.9v3.39h-164zm83.6-23.8c.874-6.59 3.68-10.6 10.7-15.2 4.97-3.29 5.71-4.2 5.74-7 .0562-7.6 1.57-10.6 8.75-17.2 8.26-7.65 11.9-14.9 10.8-21.5-.402-2.52.132-7.49 1.46-13.6 2.36-10.9 2.06-15.7-1.36-21.8-3.18-5.62-4.94-5.85-4.45-.595.215 2.3.955 4.54 1.65 4.97 1.62 1 1.49 1.64-.782 3.92-2.48 2.48-3.41 9.39-2.16 16 1.75 9.24 1.3 12.8-2.67 20.7-2.03 4.06-3.89 7.18-4.12 6.95-.235-.235.554-4.28 1.75-8.98l2.18-8.55-2.06-7.5c-1.13-4.13-2.06-8.62-2.06-9.99 0-1.91-.523-2.49-2.25-2.5-4.74-.0288-6.84-1.21-7.43-4.15-.553-2.77-.670-2.82-2.45-1.22-1.03.930-1.87 1.25-1.87.710 0-2.81 7.75-7.33 12.6-7.33 2.65 0 2.74-.238 1.81-4.88-.769-3.84-3.26-4.09-10.4-1.02-2.69 1.16-5.47 1.9-6.19 1.65-2.09-.719 5.16-4.63 9.92-5.34 2.36-.353 4.28-.974 4.28-1.38s-2.7-3.79-5.99-7.53c-5.76-6.53-11-15.6-11-19 0-1.23-.972-.811-3.9 1.69-2.15 1.83-6.76 4.42-10.2 5.76-10.4 3.99-17.1 7.61-22 11.9-5.58 4.92-7.11 8.29-6.7 14.7.341 5.37-.256 5.1 8.48 3.78 2.3-.348 5.77-.334 7.72.0320 3.64.683 9.61 4.93 9.61 6.83 0 .586-.841.305-1.87-.624-1.78-1.61-1.9-1.55-2.46 1.29-.495 2.47-1.22 3.1-4.23 3.66-4.89.917-11.1-1.06-13.1-4.22l-1.67-2.56-1.4 4.85c-2.73 9.48-2.67 10.9.648 16.7 3.58 6.25 3.88 9.98 1.16 14.1-1.72 2.61-1.78 3.22-.532 5.63.768 1.49 4.32 5.38 7.9 8.66 6.39 5.86 6.52 6.08 7.69 13.1l1.19 7.19 5.58 3.72c6.84 4.57 9.73 8.71 10.6 15.2.377 2.74 1.08 4.99 1.56 4.99.479 0 1.17-2.27 1.54-5.05zm-16-100c-3.91-1.92-11.5-2.08-19.5-.416-1.38.284-.475-.168 2-1 7.68-2.6 12.6-2.89 17.4-1.04 4.59 1.75 8.11 4.66 5.45 4.5-.755-.0445-3.17-.963-5.37-2.04zm-14 12.6c0-3.62-2.03-4.88-3.15-1.96-.428 1.11 2.01 5.46 3.06 5.46.0523 0 .0950-1.58.0950-3.5zm54.5-1.5c0-.55-.477-1-1.06-1-.582 0-.781.45-.441 1s.816 1 1.06 1c.243 0 .441-.45.441-1zm7.13-14.8c-.518-.969-1.94-2.66-3.15-3.75-2.15-1.94-2.14-1.89.157 1.72 2.37 3.72 4.76 5.34 2.99 2.03zm-10.8-12.7c-3.68-4.4-4.34-5.01-4.34-4 0 .638 7.09 8.5 7.67 8.5.238 0-1.26-2.02-3.33-4.5z" fill="#a4726a"/>
 <path d="m19 196c1.19-9.42 3.55-14.8 8.6-19.8l4.7-4.58.580-9.46c.319-5.2 1.47-12.2 2.55-15.5 1.78-5.46 1.84-6.54.627-11.2-1.3-5.03-1.04-11 .618-14.3.503-.986-.306-5.05-2.14-10.8-3.9-11.8-4-19-.5-27.8 1.42-3.56 2.36-7.07 2.08-7.8-1.39-3.61 1.41-16.3 5.3-24.1 3.98-7.94 6.24-14.5 7.49-21.8.882-5.13 6.45-11.1 12.4-13.3 2.58-.950 5.38-2.31 6.22-3.02.845-.711 3.75-2.27 6.46-3.47 4.24-1.88 6.6-2.16 17-2.05 22.9.239 27 .622 30.1 2.83 1.6 1.13 5.96 3.05 9.69 4.27 9.94 3.28 15.6 7.47 18.9 14.1 4.76 9.5 8.83 21.6 9.79 29.2.511 4.01 2.13 10.7 3.61 14.8 2.25 6.31 2.56 8.37 1.94 13-.404 3.02-.712 6.18-.684 7 .492 14.5.131 19-2.08 26.1-1.47 4.68-2.09 8.3-1.62 9.5 1.13 2.9 1.04 8.24-.212 12.4-.881 2.94-.776 5.2.5 10.8.888 3.9 1.62 9.71 1.62 12.9l.004 5.8 4.51 1.85c8.24 3.39 13.5 11.9 15.1 24.4l.665 5.25h-167zm83-19c.254-1.24.732-3.94 1.06-6 .728-4.53 3.39-7.74 9.99-12 4.9-3.18 5-3.35 6.5-10.9 1.46-7.37 1.73-7.84 6.53-11.6 9.53-7.56 12.5-13.3 12.5-24.1 0-4.39.716-11.1 1.59-14.8 2.91-12.5.796-18.8-10.8-32.4-4-4.68-8.53-10.1-10.1-12l-2.8-3.46 1.8 3.33c.993 1.83 4.63 6.56 8.09 10.5 3.45 3.94 6.61 7.58 7.01 8.08.401.501.568 2.61.370 4.69-.218 2.28.236 4.63 1.15 5.93 1.36 1.95 1.33 2.33-.329 3.99-2.51 2.51-3.37 9.41-2.07 16.5 1.67 9.02 1.37 11.3-2.58 19.7-2.01 4.29-3.8 7.66-3.97 7.5-.168-.168.633-4.28 1.78-9.14l2.08-8.84-2.12-7.73c-1.17-4.25-2.12-8.66-2.12-9.8 0-1.68-.835-2.19-4.5-2.74-3.94-.591-4.6-1.05-5.29-3.7-.767-2.96-.827-2.99-2.66-1.15-1.31 1.31-1.73 1.43-1.39.393.766-2.33 6.49-5.75 10.9-6.49 4.12-.697 4.6-1.58 3.35-6.25-.724-2.7-3.91-2.91-9.87-.640-7.49 2.85-8.18 2.96-6.62 1.05 1.63-1.98 11.6-5.09 13.7-4.27 2.33.895-.0981-3.01-5.85-9.39-4.65-5.16-10.7-15.8-10.7-18.9-.00048-.821-1.32-.192-3.36 1.6-1.85 1.62-6.91 4.43-11.2 6.23-16 6.64-23.7 11.8-27 18.2-1.51 2.92-1.82 11-.540 14.3.640 1.63.847 1.69 1.36.354.819-2.13 9.37-3.23 14.5-1.85 4.21 1.13 9.27 4.52 9.27 6.22 0 .549-.771.227-1.71-.715-1.62-1.62-1.76-1.55-2.49 1.3-.641 2.47-1.42 3.12-4.39 3.6-5.31.861-9.14-.225-12.2-3.46-2.89-3.06-4.48-3.73-3.63-1.52.284.740-.173 3.33-1.02 5.75-2.25 6.46-1.92 9.85 1.44 14.9 3.56 5.36 3.73 7.94.839 13.1l-2.16 3.84 2.66 4.02c1.46 2.21 5.02 5.88 7.91 8.15 5.73 4.52 6.5 6.04 6.65 13.2.0942 4.51.356 4.95 4.76 8 10.3 7.11 11.2 8.44 12.8 18 0.7 4.17 2.25 4.96 2.96 1.5zm-15.9-103c-3.26-1.72-5.15-1.99-11-1.58-7.33.514-6.31-.570 1.66-1.76 3.48-.523 5.63-.179 9.63 1.54 2.83 1.22 5.15 2.61 5.15 3.09 0 1.28-1.03 1.03-5.44-1.29zm-14.1 12.6c0-3.62-2.03-4.88-3.15-1.96-.428 1.11 2.01 5.46 3.06 5.46.0523 0 .0950-1.58.0950-3.5zm54.5-1.5c0-.55-.477-1-1.06-1-.582 0-.781.45-.441 1s.816 1 1.06 1c.243 0 .441-.45.441-1z" fill="#5f6ca1"/>
 <path d="m19 196c1.19-9.42 3.55-14.8 8.6-19.8l4.7-4.58.580-9.46c.319-5.2 1.47-12.2 2.55-15.5 1.78-5.46 1.84-6.54.627-11.2-1.3-5.03-1.04-11 .618-14.3.503-.986-.306-5.05-2.14-10.8-3.9-11.8-4-19-.5-27.8 1.42-3.56 2.36-7.07 2.08-7.8-1.39-3.61 1.41-16.3 5.3-24.1 3.98-7.94 6.24-14.5 7.49-21.8.882-5.13 6.45-11.1 12.4-13.3 2.58-.950 5.38-2.31 6.22-3.02.845-.711 3.75-2.27 6.46-3.47 4.24-1.88 6.6-2.16 17-2.05 22.9.239 27 .622 30.1 2.83 1.6 1.13 5.96 3.05 9.69 4.27 9.94 3.28 15.6 7.47 18.9 14.1 4.76 9.5 8.83 21.6 9.79 29.2.511 4.01 2.13 10.7 3.61 14.8 2.25 6.31 2.56 8.37 1.94 13-.404 3.02-.712 6.18-.684 7 .492 14.5.131 19-2.08 26.1-1.47 4.68-2.09 8.3-1.62 9.5 1.13 2.9 1.04 8.24-.212 12.4-.881 2.94-.776 5.2.5 10.8.888 3.9 1.62 9.71 1.62 12.9l.004 5.8 4.51 1.85c8.24 3.39 13.5 11.9 15.1 24.4l.665 5.25h-167zm83-19c.254-1.24.732-3.94 1.06-6 .728-4.53 3.39-7.74 9.99-12 4.9-3.18 5-3.35 6.5-10.9 1.46-7.37 1.73-7.84 6.53-11.6 9.53-7.56 12.5-13.3 12.5-24.1 0-4.39.716-11.1 1.59-14.8 2.91-12.5.796-18.8-10.8-32.4-4-4.68-8.53-10.1-10.1-12l-2.8-3.46 1.8 3.33c.993 1.83 4.63 6.56 8.09 10.5 3.45 3.94 6.61 7.58 7.01 8.08.401.501.568 2.61.370 4.69-.218 2.28.236 4.63 1.15 5.93 1.36 1.95 1.33 2.33-.329 3.99-2.51 2.51-3.37 9.41-2.07 16.5 1.67 9.02 1.37 11.3-2.58 19.7-2.01 4.29-3.8 7.66-3.97 7.5-.168-.168.633-4.28 1.78-9.14l2.08-8.84-2.12-7.73c-1.17-4.25-2.12-8.69-2.12-9.86 0-1.51-.657-2.16-2.25-2.25-2.04-.105-2.07-.162-.25-.616 2.53-.633 3.47-2.08 3.48-5.4.0106-1.82-.617-2.8-2.04-3.17-1.69-.441-1.85-.283-.878.883.649.782.787 1.43.307 1.44-.480.0084-.252.408.506.888 1.8 1.14.553 3.1-1.97 3.1-2.47 0-3.54-2.54-1.9-4.51.679-.818 1.01-1.49.734-1.49-1.35 0-8.35 3.37-9.07 4.36-.547.754-.690.631-.423-.362.618-2.3 6.34-5.76 10.8-6.5 4.12-.697 4.6-1.58 3.35-6.25-.724-2.7-3.91-2.91-9.87-.640-7.49 2.85-8.18 2.96-6.62 1.05 1.63-1.98 11.6-5.09 13.7-4.27 2.33.895-.0981-3.01-5.85-9.39-4.65-5.16-10.7-15.8-10.7-18.9-.00048-.821-1.32-.192-3.36 1.6-1.85 1.62-6.91 4.43-11.2 6.23-16 6.64-23.7 11.8-27 18.2-1.51 2.92-1.82 11-.540 14.3.640 1.63.847 1.69 1.36.354.819-2.13 9.37-3.23 14.5-1.85 4.41 1.19 9.28 4.55 9.25 6.39-.0110.843-.224.862-.75.0670-.884-1.34-6.66-4.39-8.31-4.39-.868 0-.852.386.0622 1.49 1.66 2 .555 4.51-1.99 4.51s-3.65-2.51-1.99-4.51c1.06-1.28.644-1.49-2.92-1.49-6.24 0-6.65 4.61-.626 7.05 1.58.639 1.66.839.369.888-.916.0349-2.94-1.29-4.5-2.94-3-3.18-4.62-3.89-3.76-1.65.284.740-.173 3.33-1.02 5.75-2.25 6.46-1.92 9.85 1.44 14.9 3.56 5.36 3.73 7.94.839 13.1l-2.16 3.84 2.66 4.02c1.46 2.21 5.02 5.88 7.91 8.15 5.73 4.52 6.5 6.04 6.65 13.2.0942 4.51.356 4.95 4.76 8 10.3 7.11 11.2 8.44 12.8 18 0.7 4.17 2.25 4.96 2.96 1.5zm-25.7-85.8c.688-.277 1.81-.277 2.5 0 .688.277.125.504-1.25.504s-1.94-.227-1.25-.504zm9.81-17.5c-3.26-1.72-5.15-1.99-11-1.58-7.33.514-6.31-.570 1.66-1.76 3.48-.523 5.63-.179 9.63 1.54 2.83 1.22 5.15 2.61 5.15 3.09 0 1.28-1.03 1.03-5.44-1.29z" fill="#504543"/>
 <path d="m18.5 200c0-8.68 5.26-21.3 10.6-25.3 3.03-2.31 3.16-2.72 3.67-11.6.298-5.16 1.47-12.2 2.65-15.9 1.63-5.13 1.88-7.27 1.1-9.32-1.29-3.4-1.31-12.6-.0245-16 .778-2.05.329-4.65-2.12-12.3-3.64-11.4-3.64-19.7-.0163-27.2 1.5-3.09 2.15-6.34 2.15-10.7 0-8.91 1.63-15.4 5.5-21.8 3.37-5.6 6.5-14.5 6.5-18.5 0-5.83 6.82-13.7 14-16.2 1.85-.646 5.6-2.56 8.32-4.25 4.56-2.84 5.71-3.09 14.5-3.24 5.27-.0876 10.4-.486 11.4-.886s3.57-.203 5.71.436c2.13.639 6.33 1.08 9.31.985 4.03-.132 6.33.375 8.89 1.96 1.9 1.17 6.36 3.03 9.9 4.13 12.2 3.77 17.8 8.95 21.8 20.2 1.05 2.95 2.85 7.95 4 11.1 1.15 3.17 2.34 8.57 2.65 12s1.66 8.79 3.01 11.9c2.69 6.25 2.89 8.98 2.21 30.3-.346 10.9-.915 15.3-2.57 20-1.84 5.18-1.97 6.54-.964 10.3.955 3.57.880 5.12-.425 8.75-1.4 3.88-1.42 5.04-.184 9.69.771 2.91 1.67 8.97 2.01 13.5.540 7.3.838 8.24 2.77 8.72 7.33 1.84 14.2 10.7 16.4 21.4 2.09 9.87 3.03 9.2-12.8 9.2h-13.9l-.621-3.75c-.341-2.06-1.05-11-1.58-19.8s-1.24-17.6-1.59-19.7c-.504-2.95.159-5.39 3.47-12.8 2.25-5.01 4.09-9.89 4.09-10.8-.007-.962-1.17-5.35-2.59-9.75-3.28-10.2-2.8-15.2 2.74-28.9 3.62-8.94 4.02-10.7 3.56-15.9-1.04-11.8-8.18-22-22.9-32.9-4.15-3.07-9.75-8.21-12.4-11.4-2.69-3.21-7.01-8.03-9.6-10.7-4.34-4.47-4.49-4.8-2-4.2 6.39 1.55 20.6 13.6 33.1 28 5.13 5.94 5.16 5.96 3.55 2.02-2.46-6.02-6.88-12-11.6-15.6-6.2-4.76-6.69-5.36-2.77-3.39 9.15 4.61 14.8 11.3 17.5 21 1.67 5.84 3.88 10 2.82 5.34-5.16-23-17.2-36.3-36.3-40.2l-6.5-1.33 4.15-.682c2.28-.375 5.66-.464 7.5-.198 2.09.302 1.1-.286-2.65-1.56-5.93-2.02-13.5-2.25-18-.545-1.23.461-1.03.159.5-.781 1.38-.843 4.98-1.58 8-1.64 3.75-.0722 4.87-.353 3.5-.885-1.1-.429-3.92-.563-6.26-.298-2.7.305-5.93-.155-8.81-1.26-5.31-2.03-7.02-1.4-2.52.926 1.7.880 3.09 2.05 3.09 2.6 0 .549-1.05.311-2.33-.528-2.8-1.12-11.7-2.22-18.7-.95-8.1 1.47-11.1 3.25-4.47 2.63 6.61-.609 18.4.837 23.5 2.88 5.62 2.25 4.82 2.75-1.39.872-2.81-.852-8.84-1.5-14-1.51-15.2-.0126-25.8 3.26-31.5 9.72-4.2 4.78-3.77 6.23.691 2.32 2.04-1.79 6.65-4.65 10.2-6.35 6.15-2.92 7.24-3.1 18-3.09 8.17.0123 13.2.537 17.4 1.81 7.3 2.23 6.99 3.12-.404 1.15-3-.798-8.89-1.46-13.1-1.46-14.7-.0229-26.4 5.86-34.3 17.2-3.69 5.35-3.95 6.24-4.69 15.8-.907 11.7-1.88 15.2-6.55 23.7-7.57 13.8-8.17 20.3-3.3 35.8 2.21 7.01 3.14 11.9 3.12 16.5-.0769 20.7-.399 27.5-1.72 36.2-1.56 10.4-1.79 23.9-.567 32.5l.748 5.25h-10c-7.87 0-10.3-.313-10.3-1.32zm128-174c0-.208-.788-.995-1.75-1.75-1.59-1.24-1.62-1.21-.378.378 1.31 1.67 2.13 2.2 2.13 1.37zm-107 170c-.952-7.92-.737-22.4.439-29.8.576-3.58 1.24-15.4 1.48-26.3.401-18.3.244-20.6-2.07-31.3-1.38-6.36-2.5-12.9-2.5-14.6 0-1.73 1.92-6.61 4.38-11.2 3.76-6.94 4.48-9.24 5.06-16.1 1.1-14.2 2.9-18.7 9.6-25.3 9.9-9.7 25.6-15.3 37.4-13.4l5 .814-9.07 1.27c-22 3.09-38.4 17.2-38.4 33 0 2.36.45 4.57 1 4.91s1-.155 1-1.1c0-5.14 15.1-19.3 25.5-23.9 5.33-2.37 13.9-4.49 18.2-4.49 3.8 0 2.42.836-6.47 3.92-12.8 4.43-22.9 11.3-29.5 20.2-4.29 5.75-5.11 9.87-3.26 16.3l1.43 5-.577-6.23c-.4-5.3-.2-6.8 2.2-11.6 3.5-7.3 9.5-11.5 24.8-17.7 14.2-5.8 19.2-8.9 21.2-13.2l1.39-3.19.0489 4.5c.0637 5.86 3.41 12.9 10 21 2.91 3.58 6.41 8.93 7.8 11.9 2.36 5.07 2.48 6.08 1.92 16.5-.448 8.37-.213 12.6.956 17.1.871 3.37 1.35 8.19 1.1 11l-.450 5 1.39-3.33c1.2-2.88 1.17-4.52-.251-12.2-1.33-7.25-1.43-10.1-.535-15.3 2.35-13.5 1.45-16.8-7.53-27.3-6.39-7.48-5.33-7.79 1.39-.410 7.96 8.75 9.24 10.9 9.24 15.6.004 2.25.344 4.42.757 4.83 1.12 1.12.949 2.93-.417 4.35-1.99 2.06-2.7 10.1-1.47 16.8 1.71 9.29 1.45 11.4-2.37 19-3.7 7.36-3.97 6.51-1.44-4.53 1.15-5.02 1.04-6.39-1.27-15.5-1.46-5.78-2.16-10.4-1.66-10.9.480-.522.873-2.7.873-4.84v-3.89l-4.25.706c-4.64.771-9.27 2.83-10.1 4.47-.283.575-.402.472-.263-.229.407-2.06 6.32-5.55 10.6-6.28 3.31-.558 3.98-1.07 3.98-3 0-6-3.82-7.12-11.9-3.47-4.94 2.24-5.14 2.29-5.14 1.16 0-1.51 7.04-4.19 11-4.19 2.18 0 3.97-.338 3.96-.75-.00076-.412-3.15-4.54-6.99-9.18-6.08-7.32-11-16.4-11-20.2 0-.556-1.61.553-3.58 2.46-2.24 2.18-7 4.84-12.7 7.13-11 4.38-14.9 6.63-20 11.4-4.26 3.99-6.32 7.39-7.1 11.7-.619 3.41 1.08 10.4 2.53 10.4.561 0 .762-.418.447-.928-1.23-1.98 9.01-3.54 14.2-2.15 4.47 1.2 9.33 4.58 9.21 6.4-.0540.806-.240.776-.590-.0936-1.27-3.15-12.3-5.91-18.1-4.54-2.49.586-2.91 2.79-1 5.28.688.895.259.593-.952-.671-2.95-3.08-4.3-2.9-4.3.575 0 1.58-.691 4.83-1.53 7.22-1.53 4.32-1.51 4.39 2 11.1 4.09 7.81 4.24 9.13 1.53 13.6-1.1 1.8-2 4.02-2 4.92 0 .906 3.67 5.19 8.16 9.51 8.15 7.86 8.16 7.87 8.75 14l.594 6.15 6.5 4.61c6.85 4.85 9.98 9.4 10 14.5.0093 1.65.460 3.68 1 4.5.875 1.33 1.09 1.33 1.97 0 .542-.825 1-2.62 1.02-4 .0774-5.19 3.62-10.7 9.16-14.2 6-3.85 8.08-5.99 7.7-7.93-.145-.728.0874-3.57.515-6.32.693-4.45 1.34-5.44 5.89-9 2.81-2.2 6.7-6.22 8.64-8.92 3.37-4.69 3.56-5.42 4.25-16 .394-6.09 1.19-12.9 1.76-15.1 2.86-11 .282-18.5-10.6-31.1-3.86-4.45-8.49-10.1-10.3-12.5-3.01-4.06-3.2-3.95-1.31.750.413 1.03.274 1.42-.363 1.03-1.46-.901-3.15-8.05-3.71-15.7-.461-6.24-.439-6.32.555-2 1.64 7.15 2.79 8.84 12.8 19 12.5 12.6 17.2 18 16.5 19.1-.314.509-.207.927.238.929 1.48.0078 1.41 10.1-.187 24.6-.866 7.91-1.28 16.6-.923 19.3.580 4.37 0.2 5.89-3.46 13.8-4.83 10.5-5.02 13.3-1.53 23.3 2.87 8.21 2.83 10.2-.446 22.4-1.2 4.46-2.14 10.9-2.14 14.8v6.84h-38.4c-34.5 0-39-.177-39.5-1.58-1.09-2.84-.639-12.8.952-20.9 1.1-5.64 1.37-10.5.909-16.6-.405-5.33-.223-10.1.483-12.8.664-2.46.820-5.76.377-7.94l-.757-3.74-.783 5c-.430 2.75-1.24 9.48-1.8 15-.558 5.48-2 13-3.2 16.8-2.27 7.05-2.21 8.68.802 23.5.630 3.1.518 3.25-2.37 3.25h-3.03l-.725-9.67c-1.08-14.4-.0729-30.5 2.54-40.7 2.04-7.95 2.14-9.38 1-14.1-.778-3.24-.962-6.59-.475-8.65.436-1.85.662-7.19.503-11.9-.532-15.6-.348-20.5.948-25.1.881-3.15 1.03-6.46.484-10.5-.442-3.25-1-5-1.25-3.9-.245 1.1-1.97 5.69-3.83 10.2-4.03 9.75-4.12 11.9-.837 19.8 3.78 9.07 4.03 13.1 1.47 23.1-1.94 7.6-2.15 10.2-1.56 19.8.555 9.13.377 11.8-1.03 15.5-1.86 4.91-2.06 12.9-.681 27.2l.836 8.75h-2.7c-2.45 0-2.7-.395-3.28-5.25zm19.4-72c2.46-6.23 2.4-9.46-.310-17.2-2.16-6.19-2.17-6.47-.5-11.8.942-2.99 1.69-6.29 1.66-7.35-.0303-1.05-1.24 1.83-2.69 6.41-2.42 7.66-2.52 8.66-1.28 12.5 1.42 4.38 1.72 13.7.727 22.2-.323 2.75-.345 3.89-.0484 2.54s1.4-4.63 2.44-7.29zm83.8 77c-.0377-.138-.430-8.35-.871-18.2-0.6-13.5-1.37-20.1-3.04-26.4-2.69-10.1-2.41-12.4 2.98-24.1 4.01-8.71 4.09-9.07 3.06-14.7-1.55-8.36-1.31-13.5 1.03-22.7 3.36-13.1 1.82-18.2-9.32-30.4-3.83-4.21-8.33-9.66-10-12.1-3.49-5.07-7.71-16.3-7.74-20.5-.0172-2.36.647-1.55 3.63 4.41 3.7 7.39 14.2 19.1 24.2 26.9 9.23 7.21 11.7 20.4 6.55 35.2-2.71 7.83-2.68 6.5-.762 27.6.515 5.68.260 6.81-3.05 13.5-4.06 8.22-4.28 10.2-1.96 17.3 1.26 3.88 1.65 9.43 1.74 24.7l.109 19.7-3.25.0006c-1.79.00034-3.28-.112-3.32-.249zm-66.7-113c-.294-.766-.187-1.96.239-2.65.615-.995 1.21-.978 2.91.0829 1.18.734 1.99 1.79 1.81 2.34-.523 1.59-4.36 1.76-4.95.220zm43.7-.3c-.331-.862-.0354-2.1.656-2.75.970-.912 1.36-.897 1.72.0672.252.688 1.08 1.25 1.84 1.25.821 0 1.15.612.810 1.5-.758 1.98-4.26 1.93-5.03-.0672zm-30.9-12.4c-.335-.543-3.17-1.74-6.31-2.66-6.29-1.84-5.72-3.11.632-1.4 3.96 1.07 9.75 4.95 7.48 5.01-.655.0183-1.47-.411-1.8-.954zm-15.8-3.68c.688-.277 1.81-.277 2.5 0 .688.277.125.504-1.25.504s-1.94-.227-1.25-.504z" fill="#4d403e"/>
 <path d="m18.5 200c0-8.71 5.16-21 10.5-25.1 3.11-2.37 3.22-2.71 3.74-11.7.302-5.22 1.46-12.2 2.65-16 1.63-5.13 1.88-7.27 1.1-9.32-1.29-3.4-1.31-12.6-.0245-16 .778-2.05.329-4.65-2.12-12.3-3.64-11.4-3.64-19.7-.0163-27.2 1.5-3.09 2.15-6.34 2.15-10.7 0-8.91 1.63-15.4 5.5-21.8 3.37-5.6 6.5-14.5 6.5-18.5 0-5.83 6.82-13.7 14-16.2 1.85-.646 5.6-2.56 8.32-4.25 4.56-2.84 5.71-3.09 14.5-3.24 5.27-.0876 10.4-.486 11.4-.886s3.57-.203 5.71.436c2.13.639 6.33 1.08 9.31.985 4.03-.132 6.33.375 8.89 1.96 1.9 1.17 6.37 3.04 9.94 4.14 11.8 3.64 17.6 8.9 21.4 19.4 1.22 3.36 3.19 8.75 4.37 12 1.18 3.22 2.42 8.85 2.76 12.5s1.68 9.05 2.99 12c2.45 5.55 2.48 5.92 2.4 27.8-.0369 10-.468 13.4-2.52 19.9-2.19 6.9-2.34 8.32-1.31 12.2.968 3.62.897 5.14-.414 8.79-1.4 3.88-1.42 5.04-.184 9.69.771 2.91 1.67 8.99 2.01 13.5l.608 8.22 3.47 1.14c7.74 2.55 14.1 12.5 15.7 24.7l.712 5.25h-28l-.695-4.75c-.640-4.37-2.5-30.3-2.87-39.9-.110-2.91.974-6.51 3.74-12.4 4.3-9.16 4.3-8.33-.004-23.5-2.08-7.32-1.21-12.8 4.04-25.5 3.95-9.6 4.4-15 1.86-22.5-3.27-9.69-8.47-16.1-20.7-25.3-5.28-4.01-11.9-10.2-14.9-14-3.01-3.73-6.94-8.25-8.73-10l-3.25-3.25 3.76 1.57c2.07.865 5.85 3.11 8.41 4.99 4.72 3.48 19 17.8 25 25.1 2.74 3.32 3.18 3.57 2.59 1.5-1.55-5.48-6.21-12.5-11.5-17.3-4.18-3.79-4.72-4.56-2.22-3.13 7.76 4.42 16.1 15.6 16.2 21.9.0249 1.1.721 3.12 1.55 4.5 1.49 2.49 1.5 2.48.870-1-2.22-12.3-9.02-25.1-16.7-31.3-5.06-4.15-14.2-8.62-17.8-8.74-1.38-.0440-3.4-.467-4.5-.939-1.43-.613-.277-.879 4-.929 6.57-.0761 14.8 3.15 21.5 8.37 3.01 2.36 2.95 2.24-.432-.859-7.52-6.9-22.5-12.2-32.3-11.4-2.99.248-4.78.0816-4.06-.377.711-.451 3.77-.834 6.79-.851 3.72-.0207 5.03-.327 4.05-.945-.795-.503-3.58-.662-6.19-.352-3.21.380-6.07.0335-8.82-1.07-5.72-2.29-8.38-1.99-3.79.436 4.84 2.55 4.84 3.3 0 1.21-4.96-2.14-19.4-2.19-24.2-.0805-3.49 1.52-3.48 1.53 5 1.53 9.54.005 18.8 1.63 21.6 3.81 1.57 1.21 1.14 1.2-2.62-.0879-9.17-3.13-31.3-1.48-39.8 2.96-3.72 1.94-7.85 6.49-9.17 10.1l-1.1 3 2.29-2.65c9.14-10.6 27.8-15.5 43.3-11.3l5 1.35-4.5-.582c-16.4-.1-29.6 3.6-38.8 12.9-6.69 6.69-8.73 11.7-9.46 23.4-.606 9.61-.857 10.4-6.77 22.8-7.59 15.8-7.92 19.8-2.89 35.3 2.32 7.14 3.24 11.8 3.23 16.5-.0417 15.6-.470 23.2-1.93 34.4-1.06 8.14-1.4 16.3-1.06 25.8l.497 13.8h-9.86c-7.49 0-9.86-.317-9.86-1.32zm21.6-9.93c-.426-7.03-.234-14.6.511-20.2 1.25-9.46 2.25-29.5 2.15-43-.0382-4.83-1.12-12.7-2.74-19.9-1.57-6.95-2.43-13.1-2.08-14.9.329-1.64 2.15-5.55 4.05-8.67 3.79-6.23 5.49-12.1 5.53-19.2.0450-8.4 2.68-14.7 8.83-21.2 9.39-9.84 24.2-15.4 37.2-13.9 4.19.472 3.89.597-4.5 1.83-11 1.62-21 6.26-28.3 13.1-6.49 6.1-9.13 11.9-9.16 20-.0232 6.61 1.3 8.37 2.35 3.13.419-2.1 3.17-5.65 8.38-10.8 9.72-9.69 19.6-15 29.4-15.6l6.39-.447-7.5 2.8c-15.9 5.94-28.9 16.2-32.5 25.5-1.72 4.52-1.72 5.08-.0950 11.8 1.68 6.9 1.67 7.16-.543 14.6-2.07 6.97-2.14 7.96-.853 12.2.769 2.55 1.32 7.23 1.23 10.4-.196 6.67-.245 17.9-.105 24 .190 8.27-2.28 27-4.21 31.9-2.11 5.35-2.48 11.3-1.04 16.9.497 1.92 1.19 5.19 1.54 7.25.616 3.63.541 3.75-2.3 3.75h-2.94l-.688-14.2c-.746-15.5.264-26.9 3.36-38.1 1.75-6.3 1.77-7.2.345-12.9-1.22-4.83-1.29-6.74-.378-9.28 1.48-4.1 1.47-10.7-.0466-19.5-1.05-6.1-.981-7.62.505-11.8 1.85-5.17 2.27-16.8.697-19.3-.855-1.32-.971-1.32-.985.0466-.0084.851-1.58 5.35-3.5 10-1.91 4.65-3.49 9.88-3.5 11.6-.0101 1.75 1.33 6.55 2.98 10.7 3.57 8.91 3.63 10.4.889 21-1.78 6.9-2.01 9.83-1.48 18.9.547 9.35.344 11.7-1.53 17.9-2.02 6.64-2.09 7.85-1.02 17.7 1.71 15.8 1.62 17.1-1.24 17.1-2.33 0-2.4-.259-3.06-11.2zm16.9 6.26c-.438-3.18-.0632-8.69 1.04-15.2 1.19-7.07 1.54-12.9 1.13-18.6-.343-4.85-.124-10.4.523-13.2.918-3.97.808-5.9-.624-11-1.73-6.18-1.73-6.2.871-14.4l2.61-8.19-2.56-7.84c-2.51-7.69-2.53-7.93-.881-12.9 1.46-4.39 1.52-6.08.488-12.8-1.47-9.6-.504-13.8 4.47-19.7 4.53-5.29 9.32-8.1 23.4-13.7 6.17-2.47 12.5-5.38 14-6.47 3.52-2.5 4.33-2.51 3-.0270-.951 1.78-5.94 4.45-23.5 12.6-12.9 5.99-20 16.2-17.6 25 1.53 5.5 1.36 10.2-.541 15.5l-1.64 4.59 3.64 6.51c4.19 7.49 4.38 9.09 1.64 13.6-1.1 1.8-2 4.02-2 4.92 0 .906 3.69 5.2 8.19 9.55l8.19 7.9.431 5.95c.464 6.42.0288 5.85 10.1 13.2 4.42 3.21 5.63 5.63 7.52 15 .307 1.51.991 2.75 1.52 2.75s1.22-1.24 1.53-2.75c2.15-10.5 3.15-12 12.5-18.6 4.4-3.14 4.52-3.37 5.18-10 .552-5.55 1.11-7.11 3-8.43 4.92-3.44 10.3-8.85 13-13.1 2.54-3.99 2.83-5.33 2.84-13 .007-4.7.676-11 1.49-14.1 3.43-12.8 1.13-20.6-9.7-33.1-3.55-4.09-8.11-9.6-10.1-12.3-2.02-2.65-3.67-4.4-3.67-3.89 0 1.54 4.89 8.4 9.42 13.2 6.01 6.39 7.58 9.33 7.6 14.2.008 2.36.418 4.92.909 5.7.573.906.421 1.88-.424 2.73-2.24 2.24-2.77 9.21-1.44 18.9l1.28 9.31-3.34 6.79c-1.84 3.74-3.54 6.19-3.79 5.45-.246-.738-.0275-1.63.486-1.98.513-.349.966-1.53 1.01-2.63.0401-1.1.384-4.02.764-6.5.510-3.32.0454-7-1.76-14-1.43-5.53-2.09-9.9-1.58-10.4.483-.522.878-2.7.878-4.84v-3.89l-4.25.683c-2.34.376-5.8 1.57-7.69 2.66-2.7 1.56-3.14 1.63-2.07.339 1.87-2.25 5.86-4.2 10.3-5.04 3.01-.565 3.72-1.13 3.72-3 0-5.98-3.83-7.09-11.9-3.45-4.94 2.24-5.14 2.29-5.14 1.16 0-1.51 7.04-4.19 11-4.19 2.18 0 3.97-.364 3.97-.810 0-.445-2.07-3.24-4.61-6.21-2.53-2.97-5.75-6.89-7.14-8.72-2.97-3.89-7.36-15.8-6.58-17.8.826-2.15 2.33-.627 2.35 2.39.0347 4.25 3.17 10 10.2 18.9 9.16 11.5 10.2 14.6 9.37 28.3-.531 8.74-.331 12.2.970 16.6 1.12 3.85 1.44 7.33 1.01 11-.744 6.33-.114 6.92 1.4 1.31.853-3.17.725-5.84-.599-12.5-1.38-6.97-1.48-9.48-.546-14.1 1.69-8.41 1.45-16.4-.573-19.4-.941-1.36-4.03-5.22-6.86-8.57-6.04-7.16-8.11-12.3-8.79-21.9l-.492-7 1.29 5.77c1.47 6.57 1.45 6.55 15.2 20.7 15.4 15.9 16.3 18.6 13.7 41.4-.687 6.01-1.25 14.6-1.25 19 0 7.2-.389 8.92-3.5 15.4-4.26 8.9-4.43 13.1-.918 23.2 2.77 7.92 2.76 8.35-.463 20.4-1.25 4.66-2.12 10.9-2.12 15.2v7.34h-78.3zm86.4 4.74c-.0273-.138-.443-8.8-.925-19.2-.672-14.6-1.37-20.6-3-26-2.48-8.19-2.14-12.4 1.6-19.8 5.07-10 5.5-12.2 4.17-21.4-1.1-7.61-1.01-9.22.993-18.1 1.21-5.37 2.19-11.1 2.18-12.7-.0371-5.06-3.3-10.6-12.4-21-10.4-11.9-13.6-17.6-16-29-.450-2.11.585-.925 3.48 3.99 5.91 10 9.99 14.6 19.5 22 9.82 7.67 12.7 12.5 13.3 22.2.310 4.83-.220 8.25-2.33 15-2.83 9.06-2.94 12.7-.906 29 .589 4.71.282 6.02-2.97 12.7-4.02 8.25-4.35 11.3-2.09 19.1 1.64 5.63 1.89 10.3 1.54 28.2-.120 6.18.0679 12.1.418 13.2.557 1.75.187 2.01-2.93 2.01-1.96 0-3.59-.112-3.62-.25zm-74.7-114c-3.19-3.58-2-5.62 3.85-6.61 6.72-1.14 17.5 3.09 17.3 6.76-.0540.806-.240.776-.590-.0936-.831-2.06-5.82-4.16-11-4.63-8.73-.789-11.6 1.27-7.68 5.58.910 1.01 1.43 1.83 1.17 1.83-.269 0-1.63-1.27-3.01-2.83zm7.91.545c-.294-.766-.187-1.96.239-2.65.615-.995 1.21-.978 2.91.0829 1.18.734 1.99 1.79 1.81 2.34-.523 1.59-4.36 1.76-4.95.220zm43.8-.2c-.331-.862-.0354-2.1.656-2.75.970-.912 1.36-.897 1.72.0672.252.688 1.08 1.25 1.84 1.25.821 0 1.15.612.810 1.5-.758 1.98-4.26 1.93-5.03-.0672zm-30.9-12.4c-.335-.543-3.17-1.74-6.31-2.66-6.29-1.84-5.72-3.11.632-1.4 3.96 1.07 9.75 4.95 7.48 5.01-.655.0183-1.47-.411-1.8-.954zm-15.8-3.68c.688-.277 1.81-.277 2.5 0 .688.277.125.504-1.25.504s-1.94-.227-1.25-.504z" fill="#453836"/>
 <path d="m18.5 200c0-.724.489-3.99 1.09-7.25 1.36-7.41 5.22-14.7 9.57-18 3.2-2.44 3.34-2.82 3.34-9.31 0-3.83.941-10.2 2.17-14.7 2.33-8.55 2.34-8.63 1.28-18.6-.447-4.21-.292-7.85.422-9.9.971-2.79.697-4.58-1.97-12.8-3.64-11.3-3.65-19.6-.0504-27 1.46-3.02 2.15-6.37 2.16-10.5.0216-8.37 2.17-16.7 5.8-22.6 1.68-2.71 3.79-7.75 4.68-11.2.891-3.45 2.09-8.08 2.67-10.3 1.27-4.85 6.87-10.5 12.4-12.4 2.17-.762 5.16-2.23 6.64-3.27 5.03-3.53 10.9-4.98 19.3-4.73 4.4.128 9.24.843 10.8 1.59 4.08 2.01 3.34 2.28-1.91.704-6.2-3.61-13.6-3.43-20.4-1.26l-5.5 1.77 12 .535c6.6.294 13.1 1.03 14.5 1.63 2.08.914 1.74.979-2 .387-2.48-.392-8.4-.642-13.2-.555-15 .273-27.1 5.12-30.8 12.3-2.9 5.69-2.51 5.91 2.25 1.26 2.34-2.28 7.25-5.56 10.9-7.27 5.62-2.62 8.16-3.18 16-3.51l9.32-.392-7.1.911c-15.9 2.1-27.4 9.4-33.7 21.7-1 1.9-2 7.7-2.5 14.5-.9 10.9-1.1 11.9-6 21.4-8.2 16.2-8.5 19.1-3.6 34.6 3.96 13 4.64 18.1 3.33 24.9-.638 3.33-1.07 9.02-.950 12.6.115 3.61-.543 11.9-1.46 18.5-1.59 11.4-1.51 26.9.177 33.2.602 2.23.497 2.25-9.51 2.25-7.7 0-10.1-.315-10.1-1.32zm11-20.2c1.29-1.38 2.12-2.5 1.85-2.5-.275 0-1.56 1.12-2.85 2.5s-2.12 2.5-1.85 2.5c.275 0 1.56-1.12 2.85-2.5zm11.6 18.4c-1.09-5.45-.640-29.1.684-35.9.810-4.13 1.22-13.8 1.13-26.5-.126-17.8-.420-21.1-2.69-30.2-2.9-11.6-2.66-14.4 1.94-22 4.23-6.95 5.09-9.81 5.83-19.3.859-11.1 3.39-16.9 9.82-22.5 9.26-8.1 20.7-12.7 31-12.4l4.2.120-4.5.961c-13.1 2.81-24 8.53-30.6 16.2-5.54 6.37-6.47 9.43-6.22 20.4.208 9.17.0185 10.2-3.46 18.5-4.34 10.3-4.53 13.7-1.21 21.9 3.78 9.3 3.94 11.7 1.47 21.4-1.91 7.5-2.14 10.3-1.61 19.6.535 9.35.330 11.8-1.48 17.6-1.81 5.83-2.01 8.24-1.46 17.3.351 5.78.917 12.2 1.26 14.2.543 3.29.374 3.75-1.39 3.75-1.45 0-2.18-.871-2.63-3.12zm8.02-.625c-1.01-6.12-.726-32.4.422-38.8.585-3.26 1.77-8.22 2.63-11 1.42-4.61 1.42-5.66.0147-11.2-1.41-5.57-1.41-6.57.0526-11.1 1.42-4.44 1.45-5.98.246-13.3-1.68-10.2-1.63-13.2.305-18.9 1.14-3.36 1.38-6.97.970-14.5-.455-8.25-.251-10.6 1.17-13.3 2.65-5.12 13.6-15.3 20.1-18.8 6.3-3.33 15.4-6.37 18.8-6.25 1.85.0606 1.81.181-.432 1.15-20.4 8.79-30.4 16.1-34.7 25.3-2.76 5.92-2.84 7.44-.812 15.3 1.45 5.67 1.43 6.32-.5 11.8-2.46 7-2.53 9.57-.417 15.8 1.18 3.46 1.42 6.17.882 9.93-.753 5.28-.880 10.9-.469 20.7.320 7.62-2.56 29.7-4.46 34.2-2.27 5.39-2.09 9.83.997 24.5.386 1.84.0348 2.25-1.92 2.25-1.98 0-2.49-.636-3.01-3.75zm8.72-6c.304-5.36 1.03-18.1 1.61-28.2 1.29-22.4 1.29-22.6.0266-25-1.6-3-1.17-9.52.993-15 2.52-6.39 2.51-8.64-.0817-15.2-1.54-3.91-1.9-6.32-1.39-9.29.380-2.2.755-9.89.832-17.1.136-12.7.229-13.2 3.02-17.2 3.44-4.98 9.23-8.98 18.4-12.7 14.2-5.78 22.5-9.95 24.2-12.1l1.8-2.28.581 2.91c1.08 5.39 4.75 11.8 11.2 19.5 8.56 10.3 9.96 14.6 9.06 28.1-.532 7.94-.324 11.6.929 16.5.888 3.43 1.43 7.42 1.21 8.87-.379 2.46-.416 2.44-.556-.428-.0824-1.69-.794-5.29-1.58-8-.788-2.71-1.58-6.51-1.75-8.43-.175-1.92-.768-3.83-1.32-4.23-.619-.455-.524-.741.25-.75.818-0.01 1.25-1.62 1.25-4.64v-4.63l-4.1.656c-2.26.361-5.46 1.36-7.11 2.21-1.65.855-2.7 1.06-2.33.464 1.02-1.64 5.66-3.82 9.83-4.6 3.01-.565 3.72-1.13 3.72-3 0-6.01-3.19-6.94-12-3.49-2.77 1.09-5.04 1.59-5.04 1.11 0-1.37 7.66-4.09 11.5-4.09 1.91 0 3.48-.425 3.48-.945 0-.519-2.95-4.42-6.56-8.66-7.29-8.58-8.7-10.9-10.4-17.2l-1.17-4.33-2.44 2.63c-1.34 1.45-5.48 4-9.19 5.67-14.4 6.8-20.4 10.2-24.7 14.4-5.5 5.5-7.2 10.6-5.6 16.9 1.5 5.96 1.35 9.87-.583 15.3l-1.66 4.68 3.66 6.55c4.21 7.53 4.4 9.13 1.66 13.6-1.1 1.8-2 4.01-2 4.92 0 .903 3.69 5.23 8.2 9.62 8.19 7.97 8.2 7.99 8.62 13.9.458 6.33.0354 5.79 10.1 13.1 4.42 3.21 5.63 5.63 7.52 15 .307 1.51.991 2.75 1.52 2.75s1.22-1.24 1.53-2.75c2.15-10.5 3.15-12 12.5-18.6 4.4-3.14 4.52-3.37 5.18-10 .552-5.55 1.11-7.11 3-8.43 4.92-3.44 10.3-8.85 13-13.1 2.54-3.99 2.83-5.33 2.84-13 .007-4.7.676-11 1.49-14.1 3.42-12.8 1.09-20.7-9.7-33.1-3.51-4.04-8.05-9.55-10.1-12.2-2.04-2.69-3.71-4.47-3.71-3.95 0 1.76 5.71 9.81 9.46 13.3 4.92 4.63 7.54 9.94 7.54 15.3 0 2.39.54 4.88 1.2 5.54.841.841.864 1.2.0776 1.2-.617 0-1.66 1.64-2.33 3.64-1.15 3.47-.982 8.67.646 20.5.518 3.77.152 5.72-1.92 10.2-1.41 3.08-3.15 5.59-3.87 5.58-1.06-.0124-1.06-.171-.0215-.830.737-.468 1.02-1.63.656-2.73-.463-1.41-.373-1.56.342-.562.730 1.02 1.41.202 2.75-3.3 1.66-4.35 1.68-5.24.234-13.4-1.34-7.56-1.37-9.87-.193-17.7 1.75-11.7.959-14.5-6.65-23.6-7.54-9.02-8.93-11.7-9.45-18.2-.228-2.86-.158-4.3.155-3.2.973 3.41 8.46 12.4 15.5 18.7 12.2 10.8 15.8 18.9 13.8 31.1-.640 3.94-1.47 13.9-1.85 22.2-.677 14.7-.770 15.2-4.4 22.4-2.04 4.09-3.71 8.71-3.71 10.3 0 1.56 1.12 6.05 2.5 9.98 3.03 8.68 3.1 12.4.384 20.8-1.38 4.29-2.14 9.47-2.24 15.2l-.147 8.74-38.8.008-38.8.008.553-9.75zm16.4-10.8c-.308-.308-.867.247-1.24 1.23-.543 1.43-.428 1.54.560.560.683-.678.991-1.49.683-1.79zm-5.81-9.82c0-.190-1.01-1.2-2.25-2.25l-2.25-1.9 1.9 2.25c1.79 2.11 2.6 2.71 2.6 1.9zm66-8c0-.190-1.01-1.2-2.25-2.25l-2.25-1.9 1.9 2.25c1.79 2.11 2.6 2.71 2.6 1.9zm-64.9-2.4c1.24-1.59 1.21-1.62-.378-.378-.962.755-1.75 1.54-1.75 1.75 0 .823.821.293 2.13-1.37zm73.5 34.6c-.353-3.38-.642-10.9-.642-16.8 0-7.98-.619-13.1-2.5-20.6-1.42-5.67-2.26-11.3-1.95-13 .303-1.65 2.38-6.95 4.62-11.8l4.07-8.77-1.24-9.23c-1.14-8.49-1.07-9.93.877-18.1 1.17-4.86 2.12-10.5 2.11-12.5-.0153-5.76-4.11-12.9-12.9-22.5-8.16-8.93-13.5-18-14.7-24.6-.545-3.14-.0998-2.73 4.34 4 4.75 7.21 11.4 14.1 21.7 22.4 5.22 4.22 8.03 9.39 9.04 16.6 0.7 5.01-.0972 9.81-3.52 21.2-2.21 7.34-2.25 8.1-.953 16 1.93 11.7 1.67 14.1-2.55 23.1l-3.75 8 1.91 7.12c1.57 5.84 1.91 10.6 1.91 26.4v19.2l-2.61.00039c-2.46.00036-2.64-.353-3.25-6.15zm10.8-.103c-.475-3.44-.910-11.4-.967-17.8-.0572-6.32-.618-13.6-1.25-16.1-1.34-5.39-.463-9.48 3.91-18.1 3.43-6.81 3.56-9.54.812-17.4-3.34-9.52-2.84-16.4 2.09-28.6 3.79-9.37 4.12-10.9 3.71-17-.833-12.3-7.41-21.7-24.3-34.8-7.39-5.7-17.6-16.8-16.8-18.2.271-.439.0327-.798-.530-.798s-1.52-.927-2.13-2.06c-1.07-1.99-1.01-2.01 1.71-.595 5.01 2.61 17.6 14.1 25.2 23 4.08 4.77 7.62 8.47 7.85 8.23 1.11-1.11-5.38-12.6-9.57-16.9-2.59-2.68-3.77-4.39-2.64-3.82 5.88 3 14.4 15.5 14.4 21.2.0121 1.41.718 3.43 1.57 4.5 1.45 1.82 1.51 1.73.930-1.56-3.63-20.6-14.9-34.3-32.5-39.8l-7.5-2.31 6.11.423c7.93.548 14.1 3.34 20.5 9.32 2.85 2.65 4.68 3.87 4.07 2.71-4.02-7.64-18.7-14.8-33.2-16.3l-7.5-.771 6-.155c4.24-.110 5.56-.435 4.5-1.11-.825-.527-3.75-.719-6.5-.428-3.73.395-6.27-.00349-10-1.57-3.12-1.31-3.87-1.87-2-1.5 1.65.330 6.67.909 11.1 1.29 5.17.437 8.82 1.27 10 2.28 1.02.877 5.15 2.63 9.17 3.9 12.2 3.85 18.7 9.5 21.7 19 .781 2.48 2.58 7.61 4 11.4 1.42 3.78 2.84 9.63 3.15 13 .317 3.37 1.64 8.86 2.94 12.2s2.39 7.84 2.42 10c.374 24-.0412 30.5-2.44 38.1-2.16 6.79-2.31 8.22-1.27 12.1.973 3.64.897 5.14-.446 8.88-1.43 3.99-1.46 5.08-0.2 9.69.780 2.86 1.7 8.9 2.04 13.4l.624 8.22 3.47 1.14c7.74 2.55 14.1 12.5 15.7 24.7l.712 5.25h-28zm20.6-13.1c0-.172-1.46-1.63-3.25-3.25l-3.25-2.94 2.94 3.25c2.74 3.03 3.56 3.71 3.56 2.94zm-45.9-64.3c.048-1.16.285-1.4.604-.604.289.722.253 1.58-.0789 1.92-.332.332-.569-.258-.525-1.31zm-60.7-31c-1.99-2.24-2.29-3.16-1.4-4.37 2.73-3.73 14.8-2.99 19.7 1.22 2.34 1.98 2.34 1.98-2.16.0089-4.41-1.94-11.3-2.61-14.4-1.41-2.05.787-2.02 3.25.0732 5.56.910 1.01 1.43 1.83 1.17 1.83-.269 0-1.63-1.27-3.01-2.83zm7.91.545c-.705-1.84 1.21-4.76 1.94-2.96.279.688 1.18 1.25 2.01 1.25.825 0 1.31.562 1.09 1.25-.585 1.78-4.4 2.13-5.04.462zm43.8-.2c-.331-.862-.0354-2.1.656-2.75.970-.912 1.36-.897 1.72.0672.252.688 1.08 1.25 1.84 1.25.821 0 1.15.612.810 1.5-.758 1.98-4.26 1.93-5.03-.0672zm-31.2-12.6c-.612-.612-3.51-1.93-6.45-2.93s-4.63-1.85-3.77-1.89c2.54-.113 10.7 2.95 12 4.5 1.39 1.67-.142 1.95-1.77.315zm-15.4-3.5c.722-.289 1.58-.253 1.92.0790.332.332-.258.569-1.31.525-1.16-.0480-1.4-.285-.604-.604zm22-42c.722-.289 1.58-.253 1.92.0790.332.332-.258.569-1.31.525-1.16-.0480-1.4-.285-.604-.604zm-3.6-12c.973-.254 2.32-.237 3 .0370.677.274-.119.481-1.77.461-1.65-.0204-2.2-.244-1.23-.498z" fill="#40312e"/>
 <path d="m19.1 196c1.4-10.4 5.52-19 10.5-21.9 2.84-1.68 2.99-2.09 2.99-8.44 0-3.86 1.04-10.7 2.47-16.2 1.94-7.45 2.26-10.2 1.5-12.9-1.26-4.38-1.23-12 .0490-15.4.813-2.14.398-4.58-2.1-12.3-3.67-11.4-3.69-19.8-.0667-26.9 1.52-2.97 2.15-6.06 2.17-10.5.0217-8.72 2.08-16.6 5.98-22.9 3.35-5.42 4.45-8.54 6-17 1.68-9.16 3.96-11.9 14.5-17.1 3.85-1.92 8.58-4.33 10.5-5.34 2.42-1.27 5.97-1.9 11.5-2.04l8-.194-7.15.812c-7.3.01-14.1 1.78-14.9 3.08-.232.372 3.75.535 8.84.362 5.1-.173 10.8.115 12.7.640 2.68.756 1.93.851-3.61.455-8.55-.611-22.8 1.71-29 4.74-4.68 2.27-8.68 6.66-9.99 11-.674 2.22-.252 2.03 3.78-1.68 7.47-6.87 19-11.4 28.2-11.2 2.94.0720 1.86.440-3.96 1.35-10.2 1.6-18.9 5.93-24.4 12.1-4.95 5.62-5.96 9-7 23.4-.777 10.8-.911 11.2-6.71 22.8-5.58 11.1-5.92 12.2-5.87 18.8.0385 5.06.973 9.88 3.37 17.4 3.99 12.5 4.22 19.2 1.04 30.6-4.99 17.9-5.01 18.1-4.49 38.8l.493 19.8h-16zm10.5-16.8c1.29-1.38 2.12-2.5 1.85-2.5-.275 0-1.56 1.12-2.85 2.5s-2.12 2.5-1.85 2.5c.275 0 1.56-1.12 2.85-2.5zm8.76-53.8c-.287-2.57-.531-2.88-1.18-1.49-.447.969-.443 3.89.0096 6.5.761 4.38.849 4.49 1.18 1.49.194-1.79.190-4.71-.0096-6.5zm4.2-60.4c1.08-2.89 2.23-8.32 2.55-12.1l.580-6.8-2.05 3.72c-2.06 3.73-6.05 18.5-6 22.3.0245 1.97.0447 1.97 1.49.0598.807-1.07 2.35-4.31 3.44-7.2zm.671 132c-.344-2.06-.907-8.7-1.25-14.8-.504-8.85-.289-12.1 1.1-16.9 1.42-4.82 1.6-7.94 1.03-17.5-.550-9.17-.360-12.9.896-17.8 2.27-8.76 2.02-15-.906-22.2-3.48-8.55-3.24-12.8 1.25-22.6 3.56-7.7 3.75-8.67 3.82-18.6.0744-11.9 1.57-16.1 8.07-22.6 7.15-7.15 22-14.6 28.6-14.3 1.25.0468-.0369.647-2.87 1.33-12 2.9-25.1 12.3-29.3 20.9-1.68 3.47-2.07 6.21-2.07 14.5 0 9.4-.274 10.8-3.59 18.8-4.22 10.2-4.21 13.8 0.09 25.4l2.78 7.5-2.19 8.5c-1.76 6.81-2.16 11-2.02 21 .128 9.38-.267 14-1.58 18.5-1.49 5.05-1.65 8.16-1.06 20.2.688 14.2.417 17.8-.789 10.5zm18.4-1.92c0-3.12.489-8.47 1.09-11.9.884-5.08.777-7.75-.579-14.4-1.38-6.78-1.47-9.3-.530-14.9.930-5.51.854-8.08-.420-14.2-2.15-10.3-1.96-12.7 1.44-18.5 3.73-6.28 3.73-8.24 0-14.8-3.42-6.06-3.62-7.92-1.45-13.1 1.22-2.92 1.41-5.69.877-12.9-.793-10.8-.0305-12.9 6.9-19.3 4.07-3.75 14.4-9.89 15.2-9.05.188.188-2.15 1.64-5.19 3.24-12 6.26-17.7 15.2-15.4 24.2 1.5 5.95 1.35 9.87-.572 15.3l-1.65 4.65 3.7 6.97c3.97 7.48 4.06 9.64.593 14.5-1.81 2.55-1.82 2.74-.0783 5.56.990 1.61 4.45 5.39 7.69 8.4 7.39 6.86 8.32 8.43 8.36 14.1.0390 5.03 1.15 6.47 8.85 11.5 4.94 3.21 7.12 6.81 8.05 13.3.462 3.23 1.17 4.68 2.4 4.92 1.4.271 1.74-.401 1.76-3.49.0369-6.42 3.15-11.7 9.14-15.6 7.02-4.5 7.51-5.24 8.05-12 .453-5.73.541-5.87 7.66-12.4 9.49-8.66 11.1-12 11.1-22.6.007-4.56.676-10.8 1.49-13.8 2.99-11.1 1.06-20.5-5.97-28.8-3.4-4.02-4.04-3.68-2.04 1.11.832 1.99 1.51 5.35 1.51 7.45 0 2.11.54 4.37 1.2 5.03.841.841.864 1.2.0776 1.2-2.03 0-3.56 6.99-2.92 13.4 1.11 11.2 1.4 15.1.942 12.6-.250-1.38-1.03-5.27-1.73-8.65-1.04-5.01-1.04-7.88.0289-15.5 1.61-11.5.852-14.9-4.86-21.9-7.15-8.7-9.73-12.2-9.73-13.3 0-.576 1.29.953 2.87 3.4 3.15 4.87 11.1 13 11.1 11.3 0-.576-.950-1.91-2.11-2.95-1.16-1.05-3.49-3.7-5.18-5.9s.275-.454 4.36 3.88c14.6 15.5 17.2 21.6 14.9 34.3-.793 4.28-1.45 13-1.45 19.3-.006 8.6-.411 12.3-1.6 14.5-.878 1.65-2.79 5.2-4.25 7.9-3.29 6.07-3.31 8.54-.154 18.2 1.38 4.21 2.5 8.84 2.51 10.3.008 2-4.46 21.9-7.62 33.9-.255.969-7.98 1.25-34.4 1.25h-34.2zm12.8-14.9c-.308-.308-.867.247-1.24 1.23-.543 1.43-.428 1.54.560.560.683-.678.991-1.49.683-1.79zm-5.81-9.8c0-.179-1.24-1.42-2.75-2.75l-2.75-2.42 2.42 2.75c2.27 2.57 3.08 3.21 3.08 2.42zm-2.51-7.66c.350-.567-.0511-.734-.941-.393-1.73.665-2.05 1.38-.611 1.38.518 0 1.22-.445 1.55-.989zm68.5-.356c0-.190-1.01-1.2-2.25-2.25l-2.25-1.9 1.9 2.25c1.79 2.11 2.6 2.71 2.6 1.9zm-64.9-2.4c1.24-1.59 1.21-1.62-.378-.378-.962.755-1.75 1.54-1.75 1.75 0 .823.821.293 2.13-1.37zm73.5 34c-.351-3.71-.646-11.5-.656-17.2-.0139-7.69-.662-13.1-2.42-20.2-2.81-11.3-2.52-13.7 2.97-25 3.37-6.93 3.55-7.75 2.81-13.4-1.17-8.97-.807-17.4 1.02-23.4 2.22-7.4 2.07-14.5-.398-19.6-1.11-2.3-5.57-8.06-9.9-12.8-7.02-7.69-13.1-16.1-13.1-18.3 0-.422 1.41 1.46 3.13 4.18s6.96 8.97 11.6 13.9c4.68 4.92 9.33 10.8 10.3 13 2.29 5.04 2.37 11.5.258 20.8-1.23 5.4-1.44 9.01-.843 14.7 1.4 13.5 1.11 16-2.84 23.4-4.85 9.14-5.31 12.3-3.11 21 1.41 5.57 1.86 11.6 2 26.4.0961 10.6.0697 19.2-.0588 19.2s-.520-3.04-.871-6.75zm16.8-2.72c-.391-5.21-.396-11.1-.0112-13.2.816-4.35.873-21.6.089-27.1-.513-3.57-.490-3.61.450-.761.545 1.65 1.28 6.7 1.64 11.2l.648 8.22 3.47 1.15c7.77 2.56 14.1 12.5 15.6 24.7l.671 5.25h-21.8l-.710-9.47zm14.5-9.84c0-.172-1.46-1.63-3.25-3.25l-3.25-2.94 2.94 3.25c2.74 3.03 3.56 3.71 3.56 2.94zm-20.9 9.35c-.819-5.53-1.06-11.6-.639-15.9.431-4.37.253-8.59-.477-11.3-1.85-6.85-1.32-10.9 2.49-18.8 4.14-8.65 4.44-12.7 1.47-20.2-3.11-7.84-2.26-17.5 2.59-29.3 3.26-7.9 3.66-9.77 3.32-15.5-.715-12-7.85-22.9-21.3-32.6-3.3-2.37-8.25-6.68-11-9.59l-5-5.28 5 4.5c2.75 2.48 7.25 6.02 10 7.88s7.15 5.16 9.78 7.33l4.78 3.95-2.11-5.37c-1.16-2.95-3.91-7.85-6.1-10.9l-3.99-5.5 5.03 5.27c3.74 3.93 5.45 6.73 6.68 11 2.26 7.81 3.61 11 4.11 9.57.785-2.16-2.84-13.8-6.41-20.6-4.1-7.81-11.6-15.2-19.4-19.1-6.91-3.44-4.34-3.38 2.96.0796 3.13 1.48 7.82 4.69 10.4 7.14 5.85 5.47 6.23 4.13.630-2.23-3.88-4.4-9.68-8.05-17.8-11.2l-3.53-1.37 3.5.626c10.3 1.85 19.6 8.95 22.6 17.2.907 2.55 2.5 6.74 3.53 9.31 2.31 5.73 4.86 16.3 4.88 20.3.008 1.61 1.17 5.8 2.58 9.33 4.06 10.2 3.64 16.9-1.97 31.5-1.67 4.36-2.57 8.63-2.53 12 .0796 5.92 1.35 10.2 2.27 7.73 1.61-4.33 3-11.4 3.64-18.5l.726-8 .144 7.14c.0998 4.96-.602 9.71-2.3 15.6-2.03 7.01-2.27 9.1-1.42 12.5.753 2.97.681 5.19-.271 8.44-.712 2.42-1.19 5.53-1.05 6.91.159 1.65-.0486 2.07-.608 1.23-.589-.880-1.56.249-3.17 3.69-1.92 4.09-2.19 5.8-1.58 9.77.569 3.66 1.5 40.3 1.02 40.3-.0523 0-.692-4.03-1.42-8.96zm-101 4.96c0-1.38.227-1.94.504-1.25.277.688.277 1.81 0 2.5-.277.688-.504.125-.504-1.25zm-2.1-9.25c-1.04-5.55-.942-6.98.872-12.8 1.12-3.58 2.31-10.8 2.64-16 .328-5.22 1.01-10.8 1.51-12.4.621-1.96.442-4.9-.561-9.22-1.41-6.08-1.06-12.3 1-17.6.361-.933-.0583-4.15-.931-7.15-2.1-7.22-2-11.5.433-18.7 1.91-5.68 1.94-6.28.435-11.4-2.77-9.52.107-17.3 9.48-25.7 4.48-4.03 20.7-13.5 21.6-12.6.198.198-3.04 2.11-7.19 4.25-13.2 6.77-23.3 18.2-23.3 26.1.0065 1.61.653 5.34 1.44 8.29 1.31 4.92 1.26 5.88-.602 11.9-2.12 6.85-2.08 10.5.178 18.4 1.12 3.88 1.12 5.58.0120 10.2-.888 3.7-1.07 7.3-.540 10.8.434 2.92.778 6.66.766 8.31-.0552 7.4-2.55 24.6-4.46 30.7-1.65 5.3-1.97 8.21-1.51 13.8.324 3.86.441 7.03.260 7.03s-.856-2.81-1.5-6.25zm77.3-64.9c-.414-.669-.277-.885.325-.513.571.353 1.6-.717 2.29-2.38.688-1.66 1.45-2.82 1.69-2.58.470.470-2.48 6.62-3.18 6.62-.228 0-.736-.520-1.13-1.15zm.674-4.43c.048-1.16.285-1.4.604-.604.289.722.253 1.58-.0789 1.92-.332.332-.569-.258-.525-1.31zm1.15-5.42c0-1.92.206-2.71.457-1.75.252.962.252 2.54 0 3.5-.252.962-.457.175-.457-1.75zm-1.15-5.58c.048-1.16.285-1.4.604-.604.289.722.253 1.58-.0789 1.92-.332.332-.569-.258-.525-1.31zm-1.45-4.67c-.332-1.24-.609-6.19-.617-11l-.0136-8.75-2.75.0220c-1.51.0121-4.66.890-7 1.95-5.05 2.29-5.55 1.79-1-.984 1.79-1.09 4.94-1.98 7-1.99 3.48-.0035 3.75-.217 3.75-2.92 0-6.67-2.9-7.67-12-4.1-2.77 1.09-5.04 1.59-5.04 1.11 0-1.37 7.66-4.09 11.5-4.09 1.91 0 3.48-.415 3.48-.923 0-.996-3.23-5.15-9.09-11.7-2.03-2.26-4.2-5.18-4.82-6.5-1.12-2.35-1.11-2.35.638.106.978 1.38 4.33 5.26 7.44 8.63 9.11 9.86 9.32 10.5 9.33 28.1.004 8.39-.0531 15.2-.126 15.2-.0734.00041-.405-1.01-.736-2.25zm-60.7-14.1c-2.46-2.76-2.5-2.99-.837-4.5 2.65-2.4 13.7-2.15 17.8.399 4.55 2.78 4.05 3.27-1 .984-4.89-2.22-12.6-2.57-15.1-.690-1.66 1.21-1.64 1.43.381 4 2.83 3.6 2 3.48-1.27-.194zm7.98.623c-.705-1.84 1.21-4.76 1.94-2.96.279.688 1.18 1.25 2.01 1.25.825 0 1.31.562 1.09 1.25-.585 1.78-4.4 2.13-5.04.462zm43.7-.2c-.331-.862-.0354-2.1.656-2.75.970-.912 1.36-.897 1.72.0672.252.688 1.08 1.25 1.84 1.25.821 0 1.15.612.810 1.5-.758 1.98-4.26 1.93-5.03-.0672zm-31.2-12.6c-.612-.612-3.51-1.93-6.45-2.93s-4.63-1.85-3.77-1.89c2.54-.113 10.7 2.95 12 4.5 1.39 1.67-.142 1.95-1.77.315zm-15.4-3.5c.722-.289 1.58-.253 1.92.0790.332.332-.258.569-1.31.525-1.16-.0480-1.4-.285-.604-.604zm13.2-20.3c.825-.533 1.95-.969 2.5-.969s.325.436-.5.969-1.95.969-2.5.969-.325-.436.5-.969zm29-2.56c0-.857.457-1.28 1.02-.931.559.345.757 1.05.441 1.56-.857 1.39-1.46 1.13-1.46-.628zm-.805-4.94c.0204-1.65.244-2.2.498-1.23.254.973.237 2.32-.037 3-.274.677-.481-.119-.461-1.77zm8.68-13.2c-1.24-1.59-1.21-1.62.378-.378 1.67 1.31 2.2 2.13 1.37 2.13-.208 0-.995-.788-1.75-1.75zm-34.6-1c.722-.289 1.58-.253 1.92.0790.332.332-.258.569-1.31.525-1.16-.0480-1.4-.285-.604-.604zm33.6-12c.688-.277 1.81-.277 2.5 0 .688.277.125.504-1.25.504s-1.94-.227-1.25-.504zm-6.75-5.34-5.5-.674 5-.193c4.04-.156 4.65-.396 3.19-1.25-1.04-.604-3.82-.788-6.5-.432-3.49.464-6.09.0909-10.2-1.46-3.02-1.15-4.15-1.81-2.5-1.48 1.65.335 6.61.920 11 1.3 6.1.524 8.71 1.23 10.9 2.94 1.57 1.24 2.24 2.18 1.47 2.09-.762-.0896-3.86-.466-6.88-.837zm-22.5-3.45c0-.949 2.99-1.43 3.53-.563.325.526-.336.956-1.47.956s-2.06-.177-2.06-.393z" fill="#342928"/>
 <path d="m18.5 200c0-.55.486-1 1.08-1 .678 0 .836-1.11.424-2.98-1.2-5.46 2.11-13.9 7.59-19.4 4.82-4.82 4.9-5 4.9-11.1 0-3.46 1.13-10.6 2.54-16 2.03-7.8 2.33-10.4 1.5-12.8-.572-1.64-.972-5.28-.890-8.08.0866-2.95.304-3.83.514-2.1 0.2 1.65.664 4.58 1.03 6.5l.666 3.5.570-3.5c.834-5.12.0909-12.1-1.2-11.3-.686.424-.825.0249-.388-1.11.386-1.01-.623-5.85-2.33-11.2-3.52-11-3.73-16.8-.883-24.4 1.13-3.02 2.43-9.66 2.89-14.8.905-10.2 2.95-17.4 6.01-21.2 1.92-2.42 1.92-2.36-.0792 2.27-2.35 5.45-4.94 16.8-4.85 21.2.0533 2.57.580 1.93 3.66-4.4 3.05-6.27 3.65-8.63 3.93-15.5.183-4.46.818-9.9 1.41-12.1s1.39-5.8 1.77-8c.611-3.51.777-3.71 1.36-1.6.396 1.43.0514 3.59-.853 5.34-.931 1.8-1.8 7.48-2.25 14.7-.729 11.7-.767 11.8-6.68 24.2-5.69 11.9-5.94 12.7-5.86 19.9.0651 5.48.939 10.2 3.25 17.4 4.14 12.9 4.13 18.7-.0891 33.1l-3.25 11 .104 22.2.104 22.2h-7.85c-4.57 0-7.85-.418-7.85-1zm10.1-19.4c4.6-5.23 5.17-8.19.765-4.01-3.62 3.44-7.4 10.5-8.29 15.4-.509 2.84-.223 2.51 1.52-1.77 1.18-2.9 3.88-7.24 6-9.65zm14 9.68c-1.54-14.2-1.47-17.4.476-24.1 1.29-4.43 1.51-7.99 1.02-16.7-.511-9.09-.246-12.8 1.51-21.2l2.13-10.2-3.28-9.1c-3.8-11.9-3.6-14.5 1.5-25.9 3.36-7.44 3.61-8.68 3.61-17.8 0-11.5 1.52-15.6 8.23-22.1 4.29-4.18 15.2-11.3 17.2-11.2.582.0256-1.02 1.13-3.56 2.45-6.15 3.2-15.5 11.9-17.9 16.6-1.55 3.03-1.95 5.91-1.96 14.1-.0168 9.47-0.3 11-3.53 18.8-4.28 10.4-4.48 14.6-1.07 22.7 3.03 7.18 3.31 12.8 1.07 21.5-.952 3.68-1.66 11.6-1.85 20.6-.201 9.78-.833 16.4-1.9 19.9-1.35 4.45-1.44 7.15-.586 17.9.554 6.93.827 12.8.605 13-.221.221-.926-4.44-1.57-10.4zm19.2 8.11c-.365-1.45-.105-7.02.578-12.4.980-7.69.984-11 .0195-15.6-.794-3.82-.989-9.26-.556-15.5.492-7.16.264-11.4-.876-16.3-2-8.63-1.95-10.3.478-14.5 1.11-1.92 2.7-4.98 3.54-6.8 1.65-3.59 1.84-2.88-3.53-13l-2.28-4.3 2.04-5.96c1.78-5.2 1.9-6.75.967-12.2-1.38-8.04-.506-12.4 3.45-17.2 3.13-3.79 14-11.6 16.2-11.6.602.0052-1.29 1.38-4.2 3.05-11.9 6.81-16.5 14.6-14.4 24 1.56 6.76 1.47 9.93-.407 14.4-1.84 4.41-1.34 7.14 2.31 12.7 3.22 4.87 3.32 9.54.278 13.8l-2.19 3.07 3.74 4.9c2.05 2.69 5.67 6.35 8.04 8.13 4.62 3.46 6.4 7.04 6.4 12.9 0 4.03 1.3 5.57 9.13 10.8 5.05 3.4 7.87 8.65 7.87 14.6 0 6.68 3.39 5.33 4.33-1.73.912-6.83 2.91-10 8.48-13.6 6.94-4.45 7.89-5.87 8.41-12.5.428-5.45.769-6.16 4.37-9 11.2-8.89 14.4-14.4 14.4-25.3.009-4.28.668-10.5 1.46-13.8 3.51-14.5 1.4-21.3-11.1-35.5-3.93-4.48-4.12-4.84-1.03-1.98 6.32 5.86 12.5 14.9 14.2 20.7 1.35 4.66 1.41 6.4.360 11.6-.677 3.4-1.51 12.5-1.84 20.2-0.6 13.7-.677 14.1-4.03 19.5-4.44 7.14-5.09 13.4-2.17 20.8 2.99 7.54 2.72 15.4-.994 29.2-1.7 6.32-3.35 12.2-3.66 13-.313.825-.478 2.06-.367 2.75.158.979-7.06 1.25-33.3 1.25h-33.4zm21.2-19c-.682-.682-6.38 5.96-6.35 7.41.0081.55 1.57-.762 3.47-2.92 1.9-2.15 3.2-4.18 2.88-4.49zm41 6.49c-0.3-.782-1.27-1.7-2.16-2.04-1.33-.510-1.29-.256.232 1.42 2.18 2.41 2.68 2.57 1.93.620zm-51.2-9.21c-1.09-2.13-3.57-5.87-5.52-8.32l-3.53-4.45 2.73-1.66c1.5-.912 3.56-2.96 4.57-4.55l1.84-2.89-3.21 3.21c-1.77 1.76-4.12 3.49-5.22 3.85-1.51.479-1.85 1.18-1.37 2.79.353 1.18.791 2.83.974 3.65.183.825.809 1.4 1.39 1.27 1.13-.247 5.17 4.38 5.17 5.92 0 .508-.562 0.6-1.25.205-.726-.418-.901-.338-.417.191.458.501 1.32.910 1.92.910.596 0 1.29.625 1.55 1.39.309.926.0349 1.12-.821.595-.848-.524-1.04-.396-.561.377.398.644 1.22.865 1.82.490.736-.455.859-.0468.372 1.23-.545 1.43-.441 1.63.411.783.853-.846.641-2.11-.843-5zm47.8 4.13c-.685-.825-1.73-1.5-2.31-1.5-.588 0-.195.661.872 1.47 2.51 1.9 3 1.91 1.44.0318zm7.3-.164c-.411-1.07-.246-1.42.462-.984.605.374 1.43.153 1.82-.490.478-.773.288-.901-.561-.377-.856.529-1.13.331-.821-.595.255-.764.951-1.39 1.55-1.39.596 0 1.46-.410 1.92-.910.484-.529.310-.609-.417-.191-.688.396-1.25.298-1.25-.217 0-1.4 2.58-3.27 3.39-2.45.391.391.431-.0174.0898-.908-.342-.890-.140-1.92.447-2.28.588-.363 1.07-1.15 1.07-1.76 0-1.97-3.64 2.14-6.41 7.23-1.49 2.74-2.43 5.43-2.09 5.98.984 1.59 1.5 1.16 0.8-.661zm-35.9-14.3c-.236-.244-1.43.608-2.65 1.89l-2.22 2.34 2.65-1.89c1.46-1.04 2.46-2.09 2.22-2.34zm43.6-4.36c0-.167-1.67-1.85-3.71-3.75-3.38-3.14-3.14-2.17.567 2.3 1.25 1.51 3.14 2.38 3.14 1.45zm-73.8-33c-.319-.798-.556-.561-.604.604-.0434 1.05.193 1.64.525 1.31.332-.332.368-1.19.0790-1.92zm98.4 56.9c.0643-7.84.446-17.2.848-20.8l.731-6.5.152 5.17c.146 4.94.303 5.22 3.54 6.29 7.94 2.62 15 13.3 15 22.7.0143 2.87.373 4.67.796 4 .493-.775.776-.401.786 1.04.015 2.2-.239 2.25-11 2.25h-11zm17-1.82c-1.06-2.43-2.84-5.38-3.95-6.54-2.86-2.99-8.98-6.62-10.4-6.16-.646.215.472 1.41 2.48 2.65 4.79 2.96 10.3 9.5 11.9 14 .706 2.07 1.37 2.93 1.57 2.03.187-.866-.528-3.57-1.59-6zm-34 10.6c.0204-1.65.244-2.2.498-1.23.254.973.237 2.32-.0371 3-.274.677-.481-.119-.461-1.77zm11 0c.0204-1.65.244-2.2.498-1.23.254.973.237 2.32-.0371 3-.274.677-.481-.119-.461-1.77zm-1.4-6.75c-.113-1.79-.269-7.98-.346-13.8-.0776-5.78-.490-13.1-.917-16.2-.720-5.32-.516-6.27 2.85-13.4 4.18-8.8 4.47-12.6 1.62-20.9-3.35-9.73-2.6-16.6 3.25-30 7.25-16.6 1.33-32.1-17.7-46.4-4.98-3.75-10.6-8.54-12.6-10.6-2.7-2.95-2.14-2.63 2.5 1.4 6.61 5.75 21.8 17.2 22.3 16.7.688-.662-5.02-12-7.96-15.9l-3.21-4.17 3.07 2.82c3.97 3.65 8.04 11.2 8.88 16.4.363 2.27 1.44 4.97 2.39 5.99.953 1.02 2.98 4.98 4.51 8.8 2.47 6.18 2.72 7.81 2.25 15-.388 5.86-1.28 9.63-3.32 14-1.65 3.56-2.96 8.33-3.21 11.7-.522 7.08.487 13.1 2.03 12.1.732-.453.896-.109.472.995-.356.928-.163 3.81.428 6.41.859 3.77.769 5.61-.446 9.1-.837 2.4-1.29 5.1-1 6 .376 1.19.268 1.29-.397.364-.655-.908-1.57.140-3.24 3.69-2.05 4.38-2.23 5.76-1.55 11.8.428 3.74.747 7.48.708 8.31-.0387.825-.190 6.34-.335 12.2-.265 10.7-.680 13.6-1.07 7.5zm-10.8-10.9c0-9.26-.510-14.4-1.98-19.9-2.89-10.9-2.63-13.9 2.1-24.2 4.08-8.85 4.12-9.05 3.35-16.6-1.01-9.91-.712-16 1.06-21.9 2.1-6.91 1.87-15.5-.544-20.2-1.1-2.16-4.79-6.98-8.19-10.7l-6.19-6.78 6.73 6.5c11.1 10.7 13.3 17.4 10.2 30.6-1.75 7.44-1.93 11.3-1.02 22.9l.705 9-4.11 8.45c-4.59 9.43-5.03 13.3-2.52 22.1 1.1 3.85 1.54 9.52 1.47 18.9-.0489 7.39-.308 13.6-.576 13.9-.268.268-.487-5.13-.487-12zm-91.9 8.57c.0480-1.16.285-1.4.604-.604.289.722.253 1.58-.0790 1.92-.332.332-.569-.258-.525-1.31zm-.0342-7.54c-.0246-.893.664-3.59 1.53-6s2.04-9.55 2.61-15.9c1.3-14.5 1.35-17.4.342-23.3-.526-3.12-.360-7.23.469-11.6 1.12-5.93 1.07-7.41-.354-11.6-2.15-6.31-2.07-9.1.513-17 1.83-5.58 1.98-7.12 1-10.4-3.24-10.8.241-20.4 10.3-28.2 3.56-2.78 3.36-2.42-1.55 2.71-9 9.41-10.1 12.8-7.68 24.5 1.05 5.08.937 6.51-1.02 13.1l-2.2 7.41 2.08 6.45c1.33 4.13 1.87 7.71 1.5 9.95-1.43 8.69-1.67 14.9-.712 18.3.777 2.81.681 5.47-.378 10.5-.780 3.68-1.43 9.17-1.45 12.2-.0269 4.8-4.84 23.1-4.96 18.9zm110-22.9c0-1.92.206-2.71.457-1.75.252.962.252 2.54 0 3.5-.252.962-.457.175-.457-1.75zm-1.15-6.58c.048-1.16.285-1.4.604-.604.289.722.253 1.58-.0789 1.92-.332.332-.569-.258-.525-1.31zm2-33c.048-1.16.285-1.4.604-.604.289.722.253 1.58-.0789 1.92-.332.332-.569-.258-.525-1.31zm-28.8-5.42c0-1.92.206-2.71.457-1.75.252.962.252 2.54 0 3.5-.252.962-.457.175-.457-1.75zm30.5-5.5c.266-4.95.649-9.19.851-9.42.691-.782.171 13.4-.583 15.9-.413 1.38-.534-1.55-.268-6.5zm-33.7 5.92c.048-1.16.285-1.4.604-.604.289.722.253 1.58-.0789 1.92-.332.332-.569-.258-.525-1.31zm1.55-8.54c-.922-4.61-.779-9.45.536-18.1 1.52-9.98.476-13.5-6.31-21.3l-5.21-5.98 4.7 4.48c5.61 5.35 8.66 11.2 8.66 16.6 0 2.19.54 4.52 1.2 5.18.841.841.864 1.2.0776 1.2-2.08 0-3.56 7.06-2.97 14.2.612 7.3.334 8.81-.685 3.71zm-3.55-.458c.048-1.16.285-1.4.604-.604.289.722.253 1.58-.0789 1.92-.332.332-.569-.258-.525-1.31zm-.921-4.42c0-1.38.227-1.94.504-1.25.277.688.277 1.81 0 2.5-.277.688-.504.125-.504-1.25zm.0193-8c-.004-3.02-.0451-6.06-.0919-6.75-.125-1.84-4.98-1.48-9.84.723-2.34 1.06-4.25 1.78-4.25 1.59 0-1.24 6.26-4.08 10-4.53 4.21-.505 4.48-.720 4.21-3.3-.522-4.98-3.86-11.2-9.28-17.3-4.62-5.18-4.76-5.44-1.04-1.97 10.1 9.4 13 17.1 11.3 29.5-1.01 7.34-1.03 7.37-1.03 1.97zm-50.8-3.1c-.692-1.8 1.24-4.68 1.96-2.91.279.688 1.13 1.25 1.89 1.25.821 0 1.15.612.810 1.5-.715 1.86-3.97 1.97-4.66.159zm43.9-.250c-.336-.875-.383-1.96-.106-2.41.795-1.29 5.33 1.29 4.78 2.72-.694 1.81-3.94 1.59-4.67-.310zm-52.7-1.3c-1.53-1.78-1.52-2.03.106-3.5 2.7-2.45 13.4-2.14 17.7.499 4.6 2.84 4.23 3.21-.882.892-4.66-2.12-11.8-2.56-14.8-.931-1.56.837-1.74 1.43-.899 3 1.33 2.48.882 2.49-1.22.0404zm91.7-27.1c0-1.38.227-1.94.504-1.25.277.688.277 1.81 0 2.5-.277.688-.504.125-.504-1.25zm-28.8-4.25-1.9-2.25 2.25 1.9c2.11 1.79 2.71 2.6 1.9 2.6-.190 0-1.2-1.01-2.25-2.25zm25.9-6.12c-3.77-12.4-10.5-20.9-21.6-27.2-2.32-1.33-3.8-2.41-3.29-2.42 1.93-.0253 12.2 6.36 15.8 9.8 4.23 4.06 4.84 3.44 1.5-1.54-2.75-4.09-10.4-9.28-17.8-12.1-7.05-2.68-5.14-2.82 2.5-.193 3.2 1.1 7.35 3.17 9.22 4.6 4.5 3.43 9.49 10.4 8.78 12.3-.311.811-.169 1.74.317 2.06 2.15 1.41 8.77 22.1 7.06 22.1-.208-.0051-1.38-3.32-2.61-7.36zm-106-17.3c0-2.06 11.9-11.4 14.4-11.3.611.0230-.398.846-2.24 1.83-1.84.983-5.33 3.74-7.75 6.12s-4.4 3.89-4.4 3.36zm-.9-3.9c-.0167-.560 1.14-2.75 2.58-4.86 1.89-2.78 4.59-4.78 9.75-7.23 3.93-1.87 8.94-4.4 11.1-5.64 3.1-1.74 5.8-2.28 12-2.42l8-.176-7.52.781c-4.14.429-9.51 1.65-11.9 2.71l-4.43 1.93 10.4-.213 10.4-.213-8.03.768c-18.2 1.73-26.8 5.5-31.3 13.6-.608 1.1-1.12 1.54-1.14.982zm72.4-15.3c-.294-.476-1.78-.710-3.31-.519-2.73.342-2.73.333-.274-.491l2.5-.838-2.8-.766c-1.54-.421-4.24-.547-6-.279s-5.9-.353-9.2-1.38-4.65-1.61-3-1.3c1.65.309 6.61.872 11 1.25 6.1.524 8.71 1.23 10.9 2.94 1.57 1.24 2.37 2.25 1.78 2.25-.592 0-1.32-.390-1.61-.866z" fill="#2f201d"/>
 <path d="m18.5 200c0-.55.486-1 1.08-1 .678 0 .836-1.11.424-2.98-1.07-4.88 2.05-13.6 6.67-18.6 2.24-2.43 4.56-4.42 5.15-4.42.592 0-.543 1.69-2.52 3.75-4.12 4.3-7.29 10.2-8.19 15.2-.514 2.87-.246 2.57 1.5-1.71 2.15-5.28 8.65-13.9 9.7-12.8.314.314.683 3.82.818 7.8.136 3.97.528 9.14.871 11.5l.624 4.25h-8.06c-4.71 0-8.06-.416-8.06-1zm43.9-3.75c-.0651-2.61.0118-5.2.171-5.75s.325-2.2.368-3.67c.0434-1.47.359-2.95.702-3.29.342-.342.404-2.56.136-4.94-.267-2.37.0160-5.25.630-6.4.655-1.22.737-2.32.199-2.65-.505-.312-1.15-.002-1.42.689-.306.758-.538.562-.585-.494-.0434-.962.316-1.75.799-1.75 1.41 0 3.17 2.61 2.36 3.5-.408.450-.210.514.440.141.659-.378 1.87.313 2.75 1.56 1.82 2.6 2.05 4.21.465 3.23-.607-.375-.333.494.609 1.93s2.19 2.32 2.77 1.96c.690-.426.806.0138.331 1.26-.545 1.43-.441 1.63.411.783 1.41-1.4-1.16-6.77-6.36-13.3l-3.53-4.45 2.73-1.66c1.5-.912 3.56-2.96 4.57-4.55l1.84-2.89-3.21 3.21c-1.77 1.76-4.05 3.47-5.07 3.8-1.02.325-2.08 1.58-2.36 2.79-.272 1.21-.274-2.97-.0029-9.3.340-7.95.0455-13.6-.954-18.3-1.68-7.86-1.17-11.1 2.92-18.5l2.9-5.24-3.25-5.94c-3.64-6.64-3.99-10.1-1.65-15.7 1.39-3.32 1.44-4.81.380-11-1.44-8.44-.569-12.2 4.07-17.5l3.03-3.45-2.98 4.31c-3.96 5.72-4.56 9.06-3.02 16.8 1.15 5.77 1.09 7.06-.519 11.8-1.98 5.81-1.67 7.94 1.97 13.6 3.78 5.88 3.77 7.12-.152 14.5-3.88 7.31-3.87 7.2-1.53 20.8.453 2.63.423 7.32-.0657 10.4-.489 3.12-.757 6.5-.595 7.51.273 1.7.456 1.72 2.54.250 2.14-1.51 2.26-2.28 2.39-15.8l.143-14.2.822 11.4c.452 6.3.991 12.1 1.2 13 .548 2.26 4.24-6.52 5.24-12.4.836-4.98.842-4.99 1.4-1.5.422 2.65 1.04 3.5 2.56 3.5 1.65 0 2.05.773 2.32 4.48.381 5.35.944 6.1 8.26 11.1 6.3 4.28 8.92 8.99 8.92 16 0 3.31.318 3.99 1.74 3.72 1.26-.243 1.95-1.78 2.5-5.62.804-5.58 2.91-10.6 5.01-11.8.932-.560.999-.371.257.734-.55.819-.1.533 1-.635s3.58-3.19 5.5-4.5c4.68-3.17 4.97-3.71 4.98-9.22.0131-4.08.298-4.75 2.02-4.75 1.1 0 2.01-.562 2.02-1.25.0125-.688.773.273 1.69 2.13 1.42 2.88 1.76 3.11 2.32 1.52.439-1.25.831-.294 1.19 2.91.296 2.62 1.34 5.66 2.32 6.74 2.48 2.74 2.85 1.82 1.02-2.56-2.68-6.4-2.02-11.6 2.6-20.8 4.01-7.93 4.16-8.54 4-17-.0971-5.1.509-11.8 1.45-15.9.954-4.19 1.45-9.71 1.21-13.5-.262-4.11-.0859-5.82.493-4.78.495.885.619 5.28.275 9.77s-.952 14.5-1.35 22.2c-.716 13.8-.779 14.1-4.56 20.8-4.49 7.99-4.84 12.2-1.73 21.1 1.22 3.5 2.02 8.19 1.96 11.5-.0692 3.88-.310 4.84-.786 3.13l-.687-2.46-2.6 3.46c-4.36 5.82-6.17 10-4.86 11.3.857.850.961.655.415-.779-.488-1.28-.365-1.69.372-1.23.605.374 1.43.153 1.82-.490.478-.773.288-.901-.561-.377-.856.529-1.13.331-.821-.595.255-.764.951-1.39 1.55-1.39.596 0 1.46-.410 1.92-.910.492-.537.268-.583-.546-.111-.944.547-1.23.360-.917-.590.255-.764.951-1.39 1.55-1.39.596 0 1.46-.410 1.92-.910.483-.528.313-.611-.405-.198-.849.488-1.04.198-.611-.924.502-1.31.797-1.37 1.47-.302 1.2 1.89 1.08 5.08-.164 4.31-.681-.421-.803.301-.354 2.09.515 2.05.374 2.54-.567 1.96-.918-.567-1.07-.206-.578 1.35.417 1.31.242 2.13-.460 2.13-.680 0-.880.802-.5 2 .389 1.22.180 2-.540 2-.646 0-.921.661-.611 1.47.310.807.111 1.75-.441 2.09-.552.341-.911 1.37-.797 2.28.114.914-.139 2.9-.561 4.41l-.767 2.75h-65.5zm20.6-16c-.682-.682-6.38 5.96-6.35 7.41.0081.55 1.57-.762 3.47-2.92 1.9-2.15 3.2-4.18 2.88-4.49zm40.6 5.91c-.589-1.1-1.57-2-2.19-2-.616 0-.305.9.690 2s1.98 2 2.19 2c.209 0-.101-.9-.690-2zm-48-.5c0-.825-.436-1.5-.969-1.5s-.710.675-.393 1.5.752 1.5.969 1.5c.216 0 .393-.675.393-1.5zm38-.393c0-1.04-.615-2.13-1.37-2.42-1.1-.424-1.15-.0613-.25 1.89 1.35 2.91 1.62 3 1.62.532zm13.3.425c.310-.807.226-1.68-.185-1.93-.412-.255-.814.406-.894 1.47-.173 2.3.298 2.5 1.08.463zm-6.35-4.03c-.685-.825-1.75-1.49-2.37-1.47-.620.0175-.254.692.814 1.5 2.49 1.89 3.14 1.87 1.56-.0318zm-14.3-1.1c-.332-.332-1.19-.368-1.92-.0789-.798.319-.561.556.604.604 1.05.0434 1.64-.193 1.31-.525zm-15.1-14c-.236-.244-1.43.608-2.65 1.89l-2.22 2.34 2.65-1.89c1.46-1.04 2.46-2.09 2.22-2.34zm42.8-5.84c-.636-.212-.856-.909-.490-1.55.367-.641.290-.823-.170-.405s-1.98-.257-3.38-1.5c-2.14-1.9-2.32-1.94-1.12-.259 3.28 4.61 5.48 6.61 5.9 5.36.231-.693-0.1-1.43-.736-1.64zm26.5 38.2c-.784-2.04-.553-22.7.362-32.4.634-6.72.724-6.96.869-2.33.154 4.94.314 5.22 3.55 6.29 7.96 2.63 15 13.3 15 22.8.0143 2.89.379 5.25.812 5.25.432 0 .786.45.786 1 0 .603-4.13 1-10.4 1-8.55 0-10.5-.280-11-1.58zm16.5-14.5c-1.06-2.43-2.84-5.38-3.95-6.54-2.86-2.99-8.98-6.62-10.4-6.16-.646.215.472 1.41 2.48 2.65 4.79 2.96 10.3 9.5 11.9 14 .706 2.07 1.37 2.93 1.57 2.03.187-.866-.528-3.57-1.59-6zm-15.5-10.2c-.277-.688-.504-.125-.504 1.25s.227 1.94.504 1.25c.277-.688.277-1.81 0-2.5zm-119 11.8c.0111-2.2.216-2.98.455-1.74s.230 3.04-.0202 4c-.250.956-.446-.0617-.435-2.26zm99.9-10c-.157-8.05-.880-14.5-2.2-19.5-2.77-10.6-2.54-13.1 2.07-23.2l4.07-8.84-.676-11.3c-.585-9.73-.382-12.4 1.5-19.7 3.08-12 1.49-18.1-7.31-28-2.29-2.59-1.58-2.02 1.58 1.27 4.17 4.34 6.2 7.43 7.42 11.3 1.62 5.15 1.6 5.74-.616 16.9-1.98 9.99-2.14 12.4-1.17 17.2 1.95 9.7 1.48 13.2-2.87 21.8-4.54 8.93-5.04 13.7-2.47 23.6 1.08 4.17 1.44 9.5 1.22 18.1l-.314 12.2zm9.96 5.5c0-1.38.227-1.94.504-1.25.277.688.277 1.81 0 2.5-.277.688-.504.125-.504-1.25zm-111-5c-.0721-2.33.812-7.67 1.96-11.9 1.44-5.25 1.9-8.96 1.46-11.9-1.1-7.34-.653-19.8.917-25.5 2.13-7.78 1.93-10.4-1.53-20.4-3.49-10-3.4-11.4 1.4-22.1 2.75-6.15 3.19-8.4 3.64-18.6.476-10.7.751-12 3.52-16.4 1.65-2.65 5.02-6.4 7.5-8.34l4.5-3.54-4.08 3.93c-2.25 2.16-5.4 5.92-7 8.35-2.78 4.22-2.92 4.95-2.92 15.5 0 10.5-.181 11.5-3.84 20.4-4.27 10.4-4.28 11.7-.180 21.6 3.02 7.33 3.12 11.8.489 22.1-1.7 6.63-1.92 9.62-1.37 18.5.548 8.76.354 11.5-1.13 16-.984 2.96-2.11 7.87-2.5 10.9-.681 5.27-.719 5.33-.844 1.28zm29.4 1.03c-.543-1.43-.428-1.54.560-.560.683.678.991 1.49.683 1.79-.308.308-.867-.247-1.24-1.23zm82.1-8.79c-1.62-14.9-1.39-17.4 2.33-25.4 3.94-8.45 4.08-11.2 1.03-20.1-2.93-8.61-2.28-15.9 2.42-27.2 4.65-11.2 5.2-15.1 3.11-22.4-2.36-8.23-5.9-13.9-13-20.8-4.33-4.25-4.9-5.05-1.98-2.79 2.25 1.75 4.69 3.89 5.41 4.76 1.05 1.26 1.48 1.32 2.14.288.591-.932.832-.733.856.703.0184 1.1 1.35 3.94 2.96 6.31 6.89 10.2 7.85 23 2.6 34.6-3.76 8.31-4.84 14.9-3.51 21.4.602 2.9 1.4 5.08 1.77 4.85.719-.444.926.893 1.39 8.94.233 4.07-.340 6.3-2.97 11.5-4.58 9.06-5.39 12.5-4.16 17.4.568 2.25.894 6.8.725 10.1l-.307 5.99zm-99.5-1.08c.0480-1.16.285-1.4.604-.604.289.722.253 1.58-.0790 1.92-.332.332-.569-.258-.525-1.31zm-20.8-6.42c0-1.92.206-2.71.457-1.75.252.962.252 2.54 0 3.5-.252.962-.457.175-.457-1.75zm22.5-6c.267-5.22.463-11.6.436-14.2-.0949-9.17-.0365-19.8.137-25 .0965-2.89-.460-7.37-1.24-9.96-1.31-4.37-1.25-5.21.898-11.8 1.55-4.74 2.1-8.11 1.66-10.3-.357-1.79-.822-5.95-1.03-9.25l-.387-6 .822 5.5c.452 3.02 1.14 7.36 1.54 9.64.535 3.09.151 5.84-1.52 10.9l-2.23 6.71 2.17 7.3c2.09 7.03 2.11 7.54.550 13.5-1.35 5.19-1.42 7.07-.424 11.2.752 3.13.914 7.06.438 10.6-.415 3.1-1.1 9.01-1.53 13.1-.716 6.93-.738 6.77-.290-2zm-21.6-.145c-.0354-.905.881-4.7 2.04-8.44 1.74-5.64 1.91-7.42 1-10.5-.605-2.02-1.04-5.87-.963-8.56.136-4.84.144-4.82.849 1.38.896 7.88 1.67 8.71 2.56 2.75.726-4.84-.0654-8.83-5.04-25.4-1.38-4.6-2.51-10-2.51-12.1 0-4.37 2.28-12.1 5-17.1 7.55-13.7 8.47-16.3 8.69-24.9.120-4.6.521-8.65.891-9 .370-.346.452 3.78.182 9.18-.478 9.55-.645 10.1-6.34 21.5-7.59 15.2-8.06 20-3.39 34.7 4.76 15 4.87 21.4.594 36-1.93 6.6-3.53 11.3-3.57 10.4zm127-1.44c.048-1.16.285-1.4.604-.604.289.722.253 1.58-.0789 1.92-.332.332-.569-.258-.525-1.31zm2-42c.048-1.16.285-1.4.604-.604.289.722.253 1.58-.0789 1.92-.332.332-.569-.258-.525-1.31zm-29.9-1.42c0-1.38.227-1.94.504-1.25.277.688.277 1.81 0 2.5-.277.688-.504.125-.504-1.25zm31.1-4c0-1.92.206-2.71.457-1.75.252.962.252 2.54 0 3.5-.252.962-.457.175-.457-1.75zm-33-12.7c.006-3.3.192-4.53.415-2.73s.218 4.5-.0102 6-.410.0321-.405-3.27zm-4.08-6.5c0-1.92.206-2.71.457-1.75.252.962.252 2.54 0 3.5-.252.962-.457.175-.457-1.75zm-50.8-1.3c-.692-1.8 1.24-4.68 1.96-2.91.279.688 1.13 1.25 1.89 1.25.821 0 1.15.612.810 1.5-.715 1.86-3.97 1.97-4.66.159zm43.9-.250c-.336-.875-.383-1.96-.106-2.41.795-1.29 5.33 1.29 4.78 2.72-.694 1.81-3.94 1.59-4.67-.310zm12-5.41c.735-8.6 1.36-10.4 1.36-3.87 0 2.46.54 5.01 1.2 5.67.933.933.809 1.2-.559 1.2-.967 0-1.54.359-1.27.798.271.439.0718 1.45-.443 2.25-.598.928-.705-1.26-.295-6.05zm-64.8 4.08c-1.53-1.78-1.52-2.03.106-3.5 3.45-3.12 18.3-1.26 20.7 2.59.316.511-1.15.006-3.25-1.12-4.17-2.23-12.2-2.76-15.4-1.01-1.56.837-1.74 1.43-.899 3 1.33 2.48.882 2.49-1.22.0404zm45.6-.992c1.06-1.71 7.46-4.09 11-4.09 3.64 0 3.64-.0069 3.12-3.75-.416-2.98-.343-3.24.355-1.25.912 2.6 1.31 9.46.416 7.25-.745-1.85-6.23-1.48-11.1.741-2.36 1.07-4.05 1.57-3.77 1.1zm10.9-16.2c-1.19-2.17-1.74-3.68-1.23-3.37 1.11.685 4.21 6.49 3.73 6.97-.186.186-1.31-1.44-2.5-3.6zm6.9 1.64c-.614-1.35-2.81-4.39-4.88-6.75-3.45-3.95-3.49-4.06-.476-1.3 3.47 3.17 7.68 9.29 6.92 10.1-.248.248-.954-.651-1.57-2zm-93.9-4.2c.602-7.04 1.9-11.4 4.72-15.8 1.06-1.65 1.6-2.1 1.19-1-3.06 8.26-3.82 10.8-5.05 16.5l-1.39 6.5zm96.3 2.99c-1.24-1.59-1.21-1.62.378-.378 1.67 1.31 2.2 2.13 1.37 2.13-.208 0-.995-.788-1.75-1.75zm25.2-10.8c.048-1.16.285-1.4.604-.604.289.722.253 1.58-.0789 1.92-.332.332-.569-.258-.525-1.31zm-1.43-6.4c-1.43-7.16-7.57-18.1-13.3-23.7-3.15-3.07-4.72-5.05-3.5-4.4 2.66 1.42 12.1 10.7 12.1 11.9 0 .454.875 2.64 1.94 4.85 2.2 4.56 4.56 13.2 3.82 13.9-.273.273-.771-.878-1.11-2.56zm-6.33-4.92c-2.82-5.83-2.9-6.25-.752-3.59 2.26 2.8 5.07 9.29 4.28 9.91-.192.150-1.78-2.69-3.53-6.32zm-104-6.7c.0480-1.16.285-1.4.604-.604.289.722.253 1.58-.0790 1.92-.332.332-.569-.258-.525-1.31zm1.92-6.13c0-.574.788-1.66 1.75-2.42 1.62-1.27 1.64-1.22.283.628-.807 1.1-1.59 2.19-1.75 2.42-.156.229-.283-.0532-.283-.628zm4.5-6.29c.995-1.1 2.03-2 2.31-2 .275 0-.314.9-1.31 2-.995 1.1-2.03 2-2.31 2-.275 0 .314-.9 1.31-2zm94-2.31c-2.14-2.96-5.21-5.31-10.5-8.02-4.11-2.11-6.35-3.51-4.97-3.12 5.49 1.55 12 5.58 15.4 9.59 1.99 2.32 3.61 4.59 3.61 5.04 0 1.27-.293.984-3.53-3.49zm-97.5 1.7c-.0114-3.11 5.45-8.6 11.4-11.4 5.48-2.62 7.8-3.1 16.7-3.5l10.4-.460-9.07.894c-14.2 1.4-23.3 5.51-27.5 12.4-1.04 1.7-1.89 2.63-1.89 2.07zm86-5.48c-.901-.582-1.02-.975-.309-.985.655-.0084 1.47.435 1.81.985.767 1.24.421 1.24-1.5 0zm-14.3-10.8c-1.23-1.23-4.04-1.92-9.46-2.33l-7.72-.584 7.06-.166c6.11-.143 7.51.171 10.4 2.33 1.86 1.38 2.95 2.5 2.41 2.5-.539 0-1.77-.788-2.73-1.75zm-46-2.59c1.85-.907 5.68-1.43 10-1.37l7 .0986-8 .744c-4.4.409-8.9 1.03-10 1.37-1.1.345-.65-.0341 1-.843z" fill="#182228"/>
 <path d="m91.6 198c.699-1.84.585-3.31-.404-5.25-.757-1.48-1.71-4.26-2.13-6.18-1.01-4.68-3.45-8.24-5.2-7.57-2.34.896 2.82-7.38 6.48-10.4 3.08-2.54 3.17-2.79 1.5-4.23-.973-.843-3.94-2.78-6.58-4.3-6.03-3.47-8.03-6.42-7.5-11 .586-5.02-1.18-3.89-4.41 2.8-1.85 3.83-3.99 6.48-6.69 8.27-2.19 1.45-4.2 3.6-4.47 4.79-.269 1.19-.267-3.02.0034-9.35.340-7.95.0455-13.6-.954-18.3-1.68-7.86-1.17-11.1 2.92-18.5l2.9-5.24-3.25-5.94c-3.64-6.64-3.99-10.1-1.65-15.7 1.39-3.32 1.44-4.81.380-11-1.44-8.44-.569-12.2 4.07-17.5l3.03-3.45-2.98 4.31c-3.96 5.72-4.56 9.06-3.02 16.8 1.15 5.77 1.09 7.06-.519 11.8-1.98 5.81-1.67 7.94 1.97 13.6 3.78 5.88 3.77 7.12-.152 14.5-3.88 7.31-3.87 7.2-1.53 20.8.453 2.63.423 7.32-.0657 10.4-.489 3.12-.757 6.5-.595 7.51.273 1.7.456 1.72 2.54.250 2.14-1.51 2.26-2.28 2.39-15.8l.143-14.2.822 11.4c.452 6.3.991 12.1 1.2 13 .548 2.26 4.24-6.52 5.24-12.4.836-4.98.842-4.99 1.4-1.5.422 2.65 1.04 3.5 2.56 3.5 1.62 0 2.05.762 2.28 4 .157 2.2.566 4.68.909 5.5.343.825.515 1.95.382 2.5s.0751.683.463.295 3.29 1.05 6.45 3.2c6.37 4.33 9.01 9.02 9.01 16 0 2.8.428 3.98 1.44 3.98 2.06 0 2.9-1.79 3.13-6.67.224-4.59 3.42-11 5.28-10.6.628.138 1.14-.140 1.14-.617 0-1.1 7.98-6.43 8.07-5.4.241 2.62 1.8-4.08 1.86-7.99.0601-4.06.361-4.75 2.07-4.75 1.1 0 2.01-.562 2.02-1.25.0125-.688.773.273 1.69 2.13 1.42 2.88 1.76 3.11 2.32 1.52.439-1.25.831-.294 1.19 2.91.296 2.62 1.34 5.66 2.32 6.74 2.48 2.74 2.85 1.82 1.02-2.56-2.68-6.4-2.02-11.6 2.6-20.8 4.01-7.93 4.16-8.54 4-17-.0971-5.1.509-11.8 1.45-15.9.954-4.19 1.45-9.71 1.21-13.5-.262-4.11-.0859-5.82.493-4.78.495.885.619 5.28.275 9.77s-.952 14.5-1.35 22.2c-.716 13.8-.779 14.1-4.56 20.8-4.49 7.99-4.84 12.2-1.73 21.1 1.28 3.68 1.99 8.02 1.88 11.5-.163 5.22-.197 5.3-.514 1.09-.471-6.25-1.22-9.17-2.21-8.56-1.19.738-3.47-2.13-6.51-8.19-2.95-5.89-3.82-6.59-2.98-2.43.674 3.37-2.67 7.86-8.41 11.3-2.04 1.22-4.72 3.13-5.97 4.24l-2.26 2.02 3.26 2.69c3.75 3.09 8.8 11.3 6.39 10.4-.893-.343-1.94.288-2.64 1.59-.634 1.19-1.75 1.93-2.48 1.65-1.09-.417-1.08-.0277.0429 2.13 1.04 2.01 1.09 2.82.185 3.38-.653.404-.881 1.04-.506 1.41.375.375-.0125 2.02-.860 3.66-.871 1.68-1.28 4.02-.941 5.37l0.6 2.39h-20l.972-2.56zm14.7-18c-.332-.332-1.19-.368-1.92-.0789-.798.319-.561.556.604.604 1.05.0434 1.64-.193 1.31-.525zm54.6 6.6c-.0565-13.4 1.21-32.1 1.52-22.4.156 4.9.292 5.11 4.2 6.84 5.33 2.35 10.5 7.78 12.6 13.2.926 2.43 1.47 4.63 1.2 4.89-.266.266-.994-1.21-1.62-3.27-.623-2.07-2.54-5.46-4.26-7.54-3.18-3.85-10.6-8.39-11.8-7.21-.359.358-.908 6.8-1.22 14.3l-.567 13.7zm-141 5.42c.0480-1.16.285-1.4.604-.604.289.722.253 1.58-.0790 1.92-.332.332-.569-.258-.525-1.31zm161 0c.048-1.16.285-1.4.604-.604.289.722.253 1.58-.0789 1.92-.332.332-.569-.258-.525-1.31zm-160-3.2c-.164-2.66 3.15-8.85 6.67-12.5 2.01-2.06 3.94-3.75 4.28-3.75.344 0-1.27 1.98-3.58 4.39-2.32 2.42-4.9 6.35-5.75 8.75-.847 2.4-1.58 3.78-1.62 3.07zm22.2-2.72c.0111-2.2.216-2.98.455-1.74s.230 3.04-.0202 4c-.250.956-.446-.0617-.435-2.26zm99.9-10c-.157-8.05-.880-14.5-2.2-19.5-2.77-10.6-2.54-13.1 2.07-23.2l4.07-8.84-.676-11.3c-.585-9.73-.382-12.4 1.5-19.7 3.08-12 1.49-18.1-7.31-28-2.29-2.59-1.58-2.02 1.58 1.27 4.17 4.34 6.2 7.43 7.42 11.3 1.62 5.15 1.6 5.74-.616 16.9-1.98 9.99-2.14 12.4-1.17 17.2 1.95 9.7 1.48 13.2-2.87 21.8-4.54 8.93-5.04 13.7-2.47 23.6 1.08 4.17 1.44 9.5 1.22 18.1l-.314 12.2zm9.96 5.5c0-1.38.227-1.94.504-1.25.277.688.277 1.81 0 2.5-.277.688-.504.125-.504-1.25zm-120-3c.0480-1.16.285-1.4.604-.604.289.722.253 1.58-.0790 1.92-.332.332-.569-.258-.525-1.31zm9.05-2.16c-.0721-2.33.812-7.67 1.96-11.9 1.44-5.25 1.9-8.96 1.46-11.9-1.1-7.34-.653-19.8.917-25.5 2.13-7.78 1.93-10.4-1.53-20.4-3.49-10-3.4-11.4 1.4-22.1 2.75-6.15 3.19-8.4 3.64-18.6.476-10.7.751-12 3.52-16.4 1.65-2.65 5.02-6.4 7.5-8.34l4.5-3.54-4.08 3.93c-2.25 2.16-5.4 5.92-7 8.35-2.78 4.22-2.92 4.95-2.92 15.5 0 10.5-.181 11.5-3.84 20.4-4.27 10.4-4.28 11.7-.180 21.6 3.02 7.33 3.12 11.8.489 22.1-1.7 6.63-1.92 9.62-1.37 18.5.548 8.76.354 11.5-1.13 16-.984 2.96-2.11 7.87-2.5 10.9-.681 5.27-.719 5.33-.844 1.28zm22.1-.261c0-2.48.195-3.49.433-2.25s.238 3.26 0 4.5-.433.225-.433-2.25zm69.8 2.42c.048-1.16.285-1.4.604-.604.289.722.253 1.58-.0789 1.92-.332.332-.569-.258-.525-1.31zm-65.6-5.04c-.945-1.44-1.22-2.32-.620-1.94 1.15.713 3.48 4.57 2.76 4.57-.231 0-1.19-1.18-2.14-2.62zm66.6.814c-.074-1.47-.534-2.05-1.27-1.6-.744.460-.882.272-.387-.528 1.09-1.76 2.85.252 2.25 2.58-.384 1.49-0.5 1.4-.594-.453zm18.5-5.69c-1.62-14.9-1.39-17.4 2.33-25.4 3.94-8.45 4.08-11.2 1.03-20.1-2.93-8.61-2.28-15.9 2.42-27.2 4.65-11.2 5.2-15.1 3.11-22.4-2.36-8.23-5.9-13.9-13-20.8-4.33-4.25-4.9-5.05-1.98-2.79 2.25 1.75 4.69 3.89 5.41 4.76 1.05 1.26 1.48 1.32 2.14.288.591-.932.832-.733.856.703.0184 1.1 1.35 3.94 2.96 6.31 6.89 10.2 7.85 23 2.6 34.6-3.76 8.31-4.84 14.9-3.51 21.4.602 2.9 1.4 5.08 1.77 4.85.719-.444.926.893 1.39 8.94.233 4.07-.340 6.3-2.97 11.5-4.58 9.06-5.39 12.5-4.16 17.4.568 2.25.894 6.8.725 10.1l-.307 5.99zm-90.5.25c-.0893-1.98 1.44-2.34 2.52-.595.422.682.276.884-.356.494-.588-.363-1.3-.0954-1.58.595-.306.758-.538.562-.585-.494zm-9-1.33c.0480-1.16.285-1.4.604-.604.289.722.253 1.58-.0790 1.92-.332.332-.569-.258-.525-1.31zm-20.8-6.42c0-1.92.206-2.71.457-1.75.252.962.252 2.54 0 3.5-.252.962-.457.175-.457-1.75zm22.5-6c.267-5.22.463-11.6.436-14.2-.0949-9.17-.0365-19.8.137-25 .0965-2.89-.460-7.37-1.24-9.96-1.31-4.37-1.25-5.21.898-11.8 1.55-4.74 2.1-8.11 1.66-10.3-.357-1.79-.822-5.95-1.03-9.25l-.387-6 .822 5.5c.452 3.02 1.14 7.36 1.54 9.64.535 3.09.151 5.84-1.52 10.9l-2.23 6.71 2.17 7.3c2.09 7.03 2.11 7.54.550 13.5-1.35 5.19-1.42 7.07-.424 11.2.752 3.13.914 7.06.438 10.6-.415 3.1-1.1 9.01-1.53 13.1-.716 6.93-.738 6.77-.290-2zm-21.6-.145c-.0354-.905.881-4.7 2.04-8.44 1.74-5.64 1.91-7.42 1-10.5-.605-2.02-1.04-5.87-.963-8.56.136-4.84.144-4.82.849 1.38.896 7.88 1.67 8.71 2.56 2.75.726-4.84-.0654-8.83-5.04-25.4-1.38-4.6-2.51-10-2.51-12.1 0-4.37 2.28-12.1 5-17.1 7.55-13.7 8.47-16.3 8.69-24.9.120-4.6.521-8.65.891-9 .370-.346.452 3.78.182 9.18-.478 9.55-.645 10.1-6.34 21.5-7.59 15.2-8.06 20-3.39 34.7 4.76 15 4.87 21.4.594 36-1.93 6.6-3.53 11.3-3.57 10.4zm127-1.44c.048-1.16.285-1.4.604-.604.289.722.253 1.58-.0789 1.92-.332.332-.569-.258-.525-1.31zm2-42c.048-1.16.285-1.4.604-.604.289.722.253 1.58-.0789 1.92-.332.332-.569-.258-.525-1.31zm-29.9-1.42c0-1.38.227-1.94.504-1.25.277.688.277 1.81 0 2.5-.277.688-.504.125-.504-1.25zm31.1-4c0-1.92.206-2.71.457-1.75.252.962.252 2.54 0 3.5-.252.962-.457.175-.457-1.75zm-34-12.7c.006-3.3.192-4.53.415-2.73s.218 4.5-.0102 6-.410.0321-.405-3.27zm-4.08-6.5c0-1.92.206-2.71.457-1.75.252.962.252 2.54 0 3.5-.252.962-.457.175-.457-1.75zm-50.1-1.5c-.326-.849-.322-1.81.0072-2.14.712-.712 3.65 1.55 3.65 2.81 0 1.51-3.03.957-3.65-.666zm43.3.0752c-.310-.807-.113-1.75.437-2.09 1.26-.778 4.08 1.47 3.34 2.67-.860 1.39-3.16 1.04-3.78-.581zm12-5.53c.735-8.6 1.36-10.4 1.36-3.87 0 2.46.54 5.01 1.2 5.67.933.933.809 1.2-.559 1.2-.967 0-1.54.359-1.27.798.271.439.0718 1.45-.443 2.25-.598.928-.705-1.26-.295-6.05zm-64.8 4.08c-1.53-1.78-1.52-2.03.106-3.5 3.45-3.12 18.3-1.26 20.7 2.59.316.511-1.15.006-3.25-1.12-4.17-2.23-12.2-2.76-15.4-1.01-1.56.837-1.74 1.43-.899 3 1.33 2.48.882 2.49-1.22.0404zm45.6-.992c1.06-1.71 7.46-4.09 11-4.09 3.64 0 3.64-.0069 3.12-3.75-.416-2.98-.343-3.24.355-1.25.912 2.6 1.31 9.46.416 7.25-.745-1.85-6.23-1.48-11.1.741-2.36 1.07-4.05 1.57-3.77 1.1zm10.9-16.2c-1.19-2.17-1.74-3.68-1.23-3.37 1.11.685 4.21 6.49 3.73 6.97-.186.186-1.31-1.44-2.5-3.6zm6.9 1.64c-.614-1.35-2.81-4.39-4.88-6.75-3.45-3.95-3.49-4.06-.476-1.3 3.47 3.17 7.68 9.29 6.92 10.1-.248.248-.954-.651-1.57-2zm-93.9-4.3c.602-7.04 1.9-11.4 4.72-15.8 1.06-1.65 1.6-2.1 1.19-1-3.06 8.26-3.82 10.8-5.05 16.5l-1.39 6.5zm96.3 2.99c-1.24-1.59-1.21-1.62.378-.378 1.67 1.31 2.2 2.13 1.37 2.13-.208 0-.995-.788-1.75-1.75zm25.2-10.8c.048-1.16.285-1.4.604-.604.289.722.253 1.58-.0789 1.92-.332.332-.569-.258-.525-1.31zm-1.43-6.4c-1.43-7.16-7.57-18.1-13.3-23.7-3.15-3.07-4.72-5.05-3.5-4.4 2.66 1.42 12.1 10.7 12.1 11.9 0 .454.875 2.64 1.94 4.85 2.2 4.56 4.56 13.2 3.82 13.9-.273.273-.771-.878-1.11-2.56zm-6.33-4.92c-2.82-5.83-2.9-6.25-.752-3.59 2.26 2.8 5.07 9.29 4.28 9.91-.192.150-1.78-2.69-3.53-6.32zm-104-6.7c.0480-1.16.285-1.4.604-.604.289.722.253 1.58-.0790 1.92-.332.332-.569-.258-.525-1.31zm1.92-6.13c0-.574.788-1.66 1.75-2.42 1.62-1.27 1.64-1.22.283.628-.807 1.1-1.59 2.19-1.75 2.42-.156.229-.283-.0532-.283-.628zm4.5-6.29c.995-1.1 2.03-2 2.31-2 .275 0-.314.9-1.31 2-.995 1.1-2.03 2-2.31 2-.275 0 .314-.9 1.31-2zm94-2.31c-2.14-2.96-5.21-5.31-10.5-8.02-4.11-2.11-6.35-3.51-4.97-3.12 5.49 1.55 12 5.58 15.4 9.59 1.99 2.32 3.61 4.59 3.61 5.04 0 1.27-.293.984-3.53-3.49zm-97.5 1.7c-.0114-3.11 5.45-8.6 11.4-11.4 5.48-2.62 7.8-3.1 16.7-3.5l10.4-.460-9.07.894c-14.2 1.4-23.3 5.51-27.5 12.4-1.04 1.7-1.89 2.63-1.89 2.07zm86-5.48c-.901-.582-1.02-.975-.309-.985.655-.0084 1.47.435 1.81.985.767 1.24.421 1.24-1.5 0zm-14.3-10.8c-1.23-1.23-4.04-1.92-9.46-2.33l-7.72-.584 7.06-.166c6.11-.143 7.51.171 10.4 2.33 1.86 1.38 2.95 2.5 2.41 2.5-.539 0-1.77-.788-2.73-1.75zm-46-2.59c1.85-.907 5.68-1.43 10-1.37l7 .0986-8 .744c-4.4.409-8.9 1.03-10 1.37-1.1.345-.65-.0341 1-.843z" fill="#231613"/>
 <path d="m91.6 198c.699-1.84.585-3.31-.404-5.25-.757-1.48-1.7-4.27-2.11-6.19-.401-1.92-1.79-4.91-3.09-6.64l-2.36-3.14 3.06-4.22c1.68-2.32 3.94-4.45 5.01-4.73 2.86-.749 1.84-2.37-3.7-5.86-8.68-5.47-10.7-7.9-10.3-12.4.513-5.38-1.06-4.56-4.35 2.25-1.59 3.3-4.02 6.46-6 7.8l-3.33 2.25 3.66-3.6c2.01-1.98 4.42-5.58 5.34-8.01 1.06-2.79 2.63-4.83 4.25-5.57 3.22-1.47 3.87-.560 4.11 5.7.0971 2.57.685 5.13 1.31 5.7.813.743.927.612.408-.466-.398-.825.211-.438 1.35.861s2.09 1.97 2.11 1.5c.0175-.473.692.0127 1.5 1.08s1.48 1.52 1.5 1c.0175-.518.692-.0676 1.5 1s1.47 1.58 1.47 1.13c0-.447.670-.257 1.49.422.819.680 1.24 1.63.941 2.12-.301.488-.0449.887.570.887s.840.45.5 1-.0933 1 .548 1 .907.675.590 1.5-.177 1.5.310 1.5.885 2 .885 4.44c0 3.3-.427 4.56-1.67 4.88-.917.243.808 0.5 3.83.572 8.37.199 10.5 1.67 10.5 7.32.0233 2.56-.303 4.43-.725 4.17-.422-.261-.614 1.57-.427 4.07l.340 4.54h-19.4zm-72-6c.0480-1.16.285-1.4.604-.604.289.722.253 1.58-.0790 1.92-.332.332-.569-.258-.525-1.31zm161 0c.048-1.16.285-1.4.604-.604.289.722.253 1.58-.0789 1.92-.332.332-.569-.258-.525-1.31zm-160-3c-.110-2.91 3.7-9.54 7.47-13l3.81-3.5-4.13 4.82c-2.27 2.65-4.8 6.7-5.61 9-.814 2.3-1.51 3.5-1.54 2.68zm158-3c-1.52-5.08-7.14-11.5-12.4-14.1-2.35-1.18-3.15-1.85-1.78-1.48 3.7.985 8.78 4.7 11.5 8.42 2.46 3.34 5.03 9.73 4.23 10.5-.242.242-.952-1.27-1.58-3.36zm-70.7-5.33-5-1.7.122-5.03c.127-5.25 3.16-11.9 5.24-11.4.628.138 1.14-.156 1.14-.651 0-.906 5.73-4.65 7.39-4.83 1.68-.181 2.58-2.77 2.6-7.46.008-2.58.485-4.98 1.06-5.34 1.9-1.18 6.05 2.59 8.09 7.34 1.1 2.58 2.76 5.58 3.69 6.67 1.6 1.89 1.59 1.91-.153.560-1.01-.783-3.15-4.04-4.76-7.23-3.24-6.42-4.14-7.24-3.29-2.99.674 3.37-2.67 7.86-8.41 11.3-2.04 1.22-4.72 3.13-5.97 4.24l-2.26 2.02 3.26 2.71c1.79 1.49 4 4 4.91 5.57 1.58 2.73 1.56 2.98-.5 5.4l-2.16 2.54zm-31.1-93.7c-.326-.849-.322-1.81.0072-2.14.712-.712 3.65 1.55 3.65 2.81 0 1.51-3.03.957-3.65-.666zm43.3.0752c-.310-.807-.113-1.75.437-2.09 1.26-.778 4.08 1.47 3.34 2.67-.860 1.39-3.16 1.04-3.78-.581zm-53.5-3.4c0-.514.670-1.49 1.49-2.17 1.92-1.59 15-.942 16.7.836 1.03 1.04.740 1.08-1.55.218-4.15-1.57-11.9-1.3-14.5.494-1.22.856-2.22 1.14-2.22.622zm67-.238c0-.582.45-.781 1-.441s1 .816 1 1.06c0 .243-.45.441-1 .441s-1-.477-1-1.06zm-17.3-.907c.640-.693 3.34-1.42 6-1.61l4.84-.348-4.7.871c-2.58.479-5.28 1.2-6 1.61-1 .567-1.03.447-.137-.523z" fill="#100f10"/>
</svg>
