<!DOCTYPE svg PUBLIC "-//W3C//DTD SVG 20010904//EN" "http://www.w3.org/TR/2001/REC-SVG-20010904/DTD/svg10.dtd">
<svg version="1.0" xmlns="http://www.w3.org/2000/svg" width="200px" height="200px" viewBox="0 0 2000 2000" preserveAspectRatio="xMidYMid meet">
<g id="layer101" fill="#feeae5" stroke="none">
 <path d="M173 1945 c7 -73 51 -168 97 -209 36 -32 37 -36 43 -118 4 -47 16 -116 27 -152 17 -54 19 -73 10 -104 -13 -48 -13 -111 1 -150 9 -27 6 -45 -17 -114 -37 -107 -39 -209 -6 -282 13 -29 22 -69 22 -100 0 -85 27 -185 63 -240 19 -29 39 -77 46 -111 23 -112 32 -135 62 -170 16 -18 51 -42 77 -51 26 -10 67 -31 92 -48 l45 -31 219 -3 c215 -3 219 -3 255 20 20 13 56 30 81 37 126 37 202 97 235 187 10 27 28 77 41 110 13 34 29 97 35 140 6 44 22 106 34 139 22 57 24 71 20 240 -2 146 -7 192 -23 242 -15 46 -19 79 -15 122 3 33 1 73 -5 90 -8 23 -7 49 3 104 8 39 17 97 20 129 6 50 9 57 35 68 16 7 49 33 73 59 48 51 87 147 87 213 l0 38 -831 0 -832 0 6 -55z"/>
 </g>
<g id="layer102" fill="#f4d7d3" stroke="none">
 <path d="M173 1945 c7 -73 51 -168 97 -209 36 -32 37 -36 43 -118 4 -47 16 -116 27 -152 17 -54 19 -73 10 -104 -13 -48 -13 -111 1 -150 9 -27 6 -45 -17 -114 -37 -107 -39 -209 -6 -282 13 -29 22 -69 22 -100 0 -85 27 -185 63 -240 19 -29 39 -77 46 -111 23 -112 32 -135 62 -170 16 -18 51 -42 77 -51 26 -10 67 -31 92 -48 l45 -31 219 -3 c215 -3 219 -3 255 20 20 13 56 30 81 37 126 37 202 97 235 187 10 27 28 77 41 110 13 34 29 97 35 140 6 44 22 106 34 139 22 57 24 71 20 240 -2 146 -7 192 -23 242 -15 46 -19 79 -15 122 3 33 1 73 -5 90 -8 23 -7 49 3 104 8 39 17 97 20 129 6 50 9 57 35 68 16 7 49 33 73 59 48 51 87 147 87 213 l0 38 -831 0 -832 0 6 -55z m839 -190 c3 -14 1 -28 -3 -31 -5 -3 -9 9 -9 25 0 38 6 40 12 6z m278 -647 c0 -9 -4 -20 -10 -23 -6 -4 -10 9 -10 32 0 28 3 34 10 23 5 -8 10 -23 10 -32z m-279 -31 c-1 -4 -1 -14 -1 -22 0 -8 -4 -15 -9 -15 -12 0 -23 29 -15 41 6 11 26 8 25 -4z m169 -240 c0 -2 -12 -14 -27 -28 l-26 -24 19 27 c16 23 34 36 34 25z"/>
 </g>
<g id="layer103" fill="#e6c3be" stroke="none">
 <path d="M173 1945 c7 -73 51 -168 97 -209 36 -32 37 -36 43 -118 4 -47 16 -116 27 -152 17 -54 19 -73 10 -104 -13 -48 -13 -111 1 -150 9 -27 6 -45 -17 -114 -37 -107 -39 -209 -6 -282 13 -29 22 -69 22 -100 0 -85 27 -185 63 -240 19 -29 39 -77 46 -111 23 -112 32 -135 62 -170 16 -18 51 -42 77 -51 26 -10 67 -31 92 -48 l45 -31 219 -3 c215 -3 219 -3 255 20 20 13 56 30 81 37 126 37 202 97 235 187 10 27 28 77 41 110 13 34 29 97 35 140 6 44 22 106 34 139 22 57 24 71 20 240 -2 146 -7 192 -23 242 -15 46 -19 79 -15 122 3 33 1 73 -5 90 -8 23 -7 49 3 104 8 39 17 97 20 129 6 50 9 57 35 68 16 7 49 33 73 59 48 51 87 147 87 213 l0 38 -831 0 -832 0 6 -55z m845 -217 c12 -66 33 -92 133 -169 48 -38 32 -44 -32 -12 -83 41 -144 42 -223 5 -94 -44 -89 -24 12 48 42 30 75 83 77 125 4 55 6 65 13 65 5 0 14 -28 20 -62z m102 -304 c38 -20 87 -54 111 -77 52 -52 108 -137 115 -177 4 -16 10 -27 14 -25 12 8 21 -27 20 -77 -1 -61 1 -81 12 -95 6 -7 12 -38 15 -70 4 -48 1 -68 -20 -115 -37 -83 -59 -79 -56 10 0 37 -4 80 -10 95 -14 36 -14 104 -1 112 6 4 8 15 5 25 -3 10 -2 21 4 24 20 13 -8 136 -49 216 -19 37 -40 53 -40 30 0 -5 3 -10 8 -10 4 0 8 -15 8 -32 1 -18 9 -59 18 -91 16 -57 16 -61 -8 -147 -13 -49 -22 -91 -19 -94 3 -2 -6 -16 -19 -31 l-24 -26 -19 21 c-10 11 -27 20 -38 20 -18 0 -17 -3 7 -35 28 -36 26 -56 -8 -85 -24 -19 -19 -30 14 -30 23 0 30 5 30 19 0 29 17 35 30 11 6 -11 18 -20 26 -20 11 0 14 -6 10 -16 -3 -9 -6 -19 -6 -24 0 -13 -71 -4 -115 14 -44 19 -55 20 -55 6 0 -16 80 -50 118 -50 17 0 32 -2 32 -5 0 -8 -55 -82 -101 -136 -28 -33 -51 -72 -59 -102 -12 -43 -30 -64 -30 -34 0 14 -124 87 -147 87 -24 0 -93 42 -86 53 3 6 1 7 -5 3 -14 -9 -77 24 -93 49 -10 16 -6 15 22 -6 19 -14 41 -29 49 -33 8 -4 2 3 -15 15 -16 13 -50 43 -74 68 -44 44 -49 39 -8 -6 18 -20 18 -23 4 -23 -9 0 -17 6 -17 13 0 6 -9 23 -20 37 -25 32 -25 50 1 50 12 0 17 4 14 11 -4 6 -13 8 -21 5 -8 -3 -14 1 -14 10 0 8 5 12 10 9 6 -3 10 -2 10 4 0 5 -5 13 -10 16 -7 4 -7 11 -2 18 5 7 8 32 8 57 -1 25 2 50 7 57 5 7 4 19 -3 30 -9 15 -10 14 -4 -7 6 -24 6 -24 -10 -5 -19 25 -22 89 -3 82 7 -3 23 11 36 30 12 19 17 32 11 28 -9 -5 -10 1 -6 21 9 44 10 109 3 121 -18 29 125 170 218 214 85 41 138 39 225 -7z m140 -591 c0 -35 -1 -36 -19 -19 -16 15 -18 21 -8 37 18 29 27 23 27 -18z"/>
 <path d="M918 1293 c-22 -6 -23 -29 -2 -37 20 -8 148 -8 168 0 23 9 19 31 -6 38 -26 6 -134 6 -160 -1z"/>
 <path d="M958 1139 c-38 -22 -20 -37 42 -37 67 0 81 9 48 32 -25 18 -65 20 -90 5z"/>
 <path d="M720 903 c0 -4 12 -19 26 -34 l26 -27 -26 -35 c-32 -42 -32 -47 -2 -47 17 0 26 7 30 26 8 30 30 27 34 -4 3 -17 10 -22 33 -22 30 0 40 17 15 26 -8 3 -22 17 -31 31 -16 24 -16 26 9 52 31 32 32 41 7 41 -10 0 -27 -12 -36 -27 l-17 -26 -17 26 c-14 24 -51 38 -51 20z"/>
 <path d="M920 839 c0 -11 5 -17 10 -14 6 3 10 13 10 21 0 8 -4 14 -10 14 -5 0 -10 -9 -10 -21z"/>
 <path d="M855 738 c-33 -17 -50 -20 -109 -15 -52 5 -66 3 -58 -5 17 -17 124 -22 165 -9 38 13 81 51 56 51 -8 -1 -32 -10 -54 -22z"/>
 </g>
<g id="layer104" fill="#dda69d" stroke="none">
 <path d="M173 1945 c7 -73 51 -168 97 -209 36 -32 37 -36 43 -118 4 -47 16 -116 27 -152 17 -54 19 -73 10 -104 -13 -48 -13 -111 1 -150 9 -27 6 -45 -17 -114 -37 -107 -39 -209 -6 -282 13 -29 22 -69 22 -100 0 -85 27 -185 63 -240 19 -29 39 -77 46 -111 23 -112 32 -135 62 -170 16 -18 51 -42 77 -51 26 -10 67 -31 92 -48 l45 -31 219 -3 c215 -3 219 -3 255 20 20 13 56 30 81 37 126 37 202 97 235 187 10 27 28 77 41 110 13 34 29 97 35 140 6 44 22 106 34 139 22 57 24 71 20 240 -2 146 -7 192 -23 242 -15 46 -19 79 -15 122 3 33 1 73 -5 90 -8 23 -7 49 3 104 8 39 17 97 20 129 6 50 9 57 35 68 16 7 49 33 73 59 48 51 87 147 87 213 l0 38 -831 0 -832 0 6 -55z m845 -217 c13 -68 28 -89 110 -150 28 -21 52 -45 52 -53 0 -19 5 -20 -64 15 -80 41 -151 41 -230 1 -87 -43 -83 -13 7 48 60 41 75 64 88 140 6 33 14 61 18 61 4 0 13 -28 19 -62z m64 -282 c68 -28 173 -101 218 -152 49 -56 69 -112 80 -216 5 -51 14 -109 19 -128 17 -55 13 -105 -13 -165 -35 -79 -58 -76 -55 8 1 34 -4 82 -11 105 -11 35 -11 58 -2 113 18 104 15 132 -20 204 -30 60 -56 88 -44 48 36 -133 38 -151 16 -226 -11 -40 -20 -85 -20 -100 0 -15 -3 -27 -8 -27 -4 0 -15 -12 -23 -27 l-17 -26 -17 26 c-9 15 -26 27 -37 27 -19 0 -19 -2 7 -36 l27 -36 -21 -29 c-26 -35 -26 -39 -1 -39 10 0 25 10 31 22 l12 22 15 -22 c8 -12 21 -22 29 -22 10 0 13 -6 9 -16 -3 -9 -6 -20 -6 -25 0 -15 -47 -10 -102 11 -61 23 -68 24 -68 10 0 -16 80 -50 118 -50 17 0 32 -4 32 -9 0 -5 -19 -32 -42 -61 -81 -98 -97 -122 -114 -168 -10 -26 -18 -48 -19 -50 -1 -1 -16 10 -33 26 -17 16 -69 44 -114 62 -239 95 -299 167 -267 326 8 41 7 60 -5 95 -22 63 -20 88 14 139 30 46 41 112 20 125 -22 13 -9 62 26 103 70 82 237 182 304 182 14 0 51 -11 82 -24z m178 -613 c0 -35 -1 -36 -19 -19 -16 15 -18 21 -8 37 18 29 27 23 27 -18z"/>
 <path d="M923 1290 c-58 -23 5 -45 107 -38 69 5 83 14 56 34 -22 16 -127 18 -163 4z"/>
 <path d="M967 1138 c-43 -16 -27 -31 36 -33 57 -1 68 4 45 23 -22 17 -52 21 -81 10z"/>
 <path d="M720 903 c0 -4 12 -19 26 -34 l26 -28 -21 -27 c-26 -33 -27 -44 -2 -44 11 0 23 9 26 20 3 11 10 20 15 20 5 0 14 -9 20 -20 6 -11 20 -20 31 -20 19 0 18 2 -7 35 l-27 36 27 27 c31 33 33 42 7 42 -10 0 -27 -12 -36 -27 l-17 -26 -17 26 c-14 24 -51 38 -51 20z"/>
 <path d="M855 738 c-33 -17 -50 -20 -109 -15 -52 5 -66 3 -58 -5 17 -17 124 -22 165 -9 38 13 81 51 56 51 -8 -1 -32 -10 -54 -22z"/>
 </g>
<g id="layer105" fill="#c1867d" stroke="none">
 <path d="M173 1952 c9 -79 46 -163 92 -209 41 -42 42 -45 48 -127 4 -46 16 -114 27 -150 17 -54 19 -73 10 -104 -13 -48 -13 -111 1 -150 9 -27 6 -45 -17 -114 -37 -107 -39 -209 -6 -282 13 -29 22 -69 22 -100 0 -85 27 -185 63 -240 19 -29 39 -77 46 -111 23 -112 32 -135 62 -170 16 -18 51 -42 77 -51 26 -10 67 -31 92 -48 l45 -31 219 -3 c215 -3 219 -3 255 20 20 13 56 30 81 37 126 37 202 97 235 187 10 27 28 77 41 110 13 34 29 97 35 140 6 44 22 106 34 139 22 57 24 71 20 240 -2 146 -7 192 -23 242 -15 46 -19 79 -15 122 3 33 1 73 -5 90 -8 23 -7 49 3 104 8 39 17 98 21 129 4 46 9 58 26 64 43 13 117 94 138 151 11 30 18 58 15 63 -3 5 -1 11 5 15 5 3 10 24 10 46 l0 39 -831 0 -832 0 6 -48z m845 -224 c12 -65 33 -92 131 -168 27 -21 32 -32 33 -70 1 -25 5 -50 10 -57 5 -7 5 -14 -2 -18 -5 -3 -10 -2 -10 3 0 5 -30 23 -67 38 -89 38 -146 37 -234 -3 l-65 -30 2 41 c1 23 2 49 3 58 0 10 28 36 61 58 74 50 88 70 101 149 6 33 14 61 18 61 4 0 13 -28 19 -62z m77 -280 c139 -69 244 -160 271 -235 7 -21 13 -72 14 -113 0 -41 7 -100 15 -130 21 -78 19 -121 -9 -185 -35 -79 -58 -76 -55 8 1 34 -4 82 -11 105 -11 35 -11 58 -2 113 18 104 15 132 -20 204 -30 60 -56 88 -44 48 36 -133 38 -151 16 -226 -11 -40 -20 -85 -20 -100 0 -15 -3 -27 -8 -27 -4 0 -15 -12 -23 -27 l-17 -26 -17 26 c-9 15 -26 27 -37 27 -19 0 -19 -2 7 -36 l27 -36 -21 -29 c-26 -35 -26 -39 -1 -39 10 0 25 10 31 22 l12 22 15 -22 c8 -12 21 -22 29 -22 10 0 13 -6 9 -16 -3 -9 -6 -20 -6 -25 0 -15 -47 -10 -102 11 -61 23 -68 24 -68 10 0 -16 80 -50 118 -50 17 0 32 -4 32 -9 0 -5 -19 -32 -42 -61 -81 -98 -97 -122 -114 -168 -10 -26 -18 -48 -19 -50 -1 -1 -16 10 -33 26 -17 16 -69 44 -114 62 -239 95 -299 167 -267 326 8 41 7 60 -5 95 -22 63 -20 88 14 139 34 51 38 94 13 138 -16 27 -16 33 -3 58 20 37 83 104 97 104 7 0 16 6 20 13 9 14 140 85 181 97 35 12 86 3 137 -22z m165 -615 c0 -35 -1 -36 -19 -19 -16 15 -18 21 -8 37 18 29 27 23 27 -18z"/>
 <path d="M940 1293 c-40 -8 -46 -21 -16 -33 56 -21 195 -5 170 20 -12 12 -118 21 -154 13z"/>
 <path d="M720 903 c0 -4 12 -19 26 -34 l26 -28 -21 -27 c-26 -33 -27 -44 -2 -44 11 0 23 9 26 20 3 11 10 20 15 20 5 0 14 -9 20 -20 6 -11 20 -20 31 -20 19 0 18 2 -7 35 l-27 36 27 27 c31 33 33 42 7 42 -10 0 -27 -12 -36 -27 l-17 -26 -17 26 c-14 24 -51 38 -51 20z"/>
 <path d="M855 738 c-33 -17 -50 -20 -109 -15 -52 5 -66 3 -58 -5 17 -17 124 -22 165 -9 38 13 81 51 56 51 -8 -1 -32 -10 -54 -22z"/>
 </g>
<g id="layer106" fill="#6a5754" stroke="none">
 <path d="M175 1983 c4 -10 12 -49 19 -88 15 -84 34 -122 79 -162 32 -28 34 -34 40 -115 4 -47 16 -116 27 -152 17 -54 19 -73 10 -104 -13 -48 -13 -111 1 -150 9 -27 6 -45 -17 -114 -37 -107 -39 -209 -6 -282 13 -29 22 -69 22 -100 0 -85 27 -185 63 -240 19 -29 39 -77 46 -111 23 -112 32 -135 62 -170 16 -18 51 -42 77 -51 26 -10 67 -31 92 -48 l45 -31 219 -3 c215 -3 219 -3 255 20 20 13 56 30 81 37 126 37 202 97 235 187 10 27 28 77 41 110 13 34 29 97 35 140 6 44 22 106 34 139 22 57 24 71 20 240 -2 146 -7 192 -23 242 -15 46 -19 79 -15 122 3 33 1 73 -5 90 -8 23 -7 49 3 104 8 39 17 97 20 129 6 50 9 57 34 68 40 16 107 88 127 135 9 22 18 58 19 80 2 22 7 52 10 68 l7 27 -832 0 c-788 0 -832 -1 -825 -17z m843 -255 c13 -67 28 -89 108 -148 49 -37 51 -41 62 -105 11 -66 13 -70 81 -134 92 -88 111 -127 111 -233 0 -46 7 -108 15 -138 21 -78 19 -121 -9 -185 -35 -79 -58 -76 -55 8 1 34 -4 82 -11 105 -11 35 -11 58 -2 113 18 104 15 132 -20 204 -30 60 -56 88 -44 48 36 -133 38 -151 16 -226 -11 -40 -20 -85 -20 -100 0 -15 -3 -27 -8 -27 -4 0 -15 -12 -23 -27 l-17 -26 -17 26 c-9 15 -26 27 -37 27 -19 0 -19 -2 7 -36 l27 -36 -21 -29 c-26 -35 -26 -39 -1 -39 10 0 25 10 31 22 l12 22 15 -22 c8 -12 21 -22 29 -22 10 0 13 -6 9 -16 -3 -9 -6 -20 -6 -25 0 -15 -47 -10 -102 11 -61 23 -68 24 -68 10 0 -16 80 -50 118 -50 17 0 32 -4 32 -9 0 -5 -19 -32 -42 -61 -81 -98 -97 -122 -114 -168 -10 -26 -18 -48 -19 -50 -1 -1 -16 10 -33 26 -17 16 -69 44 -114 62 -239 95 -299 167 -267 326 8 41 7 60 -5 95 -22 63 -20 88 14 139 35 53 39 100 10 141 -19 26 -20 30 -6 58 9 16 45 56 81 88 37 33 66 68 69 83 3 14 8 44 11 68 6 38 13 47 66 83 73 49 87 70 100 148 6 33 14 61 18 61 4 0 13 -28 19 -62z m242 -895 c0 -35 -1 -36 -19 -19 -16 15 -18 21 -8 37 18 29 27 23 27 -18z"/>
 <path d="M915 1279 c-12 -18 3 -22 73 -23 72 -1 107 8 97 24 -8 13 -162 13 -170 -1z"/>
 <path d="M720 903 c0 -4 12 -19 26 -34 l26 -28 -21 -27 c-26 -33 -27 -44 -2 -44 11 0 23 9 26 20 3 11 10 20 15 20 5 0 14 -9 20 -20 6 -11 20 -20 31 -20 19 0 18 2 -7 35 l-27 36 27 27 c31 33 33 42 7 42 -10 0 -27 -12 -36 -27 l-17 -26 -17 26 c-14 24 -51 38 -51 20z"/>
 <path d="M855 738 c-33 -17 -50 -20 -109 -15 -52 5 -66 3 -58 -5 17 -17 124 -22 165 -9 38 13 81 51 56 51 -8 -1 -32 -10 -54 -22z"/>
 </g>
<g id="layer107" fill="#504643" stroke="none">
 <path d="M175 1983 c3 -10 11 -38 16 -63 25 -126 33 -144 82 -187 32 -28 34 -34 40 -115 4 -47 16 -116 27 -152 17 -54 19 -73 10 -104 -13 -48 -13 -111 1 -150 9 -27 6 -45 -17 -114 -37 -107 -39 -209 -6 -282 13 -29 22 -69 22 -100 0 -85 27 -185 63 -240 19 -29 39 -77 46 -111 23 -112 32 -135 62 -170 16 -18 51 -42 77 -51 26 -10 67 -31 92 -48 l45 -31 219 -3 c215 -3 219 -3 255 20 20 13 56 30 81 37 126 37 202 97 235 187 10 27 28 77 41 110 13 34 29 97 35 140 6 44 22 106 34 139 22 57 24 71 20 240 -2 146 -7 192 -23 242 -15 46 -19 79 -15 122 3 33 1 73 -5 90 -8 23 -7 49 3 104 8 39 17 97 20 129 6 50 9 57 34 68 40 16 107 88 127 135 9 22 18 58 19 80 2 22 7 52 10 68 l7 27 -832 0 c-788 0 -832 -1 -825 -17z m836 -200 c1 -5 3 -21 5 -38 2 -16 6 -41 9 -55 7 -28 73 -100 91 -100 7 0 26 -13 42 -30 25 -24 30 -39 34 -90 4 -60 5 -61 75 -128 93 -88 110 -123 114 -237 2 -50 11 -122 20 -161 19 -79 15 -107 -19 -171 -34 -65 -49 -56 -57 34 -10 115 -10 211 -1 275 8 53 6 62 -25 128 -19 38 -37 70 -42 70 -9 0 2 -50 15 -67 5 -7 7 -17 4 -22 -4 -5 -2 -12 3 -16 13 -7 4 -134 -11 -152 -6 -8 -11 -36 -10 -64 1 -36 -3 -49 -14 -49 -8 0 -14 -6 -14 -14 0 -7 -6 -19 -13 -25 -11 -8 -18 -6 -32 9 -30 33 -49 25 -23 -10 l22 -30 -22 -29 c-27 -37 -11 -53 22 -22 26 24 36 26 36 7 0 -7 9 -16 20 -19 23 -6 27 -39 7 -55 -14 -12 -94 2 -111 19 -12 11 -46 12 -46 1 0 -14 45 -31 100 -38 27 -4 50 -10 50 -14 0 -5 -27 -37 -59 -71 -62 -67 -105 -139 -116 -194 -1 -5 -3 -14 -3 -18 -1 -4 -17 8 -36 27 -19 18 -56 41 -83 51 -174 62 -263 120 -300 195 -23 47 -24 86 -3 157 10 31 9 46 -5 83 -23 61 -22 84 11 133 34 51 38 115 10 146 -16 18 -17 24 -6 51 7 17 44 60 83 95 69 63 70 65 75 122 5 66 15 80 93 134 61 41 79 73 79 139 0 20 3 40 7 43 9 9 23 9 24 0z m362 -346 c2 -32 0 -52 -4 -45 -5 7 -8 38 -8 68 1 66 6 56 12 -23z m-774 -266 c1 -48 -5 -35 -12 24 -4 32 -3 43 3 30 5 -11 9 -35 9 -54z m-112 -193 c-2 -13 -4 -3 -4 22 0 25 2 35 4 23 2 -13 2 -33 0 -45z m800 -55 c-2 -16 -4 -5 -4 22 0 28 2 40 4 28 2 -13 2 -35 0 -50z m-911 -65 c5 -10 4 -10 -6 -1 -7 6 -14 33 -16 60 l-3 48 8 -47 c5 -26 13 -53 17 -60z m885 5 c5 -33 6 -73 2 -73 -3 0 -13 10 -23 22 -14 17 -15 26 -6 40 11 18 25 24 27 11z m319 -149 c-19 -50 -85 -127 -151 -178 -63 -49 -63 -48 26 40 54 53 98 106 109 132 21 47 33 52 16 6z m-309 -42 c-10 -15 -32 -38 -47 -52 -26 -23 -26 -22 4 15 18 22 37 45 42 51 5 7 6 15 2 20 -4 4 -1 4 6 0 9 -6 8 -14 -7 -34z m-5 -57 c-25 -32 -46 -45 -46 -28 0 11 63 73 68 68 3 -2 -7 -20 -22 -40z m-526 -221 c0 -2 -13 2 -30 11 -16 9 -30 18 -30 21 0 2 14 -2 30 -11 17 -9 30 -18 30 -21z m709 -80 c-18 -20 -47 -42 -64 -50 l-30 -14 25 17 c14 10 41 33 60 50 47 43 52 42 9 -3z"/>
 <path d="M915 1279 c-12 -18 3 -22 73 -23 72 -1 107 8 97 24 -8 13 -162 13 -170 -1z"/>
 <path d="M736 888 c4 -7 14 -21 22 -31 14 -16 13 -20 -6 -47 -27 -36 -27 -40 -3 -40 11 0 23 9 26 20 3 11 10 20 14 20 4 0 16 -9 26 -20 10 -11 25 -20 33 -20 11 0 8 9 -12 29 -29 30 -29 38 0 79 15 20 15 22 -1 22 -9 0 -25 -10 -35 -22 l-17 -22 -14 22 c-14 23 -46 32 -33 10z"/>
 <path d="M850 736 c-35 -19 -56 -23 -93 -20 -32 3 -46 1 -42 -6 9 -15 110 -12 148 3 37 16 68 47 46 47 -8 -1 -34 -12 -59 -24z"/>
 </g>
<g id="layer108" fill="#413c43" stroke="none">
 <path d="M170 1991 c0 -6 5 -13 10 -16 6 -3 10 -19 10 -35 0 -33 24 -129 39 -158 6 -11 25 -33 44 -49 32 -28 34 -34 40 -115 4 -47 16 -116 27 -152 17 -54 19 -73 10 -104 -13 -48 -13 -111 1 -150 9 -27 6 -45 -17 -114 -37 -107 -39 -209 -6 -282 13 -29 22 -69 22 -100 0 -85 27 -185 63 -240 19 -29 39 -77 46 -111 23 -112 32 -135 62 -170 16 -18 51 -42 77 -51 26 -10 67 -31 92 -48 l45 -31 219 -3 c215 -3 219 -3 255 20 20 13 56 30 81 37 126 37 202 97 235 187 10 27 28 77 41 110 13 34 29 97 35 140 6 44 22 106 34 139 22 57 24 71 20 240 -2 146 -7 192 -23 242 -15 46 -19 79 -15 122 3 33 1 73 -5 90 -8 23 -7 49 3 104 8 39 17 97 20 129 6 50 9 57 34 68 40 16 107 88 127 135 9 22 18 58 19 80 2 22 7 52 10 68 l7 27 -144 0 -144 0 -12 -73 c-7 -40 -12 -118 -11 -173 0 -54 -4 -121 -10 -147 -13 -55 -8 -77 38 -184 35 -81 36 -92 15 -148 -41 -113 -36 -205 18 -322 43 -92 46 -191 7 -273 -32 -69 -103 -148 -183 -205 -64 -46 -151 -132 -201 -200 -17 -22 -37 -45 -45 -52 -33 -25 -1 -21 41 5 79 51 168 131 246 223 42 49 78 87 80 85 11 -10 -54 -116 -100 -163 -61 -63 -50 -70 17 -12 57 50 92 108 106 177 7 28 16 54 21 58 11 6 5 -25 -18 -101 -35 -113 -94 -197 -180 -256 -47 -33 -140 -68 -182 -70 -24 -1 -24 -2 6 -11 48 -16 151 21 228 79 59 45 59 45 25 8 -64 -67 -208 -125 -314 -125 -58 0 -56 -7 5 -20 42 -9 42 -9 -12 -4 -39 4 -69 0 -94 -10 -49 -21 -79 -20 -42 0 41 22 29 26 -23 8 -49 -17 -173 -15 -220 4 -20 9 -11 11 51 11 91 1 184 19 200 38 10 11 7 12 -17 2 -41 -16 -218 -16 -290 0 -92 20 -154 58 -183 111 l-25 45 48 -42 c64 -56 138 -91 218 -105 59 -9 167 -4 155 8 -2 3 -40 7 -83 9 -44 2 -99 11 -123 20 -65 23 -146 88 -188 150 -34 52 -36 61 -43 164 -7 107 -9 113 -66 233 -76 160 -81 207 -33 353 34 104 34 103 29 330 -1 44 -8 129 -17 189 -11 76 -14 150 -11 247 l5 139 -103 0 c-58 0 -104 -4 -104 -9z"/>
 <path d="M407 1993 c-13 -13 -8 -337 7 -391 9 -37 11 -68 4 -109 -6 -38 -5 -73 1 -100 18 -70 12 -159 -19 -315 -17 -82 -28 -159 -25 -171 4 -12 25 -52 46 -88 34 -57 41 -79 49 -155 14 -124 19 -143 47 -192 27 -47 118 -120 189 -152 78 -34 235 -53 249 -30 4 6 -11 10 -37 10 -145 1 -325 106 -382 223 -23 47 -26 62 -24 152 3 93 1 105 -29 170 -48 108 -50 130 -14 219 36 91 38 126 11 238 -16 68 -19 102 -14 184 6 87 4 110 -16 173 -21 68 -21 79 -11 185 15 151 15 156 -7 156 -10 0 -22 -3 -25 -7z"/>
 <path d="M478 1873 c-6 -156 5 -293 32 -390 19 -70 19 -77 5 -128 -15 -49 -15 -58 1 -111 15 -53 15 -62 -2 -152 -17 -89 -17 -98 -1 -142 12 -34 17 -81 17 -166 0 -133 2 -139 80 -220 87 -91 203 -153 317 -169 56 -9 50 6 -12 25 -55 18 -162 72 -212 109 -55 40 -120 122 -132 169 -8 27 -7 53 6 104 16 67 16 70 -7 144 -24 75 -24 75 -6 132 10 31 20 62 22 69 1 6 -4 40 -12 75 -13 52 -13 73 -3 120 6 31 9 74 5 95 -3 21 -10 83 -15 138 -5 55 -19 126 -30 157 -25 67 -26 101 -6 183 20 82 19 85 -14 85 l-29 0 -4 -127z"/>
 <path d="M575 1888 c4 -62 8 -172 10 -244 2 -72 8 -148 13 -168 8 -28 7 -51 -4 -92 -19 -72 -18 -85 8 -166 l22 -69 -23 -67 c-17 -48 -22 -78 -17 -102 15 -79 17 -138 7 -192 -23 -129 50 -215 246 -291 123 -48 187 -82 211 -112 25 -31 32 -32 32 -1 0 12 5 38 11 57 20 58 139 214 139 182 0 -6 -7 -17 -16 -24 -32 -27 -61 -85 -71 -142 -6 -31 -7 -57 -4 -57 4 0 15 17 26 37 11 21 68 86 126 145 64 64 115 125 129 153 21 44 22 55 16 164 -4 64 -11 179 -15 256 -8 132 -10 143 -41 198 -38 69 -38 116 0 240 l24 78 -24 67 c-17 48 -25 95 -28 165 l-4 97 -390 0 -390 0 7 -112z m441 -124 c3 -60 19 -102 52 -136 20 -21 40 -38 46 -38 5 0 24 -11 41 -25 30 -22 33 -30 37 -89 3 -51 9 -71 28 -91 13 -14 29 -25 36 -25 6 0 18 -10 27 -22 8 -13 28 -36 44 -53 47 -48 55 -70 57 -174 0 -53 5 -102 9 -108 5 -7 6 -17 2 -22 -3 -5 -1 -12 4 -16 10 -6 12 -16 14 -85 2 -55 -34 -132 -95 -207 -24 -28 -62 -75 -86 -103 -23 -29 -46 -59 -51 -68 -5 -9 -12 -14 -16 -10 -11 11 22 62 83 130 87 96 90 109 66 302 -4 27 -1 81 5 121 11 66 10 77 -10 131 -12 32 -28 66 -35 74 -20 21 -17 1 6 -45 14 -27 17 -42 9 -51 -6 -8 -6 -14 0 -18 5 -3 12 0 14 6 4 9 6 8 6 -3 1 -8 -4 -20 -10 -26 -5 -5 -12 -25 -14 -43 -2 -17 -10 -39 -16 -47 -7 -8 -12 -36 -11 -64 1 -36 -3 -49 -14 -49 -8 0 -14 -6 -14 -14 0 -7 -6 -19 -13 -25 -11 -8 -18 -6 -32 9 -10 11 -25 20 -33 20 -11 0 -8 -9 12 -29 l28 -30 -21 -28 c-15 -17 -18 -29 -11 -31 6 -2 18 6 27 18 l15 22 30 -31 c24 -24 29 -36 24 -57 -6 -24 -10 -26 -44 -19 -20 3 -50 13 -66 21 -33 16 -56 18 -56 5 0 -11 96 -41 129 -41 27 0 27 -11 -1 -42 -94 -101 -132 -159 -143 -221 -8 -41 -25 -48 -40 -16 -6 12 -39 33 -80 51 -38 16 -95 41 -125 55 -178 83 -240 187 -189 315 9 21 7 39 -11 87 -23 66 -24 60 34 166 21 39 20 53 -5 94 -20 33 -20 36 -4 72 10 20 36 52 58 71 22 18 51 42 65 53 19 17 26 34 31 89 5 44 13 73 23 80 9 6 36 26 62 43 58 41 86 86 86 139 0 22 3 44 7 48 12 11 28 0 29 -20z m284 -741 c-10 -60 -10 -90 -1 -131 14 -69 14 -161 -2 -188 -20 -34 -57 -77 -62 -72 -2 2 6 24 18 49 19 38 22 61 23 169 1 109 21 266 32 255 3 -2 -1 -39 -8 -82z m-39 -160 c11 -72 2 -90 -25 -52 -11 17 -12 25 -3 40 12 19 26 25 28 12z"/>
 <path d="M915 1279 c-12 -18 3 -22 73 -23 72 -1 107 8 97 24 -8 13 -162 13 -170 -1z"/>
 <path d="M744 878 c28 -40 29 -48 6 -74 l-23 -24 21 0 c12 0 26 9 33 21 l11 21 14 -21 c9 -12 22 -21 31 -21 13 0 12 5 -7 24 -23 26 -22 34 6 74 16 21 15 22 -5 22 -12 0 -21 -6 -21 -14 0 -26 -23 -30 -41 -8 -24 30 -47 29 -25 0z"/>
 <path d="M875 742 c-59 -30 -66 -33 -83 -28 -9 3 -24 1 -32 -4 -24 -15 65 -12 103 3 18 8 38 21 46 30 16 21 6 20 -34 -1z"/>
 <path d="M1429 1998 c0 -2 -4 -86 -9 -188 -6 -144 -12 -203 -30 -264 -26 -93 -24 -109 32 -229 41 -90 41 -90 29 -152 -15 -86 -14 -128 9 -215 11 -41 20 -91 20 -110 0 -56 -41 -129 -119 -213 -89 -97 -126 -154 -152 -236 -21 -68 -19 -87 4 -49 62 103 85 132 140 184 35 32 86 78 114 101 94 78 117 207 63 358 -22 62 -23 100 -4 267 6 53 3 63 -31 129 -41 80 -42 96 -11 234 12 55 14 88 6 155 -5 47 -5 118 -1 158 l7 72 -33 0 c-18 0 -33 -1 -34 -2z"/>
 </g>
<g id="layer109" fill="#453735" stroke="none">
 <path d="M170 1991 c0 -6 5 -13 10 -16 6 -3 10 -19 10 -35 0 -33 24 -129 39 -158 6 -11 25 -33 44 -49 32 -28 34 -34 40 -115 4 -47 16 -116 27 -152 17 -54 19 -73 10 -104 -13 -48 -13 -111 1 -150 9 -27 6 -45 -17 -114 -37 -107 -39 -209 -6 -282 13 -29 22 -69 22 -100 0 -85 27 -185 63 -240 19 -29 39 -77 46 -111 23 -112 32 -135 62 -170 16 -18 51 -42 77 -51 26 -10 67 -31 92 -48 l45 -31 219 -3 c215 -3 219 -3 255 20 20 13 56 30 81 37 126 37 202 97 235 187 10 27 28 77 41 110 13 34 29 97 35 140 6 44 22 106 34 139 22 57 24 71 20 240 -2 146 -7 192 -23 242 -15 46 -19 79 -15 122 3 33 1 73 -5 90 -8 23 -7 49 3 104 8 39 17 97 20 129 6 50 9 57 34 68 40 16 107 88 127 135 9 22 18 58 19 80 2 22 7 52 10 68 l7 27 -144 0 -144 0 -12 -73 c-7 -40 -12 -118 -11 -173 0 -54 -4 -121 -10 -147 -13 -55 -8 -77 38 -184 35 -81 36 -92 15 -148 -41 -113 -36 -205 18 -322 43 -92 46 -191 7 -273 -32 -69 -103 -148 -183 -205 -64 -46 -151 -132 -201 -200 -17 -22 -37 -45 -45 -52 -33 -25 -1 -21 41 5 79 51 168 131 246 223 42 49 78 87 80 85 11 -10 -54 -116 -100 -163 -61 -63 -50 -70 17 -12 57 50 92 108 106 177 7 28 16 54 21 58 11 6 5 -25 -18 -101 -35 -113 -94 -197 -180 -256 -47 -33 -140 -68 -182 -70 -24 -1 -24 -2 6 -11 48 -16 151 21 228 79 59 45 59 45 25 8 -64 -67 -208 -125 -314 -125 -58 0 -56 -7 5 -20 42 -9 42 -9 -12 -4 -39 4 -69 0 -94 -10 -49 -21 -79 -20 -42 0 41 22 29 26 -23 8 -49 -17 -173 -15 -220 4 -20 9 -11 11 51 11 91 1 184 19 200 38 10 11 7 12 -17 2 -41 -16 -218 -16 -290 0 -92 20 -154 58 -183 111 l-25 45 48 -42 c64 -56 138 -91 218 -105 59 -9 167 -4 155 8 -2 3 -40 7 -83 9 -44 2 -99 11 -123 20 -65 23 -146 88 -188 150 -34 52 -36 61 -43 164 -7 107 -9 113 -66 233 -76 160 -81 207 -33 353 34 104 34 103 29 330 -1 44 -8 129 -17 189 -11 76 -14 150 -11 247 l5 139 -103 0 c-58 0 -104 -4 -104 -9z m1581 -178 c-19 -36 -94 -94 -118 -93 -4 1 9 10 29 20 21 11 50 36 65 55 31 39 39 44 24 18z"/>
 <path d="M407 1993 c-13 -13 -8 -337 7 -391 9 -37 11 -68 4 -109 -6 -38 -5 -73 1 -100 18 -70 12 -159 -19 -315 -17 -82 -28 -159 -25 -171 4 -12 25 -52 46 -88 34 -57 41 -79 49 -155 14 -124 19 -143 47 -192 27 -47 118 -120 189 -152 78 -34 235 -53 249 -30 4 6 -11 10 -37 10 -145 1 -325 106 -382 223 -23 47 -26 62 -24 152 3 93 1 105 -29 170 -48 108 -50 130 -14 219 36 91 38 126 11 238 -16 68 -19 102 -14 184 6 87 4 110 -16 173 -21 68 -21 79 -11 185 15 151 15 156 -7 156 -10 0 -22 -3 -25 -7z"/>
 <path d="M478 1873 c-6 -156 5 -293 32 -390 19 -70 19 -77 5 -128 -15 -49 -15 -58 1 -111 15 -53 15 -62 -2 -152 -17 -89 -17 -98 -1 -142 12 -34 17 -81 17 -166 0 -133 2 -139 80 -220 87 -91 203 -153 317 -169 56 -9 50 6 -12 25 -55 18 -162 72 -212 109 -55 40 -120 122 -132 169 -8 27 -7 53 6 104 16 67 16 70 -7 144 -24 75 -24 75 -6 132 10 31 20 62 22 69 1 6 -4 40 -12 75 -13 52 -13 73 -3 120 6 31 9 74 5 95 -3 21 -10 83 -15 138 -5 55 -19 126 -30 157 -25 67 -26 101 -6 183 20 82 19 85 -14 85 l-29 0 -4 -127z"/>
 <path d="M575 1888 c4 -62 8 -172 10 -244 2 -72 8 -148 13 -168 8 -28 7 -51 -4 -92 -19 -72 -18 -85 8 -166 l22 -69 -23 -67 c-17 -48 -22 -78 -17 -102 15 -79 17 -138 7 -192 -23 -129 50 -215 246 -291 123 -48 187 -82 211 -112 25 -31 32 -32 32 -1 0 56 38 125 124 226 64 74 78 124 75 262 -1 79 3 133 14 178 l17 65 -7 -55 c-9 -68 -8 -132 2 -231 4 -42 5 -89 1 -103 -3 -14 -30 -54 -59 -89 -81 -96 -94 -118 -104 -179 -6 -32 -7 -58 -4 -58 4 0 15 17 26 37 11 21 68 86 126 145 64 64 115 125 129 153 21 44 22 55 16 164 -4 64 -11 179 -15 256 -8 132 -10 143 -41 198 -38 69 -38 116 0 240 l24 78 -24 67 c-17 48 -25 95 -28 165 l-4 97 -390 0 -390 0 7 -112z m441 -123 c3 -60 19 -103 52 -137 20 -21 40 -38 46 -38 5 0 24 -11 41 -25 30 -22 33 -30 37 -89 3 -51 9 -71 28 -91 13 -14 29 -25 36 -25 6 0 18 -10 27 -22 8 -13 28 -36 44 -53 47 -48 55 -70 57 -174 0 -53 5 -102 9 -108 5 -7 6 -17 2 -22 -3 -5 -1 -12 4 -16 10 -6 12 -16 14 -85 2 -55 -34 -132 -95 -207 -24 -28 -62 -75 -86 -103 -23 -29 -46 -59 -51 -68 -5 -9 -12 -14 -16 -10 -11 11 22 62 83 130 87 96 90 109 66 302 -4 27 -1 81 5 121 11 66 10 77 -10 131 -12 32 -28 66 -35 74 -20 21 -17 1 6 -45 14 -27 17 -42 9 -51 -6 -8 -6 -14 0 -18 5 -3 12 0 14 6 4 9 6 8 6 -3 1 -8 -4 -20 -10 -26 -5 -5 -12 -25 -14 -43 -2 -17 -10 -39 -16 -47 -7 -8 -12 -36 -11 -64 1 -36 -3 -49 -14 -49 -8 0 -14 -6 -14 -14 0 -7 -6 -19 -13 -25 -11 -8 -18 -6 -32 9 -10 11 -25 20 -33 20 -11 0 -8 -9 12 -29 l28 -30 -21 -28 c-15 -17 -18 -29 -11 -31 6 -2 18 6 27 18 l15 22 31 -32 c29 -30 30 -32 17 -71 -8 -22 -23 -50 -34 -62 -92 -100 -130 -159 -141 -220 -8 -41 -25 -48 -40 -16 -6 12 -39 33 -80 51 -38 16 -95 41 -125 55 -178 83 -240 187 -189 315 9 21 7 39 -11 87 -23 66 -24 60 34 166 21 39 20 53 -5 94 -20 33 -20 36 -4 72 10 20 36 52 58 71 22 18 51 42 65 53 19 17 26 34 31 89 5 44 13 73 23 80 9 6 36 26 62 43 61 43 86 85 86 146 0 41 3 48 18 45 9 -2 17 -12 18 -23z m245 -902 c11 -72 2 -90 -25 -52 -11 17 -12 25 -3 40 12 19 26 25 28 12z"/>
 <path d="M915 1279 c-12 -18 3 -22 73 -23 72 -1 107 8 97 24 -8 13 -162 13 -170 -1z"/>
 <path d="M744 878 c28 -40 29 -48 6 -74 l-23 -24 21 0 c12 0 26 9 33 21 l11 21 14 -21 c9 -12 22 -21 31 -21 13 0 12 5 -7 24 -23 26 -22 34 6 74 16 21 15 22 -5 22 -12 0 -21 -6 -21 -14 0 -26 -23 -30 -41 -8 -24 30 -47 29 -25 0z"/>
 <path d="M860 733 c-25 -13 -54 -21 -65 -19 -11 3 -27 1 -35 -4 -11 -7 -8 -10 14 -10 40 0 97 18 127 41 32 25 14 22 -41 -8z"/>
 <path d="M1090 743 c0 -10 119 -47 126 -40 3 3 -19 13 -48 22 -29 10 -59 20 -65 23 -7 2 -13 0 -13 -5z"/>
 <path d="M1429 1998 c0 -2 -4 -86 -9 -188 -6 -144 -12 -203 -30 -264 -26 -93 -24 -109 32 -229 41 -90 41 -90 29 -152 -15 -86 -14 -128 9 -215 11 -41 20 -91 20 -110 0 -56 -41 -129 -119 -213 -89 -97 -126 -154 -152 -236 -21 -68 -19 -87 4 -49 62 103 85 132 140 184 35 32 86 78 114 101 94 78 117 207 63 358 -22 62 -23 100 -4 267 6 53 3 63 -31 129 -41 80 -42 96 -11 234 12 55 14 88 6 155 -5 47 -5 118 -1 158 l7 72 -33 0 c-18 0 -33 -1 -34 -2z"/>
 </g>
<g id="layer110" fill="#771d1d" stroke="none">
 <path d="M170 1991 c0 -6 5 -13 10 -16 6 -3 10 -19 10 -35 0 -33 24 -129 39 -158 6 -11 25 -33 44 -49 32 -28 34 -34 40 -115 4 -47 16 -116 27 -152 17 -54 19 -73 10 -104 -13 -48 -13 -111 1 -150 9 -27 6 -45 -17 -114 -37 -107 -39 -209 -6 -282 13 -29 22 -69 22 -100 0 -85 27 -185 63 -240 19 -29 39 -77 46 -111 23 -112 32 -135 62 -170 16 -18 51 -42 77 -51 26 -10 67 -31 92 -48 l45 -31 219 -3 c215 -3 219 -3 255 20 20 13 56 30 81 37 126 37 202 97 235 187 10 27 28 77 41 110 13 34 29 97 35 140 6 44 22 106 34 139 22 57 24 71 20 240 -2 146 -7 192 -23 242 -15 46 -19 79 -15 122 3 33 1 73 -5 90 -8 23 -7 49 3 104 8 39 17 98 21 129 4 46 9 58 26 64 12 3 43 27 69 51 56 52 89 127 82 184 -3 21 0 40 6 43 6 4 11 14 11 22 0 11 -21 14 -114 14 -106 0 -115 -1 -121 -20 -4 -11 -5 -114 -3 -228 2 -114 -1 -229 -6 -257 l-9 -50 -17 38 c-15 33 -17 64 -14 205 1 92 6 199 10 239 4 45 3 73 -3 73 -14 0 -27 -107 -29 -235 -1 -60 -5 -140 -9 -177 -7 -64 -6 -71 29 -144 41 -87 44 -117 16 -197 -35 -100 -25 -187 41 -332 63 -140 -6 -300 -190 -439 -94 -71 -161 -138 -183 -181 -5 -11 17 7 49 41 32 33 94 87 138 119 44 31 88 67 97 79 13 15 18 17 18 6 0 -28 -41 -105 -83 -155 l-42 -50 35 26 c46 34 96 119 110 185 6 30 16 56 21 59 33 21 -27 -171 -79 -251 -52 -80 -145 -148 -247 -180 l-40 -13 35 0 c50 -1 157 52 214 107 47 45 48 45 30 13 -11 -18 -38 -48 -62 -66 -47 -37 -195 -94 -245 -96 -30 -1 -31 -1 -7 -9 22 -6 23 -8 7 -15 -10 -4 -35 -5 -56 -2 -20 2 -55 -2 -77 -9 -42 -15 -88 -19 -81 -6 3 4 -41 7 -97 7 -70 0 -109 5 -128 15 -25 14 -21 15 75 15 56 0 110 5 119 10 11 7 -18 10 -95 10 -178 0 -298 48 -333 132 -20 47 -18 47 27 3 23 -22 69 -54 103 -70 51 -26 77 -31 151 -35 l90 -4 -71 9 c-88 11 -172 42 -227 83 -57 43 -107 141 -107 211 -1 112 -18 177 -77 296 -53 106 -57 120 -56 180 0 44 11 97 33 165 43 135 43 210 1 367 -35 132 -41 219 -27 411 l8 117 -91 0 c-50 0 -91 -4 -91 -9z m1581 -178 c-19 -36 -94 -94 -118 -93 -4 1 9 10 29 20 21 11 50 36 65 55 31 39 39 44 24 18z m-1374 -560 c-2 -16 -4 -3 -4 27 0 30 2 43 4 28 2 -16 2 -40 0 -55z m1237 -145 c9 -42 16 -96 16 -120 l-1 -43 -14 27 c-28 50 -46 141 -39 192 8 61 17 48 38 -56z m-1207 -434 c17 -37 27 -79 29 -123 l4 -66 -16 40 c-17 44 -55 205 -47 205 2 0 16 -25 30 -56z"/>
 <path d="M413 1868 c-9 -118 -8 -141 9 -206 15 -61 17 -93 12 -190 -5 -92 -3 -130 10 -180 22 -88 20 -138 -9 -210 -35 -87 -33 -137 12 -236 35 -76 37 -87 39 -186 0 -58 6 -117 12 -133 30 -71 182 -194 278 -223 26 -8 70 -13 98 -13 l51 1 -60 9 c-127 19 -287 125 -335 224 -17 35 -20 60 -19 141 1 93 -1 105 -35 186 -43 103 -45 144 -11 217 37 79 40 115 15 211 -19 71 -21 103 -17 194 4 89 1 121 -15 175 -16 56 -18 84 -13 186 4 66 9 130 12 143 4 15 1 22 -9 22 -12 0 -17 -27 -25 -132z"/>
 <path d="M515 1963 c-4 -21 -11 -54 -16 -73 -13 -52 -11 -101 7 -156 16 -49 37 -241 36 -324 -2 -100 -2 -188 0 -240 1 -30 -4 -76 -12 -102 -13 -44 -12 -52 9 -118 17 -50 21 -81 17 -107 -25 -139 -17 -174 63 -265 63 -71 202 -157 281 -173 22 -5 -4 12 -70 46 -83 41 -120 67 -177 124 -91 90 -104 128 -78 227 17 65 17 68 -4 129 -25 75 -26 104 -5 155 12 29 14 53 9 99 -7 59 -8 106 -4 215 3 87 -20 263 -41 326 -22 62 -25 119 -11 174 17 65 21 100 11 100 -5 0 -12 -17 -15 -37z"/>
 <path d="M606 1913 c5 -49 8 -117 7 -153 -1 -36 -4 -132 -6 -215 -2 -82 -7 -180 -12 -217 -7 -63 -6 -70 24 -122 17 -31 31 -63 31 -71 0 -8 -13 -39 -30 -68 -34 -61 -37 -84 -13 -145 14 -38 14 -51 3 -112 -17 -93 0 -139 77 -210 62 -57 89 -72 217 -124 49 -20 100 -46 113 -58 18 -17 23 -18 23 -6 0 20 -12 28 -80 58 -196 84 -264 125 -311 191 -28 39 -33 106 -13 165 15 44 14 49 -5 94 -12 27 -21 56 -21 64 0 14 30 75 50 101 20 27 19 64 -4 107 -23 44 -24 46 -6 72 20 32 96 106 107 106 22 0 53 69 53 117 l0 52 62 43 c81 56 108 96 108 159 0 43 3 49 21 49 15 0 20 -5 18 -22 -2 -13 3 -44 10 -71 14 -49 29 -65 113 -123 43 -30 45 -34 50 -92 6 -57 31 -111 52 -112 17 0 110 -106 126 -145 12 -29 17 -64 15 -125 -1 -47 3 -91 8 -98 5 -7 7 -15 4 -19 -4 -3 -2 -12 3 -19 6 -6 10 -16 9 -20 -1 -5 1 -21 5 -37 19 -65 -28 -161 -139 -287 -31 -36 -68 -82 -81 -103 -14 -21 -29 -35 -33 -33 -5 3 -11 -8 -15 -26 -7 -35 0 -51 10 -22 4 10 20 33 36 50 16 17 37 46 46 65 9 19 20 32 24 29 9 -7 59 41 53 51 -3 4 10 25 27 46 18 21 41 50 51 64 12 16 16 18 13 6 -4 -11 -2 -16 5 -12 5 4 7 16 3 27 -4 15 -3 18 6 13 9 -6 11 -4 5 4 -4 7 -1 24 6 37 11 21 11 39 0 107 -7 45 -17 145 -20 222 -7 136 -26 215 -51 215 -5 0 -6 7 -3 17 4 10 2 14 -4 10 -41 -25 -20 159 28 247 7 13 7 16 0 11 -7 -4 -11 10 -11 40 0 26 -13 95 -30 153 -16 59 -32 119 -35 135 l-5 27 -351 0 -351 0 8 -87z"/>
 <path d="M1430 1993 c-1 -5 -5 -93 -10 -198 -6 -134 -13 -203 -25 -235 -28 -77 -22 -134 26 -233 l42 -89 -12 -91 c-12 -85 -11 -99 8 -180 39 -163 27 -205 -93 -336 -86 -94 -117 -141 -146 -226 -26 -75 -25 -79 5 -26 14 24 39 62 56 85 l31 41 -32 -35 -32 -35 21 41 c11 23 60 85 110 138 128 139 146 186 117 318 -19 88 -21 137 -11 245 l8 81 -42 83 c-46 93 -51 133 -25 233 17 66 27 426 12 426 -4 0 -8 -3 -8 -7z"/>
 <path d="M1473 1940 c0 -25 2 -35 4 -22 2 12 2 32 0 45 -2 12 -4 2 -4 -23z"/>
 <path d="M353 1795 c0 -38 2 -53 4 -32 2 20 2 52 0 70 -2 17 -4 1 -4 -38z"/>
 <path d="M1451 1559 c-6 -18 -11 -41 -10 -53 0 -12 6 2 14 29 15 57 13 72 -4 24z"/>
 <path d="M915 1279 c-12 -18 3 -22 73 -23 72 -1 107 8 97 24 -8 13 -162 13 -170 -1z"/>
 <path d="M1270 1237 c0 -4 10 -27 21 -50 19 -36 21 -50 14 -117 -9 -91 -9 -129 0 -246 9 -105 4 -118 -74 -207 -47 -54 -88 -117 -77 -117 3 0 13 14 22 31 8 17 42 60 74 94 66 71 85 118 77 191 -3 27 -9 77 -13 112 -4 36 -2 87 5 121 10 49 9 66 -5 107 -15 46 -44 98 -44 81z"/>
 <path d="M1275 1021 c-4 -17 -10 -33 -15 -36 -5 -3 -6 -21 -3 -40 4 -28 2 -35 -11 -35 -9 0 -16 -6 -16 -14 0 -7 -7 -20 -16 -27 -15 -12 -19 -11 -32 9 -8 12 -21 22 -30 22 -11 0 -8 -8 12 -29 l28 -30 -21 -28 c-14 -16 -18 -29 -12 -31 6 -2 20 7 30 19 l18 23 14 -22 c8 -12 19 -22 26 -22 29 0 0 -95 -43 -140 -60 -64 -105 -129 -120 -173 -19 -57 -14 -74 5 -19 16 44 38 76 107 158 76 90 88 131 81 264 -4 69 -2 120 4 140 6 17 9 33 6 36 -3 3 -8 -8 -12 -25z m-8 -191 c-1 -45 -6 -48 -31 -21 -17 18 -17 21 -1 45 22 34 34 25 32 -24z"/>
 <path d="M749 871 c26 -36 26 -39 -1 -68 l-21 -23 21 0 c12 0 26 9 33 21 l11 21 14 -21 c9 -12 22 -21 31 -21 14 0 13 4 -5 23 -27 29 -27 32 -1 68 l20 29 -20 0 c-12 0 -21 -6 -21 -14 0 -26 -23 -30 -41 -8 -26 33 -44 27 -20 -7z"/>
 <path d="M860 733 c-27 -14 -54 -21 -67 -18 -12 3 -25 1 -28 -5 -12 -19 49 -10 103 15 28 13 52 27 52 30 0 8 -12 4 -60 -22z"/>
 <path d="M1120 732 c32 -17 100 -36 100 -28 0 3 -48 20 -116 41 -10 3 -3 -2 16 -13z"/>
 <path d="M1361 679 c-18 -22 -31 -42 -28 -45 3 -3 16 10 30 28 50 67 49 78 -2 17z"/>
 <path d="M1470 652 c-38 -40 -40 -43 -11 -21 29 21 73 71 60 68 -2 -1 -24 -22 -49 -47z"/>
 <path d="M1295 318 c-37 -39 -37 -40 -6 -13 58 50 63 55 54 55 -5 0 -27 -19 -48 -42z"/>
 </g>
<g id="layer111" fill="#382c2b" stroke="none">
 <path d="M170 1991 c0 -6 5 -13 10 -16 6 -3 10 -19 10 -35 0 -33 24 -129 39 -158 6 -11 25 -33 44 -49 32 -28 34 -34 40 -115 4 -47 16 -116 27 -152 17 -54 19 -73 10 -104 -13 -48 -13 -111 1 -150 9 -27 6 -45 -17 -114 -37 -107 -39 -209 -6 -282 13 -29 22 -69 22 -100 0 -85 27 -185 63 -240 19 -29 39 -77 46 -111 23 -112 32 -135 62 -170 16 -18 51 -42 77 -51 26 -10 67 -31 92 -48 l45 -31 219 -3 c215 -3 219 -3 255 20 20 13 56 30 81 37 126 37 202 97 235 187 10 27 28 77 41 110 13 34 29 97 35 140 6 44 22 106 34 139 22 57 24 71 20 240 -2 146 -7 192 -23 242 -15 46 -19 79 -15 122 3 33 1 73 -5 90 -8 23 -7 49 3 104 8 39 17 98 21 129 4 46 9 58 26 64 12 3 43 27 69 51 56 52 89 127 82 184 -3 21 0 40 6 43 6 4 11 14 11 22 0 11 -21 14 -114 14 -106 0 -115 -1 -121 -20 -4 -11 -5 -114 -3 -228 2 -114 -1 -229 -6 -257 l-9 -50 -17 38 c-15 33 -17 64 -14 205 1 92 6 199 10 239 4 45 3 73 -3 73 -14 0 -27 -107 -29 -235 -1 -60 -5 -140 -9 -177 -7 -64 -6 -71 29 -144 41 -87 44 -117 16 -197 -35 -100 -25 -187 41 -332 63 -140 -6 -300 -190 -439 -94 -71 -161 -138 -183 -181 -5 -11 17 7 49 41 32 33 94 87 138 119 44 31 88 67 97 79 13 15 18 17 18 6 0 -28 -41 -105 -83 -155 l-42 -50 35 26 c46 34 96 119 110 185 6 30 16 56 21 59 33 21 -27 -171 -79 -251 -52 -80 -145 -148 -247 -180 l-40 -13 35 0 c50 -1 157 52 214 107 47 45 48 45 30 13 -11 -18 -38 -48 -62 -66 -47 -37 -195 -94 -245 -96 -30 -1 -31 -1 -7 -9 22 -6 23 -8 7 -15 -10 -4 -35 -5 -56 -2 -20 2 -55 -2 -77 -9 -42 -15 -88 -19 -81 -6 3 4 -41 7 -97 7 -70 0 -109 5 -128 15 -25 14 -21 15 75 15 56 0 110 5 119 10 11 7 -18 10 -95 10 -178 0 -298 48 -333 132 -20 47 -18 47 27 3 23 -22 69 -54 103 -70 51 -26 77 -31 151 -35 l90 -4 -71 9 c-88 11 -172 42 -227 83 -57 43 -107 141 -107 211 -1 112 -18 177 -77 296 -53 106 -57 120 -56 180 0 44 11 97 33 165 43 135 43 210 1 367 -35 132 -41 219 -27 411 l8 117 -91 0 c-50 0 -91 -4 -91 -9z m1581 -178 c-19 -36 -94 -94 -118 -93 -4 1 9 10 29 20 21 11 50 36 65 55 31 39 39 44 24 18z m-1374 -560 c-2 -16 -4 -3 -4 27 0 30 2 43 4 28 2 -16 2 -40 0 -55z m1237 -145 c9 -42 16 -96 16 -120 l-1 -43 -14 27 c-28 50 -46 141 -39 192 8 61 17 48 38 -56z m-1207 -434 c17 -37 27 -79 29 -123 l4 -66 -16 40 c-17 44 -55 205 -47 205 2 0 16 -25 30 -56z"/>
 <path d="M413 1868 c-9 -118 -8 -141 9 -206 15 -61 17 -93 12 -190 -5 -92 -3 -130 10 -180 22 -88 20 -138 -9 -210 -35 -87 -33 -137 12 -236 35 -76 37 -87 39 -186 0 -58 6 -117 12 -133 30 -71 182 -194 278 -223 26 -8 70 -13 98 -13 l51 1 -60 9 c-127 19 -287 125 -335 224 -17 35 -20 60 -19 141 1 93 -1 105 -35 186 -43 103 -45 144 -11 217 37 79 40 115 15 211 -19 71 -21 103 -17 194 4 89 1 121 -15 175 -16 56 -18 84 -13 186 4 66 9 130 12 143 4 15 1 22 -9 22 -12 0 -17 -27 -25 -132z"/>
 <path d="M515 1963 c-4 -21 -11 -54 -16 -73 -13 -52 -11 -101 7 -156 16 -49 37 -241 36 -324 -2 -100 -2 -188 0 -240 1 -30 -4 -76 -12 -102 -13 -44 -12 -52 9 -118 17 -50 21 -81 17 -107 -25 -139 -17 -174 63 -265 63 -71 202 -157 281 -173 22 -5 -4 12 -70 46 -83 41 -120 67 -177 124 -91 90 -104 128 -78 227 17 65 17 68 -4 129 -25 75 -26 104 -5 155 12 29 14 53 9 99 -7 59 -8 106 -4 215 3 87 -20 263 -41 326 -22 62 -25 119 -11 174 17 65 21 100 11 100 -5 0 -12 -17 -15 -37z"/>
 <path d="M606 1913 c5 -49 8 -117 7 -153 -1 -36 -4 -132 -6 -215 -2 -82 -7 -180 -12 -217 -7 -63 -6 -70 24 -122 17 -31 31 -63 31 -71 0 -8 -13 -39 -30 -68 -34 -61 -37 -84 -13 -145 14 -38 14 -51 3 -112 -17 -93 0 -139 77 -210 62 -57 89 -72 217 -124 49 -20 100 -46 113 -58 18 -17 23 -18 23 -6 0 20 -12 28 -80 58 -196 84 -264 125 -311 191 -28 39 -33 106 -13 165 15 44 14 49 -5 94 -12 27 -21 56 -21 64 0 14 30 75 50 101 20 27 19 64 -4 107 -23 44 -24 46 -6 72 20 32 96 106 107 106 22 0 53 69 53 117 l0 52 62 43 c81 56 108 96 108 159 0 43 3 49 21 49 15 0 20 -5 18 -22 -2 -13 3 -44 10 -71 14 -49 29 -65 113 -123 43 -30 45 -34 50 -92 6 -57 31 -111 52 -112 17 0 110 -106 126 -145 12 -29 17 -64 15 -125 -1 -47 3 -91 8 -98 5 -7 7 -15 4 -19 -4 -3 -2 -12 3 -19 6 -6 10 -16 9 -20 -1 -5 1 -21 5 -37 19 -65 -28 -161 -139 -287 -31 -36 -68 -82 -81 -103 -14 -21 -29 -35 -33 -33 -5 3 -11 -8 -15 -26 -7 -35 0 -51 10 -22 4 10 20 33 36 50 16 17 37 46 46 65 9 19 20 32 24 29 9 -7 59 41 53 51 -3 4 10 25 27 46 18 21 41 50 51 64 12 16 16 18 13 6 -4 -11 -2 -16 5 -12 5 4 7 16 3 27 -4 15 -3 18 6 13 9 -6 11 -4 5 4 -4 7 -1 24 6 37 11 21 11 39 0 107 -7 45 -17 145 -20 222 -7 136 -26 215 -51 215 -5 0 -6 7 -3 17 4 10 2 14 -4 10 -41 -25 -20 159 28 247 7 13 7 16 0 11 -7 -4 -11 10 -11 40 0 26 -13 95 -30 153 -16 59 -32 119 -35 135 l-5 27 -351 0 -351 0 8 -87z"/>
 <path d="M1430 1993 c-1 -5 -5 -93 -10 -198 -6 -134 -13 -203 -25 -235 -28 -77 -22 -134 26 -233 l42 -89 -12 -91 c-12 -85 -11 -99 8 -180 39 -163 27 -205 -93 -336 -86 -94 -117 -141 -146 -226 -26 -75 -25 -79 5 -26 14 24 39 62 56 85 l31 41 -32 -35 -32 -35 21 41 c11 23 60 85 110 138 128 139 146 186 117 318 -19 88 -21 137 -11 245 l8 81 -42 83 c-46 93 -51 133 -25 233 17 66 27 426 12 426 -4 0 -8 -3 -8 -7z"/>
 <path d="M1473 1940 c0 -25 2 -35 4 -22 2 12 2 32 0 45 -2 12 -4 2 -4 -23z"/>
 <path d="M353 1795 c0 -38 2 -53 4 -32 2 20 2 52 0 70 -2 17 -4 1 -4 -38z"/>
 <path d="M1451 1559 c-6 -18 -11 -41 -10 -53 0 -12 6 2 14 29 15 57 13 72 -4 24z"/>
 <path d="M1270 1237 c0 -4 10 -27 21 -50 19 -36 21 -50 14 -117 -9 -91 -9 -129 0 -246 9 -105 4 -118 -74 -207 -47 -54 -88 -117 -77 -117 3 0 13 14 22 31 8 17 42 60 74 94 66 71 85 118 77 191 -3 27 -9 77 -13 112 -4 36 -2 87 5 121 10 49 9 66 -5 107 -15 46 -44 98 -44 81z"/>
 <path d="M1275 1021 c-4 -17 -10 -33 -15 -36 -5 -3 -6 -21 -3 -40 4 -28 2 -35 -11 -35 -9 0 -16 -6 -16 -14 0 -7 -7 -20 -16 -27 -15 -12 -19 -11 -32 9 -8 12 -21 22 -30 22 -11 0 -8 -8 12 -29 l28 -30 -21 -28 c-14 -16 -18 -29 -12 -31 6 -2 20 7 30 19 l18 23 14 -22 c8 -12 19 -22 26 -22 29 0 0 -95 -43 -140 -60 -64 -105 -129 -120 -173 -19 -57 -14 -74 5 -19 16 44 38 76 107 158 76 90 88 131 81 264 -4 69 -2 120 4 140 6 17 9 33 6 36 -3 3 -8 -8 -12 -25z m-8 -191 c-1 -45 -6 -48 -31 -21 -17 18 -17 21 -1 45 22 34 34 25 32 -24z"/>
 <path d="M749 871 c26 -36 26 -39 -1 -68 l-21 -23 21 0 c12 0 26 9 33 21 l11 21 14 -21 c9 -12 22 -21 31 -21 14 0 13 4 -5 23 -27 29 -27 32 -1 68 l20 29 -20 0 c-12 0 -21 -6 -21 -14 0 -26 -23 -30 -41 -8 -26 33 -44 27 -20 -7z"/>
 <path d="M860 733 c-27 -14 -54 -21 -67 -18 -12 3 -25 1 -28 -5 -12 -19 49 -10 103 15 28 13 52 27 52 30 0 8 -12 4 -60 -22z"/>
 <path d="M1120 732 c32 -17 100 -36 100 -28 0 3 -48 20 -116 41 -10 3 -3 -2 16 -13z"/>
 <path d="M1361 679 c-18 -22 -31 -42 -28 -45 3 -3 16 10 30 28 50 67 49 78 -2 17z"/>
 <path d="M1470 652 c-38 -40 -40 -43 -11 -21 29 21 73 71 60 68 -2 -1 -24 -22 -49 -47z"/>
 <path d="M1295 318 c-37 -39 -37 -40 -6 -13 58 50 63 55 54 55 -5 0 -27 -19 -48 -42z"/>
 </g>
<g id="layer112" fill="#252022" stroke="none">
 <path d="M178 1988 c7 -7 12 -27 12 -45 0 -36 23 -131 39 -161 6 -11 25 -33 44 -49 32 -28 34 -34 40 -117 4 -48 16 -115 28 -148 17 -52 19 -69 10 -104 -14 -55 -14 -113 0 -152 9 -27 6 -45 -17 -114 -37 -107 -39 -209 -6 -282 13 -28 22 -69 22 -97 0 -82 28 -190 63 -244 19 -28 39 -77 46 -110 23 -112 32 -135 62 -170 16 -18 51 -42 77 -51 26 -10 67 -31 92 -48 43 -29 51 -31 158 -34 61 -2 112 0 112 5 0 4 -37 8 -82 8 -78 0 -178 25 -178 43 0 4 44 6 97 6 l98 -2 -96 8 c-162 13 -256 56 -298 137 -22 43 -10 45 33 5 47 -44 134 -92 163 -92 10 1 -4 9 -30 20 -76 29 -144 88 -173 147 -21 43 -27 74 -33 167 -7 113 -8 115 -67 236 -56 116 -59 127 -58 194 1 50 10 100 32 170 43 132 42 188 -4 364 l-36 137 7 193 6 192 -87 0 c-69 0 -85 -3 -76 -12z m115 -205 c20 -23 21 -38 1 -25 -18 13 -62 77 -69 102 -5 19 0 15 21 -15 15 -22 36 -50 47 -62z m87 -500 c-1 -53 -3 -64 -11 -50 -10 17 -4 117 7 117 2 0 4 -30 4 -67z m41 -632 c11 -31 23 -87 25 -126 l4 -70 -23 50 c-21 43 -58 192 -57 228 1 21 29 -25 51 -82z"/>
 <path d="M421 1900 c-15 -139 -14 -185 8 -256 17 -54 19 -74 10 -160 -8 -87 -6 -112 13 -202 24 -112 25 -101 -27 -242 -22 -58 -15 -102 26 -187 29 -62 33 -79 39 -194 6 -121 7 -127 38 -170 18 -25 54 -62 80 -81 52 -40 132 -88 147 -88 5 0 -19 17 -54 37 -76 46 -151 117 -175 168 -13 28 -18 65 -19 149 -2 102 -5 117 -35 183 -38 84 -42 145 -12 202 40 79 44 121 21 210 -16 62 -21 111 -21 214 0 96 -4 147 -15 178 -20 55 -21 87 -11 227 4 61 6 112 3 112 -2 0 -9 -45 -16 -100z"/>
 <path d="M610 1961 c0 -22 5 -74 11 -115 8 -60 7 -94 -5 -162 -11 -68 -12 -98 -3 -145 9 -50 8 -76 -8 -154 -17 -90 -17 -96 -1 -139 10 -25 22 -49 27 -52 6 -3 15 -17 20 -31 8 -21 3 -39 -27 -100 l-37 -75 16 -46 c19 -52 21 -98 8 -154 -15 -62 5 -116 64 -173 47 -46 171 -123 181 -112 3 2 -20 17 -51 31 -70 35 -161 117 -174 159 -13 37 -8 112 10 150 10 22 8 34 -10 76 -11 27 -21 56 -21 63 0 7 16 45 36 85 l37 73 -25 48 c-20 38 -23 53 -15 68 15 28 100 114 113 114 18 0 53 81 56 129 3 41 7 46 62 85 78 54 96 80 103 149 5 46 9 57 24 57 14 0 18 -7 17 -33 -2 -54 35 -122 84 -153 71 -46 88 -65 88 -99 0 -59 23 -99 96 -172 87 -85 108 -127 99 -199 -4 -32 0 -76 10 -118 8 -37 13 -72 10 -76 -3 -5 -1 -11 5 -15 16 -10 12 -70 -9 -125 -19 -50 -54 -101 -120 -175 l-36 -40 39 35 c48 43 113 130 132 175 17 41 18 136 3 185 -6 19 -11 91 -12 160 l-2 126 -39 64 c-51 87 -55 119 -21 220 32 97 31 131 -15 290 -16 58 -30 117 -30 132 l0 28 -345 0 -345 0 0 -39z m692 -211 c44 -58 51 -70 41 -70 -4 0 -17 15 -29 33 -66 103 -69 112 -12 37z m-576 25 c-9 -24 -88 -126 -94 -121 -2 3 9 21 26 40 16 19 38 48 48 65 19 33 30 41 20 16z m-41 -175 c19 -22 19 -22 -17 1 -20 13 -37 28 -38 32 0 12 33 -8 55 -33z m-26 -135 c0 -22 -3 -48 -7 -57 -4 -10 -7 16 -7 57 0 41 3 67 7 57 4 -9 7 -35 7 -57z"/>
 <path d="M1596 1916 c-4 -46 -2 -122 4 -171 11 -88 -1 -280 -19 -298 -5 -4 -18 16 -31 44 -18 43 -21 62 -14 98 11 66 11 357 0 323 -5 -15 -10 -81 -11 -147 -1 -66 -5 -145 -10 -176 -7 -51 -5 -62 29 -136 42 -94 45 -134 15 -218 -29 -83 -22 -154 27 -275 51 -124 52 -189 6 -282 -42 -84 -79 -127 -171 -197 -42 -32 -83 -67 -91 -76 -20 -25 125 79 174 124 36 34 38 34 31 11 -12 -41 -52 -115 -81 -151 l-28 -34 38 35 c44 41 72 90 81 145 7 39 33 91 41 83 10 -11 -38 -165 -71 -227 -42 -79 -86 -125 -170 -176 -33 -20 -49 -34 -35 -30 46 13 115 58 158 103 23 25 42 40 42 35 0 -13 -51 -82 -76 -105 -27 -24 -131 -74 -182 -88 -24 -6 -52 -20 -62 -30 -15 -15 -29 -18 -72 -13 -36 3 -64 0 -88 -11 -35 -15 -35 -15 55 -16 80 0 94 3 127 25 20 14 41 25 47 25 5 0 42 12 82 27 90 33 158 95 184 168 10 28 28 78 41 111 13 34 29 97 35 140 6 44 21 106 34 139 22 57 23 71 20 240 -3 145 -7 192 -23 242 -15 46 -19 79 -15 122 3 33 1 73 -5 90 -8 23 -7 49 3 104 8 39 17 98 21 129 4 46 9 58 26 64 29 9 106 82 125 118 9 17 18 60 20 96 2 36 8 69 14 75 21 21 4 25 -105 25 l-113 0 -7 -84z m178 -57 c-26 -65 -50 -96 -100 -125 -53 -31 -71 -26 -20 5 48 30 101 92 116 135 7 21 14 35 16 33 3 -3 -3 -24 -12 -48z m-161 -714 c10 -42 17 -106 16 -143 l-1 -67 -24 51 c-13 28 -27 72 -30 97 -7 50 3 137 15 137 4 0 15 -34 24 -75z"/>
 <path d="M1432 1940 c0 -19 2 -27 5 -17 2 9 2 25 0 35 -3 9 -5 1 -5 -18z"/>
 <path d="M1421 1745 c-1 -78 -7 -131 -21 -180 -29 -101 -26 -134 20 -232 42 -91 47 -123 30 -213 -8 -40 -6 -69 7 -128 27 -131 29 -146 21 -190 -8 -47 -43 -101 -113 -177 -86 -93 -90 -110 -5 -22 143 149 160 199 124 354 -12 51 -14 87 -8 143 13 135 10 159 -31 240 -44 87 -48 128 -22 242 17 79 21 204 7 248 -5 16 -8 -14 -9 -85z"/>
 <path d="M501 1767 c-1 -10 4 -28 10 -39 10 -19 41 -247 41 -313 1 -16 -3 -54 -7 -83 -5 -34 -3 -78 4 -120 11 -57 10 -73 -3 -111 -21 -58 -20 -99 5 -173 19 -59 20 -62 3 -128 -17 -64 -17 -69 0 -114 17 -45 101 -147 137 -166 10 -6 -7 15 -37 45 -58 58 -93 121 -94 168 0 16 7 53 15 82 15 50 15 57 -5 114 -24 73 -25 116 -4 167 16 38 16 48 -3 178 -3 21 0 63 7 95 8 40 9 64 1 83 -6 15 -13 69 -17 120 -4 58 -15 115 -30 153 -12 33 -23 52 -23 42z"/>
 <path d="M1302 1018 c-7 -50 -8 -89 -1 -123 6 -27 10 -78 11 -111 0 -67 -10 -90 -71 -160 -20 -22 -13 -16 16 13 61 62 78 110 68 187 -4 28 -8 99 -8 159 0 59 -1 107 -2 107 -1 0 -6 -33 -13 -72z"/>
 <path d="M1261 931 c-1 -25 -5 -32 -16 -27 -9 3 -15 0 -15 -8 0 -7 -7 -20 -16 -27 -15 -12 -19 -11 -32 9 -8 12 -21 22 -30 22 -11 0 -8 -8 12 -29 l28 -30 -21 -30 c-18 -25 -19 -31 -7 -31 8 0 18 9 21 20 8 25 20 25 37 2 7 -10 21 -21 30 -25 12 -4 16 -13 12 -24 -19 -58 -48 -105 -98 -161 -74 -83 -72 -89 4 -10 99 104 123 182 102 323 -7 42 -10 50 -11 26z m7 -96 c-3 -50 -7 -54 -31 -27 -14 16 -15 23 -4 45 19 43 37 34 35 -18z"/>
 <path d="M749 871 c26 -36 26 -39 -1 -68 -28 -30 -3 -32 28 -2 l22 21 11 -21 c7 -12 19 -21 28 -21 14 0 13 4 -5 23 -27 29 -27 32 -1 68 24 34 6 40 -22 7 l-19 -23 -19 23 c-28 33 -46 27 -22 -7z"/>
 <path d="M855 729 c-22 -10 -33 -18 -25 -18 8 0 31 8 50 19 45 25 27 24 -25 -1z"/>
 <path d="M1125 730 c22 -11 47 -19 55 -19 17 0 -33 23 -71 33 -13 3 -6 -3 16 -14z"/>
 </g>
<g id="layer113" fill="#182228" stroke="none">
 <path d="M178 1988 c7 -7 12 -27 12 -45 0 -36 23 -131 39 -161 6 -11 25 -33 44 -49 32 -28 34 -34 40 -117 4 -48 16 -115 28 -148 17 -52 19 -69 10 -104 -14 -55 -14 -107 0 -154 10 -32 8 -47 -17 -116 -34 -96 -38 -194 -10 -264 10 -25 22 -83 27 -130 11 -112 30 -178 66 -231 16 -24 35 -71 42 -104 23 -112 32 -135 62 -170 16 -18 51 -42 77 -51 26 -10 67 -31 92 -48 43 -29 51 -31 158 -34 61 -2 112 0 112 5 0 4 -37 8 -82 8 -78 0 -178 25 -178 43 0 4 44 6 97 6 l98 -2 -96 8 c-109 9 -220 41 -251 73 -28 30 -58 79 -58 96 0 7 20 -5 44 -27 47 -44 134 -92 163 -92 10 1 -4 9 -30 20 -76 29 -144 88 -173 147 -21 43 -27 74 -33 167 -7 113 -8 115 -67 236 -56 116 -59 127 -58 194 1 50 10 100 32 170 42 131 42 189 -3 361 -36 142 -41 200 -31 423 l5 102 -86 0 c-68 0 -84 -3 -75 -12z m120 -210 c14 -15 24 -30 21 -32 -12 -13 -82 72 -94 114 -5 19 0 15 21 -15 15 -22 38 -52 52 -67z m82 -495 c-1 -53 -3 -64 -11 -50 -10 17 -4 117 7 117 2 0 4 -30 4 -67z m41 -632 c11 -31 23 -87 25 -126 l4 -70 -23 50 c-21 43 -58 192 -57 228 1 21 29 -25 51 -82z"/>
 <path d="M421 1900 c-15 -139 -14 -185 8 -256 17 -54 19 -74 10 -160 -8 -87 -6 -112 13 -202 24 -112 25 -101 -27 -242 -22 -58 -15 -102 26 -187 29 -62 33 -79 39 -194 6 -121 7 -127 38 -170 18 -25 54 -62 80 -81 52 -40 132 -88 147 -88 5 0 -19 17 -54 37 -76 46 -151 117 -175 168 -13 28 -18 65 -19 149 -2 102 -5 117 -35 183 -38 84 -42 145 -12 202 40 79 44 121 21 210 -16 62 -21 111 -21 214 0 96 -4 147 -15 178 -20 55 -21 87 -11 227 4 61 6 112 3 112 -2 0 -9 -45 -16 -100z"/>
 <path d="M620 1968 c0 -18 -3 -44 -6 -58 -5 -20 -3 -22 5 -10 8 11 10 -14 7 -92 -2 -59 1 -105 5 -102 5 3 9 1 9 -5 0 -5 -5 -11 -11 -13 -20 -7 -29 -81 -17 -146 10 -54 9 -78 -7 -157 -17 -90 -17 -96 -1 -139 10 -25 22 -49 27 -52 6 -3 15 -17 20 -31 8 -21 3 -39 -27 -100 l-37 -75 16 -46 c19 -52 21 -98 8 -154 -15 -62 5 -116 64 -173 47 -46 171 -123 181 -112 3 2 -20 17 -51 31 -70 35 -161 117 -174 159 -13 37 -8 112 10 150 10 22 8 34 -10 76 -11 27 -21 56 -21 63 0 7 16 45 36 85 l36 72 -23 48 c-13 26 -24 53 -24 58 -1 14 107 125 121 125 18 0 53 81 56 129 3 41 7 46 62 85 78 54 96 81 103 148 5 48 9 57 28 60 20 4 22 2 15 -22 -5 -19 -1 -43 14 -81 17 -42 31 -60 68 -85 74 -48 88 -64 88 -99 0 -59 23 -99 96 -172 87 -85 108 -127 99 -199 -4 -32 0 -76 10 -118 8 -37 13 -72 10 -76 -3 -5 -1 -11 5 -15 16 -10 12 -70 -9 -125 -19 -50 -54 -101 -120 -175 l-36 -40 39 35 c48 43 113 130 132 175 17 41 18 136 3 185 -6 19 -11 91 -12 160 l-2 126 -39 64 c-51 87 -55 119 -21 220 21 63 26 94 22 131 -9 71 -49 209 -59 203 -5 -3 -6 6 -2 20 3 15 2 26 -4 26 -5 0 -12 9 -15 20 -3 11 -1 18 4 14 5 -3 9 4 9 15 0 20 -6 20 -340 21 l-340 0 0 -32z m515 -116 c5 -19 1 -25 -30 -38 -20 -8 -44 -13 -53 -11 -13 4 -12 5 3 6 11 0 30 8 41 16 12 8 25 11 29 7 5 -4 5 2 0 13 -4 11 -9 29 -12 40 -3 16 -2 17 5 5 5 -8 13 -25 17 -38z m188 -129 c16 -18 27 -38 25 -44 -4 -11 -32 28 -72 96 -17 30 -17 30 1 5 10 -13 31 -39 46 -57z m-676 20 c-3 -10 -5 -2 -5 17 0 19 2 27 5 18 2 -10 2 -26 0 -35z m83 38 c0 -4 -22 -37 -49 -72 l-48 -64 32 -30 c17 -16 24 -24 14 -17 -9 8 -26 15 -36 16 -30 5 -27 35 10 75 18 21 42 52 53 69 19 33 24 38 24 23z m620 -145 c0 -15 -10 -30 -27 -41 l-28 -18 23 25 c12 13 22 32 22 41 0 9 2 17 5 17 3 0 5 -11 5 -24z m-691 -171 c0 -22 -3 -48 -7 -57 -4 -10 -7 16 -7 57 0 41 3 67 7 57 4 -9 7 -35 7 -57z"/>
 <path d="M1596 1916 c-4 -46 -2 -122 4 -171 11 -88 -1 -280 -19 -298 -5 -4 -18 16 -31 44 -18 43 -21 62 -14 98 11 66 11 357 0 323 -5 -15 -10 -81 -11 -147 -1 -66 -5 -145 -10 -176 -7 -51 -5 -62 29 -136 42 -94 45 -134 15 -218 -29 -83 -22 -154 27 -275 51 -124 52 -189 6 -282 -42 -84 -79 -127 -171 -197 -42 -32 -83 -67 -91 -76 -20 -25 125 79 174 124 36 34 38 34 31 11 -12 -41 -52 -115 -81 -151 l-28 -34 38 35 c44 41 72 90 81 145 7 39 33 91 41 83 10 -11 -38 -165 -71 -227 -42 -79 -86 -125 -170 -176 -33 -20 -49 -34 -35 -30 46 13 115 58 158 103 23 25 42 40 42 35 0 -13 -51 -82 -76 -105 -27 -24 -131 -74 -182 -88 -24 -6 -52 -20 -62 -30 -15 -15 -29 -18 -72 -13 -36 3 -64 0 -88 -11 -35 -15 -35 -15 55 -16 78 0 95 3 125 23 19 13 55 29 80 37 130 40 203 98 234 185 10 28 26 70 36 95 25 63 38 115 45 190 4 36 13 75 21 87 8 12 15 30 17 40 1 10 6 23 9 29 4 6 5 91 3 190 -3 142 -8 192 -23 241 -15 46 -19 79 -15 122 3 33 1 73 -5 90 -8 23 -7 49 3 104 8 39 17 98 21 129 4 46 9 58 26 64 29 9 106 82 125 118 9 17 18 60 20 96 2 36 8 69 14 75 5 5 9 14 9 20 0 5 -5 3 -10 -5 -6 -10 -10 -11 -10 -2 0 9 -27 12 -104 12 l-103 0 -7 -84z m178 -57 c-26 -65 -50 -96 -100 -125 -53 -31 -71 -26 -20 5 48 30 101 92 116 135 7 21 14 35 16 33 3 -3 -3 -24 -12 -48z m-161 -714 c10 -42 17 -106 16 -143 l-1 -67 -24 51 c-13 28 -27 72 -30 97 -7 50 3 137 15 137 4 0 15 -34 24 -75z"/>
 <path d="M1432 1940 c0 -19 2 -27 5 -17 2 9 2 25 0 35 -3 9 -5 1 -5 -18z"/>
 <path d="M1421 1745 c-1 -78 -7 -131 -21 -180 -29 -102 -26 -134 21 -234 40 -85 41 -87 33 -161 -10 -101 -8 -147 11 -218 18 -71 22 -137 11 -172 -12 -34 -55 -94 -111 -155 -86 -93 -90 -110 -5 -22 143 149 160 199 124 354 -12 51 -14 87 -8 143 13 135 10 159 -31 240 -44 87 -48 128 -22 242 17 79 21 204 7 248 -5 16 -8 -14 -9 -85z"/>
 <path d="M501 1767 c-1 -10 4 -28 10 -39 10 -19 41 -247 41 -313 1 -16 -3 -54 -7 -83 -5 -34 -3 -78 4 -120 11 -57 10 -73 -3 -111 -21 -58 -20 -99 5 -173 19 -59 20 -62 3 -128 -17 -64 -17 -69 0 -114 17 -45 101 -147 137 -166 10 -6 -7 15 -37 45 -58 58 -93 121 -94 168 0 16 7 53 15 82 15 50 15 57 -5 114 -24 73 -25 116 -4 167 16 38 16 48 -3 178 -3 21 0 63 7 95 8 40 9 64 1 83 -6 15 -13 69 -17 120 -4 58 -15 115 -30 153 -12 33 -23 52 -23 42z"/>
 <path d="M1305 1033 c-4 -32 -8 -65 -10 -73 -2 -9 2 -46 9 -81 23 -122 11 -170 -63 -255 -20 -22 -13 -16 16 13 61 62 78 110 68 187 -4 28 -8 99 -8 159 0 59 -1 107 -2 107 -2 0 -6 -26 -10 -57z"/>
 <path d="M1261 938 c-1 -26 -42 -78 -61 -78 -5 0 -14 9 -20 20 -6 11 -18 20 -27 20 -13 0 -10 -7 12 -30 l29 -30 -22 -30 c-17 -23 -19 -30 -8 -30 8 0 18 9 21 20 8 25 20 25 37 2 7 -10 21 -21 30 -25 12 -4 16 -13 12 -24 -19 -58 -48 -105 -98 -161 -74 -83 -72 -89 4 -10 99 104 123 182 102 323 -5 33 -10 48 -11 33z m7 -103 c-3 -50 -7 -54 -32 -27 -15 17 -15 21 0 50 21 42 34 32 32 -23z"/>
 <path d="M741 883 c8 -10 20 -24 27 -32 11 -11 10 -17 -5 -35 -10 -11 -22 -24 -28 -28 -6 -5 -4 -8 4 -8 8 0 25 9 37 21 l23 21 13 -21 c7 -12 19 -21 27 -21 10 0 8 6 -7 23 -27 29 -27 38 -1 71 25 32 5 35 -22 4 l-19 -23 -19 23 c-23 27 -51 32 -30 5z"/>
 <path d="M860 730 c-19 -11 -30 -19 -25 -19 6 0 26 8 45 19 19 11 31 19 25 19 -5 0 -26 -8 -45 -19z"/>
 <path d="M1125 729 c22 -10 47 -18 55 -18 8 0 -7 9 -35 19 -63 25 -73 24 -20 -1z"/>
 </g>
<g id="layer114" fill="#2a1d1a" stroke="none">
 <path d="M421 1900 c-15 -139 -14 -185 8 -256 17 -54 19 -74 10 -160 -8 -87 -6 -112 13 -202 24 -112 25 -101 -27 -242 -22 -58 -15 -102 26 -187 29 -62 33 -79 39 -194 6 -121 7 -127 38 -170 18 -25 54 -62 80 -81 52 -40 132 -88 147 -88 5 0 -19 17 -54 37 -76 46 -151 117 -175 168 -13 28 -18 65 -19 149 -2 102 -5 117 -35 183 -38 84 -42 145 -12 202 40 79 44 121 21 210 -16 62 -21 111 -21 214 0 96 -4 147 -15 178 -20 55 -21 87 -11 227 4 61 6 112 3 112 -2 0 -9 -45 -16 -100z"/>
 <path d="M913 1979 c6 -24 -28 -139 -51 -177 -14 -22 -15 -22 -35 -5 -16 15 -15 8 8 -32 36 -64 55 -85 83 -96 29 -11 24 -19 -40 -63 -101 -68 -115 -87 -98 -131 5 -14 6 -25 1 -25 -12 0 -38 32 -46 58 -9 32 -64 92 -92 103 -33 12 -29 40 15 92 20 25 46 61 56 79 23 39 12 29 -34 -32 -18 -25 -40 -50 -48 -57 -24 -20 -32 -83 -20 -151 10 -54 9 -78 -7 -157 -17 -90 -17 -96 -1 -139 10 -25 22 -49 27 -52 6 -3 15 -17 20 -31 8 -21 3 -39 -27 -100 l-37 -75 16 -46 c19 -52 21 -98 8 -154 -15 -62 5 -116 64 -173 47 -46 171 -123 181 -112 3 2 -20 17 -51 31 -70 35 -161 117 -174 159 -13 37 -8 112 10 150 10 22 8 34 -10 76 -11 27 -21 56 -21 63 0 7 16 45 36 85 l36 72 -23 48 c-13 26 -24 53 -24 58 -1 14 107 125 121 125 18 0 53 81 56 129 3 41 7 46 62 85 78 54 96 81 103 148 5 48 9 57 28 60 20 4 22 2 15 -22 -5 -19 -1 -43 14 -81 17 -42 31 -60 68 -85 74 -48 88 -64 88 -99 0 -59 23 -99 96 -172 87 -85 108 -127 99 -199 -4 -32 0 -76 10 -118 8 -37 13 -72 10 -76 -3 -5 -1 -11 5 -15 16 -10 12 -70 -9 -125 -19 -50 -54 -101 -120 -175 l-36 -40 39 35 c48 43 113 130 132 175 17 41 18 136 3 185 -6 19 -11 91 -12 160 l-2 126 -39 64 c-51 87 -55 119 -21 220 31 94 30 126 -6 259 -27 99 -38 100 -14 1 10 -39 15 -73 13 -76 -3 -2 -22 23 -43 57 -20 33 -39 58 -42 56 -5 -6 17 -43 64 -106 45 -60 46 -119 4 -157 -16 -14 -42 -50 -57 -80 -30 -60 -47 -70 -38 -24 8 38 -13 72 -69 107 -75 48 -106 83 -74 83 20 0 49 36 96 115 38 64 39 67 10 33 -31 -36 -32 -37 -48 -17 -14 17 -20 18 -48 8 -18 -6 -38 -9 -45 -6 -7 3 -4 6 7 6 11 1 30 8 41 16 12 8 25 11 29 7 5 -4 5 2 1 13 -19 50 -36 112 -36 133 0 21 -3 22 -91 22 -88 0 -91 -1 -86 -21z m181 -288 c-6 -6 -34 21 -46 43 -7 15 -1 12 20 -9 16 -16 28 -32 26 -34z m-435 -226 c0 -22 -3 -48 -7 -57 -4 -10 -7 16 -7 57 0 41 3 67 7 57 4 -9 7 -35 7 -57z"/>
 <path d="M1597 1919 c-5 -53 -4 -121 3 -174 11 -88 -1 -280 -19 -298 -5 -4 -18 16 -31 44 -18 43 -21 62 -14 98 11 66 11 357 0 323 -5 -15 -10 -81 -11 -147 -1 -66 -5 -145 -10 -176 -7 -51 -5 -62 29 -136 42 -94 45 -134 15 -218 -29 -83 -22 -154 27 -275 51 -124 52 -189 6 -282 -42 -84 -79 -127 -171 -197 -42 -32 -83 -67 -91 -76 -20 -25 125 79 174 124 36 34 38 34 31 11 -12 -41 -52 -115 -81 -151 l-28 -34 38 35 c44 41 72 90 81 145 7 39 33 91 41 83 10 -11 -38 -165 -71 -227 -42 -79 -86 -125 -170 -176 -33 -20 -49 -34 -35 -30 46 13 115 58 158 103 23 25 42 40 42 35 0 -13 -51 -82 -76 -105 -27 -24 -131 -74 -182 -88 -24 -6 -52 -20 -62 -30 -15 -15 -29 -18 -72 -13 -36 3 -64 0 -88 -11 -35 -15 -35 -15 55 -16 78 0 95 3 125 23 19 13 55 29 80 37 130 40 203 98 235 185 10 28 28 77 40 110 23 60 30 89 41 187 3 29 12 63 20 75 8 12 15 30 17 40 1 10 5 23 9 28 4 6 5 44 3 85 -2 41 -3 91 -2 110 5 93 -2 171 -21 235 -14 50 -19 86 -15 127 3 34 1 70 -6 86 -9 22 -8 42 3 92 8 36 16 95 18 132 3 61 5 68 26 73 30 7 109 80 129 119 9 17 17 60 19 96 l3 65 -14 -58 c-19 -73 -37 -109 -77 -146 -35 -33 -85 -58 -95 -47 -3 3 -9 70 -12 148 l-6 143 -8 -86z m16 -774 c10 -42 17 -106 16 -143 l-1 -67 -24 51 c-13 28 -27 72 -30 97 -7 50 3 137 15 137 4 0 15 -34 24 -75z"/>
 <path d="M1432 1940 c0 -19 2 -27 5 -17 2 9 2 25 0 35 -3 9 -5 1 -5 -18z"/>
 <path d="M191 1938 c-1 -31 22 -127 38 -156 6 -11 25 -33 44 -49 32 -28 34 -34 40 -117 4 -48 16 -115 28 -148 17 -52 19 -69 10 -104 -14 -56 -14 -110 1 -151 10 -29 9 -43 -14 -110 -15 -43 -30 -99 -34 -125 -7 -51 10 -140 32 -173 8 -11 14 -45 14 -78 0 -87 28 -195 64 -252 18 -27 38 -77 45 -110 31 -149 57 -191 139 -221 26 -10 67 -31 92 -48 42 -29 51 -31 158 -34 61 -2 112 0 112 4 0 5 -37 9 -82 9 -78 0 -178 25 -178 43 0 4 44 6 97 6 l98 -2 -96 8 c-109 9 -220 41 -251 73 -28 30 -58 79 -58 96 0 7 20 -5 44 -27 47 -44 134 -92 163 -92 10 1 -4 9 -30 20 -76 29 -144 88 -173 147 -21 43 -27 74 -33 167 -7 113 -8 115 -67 236 -56 116 -59 127 -58 194 1 50 10 100 32 170 42 131 42 188 -3 362 -25 97 -35 157 -35 212 0 52 -3 72 -10 62 -7 -12 -13 -11 -35 10 -40 37 -63 81 -79 146 -9 36 -15 48 -15 32z m189 -655 c-1 -53 -3 -64 -11 -50 -10 17 -4 117 7 117 2 0 4 -30 4 -67z m41 -632 c11 -31 23 -87 25 -126 l4 -70 -23 50 c-21 43 -58 192 -57 228 1 21 29 -25 51 -82z"/>
 <path d="M1421 1745 c-1 -78 -7 -131 -21 -180 -29 -102 -26 -134 21 -234 40 -85 41 -87 33 -161 -10 -101 -8 -147 11 -218 18 -71 22 -137 11 -172 -12 -34 -55 -94 -111 -155 -86 -93 -90 -110 -5 -22 143 149 160 199 124 354 -12 51 -14 87 -8 143 13 135 10 159 -31 240 -44 87 -48 128 -22 242 17 79 21 204 7 248 -5 16 -8 -14 -9 -85z"/>
 <path d="M624 1770 c0 -38 4 -67 8 -64 10 6 9 92 0 116 -4 10 -7 -14 -8 -52z"/>
 <path d="M501 1767 c-1 -10 4 -28 10 -39 10 -19 41 -247 41 -313 1 -16 -3 -54 -7 -83 -5 -34 -3 -78 4 -120 11 -57 10 -73 -3 -111 -21 -58 -20 -99 5 -173 19 -59 20 -62 3 -128 -17 -64 -17 -69 0 -114 17 -45 101 -147 137 -166 10 -6 -7 15 -37 45 -58 58 -93 121 -94 168 0 16 7 53 15 82 15 50 15 57 -5 114 -24 73 -25 116 -4 167 16 38 16 48 -3 178 -3 21 0 63 7 95 8 40 9 64 1 83 -6 15 -13 69 -17 120 -4 58 -15 115 -30 153 -12 33 -23 52 -23 42z"/>
 <path d="M1305 1033 c-4 -32 -8 -65 -10 -73 -2 -9 2 -46 9 -81 23 -122 11 -170 -63 -255 -20 -22 -13 -16 16 13 61 62 78 110 68 187 -4 28 -8 99 -8 159 0 59 -1 107 -2 107 -2 0 -6 -26 -10 -57z"/>
 <path d="M1261 938 c-1 -26 -42 -78 -61 -78 -5 0 -14 9 -20 20 -6 11 -18 20 -27 20 -13 0 -10 -7 12 -30 l29 -30 -22 -30 c-17 -23 -19 -30 -8 -30 8 0 18 9 21 20 8 25 20 25 37 2 7 -10 21 -21 30 -25 12 -4 16 -13 12 -24 -19 -58 -48 -105 -98 -161 -74 -83 -72 -89 4 -10 99 104 123 182 102 323 -5 33 -10 48 -11 33z m7 -103 c-3 -50 -7 -54 -32 -27 -15 17 -15 21 0 50 21 42 34 32 32 -23z"/>
 <path d="M741 883 c8 -10 20 -24 27 -32 11 -11 10 -17 -5 -35 -10 -11 -22 -24 -28 -28 -6 -5 -4 -8 4 -8 8 0 25 9 37 21 l23 21 13 -21 c7 -12 19 -21 27 -21 10 0 8 6 -7 23 -27 29 -27 38 -1 71 25 32 5 35 -22 4 l-19 -23 -19 23 c-23 27 -51 32 -30 5z"/>
 </g>
<g id="layer115" fill="#141010" stroke="none">
 <path d="M913 1979 c6 -24 -28 -139 -51 -177 -14 -22 -15 -22 -35 -5 -16 15 -15 8 8 -32 36 -64 55 -85 83 -96 29 -11 24 -19 -40 -63 -101 -68 -115 -87 -98 -131 5 -14 6 -25 1 -25 -12 0 -38 32 -46 59 -8 26 -72 101 -86 101 -5 0 6 -15 25 -32 18 -18 43 -54 54 -80 12 -28 29 -49 42 -53 28 -9 30 -6 38 51 7 45 11 51 70 92 35 24 70 54 78 67 21 32 30 121 14 140 -15 17 0 21 18 3 8 -8 15 -8 24 -1 7 6 30 13 50 17 50 9 58 26 41 89 -7 28 -13 62 -13 74 0 22 -3 23 -91 23 -88 0 -91 -1 -86 -21z"/>
 <path d="M191 1950 c-2 -24 26 -145 37 -167 6 -11 27 -34 46 -50 19 -17 36 -39 39 -49 3 -11 5 -5 6 14 1 25 -6 39 -28 58 -42 35 -69 82 -85 150 -8 32 -15 52 -15 44z"/>
 <path d="M1790 1895 c-2 -62 -74 -154 -137 -177 -34 -12 -45 -38 -18 -38 28 0 70 27 112 73 48 52 68 103 54 138 -9 21 -10 22 -11 4z"/>
 <path d="M1184 1815 c-25 -34 -27 -34 -43 -15 -15 18 -18 18 -68 2 -59 -19 -66 -34 -45 -96 21 -63 29 -73 96 -117 63 -41 64 -43 71 -95 5 -44 10 -54 25 -54 22 0 60 45 60 71 0 10 16 35 36 55 21 20 28 31 16 25 -24 -13 -52 -50 -77 -103 -21 -45 -37 -50 -29 -8 8 38 -13 72 -69 107 -75 48 -106 83 -74 83 19 0 49 35 96 113 45 73 47 87 5 32z m-90 -124 c-6 -6 -34 21 -46 43 -7 15 -1 12 20 -9 16 -16 28 -32 26 -34z"/>
 <path d="M1250 1845 c0 -8 29 -53 67 -104 19 -26 33 -37 33 -27 0 9 -4 16 -9 16 -4 0 -25 27 -45 60 -34 55 -46 69 -46 55z"/>
 <path d="M672 1738 c-43 -59 -46 -65 -15 -32 34 37 80 104 71 104 -2 0 -27 -33 -56 -72z"/>
 <path d="M453 1555 c0 -27 2 -38 4 -22 2 15 2 37 0 50 -2 12 -4 0 -4 -28z"/>
 <path d="M1530 1497 c0 -3 16 -38 35 -78 19 -41 35 -67 35 -60 0 7 -14 41 -31 75 -31 62 -39 74 -39 63z"/>
 <path d="M443 1405 c0 -27 2 -38 4 -22 2 15 2 37 0 50 -2 12 -4 0 -4 -28z"/>
 <path d="M1390 1422 c0 -7 16 -44 36 -83 19 -39 39 -90 44 -113 7 -35 8 -37 9 -11 0 17 -19 72 -44 125 -25 52 -45 89 -45 82z"/>
 <path d="M1352 1321 c12 -22 24 -38 26 -36 5 4 -37 75 -44 75 -3 0 6 -18 18 -39z"/>
 <path d="M468 1270 c14 -68 7 -134 -21 -202 -15 -36 -26 -81 -26 -100 1 -29 2 -28 9 12 5 25 18 68 30 95 29 68 35 130 16 185 -12 34 -14 37 -8 10z"/>
 <path d="M551 1240 c0 -8 4 -24 9 -35 5 -13 9 -14 9 -5 0 8 -4 24 -9 35 -5 13 -9 14 -9 5z"/>
 <path d="M620 1235 c0 -5 9 -23 20 -40 27 -41 25 -71 -10 -130 -34 -57 -37 -88 -14 -136 9 -22 13 -25 9 -9 -19 72 -17 89 14 138 37 59 39 94 6 147 -13 22 -24 36 -25 30z"/>
 <path d="M1394 1125 c0 -60 1 -84 3 -52 2 32 2 81 0 110 -2 29 -3 3 -3 -58z"/>
 <path d="M1556 1208 c-19 -74 3 -192 53 -284 27 -47 23 -34 -19 71 -30 73 -32 86 -27 157 5 81 4 94 -7 56z"/>
 <path d="M376 1189 c-8 -42 0 -50 9 -9 4 17 5 34 2 36 -2 3 -7 -10 -11 -27z"/>
 <path d="M341 1068 c-21 -72 -28 -182 -13 -205 4 -7 6 19 4 57 -3 51 1 88 18 141 11 39 19 73 17 75 -2 2 -14 -28 -26 -68z"/>
 <path d="M1453 1070 c0 -25 2 -35 4 -22 2 12 2 32 0 45 -2 12 -4 2 -4 -23z"/>
 <path d="M1402 995 c0 -11 3 -29 8 -40 11 -25 11 1 0 35 -6 20 -8 21 -8 5z"/>
 <path d="M1423 885 c0 -22 2 -30 4 -17 2 12 2 30 0 40 -3 9 -5 -1 -4 -23z"/>
 <path d="M1229 880 l-33 -31 -15 26 c-9 14 -22 25 -30 25 -10 0 -6 -9 12 -28 33 -34 33 -39 5 -69 -18 -19 -19 -23 -5 -23 8 0 19 9 22 20 8 25 20 25 37 2 12 -18 48 -37 48 -26 0 3 -12 15 -26 27 -24 21 -25 24 -10 51 8 16 20 33 28 37 7 4 10 11 6 14 -4 4 -21 -7 -39 -25z"/>
 <path d="M441 895 c0 -5 8 -26 19 -45 11 -19 19 -30 19 -25 0 6 -8 26 -19 45 -11 19 -19 31 -19 25z"/>
 <path d="M754 871 l28 -30 -21 -27 c-12 -15 -19 -30 -15 -33 3 -3 15 5 26 19 l20 25 18 -23 c10 -12 23 -22 30 -22 6 0 0 12 -14 27 l-25 27 25 33 c16 21 20 33 12 33 -7 0 -19 -9 -26 -20 -7 -11 -18 -20 -25 -20 -7 0 -18 9 -25 20 -7 11 -17 20 -24 20 -6 0 1 -13 16 -29z"/>
 <path d="M630 870 c0 -19 3 -21 12 -12 9 9 9 15 0 24 -9 9 -12 7 -12 -12z"/>
 <path d="M1317 822 c7 -69 11 -74 12 -15 1 28 -3 54 -8 57 -5 3 -6 -16 -4 -42z"/>
 <path d="M375 760 c9 -16 18 -30 21 -30 2 0 -2 14 -11 30 -9 17 -18 30 -21 30 -2 0 2 -13 11 -30z"/>
 <path d="M401 715 c0 -5 6 -21 14 -35 8 -14 14 -20 14 -15 0 6 -6 21 -14 35 -8 14 -14 21 -14 15z"/>
 <path d="M1542 428 c-10 -30 -10 -31 3 -14 13 17 21 46 12 46 -1 0 -8 -15 -15 -32z"/>
 <path d="M1495 343 l-17 -28 23 22 c12 12 20 25 17 28 -3 3 -13 -7 -23 -22z"/>
 </g>

</svg>