<?xml version="1.0" encoding="UTF-8" standalone="no"?>
<!-- Created with Inkscape (http://www.inkscape.org/) -->

<svg
   xmlns:dc="http://purl.org/dc/elements/1.1/"
   xmlns:cc="http://creativecommons.org/ns#"
   xmlns:rdf="http://www.w3.org/1999/02/22-rdf-syntax-ns#"
   xmlns:svg="http://www.w3.org/2000/svg"
   xmlns="http://www.w3.org/2000/svg"
   xmlns:sodipodi="http://sodipodi.sourceforge.net/DTD/sodipodi-0.dtd"
   xmlns:inkscape="http://www.inkscape.org/namespaces/inkscape"
   version="1.1"
   id="svg5861"
   width="266.66666"
   height="266.66666"
   viewBox="0 0 266.66666 266.66666"
   sodipodi:docname="Trustee1smirk.svg"
   inkscape:version="0.92.2 (5c3e80d, 2017-08-06)">
  <metadata
     id="metadata5867">
    <rdf:RDF>
      <cc:Work
         rdf:about="">
        <dc:format>image/svg+xml</dc:format>
        <dc:type
           rdf:resource="http://purl.org/dc/dcmitype/StillImage" />
        <dc:title></dc:title>
      </cc:Work>
    </rdf:RDF>
  </metadata>
  <defs
     id="defs5865" />
  <sodipodi:namedview
     pagecolor="#ffffff"
     bordercolor="#666666"
     borderopacity="1"
     objecttolerance="10"
     gridtolerance="10"
     guidetolerance="10"
     inkscape:pageopacity="0"
     inkscape:pageshadow="2"
     inkscape:window-width="640"
     inkscape:window-height="480"
     id="namedview5863"
     showgrid="false"
     inkscape:zoom="0.88500003"
     inkscape:cx="133.33333"
     inkscape:cy="133.33333"
     inkscape:window-x="0"
     inkscape:window-y="0"
     inkscape:window-maximized="0"
     inkscape:current-layer="svg5861" />
  <path
     inkscape:connector-curvature="0"
     id="path5893"
     d="M 1.4802249,133.33333 V 0 H 134.81355 268.14688 V 133.33333 266.66666 H 134.81355 1.4802249 Z"
     style="fill:#fefdfd;stroke-width:1.33333325" />
  <path
     inkscape:connector-curvature="0"
     id="path5891"
     d="m 36.685515,260.99999 c 0.483696,-3.11666 2.399848,-8.70076 4.258116,-12.40909 3.728469,-7.44048 10.250646,-11.80295 19.869926,-13.29035 9.145846,-1.41418 42.517813,-12.87182 45.598903,-15.65553 l 2.93224,-2.64921 0.66001,3.16876 c 3.87708,18.61425 5.20597,24.26105 7.27529,30.91454 2.57181,8.26918 3.1558,8.28442 7.26223,0.18952 1.13408,-2.23557 4.49225,-6.56893 7.4626,-9.62968 l 5.40064,-5.56498 -9.30859,-5.43651 c -10.61332,-6.19852 -12.71494,-8.82492 -13.97077,-17.45933 -0.7546,-5.18818 -1.86476,-6.96874 -7.06622,-11.33334 -3.39404,-2.84797 -7.331162,-5.77813 -8.749175,-6.51146 -1.60746,-0.83131 -3.409698,-4.34549 -4.786568,-9.33333 -2.872056,-10.40428 -5.46938,-15.13526 -9.379737,-17.08498 -2.239071,-1.1164 -3.851567,-3.87009 -5.481504,-9.36084 -1.270088,-4.27853 -3.927941,-10.11493 -5.906341,-12.96976 -2.010994,-2.90186 -3.886148,-7.75512 -4.252644,-11.00666 -0.565155,-5.01404 -0.202311,-6.17258 2.631256,-8.40147 l 3.28681,-2.58541 -1.868624,-10.62877 c -2.319894,-13.19562 -1.36899,-21.941436 3.491369,-32.111416 3.918836,-8.199903 11.881874,-17.177896 16.550077,-18.659526 1.499711,-0.47599 5.762447,-4.191749 9.472741,-8.257243 12.29457,-13.471555 25.98779,-17.390546 45.19753,-12.935509 23.0075,5.335796 35.45163,11.345188 45.30328,21.877392 12.69949,13.576786 16.43969,31.345898 12.02401,57.124192 -0.54866,3.20313 -0.2484,4.33333 1.15128,4.33333 7.75696,0 9.00156,11.12804 2.4274,21.70365 -2.18322,3.51207 -4.78386,9.21551 -5.7792,12.6743 -1.26259,4.38758 -3.03862,7.09488 -5.87483,8.95538 -3.86442,2.53499 -7.90875,11.26982 -10.23479,22.10475 -0.41785,1.94643 -2.22139,4.11392 -4.15695,4.99583 -1.88037,0.85676 -5.71977,3.68661 -8.532,6.28857 -4.10976,3.8025 -5.24786,5.92634 -5.79981,10.82316 -0.87435,7.75718 -4.25499,12.24526 -12.45453,16.53445 -13.13023,6.86841 -12.54691,5.52825 -5.62658,12.92665 3.3821,3.61572 7.11344,8.43858 8.2919,10.71744 3.61174,6.98436 2.38473,6.53624 -2.25598,-0.82392 l -4.3986,-6.97616 -3.06788,3.26562 c -2.85173,3.03553 -2.96456,3.74737 -1.6014,10.10357 0.80656,3.76088 1.46648,7.10843 1.46648,7.439 0,0.33057 -3.84588,0.60104 -8.5464,0.60104 h -8.5464 l 1.83069,-7.66667 c 1.74786,-7.31978 1.70371,-7.77374 -0.97582,-10.03333 -1.54357,-1.30168 -2.95784,-2.20168 -3.1428,-2 -3.07788,3.35581 -8.53408,15.20124 -7.90905,17.17053 0.77695,2.44798 -0.58011,2.52947 -42.124105,2.52947 H 35.806069 Z M 148.54863,193.3035 c 4.4394,-3.49202 4.38167,-8.2176 -0.0867,-7.09612 -1.71834,0.43128 -6.33349,0.86106 -10.25589,0.95504 -7.74545,0.18562 -8.87496,2.17091 -1.23515,2.17091 3.05634,0 4.35367,0.50645 3.75962,1.46765 -0.51579,0.83455 -2.56282,1.13652 -4.74536,0.7 -4.88787,-0.97757 -5.01348,1.18091 -0.17163,2.94931 5.69504,2.08001 9.01268,1.78125 12.73508,-1.14679 z m -21.78497,-55.47584 c 0.80464,-0.80464 -1.75617,-4.87413 -3.41513,-5.42712 -0.70098,-0.23366 -1.97766,1.43803 -2.83708,3.71487 -1.54021,4.08049 -1.51111,4.1268 2.0337,3.23711 1.97795,-0.49644 3.87628,-1.18262 4.21851,-1.52486 z m 34.19254,0.0633 c -0.44513,-1.16003 -0.80932,-2.98114 -0.80932,-4.04696 0,-1.5247 -0.56856,-1.63358 -2.66666,-0.51071 -4.50196,2.40937 -3.05663,6.23952 2.47598,6.5614 1.11752,0.0651 1.49988,-0.70112 1,-2.00379 z m -52.52491,-3.22434 c -0.66604,-4.53807 -1.37847,-4.82137 -5.02957,-2 -2.562,1.97979 -2.562,2.02022 0,4 4.04198,3.12342 5.68561,2.46983 5.02957,-2 z m 10.39701,1.30578 c 1.4873,-2.77905 0.79575,-5.30578 -1.45217,-5.30578 -0.70403,0 -0.90358,1.5 -0.44344,3.33334 0.6861,2.73362 0.35083,3.33333 -1.86348,3.33333 -1.48506,0 -2.96796,-0.75 -3.29534,-1.66667 -0.32738,-0.91666 -1.03746,-1.25658 -1.57796,-0.75537 -1.69018,1.56733 0.63034,3.75537 3.98275,3.75537 1.85406,0 3.81622,-1.13697 4.64964,-2.69422 z m 51.98525,1.54578 c 0,-0.63164 -1.5,-0.86169 -3.33333,-0.51122 -2.58823,0.49477 -3.3379,0.0809 -3.35375,-1.85156 -0.0167,-2.03049 -0.24599,-2.13221 -1.24536,-0.55244 -0.67372,1.06498 -0.92912,2.41498 -0.56756,3 0.88841,1.43748 8.5,1.36156 8.5,-0.0848 z m 7.41183,-0.7618 c 2.05293,-1.5152 2.24884,-2.25434 0.94733,-3.57416 -2.23873,-2.27026 -11.40684,-2.95944 -10.64383,-0.80012 0.31443,0.88982 1.61204,1.52536 2.88359,1.41232 1.65548,-0.14717 2.1234,0.51536 1.648,2.33334 -0.79267,3.03113 1.52721,3.31348 5.16491,0.62862 z m -18.0785,128.84033 c 0,-0.58844 2.1,-8.50698 4.66667,-17.59676 2.56667,-9.08973 4.66667,-18.16921 4.66667,-20.17658 0,-2.00738 0.61836,-5.27618 1.37413,-7.264 l 1.37412,-3.61423 2.95921,2.67455 c 3.0544,2.7606 36.17831,14.18124 45.62587,15.73114 2.93333,0.48123 7.86353,2.16262 10.956,3.73643 4.52922,2.305 6.27948,4.32501 9,10.38716 1.85753,4.13913 3.37733,9.70067 3.37733,12.35897 v 4.83327 h -42 c -23.1,0 -42,-0.48145 -42,-1.06991 z"
     style="fill:#f1c8b1;stroke-width:1.33333325" />
  <path
     inkscape:connector-curvature="0"
     id="path5889"
     d="m 36.857695,260.99999 c 2.403581,-14.41 11.089688,-23.738 23.686622,-25.43702 8.132832,-1.09694 45.041413,-13.57632 46.332843,-15.6659 1.86634,-3.0198 3.59224,0.10547 4.50281,8.1539 0.50469,4.46084 2.68371,13.84806 4.84226,20.86048 6.11851,19.87696 10.68251,17.75521 -38.192538,17.75521 H 35.912496 Z m 95.296625,3.33334 c 0.004,-1.28334 0.64964,-4.64618 1.43456,-7.47298 1.27527,-4.59274 1.10588,-5.48161 -1.59191,-8.35326 l -3.01903,-3.21362 4.89135,-5.0092 4.89135,-5.0092 -2.97354,-1.85857 c -1.63545,-1.02221 -5.70545,-3.23137 -9.04444,-4.90923 -8.05883,-4.04958 -10.01712,-6.51518 -11.75658,-14.80222 -1.5614,-7.43876 -7.71961,-14.66324 -15.189484,-17.81951 -2.272679,-0.96028 -3.963313,-2.89625 -4.41382,-5.05433 -1.54024,-7.37829 -7.547937,-21.49788 -9.147062,-21.49788 -2.6714,0 -5.72303,-4.22429 -7.280999,-10.07889 -0.792136,-2.97672 -3.184573,-8.07672 -5.316526,-11.33334 -2.131955,-3.25661 -4.289443,-8.45361 -4.79442,-11.5489 -0.81114,-4.97194 -0.512222,-6.004 2.564937,-8.85582 3.234745,-2.99786 3.387551,-3.6423 2.143227,-9.03886 -2.29714,-9.96255 -1.704728,-25.576506 1.27229,-33.533301 3.108848,-8.309141 10.440113,-17.428805 16.456492,-20.470907 2.309729,-1.167884 6.799581,-5.056203 9.977445,-8.640709 11.15807,-12.585853 24.59805,-17.372856 40.74782,-14.513413 14.07498,2.492089 31.89474,8.673261 39.81294,13.809993 9.58414,6.21747 14.8469,12.103826 19.25578,21.537482 3.58307,7.666685 3.73885,8.847176 3.73885,28.333375 0,13.84292 0.46604,20.33336 1.46001,20.33333 0.80301,-2e-5 2.53271,1.18526 3.84376,2.63396 3.38629,3.74182 2.09961,12.43357 -3.03616,20.50979 -2.2654,3.56241 -4.51125,8.36241 -4.9908,10.66666 -1.20376,5.7841 -4.22421,10.18955 -6.98614,10.18955 -1.6315,0 -3.19639,2.45919 -5.30287,8.33333 -1.64359,4.58334 -2.98823,9.65532 -2.98808,11.2711 1.6e-4,1.64448 -1.50783,3.99233 -3.42551,5.33333 -1.88417,1.31756 -6.23417,4.73745 -9.66666,7.59976 -5.42774,4.52612 -6.35259,6.04945 -7.09828,11.69156 -1.08727,8.22664 -2.18775,9.4787 -14.05656,15.99269 -5.36399,2.94392 -9.75271,5.63709 -9.75271,5.98483 0,0.34772 1.8,2.14682 4,3.998 4.72368,3.97472 4.97136,5.83636 1.22732,9.22468 -2.32709,2.10598 -2.63127,3.45225 -1.89275,8.3771 0.48398,3.22734 1.19587,6.69118 1.582,7.69742 0.54776,1.42741 -1.08765,1.82953 -7.44058,1.82953 -6.86886,0 -8.14149,-0.36501 -8.13522,-2.33333 z m 17.92438,-71.96212 c 1.99584,-1.99584 3.01136,-3.8346 2.25672,-4.08615 -0.75463,-0.25154 -1.03728,-1.32977 -0.62811,-2.39606 0.61085,-1.59186 0.1048,-1.69572 -2.82837,-0.58054 -1.96478,0.74702 -6.7771,1.3582 -10.69403,1.3582 -6.70757,0 -7.0803,0.17446 -6.40965,3 1.72556,7.2701 12.19144,8.81655 18.30344,2.70455 z m -8.26515,-23.92092 c -0.91667,-0.36988 -2.41667,-0.36988 -3.33333,0 -0.91667,0.36988 -0.16667,0.67252 1.66666,0.67252 1.83334,0 2.58334,-0.30264 1.66667,-0.67252 z m -20.34312,-19.93528 c 8.12553,-3.25119 13.50488,-12.56337 10.50042,-18.17726 -1.86057,-3.47652 -11.35329,-7.60596 -17.56687,-7.6418 -13.61549,-0.0785 -22.257091,5.35823 -22.257091,14.00281 0,11.18752 15.392811,17.39022 29.323541,11.81625 z m -9.32355,-4.15353 c -1.1,-0.41874 -2.3,-1.13796 -2.66666,-1.5983 -0.36667,-0.46033 -2.16667,-1.58604 -4,-2.50157 l -3.33334,-1.6646 3.33334,0.68328 c 1.83333,0.37581 7.08333,0.69149 11.66666,0.70151 6.22535,0.0136 8.33334,0.48802 8.33334,1.87554 0,3.09895 -7.88201,4.57926 -13.33334,2.50414 z m 0.55888,-8.5359 c -1.13643,-1.83877 1.47364,-4.37489 3.32495,-3.23072 0.79723,0.49272 1.44951,1.39624 1.44951,2.00784 0,1.77367 -3.82808,2.75416 -4.77446,1.22288 z M 98.863621,134 c -0.01553,-4.48573 2.083829,-6.34191 8.227249,-7.27425 7.74457,-1.17533 18.03931,2.08608 20.85701,6.60758 l 2.07727,3.33333 -3.60456,-3.23125 c -3.06191,-2.74481 -5.02043,-3.24662 -13.0097,-3.33333 -8.51971,-0.0925 -9.64677,0.21173 -11.97159,3.23125 -2.345987,3.047 -2.567241,3.10427 -2.575679,0.66667 z m 82.625129,13.99564 c 15.45987,-7.88703 7.70932,-25.68021 -10.96571,-25.17431 -3.14022,0.0851 -4.65214,0.43048 -3.35984,0.76758 1.29232,0.3371 2.05423,1.09092 1.69315,1.67517 -0.36108,0.58424 1.48511,1.4098 4.10265,1.83457 5.50747,0.89374 8.52122,3.01088 8.52122,5.98611 0,1.66732 -0.385,1.56658 -1.89802,-0.49659 -1.58576,-2.16236 -3.4613,-2.5711 -11.40006,-2.48441 -7.77247,0.0849 -10.009,0.61072 -12.28724,2.88896 -4.91271,4.9127 -2.43239,7.00728 8.2978,7.00728 5.20456,0 10.62338,-0.62111 12.04184,-1.38024 1.72997,-0.92586 2.57901,-0.93422 2.57901,-0.0255 0,0.74517 -1.65,1.75867 -3.66667,2.25221 -2.01666,0.49355 -4.0302,1.45048 -4.4745,2.12651 -0.44431,0.67603 -3.33306,1.56784 -6.41942,1.9818 -4.54262,0.60929 -6.42062,0.15631 -9.85882,-2.37805 l -4.24726,-3.13074 2.08936,3.16662 c 5.18228,7.85421 19.31187,10.45429 29.25251,5.38294 z m -16.78299,-12.17006 c -1.13644,-1.83877 1.47364,-4.37489 3.32495,-3.23072 0.79723,0.49272 1.44951,1.39624 1.44951,2.00784 0,1.77367 -3.82808,2.75416 -4.77446,1.22288 z m -4.55888,130.43784 c 0,-0.22177 2.0236,-7.57177 4.4969,-16.33333 2.47329,-8.76155 4.9295,-19.07943 5.45825,-22.9286 1.06597,-7.7602 2.44248,-9.46102 5.32451,-6.57899 2.32137,2.32137 36.27797,13.73412 44.72034,15.03041 13.50653,2.0739 22.09821,11.26424 23.68413,25.3345 l 0.66267,5.87925 h -42.1734 c -23.19537,0 -42.1734,-0.18145 -42.1734,-0.40324 z"
     style="fill:#f3b097;stroke-width:1.33333325" />
  <path
     inkscape:connector-curvature="0"
     id="path5887"
     d="m 36.730073,261.66666 c 0.483976,-2.75 2.500751,-8.3 4.48172,-12.33333 4.049902,-8.24576 10.039305,-12.48259 19.474189,-13.77578 8.001989,-1.0968 43.145348,-12.76581 45.481108,-15.10157 3.01667,-3.01667 4.18212,-1.264 5.11884,7.698 0.4735,4.5302 2.66092,13.85599 4.86093,20.72397 6.36682,19.87592 10.8429,17.78871 -38.148358,17.78871 H 35.850115 Z m 95.424247,2.66667 c 0.004,-1.28334 0.64964,-4.64618 1.43456,-7.47298 1.27676,-4.59813 1.107,-5.48041 -1.6113,-8.3739 l -3.03844,-3.23427 4.89746,-4.89747 c 4.30959,-4.30958 5.32602,-4.74484 8.46767,-3.62608 1.96363,0.69924 4.79309,2.91391 6.28772,4.92147 l 2.71751,3.65011 -3.06264,3.26004 c -2.82203,3.0039 -2.96216,3.84325 -1.78374,10.68322 l 1.27892,7.42319 h -7.79757 c -6.54022,0 -7.79639,-0.37625 -7.79015,-2.33333 z m 29.53807,-3.33334 c 0.69412,-3.11666 2.70479,-10.46666 4.46813,-16.33333 1.76335,-5.86667 3.61074,-13.83013 4.10531,-17.69659 0.97739,-7.64117 2.5072,-9.67361 4.96976,-6.60264 0.86788,1.0823 9.37796,4.50511 18.91129,7.60624 24.44615,7.95218 24.70755,8.02632 28.29487,8.02632 1.77665,0 5.85093,1.5358 9.05394,3.4129 6.64536,3.89444 11.2679,11.90432 12.33532,21.37452 l 0.66267,5.87925 h -42.03167 -42.03167 z m -36.1465,-39.50784 c -7.99928,-2.85837 -10.72261,-5.58061 -10.75127,-10.747 -0.0182,-3.2771 -3.63451,-6.87534 -16.314397,-16.23279 -2.016667,-1.48826 -3.666667,-3.78932 -3.666667,-5.11348 0,-5.34015 -6.236624,-18.93858 -9.411766,-20.52156 -3.543728,-1.76674 -6.538307,-6.74615 -6.568578,-10.92228 -0.01081,-1.4914 -2.119656,-5.97116 -4.686322,-9.95504 -6.050775,-9.39176 -6.716491,-17.57913 -1.744625,-21.45642 2.50021,-1.94978 2.600903,-2.68981 1.233534,-9.06563 -2.081741,-9.70682 -1.854356,-22.430022 0.545272,-30.510446 2.391364,-8.052599 8.983021,-17.213184 15.087529,-20.967506 2.384792,-1.466666 8.37182,-6.566666 13.3045,-11.333333 14.68631,-14.192015 27.39491,-16.871306 50.90645,-10.732354 24.99519,6.526338 39.30667,16.235659 47.00076,31.88665 4.32249,8.792652 4.33305,8.864437 4.25998,28.954999 l -0.0732,20.1405 3.73992,2.14642 c 5.24544,3.01048 5.15506,10.1836 -0.23542,18.6835 -2.18644,3.44767 -4.96824,9.30408 -6.18178,13.01426 -2.27418,6.95292 -4.86255,10.55812 -7.60478,10.59226 -1.88332,0.0234 -7.57148,14.24184 -7.57148,18.92587 0,3.04595 -3.5468,7.72123 -5.85753,7.72123 -0.5395,0 -3.94195,2.55 -7.56103,5.66666 -5.633,4.85101 -6.58023,6.36272 -6.58079,10.50248 -6.1e-4,4.55445 -0.40285,5.00883 -6.91346,7.80961 -9.88466,4.25227 -24.8456,4.91132 -34.35485,1.5134 z m 30.37879,-11.95173 c 3.56019,-1.35276 9.19782,-4.33425 12.52807,-6.62552 10.85832,-7.47072 14.55031,-15.14148 24.31052,-50.50936 C 196.68862,138.18133 196.87259,136 194.14688,136 c -1.1,0 -2,1.15396 -2,2.56436 0,3.62126 -6.4052,10.7958 -11.56158,12.95026 -5.5606,2.32338 -15.29687,2.33147 -20.8354,0.0173 -5.48287,-2.2909 -12.41915,-10.14186 -13.56352,-15.35214 -0.91098,-4.1476 -3.18266,-5.3439 -8.37283,-4.4092 -1.89017,0.34039 -3,1.49377 -3,3.11771 0,8.71825 -9.74605,17.03927 -21.17074,18.07523 -11.18954,1.01461 -19.438575,-2.98783 -23.067939,-11.19262 -2.505624,-5.66437 -5.094648,-6.66445 -5.094648,-1.96794 0,2.20069 3.479269,15.11178 9.574682,35.53033 5.196565,17.40756 12.078425,25.77721 26.998975,32.83589 9.9929,4.72748 23.58919,5.27791 33.8708,1.3712 z m -15.41909,-13.13108 c 1.29729,-0.33805 3.09729,-0.31582 4,0.0495 0.90271,0.36524 -0.15871,0.64183 -2.35871,0.61465 -2.2,-0.0272 -2.93858,-0.326 -1.64129,-0.66405 z m -10.88725,-5.12241 c -4.87019,-5.54683 -4.97246,-5.9536 -1.49686,-5.9536 1.78015,0 2.92684,1.19543 3.51718,3.66667 0.48176,2.01666 1.46666,4.41666 2.18867,5.33333 2.93027,3.72029 -0.35641,1.34145 -4.20899,-3.0464 z m 18.52854,4.20965 c 0,-0.27686 1.05,-1.32686 2.33334,-2.33333 2.11474,-1.65849 2.1619,-1.61133 0.50341,0.50341 -1.74183,2.221 -2.83675,2.92731 -2.83675,1.82992 z m 4.60962,-8.68354 c -0.0307,-2.30203 0.91004,-4.45396 2.33624,-5.34464 2.88858,-1.80395 2.93322,-1.35559 0.45552,4.57442 -2.34915,5.62228 -2.72587,5.72622 -2.79176,0.77022 z m -18.27628,-15.80271 c -2.75,-0.27755 -5,-0.97196 -5,-1.54313 0,-0.57118 1.95,-0.81424 4.33333,-0.54016 8.09351,0.93074 16.01512,0.2269 17.43484,-1.5491 0.67399,-0.84314 0.89012,-0.6017 0.55687,0.62206 -0.29956,1.1 -1.99524,2.06013 -3.76818,2.13364 -1.77294,0.0735 -4.42353,0.41437 -5.8902,0.75749 -1.46666,0.34312 -4.91666,0.39676 -7.66666,0.1192 z m 4,-13.22671 c 0.91666,-0.36988 2.41666,-0.36988 3.33333,0 0.91667,0.36988 0.16667,0.67252 -1.66667,0.67252 -1.83333,0 -2.58333,-0.30264 -1.66666,-0.67252 z m -49.781171,6.54971 c -0.457588,-2.01667 -2.406698,-4.99899 -4.331357,-6.62737 -2.85197,-2.41298 -3.181485,-3.27634 -1.781096,-4.66667 1.398507,-1.38848 1.552966,-1.27172 0.82997,0.62737 C 82.901859,155.01865 83.149022,156 84.004238,156 c 1.975152,0 1.768406,-3.76536 -0.475862,-8.66667 l -1.831569,-4 -0.108293,5.07869 c -0.07003,3.28386 -0.618418,4.76342 -1.551755,4.18658 -0.793904,-0.49066 -0.576227,0.82393 0.483727,2.92132 1.059953,2.09737 1.647938,4.59813 1.306633,5.55722 -0.749547,2.10631 3.345027,6.92286 5.885157,6.92286 1.296896,0 1.580032,-1.05208 0.986773,-3.66667 z m 107.725031,2 c 2.79935,-2.20053 4.79566,-8.4746 2.19898,-6.91103 -1.38142,0.8318 -1.35267,0.52706 0.12146,-1.28813 2.23334,-2.75001 2.03472,-11.48609 -0.30613,-13.46488 -0.86923,-0.73477 -1.19147,-0.83703 -0.71611,-0.22721 0.47538,0.60981 0.007,3.15981 -1.04012,5.66666 -1.81306,4.33931 -1.56953,5.11783 1.46471,4.68235 0.73333,-0.1052 0.0427,0.87369 -1.53476,2.17544 C 193.69223,159.37605 190.9623,168 193.11943,168 c 0.65143,0 2.13852,-0.75 3.30464,-1.66667 z m 0.65924,-13.88889 c 0.37522,-0.97778 0.85382,-1.77778 1.06356,-1.77778 0.20975,0 0.68835,0.8 1.06356,1.77778 0.37522,0.97778 -0.10333,1.77778 -1.06356,1.77778 -0.96017,0 -1.43877,-0.8 -1.06356,-1.77778 z m -75.6031,-3.39516 c 4.90349,-1.80486 9.05606,-6.16912 10.7481,-11.29604 2.95232,-8.94562 -5.25801,-15.08658 -20.17044,-15.08658 -13.958636,0 -22.608092,6.75549 -20.564199,16.06128 0.935063,4.25731 7.223602,10.25943 11.755969,11.22054 7.21742,1.53046 8.4274,1.63524 11.5639,1.00137 1.83333,-0.37051 4.83333,-1.22577 6.66667,-1.90057 z m -11.02974,-8.67826 c 2.36697,-0.29454 6.56697,-0.29938 9.33333,-0.0107 2.76636,0.28864 0.82974,0.52962 -4.30359,0.53554 -5.13334,0.005 -7.39672,-0.23024 -5.02974,-0.52478 z m 2.25528,-4.54544 c -1.13643,-1.83877 1.47364,-4.37489 3.32495,-3.23072 0.79723,0.49272 1.44951,1.39624 1.44951,2.00784 0,1.77367 -3.82808,2.75416 -4.77446,1.22288 z m -13.892204,-2.07894 c 0,-0.73334 1.207744,-2.42634 2.683864,-3.76222 5.12433,-4.63745 26.64946,-1.82667 26.64946,3.47992 0,0.76774 -1.54936,0.17714 -3.44302,-1.31241 -4.63995,-3.64979 -18.89511,-3.40253 -23.09755,0.40062 -1.53601,1.39007 -2.792754,1.92742 -2.792754,1.19409 z m 83.333324,14.38892 c 2.2,-1.21539 5.08875,-4.42076 6.41944,-7.12306 2.24891,-4.56696 2.26924,-5.22978 0.28844,-9.40401 -2.70744,-5.70549 -9.37734,-8.94183 -18.42858,-8.94183 -8.88652,0 -15.21439,1.82771 -19.15947,5.53391 -3.79732,3.5674 -3.9396,7.10528 -0.51183,12.72699 6.15146,10.08868 20.29794,13.33689 31.392,7.208 z m -23.33333,-7.54647 c 4.76831,-1.03687 18.53621,-1.32993 17.01171,-0.36211 -0.92311,0.58603 -5.57838,1.0051 -10.34504,0.93127 -4.76667,-0.0739 -7.76667,-0.32996 -6.66667,-0.56916 z m 5.89221,-4.76351 c -1.13644,-1.83877 1.47364,-4.37489 3.32495,-3.23072 0.79723,0.49272 1.44951,1.39624 1.44951,2.00784 0,1.77367 -3.82808,2.75416 -4.77446,1.22288 z m -12.51648,-0.59317 c 0.2501,-7.26826 21.24528,-11.08759 27.35636,-4.97651 1.06402,1.06401 1.93458,2.60639 1.93458,3.42751 0,0.82111 -0.85411,0.32825 -1.89802,-1.09524 -1.5835,-2.15929 -3.46174,-2.57126 -11.33458,-2.48609 -7.9855,0.0864 -9.94894,0.58344 -12.76864,3.23242 -1.83266,1.72168 -3.31302,2.57575 -3.2897,1.89791 z m 53.21409,-0.31111 c 0.0524,-3.0089 -0.4127,-4.10946 -1.4625,-3.46065 -0.95374,0.58944 -1.17742,0.36576 -0.58798,-0.58798 0.52326,-0.84663 1.96596,-1.54853 3.20602,-1.55976 1.83812,-0.0166 1.90749,-0.24017 0.37554,-1.20997 -4.87424,-3.08564 -6.5939,1.82844 -3.46344,9.89706 l 1.03463,2.66666 L 202.21741,138 199.92919,135.33333 200.90788,138 c 0.53828,1.46666 1.29857,4.76666 1.68953,7.33333 l 0.71086,4.66667 1.00913,-5.33334 c 0.55503,-2.93333 1.04371,-7.31874 1.08597,-9.74536 z m -125.303727,2.49052 c -0.03028,-1.33225 -0.731377,-0.88173 -1.952753,1.25484 -2.594,4.53774 -2.51446,2.19576 0.09693,-2.85412 1.922421,-3.71754 1.911995,-4.25937 -0.12528,-6.51053 -1.222215,-1.35053 -3.136203,-2.10478 -4.253305,-1.6761 -1.52038,0.58342 -1.069797,1.2364 1.791941,2.59685 2.102676,0.9996 2.773044,1.52723 1.489711,1.17252 -1.889875,-0.52235 -2.333334,0.21332 -2.333334,3.87085 0,2.48367 0.396496,5.54901 0.881103,6.81188 0.822448,2.14327 0.999965,2.13356 2.666667,-0.14579 0.98206,-1.34305 1.764302,-3.37722 1.738317,-4.5204 z M 193.9742,121.36296 c -3.321,-16.04565 -8.15244,-26.489798 -15.8026,-34.160558 -9.65456,-9.680563 -15.77073,-11.008876 -34.27193,-7.443193 -8.45544,1.62959 -16.42051,2.380628 -20.67862,1.949814 -15.0312,-1.520773 -25.222867,2.931679 -30.625626,13.379463 -3.618921,6.998224 -7.59001,35.578174 -4.943469,35.578174 0.46112,0 3.082622,-2.02752 5.825562,-4.5056 5.088171,-4.59686 17.734653,-10.16703 23.052713,-10.15363 8.788,0.0221 18.3918,5.31539 15.64623,8.62359 -2.16688,2.61093 1.11009,4.27686 8.00846,4.07129 7.4416,-0.22175 9.65426,-1.47085 8.58322,-4.84541 -1.24186,-3.91271 9.68712,-8.45123 17.70468,-7.3523 8.03492,1.10131 17.14165,5.31098 21.44585,9.91355 3.03484,3.24521 6.88552,5.71334 7.83064,5.01911 0.148,-0.10872 -0.6508,-4.64215 -1.77511,-10.0743 z"
     style="fill:#df926f;stroke-width:1.33333325" />
  <path
     inkscape:connector-curvature="0"
     id="path5885"
     d="m 36.871079,261.66666 c 0.464762,-2.75 2.313225,-8.10329 4.107694,-11.89619 3.844574,-8.12614 9.42532,-11.95902 20.354143,-13.97933 11.243315,-2.07844 43.250684,-13.12263 45.199944,-15.59629 2.40266,-3.04904 3.7243,-0.54656 4.71682,8.93114 0.43431,4.14736 2.61386,13.46446 4.84343,20.70466 2.22958,7.24018 4.05377,13.99018 4.05377,15 0,1.52033 -7.23189,1.83601 -42.060408,1.83601 H 36.026056 Z m 95.351061,2 c 0.0414,-1.65 0.8275,-5.1 1.74692,-7.66667 1.56101,-4.35778 1.44844,-4.8547 -1.70097,-7.50762 l -3.37263,-2.84095 4.82571,-4.82572 c 2.65414,-2.65413 5.67181,-4.82571 6.70593,-4.82571 2.01609,0 10.38645,7.58823 10.38645,9.41594 0,0.60473 -1.26452,1.98522 -2.81004,3.06776 -2.53557,1.77597 -2.71815,2.7601 -1.86909,10.0756 l 0.94096,8.10737 h -7.46424 c -6.87412,0 -7.45831,-0.23719 -7.389,-3 z m 28.8616,0 c 0.37796,-1.65 2.38124,-8.7 4.45172,-15.66667 2.07048,-6.96666 4.14985,-15.66666 4.62084,-19.33333 1.30117,-10.12991 1.62058,-10.74047 4.35172,-8.31807 2.83486,2.51442 36.30118,13.88488 44.40697,15.08764 10.34194,1.53458 17.10552,5.73636 20.72213,12.8734 1.77633,3.50543 3.59927,9.0698 4.05096,12.36527 l 0.82127,5.99176 h -42.05642 -42.05639 z m 4.39648,-51.14265 c 0,-2.79094 -0.45986,-3.2849 -2.33334,-2.5064 -7.59918,3.15776 -15.21256,4.6421 -23.54524,4.59053 -8.3425,-0.0516 -12.71742,-0.99432 -21.0048,-4.52597 -1.52901,-0.65158 -2.41174,-0.19039 -2.84533,1.48658 -0.43021,1.66386 -0.67744,1.30971 -0.78329,-1.122 -0.14766,-3.39221 -4.10182,-7.206 -16.771027,-16.17566 -2.17676,-1.54113 -3.394081,-3.68121 -3.41292,-6 -0.01611,-1.98244 -1.216105,-6.21995 -2.666666,-9.41669 -1.450562,-3.19676 -2.637384,-6.60276 -2.637384,-7.56891 0,-0.96615 -1.05,-2.03103 -2.333333,-2.36639 -2.222223,-0.58073 -2.222223,-0.61713 0,-0.76444 2.938949,-0.19481 2.924151,-0.60962 -0.468715,-13.13978 -3.390127,-12.52004 -4.623203,-14.11774 -6.325877,-8.19639 l -1.298239,4.51484 -0.120253,-4.2706 c -0.06613,-2.34883 0.583298,-5.81472 1.443192,-7.70197 1.267981,-2.78292 1.146069,-4.30663 -0.645095,-8.06274 -1.214695,-2.54725 -2.72156,-4.63136 -3.348588,-4.63136 -1.893325,0 -4.68774,-21.90859 -3.840929,-30.113396 1.443555,-13.98669 12.321121,-30.796932 21.604503,-33.387699 1.466667,-0.409311 4.883392,-3.63503 7.592721,-7.168265 6.91418,-9.016771 19.16584,-14.998818 30.70735,-14.993301 10.26766,0.0049 32.02614,5.574136 43.36034,11.098364 10.74189,5.235544 20.83522,15.121867 25.3919,24.871111 3.42549,7.329036 3.59613,8.686501 3.60503,28.678016 0.007,15.04823 -0.44138,21.15789 -1.58379,21.59659 -2.53609,0.97389 -3.50072,9.38132 -1.66029,14.4709 0.97632,2.69996 1.21986,5.64863 0.58749,7.11304 -1.03497,2.39678 -1.10261,2.38986 -1.6185,-0.16536 -0.85062,-4.21314 -1.73219,-6.42785 -2.32331,-5.83672 -0.29973,0.29974 -1.75181,5.04847 -3.22685,10.55275 -1.47504,5.50428 -3.07988,11.04492 -3.56631,12.31255 -1.34684,3.50978 4.11752,2.96933 6.65861,-0.65859 1.14158,-1.62983 2.0756,-2.32283 2.0756,-1.53997 0,1.76633 -4.37968,5.83665 -6.28026,5.83665 -1.52439,0 -5.22408,9.47807 -7.02198,17.98923 -0.61837,2.9274 -2.14386,5.9274 -3.38997,6.66666 -1.24611,0.73926 -5.35013,3.70568 -9.12005,6.59204 l -6.8544,5.24793 6.2741,-6.43431 c 7.74458,-7.94235 10.55368,-13.81262 16.50782,-34.49698 5.6766,-19.72026 7.07677,-28.90392 4.4038,-28.88434 -1.01882,0.008 -2.84728,2.38277 -4.06327,5.27846 -5.17136,12.31483 -24.63267,15.76983 -36.4534,6.47164 -2.0306,-1.59726 -5.12079,-6.13486 -6.86708,-10.08356 -2.97877,-6.73551 -3.43888,-7.15368 -7.44145,-6.7631 -3.58206,0.34955 -4.40228,1.08685 -5.11377,4.59676 -1.96864,9.7117 -12.64309,17.84997 -23.33438,17.79029 -9.97192,-0.0557 -21.912367,-8.12983 -21.912367,-14.8172 0,-3.54145 -3.727011,-3.09133 -4.248891,0.51315 -0.825077,5.69857 9.646655,41.79529 14.795208,51 7.22564,12.91817 25.31059,23.33333 40.51618,23.33333 7.28914,0 17.90604,-2.90611 23.27083,-6.36979 2.93888,-1.89744 3,-1.82512 3,3.54977 0,3.01768 -0.3,5.48668 -0.66667,5.48668 -0.36666,0 -0.66666,-1.56418 -0.66666,-3.47598 z m -47.70808,-61.91603 c 6.9542,-1.93136 12.71982,-7.22525 14.56062,-13.36926 1.37972,-4.60509 1.26288,-5.57315 -0.97592,-8.08576 -3.85423,-4.32561 -10.25336,-6.4863 -19.20996,-6.4863 -18.414632,0 -27.016758,10.76747 -17.375063,21.74876 5.839453,6.65078 13.715343,8.77126 23.000323,6.19256 z m -5.26655,-10.19864 c 1.29729,-0.33805 3.09729,-0.31582 4,0.0493 0.90271,0.36524 -0.15871,0.64182 -2.35871,0.61465 -2.2,-0.0272 -2.93858,-0.326 -1.64129,-0.66405 z m 0.49393,-4.00114 c -1.50157,-1.50159 -0.91452,-3.07487 1.14736,-3.07487 1.1,0 2,0.56459 2,1.25464 0,1.68131 -2.08211,2.88547 -3.14736,1.82023 z m -10.93113,-6.30933 c 1.74053,-1.41148 5.0156,-2.03913 10,-1.91644 l 7.41183,0.18243 -8.09738,0.92639 c -4.45356,0.50951 -8.95356,1.37191 -10,1.91644 -1.04644,0.54453 -0.73794,0.0456 0.68555,-1.10882 z m 79.96269,18.17151 c 2.2637,-1.31321 5.29747,-4.56818 6.74174,-7.23328 2.47796,-4.57256 2.50358,-5.1022 0.45485,-9.39845 -2.91667,-6.11631 -9.30379,-8.97953 -19.94896,-8.9427 -9.83468,0.034 -19.07695,3.59684 -20.43567,7.8778 -2.19036,6.90122 4.29782,16.60321 13.30384,19.89363 5.1667,1.88771 14.64908,0.84 19.8842,-2.197 z m -16.19216,-7.86104 c 1.2973,-0.33805 3.0973,-0.31582 4,0.0493 0.90271,0.36524 -0.1587,0.64182 -2.3587,0.61465 -2.2,-0.0272 -2.93859,-0.326 -1.6413,-0.66405 z m -0.3587,-5.11785 c 0,-1.07699 0.9,-1.95816 2,-1.95816 1.1,0 2,0.53581 2,1.19068 0,0.65488 -0.9,1.53604 -2,1.95816 -1.21828,0.46749 -2,0.003 -2,-1.19068 z m -12,-1.82868 c 0,-4.07878 18.7311,-7.49575 23.72461,-4.32789 0.95995,0.60898 -1.52525,0.82458 -5.60508,0.48625 -8.48677,-0.70379 -13.08061,0.19705 -16.02629,3.14273 -1.15128,1.15128 -2.09324,1.46579 -2.09324,0.69891 z m 40.70886,-12.31687 C 189.86666,99.813892 182.14672,86.563945 170.7237,80.871606 c -8.0061,-3.989603 -12.77727,-4.280345 -25.24348,-1.538275 -4.76667,1.048478 -14.96667,1.940578 -22.66667,1.982444 -21.73128,0.11816 -27.777715,4.035723 -32.870685,21.297345 -1.18133,4.00388 -2.529011,12.18145 -2.994847,18.17237 -0.942714,12.12383 -0.20997,12.75377 6.771607,5.82161 5.362011,-5.32406 12.825745,-8.39636 21.885445,-9.00871 9.37085,-0.63338 17.35303,2.36443 15.96021,5.99406 -1.42622,3.71668 1.86448,5.74088 9.33284,5.74088 7.30724,0 9.10856,-1.16555 9.19915,-5.95235 0.07,-3.69865 5.48331,-6.00996 14.04961,-5.99871 8.9234,0.0117 16.67854,3.30774 24.984,10.61851 3.35215,2.95067 6.36411,5.09555 6.69326,4.7664 0.32914,-0.32914 -0.40663,-5.5587 -1.63506,-11.62124 z m -65.99528,68.27504 c -2.00363,-3.74381 -1.71543,-4.36086 1.28642,-2.75432 1.46666,0.78494 2.66666,2.30604 2.66666,3.38024 0,2.78346 -2.32551,2.41524 -3.95308,-0.62592 z m 24.85248,-2.37776 c -0.8837,-1.42985 2.456,-6.79893 3.54915,-5.70578 0.36663,0.36661 -0.0988,2.09673 -1.03429,3.8447 -0.9355,1.74796 -2.06718,2.58546 -2.51486,1.86108 z m 47.15912,-27.42968 c -0.0321,-1.31254 1.2519,-4.91254 2.85351,-8 3.11992,-6.01432 3.18024,-6.28842 3.52657,-16.02557 0.1382,-3.88563 0.75341,-6.08734 1.5614,-5.58797 0.73333,0.45322 1.33333,0.18863 1.33333,-0.58798 0,-0.77661 -0.7,-1.41202 -1.55556,-1.41202 -0.85554,0 -1.17005,-0.3855 -0.69888,-0.85667 0.47116,-0.47117 1.77116,-0.0977 2.88888,0.82993 2.33174,1.93516 2.77298,9.36007 0.55624,9.36007 -0.8258,0 -1.10286,0.97233 -0.62897,2.20728 0.50781,1.32332 -0.55636,4.23235 -2.65729,7.26399 -1.92736,2.78118 -4.31799,7.3379 -5.3125,10.12605 -0.99451,2.78815 -1.83454,3.99544 -1.86673,2.68289 z m 9.23397,-18.94688 c 0,-0.73333 -0.58161,-0.43333 -1.29249,0.66667 -0.71088,1.1 -1.29249,2.6 -1.29249,3.33333 0,0.73334 0.58161,0.43334 1.29249,-0.66666 0.71088,-1.1 1.29249,-2.6 1.29249,-3.33334 z M 78.918819,157.27154 c -0.05789,-1.13397 -2.189905,-5.33397 -4.737801,-9.33333 -2.547896,-3.99935 -4.620835,-8.17155 -4.606528,-9.27155 0.01431,-1.1 0.850217,-0.2 1.85758,2 2.221744,4.85211 2.639831,3.66006 0.554105,-1.57986 -2.379362,-5.97763 -2.418456,-9.50276 -0.125973,-11.35981 1.312029,-1.06283 1.773905,-1.12983 1.200996,-0.17421 -0.512005,0.85404 -0.360689,1.75404 0.336259,2 0.696946,0.24597 1.404241,4.33843 1.571763,9.09436 0.199723,5.67007 1.18427,10.13811 2.859675,12.97771 1.405299,2.3818 2.249111,5.09059 1.87514,6.01952 -0.463529,1.15139 -0.713452,1.03272 -0.785212,-0.37283 z"
     style="fill:#a1cb20;stroke-width:1.33333325" />
  <path
     inkscape:connector-curvature="0"
     id="path5883"
     d="m 36.871079,261.66666 c 0.464762,-2.75 2.313225,-8.10329 4.107694,-11.89619 3.844574,-8.12614 9.42532,-11.95902 20.354143,-13.97933 11.243315,-2.07844 43.250684,-13.12263 45.199944,-15.59629 2.40266,-3.04904 3.7243,-0.54656 4.71682,8.93114 0.43431,4.14736 2.61386,13.46446 4.84343,20.70466 2.22958,7.24018 4.05377,13.99018 4.05377,15 0,1.52033 -7.23189,1.83601 -42.060408,1.83601 H 36.026056 Z m 95.351061,2 c 0.0414,-1.65 0.8275,-5.1 1.74692,-7.66667 1.56101,-4.35778 1.44844,-4.8547 -1.70097,-7.50762 l -3.37263,-2.84095 4.82571,-4.82572 c 2.65414,-2.65413 5.67181,-4.82571 6.70593,-4.82571 2.01609,0 10.38645,7.58823 10.38645,9.41594 0,0.60473 -1.26452,1.98522 -2.81004,3.06776 -2.53557,1.77597 -2.71815,2.7601 -1.86909,10.0756 l 0.94096,8.10737 h -7.46424 c -6.87412,0 -7.45831,-0.23719 -7.389,-3 z m 28.8616,0 c 0.37796,-1.65 2.38124,-8.7 4.45172,-15.66667 2.07048,-6.96666 4.14985,-15.66666 4.62084,-19.33333 1.30117,-10.12991 1.62058,-10.74047 4.35172,-8.31807 2.83486,2.51442 36.30118,13.88488 44.40697,15.08764 10.34194,1.53458 17.10552,5.73636 20.72213,12.8734 1.77633,3.50543 3.59927,9.0698 4.05096,12.36527 l 0.82127,5.99176 h -42.05642 -42.05639 z m 4.39648,-51.14265 c 0,-2.79094 -0.45986,-3.2849 -2.33334,-2.5064 -7.59918,3.15776 -15.21256,4.6421 -23.54524,4.59053 -8.3425,-0.0516 -12.71742,-0.99432 -21.0048,-4.52597 -1.52901,-0.65158 -2.41174,-0.19039 -2.84533,1.48658 -0.43021,1.66386 -0.67744,1.30971 -0.78329,-1.122 -0.14766,-3.39221 -4.10182,-7.206 -16.771027,-16.17566 -2.17676,-1.54113 -3.394081,-3.68121 -3.41292,-6 -0.01611,-1.98244 -1.216105,-6.21995 -2.666666,-9.41669 -1.450562,-3.19676 -2.637384,-6.60276 -2.637384,-7.56891 0,-0.96615 -1.05,-2.03103 -2.333333,-2.36639 -2.222223,-0.58073 -2.222223,-0.61713 0,-0.76444 2.938949,-0.19481 2.924151,-0.60962 -0.468715,-13.13978 -3.390127,-12.52004 -4.623203,-14.11774 -6.325877,-8.19639 l -1.298239,4.51484 -0.120253,-4.2706 c -0.06613,-2.34883 0.583298,-5.81472 1.443192,-7.70197 1.267981,-2.78292 1.146069,-4.30663 -0.645095,-8.06274 -1.214695,-2.54725 -2.72156,-4.63136 -3.348588,-4.63136 -1.893325,0 -4.68774,-21.90859 -3.840929,-30.113396 1.443555,-13.98669 12.321121,-30.796932 21.604503,-33.387699 1.466667,-0.409311 4.883392,-3.63503 7.592721,-7.168265 6.91418,-9.016771 19.16584,-14.998818 30.70735,-14.993301 10.26766,0.0049 32.02614,5.574136 43.36034,11.098364 10.74189,5.235544 20.83522,15.121867 25.3919,24.871111 3.42549,7.329036 3.59613,8.686501 3.60503,28.678016 0.007,15.04823 -0.44138,21.15789 -1.58379,21.59659 -2.53609,0.97389 -3.50072,9.38132 -1.66029,14.4709 0.97632,2.69996 1.21986,5.64863 0.58749,7.11304 -1.03497,2.39678 -1.10261,2.38986 -1.6185,-0.16536 -0.85062,-4.21314 -1.73219,-6.42785 -2.32331,-5.83672 -0.29973,0.29974 -1.75181,5.04847 -3.22685,10.55275 -1.47504,5.50428 -3.07988,11.04492 -3.56631,12.31255 -1.34684,3.50978 4.11752,2.96933 6.65861,-0.65859 1.14158,-1.62983 2.0756,-2.32283 2.0756,-1.53997 0,1.76633 -4.37968,5.83665 -6.28026,5.83665 -1.52439,0 -5.22408,9.47807 -7.02198,17.98923 -0.61837,2.9274 -2.14386,5.9274 -3.38997,6.66666 -1.24611,0.73926 -5.35013,3.70568 -9.12005,6.59204 l -6.8544,5.24793 6.2741,-6.43431 c 7.72678,-7.92408 10.52878,-13.76516 16.54836,-34.49698 6.02342,-20.74492 6.7983,-29.38122 3.91356,-43.61792 -4.3504,-21.47016 -12.04382,-34.703235 -23.49254,-40.408374 -8.0061,-3.989603 -12.77727,-4.280345 -25.24348,-1.538275 -4.76667,1.048478 -14.98954,1.9274 -22.71748,1.953162 -18.3115,0.06104 -24.244221,2.683633 -29.493105,13.037569 -5.11601,10.091828 -9.71616,43.261138 -7.278872,52.484188 10.064101,38.084 14.069837,46.97197 25.028137,55.53264 15.99406,12.49464 37.66328,14.39197 52.79465,4.62265 2.93888,-1.89744 3,-1.82512 3,3.54977 0,3.01768 -0.3,5.48668 -0.66667,5.48668 -0.36666,0 -0.66666,-1.56418 -0.66666,-3.47598 z M 128.1938,189.42098 c -2.00363,-3.74381 -1.71543,-4.36086 1.28642,-2.75432 1.46666,0.78494 2.66666,2.30604 2.66666,3.38024 0,2.78346 -2.32551,2.41524 -3.95308,-0.62592 z m 24.85248,-2.37776 c -0.8837,-1.42985 2.456,-6.79893 3.54915,-5.70578 0.36663,0.36661 -0.0988,2.09673 -1.03429,3.8447 -0.9355,1.74796 -2.06718,2.58546 -2.51486,1.86108 z m 47.15912,-27.42968 c -0.0321,-1.31254 1.2519,-4.91254 2.85351,-8 3.11992,-6.01432 3.18024,-6.28842 3.52657,-16.02557 0.1382,-3.88563 0.75341,-6.08734 1.5614,-5.58797 0.73333,0.45322 1.33333,0.18863 1.33333,-0.58798 0,-0.77661 -0.7,-1.41202 -1.55556,-1.41202 -0.85554,0 -1.17005,-0.3855 -0.69888,-0.85667 0.47116,-0.47117 1.77116,-0.0977 2.88888,0.82993 2.33174,1.93516 2.77298,9.36007 0.55624,9.36007 -0.8258,0 -1.10286,0.97233 -0.62897,2.20728 0.50781,1.32332 -0.55636,4.23235 -2.65729,7.26399 -1.92736,2.78118 -4.31799,7.3379 -5.3125,10.12605 -0.99451,2.78815 -1.83454,3.99544 -1.86673,2.68289 z m 9.23397,-18.94688 c 0,-0.73333 -0.58161,-0.43333 -1.29249,0.66667 -0.71088,1.1 -1.29249,2.6 -1.29249,3.33333 0,0.73334 0.58161,0.43334 1.29249,-0.66666 0.71088,-1.1 1.29249,-2.6 1.29249,-3.33334 z M 78.918819,157.27154 c -0.05789,-1.13397 -2.189905,-5.33397 -4.737801,-9.33333 -2.547896,-3.99935 -4.620835,-8.17155 -4.606528,-9.27155 0.01431,-1.1 0.850217,-0.2 1.85758,2 2.221744,4.85211 2.639831,3.66006 0.554105,-1.57986 -2.379362,-5.97763 -2.418456,-9.50276 -0.125973,-11.35981 1.312029,-1.06283 1.773905,-1.12983 1.200996,-0.17421 -0.512005,0.85404 -0.360689,1.75404 0.336259,2 0.696946,0.24597 1.404241,4.33843 1.571763,9.09436 0.199723,5.67007 1.18427,10.13811 2.859675,12.97771 1.405299,2.3818 2.249111,5.09059 1.87514,6.01952 -0.463529,1.15139 -0.713452,1.03272 -0.785212,-0.37283 z m 33.586771,-16.8622 c 1.29729,-0.33805 3.09729,-0.31582 4,0.0493 0.90271,0.36524 -0.15871,0.64182 -2.35871,0.61465 -2.2,-0.0272 -2.93858,-0.326 -1.64129,-0.66405 z m 53.33333,0 c 1.2973,-0.33805 3.0973,-0.31582 4,0.0493 0.90271,0.36524 -0.1587,0.64182 -2.3587,0.61465 -2.2,-0.0272 -2.93859,-0.326 -1.6413,-0.66405 z m -52.8394,-4.00114 c -1.50157,-1.50159 -0.91452,-3.07487 1.14736,-3.07487 1.1,0 2,0.56459 2,1.25464 0,1.68131 -2.08211,2.88547 -3.14736,1.82023 z m 52.4807,-1.11671 c 0,-1.07699 0.9,-1.95816 2,-1.95816 1.1,0 2,0.53581 2,1.19068 0,0.65488 -0.9,1.53604 -2,1.95816 -1.21828,0.46749 -2,0.003 -2,-1.19068 z m -12,-1.82868 c 0,-4.07878 18.7311,-7.49575 23.72461,-4.32789 0.95995,0.60898 -1.52525,0.82458 -5.60508,0.48625 -8.48677,-0.70379 -13.08061,0.19705 -16.02629,3.14273 -1.15128,1.15128 -2.09324,1.46579 -2.09324,0.69891 z m -51.41183,-3.36394 c 1.74053,-1.41148 5.0156,-2.03913 10,-1.91644 l 7.41183,0.18243 -8.09738,0.92639 c -4.45356,0.50951 -8.95356,1.37191 -10,1.91644 -1.04644,0.54453 -0.73794,0.0456 0.68555,-1.10882 z m 25.71571,-6.27539 c -4.64055,-2.59699 -17.74037,-4.10442 -23.01403,-2.64829 -6.054719,1.67179 -4.54424,-0.16897 1.90911,-2.32655 9.11243,-3.04661 25.4677,-0.62323 25.4677,3.77357 0,2.03509 -1.92546,2.56525 -4.36278,1.20127 z m 21.90602,-0.59545 c 0.26422,-1.37191 1.97507,-3.25061 3.80191,-4.17489 4.42684,-2.23972 17.003,-2.06761 21.98819,0.30093 l 4,1.90046 -6,-0.68448 c -5.37063,-0.61269 -14.93924,1.18838 -21.8019,4.1037 -1.9587,0.83207 -2.36934,0.53347 -1.9882,-1.44572 z"
     style="fill:#cc6b4d;stroke-width:1.33333325" />
  <path
     inkscape:connector-curvature="0"
     id="path5881"
     d="m 36.59978,264.33333 c 0.347925,-1.28334 1.016407,-4.04955 1.485515,-6.14714 1.714189,-7.66489 6.325753,-15.41198 10.716178,-18.0024 2.430747,-1.43417 7.927861,-3.30432 12.215812,-4.15586 10.544122,-2.09398 43.258765,-13.19127 46.003365,-15.60503 2.42902,-2.13623 2.62095,-1.64304 4.50544,11.57709 0.47041,3.3 2.60252,11.67615 4.73804,18.61366 2.13551,6.93752 3.88275,13.38752 3.88275,14.33333 0,1.36769 -8.61489,1.71968 -42.089841,1.71968 -39.437668,0 -42.049988,-0.14703 -41.457259,-2.33333 z m 95.5471,-0.1657 c 0,-1.37446 0.86478,-4.95008 1.92174,-7.94581 1.87478,-5.31372 1.8379,-5.50784 -1.50995,-7.94657 l -3.43168,-2.4998 4.88773,-4.88774 c 2.68824,-2.68824 5.65002,-4.88772 6.58172,-4.88772 0.9317,0 3.7617,2.14426 6.28888,4.765 l 4.5949,4.765 -3.17016,2.58652 c -2.91828,2.38099 -3.09842,3.22072 -2.26714,10.56834 l 0.90304,7.98181 h -7.39953 c -6.3452,0 -7.39955,-0.35608 -7.39955,-2.49903 z m 29.34854,0.1657 c 0.008,-1.28334 1.76418,-8.13387 3.90181,-15.2234 2.13764,-7.08954 4.28124,-15.78954 4.76355,-19.33334 1.54854,-11.37801 1.6018,-11.45717 5.73581,-8.52641 4.07403,2.88824 39.80882,14.74301 44.50078,14.76284 1.69556,0.007 6.12574,1.42993 9.84483,3.16172 5.88371,2.73973 7.16101,4.07627 9.83423,10.29032 1.68973,3.92791 3.37584,9.40513 3.7469,12.17163 l 0.67467,5.02997 h -41.50889 c -38.64919,0 -41.50784,-0.16075 -41.49369,-2.33333 z M 97.776897,193.9244 c -1.79539,-1.25755 -2.974882,-3.49096 -2.992624,-5.66667 -0.01611,-1.97509 -1.216105,-6.20659 -2.666666,-9.40333 -2.74551,-6.05056 -3.3478,-9.54195 -1.637384,-9.49167 0.55,0.0161 2.364328,4.29367 4.03184,9.50555 1.667512,5.21189 4.258369,11.19866 5.757457,13.30394 3.01693,4.2369 2.03763,4.92528 -2.492623,1.75218 z m 84.336643,-3.59107 c 1.71173,-3.11667 4.17906,-9.11667 5.48296,-13.33333 1.30389,-4.21667 2.86113,-7.66667 3.46054,-7.66667 1.41038,0 1.5735,-0.73436 -2.22118,10 -1.81467,5.13333 -3.31206,10.36223 -3.32752,11.61976 -0.0237,1.93301 -3.63107,5.04691 -5.8466,5.04691 -0.36326,0 0.74005,-2.55 2.4518,-5.66667 z m -53.29259,-0.99183 c -2.04607,-2.26088 -2.10127,-2.67484 -0.3567,-2.67484 1.1352,0 2.44231,0.98588 2.9047,2.19084 1.25989,3.28323 0.17223,3.48983 -2.548,0.484 z m 24.65927,-4.67484 c 0,-1.1 0.58117,-2 1.29149,-2 0.71031,0 0.94612,0.9 0.52401,2 -0.42212,1.1 -1.00328,2 -1.29149,2 -0.2882,0 -0.52401,-0.9 -0.52401,-2 z M 78.918819,145.88889 c 0.06397,-1.55327 0.379921,-1.8692 0.805556,-0.80556 0.385161,0.96249 0.337792,2.11249 -0.105267,2.55556 -0.443056,0.44305 -0.758188,-0.34445 -0.700293,-1.75 z m 3.154803,-9.14385 c -0.509262,-2.7146 -2.284507,-6.55021 -3.944991,-8.52358 -3.719362,-4.42021 -6.682226,-21.04916 -5.606872,-31.468334 1.387927,-13.447713 9.934064,-27.714737 19.24938,-32.135145 2.741273,-1.300819 6.195532,-3.922017 7.67613,-5.824886 12.202951,-15.683259 28.055651,-20.555937 50.032951,-15.378736 33.78265,7.958194 49.73776,21.022133 54.8633,44.921709 2.07173,9.660158 0.44859,32.594932 -2.90982,41.115282 -1.44108,3.65605 -2.63839,7.97515 -2.6607,9.59801 -0.0824,5.99529 -2.26432,-0.94218 -3.15116,-10.0191 -2.30456,-23.58768 -12.24998,-42.673786 -25.47609,-48.890789 -7.14373,-3.357953 -13.93661,-3.526197 -27.3322,-0.676958 -6.68228,1.421321 -13.15941,1.872996 -19.52286,1.361404 -17.95147,-1.44322 -28.07285,4.384328 -33.175645,19.101406 -1.158436,3.341067 -2.733159,13.574677 -3.499385,22.741337 -1.46678,17.54767 -2.99978,22.29931 -4.542038,14.07838 z m 5.755209,-54.505405 c 1.644128,-2.786588 2.379714,-4.689765 1.634637,-4.229282 -2.899513,1.791998 -6.634981,11.489625 -7.276684,18.890962 l -0.673262,7.765345 1.662993,-8.680248 c 0.914647,-4.774138 3.008189,-10.960187 4.652316,-13.746777 z m 77.651389,53.051855 c 0,-2.15653 2.08349,-2.6471 3.24698,-0.76453 0.40574,0.65648 -0.15885,1.53765 -1.25464,1.95814 -1.21021,0.4644 -1.99234,-0.004 -1.99234,-1.19361 z m -52.66667,-0.62483 c 0.45323,-0.73333 1.38864,-1.33333 2.07869,-1.33333 0.69005,0 1.25464,0.6 1.25464,1.33333 0,0.73334 -0.93541,1.33334 -2.07869,1.33334 -1.14327,0 -1.70786,-0.6 -1.25464,-1.33334 z m -4.315,-6.2901 c 2.02675,-0.30648 5.02675,-0.29829 6.66667,0.0182 1.63991,0.31648 -0.0183,0.56723 -3.685,0.55722 -3.66667,-0.01 -5.00842,-0.26895 -2.98167,-0.57542 z m 57.315,0.002 c 2.01667,-0.3055 5.31667,-0.3055 7.33333,0 2.01667,0.3055 0.36667,0.55545 -3.66666,0.55545 -4.03334,0 -5.68334,-0.24995 -3.66667,-0.55545 z m -45,-6.60234 c -3.66667,-1.04119 -9.36667,-1.62194 -12.66667,-1.29055 l -6,0.60253 6,-1.95859 c 6.65291,-2.17171 16.82259,-1.63692 21.23153,1.11651 6.30113,3.93512 2.37478,4.63655 -8.56486,1.5301 z m 28.66667,0.82241 c 0,-0.77075 2.24565,-2.33966 4.99033,-3.48647 5.30575,-2.21687 16.76255,-1.84133 21.27709,0.69746 1.80078,1.01268 1.0333,1.16728 -3.07689,0.6198 -3.24923,-0.4328 -8.48365,0.14488 -12.87187,1.42057 -8.67521,2.52196 -10.31866,2.64119 -10.31866,0.74864 z"
     style="fill:#b84232;stroke-width:1.33333325" />
  <path
     inkscape:connector-curvature="0"
     id="path5879"
     d="m 37.006676,262.33333 c 0.436215,-2.38334 2.296487,-7.76848 4.133937,-11.96699 4.032738,-9.21467 7.813537,-11.75837 22.251073,-14.97043 13.260809,-2.95024 40.731404,-12.38057 43.670404,-14.99152 2.43436,-2.16264 2.1744,-2.88969 4.5035,12.5956 0.41362,2.75 2.51362,10.76651 4.66666,17.81446 2.15305,7.04796 3.91463,13.49796 3.91463,14.33333 0,1.10411 -11.46005,1.51888 -41.966657,1.51888 H 36.213557 Z m 95.140204,1.8343 c 0,-1.37446 0.86478,-4.95008 1.92174,-7.94581 1.87478,-5.31372 1.8379,-5.50784 -1.50995,-7.94657 l -3.43168,-2.4998 4.88773,-4.88774 c 2.68824,-2.68824 5.65002,-4.88772 6.58172,-4.88772 0.9317,0 3.7617,2.14426 6.28888,4.765 l 4.5949,4.765 -3.17016,2.58652 c -2.91828,2.38099 -3.09842,3.22072 -2.26714,10.56834 l 0.90304,7.98181 h -7.39953 c -6.3452,0 -7.39955,-0.35608 -7.39955,-2.49903 z m 29.33334,0.4357 c 0,-1.13483 2.1,-9.2896 4.66666,-18.12171 2.56667,-8.83212 4.67586,-17.95363 4.68708,-20.27001 0.0285,-5.8843 1.69666,-8.29572 3.90115,-5.63947 1.90407,2.29427 40.81848,15.42785 45.71224,15.42785 1.74677,0 6.22909,1.52146 9.96072,3.381 5.63761,2.80934 7.25198,4.46708 9.54812,9.80456 1.51984,3.53298 3.16118,8.91152 3.64742,11.95235 l 0.8841,5.52876 h -41.50375 c -36.56948,0 -41.50374,-0.24531 -41.50374,-2.06333 z m -63.999997,-71.27 c -1.466667,-1.46667 -2.666667,-3.84445 -2.666667,-5.28397 0,-1.43952 -1.223079,-5.72028 -2.717953,-9.51282 -1.494874,-3.79252 -2.493895,-7.56473 -2.220046,-8.38269 0.27385,-0.81795 1.579895,1.81281 2.902324,5.84615 1.32243,4.03333 3.831558,10.18333 5.57584,13.66666 3.451399,6.89247 3.239939,7.78011 -0.873498,3.66667 z m 82.678847,2.38024 c 0.007,-0.20913 1.54575,-3.38024 3.42009,-7.04691 1.87435,-3.66666 3.07706,-5.16666 2.67268,-3.33333 -0.40436,1.83333 -0.74341,4.36223 -0.75342,5.61976 -0.01,1.25753 -1.2182,2.92864 -2.68487,3.71357 -1.46667,0.78494 -2.66119,1.25604 -2.65448,1.04691 z m -51.33812,-6.37207 c -2.04607,-2.26088 -2.10127,-2.67484 -0.3567,-2.67484 1.1352,0 2.44231,0.98588 2.9047,2.19084 1.25989,3.28323 0.17223,3.48983 -2.548,0.484 z m 24.65927,-4.67484 c 0,-1.1 0.58117,-2 1.29149,-2 0.71031,0 0.94612,0.9 0.52401,2 -0.42212,1.1 -1.00328,2 -1.29149,2 -0.2882,0 -0.52401,-0.9 -0.52401,-2 z m 34.19462,-6 c 1.42439,-5.73342 3.18336,-9.73313 3.9453,-8.9712 0.40258,0.40259 -0.50675,3.3358 -2.02072,6.51826 -1.51399,3.18245 -2.38004,4.28628 -1.92458,2.45294 z M 82.249239,136.50084 C 81.733619,134.39204 79.905732,130.56666 78.18727,128 74.289871,122.17891 71.524013,106.17583 72.694334,96.218224 74.336737,82.243947 81.921686,69.878266 92.043583,64.673302 c 3.356818,-1.72617 7.212457,-4.833823 8.568087,-6.905897 3.38736,-5.177586 12.57604,-11.978731 19.47005,-14.411081 7.19525,-2.538634 15.96046,-2.569296 27.7136,-0.09695 44.15699,9.288707 61.82467,31.595259 56.55741,71.407286 -1.56554,11.83305 -6.08265,25.31487 -7.36346,21.97712 -0.46332,-1.20737 -0.8528,-3.79615 -0.86553,-5.75284 -0.0445,-6.83105 -3.95794,-22.0543 -7.75606,-30.17068 -9.75458,-20.845081 -22.56212,-26.825437 -45.87202,-21.419509 -5.06887,1.175551 -13.82284,1.861503 -21.7494,1.704262 -9.01583,-0.178848 -14.33399,0.310961 -16.59938,1.528825 -10.899197,5.859369 -15.462077,15.909488 -17.575506,38.711522 -1.573959,16.98162 -2.822531,21.38861 -4.322135,15.25548 z m 0.271585,-22.18033 c 0.378242,-16.50841 2.56607,-27.779113 6.582196,-33.908499 2.471303,-3.771682 8.303324,-7.058744 12.64432,-7.12663 2.97378,-0.04651 2.9485,-0.144175 -0.83883,-3.240163 -2.147774,-1.755716 -4.970827,-3.47092 -6.273451,-3.811564 -5.704483,-1.491754 -17.567772,16.077764 -19.198536,28.43301 -1.024856,7.764676 1.327884,4.477046 3.394087,-4.742762 2.678016,-11.949843 10.407286,-20.189806 17.739859,-18.911978 2.542054,0.442997 2.404282,0.644341 -1.090246,1.59332 -2.2,0.597434 -4.994518,1.948441 -6.21004,3.002237 -3.79306,3.28839 -7.931547,14.897366 -8.737392,24.509489 -0.424967,5.069 -1.341948,9.21636 -2.037735,9.21636 -0.737133,0 -0.936732,2.92122 -0.47829,7 0.53809,4.78741 0.396537,6.15711 -0.447835,4.33333 -1.094343,-2.36369 -1.245261,-2.39543 -1.328328,-0.27934 -0.06704,1.70778 4.871716,10.41425 5.823697,10.26653 0.04543,-0.007 0.25086,-7.35705 0.456524,-16.33334 z M 200.78458,85.568807 C 195.12742,65.757568 180.8691,54.416772 152.60371,47.246671 c -21.95439,-5.569188 -36.23381,-3.601252 -45.86267,6.320624 -5.59038,5.760514 -6.33479,9.055346 -3.26082,14.432703 1.90439,3.33139 1.90553,3.330379 1.95275,-1.73288 0.0532,-5.708373 2.42762,-11.054747 6.57741,-14.81025 l 2.80317,-2.536836 0.1146,8.539983 c 0.093,6.925747 0.33042,7.819826 1.25634,4.73005 1.90535,-6.35811 8.61063,-12.290262 7.02098,-6.211461 -2.19923,8.409881 5.15498,14.385517 15.49569,12.590973 3.36181,-0.583413 11.51239,-1.061372 18.11239,-1.062132 10.33422,-0.0012 12.94209,0.483732 18.78669,3.493291 3.73268,1.922069 8.78713,5.773047 11.23212,8.557731 4.04454,4.606491 14.28408,24.280713 14.90476,28.638003 0.14129,0.99194 0.47106,-1.99051 0.73282,-6.62766 0.29176,-5.168548 -0.36044,-11.360123 -1.68537,-16.000003 z m -6.4573,-1.986126 c -4.45797,-9.111764 -12.22549,-16.051645 -21.36801,-19.091221 -3.74681,-1.245688 -6.06507,-2.514975 -5.15167,-2.820638 3.12224,-1.044838 14.62432,3.74671 19.96252,8.316015 3.05586,2.615696 6.58448,7.475732 8.2664,11.385473 4.11176,9.558053 2.74831,11.321265 -1.70924,2.210371 z m -17.245,-13.758392 c -0.4633,-0.463308 -4.6133,-1.920563 -9.22222,-3.238344 -4.74104,-1.35556 -6.9324,-2.433985 -5.04651,-2.483521 4.93777,-0.129694 12.81236,2.32994 14.68561,4.587065 1.5971,1.924392 1.26816,2.819833 -0.41688,1.1348 z m -44.40252,-5.046588 c -2.27358,-0.997975 -4.52054,-2.822379 -4.99325,-4.054233 -0.68519,-1.78558 -0.11734,-1.654375 2.80045,0.647058 3.3536,2.645179 4.72007,2.823395 16.32659,2.129319 13.33608,-0.797504 11.91981,0.799796 -2,2.255647 -5.47951,0.573093 -9.3024,0.265029 -12.13379,-0.977791 z m 5.13379,-6.152585 c -3.82843,-1.53884 -3.93669,-3.102111 -0.1312,-1.894291 1.57785,0.500791 7.12785,1.359755 12.33333,1.908811 l 9.46452,0.998281 -9.33333,0.09652 c -5.13333,0.05309 -10.68333,-0.446108 -12.33333,-1.109326 z m 27.66667,76.666374 c 0,-2.15653 2.08349,-2.6471 3.24698,-0.76453 0.40574,0.65648 -0.15885,1.53765 -1.25464,1.95814 -1.21021,0.4644 -1.99234,-0.004 -1.99234,-1.19361 z m -52.66667,-0.62483 c 0.45323,-0.73333 1.38864,-1.33333 2.07869,-1.33333 0.69005,0 1.25464,0.6 1.25464,1.33333 0,0.73334 -0.93541,1.33334 -2.07869,1.33334 -1.14327,0 -1.70786,-0.6 -1.25464,-1.33334 z m -4.315,-6.2901 c 2.02675,-0.30648 5.02675,-0.29829 6.66667,0.0182 1.63991,0.31648 -0.0183,0.56723 -3.685,0.55722 -3.66667,-0.01 -5.00842,-0.26895 -2.98167,-0.57542 z m 57.315,0.002 c 2.01667,-0.3055 5.31667,-0.3055 7.33333,0 2.01667,0.3055 0.36667,0.55545 -3.66666,0.55545 -4.03334,0 -5.68334,-0.24995 -3.66667,-0.55545 z m -36.88787,-6.56689 c -0.70222,-1.82996 -0.50712,-1.91245 1.19068,-0.5034 2.31366,1.92017 2.55445,2.692 0.83984,2.692 -0.65487,0 -1.56861,-0.98487 -2.03052,-2.1886 z m 20.55454,1.68492 c 0,-0.27687 0.91373,-1.26174 2.03052,-2.18859 1.6978,-1.40905 1.8929,-1.32656 1.19068,0.5034 -0.71719,1.86899 -3.2212,3.17897 -3.2212,1.68519 z m -26.9754,-3.72119 c 0.7748,-0.77481 2.19576,-1.14639 3.15768,-0.82575 0.99859,0.33286 0.3942,0.93725 -1.40874,1.40873 -2.21779,0.57996 -2.73837,0.40644 -1.74894,-0.58298 z M 156.81355,120 c -2.17388,-0.93415 -2.25001,-1.16323 -0.41203,-1.23962 1.24006,-0.0515 2.62547,0.50628 3.0787,1.23962 0.94754,1.53317 0.90121,1.53317 -2.66667,0 z m -46,-1.26796 c 3.3312,-1.13217 11.60548,-1.83992 10.55556,-0.90288 -0.30556,0.2727 -3.55556,0.84231 -7.22223,1.2658 -4.49589,0.51926 -5.58127,0.40109 -3.33333,-0.36292 z m 52.66667,-0.0654 -4,-1.01782 4,-0.0249 c 2.2,-0.0137 5.5,0.45554 7.33333,1.04268 l 3.33333,1.06752 -3.33333,-0.0249 c -1.83333,-0.0136 -5.13333,-0.48277 -7.33333,-1.04258 z"
     style="fill:#b2392a;stroke-width:1.33333325" />
  <path
     inkscape:connector-curvature="0"
     id="path5877"
     d="m 37.006676,262.33333 c 0.436215,-2.38334 2.296487,-7.76848 4.133937,-11.96699 4.032738,-9.21467 7.813537,-11.75837 22.251073,-14.97043 13.260809,-2.95024 40.731404,-12.38057 43.670404,-14.99152 2.43436,-2.16264 2.1744,-2.88969 4.5035,12.5956 0.41362,2.75 2.51362,10.76651 4.66666,17.81446 2.15305,7.04796 3.91463,13.49796 3.91463,14.33333 0,1.10411 -11.46005,1.51888 -41.966657,1.51888 H 36.213557 Z m 95.140204,1.8343 c 0,-1.37446 0.86478,-4.95008 1.92174,-7.94581 1.87478,-5.31372 1.8379,-5.50784 -1.50995,-7.94657 l -3.43168,-2.4998 4.88773,-4.88774 c 2.68824,-2.68824 5.65002,-4.88772 6.58172,-4.88772 0.9317,0 3.7617,2.14426 6.28888,4.765 l 4.5949,4.765 -3.17016,2.58652 c -2.91828,2.38099 -3.09842,3.22072 -2.26714,10.56834 l 0.90304,7.98181 h -7.39953 c -6.3452,0 -7.39955,-0.35608 -7.39955,-2.49903 z m 29.33334,0.4357 c 0,-1.13483 2.1,-9.2896 4.66666,-18.12171 2.56667,-8.83212 4.67586,-17.95363 4.68708,-20.27001 0.0285,-5.8843 1.69666,-8.29572 3.90115,-5.63947 1.90407,2.29427 40.81848,15.42785 45.71224,15.42785 1.74677,0 6.22909,1.52146 9.96072,3.381 5.63761,2.80934 7.25198,4.46708 9.54812,9.80456 1.51984,3.53298 3.16118,8.91152 3.64742,11.95235 l 0.8841,5.52876 h -41.50375 c -36.56948,0 -41.50374,-0.24531 -41.50374,-2.06333 z M 96.109492,191.93012 c -0.805504,-1.5051 -1.276615,-3.69079 -1.046911,-4.8571 0.264079,-1.34084 1.267656,-0.33464 2.729403,2.73655 2.400516,5.04357 0.896417,6.93928 -1.682492,2.12055 z m 85.370728,1.8213 c 0,-0.68296 0.88092,-2.40642 1.9576,-3.82992 1.64458,-2.17434 1.96437,-2.24118 2,-0.41809 0.0233,1.19353 -0.8576,2.917 -1.9576,3.82992 -1.1,0.91292 -2,1.10107 -2,0.41809 z m -52.65927,-4.40992 c -2.04607,-2.26088 -2.10127,-2.67484 -0.3567,-2.67484 1.1352,0 2.44231,0.98588 2.9047,2.19084 1.25989,3.28323 0.17223,3.48983 -2.548,0.484 z m 24.65927,-4.67484 c 0,-1.1 0.58117,-2 1.29149,-2 0.71031,0 0.94612,0.9 0.52401,2 -0.42212,1.1 -1.00328,2 -1.29149,2 -0.2882,0 -0.52401,-0.9 -0.52401,-2 z M 188.26102,178 c 0.13884,-2.52563 2.36101,-6.77847 2.4384,-4.66667 0.0403,1.1 -0.50832,2.9 -1.2192,4 -0.71088,1.1 -1.25952,1.4 -1.2192,0.66667 z m -97.949412,-4.05155 c -0.457263,-1.1916 -0.793353,-2.86748 -0.746871,-3.72417 0.04648,-0.85668 0.659374,-0.12054 1.361978,1.63596 0.702604,1.75646 1.038696,3.43234 0.746869,3.72417 -0.291825,0.29183 -0.904715,-0.44436 -1.361976,-1.63596 z m -7.571697,-37.39289 c -0.467323,-16.21645 0.591291,-36.24959 2.318039,-43.866485 2.694248,-11.884644 8.100379,-18.003281 15.95561,-18.058488 l 5.13332,-0.03608 -4.98041,-4.63059 c -2.739231,-2.54682 -5.868354,-4.630585 -6.953606,-4.630585 -3.739927,0 -11.401702,8.290437 -15.39554,16.65877 -3.601477,7.546217 -4.019174,9.776682 -4.157099,22.198518 -0.1218,10.96989 -0.380164,12.71274 -1.256494,8.47604 -3.03764,-14.685733 0.907263,-30.186639 10.35726,-40.697311 3.21142,-3.571872 7.162009,-6.901289 8.779088,-7.398707 1.61708,-0.497417 5.84593,-4.138046 9.397441,-8.090289 3.55152,-3.952241 7.75152,-7.850652 9.33334,-8.663136 1.58181,-0.812484 0.31881,0.749195 -2.80668,3.470398 -7.77943,6.773146 -8.793273,8.992599 -6.55445,14.348601 1.00324,2.40008 2.7872,5.162504 3.96436,6.13872 1.91151,1.585217 2.06067,1.284364 1.39549,-2.814656 -0.52265,-3.220715 0.1672,-6.533832 2.31295,-11.108271 l 3.05773,-6.518677 0.78193,7.333333 c 0.43006,4.033333 1.50081,8.533333 2.37943,10 1.41555,2.362933 1.60213,2.038057 1.63805,-2.852288 0.0267,-3.633827 0.98315,-6.594129 2.80013,-8.666666 l 2.75958,-3.147712 -0.74462,3.505868 c -0.97142,4.573625 3.30331,10.087434 8.97601,11.577805 2.68148,0.704498 7.69326,0.45387 13.58278,-0.679243 5.13333,-0.987628 11.73333,-1.441351 14.66667,-1.008273 20.01221,2.954605 30.88176,12.394665 38.88676,33.772654 1.81877,4.85715 3.86329,9.40119 4.54337,10.09785 2.03612,2.08575 1.40397,9.84202 -1.28824,15.80649 -1.38863,3.07643 -2.77811,6.79351 -3.08775,8.26018 C 198.22474,136.8 197.18799,133.5 196.23048,128 191.69106,101.92513 183.48452,86.558741 170.53334,79.883159 c -6.17043,-3.180493 -17.5001,-3.34174 -29.97039,-0.426544 -6.30219,1.473271 -11.81353,1.859142 -18.00295,1.260459 -11.28952,-1.092 -18.47297,0.806024 -24.847844,6.56534 -6.552444,5.91974 -9.316255,14.082106 -11.504057,33.974966 -1.611885,14.65626 -3.275248,21.99335 -3.468188,15.29818 z m 82.740309,-1.26407 c 0,-2.15653 2.08349,-2.6471 3.24698,-0.76453 0.40574,0.65648 -0.15885,1.53765 -1.25464,1.95814 -1.21021,0.4644 -1.99234,-0.004 -1.99234,-1.19361 z m -52.66667,-0.62483 c 0.45323,-0.73333 1.38864,-1.33333 2.07869,-1.33333 0.69005,0 1.25464,0.6 1.25464,1.33333 0,0.73334 -0.93541,1.33334 -2.07869,1.33334 -1.14327,0 -1.70786,-0.6 -1.25464,-1.33334 z m -4.315,-6.2901 c 2.02675,-0.30648 5.02675,-0.29829 6.66667,0.0182 1.63991,0.31648 -0.0183,0.56723 -3.685,0.55722 -3.66667,-0.01 -5.00842,-0.26895 -2.98167,-0.57542 z m 57.315,0.002 c 2.01667,-0.3055 5.31667,-0.3055 7.33333,0 2.01667,0.3055 0.36667,0.55545 -3.66666,0.55545 -4.03334,0 -5.68334,-0.24995 -3.66667,-0.55545 z M 203.79627,99.666934 C 202.77281,84.170812 198.7721,74.534997 189.472,65.166682 180.95734,56.589551 175.85439,53.696935 160.06467,48.497107 c -9.32983,-3.072474 -13.64183,-3.715861 -25.25112,-3.767681 -7.7,-0.03437 -15.5,0.454947 -17.33333,1.08737 -2.14689,0.740585 -2.85876,0.691905 -2,-0.136767 2.90796,-2.806097 14.13043,-4.701316 22.6625,-3.82718 11.56954,1.185335 30.18588,6.71057 39.70515,11.784292 10.10247,5.384554 19.95968,16.218581 23.68698,26.034248 2.63131,6.92944 5.46654,30.995541 3.65158,30.995541 -0.36502,0 -0.99059,-4.95 -1.39016,-10.999996 z"
     style="fill:#931606;stroke-width:1.33333325" />
  <path
     inkscape:connector-curvature="0"
     id="path5875"
     d="m 37.006676,262.33333 c 0.436215,-2.38334 2.296487,-7.76848 4.133937,-11.96699 4.032738,-9.21467 7.813537,-11.75837 22.251073,-14.97043 13.260809,-2.95024 40.731404,-12.38057 43.670404,-14.99152 2.43436,-2.16264 2.1744,-2.88969 4.5035,12.5956 0.41362,2.75 2.51362,10.76651 4.66666,17.81446 2.15305,7.04796 3.91463,13.49796 3.91463,14.33333 0,1.10411 -11.46005,1.51888 -41.966657,1.51888 H 36.213557 Z m 95.140204,1.8343 c 0,-1.37446 0.86478,-4.95008 1.92174,-7.94581 1.87478,-5.31372 1.8379,-5.50784 -1.50995,-7.94657 l -3.43168,-2.4998 4.88773,-4.88774 c 2.68824,-2.68824 5.65002,-4.88772 6.58172,-4.88772 0.9317,0 3.7617,2.14426 6.28888,4.765 l 4.5949,4.765 -3.17016,2.58652 c -2.91828,2.38099 -3.09842,3.22072 -2.26714,10.56834 l 0.90304,7.98181 h -7.39953 c -6.3452,0 -7.39955,-0.35608 -7.39955,-2.49903 z m 29.33334,0.4357 c 0,-1.13483 2.1,-9.2896 4.66666,-18.12171 2.56667,-8.83212 4.67586,-17.95363 4.68708,-20.27001 0.0285,-5.8843 1.69666,-8.29572 3.90115,-5.63947 1.90407,2.29427 40.81848,15.42785 45.71224,15.42785 1.74677,0 6.22909,1.52146 9.96072,3.381 5.63761,2.80934 7.25198,4.46708 9.54812,9.80456 1.51984,3.53298 3.16118,8.91152 3.64742,11.95235 l 0.8841,5.52876 h -41.50375 c -36.56948,0 -41.50374,-0.24531 -41.50374,-2.06333 z M 128.82095,189.3415 c -2.04607,-2.26088 -2.10127,-2.67484 -0.3567,-2.67484 1.1352,0 2.44231,0.98588 2.9047,2.19084 1.25989,3.28323 0.17223,3.48983 -2.548,0.484 z m 24.65927,-4.67484 c 0,-1.1 0.58117,-2 1.29149,-2 0.71031,0 0.94612,0.9 0.52401,2 -0.42212,1.1 -1.00328,2 -1.29149,2 -0.2882,0 -0.52401,-0.9 -0.52401,-2 z m 12,-49.37517 c 0,-2.15653 2.08349,-2.6471 3.24698,-0.76453 0.40574,0.65648 -0.15885,1.53765 -1.25464,1.95814 -1.21021,0.4644 -1.99234,-0.004 -1.99234,-1.19361 z m -52.66667,-0.62483 c 0.45323,-0.73333 1.38864,-1.33333 2.07869,-1.33333 0.69005,0 1.25464,0.6 1.25464,1.33333 0,0.73334 -0.93541,1.33334 -2.07869,1.33334 -1.14327,0 -1.70786,-0.6 -1.25464,-1.33334 z m -4.315,-6.2901 c 2.02675,-0.30648 5.02675,-0.29829 6.66667,0.0182 1.63991,0.31648 -0.0183,0.56723 -3.685,0.55722 -3.66667,-0.01 -5.00842,-0.26895 -2.98167,-0.57542 z m 57.315,0.002 c 2.01667,-0.3055 5.31667,-0.3055 7.33333,0 2.01667,0.3055 0.36667,0.55545 -3.66666,0.55545 -4.03334,0 -5.68334,-0.24995 -3.66667,-0.55545 z"
     style="fill:#612f1d;stroke-width:1.33333325" />
  <path
     inkscape:connector-curvature="0"
     id="path5873"
     d="m 90.127271,264.99999 c -3.241303,-8.96488 -4.5888,-13.50269 -4.142223,-13.94926 0.293315,-0.29332 1.760378,3.10028 3.26014,7.54132 1.499763,4.44104 2.447353,8.07461 2.105757,8.07461 -0.341594,0 -0.892249,-0.75 -1.223674,-1.66667 z m 28.305319,0.75538 c -1.72159,-2.89247 -8.93936,-31.02708 -8.84637,-34.4828 0.0652,-2.42339 0.82733,-0.60422 1.98051,4.72742 1.03099,4.76667 2.48576,10.16667 3.23282,12 1.8048,4.42903 5.24137,17.88374 4.70487,18.42024 -0.23311,0.23312 -0.71544,-0.0661 -1.07183,-0.66486 z m 13.71429,-0.21014 c 0,-0.61678 0.89964,-4.06678 1.99919,-7.66666 1.89985,-6.22002 1.86672,-6.65524 -0.66667,-8.75896 -3.4522,-2.86672 -3.37208,-3.5699 0.91694,-8.04666 4.49174,-4.68837 7.90509,-4.72917 12.68304,-0.15161 l 3.74508,3.58801 -3.39162,3.5401 c -3.12501,3.2618 -3.28521,4.00165 -2.03805,9.41198 2.13305,9.25334 2.16396,9.20523 -5.91457,9.20523 -4.03334,0 -7.33334,-0.50464 -7.33334,-1.12143 z m 29.42358,0.31194 c -0.0496,-0.81188 1.78861,-8.01188 4.08498,-16 2.29638,-7.98811 4.66983,-17.52384 5.27436,-21.19051 l 1.09915,-6.66667 -0.46237,8.12504 c -0.519,9.11995 -9.63166,41.69408 -9.99612,35.73214 z m 27.90976,0.38034 c 0,-1.51348 4.56625,-13.80285 5.51452,-14.84148 0.63804,-0.69885 -0.0968,2.45115 -1.63296,7 -2.3135,6.8506 -3.88156,10.0184 -3.88156,7.84148 z M 38.912993,255.99999 c -0.0048,-1.92149 3.756542,-9.55448 3.853318,-7.81974 0.02599,0.4658 -0.829268,2.8658 -1.900564,5.33333 -1.071296,2.46753 -1.950035,3.58641 -1.952754,2.48641 z M 185.48022,244.95603 c 0,-0.25142 1.8,-2.18164 4,-4.28937 2.2,-2.10773 4,-3.23283 4,-2.5002 0,0.73263 -1.8,2.66284 -4,4.28937 -2.2,1.62654 -4,2.75162 -4,2.5002 z m -95.460013,-3.95604 -2.539984,-3 3.333333,2.65246 c 1.833333,1.45885 3.583333,2.80885 3.888889,3 0.305555,0.19114 -0.05145,0.34754 -0.79335,0.34754 -0.741898,0 -2.491898,-1.35 -3.888888,-3 z m 136.793343,-2.33333 c -1.20172,-0.77661 -1.36618,-1.30065 -0.41203,-1.31292 0.87339,-0.0107 1.9588,0.57959 2.41203,1.31292 1.02306,1.65537 0.56149,1.65537 -2,0 z M 61.230224,236.42251 c 0.962499,-0.38516 2.112499,-0.3378 2.555555,0.1052 0.443055,0.44306 -0.344445,0.75819 -1.75,0.7003 -1.553257,-0.064 -1.869199,-0.37992 -0.805555,-0.80555 z m 40.249996,-10.25926 c 0,-0.27687 1.05,-1.32687 2.33333,-2.33334 2.11474,-1.65849 2.1619,-1.61133 0.50341,0.50342 -1.74183,2.221 -2.83674,2.9273 -2.83674,1.82992 z m 75.82992,-1.82992 c -1.6585,-2.11475 -1.61134,-2.16191 0.50341,-0.50342 1.28333,1.00647 2.33333,2.05647 2.33333,2.33334 0,1.09738 -1.09492,0.39108 -2.83674,-1.82992 z"
     style="fill:#1d0d09;stroke-width:1.33333325" />
</svg>
