<?xml version="1.0" encoding="UTF-8" standalone="no"?>
<svg xmlns:rdf="http://www.w3.org/1999/02/22-rdf-syntax-ns#" xmlns="http://www.w3.org/2000/svg" height="200" viewBox="0 0 200 200" width="200" version="1.1" xmlns:cc="http://creativecommons.org/ns#" xmlns:dc="http://purl.org/dc/elements/1.1/">
 <path d="m35.1 198c-3.4-15.4-4.88-20.8-5.8-21.4-1.59-.985-9.29 7.93-11.2 12.9-1.09 2.91-1.41 3.3-1.01 1.24.867-4.53 5.05-11.1 8.69-13.6 1.79-1.25 3.72-2.9 4.29-3.65 1.2-1.57 17.3-5.86 25.4-6.78l5.52-.624 5.89 9.85c3.24 5.42 8.31 13.1 11.3 17.1l5.3 7h-47.9zm57.9-1c.340-1.79 1.13-5.23 1.75-7.65 1.05-4.09.969-4.53-1.17-6.27-1.89-1.53-2.59-1.64-3.92-.616-1.88 1.45.697-1.95 5.28-6.95 1.63-1.78 2.74-3.46 2.47-3.73-.273-.273-3.58-2.19-7.34-4.26-8.42-4.64-10.5-7.34-11.5-14.9-.633-5.02-1.35-6.53-4.86-10.2-4.52-4.8-9.62-14.4-10.9-20.6-.711-3.44-1.26-4.05-4.13-4.64-3.97-.806-5.69-2.92-7.19-8.86-.623-2.45-2.68-6.96-4.57-10-4.18-6.77-4.8-14-1.41-16.3 1.33-.935 1.8-2.01 1.35-3.16-.367-.958-.178-2.04.422-2.41.777-.480.790-1.96.0474-5.15-.573-2.46-1.08-7.86-1.13-12-.0718-6.45.338-8.35 2.88-13.4 1.63-3.22 3.35-5.77 3.82-5.68.468.0933 1.69-1.7 2.71-3.99s3.24-5.89 4.91-8.01c4.15-5.23 11.2-10.7 11.7-9.16.288.864 1.17.634 2.96-.777 3.14-2.47 4.69-2.57 3.88-.256-.418 1.2.0183 1.01 1.39-.611 1.78-2.1 2.01-2.16 2.04-.5.0321 1.44.830.968 3.5-2.06 3.2-3.63 3.46-3.74 3.46-1.55 0 2.24.223 2.15 3.99-1.53 2.2-2.14 4.85-5.63 5.89-7.74l1.9-3.85 2 2.54c1 2.17 3 3.31 3 3.31.589 0 2.6 1.34 4.46 2.98s3.6 2.77 3.85 2.51c.254-.254 1.98 1.11 3.84 3.02 1.86 1.92 3.93 3.49 4.6 3.49.675 0 2.55 1.11 4.17 2.47s3.23 2.18 3.59 1.82c1.03-1.03 6.57 4.76 9.63 10.1 2.09 3.64 2.9 4.4 3.17 3 .461-2.37 4.35 5.58 5.36 10.9.379 2.02 1.04 3.45 1.48 3.18 1.31-.811 3.43 9.57 3.37 16.5-.0317 3.59-.768 8.16-1.64 10.2l-1.59 3.69 3.43 2.02c4.96 2.93 4.71 7.19-1.07 18.5-2.48 4.85-4.5 9.6-4.5 10.6 0 2.79-3.81 6.85-6.75 7.19-2.39.278-2.89 1.01-4.29 6.31-2.11 7.97-3.91 11.2-9.92 17.8-4.7 5.14-5.04 5.86-5.04 10.7 0 7.35-2.11 10.3-10.5 14.6-10.3 5.34-10.2 5.21-6.08 8.6 1.95 1.6 3.54 3.36 3.54 3.89 0 .536-1.17 2.06-2.61 3.39-2.55 2.36-2.58 2.56-1.5 8.78.610 3.5 1.11 6.89 1.11 7.53 0 .781-2.35 1.17-7.08 1.17h-6.9zm-19-109c0-3.58-.165-3.82-2-2.87-4.24 2.19-4.67 2.93-2.87 4.91 2.89 3.2 4.87 2.37 4.87-2.04zm15.5 3.06c0-.971-3.89-4.69-4.26-4.07-2.9 4.9-2.9 4.9.8 4.9 1.93 0 3.51-.380 3.51-.845zm27.6-.737c-.334-.870-.607-2.3-.607-3.17 0-1.26-.530-1.09-2.5.756-3.29 3.09-3.15 4 .607 4 2.42 0 2.97-.349 2.5-1.58zm14 .3c1.92-1.92 1.4-3.64-1.55-5.17l-2.75-1.42v3.9c0 4.08 1.79 5.2 4.3 2.7zm-13 108c.617-.617.877-1.76.577-2.54-.322-.839-.009-1.3.765-1.13 1.44.321 16.2-20.8 18.1-26 1.43-3.82 2.11-3.9 14-1.69 14.9 2.78 17.5 3.9 23.9 10.1 6.18 5.97 8.33 9.98 9.34 17.4.548 4.01.415 3.83-1.24-1.74-2.03-6.86-6.03-13.3-9.75-15.7-2.32-1.52-2.45-1.47-3.5 1.2-.808 2.06-4.78 19.2-4.87 21-.007.138-10.9.25-24.2.25-17.9 0-23.9-.293-23.1-1.12zm-102-4c.0480-1.16.285-1.4.604-.604.289.722.253 1.58-.0790 1.92-.332.332-.569-.258-.525-1.31z" fill="#d9a696"/>
 <path d="m35 197c-.299-1.51-1.66-7.41-3.02-13.1s-2.23-10.7-1.94-11.2c.704-1.14 5.77-2.55 17.8-4.97 13.3-2.66 13.3-2.66 15.7 2.09 2.89 5.66 8.38 14.2 14.1 22.1 2.67 3.64 4.86 6.9 4.86 7.25 0 .345-10.6.628-23.5.628h-23.4zm57.5 2.2c0-.304.731-3.77 1.62-7.69l1.62-7.14-2.61-2.08-2.61-2.08 4.1-4.22c2.3-2 4.9-4 5.4-4 .925 0 3.39 1.75 5.47 3.88l3.79 3.88-2.71 2.51c-2.67 2.48-2.69 2.6-1.59 8.95.617 3.54 1.12 6.97 1.12 7.61 0 .780-2.33 1.17-7 1.17-3.85 0-7-.249-7-.553zm26 .0993c0-.249 3.77-5.99 8.37-12.8 4.6-6.76 9.36-14.3 10.6-16.7l2.2-4.36 5.18.655c7.41.938 24.7 5.13 25.8 6.27.620.620.259 3.61-1.01 8.37-1.09 4.08-2.49 10-3.11 13.2l-1.14 5.75h-23.4c-12.9-.00005-23.4-.204-23.4-.453zm-25.8-39c-2.09-.766-5.04-2.28-6.57-3.37s-3.42-2.12-4.21-2.29c-1.71-.371-2.76-2.45-2.86-5.66-.0410-1.37-1.9-4.21-4.46-6.8-4.91-4.98-10.6-14.9-10.6-18.5.1-4-1-6-3.9-6-3.05 0-6.96-3.94-6.96-7 0-.953-2.02-5.7-4.5-10.6-5.09-9.98-5.85-15.4-2.49-17.7 2.32-1.62 2.48-3.91 1.44-19.8l-0.7-10.6 3.27-6.14c1.8-3.38 3.49-5.93 3.75-5.67s1.56-1.72 2.9-4.39c1.33-2.68 4.15-6.82 6.27-9.2 4.16-4.69 10.1-8.7 10.1-6.83 0 .619 1.31.194 2.9-.943 3.53-2.51 4.52-2.61 3.66-.374-.570 1.48-.398 1.47 1.39-.155 1.55-1.4 2.05-1.51 2.07-.444.0150.777 1.58-.265 3.5-2.33 3.1-3.34 3.47-3.5 3.47-1.55 0 1.97.419 1.79 4.12-1.76 2.27-2.17 4.92-5.7 5.9-7.83l1.78-3.87 1.72 2.62c1 1.27 2 2.45 3 2.45.817 0 3.01 1.53 4.88 3.4s3.4 2.9 3.4 2.3c0-.607 1.71.563 3.79 2.6 2 2 4 3.7 5 3.7.442 0 2.22 1.01 3.95 2.24s3.67 2.12 4.31 1.98c1.44-.330 8.01 7.14 10.1 11.5 1.08 2.21 1.83 2.86 2.35 2.02.851-1.38 4.45 5.92 5.49 11.1.340 1.7.958 3.09 1.37 3.09 1.29 0 3.12 9.08 3.11 15.4-.005 3.33-.689 7.97-1.52 10.3-1.5 4.23-1.5 4.26 1.2 5.98 1.49.947 3.06 2.18 3.5 2.75 1.56 2.01-.332 9.79-3.74 15.4-1.9 3.11-3.99 7.81-4.63 10.4-1.24 5.05-3.86 7.72-7.57 7.72-1.65 0-2.34.752-2.78 3-.319 1.65-.835 4.33-1.15 5.95-.705 3.66-7.1 13.6-11.3 17.5-2.59 2.42-3.14 3.7-3.14 7.29 0 2.97-.398 4.27-1.25 4.07-.688-.156-2.87.722-4.86 1.95-8.31 5.14-16.8 6.44-24.2 3.71zm20.8-16.3c6.79-3.18 17.7-12.7 19.3-16.9 1.67-4.25 6.38-22.4 5.93-22.8-.218-.218-1.94.0458-3.82.586-5.22 1.5-15.4 1.17-19.9-.631-4.84-1.94-7.72-5.73-10.5-13.8-1-3.5-3-6-3-6-.830 0-2.27 2.49-3.49 6.05-2.79 8.11-5.67 11.9-10.5 13.8-4.84 1.94-16 2.06-21.1.243l-3.59-1.28 1.42 5.08c5.91 21.1 5.91 21.1 12.3 26.8 14 12.7 24.2 15.1 37.5 8.89zm-16-9c-.374-.605 1.01-1 3.5-1s3.87.395 3.5 1c-.340.55-1.91 1-3.5 1s-3.16-.45-3.5-1zm-9.5-4.86c0-1.01 24.6-.858 25.6.163.383.383-5.23.697-12.5.697-7.24 0-13.2-.387-13.2-.860zm7.74-12.7c-3.2-3-3.3-5-.7-14 2.1-7.22 2.77-4.52.962 3.91-1.48 6.88.240 10.6 4.89 10.6 2.87-.0103 3.05.140 1.53 1.25-2.46 1.8-3.51 1.59-6.6-1.28zm-35.3-6.24c-.370-1.85-1.42-3.41-2.53-3.76-1.04-.331-1.59-1.09-1.23-1.68.383-.620.206-.796-.416-.412-.597.369-1.37.213-1.71-.345-.582-.941.802-1.47 2.86-1.09.480.0876.592-.571.25-1.46-.342-.892-.676-2.37-.741-3.29-.1-.7-.5-.2-1 1-.707 2.51-.780 2.26-.447-1.5.260-2.94.0924-3.96-.485-2.93-1.51 2.69-1.47 9.64.0736 11.5 1.11 1.37 1.13 1.59.0835.957-2.17-1.3-.367 3.59 2.1 5.72 2.64 2.28 3.96.984 3.15-3.07zm86.2 1.47c.244-.652.603-2.59.797-4.3l.354-3.12-2.83 1.62c-2.79 1.6-4.65 6.06-3.39 8.1.748 1.21 4.37-.429 5.07-2.29zm-.203-11.9c-.277-2.97-.225-3.04.571-.769.733 2.09.890 2.17.960.5.0464-1.1-.306-2.62-.783-3.37-.637-1-1.14-.472-1.89 2-1.37 4.48-1.24 7.14.289 5.87.640-.531 1.03-2.44.858-4.23zm-57.9-.1c3.52-3.24 6.34-9.55 6.37-14.2.0203-3.51-.304-3.95-4.23-5.73-5.71-2.59-18.8-2.72-23.7-.222-5.64 2.83-7.26 8.22-4.96 16.5 1.55 5.57 4.61 6.87 15.2 6.47 7.61-.287 9.07-.641 11.4-2.77zm-21.3-9.6c-3.41-5.09-4.19-7.33-1.88-5.41 1.08.895 1.74.573 3.1-1.5 1.68-2.56 1.94-2.62 8.66-1.95 8.67.854 12.9 2.26 12.2 4.05-.284.740-.0096 2.39.610 3.67.840 1.74.396 1.5-1.75-.922-3.42-3.87-4.1-4.04-3.49-.867.251 1.31-.0369 2.69-.639 3.06-2.27 1.4-1.05 2.71 1.91 2.06 1.89-.415 3-.259 3 .421 0 .625-2.05 1.08-4.86 1.08-2.67 0-6.84.259-9.25.575-4.35.569-4.42.527-7.64-4.27zm7.76 1.2c-.681-.820-1.04-2.84-.796-4.5.515-3.51-.694-3.79-4.11-.947l-2.4 2 2.32 2.47c2.58 2.75 7.2 3.66 4.98.980zm63 8.71c1.01-1.25 2.14-4.69 2.51-7.65 1.31-10.5-3.45-14.6-17-14.6-10.5.0269-16.5 2.48-16.5 6.78 0 3.74 1.78 8.94 4.3 12.6 3.07 4.4 7.03 5.7 16.5 5.4 7.3-.228 8.57-.545 10.2-2.54zm-18.3-5.97c-3.75-.195-6.75-.809-6.75-1.38 0-.635 1.19-.772 3.09-.356 2.94.646 3.03.572 1.91-1.52-.648-1.21-.955-3.06-.682-4.1.750-2.87-.869-2.28-3.73 1.35-2.62 3.32-3.41 3.16-1.55-.316 0-1.2 0-1.7-1-1.7-.890 0-.820-.429.244-1.49.824-.824 5.19-2.02 9.74-2.66l8.25-1.17 2.77 2.66c2.25 2.15 3.03 2.42 4.13 1.41 1.57-1.44-2.55 5.88-4.78 8.5-.820.962-2.43 1.66-3.59 1.55-1.15-.108-5.13-.353-8.85-.546zm11-2.7c2.26-2.04 2.29-3.17.174-5.52-2.35-2.6-4.16-2.32-3.61.559.251 1.31-.0522 3.34-.674 4.5-1 1.9-1 2.2 0 2.2.939 0 2.53-.745 3.54-1.65zm21 1.3c1.38-1.46 1.13-7.79-.293-7.32-1.73.577-2.92 5.78-2.12 9.27.549 2.39.772 2.59 1.1 1 .226-1.1.818-2.43 1.31-2.95zm-2.02-1.13c.048-1.16.285-1.4.604-.604.289.722.253 1.58-.0789 1.92-.332.332-.569-.258-.525-1.31zm-97.1.274c.0084-.445-.435-.531-.985-.191s-.993 1.38-.985 2.31c.0132 1.46.149 1.48.985.191.533-.825.976-1.86.985-2.31zm-3.2-4c-.953-1.98-1.09-1.7-1.09 2.25s.132 4.23 1.09 2.25c.780-1.62.780-2.88 0-4.5zm103-4.8c.340-.55.168-1-.382-1s-1.28.45-1.62 1-.168 1 .382 1 1.28-.45 1.62-1zm-45.6-5.44c1.86-.606 2.08-.975 1-1.69-1.13-.744-1.03-1.18.559-2.39 3.85-2.94 15.1-1.83 30.1 2.96 1.55.495-.0732-15.3-2.09-20.3-.923-2.31-3.51-5.76-5.74-7.67-4.7-4.02-8.81-4.47-18.4-1.98-7.35 1.91-17.3 1.91-24.7 0-8.25-2.15-12.7-1.92-16.5.845-6.95 5.13-9.03 9.52-10.1 21.3l-.714 8.15 4.53-1.46c8.4-2.7 11.5-3.27 18.1-3.29 6.76-.0246 11.6 1.84 8.96 3.47-3.65 2.26 8.92 4 14.9 2.07zm-16.8-2.2c-.332-.332-1.19-.368-1.92-.0790-.798.319-.561.556.604.604 1.05.0434 1.64-.193 1.31-.525z" fill="#aa9c9a"/>
 <path d="m34.5 193c-.687-3.71-2.11-9.57-3.16-13-1.05-3.45-1.68-6.64-1.4-7.09.768-1.24 17.4-5.27 27.1-6.58l4-.538 5 8.68c2.75 4.78 6.83 11.2 9.06 14.2 2.23 3.06 4.87 6.8 5.87 8.31l1.8 4h-47zm58.7 3c.325-2.06 1.1-5.54 1.73-7.73 1.06-3.71.961-4.13-1.4-6.18l-2.54-2.2 3.95-4.07c2.2-2 4.6-4 5.1-4 1.72 0 8.33 5.91 8.33 7.45 0 .683-.944 2.1-2.1 3.14-2.13 1.93-2.18 4.79-.225 14.6l1 3h-14.1zm25.3 3.31c0-.242 2.46-3.87 5.48-8.07 3.01-4.2 7.81-11.5 10.7-16.3 2.85-4.77 5.29-8.82 5.42-9 .364-.487 18.3 2.83 23.9 4.43 7.99 2.26 7.95 2.19 5.72 9.5-1.07 3.51-2.51 9.43-3.2 13.1l-1.25 6.75h-23.4c-12.9 0-23.4-.198-23.4-.439zm-25.8-39c-2.09-.766-5.04-2.28-6.57-3.37s-3.42-2.12-4.21-2.29c-1.75-.379-2.77-2.47-2.86-5.87-.0416-1.52-1.35-3.76-3.21-5.5-4.1-3-10.5-13-11.2-17-.3-2-.8-4-1.2-6-.482-2.5-1.06-3-3.43-3-3.08 0-6.99-3.92-6.99-7 0-.953-2.02-5.7-4.5-10.6-5.1-9.99-5.88-15.6-2.5-17.7 1.1-.687 2-2.29 2-3.57s.388-2.08.863-1.79c.474.293.257-2.04-.484-5.19s-1.35-8.91-1.36-12.8c-.0127-5.77.491-8.06 2.73-12.4 1.51-2.94 3.13-5.25 3.6-5.13.466.122 2.08-2.39 3.59-5.58 2.77-5.85 9.83-14 14.1-16.3 2.12-1.14 2.25-1.06 1.71 1.03-.519 1.99-.178 1.86 2.85-1.08 2.82-2.73 3.44-3 3.44-1.49 0 1.75.0995 1.76 1.9.135 1.47-1.33 2.01-1.42 2.43-.405.360.887 1.52.180 3.58-2.19 2.25-2.59 3.05-3.05 3.07-1.75.0148.962.466 1.75 1 1.75 1.25 0 8.69-9.38 9.53-12 .753-2.37 2.33-2.6 3.15-.455.324.845 2.08 2.16 3.89 2.92 1.82.759 4.06 2.54 4.99 3.95.928 1.42 2.1 2.32 2.62 2 .511-.316 2.64.926 4.73 2.76 4.05 3.55 9.66 7 12.1 7.45 1.97.355 7.48 6.88 9.91 11.7 1.48 2.95 2.02 3.41 2.35 2 .548-2.29 4.25 5.38 5.27 10.9.379 2.06 1.05 3.52 1.49 3.24 1.18-.727 2.98 8.7 2.93 15.3-.0241 3.14-.696 7.5-1.49 9.7-1.38 3.82-1.35 4.08.794 5.75 1.23.962 2.86 2.27 3.61 2.9 2.17 1.83.601 9.29-3.31 15.7-1.9 3.11-3.99 7.81-4.63 10.4-1.25 5.06-3.86 7.72-7.6 7.72-1.8 0-2.35.722-2.85 3.75-1.27 7.67-6.27 16.8-12.4 22.7-2.5 2.4-3.07 3.74-3.07 7.29 0 2.97-.398 4.27-1.25 4.07-.688-.156-2.87.722-4.86 1.95-8.31 5.14-16.8 6.44-24.2 3.71zm20.8-16.3c6.79-3.18 17.7-12.7 19.3-16.9 1.67-4.25 6.38-22.4 5.93-22.8-.218-.218-1.94.0458-3.82.586-5.22 1.5-15.4 1.17-19.9-.631-4.84-1.94-7.72-5.73-10.5-13.8-1-3.5-3-6-3-6-.830 0-2.27 2.49-3.49 6.05-2.79 8.11-5.67 11.9-10.5 13.8-4.84 1.94-16 2.06-21.1.243l-3.59-1.28 1.42 5.08c5.91 21.1 5.91 21.1 12.3 26.8 14 12.7 24.2 15.1 37.5 8.89zm-16-9c-.374-.605 1.01-1 3.5-1s3.87.395 3.5 1c-.340.55-1.91 1-3.5 1s-3.16-.45-3.5-1zm-9.5-4.86c0-1.01 24.6-.858 25.6.163.383.383-5.23.697-12.5.697-7.24 0-13.2-.387-13.2-.860zm7.74-12.7c-3.2-3-3.3-5-.7-14 2.1-7.22 2.77-4.52.962 3.91-1.48 6.88.240 10.6 4.89 10.6 2.87-.0103 3.05.140 1.53 1.25-2.46 1.8-3.51 1.59-6.6-1.28zm-35.3-6.24c-.370-1.85-1.42-3.41-2.53-3.76-1.04-.331-1.59-1.09-1.23-1.68.383-.620.206-.796-.416-.412-.597.369-1.37.213-1.71-.345-.582-.941.802-1.47 2.86-1.09.480.0876.592-.571.25-1.46-.342-.892-.676-2.37-.741-3.29-.1-.7-.5-.2-1 1-.707 2.51-.780 2.26-.447-1.5.260-2.94.0924-3.96-.485-2.93-1.51 2.69-1.47 9.64.0736 11.5 1.11 1.37 1.13 1.59.0835.957-2.17-1.3-.367 3.59 2.1 5.72 2.64 2.28 3.96.984 3.15-3.07zm86.2 1.47c.244-.652.603-2.59.797-4.3l.354-3.12-2.83 1.62c-2.79 1.6-4.65 6.06-3.39 8.1.748 1.21 4.37-.429 5.07-2.29zm-.203-11.9c-.277-2.97-.225-3.04.571-.769.733 2.09.890 2.17.960.5.0464-1.1-.306-2.62-.783-3.37-.637-1-1.14-.472-1.89 2-1.37 4.48-1.24 7.14.289 5.87.640-.531 1.03-2.44.858-4.23zm-57.6-.4c3.72-3.57 6.34-10.1 5.91-14.7-.463-4.85-5.6-7.25-15.4-7.19-8.13.0524-13.4 1.45-15.9 4.24-2.28 2.52-2.99 8.63-1.6 13.8 1.63 6.04 4.44 7.33 15.3 7 8.07-.242 8.9-.469 11.7-3.18zm-19.3-6.6c-3.21-3.83-5.61-7.95-4.36-7.46.749.287 2.43-.611 3.73-2 2.14-2.28 2.89-2.46 7.95-1.94 9 .933 11.8 2.1 12.4 5.19l.517 2.7-1.93-2.38c-1.06-1.31-3.28-2.54-4.93-2.73-2.51-.292-2.79-.122-1.73 1.02.924.996 1.48 1.06 2.01.233.404-.627.742.297.75 2.05.0084 1.76-.547 3.56-1.23 4-.795.515.205 1.02 2.75 1.38 2.93.417 1.52.684-5.33 1-7.5.4-9.6.2-10.6-1zm5.84-2.08c-1.78-1.97-1.79-2.23-.201-5 1.7-2.8 1.7-2.9-.4-2.9-2.22 0-6.77 3.6-6.77 5.35 0 2.11 3.44 4.65 6.31 4.65 2.97 0 2.98-.0183 1.12-2.08zm60.1 11.1c3.25-1.24 5.52-6.39 5.52-12.6 0-3.72-.543-5.15-2.81-7.42-5.36-5.36-19.3-6.12-28.2-1.55-3.53 1.83-3.91 4.75-1.5 11.6 1.84 5.21 3.97 7.76 7.97 9.52 3.55 1.57 15.3 1.82 19 .409zm-14-8.07c-4.95-.309-7.26-.646-5.13-.75 3.31-.161 3.69-.406 2.64-1.68-.681-.820-1.04-2.84-.796-4.5.568-3.87-.661-3.8-4.47.241-2.13 2.27-2.7 2.57-1.87 1 .892-1.69 0.9-2.25.0326-2.25-2.68 0 1.39-2.87 4.89-3.46 8.75-1.46 13.2-.934 16.2 1.93l2.85 2.73-2.01 3.4c-1.1 1.87-2.3 3.52-2.66 3.65-.357.136-4.7-.0057-9.65-.314zm10.5-3.44 2.35-2.5-2.35-2.5c-2.34-2.49-6.36-3.34-7.46-1.57-.317.512.399 1.61 1.59 2.45 2.07 1.45 2.09 1.63.494 4.07-2 2.5-2 2.6 0 2.6 1.29 0 3.41-1.12 4.7-2.5zm20.1 2.05c1.38-1.46 1.13-7.79-.293-7.32-1.73.577-2.92 5.78-2.12 9.27.549 2.39.772 2.59 1.1 1 .226-1.1.818-2.43 1.31-2.95zm-2.02-1.13c.048-1.16.285-1.4.604-.604.289.722.253 1.58-.0789 1.92-.332.332-.569-.258-.525-1.31zm-97.1.274c.0084-.445-.435-.531-.985-.191s-.993 1.38-.985 2.31c.0132 1.46.149 1.48.985.191.533-.825.976-1.86.985-2.31zm-3.2-4c-.953-1.98-1.09-1.7-1.09 2.25s.132 4.23 1.09 2.25c.780-1.62.780-2.88 0-4.5zm103-4.8c.340-.55.168-1-.382-1s-1.28.45-1.62 1-.168 1 .382 1 1.28-.45 1.62-1zm-45.6-5.44c1.86-.606 2.08-.975 1-1.69-1.13-.744-1.03-1.18.559-2.39 3.85-2.94 15.1-1.83 30.1 2.96 1.55.495-.0732-15.3-2.09-20.3-.923-2.31-3.51-5.76-5.74-7.67-4.7-4.02-8.81-4.47-18.4-1.98-7.35 1.91-17.3 1.91-24.7 0-8.25-2.15-12.7-1.92-16.5.845-6.95 5.13-9.03 9.52-10.1 21.3l-.714 8.15 4.53-1.46c8.4-2.7 11.5-3.27 18.1-3.29 6.76-.0246 11.6 1.84 8.96 3.47-3.65 2.26 8.92 4 14.9 2.07zm-16.8-2.2c-.332-.332-1.19-.368-1.92-.0790-.798.319-.561.556.604.604 1.05.0434 1.64-.193 1.31-.525z" fill="#c38775"/>
 <path d="m34.5 193c-.687-3.71-2.11-9.57-3.16-13-1.05-3.45-1.68-6.64-1.4-7.09.768-1.24 17.4-5.27 27.1-6.58l4-.538 5 8.68c2.75 4.78 6.83 11.2 9.06 14.2 2.23 3.06 4.87 6.8 5.87 8.31l1.8 4h-47zm58.7 3c.325-2.06 1.1-5.54 1.73-7.73 1.06-3.71.961-4.13-1.4-6.18l-2.54-2.2 3.95-4.07c2.2-2 4.6-4 5.1-4 1.72 0 8.33 5.91 8.33 7.45 0 .683-.944 2.1-2.1 3.14-2.13 1.93-2.18 4.79-.225 14.6l1 3h-14.1zm25.3 3.31c0-.242 2.46-3.87 5.48-8.07 3.01-4.2 7.81-11.5 10.7-16.3 2.85-4.77 5.29-8.82 5.42-9 .364-.487 18.3 2.83 23.9 4.43 7.99 2.26 7.95 2.19 5.72 9.5-1.07 3.51-2.51 9.43-3.2 13.1l-1.25 6.75h-23.4c-12.9 0-23.4-.198-23.4-.439zm-25.5-44c-6.4-2-11.9-5-12-7-.0421-.55-.463-.1-.936 1-.801 1.86-.864 1.84-.930-.396-.0404-1.38-1.91-4.36-4.39-7.01-5.21-5.57-9.61-12.8-10.1-16.7-.9-6-1.8-8-4-8-3.99 0-6.34-2.74-8.53-9.93-1.16-3.83-2.61-7.27-3.21-7.64-1.81-1.12-4.84-8.71-4.86-12.2-.0138-2.04.725-3.9 1.98-4.97 1.1-.942 2-2.76 2-4.05s.388-2.1.863-1.8c.474.293.257-2.04-.484-5.19s-1.35-8.91-1.36-12.8c-.0127-5.77.491-8.06 2.73-12.4 1.51-2.94 3.13-5.25 3.6-5.13.466.122 2.08-2.39 3.59-5.58 2.77-5.85 9.83-14 14.1-16.3 2.12-1.14 2.25-1.06 1.71 1.03-.519 1.99-.178 1.86 2.85-1.08 2.82-2.73 3.44-3 3.44-1.49 0 1.75.0995 1.76 1.9.135 1.47-1.33 2.01-1.42 2.43-.405.360.887 1.52.180 3.58-2.19 2.25-2.59 3.05-3.05 3.07-1.75.0148.962.466 1.75 1 1.75 1.25 0 8.69-9.38 9.53-12 .753-2.37 2.33-2.6 3.15-.455.324.845 2.08 2.16 3.89 2.92 1.82.759 4.06 2.54 4.99 3.95.928 1.42 2.1 2.32 2.62 2 .511-.316 2.64.926 4.73 2.76 4.05 3.55 9.66 7 12.1 7.45 1.97.355 7.48 6.88 9.91 11.7 1.48 2.95 2.02 3.41 2.35 2 .548-2.29 4.25 5.38 5.27 10.9.379 2.06 1.05 3.52 1.49 3.24 1.18-.727 2.98 8.7 2.93 15.3-.0241 3.14-.664 7.44-1.42 9.57-1 3.4-1 5.9 1 5.9 1.63 0 4.48 3.88 4.38 5.97-.0497 1.08-.347.943-1.02-.473-.723-1.53-.837-1.09-.481 1.82.554 4.54-.910 9.12-2.58 8.09-.688-.425-.886-.278-.490.363.366.593-.203 2.57-1.26 4.4s-2.44 5.26-3.06 7.63c-1.35 5.14-4.13 8.2-7.45 8.2-1.91 0-2.58.691-3.19 3.25-.423 1.79-.679 3.6-.567 4.04.475 1.84-5.48 12.1-9.97 17.1-2.73 3.06-4.89 6.48-4.93 7.79-.0661 2.2-.122 2.22-.930.340-.473-1.1-.891-1.5-.930-0.9-.122 1.91-12.3 7.42-17.6 7.92-3.35.324-6.81-.129-10.5-1.37zm20.8-10.8c3.23-1.58 9.03-6.04 13.7-10.6l8.14-7.82 4.05-14.1 4.05-14.1-3.19 3.48c-2.83 3.09-3.95 3.56-9.88 4.2-9.44 1.01-15.1-.0542-19.2-3.59-3.74-3.28-6.64-8.66-7.52-13.9-.475-2.85-1.02-3.5-2.95-3.5-2.03 0-2.57.776-3.76 5.44-1.51 5.9-4.93 11.1-9.11 13.8-2.06 1.34-4.79 1.72-12.3 1.69-10.7-.0405-14.2-1.41-16-6.15-.541-1.42-1.22-2.35-1.51-2.06-.289.289 1.34 6.76 3.62 14.4 4.03 13.5 4.31 14 9.8 19.7 15.7 16.2 27.9 20 42 13.1zm-14.2-14c.962-.252 2.54-.252 3.5 0 .962.252.175.457-1.75.457s-2.71-.206-1.75-.457zm-3.39-13.4c-2.24-1.95-2.25-2-.166-.995 1.21.584 2.47 1.51 2.81 2.06.983 1.59-.0947 1.16-2.64-1.06zm-1.78-6.53c.0480-1.16.285-1.4.604-.604.289.722.253 1.58-.0790 1.92-.332.332-.569-.258-.525-1.31zm-32.5 4c-4.02-13.9-5.92-19.2-6.69-18.7-.514.317-.948 2.24-.964 4.27-.0259 3.14-.192 3.41-1.12 1.82-.597-1.03-.845-3.66-.550-5.86.376-2.8.0120-4.85-1.22-6.88-2.23-3.67-3.24-2.7-2.43 2.34.345 2.16.688 4.68.763 5.6.0744.920.873 3.04 1.77 4.71.901 1.67 1.96 4.77 2.36 6.89.833 4.44 3.53 7.58 6.52 7.58 1.5 0 1.93-.484 1.56-1.75zm84.3-.885c1.14-1.45 2.07-3.6 2.07-4.79 0-1.18.941-3.94 2.09-6.12 2.33-4.42 2.6-5.68 2.78-13.2.0981-4.03.489-5.25 1.69-5.25.857 0 1.27-.475.907-1.06-1.31-2.12-3.75-.335-5.44 3.98-1.35 3.46-1.51 5.15-.716 7.73.705 2.3.681 3.99-.0806 5.57-1.04 2.16-1.1 2.12-1.16-.921-.133-6.28-2.01-4.2-5.02 5.52-1.68 5.44-3.05 10.2-3.05 10.5 0 1.71 4.1.331 5.93-2zm-56.6-13.4c3.72-3.57 6.34-10.1 5.91-14.7-.476-4.99-5.68-7.32-16.3-7.29-12.1.0301-17.6 3.72-17.4 11.9.0817 5.83 2.07 10.8 4.94 12.3 1.65.866 5.45 1.21 11.2 1.03 8.05-.264 8.91-.499 11.7-3.21zm-21.3-9.19-2.45-3.61 3.31-2.91c3.29-2.89 3.35-2.9 10.5-1.88 5.97.847 12.6 2.86 9.71 2.97-.432.0167-.294 1.04.306 2.28 1.06 2.19 1.04 2.19-.983-.133-1.14-1.31-3.43-2.54-5.08-2.73-2.51-.292-2.79-.122-1.73 1.02.924.996 1.48 1.06 2.01.233.404-.627.742.297.75 2.05.0084 1.76-.547 3.55-1.23 3.99-.813.522-.0265 1.02 2.25 1.43 2.24 0.4.179.672-5.71.756l-9 .1zm7.81.529c-1.78-1.97-1.79-2.23-.201-5 1.7-2.8 1.7-2.9-.4-2.9-2.22 0-6.77 3.6-6.77 5.35 0 2.11 3.44 4.65 6.31 4.65 2.97 0 2.98-.0183 1.12-2.08zm60.7 11c4.4-2.35 6.47-14.2 3.29-18.7-2.8-4-7.29-5.58-15.9-5.6-10.2-.0254-15.8 2.33-16.3 6.86-.712 6.27 4.15 15.5 9.26 17.5 3.04 1.23 17.4 1.15 19.7-.112zm-15-8c-4.95-.342-7.26-.707-5.13-.811 3.31-.161 3.69-.406 2.64-1.68-.681-.820-1.04-2.84-.796-4.5.531-3.62-.506-3.81-3.64-.670l-2.34 2.34.134-2.36c.163-2.86 4.38-4.3 12.6-4.31 4.52-.0046 5.91.441 8.18 2.62l2.74 2.62-2.57 3.88c-1.41 2.13-2.62 3.79-2.68 3.69 0-.1-4-.5-9-.8zm10.5-3.5 2.35-2.5-2.35-2.5c-2.34-2.49-6.36-3.34-7.46-1.57-.317.512.399 1.61 1.59 2.45 2.07 1.45 2.09 1.63.494 4.07-2 2.5-2 2.6 0 2.6 1.29 0 3.41-1.12 4.7-2.5zm-86.8-1.7c-.319-.798-.556-.561-.604.604-.0434 1.05.193 1.64.525 1.31.332-.332.368-1.19.0790-1.92zm2-4.8c.812 0 1.18-.472.828-1.05-.781-1.26-3.51.687-3.39 2.42 0 .7.3.6.6-.2.3-.6 1.1-1.2 2-1.2zm60.2-6.36c.731-.469 2.53-1.22 4-1.66 2.57-.777 2.55-.810-.778-.893-5.81-.145-1.99-2.24 5.11-2.8 4.86-.385 8.49.0867 15.5 2.02l9.17 2.52-.384-3.16c-.211-1.74-.596-5.77-.855-8.95-.623-7.66-3.88-14.2-8.67-17.4-4.2-2.78-7.77-2.84-22.7-.417-7.13 1.16-12.8.759-25-1.77-6.31-1.31-9.17-.338-14.4 4.85-4.99 4.99-6.12 8.29-7.24 21.1l-.491 5.64 5.17-1.46c11.1-3.13 13.4-3.48 19.5-3.01 7.09.539 10.9 2.64 5.11 2.79l-3.45.0902 3.2.926c1.76.509 3.44 1.31 3.73 1.78.672 1.09 11.6.886 13.4-.245zm-21.7-3.3c-.956-.250-2.76-.259-4-.0202s-.462.444 1.74.455c2.2.0111 3.22-.185 2.26-.435zm35.5.0311c-.677-.274-2.03-.291-3-.0370-.973.254-.419.478 1.23.498 1.65.0204 2.45-.187 1.77-.461z" fill="#a76a58"/>
 <path d="m34.5 193c-.687-3.71-2.11-9.57-3.16-13-1.05-3.45-1.68-6.64-1.4-7.09.757-1.22 16.9-5.17 27.1-6.61 3.97-.565 4.02-.534 6.88 4.7 2.39 4.38 12.1 19.4 17.5 26.8 1.3 2 .9 2-22.1 2h-23.6zm58.7 3c.325-2.06 1.1-5.54 1.73-7.73 1.06-3.71.961-4.13-1.4-6.18l-2.54-2.2 3.95-4.07c2.2-2 4.6-4 5.1-4 1.72 0 8.33 5.91 8.33 7.45 0 .683-.944 2.1-2.1 3.14-2.13 1.93-2.18 4.79-.225 14.6l1 3h-14.1zm25.3 3.31c0-.242 2.46-3.87 5.48-8.07 3.01-4.2 7.81-11.5 10.7-16.3 2.85-4.77 5.29-8.82 5.42-9 .364-.487 18.3 2.83 23.9 4.43 7.76 2.2 7.92 2.39 6.19 7.5-.818 2.41-2.27 8.33-3.22 13.1l-1.74 8.75h-23.4c-12.8 0-23.4-.198-23.4-.439zm-23.6-43c-7.01-1.96-13-5.94-19.6-13-5.57-5.96-12.3-17-11-18.2.287-.287 2.21 1.54 4.28 4.06 4.5 5.49 14.3 13.4 20.4 16.5 6.58 3.33 14.3 3.71 21.4 1.03 6.44-2.43 18.8-11.9 23.8-18.1 1.75-2.2 3.38-3.8 3.63-3.55 1.36 1.36-5.98 12.9-12.3 19.4-10.5 10.7-20.6 14.7-30.5 11.9zm-25.9-51c-4.73-.945-7.75-2.69-8.44-4.89-.318-1-1.96-2.84-3.65-4.1-3.49-2.58-8.9-13.2-8.9-17.4-.000434-1.54.387-2.57.862-2.28.474.293.257-2.04-.484-5.19s-1.35-8.91-1.36-12.8c-.0127-5.75.498-8.08 2.73-12.5 1.6-2.9 3.2-5.3 3.8-5.3.525 0 2.25-2.59 3.83-5.75 2.81-5.62 9.91-13.7 13.9-15.9 1.8-.961 1.93-.832 1.29 1.27-.629 2.07-.301 1.95 2.91-1.11 2.94-2.81 3.62-3.1 3.62-1.6 0 1.79.0684 1.79 2 .0412s2-1.75 2.04.0950c.0293 1.49.798 1.02 3.49-2.1 2.44-2.83 3.45-3.49 3.46-2.25.0082.962.454 1.75.992 1.75 1.25 0 8.69-9.38 9.53-12 .753-2.37 2.33-2.6 3.15-.455.324.845 2.08 2.16 3.89 2.92 1.82.759 4.06 2.54 4.99 3.95.928 1.42 2.1 2.32 2.62 2 .511-.316 2.71 1.04 4.89 3.01 2 1.9 4 3.5 4 3.5.506 0 2.4 1.24 4.2 2.75 1.81 1.51 2.91 2.14 2.46 1.4-.666-1.09-.425-1.13 1.25-.241 2.51 1.34 10.1 11.8 10.2 14 .0515 1.16.292 1.05.897-.413.722-1.75 1.08-1.43 2.85 2.5 1.11 2.48 2.33 6.18 2.71 8.24.379 2.06 1.05 3.52 1.49 3.24 1.18-.727 2.98 8.7 2.93 15.3-.0241 3.14-.675 7.47-1.45 9.63-.771 2.16-1.15 4.34-.850 4.83 1.09 1.77-4.75 15.5-7.72 18.1-1.62 1.44-2.94 3.05-2.94 3.59 0 2.99-12.5 5.68-21 4.51-7.97-1.1-13.7-7.37-15.8-17.2 0-2.9-1-3.6-2-3.6-1.98 0-2.55.669-3.19 3.77-1.04 4.99-4.02 10.7-7.11 13.6-3.98 3.71-12.8 5.02-21.7 3.24zm18-3.55c2.86-1.48 7.17-9.01 8.46-14.8.869-3.89-2.7-7.19-9.32-8.61-6.47-1.39-8.72-1.4-15-.0508-7.31 1.57-10.1 4.6-10.1 10.9 0 6.31 2.19 11.8 5.21 13 3.79 1.52 17.5 1.23 20.8-.436zm-19.4-10.6-2.4-3.6 3.2-2.8c3.05-2.66 3.41-2.73 10.1-1.92 9.21 1.12 10.2 1.5 10.3 4.13.148 2.15.0925 2.17-1.24.375-.767-1.03-2.78-2.04-4.47-2.23-2.56-.299-2.86-.131-1.8 1.01.924.996 1.48 1.06 2.01.233.404-.627.742.297.75 2.05.0084 1.76-.517 3.52-1.17 3.92-.814.503-.579.968.75 1.49 1.15.452-1.18.786-5.78.827l-7.7.1zm7.81.529c-1.78-1.97-1.79-2.23-.201-5 1.7-2.8 1.7-2.9-.4-2.9-2.22 0-6.77 3.6-6.77 5.35 0 2.11 3.44 4.65 6.31 4.65 2.97 0 2.98-.0183 1.12-2.08zm60.6 11c3.05-1.63 4.94-6.41 4.94-12.5 0-4.74-.398-5.97-2.59-8-5.4-5-22-5.6-29-1.04-5.45 3.57-.572 18.4 7.09 21.6 2.89 1.19 17.3 1.14 19.6-.0756zm-17.8-8.67c1.43-.370 1.56-.762.635-1.87-.642-.774-.969-2.76-.726-4.42.501-3.41.105-3.62-2.89-1.52-1.8 1.26-2.2 1.27-2.66.0828-.718-1.87 1.22-2.5 10-3.24 7.11-.601 7.5-.518 10.3 2.15l2.89 2.77-2.18 3.37c-2.17 3.35-2.22 3.37-9.68 3.26-4.12-.0570-6.69-.314-5.7-.571zm14-2.8 2-2.5-2-2.5c-2.34-2.49-6.36-3.34-7.46-1.57-.317.512.399 1.61 1.59 2.45 2.07 1.45 2.09 1.63.494 4.07-2 2.5-2 2.6 0 2.6 1.29 0 3.41-1.12 4.7-2.5zm-24-13.2c1.81-.806 6.08-1.87 9.5-2.36 5.99-.860 5.9-.877-2.29-.473-9.34.461-9.25-1.02.118-2.04 4.02-.438 7.77.0488 14.8 1.93 5.21 1.38 9.57 2.41 9.69 2.29.126-.126-.155-4.32-.624-9.31-.977-10.4-3.31-15.9-8.36-19.8-4.6-3.51-8.33-4.03-15.6-2.16-7.87 2.02-23 2.06-29.5.0847-8.69-2.64-11-2.13-17 3.76-5.97 5.81-7.08 8.62-8.2 20.7-.572 6.16-.450 7.33.720 6.88 6.93-2.66 19.8-4.92 24.5-4.32 8.27 1.03 7.33 2.42-1.36 2l-7.76-.378 6.23.892c3.43.491 7.48 1.53 9 2.31 3.63 1.86 11.9 1.88 16.1.0390z" fill="#685f5b"/>
 <path d="m35 196c-.713-4.49-4.1-18.5-5.09-21.1-.450-1.17.990-1.99 6.25-3.56 8.79-2.62 24.7-5.35 25.1-4.29.759 2.28 9.67 16.6 14.5 23.3 3 4.18 5.78 8.11 6.17 8.75.5 1-5.3 1-22.8 1h-23.5zm58.5 1.41c0-1.56.670-5.05 1.49-7.75 1.47-4.85 1.46-4.93-1.01-6.75l-2.49-1.84 1.98-2.78c1.09-1.53 3.13-3.53 4.54-4.46 2.43-1.59 2.71-1.57 5.53.438 1.63 1.16 3.48 3.07 4.1 4.23.962 1.8.747 2.45-1.42 4.31-2.27 1.95-2.46 2.63-1.74 6.06.448 2.13 1.11 5.55 1.47 7.62l.650 3.75h-6.55c-6.52 0-6.55-.009-6.55-2.84zm25.5 2c.393-.688 2.85-4.18 5.46-7.75 4.47-6.12 14.4-22 15.1-24.1.398-1.19 15.7 1.33 25.1 4.15 5.63 1.68 6.72 2.34 6.16 3.74-1.2 3.03-4.3 15.7-5.02 20.5l-1 4h-23.4c-18.5 0-23.3-.265-22.7-1.25zm-24.6-43c-6.96-1.94-13-5.95-19.3-12.7-4.6-4.97-11.6-16.1-11.6-18.4 0-.283 3.71 3.19 8.25 7.72 5.09 5.08 10.7 9.57 14.8 11.7 5.79 3.12 7.31 3.49 14 3.48 5.92-.0157 8.45-.518 12-2.38 6.09-3.19 16.1-11.2 21-16.9l4.08-4.67-1.6 4c-4.04 10.1-14.9 21.9-24 26.1-6.54 3.01-11.9 3.64-17.6 2.07zm-31.1-53c-1.47-.801-2.94-2.28-3.26-3.28-.2-.5-1.9-2.4-3.6-3.6-4.9-3.7-11-18.2-8-19.3.5-.2.2-3.4-.6-7.3-1.9-9.2-1.2-18.2 1.9-24.3 1.33-2.59 2.78-4.57 3.22-4.4.442.166 1.85-1.95 3.12-4.69 2.39-5.15 8.77-12.8 13.6-16.2l2.72-1.94-.549 2.25c-.5 2.1-.3 2.1 2.7-.7 2.29-2.1 3.42-2.6 3.75-1.69.365 1.01.904.921 2.37-.405 1.8-1.63 1.9-1.62 1.94.189.0328 1.5.771 1.08 3.5-2.01 2.33-2.64 3.46-3.37 3.46-2.25 0 .917.415 1.67.922 1.67 1.31 0 7.83-7.81 9.31-11.2 1.4-3.15 2.28-3.54 3.11-1.38.307 0.8 2.37 2.38 4.57 3.5 2.21 1.13 4.49 2.93 5.06 4.01.577 1.08 1.65 1.73 2.39 1.45.735-.282 2.74 1.08 4.45 3.04 1 2 3 3.6 4 3.6.652 0 2.69 1.15 4.53 2.55s3.34 2.21 3.34 1.8c0-1.72 7.36 6.5 9.54 10.6 1.62 3.08 2.39 3.87 2.44 2.5.0761-1.94.120-1.94 1.5-.128.780 1.03 2.21 4.94 3.17 8.68.965 3.75 2.06 6.62 2.43 6.39 1.11-.683 2.91 7.99 2.91 14 0 3.05-.857 7.8-1.9 10.6-1.05 2.76-1.5 4.76-1 4.45 2.95-1.82-3.57 14.4-7.15 17.9-1.62 1.54-2.94 3.22-2.94 3.72 0 .508-1.4 1.65-3.12 2.54-2.43 1.26-5.4 1.54-13.4 1.28-9 0-11-1-13-3-3-3-6-8.7-7-13.7-1-3.1-2-3.8-3-3.8-2.01 0-2.58.746-3.59 4.71-1.63 6.4-4.38 10.8-8.38 13.5-2.91 1.96-4.6 2.25-12.9 2.21-6.44-.0269-10.5-.519-12.3-1.5zm23.6-2.28c5.4-2.9 9.8-14.6 7.1-18.7-1.7-2.6-9.9-5.3-16-5.3-5.98 0-14.2 2.69-16 5.25-2.91 4.15-1.23 17 2.52 19.3 4.5 2.78 17.3 2.58 22.3-.355zm-18.8-9.8-1.9-2.7l2.42 2.18c1.5 1.35 4.13 2.33 6.92 2.58l4.5.392-5 .143c-4.4.1-5.2-.2-6.9-2.6zm-.7-6c2.08-3.01 2.62-3.24 7.42-3.08l5.18.175-4.5.389c-3.12.270-5.39 1.21-7.42 3.08l-2.9 2.7zm18.5-.1c-.5-.5-1.8-1.1-2.9-1.4l-2-.481 2-.101c2.23-.112 5.24 1.46 4.4 2.3-.296.296-.958.139-1.47-.349zm50.3 16.3c3.05-2 4.23-5.34 4.23-12 0-4.59-.414-5.87-2.55-7.85-6.96-6.45-27.7-5.47-31.5 1.49-1.34 2.51-.0882 7.42 3.44 13.4 2.46 4.2 3.92 5.11 11.1 6.91 3.39.852 12.8-.361 15.3-1.96zm-11-8.15c3.97-.279 5.59-.888 6.75-2.54.836-1.19 1.52-1.69 1.52-1.1 0 2.56-3.72 4.38-8.58 4.19l-4.92-.185zm-11-8.8c1.1-.473 2.68-.859 3.5-.859.945 0 .761.318-.5.859-1.1.473-2.68.859-3.5.859-.945 0-.761-.318.5-.859zm8.75-1.69c.962-.252 2.54-.252 3.5 0 .962.252.175.457-1.75.457s-2.71-.206-1.75-.457zm-15-4.9c1.8-.896 6.7-1.99 10.9-2.43l7.64-.798-9.19.232c-9.67.244-11.6-.751-3.56-1.82 4.85-.645 9.18-.0241 19.7 2.82 3.26.883 6.05 1.49 6.19 1.34.147-.147-.116-4.36-.585-9.35-.981-10.5-3.31-15.9-8.43-19.9-4.54-3.46-9.14-4.08-15.9-2.12-7.06 2.05-22.5 2.11-29.1.0986-8.69-2.64-11-2.13-17 3.76-3.66 3.56-5.73 6.53-6.45 9.25-1.14 4.32-2.67 18.5-1.99 18.5.228 0 3.78-.968 7.89-2.15 8.12-2.34 21.2-3.01 23-1.19.802.802-1.44 1.02-8.23.786l-9.33-.315 7.55.801c4.15.440 8.88 1.52 10.5 2.4 3.85 2.08 12.3 2.11 16.4.0467z" fill="#662663"/>
 <path d="m35.1 195c-.674-4.5-3.88-17.5-5.09-20.7-.732-1.91 7.83-4.81 19.6-6.63 4.12-.642 8.46-1.37 9.63-1.61 1.66-.345 2.43.279 3.47 2.79.736 1.78 5.49 9.43 10.6 17 8.55 12.7 9.05 13.8 6.78 13.8-1.4 0-2.45-.584-2.45-1.36 0-1.56-10.5-8.83-11.4-7.91-.333.333-.606 2.56-.606 4.94 0 3.86-.252 4.33-2.31 4.33-1.27 0-3.61-1.35-5.19-3s-3.18-3-3.56-3c-.378 0-.958 1.35-1.29 3-.526 2.63-1.02 3-4 3-1.87 0-3.99-.703-4.7-1.56-1.18-1.42-1.38-1.42-2.17 0-.6 1-2.3 2-3.8 2-2.61 0-2.89-.376-3.53-4.61zm8.4-4c.0075-2.06.267-4.69.576-5.85.509-1.9 1.02-1.62 5.35 2.92l4.79 5.02.728-6.8.728-6.8 4.88 4.81c2.69 2.65 5.13 4.56 5.43 4.26.302-.302.249-3.2-.116-6.44-.599-5.31-1.12-6.33-5.28-10.4l-4.61-4.48-.5 5.93-.5 5.93-4.26-4.85c-2.34-2.67-4.42-4.67-4.62-4.45-.198.222-.755 3.1-1.24 6.38l-.878 5.98-3.99-5.44-3.99-5.44-.703 3.96c-1.44 8.11-1 10.5 2.75 15.1 1.96 2.39 3.99 4.35 4.5 4.35.513 0 .939-1.69.947-3.75zm50 5.91c0-1.56.670-5.05 1.49-7.75 1.47-4.85 1.46-4.93-1.01-6.75l-2.49-1.84 1.98-2.78c1.09-1.53 3.13-3.53 4.54-4.46 2.43-1.59 2.71-1.57 5.53.438 1.63 1.16 3.48 3.07 4.1 4.23.962 1.8.747 2.45-1.42 4.31-2.27 1.95-2.46 2.63-1.74 6.06.448 2.13 1.11 5.55 1.47 7.62l.650 3.75h-6.55c-6.52 0-6.55-.009-6.55-2.84zm26.5 1c5.47-7.59 16.7-24.9 18.2-28 1.96-4.1.677-4.01 15.8-1.11 13.3 2.55 17.9 4.2 17.1 6.14-1.2 3.02-4.3 15.7-5.02 20.5-.653 4.36-.912 4.69-3.62 4.69-1.71 0-3.16-.640-3.51-1.54-.529-1.38-.782-1.37-2.38.0703-1.1.994-3.07 1.49-5.13 1.29-2.81-.269-3.39-.761-3.66-3.07-.174-1.51-.565-2.75-.868-2.75s-2.09 1.35-3.97 3c-4.75 4.17-7.35 4.02-7.35-.418 0-6.57-.633-6.85-6.59-2.89-2.98 1.98-5.41 4.2-5.41 4.95 0 .799-1.08 1.36-2.62 1.36-2.53 0-2.57-.0762-.999-2.25zm46-15c-.0204-1.92-.353-5.28-.740-7.46l-.703-3.96-3.99 5.45-3.99 5.45-.890-6.24c1-4 0-7 0-7-.357 0-2.43 2.14-4.61 4.75l-3.96 4.75-.5-5.98-.5-5.98-4.62 4.48c-4.14 4.01-4.7 5.09-5.33 10.3-.389 3.21-.435 6.11-.102 6.44.333.333 2.79-1.54 5.46-4.17l4.85-4.78.733 6.84.733 6.84 4.79-5.21c4.42-4.81 4.83-5.04 5.38-3 .325 1.21.615 4.23.643 6.71l.0521 4.5 4.44-5c3.49-3.93 4.43-5.75 4.4-8.5zm-71.6-27c-6.96-1.94-13-5.95-19.3-12.7-4.6-4.97-11.6-16.1-11.6-18.4 0-.283 3.71 3.19 8.25 7.72 5.09 5.08 10.7 9.57 14.8 11.7 5.79 3.12 7.31 3.49 14 3.48 5.92-.0157 8.45-.518 12-2.38 6.09-3.19 16.1-11.2 21-16.9l4.08-4.67-1.6 4c-4.04 10.1-14.9 21.9-24 26.1-6.54 3.01-11.9 3.64-17.6 2.07zm-31.1-53c-1.47-.801-2.94-2.28-3.26-3.28-.2-.5-1.9-2.4-3.6-3.6-4.9-3.7-11-18.2-8-19.3.5-.2.2-3.4-.6-7.3-1.9-9.2-1.2-18.2 1.9-24.3 1.33-2.59 2.78-4.57 3.22-4.4.442.166 1.85-1.95 3.12-4.69 2.39-5.15 8.77-12.8 13.6-16.2l2.72-1.94-.549 2.25c-.5 2.1-.3 2.1 2.7-.7 2.29-2.1 3.42-2.6 3.75-1.69.365 1.01.904.921 2.37-.405 1.8-1.63 1.9-1.62 1.94.189.0328 1.5.771 1.08 3.5-2.01 2.33-2.64 3.46-3.37 3.46-2.25 0 .917.415 1.67.922 1.67 1.31 0 7.83-7.81 9.31-11.2 1.4-3.15 2.28-3.54 3.11-1.38.307 0.8 2.37 2.38 4.57 3.5 2.21 1.13 4.49 2.93 5.06 4.01.577 1.08 1.65 1.73 2.39 1.45.735-.282 2.74 1.08 4.45 3.04 1 2 3 3.6 4 3.6.652 0 2.69 1.15 4.53 2.55s3.34 2.21 3.34 1.8c0-1.72 7.36 6.5 9.54 10.6 1.62 3.08 2.39 3.87 2.44 2.5.0761-1.94.120-1.94 1.5-.128.780 1.03 2.21 4.94 3.17 8.68.965 3.75 2.06 6.62 2.43 6.39 1.11-.683 2.91 7.99 2.91 14 0 3.05-.857 7.8-1.9 10.6-1.05 2.76-1.5 4.76-1 4.45 2.95-1.82-3.57 14.4-7.15 17.9-1.62 1.54-2.94 3.22-2.94 3.72 0 .508-1.4 1.65-3.12 2.54-2.43 1.26-5.4 1.54-13.4 1.28-9 0-11-1-13-3-3-3-6-8.7-7-13.7-1-3.1-2-3.8-3-3.8-2.01 0-2.58.746-3.59 4.71-1.63 6.4-4.38 10.8-8.38 13.5-2.91 1.96-4.6 2.25-12.9 2.21-6.44-.0269-10.5-.519-12.3-1.5zm23.6-2.28c5.4-2.9 9.8-14.6 7.1-18.7-1.7-2.6-9.9-5.3-16-5.3-5.98 0-14.2 2.69-16 5.25-2.91 4.15-1.23 17 2.52 19.3 4.5 2.78 17.3 2.58 22.3-.355zm-18.8-9.8-1.9-2.7l2.42 2.18c1.5 1.35 4.13 2.33 6.92 2.58l4.5.392-5 .143c-4.4.1-5.2-.2-6.9-2.6zm-.7-6c2.08-3.01 2.62-3.24 7.42-3.08l5.18.175-4.5.389c-3.12.270-5.39 1.21-7.42 3.08l-2.9 2.7zm18.5-.1c-.5-.5-1.8-1.1-2.9-1.4l-2-.481 2-.101c2.23-.112 5.24 1.46 4.4 2.3-.296.296-.958.139-1.47-.349zm50.3 16.3c3.05-2 4.23-5.34 4.23-12 0-4.59-.414-5.87-2.55-7.85-6.96-6.45-27.7-5.47-31.5 1.49-1.34 2.51-.0882 7.42 3.44 13.4 2.46 4.2 3.92 5.11 11.1 6.91 3.39.852 12.8-.361 15.3-1.96zm-11-8.15c3.97-.279 5.59-.888 6.75-2.54.836-1.19 1.52-1.69 1.52-1.1 0 2.56-3.72 4.38-8.58 4.19l-4.92-.185zm-11-8.8c1.1-.473 2.68-.859 3.5-.859.945 0 .761.318-.5.859-1.1.473-2.68.859-3.5.859-.945 0-.761-.318.5-.859zm8.75-1.69c.962-.252 2.54-.252 3.5 0 .962.252.175.457-1.75.457s-2.71-.206-1.75-.457zm-15-4.9c1.8-.896 6.7-1.99 10.9-2.43l7.64-.798-9.19.232c-9.67.244-11.6-.751-3.56-1.82 4.85-.645 9.18-.0241 19.7 2.82 3.26.883 6.05 1.49 6.19 1.34.147-.147-.116-4.36-.585-9.35-.981-10.5-3.31-15.9-8.43-19.9-4.54-3.46-9.14-4.08-15.9-2.12-7.06 2.05-22.5 2.11-29.1.0986-8.69-2.64-11-2.13-17 3.76-3.66 3.56-5.73 6.53-6.45 9.25-1.14 4.32-2.67 18.5-1.99 18.5.228 0 3.78-.968 7.89-2.15 8.12-2.34 21.2-3.01 23-1.19.802.802-1.44 1.02-8.23.786l-9.33-.315 7.55.801c4.15.440 8.88 1.52 10.5 2.4 3.85 2.08 12.3 2.11 16.4.0467z" fill="#66493b"/>
 <path d="m35.1 195c-.674-4.5-3.88-17.5-5.09-20.7-.732-1.91 7.83-4.81 19.6-6.63 4.12-.642 8.46-1.37 9.63-1.61 1.66-.345 2.43.279 3.47 2.79.736 1.78 5.49 9.43 10.6 17 8.55 12.7 9.05 13.8 6.78 13.8-1.4 0-2.45-.584-2.45-1.36 0-1.56-10.5-8.83-11.4-7.91-.333.333-.606 2.56-.606 4.94 0 3.86-.252 4.33-2.31 4.33-1.27 0-3.61-1.35-5.19-3s-3.18-3-3.56-3c-.378 0-.958 1.35-1.29 3-.526 2.63-1.02 3-4 3-1.87 0-3.99-.703-4.7-1.56-1.18-1.42-1.38-1.42-2.17 0-.6 1-2.3 2-3.8 2-2.61 0-2.89-.376-3.53-4.61zm8.4-4c.0075-2.06.267-4.69.576-5.85.509-1.9 1.02-1.62 5.35 2.92l4.79 5.02.728-6.8.728-6.8 4.88 4.81c2.69 2.65 5.13 4.56 5.43 4.26.302-.302.249-3.2-.116-6.44-.599-5.31-1.12-6.33-5.28-10.4l-4.61-4.48-.5 5.93-.5 5.93-4.26-4.85c-2.34-2.67-4.42-4.67-4.62-4.45-.198.222-.755 3.1-1.24 6.38l-.878 5.98-3.99-5.44-3.99-5.44-.703 3.96c-1.44 8.11-1 10.5 2.75 15.1 1.96 2.39 3.99 4.35 4.5 4.35.513 0 .939-1.69.947-3.75zm50 5.91c0-1.56.670-5.05 1.49-7.75 1.47-4.85 1.46-4.93-1.01-6.75l-2.49-1.84 1.98-2.78c1.09-1.53 3.13-3.53 4.54-4.46 2.43-1.59 2.71-1.57 5.53.438 1.63 1.16 3.48 3.07 4.1 4.23.963 1.8.744 2.45-1.47 4.35l-2.6 2.24 1.45 6.83c.796 3.76 1.45 7.17 1.46 7.58.01.412-2.91.75-6.48.75-6.47 0-6.5-.011-6.5-2.84zm26.5 1c5.47-7.59 16.7-24.9 18.2-28 1.96-4.1.677-4.01 15.8-1.11 13.3 2.55 17.9 4.2 17.1 6.14-1.2 3.02-4.3 15.7-5.02 20.5-.653 4.36-.912 4.69-3.62 4.69-1.71 0-3.16-.640-3.51-1.54-.529-1.38-.782-1.37-2.38.0703-1.1.994-3.07 1.49-5.13 1.29-2.81-.269-3.39-.761-3.66-3.07-.174-1.51-.565-2.75-.868-2.75s-2.09 1.35-3.97 3c-4.75 4.17-7.35 4.02-7.35-.418 0-6.57-.633-6.85-6.59-2.89-2.98 1.98-5.41 4.2-5.41 4.95 0 .799-1.08 1.36-2.62 1.36-2.53 0-2.57-.0762-.999-2.25zm46-15c-.0204-1.92-.353-5.28-.740-7.46l-.703-3.96-3.99 5.45-3.99 5.45-.890-6.24c1-4 0-7 0-7-.357 0-2.43 2.14-4.61 4.75l-3.96 4.75-.5-5.98-.5-5.98-4.62 4.48c-4.14 4.01-4.7 5.09-5.33 10.3-.389 3.21-.435 6.11-.102 6.44.333.333 2.79-1.54 5.46-4.17l4.85-4.78.733 6.84.733 6.84 4.79-5.21c4.42-4.81 4.83-5.04 5.38-3 .325 1.21.615 4.23.643 6.71l.0521 4.5 4.44-5c3.49-3.93 4.43-5.75 4.4-8.5zm-71.5-28c-9.83-2.64-20.3-11.2-26.3-21.4-5.58-9.56-4.8-9.9 3.59-1.57 9.98 9.91 18.3 14.6 27.7 15.7l6.5.744-7-.286c-8.19-.334-14.4-3.05-21.8-9.56-6.95-6.13-5.8-3.35 1.52 3.68 8.52 8.18 13.5 10.6 21.7 10.7 8.54.0532 15.3-3.4 23.8-12.1 6.3-6.51 8.65-10.7 3.45-6.21-1.54 1.34-.888.523 1.45-1.82 2.33-2.34 4.94-5.25 5.8-6.47 2.84-4.06 1.67.491-1.61 6.23-6.38 11.2-19.9 21.7-29.8 23.3-1.92.307-5.96-.102-8.97-.909zm-22-20c0-.208-.788-.995-1.75-1.75-1.59-1.24-1.62-1.21-.378.378 1.31 1.67 2.13 2.2 2.13 1.37zm36.9 11.8c1.85-.803 3.65-1.44 4-1.43 1.3.0726-4.42 2.89-5.86 2.89-.825-.002.0142-.661 1.86-1.46zm5.64-2.12c2.56-2.42 8.83-6.51 7.32-4.77-.926 1.06-3.18 2.79-5 3.83s-2.87 1.47-2.32.945zm-49.5-41c-2.36-.862-6-4.5-6-6 0-.746-.788-1.66-1.75-2.03-2.48-.951-5.27-4.53-4.73-6.07.252-.716.0061-1.02-.547-.680-1.3 1.1-5-6.9-4.8-10.2.0896-1.96.201-2.07.517-.5.347 1.72 5.11 5.05 5.98 4.17.168-.168-.585-3.42-1.67-7.22-2.8-9.7-3.5-18.2-2-24.5l1.27-5.29 2.31 4.42 2.31 4.42.0689-5c.0739-5.36 3.24-14.2 6.96-19.4 1.25-1.76 2.08-3.4 1.84-3.64-.774-.774-4.62 3.95-7.81 9.58-3.01 5.32-3.2 3.38-.240-2.44 1.81-3.55 9.93-12.4 12.7-13.8 1.49-.771 1.25-.212-.899 2.08-2.59 2.76-2.91 3.76-2.68 8.38.307 6.05 1.56 8.11 2.54 4.19.373-1.49 1.78-4.32 3.13-6.31l2.45-3.6.0701 4.48.0701 4.48 1.8-5.29c2.65-7.77 2.83-7.76 4.36.288.323 1.69.563 1.54 1.55-1 2.94-7.53 2.67-7.31 4.61-3.57l1.77 3.42 1.28-3.05c.704-1.68 3.12-4.52 5.36-6.33 2.25-1.8 4.37-4.17 4.71-5.26 1.08-3.41 2.38.183 2.39 6.66.0133 5.11.211 5.71 1.52 4.63.826-.685 2.36-4 3.41-7.37l2-6.2 2 4.5c1.14 2.48 2.11 5.62 2.16 7 .0507 1.38.459 3.4.907 4.5.877 2.15.699 2.57 2.95-6.97.654-2.77.962-2.36 4.65 6.23 2.17 5.06 4.26 9.2 4.65 9.22.385.0126.835-2.53 1-5.65l0.3-5.68 2.92 4.22c1.6 2.32 3.49 6.34 4.18 8.93 1.16 4.3 1.27 4.43 1.33 1.46.0371-1.79.418-3.25.846-3.25.866 0 5.05 14.8 5.51 19.5.272 2.76.422 2.6 1.84-1.95l1.55-4.95.680 6.64c.374 3.65.443 8.58.152 11l1 4.3 1.46-3c1.29-2.64 1.47-2.73 1.51-.788.0248 1.22-.813 4.59-1.86 7.5s-2.21 7.06-2.58 9.23c-.588 3.44-.482 3.78.834 2.69 1.25-1.03 1.18-.171-.374 4.97-2.3 7.58-1.13 6.62 1.92-1.58 1.38-3.72 1.83-6.11 1.18-6.33-.706-.235-.724-.951-.0562-2.2 2.26-4.22 4.09-15.3 3.42-20.7-.423-3.38-.988-4.97-1.49-4.16-.570.922-.952.588-1.31-1.15-3-15.6-4-18.9-5-12.4l-.120 4-1.3-4.72c-1.5-5.44-5.37-12.4-8.42-15.2-2.49-2.26-2.66-1.56-.578 2.46 1 1.6 1 2.9 1 2.9-.275 0-1.15-1.26-1.95-2.81-1-3-7-9.2-9-9.2-.418 0-.107 1.56.690 3.47 2.11 5.06 1.69 5.66-.731 1.03-1.15-2.2-3.43-5.8-5.06-8l-2.97-4 3.09 3.25c1.7 1.79 3.62 3.25 4.26 3.25.643 0 2.67 1.15 4.51 2.55s3.34 2.22 3.34 1.81c0-1.63 6.38 5.45 8.99 9.98 1.71 2.98 2.99 4.32 3.32 3.5.867-2.16 2.41.794 4.37 8.34.951 3.68 2.05 6.48 2.44 6.24 1.02-.628 2.89 8.81 2.85 14.4-.018 2.59-.844 7.05-1.84 9.92-.992 2.87-1.44 5.35-.997 5.5.444.153-.308 3.34-1.67 7.09-1.83 5.03-3.81 8.17-7.58 12l-5.1 5.19-9.77.340c-14 0-18-2-22-14.8-1-4.7-2-5.7-3-5.7-1.83 0-2.53 1-3.97 5.65-2.11 6.82-5.19 11.4-9.06 13.4-2.84 1.47-18.6 2.02-22 .779zm21.6-2.97c5.1-3.34 9.91-15.8 7.31-18.9-3.66-4.41-16.5-6.73-24.8-4.48-6.85 1.86-9.14 4.81-9.13 11.8.0046 7.19 2.51 11.8 7.21 13.2 4.35 1.32 16.5.323 19.4-1.6zm-18.2-9.2c-1.89-2.23-1.89-2.24.0968-.570 1.1.924 4.03 1.86 6.5 2.08l4.5.395-4.6.175c-3.67.139-4.98-.281-6.5-2.08zm-.968-6.5c2.47-2.74 3.58-3.22 7-3.08l4.06.168-4 .399c-2.51.251-5.12 1.4-7 3.08l-3 2.68zm16.6-.833c-1.68-.933-1.97-1.39-.872-1.4.895-.0081 2.19.660 2.87 1.49 1.46 1.76 1.31 1.75-2-.0833zm53 16.1c2.06-2.06 2.55-3.67 2.87-9.43.358-6.34.175-7.16-2.1-9.44-6.37-6.37-26.1-5.87-31.7.797-1.67 2.02-.0199 9.08 3.39 14.5 3.43 5.44 8.72 7.24 19 6.5 4.69-.337 6.53-.969 8.47-2.91zm-12-7.24c2.46-.217 5.16-.926 6-1.58 1.33-1.03 1.35-.960.147.569-.999 1.27-2.63 1.7-6 1.58l-4.63-.175zm-9.17-9.94c.722-.289 1.58-.253 1.92.0790.332.332-.258.569-1.31.525-1.16-.0480-1.4-.285-.604-.604zm6.44-1.01c.962-.252 2.54-.252 3.5 0 .962.252.175.457-1.75.457s-2.71-.206-1.75-.457zm-14-5.6c2.45-1.31 5.79-1.72 14.2-1.75 6.05-.0219 12.5 0.3 14.4.715l3.4.755-.664-8.75c-2-19.5-11-27.1-27-22.9-8 2-20.5 2-26.9.1-2.7-.8-6.8-1.5-9.2-1.5-3.76 0-4.87.583-9.27 4.86-5.55 5.4-6.9 8.92-8.04 20.9l-.694 7.26 3.55-.757c1.95-.417 8.5-.741 14.5-.721 8.37.0275 11.7.436 14 1.71 3.98 2.22 12.7 2.24 16.8.0437zm-60.6-4.5c-2-9.2-1.8-21.6.4-25.3.992-1.65 1.49-2.1 1.1-1-1.37 3.89-1.66 19.6-.479 25.6 1.59 8.08.715 8.62-1.05.646zm4.8-29.5c-.367-.367-.653-1.38-.636-2.25.0250-1.3.220-1.26 1.09.242 1.08 1.85.765 3.23-.455 2.01zm16.3-17c-.0432-1.77 7.01-9.35 8.08-8.69.490.303.859 1.31.821 2.24-.0627 1.51-.146 1.5-.776-.0971-.635-1.61-.967-1.51-3.3 1-1.4 1.4-3 3.6-3.6 4.7-.607 1.1-1.12 1.44-1.13.753zm12.2-7.8c.0204-1.65.244-2.2.498-1.23.254.973.237 2.32-.0370 3-.3.6-.5-.1-.5-1.8zm3.3-1.5c.995-1.1 2.03-2 2.31-2 .275 0-.314.9-1.31 2-.995 1.1-2.03 2-2.31 2-.275 0 .314-.9 1.31-2zm29.1-2.71c-.543-1.43-.428-1.54.560-.560.683.678.991 1.49.683 1.79-.308.308-.867-.247-1.24-1.23zm-19.4-2.7c1.43-1.68 3.34-4.17 4.25-5.53.908-1.36 1.65-1.97 1.65-1.35 0 .619-1.91 3.11-4.25 5.53s-3.08 3.03-1.65 1.35zm9.4-5.18c-.933-1.96-1.21-3.26-.618-2.89 1.15.711 3.25 5.51 2.66 6.1 0 .19-1-1.26-2-3.21z" fill="#571854"/>
 <path d="m35.7 198c.0204-1.65.244-2.2.498-1.23.254.973.237 2.32-.0370 3-.3 0-.5-1-.5-2zm41.9-1.4c-3.54-4.48-14.1-22-14.1-23.4 0-.525 2.47 2.98 5.49 7.8 3.02 4.81 6.93 10.6 8.69 12.9 1.75 2.28 3.61 4.71 4.13 5.4.599.799.563 1.25-.101 1.25-.571 0-2.43-1.76-4.13-3.9zm15.9 1.06c0-1.56.670-5.05 1.49-7.75 1.47-4.85 1.46-4.93-1.01-6.75l-2.49-1.84 1.98-2.78c1.09-1.53 3.13-3.53 4.54-4.46 2.43-1.59 2.71-1.57 5.53.438 1.63 1.16 3.48 3.07 4.1 4.23.963 1.8.744 2.45-1.47 4.35l-2.6 2.24 1.45 6.83c.796 3.76 1.45 7.17 1.46 7.58.01.412-2.91.75-6.48.75-6.47 0-6.5-.011-6.5-2.84zm34.3-10.9c5.07-7.64 9.38-13.8 9.57-13.7 1.21.826-15.4 26.4-17.6 27.1-.674.216 2.93-5.86 8-13.5zm37 10c-.007-2.81 2.52-13.3 2.64-11 .0413.825-.534 4.2-1.28 7.5-.745 3.3-1.36 4.88-1.36 3.5zm-130-5c0-1.38.227-1.94.504-1.25.277.688.277 1.81 0 2.5-.277.688-.504.125-.504-1.25zm-1.08-4.58c.0480-1.16.285-1.4.604-.604.289.722.253 1.58-.0790 1.92-.332.332-.569-.258-.525-1.31zm-1-4c.0480-1.16.285-1.4.604-.604.289.722.253 1.58-.0790 1.92-.332.332-.569-.258-.525-1.31zm136-4c.048-1.16.285-1.4.604-.604.289.722.253 1.58-.0789 1.92-.332.332-.569-.258-.525-1.31zm-134-8c.722-.289 1.58-.253 1.92.0789.332.332-.258.569-1.31.525-1.16-.048-1.4-.285-.604-.604zm125-1c.722-.289 1.58-.253 1.92.0789.332.332-.258.569-1.31.525-1.16-.048-1.4-.285-.604-.604zm-107-3c.722-.289 1.58-.253 1.92.0789.332.332-.258.569-1.31.525-1.16-.048-1.4-.285-.604-.604zm93 0c.722-.289 1.58-.253 1.92.0789.332.332-.258.569-1.31.525-1.16-.048-1.4-.285-.604-.604zm-51.5-12c-9.83-2.64-20.3-11.2-26.3-21.4-5.58-9.56-4.8-9.9 3.59-1.57 9.98 9.91 18.3 14.6 27.7 15.7l6.5.744-7-.286c-8.19-.334-14.4-3.05-21.8-9.56-6.95-6.13-5.8-3.35 1.52 3.68 8.52 8.18 13.5 10.6 21.7 10.7 8.54.0532 15.3-3.4 23.8-12.1 6.3-6.51 8.65-10.7 3.45-6.21-1.54 1.34-.888.523 1.45-1.82 2.33-2.34 4.94-5.25 5.8-6.47 2.84-4.06 1.67.491-1.61 6.23-6.38 11.2-19.9 21.7-29.8 23.3-1.92.307-5.96-.102-8.97-.909zm-22-20c0-.208-.788-.995-1.75-1.75-1.59-1.24-1.62-1.21-.378.378 1.31 1.67 2.13 2.2 2.13 1.37zm36.9 11.8c1.85-.803 3.65-1.44 4-1.43 1.3.0726-4.42 2.89-5.86 2.89-.825-.002.0142-.661 1.86-1.46zm5.64-2.12c2.56-2.42 8.83-6.51 7.32-4.77-.926 1.06-3.18 2.79-5 3.83s-2.87 1.47-2.32.945zm-49.5-41c-2.36-.862-6-4.5-6-6 0-.746-.788-1.66-1.75-2.03-2.48-.951-5.27-4.53-4.73-6.07.252-.716.0061-1.02-.547-.680-1.3 1.1-5-6.9-4.8-10.2.0896-1.96.201-2.07.517-.5.347 1.72 5.11 5.05 5.98 4.17.168-.168-.585-3.42-1.67-7.22-2.8-9.7-3.5-18.2-2-24.5l1.27-5.29 2.31 4.42 2.31 4.42.0689-5c.0739-5.36 3.24-14.2 6.96-19.4 1.25-1.76 2.08-3.4 1.84-3.64-.774-.774-4.62 3.95-7.81 9.58-3.01 5.32-3.2 3.38-.240-2.44 1.81-3.55 9.93-12.4 12.7-13.8 1.49-.771 1.25-.212-.899 2.08-2.59 2.76-2.91 3.76-2.68 8.38.307 6.05 1.56 8.11 2.54 4.19.373-1.49 1.78-4.32 3.13-6.31l2.45-3.6.0701 4.48.0701 4.48 1.8-5.29c2.65-7.77 2.83-7.76 4.36.288.323 1.69.563 1.54 1.55-1 2.94-7.53 2.67-7.31 4.61-3.57l1.77 3.42 1.28-3.05c.704-1.68 3.12-4.52 5.36-6.33 2.25-1.8 4.37-4.17 4.71-5.26 1.08-3.41 2.38.183 2.39 6.66.0133 5.11.211 5.71 1.52 4.63.826-.685 2.36-4 3.41-7.37l2-6.2 2 4.5c1.14 2.48 2.11 5.62 2.16 7 .0507 1.38.459 3.4.907 4.5.877 2.15.699 2.57 2.95-6.97.654-2.77.962-2.36 4.65 6.23 2.17 5.06 4.26 9.2 4.65 9.22.385.0126.835-2.53 1-5.65l0.3-5.68 2.92 4.22c1.6 2.32 3.49 6.34 4.18 8.93 1.16 4.3 1.27 4.43 1.33 1.46.0371-1.79.418-3.25.846-3.25.866 0 5.05 14.8 5.51 19.5.272 2.76.422 2.6 1.84-1.95l1.55-4.95.680 6.64c.374 3.65.443 8.58.152 11l1 4.3 1.46-3c1.29-2.64 1.47-2.73 1.51-.788.0248 1.22-.813 4.59-1.86 7.5s-2.21 7.06-2.58 9.23c-.588 3.44-.482 3.78.834 2.69 1.25-1.03 1.18-.171-.374 4.97-2.3 7.58-1.13 6.62 1.92-1.58 1.38-3.72 1.83-6.11 1.18-6.33-.706-.235-.724-.951-.0562-2.2 2.26-4.22 4.09-15.3 3.42-20.7-.423-3.38-.988-4.97-1.49-4.16-.570.922-.952.588-1.31-1.15-3-15.6-4-18.9-5-12.4l-.120 4-1.3-4.72c-1.5-5.44-5.37-12.4-8.42-15.2-2.49-2.26-2.66-1.56-.578 2.46 1 1.6 1 2.9 1 2.9-.275 0-1.15-1.26-1.95-2.81-1-3-7-9.2-9-9.2-.418 0-.107 1.56.690 3.47 2.11 5.06 1.69 5.66-.731 1.03-1.15-2.2-3.43-5.8-5.06-8l-2.97-4 3.09 3.25c1.7 1.79 3.62 3.25 4.26 3.25.643 0 2.67 1.15 4.51 2.55s3.34 2.22 3.34 1.81c0-1.63 6.38 5.45 8.99 9.98 1.71 2.98 2.99 4.32 3.32 3.5.867-2.16 2.41.794 4.37 8.34.951 3.68 2.05 6.48 2.44 6.24 1.02-.628 2.89 8.81 2.85 14.4-.018 2.59-.844 7.05-1.84 9.92-.992 2.87-1.44 5.35-.997 5.5.444.153-.308 3.34-1.67 7.09-1.83 5.03-3.81 8.17-7.58 12l-5.1 5.19-9.77.340c-14 0-18-2-22-14.8-1-4.7-2-5.7-3-5.7-1.83 0-2.53 1-3.97 5.65-2.11 6.82-5.19 11.4-9.06 13.4-2.84 1.47-18.6 2.02-22 .779zm21.6-2.97c5.1-3.34 9.91-15.8 7.31-18.9-3.66-4.41-16.5-6.73-24.8-4.48-6.85 1.86-9.14 4.81-9.13 11.8.0046 7.19 2.51 11.8 7.21 13.2 4.35 1.32 16.5.323 19.4-1.6zm-18.2-9.2c-1.89-2.23-1.89-2.24.0968-.570 1.1.924 4.03 1.86 6.5 2.08l4.5.395-4.6.175c-3.67.139-4.98-.281-6.5-2.08zm-.968-6.5c2.47-2.74 3.58-3.22 7-3.08l4.06.168-4 .399c-2.51.251-5.12 1.4-7 3.08l-3 2.68zm16.6-.833c-1.68-.933-1.97-1.39-.872-1.4.895-.0081 2.19.660 2.87 1.49 1.46 1.76 1.31 1.75-2-.0833zm53 16.1c2.06-2.06 2.55-3.67 2.87-9.43.358-6.34.175-7.16-2.1-9.44-6.37-6.37-26.1-5.87-31.7.797-1.67 2.02-.0199 9.08 3.39 14.5 3.43 5.44 8.72 7.24 19 6.5 4.69-.337 6.53-.969 8.47-2.91zm-12-7.24c2.46-.217 5.16-.926 6-1.58 1.33-1.03 1.35-.960.147.569-.999 1.27-2.63 1.7-6 1.58l-4.63-.175zm-9.17-9.94c.722-.289 1.58-.253 1.92.0790.332.332-.258.569-1.31.525-1.16-.0480-1.4-.285-.604-.604zm6.44-1.01c.962-.252 2.54-.252 3.5 0 .962.252.175.457-1.75.457s-2.71-.206-1.75-.457zm-14-5.6c2.45-1.31 5.79-1.72 14.2-1.75 6.05-.0219 12.5 0.3 14.4.715l3.4.755-.664-8.75c-2-19.5-11-27.1-27-22.9-8 2-20.5 2-26.9.1-2.7-.8-6.8-1.5-9.2-1.5-3.76 0-4.87.583-9.27 4.86-5.55 5.4-6.9 8.92-8.04 20.9l-.694 7.26 3.55-.757c1.95-.417 8.5-.741 14.5-.721 8.37.0275 11.7.436 14 1.71 3.98 2.22 12.7 2.24 16.8.0437zm-60.6-4.5c-2-9.2-1.8-21.6.4-25.3.992-1.65 1.49-2.1 1.1-1-1.37 3.89-1.66 19.6-.479 25.6 1.59 8.08.715 8.62-1.05.646zm4.8-29.5c-.367-.367-.653-1.38-.636-2.25.0250-1.3.220-1.26 1.09.242 1.08 1.85.765 3.23-.455 2.01zm16.3-17c-.0432-1.77 7.01-9.35 8.08-8.69.490.303.859 1.31.821 2.24-.0627 1.51-.146 1.5-.776-.0971-.635-1.61-.967-1.51-3.3 1-1.4 1.4-3 3.6-3.6 4.7-.607 1.1-1.12 1.44-1.13.753zm12.2-7.8c.0204-1.65.244-2.2.498-1.23.254.973.237 2.32-.0370 3-.3.6-.5-.1-.5-1.8zm3.3-1.5c.995-1.1 2.03-2 2.31-2 .275 0-.314.9-1.31 2-.995 1.1-2.03 2-2.31 2-.275 0 .314-.9 1.31-2zm29.1-2.71c-.543-1.43-.428-1.54.560-.560.683.678.991 1.49.683 1.79-.308.308-.867-.247-1.24-1.23zm-19.4-2.7c1.43-1.68 3.34-4.17 4.25-5.53.908-1.36 1.65-1.97 1.65-1.35 0 .619-1.91 3.11-4.25 5.53s-3.08 3.03-1.65 1.35zm9.4-5.18c-.933-1.96-1.21-3.26-.618-2.89 1.15.711 3.25 5.51 2.66 6.1 0 .19-1-1.26-2-3.21z" fill="#58392b"/>
 <path d="m35.7 198c.0204-1.65.244-2.2.498-1.23.254.973.237 2.32-.0370 3-.3 0-.5-1-.5-2zm41.9-1.4c-3.54-4.48-14.1-22-14.1-23.4 0-.525 2.47 2.98 5.49 7.8 3.02 4.81 6.93 10.6 8.69 12.9 1.75 2.28 3.61 4.71 4.13 5.4.599.799.563 1.25-.101 1.25-.571 0-2.43-1.76-4.13-3.9zm16.3-1.14c.368-2.77 1.19-6.18 1.82-7.56 1.02-2.23.839-2.78-1.51-4.71l-2.6-4 2.3-2c1.25-1.38 3.24-3.33 4.41-4.35 2.09-1.81 2.2-1.79 5.61.802 4.82 3.68 5.34 5.59 2.18 8.1-2.78 2.21-2.78 1.82.0327 15.2.453 2.16.193 2.25-6.17 2.25h-6.65l.669-5.04zm33.9-8.69c5.07-7.64 9.38-13.8 9.57-13.7 1.21.826-15.4 26.4-17.6 27.1-.674.216 2.93-5.86 8-13.5zm37 10c-.007-2.81 2.52-13.3 2.64-11 .0413.825-.534 4.2-1.28 7.5-.745 3.3-1.36 4.88-1.36 3.5zm-130-5c0-1.38.227-1.94.504-1.25.277.688.277 1.81 0 2.5-.277.688-.504.125-.504-1.25zm-1.08-4.58c.0480-1.16.285-1.4.604-.604.289.722.253 1.58-.0790 1.92-.332.332-.569-.258-.525-1.31zm-1-4c.0480-1.16.285-1.4.604-.604.289.722.253 1.58-.0790 1.92-.332.332-.569-.258-.525-1.31zm136-4c.048-1.16.285-1.4.604-.604.289.722.253 1.58-.0789 1.92-.332.332-.569-.258-.525-1.31zm-134-8c.722-.289 1.58-.253 1.92.0789.332.332-.258.569-1.31.525-1.16-.048-1.4-.285-.604-.604zm125-1c.722-.289 1.58-.253 1.92.0789.332.332-.258.569-1.31.525-1.16-.048-1.4-.285-.604-.604zm-107-3c.722-.289 1.58-.253 1.92.0789.332.332-.258.569-1.31.525-1.16-.048-1.4-.285-.604-.604zm93 0c.722-.289 1.58-.253 1.92.0789.332.332-.258.569-1.31.525-1.16-.048-1.4-.285-.604-.604zm-71.1-24l-1.9-2.25 2.25 1.9c2.2 1 2.8 2 2 2-.190 0-1.2-1.01-2.25-2.25zm-10.4-39c-3.32-1.65-6.27-7.92-6.81-14.5-.242-2.92-.833-5.55-1.31-5.84-.481-.297-.875-1.38-.875-2.4 0-1.35 1.45-2.37 5.25-3.69 7.26-2.53 25.8-2.57 30.5-.0624 4.09 2.21 14.3 2.31 18.4.180 4.17-2.16 18.3-3.01 25-1.51 10.7 2.39 12.2 3.64 9.96 7.83-.523.955-1.23 4.3-1.57 7.44-.706 6.55-3.8 11.9-7.49 12.9-4.58 1.28-17.9.946-21.5-.530-3.93-1.64-9.03-9.64-10.1-15.8-1-3.6-1-4-3-4-2.49 0-2.9.448-3.47 3.81-1.01 5.97-5.89 13.7-9.87 15.5-4.2 2-18.9 2.24-22.7.370zm22.8-2.4c3.49-2.58 6.94-8.78 7.77-14 .546-3.42.295-4.42-1.54-6.12-6.51-6.07-26.5-5.36-31.9 1.13-1.78 2.15-1.82 11.5-.0789 15.7 1.9 4.58 5.9 6.05 15.3 5.62 5.82-.269 8.48-.866 10.5-2.36zm47.1 1.57c4.29-1.5 6.12-5.43 6.12-13.2 0-5.05-.406-6.76-1.93-8.14-6.42-5.81-25-6.01-31.1-.325-1.81 1.69-2.08 2.72-1.56 5.99 1.25 7.82 5.72 14.1 11.2 15.7 4.16 1.25 13.6 1.2 17.2-.0802zm-86.4-35.6c.0480-1.16.285-1.4.604-.604.289.722.253 1.58-.0790 1.92-.332.332-.569-.258-.525-1.31zm105-4.4c0-3.02.187-4.26.417-2.75.229 1.51.229 3.99 0 5.5s-.417.275-.417-2.75zm-106-5c0-3.02.187-4.26.417-2.75.229 1.51.229 3.99 0 5.5s-.417.275-.417-2.75zm.779-7.58c.0480-1.16.285-1.4.604-.604.289.722.253 1.58-.0790 1.92-.332.332-.569-.258-.525-1.31zm12.7-21.9c1.14-1.65 3.56-4.35 5.38-6 2.45-2.22 2.17-1.69-1.06 2-5.9 6.74-6.77 7.54-4.32 4z" fill="#260a16"/>
</svg>
