<!DOCTYPE svg PUBLIC "-//W3C//DTD SVG 20010904//EN" "http://www.w3.org/TR/2001/REC-SVG-20010904/DTD/svg10.dtd">
<svg version="1.0" xmlns="http://www.w3.org/2000/svg" width="200px" height="200px" viewBox="0 0 2000 2000" preserveAspectRatio="xMidYMid meet">
<g id="layer101" fill="#edeaef" stroke="none">
 <path d="M143 1955 c15 -105 103 -220 189 -246 59 -17 219 -49 250 -49 40 0 102 -38 117 -71 7 -15 25 -44 42 -65 35 -45 36 -54 4 -84 -36 -33 -103 -140 -110 -175 -17 -76 -24 -90 -51 -91 -37 -3 -60 -29 -73 -82 -7 -26 -27 -72 -45 -102 -19 -30 -37 -76 -40 -102 -6 -41 -4 -50 16 -70 13 -13 21 -29 20 -37 -2 -8 1 -17 7 -20 7 -5 7 -19 -1 -46 -6 -22 -11 -78 -11 -125 0 -72 4 -93 26 -137 15 -29 33 -56 40 -60 8 -4 24 -30 38 -56 29 -60 152 -180 157 -154 3 15 8 14 35 -9 19 -16 33 -22 35 -15 3 9 7 9 18 0 11 -9 14 -8 14 7 1 15 9 10 35 -21 25 -28 35 -35 35 -22 0 9 4 17 9 17 14 0 70 -68 89 -106 19 -41 29 -42 44 -9 6 14 20 25 30 25 10 0 30 11 44 25 14 14 29 25 34 25 6 0 27 15 47 34 35 31 93 66 110 67 14 0 75 64 103 107 17 25 30 38 33 30 6 -17 45 66 53 114 4 21 10 35 14 33 10 -6 40 120 40 163 0 16 -6 49 -13 73 -16 51 -12 67 20 92 17 14 23 28 23 58 0 42 -21 102 -45 129 -7 8 -23 45 -35 82 -23 73 -37 89 -75 92 -25 1 -33 15 -50 90 -8 36 -62 122 -111 176 -27 29 -35 45 -28 55 99 135 129 158 225 168 30 4 99 18 153 31 90 23 101 29 151 77 56 54 88 114 100 187 l7 42 -862 0 -863 0 6 -45z"/>
 </g>
<g id="layer102" fill="#e0dbe4" stroke="none">
 <path d="M143 1955 c15 -105 103 -220 189 -246 59 -17 219 -49 250 -49 40 0 102 -38 117 -71 7 -15 25 -44 42 -65 35 -45 36 -54 4 -84 -36 -33 -103 -140 -110 -175 -17 -76 -24 -90 -51 -91 -37 -3 -60 -29 -73 -82 -7 -26 -27 -72 -45 -102 -19 -30 -37 -76 -40 -102 -6 -41 -4 -50 16 -70 13 -13 21 -29 20 -37 -2 -8 1 -17 7 -20 7 -5 7 -19 -1 -46 -6 -22 -11 -78 -11 -125 0 -72 4 -93 26 -137 15 -29 33 -56 40 -60 8 -4 24 -30 38 -56 29 -60 152 -180 157 -154 3 15 8 14 35 -9 19 -16 33 -22 35 -15 3 9 7 9 18 0 11 -9 14 -8 14 7 1 15 9 10 35 -21 25 -28 35 -35 35 -22 0 9 4 17 9 17 14 0 70 -68 89 -106 19 -41 29 -42 44 -9 6 14 20 25 30 25 10 0 30 11 44 25 14 14 29 25 34 25 6 0 27 15 47 34 35 31 93 66 110 67 14 0 75 64 103 107 17 25 30 38 33 30 6 -17 45 66 53 114 4 21 10 35 14 33 10 -6 40 120 40 163 0 16 -6 49 -13 73 -16 51 -12 67 20 92 17 14 23 28 23 58 0 42 -21 102 -45 129 -7 8 -23 45 -35 82 -23 73 -37 89 -75 92 -25 1 -33 15 -50 90 -8 36 -62 122 -111 176 -27 29 -35 45 -28 55 99 135 129 158 225 168 30 4 99 18 153 31 90 23 101 29 151 77 56 54 88 114 100 187 9 57 -9 55 -24 -4 -22 -88 -86 -184 -122 -184 -4 0 -20 52 -34 115 l-27 115 -236 0 -237 0 -1 -29 c-1 -28 -71 -161 -85 -161 -4 0 -17 9 -30 19 -23 18 -23 21 -11 78 20 96 22 93 -58 93 -50 0 -70 -4 -70 -12 1 -21 28 -130 34 -136 3 -3 -6 -13 -22 -22 -27 -17 -27 -16 -50 17 -34 50 -64 122 -58 139 5 12 -31 14 -235 14 -183 0 -240 -3 -243 -12 -2 -7 -11 -53 -20 -102 -10 -49 -22 -98 -27 -108 -10 -18 -11 -18 -39 2 -33 24 -88 126 -96 182 -9 55 -28 48 -21 -7z m606 -165 c-28 -85 -53 -157 -54 -159 -7 -6 -75 40 -75 52 0 6 6 18 14 26 8 9 22 32 32 51 24 45 126 192 130 187 2 -2 -19 -73 -47 -157z m542 35 c50 -75 89 -140 89 -149 0 -4 -68 -46 -75 -46 -2 0 -6 19 -10 43 -4 23 -24 87 -45 142 -21 55 -42 109 -46 120 -10 27 17 -7 87 -110z m-365 -61 l43 -44 -52 -29 c-29 -16 -65 -37 -80 -45 -32 -18 -57 -70 -57 -118 l0 -33 -20 25 c-11 14 -27 39 -36 57 -18 31 -17 33 37 195 l54 164 34 -64 c19 -35 54 -84 77 -108z m345 -54 c11 -35 19 -75 19 -88 0 -22 -47 -101 -60 -102 -3 0 -7 15 -8 33 -3 48 -30 78 -108 119 -38 21 -73 39 -79 41 -5 2 13 28 40 58 28 30 64 79 80 110 l29 57 34 -82 c19 -44 43 -110 53 -146z"/>
 </g>
<g id="layer103" fill="#d3cbd8" stroke="none">
 <path d="M145 1955 c15 -108 100 -220 187 -246 59 -18 220 -49 250 -49 17 0 46 -10 65 -21 19 -12 36 -19 39 -16 3 2 -11 14 -31 25 -40 24 -43 37 -15 72 11 14 20 28 20 32 0 10 128 198 153 226 l21 22 -244 -2 -244 -3 -12 -70 c-15 -90 -32 -153 -43 -160 -28 -17 -131 132 -131 190 0 11 -5 27 -11 35 -8 11 -9 1 -4 -35z"/>
 <path d="M920 1988 c1 -20 28 -129 34 -135 3 -3 -6 -14 -20 -25 -21 -17 -27 -18 -42 -6 -16 12 -16 11 -3 -7 8 -11 30 -36 49 -57 l34 -36 -38 -25 c-22 -13 -58 -34 -81 -45 -50 -26 -54 -32 -69 -102 l-11 -55 -31 49 c-18 28 -32 61 -33 75 0 25 -1 25 -11 5 -8 -17 -4 -30 19 -64 63 -95 61 -84 23 -127 -48 -52 -97 -132 -105 -168 -17 -76 -24 -90 -51 -91 -37 -3 -60 -29 -73 -82 -7 -26 -27 -72 -45 -102 -19 -30 -37 -76 -40 -102 -6 -41 -4 -50 16 -70 13 -13 21 -29 20 -37 -2 -8 1 -17 7 -20 7 -5 7 -19 -1 -46 -6 -22 -11 -78 -11 -125 0 -72 4 -93 26 -137 15 -29 33 -56 40 -60 8 -4 24 -30 38 -56 29 -60 152 -180 157 -154 3 15 8 14 35 -9 19 -16 33 -22 35 -15 3 9 7 9 18 0 11 -9 14 -8 14 7 1 15 9 10 35 -21 25 -28 35 -35 35 -22 0 9 4 17 9 17 14 0 70 -68 89 -106 19 -41 29 -42 44 -9 6 14 20 25 30 25 10 0 30 11 44 25 14 14 29 25 34 25 6 0 27 15 47 34 37 32 98 69 107 64 9 -5 79 67 106 110 17 25 30 38 33 30 6 -17 45 66 53 114 4 21 10 35 14 33 10 -6 40 120 40 163 0 16 -6 49 -13 73 -16 51 -12 67 20 92 17 14 23 28 23 58 0 42 -21 102 -45 129 -7 8 -23 45 -35 82 -23 73 -37 89 -75 92 -25 1 -33 14 -50 91 -8 35 -82 149 -119 184 -31 29 -32 38 -8 65 16 20 16 20 0 7 -16 -12 -18 -10 -18 18 0 57 -25 88 -103 127 -101 51 -102 51 -67 81 16 13 40 39 52 56 20 29 20 30 2 15 -20 -17 -21 -17 -44 7 -22 24 -23 28 -12 89 7 35 12 68 12 75 0 7 -24 11 -70 11 -50 0 -70 -4 -70 -12z"/>
 <path d="M1177 1989 c9 -9 3 -29 -23 -80 -19 -38 -32 -69 -29 -69 2 0 19 28 36 62 l31 62 25 -29 c51 -63 163 -240 163 -259 0 -3 -18 -17 -39 -32 -22 -14 -42 -33 -46 -42 -5 -12 0 -11 17 5 36 32 78 50 139 56 30 4 99 18 153 31 90 23 101 29 151 77 30 29 62 72 73 98 25 59 38 131 23 131 -6 0 -11 -9 -11 -20 0 -42 -45 -136 -86 -179 l-42 -45 -16 38 c-9 21 -16 46 -16 56 0 9 -4 30 -9 46 -5 16 -12 46 -16 67 l-6 37 -241 0 c-181 0 -239 -3 -231 -11z"/>
 <path d="M1211 1888 c-1 -12 31 -89 35 -85 3 2 -4 24 -15 48 -11 24 -20 41 -20 37z"/>
 <path d="M751 1789 c-12 -35 -21 -68 -20 -73 0 -6 11 20 25 58 13 38 22 71 20 73 -2 2 -13 -24 -25 -58z"/>
 </g>
<g id="layer104" fill="#dfb6aa" stroke="none">
 <path d="M340 1943 c-6 -32 -19 -87 -29 -123 -10 -36 -20 -72 -22 -79 -5 -18 42 -35 170 -62 144 -30 139 -31 190 59 24 42 73 117 108 165 34 48 63 90 63 92 0 3 -105 5 -234 5 l-235 0 -11 -57z"/>
 <path d="M927 1963 c3 -21 11 -56 17 -78 11 -37 10 -41 -14 -62 l-25 -22 38 -39 39 -40 -34 -25 c-18 -13 -49 -32 -68 -42 -19 -10 -43 -25 -53 -34 -24 -20 -47 -76 -47 -112 0 -18 -13 -43 -37 -71 -52 -60 -100 -137 -108 -173 -17 -76 -24 -90 -51 -91 -37 -3 -60 -29 -73 -82 -7 -26 -27 -72 -45 -102 -19 -30 -37 -76 -40 -102 -6 -41 -4 -50 16 -70 13 -13 21 -29 20 -37 -2 -8 1 -17 7 -20 7 -5 7 -19 -1 -46 -6 -22 -11 -78 -11 -125 0 -72 4 -93 26 -137 15 -29 33 -56 40 -60 8 -4 24 -30 38 -56 29 -60 152 -180 157 -154 3 15 8 14 35 -9 19 -16 33 -22 35 -15 3 9 7 9 18 0 11 -9 14 -8 14 7 1 15 9 10 35 -21 25 -28 35 -35 35 -22 0 9 4 17 9 17 14 0 70 -68 89 -106 19 -41 29 -42 44 -9 6 14 20 25 30 25 10 0 30 11 44 25 14 14 29 25 34 25 6 0 27 15 47 34 37 32 98 69 107 64 9 -5 79 67 106 110 17 25 30 38 33 30 6 -17 45 66 53 114 4 21 10 35 14 33 10 -6 40 120 40 163 0 16 -6 49 -13 73 -16 51 -12 67 20 92 17 14 23 28 23 58 0 42 -21 102 -45 129 -7 8 -23 45 -35 82 -23 73 -37 89 -75 92 -25 1 -33 14 -50 91 -8 35 -82 149 -119 184 -20 19 -26 34 -26 65 0 71 -26 106 -108 146 -101 51 -102 53 -64 93 38 39 39 44 10 74 -20 22 -21 27 -10 87 7 35 12 68 12 75 0 7 -24 11 -69 11 l-70 0 6 -37z"/>
 <path d="M1203 1958 c45 -56 126 -180 162 -245 25 -46 32 -53 59 -53 34 0 225 42 268 59 27 10 27 11 12 46 -14 34 -35 121 -48 198 l-7 37 -240 0 -240 0 34 -42z"/>
 </g>
<g id="layer105" fill="#d9a697" stroke="none">
 <path d="M340 1943 c-6 -32 -19 -87 -29 -123 -10 -36 -20 -72 -22 -79 -5 -18 42 -35 170 -62 144 -30 139 -31 190 59 24 42 73 117 108 165 34 48 63 90 63 92 0 3 -105 5 -234 5 l-235 0 -11 -57z"/>
 <path d="M927 1963 c3 -21 11 -56 17 -78 11 -37 10 -41 -14 -62 l-25 -22 38 -39 39 -40 -34 -25 c-18 -13 -49 -32 -68 -42 -19 -10 -43 -25 -53 -34 -24 -20 -47 -76 -47 -112 0 -18 -13 -43 -37 -71 -52 -60 -100 -137 -108 -173 -17 -76 -24 -90 -51 -91 -37 -3 -60 -29 -73 -82 -7 -26 -27 -72 -45 -102 -19 -30 -37 -76 -40 -102 -6 -41 -4 -50 16 -70 13 -13 21 -29 20 -37 -2 -8 1 -17 7 -20 7 -5 7 -19 -1 -46 -6 -22 -11 -78 -11 -125 0 -72 4 -93 26 -137 15 -29 33 -56 40 -60 8 -4 24 -30 38 -56 29 -60 152 -180 157 -154 3 15 8 14 35 -9 19 -16 33 -22 35 -15 3 9 7 9 18 0 11 -9 14 -8 14 7 1 15 9 10 35 -21 25 -28 35 -35 35 -22 0 9 4 17 9 17 14 0 70 -68 89 -106 19 -41 29 -42 44 -9 6 14 20 25 30 25 10 0 30 11 44 25 14 14 29 25 34 25 6 0 27 15 47 34 37 32 98 69 107 64 9 -5 79 67 106 110 17 25 30 38 33 30 6 -17 45 66 53 114 4 21 10 35 14 33 10 -6 40 120 40 163 0 16 -6 49 -13 73 -16 51 -12 67 20 92 17 14 23 28 23 58 0 42 -21 102 -45 129 -7 8 -23 45 -35 82 -23 73 -37 89 -75 92 -25 1 -33 14 -50 91 -8 35 -82 149 -119 184 -20 19 -26 34 -26 65 0 71 -26 106 -108 146 -101 51 -102 53 -64 93 38 39 39 44 10 74 -20 22 -21 27 -10 87 7 35 12 68 12 75 0 7 -24 11 -69 11 l-70 0 6 -37z m-137 -948 c9 6 70 -17 70 -26 0 -3 -18 -3 -39 1 -48 9 -75 -3 -38 -16 24 -8 25 -11 12 -39 l-13 -30 -11 28 c-8 21 -17 27 -41 27 -20 0 -30 -5 -30 -15 0 -8 6 -15 13 -15 7 0 21 -14 31 -31 15 -26 16 -33 5 -40 -7 -4 -16 -5 -19 -1 -3 4 -14 9 -25 10 -11 2 -25 8 -30 12 -6 5 -21 8 -33 7 -17 -1 -22 -8 -22 -29 0 -17 5 -28 14 -28 8 0 16 -7 20 -15 9 -24 -31 0 -45 27 -14 26 -6 107 15 145 8 15 15 24 16 20 0 -5 6 -2 14 6 11 11 27 12 72 6 32 -4 61 -6 64 -4z m484 -11 c37 -6 46 -10 41 -23 -3 -8 -3 -12 1 -9 16 16 44 -13 43 -45 -1 -43 -14 -82 -25 -81 -5 1 -18 -7 -28 -17 -17 -17 -18 -19 -3 -19 20 0 23 -16 4 -23 -38 -14 -124 -16 -152 -3 l-30 13 27 8 c14 3 28 15 31 26 7 25 27 25 27 -1 0 -16 7 -20 35 -20 41 0 45 11 11 30 -37 19 -38 34 -5 69 16 18 29 34 29 37 0 2 -15 4 -34 4 -26 0 -35 -5 -39 -21 -6 -22 -27 -18 -27 6 0 7 -11 16 -25 19 -32 8 -23 30 18 44 41 13 45 13 101 6z m-145 -74 c32 -27 41 -49 30 -73 -25 -56 -76 -32 -64 31 10 61 17 79 23 62 3 -8 8 -17 11 -20z m-235 -5 c9 -9 20 -34 26 -56 10 -35 9 -44 -6 -60 -9 -10 -27 -19 -38 -18 -12 0 -15 3 -8 6 10 4 8 9 -5 22 -10 9 -26 26 -36 37 -17 21 -17 22 8 53 30 35 37 37 59 16z"/>
 <path d="M1203 1958 c45 -56 126 -180 162 -245 25 -46 32 -53 59 -53 34 0 225 42 268 59 27 10 27 11 12 46 -14 34 -35 121 -48 198 l-7 37 -240 0 -240 0 34 -42z"/>
 </g>
<g id="layer106" fill="#c98976" stroke="none">
 <path d="M340 1943 c-6 -32 -19 -87 -29 -123 -10 -36 -20 -72 -22 -79 -5 -18 42 -35 170 -62 144 -30 139 -31 190 59 24 42 73 117 108 165 34 48 63 90 63 92 0 3 -105 5 -234 5 l-235 0 -11 -57z"/>
 <path d="M927 1963 c3 -21 11 -56 17 -78 11 -37 10 -41 -14 -62 l-25 -22 40 -40 c21 -23 45 -41 52 -41 16 0 83 59 83 73 0 6 -10 21 -22 34 -20 22 -21 27 -10 87 7 35 12 68 12 75 0 7 -24 11 -69 11 l-70 0 6 -37z"/>
 <path d="M1203 1958 c45 -56 126 -180 162 -245 25 -46 32 -53 59 -53 34 0 225 42 268 59 27 10 27 11 12 46 -14 34 -35 121 -48 198 l-7 37 -240 0 -240 0 34 -42z"/>
 <path d="M938 1611 c-15 -5 -54 -24 -87 -42 -46 -25 -62 -40 -67 -62 -3 -15 -22 -47 -42 -70 -51 -59 -99 -136 -107 -172 -17 -76 -24 -90 -51 -91 -37 -3 -60 -29 -73 -82 -7 -26 -27 -72 -45 -102 -19 -30 -37 -76 -40 -102 -6 -41 -4 -50 16 -70 13 -13 21 -29 20 -37 -2 -8 1 -17 7 -20 7 -5 7 -19 -1 -46 -6 -22 -11 -78 -11 -125 0 -72 4 -93 26 -137 15 -29 33 -56 40 -60 8 -4 24 -30 38 -56 29 -60 152 -180 157 -154 3 15 8 14 35 -9 19 -16 33 -22 35 -15 3 9 7 9 18 0 11 -9 14 -8 14 7 1 15 9 10 35 -21 25 -28 35 -35 35 -22 0 9 4 17 9 17 14 0 70 -68 89 -106 19 -41 29 -42 44 -9 6 14 20 25 30 25 10 0 30 11 44 25 14 14 29 25 34 25 6 0 27 15 47 34 37 32 98 69 107 64 9 -5 79 67 106 110 17 25 30 38 33 30 6 -17 45 66 53 114 4 21 10 35 14 33 10 -6 40 120 40 163 0 16 -6 49 -13 73 -16 51 -12 67 20 92 17 14 23 28 23 58 0 42 -21 102 -45 129 -7 8 -23 45 -35 82 -23 73 -37 89 -75 92 -25 1 -33 14 -50 91 -8 35 -82 149 -119 184 -19 18 -26 34 -26 63 0 22 -4 37 -9 33 -5 -3 -39 11 -75 30 -69 38 -147 52 -198 36z m187 -166 c55 -26 183 -135 208 -175 8 -14 29 -77 47 -140 18 -63 35 -122 38 -130 3 -8 -5 -2 -19 13 -27 32 -77 46 -161 47 -65 0 -103 -12 -136 -43 -28 -26 -67 -99 -77 -145 -11 -51 -36 -37 -61 32 -41 116 -96 156 -214 156 -75 0 -125 -16 -150 -47 -27 -34 -26 -29 20 122 l39 130 79 75 c72 68 96 85 172 118 63 28 142 23 215 -13z m-528 -322 c-4 -21 -11 -39 -17 -41 -5 -2 -20 -13 -32 -24 -13 -11 -16 -16 -8 -12 33 18 38 13 28 -25 -13 -47 -22 -55 -16 -14 2 18 0 29 -5 26 -5 -3 -7 -23 -4 -44 3 -22 1 -37 -4 -33 -5 3 -9 21 -9 40 0 25 -4 33 -12 28 -7 -4 -2 9 10 30 12 20 18 34 12 31 -20 -13 -9 27 15 50 35 36 49 32 42 -12z m843 19 c13 -11 22 -31 24 -53 2 -20 6 -40 9 -46 3 -5 0 -10 -8 -10 -8 0 -11 5 -8 10 3 6 2 7 -4 4 -5 -3 -7 -21 -5 -39 5 -32 6 -32 13 -8 l7 25 1 -25 c2 -51 -16 -53 -30 -3 -13 47 -12 61 4 56 4 -2 7 1 7 6 0 5 -9 12 -19 16 -18 6 -31 32 -31 68 0 22 12 22 40 -1z m-593 -123 c34 -13 61 -48 78 -104 24 -74 18 -96 -30 -119 -29 -15 -61 -20 -120 -20 -148 0 -200 58 -165 185 6 20 17 42 24 48 33 27 151 33 213 10z m484 0 c45 -11 59 -40 59 -123 0 -82 -19 -101 -116 -116 -76 -12 -149 -2 -191 26 -54 34 -7 176 67 207 65 26 101 27 181 6z m180 -93 c14 -16 11 -78 -3 -73 -8 2 -12 20 -12 43 1 21 0 31 -3 21 -2 -9 -8 -15 -13 -12 -4 3 -3 19 3 36 9 24 13 27 15 13 2 -11 8 -23 13 -28z m-992 -9 c1 -5 -3 -5 -9 -2 -5 3 -10 16 -9 28 0 21 1 21 9 2 5 -11 9 -24 9 -28z m-19 -24 c0 -12 -4 -25 -10 -28 -6 -4 -10 11 -10 37 0 31 3 39 10 28 5 -8 10 -25 10 -37z m575 -121 c17 -10 18 -13 5 -21 -11 -8 -9 -12 13 -20 48 -18 139 -13 222 14 43 13 79 24 80 22 1 -1 -1 -36 -5 -77 -12 -120 -25 -153 -76 -200 l-46 -42 -66 6 c-37 3 -89 9 -117 13 -46 7 -99 5 -277 -13 -63 -6 -70 -5 -98 20 -76 63 -88 93 -104 242 l-5 52 47 -13 c26 -8 65 -19 86 -25 50 -15 171 -9 188 9 11 11 7 12 -24 9 -20 -2 -34 0 -32 4 3 4 13 8 23 8 9 0 25 6 35 13 22 16 124 15 151 -1z"/>
 <path d="M895 1321 c-12 -20 38 -33 111 -29 75 3 91 9 79 27 -8 14 -182 15 -190 2z"/>
 <path d="M956 1181 c-43 -26 -45 -48 -13 -156 18 -60 21 -41 6 38 -12 68 2 108 41 117 19 4 21 7 9 12 -8 3 -28 -1 -43 -11z"/>
 <path d="M729 918 c17 -17 31 -36 31 -42 0 -5 -12 -23 -27 -38 -27 -28 -27 -28 -4 -28 13 0 31 10 41 22 l17 22 14 -22 c8 -13 24 -22 38 -22 l25 0 -27 28 c-33 34 -33 37 -1 79 l25 33 -24 0 c-15 0 -28 -9 -37 -25 -10 -19 -16 -22 -27 -14 -7 6 -13 18 -13 25 0 9 -11 14 -31 14 l-31 0 31 -32z"/>
 <path d="M1149 913 l30 -36 -26 -34 -25 -33 25 0 c16 0 26 7 30 20 3 11 10 20 15 20 6 0 14 -9 17 -20 4 -13 15 -20 32 -20 l25 0 -26 31 c-32 38 -32 40 -1 69 14 13 25 27 25 32 0 4 -11 8 -25 8 -15 0 -25 -6 -25 -14 0 -7 -6 -19 -13 -25 -11 -8 -17 -5 -27 14 -9 16 -22 25 -37 25 l-24 0 30 -37z"/>
 </g>
<g id="layer107" fill="#b37969" stroke="none">
 <path d="M340 1943 c-6 -32 -19 -87 -29 -123 -10 -36 -20 -72 -22 -79 -5 -18 42 -35 170 -62 144 -30 139 -31 190 59 24 42 73 117 108 165 34 48 63 90 63 92 0 3 -105 5 -234 5 l-235 0 -11 -57z"/>
 <path d="M927 1963 c3 -21 11 -56 17 -78 11 -37 10 -41 -14 -62 l-25 -22 40 -40 c21 -23 45 -41 52 -41 16 0 83 59 83 73 0 6 -10 21 -22 34 -20 22 -21 27 -10 87 7 35 12 68 12 75 0 7 -24 11 -69 11 l-70 0 6 -37z"/>
 <path d="M1203 1958 c45 -56 126 -180 162 -245 25 -46 32 -53 59 -53 34 0 225 42 268 59 27 10 27 11 12 46 -14 34 -35 121 -48 198 l-7 37 -240 0 -240 0 34 -42z"/>
 <path d="M917 1550 c-31 -10 -73 -30 -92 -44 -31 -24 -35 -25 -35 -9 -1 12 -5 8 -14 -12 -7 -16 -23 -38 -34 -49 -32 -28 -100 -137 -107 -171 -17 -76 -24 -90 -51 -91 -37 -3 -60 -29 -73 -82 -7 -26 -27 -72 -45 -102 -19 -30 -37 -76 -40 -102 -6 -41 -4 -50 16 -70 13 -13 21 -29 20 -37 -2 -8 1 -17 7 -20 7 -5 7 -19 -1 -46 -6 -22 -11 -78 -11 -125 0 -72 4 -93 26 -137 15 -29 33 -56 40 -60 8 -4 24 -30 38 -56 29 -60 152 -180 157 -154 3 15 8 14 35 -9 19 -16 33 -22 35 -15 3 9 7 9 18 0 11 -9 14 -8 14 7 1 15 9 10 35 -21 25 -28 35 -35 35 -22 0 9 4 17 9 17 14 0 70 -68 89 -106 19 -41 29 -42 44 -9 6 14 20 25 30 25 10 0 30 11 44 25 14 14 29 25 34 25 6 0 27 15 47 34 37 32 98 69 107 64 9 -5 79 67 106 110 17 25 30 38 33 30 6 -17 45 66 53 114 4 21 10 35 14 33 10 -6 40 120 40 163 0 16 -6 49 -13 73 -16 51 -12 67 20 92 17 14 23 28 23 58 0 42 -21 102 -45 129 -7 8 -23 45 -35 82 -23 73 -37 89 -75 92 -25 1 -33 14 -50 91 -8 35 -82 149 -119 184 -19 18 -26 35 -27 65 l-2 41 -6 -40 c-4 -26 -9 -36 -14 -27 -19 29 -147 82 -197 81 -14 0 -51 -8 -83 -19z m159 -85 c60 -18 126 -63 209 -144 59 -58 64 -66 89 -154 14 -50 33 -114 41 -142 l16 -50 -28 33 c-32 37 -76 51 -165 52 -65 0 -103 -12 -136 -43 -28 -26 -67 -99 -77 -144 -11 -56 -39 -43 -60 27 -24 78 -73 136 -128 151 -57 15 -179 7 -212 -15 -14 -9 -30 -29 -36 -43 -5 -14 -12 -23 -15 -21 -3 3 14 70 38 148 l42 142 82 76 c133 126 226 161 340 127z m-466 -311 c0 -4 -14 -51 -31 -106 -30 -99 -49 -118 -49 -50 -1 32 -2 34 -11 18 -6 -10 -9 -37 -6 -59 4 -26 0 -51 -9 -69 -20 -39 -35 -26 -28 23 4 22 7 48 8 57 1 9 9 31 18 47 9 17 20 48 24 69 8 44 35 76 64 76 11 0 20 -3 20 -6z m833 -12 c10 -10 24 -43 33 -73 9 -30 27 -68 40 -86 26 -35 33 -58 8 -27 -14 17 -15 17 -10 1 3 -10 6 -41 6 -68 0 -40 3 -49 18 -49 16 -1 15 -2 -2 -15 -22 -16 -36 -11 -36 13 0 9 -6 29 -14 44 -11 21 -12 35 -4 62 8 26 8 42 0 58 -10 22 -11 21 -11 -9 -1 -42 -16 -50 -29 -15 -12 30 -52 166 -52 176 0 13 38 5 53 -12z m-596 -123 c34 -13 61 -48 78 -104 24 -74 18 -96 -30 -119 -29 -15 -61 -20 -120 -20 -148 0 -200 58 -165 185 6 20 17 42 24 48 33 27 151 33 213 10z m484 0 c45 -11 59 -40 59 -123 0 -82 -19 -101 -116 -116 -76 -12 -149 -2 -191 26 -54 34 -7 176 67 207 65 26 101 27 181 6z m228 -148 c1 -35 -5 -22 -12 24 -5 28 -4 34 3 20 5 -11 9 -31 9 -44z m-1093 -31 c9 0 12 -5 9 -10 -8 -13 -35 6 -34 24 0 7 2 6 6 -1 2 -7 11 -13 19 -13z m609 -68 c17 -10 18 -13 5 -21 -11 -8 -9 -12 13 -20 48 -18 139 -13 222 14 43 13 79 24 80 22 1 -1 -2 -44 -6 -95 -9 -107 -32 -157 -91 -198 -40 -28 -70 -29 -213 -7 -46 7 -99 5 -277 -13 -59 -5 -70 -4 -97 16 -69 49 -89 96 -105 246 l-5 52 47 -13 c26 -8 65 -19 86 -25 50 -15 171 -9 188 9 11 11 7 12 -24 9 -20 -2 -34 0 -32 4 3 4 13 8 23 8 9 0 25 6 35 13 22 16 124 15 151 -1z"/>
 <path d="M905 1320 c-36 -14 32 -32 107 -28 70 4 85 9 73 27 -7 13 -150 14 -180 1z"/>
 <path d="M949 1169 c-23 -19 -23 -20 -2 -10 12 6 25 16 28 21 10 16 -1 12 -26 -11z"/>
 <path d="M729 918 c17 -17 31 -36 31 -42 0 -5 -12 -23 -27 -38 -27 -28 -27 -28 -4 -28 13 0 31 10 41 22 l17 22 14 -22 c8 -13 24 -22 38 -22 l25 0 -27 28 c-33 34 -33 37 -1 79 l25 33 -24 0 c-15 0 -28 -9 -37 -25 -10 -19 -16 -22 -27 -14 -7 6 -13 18 -13 25 0 9 -11 14 -31 14 l-31 0 31 -32z"/>
 <path d="M1149 913 l30 -36 -26 -34 -25 -33 25 0 c16 0 26 7 30 20 3 11 10 20 15 20 6 0 14 -9 17 -20 4 -13 15 -20 32 -20 l25 0 -26 31 c-32 38 -32 40 -1 69 14 13 25 27 25 32 0 4 -11 8 -25 8 -15 0 -25 -6 -25 -14 0 -7 -6 -19 -13 -25 -11 -8 -17 -5 -27 14 -9 16 -22 25 -37 25 l-24 0 30 -37z"/>
 </g>
<g id="layer108" fill="#ab5a42" stroke="none">
 <path d="M340 1943 c-6 -32 -19 -87 -29 -123 -10 -36 -20 -72 -22 -79 -5 -18 42 -35 170 -62 144 -30 139 -31 190 59 24 42 73 117 108 165 34 48 63 90 63 92 0 3 -105 5 -234 5 l-235 0 -11 -57z"/>
 <path d="M927 1963 c3 -21 11 -56 17 -78 11 -37 10 -41 -14 -62 l-25 -22 40 -40 c21 -23 45 -41 52 -41 16 0 83 59 83 73 0 6 -10 21 -22 34 -20 22 -21 27 -10 87 7 35 12 68 12 75 0 7 -24 11 -69 11 l-70 0 6 -37z"/>
 <path d="M1203 1958 c45 -56 126 -180 162 -245 25 -46 32 -53 59 -53 34 0 225 42 268 59 27 10 27 11 12 46 -14 34 -35 121 -48 198 l-7 37 -240 0 -240 0 34 -42z"/>
 <path d="M923 1551 c-28 -9 -70 -30 -92 -44 -26 -17 -41 -23 -41 -15 0 7 -8 0 -18 -17 -11 -16 -26 -36 -35 -43 -26 -21 -95 -135 -102 -167 -17 -76 -24 -90 -51 -91 -37 -3 -60 -29 -73 -82 -7 -26 -27 -72 -45 -102 -19 -30 -37 -76 -40 -102 -6 -41 -4 -50 16 -70 13 -13 21 -29 20 -37 -2 -8 1 -17 7 -20 7 -5 7 -19 -1 -46 -6 -22 -11 -78 -11 -125 0 -72 4 -93 26 -137 15 -29 33 -56 40 -60 8 -4 24 -30 38 -56 29 -60 152 -180 157 -154 3 15 8 14 35 -9 19 -16 33 -22 35 -15 3 9 7 9 18 0 11 -9 14 -8 14 7 1 15 9 10 35 -21 25 -28 35 -35 35 -22 0 9 4 17 9 17 14 0 70 -68 89 -106 19 -41 29 -42 44 -9 6 14 20 25 30 25 10 0 30 11 44 25 14 14 29 25 34 25 6 0 27 15 47 34 37 32 98 69 107 64 9 -5 79 67 106 110 17 25 30 38 33 30 6 -17 45 66 53 114 4 21 10 35 14 33 10 -6 40 120 40 163 0 16 -6 49 -13 73 -16 51 -12 67 20 92 17 14 23 28 23 58 0 42 -21 102 -45 129 -7 8 -23 45 -35 82 -23 73 -37 89 -75 92 -25 1 -33 14 -50 91 -8 35 -82 149 -119 184 -14 14 -26 34 -27 45 0 19 -1 19 -7 3 -7 -16 -10 -15 -42 8 -41 31 -131 65 -168 65 -15 -1 -50 -9 -79 -19z m153 -86 c64 -19 121 -58 205 -140 59 -58 71 -76 86 -128 9 -34 19 -55 21 -49 5 17 38 15 56 -3 9 -9 21 -35 27 -58 6 -23 18 -55 27 -72 18 -33 18 -34 21 -117 1 -44 5 -58 16 -58 20 0 20 40 0 87 -17 39 -13 57 4 24 19 -35 25 -105 10 -118 -29 -24 -40 -18 -60 32 -16 41 -17 55 -7 82 9 23 9 38 0 55 -10 22 -11 22 -11 -9 -1 -37 -20 -54 -28 -25 -3 12 -11 18 -18 16 -7 -3 -16 4 -20 16 -10 30 -42 47 -108 55 -84 10 -152 -2 -188 -32 -35 -29 -66 -86 -77 -140 -7 -31 -12 -38 -32 -38 -20 0 -25 7 -32 38 -11 54 -42 111 -77 140 -38 31 -92 41 -181 32 -70 -7 -95 -21 -128 -71 -11 -17 -12 -15 -7 16 5 34 4 34 -11 -7 -9 -24 -19 -43 -23 -43 -5 0 -13 15 -19 33 -11 31 -11 30 -8 -17 4 -48 -17 -116 -36 -116 -11 0 -10 48 1 88 13 42 4 41 -15 -3 -19 -47 -19 -95 2 -95 8 0 12 -5 9 -10 -12 -20 -35 11 -35 47 0 34 20 84 45 113 7 8 23 44 35 80 12 36 26 71 32 78 13 15 55 16 60 0 2 -6 12 16 22 50 15 54 26 72 85 130 133 132 239 173 357 137z m-220 -452 c43 -19 76 -82 78 -146 1 -51 0 -52 -39 -71 -29 -15 -62 -20 -120 -20 -140 -1 -188 43 -171 157 4 25 15 55 24 67 32 39 157 46 228 13z m485 6 c35 -14 49 -48 49 -123 0 -82 -19 -101 -116 -116 -76 -12 -149 -2 -191 26 -42 27 -20 138 38 191 41 38 150 48 220 22z m-271 -241 c8 -5 35 -15 60 -23 l45 -14 -55 5 c-48 5 -52 4 -35 -8 31 -21 159 -15 239 10 38 12 70 21 71 20 1 -2 -2 -45 -6 -96 -9 -104 -35 -164 -88 -201 -33 -24 -112 -28 -171 -11 -52 16 -212 12 -285 -6 -35 -9 -76 -13 -91 -10 -14 4 -47 28 -73 54 -52 52 -67 93 -74 203 -5 75 -11 73 88 41 64 -20 199 -22 217 -3 11 11 8 13 -19 9 -39 -5 -34 8 7 17 16 4 32 10 35 15 7 11 115 10 135 -2z"/>
 <path d="M910 1320 c-27 -17 1 -25 85 -25 46 0 87 4 91 8 16 16 -22 27 -91 27 -38 0 -77 -4 -85 -10z"/>
 <path d="M596 1104 c-4 -14 -5 -28 -3 -31 3 -2 8 8 11 23 4 14 5 28 3 31 -3 2 -8 -8 -11 -23z"/>
 <path d="M1411 1050 c0 -8 4 -24 9 -35 5 -13 9 -14 9 -5 0 8 -4 24 -9 35 -5 13 -9 14 -9 5z"/>
 <path d="M734 916 c14 -19 26 -38 26 -42 0 -4 -12 -21 -27 -36 -27 -28 -27 -28 -4 -28 13 0 31 10 41 22 l17 22 14 -22 c8 -13 24 -22 38 -22 l25 0 -27 28 c-33 34 -33 37 -1 79 l25 33 -24 0 c-15 0 -28 -9 -37 -25 -10 -19 -16 -22 -27 -14 -7 6 -13 18 -13 25 0 8 -11 14 -26 14 l-26 0 26 -34z"/>
 <path d="M1149 913 l30 -36 -26 -34 -25 -33 25 0 c16 0 26 7 30 20 3 11 10 20 15 20 6 0 14 -9 17 -20 4 -13 15 -20 32 -20 l25 0 -26 31 c-32 38 -32 40 -1 69 14 13 25 27 25 32 0 4 -11 8 -25 8 -15 0 -25 -6 -25 -14 0 -7 -6 -19 -13 -25 -11 -8 -17 -5 -27 14 -9 16 -22 25 -37 25 l-24 0 30 -37z"/>
 </g>
<g id="layer109" fill="#6b5b62" stroke="none">
 <path d="M340 1943 c-6 -32 -19 -87 -29 -123 -10 -36 -20 -72 -22 -79 -5 -18 42 -35 170 -62 144 -30 139 -31 190 59 24 42 73 117 108 165 34 48 63 90 63 92 0 3 -105 5 -234 5 l-235 0 -11 -57z"/>
 <path d="M927 1963 c3 -21 11 -56 17 -78 11 -37 10 -41 -14 -62 l-25 -22 40 -40 c21 -23 45 -41 52 -41 16 0 83 59 83 73 0 6 -10 21 -22 34 -20 22 -21 27 -10 87 7 35 12 68 12 75 0 7 -24 11 -69 11 l-70 0 6 -37z"/>
 <path d="M1203 1958 c45 -56 126 -180 162 -245 25 -46 32 -53 59 -53 34 0 225 42 268 59 27 10 27 11 12 46 -14 34 -35 121 -48 198 l-7 37 -240 0 -240 0 34 -42z"/>
 <path d="M935 1556 c-57 -18 -94 -39 -154 -86 -55 -43 -135 -155 -147 -205 -6 -27 2 -21 72 50 140 140 249 185 365 151 71 -21 126 -58 222 -153 71 -70 79 -75 73 -48 -4 17 -29 62 -55 100 -54 80 -144 153 -227 185 -62 23 -92 24 -149 6z"/>
 <path d="M911 1321 c-25 -16 9 -25 91 -24 81 0 103 7 78 23 -19 12 -150 13 -169 1z"/>
 <path d="M678 1053 c-20 -2 -45 -14 -57 -26 -103 -105 -123 -136 -151 -221 -9 -27 -9 -40 -1 -45 7 -5 7 -18 -1 -46 -6 -22 -11 -78 -11 -125 0 -72 4 -93 26 -137 15 -29 33 -56 40 -60 8 -4 24 -30 38 -56 29 -60 152 -180 157 -154 3 15 8 14 35 -9 19 -16 33 -22 35 -15 3 9 7 9 18 0 11 -9 14 -8 14 7 1 15 9 10 35 -21 25 -28 35 -35 35 -22 0 9 4 17 9 17 14 0 70 -68 89 -106 19 -41 29 -42 44 -9 6 14 20 25 30 25 10 0 30 11 44 25 14 14 29 25 34 25 6 0 27 15 47 34 37 32 98 69 107 64 9 -5 79 67 106 110 17 25 30 38 33 30 6 -17 45 66 53 114 4 21 10 35 14 33 10 -6 40 120 40 163 0 16 -6 50 -14 75 -7 25 -11 48 -9 51 10 9 -58 171 -82 196 -13 14 -34 37 -47 51 -46 50 -221 51 -279 2 -35 -29 -66 -86 -77 -140 -7 -31 -12 -38 -32 -38 -20 0 -25 7 -32 38 -10 49 -40 106 -70 135 -42 38 -100 47 -220 35z m178 -40 c43 -19 76 -82 78 -146 1 -51 0 -52 -39 -71 -29 -15 -62 -20 -120 -20 -140 -1 -188 43 -171 157 4 25 15 55 24 67 32 39 157 46 228 13z m485 6 c35 -14 49 -48 49 -123 0 -82 -19 -101 -116 -116 -76 -12 -149 -2 -191 26 -42 27 -20 138 38 191 41 38 150 48 220 22z m-271 -241 c8 -5 35 -15 60 -23 l45 -14 -55 5 c-48 5 -52 4 -35 -8 31 -21 159 -15 239 10 38 12 70 21 71 20 1 -2 -2 -45 -6 -96 -9 -104 -35 -164 -88 -201 -33 -24 -112 -28 -171 -11 -52 16 -212 12 -285 -6 -35 -9 -76 -13 -91 -10 -14 4 -47 28 -73 54 -52 52 -67 93 -74 203 -5 75 -11 73 88 41 64 -20 199 -22 217 -3 11 11 8 13 -19 9 -39 -5 -34 8 7 17 16 4 32 10 35 15 7 11 115 10 135 -2z"/>
 <path d="M734 916 c14 -19 26 -38 26 -42 0 -4 -12 -21 -27 -36 -27 -28 -27 -28 -4 -28 13 0 31 10 41 22 l17 22 14 -22 c8 -13 24 -22 38 -22 l25 0 -27 28 c-33 34 -33 37 -1 79 l25 33 -24 0 c-15 0 -28 -9 -37 -25 -10 -19 -16 -22 -27 -14 -7 6 -13 18 -13 25 0 8 -11 14 -26 14 l-26 0 26 -34z"/>
 <path d="M1149 913 l30 -36 -26 -34 -25 -33 25 0 c16 0 26 7 30 20 3 11 10 20 15 20 6 0 14 -9 17 -20 4 -13 15 -20 32 -20 l25 0 -26 31 c-32 38 -32 40 -1 69 14 13 25 27 25 32 0 4 -11 8 -25 8 -15 0 -25 -6 -25 -14 0 -7 -6 -19 -13 -25 -11 -8 -17 -5 -27 14 -9 16 -22 25 -37 25 l-24 0 30 -37z"/>
 </g>
<g id="layer110" fill="#75534e" stroke="none">
 <path d="M345 1963 c-12 -71 -47 -208 -57 -220 -15 -19 16 -31 171 -63 142 -30 141 -30 180 43 19 34 67 108 108 165 40 57 73 105 73 108 0 2 -106 4 -235 4 l-234 0 -6 -37z"/>
 <path d="M931 1968 c0 -18 6 -53 12 -78 11 -42 11 -46 -12 -65 l-23 -21 41 -44 c40 -43 42 -44 68 -30 14 8 35 28 47 43 l21 29 -27 23 c-24 20 -26 27 -18 61 4 22 11 56 14 77 l7 37 -66 0 -65 0 1 -32z"/>
 <path d="M1219 1938 c50 -66 122 -177 155 -241 24 -46 38 -47 186 -13 135 31 165 43 153 59 -13 16 -39 107 -54 190 l-13 67 -238 0 -238 0 49 -62z"/>
 <path d="M935 1556 c-57 -18 -94 -39 -154 -86 -55 -43 -135 -155 -147 -205 -6 -27 2 -21 72 50 140 140 249 185 365 151 71 -21 126 -58 222 -153 71 -70 79 -75 73 -48 -4 17 -29 62 -55 100 -54 80 -144 153 -227 185 -62 23 -92 24 -149 6z"/>
 <path d="M911 1321 c-25 -16 9 -25 91 -24 81 0 103 7 78 23 -19 12 -150 13 -169 1z"/>
 <path d="M678 1053 c-20 -2 -45 -14 -57 -26 -103 -105 -123 -136 -151 -221 -9 -27 -9 -40 -1 -45 7 -5 7 -18 -1 -46 -6 -22 -11 -78 -11 -125 0 -72 4 -93 26 -137 15 -29 33 -56 40 -60 8 -4 24 -30 38 -56 29 -60 152 -180 157 -154 3 15 8 14 35 -9 19 -16 33 -22 35 -15 3 9 7 9 18 0 11 -9 14 -8 14 7 1 15 9 10 35 -21 25 -28 35 -35 35 -22 0 9 4 17 9 17 14 0 70 -68 89 -106 19 -41 29 -42 44 -9 6 14 20 25 30 25 10 0 30 11 44 25 14 14 29 25 34 25 6 0 27 15 47 34 37 32 98 69 107 64 9 -5 79 67 106 110 17 25 30 38 33 30 6 -17 45 66 53 114 4 21 10 35 14 33 10 -6 40 120 40 163 0 16 -6 50 -14 75 -7 25 -11 48 -9 51 10 9 -58 171 -82 196 -13 14 -34 37 -47 51 -46 50 -221 51 -279 2 -35 -29 -66 -86 -77 -140 -7 -31 -12 -38 -32 -38 -20 0 -25 7 -32 38 -10 49 -40 106 -70 135 -42 38 -100 47 -220 35z m178 -40 c34 -15 77 -85 88 -141 4 -26 1 -38 -18 -57 -35 -34 -123 -51 -201 -38 -80 14 -113 35 -121 79 -9 46 3 119 24 144 32 39 157 46 228 13z m485 6 c37 -14 56 -63 54 -133 -2 -49 -6 -62 -26 -77 -49 -37 -200 -45 -265 -13 -32 16 -40 25 -42 53 -4 45 21 111 56 144 44 42 149 54 223 26z m-271 -241 c8 -5 35 -15 60 -23 l45 -14 -55 5 c-48 5 -52 4 -35 -8 31 -21 159 -15 239 10 38 12 70 21 71 20 1 -2 -2 -45 -6 -96 -9 -104 -35 -164 -88 -201 -33 -24 -112 -28 -171 -11 -52 16 -212 12 -285 -6 -35 -9 -76 -13 -91 -10 -14 4 -47 28 -73 54 -52 52 -67 93 -74 203 -5 75 -11 73 88 41 64 -20 199 -22 217 -3 11 11 8 13 -19 9 -39 -5 -34 8 7 17 16 4 32 10 35 15 7 11 115 10 135 -2z"/>
 <path d="M720 941 c0 -4 9 -20 21 -35 22 -27 21 -35 -7 -73 -15 -21 -15 -23 1 -23 9 0 25 10 35 22 l17 22 14 -22 c8 -12 22 -22 32 -22 17 0 17 2 -2 29 -26 37 -26 37 5 78 31 41 8 47 -30 7 l-24 -27 -17 27 c-16 25 -45 36 -45 17z"/>
 <path d="M1154 911 l28 -29 -27 -36 -27 -36 25 0 c16 0 26 7 30 20 3 11 10 20 17 20 7 0 14 -9 17 -20 4 -13 14 -20 31 -20 l25 0 -20 23 c-34 37 -35 46 -13 75 20 25 21 27 4 31 -10 2 -20 -1 -21 -5 -2 -5 -8 -16 -13 -24 -9 -13 -13 -12 -29 8 -11 12 -27 22 -37 22 -15 0 -13 -5 10 -29z"/>
 </g>
<g id="layer111" fill="#694c3e" stroke="none">
 <path d="M345 1963 c-12 -71 -47 -208 -57 -220 -15 -19 16 -31 171 -63 142 -30 141 -30 180 43 19 34 67 108 108 165 40 57 73 105 73 108 0 2 -106 4 -235 4 l-234 0 -6 -37z"/>
 <path d="M931 1968 c0 -18 6 -53 12 -78 11 -42 11 -46 -12 -65 l-23 -21 41 -44 c40 -43 42 -44 68 -30 14 8 35 28 47 43 l21 29 -27 23 c-24 20 -26 27 -18 61 4 22 11 56 14 77 l7 37 -66 0 -65 0 1 -32z"/>
 <path d="M1219 1938 c50 -66 122 -177 155 -241 24 -46 38 -47 186 -13 135 31 165 43 153 59 -13 16 -39 107 -54 190 l-13 67 -238 0 -238 0 49 -62z"/>
 <path d="M945 1556 c-60 -15 -94 -33 -160 -83 -54 -41 -140 -159 -151 -207 -6 -26 3 -19 72 50 49 50 106 95 149 119 64 36 76 40 145 40 68 0 81 -4 140 -37 38 -21 102 -72 149 -119 73 -72 83 -79 77 -53 -12 48 -99 166 -152 207 -62 47 -141 86 -185 92 -19 2 -56 -2 -84 -9z"/>
 <path d="M911 1321 c-25 -16 9 -25 91 -24 81 0 103 7 78 23 -19 12 -150 13 -169 1z"/>
 <path d="M616 1025 c-14 -13 -26 -31 -26 -39 0 -8 -9 -18 -21 -21 -41 -13 -127 -188 -100 -204 7 -5 7 -18 -1 -46 -6 -22 -11 -78 -11 -125 0 -72 4 -93 26 -137 15 -29 33 -56 40 -60 8 -4 24 -30 38 -56 29 -60 152 -180 157 -154 3 15 8 14 35 -9 19 -16 33 -22 35 -15 3 9 7 9 18 0 11 -9 14 -8 14 7 1 15 9 10 35 -21 25 -28 35 -35 35 -22 0 9 4 17 9 17 14 0 70 -68 89 -106 19 -41 29 -42 44 -9 6 14 20 25 30 25 10 0 30 11 44 25 14 14 29 25 34 25 6 0 27 15 47 34 37 32 98 69 107 64 9 -5 79 67 106 110 17 25 30 38 33 30 6 -17 45 66 53 114 4 21 10 35 14 33 10 -6 40 120 40 163 0 16 -6 50 -14 75 -7 25 -12 48 -9 51 3 2 -9 42 -27 87 -24 62 -44 95 -81 133 l-50 51 -114 0 c-107 0 -115 -1 -140 -25 -33 -30 -63 -87 -73 -137 -6 -31 -12 -38 -32 -38 -20 0 -26 7 -36 47 -15 62 -50 116 -88 139 -25 15 -51 19 -132 19 -93 0 -103 -2 -128 -25z m239 -11 c56 -26 108 -141 84 -186 -24 -45 -136 -68 -232 -48 -84 17 -100 34 -104 111 -5 81 17 122 74 137 46 13 136 6 178 -14z m514 -9 c20 -20 26 -37 29 -88 7 -102 -20 -129 -138 -140 -79 -7 -143 4 -179 31 -34 26 -32 74 6 143 39 72 86 92 198 83 46 -3 65 -10 84 -29z m-249 -244 l55 -21 -49 5 c-58 6 -55 -3 5 -16 48 -11 132 -2 123 13 -4 6 2 7 15 3 13 -4 35 -2 49 3 15 6 39 13 55 16 l27 6 -4 -77 c-6 -93 -19 -135 -59 -186 -51 -66 -88 -73 -232 -45 -76 15 -227 8 -263 -11 -37 -20 -87 -13 -128 18 -80 59 -104 108 -108 231 l-3 67 41 -10 c23 -5 68 -9 101 -9 49 0 53 -1 25 -7 l-35 -7 46 -7 c44 -7 123 3 137 18 4 4 -9 4 -28 0 -41 -9 -35 1 18 26 48 24 138 19 212 -10z"/>
 <path d="M734 918 c28 -39 29 -47 6 -75 -19 -25 -20 -28 -5 -31 9 -2 23 6 31 17 19 26 31 27 39 1 4 -11 15 -20 26 -20 20 0 20 0 0 26 -26 33 -26 39 0 75 19 27 19 29 2 29 -10 0 -24 -9 -31 -20 -7 -11 -16 -20 -21 -20 -5 0 -13 9 -16 20 -4 11 -15 20 -27 20 -19 0 -20 -1 -4 -22z"/>
 <path d="M1154 911 l28 -29 -27 -36 -27 -36 25 0 c16 0 26 7 30 20 3 11 10 20 17 20 7 0 14 -9 17 -20 3 -11 14 -20 24 -20 24 0 24 4 -2 40 l-22 28 23 29 c20 25 20 28 5 31 -16 4 -27 -6 -39 -33 -3 -5 -14 0 -24 13 -11 12 -28 22 -38 22 -15 0 -13 -5 10 -29z"/>
 </g>
<g id="layer112" fill="#89312d" stroke="none">
 <path d="M345 1963 c-12 -71 -47 -208 -57 -220 -15 -19 16 -31 171 -63 142 -30 141 -30 180 43 19 34 67 108 108 165 40 57 73 105 73 108 0 2 -106 4 -235 4 l-234 0 -6 -37z"/>
 <path d="M930 1972 c0 -15 6 -50 13 -78 13 -48 12 -51 -10 -68 l-23 -17 20 -28 c10 -16 31 -36 45 -45 24 -16 28 -16 51 -2 13 9 31 28 41 42 17 26 16 27 -9 49 -24 20 -26 27 -18 61 4 22 11 56 14 77 l7 37 -66 0 c-64 0 -65 0 -65 -28z"/>
 <path d="M1219 1938 c50 -66 122 -177 155 -241 24 -46 38 -47 186 -13 135 31 165 43 153 59 -13 16 -39 107 -54 190 l-13 67 -238 0 -238 0 49 -62z"/>
 <path d="M940 1554 c-62 -17 -166 -81 -207 -128 -40 -45 -91 -127 -98 -159 -6 -23 7 -14 77 55 107 106 202 158 288 158 86 0 179 -50 286 -154 46 -46 84 -78 84 -72 0 18 -39 87 -80 142 -38 51 -135 125 -194 149 -53 22 -99 24 -156 9z m175 -50 c55 -25 119 -83 175 -154 l34 -45 -49 45 c-111 101 -189 140 -284 140 -74 0 -163 -42 -238 -112 -55 -51 -56 -51 -25 -12 89 116 205 180 302 167 19 -3 58 -15 85 -29z"/>
 <path d="M911 1321 c-25 -16 9 -25 91 -24 81 0 103 7 78 23 -19 12 -150 13 -169 1z"/>
 <path d="M650 1043 c-24 -9 -60 -45 -60 -60 0 -8 -8 -17 -17 -20 -25 -10 -36 -21 -65 -73 -36 -62 -53 -120 -39 -129 7 -5 7 -18 -1 -46 -6 -22 -11 -78 -11 -125 0 -72 4 -93 26 -137 15 -29 33 -56 40 -60 8 -4 24 -30 38 -56 29 -60 152 -180 157 -154 3 15 8 14 35 -9 19 -16 33 -22 35 -15 3 9 7 9 18 0 11 -9 14 -8 14 7 1 15 9 10 35 -21 25 -28 35 -35 35 -22 0 9 4 17 9 17 14 0 70 -68 89 -106 19 -41 29 -42 44 -9 6 14 20 25 30 25 10 0 30 11 44 25 14 14 29 25 34 25 6 0 27 15 47 34 37 32 98 69 107 64 9 -5 79 67 106 110 17 25 30 38 33 30 6 -17 45 66 53 114 4 21 10 35 14 33 9 -6 40 120 40 162 0 15 -5 46 -11 68 -6 22 -13 51 -14 65 -8 65 -56 162 -106 213 l-51 52 -95 3 c-142 6 -179 -18 -219 -135 -19 -56 -27 -68 -45 -68 -17 0 -25 11 -39 57 -21 68 -52 113 -90 133 -29 15 -186 20 -220 8z m216 -32 c54 -40 99 -155 73 -187 -30 -36 -72 -49 -164 -48 -139 0 -175 28 -175 132 0 64 27 107 77 120 50 14 162 4 189 -17z m504 -6 c20 -21 25 -37 28 -94 4 -64 2 -72 -21 -95 -13 -13 -40 -29 -59 -34 -50 -14 -180 -7 -215 11 -51 27 -57 41 -43 94 29 119 89 158 225 147 47 -3 65 -10 85 -29z m93 -107 c8 -24 18 -52 23 -62 6 -15 4 -17 -6 -11 -10 6 -12 4 -5 -11 25 -61 35 -116 35 -188 -1 -75 -2 -79 -15 -56 -14 24 -14 23 -15 -30 -1 -30 -10 -80 -20 -110 -19 -53 -19 -54 -16 -15 2 22 9 60 16 85 6 25 10 76 8 114 -3 63 -3 67 9 40 l12 -29 1 32 c0 18 -8 54 -19 80 -10 26 -21 66 -25 87 -7 36 -6 38 8 27 20 -16 20 -14 1 39 -16 46 -17 50 -11 50 2 0 11 -19 19 -42z m-945 -138 c-24 -75 -31 -251 -11 -285 10 -18 12 -16 27 18 8 20 16 37 18 37 2 0 4 -20 4 -45 2 -48 55 -172 93 -215 l22 -25 -6 29 c-3 16 -3 42 1 58 l6 30 18 -38 c10 -22 25 -48 34 -59 15 -19 15 -18 16 20 l2 40 17 -50 c10 -27 15 -60 13 -74 l-5 -24 -26 29 c-14 16 -34 40 -44 54 -10 14 -15 19 -12 12 4 -7 11 -27 16 -44 9 -32 9 -32 -40 16 -56 55 -121 159 -122 196 l0 25 -10 -25 -10 -25 -16 35 c-23 51 -28 201 -10 278 12 53 12 62 1 58 -8 -3 -14 1 -14 11 0 9 3 13 6 10 4 -3 16 0 27 8 12 8 22 13 23 12 2 -2 -6 -32 -18 -67z m592 5 c36 -14 66 -16 150 -12 58 2 113 8 123 12 15 6 17 1 13 -66 -2 -41 -9 -93 -15 -117 -12 -44 -58 -105 -95 -124 -30 -16 -105 -17 -156 -1 -61 19 -190 17 -270 -3 -90 -23 -128 -15 -184 42 -52 52 -66 90 -70 198 l-3 73 41 -8 c81 -16 218 -10 261 11 49 23 138 22 205 -5z m331 -289 c-6 -17 -15 -53 -22 -79 -6 -26 -30 -73 -51 -103 -42 -58 -60 -67 -34 -15 24 45 19 51 -8 9 -27 -46 -55 -77 -78 -89 -16 -9 -17 -7 -7 15 6 13 19 26 29 29 23 6 49 47 72 111 l17 51 2 -50 1 -50 19 60 c10 33 24 83 30 110 18 80 20 83 30 56 6 -15 6 -36 0 -55z m-172 -183 c-1 -27 -3 -40 -6 -30 -4 14 -11 7 -28 -30 -13 -26 -37 -64 -54 -83 l-30 -35 -1 30 c-1 29 -2 28 -25 -17 -21 -40 -49 -68 -68 -68 -3 0 0 16 6 35 6 21 13 31 18 24 11 -18 38 30 49 91 12 63 17 71 24 39 19 -91 15 -92 60 3 22 48 44 88 49 88 4 0 6 -21 6 -47z m-439 -53 l13 -40 20 32 c14 24 21 29 25 18 6 -20 121 -140 126 -132 2 4 7 34 12 67 l7 60 18 -40 c24 -52 24 -60 -7 -125 -24 -50 -27 -53 -38 -35 -6 10 -34 44 -62 75 -28 30 -54 62 -57 70 -3 8 -6 1 -6 -17 l-1 -31 -29 29 c-16 16 -32 34 -34 41 -3 7 -6 2 -6 -12 -1 -23 -2 -23 -18 -7 -13 13 -14 20 -5 29 7 7 12 25 12 41 0 37 13 28 30 -23z"/>
 <path d="M743 908 l25 -32 -25 -33 c-23 -30 -24 -33 -7 -33 11 0 25 9 32 20 7 11 16 20 21 20 5 0 13 -9 16 -20 4 -11 15 -20 26 -20 20 0 20 0 0 26 -27 34 -26 52 1 81 19 20 20 23 4 23 -10 0 -26 -10 -36 -22 l-19 -23 -16 23 c-9 12 -23 22 -31 22 -12 0 -9 -8 9 -32z"/>
 <path d="M1154 911 c30 -31 29 -38 -7 -78 l-20 -23 21 0 c12 0 26 9 32 20 6 11 15 20 21 20 6 0 13 -9 16 -20 3 -11 14 -20 24 -20 24 0 24 4 -2 40 l-22 28 22 31 c22 30 22 31 2 31 -11 0 -22 -9 -26 -20 -3 -11 -11 -20 -16 -20 -5 0 -14 9 -21 20 -7 11 -22 20 -32 20 -18 0 -17 -3 8 -29z"/>
 </g>
<g id="layer113" fill="#60205d" stroke="none">
 <path d="M345 1963 c-12 -71 -47 -208 -57 -220 -15 -19 16 -31 171 -63 142 -30 141 -30 180 43 19 34 67 108 108 165 40 57 73 105 73 108 0 2 -106 4 -235 4 l-234 0 -6 -37z"/>
 <path d="M930 1972 c0 -15 6 -50 13 -78 13 -48 12 -51 -10 -68 l-23 -17 20 -28 c10 -16 31 -36 45 -45 24 -16 28 -16 51 -2 13 9 31 28 41 42 17 26 16 27 -9 49 -24 20 -26 27 -18 61 4 22 11 56 14 77 l7 37 -66 0 c-64 0 -65 0 -65 -28z"/>
 <path d="M1219 1938 c50 -66 122 -177 155 -241 24 -46 38 -47 186 -13 135 31 165 43 153 59 -13 16 -39 107 -54 190 l-13 67 -238 0 -238 0 49 -62z"/>
 <path d="M940 1554 c-96 -26 -197 -103 -258 -196 -22 -35 -44 -75 -47 -91 -6 -23 7 -14 77 55 107 106 202 158 288 158 86 0 179 -50 287 -155 68 -67 83 -78 78 -57 -13 54 -97 163 -159 209 -110 81 -177 101 -266 77z m175 -50 c55 -25 119 -83 175 -154 l34 -45 -49 45 c-111 101 -189 140 -284 140 -74 0 -163 -42 -238 -112 -55 -51 -56 -51 -25 -12 89 116 205 180 302 167 19 -3 58 -15 85 -29z"/>
 <path d="M650 1043 c-24 -9 -52 -36 -61 -60 -5 -13 -14 -23 -21 -23 -33 0 -125 -184 -100 -199 9 -5 9 -18 0 -46 -6 -22 -11 -78 -11 -125 0 -72 4 -93 26 -137 15 -29 33 -56 40 -60 8 -4 24 -30 38 -56 29 -60 152 -180 157 -154 3 15 8 14 35 -9 19 -16 33 -22 35 -15 3 9 7 9 18 0 11 -9 14 -8 14 7 1 15 9 10 35 -21 25 -28 35 -35 35 -22 0 9 4 17 9 17 14 0 70 -68 89 -106 19 -41 29 -42 44 -9 6 14 20 25 30 25 10 0 30 11 44 25 14 14 29 25 34 25 6 0 27 15 47 34 37 32 98 69 107 64 9 -5 79 67 106 110 17 25 30 38 33 30 6 -17 45 66 53 114 4 21 10 35 14 33 9 -6 40 120 40 162 0 15 -5 46 -11 68 -6 22 -13 51 -14 65 -8 65 -56 162 -106 213 l-51 52 -95 3 c-142 6 -179 -18 -219 -135 -19 -56 -27 -68 -45 -68 -17 0 -25 11 -39 57 -21 68 -52 113 -90 133 -29 15 -186 20 -220 8z m216 -32 c54 -40 99 -155 73 -187 -30 -36 -72 -49 -164 -48 -139 0 -175 28 -175 132 0 64 27 107 77 120 50 14 162 4 189 -17z m504 -6 c20 -21 25 -37 28 -94 4 -64 2 -72 -21 -95 -13 -13 -40 -29 -59 -34 -50 -14 -180 -7 -215 11 -51 27 -57 41 -43 94 29 119 89 158 225 147 47 -3 65 -10 85 -29z m93 -107 c8 -24 18 -52 23 -62 6 -15 4 -17 -6 -11 -10 6 -12 4 -5 -11 25 -61 35 -116 35 -188 -1 -75 -2 -79 -15 -56 -14 24 -14 23 -15 -30 -1 -30 -10 -80 -20 -110 -19 -53 -19 -54 -16 -15 2 22 9 60 16 85 6 25 10 76 8 114 -3 63 -3 67 9 40 l12 -29 1 32 c0 18 -8 54 -19 80 -10 26 -21 66 -25 87 -7 36 -6 38 8 27 20 -16 20 -14 1 39 -16 46 -17 50 -11 50 2 0 11 -19 19 -42z m-945 -138 c-24 -75 -31 -251 -11 -285 10 -18 12 -16 27 18 8 20 16 37 18 37 2 0 4 -20 4 -45 2 -48 55 -172 93 -215 l22 -25 -6 29 c-3 16 -3 42 1 58 l6 30 18 -38 c10 -22 25 -48 34 -59 15 -19 15 -18 16 20 l2 40 17 -50 c10 -27 15 -60 13 -74 l-5 -24 -26 29 c-14 16 -34 40 -44 54 -10 14 -15 19 -12 12 4 -7 11 -27 16 -44 9 -32 9 -32 -40 16 -56 55 -121 159 -122 196 l0 25 -10 -25 -10 -25 -16 35 c-23 51 -28 201 -10 278 12 53 12 62 1 58 -8 -3 -14 1 -14 11 0 9 3 13 6 10 4 -3 16 0 27 8 12 8 22 13 23 12 2 -2 -6 -32 -18 -67z m592 5 c36 -14 66 -16 150 -12 58 2 113 8 123 12 15 6 17 1 13 -66 -2 -41 -9 -93 -15 -117 -12 -44 -58 -105 -95 -124 -30 -16 -105 -17 -156 -1 -61 19 -190 17 -270 -3 -90 -23 -128 -15 -184 42 -52 52 -66 90 -70 198 l-3 73 41 -8 c81 -16 218 -10 261 11 49 23 138 22 205 -5z m331 -289 c-6 -17 -15 -53 -22 -79 -6 -26 -30 -73 -51 -103 -42 -58 -60 -67 -34 -15 24 45 19 51 -8 9 -27 -46 -55 -77 -78 -89 -16 -9 -17 -7 -7 15 6 13 19 26 29 29 23 6 49 47 72 111 l17 51 2 -50 1 -50 19 60 c10 33 24 83 30 110 18 80 20 83 30 56 6 -15 6 -36 0 -55z m-172 -183 c-1 -27 -3 -40 -6 -30 -4 14 -11 7 -28 -30 -13 -26 -37 -64 -54 -83 l-30 -35 -1 30 c-1 29 -2 28 -25 -17 -21 -40 -49 -68 -68 -68 -3 0 0 16 6 35 6 21 13 31 18 24 11 -18 38 30 49 91 12 63 17 71 24 39 19 -91 15 -92 60 3 22 48 44 88 49 88 4 0 6 -21 6 -47z m-439 -53 l13 -40 20 32 c14 24 21 29 25 18 6 -20 121 -140 126 -132 2 4 7 34 12 67 l7 60 18 -40 c24 -52 24 -60 -7 -125 -24 -50 -27 -53 -38 -35 -6 10 -34 44 -62 75 -28 30 -54 62 -57 70 -3 8 -6 1 -6 -17 l-1 -31 -29 29 c-16 16 -32 34 -34 41 -3 7 -6 2 -6 -12 -1 -23 -2 -23 -18 -7 -13 13 -14 20 -5 29 7 7 12 25 12 41 0 37 13 28 30 -23z"/>
 <path d="M743 908 l25 -32 -25 -33 c-23 -30 -24 -33 -7 -33 11 0 25 9 32 20 7 11 16 20 21 20 5 0 13 -9 16 -20 4 -11 15 -20 26 -20 20 0 20 0 0 26 -27 34 -26 52 1 81 19 20 20 23 4 23 -10 0 -26 -10 -36 -22 l-19 -23 -16 23 c-9 12 -23 22 -31 22 -12 0 -9 -8 9 -32z"/>
 <path d="M1154 911 c30 -31 29 -38 -7 -78 l-20 -23 21 0 c12 0 26 9 32 20 6 11 15 20 21 20 6 0 13 -9 16 -20 3 -11 14 -20 24 -20 24 0 24 4 -2 40 l-22 28 22 31 c22 30 22 31 2 31 -11 0 -22 -9 -26 -20 -3 -11 -11 -20 -16 -20 -5 0 -14 9 -21 20 -7 11 -22 20 -32 20 -18 0 -17 -3 8 -29z"/>
 </g>
<g id="layer114" fill="#5b3c2e" stroke="none">
 <path d="M345 1948 c-4 -29 -16 -82 -26 -118 -18 -68 -19 -95 0 -38 20 61 49 208 41 208 -4 0 -11 -23 -15 -52z"/>
 <path d="M733 1908 c-57 -86 -113 -187 -113 -204 0 -4 23 31 51 77 28 46 58 93 68 104 43 52 81 115 69 115 -8 0 -41 -42 -75 -92z"/>
 <path d="M930 1972 c0 -15 6 -50 13 -78 13 -48 12 -51 -10 -68 l-23 -17 20 -28 c10 -16 31 -36 45 -45 24 -16 28 -16 51 -2 13 9 31 28 41 42 17 26 16 27 -9 49 -24 20 -26 27 -18 61 4 22 11 56 14 77 l7 37 -66 0 c-64 0 -65 0 -65 -28z"/>
 <path d="M1181 1988 c21 -17 76 -96 144 -203 60 -96 69 -103 29 -22 -49 98 -148 237 -168 237 -17 0 -18 -2 -5 -12z"/>
 <path d="M1642 1948 c10 -60 48 -192 53 -186 1 1 -8 44 -21 93 -12 50 -23 102 -23 118 -1 15 -5 27 -10 27 -4 0 -4 -24 1 -52z"/>
 <path d="M287 1743 c-4 -7 -3 -15 3 -18 30 -19 246 -66 294 -64 22 1 12 5 -34 16 -36 7 -106 23 -157 34 -50 11 -93 25 -96 32 -2 8 -5 8 -10 0z"/>
 <path d="M1700 1741 c0 -9 -99 -34 -242 -61 -32 -6 -58 -14 -58 -17 0 -10 104 6 205 32 100 25 126 37 106 49 -6 4 -11 3 -11 -3z"/>
 <path d="M940 1554 c-96 -26 -197 -103 -258 -196 -22 -35 -44 -75 -47 -91 -6 -23 7 -14 77 55 107 106 202 158 288 158 86 0 179 -50 287 -155 68 -67 83 -78 78 -57 -13 54 -97 163 -159 209 -110 81 -177 101 -266 77z m175 -50 c55 -25 119 -83 175 -154 l34 -45 -49 45 c-111 101 -189 140 -284 140 -74 0 -163 -42 -238 -112 -55 -51 -56 -51 -25 -12 89 116 205 180 302 167 19 -3 58 -15 85 -29z"/>
 <path d="M650 1043 c-24 -9 -52 -36 -61 -60 -5 -13 -14 -23 -21 -23 -33 0 -125 -184 -100 -199 9 -5 9 -18 0 -46 -6 -22 -11 -78 -11 -125 0 -72 4 -93 26 -137 15 -29 33 -56 40 -60 8 -4 24 -30 38 -56 29 -60 152 -180 157 -154 3 15 8 14 35 -9 19 -16 33 -22 35 -15 3 9 7 9 18 0 11 -9 14 -8 14 7 1 15 9 10 35 -21 25 -28 35 -35 35 -22 0 9 4 17 9 17 14 0 70 -68 89 -106 19 -41 29 -42 44 -9 6 14 20 25 30 25 10 0 30 11 44 25 14 14 29 25 34 25 6 0 27 15 47 34 37 32 98 69 107 64 9 -5 79 67 106 110 17 25 30 38 33 30 6 -17 45 66 53 114 4 21 10 35 14 33 9 -6 40 120 40 162 0 15 -5 46 -11 68 -6 22 -13 51 -14 65 -8 65 -56 162 -106 213 l-51 52 -95 3 c-142 6 -179 -18 -219 -135 -19 -56 -27 -68 -45 -68 -17 0 -25 11 -39 57 -21 68 -52 113 -90 133 -29 15 -186 20 -220 8z m216 -32 c54 -40 99 -155 73 -187 -30 -36 -72 -49 -164 -48 -139 0 -175 28 -175 132 0 64 27 107 77 120 50 14 162 4 189 -17z m504 -6 c20 -21 25 -37 28 -94 4 -64 2 -72 -21 -95 -13 -13 -40 -29 -59 -34 -50 -14 -180 -7 -215 11 -51 27 -57 41 -43 94 29 119 89 158 225 147 47 -3 65 -10 85 -29z m93 -107 c8 -24 18 -52 23 -62 6 -15 4 -17 -6 -11 -10 6 -12 4 -5 -11 25 -61 35 -116 35 -188 -1 -75 -2 -79 -15 -56 -14 24 -14 23 -15 -30 -1 -30 -10 -80 -20 -110 -19 -53 -19 -54 -16 -15 2 22 9 60 16 85 6 25 10 76 8 114 -3 63 -3 67 9 40 l12 -29 1 32 c0 18 -8 54 -19 80 -10 26 -21 66 -25 87 -7 36 -6 38 8 27 20 -16 20 -14 1 39 -16 46 -17 50 -11 50 2 0 11 -19 19 -42z m-945 -138 c-24 -75 -31 -251 -11 -285 10 -18 12 -16 27 18 8 20 16 37 18 37 2 0 4 -20 4 -45 2 -48 55 -172 93 -215 l22 -25 -6 29 c-3 16 -3 42 1 58 l6 30 18 -38 c10 -22 25 -48 34 -59 15 -19 15 -18 16 20 l2 40 17 -50 c10 -27 15 -60 13 -74 l-5 -24 -26 29 c-14 16 -34 40 -44 54 -10 14 -15 19 -12 12 4 -7 11 -27 16 -44 9 -32 9 -32 -40 16 -56 55 -121 159 -122 196 l0 25 -10 -25 -10 -25 -16 35 c-23 51 -28 201 -10 278 12 53 12 62 1 58 -8 -3 -14 1 -14 11 0 9 3 13 6 10 4 -3 16 0 27 8 12 8 22 13 23 12 2 -2 -6 -32 -18 -67z m592 5 c36 -14 66 -16 150 -12 58 2 113 8 123 12 15 6 17 1 13 -66 -2 -41 -9 -93 -15 -117 -12 -44 -58 -105 -95 -124 -30 -16 -105 -17 -156 -1 -61 19 -190 17 -270 -3 -90 -23 -128 -15 -184 42 -52 52 -66 90 -70 198 l-3 73 41 -8 c81 -16 218 -10 261 11 49 23 138 22 205 -5z m331 -289 c-6 -17 -15 -53 -22 -79 -6 -26 -30 -73 -51 -103 -42 -58 -60 -67 -34 -15 24 45 19 51 -8 9 -27 -46 -55 -77 -78 -89 -16 -9 -17 -7 -7 15 6 13 19 26 29 29 23 6 49 47 72 111 l17 51 2 -50 1 -50 19 60 c10 33 24 83 30 110 18 80 20 83 30 56 6 -15 6 -36 0 -55z m-172 -183 c-1 -27 -3 -40 -6 -30 -4 14 -11 7 -28 -30 -13 -26 -37 -64 -54 -83 l-30 -35 -1 30 c-1 29 -2 28 -25 -17 -21 -40 -49 -68 -68 -68 -3 0 0 16 6 35 6 21 13 31 18 24 11 -18 38 30 49 91 12 63 17 71 24 39 19 -91 15 -92 60 3 22 48 44 88 49 88 4 0 6 -21 6 -47z m-439 -53 l13 -40 20 32 c14 24 21 29 25 18 6 -20 121 -140 126 -132 2 4 7 34 12 67 l7 60 18 -40 c24 -52 24 -60 -7 -125 -24 -50 -27 -53 -38 -35 -6 10 -34 44 -62 75 -28 30 -54 62 -57 70 -3 8 -6 1 -6 -17 l-1 -31 -29 29 c-16 16 -32 34 -34 41 -3 7 -6 2 -6 -12 -1 -23 -2 -23 -18 -7 -13 13 -14 20 -5 29 7 7 12 25 12 41 0 37 13 28 30 -23z"/>
 <path d="M743 908 l25 -32 -25 -33 c-23 -30 -24 -33 -7 -33 11 0 25 9 32 20 7 11 16 20 21 20 5 0 13 -9 16 -20 4 -11 15 -20 26 -20 20 0 20 0 0 26 -27 34 -26 52 1 81 19 20 20 23 4 23 -10 0 -26 -10 -36 -22 l-19 -23 -16 23 c-9 12 -23 22 -31 22 -12 0 -9 -8 9 -32z"/>
 <path d="M1154 911 c30 -31 29 -38 -7 -78 l-20 -23 21 0 c12 0 26 9 32 20 6 11 15 20 21 20 6 0 13 -9 16 -20 3 -11 14 -20 24 -20 24 0 24 4 -2 40 l-22 28 22 31 c22 30 22 31 2 31 -11 0 -22 -9 -26 -20 -3 -11 -11 -20 -16 -20 -5 0 -14 9 -21 20 -7 11 -22 20 -32 20 -18 0 -17 -3 8 -29z"/>
 </g>
<g id="layer115" fill="#5c212b" stroke="none">
 <path d="M345 1948 c-4 -29 -16 -82 -26 -118 -18 -68 -19 -95 0 -38 20 61 49 208 41 208 -4 0 -11 -23 -15 -52z"/>
 <path d="M733 1908 c-57 -86 -113 -187 -113 -204 0 -4 23 31 51 77 28 46 58 93 68 104 43 52 81 115 69 115 -8 0 -41 -42 -75 -92z"/>
 <path d="M935 1943 c4 -31 12 -64 18 -74 9 -15 6 -22 -16 -39 l-27 -22 20 -27 c11 -16 31 -36 45 -45 24 -16 27 -16 59 9 48 36 53 55 22 82 l-26 22 15 71 c8 39 15 73 15 76 0 2 -30 4 -66 4 l-66 0 7 -57z"/>
 <path d="M1181 1988 c21 -17 76 -96 144 -203 60 -96 69 -103 29 -22 -49 98 -148 237 -168 237 -17 0 -18 -2 -5 -12z"/>
 <path d="M1642 1948 c10 -60 48 -192 53 -186 1 1 -8 44 -21 93 -12 50 -23 102 -23 118 -1 15 -5 27 -10 27 -4 0 -4 -24 1 -52z"/>
 <path d="M287 1743 c-4 -7 -3 -15 3 -18 30 -19 246 -66 294 -64 22 1 12 5 -34 16 -36 7 -106 23 -157 34 -50 11 -93 25 -96 32 -2 8 -5 8 -10 0z"/>
 <path d="M1700 1741 c0 -9 -99 -34 -242 -61 -32 -6 -58 -14 -58 -17 0 -10 104 6 205 32 100 25 126 37 106 49 -6 4 -11 3 -11 -3z"/>
 <path d="M1010 1550 c36 -4 74 -10 85 -14 11 -3 7 0 -10 8 -16 8 -55 15 -85 14 l-55 -1 65 -7z"/>
 <path d="M875 1528 c-76 -40 -144 -98 -183 -156 -41 -61 -68 -119 -59 -128 3 -3 8 5 12 18 14 44 94 153 144 196 28 23 74 54 103 67 29 14 46 25 38 24 -8 0 -33 -9 -55 -21z"/>
 <path d="M1210 1453 c43 -41 92 -100 114 -137 43 -73 62 -83 26 -14 -35 69 -90 138 -129 164 -20 13 -47 32 -61 41 -14 10 9 -14 50 -54z"/>
 <path d="M978 1483 c12 -2 30 -2 40 0 9 3 -1 5 -23 4 -22 0 -30 -2 -17 -4z"/>
 <path d="M771 1390 c-34 -28 -61 -53 -61 -56 0 -5 37 25 125 98 5 4 6 8 3 8 -4 0 -34 -23 -67 -50z"/>
 <path d="M650 1043 c-47 -17 -79 -77 -81 -154 -1 -28 -6 -52 -11 -55 -12 -7 -10 -42 3 -49 26 -17 131 -34 204 -34 54 0 98 6 135 19 68 24 141 25 183 4 63 -33 279 -28 350 8 18 9 23 43 8 52 -4 3 -11 34 -13 70 -6 71 -33 121 -75 137 -40 15 -190 11 -223 -6 -38 -20 -69 -65 -90 -133 -15 -48 -22 -58 -43 -60 -21 -3 -25 2 -32 34 -11 60 -53 133 -88 154 -26 16 -49 20 -122 19 -49 0 -97 -3 -105 -6z m220 -31 c32 -24 67 -86 76 -135 5 -31 2 -43 -16 -62 -56 -60 -245 -59 -312 1 -17 16 -19 28 -16 91 4 80 27 118 77 127 56 10 165 -3 191 -22z m498 -6 c21 -21 27 -37 30 -89 5 -74 -6 -100 -48 -122 -40 -21 -154 -28 -211 -15 -66 16 -93 48 -84 97 8 48 47 116 78 136 30 19 75 26 151 22 47 -3 64 -8 84 -29z"/>
 <path d="M744 909 l27 -31 -26 -34 c-24 -32 -25 -34 -6 -34 11 0 22 9 26 20 3 11 12 20 20 20 8 0 17 -9 20 -20 4 -11 15 -20 26 -20 20 0 20 0 0 26 -27 34 -26 52 1 81 19 20 20 23 4 23 -10 0 -26 -10 -36 -22 l-19 -23 -16 23 c-9 12 -23 22 -31 22 -12 0 -9 -8 10 -31z"/>
 <path d="M1154 911 c30 -31 29 -38 -7 -78 -19 -21 -19 -23 -3 -23 10 0 27 10 37 23 l20 22 15 -22 c9 -13 23 -23 31 -23 11 0 10 7 -7 35 l-22 35 22 30 c17 24 18 30 6 30 -8 0 -22 -10 -31 -22 l-16 -23 -19 23 c-10 12 -26 22 -36 22 -15 0 -13 -5 10 -29z"/>
 <path d="M1486 822 c-4 -11 0 -34 8 -53 21 -53 29 -115 21 -185 -5 -45 -11 -64 -21 -64 -8 0 -14 -9 -14 -21 0 -11 -7 -45 -16 -75 -12 -42 -19 -53 -28 -45 -9 8 -17 1 -29 -28 -9 -20 -33 -55 -52 -77 -32 -34 -35 -36 -30 -14 6 22 5 22 -13 -6 -22 -34 -90 -88 -80 -63 19 47 17 49 -9 9 -17 -25 -42 -56 -57 -69 -24 -23 -26 -23 -26 -5 0 15 -4 13 -18 -11 -24 -38 -48 -58 -64 -52 -7 2 -20 -7 -29 -20 l-16 -23 -30 48 c-16 27 -44 59 -61 71 -42 29 -41 18 1 -19 19 -16 45 -50 58 -75 13 -25 27 -45 32 -45 4 0 13 11 19 25 6 14 20 25 30 25 10 0 30 11 44 25 14 14 29 25 34 25 6 0 27 15 47 34 37 32 98 69 107 64 9 -5 79 67 106 110 17 25 30 38 33 30 6 -17 45 66 53 114 4 21 10 35 14 33 9 -6 40 120 40 162 0 15 -5 46 -12 68 -6 22 -10 50 -10 63 1 12 -5 25 -12 28 -8 3 -12 12 -9 20 3 8 3 14 0 14 -3 0 -8 -8 -11 -18z"/>
 <path d="M466 791 c-5 -14 -4 -26 3 -30 7 -5 7 -18 -1 -46 -6 -22 -11 -78 -11 -125 0 -72 4 -93 26 -137 15 -29 33 -56 40 -60 8 -4 24 -30 38 -56 29 -60 152 -180 157 -154 3 15 8 14 35 -9 19 -16 33 -22 35 -15 3 9 7 9 18 0 22 -18 16 6 -6 26 -19 17 -20 17 -20 0 0 -15 -6 -13 -35 15 -26 25 -35 30 -35 17 0 -9 -4 -17 -9 -17 -17 0 -124 133 -147 183 -12 27 -24 42 -27 35 -8 -21 -45 72 -52 132 -6 48 4 147 22 219 4 16 2 22 -5 17 -6 -3 -12 2 -14 11 -3 15 -6 14 -12 -6z"/>
 <path d="M851 150 c18 -22 34 -38 37 -35 6 5 -39 62 -56 69 -7 3 2 -12 19 -34z"/>
 </g>
<g id="layer116" fill="#472a1b" stroke="none">
 <path d="M345 1948 c-4 -29 -16 -82 -26 -118 -18 -68 -19 -95 0 -38 20 61 49 208 41 208 -4 0 -11 -23 -15 -52z"/>
 <path d="M733 1908 c-57 -86 -113 -187 -113 -204 0 -4 23 31 51 77 28 46 58 93 68 104 43 52 81 115 69 115 -8 0 -41 -42 -75 -92z"/>
 <path d="M935 1943 c4 -31 12 -64 18 -74 9 -15 6 -22 -16 -39 l-27 -22 20 -27 c11 -16 31 -36 45 -45 24 -16 27 -16 59 9 48 36 53 55 22 82 l-26 22 15 71 c8 39 15 73 15 76 0 2 -30 4 -66 4 l-66 0 7 -57z"/>
 <path d="M1181 1988 c21 -17 76 -96 144 -203 60 -96 69 -103 29 -22 -49 98 -148 237 -168 237 -17 0 -18 -2 -5 -12z"/>
 <path d="M1642 1948 c10 -60 48 -192 53 -186 1 1 -8 44 -21 93 -12 50 -23 102 -23 118 -1 15 -5 27 -10 27 -4 0 -4 -24 1 -52z"/>
 <path d="M287 1743 c-4 -7 -3 -15 3 -18 30 -19 246 -66 294 -64 22 1 12 5 -34 16 -36 7 -106 23 -157 34 -50 11 -93 25 -96 32 -2 8 -5 8 -10 0z"/>
 <path d="M1700 1741 c0 -9 -99 -34 -242 -61 -32 -6 -58 -14 -58 -17 0 -10 104 6 205 32 100 25 126 37 106 49 -6 4 -11 3 -11 -3z"/>
 <path d="M1010 1550 c36 -4 74 -10 85 -14 11 -3 7 0 -10 8 -16 8 -55 15 -85 14 l-55 -1 65 -7z"/>
 <path d="M875 1528 c-76 -40 -144 -98 -183 -156 -41 -61 -68 -119 -59 -128 3 -3 8 5 12 18 14 44 94 153 144 196 28 23 74 54 103 67 29 14 46 25 38 24 -8 0 -33 -9 -55 -21z"/>
 <path d="M1210 1453 c43 -41 92 -100 114 -137 43 -73 62 -83 26 -14 -35 69 -90 138 -129 164 -20 13 -47 32 -61 41 -14 10 9 -14 50 -54z"/>
 <path d="M978 1483 c12 -2 30 -2 40 0 9 3 -1 5 -23 4 -22 0 -30 -2 -17 -4z"/>
 <path d="M771 1390 c-34 -28 -61 -53 -61 -56 0 -5 37 25 125 98 5 4 6 8 3 8 -4 0 -34 -23 -67 -50z"/>
 <path d="M640 1037 c-37 -19 -69 -84 -71 -146 -1 -28 -6 -54 -11 -57 -14 -9 -9 -43 10 -52 70 -36 278 -41 343 -8 41 21 126 21 175 0 77 -32 276 -28 347 8 18 9 23 43 8 52 -4 3 -11 35 -13 71 -7 78 -39 129 -89 139 -56 11 -169 6 -204 -8 -39 -17 -90 -97 -100 -158 -6 -34 -10 -38 -35 -38 -25 0 -29 4 -35 38 -10 60 -59 137 -98 156 -43 20 -190 22 -227 3z m229 -25 c34 -25 68 -87 77 -138 5 -35 3 -45 -16 -62 -63 -59 -265 -53 -317 9 -12 15 -18 61 -15 116 2 37 43 90 75 97 49 11 170 -3 196 -22z m470 17 c18 -6 38 -24 46 -40 17 -32 20 -131 5 -160 -36 -66 -255 -78 -320 -17 -18 17 -21 27 -16 60 8 48 36 106 65 132 37 33 157 47 220 25z"/>
 <path d="M744 909 l27 -31 -26 -34 c-24 -32 -25 -34 -6 -34 11 0 22 9 26 20 3 11 12 20 20 20 8 0 17 -9 20 -20 4 -11 15 -20 26 -20 20 0 20 0 0 26 -27 34 -26 52 1 81 19 20 20 23 4 23 -10 0 -26 -10 -36 -22 l-19 -23 -16 23 c-9 12 -23 22 -31 22 -12 0 -9 -8 10 -31z"/>
 <path d="M1154 911 c30 -31 29 -38 -7 -78 -19 -21 -19 -23 -3 -23 10 0 27 10 37 23 l20 22 15 -22 c9 -13 23 -23 31 -23 11 0 10 7 -7 35 l-22 35 22 30 c17 24 18 30 6 30 -8 0 -22 -10 -31 -22 l-16 -23 -19 23 c-10 12 -26 22 -36 22 -15 0 -13 -5 10 -29z"/>
 <path d="M1486 822 c-4 -11 0 -34 8 -53 21 -53 29 -115 21 -185 -5 -45 -11 -64 -21 -64 -8 0 -14 -9 -14 -21 0 -11 -7 -45 -16 -75 -12 -42 -19 -53 -28 -45 -9 8 -17 1 -29 -28 -9 -20 -33 -55 -52 -77 -32 -34 -35 -36 -30 -14 6 22 5 22 -13 -6 -22 -34 -90 -88 -80 -63 19 47 17 49 -9 9 -17 -25 -42 -56 -57 -69 -24 -23 -26 -23 -26 -5 0 15 -4 13 -18 -11 -24 -38 -48 -58 -64 -52 -7 2 -20 -7 -29 -20 l-16 -23 -30 48 c-16 27 -44 59 -61 71 -42 29 -41 18 1 -19 19 -16 45 -50 58 -75 13 -25 27 -45 32 -45 4 0 13 11 19 25 6 14 20 25 30 25 10 0 30 11 44 25 14 14 29 25 34 25 6 0 27 15 47 34 37 32 98 69 107 64 9 -5 79 67 106 110 17 25 30 38 33 30 6 -17 45 66 53 114 4 21 10 35 14 33 9 -6 40 120 40 162 0 15 -5 46 -12 68 -6 22 -10 50 -10 63 1 12 -5 25 -12 28 -8 3 -12 12 -9 20 3 8 3 14 0 14 -3 0 -8 -8 -11 -18z"/>
 <path d="M466 791 c-5 -14 -4 -26 3 -30 7 -5 7 -18 -1 -46 -6 -22 -11 -78 -11 -125 0 -72 4 -93 26 -137 15 -29 33 -56 40 -60 8 -4 24 -30 38 -56 29 -60 152 -180 157 -154 3 15 8 14 35 -9 19 -16 33 -22 35 -15 3 9 7 9 18 0 22 -18 16 6 -6 26 -19 17 -20 17 -20 0 0 -15 -6 -13 -35 15 -26 25 -35 30 -35 17 0 -9 -4 -17 -9 -17 -17 0 -124 133 -147 183 -12 27 -24 42 -27 35 -8 -21 -45 72 -52 132 -6 48 4 147 22 219 4 16 2 22 -5 17 -6 -3 -12 2 -14 11 -3 15 -6 14 -12 -6z"/>
 <path d="M851 150 c18 -22 34 -38 37 -35 6 5 -39 62 -56 69 -7 3 2 -12 19 -34z"/>
 </g>
<g id="layer117" fill="#372a25" stroke="none">
 <path d="M345 1948 c-4 -29 -16 -82 -26 -118 -18 -68 -19 -95 0 -38 20 61 49 208 41 208 -4 0 -11 -23 -15 -52z"/>
 <path d="M733 1908 c-57 -86 -113 -187 -113 -204 0 -4 23 31 51 77 28 46 58 93 68 104 43 52 81 115 69 115 -8 0 -41 -42 -75 -92z"/>
 <path d="M935 1943 c4 -31 12 -64 18 -74 9 -15 6 -22 -16 -39 l-27 -22 20 -27 c11 -16 31 -36 45 -45 24 -16 27 -16 59 9 48 36 53 55 22 82 l-26 22 15 71 c8 39 15 73 15 76 0 2 -30 4 -66 4 l-66 0 7 -57z"/>
 <path d="M1181 1988 c21 -17 76 -96 144 -203 60 -96 69 -103 29 -22 -49 98 -148 237 -168 237 -17 0 -18 -2 -5 -12z"/>
 <path d="M1642 1948 c10 -60 48 -192 53 -186 1 1 -8 44 -21 93 -12 50 -23 102 -23 118 -1 15 -5 27 -10 27 -4 0 -4 -24 1 -52z"/>
 <path d="M287 1743 c-4 -7 -3 -15 3 -18 30 -19 246 -66 294 -64 22 1 12 5 -34 16 -36 7 -106 23 -157 34 -50 11 -93 25 -96 32 -2 8 -5 8 -10 0z"/>
 <path d="M1700 1741 c0 -9 -99 -34 -242 -61 -32 -6 -58 -14 -58 -17 0 -10 104 6 205 32 100 25 126 37 106 49 -6 4 -11 3 -11 -3z"/>
 <path d="M642 1035 c-37 -16 -59 -59 -68 -133 -3 -26 -10 -57 -16 -69 -17 -34 4 -50 89 -69 88 -19 197 -15 257 10 50 21 143 20 192 0 54 -23 185 -27 264 -8 79 18 98 34 83 66 -7 13 -14 47 -18 77 -13 111 -51 141 -181 141 -100 0 -136 -18 -174 -83 -16 -28 -32 -68 -35 -89 -6 -33 -10 -38 -34 -38 -24 0 -28 6 -40 48 -18 70 -55 127 -95 146 -43 20 -177 21 -224 1z m226 -22 c35 -26 69 -88 78 -139 5 -34 2 -45 -15 -61 -67 -62 -265 -55 -320 11 -18 21 -18 115 -1 157 19 45 59 60 153 56 58 -3 85 -9 105 -24z m471 16 c43 -15 61 -54 61 -132 0 -67 -7 -80 -59 -107 -34 -18 -158 -23 -208 -9 -85 23 -101 65 -59 154 26 57 51 82 92 95 42 12 136 12 173 -1z"/>
 <path d="M744 909 l27 -31 -26 -34 c-24 -32 -25 -34 -6 -34 11 0 22 9 26 20 3 11 12 20 20 20 8 0 17 -9 20 -20 4 -11 15 -20 26 -20 20 0 20 0 0 26 -27 34 -26 52 1 81 19 20 20 23 4 23 -10 0 -26 -10 -36 -22 l-19 -23 -16 23 c-9 12 -23 22 -31 22 -12 0 -9 -8 10 -31z"/>
 <path d="M1154 911 c30 -31 29 -38 -7 -78 -19 -21 -19 -23 -3 -23 10 0 27 10 37 23 l20 22 15 -22 c9 -13 23 -23 31 -23 11 0 10 7 -7 35 l-22 35 22 30 c17 24 18 30 6 30 -8 0 -22 -10 -31 -22 l-16 -23 -19 23 c-10 12 -26 22 -36 22 -15 0 -13 -5 10 -29z"/>
 </g>
<g id="layer118" fill="#31052f" stroke="none">
 <path d="M345 1948 c-4 -29 -16 -82 -26 -118 -18 -68 -19 -95 0 -38 20 61 49 208 41 208 -4 0 -11 -23 -15 -52z"/>
 <path d="M733 1908 c-57 -86 -113 -187 -113 -204 0 -4 23 31 51 77 28 46 58 93 68 104 43 52 81 115 69 115 -8 0 -41 -42 -75 -92z"/>
 <path d="M930 1977 c0 -13 7 -48 16 -77 l16 -54 -26 -21 -26 -21 41 -42 c23 -23 45 -42 49 -42 3 0 24 18 45 41 l40 40 -29 24 c-28 23 -28 23 -17 76 25 110 30 99 -44 99 -61 0 -65 -1 -65 -23z"/>
 <path d="M1181 1988 c21 -17 76 -96 144 -203 60 -96 69 -103 29 -22 -49 98 -148 237 -168 237 -17 0 -18 -2 -5 -12z"/>
 <path d="M1642 1948 c10 -60 48 -192 53 -186 1 1 -8 44 -21 93 -12 50 -23 102 -23 118 -1 15 -5 27 -10 27 -4 0 -4 -24 1 -52z"/>
 <path d="M287 1743 c-4 -7 -3 -15 3 -18 30 -19 246 -66 294 -64 22 1 12 5 -34 16 -36 7 -106 23 -157 34 -50 11 -93 25 -96 32 -2 8 -5 8 -10 0z"/>
 <path d="M1700 1741 c0 -9 -99 -34 -242 -61 -32 -6 -58 -14 -58 -17 0 -10 104 6 205 32 100 25 126 37 106 49 -6 4 -11 3 -11 -3z"/>
 <path d="M642 1035 c-37 -16 -59 -59 -68 -133 -3 -26 -10 -57 -16 -69 -17 -34 4 -50 89 -69 88 -19 197 -15 257 10 50 21 143 20 192 0 54 -23 185 -27 264 -8 79 18 98 34 83 66 -7 13 -14 47 -18 77 -13 111 -51 141 -181 141 -100 0 -136 -18 -174 -83 -16 -28 -32 -68 -35 -89 -6 -33 -10 -38 -34 -38 -24 0 -28 6 -40 48 -18 70 -55 127 -95 146 -43 20 -177 21 -224 1z m226 -22 c35 -26 69 -88 78 -139 5 -34 2 -45 -15 -61 -67 -62 -265 -55 -321 12 -18 22 -18 112 0 156 19 45 59 60 153 56 58 -3 85 -9 105 -24z m471 16 c43 -15 61 -54 61 -132 0 -67 -7 -80 -59 -107 -34 -18 -158 -23 -208 -9 -85 23 -101 65 -59 154 26 57 51 82 92 95 42 12 136 12 173 -1z"/>
 <path d="M744 911 c30 -31 29 -38 -7 -78 -20 -22 -20 -23 -1 -23 11 0 24 10 29 21 13 29 28 29 40 2 5 -13 19 -23 29 -23 18 0 17 3 -7 28 -15 15 -27 32 -27 37 0 5 12 22 27 37 26 27 26 28 6 28 -13 0 -24 -8 -28 -20 -3 -11 -13 -20 -20 -20 -8 0 -19 9 -25 20 -6 11 -18 20 -27 20 -13 0 -10 -7 11 -29z"/>
 <path d="M1159 911 c26 -36 26 -43 1 -66 -23 -21 -26 -35 -7 -35 8 0 20 11 27 25 7 14 16 25 20 25 4 0 13 -11 20 -25 7 -14 20 -25 27 -25 10 0 6 11 -12 34 l-26 34 27 31 c19 23 22 31 10 31 -8 0 -20 -9 -26 -20 -6 -11 -17 -20 -25 -20 -7 0 -17 9 -20 20 -3 11 -13 20 -21 20 -12 0 -11 -6 5 -29z"/>
 </g>
<g id="layer119" fill="#310d15" stroke="none">
 <path d="M930 1977 c0 -13 7 -48 16 -77 l16 -54 -26 -21 -26 -21 41 -42 c23 -23 45 -42 49 -42 3 0 24 18 45 41 l40 40 -29 24 c-28 23 -28 23 -17 76 25 110 30 99 -44 99 -61 0 -65 -1 -65 -23z"/>
 <path d="M642 1035 c-37 -16 -59 -59 -68 -133 -3 -26 -10 -57 -16 -69 -17 -34 4 -50 89 -69 88 -19 197 -15 257 10 50 21 143 20 192 0 54 -23 185 -27 264 -8 79 18 98 34 83 66 -7 13 -14 47 -18 77 -13 111 -51 141 -181 141 -100 0 -136 -18 -174 -83 -16 -28 -32 -68 -35 -89 -6 -33 -10 -38 -34 -38 -24 0 -28 6 -40 48 -18 70 -55 127 -95 146 -43 20 -177 21 -224 1z m226 -22 c35 -26 69 -88 78 -139 5 -34 2 -45 -15 -61 -67 -62 -265 -55 -321 12 -18 22 -18 112 0 156 19 45 59 60 153 56 58 -3 85 -9 105 -24z m471 16 c43 -15 61 -54 61 -132 0 -67 -7 -80 -59 -107 -34 -18 -158 -23 -208 -9 -85 23 -101 65 -59 154 26 57 51 82 92 95 42 12 136 12 173 -1z"/>
 <path d="M744 911 c30 -31 29 -38 -7 -78 -20 -22 -20 -23 -1 -23 11 0 24 10 29 21 13 29 28 29 40 2 5 -13 19 -23 29 -23 18 0 17 3 -7 28 -15 15 -27 32 -27 37 0 5 12 22 27 37 26 27 26 28 6 28 -13 0 -24 -8 -28 -20 -3 -11 -13 -20 -20 -20 -8 0 -19 9 -25 20 -6 11 -18 20 -27 20 -13 0 -10 -7 11 -29z"/>
 <path d="M1159 911 c26 -36 26 -43 1 -66 -23 -21 -26 -35 -7 -35 8 0 20 11 27 25 7 14 16 25 20 25 4 0 13 -11 20 -25 7 -14 20 -25 27 -25 10 0 6 11 -12 34 l-26 34 27 31 c19 23 22 31 10 31 -8 0 -20 -9 -26 -20 -6 -11 -17 -20 -25 -20 -7 0 -17 9 -20 20 -3 11 -13 20 -21 20 -12 0 -11 -6 5 -29z"/>
 </g>
<g id="layer120" fill="#0b0a0a" stroke="none">
 <path d="M930 1977 c0 -13 7 -48 16 -77 l16 -54 -26 -21 -26 -21 38 -37 c21 -20 45 -37 53 -37 8 0 31 16 50 36 l34 36 -28 22 -28 23 14 76 15 77 -64 0 c-60 0 -64 -1 -64 -23z"/>
 <path d="M740 921 c5 -11 15 -23 20 -26 15 -10 12 -21 -16 -54 -23 -28 -24 -31 -7 -31 10 0 23 10 28 21 13 29 28 29 40 2 5 -13 19 -23 29 -23 18 0 17 3 -7 28 -15 15 -27 32 -27 37 0 5 12 22 27 37 26 27 26 28 6 28 -13 0 -24 -8 -28 -20 -3 -11 -13 -20 -20 -20 -8 0 -19 9 -25 20 -6 11 -15 20 -21 20 -6 0 -6 -7 1 -19z"/>
 <path d="M1159 911 c26 -36 26 -43 1 -66 -23 -21 -26 -35 -7 -35 8 0 19 11 25 25 6 14 15 25 20 25 5 0 15 -11 22 -25 7 -14 20 -25 27 -25 10 0 6 11 -12 34 l-26 34 27 31 c19 23 22 31 10 31 -8 0 -20 -9 -26 -20 -6 -11 -17 -20 -25 -20 -7 0 -17 9 -20 20 -3 11 -13 20 -21 20 -12 0 -11 -6 5 -29z"/>
 </g>

</svg>