<?xml version="1.0" encoding="UTF-8" standalone="no"?>
<svg xmlns:rdf="http://www.w3.org/1999/02/22-rdf-syntax-ns#" xmlns="http://www.w3.org/2000/svg" height="267" viewBox="0 0 266.66666 266.66666" width="267" version="1.1" xmlns:cc="http://creativecommons.org/ns#" xmlns:dc="http://purl.org/dc/elements/1.1/">
 <g stroke-width="1.33">
  <path d="m45.9 265c-4.5-21-6.5-28-7.7-29-2.13-1.31-12.4 10.6-14.9 17.2-1.45 3.88-1.88 4.4-1.35 1.66 1.16-6.04 6.73-14.8 11.6-18.2 2.38-1.67 4.96-3.86 5.73-4.87 1.61-2.1 23-7.81 33.9-9.04l7.36-.832 7.86 13.1c4.32 7.22 11.1 17.5 15 22.8l7.14 9.67h-63.4zm77.2-1.33c.453-2.38 1.5-6.97 2.34-10.2 1.4-5.45 1.29-6.05-1.56-8.35-2.53-2.05-3.45-2.19-5.23-.798-1.95 1.52-1.98 1.43-.233-.980 1.06-1.47 3.94-4.82 6.39-7.45 5.19-5.57 5.06-5.8-7.41-12.5-9.42-5.1-12.3-9.06-13.5-18.8-.844-6.7-1.79-8.7-6.47-13.7-6.03-6.4-12.8-19.2-14.5-27.5-.949-4.59-1.67-5.4-5.5-6.18-5.29-1.07-7.58-3.89-9.59-11.8-.830-3.27-3.57-9.28-6.09-13.4-5.57-9.02-6.4-18.6-1.88-21.8 1.78-1.25 2.39-2.68 1.81-4.21-.490-1.28-.237-2.73.563-3.22 1.04-.640 1.05-2.61.0632-6.87-.765-3.28-1.44-10.5-1.5-16-.0957-8.59.451-11.1 3.84-17.8 2.17-4.29 4.46-7.69 5.09-7.57.624.124 2.25-2.27 3.62-5.32s4.31-7.86 6.55-10.7c5.53-6.98 14.9-14.3 15.6-12.2.384 1.15 1.55.845 3.95-1.04 4.19-3.29 6.26-3.43 5.18-.341-.558 1.6.0244 1.35 1.86-.814 2.38-2.8 2.68-2.87 2.72-.667.0428 1.92 1.11 1.29 4.67-2.74 4.27-4.84 4.61-4.99 4.61-2.06 0 2.98.297 2.87 5.32-2.04 2.93-2.86 6.46-7.51 7.86-10.3l2.54-5.13 2.67 3.39c1.47 1.86 3.31 3.39 4.09 3.39.786 0 3.46 1.79 5.95 3.97s4.8 3.69 5.14 3.35c.339-.339 2.64 1.47 5.12 4.03s5.24 4.65 6.14 4.65 3.4 1.48 5.55 3.3c2.15 1.81 4.31 2.91 4.78 2.43 1.38-1.38 8.76 6.35 12.8 13.4 2.79 4.85 3.86 5.86 4.22 4 .614-3.16 5.81 7.44 7.15 14.6.505 2.69 1.39 4.6 1.97 4.24 1.75-1.08 4.57 12.8 4.49 22-.0423 4.78-1.02 10.9-2.19 13.6l-2.12 4.93 4.57 2.7c6.61 3.9 6.28 9.59-1.43 24.7-3.3 6.47-6 12.8-6 14.1 0 3.71-5.09 9.13-9 9.58-3.19.371-3.86 1.35-5.73 8.42-2.81 10.6-5.21 14.9-13.2 23.7-6.25 6.84-6.72 7.83-6.72 14.2 0 10.2-2.39 13.6-13.6 19.4-14.1 7.33-14 7.12-8.46 11.6 2.6 2.14 4.72 4.48 4.72 5.19 0 .715-1.57 2.75-3.48 4.52-3.4 3.15-3.45 3.41-2 11.7.813 4.67 1.48 9.19 1.48 10 0 1.04-3.13 1.56-9.44 1.56h-9.44zm33.7 2.84c.823-.823 1.17-2.35.770-3.39-.429-1.12-.012-1.73 1.02-1.5 1.93.428 21.6-27.7 24.2-34.6 1.91-5.09 2.82-5.2 18.6-2.25 19.8 3.7 23.4 5.2 31.9 13.4 8.23 7.97 11.1 13.3 12.5 23.2.736 5.4.573 5.17-1.63-2.24-1.34-4.53-3.36-9.63-4.47-11.3-3.44-5.25-10.9-11.8-12-10.7-.928.928-5.22 17.6-7.19 27.9l-.573 3h-32.2c-23.8 0-31.9-.390-30.7-1.5zm-137-5c0-1.83.303-2.58.673-1.67.370.917.370 2.42 0 3.33-.370.917-.673.167-.673-1.67z" fill="#d9a798"/>
  <path d="m45.2 260c-.834-4.22-2.69-12.1-4.12-17.4-1.43-5.37-2.31-10.2-1.95-10.8 1.3-2.1 40-10.8 41.2-9.27.222.281 3.52 5.72 7.32 12.1 3.8 6.36 10.2 16.1 14.2 21.7 4.02 5.6 7.3 10.4 7.3 10.8 0 .322-14.1.586-31.2.586h-31.2zm78.3 2.67c.434-2.75 1.47-7.39 2.3-10.3 1.41-4.95 1.28-5.51-1.87-8.24l-3.38-2.93 5.27-5.43c2.9-2.98 6.03-5.43 6.95-5.43 2.3 0 11.1 7.88 11.1 9.93 0 .910-1.26 2.79-2.8 4.19-2.84 2.57-2.9 6.39-0.3 19.4l.763 3.81h-18.8zm33.7 4.16c0-.460 2.94-4.81 6.53-9.67 5.31-7.18 13.1-19.5 21.2-33.3.895-1.54 2.63-1.59 10.4-.285 12.1 2.04 30.3 6.67 31.7 8.06.607.597-.0615 4.91-1.49 9.58-1.42 4.67-3.34 12.5-4.25 17.5l-1.67 9h-31.2c-17.2 0-31.2-.377-31.2-.837zm-37.3-52.9c-3.3-1.64-7.65-4.09-9.67-5.44s-3.71-1.94-3.76-1.3c-.195 2.4-2.39-4.33-2.48-7.6-.0555-2.02-1.8-5.01-4.27-7.33-5.6-5.25-14.1-18.4-15.1-23.3-.417-2.16-1.11-5.74-1.53-7.94-.643-3.33-1.41-4-4.57-4-4.11 0-9.32-5.22-9.32-9.34 0-1.27-2.7-7.6-6-14.1-6.79-13.3-7.85-20.8-3.33-23.6 1.47-.916 2.67-3.06 2.67-4.76s.506-2.78 1.13-2.4c.619.382.319-2.41-.667-6.21-.985-3.8-1.79-11.5-1.79-17 0-8.41.623-11.4 3.67-17.4 2.02-3.98 4.36-7.11 5.2-6.95.843.159 1.93-1.3 2.42-3.23 2.42-9.63 22-30.8 23.2-25.1.369 1.81 1.02 1.61 3.85-1.22 3.95-3.95 5.99-4.41 4.77-1.07-.764 2.09-.555 2.07 2.04-.207 2.18-1.91 2.9-2.08 2.93-.667.0201 1.04 2.06-.299 4.59-3.02 4.23-4.55 4.58-4.69 5.02-2 .431 2.64.956 2.39 5.95-2.86 3.01-3.16 6.21-7.51 7.1-9.67 1.9-4.59 3.33-4.93 5.3-1.25.785 1.47 2.37 2.67 3.51 2.67 1.15 0 4.06 1.97 6.47 4.38s4.93 4.2 5.6 3.98c.667-.222 2.95 1.41 5.07 3.62s4.4 4.02 5.06 4.02c.666 0 3.1 1.35 5.41 2.99 2.31 1.65 4.9 2.83 5.74 2.64 1.91-.439 10.7 9.52 13.5 15.4 1.43 2.93 2.44 3.81 3.13 2.7 1.25-2.02 6.09 8.09 7.31 15.3.463 2.74 1.3 4.69 1.86 4.35 1.63-1.01 4.16 11.2 4.14 19.9-.007 4.44-.918 10.6-2.03 13.8-2 5.64-2 5.69 1.6 7.97 1.99 1.26 4.09 2.91 4.67 3.66 2.08 2.68-.442 13-4.98 20.5-2.54 4.15-5.32 10.4-6.18 13.9-1.66 6.73-5.14 10.3-10.1 10.3-2.2 0-3.12 1-3.7 4-.425 2.2-1.11 5.77-1.53 7.94-.940 4.88-9.46 18.1-15.1 23.3-3.46 3.24-4.18 4.93-4.18 9.78 0 4.11-.497 5.69-1.67 5.27-.917-.323-3.25.519-5.18 1.87-11.6 8.12-25.4 9.95-35.8 4.76zm30.5-21.4c4.83-2.38 12.1-7.68 16.8-12.2 8.26-7.99 8.28-8.02 12.5-23.8 2.35-8.69 4.04-16 3.76-16.3-.281-.281-2.57.0787-5.08.799-6.96 2-20.6 1.57-26.6-.841-6.45-2.58-10.3-7.64-14-18.5-1.63-4.74-3.55-8.06-4.66-8.06s-3.03 3.32-4.66 8.06c-3.72 10.8-7.56 15.9-14 18.5-6.43 2.57-21.3 2.75-28.1.338l-4.75-1.7 4.52 16.1c4.81 17.1 7.44 21.7 16.6 29.2 7.59 6.15 13.4 9.14 23 11.8 9.61 2.67 13.4 2.16 24.5-3.34zm-31.3-15.6c-1.54-2.49.685-3.22 11.3-3.71 10.3-.466 17 1.23 15.3 3.86-1.09 1.77-25.6 1.63-26.7-.156zm7.04-19.3c-4.37-4.05-4.53-7.39-.937-19.3l2.62-8.67-.905 9.33c-1.61 16.6-.411 20 6.7 19 3.59-.527 3.73-.417 1.49 1.22-3.44 2.52-4.79 2.28-8.96-1.59zm-47.1-8.32c-.493-2.47-1.89-4.54-3.37-5.01-1.39-.441-2.13-1.45-1.64-2.25.511-.827.274-1.06-.555-.549-.796.492-1.82.285-2.28-.461-.776-1.26 1.07-1.96 3.82-1.46.640.117.790-.761.333-1.95s-.901-3.16-.988-4.39c-.0868-1.22-.665-.424-1.28 1.78-.942 3.34-1.04 3.02-.596-2 .347-3.92.123-5.28-.647-3.91-2.02 3.58-1.96 12.9.0982 15.4 1.48 1.82 1.5 2.11.111 1.28-2.89-1.74-.489 4.79 2.81 7.63 3.51 3.03 5.28 1.31 4.2-4.1zm115 1.96c.325-.869.804-3.45 1.06-5.74l.471-4.16-3.77 2.16c-3.71 2.13-6.21 8.07-4.52 10.8.997 1.61 5.83-.572 6.76-3.06zm-.270-15.9c-.369-3.96-0.3-4.05.761-1.03.978 2.79 1.19 2.9 1.28.667.0619-1.47-.408-3.49-1.04-4.49-.849-1.34-1.52-.630-2.53 2.67-1.82 5.98-1.65 9.52.386 7.83.853-.708 1.37-3.25 1.14-5.65zm-78.2-.459c4.18-3.08 10.4-19 9.1-23.2-1.23-3.89-10.3-6.66-21.7-6.66-19.4.004-26.2 7.63-21.6 24.3 2.02 7.26 6.19 9.12 19.5 8.69 8.56-.274 11.7-.942 14.7-3.12zm-18.4-11.8c3.72-3.84 4.16-4.94 2.92-7.26-.807-1.51-2.8-3.67-4.42-4.81-2.9-2.03-2.87-2.07 1.85-2.07 3.81 0 4.96.6 5.56 2.89.635 2.43 1.08 2.62 2.81 1.18 1.13-.937 1.72-2.24 1.32-2.89-.402-.650 1.16-1.18 3.47-1.18h4.2l-3.45 4.1c-4.23 5.03-4.23 5.08-.119 9.52 4.1 4.42 4.14 5.04.321 5.04-1.66 0-3.76-1.2-4.68-2.67-.916-1.47-2.22-2.67-2.9-2.67-.678 0-1.61 1.2-2.08 2.67-.609 1.92-2.02 2.67-5.02 2.67h-4.17zm82.6 11.5c3.3-2.46 3.51-3.28 3.51-13.8v-11.2l-4.87-2.38c-7.03-3.44-23.1-3.33-31 .206-5.46 2.41-6.08 3.14-6.07 7.1.0144 4.87 5.35 17.4 8.18 19.2 7.77 5.01 24.1 5.46 30.3.827zm-27.2-11.5c4.22-5.54 4.22-5.88-.182-10.5l-3.58-3.74h3.77c2.07 0 4.59 1.05 5.58 2.33 1.73 2.22 1.9 2.22 3.63 0 .998-1.28 3.17-2.33 4.82-2.33h3.01l-3.51 4.6-3.51 4.6 4.16 4.73 4.16 4.73h-4.05c-2.88 0-4.29-.771-4.89-2.67-.466-1.47-1.4-2.67-2.08-2.67-.678 0-1.98 1.2-2.9 2.67-.916 1.47-3.05 2.67-4.75 2.67h-3.08zm48.9 1.19c1.84-1.94 1.51-10.4-.390-9.76-2.31.769-3.9 7.71-2.83 12.4.732 3.19 1.03 3.46 1.47 1.33.302-1.47 1.09-3.24 1.75-3.93zm-2.69-1.51c.064-1.55.380-1.87.806-.806.385.962.338 2.11-.105 2.56-.443.443-.758-.344-0.7-1.75zm-129 .366c.0112-.593-.580-.708-1.31-.255-.733.453-1.32 1.84-1.31 3.08.0176 1.94.199 1.98 1.31.255.711-1.1 1.3-2.49 1.31-3.08zm-3.69-5.25c-1.27-2.63-1.45-2.27-1.45 3s.177 5.63 1.45 3c1.04-2.16 1.04-3.84 0-6zm138-6.33c.453-.733.224-1.33-.509-1.33s-1.7.6-2.16 1.33c-.453.733-.224 1.33.509 1.33s1.7-.6 2.16-1.33zm-60.8-7.26c2.48-.807 2.77-1.3 1.33-2.25-1.51-.992-1.37-1.57.745-3.19 5.13-3.92 20.2-2.44 40.1 3.94 2.06.660-.0976-20.3-2.78-27.1-1.23-3.08-4.68-7.68-7.65-10.2-6.27-5.36-11.7-5.95-24.5-2.64-9.8 2.55-23.1 2.55-32.9 0-11-2.87-16.9-2.56-21.9 1.13-9.27 6.84-12 12.7-13.4 28.4l-.952 10.9 6.04-1.93 10-3.18c9.91-3.11 31.9-.239 26 3.4-4.87 3.01 11.9 5.34 19.8 2.76zm-22.9-2.88c-.443-.443-1.59-.490-2.56-.105-1.06.426-.748.742.806.806 1.41.0579 2.19-.257 1.75-0.7z" fill="#c38775"/>
  <path d="m45.8 263c-.456-2.75-2.05-9.8-3.54-15.7-4.09-16.1-4.27-15.4 4.9-18.2 7.93-2.38 32.7-7.03 33.2-6.23 6.19 10.7 16.1 26.5 20.8 33.1 3.42 4.77 6.64 9.42 7.17 10.3.756 1.31-5.69 1.67-30.4 1.67h-31.3zm77.7 0c.434-2.75 1.47-7.39 2.3-10.3 1.41-4.95 1.28-5.51-1.87-8.24l-3.38-2.93 5.27-5.43c2.9-2.98 6.03-5.43 6.95-5.43 2.3 0 11.1 7.88 11.1 9.93 0 .910-1.26 2.79-2.8 4.19-2.84 2.57-2.9 6.39-0.3 19.4l.763 3.81h-18.8zm33.7 4.41c0-.322 3.36-5.27 7.47-11s10.6-15.7 14.3-22.1l6.86-11.7 5.33.777c7.69 1.12 23.2 4.32 28.7 5.9 8.4 2.45 8.51 2.69 5.63 12.2-1.43 4.69-3.35 12.6-4.26 17.5l-1.67 9h-31.2c-17.2 0-31.2-.264-31.2-.586zm-35-59.4c-4.23-1.35-9.74-4.02-12.2-5.92-4.05-3.09-4.6-3.21-5.15-1.13-.429 1.64-.654 1.38-.763-.868-.0859-1.78-2.71-5.93-5.91-9.35-6.95-7.43-12.8-17.1-13.5-22.3-1.17-8.94-2.28-11.1-5.62-11.1-4.15 0-9.83-5.63-9.68-9.61.0971-2.59.296-2.45 1.31.938 1.34 4.5 4.53 7.33 8.26 7.33 1.75 0 2.3-0.7 1.83-2.33-5.36-18.5-7.89-25.6-8.93-24.9-.685.423-1.26 2.98-1.29 5.69-.0345 4.19-.256 4.55-1.49 2.43-.796-1.37-1.13-4.89-.734-7.81.507-3.78.0140-6.47-1.7-9.29-3.09-5.08-4.33-3.05-2.87 4.73.627 3.36.889 6.36.582 6.66-.307.307.672 2.58 2.18 5.04 1.5 2.47 2.71 5.38 2.68 6.48-.0463 1.85-2.24-1.82-9.15-15.3-3.54-6.91-3.58-13.3-.120-16.3 1.47-1.26 2.67-3.69 2.67-5.4s.518-2.8 1.15-2.4c.633.391.342-2.72-.646-6.92s-1.81-11.9-1.82-17.1c-.0170-7.69.655-10.7 3.65-16.6 2.02-3.93 4.18-7.01 4.8-6.84.622.162 2.78-3.18 4.79-7.43 3.69-7.8 13.1-18.7 18.7-21.7 2.83-1.51 3-1.41 2.27 1.37-.692 2.65-.238 2.47 3.8-1.44 3.75-3.64 4.59-4 4.59-1.98 0 2.34.133 2.35 2.53.180 1.97-1.78 2.69-1.9 3.24-.540.480 1.18 2.02.240 4.77-2.92 3.01-3.46 4.07-4.06 4.1-2.33.0197 1.28.622 2.33 1.34 2.33 1.67 0 11.6-12.5 12.7-16 1-3.16 3.1-3.47 4.2-.607.433 1.13 2.77 2.88 5.19 3.89s5.41 3.38 6.65 5.27 2.81 3.09 3.49 2.67c.681-.421 3.52 1.23 6.3 3.68 5.4 4.74 12.9 9.33 16.2 9.93 2.62.473 9.98 9.17 13.2 15.6 1.97 3.94 2.69 4.55 3.14 2.67.730-3.06 5.67 7.17 7.03 14.6.505 2.74 1.4 4.69 1.99 4.32 1.57-.970 3.98 11.6 3.91 20.4-.0321 4.18-.886 9.92-1.9 12.8-1.98 5.57-1.48 8.84 1.36 8.84 2.18 0 5.97 5.17 5.84 7.96-.0663 1.44-.463 1.26-1.36-.630-.964-2.03-1.12-1.46-.642 2.43.739 6.05-1.21 12.2-3.44 10.8-.905-.559-1.18-.371-.672.455.479.774-.669 4.02-2.55 7.21-2.07 3.51-3.06 4.49-2.5 2.46.506-1.83 1.53-4.09 2.27-5.02 1.52-1.9 1.9-4.52 2.15-14.6.131-5.38.652-7 2.25-7 1.14 0 1.69-.633 1.21-1.41-1.75-2.83-5.01-.447-7.25 5.31-1.8 4.61-2.01 6.87-.954 10.3.940 3.06.908 5.32-.107 7.43-1.39 2.88-1.46 2.82-1.55-1.23-.177-8.37-2.69-5.61-6.69 7.37-2.24 7.25-4.07 13.6-4.07 14 0 .469 1.16.852 2.57.852 3.11 0 8.1-5.99 8.1-9.74 0-1.49.372-2.34.827-1.88 1.37 1.37-.724 7.51-3.53 10.3-1.45 1.45-4.09 2.63-5.86 2.63-2.54 0-3.45.921-4.25 4.33-.565 2.38-.905 4.81-.756 5.38.633 2.46-7.31 16.1-13.3 22.8-3.56 4-6.55 8.67-6.63 10.4-.104 2.09-.349 2.39-.746.885-.513-1.94-1.33-1.74-6.18 1.52-6.48 4.35-16.8 8.08-22 7.98-1.99-.0395-7.08-1.18-11.3-2.53zm28.2-14.3c4.2-2.06 12-8.07 18.2-14 10.8-10.4 10.9-10.5 14.4-22.8 1.94-6.78 4.43-15.3 5.53-18.9l2.01-6.62-4.41 4.82c-3.95 4.31-5.35 4.92-13.3 5.77-12.6 1.35-20.2-.0723-25.5-4.78-4.98-4.38-8.85-11.5-10-18.6-.634-3.8-1.36-4.67-3.94-4.67-2.71 0-3.42 1.03-5.02 7.26-2.01 7.87-6.58 14.8-12.1 18.4-2.74 1.79-6.38 2.3-16.4 2.26-14.2-.054-18.9-1.88-21.3-8.21-.721-1.9-1.63-3.13-2.01-2.75-.386.386 1.79 9.02 4.83 19.2 5.48 18.3 5.61 18.6 13.7 26.9 20.5 20.9 36.8 25.9 55.4 16.7zm-29.9-16.6c-1.6-2.59.831-3.24 12.1-3.24 6.11 0 11.5.410 12 .911 2.45 2.45-1.73 3.76-12 3.76-6.48 0-11.5-.598-12.1-1.42zm5.87-20c-2.98-2.6-2.99-2.67-.222-1.33 1.61.779 3.29 2.01 3.75 2.74 1.31 2.12-.126 1.54-3.52-1.42zm-2.38-8.7c.064-1.55.380-1.87.806-.806.385.962.338 2.11-.105 2.56-.443.443-.758-.344-0.7-1.75zm-6.89-14.4c4.52-4.33 8.53-14.7 7.88-20.4-.661-5.75-8.4-8.92-21.8-8.88-16.2.0401-23.4 4.96-23.3 15.8.109 7.77 2.76 14.4 6.59 16.4 2.2 1.16 7.26 1.62 14.9 1.37 10.7-.352 11.9-.668 15.6-4.26zm-20.9-11c2.29-2.34 4.16-4.86 4.16-5.59 0-.737-1.61-3.02-3.58-5.08l-3.58-3.74h3.54c2.27 0 4.09 1.04 5.1 2.92l1.56 2.92 2.36-2.92c1.3-1.61 3.73-2.92 5.4-2.92 3.03 0 3.03.009-.547 3.74-4.4 4.59-4.4 4.93-.182 10.5l3.4 4.46h-3.19c-2.14 0-3.71-1.14-4.77-3.47-1.3-2.86-1.93-3.18-3.55-1.84-1.08.898-1.97 2.46-1.97 3.47 0 1.17-1.52 1.84-4.16 1.84h-4.16zm84.3 11c3.76-3.76 3.94-4.45 3.56-13.6-.374-9.22-.591-9.8-4.69-12.6-7.89-5.31-27.7-5.21-36 .172-3.71 2.43-4.12 8.89-1.03 16.3 4.33 10.4 10 13.5 24.4 13.6 9.09.0485 10-.225 13.7-3.9zm-30.8-7.71c.0264-.55 1.48-2.75 3.23-4.89l3.18-3.89-3.39-4.44-3.39-4.44h3.34c2.21 0 3.57.896 4.03 2.67.384 1.47 1.31 2.67 2.07 2.67.753 0 1.75-1.2 2.21-2.67.552-1.74 2.02-2.67 4.21-2.67h3.36l-3.45 4.1c-4.25 5.05-4.25 5.35-.119 9.23 1.83 1.72 3.33 3.63 3.33 4.23 0 .606-1.5 1.1-3.33 1.1-1.94 0-3.33-.766-3.33-1.84 0-1.01-.885-2.57-1.97-3.47-1.62-1.35-2.24-1.02-3.55 1.84-1.4 3.07-6.56 5.05-6.44 2.47zm-91.1-7.25c-.426-1.06-.742-.748-.806.806-.0579 1.41.257 2.19 0.7 1.75.443-.443.490-1.59.105-2.56zm2.61-6.42c1.08 0 1.58-.629 1.1-1.4-1.04-1.68-4.68.915-4.52 3.23.0662.945.355.884.778-.163.370-.917 1.56-1.67 2.64-1.67zm80.2-8.48c.974-.626 3.37-1.62 5.33-2.21 3.43-1.04 3.39-1.08-1.04-1.19-7.75-.193-2.66-2.99 6.81-3.74 6.48-.514 11.3.116 20.7 2.69l12.2 3.36-.512-4.21c-.281-2.32-.794-7.69-1.14-11.9-.831-10.2-5.18-18.9-11.6-23.2-5.6-3.7-10.7-3.8-29.9-.570-9.97 1.67-17.4 1.18-31.5-2.11-8.18-1.9-9.2-1.89-13.7.256-11.1 4.4-16 14-17.4 32.7l-.613 8.21 11.5-3.19c12.9-3.57 22.9-4.01 28.9-1.27l4 1.83-4.67.210-4.67.210 4.24 1.57c2.33.861 4.6 1.93 5.04 2.39 1.19 1.21 15.8.689 17.8-.637zm-29.4-4.43c-1.27-.334-3.67-.346-5.33-.0269s-.616.592 2.32.607c2.93.0148 4.29-.246 3.02-.580zm47.3.0415c-.903-.365-2.7-.387-4-.0494s-.559.637 1.64.664c2.2.0272 3.26-.249 2.36-.615z" fill="#a46656"/>
  <path d="m45.2 259c-.916-4.95-2.81-12.8-4.21-17.4s-2.24-8.85-1.87-9.45c1.19-1.93 40.4-10.8 41.3-9.29 11.1 18.7 15.7 26 20.8 33.1 3.42 4.77 6.66 9.42 7.21 10.3.791 1.31-5.6 1.67-30.3 1.67h-31.2zm78.3 4c.434-2.75 1.47-7.39 2.3-10.3 1.41-4.95 1.28-5.51-1.87-8.24l-3.38-2.93 5.27-5.43c2.9-2.98 6.03-5.43 6.95-5.43 2.3 0 11.1 7.88 11.1 9.93 0 .910-1.26 2.79-2.8 4.19-2.84 2.57-2.9 6.39-0.3 19.4l.763 3.81h-18.8zm33.7 4.42c0-.319 3.57-5.57 7.94-11.7 4.37-6.1 10.8-15.9 14.2-21.8 3.45-5.87 6.45-10.9 6.66-11.2.637-.811 34.6 6.31 38.5 8.06 2.76 1.26 3.34 2.22 2.64 4.36-.499 1.51-2.46 9.5-4.36 17.7l-3.45 15h-33c-17.1 0-31.1-.261-31.1-.581zm-32.1-58.5c-9.32-2.6-17.3-7.91-26-17.2-7.34-7.87-16.5-22.9-14.9-24.5.384-.384 2.95 2.05 5.7 5.41 6 7.32 19 17.9 27.2 22 17.7 8.98 37 2.02 58.5-21.1 6.88-7.4 6.99-7.47 5.46-2.9-4.16 12.4-20.1 29.8-32.5 35.5-8.73 4-15.9 4.84-23.4 2.75zm-3.71-31.4c-3.18-2.01.752-3.11 11.1-3.11 10.4 0 14.3 1.1 11.1 3.11-.995.630-6.01 1.15-11.1 1.15-5.13 0-10.1-.516-11.1-1.15zm-31.4-36c-6.3-1.26-10.3-3.59-11.3-6.52-.424-1.33-2.62-3.79-4.87-5.46-4.65-3.44-11.9-17.5-11.9-23.2-.000579-2.06.490-3.44 1.09-3.07 0.6.371.253-3.34-.772-8.25-2.6-12.4-1.72-24.7 2.37-32.9 1.82-3.67 3.88-6.67 4.58-6.67s3-3.45 5.1-7.66c3.74-7.49 13.2-18.3 18.5-21.1 2.39-1.28 2.57-1.11 1.72 1.69-.839 2.76-.402 2.6 3.87-1.48 3.92-3.74 4.82-4.14 4.82-2.13 0 2.38.0912 2.39 2.67.0549 2.58-2.33 2.67-2.33 2.72.127.039 1.98 1.06 1.36 4.65-2.79 3.26-3.78 4.6-4.65 4.62-3 .0109 1.28.606 2.33 1.32 2.33 1.67 0 11.6-12.5 12.7-16 1-3.16 3.1-3.47 4.2-.607.433 1.13 2.77 2.88 5.19 3.89s5.41 3.38 6.65 5.27 2.81 3.09 3.49 2.67c.681-.421 3.62 1.38 6.52 4.01 2.91 2.63 5.84 4.78 6.51 4.78.675 0 3.2 1.65 5.6 3.67 2.41 2.02 3.88 2.86 3.27 1.87-.877-1.43-.568-1.51 1.52-.397 3.26 1.75 8.84 8.97 11.9 15.5 1.91 4.01 2.5 4.47 3.19 2.5.721-2.05 1.14-1.82 2.87 1.58 1.11 2.2 2.76 7.14 3.67 11 .904 3.85 2.13 6.69 2.73 6.32 1.58-.977 3.99 11.6 3.92 20.4-.0321 4.18-.899 9.96-1.93 12.8-1.03 2.88-1.54 5.78-1.13 6.43 1.46 2.36-6.33 20.6-10.3 24.2-2.16 1.92-3.92 4.07-3.92 4.78 0 3.99-16.7 7.58-28.1 6.02-10.6-1.46-18.3-9.83-21-23-.858-4.13-1.61-5.02-4.26-5.02-2.64 0-3.4.892-4.26 5.02-1.38 6.65-5.37 14.2-9.48 18.1-5.31 4.95-17 6.7-28.9 4.32zm23.9-4.72c4.77-2.47 10.7-14.1 10.7-20.9 0-6.38-3.29-8.73-14.9-10.7-10.7-1.77-22 .276-26.9 4.9-2.84 2.63-3.45 4.4-3.45 9.97 0 8.41 2.92 15.7 6.94 17.3 5.03 2.02 23.4 1.64 27.7-.566zm-16.2-13c4.22-5.54 4.22-5.88-.182-10.5-3.57-3.73-3.58-3.74-.547-3.74 1.67 0 4.1 1.32 5.41 2.93l2.37 2.93 1.83-2.93c1.01-1.61 2.88-2.93 4.18-2.93 3.09 0 2.97 1.69-.321 4.67-3.31 2.99-3.31 4.44 0 8.67 3.27 4.18 3.32 5.33.214 5.33-1.35 0-3.16-1.56-4.03-3.47-1.3-2.86-1.93-3.18-3.55-1.84-1.08.898-1.97 2.46-1.97 3.47 0 1.08-1.4 1.84-3.4 1.84h-3.4zm84.1 11.9c2.88-2.88 3.27-4.44 3.25-13-.0107-5.35-.461-10.4-1-11.2-4.43-6.69-26.7-9.01-37-3.85-4.17 2.08-5.43 3.54-5.79 6.64-.949 8.36 5.53 20.6 12.3 23.4 1.53.618 7.75 1.16 13.8 1.21 10 .0767 11.4-.222 14.3-3.19zm-31.4-8.2c0-.444 1.52-2.61 3.38-4.82l3.38-4.01-3.44-4.51-3.44-4.51h3.25c2.12 0 3.49.921 3.94 2.67.384 1.47 1.31 2.67 2.07 2.67.753 0 1.75-1.2 2.21-2.67.563-1.77 2.02-2.67 4.34-2.67h3.49l-3.58 3.74c-4.41 4.6-4.43 5.38-.249 9.88 1.83 1.98 3.33 3.92 3.33 4.32 0 .399-1.5.725-3.33.725-1.94 0-3.33-.766-3.33-1.84 0-1.01-.885-2.57-1.97-3.47-1.62-1.35-2.24-1.02-3.55 1.84-1.35 2.96-6.49 5.07-6.49 2.66zm-6.95-22.7c2.41-1.07 8.11-2.49 12.7-3.14 7.98-1.15 7.87-1.17-3.05-.630-12.5.614-12.3-1.36.157-2.73 5.36-.584 10.4.0650 19.8 2.57 6.94 1.84 12.8 3.22 12.9 3.05.168-.168-.207-5.76-.832-12.4-1.3-13.9-4.41-21.3-11.1-26.4-6.14-4.68-11.1-5.37-20.8-2.88-10.5 2.69-30.6 2.75-39.3.113-11.6-3.51-14.6-2.84-22.7 5.01-7.96 7.75-9.44 11.5-10.9 27.6-.763 8.22-.601 9.77.961 9.17 9.24-3.54 26.3-6.56 32.7-5.77 11 1.38 9.77 3.23-1.81 2.66l-10.3-.505 8.31 1.19c4.57.654 9.97 2.04 12 3.09 4.84 2.49 15.9 2.51 21.4.0521z" fill="#705654"/>
  <path d="m45.9 262c-.950-5.98-5.46-24.7-6.78-28.2-0.6-1.56 1.32-2.66 8.33-4.75 11.7-3.5 33-7.14 33.5-5.72 1.01 3.04 12.9 22.2 19.3 31.1 4 5.57 7.71 10.8 8.23 11.7.709 1.15-7.02 1.54-30.3 1.54h-31.3zm78 1.88c0-2.08.893-6.73 1.98-10.3 1.96-6.47 1.95-6.57-1.34-9l-3.33-2.45 2.64-3.71c1.45-2.04 4.18-4.71 6.05-5.94 3.24-2.12 3.61-2.1 7.37.583 2.18 1.55 4.64 4.09 5.47 5.64 1.28 2.4.996 3.26-1.9 5.75-3.02 2.6-3.28 3.51-2.32 8.09.598 2.84 1.48 7.41 1.95 10.2l.867 5h-8.73c-8.7 0-8.73-.012-8.73-3.79zm34.1 2.12c.524-.917 3.8-5.57 7.28-10.3 5.96-8.16 19.3-29.3 20.2-32.1.531-1.59 20.9 1.78 33.5 5.53 7.51 2.24 8.96 3.12 8.22 4.98-1.6 4.04-5.74 20.9-6.7 27.3l-.938 6.26h-31.3c-24.6 0-31.1-.354-30.3-1.67zm-31.8-57.1c-13.5-3.35-30.7-18.1-38.1-32.9-2.3-4.55-4.18-8.59-4.18-8.96 0-.377 4.95 4.26 11 10.3 6.79 6.78 14.3 12.8 19.7 15.6 7.7 4.14 9.78 4.66 18.7 4.66 8.88 0 11-.518 18.5-4.62 4.96-2.68 13.2-9.17 19.6-15.5 10.1-9.86 10.9-10.4 9.09-6.04-9.78 23.7-36.1 41.9-54.2 37.4zm-4.79-31.8c-3.18-2.01.752-3.11 11.1-3.11 10.4 0 14.3 1.1 11.1 3.11-.995.630-6.01 1.15-11.1 1.15-5.13 0-10.1-.516-11.1-1.15zm-37.4-38c-2.01-1.09-4.02-3.47-4.48-5.28-.455-1.81-1.56-3.3-2.45-3.3-5.71 0-17.7-25.1-12.9-26.9.654-.244.301-4.64-.784-9.78-2.59-12.2-1.65-24.3 2.52-32.4 1.78-3.45 3.71-6.09 4.3-5.87.589.222 2.46-2.59 4.16-6.26 3.18-6.87 11.7-17 18.1-21.6l3.63-2.58-.733 3c-.680 2.79-.426 2.72 3.52-.974 3.22-3.01 4.51-3.56 5.33-2.23.859 1.39 1.52 1.3 3.27-.452 2.04-2.04 2.2-2.02 2.25.235.042 1.84 1.18 1.15 4.67-2.79 3.1-3.51 4.61-4.5 4.61-3 0 1.22.553 2.22 1.23 2.22 1.75 0 10.4-10.4 12.4-14.9 1.86-4.2 3.04-4.72 4.15-1.83.409 1.07 3.15 3.17 6.1 4.67 2.94 1.5 5.98 3.91 6.75 5.34.769 1.44 2.2 2.3 3.18 1.93.980-.376 3.65 1.45 5.94 4.05s4.87 4.73 5.74 4.73 3.59 1.53 6.04 3.4 4.46 2.95 4.46 2.41c0-2.29 9.81 8.66 12.7 14.2 2.16 4.11 3.19 5.16 3.26 3.33.101-2.59.160-2.59 2-.170 1.04 1.37 2.94 6.58 4.23 11.6 1.29 4.99 2.75 8.83 3.25 8.52 1.47-.911 3.88 10.7 3.88 18.6 0 4.07-1.14 10.4-2.54 14.1-1.4 3.67-2 6.35-1.33 5.94 4.29-2.65-4.87 19.2-10.2 24.4-2.51 2.44-4.57 4.98-4.57 5.65 0 2.47-10.5 4.26-22.3 3.8-10.7-.420-12.5-.856-15.7-3.81-4.33-4.05-8.31-11.5-9.72-18.3-.855-4.11-1.62-5.02-4.23-5.02-2.68 0-3.44.994-4.78 6.25-2.1 8.25-6.66 15.4-11.8 18.5-5.34 3.26-27.4 3.56-33.1.447zm31.1-2.64c6.8-3.52 13.4-19.3 10.4-24.8-5.03-9.4-36.7-9.97-43.1-.783-3.89 5.55-1.66 22.6 3.35 25.7 5.73 3.54 22.4 3.47 29.4-.112zm-16.4-14c2.97-4.17 2.89-5.16-.844-10.3-2.05-2.82-2.03-3 .327-3 1.38 0 3.26 1.2 4.17 2.67.916 1.47 2.22 2.67 2.9 2.67.678 0 1.61-1.2 2.08-2.67.472-1.49 2.02-2.67 3.49-2.67 2.5 0 2.46.244-.689 4.37l-3.33 4.37 3.36 4.3c3 3.83 3.1 4.3.920 4.3-1.34 0-3.19-1.2-4.11-2.67-.916-1.47-2.22-2.67-2.9-2.67-.678 0-1.61 1.2-2.08 2.67-.475 1.5-2.02 2.67-3.51 2.67-2.62 0-2.62-.071.214-4.05zm82.3 13.9c3.99-2.61 5.63-7.11 5.63-15.4 0-12.8-5.11-16.4-23.3-16.4-22.8 0-27.9 7.33-17.5 25.1 4.61 7.87 11.4 10.4 24.8 9.3 4.02-.332 8.7-1.51 10.4-2.63zm-27.1-13.8 3.78-3.95-3.6-4.72-3.6-4.72h3.25c2.12 0 3.49.921 3.94 2.67.384 1.47 1.41 2.67 2.28 2.67.871 0 1.9-1.2 2.28-2.67.386-1.48 1.82-2.67 3.21-2.67 3.24 0 3.17 1.13-.324 4.85-2.91 3.1-2.79 4.31.979 9.49 2.07 2.85 2.04 3-.558 3-1.57 0-3.1-1.14-3.59-2.67-.466-1.47-1.4-2.67-2.08-2.67-.678 0-1.98 1.2-2.9 2.67-.916 1.47-2.83 2.67-4.26 2.67-2.3 0-2.17-.442 1.19-3.95zm-9.65-18.2c4.83-2.5 26.7-4.65 31.7-3.11 1.84.575 5.09 1.43 7.22 1.9l3.86.852-.745-9.86c-1.06-14-3.42-20.7-9.61-27.1-6.59-6.87-11-8.12-20.7-5.84-12.1 2.86-32.1 3.26-40.5.808-12.5-3.63-15.7-3.02-24 4.59-6.7 6.13-7.53 7.52-9.44 15.9-1.79 7.86-2.88 21.4-1.74 21.4.198 0 4.85-1.29 10.3-2.86 10.6-3.03 25.7-3.89 29.7-1.68 1.66.938-1.47 1.24-10.7 1.04l-13-.291 10.7 1.02c5.88.564 12.5 1.99 14.7 3.18 5.18 2.8 16.9 2.86 22.3.102zm.142-4.15c1.24-2 14.1-3.19 19.6-1.81 4.09 1.03 3.52 1.19-4.67 1.33-5.13.0851-10.8.541-12.5 1.01-2.07.553-2.9.365-2.35-.529z" fill="#662663"/>
  <path d="m45.9 262c-.899-5.99-5.18-23.4-6.79-27.6-.975-2.54 10.4-6.41 26.1-8.84 5.5-.855 11.3-1.82 12.8-2.15 2.21-.461 3.24.372 4.63 3.73.982 2.38 7.32 12.6 14.1 22.7 11.4 17 12.1 18.3 9.04 18.3-1.86 0-3.27-.778-3.27-1.81 0-2.08-14-11.8-15.2-10.6-.445.445-.808 3.41-.808 6.59 0 5.15-.335 5.78-3.08 5.78-1.7 0-4.81-1.8-6.92-4s-4.24-4-4.75-4c-.504 0-1.28 1.8-1.72 4-.701 3.5-1.36 4-5.34 4-2.5 0-5.32-.938-6.27-2.08-1.57-1.89-1.84-1.89-2.9 0-.642 1.15-2.87 2.08-4.95 2.08-3.47 0-3.86-.501-4.7-6.14zm11.3-5.52c.01-2.75.356-6.26.768-7.79.678-2.53 1.36-2.15 7.13 3.9l6.38 6.69.970-9.06.970-9.06 6.51 6.41c3.58 3.53 6.84 6.09 7.24 5.68.402-.402.332-4.27-.155-8.59-.799-7.09-1.49-8.44-7.03-13.8l-6.15-5.98-.667 7.91-.667 7.91-5.68-6.47c-3.13-3.56-5.9-6.23-6.16-5.93-.264.297-1.01 4.13-1.65 8.51l-1.17 7.97-5.32-7.25-5.32-7.25-.937 5.28c-1.92 10.8-1.33 14 3.67 20.1 2.62 3.19 5.32 5.8 6 5.8.684 0 1.25-2.25 1.26-5zm66.6 7.88c0-2.08.893-6.73 1.98-10.3 1.96-6.47 1.95-6.57-1.34-9l-3.33-2.45 2.64-3.71c1.45-2.04 4.18-4.71 6.05-5.94 3.24-2.12 3.61-2.1 7.37.583 2.18 1.55 4.64 4.09 5.47 5.64 1.28 2.4.996 3.26-1.9 5.75-3.02 2.6-3.28 3.51-2.32 8.09.598 2.84 1.48 7.41 1.95 10.2l.867 5h-8.73c-8.7 0-8.73-.012-8.73-3.79zm35.2.788c7.3-10.1 22.3-33.2 24.3-37.3 2.61-5.47.903-5.35 21.1-1.48 17.7 3.41 23.9 5.6 22.8 8.19-1.6 4.03-5.73 20.9-6.69 27.3-.871 5.81-1.22 6.26-4.83 6.26-2.28 0-4.22-.854-4.68-2.06-.705-1.84-1.04-1.83-3.17.0937-1.46 1.33-4.09 1.99-6.84 1.72-3.74-.359-4.53-1.01-4.88-4.09-.232-2.02-.753-3.67-1.16-3.67-.404 0-2.79 1.8-5.29 4-6.33 5.56-9.8 5.36-9.8-.558 0-8.76-.845-9.13-8.78-3.86-3.97 2.63-7.22 5.61-7.22 6.6 0 1.07-1.44 1.81-3.5 1.81-3.38 0-3.42-.102-1.33-3zm62.1-19.7c-.0272-2.57-.471-7.04-.987-9.95l-.937-5.28-5.32 7.26-5.32 7.26-1.19-8.32c-.652-4.57-1.58-8.32-2.05-8.32-.476 0-3.24 2.85-6.15 6.33l-5.28 6.33-.667-7.98-.667-7.98-6.17 5.98c-5.52 5.35-6.27 6.79-7.11 13.8-.519 4.28-.580 8.14-.136 8.59.444.444 3.72-2.06 7.28-5.56l6.47-6.37.977 9.12.977 9.12 6.38-6.94c5.9-6.41 6.44-6.72 7.17-4 .434 1.62.820 5.64.858 8.94l.0695 6 5.92-6.67c4.66-5.24 5.91-7.66 5.87-11.3zm-94.9-36.1c-13.5-3.35-30.7-18.1-38.1-32.9-2.3-4.55-4.18-8.59-4.18-8.96 0-.377 4.95 4.26 11 10.3 6.79 6.78 14.3 12.8 19.7 15.6 7.7 4.14 9.78 4.66 18.7 4.66 8.88 0 11-.518 18.5-4.62 4.96-2.68 13.2-9.17 19.6-15.5 10.1-9.86 10.9-10.4 9.09-6.04-9.78 23.7-36.1 41.9-54.2 37.4zm-4.79-31.8c-3.18-2.01.752-3.11 11.1-3.11 10.4 0 14.3 1.1 11.1 3.11-.995.630-6.01 1.15-11.1 1.15-5.13 0-10.1-.516-11.1-1.15zm-37.4-38c-2.01-1.09-4.02-3.47-4.48-5.28-.455-1.81-1.56-3.3-2.45-3.3-5.71 0-17.7-25.1-12.9-26.9.654-.244.301-4.64-.784-9.78-2.59-12.2-1.65-24.3 2.52-32.4 1.78-3.45 3.71-6.09 4.3-5.87.589.222 2.46-2.59 4.16-6.26 3.18-6.87 11.7-17 18.1-21.6l3.63-2.58-.733 3c-.680 2.79-.426 2.72 3.52-.974 3.22-3.01 4.51-3.56 5.33-2.23.859 1.39 1.52 1.3 3.27-.452 2.04-2.04 2.2-2.02 2.25.235.042 1.84 1.18 1.15 4.67-2.79 3.1-3.51 4.61-4.5 4.61-3 0 1.22.553 2.22 1.23 2.22 1.75 0 10.4-10.4 12.4-14.9 1.86-4.2 3.04-4.72 4.15-1.83.409 1.07 3.15 3.17 6.1 4.67 2.94 1.5 5.98 3.91 6.75 5.34.769 1.44 2.2 2.3 3.18 1.93.980-.376 3.65 1.45 5.94 4.05s4.87 4.73 5.74 4.73 3.59 1.53 6.04 3.4 4.46 2.95 4.46 2.41c0-2.29 9.81 8.66 12.7 14.2 2.16 4.11 3.19 5.16 3.26 3.33.101-2.59.160-2.59 2-.170 1.04 1.37 2.94 6.58 4.23 11.6 1.29 4.99 2.75 8.83 3.25 8.52 1.47-.911 3.88 10.7 3.88 18.6 0 4.07-1.14 10.4-2.54 14.1-1.4 3.67-2 6.35-1.33 5.94 4.29-2.65-4.87 19.2-10.2 24.4-2.51 2.44-4.57 4.98-4.57 5.65 0 2.47-10.5 4.26-22.3 3.8-10.7-.420-12.5-.856-15.7-3.81-4.33-4.05-8.31-11.5-9.72-18.3-.855-4.11-1.62-5.02-4.23-5.02-2.68 0-3.44.994-4.78 6.25-2.1 8.25-6.66 15.4-11.8 18.5-5.34 3.26-27.4 3.56-33.1.447zm31.1-2.64c6.8-3.52 13.4-19.3 10.4-24.8-5.03-9.4-36.7-9.97-43.1-.783-3.89 5.55-1.66 22.6 3.35 25.7 5.73 3.54 22.4 3.47 29.4-.112zm-16.4-14c2.97-4.17 2.89-5.16-.844-10.3-2.05-2.82-2.03-3 .327-3 1.38 0 3.26 1.2 4.17 2.67.916 1.47 2.22 2.67 2.9 2.67.678 0 1.61-1.2 2.08-2.67.472-1.49 2.02-2.67 3.49-2.67 2.5 0 2.46.244-.689 4.37l-3.33 4.37 3.36 4.3c3 3.83 3.1 4.3.920 4.3-1.34 0-3.19-1.2-4.11-2.67-.916-1.47-2.22-2.67-2.9-2.67-.678 0-1.61 1.2-2.08 2.67-.475 1.5-2.02 2.67-3.51 2.67-2.62 0-2.62-.071.214-4.05zm82.3 13.9c3.99-2.61 5.63-7.11 5.63-15.4 0-12.8-5.11-16.4-23.3-16.4-22.8 0-27.9 7.33-17.5 25.1 4.61 7.87 11.4 10.4 24.8 9.3 4.02-.332 8.7-1.51 10.4-2.63zm-27.1-13.8 3.78-3.95-3.6-4.72-3.6-4.72h3.25c2.12 0 3.49.921 3.94 2.67.384 1.47 1.41 2.67 2.28 2.67.871 0 1.9-1.2 2.28-2.67.386-1.48 1.82-2.67 3.21-2.67 3.24 0 3.17 1.13-.324 4.85-2.91 3.1-2.79 4.31.979 9.49 2.07 2.85 2.04 3-.558 3-1.57 0-3.1-1.14-3.59-2.67-.466-1.47-1.4-2.67-2.08-2.67-.678 0-1.98 1.2-2.9 2.67-.916 1.47-2.83 2.67-4.26 2.67-2.3 0-2.17-.442 1.19-3.95zm-9.65-18.2c4.83-2.5 26.7-4.65 31.7-3.11 1.84.575 5.09 1.43 7.22 1.9l3.86.852-.745-9.86c-1.06-14-3.42-20.7-9.61-27.1-6.59-6.87-11-8.12-20.7-5.84-12.1 2.86-32.1 3.26-40.5.808-12.5-3.63-15.7-3.02-24 4.59-6.7 6.13-7.53 7.52-9.44 15.9-1.79 7.86-2.88 21.4-1.74 21.4.198 0 4.85-1.29 10.3-2.86 10.6-3.03 25.7-3.89 29.7-1.68 1.66.938-1.47 1.24-10.7 1.04l-13-.291 10.7 1.02c5.88.564 12.5 1.99 14.7 3.18 5.18 2.8 16.9 2.86 22.3.102zm.142-4.15c1.24-2 14.1-3.19 19.6-1.81 4.09 1.03 3.52 1.19-4.67 1.33-5.13.0851-10.8.541-12.5 1.01-2.07.553-2.9.365-2.35-.529z" fill="#67493b"/>
  <path d="m45.9 262c-.899-5.99-5.18-23.4-6.79-27.6-.975-2.54 10.4-6.41 26.1-8.84 5.5-.855 11.3-1.82 12.8-2.15 2.21-.461 3.24.372 4.63 3.73.982 2.38 7.32 12.6 14.1 22.7 11.4 17 12.1 18.3 9.04 18.3-1.86 0-3.27-.778-3.27-1.81 0-2.08-14-11.8-15.2-10.6-.445.445-.808 3.41-.808 6.59 0 5.15-.335 5.78-3.08 5.78-1.7 0-4.81-1.8-6.92-4s-4.24-4-4.75-4c-.504 0-1.28 1.8-1.72 4-.701 3.5-1.36 4-5.34 4-2.5 0-5.32-.938-6.27-2.08-1.57-1.89-1.84-1.89-2.9 0-.642 1.15-2.87 2.08-4.95 2.08-3.47 0-3.86-.501-4.7-6.14zm11.3-5.52c.01-2.75.356-6.26.768-7.79.678-2.53 1.36-2.15 7.13 3.9l6.38 6.69.970-9.06.970-9.06 6.51 6.41c3.58 3.53 6.84 6.09 7.24 5.68.402-.402.332-4.27-.155-8.59-.799-7.09-1.49-8.44-7.03-13.8l-6.15-5.98-.667 7.91-.667 7.91-5.68-6.47c-3.13-3.56-5.9-6.23-6.16-5.93-.264.297-1.01 4.13-1.65 8.51l-1.17 7.97-5.32-7.25-5.32-7.25-.937 5.28c-1.92 10.8-1.33 14 3.67 20.1 2.62 3.19 5.32 5.8 6 5.8.684 0 1.25-2.25 1.26-5zm66.6 7.88c0-2.08.893-6.73 1.98-10.3 1.96-6.47 1.95-6.57-1.34-9l-3.33-2.45 2.64-3.71c1.45-2.04 4.18-4.71 6.05-5.94 3.24-2.12 3.61-2.1 7.37.583 2.18 1.55 4.64 4.09 5.47 5.64 1.28 2.4.992 3.27-1.96 5.8l-3.47 2.98 1.93 9.1c1.06 5.01 1.94 9.55 1.95 10.1.0133.55-3.88 1-8.64 1-8.63 0-8.67-.0147-8.67-3.79zm35.2.788c7.3-10.1 22.3-33.2 24.3-37.3 2.61-5.47.903-5.35 21.1-1.48 17.7 3.41 23.9 5.6 22.8 8.19-1.6 4.03-5.73 20.9-6.69 27.3-.871 5.81-1.22 6.26-4.83 6.26-2.28 0-4.22-.854-4.68-2.06-.705-1.84-1.04-1.83-3.17.0937-1.46 1.33-4.09 1.99-6.84 1.72-3.74-.359-4.53-1.01-4.88-4.09-.232-2.02-.753-3.67-1.16-3.67-.404 0-2.79 1.8-5.29 4-6.33 5.56-9.8 5.36-9.8-.558 0-8.76-.845-9.13-8.78-3.86-3.97 2.63-7.22 5.61-7.22 6.6 0 1.07-1.44 1.81-3.5 1.81-3.38 0-3.42-.102-1.33-3zm62.1-19.7c-.0272-2.57-.471-7.04-.987-9.95l-.937-5.28-5.32 7.26-5.32 7.26-1.19-8.32c-.652-4.57-1.58-8.32-2.05-8.32-.476 0-3.24 2.85-6.15 6.33l-5.28 6.33-.667-7.98-.667-7.98-6.17 5.98c-5.52 5.35-6.27 6.79-7.11 13.8-.519 4.28-.580 8.14-.136 8.59.444.444 3.72-2.06 7.28-5.56l6.47-6.37.977 9.12.977 9.12 6.38-6.94c5.9-6.41 6.44-6.72 7.17-4 .434 1.62.820 5.64.858 8.94l.0695 6 5.92-6.67c4.66-5.24 5.91-7.66 5.87-11.3zm-95.9-36.8c-13.1-3.52-27.1-14.9-35.1-28.5-7.44-12.7-6.4-13.2 4.79-2.09 13.3 13.2 24.4 19.5 36.9 20.9l8.67.992-9.33-.381c-10.9-.446-19.2-4.07-29-12.8-9.27-8.17-7.74-4.46 2.03 4.91 11.4 10.9 18 14.2 29 14.2 11.4.0709 20.4-4.54 31.7-16.2 8.4-8.68 11.5-14.3 4.6-8.27-2.05 1.79-1.18.697 1.93-2.42s6.59-7 7.73-8.63c3.79-5.42 2.23.654-2.14 8.3-8.51 14.9-26.5 29-39.8 31.1-2.57.410-7.95-.135-12-1.21zm-29.1-28c0-.277-1.05-1.33-2.33-2.33-2.11-1.66-2.16-1.61-.503.503 1.74 2.22 2.84 2.93 2.84 1.83zm49.2 15.8c2.47-1.07 4.87-1.93 5.33-1.9 1.73.0968-5.9 3.86-7.82 3.85-1.1-.003.0189-.881 2.49-1.95zm7.51-2.83c3.41-3.23 11.8-8.69 9.76-6.36-1.23 1.42-4.23 3.71-6.67 5.1-2.43 1.39-3.82 1.95-3.09 1.26zm-30-16.3c-2.93-.816-3.04-1.04-.891-1.87 3.52-1.35 20.6-1.16 21.5.243 1.57 2.54-13.1 3.7-20.6 1.62zm-36.4-37c-3.14-1.15-8-6.01-8-8 0-.995-1.05-2.21-2.33-2.7-3.31-1.27-7.03-6.04-6.31-8.09.337-.955.0081-1.36-.730-.907-1.72 1.06-6.62-9.64-6.42-14 .119-2.62.268-2.76.689-.667.462 2.3 6.82 6.73 7.98 5.57.224-.224-.780-4.56-2.23-9.63-3.9-13.5-4.8-24.7-2.8-33.1l1.69-7.05 3.08 5.9 3.08 5.9.0919-6.67c.0986-7.15 4.32-18.9 9.28-25.9 1.67-2.35 2.75-4.56 2.39-4.92-.876-.876-7.92 8.19-11.5 14.8-3.2 5.91-2.45 1.26.840-5.21 3.47-6.81 19.6-22.6 18.9-18.5-.540 3.23.550 3.16 4.1-.238 3.67-3.52 4.02-3.61 4.79-1.25.457 1.4 1.35 4.05 1.98 5.88s1.37 4.83 1.64 6.67c.489 3.32.495 3.32 2.08-.667 4.02-10.1 3.59-9.75 6.17-4.76l2.36 4.56 1.71-4.06c.939-2.23 4.16-6.03 7.15-8.44s5.82-5.56 6.28-7.02c1.44-4.55 3.17.244 3.19 8.88.0177 6.81.281 7.61 2.02 6.17 1.1-.914 3.15-5.34 4.54-9.83l2.54-8.17 2.76 6c1.52 3.3 2.81 7.5 2.88 9.33.0676 1.83.612 4.53 1.21 6 1.17 2.87.932 3.43 3.94-9.29.873-3.69 1.28-3.14 6.19 8.3 2.89 6.74 5.68 12.3 6.19 12.3.513.0168 1.11-3.38 1.33-7.54l0.4-7.57 3.89 5.63c2.14 3.09 4.65 8.45 5.58 11.9 1.54 5.74 1.7 5.9 1.78 1.94.0495-2.38.547-4.33 1.11-4.33 1.42 0 6.96 19.8 7.09 25.4l.109 4.59 1.97-4.53c1.45-3.31 1.62-5.46.659-8-.723-1.91-1.71-5.85-2.2-8.76-1.06-6.33-3.64-11.6-9-18.4-4.58-5.83-6.15-5.72-3.09.205 3.17 6.14 2.43 6.87-1.11 1.1-3-5.7-9-12.9-11-12.9-.615 0-.203 1.77.916 3.93s2.02 5.01 2 6.33c-.0161 1.32-1.21-.212-2.66-3.4s-4.5-8.29-6.78-11.3l-4.15-5.53 4.13 4.33c2.27 2.38 4.83 4.33 5.69 4.33.858 0 3.57 1.53 6.02 3.4s4.46 2.96 4.46 2.42c0-2.18 8.51 7.26 12 13.3 2.28 3.97 3.99 5.77 4.43 4.67 1.16-2.88 3.22 1.06 5.82 11.1 1.27 4.9 2.73 8.65 3.26 8.32 1.35-.837 3.85 11.7 3.8 19.2-.024 3.45-1.13 9.4-2.45 13.2-1.32 3.83-1.92 7.13-1.33 7.33.591.204-.410 4.46-2.23 9.46-2.44 6.7-5.08 10.9-10.1 16l-6.81 6.92-13 .453c-18.8.654-24.3-2.99-29.4-19.6-1.92-6.2-2.86-7.53-5.3-7.53s-3.38 1.33-5.3 7.53c-2.81 9.09-6.92 15.2-12.1 17.8-3.78 1.96-24.8 2.7-29.3 1.04zm28.8-3.96c6.81-4.46 13.2-21 9.75-25.2-4.88-5.88-22-8.97-33.1-5.97-9.13 2.48-12.2 6.41-12.2 15.7.0061 9.59 3.35 15.7 9.61 17.6 5.8 1.77 22 .431 25.9-2.14zm-16.4-14 3.32-4.24-3.38-4.43c-3.07-4.02-3.15-4.43-.874-4.43 1.38 0 3.25 1.2 4.17 2.67.916 1.47 2.22 2.67 2.9 2.67.678 0 1.61-1.2 2.08-2.67.472-1.49 2.02-2.67 3.49-2.67 2.48 0 2.43.281-.799 4.51l-3.44 4.51 3.49 4.15c2.85 3.39 3.08 4.15 1.26 4.15-1.23 0-3.35-1.35-4.72-3l-2.48-3-2.14 3c-1.18 1.65-3.05 3-4.17 3-1.53 0-1.22-1.02 1.3-4.24zm83.5 12.9c2.74-2.74 3.4-4.89 3.83-12.6.478-8.46.234-9.55-2.8-12.6-8.49-8.49-34.8-7.83-42.2 1.06-1.38 1.67-1.41 3.35-.136 8.42 3.98 15.8 11.9 21 30 19.6 6.22-.470 8.71-1.33 11.3-3.91zm-28.7-12.6c3.91-4.08 3.81-5.1-.994-10.4-2.46-2.73-2.49-3-.349-3 1.29 0 3.4 1.3 4.68 2.88 2.41 2.98 5.43 2.45 5.43-.958 0-1.06 1.2-1.92 2.67-1.92s2.67.507 2.67 1.13c0 .620-1.2 2.21-2.67 3.54-3.34 3.02-3.33 3.99.0908 8.79 2.23 3.13 2.37 3.87.742 3.87-1.11 0-2.98-1.35-4.16-3l-2.14-3-2.48 3c-1.36 1.65-3.54 3-4.85 3-1.96 0-1.72-.673 1.36-3.89zm44.1-9.28c.759-2.39.589-2.91-.699-2.11-1.27.782-1.43.397-.649-1.5 3.38-8.2 4.73-15.6 4.67-25.8-.0555-10.6-.194-11.1-1.78-7.45-1.67 3.88-1.75 3.73-2.51-5.33-.433-5.13-1.55-11.7-2.48-14.7-1.46-4.59-1.77-4.89-2.22-2.14-.287 1.76.256 5.96 1.21 9.33.951 3.38 1.73 11.5 1.74 18 .008 10.7.180 11.5 1.66 8 2.82-6.61 2.19.882-.768 9.07-1.4 3.88-2.95 9.41-3.44 12.3-.809 4.73-.685 5.08 1.25 3.47 1.91-1.59 2.02-1.43.970 1.41-.649 1.76-1.55 5-2 7.2-.693 3.37-.439 3.16 1.61-1.34 1.34-2.94 2.88-6.76 3.44-8.5zm-53.5-9.11c3.26-1.74 7.72-2.29 18.9-2.33 8.07-.0291 16.7 0.4 19.2.953l4.53 1.01-.885-11.7c-2-26.2-14-36.3-35-30.8-10 2.7-27 2.8-36 .2-3.6-1.09-9.11-1.99-12.2-1.99-5.02 0-6.5.777-12.4 6.48-7.4 7.2-9.2 11.9-10.7 27.9l-.925 9.68 4.73-1.01c2.6-.555 11.3-.988 19.4-.962 11.2.0366 15.6.581 18.7 2.28 5.3 2.96 16.9 2.99 22.4.0582zm-48.9-65.7 3.13-4.64.0935 5.98.0935 5.98 2.39-7.01c1.31-3.85 2.1-8.53 1.74-10.4-.629-3.29-.723-3.32-3.34-.994-1.48 1.31-3.81 4.19-5.18 6.39l-2.49 4 .847-4.67.847-4.67-3.09 2.96c-2.59 2.48-3.03 4.1-2.72 9.98.467 8.79 1.59 10.7 3.26 5.66.711-2.16 2.7-6.02 4.42-8.58zm-31.3 60c-2.76-12.6-2.49-27.4.610-34.3 3.13-6.96 4-6.71 1.46.431-2.26 6.35-2.55 23.2-.554 32.6.794 3.7 1.2 7.46.908 8.34-.295.885-1.38-2.27-2.42-7zm6.07-39.9c-.501-1.58-.610-3.17-.243-3.53.367-.367 1.08.624 1.58 2.2.501 1.58.610 3.17.243 3.53-.367.367-1.08-.624-1.58-2.2zm38.3-32c0-2.57.274-3.62.610-2.33.335 1.28.335 3.38 0 4.67-.335 1.28-.610.233-.610-2.33zm9.19-4c0-4.9.221-5.45 1.21-3 .719 1.79.719 4.21 0 6-.985 2.45-1.21 1.9-1.21-3zm-4.84 1.33c1.33-1.47 2.71-2.67 3.08-2.67.367 0-.419 1.2-1.75 2.67s-2.71 2.67-3.08 2.67c-.367 0 .419-1.2 1.75-2.67zm37.6-5c-1.53-3.36-1.65-4.21-.382-2.6 1.42 1.8 2.07 1.97 2.59.667.383-.956.743.213.801 2.6.0579 2.38-.0836 4.33-.314 4.33-.231 0-1.44-2.25-2.7-5zm-25-2.3c1.91-2.24 4.46-5.56 5.67-7.37s2.2-2.62 2.2-1.8c0 .826-2.55 4.14-5.67 7.37s-4.11 4.04-2.2 1.8zm13.6-5.03c-1.95-4.36-2.32-6.13-1.07-5.09 1.88 1.56 5.43 10.5 4.52 11.3-.256.242-1.81-2.57-3.45-6.24z" fill="#571854"/>
  <path d="m46.8 264c.0272-2.2.326-2.94.664-1.64s.316 3.1-.0494 4c-.365.903-.642-.159-.615-2.36zm55.8-1.87c-4.73-5.97-18.8-29.4-18.8-31.3 0-0.7 3.3 3.98 7.33 10.4s9.24 14.2 11.6 17.2c2.34 3.04 4.82 6.28 5.5 7.2.799 1.07.750 1.67-.135 1.67-.762 0-3.24-2.34-5.51-5.2zm21.2 1.41c0-2.08.893-6.73 1.98-10.3 1.96-6.47 1.95-6.57-1.34-9l-3.33-2.45 2.64-3.71c1.45-2.04 4.18-4.71 6.05-5.94 3.24-2.12 3.61-2.1 7.37.583 2.18 1.55 4.64 4.09 5.47 5.64 1.28 2.4.992 3.27-1.96 5.8l-3.47 2.98 1.93 9.1c1.06 5.01 1.94 9.55 1.95 10.1.0133.55-3.88 1-8.64 1-8.63 0-8.67-.0147-8.67-3.79zm45.7-14.5c6.77-10.2 12.5-18.4 12.8-18.2 1.61 1.1-20.5 35.3-23.4 36.2-.899.287 3.9-7.81 10.7-18zm49.2 14.3c-.009-3.74 3.36-17.8 3.52-14.7.0551 1.1-.712 5.6-1.7 10-.993 4.4-1.81 6.5-1.81 4.67zm-174-5c0-1.83.303-2.58.673-1.67.370.917.370 2.42 0 3.33-.370.917-.673.167-.673-1.67zm-1.44-6.11c.0640-1.55.380-1.87.806-.806.385.962.338 2.11-.105 2.56-.443.443-.758-.344-0.7-1.75zm-1.33-5.33c.0640-1.55.380-1.87.806-.806.385.962.338 2.11-.105 2.56-.443.443-.758-.344-0.7-1.75zm170-18c.962-.385 2.11-.338 2.56.105.443.443-.344.758-1.75 0.7-1.55-.064-1.87-.380-.806-.806zm-143-4c.962-.385 2.11-.338 2.56.105.443.443-.344.758-1.75 0.7-1.55-.064-1.87-.380-.806-.806zm55-15.9c-13.1-3.52-27.1-14.9-35.1-28.5-7.44-12.7-6.4-13.2 4.79-2.09 13.3 13.2 24.4 19.5 36.9 20.9l8.67.992-9.33-.381c-10.9-.446-19.2-4.07-29-12.8-9.27-8.17-7.74-4.46 2.03 4.91 11.4 10.9 18 14.2 29 14.2 11.4.0709 20.4-4.54 31.7-16.2 8.4-8.68 11.5-14.3 4.6-8.27-2.05 1.79-1.18.697 1.93-2.42s6.59-7 7.73-8.63c3.79-5.42 2.23.654-2.14 8.3-8.51 14.9-26.5 29-39.8 31.1-2.57.410-7.95-.135-12-1.21zm-29.1-28c0-.277-1.05-1.33-2.33-2.33-2.11-1.66-2.16-1.61-.503.503 1.74 2.22 2.84 2.93 2.84 1.83zm49.2 15.8c2.47-1.07 4.87-1.93 5.33-1.9 1.73.0968-5.9 3.86-7.82 3.85-1.1-.003.0189-.881 2.49-1.95zm7.51-2.83c3.41-3.23 11.8-8.69 9.76-6.36-1.23 1.42-4.23 3.71-6.67 5.1-2.43 1.39-3.82 1.95-3.09 1.26zm-30-16.3c-2.93-.816-3.04-1.04-.891-1.87 3.52-1.35 20.6-1.16 21.5.243 1.57 2.54-13.1 3.7-20.6 1.62zm-36.4-37c-3.14-1.15-8-6.01-8-8 0-.995-1.05-2.21-2.33-2.7-3.31-1.27-7.03-6.04-6.31-8.09.337-.955.0081-1.36-.730-.907-1.72 1.06-6.62-9.64-6.42-14 .119-2.62.268-2.76.689-.667.462 2.3 6.82 6.73 7.98 5.57.224-.224-.780-4.56-2.23-9.63-3.9-13.5-4.8-24.7-2.8-33.1l1.69-7.05 3.08 5.9 3.08 5.9.0919-6.67c.0986-7.15 4.32-18.9 9.28-25.9 1.67-2.35 2.75-4.56 2.39-4.92-.876-.876-7.92 8.19-11.5 14.8-3.2 5.91-2.45 1.26.840-5.21 3.47-6.81 19.6-22.6 18.9-18.5-.540 3.23.550 3.16 4.1-.238 3.67-3.52 4.02-3.61 4.79-1.25.457 1.4 1.35 4.05 1.98 5.88s1.37 4.83 1.64 6.67c.489 3.32.495 3.32 2.08-.667 4.02-10.1 3.59-9.75 6.17-4.76l2.36 4.56 1.71-4.06c.939-2.23 4.16-6.03 7.15-8.44s5.82-5.56 6.28-7.02c1.44-4.55 3.17.244 3.19 8.88.0177 6.81.281 7.61 2.02 6.17 1.1-.914 3.15-5.34 4.54-9.83l2.54-8.17 2.76 6c1.52 3.3 2.81 7.5 2.88 9.33.0676 1.83.612 4.53 1.21 6 1.17 2.87.932 3.43 3.94-9.29.873-3.69 1.28-3.14 6.19 8.3 2.89 6.74 5.68 12.3 6.19 12.3.513.0168 1.11-3.38 1.33-7.54l0.4-7.57 3.89 5.63c2.14 3.09 4.65 8.45 5.58 11.9 1.54 5.74 1.7 5.9 1.78 1.94.0495-2.38.547-4.33 1.11-4.33 1.42 0 6.96 19.8 7.09 25.4l.109 4.59 1.97-4.53c1.45-3.31 1.62-5.46.659-8-.723-1.91-1.71-5.85-2.2-8.76-1.06-6.33-3.64-11.6-9-18.4-4.58-5.83-6.15-5.72-3.09.205 3.17 6.14 2.43 6.87-1.11 1.1-3-5.7-9-12.9-11-12.9-.615 0-.203 1.77.916 3.93s2.02 5.01 2 6.33c-.0161 1.32-1.21-.212-2.66-3.4s-4.5-8.29-6.78-11.3l-4.15-5.53 4.13 4.33c2.27 2.38 4.83 4.33 5.69 4.33.858 0 3.57 1.53 6.02 3.4s4.46 2.96 4.46 2.42c0-2.18 8.51 7.26 12 13.3 2.28 3.97 3.99 5.77 4.43 4.67 1.16-2.88 3.22 1.06 5.82 11.1 1.27 4.9 2.73 8.65 3.26 8.32 1.35-.837 3.85 11.7 3.8 19.2-.024 3.45-1.13 9.4-2.45 13.2-1.32 3.83-1.92 7.13-1.33 7.33.591.204-.410 4.46-2.23 9.46-2.44 6.7-5.08 10.9-10.1 16l-6.81 6.92-13 .453c-18.8.654-24.3-2.99-29.4-19.6-1.92-6.2-2.86-7.53-5.3-7.53s-3.38 1.33-5.3 7.53c-2.81 9.09-6.92 15.2-12.1 17.8-3.78 1.96-24.8 2.7-29.3 1.04zm28.8-3.96c6.81-4.46 13.2-21 9.75-25.2-4.88-5.88-22-8.97-33.1-5.97-9.13 2.48-12.2 6.41-12.2 15.7.0061 9.59 3.35 15.7 9.61 17.6 5.8 1.77 22 .431 25.9-2.14zm-16.4-14 3.32-4.24-3.38-4.43c-3.07-4.02-3.15-4.43-.874-4.43 1.38 0 3.25 1.2 4.17 2.67.916 1.47 2.22 2.67 2.9 2.67.678 0 1.61-1.2 2.08-2.67.472-1.49 2.02-2.67 3.49-2.67 2.48 0 2.43.281-.799 4.51l-3.44 4.51 3.49 4.15c2.85 3.39 3.08 4.15 1.26 4.15-1.23 0-3.35-1.35-4.72-3l-2.48-3-2.14 3c-1.18 1.65-3.05 3-4.17 3-1.53 0-1.22-1.02 1.3-4.24zm83.5 12.9c2.74-2.74 3.4-4.89 3.83-12.6.478-8.46.234-9.55-2.8-12.6-8.49-8.49-34.8-7.83-42.2 1.06-1.38 1.67-1.41 3.35-.136 8.42 3.98 15.8 11.9 21 30 19.6 6.22-.470 8.71-1.33 11.3-3.91zm-28.7-12.6c3.91-4.08 3.81-5.1-.994-10.4-2.46-2.73-2.49-3-.349-3 1.29 0 3.4 1.3 4.68 2.88 2.41 2.98 5.43 2.45 5.43-.958 0-1.06 1.2-1.92 2.67-1.92s2.67.507 2.67 1.13c0 .620-1.2 2.21-2.67 3.54-3.34 3.02-3.33 3.99.0908 8.79 2.23 3.13 2.37 3.87.742 3.87-1.11 0-2.98-1.35-4.16-3l-2.14-3-2.48 3c-1.36 1.65-3.54 3-4.85 3-1.96 0-1.72-.673 1.36-3.89zm44.1-9.28c.759-2.39.589-2.91-.699-2.11-1.27.782-1.43.397-.649-1.5 3.38-8.2 4.73-15.6 4.67-25.8-.0555-10.6-.194-11.1-1.78-7.45-1.67 3.88-1.75 3.73-2.51-5.33-.433-5.13-1.55-11.7-2.48-14.7-1.46-4.59-1.77-4.89-2.22-2.14-.287 1.76.256 5.96 1.21 9.33.951 3.38 1.73 11.5 1.74 18 .008 10.7.180 11.5 1.66 8 2.82-6.61 2.19.882-.768 9.07-1.4 3.88-2.95 9.41-3.44 12.3-.809 4.73-.685 5.08 1.25 3.47 1.91-1.59 2.02-1.43.970 1.41-.649 1.76-1.55 5-2 7.2-.693 3.37-.439 3.16 1.61-1.34 1.34-2.94 2.88-6.76 3.44-8.5zm-53.5-9.11c3.26-1.74 7.72-2.29 18.9-2.33 8.07-.0291 16.7 0.4 19.2.953l4.53 1.01-.885-11.7c-2-26.2-14-36.3-35-30.8-10 2.7-27 2.8-36 .2-3.6-1.09-9.11-1.99-12.2-1.99-5.02 0-6.5.777-12.4 6.48-7.4 7.2-9.2 11.9-10.7 27.9l-.925 9.68 4.73-1.01c2.6-.555 11.3-.988 19.4-.962 11.2.0366 15.6.581 18.7 2.28 5.3 2.96 16.9 2.99 22.4.0582zm-48.9-65.7 3.13-4.64.0935 5.98.0935 5.98 2.39-7.01c1.31-3.85 2.1-8.53 1.74-10.4-.629-3.29-.723-3.32-3.34-.994-1.48 1.31-3.81 4.19-5.18 6.39l-2.49 4 .847-4.67.847-4.67-3.09 2.96c-2.59 2.48-3.03 4.1-2.72 9.98.467 8.79 1.59 10.7 3.26 5.66.711-2.16 2.7-6.02 4.42-8.58zm-31.3 60c-2.76-12.6-2.49-27.4.610-34.3 3.13-6.96 4-6.71 1.46.431-2.26 6.35-2.55 23.2-.554 32.6.794 3.7 1.2 7.46.908 8.34-.295.885-1.38-2.27-2.42-7zm6.07-39.9c-.501-1.58-.610-3.17-.243-3.53.367-.367 1.08.624 1.58 2.2.501 1.58.610 3.17.243 3.53-.367.367-1.08-.624-1.58-2.2zm38.3-32c0-2.57.274-3.62.610-2.33.335 1.28.335 3.38 0 4.67-.335 1.28-.610.233-.610-2.33zm9.19-4c0-4.9.221-5.45 1.21-3 .719 1.79.719 4.21 0 6-.985 2.45-1.21 1.9-1.21-3zm-4.84 1.33c1.33-1.47 2.71-2.67 3.08-2.67.367 0-.419 1.2-1.75 2.67s-2.71 2.67-3.08 2.67c-.367 0 .419-1.2 1.75-2.67zm37.6-5c-1.53-3.36-1.65-4.21-.382-2.6 1.42 1.8 2.07 1.97 2.59.667.383-.956.743.213.801 2.6.0579 2.38-.0836 4.33-.314 4.33-.231 0-1.44-2.25-2.7-5zm-25-2.3c1.91-2.24 4.46-5.56 5.67-7.37s2.2-2.62 2.2-1.8c0 .826-2.55 4.14-5.67 7.37s-4.11 4.04-2.2 1.8zm13.6-5.03c-1.95-4.36-2.32-6.13-1.07-5.09 1.88 1.56 5.43 10.5 4.52 11.3-.256.242-1.81-2.57-3.45-6.24z" fill="#58392b"/>
  <path d="m46.8 264c.0272-2.2.326-2.94.664-1.64s.316 3.1-.0494 4c-.365.903-.642-.159-.615-2.36zm55.8-1.87c-4.73-5.97-18.8-29.4-18.8-31.3 0-0.7 3.3 3.98 7.33 10.4s9.24 14.2 11.6 17.2c2.34 3.04 4.82 6.28 5.5 7.2.799 1.07.750 1.67-.135 1.67-.762 0-3.24-2.34-5.51-5.2zm21.8-1.52c.490-3.7 1.58-8.23 2.42-10.1 1.35-2.97 1.12-3.7-2.01-6.28l-3.55-2.92 3.04-3.33c1.67-1.83 4.31-4.44 5.88-5.8 2.78-2.41 2.94-2.39 7.48 1.07 6.43 4.91 7.12 7.45 2.91 10.8-3.7 2.95-3.7 2.43.0436 20.3.604 2.87.257 3-8.23 3h-8.86l.891-6.72zm45.2-11.6c6.77-10.2 12.5-18.4 12.8-18.2 1.61 1.1-20.5 35.3-23.4 36.2-.899.287 3.9-7.81 10.7-18zm49.2 14.3c-.009-3.74 3.36-17.8 3.52-14.7.0551 1.1-.712 5.6-1.7 10-.993 4.4-1.81 6.5-1.81 4.67zm-174-5c0-1.83.303-2.58.673-1.67.370.917.370 2.42 0 3.33-.370.917-.673.167-.673-1.67zm-1.44-6.11c.0640-1.55.380-1.87.806-.806.385.962.338 2.11-.105 2.56-.443.443-.758-.344-0.7-1.75zm-1.33-5.33c.0640-1.55.380-1.87.806-.806.385.962.338 2.11-.105 2.56-.443.443-.758-.344-0.7-1.75zm170-18c.962-.385 2.11-.338 2.56.105.443.443-.344.758-1.75 0.7-1.55-.064-1.87-.380-.806-.806zm-143-4c.962-.385 2.11-.338 2.56.105.443.443-.344.758-1.75 0.7-1.55-.064-1.87-.380-.806-.806zm28.8-32.8-2.54-3 3 2.54c2.82 2.39 3.61 3.46 2.54 3.46-.253 0-1.6-1.35-3-3zm-13.6-52c-4.42-2.2-8.36-10.6-9.08-19.3-.322-3.89-1.11-7.39-1.75-7.79-.641-.396-1.17-1.84-1.17-3.2 0-1.79 1.94-3.16 7-4.92 9.69-3.38 34.4-3.43 40.6-.0832 5.46 2.95 19 3.09 24.5.240 5.56-2.87 24.4-4.01 33.3-2.01 14.2 3.19 16.3 4.85 13.3 10.4-.697 1.27-1.64 5.73-2.09 9.91-.942 8.73-5.07 15.8-9.99 17.2-6.11 1.7-23.9 1.26-28.6-.706-5.23-2.19-12-12.8-13.4-21-.757-4.48-1.3-5.08-4.62-5.08s-3.87.597-4.62 5.08c-1.34 7.96-7.85 18.2-13.2 20.7-5.61 2.66-25.2 2.98-30.2.494zm30.4-3.2c4.65-3.44 9.25-11.7 10.4-18.6.728-4.55.393-5.89-2.05-8.17-8.68-8.09-35.4-7.14-42.6 1.51-2.37 2.86-2.43 15.3-.105 20.9 2.53 6.1 7.86 8.07 20.4 7.49 7.76-.358 11.3-1.15 14-3.15zm-16.4-13.7 3.78-3.95-3.6-4.72c-3.24-4.25-3.35-4.72-1.08-4.72 1.42 0 3.21 1.51 4.1 3.47 1.3 2.86 1.93 3.18 3.55 1.84 1.08-.898 1.97-2.46 1.97-3.47s1.3-1.84 2.9-1.84h2.9l-2.7 3c-4.81 5.34-4.9 6.36-.994 10.4 3.08 3.22 3.32 3.89 1.36 3.89-1.3 0-3.48-1.35-4.85-3l-2.48-3-2.14 3c-1.18 1.65-3.12 3-4.32 3-1.65 0-1.26-.956 1.61-3.95zm79.2 15.8c5.72-2 8.16-7.24 8.16-17.6 0-6.49-.568-9.04-2.38-10.7-8.9-8.05-33.2-8.45-41.6-.672-3.54 3.29-3.4 8.21.454 16.4 3.57 7.59 6.89 11 12.4 12.6 5.54 1.66 18.1 1.6 23-.107zm-24.6-15.5c4.17-4.5 4.17-4.54-.0645-9.58-2.83-3.36-3.05-4.1-1.21-4.1 1.23 0 3.38 1.35 4.79 3l2.55 3 2.55-3c4.05-4.76 6.15-3.5 2.39 1.43l-3.38 4.43 3.32 4.24c2.52 3.22 2.83 4.24 1.3 4.24-1.11 0-2.99-1.35-4.17-3l-2.14-3-2.48 3c-1.36 1.65-3.46 3-4.65 3-1.71 0-1.46-.773 1.21-3.65zm-91.3-29.8c.0640-1.55.380-1.87.806-.806.385.963.338 2.11-.105 2.56-.443.443-.758-.344-0.7-1.75zm140-5.9c0-4.03.250-5.68.555-3.67.306 2.02.306 5.32 0 7.33-.305 2.02-.555.367-.555-3.67zm-141-6.6c0-4.03.250-5.68.555-3.67.306 2.02.306 5.32 0 7.33-.305 2.02-.555.367-.555-3.67zm1.04-10.1c.0640-1.55.380-1.87.806-.806.385.962.338 2.11-.105 2.56-.443.443-.758-.344-0.7-1.75zm16.9-29.2c1.51-2.2 4.44-5.5 6.51-7.33 2.5-2.21 2.03-1.32-1.39 2.67-6.99 8.14-8.39 9.42-5.12 4.67z" fill="#230a15"/>
 </g>
</svg>
