<?xml version="1.0" encoding="UTF-8" standalone="no"?>
<svg xmlns:rdf="http://www.w3.org/1999/02/22-rdf-syntax-ns#" xmlns="http://www.w3.org/2000/svg" height="267" viewBox="0 0 266.66666 266.66666" width="267" version="1.1" xmlns:cc="http://creativecommons.org/ns#" xmlns:dc="http://purl.org/dc/elements/1.1/">
 <g stroke-width="1.33">
  <path d="m46.6 265c-4.54-20.5-6.51-27.8-7.74-28.6-2.13-1.31-12.4 10.6-14.9 17.2-1.45 3.88-1.88 4.4-1.35 1.66 1.16-6.04 6.73-14.8 11.6-18.2 2.38-1.67 4.96-3.86 5.73-4.87 1.61-2.1 23-7.81 33.9-9.04l7.36-.832 7.86 13.1c4.32 7.22 11.1 17.5 15 22.8l7.14 9.67h-63.7zm77.2-1.33c.453-2.38 1.5-6.97 2.34-10.2 1.4-5.45 1.29-6.05-1.56-8.35-2.52-2.04-3.46-2.19-5.23-.821-2.51 1.93.930-2.6 7.04-9.27 2.17-2.37 3.65-4.61 3.29-4.98-.364-.364-4.77-2.92-9.79-5.69-11.2-6.18-14-9.78-15.3-19.8-.844-6.7-1.79-8.7-6.47-13.7-6.03-6.4-12.8-19.2-14.5-27.5-.949-4.59-1.67-5.4-5.5-6.18-5.29-1.07-7.58-3.89-9.59-11.8-.830-3.27-3.57-9.28-6.09-13.4-5.57-9.02-6.4-18.6-1.88-21.8 1.78-1.25 2.39-2.68 1.81-4.21-.490-1.28-.237-2.73.563-3.22 1.04-.640 1.05-2.61.0632-6.87-.765-3.28-1.44-10.5-1.5-16-.0957-8.59.451-11.1 3.84-17.8 2.17-4.29 4.46-7.69 5.09-7.57.624.124 2.25-2.27 3.62-5.32s4.31-7.86 6.55-10.7c5.53-6.98 14.9-14.3 15.6-12.2.384 1.15 1.55.845 3.95-1.04 4.19-3.29 6.26-3.43 5.18-.341-.558 1.6.0244 1.35 1.86-.814 2.38-2.8 2.68-2.87 2.72-.667.0428 1.92 1.11 1.29 4.67-2.74 4.27-4.84 4.61-4.99 4.61-2.06 0 2.98.297 2.87 5.32-2.04 2.93-2.86 6.46-7.51 7.86-10.3l2.54-5.13 2.67 3.39c1.47 1.86 3.31 3.39 4.09 3.39.786 0 3.46 1.79 5.95 3.97s4.8 3.69 5.14 3.35c.339-.339 2.64 1.47 5.12 4.03s5.24 4.65 6.14 4.65 3.4 1.48 5.55 3.3c2.15 1.81 4.31 2.91 4.78 2.43 1.38-1.38 8.76 6.35 12.8 13.4 2.79 4.85 3.86 5.86 4.22 4 .614-3.16 5.81 7.44 7.15 14.6.505 2.69 1.39 4.6 1.97 4.24 1.75-1.08 4.57 12.8 4.49 22-.0423 4.78-1.02 10.9-2.19 13.6l-2.12 4.93 4.57 2.7c6.61 3.9 6.28 9.59-1.43 24.7-3.3 6.47-6 12.8-6 14.1 0 3.71-5.09 9.13-9 9.58-3.19.371-3.86 1.35-5.73 8.42-2.81 10.6-5.21 14.9-13.2 23.7-6.26 6.85-6.72 7.81-6.72 14.3 0 9.8-2.82 13.7-13.9 19.5-13.7 7.12-13.6 6.95-8.11 11.5 2.6 2.14 4.72 4.48 4.72 5.19 0 .715-1.57 2.75-3.48 4.52-3.4 3.15-3.45 3.41-2 11.7.813 4.67 1.48 9.19 1.48 10 0 1.04-3.13 1.56-9.44 1.56h-9.44zm21.1-84.8c3.69-3.44 5.15-7.91 2-6.13-1.33.753-1.33.582 0-.855 2.54-2.74 1.99-4.19-.989-2.6-1.46.782-7.44 1.79-13.3 2.24-10.8.833-13.6 3.1-3.9 3.1 3.32 0 5.01.518 4.48 1.37-.493.797-2.77 1.01-5.41.518-7.52-1.41-4.95 3.73 3.02 6.05 5.2 1.51 9.77.314 14.1-3.7zm-46.4-60c0-4.77-.220-5.09-2.67-3.82-5.65 2.92-6.22 3.9-3.83 6.55 3.86 4.26 6.49 3.15 6.49-2.73zm20.7 4.08c0-1.3-5.18-6.25-5.67-5.42-3.91 6.59-3.92 6.55.997 6.55 2.57 0 4.68-.507 4.68-1.13zm36.8-.982c-.445-1.16-.809-3.06-.809-4.23 0-1.67-.706-1.46-3.33 1.01-4.39 4.12-4.2 5.33.809 5.33 3.23 0 3.96-.465 3.33-2.11zm18.9.509c2.56-2.56 1.87-4.86-2.07-6.89l-3.67-1.9v5.2c0 5.43 2.39 6.94 5.73 3.6zm-17.4 144c.823-.823 1.17-2.35.770-3.39-.429-1.12-.012-1.73 1.02-1.5 1.93.428 21.6-27.7 24.2-34.6 1.91-5.09 2.82-5.2 18.6-2.25 19.8 3.7 23.4 5.2 31.9 13.4 8.23 7.97 11.1 13.3 12.5 23.2.730 5.35.553 5.1-1.65-2.32-2.71-9.15-8.03-17.7-13-21-3.09-2.02-3.27-1.96-4.66 1.6-1.08 2.75-6.37 25.6-6.5 28-.009.183-14.5.333-32.3.333-23.8 0-31.9-.390-30.8-1.5zm-137-4.62c.0640-1.55.380-1.87.806-.806.385.962.338 2.11-.105 2.56-.443.443-.758-.344-0.7-1.75z" fill="#d9a696"/>
  <path d="m46.6 264c-.399-2.02-2.21-9.87-4.02-17.5-1.81-7.59-2.98-14.3-2.58-15 .938-1.52 7.7-3.41 23.7-6.62 17.7-3.55 17.7-3.55 20.9 2.78 3.85 7.54 11.2 19 18.8 29.4 3.56 4.86 6.48 9.21 6.48 9.67s-14.1.837-31.3.837h-31.3zm76.7 2.93c0-.405.975-5.02 2.17-10.3l2.17-9.52-3.48-2.77-3.48-2.77 5.47-5.63c3.01-3.1 6.48-5.63 7.71-5.63s4.52 2.33 7.29 5.17l5.05 5.17-3.61 3.35c-3.56 3.3-3.59 3.46-2.11 11.9.823 4.72 1.5 9.29 1.5 10.1 0 1.04-3.1 1.56-9.33 1.56-5.13 0-9.33-.332-9.33-.737zm41.4-10.3c4.34-6.05 11-16.3 14.9-22.8l6.99-11.8 6.71.850c9.72 1.23 32.7 6.83 34.2 8.34.827.827.346 4.82-1.35 11.2-1.45 5.43-3.31 13.3-4.15 17.5l-1.52 7.67h-63.6zm-41-42c-2.78-1.02-6.72-3.04-8.76-4.49s-4.56-2.82-5.61-3.05c-2.75-.597-3.86-2.56-3.89-6.88-.0144-2.68-1.74-5.54-5.87-9.73-6.55-6.64-14.1-19.9-14.2-24.7-.0389-6.72-1.46-9.15-5.37-9.15-4.06 0-9.27-5.25-9.27-9.34 0-1.27-2.7-7.6-6-14.1-6.79-13.3-7.8-20.5-3.32-23.7 3.09-2.17 3.31-5.21 1.92-26.4l-.933-14.2 4.37-8.19c2.4-4.51 4.65-7.91 4.99-7.56.346.346 2.08-2.29 3.86-5.86s5.54-9.09 8.36-12.3c5.54-6.26 13.4-11.6 13.4-9.1 0 .825 1.74.259 3.87-1.26 4.7-3.35 6.02-3.48 4.88-.499-.760 1.98-.530 1.95 1.86-.207 2.07-1.87 2.73-2.01 2.76-.592.0199 1.04 2.11-.353 4.67-3.11 4.13-4.45 4.63-4.67 4.63-2.06 0 2.62.559 2.38 5.49-2.35 3.02-2.9 6.56-7.6 7.86-10.4l2.37-5.17 2.29 3.5c1.26 1.92 3.18 3.5 4.27 3.5s4.02 2.04 6.51 4.53 4.53 3.87 4.53 3.06c0-.809 2.28.751 5.06 3.47s5.54 4.94 6.13 4.94c.589 0 2.96 1.35 5.27 2.99 2.31 1.65 4.9 2.83 5.74 2.64 1.91-.439 10.7 9.52 13.5 15.4 1.44 2.95 2.44 3.81 3.13 2.69 1.13-1.84 5.93 7.89 7.32 14.9.453 2.27 1.28 4.12 1.83 4.12 1.72 0 4.16 12.1 4.15 20.6-.007 4.44-.918 10.6-2.03 13.8-2 5.64-2 5.69 1.6 7.97 1.99 1.26 4.09 2.91 4.67 3.66 2.08 2.68-.442 13-4.98 20.5-2.54 4.15-5.32 10.4-6.18 13.9-1.66 6.73-5.14 10.3-10.1 10.3-2.2 0-3.12 1-3.7 4-.425 2.2-1.11 5.77-1.53 7.94-.940 4.88-9.46 18.1-15.1 23.3-3.45 3.23-4.18 4.94-4.18 9.73 0 3.96-.530 5.69-1.67 5.43-.917-.208-3.83.962-6.48 2.6-11.1 6.86-22.3 8.59-32.2 4.95zm28.2-22.4c9.84-4.96 23.2-16.5 25.3-21.9 2.24-5.7 8.53-29.9 7.93-30.5-.291-.291-2.59.0611-5.1.782-6.96 2-20.6 1.57-26.6-.841-6.45-2.58-10.3-7.64-14-18.5-1.63-4.74-3.55-8.06-4.66-8.06s-3.03 3.32-4.66 8.06c-3.72 10.8-7.56 15.9-14 18.5-6.45 2.58-21.3 2.75-28.1.324l-4.79-1.71 1.9 6.77c7.78 27.8 7.94 28.1 15.9 35.4 8.54 7.8 15.3 11.7 25.8 14.9 9.19 2.81 14.4 2.13 25.1-3.26zm-27.5-12.4c-2.4-1.89-5.27-5.2-6.39-7.36l-2.03-3.93 8.43.864c10.8 1.11 22.5-1.28 27.7-5.66 2.19-1.84 3.99-3.08 3.99-2.74 0 .341-1.43 3.84-3.17 7.79-3.5 7.9-9.34 14.5-12.7 14.4-1.55-.0608-1.37-0.4.624-1.21 3.59-1.45 10.6-9.8 8.78-10.4-.776-.259-1.11-1.25-.743-2.21.542-1.41-.653-1.4-6.37.0861-3.87 1-10.1 1.84-13.7 1.87-6.19.0391-6.51.194-4.12 2 1.42 1.08 1.87 1.96 1 1.96-2.98 0-1.59 2.7 2.75 5.35 2.38 1.45 3.43 2.64 2.33 2.63-1.1-.005-3.96-1.56-6.36-3.45zm3.35-22.6c-4.35-4.03-4.52-7.31-1.03-19.3 2.81-9.63 3.69-6.03 1.28 5.21-1.97 9.17.319 14.1 6.51 14.1 3.82-.0137 4.07.186 2.04 1.67-3.28 2.4-4.67 2.12-8.8-1.7zm-47.1-8.32c-.493-2.47-1.89-4.54-3.37-5.01-1.39-.441-2.13-1.45-1.64-2.25.511-.827.274-1.06-.555-.549-.796.492-1.82.285-2.28-.461-.776-1.26 1.07-1.96 3.82-1.46.640.117.790-.761.333-1.95s-.901-3.16-.988-4.39c-.0868-1.22-.665-.424-1.28 1.78-.942 3.34-1.04 3.02-.596-2 .347-3.92.123-5.28-.647-3.91-2.02 3.58-1.96 12.9.0982 15.4 1.48 1.82 1.5 2.11.111 1.28-2.89-1.74-.489 4.79 2.81 7.63 3.51 3.03 5.28 1.31 4.2-4.1zm115 1.96c.325-.869.804-3.45 1.06-5.74l.471-4.16-3.77 2.16c-3.71 2.13-6.21 8.07-4.52 10.8.997 1.61 5.83-.572 6.76-3.06zm-.270-15.9c-.369-3.96-0.3-4.05.761-1.03.978 2.79 1.19 2.9 1.28.667.0619-1.47-.408-3.49-1.04-4.49-.849-1.34-1.52-.630-2.53 2.67-1.82 5.98-1.65 9.52.386 7.83.853-.708 1.37-3.25 1.14-5.65zm-77-1.1c4.69-4.32 8.45-12.7 8.49-19 .027-4.68-.405-5.26-5.64-7.64-7.62-3.46-25-3.62-31.6-.295-7.52 3.77-9.68 11-6.62 22 2.06 7.42 6.14 9.16 20.2 8.63 10.2-.382 12.1-.855 15.2-3.7zm-29.1-13c-4.55-6.79-5.59-9.77-2.5-7.21 1.44 1.19 2.33.764 4.13-2 2.23-3.41 2.58-3.49 11.5-2.6 11.6 1.14 17.2 3.02 16.3 5.41-.379.986-.0128 3.19.813 4.9 1.12 2.31.528 2-2.33-1.23-4.56-5.17-5.47-5.39-4.66-1.16.334 1.75-.0492 3.58-.852 4.08-3.02 1.87-1.41 3.61 2.54 2.74 2.52-.553 4-.345 4 .561 0 .833-2.73 1.44-6.48 1.44-3.56 0-9.11.345-12.3.766-5.8.759-5.9.703-10.2-5.69zm10.3 1.61c-.907-1.09-1.38-3.79-1.06-6 .687-4.68-.925-5.05-5.48-1.26l-3.2 2.66 3.09 3.29c3.44 3.67 9.6 4.88 6.64 1.31zm84 11.6c1.35-1.67 2.86-6.26 3.35-10.2 1.75-14-4.6-19.4-22.7-19.4-14 .0358-22 3.31-22 9.04 0 4.99 2.37 11.9 5.73 16.7 4.09 5.87 9.38 7.6 22.1 7.2 9.73-.304 11.4-.727 13.6-3.38zm-24.4-7.95c-5.01-.259-9-1.08-9-1.84 0-.847 1.59-1.03 4.12-.474 3.92.861 4.04.763 2.55-2.03-.864-1.61-1.27-4.07-.909-5.47 1-3.82-1.16-3.04-4.98 1.8-3.49 4.43-4.54 4.21-2.06-.421 1.02-1.91.948-2.58-.286-2.58-1.19 0-1.09-.572.325-1.99 1.1-1.1 6.92-2.69 13-3.55l11-1.56 3.7 3.54c3 2.87 4.04 3.23 5.51 1.88 2.09-1.92-3.4 7.84-6.38 11.3-1.09 1.28-3.24 2.22-4.78 2.07-1.54-.144-6.84-.471-11.8-.728zm15.2-3.88c3.01-2.73 3.06-4.23.232-7.36-3.14-3.47-5.55-3.09-4.81.746.335 1.75-.0696 4.45-.898 6-1.26 2.35-1.13 2.82.768 2.82 1.25 0 3.37-.993 4.71-2.21zm27.9 1.61c1.84-1.94 1.51-10.4-.390-9.76-2.31.769-3.9 7.71-2.83 12.4.732 3.19 1.03 3.46 1.47 1.33.302-1.47 1.09-3.24 1.75-3.93zm-2.69-1.51c.064-1.55.380-1.87.806-.806.385.962.338 2.11-.105 2.56-.443.443-.758-.344-0.7-1.75zm-129 .366c.0112-.593-.580-.708-1.31-.255-.733.453-1.32 1.84-1.31 3.08.0176 1.94.199 1.98 1.31.255.711-1.1 1.3-2.49 1.31-3.08zm-3.69-5.25c-1.27-2.63-1.45-2.27-1.45 3s.177 5.63 1.45 3c1.04-2.16 1.04-3.84 0-6zm138-6.33c.453-.733.224-1.33-.509-1.33s-1.7.6-2.16 1.33c-.453.733-.224 1.33.509 1.33s1.7-.6 2.16-1.33zm-60.8-7.26c2.48-.807 2.77-1.3 1.33-2.25-1.51-.992-1.37-1.57.745-3.19 5.13-3.92 20.2-2.44 40.1 3.94 2.06.660-.0976-20.3-2.78-27.1-1.23-3.08-4.68-7.68-7.65-10.2-6.27-5.36-11.7-5.95-24.5-2.64-9.8 2.55-23.1 2.55-32.9 0-11-2.87-16.9-2.56-21.9 1.13-9.27 6.84-12 12.7-13.4 28.4l-.952 10.9 6.04-1.94c11.2-3.6 15.3-4.36 24.1-4.39 9.02-.0328 15.4 2.46 11.9 4.62-4.87 3.01 11.9 5.34 19.8 2.76zm-23-4c-.443-.443-1.59-.490-2.56-.105-1.06.426-.748.742.806.806 1.41.0579 2.19-.257 1.75-0.7z" fill="#ab9c9a"/>
  <path d="m45.9 259c-.916-4.95-2.81-12.8-4.21-17.4s-2.24-8.85-1.87-9.45c1.02-1.66 23.1-7.03 36.1-8.78l5.33-.718 6.67 11.6c3.67 6.37 9.1 14.9 12.1 19 2.98 4.08 6.5 9.06 7.82 11.1l2.4 3.67h-62.5zm78.3 4c.434-2.75 1.47-7.39 2.3-10.3 1.41-4.95 1.28-5.51-1.87-8.24l-3.38-2.93 5.27-5.43c2.9-2.98 6.03-5.43 6.95-5.43 2.3 0 11.1 7.88 11.1 9.93 0 .910-1.26 2.79-2.8 4.19-2.84 2.57-2.9 6.39-0.3 19.4l.763 3.81h-18.8zm33.7 4.41c0-.322 3.29-5.17 7.3-10.8 4.02-5.6 10.4-15.4 14.2-21.7 3.8-6.36 7.06-11.8 7.23-12 .486-.649 24.4 3.78 31.9 5.91 10.6 3.02 10.6 2.92 7.63 12.7-1.43 4.69-3.35 12.6-4.26 17.5l-1.67 9h-31c-17.2 0-31.2-.264-31.2-.586zm-35-52c-2.78-1.02-6.72-3.04-8.76-4.49s-4.56-2.82-5.61-3.05c-2.33-.505-3.69-3.29-3.81-7.83-.0555-2.02-1.8-5.01-4.27-7.33-5.6-5.25-14.1-18.4-15.1-23.3-.417-2.16-1.11-5.74-1.53-7.94-.643-3.33-1.41-4-4.57-4-4.11 0-9.32-5.22-9.32-9.34 0-1.27-2.7-7.6-6-14.1-6.79-13.3-7.85-20.8-3.33-23.6 1.47-.916 2.67-3.06 2.67-4.76s.518-2.77 1.15-2.38c.633.391.342-2.72-.646-6.92s-1.81-11.9-1.82-17.1c-.0170-7.69.655-10.7 3.65-16.6 2.02-3.93 4.18-7.01 4.8-6.84.622.162 2.78-3.18 4.79-7.43 3.69-7.8 13.1-18.7 18.7-21.7 2.83-1.51 3-1.41 2.27 1.37-.708 2.71-.358 2.59 3.54-1.18 4.86-4.71 6.51-5.29 5.26-1.85-.791 2.17-.657 2.16 1.9-.0815 2.12-1.86 2.92-2.01 3.46-.667.480 1.18 2.02.240 4.77-2.92 3.01-3.46 4.07-4.06 4.1-2.33.0197 1.28.622 2.33 1.34 2.33 1.67 0 11.6-12.5 12.7-16 1-3.16 3.1-3.47 4.2-.607.433 1.13 2.77 2.88 5.19 3.89s5.41 3.38 6.65 5.27 2.81 3.09 3.49 2.67c.681-.421 3.52 1.23 6.3 3.68 5.4 4.74 12.9 9.33 16.2 9.93 2.62.473 9.98 9.17 13.2 15.6 1.97 3.94 2.69 4.55 3.14 2.67.730-3.06 5.67 7.17 7.03 14.6.505 2.74 1.4 4.69 1.99 4.32 1.57-.970 3.98 11.6 3.91 20.4-.0321 4.18-.928 10-1.99 12.9-1.84 5.09-1.8 5.44 1.06 7.67 1.65 1.28 3.81 3.02 4.81 3.86 2.9 2.44.801 12.4-4.41 20.9-2.54 4.15-5.32 10.4-6.18 13.9-1.66 6.75-5.14 10.3-10.1 10.3-2.4 0-3.14.963-3.81 5-1.79 10.8-7.93 22-16.5 30.2-3.34 3.2-4.09 4.98-4.09 9.73 0 3.96-.530 5.69-1.67 5.43-.917-.208-3.83.962-6.48 2.6-11.1 6.86-22.3 8.59-32.2 4.95zm28.2-22.4c9.84-4.96 23.2-16.5 25.3-21.9 2.24-5.7 8.53-29.9 7.93-30.5-.291-.291-2.59.0611-5.1.782-6.96 2-20.6 1.57-26.6-.841-6.45-2.58-10.3-7.64-14-18.5-1.63-4.74-3.55-8.06-4.66-8.06s-3.03 3.32-4.66 8.06c-3.72 10.8-7.56 15.9-14 18.5-6.45 2.58-21.3 2.75-28.1.324l-4.79-1.71 1.9 6.77c7.78 27.8 7.94 28.1 15.9 35.4 8.54 7.8 15.3 11.7 25.8 14.9 9.19 2.81 14.4 2.13 25.1-3.26zm-24.5-10.3c-.467-.756.0681-.979 1.25-.524 2.31.886 2.73 1.84.815 1.84-.690 0-1.62-.593-2.07-1.32zm-5.61-4.35c-1.5-1.65-3.43-4.35-4.28-6-1.42-2.75-1.25-3 2.06-3 1.98 0 3.21.395 2.73.877-.483.483-.215 1.67.594 2.65.809.975 1.15 2.61.759 3.63s-.0385 2.53.784 3.35c.823.823 1.18 1.5.795 1.5-.386 0-1.93-1.35-3.43-3zm28.4-6.09c-1.1-1.79 1.03-7.23 3.71-9.46 2.73-2.27 2.69-1.64-.371 5.2-1.38 3.08-2.88 5-3.34 4.26zm-22.5-14.3c-4.35-4.03-4.52-7.31-1.03-19.3 2.81-9.63 3.69-6.03 1.28 5.21-1.97 9.17.319 14.1 6.51 14.1 3.82-.0137 4.07.186 2.04 1.67-3.28 2.4-4.67 2.12-8.8-1.7zm-47.1-8.32c-.493-2.47-1.89-4.54-3.37-5.01-1.39-.441-2.13-1.45-1.64-2.25.511-.827.274-1.06-.555-.549-.796.492-1.82.285-2.28-.461-.776-1.26 1.07-1.96 3.82-1.46.640.117.790-.761.333-1.95s-.901-3.16-.988-4.39c-.0868-1.22-.665-.424-1.28 1.78-.942 3.34-1.04 3.02-.596-2 .347-3.92.123-5.28-.647-3.91-2.02 3.58-1.96 12.9.0982 15.4 1.48 1.82 1.5 2.11.111 1.28-2.89-1.74-.489 4.79 2.81 7.63 3.51 3.03 5.28 1.31 4.2-4.1zm115 1.96c.325-.869.804-3.45 1.06-5.74l.471-4.16-3.77 2.16c-3.71 2.13-6.21 8.07-4.52 10.8.997 1.61 5.83-.572 6.76-3.06zm-.270-15.9c-.369-3.96-0.3-4.05.761-1.03.978 2.79 1.19 2.9 1.28.667.0619-1.47-.408-3.49-1.04-4.49-.849-1.34-1.52-.630-2.53 2.67-1.82 5.98-1.65 9.52.386 7.83.853-.708 1.37-3.25 1.14-5.65zm-76.6-1.59c4.96-4.75 8.46-13.4 7.88-19.6-.617-6.46-7.47-9.67-20.5-9.58-10.8.0698-17.9 1.94-21.2 5.65-3.05 3.37-3.99 11.5-2.14 18.4 2.17 8.05 5.91 9.77 20.3 9.34 10.8-.322 11.9-.625 15.6-4.24zm-25.8-8.77c-4.28-5.11-7.49-10.6-5.81-9.95.998.383 3.23-.815 4.97-2.66 2.86-3.04 3.85-3.29 10.6-2.59 12 1.24 15.7 2.81 16.5 6.92l.689 3.61-2.57-3.17c-1.41-1.74-4.37-3.38-6.58-3.64-3.34-.389-3.73-.163-2.31 1.36 1.23 1.33 1.97 1.41 2.68.311.539-.836.989.395 1 2.74.0112 2.34-.730 4.74-1.65 5.33-1.06.686.274 1.35 3.67 1.84 3.91.557 2.02.912-7.1 1.33-9.93.459-12.8.172-14.1-1.43zm7.79-2.77c-2.37-2.62-2.39-2.98-.269-6.67 2.18-3.79 2.16-3.9-.615-3.9-2.95 0-9.02 4.79-9.02 7.13 0 2.82 4.59 6.21 8.41 6.21 3.96 0 3.98-.0244 1.49-2.77zm80.1 14.8c4.34-1.65 7.36-8.52 7.36-16.7 0-4.96-.724-6.87-3.75-9.9-7.14-7.14-25.8-8.16-37.5-2.06-4.71 2.44-5.21 6.34-2 15.4 2.45 6.94 5.29 10.3 10.6 12.7 4.74 2.09 20.4 2.43 25.3.545zm-18.6-10.8c-6.6-.411-9.68-.861-6.84-1 4.41-.215 4.92-.541 3.51-2.24-.907-1.09-1.38-3.79-1.06-6 .758-5.16-.882-5.07-5.95.321-2.85 3.03-3.6 3.43-2.49 1.33 1.19-2.25 1.2-3 .0435-3-3.57 0 1.85-3.83 6.53-4.61 11.7-1.95 17.6-1.25 21.5 2.57l3.8 3.64-2.68 4.54c-1.47 2.5-3.07 4.69-3.54 4.87-.476.181-6.27-.008-12.9-.419zm14-4.59 3.13-3.33-3.13-3.33c-3.12-3.32-8.49-4.45-9.94-2.09-.422.683.532 2.15 2.12 3.26 2.76 1.93 2.79 2.17.658 5.42-2.17 3.31-2.15 3.4.902 3.4 1.72 0 4.54-1.5 6.26-3.33zm26.8 2.73c1.84-1.94 1.51-10.4-.390-9.76-2.31.769-3.9 7.71-2.83 12.4.732 3.19 1.03 3.46 1.47 1.33.302-1.47 1.09-3.24 1.75-3.93zm-2.69-1.51c.064-1.55.380-1.87.806-.806.385.962.338 2.11-.105 2.56-.443.443-.758-.344-0.7-1.75zm-129 .366c.0112-.593-.580-.708-1.31-.255-.733.453-1.32 1.84-1.31 3.08.0176 1.94.199 1.98 1.31.255.711-1.1 1.3-2.49 1.31-3.08zm-3.69-5.25c-1.27-2.63-1.45-2.27-1.45 3s.177 5.63 1.45 3c1.04-2.16 1.04-3.84 0-6zm138-6.33c.453-.733.224-1.33-.509-1.33s-1.7.6-2.16 1.33c-.453.733-.224 1.33.509 1.33s1.7-.6 2.16-1.33zm-60.8-7.26c2.48-.807 2.77-1.3 1.33-2.25-1.51-.992-1.37-1.57.745-3.19 5.13-3.92 20.2-2.44 40.1 3.94 2.06.660-.0976-20.3-2.78-27.1-1.23-3.08-4.68-7.68-7.65-10.2-6.27-5.36-11.7-5.95-24.5-2.64-9.8 2.55-23.1 2.55-32.9 0-11-2.87-16.9-2.56-21.9 1.13-9.27 6.84-12 12.7-13.4 28.4l-.952 10.9 6.04-1.94c11.2-3.6 15.3-4.36 24.1-4.39 9.02-.0328 15.4 2.46 11.9 4.62-4.87 3.01 11.9 5.34 19.8 2.76zm-22-3c-.443-.443-1.59-.490-2.56-.105-1.06.426-.748.742.806.806 1.41.0579 2.19-.257 1.75-0.7z" fill="#c28775"/>
  <path d="m45.9 259c-.916-4.95-2.81-12.8-4.21-17.4s-2.24-8.85-1.87-9.45c1.02-1.66 23.1-7.03 36.1-8.78l5.33-.718 6.67 11.6c3.67 6.37 9.1 14.9 12.1 19 2.98 4.08 6.5 9.06 7.82 11.1l2.4 3.67h-62.5zm78.3 4c.434-2.75 1.47-7.39 2.3-10.3 1.41-4.95 1.28-5.51-1.87-8.24l-3.38-2.93 5.27-5.43c2.9-2.98 6.03-5.43 6.95-5.43 2.3 0 11.1 7.88 11.1 9.93 0 .910-1.26 2.79-2.8 4.19-2.84 2.57-2.9 6.39-0.3 19.4l.763 3.81h-18.8zm33.7 4.41c0-.322 3.29-5.17 7.3-10.8 4.02-5.6 10.4-15.4 14.2-21.7 3.8-6.36 7.06-11.8 7.23-12 .486-.649 24.4 3.78 31.9 5.91 10.6 3.02 10.6 2.92 7.63 12.7-1.43 4.69-3.35 12.6-4.26 17.5l-1.67 9h-31c-17.2 0-31.2-.264-31.2-.586zm-34.7-59.2c-8.55-2.89-15.9-6.96-16.1-8.86-.0562-.733-.618-.133-1.25 1.33-1.07 2.48-1.15 2.45-1.24-.528-.0539-1.84-2.54-5.81-5.85-9.35-6.95-7.43-12.8-17.1-13.5-22.3-1.12-8.61-2.32-11.1-5.26-11.1-5.32 0-8.45-3.65-11.4-13.2-1.55-5.11-3.47-9.69-4.27-10.2-2.41-1.49-6.45-11.6-6.48-16.2-.0184-2.72.966-5.2 2.64-6.63 1.47-1.26 2.67-3.69 2.67-5.4s.518-2.8 1.15-2.4c.633.391.342-2.72-.646-6.92s-1.81-11.9-1.82-17.1c-.0170-7.69.655-10.7 3.65-16.6 2.02-3.93 4.18-7.01 4.8-6.84.622.162 2.78-3.18 4.79-7.43 3.69-7.8 13.1-18.7 18.7-21.7 2.83-1.51 3-1.41 2.27 1.37-.708 2.71-.358 2.59 3.54-1.18 4.86-4.71 6.51-5.29 5.26-1.85-.791 2.17-.657 2.16 1.9-.0815 2.12-1.86 2.92-2.01 3.46-.667.480 1.18 2.02.240 4.77-2.92 3.01-3.46 4.07-4.06 4.1-2.33.0197 1.28.622 2.33 1.34 2.33 1.67 0 11.6-12.5 12.7-16 1-3.16 3.1-3.47 4.2-.607.433 1.13 2.77 2.88 5.19 3.89s5.41 3.38 6.65 5.27 2.81 3.09 3.49 2.67c.681-.421 3.52 1.23 6.3 3.68 5.4 4.74 12.9 9.33 16.2 9.93 2.62.473 9.98 9.17 13.2 15.6 1.97 3.94 2.69 4.55 3.14 2.67.730-3.06 5.67 7.17 7.03 14.6.505 2.74 1.4 4.69 1.99 4.32 1.57-.970 3.98 11.6 3.91 20.4-.0321 4.18-.886 9.92-1.9 12.8-1.98 5.57-1.48 8.84 1.36 8.84 2.18 0 5.97 5.17 5.84 7.96-.0663 1.44-.463 1.26-1.36-.630-.964-2.03-1.12-1.46-.642 2.43.739 6.05-1.21 12.2-3.44 10.8-.917-.567-1.18-.371-.654.484.488.790-.271 3.43-1.69 5.87s-3.25 7.02-4.09 10.2c-1.8 6.85-5.51 10.9-9.93 10.9-2.54 0-3.45.921-4.25 4.33-.565 2.38-.905 4.81-.756 5.38.633 2.46-7.31 16.1-13.3 22.8-3.63 4.08-6.52 8.63-6.57 10.4-.0881 2.93-.162 2.96-1.24.453-.630-1.47-1.19-2.04-1.24-1.27-.0516.767-3.87 3.33-8.48 5.7-10.7 5.48-19.2 6.4-28.9 3.11zm27.9-14.4c4.2-2.06 12-8.07 18.2-14 10.8-10.4 10.9-10.5 14.4-22.8 1.94-6.78 4.43-15.3 5.53-18.9l2.01-6.62-4.41 4.82c-3.95 4.31-5.35 4.92-13.3 5.77-12.6 1.35-20.2-.0723-25.5-4.78-4.98-4.38-8.85-11.5-10-18.6-.634-3.8-1.36-4.67-3.94-4.67-2.71 0-3.42 1.03-5.02 7.26-2.01 7.87-6.58 14.8-12.1 18.4-2.74 1.79-6.38 2.3-16.4 2.26-14.2-.054-18.9-1.88-21.3-8.21-.721-1.9-1.62-3.14-2-2.76s1.86 9.22 4.99 19.6l5.68 19 10.8 10.2c19.9 18.8 34.7 22.7 52.5 14zm-32.6-19.2c-1.19-2.29-1.92-4.4-1.64-4.68.986-.986 6.35 3.6 6.35 5.42 0 3.72-2.61 3.31-4.71-.744zm30.6-4.7c.445-1.16.809-2.52.809-3.01 0-.497 1.19-1.65 2.64-2.55 2.59-1.62 2.6-1.56.420 3.01-2.17 4.56-5.48 6.74-3.87 2.55zm-22-12.6c-2.98-2.6-2.99-2.67-.222-1.33 1.61.779 3.29 2.01 3.75 2.74 1.31 2.12-.126 1.54-3.52-1.42zm-2.38-8.7c.064-1.55.380-1.87.806-.806.385.962.338 2.11-.105 2.56-.443.443-.758-.344-0.7-1.75zm-43.3 5.11c-5.7-18-8.2-25-9.2-24-.685.423-1.26 2.98-1.29 5.69-.0345 4.19-.256 4.55-1.49 2.43-.796-1.37-1.13-4.89-.734-7.81.501-3.74.0160-6.47-1.63-9.17-2.97-4.89-4.31-3.6-3.24 3.12.460 2.88.918 6.24 1.02 7.46.0992 1.23 1.16 4.05 2.37 6.28 1.2 2.23 2.62 6.36 3.15 9.18 1.11 5.92 4.71 10.1 8.69 10.1 1.99 0 2.57-.646 2.08-2.33zm112-1.18c1.52-1.93 2.76-4.81 2.76-6.38 0-1.58 1.25-5.25 2.79-8.15 3.11-5.89 3.46-7.57 3.71-17.6.131-5.38.652-7 2.25-7 1.14 0 1.69-.633 1.21-1.41-1.75-2.83-5.01-.447-7.25 5.31-1.8 4.61-2.01 6.87-.954 10.3.940 3.06.908 5.32-.107 7.43-1.39 2.88-1.46 2.82-1.55-1.23-.177-8.37-2.69-5.61-6.69 7.37-2.24 7.25-4.07 13.6-4.07 14 0 2.28 5.46.441 7.9-2.66zm-76-18.4c4.96-4.75 8.46-13.4 7.88-19.6-.635-6.65-7.58-9.75-21.8-9.72-16.2.0401-23.4 4.96-23.3 15.8.109 7.77 2.76 14.4 6.59 16.4 2.2 1.16 7.26 1.62 14.9 1.37 10.7-.353 11.9-.666 15.6-4.27zm-28.4-12.2-3.27-4.81 4.41-3.87c4.38-3.85 4.47-3.87 14-2.51 7.96 1.13 16.7 3.81 12.9 3.96-.576.0223-.392 1.39.409 3.04 1.42 2.92 1.38 2.91-1.31-.178-1.52-1.75-4.57-3.39-6.77-3.64-3.34-.389-3.73-.163-2.31 1.36 1.23 1.33 1.97 1.41 2.68.311.539-.836.989.395 1 2.74.0112 2.34-.730 4.74-1.65 5.32-1.08.696-.0354 1.36 3 1.9 2.98.533.239.896-7.62 1.01l-12.3.176zm10.4.706c-2.37-2.62-2.39-2.98-.269-6.67 2.18-3.79 2.16-3.9-.615-3.9-2.95 0-9.02 4.79-9.02 7.13 0 2.82 4.59 6.21 8.41 6.21 3.96 0 3.98-.0244 1.49-2.77zm81 14.7c5.86-3.14 8.63-18.9 4.39-24.9-3.73-5.33-9.73-7.43-21.3-7.46-13.6-.0338-21.1 3.11-21.8 9.15-.949 8.36 5.53 20.6 12.3 23.4 4.06 1.64 23.2 1.53 26.3-.149zm-19.5-10.6c-6.6-.456-9.68-.943-6.84-1.08 4.41-.215 4.92-.541 3.51-2.24-.907-1.09-1.38-3.79-1.06-6 .708-4.82-.674-5.08-4.86-.894l-3.12 3.12.179-3.15c.217-3.81 5.84-5.74 16.8-5.75 6.02-.006 7.88.588 10.9 3.49l3.65 3.5-3.42 5.17c-1.88 2.84-3.49 5.06-3.58 4.92-.0859-.139-5.56-.625-12.2-1.08zm14-4.67 3.13-3.33-3.13-3.33c-3.12-3.32-8.49-4.45-9.94-2.09-.422.683.532 2.15 2.12 3.26 2.76 1.93 2.79 2.17.658 5.42-2.17 3.31-2.15 3.4.902 3.4 1.72 0 4.54-1.5 6.26-3.33zm-115-2.25c-.426-1.06-.742-.748-.806.806-.0579 1.41.257 2.19 0.7 1.75.443-.443.490-1.59.105-2.56zm2.61-6.42c1.08 0 1.58-.629 1.1-1.4-1.04-1.68-4.68.915-4.52 3.23.0662.945.355.884.778-.163.370-.917 1.56-1.67 2.64-1.67zm80.2-8.48c.974-.626 3.37-1.62 5.33-2.21 3.43-1.04 3.39-1.08-1.04-1.19-7.75-.193-2.66-2.99 6.81-3.74 6.48-.514 11.3.116 20.7 2.69l12.2 3.36-.512-4.21c-.281-2.32-.794-7.69-1.14-11.9-.831-10.2-5.18-18.9-11.6-23.2-5.6-3.7-10.7-3.8-29.9-.570-9.97 1.67-17.4 1.18-31.5-2.11-8.18-1.9-9.2-1.89-13.7.256-12.2 3.7-17.1 13.4-18.5 32.1l-.613 8.21 11.5-3.19c12.9-3.57 22.9-4.01 28.9-1.27l4 1.83-4.67.229-4.67.229 4.27 1.23c2.35.679 4.58 1.75 4.97 2.37.895 1.45 15.5 1.18 17.9-.326zm-29.4-4.43c-1.27-.334-3.67-.346-5.33-.0269s-.616.592 2.32.607c2.93.0148 4.29-.246 3.02-.580zm47.3.0415c-.903-.365-2.7-.387-4-.0494s-.559.637 1.64.664c2.2.0272 3.26-.249 2.36-.615z" fill="#a66958"/>
  <path d="m45.9 259c-.916-4.95-2.81-12.8-4.21-17.4s-2.24-8.85-1.87-9.45c1.01-1.63 22.5-6.89 36.1-8.82 5.3-.753 5.36-.713 9.17 6.27 3.19 5.84 16.2 25.8 23.3 35.8 1.79 2.51 1.15 2.56-29.5 2.56h-31.4zm78.3 4c.434-2.75 1.47-7.39 2.3-10.3 1.41-4.95 1.28-5.51-1.87-8.24l-3.38-2.93 5.27-5.43c2.9-2.98 6.03-5.43 6.95-5.43 2.3 0 11.1 7.88 11.1 9.93 0 .910-1.26 2.79-2.8 4.19-2.84 2.57-2.9 6.39-0.3 19.4l.763 3.81h-18.8zm33.7 4.41c0-.322 3.29-5.17 7.3-10.8 4.02-5.6 10.4-15.4 14.2-21.7 3.8-6.36 7.06-11.8 7.23-12 .486-.649 24.4 3.78 31.9 5.91 10.3 2.93 10.6 3.19 8.25 10-1.09 3.22-3.02 11.1-4.3 17.5l-2.31 11.7h-31.2c-17.1 0-31.2-.264-31.2-.586zm-32.1-58.5c-9.35-2.61-17.3-7.91-26.2-17.4-7.35-7.85-16.3-22.7-14.7-24.3.361-.361 2.83 2 5.5 5.25 5.85 7.14 19.4 18 27.4 22.1 17.7 8.98 37 2.02 58.5-21.1 6.88-7.4 6.99-7.47 5.46-2.9-4.16 12.4-20.1 29.8-32.5 35.5-8.73 4-15.9 4.84-23.4 2.75zm-7.12-34.4c-1.31-2.21-2.13-4.26-1.83-4.56 1.01-1.01 6.38 3.53 6.38 5.39 0 3.56-2.2 3.16-4.55-.828zm30.4-4.61c.445-1.16.809-2.6.809-3.19 0-.595.856-1.41 1.9-1.81 1.56-.599 1.66-.0277.536 3.19-.752 2.16-1.97 3.92-2.71 3.92s-.981-.949-.536-2.11zm-57.8-28c-6.3-1.26-10.3-3.59-11.3-6.52-.424-1.33-2.62-3.79-4.87-5.46-4.65-3.44-11.9-17.5-11.9-23.2-.000579-2.06.517-3.43 1.15-3.03.633.391.342-2.72-.646-6.92s-1.81-11.9-1.82-17.1c-.0169-7.67.664-10.8 3.65-16.7 2.02-3.98 4.24-7.24 4.94-7.24s3-3.45 5.1-7.66c3.74-7.49 13.2-18.3 18.5-21.1 2.39-1.28 2.57-1.11 1.72 1.69-.839 2.76-.402 2.6 3.87-1.48 3.92-3.74 4.82-4.14 4.82-2.13 0 2.38.0912 2.39 2.67.0549 2.58-2.33 2.67-2.33 2.72.127.039 1.98 1.06 1.36 4.65-2.79 3.26-3.78 4.6-4.65 4.62-3 .0109 1.28.606 2.33 1.32 2.33 1.67 0 11.6-12.5 12.7-16 1-3.16 3.1-3.47 4.2-.607.433 1.13 2.77 2.88 5.19 3.89s5.41 3.38 6.65 5.27 2.81 3.09 3.49 2.67c.681-.421 3.62 1.38 6.52 4.01 2.91 2.63 5.84 4.78 6.51 4.78.675 0 3.2 1.65 5.6 3.67 2.41 2.02 3.88 2.86 3.27 1.87-.888-1.45-.566-1.51 1.66-.321 3.34 1.79 13.5 15.7 13.7 18.7.0687 1.55.389 1.4 1.2-.550.963-2.33 1.44-1.91 3.8 3.33 1.48 3.3 3.11 8.24 3.62 11 .505 2.74 1.4 4.69 1.99 4.32 1.57-.970 3.98 11.6 3.91 20.4-.0321 4.18-.899 9.96-1.93 12.8-1.03 2.88-1.55 5.76-1.16 6.39 1.42 2.3-6.46 20.8-10.3 24.3-2.12 1.89-3.85 4.01-3.85 4.72 0 3.99-16.7 7.58-28.1 6.02-10.6-1.46-18.3-9.83-21-23-.858-4.13-1.61-5.02-4.26-5.02-2.64 0-3.4.892-4.26 5.02-1.38 6.65-5.37 14.2-9.48 18.1-5.31 4.95-17 6.7-28.9 4.32zm23.7-4.63c4.1-2.12 9.41-10.8 11-18 1.52-6.76-1.11-10.2-9.68-12.8-8.15-2.42-13.2-2.56-22.3-.630-9.75 2.09-13.5 6.13-13.5 14.6 0 8.41 2.92 15.7 6.94 17.3 4.89 1.96 23.4 1.65 27.5-.472zm-25.6-14.9-3.27-4.81 4.22-3.68c4.07-3.55 4.54-3.64 13.4-2.55 12.3 1.5 13.5 2 13.8 5.51.197 2.87.123 2.89-1.65.499-1.02-1.38-3.7-2.72-5.95-2.98-3.42-.398-3.81-.174-2.4 1.35 1.23 1.33 1.97 1.41 2.68.311.539-.836.989.395 1 2.74.0112 2.34-.690 4.69-1.56 5.23-1.08.670-.772 1.29 1 1.98 1.54.602-1.57 1.05-7.71 1.1l-10.3.0937zm10.4.706c-2.37-2.62-2.39-2.98-.269-6.67 2.18-3.79 2.16-3.9-.615-3.9-2.95 0-9.02 4.79-9.02 7.13 0 2.82 4.59 6.21 8.41 6.21 3.96 0 3.98-.0244 1.49-2.77zm80.8 14.7c4.07-2.18 6.59-8.54 6.59-16.6 0-6.32-.530-7.95-3.45-10.7-7.2-6.67-29.4-7.46-38.7-1.38-7.26 4.76-.762 24.5 9.45 28.8 3.85 1.59 23 1.52 26.1-.101zm-23.7-11.6c1.9-.493 2.08-1.02.847-2.5-.856-1.03-1.29-3.68-.968-5.89.668-4.55.140-4.83-3.85-2.03-2.4 1.68-2.94 1.7-3.55.110-.958-2.5 1.63-3.33 13.4-4.32 9.48-.801 10-.691 13.7 2.86l3.86 3.69-2.91 4.49c-2.89 4.47-2.96 4.49-12.9 4.35-5.5-.076-8.92-.419-7.6-.762zm18.3-3.73 3.13-3.33-3.13-3.33c-3.12-3.32-8.49-4.45-9.94-2.09-.422.683.532 2.15 2.12 3.26 2.76 1.93 2.79 2.17.658 5.42-2.17 3.31-2.15 3.4.902 3.4 1.72 0 4.54-1.5 6.26-3.33zm-31-17.6c2.41-1.07 8.11-2.49 12.7-3.14 7.98-1.15 7.87-1.17-3.05-.630-12.5.614-12.3-1.36.157-2.73 5.36-.584 10.4.0650 19.8 2.57 6.94 1.84 12.8 3.22 12.9 3.05.168-.168-.207-5.76-.832-12.4-1.3-13.9-4.41-21.3-11.1-26.4-6.14-4.68-11.1-5.37-20.8-2.88-10.5 2.69-30.6 2.75-39.3.113-11.6-3.51-14.6-2.84-22.7 5.01-7.96 7.75-9.44 11.5-10.9 27.6-.763 8.22-.601 9.77.961 9.17 9.24-3.54 26.3-6.56 32.7-5.77 11 1.38 9.77 3.23-1.81 2.66l-10.3-.505 8.31 1.19c4.57.654 9.97 2.04 12 3.09 4.84 2.49 15.9 2.51 21.4.0521z" fill="#685f5b"/>
  <path d="m47.2 266c-.0019-2.48-5.87-27.4-7.35-31.3-.719-1.86.747-2.74 8.24-4.98 11.7-3.5 33-7.14 33.5-5.72 1.01 3.04 12.9 22.2 19.3 31.1 4 5.57 7.71 10.8 8.23 11.7.709 1.15-7.05 1.54-30.5 1.54-29 0-31.4-.177-31.4-2.33zm77.3-1.45c0-2.08.893-6.73 1.98-10.3 1.96-6.47 1.95-6.57-1.34-9l-3.33-2.45 2.64-3.71c1.45-2.04 4.18-4.71 6.05-5.94 3.24-2.12 3.61-2.1 7.37.583 2.18 1.55 4.64 4.09 5.47 5.64 1.28 2.4.996 3.26-1.9 5.75-3.02 2.6-3.28 3.51-2.32 8.09.598 2.84 1.48 7.41 1.95 10.2l.867 5h-8.73c-8.7 0-8.73-.012-8.73-3.79zm34.1 2.12c.524-.917 3.8-5.57 7.28-10.3 5.96-8.16 19.3-29.3 20.2-32.1.531-1.59 20.9 1.78 33.5 5.53 7.51 2.24 8.96 3.12 8.22 4.98-1.6 4.04-5.74 20.9-6.7 27.3l-.938 6.26h-31.3c-24.6 0-31.1-.354-30.3-1.67zm-32.9-57.4c-9.28-2.59-17.4-7.94-25.7-17-6.13-6.63-15.5-21.5-15.5-24.5 0-.377 4.95 4.26 11 10.3 6.79 6.78 14.3 12.8 19.7 15.6 7.72 4.16 9.75 4.66 18.7 4.64 7.89-.0209 11.3-.691 16-3.17 8.12-4.26 21.4-15 28.1-22.6l5.43-6.23-2.13 5.33c-5.38 13.5-19.8 29.2-32 34.8-8.71 4.01-15.9 4.86-23.4 2.76zm-7.12-34.9c-1.61-2.46-1.73-3.32-.467-3.32 2.17 0 5.36 4.97 3.8 5.93-.638.394-2.14-.778-3.34-2.6zm31.2-4.94c0-1.13.998-2.88 2.22-3.89 2.03-1.67 2.07-1.55.486 1.5-2.32 4.47-2.7 4.81-2.7 2.39zm-65.6-29.8c-1.97-1.07-3.92-3.04-4.35-4.37-.424-1.34-2.62-3.8-4.87-5.46-6.59-4.87-14.6-24.2-10.7-25.7.654-.244.301-4.64-.784-9.78-1.6-12.9-.7-24.9 3.5-33 1.78-3.45 3.71-6.09 4.3-5.87.589.222 2.46-2.59 4.16-6.26 3.18-6.87 11.7-17 18.1-21.6l3.63-2.58-.733 3c-.681 2.79-.422 2.72 3.63-.998 3.05-2.79 4.56-3.47 5-2.25.486 1.35 1.2 1.23 3.16-.540 2.4-2.17 2.53-2.16 2.58.252.0438 2 1.03 1.44 4.67-2.68 3.1-3.51 4.61-4.5 4.61-3 0 1.22.553 2.22 1.23 2.22 1.75 0 10.4-10.4 12.4-14.9 1.86-4.2 3.04-4.72 4.15-1.83.409 1.07 3.15 3.17 6.1 4.67 2.94 1.5 5.98 3.91 6.75 5.34.769 1.44 2.2 2.3 3.18 1.93.980-.376 3.65 1.45 5.94 4.05s4.87 4.73 5.74 4.73 3.59 1.53 6.04 3.4 4.46 2.95 4.46 2.41c0-2.29 9.81 8.66 12.7 14.2 2.16 4.11 3.19 5.16 3.26 3.33.101-2.59.160-2.59 2-.170 1.04 1.37 2.94 6.58 4.23 11.6 1.29 4.99 2.75 8.83 3.25 8.52 1.47-.911 3.88 10.7 3.88 18.6 0 4.07-1.14 10.4-2.54 14.1-1.4 3.67-2 6.35-1.33 5.94 3.93-2.43-4.76 19.3-9.54 23.8-2.16 2.05-3.92 4.29-3.92 4.97 0 .677-1.87 2.2-4.16 3.38-3.24 1.68-7.2 2.05-17.9 1.7-12.5-.409-14.1-.753-17.3-3.78-4.33-4.05-8.31-11.5-9.72-18.3-.855-4.11-1.62-5.02-4.23-5.02-2.68 0-3.44.994-4.79 6.29-2.18 8.53-5.84 14.4-11.2 18-3.87 2.61-6.13 3-17.3 2.95-8.59-.0359-14-.692-16.4-1.99zm31.4-3.04c7.17-4.16 13-19.7 9.4-25.2-2.25-3.43-13.2-7.05-21.3-7.05-7.97 0-18.9 3.59-21.3 7-3.88 5.54-1.64 22.6 3.36 25.7 6 3.71 23 3.44 29.8-.473zm-25.1-13.3-2.56-3.62 3.23 2.91c2 1.81 5.5 3.11 9.23 3.43l6 .522-6.67.191c-5.85.168-6.98-.255-9.23-3.43zm-.910-7.96c2.77-4.02 3.49-4.32 9.89-4.1l6.91.233-6 .519c-4.17.360-7.19 1.61-9.89 4.1l-3.89 3.58zm24.7-.226c-.684-.650-2.44-1.47-3.91-1.82l-2.67-.641 2.67-.134c2.97-.149 6.99 1.95 5.87 3.06-.394.394-1.28.185-1.96-.465zm67.1 21.8c4.07-2.66 5.63-7.12 5.63-16 0-6.12-.552-7.82-3.4-10.5-9.28-8.6-37-7.3-41.9 1.98-1.79 3.35-.118 9.89 4.59 17.9 3.28 5.59 5.22 6.81 14.8 9.21 4.51 1.14 17.1-.481 20.4-2.61zm-14.7-10.9c5.3-.371 7.46-1.18 9-3.38 1.12-1.59 2.03-2.25 2.03-1.47 0 3.41-4.96 5.83-11.4 5.59l-6.56-.247zm-15-12.4c1.47-.630 3.57-1.15 4.67-1.15 1.26 0 1.01.424-.667 1.15-1.47.630-3.57 1.15-4.67 1.15-1.26 0-1.01-.424.667-1.15zm11.7-2.25c1.28-.335 3.38-.335 4.67 0 1.28.335.233.610-2.33.610-2.57 0-3.62-.274-2.33-.610zm-19.1-6.59c2.39-1.19 8.94-2.65 14.5-3.24l10.2-1.06-12.3.310c-12.9.326-15.5-1-4.75-2.43 6.46-.860 12.2-.0322 26.2 3.76 4.35 1.18 8.06 1.98 8.26 1.78.196-.196-.155-5.81-.780-12.5-1.31-13.9-4.41-21.3-11.2-26.5-6.06-4.62-12.2-5.44-21.2-2.83-9.42 2.74-30 2.81-38.8.131-11.6-3.51-14.6-2.84-22.7 5.01-4.88 4.75-7.64 8.71-8.6 12.3-1.53 5.76-3.56 24.7-2.66 24.7.303 0 5.04-1.29 10.5-2.87 10.8-3.11 28.3-4.02 30.7-1.59 1.07 1.07-1.92 1.35-11 1.05l-12.4-.421 10.1 1.07c5.54.587 11.8 2.03 14 3.2 5.13 2.78 16.4 2.81 21.9.0623z" fill="#66493b"/>
  <path d="m47.2 266c-.0019-2.48-5.87-27.4-7.35-31.3-.719-1.86.747-2.74 8.24-4.98 11.7-3.5 33-7.14 33.5-5.72 1.01 3.04 12.9 22.2 19.3 31.1 4 5.57 7.71 10.8 8.23 11.7.709 1.15-7.05 1.54-30.5 1.54-29 0-31.4-.177-31.4-2.33zm77.3-1.45c0-2.08.893-6.73 1.98-10.3 1.96-6.47 1.95-6.57-1.34-9l-3.33-2.45 2.64-3.71c1.45-2.04 4.18-4.71 6.05-5.94 3.24-2.12 3.61-2.1 7.37.583 2.18 1.55 4.64 4.09 5.47 5.64 1.28 2.4.992 3.27-1.96 5.8l-3.47 2.98 1.93 9.1c1.06 5.01 1.94 9.55 1.95 10.1.0133.55-3.88 1-8.64 1-8.63 0-8.67-.0147-8.67-3.79zm34.1 2.12c.524-.917 3.8-5.57 7.28-10.3 5.96-8.16 19.3-29.3 20.2-32.1.531-1.59 20.9 1.78 33.5 5.53 7.51 2.24 8.96 3.12 8.22 4.98-1.6 4.04-5.74 20.9-6.7 27.3l-.938 6.26h-31.3c-24.6 0-31.1-.354-30.3-1.67zm-32.8-57.8c-13.1-3.52-27.1-14.9-35.1-28.5-7.44-12.7-6.4-13.2 4.79-2.09 13.3 13.2 24.4 19.5 36.9 20.9l8.67.992-9.33-.381c-10.9-.446-19.2-4.07-29-12.8-9.27-8.17-7.74-4.46 2.03 4.91 11.4 10.9 18 14.2 29 14.2 11.4.0709 20.4-4.54 31.7-16.2 8.4-8.68 11.5-14.3 4.6-8.27-2.05 1.79-1.18.697 1.93-2.42s6.59-7 7.73-8.63c3.79-5.42 2.23.654-2.14 8.3-8.51 14.9-26.5 29-39.8 31.1-2.57.410-7.95-.135-12-1.21zm-28.4-28c0-.277-1.05-1.33-2.33-2.33-2.11-1.66-2.16-1.61-.503.503 1.74 2.22 2.84 2.93 2.84 1.83zm49.2 15.8c2.47-1.07 4.87-1.93 5.33-1.9 1.73.0968-5.9 3.86-7.82 3.85-1.1-.003.0189-.881 2.49-1.95zm7.51-2.83c3.41-3.23 11.8-8.69 9.76-6.36-1.23 1.42-4.23 3.71-6.67 5.1-2.43 1.39-3.82 1.95-3.09 1.26zm-33.9-19c-1.66-3.11-1.76-4.12-.388-4.12 1.74 0 4.36 5.15 3.03 5.98-.682.421-1.87-.412-2.64-1.85zm30.6-6.05c0-1.06.544-2.26 1.21-2.67.665-.411.895.454.511 1.92-.814 3.11-1.72 3.51-1.72.747zm-63.8-29c-3.14-1.15-8-6.01-8-8 0-.995-1.05-2.21-2.33-2.7-3.31-1.27-7.03-6.04-6.31-8.09.337-.955.0081-1.36-.730-.907-1.72 1.06-6.62-9.64-6.42-14 .119-2.62.268-2.76.689-.667.462 2.3 6.82 6.73 7.98 5.57.224-.224-.780-4.56-2.23-9.63-3.9-13.1-4.8-24.3-2.7-32.7l1.69-7.05 3.08 5.9 3.08 5.9.0919-6.67c.0986-7.15 4.32-18.9 9.28-25.9 1.67-2.35 2.78-4.53 2.45-4.85-1.03-1.03-6.16 5.26-10.4 12.8-4.01 7.1-4.27 4.51-.320-3.25 2.41-4.74 13.2-16.5 17-18.4 1.99-1.03 1.67-.283-1.2 2.77-3.45 3.68-3.88 5.02-3.57 11.2.409 8.07 2.07 10.8 3.39 5.59.497-1.98 2.37-5.76 4.17-8.41l3.26-4.8.0935 5.98.0935 5.98 2.4-7.05c3.53-10.4 3.77-10.3 5.82.384.430 2.25.750 2.05 2.07-1.33 3.92-10 3.56-9.75 6.14-4.76l2.36 4.56 1.71-4.06c.939-2.23 4.16-6.03 7.15-8.44s5.82-5.56 6.28-7.02c1.44-4.55 3.17.244 3.19 8.88.0177 6.81.281 7.61 2.02 6.17 1.1-.914 3.15-5.34 4.54-9.83l2.54-8.17 2.76 6c1.52 3.3 2.81 7.5 2.88 9.33.0676 1.83.612 4.53 1.21 6 1.17 2.87.932 3.43 3.94-9.29.873-3.69 1.28-3.14 6.19 8.3 2.89 6.74 5.68 12.3 6.19 12.3.513.0168 1.11-3.38 1.33-7.54l0.4-7.57 3.89 5.63c2.14 3.09 4.65 8.45 5.58 11.9 1.54 5.74 1.7 5.9 1.78 1.94.0495-2.38.557-4.33 1.13-4.33 1.15 0 6.73 19.7 7.35 26 .363 3.68.562 3.46 2.46-2.6l2.06-6.6.907 8.86c.499 4.87.590 11.4.203 14.6l-.705 5.75 1.95-4c1.71-3.52 1.96-3.64 2.01-1.05.0331 1.62-1.08 6.12-2.48 10s-2.95 9.41-3.44 12.3c-.784 4.58-.643 5.04 1.11 3.58 1.66-1.38 1.57-.227-.499 6.62-3.06 10.1-1.51 8.83 2.55-2.1 1.84-4.96 2.44-8.15 1.57-8.44-.941-.314-.966-1.27-.0749-2.93 3.01-5.63 5.46-20.4 4.56-27.6-.564-4.51-1.32-6.62-1.98-5.55-.760 1.23-1.27.784-1.75-1.53-4.37-20.9-5.99-25.2-6.25-16.6l-.160 5.33-1.73-6.3c-2-7.26-7.16-16.6-11.2-20.2-3.33-3.01-3.54-2.09-.771 3.27 1.12 2.16 1.73 3.93 1.37 3.93-.367 0-1.54-1.69-2.6-3.75-2.05-3.96-9.93-12.3-11.6-12.3-.557 0-.143 2.08.920 4.62 2.82 6.75 2.25 7.55-.974 1.38-1.53-2.93-4.57-7.73-6.75-10.7l-3.96-5.33 4.13 4.33c2.27 2.38 4.83 4.33 5.69 4.33.858 0 3.57 1.53 6.02 3.4s4.46 2.96 4.46 2.42c0-2.18 8.51 7.26 12 13.3 2.28 3.97 3.99 5.77 4.43 4.67 1.16-2.88 3.22 1.06 5.82 11.1 1.27 4.9 2.73 8.65 3.26 8.32 1.35-.837 3.85 11.7 3.8 19.2-.024 3.45-1.13 9.4-2.45 13.2-1.32 3.83-1.92 7.13-1.33 7.33.591.204-.410 4.46-2.23 9.46-2.44 6.7-5.08 10.9-10.1 16l-6.81 6.92-13 .453c-18.8.654-24.3-2.99-29.4-19.6-1.92-6.2-2.86-7.53-5.3-7.53s-3.38 1.33-5.3 7.53c-2.81 9.09-6.92 15.2-12.1 17.8-3.78 1.96-24.8 2.7-29.3 1.04zm28.8-3.96c6.81-4.46 13.2-21 9.75-25.2-4.88-5.88-22-8.97-33.1-5.97-9.13 2.48-12.2 6.41-12.2 15.7.0061 9.59 3.35 15.7 9.61 17.6 5.8 1.77 22 .431 25.9-2.14zm-24.2-12c-2.52-2.98-2.52-2.98.129-.760 1.47 1.23 5.37 2.48 8.67 2.77l6 .527-6.13.233c-4.89.186-6.64-.374-8.67-2.77zm-1.29-8.67c3.3-3.65 4.77-4.3 9.33-4.11l5.42.224-5.33.532c-3.35.334-6.82 1.86-9.33 4.11l-4 3.58zm22.1-1.11c-2.24-1.24-2.62-1.86-1.16-1.87 1.19-.0108 2.92.880 3.83 1.98 1.95 2.35 1.75 2.34-2.67-.111zm70.6 21.4c2.74-2.74 3.4-4.89 3.83-12.6.478-8.46.234-9.55-2.8-12.6-8.49-8.49-34.8-7.83-42.2 1.06-2.23 2.69-.0265 12.1 4.52 19.3 4.58 7.25 11.6 9.66 25.4 8.66 6.25-.450 8.7-1.29 11.3-3.88zm-16-9.66c3.29-.289 6.89-1.23 8-2.1 1.77-1.38 1.79-1.28.196.758-1.33 1.7-3.51 2.27-8 2.1l-6.17-.233zm-12.2-13.3c.962-.385 2.11-.338 2.56.105.443.443-.344.758-1.75 0.7-1.55-.064-1.87-.380-.806-.806zm8.58-1.34c1.28-.335 3.38-.335 4.67 0 1.28.335.233.610-2.33.610-2.57 0-3.62-.274-2.33-.610zm-18.6-6.69c3.26-1.74 7.72-2.29 18.9-2.33 8.07-.0291 16.7 0.4 19.2.953l4.53 1.01-.885-11.7c-1.97-25.9-13.6-36-35-30.5-10.3 2.67-27.1 2.72-35.7.115-3.6-1.09-9.11-1.99-12.2-1.99-5.02 0-6.5.777-12.4 6.48-7.4 7.2-9.2 11.9-10.7 27.9l-.925 9.68 4.73-1.01c2.6-.555 11.3-.988 19.4-.962 11.2.0366 15.6.581 18.7 2.28 5.3 2.96 16.9 2.99 22.4.0582zm-81.6-5.6c-2.71-12.2-2.43-28.7.571-33.7 1.32-2.2 1.98-2.8 1.47-1.33-1.82 5.19-2.22 26.2-.639 34.2 2.12 10.8.953 11.5-1.4.861zm6.36-39.3c-.489-.489-.871-1.84-.848-3 .0333-1.73.293-1.68 1.46.322 1.44 2.47 1.02 4.3-.607 2.68zm21.8-22.7c-.0576-2.36 9.34-12.5 10.8-11.6.653.404 1.15 1.75 1.09 2.99-.0836 2.01-.195 2-1.04-.129-.847-2.14-1.29-2.01-4.39 1.33-1.9 2.04-4.12 4.92-4.92 6.38-.809 1.47-1.49 1.92-1.51 1zm16.4-10.3c.0272-2.2.326-2.94.664-1.64s.316 3.1-.0494 4c-.365.903-.642-.159-.615-2.36zm4.41-2c1.33-1.47 2.71-2.67 3.08-2.67.367 0-.419 1.2-1.75 2.67s-2.71 2.67-3.08 2.67c-.367 0 .419-1.2 1.75-2.67zm38.8-3.61c-.724-1.9-.570-2.05.746-.746.911.904 1.32 1.98.910 2.39-.411.411-1.16-.329-1.66-1.64zm-26-3.65c1.91-2.24 4.46-5.56 5.67-7.37s2.2-2.62 2.2-1.8c0 .826-2.55 4.14-5.67 7.37s-4.11 4.04-2.2 1.8zm12.8-6.85c-1.24-2.61-1.61-4.34-.823-3.85 1.53.948 4.33 7.35 3.55 8.13-.256.256-1.48-1.67-2.73-4.28z" fill="#5e1f5b"/>
  <path d="m45.6 256c-1.2-6-2-11-1.7-12 .792-.792 4.97 19.4 4.49 21.7-.246 1.18-1.46-3.12-2.7-9.55zm52.7-.760c-7.58-11.4-15.1-25-15.1-27.2 0-.512 3.06 4.12 6.79 10.3 3.73 6.17 8.23 13.2 10 15.6 1.77 2.38 4.78 6.43 6.7 9 2.34 3.13 2.89 4.67 1.67 4.66-1-.003-5.51-5.55-10-12.3zm26.2 8.55c0-2.08.893-6.73 1.98-10.3 1.96-6.47 1.95-6.57-1.34-9l-3.33-2.45 2.64-3.71c1.45-2.04 4.18-4.71 6.05-5.94 3.24-2.12 3.61-2.1 7.37.583 2.18 1.55 4.64 4.09 5.47 5.64 1.28 2.4.992 3.27-1.96 5.8l-3.47 2.98 1.93 9.1c1.06 5.01 1.94 9.55 1.95 10.1.0133.55-3.88 1-8.64 1-8.63 0-8.67-.0147-8.67-3.79zm40.6-6.72c4.07-5.78 10.1-14.9 13.4-20.3 7.63-12.4 7.86-10.4.330 2.81-8.87 15.5-17.5 27.9-19.4 28-.970.009 1.56-4.69 5.65-10.5zm53.5 8.18c1.81-9.17 6.38-27 6.81-26.6.291.291-.678 5.57-2.15 11.7-1.48 6.16-2.69 12.5-2.69 14.2-.005 1.65-.553 3-1.22 3-.665 0-1-1.05-.749-2.33zm-176-23c-.0579-.857-.451-2.66-.873-4-.729-2.32-.692-2.32.761-.0588.841 1.31 1.23 3.11.873 4-.473 1.17-.685 1.18-.761.0588zm4.98-12c.962-.385 2.11-.338 2.56.105.443.443-.344.758-1.75 0.7-1.55-.064-1.87-.380-.806-.806zm5.33-1.33c.962-.385 2.11-.338 2.56.105.443.443-.344.758-1.75 0.7-1.55-.064-1.87-.380-.806-.806zm161 0c.962-.385 2.11-.338 2.56.105.443.443-.344.758-1.75 0.7-1.55-.064-1.87-.380-.806-.806zm-155-2c.962-.385 2.11-.338 2.56.105.443.443-.344.758-1.75 0.7-1.55-.064-1.87-.380-.806-.806zm151 0c.962-.385 2.11-.338 2.56.105.443.443-.344.758-1.75 0.7-1.55-.064-1.87-.380-.806-.806zm-145-1c.917-.370 2.42-.370 3.33 0 .917.370.167.673-1.67.673-1.83 0-2.58-.303-1.67-.673zm136 0c.917-.370 2.42-.370 3.33 0 .917.370.167.673-1.67.673-1.83 0-2.58-.303-1.67-.673zm-129-2c.962-.385 2.11-.338 2.56.105.443.443-.344.758-1.75 0.7-1.55-.064-1.87-.380-.806-.806zm124 0c.962-.385 2.11-.338 2.56.105.443.443-.344.758-1.75 0.7-1.55-.064-1.87-.380-.806-.806zm-69-15.9c-13.1-3.52-27.1-14.9-35.1-28.5-7.44-12.7-6.4-13.2 4.79-2.09 13.3 13.2 24.4 19.5 36.9 20.9l8.67.992-9.33-.381c-10.9-.446-19.2-4.07-29-12.8-9.27-8.17-7.74-4.46 2.03 4.91 11.4 10.9 18 14.2 29 14.2 11.4.0709 20.4-4.54 31.7-16.2 8.4-8.68 11.5-14.3 4.6-8.27-2.05 1.79-1.18.697 1.93-2.42s6.59-7 7.73-8.63c3.79-5.42 2.23.654-2.14 8.3-8.51 14.9-26.5 29-39.8 31.1-2.57.410-7.95-.135-12-1.21zm-29.4-27c0-.277-1.05-1.33-2.33-2.33-2.11-1.66-2.16-1.61-.503.503 1.74 2.22 2.84 2.93 2.84 1.83zm49.2 15.8c2.47-1.07 4.87-1.93 5.33-1.9 1.73.0968-5.9 3.86-7.82 3.85-1.1-.003.0189-.881 2.49-1.95zm7.51-2.83c3.41-3.23 11.8-8.69 9.76-6.36-1.23 1.42-4.23 3.71-6.67 5.1-2.43 1.39-3.82 1.95-3.09 1.26zm-33.9-19c-1.66-3.11-1.76-4.12-.388-4.12 1.74 0 4.36 5.15 3.03 5.98-.682.421-1.87-.412-2.64-1.85zm30.6-6.05c0-1.06.544-2.26 1.21-2.67.665-.411.895.454.511 1.92-.814 3.11-1.72 3.51-1.72.747zm-63.8-29c-3.14-1.15-8-6.01-8-8 0-.995-1.05-2.21-2.33-2.7-3.31-1.27-7.03-6.04-6.31-8.09.337-.955.0081-1.36-.730-.907-1.72 1.06-6.62-9.64-6.42-14 .119-2.62.268-2.76.689-.667.462 2.3 6.82 6.73 7.98 5.57.224-.224-.780-4.56-2.23-9.63-3.9-13.1-4.8-24.3-2.7-32.7l1.69-7.05 3.08 5.9 3.08 5.9.0919-6.67c.0986-7.15 4.32-18.9 9.28-25.9 1.67-2.35 2.78-4.53 2.45-4.85-1.03-1.03-6.16 5.26-10.4 12.8-4.01 7.1-4.27 4.51-.320-3.25 2.41-4.74 13.2-16.5 17-18.4 1.99-1.03 1.67-.283-1.2 2.77-3.45 3.68-3.88 5.02-3.57 11.2.409 8.07 2.07 10.8 3.39 5.59.497-1.98 2.37-5.76 4.17-8.41l3.26-4.8.0935 5.98.0935 5.98 2.4-7.05c3.53-10.4 3.77-10.3 5.82.384.430 2.25.750 2.05 2.07-1.33 3.92-10 3.56-9.75 6.14-4.76l2.36 4.56 1.71-4.06c.939-2.23 4.16-6.03 7.15-8.44s5.82-5.56 6.28-7.02c1.44-4.55 3.17.244 3.19 8.88.0177 6.81.281 7.61 2.02 6.17 1.1-.914 3.15-5.34 4.54-9.83l2.54-8.17 2.76 6c1.52 3.3 2.81 7.5 2.88 9.33.0676 1.83.612 4.53 1.21 6 1.17 2.87.932 3.43 3.94-9.29.873-3.69 1.28-3.14 6.19 8.3 2.89 6.74 5.68 12.3 6.19 12.3.513.0168 1.11-3.38 1.33-7.54l0.4-7.57 3.89 5.63c2.14 3.09 4.65 8.45 5.58 11.9 1.54 5.74 1.7 5.9 1.78 1.94.0495-2.38.557-4.33 1.13-4.33 1.15 0 6.73 19.7 7.35 26 .363 3.68.562 3.46 2.46-2.6l2.06-6.6.907 8.86c.499 4.87.590 11.4.203 14.6l-.705 5.75 1.95-4c1.71-3.52 1.96-3.64 2.01-1.05.0331 1.62-1.08 6.12-2.48 10s-2.95 9.41-3.44 12.3c-.784 4.58-.643 5.04 1.11 3.58 1.66-1.38 1.57-.227-.499 6.62-3.06 10.1-1.51 8.83 2.55-2.1 1.84-4.96 2.44-8.15 1.57-8.44-.941-.314-.966-1.27-.0749-2.93 3.01-5.63 5.46-20.4 4.56-27.6-.564-4.51-1.32-6.62-1.98-5.55-.760 1.23-1.27.784-1.75-1.53-4.37-20.9-5.99-25.2-6.25-16.6l-.160 5.33-1.73-6.3c-2-7.26-7.16-16.6-11.2-20.2-3.33-3.01-3.54-2.09-.771 3.27 1.12 2.16 1.73 3.93 1.37 3.93-.367 0-1.54-1.69-2.6-3.75-2.05-3.96-9.93-12.3-11.6-12.3-.557 0-.143 2.08.920 4.62 2.82 6.75 2.25 7.55-.974 1.38-1.53-2.93-4.57-7.73-6.75-10.7l-3.96-5.33 4.13 4.33c2.27 2.38 4.83 4.33 5.69 4.33.858 0 3.57 1.53 6.02 3.4s4.46 2.96 4.46 2.42c0-2.18 8.51 7.26 12 13.3 2.28 3.97 3.99 5.77 4.43 4.67 1.16-2.88 3.22 1.06 5.82 11.1 1.27 4.9 2.73 8.65 3.26 8.32 1.35-.837 3.85 11.7 3.8 19.2-.024 3.45-1.13 9.4-2.45 13.2-1.32 3.83-1.92 7.13-1.33 7.33.591.204-.410 4.46-2.23 9.46-2.44 6.7-5.08 10.9-10.1 16l-6.81 6.92-13 .453c-18.8.654-24.3-2.99-29.4-19.6-1.92-6.2-2.86-7.53-5.3-7.53s-3.38 1.33-5.3 7.53c-2.81 9.09-6.92 15.2-12.1 17.8-3.78 1.96-24.8 2.7-29.3 1.04zm28.8-3.96c6.81-4.46 13.2-21 9.75-25.2-4.88-5.88-22-8.97-33.1-5.97-9.13 2.48-12.2 6.41-12.2 15.7.0061 9.59 3.35 15.7 9.61 17.6 5.8 1.77 22 .431 25.9-2.14zm-24.2-12c-2.52-2.98-2.52-2.98.129-.760 1.47 1.23 5.37 2.48 8.67 2.77l6 .527-6.13.233c-4.89.186-6.64-.374-8.67-2.77zm-1.29-8.67c3.3-3.65 4.77-4.3 9.33-4.11l5.42.224-5.33.532c-3.35.334-6.82 1.86-9.33 4.11l-4 3.58zm22.1-1.11c-2.24-1.24-2.62-1.86-1.16-1.87 1.19-.0108 2.92.880 3.83 1.98 1.95 2.35 1.75 2.34-2.67-.111zm70.6 21.4c2.74-2.74 3.4-4.89 3.83-12.6.478-8.46.234-9.55-2.8-12.6-8.49-8.49-34.8-7.83-42.2 1.06-2.23 2.69-.0265 12.1 4.52 19.3 4.58 7.25 11.6 9.66 25.4 8.66 6.25-.450 8.7-1.29 11.3-3.88zm-16-9.66c3.29-.289 6.89-1.23 8-2.1 1.77-1.38 1.79-1.28.196.758-1.33 1.7-3.51 2.27-8 2.1l-6.17-.233zm-12.2-13.3c.962-.385 2.11-.338 2.56.105.443.443-.344.758-1.75 0.7-1.55-.064-1.87-.380-.806-.806zm8.58-1.34c1.28-.335 3.38-.335 4.67 0 1.28.335.233.610-2.33.610-2.57 0-3.62-.274-2.33-.610zm-18.6-6.69c3.26-1.74 7.72-2.29 18.9-2.33 8.07-.0291 16.7 0.4 19.2.953l4.53 1.01-.885-11.7c-1.97-25.9-13.6-36-35-30.5-10.3 2.67-27.1 2.72-35.7.115-3.6-1.09-9.11-1.99-12.2-1.99-5.02 0-6.5.777-12.4 6.48-7.4 7.2-9.2 11.9-10.7 27.9l-.925 9.68 4.73-1.01c2.6-.555 11.3-.988 19.4-.962 11.2.0366 15.6.581 18.7 2.28 5.3 2.96 16.9 2.99 22.4.0582zm-81.6-5.6c-2.71-12.2-2.43-28.7.571-33.7 1.32-2.2 1.98-2.8 1.47-1.33-1.82 5.19-2.22 26.2-.639 34.2 2.12 10.8.953 11.5-1.4.861zm6.36-39.3c-.489-.489-.871-1.84-.848-3 .0333-1.73.293-1.68 1.46.322 1.44 2.47 1.02 4.3-.607 2.68zm21.8-22.7c-.0576-2.36 9.34-12.5 10.8-11.6.653.404 1.15 1.75 1.09 2.99-.0836 2.01-.195 2-1.04-.129-.847-2.14-1.29-2.01-4.39 1.33-1.9 2.04-4.12 4.92-4.92 6.38-.809 1.47-1.49 1.92-1.51 1zm16.4-10.3c.0272-2.2.326-2.94.664-1.64s.316 3.1-.0494 4c-.365.903-.642-.159-.615-2.36zm4.41-2c1.33-1.47 2.71-2.67 3.08-2.67.367 0-.419 1.2-1.75 2.67s-2.71 2.67-3.08 2.67c-.367 0 .419-1.2 1.75-2.67zm38.8-3.61c-.724-1.9-.570-2.05.746-.746.911.904 1.32 1.98.910 2.39-.411.411-1.16-.329-1.66-1.64zm-26-3.65c1.91-2.24 4.46-5.56 5.67-7.37s2.2-2.62 2.2-1.8c0 .826-2.55 4.14-5.67 7.37s-4.11 4.04-2.2 1.8zm12.8-6.85c-1.24-2.61-1.61-4.34-.823-3.85 1.53.948 4.33 7.35 3.55 8.13-.256.256-1.48-1.67-2.73-4.28z" fill="#58392b"/>
  <path d="m45.6 256c-1.2-6-2-11-1.7-12 .792-.792 4.97 19.4 4.49 21.7-.246 1.18-1.46-3.12-2.7-9.55zm52.7-.760c-7.58-11.4-15.1-25-15.1-27.2 0-.512 3.06 4.12 6.79 10.3 3.73 6.17 8.23 13.2 10 15.6 1.77 2.38 4.78 6.43 6.7 9 2.34 3.13 2.89 4.67 1.67 4.66-1-.003-5.51-5.55-10-12.3zm26.7 5.62c.490-3.7 1.58-8.23 2.42-10.1 1.35-2.97 1.12-3.7-2.01-6.28l-3.55-2.92 3.04-3.33c1.67-1.83 4.31-4.44 5.88-5.8 2.78-2.41 2.94-2.39 7.48 1.07 6.43 4.91 7.12 7.45 2.91 10.8-3.7 2.95-3.7 2.43.0436 20.3.604 2.87.257 3-8.23 3h-8.86l.891-6.72zm40-3.79c4.07-5.78 10.1-14.9 13.4-20.3 7.63-12.4 7.86-10.4.330 2.81-8.87 15.5-17.5 27.9-19.4 28-.970.009 1.56-4.69 5.65-10.5zm53.5 8.18c1.81-9.17 6.38-27 6.81-26.6.291.291-.678 5.57-2.15 11.7-1.48 6.16-2.69 12.5-2.69 14.2-.005 1.65-.553 3-1.22 3-.665 0-1-1.05-.749-2.33zm-176-23c-.0579-.857-.451-2.66-.873-4-.729-2.32-.692-2.32.761-.0588.841 1.31 1.23 3.11.873 4-.473 1.17-.685 1.18-.761.0588zm4.98-12c.962-.385 2.11-.338 2.56.105.443.443-.344.758-1.75 0.7-1.55-.064-1.87-.380-.806-.806zm5.33-1.33c.962-.385 2.11-.338 2.56.105.443.443-.344.758-1.75 0.7-1.55-.064-1.87-.380-.806-.806zm161 0c.962-.385 2.11-.338 2.56.105.443.443-.344.758-1.75 0.7-1.55-.064-1.87-.380-.806-.806zm-155-2c.962-.385 2.11-.338 2.56.105.443.443-.344.758-1.75 0.7-1.55-.064-1.87-.380-.806-.806zm151 0c.962-.385 2.11-.338 2.56.105.443.443-.344.758-1.75 0.7-1.55-.064-1.87-.380-.806-.806zm-145-1c.917-.370 2.42-.370 3.33 0 .917.370.167.673-1.67.673-1.83 0-2.58-.303-1.67-.673zm136 0c.917-.370 2.42-.370 3.33 0 .917.370.167.673-1.67.673-1.83 0-2.58-.303-1.67-.673zm-129-2c.962-.385 2.11-.338 2.56.105.443.443-.344.758-1.75 0.7-1.55-.064-1.87-.380-.806-.806zm124 0c.962-.385 2.11-.338 2.56.105.443.443-.344.758-1.75 0.7-1.55-.064-1.87-.380-.806-.806zm-95.2-32.8-2.54-3 3 2.54c2.82 2.39 3.61 3.46 2.54 3.46-.253 0-1.6-1.35-3-3zm-13.9-51c-4.42-2.2-8.36-10.6-9.08-19.3-.322-3.89-1.11-7.39-1.75-7.79-.641-.396-1.17-1.84-1.17-3.2 0-1.79 1.94-3.16 7-4.92 9.69-3.38 34.4-3.43 40.6-.0832 5.46 2.95 19 3.09 24.5.240 5.56-2.87 24.4-4.01 33.3-2.01 14.2 3.19 16.3 4.85 13.3 10.4-.697 1.27-1.64 5.73-2.09 9.91-.942 8.73-5.07 15.8-9.99 17.2-6.11 1.7-23.9 1.26-28.6-.706-5.23-2.19-12-12.8-13.4-21-.757-4.48-1.3-5.08-4.62-5.08s-3.87.597-4.62 5.08c-1.34 7.96-7.85 18.2-13.2 20.7-5.61 2.66-25.2 2.98-30.2.494zm30.5-3.31c4.52-3.34 9.12-11.7 10.2-18.5.728-4.55.393-5.89-2.05-8.17-8.68-8.09-35.4-7.14-42.6 1.51-2.37 2.86-2.43 15.3-.105 20.9 2.57 6.19 7.86 8.1 20.5 7.39 7.6-.428 11.5-1.3 14-3.16zm62.6 2.19c5.65-1.97 8.16-7.26 8.16-17.2 0-6.77-.526-8.65-3.16-11.3-7.82-7.82-32.6-8.06-40.9-.402-2.42 2.25-2.77 3.63-2.08 7.99 1.67 10.4 7.63 18.8 15 21 5.54 1.66 18.1 1.6 23-.107zm-116-46.4c.0640-1.55.380-1.87.806-.806.385.962.338 2.11-.105 2.56-.443.443-.758-.344-0.7-1.75zm141-5.9c0-4.03.250-5.68.555-3.67.306 2.02.306 5.32 0 7.33-.305 2.02-.555.367-.555-3.67zm-142-6.6c0-4.03.250-5.68.555-3.67.306 2.02.306 5.32 0 7.33-.305 2.02-.555.367-.555-3.67zm1.04-10.1c.0640-1.55.380-1.87.806-.806.385.962.338 2.11-.105 2.56-.443.443-.758-.344-0.7-1.75zm16.9-29.3c1.52-2.2 4.75-5.8 7.18-8 3.26-2.96 2.89-2.26-1.42 2.67-7.87 8.99-9.02 10.1-5.76 5.33z" fill="#260b17"/>
 </g>
</svg>
