<!DOCTYPE svg PUBLIC "-//W3C//DTD SVG 20010904//EN" "http://www.w3.org/TR/2001/REC-SVG-20010904/DTD/svg10.dtd">
<svg version="1.0" xmlns="http://www.w3.org/2000/svg" width="200px" height="200px" viewBox="0 0 2000 2000" preserveAspectRatio="xMidYMid meet">
<g id="layer101" fill="#f3f1f4" stroke="none">
 <path d="M143 1955 c15 -105 103 -220 189 -246 59 -17 219 -49 250 -49 40 0 102 -38 117 -71 7 -15 25 -44 42 -65 35 -45 36 -54 4 -84 -36 -33 -103 -140 -110 -175 -17 -76 -24 -90 -51 -91 -37 -3 -60 -29 -73 -82 -7 -26 -27 -72 -45 -102 -19 -30 -37 -76 -40 -102 -6 -41 -4 -50 16 -70 13 -13 21 -29 20 -37 -2 -8 1 -17 7 -20 7 -5 7 -19 -1 -46 -6 -22 -11 -78 -11 -125 0 -72 4 -93 26 -137 15 -29 33 -56 40 -60 8 -4 24 -30 38 -56 29 -60 152 -180 157 -154 3 15 8 14 35 -9 19 -16 33 -22 35 -15 3 9 7 9 18 0 11 -9 14 -8 14 7 1 15 9 10 35 -21 25 -28 35 -35 35 -22 0 9 4 17 9 17 14 0 70 -68 89 -106 19 -41 29 -42 44 -9 6 14 20 25 30 25 10 0 30 11 44 25 14 14 29 25 34 25 6 0 27 15 47 34 35 31 93 66 110 67 14 0 75 64 103 107 17 25 30 38 33 30 6 -17 45 66 53 114 4 21 10 35 14 33 10 -6 40 120 40 163 0 16 -6 49 -13 73 -16 51 -12 67 20 92 17 14 23 28 23 58 0 42 -21 102 -45 129 -7 8 -23 45 -35 82 -23 73 -37 89 -75 92 -25 1 -33 15 -50 90 -8 36 -62 122 -111 176 -27 29 -35 45 -28 55 99 135 129 158 225 168 30 4 99 18 153 31 90 23 101 29 151 77 56 54 88 114 100 187 l7 42 -862 0 -863 0 6 -45z"/>
 </g>
<g id="layer102" fill="#dfdce4" stroke="none">
 <path d="M143 1955 c15 -105 103 -220 189 -246 59 -17 219 -49 250 -49 40 0 102 -38 117 -71 7 -15 25 -44 42 -65 35 -45 36 -54 4 -84 -36 -33 -103 -140 -110 -175 -17 -76 -24 -90 -51 -91 -37 -3 -60 -29 -73 -82 -7 -26 -27 -72 -45 -102 -19 -30 -37 -76 -40 -102 -6 -41 -4 -50 16 -70 13 -13 21 -29 20 -37 -2 -8 1 -17 7 -20 7 -5 7 -19 -1 -46 -6 -22 -11 -78 -11 -125 0 -72 4 -93 26 -137 15 -29 33 -56 40 -60 8 -4 24 -30 38 -56 29 -60 152 -180 157 -154 3 15 8 14 35 -9 19 -16 33 -22 35 -15 3 9 7 9 18 0 11 -9 14 -8 14 7 1 15 9 10 35 -21 25 -28 35 -35 35 -22 0 9 4 17 9 17 14 0 70 -68 89 -106 19 -41 29 -42 44 -9 6 14 20 25 30 25 10 0 30 11 44 25 14 14 29 25 34 25 6 0 27 15 47 34 35 31 93 66 110 67 14 0 75 64 103 107 17 25 30 38 33 30 6 -17 45 66 53 114 4 21 10 35 14 33 10 -6 40 120 40 163 0 16 -6 49 -13 73 -16 51 -12 67 20 92 17 14 23 28 23 58 0 42 -21 102 -45 129 -7 8 -23 45 -35 82 -23 73 -37 89 -75 92 -25 1 -33 15 -50 90 -8 36 -62 122 -111 176 -27 29 -35 45 -28 55 99 135 129 158 225 168 30 4 99 18 153 31 90 23 101 29 151 77 56 54 88 114 100 187 9 58 -10 54 -25 -5 -21 -84 -86 -183 -121 -183 -6 0 -21 57 -54 208 l-5 22 -238 0 -237 0 -1 -29 c-1 -28 -71 -161 -85 -161 -4 0 -17 9 -30 19 -23 18 -23 21 -11 78 20 96 22 93 -58 93 -38 0 -70 -4 -70 -9 0 -6 7 -40 16 -77 15 -68 15 -68 -7 -85 -23 -17 -24 -17 -47 18 -34 50 -64 122 -58 139 5 12 -31 14 -235 14 -183 0 -240 -3 -243 -12 -2 -7 -11 -53 -20 -102 -9 -49 -21 -97 -27 -107 -9 -18 -11 -18 -40 3 -34 25 -87 124 -95 180 -9 55 -28 48 -21 -7z m606 -165 c-28 -85 -52 -156 -54 -158 -4 -5 -75 39 -75 47 0 3 6 15 14 26 7 11 22 36 32 55 25 46 126 191 130 187 2 -2 -19 -73 -47 -157z m542 35 c44 -65 89 -142 89 -151 0 -3 -70 -44 -75 -44 -2 0 -6 19 -10 43 -4 23 -24 87 -45 142 -21 55 -42 109 -46 120 -10 28 18 -8 87 -110z m-382 -44 c18 -23 39 -41 48 -41 31 0 4 -25 -68 -65 -81 -44 -109 -81 -109 -145 l0 -35 -18 23 c-10 13 -27 39 -37 58 l-18 34 54 163 54 163 31 -57 c17 -31 45 -76 63 -98z m362 -71 c26 -89 24 -111 -14 -155 l-33 -38 -2 34 c-3 50 -30 80 -108 121 -38 21 -73 39 -79 41 -5 2 13 28 40 58 28 30 64 79 80 110 l29 57 34 -82 c19 -44 43 -110 53 -146z m-188 -382 c30 -29 30 -32 12 -38 -18 -7 -19 -8 -2 -15 9 -4 17 -11 17 -16 0 -6 -9 -5 -21 1 -11 7 -54 14 -95 17 -85 7 -100 23 -21 23 42 1 48 3 33 11 -10 6 -33 9 -52 6 -19 -3 -34 -2 -34 2 0 18 47 40 88 40 36 1 49 -5 75 -31z m80 -428 c-3 -11 -9 -20 -14 -20 -10 0 -12 33 -3 43 12 12 22 -3 17 -23z m137 9 c9 -15 8 -24 -1 -35 -18 -21 -26 -17 -31 16 -4 25 0 32 19 39 1 1 7 -8 13 -20z m-568 -6 c-5 -10 -7 -24 -5 -30 6 -18 -12 -16 -27 2 -17 20 -5 45 20 45 16 0 19 -4 12 -17z m123 7 c3 -5 3 -15 -1 -21 -6 -11 -23 6 -24 24 0 10 18 9 25 -3z"/>
 </g>
<g id="layer103" fill="#d2cdd6" stroke="none">
 <path d="M145 1955 c15 -108 100 -220 187 -246 59 -18 220 -49 250 -49 17 0 46 -10 65 -21 19 -12 36 -19 39 -16 3 3 -8 13 -24 21 -17 9 -34 20 -37 26 -10 16 129 243 188 308 l21 22 -244 -2 -244 -3 -12 -70 c-15 -90 -32 -153 -43 -160 -28 -17 -131 132 -131 190 0 11 -5 27 -11 35 -8 11 -9 1 -4 -35z"/>
 <path d="M920 1991 c0 -6 7 -40 16 -78 15 -67 15 -68 -7 -85 -18 -15 -24 -16 -37 -6 -9 7 -6 -1 6 -19 13 -18 34 -41 48 -52 14 -11 23 -25 19 -31 -3 -5 -40 -29 -81 -51 -40 -22 -77 -46 -81 -52 -4 -7 -13 -37 -19 -67 l-11 -55 -31 49 c-18 28 -32 61 -33 75 0 25 -1 25 -11 5 -8 -17 -4 -30 19 -64 63 -95 61 -84 23 -127 -48 -52 -97 -132 -105 -168 -17 -76 -24 -90 -51 -91 -37 -3 -60 -29 -73 -82 -7 -26 -27 -72 -45 -102 -19 -30 -37 -76 -40 -102 -6 -41 -4 -50 16 -70 13 -13 21 -29 20 -37 -2 -8 1 -17 7 -20 7 -5 7 -19 -1 -46 -6 -22 -11 -78 -11 -125 0 -72 4 -93 26 -137 15 -29 33 -56 40 -60 8 -4 24 -30 38 -56 29 -60 152 -180 157 -154 3 15 8 14 35 -9 19 -16 33 -22 35 -15 3 9 7 9 18 0 11 -9 14 -8 14 7 1 15 9 10 35 -21 25 -28 35 -35 35 -22 0 9 4 17 9 17 14 0 70 -68 89 -106 19 -41 29 -42 44 -9 6 14 20 25 30 25 10 0 30 11 44 25 14 14 29 25 34 25 6 0 27 15 47 34 37 32 98 69 107 64 9 -5 79 67 106 110 17 25 30 38 33 30 6 -17 45 66 53 114 4 21 10 35 14 33 10 -6 40 120 40 163 0 16 -6 49 -13 73 -16 51 -12 67 20 92 17 14 23 28 23 58 0 42 -21 102 -45 129 -7 8 -23 45 -35 82 -23 73 -37 89 -75 92 -25 1 -33 15 -50 90 -8 36 -62 122 -111 176 -33 37 -36 44 -25 62 7 11 8 17 2 13 -7 -4 -11 5 -11 25 0 56 -25 87 -103 126 -101 51 -102 51 -67 81 16 13 40 39 52 56 20 29 20 30 2 15 -20 -17 -21 -17 -44 7 -22 24 -23 28 -12 89 7 35 12 68 12 75 0 7 -24 11 -70 11 -38 0 -70 -4 -70 -9z m163 -659 c25 -24 39 -61 17 -47 -5 3 -10 1 -10 -4 0 -6 5 -11 10 -11 6 0 10 -5 10 -10 0 -7 -6 -7 -20 0 -11 6 -56 13 -100 17 -85 6 -100 23 -22 23 37 1 43 3 29 11 -10 6 -31 7 -47 4 -53 -12 -29 28 27 45 39 11 73 2 106 -28z m-204 -416 c10 -11 7 -17 -11 -30 -21 -15 -23 -15 -30 5 -14 36 17 55 41 25z m288 -6 c2 -8 -1 -22 -7 -30 -8 -13 -13 -12 -32 8 -20 19 -21 24 -8 32 20 13 44 8 47 -10z m153 -25 c0 -6 -11 -17 -24 -23 -22 -10 -24 -9 -28 24 -2 18 1 35 7 38 13 4 45 -23 45 -39z m-588 0 c-5 -40 -8 -41 -40 -19 -22 15 -22 17 -6 35 9 10 24 19 34 19 12 0 15 -8 12 -35z"/>
 <path d="M1177 1989 c9 -9 3 -29 -23 -80 -19 -38 -32 -69 -29 -69 2 0 18 27 35 60 17 33 32 60 34 60 6 0 101 -130 120 -165 10 -16 28 -48 41 -70 14 -22 25 -43 25 -47 0 -4 -18 -19 -39 -34 -22 -14 -42 -33 -46 -42 -5 -12 0 -11 17 5 36 32 78 50 139 56 30 4 99 18 153 31 90 23 101 29 151 77 30 29 62 72 73 98 25 59 38 131 23 131 -6 0 -11 -9 -11 -20 0 -42 -45 -136 -86 -180 l-43 -45 -10 27 c-9 24 -34 129 -47 196 l-4 22 -242 0 c-181 0 -239 -3 -231 -11z"/>
 <path d="M1211 1888 c-1 -12 31 -89 35 -85 3 2 -4 24 -15 48 -11 24 -20 41 -20 37z"/>
 <path d="M751 1789 c-12 -35 -21 -68 -20 -73 0 -6 11 20 25 58 13 38 22 71 20 73 -2 2 -13 -24 -25 -58z"/>
 </g>
<g id="layer104" fill="#e5c5bc" stroke="none">
 <path d="M340 1943 c-10 -48 -27 -114 -51 -202 -5 -18 42 -35 170 -62 138 -28 146 -27 172 24 29 57 124 203 166 255 l34 42 -240 0 -240 0 -11 -57z"/>
 <path d="M924 1978 c3 -13 10 -47 17 -77 12 -53 11 -55 -15 -76 l-26 -21 40 -39 c36 -36 38 -40 24 -56 -8 -9 -45 -32 -81 -51 -54 -27 -69 -40 -84 -73 -10 -22 -19 -54 -19 -72 0 -22 -11 -45 -37 -75 -52 -60 -100 -137 -108 -173 -17 -76 -24 -90 -51 -91 -37 -3 -60 -29 -73 -82 -7 -26 -27 -72 -45 -102 -19 -30 -37 -76 -40 -102 -6 -41 -4 -50 16 -70 13 -13 21 -29 20 -37 -2 -8 1 -17 7 -20 7 -5 7 -19 -1 -46 -6 -22 -11 -78 -11 -125 0 -72 4 -93 26 -137 15 -29 33 -56 40 -60 8 -4 24 -30 38 -56 29 -60 152 -180 157 -154 3 15 8 14 35 -9 19 -16 33 -22 35 -15 3 9 7 9 18 0 11 -9 14 -8 14 7 1 15 9 10 35 -21 25 -28 35 -35 35 -22 0 9 4 17 9 17 14 0 70 -68 89 -106 19 -41 29 -42 44 -9 6 14 20 25 30 25 10 0 30 11 44 25 14 14 29 25 34 25 6 0 27 15 47 34 37 32 98 69 107 64 9 -5 79 67 106 110 17 25 30 38 33 30 6 -17 45 66 53 114 4 21 10 35 14 33 10 -6 40 120 40 163 0 16 -6 49 -13 73 -16 51 -12 67 20 92 17 14 23 28 23 58 0 42 -21 102 -45 129 -7 8 -23 45 -35 82 -23 73 -37 89 -75 92 -25 1 -33 14 -50 91 -8 35 -82 149 -119 184 -21 19 -26 34 -26 70 0 70 -25 101 -119 150 -44 23 -81 45 -81 50 0 4 16 22 35 41 l35 34 -27 28 c-26 27 -26 29 -15 92 7 35 12 68 12 75 0 7 -25 11 -70 11 -68 0 -70 -1 -66 -22z m165 -655 c19 -20 30 -38 23 -41 -6 -2 -9 -9 -6 -16 4 -11 -5 -11 -48 0 -29 8 -75 14 -103 14 -46 1 -48 2 -31 15 11 8 14 15 8 15 -22 0 -12 20 21 41 46 29 93 20 136 -28z m-349 -408 c-7 -8 -10 -28 -8 -45 5 -36 -19 -41 -47 -10 -18 20 -18 21 5 45 26 28 72 37 50 10z m145 5 c7 -11 -31 -70 -44 -70 -5 0 -6 11 -4 24 3 13 0 27 -6 30 -6 4 -11 11 -11 17 0 12 57 12 65 -1z m289 -7 c-4 -10 -8 -28 -8 -40 -1 -13 -5 -23 -9 -23 -12 0 -46 42 -47 57 0 14 16 21 49 22 18 1 22 -3 15 -16z m128 0 c22 -20 23 -31 1 -55 -25 -28 -40 -23 -35 12 2 17 -1 37 -8 45 -10 12 -9 15 5 15 10 0 27 -7 37 -17z"/>
 <path d="M1223 1928 c63 -85 118 -170 147 -227 17 -35 25 -41 53 -41 35 0 225 42 269 59 26 10 27 11 14 43 -12 28 -36 130 -52 216 l-4 22 -240 0 -240 0 53 -72z"/>
 </g>
<g id="layer105" fill="#e1b7aa" stroke="none">
 <path d="M340 1943 c-10 -48 -27 -114 -51 -202 -5 -18 42 -35 170 -62 138 -28 146 -27 172 24 29 57 124 203 166 255 l34 42 -240 0 -240 0 -11 -57z"/>
 <path d="M924 1978 c3 -13 10 -48 17 -78 12 -53 12 -55 -15 -74 l-26 -20 42 -43 c41 -42 41 -43 23 -58 -11 -9 -42 -27 -70 -41 -27 -15 -58 -34 -68 -42 -24 -21 -47 -77 -47 -113 0 -18 -13 -43 -37 -71 -52 -60 -100 -137 -108 -173 -17 -76 -24 -90 -51 -91 -37 -3 -60 -29 -73 -82 -7 -26 -27 -72 -45 -102 -19 -30 -37 -76 -40 -102 -6 -41 -4 -50 16 -70 13 -13 21 -29 20 -37 -2 -8 1 -17 7 -20 7 -5 7 -19 -1 -46 -6 -22 -11 -78 -11 -125 0 -72 4 -93 26 -137 15 -29 33 -56 40 -60 8 -4 24 -30 38 -56 29 -60 152 -180 157 -154 3 15 8 14 35 -9 19 -16 33 -22 35 -15 3 9 7 9 18 0 11 -9 14 -8 14 7 1 15 9 10 35 -21 25 -28 35 -35 35 -22 0 9 4 17 9 17 14 0 70 -68 89 -106 19 -41 29 -42 44 -9 6 14 20 25 30 25 10 0 30 11 44 25 14 14 29 25 34 25 6 0 27 15 47 34 37 32 98 69 107 64 9 -5 79 67 106 110 17 25 30 38 33 30 6 -17 45 66 53 114 4 21 10 35 14 33 10 -6 40 120 40 163 0 16 -6 49 -13 73 -16 51 -12 67 20 92 17 14 23 28 23 58 0 42 -21 102 -45 129 -7 8 -23 45 -35 82 -23 73 -37 89 -75 92 -25 1 -33 14 -50 91 -8 35 -82 149 -119 184 -19 18 -26 34 -26 64 0 70 -23 101 -110 147 -44 22 -82 45 -86 51 -3 6 10 28 30 48 l36 37 -26 25 c-27 25 -27 28 -8 142 l7 37 -72 0 c-69 0 -71 -1 -67 -22z m165 -655 c19 -20 30 -38 23 -41 -6 -2 -9 -9 -6 -16 4 -11 -5 -11 -48 0 -29 8 -75 14 -103 14 -46 1 -48 2 -31 15 11 8 14 15 8 15 -22 0 -12 20 21 41 46 29 93 20 136 -28z m307 -410 c3 -30 0 -58 -8 -73 -18 -34 -74 -60 -128 -60 -42 1 -44 2 -26 15 11 8 29 15 41 15 12 0 32 11 45 25 19 20 26 23 38 12 12 -9 11 -5 -2 22 -13 25 -15 39 -8 60 6 14 13 35 17 46 6 19 7 19 16 3 6 -10 12 -39 15 -65z m-656 2 c-7 -8 -10 -28 -8 -45 5 -36 -19 -41 -47 -10 -18 20 -18 21 5 45 26 28 72 37 50 10z m145 5 c7 -11 -31 -70 -44 -70 -5 0 -6 11 -4 24 3 13 0 27 -6 30 -6 4 -11 11 -11 17 0 12 57 12 65 -1z m289 -7 c-4 -10 -8 -28 -8 -40 -1 -13 -5 -23 -9 -23 -12 0 -46 42 -47 57 0 14 16 21 49 22 18 1 22 -3 15 -16z m128 0 c22 -20 23 -31 1 -55 -25 -28 -40 -23 -35 12 2 17 -1 37 -8 45 -10 12 -9 15 5 15 10 0 27 -7 37 -17z m-366 -78 c-8 -31 -57 -55 -113 -55 l-37 0 54 35 c30 20 55 39 56 43 0 4 7 20 15 36 l14 29 9 -31 c5 -17 6 -43 2 -57z"/>
 <path d="M1223 1928 c63 -85 118 -170 147 -227 17 -35 25 -41 53 -41 35 0 225 42 269 59 26 10 27 11 14 43 -12 28 -36 130 -52 216 l-4 22 -240 0 -240 0 53 -72z"/>
 </g>
<g id="layer106" fill="#d9a696" stroke="none">
 <path d="M340 1943 c-10 -48 -27 -114 -51 -202 -5 -18 42 -35 170 -62 138 -28 146 -27 172 24 29 57 124 203 166 255 l34 42 -240 0 -240 0 -11 -57z"/>
 <path d="M924 1978 c3 -13 10 -48 17 -78 12 -53 12 -55 -15 -74 l-26 -20 42 -44 c42 -42 43 -44 23 -58 -11 -9 -42 -27 -70 -41 -27 -14 -58 -33 -68 -41 -24 -21 -47 -77 -47 -113 0 -18 -13 -43 -37 -71 -52 -60 -100 -137 -108 -173 -17 -76 -24 -90 -51 -91 -37 -3 -60 -29 -73 -82 -7 -26 -27 -72 -45 -102 -19 -30 -37 -76 -40 -102 -6 -41 -4 -50 16 -70 13 -13 21 -29 20 -37 -2 -8 1 -17 7 -20 7 -5 7 -19 -1 -46 -6 -22 -11 -78 -11 -125 0 -72 4 -93 26 -137 15 -29 33 -56 40 -60 8 -4 24 -30 38 -56 29 -60 152 -180 157 -154 3 15 8 14 35 -9 19 -16 33 -22 35 -15 3 9 7 9 18 0 11 -9 14 -8 14 7 1 15 9 10 35 -21 25 -28 35 -35 35 -22 0 9 4 17 9 17 14 0 70 -68 89 -106 19 -41 29 -42 44 -9 6 14 20 25 30 25 10 0 30 11 44 25 14 14 29 25 34 25 6 0 27 15 47 34 37 32 98 69 107 64 9 -5 79 67 106 110 17 25 30 38 33 30 6 -17 45 66 53 114 4 21 10 35 14 33 10 -6 40 120 40 163 0 16 -6 49 -13 73 -16 51 -12 67 20 92 17 14 23 28 23 58 0 42 -21 102 -45 129 -7 8 -23 45 -35 82 -23 73 -37 89 -75 92 -25 1 -33 15 -50 90 -7 35 -61 121 -108 173 -27 30 -35 49 -39 91 -6 66 -29 92 -120 138 -36 18 -70 39 -73 45 -4 6 9 28 29 48 l36 37 -26 25 c-27 25 -27 28 -8 142 l7 37 -72 0 c-69 0 -71 -1 -67 -22z m165 -655 c19 -20 30 -38 23 -41 -6 -2 -9 -9 -6 -16 4 -11 -5 -11 -48 0 -29 8 -75 14 -103 14 -46 1 -48 2 -31 15 11 8 14 15 8 15 -22 0 -12 20 21 41 46 29 93 20 136 -28z m-241 -309 c22 -8 44 -26 50 -38 10 -24 10 -24 -20 -9 -47 24 -113 25 -142 2 -13 -10 -28 -19 -33 -19 -5 0 -23 -19 -40 -42 -47 -67 -48 -71 -26 -64 13 4 26 -1 38 -14 10 -11 25 -20 33 -20 9 0 30 -5 47 -12 29 -10 38 -8 89 22 32 17 55 34 52 37 -3 3 2 20 11 37 l17 31 9 -32 c12 -41 2 -80 -25 -94 -12 -6 -55 -15 -95 -20 -64 -7 -82 -5 -129 12 -70 27 -89 53 -81 119 7 59 30 107 54 113 43 11 155 6 191 -9z m510 -4 c27 -25 46 -93 38 -138 -11 -73 -65 -97 -198 -90 -75 5 -93 9 -114 29 -13 12 -24 29 -24 37 0 10 8 6 24 -11 33 -36 98 -54 140 -39 18 7 41 12 52 12 11 0 31 11 44 25 19 20 26 23 38 12 10 -8 8 2 -6 30 -12 23 -26 45 -32 48 -6 4 -7 12 -4 18 4 7 3 9 -1 4 -5 -4 -15 -1 -24 6 -45 37 -129 42 -178 10 -25 -17 -26 -17 -15 2 27 52 54 62 163 64 62 1 79 -2 97 -19z m-618 -95 c-7 -8 -10 -28 -8 -45 5 -36 -19 -41 -47 -10 -18 20 -18 21 5 45 26 28 72 37 50 10z m145 5 c7 -11 -31 -70 -44 -70 -5 0 -6 11 -4 24 3 13 0 27 -6 30 -6 4 -11 11 -11 17 0 12 57 12 65 -1z m289 -7 c-4 -10 -8 -28 -8 -40 -1 -13 -5 -23 -9 -23 -12 0 -46 42 -47 57 0 14 16 21 49 22 18 1 22 -3 15 -16z m128 0 c22 -20 23 -31 1 -55 -25 -28 -40 -23 -35 12 2 17 -1 37 -8 45 -10 12 -9 15 5 15 10 0 27 -7 37 -17z"/>
 <path d="M1223 1928 c63 -85 118 -170 147 -227 17 -35 25 -41 53 -41 35 0 225 42 269 59 26 10 27 11 14 43 -12 28 -36 130 -52 216 l-4 22 -240 0 -240 0 53 -72z"/>
 </g>
<g id="layer107" fill="#ab9d9a" stroke="none">
 <path d="M340 1943 c-10 -48 -27 -114 -51 -202 -5 -18 42 -35 170 -62 138 -28 146 -27 172 24 29 57 124 203 166 255 l34 42 -240 0 -240 0 -11 -57z"/>
 <path d="M924 1978 c3 -13 10 -47 17 -77 12 -53 11 -55 -15 -76 l-26 -21 43 -42 c23 -23 49 -42 57 -42 8 0 31 17 52 37 l38 37 -27 28 c-26 27 -26 29 -15 92 7 35 12 68 12 75 0 7 -25 11 -70 11 -68 0 -70 -1 -66 -22z"/>
 <path d="M1223 1928 c63 -85 118 -170 147 -227 17 -35 25 -41 53 -41 35 0 225 42 269 59 26 10 27 11 14 43 -12 28 -36 130 -52 216 l-4 22 -240 0 -240 0 53 -72z"/>
 <path d="M938 1611 c-15 -5 -54 -24 -87 -42 -46 -25 -62 -40 -67 -62 -3 -15 -22 -47 -42 -70 -51 -59 -99 -136 -107 -172 -17 -76 -24 -90 -51 -91 -37 -3 -60 -29 -73 -82 -7 -26 -27 -72 -45 -102 -19 -30 -37 -76 -40 -102 -6 -41 -4 -50 16 -70 13 -13 21 -29 20 -37 -2 -8 1 -17 7 -20 7 -5 7 -19 -1 -46 -6 -22 -11 -78 -11 -125 0 -72 4 -93 26 -137 15 -29 33 -56 40 -60 8 -4 24 -30 38 -56 29 -60 152 -180 157 -154 3 15 8 14 35 -9 19 -16 33 -22 35 -15 3 9 7 9 18 0 11 -9 14 -8 14 7 1 15 9 10 35 -21 25 -28 35 -35 35 -22 0 9 4 17 9 17 14 0 70 -68 89 -106 19 -41 29 -42 44 -9 6 14 20 25 30 25 10 0 30 11 44 25 14 14 29 25 34 25 6 0 27 15 47 34 37 32 98 69 107 64 9 -5 79 67 106 110 17 25 30 38 33 30 6 -17 45 66 53 114 4 21 10 35 14 33 10 -6 40 120 40 163 0 16 -6 49 -13 73 -16 51 -12 67 20 92 17 14 23 28 23 58 0 42 -21 102 -45 129 -7 8 -23 45 -35 82 -23 73 -37 89 -75 92 -25 1 -33 14 -50 91 -8 35 -82 149 -119 184 -19 18 -26 34 -26 63 0 22 -4 37 -9 33 -5 -3 -39 11 -75 30 -69 38 -147 52 -198 36z m190 -167 c55 -27 179 -132 204 -174 9 -14 30 -77 48 -140 18 -63 35 -121 37 -128 3 -6 -9 1 -26 17 -56 53 -221 55 -281 4 -35 -29 -67 -86 -78 -140 -7 -31 -12 -38 -32 -38 -20 0 -25 7 -32 38 -11 54 -43 111 -78 140 -37 31 -97 42 -185 32 -54 -5 -70 -12 -95 -37 -17 -16 -30 -27 -30 -23 0 27 77 257 96 285 46 68 192 176 254 186 19 3 40 7 45 10 23 9 104 -8 153 -32z m-531 -321 c-4 -21 -11 -39 -17 -41 -5 -2 -20 -13 -32 -24 -13 -11 -16 -16 -8 -12 33 18 38 13 28 -25 -13 -47 -22 -55 -16 -14 2 18 0 29 -5 26 -5 -3 -7 -23 -4 -44 3 -22 1 -37 -4 -33 -5 3 -9 21 -9 40 0 25 -4 33 -12 28 -7 -4 -2 9 10 30 12 20 18 34 12 31 -20 -13 -9 27 15 50 35 36 49 32 42 -12z m843 19 c13 -11 22 -31 24 -53 2 -20 6 -40 9 -46 3 -5 0 -10 -8 -10 -8 0 -11 5 -8 10 3 6 2 7 -4 4 -5 -3 -7 -21 -5 -39 5 -32 6 -32 13 -8 l7 25 1 -25 c2 -51 -16 -53 -30 -3 -13 47 -12 61 4 56 4 -2 7 1 7 6 0 5 -9 12 -19 16 -18 6 -31 32 -31 68 0 22 12 22 40 -1z m-584 -128 c40 -19 84 -100 84 -156 0 -50 -28 -68 -123 -78 -141 -16 -218 24 -216 113 0 60 20 110 49 124 36 18 165 16 206 -3z m509 -8 c16 -16 25 -40 30 -79 14 -108 -33 -147 -175 -147 -110 0 -153 19 -158 69 -7 67 49 161 103 174 11 3 55 5 98 6 69 1 80 -2 102 -23z m146 -80 c14 -16 11 -78 -3 -73 -8 2 -12 20 -12 43 1 21 0 31 -3 21 -2 -9 -8 -15 -13 -12 -4 3 -3 19 3 36 9 24 13 27 15 13 2 -11 8 -23 13 -28z m-992 -9 c1 -5 -3 -5 -9 -2 -5 3 -10 16 -9 28 0 21 1 21 9 2 5 -11 9 -24 9 -28z m-19 -24 c0 -12 -4 -25 -10 -28 -6 -4 -10 11 -10 37 0 31 3 39 10 28 5 -8 10 -25 10 -37z m568 -121 c2 -7 14 -17 26 -22 24 -9 260 3 287 14 14 6 16 1 12 -41 -12 -136 -24 -175 -71 -225 -43 -46 -47 -48 -101 -48 -31 0 -72 5 -91 10 -51 16 -208 13 -284 -5 -36 -9 -77 -13 -90 -9 -14 3 -47 28 -75 56 -53 53 -66 87 -74 204 l-5 60 31 -4 c29 -5 30 -6 9 -13 -12 -5 -22 -11 -22 -14 0 -3 61 -5 136 -5 74 0 133 4 130 8 -3 5 11 17 31 28 43 23 144 27 151 6z"/>
 <path d="M933 1350 c-27 -16 -71 -77 -61 -85 2 -1 37 1 78 5 l75 7 -60 2 c-55 1 -58 3 -41 16 11 8 14 15 8 15 -22 0 -12 20 21 40 17 11 28 20 22 20 -5 0 -24 -9 -42 -20z"/>
 <path d="M1046 1360 c11 -4 33 -22 47 -40 15 -17 27 -28 27 -23 0 15 -65 73 -80 72 -9 0 -6 -4 6 -9z"/>
 <path d="M1106 1265 c5 -11 2 -14 -12 -9 -25 9 -17 2 29 -25 l38 -23 -18 36 c-16 34 -49 53 -37 21z"/>
 <path d="M956 1181 c-43 -26 -45 -48 -13 -156 18 -60 21 -41 6 38 -12 68 2 108 41 117 19 4 21 7 9 12 -8 3 -28 -1 -43 -11z"/>
 <path d="M684 928 c-48 -55 -48 -54 -12 -88 31 -28 37 -30 88 -25 30 4 71 10 90 15 30 8 35 14 36 41 l1 33 -19 -27 c-24 -33 -37 -35 -31 -3 3 13 0 27 -6 30 -20 13 -11 25 22 29 18 2 5 4 -29 5 -34 1 -74 5 -90 8 -22 4 -34 0 -50 -18z m56 -13 c-7 -8 -10 -28 -8 -45 5 -36 -19 -41 -47 -10 -18 20 -18 21 5 45 26 28 72 37 50 10z"/>
 <path d="M1185 940 c-38 -4 -55 -7 -36 -8 28 -2 32 -5 25 -19 -4 -10 -8 -28 -8 -40 -1 -29 -13 -29 -36 -1 l-18 23 1 -28 c2 -31 27 -41 127 -53 50 -5 57 -4 79 20 20 21 27 24 40 13 12 -10 13 -9 6 3 -38 67 -68 100 -88 98 -12 -1 -53 -4 -92 -8z m117 -27 c22 -20 23 -31 1 -55 -25 -28 -40 -23 -35 12 2 17 -1 37 -8 45 -10 12 -9 15 5 15 10 0 27 -7 37 -17z"/>
 <path d="M1075 720 c-11 -18 129 -90 175 -90 37 0 98 39 106 68 10 35 -2 37 -43 7 -45 -35 -114 -38 -165 -8 -46 27 -67 33 -73 23z"/>
 </g>
<g id="layer108" fill="#c98976" stroke="none">
 <path d="M345 1963 c-6 -31 -34 -143 -56 -222 -5 -18 42 -35 170 -62 139 -28 141 -28 175 34 38 68 120 191 163 245 l34 42 -240 0 -240 0 -6 -37z"/>
 <path d="M927 1963 c3 -21 11 -56 17 -78 11 -37 10 -41 -14 -62 l-25 -22 40 -40 c21 -23 45 -41 52 -41 17 0 83 59 83 74 0 7 -9 21 -21 32 -21 19 -22 48 -2 145 l6 29 -71 0 -71 0 6 -37z"/>
 <path d="M1203 1958 c42 -52 137 -198 166 -255 19 -37 26 -43 54 -43 35 0 225 42 269 59 l26 10 -18 48 c-10 26 -26 87 -35 136 l-18 87 -239 0 -239 0 34 -42z"/>
 <path d="M938 1611 c-15 -5 -54 -24 -87 -42 -46 -25 -62 -40 -67 -62 -3 -15 -22 -47 -42 -70 -51 -59 -99 -136 -107 -172 -17 -76 -24 -90 -51 -91 -37 -3 -60 -29 -73 -82 -7 -26 -27 -72 -45 -102 -19 -30 -37 -76 -40 -102 -6 -41 -4 -50 16 -70 13 -13 21 -29 20 -37 -2 -8 1 -17 7 -20 7 -5 7 -19 -1 -46 -6 -22 -11 -78 -11 -125 0 -72 4 -93 26 -137 15 -29 33 -56 40 -60 8 -4 24 -30 38 -56 29 -60 152 -180 157 -154 3 15 8 14 35 -9 19 -16 33 -22 35 -15 3 9 7 9 18 0 11 -9 14 -8 14 7 1 15 9 10 35 -21 25 -28 35 -35 35 -22 0 9 4 17 9 17 14 0 70 -68 89 -106 19 -41 29 -42 44 -9 6 14 20 25 30 25 10 0 30 11 44 25 14 14 29 25 34 25 6 0 27 15 47 34 37 32 98 69 107 64 9 -5 79 67 106 110 17 25 30 38 33 30 6 -17 45 66 53 114 4 21 10 35 14 33 10 -6 40 120 40 163 0 16 -6 49 -13 73 -16 51 -12 67 20 92 17 14 23 28 23 58 0 42 -21 102 -45 129 -7 8 -23 45 -35 82 -23 73 -37 89 -75 92 -25 1 -33 14 -50 91 -8 35 -82 149 -119 184 -19 18 -26 34 -26 63 0 22 -4 37 -9 33 -5 -3 -39 11 -75 30 -69 38 -147 52 -198 36z m190 -167 c55 -27 179 -132 204 -174 9 -14 30 -77 48 -140 18 -63 35 -121 37 -128 3 -6 -9 1 -26 17 -56 53 -221 55 -281 4 -35 -29 -67 -86 -78 -140 -7 -31 -12 -38 -32 -38 -20 0 -25 7 -32 38 -11 54 -43 111 -78 140 -37 31 -97 42 -185 32 -54 -5 -70 -12 -95 -37 -17 -16 -30 -27 -30 -23 0 27 77 257 96 285 46 68 192 176 254 186 19 3 40 7 45 10 23 9 104 -8 153 -32z m-531 -321 c-4 -21 -11 -39 -17 -41 -5 -2 -20 -13 -32 -24 -13 -11 -16 -16 -8 -12 33 18 38 13 28 -25 -13 -47 -22 -55 -16 -14 2 18 0 29 -5 26 -5 -3 -7 -23 -4 -44 3 -22 1 -37 -4 -33 -5 3 -9 21 -9 40 0 25 -4 33 -12 28 -7 -4 -2 9 10 30 12 20 18 34 12 31 -20 -13 -9 27 15 50 35 36 49 32 42 -12z m843 19 c13 -11 22 -31 24 -53 2 -20 6 -40 9 -46 3 -5 0 -10 -8 -10 -8 0 -11 5 -8 10 3 6 2 7 -4 4 -5 -3 -7 -21 -5 -39 5 -32 6 -32 13 -8 l7 25 1 -25 c2 -51 -16 -53 -30 -3 -13 47 -12 61 4 56 4 -2 7 1 7 6 0 5 -9 12 -19 16 -18 6 -31 32 -31 68 0 22 12 22 40 -1z m-584 -128 c40 -19 84 -100 84 -156 0 -48 -25 -66 -112 -80 -135 -23 -229 25 -227 115 0 60 20 110 49 124 36 18 165 16 206 -3z m496 5 c27 -15 48 -69 48 -128 0 -42 -4 -53 -30 -74 -61 -51 -216 -58 -286 -12 -58 38 2 199 81 218 39 9 167 7 187 -4z m159 -93 c14 -16 11 -78 -3 -73 -8 2 -12 20 -12 43 1 21 0 31 -3 21 -2 -9 -8 -15 -13 -12 -4 3 -3 19 3 36 9 24 13 27 15 13 2 -11 8 -23 13 -28z m-992 -9 c1 -5 -3 -5 -9 -2 -5 3 -10 16 -9 28 0 21 1 21 9 2 5 -11 9 -24 9 -28z m-19 -24 c0 -12 -4 -25 -10 -28 -6 -4 -10 11 -10 37 0 31 3 39 10 28 5 -8 10 -25 10 -37z m568 -121 c2 -7 14 -17 26 -22 24 -9 260 3 287 14 14 6 16 1 12 -41 -12 -136 -24 -175 -71 -225 -43 -46 -47 -48 -101 -48 -31 0 -72 5 -91 10 -51 16 -208 13 -284 -5 -36 -9 -77 -13 -90 -9 -14 3 -47 28 -75 56 -53 53 -66 87 -74 204 l-5 60 31 -4 c29 -5 30 -6 9 -13 -12 -5 -22 -11 -22 -14 0 -3 61 -5 136 -5 74 0 133 4 130 8 -3 5 11 17 31 28 43 23 144 27 151 6z"/>
 <path d="M885 1299 c-9 -17 -14 -33 -11 -37 8 -8 46 28 46 44 0 27 -20 23 -35 -7z"/>
 <path d="M1109 1258 c4 -12 18 -28 30 -37 l22 -14 -17 36 c-19 40 -49 53 -35 15z"/>
 <path d="M956 1181 c-43 -26 -45 -48 -13 -156 18 -60 21 -41 6 38 -12 68 2 108 41 117 19 4 21 7 9 12 -8 3 -28 -1 -43 -11z"/>
 <path d="M678 923 c-37 -43 -37 -54 -3 -84 29 -26 37 -28 86 -23 73 8 119 23 119 39 0 7 3 22 6 32 4 11 0 9 -11 -7 -10 -14 -20 -27 -21 -29 -7 -8 -54 -9 -48 0 3 5 10 7 15 4 14 -9 11 53 -3 62 -8 5 1 10 27 14 27 4 9 7 -56 8 -80 1 -98 -2 -111 -16z m72 2 c0 -3 -6 -14 -12 -25 -10 -16 -10 -24 0 -40 16 -26 15 -30 -6 -30 -10 0 -29 11 -42 25 -22 23 -22 25 -6 50 10 15 26 25 41 25 14 0 25 -2 25 -5z"/>
 <path d="M1152 933 c37 -4 37 -5 22 -28 -12 -18 -13 -28 -4 -44 16 -30 -5 -27 -34 4 l-24 26 2 -26 c1 -30 12 -35 105 -44 71 -7 74 -6 102 21 l28 29 -20 34 -21 35 -96 -2 c-54 -1 -80 -3 -60 -5z m158 -28 l23 -25 -23 -25 c-24 -25 -60 -34 -60 -14 0 5 -5 7 -12 3 -7 -4 -8 -3 -4 4 4 7 14 12 22 12 16 0 19 36 4 45 -16 10 -11 25 8 25 10 0 29 -11 42 -25z"/>
 <path d="M1075 720 c-11 -18 129 -90 175 -90 37 0 98 39 106 68 10 35 -2 37 -43 7 -45 -35 -114 -38 -165 -8 -46 27 -67 33 -73 23z"/>
 </g>
<g id="layer109" fill="#bf7b66" stroke="none">
 <path d="M345 1963 c-6 -31 -34 -143 -56 -222 -5 -18 42 -35 170 -62 139 -28 141 -28 175 34 38 68 120 191 163 245 l34 42 -240 0 -240 0 -6 -37z"/>
 <path d="M927 1963 c3 -21 11 -56 17 -78 11 -37 10 -41 -14 -62 l-25 -22 40 -40 c21 -23 45 -41 52 -41 17 0 83 59 83 74 0 7 -9 21 -21 32 -21 19 -22 48 -2 145 l6 29 -71 0 -71 0 6 -37z"/>
 <path d="M1203 1958 c42 -52 137 -198 166 -255 19 -37 26 -43 54 -43 35 0 225 42 269 59 l26 10 -18 48 c-10 26 -26 87 -35 136 l-18 87 -239 0 -239 0 34 -42z"/>
 <path d="M945 1560 c-16 -4 -51 -8 -77 -9 -26 0 -50 -6 -53 -11 -4 -6 -10 -8 -15 -5 -5 3 -11 -9 -15 -25 -4 -17 -23 -50 -43 -73 -51 -59 -99 -136 -107 -172 -17 -76 -24 -90 -51 -91 -37 -3 -60 -29 -73 -82 -7 -26 -27 -72 -45 -102 -19 -30 -37 -76 -40 -102 -6 -41 -4 -50 16 -70 13 -13 21 -29 20 -37 -2 -8 1 -17 7 -20 7 -5 7 -19 -1 -46 -6 -22 -11 -78 -11 -125 0 -72 4 -93 26 -137 15 -29 33 -56 40 -60 8 -4 24 -30 38 -56 29 -60 152 -180 157 -154 3 15 8 14 35 -9 19 -16 33 -22 35 -15 3 9 7 9 18 0 11 -9 14 -8 14 7 1 15 9 10 35 -21 25 -28 35 -35 35 -22 0 9 4 17 9 17 14 0 70 -68 89 -106 19 -41 29 -42 44 -9 6 14 20 25 30 25 10 0 30 11 44 25 14 14 29 25 34 25 6 0 27 15 47 34 37 32 98 69 107 64 9 -5 79 67 106 110 17 25 30 38 33 30 6 -17 45 66 53 114 4 21 10 35 14 33 10 -6 40 120 40 163 0 16 -6 49 -13 73 -16 51 -12 67 20 92 17 14 23 28 23 58 0 42 -21 102 -45 129 -7 8 -23 45 -35 82 -23 73 -37 89 -75 92 -25 1 -33 14 -50 91 -8 35 -82 149 -119 184 -19 18 -26 35 -26 60 l0 36 -72 3 c-40 2 -80 8 -90 13 -19 10 -70 10 -113 -1z m131 -95 c64 -19 121 -58 203 -139 l67 -65 34 -118 c18 -65 35 -127 38 -138 4 -16 -1 -13 -26 12 -27 26 -42 32 -97 38 -88 10 -148 -1 -185 -32 -35 -29 -67 -86 -78 -140 -7 -31 -12 -38 -32 -38 -20 0 -25 7 -32 38 -28 135 -110 190 -260 173 -69 -8 -100 -25 -117 -62 -27 -59 -18 -10 23 126 43 145 43 145 104 206 77 76 129 113 195 135 64 22 99 23 163 4z m-470 -322 c-15 -49 -56 -187 -56 -190 0 -2 -4 -1 -10 2 -5 3 -10 23 -11 43 l-1 37 -13 -29 c-9 -21 -10 -38 -3 -57 7 -20 5 -35 -7 -58 -8 -17 -18 -31 -21 -31 -10 0 2 128 13 142 6 7 19 39 28 70 18 64 36 88 66 88 15 0 19 -5 15 -17z m836 0 c9 -10 23 -43 32 -74 8 -31 26 -69 38 -85 14 -18 16 -24 5 -15 -15 12 -16 11 -6 -18 6 -17 9 -49 7 -71 -3 -34 -1 -40 15 -40 10 0 15 -4 12 -10 -12 -19 -35 -10 -46 18 -6 15 -15 35 -20 45 -6 11 -6 25 1 37 13 24 13 70 0 90 -7 12 -10 8 -10 -15 -1 -58 -16 -61 -35 -6 -9 28 -14 55 -10 61 3 5 2 10 -3 10 -6 0 -13 12 -16 28 -4 15 -9 35 -12 45 -4 12 0 17 14 17 10 0 26 -8 34 -17z m-586 -129 c40 -19 84 -100 84 -156 0 -48 -25 -66 -112 -80 -135 -23 -229 25 -227 115 0 60 20 110 49 124 36 18 165 16 206 -3z m496 5 c27 -15 48 -69 48 -128 0 -42 -4 -53 -30 -74 -61 -51 -216 -58 -286 -12 -58 38 2 199 81 218 39 9 167 7 187 -4z m-272 -249 c32 -18 221 -26 275 -11 21 6 40 9 40 8 1 -1 -2 -44 -6 -95 -9 -104 -33 -159 -88 -199 -34 -26 -109 -31 -171 -13 -52 16 -205 13 -287 -6 -66 -15 -74 -14 -108 1 -80 39 -118 112 -128 251 l-5 60 31 -4 c28 -4 29 -6 12 -18 -16 -12 -1 -14 111 -14 83 0 124 4 114 10 -11 7 -8 11 15 19 17 6 37 15 45 20 23 13 122 7 150 -9z"/>
 <path d="M885 1299 c-9 -17 -14 -33 -11 -37 8 -8 46 28 46 44 0 27 -20 23 -35 -7z"/>
 <path d="M1109 1258 c4 -12 18 -28 30 -37 l22 -14 -17 36 c-19 40 -49 53 -35 15z"/>
 <path d="M944 1167 l-27 -24 16 -54 c15 -47 16 -49 11 -14 -3 22 -8 48 -11 59 -4 13 -2 16 7 11 8 -5 11 -4 7 2 -6 9 16 24 53 36 9 4 7 6 -7 6 -12 1 -34 -10 -49 -22z"/>
 <path d="M678 923 c-37 -43 -37 -54 -3 -84 29 -26 37 -28 86 -23 73 8 119 23 119 39 0 7 3 22 6 32 4 11 0 9 -11 -7 -10 -14 -20 -27 -21 -29 -7 -8 -54 -9 -48 0 3 5 10 7 15 4 14 -9 11 53 -3 62 -8 5 1 10 27 14 27 4 9 7 -56 8 -80 1 -98 -2 -111 -16z m72 2 c0 -3 -6 -14 -12 -25 -10 -16 -10 -24 0 -40 16 -26 15 -30 -6 -30 -10 0 -29 11 -42 25 -22 23 -22 25 -6 50 10 15 26 25 41 25 14 0 25 -2 25 -5z"/>
 <path d="M1152 933 c37 -4 37 -5 22 -28 -12 -18 -13 -28 -4 -44 16 -30 -5 -27 -34 4 l-24 26 2 -26 c1 -30 12 -35 105 -44 71 -7 74 -6 102 21 l28 29 -20 34 -21 35 -96 -2 c-54 -1 -80 -3 -60 -5z m158 -28 l23 -25 -23 -25 c-24 -25 -60 -34 -60 -14 0 5 -5 7 -12 3 -7 -4 -8 -3 -4 4 4 7 14 12 22 12 16 0 19 36 4 45 -16 10 -11 25 8 25 10 0 29 -11 42 -25z"/>
 <path d="M1080 712 c0 -10 78 -56 122 -72 41 -15 71 -9 119 23 42 28 54 63 17 52 -12 -4 -34 -16 -47 -26 -32 -26 -76 -24 -139 6 -57 26 -72 30 -72 17z"/>
 </g>
<g id="layer110" fill="#887788" stroke="none">
 <path d="M345 1963 c-6 -31 -34 -143 -56 -222 -5 -18 42 -35 170 -62 139 -28 141 -28 175 34 38 68 120 191 163 245 l34 42 -240 0 -240 0 -6 -37z"/>
 <path d="M927 1963 c3 -21 11 -56 17 -78 11 -37 10 -41 -14 -62 l-25 -22 40 -40 c21 -23 45 -41 52 -41 17 0 83 59 83 74 0 7 -9 21 -21 32 -21 19 -22 48 -2 145 l6 29 -71 0 -71 0 6 -37z"/>
 <path d="M1203 1958 c42 -52 137 -198 166 -255 19 -37 26 -43 54 -43 35 0 225 42 269 59 l26 10 -18 48 c-10 26 -26 87 -35 136 l-18 87 -239 0 -239 0 34 -42z"/>
 <path d="M923 1551 c-28 -9 -70 -30 -92 -44 -26 -17 -41 -23 -41 -15 0 7 -8 0 -18 -17 -11 -16 -26 -36 -35 -43 -26 -21 -95 -135 -102 -167 -17 -76 -24 -90 -51 -91 -37 -3 -60 -29 -73 -82 -7 -26 -27 -72 -45 -102 -19 -30 -37 -76 -40 -102 -6 -41 -4 -50 16 -70 13 -13 21 -29 20 -37 -2 -8 1 -17 7 -20 7 -5 7 -19 -1 -46 -6 -22 -11 -78 -11 -125 0 -72 4 -93 26 -137 15 -29 33 -56 40 -60 8 -4 24 -30 38 -56 29 -60 152 -180 157 -154 3 15 8 14 35 -9 19 -16 33 -22 35 -15 3 9 7 9 18 0 11 -9 14 -8 14 7 1 15 9 10 35 -21 25 -28 35 -35 35 -22 0 9 4 17 9 17 14 0 70 -68 89 -106 19 -41 29 -42 44 -9 6 14 20 25 30 25 10 0 30 11 44 25 14 14 29 25 34 25 6 0 27 15 47 34 37 32 98 69 107 64 9 -5 79 67 106 110 17 25 30 38 33 30 6 -17 45 66 53 114 4 21 10 35 14 33 10 -6 40 120 40 163 0 16 -6 49 -13 73 -16 51 -12 67 20 92 17 14 23 28 23 58 0 42 -21 102 -45 129 -7 8 -23 45 -35 82 -23 73 -37 89 -75 92 -25 1 -33 14 -50 91 -8 35 -82 149 -119 184 -14 14 -27 34 -27 45 -1 17 -2 18 -6 3 -4 -16 -7 -16 -35 5 -44 31 -138 68 -173 67 -16 0 -53 -8 -82 -18z m153 -86 c64 -19 121 -58 205 -140 59 -58 71 -76 86 -128 9 -34 19 -55 21 -49 5 17 38 15 56 -3 9 -9 21 -35 27 -58 6 -23 18 -55 27 -72 18 -33 18 -34 21 -117 1 -44 5 -58 16 -58 20 0 20 40 0 87 -17 39 -13 57 4 24 19 -35 25 -105 10 -118 -29 -24 -40 -18 -60 32 -16 41 -17 55 -7 82 9 23 9 38 0 55 -10 22 -11 22 -11 -9 -1 -37 -17 -52 -26 -24 -3 12 -12 18 -20 15 -7 -3 -16 3 -19 14 -10 31 -48 50 -114 58 -150 17 -232 -38 -260 -173 -7 -31 -12 -38 -32 -38 -20 0 -25 7 -32 38 -11 54 -43 111 -78 140 -36 31 -97 42 -184 32 -65 -6 -92 -22 -124 -71 -11 -17 -12 -15 -7 16 5 34 4 34 -11 -7 -18 -50 -34 -56 -34 -13 0 17 -5 30 -11 30 -8 0 -10 -16 -6 -47 3 -31 0 -57 -11 -80 -28 -60 -42 -31 -23 50 11 46 4 48 -15 2 -19 -47 -19 -95 2 -95 8 0 12 -5 9 -10 -12 -20 -35 11 -35 47 0 33 20 84 45 113 7 8 24 46 37 85 19 57 29 72 51 80 21 7 30 6 36 -4 5 -8 14 10 25 48 14 51 27 71 81 124 80 80 132 115 198 138 64 22 99 23 163 4z m-220 -451 c40 -19 84 -100 84 -156 0 -48 -25 -66 -112 -80 -135 -23 -229 25 -227 115 0 60 20 110 49 124 36 18 165 16 206 -3z m496 5 c27 -15 48 -69 48 -128 0 -42 -4 -53 -30 -74 -61 -51 -216 -58 -286 -12 -58 38 2 199 81 218 39 9 167 7 187 -4z m-272 -249 c32 -18 221 -26 275 -11 21 6 40 9 40 8 1 -1 -2 -44 -6 -95 -9 -104 -33 -159 -88 -199 -34 -26 -109 -31 -171 -13 -52 16 -205 13 -287 -6 -66 -15 -74 -14 -108 1 -80 39 -118 112 -128 251 l-5 60 31 -4 c28 -4 29 -6 12 -18 -16 -12 -1 -14 111 -14 83 0 124 4 114 10 -11 7 -8 11 15 19 17 6 37 15 45 20 23 13 122 7 150 -9z"/>
 <path d="M885 1299 c-9 -17 -14 -33 -11 -37 8 -8 46 28 46 44 0 27 -20 23 -35 -7z"/>
 <path d="M1109 1258 c4 -12 18 -28 30 -37 l22 -14 -17 36 c-19 40 -49 53 -35 15z"/>
 <path d="M596 1104 c-4 -14 -5 -28 -3 -31 3 -2 8 8 11 23 4 14 5 28 3 31 -3 2 -8 -8 -11 -23z"/>
 <path d="M1411 1050 c0 -8 4 -24 9 -35 5 -13 9 -14 9 -5 0 8 -4 24 -9 35 -5 13 -9 14 -9 5z"/>
 <path d="M678 923 c-37 -43 -37 -54 -3 -84 29 -26 37 -28 86 -23 73 8 119 23 119 39 0 7 3 22 6 32 4 11 0 9 -11 -7 -10 -14 -20 -27 -21 -29 -7 -8 -54 -9 -48 0 3 5 10 7 15 4 14 -9 11 53 -3 62 -8 5 1 10 27 14 27 4 9 7 -56 8 -80 1 -98 -2 -111 -16z m72 2 c0 -3 -6 -14 -12 -25 -10 -16 -10 -24 0 -40 16 -26 15 -30 -6 -30 -10 0 -29 11 -42 25 -22 23 -22 25 -6 50 10 15 26 25 41 25 14 0 25 -2 25 -5z"/>
 <path d="M1152 933 c37 -4 37 -5 22 -28 -12 -18 -13 -28 -4 -44 16 -30 -5 -27 -34 4 l-24 26 2 -26 c1 -30 12 -35 105 -44 71 -7 74 -6 102 21 l28 29 -20 34 -21 35 -96 -2 c-54 -1 -80 -3 -60 -5z m158 -28 l23 -25 -23 -25 c-24 -25 -60 -34 -60 -14 0 5 -5 7 -12 3 -7 -4 -8 -3 -4 4 4 7 14 12 22 12 16 0 19 36 4 45 -16 10 -11 25 8 25 10 0 29 -11 42 -25z"/>
 <path d="M1080 712 c0 -17 128 -82 161 -82 29 0 98 38 113 62 18 29 -1 31 -47 4 -55 -32 -88 -33 -155 -1 -57 26 -72 30 -72 17z"/>
 </g>
<g id="layer111" fill="#ab5a42" stroke="none">
 <path d="M335 1913 c-9 -49 -25 -109 -35 -136 -11 -27 -14 -49 -9 -53 26 -16 242 -64 288 -64 22 0 31 8 45 38 22 45 157 248 186 280 l21 22 -239 0 -239 0 -18 -87z"/>
 <path d="M927 1963 c3 -21 12 -56 20 -77 13 -39 13 -41 -13 -61 l-27 -22 38 -41 c20 -23 43 -42 51 -42 18 0 84 59 84 74 0 7 -9 21 -21 32 -21 19 -22 48 -2 145 l6 29 -71 0 -71 0 6 -37z"/>
 <path d="M1185 1984 c23 -24 193 -281 200 -304 5 -14 15 -20 38 -20 35 0 225 42 270 59 26 10 27 12 14 38 -15 29 -41 129 -52 201 l-7 42 -240 0 c-221 0 -238 -1 -223 -16z"/>
 <path d="M923 1551 c-28 -9 -70 -30 -92 -44 -26 -17 -41 -23 -41 -15 0 7 -8 0 -18 -17 -11 -16 -26 -36 -35 -43 -26 -21 -95 -135 -102 -167 -17 -76 -24 -90 -51 -91 -37 -3 -60 -29 -73 -82 -7 -26 -27 -72 -45 -102 -19 -30 -37 -76 -40 -102 -6 -41 -4 -50 16 -70 13 -13 21 -29 20 -37 -2 -8 1 -17 7 -20 7 -5 7 -19 -1 -46 -6 -22 -11 -78 -11 -125 0 -72 4 -93 26 -137 15 -29 33 -56 40 -60 8 -4 24 -30 38 -56 29 -60 152 -180 157 -154 3 15 8 14 35 -9 19 -16 33 -22 35 -15 3 9 7 9 18 0 11 -9 14 -8 14 7 1 15 9 10 35 -21 25 -28 35 -35 35 -22 0 9 4 17 9 17 14 0 70 -68 89 -106 19 -41 29 -42 44 -9 6 14 20 25 30 25 10 0 30 11 44 25 14 14 29 25 34 25 6 0 27 15 47 34 37 32 98 69 107 64 9 -5 79 67 106 110 17 25 30 38 33 30 6 -17 45 66 53 114 4 21 10 35 14 33 10 -6 40 120 40 163 0 16 -6 49 -13 73 -16 51 -12 67 20 92 17 14 23 28 23 58 0 42 -21 102 -45 129 -7 8 -23 45 -35 82 -23 73 -37 89 -75 92 -25 1 -33 14 -50 91 -8 35 -82 149 -119 184 -14 14 -27 34 -27 45 -1 17 -2 18 -6 3 -4 -16 -7 -16 -35 5 -44 31 -138 68 -173 67 -16 0 -53 -8 -82 -18z m153 -86 c64 -19 121 -58 205 -140 59 -58 71 -76 86 -128 9 -34 19 -55 21 -49 5 17 38 15 56 -3 9 -9 21 -35 27 -58 6 -23 18 -55 27 -72 18 -33 18 -34 21 -117 1 -44 5 -58 16 -58 20 0 20 40 0 87 -17 39 -13 57 4 24 19 -35 25 -105 10 -118 -29 -24 -40 -18 -60 32 -16 41 -17 55 -7 82 9 23 9 38 0 55 -10 22 -11 22 -11 -9 -1 -37 -17 -52 -26 -24 -3 12 -12 18 -20 15 -7 -3 -16 3 -19 14 -10 31 -48 50 -114 58 -150 17 -232 -38 -260 -173 -7 -31 -12 -38 -32 -38 -20 0 -25 7 -32 38 -11 54 -43 111 -78 140 -36 31 -97 42 -184 32 -65 -6 -92 -22 -124 -71 -11 -17 -12 -15 -7 16 5 34 4 34 -11 -7 -18 -50 -34 -56 -34 -13 0 17 -5 30 -11 30 -8 0 -10 -16 -6 -47 3 -31 0 -57 -11 -80 -28 -60 -42 -31 -23 50 11 46 4 48 -15 2 -19 -47 -19 -95 2 -95 8 0 12 -5 9 -10 -12 -20 -35 11 -35 47 0 33 20 84 45 113 7 8 24 46 37 85 19 57 29 72 51 80 21 7 30 6 36 -4 5 -8 14 10 25 48 14 51 27 71 81 124 80 80 132 115 198 138 64 22 99 23 163 4z m-220 -451 c40 -19 84 -100 84 -156 0 -48 -25 -66 -112 -80 -135 -23 -229 25 -227 115 0 60 20 110 49 124 36 18 165 16 206 -3z m496 5 c27 -15 48 -69 48 -128 0 -42 -4 -53 -30 -74 -61 -51 -216 -58 -286 -12 -58 38 2 199 81 218 39 9 167 7 187 -4z m-272 -249 c32 -18 221 -26 275 -11 21 6 40 9 40 8 1 -1 -2 -44 -6 -95 -9 -104 -33 -159 -88 -199 -34 -26 -109 -31 -171 -13 -52 16 -205 13 -287 -6 -66 -15 -74 -14 -108 1 -80 39 -118 112 -128 251 l-5 60 31 -4 c28 -4 29 -6 12 -18 -16 -12 -1 -14 111 -14 83 0 124 4 114 10 -11 7 -8 11 15 19 17 6 37 15 45 20 23 13 122 7 150 -9z"/>
 <path d="M885 1301 c-20 -40 -12 -52 16 -24 16 16 19 25 11 39 -9 15 -12 14 -27 -15z"/>
 <path d="M1115 1258 c9 -27 22 -44 30 -36 8 7 -16 58 -27 58 -5 0 -6 -10 -3 -22z"/>
 <path d="M596 1104 c-4 -14 -5 -28 -3 -31 3 -2 8 8 11 23 4 14 5 28 3 31 -3 2 -8 -8 -11 -23z"/>
 <path d="M1411 1050 c0 -8 4 -24 9 -35 5 -13 9 -14 9 -5 0 8 -4 24 -9 35 -5 13 -9 14 -9 5z"/>
 <path d="M666 904 l-24 -36 31 -28 c31 -26 34 -27 101 -19 90 11 101 15 103 38 2 19 1 19 -18 0 -24 -24 -79 -28 -59 -4 7 8 16 12 21 9 5 -3 9 6 9 20 0 14 -5 28 -12 32 -8 5 -6 10 8 15 11 5 -12 8 -58 8 l-77 1 -25 -36z m78 1 c-15 -23 -15 -27 0 -50 16 -24 16 -25 -6 -25 -22 0 -68 36 -68 53 0 21 34 47 62 47 28 0 28 0 12 -25z"/>
 <path d="M1173 933 c14 -4 16 -8 6 -19 -6 -7 -9 -27 -7 -44 5 -33 -6 -38 -32 -15 -15 14 -18 14 -23 1 -8 -19 13 -26 103 -33 72 -5 76 -4 100 21 l24 27 -18 34 -19 35 -76 -1 c-42 -1 -68 -3 -58 -6z m122 -11 c6 -4 16 -15 24 -25 12 -15 11 -21 -9 -42 -24 -26 -54 -32 -79 -16 -11 7 -8 13 13 26 25 17 26 19 11 41 -15 23 -14 24 7 24 13 0 28 -4 33 -8z"/>
 <path d="M1080 712 c0 -17 128 -82 161 -82 29 0 98 38 113 62 18 29 -1 31 -47 4 -55 -32 -88 -33 -155 -1 -57 26 -72 30 -72 17z"/>
 </g>
<g id="layer112" fill="#6a6d6b" stroke="none">
 <path d="M335 1913 c-9 -49 -25 -109 -35 -136 -11 -27 -14 -49 -9 -53 26 -16 242 -64 288 -64 22 0 31 8 45 38 22 45 157 248 186 280 l21 22 -239 0 -239 0 -18 -87z"/>
 <path d="M927 1963 c3 -21 12 -56 20 -77 13 -39 13 -41 -13 -61 l-27 -22 38 -41 c20 -23 43 -42 51 -42 18 0 84 59 84 74 0 7 -9 21 -21 32 -21 19 -22 48 -2 145 l6 29 -71 0 -71 0 6 -37z"/>
 <path d="M1185 1984 c23 -24 193 -281 200 -304 5 -14 15 -20 38 -20 35 0 225 42 270 59 26 10 27 12 14 38 -15 29 -41 129 -52 201 l-7 42 -240 0 c-221 0 -238 -1 -223 -16z"/>
 <path d="M935 1557 c-59 -20 -96 -41 -157 -91 -57 -47 -132 -150 -144 -201 -6 -27 1 -22 69 46 90 91 153 134 221 154 62 19 90 19 152 0 66 -20 122 -59 217 -152 71 -70 79 -75 73 -48 -12 48 -98 167 -152 208 -101 79 -201 109 -279 84z"/>
 <path d="M885 1301 c-20 -40 -12 -52 16 -24 16 16 19 25 11 39 -9 15 -12 14 -27 -15z"/>
 <path d="M1115 1258 c9 -27 22 -44 30 -36 8 7 -16 58 -27 58 -5 0 -6 -10 -3 -22z"/>
 <path d="M673 1053 c-17 -2 -41 -14 -52 -26 -103 -105 -123 -136 -151 -221 -9 -27 -9 -40 -1 -45 7 -5 7 -18 -1 -46 -6 -22 -11 -78 -11 -125 0 -72 4 -93 26 -137 15 -29 33 -56 40 -60 8 -4 24 -30 38 -56 29 -60 152 -180 157 -154 3 15 8 14 35 -9 19 -16 33 -22 35 -15 3 9 7 9 18 0 11 -9 14 -8 14 7 1 15 9 10 35 -21 25 -28 35 -35 35 -22 0 9 4 17 9 17 14 0 70 -68 89 -106 19 -41 29 -42 44 -9 6 14 20 25 30 25 10 0 30 11 44 25 14 14 29 25 34 25 6 0 27 15 47 34 37 32 98 69 107 64 9 -5 79 67 106 110 17 25 30 38 33 30 6 -17 45 66 53 114 4 21 10 35 14 33 10 -6 40 120 40 163 0 16 -6 50 -14 75 -7 25 -11 48 -9 51 10 10 -59 172 -85 199 -15 16 -37 39 -50 52 -27 27 -121 42 -197 31 -74 -12 -133 -78 -153 -173 -7 -31 -12 -38 -32 -38 -20 0 -25 7 -32 38 -17 84 -68 150 -129 167 -33 10 -102 11 -166 3z m183 -39 c40 -19 84 -100 84 -156 0 -48 -25 -66 -112 -80 -135 -23 -229 25 -227 115 0 60 20 110 49 124 36 18 165 16 206 -3z m496 5 c27 -15 48 -69 48 -128 0 -42 -4 -53 -30 -74 -61 -51 -216 -58 -286 -12 -58 38 2 199 81 218 39 9 167 7 187 -4z m-272 -249 c32 -18 221 -26 275 -11 21 6 40 9 40 8 1 -1 -2 -44 -6 -95 -9 -104 -33 -159 -88 -199 -34 -26 -109 -31 -171 -13 -52 16 -205 13 -287 -6 -66 -15 -74 -14 -108 1 -80 39 -118 112 -128 251 l-5 60 31 -4 c28 -4 29 -6 12 -18 -16 -12 -1 -14 111 -14 83 0 124 4 114 10 -11 7 -8 11 15 19 17 6 37 15 45 20 23 13 122 7 150 -9z"/>
 <path d="M666 904 l-24 -36 31 -28 c31 -26 34 -27 101 -19 90 11 101 15 103 38 2 19 1 19 -18 0 -24 -24 -79 -28 -59 -4 7 8 16 12 21 9 5 -3 9 6 9 20 0 14 -5 28 -12 32 -8 5 -6 10 8 15 11 5 -12 8 -58 8 l-77 1 -25 -36z m78 1 c-15 -23 -15 -27 0 -50 16 -24 16 -25 -6 -25 -22 0 -68 36 -68 53 0 21 34 47 62 47 28 0 28 0 12 -25z"/>
 <path d="M1173 933 c14 -4 16 -8 6 -19 -6 -7 -9 -27 -7 -44 5 -33 -6 -38 -32 -15 -15 14 -18 14 -23 1 -8 -19 13 -26 103 -33 72 -5 76 -4 100 21 l24 27 -18 34 -19 35 -76 -1 c-42 -1 -68 -3 -58 -6z m122 -11 c6 -4 16 -15 24 -25 12 -15 11 -21 -9 -42 -24 -26 -54 -32 -79 -16 -11 7 -8 13 13 26 25 17 26 19 11 41 -15 23 -14 24 7 24 13 0 28 -4 33 -8z"/>
 <path d="M1080 712 c0 -17 128 -82 161 -82 29 0 98 38 113 62 18 29 -1 31 -47 4 -55 -32 -82 -33 -157 -1 -65 27 -70 29 -70 17z"/>
 </g>
<g id="layer113" fill="#675753" stroke="none">
 <path d="M331 1891 c-13 -60 -29 -121 -36 -135 -19 -35 -7 -41 164 -76 134 -28 144 -27 165 17 22 47 157 250 185 281 l22 22 -239 0 -239 0 -22 -109z"/>
 <path d="M931 1953 c5 -27 14 -61 19 -77 9 -27 7 -32 -16 -51 l-27 -22 38 -41 c20 -23 43 -42 49 -42 18 0 86 60 86 75 0 8 -10 22 -23 32 -21 15 -23 22 -16 63 5 25 11 60 14 78 l6 32 -69 0 -69 0 8 -47z"/>
 <path d="M1175 1992 c19 -13 119 -158 170 -246 59 -100 54 -99 215 -62 136 31 165 43 152 59 -12 14 -47 144 -57 211 l-7 46 -242 0 c-132 0 -236 -4 -231 -8z"/>
 <path d="M935 1557 c-59 -20 -96 -41 -157 -91 -57 -47 -132 -150 -144 -201 -6 -27 1 -22 69 46 90 91 153 134 221 154 62 19 90 19 152 0 66 -20 122 -59 217 -152 71 -70 79 -75 73 -48 -12 48 -98 167 -152 208 -101 79 -201 109 -279 84z"/>
 <path d="M893 1307 c-22 -27 -24 -37 -9 -37 18 0 40 36 27 44 -5 3 -13 0 -18 -7z"/>
 <path d="M1120 1258 c0 -8 7 -21 15 -28 19 -16 19 -1 0 24 -12 16 -15 17 -15 4z"/>
 <path d="M673 1053 c-17 -2 -41 -14 -52 -26 -103 -105 -123 -136 -151 -221 -9 -27 -9 -40 -1 -45 7 -5 7 -18 -1 -46 -6 -22 -11 -78 -11 -125 0 -72 4 -93 26 -137 15 -29 33 -56 40 -60 8 -4 24 -30 38 -56 29 -60 152 -180 157 -154 3 15 8 14 35 -9 19 -16 33 -22 35 -15 3 9 7 9 18 0 11 -9 14 -8 14 7 1 15 9 10 35 -21 25 -28 35 -35 35 -22 0 9 4 17 9 17 14 0 70 -68 89 -106 19 -41 29 -42 44 -9 6 14 20 25 30 25 10 0 30 11 44 25 14 14 29 25 34 25 6 0 27 15 47 34 37 32 98 69 107 64 9 -5 79 67 106 110 17 25 30 38 33 30 6 -17 45 66 53 114 4 21 10 35 14 33 10 -6 40 120 40 163 0 16 -6 50 -14 75 -7 25 -11 48 -9 51 10 10 -59 172 -85 199 -15 16 -37 39 -50 52 -27 27 -121 42 -197 31 -74 -12 -133 -78 -153 -173 -7 -31 -12 -38 -32 -38 -20 0 -25 7 -32 38 -17 84 -68 150 -129 167 -33 10 -102 11 -166 3z m183 -39 c40 -19 84 -100 84 -156 0 -48 -25 -66 -112 -80 -135 -23 -229 25 -227 115 0 60 20 110 49 124 36 18 165 16 206 -3z m496 5 c27 -15 48 -69 48 -128 0 -42 -4 -53 -30 -74 -61 -51 -216 -58 -286 -12 -58 38 2 199 81 218 39 9 167 7 187 -4z m-272 -249 c32 -18 221 -26 275 -11 21 6 40 9 40 8 1 -1 -2 -44 -6 -95 -9 -104 -33 -159 -88 -199 -34 -26 -109 -31 -171 -13 -52 16 -205 13 -287 -6 -66 -15 -74 -14 -108 1 -80 39 -118 112 -128 251 l-5 60 31 -4 c28 -4 29 -6 12 -18 -16 -12 -1 -14 111 -14 83 0 124 4 114 10 -11 7 -8 11 15 19 17 6 37 15 45 20 23 13 122 7 150 -9z"/>
 <path d="M668 903 l-24 -37 29 -26 c28 -25 33 -26 100 -18 81 8 97 13 97 29 0 8 -4 8 -12 1 -20 -16 -73 -19 -70 -4 1 7 -9 12 -25 12 -27 -1 -27 -1 -9 -15 19 -14 18 -15 -10 -15 -19 0 -39 9 -52 23 -27 29 -27 39 -2 62 15 13 29 16 62 11 24 -3 50 -2 58 4 11 7 -4 10 -51 10 -65 0 -67 -1 -91 -37z"/>
 <path d="M1195 930 c3 -5 25 -7 49 -4 36 5 47 3 65 -15 11 -11 21 -17 21 -13 0 5 -8 16 -18 25 -20 19 -128 25 -117 7z"/>
 <path d="M1120 857 c0 -22 8 -25 86 -31 38 -3 60 -3 49 0 -11 3 -24 11 -30 18 -12 15 -55 27 -55 16 0 -5 6 -11 13 -13 6 -3 3 -6 -7 -6 -11 -1 -28 6 -38 16 -16 14 -18 15 -18 0z"/>
 <path d="M1080 712 c0 -17 128 -82 161 -82 29 0 98 38 113 62 18 29 -1 31 -47 4 -55 -32 -82 -33 -157 -1 -65 27 -70 29 -70 17z"/>
 </g>
<g id="layer114" fill="#682865" stroke="none">
 <path d="M332 1892 c-13 -59 -29 -119 -37 -134 -18 -38 -8 -42 164 -78 134 -29 144 -27 165 18 22 45 156 249 185 280 l22 22 -238 0 -238 0 -23 -108z"/>
 <path d="M930 1972 c0 -16 7 -51 15 -78 15 -48 14 -49 -10 -67 l-25 -19 20 -28 c11 -15 31 -35 45 -44 24 -16 27 -16 55 4 17 12 35 31 41 43 10 18 8 24 -14 43 -23 19 -24 26 -17 60 4 22 11 56 14 77 l7 37 -66 0 c-65 0 -65 0 -65 -28z"/>
 <path d="M1175 1992 c29 -21 215 -301 215 -324 0 -4 15 -8 33 -8 35 0 225 42 269 59 26 10 27 11 11 41 -8 17 -25 78 -36 135 l-22 105 -240 0 c-132 0 -235 -4 -230 -8z"/>
 <path d="M935 1557 c-59 -20 -96 -41 -157 -91 -57 -46 -132 -150 -144 -200 -6 -24 6 -16 79 57 113 112 190 152 292 152 62 -1 78 -5 136 -37 37 -21 101 -72 148 -119 73 -72 83 -79 77 -53 -12 48 -98 166 -152 207 -101 79 -201 109 -279 84z"/>
 <path d="M886 1295 c-12 -19 -13 -25 -4 -25 17 0 41 37 29 44 -5 3 -16 -5 -25 -19z"/>
 <path d="M621 1028 c-102 -105 -123 -137 -151 -222 -9 -27 -9 -40 -1 -45 7 -5 7 -18 -1 -46 -6 -22 -11 -78 -11 -125 0 -72 4 -93 26 -137 15 -29 33 -56 40 -60 8 -4 24 -30 38 -56 29 -60 152 -180 157 -154 3 15 8 14 35 -9 19 -16 33 -22 35 -15 3 9 7 9 18 0 11 -9 14 -8 14 7 1 15 9 10 35 -21 25 -28 35 -35 35 -22 0 9 4 17 9 17 14 0 70 -68 89 -106 19 -41 29 -42 44 -9 6 14 20 25 30 25 10 0 30 11 44 25 14 14 29 25 34 25 6 0 27 15 47 34 37 32 98 69 107 64 9 -5 79 67 106 110 17 25 30 38 33 30 6 -17 45 66 53 114 4 21 10 35 14 33 10 -6 40 120 40 163 0 16 -6 50 -14 75 -7 25 -12 48 -9 51 10 10 -59 172 -85 199 -82 86 -65 79 -189 75 -103 -3 -114 -5 -138 -28 -33 -30 -63 -87 -73 -137 -6 -31 -12 -38 -32 -38 -20 0 -26 7 -36 47 -15 62 -50 116 -88 139 -25 15 -51 19 -132 19 -91 0 -103 -2 -123 -22z m206 -4 c41 -6 88 -55 103 -108 28 -102 -9 -139 -144 -140 -147 -1 -194 35 -183 142 11 108 59 131 224 106z m468 6 c68 0 95 -29 102 -108 10 -112 -32 -147 -177 -147 -164 1 -203 58 -126 189 24 42 53 61 106 69 14 2 31 3 38 1 8 -2 33 -4 57 -4z m-214 -257 c41 -22 195 -30 266 -15 26 6 48 10 49 9 0 -1 -3 -44 -7 -95 -9 -103 -33 -159 -86 -198 -37 -27 -105 -34 -163 -17 -60 19 -208 17 -297 -3 -66 -15 -74 -14 -108 1 -80 39 -118 112 -128 251 l-5 60 31 -4 c28 -4 29 -6 12 -18 -16 -12 -1 -14 111 -13 71 1 118 4 105 6 -21 4 -17 8 30 28 67 28 144 31 190 8z"/>
 <path d="M679 913 l-24 -28 25 22 c15 13 42 23 70 26 l45 4 -46 1 c-38 2 -49 -2 -70 -25z"/>
 <path d="M669 853 c21 -31 26 -33 74 -31 l52 1 -45 4 c-31 3 -54 12 -74 31 l-29 27 22 -32z"/>
 <path d="M854 851 c-5 -5 -18 -11 -29 -14 l-20 -5 20 -1 c22 -1 52 15 44 23 -3 3 -10 2 -15 -3z"/>
 <path d="M1245 933 c27 -3 56 -10 65 -16 13 -11 13 -10 1 6 -10 13 -26 17 -65 15 l-51 -2 50 -3z"/>
 <path d="M1135 840 c11 -5 27 -9 35 -9 9 0 8 4 -5 9 -11 5 -27 9 -35 9 -9 0 -8 -4 5 -9z"/>
 <path d="M1223 823 c9 -2 25 -2 35 0 9 3 1 5 -18 5 -19 0 -27 -2 -17 -5z"/>
 <path d="M1080 716 c0 -8 83 -61 118 -75 26 -11 41 -11 71 -2 46 13 91 47 91 67 0 19 -8 17 -55 -11 -48 -30 -93 -32 -143 -6 -43 21 -82 35 -82 27z"/>
 </g>
<g id="layer115" fill="#694c3e" stroke="none">
 <path d="M332 1892 c-13 -59 -29 -119 -37 -134 -18 -38 -8 -42 164 -78 134 -29 144 -27 165 18 22 45 156 249 185 280 l22 22 -31 0 c-17 0 -30 -5 -30 -12 0 -7 -23 -28 -52 -46 -56 -38 -68 -33 -68 26 0 27 -4 32 -23 32 -13 0 -36 -13 -52 -30 -31 -33 -45 -31 -45 6 0 21 -4 24 -37 24 -20 0 -45 -7 -55 -17 -17 -15 -18 -15 -18 0 0 12 -9 17 -32 17 l-33 0 -23 -108z m98 -14 c0 -27 4 -48 9 -48 5 0 26 20 47 45 42 52 54 56 54 16 0 -16 3 -43 6 -60 l7 -31 46 42 46 43 3 -44 c5 -66 -3 -85 -53 -125 l-45 -37 0 57 0 58 -50 -49 -50 -49 -1 39 c-1 22 -4 51 -8 65 -7 24 -8 24 -41 -22 -19 -26 -38 -47 -42 -48 -3 0 -10 29 -13 64 -7 64 -7 65 31 110 43 52 54 47 54 -26z"/>
 <path d="M930 1972 c0 -16 7 -51 15 -78 15 -48 14 -49 -10 -67 l-25 -19 20 -28 c11 -15 31 -35 45 -44 24 -16 27 -16 55 4 17 12 35 31 41 43 10 18 8 24 -14 43 -23 19 -24 26 -17 60 4 22 11 56 14 77 l7 37 -66 0 c-65 0 -65 0 -65 -28z"/>
 <path d="M1190 1978 c29 -32 164 -235 186 -280 15 -32 23 -38 48 -38 34 0 225 42 268 59 26 10 27 11 11 41 -8 17 -25 78 -36 135 l-22 105 -32 0 c-24 0 -33 -5 -33 -17 0 -15 -1 -15 -18 0 -10 10 -35 17 -55 17 -33 0 -37 -3 -37 -24 0 -37 -14 -39 -45 -6 -16 17 -39 30 -51 30 -18 0 -22 -7 -28 -49 l-7 -50 -54 37 c-30 20 -54 43 -55 50 0 7 -13 12 -30 12 l-31 0 21 -22z m456 -105 c12 -16 14 -36 8 -82 -3 -34 -9 -61 -13 -61 -3 1 -22 22 -41 48 -33 46 -34 46 -41 22 -4 -14 -7 -43 -8 -65 l-1 -39 -49 48 -50 49 -3 -56 -3 -56 -45 39 c-41 35 -44 41 -50 101 -4 35 -6 65 -5 66 0 1 24 -18 52 -43 l52 -45 7 61 c4 33 10 60 13 60 4 0 24 -20 45 -45 20 -25 42 -43 47 -40 5 4 9 28 9 54 0 26 3 51 7 55 7 7 36 -23 69 -71z"/>
 <path d="M935 1557 c-59 -20 -96 -41 -157 -91 -57 -46 -132 -150 -144 -200 -6 -24 6 -16 79 57 113 112 190 152 292 152 62 -1 78 -5 136 -37 37 -21 101 -72 148 -119 73 -72 83 -79 77 -53 -12 48 -98 166 -152 207 -101 79 -201 109 -279 84z"/>
 <path d="M886 1295 c-12 -19 -13 -25 -4 -25 17 0 41 37 29 44 -5 3 -16 -5 -25 -19z"/>
 <path d="M621 1028 c-102 -105 -123 -137 -151 -222 -9 -27 -9 -40 -1 -45 7 -5 7 -18 -1 -46 -6 -22 -11 -78 -11 -125 0 -72 4 -93 26 -137 15 -29 33 -56 40 -60 8 -4 24 -30 38 -56 29 -60 152 -180 157 -154 3 15 8 14 35 -9 19 -16 33 -22 35 -15 3 9 7 9 18 0 11 -9 14 -8 14 7 1 15 9 10 35 -21 25 -28 35 -35 35 -22 0 9 4 17 9 17 14 0 70 -68 89 -106 19 -41 29 -42 44 -9 6 14 20 25 30 25 10 0 30 11 44 25 14 14 29 25 34 25 6 0 27 15 47 34 37 32 98 69 107 64 9 -5 79 67 106 110 17 25 30 38 33 30 6 -17 45 66 53 114 4 21 10 35 14 33 10 -6 40 120 40 163 0 16 -6 50 -14 75 -7 25 -12 48 -9 51 10 10 -59 172 -85 199 -82 86 -65 79 -189 75 -103 -3 -114 -5 -138 -28 -33 -30 -63 -87 -73 -137 -6 -31 -12 -38 -32 -38 -20 0 -26 7 -36 47 -15 62 -50 116 -88 139 -25 15 -51 19 -132 19 -91 0 -103 -2 -123 -22z m206 -4 c41 -6 88 -55 103 -108 28 -102 -9 -139 -144 -140 -147 -1 -194 35 -183 142 11 108 59 131 224 106z m468 6 c68 0 95 -29 102 -108 10 -112 -32 -147 -177 -147 -164 1 -203 58 -126 189 24 42 53 61 106 69 14 2 31 3 38 1 8 -2 33 -4 57 -4z m-214 -257 c41 -22 195 -30 266 -15 26 6 48 10 49 9 0 -1 -3 -44 -7 -95 -9 -103 -33 -159 -86 -198 -37 -27 -105 -34 -163 -17 -60 19 -208 17 -297 -3 -66 -15 -74 -14 -108 1 -80 39 -118 112 -128 251 l-5 60 31 -4 c28 -4 29 -6 12 -18 -16 -12 -1 -14 111 -13 71 1 118 4 105 6 -21 4 -17 8 30 28 67 28 144 31 190 8z"/>
 <path d="M679 913 l-24 -28 25 22 c15 13 42 23 70 26 l45 4 -46 1 c-38 2 -49 -2 -70 -25z"/>
 <path d="M669 853 c21 -31 26 -33 74 -31 l52 1 -45 4 c-31 3 -54 12 -74 31 l-29 27 22 -32z"/>
 <path d="M854 851 c-5 -5 -18 -11 -29 -14 l-20 -5 20 -1 c22 -1 52 15 44 23 -3 3 -10 2 -15 -3z"/>
 <path d="M1245 933 c27 -3 56 -10 65 -16 13 -11 13 -10 1 6 -10 13 -26 17 -65 15 l-51 -2 50 -3z"/>
 <path d="M1135 840 c11 -5 27 -9 35 -9 9 0 8 4 -5 9 -11 5 -27 9 -35 9 -9 0 -8 -4 5 -9z"/>
 <path d="M1223 823 c9 -2 25 -2 35 0 9 3 1 5 -18 5 -19 0 -27 -2 -17 -5z"/>
 <path d="M1080 716 c0 -8 83 -61 118 -75 26 -11 41 -11 71 -2 46 13 91 47 91 67 0 19 -8 17 -55 -11 -48 -30 -93 -32 -143 -6 -43 21 -82 35 -82 27z"/>
 </g>
<g id="layer116" fill="#591a56" stroke="none">
 <path d="M332 1892 c-13 -59 -29 -119 -37 -134 -18 -38 -8 -42 164 -78 134 -29 144 -27 165 18 22 45 156 249 185 280 l22 22 -31 0 c-17 0 -30 -5 -30 -12 0 -7 -23 -28 -52 -46 -56 -38 -68 -33 -68 26 0 27 -4 32 -23 32 -13 0 -36 -13 -52 -30 -31 -33 -45 -31 -45 6 0 21 -4 24 -37 24 -20 0 -45 -7 -55 -17 -17 -15 -18 -15 -18 0 0 12 -9 17 -32 17 l-33 0 -23 -108z m98 -14 c0 -27 4 -48 9 -48 5 0 26 20 47 45 42 52 54 56 54 16 0 -16 3 -43 6 -60 l7 -31 46 42 46 43 3 -44 c5 -66 -3 -85 -53 -125 l-45 -37 0 57 0 58 -50 -49 -50 -49 -1 39 c-1 22 -4 51 -8 65 -7 24 -8 24 -41 -22 -19 -26 -38 -47 -42 -48 -3 0 -10 29 -13 64 -7 64 -7 65 31 110 43 52 54 47 54 -26z"/>
 <path d="M930 1972 c0 -16 7 -51 15 -78 15 -48 14 -49 -10 -67 l-25 -19 20 -28 c11 -15 31 -35 45 -44 24 -16 27 -16 55 4 17 12 35 31 41 43 10 18 8 24 -14 43 -23 19 -24 26 -17 60 4 22 11 56 14 77 l7 37 -66 0 c-65 0 -65 0 -65 -28z"/>
 <path d="M1190 1978 c29 -32 164 -235 186 -280 15 -32 23 -38 48 -38 34 0 225 42 268 59 26 10 27 11 11 41 -8 17 -25 78 -36 135 l-22 105 -32 0 c-24 0 -33 -5 -33 -17 0 -15 -1 -15 -18 0 -10 10 -35 17 -55 17 -33 0 -37 -3 -37 -24 0 -37 -14 -39 -45 -6 -16 17 -39 30 -51 30 -18 0 -22 -7 -28 -49 l-7 -50 -54 37 c-30 20 -54 43 -55 50 0 7 -13 12 -30 12 l-31 0 21 -22z m456 -105 c12 -16 14 -36 8 -82 -3 -34 -9 -61 -13 -61 -3 1 -22 22 -41 48 -33 46 -34 46 -41 22 -4 -14 -7 -43 -8 -65 l-1 -39 -49 48 -50 49 -3 -56 -3 -56 -45 39 c-41 35 -44 41 -50 101 -4 35 -6 65 -5 66 0 1 24 -18 52 -43 l52 -45 7 61 c4 33 10 60 13 60 4 0 24 -20 45 -45 20 -25 42 -43 47 -40 5 4 9 28 9 54 0 26 3 51 7 55 7 7 36 -23 69 -71z"/>
 <path d="M940 1554 c-96 -26 -197 -103 -258 -196 -22 -35 -44 -76 -48 -91 -5 -23 8 -14 78 56 104 104 202 157 290 157 84 0 178 -51 285 -155 68 -67 83 -78 78 -57 -13 54 -97 163 -159 209 -110 81 -177 101 -266 77z m175 -50 c55 -25 119 -83 175 -154 l34 -45 -49 45 c-111 101 -189 140 -284 140 -74 0 -163 -42 -238 -112 -55 -51 -56 -51 -25 -12 89 116 205 180 302 167 19 -3 58 -15 85 -29z"/>
 <path d="M886 1295 c-12 -19 -13 -25 -4 -25 17 0 41 37 29 44 -5 3 -16 -5 -25 -19z"/>
 <path d="M650 1043 c-24 -9 -52 -36 -61 -60 -5 -13 -14 -23 -21 -23 -33 0 -125 -184 -100 -199 9 -5 9 -18 0 -46 -6 -22 -11 -78 -11 -125 0 -72 4 -93 26 -137 15 -29 33 -56 40 -60 8 -4 24 -30 38 -56 29 -60 152 -180 157 -154 3 15 8 14 35 -9 19 -16 33 -22 35 -15 3 9 7 9 18 0 11 -9 14 -8 14 7 1 15 9 10 35 -21 25 -28 35 -35 35 -22 0 9 4 17 9 17 14 0 70 -68 89 -106 19 -41 29 -42 44 -9 6 14 20 25 30 25 10 0 30 11 44 25 14 14 29 25 34 25 6 0 27 15 47 34 37 32 98 69 107 64 9 -5 79 67 106 110 17 25 30 38 33 30 6 -17 45 66 53 114 4 21 10 35 14 33 9 -6 40 120 40 162 0 15 -5 46 -11 68 -6 22 -13 51 -14 65 -8 65 -56 162 -106 213 l-51 52 -95 3 c-142 6 -179 -18 -219 -135 -19 -56 -27 -68 -45 -68 -17 0 -25 11 -39 57 -21 68 -52 113 -90 133 -29 15 -186 20 -220 8z m144 -13 c47 0 56 -4 89 -36 41 -41 76 -137 59 -164 -23 -37 -74 -54 -161 -55 -138 0 -181 31 -181 132 0 65 27 108 77 121 21 5 44 8 51 6 8 -2 37 -4 66 -4z m574 -24 c30 -29 43 -133 22 -172 -37 -68 -219 -87 -302 -30 -28 19 -33 28 -31 59 3 47 47 133 75 148 33 18 85 25 153 22 47 -2 65 -8 83 -27z m95 -108 c8 -24 18 -52 23 -62 6 -15 4 -17 -6 -11 -10 6 -12 4 -5 -11 25 -61 35 -116 35 -188 -1 -75 -2 -79 -15 -56 -14 24 -14 23 -15 -30 -1 -30 -10 -80 -20 -110 -19 -53 -19 -54 -16 -15 2 22 9 60 16 85 6 25 10 76 8 114 -3 63 -3 67 9 40 l12 -29 1 32 c0 18 -8 54 -19 80 -10 26 -21 66 -25 87 -7 36 -6 38 8 27 20 -16 20 -14 1 39 -16 46 -17 50 -11 50 2 0 11 -19 19 -42z m-945 -138 c-24 -75 -31 -251 -11 -285 10 -18 12 -16 27 18 8 20 16 37 18 37 2 0 4 -20 4 -45 2 -48 55 -172 93 -215 l22 -25 -6 29 c-3 16 -3 42 1 58 l6 30 18 -38 c10 -22 25 -48 34 -59 15 -19 15 -18 16 20 l2 40 17 -50 c10 -27 15 -60 13 -74 l-5 -24 -26 29 c-14 16 -34 40 -44 54 -10 14 -15 19 -12 12 4 -7 11 -27 16 -44 9 -32 9 -32 -40 16 -56 55 -121 159 -122 196 l0 25 -10 -25 -10 -25 -16 35 c-23 51 -28 201 -10 278 12 53 12 62 1 58 -8 -3 -14 1 -14 11 0 9 3 13 6 10 4 -3 16 0 27 8 12 8 22 13 23 12 2 -2 -6 -32 -18 -67z m577 9 c43 -19 61 -21 159 -17 61 3 119 9 129 13 15 6 17 1 13 -66 -2 -41 -9 -93 -15 -117 -12 -44 -58 -105 -95 -124 -30 -16 -105 -17 -156 -1 -57 17 -201 17 -260 -1 -40 -12 -66 -13 -129 -8 -11 1 -40 22 -65 48 -52 51 -66 90 -70 197 l-3 73 33 -4 c40 -5 42 -9 12 -22 -16 -6 20 -8 107 -8 72 0 120 3 107 5 -27 5 -19 23 11 23 12 1 33 7 47 15 37 21 120 18 175 -6z m346 -293 c-6 -17 -15 -53 -22 -79 -6 -26 -30 -73 -51 -103 -42 -58 -60 -67 -34 -15 24 45 19 51 -8 9 -27 -46 -55 -77 -78 -89 -16 -9 -17 -7 -7 15 6 13 19 26 29 29 23 6 49 47 72 111 l17 51 2 -50 1 -50 19 60 c10 33 24 83 30 110 18 80 20 83 30 56 6 -15 6 -36 0 -55z m-172 -183 c-1 -27 -3 -40 -6 -30 -4 14 -11 7 -28 -30 -13 -26 -37 -64 -54 -83 l-30 -35 -1 30 c-1 29 -2 28 -25 -17 -21 -40 -49 -68 -68 -68 -3 0 0 16 6 35 6 21 13 31 18 24 11 -18 38 30 49 91 12 63 17 71 24 39 19 -91 15 -92 60 3 22 48 44 88 49 88 4 0 6 -21 6 -47z m-439 -53 l13 -40 20 32 c14 24 21 29 25 18 6 -20 121 -140 126 -132 2 4 7 34 12 67 l7 60 18 -40 c24 -52 24 -60 -7 -125 -24 -50 -27 -53 -38 -35 -6 10 -34 44 -62 75 -28 30 -54 62 -57 70 -3 8 -6 1 -6 -17 l-1 -31 -29 29 c-16 16 -32 34 -34 41 -3 7 -6 2 -6 -12 -1 -23 -2 -23 -18 -7 -13 13 -14 20 -5 29 7 7 12 25 12 41 0 37 13 28 30 -23z"/>
 <path d="M679 913 l-24 -28 25 22 c15 13 42 23 70 26 l45 4 -46 1 c-38 2 -49 -2 -70 -25z"/>
 <path d="M669 853 c21 -31 26 -33 74 -31 l52 1 -45 4 c-31 3 -54 12 -74 31 l-29 27 22 -32z"/>
 <path d="M854 851 c-5 -5 -18 -11 -29 -14 l-20 -5 20 -1 c22 -1 52 15 44 23 -3 3 -10 2 -15 -3z"/>
 <path d="M1245 933 c27 -3 56 -10 65 -16 13 -11 13 -10 1 6 -10 13 -26 17 -65 15 l-51 -2 50 -3z"/>
 <path d="M1135 840 c11 -5 27 -9 35 -9 9 0 8 4 -5 9 -11 5 -27 9 -35 9 -9 0 -8 -4 5 -9z"/>
 <path d="M1223 823 c9 -2 25 -2 35 0 9 3 1 5 -18 5 -19 0 -27 -2 -17 -5z"/>
 <path d="M1080 716 c0 -3 21 -19 48 -37 40 -28 56 -33 107 -33 49 -1 66 4 93 23 17 14 32 31 32 38 0 19 -9 16 -53 -14 -49 -34 -87 -34 -159 0 -57 27 -68 31 -68 23z"/>
 </g>
<g id="layer117" fill="#5b3c2e" stroke="none">
 <path d="M345 1948 c-4 -29 -16 -82 -26 -118 -18 -68 -19 -95 0 -38 20 61 49 208 41 208 -4 0 -11 -23 -15 -52z"/>
 <path d="M733 1908 c-57 -86 -113 -187 -113 -204 0 -4 22 29 49 74 57 93 127 191 149 210 14 11 14 12 -4 12 -14 0 -38 -28 -81 -92z"/>
 <path d="M930 1972 c0 -16 7 -51 15 -78 15 -48 14 -49 -10 -67 l-25 -19 20 -28 c11 -15 31 -35 45 -44 24 -16 27 -16 55 4 17 12 35 31 41 43 10 18 8 24 -14 43 -23 19 -24 26 -17 60 4 22 11 56 14 77 l7 37 -66 0 c-65 0 -65 0 -65 -28z"/>
 <path d="M1181 1988 c21 -17 76 -96 144 -203 60 -96 69 -103 29 -22 -49 98 -148 237 -168 237 -17 0 -18 -2 -5 -12z"/>
 <path d="M1642 1948 c10 -60 48 -192 53 -186 1 1 -8 44 -21 93 -12 50 -23 102 -23 118 -1 15 -5 27 -10 27 -4 0 -4 -24 1 -52z"/>
 <path d="M287 1743 c-4 -7 -3 -15 3 -18 30 -19 246 -66 294 -64 22 1 12 5 -34 16 -36 7 -106 23 -157 34 -50 11 -93 25 -96 32 -2 8 -5 8 -10 0z"/>
 <path d="M1700 1741 c0 -9 -99 -34 -242 -61 -32 -6 -58 -14 -58 -17 0 -10 104 6 205 32 100 25 126 37 106 49 -6 4 -11 3 -11 -3z"/>
 <path d="M940 1554 c-96 -26 -197 -103 -258 -196 -22 -35 -44 -76 -48 -91 -5 -23 8 -14 78 56 104 104 202 157 290 157 84 0 178 -51 285 -155 68 -67 83 -78 78 -57 -13 54 -97 163 -159 209 -110 81 -177 101 -266 77z m175 -50 c55 -25 119 -83 175 -154 l34 -45 -49 45 c-111 101 -189 140 -284 140 -74 0 -163 -42 -238 -112 -55 -51 -56 -51 -25 -12 89 116 205 180 302 167 19 -3 58 -15 85 -29z"/>
 <path d="M886 1295 c-12 -19 -13 -25 -4 -25 17 0 41 37 29 44 -5 3 -16 -5 -25 -19z"/>
 <path d="M650 1043 c-24 -9 -52 -36 -61 -60 -5 -13 -14 -23 -21 -23 -33 0 -125 -184 -100 -199 9 -5 9 -18 0 -46 -6 -22 -11 -78 -11 -125 0 -72 4 -93 26 -137 15 -29 33 -56 40 -60 8 -4 24 -30 38 -56 29 -60 152 -180 157 -154 3 15 8 14 35 -9 19 -16 33 -22 35 -15 3 9 7 9 18 0 11 -9 14 -8 14 7 1 15 9 10 35 -21 25 -28 35 -35 35 -22 0 9 4 17 9 17 14 0 70 -68 89 -106 19 -41 29 -42 44 -9 6 14 20 25 30 25 10 0 30 11 44 25 14 14 29 25 34 25 6 0 27 15 47 34 37 32 98 69 107 64 9 -5 79 67 106 110 17 25 30 38 33 30 6 -17 45 66 53 114 4 21 10 35 14 33 9 -6 40 120 40 162 0 15 -5 46 -11 68 -6 22 -13 51 -14 65 -8 65 -56 162 -106 213 l-51 52 -95 3 c-142 6 -179 -18 -219 -135 -19 -56 -27 -68 -45 -68 -17 0 -25 11 -39 57 -21 68 -52 113 -90 133 -29 15 -186 20 -220 8z m144 -13 c47 0 56 -4 89 -36 41 -41 76 -137 59 -164 -23 -37 -74 -54 -161 -55 -138 0 -181 31 -181 132 0 65 27 108 77 121 21 5 44 8 51 6 8 -2 37 -4 66 -4z m574 -24 c30 -29 43 -133 22 -172 -37 -68 -219 -87 -302 -30 -28 19 -33 28 -31 59 3 47 47 133 75 148 33 18 85 25 153 22 47 -2 65 -8 83 -27z m95 -108 c8 -24 18 -52 23 -62 6 -15 4 -17 -6 -11 -10 6 -12 4 -5 -11 25 -61 35 -116 35 -188 -1 -75 -2 -79 -15 -56 -14 24 -14 23 -15 -30 -1 -30 -10 -80 -20 -110 -19 -53 -19 -54 -16 -15 2 22 9 60 16 85 6 25 10 76 8 114 -3 63 -3 67 9 40 l12 -29 1 32 c0 18 -8 54 -19 80 -10 26 -21 66 -25 87 -7 36 -6 38 8 27 20 -16 20 -14 1 39 -16 46 -17 50 -11 50 2 0 11 -19 19 -42z m-945 -138 c-24 -75 -31 -251 -11 -285 10 -18 12 -16 27 18 8 20 16 37 18 37 2 0 4 -20 4 -45 2 -48 55 -172 93 -215 l22 -25 -6 29 c-3 16 -3 42 1 58 l6 30 18 -38 c10 -22 25 -48 34 -59 15 -19 15 -18 16 20 l2 40 17 -50 c10 -27 15 -60 13 -74 l-5 -24 -26 29 c-14 16 -34 40 -44 54 -10 14 -15 19 -12 12 4 -7 11 -27 16 -44 9 -32 9 -32 -40 16 -56 55 -121 159 -122 196 l0 25 -10 -25 -10 -25 -16 35 c-23 51 -28 201 -10 278 12 53 12 62 1 58 -8 -3 -14 1 -14 11 0 9 3 13 6 10 4 -3 16 0 27 8 12 8 22 13 23 12 2 -2 -6 -32 -18 -67z m577 9 c43 -19 61 -21 159 -17 61 3 119 9 129 13 15 6 17 1 13 -66 -2 -41 -9 -93 -15 -117 -12 -44 -58 -105 -95 -124 -30 -16 -105 -17 -156 -1 -57 17 -201 17 -260 -1 -40 -12 -66 -13 -129 -8 -11 1 -40 22 -65 48 -52 51 -66 90 -70 197 l-3 73 33 -4 c40 -5 42 -9 12 -22 -16 -6 20 -8 107 -8 72 0 120 3 107 5 -27 5 -19 23 11 23 12 1 33 7 47 15 37 21 120 18 175 -6z m346 -293 c-6 -17 -15 -53 -22 -79 -6 -26 -30 -73 -51 -103 -42 -58 -60 -67 -34 -15 24 45 19 51 -8 9 -27 -46 -55 -77 -78 -89 -16 -9 -17 -7 -7 15 6 13 19 26 29 29 23 6 49 47 72 111 l17 51 2 -50 1 -50 19 60 c10 33 24 83 30 110 18 80 20 83 30 56 6 -15 6 -36 0 -55z m-172 -183 c-1 -27 -3 -40 -6 -30 -4 14 -11 7 -28 -30 -13 -26 -37 -64 -54 -83 l-30 -35 -1 30 c-1 29 -2 28 -25 -17 -21 -40 -49 -68 -68 -68 -3 0 0 16 6 35 6 21 13 31 18 24 11 -18 38 30 49 91 12 63 17 71 24 39 19 -91 15 -92 60 3 22 48 44 88 49 88 4 0 6 -21 6 -47z m-439 -53 l13 -40 20 32 c14 24 21 29 25 18 6 -20 121 -140 126 -132 2 4 7 34 12 67 l7 60 18 -40 c24 -52 24 -60 -7 -125 -24 -50 -27 -53 -38 -35 -6 10 -34 44 -62 75 -28 30 -54 62 -57 70 -3 8 -6 1 -6 -17 l-1 -31 -29 29 c-16 16 -32 34 -34 41 -3 7 -6 2 -6 -12 -1 -23 -2 -23 -18 -7 -13 13 -14 20 -5 29 7 7 12 25 12 41 0 37 13 28 30 -23z"/>
 <path d="M679 913 l-24 -28 25 22 c15 13 42 23 70 26 l45 4 -46 1 c-38 2 -49 -2 -70 -25z"/>
 <path d="M669 853 c21 -31 26 -33 74 -31 l52 1 -45 4 c-31 3 -54 12 -74 31 l-29 27 22 -32z"/>
 <path d="M854 851 c-5 -5 -18 -11 -29 -14 l-20 -5 20 -1 c22 -1 52 15 44 23 -3 3 -10 2 -15 -3z"/>
 <path d="M1245 933 c27 -3 56 -10 65 -16 13 -11 13 -10 1 6 -10 13 -26 17 -65 15 l-51 -2 50 -3z"/>
 <path d="M1135 840 c11 -5 27 -9 35 -9 9 0 8 4 -5 9 -11 5 -27 9 -35 9 -9 0 -8 -4 5 -9z"/>
 <path d="M1223 823 c9 -2 25 -2 35 0 9 3 1 5 -18 5 -19 0 -27 -2 -17 -5z"/>
 <path d="M1080 716 c0 -3 21 -19 48 -37 40 -28 56 -33 107 -33 49 -1 66 4 93 23 17 14 32 31 32 38 0 19 -9 16 -53 -14 -49 -34 -87 -34 -159 0 -57 27 -68 31 -68 23z"/>
 </g>
<g id="layer118" fill="#3e463c" stroke="none">
 <path d="M345 1948 c-4 -29 -16 -82 -26 -118 -18 -68 -19 -95 0 -38 20 61 49 208 41 208 -4 0 -11 -23 -15 -52z"/>
 <path d="M733 1908 c-57 -86 -113 -187 -113 -204 0 -4 22 29 49 74 57 93 127 191 149 210 14 11 14 12 -4 12 -14 0 -38 -28 -81 -92z"/>
 <path d="M930 1972 c0 -16 7 -51 15 -78 15 -48 14 -49 -10 -67 l-25 -19 20 -28 c11 -15 31 -35 45 -44 24 -16 27 -16 55 4 17 12 35 31 41 43 10 18 8 24 -14 43 -23 19 -24 26 -17 60 4 22 11 56 14 77 l7 37 -66 0 c-65 0 -65 0 -65 -28z"/>
 <path d="M1181 1988 c21 -17 76 -96 144 -203 60 -96 69 -103 29 -22 -49 98 -148 237 -168 237 -17 0 -18 -2 -5 -12z"/>
 <path d="M1642 1948 c10 -60 48 -192 53 -186 1 1 -8 44 -21 93 -12 50 -23 102 -23 118 -1 15 -5 27 -10 27 -4 0 -4 -24 1 -52z"/>
 <path d="M287 1743 c-4 -7 -3 -15 3 -18 30 -19 246 -66 294 -64 22 1 12 5 -34 16 -36 7 -106 23 -157 34 -50 11 -93 25 -96 32 -2 8 -5 8 -10 0z"/>
 <path d="M1700 1741 c0 -9 -99 -34 -242 -61 -32 -6 -58 -14 -58 -17 0 -10 104 6 205 32 100 25 126 37 106 49 -6 4 -11 3 -11 -3z"/>
 <path d="M930 1551 c-113 -35 -238 -149 -288 -264 -22 -51 -12 -53 14 -2 51 100 140 192 228 237 22 11 68 23 102 26 51 4 70 0 122 -23 73 -33 172 -130 222 -218 37 -66 54 -70 20 -5 -35 68 -90 138 -129 164 -20 13 -52 34 -71 47 -66 44 -151 59 -220 38z"/>
 <path d="M978 1483 c12 -2 32 -2 45 0 12 2 2 4 -23 4 -25 0 -35 -2 -22 -4z"/>
 <path d="M783 1401 c-26 -21 -57 -49 -68 -61 -16 -18 38 23 124 96 2 2 2 4 -1 4 -4 0 -28 -17 -55 -39z"/>
 <path d="M886 1295 c-12 -19 -13 -25 -4 -25 17 0 41 37 29 44 -5 3 -16 -5 -25 -19z"/>
 <path d="M650 1043 c-47 -17 -79 -77 -81 -154 -1 -28 -6 -52 -11 -55 -14 -9 -9 -43 10 -52 9 -6 37 -13 61 -17 41 -7 43 -9 26 -21 -16 -12 -2 -14 106 -13 74 1 112 4 94 9 -19 4 -24 9 -15 12 136 45 175 48 260 18 37 -13 81 -19 135 -19 73 0 178 17 204 34 13 7 15 42 2 49 -4 3 -11 34 -13 70 -6 71 -33 121 -75 137 -40 15 -190 11 -223 -6 -38 -20 -69 -65 -90 -133 -15 -48 -22 -58 -43 -60 -21 -3 -25 2 -32 34 -11 60 -53 133 -88 154 -26 16 -49 20 -122 19 -49 0 -97 -3 -105 -6z m177 -12 c36 -2 82 -51 103 -111 25 -70 25 -82 -2 -107 -63 -58 -244 -56 -309 3 -15 14 -19 31 -19 85 0 58 4 72 25 98 31 36 55 40 202 32z m540 -24 c19 -18 26 -38 30 -86 7 -73 -6 -104 -51 -127 -74 -38 -232 -26 -276 21 -19 20 -21 31 -15 62 8 48 47 116 78 136 27 18 66 23 151 20 48 -1 63 -6 83 -26z"/>
 <path d="M679 913 l-24 -28 25 22 c15 13 42 23 70 26 l45 4 -46 1 c-38 2 -49 -2 -70 -25z"/>
 <path d="M669 853 c21 -31 26 -33 74 -31 l52 1 -45 4 c-31 3 -54 12 -74 31 l-29 27 22 -32z"/>
 <path d="M854 851 c-5 -5 -18 -11 -29 -14 l-20 -5 20 -1 c22 -1 52 15 44 23 -3 3 -10 2 -15 -3z"/>
 <path d="M1245 933 c27 -3 56 -10 65 -16 13 -11 13 -10 1 6 -10 13 -26 17 -65 15 l-51 -2 50 -3z"/>
 <path d="M1135 840 c11 -5 27 -9 35 -9 9 0 8 4 -5 9 -11 5 -27 9 -35 9 -9 0 -8 -4 5 -9z"/>
 <path d="M1223 823 c9 -2 25 -2 35 0 9 3 1 5 -18 5 -19 0 -27 -2 -17 -5z"/>
 <path d="M1466 900 c3 -14 11 -32 16 -40 6 -10 7 -7 2 10 -3 14 -11 32 -16 40 -6 10 -7 7 -2 -10z"/>
 <path d="M1485 820 c-3 -10 -2 -27 3 -37 35 -67 40 -263 6 -263 -8 0 -14 -10 -14 -22 0 -32 -32 -128 -41 -122 -5 3 -6 19 -3 37 4 26 2 24 -10 -10 -18 -54 -58 -122 -86 -148 l-23 -20 8 25 c5 20 2 18 -18 -11 -27 -38 -85 -83 -75 -58 19 47 17 49 -9 9 -17 -25 -42 -56 -57 -69 -24 -23 -26 -23 -26 -5 0 15 -4 13 -18 -11 -24 -38 -48 -58 -64 -52 -7 2 -20 -7 -30 -21 l-16 -25 -21 41 c-19 37 -90 107 -99 97 -2 -2 11 -17 30 -34 19 -17 46 -51 59 -76 13 -25 27 -45 32 -45 4 0 13 11 19 25 6 14 20 25 30 25 10 0 30 11 44 25 14 14 29 25 34 25 6 0 27 15 47 34 37 32 98 69 107 64 9 -5 79 67 106 110 17 25 30 38 33 30 6 -17 45 66 53 114 4 21 10 35 14 33 9 -6 40 120 40 162 0 15 -5 46 -12 68 -6 22 -10 50 -10 63 1 12 -5 25 -12 28 -8 3 -12 12 -9 20 3 8 3 14 0 14 -3 0 -8 -9 -12 -20z"/>
 <path d="M466 791 c-5 -14 -4 -26 3 -30 7 -5 7 -18 -1 -46 -6 -22 -11 -78 -11 -125 0 -72 4 -93 26 -137 15 -29 33 -56 40 -60 8 -4 24 -30 38 -56 29 -60 152 -180 157 -154 3 15 8 14 35 -9 19 -16 33 -22 35 -15 3 9 7 9 18 0 11 -9 14 -8 14 7 1 15 9 10 35 -21 19 -22 35 -35 35 -30 0 18 -62 76 -76 71 -7 -3 -16 -1 -19 4 -11 17 -25 11 -18 -7 3 -10 -12 0 -35 21 -33 31 -40 35 -35 17 4 -17 2 -20 -11 -15 -24 9 -112 120 -139 175 -13 25 -28 44 -33 42 -14 -5 -30 33 -45 106 -11 58 -4 152 18 239 4 16 2 23 -5 18 -6 -3 -12 2 -14 11 -3 15 -6 14 -12 -6z"/>
 <path d="M1095 704 c92 -72 183 -81 238 -25 42 41 29 49 -24 14 -53 -35 -97 -35 -166 1 -58 29 -78 33 -48 10z"/>
 </g>
<g id="layer119" fill="#4a2723" stroke="none">
 <path d="M345 1948 c-4 -29 -16 -82 -26 -118 -18 -68 -19 -95 0 -38 20 61 49 208 41 208 -4 0 -11 -23 -15 -52z"/>
 <path d="M733 1908 c-57 -86 -113 -187 -113 -204 0 -4 22 29 49 74 57 93 127 191 149 210 14 11 14 12 -4 12 -14 0 -38 -28 -81 -92z"/>
 <path d="M934 1950 c4 -28 12 -62 18 -76 10 -22 9 -28 -15 -47 l-26 -22 22 -25 c13 -14 33 -33 44 -43 21 -19 22 -18 57 8 48 36 53 55 21 81 -27 22 -27 18 1 152 4 21 2 22 -62 22 l-67 0 7 -50z"/>
 <path d="M1181 1988 c21 -17 76 -96 144 -203 60 -96 69 -103 29 -22 -49 98 -148 237 -168 237 -17 0 -18 -2 -5 -12z"/>
 <path d="M1642 1948 c10 -60 48 -192 53 -186 1 1 -8 44 -21 93 -12 50 -23 102 -23 118 -1 15 -5 27 -10 27 -4 0 -4 -24 1 -52z"/>
 <path d="M287 1743 c-4 -7 -3 -15 3 -18 30 -19 246 -66 294 -64 22 1 12 5 -34 16 -36 7 -106 23 -157 34 -50 11 -93 25 -96 32 -2 8 -5 8 -10 0z"/>
 <path d="M1700 1741 c0 -9 -99 -34 -242 -61 -32 -6 -58 -14 -58 -17 0 -10 104 6 205 32 100 25 126 37 106 49 -6 4 -11 3 -11 -3z"/>
 <path d="M930 1551 c-113 -35 -238 -149 -288 -264 -22 -51 -12 -53 14 -2 51 100 140 192 228 237 22 11 68 23 102 26 51 4 70 0 122 -23 73 -33 172 -130 222 -218 37 -66 54 -70 20 -5 -35 68 -90 138 -129 164 -20 13 -52 34 -71 47 -66 44 -151 59 -220 38z"/>
 <path d="M978 1483 c12 -2 32 -2 45 0 12 2 2 4 -23 4 -25 0 -35 -2 -22 -4z"/>
 <path d="M783 1401 c-26 -21 -57 -49 -68 -61 -16 -18 38 23 124 96 2 2 2 4 -1 4 -4 0 -28 -17 -55 -39z"/>
 <path d="M650 1043 c-47 -17 -79 -77 -81 -154 -1 -28 -6 -52 -11 -55 -14 -9 -9 -43 10 -52 9 -6 37 -13 61 -17 41 -7 43 -9 26 -21 -16 -12 -2 -14 106 -13 74 1 112 4 94 9 -19 4 -24 9 -15 12 136 45 175 48 260 18 37 -13 81 -19 135 -19 73 0 178 17 204 34 13 7 15 42 2 49 -4 3 -11 34 -13 70 -6 71 -33 121 -75 137 -40 15 -190 11 -223 -6 -38 -20 -69 -65 -90 -133 -15 -48 -22 -58 -43 -60 -21 -3 -25 2 -32 34 -11 60 -53 133 -88 154 -26 16 -49 20 -122 19 -49 0 -97 -3 -105 -6z m177 -12 c36 -2 82 -51 103 -111 25 -70 25 -82 -2 -107 -63 -58 -244 -56 -309 3 -15 14 -19 31 -19 85 0 58 4 72 25 98 31 36 55 40 202 32z m540 -24 c19 -18 26 -38 30 -86 7 -73 -6 -104 -51 -127 -74 -38 -232 -26 -276 21 -19 20 -21 31 -15 62 8 48 47 116 78 136 27 18 66 23 151 20 48 -1 63 -6 83 -26z"/>
 <path d="M1466 900 c3 -14 11 -32 16 -40 6 -10 7 -7 2 10 -3 14 -11 32 -16 40 -6 10 -7 7 -2 -10z"/>
 <path d="M1485 820 c-3 -10 -2 -27 3 -37 35 -67 40 -263 6 -263 -8 0 -14 -10 -14 -22 0 -32 -32 -128 -41 -122 -5 3 -6 19 -3 37 4 26 2 24 -10 -10 -18 -54 -58 -122 -86 -148 l-23 -20 8 25 c5 20 2 18 -18 -11 -27 -38 -85 -83 -75 -58 19 47 17 49 -9 9 -17 -25 -42 -56 -57 -69 -24 -23 -26 -23 -26 -5 0 15 -4 13 -18 -11 -24 -38 -48 -58 -64 -52 -7 2 -20 -7 -30 -21 l-16 -25 -21 41 c-19 37 -90 107 -99 97 -2 -2 11 -17 30 -34 19 -17 46 -51 59 -76 13 -25 27 -45 32 -45 4 0 13 11 19 25 6 14 20 25 30 25 10 0 30 11 44 25 14 14 29 25 34 25 6 0 27 15 47 34 37 32 98 69 107 64 9 -5 79 67 106 110 17 25 30 38 33 30 6 -17 45 66 53 114 4 21 10 35 14 33 9 -6 40 120 40 162 0 15 -5 46 -12 68 -6 22 -10 50 -10 63 1 12 -5 25 -12 28 -8 3 -12 12 -9 20 3 8 3 14 0 14 -3 0 -8 -9 -12 -20z"/>
 <path d="M466 791 c-5 -14 -4 -26 3 -30 7 -5 7 -18 -1 -46 -6 -22 -11 -78 -11 -125 0 -72 4 -93 26 -137 15 -29 33 -56 40 -60 8 -4 24 -30 38 -56 29 -60 152 -180 157 -154 3 15 8 14 35 -9 19 -16 33 -22 35 -15 3 9 7 9 18 0 11 -9 14 -8 14 7 1 15 9 10 35 -21 19 -22 35 -35 35 -30 0 18 -62 76 -76 71 -7 -3 -16 -1 -19 4 -11 17 -25 11 -18 -7 3 -10 -12 0 -35 21 -33 31 -40 35 -35 17 4 -17 2 -20 -11 -15 -24 9 -112 120 -139 175 -13 25 -28 44 -33 42 -14 -5 -30 33 -45 106 -11 58 -4 152 18 239 4 16 2 23 -5 18 -6 -3 -12 2 -14 11 -3 15 -6 14 -12 -6z"/>
 <path d="M1095 704 c92 -72 183 -81 238 -25 42 41 29 49 -24 14 -53 -35 -97 -35 -166 1 -58 29 -78 33 -48 10z"/>
 </g>
<g id="layer120" fill="#322926" stroke="none">
 <path d="M345 1948 c-4 -29 -16 -82 -26 -118 -18 -68 -19 -95 0 -38 20 61 49 208 41 208 -4 0 -11 -23 -15 -52z"/>
 <path d="M733 1908 c-57 -86 -113 -187 -113 -204 0 -4 22 29 49 74 57 93 127 191 149 210 14 11 14 12 -4 12 -14 0 -38 -28 -81 -92z"/>
 <path d="M934 1950 c4 -28 12 -62 18 -76 10 -22 9 -28 -15 -47 l-26 -22 22 -25 c13 -14 33 -33 44 -43 21 -19 22 -18 57 8 48 36 53 55 21 81 -27 22 -27 18 1 152 4 21 2 22 -62 22 l-67 0 7 -50z"/>
 <path d="M1181 1988 c21 -17 76 -96 144 -203 60 -96 69 -103 29 -22 -49 98 -148 237 -168 237 -17 0 -18 -2 -5 -12z"/>
 <path d="M1642 1948 c10 -60 48 -192 53 -186 1 1 -8 44 -21 93 -12 50 -23 102 -23 118 -1 15 -5 27 -10 27 -4 0 -4 -24 1 -52z"/>
 <path d="M287 1743 c-4 -7 -3 -15 3 -18 30 -19 246 -66 294 -64 22 1 12 5 -34 16 -36 7 -106 23 -157 34 -50 11 -93 25 -96 32 -2 8 -5 8 -10 0z"/>
 <path d="M1700 1741 c0 -9 -99 -34 -242 -61 -32 -6 -58 -14 -58 -17 0 -10 104 6 205 32 100 25 126 37 106 49 -6 4 -11 3 -11 -3z"/>
 <path d="M642 1035 c-37 -16 -59 -59 -68 -133 -3 -26 -11 -57 -17 -70 -15 -31 3 -47 73 -65 51 -13 53 -15 30 -24 -18 -7 7 -10 95 -11 100 0 114 2 85 11 l-35 10 46 8 c26 4 56 12 67 18 31 17 134 13 178 -6 76 -33 312 -17 345 23 9 11 9 21 1 37 -6 12 -13 46 -17 76 -13 111 -51 141 -181 141 -100 0 -136 -18 -174 -83 -16 -28 -32 -68 -35 -89 -6 -33 -10 -38 -34 -38 -24 0 -28 6 -40 48 -18 70 -55 127 -95 146 -43 20 -177 21 -224 1z m227 -22 c34 -26 68 -88 77 -139 5 -34 2 -45 -15 -61 -67 -62 -265 -55 -321 12 -18 22 -18 112 0 156 19 44 58 58 154 54 58 -2 86 -8 105 -22z m484 12 c30 -12 47 -60 47 -128 0 -70 -7 -81 -72 -110 -42 -20 -143 -22 -199 -5 -81 24 -96 66 -55 153 27 57 52 83 92 94 33 10 160 7 187 -4z"/>
 <path d="M466 709 c-8 -42 0 -50 9 -9 4 17 5 34 2 36 -2 3 -7 -10 -11 -27z"/>
 <path d="M1300 689 c-54 -35 -70 -36 -139 -4 -80 37 -87 24 -9 -14 57 -28 74 -32 111 -27 41 6 70 27 91 64 11 19 -5 13 -54 -19z"/>
 <path d="M1533 640 c0 -25 2 -35 4 -22 2 12 2 32 0 45 -2 12 -4 2 -4 -23z"/>
 </g>
<g id="layer121" fill="#31052f" stroke="none">
 <path d="M345 1948 c-4 -29 -16 -82 -26 -118 -18 -68 -19 -95 0 -38 20 61 49 208 41 208 -4 0 -11 -23 -15 -52z"/>
 <path d="M733 1908 c-57 -86 -113 -187 -113 -204 0 -4 22 29 49 74 57 93 127 191 149 210 14 11 14 12 -4 12 -14 0 -38 -28 -81 -92z"/>
 <path d="M930 1977 c0 -13 7 -48 16 -77 l16 -54 -26 -21 -26 -21 45 -44 45 -44 43 42 42 43 -29 23 c-28 24 -28 24 -17 77 25 110 30 99 -44 99 -61 0 -65 -1 -65 -23z"/>
 <path d="M1181 1988 c21 -17 76 -96 144 -203 60 -96 69 -103 29 -22 -49 98 -148 237 -168 237 -17 0 -18 -2 -5 -12z"/>
 <path d="M1642 1948 c10 -60 48 -192 53 -186 1 1 -8 44 -21 93 -12 50 -23 102 -23 118 -1 15 -5 27 -10 27 -4 0 -4 -24 1 -52z"/>
 <path d="M287 1743 c-4 -7 -3 -15 3 -18 30 -19 246 -66 294 -64 22 1 12 5 -34 16 -36 7 -106 23 -157 34 -50 11 -93 25 -96 32 -2 8 -5 8 -10 0z"/>
 <path d="M1700 1741 c0 -9 -99 -34 -242 -61 -32 -6 -58 -14 -58 -17 0 -10 104 6 205 32 100 25 126 37 106 49 -6 4 -11 3 -11 -3z"/>
 <path d="M642 1035 c-37 -16 -59 -59 -68 -133 -3 -26 -11 -57 -17 -70 -15 -31 3 -47 73 -65 47 -12 52 -16 33 -23 -14 -6 16 -9 90 -9 61 0 102 2 91 3 -35 7 -39 22 -6 22 18 0 49 7 69 15 47 20 141 19 189 -2 76 -33 312 -17 345 23 9 11 9 21 1 37 -6 12 -13 46 -17 76 -13 111 -51 141 -181 141 -100 0 -136 -18 -174 -83 -16 -28 -32 -68 -35 -89 -6 -33 -10 -38 -34 -38 -24 0 -28 6 -40 48 -18 70 -55 127 -95 146 -43 20 -177 21 -224 1z m227 -22 c34 -26 68 -88 77 -139 5 -34 2 -45 -15 -61 -67 -62 -265 -55 -321 12 -18 22 -18 112 0 156 19 44 58 58 154 54 58 -2 86 -8 105 -22z m484 12 c30 -12 47 -60 47 -128 0 -70 -7 -81 -72 -110 -42 -20 -143 -22 -199 -5 -81 24 -96 66 -55 153 27 57 52 83 92 94 33 10 160 7 187 -4z"/>
 <path d="M466 709 c-8 -42 0 -50 9 -9 4 17 5 34 2 36 -2 3 -7 -10 -11 -27z"/>
 <path d="M1310 690 c-42 -28 -43 -30 -18 -30 18 0 33 9 48 30 12 17 20 30 18 30 -2 0 -23 -14 -48 -30z"/>
 <path d="M1105 696 c23 -15 65 -30 65 -22 0 8 -56 36 -72 36 -7 0 -4 -6 7 -14z"/>
 <path d="M1533 640 c0 -25 2 -35 4 -22 2 12 2 32 0 45 -2 12 -4 2 -4 -23z"/>
 </g>
<g id="layer122" fill="#310d15" stroke="none">
 <path d="M930 1977 c0 -13 7 -48 16 -77 l16 -54 -26 -21 -26 -21 45 -44 45 -44 43 42 42 43 -29 23 c-28 24 -28 24 -17 77 25 110 30 99 -44 99 -61 0 -65 -1 -65 -23z"/>
 <path d="M642 1035 c-37 -16 -59 -59 -68 -133 -3 -26 -11 -57 -17 -70 -15 -31 3 -47 73 -65 47 -12 52 -16 33 -23 -14 -6 16 -9 90 -9 61 0 102 2 91 3 -35 7 -39 22 -6 22 18 0 49 7 69 15 47 20 141 19 189 -2 76 -33 312 -17 345 23 9 11 9 21 1 37 -6 12 -13 46 -17 76 -13 111 -51 141 -181 141 -100 0 -136 -18 -174 -83 -16 -28 -32 -68 -35 -89 -6 -33 -10 -38 -34 -38 -24 0 -28 6 -40 48 -18 70 -55 127 -95 146 -43 20 -177 21 -224 1z m227 -22 c34 -26 68 -88 77 -139 5 -34 2 -45 -15 -61 -67 -62 -265 -55 -321 12 -18 22 -18 112 0 156 19 44 58 58 154 54 58 -2 86 -8 105 -22z m484 12 c30 -12 47 -60 47 -128 0 -70 -7 -81 -72 -110 -42 -20 -143 -22 -199 -5 -81 24 -96 66 -55 153 27 57 52 83 92 94 33 10 160 7 187 -4z"/>
 <path d="M466 709 c-8 -42 0 -50 9 -9 4 17 5 34 2 36 -2 3 -7 -10 -11 -27z"/>
 <path d="M1310 690 c-42 -28 -43 -30 -18 -30 18 0 33 9 48 30 12 17 20 30 18 30 -2 0 -23 -14 -48 -30z"/>
 <path d="M1105 696 c23 -15 65 -30 65 -22 0 8 -56 36 -72 36 -7 0 -4 -6 7 -14z"/>
 <path d="M1533 640 c0 -25 2 -35 4 -22 2 12 2 32 0 45 -2 12 -4 2 -4 -23z"/>
 </g>
<g id="layer123" fill="#0f0e0e" stroke="none">
 <path d="M930 1977 c0 -13 7 -48 16 -77 l16 -54 -26 -21 -26 -21 45 -44 45 -44 43 42 42 43 -29 23 c-28 24 -28 24 -17 77 25 110 30 99 -44 99 -61 0 -65 -1 -65 -23z"/>
 <path d="M708 743 c23 -2 59 -2 80 0 20 2 1 4 -43 4 -44 0 -61 -2 -37 -4z"/>
 <path d="M1310 690 c-34 -22 -40 -30 -24 -30 21 0 41 13 63 43 18 23 13 22 -39 -13z"/>
 <path d="M1123 689 c22 -11 41 -18 44 -15 5 5 -62 36 -76 36 -3 -1 11 -10 32 -21z"/>
 </g>

</svg>