<!DOCTYPE svg PUBLIC "-//W3C//DTD SVG 20010904//EN" "http://www.w3.org/TR/2001/REC-SVG-20010904/DTD/svg10.dtd">
<svg version="1.0" xmlns="http://www.w3.org/2000/svg" width="1350px" height="616px" viewBox="0 0 13500 6160" preserveAspectRatio="xMidYMid meet">
<g id="layer101" fill="#ec1a22" stroke="none">
 <path d="M6929 3263 c-1 -5 -2 -73 -3 -153 -2 -111 -6 -154 -19 -182 -9 -21 -17 -53 -17 -73 0 -19 -4 -35 -10 -35 -5 0 -10 -24 -10 -52 0 -50 3 -55 39 -82 44 -32 54 -57 42 -101 -6 -24 -14 -31 -42 -35 -45 -7 -50 -38 -14 -86 l26 -34 -23 0 c-13 0 -29 -5 -36 -12 -15 -15 -16 -48 -2 -48 15 0 12 -16 -5 -34 -26 -26 -18 -72 20 -115 34 -38 35 -38 15 -56 -28 -25 -25 -60 7 -90 32 -29 33 -29 77 -11 32 13 34 18 41 78 4 34 11 68 15 73 5 6 1 33 -9 61 -15 44 -15 63 -6 150 13 115 29 146 87 163 27 8 40 19 44 36 11 44 1 60 -41 65 -54 8 -62 14 -57 48 2 15 -8 62 -21 103 -23 66 -26 94 -28 235 -1 87 -4 167 -6 177 -3 11 -14 17 -34 17 -16 0 -30 -3 -30 -7z"/>
 </g>

</svg>