<!DOCTYPE svg PUBLIC "-//W3C//DTD SVG 20010904//EN" "http://www.w3.org/TR/2001/REC-SVG-20010904/DTD/svg10.dtd">
<svg version="1.0" xmlns="http://www.w3.org/2000/svg" width="678px" height="616px" viewBox="0 0 6780 6160" preserveAspectRatio="xMidYMid meet">
<g id="layer101" fill="#ec2028" stroke="none">
 <path d="M2410 3178 c0 -28 8 -51 25 -74 14 -18 25 -36 25 -40 0 -10 53 -88 63 -92 4 -2 7 -8 7 -13 0 -5 23 -33 50 -62 28 -29 57 -66 65 -83 8 -17 21 -37 30 -44 8 -7 15 -19 15 -26 0 -8 14 -33 30 -56 17 -22 30 -47 30 -55 0 -7 4 -13 9 -13 9 0 16 -10 57 -87 10 -18 21 -33 26 -33 4 0 8 -7 8 -15 0 -8 3 -15 8 -15 8 0 92 -105 92 -115 0 -3 14 -18 30 -32 17 -13 30 -31 30 -39 0 -13 12 -18 25 -11 7 3 38 -43 32 -49 -7 -7 -118 24 -143 41 -13 8 -32 15 -44 15 -33 0 -23 -30 18 -48 62 -28 112 -63 112 -78 0 -8 4 -14 9 -14 4 0 20 -11 35 -25 15 -14 32 -25 37 -25 6 0 7 -5 2 -12 -10 -16 -31 -114 -32 -147 -1 -20 1 -21 14 -11 13 11 15 8 16 -16 2 -78 12 -114 34 -114 12 0 15 14 15 74 0 70 10 100 25 76 3 -5 15 -10 25 -10 10 0 22 -9 25 -20 3 -11 11 -20 16 -20 6 0 8 -4 5 -9 -3 -5 1 -14 9 -21 8 -7 12 -16 9 -21 -3 -5 5 -19 18 -32 31 -31 49 -88 52 -167 l2 -65 32 -3 c29 -3 32 -1 32 25 0 26 -10 63 -46 173 -9 25 -16 52 -18 60 -1 8 -12 35 -24 60 -23 49 -28 85 -12 95 6 3 10 1 10 -5 0 -7 13 -10 33 -8 26 2 32 7 31 26 -1 23 12 30 18 11 2 -6 17 -13 32 -14 16 -2 32 -9 36 -15 5 -9 16 -7 40 5 32 17 66 16 149 -1 46 -9 38 15 -15 40 -31 16 -35 20 -19 23 11 3 36 10 55 17 19 8 49 11 67 9 36 -6 73 24 73 58 0 20 4 21 48 15 88 -13 87 -13 90 17 3 26 1 27 -40 27 -24 0 -53 6 -64 14 -13 10 -34 13 -66 9 -27 -3 -48 -2 -48 3 0 5 -26 11 -57 12 -130 6 -122 4 -105 30 8 12 11 22 7 22 -4 0 -2 7 5 15 19 23 4 45 -30 45 -20 0 -30 -5 -30 -15 0 -8 -4 -15 -10 -15 -5 0 -10 -6 -10 -14 0 -7 -9 -16 -19 -19 -14 -3 -21 2 -26 20 -12 47 -52 34 -76 -25 -3 -9 -11 2 -19 27 -10 32 -18 41 -37 41 -12 0 -23 5 -23 11 0 5 -4 8 -9 5 -5 -3 -11 3 -14 15 -4 16 -3 18 9 8 11 -9 14 -7 14 10 0 15 -4 20 -12 15 -10 -6 -10 -4 -2 7 15 18 28 190 16 198 -5 3 -13 17 -17 30 -6 20 -4 23 10 18 18 -8 54 8 72 32 17 22 16 36 -2 21 -8 -7 -15 -9 -15 -6 0 4 -10 -2 -22 -14 -29 -26 -40 -25 -29 3 5 13 8 68 8 123 l-2 99 -32 10 c-27 7 -33 14 -33 36 0 29 -23 55 -40 44 -6 -4 -8 -16 -5 -26 4 -11 1 -26 -5 -34 -8 -9 -10 -29 -6 -52 3 -21 7 -44 8 -50 1 -7 5 -13 9 -13 11 0 18 -37 8 -47 -5 -5 -12 -38 -15 -73 -4 -36 -14 -76 -23 -90 -28 -44 -41 -81 -41 -121 0 -27 -6 -42 -21 -52 -16 -12 -20 -23 -17 -58 2 -32 7 -43 17 -41 12 3 12 0 2 -12 -7 -8 -9 -21 -5 -28 4 -7 -9 5 -30 27 -60 62 -196 232 -196 244 0 6 -4 11 -9 11 -5 0 -17 17 -26 38 -10 20 -32 55 -49 77 -18 22 -45 68 -61 102 -17 35 -33 63 -36 63 -5 0 -19 43 -23 73 -1 4 -11 18 -23 31 -12 12 -27 35 -34 49 -8 17 -19 26 -32 24 -13 -1 -25 8 -36 30 -9 18 -22 33 -28 33 -7 0 -13 5 -13 11 0 15 -68 99 -81 99 -5 0 -9 -19 -9 -42z"/>
 <path d="M3403 2706 c15 -32 27 -33 27 -4 0 12 -3 18 -7 15 -3 -4 -12 -2 -19 4 -10 8 -11 6 -1 -15z"/>
 <path d="M3522 2614 c-1 -14 1 -31 5 -38 4 -6 8 -17 10 -25 1 -7 7 -19 13 -25 11 -11 9 25 -4 79 -2 11 -5 23 -5 28 -2 19 -17 4 -19 -19z"/>
 <path d="M3520 2480 c0 -5 -6 -10 -14 -10 -19 0 -27 -25 -13 -40 9 -10 9 -11 0 -6 -7 4 -13 2 -13 -3 0 -23 22 -10 33 19 6 17 15 30 19 30 4 0 8 5 8 10 0 6 -4 10 -10 10 -5 0 -10 -4 -10 -10z"/>
 <path d="M3430 2355 c0 -8 5 -15 10 -15 6 0 10 7 10 15 0 8 -4 15 -10 15 -5 0 -10 -7 -10 -15z"/>
 </g>
<g id="layer102" fill="#ee888b" stroke="none">
 <path d="M3403 2706 c15 -32 27 -33 27 -4 0 12 -3 18 -7 15 -3 -4 -12 -2 -19 4 -10 8 -11 6 -1 -15z"/>
 <path d="M3352 2708 c-7 -7 -12 -9 -12 -5 0 4 -10 -1 -22 -13 -12 -11 -29 -20 -37 -20 -14 -1 -14 -2 1 -10 21 -13 59 3 77 32 14 23 10 33 -7 16z"/>
 <path d="M3522 2614 c-1 -14 1 -31 5 -38 4 -6 8 -17 10 -25 1 -7 7 -19 13 -25 11 -11 9 25 -4 79 -2 11 -5 23 -5 28 -2 19 -17 4 -19 -19z"/>
 <path d="M3120 2485 c0 -14 -9 -30 -20 -37 -11 -7 -20 -18 -20 -25 0 -8 9 -4 21 8 23 23 43 79 28 79 -5 0 -9 -11 -9 -25z"/>
 <path d="M3520 2480 c0 -5 -6 -10 -14 -10 -19 0 -27 -25 -13 -40 9 -10 9 -11 0 -6 -7 4 -13 2 -13 -3 0 -23 22 -10 33 19 6 17 15 30 19 30 4 0 8 5 8 10 0 6 -4 10 -10 10 -5 0 -10 -4 -10 -10z"/>
 <path d="M3274 2399 c-3 -6 -1 -16 5 -22 8 -8 11 -5 11 11 0 24 -5 28 -16 11z"/>
 <path d="M3430 2355 c0 -8 5 -15 10 -15 6 0 10 7 10 15 0 8 -4 15 -10 15 -5 0 -10 -7 -10 -15z"/>
 <path d="M3755 2210 l-40 -7 37 -2 c20 0 40 4 43 9 3 6 5 9 3 9 -2 -1 -21 -5 -43 -9z"/>
 <path d="M3122 1810 c-10 -17 -10 -20 3 -20 8 0 15 9 15 20 0 11 -1 20 -3 20 -1 0 -8 -9 -15 -20z"/>
 </g>

</svg>