<!DOCTYPE svg PUBLIC "-//W3C//DTD SVG 20010904//EN" "http://www.w3.org/TR/2001/REC-SVG-20010904/DTD/svg10.dtd">
<svg version="1.0" xmlns="http://www.w3.org/2000/svg" width="500px" height="500px" viewBox="0 0 5000 5000" preserveAspectRatio="xMidYMid meet">
<g id="layer101" fill="#610000" stroke="none">
 <path d="M2203 2343 c-15 -5 -17 -35 -4 -48 15 -16 16 -48 2 -88 -8 -25 -9 -42 -3 -50 33 -42 46 -149 27 -229 -8 -35 -15 -78 -15 -95 0 -18 -4 -33 -9 -33 -4 0 -7 -10 -7 -22 1 -13 -1 -27 -5 -33 -4 -5 -4 -31 0 -57 5 -29 4 -45 -2 -41 -5 3 -6 -3 -2 -16 7 -22 -18 -70 -29 -53 -3 5 -17 10 -31 10 -21 0 -24 -4 -19 -21 4 -13 2 -17 -5 -13 -6 4 -11 1 -11 -8 0 -8 -6 -17 -12 -19 -7 -3 -3 -6 10 -6 24 -1 31 -21 7 -21 -8 0 -15 -7 -15 -17 0 -13 -3 -12 -19 5 -22 26 -46 28 -55 6 -10 -26 -7 -34 12 -34 15 -1 15 -2 -2 -15 -17 -13 -17 -15 -3 -15 10 0 14 -5 11 -14 -6 -16 30 -28 43 -15 11 11 43 1 43 -12 0 -14 -18 -11 -23 4 -3 8 -9 6 -19 -7 -9 -12 -20 -16 -28 -11 -14 9 -30 -11 -30 -37 0 -11 5 -15 15 -12 22 9 44 -13 38 -37 -4 -15 -2 -18 12 -12 13 4 16 3 11 -5 -4 -7 -2 -12 4 -12 6 0 4 -12 -6 -31 -8 -17 -11 -28 -5 -25 6 4 12 1 13 -6 0 -7 2 -17 2 -23 1 -5 6 -16 10 -24 7 -11 5 -13 -8 -8 -9 4 -14 3 -11 -2 3 -5 1 -13 -5 -16 -16 -10 8 -35 31 -35 13 0 19 7 19 24 0 14 4 27 9 30 9 6 26 -22 22 -38 -1 -5 6 -3 15 5 16 12 17 12 11 -4 -17 -47 -19 -68 -6 -65 24 5 38 31 28 50 -7 14 -6 18 6 18 18 0 20 16 3 24 -7 3 -2 3 12 0 33 -8 35 -11 21 -28 -15 -18 -5 -40 15 -32 17 6 20 -29 3 -40 -8 -4 -7 -9 2 -15 11 -6 11 -12 0 -33 -11 -19 -11 -29 -3 -39 9 -10 8 -19 -4 -35 -11 -17 -12 -26 -4 -42 11 -21 19 -24 44 -14 19 7 20 27 4 57 -15 28 -17 177 -2 177 19 0 23 -12 11 -31 -6 -10 -9 -21 -6 -24 8 -7 72 16 81 29 5 7 8 6 8 -3 0 -8 -8 -20 -17 -27 -10 -7 -15 -16 -11 -20 4 -4 14 -2 21 4 8 7 18 8 22 4 5 -4 5 -2 1 5 -3 6 -2 14 4 18 5 3 10 -2 10 -13 0 -24 -33 -55 -46 -42 -5 5 -17 0 -30 -15 -20 -22 -20 -24 -3 -28 9 -3 22 0 28 6 8 8 11 6 11 -5 0 -9 3 -23 6 -32 4 -12 0 -16 -15 -16 -12 0 -21 -4 -21 -10 0 -11 12 -13 49 -10 13 1 21 -3 17 -8 -4 -6 10 -9 37 -7 73 6 92 10 89 23 -1 7 4 20 13 28 8 9 15 22 15 31 0 9 6 13 14 10 9 -4 17 3 21 16 3 13 8 17 11 10 3 -7 12 -9 20 -6 8 3 14 0 14 -6 0 -6 -5 -11 -11 -11 -5 0 -7 -5 -3 -11 5 -8 8 -8 14 0 11 18 70 23 70 6 0 -8 5 -17 12 -21 7 -4 8 -3 4 4 -14 22 5 34 25 16 20 -18 27 -6 8 13 -8 8 -8 17 1 33 9 17 14 19 26 9 8 -6 16 -10 17 -8 1 2 9 16 16 31 l14 28 36 -27 c20 -14 44 -35 54 -44 9 -10 24 -16 32 -13 8 4 15 2 15 -4 0 -12 29 -24 41 -16 5 3 6 11 2 17 -7 12 -9 17 -11 49 -1 9 -11 20 -22 23 -23 7 -27 25 -5 25 9 0 12 6 9 15 -4 10 0 15 11 15 9 0 13 -5 10 -10 -5 -8 32 -30 51 -30 15 0 -1 22 -26 35 -29 15 -30 18 -26 70 3 40 0 55 -10 59 -8 3 -14 13 -14 22 0 12 -6 15 -25 10 -15 -4 -25 -2 -25 4 0 12 41 30 52 23 4 -2 5 3 2 11 -7 18 -24 22 -24 6 0 -5 -11 -10 -25 -10 -18 0 -25 5 -25 20 0 12 -7 20 -17 20 -15 0 -16 -2 -3 -10 13 -8 12 -10 -2 -10 -12 0 -18 8 -18 21 0 13 5 19 13 16 20 -7 54 10 59 31 4 15 2 19 -8 15 -9 -3 -14 2 -15 13 0 12 -3 14 -6 6 -4 -10 -8 -10 -21 0 -15 11 -15 10 0 -7 19 -23 10 -49 -15 -39 -9 3 -26 -1 -39 -10 -31 -22 -46 -20 -20 2 15 13 18 22 11 34 -6 11 -6 19 1 23 5 3 10 1 10 -4 0 -6 5 -11 11 -11 8 0 7 6 -2 17 -12 15 -12 16 5 10 15 -6 17 -5 8 6 -9 10 -8 17 0 25 7 7 8 12 2 12 -5 0 -2 5 6 11 12 8 10 9 -10 7 -20 -2 -26 -9 -28 -33 -2 -24 -10 -34 -35 -43 -26 -10 -34 -9 -47 3 -13 14 -13 17 0 25 16 10 33 3 25 -11 -3 -5 1 -6 9 -3 22 9 20 21 -9 46 -31 27 -32 54 -2 79 19 16 20 20 7 29 -12 9 -10 10 8 5 18 -5 22 -2 22 15 0 18 -3 19 -20 10 -16 -9 -20 -8 -20 5 0 27 2 30 13 27 9 -3 9 0 0 9 -12 12 -7 39 8 39 5 0 9 -10 9 -22 0 -16 3 -19 11 -11 13 13 2 53 -15 53 -6 0 -12 9 -12 20 0 11 4 20 8 20 4 0 4 8 1 17 -5 12 -2 15 8 11 10 -4 15 1 16 13 1 11 -2 17 -8 14 -5 -4 -9 2 -9 12 0 11 -4 23 -9 29 -19 20 -22 52 -5 68 9 10 14 19 11 22 -2 3 -11 -2 -19 -9 -10 -10 -20 -12 -31 -5 -23 12 -21 -4 3 -30 24 -25 28 -67 5 -59 -8 4 -17 2 -20 -3 -4 -6 -1 -10 5 -10 7 0 9 -8 4 -22 -9 -31 -9 -31 -33 -18 -24 12 -29 35 -6 26 11 -4 15 2 15 20 0 21 4 25 20 21 11 -3 20 -2 20 2 0 14 -45 61 -59 61 -8 0 -11 6 -7 15 4 10 -1 15 -14 15 -19 0 -19 -1 -2 -21 9 -12 22 -27 29 -34 10 -10 10 -18 0 -39 -15 -33 -27 -33 -27 0 0 14 -5 34 -10 44 -6 10 -12 38 -15 62 -3 24 -10 58 -15 77 -5 18 -7 46 -3 61 4 23 1 29 -17 35 -12 4 -24 4 -27 1 -7 -7 -7 -86 0 -106 11 -29 29 -132 24 -136 -8 -8 -27 58 -20 70 3 6 3 8 -2 4 -4 -4 -15 -2 -24 5 -14 11 -14 10 -2 -5 7 -10 10 -18 5 -18 -5 0 -3 -4 4 -9 12 -7 20 -38 21 -87 1 -12 9 -24 19 -26 11 -3 18 -16 20 -37 2 -23 -1 -31 -10 -28 -7 2 -12 12 -10 22 3 14 1 15 -11 4 -8 -8 -11 -16 -7 -19 10 -7 -7 -50 -20 -50 -5 0 -10 18 -10 41 0 33 3 40 15 35 12 -4 14 0 9 22 -4 15 -11 28 -15 30 -4 2 -5 14 -3 28 3 15 -3 36 -16 54 -22 31 -27 70 -7 70 7 1 5 6 -6 14 -10 8 -18 17 -17 21 1 4 -1 9 -4 12 -3 4 -3 -19 0 -50 5 -52 -7 -120 -24 -131 -4 -2 -6 19 -4 48 3 37 -1 56 -11 65 -13 10 -14 7 -7 -23 4 -18 4 -40 0 -46 -13 -21 -32 0 -27 28 5 24 4 25 -8 8 -21 -28 -35 -10 -36 47 0 58 -12 97 -22 80 -4 -7 -3 -14 3 -18 5 -3 10 -31 10 -62 0 -38 5 -59 15 -67 22 -16 -2 -68 -28 -60 -15 5 -17 1 -11 -20 5 -20 2 -26 -10 -26 -12 0 -15 6 -11 23 4 13 8 59 10 103 2 43 6 90 8 104 3 26 -9 50 -24 50 -10 0 -32 -45 -34 -72 -1 -10 2 -15 6 -12 20 12 7 -43 -13 -61 l-23 -20 28 -3 c24 -3 27 -7 23 -30 -2 -15 -5 -27 -6 -27 0 0 -2 -19 -4 -43 -1 -23 -8 -48 -16 -55 -10 -10 -12 -8 -5 8 16 44 18 58 7 51 -14 -9 -16 22 -2 44 6 9 5 19 -2 28 -17 20 -28 -4 -28 -60 0 -52 -10 -61 -29 -25 -10 19 -9 32 4 71 9 27 15 60 12 73 -2 13 -1 26 3 28 12 7 -7 90 -31 136 -17 34 -19 50 -13 88 6 39 8 84 5 113 -2 12 -35 26 -48 21z m277 -476 c25 -20 14 -87 -12 -71 -7 5 -5 11 5 19 15 11 15 14 -3 30 -20 18 -20 17 -20 -9 0 -15 -6 -34 -14 -41 -25 -26 -27 32 -2 60 24 28 26 29 46 12z m50 -69 c0 -38 -21 -78 -41 -78 -5 0 -13 10 -20 22 -9 17 -9 20 3 16 10 -4 18 7 27 38 17 56 31 57 31 2z m-296 -166 c2 -4 1 -14 -3 -21 -6 -9 -10 -7 -14 8 -5 20 7 29 17 13z m-142 -314 c-16 -16 -36 0 -21 18 9 11 9 14 0 14 -7 0 -9 5 -6 11 5 6 13 2 22 -11 11 -15 12 -25 5 -32z m895 -292 c-4 -10 -1 -13 7 -10 15 6 32 -13 22 -23 -9 -9 -57 27 -51 37 10 16 28 11 22 -4z m-417 -15 c0 -5 20 -7 45 -5 26 3 45 1 45 -4 0 -15 -103 -9 -108 6 -2 6 1 12 7 12 6 0 11 -4 11 -9z"/>
 <path d="M2670 2045 c1 -5 12 -23 25 -40 14 -16 25 -25 25 -20 -1 6 -12 24 -25 40 -14 17 -25 26 -25 20z"/>
 <path d="M2925 1761 c4 -12 2 -21 -4 -21 -6 0 -11 5 -11 11 0 5 -4 7 -10 4 -12 -7 -14 -26 -2 -24 21 4 23 -3 7 -21 -25 -28 -35 -25 -35 12 0 43 -10 29 -16 -21 -4 -32 -2 -41 11 -41 8 0 15 5 15 10 0 6 5 10 10 10 6 0 10 -9 10 -20 0 -12 -7 -20 -18 -20 -20 0 -47 -53 -38 -75 6 -17 25 -20 27 -5 3 20 5 25 16 45 9 16 14 18 24 8 20 -20 34 -15 16 5 -21 23 -22 38 -2 46 17 6 19 102 3 112 -6 4 -7 -2 -3 -15z"/>
 <path d="M2935 1574 c11 -9 15 -19 11 -31 -6 -15 -5 -16 6 -3 7 8 19 19 27 26 12 9 7 12 -23 16 -33 4 -36 2 -21 -8z"/>
 <path d="M2803 1534 c-20 -25 -21 -28 -6 -40 14 -9 22 -9 40 5 26 18 29 31 9 31 -8 0 -16 7 -18 16 -2 12 -8 9 -25 -12z"/>
 <path d="M1971 1504 c-18 -21 -6 -30 14 -11 8 9 15 18 15 21 0 11 -15 5 -29 -10z"/>
 <path d="M1787 1324 c-14 -15 -6 -34 14 -34 14 0 19 5 17 17 -3 18 -20 27 -31 17z"/>
 <path d="M3165 1281 c5 -16 3 -26 -6 -32 -8 -5 -9 -9 -3 -9 6 0 17 7 24 15 10 12 9 18 -5 32 -17 16 -17 16 -10 -6z"/>
 <path d="M3037 1156 c-4 -10 -5 -21 -2 -24 9 -9 17 6 13 25 -3 17 -4 17 -11 -1z"/>
 <path d="M3220 1110 c0 -5 7 -10 15 -10 8 0 15 5 15 10 0 6 -7 10 -15 10 -8 0 -15 -4 -15 -10z"/>
 <path d="M1800 1077 c0 -8 9 -22 19 -31 22 -20 36 -7 26 24 -7 22 -45 28 -45 7z"/>
 <path d="M2225 980 c-14 -16 -16 -23 -7 -32 9 -9 15 -9 24 0 7 7 8 12 4 12 -5 0 -3 6 3 14 19 23 -4 28 -24 6z"/>
 <path d="M1897 969 c4 -12 -2 -18 -19 -21 -12 -2 -23 -10 -23 -18 0 -11 11 -15 40 -15 24 0 40 5 40 12 0 6 3 15 7 18 4 4 3 16 -2 26 -13 23 -49 22 -43 -2z"/>
 <path d="M2988 910 c5 -33 17 -40 24 -12 6 23 -1 42 -16 42 -8 0 -11 -10 -8 -30z"/>
 <path d="M2575 840 c-4 -6 -14 -9 -22 -6 -8 3 -12 2 -8 -3 3 -5 0 -11 -6 -13 -6 -2 2 -10 18 -17 51 -24 58 -29 56 -40 -2 -6 4 -11 13 -11 8 0 13 4 10 9 -3 5 0 14 8 20 25 21 5 58 -28 52 -4 -1 -14 3 -21 9 -10 8 -15 8 -20 0z"/>
 <path d="M2650 715 c-17 -20 -5 -45 20 -45 11 0 23 7 26 15 6 15 -11 45 -26 45 -4 0 -13 -7 -20 -15z"/>
 </g>
<g id="layer102" fill="#b80e0e" stroke="none">
 <path d="M2203 2343 c-15 -5 -17 -35 -4 -48 15 -16 16 -48 2 -88 -8 -25 -9 -42 -3 -50 33 -42 46 -149 27 -229 -8 -35 -15 -78 -15 -95 0 -18 -4 -33 -9 -33 -4 0 -7 -10 -7 -22 1 -13 -1 -27 -5 -33 -4 -5 -4 -31 0 -57 5 -29 4 -45 -2 -41 -5 3 -6 -3 -2 -16 7 -22 -18 -70 -29 -53 -3 5 -17 10 -31 10 -21 0 -24 -4 -19 -21 4 -13 2 -17 -5 -13 -6 4 -11 1 -11 -8 0 -8 -6 -17 -12 -19 -7 -3 -3 -6 10 -6 24 -1 31 -21 7 -21 -8 0 -15 -7 -15 -17 0 -13 -3 -12 -19 5 -22 26 -46 28 -55 6 -10 -26 -7 -34 12 -34 15 -1 15 -2 -2 -15 -17 -13 -17 -15 -3 -15 10 0 14 -5 11 -14 -6 -16 30 -28 43 -15 11 11 43 1 43 -12 0 -14 -18 -11 -23 4 -3 8 -9 6 -19 -7 -9 -12 -20 -16 -28 -11 -14 9 -30 -11 -30 -37 0 -11 5 -15 15 -12 22 9 44 -13 38 -37 -4 -15 -2 -18 12 -12 13 4 16 3 11 -5 -4 -7 -2 -12 4 -12 6 0 4 -12 -6 -31 -8 -17 -11 -28 -5 -25 6 4 12 1 13 -6 0 -7 2 -17 2 -23 1 -5 6 -16 10 -24 7 -11 5 -13 -8 -8 -9 4 -14 3 -11 -2 3 -5 1 -13 -5 -16 -16 -10 8 -35 31 -35 13 0 19 7 19 24 0 14 4 27 9 30 9 6 26 -22 22 -38 -1 -5 6 -3 15 5 16 12 17 12 11 -4 -17 -47 -19 -68 -6 -65 24 5 38 31 28 50 -7 14 -6 18 6 18 18 0 20 16 3 24 -7 3 -2 3 12 0 33 -8 35 -11 21 -28 -15 -18 -5 -40 15 -32 17 6 20 -29 3 -40 -8 -4 -7 -9 2 -15 11 -6 11 -12 0 -33 -11 -19 -11 -29 -3 -39 9 -10 8 -19 -4 -35 -11 -17 -12 -26 -4 -42 11 -21 19 -24 44 -14 19 7 20 27 4 57 -16 30 -17 177 -1 177 16 0 26 -17 13 -25 -13 -8 -13 -35 1 -35 5 0 8 3 6 8 -3 4 8 8 25 8 17 1 34 7 39 15 7 12 9 12 9 0 0 -8 -8 -20 -17 -27 -10 -7 -15 -16 -11 -20 4 -4 14 -2 21 4 8 7 18 8 22 4 5 -4 5 -2 1 5 -3 6 -2 14 4 18 5 3 10 -2 10 -13 0 -24 -33 -55 -46 -42 -5 5 -17 0 -30 -15 -20 -22 -20 -24 -3 -28 9 -3 22 0 28 6 8 8 11 6 11 -5 0 -9 3 -23 6 -32 4 -12 0 -16 -15 -16 -12 0 -21 -4 -21 -10 0 -11 12 -13 49 -10 13 1 21 -3 17 -8 -4 -6 10 -9 37 -7 73 6 92 10 89 23 -1 7 4 20 13 28 8 9 15 22 15 31 0 9 6 13 14 10 9 -4 17 3 21 16 3 13 8 17 11 10 3 -7 12 -9 20 -6 8 3 14 0 14 -6 0 -6 -5 -11 -11 -11 -5 0 -7 -5 -3 -11 5 -8 8 -8 14 0 11 18 70 23 70 6 0 -8 5 -17 12 -21 7 -4 8 -3 4 4 -14 22 5 34 25 16 20 -18 27 -6 8 13 -8 8 -8 17 1 33 9 17 14 19 26 9 8 -6 16 -10 17 -8 1 2 9 16 16 31 l14 28 36 -27 c20 -14 44 -35 54 -44 9 -10 24 -16 32 -13 8 4 15 2 15 -4 0 -12 29 -24 41 -16 5 3 6 11 2 17 -7 12 -9 17 -11 49 -1 9 -11 20 -22 23 -23 7 -27 25 -5 25 9 0 12 6 9 15 -4 10 0 15 11 15 9 0 13 -5 10 -10 -5 -8 32 -30 51 -30 15 0 -1 22 -26 35 -29 15 -30 18 -26 70 3 40 0 55 -10 59 -8 3 -14 13 -14 22 0 12 -6 15 -25 10 -15 -4 -25 -2 -25 4 0 12 41 30 52 23 4 -2 5 3 2 11 -7 18 -24 22 -24 6 0 -5 -11 -10 -25 -10 -18 0 -25 5 -25 20 0 12 -7 20 -17 20 -15 0 -16 -2 -3 -10 13 -8 12 -10 -2 -10 -12 0 -18 8 -18 21 0 13 5 19 13 16 20 -7 54 10 59 31 4 15 2 19 -8 15 -9 -3 -14 2 -15 13 0 12 -3 14 -6 6 -4 -10 -8 -10 -21 0 -15 11 -15 10 0 -7 19 -23 10 -49 -15 -39 -9 3 -26 -1 -39 -10 -31 -22 -46 -20 -20 2 15 13 18 22 11 34 -6 11 -6 19 1 23 5 3 10 1 10 -4 0 -6 5 -11 11 -11 8 0 7 6 -2 17 -12 15 -12 16 5 10 15 -6 17 -5 8 6 -9 10 -8 17 0 25 7 7 8 12 2 12 -5 0 -2 5 6 11 12 8 10 9 -10 7 -20 -2 -26 -9 -28 -33 -2 -24 -10 -34 -35 -43 -26 -10 -34 -9 -47 3 -13 14 -13 17 0 25 16 10 33 3 25 -11 -3 -5 1 -6 9 -3 22 9 20 21 -9 46 -31 27 -32 54 -2 79 19 16 20 20 7 29 -12 9 -10 10 8 5 18 -5 22 -2 22 15 0 18 -3 19 -20 10 -16 -9 -20 -8 -20 5 0 27 2 30 13 27 9 -3 9 0 0 9 -12 12 -7 39 8 39 5 0 9 -10 9 -22 0 -16 3 -19 11 -11 13 13 2 53 -15 53 -6 0 -12 9 -12 20 0 11 4 20 8 20 4 0 4 8 1 17 -5 12 -2 15 8 11 10 -4 15 1 16 13 1 11 -2 17 -8 14 -5 -4 -9 2 -9 12 0 11 -4 23 -9 29 -19 20 -22 52 -5 68 9 10 14 19 11 22 -2 3 -11 -2 -19 -9 -10 -10 -20 -12 -31 -5 -23 12 -21 -4 3 -30 24 -25 28 -67 5 -59 -8 4 -17 2 -20 -3 -4 -6 -1 -10 5 -10 7 0 9 -8 4 -22 -9 -31 -9 -31 -33 -18 -24 12 -29 35 -6 26 11 -4 15 2 15 20 0 21 4 25 20 21 11 -3 20 -2 20 2 0 14 -45 61 -59 61 -8 0 -11 6 -7 15 4 10 -1 15 -14 15 -19 0 -19 -1 -2 -21 9 -12 22 -27 29 -34 10 -10 10 -18 0 -39 -15 -33 -27 -33 -27 0 0 14 -5 34 -10 44 -6 10 -12 38 -15 62 -3 24 -10 58 -15 77 -5 18 -7 46 -3 61 4 23 1 29 -17 35 -12 4 -24 4 -27 1 -7 -7 -7 -86 0 -106 11 -29 29 -132 24 -136 -8 -8 -27 58 -20 70 3 6 3 8 -2 4 -4 -4 -15 -2 -24 5 -14 11 -14 10 -2 -5 7 -10 10 -18 5 -18 -5 0 -3 -4 4 -9 12 -7 20 -38 21 -87 1 -12 9 -24 19 -26 11 -3 18 -16 20 -37 2 -23 -1 -31 -10 -28 -7 2 -12 12 -10 22 3 14 1 15 -11 4 -8 -8 -11 -16 -7 -19 10 -7 -7 -50 -20 -50 -5 0 -10 18 -10 41 0 33 3 40 15 35 12 -4 14 0 9 22 -4 15 -11 28 -15 30 -4 2 -5 14 -3 28 3 15 -3 36 -16 54 -22 31 -27 70 -7 70 7 1 5 6 -6 14 -10 8 -18 17 -17 21 1 4 -1 9 -4 12 -3 4 -3 -19 0 -50 5 -52 -7 -120 -24 -131 -4 -2 -6 19 -4 48 3 37 -1 56 -11 65 -13 10 -14 7 -7 -23 4 -18 4 -40 0 -46 -13 -21 -32 0 -27 28 5 24 4 25 -8 8 -21 -28 -35 -10 -36 47 0 58 -12 97 -22 80 -4 -7 -3 -14 3 -18 5 -3 10 -31 10 -62 0 -38 5 -59 15 -67 22 -16 -2 -68 -28 -60 -15 5 -17 1 -11 -20 5 -20 2 -26 -10 -26 -12 0 -15 6 -11 23 4 13 8 59 10 103 2 43 6 90 8 104 3 26 -9 50 -24 50 -10 0 -32 -45 -34 -72 -1 -10 2 -15 6 -12 20 12 7 -43 -13 -61 l-23 -20 28 -3 c24 -3 27 -7 23 -30 -2 -15 -5 -27 -6 -27 0 0 -2 -19 -4 -43 -1 -23 -8 -48 -16 -55 -10 -10 -12 -8 -5 8 16 44 18 58 7 51 -14 -9 -16 22 -2 44 6 9 5 19 -2 28 -17 20 -28 -4 -28 -60 0 -52 -10 -61 -29 -25 -10 19 -9 32 4 71 9 27 15 60 12 73 -2 13 -1 26 3 28 12 7 -7 90 -31 136 -17 34 -19 50 -13 88 6 39 8 84 5 113 -2 12 -35 26 -48 21z m277 -476 c25 -20 14 -87 -12 -71 -7 5 -5 11 5 19 15 11 15 14 -3 30 -20 18 -20 17 -20 -9 0 -15 -6 -34 -14 -41 -25 -26 -27 32 -2 60 24 28 26 29 46 12z m50 -69 c0 -38 -21 -78 -41 -78 -5 0 -13 10 -20 22 -9 17 -9 20 3 16 10 -4 18 7 27 38 17 56 31 57 31 2z m-181 -150 c-1 -18 -1 -42 0 -53 2 -18 3 -18 17 5 15 25 15 25 10 -12 -4 -29 -1 -38 10 -38 8 0 12 5 9 10 -3 6 -1 10 5 10 7 0 20 10 30 22 15 19 20 20 34 9 23 -19 66 -6 66 20 0 16 2 18 14 7 11 -10 11 -16 2 -27 -8 -11 -8 -13 1 -8 8 5 14 -2 18 -20 9 -40 23 -72 24 -53 1 8 11 20 24 25 21 10 22 9 22 -32 0 -24 -3 -43 -7 -43 -5 0 -8 -10 -7 -22 l0 -23 9 23 c9 20 32 32 29 15 -3 -20 2 -24 16 -13 18 15 19 7 3 -20 -7 -10 -9 -23 -5 -27 5 -4 12 -2 16 6 6 9 10 7 14 -8 2 -11 0 -23 -7 -26 -16 -8 36 1 57 10 13 5 17 2 17 -12 0 -22 18 -43 38 -43 18 0 45 -27 33 -35 -16 -9 -10 -64 5 -58 8 3 14 0 14 -6 0 -6 -7 -11 -16 -11 -10 0 -7 -7 12 -23 l27 -24 -55 1 c-31 1 -54 -2 -51 -6 2 -5 13 -8 23 -8 10 0 22 -4 25 -10 3 -5 -3 -10 -14 -10 -25 0 -27 -9 -5 -24 13 -10 12 -12 -8 -10 -33 2 -78 25 -71 36 3 6 -3 5 -14 -1 -13 -7 -23 -7 -30 0 -6 6 -14 5 -23 -6 -9 -11 -9 -15 -1 -15 7 0 9 -5 6 -11 -4 -6 -14 -8 -22 -5 -9 4 -13 1 -11 -6 6 -16 48 -23 48 -8 0 6 5 8 10 5 11 -7 -12 -35 -28 -35 -6 0 -13 -6 -15 -12 -7 -18 -27 10 -20 28 8 21 -13 24 -34 4 -12 -10 -24 -16 -27 -13 -3 4 -6 -1 -6 -9 0 -9 -7 -19 -16 -22 -8 -3 -13 -2 -9 3 7 13 -5 42 -16 35 -5 -3 -14 -2 -20 2 -8 5 -8 9 1 14 9 5 9 9 1 14 -6 4 -11 2 -11 -4 0 -7 -7 -9 -16 -6 -9 4 -22 2 -29 -4 -10 -8 -13 -6 -11 7 0 10 -7 19 -19 21 -11 2 -27 11 -37 19 -9 9 -18 10 -22 5 -3 -6 0 -13 6 -15 7 -3 -4 -5 -24 -4 -33 0 -37 3 -32 22 4 15 1 22 -10 22 -8 0 -13 -4 -10 -9 3 -4 -4 -8 -16 -8 -18 0 -19 3 -10 20 8 14 8 20 0 20 -6 0 -8 4 -5 10 3 6 -1 7 -10 4 -11 -4 -14 -2 -9 9 4 10 0 15 -13 14 -9 -1 -18 5 -18 13 -1 8 -6 14 -13 13 -14 -3 -5 25 16 50 8 9 12 20 8 24 -4 4 -11 1 -15 -6 -5 -7 -13 -11 -19 -7 -5 3 -10 0 -9 -7 1 -30 -4 -47 -14 -47 -5 0 -8 4 -4 9 3 5 1 12 -5 16 -22 14 3 110 27 101 20 -8 28 23 10 41 -14 14 -14 18 -1 38 8 13 26 26 40 29 17 5 24 13 24 31 0 19 8 28 35 39 33 14 48 29 24 24 -21 -5 -21 20 0 27 11 3 22 19 26 35 9 40 16 38 14 -2z m-115 -16 c2 -4 1 -14 -3 -21 -6 -9 -10 -7 -14 8 -5 20 7 29 17 13z m429 -132 c-3 -11 -9 -20 -14 -20 -10 0 -12 24 -2 33 13 13 21 7 16 -13z m-571 -182 c-16 -16 -36 0 -21 18 9 11 9 14 0 14 -7 0 -9 5 -6 11 5 6 13 2 22 -11 11 -15 12 -25 5 -32z m132 -126 c2 -4 -4 -9 -15 -9 -10 -1 -19 2 -19 8 0 11 27 12 34 1z m290 -143 c-8 -14 -24 -10 -24 6 0 9 6 12 15 9 8 -4 12 -10 9 -15z m473 -23 c-4 -10 -1 -13 7 -10 15 6 32 -13 22 -23 -9 -9 -57 27 -51 37 10 16 28 11 22 -4z m-497 -16 c0 -11 -7 -20 -15 -20 -13 0 -13 3 -3 20 7 11 14 20 15 20 2 0 3 -9 3 -20z m80 1 c0 -5 20 -7 45 -5 26 3 45 1 45 -4 0 -15 -103 -9 -108 6 -2 6 1 12 7 12 6 0 11 -4 11 -9z"/>
 <path d="M2670 2045 c1 -5 12 -23 25 -40 14 -16 25 -25 25 -20 -1 6 -12 24 -25 40 -14 17 -25 26 -25 20z"/>
 <path d="M2925 1761 c4 -12 2 -21 -4 -21 -6 0 -11 5 -11 11 0 5 -4 7 -10 4 -12 -7 -14 -26 -2 -24 21 4 23 -3 7 -21 -25 -28 -35 -25 -35 12 0 43 -10 29 -16 -21 -4 -32 -2 -41 11 -41 8 0 15 5 15 10 0 6 5 10 10 10 6 0 10 -9 10 -20 0 -12 -7 -20 -18 -20 -20 0 -47 -53 -38 -75 6 -17 25 -20 27 -5 3 20 5 25 16 45 9 16 14 18 24 8 20 -20 34 -15 16 5 -21 23 -22 38 -2 46 17 6 19 102 3 112 -6 4 -7 -2 -3 -15z"/>
 <path d="M2935 1574 c11 -9 15 -19 11 -31 -6 -15 -5 -16 6 -3 7 8 19 19 27 26 12 9 7 12 -23 16 -33 4 -36 2 -21 -8z"/>
 <path d="M2803 1534 c-20 -25 -21 -28 -6 -40 14 -9 22 -9 40 5 26 18 29 31 9 31 -8 0 -16 7 -18 16 -2 12 -8 9 -25 -12z"/>
 <path d="M1971 1504 c-18 -21 -6 -30 14 -11 8 9 15 18 15 21 0 11 -15 5 -29 -10z"/>
 <path d="M1787 1324 c-14 -15 -6 -34 14 -34 14 0 19 5 17 17 -3 18 -20 27 -31 17z"/>
 <path d="M3165 1281 c5 -16 3 -26 -6 -32 -8 -5 -9 -9 -3 -9 6 0 17 7 24 15 10 12 9 18 -5 32 -17 16 -17 16 -10 -6z"/>
 <path d="M3037 1156 c-4 -10 -5 -21 -2 -24 9 -9 17 6 13 25 -3 17 -4 17 -11 -1z"/>
 <path d="M3220 1110 c0 -5 7 -10 15 -10 8 0 15 5 15 10 0 6 -7 10 -15 10 -8 0 -15 -4 -15 -10z"/>
 <path d="M1800 1077 c0 -8 9 -22 19 -31 22 -20 36 -7 26 24 -7 22 -45 28 -45 7z"/>
 <path d="M2225 980 c-14 -16 -16 -23 -7 -32 9 -9 15 -9 24 0 7 7 8 12 4 12 -5 0 -3 6 3 14 19 23 -4 28 -24 6z"/>
 <path d="M1897 969 c4 -12 -2 -18 -19 -21 -12 -2 -23 -10 -23 -18 0 -11 11 -15 40 -15 24 0 40 5 40 12 0 6 3 15 7 18 4 4 3 16 -2 26 -13 23 -49 22 -43 -2z"/>
 <path d="M2988 910 c5 -33 17 -40 24 -12 6 23 -1 42 -16 42 -8 0 -11 -10 -8 -30z"/>
 <path d="M2575 840 c-4 -6 -14 -9 -22 -6 -8 3 -12 2 -8 -3 3 -5 0 -11 -6 -13 -6 -2 2 -10 18 -17 51 -24 58 -29 56 -40 -2 -6 4 -11 13 -11 8 0 13 4 10 9 -3 5 0 14 8 20 25 21 5 58 -28 52 -4 -1 -14 3 -21 9 -10 8 -15 8 -20 0z"/>
 <path d="M2650 715 c-17 -20 -5 -45 20 -45 11 0 23 7 26 15 6 15 -11 45 -26 45 -4 0 -13 -7 -20 -15z"/>
 </g>

</svg>