<!DOCTYPE svg PUBLIC "-//W3C//DTD SVG 20010904//EN" "http://www.w3.org/TR/2001/REC-SVG-20010904/DTD/svg10.dtd">
<svg version="1.0" xmlns="http://www.w3.org/2000/svg" width="264px" height="278px" viewBox="0 0 2640 2780" preserveAspectRatio="xMidYMid meet">
<g id="layer101" fill="#f70d0f" stroke="none">
 <path d="M1384 2135 c-13 -20 -15 -31 -6 -50 8 -18 8 -26 -4 -35 -15 -13 -19 -42 -7 -53 3 -4 15 1 25 10 17 15 20 15 34 1 23 -22 9 -38 -32 -38 -24 0 -43 -9 -66 -30 -46 -44 -76 -32 -53 21 5 14 -1 18 -34 21 -23 2 -51 0 -63 -5 -14 -5 -37 -4 -59 3 -50 17 -85 10 -82 -15 1 -11 4 -31 5 -44 3 -25 -10 -36 -55 -46 -24 -5 -27 -10 -25 -39 1 -21 6 -32 13 -29 7 2 26 -13 43 -34 18 -21 38 -46 47 -55 20 -24 19 -31 -6 -54 -15 -13 -19 -26 -15 -45 3 -18 -1 -36 -14 -52 -23 -29 -26 -57 -6 -57 7 0 28 11 47 25 43 31 78 47 90 39 21 -13 9 -81 -21 -119 -20 -25 -28 -44 -24 -54 11 -23 8 -62 -6 -96 -28 -65 -11 -75 40 -25 17 16 41 30 53 30 27 0 71 44 82 80 4 14 14 33 23 42 13 16 13 18 -2 24 -19 7 -22 44 -3 44 15 0 45 -55 49 -90 2 -15 10 -26 23 -29 25 -4 35 -19 35 -51 0 -17 8 -29 23 -35 16 -7 22 -18 22 -40 0 -25 -5 -31 -29 -35 -16 -3 -35 -15 -44 -27 -16 -25 -2 -32 18 -8 7 8 18 15 24 15 7 0 25 14 41 30 38 40 63 39 56 -2 -2 -14 20 -8 49 14 22 16 30 30 30 53 0 38 26 65 62 65 16 0 32 9 42 25 10 16 26 25 41 25 17 0 25 6 26 18 1 9 2 28 2 42 2 17 9 26 27 30 18 5 24 12 22 27 -2 14 6 28 22 39 29 18 33 36 12 53 -8 7 -17 31 -21 54 -3 23 -11 52 -17 65 -10 18 -8 29 5 51 22 37 22 83 -1 111 -13 16 -32 23 -80 27 -61 6 -62 6 -62 35 0 27 -2 29 -37 26 -55 -4 -57 27 -6 69 21 17 46 44 55 61 18 30 18 30 -8 36 -20 5 -30 2 -41 -14 -16 -22 -52 -27 -71 -8 -17 17 -34 -3 -47 -55 -8 -32 -15 -43 -32 -45 -27 -4 -57 38 -48 67 7 22 -13 61 -32 61 -7 0 -20 -11 -29 -25z m252 -239 c11 -30 -32 -86 -67 -86 -19 0 -8 45 18 72 30 31 41 35 49 14z m154 -25 c17 -33 12 -89 -9 -101 -11 -5 -24 -10 -30 -10 -12 0 -16 112 -4 123 12 13 32 7 43 -12z m-276 -296 c4 -10 -1 -15 -14 -15 -20 0 -26 11 -13 23 10 11 20 8 27 -8z m104 -83 c3 -9 -3 -13 -19 -10 -12 1 -24 9 -27 16 -3 9 3 13 19 10 12 -1 24 -9 27 -16z m-94 -11 c3 -5 -1 -14 -9 -21 -8 -7 -15 -23 -15 -36 0 -30 -25 -54 -59 -54 -32 0 -51 16 -51 45 0 16 10 23 45 33 25 7 48 19 51 27 7 16 30 20 38 6z"/>
 <path d="M1030 1468 c0 -18 18 -34 28 -24 3 4 -2 14 -11 23 -16 16 -17 16 -17 1z"/>
 <path d="M1201 1227 c-14 -17 -4 -27 26 -27 16 0 23 6 23 20 0 23 -31 27 -49 7z"/>
 <path d="M1358 1141 c-9 -10 -19 -38 -23 -61 l-7 -42 26 17 c21 14 26 25 26 61 0 24 -1 44 -3 44 -1 0 -10 -8 -19 -19z"/>
 </g>

</svg>