<?xml version="1.0" encoding="UTF-8" standalone="no"?>
<!-- Created with Inkscape (http://www.inkscape.org/) -->

<svg
   xmlns:dc="http://purl.org/dc/elements/1.1/"
   xmlns:cc="http://creativecommons.org/ns#"
   xmlns:rdf="http://www.w3.org/1999/02/22-rdf-syntax-ns#"
   xmlns:svg="http://www.w3.org/2000/svg"
   xmlns="http://www.w3.org/2000/svg"
   xmlns:sodipodi="http://sodipodi.sourceforge.net/DTD/sodipodi-0.dtd"
   xmlns:inkscape="http://www.inkscape.org/namespaces/inkscape"
   version="1.1"
   id="svg1339"
   width="200"
   height="200"
   viewBox="0 0 200 200"
   sodipodi:docname="Professor2.svg"
   inkscape:version="0.92.2 (5c3e80d, 2017-08-06)">
  <metadata
     id="metadata1345">
    <rdf:RDF>
      <cc:Work
         rdf:about="">
        <dc:format>image/svg+xml</dc:format>
        <dc:type
           rdf:resource="http://purl.org/dc/dcmitype/StillImage" />
        <dc:title></dc:title>
      </cc:Work>
    </rdf:RDF>
  </metadata>
  <defs
     id="defs1343" />
  <sodipodi:namedview
     pagecolor="#ffffff"
     bordercolor="#666666"
     borderopacity="1"
     objecttolerance="10"
     gridtolerance="10"
     guidetolerance="10"
     inkscape:pageopacity="0"
     inkscape:pageshadow="2"
     inkscape:window-width="640"
     inkscape:window-height="480"
     id="namedview1341"
     showgrid="false"
     inkscape:zoom="1.18"
     inkscape:cx="100"
     inkscape:cy="100"
     inkscape:window-x="100"
     inkscape:window-y="146"
     inkscape:window-maximized="0"
     inkscape:current-layer="svg1339" />
  <path
     inkscape:connector-curvature="0"
     id="path1387"
     d="M -0.305082,100 V 0 h 100 100.000002 v 100 100 h -100.000002 -100 z"
     style="fill:#fdfdfd" />
  <path
     inkscape:connector-curvature="0"
     id="path1385"
     d="m 10.60098,195.0051 c 4.259978,-11.21134 10.350644,-18.46465 18.543133,-22.08279 4.758552,-2.10158 27.27817,-6.06787 30.16523,-5.31289 2.0596,0.5386 11.627488,-5.86143 16.163768,-10.81206 l 2.278193,-2.48628 -4.02266,-2.78771 c -5.679526,-3.93591 -11.889134,-10.94226 -14.072487,-15.87809 -1.023297,-2.31333 -2.164499,-7.11739 -2.536005,-10.67567 -0.607149,-5.81529 -0.991509,-6.67365 -3.800349,-8.48701 -2.181305,-1.40823 -3.611783,-3.52192 -4.737362,-7 -0.886862,-2.74043 -3.249362,-8.05747 -5.25,-11.815653 C 39.795115,91.022113 38.72311,85.392276 40.625322,83.45 41.587613,82.467441 40.900164,75.64172 38.690374,64.237789 37.356318,57.353206 37.94535,51.866976 40.22138,49.978038 41.031826,49.305428 41.694918,47.667284 41.694918,46.337717 41.694918,43.479482 45.315004,36 46.698396,36 c 0.529557,0 2.073288,-2.191383 3.430514,-4.869739 2.648748,-5.227054 7.6718,-10.126302 10.392733,-10.136584 0.920301,-0.0035 2.422179,-1.322696 3.337507,-2.931597 C 66.503697,13.413673 73.339651,9 77.894616,9 c 2.144792,0 5.339775,-0.7664696 7.099962,-1.7032658 4.589595,-2.4426467 24.811082,-2.4426467 29.400682,0 C 116.15545,8.2335304 119.35043,9 121.49522,9 c 4.5333,0 11.3741,4.399402 14.0262,9.020414 0.91023,1.585986 2.63695,3.130073 3.83716,3.431306 3.33315,0.836569 7.92662,5.132376 9.38626,8.778032 0.72014,1.798636 2.75665,4.907173 4.52557,6.907858 1.76893,2.000686 3.52736,5.150686 3.90764,7 0.38028,1.849315 1.61152,5.314637 2.73611,7.700716 1.89462,4.019925 1.95189,4.863939 0.78031,11.5 -2.3085,13.075727 -2.85523,19.062827 -1.9032,20.841697 1.33038,2.485849 -0.67782,10.565687 -3.7246,14.985613 -1.38975,2.016104 -3.30312,6.291104 -4.25192,9.500004 -1.30211,4.4038 -2.48267,6.32475 -4.81479,7.83436 -2.76606,1.7905 -3.16245,2.68086 -3.78423,8.5 -0.38199,3.575 -1.51534,8.37905 -2.51856,10.67567 -2.13851,4.8956 -8.34768,11.90571 -14.03865,15.84956 -2.21394,1.53425 -3.89895,3.14667 -3.74447,3.58314 0.15448,0.43648 3.37902,3.25883 7.16566,6.2719 4.54289,3.61483 7.77436,5.45672 9.5,5.41485 1.43836,-0.0349 5.09021,0.42196 8.11521,1.01524 3.025,0.59328 7.975,1.38197 11,1.75264 16.08699,1.97124 24.52598,9.02647 30.06946,25.1389 L 189.5872,200 H 99.145133 8.7030695 Z M 75.210231,91.975223 c 0.34834,-0.563627 0.0374,-0.901127 -0.690983,-0.75 C 73.591741,91.417666 73.229096,90.376347 73.308981,87.75 73.399419,84.776703 73.053897,84 71.640768,84 c -3.281303,0 -4.94585,1.194863 -4.94585,3.550285 0,3.766501 6.753354,7.275847 8.515313,4.424938 z M 130.69492,91 c 2.2828,-2.282799 2.52939,-4.070607 0.8,-5.8 -1.98673,-1.986729 -9.51136,-1.160017 -8.23524,0.904785 0.86161,1.394112 2.64193,1.052238 1.84755,-0.354785 -0.55186,-0.977487 -0.40908,-0.974442 0.65495,0.01397 1.07309,0.996821 1.12245,1.895079 0.23357,4.25 C 124.9891,92.6809 125.07309,93 126.78178,93 c 1.05223,0 2.81314,-0.9 3.91314,-2 z M 87.663252,90.059168 C 88.50174,88.49244 88.272878,87.8178 86.47593,86.559168 83.344073,84.36553 82.966241,84.550205 82.505125,88.5 c -0.360705,3.089702 -0.143199,3.5 1.85541,3.5 1.245209,0 2.731431,-0.873374 3.302717,-1.940832 z M 117.19492,88.1036 v -3.8964 l -2.68659,1.389288 c -1.47762,0.764109 -2.97886,1.862201 -3.33609,2.440205 C 110.22157,89.57491 112.60494,92 115.06736,92 c 1.80606,0 2.12756,-0.588799 2.12756,-3.8964 z M 81.194918,86 c -0.339919,-0.55 -1.068034,-1 -1.618034,-1 -0.55,0 -0.721885,0.45 -0.381966,1 0.339919,0.55 1.068034,1 1.618034,1 0.55,0 0.721885,-0.45 0.381966,-1 z"
     style="fill:#3386ac" />
  <path
     inkscape:connector-curvature="0"
     id="path1383"
     d="m 10.132834,197.25 c 2.330172,-9.78718 10.382368,-19.91803 18.9067,-23.78743 4.565022,-2.07218 21.794558,-5.41295 30.221704,-5.85993 3.186351,-0.169 10.78585,-5.1773 15.717812,-10.3585 l 2.784133,-2.92483 -4.028599,-2.79182 c -5.684977,-3.93969 -11.894255,-10.94453 -14.078427,-15.88221 -1.023297,-2.31333 -2.164499,-7.11739 -2.536005,-10.67567 -0.607149,-5.81529 -0.991509,-6.67365 -3.800349,-8.48701 -2.181305,-1.40823 -3.611783,-3.52192 -4.737362,-7 -0.886862,-2.74043 -3.249362,-8.05747 -5.25,-11.815653 C 39.795115,91.022113 38.72311,85.392276 40.625322,83.45 41.587613,82.467441 40.900164,75.64172 38.690374,64.237789 37.356318,57.353206 37.94535,51.866976 40.22138,49.978038 41.031826,49.305428 41.694918,47.667284 41.694918,46.337717 41.694918,43.479482 45.315004,36 46.698396,36 c 0.529557,0 2.073288,-2.191383 3.430514,-4.869739 2.648748,-5.227054 7.6718,-10.126302 10.392733,-10.136584 0.920301,-0.0035 2.422179,-1.322696 3.337507,-2.931597 C 66.503697,13.413673 73.339651,9 77.894616,9 c 2.144792,0 5.339775,-0.7664696 7.099962,-1.7032658 4.589595,-2.4426467 24.811082,-2.4426467 29.400682,0 C 116.15545,8.2335304 119.35043,9 121.49522,9 c 4.5333,0 11.3741,4.399402 14.0262,9.020414 0.91023,1.585986 2.63695,3.130073 3.83716,3.431306 3.33315,0.836569 7.92662,5.132376 9.38626,8.778032 0.72014,1.798636 2.75665,4.907173 4.52557,6.907858 1.76893,2.000686 3.52736,5.150686 3.90764,7 0.38028,1.849315 1.61152,5.314637 2.73611,7.700716 1.89462,4.019925 1.95189,4.863939 0.78031,11.5 -2.3085,13.075727 -2.85523,19.062827 -1.9032,20.841697 1.33038,2.485849 -0.67782,10.565687 -3.7246,14.985613 -1.38975,2.016104 -3.30312,6.291104 -4.25192,9.500004 -1.30211,4.4038 -2.48267,6.32475 -4.81479,7.83436 -2.76606,1.7905 -3.16245,2.68086 -3.78423,8.5 -0.38199,3.575 -1.51534,8.37905 -2.51856,10.67567 -2.13433,4.88602 -8.34512,11.90394 -14.00778,15.82816 -2.19696,1.5225 -3.99447,3.06637 -3.99447,3.43084 0,0.36446 3.13226,3.11576 6.96058,6.114 7.28957,5.70898 7.49022,5.77666 23.53942,7.93947 16.71847,2.253 24.06796,5.61665 29.48941,13.49646 2.71207,3.94186 7.01059,14.16421 7.01059,16.67195 0,2.42769 -1.8463,0.29878 -2.95434,-3.40655 -3.13643,-10.48838 -9.06978,-18.19884 -16.33686,-21.22995 -2.08516,-0.86973 -8.16016,-2.23988 -13.5,-3.04479 -11.36784,-1.71355 -12.96133,-1.79677 -11.6588,-0.60886 0.5225,0.47652 5.225,1.42264 10.45,2.1025 11.46099,1.49125 17.9647,4.08793 22.13498,8.83762 3.0978,3.5282 8.86272,14.54752 8.86423,16.94348 6.3e-4,0.99055 -18.28714,1.25 -88.10762,1.25 H 9.4781019 Z m 12.225469,-14.84672 c 4.936904,-4.9369 10.290219,-7.1199 22.29053,-9.08974 6.497543,-1.06656 9.756824,-2.0028 9.135445,-2.62418 -1.258203,-1.2582 -17.409759,1.66175 -23.403608,4.23102 -2.444569,1.04786 -6.072665,3.5332 -8.062435,5.52297 -3.526215,3.52622 -9.604549,13.05496 -9.604549,15.05665 0,0.55 1.347027,-1.34875 2.993392,-4.21944 1.646366,-2.8707 4.639417,-6.86547 6.651225,-8.87728 z m 59.336615,4.1224 c 0,-0.26088 -1.35,-1.17243 -3,-2.02568 -3.760883,-1.94483 -3.988441,-1.10011 -0.25,0.92803 3.142553,1.70486 3.25,1.74115 3.25,1.09765 z m 43.500002,-5.08313 c 3.3,-2.33635 7.55078,-5.8667 9.44617,-7.84522 2.02973,-2.11876 4.49584,-3.6533 6,-3.73351 2.42822,-0.12949 2.44047,-0.15785 0.24892,-0.57675 -1.665,-0.31825 -3.51128,0.67143 -6.65018,3.56477 -2.3899,2.20293 -7.20269,6.10498 -10.69509,8.67121 -10.28603,7.55824 -9.05439,7.49815 1.65018,-0.0805 z M 61.694918,172.5 c -3.015988,-3.11171 -8.082362,-5.06032 -6.5,-2.5 0.339919,0.55 1.413035,1 2.384703,1 0.971668,0 2.823552,1.125 4.115297,2.5 1.291745,1.375 2.583462,2.5 2.870481,2.5 0.287019,0 -1.004698,-1.575 -2.870481,-3.5 z M 75.210231,91.975223 c 0.34834,-0.563627 0.0374,-0.901127 -0.690983,-0.75 -0.927507,0.192443 -1.290152,-0.848876 -1.210267,-3.475223 0.11784,-3.874198 -1.117001,-4.645443 -5.032276,-3.143011 -2.03408,0.78055 -2.040171,4.791769 -0.01036,6.821582 1.77125,1.771251 5.982162,2.102752 6.943884,0.546652 z M 130.69492,91 c 2.2828,-2.282799 2.52939,-4.070607 0.8,-5.8 -1.98673,-1.986729 -9.51136,-1.160017 -8.23524,0.904785 0.86161,1.394112 2.64193,1.052238 1.84755,-0.354785 -0.55186,-0.977487 -0.40908,-0.974442 0.65495,0.01397 1.07309,0.996821 1.12245,1.895079 0.23357,4.25 C 124.9891,92.6809 125.07309,93 126.78178,93 c 1.05223,0 2.81314,-0.9 3.91314,-2 z M 87.663252,90.059168 C 88.50174,88.49244 88.272878,87.8178 86.47593,86.559168 83.344073,84.36553 82.966241,84.550205 82.505125,88.5 c -0.360705,3.089702 -0.143199,3.5 1.85541,3.5 1.245209,0 2.731431,-0.873374 3.302717,-1.940832 z M 117.19492,88.13917 c 0,-3.803868 -0.0417,-3.846277 -2.82957,-2.874437 -1.55626,0.542515 -3.0691,1.61062 -3.36187,2.373565 C 110.26089,89.573455 112.52175,92 115.06736,92 c 1.8027,0 2.12756,-0.589509 2.12756,-3.86083 z M 81.694918,86 c 0,-0.55 -0.701558,-1 -1.559017,-1 -0.857459,0 -1.280902,0.45 -0.940983,1 0.339919,0.55 1.041476,1 1.559017,1 0.517541,0 0.940983,-0.45 0.940983,-1 z"
     style="fill:#926049" />
  <path
     inkscape:connector-curvature="0"
     id="path1381"
     d="m 10.132834,197.25 c 2.330172,-9.78718 10.382368,-19.91803 18.9067,-23.78743 5.090773,-2.31083 24.32088,-5.90461 30.169517,-5.63817 2.280795,0.1039 4.896269,-1.33029 10.75,-5.89473 4.254727,-3.31762 7.735867,-6.3868 7.735867,-6.82039 0,-0.4336 -2.689867,-2.87722 -5.977483,-5.43029 C 62.680564,142.66123 58.914207,136.30764 57.492599,125.68267 56.560858,118.71891 56.001647,117 54.667881,117 c -2.441947,0 -4.708075,-2.9845 -5.497909,-7.24077 -0.381795,-2.05742 -2.235796,-6.30089 -4.120001,-9.42992 C 41.06055,93.70422 39.456224,87.758013 40.744168,84.370463 41.60798,82.098465 41.002797,75.685829 38.732658,63.056109 37.716811,57.404533 38.078601,54.254475 40.232178,50 c 0.696013,-1.375 1.767989,-4.379337 2.38217,-6.676304 0.657106,-2.457502 2.343942,-5.208966 4.098632,-6.68544 1.640066,-1.380025 2.981938,-3.145671 2.981938,-3.923657 0,-2.79515 5.884852,-9.543505 9.444968,-10.83086 1.955268,-0.707034 3.555032,-1.61059 3.555032,-2.007902 0,-0.397313 1.181606,-2.126645 2.625791,-3.842962 3.316087,-3.940946 9.91404,-7.3539963 13.055496,-6.7534689 1.323738,0.2530485 4.057126,-0.381298 6.074196,-1.4096589 4.982481,-2.5402133 24.436099,-2.6928505 30.026639,-0.2355954 2.04483,0.8987836 5.06788,1.5528914 6.71788,1.453573 3.76382,-0.2265557 11.63564,4.6404522 14.01207,8.6634132 0.95396,1.61493 3.27876,3.494659 5.16623,4.177177 3.28646,1.188397 9.3217,8.008943 9.3217,10.534632 0,0.639579 1.35718,2.463129 3.01595,4.052333 1.65877,1.589204 3.47177,4.710895 4.02889,6.937091 0.55711,2.226196 1.67493,5.24206 2.48405,6.701921 1.83438,3.309728 1.86714,13.990526 0.0584,19.056762 -0.72868,2.04108 -1.10597,4.856166 -0.83843,6.255747 0.26755,1.39958 -0.0477,3.188341 -0.70062,3.975023 -0.91442,1.101814 -0.91537,1.938003 -0.004,3.640679 1.81107,3.384 0.55581,10.302989 -2.83604,15.632351 -1.67502,2.631826 -3.80571,7.430096 -4.73487,10.662806 -1.37254,4.77532 -2.21177,6.07483 -4.47482,6.92904 -2.57255,0.97103 -2.86003,1.63566 -3.76137,8.69609 -0.53677,4.20458 -1.75378,9.28389 -2.70449,11.28735 -1.92763,4.06219 -7.96831,10.70121 -14.02399,15.41311 -3.90045,3.03493 -3.95006,3.15143 -2.17634,5.11137 4.02864,4.4516 13.51746,10.48451 16.81034,10.68787 6.71009,0.41441 20.4868,2.59992 25.85743,4.10198 10.57333,2.95714 17.06155,9.44823 21.05968,21.069 2.16376,6.28907 2.31932,7.32653 1.09861,7.32653 -0.46294,0 -1.41363,-1.9125 -2.11263,-4.25 -3.13643,-10.48838 -9.06978,-18.19884 -16.33686,-21.22995 -2.08516,-0.86973 -8.16016,-2.23988 -13.5,-3.04479 -11.36784,-1.71355 -12.96133,-1.79677 -11.6588,-0.60886 0.5225,0.47652 5.225,1.42264 10.45,2.1025 11.46099,1.49125 17.9647,4.08793 22.13498,8.83762 3.0978,3.5282 8.86272,14.54752 8.86423,16.94348 6.3e-4,0.99055 -18.28714,1.25 -88.10762,1.25 H 9.4781919 l 0.6547321,-2.75 z m 12.225469,-14.84672 c 4.936904,-4.9369 10.290219,-7.1199 22.29053,-9.08974 6.497543,-1.06656 9.756824,-2.0028 9.135445,-2.62418 -1.258203,-1.2582 -17.409759,1.66175 -23.403608,4.23102 -2.444569,1.04786 -6.072665,3.5332 -8.062435,5.52297 -3.526215,3.52622 -9.604549,13.05496 -9.604549,15.05665 0,0.55 1.347027,-1.34875 2.993392,-4.21944 1.646366,-2.8707 4.639417,-6.86547 6.651225,-8.87728 z m 88.836617,5.27714 c 3.3,-2.20867 7.125,-4.88333 8.5,-5.94368 l 2.5,-1.92792 -5,0.68377 c -2.75,0.37607 -6.40133,1.04093 -8.11406,1.47745 l -3.11405,0.79367 2.11405,-5.04186 c 2.0016,-4.77366 2.12993,-4.88455 2.41231,-2.08448 l 0.29824,2.9574 5.70176,-0.713 c 3.13596,-0.39215 6.60175,-0.75386 7.70175,-0.80379 1.1,-0.0499 4.29727,-1.95079 7.10505,-4.22413 l 5.10506,-4.13334 -8.52132,-6.42693 c -9.70637,-7.32073 -10.03625,-7.34998 -19.3196,-1.7128 -7.07542,4.29644 -10.626043,4.35569 -17.237474,0.28763 -2.799214,-1.72237 -6.597781,-3.65377 -8.44126,-4.292 -3.127369,-1.08272 -3.576924,-0.94808 -6.714504,2.01104 -1.849499,1.7443 -6.102023,5.00069 -9.450054,7.23642 l -6.087329,4.06496 5.280715,3.93263 c 4.929562,3.67112 5.871628,3.97825 14.167034,4.61881 l 8.886319,0.68618 -0.594932,-6.31322 -0.594932,-6.31323 2.34637,7.26229 c 1.290503,3.99426 2.959379,8.01602 3.708612,8.93723 1.206958,1.48401 1.134258,1.58878 -0.637757,0.91909 -3.94204,-1.48981 -14.773968,-3.71159 -16.371278,-3.35798 -0.895797,0.19831 4.221278,3.32214 11.371278,6.94184 14.501762,7.34155 12.797932,7.30615 23.000002,0.47795 z m -13.932964,-1.57195 c -0.303048,-0.49034 0.998368,-1.07241 2.892034,-1.29349 2.72963,-0.31866 3.2206,-0.13394 2.36954,0.89154 -1.22901,1.48086 -4.443023,1.72639 -5.261574,0.40195 z m -15.567038,0.41721 c 0,-0.26088 -1.35,-1.17243 -3,-2.02568 -3.760883,-1.94483 -3.988441,-1.10011 -0.25,0.92803 3.142553,1.70486 3.25,1.74115 3.25,1.09765 z m 43.500002,-5.08313 c 3.3,-2.33635 7.55078,-5.8667 9.44617,-7.84522 2.02973,-2.11876 4.49584,-3.6533 6,-3.73351 2.42822,-0.12949 2.44047,-0.15785 0.24892,-0.57675 -1.665,-0.31825 -3.51128,0.67143 -6.65018,3.56477 -2.3899,2.20293 -7.20269,6.10498 -10.69509,8.67121 -10.28603,7.55824 -9.05439,7.49815 1.65018,-0.0805 z M 61.694918,172.5 c -3.015988,-3.11171 -8.082362,-5.06032 -6.5,-2.5 0.339919,0.55 1.413035,1 2.384703,1 0.971668,0 2.823552,1.125 4.115297,2.5 1.291745,1.375 2.583462,2.5 2.870481,2.5 0.287019,0 -1.004698,-1.575 -2.870481,-3.5 z m 31.8,-26.7 c 0.66,-0.66 1.2,-2.59899 1.2,-4.30887 0,-4.02841 1.728471,-6.10209 5.694152,-6.83138 3.16136,-0.58138 3.20062,-0.53902 3.82465,4.12642 0.83918,6.27397 1.1704,7.15733 2.93803,7.83564 3.5716,1.37055 17.99354,-8.72448 21.13065,-14.79098 0.84442,-1.63293 2.18161,-6.42539 2.97153,-10.6499 0.83507,-4.466 2.99677,-10.78888 5.16462,-15.10628 2.05062,-4.08394 4.54139,-10.383939 5.53504,-13.999998 C 142.94724,88.458593 144.27918,83.7 144.91345,81.5 c 0.63426,-2.2 1.10147,-7.754771 1.03824,-12.343936 -0.0996,-7.225549 -0.45956,-8.841184 -2.68587,-12.05375 -1.41399,-2.040399 -2.5709,-4.405863 -2.5709,-5.256589 C 140.69492,50.191229 131.54136,44 129.09523,44 c -0.80674,0 -3.7011,1.132205 -6.4319,2.51601 -2.73081,1.383806 -6.20335,2.426532 -7.71676,2.317171 -1.51341,-0.109362 -3.66818,0.297907 -4.78839,0.905042 -2.60971,1.414418 -17.938249,1.43705 -21.35581,0.03153 -1.434098,-0.589791 -3.507452,-0.987639 -4.607452,-0.884105 -1.1,0.103535 -4.153128,-1.178381 -6.784728,-2.848702 -5.908008,-3.74991 -7.349967,-3.775905 -11.737428,-0.211598 -1.912814,1.553941 -4.265344,3.114818 -5.227844,3.468615 -0.9625,0.353797 -1.75,1.420703 -1.75,2.370902 0,0.950198 -1.182678,3.434239 -2.628174,5.52009 -2.302399,3.322362 -2.63544,4.816483 -2.686795,12.05375 C 53.347708,73.782417 53.839168,79.3 54.472084,81.5 c 0.632916,2.2 1.876483,6.925 2.763482,10.5 0.886999,3.575 2.048273,7.313509 2.580608,8.3078 5.002316,9.34326 6.91638,14.21148 7.939074,20.1922 0.658344,3.85 2.020279,8.6327 3.026523,10.62821 2.203141,4.36913 9.449836,10.93843 15.213541,13.79143 4.858476,2.40492 5.857745,2.52222 7.499606,0.88036 z m -0.3,-13.59752 c -10.190261,-0.53039 -8.914405,-2.22995 1.591236,-2.11968 5.229536,0.0549 11.687436,-0.22698 14.350896,-0.62639 3.41693,-0.5124 4.64319,-0.40348 4.16518,0.36996 -1.08273,1.75189 -10.56708,2.87267 -20.107312,2.37611 z m 3.5,-14.09315 c -3.311233,-0.91565 -3.560541,-3.50848 -1.053049,-10.95186 1.129177,-3.35191 2.091728,-8.021075 2.139002,-10.375925 0.08428,-4.198294 0.104865,-4.223213 1.058614,-1.281545 0.534964,1.65 0.721464,7.00411 0.414445,11.89802 -0.36954,5.8905 -0.178966,9.35498 0.563828,10.25 1.210652,1.45874 0.737142,1.52869 -3.12284,0.46131 z m -28,-25.15502 c -1.095458,-0.741306 -0.690916,-0.834084 1.5,-0.34401 3.676928,0.822471 4.475114,1.394827 1.916667,1.374387 -1.054167,-0.0084 -2.591667,-0.472091 -3.416667,-1.030377 z M 75.984667,92 c -0.287656,-1.1 -1.145528,-2 -1.90638,-2 -1.858033,0 -1.745454,-2.038039 0.271657,-4.917868 l 1.655025,-2.36288 -3.897409,0.731159 c -4.943709,0.927445 -5.412642,1.240817 -5.412642,3.61708 0,1.707038 -0.253948,1.792963 -2.042176,0.690983 -2.019313,-1.244385 -2.013091,-1.283664 0.555763,-3.508474 1.897742,-1.643579 3.997894,-2.292343 7.792177,-2.407104 l 5.194236,-0.157103 -5,-0.685793 c -4.866778,-0.66752 -4.893422,-0.688999 -1,-0.806141 6.532311,-0.196538 17.404394,2.293133 18.890815,4.325934 1.590176,2.174696 1.076104,4.747676 -1.395459,6.98441 -1.70725,1.54504 -1.796843,1.454615 -1.650305,-1.665639 0.142005,-3.023743 -0.196833,-3.422619 -4.056004,-4.774681 -2.316025,-0.811421 -4.51765,-1.168613 -4.892501,-0.793762 -0.994341,0.994341 1.643577,3.823115 2.862604,3.069716 0.66519,-0.41111 0.801937,0.280637 0.384368,1.944363 -0.536971,2.139464 -0.26177,2.656123 1.604157,3.01162 1.533904,0.29224 1.375161,0.368741 -0.497675,0.23984 -1.5125,-0.104101 -2.75,0.182789 -2.75,0.637533 0,1.798212 -4.207245,0.750304 -4.710251,-1.173193 z m 39.710253,1.31731 c -3.62166,-0.594423 -8,-2.4316 -8,-3.356843 0,-0.438291 -0.24006,-1.422478 -0.53347,-2.187083 -0.2934,-0.764605 0.30228,-2.353808 1.32374,-3.531563 1.95127,-2.249835 11.3721,-4.362735 18.20973,-4.084073 3.27577,0.133501 3.21171,0.18746 -1,0.842252 l -4.5,0.699613 4.29966,0.150193 c 3.93623,0.137499 10.20034,2.438748 10.20034,3.747303 0,0.300161 -0.675,1.220748 -1.5,2.045748 -1.33333,1.333333 -1.5,1.276399 -1.5,-0.512411 0,-2.487602 -0.62795,-2.887411 -5.84538,-3.721712 -3.69467,-0.590802 -4.15462,-0.445704 -4.15462,1.310643 0,1.086247 0.93289,2.391262 2.07309,2.900033 l 2.07309,0.925038 -2.14567,2.727776 c -2.0946,2.662856 -3.41235,2.962273 -9.00051,2.045086 z m 4,-2.376327 c 0,-0.517541 -0.675,-0.940983 -1.5,-0.940983 -1.79439,0 -1.98884,-3.111163 -0.3,-4.8 1.76668,-1.766684 -0.57999,-1.571982 -4.31165,0.357734 -4.29362,2.220317 -3.69243,5.734907 1.11165,6.498794 3.80471,0.604979 5,0.338299 5,-1.115545 z m 5,2.672516 c 0,-0.212575 1.32623,-0.58115 2.94719,-0.819056 1.62095,-0.237905 2.71939,-0.06398 2.44098,0.386501 -0.49551,0.80176 -5.38817,1.194536 -5.38817,0.432555 z M 61.694918,81.178041 c 0,-2.223883 4.380361,-4.407626 10.661029,-5.314846 12.734641,-1.839474 16.833998,-2.572975 18.588971,-3.326141 1.218058,-0.522743 1.75,-0.29978 1.75,0.733512 0,3.110206 -3.167766,4.15087 -14.523759,4.771295 -8.117249,0.443479 -12.037018,1.095555 -13.892054,2.31102 -1.421303,0.931274 -2.584187,1.302596 -2.584187,0.82516 z m 73.178452,-0.956834 c -1.58637,-1.066096 -5.90653,-1.756031 -13.64206,-2.178656 -11.26058,-0.615213 -14.53639,-1.666479 -14.53639,-4.664996 0,-1.657067 -0.38147,-1.665002 4.5,0.09361 2.2,0.792577 6.11535,1.460802 8.70078,1.484943 7.01099,0.06546 14.37322,1.915685 16.36049,4.1116 2.28909,2.529413 1.56425,3.134044 -1.38282,1.153499 z M 54.52138,112.25 c -0.556778,-2.0625 -1.385339,-4.14233 -1.841248,-4.62186 -0.455908,-0.47952 -0.608411,-1.4465 -0.338895,-2.14884 0.269515,-0.70235 0.0145,-1.57089 -0.566691,-1.93009 -0.656821,-0.40594 -0.840944,0.0288 -0.486539,1.14885 0.509335,1.60965 0.401398,1.59479 -1.011454,-0.13919 -0.869899,-1.06762 -1.581635,-1.43168 -1.581635,-0.80902 0,0.62267 0.480678,1.42919 1.068174,1.79228 0.587495,0.3631 0.81765,1.31303 0.511454,2.11096 -0.340547,0.88745 -0.13127,1.18784 0.53896,0.77362 0.73679,-0.45536 0.86729,0.0424 0.398413,1.51972 -0.465322,1.46611 -0.116756,2.83835 1.047854,4.12523 2.645194,2.92291 3.382169,2.3293 2.261607,-1.82166 z m 93.67036,-0.23999 c 0.34775,-1.09566 0.35953,-2.43343 0.0262,-2.97282 -0.33336,-0.53938 0.20009,-2.21351 1.18545,-3.72027 0.98536,-1.50676 1.27621,-2.42206 0.64634,-2.03399 -1.45261,0.89497 -2.35615,-1.38496 -1.75818,-4.436478 L 148.75134,96.5 l -1.03015,2.342353 c -0.56658,1.288297 -0.76554,2.770507 -0.44212,3.293807 0.32342,0.5233 -0.0132,1.71924 -0.74806,2.65764 -1.20343,1.53679 -1.16233,1.56993 0.41391,0.33376 1.04678,-0.82094 1.75,-0.94419 1.75,-0.30671 0,0.58616 -0.86138,1.66907 -1.91417,2.40648 -1.0528,0.73741 -2.23677,3.06032 -2.63105,5.16202 -0.68204,3.6356 -0.61661,3.76763 1.34645,2.71703 1.13483,-0.60734 2.34784,-2.00071 2.69559,-3.09637 z M 51.076475,99.448062 c 0.341496,-0.889925 0.173849,-1.291322 -0.393011,-0.940983 -0.5437,0.336025 -0.988546,1.034397 -0.988546,1.551941 0,1.43843 0.716766,1.12146 1.381557,-0.610958 z M 49.118649,91 c 0.505853,-2.114505 0.372052,-2.037406 -0.867724,0.5 -1.635449,3.347217 -2.079564,2.007259 -0.613105,-1.849822 0.736755,-1.937812 0.596147,-2.613084 -0.643128,-3.088638 -2.467961,-0.947046 -2.79457,0.1394 -1.498582,4.984953 0.659344,2.465215 1.250558,5.488251 1.313807,6.717858 0.07698,1.496556 0.378757,1.078569 0.912828,-1.264351 0.438805,-1.925 1.066962,-4.625 1.395904,-6 z M 153.59524,90.25 c 0.10756,-4.585786 -1.1553,-5.510602 -2.94878,-2.159455 -0.8424,1.57405 -0.7909,3.201164 0.20848,6.585853 1.16396,3.942067 1.40812,4.207833 1.98396,2.159456 0.36117,-1.28472 0.70152,-4.248354 0.75634,-6.585854 z m -2.32889,2.178571 c -0.36782,-1.465513 -0.44377,-2.889569 -0.16877,-3.164569 0.275,-0.275 0.80095,0.699056 1.16877,2.164569 0.36782,1.465513 0.44376,2.889569 0.16876,3.164569 -0.275,0.275 -0.80094,-0.699056 -1.16876,-2.164569 z"
     style="fill:#1c769f" />
  <path
     inkscape:connector-curvature="0"
     id="path1379"
     d="m 9.695328,198.97179 c -8.279e-4,-3.08568 6.897583,-15.80312 10.557445,-19.46298 2.07305,-2.07305 6.058098,-4.80363 8.855663,-6.06796 4.820303,-2.17848 25.156393,-5.89596 30.586482,-5.59128 1.67146,0.0938 5.068475,-1.8635 10.25,-5.90583 4.2625,-3.32536 7.75,-6.40087 7.75,-6.83446 0,-0.4336 -2.689867,-2.87722 -5.977483,-5.43029 C 62.680564,142.66123 58.914207,136.30764 57.492599,125.68267 56.560858,118.71891 56.001647,117 54.667881,117 c -2.441947,0 -4.708075,-2.9845 -5.497909,-7.24077 -0.381795,-2.05742 -2.235796,-6.30089 -4.120001,-9.42992 C 41.06055,93.70422 39.456224,87.758013 40.744168,84.370463 41.60798,82.098465 41.002797,75.685829 38.732658,63.056109 37.716811,57.404533 38.078601,54.254475 40.232178,50 c 0.696013,-1.375 1.767989,-4.379337 2.38217,-6.676304 0.657106,-2.457502 2.343942,-5.208966 4.098632,-6.68544 1.640066,-1.380025 2.981938,-3.145671 2.981938,-3.923657 0,-2.79515 5.884852,-9.543505 9.444968,-10.83086 1.955268,-0.707034 3.555032,-1.61059 3.555032,-2.007902 0,-0.397313 1.181606,-2.126645 2.625791,-3.842962 3.316087,-3.940946 9.91404,-7.3539963 13.055496,-6.7534689 1.323738,0.2530485 4.057126,-0.381298 6.074196,-1.4096589 4.982481,-2.5402133 24.436099,-2.6928505 30.026639,-0.2355954 2.04483,0.8987836 5.06788,1.5528914 6.71788,1.453573 3.76382,-0.2265557 11.63564,4.6404522 14.01207,8.6634132 0.95396,1.61493 3.27876,3.494659 5.16623,4.177177 3.28646,1.188397 9.3217,8.008943 9.3217,10.534632 0,0.639579 1.35718,2.463129 3.01595,4.052333 1.65877,1.589204 3.47177,4.710895 4.02889,6.937091 0.55711,2.226196 1.67493,5.24206 2.48405,6.701921 1.83438,3.309728 1.86714,13.990526 0.0584,19.056762 -0.72868,2.04108 -1.10597,4.856166 -0.83843,6.255747 0.26755,1.39958 -0.0477,3.188341 -0.70062,3.975023 -0.91442,1.101814 -0.91537,1.938003 -0.004,3.640679 1.81107,3.384 0.55581,10.302989 -2.83604,15.632351 -1.67502,2.631826 -3.80571,7.430096 -4.73487,10.662806 -1.37254,4.77532 -2.21177,6.07483 -4.47482,6.92904 -2.57255,0.97103 -2.86003,1.63566 -3.76137,8.69609 -0.53677,4.20458 -1.75378,9.28389 -2.70449,11.28735 -1.92763,4.06219 -7.96831,10.70121 -14.02399,15.41311 -3.90045,3.03493 -3.95006,3.15143 -2.17634,5.11137 3.61841,3.9983 13.54954,10.50705 16.32539,10.69947 1.56331,0.10837 8.01479,0.92937 14.33663,1.82444 13.20087,1.86903 22.40931,5.70187 26.46098,11.01388 2.93953,3.85393 7.18737,12.9558 8.00277,17.14759 0.67044,3.44657 0.82448,3.72683 -4.63844,-8.43898 -5.34075,-11.89354 -11.49528,-15.7017 -29.81965,-18.45109 l -9.5,-1.42538 -5.5,5.27773 c -3.025,2.90275 -8.09143,7.35017 -11.25874,9.88315 -6.21647,4.97147 -20.74126,14.9823 -20.74126,14.29536 0,-0.23108 4.8375,-3.98519 10.75,-8.34246 5.9125,-4.35727 14.07147,-10.79778 18.13105,-14.31223 6.73768,-5.83294 7.20087,-6.47033 5.31384,-7.31234 -1.73476,-0.77407 -3.17506,0.0817 -8.95594,5.32148 -3.7888,3.43414 -12.70503,10.13754 -19.81384,14.89644 -7.10881,4.7589 -12.812612,9.20509 -12.675112,9.88043 0.1375,0.67534 -0.02542,1.22789 -0.362044,1.22789 -0.336624,0 -7.179493,-3.23587 -15.206376,-7.19081 -12.578156,-6.19742 -15.567394,-8.14895 -21.637956,-14.12636 -6.668331,-6.566 -6.715921,-6.64348 -0.893185,-1.45413 6.510371,5.80218 17.471741,12.54723 28.534527,17.55863 5.746651,2.60321 6.939506,2.84214 8.498427,1.70223 0.997405,-0.72932 1.589167,-1.53852 1.315035,-1.79821 -0.274136,-0.2597 -6.032844,-3.21495 -12.79713,-6.56723 -13.882405,-6.87991 -19.039375,-10.21815 -24.461662,-15.83463 l -3.760363,-3.89504 -10.606485,1.76122 c -5.833567,0.96867 -12.790511,2.48664 -15.459876,3.37326 -7.375976,2.4499 -13.945703,8.98945 -18.789249,18.70292 -2.267564,4.54748 -4.123027,7.58045 -4.123253,6.73994 z M 111.19492,187.68042 c 3.3,-2.20867 7.125,-4.88333 8.5,-5.94368 l 2.5,-1.92792 -5,0.68377 c -2.75,0.37607 -6.40133,1.04093 -8.11406,1.47745 l -3.11405,0.79367 2.11405,-5.04186 c 2.0016,-4.77366 2.12993,-4.88455 2.41231,-2.08448 l 0.29824,2.9574 5.70176,-0.713 c 3.13596,-0.39215 6.60175,-0.75386 7.70175,-0.80379 1.1,-0.0499 4.29727,-1.95079 7.10505,-4.22413 l 5.10506,-4.13334 -8.52132,-6.42693 c -9.70637,-7.32073 -10.03625,-7.34998 -19.3196,-1.7128 -7.07542,4.29644 -10.626043,4.35569 -17.237474,0.28763 -2.799214,-1.72237 -6.597781,-3.65377 -8.44126,-4.292 -3.127369,-1.08272 -3.576924,-0.94808 -6.714504,2.01104 -1.849499,1.7443 -6.102023,5.00069 -9.450054,7.23642 l -6.087329,4.06496 5.280715,3.93263 c 4.929562,3.67112 5.871628,3.97825 14.167034,4.61881 l 8.886319,0.68618 -0.594932,-6.31322 -0.594932,-6.31323 2.34637,7.26229 c 1.290503,3.99426 2.959379,8.01602 3.708612,8.93723 1.206958,1.48401 1.134258,1.58878 -0.637757,0.91909 -3.94204,-1.48981 -14.773968,-3.71159 -16.371278,-3.35798 -0.895797,0.19831 4.221278,3.32214 11.371278,6.94184 14.501762,7.34155 12.797932,7.30615 23.000002,0.47795 z m -13.932964,-1.57195 c -0.303048,-0.49034 0.998368,-1.07241 2.892034,-1.29349 2.72963,-0.31866 3.2206,-0.13394 2.36954,0.89154 -1.22901,1.48086 -4.443023,1.72639 -5.261574,0.40195 z M 93.494918,145.8 c 0.66,-0.66 1.2,-2.59899 1.2,-4.30887 0,-4.02841 1.728471,-6.10209 5.694152,-6.83138 3.16136,-0.58138 3.20062,-0.53902 3.82465,4.12642 0.83918,6.27397 1.1704,7.15733 2.93803,7.83564 3.5716,1.37055 17.99354,-8.72448 21.13065,-14.79098 0.84442,-1.63293 2.18161,-6.42539 2.97153,-10.6499 0.83507,-4.466 2.99677,-10.78888 5.16462,-15.10628 2.05062,-4.08394 4.54139,-10.383939 5.53504,-13.999998 C 142.94724,88.458593 144.27918,83.7 144.91345,81.5 c 0.63426,-2.2 1.10147,-7.754771 1.03824,-12.343936 -0.0996,-7.225549 -0.45956,-8.841184 -2.68587,-12.05375 -1.41399,-2.040399 -2.5709,-4.405863 -2.5709,-5.256589 C 140.69492,50.191229 131.54136,44 129.09523,44 c -0.80674,0 -3.7011,1.132205 -6.4319,2.51601 -2.73081,1.383806 -6.20335,2.426532 -7.71676,2.317171 -1.51341,-0.109362 -3.66818,0.297907 -4.78839,0.905042 -2.60971,1.414418 -17.938249,1.43705 -21.35581,0.03153 -1.434098,-0.589791 -3.507452,-0.987639 -4.607452,-0.884105 -1.1,0.103535 -4.153128,-1.178381 -6.784728,-2.848702 -5.908008,-3.74991 -7.349967,-3.775905 -11.737428,-0.211598 -1.912814,1.553941 -4.265344,3.114818 -5.227844,3.468615 -0.9625,0.353797 -1.75,1.420703 -1.75,2.370902 0,0.950198 -1.182678,3.434239 -2.628174,5.52009 -2.302399,3.322362 -2.63544,4.816483 -2.686795,12.05375 C 53.347708,73.782417 53.839168,79.3 54.472084,81.5 c 0.632916,2.2 1.876483,6.925 2.763482,10.5 0.886999,3.575 2.048273,7.313509 2.580608,8.3078 5.002316,9.34326 6.91638,14.21148 7.939074,20.1922 0.658344,3.85 2.020279,8.6327 3.026523,10.62821 2.203141,4.36913 9.449836,10.93843 15.213541,13.79143 4.858476,2.40492 5.857745,2.52222 7.499606,0.88036 z m -0.3,-13.59752 c -10.190261,-0.53039 -8.914405,-2.22995 1.591236,-2.11968 5.229536,0.0549 11.687436,-0.22698 14.350896,-0.62639 3.41693,-0.5124 4.64319,-0.40348 4.16518,0.36996 -1.08273,1.75189 -10.56708,2.87267 -20.107312,2.37611 z m 3.5,-14.09315 c -3.311233,-0.91565 -3.560541,-3.50848 -1.053049,-10.95186 1.129177,-3.35191 2.091728,-8.021075 2.139002,-10.375925 0.08428,-4.198294 0.104865,-4.223213 1.058614,-1.281545 0.534964,1.65 0.721464,7.00411 0.414445,11.89802 -0.36954,5.8905 -0.178966,9.35498 0.563828,10.25 1.210652,1.45874 0.737142,1.52869 -3.12284,0.46131 z m -28,-25.15502 c -1.095458,-0.741306 -0.690916,-0.834084 1.5,-0.34401 3.676928,0.822471 4.475114,1.394827 1.916667,1.374387 -1.054167,-0.0084 -2.591667,-0.472091 -3.416667,-1.030377 z M 75.984667,92 c -0.287656,-1.1 -1.145528,-2 -1.90638,-2 -1.858033,0 -1.745454,-2.038039 0.271657,-4.917868 l 1.655025,-2.36288 -3.897409,0.731159 c -4.943709,0.927445 -5.412642,1.240817 -5.412642,3.61708 0,1.707038 -0.253948,1.792963 -2.042176,0.690983 -2.019313,-1.244385 -2.013091,-1.283664 0.555763,-3.508474 1.897742,-1.643579 3.997894,-2.292343 7.792177,-2.407104 l 5.194236,-0.157103 -5,-0.685793 c -4.866778,-0.66752 -4.893422,-0.688999 -1,-0.806141 6.532311,-0.196538 17.404394,2.293133 18.890815,4.325934 1.590176,2.174696 1.076104,4.747676 -1.395459,6.98441 -1.70725,1.54504 -1.796843,1.454615 -1.650305,-1.665639 0.142005,-3.023743 -0.196833,-3.422619 -4.056004,-4.774681 -2.316025,-0.811421 -4.51765,-1.168613 -4.892501,-0.793762 -0.994341,0.994341 1.643577,3.823115 2.862604,3.069716 0.66519,-0.41111 0.801937,0.280637 0.384368,1.944363 -0.536971,2.139464 -0.26177,2.656123 1.604157,3.01162 1.533904,0.29224 1.375161,0.368741 -0.497675,0.23984 -1.5125,-0.104101 -2.75,0.182789 -2.75,0.637533 0,1.798212 -4.207245,0.750304 -4.710251,-1.173193 z m 39.710253,1.31731 c -3.62166,-0.594423 -8,-2.4316 -8,-3.356843 0,-0.438291 -0.24006,-1.422478 -0.53347,-2.187083 -0.2934,-0.764605 0.30228,-2.353808 1.32374,-3.531563 1.95127,-2.249835 11.3721,-4.362735 18.20973,-4.084073 3.27577,0.133501 3.21171,0.18746 -1,0.842252 l -4.5,0.699613 4.29966,0.150193 c 3.93623,0.137499 10.20034,2.438748 10.20034,3.747303 0,0.300161 -0.675,1.220748 -1.5,2.045748 -1.33333,1.333333 -1.5,1.276399 -1.5,-0.512411 0,-2.487602 -0.62795,-2.887411 -5.84538,-3.721712 -3.69467,-0.590802 -4.15462,-0.445704 -4.15462,1.310643 0,1.086247 0.93289,2.391262 2.07309,2.900033 l 2.07309,0.925038 -2.14567,2.727776 c -2.0946,2.662856 -3.41235,2.962273 -9.00051,2.045086 z m 4,-2.376327 c 0,-0.517541 -0.675,-0.940983 -1.5,-0.940983 -1.79439,0 -1.98884,-3.111163 -0.3,-4.8 1.76668,-1.766684 -0.57999,-1.571982 -4.31165,0.357734 -4.29362,2.220317 -3.69243,5.734907 1.11165,6.498794 3.80471,0.604979 5,0.338299 5,-1.115545 z m 5,2.672516 c 0,-0.212575 1.32623,-0.58115 2.94719,-0.819056 1.62095,-0.237905 2.71939,-0.06398 2.44098,0.386501 -0.49551,0.80176 -5.38817,1.194536 -5.38817,0.432555 z M 61.694918,81.178041 c 0,-2.223883 4.380361,-4.407626 10.661029,-5.314846 12.734641,-1.839474 16.833998,-2.572975 18.588971,-3.326141 1.218058,-0.522743 1.75,-0.29978 1.75,0.733512 0,3.110206 -3.167766,4.15087 -14.523759,4.771295 -8.117249,0.443479 -12.037018,1.095555 -13.892054,2.31102 -1.421303,0.931274 -2.584187,1.302596 -2.584187,0.82516 z m 73.178452,-0.956834 c -1.58637,-1.066096 -5.90653,-1.756031 -13.64206,-2.178656 -11.26058,-0.615213 -14.53639,-1.666479 -14.53639,-4.664996 0,-1.657067 -0.38147,-1.665002 4.5,0.09361 2.2,0.792577 6.11535,1.460802 8.70078,1.484943 7.01099,0.06546 14.37322,1.915685 16.36049,4.1116 2.28909,2.529413 1.56425,3.134044 -1.38282,1.153499 z M 54.52138,112.25 c -0.556778,-2.0625 -1.385339,-4.14233 -1.841248,-4.62186 -0.455908,-0.47952 -0.608411,-1.4465 -0.338895,-2.14884 0.269515,-0.70235 0.0145,-1.57089 -0.566691,-1.93009 -0.656821,-0.40594 -0.840944,0.0288 -0.486539,1.14885 0.509335,1.60965 0.401398,1.59479 -1.011454,-0.13919 -0.869899,-1.06762 -1.581635,-1.43168 -1.581635,-0.80902 0,0.62267 0.480678,1.42919 1.068174,1.79228 0.587495,0.3631 0.81765,1.31303 0.511454,2.11096 -0.340547,0.88745 -0.13127,1.18784 0.53896,0.77362 0.73679,-0.45536 0.86729,0.0424 0.398413,1.51972 -0.465322,1.46611 -0.116756,2.83835 1.047854,4.12523 2.645194,2.92291 3.382169,2.3293 2.261607,-1.82166 z m 93.67036,-0.23999 c 0.34775,-1.09566 0.35953,-2.43343 0.0262,-2.97282 -0.33336,-0.53938 0.20009,-2.21351 1.18545,-3.72027 0.98536,-1.50676 1.27621,-2.42206 0.64634,-2.03399 -1.45261,0.89497 -2.35615,-1.38496 -1.75818,-4.436478 L 148.75134,96.5 l -1.03015,2.342353 c -0.56658,1.288297 -0.76554,2.770507 -0.44212,3.293807 0.32342,0.5233 -0.0132,1.71924 -0.74806,2.65764 -1.20343,1.53679 -1.16233,1.56993 0.41391,0.33376 1.04678,-0.82094 1.75,-0.94419 1.75,-0.30671 0,0.58616 -0.86138,1.66907 -1.91417,2.40648 -1.0528,0.73741 -2.23677,3.06032 -2.63105,5.16202 -0.68204,3.6356 -0.61661,3.76763 1.34645,2.71703 1.13483,-0.60734 2.34784,-2.00071 2.69559,-3.09637 z M 51.076475,99.448062 c 0.341496,-0.889925 0.173849,-1.291322 -0.393011,-0.940983 -0.5437,0.336025 -0.988546,1.034397 -0.988546,1.551941 0,1.43843 0.716766,1.12146 1.381557,-0.610958 z M 49.118649,91 c 0.505853,-2.114505 0.372052,-2.037406 -0.867724,0.5 -1.635449,3.347217 -2.079564,2.007259 -0.613105,-1.849822 0.736755,-1.937812 0.596147,-2.613084 -0.643128,-3.088638 -2.467961,-0.947046 -2.79457,0.1394 -1.498582,4.984953 0.659344,2.465215 1.250558,5.488251 1.313807,6.717858 0.07698,1.496556 0.378757,1.078569 0.912828,-1.264351 0.438805,-1.925 1.066962,-4.625 1.395904,-6 z M 153.59524,90.25 c 0.10756,-4.585786 -1.1553,-5.510602 -2.94878,-2.159455 -0.8424,1.57405 -0.7909,3.201164 0.20848,6.585853 1.16396,3.942067 1.40812,4.207833 1.98396,2.159456 0.36117,-1.28472 0.70152,-4.248354 0.75634,-6.585854 z m -2.32889,2.178571 c -0.36782,-1.465513 -0.44377,-2.889569 -0.16877,-3.164569 0.275,-0.275 0.80095,0.699056 1.16877,2.164569 0.36782,1.465513 0.44376,2.889569 0.16876,3.164569 -0.275,0.275 -0.80094,-0.699056 -1.16876,-2.164569 z"
     style="fill:#845037" />
  <path
     inkscape:connector-curvature="0"
     id="path1377"
     d="m 9.695328,198.97179 c -8.279e-4,-3.08568 6.897583,-15.80312 10.557445,-19.46298 2.07305,-2.07305 6.058098,-4.80363 8.855663,-6.06796 4.776896,-2.15886 25.208212,-5.91201 30.436247,-5.59101 1.292371,0.0794 3.767371,-0.83769 5.5,-2.03786 5.132713,-3.55538 12.650235,-9.94048 12.650235,-10.74464 0,-0.41053 -2.689867,-2.83528 -5.977483,-5.38835 C 62.680564,142.66123 58.914207,136.30764 57.492599,125.68267 56.560858,118.71891 56.001647,117 54.667881,117 c -2.357773,0 -4.631702,-2.91505 -5.460451,-7 -0.390542,-1.925 -1.786601,-5.46198 -3.102354,-7.85996 -1.315752,-2.397974 -2.137852,-4.771623 -1.826888,-5.274774 0.310964,-0.50315 -0.03056,-0.79117 -0.75894,-0.640043 -0.796773,0.165318 -1.294828,-0.601722 -1.250271,-1.925502 0.04073,-1.210154 -0.268352,-1.988658 -0.686854,-1.73001 -0.418502,0.258649 -0.725178,-4.175091 -0.681502,-9.852755 0.04429,-5.757184 -0.46909,-11.984997 -1.160709,-14.080622 -1.83815,-5.56965 -1.769268,-14.602581 0.138301,-18.136334 0.890693,-1.65 2.121954,-4.879337 2.736135,-7.176304 0.657106,-2.457502 2.343942,-5.208966 4.098632,-6.68544 1.640066,-1.380025 2.981938,-3.145671 2.981938,-3.923657 0,-2.79515 5.884852,-9.543505 9.444968,-10.83086 1.955268,-0.707034 3.555032,-1.61059 3.555032,-2.007902 0,-0.397313 1.181606,-2.126645 2.625791,-3.842962 3.316087,-3.940946 9.91404,-7.3539963 13.055496,-6.7534689 1.323738,0.2530485 4.057126,-0.381298 6.074196,-1.4096589 4.982481,-2.5402133 24.436099,-2.6928505 30.026639,-0.2355954 2.04483,0.8987836 5.06788,1.5528914 6.71788,1.453573 3.76382,-0.2265557 11.63564,4.6404522 14.01207,8.6634132 0.95396,1.61493 3.27876,3.494659 5.16623,4.177177 3.28646,1.188397 9.3217,8.008943 9.3217,10.534632 0,0.639579 1.35718,2.463129 3.01595,4.052333 1.65877,1.589204 3.47177,4.710895 4.02889,6.937091 0.55711,2.226196 1.67493,5.24206 2.48405,6.701921 1.8458,3.330337 1.86326,14.000359 0.0313,19.135719 -0.74361,2.084507 -1.12314,4.665282 -0.84338,5.735056 0.27975,1.069775 0.15569,2.73927 -0.27569,3.709989 -1.06142,2.388496 -1.22342,6.248431 -0.23664,5.638569 0.92805,-0.573565 1.04219,5.104132 0.16818,8.365128 -0.33002,1.231314 -0.94807,2.023656 -1.37345,1.760762 -0.42537,-0.262895 -0.71171,0.304666 -0.63631,1.261247 0.0758,0.961928 -0.45478,1.616433 -1.18723,1.464461 -0.72838,-0.151127 -1.08046,0.119816 -0.78239,0.602096 0.29806,0.482279 -0.33947,2.605691 -1.41674,4.718691 -1.07727,2.11301 -2.23047,5.29063 -2.56266,7.06138 -0.65952,3.51552 -3.71367,7.39261 -5.82349,7.39261 -0.91035,0 -1.64771,2.47544 -2.33049,7.82374 -0.54933,4.30306 -1.77663,9.46294 -2.72734,11.4664 -1.92722,4.06133 -7.96229,10.69461 -14.03256,15.4235 l -4,3.11611 2.41973,2.58024 c 3.94255,4.20409 12.85553,9.89716 15.82264,10.10654 1.5167,0.10703 7.93004,0.92693 14.25188,1.822 13.20087,1.86903 22.40931,5.70187 26.46098,11.01388 2.93953,3.85393 7.18737,12.9558 8.00277,17.14759 0.67044,3.44657 0.82448,3.72683 -4.63844,-8.43898 -5.34066,-11.89354 -11.49519,-15.7017 -29.81956,-18.45109 l -9.5,-1.42538 -5.5,5.27773 c -3.025,2.90275 -8.09143,7.35017 -11.25874,9.88315 -6.21647,4.97147 -20.74126,14.9823 -20.74126,14.29536 0,-0.23108 4.8375,-3.98519 10.75,-8.34246 5.9125,-4.35727 14.07147,-10.79778 18.13105,-14.31223 6.73768,-5.83294 7.20087,-6.47033 5.31384,-7.31234 -1.73476,-0.77407 -3.17506,0.0817 -8.95594,5.32148 -3.7888,3.43414 -12.70503,10.13754 -19.81384,14.89644 -7.10881,4.7589 -12.812612,9.20509 -12.675112,9.88043 0.1375,0.67534 -0.02542,1.22789 -0.362044,1.22789 -0.336624,0 -7.179493,-3.23587 -15.206376,-7.19081 -12.578156,-6.19742 -15.567394,-8.14895 -21.637956,-14.12636 -6.668331,-6.566 -6.715921,-6.64348 -0.893185,-1.45413 6.510371,5.80218 17.471741,12.54723 28.534527,17.55863 5.746651,2.60321 6.939506,2.84214 8.498427,1.70223 0.997405,-0.72932 1.589167,-1.53852 1.315035,-1.79821 -0.274136,-0.2597 -6.032844,-3.21495 -12.79713,-6.56723 -13.882405,-6.87991 -19.039375,-10.21815 -24.461662,-15.83463 l -3.760363,-3.89504 -10.606485,1.76122 c -5.833567,0.96867 -12.790511,2.48664 -15.459876,3.37326 -7.375976,2.4499 -13.945703,8.98945 -18.789249,18.70292 -2.267564,4.54748 -4.123027,7.58045 -4.123253,6.73994 z M 113.86981,185.82691 c 4.2212,-2.9298 11.11377,-8.02691 15.31683,-11.32691 6.4589,-5.07115 7.38227,-6.15481 5.96459,-7 -2.49766,-1.48905 -13.87411,-10.56163 -14.48926,-11.555 -0.29312,-0.47335 -2.54312,-0.11256 -5,0.80174 -6.2399,2.32212 -25.707638,2.31685 -31.959227,-0.009 l -4.492175,-1.67103 -3.507825,3.36696 c -1.929304,1.85184 -6.133349,5.18612 -9.342324,7.40954 l -5.834498,4.04256 6.834498,5.07047 c 3.758975,2.78875 12.903179,8.17103 20.320455,11.9606 15.426786,7.88173 13.124146,7.97759 26.188936,-1.09028 z M 94.720859,142 c 0.686232,-5.87146 1.491995,-7 4.997889,-7 3.277092,0 4.967442,2.26361 4.991482,6.68426 0.0267,4.91158 1.25076,5.85221 5.83013,4.48019 5.51279,-1.65167 15.58401,-9.44233 17.54293,-13.57045 0.88966,-1.87482 2.3382,-6.93794 3.21898,-11.25138 0.88078,-4.31344 3.27881,-11.21762 5.32895,-15.34262 2.05014,-4.125 4.49715,-10.425 5.43779,-14 0.94065,-3.575 2.22493,-8.3 2.85396,-10.5 0.62903,-2.2 1.09195,-7.754771 1.02872,-12.343936 -0.0995,-7.225549 -0.45956,-8.841184 -2.68587,-12.05375 -1.41399,-2.040399 -2.5709,-4.397341 -2.5709,-5.23765 C 140.69492,50.134972 131.78425,44 129.27198,44 c -0.90395,0 -3.9172,1.152145 -6.6961,2.560322 -2.7789,1.408178 -6.02644,2.446312 -7.21676,2.306965 -1.19031,-0.139347 -3.7392,0.243734 -5.6642,0.85129 -4.59202,1.449302 -15.582669,1.466993 -20.000002,0.03219 -1.925,-0.625262 -4.415717,-1.030453 -5.534926,-0.900424 -1.119209,0.130029 -4.044209,-1.124916 -6.5,-2.788767 -2.455791,-1.663849 -5.247216,-3.03337 -6.203167,-3.043379 -2.675229,-0.02801 -12.761907,7.17803 -12.761907,9.117254 0,0.941104 -1.189967,3.125294 -2.644372,4.853756 -2.423239,2.879856 -2.641309,3.868854 -2.607736,11.826725 0.0433,10.263332 0.496378,13.903457 2.104552,16.908357 0.654015,1.222038 1.635239,4.596498 2.180497,7.498799 0.545259,2.902302 2.789888,8.876912 4.988065,13.276912 2.45841,4.9209 4.564959,11.05026 5.473151,15.92505 1.596899,8.57149 4.390676,13.63502 9.681161,17.54645 5.983907,4.42409 11.332904,7.0514 13.824682,6.79038 2.165281,-0.22682 2.570417,-0.86437 3.025941,-4.76188 z m -7.628985,-11.16673 c -0.525453,-0.8502 1.234722,-1.00364 6.695087,-0.58364 4.074376,0.31339 9.882959,0.21698 12.907959,-0.21423 3.025,-0.43122 5.6875,-0.61559 5.91667,-0.40972 1.1602,1.04228 -1.68069,1.465 -12.720142,1.89273 -8.504017,0.3295 -12.298009,0.12641 -12.799574,-0.68514 z M 96.15463,116.5942 c -1.861583,-1.36122 -1.867487,-1.55941 -0.186184,-6.25 0.955,-2.66431 1.765767,-7.0942 1.801703,-9.8442 0.04851,-3.712042 0.286721,-4.484817 0.924769,-3 1.1813,2.74903 1.19759,9.32423 0.03317,13.38433 -0.633305,2.2082 -0.621168,4.01699 0.03518,5.2434 1.18851,2.22075 0.06518,2.42162 -2.608646,0.46647 z M 68.694918,92.95431 c -1.095458,-0.741306 -0.690916,-0.834084 1.5,-0.34401 3.676928,0.822471 4.475114,1.394827 1.916667,1.374387 -1.054167,-0.0084 -2.591667,-0.472091 -3.416667,-1.030377 z M 75.984667,92 c -0.287656,-1.1 -1.145528,-2 -1.90638,-2 -1.858033,0 -1.745454,-2.038039 0.271657,-4.917868 l 1.655025,-2.36288 -3.897409,0.731159 c -4.962164,0.930907 -5.412642,1.237186 -5.412642,3.680035 0,1.866584 -0.119048,1.893364 -1.642857,0.369554 -1.52381,-1.52381 -1.521661,-1.764053 0.02965,-3.315361 1.199735,-1.199734 3.854827,-1.768642 9.392857,-2.012612 6.769169,-0.298205 8.142073,-0.05254 11.143261,1.993932 1.882599,1.283723 3.626349,2.952791 3.875,3.709041 0.248651,0.75625 -0.458339,0.464568 -1.571089,-0.648182 -2.04195,-2.04195 -7.884995,-3.901974 -8.940825,-2.846145 -0.918002,0.918003 1.837811,3.660846 2.973157,2.959164 0.664872,-0.410914 0.802345,0.279013 0.386074,1.937567 -0.417349,1.662851 -0.203229,2.728077 0.604157,3.005629 0.687836,0.236456 0.463115,0.311634 -0.499385,0.167063 -0.9625,-0.144571 -1.75,0.145014 -1.75,0.643524 0,1.854647 -4.193899,0.880914 -4.710251,-1.09362 z m 43.210253,0 c 0.45047,-1.419321 0.1797,-2 -0.93261,-2 -1.84905,0 -2.08498,-3.082411 -0.36739,-4.8 1.97379,-1.973789 -1.23404,-1.476637 -4.9017,0.759669 -2.21982,1.353504 -3.03946,1.529381 -2.67265,0.573499 C 111.29845,83.984831 117.30558,82 124.04029,82 c 5.64237,0 6.92935,0.355257 9.34887,2.580674 1.54317,1.419371 2.24326,2.292814 1.55576,1.940983 -0.76381,-0.390882 -1.28877,0.06393 -1.34968,1.169326 -0.0685,1.244108 -0.31415,1.039722 -0.78647,-0.654508 -0.67871,-2.434512 -3.27332,-3.733424 -7.86385,-3.936795 -2.92892,-0.129758 -3.06055,3.233016 -0.17691,4.51973 l 2.07309,0.925038 -2.14567,2.727776 C 122.10134,94.570072 118.21605,95.084137 119.19492,92 Z m 6.25,1.337719 c 0.6875,-0.277412 1.8125,-0.277412 2.5,0 0.6875,0.277413 0.125,0.504386 -1.25,0.504386 -1.375,0 -1.9375,-0.226973 -1.25,-0.504386 z m -11,-1 c 0.6875,-0.277412 1.8125,-0.277412 2.5,0 0.6875,0.277413 0.125,0.504386 -1.25,0.504386 -1.375,0 -1.9375,-0.226973 -1.25,-0.504386 z M 61.879097,81.009166 c 0.837014,-2.619457 6.123299,-4.882285 12.815821,-5.485895 11.407852,-1.028893 14.938994,-1.615545 15.535709,-2.581049 0.898102,-1.45316 2.464291,-1.114983 2.464291,0.532098 0,2.735902 -5.240618,4.264241 -16.239414,4.735955 -8.731714,0.374484 -11.142601,0.818513 -12.8961,2.375158 -1.562118,1.386749 -2.025354,1.503566 -1.680307,0.423733 z m 73.546753,-0.706808 c -1.26763,-1.267633 -4.4129,-1.79031 -13.57194,-2.255367 -11.89161,-0.603807 -15.15899,-1.610259 -15.15899,-4.669436 0,-1.63647 1.19114,-1.786417 2.64463,-0.332921 0.57455,0.574549 5.27705,1.47978 10.45,2.011624 10.4666,1.076098 15.14444,2.321947 16.96788,4.51906 1.74348,2.100763 0.643,2.701622 -1.33158,0.72704 z M 55.626114,115.25 c -0.03784,-0.4125 -1.109424,-4.8 -2.381292,-9.75 -1.597362,-6.21679 -2.53868,-8.454199 -3.043919,-7.235056 -0.402288,0.970719 -0.478088,2.770716 -0.168445,3.999996 0.553541,2.19756 0.537556,2.2015 -0.952711,0.23506 -1.471793,-1.94207 -1.43535,-4.36913 0.161501,-10.755746 0.422775,-1.690891 0.209823,-3.333145 -0.551099,-4.25 -1.910473,-2.301979 -3.995231,-1.802628 -3.995231,0.956956 0,2.851597 2.42311,12.57415 3.795125,15.22766 0.517893,1.00162 1.243533,3.49416 1.612532,5.53898 0.368999,2.04482 1.360374,4.40732 2.203054,5.25 1.617174,1.61718 3.436402,2.0457 3.320485,0.78215 z m 91.302526,-1 c 0.84903,-0.9625 1.84289,-3.325 2.20857,-5.25 0.36569,-1.925 1.29111,-5.075 2.05649,-7 4.08467,-10.273337 3.77132,-19.450739 -0.48629,-14.242298 -1.72012,2.104257 -1.73997,2.526481 -0.29211,6.212368 1.34685,3.428745 1.36899,4.391881 0.16653,7.2423 l -1.38691,3.28763 -0.5133,-4 c -0.49406,-3.850165 -0.59708,-3.673591 -2.75,4.71381 -1.23018,4.7926 -2.2367,9.1801 -2.2367,9.75 0,1.57416 1.50938,1.24098 3.23372,-0.71381 z"
     style="fill:#734733" />
  <path
     inkscape:connector-curvature="0"
     id="path1375"
     d="m 9.695328,198.97179 c -8.279e-4,-3.08568 6.897583,-15.80312 10.557445,-19.46298 5.430721,-5.43072 12.255554,-8.12226 25.442145,-10.03372 6.325,-0.91684 11.806406,-1.85615 12.180902,-2.08735 0.374496,-0.2312 0.96809,0.0443 1.319098,0.61226 0.351008,0.56794 1.068252,0.76684 1.593875,0.44198 0.525623,-0.32485 0.832029,-0.0268 0.680902,0.66233 -0.493661,2.25108 13.396011,11.72102 26.972908,18.39006 l 13.293237,6.5297 9.22954,-6.16719 c 12.71434,-8.49574 25.86917,-18.82194 25.25132,-19.82164 -0.63034,-1.01992 2.70642,-0.76953 17.47247,1.31109 13.20072,1.86005 22.40503,5.68846 26.46098,11.00608 2.93953,3.85393 7.18737,12.9558 8.00277,17.14759 0.67044,3.44657 0.82448,3.72683 -4.63844,-8.43898 -5.34066,-11.89354 -11.49519,-15.7017 -29.81956,-18.45109 l -9.5,-1.42538 -5.5,5.27773 c -3.025,2.90275 -8.09143,7.35017 -11.25874,9.88315 -6.21647,4.97147 -20.74126,14.9823 -20.74126,14.29536 0,-0.23108 4.8375,-3.98519 10.75,-8.34246 5.9125,-4.35727 14.07147,-10.79778 18.13105,-14.31223 6.73768,-5.83294 7.20087,-6.47033 5.31384,-7.31234 -1.73476,-0.77407 -3.17506,0.0817 -8.95594,5.32148 -3.7888,3.43414 -12.70503,10.13754 -19.81384,14.89644 -7.10881,4.7589 -12.812612,9.20509 -12.675112,9.88043 0.1375,0.67534 -0.02542,1.22789 -0.362044,1.22789 -0.336624,0 -7.179493,-3.23587 -15.206376,-7.19081 -12.578156,-6.19742 -15.567394,-8.14895 -21.637956,-14.12636 -6.668331,-6.566 -6.715921,-6.64348 -0.893185,-1.45413 6.510371,5.80218 17.471741,12.54723 28.534527,17.55863 5.746651,2.60321 6.939506,2.84214 8.498427,1.70223 0.997405,-0.72932 1.589167,-1.53852 1.315035,-1.79821 -0.274136,-0.2597 -6.032844,-3.21495 -12.79713,-6.56723 -13.882405,-6.87991 -19.039375,-10.21815 -24.461662,-15.83463 l -3.760363,-3.89504 -10.606485,1.76122 c -5.833567,0.96867 -12.790511,2.48664 -15.459876,3.37326 -7.375976,2.4499 -13.945703,8.98945 -18.789249,18.70292 -2.267564,4.54748 -4.123027,7.58045 -4.123253,6.73994 z m 54.955094,-32.6929 c 5.380899,-3.89819 13.044496,-10.43014 13.044496,-11.11829 0,-0.40123 -2.549047,-2.8727 -5.664549,-5.49215 -10.523407,-8.84787 -13.566903,-14.25692 -14.86481,-26.41845 -0.519244,-4.86537 -1.032959,-6.25339 -2.318828,-6.26531 -1.233426,-0.0114 -1.327302,-0.22123 -0.370625,-0.82829 1.0196,-0.64699 0.824482,-2.68562 -0.955639,-9.98469 -2.216759,-9.089428 -3.797351,-11.721745 -3.855958,-6.42171 -0.02656,2.40221 -0.163021,2.52206 -1.078992,0.94764 C 47.840201,99.416551 47.899126,97.482077 48.78926,94.008958 50.11491,88.836543 49.152702,86 46.072473,86 c -1.702565,0 -1.897804,7.15939 -0.277787,10.186419 0.799691,1.494236 0.799691,1.869477 0,1.375241 -1.542237,-0.953155 -1.313442,0.571742 0.432035,2.87947 0.807509,1.06762 1.465891,2.41762 1.463074,3 -0.0028,0.58238 -1.079888,-0.71673 -2.393489,-2.88691 -1.3136,-2.170175 -2.134823,-4.606495 -1.824938,-5.414042 0.327236,-0.852762 0.13354,-1.202583 -0.462054,-0.834485 C 42.375728,94.69727 42.125,93.900106 42.35323,92.219738 42.671396,89.8772 42.591764,89.77738 41.779058,91.5 c -1.280991,2.715202 -1.375178,0.0016 -0.148412,-4.275897 0.580971,-2.025726 0.580971,-3.04344 0,-2.684381 -1.192517,0.737016 -1.180538,-0.604226 0.02238,-2.506184 0.587418,-0.928776 0.538657,-1.93497 -0.132988,-2.744253 -0.58326,-0.702786 -0.841436,-2.423612 -0.573724,-3.824058 0.267713,-1.400446 -0.08377,-4.215532 -0.781076,-6.255746 -2.278472,-6.666493 -2.263115,-16.273829 0.02968,-18.566624 0.825,-0.825 1.5,-2.446596 1.5,-3.603547 0,-3.418228 2.565069,-8.552033 5.37882,-10.76533 1.441649,-1.134001 2.62118,-2.717039 2.62118,-3.517862 0,-2.733966 5.854801,-9.574157 9.243875,-10.799662 1.844665,-0.66704 4.330956,-2.703257 5.52509,-4.524927 2.813087,-4.291409 10.450682,-8.8138573 13.802811,-8.1730572 1.391384,0.26598 4.155829,-0.3548536 6.183707,-1.3887246 5.31321,-2.7088283 25.201259,-2.7116403 30.259329,-0.00428 2.04409,1.0941104 4.72567,1.689984 6.48519,1.4410728 4.09863,-0.5798146 11.96667,4.5072 14.19335,9.176594 C 136.57798,20.977981 137.72405,22 139.33199,22 c 2.40651,0 9.36293,6.384072 9.36293,8.592581 0,0.707179 1.8,3.365518 4,5.907419 2.2,2.541901 4.07697,5.60677 4.17105,6.81082 0.0941,1.204049 0.22039,2.944696 0.28069,3.868104 0.0603,0.923407 0.88333,2.533841 1.82895,3.57874 2.15638,2.382778 2.33494,12.245989 0.32484,17.943235 -0.76696,2.173793 -1.16401,5.157956 -0.88233,6.631472 0.28169,1.473517 -0.022,3.322771 -0.67492,4.109453 -0.86346,1.04041 -0.89554,1.975054 -0.11767,3.428512 1.38475,2.587433 1.3567,4.071637 -0.0403,2.129664 -0.86705,-1.20534 -0.93998,-1.10712 -0.37123,0.5 0.38928,1.1 0.92077,2.9 1.18108,4 0.3995,1.688161 0.29072,1.766121 -0.69765,0.5 -0.94587,-1.211689 -1.07125,-0.914326 -0.65232,1.547095 0.59351,3.487179 -0.44866,5.703309 -2.84766,6.055406 -1.19232,0.174996 -1.46435,-0.226142 -0.96949,-1.429626 0.37833,-0.920081 0.92168,-3.585375 1.20745,-5.922875 0.42207,-3.452427 0.218,-4.25 -1.08742,-4.25 -0.88385,0 -2.29851,1.05537 -3.14368,2.345267 -1.37256,2.094793 -1.37618,2.729403 -0.0338,5.942057 0.97543,2.334555 1.21223,4.382371 0.67474,5.835336 -0.76575,2.07002 -0.88453,1.98029 -1.57784,-1.192061 -0.71728,-3.281986 -0.85219,-3.062381 -3.11445,5.069401 -3.34242,12.01448 -3.20474,13.89072 0.75625,10.30607 1.75959,-1.59241 1.83262,-1.59189 1.21844,0.009 -0.35933,0.93641 -1.7287,1.97246 -3.04303,2.30234 -1.31434,0.32988 -2.39861,1.11349 -2.40951,1.74137 -0.0832,4.79325 -2.33157,15.41002 -3.92493,18.53328 -1.06722,2.09191 -5.40432,7.03841 -9.63802,10.99221 l -7.69763,7.18874 2.38656,2.71368 2.38656,2.71368 -3.0698,-2.76794 -3.06981,-2.76793 -4.42656,1.7052 c -6.14406,2.36683 -25.646554,2.39249 -31.734759,0.0418 l -4.308197,-1.66344 -6.365923,5.40038 c -3.501257,2.97021 -7.412569,5.89749 -8.691803,6.50506 -2.226459,1.05746 -2.220918,1.02864 0.129624,-0.6742 z M 94.847523,141.80028 C 95.710131,135.72425 96.226392,135 99.694918,135 c 3.468532,0 3.984792,0.72425 4.847402,6.80028 0.57487,4.04929 1.01219,4.74013 3.15991,4.9917 3.47686,0.40727 14.77955,-6.5974 18.57074,-11.50893 2.27588,-2.94842 3.51113,-6.17619 4.73983,-12.38535 1.06578,-5.38586 3.27936,-11.65449 6.17195,-17.47836 2.48059,-4.99437 4.51017,-10.296323 4.51017,-11.782123 0,-1.4858 0.72697,-4.374501 1.61549,-6.419336 1.97292,-4.540473 2.4435,-7.466793 2.81783,-17.52299 0.26699,-7.172635 0.0601,-8.145034 -2.5532,-12 -1.56405,-2.30719 -2.85191,-5.207391 -2.86192,-6.444891 -0.01,-1.2375 -0.53822,-2.25 -1.17381,-2.25 -0.63558,0 -2.63056,-1.125 -4.43328,-2.5 -4.01935,-3.065713 -7.5922,-3.16923 -12.15052,-0.35204 -1.91151,1.181379 -5.21415,2.271803 -7.3392,2.423166 -2.12505,0.151362 -4.3737,0.590385 -4.997,0.975606 -1.94144,1.199873 -16.22234,1.337563 -20.424392,0.196923 -2.2,-0.597187 -4.810461,-0.976637 -5.801025,-0.843222 -0.990565,0.133415 -3.954961,-1.139604 -6.587548,-2.82893 C 71.838449,42.241914 69.937417,42.231136 65.194918,46 c -2.076255,1.65 -4.388132,3 -5.137505,3 -0.749372,0 -1.362495,0.970024 -1.362495,2.155609 0,1.185585 -1.060251,3.548085 -2.356114,5.25 -1.295862,1.701915 -2.684788,4.133991 -3.086502,5.404614 -1.127653,3.566778 -0.767426,15.231766 0.518212,16.780864 0.631485,0.760894 0.89057,2.054699 0.575744,2.875122 -0.314825,0.820423 0.299948,3.413654 1.366163,5.762735 1.066215,2.349081 1.939293,5.396056 1.940172,6.771056 8.79e-4,1.375 2.054119,6.55 4.562754,11.5 2.968476,5.85735 4.912978,11.26969 5.568717,15.5 1.134861,7.32124 3.842852,13.65282 7.169699,16.76356 4.230957,3.95612 14.179857,9.3223 16.73385,9.02581 2.148266,-0.24939 2.584887,-0.93875 3.15991,-4.98909 z m 3.597395,-10.46256 c 0.6875,-0.27741 1.812502,-0.27741 2.500002,0 0.6875,0.27741 0.125,0.50439 -1.250002,0.50439 -1.375,0 -1.9375,-0.22698 -1.25,-0.50439 z m 7.500002,-1.02705 c 0.9625,-0.25152 2.5375,-0.25152 3.5,0 0.9625,0.25153 0.175,0.45733 -1.75,0.45733 -1.925,0 -2.7125,-0.2058 -1.75,-0.45733 z m -9.569212,-14.1109 c -1.509911,-1.66843 -1.47023,-2.26576 0.542014,-8.159 2.500788,-7.32403 3.607078,-6.32693 1.823389,1.64342 -0.944904,4.22228 -0.946275,5.73128 -0.0062,6.86395 1.748939,2.10734 -0.427653,1.78593 -2.359165,-0.34837 z M 76.707526,93.028954 c -1.178315,-0.745003 -1.036862,-0.906483 0.680722,-0.777102 1.192463,0.08983 1.947731,0.519906 1.678375,0.955734 -0.598823,0.968916 -0.536662,0.973623 -2.359097,-0.178632 z M 119.81145,92.75 c 0.11232,-0.6875 -0.32118,-2.525262 -0.96332,-4.083916 -0.64213,-1.558654 -0.87218,-3.311783 -0.51121,-3.895843 0.9888,-1.599917 -4.74202,0.05118 -7.142,2.05767 -1.97823,1.653891 -1.97964,1.648011 -0.12908,-0.540266 2.71037,-3.205003 7.99822,-4.622627 14.90624,-3.996229 6.52883,0.592013 9.25226,2.256974 7.70199,4.708584 -0.8057,1.274136 -0.95083,1.232765 -0.96384,-0.274751 C 132.69374,84.813956 129.03131,83 125.18884,83 c -3.07949,0 -4.06978,1.682725 -2.24399,3.813013 2.57431,3.003631 2.75775,3.936284 1.0471,5.32368 -1.42288,1.154008 -1.55335,1.151487 -0.84979,-0.01642 0.57785,-0.959242 0.40778,-1.225909 -0.55804,-0.875 -0.76406,0.277603 -1.2767,1.010982 -1.1392,1.629732 0.1375,0.61875 -0.21973,1.125 -0.79384,1.125 -0.57411,0 -0.95194,-0.5625 -0.83963,-1.25 z M 75.07492,89.547887 c -0.306475,-0.798662 -0.258981,-2.036162 0.105543,-2.75 0.364523,-0.713838 -0.0456,-0.424379 -0.911388,0.643243 -0.865786,1.067621 -1.574157,1.405121 -1.574157,0.75 0,-0.655122 0.9,-2.09113 2,-3.19113 l 2,-2 h -2.4349 c -3.721921,0 -7.358844,1.693098 -7.73084,3.598939 -0.310337,1.58995 -0.432478,1.594021 -1.706622,0.05689 -1.215485,-1.466369 -0.961956,-1.827105 2.217881,-3.155725 6.15947,-2.573591 15.389768,-1.803939 19.686732,1.641543 l 2.467749,1.978738 -3.20034,-1.560192 c -3.987156,-1.943772 -7.29966,-2.008903 -7.29966,-0.143526 0,0.779166 0.53096,1.593653 1.17991,1.80997 0.658755,0.219585 0.893463,1.139773 0.531385,2.083333 -0.793746,2.068468 -4.564275,2.236734 -5.331293,0.237917 z m 41.69895,-1.13122 c 0.048,-1.164943 0.28494,-1.4019 0.60416,-0.604167 0.28887,0.721875 0.25335,1.584375 -0.0789,1.916667 -0.3323,0.332291 -0.56864,-0.258334 -0.52522,-1.3125 z M 62.694918,79.642173 c 0,-1.473262 4.965592,-2.865838 14.783835,-4.146055 5.893891,-0.768514 11.735353,-1.698766 12.981027,-2.067226 1.798411,-0.531955 2.1398,-0.34402 1.657619,0.912523 -0.849298,2.213235 -3.124338,2.753014 -15.27999,3.625353 -5.85337,0.420061 -11.429991,1.097527 -12.392491,1.505479 -0.9625,0.407952 -1.75,0.484418 -1.75,0.169926 z m 71.652722,-0.322788 c -0.37434,-0.374338 -5.57596,-1.003659 -11.55916,-1.39849 -12.35398,-0.81524 -14.65939,-1.347087 -15.51604,-3.57948 -0.48218,-1.256543 -0.14079,-1.444478 1.65762,-0.912523 1.24567,0.36846 7.10828,1.301324 13.02802,2.07303 5.92243,0.772058 11.75681,2.099084 12.9725,2.95059 C 136.14573,79.303631 136.6648,80 136.08409,80 c -0.58071,0 -1.36211,-0.306277 -1.73645,-0.680615 z M 156.66429,93.5 c 0,-0.55 -0.43621,-0.325 -0.96937,0.5 -0.53316,0.825 -0.96937,1.95 -0.96937,2.5 0,0.55 0.43621,0.325 0.96937,-0.5 0.53316,-0.825 0.96937,-1.95 0.96937,-2.5 z m -26.00714,70.42785 -3.46223,-3.07216 3.75,2.69085 c 3.31388,2.3779 4.39217,3.45346 3.46223,3.45346 -0.15828,0 -1.84578,-1.38247 -3.75,-3.07215 z m 19.11672,-56.51118 c 0.048,-1.16495 0.28494,-1.4019 0.60416,-0.60417 0.28887,0.72187 0.25335,1.58437 -0.0789,1.91667 -0.3323,0.33229 -0.56864,-0.25834 -0.52522,-1.3125 z m 1.92105,-5.35765 c 0,-0.51754 0.44485,-1.21592 0.98855,-1.55194 0.56686,-0.35034 0.7345,0.0511 0.39301,0.94098 -0.66479,1.73242 -1.38156,2.04939 -1.38156,0.61096 z"
     style="fill:#025175" />
  <path
     inkscape:connector-curvature="0"
     id="path1373"
     d="m 64.650422,166.27889 c 5.380899,-3.89819 13.044496,-10.43014 13.044496,-11.11829 0,-0.40123 -2.549047,-2.8727 -5.664549,-5.49215 -10.523407,-8.84787 -13.566903,-14.25692 -14.86481,-26.41845 -0.519244,-4.86537 -1.032959,-6.25339 -2.318828,-6.26531 -1.233426,-0.0114 -1.327302,-0.22123 -0.370625,-0.82829 1.0196,-0.64699 0.824482,-2.68562 -0.955639,-9.98469 -2.216759,-9.089428 -3.797351,-11.721745 -3.855958,-6.42171 -0.02656,2.40221 -0.163021,2.52206 -1.078992,0.94764 C 47.840201,99.416551 47.899126,97.482077 48.78926,94.008958 50.11491,88.836543 49.152702,86 46.072473,86 c -1.702565,0 -1.897804,7.15939 -0.277787,10.186419 0.799691,1.494236 0.799691,1.869477 0,1.375241 -1.542237,-0.953155 -1.313442,0.571742 0.432035,2.87947 0.807509,1.06762 1.465891,2.41762 1.463074,3 -0.0028,0.58238 -1.079888,-0.71673 -2.393489,-2.88691 -1.3136,-2.170175 -2.134823,-4.606495 -1.824938,-5.414042 0.327236,-0.852762 0.13354,-1.202583 -0.462054,-0.834485 C 42.375728,94.69727 42.125,93.900106 42.35323,92.219738 42.671396,89.8772 42.591764,89.77738 41.779058,91.5 c -1.280991,2.715202 -1.375178,0.0016 -0.148412,-4.275897 0.580971,-2.025726 0.580971,-3.04344 0,-2.684381 -1.192517,0.737016 -1.180538,-0.604226 0.02238,-2.506184 0.587418,-0.928776 0.538657,-1.93497 -0.132988,-2.744253 -0.58326,-0.702786 -0.841436,-2.423612 -0.573724,-3.824058 0.267713,-1.400446 -0.08377,-4.215532 -0.781076,-6.255746 -2.278472,-6.666493 -2.263115,-16.273829 0.02968,-18.566624 0.825,-0.825 1.5,-2.446596 1.5,-3.603547 0,-3.418228 2.565069,-8.552033 5.37882,-10.76533 1.441649,-1.134001 2.62118,-2.717039 2.62118,-3.517862 0,-2.733966 5.854801,-9.574157 9.243875,-10.799662 1.844665,-0.66704 4.330956,-2.703257 5.52509,-4.524927 2.813087,-4.291409 10.450682,-8.8138573 13.802811,-8.1730572 1.391384,0.26598 4.155829,-0.3548536 6.183707,-1.3887246 5.31321,-2.7088283 25.201259,-2.7116403 30.259329,-0.00428 2.04409,1.0941104 4.72567,1.689984 6.48519,1.4410728 4.09863,-0.5798146 11.96667,4.5072 14.19335,9.176594 C 136.57798,20.977981 137.72405,22 139.33199,22 c 2.40651,0 9.36293,6.384072 9.36293,8.592581 0,0.707179 1.8,3.365518 4,5.907419 2.2,2.541901 4.07697,5.60677 4.17105,6.81082 0.0941,1.204049 0.22039,2.944696 0.28069,3.868104 0.0603,0.923407 0.88333,2.533841 1.82895,3.57874 2.15638,2.382778 2.33494,12.245989 0.32484,17.943235 -0.76696,2.173793 -1.16401,5.157956 -0.88233,6.631472 0.28169,1.473517 -0.022,3.322771 -0.67492,4.109453 -0.86346,1.04041 -0.89554,1.975054 -0.11767,3.428512 1.38475,2.587433 1.3567,4.071637 -0.0403,2.129664 -0.86705,-1.20534 -0.93998,-1.10712 -0.37123,0.5 0.38928,1.1 0.92077,2.9 1.18108,4 0.3995,1.688161 0.29072,1.766121 -0.69765,0.5 -0.94587,-1.211689 -1.07125,-0.914326 -0.65232,1.547095 0.59351,3.487179 -0.44866,5.703309 -2.84766,6.055406 -1.19232,0.174996 -1.46435,-0.226142 -0.96949,-1.429626 0.37833,-0.920081 0.92168,-3.585375 1.20745,-5.922875 0.42207,-3.452427 0.218,-4.25 -1.08742,-4.25 -0.88385,0 -2.29851,1.05537 -3.14368,2.345267 -1.37256,2.094793 -1.37618,2.729403 -0.0338,5.942057 0.97543,2.334555 1.21223,4.382371 0.67474,5.835336 -0.76575,2.07002 -0.88453,1.98029 -1.57784,-1.192061 -0.71728,-3.281986 -0.85219,-3.062381 -3.11445,5.069401 -3.34242,12.01448 -3.20474,13.89072 0.75625,10.30607 1.75959,-1.59241 1.83262,-1.59189 1.21844,0.009 -0.35933,0.93641 -1.7287,1.97246 -3.04303,2.30234 -1.31434,0.32988 -2.39861,1.11349 -2.40951,1.74137 -0.0832,4.79325 -2.33157,15.41002 -3.92493,18.53328 -1.06722,2.09191 -5.40432,7.03841 -9.63802,10.99221 l -7.69763,7.18874 2.38656,2.71368 2.38656,2.71368 -3.0698,-2.76794 -3.06981,-2.76793 -4.42656,1.7052 c -6.14406,2.36683 -25.646554,2.39249 -31.734759,0.0418 l -4.308197,-1.66344 -6.365923,5.40038 c -3.501257,2.97021 -7.412569,5.89749 -8.691803,6.50506 -2.226459,1.05746 -2.220918,1.02864 0.129624,-0.6742 z M 94.847523,141.80028 C 95.710131,135.72425 96.226392,135 99.694918,135 c 3.468532,0 3.984792,0.72425 4.847402,6.80028 0.57487,4.04929 1.01219,4.74013 3.15991,4.9917 3.47686,0.40727 14.77955,-6.5974 18.57074,-11.50893 2.27588,-2.94842 3.51113,-6.17619 4.73983,-12.38535 1.06578,-5.38586 3.27936,-11.65449 6.17195,-17.47836 2.48059,-4.99437 4.51017,-10.296323 4.51017,-11.782123 0,-1.4858 0.72697,-4.374501 1.61549,-6.419336 1.97292,-4.540473 2.4435,-7.466793 2.81783,-17.52299 0.26699,-7.172635 0.0601,-8.145034 -2.5532,-12 -1.56405,-2.30719 -2.85191,-5.207391 -2.86192,-6.444891 -0.01,-1.2375 -0.53822,-2.25 -1.17381,-2.25 -0.63558,0 -2.63056,-1.125 -4.43328,-2.5 -4.01935,-3.065713 -7.5922,-3.16923 -12.15052,-0.35204 -1.91151,1.181379 -5.21415,2.271803 -7.3392,2.423166 -2.12505,0.151362 -4.3737,0.590385 -4.997,0.975606 -1.94144,1.199873 -16.22234,1.337563 -20.424392,0.196923 -2.2,-0.597187 -4.810461,-0.976637 -5.801025,-0.843222 -0.990565,0.133415 -3.954961,-1.139604 -6.587548,-2.82893 C 71.838449,42.241914 69.937417,42.231136 65.194918,46 c -2.076255,1.65 -4.388132,3 -5.137505,3 -0.749372,0 -1.362495,0.970024 -1.362495,2.155609 0,1.185585 -1.060251,3.548085 -2.356114,5.25 -1.295862,1.701915 -2.684788,4.133991 -3.086502,5.404614 -1.127653,3.566778 -0.767426,15.231766 0.518212,16.780864 0.631485,0.760894 0.89057,2.054699 0.575744,2.875122 -0.314825,0.820423 0.299948,3.413654 1.366163,5.762735 1.066215,2.349081 1.939293,5.396056 1.940172,6.771056 8.79e-4,1.375 2.054119,6.55 4.562754,11.5 2.968476,5.85735 4.912978,11.26969 5.568717,15.5 1.134861,7.32124 3.842852,13.65282 7.169699,16.76356 4.230957,3.95612 14.179857,9.3223 16.73385,9.02581 2.148266,-0.24939 2.584887,-0.93875 3.15991,-4.98909 z m 3.597395,-10.46256 c 0.6875,-0.27741 1.812502,-0.27741 2.500002,0 0.6875,0.27741 0.125,0.50439 -1.250002,0.50439 -1.375,0 -1.9375,-0.22698 -1.25,-0.50439 z m 7.500002,-1.02705 c 0.9625,-0.25152 2.5375,-0.25152 3.5,0 0.9625,0.25153 0.175,0.45733 -1.75,0.45733 -1.925,0 -2.7125,-0.2058 -1.75,-0.45733 z m -9.569212,-14.1109 c -1.509911,-1.66843 -1.47023,-2.26576 0.542014,-8.159 2.500788,-7.32403 3.607078,-6.32693 1.823389,1.64342 -0.944904,4.22228 -0.946275,5.73128 -0.0062,6.86395 1.748939,2.10734 -0.427653,1.78593 -2.359165,-0.34837 z M 76.707526,93.028954 c -1.178315,-0.745003 -1.036862,-0.906483 0.680722,-0.777102 1.192463,0.08983 1.947731,0.519906 1.678375,0.955734 -0.598823,0.968916 -0.536662,0.973623 -2.359097,-0.178632 z M 119.81145,92.75 c 0.11232,-0.6875 -0.32118,-2.525262 -0.96332,-4.083916 -0.64213,-1.558654 -0.87218,-3.311783 -0.51121,-3.895843 0.9888,-1.599917 -4.74202,0.05118 -7.142,2.05767 -1.97823,1.653891 -1.97964,1.648011 -0.12908,-0.540266 2.71037,-3.205003 7.99822,-4.622627 14.90624,-3.996229 6.52883,0.592013 9.25226,2.256974 7.70199,4.708584 -0.8057,1.274136 -0.95083,1.232765 -0.96384,-0.274751 C 132.69374,84.813956 129.03131,83 125.18884,83 c -3.07949,0 -4.06978,1.682725 -2.24399,3.813013 2.57431,3.003631 2.75775,3.936284 1.0471,5.32368 -1.42288,1.154008 -1.55335,1.151487 -0.84979,-0.01642 0.57785,-0.959242 0.40778,-1.225909 -0.55804,-0.875 -0.76406,0.277603 -1.2767,1.010982 -1.1392,1.629732 0.1375,0.61875 -0.21973,1.125 -0.79384,1.125 -0.57411,0 -0.95194,-0.5625 -0.83963,-1.25 z M 75.07492,89.547887 c -0.306475,-0.798662 -0.258981,-2.036162 0.105543,-2.75 0.364523,-0.713838 -0.0456,-0.424379 -0.911388,0.643243 -0.865786,1.067621 -1.574157,1.405121 -1.574157,0.75 0,-0.655122 0.9,-2.09113 2,-3.19113 l 2,-2 h -2.4349 c -3.721921,0 -7.358844,1.693098 -7.73084,3.598939 -0.310337,1.58995 -0.432478,1.594021 -1.706622,0.05689 -1.215485,-1.466369 -0.961956,-1.827105 2.217881,-3.155725 6.15947,-2.573591 15.389768,-1.803939 19.686732,1.641543 l 2.467749,1.978738 -3.20034,-1.560192 c -3.987156,-1.943772 -7.29966,-2.008903 -7.29966,-0.143526 0,0.779166 0.53096,1.593653 1.17991,1.80997 0.658755,0.219585 0.893463,1.139773 0.531385,2.083333 -0.793746,2.068468 -4.564275,2.236734 -5.331293,0.237917 z m 41.69895,-1.13122 c 0.048,-1.164943 0.28494,-1.4019 0.60416,-0.604167 0.28887,0.721875 0.25335,1.584375 -0.0789,1.916667 -0.3323,0.332291 -0.56864,-0.258334 -0.52522,-1.3125 z M 62.694918,79.642173 c 0,-1.473262 4.965592,-2.865838 14.783835,-4.146055 5.893891,-0.768514 11.735353,-1.698766 12.981027,-2.067226 1.798411,-0.531955 2.1398,-0.34402 1.657619,0.912523 -0.849298,2.213235 -3.124338,2.753014 -15.27999,3.625353 -5.85337,0.420061 -11.429991,1.097527 -12.392491,1.505479 -0.9625,0.407952 -1.75,0.484418 -1.75,0.169926 z m 71.652722,-0.322788 c -0.37434,-0.374338 -5.57596,-1.003659 -11.55916,-1.39849 -12.35398,-0.81524 -14.65939,-1.347087 -15.51604,-3.57948 -0.48218,-1.256543 -0.14079,-1.444478 1.65762,-0.912523 1.24567,0.36846 7.10828,1.301324 13.02802,2.07303 5.92243,0.772058 11.75681,2.099084 12.9725,2.95059 C 136.14573,79.303631 136.6648,80 136.08409,80 c -0.58071,0 -1.36211,-0.306277 -1.73645,-0.680615 z M 156.66429,93.5 c 0,-0.55 -0.43621,-0.325 -0.96937,0.5 -0.53316,0.825 -0.96937,1.95 -0.96937,2.5 0,0.55 0.43621,0.325 0.96937,-0.5 0.53316,-0.825 0.96937,-1.95 0.96937,-2.5 z m -26.00714,70.42785 -3.46223,-3.07216 3.75,2.69085 c 3.31388,2.3779 4.39217,3.45346 3.46223,3.45346 -0.15828,0 -1.84578,-1.38247 -3.75,-3.07215 z m 19.11672,-56.51118 c 0.048,-1.16495 0.28494,-1.4019 0.60416,-0.60417 0.28887,0.72187 0.25335,1.58437 -0.0789,1.91667 -0.3323,0.33229 -0.56864,-0.25834 -0.52522,-1.3125 z m 1.92105,-5.35765 c 0,-0.51754 0.44485,-1.21592 0.98855,-1.55194 0.56686,-0.35034 0.7345,0.0511 0.39301,0.94098 -0.66479,1.73242 -1.38156,2.04939 -1.38156,0.61096 z"
     style="fill:#5e3320" />
  <path
     inkscape:connector-curvature="0"
     id="path1371"
     d="M 87.244768,157.39441 C 79.560771,155.53615 74.532502,152.51584 67.543895,145.56081 60.346597,138.39808 58.92133,135.28479 57.092296,122.73079 56.272489,117.10386 54.519626,108.45 53.197045,103.5 51.874464,98.55 50.537241,92.877544 50.225438,90.894542 49.73882,87.799746 49.077591,87.060887 45.556921,85.677928 c -3.118189,-1.224859 -3.948862,-2.009195 -3.46455,-3.27129 0.350379,-0.913074 0.126335,-2.275512 -0.497876,-3.02764 -0.62421,-0.752128 -0.915891,-2.513325 -0.648179,-3.913771 0.267713,-1.400446 -0.08377,-4.215532 -0.781076,-6.255746 -2.278474,-6.666493 -2.263117,-16.273829 0.02968,-18.566624 0.825,-0.825 1.5,-2.446596 1.5,-3.603547 0,-3.345094 2.543152,-8.534793 5.210571,-10.632985 1.349113,-1.061212 2.760063,-3.153187 3.135447,-4.648834 0.824034,-3.283212 6.830101,-9.511867 9.923049,-10.2908 1.227013,-0.309013 3.229959,-2.088568 4.450991,-3.954566 2.852229,-4.358815 10.472779,-8.8995783 13.851718,-8.2536532 1.391384,0.26598 4.155829,-0.3548536 6.183707,-1.3887246 5.309262,-2.7068157 24.678009,-2.7023903 30.034359,0.00686 2.16434,1.0947274 4.9601,1.6951448 6.71016,1.4410728 4.09531,-0.5945533 11.96141,4.485034 14.19335,9.165454 C 136.56861,20.958331 137.72818,22 139.30321,22 c 2.68898,0 7.60096,4.676758 9.35201,8.904163 0.69615,1.68066 2.78988,4.671806 4.65272,6.646993 1.86284,1.975186 3.46395,4.571707 3.55803,5.770046 0.0941,1.198339 0.22039,2.934314 0.28069,3.857722 0.0603,0.923407 0.88333,2.533841 1.82895,3.57874 2.15638,2.382778 2.33494,12.245989 0.32484,17.943235 -0.76696,2.173793 -1.16401,5.157956 -0.88233,6.631472 0.28169,1.473517 0.001,3.294499 -0.62278,4.046627 -0.62421,0.752128 -0.85921,2.086001 -0.52223,2.964163 0.45325,1.181159 -0.45543,2.024037 -3.49186,3.238975 -3.02909,1.211998 -4.24096,2.333466 -4.62514,4.280091 -0.28632,1.450775 -1.85327,8.262773 -3.48212,15.137773 -1.62884,6.875 -3.41268,15.99994 -3.96408,20.27765 -0.5514,4.2777 -1.85913,9.4527 -2.90605,11.5 -2.22964,4.36012 -13.20784,15.18789 -17.81385,17.56975 -8.49007,4.39039 -22.834536,5.68562 -33.745242,3.04701 z m 7.505879,-15.05787 C 95.382752,137.6009 97.135557,135 99.694918,135 c 2.559362,0 4.312172,2.6009 4.944272,7.33654 0.45116,3.38002 0.98818,4.22478 2.85389,4.48932 4.53433,0.64294 17.79019,-8.19535 20.68368,-13.79075 0.79795,-1.54305 2.35969,-6.96988 3.47054,-12.05961 1.33279,-6.10662 3.38493,-11.74152 6.03367,-16.56767 2.20767,-4.02249 4.02383,-8.572319 4.03591,-10.110726 0.0121,-1.538407 0.89432,-4.719079 1.96054,-7.06816 1.06621,-2.349081 1.68099,-4.942312 1.36616,-5.762735 -0.31483,-0.820423 -0.0625,-2.106113 0.56078,-2.857089 1.19023,-1.434136 1.57017,-11.180662 0.61741,-15.837845 -0.30704,-1.500799 -1.67618,-4.376095 -3.04255,-6.389547 -1.36636,-2.013452 -2.4843,-4.498026 -2.4843,-5.521275 0,-1.023249 -0.37285,-1.860453 -0.82856,-1.860453 -0.4557,0 -2.93474,-1.39508 -5.50897,-3.100178 l -4.68041,-3.100177 -6.60698,3.186487 c -3.93133,1.896047 -7.45014,2.965997 -8.68899,2.642029 -1.14511,-0.299453 -2.6883,-0.04129 -3.42931,0.57369 -1.84464,1.530922 -20.728464,1.481504 -22.584782,-0.0591 C 87.586741,48.495258 86.221931,48.244272 85.334006,48.585 84.407955,48.94036 81.689014,47.988353 78.957258,46.352254 71.31502,41.775176 70.227974,41.712739 65.593562,45.58468 63.345233,47.463106 60.873267,49 60.100304,49 c -0.772962,0 -1.405386,0.82285 -1.405386,1.828555 0,1.005706 -1.380763,3.913128 -3.068363,6.460939 -2.722121,4.109652 -3.071648,5.469977 -3.097476,12.05505 -0.01601,4.082468 0.485561,8.384345 1.114607,9.559729 0.629046,1.175383 0.899513,2.532197 0.601036,3.015142 -0.298476,0.482945 0.345831,2.836144 1.431794,5.229333 1.085963,2.393189 1.984361,5.570357 1.99644,7.060373 0.01208,1.490017 2.009557,6.571809 4.43884,11.292859 2.956074,5.74482 4.81517,10.96738 5.62115,15.79088 0.662349,3.96393 2.034233,8.84629 3.04863,10.84969 3.391415,6.69794 15.563889,15.21325 20.913342,14.63002 2.116013,-0.23071 2.585357,-0.91205 3.055729,-4.43603 z M 123.01779,92.321494 c 0.44489,-0.741808 -0.13245,-1.297635 -1.55804,-1.5 -1.5987,-0.226936 -2.24305,-0.968638 -2.19077,-2.521773 0.041,-1.217318 -0.37,-1.925834 -0.91994,-1.585956 -0.58736,0.363009 -0.73277,-0.06642 -0.35544,-1.04972 0.79917,-2.082606 -0.86954,-2.136289 -4.67728,-0.15047 -2.53461,1.321856 -2.7308,1.323165 -1.64176,0.01096 1.62274,-1.955283 7.5115,-3.546319 12.52036,-3.382773 2.71872,0.08877 3.1992,0.274267 1.5,0.579099 -3.67769,0.659769 -4.59159,1.953969 -2.82848,4.005513 2.65751,3.09226 2.84896,4.012548 1.12551,5.410322 -0.96475,0.782448 -1.37981,0.861186 -0.97416,0.184801 z M 75.051658,89.487265 c -0.31927,-0.832004 -0.192647,-2.090713 0.281384,-2.79713 0.474032,-0.706417 0.07438,-0.425834 -0.888124,0.623519 -0.9625,1.049353 -1.75,1.408061 -1.75,0.79713 0,-0.610931 0.87274,-1.983524 1.939423,-3.050207 1.919231,-1.919231 1.911422,-1.9437 -0.75,-2.350168 -1.800038,-0.274913 -1.273337,-0.460294 1.592696,-0.560577 3.988647,-0.139563 11.217881,2.009204 11.217881,3.334325 0,0.322416 -0.870416,0.120378 -1.934259,-0.448973 -4.326016,-2.315214 -7.973709,-0.343152 -4.952873,2.677684 0.612077,0.612077 0.810519,1.602077 0.440983,2.2 -0.993955,1.608252 -4.527696,1.318867 -5.197111,-0.425603 z m -9.603729,-2.688524 c -0.762048,-1.985866 1.055632,-3.819016 3.696989,-3.728456 1.961928,0.06727 1.967281,0.102693 0.124609,0.82461 -1.058964,0.414878 -2.217775,1.587848 -2.575133,2.6066 -0.550265,1.568683 -0.741105,1.614193 -1.246465,0.297246 z m 67.262301,-0.08097 c -0.008,-0.980224 -1.02781,-2.1892 -2.26531,-2.686614 -2.20875,-0.887807 -2.21099,-0.905552 -0.12244,-0.967776 2.7737,-0.08264 4.55262,2.037914 3.33055,3.970152 -0.77217,1.220897 -0.93005,1.168021 -0.9428,-0.315762 z M 63.694918,79.570368 c 0,-1.446785 5.508481,-2.997805 14.462041,-4.072071 5.520877,-0.662407 10.825459,-1.543652 11.787959,-1.958325 2.531129,-1.090482 2.200207,1.148717 -0.373311,2.526022 -1.16782,0.624999 -6.68032,1.375524 -12.25,1.667833 -5.569679,0.29231 -10.914189,0.937613 -11.876689,1.434006 -0.9625,0.496394 -1.75,0.677535 -1.75,0.402535 z m 70.000002,-0.468262 c -0.825,-0.460393 -6.41676,-1.100969 -12.42614,-1.423504 -9.47521,-0.508554 -11.20153,-0.875173 -13,-2.760821 l -2.07386,-2.174394 2.5,0.727356 c 1.375,0.400045 7.01708,1.290884 12.53796,1.979642 8.8847,1.108411 14.46204,2.683729 14.46204,4.084799 0,0.609446 -0.21545,0.562794 -2,-0.433078 z"
     style="fill:#2a232b" />
  <path
     inkscape:connector-curvature="0"
     id="path1369"
     d="m 91.694918,158.30915 c -4.078278,-0.68269 -12.313584,-3.50278 -15,-5.13658 -4.429438,-2.69387 -14.098412,-12.56064 -16.104131,-16.43358 -1.071265,-2.06856 -2.385047,-7.24356 -2.919514,-11.5 -0.822639,-6.55141 -5.405578,-27.83387 -7.796348,-36.205045 -0.465446,-1.629739 -1.782737,-2.775349 -3.884308,-3.378072 -1.749007,-0.501608 -3.400622,-1.486915 -3.670256,-2.18957 -0.377719,-0.984319 0.125444,-0.956337 2.192157,0.12191 1.47532,0.769706 3.233344,1.402238 3.90672,1.405626 1.715,0.0086 4.27568,5.323644 4.27568,8.874714 0,3.95724 0.915571,6.131447 2.581989,6.131447 2.976651,0 -1.321484,-13.104274 -5.820688,-17.746274 C 47.72172,80.464177 46.840859,79 47.498751,79 c 1.791516,0 1.602371,-12.417991 -0.212081,-13.923853 -1.184468,-0.983021 -1.016914,-1.560076 1.054425,-3.631415 2.046549,-2.046549 2.411233,-3.263775 2.158248,-7.203702 -0.263666,-4.106258 0.05483,-5.046662 2.378823,-7.023756 2.995164,-2.548082 5.335999,-8.421755 4.364881,-10.952449 -0.54651,-1.42418 -0.357287,-1.40209 1.368542,0.159763 2.628578,2.378831 6.384904,1.439098 9.139289,-2.286408 l 2.094887,-2.833487 2.847654,2.847654 c 3.424204,3.424204 8.577771,3.821334 12.140715,0.935553 2.359764,-1.911274 2.36189,-1.910775 4.922436,1.15568 3.340674,4.000719 7.176141,3.358919 8.889772,-1.487552 1.034652,-2.926193 1.257716,-3.069262 2.202058,-1.41233 1.61306,2.8303 7.23926,4.83768 10.29869,3.674488 1.40131,-0.532777 2.54783,-1.724567 2.54783,-2.648423 0,-1.563961 0.12605,-1.565667 1.82874,-0.02475 2.80496,2.538454 8.78692,2.13024 11.71671,-0.799557 1.42106,-1.421056 2.45455,-1.907366 2.45455,-1.154989 0,3.549639 8.30689,7.203751 12.63525,5.558111 2.28979,-0.870578 2.4427,-0.761161 1.81727,1.300433 C 143.77185,40.487055 143.4631,41.725 143.46132,42 c -0.0202,3.112126 0.67691,4.282945 3.17537,5.33347 2.22652,0.936181 2.71652,1.593071 2.01532,2.701727 C 146.35409,53.668374 149.00255,59 153.10522,59 c 1.60535,0 1.5777,0.283352 -0.32874,3.368034 -2.43518,3.940209 -2.71246,8.175888 -0.58857,8.990901 1.23246,0.472942 1.04862,1.227722 -1.05357,4.325477 -1.66323,2.450904 -2.35142,4.53008 -1.98398,5.99407 0.39183,1.561176 -0.008,2.546668 -1.31608,3.246935 -1.03326,0.552986 -2.61232,2.551497 -3.50901,4.441135 -1.97322,4.158251 -2.22369,10.997128 -0.38035,10.385067 1.28106,-0.425361 1.99059,-2.319532 3.42882,-9.153657 0.82526,-3.921447 1.1671,-4.259585 6.99599,-6.920396 2.53025,-1.155025 3.0716,-1.180305 2.66646,-0.124518 -0.27959,0.728606 -1.8156,1.611858 -3.41334,1.962782 -3.4627,0.760536 -4.09672,1.643582 -4.98833,6.947604 -0.3732,2.220111 -1.84711,8.414936 -3.27536,13.766266 -1.42824,5.35134 -3.05897,13.41555 -3.62384,17.92047 -0.56487,4.50493 -1.95776,10.11339 -3.09531,12.46326 -2.56385,5.29621 -13.10836,15.30295 -19.08633,18.11293 -7.43323,3.49403 -19.28422,5.01813 -27.858762,3.58279 z m 20.494382,-3.51063 c 6.32592,-1.59513 10.98906,-4.38625 16.23944,-9.7201 5.88731,-5.98091 9.88769,-13.55986 11.40327,-21.60415 0.61907,-3.28585 2.11848,-9.62555 3.33203,-14.08823 2.00324,-7.36664 2.04989,-8.07302 0.50657,-7.66943 -0.93493,0.24449 -1.93522,-0.16876 -2.22286,-0.91833 -0.79368,-2.068306 0.88853,-11.204063 2.71255,-14.731331 0.88899,-1.719127 1.35215,-3.553169 1.02924,-4.07565 -0.32291,-0.522481 -0.0724,-1.911643 0.55661,-3.087026 0.62905,-1.175384 1.13059,-5.484893 1.11454,-9.576689 -0.0258,-6.570667 -0.38756,-7.998117 -3.09747,-12.221153 -1.68757,-2.629839 -3.08106,-5.417129 -3.09666,-6.193978 -0.0156,-0.776849 -2.5409,-2.933653 -5.61178,-4.792898 l -5.58341,-3.380445 -5.85696,2.799369 c -3.22132,1.539653 -7.33352,2.953785 -9.13822,3.142516 -13.55716,1.417773 -20.174884,1.706416 -23.001759,1.00326 -1.803732,-0.44866 -4.812002,-0.997678 -6.685044,-1.22004 -1.873043,-0.222362 -5.028948,-1.47862 -7.013123,-2.791685 -5.959972,-3.944123 -7.353516,-4.032387 -11.510246,-0.729033 -2.060637,1.637588 -4.562386,3.23635 -5.559442,3.552803 -0.997057,0.316453 -2.088212,1.67258 -2.42479,3.013614 -0.336578,1.341034 -1.685113,4.019622 -2.996743,5.952417 -3.145787,4.635576 -4.445789,15.952001 -2.316493,20.164907 0.798576,1.580019 1.261368,3.404756 1.028426,4.054971 -0.232942,0.650215 0.264812,2.513316 1.106119,4.140226 1.819962,3.519417 3.553989,13.620747 2.602473,15.160335 -0.368802,0.59673 -1.385501,0.81062 -2.259331,0.4753 -1.394314,-0.53505 -1.352767,0.14864 0.339431,5.58569 1.060518,3.40745 2.414797,9.40406 3.00951,13.3258 2.12185,13.99222 11.212752,27.1375 22.267641,32.19859 9.028216,4.13326 20.359951,4.94523 31.126481,2.23037 z m -23.500856,-6.80046 c -6.828533,-1.89298 -16.700565,-9.59707 -19.679583,-15.35786 -0.842877,-1.62994 -2.16754,-6.60111 -2.943696,-11.04703 -0.776156,-4.44593 -2.728337,-10.89818 -4.33818,-14.33834 C 60.117141,103.81467 59.018927,101 59.286508,101 c 1.338745,0 7.352039,14.85527 8.362803,20.65951 1.944156,11.16416 5.901616,16.65556 16.463967,22.84551 5.948542,3.48608 9.83316,3.1215 10.708578,-1.00502 0.571812,-2.69539 0.646891,-2.74616 0.739434,-0.5 0.180122,4.3718 -2.38994,6.2408 -6.872846,4.99806 z m 16.756476,-0.0863 c -1.03724,-0.5993 -1.7094,-2.11092 -1.65032,-3.71142 l 0.0997,-2.70031 0.68987,2.5 c 1.41324,5.12144 9.49719,2.86769 18.70159,-5.21389 4.65606,-4.08807 6.34767,-7.59747 8.57109,-17.78149 1.68074,-7.69836 6.04531,-18.39662 7.9975,-19.60314 0.42375,-0.2619 -0.55262,2.35313 -2.16972,5.81117 -1.6171,3.45804 -3.6625,10.11235 -4.54532,14.78735 -0.88282,4.675 -2.47879,9.91901 -3.54659,11.65336 -5.19109,8.43152 -19.55423,16.91242 -24.14778,14.25837 z m -8.331739,-8.00205 c -1.856331,-2.05122 -1.855655,-2.11668 0.03614,-3.5 2.477993,-1.81195 3.991489,-1.78227 5.561169,0.10908 1.03151,1.24289 0.93478,1.87863 -0.53255,3.5 -2.247182,2.4831 -2.728244,2.47274 -5.064761,-0.10908 z M 75.694918,88.606989 c 0,-1.50843 2.429089,-2.844566 3.402234,-1.871421 C 80.414059,88.052475 79.577501,90 77.694918,90 c -1.1,0 -2,-0.626855 -2,-1.393011 z M 119.8678,88.340813 c 0.42145,-2.188412 3.32712,-2.498014 3.32712,-0.354508 0,0.817468 -0.82837,1.645834 -1.84081,1.840813 -1.3364,0.257366 -1.74367,-0.149909 -1.48631,-1.486305 z M 40.069204,69.532989 c -0.30962,-0.806856 -0.369962,-2.044356 -0.134093,-2.75 0.235869,-0.705644 0.665915,-0.04549 0.955658,1.467011 0.565736,2.953223 0.09904,3.682039 -0.821565,1.282989 z M 158.26268,69.098386 c 0.36479,-1.320888 1.0333,-5.595888 1.48558,-9.5 L 160.57059,52.5 l -0.27463,7.547162 c -0.15105,4.15094 -0.81956,8.42594 -1.48559,9.5 -1.11587,1.799511 -1.15887,1.764275 -0.54769,-0.448776 z M 38.8311,58.809017 c -0.0749,-3.680041 0.201318,-6.900223 0.613818,-7.15596 0.4125,-0.255737 0.620058,1.855205 0.461239,4.690983 -0.47739,8.524025 -0.930587,9.563152 -1.075057,2.464977 z m 2.942765,-11.39235 c 0.04798,-1.164943 0.284941,-1.4019 0.604167,-0.604167 0.288871,0.721875 0.253344,1.584375 -0.07895,1.916667 -0.332292,0.332291 -0.568641,-0.258334 -0.52522,-1.3125 z M 155.81092,44.70034 c -0.0638,-0.989813 -0.80256,-3.127313 -1.64168,-4.75 C 153.33012,38.327653 152.86856,37 153.14356,37 c 1.07541,0 3.64724,6.228583 3.22776,7.817132 -0.39089,1.480241 -0.45836,1.466178 -0.5604,-0.116792 z M 42.694918,43.617007 C 42.694918,42.543821 45.670297,37 46.246278,37 c 0.275,0 -0.243785,1.4625 -1.152856,3.25 -1.856235,3.6499 -2.398504,4.411135 -2.398504,3.367007 z M 147.21447,30.061588 c -0.33838,-1.066127 -2.18436,-3.316127 -4.10219,-5 C 141.19446,23.377714 140.03862,22 140.54376,22 c 1.18568,0 8.15116,7.693313 8.15116,9.002881 0,1.649846 -0.82443,1.125664 -1.48045,-0.941293 z m -95.733886,-0.63764 c 1.195125,-2.20621 7.062619,-7.992737 7.453903,-7.351046 0.143237,0.234904 -1.709794,2.417875 -4.117847,4.851046 -2.408053,2.433172 -3.909278,3.558172 -3.336056,2.5 z M 133.39893,17.495766 c -1.53779,-1.927296 -4.91279,-4.60633 -7.5,-5.953409 -5.13445,-2.6733505 -5.08164,-3.4147884 0.0781,-1.096647 3.92698,1.764288 6.79209,4.211725 9.15857,7.823426 2.49392,3.806206 1.59961,3.407954 -1.73668,-0.77337 z M 64.61525,17.235917 c 1.3344,-2.593056 7.389583,-6.762066 11.079668,-7.6283823 1.567721,-0.3680519 1.194809,-0.00117 -1,0.9838313 -1.925,0.863914 -5.242575,3.221776 -7.372388,5.239694 -2.800267,2.653146 -3.549813,3.042099 -2.70728,1.404857 z M 82.694918,9.3979467 c 0,-1.799124 7.998944,-3.3979467 17,-3.3979467 9.001062,0 17.000002,1.5988227 17.000002,3.3979467 0,0.275 -1.56055,-0.152038 -3.46788,-0.9489733 -4.69922,-1.9634585 -22.365023,-1.9634585 -27.064241,0 -1.907334,0.7969353 -3.467881,1.2239733 -3.467881,0.9489733 z"
     style="fill:#140f14" />
</svg>
