<?xml version="1.0" encoding="UTF-8" standalone="no"?>
<svg xmlns:rdf="http://www.w3.org/1999/02/22-rdf-syntax-ns#" xmlns="http://www.w3.org/2000/svg" height="200" viewBox="0 0 200 200" width="200" version="1.1" xmlns:cc="http://creativecommons.org/ns#" xmlns:dc="http://purl.org/dc/elements/1.1/">
 <path d="m13.1 196c.363-2.61 2.1-7.65 3.86-11.2 3.75-7.55 7.46-9.93 19.7-12.6 11.1-2.45 33.3-10.2 34.8-12.1 1.95-2.63 3.09-.552 4.26 7.73.578 4.11 2.29 11.4 3.81 16.3l2.76 8.81 4.82-7.6c2.65-4.18 5.9-8.32 7.23-9.18 3.08-2.02 2.34-2.91-6.39-7.7-3.75-2.06-7.38-4.63-8.06-5.72-.681-1.09-1.62-5.03-2.09-8.76-.804-6.4-1.24-7.26-7.88-15.5-3.87-4.82-8.02-11.2-9.23-14.2-1.78-4.39-2.65-5.42-4.54-5.42-1.94 0-3.01-1.41-6.32-8.25-5.92-12.3-9.12-20.4-9.12-23.1 0-2.38 1.86-5.05 4.02-5.78.5.4-.1-3.3-1.8-9.7-3.4-12.7-2.9-18.9 2.1-29.1 6.8-13.8 17.1-22.5 33.5-28 13.9-4.76 25.3-6 36.3-4 10.6 1.86 20.1 6.25 24.6 11.3l3.16 3.6 3.1-2.87 3.1-2.87-2.18 3.81c-2.8 4.89-2.76 5.05.825 3.19 3.63-1.88 3.89-.689.539 2.46l-2.46 2.31 3.83 2.77c6.03 4.37 8.61 10.7 8.53 21-.052 7.5-2.06 17.7-4.98 25.2-.469 1.21-.190 1.75.909 1.75.871 0 2.34 1.16 3.27 2.57 1.58 2.41 1.58 2.91-.0483 8.06-.953 3.02-3.24 8.38-5.08 11.9-1.84 3.53-3.87 8.02-4.52 9.98-.863 2.62-1.88 3.7-3.83 4.1-2.1.427-3.32 1.93-5.82 7.21-1.74 3.67-5.98 10-9.41 14.1-5.94 7.07-6.28 7.76-6.88 14-.347 3.61-1.16 7.52-1.8 8.68-.644 1.17-4.79 4-9.21 6.3s-8.03 4.52-8.03 4.93c0 .414 1.61 2.3 3.58 4.2s5.21 6.08 7.2 9.29l3.62 5.84 2.77-8.84c1.52-4.86 3.24-12.2 3.82-16.3 1.16-8.28 2.31-10.4 4.26-7.73 1.44 1.94 23.6 9.69 34.8 12.1 12.2 2.69 16 5.07 19.7 12.6 1.76 3.55 3.5 8.59 3.86 11.2l.660 4.75h-71.4l.663-3.02c.529-2.41-.101-4.32-3.13-9.5-2.09-3.56-4.07-6.48-4.41-6.48s-1.63 1.08-2.86 2.39c-2.09 2.23-2.17 2.78-1.17 8.18 1.63 8.84 1.93 8.43-5.93 8.43-3.85 0-6.99-.338-6.99-.75.0081-.412.698-3.65 1.53-7.19 1.46-6.2 1.44-6.52-.511-8.47-2.48-2.48-3.53-1.64-7.48 6.05-1.86 3.6-2.45 5.92-1.99 7.75l.655 2.61h-72.2zm94-62.6c2.65-1.13 1.85-1.26-7.33-1.21-8.98.0509-9.94.214-7.47 1.27 3.68 1.57 11 1.54 14.8-.0584zm-35.7-40.7c-.334-.870-.607-2.32-.607-3.21 0-1.5-.138-1.49-1.66.0316-1.37 1.37-1.44 1.93-.378 3.21 1.68 2.02 3.43 2 2.65-.0316zm59.7-3.1c-1.36-1.64-1.38-1.62-2.29 2.15-.711 2.95-.703 2.96 1.36 1.1 1.6-1.45 1.81-2.19.932-3.25z" fill="#e3c8ad"/>
 <path d="m12.7 200c0-3.08 2.58-12.2 4.58-16.2 2.89-5.73 7.55-8.65 16.9-10.6 10.4-2.14 35.8-11 37.3-13 1.92-2.63 2.98-.654 4.13 7.68.568 4.12 2.34 11.8 3.93 17 1.59 5.22 3.18 11 3.52 12.8l.621 3.25h-35.5c-21.8 0-35.5-.368-35.5-.951zm79.7-2.8c.325-2.06 1.17-5.41 1.87-7.43 1.21-3.47 1.14-3.77-1.15-5.27-1.34-.876-2.43-1.93-2.43-2.35 0-.416 1.65-2.45 3.66-4.52l3.66-3.77-2.36-1.7c-1.3-.938-4.83-3.05-7.83-4.7-7.08-3.88-9.08-6.74-9.83-14.1-.562-5.45-1.15-6.6-7.1-13.9-3.57-4.39-7.79-10.7-9.37-14.1-2.35-5.02-3.42-6.27-5.76-6.74-1.85-.370-3.13-1.4-3.57-2.87-.377-1.26-2.64-6.34-5.03-11.3-2.39-4.95-4.92-11.2-5.63-13.9-1.26-4.76-1.23-4.89 1.5-7.25l2.79-2.4-1.99-7.25c-3.2-12.5-3.5-16.8-1.7-23.8 2.2-8.4 6.7-16.1 13.5-22.9 14.8-14.7 43.4-21.8 65.4-16.2 9.67 2.51 12.4 3.92 17.7 9.19l4.23 4.23 3.14-2.9 3.14-2.9-2.22 3.88c-2.54 4.44-2.29 5.3 1.03 3.57l2.34-1.22-2.32 2.53-2.32 2.53 5.03 4.7c6.05 5.66 7.55 9.61 7.43 19.5-.0792 6.3-2.62 19.4-4.92 25.4-.395 1.03-.054 1.58.978 1.58.871 0 2.32 1.13 3.22 2.5 1.52 2.32 1.52 2.88-.066 7.75-.937 2.89-3.46 8.87-5.62 13.3-2.15 4.42-3.91 8.51-3.91 9.1 0 1.47-3.36 4.37-5.08 4.37-.782.002-3.11 3.3-5.18 7.32s-6.45 10.5-9.75 14.4c-5.58 6.63-5.99 7.47-5.99 12.1 0 8.56-2.24 11.2-14.1 16.7-2.55 1.18-4.96 2.69-5.36 3.35-.441.713.724 2.69 2.89 4.91l3.63 3.72-2.6 2.44c-2.73 2.56-2.74 2.85-.794 13.7l.584 3.25h-14.1l.590-3.75zm16.6-64 3.2-1.75-6.25-.298c-3.44-.164-9.06-.164-12.5 0l-6.25.298 3 1.71c4.11 2.34 14.5 2.37 18.8.04zm-37.3-43.2v-4.02l-2.5 1.64c-2.96 1.94-3 2.19-.845 4.58 2.51 2.77 3.35 2.23 3.35-2.19zm16.3 3.42c.710-.710-1.4-4.39-2.52-4.39-.418 0-.759 1.12-.759 2.5 0 2.31 1.81 3.36 3.27 1.89zm26.7-3.03v-3.63l-2 2.54c-1.1 1.4-2 3.03-2 3.63 0 .601.9 1.09 2 1.09 1.63 0 2-.667 2-3.63zm16.4 1.34c.823-1.3.562-2.17-1.18-3.91l-2.24-2.24v4.31c0 4.45 1.32 5.17 3.41 1.84zm-47.8-4.6c-.370-.598-1.34-1.09-2.15-1.09-1.19 0-1.26.407-.348 2.11.767 1.43 1.45 1.78 2.15 1.09.561-.561.718-1.51.348-2.11zm43.3.246c-.487-2.51-2.82-2.85-2.82-.416 0 1.23.646 2.08 1.57 2.08.931 0 1.44-.680 1.25-1.67zm-80-27c-.417-9.24-.288-10 2.49-15.5 1.61-3.16 2.35-5.26 1.64-4.67-2.7 2.24-5.62 10.1-5.68 15.2-.0529 4.91 1.08 14.7 1.7 14.7.158 0 .0886-4.39-.153-9.75zm106-4.25c.029-6.77-.435-9.56-2.28-13.7-1.27-2.87-2.92-5.72-3.65-6.33-.736-.611-.124 1.29 1.36 4.22 2.47 4.88 2.7 6.3 2.7 17 0 8.02.288 11 .918 9.5.505-1.21.934-6.02.954-10.7zm-70.3-37.3c7.73-2.79 9.59-3.07 20.5-3.06 9.79.0139 13.1.418 18 2.19 4.09 1.48 5.37 1.69 4.01.659-3.61-2.76-14.4-5.45-21.9-5.45-8.93 0-17 2.03-26.1 6.55-7.57 3.77-7.28 3.72 5.5-.897zm34.3 180c.341-1.79 1.92-7.52 3.52-12.8 1.59-5.22 3.36-12.9 3.93-17 1.15-8.33 2.21-10.3 4.13-7.68 1.44 1.98 26.9 10.8 37.3 13 9.38 1.94 14 4.85 17 10.6 1.8 3.55 4.54 13.7 4.54 16.8 0 .174-16 .316-35.5.316h-35.5z" fill="#dab997"/>
 <path d="m12.7 201c0-3.09 2.74-13.2 4.54-16.8 2.92-5.76 7.56-8.68 16.9-10.6 10.9-2.27 34.6-10.3 36.8-12.5 1.07-1.07 2.21-1.7 2.51-1.39.308.308 1.2 4.28 1.98 8.83s2.7 12.5 4.27 17.8c1.57 5.22 3.13 10.7 3.46 12.2l.606 2.75h-35.6c-19.5 0-35.5-.142-35.5-.316zm80.2-5c.507-2.79 1.3-6.05 1.76-7.25.659-1.72.281-2.64-1.81-4.36l-2.64-2.18 4-4.14c3.91-4.05 3.95-4.18 2-5.65-1.1-.833-4.48-2.78-7.5-4.32-3.02-1.55-6.24-3.65-7.15-4.67-1.96-2.21-3.84-8.58-3.84-13.1-.0044-2.5-1.34-4.7-6.06-10-3.33-3.74-7.67-10.1-9.65-14-2.35-4.73-4.19-7.25-5.29-7.25-2.08 0-4.52-2.66-5.5-6-.403-1.38-1.55-3.86-2.55-5.51-2.41-3.99-7.95-17.9-7.95-19.9 0-.896 1.13-2.76 2.51-4.14l2.51-2.51-2.15-8.2c-3.9-15.4-2.5-24.6 5.9-37.3 7.2-10.8 15.9-16.8 32.3-22.2 7.55-2.49 10-2.81 22-2.87 15.5-.0759 25.1 2.18 30.6 7.14 1.68 1.54 2.36 2.28 1.5 1.66-18-13.2-60.2-8-78.2 9.6-5.7 5.5-11.6 15-13.3 21.3-1.6 6.2 0 17.3 4.1 28.2l3 8 .0486-7.92c.0267-4.35.274-7.69.550-7.42.276.276 1.25 4.51 2.16 9.42l1.66 8.92 1.24-6.04c.679-3.32 2.57-8.99 4.21-12.6l2.97-6.55-7.49-2.2c-8.76-2.58-9.27-3.89-.633-1.62 9.65 2.53 22.8 3.52 31.8 2.4 15.6-1.94 32.7-6.3 40.4-10.3 2.29-1.18 3.29-2.55 3.78-5.12 1.18-6.31 1.94-4.47 1.61 3.95-.299 7.74-.0718 8.84 3.68 17.7 2.2 5.17 4.32 11.1 4.71 13.3 1 5.48 2 3.03 3.6-8.88l1.34-10 .5 9 .5 9 2.75-10.7c4.24-16.5 3.69-29.8-1.47-35.7-1.81-2.06-1.59-1.98 1.07.410 1.84 1.65 4.27 4.8 5.42 7 3.47 6.66 2.38 21.1-2.85 37.8-.361 1.15-.019 1.75.995 1.75 2.33 0 4.88 4.5 4.08 7.2-1.32 4.51-5.52 14.4-9.23 21.8-2.58 5.11-4.46 7.63-5.96 8-1.49.367-3.34 2.8-5.73 7.54-1.94 3.85-6.19 10.1-9.44 13.9-5.65 6.61-5.93 7.2-6.31 13.2-.491 7.71-2.41 10.1-12 14.9-3.67 1.86-6.99 3.88-7.36 4.49-.379.613.945 2.79 2.94 4.83l3.63 3.72-2.6 2.44c-2.73 2.56-2.74 2.85-.794 13.7l.584 3.25h-13.9zm16.1-62.7 3.2-1.75-6.25-.298c-3.44-.164-9.06-.164-12.5 0l-6.25.298 3 1.71c4.11 2.34 14.5 2.37 18.8.04zm-37.3-43.9v-4.73l-2.69 2.69c-2.63 2.63-2.65 2.74-.845 4.73 2.78 3.08 3.53 2.5 3.53-2.69zm17 3.84c0-.489-.837-1.92-1.86-3.19l-1.86-2.3-.468 3.19c-.411 2.8-.187 3.19 1.86 3.19 1.28 0 2.33-0.4 2.33-.889zm26.2-2.61-.408-3.5-1.89 2.4c-2.51 3.19-2.39 4.59.408 4.59 2.04 0 2.25-.397 1.89-3.5zm16.4.942c1.1-1.69.941-2.19-1.16-3.74l-2.43-1.8v4.13c0 4.4 1.31 4.92 3.59 1.41zm-47.3-3.9c0-.793-.9-1.44-2-1.44-2.25 0-2.56 1.04-.840 2.76 1.38 1.38 2.84 0.7 2.84-1.32zm43-.5c0-1.07-.675-1.94-1.5-1.94-1.48 0-2.1 3.07-.861 4.31 1.04 1.04 2.36-.278 2.36-2.37zm-45.6-10.5c6.8 0 9.87-.333 9.2-1-1.67-1.66-16.9-1.07-20.9.813-1.92.916-2.38 1.33-1 .926 1.38-.407 7.09-.740 12.7-.740zm48.3-.258c-4.07-1.86-18.5-2.32-21.3-.683-1.32.783.510.952 7 .648 4.83-.226 10.4.0436 12.3 0.6 5.14 1.49 5.98 1.25 2-.565zm-14 122c.349-1.51 2.1-7.92 3.9-14.2 1.79-6.32 3.56-14 3.93-17 .908-7.52 1.79-8.79 4.33-6.24 2.19 2.19 25.8 10.2 36.8 12.5 9.35 1.95 14 4.87 16.9 10.6 1.8 3.55 4.54 13.7 4.54 16.8 0 .174-16 .316-35.5.316h-35zm24-134c.048-1.16.285-1.4.604-.604.289.722.253 1.58-.0789 1.92-.332.332-.569-.258-.525-1.31zm-55.3-6.5c12.7-.724 20.1-2 31.5-5.42 1.1-.330.507.0950-1.32.945-7.47 3.48-14.8 4.71-29.7 5l-15 .299zm53.3-3.49c.0111-2.2.216-2.98.455-1.74s.230 3.04-.0202 4c-.250.956-.446-.0617-.435-2.26zm10.9-1.5c0-1.38.227-1.94.504-1.25.277.688.277 1.81 0 2.5-.277.688-.504.125-.504-1.25zm-50.5-3.7c1.24-.239 3.04-.230 4 .0202.956.250-.0617.446-2.26.435-2.2-.0111-2.98-.216-1.74-.455zm6.99-.955c.688-.277 1.81-.277 2.5 0 .688.277.125.504-1.25.504s-1.94-.227-1.25-.504zm-34.3-2.8c1.38-.786 3.18-1.43 4-1.43.825.002-.0142.661-1.86 1.46-4.26 1.85-5.4 1.83-2.14-.0391zm7.62-2.48c1.16-.471 4.31-1.1 7-1.41 4.73-.537 4.7-.510-1.12.875-6.73 1.6-9.05 1.81-5.88.534zm13.1-2.68c.688-.277 1.81-.277 2.5 0 .688.277.125.504-1.25.504s-1.94-.227-1.25-.504zm-37.8-2.72c0-.208.788-.995 1.75-1.75 1.59-1.24 1.62-1.21.378.378-1.31 1.67-2.13 2.2-2.13 1.37zm70-5.62c-.901-.582-1.02-.975-.309-.985.655-.0084 1.47.435 1.81.985.767 1.24.421 1.24-1.5 0zm-7.19-2.68c.722-.289 1.58-.253 1.92.0790.332.332-.258.569-1.31.525-1.16-.0480-1.4-.285-.604-.604zm-38.6-2.4c.678-.683 1.49-.991 1.79-.683.308.308-.247.867-1.23 1.24-1.43.543-1.54.428-.560-.560zm45.8-2.96c-2.75-1.58-4.64-2.88-4.21-2.89 1.29-.0381 8.52 3.86 9.2 4.96.788 1.27.964 1.35-4.99-2.07zm19.2 2.44c-.310-.501.526-1.96 1.86-3.24 2.84-2.74 3.17-1.66.541 1.77-1.01 1.31-2.09 1.98-2.4 1.47zm-58.8-1.8c1.65-.756 3.9-1.36 5-1.35 1.1.0120-.025.660-2.5 1.44-5.55 1.75-6.44 1.72-2.5-.0878zm50.4-1.21c-1.24-1.59-1.21-1.62.378-.378 1.67 1.31 2.2 2.13 1.37 2.13-.208 0-.995-.788-1.75-1.75zm-42-.9c.973-.254 2.32-.237 3 .0370.677.274-.119.481-1.77.461-1.65-.0204-2.2-.244-1.23-.498zm16.5-3.99c.722-.289 1.58-.253 1.92.0790.332.332-.258.569-1.31.525-1.16-.0480-1.4-.285-.604-.604z" fill="#caa178"/>
 <path d="m13.2 197c2.72-16.2 7.59-21.3 24-24.8 11.5-2.48 31.6-9.36 34.2-11.7 2.07-1.88 2.18-1.89 2.69-.128.296 1.01.829 4.09 1.19 6.84.357 2.75 2.41 11.2 4.56 18.8 2.15 7.61 3.91 14 3.91 14.2 0 .224-16 .408-35.5.408h-35.7zm79.7-1c.507-2.79 1.3-6.05 1.76-7.25.659-1.72.281-2.64-1.81-4.36l-2.64-2.18 4-4.13 4-4.13-2.5-1.92c-1.38-1.05-5.03-3.28-8.12-4.93-3.09-1.66-6.06-3.59-6.61-4.28-1.25-1.6-3.28-9.81-3.28-13.3 0-1.84-1.85-4.68-6.06-9.31-3.49-3.83-7.63-9.88-9.77-14.2-2.3-4.69-4.21-7.41-5-7.15-1.41.469-5.17-2.49-5.17-4.07 0-.540-1.76-4.63-3.91-9.1-2.15-4.46-4.71-10.4-5.69-13.2-1.69-4.86-1.7-5.27-.0712-7.75.944-1.44 2.34-2.62 3.1-2.62 1.1 0 .949-1.37-.742-6.75-1.52-4.85-2.13-9.43-2.15-16.2-.0279-8.61.261-10.1 3.08-16 4.3-8.97 9.7-15.3 17.5-20.6 16.2-10.9 39.1-15 58.7-10.5 8.26 1.9 5.53 2.17-3.88.388-14.5-2.74-31.5-.0934-46.8 7.29-14.2 6.81-25.9 22-27.7 35.7-.686 5.49 1.5 16.8 5.71 29.6 2.47 7.5 6.74 17.4 7.25 16.9.193-.206 1.13-6 2.09-12.9.956-6.88 2.78-15.3 4.06-18.7l2.32-6.25-4.49-1.13c-7.17-1.81-4.62-1.91 5.12-.211 5.91 1.03 12 1.39 18 1.04 11.5-.667 30.6-4.91 41.3-9.14l8.25-3.28v2.28c0 5.86 10.8 46.1 12 44.7.813-.903 7.06-20.8 9.39-29.9 2.05-8 2.05-21.3.0181-26.1-.854-2.04-2.77-5.07-4.25-6.72l-2.7-3 3.38 3c7.67 6.82 9.15 18.3 4.64 36.1-1.37 5.39-2.38 9.89-2.25 9.99.131.102 1.25.712 2.49 1.36 1.67.871 2.25 2.06 2.25 4.62 0 3.67-4.2 15.3-7.03 19.5-.933 1.38-2.23 4.15-2.89 6.17-1.32 4.07-3.36 6.24-5.28 5.6-.763-.254-2.73 2.57-4.99 7.16-2.05 4.17-6.39 10.6-9.66 14.4-5.58 6.39-5.95 7.15-6.36 12.8-.552 7.63-2.6 10.4-11.2 15-9.47 5.12-9.58 5.31-5.8 9.21 3.77 3.88 3.9 4.76 1.1 7.3-2.16 1.95-2.2 3.91-.312 13.2l.664 3.25h-14zm13-61.4c2.01-.338 4.2-1.28 4.87-2.09 1.07-1.28-.360-1.47-11.1-1.47-11 0-12.2.160-10.8 1.52 1.56 1.56 9.25 3.47 11.9 2.95.825-.161 3.14-.568 5.15-.906zm-34.3-45.9v-4.73l-2.69 2.69c-2.63 2.63-2.65 2.74-.845 4.73 2.78 3.08 3.53 2.5 3.53-2.69zm17 3.98c-.0036-.412-.850-2.03-1.88-3.59l-1.87-2.84-.419 3.59c-.374 3.2-.170 3.59 1.88 3.59 1.26 0 2.3-.338 2.29-.75zm26.2-2.91-.427-3.66-1.85 2.41c-2.5 3.25-2.36 4.91.405 4.91 2.06 0 2.25-.384 1.87-3.66zm16.5 1.03c1.18-1.78 1.05-2.29-1.16-4.37l-2.5-2.35v4.76c0 5.05 1.2 5.69 3.67 1.96zm-48.3-3.9c0-.793-.9-1.44-2-1.44-2.25 0-2.56 1.04-.840 2.76 1.38 1.38 2.84 0.7 2.84-1.32zm43 .0590c0-1.83-.533-2.5-2-2.5-2.28 0-2.4.377-.965 3.07 1.45 2.7 2.96 2.41 2.96-.566zm-45.1-11c12 .0210 13.4-1.69 1.88-2.34-7.29-.412-16 1.5-19.6 4.3-1.63 1.28-1.18 1.24 2.5-.206 3.33-1.31 7.3-1.76 15.2-1.75zm54.8 2.93c0-.306-2.14-1.52-4.75-2.7-3.71-1.68-6.76-2.16-13.9-2.19-5.85-.0301-9.63.387-10.4 1.15-.930.926.799 1.08 7.69.664 8.2-.489 13.1.334 21.1 3.54.138.0549.25-.150.25-.456zm-21 121c0-.224 1.76-6.64 3.91-14.2 2.15-7.61 4.2-16.1 4.56-18.8.357-2.75.890-5.83 1.19-6.84.515-1.76.628-1.75 2.69.128 2.53 2.3 22.7 9.18 34.2 11.7 16.4 3.54 21.2 8.58 24 24.8l.630 3.75h-35.5c-19.5 0-35.5-.184-35.5-.408z" fill="#b6895e"/>
 <path d="m13.2 197c1.69-10.1 5.36-17.4 10.1-20.2 1.79-1.06 8.05-3.08 13.9-4.49 14.3-3.45 31.5-9.38 34.2-11.8l2.2-1.99.543 2.38c.299 1.31.996 5.36 1.55 9s2.29 10.8 3.86 16c1.57 5.16 3.16 10.6 3.52 12.1l.662 2.75h-71.1zm79.6-1c.481-2.61 1.29-5.97 1.81-7.46.804-2.34.564-2.98-1.75-4.68l-2.69-1.97 3.96-4.07c4.7-4.84 4.6-5.03-5.96-10.8-7.59-4.14-8.87-6.19-10.2-16.3-.452-3.44-1.58-5.58-4.74-9.01-5.57-6.04-10.3-13-12.7-18.9-1.53-3.69-2.49-4.78-4.15-4.72-1.71.0579-2.93-1.48-5.89-7.41-4.49-9-8.53-18.5-9.38-22.2-.458-1.95-.0640-3.23 1.46-4.75 2.29-2.29 4.09-2.71 4.09-.974 0 2.57 9.39 20.9 10.1 19.7.790-1.45 2.46-9.76 3.42-17 .611-4.63.708-4.73 6.32-6.95 4.68-1.85 7.56-2.24 16.1-2.19 8.58.0506 10.1-.159 8.7-1.19-4.66-3.41-16.8-2.4-25.8 2.14l-4.68 2.36 1.99-7.17c1.09-3.94 2.18-7.49 2.43-7.88.242-.392 2.13-.320 4.2.160 12.5 2.91 40.5-2.14 56.5-10.2l5.75-2.9v3.14c0 2.61 3.14 18.3 4.54 22.6.266.830-.858.618-3.32-.627-8.16-4.13-20.5-4.9-24.9-1.57-1.54 1.15-.357 1.31 8.2 1.14 12.6-.249 20.1 1.94 21.2 6.13 1.25 5.14 6.53 18.2 7.36 18.2.811 0 3.78-7.17 6.27-15.1 1.29-4.13 1.78-4.42 4.78-2.82 1.32.705 1.93 2.1 1.93 4.36 0 3.2-4.68 15.9-7.39 20.1-.718 1.11-1.86 3.7-2.54 5.77-1.2 3.66-4.25 6.37-5.97 5.31-.470-.290-1.78 1.7-2.91 4.43-2.45 5.9-7.13 12.9-12.6 18.8-3.53 3.84-4.07 5.08-4.67 10.9-.778 7.51-2.63 10.5-8.41 13.6-2.2 1.17-5.96 3.21-8.35 4.53l-4.35 2.41 3.6 3.69c4.18 4.28 4.35 5.12 1.51 7.69-1.8 1.63-2 2.6-1.44 6.9.359 2.75.901 6.02 1.21 7.26.533 2.17.308 2.25-6.43 2.25h-6.98zm13-61.3c2-.556 4.2-1.68 4.87-2.49 1.08-1.3-.306-1.48-11-1.48-10.8 0-12.1.179-11 1.5 2.53 3.05 10.8 4.24 17.1 2.47zm-34.1-45.7c.197-2.48.0956-4.5-.225-4.5s-1.64 1.12-2.92 2.49c-2.27 2.42-2.29 2.55-.519 4.5 2.66 2.94 3.27 2.52 3.67-2.49zm16.8 3.75c-.0036-.412-.850-2.03-1.88-3.59l-1.87-2.84-.419 3.59c-.374 3.2-.170 3.59 1.88 3.59 1.26 0 2.3-.338 2.29-.75zm26.2-2.91-.427-3.66-1.85 2.41c-2.5 3.25-2.36 4.91.405 4.91 2.06 0 2.25-.384 1.87-3.66zm3.83 3.22c0-.243-.45-.719-1-1.06-.55-.340-1-.141-1 .441s.45 1.06 1 1.06 1-.198 1-.441zm12-1.5c1.77-1.95 1.75-2.08-.519-4.5-1.42-1.51-3.45-2.49-5.16-2.49-3.16 0-3.77 1.97-1.25 4.06 1.31 1.08 1.73 1.06 2.48-.128.654-1.03.913-.525.924 1.81.0177 3.75.957 4.08 3.52 1.24zm-47.3-4.5c0-.793-.9-1.44-2-1.44-2.25 0-2.56 1.04-.840 2.76 1.38 1.38 2.84 0.7 2.84-1.32zm32.3 112c5.98-21.2 7.6-27.6 8.13-31.8.346-2.75.872-5.83 1.17-6.84.516-1.76.625-1.76 2.69.112 3.15 2.85 34.9 13.2 40.5 13.2.799 0 3.45.999 5.9 2.22 6.08 3.03 9.85 9.79 11.7 21l.630 3.75h-35.6c-33.4 0-35.6-.107-35.1-1.75z" fill="#92614a"/>
 <path d="m13.3 198c2.1-11.8 5.27-18.2 10.4-20.7 1.93-.978 7.56-2.78 12.5-4.01 14.3-3.56 32.8-9.94 35.2-12.1 2.05-1.93 2.18-1.94 2.68-.191.287 1.01.810 4.31 1.16 7.34.351 3.02 1.93 9.78 3.52 15 1.58 5.22 3.31 11.4 3.83 13.8l.949 4.25h-70.8zm79.5-1.5c.481-2.61 1.29-5.97 1.81-7.46.804-2.34.564-2.98-1.75-4.68l-2.69-1.97 3.95-4.07c2.17-2.24 4.67-4.07 5.55-4.07 1.76 0 7.99 5.96 7.99 7.64 0 .576-.944 1.9-2.1 2.94-1.8 1.63-2 2.6-1.44 6.9.359 2.75.901 6.02 1.21 7.26.533 2.17.308 2.25-6.43 2.25h-6.98zm24 .5c.518-2.34 2.04-7.73 3.37-12 1.34-4.25 2.89-10.8 3.46-14.5.566-3.72 1.27-7.84 1.57-9.15l.543-2.38 2.2 2.06c2.5 2.34 22.1 9.14 35.3 12.3 16.3 3.86 19.7 7.56 22.8 24.7l.578 3.25h-70.8zm-24.8-32c-8.35-2.2-13.1-6.53-14.1-12.7-.571-3.85-1.7-5.99-5.2-9.89-6.13-6.84-10.2-13-12.3-18.4-.957-2.52-2.35-4.63-3.09-4.69-.744-.0573-1.88-.173-2.53-.257-1.29-.167-6.61-10.7-11.3-22.5-2.32-5.81-2.8-8.07-2.08-9.95.942-2.48 3.87-4.3 4.97-3.1.334.363.0169.871-.704 1.13-1.06.377-1.04.784.115 2.11.784.905 3.35 5.34 5.71 9.85 2.35 4.51 4.7 8.11 5.22 8 .516-.111 2.16 3.85 3.65 8.8s3.74 11 4.99 13.5c3.31 6.6 13.2 18.2 19.8 23.2 5.67 4.28 5.69 4.29 14.3 4.29 8.65 0 8.66-.004 14.3-4.29 6.95-5.25 15.8-15.8 19.7-23.3 1.57-3.08 4.04-9.83 5.48-15 3.4-12.2 3.61-12.7 4.19-11.1.877 2.35 2.05 1.25 4.29-4 1.23-2.89 3.33-6.71 4.67-8.5 1.99-2.64 2.14-3.25.833-3.25-.885 0-1.33-.45-.992-1 1.6-2.6 5.5.875 5.5 4.9 0 3.13-3.36 11.8-7.91 20.5-1.7 3.22-3.09 6.47-3.09 7.21 0 1.51-3.3 3.61-5.02 3.2-.608-.145-1.91 1.8-2.88 4.33-2.16 5.57-7.04 12.8-12.7 18.9-3.68 3.95-4.27 5.21-4.54 9.75-.181 3.02-.789 5.21-1.44 5.21-.620.0001-1.72.708-2.43 1.57-3.73 4.5-17.8 7.57-25.4 5.55zm-35.5-50c-1.1-3.83-2.85-7.06-5.69-10.5-1.68-2.02-2.17-3.53-1.73-5.31.668-2.66-2.22-10.4-3.89-10.4-.577 0-.688 1.9-.277 4.75.790 5.48 9.47 24.2 11.2 24.2.824.007.932-.854.360-2.85zm91.9-6.39c3.01-6.33 4.54-11 4.84-14.7.438-5.45.426-5.48-1.31-3.1-.965 1.32-1.96 4.69-2.21 7.5-.305 3.41-1.2 5.93-2.71 7.6-2.83 3.14-5.93 12-4.2 12 .654-.002 3.17-4.16 5.59-9.25zm-51.5 31.8c-1.8-1.36-1.61-1.47 2.56-1.47s4.36.107 2.56 1.47c-1.07.808-2.22 1.47-2.56 1.47s-1.49-.661-2.56-1.47zm-.177-3.25c1.52-.230 3.77-.224 5 .0136 1.23.237-.0138.425-2.76.418-2.75-.008-3.76-.202-2.24-.432zm-10.8-4.35c-.363-.587-.445-1.28-.183-1.54.262-.262.743.218 1.07 1.07.676 1.76.0998 2.07-.886.477zm10.3-15c-3.33-2.48-3.36-2.97-.5-7.39 2.93-4.52 3.68-4.4 3.02.502-.528 3.93-.485 4 2.62 4 3.14 0 3.14.0155 1.52 2.5-1.97 3.01-3.06 3.07-6.66.385zm-21.8-17.7c-.825-.290-1.85-1.12-2.28-1.84-.427-.722-1.33-1.11-2-.858-.673.249-2.97-2.07-5.11-5.15-3.11-4.48-3.49-5.48-1.92-4.98 1.29.411 2.6-.0658 3.79-1.39 1-1.11 3.08-2.01 4.61-2.01s3.03-.397 3.33-.882c1.57-2.54 12.5-.298 16.1 3.31 3.4 3.4 2.35 9.27-2.2 12.3-2.65 1.73-11.2 2.66-14.4 1.56zm-2.84-9.73c.197-2.48.0956-4.5-.225-4.5s-1.64 1.12-2.92 2.49c-2.27 2.42-2.29 2.55-.519 4.5 2.66 2.94 3.27 2.52 3.67-2.49zm16.8 3.41c0-.601-.851-2.17-1.89-3.5l-1.89-2.4-.408 3.5c-.362 3.1-.147 3.5 1.89 3.5 1.26 0 2.3-.492 2.3-1.09zm-5-5.47c0-.793-.9-1.44-2-1.44-2.25 0-2.56 1.04-.840 2.76 1.38 1.38 2.84 0.7 2.84-1.32zm28 10.2c-8.84-3.93-7.72-14 1.83-16.6 4.78-1.29 15.4.567 18.4 3.22 1.58 1.39 2.33 1.53 3.23.633.647-.647 1.41-.945 1.69-.661.694.694-6.8 11.3-8.02 11.4-.530.0230-2.31.728-3.96 1.57-3.97 2.02-9.26 2.2-13.2.462zm2.85-8.23-.427-3.66-1.85 2.41c-2.5 3.25-2.36 4.91.405 4.91 2.06 0 2.25-.384 1.87-3.66zm3.83 3.22c0-.243-.45-.719-1-1.06-.55-.340-1-.141-1 .441s.45 1.06 1 1.06 1-.198 1-.441zm12-1.6c1.77-1.95 1.75-2.08-.519-4.5-1.42-1.51-3.45-2.49-5.16-2.49-3.16 0-3.77 1.97-1.25 4.06 1.31 1.08 1.73 1.06 2.48-.128.654-1.03.913-.525.924 1.81.0177 3.75.957 4.08 3.52 1.24z" fill="#8e5b44"/>
 <path d="m13.3 198c3.05-17.1 6.46-20.8 22.8-24.7 13.2-3.11 32.8-9.92 35.3-12.2 2.05-1.92 2.18-1.93 2.68-.179.287 1.01.810 4.31 1.16 7.34.351 3.02 1.93 9.78 3.52 15 1.58 5.22 3.31 11.4 3.83 13.8l.949 4.25h-70.8zm79.5-1.5c.481-2.61 1.29-5.97 1.81-7.46.804-2.34.564-2.98-1.75-4.68l-2.69-1.97 3.95-4.07c2.17-2.24 4.67-4.07 5.55-4.07 1.76 0 7.99 5.96 7.99 7.64 0 .576-.944 1.9-2.1 2.94-1.8 1.63-2 2.6-1.44 6.9.359 2.75.901 6.02 1.21 7.26.533 2.17.308 2.25-6.43 2.25h-6.98zm24 .5c.518-2.34 2.04-7.73 3.37-12 1.34-4.25 2.89-10.8 3.46-14.5.566-3.72 1.27-7.84 1.57-9.15l.543-2.38 2.2 2.06c2.5 2.34 22.1 9.14 35.3 12.3 4.89 1.16 10.5 3.02 12.5 4.14 4.41 2.47 8.37 9.9 9.66 18.1l.884 5.63h-71zm-26.9-33c-1.13-.388-4.14-2.04-6.69-3.67-4.25-2.71-4.7-3.39-5.33-7.99-.558-4.06-1.57-6-5.22-10-5.46-6.04-10.9-14.3-12.7-19.3-.722-2.02-1.83-3.56-2.46-3.41-2.3.528-4.94-1.83-6.14-5.51-.677-2.07-1.81-4.66-2.52-5.76-2.62-4.05-7.55-16.8-7.63-19.8-.0534-1.88.620-3.56 1.76-4.39 2.19-1.6 3.47-1.73 3.47-.351 0 .55-.675 1-1.5 1-1.18 0-1.09.411.440 1.94 1.07 1.07 3.85 5.77 6.18 10.4 2.33 4.68 4.53 8.33 4.89 8.11.357-.221 1.67 3.15 2.93 7.48 4.21 14.6 10 24.1 20.8 34.2 7.39 6.9 10.5 8.25 19.3 8.29 9.16.044 13.6-2.19 22.2-11.2 10.3-10.8 16.9-23.8 20.3-40.1.482-2.27.981-2.96 1.52-2.09.537.868 2.01-1.14 4.5-6.12 2.04-4.07 4.4-8.2 5.25-9.16 1.4-1.59 1.38-1.75-.170-1.75-.943 0-1.44-.45-1.1-1 1.6-2.6 5.5.875 5.5 4.9 0 3.13-3.36 11.8-7.91 20.5-1.7 3.22-3.09 6.47-3.09 7.21 0 1.51-3.3 3.61-5.03 3.2-.613-.145-1.83 1.54-2.71 3.74-2.32 5.81-7.7 14-12.7 19.4-3.86 4.12-4.43 5.33-4.7 9.91-.172 2.87-.682 5.21-1.13 5.21-.451.0001-2.92 1.45-5.49 3.21-4.31 2.97-5.37 3.23-13.7 3.46-4.95.133-9.93-.0762-11.1-.464zm-32.4-47c0-1.92-3.85-9.6-6.14-12.3-1.6-1.85-2.55-3.9-2.22-4.76.905-2.36-.483-7.74-2.71-10.5l-2.02-2.5.437 5c.489 5.6 1.17 7.59 6.24 18.1 1.96 4.07 4.19 7.37 4.98 7.37.787 0 1.43-.216 1.43-.480zm91.3-9.6c3.98-8.36 4.75-10.9 4.5-14.7l-.302-4.67-1.75 3.2c-.962 1.76-1.75 4.99-1.75 7.17 0 2.78-.752 4.87-2.51 6.96-1.38 1.64-3.18 4.88-4 7.2-1.8 5.09-1.79 4.97-.238 4.96.688-.002 3.41-4.54 6.05-10.1zm-51.3 32.7c0-.211 1.11-.596 2.47-.856s2.23-.0871 1.94.383c-.512.829-4.41 1.25-4.41.472zm-1.25-22.9c-3.34-2.73-3.35-3.35-.219-7.18l2.46-3 .005 3.75c.0047 3.54.179 3.75 3.18 3.75h3.17l-2.35 2.5c-2.82 3.01-2.8 3-6.25.176zm-9.75-19.7c1.96-1.27 3.28-1.27 2.5 0-.340.55-1.38.993-2.31.985-1.46-.0132-1.48-.149-.191-.985zm23.5 0c-.340-.55-.168-1 .382-1s1.28.45 1.62 1 .168 1-.382 1-1.28-.45-1.62-1zm-42.4-2.5c-4.04-4.54-6.56-9.52-4.02-7.95.591.365 2.15-.347 3.46-1.58 2.21-2.08 2.98-2.19 10.1-1.55 9.13.827 12.9 2.53 13.8 6.24 1.12 4.45-2.21 6.15-12.8 6.53-7.8.278-9.03.0816-10.6-1.69zm4.07-5c.197-2.48.0956-4.5-.225-4.5s-1.64 1.12-2.92 2.49c-2.27 2.42-2.29 2.55-.519 4.5 2.66 2.94 3.27 2.52 3.67-2.49zm16.8 3.41c0-.601-.851-2.17-1.89-3.5l-1.89-2.4-.408 3.5c-.362 3.1-.147 3.5 1.89 3.5 1.26 0 2.3-.492 2.3-1.09zm-5-5.47c0-.793-.9-1.44-2-1.44-2.25 0-2.56 1.04-.840 2.76 1.38 1.38 2.84 0.7 2.84-1.32zm37.5 8.79c-9-.303-12.5-1.19-8.5-2.14 2.21-.524 2.44-.998 2-4.09l-.5-3.5-2.38 3.82c-1.69 2.71-2.69 3.51-3.44 2.76-1.65-1.65.453-6.37 3.49-7.83 1.44-.691 6.07-1.55 10.3-1.9 7.17-.606 7.76-.504 9.22 1.59.989 1.41 2.25 2.06 3.42 1.75 1.71-.448 1.75-.283.436 2.16-.782 1.46-2.46 3.77-3.72 5.15-2.14 2.32-2.88 2.48-10.3 2.23zm-2.5-2.67c0-.243-.45-.719-1-1.06-.55-.340-1-.141-1 .441s.45 1.06 1 1.06 1-.198 1-.441zm13-1c1.77-1.95 1.75-2.08-.519-4.5-1.42-1.51-3.45-2.49-5.16-2.49-3.16 0-3.77 1.97-1.25 4.06 1.31 1.08 1.73 1.06 2.48-.128.654-1.03.913-.525.924 1.81.0177 3.75.957 4.08 3.52 1.24z" fill="#865139"/>
 <path d="m13.9 195c1.3-8.27 5.25-15.7 9.66-18.1 2.01-1.11 8.5-3.22 14.4-4.69 14.6-3.62 32.6-10 34.2-12.2 1.2-1.64 1.31-1.63 1.83.191.305 1.07.842 4.41 1.19 7.44.351 3.02 1.93 9.78 3.52 15 1.58 5.22 3.31 11.4 3.83 13.8l.949 4.25h-70.4zm78.9.884c.481-2.61 1.29-5.97 1.81-7.46.804-2.34.564-2.98-1.75-4.68l-2.69-1.97 3.95-4.07c2.17-2.24 4.67-4.07 5.55-4.07 1.76 0 7.99 5.96 7.99 7.64 0 .576-.944 1.9-2.1 2.94-1.8 1.63-2 2.6-1.44 6.9.359 2.75.901 6.02 1.21 7.26.533 2.17.308 2.25-6.43 2.25h-6.98zm24 .5c.518-2.34 2.04-7.73 3.37-12 1.34-4.25 2.89-10.8 3.46-14.5.566-3.72 1.27-7.84 1.57-9.15l.543-2.38 2.2 2.06c2.5 2.34 22.1 9.14 35.3 12.3 12.4 2.93 15.6 4.91 18.8 11.8 1.47 3.1 3.04 8 3.48 10.9l.810 5.25h-71zm-36.5-40c-.941-.715-2.03-3.28-2.41-5.69-.524-3.28-2.05-5.98-6.02-10.7-6.18-7.28-9.37-12.2-11.6-17.8-.864-2.2-2.18-4.06-2.93-4.13-.747-.0741-1.94-.187-2.66-.25-.716-.0634-2-1.8-2.85-3.87-.855-2.06-3.34-7.5-5.52-12.1-2.18-4.59-3.72-9-3.41-9.8.314-.818.126-1.19-.428-.850-.579.358-.989-.833-.989-2.88 0-3.48 2.08-6.66 4.32-6.6.648.0167.382.494-.592 1.06-.974.567-1.46 1.54-1.07 2.17.386.625.587 3.29.448 5.92-.204 3.84.529 6.43 3.69 13.1 2.17 4.55 4.22 9.06 4.55 10 .651 1.89 3.35 3.37 4.34 2.37.331-.331-.139-2.54-1.04-4.91-.904-2.37-1.64-5.15-1.64-6.19s-.301-1.58-.669-1.21c-1.56 1.56-4.33-2.75-4.33-6.74l.0051-4.1 2.46 4c1.35 2.2 4.3 9.48 6.55 16.2 4.79 14.3 9.91 22.3 20.8 32.5 8.28 7.8 12.1 9.24 22.8 8.57 8.58-.545 11.5-2.15 20.4-11.3 9.48-9.66 13.5-16.3 17.7-29.8 2.59-8.17 4.12-11.6 5.03-11.3.716.260 1.03.0389.706-.492-.328-.531.06-2.21.862-3.74l1.46-2.77.737 2.92c0.6 2.38.289 3.31-1.66 5.01-2.18 1.89-5.92 10.3-5.91 13.3.0124 3.05 3.27-.556 6.38-7.07 5.73-12 6.75-15 6.49-19.2-.135-2.22.0618-4.54.437-5.15.375-.607-.0542-1.39-.955-1.73-.901-.346-1.35-.915-1-1.27 1.12-1.12 4.65 2.91 4.65 5.31 0 2.57-4.5 14.2-8.45 21.8-1.4 2.71-2.55 5.5-2.55 6.21 0 1.53-3.66 3.7-4.93 2.91-.487-.301-2.26 2.39-3.94 5.97-3.01 6.43-9.87 16.2-14 19.9-1.46 1.31-2.12 3.1-2.12 5.71 0 2.63-.678 4.44-2.19 5.85-2.03 1.89-3.43 2.04-19.8 2.01-12.8-.0232-18-.382-19.3-1.33zm-27.1-54c-.319-.798-.556-.561-.604.604-.0434 1.05.193 1.64.525 1.31.332-.332.368-1.19.0790-1.92zm43 14.6-2.82-2.48 2.15-3.49c2.68-4.34 3.36-4.4 2.73-.236-.273 1.8.134 4.48.912 6 1.73 3.39.732 3.46-2.97.204zm-30.7-25.6c-3.26-4.74-3.9-6.52-1.67-4.67 1.08.893 1.73.596 3.02-1.38 1.29-1.97 2.49-2.52 5.49-2.52 6.12 0 14.4 1.89 16.1 3.66 1.03 1.11 1.08 1.38.160.857-1.04-.588-1.2-.214-.697 1.61l.660 2.38-1.95-2.23-1.95-2.23-.406 3.48c-.331 2.83-.0722 3.48 1.39 3.48.990 0 1.8.45 1.8 1 0 .596-3.82 1-9.45 1h-9.45zm6.11-2.07c.197-2.48.0956-4.5-.225-4.5s-1.64 1.12-2.92 2.49c-2.27 2.42-2.29 2.55-.519 4.5 2.66 2.94 3.27 2.52 3.67-2.49zm11.8-2.06c0-.793-.9-1.44-2-1.44-2.25 0-2.56 1.04-.840 2.76 1.38 1.38 2.84 0.7 2.84-1.32zm28 7.56c0-.55.810-1 1.8-1 1.48 0 1.72-.645 1.38-3.61l-.422-3.61-2.34 2.86c-2.44 2.99-3.16 2.62-1.38-.703.772-1.44.708-1.96-.25-2.02-3.39-.215 5.96-2.97 11.9-3.52 6.4-.582 6.92-.470 9.19 1.98 2 2.15 2.68 2.38 3.98 1.36 1.17-.920 1.08-.467-.328 1.76-4.94 7.8-4.23 7.43-14.3 7.47-5.52.0188-9.25-.372-9.25-.969zm7-1.44c0-.243-.45-.719-1-1.06-.55-.340-1-.141-1 .441s.45 1.06 1 1.06 1-.198 1-.441zm12-1.6c1.77-1.95 1.75-2.08-.519-4.5-1.42-1.51-3.45-2.49-5.16-2.49-3.16 0-3.77 1.97-1.25 4.06 1.31 1.08 1.73 1.06 2.48-.128.654-1.03.913-.525.924 1.81.0177 3.75.957 4.08 3.52 1.24z" fill="#5f5955"/>
 <path d="m13.9 195c1.29-8.25 5.25-15.7 9.66-18.1 2.01-1.12 7.62-2.98 12.5-4.13 13.6-3.22 33.6-10.1 35.7-12.3 1.74-1.87 1.84-1.88 2.33-.118.282 1.01.820 4.54 1.19 7.84.375 3.3 1.73 9.38 3.02 13.5 1.28 4.12 3 10.1 3.81 13.2l1.47 5.75h-70.6zm78.8 3.29c0-1.29.675-4.55 1.5-7.25 1.49-4.88 1.49-4.92-1.11-7.03l-2.61-2.13 3.73-4.12c2.05-2.27 4.33-4.12 5.08-4.12 1.71 0 8.42 5.83 8.42 7.32 0 .610-1.12 2.03-2.48 3.15-2.22 1.83-2.39 2.45-1.61 6.04.477 2.2 1.13 5.46 1.46 7.25l.588 3.25h-6.48c-6.12 0-6.48-.127-6.48-2.34zm25.5-6.41c1.29-4.81 2.84-10 3.43-11.6.594-1.55 1.55-6.05 2.12-10 .569-3.95 1.27-8.25 1.55-9.56.514-2.38.521-2.38 2.38-.382 2.06 2.22 22 9.11 35.7 12.4 12.3 2.91 15.5 4.9 18.7 11.8 1.47 3.1 3.04 8 3.48 10.9l.810 5.25h-70zm-37.5-36c-.941-.715-2.03-3.28-2.41-5.69-.524-3.28-2.05-5.98-6.02-10.7-6.18-7.28-9.37-12.2-11.6-17.8-.864-2.2-2.18-4.06-2.93-4.13-.747-.0741-1.94-.187-2.66-.25-.716-.0634-2-1.8-2.85-3.87-.855-2.06-3.34-7.5-5.52-12.1-2.18-4.59-3.72-9-3.41-9.8.314-.818.126-1.19-.428-.850-.579.358-.989-.833-.989-2.88 0-3.48 2.08-6.66 4.32-6.6.648.0167.382.494-.592 1.06-.974.567-1.46 1.54-1.07 2.17.386.625.587 3.29.448 5.92-.204 3.84.529 6.43 3.69 13.1 2.17 4.55 4.22 9.06 4.55 10 .651 1.89 3.35 3.37 4.34 2.37.331-.331-.139-2.54-1.04-4.91-.904-2.37-1.64-5.15-1.64-6.19s-.301-1.58-.669-1.21c-1.56 1.56-4.33-2.75-4.33-6.74l.0051-4.1 2.46 4c1.35 2.2 4.3 9.48 6.55 16.2 4.79 14.3 9.91 22.3 20.8 32.5 8.28 7.8 12.1 9.24 22.8 8.57 8.58-.545 11.5-2.15 20.4-11.3 9.48-9.66 13.5-16.3 17.7-29.8 2.59-8.17 4.12-11.6 5.03-11.3.716.260 1.03.0389.706-.492-.328-.531.06-2.21.862-3.74l1.46-2.77.737 2.92c0.6 2.38.289 3.31-1.66 5.01-2.18 1.89-5.92 10.3-5.91 13.3.0124 3.05 3.27-.556 6.38-7.07 5.73-12 6.75-15 6.49-19.2-.135-2.22.0618-4.54.437-5.15.375-.607-.0542-1.39-.955-1.73-.901-.346-1.35-.915-1-1.27 1.12-1.12 4.65 2.91 4.65 5.31 0 2.57-4.5 14.2-8.45 21.8-1.4 2.71-2.55 5.5-2.55 6.21 0 1.53-3.66 3.7-4.93 2.91-.487-.301-2.26 2.39-3.94 5.97-3.01 6.43-9.87 16.2-14 19.9-1.46 1.31-2.12 3.1-2.12 5.71 0 2.63-.678 4.44-2.19 5.85-2.03 1.89-3.43 2.04-19.8 2.01-12.8-.0232-18-.382-19.3-1.33zm-27.1-54c-.319-.798-.556-.561-.604.604-.0434 1.05.193 1.64.525 1.31.332-.332.368-1.19.0790-1.92zm43 14.6-2.82-2.48 2.15-3.49c2.68-4.34 3.36-4.4 2.73-.236-.273 1.8.134 4.48.912 6 1.73 3.39.732 3.46-2.97.204zm-30.7-25.6c-3.26-4.74-3.9-6.52-1.67-4.67 1.08.893 1.73.596 3.02-1.38 1.29-1.97 2.49-2.52 5.49-2.52 6.12 0 14.4 1.89 16.1 3.66 1.03 1.11 1.08 1.38.160.857-1.05-.590-1.2-.220-.668 1.61.675 2.33.641 2.32-1.64-.315-1.28-1.48-3.46-2.83-4.83-3-2.54-.314-2.57-.191-1.26 4.44.272.962-.0078 1.75-.622 1.75s-1.12.502-1.12 1.12c0 .652 1.04.918 2.5.639 1.38-.263 2.5-.122 2.5.314 0 .435 1.01.987 2.25 1.23 1.24.238-2.12.495-7.45.570l-9.7.136zm10.4 2.44c1.52-.0106 1.68-.280.75-1.21-.66-.66-1.2-2.01-1.2-3 0-2.03-2.63-2.47-3.27-.55-.230.688-.227.0125.0061-1.5.495-3.21-.368-3.41-3.48-.806-2.68 2.24-2.75 2.9-.633 5.92 1.14 1.63 2.24 2.14 3.75 1.74 1.17-.315 3.01-.579 4.08-.586zm39.7.618c4.28-1.05 4.54-1.29 3.6-3.38-.556-1.24-1.62-2.25-2.36-2.25-.741 0-1.37-.788-1.39-1.75-.0302-1.3-.802-.859-3 1.71-3 3.51-3.81 3.5-1.92-.0280.772-1.44.708-1.96-.25-2.02-3.39-.215 5.96-2.97 11.9-3.52 6.4-.582 6.92-.470 9.19 1.98 2 2.15 2.68 2.38 3.98 1.36 1.17-.920 1.08-.467-.328 1.76-4.96 7.84-4.17 7.45-14.6 7.35-9.2-.0846-9.35-.124-4.89-1.22zm14.9-2.13 2.35-2.5-2.35-2.5c-3.95-4.2-9.88-3.02-7.08 1.41 1.05 1.66.271 4.33-1.03 3.53-.492-.304-.895-.107-.895.439s1.24 1.18 2.75 1.41c1.51.229 3.01.484 3.33.566.317.0824 1.63-.975 2.92-2.35z" fill="#77452f"/>
 <path d="m13.8 196c.446-2.89 2-7.76 3.45-10.8 3.17-6.69 6.78-8.91 19.4-12 13-3.14 33-10 35-12 1.54-1.54 1.88-1.58 2.38-.294.318.827.577 2.97.577 4.76 0 3.13 1.08 7.62 6.42 26.8l2.43 8.75h-67.6l1.98-7.15c1.09-3.93 2.44-8.01 3-9.06.561-1.05.820-2.44.576-3.1-.541-1.45-4.64 7.63-5.32 11.8-1 6.1-1.42 7.5-2.23 7.5-.457 0-.467-2.36-.0215-5.25zm10.4-14.8c-.340-.55-.479-1-.309-1 .170-.002 3.46-1.15 7.31-2.55 6.47-2.35 6.66-2.5 2.5-1.94-2.48.329-6.19 1.32-8.25 2.2-2.96 1.26-3.51 1.88-2.63 2.95 1.3 1.57 2.28 1.82 1.37.349zm23.2-8.6c-.332-.332-1.19-.368-1.92-.0789-.798.319-.561.556.604.604 1.05.0434 1.64-.193 1.31-.525zm15.3-5.4c.825-.533 1.05-.969.5-.969s-1.68.436-2.5.969c-.825.533-1.05.969-.5.969s1.68-.436 2.5-.969zm30 31.7c0-1.29.675-4.55 1.5-7.25 1.49-4.88 1.49-4.92-1.11-7.03l-2.61-2.13 3.73-4.12c2.05-2.27 4.33-4.12 5.08-4.12 1.71 0 8.42 5.83 8.42 7.32 0 .610-1.12 2.03-2.48 3.15-2.22 1.83-2.39 2.45-1.61 6.04.477 2.2 1.13 5.46 1.46 7.25l.588 3.25h-6.48c-6.12 0-6.48-.127-6.48-2.34zm24.7-3.41c.809-3.16 2.52-9.12 3.81-13.2 1.28-4.12 2.64-10.2 3.02-13.5 1.06-9.34 1.25-9.76 3.44-7.57 2.03 2.03 22 8.88 35.1 12 12.7 3.05 16.3 5.27 19.4 12 2.71 5.72 4.92 16.1 3.43 16.1-.812 0-1.23-1.4-2.23-7.5-.685-4.17-4.78-13.3-5.32-11.8-.244.657.0147 2.05.576 3.1s1.91 5.12 3 9.06l1.98 7.15h-67.6zm57-17.4c-1.74-.891-5.42-1.91-8.17-2.27l-5-.648 6 2.1c7.41 2.59 7.98 3.13 6.5 6.08-.920 1.84-.627 1.69 1.33-.643l2.51-3zm-19.9-5.48c-.332-.332-1.19-.368-1.92-.0789-.798.319-.561.556.604.604 1.05.0434 1.64-.193 1.31-.525zm-15.7-5.4c-.825-.533-1.95-.969-2.5-.969s-.325.436.5.969 1.95.969 2.5.969.325-.436-.5-.969zm-45.1-13c-2.35-.393-6.35-2.18-8.89-3.97-3.6-2.54-4.81-2.97-5.47-1.93-.602.949-.847.684-.858-.929-.0086-1.27-2.53-5.27-5.77-9.14-5.33-6.37-9.92-13.1-8.95-13.1.228 0 2.12 2.59 4.21 5.75 4.77 7.23 15.9 18.3 20.7 20.5 4.97 2.36 18.7 2.38 23.6.0304 1.97-.933 6.53-4.4 10.2-7.71 3.62-3.31 5.11-4.44 3.33-2.51-2.45 2.64-3.28 4.48-3.37 7.46-.106 3.54-.184 3.66-.75 1.11l-.632-2.85-2.69 2.12c-5.72 4.51-15.8 6.61-24.6 5.14zm37.2-20.4c1.54-2.02 3-3.67 3.25-3.67.695 0-3.63 5.85-4.91 6.64-.624.386.125-.951 1.67-2.97zm4.56-6.67c.589-1.1 1.3-2 1.57-2 .275 0 .0183.9-.570 2-.589 1.1-1.3 2-1.57 2-.275 0-.0183-.9.570-2zm-75.2-8.53c-.865-1.91-1.22-3.47-.793-3.47.794 0 3.24 6.07 2.68 6.63-.170.170-1.02-1.25-1.88-3.16zm78.2 3.03c0-.55.436-1.68.969-2.5.533-.825.969-1.05.969-.5s-.436 1.68-.969 2.5c-.533.825-.969 1.05-.969.5zm-84-6.5c-1.1-1.1-1.99-2.56-1.97-3.25.0167-.688.547-.35 1.18.75.631 1.1 1.85 2.55 2.72 3.22.865.67 1.24 1.23.823 1.25-.412.0175-1.65-.868-2.75-1.97zm86 1c0-.55.477-1 1.06-1 .582 0 .781.45.441 1s-.816 1-1.06 1c-.243 0-.441-.45-.441-1zm-43.7-2.25-2.08-2.25 2.47-3.5 2.47-3.5-.654 3.64c-.377 2.1-.177 4.54.473 5.75 1.48 2.77-.0541 2.69-2.67-.145zm47.7 1.87c0-.208.685-.946 1.52-1.64 1.27-1.06 1.42-.995.893.378-.538 1.4-2.42 2.38-2.42 1.26zm-87.8-8.78c-1.19-3.95-1.98-7.35-1.77-7.56.212-.212 1.36 2.84 2.56 6.77 1.2 3.94 1.99 7.34 1.77 7.56-.222.222-1.37-2.83-2.56-6.77zm86 3.16c.0553-2.25 2.72-8.76 2.81-6.86.0418.899-.581 3.15-1.38 5-.803 1.85-1.44 2.69-1.42 1.86zm5.88-1.64c0-.537 0.7-1.85 1.56-2.92 1.47-1.83 1.49-1.8.365.559-1.46 3.06-1.92 3.63-1.92 2.36zm-100-5.36c-.589-1.1-.845-2-.570-2s.982.9 1.57 2c.589 1.1.845 2 .570 2s-.982-.9-1.57-2zm104-1.29c.376-.986.935-1.54 1.24-1.23.308.308.00064 1.11-.683 1.79-.988.980-1.1.865-.560-.560zm-101 0c-1.38-1.38-1.68-4.47-.5-5.19 1.38-.837 2.85 1.81 2.3 4.14-.439 1.84-.799 2.05-1.8 1.05zm95.8-1.35c-.009-1.65.420-3.68.953-4.5.556-.861.976-1 .985-.332.008.643.250 1.78.537 2.53.287.748-.149 2.25-.968 3.33-1.43 1.89-1.49 1.85-1.51-1.03zm-80.3-9.07-2.6-3.65 3.42-3c3.22-2.83 3.76-2.96 9.16-2.33 9.17 1.07 11.7 2.16 11.7 5.01v2.46l-2-2.39c-1.1-1.32-3.12-2.53-4.5-2.7-2.54-.314-2.57-.191-1.26 4.44.272.962-.0078 1.75-.622 1.75s-1.12.502-1.12 1.12c0 .656 1.05.917 2.54.631 1.6-.306 2.4-.0729 2.17.633-.213.644-3.33 1.24-7.35 1.41l-6.98.290zm9.67 1.58c1.52-.0106 1.68-.280.75-1.21-.66-.66-1.2-2.01-1.2-3 0-2.03-2.63-2.47-3.27-.55-.230.688-.227.0125.0061-1.5.495-3.21-.368-3.41-3.48-.806-2.68 2.24-2.75 2.9-.633 5.92 1.14 1.63 2.24 2.14 3.75 1.74 1.17-.315 3.01-.579 4.08-.586zm39.6.986c0-.55 1.12-1 2.48-1 2.28 0 2.39-.199 1.34-2.5-.626-1.38-1.74-2.5-2.48-2.5-.737 0-1.35-.788-1.37-1.75-.0254-1.41-.502-1.22-2.43.973l-2.4 2.72.286-2.68c.325-3.05 2.01-3.73 11.9-4.78 5.79-.617 6.37-.489 8.6 1.89 1.32 1.41 2.82 2.29 3.35 1.97 1.41-.873-1.17 3.8-3.54 6.4-1.74 1.91-3.07 2.25-8.88 2.25-3.88 0-6.83-.431-6.83-1zm15-2.5 2.35-2.5-2.35-2.5c-3.95-4.2-9.88-3.02-7.08 1.41 1.05 1.66.271 4.33-1.03 3.53-.492-.304-.895-.107-.895.439s1.24 1.18 2.75 1.41c1.51.229 3.01.484 3.33.566.317.0824 1.63-.975 2.92-2.35zm24.4-1.25c-.331-1.51-.770-3.3-.975-3.97s.0649-1.49 0.6-1.82c.535-.331.654-1.13.264-1.78-.403-.673.0198-.590.984.192.931.755 1.66 2.1 1.62 3-.0549 1.27-.276 1.19-1.01-.372-.695-1.48-.840-.754-.553 2.75.433 5.28-.005 6.22-.929 2zm-112-2.58c-.811-2.64-.742-3.33.332-3.33.869 0 1.36 1.2 1.36 3.33 0 1.83-.149 3.33-.332 3.33s-.793-1.5-1.36-3.33zm.687-5.67c.825-.533 1.95-.969 2.5-.969s.325.436-.5.969-1.95.969-2.5.969-.325-.436.5-.969z" fill="#622f1d"/>
 <path d="m14.2 196c.513-6.16 3.87-14.4 6.88-17 2.13-1.8 2.14-1.8.446.215-2.45 2.92-4.93 9.04-6.44 16l-1.32 6zm44.1 3.58c-2.44-6.62-4.47-13.3-4.15-13.6.216-.216 1.64 2.79 3.16 6.67s2.48 7.35 2.13 7.7-.868.01-1.15-.756zm23.2-.393c-4.69-14.6-7.72-27.5-7.62-32.3l.127-5.66.786 6c.432 3.3 2.42 11.6 4.41 18.5 1.99 6.85 3.47 13.2 3.28 14-.259 1.17-.495 1.06-.984-.457zm11.3-.282c0-.980.656-4.24 1.46-7.25 1.45-5.44 1.45-5.48-1.12-7.6l-2.58-2.13 4.12-4.12c2.27-2.26 4.55-4.12 5.08-4.12 1.42 0 8.03 6.02 8.03 7.32 0 .610-1.17 2.04-2.6 3.18-2.39 1.91-2.52 2.38-1.6 6.04.547 2.18 1.25 5.43 1.57 7.22l.578 3.25h-6.48c-5.54 0-6.48-.256-6.48-1.78zm24 .540c0-.866 1.61-7.13 3.59-13.9 1.97-6.79 3.94-15 4.37-18.3l.786-6 .127 5.63c.0876 3.89-1.1 9.89-3.84 19.4-3.87 13.4-5.03 16.5-5.03 13.2zm23 .568c0-1.03 1.51-5.55 3.93-11.7 2.12-5.41 2.07-1.98-.0643 4.47-2.04 6.16-3.86 9.59-3.86 7.25zm44.6-4.32c-.728-5.49-3.8-13.4-6.42-16.5-1.65-1.97-1.65-1.97.479-.179 2.86 2.42 6.05 10 6.91 16.5.380 2.87.466 5.21.191 5.21s-.798-2.25-1.16-5zm-124-16c.338-.548-.717-1.98-2.35-3.18-3.08-2.28-3.78-4.5-1.81-5.72.744-.460.882-.272.388.527-.474.767.455 2.5 2.43 4.54 2.3 2.38 2.85 3.52 1.96 4.07-.729.451-.988.357-.626-.228zm76.3-.161c-.288-.466.822-2.14 2.47-3.71 1.64-1.58 2.76-3.47 2.48-4.2-.283-.737-.0694-1.07.474-.729 1.83 1.13 1.01 3.34-2.02 5.5-1.66 1.18-2.75 2.56-2.44 3.07.314.508.346.924.0708.924s-.736-.381-1.02-.847zm-111-6c1.09-1.11 15.6-4.55 16.2-3.87.232.232-3.1 1.19-7.41 2.14-4.31.944-8.28 1.95-8.83 2.23-.667.345-.667.176 0-.505zm139-1.47c-4.58-1.09-8.14-2.17-7.91-2.4.619-.619 15.1 2.71 16.2 3.73.522.481.748.827.5.768-.248-.0587-4.2-1-8.77-2.09zm-120-4c1.1-.473 2.68-.859 3.5-.859.945 0 .761.318-.5.859-1.1.473-2.68.859-3.5.859-.945 0-.761-.318.5-.859zm106 0c-1.26-.542-1.45-.859-.5-.859.825 0 2.4.387 3.5.859 1.26.542 1.45.859.5.859-.825 0-2.4-.387-3.5-.859zm-93.5-4c.825-.533 1.95-.969 2.5-.969s.325.436-.5.969-1.95.969-2.5.969-.325-.436.5-.969zm7 .717c0-.189 1.35-1.64 3-3.22s3-2.42 3-1.88c0 .549-1.35 2-3 3.22s-3 2.06-3 1.88zm66.5-3c-1.63-1.33-2.72-2.66-2.43-2.95.294-.294 1.82.811 3.4 2.46 3.44 3.6 3.06 3.79-.971.498zm8.46 1.49c-.825-.533-1.05-.969-.5-.969s1.68.436 2.5.969c.825.533 1.05.969.5.969s-1.68-.436-2.5-.969zm-73.1-74.7-2.6-3.64 3.23-2.84 3.23-2.84 7.86 1.09c7.08.985 13.1 2.81 9.56 2.89-.767.0178-1.01.548-.578 1.28.402.688-.163.468-1.26-.488-1.09-.956-3.43-2.03-5.2-2.38l-3.21-.643 1.78 3.25c1.34 2.46 1.47 3.37.529 3.71-.688.253-1.25 1.32-1.25 2.38 0 1.62-.727 1.91-4.75 1.89-4.31-.0232-4.99-.364-7.35-3.67zm9.97 1.77c1.1-.0661 1.13-.375.132-1.58-.682-.822-1-2.4-.716-3.5.383-1.47.0337-2.01-1.3-2.01-1 0-2-.528-2.21-1.17-.255-.766-1.48-.364-3.54 1.16l-3.15 2.33 2.04 2.87c1.59 2.23 2.64 2.77 4.71 2.43 1.47-.242 3.28-.478 4.04-.523zm43.4-1.16c-.638-1.69-.911-3.72-.608-4.51.396-1.03.0675-1.25-1.16-.781-.998.383-2.1.0750-2.63-.739-.763-1.16-1.15-1.09-2.28.384-1.16 1.52-1.45 1.56-1.94.277-.655-1.71 3.22-2.96 12.4-4.01 5.04-.577 5.75-.409 7.9 1.88 1.3 1.38 2.82 2.23 3.37 1.89 1.25-.772.242 1.05-3 5.44-2.05 2.78-3.02 3.25-6.63 3.25-3.8 0-4.35-.309-5.39-3.07zm10.7-.427 2.35-2.5-2.35-2.5c-1.44-1.53-3.45-2.5-5.19-2.5-2.77 0-2.82.102-2.17 4.15.482 3.01.348 3.96-.488 3.44-.634-.392-1.15-.265-1.15.280 0 .546 1.24 1.18 2.75 1.41 1.51.229 3.01.484 3.33.566.317.0824 1.63-.975 2.92-2.35z" fill="#21140d"/>
</svg>
