<!DOCTYPE svg PUBLIC "-//W3C//DTD SVG 20010904//EN" "http://www.w3.org/TR/2001/REC-SVG-20010904/DTD/svg10.dtd">
<svg version="1.0" xmlns="http://www.w3.org/2000/svg" width="200px" height="200px" viewBox="0 0 2000 2000" preserveAspectRatio="xMidYMid meet">
<g id="layer101" fill="#f2f0f3" stroke="none">
 <path d="M130 1983 c1 -37 22 -110 46 -158 30 -61 72 -86 188 -110 105 -23 316 -96 347 -120 27 -22 66 -101 61 -125 -2 -8 -18 -31 -36 -50 -57 -60 -104 -129 -127 -185 -18 -43 -28 -55 -47 -57 -14 -2 -28 -10 -32 -18 -99 -198 -122 -259 -118 -301 2 -24 10 -37 26 -44 14 -6 20 -15 16 -25 -15 -41 -44 -180 -44 -216 0 -100 64 -231 159 -321 86 -82 263 -152 427 -168 88 -9 239 16 311 51 28 13 67 43 87 65 l37 40 29 -33 c33 -36 39 -25 14 24 -15 28 -15 30 0 24 48 -19 50 -18 23 11 l-28 31 49 49 c38 38 52 61 62 103 16 68 8 171 -23 278 -23 77 -23 82 -6 82 21 0 39 28 39 60 0 24 -34 110 -91 228 -32 66 -44 82 -62 82 -18 0 -28 13 -50 64 -16 35 -54 94 -85 131 -85 100 -87 106 -61 157 12 23 33 51 47 62 32 25 243 98 348 121 116 24 158 49 188 110 24 48 45 121 46 158 0 16 -48 17 -870 17 -822 0 -870 -1 -870 -17z"/>
 </g>
<g id="layer102" fill="#e4dfe0" stroke="none">
 <path d="M130 1983 c1 -37 22 -110 46 -158 30 -61 72 -86 188 -110 105 -23 316 -96 347 -120 27 -22 66 -101 61 -125 -2 -8 -18 -31 -36 -50 -57 -60 -104 -129 -127 -185 -18 -43 -28 -55 -47 -57 -14 -2 -28 -10 -32 -18 -99 -198 -122 -259 -118 -301 2 -24 10 -37 26 -44 14 -6 20 -15 16 -25 -15 -41 -44 -180 -44 -216 0 -100 64 -231 159 -321 86 -82 263 -152 427 -168 88 -9 239 16 311 51 28 13 67 43 87 65 l37 40 29 -33 c33 -36 39 -25 14 24 -15 28 -15 30 0 24 48 -19 50 -18 23 11 l-28 31 49 49 c38 38 52 61 62 103 16 68 8 171 -23 278 -23 77 -23 82 -6 82 21 0 39 28 39 60 0 24 -34 110 -91 228 -32 66 -44 82 -62 82 -18 0 -28 13 -50 64 -16 35 -54 94 -85 131 -85 100 -87 106 -61 157 12 23 33 51 47 62 32 25 243 98 348 121 116 24 158 49 188 110 24 48 45 121 46 158 0 16 -24 17 -356 17 l-356 0 5 -27 c5 -28 -16 -81 -55 -135 l-18 -27 -26 24 c-24 22 -24 25 -14 86 5 35 10 67 10 72 0 4 -31 7 -70 7 -38 0 -70 -3 -70 -7 1 -17 28 -122 34 -132 4 -5 -7 -17 -23 -25 -27 -15 -30 -14 -44 7 -36 56 -55 104 -50 130 l5 27 -356 0 c-332 0 -356 -1 -356 -17z m804 -220 c39 -36 41 -33 -57 -88 -75 -41 -84 -53 -94 -122 l-6 -47 -18 40 c-14 33 -15 50 -7 85 11 52 69 261 76 272 2 4 19 -18 38 -50 19 -32 50 -72 68 -90z m274 17 c49 -176 52 -191 37 -219 l-13 -26 -11 42 c-13 48 -45 77 -133 118 -32 15 -58 29 -58 31 0 2 19 23 43 47 24 25 54 65 67 91 15 28 27 41 31 33 4 -7 20 -59 37 -117z m-496 -875 c-2 -14 -8 -23 -12 -20 -10 6 -1 45 10 45 4 0 5 -11 2 -25z"/>
 </g>
<g id="layer103" fill="#d0ced4" stroke="none">
 <path d="M130 1983 c1 -37 22 -110 46 -158 30 -61 72 -86 188 -110 101 -22 321 -97 344 -119 10 -9 21 -16 25 -16 9 0 25 61 31 123 4 31 15 81 26 110 11 28 20 60 20 69 0 9 6 23 13 30 6 7 13 30 14 51 l2 37 -354 0 c-332 0 -355 -1 -355 -17z"/>
 <path d="M920 1993 c1 -16 28 -122 34 -131 5 -9 -34 -42 -49 -42 -3 0 -18 21 -35 48 -16 26 -30 44 -30 39 0 -18 55 -95 93 -130 l42 -37 -25 -21 c-14 -11 -50 -35 -80 -52 -63 -37 -85 -73 -93 -156 -5 -44 -12 -61 -40 -90 -57 -60 -104 -129 -128 -186 -18 -43 -28 -55 -47 -57 -14 -2 -28 -10 -32 -18 -99 -198 -122 -259 -118 -301 2 -24 10 -37 26 -44 14 -6 20 -15 16 -25 -15 -41 -44 -180 -44 -216 0 -100 64 -231 159 -321 86 -82 263 -152 427 -168 88 -9 239 16 311 51 28 13 67 43 87 65 l37 40 29 -33 c33 -36 39 -25 14 24 -12 24 -13 30 -3 25 53 -21 54 -21 26 10 l-28 31 49 49 c38 38 52 61 62 103 16 68 8 171 -23 278 -23 77 -23 82 -6 82 21 0 39 28 39 60 0 24 -34 110 -91 228 -32 65 -44 82 -62 82 -17 0 -30 16 -59 78 -21 44 -61 104 -94 140 -53 60 -57 66 -61 125 -7 90 -20 108 -113 156 -44 23 -80 46 -80 51 0 5 20 28 44 52 23 24 51 58 60 76 24 46 12 40 -15 -8 -13 -22 -26 -40 -29 -40 -4 0 -16 11 -29 24 -20 22 -21 27 -12 87 6 35 11 67 11 72 0 4 -31 7 -70 7 -38 0 -70 -3 -70 -7z m172 -671 c9 -9 -11 -12 -92 -12 -96 0 -120 9 -65 23 35 10 144 2 157 -11z m-376 -417 c-2 -14 -6 -25 -9 -25 -4 0 -11 0 -17 0 -14 0 -13 23 2 38 19 19 27 14 24 -13z m591 6 c10 -15 9 -22 -6 -35 -16 -14 -17 -13 -17 19 0 40 6 44 23 16z"/>
 <path d="M1165 1968 c7 -35 12 -52 50 -170 14 -42 25 -94 25 -116 0 -39 17 -102 28 -102 3 0 14 7 24 16 23 22 243 97 344 119 116 24 158 49 188 110 24 48 45 121 46 158 0 16 -24 17 -356 17 l-356 0 7 -32z"/>
 </g>
<g id="layer104" fill="#e2c7ab" stroke="none">
 <path d="M130 1983 c1 -37 22 -110 46 -158 30 -61 72 -86 188 -110 101 -22 321 -97 344 -119 10 -9 21 -16 24 -16 10 0 18 30 28 102 6 37 26 122 45 187 19 65 35 121 35 124 0 4 -160 7 -355 7 -332 0 -355 -1 -355 -17z"/>
 <path d="M932 1949 c5 -28 13 -60 17 -72 7 -17 3 -27 -18 -44 l-26 -22 40 -41 40 -41 -25 -19 c-14 -10 -52 -33 -86 -50 -69 -34 -82 -54 -94 -144 -7 -47 -16 -66 -43 -95 -57 -60 -104 -129 -128 -186 -18 -43 -28 -55 -47 -57 -14 -2 -28 -10 -32 -18 -99 -198 -122 -259 -118 -301 2 -24 10 -37 26 -44 14 -6 20 -15 16 -25 -15 -41 -44 -180 -44 -216 0 -100 64 -231 159 -321 86 -82 263 -152 427 -168 88 -9 239 16 311 51 28 13 67 43 87 65 l37 40 29 -33 c33 -36 39 -25 14 24 -12 24 -13 30 -3 25 53 -21 54 -21 26 10 l-28 31 49 49 c38 38 52 61 62 103 16 68 8 171 -23 278 -23 77 -23 82 -6 82 21 0 39 28 39 60 0 24 -34 110 -91 228 -32 65 -44 82 -62 82 -17 0 -30 16 -59 78 -21 44 -61 104 -94 140 -53 59 -57 67 -63 127 -8 79 -35 111 -127 155 -34 16 -65 34 -69 40 -4 7 7 26 24 44 37 38 38 47 10 72 -22 19 -22 39 -3 132 l7 32 -70 0 -70 0 9 -51z m171 -628 c8 -8 -16 -11 -96 -11 -59 0 -107 2 -107 5 0 25 179 30 203 6z m-383 -431 c0 -45 -8 -49 -35 -20 -17 19 -17 21 0 40 27 29 35 25 35 -20z m170 34 c0 -13 -21 -44 -30 -44 -6 0 -10 11 -10 25 0 18 5 25 20 25 11 0 20 -3 20 -6z m260 -19 c0 -27 -9 -32 -28 -13 -18 18 -14 38 8 38 15 0 20 -7 20 -25z m164 3 c11 -16 13 -25 4 -35 -20 -25 -38 -15 -38 22 0 40 12 45 34 13z m-474 -39 c0 -5 -10 -9 -21 -9 -18 0 -19 2 -9 15 12 15 30 12 30 -6z m430 1 c0 -11 -7 -20 -15 -20 -15 0 -21 21 -8 33 12 13 23 7 23 -13z"/>
 <path d="M1160 1994 c0 -4 18 -68 39 -143 22 -75 42 -161 46 -191 8 -76 18 -90 44 -66 26 23 241 98 347 121 116 24 158 49 188 110 24 48 45 121 46 158 0 16 -23 17 -355 17 -195 0 -355 -3 -355 -6z"/>
 </g>
<g id="layer105" fill="#cebbb3" stroke="none">
 <path d="M130 1983 c1 -37 22 -110 46 -158 30 -61 72 -86 188 -110 101 -22 321 -97 344 -119 10 -9 21 -16 24 -16 10 0 18 30 28 102 6 37 26 122 45 187 19 65 35 121 35 124 0 4 -160 7 -355 7 -332 0 -355 -1 -355 -17z"/>
 <path d="M932 1949 c5 -28 13 -60 17 -72 7 -17 3 -27 -18 -44 l-26 -22 40 -41 40 -41 -25 -19 c-14 -10 -52 -33 -86 -50 -69 -34 -82 -54 -94 -144 -7 -47 -16 -66 -43 -95 -57 -60 -104 -129 -128 -186 -18 -43 -28 -55 -47 -57 -14 -2 -28 -10 -32 -18 -99 -198 -122 -259 -118 -301 2 -24 10 -37 26 -44 14 -6 20 -15 16 -25 -15 -41 -44 -180 -44 -216 0 -100 64 -231 159 -321 86 -82 263 -152 427 -168 88 -9 239 16 311 51 28 13 67 43 87 65 l37 40 29 -33 c33 -36 39 -25 14 24 -12 24 -13 30 -3 25 53 -21 54 -21 26 10 l-28 31 49 49 c38 38 52 61 62 103 16 68 8 171 -23 278 -23 77 -23 82 -6 82 21 0 39 28 39 60 0 24 -34 110 -91 228 -32 65 -44 82 -62 82 -17 0 -30 16 -59 78 -21 44 -61 104 -94 140 -53 59 -57 67 -63 127 -8 79 -35 111 -127 155 -34 16 -65 34 -69 40 -4 7 7 26 24 44 37 38 38 47 10 72 -22 19 -22 39 -3 132 l7 32 -70 0 -70 0 9 -51z m171 -628 c8 -8 -16 -11 -96 -11 -59 0 -107 2 -107 5 0 25 179 30 203 6z m-383 -431 c0 -45 -8 -49 -35 -20 -17 19 -17 21 0 40 27 29 35 25 35 -20z m170 34 c0 -13 -21 -44 -30 -44 -6 0 -10 11 -10 25 0 18 5 25 20 25 11 0 20 -3 20 -6z m260 -19 c0 -27 -9 -32 -28 -13 -18 18 -14 38 8 38 15 0 20 -7 20 -25z m164 3 c11 -16 13 -25 4 -35 -20 -25 -38 -15 -38 22 0 40 12 45 34 13z m-474 -39 c0 -5 -10 -9 -21 -9 -18 0 -19 2 -9 15 12 15 30 12 30 -6z m430 1 c0 -11 -7 -20 -15 -20 -15 0 -21 21 -8 33 12 13 23 7 23 -13z m-801 -210 c-17 -79 -8 -167 23 -230 33 -66 29 -78 -5 -18 -34 58 -50 122 -42 172 9 63 27 138 31 133 3 -2 -1 -28 -7 -57z m1058 -86 c6 -71 -15 -157 -54 -215 -14 -22 -27 -38 -29 -36 -1 1 12 31 29 67 29 58 32 73 32 155 0 49 -3 106 -7 125 l-7 35 16 -35 c8 -19 18 -62 20 -96z m-594 -424 c100 -16 194 -8 282 24 41 15 62 20 51 11 -73 -56 -257 -81 -372 -51 -68 18 -158 56 -189 80 -11 9 18 0 65 -18 47 -19 120 -40 163 -46z"/>
 <path d="M1160 1994 c0 -4 18 -68 39 -143 22 -75 42 -161 46 -191 8 -76 18 -90 44 -66 26 23 241 98 347 121 116 24 158 49 188 110 24 48 45 121 46 158 0 16 -23 17 -355 17 -195 0 -355 -3 -355 -6z"/>
 </g>
<g id="layer106" fill="#dcba99" stroke="none">
 <path d="M130 1983 c1 -37 22 -110 46 -158 30 -61 72 -86 188 -110 105 -23 321 -98 346 -120 11 -10 23 -15 26 -12 4 4 13 43 21 87 7 45 29 135 48 201 19 66 35 122 35 125 0 2 -160 4 -355 4 -332 0 -355 -1 -355 -17z"/>
 <path d="M932 1949 c5 -28 13 -60 17 -72 7 -17 3 -27 -18 -44 l-26 -22 40 -41 40 -41 -24 -18 c-13 -10 -48 -31 -77 -46 -73 -38 -81 -49 -99 -135 -12 -59 -23 -83 -49 -110 -56 -59 -103 -128 -127 -185 -18 -43 -28 -55 -47 -57 -14 -2 -28 -10 -32 -18 -99 -198 -122 -259 -118 -301 2 -24 10 -37 26 -44 14 -6 20 -15 16 -25 -15 -41 -44 -180 -44 -216 0 -100 64 -231 159 -321 86 -82 263 -152 427 -168 88 -9 239 16 311 51 28 13 67 43 87 65 l37 40 29 -33 c33 -36 39 -25 14 24 -12 24 -13 30 -3 25 53 -21 54 -21 26 10 l-28 31 49 49 c38 38 52 61 62 103 16 68 8 171 -23 278 -23 77 -23 82 -6 82 21 0 39 28 39 60 0 24 -34 110 -91 228 -32 65 -44 82 -62 82 -17 0 -30 16 -59 78 -21 44 -61 104 -93 140 -53 58 -58 67 -65 128 -10 80 -28 103 -122 150 -36 18 -70 39 -73 45 -4 6 7 25 24 43 37 38 38 47 10 72 -22 19 -22 39 -3 132 l7 32 -70 0 -70 0 9 -51z m175 -632 c16 -16 11 -17 -105 -17 -67 0 -122 2 -122 5 0 2 12 11 28 20 39 22 175 17 199 -8z m-387 -427 c0 -45 -8 -49 -35 -20 -17 19 -17 21 0 40 27 29 35 25 35 -20z m170 34 c0 -13 -21 -44 -30 -44 -6 0 -10 11 -10 25 0 18 5 25 20 25 11 0 20 -3 20 -6z m260 -19 c0 -27 -9 -32 -28 -13 -18 18 -14 38 8 38 15 0 20 -7 20 -25z m164 3 c11 -16 13 -25 4 -35 -20 -25 -38 -15 -38 22 0 40 12 45 34 13z m-474 -39 c0 -5 -10 -9 -21 -9 -18 0 -19 2 -9 15 12 15 30 12 30 -6z m430 1 c0 -11 -7 -20 -15 -20 -15 0 -21 21 -8 33 12 13 23 7 23 -13z m-801 -210 c-17 -79 -8 -167 23 -230 33 -66 29 -78 -5 -18 -34 58 -50 122 -42 172 9 63 27 138 31 133 3 -2 -1 -28 -7 -57z m1058 -86 c6 -71 -15 -157 -54 -215 -14 -22 -27 -38 -29 -36 -1 1 12 31 29 67 29 58 32 73 32 155 0 49 -3 106 -7 125 l-7 35 16 -35 c8 -19 18 -62 20 -96z m-594 -424 c100 -16 194 -8 282 24 41 15 62 20 51 11 -73 -56 -257 -81 -372 -51 -68 18 -158 56 -189 80 -11 9 18 0 65 -18 47 -19 120 -40 163 -46z"/>
 <path d="M1160 1996 c0 -2 18 -66 39 -143 22 -76 42 -163 46 -193 8 -76 18 -90 44 -66 26 23 241 98 347 121 116 24 158 49 188 110 24 48 45 121 46 158 0 16 -23 17 -355 17 -195 0 -355 -2 -355 -4z"/>
 </g>
<g id="layer107" fill="#cea57c" stroke="none">
 <path d="M130 1983 c1 -37 22 -110 46 -158 30 -61 72 -86 188 -110 105 -23 321 -98 346 -120 11 -10 23 -15 26 -12 4 4 13 43 21 87 7 45 29 135 48 201 19 66 35 122 35 125 0 2 -160 4 -355 4 -332 0 -355 -1 -355 -17z"/>
 <path d="M932 1949 c5 -28 13 -60 17 -72 7 -17 3 -27 -18 -44 l-26 -22 40 -41 40 -41 -24 -18 c-13 -10 -48 -31 -77 -46 -73 -38 -81 -49 -99 -135 -12 -59 -23 -83 -49 -110 -56 -59 -103 -128 -127 -185 -18 -43 -28 -55 -47 -57 -14 -2 -28 -10 -32 -18 -99 -198 -122 -259 -118 -301 2 -24 10 -37 26 -44 14 -6 20 -15 16 -25 -15 -41 -44 -180 -44 -216 0 -100 64 -231 159 -321 86 -82 263 -152 427 -168 80 -8 233 15 299 44 23 10 64 40 91 65 l49 47 27 -33 c30 -37 37 -24 12 24 -12 24 -13 30 -3 25 53 -21 54 -20 25 11 -15 17 -25 35 -22 41 4 6 3 11 -3 11 -17 0 -23 -20 -11 -35 9 -11 7 -12 -9 -8 -23 6 -27 -7 -8 -26 10 -10 9 -11 -3 -6 -10 3 -28 -8 -49 -30 -34 -37 -127 -91 -148 -87 -6 2 -14 -2 -18 -7 -3 -6 -12 -8 -20 -4 -8 3 -23 2 -32 -2 -22 -9 -202 -9 -224 0 -9 3 -20 5 -25 4 -5 -1 -16 0 -24 4 -8 3 -42 13 -75 22 -32 9 -81 28 -107 41 -27 14 -53 22 -59 19 -5 -4 -8 -1 -7 7 2 7 -5 12 -14 12 -10 -1 -16 2 -13 6 7 11 -22 33 -33 26 -11 -7 -55 38 -46 47 10 10 -17 38 -29 30 -6 -3 -7 -1 -3 5 3 6 -7 33 -23 59 -16 26 -33 60 -36 76 -4 15 -10 29 -14 32 -9 5 6 137 20 185 6 19 21 62 32 95 l22 60 5 -80 5 -80 19 100 19 100 13 -64 c7 -35 26 -91 42 -126 l29 -62 -75 -22 c-41 -12 -72 -24 -70 -26 6 -6 137 23 160 35 9 5 33 6 53 3 22 -3 46 -1 61 7 20 11 28 11 48 0 14 -7 38 -10 55 -7 17 4 33 2 37 -4 3 -6 16 -9 27 -8 12 1 30 -2 40 -6 10 -4 21 -5 24 -1 3 3 12 1 19 -5 8 -6 20 -9 29 -6 8 4 17 2 21 -4 3 -6 12 -8 20 -5 7 3 16 1 20 -5 3 -6 12 -8 19 -5 7 2 16 1 21 -4 5 -4 27 -13 49 -20 84 -26 114 -48 121 -85 12 -63 19 -45 16 40 -3 76 -1 90 29 157 18 40 40 100 50 133 19 69 21 67 43 -80 l14 -90 2 90 2 90 29 -105 c26 -92 29 -117 26 -205 -2 -55 -8 -108 -12 -119 -16 -36 18 -11 39 30 31 58 28 209 -6 322 -23 77 -24 82 -7 82 21 0 39 28 39 60 0 24 -34 110 -91 228 -32 65 -44 82 -62 82 -17 0 -30 16 -59 78 -21 44 -61 104 -93 140 -53 58 -58 67 -65 128 -10 80 -28 103 -122 150 -36 18 -70 39 -73 45 -4 6 7 25 24 43 37 38 38 47 10 72 -22 19 -22 39 -3 132 l7 32 -70 0 -70 0 9 -51z m175 -632 c16 -16 11 -17 -105 -17 -67 0 -122 2 -122 5 0 2 12 11 28 20 39 22 175 17 199 -8z m-387 -427 c0 -45 -8 -49 -35 -20 -17 19 -17 21 0 40 27 29 35 25 35 -20z m170 34 c0 -13 -21 -44 -30 -44 -6 0 -10 11 -10 25 0 18 5 25 20 25 11 0 20 -3 20 -6z m260 -19 c0 -27 -9 -32 -28 -13 -18 18 -14 38 8 38 15 0 20 -7 20 -25z m164 3 c11 -16 13 -25 4 -35 -20 -25 -38 -15 -38 22 0 40 12 45 34 13z m-474 -39 c0 -5 -10 -9 -21 -9 -18 0 -19 2 -9 15 12 15 30 12 30 -6z m430 1 c0 -11 -7 -20 -15 -20 -15 0 -21 21 -8 33 12 13 23 7 23 -13z m-453 -115 c68 0 99 -3 92 -10 -17 -17 -169 -11 -209 8 -19 9 -24 13 -10 9 14 -4 71 -7 127 -7z m483 -3 c-40 -18 -193 -23 -209 -7 -7 7 17 9 72 7 45 -2 98 1 117 6 51 15 60 13 20 -6z"/>
 <path d="M1160 1996 c0 -2 18 -66 39 -143 22 -76 42 -163 46 -193 8 -76 18 -90 44 -66 26 23 241 98 347 121 116 24 158 49 188 110 24 48 45 121 46 158 0 16 -23 17 -355 17 -195 0 -355 -2 -355 -4z"/>
 <path d="M840 570 c137 -7 221 -21 293 -46 22 -8 42 -12 44 -10 3 3 -33 17 -79 32 -73 24 -101 27 -238 29 l-155 3 135 -8z"/>
 <path d="M1383 530 c0 -25 2 -35 4 -22 2 12 2 32 0 45 -2 12 -4 2 -4 -23z"/>
 <path d="M978 483 c12 -2 32 -2 45 0 12 2 2 4 -23 4 -25 0 -35 -2 -22 -4z"/>
 <path d="M713 444 c32 -17 189 -54 227 -53 14 0 -15 9 -65 19 -49 10 -110 26 -134 34 -54 20 -64 20 -28 0z"/>
 <path d="M1250 232 c-25 -15 -74 -35 -110 -45 -54 -15 -58 -17 -20 -12 49 7 153 50 171 71 15 18 13 17 -41 -14z"/>
 <path d="M845 235 c17 -8 39 -14 50 -14 11 0 0 7 -25 15 -56 17 -64 17 -25 -1z"/>
 </g>
<g id="layer108" fill="#c69a70" stroke="none">
 <path d="M130 1983 c1 -37 22 -110 46 -158 30 -61 72 -86 188 -110 105 -23 321 -98 346 -120 11 -10 23 -15 26 -12 4 4 13 43 21 87 7 45 29 135 48 201 19 66 35 122 35 125 0 2 -160 4 -355 4 -332 0 -355 -1 -355 -17z"/>
 <path d="M932 1949 c5 -28 13 -60 17 -72 7 -17 3 -27 -18 -44 l-26 -22 40 -41 40 -41 -24 -18 c-13 -10 -48 -31 -77 -46 -73 -38 -81 -49 -99 -135 -12 -59 -23 -83 -49 -110 -56 -59 -103 -128 -127 -185 -18 -43 -28 -55 -47 -57 -14 -2 -28 -10 -32 -18 -99 -198 -122 -259 -118 -301 2 -24 10 -37 26 -44 14 -6 20 -15 16 -25 -15 -41 -44 -180 -44 -216 0 -100 64 -231 159 -321 99 -95 293 -164 466 -166 102 -2 255 25 255 44 0 12 -17 12 -25 -1 -3 -5 -12 -7 -19 -4 -8 3 -17 1 -20 -5 -4 -6 -13 -8 -21 -4 -9 3 -21 0 -29 -6 -7 -6 -27 -8 -43 -5 -18 4 -33 1 -37 -5 -9 -14 -63 -14 -72 0 -4 6 -20 8 -39 5 -20 -4 -36 -2 -40 4 -4 6 -14 9 -22 6 -9 -4 -22 -1 -30 5 -7 7 -16 9 -20 6 -3 -4 -11 -3 -17 2 -13 10 -115 45 -136 47 -35 3 -40 5 -38 16 2 7 -7 13 -20 14 -25 1 -37 10 -37 27 0 7 -8 11 -17 11 -21 -2 -73 51 -73 74 0 9 -7 17 -15 17 -8 0 -15 9 -15 20 0 11 -6 19 -12 17 -7 -1 -13 1 -14 5 0 5 -2 19 -3 32 -2 13 -11 30 -20 37 -10 7 -15 18 -11 24 4 6 2 17 -4 24 -6 7 -9 21 -5 30 3 9 1 23 -6 31 -10 12 -10 18 0 30 7 8 10 25 6 39 -3 14 -1 28 4 31 6 4 10 12 9 18 -1 7 0 19 3 27 3 8 20 62 37 120 32 104 60 170 72 170 6 0 28 -114 33 -175 4 -45 16 -94 37 -141 l18 -43 -30 -6 c-16 -4 -31 -11 -34 -16 -7 -11 55 0 72 13 7 6 25 7 42 3 17 -3 32 -2 36 4 3 6 30 11 60 11 30 0 57 -5 60 -11 4 -6 19 -7 35 -4 17 4 31 2 35 -5 4 -7 18 -9 30 -6 13 3 27 1 30 -5 4 -6 14 -8 22 -5 8 3 20 3 26 -1 7 -4 26 -8 44 -10 17 -1 51 -10 75 -21 24 -11 66 -27 95 -36 56 -19 71 -31 81 -70 4 -15 8 12 8 64 1 56 7 96 14 105 7 9 10 18 7 22 -4 3 -2 12 3 19 6 6 12 28 14 46 2 19 6 40 10 47 4 6 5 15 1 20 -3 5 0 13 6 16 5 4 8 13 5 21 -3 7 -2 16 3 18 4 3 16 32 26 66 16 54 35 80 35 48 0 -11 73 -259 87 -298 4 -8 5 -22 4 -32 -1 -9 3 -19 9 -23 5 -3 10 -34 10 -69 0 -46 -7 -76 -26 -115 -27 -58 -24 -81 6 -41 48 63 50 198 7 348 -23 77 -23 82 -6 82 21 0 39 28 39 60 0 24 -34 110 -91 228 -32 65 -44 82 -62 82 -17 0 -30 16 -59 78 -21 44 -61 104 -93 140 -53 58 -58 67 -65 128 -10 80 -28 103 -122 150 -36 18 -70 39 -73 45 -4 6 7 25 24 43 37 38 38 47 10 72 -22 19 -22 39 -3 132 l7 32 -70 0 -70 0 9 -51z m175 -632 c16 -16 11 -17 -105 -17 -122 0 -143 7 -88 31 37 16 173 6 193 -14z m-387 -427 c0 -45 -8 -49 -35 -20 -17 19 -17 21 0 40 27 29 35 25 35 -20z m170 34 c0 -13 -21 -44 -30 -44 -6 0 -10 11 -10 25 0 18 5 25 20 25 11 0 20 -3 20 -6z m260 -19 c0 -27 -9 -32 -28 -13 -18 18 -14 38 8 38 15 0 20 -7 20 -25z m164 3 c11 -16 13 -25 4 -35 -20 -25 -38 -15 -38 22 0 40 12 45 34 13z m-474 -39 c0 -5 -10 -9 -21 -9 -18 0 -19 2 -9 15 12 15 30 12 30 -6z m430 1 c0 -11 -7 -20 -15 -20 -15 0 -21 21 -8 33 12 13 23 7 23 -13z m-438 -115 c67 0 94 -3 87 -10 -5 -5 -54 -10 -107 -10 -76 1 -103 5 -122 18 l-25 17 35 -7 c19 -5 79 -8 132 -8z m473 -3 c-36 -20 -207 -24 -225 -6 -9 9 9 11 72 7 45 -2 101 0 123 5 58 14 64 13 30 -6z"/>
 <path d="M1160 1996 c0 -2 18 -66 39 -143 22 -76 42 -163 46 -193 8 -76 18 -90 44 -66 26 23 241 98 347 121 116 24 158 49 188 110 24 48 45 121 46 158 0 16 -23 17 -355 17 -195 0 -355 -2 -355 -4z"/>
 <path d="M1436 266 c3 -7 -2 -16 -10 -19 -9 -4 -16 -11 -16 -17 0 -6 7 -4 16 4 8 9 20 14 25 11 5 -4 9 0 9 8 0 8 -7 17 -14 20 -10 4 -13 1 -10 -7z"/>
 <path d="M1486 262 c-3 -6 1 -13 10 -16 23 -9 28 -2 10 13 -8 7 -17 8 -20 3z"/>
 <path d="M1465 220 c-4 -7 0 -19 9 -28 13 -14 16 -14 16 -2 0 25 -16 44 -25 30z"/>
 <path d="M1340 170 c-14 -11 -20 -20 -15 -20 6 0 21 9 35 20 14 11 21 20 15 20 -5 0 -21 -9 -35 -20z"/>
 </g>
<g id="layer109" fill="#9d7a6a" stroke="none">
 <path d="M130 1983 c1 -37 22 -110 46 -158 30 -61 72 -86 188 -110 105 -23 321 -98 346 -120 11 -10 23 -15 26 -12 4 4 13 43 21 87 7 45 29 135 48 201 19 66 35 122 35 125 0 2 -160 4 -355 4 -332 0 -355 -1 -355 -17z"/>
 <path d="M932 1949 c5 -28 13 -60 17 -72 7 -17 3 -27 -18 -44 l-26 -22 40 -41 40 -41 -24 -18 c-13 -10 -48 -31 -77 -46 -72 -38 -79 -48 -98 -135 -13 -58 -25 -83 -50 -110 -56 -60 -103 -129 -127 -185 -18 -43 -28 -55 -47 -57 -14 -2 -28 -10 -32 -18 -135 -269 -148 -328 -78 -353 14 -5 24 12 53 87 20 52 42 102 50 112 12 16 14 12 20 -39 4 -31 10 -57 14 -57 3 0 7 -30 8 -67 1 -37 7 -69 13 -71 5 -2 7 -8 4 -13 -3 -6 0 -16 6 -24 7 -8 9 -15 5 -15 -4 0 -2 -7 5 -15 7 -8 10 -15 7 -15 -3 0 -1 -13 4 -30 l11 -30 96 6 c146 9 366 -36 516 -105 l61 -28 7 52 c4 29 23 117 43 196 21 79 37 152 38 162 1 9 4 17 8 17 4 0 10 14 14 30 4 17 11 30 15 30 12 0 31 -36 24 -43 -3 -3 10 -50 30 -104 20 -54 39 -104 42 -112 2 -8 7 -12 9 -9 3 3 -1 24 -9 46 -14 40 -14 42 4 42 21 0 40 28 40 60 0 24 -34 110 -91 228 -32 65 -44 82 -62 82 -17 0 -30 16 -59 78 -21 44 -61 104 -94 140 -51 57 -57 68 -63 123 -9 76 -31 104 -115 150 -95 51 -96 53 -58 92 38 39 39 48 11 73 -22 19 -22 39 -3 132 l7 32 -70 0 -70 0 9 -51z m136 -614 c17 -3 36 -13 43 -21 10 -12 -6 -14 -112 -14 -107 0 -121 2 -109 14 29 28 106 37 178 21z m-348 -445 c0 -45 -8 -49 -35 -20 -17 19 -17 21 0 40 27 29 35 25 35 -20z m170 34 c0 -13 -21 -44 -30 -44 -6 0 -10 11 -10 25 0 18 5 25 20 25 11 0 20 -3 20 -6z m260 -19 c0 -27 -9 -32 -28 -13 -18 18 -14 38 8 38 15 0 20 -7 20 -25z m164 3 c11 -16 13 -25 4 -35 -20 -25 -38 -15 -38 22 0 40 12 45 34 13z m-474 -39 c0 -5 -10 -9 -21 -9 -18 0 -19 2 -9 15 12 15 30 12 30 -6z m430 1 c0 -11 -7 -20 -15 -20 -15 0 -21 21 -8 33 12 13 23 7 23 -13z m-425 -116 c83 5 88 4 70 -10 -30 -24 -186 -14 -242 15 -24 12 -43 23 -43 25 0 2 28 -5 63 -16 50 -16 79 -19 152 -14z m510 20 c-54 -41 -230 -60 -271 -29 -17 13 -10 14 71 9 74 -5 101 -2 150 14 74 25 74 25 50 6z"/>
 <path d="M1160 1996 c0 -2 18 -66 39 -143 22 -76 42 -163 46 -193 8 -76 18 -90 44 -66 26 23 241 98 347 121 116 24 158 49 188 110 24 48 45 121 46 158 0 16 -23 17 -355 17 -195 0 -355 -2 -355 -4z"/>
 <path d="M426 683 c-2 -10 -7 -34 -10 -53 -8 -44 8 -11 17 38 7 34 2 45 -7 15z"/>
 <path d="M1564 650 c3 -14 6 -70 7 -125 0 -61 4 -90 8 -75 12 39 4 201 -10 214 -9 8 -10 5 -5 -14z"/>
 <path d="M441 433 c13 -36 62 -113 71 -113 4 0 -9 24 -28 52 -19 29 -34 58 -34 65 0 6 -4 15 -10 18 -6 4 -6 -4 1 -22z"/>
 <path d="M533 290 c23 -37 103 -95 178 -129 69 -33 206 -71 248 -70 14 0 -12 9 -59 19 -149 31 -246 78 -334 159 -30 28 -43 36 -33 21z"/>
 <path d="M1486 262 c-3 -6 1 -13 10 -16 23 -9 28 -2 10 13 -8 7 -17 8 -20 3z"/>
 <path d="M1465 220 c-4 -7 0 -19 9 -28 13 -14 16 -14 16 -2 0 25 -16 44 -25 30z"/>
 <path d="M1018 83 c18 -2 45 -2 60 0 15 2 0 4 -33 4 -33 0 -45 -2 -27 -4z"/>
 </g>
<g id="layer110" fill="#7d8380" stroke="none">
 <path d="M130 1983 c1 -37 22 -110 46 -158 30 -61 72 -86 188 -110 105 -23 321 -98 346 -120 11 -10 23 -16 26 -12 3 3 12 43 20 89 8 46 25 119 39 163 13 44 28 99 33 123 l10 42 -354 0 c-331 0 -354 -1 -354 -17z"/>
 <path d="M932 1949 c5 -28 13 -60 17 -72 7 -17 3 -27 -18 -44 l-26 -22 39 -40 c47 -48 44 -54 -50 -102 -36 -18 -72 -42 -79 -54 -7 -11 -20 -51 -29 -90 -13 -51 -26 -79 -50 -105 -56 -60 -104 -129 -127 -185 -18 -43 -28 -55 -47 -57 -14 -2 -28 -10 -32 -18 -135 -269 -148 -328 -78 -353 14 -5 24 12 53 87 20 52 42 102 50 112 12 16 14 12 20 -39 4 -31 12 -57 17 -57 6 0 7 -7 4 -16 -9 -22 5 -125 16 -118 4 3 6 10 3 15 -8 12 -8 12 55 -13 44 -17 75 -22 158 -21 93 0 102 -2 88 -15 -11 -11 -37 -16 -93 -16 -64 0 -89 5 -137 27 -32 15 -60 27 -61 27 -10 0 -13 -35 -4 -46 6 -8 8 -14 4 -14 -4 0 -2 -7 5 -15 7 -8 10 -15 7 -15 -3 0 -1 -13 4 -30 l11 -30 96 6 c146 9 366 -36 516 -105 l61 -28 7 52 c4 29 23 117 43 196 21 79 37 152 38 162 1 9 4 17 8 17 4 0 10 14 14 30 4 17 11 30 15 30 12 0 31 -36 24 -43 -8 -8 48 -157 59 -157 4 0 5 4 2 10 -3 5 3 10 14 10 22 0 41 27 41 60 0 24 -34 110 -91 228 -32 65 -44 82 -62 82 -17 0 -30 16 -59 78 -21 44 -61 104 -93 139 -50 56 -57 69 -65 122 -11 77 -22 95 -75 126 -25 14 -66 37 -91 51 l-46 26 36 37 c42 43 43 51 15 77 -22 19 -22 39 -3 132 l7 32 -70 0 -70 0 9 -51z m129 -609 c20 -6 42 -17 49 -25 11 -13 -3 -15 -110 -15 -108 0 -121 2 -110 15 25 31 108 42 171 25z m-341 -450 c0 -45 -8 -49 -35 -20 -17 19 -17 21 0 40 27 29 35 25 35 -20z m170 34 c0 -13 -21 -44 -30 -44 -6 0 -10 11 -10 25 0 18 5 25 20 25 11 0 20 -3 20 -6z m260 -19 c0 -27 -9 -32 -28 -13 -18 18 -14 38 8 38 15 0 20 -7 20 -25z m164 3 c11 -16 13 -25 4 -35 -20 -25 -38 -15 -38 22 0 40 12 45 34 13z m-474 -39 c0 -5 -10 -9 -21 -9 -18 0 -19 2 -9 15 12 15 30 12 30 -6z m430 1 c0 -11 -7 -20 -15 -20 -15 0 -21 21 -8 33 12 13 23 7 23 -13z m100 -86 c0 -3 -26 -17 -57 -31 -60 -26 -158 -36 -215 -20 -56 15 -25 25 75 25 71 -1 114 4 142 15 45 17 55 20 55 11z"/>
 <path d="M1175 1948 c7 -29 24 -93 38 -143 14 -49 28 -115 32 -145 8 -76 18 -90 44 -66 26 23 241 98 347 121 116 24 158 49 188 110 24 48 45 121 46 158 0 16 -23 17 -354 17 l-354 0 13 -52z"/>
 <path d="M1570 534 c0 -43 3 -74 7 -70 10 10 11 136 1 142 -4 3 -8 -30 -8 -72z"/>
 <path d="M1018 83 c18 -2 45 -2 60 0 15 2 0 4 -33 4 -33 0 -45 -2 -27 -4z"/>
 </g>
<g id="layer111" fill="#93614a" stroke="none">
 <path d="M130 1983 c1 -37 22 -110 46 -158 30 -61 72 -86 188 -110 105 -23 321 -98 346 -120 11 -10 23 -16 26 -12 3 3 12 43 20 89 8 46 25 119 39 163 13 44 28 99 33 123 l10 42 -354 0 c-331 0 -354 -1 -354 -17z"/>
 <path d="M930 1972 c0 -16 6 -50 14 -75 14 -46 14 -47 -13 -66 l-26 -20 39 -40 c47 -48 44 -54 -50 -102 -36 -18 -72 -42 -79 -54 -7 -11 -20 -51 -29 -90 -13 -51 -26 -79 -50 -105 -56 -60 -104 -129 -127 -185 -18 -43 -28 -55 -47 -57 -14 -2 -28 -10 -32 -18 -135 -269 -148 -328 -78 -353 14 -5 24 12 53 87 20 52 42 102 50 112 12 16 14 12 20 -39 4 -31 12 -57 17 -57 6 0 7 -7 4 -16 -9 -22 5 -125 16 -118 4 3 6 10 3 15 -8 12 -8 12 55 -13 44 -17 75 -22 158 -21 93 0 102 -2 88 -15 -11 -11 -37 -16 -93 -16 -64 0 -89 5 -137 27 -32 15 -60 27 -61 27 -10 0 -13 -35 -4 -46 6 -8 8 -14 4 -14 -4 0 -2 -7 5 -15 7 -8 10 -15 7 -15 -3 0 -1 -13 4 -30 l11 -30 96 6 c146 9 366 -36 516 -105 l61 -28 7 52 c4 29 23 117 43 196 21 79 37 152 38 162 1 9 4 17 8 17 4 0 10 14 14 30 4 17 11 30 15 30 12 0 31 -36 24 -43 -8 -8 48 -157 59 -157 4 0 5 5 2 10 -3 6 3 10 14 10 22 0 41 27 41 60 0 24 -34 110 -91 228 -32 65 -44 82 -62 82 -17 0 -30 16 -59 78 -21 44 -61 104 -93 139 -50 56 -57 69 -65 122 -11 77 -22 95 -75 126 -25 14 -66 37 -91 51 l-46 26 36 37 c42 43 44 55 12 76 -21 14 -23 20 -16 53 4 20 11 54 14 75 l7 37 -66 0 c-65 0 -65 0 -65 -28z m131 -632 c20 -6 42 -17 49 -25 11 -13 -3 -15 -110 -15 -108 0 -121 2 -110 15 25 31 108 42 171 25z m-311 -422 c0 -6 -7 -7 -16 -4 -14 5 -15 0 -12 -34 4 -47 0 -49 -32 -15 l-23 25 22 24 c22 23 61 26 61 4z m124 16 c21 -8 20 -24 -4 -54 -18 -23 -20 -23 -20 -5 0 11 -3 30 -6 43 -6 23 2 27 30 16z m281 -21 c-9 -40 -22 -48 -35 -23 -15 28 -6 50 21 50 18 0 20 -4 14 -27z m153 -48 c-21 -19 -34 -24 -53 -19 -29 7 -31 16 -9 35 13 10 17 10 25 -2 7 -10 9 -6 8 16 -2 49 0 51 28 22 l28 -27 -27 -25z m-470 7 c2 -7 -5 -12 -17 -12 -14 0 -19 5 -14 15 6 17 25 15 31 -3z m532 -88 c0 -3 -26 -17 -57 -31 -60 -26 -158 -36 -215 -20 -56 15 -25 25 75 25 71 -1 114 4 142 15 45 17 55 20 55 11z"/>
 <path d="M1175 1948 c7 -29 24 -93 38 -143 14 -49 28 -115 32 -145 8 -76 18 -90 44 -66 26 23 241 98 347 121 116 24 158 49 188 110 24 48 45 121 46 158 0 16 -23 17 -354 17 l-354 0 13 -52z"/>
 <path d="M1570 534 c0 -43 3 -74 7 -70 10 10 11 136 1 142 -4 3 -8 -30 -8 -72z"/>
 <path d="M1018 83 c18 -2 45 -2 60 0 15 2 0 4 -33 4 -33 0 -45 -2 -27 -4z"/>
 </g>
<g id="layer112" fill="#87523a" stroke="none">
 <path d="M130 1983 c1 -37 22 -110 46 -158 30 -61 72 -86 188 -110 106 -23 321 -98 347 -121 27 -24 35 -11 44 75 4 36 20 107 35 156 16 50 33 109 38 133 l10 42 -354 0 c-331 0 -354 -1 -354 -17z"/>
 <path d="M930 1972 c0 -16 6 -50 14 -75 14 -46 14 -47 -13 -66 l-26 -20 40 -40 c21 -23 46 -41 55 -41 18 0 80 60 80 78 0 6 -11 19 -24 27 -21 14 -23 20 -16 53 4 20 11 54 14 75 l7 37 -66 0 c-65 0 -65 0 -65 -28z"/>
 <path d="M1175 1948 c7 -29 24 -93 38 -143 14 -49 28 -115 32 -145 8 -76 18 -90 44 -66 26 23 241 98 347 121 116 24 158 49 188 110 24 48 45 121 46 158 0 16 -23 17 -354 17 l-354 0 13 -52z"/>
 <path d="M905 1622 c-12 -4 -41 -20 -66 -36 -39 -25 -47 -35 -57 -79 -8 -33 -24 -64 -46 -87 -56 -59 -103 -128 -127 -185 -18 -43 -28 -55 -47 -57 -14 -2 -28 -10 -32 -18 -135 -270 -148 -328 -77 -353 11 -4 17 -1 17 8 0 8 -8 15 -17 15 -15 0 -15 2 -2 13 23 19 69 84 63 90 -3 2 6 22 21 42 14 21 25 44 25 52 0 8 4 12 8 9 5 -3 22 41 40 97 18 62 47 127 71 164 48 75 163 193 211 218 42 22 172 25 210 5 78 -40 212 -189 256 -283 12 -27 34 -93 50 -147 15 -55 32 -98 38 -97 6 1 26 -28 46 -64 19 -37 41 -74 49 -83 12 -14 11 -16 -3 -16 -9 0 -16 -6 -16 -14 0 -18 40 -10 58 12 25 32 9 86 -79 270 -32 66 -44 82 -62 82 -18 0 -28 13 -50 64 -16 35 -54 94 -85 131 -70 83 -81 102 -84 149 -2 20 -7 36 -11 36 -5 0 -29 14 -55 32 -43 30 -54 32 -137 35 -49 1 -99 -1 -110 -5z m-325 -467 c0 -19 -38 -96 -61 -122 -16 -19 -26 -39 -23 -48 9 -24 -4 -78 -27 -105 l-20 -25 5 50 c4 56 11 76 62 181 20 41 42 74 50 74 8 0 14 -2 14 -5z m913 -96 c40 -83 48 -109 45 -147 l-3 -47 -17 32 c-10 18 -18 50 -18 72 0 28 -8 48 -25 69 -14 17 -32 49 -40 72 -18 51 -18 50 -2 50 6 0 34 -45 60 -101z"/>
 <path d="M977 1383 c-3 -5 8 -8 23 -8 15 0 26 3 23 8 -2 4 -13 7 -23 7 -10 0 -21 -3 -23 -7z"/>
 <path d="M968 1157 c-34 -28 -34 -34 -3 -72 l25 -30 0 38 c0 35 2 37 32 37 l31 0 -23 25 c-28 30 -28 30 -62 2z"/>
 <path d="M1100 960 c0 -5 5 -10 11 -10 5 0 8 -4 5 -9 -3 -4 6 -6 21 -3 24 5 25 3 19 -24 -11 -45 -23 -49 -41 -14 -21 41 -45 27 -29 -17 13 -37 47 -52 138 -60 72 -6 78 -5 93 16 10 14 22 21 34 18 17 -5 17 -3 4 22 -39 72 -44 74 -145 72 -63 -2 -90 1 -85 8 3 6 -1 11 -9 11 -9 0 -16 -4 -16 -10z m208 -95 c-21 -19 -34 -24 -53 -19 -29 7 -31 16 -9 35 13 10 17 10 25 -2 7 -10 9 -6 8 16 -2 49 0 51 28 22 l28 -27 -27 -25z"/>
 <path d="M681 935 c-41 -45 -66 -95 -40 -80 6 4 21 -3 34 -15 22 -21 30 -22 101 -16 92 8 129 25 139 63 11 44 -23 61 -128 65 -78 3 -90 1 -106 -17z m69 -17 c0 -6 -7 -7 -16 -4 -14 5 -15 0 -12 -34 4 -47 0 -49 -32 -15 l-23 25 22 24 c22 23 61 26 61 4z m124 16 c21 -8 20 -24 -4 -54 -18 -23 -20 -23 -20 -5 0 11 -3 30 -6 43 -6 23 2 27 30 16z m-36 -62 c2 -7 -5 -12 -17 -12 -14 0 -19 5 -14 15 6 17 25 15 31 -3z"/>
 </g>
<g id="layer113" fill="#5d5b58" stroke="none">
 <path d="M130 1983 c1 -37 22 -110 46 -158 30 -61 72 -86 188 -110 106 -23 321 -98 347 -121 27 -24 35 -11 44 75 4 36 20 107 35 156 16 50 33 109 38 133 l10 42 -354 0 c-331 0 -354 -1 -354 -17z"/>
 <path d="M930 1972 c0 -16 6 -50 14 -75 14 -46 14 -47 -13 -66 l-26 -20 40 -40 c21 -23 46 -41 55 -41 18 0 80 60 80 78 0 6 -11 19 -24 27 -21 14 -23 20 -16 53 4 20 11 54 14 75 l7 37 -66 0 c-65 0 -65 0 -65 -28z"/>
 <path d="M1174 1948 c7 -29 25 -93 39 -143 15 -49 29 -115 32 -145 8 -75 18 -90 44 -66 26 23 241 98 347 121 116 24 158 49 188 110 24 48 45 121 46 158 0 16 -23 17 -354 17 l-354 0 12 -52z"/>
 <path d="M815 1562 c-11 -9 -26 -37 -34 -62 -7 -25 -27 -61 -45 -80 -57 -61 -104 -129 -127 -185 -18 -43 -28 -55 -47 -57 -14 -2 -28 -10 -32 -18 -129 -260 -145 -320 -90 -347 28 -14 44 -7 17 8 -9 6 -14 15 -10 22 3 6 5 32 4 59 -2 38 5 64 37 130 22 46 42 91 45 101 7 19 34 33 44 23 3 -3 -1 -25 -10 -48 -19 -52 -32 -116 -22 -106 4 4 25 60 46 125 46 140 96 219 204 322 86 81 123 96 231 89 86 -6 115 -22 205 -113 94 -96 134 -163 177 -297 26 -82 41 -116 50 -113 7 3 10 0 7 -5 -3 -5 1 -22 9 -37 l14 -28 8 29 c6 24 3 33 -17 50 -22 19 -59 103 -59 133 0 31 33 -5 64 -70 57 -121 67 -150 65 -194 -2 -23 0 -45 4 -49 3 -4 -4 -15 -16 -25 l-22 -18 25 6 c73 17 66 68 -41 291 -32 65 -44 82 -62 82 -17 0 -30 16 -59 78 -21 43 -61 104 -92 138 -38 42 -58 75 -65 103 -16 75 -32 80 -221 80 -141 0 -168 -2 -185 -17z"/>
 <path d="M967 1155 l-28 -25 21 -35 c27 -44 34 -44 27 -2 -2 18 2 44 9 60 18 33 8 34 -29 2z"/>
 <path d="M517 1022 c-10 -11 -17 -35 -17 -58 l0 -38 18 24 c9 14 17 40 17 57 0 18 0 33 -1 33 0 0 -8 -8 -17 -18z"/>
 <path d="M660 906 c-32 -48 -39 -66 -16 -47 11 9 17 6 30 -14 13 -19 25 -25 55 -25 61 0 144 19 161 37 10 11 11 13 1 8 -10 -6 -12 -2 -6 16 l6 24 -20 -25 c-19 -23 -21 -23 -21 -5 0 11 -3 31 -7 44 -5 21 -3 23 15 19 12 -4 22 -2 22 3 0 5 -43 9 -95 9 l-94 0 -31 -44z m90 12 c0 -6 -7 -7 -16 -4 -14 5 -15 0 -12 -34 4 -47 0 -49 -32 -15 l-23 25 22 24 c22 23 61 26 61 4z m88 -46 c2 -7 -5 -12 -17 -12 -14 0 -19 5 -14 15 6 17 25 15 31 -3z"/>
 <path d="M1138 943 c25 -5 26 -10 11 -50 l-10 -28 -19 25 c-21 27 -26 21 -10 -11 8 -14 7 -19 -2 -20 -34 -2 59 -30 119 -35 64 -6 69 -5 92 20 20 21 27 24 40 13 12 -9 11 -4 -3 18 -50 78 -42 74 -146 73 -52 0 -85 -3 -72 -5z m170 -78 c-21 -19 -34 -24 -53 -19 -29 7 -31 16 -9 35 13 10 17 10 25 -2 7 -10 9 -6 8 16 -2 49 0 51 28 22 l28 -27 -27 -25z"/>
 </g>
<g id="layer114" fill="#794630" stroke="none">
 <path d="M130 1983 c1 -37 22 -110 46 -158 30 -61 72 -86 188 -110 106 -23 321 -98 347 -121 27 -24 34 -11 43 73 4 35 17 99 31 141 13 42 30 103 38 135 l15 57 -354 0 c-331 0 -354 -1 -354 -17z"/>
 <path d="M930 1977 c0 -13 7 -46 15 -73 15 -49 15 -49 -11 -70 l-26 -22 37 -41 c21 -22 43 -41 51 -41 18 0 84 59 84 75 0 7 -11 22 -25 32 -22 16 -23 22 -16 58 5 22 11 55 15 73 l6 32 -65 0 c-61 0 -65 -1 -65 -23z"/>
 <path d="M1177 1943 c8 -32 25 -92 38 -133 12 -41 26 -105 30 -141 9 -86 17 -99 44 -75 26 23 241 98 347 121 116 24 158 49 188 110 24 48 45 121 46 158 0 16 -23 17 -354 17 l-354 0 15 -57z"/>
 <path d="M815 1562 c-11 -9 -26 -37 -34 -62 -7 -25 -27 -61 -45 -80 -57 -61 -104 -129 -127 -185 -18 -43 -28 -55 -47 -57 -14 -2 -28 -10 -32 -18 -129 -260 -145 -320 -90 -347 28 -14 44 -7 17 8 -9 6 -14 15 -10 22 3 6 5 32 4 59 -2 38 5 64 37 130 22 46 42 91 45 101 7 19 34 33 44 23 3 -3 -1 -25 -10 -48 -19 -52 -32 -116 -22 -106 4 4 25 60 46 125 46 140 96 219 204 322 86 81 123 96 231 89 86 -6 115 -22 205 -113 94 -96 134 -163 177 -297 26 -82 41 -116 50 -113 7 3 10 0 7 -5 -3 -5 1 -22 9 -37 l14 -28 8 29 c6 24 3 33 -17 50 -22 19 -59 103 -59 133 0 31 33 -5 64 -70 57 -121 67 -150 65 -194 -2 -23 0 -45 4 -49 3 -4 -4 -15 -16 -25 l-22 -18 25 6 c73 17 66 68 -41 291 -32 65 -44 82 -62 82 -17 0 -30 16 -59 78 -21 43 -61 104 -92 138 -38 42 -58 75 -65 103 -16 75 -32 80 -221 80 -141 0 -168 -2 -185 -17z"/>
 <path d="M967 1155 l-28 -25 21 -35 c27 -44 34 -44 27 -2 -2 18 2 44 9 60 18 33 8 34 -29 2z"/>
 <path d="M517 1022 c-10 -11 -17 -35 -17 -58 l0 -38 18 24 c9 14 17 40 17 57 0 18 0 33 -1 33 0 0 -8 -8 -17 -18z"/>
 <path d="M660 906 c-32 -48 -39 -66 -16 -47 11 9 17 6 30 -14 13 -19 25 -25 55 -25 61 0 144 19 161 37 10 11 11 13 1 8 -10 -6 -12 -2 -6 16 6 23 6 23 -17 -3 -17 -21 -29 -26 -46 -22 -27 8 -24 29 4 28 16 0 19 5 16 27 -3 22 0 28 19 32 13 2 -20 5 -73 6 l-97 1 -31 -44z m94 24 c9 0 12 -9 8 -25 -5 -30 -10 -31 -29 -7 -13 15 -14 13 -11 -20 5 -44 0 -47 -31 -14 -18 20 -21 28 -12 44 12 23 30 32 49 26 8 -2 19 -4 26 -4z m76 -9 c0 -17 -18 -21 -24 -6 -3 9 0 15 9 15 8 0 15 -4 15 -9z"/>
 <path d="M1138 943 c12 -2 22 -8 22 -12 0 -5 12 -6 26 -3 24 4 25 3 13 -17 -15 -23 -29 -28 -29 -8 0 9 -3 8 -9 -2 -5 -7 -7 -23 -4 -35 4 -17 -1 -14 -26 14 -31 35 -40 35 -21 -1 8 -14 7 -19 -2 -20 -34 -2 59 -30 119 -35 64 -6 69 -5 92 20 20 21 27 24 40 13 12 -9 11 -4 -3 18 -50 78 -42 74 -146 73 -52 0 -85 -3 -72 -5z m172 -28 l24 -26 -27 -25 c-20 -18 -33 -23 -52 -18 -27 7 -29 12 -16 33 5 8 16 11 26 7 14 -5 16 -1 10 24 -8 37 4 38 35 5z m-50 -1 c0 -14 -3 -14 -15 -4 -8 7 -15 14 -15 16 0 2 7 4 15 4 8 0 15 -7 15 -16z"/>
 </g>
<g id="layer115" fill="#594535" stroke="none">
 <path d="M130 1983 c1 -37 22 -110 46 -158 30 -61 72 -86 188 -110 106 -23 321 -98 347 -121 27 -24 34 -11 43 73 4 35 17 99 31 141 13 42 30 103 38 135 l15 57 -339 0 -339 0 6 -27 c6 -26 32 -111 48 -158 4 -11 -2 -4 -12 15 -19 33 -34 79 -47 143 -6 30 -25 37 -25 10z m190 -231 c-14 -5 -90 28 -90 39 0 4 23 -2 51 -14 28 -12 45 -23 39 -25z"/>
 <path d="M930 1977 c0 -13 7 -46 15 -73 15 -49 15 -49 -11 -70 l-26 -22 37 -41 c21 -22 43 -41 51 -41 18 0 84 59 84 75 0 7 -11 22 -25 32 -22 16 -23 22 -16 58 5 22 11 55 15 73 l6 32 -65 0 c-61 0 -65 -1 -65 -23z"/>
 <path d="M1177 1943 c8 -32 25 -93 38 -135 14 -42 27 -106 31 -141 9 -84 16 -97 43 -73 26 23 241 98 347 121 116 24 158 49 188 110 27 52 53 161 42 172 -10 11 -18 -4 -27 -51 -8 -43 -49 -150 -54 -144 -2 2 7 35 20 73 12 39 26 82 29 98 l6 27 -339 0 -339 0 15 -57z m593 -152 c0 -11 -76 -44 -91 -39 -7 2 9 12 34 22 28 10 44 22 41 28 -4 7 -2 8 4 4 7 -4 12 -11 12 -15z"/>
 <path d="M933 1551 c-23 -4 -64 -21 -92 -39 -30 -18 -51 -26 -52 -19 0 7 -6 0 -13 -15 -6 -16 -26 -43 -42 -60 -55 -58 -102 -128 -125 -183 -18 -43 -28 -55 -47 -57 -14 -2 -28 -10 -32 -18 -129 -260 -145 -320 -90 -347 34 -17 37 -8 5 19 -25 22 -26 26 -16 58 l11 35 -5 -37 c-4 -22 -1 -39 6 -43 8 -6 10 6 7 41 -4 43 2 63 45 159 28 61 55 113 61 117 32 22 33 -2 6 -91 -11 -35 -18 -66 -16 -68 2 -2 18 42 36 99 40 129 65 177 134 264 63 79 130 138 181 160 52 21 170 18 224 -7 57 -25 174 -146 223 -230 32 -53 49 -99 104 -269 5 -13 6 -13 15 0 8 12 9 11 8 -5 -2 -11 1 -31 5 -45 l9 -25 9 24 c6 17 4 31 -8 48 -8 14 -18 22 -22 18 -7 -6 -40 89 -41 118 -2 37 40 4 54 -43 4 -14 15 -38 25 -55 40 -65 59 -130 50 -169 -4 -20 -4 -38 1 -42 5 -3 10 12 11 33 l1 38 4 -35 c4 -29 0 -38 -23 -57 -28 -22 -28 -22 -4 -16 73 17 66 68 -41 291 -32 65 -44 82 -62 82 -17 0 -30 16 -59 78 -21 43 -61 104 -92 139 -36 39 -59 75 -65 100 -7 31 -9 33 -10 11 l-1 -27 -57 35 c-31 19 -64 34 -74 34 -9 0 -36 2 -60 4 -24 3 -63 1 -86 -3z"/>
 <path d="M967 1152 l-27 -28 26 -35 26 -34 -6 33 c-3 17 -1 44 5 58 13 37 7 38 -24 6z"/>
 <path d="M513 1019 c-15 -15 -17 -45 -4 -53 14 -9 28 17 22 42 -5 18 -8 21 -18 11z"/>
 <path d="M660 906 c-32 -48 -39 -66 -16 -47 11 9 17 6 31 -15 16 -25 19 -26 84 -20 106 11 124 18 125 49 l2 27 -21 -25 c-15 -18 -26 -23 -43 -19 -27 8 -24 29 4 28 16 0 19 6 16 33 l-4 33 -74 0 -73 0 -31 -44z m94 24 c9 0 12 -9 8 -25 -5 -30 -10 -31 -29 -7 -13 15 -14 13 -11 -20 5 -44 0 -47 -31 -14 -18 20 -21 28 -12 44 12 23 30 32 49 26 8 -2 19 -4 26 -4z m76 -9 c0 -17 -18 -21 -24 -6 -3 9 0 15 9 15 8 0 15 -4 15 -9z"/>
 <path d="M1160 936 c0 -9 8 -12 26 -8 24 4 25 3 13 -17 -15 -23 -29 -28 -29 -8 0 9 -3 8 -9 -2 -5 -7 -7 -23 -4 -35 4 -17 -2 -14 -27 14 -23 25 -29 28 -20 11 9 -18 9 -25 0 -31 -17 -11 40 -27 120 -35 61 -6 66 -5 89 19 20 21 27 24 40 13 12 -9 11 -4 -3 18 -49 76 -45 74 -123 75 -55 0 -73 -3 -73 -14z m150 -21 l24 -26 -27 -25 c-20 -18 -33 -23 -52 -18 -27 7 -29 12 -16 33 5 8 16 11 26 7 14 -5 16 -1 10 24 -8 37 4 38 35 5z m-50 -1 c0 -14 -3 -14 -15 -4 -8 7 -15 14 -15 16 0 2 7 4 15 4 8 0 15 -7 15 -16z"/>
 </g>
<g id="layer116" fill="#6c3926" stroke="none">
 <path d="M130 1983 c1 -37 22 -110 46 -158 30 -61 72 -86 188 -110 106 -23 321 -98 347 -121 17 -16 22 -16 29 -4 6 8 10 31 10 51 0 34 10 78 64 272 l25 87 -340 0 -339 0 6 -27 c6 -26 32 -111 48 -158 4 -11 -2 -4 -12 15 -19 33 -34 79 -47 143 -6 30 -25 37 -25 10z m190 -231 c-14 -5 -90 28 -90 39 0 4 23 -2 51 -14 28 -12 45 -23 39 -25z"/>
 <path d="M930 1977 c0 -13 7 -46 15 -73 15 -49 15 -49 -11 -70 l-26 -22 37 -41 c21 -22 43 -41 51 -41 18 0 84 59 84 75 0 7 -11 22 -25 32 -22 16 -23 22 -16 58 5 22 11 55 15 73 l6 32 -65 0 c-61 0 -65 -1 -65 -23z"/>
 <path d="M1177 1943 c8 -32 25 -93 38 -135 14 -42 27 -106 31 -141 9 -84 16 -97 43 -73 26 23 241 98 347 121 116 24 158 49 188 110 27 52 53 161 42 172 -10 11 -18 -4 -27 -51 -8 -43 -49 -150 -54 -144 -2 2 7 35 20 73 12 39 26 82 29 98 l6 27 -339 0 -339 0 15 -57z m593 -152 c0 -11 -76 -44 -91 -39 -7 2 9 12 34 22 28 10 44 22 41 28 -4 7 -2 8 4 4 7 -4 12 -11 12 -15z"/>
 <path d="M933 1551 c-23 -4 -64 -21 -92 -39 -30 -18 -51 -26 -52 -19 0 7 -6 0 -13 -15 -6 -16 -26 -43 -42 -60 -55 -58 -102 -128 -125 -183 -18 -43 -28 -55 -47 -57 -14 -2 -28 -10 -32 -18 -129 -260 -145 -320 -90 -347 34 -17 37 -8 5 19 -25 22 -26 26 -16 58 l11 35 -5 -37 c-4 -22 -1 -39 6 -43 8 -6 10 6 7 41 -4 43 2 63 45 159 28 61 55 113 61 117 32 22 33 -2 6 -91 -11 -35 -18 -66 -16 -68 2 -2 18 42 36 99 40 129 65 177 134 264 63 79 130 138 181 160 52 21 170 18 224 -7 57 -25 174 -146 223 -230 32 -53 49 -99 104 -269 5 -13 6 -13 15 0 8 12 9 11 8 -5 -2 -11 1 -31 5 -45 l9 -25 9 24 c6 17 4 31 -8 48 -8 14 -18 22 -22 18 -7 -6 -40 89 -41 118 -2 37 40 4 54 -43 4 -14 15 -38 25 -55 40 -65 59 -130 50 -169 -4 -20 -4 -38 1 -42 5 -3 10 12 11 33 l1 38 4 -35 c4 -29 0 -38 -23 -57 -28 -22 -28 -22 -4 -16 73 17 66 68 -41 291 -32 65 -44 82 -62 82 -17 0 -30 16 -59 78 -21 43 -61 104 -92 139 -36 39 -59 75 -65 100 -7 31 -9 33 -10 11 l-1 -27 -57 35 c-31 19 -64 34 -74 34 -9 0 -36 2 -60 4 -24 3 -63 1 -86 -3z"/>
 <path d="M967 1152 l-27 -28 26 -35 26 -34 -6 33 c-3 17 -1 44 5 58 13 37 7 38 -24 6z"/>
 <path d="M513 1019 c-15 -15 -17 -45 -4 -53 14 -9 28 17 22 42 -5 18 -8 21 -18 11z"/>
 <path d="M668 914 l-26 -36 34 -30 c32 -29 38 -30 92 -24 91 11 117 22 117 50 l0 25 -22 -27 c-11 -15 -25 -24 -29 -20 -4 4 -14 2 -22 -4 -11 -10 -13 -8 -10 12 2 18 9 25 24 24 18 0 20 4 14 30 -6 31 -6 31 -76 34 l-70 3 -26 -37z m86 16 c9 0 12 -9 8 -25 -5 -30 -10 -31 -29 -7 -13 15 -14 13 -11 -20 5 -44 0 -47 -31 -14 -18 20 -21 28 -12 44 12 23 30 32 49 26 8 -2 19 -4 26 -4z m76 -9 c0 -17 -18 -21 -24 -6 -3 9 0 15 9 15 8 0 15 -4 15 -9z"/>
 <path d="M1160 936 c0 -9 8 -12 26 -8 24 4 25 3 13 -17 -15 -23 -29 -28 -29 -8 0 9 -3 8 -9 -2 -5 -7 -6 -23 -4 -35 4 -19 2 -18 -20 6 l-26 27 3 -26 c4 -31 20 -38 119 -48 58 -6 64 -5 86 19 13 14 28 23 33 19 15 -8 -11 38 -35 65 -17 19 -31 22 -89 22 -51 0 -68 -3 -68 -14z m150 -21 l24 -26 -27 -25 c-20 -18 -33 -23 -52 -18 -27 7 -29 12 -16 33 5 8 16 11 26 7 14 -5 16 -1 10 24 -8 37 4 38 35 5z m-50 -1 c0 -14 -3 -14 -15 -4 -8 7 -15 14 -15 16 0 2 7 4 15 4 8 0 15 -7 15 -16z"/>
 </g>
<g id="layer117" fill="#3e433f" stroke="none">
 <path d="M130 1983 c1 -37 22 -110 46 -158 30 -61 72 -86 188 -110 106 -23 321 -98 347 -121 17 -16 22 -16 29 -4 6 8 10 31 10 51 0 34 10 78 64 272 l25 87 -254 0 c-193 0 -255 -3 -258 -12 -4 -10 -6 -10 -6 0 -1 19 -151 17 -151 -2 0 -8 12 -52 26 -96 14 -45 23 -84 20 -87 -8 -8 -45 77 -52 119 -11 66 -15 78 -24 78 -6 0 -10 -8 -10 -17z m145 -139 c-35 -60 -48 -51 193 -124 57 -17 102 -33 100 -35 -1 -2 -55 12 -118 30 -63 19 -125 34 -137 35 -12 0 -38 7 -56 16 l-34 16 33 50 c19 28 34 55 34 61 0 6 3 8 6 4 4 -3 -6 -27 -21 -53z m320 -12 c-6 -8 -35 12 -35 24 0 11 4 10 18 -3 10 -10 18 -19 17 -21z m15 -116 l25 -30 -31 25 c-17 13 -29 28 -27 32 3 5 6 7 7 5 0 -2 12 -16 26 -32z m10 -51 c14 -8 21 -14 15 -14 -5 0 -21 6 -35 14 -14 8 -20 14 -15 14 6 0 21 -6 35 -14z"/>
 <path d="M930 1977 c0 -13 7 -46 15 -73 15 -49 15 -49 -11 -70 l-26 -22 37 -41 c21 -22 43 -41 51 -41 18 0 84 59 84 75 0 7 -11 22 -25 32 -22 16 -23 22 -16 58 5 22 11 55 15 73 l6 32 -65 0 c-61 0 -65 -1 -65 -23z"/>
 <path d="M1177 1943 c8 -32 25 -93 38 -135 14 -42 27 -106 31 -141 9 -84 16 -97 43 -73 26 23 241 98 347 121 116 24 158 49 188 110 27 52 53 161 42 172 -11 11 -19 -5 -27 -56 -8 -54 -46 -148 -55 -138 -3 3 6 42 20 87 14 44 26 88 26 96 0 19 -146 21 -153 2 -4 -10 -6 -10 -6 0 -1 9 -59 12 -255 12 l-254 0 15 -57z m576 -127 l26 -33 -35 -16 c-19 -10 -45 -17 -57 -17 -12 -1 -74 -16 -137 -35 -63 -18 -116 -32 -118 -30 -4 3 35 16 193 64 55 17 105 34 112 39 9 5 3 26 -23 76 -18 38 -34 76 -34 85 0 9 11 -10 24 -42 13 -31 35 -72 49 -91z m-324 23 c-24 -15 -30 -10 -11 9 9 10 19 14 21 9 2 -5 -3 -13 -10 -18z m-1 -103 c-2 0 -16 -12 -32 -26 l-30 -25 25 31 c13 17 28 29 32 27 5 -3 7 -6 5 -7z m-28 -71 c-14 -8 -29 -14 -35 -14 -5 0 1 6 15 14 14 8 30 14 35 14 6 0 -1 -6 -15 -14z"/>
 <path d="M885 1536 c-16 -7 -45 -25 -62 -40 -29 -24 -33 -26 -34 -9 0 13 -4 11 -13 -9 -6 -16 -26 -43 -42 -60 -55 -58 -102 -128 -125 -183 -18 -43 -28 -55 -47 -57 -14 -2 -28 -10 -32 -18 -85 -169 -120 -255 -120 -294 0 -33 15 -56 37 -56 8 0 6 7 -7 20 -11 11 -20 27 -20 35 0 20 34 105 86 213 41 84 48 93 68 88 19 -5 25 1 39 42 22 60 58 115 131 197 72 81 134 125 194 135 42 7 43 8 12 8 -19 1 -48 -5 -65 -12z"/>
 <path d="M1058 1540 c64 -10 113 -42 189 -124 68 -73 124 -157 143 -215 9 -30 18 -40 28 -36 16 6 52 -21 52 -40 0 -7 11 -34 25 -60 27 -50 68 -144 80 -183 5 -17 0 -29 -24 -51 -28 -26 -29 -29 -9 -24 29 7 48 31 48 60 0 27 -33 109 -91 231 -32 65 -44 82 -62 82 -17 0 -30 16 -59 78 -21 43 -61 104 -92 138 -30 33 -59 76 -64 95 -10 33 -10 33 -11 6 l-1 -29 -32 28 c-44 36 -89 54 -135 53 -34 -1 -32 -2 15 -9z"/>
 <path d="M966 1148 l-25 -23 25 -35 25 -35 -6 36 c-4 21 -2 46 4 58 15 27 8 27 -23 -1z"/>
 <path d="M510 1007 c-10 -20 -11 -30 -2 -39 8 -8 13 -4 17 15 10 40 0 56 -15 24z"/>
 <path d="M1470 1005 c0 -16 5 -37 10 -45 6 -9 10 -10 10 -3 0 6 2 17 5 25 3 7 -1 22 -9 33 -15 19 -15 19 -16 -10z"/>
 <path d="M668 914 l-26 -36 34 -30 c32 -29 38 -30 92 -24 91 11 117 22 117 50 l0 25 -22 -27 c-11 -15 -25 -24 -29 -20 -4 4 -14 2 -22 -4 -11 -10 -13 -8 -10 12 2 18 9 25 24 24 18 0 20 4 14 30 -6 31 -6 31 -76 34 l-70 3 -26 -37z m86 16 c9 0 12 -9 8 -25 -5 -30 -10 -31 -29 -7 -13 15 -14 13 -11 -20 5 -44 0 -47 -31 -14 -18 20 -21 28 -12 44 12 23 30 32 49 26 8 -2 19 -4 26 -4z m76 -9 c0 -17 -18 -21 -24 -6 -3 9 0 15 9 15 8 0 15 -4 15 -9z"/>
 <path d="M1160 936 c0 -9 8 -12 26 -8 24 4 25 3 13 -17 -15 -23 -29 -28 -29 -8 0 9 -3 8 -9 -2 -5 -7 -6 -23 -4 -35 4 -19 2 -18 -20 6 l-26 27 3 -26 c4 -31 20 -38 119 -48 58 -6 64 -5 86 19 13 14 28 23 33 19 15 -8 -11 38 -35 65 -17 19 -31 22 -89 22 -51 0 -68 -3 -68 -14z m150 -21 l24 -26 -27 -25 c-20 -18 -33 -23 -52 -18 -27 7 -29 12 -16 33 5 8 16 11 26 7 14 -5 16 -1 10 24 -8 37 4 38 35 5z m-50 -1 c0 -14 -3 -14 -15 -4 -8 7 -15 14 -15 16 0 2 7 4 15 4 8 0 15 -7 15 -16z"/>
 <path d="M443 875 c0 -22 2 -30 4 -17 2 12 2 30 0 40 -3 9 -5 -1 -4 -23z"/>
 <path d="M1552 870 c0 -19 2 -27 5 -17 2 9 2 25 0 35 -3 9 -5 1 -5 -18z"/>
 </g>
<g id="layer118" fill="#65321f" stroke="none">
 <path d="M130 1983 c1 -37 22 -110 46 -158 30 -61 72 -86 188 -110 106 -23 321 -98 347 -121 17 -16 22 -16 29 -4 6 8 10 31 10 51 0 34 10 78 64 272 l25 87 -254 0 c-193 0 -255 -3 -258 -12 -4 -10 -6 -10 -6 0 -1 19 -151 17 -151 -2 0 -8 12 -52 26 -96 14 -45 23 -84 20 -87 -8 -8 -45 77 -52 119 -11 66 -15 78 -24 78 -6 0 -10 -8 -10 -17z m145 -139 c-35 -60 -48 -51 193 -124 57 -17 102 -33 100 -35 -1 -2 -55 12 -118 30 -63 19 -125 34 -137 35 -12 0 -38 7 -56 16 l-34 16 33 50 c19 28 34 55 34 61 0 6 3 8 6 4 4 -3 -6 -27 -21 -53z m320 -12 c-6 -8 -35 12 -35 24 0 11 4 10 18 -3 10 -10 18 -19 17 -21z m15 -116 l25 -30 -31 25 c-17 13 -29 28 -27 32 3 5 6 7 7 5 0 -2 12 -16 26 -32z m10 -51 c14 -8 21 -14 15 -14 -5 0 -21 6 -35 14 -14 8 -20 14 -15 14 6 0 21 -6 35 -14z"/>
 <path d="M930 1977 c0 -13 7 -46 15 -73 15 -49 15 -49 -12 -71 l-27 -22 41 -40 c22 -23 46 -41 51 -41 16 0 82 60 82 73 0 6 -12 21 -26 32 -24 19 -25 24 -16 60 5 22 13 55 16 73 l6 32 -65 0 c-61 0 -65 -1 -65 -23z"/>
 <path d="M1177 1943 c8 -32 25 -93 38 -135 14 -42 27 -106 31 -141 9 -84 16 -97 43 -73 26 23 241 98 347 121 116 24 158 49 188 110 27 52 53 161 42 172 -11 11 -19 -5 -27 -56 -8 -54 -46 -148 -55 -138 -3 3 6 42 20 87 14 44 26 88 26 96 0 19 -146 21 -153 2 -4 -10 -6 -10 -6 0 -1 9 -59 12 -255 12 l-254 0 15 -57z m576 -127 l26 -33 -35 -16 c-19 -10 -45 -17 -57 -17 -12 -1 -74 -16 -137 -35 -63 -18 -116 -32 -118 -30 -4 3 35 16 193 64 55 17 105 34 112 39 9 5 3 26 -23 76 -18 38 -34 76 -34 85 0 9 11 -10 24 -42 13 -31 35 -72 49 -91z m-324 23 c-24 -15 -30 -10 -11 9 9 10 19 14 21 9 2 -5 -3 -13 -10 -18z m-1 -103 c-2 0 -16 -12 -32 -26 l-30 -25 25 31 c13 17 28 29 32 27 5 -3 7 -6 5 -7z m-28 -71 c-14 -8 -29 -14 -35 -14 -5 0 1 6 15 14 14 8 30 14 35 14 6 0 -1 -6 -15 -14z"/>
 <path d="M885 1536 c-16 -7 -45 -25 -62 -40 -29 -24 -33 -26 -34 -9 0 13 -4 11 -13 -9 -6 -16 -26 -43 -42 -60 -55 -58 -102 -128 -125 -183 -18 -43 -28 -55 -47 -57 -14 -2 -28 -10 -32 -18 -85 -169 -120 -255 -120 -294 0 -33 15 -56 37 -56 8 0 6 7 -7 20 -11 11 -20 27 -20 35 0 20 34 105 86 213 41 84 48 93 68 88 19 -5 25 1 39 42 22 60 58 115 131 197 72 81 134 125 194 135 42 7 43 8 12 8 -19 1 -48 -5 -65 -12z"/>
 <path d="M1058 1540 c64 -10 113 -42 189 -124 68 -73 124 -157 143 -215 9 -30 18 -40 28 -36 16 6 52 -21 52 -40 0 -7 11 -34 25 -60 27 -50 68 -144 80 -183 5 -17 0 -29 -24 -51 -28 -26 -29 -29 -9 -24 29 7 48 31 48 60 0 27 -33 109 -91 231 -32 65 -44 82 -62 82 -17 0 -30 16 -59 78 -21 43 -61 104 -92 138 -30 33 -59 76 -64 95 -10 33 -10 33 -11 6 l-1 -29 -32 28 c-44 36 -89 54 -135 53 -34 -1 -32 -2 15 -9z"/>
 <path d="M966 1148 l-25 -23 25 -35 25 -35 -6 36 c-4 21 -2 46 4 58 15 27 8 27 -23 -1z"/>
 <path d="M510 1007 c-10 -20 -11 -30 -2 -39 8 -8 13 -4 17 15 10 40 0 56 -15 24z"/>
 <path d="M1470 1005 c0 -16 5 -37 10 -45 6 -9 10 -10 10 -3 0 6 2 17 5 25 3 7 -1 22 -9 33 -15 19 -15 19 -16 -10z"/>
 <path d="M668 914 l-26 -36 34 -30 c32 -29 38 -30 92 -24 91 11 117 22 117 50 l0 25 -20 -24 c-11 -13 -33 -27 -49 -31 -26 -6 -28 -5 -22 12 16 38 18 54 7 54 -6 0 -11 5 -11 10 0 6 9 10 20 10 11 0 20 5 20 10 0 6 -29 10 -68 10 -68 0 -69 -1 -94 -36z m101 17 c11 -1 11 -4 1 -16 -7 -8 -10 -24 -7 -35 4 -15 0 -20 -13 -20 -10 0 -20 -5 -22 -12 -3 -7 -15 -3 -36 12 l-31 23 20 29 c16 22 27 27 47 24 15 -2 33 -5 41 -5z"/>
 <path d="M1182 938 c24 -8 26 -13 17 -29 -5 -11 -7 -24 -4 -29 3 -6 -3 -10 -14 -10 -10 0 -22 -6 -24 -12 -4 -9 -12 -5 -25 11 l-19 23 2 -23 c2 -26 22 -34 118 -44 58 -6 64 -5 86 19 13 14 28 23 33 19 15 -8 -11 38 -35 65 -18 19 -30 22 -91 21 -60 0 -67 -2 -44 -11z m128 -23 l24 -26 -27 -25 c-20 -18 -33 -23 -52 -18 -19 5 -24 11 -20 23 7 18 8 21 6 39 0 7 -5 10 -11 7 -5 -3 -10 -2 -10 4 0 5 12 12 28 14 15 2 30 5 33 6 3 0 16 -10 29 -24z"/>
 <path d="M443 875 c0 -22 2 -30 4 -17 2 12 2 30 0 40 -3 9 -5 -1 -4 -23z"/>
 <path d="M1552 870 c0 -19 2 -27 5 -17 2 9 2 25 0 35 -3 9 -5 1 -5 -18z"/>
 </g>
<g id="layer119" fill="#523929" stroke="none">
 <path d="M130 1983 c1 -37 22 -110 46 -158 30 -61 72 -86 188 -110 106 -23 321 -98 347 -121 17 -16 22 -16 29 -4 6 8 10 31 10 51 0 34 10 78 64 272 22 79 23 88 8 85 -24 -5 -92 -225 -91 -298 0 -30 0 -66 0 -80 -1 -24 -1 -24 -15 -4 -8 12 -44 43 -80 69 -37 26 -66 50 -66 52 0 2 16 18 36 35 39 34 37 40 -18 57 l-37 12 29 80 c21 58 25 79 15 79 -8 0 -24 -31 -38 -74 -27 -82 -26 -85 28 -106 l30 -11 -35 -29 -35 -29 60 -57 c33 -31 51 -53 40 -49 -80 32 -212 75 -275 90 -122 27 -148 42 -176 98 -14 27 -30 76 -36 108 -9 54 -28 82 -28 42z"/>
 <path d="M300 1956 c-7 -26 -28 -72 -47 -103 -41 -69 -37 -82 5 -17 33 49 66 136 60 156 -3 7 -10 -9 -18 -36z"/>
 <path d="M930 1977 c0 -13 7 -46 15 -73 15 -49 15 -49 -12 -71 l-27 -22 41 -40 c22 -23 46 -41 51 -41 16 0 82 60 82 73 0 6 -12 21 -26 32 -24 19 -25 24 -16 60 5 22 13 55 16 73 l6 32 -65 0 c-61 0 -65 -1 -65 -23z"/>
 <path d="M1176 1943 c9 -32 26 -93 39 -135 14 -42 27 -106 31 -141 9 -84 16 -97 43 -73 26 23 241 98 347 121 116 24 158 49 188 110 36 72 58 175 37 175 -5 0 -14 -27 -19 -59 -6 -32 -22 -81 -36 -108 -28 -56 -54 -71 -176 -98 -41 -10 -124 -35 -184 -55 l-108 -39 58 55 58 54 -34 29 -35 29 30 12 c54 21 55 25 28 106 -14 43 -30 74 -38 74 -10 0 -6 -21 15 -79 l29 -80 -37 -12 c-55 -17 -57 -24 -18 -55 20 -16 36 -32 36 -35 0 -3 -29 -28 -66 -54 -36 -26 -72 -57 -80 -69 -14 -20 -14 -20 -15 4 0 14 0 50 0 80 1 72 -67 293 -91 298 -15 3 -15 -1 -2 -55z"/>
 <path d="M1681 1988 c-1 -28 35 -117 65 -159 36 -52 43 -43 9 10 -15 22 -38 69 -51 103 -12 35 -23 55 -23 46z"/>
 <path d="M668 914 l-26 -36 34 -30 c32 -29 38 -30 92 -24 91 11 117 22 117 50 l0 25 -20 -24 c-11 -13 -33 -27 -49 -31 -26 -6 -28 -5 -22 12 16 38 18 54 7 54 -6 0 -11 5 -11 10 0 6 9 10 20 10 11 0 20 5 20 10 0 6 -29 10 -68 10 -68 0 -69 -1 -94 -36z m101 17 c11 -1 11 -4 1 -16 -7 -8 -10 -24 -7 -35 4 -15 0 -20 -13 -20 -10 0 -20 -5 -22 -12 -3 -7 -15 -3 -36 12 l-31 23 20 29 c16 22 27 27 47 24 15 -2 33 -5 41 -5z"/>
 <path d="M1182 938 c24 -8 26 -13 17 -29 -5 -11 -7 -24 -4 -29 3 -6 -3 -10 -14 -10 -10 0 -22 -6 -24 -12 -4 -9 -12 -5 -25 11 l-19 23 2 -23 c2 -26 22 -34 118 -44 58 -6 64 -5 86 19 13 14 28 23 33 19 15 -8 -11 38 -35 65 -18 19 -30 22 -91 21 -60 0 -67 -2 -44 -11z m128 -23 l24 -26 -27 -25 c-20 -18 -33 -23 -52 -18 -19 5 -24 11 -20 23 7 18 8 21 6 39 0 7 -5 10 -11 7 -5 -3 -10 -2 -10 4 0 5 12 12 28 14 15 2 30 5 33 6 3 0 16 -10 29 -24z"/>
 </g>
<g id="layer120" fill="#572717" stroke="none">
 <path d="M130 1983 c1 -37 22 -110 46 -158 30 -61 72 -86 188 -110 105 -23 321 -98 346 -120 11 -10 23 -16 26 -13 3 4 10 38 15 77 6 39 26 124 45 189 37 126 41 156 22 150 -21 -7 -88 -236 -87 -298 0 -30 0 -66 0 -80 -1 -24 -1 -24 -15 -4 -8 12 -44 43 -80 69 -37 26 -66 50 -66 52 0 2 16 18 36 35 39 34 37 40 -18 57 l-37 12 29 80 c21 58 25 79 15 79 -8 0 -24 -31 -38 -74 -27 -82 -26 -85 28 -106 l30 -11 -35 -29 -35 -29 60 -57 c33 -31 51 -53 40 -49 -80 32 -212 75 -275 90 -122 27 -148 42 -176 98 -14 27 -30 76 -36 108 -9 54 -28 82 -28 42z"/>
 <path d="M300 1956 c-7 -26 -28 -72 -47 -103 -41 -69 -37 -82 5 -17 33 49 66 136 60 156 -3 7 -10 -9 -18 -36z"/>
 <path d="M930 1977 c0 -13 7 -46 15 -73 15 -49 15 -49 -12 -71 l-27 -22 41 -40 c22 -23 46 -41 51 -41 16 0 82 60 82 73 0 6 -12 21 -26 32 -24 19 -25 24 -16 60 5 22 13 55 16 73 l6 32 -65 0 c-61 0 -65 -1 -65 -23z"/>
 <path d="M1170 1983 c0 -10 15 -71 34 -135 19 -65 39 -150 45 -189 5 -39 12 -73 15 -77 3 -3 15 3 26 13 25 22 241 97 346 120 116 24 158 49 188 110 36 72 58 175 37 175 -5 0 -14 -27 -19 -59 -6 -32 -22 -81 -36 -108 -28 -56 -54 -71 -176 -98 -41 -10 -124 -35 -184 -55 l-108 -39 58 55 58 54 -34 29 -35 29 30 12 c54 21 55 25 28 106 -14 43 -30 74 -38 74 -10 0 -6 -21 15 -79 l29 -80 -37 -12 c-55 -17 -57 -24 -18 -55 20 -16 36 -32 36 -35 0 -3 -29 -28 -66 -54 -36 -26 -72 -57 -80 -69 -14 -20 -14 -20 -15 4 0 14 0 50 0 80 1 62 -66 291 -86 298 -7 2 -13 -4 -13 -15z"/>
 <path d="M1681 1988 c-1 -28 35 -117 65 -159 36 -52 43 -43 9 10 -15 22 -38 69 -51 103 -12 35 -23 55 -23 46z"/>
 <path d="M669 913 l-26 -36 33 -29 33 -29 76 10 c67 10 132 30 98 31 -8 0 -10 7 -6 18 5 12 1 11 -13 -5 -10 -12 -32 -25 -48 -29 -26 -6 -28 -5 -22 12 16 38 18 54 7 54 -21 0 -11 20 12 21 21 1 21 1 -3 9 -14 4 -45 8 -70 9 -41 0 -47 -3 -71 -36z m100 18 c11 -1 11 -4 1 -16 -7 -8 -10 -24 -7 -35 4 -15 0 -20 -13 -20 -10 0 -20 -5 -22 -12 -3 -7 -15 -3 -36 12 l-31 23 20 29 c16 22 27 27 47 24 15 -2 33 -5 41 -5z"/>
 <path d="M1195 940 c-3 -5 -1 -10 5 -10 8 0 8 -6 0 -20 -6 -11 -8 -25 -5 -30 3 -6 -3 -10 -14 -10 -10 0 -22 -6 -25 -12 -3 -10 -9 -8 -19 5 -13 15 -15 15 -20 3 -7 -17 32 -30 123 -41 51 -5 58 -4 79 19 13 14 28 23 34 19 12 -8 2 11 -30 55 -21 28 -29 32 -73 32 -27 0 -52 -4 -55 -10z m115 -25 l24 -26 -27 -25 c-20 -18 -33 -23 -52 -18 -19 5 -24 11 -20 23 7 18 8 21 6 39 0 7 -5 10 -11 7 -5 -3 -10 -2 -10 4 0 5 12 12 28 14 15 2 30 5 33 6 3 0 16 -10 29 -24z"/>
 </g>
<g id="layer121" fill="#30312a" stroke="none">
 <path d="M130 1983 c1 -37 22 -110 46 -158 30 -61 72 -86 188 -110 105 -23 321 -98 346 -120 11 -10 23 -16 26 -13 3 4 10 39 15 80 6 40 26 124 45 187 33 111 43 165 26 146 -19 -22 -82 -273 -82 -327 0 -54 -12 -83 -23 -55 -3 8 -29 30 -59 51 l-53 37 40 -36 40 -36 -55 22 c-30 12 -109 37 -175 56 -254 74 -226 60 -262 132 -18 35 -36 85 -39 112 -6 46 -24 70 -24 32z"/>
 <path d="M583 1985 c-21 -40 -45 -126 -39 -140 3 -8 11 -15 18 -15 10 0 10 2 1 8 -9 6 -6 25 13 76 24 66 28 112 7 71z"/>
 <path d="M930 1977 c0 -13 7 -46 15 -73 15 -49 15 -49 -12 -71 l-27 -22 41 -40 c22 -23 46 -41 51 -41 16 0 82 60 82 73 0 6 -12 21 -26 32 -24 19 -25 24 -16 60 5 22 13 55 16 73 l6 32 -65 0 c-61 0 -65 -1 -65 -23z"/>
 <path d="M1170 1983 c0 -11 15 -72 34 -134 19 -63 39 -147 45 -187 5 -41 12 -76 15 -80 3 -3 15 3 26 13 25 22 241 97 346 120 116 24 158 49 188 110 36 71 58 175 37 175 -5 0 -11 -21 -15 -47 -8 -60 -58 -168 -84 -182 -11 -6 -58 -20 -104 -31 -89 -21 -200 -55 -288 -89 l-55 -22 40 36 40 36 -53 -37 c-30 -21 -56 -43 -59 -51 -11 -28 -23 1 -23 55 0 35 -14 107 -37 187 -35 128 -53 170 -53 128z"/>
 <path d="M1400 1991 c0 -6 11 -41 25 -78 18 -50 21 -69 12 -75 -9 -6 -9 -8 1 -8 23 0 24 29 2 95 -19 58 -40 92 -40 66z"/>
 <path d="M1710 1895 c0 -12 48 -85 56 -85 3 0 -3 12 -14 28 -10 15 -24 36 -30 47 -6 11 -12 15 -12 10z"/>
 <path d="M598 1817 l22 -13 -30 -22 c-36 -27 -38 -42 -7 -68 l22 -19 -19 23 c-19 22 -19 22 13 56 32 33 33 34 13 45 -12 6 -24 11 -29 11 -4 -1 2 -6 15 -13z"/>
 <path d="M1387 1819 c-18 -10 -17 -13 14 -45 32 -34 32 -34 13 -56 l-19 -23 23 19 c30 26 28 41 -8 68 l-30 22 22 13 c13 7 19 12 13 12 -5 0 -18 -4 -28 -10z"/>
 <path d="M669 913 l-26 -36 33 -29 33 -29 76 10 c67 10 132 30 98 31 -8 0 -10 7 -6 18 5 12 1 11 -13 -5 -10 -12 -32 -25 -48 -29 -26 -6 -28 -5 -22 12 16 38 18 54 7 54 -21 0 -11 20 12 21 21 1 21 1 -3 9 -14 4 -45 8 -70 9 -41 0 -47 -3 -71 -36z m100 18 c11 -1 11 -4 1 -16 -7 -8 -10 -24 -7 -35 4 -15 0 -20 -13 -20 -10 0 -20 -5 -22 -12 -3 -7 -15 -3 -36 12 l-31 23 20 29 c16 22 27 27 47 24 15 -2 33 -5 41 -5z"/>
 <path d="M1195 940 c-3 -5 -1 -10 5 -10 8 0 8 -6 0 -20 -6 -11 -8 -25 -5 -30 3 -6 -3 -10 -14 -10 -10 0 -22 -6 -25 -12 -3 -10 -9 -8 -19 5 -13 15 -15 15 -20 3 -7 -17 32 -30 123 -41 51 -5 58 -4 79 19 13 14 28 23 34 19 12 -8 2 11 -30 55 -21 28 -29 32 -73 32 -27 0 -52 -4 -55 -10z m115 -25 l24 -26 -27 -25 c-20 -18 -33 -23 -52 -18 -19 5 -24 11 -20 23 7 18 8 21 6 39 0 7 -5 10 -11 7 -5 -3 -10 -2 -10 4 0 5 12 12 28 14 15 2 30 5 33 6 3 0 16 -10 29 -24z"/>
 </g>
<g id="layer122" fill="#481b0c" stroke="none">
 <path d="M130 1983 c1 -37 22 -110 46 -158 30 -61 72 -86 188 -110 105 -23 321 -98 346 -120 11 -10 23 -16 26 -13 3 4 10 39 15 80 6 40 26 124 45 187 33 111 43 165 26 146 -19 -22 -82 -273 -82 -327 0 -54 -12 -83 -23 -55 -3 8 -29 30 -59 51 l-53 37 40 -36 40 -36 -55 22 c-30 12 -109 37 -175 56 -254 74 -226 60 -262 132 -18 35 -36 85 -39 112 -6 46 -24 70 -24 32z"/>
 <path d="M583 1985 c-21 -40 -45 -126 -39 -140 3 -8 11 -15 18 -15 10 0 10 2 1 8 -9 6 -6 25 13 76 24 66 28 112 7 71z"/>
 <path d="M930 1982 c0 -11 7 -41 15 -68 20 -65 19 -68 -10 -84 l-24 -13 19 -27 c11 -15 31 -35 45 -44 24 -16 27 -16 55 4 17 12 35 31 41 42 9 17 7 24 -15 42 l-26 21 14 73 14 72 -64 0 c-55 0 -64 -2 -64 -18z"/>
 <path d="M1170 1983 c0 -11 15 -72 34 -134 19 -63 39 -147 45 -187 5 -41 12 -76 15 -80 3 -3 15 3 26 13 25 22 241 97 346 120 116 24 158 49 188 110 36 71 58 175 37 175 -5 0 -11 -21 -15 -47 -8 -60 -58 -168 -84 -182 -11 -6 -58 -20 -104 -31 -89 -21 -200 -55 -288 -89 l-55 -22 40 36 40 36 -53 -37 c-30 -21 -56 -43 -59 -51 -11 -28 -23 1 -23 55 0 35 -14 107 -37 187 -35 128 -53 170 -53 128z"/>
 <path d="M1400 1991 c0 -6 11 -41 25 -78 18 -50 21 -69 12 -75 -9 -6 -9 -8 1 -8 23 0 24 29 2 95 -19 58 -40 92 -40 66z"/>
 <path d="M1710 1895 c0 -12 48 -85 56 -85 3 0 -3 12 -14 28 -10 15 -24 36 -30 47 -6 11 -12 15 -12 10z"/>
 <path d="M598 1817 l22 -13 -30 -22 c-36 -27 -38 -42 -7 -68 l22 -19 -19 23 c-19 22 -19 22 13 56 32 33 33 34 13 45 -12 6 -24 11 -29 11 -4 -1 2 -6 15 -13z"/>
 <path d="M1387 1819 c-18 -10 -17 -13 14 -45 32 -34 32 -34 13 -56 l-19 -23 23 19 c30 26 28 41 -8 68 l-30 22 22 13 c13 7 19 12 13 12 -5 0 -18 -4 -28 -10z"/>
 <path d="M684 928 c-19 -23 -19 -23 1 -6 11 9 31 18 45 21 l25 4 -26 2 c-16 0 -33 -8 -45 -21z"/>
 <path d="M1272 940 c14 -4 32 -11 40 -16 10 -6 10 -4 -1 9 -7 9 -25 17 -40 16 l-26 -1 27 -8z"/>
 <path d="M766 903 c-4 -9 0 -23 9 -32 14 -14 17 -14 25 -1 11 17 14 47 3 37 -3 -4 -12 -2 -18 3 -9 8 -15 6 -19 -7z"/>
 <path d="M1200 897 c0 -30 18 -46 31 -26 10 16 12 45 2 36 -3 -4 -12 -2 -20 4 -10 9 -13 6 -13 -14z"/>
 <path d="M1325 900 c7 -19 -38 -60 -62 -58 -10 1 -31 0 -48 -2 -21 -2 -14 -5 25 -10 51 -6 57 -4 81 22 23 24 25 30 13 45 -10 13 -13 14 -9 3z"/>
 <path d="M654 889 c-3 -6 6 -24 22 -39 27 -25 33 -27 84 -20 l55 7 -56 2 c-44 1 -60 6 -77 24 -12 13 -19 27 -15 30 3 4 4 7 0 7 -3 0 -9 -5 -13 -11z"/>
 <path d="M860 861 c0 -6 -8 -11 -17 -12 -10 0 -13 -3 -6 -5 18 -8 49 11 34 20 -6 4 -11 2 -11 -3z"/>
 <path d="M1125 850 c3 -5 16 -10 28 -9 21 0 21 1 2 9 -28 12 -37 12 -30 0z"/>
 </g>
<g id="layer123" fill="#391102" stroke="none">
 <path d="M138 1981 c-4 -13 -2 -33 3 -43 6 -11 8 -22 6 -25 -3 -2 1 -16 8 -30 8 -15 12 -30 9 -35 -3 -4 0 -8 6 -8 6 0 9 -3 7 -7 -3 -5 4 -17 15 -28 16 -16 15 -11 -6 36 -14 30 -29 79 -34 109 -6 44 -9 50 -14 31z"/>
 <path d="M577 1956 c-23 -68 -21 -82 3 -21 11 28 19 54 17 60 -2 5 -11 -12 -20 -39z"/>
 <path d="M786 1868 c-22 -75 -40 -162 -42 -198 l-3 -65 9 65 c5 36 23 109 39 162 30 98 47 168 39 168 -2 0 -21 -60 -42 -132z"/>
 <path d="M930 1982 c0 -11 7 -41 15 -68 20 -65 19 -68 -10 -84 l-24 -13 19 -27 c11 -15 31 -35 45 -44 24 -16 27 -16 55 4 17 12 35 31 41 42 9 17 7 24 -15 42 l-26 21 14 73 14 72 -64 0 c-55 0 -64 -2 -64 -18z"/>
 <path d="M1176 1967 c3 -21 19 -82 35 -135 16 -53 34 -126 39 -162 l9 -65 -4 70 c-2 40 -20 122 -40 190 -41 138 -47 155 -39 102z"/>
 <path d="M1401 1995 c-1 -5 8 -32 19 -60 12 -27 18 -37 15 -21 -7 34 -33 96 -34 81z"/>
 <path d="M1851 1974 c-1 -46 -28 -127 -56 -169 -14 -20 -24 -40 -20 -43 3 -3 5 0 5 7 0 7 5 9 12 5 6 -4 8 -3 5 3 -4 5 2 19 13 30 10 12 16 24 13 27 -4 3 -1 6 6 6 7 0 10 4 7 8 -3 5 1 20 9 35 7 14 11 28 8 30 -2 3 0 14 6 25 7 13 8 29 2 44 -9 22 -10 21 -10 -8z"/>
 <path d="M594 1778 l-29 -33 33 29 c17 17 32 31 32 33 0 8 -8 1 -36 -29z"/>
 <path d="M1370 1807 c0 -2 15 -16 33 -33 l32 -29 -29 33 c-28 30 -36 37 -36 29z"/>
 <path d="M255 1750 c13 -12 38 -22 65 -24 25 -2 45 -5 45 -6 0 -1 16 -3 35 -5 l35 -3 -40 13 c-22 7 -50 14 -63 14 -12 1 -39 8 -60 16 l-37 16 20 -21z"/>
 <path d="M1725 1755 c-16 -8 -41 -15 -55 -15 -14 -1 -43 -8 -65 -15 l-40 -13 35 3 c19 2 35 4 35 5 0 1 20 4 45 6 27 2 52 12 64 24 23 23 22 23 -19 5z"/>
 <path d="M1470 1685 c-83 -29 -159 -63 -143 -64 11 -1 61 17 128 44 11 5 22 9 25 10 3 1 16 6 30 12 14 6 32 13 40 16 13 5 13 5 0 5 -8 0 -44 -10 -80 -23z"/>
 <path d="M490 1689 c14 -7 27 -13 30 -14 3 -1 19 -7 35 -14 78 -31 116 -43 120 -39 6 6 -138 64 -180 72 -29 6 -30 6 -5 -5z"/>
 <path d="M690 1624 c0 -6 9 -19 19 -28 15 -14 21 -15 27 -4 4 7 4 10 -1 6 -4 -4 -16 3 -26 15 -10 12 -18 17 -19 11z"/>
 <path d="M1284 1605 c-4 -8 -11 -12 -17 -8 -6 4 -7 1 -3 -6 6 -9 13 -8 27 5 22 20 23 24 9 24 -6 0 -13 -7 -16 -15z"/>
 <path d="M684 928 c-19 -23 -19 -23 1 -6 11 9 31 18 45 21 l25 4 -26 2 c-16 0 -33 -8 -45 -21z"/>
 <path d="M1272 940 c14 -4 32 -11 40 -16 10 -6 10 -4 -1 9 -7 9 -25 17 -40 16 l-26 -1 27 -8z"/>
 <path d="M766 903 c-4 -9 0 -23 9 -32 14 -14 17 -14 25 -1 11 17 14 47 3 37 -3 -4 -12 -2 -18 3 -9 8 -15 6 -19 -7z"/>
 <path d="M1200 897 c0 -30 18 -46 31 -26 10 16 12 45 2 36 -3 -4 -12 -2 -20 4 -10 9 -13 6 -13 -14z"/>
 <path d="M1325 900 c7 -19 -38 -60 -62 -58 -10 1 -31 0 -48 -2 -21 -2 -14 -5 25 -10 51 -6 57 -4 81 22 23 24 25 30 13 45 -10 13 -13 14 -9 3z"/>
 <path d="M654 889 c-3 -6 6 -24 22 -39 27 -25 33 -27 84 -20 l55 7 -56 2 c-44 1 -60 6 -77 24 -12 13 -19 27 -15 30 3 4 4 7 0 7 -3 0 -9 -5 -13 -11z"/>
 <path d="M860 861 c0 -6 -8 -11 -17 -12 -10 0 -13 -3 -6 -5 18 -8 49 11 34 20 -6 4 -11 2 -11 -3z"/>
 <path d="M1125 850 c3 -5 16 -10 28 -9 21 0 21 1 2 9 -28 12 -37 12 -30 0z"/>
 </g>
<g id="layer124" fill="#0e0f0d" stroke="none">
 <path d="M930 1982 c0 -11 7 -41 15 -68 20 -65 19 -68 -10 -84 l-24 -13 19 -27 c11 -15 31 -35 45 -44 24 -16 27 -16 55 4 17 12 35 31 41 42 9 17 7 24 -15 42 l-26 21 14 73 14 72 -64 0 c-55 0 -64 -2 -64 -18z"/>
 <path d="M684 928 c-19 -23 -19 -23 1 -6 11 9 31 18 45 21 l25 4 -26 2 c-16 0 -33 -8 -45 -21z"/>
 <path d="M1272 940 c14 -4 32 -11 40 -16 10 -6 10 -4 -1 9 -7 9 -25 17 -40 16 l-26 -1 27 -8z"/>
 <path d="M766 903 c-4 -9 0 -23 9 -32 14 -14 17 -14 25 -1 11 17 14 47 3 37 -3 -4 -12 -2 -18 3 -9 8 -15 6 -19 -7z"/>
 <path d="M1200 897 c0 -30 18 -46 31 -26 10 16 12 45 2 36 -3 -4 -12 -2 -20 4 -10 9 -13 6 -13 -14z"/>
 <path d="M1325 900 c7 -19 -38 -60 -62 -58 -10 1 -31 0 -48 -2 -21 -2 -14 -5 25 -10 51 -6 57 -4 81 22 23 24 25 30 13 45 -10 13 -13 14 -9 3z"/>
 <path d="M654 889 c-3 -6 6 -24 22 -39 27 -25 33 -27 84 -20 l55 7 -56 2 c-44 1 -60 6 -77 24 -12 13 -19 27 -15 30 3 4 4 7 0 7 -3 0 -9 -5 -13 -11z"/>
 <path d="M860 861 c0 -6 -8 -11 -17 -12 -10 0 -13 -3 -6 -5 18 -8 49 11 34 20 -6 4 -11 2 -11 -3z"/>
 <path d="M1125 850 c3 -5 16 -10 28 -9 21 0 21 1 2 9 -28 12 -37 12 -30 0z"/>
 </g>

</svg>