<?xml version="1.0" encoding="UTF-8" standalone="no"?>
<svg xmlns:rdf="http://www.w3.org/1999/02/22-rdf-syntax-ns#" xmlns="http://www.w3.org/2000/svg" height="267" viewBox="0 0 266.66666 266.66666" width="267" version="1.1" xmlns:cc="http://creativecommons.org/ns#" xmlns:dc="http://purl.org/dc/elements/1.1/">
 <g stroke-width="1.33">
  <path d="m19.3 260c.484-3.48 2.8-10.2 5.15-14.9 5-10.1 9.95-13.2 26.3-16.8 14.8-3.26 44.4-13.6 46.3-16.2 2.6-3.51 4.12-.736 5.67 10.3.770 5.48 3.06 15.2 5.08 21.7l3.68 11.7 6.42-10.1c3.53-5.58 7.87-11.1 9.64-12.2 4.11-2.69 3.12-3.89-8.51-10.3-5.01-2.74-9.84-6.18-10.8-7.63-.908-1.45-2.16-6.71-2.78-11.7-1.07-8.53-1.65-9.68-10.5-20.7-5.16-6.43-10.7-14.9-12.3-18.9-2.38-5.85-3.53-7.23-6.05-7.23-2.58 0-4.02-1.88-8.42-11-7.9-16.4-12.2-27.2-12.2-30.9 0-3.18 2.48-6.74 5.36-7.7.903-.301.138-5.25-2.13-13.8-4.51-16.9-3.91-25.3 2.76-38.9 9.02-18.4 22.9-29.9 44.7-37.4 18.5-6.31 33.6-7.96 48.5-5.34 14.1 2.48 26.8 8.33 32.8 15.1l4.21 4.8 4.14-3.82 4.14-3.82-2.9 5.08c-3.73 6.53-3.68 6.73 1.1 4.26 4.85-2.51 5.19-.919.719 3.28l-3.28 3.08 5.1 3.7c8.04 5.82 11.5 14.3 11.4 27.9-.0693 10-2.75 23.6-6.64 33.7-.625 1.62-.254 2.33 1.21 2.33 1.16 0 3.12 1.54 4.36 3.43 2.11 3.22 2.1 3.88-.0644 10.8-1.27 4.03-4.32 11.2-6.77 15.9-2.45 4.71-5.17 10.7-6.03 13.3-1.15 3.49-2.51 4.94-5.11 5.47-2.8.569-4.43 2.58-7.76 9.61-2.32 4.89-7.97 13.4-12.6 18.8-7.92 9.42-8.38 10.4-9.17 18.7-.462 4.81-1.54 10-2.4 11.6-.859 1.56-6.38 5.34-12.3 8.4-5.89 3.07-10.7 6.02-10.7 6.58 0 .552 2.15 3.07 4.77 5.6s6.94 8.1 9.6 12.4l4.83 7.79 3.69-11.8c2.03-6.49 4.32-16.3 5.09-21.8 1.55-11 3.08-13.8 5.67-10.3 1.92 2.59 31.5 12.9 46.3 16.2 16.3 3.58 21.3 6.75 26.3 16.8 2.35 4.73 4.67 11.4 5.15 14.9l.880 6.33h-97l.884-4.03c.706-3.21-.134-5.77-4.17-12.7-2.78-4.75-5.43-8.64-5.88-8.64-.453 0-2.17 1.43-3.82 3.19-2.79 2.97-2.9 3.71-1.57 10.9 2.18 11.8 2.57 11.2-7.91 11.2-5.13 0-9.32-.45-9.31-1 .0108-.55.930-4.86 2.04-9.59 1.95-8.26 1.92-8.69-.681-11.3-3.31-3.31-4.7-2.19-9.98 8.06-2.48 4.81-3.27 7.89-2.65 10.3l.874 3.48h-95.6z" fill="#e3c8ad"/>
  <path d="m18.7 265c0-4.11 3.45-16.3 6.1-21.6 3.85-7.64 10.1-11.5 22.6-14.1 13.8-2.86 47.7-14.7 49.7-17.3 2.56-3.5 3.98-.873 5.51 10.2.758 5.5 3.12 15.7 5.24 22.7 2.12 6.97 4.23 14.6 4.69 17l.828 4.33h-47c-29 0-47.3-.490-47.3-1.27zm106-3.73c.433-2.75 1.55-7.21 2.49-9.91 1.61-4.63 1.52-5.03-1.54-7.03-1.78-1.17-3.24-2.58-3.24-3.13 0-.554 2.19-3.27 4.88-6.03l4.88-5.02-3.15-2.27c-1.73-1.25-6.43-4.07-10.4-6.27-9.44-5.18-12.1-8.99-13.1-18.7-.749-7.26-1.53-8.8-9.47-18.6-4.76-5.85-10.4-14.3-12.5-18.8-3.13-6.7-4.55-8.36-7.68-8.98-2.47-.493-4.17-1.86-4.75-3.82-.503-1.68-3.52-8.45-6.71-15.1-3.19-6.6-6.56-14.9-7.5-18.5-1.68-6.35-1.64-6.53 2-9.66l3.72-3.2-2.66-9.67c-4.9-14.6-5.3-20.3-2.9-29.6 2.8-11.2 8.9-21.5 18-30.6 19.7-19.7 58-29.1 87-21.5 12.9 3.35 16.5 5.23 23.5 12.2l5.63 5.63 4.19-3.87 4.19-3.87-2.95 5.17c-3.38 5.91-3.05 7.06 1.37 4.76l3.11-1.62-3.1 3.37-3.1 3.37 6.7 6.27c8.07 7.55 10.1 12.8 9.9 26-.106 8.4-3.49 25.9-6.56 33.9-.526 1.37-.072 2.1 1.3 2.1 1.16 0 3.09 1.5 4.3 3.33 2.03 3.09 2.02 3.84-.088 10.3-1.25 3.85-4.62 11.8-7.49 17.7-2.87 5.89-5.21 11.3-5.21 12.1 0 1.97-4.48 5.83-6.77 5.83-1.04.003-4.15 4.4-6.9 9.76-2.75 5.37-8.6 14-13 19.3-7.44 8.84-7.99 9.95-7.99 16.2 0 11.4-2.99 15-18.8 22.3-3.39 1.58-6.61 3.59-7.15 4.46-.588.951.965 3.59 3.86 6.55l4.84 4.96-3.47 3.25c-3.63 3.41-3.66 3.8-1.06 18.3l.779 4.33h-18.8l.787-5zm-61.9-182c-.6-12.3-.4-13.4 3.3-20.6 2.15-4.21 3.14-7.01 2.19-6.23-3.6 2.99-7.5 13.4-7.57 20.3-.0705 6.55 1.44 19.6 2.26 19.6.210 0 .118-5.85-.204-13zm142-5.6c.0387-9.02-.580-12.8-3.04-18.3-1.7-3.83-3.89-7.62-4.87-8.44-.981-.815-.166 1.72 1.81 5.62 3.3 6.51 3.6 8.41 3.6 22.7 0 10.7.384 14.7 1.22 12.7.673-1.61 1.25-8.02 1.27-14.3zm-94-49.8c10.3-3.72 12.8-4.09 27.3-4.07 13.1.0186 17.5.557 24 2.92 5.46 1.98 7.16 2.26 5.35.878-4.82-3.68-19.2-7.27-29.2-7.27-11.9 0-22.7 2.71-34.8 8.74-10.1 5.03-9.7 4.96 7.33-1.2zm46.2 239c.455-2.38 2.57-10 4.69-17 2.12-6.97 4.48-17.2 5.24-22.7 1.53-11.1 2.95-13.7 5.51-10.2 1.93 2.63 35.8 14.4 49.7 17.3 12.5 2.58 18.7 6.46 22.6 14.2 2.4 4.73 6.06 18.2 6.06 22.4 0 .232-21.3.422-47.3.422h-47.3z" fill="#dab997"/>
  <path d="m18.7 266c0-4.12 3.66-17.6 6.06-22.4 3.89-7.68 10.1-11.6 22.5-14.2 14.5-3.03 46.1-13.8 49-16.7 1.43-1.43 2.94-2.27 3.35-1.86s1.6 5.71 2.64 11.8c1.04 6.07 3.6 16.7 5.69 23.7 2.09 6.97 4.17 14.3 4.61 16.3l.808 3.67h-47.9c-26 0-47.4-.190-47.4-.422zm107-6.34c.676-3.72 1.73-8.07 2.34-9.67.879-2.3.375-3.51-2.41-5.81l-3.52-2.9 5.33-5.52c5.21-5.4 5.27-5.57 2.67-7.54-1.47-1.11-5.97-3.7-10-5.77-4.03-2.06-8.32-4.86-9.53-6.23-2.61-2.94-5.11-11.4-5.13-17.4-.006-3.33-1.78-6.26-8.08-13.3-4.44-4.99-10.2-13.4-12.9-18.7-3.13-6.3-5.58-9.67-7.05-9.67-2.77 0-6.03-3.55-7.33-8-.537-1.83-2.07-5.14-3.41-7.35-3.22-5.32-10.6-23.8-10.6-26.6 0-1.19 1.5-3.68 3.34-5.52l3.34-3.34-2.86-10.9c-5.9-19.6-4-31.8 7.2-48.7 9.6-14.5 21.2-22.5 43.3-29.7 10.1-3.32 13.3-3.74 29.3-3.82 20.6-.101 33.5 2.91 40.7 9.52 2.24 2.05 3.14 3.04 2 2.21-24-17.6-80-10.7-104 12.8-7.7 7.4-15.6 20-17.8 28.4-2.2 8.21-.0680 23 5.41 37.6l4 10.7.0648-10.6c.0356-5.81.366-10.3.734-9.89.368.368 1.66 6.02 2.88 12.6l2.21 11.9 1.65-8.05c.906-4.43 3.43-12 5.61-16.8l3.9-8.9-10-3c-11.7-3.4-12.4-5.2-.8-2.1 12.9 3.38 30.4 4.7 42.4 3.2 20.8-2.59 43.6-8.39 53.9-13.7 3.05-1.58 4.39-3.4 5.03-6.83 1.58-8.42 2.58-5.95 2.15 5.27-.399 10.3-.0957 11.8 4.9 23.5 2.93 6.9 5.75 14.9 6.27 17.7 1.34 7.31 2.66 4.04 4.79-11.8l1.79-13.3.667 12 .667 12 3.67-14.3c5.65-22 4.92-39.7-1.96-47.6-2.41-2.75-2.12-2.64 1.42.547 2.45 2.2 5.7 6.4 7.23 9.33 4.62 8.88 3.17 28.2-3.8 50.3-.481 1.53-.0253 2.33 1.33 2.33 3.1 0 6.5 6 5.44 9.6-1.76 6.02-7.36 19.2-12.3 29-3.44 6.81-5.94 10.2-7.95 10.7-1.99.489-4.45 3.74-7.64 10.1-2.59 5.13-8.26 13.5-12.6 18.6-7.53 8.81-7.91 9.6-8.42 17.6-.654 10.3-3.21 13.5-16 19.9-4.9 2.47-9.31 5.17-9.82 5.99-.505.818 1.26 3.72 3.92 6.45l4.84 4.96-3.47 3.25c-3.63 3.41-3.66 3.8-1.06 18.3l.779 4.33h-18.6zm-16-160c9.07 0 13.2-.444 12.3-1.33-2.23-2.22-22.6-1.43-27.9 1.08-2.57 1.22-3.17 1.78-1.33 1.23 1.83-.542 9.45-.986 16.9-.986zm64.4-.344c-5.43-2.47-24.7-3.09-28.4-.910-1.76 1.04.680 1.27 9.33.864 6.44-.302 13.8.0581 16.4 0.8 6.86 1.98 7.98 1.67 2.67-.754zm-17 163c.465-2.02 2.8-10.6 5.19-19 2.39-8.43 4.75-18.6 5.23-22.7 1.21-10 2.38-11.7 5.78-8.32 2.92 2.92 34.4 13.7 49.1 16.7 12.5 2.6 18.6 6.49 22.5 14.2 2.4 4.73 6.06 18.2 6.06 22.4 0 .232-21.3.422-47.4.422h-48zm31-179c.064-1.55.380-1.87.806-.806.385.962.338 2.11-.105 2.56-.443.443-.758-.344-0.7-1.75zm-73.4-8.57c16.9-.966 26.8-2.67 42-7.23 1.47-.440.677.127-1.76 1.26-9.95 4.64-19.7 6.28-39.6 6.67l-20 .398zm71-4.65c.0148-2.93.288-3.98.607-2.32s.307 4.06-.0269 5.33-.595-.0822-.580-3.02zm14.5-2c0-1.83.303-2.58.673-1.67.370.917.370 2.42 0 3.33-.370.917-.673.167-.673-1.67zm-67.2-4.94c1.66-.319 4.06-.307 5.33.0269s-.0823.595-3.02.580c-2.93-.0148-3.98-.288-2.32-.607zm9.32-1.27c.917-.370 2.42-.370 3.33 0 .917.370.167.673-1.67.673-1.83 0-2.58-.303-1.67-.673zm-45.9-3.8c1.83-1.05 4.23-1.9 5.33-1.9 1.1.0027-.0189.881-2.49 1.95-5.68 2.47-7.2 2.44-2.85-.0522zm10.2-3.31c1.55-.627 5.75-1.47 9.33-1.88 6.31-.716 6.27-.680-1.49 1.17-8.98 2.14-12.1 2.42-7.84.712zm18-3.6c.917-.370 2.42-.370 3.33 0 .917.370.167.673-1.67.673-1.83 0-2.58-.303-1.67-.673zm-50.6-3.6c0-.277 1.05-1.33 2.33-2.33 2.11-1.66 2.16-1.61.503.503-1.74 2.22-2.84 2.93-2.84 1.83zm93.3-7.5c-1.2-.777-1.37-1.3-.412-1.31.873-.0112 1.96.580 2.41 1.31 1.02 1.66.561 1.66-2 0zm-9.58-3.58c.962-.385 2.11-.338 2.56.105.443.443-.344.758-1.75 0.7-1.55-.0640-1.87-.380-.806-.806zm-51-3.3c.904-.911 1.98-1.32 2.39-.910.411.411-.329 1.16-1.64 1.66-1.9.724-2.05.570-.746-.746zm61-3.95c-3.67-2.1-6.19-3.84-5.61-3.86 1.72-.0508 11.4 5.15 12.3 6.62 1.05 1.7 1.29 1.8-6.65-2.76zm25.6 3.26c-.413-.668.701-2.61 2.48-4.32 3.79-3.65 4.23-2.21.722 2.36-1.35 1.75-2.78 2.63-3.2 1.97zm-79-2.53c2.2-1.01 5.2-1.82 6.67-1.8 1.47.0160-.0333.880-3.33 1.92-7.4 2.33-8.59 2.29-3.33-.117zm67.2-1.62c-1.66-2.11-1.61-2.16.503-.503 2.22 1.74 2.93 2.84 1.83 2.84-.277 0-1.33-1.05-2.33-2.33zm-55.5-1.26c1.3-.338 3.1-.316 4 .0494.903.365-.159.642-2.36.615-2.2-.0272-2.94-.326-1.64-.664zm22.1-5.32c.962-.385 2.11-.338 2.56.105.443.443-.344.758-1.75 0.7-1.55-.0640-1.87-.380-.806-.806z" fill="#caa178"/>
  <path d="m19.4 261c3.63-21.6 10.1-28.3 31.9-33.1 15.3-3.31 42.2-12.5 45.5-15.5 2.75-2.51 2.9-2.52 3.59-.171.394 1.35 1.11 5.45 1.58 9.11.476 3.67 3.21 15 6.08 25.1 2.87 10.2 5.21 18.7 5.21 19 0 .299-21.3.544-47.4.544h-47.3zm106-1.76c.676-3.72 1.73-8.07 2.34-9.67.879-2.3.375-3.51-2.41-5.81l-3.52-2.9 5.33-5.5 5.33-5.5-3.33-2.56c-1.83-1.41-6.7-4.37-10.8-6.58-4.12-2.21-8.08-4.78-8.81-5.71-1.67-2.13-4.37-13.1-4.37-17.7 0-2.45-2.47-6.24-8.07-12.4-4.65-5.11-10.2-13.2-13-19-3.06-6.25-5.61-9.88-6.67-9.53-1.87.625-6.89-3.33-6.89-5.42 0-.720-2.34-6.18-5.21-12.1-2.86-5.95-6.28-13.9-7.59-17.7-2.26-6.48-2.26-7.03-.0949-10.3 1.26-1.92 3.12-3.49 4.13-3.49 1.47 0 1.27-1.83-.990-9-1.6-7.6-2.4-13.7-2.4-22.8 0-11.5.3-13.5 4.1-21.4 5.7-11.9 12.9-20.4 23.4-27.4 21.4-14.5 52.4-19.9 78.4-13.9 11 2.53 7.37 2.9-5.18.517-19.3-3.66-42-.125-62.4 9.72-18.9 9.08-34.6 29.4-36.9 47.6-.915 7.32 2.01 22.5 7.62 39.5 3.3 10 8.98 23.2 9.67 22.5.258-.274 1.51-8 2.79-17.2 1.28-9.17 3.71-20.4 5.41-25l3.1-8.33-5.99-1.51c-9.56-2.41-6.16-2.55 6.82-.281 7.88 1.38 16 1.85 24 1.39 15.3-.890 40.8-6.55 55-12.2l11-4.37v3.04c0 7.81 14.4 61.4 16 59.6 1.08-1.2 9.42-27.8 12.5-39.9 2.73-10.7 2.74-28.4.0241-34.9-1.14-2.73-3.69-6.76-5.67-8.96l-3.6-4 4.5 4c10.2 9.09 12.2 24.4 6.18 48.1-1.82 7.19-3.17 13.2-3 13.3.174.136 1.67.950 3.32 1.81 2.23 1.16 3 2.74 3 6.17 0 4.9-5.6 20.4-9.37 26-1.24 1.83-2.98 5.54-3.85 8.23-1.76 5.43-4.48 8.32-7.04 7.46-1.02-.339-3.64 3.43-6.65 9.54-2.73 5.56-8.53 14.2-12.9 19.2-7.44 8.52-7.94 9.53-8.48 17-.736 10.2-3.46 13.8-14.9 20-12.6 6.83-12.8 7.07-7.73 12.3 5.02 5.18 5.2 6.35 1.46 9.73-2.88 2.6-2.94 5.21-.416 17.5l.886 4.33h-18.6zm-14-158c16 .028 17.9-2.26 2.51-3.12-9.73-.550-21.4 2-26.1 5.73-2.18 1.7-1.57 1.65 3.33-.275 4.43-1.74 9.73-2.35 20.3-2.33zm73 3.9c0-.408-2.85-2.03-6.33-3.6-4.95-2.24-9.01-2.88-18.6-2.93-7.8-.0401-12.8.516-13.9 1.53-1.24 1.23 1.06 1.43 10.3.886 10.9-.652 17.5.445 28.2 4.72.183.0732.333-.201.333-.608zm-28 162c0-.299 2.35-8.85 5.21-19 2.87-10.2 5.6-21.5 6.08-25.1.476-3.67 1.19-7.77 1.58-9.11.687-2.34.837-2.34 3.59.171 3.37 3.07 30.2 12.2 45.5 15.5 21.8 4.72 28.3 11.4 31.9 33.1l.839 5h-47.4c-26.1 0-47.4-.245-47.4-.544z" fill="#b6895d"/>
  <path d="m19.4 261c2.25-13.4 7.14-23.2 13.5-26.9 2.39-1.41 10.7-4.1 18.5-5.98 19.1-4.6 41.9-12.5 45.5-15.8l2.93-2.65.724 3.17c.398 1.74 1.33 7.14 2.07 12 .738 4.86 3.06 14.5 5.15 21.3 2.1 6.88 4.21 14.2 4.69 16.2l.883 3.67h-95.4zm106-1.33c.641-3.48 1.72-7.96 2.41-9.95 1.07-3.12.752-3.98-2.34-6.24l-3.58-2.63 5.33-5.52 5.33-5.52-3.33-2.72c-1.83-1.5-6.82-4.48-11.1-6.64-8.71-4.39-10.8-7.76-12.4-19.9-.765-5.96-1.9-8.27-6.46-13.2-7.42-8.04-13.7-17.4-16.9-25.1-2.04-4.92-3.32-6.37-5.53-6.3-2.28.0772-3.91-1.97-7.85-9.87-5.98-12-11.4-24.7-12.5-29.6-.610-2.59-.0853-4.3 1.95-6.33 3.05-3.05 5.45-3.62 5.45-1.3 0 3.43 12.5 27.9 13.4 26.3 1.05-1.93 3.28-13 4.55-22.6.801-6.08.973-6.27 8.42-9.33 6.43-2.65 9.75-3.11 21.5-2.98 11.4.120 13.5-.150 11.6-1.52-6.21-4.54-22.4-3.2-34.4 2.85l-6.24 3.14 2.65-9.55c1.46-5.25 2.91-9.98 3.23-10.5.323-.522 2.84-.427 5.59.213 16.7 3.88 54-2.85 75.3-13.6l7.67-3.86v4.19c0 3.48 4.18 24.4 6.05 30.2.354 1.11-1.14.824-4.42-.836-10.9-5.5-27.3-6.54-33.2-2.1-2.05 1.53-.476 1.75 10.9 1.52 16.8-.333 26.8 2.59 28.2 8.18 1.67 6.85 8.71 24.2 9.82 24.2 1.08 0 5.04-9.57 8.36-20.2 1.72-5.51 2.38-5.9 6.38-3.76 1.76.940 2.58 2.8 2.58 5.82 0 4.26-6.24 21.2-9.85 26.8-.958 1.47-2.48 4.93-3.38 7.69-1.6 4.88-5.66 8.49-7.96 7.08-.626-.387-2.37 2.27-3.88 5.9-3.27 7.86-9.5 17.2-16.8 25.1-4.71 5.12-5.43 6.78-6.22 14.5-1.04 10-3.51 14-11.2 18.1-2.93 1.56-7.95 4.28-11.1 6.04l-5.8 3.21 4.8 4.92c5.58 5.71 5.79 6.83 2.01 10.3-2.4 2.17-2.67 3.47-1.93 9.21.479 3.67 1.2 8.03 1.61 9.68.711 2.89.411 3-8.57 3h-9.31zm31 4c7.98-28.3 10.1-36.8 10.8-42.3.462-3.67 1.16-7.77 1.56-9.11.688-2.35.833-2.34 3.59.149 4.2 3.79 46.6 17.6 54 17.6 1.06 0 4.6 1.33 7.87 2.96 8.1 4.05 13.1 13.1 15.6 28l.839 5h-47.5c-44.6 0-47.4-.142-46.8-2.33z" fill="#94624a"/>
  <path d="m19.6 262c4.06-22.8 8.61-27.8 30.4-32.9 17.5-4.15 43.7-13.2 47-16.3 2.74-2.56 2.91-2.57 3.59-.239.392 1.35 1.13 6.05 1.63 10.4.506 4.4 2.67 13.7 4.81 20.7 2.14 6.97 4.39 14.9 5.02 17.7l1.13 5h-94.2zm106 1.33c.009-1.65.852-6.14 1.87-9.98 1.84-6.9 1.82-7.01-1.54-9.45l-3.4-2.47 5.01-5.55c2.76-3.05 5.82-5.55 6.81-5.55 2.49 0 11.2 7.87 11.2 10.1 0 1.01-1.43 2.77-3.18 3.91-2.79 1.83-3.05 2.69-2.14 7.03.572 2.72 1.43 7.2 1.91 9.95l.867 5h-8.73c-8.17 0-8.73-.193-8.71-3zm32.2-2.67c.691-3.12 2.71-10.3 4.5-16 1.78-5.67 3.86-14.4 4.61-19.3.755-4.96 1.7-10.5 2.1-12.2l.724-3.17 2.93 2.74c3.34 3.12 29.4 12.2 47.1 16.4 16.1 3.8 20.8 6.67 25 15.1 1.87 3.76 3.78 9.23 4.25 12.2.470 2.93 1.14 6.38 1.49 7.67.601 2.19-2.26 2.33-46.6 2.33h-47.3zm-37.6-45.3c-1.85-.917-5.56-3.17-8.25-5-4.19-2.85-5.02-4.28-5.81-9.99-.737-5.36-2.1-7.97-6.95-13.3-7.29-8.06-14.5-19.1-16.9-25.8-.963-2.7-2.44-4.74-3.28-4.55-3.07.704-6.58-2.45-8.19-7.34-.903-2.76-2.42-6.21-3.37-7.68-3.49-5.41-10.1-22.4-10.2-26.3-.0712-2.5.826-4.74 2.35-5.85 2.92-2.14 4.62-2.31 4.62-.468 0 .733-.871 1.33-1.94 1.33-1.41 0-1.14.858 1 3.18 1.61 1.75 5.29 8.02 8.17 13.9 2.88 5.92 5.66 10.5 6.18 10.2.521-.322 2.57 4.66 4.56 11.1 1.99 6.41 5.37 15 7.51 19 6.8 12.8 24.7 31.7 32.9 34.8 4.03 1.53 20.5 1.53 24.6 0 4.55-1.73 14.1-10 21.5-18.6 10.9-12.8 14.9-21 21.6-44.7 1.46-5.18 2.58-7.25 3.3-6.09.741 1.2 2.6-1.35 5.86-8.06 2.63-5.4 5.77-10.9 6.98-12.2 2.05-2.26 2.04-2.43-.0871-2.43-1.26 0-1.91-.6-1.46-1.33 2.14-3.46 7.33 1.17 7.33 6.53 0 4.17-4.49 15.8-10.6 27.3-2.26 4.29-4.11 8.62-4.11 9.62 0 2.02-4.4 4.81-6.71 4.26-.817-.193-2.44 2.05-3.62 4.98-3.09 7.74-10.3 18.7-17 25.8-5.14 5.5-5.9 7.1-6.27 13.2-.230 3.82-.850 6.95-1.38 6.95-.529.00013-3.73 1.95-7.1 4.33-5.79 4.08-6.89 4.35-19 4.67-8.29.215-14.1-.262-16.3-1.33zm-42-64c-1.48-4.8-4.72-10.7-8.07-14.7-2.27-2.73-2.9-4.73-2.34-7.51.780-3.9-2.77-13.4-5-13.4-3.18 0 .199 13.4 6.93 27.4 3.22 6.72 6.2 11.3 7.4 11.3 1.46 0 1.75-.810 1.08-3zm122-10c5.31-11.1 6.33-14.5 6-19.7l-.402-6.23-2.33 4.27c-1.28 2.35-2.33 6.65-2.33 9.56 0 3.58-1.01 6.52-3.1 9.07-2.59 3.14-7.56 13.5-7.56 15.8 0 .352.75.638 1.67.635.917-.003 4.55-6.05 8.07-13.4zm-79.1 36.1c-5.72-3.62 12.3-6.84 22.6-4.05 5.56 1.5 5.79 1.74 3.41 3.48-2.95 2.16-22.8 2.59-26 .570zm8.66-23.4-4-3.29 2.83-4.94c3.95-6.89 5.76-7.06 4.88-.456-.721 5.37-0.7 5.41 3.68 5.41h4.41l-3.13 3.33c-3.79 4.04-3.69 4.04-8.67-.0545zm-36.6-31c0-.515 1.85-2.84 4.1-5.17l4.1-4.23-4.24-4.83-4.24-4.83h4.88c2.69 0 4.55.532 4.15 1.18-.402.650.0831 1.86 1.08 2.68 1.36 1.13 2.18 1.05 3.31-.305.824-.993 1.1-2.2.621-2.68-.483-.483 1.09-.877 3.5-.877h4.38l-3.58 4.7-3.58 4.7 4.2 5.3 4.2 5.3h-4.78c-2.63 0-4.68-.45-4.57-1 .116-.55-.254-2.07-.822-3.37-.805-1.84-1.44-2.03-2.88-.837-1.01.842-1.84 2.36-1.84 3.37 0 1.15-1.49 1.84-4 1.84-2.2 0-4-.421-4-.937zm58.7.352c0-.321 1.8-2.56 4-4.96 2.2-2.41 4-4.7 3.99-5.08-.004-.387-1.83-2.65-4.07-5.04l-4.06-4.33h4.58c3.61 0 4.76.635 5.42 3l.846 3 2.52-3c1.44-1.72 4.03-3 6.04-3h3.52l-4.06 4.33c-2.23 2.38-4.06 4.63-4.06 5 0 .367 1.8 2.58 3.99 4.93 4.93 5.26 4.95 5.74.208 5.74-2.83 0-4.21-.920-5.45-3.65-1.59-3.49-1.75-3.54-3.5-1.14-1.01 1.38-1.52 3.03-1.14 3.65.386.625-1.43 1.14-4.04 1.14s-4.75-.263-4.75-.584z" fill="#855038"/>
  <path d="m20.3 259c1.73-11 7-20.9 12.9-24.2 2.68-1.5 10.2-3.97 16.6-5.5 18.1-4.29 44.8-13.5 47.6-16.4 2.32-2.5 2.46-2.5 3.11-.158.376 1.35 1.09 6.05 1.59 10.4 0.5 4.4 2.31 12.5 4.02 18s4 13.4 5.07 17.7l1.96 7.67h-93.9zm105 4.39c0-1.72 0.9-6.07 2-9.67 1.99-6.51 1.98-6.56-1.48-9.38l-3.48-2.83 4.97-5.5c2.73-3.02 5.78-5.5 6.77-5.5 2.49 0 11.2 7.87 11.2 10.1 0 1.01-1.43 2.77-3.18 3.91-2.79 1.83-3.05 2.69-2.14 7.03.572 2.72 1.43 7.2 1.91 9.95l.867 5h-8.73c-8.26 0-8.73-.166-8.73-3.12zm34-8.55c1.72-6.42 3.78-13.4 4.57-15.4.792-2.07 2.06-8.07 2.82-13.3.759-5.27 1.69-11 2.07-12.8.686-3.17.695-3.17 3.17-.509 2.75 2.95 29.3 12.1 47.6 16.5 16.4 3.88 20.6 6.54 25 15.7 1.96 4.14 4.05 10.7 4.64 14.5l1.08 7h-94zm-50.3-47.5c-1.25-.953-2.7-4.37-3.22-7.59-.699-4.37-2.73-7.97-8.03-14.2-8.24-9.71-12.5-16.3-15.4-23.7-1.15-2.93-2.91-5.41-3.91-5.51-.996-.0988-2.59-.249-3.55-.333-.954-.0845-2.67-2.4-3.81-5.15s-4.45-10-7.36-16.1c-2.91-6.12-4.95-12-4.54-13.1.419-1.09.167-1.59-.571-1.13-.772.477-1.32-1.11-1.32-3.84 0-4.63 2.78-8.88 5.76-8.8.864.0223.509.659-.790 1.42-1.3.756-1.94 2.06-1.43 2.89.515.833.783 4.39.597 7.9-.272 5.12.705 8.57 4.92 17.4 2.89 6.06 5.62 12.1 6.07 13.4.868 2.53 4.46 4.49 5.79 3.16.441-.441-.185-3.39-1.39-6.54-1.21-3.16-2.19-6.87-2.19-8.25s-.401-2.11-.892-1.62c-2.08 2.08-5.77-3.67-5.77-8.99l.0068-5.46 3.28 5.33c1.81 2.93 5.74 12.6 8.74 21.6 6.39 19 13.2 29.7 27.7 43.4 11 10.4 16.2 12.3 30.4 11.4 11.4-.727 15.3-2.87 27.2-15 12.6-12.9 18-21.8 23.6-39.7 3.46-10.9 5.49-15.5 6.7-15 .955.347 1.38.0519.941-.656-.437-.708.08-2.95 1.15-4.98l1.94-3.7.983 3.9c0.8 3.17.386 4.41-2.22 6.68-2.91 2.53-7.89 13.7-7.88 17.7.0165 4.06 4.36-.741 8.51-9.42 7.64-16 9-20 8.66-25.6-.180-2.96.0824-6.05.583-6.86s-.0723-1.85-1.27-2.31c-1.2-.461-1.8-1.22-1.33-1.69 1.5-1.5 6.2 3.88 6.2 7.08 0 3.43-6 18.9-11.3 29.1-1.87 3.61-3.4 7.34-3.4 8.29 0 2.05-4.88 4.93-6.57 3.88-.649-.401-3.01 3.18-5.25 7.96-4.01 8.57-13.2 21.6-18.7 26.5-1.94 1.74-2.83 4.13-2.83 7.61 0 3.5-.904 5.92-2.92 7.79-2.71 2.53-4.58 2.72-26.3 2.68-17.1-.0309-24-.510-25.7-1.78zm-36-72c-.426-1.06-.742-.748-.806.806-.0579 1.41.257 2.19 0.7 1.75.443-.443.490-1.59.105-2.56zm49.3 42.8c-4.12-2.51-.0276-3.83 11.8-3.83 10.4 0 15.7 1.39 13.5 3.55-1.74 1.74-22.6 1.97-25.3.279zm8.06-23.3-3.76-3.31 2.87-4.65c3.58-5.79 4.47-5.86 3.64-.314-.363 2.4.179 5.97 1.22 8 2.31 4.52.976 4.61-3.96.272zm-36.6-31c0-.321 1.8-2.56 4-4.96 2.2-2.41 4-4.7 3.99-5.08-.003-.387-1.83-2.65-4.07-5.04l-4.06-4.33h3.75c2.35 0 4.39 1.03 5.48 2.77 1.38 2.21 2.11 2.45 3.64 1.18 1.05-.872 1.58-2.12 1.18-2.77-.402-.650 1.14-1.18 3.42-1.18h4.15l-3.56 4.67-3.56 4.67 3.49 4.58c4.27 5.6 4.3 6.09.372 6.09-2.07 0-3.65-1.17-4.7-3.47-1.3-2.86-1.93-3.18-3.55-1.84-1.08.898-1.97 2.46-1.97 3.47 0 1.15-1.49 1.84-4 1.84-2.2 0-4-.263-4-.584zm62.8-4.71 4.25-5.29-3.59-4.71-3.59-4.71h3.91c2.92 0 4.13.763 4.76 3l.846 3 2.52-3c1.39-1.65 3.85-3 5.47-3 2.92 0 2.91.0445-.637 4.7l-3.58 4.7 4.2 5.3 4.2 5.3h-3.8c-2.58 0-4.22-.915-5.11-2.85-.724-1.57-1.92-2.85-2.65-2.85-.733 0-1.93 1.28-2.65 2.85-.888 1.92-2.54 2.85-5.06 2.85h-3.75z" fill="#77452f"/>
  <path d="m20.2 259c.594-3.85 2.66-10.3 4.6-14.4 4.23-8.92 9.04-11.9 25.9-16 17.4-4.18 44-13.3 46.7-16 2.06-2.06 2.51-2.11 3.17-.392.423 1.1.770 3.96.770 6.35 0 4.17 1.43 10.2 8.56 35.8l3.25 11.7h-90.1l2.64-9.53c1.45-5.24 3.25-10.7 4-12.1.748-1.4 1.09-3.26.767-4.13-.721-1.94-6.19 10.2-7.1 15.7-1.33 8.13-1.89 10-2.97 10-.610 0-.623-3.15-.0287-7zm13.9-19c-.453-.733-.639-1.34-.412-1.34.227-.003 4.61-1.53 9.75-3.4 8.63-3.13 8.88-3.33 3.33-2.59-3.3.439-8.25 1.76-11 2.93-3.95 1.68-4.68 2.51-3.5 3.93 1.74 2.09 3.04 2.42 1.83.466zm30.9-12c-.443-.443-1.59-.490-2.56-.105-1.06.426-.748.742.806.806 1.41.0579 2.19-.257 1.75-0.7zm20.4-7.19c1.1-.711 1.4-1.29.667-1.29s-2.23.582-3.33 1.29c-1.1.711-1.4 1.29-.667 1.29s2.23-.582 3.33-1.29zm40 42.2c0-1.72 0.9-6.07 2-9.67 1.99-6.51 1.98-6.56-1.48-9.38l-3.48-2.83 4.97-5.5c2.73-3.02 5.78-5.5 6.77-5.5 2.44 0 11.2 7.85 11.2 10 0 .963-1.48 2.85-3.29 4.2-2.96 2.2-3.18 2.98-2.15 7.78.627 2.93 1.49 7.28 1.92 9.67l.784 4.33h-8.63c-8.16 0-8.63-.170-8.63-3.12zm32.9-4.55c1.08-4.22 3.36-12.2 5.07-17.7s3.52-13.6 4.02-18c1.41-12.4 1.67-13 4.59-10.1 2.71 2.71 29.3 11.8 46.8 16 16.9 4.07 21.7 7.03 25.9 16 3.61 7.62 6.56 21.4 4.57 21.4-1.08 0-1.64-1.87-2.97-10-.913-5.56-6.38-17.7-7.1-15.7-.326.876.0196 2.74.767 4.13.748 1.4 2.55 6.83 4 12.1l2.64 9.53h-90.2zm76-23.2c-2.32-1.19-7.22-2.55-10.9-3.02l-6.67-.864 8 2.8c9.88 3.45 10.6 4.17 8.67 8.11-1.23 2.45-.836 2.26 1.77-.857l3.34-4zm-26.6-7.31c-.443-.443-1.59-.490-2.56-.105-1.06.426-.748.742.806.806 1.41.0579 2.19-.257 1.75-0.7zm-21-7.19c-1.1-.711-2.6-1.29-3.33-1.29-.733 0-.433.582.667 1.29 1.1.711 2.6 1.29 3.33 1.29.733 0 .433-.582-.667-1.29zm-61-14.6c-3.13-.523-8.46-2.91-11.9-5.3-4.8-3.39-6.41-3.95-7.29-2.57-.802 1.27-1.13.912-1.14-1.24-.0115-1.69-3.38-7.03-7.69-12.2-7.1-8.5-13.2-17.5-11.9-17.5.304 0 2.83 3.45 5.61 7.67 6.36 9.64 21.2 24.3 27.5 27.4 6.63 3.14 24.9 3.17 31.5.0405 2.62-1.24 8.71-5.87 13.5-10.3 4.82-4.41 6.82-5.91 4.44-3.34-3.26 3.52-4.37 5.98-4.49 9.95-.141 4.72-.245 4.88-1 1.48l-.842-3.79-3.59 2.83c-7.62 6.01-21 8.82-32.8 6.86zm49.6-27.2c2.05-2.69 4-4.89 4.33-4.89.926 0-4.85 7.8-6.55 8.85-.832.514.167-1.27 2.22-3.96zm-47.2-1.78c-6.37-1.1-7.59-2.07-4-3.16 6.64-2.03 27.1-.616 23.3 1.61-1.93 1.14-15.4 2.23-19.3 1.56zm53.3-7.11c.785-1.47 1.73-2.67 2.09-2.67.367 0 .0244 1.2-.760 2.67-.785 1.47-1.73 2.67-2.09 2.67-.367 0-.0244-1.2.760-2.67zm-99.9-11c-1.15-2.55-1.63-4.63-1.06-4.63 1.06 0 4.32 8.09 3.57 8.84-.227.227-1.36-1.67-2.51-4.22zm104 4.04c0-.733.582-2.23 1.29-3.33.711-1.1 1.29-1.4 1.29-.667s-.582 2.23-1.29 3.33c-.711 1.1-1.29 1.4-1.29.667zm-112-9c-1.47-1.47-2.65-3.42-2.63-4.33.0223-.917.729-.467 1.57 1s2.47 3.4 3.63 4.29c1.15.893 1.65 1.64 1.1 1.67-.55.0233-2.2-1.16-3.67-2.62zm115 1.33c0-.733.635-1.33 1.41-1.33.777 0 1.04.6.588 1.33-.453.733-1.09 1.33-1.41 1.33-.323 0-.588-.6-.588-1.33zm-58.3-3-2.77-3 3.29-4.67 3.29-4.67-.872 4.86c-.503 2.8-.235 6.05.631 7.67 1.98 3.7-.0721 3.59-3.57-.193zm63.6 2.5c0-.277.914-1.26 2.03-2.19 1.7-1.41 1.89-1.33 1.19.503-.717 1.87-3.22 3.18-3.22 1.69zm-118-10c-1.58-5.26-2.64-9.8-2.36-10.1.283-.283 1.82 3.78 3.41 9.03s2.66 9.79 2.36 10.1c-.296.296-1.83-3.77-3.41-9.03zm115 4.21c.0737-2.99 3.63-11.7 3.74-9.15.0557 1.2-.775 4.2-1.85 6.67-1.07 2.47-1.93 3.59-1.9 2.49zm7.85-2.19c0-.715.933-2.47 2.07-3.89 1.96-2.44 1.98-2.4.486.745-1.94 4.08-2.56 4.84-2.56 3.14zm-134-8c-.785-1.47-1.13-2.67-.760-2.67.367 0 1.31 1.2 2.09 2.67.785 1.47 1.13 2.67.760 2.67-.367 0-1.31-1.2-2.09-2.67zm138-1c.501-1.31 1.25-2.05 1.66-1.64.411.411.00085 1.49-.910 2.39-1.32 1.31-1.47 1.15-.746-.746zm-133-1c-1.84-1.84-2.24-5.97-.667-6.92 1.84-1.12 3.81 2.42 3.07 5.52-.586 2.45-1.06 2.73-2.4 1.4zm128-1.8c-.012-2.2.560-4.9 1.27-6 .742-1.15 1.3-1.34 1.31-.442.0107.857.334 2.37.717 3.37.383.998-.198 3-1.29 4.44-1.9 2.52-1.99 2.46-2.01-1.37zm-100-15.3 4.2-5.3-3.58-4.7c-3.55-4.65-3.55-4.7-.637-4.7 1.62 0 4.01 1.32 5.32 2.93l2.37 2.93 1.83-2.93c1.07-1.72 3.18-2.93 5.09-2.93h3.26l-3.58 3.74c-4.45 4.64-4.5 6.93-.249 10.9 4.13 3.88 4.22 5.33.316 5.33-1.81 0-3.54-1.16-4.33-2.91-1.92-4.24-4.39-4.45-6.18-.524-1.06 2.32-2.62 3.44-4.8 3.44h-3.23zm56 4.13c0-.644.933-1.94 2.07-2.89 4.66-3.86 4.96-6.54 1.29-11.4l-3.49-4.58h3.08c1.69 0 3.83 1.2 4.75 2.67.916 1.47 2.22 2.67 2.9 2.67.678 0 1.61-1.2 2.08-2.67.547-1.72 2.02-2.67 4.16-2.67h3.31l-3.56 4.67-3.56 4.67 3.49 4.58c4.26 5.58 4.3 6.09.474 6.09-1.78 0-3.56-1.17-4.33-2.85-.724-1.57-1.92-2.85-2.65-2.85-.733 0-1.93 1.28-2.65 2.85-1.28 2.76-7.35 4.15-7.35 1.68zm55.2-2.5c-.442-2.02-1.03-4.4-1.3-5.29-.273-.893.0865-1.98 0.8-2.43.713-.441.872-1.51.352-2.38-.538-.897.0264-.787 1.31.255 1.24 1.01 2.21 2.81 2.16 4-.0732 1.7-.368 1.59-1.35-.497-.927-1.97-1.12-1.01-.737 3.67.577 7.03-.007 8.29-1.24 2.67zm-150-3c-1.08-3.52-.989-4.44.443-4.44 1.16 0 1.81 1.59 1.81 4.44 0 2.44-.199 4.44-.443 4.44s-1.06-2-1.81-4.44zm.917-7.56c1.1-.711 2.6-1.29 3.33-1.29.733 0 .433.582-.667 1.29-1.1.711-2.6 1.29-3.33 1.29-.733 0-.433-.582.667-1.29z" fill="#622f1d"/>
  <path d="m20.4 262c0-2.57.274-3.62.610-2.33.335 1.28.335 3.38 0 4.67-.335 1.28-.610.233-.610-2.33zm59.1 2.52c-3.25-8.84-5.96-17.7-5.53-18.2.288-.288 2.16 3.74 4.15 8.96s3.27 9.84 2.84 10.3c-.430.430-1.09-.0548-1.46-1.08zm30.1-3.86c-.913-3.3-3.15-10.8-4.96-16.7-1.82-5.87-3.54-15.2-3.84-20.7l-.542-10 1.16 8c.636 4.4 3.33 15.5 5.98 24.6 2.66 9.13 4.61 17.5 4.35 18.7-.265 1.13-1.23-.642-2.14-3.94zm16.5-.840c.509-3.4 1.61-7.67 2.44-9.5 1.34-2.95 1.09-3.66-2.27-6.34l-3.78-3.01 5.49-5.49c3.02-3.02 6.07-5.49 6.78-5.49 2.03 0 10.7 8.09 10.7 9.98 0 .940-1.55 2.73-3.45 3.97-2.81 1.84-3.28 2.92-2.55 5.82.498 1.96 1.36 6.41 1.92 9.89l1.01 6.33h-17.2zm31.4 4.52c0-1.16 2.15-9.51 4.78-18.6 2.63-9.05 5.3-20.1 5.93-24.5l1.15-8-.439 9.33c-.266 5.65-2.36 15.9-5.31 25.9-4.83 16.5-6.12 19.8-6.12 15.7zm30.7.951c0-1.99 6.91-19.5 7.47-18.9.693.693-4.86 17.3-6.31 18.9-.693.758-1.16.769-1.16.0283zm60.3-3.29c0-2.57.274-3.62.610-2.33.335 1.28.335 3.38 0 4.67-.335 1.28-.610.233-.610-2.33zm-227-8c-.0424-3.7 5.67-15.6 8.65-18 1.82-1.47 1.66-.891-.621 2.22-1.7 2.32-4.19 7.42-5.54 11.3-1.35 3.91-2.47 5.91-2.49 4.45zm224-3.46c-.867-3.25-3.19-8.3-5.17-11.2-2.68-3.96-2.9-4.7-.881-2.89 3.23 2.9 8.62 14.9 8.04 17.9-.227 1.17-1.12-.532-1.99-3.78zm-162-11c.489-.791-.919-2.72-3.13-4.3-4.17-2.97-5.12-5.84-2.48-7.47.992-.613 1.18-.363.517.703-.632 1.02.606 3.33 3.24 6.06 3.07 3.17 3.8 4.69 2.61 5.42-1.02.633-1.32.476-.767-.414zm102-.104c-.384-.621 1.1-2.85 3.29-4.95s3.68-4.62 3.3-5.61c-.377-.983-.0925-1.42.632-.972 2.43 1.5 1.35 4.45-2.7 7.34-2.21 1.57-3.67 3.41-3.25 4.09.419.677.461 1.23.0944 1.23s-.981-.508-1.36-1.13zm-148-8c.775-.775 2.2-1.15 3.16-.826.999.333.394.937-1.41 1.41-2.22.580-2.74.406-1.75-.583zm193 .225c-2.17-.934-2.25-1.16-.412-1.24 1.24-.0516 2.63.506 3.08 1.24.948 1.53.901 1.53-2.67 0zm-181-3c4.03-1.01 7.93-1.79 8.67-1.75 2.68.167-9.43 3.6-12.7 3.59-1.83-.007-.0333-.834 4-1.84zm166 .0943c-7.07-2.33-4.5-2.38 4.67-.0943 4.03 1.01 5.83 1.84 4 1.84-1.83.007-5.73-.780-8.67-1.75zm-153-4c1.47-.630 3.57-1.15 4.67-1.15 1.26 0 1.01.424-.667 1.15-1.47.630-3.57 1.15-4.67 1.15-1.26 0-1.01-.424.667-1.15zm141 0c-1.68-.722-1.93-1.15-.667-1.15 1.1 0 3.2.516 4.67 1.15 1.68.722 1.93 1.15.667 1.15-1.1 0-3.2-.516-4.67-1.15zm-124-5c1.1-.711 2.6-1.29 3.33-1.29.733 0 .433.582-.667 1.29-1.1.711-2.6 1.29-3.33 1.29-.733 0-.433-.582.667-1.29zm109 0c-1.1-.711-1.4-1.29-.667-1.29s2.23.582 3.33 1.29c1.1.711 1.4 1.29.667 1.29s-2.23-.582-3.33-1.29zm-95.9-3c1.72-1.83 3.43-3.33 3.8-3.33.367 0-.743 1.5-2.46 3.33s-3.43 3.33-3.8 3.33c-.367 0 .743-1.5 2.46-3.33zm85.2 1c-1.66-2.11-1.61-2.16.503-.503 2.22 1.74 2.93 2.84 1.83 2.84-.277 0-1.33-1.05-2.33-2.33zm-80-100c4.69-5.21 4.8-6.26 1.14-11.1l-3.52-4.61h3.4c2 0 3.4.757 3.4 1.84 0 1.01.885 2.57 1.97 3.47 1.62 1.35 2.24 1.02 3.55-1.84.869-1.91 2.68-3.47 4.03-3.47 3.32 0 3.09 1.19-1.06 5.52l-3.51 3.67 3.71 4.41c3.13 3.71 3.36 4.47 1.48 4.84-1.23.241-3.42-.959-4.86-2.67l-2.63-3.1-2.55 3c-1.4 1.65-3.61 3-4.9 3-2.14 0-2.11-.266.349-3zm60.2-1.47 4.34-4.47-3.41-4.05c-4.05-4.82-4.2-5.67-.967-5.67 1.34 0 3.24 1.49 4.22 3.32 1.37 2.56 2.18 2.98 3.56 1.84.981-.814 1.78-2.31 1.78-3.32 0-1.1 1.43-1.84 3.58-1.84h3.58l-3.58 3.74c-4.44 4.63-4.45 5.69-.131 10.8l3.45 4.1h-3.36c-2.19 0-3.66-.929-4.21-2.67-.466-1.47-1.56-2.67-2.44-2.67-.874 0-2.34 1.2-3.25 2.67-.916 1.47-2.98 2.67-4.58 2.67-2.72 0-2.62-.305 1.42-4.47z" fill="#1c0c07"/>
 </g>
</svg>
