<!DOCTYPE svg PUBLIC "-//W3C//DTD SVG 20010904//EN" "http://www.w3.org/TR/2001/REC-SVG-20010904/DTD/svg10.dtd">
<svg version="1.0" xmlns="http://www.w3.org/2000/svg" width="200px" height="200px" viewBox="0 0 2000 2000" preserveAspectRatio="xMidYMid meet">
<g id="layer101" fill="#f2f0f3" stroke="none">
 <path d="M130 1983 c1 -37 22 -110 46 -158 30 -61 72 -86 188 -110 105 -23 316 -96 347 -120 27 -22 66 -101 61 -125 -2 -8 -18 -31 -36 -50 -57 -60 -104 -129 -127 -185 -18 -43 -28 -55 -47 -57 -14 -2 -28 -10 -32 -18 -99 -198 -122 -259 -118 -301 2 -24 10 -37 26 -44 14 -6 20 -15 16 -25 -15 -41 -44 -180 -44 -216 0 -100 64 -231 159 -321 86 -82 263 -152 427 -168 88 -9 239 16 311 51 28 13 67 43 87 65 l37 40 29 -33 c33 -36 39 -25 14 24 -15 28 -15 30 0 24 48 -19 50 -18 23 11 l-28 31 49 49 c38 38 52 61 62 103 16 68 8 171 -23 278 -23 77 -23 82 -6 82 21 0 39 28 39 60 0 24 -34 110 -91 228 -32 66 -44 82 -62 82 -18 0 -28 13 -50 64 -16 35 -54 94 -85 131 -85 100 -87 106 -61 157 12 23 33 51 47 62 32 25 243 98 348 121 116 24 158 49 188 110 24 48 45 121 46 158 0 16 -48 17 -870 17 -822 0 -870 -1 -870 -17z"/>
 </g>
<g id="layer102" fill="#e1dfe3" stroke="none">
 <path d="M130 1983 c1 -37 22 -110 46 -158 30 -61 72 -86 188 -110 105 -23 316 -96 347 -120 27 -22 66 -101 61 -125 -2 -8 -18 -31 -36 -50 -57 -60 -104 -129 -127 -185 -18 -43 -28 -55 -47 -57 -14 -2 -28 -10 -32 -18 -99 -198 -122 -259 -118 -301 2 -24 10 -37 26 -44 14 -6 20 -15 16 -25 -15 -41 -44 -180 -44 -216 0 -100 64 -231 159 -321 86 -82 263 -152 427 -168 88 -9 239 16 311 51 28 13 67 43 87 65 l37 40 29 -33 c33 -36 39 -25 14 24 -15 28 -15 30 0 24 48 -19 50 -18 23 11 l-28 31 49 49 c38 38 52 61 62 103 16 68 8 171 -23 278 -23 77 -23 82 -6 82 21 0 39 28 39 60 0 24 -34 110 -91 228 -32 66 -44 82 -62 82 -18 0 -28 13 -50 64 -16 35 -54 94 -85 131 -85 100 -87 106 -61 157 12 23 33 51 47 62 32 25 243 98 348 121 116 24 158 49 188 110 24 48 45 121 46 158 0 16 -24 17 -356 17 l-356 0 5 -27 c5 -28 -16 -81 -55 -135 l-18 -27 -27 25 c-27 25 -27 31 -7 132 l7 32 -70 0 -70 0 8 -47 c5 -27 13 -60 19 -76 8 -24 6 -29 -20 -42 -26 -14 -29 -13 -43 8 -36 56 -55 104 -50 130 l5 27 -356 0 c-332 0 -356 -1 -356 -17z m804 -220 c39 -36 41 -33 -57 -88 -62 -34 -91 -62 -85 -82 1 -4 -2 -26 -6 -48 l-8 -40 -18 41 c-16 37 -17 48 -5 105 11 52 45 171 71 248 3 8 19 -10 40 -45 19 -32 50 -73 68 -91z m271 32 c46 -148 56 -202 42 -232 -9 -21 -11 -21 -22 -6 -7 10 -11 23 -8 30 8 21 -58 76 -130 108 -37 17 -67 33 -67 38 0 4 11 12 24 16 24 10 85 85 107 134 7 15 13 27 15 27 2 0 19 -52 39 -115z"/>
 </g>
<g id="layer103" fill="#ddd8e2" stroke="none">
 <path d="M130 1983 c1 -37 22 -110 46 -158 30 -61 72 -86 188 -110 44 -9 134 -36 201 -59 116 -40 175 -72 175 -94 0 -6 4 -14 10 -17 6 -4 7 2 1 17 -10 29 4 126 36 243 34 121 37 126 58 86 9 -18 19 -31 21 -28 3 2 -5 23 -17 46 -14 27 -19 50 -15 66 l6 25 -355 0 c-332 0 -355 -1 -355 -17z"/>
 <path d="M931 1953 c5 -27 13 -60 18 -75 8 -23 6 -29 -15 -43 -13 -8 -24 -24 -24 -34 0 -20 30 -51 48 -51 7 0 12 -3 12 -8 0 -11 -60 -62 -74 -62 -17 0 -80 -40 -91 -59 -5 -9 -10 -23 -11 -31 -7 -80 -27 -137 -58 -170 -56 -59 -103 -128 -127 -185 -18 -43 -28 -55 -47 -57 -14 -2 -28 -10 -32 -18 -99 -198 -122 -259 -118 -301 2 -24 10 -37 26 -44 14 -6 20 -15 16 -25 -15 -41 -44 -180 -44 -216 0 -100 64 -231 159 -321 86 -82 263 -152 427 -168 88 -9 239 16 311 51 28 13 67 43 87 65 l37 40 29 -33 c33 -36 39 -25 14 24 -12 24 -13 30 -3 25 53 -21 54 -21 26 10 l-28 31 49 49 c38 38 52 61 62 103 16 68 8 171 -23 278 -23 77 -23 82 -6 82 21 0 39 28 39 60 0 24 -34 110 -91 228 -32 65 -44 82 -62 82 -17 0 -30 16 -59 78 -21 44 -61 104 -93 139 -50 56 -57 69 -61 115 -7 77 -28 111 -84 142 -27 15 -52 31 -55 36 -4 6 -14 10 -24 10 -10 0 -25 7 -32 16 -12 15 -8 22 34 59 26 24 47 46 47 50 0 4 -6 2 -13 -4 -11 -8 -19 -5 -37 14 -23 25 -24 34 -4 133 l7 32 -70 0 -70 0 8 -47z"/>
 <path d="M1166 1971 c5 -21 0 -41 -16 -66 -12 -20 -20 -38 -17 -41 3 -3 13 8 22 25 8 17 17 31 20 31 2 0 16 -39 30 -87 35 -114 56 -242 43 -266 -5 -10 -7 -21 -4 -25 3 -3 6 0 6 6 0 41 197 127 386 167 116 24 158 49 188 110 24 48 45 121 46 158 0 16 -23 17 -355 17 l-354 0 5 -29z"/>
 </g>
<g id="layer104" fill="#e5caae" stroke="none">
 <path d="M130 1983 c1 -37 22 -110 46 -158 30 -61 72 -86 188 -110 106 -23 321 -98 347 -121 26 -24 36 -10 44 66 4 30 24 117 46 193 21 77 39 141 39 143 0 2 -160 4 -355 4 -332 0 -355 -1 -355 -17z"/>
 <path d="M932 1949 c5 -28 13 -60 17 -72 7 -17 3 -27 -18 -44 l-26 -22 39 -40 39 -40 -24 -20 c-13 -11 -47 -31 -74 -45 -70 -34 -83 -52 -101 -137 -12 -58 -22 -82 -48 -109 -56 -60 -103 -129 -127 -185 -18 -43 -28 -55 -47 -57 -14 -2 -28 -10 -32 -18 -99 -198 -122 -259 -118 -301 2 -24 10 -37 26 -44 14 -6 20 -15 16 -25 -15 -41 -44 -180 -44 -216 0 -100 64 -231 159 -321 86 -82 263 -152 427 -168 88 -9 239 16 311 51 28 13 67 43 87 65 l37 40 29 -33 c33 -36 39 -25 14 24 -12 24 -13 30 -3 25 53 -21 54 -21 26 10 l-28 31 49 49 c38 38 52 61 62 103 16 68 8 171 -23 278 -23 77 -23 82 -6 82 21 0 39 28 39 60 0 24 -34 110 -91 228 -32 65 -44 82 -62 82 -17 0 -30 16 -59 78 -21 44 -61 104 -93 140 -53 57 -58 67 -65 125 -4 35 -14 73 -21 85 -8 12 -49 40 -91 62 -42 23 -80 45 -84 51 -3 6 8 25 25 43 37 38 38 47 10 72 -22 19 -22 39 -3 132 l7 32 -70 0 -70 0 9 -51z"/>
 <path d="M1160 1996 c0 -2 18 -66 39 -143 22 -76 43 -163 46 -194 9 -76 18 -89 44 -65 26 23 241 98 347 121 116 24 158 49 188 110 24 48 45 121 46 158 0 16 -23 17 -355 17 -195 0 -355 -2 -355 -4z"/>
 </g>
<g id="layer105" fill="#dcba99" stroke="none">
 <path d="M130 1983 c1 -37 22 -110 46 -158 30 -61 72 -86 188 -110 106 -23 321 -98 347 -121 26 -24 36 -10 44 66 4 30 24 117 46 193 21 77 39 141 39 143 0 2 -160 4 -355 4 -332 0 -355 -1 -355 -17z"/>
 <path d="M932 1949 c5 -28 13 -60 17 -72 7 -17 3 -27 -18 -44 l-26 -22 39 -40 39 -40 -24 -20 c-13 -11 -47 -31 -74 -45 -70 -34 -83 -52 -101 -137 -12 -58 -22 -82 -48 -109 -56 -60 -103 -129 -127 -185 -18 -43 -28 -55 -47 -57 -14 -2 -28 -10 -32 -18 -99 -198 -122 -259 -118 -301 2 -24 10 -37 26 -44 14 -6 20 -15 16 -25 -15 -41 -44 -180 -44 -216 0 -100 64 -231 159 -321 86 -82 263 -152 427 -168 88 -9 239 16 311 51 28 13 67 43 87 65 l37 40 29 -33 c33 -36 39 -25 14 24 -12 24 -13 30 -3 25 53 -21 54 -21 26 10 l-28 31 49 49 c38 38 52 61 62 103 16 68 8 171 -23 278 -23 77 -23 82 -6 82 21 0 39 28 39 60 0 24 -34 110 -91 228 -32 65 -44 82 -62 82 -17 0 -30 16 -59 78 -21 44 -61 104 -93 140 -53 57 -58 67 -65 125 -4 35 -14 73 -21 85 -8 12 -49 40 -91 62 -42 23 -80 45 -84 51 -3 6 8 25 25 43 37 38 38 47 10 72 -22 19 -22 39 -3 132 l7 32 -70 0 -70 0 9 -51z m-475 -1351 c-2 -13 -4 -5 -4 17 -1 22 1 32 4 23 2 -10 2 -28 0 -40z m1067 -93 c-6 -46 -37 -135 -47 -135 -3 0 4 24 15 52 14 37 20 78 20 138 1 77 2 81 10 40 5 -25 6 -67 2 -95z m-1034 -74 c11 -23 18 -41 15 -41 -13 0 -55 103 -54 132 1 31 2 31 9 -9 5 -22 18 -60 30 -82z m335 -259 c61 -22 86 -25 200 -26 114 0 137 2 185 22 30 13 50 19 44 13 -21 -22 -131 -54 -200 -59 -89 -6 -196 17 -279 58 -65 33 -58 32 50 -8z"/>
 <path d="M1160 1996 c0 -2 18 -66 39 -143 22 -76 43 -163 46 -194 9 -76 18 -89 44 -65 26 23 241 98 347 121 116 24 158 49 188 110 24 48 45 121 46 158 0 16 -23 17 -355 17 -195 0 -355 -2 -355 -4z"/>
 </g>
<g id="layer106" fill="#cea57c" stroke="none">
 <path d="M130 1983 c1 -37 22 -110 46 -158 30 -61 72 -86 188 -110 106 -23 321 -98 347 -121 26 -24 36 -10 44 66 4 30 24 117 46 193 21 77 39 141 39 143 0 2 -160 4 -355 4 -332 0 -355 -1 -355 -17z"/>
 <path d="M932 1949 c5 -28 13 -60 17 -72 7 -17 3 -27 -18 -44 l-26 -22 39 -40 39 -40 -24 -20 c-13 -11 -47 -31 -74 -45 -70 -34 -83 -52 -101 -137 -12 -58 -22 -82 -48 -109 -56 -60 -103 -129 -127 -185 -18 -43 -28 -55 -47 -57 -14 -2 -28 -10 -32 -18 -99 -198 -122 -259 -118 -301 2 -24 10 -37 26 -44 14 -6 20 -15 16 -25 -15 -41 -44 -180 -44 -216 0 -100 64 -231 159 -321 86 -82 263 -152 427 -168 88 -9 239 16 311 51 28 13 67 43 87 65 l37 40 29 -33 c33 -36 39 -25 14 24 -12 24 -13 30 -3 25 53 -21 54 -20 24 12 l-30 32 25 19 c14 11 21 20 15 20 -5 0 -21 -9 -35 -19 -20 -16 -22 -22 -11 -34 10 -13 9 -15 -8 -10 -23 6 -27 -7 -8 -26 10 -10 9 -11 -3 -6 -10 3 -28 -8 -49 -30 -69 -73 -171 -105 -337 -105 -159 0 -322 52 -440 141 -56 41 -134 149 -160 220 -27 75 -11 180 58 369 1 3 4 -31 7 -75 l6 -80 19 100 19 100 13 -64 c7 -35 26 -91 42 -126 l29 -62 -75 -22 c-87 -26 -92 -39 -6 -16 97 25 228 35 318 24 156 -19 327 -63 404 -103 23 -12 33 -25 38 -51 12 -63 19 -45 16 40 -3 76 -1 90 29 157 18 40 40 100 50 133 19 69 21 67 43 -80 l14 -90 2 90 2 90 29 -105 c32 -118 38 -246 15 -313 -16 -44 -5 -48 23 -9 49 69 52 197 8 350 -23 77 -23 82 -6 82 21 0 39 28 39 60 0 24 -34 110 -91 228 -32 65 -44 82 -62 82 -17 0 -30 16 -59 78 -21 44 -61 104 -93 140 -53 57 -58 67 -65 125 -4 35 -14 73 -21 85 -8 12 -49 40 -91 62 -42 23 -80 45 -84 51 -3 6 8 25 25 43 37 38 38 47 10 72 -22 19 -22 39 -3 132 l7 32 -70 0 -70 0 9 -51z m-115 -1194 c68 0 99 -3 92 -10 -17 -17 -169 -11 -209 8 -19 9 -24 13 -10 9 14 -4 71 -7 127 -7z m483 -3 c-40 -18 -193 -23 -209 -7 -7 7 17 9 72 7 45 -2 98 1 117 6 51 15 60 13 20 -6z"/>
 <path d="M1160 1996 c0 -2 18 -66 39 -143 22 -76 43 -163 46 -194 9 -76 18 -89 44 -65 26 23 241 98 347 121 116 24 158 49 188 110 24 48 45 121 46 158 0 16 -23 17 -355 17 -195 0 -355 -2 -355 -4z"/>
 <path d="M840 570 c137 -7 221 -21 293 -46 22 -8 42 -12 44 -10 3 3 -33 17 -79 32 -73 24 -101 27 -238 29 l-155 3 135 -8z"/>
 <path d="M1383 530 c0 -25 2 -35 4 -22 2 12 2 32 0 45 -2 12 -4 2 -4 -23z"/>
 <path d="M978 483 c12 -2 32 -2 45 0 12 2 2 4 -23 4 -25 0 -35 -2 -22 -4z"/>
 <path d="M713 444 c32 -17 189 -54 227 -53 14 0 -15 9 -65 19 -49 10 -110 26 -134 34 -54 20 -64 20 -28 0z"/>
 <path d="M1250 232 c-25 -15 -74 -35 -110 -45 -54 -15 -58 -17 -20 -12 49 7 153 50 171 71 15 18 13 17 -41 -14z"/>
 <path d="M845 235 c17 -8 39 -14 50 -14 11 0 0 7 -25 15 -56 17 -64 17 -25 -1z"/>
 </g>
<g id="layer107" fill="#c69a70" stroke="none">
 <path d="M130 1983 c1 -37 22 -110 46 -158 30 -61 72 -86 188 -110 106 -23 321 -98 347 -121 26 -24 36 -10 44 66 4 30 24 117 46 193 21 77 39 141 39 143 0 2 -160 4 -355 4 -332 0 -355 -1 -355 -17z"/>
 <path d="M932 1949 c5 -28 13 -60 17 -72 7 -17 3 -27 -18 -44 l-26 -22 39 -40 39 -40 -24 -20 c-13 -11 -47 -31 -74 -45 -70 -34 -83 -52 -101 -137 -12 -58 -22 -82 -48 -109 -56 -60 -103 -129 -127 -185 -18 -43 -28 -55 -47 -57 -14 -2 -28 -10 -32 -18 -99 -198 -122 -259 -118 -301 2 -24 10 -37 26 -44 14 -6 20 -15 16 -25 -15 -41 -44 -180 -44 -216 0 -100 64 -231 159 -321 138 -133 427 -200 642 -150 71 16 178 71 166 84 -3 3 -20 -5 -37 -17 -70 -50 -236 -77 -362 -60 -96 13 -240 59 -306 97 -74 43 -156 133 -198 217 -32 65 -37 85 -37 143 1 106 93 423 124 423 4 0 12 -39 18 -87 15 -114 30 -178 52 -229 l17 -41 -59 -18 c-77 -24 -70 -30 12 -11 169 39 365 23 590 -50 112 -36 126 -45 138 -90 5 -20 7 -7 7 42 0 86 92 464 113 464 6 0 49 -137 87 -280 32 -118 32 -218 -1 -287 -26 -57 -19 -70 14 -25 49 69 52 197 8 350 -23 77 -23 82 -6 82 21 0 39 28 39 60 0 24 -34 110 -91 228 -32 65 -44 82 -62 82 -17 0 -30 16 -59 78 -21 44 -61 104 -93 140 -53 57 -58 67 -65 125 -4 35 -14 73 -21 85 -8 12 -49 40 -91 62 -42 23 -80 45 -84 51 -3 6 8 25 25 43 37 38 38 47 10 72 -22 19 -22 39 -3 132 l7 32 -70 0 -70 0 9 -51z m-100 -1194 c67 0 94 -3 87 -10 -17 -17 -190 -12 -224 8 l-30 16 35 -7 c19 -4 79 -7 132 -7z m473 -3 c-36 -20 -207 -24 -225 -6 -9 9 9 11 72 7 45 -2 101 0 123 5 58 14 64 13 30 -6z"/>
 <path d="M1160 1996 c0 -2 18 -66 39 -143 22 -76 43 -163 46 -194 9 -76 18 -89 44 -65 26 23 241 98 347 121 116 24 158 49 188 110 24 48 45 121 46 158 0 16 -23 17 -355 17 -195 0 -355 -2 -355 -4z"/>
 <path d="M1471 321 c-13 -10 -20 -20 -15 -23 5 -2 20 6 33 19 29 27 16 30 -18 4z"/>
 <path d="M1443 255 c6 -11 12 -26 13 -34 2 -8 10 -21 18 -30 21 -21 21 0 0 41 -12 24 -13 30 -3 25 53 -21 55 -21 37 -2 -9 10 -30 19 -46 19 -27 1 -29 -1 -19 -19z"/>
 <path d="M1415 239 c-4 -6 -4 -13 -1 -16 3 -4 6 -1 6 5 0 6 7 9 17 5 11 -4 14 -3 9 5 -9 15 -23 15 -31 1z"/>
 </g>
<g id="layer108" fill="#ba8f6a" stroke="none">
 <path d="M130 1983 c1 -37 22 -110 46 -158 30 -61 72 -86 188 -110 106 -23 321 -98 347 -121 26 -24 36 -10 44 66 4 30 24 117 46 193 21 77 39 141 39 143 0 2 -160 4 -355 4 -332 0 -355 -1 -355 -17z"/>
 <path d="M932 1949 c5 -28 13 -60 17 -72 7 -17 3 -27 -18 -44 l-26 -22 39 -40 39 -40 -24 -20 c-13 -11 -47 -31 -74 -45 -70 -34 -83 -52 -101 -137 -12 -58 -22 -82 -48 -109 -56 -60 -103 -129 -127 -185 -18 -43 -28 -55 -47 -57 -14 -2 -28 -10 -32 -18 -99 -198 -122 -259 -118 -301 2 -24 10 -37 26 -44 14 -6 20 -15 16 -25 -15 -41 -44 -180 -44 -216 0 -100 64 -231 159 -321 56 -54 178 -116 286 -144 155 -41 368 -24 473 37 57 33 49 42 -9 10 -62 -35 -205 -60 -299 -53 -259 21 -459 138 -548 324 -32 68 -37 87 -36 148 0 89 28 197 93 374 21 55 28 68 35 60 2 -2 11 -58 21 -124 9 -66 27 -150 40 -188 l23 -67 -44 -11 c-72 -18 -46 -19 51 -2 59 10 121 14 180 10 115 -7 306 -49 413 -91 l82 -33 0 24 c0 21 18 106 51 238 22 90 63 215 69 215 4 0 15 -26 23 -57 9 -32 30 -105 49 -163 29 -94 33 -118 33 -225 0 -110 -2 -123 -23 -152 -28 -40 -18 -44 14 -6 52 60 56 195 11 351 -23 77 -23 82 -6 82 21 0 39 28 39 60 0 24 -34 110 -91 228 -32 65 -44 82 -62 82 -17 0 -30 16 -59 78 -21 44 -61 104 -93 140 -53 57 -58 67 -65 125 -4 35 -14 73 -21 85 -8 12 -49 40 -91 62 -42 23 -80 45 -84 51 -3 6 8 25 25 43 37 38 38 47 10 72 -22 19 -22 39 -3 132 l7 32 -70 0 -70 0 9 -51z m-110 -1194 c73 0 104 -3 97 -10 -5 -5 -51 -10 -102 -10 -72 1 -102 6 -139 22 -59 27 -64 39 -5 15 31 -12 70 -17 149 -17z m548 30 c0 -3 -21 -15 -47 -27 -37 -16 -69 -21 -140 -22 -51 -1 -96 4 -102 9 -7 7 27 10 102 11 83 0 121 4 147 17 41 19 40 19 40 12z"/>
 <path d="M1160 1996 c0 -2 18 -66 39 -143 22 -76 43 -163 46 -194 9 -76 18 -89 44 -65 26 23 241 98 347 121 116 24 158 49 188 110 24 48 45 121 46 158 0 16 -23 17 -355 17 -195 0 -355 -2 -355 -4z"/>
 <path d="M1472 320 c-12 -10 -19 -20 -15 -22 5 -3 19 6 32 19 29 28 16 30 -17 3z"/>
 <path d="M1443 262 c7 -8 7 -16 1 -20 -5 -4 3 -20 18 -37 31 -33 37 -20 12 27 -12 24 -13 30 -3 25 53 -21 55 -21 37 -2 -20 22 -83 28 -65 7z"/>
 </g>
<g id="layer109" fill="#9e7a6a" stroke="none">
 <path d="M130 1983 c1 -37 22 -110 46 -158 30 -61 72 -86 188 -110 106 -23 321 -98 347 -121 26 -24 36 -10 44 66 4 30 24 117 46 193 21 77 39 141 39 143 0 2 -160 4 -355 4 -332 0 -355 -1 -355 -17z"/>
 <path d="M932 1949 c5 -28 13 -60 17 -72 7 -17 3 -27 -18 -44 l-26 -22 39 -40 39 -40 -24 -20 c-13 -11 -48 -32 -77 -46 -63 -31 -86 -65 -101 -148 -8 -47 -18 -69 -44 -96 -57 -60 -104 -129 -128 -186 -18 -43 -28 -55 -47 -57 -14 -2 -28 -10 -32 -18 -99 -198 -122 -259 -118 -301 2 -24 10 -37 26 -44 14 -6 20 -15 16 -25 -15 -41 -44 -180 -44 -216 0 -100 64 -231 159 -321 56 -54 178 -116 286 -144 155 -41 368 -24 473 37 62 36 48 38 -23 3 -157 -76 -419 -56 -618 48 -131 69 -245 228 -254 357 -3 46 3 89 25 176 33 125 89 280 102 280 8 0 24 -80 36 -185 3 -33 17 -89 30 -124 12 -36 21 -68 18 -72 -2 -4 40 -5 93 -2 155 9 398 -37 541 -102 l52 -24 0 28 c0 62 104 451 120 451 10 0 101 -316 112 -390 12 -84 0 -165 -32 -211 -27 -36 -15 -38 16 -2 52 60 56 195 11 351 -23 77 -23 82 -6 82 21 0 39 28 39 60 0 24 -34 110 -91 228 -32 65 -44 82 -62 82 -17 0 -30 16 -59 78 -21 44 -61 104 -93 140 -53 57 -58 67 -65 125 -4 35 -14 73 -21 86 -8 12 -47 38 -87 58 -98 50 -103 56 -64 96 38 39 39 48 11 73 -22 19 -22 39 -3 132 l7 32 -70 0 -70 0 9 -51z m-109 -1193 c95 0 106 -2 90 -14 -29 -22 -187 -12 -240 16 -24 12 -43 24 -43 27 0 2 19 -3 43 -12 29 -12 74 -17 150 -17z m547 29 c0 -2 -19 -15 -42 -27 -54 -28 -212 -38 -241 -16 -16 12 -5 14 90 14 76 0 120 5 148 16 48 20 45 19 45 13z"/>
 <path d="M1160 1996 c0 -2 18 -66 39 -143 22 -76 43 -163 46 -194 9 -76 18 -89 44 -65 26 23 241 98 347 121 116 24 158 49 188 110 24 48 45 121 46 158 0 16 -23 17 -355 17 -195 0 -355 -2 -355 -4z"/>
 <path d="M1446 255 c4 -8 2 -15 -4 -15 -6 0 2 -13 16 -30 33 -38 40 -31 17 20 -17 37 -42 59 -29 25z"/>
 <path d="M1486 262 c-3 -6 1 -13 10 -16 23 -9 28 -2 10 13 -8 7 -17 8 -20 3z"/>
 </g>
<g id="layer110" fill="#ae7b4a" stroke="none">
 <path d="M130 1983 c1 -37 22 -110 46 -158 30 -61 72 -86 188 -110 106 -23 321 -98 347 -121 26 -24 34 -11 43 68 4 33 19 99 33 146 14 48 31 111 38 140 l13 52 -354 0 c-331 0 -354 -1 -354 -17z"/>
 <path d="M931 1953 c5 -27 13 -60 18 -75 8 -24 6 -30 -17 -47 l-27 -20 39 -40 c47 -48 44 -56 -50 -101 -74 -36 -86 -51 -108 -145 -13 -51 -26 -79 -50 -105 -56 -60 -104 -129 -127 -185 -18 -43 -28 -55 -47 -57 -14 -2 -28 -10 -32 -18 -99 -198 -122 -259 -118 -301 2 -24 10 -37 26 -44 14 -6 20 -15 16 -25 -15 -41 -44 -180 -44 -216 0 -100 64 -231 159 -321 56 -54 178 -116 286 -144 155 -41 368 -24 473 37 62 36 48 38 -23 3 -157 -76 -419 -56 -618 48 -131 69 -245 228 -254 357 -3 46 3 89 25 176 33 125 89 280 102 280 8 0 24 -80 36 -185 3 -33 17 -89 30 -124 12 -36 21 -68 18 -72 -2 -4 40 -5 93 -2 155 9 398 -37 541 -102 l52 -24 0 28 c0 62 104 451 120 451 10 0 101 -316 112 -390 12 -84 0 -165 -32 -211 -27 -36 -15 -38 16 -2 52 60 56 195 11 351 -23 77 -23 82 -6 82 21 0 39 28 39 60 0 24 -34 110 -91 228 -32 65 -44 82 -62 82 -17 0 -30 16 -59 78 -21 44 -61 104 -93 140 -53 57 -58 67 -65 125 -10 79 -20 96 -79 125 -25 13 -66 35 -90 49 l-43 25 36 37 c42 43 44 55 12 76 -21 14 -23 20 -16 53 4 20 11 54 14 75 l7 37 -69 0 -69 0 8 -47z m-261 -1175 c44 -17 75 -22 158 -21 93 0 102 -2 88 -15 -11 -12 -37 -16 -94 -16 -67 0 -88 5 -145 32 -37 17 -67 33 -67 36 0 8 -1 8 60 -16z m700 6 c0 -3 -25 -17 -56 -31 -59 -27 -158 -36 -216 -20 -56 15 -25 25 75 25 71 -1 114 4 142 15 45 17 55 20 55 11z"/>
 <path d="M1175 1948 c7 -29 24 -91 38 -138 13 -47 28 -112 32 -146 9 -80 17 -94 44 -70 26 23 241 98 347 121 116 24 158 49 188 110 24 48 45 121 46 158 0 16 -23 17 -354 17 l-354 0 13 -52z"/>
 <path d="M1446 255 c4 -8 2 -15 -4 -15 -6 0 2 -13 16 -30 33 -38 40 -31 17 20 -17 37 -42 59 -29 25z"/>
 <path d="M1486 262 c-3 -6 1 -13 10 -16 23 -9 28 -2 10 13 -8 7 -17 8 -20 3z"/>
 </g>
<g id="layer111" fill="#93614a" stroke="none">
 <path d="M130 1983 c1 -37 22 -110 46 -158 30 -61 72 -86 188 -110 106 -23 321 -98 347 -121 26 -24 34 -11 43 68 4 33 19 99 33 146 14 48 31 111 38 140 l13 52 -354 0 c-331 0 -354 -1 -354 -17z"/>
 <path d="M931 1953 c5 -27 13 -60 18 -75 8 -24 6 -30 -17 -47 l-27 -20 39 -40 c47 -48 44 -56 -50 -101 -74 -36 -86 -51 -108 -145 -13 -51 -26 -79 -50 -105 -56 -60 -104 -129 -127 -185 -18 -43 -28 -55 -47 -57 -14 -2 -28 -10 -32 -18 -114 -228 -139 -307 -108 -338 21 -21 45 -14 53 16 3 15 25 65 47 111 48 98 51 96 75 -48 l16 -101 56 -22 c45 -17 76 -21 159 -21 93 0 102 -2 88 -15 -11 -12 -37 -16 -94 -16 -66 0 -88 5 -144 31 l-66 31 19 -69 c10 -38 19 -70 19 -71 0 -2 64 -3 142 -3 115 -1 162 -5 238 -24 98 -24 228 -71 268 -97 21 -14 22 -13 22 17 0 26 31 181 45 226 2 6 -21 0 -52 -14 -58 -27 -157 -36 -215 -20 -56 15 -25 26 70 24 71 -1 111 3 149 16 48 17 54 22 64 60 17 63 60 167 69 167 7 0 41 -81 73 -172 8 -24 44 -23 57 1 21 40 6 87 -81 269 -32 65 -44 82 -62 82 -17 0 -30 16 -59 78 -21 44 -61 104 -93 140 -53 57 -58 67 -65 125 -10 79 -20 96 -79 125 -25 13 -66 35 -90 49 l-43 25 36 37 c42 43 44 55 12 76 -21 14 -23 20 -16 53 4 20 11 54 14 75 l7 37 -69 0 -69 0 8 -47z"/>
 <path d="M1175 1948 c7 -29 24 -91 38 -138 13 -47 28 -112 32 -146 9 -80 17 -94 44 -70 26 23 241 98 347 121 116 24 158 49 188 110 24 48 45 121 46 158 0 16 -23 17 -354 17 l-354 0 13 -52z"/>
 </g>
<g id="layer112" fill="#87523a" stroke="none">
 <path d="M130 1983 c1 -37 22 -110 46 -158 30 -61 72 -86 188 -110 106 -23 321 -98 347 -121 26 -24 34 -11 43 68 4 33 19 99 33 146 14 48 31 111 38 140 l13 52 -354 0 c-331 0 -354 -1 -354 -17z"/>
 <path d="M931 1953 c5 -27 13 -60 18 -75 8 -24 6 -30 -17 -47 l-27 -20 40 -40 c21 -23 45 -41 52 -41 18 0 83 59 83 76 0 7 -11 21 -24 29 -21 14 -23 20 -16 53 4 20 11 54 14 75 l7 37 -69 0 -69 0 8 -47z"/>
 <path d="M1175 1948 c7 -29 24 -91 38 -138 13 -47 28 -112 32 -146 9 -80 17 -94 44 -70 26 23 241 98 347 121 116 24 158 49 188 110 24 48 45 121 46 158 0 16 -23 17 -354 17 l-354 0 13 -52z"/>
 <path d="M905 1622 c-12 -4 -41 -20 -66 -36 -39 -25 -47 -35 -57 -79 -8 -33 -24 -64 -46 -87 -56 -59 -103 -128 -127 -185 -18 -43 -28 -55 -47 -57 -14 -2 -28 -10 -32 -18 -114 -228 -139 -307 -108 -338 15 -15 48 -16 48 -2 0 6 -8 10 -17 10 -16 0 -16 1 0 13 17 12 65 93 94 159 8 21 19 36 23 33 3 -2 20 42 38 98 18 62 47 127 71 164 48 75 163 193 211 218 42 22 172 25 210 5 78 -40 212 -189 256 -283 12 -27 34 -93 49 -147 18 -62 32 -97 40 -94 6 3 22 -19 36 -48 13 -29 34 -67 46 -85 18 -27 19 -33 7 -33 -8 0 -12 -4 -9 -10 10 -17 44 -11 55 9 21 40 6 87 -81 269 -32 66 -44 82 -62 82 -18 0 -28 13 -50 64 -16 35 -54 94 -85 131 -70 83 -81 102 -84 149 -2 20 -7 36 -11 36 -5 0 -29 14 -55 32 -43 30 -54 32 -137 35 -49 1 -99 -1 -110 -5z m-325 -467 c0 -19 -38 -96 -61 -122 -16 -19 -26 -39 -23 -48 9 -24 -4 -78 -27 -105 l-20 -25 5 50 c4 56 11 76 62 181 20 41 42 74 50 74 8 0 14 -2 14 -5z m913 -96 c40 -83 48 -109 45 -147 l-3 -47 -17 32 c-10 18 -18 50 -18 72 0 28 -8 48 -25 69 -14 17 -32 49 -40 72 -18 51 -18 50 -2 50 6 0 34 -45 60 -101z"/>
 <path d="M900 1330 c-12 -7 -12 -12 -2 -22 18 -18 176 -18 194 0 10 10 10 15 -2 22 -19 13 -171 13 -190 0z"/>
 <path d="M966 1155 l-30 -24 19 -35 c25 -45 35 -46 35 -1 0 33 2 35 32 35 l31 0 -23 25 c-28 30 -28 30 -64 0z"/>
 <path d="M690 923 c0 -4 14 -22 32 -40 l32 -33 -34 -35 -34 -35 38 0 c20 0 35 4 32 8 -2 4 -1 14 4 22 7 11 11 11 24 1 9 -7 13 -17 10 -22 -3 -5 9 -9 27 -9 l31 0 -27 36 -27 35 31 40 32 39 -37 0 c-21 0 -34 -3 -31 -6 3 -4 2 -15 -4 -26 -8 -15 -13 -17 -25 -7 -8 6 -14 18 -14 25 0 9 -11 14 -30 14 -16 0 -30 -3 -30 -7z"/>
 <path d="M1160 889 l33 -40 -20 -22 c-36 -40 -37 -47 -5 -47 22 0 31 6 36 23 l6 22 19 -22 c11 -13 31 -23 46 -23 l26 0 -30 33 c-17 17 -31 34 -31 37 0 3 14 20 30 38 17 18 30 35 30 38 0 2 -13 4 -28 4 -22 0 -32 -7 -41 -27 l-13 -28 -22 28 c-12 15 -32 27 -45 27 -22 0 -22 -1 9 -41z"/>
 </g>
<g id="layer113" fill="#794630" stroke="none">
 <path d="M130 1983 c1 -37 22 -110 46 -158 30 -61 72 -86 188 -110 106 -23 321 -98 347 -121 26 -24 34 -11 43 68 4 33 19 99 33 146 14 48 31 111 38 140 l13 52 -354 0 c-331 0 -354 -1 -354 -17z"/>
 <path d="M931 1953 c5 -27 13 -60 18 -75 8 -24 6 -30 -17 -47 l-27 -20 40 -40 c21 -23 45 -41 52 -41 18 0 83 59 83 76 0 7 -11 21 -24 29 -21 14 -23 20 -16 53 4 20 11 54 14 75 l7 37 -69 0 -69 0 8 -47z"/>
 <path d="M1175 1948 c7 -29 24 -91 38 -138 13 -47 28 -112 32 -146 9 -80 17 -94 44 -70 26 23 241 98 347 121 116 24 158 49 188 110 24 48 45 121 46 158 0 16 -23 17 -354 17 l-354 0 13 -52z"/>
 <path d="M815 1562 c-11 -9 -26 -37 -34 -62 -7 -25 -27 -61 -45 -80 -57 -61 -104 -129 -127 -185 -18 -43 -28 -55 -47 -57 -14 -2 -28 -10 -32 -18 -114 -228 -139 -307 -108 -338 7 -7 21 -12 33 -12 18 1 19 1 2 11 -9 6 -14 15 -10 22 3 6 5 32 4 59 -2 38 5 64 37 130 22 46 42 91 45 101 7 19 34 33 44 23 3 -3 -2 -25 -11 -49 -9 -23 -16 -51 -16 -62 0 -10 -3 -15 -7 -12 -15 16 -43 -27 -43 -66 l0 -40 20 25 c10 14 40 85 65 159 54 158 101 234 210 338 86 81 123 96 231 89 86 -6 115 -22 205 -113 94 -96 134 -163 177 -297 26 -82 41 -116 50 -113 7 3 10 0 7 -5 -3 -5 1 -22 9 -37 l14 -28 8 29 c6 24 3 33 -17 50 -22 19 -59 103 -59 133 0 31 33 -5 64 -70 57 -121 67 -150 65 -194 -2 -23 0 -45 4 -49 4 -4 -1 -13 -11 -20 -16 -12 -15 -13 5 -14 24 0 43 26 43 60 0 24 -34 110 -91 228 -32 65 -44 82 -62 82 -17 0 -30 16 -59 78 -21 43 -61 104 -92 138 -38 42 -58 75 -65 103 -16 75 -32 80 -221 80 -141 0 -168 -2 -185 -17z"/>
 <path d="M906 1329 c-31 -19 0 -29 89 -29 78 0 118 11 101 27 -13 13 -169 15 -190 2z"/>
 <path d="M967 1155 l-28 -25 21 -35 c27 -44 34 -44 27 -2 -2 18 2 44 9 60 18 33 8 34 -29 2z"/>
 <path d="M690 926 c0 -2 14 -18 30 -36 17 -18 30 -35 30 -39 0 -3 -14 -21 -31 -38 l-30 -33 30 0 c21 0 32 6 36 20 3 11 10 20 14 20 13 0 32 -26 24 -33 -3 -4 8 -7 26 -7 l32 0 -27 35 -26 35 26 34 c31 42 32 46 6 46 -11 0 -27 -11 -36 -25 -13 -20 -19 -23 -30 -14 -8 6 -14 18 -14 25 0 9 -11 14 -30 14 -16 0 -30 -2 -30 -4z"/>
 <path d="M1161 890 l32 -39 -27 -36 -27 -35 29 0 c22 0 31 6 36 23 l6 22 19 -22 c11 -13 29 -23 41 -23 22 0 22 0 -4 35 l-27 35 31 40 32 40 -31 0 c-20 0 -31 -5 -31 -14 0 -7 -6 -19 -14 -25 -12 -10 -18 -7 -31 13 -11 16 -27 26 -42 26 l-24 0 32 -40z"/>
 </g>
<g id="layer114" fill="#842e29" stroke="none">
 <path d="M130 1983 c1 -37 22 -110 46 -158 30 -61 72 -86 188 -110 106 -23 321 -98 347 -121 26 -24 34 -11 43 68 4 33 19 99 33 146 14 48 31 111 38 140 l13 52 -339 0 -339 0 6 -27 c6 -26 32 -111 48 -158 4 -11 -2 -4 -12 15 -19 33 -34 79 -47 143 -6 30 -25 37 -25 10z m190 -231 c-14 -5 -90 28 -90 39 0 4 23 -2 51 -14 28 -12 45 -23 39 -25z"/>
 <path d="M931 1953 c5 -27 13 -60 18 -75 8 -24 6 -30 -17 -47 l-27 -20 40 -40 c21 -23 45 -41 52 -41 18 0 83 59 83 76 0 7 -11 21 -24 29 -21 14 -23 20 -16 53 4 20 11 54 14 75 l7 37 -69 0 -69 0 8 -47z"/>
 <path d="M1175 1948 c7 -29 24 -93 39 -143 15 -49 31 -118 35 -152 4 -35 10 -66 14 -69 4 -4 16 1 27 11 25 22 241 97 346 120 116 24 158 49 188 110 27 52 53 161 42 172 -10 11 -18 -4 -27 -51 -8 -43 -49 -150 -54 -144 -2 2 7 35 20 73 12 39 26 82 29 98 l6 27 -339 0 -339 0 13 -52z m595 -157 c0 -11 -76 -44 -91 -39 -7 2 9 12 34 22 28 10 44 22 41 28 -4 7 -2 8 4 4 7 -4 12 -11 12 -15z"/>
 <path d="M933 1551 c-23 -4 -64 -21 -92 -39 -30 -18 -51 -26 -52 -19 0 7 -6 0 -13 -15 -6 -16 -26 -43 -42 -60 -55 -58 -102 -128 -125 -183 -18 -43 -28 -55 -47 -57 -14 -2 -28 -10 -32 -18 -114 -228 -139 -307 -108 -338 7 -7 20 -12 31 -12 15 0 14 3 -8 23 -24 21 -26 25 -16 57 l11 35 -5 -37 c-4 -22 -1 -39 6 -43 8 -6 10 6 7 41 -5 42 1 61 38 141 24 51 44 97 44 102 0 12 29 41 41 41 14 0 11 -29 -11 -99 -11 -35 -18 -66 -16 -68 2 -2 18 42 36 99 40 129 65 177 134 264 63 79 130 138 181 160 52 21 170 18 224 -7 57 -25 174 -146 223 -230 32 -53 49 -99 104 -269 5 -13 6 -13 15 0 8 12 9 11 8 -5 -2 -11 1 -31 5 -45 l9 -25 9 24 c6 17 4 31 -8 48 -8 14 -18 22 -22 18 -7 -6 -40 89 -41 118 -2 37 40 4 54 -43 4 -14 15 -38 25 -55 40 -65 59 -130 50 -169 -4 -20 -4 -38 0 -41 5 -3 11 12 13 32 l4 38 1 -37 c2 -28 -3 -41 -20 -52 l-22 -16 21 0 c24 0 43 26 43 60 0 24 -34 110 -91 228 -32 65 -44 82 -62 82 -17 0 -30 16 -59 78 -21 43 -61 104 -92 139 -36 39 -59 75 -65 100 -7 31 -9 33 -10 11 l-1 -27 -57 35 c-31 19 -64 34 -74 34 -9 0 -36 2 -60 4 -24 3 -63 1 -86 -3z"/>
 <path d="M910 1329 c-40 -17 -5 -29 85 -29 78 0 118 11 101 27 -12 12 -158 14 -186 2z"/>
 <path d="M967 1152 l-27 -28 26 -35 26 -34 -6 33 c-3 17 -1 44 5 58 13 37 7 38 -24 6z"/>
 <path d="M513 1019 c-15 -15 -17 -45 -4 -53 14 -9 28 17 22 42 -5 18 -8 21 -18 11z"/>
 <path d="M707 924 c-3 -4 5 -22 20 -40 l25 -34 -26 -35 -27 -35 25 0 c16 0 27 7 31 20 3 11 11 20 16 20 5 0 14 -9 21 -20 7 -11 24 -20 37 -20 l25 0 -32 33 -32 33 30 34 c16 19 29 38 30 43 1 18 -36 5 -56 -20 -22 -28 -23 -28 -37 -8 -9 11 -13 23 -11 27 6 9 -30 11 -39 2z"/>
 <path d="M1140 921 c0 -5 7 -14 16 -21 34 -29 37 -50 9 -86 l-26 -34 23 0 c13 0 29 9 36 20 7 11 16 20 21 20 5 0 13 -9 16 -20 4 -13 15 -20 32 -20 l26 0 -20 23 c-35 38 -36 46 -9 82 32 42 32 45 1 45 -15 0 -25 -6 -25 -14 0 -7 -6 -19 -14 -25 -12 -10 -18 -7 -31 13 -16 24 -55 36 -55 17z"/>
 </g>
<g id="layer115" fill="#6f3726" stroke="none">
 <path d="M130 1983 c1 -37 22 -110 46 -158 30 -61 72 -86 188 -110 106 -23 321 -98 347 -121 26 -24 34 -11 43 68 4 33 19 99 33 146 14 48 31 111 38 140 l13 52 -339 0 -339 0 6 -27 c6 -26 32 -111 48 -158 4 -11 -2 -4 -12 15 -19 33 -34 79 -47 143 -6 30 -25 37 -25 10z m190 -231 c-14 -5 -90 28 -90 39 0 4 23 -2 51 -14 28 -12 45 -23 39 -25z"/>
 <path d="M931 1953 c5 -27 13 -60 18 -75 8 -24 6 -30 -17 -47 l-27 -20 40 -40 c21 -23 45 -41 52 -41 18 0 83 59 83 76 0 7 -11 21 -24 29 -21 14 -23 20 -16 53 4 20 11 54 14 75 l7 37 -69 0 -69 0 8 -47z"/>
 <path d="M1175 1948 c7 -29 24 -93 39 -143 15 -49 31 -118 35 -152 4 -35 10 -66 14 -69 4 -4 16 1 27 11 25 22 241 97 346 120 116 24 158 49 188 110 27 52 53 161 42 172 -10 11 -18 -4 -27 -51 -8 -43 -49 -150 -54 -144 -2 2 7 35 20 73 12 39 26 82 29 98 l6 27 -339 0 -339 0 13 -52z m595 -157 c0 -11 -76 -44 -91 -39 -7 2 9 12 34 22 28 10 44 22 41 28 -4 7 -2 8 4 4 7 -4 12 -11 12 -15z"/>
 <path d="M933 1551 c-23 -4 -64 -21 -92 -39 -30 -18 -51 -26 -52 -19 0 7 -6 0 -13 -15 -6 -16 -26 -43 -42 -60 -55 -58 -102 -128 -125 -183 -18 -43 -28 -55 -47 -57 -14 -2 -28 -10 -32 -18 -114 -228 -139 -307 -108 -338 7 -7 20 -12 31 -12 15 0 14 3 -8 23 -24 21 -26 25 -16 57 l11 35 -5 -37 c-4 -22 -1 -39 6 -43 8 -6 10 6 7 41 -5 42 1 61 38 141 24 51 44 97 44 102 0 12 29 41 41 41 14 0 11 -29 -11 -99 -11 -35 -18 -66 -16 -68 2 -2 18 42 36 99 40 129 65 177 134 264 63 79 130 138 181 160 52 21 170 18 224 -7 57 -25 174 -146 223 -230 32 -53 49 -99 104 -269 5 -13 6 -13 15 0 8 12 9 11 8 -5 -2 -11 1 -31 5 -45 l9 -25 9 24 c6 17 4 31 -8 48 -8 14 -18 22 -22 18 -7 -6 -40 89 -41 118 -2 37 40 4 54 -43 4 -14 15 -38 25 -55 40 -65 59 -130 50 -169 -4 -20 -4 -38 0 -41 5 -3 11 12 13 32 l4 38 1 -37 c2 -28 -3 -41 -20 -52 l-22 -16 21 0 c24 0 43 26 43 60 0 24 -34 110 -91 228 -32 65 -44 82 -62 82 -17 0 -30 16 -59 78 -21 43 -61 104 -92 139 -36 39 -59 75 -65 100 -7 31 -9 33 -10 11 l-1 -27 -57 35 c-31 19 -64 34 -74 34 -9 0 -36 2 -60 4 -24 3 -63 1 -86 -3z"/>
 <path d="M967 1152 l-27 -28 26 -35 26 -34 -6 33 c-3 17 -1 44 5 58 13 37 7 38 -24 6z"/>
 <path d="M513 1019 c-15 -15 -17 -45 -4 -53 14 -9 28 17 22 42 -5 18 -8 21 -18 11z"/>
 <path d="M707 924 c-3 -4 5 -22 20 -40 l25 -34 -26 -35 -27 -35 25 0 c16 0 27 7 31 20 3 11 11 20 16 20 5 0 14 -9 21 -20 7 -11 24 -20 37 -20 l25 0 -32 33 -32 33 30 34 c16 19 29 38 30 43 1 18 -36 5 -56 -20 -22 -28 -23 -28 -37 -8 -9 11 -13 23 -11 27 6 9 -30 11 -39 2z"/>
 <path d="M1140 921 c0 -5 7 -14 16 -21 34 -29 37 -50 9 -86 l-26 -34 23 0 c13 0 29 9 36 20 7 11 16 20 21 20 5 0 13 -9 16 -20 4 -13 15 -20 32 -20 l26 0 -20 23 c-35 38 -36 46 -9 82 32 42 32 45 1 45 -15 0 -25 -6 -25 -14 0 -7 -6 -19 -14 -25 -12 -10 -18 -7 -31 13 -16 24 -55 36 -55 17z"/>
 </g>
<g id="layer116" fill="#65321f" stroke="none">
 <path d="M130 1983 c1 -37 22 -110 46 -158 30 -61 72 -86 188 -110 105 -23 321 -98 346 -120 11 -10 23 -15 27 -11 4 3 10 34 14 69 4 34 20 103 35 152 15 50 32 114 39 143 l13 52 -253 0 c-193 0 -255 -3 -258 -12 -4 -10 -6 -10 -6 0 -1 19 -151 17 -151 -2 0 -8 12 -52 26 -96 14 -45 23 -84 20 -87 -8 -8 -45 77 -52 119 -11 66 -15 78 -24 78 -6 0 -10 -8 -10 -17z m145 -139 c-35 -60 -48 -51 193 -124 57 -17 102 -33 100 -35 -1 -2 -55 12 -118 30 -63 19 -125 34 -137 35 -12 0 -38 7 -56 16 l-34 16 33 50 c19 28 34 55 34 61 0 6 3 8 6 4 4 -3 -6 -27 -21 -53z m320 -12 c-6 -8 -35 12 -35 24 0 11 4 10 18 -3 10 -10 18 -19 17 -21z m15 -116 l25 -30 -31 25 c-17 13 -29 28 -27 32 3 5 6 7 7 5 0 -2 12 -16 26 -32z m10 -51 c14 -8 21 -14 15 -14 -5 0 -21 6 -35 14 -14 8 -20 14 -15 14 6 0 21 -6 35 -14z"/>
 <path d="M931 1953 c5 -27 13 -60 18 -75 8 -24 6 -30 -17 -47 l-27 -20 40 -40 c21 -23 45 -41 52 -41 18 0 83 59 83 76 0 7 -11 21 -24 29 -21 14 -23 20 -16 53 4 20 11 54 14 75 l7 37 -69 0 -69 0 8 -47z"/>
 <path d="M1175 1948 c7 -29 24 -93 39 -143 15 -49 31 -118 35 -152 4 -35 10 -66 14 -69 4 -4 16 1 27 11 25 22 241 97 346 120 116 24 158 49 188 110 27 52 53 161 42 172 -11 11 -19 -5 -27 -56 -8 -54 -46 -148 -55 -138 -3 3 6 42 20 87 14 44 26 88 26 96 0 19 -146 21 -153 2 -4 -10 -6 -10 -6 0 -1 9 -59 12 -255 12 l-254 0 13 -52z m578 -132 l26 -33 -35 -16 c-19 -10 -45 -17 -57 -17 -12 -1 -74 -16 -137 -35 -63 -18 -116 -32 -118 -30 -4 3 35 16 193 64 55 17 105 34 112 39 9 5 3 26 -23 76 -18 38 -34 76 -34 85 0 9 11 -10 24 -42 13 -31 35 -72 49 -91z m-324 23 c-24 -15 -30 -10 -11 9 9 10 19 14 21 9 2 -5 -3 -13 -10 -18z m-1 -103 c-2 0 -16 -12 -32 -26 l-30 -25 25 31 c13 17 28 29 32 27 5 -3 7 -6 5 -7z m-28 -71 c-14 -8 -29 -14 -35 -14 -5 0 1 6 15 14 14 8 30 14 35 14 6 0 -1 -6 -15 -14z"/>
 <path d="M885 1536 c-16 -7 -45 -25 -62 -40 -29 -24 -33 -26 -34 -9 0 13 -4 11 -13 -9 -6 -16 -26 -43 -42 -60 -55 -58 -102 -128 -125 -183 -18 -43 -28 -55 -47 -57 -14 -2 -28 -10 -32 -18 -85 -169 -120 -255 -120 -294 0 -33 15 -56 37 -56 8 0 6 7 -7 20 -11 11 -20 27 -20 35 0 20 34 105 86 213 41 84 48 93 68 88 19 -5 25 1 39 42 22 60 58 115 131 197 72 81 134 125 194 135 42 7 43 8 12 8 -19 1 -48 -5 -65 -12z"/>
 <path d="M1058 1540 c64 -10 113 -42 189 -124 68 -73 124 -157 143 -215 9 -30 18 -40 28 -36 16 6 52 -21 52 -40 0 -7 12 -34 26 -61 15 -27 39 -82 56 -122 30 -76 29 -99 -10 -121 -15 -9 -15 -10 5 -11 24 0 43 26 43 60 0 24 -34 110 -91 228 -32 65 -44 82 -62 82 -17 0 -30 16 -59 78 -21 43 -61 104 -92 138 -30 33 -59 76 -64 95 -10 33 -10 33 -11 6 l-1 -29 -32 28 c-44 36 -89 54 -135 53 -34 -1 -32 -2 15 -9z"/>
 <path d="M966 1148 l-25 -23 25 -35 25 -35 -6 36 c-4 21 -2 46 4 58 15 27 8 27 -23 -1z"/>
 <path d="M510 1007 c-10 -20 -11 -30 -2 -39 8 -8 13 -4 17 15 10 40 0 56 -15 24z"/>
 <path d="M1470 1005 c0 -16 5 -37 10 -45 6 -9 10 -10 10 -3 0 6 2 17 5 25 3 7 -1 22 -9 33 -15 19 -15 19 -16 -10z"/>
 <path d="M707 924 c-3 -4 5 -22 20 -40 l25 -34 -26 -35 -27 -35 25 0 c16 0 27 7 31 20 3 11 11 20 16 20 5 0 14 -9 21 -20 7 -11 24 -20 37 -20 25 0 25 0 -9 35 l-34 35 32 33 c18 18 32 36 32 40 0 17 -36 4 -57 -20 l-23 -28 -21 28 c-21 27 -31 32 -42 21z"/>
 <path d="M1140 924 c0 -3 11 -19 25 -36 31 -37 31 -39 -1 -77 l-26 -31 24 0 c13 0 29 9 36 20 7 11 16 20 21 20 5 0 13 -9 16 -20 4 -13 15 -20 32 -20 l25 0 -26 31 c-32 38 -32 40 -1 77 14 17 25 33 25 36 0 3 -11 6 -25 6 -15 0 -25 -6 -25 -14 0 -7 -6 -19 -14 -25 -12 -10 -18 -7 -31 13 -15 23 -55 37 -55 20z"/>
 <path d="M443 875 c0 -22 2 -30 4 -17 2 12 2 30 0 40 -3 9 -5 -1 -4 -23z"/>
 <path d="M1552 870 c0 -19 2 -27 5 -17 2 9 2 25 0 35 -3 9 -5 1 -5 -18z"/>
 </g>
<g id="layer117" fill="#572717" stroke="none">
 <path d="M130 1983 c1 -37 22 -110 46 -158 30 -61 72 -86 188 -110 105 -23 321 -98 346 -120 11 -10 23 -16 26 -13 3 3 9 34 14 69 5 35 21 105 36 154 15 50 32 114 40 143 11 48 11 53 -4 50 -24 -5 -92 -226 -91 -298 0 -30 0 -66 0 -80 -1 -24 -1 -24 -15 -4 -8 12 -44 43 -80 69 -37 26 -66 50 -66 52 0 2 16 18 36 35 39 34 37 40 -18 57 l-37 12 29 80 c21 58 25 79 15 79 -8 0 -24 -31 -38 -74 -27 -82 -26 -85 28 -106 l30 -11 -35 -29 -35 -29 60 -57 c33 -31 51 -53 40 -49 -80 32 -212 75 -275 90 -122 27 -148 42 -176 98 -14 27 -30 76 -36 108 -9 54 -28 82 -28 42z"/>
 <path d="M300 1956 c-7 -26 -28 -72 -47 -103 -41 -69 -37 -82 5 -17 33 49 66 136 60 156 -3 7 -10 -9 -18 -36z"/>
 <path d="M931 1953 c5 -27 13 -60 18 -75 8 -24 6 -30 -17 -47 l-27 -20 40 -40 c21 -23 45 -41 52 -41 18 0 83 59 83 76 0 7 -11 21 -24 29 -21 14 -23 20 -16 53 4 20 11 54 14 75 l7 37 -69 0 -69 0 8 -47z"/>
 <path d="M1174 1948 c8 -29 25 -93 40 -143 15 -49 31 -118 35 -152 4 -35 10 -66 14 -69 4 -4 16 1 27 11 25 22 241 97 346 120 116 24 158 49 188 110 36 72 58 175 37 175 -5 0 -14 -27 -19 -59 -6 -32 -22 -81 -36 -108 -28 -56 -54 -71 -176 -98 -41 -10 -124 -35 -184 -55 l-108 -39 58 55 58 54 -34 29 -35 29 30 12 c54 21 55 25 28 106 -14 43 -30 74 -38 74 -10 0 -6 -21 15 -79 l29 -80 -37 -12 c-55 -17 -57 -24 -18 -55 20 -16 36 -32 36 -35 0 -3 -29 -28 -66 -54 -36 -26 -72 -57 -80 -69 -14 -20 -14 -20 -15 4 0 14 0 50 0 80 1 72 -67 293 -91 298 -15 3 -15 -2 -4 -50z"/>
 <path d="M1681 1988 c-1 -28 35 -117 65 -159 36 -52 43 -43 9 10 -15 22 -38 69 -51 103 -12 35 -23 55 -23 46z"/>
 <path d="M707 924 c-3 -4 5 -22 20 -40 l25 -34 -26 -35 -27 -35 25 0 c16 0 27 7 31 20 3 11 11 20 16 20 5 0 14 -9 21 -20 7 -11 24 -20 37 -20 25 0 25 0 -9 35 l-34 35 32 33 c18 18 32 36 32 40 0 17 -36 4 -57 -20 l-23 -28 -21 28 c-21 27 -31 32 -42 21z"/>
 <path d="M1140 924 c0 -3 11 -19 25 -36 31 -37 31 -39 -1 -77 l-26 -31 24 0 c13 0 29 9 36 20 7 11 16 20 21 20 5 0 13 -9 16 -20 4 -13 15 -20 32 -20 l25 0 -26 31 c-32 38 -32 40 -1 77 14 17 25 33 25 36 0 3 -11 6 -25 6 -15 0 -25 -6 -25 -14 0 -7 -6 -19 -14 -25 -12 -10 -18 -7 -31 13 -15 23 -55 37 -55 20z"/>
 </g>
<g id="layer118" fill="#342924" stroke="none">
 <path d="M130 1983 c1 -37 22 -110 46 -158 30 -61 72 -86 188 -110 105 -23 321 -98 346 -120 11 -10 23 -16 26 -13 3 4 10 39 15 80 6 40 23 114 39 163 39 120 51 177 37 172 -18 -6 -87 -266 -87 -329 0 -54 -12 -83 -23 -55 -3 8 -29 30 -59 51 l-53 37 40 -36 40 -36 -55 22 c-30 12 -109 37 -175 56 -254 74 -226 60 -262 132 -18 35 -36 85 -39 112 -6 46 -24 70 -24 32z"/>
 <path d="M583 1985 c-21 -40 -45 -126 -39 -140 3 -8 11 -15 18 -15 10 0 10 2 1 8 -9 6 -6 25 13 76 24 66 28 112 7 71z"/>
 <path d="M931 1953 c5 -27 13 -60 18 -75 8 -24 6 -30 -17 -47 l-27 -20 40 -40 c21 -23 45 -41 52 -41 18 0 83 59 83 76 0 7 -11 21 -24 29 -21 14 -23 20 -16 53 4 20 11 54 14 75 l7 37 -69 0 -69 0 8 -47z"/>
 <path d="M1171 1958 c6 -24 23 -83 39 -133 16 -49 33 -123 39 -163 5 -41 12 -76 15 -80 3 -3 15 3 26 13 25 22 241 97 346 120 116 24 158 49 188 110 36 71 58 175 37 175 -5 0 -11 -21 -15 -47 -8 -60 -58 -168 -84 -182 -11 -6 -58 -20 -104 -31 -89 -21 -200 -55 -288 -89 l-55 -22 40 36 40 36 -53 -37 c-30 -21 -56 -43 -59 -51 -11 -28 -23 1 -23 55 0 63 -69 323 -87 329 -8 3 -8 -9 -2 -39z"/>
 <path d="M1400 1991 c0 -6 11 -41 25 -78 18 -50 21 -69 12 -75 -9 -6 -9 -8 1 -8 23 0 24 29 2 95 -19 58 -40 92 -40 66z"/>
 <path d="M1710 1895 c0 -12 48 -85 56 -85 3 0 -3 12 -14 28 -10 15 -24 36 -30 47 -6 11 -12 15 -12 10z"/>
 <path d="M598 1817 l22 -13 -30 -22 c-36 -27 -38 -42 -7 -68 l22 -19 -19 23 c-19 22 -19 22 13 56 32 33 33 34 13 45 -12 6 -24 11 -29 11 -4 -1 2 -6 15 -13z"/>
 <path d="M1387 1819 c-18 -10 -17 -13 14 -45 32 -34 32 -34 13 -56 l-19 -23 23 19 c30 26 28 41 -8 68 l-30 22 22 13 c13 7 19 12 13 12 -5 0 -18 -4 -28 -10z"/>
 <path d="M707 924 c-3 -4 5 -22 20 -40 l25 -34 -26 -35 -27 -35 25 0 c16 0 27 7 31 20 3 11 11 20 16 20 5 0 14 -9 21 -20 7 -11 24 -20 37 -20 25 0 25 0 -9 35 l-34 35 32 33 c18 18 32 36 32 40 0 17 -36 4 -57 -20 l-23 -28 -21 28 c-21 27 -31 32 -42 21z"/>
 <path d="M1140 924 c0 -3 11 -19 25 -36 31 -37 31 -39 -1 -77 l-26 -31 24 0 c13 0 29 9 36 20 7 11 16 20 21 20 5 0 13 -9 16 -20 4 -13 15 -20 32 -20 l25 0 -26 31 c-32 38 -32 40 -1 77 14 17 25 33 25 36 0 3 -11 6 -25 6 -15 0 -25 -6 -25 -14 0 -7 -6 -19 -14 -25 -12 -10 -18 -7 -31 13 -15 23 -55 37 -55 20z"/>
 </g>
<g id="layer119" fill="#481b0c" stroke="none">
 <path d="M130 1983 c1 -37 22 -110 46 -158 30 -61 72 -86 188 -110 105 -23 321 -98 346 -120 11 -10 23 -16 26 -13 3 4 10 39 15 80 6 40 23 114 39 163 39 120 51 177 37 172 -18 -6 -87 -266 -87 -329 0 -54 -12 -83 -23 -55 -3 8 -29 30 -59 51 l-53 37 40 -36 40 -36 -55 22 c-30 12 -109 37 -175 56 -254 74 -226 60 -262 132 -18 35 -36 85 -39 112 -6 46 -24 70 -24 32z"/>
 <path d="M583 1985 c-21 -40 -45 -126 -39 -140 3 -8 11 -15 18 -15 10 0 10 2 1 8 -9 6 -6 25 13 76 24 66 28 112 7 71z"/>
 <path d="M941 1930 c24 -87 24 -82 -6 -101 l-25 -15 44 -43 44 -44 31 22 c17 13 36 32 42 44 10 18 8 24 -15 42 l-26 21 14 72 14 72 -69 0 -68 0 20 -70z"/>
 <path d="M1171 1958 c6 -24 23 -83 39 -133 16 -49 33 -123 39 -163 5 -41 12 -76 15 -80 3 -3 15 3 26 13 25 22 241 97 346 120 116 24 158 49 188 110 36 71 58 175 37 175 -5 0 -11 -21 -15 -47 -8 -60 -58 -168 -84 -182 -11 -6 -58 -20 -104 -31 -89 -21 -200 -55 -288 -89 l-55 -22 40 36 40 36 -53 -37 c-30 -21 -56 -43 -59 -51 -11 -28 -23 1 -23 55 0 63 -69 323 -87 329 -8 3 -8 -9 -2 -39z"/>
 <path d="M1400 1991 c0 -6 11 -41 25 -78 18 -50 21 -69 12 -75 -9 -6 -9 -8 1 -8 23 0 24 29 2 95 -19 58 -40 92 -40 66z"/>
 <path d="M1710 1895 c0 -12 48 -85 56 -85 3 0 -3 12 -14 28 -10 15 -24 36 -30 47 -6 11 -12 15 -12 10z"/>
 <path d="M598 1817 l22 -13 -30 -22 c-36 -27 -38 -42 -7 -68 l22 -19 -19 23 c-19 22 -19 22 13 56 32 33 33 34 13 45 -12 6 -24 11 -29 11 -4 -1 2 -6 15 -13z"/>
 <path d="M1387 1819 c-18 -10 -17 -13 14 -45 32 -34 32 -34 13 -56 l-19 -23 23 19 c30 26 28 41 -8 68 l-30 22 22 13 c13 7 19 12 13 12 -5 0 -18 -4 -28 -10z"/>
 <path d="M706 921 c-3 -4 6 -19 19 -31 32 -30 31 -47 -2 -82 l-27 -28 26 0 c17 0 28 8 37 26 9 21 14 24 26 14 8 -7 15 -19 15 -26 0 -8 10 -14 21 -14 21 0 21 1 -5 35 l-27 35 25 33 c24 31 25 47 5 47 -4 0 -16 -14 -27 -31 l-20 -31 -23 31 c-23 32 -34 37 -43 22z"/>
 <path d="M1156 921 c-4 -5 6 -23 20 -41 l27 -31 -20 -22 c-33 -36 -36 -47 -15 -47 11 0 24 12 31 27 l13 28 23 -28 c23 -26 45 -36 45 -19 0 5 -9 17 -20 27 -27 24 -25 45 5 77 29 31 31 38 10 38 -8 0 -24 -13 -36 -30 -24 -32 -35 -31 -49 6 -10 25 -24 31 -34 15z"/>
 </g>
<g id="layer120" fill="#381103" stroke="none">
 <path d="M138 1981 c-4 -13 -2 -33 3 -43 6 -11 8 -22 6 -25 -3 -2 1 -16 8 -30 8 -15 12 -30 9 -35 -3 -4 0 -8 6 -8 6 0 9 -3 7 -7 -3 -5 4 -17 15 -28 16 -16 15 -11 -6 36 -14 30 -29 79 -34 109 -6 44 -9 50 -14 31z"/>
 <path d="M577 1956 c-23 -68 -21 -82 3 -21 11 28 19 54 17 60 -2 5 -11 -12 -20 -39z"/>
 <path d="M786 1868 c-22 -75 -40 -162 -42 -198 l-3 -65 9 68 c6 37 19 96 31 130 29 85 57 197 49 197 -3 0 -23 -60 -44 -132z"/>
 <path d="M941 1930 c24 -87 24 -82 -6 -101 l-25 -15 44 -43 44 -44 31 22 c17 13 36 32 42 44 10 18 8 24 -15 42 l-26 21 14 72 14 72 -69 0 -68 0 20 -70z"/>
 <path d="M1181 1933 c9 -38 26 -96 38 -130 12 -34 25 -93 31 -130 l9 -68 -3 65 c-2 36 -20 123 -42 198 -39 137 -64 184 -33 65z"/>
 <path d="M1401 1995 c-1 -5 8 -32 19 -60 12 -27 18 -37 15 -21 -7 34 -33 96 -34 81z"/>
 <path d="M1851 1974 c-1 -46 -28 -127 -56 -169 -14 -20 -24 -40 -20 -43 3 -3 5 0 5 7 0 7 5 9 12 5 6 -4 8 -3 5 3 -4 5 2 19 13 30 10 12 16 24 13 27 -4 3 -1 6 6 6 7 0 10 4 7 8 -3 5 1 20 9 35 7 14 11 28 8 30 -2 3 0 14 6 25 7 13 8 29 2 44 -9 22 -10 21 -10 -8z"/>
 <path d="M594 1778 l-29 -33 33 29 c17 17 32 31 32 33 0 8 -8 1 -36 -29z"/>
 <path d="M1370 1807 c0 -2 15 -16 33 -33 l32 -29 -29 33 c-28 30 -36 37 -36 29z"/>
 <path d="M255 1750 c13 -12 38 -22 65 -24 25 -2 45 -5 45 -6 0 -1 16 -3 35 -5 l35 -3 -40 13 c-22 7 -50 14 -63 14 -12 1 -39 8 -60 16 l-37 16 20 -21z"/>
 <path d="M1725 1755 c-16 -8 -41 -15 -55 -15 -14 -1 -43 -8 -65 -15 l-40 -13 35 3 c19 2 35 4 35 5 0 1 20 4 45 6 27 2 52 12 64 24 23 23 22 23 -19 5z"/>
 <path d="M1515 1700 c-13 -5 -14 -9 -5 -9 8 0 24 4 35 9 13 5 14 9 5 9 -8 0 -24 -4 -35 -9z"/>
 <path d="M490 1689 c14 -7 27 -13 30 -14 3 -1 19 -7 35 -14 78 -31 116 -43 120 -39 6 6 -138 64 -180 72 -29 6 -30 6 -5 -5z"/>
 <path d="M1397 1658 c-42 -17 -75 -33 -72 -36 5 -5 123 36 141 50 6 4 14 5 17 1 4 -3 7 -1 7 5 0 16 -5 15 -93 -20z"/>
 <path d="M690 1624 c0 -6 9 -19 19 -28 15 -14 21 -15 27 -4 4 7 4 10 -1 6 -4 -4 -16 3 -26 15 -10 12 -18 17 -19 11z"/>
 <path d="M1284 1605 c-4 -8 -11 -12 -17 -8 -6 4 -7 1 -3 -6 6 -9 13 -8 27 5 22 20 23 24 9 24 -6 0 -13 -7 -16 -15z"/>
 <path d="M706 921 c-3 -4 6 -19 19 -31 32 -30 31 -47 -2 -82 l-27 -28 26 0 c17 0 28 8 37 26 9 21 14 24 26 14 8 -7 15 -19 15 -26 0 -8 10 -14 21 -14 21 0 21 1 -5 35 l-27 35 25 33 c24 31 25 47 5 47 -4 0 -16 -14 -27 -31 l-20 -31 -23 31 c-23 32 -34 37 -43 22z"/>
 <path d="M1156 921 c-4 -5 6 -23 20 -41 l27 -31 -20 -22 c-33 -36 -36 -47 -15 -47 11 0 24 12 31 27 l13 28 23 -28 c23 -26 45 -36 45 -19 0 5 -9 17 -20 27 -27 24 -25 45 5 77 29 31 31 38 10 38 -8 0 -24 -13 -36 -30 -24 -32 -35 -31 -49 6 -10 25 -24 31 -34 15z"/>
 </g>
<g id="layer121" fill="#0b0909" stroke="none">
 <path d="M930 1982 c0 -11 7 -41 15 -68 19 -64 19 -67 -10 -85 l-25 -15 44 -43 44 -44 31 22 c17 13 36 32 42 44 10 18 8 24 -15 42 l-26 21 14 72 14 72 -64 0 c-55 0 -64 -2 -64 -18z"/>
 <path d="M706 921 c-3 -4 6 -19 19 -31 30 -28 32 -51 5 -75 -25 -23 -26 -35 -2 -35 11 0 24 12 31 26 9 21 14 24 26 14 8 -7 15 -19 15 -26 0 -8 10 -14 21 -14 21 0 21 1 -5 35 l-27 35 25 33 c24 31 25 47 5 47 -4 0 -16 -14 -27 -31 l-20 -31 -23 31 c-23 32 -34 37 -43 22z"/>
 <path d="M1157 923 c-4 -3 5 -21 19 -40 l25 -33 -27 -35 c-24 -32 -25 -35 -7 -35 12 0 25 11 32 27 l13 28 23 -28 c23 -26 45 -36 45 -19 0 5 -9 17 -20 27 -25 23 -25 40 0 72 30 39 11 52 -20 14 -28 -33 -38 -31 -53 12 -7 18 -19 22 -30 10z"/>
 </g>

</svg>