<!DOCTYPE svg PUBLIC "-//W3C//DTD SVG 20010904//EN" "http://www.w3.org/TR/2001/REC-SVG-20010904/DTD/svg10.dtd">
<svg version="1.0" xmlns="http://www.w3.org/2000/svg" width="200px" height="200px" viewBox="0 0 2000 2000" preserveAspectRatio="xMidYMid meet">
<g id="layer101" fill="#0c0a0a" stroke="none">
 <path d="M130 1983 c1 -37 22 -110 46 -158 30 -61 72 -86 188 -110 105 -23 316 -96 347 -120 27 -22 66 -101 61 -125 -2 -8 -18 -31 -36 -50 -57 -60 -104 -129 -127 -185 -18 -43 -28 -55 -47 -57 -14 -2 -28 -10 -32 -18 -99 -198 -122 -259 -118 -301 2 -24 10 -37 26 -44 14 -6 20 -15 16 -25 -15 -41 -44 -180 -44 -216 0 -100 64 -231 159 -321 86 -82 263 -152 427 -168 88 -9 239 16 311 51 28 13 67 43 87 65 l37 40 29 -33 c33 -36 39 -25 14 24 -15 28 -15 30 0 24 48 -19 50 -18 23 11 l-28 31 49 49 c38 38 52 61 62 103 16 68 8 171 -23 278 -23 77 -23 82 -6 82 21 0 39 28 39 60 0 24 -34 110 -91 228 -32 66 -44 82 -62 82 -18 0 -28 13 -50 64 -16 35 -54 94 -85 131 -85 100 -87 106 -61 157 12 23 33 51 47 62 32 25 243 98 348 121 116 24 158 49 188 110 24 48 45 121 46 158 0 16 -48 17 -870 17 -822 0 -870 -1 -870 -17z"/>
 </g>
<g id="layer102" fill="#381103" stroke="none">
 <path d="M130 1983 c1 -37 22 -110 46 -158 30 -61 72 -86 188 -110 105 -23 316 -96 347 -120 27 -22 66 -101 61 -125 -2 -8 -18 -31 -36 -50 -57 -60 -104 -129 -127 -185 -18 -43 -28 -55 -47 -57 -14 -2 -28 -10 -32 -18 -99 -198 -122 -259 -118 -301 2 -24 10 -37 26 -44 14 -6 20 -15 16 -25 -15 -41 -44 -180 -44 -216 0 -100 64 -231 159 -321 86 -82 263 -152 427 -168 88 -9 239 16 311 51 28 13 67 43 87 65 l37 40 29 -33 c33 -36 39 -25 14 24 -15 28 -15 30 0 24 48 -19 50 -18 23 11 l-28 31 49 49 c38 38 52 61 62 103 16 68 8 171 -23 278 -23 77 -23 82 -6 82 21 0 39 28 39 60 0 24 -34 110 -91 228 -32 66 -44 82 -62 82 -18 0 -28 13 -50 64 -16 35 -54 94 -85 131 -85 100 -87 106 -61 157 12 23 33 51 47 62 32 25 243 98 348 121 116 24 158 49 188 110 24 48 45 121 46 158 0 16 -24 17 -407 15 l-407 -3 -13 -70 -13 -70 26 -21 c22 -18 24 -25 15 -42 -6 -11 -25 -30 -42 -43 l-31 -22 -44 44 -43 43 22 14 c12 9 23 16 25 18 2 1 -5 36 -15 78 l-18 76 -397 0 c-373 0 -398 -1 -398 -17z m762 -619 c-18 -12 -20 -19 -12 -35 6 -10 18 -19 26 -19 8 0 12 -5 9 -10 -4 -6 13 -20 37 -31 33 -16 36 -19 14 -14 -39 8 -85 42 -96 69 -10 26 5 56 28 56 13 0 12 -3 -6 -16z m113 -3 c-7 -13 56 -25 95 -19 24 4 30 1 30 -14 0 -28 -17 -56 -43 -69 -20 -11 -21 -11 -7 5 13 16 12 20 -5 32 -19 14 -19 14 4 12 13 -2 26 3 28 10 3 8 -7 12 -34 12 -21 0 -56 9 -78 19 -38 19 -39 19 -12 20 16 1 26 -3 22 -8z m18 -48 c-18 -2 -48 -2 -65 0 -18 2 -4 4 32 4 36 0 50 -2 33 -4z m-244 -273 c57 -11 104 -39 123 -73 8 -15 2 -12 -21 10 -38 38 -98 57 -160 50 -50 -6 -74 -26 -96 -82 l-15 -40 6 35 c8 48 35 83 75 97 19 7 35 12 35 12 1 1 25 -3 53 -9z m476 -10 c14 -6 2 -9 -42 -9 -51 -1 -67 -5 -92 -27 -17 -14 -31 -33 -31 -42 0 -8 -3 -12 -7 -9 -12 13 21 59 57 77 37 20 82 24 115 10z m115 -151 c0 -49 -23 -89 -63 -111 -17 -9 -15 -3 10 25 37 43 50 93 34 139 -10 30 -9 31 4 14 8 -11 15 -41 15 -67z m-293 4 c-3 -10 -5 -2 -5 17 0 19 2 27 5 18 2 -10 2 -26 0 -35z m-409 -91 c29 -40 85 -66 128 -58 41 8 92 50 110 91 7 16 13 23 14 14 0 -29 -45 -84 -88 -105 -39 -20 -45 -21 -88 -8 -26 8 -54 20 -62 26 -20 17 -62 108 -61 133 0 11 6 1 13 -22 8 -22 23 -55 34 -71z m468 -16 c16 -14 24 -26 18 -26 -22 0 -74 73 -74 102 1 7 7 -1 14 -18 8 -17 27 -43 42 -58z"/>
 </g>
<g id="layer103" fill="#481b0c" stroke="none">
 <path d="M150 1971 c0 -16 -3 -38 -6 -48 -5 -15 -4 -16 6 -3 9 12 11 8 6 -20 -5 -27 -3 -31 5 -20 9 12 10 11 6 -8 -3 -14 -1 -20 6 -15 7 4 8 0 4 -11 -4 -9 -3 -15 2 -12 4 3 13 -6 20 -20 9 -20 9 -24 -1 -18 -9 6 -9 3 1 -9 7 -9 17 -15 21 -12 5 3 10 0 12 -7 2 -6 13 -13 24 -14 84 -12 105 -17 92 -26 -9 -6 -6 -7 9 -3 31 8 79 -5 61 -17 -9 -7 -4 -8 15 -3 21 4 27 3 21 -6 -5 -9 -2 -10 10 -6 22 9 68 -2 60 -14 -3 -5 1 -6 9 -3 8 3 47 -8 86 -25 39 -17 71 -27 71 -23 1 4 9 -3 19 -15 10 -12 22 -19 26 -15 5 4 5 2 2 -4 -3 -6 4 -33 17 -60 26 -57 25 -67 -19 -114 -57 -62 -103 -129 -126 -185 -18 -43 -28 -55 -47 -57 -14 -2 -28 -10 -32 -18 -99 -198 -122 -259 -118 -301 2 -24 10 -37 26 -44 14 -6 20 -15 16 -25 -15 -41 -44 -180 -44 -216 0 -100 64 -231 159 -321 86 -82 263 -152 427 -168 88 -9 239 16 311 51 28 13 67 43 87 65 l37 40 29 -33 c33 -36 39 -25 14 24 -15 28 -15 30 0 24 48 -19 50 -18 23 11 l-28 31 49 49 c38 38 52 61 62 103 16 68 8 171 -23 278 -23 77 -23 82 -6 82 21 0 39 28 39 60 0 24 -34 110 -91 228 -32 66 -44 82 -62 82 -18 0 -28 13 -50 64 -16 35 -54 94 -85 131 -86 102 -87 105 -58 163 14 27 23 52 21 56 -3 3 -2 4 2 1 3 -3 11 1 17 8 16 20 166 79 183 73 8 -3 11 -1 8 5 -4 6 3 8 22 4 19 -5 24 -4 15 3 -18 12 22 23 58 16 17 -4 21 -3 12 4 -18 12 30 25 61 17 15 -4 18 -3 9 3 -13 9 3 13 90 26 9 1 25 11 35 22 10 11 14 13 8 4 -9 -13 -8 -13 7 -2 10 8 14 20 11 29 -4 11 -2 14 5 9 8 -5 10 -1 5 10 -4 12 -3 15 5 10 8 -5 10 -1 5 10 -4 11 -3 15 4 11 7 -5 9 1 6 15 -4 19 -3 20 6 8 8 -11 10 -7 5 20 -5 28 -3 32 6 20 10 -13 11 -12 6 3 -3 10 -6 32 -6 48 l0 29 -220 0 c-121 0 -220 -1 -220 -3 0 -2 7 -25 16 -51 9 -26 14 -49 12 -51 -2 -3 -12 20 -23 50 l-18 55 -109 0 c-59 0 -108 -4 -108 -8 0 -5 16 -62 35 -128 21 -67 38 -149 40 -189 l4 -70 -9 65 c-5 36 -23 109 -39 162 -16 53 -33 113 -37 133 l-6 36 -56 -3 -56 -3 -13 -70 -13 -70 26 -21 c22 -18 24 -25 15 -42 -6 -11 -25 -30 -42 -43 l-31 -22 -44 44 -43 43 22 14 c12 9 23 16 25 18 2 1 -5 36 -15 78 l-18 76 -46 0 c-46 0 -47 -1 -53 -36 -4 -19 -21 -79 -37 -132 -16 -53 -34 -126 -39 -162 l-9 -65 4 70 c2 40 19 122 40 189 19 66 35 123 35 128 0 4 -49 8 -108 8 l-109 0 -18 -55 c-11 -30 -21 -53 -23 -50 -2 2 3 25 12 51 9 26 16 49 16 51 0 2 -99 3 -220 3 l-220 0 0 -29z m480 -164 c0 -2 -15 -16 -32 -33 l-33 -29 29 33 c28 30 36 37 36 29z m776 -29 l29 -33 -32 29 c-31 28 -38 36 -30 36 2 0 16 -15 33 -32z m-486 -407 c-29 -5 -35 -10 -35 -30 0 -24 1 -25 95 -25 52 -1 101 -3 109 -6 7 -3 15 0 18 6 2 7 -16 13 -50 16 -29 2 -64 12 -77 21 l-24 17 27 0 c16 0 26 -4 23 -9 -7 -11 28 -21 76 -21 26 0 38 5 41 18 3 9 5 2 6 -16 1 -41 -12 -68 -42 -83 -20 -11 -21 -11 -7 5 13 16 12 20 -5 32 -22 16 -150 19 -160 4 -4 -6 13 -20 37 -31 33 -16 36 -19 14 -14 -98 21 -139 127 -48 124 l37 -2 -35 -6z m-141 -331 c57 -11 104 -39 123 -73 8 -15 2 -12 -21 10 -38 38 -98 57 -160 50 -50 -6 -74 -26 -96 -82 l-15 -40 6 35 c8 48 35 83 75 97 19 7 35 12 35 12 1 1 25 -3 53 -9z m476 -10 c14 -6 2 -9 -42 -9 -51 -1 -67 -5 -92 -27 -17 -14 -31 -33 -31 -42 0 -8 -3 -12 -7 -9 -12 13 21 59 57 77 37 20 82 24 115 10z m115 -151 c0 -49 -23 -89 -63 -111 -17 -9 -15 -3 10 25 37 43 50 93 34 139 -10 30 -9 31 4 14 8 -11 15 -41 15 -67z m-293 4 c-3 -10 -5 -2 -5 17 0 19 2 27 5 18 2 -10 2 -26 0 -35z m-409 -91 c29 -40 85 -66 128 -58 41 8 92 50 110 91 7 16 13 23 14 14 0 -29 -45 -84 -88 -105 -39 -20 -45 -21 -88 -8 -26 8 -54 20 -62 26 -20 17 -62 108 -61 133 0 11 6 1 13 -22 8 -22 23 -55 34 -71z m468 -16 c16 -14 24 -26 18 -26 -22 0 -74 73 -74 102 1 7 7 -1 14 -18 8 -17 27 -43 42 -58z"/>
 </g>
<g id="layer104" fill="#322e2c" stroke="none">
 <path d="M154 1953 c3 -27 21 -77 39 -113 36 -73 8 -59 262 -133 66 -19 145 -44 175 -56 l55 -22 -40 36 -40 36 53 -37 c30 -21 56 -43 59 -51 11 -28 23 1 23 56 0 50 10 93 65 284 l14 47 -107 0 -107 0 -27 -77 c-19 -57 -23 -80 -15 -85 9 -6 9 -8 -1 -8 -24 0 -24 31 0 100 l25 70 -133 0 c-118 0 -133 -2 -137 -17 -4 -17 -5 -17 -6 0 -1 15 -12 17 -82 17 l-82 0 7 -47z m458 -134 c20 -11 19 -12 -13 -45 -32 -34 -32 -34 -13 -56 l19 -23 -22 19 c-31 26 -29 41 7 68 l30 22 -22 13 c-13 7 -19 12 -15 13 5 0 17 -5 29 -11z"/>
 <path d="M830 1981 c0 -10 -15 -70 -34 -132 -19 -63 -40 -153 -46 -200 -11 -79 -10 -90 8 -125 23 -46 20 -58 -23 -104 -57 -62 -103 -129 -126 -185 -18 -43 -28 -55 -47 -57 -14 -2 -28 -10 -32 -18 -99 -198 -122 -259 -118 -301 2 -24 10 -37 26 -44 14 -6 20 -15 16 -25 -15 -41 -44 -180 -44 -216 0 -100 64 -231 159 -321 86 -82 263 -152 427 -168 88 -9 239 16 311 51 28 13 67 43 87 65 l37 40 29 -33 c33 -36 39 -25 14 24 -15 29 -15 31 2 23 11 -4 26 -9 34 -13 8 -3 2 9 -13 25 l-28 31 49 49 c38 38 52 61 62 103 16 68 8 171 -23 278 -23 77 -23 82 -6 82 21 0 39 28 39 60 0 24 -34 110 -91 228 -32 66 -44 82 -62 82 -18 0 -28 13 -50 64 -16 35 -54 94 -85 131 -84 100 -87 106 -62 155 19 38 20 47 10 123 -6 45 -27 133 -46 196 -19 62 -34 122 -34 133 0 17 -6 19 -57 16 l-57 -3 -13 -70 -13 -70 26 -21 c22 -18 24 -25 15 -42 -6 -11 -25 -30 -42 -43 l-31 -22 -44 44 -43 43 22 14 c12 9 23 16 25 18 2 1 -5 36 -15 78 l-18 76 -47 0 c-40 0 -48 -3 -48 -19z m288 -603 c15 -15 16 -63 2 -88 -6 -11 -20 -25 -33 -31 -20 -11 -21 -11 -7 5 13 16 12 20 -5 32 -22 16 -150 19 -160 4 -4 -6 13 -20 37 -31 34 -16 37 -19 13 -14 -38 8 -91 48 -98 74 -10 41 13 54 87 46 37 -4 63 -11 56 -15 -15 -9 22 -20 73 -20 46 0 47 12 5 34 -32 15 -32 16 -7 16 14 0 30 -5 37 -12z m-339 -338 c57 -11 104 -39 123 -73 8 -15 2 -12 -21 10 -38 38 -98 57 -160 50 -50 -6 -74 -26 -96 -82 l-15 -40 6 35 c8 48 35 83 75 97 19 7 35 12 35 12 1 1 25 -3 53 -9z m476 -10 c14 -6 2 -9 -42 -9 -51 -1 -67 -5 -92 -27 -17 -14 -31 -33 -31 -42 0 -8 -3 -12 -7 -9 -12 13 21 59 57 77 37 20 82 24 115 10z m115 -151 c0 -49 -23 -89 -63 -111 -17 -9 -15 -3 10 25 37 43 50 93 34 139 -10 30 -9 31 4 14 8 -11 15 -41 15 -67z m-293 4 c-3 -10 -5 -2 -5 17 0 19 2 27 5 18 2 -10 2 -26 0 -35z m-409 -91 c29 -40 85 -66 128 -58 41 8 92 50 110 91 7 16 13 23 14 14 0 -29 -45 -84 -88 -105 -39 -20 -45 -21 -88 -8 -26 8 -54 20 -62 26 -20 17 -62 108 -61 133 0 11 6 1 13 -22 8 -22 23 -55 34 -71z m468 -16 c16 -14 24 -26 18 -26 -22 0 -74 73 -74 102 1 7 7 -1 14 -18 8 -17 27 -43 42 -58z"/>
 <path d="M884 1355 c-13 -32 1 -37 96 -39 52 -1 101 -4 109 -6 7 -3 16 1 18 8 3 8 -8 12 -39 12 -23 0 -63 9 -87 20 -51 24 -89 26 -97 5z"/>
 <path d="M1195 1953 c55 -191 65 -234 65 -284 0 -55 12 -84 23 -56 3 8 29 30 59 51 l53 37 -40 -36 -40 -36 55 22 c88 34 199 68 288 89 46 11 93 25 104 31 26 14 76 122 84 182 l7 47 -220 0 -220 0 25 -70 c24 -69 24 -100 0 -100 -10 0 -10 2 -1 8 8 5 4 28 -15 85 l-27 77 -107 0 -107 0 14 -47z m557 -115 c11 -16 17 -28 14 -28 -8 0 -56 73 -56 85 0 5 6 1 12 -10 6 -11 20 -32 30 -47z m-350 -21 l-22 -13 30 -22 c36 -27 38 -42 8 -68 l-23 -19 19 23 c19 22 19 22 -13 56 -31 32 -32 35 -14 45 10 6 23 10 28 10 6 0 0 -5 -13 -12z"/>
 </g>
<g id="layer105" fill="#572717" stroke="none">
 <path d="M154 1953 c3 -27 21 -77 39 -113 36 -73 8 -59 262 -133 66 -19 145 -44 175 -56 l55 -22 -40 36 -40 36 53 -37 c30 -21 56 -43 59 -51 11 -28 23 1 23 56 0 50 10 93 65 284 l14 47 -107 0 -107 0 -27 -77 c-19 -57 -23 -80 -15 -85 9 -6 9 -8 -1 -8 -24 0 -24 31 0 100 l25 70 -133 0 c-118 0 -133 -2 -137 -17 -4 -17 -5 -17 -6 0 -1 15 -12 17 -82 17 l-82 0 7 -47z m458 -134 c20 -11 19 -12 -13 -45 -32 -34 -32 -34 -13 -56 l19 -23 -22 19 c-31 26 -29 41 7 68 l30 22 -22 13 c-13 7 -19 12 -15 13 5 0 17 -5 29 -11z"/>
 <path d="M830 1981 c0 -10 -15 -70 -34 -132 -19 -63 -40 -153 -46 -200 -11 -79 -10 -90 8 -125 23 -46 20 -58 -23 -104 -57 -62 -103 -129 -126 -185 -18 -43 -28 -55 -47 -57 -14 -2 -28 -10 -32 -18 -99 -198 -122 -259 -118 -301 2 -24 10 -37 26 -44 14 -6 20 -15 16 -25 -15 -41 -44 -180 -44 -216 0 -100 64 -231 159 -321 86 -82 263 -152 427 -168 88 -9 239 16 311 51 28 13 67 43 87 65 l37 40 29 -33 c33 -36 39 -25 14 24 -15 29 -15 31 2 23 11 -4 26 -9 34 -13 8 -3 2 9 -13 25 l-28 31 49 49 c38 38 52 61 62 103 16 68 8 171 -23 278 -23 77 -23 82 -6 82 21 0 39 28 39 60 0 24 -34 110 -91 228 -32 66 -44 82 -62 82 -18 0 -28 13 -50 64 -16 35 -54 94 -85 131 -84 100 -87 106 -62 155 19 38 20 47 10 123 -6 45 -27 133 -46 196 -19 62 -34 122 -34 132 0 16 -8 19 -55 19 -49 0 -55 -2 -59 -22 -27 -127 -27 -122 -1 -143 14 -12 25 -26 25 -32 0 -15 -67 -73 -84 -73 -8 0 -31 19 -51 42 l-38 41 26 21 c26 21 26 22 12 70 -8 27 -15 60 -15 73 0 21 -4 23 -50 23 -42 0 -50 -3 -50 -19z m299 -613 c16 -43 -24 -118 -62 -118 -6 0 -2 6 9 14 16 12 17 17 6 28 -17 17 -153 18 -159 2 -4 -11 54 -37 102 -47 11 -3 0 -3 -24 -1 -51 5 -96 28 -123 65 -17 22 -18 30 -8 49 11 21 17 22 78 17 37 -3 76 -2 87 3 11 5 35 9 53 9 25 1 35 -4 41 -21z m-290 -343 c118 -60 115 -237 -4 -295 -36 -17 -45 -18 -90 -6 -63 16 -108 70 -125 150 -17 85 7 148 64 166 38 11 120 4 155 -15z m441 -7 c59 -30 90 -77 90 -138 0 -51 -23 -90 -63 -111 -19 -10 -18 -7 6 18 65 70 53 178 -24 219 -32 16 -106 19 -143 4 -33 -12 -66 -66 -66 -105 1 -42 32 -108 65 -133 18 -14 42 -22 68 -22 46 0 45 -11 -1 -12 -76 -2 -130 54 -138 144 -7 67 16 116 66 140 47 24 87 23 140 -4z"/>
 <path d="M1025 1368 c-27 -10 -28 -12 -10 -19 24 -9 105 -11 105 -3 0 11 -34 33 -50 33 -8 0 -28 -5 -45 -11z"/>
 <path d="M884 1355 c-13 -32 1 -37 96 -39 52 -1 101 -4 109 -6 7 -3 16 1 18 8 3 8 -8 12 -39 12 -23 0 -63 9 -87 20 -51 24 -89 26 -97 5z"/>
 <path d="M684 1021 c-78 -34 -71 -175 13 -252 54 -51 129 -44 182 16 85 98 20 229 -120 240 -29 3 -64 1 -75 -4z"/>
 <path d="M1195 1953 c55 -191 65 -234 65 -284 0 -55 12 -84 23 -56 3 8 29 30 59 51 l53 37 -40 -36 -40 -36 55 22 c88 34 199 68 288 89 46 11 93 25 104 31 26 14 76 122 84 182 l7 47 -220 0 -220 0 25 -70 c24 -69 24 -100 0 -100 -10 0 -10 2 -1 8 8 5 4 28 -15 85 l-27 77 -107 0 -107 0 14 -47z m557 -115 c11 -16 17 -28 14 -28 -8 0 -56 73 -56 85 0 5 6 1 12 -10 6 -11 20 -32 30 -47z m-350 -21 l-22 -13 30 -22 c36 -27 38 -42 8 -68 l-23 -19 19 23 c19 22 19 22 -13 56 -31 32 -32 35 -14 45 10 6 23 10 28 10 6 0 0 -5 -13 -12z"/>
 </g>
<g id="layer106" fill="#592e29" stroke="none">
 <path d="M155 1953 c4 -27 19 -75 34 -108 32 -69 51 -81 181 -110 63 -15 195 -58 275 -90 11 -4 -7 18 -40 49 l-60 57 35 29 35 29 -30 11 c-54 21 -56 25 -29 102 13 39 24 73 24 75 0 2 -57 3 -127 3 l-128 0 -17 -58 c-16 -55 -75 -158 -85 -148 -3 3 5 19 18 37 23 33 68 135 69 157 0 8 -23 12 -81 12 l-80 0 6 -47z"/>
 <path d="M599 1973 c-6 -16 -19 -51 -29 -80 l-19 -52 37 -12 c55 -17 56 -23 18 -57 -20 -17 -36 -33 -36 -35 0 -2 29 -26 66 -52 36 -26 72 -57 80 -69 14 -20 14 -20 15 4 0 14 0 48 -1 75 -1 33 12 93 38 178 l39 127 -99 0 c-98 0 -99 0 -109 -27z"/>
 <path d="M830 1982 c0 -9 -16 -70 -35 -135 -19 -65 -39 -156 -45 -201 -11 -76 -10 -87 8 -122 10 -22 17 -46 14 -54 -3 -8 -32 -46 -64 -85 -33 -38 -74 -100 -91 -137 -25 -52 -37 -68 -56 -70 -13 -2 -27 -10 -32 -18 -30 -58 -90 -194 -105 -235 -20 -59 -13 -104 17 -112 14 -4 18 -11 14 -22 -16 -42 -45 -180 -45 -217 0 -100 64 -231 159 -321 86 -82 263 -152 427 -168 88 -9 239 16 311 51 28 13 67 43 87 65 l37 40 29 -33 c33 -36 39 -25 14 24 -15 29 -15 31 2 23 11 -4 26 -9 34 -13 8 -3 2 9 -13 25 l-28 31 49 49 c38 38 52 61 62 103 16 68 8 171 -23 278 -17 57 -20 82 -12 82 7 0 20 9 30 20 17 19 18 26 6 68 -7 26 -28 79 -47 119 -19 40 -43 93 -54 118 -15 34 -25 45 -42 45 -18 0 -29 14 -55 68 -17 37 -58 99 -90 137 -32 39 -62 78 -66 88 -4 11 1 34 14 58 18 36 19 47 9 119 -6 44 -26 133 -45 197 -19 65 -35 126 -35 135 0 15 -9 18 -55 18 -49 0 -55 -2 -59 -22 -27 -127 -27 -122 -1 -143 14 -12 25 -26 25 -32 0 -15 -67 -73 -84 -73 -8 0 -31 19 -51 42 l-38 41 26 21 c26 21 26 22 12 70 -8 27 -15 60 -15 73 0 21 -4 23 -50 23 -41 0 -50 -3 -50 -18z m299 -614 c16 -43 -24 -118 -62 -118 -6 0 -2 6 9 14 16 12 17 17 6 28 -17 17 -153 18 -159 2 -4 -11 54 -37 102 -47 11 -3 0 -3 -24 -1 -51 5 -96 28 -123 65 -17 22 -18 30 -8 49 11 21 17 22 78 17 37 -3 76 -2 87 3 11 5 35 9 53 9 25 1 35 -4 41 -21z m-290 -343 c118 -60 115 -237 -4 -295 -36 -17 -45 -18 -90 -6 -63 16 -108 70 -125 150 -17 85 7 148 64 166 38 11 120 4 155 -15z m441 -7 c59 -30 90 -77 90 -138 0 -51 -23 -90 -63 -111 -19 -10 -18 -7 6 18 65 70 53 178 -24 219 -32 16 -106 19 -143 4 -33 -12 -66 -66 -66 -105 1 -42 32 -108 65 -133 18 -14 42 -22 68 -22 46 0 45 -11 -1 -12 -76 -2 -130 54 -138 144 -7 67 16 116 66 140 47 24 87 23 140 -4z"/>
 <path d="M1050 1373 c-8 -2 -22 -7 -30 -9 -26 -9 10 -24 58 -24 46 0 51 6 25 26 -19 14 -29 16 -53 7z"/>
 <path d="M884 1355 c-12 -30 3 -45 38 -37 42 9 81 9 141 -1 31 -6 47 -5 47 2 0 6 -20 11 -45 11 -26 0 -63 9 -85 20 -46 24 -88 26 -96 5z"/>
 <path d="M684 1021 c-78 -34 -71 -175 13 -252 54 -51 129 -44 182 16 85 98 20 229 -120 240 -29 3 -64 1 -75 -4z"/>
 <path d="M1232 1873 c26 -85 39 -145 38 -178 -1 -27 -1 -61 -1 -75 1 -24 1 -24 15 -4 8 12 44 43 80 69 37 26 66 51 66 54 0 3 -16 19 -36 35 -39 31 -37 38 18 55 l37 12 -28 77 -27 77 -101 3 -100 3 39 -128z"/>
 <path d="M1420 1997 c0 -2 11 -36 24 -75 27 -77 25 -81 -29 -102 l-30 -12 35 -29 34 -29 -58 -54 -58 -55 108 39 c60 20 143 45 184 55 130 29 149 41 181 110 15 33 30 81 34 108 l6 47 -80 0 c-58 0 -81 -4 -81 -12 1 -22 46 -124 69 -157 13 -18 21 -34 18 -37 -10 -10 -69 93 -85 148 l-17 58 -127 0 c-71 0 -128 -1 -128 -3z"/>
 </g>
<g id="layer107" fill="#65321f" stroke="none">
 <path d="M155 1953 c4 -27 19 -75 34 -108 32 -69 51 -81 181 -110 63 -15 195 -58 275 -90 11 -4 -7 18 -40 49 l-60 57 35 29 35 29 -30 11 c-54 21 -56 25 -29 102 13 39 24 73 24 75 0 2 -57 3 -127 3 l-128 0 -17 -58 c-16 -55 -75 -158 -85 -148 -3 3 5 19 18 37 23 33 68 135 69 157 0 8 -23 12 -81 12 l-80 0 6 -47z"/>
 <path d="M599 1973 c-6 -16 -19 -51 -29 -80 l-19 -52 37 -12 c55 -17 56 -23 18 -57 -20 -17 -36 -33 -36 -35 0 -2 29 -26 66 -52 36 -26 72 -57 80 -69 14 -20 14 -20 15 4 0 14 0 48 -1 75 -1 33 12 93 38 178 l39 127 -99 0 c-98 0 -99 0 -109 -27z"/>
 <path d="M837 1993 c-3 -5 -8 -24 -12 -43 -4 -19 -20 -77 -36 -128 -16 -51 -33 -131 -39 -177 -9 -76 -9 -89 8 -122 11 -21 17 -45 14 -53 -3 -8 -32 -46 -64 -85 -33 -38 -74 -100 -91 -137 -25 -52 -37 -68 -56 -70 -13 -2 -27 -10 -32 -18 -30 -58 -90 -194 -105 -235 -20 -59 -13 -104 17 -112 14 -4 18 -11 14 -22 -16 -42 -45 -180 -45 -217 0 -100 64 -231 159 -321 86 -82 263 -152 427 -168 88 -9 239 16 311 51 28 13 67 43 87 65 l37 40 29 -33 c33 -36 39 -25 14 24 -15 29 -15 31 2 23 11 -4 26 -9 34 -13 8 -3 2 9 -13 25 l-28 31 49 49 c38 38 52 61 62 103 16 68 8 171 -23 278 -17 57 -20 82 -12 82 7 0 20 9 30 20 17 19 18 26 6 68 -7 26 -28 79 -47 119 -19 40 -43 93 -54 118 -15 34 -25 45 -42 45 -18 0 -29 14 -55 68 -17 37 -58 99 -90 137 -32 39 -62 78 -66 88 -4 11 1 34 13 57 18 35 19 47 10 117 -6 43 -24 123 -40 178 -16 55 -33 116 -38 135 -8 34 -10 35 -60 38 -57 3 -50 13 -71 -93 -10 -47 -9 -51 14 -70 14 -12 25 -26 25 -32 0 -15 -67 -73 -84 -73 -8 0 -31 19 -51 42 l-38 41 26 21 c26 21 26 22 12 70 -8 27 -15 60 -15 73 0 21 -5 23 -44 23 -25 0 -47 -3 -49 -7z m292 -625 c16 -43 -24 -118 -62 -118 -6 0 -2 6 9 14 16 12 17 17 6 28 -17 17 -153 18 -159 2 -4 -11 54 -37 102 -47 11 -3 0 -3 -24 -1 -51 5 -96 28 -123 65 -17 22 -18 30 -8 49 11 21 17 22 78 17 37 -3 76 -2 87 3 11 5 35 9 53 9 25 1 35 -4 41 -21z m-291 -342 c118 -61 117 -238 -1 -295 -38 -18 -47 -19 -92 -7 -40 10 -57 21 -82 54 -70 92 -64 224 12 259 35 16 123 10 163 -11z m447 -9 c104 -59 117 -199 22 -248 -19 -10 -18 -7 6 18 65 70 53 178 -24 219 -32 16 -106 19 -143 4 -33 -12 -66 -66 -66 -105 1 -42 32 -108 65 -133 18 -14 42 -22 68 -22 46 0 45 -11 -1 -12 -76 -2 -130 54 -138 144 -12 125 101 198 211 135z"/>
 <path d="M1050 1373 c-46 -15 -46 -15 -25 -23 24 -10 79 -12 88 -3 8 7 -23 33 -38 32 -5 0 -17 -3 -25 -6z"/>
 <path d="M884 1355 c-12 -30 3 -45 38 -37 42 9 81 9 141 -1 31 -6 47 -5 47 2 0 6 -20 11 -45 11 -26 0 -63 9 -85 20 -46 24 -88 26 -96 5z"/>
 <path d="M684 1021 c-78 -34 -71 -175 13 -252 54 -51 129 -44 182 16 85 98 20 229 -120 240 -29 3 -64 1 -75 -4z"/>
 <path d="M1232 1873 c26 -85 39 -145 38 -178 -1 -27 -1 -61 -1 -75 1 -24 1 -24 15 -4 8 12 44 43 80 69 37 26 66 51 66 54 0 3 -16 19 -36 35 -39 31 -37 38 18 55 l37 12 -28 77 -27 77 -101 3 -100 3 39 -128z"/>
 <path d="M1420 1997 c0 -2 11 -36 24 -75 27 -77 25 -81 -29 -102 l-30 -12 35 -29 34 -29 -58 -54 -58 -55 108 39 c60 20 143 45 184 55 130 29 149 41 181 110 15 33 30 81 34 108 l6 47 -80 0 c-58 0 -81 -4 -81 -12 1 -22 46 -124 69 -157 13 -18 21 -34 18 -37 -10 -10 -69 93 -85 148 l-17 58 -127 0 c-71 0 -128 -1 -128 -3z"/>
 </g>
<g id="layer108" fill="#6c3926" stroke="none">
 <path d="M157 1958 c7 -52 40 -145 55 -154 7 -5 9 0 6 12 -3 10 -17 56 -29 101 -26 90 -40 108 -32 41z"/>
 <path d="M837 1993 c-3 -5 -8 -24 -12 -43 -4 -19 -20 -77 -36 -128 -16 -51 -33 -131 -39 -177 -9 -72 -8 -88 6 -119 10 -19 21 -33 26 -30 4 3 8 -2 8 -11 0 -13 7 -11 33 11 42 35 88 54 129 53 28 -1 26 -3 -14 -9 -60 -10 -122 -54 -194 -135 -73 -82 -109 -137 -131 -197 -14 -41 -20 -47 -39 -42 -20 5 -27 -4 -68 -88 -52 -108 -86 -193 -86 -213 0 -8 9 -24 20 -35 19 -19 19 -20 -5 -116 -30 -117 -31 -162 -5 -245 39 -127 136 -236 265 -300 153 -75 313 -101 465 -75 113 20 185 52 234 107 l37 40 29 -33 c33 -36 39 -25 14 24 -15 29 -15 31 2 23 11 -4 26 -9 34 -13 8 -3 2 9 -13 25 l-28 31 49 49 c60 60 78 119 69 227 -7 80 -43 217 -59 227 -6 4 -2 11 10 18 43 23 45 45 14 123 -17 40 -41 95 -56 122 -14 27 -26 54 -26 61 0 19 -36 46 -52 40 -10 -4 -19 6 -28 36 -19 58 -75 142 -143 215 -76 82 -125 114 -189 124 -47 7 -49 8 -15 9 46 1 91 -17 135 -53 l32 -28 0 29 c0 18 3 23 8 15 6 -8 13 -1 25 23 14 30 15 46 7 113 -6 42 -24 122 -40 177 -16 55 -33 116 -38 135 -8 34 -10 35 -60 38 -57 3 -50 13 -71 -93 -10 -47 -9 -51 14 -70 14 -12 25 -26 25 -32 0 -15 -67 -73 -84 -73 -8 0 -31 19 -51 42 l-38 41 26 21 c26 21 26 22 12 70 -8 27 -15 60 -15 73 0 21 -5 23 -44 23 -25 0 -47 -3 -49 -7z m292 -625 c16 -43 -24 -118 -62 -118 -6 0 -2 6 9 14 16 12 17 17 6 28 -17 17 -153 18 -159 2 -4 -11 54 -37 102 -47 11 -3 0 -3 -24 -1 -51 5 -96 28 -123 65 -17 22 -18 30 -8 49 11 21 17 22 78 17 37 -3 76 -2 87 3 11 5 35 9 53 9 25 1 35 -4 41 -21z m-140 -219 c-6 -12 -8 -37 -4 -58 l6 -36 -25 35 -25 35 25 23 c31 28 38 28 23 1z m-151 -123 c118 -61 117 -238 -1 -295 -38 -18 -47 -19 -92 -7 -40 10 -57 21 -82 54 -70 92 -64 224 12 259 35 16 123 10 163 -11z m447 -9 c104 -59 117 -199 22 -248 -19 -10 -18 -7 6 18 65 70 53 178 -24 219 -32 16 -106 19 -143 4 -33 -12 -66 -66 -66 -105 1 -42 32 -108 65 -133 18 -14 42 -22 68 -22 46 0 45 -11 -1 -12 -76 -2 -130 54 -138 144 -12 125 101 198 211 135z m-760 -34 c-4 -19 -9 -23 -17 -15 -9 9 -8 19 2 39 15 32 25 16 15 -24z m970 -1 c-3 -8 -5 -19 -5 -25 0 -7 -4 -6 -10 3 -5 8 -10 29 -10 45 1 29 1 29 16 10 8 -11 12 -26 9 -33z m-1048 -124 c-2 -13 -4 -5 -4 17 -1 22 1 32 4 23 2 -10 2 -28 0 -40z m1110 -5 c-3 -10 -5 -2 -5 17 0 19 2 27 5 18 2 -10 2 -26 0 -35z"/>
 <path d="M1050 1373 c-46 -15 -46 -15 -25 -23 24 -10 79 -12 88 -3 8 7 -23 33 -38 32 -5 0 -17 -3 -25 -6z"/>
 <path d="M891 1361 c-19 -12 -4 -54 17 -46 9 3 36 9 60 12 l44 6 -39 18 c-42 20 -62 23 -82 10z"/>
 <path d="M684 1021 c-78 -34 -71 -175 13 -252 54 -51 129 -44 182 16 85 98 20 229 -120 240 -29 3 -64 1 -75 -4z"/>
 <path d="M1811 1917 c-12 -45 -26 -91 -29 -101 -3 -12 -1 -17 6 -12 24 14 74 196 54 196 -4 0 -18 -37 -31 -83z"/>
 <path d="M1680 1949 c0 -9 16 -47 34 -85 26 -50 32 -71 23 -76 -7 -5 -57 -22 -112 -39 -158 -48 -197 -61 -193 -64 2 -2 55 12 118 30 63 19 125 34 137 35 12 0 38 7 57 17 l35 16 -26 33 c-14 19 -36 60 -49 91 -13 32 -24 51 -24 42z"/>
 <path d="M290 1893 c0 -6 -15 -33 -34 -61 l-33 -50 34 -16 c18 -9 44 -16 56 -16 12 -1 74 -16 137 -35 63 -18 117 -32 118 -30 2 2 -43 18 -100 35 -241 73 -228 64 -193 124 15 26 25 50 21 53 -3 4 -6 2 -6 -4z"/>
 <path d="M560 1856 c0 -8 7 -17 16 -20 23 -9 24 -4 2 17 -14 13 -18 14 -18 3z"/>
 <path d="M1418 1848 c-19 -19 -13 -24 11 -9 7 5 12 13 10 18 -2 5 -12 1 -21 -9z"/>
 <path d="M577 1743 c-2 -4 10 -19 27 -32 l31 -25 -25 30 c-14 16 -26 30 -26 32 -1 2 -4 0 -7 -5z"/>
 <path d="M1391 1716 l-25 -31 30 25 c16 14 30 26 32 26 2 1 0 4 -5 7 -4 2 -19 -10 -32 -27z"/>
 <path d="M600 1665 c14 -8 30 -14 35 -14 6 0 -1 6 -15 14 -14 8 -29 14 -35 14 -5 0 1 -6 15 -14z"/>
 <path d="M1380 1665 c-14 -8 -20 -14 -15 -14 6 0 21 6 35 14 14 8 21 14 15 14 -5 0 -21 -6 -35 -14z"/>
 </g>
<g id="layer109" fill="#59453c" stroke="none">
 <path d="M156 1969 c9 -49 32 -120 50 -149 10 -16 13 -18 8 -5 -4 11 -18 56 -31 99 -26 87 -37 109 -27 55z"/>
 <path d="M837 1993 c-3 -5 -8 -24 -12 -43 -4 -19 -20 -77 -36 -128 -16 -51 -33 -131 -39 -177 -9 -72 -8 -88 6 -119 10 -19 21 -33 26 -30 4 3 8 1 8 -5 0 -5 25 5 55 23 94 57 221 56 315 -2 l50 -31 1 27 c0 21 2 23 8 9 6 -15 9 -13 24 17 14 31 15 47 7 114 -6 42 -24 122 -40 177 -16 55 -33 116 -38 135 -8 34 -10 35 -60 38 -57 3 -50 13 -71 -93 -10 -47 -9 -51 14 -70 14 -12 25 -26 25 -32 0 -15 -67 -73 -84 -73 -8 0 -31 19 -51 42 l-38 41 26 21 c26 21 26 22 12 70 -8 27 -15 60 -15 73 0 21 -5 23 -44 23 -25 0 -47 -3 -49 -7z"/>
 <path d="M1830 1959 c-6 -24 -19 -69 -30 -99 -11 -30 -18 -56 -16 -57 7 -7 47 99 55 145 12 60 6 67 -9 11z"/>
 <path d="M1754 1802 c3 -6 -13 -18 -41 -28 -25 -10 -41 -20 -34 -22 15 -5 91 28 91 39 0 4 -5 11 -12 15 -6 4 -8 3 -4 -4z"/>
 <path d="M230 1791 c0 -11 76 -44 90 -39 6 2 -11 13 -39 25 -28 12 -51 18 -51 14z"/>
 <path d="M884 1521 c-55 -25 -179 -153 -227 -232 -21 -35 -54 -115 -74 -177 -20 -62 -38 -111 -40 -109 -2 2 6 33 17 68 27 89 26 113 -6 91 -14 -9 -120 -238 -128 -278 -6 -27 -3 -35 20 -53 20 -16 24 -24 16 -34 -16 -19 -52 -174 -52 -223 0 -100 64 -231 159 -321 86 -82 263 -152 427 -168 88 -9 239 16 311 51 28 13 67 43 87 65 l37 40 29 -33 c33 -36 39 -25 14 24 -15 29 -15 31 2 23 11 -4 26 -9 34 -13 8 -3 2 9 -13 25 l-28 31 49 49 c60 60 78 119 69 227 -7 78 -43 217 -58 227 -6 3 1 13 15 23 18 11 26 25 26 45 0 29 -40 136 -70 186 -10 17 -21 41 -25 55 -8 27 -33 60 -47 60 -4 0 -8 -8 -7 -17 1 -29 34 -124 41 -118 4 4 14 -4 22 -18 12 -17 14 -31 8 -48 l-9 -24 -9 25 c-4 14 -7 34 -5 45 1 16 0 17 -8 5 -9 -13 -10 -13 -15 0 -2 8 -17 53 -32 100 -37 116 -66 173 -132 253 -64 79 -123 130 -175 152 -52 22 -171 19 -223 -4z m245 -153 c16 -43 -24 -118 -62 -118 -6 0 -2 6 9 14 16 12 17 17 6 28 -17 17 -153 18 -159 2 -4 -11 54 -37 102 -47 11 -3 0 -3 -24 -1 -51 5 -96 28 -123 65 -17 22 -18 30 -8 49 11 21 17 22 78 17 37 -3 76 -2 87 3 11 5 35 9 53 9 25 1 35 -4 41 -21z m-138 -222 c-6 -14 -8 -41 -5 -58 l6 -33 -26 34 -26 35 27 28 c31 32 37 31 24 -6z m-153 -120 c118 -61 117 -238 -1 -295 -38 -18 -47 -19 -92 -7 -40 10 -57 21 -82 54 -70 92 -64 224 12 259 35 16 123 10 163 -11z m447 -9 c104 -59 117 -199 22 -248 -19 -10 -18 -7 6 18 65 70 53 178 -24 219 -32 16 -106 19 -143 4 -33 -12 -66 -66 -66 -105 1 -42 32 -108 65 -133 18 -14 42 -22 68 -22 46 0 45 -11 -1 -12 -76 -2 -130 54 -138 144 -12 125 101 198 211 135z m-758 -44 c-5 -7 -13 -10 -18 -7 -13 8 -11 38 4 53 10 10 13 7 18 -11 3 -13 2 -29 -4 -35z m-77 -95 c0 -28 -3 -39 -10 -32 -9 9 -3 74 6 74 2 0 4 -19 4 -42z m1110 -4 c0 -19 -4 -33 -8 -30 -8 5 -4 66 4 66 2 0 4 -16 4 -36z"/>
 <path d="M1035 1368 c-27 -10 -28 -12 -10 -19 25 -10 80 -11 88 -2 8 7 -23 33 -38 32 -5 0 -23 -5 -40 -11z"/>
 <path d="M890 1355 c-22 -26 1 -37 60 -29 l53 7 -34 18 c-42 23 -63 23 -79 4z"/>
 <path d="M684 1021 c-78 -34 -71 -175 13 -252 54 -51 129 -44 182 16 85 98 20 229 -120 240 -29 3 -64 1 -75 -4z"/>
 </g>
<g id="layer110" fill="#7a462f" stroke="none">
 <path d="M156 1969 c9 -49 32 -120 50 -149 10 -16 13 -18 8 -5 -4 11 -18 56 -31 99 -26 87 -37 109 -27 55z"/>
 <path d="M835 1988 c-2 -7 -11 -40 -19 -74 -9 -33 -23 -80 -31 -105 -9 -24 -23 -89 -31 -144 -14 -91 -14 -102 2 -137 9 -21 21 -35 25 -32 5 3 9 1 9 -5 0 -5 25 5 55 23 94 57 221 56 315 -2 l50 -31 1 27 c0 21 2 23 8 9 6 -15 9 -12 24 18 16 33 16 43 2 134 -8 55 -20 112 -26 127 -6 16 -21 67 -33 114 l-23 85 -51 3 c-57 3 -50 13 -71 -93 -10 -47 -9 -51 14 -68 14 -10 25 -25 25 -32 0 -16 -66 -75 -84 -75 -8 0 -31 19 -51 42 l-38 41 26 21 c26 21 26 22 12 70 -8 27 -15 60 -15 73 0 21 -4 23 -45 23 -28 0 -47 -5 -50 -12z"/>
 <path d="M1830 1959 c-6 -24 -19 -69 -30 -99 -11 -30 -18 -56 -16 -57 7 -7 47 99 55 145 12 60 6 67 -9 11z"/>
 <path d="M1754 1802 c3 -6 -13 -18 -41 -28 -25 -10 -41 -20 -34 -22 15 -5 91 28 91 39 0 4 -5 11 -12 15 -6 4 -8 3 -4 -4z"/>
 <path d="M230 1791 c0 -11 76 -44 90 -39 6 2 -11 13 -39 25 -28 12 -51 18 -51 14z"/>
 <path d="M884 1521 c-55 -25 -179 -153 -227 -232 -21 -35 -54 -115 -74 -177 -20 -62 -38 -111 -40 -109 -2 2 6 33 17 68 27 89 26 113 -6 91 -14 -9 -120 -238 -128 -278 -6 -27 -3 -35 20 -53 20 -16 24 -24 16 -34 -16 -19 -52 -174 -52 -223 0 -100 64 -231 159 -321 86 -82 263 -152 427 -168 88 -9 239 16 311 51 28 13 67 43 87 65 l37 40 29 -33 c33 -36 39 -25 14 24 -15 29 -15 31 2 23 11 -4 26 -9 34 -13 8 -3 2 9 -13 25 l-28 31 49 49 c60 60 78 119 69 227 -7 78 -43 217 -58 227 -6 3 1 13 15 23 18 11 26 25 26 45 0 29 -40 136 -70 186 -10 17 -21 41 -25 55 -8 27 -33 60 -47 60 -4 0 -8 -8 -7 -17 1 -29 34 -124 41 -118 4 4 14 -4 22 -18 12 -17 14 -31 8 -48 l-9 -24 -9 25 c-4 14 -7 34 -5 45 1 16 0 17 -8 5 -9 -13 -10 -13 -15 0 -2 8 -17 53 -32 100 -37 116 -66 173 -132 253 -64 79 -123 130 -175 152 -52 22 -171 19 -223 -4z m106 -145 c14 1 48 5 76 9 46 7 53 5 63 -13 15 -28 4 -76 -24 -102 -29 -27 -91 -36 -140 -20 -46 15 -105 66 -105 90 0 29 38 50 74 42 17 -4 42 -6 56 -6z m1 -230 c-6 -14 -8 -41 -5 -58 l6 -33 -26 34 -26 35 27 28 c31 32 37 31 24 -6z m-187 -105 c68 -16 126 -90 126 -163 0 -53 -37 -115 -85 -143 -59 -35 -115 -27 -166 24 -36 36 -69 116 -69 166 0 97 77 143 194 116z m470 -15 c18 -7 47 -31 64 -52 27 -32 32 -47 32 -90 0 -57 -22 -94 -70 -119 -42 -22 -51 -18 -13 5 64 39 85 105 55 174 -27 59 -66 80 -143 74 -67 -5 -94 -24 -110 -78 -15 -50 4 -115 46 -157 27 -27 41 -33 77 -34 32 0 38 -2 23 -9 -48 -20 -116 16 -145 75 -41 85 -15 187 55 215 31 13 92 11 129 -4z m-747 -53 c-5 -7 -13 -10 -18 -7 -13 8 -11 38 4 53 10 10 13 7 18 -11 3 -13 2 -29 -4 -35z m-77 -95 c0 -28 -3 -39 -10 -32 -9 9 -3 74 6 74 2 0 4 -19 4 -42z m1110 -4 c0 -19 -4 -33 -8 -30 -8 5 -4 66 4 66 2 0 4 -16 4 -36z"/>
 <path d="M1035 1368 c-27 -10 -28 -12 -10 -19 25 -10 80 -11 88 -2 8 7 -23 33 -38 32 -5 0 -23 -5 -40 -11z"/>
 <path d="M890 1355 c-22 -26 1 -37 60 -29 l53 7 -34 18 c-42 23 -63 23 -79 4z"/>
 <path d="M926 1301 c-10 -15 34 -40 85 -47 36 -5 49 -2 63 11 12 13 14 21 6 29 -14 14 -146 21 -154 7z"/>
 <path d="M685 1015 c-44 -23 -55 -43 -55 -97 0 -58 26 -115 70 -152 25 -20 42 -26 82 -26 43 0 54 4 83 33 72 72 68 165 -10 219 -51 36 -127 46 -170 23z"/>
 </g>
<g id="layer111" fill="#87523a" stroke="none">
 <path d="M837 1993 c-3 -5 -8 -24 -12 -43 -4 -19 -20 -75 -35 -125 -15 -49 -33 -129 -39 -177 -11 -80 -10 -91 8 -125 l19 -38 8 30 c15 59 32 64 214 65 163 0 166 0 193 -25 15 -14 27 -34 27 -43 1 -10 9 -1 21 20 18 36 18 42 4 137 -8 54 -20 112 -26 127 -6 16 -21 67 -33 114 l-23 85 -51 3 c-57 3 -50 13 -71 -93 -10 -47 -9 -51 14 -68 14 -10 25 -25 25 -32 0 -16 -66 -75 -84 -75 -8 0 -31 19 -51 42 l-38 41 26 21 c26 21 26 22 12 70 -8 27 -15 60 -15 73 0 21 -5 23 -44 23 -25 0 -47 -3 -49 -7z"/>
 <path d="M902 1529 c-44 -13 -170 -134 -227 -218 -32 -46 -57 -102 -84 -184 -21 -65 -42 -121 -46 -125 -10 -10 3 54 22 106 9 23 13 45 10 48 -10 10 -37 -4 -44 -23 -3 -10 -23 -55 -45 -101 -32 -66 -39 -92 -37 -130 1 -27 -1 -53 -4 -59 -4 -7 0 -16 10 -21 13 -8 15 -13 5 -24 -16 -20 -52 -174 -52 -224 0 -100 64 -231 159 -321 86 -82 263 -152 427 -168 88 -9 239 16 311 51 28 13 67 43 87 65 l37 40 29 -33 c33 -36 39 -25 14 24 -15 29 -15 31 2 23 11 -4 26 -9 34 -13 8 -3 2 9 -13 25 l-28 31 49 49 c59 59 78 119 69 224 -7 84 -45 229 -61 229 -6 1 -1 9 11 19 12 10 19 21 16 25 -4 4 -6 26 -4 49 2 44 -8 73 -65 194 -31 65 -64 101 -64 70 0 -30 37 -114 59 -133 19 -16 23 -26 17 -49 -8 -33 -27 -22 -29 18 -1 13 -6 23 -12 21 -5 -2 -27 49 -47 114 -43 134 -83 201 -177 297 -94 95 -119 108 -215 112 -45 1 -96 -2 -114 -8z m88 -153 c14 1 48 5 76 9 46 7 53 5 63 -13 15 -28 4 -76 -24 -102 -29 -27 -91 -36 -140 -20 -46 15 -105 66 -105 90 0 29 38 50 74 42 17 -4 42 -6 56 -6z m6 -223 c-7 -16 -11 -42 -9 -60 7 -42 0 -42 -27 2 l-21 35 28 25 c37 32 47 31 29 -2z m-192 -112 c68 -16 126 -90 126 -163 0 -53 -37 -115 -85 -143 -59 -35 -115 -27 -166 24 -36 36 -69 116 -69 166 0 97 77 143 194 116z m-269 -34 c0 -17 -8 -43 -17 -57 l-18 -24 0 38 c0 23 7 47 17 58 9 10 17 18 17 18 1 0 1 -15 1 -33z m739 19 c18 -7 47 -31 64 -52 27 -32 32 -47 32 -90 0 -57 -22 -94 -70 -119 -42 -22 -51 -18 -13 5 64 39 85 105 55 174 -27 59 -66 80 -143 74 -67 -5 -94 -24 -110 -78 -15 -50 4 -115 46 -157 27 -27 41 -33 77 -34 32 0 38 -2 23 -9 -48 -20 -116 16 -145 75 -41 85 -15 187 55 215 31 13 92 11 129 -4z"/>
 <path d="M1035 1366 l-30 -13 42 -7 c50 -9 70 -1 52 20 -14 17 -25 17 -64 0z"/>
 <path d="M890 1355 c-22 -26 1 -37 60 -29 l53 7 -34 18 c-42 23 -63 23 -79 4z"/>
 <path d="M926 1301 c-10 -15 34 -40 85 -47 36 -5 49 -2 63 11 12 13 14 21 6 29 -14 14 -146 21 -154 7z"/>
 <path d="M685 1015 c-44 -23 -55 -43 -55 -97 0 -58 26 -115 70 -152 25 -20 42 -26 82 -26 43 0 54 4 83 33 72 72 68 165 -10 219 -51 36 -127 46 -170 23z"/>
 </g>
<g id="layer112" fill="#a83738" stroke="none">
 <path d="M835 1988 c-2 -7 -11 -40 -19 -74 -9 -33 -23 -80 -31 -105 -9 -24 -23 -89 -31 -144 -14 -92 -14 -102 2 -138 18 -39 33 -35 34 8 0 13 19 33 53 55 51 34 54 35 157 35 102 0 106 -1 152 -32 26 -18 51 -33 56 -33 5 0 10 -6 9 -12 -1 -48 4 -52 24 -16 18 36 18 42 4 137 -8 54 -20 112 -26 127 -6 16 -21 67 -33 114 l-23 85 -51 3 c-57 3 -50 13 -71 -93 -10 -47 -9 -51 14 -68 14 -10 25 -25 25 -32 0 -16 -66 -75 -84 -75 -8 0 -31 19 -51 42 l-38 41 26 21 c26 21 26 22 12 70 -8 27 -15 60 -15 73 0 21 -4 23 -45 23 -28 0 -47 -5 -50 -12z"/>
 <path d="M938 1531 c-51 -11 -110 -54 -177 -129 -81 -91 -124 -167 -156 -276 -15 -52 -32 -93 -37 -90 -4 3 -8 -1 -8 -9 0 -8 -11 -31 -25 -52 -15 -20 -24 -40 -21 -42 6 -6 -40 -71 -63 -90 -13 -11 -13 -13 2 -13 18 0 23 -25 8 -34 -13 -8 -51 -175 -51 -224 0 -98 65 -229 159 -319 86 -82 263 -152 427 -168 88 -9 239 16 311 51 28 13 67 43 87 65 l37 40 29 -33 c33 -36 39 -25 14 24 -12 24 -13 30 -3 25 53 -21 54 -21 26 10 l-28 31 49 49 c59 59 78 119 69 224 -7 78 -45 229 -58 229 -5 0 -9 7 -9 15 0 8 7 15 16 15 14 0 15 2 3 16 -8 9 -30 46 -49 83 -20 36 -40 65 -46 64 -6 -1 -23 42 -38 97 -16 54 -38 120 -50 147 -43 91 -179 243 -251 281 -29 14 -123 22 -167 13z m192 -161 c14 -26 2 -75 -25 -100 -29 -27 -91 -36 -140 -20 -46 15 -105 66 -105 90 0 35 32 45 149 47 99 2 112 0 121 -17z m-100 -215 l23 -25 -31 0 c-30 0 -32 -2 -32 -37 l0 -38 -25 30 c-31 38 -31 44 3 72 34 28 34 28 62 -2z m-226 -114 c68 -16 126 -90 126 -163 0 -53 -37 -115 -85 -143 -59 -35 -115 -27 -166 24 -36 36 -69 116 -69 166 0 97 77 143 194 116z m470 -15 c18 -7 47 -31 64 -52 27 -32 32 -47 32 -90 0 -57 -22 -94 -70 -119 -42 -22 -51 -18 -13 5 64 39 85 105 55 174 -27 59 -66 80 -143 74 -67 -5 -94 -24 -110 -78 -15 -50 4 -115 46 -157 27 -27 41 -33 77 -34 32 0 38 -2 23 -9 -48 -20 -116 16 -145 75 -41 85 -15 187 55 215 31 13 92 11 129 -4z"/>
 <path d="M1040 1368 l-35 -11 40 -9 c50 -11 72 -4 55 17 -14 17 -13 17 -60 3z"/>
 <path d="M890 1355 c-22 -26 1 -37 60 -29 l53 7 -34 18 c-42 23 -63 23 -79 4z"/>
 <path d="M926 1301 c-10 -15 34 -40 85 -47 36 -5 49 -2 63 11 12 13 14 21 6 29 -14 14 -146 21 -154 7z"/>
 <path d="M685 1015 c-44 -23 -55 -43 -55 -97 0 -58 26 -115 70 -152 25 -20 42 -26 82 -26 43 0 54 4 83 33 72 72 68 165 -10 219 -51 36 -127 46 -170 23z"/>
 <path d="M516 1086 c-51 -105 -58 -125 -62 -181 l-5 -50 20 25 c23 27 36 81 27 105 -3 9 7 29 23 48 23 26 61 103 61 122 0 3 -6 5 -14 5 -8 0 -30 -33 -50 -74z"/>
 <path d="M1420 1156 c0 -19 35 -94 55 -118 17 -21 25 -41 25 -69 0 -22 8 -54 18 -72 l17 -32 3 47 c3 38 -5 64 -45 147 -26 56 -54 101 -60 101 -7 0 -13 -2 -13 -4z"/>
 </g>
<g id="layer113" fill="#6b5e58" stroke="none">
 <path d="M835 1988 c-2 -7 -11 -40 -19 -74 -9 -33 -23 -80 -31 -105 -9 -24 -23 -89 -31 -144 -14 -92 -14 -102 2 -138 18 -39 33 -35 34 8 0 13 19 33 53 55 51 34 54 35 157 35 102 0 106 -1 152 -32 26 -18 51 -33 56 -33 5 0 10 -6 9 -12 -1 -48 4 -52 24 -16 18 36 18 42 4 137 -8 54 -20 112 -26 127 -6 16 -21 67 -33 114 l-23 85 -51 3 c-57 3 -50 13 -71 -93 -10 -47 -9 -51 14 -68 14 -10 25 -25 25 -32 0 -16 -66 -75 -84 -75 -8 0 -31 19 -51 42 l-38 41 26 21 c26 21 26 22 12 70 -8 27 -15 60 -15 73 0 21 -4 23 -45 23 -28 0 -47 -5 -50 -12z"/>
 <path d="M938 1531 c-51 -11 -110 -54 -177 -129 -81 -91 -124 -167 -156 -276 -15 -52 -32 -93 -37 -90 -4 3 -8 -1 -8 -9 0 -8 -11 -31 -25 -52 -15 -20 -24 -40 -21 -42 6 -6 -40 -71 -63 -90 -13 -11 -13 -13 2 -13 18 0 23 -25 8 -34 -13 -8 -51 -175 -51 -224 0 -98 65 -229 159 -319 86 -82 263 -152 427 -168 88 -9 239 16 311 51 28 13 67 43 87 65 l37 40 29 -33 c33 -36 39 -25 14 24 -12 24 -13 30 -3 25 53 -21 54 -21 26 10 l-28 31 49 49 c59 59 78 119 69 224 -7 78 -45 229 -58 229 -5 0 -9 7 -9 15 0 8 7 15 16 15 14 0 15 2 3 16 -8 9 -30 46 -49 83 -20 36 -40 65 -46 64 -6 -1 -23 42 -38 97 -16 54 -38 120 -50 147 -43 91 -179 243 -251 281 -29 14 -123 22 -167 13z m192 -161 c14 -26 2 -75 -25 -100 -29 -27 -91 -36 -140 -20 -46 15 -105 66 -105 90 0 35 32 45 149 47 99 2 112 0 121 -17z m-100 -215 l23 -25 -31 0 c-30 0 -32 -2 -32 -37 l0 -38 -25 30 c-31 38 -31 44 3 72 34 28 34 28 62 -2z m-226 -114 c68 -16 126 -90 126 -163 0 -53 -37 -115 -85 -143 -59 -35 -115 -27 -166 24 -36 36 -69 116 -69 166 0 97 77 143 194 116z m470 -15 c18 -7 47 -31 64 -52 27 -32 32 -47 32 -90 0 -57 -22 -94 -70 -119 -42 -22 -51 -18 -13 5 64 39 85 105 55 174 -27 59 -66 80 -143 74 -67 -5 -94 -24 -110 -78 -15 -50 4 -115 46 -157 27 -27 41 -33 77 -34 32 0 38 -2 23 -9 -48 -20 -116 16 -145 75 -41 85 -15 187 55 215 31 13 92 11 129 -4z"/>
 <path d="M1025 1360 c-18 -8 -17 -9 8 -9 15 -1 27 4 27 9 0 12 -8 12 -35 0z"/>
 <path d="M926 1301 c-10 -15 34 -40 85 -47 36 -5 49 -2 63 11 12 13 14 21 6 29 -14 14 -146 21 -154 7z"/>
 <path d="M685 1015 c-44 -23 -55 -43 -55 -97 0 -58 26 -115 70 -152 25 -20 42 -26 82 -26 43 0 54 4 83 33 72 72 68 165 -10 219 -51 36 -127 46 -170 23z"/>
 <path d="M516 1086 c-51 -105 -58 -125 -62 -181 l-5 -50 20 25 c23 27 36 81 27 105 -3 9 7 29 23 48 23 26 61 103 61 122 0 3 -6 5 -14 5 -8 0 -30 -33 -50 -74z"/>
 <path d="M1420 1156 c0 -19 35 -94 55 -118 17 -21 25 -41 25 -69 0 -22 8 -54 18 -72 l17 -32 3 47 c3 38 -5 64 -45 147 -26 56 -54 101 -60 101 -7 0 -13 -2 -13 -4z"/>
 </g>
<g id="layer114" fill="#93624b" stroke="none">
 <path d="M837 1993 c-4 -3 -7 -14 -7 -23 0 -10 -14 -62 -30 -116 -17 -55 -38 -141 -46 -194 -14 -87 -14 -97 2 -132 18 -40 33 -36 34 7 0 13 19 33 53 55 51 34 54 35 157 35 102 0 106 -1 152 -32 26 -18 51 -33 56 -33 5 0 10 -6 9 -12 -1 -48 4 -52 23 -16 18 34 19 44 9 110 -6 40 -21 107 -32 148 -11 41 -28 104 -37 140 l-18 65 -49 3 -50 3 -12 -57 c-15 -79 -14 -97 9 -112 11 -7 20 -18 20 -25 0 -18 -62 -77 -81 -77 -8 0 -33 18 -54 41 l-40 41 26 20 25 19 -14 62 c-8 34 -16 68 -18 75 -4 13 -75 17 -87 5z"/>
 <path d="M938 1531 c-51 -11 -110 -54 -177 -129 -81 -91 -124 -167 -156 -276 -15 -52 -32 -93 -37 -90 -4 3 -8 -1 -8 -9 0 -8 -11 -31 -25 -52 -15 -20 -24 -40 -21 -42 6 -6 -40 -71 -63 -90 -13 -11 -13 -13 2 -13 18 0 23 -25 8 -34 -13 -8 -51 -175 -51 -224 0 -98 65 -229 159 -319 86 -82 263 -152 427 -168 88 -9 239 16 311 51 28 13 67 43 87 65 l37 40 29 -33 c33 -36 39 -25 14 24 -12 24 -13 30 -3 25 53 -21 54 -21 26 10 l-28 31 49 49 c59 59 78 119 69 224 -7 78 -45 229 -58 229 -5 0 -9 7 -9 15 0 8 7 15 16 15 14 0 15 2 3 16 -8 9 -30 46 -49 83 -20 36 -40 65 -46 64 -6 -1 -23 42 -38 97 -16 54 -38 120 -50 147 -43 91 -179 243 -251 281 -29 14 -123 22 -167 13z m193 -162 c27 -52 -32 -129 -99 -129 -59 0 -109 18 -142 51 -33 34 -37 54 -16 78 12 13 39 16 130 18 107 2 117 0 127 -18z m-101 -214 l23 -25 -31 0 c-30 0 -32 -2 -32 -37 l0 -38 -25 30 c-31 38 -31 44 3 72 34 28 34 28 62 -2z m-176 -134 c41 -26 76 -92 76 -145 0 -90 -88 -174 -167 -160 -62 11 -87 29 -117 83 -52 96 -41 205 24 239 37 19 140 10 184 -17z m435 -2 c57 -31 81 -75 81 -143 0 -51 -4 -61 -28 -84 -45 -42 -118 -64 -167 -51 -50 14 -62 23 -86 70 -24 48 -25 130 -2 170 35 58 133 77 202 38z"/>
 <path d="M1025 1360 c-18 -8 -17 -9 8 -9 15 -1 27 4 27 9 0 12 -8 12 -35 0z"/>
 <path d="M937 1301 c-26 -10 -5 -26 56 -43 51 -13 79 -5 85 24 4 23 -97 37 -141 19z"/>
 <path d="M708 1023 c-97 -16 -102 -177 -9 -256 60 -50 160 -26 198 46 23 44 21 111 -3 144 -36 48 -119 77 -186 66z"/>
 <path d="M1154 1010 c-37 -12 -48 -23 -63 -70 -17 -52 9 -131 52 -162 38 -28 111 -30 147 -5 76 53 81 180 8 226 -27 17 -106 22 -144 11z"/>
 <path d="M516 1086 c-51 -105 -58 -125 -62 -181 l-5 -50 20 25 c23 27 36 81 27 105 -3 9 7 29 23 48 23 26 61 103 61 122 0 3 -6 5 -14 5 -8 0 -30 -33 -50 -74z"/>
 <path d="M1420 1156 c0 -19 35 -94 55 -118 17 -21 25 -41 25 -69 0 -22 8 -54 18 -72 l17 -32 3 47 c3 38 -5 64 -45 147 -26 56 -54 101 -60 101 -7 0 -13 -2 -13 -4z"/>
 </g>
<g id="layer115" fill="#9e7065" stroke="none">
 <path d="M837 1993 c-4 -3 -7 -14 -7 -23 0 -10 -14 -62 -30 -116 -17 -55 -38 -142 -46 -196 -15 -92 -15 -98 4 -134 l19 -37 13 54 c18 77 32 94 104 129 94 45 97 53 50 101 l-39 41 26 20 25 19 -14 62 c-8 34 -16 68 -18 75 -4 13 -75 17 -87 5z"/>
 <path d="M1051 1944 c-15 -79 -14 -97 9 -112 28 -17 25 -31 -16 -73 l-37 -38 52 -28 c142 -76 160 -96 161 -166 l1 -32 19 37 c18 34 19 44 9 110 -6 40 -21 107 -32 148 -11 41 -28 104 -37 140 l-18 65 -49 3 -50 3 -12 -57z"/>
 <path d="M1030 1360 c-12 -8 -11 -10 8 -10 12 0 22 5 22 10 0 13 -11 13 -30 0z"/>
 <path d="M937 1301 c-26 -10 -5 -26 56 -43 51 -13 79 -5 85 24 4 23 -97 37 -141 19z"/>
 <path d="M708 1023 c-97 -16 -102 -177 -9 -256 60 -50 160 -26 198 46 23 44 21 111 -3 144 -36 48 -119 77 -186 66z"/>
 <path d="M542 980 c-68 -144 -112 -268 -121 -340 -8 -61 -8 -120 1 -120 5 0 7 -4 4 -9 -9 -14 25 -102 60 -157 42 -65 134 -148 199 -179 131 -62 187 -75 343 -82 169 -8 300 32 370 111 l31 35 24 -19 c35 -28 40 -25 21 11 -16 31 -15 32 5 26 25 -6 27 0 4 25 -16 18 -15 20 20 49 58 48 68 76 70 200 1 60 -1 109 -5 109 -4 0 -5 14 -1 32 4 22 3 29 -5 24 -8 -4 -10 -2 -6 7 3 8 1 18 -5 21 -6 4 -8 13 -4 21 3 8 0 15 -7 15 -6 0 -8 5 -4 11 3 6 2 14 -3 18 -13 8 -67 151 -59 158 7 7 -12 43 -24 43 -4 0 -11 -13 -15 -30 -4 -16 -10 -30 -14 -30 -4 0 -7 -8 -8 -17 -1 -10 -17 -81 -37 -158 -20 -77 -39 -165 -42 -196 l-7 -56 -81 34 c-165 70 -362 109 -502 99 l-92 -6 -10 30 c-6 16 -8 30 -5 30 3 0 0 7 -7 15 -7 8 -9 15 -5 15 4 0 2 6 -4 14 -12 14 -5 46 9 46 5 0 12 -4 15 -10 3 -5 12 -10 18 -10 7 1 1 10 -12 20 -24 21 -47 27 -36 11 3 -5 1 -12 -3 -15 -11 -7 -25 101 -16 116 4 6 2 13 -3 17 -5 3 -14 31 -19 61 l-10 55 -22 -45z"/>
 <path d="M1154 1010 c-37 -12 -48 -23 -63 -70 -17 -52 9 -131 52 -162 38 -28 111 -30 147 -5 76 53 81 180 8 226 -27 17 -106 22 -144 11z"/>
 <path d="M1290 759 c-36 -15 -56 -28 -45 -29 21 0 125 45 125 55 0 8 -11 5 -80 -26z"/>
 <path d="M859 739 c-22 -18 -22 -20 -4 -15 11 2 32 7 48 10 15 4 27 11 27 16 0 18 -47 11 -71 -11z"/>
 <path d="M1070 751 c0 -13 24 -20 88 -27 64 -7 62 6 -4 24 -49 14 -84 15 -84 3z"/>
 <path d="M1582 530 c0 -19 2 -27 5 -17 2 9 2 25 0 35 -3 9 -5 1 -5 -18z"/>
 </g>
<g id="layer116" fill="#c69a6f" stroke="none">
 <path d="M830 1958 c-6 -24 -24 -88 -40 -143 -15 -55 -33 -135 -39 -177 -11 -70 -10 -80 7 -114 l19 -37 7 44 c10 66 38 104 98 134 29 14 64 34 78 45 l25 19 -40 41 -40 42 26 20 25 19 -14 62 c-8 34 -16 68 -18 75 -2 7 -20 12 -43 12 -39 0 -41 -1 -51 -42z"/>
 <path d="M1049 1930 c-12 -67 -11 -71 9 -93 29 -30 28 -35 -10 -74 -38 -40 -33 -49 55 -91 81 -39 108 -69 115 -128 l5 -47 19 36 c16 32 17 44 7 109 -6 40 -24 118 -40 173 -15 55 -33 119 -39 143 l-11 42 -48 0 -49 0 -13 -70z"/>
 <path d="M1030 1360 c-12 -8 -11 -10 8 -10 12 0 22 5 22 10 0 13 -11 13 -30 0z"/>
 <path d="M935 1301 c-18 -7 -17 -9 13 -25 59 -31 159 -19 125 15 -13 13 -112 21 -138 10z"/>
 <path d="M708 1022 c-68 -9 -98 -102 -59 -187 40 -89 123 -120 198 -74 89 55 84 199 -8 241 -38 18 -91 26 -131 20z"/>
 <path d="M548 995 c-17 -34 -85 -202 -100 -249 -5 -17 -12 -47 -14 -66 -3 -19 -9 -50 -15 -68 -6 -18 -8 -45 -4 -60 4 -15 9 -39 11 -54 4 -29 56 -132 82 -160 8 -10 12 -18 8 -18 -14 0 70 -72 128 -111 72 -48 145 -76 261 -100 110 -23 202 -24 303 -3 87 18 146 48 189 98 22 24 35 31 44 25 23 -14 32 -10 26 11 -3 13 0 20 9 20 17 0 18 12 2 28 -10 10 -6 18 20 38 58 45 75 94 72 203 -2 95 -6 151 -11 161 -1 3 -3 10 -4 15 -1 6 -7 23 -14 38 -6 16 -9 32 -6 37 3 5 1 10 -3 12 -12 4 -66 148 -58 155 7 7 -12 43 -24 43 -4 0 -11 -13 -15 -30 -4 -16 -10 -30 -14 -30 -4 0 -7 -8 -8 -17 -1 -10 -17 -81 -37 -158 -20 -77 -39 -165 -42 -196 l-7 -56 -81 34 c-165 70 -362 109 -502 99 l-92 -6 -10 30 c-6 16 -8 30 -5 30 3 0 0 7 -7 15 -7 8 -9 15 -5 15 4 0 2 7 -5 15 -6 8 -9 18 -6 24 3 5 2 11 -4 13 -5 1 -11 32 -12 68 -2 36 -6 67 -9 70 -3 3 -10 30 -15 60 l-10 55 -16 -30z"/>
 <path d="M1155 1010 c-38 -12 -65 -56 -65 -108 0 -52 11 -80 45 -114 36 -36 80 -44 133 -23 53 22 82 67 82 129 0 38 -6 52 -32 81 -27 30 -41 36 -83 40 -27 2 -64 0 -80 -5z"/>
 <path d="M1310 764 c-25 -13 -34 -22 -20 -18 45 12 101 45 73 44 -5 -1 -28 -12 -53 -26z"/>
 <path d="M866 745 c-19 -14 -19 -15 5 -15 14 0 34 7 45 15 18 14 18 14 -6 14 -14 0 -34 -6 -44 -14z"/>
 <path d="M1084 745 c11 -9 40 -15 65 -14 l46 0 -45 15 c-25 7 -54 14 -65 14 -20 -1 -20 -1 -1 -15z"/>
 <path d="M1582 530 c0 -19 2 -27 5 -17 2 9 2 25 0 35 -3 9 -5 1 -5 -18z"/>
 </g>
<g id="layer117" fill="#5bbbd5" stroke="none">
 <path d="M830 1958 c-6 -24 -24 -88 -40 -143 -15 -55 -33 -135 -39 -177 -11 -69 -10 -80 6 -113 l19 -36 12 59 c13 65 32 87 102 121 25 12 56 31 70 41 l25 19 -40 41 -40 42 26 20 25 19 -14 62 c-8 34 -16 68 -18 75 -2 7 -20 12 -43 12 -39 0 -41 -1 -51 -42z"/>
 <path d="M1049 1930 c-12 -67 -11 -71 9 -93 28 -30 28 -35 -9 -73 -17 -18 -28 -37 -24 -43 3 -6 37 -27 73 -45 87 -44 113 -72 120 -132 l5 -47 19 36 c16 32 17 44 7 109 -6 40 -24 118 -40 173 -15 55 -33 119 -39 143 l-11 42 -48 0 -49 0 -13 -70z"/>
 <path d="M935 1301 c-18 -7 -17 -9 13 -25 59 -31 159 -19 125 15 -13 13 -112 21 -138 10z"/>
 <path d="M708 1022 c-68 -9 -98 -102 -59 -187 40 -89 123 -120 198 -74 89 55 84 199 -8 241 -38 18 -91 26 -131 20z"/>
 <path d="M1155 1010 c-38 -12 -65 -56 -65 -108 0 -52 11 -80 45 -114 36 -36 80 -44 133 -23 53 22 82 67 82 129 0 38 -6 52 -32 81 -27 30 -41 36 -83 40 -27 2 -64 0 -80 -5z"/>
 <path d="M543 967 c-13 -21 -23 -44 -23 -52 0 -8 -4 -17 -10 -20 -5 -3 -10 -12 -10 -20 0 -8 -5 -26 -12 -42 -6 -15 -11 -31 -10 -35 1 -4 -3 -20 -10 -35 -6 -15 -10 -32 -9 -37 1 -4 -3 -14 -10 -22 -6 -7 -8 -18 -4 -24 4 -6 2 -17 -4 -24 -6 -7 -9 -21 -5 -30 3 -9 1 -23 -6 -31 -11 -13 -11 -20 0 -39 7 -13 9 -29 5 -35 -4 -7 -1 -18 5 -26 6 -8 9 -19 5 -25 -4 -6 1 -17 11 -24 9 -7 18 -24 20 -37 1 -13 3 -27 3 -32 1 -4 7 -6 14 -5 6 2 12 -6 12 -17 0 -11 7 -20 15 -20 8 0 15 -8 15 -17 0 -31 89 -110 126 -112 11 -1 19 -5 20 -11 1 -15 42 -35 61 -29 9 3 21 -3 26 -12 6 -11 24 -18 48 -20 22 -1 41 -3 44 -4 3 -1 9 -2 14 -1 4 1 14 -3 22 -10 7 -6 18 -8 24 -4 6 4 17 2 24 -5 8 -6 25 -8 39 -5 14 4 28 2 31 -4 9 -14 73 -14 81 0 4 6 22 8 45 4 23 -4 41 -2 45 4 3 6 17 8 31 5 16 -4 31 -1 44 11 10 9 23 14 29 10 12 -7 38 5 43 20 2 6 9 9 15 9 7 -1 10 2 7 7 -3 5 6 13 21 19 14 5 30 21 35 35 5 14 15 25 21 25 6 0 9 7 6 15 -5 12 -2 12 19 3 33 -15 44 -1 17 22 -24 19 -21 30 7 30 20 0 45 26 45 46 0 8 4 13 9 13 15 -1 25 25 20 47 -3 12 -1 25 5 28 14 9 14 143 1 151 -6 4 -10 14 -9 23 1 10 0 24 -4 32 -10 26 -50 164 -52 180 -1 8 -7 26 -12 40 -6 14 -14 40 -18 58 -3 17 -10 32 -14 32 -4 0 -16 -27 -26 -60 -10 -34 -22 -63 -26 -66 -5 -2 -6 -11 -3 -18 3 -8 0 -17 -5 -21 -6 -3 -9 -11 -6 -16 4 -5 3 -14 -1 -21 -4 -7 -9 -28 -11 -47 -2 -19 -8 -40 -13 -46 -6 -7 -7 -15 -3 -18 3 -4 0 -13 -6 -21 -7 -9 -13 -50 -14 -98 -2 -81 -2 -82 -17 -53 -11 23 -30 35 -80 54 -36 13 -78 29 -95 37 -16 7 -33 10 -38 7 -4 -2 -14 1 -22 7 -8 6 -19 9 -25 5 -6 -4 -17 -1 -25 5 -8 6 -19 9 -25 5 -6 -4 -17 -1 -25 5 -8 6 -19 9 -25 5 -6 -4 -17 -1 -25 5 -8 7 -26 9 -44 5 -17 -3 -32 -2 -36 4 -8 14 -112 14 -121 0 -4 -6 -20 -8 -39 -5 -19 4 -36 2 -40 -4 -3 -5 -14 -10 -23 -9 -15 0 -15 1 -1 11 14 10 13 18 -8 77 -14 36 -27 86 -29 111 -2 25 -10 79 -17 120 l-12 75 -22 -38z"/>
 <path d="M865 744 c-19 -15 -18 -16 15 -9 44 9 63 25 30 25 -14 0 -34 -8 -45 -16z"/>
 <path d="M1075 752 c6 -6 30 -14 55 -17 56 -8 34 10 -25 20 -28 5 -37 4 -30 -3z"/>
 <path d="M1434 238 c-3 -4 -3 -8 0 -8 2 0 11 -3 20 -6 10 -4 16 -1 16 8 0 16 -27 20 -36 6z"/>
 </g>
<g id="layer118" fill="#cea57c" stroke="none">
 <path d="M830 1958 c-6 -24 -24 -88 -40 -143 -15 -55 -33 -135 -39 -177 -11 -69 -10 -80 6 -113 l19 -36 12 59 c13 65 32 87 102 121 25 12 56 31 70 41 l25 19 -40 41 -40 42 26 20 25 19 -14 62 c-8 34 -16 68 -18 75 -2 7 -20 12 -43 12 -39 0 -41 -1 -51 -42z"/>
 <path d="M1049 1930 c-12 -67 -11 -71 9 -93 28 -30 28 -35 -9 -73 -17 -18 -28 -37 -24 -43 3 -6 37 -27 73 -45 87 -44 113 -72 120 -132 l5 -47 19 36 c16 32 17 44 7 109 -6 40 -24 118 -40 173 -15 55 -33 119 -39 143 l-11 42 -48 0 -49 0 -13 -70z"/>
 <path d="M935 1301 c-18 -7 -17 -9 13 -25 59 -31 159 -19 125 15 -13 13 -112 21 -138 10z"/>
 <path d="M708 1022 c-68 -9 -98 -102 -59 -187 40 -89 123 -120 198 -74 89 55 84 199 -8 241 -38 18 -91 26 -131 20z m102 -137 c25 -30 -9 -63 -54 -51 -28 7 -41 33 -25 52 15 18 63 18 79 -1z"/>
 <path d="M1155 1010 c-38 -12 -65 -56 -65 -108 0 -52 11 -80 45 -114 36 -36 80 -44 133 -23 53 22 82 67 82 129 0 38 -6 52 -32 81 -27 30 -41 36 -83 40 -27 2 -64 0 -80 -5z m83 -122 c31 -31 -9 -71 -53 -54 -15 5 -21 47 -8 59 11 11 48 8 61 -5z"/>
 <path d="M543 967 c-13 -21 -23 -44 -23 -52 0 -8 -4 -17 -10 -20 -5 -3 -10 -12 -10 -20 0 -8 -5 -26 -12 -42 -6 -15 -11 -31 -10 -35 1 -4 -3 -20 -10 -35 -6 -15 -10 -32 -9 -37 1 -4 -3 -14 -10 -22 -6 -7 -8 -18 -4 -24 4 -6 2 -17 -4 -24 -6 -7 -9 -21 -5 -30 3 -9 1 -23 -6 -31 -11 -13 -11 -20 0 -39 7 -13 9 -29 5 -35 -4 -7 -1 -18 5 -26 6 -8 9 -19 5 -25 -4 -6 1 -17 11 -24 9 -7 18 -24 20 -37 1 -13 3 -27 3 -32 1 -4 7 -6 14 -5 6 2 12 -6 12 -17 0 -11 7 -20 15 -20 8 0 15 -8 15 -17 0 -31 89 -110 126 -112 11 -1 19 -5 20 -11 1 -15 42 -35 61 -29 9 3 21 -3 26 -12 6 -11 24 -18 48 -20 22 -1 41 -3 44 -4 3 -1 9 -2 14 -1 4 1 14 -3 22 -10 7 -6 18 -8 24 -4 6 4 17 2 24 -5 8 -6 25 -8 39 -5 14 4 28 2 31 -4 9 -14 73 -14 81 0 4 6 22 8 45 4 23 -4 41 -2 45 4 3 6 17 8 31 5 16 -4 31 -1 44 11 10 9 23 14 29 10 12 -7 38 5 43 20 2 6 9 9 15 9 7 -1 10 2 7 7 -3 5 6 13 21 19 14 5 30 21 35 35 5 14 15 25 21 25 6 0 9 7 6 15 -5 12 -2 12 19 3 33 -15 44 -1 17 22 -24 19 -21 30 7 30 20 0 45 26 45 46 0 8 4 13 9 13 15 -1 25 25 20 47 -3 12 -1 25 5 28 14 9 14 143 1 151 -6 4 -10 14 -9 23 1 10 0 24 -4 32 -10 26 -50 164 -52 180 -1 8 -7 26 -12 40 -6 14 -14 40 -18 58 -3 17 -10 32 -14 32 -4 0 -16 -27 -26 -60 -10 -34 -22 -63 -26 -66 -5 -2 -6 -11 -3 -18 3 -8 0 -17 -5 -21 -6 -3 -9 -11 -6 -16 4 -5 3 -14 -1 -21 -4 -7 -9 -28 -11 -47 -2 -19 -8 -40 -13 -46 -6 -7 -7 -15 -3 -18 3 -4 0 -13 -6 -21 -7 -9 -13 -50 -14 -98 -2 -81 -2 -82 -17 -53 -11 23 -30 35 -80 54 -36 13 -78 29 -95 37 -16 7 -33 10 -38 7 -4 -2 -14 1 -22 7 -8 6 -19 9 -25 5 -6 -4 -17 -1 -25 5 -8 6 -19 9 -25 5 -6 -4 -17 -1 -25 5 -8 6 -19 9 -25 5 -6 -4 -17 -1 -25 5 -8 7 -26 9 -44 5 -17 -3 -32 -2 -36 4 -8 14 -112 14 -121 0 -4 -6 -20 -8 -39 -5 -19 4 -36 2 -40 -4 -3 -5 -14 -10 -23 -9 -15 0 -15 1 -1 11 14 10 13 18 -8 77 -14 36 -27 86 -29 111 -2 25 -10 79 -17 120 l-12 75 -22 -38z"/>
 <path d="M865 744 c-19 -15 -18 -16 15 -9 44 9 63 25 30 25 -14 0 -34 -8 -45 -16z"/>
 <path d="M1075 752 c6 -6 30 -14 55 -17 56 -8 34 10 -25 20 -28 5 -37 4 -30 -3z"/>
 <path d="M1434 238 c-3 -4 -3 -8 0 -8 2 0 11 -3 20 -6 10 -4 16 -1 16 8 0 16 -27 20 -36 6z"/>
 </g>
<g id="layer119" fill="#dcba99" stroke="none">
 <path d="M830 1958 c-6 -24 -24 -88 -40 -143 -15 -55 -33 -135 -39 -177 -11 -69 -10 -80 6 -113 l19 -36 12 59 c13 65 32 87 102 121 25 12 56 31 70 41 l25 19 -40 41 -40 42 26 20 25 19 -14 62 c-8 34 -16 68 -18 75 -2 7 -20 12 -43 12 -39 0 -41 -1 -51 -42z"/>
 <path d="M1049 1930 c-12 -67 -11 -71 9 -93 28 -30 28 -35 -9 -73 -17 -18 -28 -37 -24 -43 3 -6 37 -27 73 -45 87 -44 113 -72 120 -132 l5 -47 19 36 c16 32 17 44 7 109 -6 40 -24 118 -40 173 -15 55 -33 119 -39 143 l-11 42 -48 0 -49 0 -13 -70z"/>
 <path d="M935 1301 c-18 -7 -17 -9 13 -25 59 -31 159 -19 125 15 -13 13 -112 21 -138 10z"/>
 <path d="M708 1022 c-68 -9 -98 -102 -59 -187 40 -89 123 -120 198 -74 89 55 84 199 -8 241 -38 18 -91 26 -131 20z m102 -137 c25 -30 -9 -63 -54 -51 -28 7 -41 33 -25 52 15 18 63 18 79 -1z"/>
 <path d="M1155 1010 c-38 -12 -65 -56 -65 -108 0 -52 11 -80 45 -114 36 -36 80 -44 133 -23 53 22 82 67 82 129 0 38 -6 52 -32 81 -27 30 -41 36 -83 40 -27 2 -64 0 -80 -5z m83 -122 c31 -31 -9 -71 -53 -54 -15 5 -21 47 -8 59 11 11 48 8 61 -5z"/>
 <path d="M544 785 l-19 -100 -5 80 -5 80 -22 -60 c-11 -33 -26 -76 -32 -95 -14 -48 -29 -180 -20 -185 4 -3 10 -17 14 -32 3 -16 20 -50 36 -76 16 -26 26 -53 23 -59 -4 -6 -3 -8 3 -5 13 8 37 -18 29 -31 -7 -11 38 -55 47 -46 8 9 38 -16 32 -26 -3 -4 3 -7 13 -6 9 0 16 -5 14 -12 -1 -8 2 -11 7 -7 6 3 32 -5 59 -19 26 -13 75 -32 107 -41 33 -9 67 -19 75 -22 8 -4 19 -5 24 -4 5 1 16 -1 25 -4 22 -9 202 -9 224 0 9 4 24 5 32 2 8 -4 17 -2 20 4 4 5 12 9 18 7 7 -1 31 8 55 20 23 13 47 20 53 17 5 -4 8 -3 7 2 -3 11 62 83 75 83 4 0 5 -5 1 -12 -5 -7 -3 -8 5 -3 9 5 10 10 2 18 -18 18 -13 30 10 24 16 -4 18 -3 9 8 -15 18 -5 35 19 35 22 0 44 24 48 53 2 12 6 67 9 122 4 90 2 111 -25 205 l-29 105 -2 -90 -2 -90 -14 90 c-22 147 -24 149 -43 80 -10 -33 -32 -93 -50 -133 -30 -67 -32 -81 -29 -157 3 -85 -4 -103 -16 -40 -7 37 -37 58 -121 85 -22 7 -44 15 -50 18 -5 3 -23 7 -39 9 -17 2 -34 7 -39 12 -5 5 -16 7 -23 4 -8 -3 -20 0 -28 6 -7 6 -16 8 -19 5 -3 -4 -14 -3 -24 1 -10 4 -28 7 -40 6 -11 -1 -24 2 -27 8 -4 6 -20 8 -37 4 -17 -3 -41 0 -55 7 -20 11 -28 11 -48 0 -13 -7 -41 -10 -63 -8 -21 3 -45 1 -53 -3 -22 -11 -153 -40 -158 -34 -2 2 29 14 70 26 l75 22 -29 62 c-16 35 -35 91 -42 126 l-13 64 -19 -100z m554 -239 c46 -15 82 -29 79 -32 -2 -2 -22 2 -44 10 -72 25 -156 39 -293 46 l-135 8 155 -3 c137 -2 165 -5 238 -29z m289 -38 c-2 -13 -4 -3 -4 22 0 25 2 35 4 23 2 -13 2 -33 0 -45z m-364 -25 c-13 -2 -33 -2 -45 0 -13 2 -3 4 22 4 25 0 35 -2 23 -4z m-282 -39 c24 -8 85 -24 134 -34 50 -10 79 -19 65 -19 -38 -1 -195 36 -227 53 -36 20 -26 20 28 0z m550 -198 c-18 -21 -122 -64 -171 -71 -38 -5 -34 -3 20 12 36 10 85 30 110 45 54 31 56 32 41 14z m-421 -10 c25 -8 36 -15 25 -15 -11 0 -33 6 -50 14 -39 18 -31 18 25 1z"/>
 <path d="M883 750 c-13 -5 -23 -11 -23 -13 0 -8 50 5 56 14 6 11 -4 11 -33 -1z"/>
 <path d="M1085 752 c6 -6 26 -13 45 -16 23 -5 30 -4 20 2 -23 14 -77 25 -65 14z"/>
 </g>
<g id="layer120" fill="#d9c2a8" stroke="none">
 <path d="M830 1958 c-6 -24 -24 -88 -40 -143 -15 -55 -33 -135 -39 -177 -11 -69 -10 -80 6 -113 l19 -36 12 59 c13 65 32 87 102 121 25 12 56 31 70 41 l25 19 -40 41 -40 42 26 20 25 19 -14 62 c-8 34 -16 68 -18 75 -2 7 -20 12 -43 12 -39 0 -41 -1 -51 -42z"/>
 <path d="M1049 1930 c-12 -67 -11 -71 9 -93 28 -30 28 -35 -9 -73 -17 -18 -28 -37 -24 -43 3 -6 37 -27 73 -45 87 -44 113 -72 120 -132 l5 -47 19 36 c16 32 17 44 7 109 -6 40 -24 118 -40 173 -15 55 -33 119 -39 143 l-11 42 -48 0 -49 0 -13 -70z"/>
 <path d="M935 1301 c-18 -7 -17 -9 13 -25 59 -31 159 -19 125 15 -13 13 -112 21 -138 10z"/>
 <path d="M708 1022 c-68 -9 -98 -102 -59 -187 40 -89 123 -120 198 -74 89 55 84 199 -8 241 -38 18 -91 26 -131 20z m102 -137 c25 -30 -9 -63 -54 -51 -28 7 -41 33 -25 52 15 18 63 18 79 -1z"/>
 <path d="M1155 1010 c-38 -12 -65 -56 -65 -108 0 -52 11 -80 45 -114 36 -36 80 -44 133 -23 53 22 82 67 82 129 0 38 -6 52 -32 81 -27 30 -41 36 -83 40 -27 2 -64 0 -80 -5z m83 -122 c31 -31 -9 -71 -53 -54 -15 5 -21 47 -8 59 11 11 48 8 61 -5z"/>
 <path d="M460 684 c0 -3 -5 -36 -11 -74 -7 -50 -7 -80 1 -112 12 -44 58 -133 66 -125 2 2 -8 26 -23 53 -26 45 -28 58 -28 157 0 59 -1 107 -2 107 -2 0 -3 -3 -3 -6z"/>
 <path d="M1502 653 c6 -21 8 -75 6 -120 -3 -65 -10 -94 -34 -142 -17 -34 -27 -61 -23 -61 16 0 70 129 76 181 5 55 -11 164 -27 174 -5 3 -4 -12 2 -32z"/>
 <path d="M690 224 c0 -9 124 -65 188 -84 123 -37 309 -16 388 45 11 9 -11 4 -51 -11 -134 -50 -283 -43 -442 20 -45 18 -83 32 -83 30z"/>
 </g>
<g id="layer121" fill="#e5caae" stroke="none">
 <path d="M830 1958 c-6 -24 -24 -88 -40 -143 -15 -55 -33 -135 -39 -177 -11 -69 -10 -80 6 -113 l19 -36 12 59 c13 65 32 87 102 121 25 12 56 31 70 41 l25 19 -40 41 -40 42 26 20 25 19 -14 62 c-8 34 -16 68 -18 75 -2 7 -20 12 -43 12 -39 0 -41 -1 -51 -42z"/>
 <path d="M1049 1930 c-12 -67 -11 -71 9 -93 28 -30 28 -35 -9 -73 -17 -18 -28 -37 -24 -43 3 -6 37 -27 73 -45 87 -44 113 -72 120 -132 l5 -47 19 36 c16 32 17 44 7 109 -6 40 -24 118 -40 173 -15 55 -33 119 -39 143 l-11 42 -48 0 -49 0 -13 -70z"/>
 <path d="M935 1301 c-18 -7 -17 -9 13 -25 59 -31 159 -19 125 15 -13 13 -112 21 -138 10z"/>
 <path d="M708 1022 c-68 -9 -98 -102 -59 -187 40 -89 123 -120 198 -74 89 55 84 199 -8 241 -38 18 -91 26 -131 20z m102 -137 c25 -30 -9 -63 -54 -51 -28 7 -41 33 -25 52 15 18 63 18 79 -1z"/>
 <path d="M1155 1010 c-38 -12 -65 -56 -65 -108 0 -52 11 -80 45 -114 36 -36 80 -44 133 -23 53 22 82 67 82 129 0 38 -6 52 -32 81 -27 30 -41 36 -83 40 -27 2 -64 0 -80 -5z m83 -122 c31 -31 -9 -71 -53 -54 -15 5 -21 47 -8 59 11 11 48 8 61 -5z"/>
 <path d="M453 610 c0 -25 2 -35 4 -22 2 12 2 32 0 45 -2 12 -4 2 -4 -23z"/>
 <path d="M1511 558 c-1 -60 -7 -104 -20 -138 -23 -61 -17 -66 9 -7 23 52 33 150 21 197 -7 29 -9 20 -10 -52z"/>
 <path d="M450 550 c-6 -42 26 -140 52 -156 5 -3 0 13 -12 37 -12 23 -26 63 -30 88 -4 25 -9 39 -10 31z"/>
 <path d="M762 186 c81 -44 191 -69 282 -64 78 5 188 35 210 59 6 6 -14 0 -44 -12 -47 -20 -72 -23 -180 -23 -108 0 -135 3 -200 26 -41 14 -84 29 -95 32 -11 4 1 -4 27 -18z"/>
 </g>
<g id="layer122" fill="#d7d5db" stroke="none">
 <path d="M830 1958 c-6 -24 -24 -88 -40 -143 -15 -55 -33 -135 -39 -177 -11 -69 -10 -80 6 -113 l19 -36 12 59 c13 65 32 87 102 121 25 12 56 31 70 41 l25 19 -40 41 -40 42 26 20 25 19 -14 62 c-8 34 -16 68 -18 75 -2 7 -20 12 -43 12 -39 0 -41 -1 -51 -42z"/>
 <path d="M1049 1930 c-12 -67 -11 -71 9 -93 28 -30 28 -35 -9 -73 -17 -18 -28 -37 -24 -43 3 -6 37 -27 73 -45 87 -44 113 -72 120 -132 l5 -47 19 36 c16 32 17 44 7 109 -6 40 -24 118 -40 173 -15 55 -33 119 -39 143 l-11 42 -48 0 -49 0 -13 -70z"/>
 <path d="M935 1301 c-18 -7 -17 -9 13 -25 59 -31 159 -19 125 15 -13 13 -112 21 -138 10z"/>
 <path d="M708 1022 c-68 -9 -98 -102 -59 -187 40 -89 123 -120 198 -74 89 55 84 199 -8 241 -38 18 -91 26 -131 20z m102 -137 c25 -30 -9 -63 -54 -51 -28 7 -41 33 -25 52 15 18 63 18 79 -1z"/>
 <path d="M1155 1010 c-38 -12 -65 -56 -65 -108 0 -52 11 -80 45 -114 36 -36 80 -44 133 -23 53 22 82 67 82 129 0 38 -6 52 -32 81 -27 30 -41 36 -83 40 -27 2 -64 0 -80 -5z m83 -122 c31 -31 -9 -71 -53 -54 -15 5 -21 47 -8 59 11 11 48 8 61 -5z"/>
 </g>
<g id="layer123" fill="#f8f8f7" stroke="none">
 <path d="M837 1973 c-5 -26 14 -74 50 -130 14 -21 17 -22 44 -7 23 11 27 19 21 32 -5 9 -14 43 -21 75 l-12 57 -39 0 c-33 0 -38 -3 -43 -27z"/>
 <path d="M1060 1993 c0 -5 -5 -37 -10 -72 -10 -61 -10 -64 14 -86 l26 -24 18 27 c39 54 60 107 55 135 -5 25 -9 27 -54 27 -27 0 -49 -3 -49 -7z"/>
 <path d="M826 1900 c-16 -43 -59 -193 -71 -249 -12 -58 -11 -67 5 -105 10 -22 19 -34 20 -26 9 95 18 114 73 141 23 12 58 32 78 45 l37 23 -39 41 c-22 23 -52 64 -69 93 -19 33 -31 46 -34 37z"/>
 <path d="M1140 1864 c-13 -25 -43 -66 -67 -91 -24 -24 -43 -46 -43 -48 0 -2 33 -20 74 -39 77 -37 107 -68 120 -121 l8 -30 13 25 c10 20 11 38 3 75 -9 48 -76 275 -81 275 -1 0 -13 -21 -27 -46z"/>
 <path d="M972 1300 l-53 -5 33 -17 c46 -23 76 -28 104 -18 57 22 1 48 -84 40z"/>
 <path d="M700 1016 c-49 -17 -74 -69 -64 -132 9 -60 69 -130 119 -140 50 -9 119 25 140 70 40 83 -10 186 -95 200 -21 3 -44 8 -52 10 -7 3 -29 -1 -48 -8z m118 -155 c-3 -28 -24 -37 -63 -27 -33 8 -41 37 -15 58 17 14 26 15 51 6 25 -8 30 -15 27 -37z"/>
 <path d="M1154 1008 c-61 -16 -82 -112 -43 -186 25 -46 53 -62 109 -62 75 0 114 34 126 108 16 100 -80 170 -192 140z m80 -114 c23 -9 20 -47 -5 -62 -17 -11 -25 -11 -45 3 -27 18 -28 19 -14 46 11 19 35 24 64 13z"/>
 </g>

</svg>