<!DOCTYPE svg PUBLIC "-//W3C//DTD SVG 20010904//EN" "http://www.w3.org/TR/2001/REC-SVG-20010904/DTD/svg10.dtd">
<svg version="1.0" xmlns="http://www.w3.org/2000/svg" width="200px" height="200px" viewBox="0 0 2000 2000" preserveAspectRatio="xMidYMid meet">
<g id="layer101" fill="#0e0f0d" stroke="none">
 <path d="M130 1983 c1 -37 22 -110 46 -158 30 -61 72 -86 188 -110 105 -23 316 -96 347 -120 27 -22 66 -101 61 -125 -2 -8 -18 -31 -36 -50 -57 -60 -104 -129 -127 -185 -18 -43 -28 -55 -47 -57 -14 -2 -28 -10 -32 -18 -99 -198 -122 -259 -118 -301 2 -24 10 -37 26 -44 14 -6 20 -15 16 -25 -15 -41 -44 -180 -44 -216 0 -100 64 -231 159 -321 86 -82 263 -152 427 -168 88 -9 239 16 311 51 28 13 67 43 87 65 l37 40 29 -33 c33 -36 39 -25 14 24 -15 28 -15 30 0 24 48 -19 50 -18 23 11 l-28 31 49 49 c38 38 52 61 62 103 16 68 8 171 -23 278 -23 77 -23 82 -6 82 21 0 39 28 39 60 0 24 -34 110 -91 228 -32 66 -44 82 -62 82 -18 0 -28 13 -50 64 -16 35 -54 94 -85 131 -85 100 -87 106 -61 157 12 23 33 51 47 62 32 25 243 98 348 121 116 24 158 49 188 110 24 48 45 121 46 158 0 16 -48 17 -870 17 -822 0 -870 -1 -870 -17z"/>
 </g>
<g id="layer102" fill="#391102" stroke="none">
 <path d="M130 1983 c1 -37 22 -110 46 -158 30 -61 72 -86 188 -110 105 -23 316 -96 347 -120 27 -22 66 -101 61 -125 -2 -8 -18 -31 -36 -50 -57 -60 -104 -129 -127 -185 -18 -43 -28 -55 -47 -57 -14 -2 -28 -10 -32 -18 -99 -198 -122 -259 -118 -301 2 -24 10 -37 26 -44 14 -6 20 -15 16 -25 -15 -41 -44 -180 -44 -216 0 -100 64 -231 159 -321 86 -82 263 -152 427 -168 88 -9 239 16 311 51 28 13 67 43 87 65 l37 40 29 -33 c33 -36 39 -25 14 24 -15 28 -15 30 0 24 48 -19 50 -18 23 11 l-28 31 49 49 c38 38 52 61 62 103 16 68 8 171 -23 278 -23 77 -23 82 -6 82 21 0 39 28 39 60 0 24 -34 110 -91 228 -32 66 -44 82 -62 82 -18 0 -28 13 -50 64 -16 35 -54 94 -85 131 -85 100 -87 106 -61 157 12 23 33 51 47 62 32 25 243 98 348 121 116 24 158 49 188 110 24 48 45 121 46 158 0 16 -24 17 -407 15 l-407 -3 -13 -70 -13 -70 26 -21 c22 -18 24 -25 15 -42 -6 -11 -24 -30 -41 -42 l-30 -21 -29 20 c-30 21 -67 71 -54 71 5 0 16 7 26 14 18 14 18 17 0 90 l-18 76 -397 0 c-373 0 -398 -1 -398 -17z m600 -1040 c-14 -3 -34 -12 -45 -21 -20 -17 -20 -17 -1 6 12 13 29 21 45 21 l26 -2 -25 -4z m593 -28 l24 -36 -26 -27 c-24 -26 -30 -28 -81 -23 l-55 6 62 14 c35 7 67 19 73 26 16 19 -8 54 -45 64 l-30 9 27 1 c21 1 33 -8 51 -34z m-520 -8 c9 8 9 -10 1 -31 -8 -20 -30 -21 -38 -1 -9 23 4 48 19 35 6 -5 15 -7 18 -3z m430 0 c10 9 8 -20 -2 -36 -13 -20 -31 -4 -31 26 0 20 3 23 13 14 8 -6 17 -8 20 -4z m-566 -14 c-4 -3 3 -17 15 -30 17 -18 33 -23 77 -24 l56 -2 -55 -7 c-51 -7 -57 -5 -84 20 -24 24 -29 50 -9 50 4 0 3 -3 0 -7z m199 -45 c-9 -5 -22 -7 -29 -4 -7 2 -4 5 6 5 9 1 17 6 17 12 0 5 5 7 11 3 8 -5 6 -10 -5 -16z m289 2 c19 -8 19 -9 -2 -9 -12 -1 -25 4 -28 9 -7 12 2 12 30 0z"/>
 </g>
<g id="layer103" fill="#481b0c" stroke="none">
 <path d="M150 1971 c0 -16 -3 -38 -6 -48 -5 -15 -4 -16 6 -3 9 12 11 8 6 -20 -5 -27 -3 -31 5 -20 9 12 10 11 6 -8 -3 -14 -1 -20 6 -15 7 4 8 0 4 -11 -4 -9 -3 -15 2 -12 4 3 13 -6 20 -20 9 -20 9 -24 -1 -18 -9 6 -9 3 1 -9 7 -9 17 -15 21 -12 5 3 10 0 12 -7 2 -6 13 -13 24 -14 84 -12 105 -17 92 -26 -9 -6 -6 -7 9 -3 31 8 79 -5 61 -17 -9 -7 -4 -8 15 -3 21 4 27 3 21 -6 -5 -9 -2 -10 10 -6 22 9 68 -2 60 -14 -3 -5 1 -6 9 -3 8 3 47 -8 86 -25 39 -17 71 -27 71 -23 1 4 9 -3 19 -15 10 -12 22 -19 26 -15 5 4 5 2 2 -4 -3 -6 4 -33 17 -60 26 -57 25 -67 -19 -114 -57 -62 -103 -129 -126 -185 -18 -43 -28 -55 -47 -57 -14 -2 -28 -10 -32 -18 -99 -198 -122 -259 -118 -301 2 -24 10 -37 26 -44 14 -6 20 -15 16 -25 -15 -41 -44 -180 -44 -216 0 -100 64 -231 159 -321 86 -82 263 -152 427 -168 88 -9 239 16 311 51 28 13 67 43 87 65 l37 40 29 -33 c33 -36 39 -25 14 24 -15 28 -15 30 0 24 48 -19 50 -18 23 11 l-28 31 49 49 c38 38 52 61 62 103 16 68 8 171 -23 278 -23 77 -23 82 -6 82 21 0 39 28 39 60 0 24 -34 110 -91 228 -32 66 -44 82 -62 82 -18 0 -28 13 -50 64 -16 35 -54 94 -85 131 -86 102 -87 105 -58 163 14 27 23 52 21 56 -3 3 -2 4 2 1 3 -3 11 1 17 8 16 20 166 79 183 73 9 -4 11 -2 7 6 -5 8 2 9 22 4 18 -4 24 -3 16 2 -18 12 23 23 58 16 17 -4 21 -3 12 4 -18 12 30 25 61 17 15 -4 18 -3 9 3 -13 9 3 13 90 26 9 1 25 11 35 22 10 11 14 13 8 4 -9 -13 -8 -13 7 -2 10 8 14 20 11 29 -4 11 -2 14 5 9 8 -5 10 -1 5 10 -4 12 -3 15 5 10 8 -5 10 -1 5 10 -4 11 -3 15 4 11 7 -5 9 1 6 15 -4 19 -3 20 6 8 8 -11 10 -7 5 20 -5 28 -3 32 6 20 10 -13 11 -12 6 3 -3 10 -6 32 -6 48 l0 29 -220 0 c-121 0 -220 -1 -220 -3 0 -2 7 -25 16 -51 9 -26 14 -49 12 -51 -2 -3 -12 20 -23 50 l-18 55 -109 0 c-59 0 -108 -4 -108 -8 0 -5 16 -62 35 -128 21 -67 38 -149 40 -189 l4 -70 -9 65 c-5 36 -23 109 -39 162 -16 53 -33 113 -37 133 l-6 36 -56 -3 -56 -3 -13 -70 -13 -70 26 -21 c22 -18 24 -25 15 -42 -6 -11 -24 -30 -41 -42 l-30 -21 -29 20 c-15 11 -35 31 -44 44 -15 23 -14 25 9 37 28 16 28 16 5 100 l-18 65 -45 3 c-45 3 -46 3 -52 -33 -4 -20 -21 -80 -37 -133 -16 -53 -34 -126 -39 -162 l-9 -65 4 70 c2 40 19 122 40 189 19 66 35 123 35 128 0 4 -49 8 -108 8 l-109 0 -18 -55 c-11 -30 -21 -53 -23 -50 -2 2 3 25 12 51 9 26 16 49 16 51 0 2 -99 3 -220 3 l-220 0 0 -29z m480 -164 c0 -2 -15 -16 -32 -33 l-33 -29 29 33 c28 30 36 37 36 29z m776 -29 l29 -33 -32 29 c-31 28 -38 36 -30 36 2 0 16 -15 33 -32z m-676 -835 c-14 -3 -34 -12 -45 -21 -20 -17 -20 -17 -1 6 12 13 29 21 45 21 l26 -2 -25 -4z m593 -28 l24 -36 -26 -27 c-24 -26 -30 -28 -81 -23 l-55 6 62 14 c35 7 67 19 73 26 16 19 -8 54 -45 64 l-30 9 27 1 c21 1 33 -8 51 -34z m-520 -8 c9 8 9 -10 1 -31 -8 -20 -30 -21 -38 -1 -9 23 4 48 19 35 6 -5 15 -7 18 -3z m430 0 c10 9 8 -20 -2 -36 -13 -20 -31 -4 -31 26 0 20 3 23 13 14 8 -6 17 -8 20 -4z m-566 -14 c-4 -3 3 -17 15 -30 17 -18 33 -23 77 -24 l56 -2 -55 -7 c-51 -7 -57 -5 -84 20 -24 24 -29 50 -9 50 4 0 3 -3 0 -7z m199 -45 c-9 -5 -22 -7 -29 -4 -7 2 -4 5 6 5 9 1 17 6 17 12 0 5 5 7 11 3 8 -5 6 -10 -5 -16z m289 2 c19 -8 19 -9 -2 -9 -12 -1 -25 4 -28 9 -7 12 2 12 30 0z"/>
 </g>
<g id="layer104" fill="#31312c" stroke="none">
 <path d="M154 1953 c3 -27 21 -77 39 -113 36 -73 8 -59 262 -133 66 -19 145 -44 175 -56 l55 -22 -40 36 -40 36 53 -37 c30 -21 56 -43 59 -51 11 -28 23 1 23 56 0 50 10 93 65 284 l14 47 -107 0 -107 0 -27 -77 c-19 -57 -23 -80 -15 -85 9 -6 9 -8 -1 -8 -24 0 -24 31 0 100 l25 70 -133 0 c-118 0 -133 -2 -137 -17 -4 -17 -5 -17 -6 0 -1 15 -12 17 -82 17 l-82 0 7 -47z m458 -134 c20 -11 19 -12 -13 -45 -32 -34 -32 -34 -13 -56 l19 -23 -22 19 c-31 26 -29 41 7 68 l30 22 -22 13 c-13 7 -19 12 -15 13 5 0 17 -5 29 -11z"/>
 <path d="M830 1982 c0 -19 -24 -107 -55 -202 -8 -25 -19 -84 -25 -131 -11 -79 -10 -90 8 -125 23 -46 20 -58 -23 -104 -57 -62 -103 -129 -126 -185 -18 -43 -28 -55 -47 -57 -14 -2 -28 -10 -32 -18 -99 -198 -122 -259 -118 -301 2 -24 10 -37 26 -44 14 -6 20 -15 16 -25 -15 -41 -44 -180 -44 -216 0 -100 64 -231 159 -321 86 -82 263 -152 427 -168 88 -9 239 16 311 51 28 13 67 43 87 65 l37 40 29 -33 c33 -36 39 -25 14 24 -15 29 -15 31 2 23 11 -4 26 -9 34 -13 8 -3 2 9 -13 25 l-28 31 49 49 c38 38 52 61 62 103 16 68 8 171 -23 278 -23 77 -23 82 -6 82 21 0 39 28 39 60 0 24 -34 110 -91 228 -32 66 -44 82 -62 82 -18 0 -28 13 -50 64 -16 35 -54 94 -85 131 -84 100 -87 106 -62 155 19 38 20 47 10 123 -6 45 -17 102 -25 127 -32 97 -55 183 -55 202 0 17 -6 19 -57 16 l-57 -3 -13 -70 -13 -70 26 -21 c22 -18 24 -25 15 -42 -6 -11 -24 -30 -41 -42 -28 -20 -31 -20 -55 -4 -14 9 -34 29 -45 44 l-19 27 24 13 c29 16 29 16 6 100 l-18 65 -46 3 c-41 3 -47 1 -47 -16z m-100 -1039 c-14 -3 -34 -12 -45 -21 -20 -17 -20 -17 -1 6 12 13 29 21 45 21 l26 -2 -25 -4z m593 -28 l24 -36 -26 -27 c-24 -26 -30 -28 -81 -23 l-55 6 62 14 c35 7 67 19 73 26 16 19 -8 54 -45 64 l-30 9 27 1 c21 1 33 -8 51 -34z m-520 -8 c9 8 9 -10 1 -31 -8 -20 -30 -21 -38 -1 -9 23 4 48 19 35 6 -5 15 -7 18 -3z m430 0 c10 9 8 -20 -2 -36 -13 -20 -31 -4 -31 26 0 20 3 23 13 14 8 -6 17 -8 20 -4z m-566 -14 c-4 -3 3 -17 15 -30 17 -18 33 -23 77 -24 l56 -2 -55 -7 c-51 -7 -57 -5 -84 20 -24 24 -29 50 -9 50 4 0 3 -3 0 -7z m199 -45 c-9 -5 -22 -7 -29 -4 -7 2 -4 5 6 5 9 1 17 6 17 12 0 5 5 7 11 3 8 -5 6 -10 -5 -16z m289 2 c19 -8 19 -9 -2 -9 -12 -1 -25 4 -28 9 -7 12 2 12 30 0z"/>
 <path d="M1195 1953 c55 -191 65 -234 65 -284 0 -55 12 -84 23 -56 3 8 29 30 59 51 l53 37 -40 -36 -40 -36 55 22 c88 34 199 68 288 89 46 11 93 25 104 31 26 14 76 122 84 182 l7 47 -220 0 -220 0 25 -70 c24 -69 24 -100 0 -100 -10 0 -10 2 -1 8 8 5 4 28 -15 85 l-27 77 -107 0 -107 0 14 -47z m557 -115 c11 -16 17 -28 14 -28 -8 0 -56 73 -56 85 0 5 6 1 12 -10 6 -11 20 -32 30 -47z m-350 -21 l-22 -13 30 -22 c36 -27 38 -42 8 -68 l-23 -19 19 23 c19 22 19 22 -13 56 -31 32 -32 35 -14 45 10 6 23 10 28 10 6 0 0 -5 -13 -12z"/>
 </g>
<g id="layer105" fill="#572717" stroke="none">
 <path d="M154 1953 c3 -27 21 -77 39 -113 36 -73 8 -59 262 -133 66 -19 145 -44 175 -56 l55 -22 -40 36 -40 36 53 -37 c30 -21 56 -43 59 -51 11 -28 23 1 23 56 0 50 10 93 65 284 l14 47 -107 0 -107 0 -27 -77 c-19 -57 -23 -80 -15 -85 9 -6 9 -8 -1 -8 -24 0 -24 31 0 100 l25 70 -133 0 c-118 0 -133 -2 -137 -17 -4 -17 -5 -17 -6 0 -1 15 -12 17 -82 17 l-82 0 7 -47z m458 -134 c20 -11 19 -12 -13 -45 -32 -34 -32 -34 -13 -56 l19 -23 -22 19 c-31 26 -29 41 7 68 l30 22 -22 13 c-13 7 -19 12 -15 13 5 0 17 -5 29 -11z"/>
 <path d="M830 1982 c0 -19 -24 -107 -55 -202 -8 -25 -19 -84 -25 -131 -11 -79 -10 -90 8 -125 23 -46 20 -58 -23 -104 -57 -62 -103 -129 -126 -185 -18 -43 -28 -55 -47 -57 -14 -2 -28 -10 -32 -18 -99 -198 -122 -259 -118 -301 2 -24 10 -37 26 -44 14 -6 20 -15 16 -25 -15 -41 -44 -180 -44 -216 0 -100 64 -231 159 -321 86 -82 263 -152 427 -168 88 -9 239 16 311 51 28 13 67 43 87 65 l37 40 29 -33 c33 -36 39 -25 14 24 -15 29 -15 31 2 23 11 -4 26 -9 34 -13 8 -3 2 9 -13 25 l-28 31 49 49 c38 38 52 61 62 103 16 68 8 171 -23 278 -23 77 -23 82 -6 82 21 0 39 28 39 60 0 24 -34 110 -91 228 -32 66 -44 82 -62 82 -18 0 -28 13 -50 64 -16 35 -54 94 -85 131 -84 100 -87 106 -62 155 19 38 20 47 10 123 -6 45 -17 102 -25 127 -31 96 -55 183 -55 201 0 16 -8 19 -55 19 -52 0 -55 -2 -60 -27 -4 -16 -11 -48 -16 -73 -10 -42 -9 -46 15 -65 14 -12 26 -26 26 -32 0 -13 -66 -73 -82 -73 -5 0 -29 19 -51 41 l-42 41 27 22 26 21 -18 70 -18 70 -46 3 c-40 3 -46 1 -46 -16z m62 -680 c-7 -2 -10 -8 -6 -13 3 -5 0 -9 -5 -9 -13 0 -13 3 -5 24 3 9 11 13 17 9 8 -5 7 -8 -1 -11z m-82 -362 c24 -8 24 -8 3 -9 -23 -1 -33 -21 -12 -21 11 0 9 -16 -7 -54 -6 -17 -4 -18 22 -12 16 4 38 17 48 29 14 16 18 17 13 5 -4 -11 -2 -18 6 -18 34 -1 -31 -21 -98 -31 l-76 -10 -33 29 -33 29 26 36 c24 33 30 36 71 36 25 -1 56 -5 70 -9z m513 -22 c32 -44 42 -63 30 -55 -6 4 -21 -5 -34 -19 -21 -23 -28 -24 -79 -19 -91 11 -130 24 -123 41 5 12 7 12 20 -3 10 -13 16 -15 19 -5 3 6 15 12 25 12 11 0 17 4 14 10 -3 5 -1 19 5 30 8 14 8 20 0 20 -6 0 -8 5 -5 10 3 6 28 10 55 10 44 0 52 -4 73 -32z"/>
 <path d="M681 912 l-20 -29 31 -23 c21 -15 33 -19 36 -12 2 7 12 12 22 12 13 0 17 5 13 20 -3 11 0 27 7 35 10 12 10 15 -1 16 -8 0 -26 3 -41 5 -20 3 -31 -2 -47 -24z"/>
 <path d="M1248 933 c-16 -2 -28 -9 -28 -14 0 -6 5 -7 10 -4 6 3 11 0 11 -7 2 -18 1 -21 -7 -42 -7 -17 -4 -18 32 -12 21 4 45 14 53 22 13 12 12 17 -9 39 -13 14 -26 24 -29 24 -3 -1 -18 -4 -33 -6z"/>
 <path d="M1195 1953 c55 -191 65 -234 65 -284 0 -55 12 -84 23 -56 3 8 29 30 59 51 l53 37 -40 -36 -40 -36 55 22 c88 34 199 68 288 89 46 11 93 25 104 31 26 14 76 122 84 182 l7 47 -220 0 -220 0 25 -70 c24 -69 24 -100 0 -100 -10 0 -10 2 -1 8 8 5 4 28 -15 85 l-27 77 -107 0 -107 0 14 -47z m557 -115 c11 -16 17 -28 14 -28 -8 0 -56 73 -56 85 0 5 6 1 12 -10 6 -11 20 -32 30 -47z m-350 -21 l-22 -13 30 -22 c36 -27 38 -42 8 -68 l-23 -19 19 23 c19 22 19 22 -13 56 -31 32 -32 35 -14 45 10 6 23 10 28 10 6 0 0 -5 -13 -12z"/>
 </g>
<g id="layer106" fill="#523929" stroke="none">
 <path d="M155 1953 c4 -27 19 -75 34 -108 32 -69 51 -81 181 -110 63 -15 195 -58 275 -90 11 -4 -7 18 -40 49 l-60 57 35 29 35 29 -30 11 c-54 21 -56 25 -29 102 13 39 24 73 24 75 0 2 -57 3 -127 3 l-128 0 -17 -58 c-16 -55 -75 -158 -85 -148 -3 3 5 19 18 37 23 33 68 135 69 157 0 8 -23 12 -81 12 l-80 0 6 -47z"/>
 <path d="M599 1973 c-6 -16 -19 -51 -29 -80 l-19 -52 37 -12 c55 -17 56 -23 18 -57 -20 -17 -36 -33 -36 -35 0 -2 29 -26 66 -52 36 -26 72 -57 80 -69 14 -20 14 -20 15 4 0 14 0 48 -1 75 -1 33 12 93 38 178 l39 127 -99 0 c-98 0 -99 0 -109 -27z"/>
 <path d="M830 1982 c0 -18 -13 -66 -55 -204 -8 -27 -19 -86 -25 -132 -11 -76 -10 -87 8 -122 10 -22 17 -46 14 -54 -3 -8 -32 -46 -64 -85 -33 -38 -74 -100 -91 -137 -25 -52 -37 -68 -56 -70 -13 -2 -27 -10 -32 -18 -30 -58 -90 -194 -105 -235 -20 -59 -13 -104 17 -112 14 -4 18 -11 14 -22 -16 -42 -45 -180 -45 -217 0 -100 64 -231 159 -321 86 -82 263 -152 427 -168 88 -9 239 16 311 51 28 13 67 43 87 65 l37 40 29 -33 c33 -36 39 -25 14 24 -15 29 -15 31 2 23 11 -4 26 -9 34 -13 8 -3 2 9 -13 25 l-28 31 49 49 c38 38 52 61 62 103 16 68 8 171 -23 278 -17 57 -20 82 -12 82 7 0 20 9 30 20 17 19 18 26 6 68 -7 26 -28 79 -47 119 -19 40 -43 93 -54 118 -15 34 -25 45 -42 45 -18 0 -29 14 -55 68 -17 37 -58 99 -90 137 -32 39 -62 78 -66 88 -4 11 1 34 14 58 18 36 19 47 9 117 -5 42 -17 100 -25 127 -8 28 -24 81 -35 119 -11 37 -20 77 -20 87 0 16 -8 19 -55 19 -52 0 -55 -2 -60 -27 -4 -16 -11 -48 -16 -73 -10 -42 -9 -46 15 -65 14 -12 26 -26 26 -32 0 -13 -66 -73 -82 -73 -5 0 -29 19 -51 41 l-42 41 27 22 26 21 -18 70 -18 70 -46 3 c-40 3 -46 1 -46 -16z m62 -680 c-7 -2 -10 -8 -6 -13 3 -5 0 -9 -5 -9 -13 0 -13 3 -5 24 3 9 11 13 17 9 8 -5 7 -8 -1 -11z m-82 -362 c24 -8 24 -8 3 -9 -23 -1 -33 -21 -12 -21 11 0 9 -16 -7 -54 -6 -17 -4 -18 22 -12 16 4 38 17 48 29 14 16 18 17 13 5 -4 -11 -2 -18 6 -18 34 -1 -31 -21 -98 -31 l-76 -10 -33 29 -33 29 26 36 c24 33 30 36 71 36 25 -1 56 -5 70 -9z m513 -22 c32 -44 42 -63 30 -55 -6 4 -21 -5 -34 -19 -21 -23 -28 -24 -79 -19 -91 11 -130 24 -123 41 5 12 7 12 20 -3 10 -13 16 -15 19 -5 3 6 15 12 25 12 11 0 17 4 14 10 -3 5 -1 19 5 30 8 14 8 20 0 20 -6 0 -8 5 -5 10 3 6 28 10 55 10 44 0 52 -4 73 -32z"/>
 <path d="M681 912 l-20 -29 31 -23 c21 -15 33 -19 36 -12 2 7 12 12 22 12 13 0 17 5 13 20 -3 11 0 27 7 35 10 12 10 15 -1 16 -8 0 -26 3 -41 5 -20 3 -31 -2 -47 -24z"/>
 <path d="M1248 933 c-16 -2 -28 -9 -28 -14 0 -6 5 -7 10 -4 6 3 11 0 11 -7 2 -18 1 -21 -7 -42 -7 -17 -4 -18 32 -12 21 4 45 14 53 22 13 12 12 17 -9 39 -13 14 -26 24 -29 24 -3 -1 -18 -4 -33 -6z"/>
 <path d="M1232 1873 c26 -85 39 -145 38 -178 -1 -27 -1 -61 -1 -75 1 -24 1 -24 15 -4 8 12 44 43 80 69 37 26 66 51 66 54 0 3 -16 19 -36 35 -39 31 -37 38 18 55 l37 12 -28 77 -27 77 -101 3 -100 3 39 -128z"/>
 <path d="M1420 1997 c0 -2 11 -36 24 -75 27 -77 25 -81 -29 -102 l-30 -12 35 -29 34 -29 -58 -54 -58 -55 108 39 c60 20 143 45 184 55 130 29 149 41 181 110 15 33 30 81 34 108 l6 47 -80 0 c-58 0 -81 -4 -81 -12 1 -22 46 -124 69 -157 13 -18 21 -34 18 -37 -10 -10 -69 93 -85 148 l-17 58 -127 0 c-71 0 -128 -1 -128 -3z"/>
 </g>
<g id="layer107" fill="#65321f" stroke="none">
 <path d="M155 1953 c4 -27 19 -75 34 -108 32 -69 51 -81 181 -110 63 -15 195 -58 275 -90 11 -4 -7 18 -40 49 l-60 57 35 29 35 29 -30 11 c-54 21 -56 25 -29 102 13 39 24 73 24 75 0 2 -57 3 -127 3 l-128 0 -17 -58 c-16 -55 -75 -158 -85 -148 -3 3 5 19 18 37 23 33 68 135 69 157 0 8 -23 12 -81 12 l-80 0 6 -47z"/>
 <path d="M599 1973 c-6 -16 -19 -51 -29 -80 l-19 -52 37 -12 c55 -17 56 -23 18 -57 -20 -17 -36 -33 -36 -35 0 -2 29 -26 66 -52 36 -26 72 -57 80 -69 14 -20 14 -20 15 4 0 14 0 48 -1 75 -1 33 12 93 38 178 l39 127 -99 0 c-98 0 -99 0 -109 -27z"/>
 <path d="M825 1943 c-9 -32 -27 -94 -41 -138 -13 -44 -29 -117 -34 -162 -9 -74 -9 -87 8 -120 11 -21 17 -45 14 -53 -3 -8 -32 -46 -64 -85 -33 -38 -74 -100 -91 -137 -25 -52 -37 -68 -56 -70 -13 -2 -27 -10 -32 -18 -30 -58 -90 -194 -105 -235 -20 -59 -13 -104 17 -112 14 -4 18 -11 14 -22 -16 -42 -45 -180 -45 -217 0 -100 64 -231 159 -321 86 -82 263 -152 427 -168 88 -9 239 16 311 51 28 13 67 43 87 65 l37 40 29 -33 c33 -36 39 -25 14 24 -15 29 -15 31 2 23 11 -4 26 -9 34 -13 8 -3 2 9 -13 25 l-28 31 49 49 c38 38 52 61 62 103 16 68 8 171 -23 278 -17 57 -20 82 -12 82 7 0 20 9 30 20 17 19 18 26 6 68 -7 26 -28 79 -47 119 -19 40 -43 93 -54 118 -15 34 -25 45 -42 45 -18 0 -29 14 -55 68 -17 37 -58 99 -90 137 -32 39 -62 78 -66 88 -4 11 1 34 13 57 18 35 19 47 10 117 -6 43 -22 114 -35 158 -13 44 -31 106 -40 138 l-16 57 -49 0 c-46 0 -50 -2 -55 -27 -4 -16 -11 -48 -16 -73 -10 -42 -9 -46 15 -65 14 -12 26 -26 26 -32 0 -13 -66 -73 -82 -73 -5 0 -29 19 -51 41 l-42 41 27 22 26 21 -18 70 -18 70 -40 3 -41 3 -16 -58z m67 -641 c-7 -2 -10 -8 -6 -13 3 -5 0 -9 -5 -9 -13 0 -13 3 -5 24 3 9 11 13 17 9 8 -5 7 -8 -1 -11z m-62 -362 c0 -5 -9 -10 -20 -10 -11 0 -20 -4 -20 -10 0 -5 5 -10 11 -10 11 0 9 -16 -7 -54 -6 -17 -4 -18 22 -12 16 4 38 18 49 31 l20 24 0 -25 c0 -28 -26 -39 -117 -50 -54 -6 -60 -5 -92 24 l-34 30 26 36 c25 35 26 36 94 36 39 0 68 -4 68 -10z m487 -12 c24 -27 50 -73 35 -65 -5 4 -20 -5 -33 -19 -22 -24 -28 -25 -86 -19 -96 10 -116 18 -118 44 l-2 23 19 -23 c13 -16 21 -20 25 -11 2 6 14 12 24 12 11 0 17 4 14 10 -3 5 -1 18 4 29 9 16 7 21 -17 29 -23 9 -16 11 44 11 61 1 73 -2 91 -21z"/>
 <path d="M681 912 l-20 -29 31 -23 c21 -15 33 -19 36 -12 2 7 12 12 22 12 13 0 17 5 13 20 -3 11 0 27 7 35 10 12 10 15 -1 16 -8 0 -26 3 -41 5 -20 3 -31 -2 -47 -24z"/>
 <path d="M1248 933 c-16 -2 -28 -9 -28 -14 0 -6 5 -7 10 -4 6 3 11 0 11 -7 2 -18 1 -21 -7 -42 -7 -17 -4 -18 32 -12 21 4 45 14 53 22 13 12 12 17 -9 39 -13 14 -26 24 -29 24 -3 -1 -18 -4 -33 -6z"/>
 <path d="M1232 1873 c26 -85 39 -145 38 -178 -1 -27 -1 -61 -1 -75 1 -24 1 -24 15 -4 8 12 44 43 80 69 37 26 66 51 66 54 0 3 -16 19 -36 35 -39 31 -37 38 18 55 l37 12 -28 77 -27 77 -101 3 -100 3 39 -128z"/>
 <path d="M1420 1997 c0 -2 11 -36 24 -75 27 -77 25 -81 -29 -102 l-30 -12 35 -29 34 -29 -58 -54 -58 -55 108 39 c60 20 143 45 184 55 130 29 149 41 181 110 15 33 30 81 34 108 l6 47 -80 0 c-58 0 -81 -4 -81 -12 1 -22 46 -124 69 -157 13 -18 21 -34 18 -37 -10 -10 -69 93 -85 148 l-17 58 -127 0 c-71 0 -128 -1 -128 -3z"/>
 </g>
<g id="layer108" fill="#3e423f" stroke="none">
 <path d="M157 1958 c7 -52 40 -145 55 -154 7 -5 9 0 6 12 -3 10 -17 56 -29 101 -26 90 -40 108 -32 41z"/>
 <path d="M825 1943 c-9 -32 -27 -94 -41 -138 -13 -44 -29 -116 -34 -160 -9 -68 -8 -86 6 -117 9 -21 21 -35 25 -32 5 3 9 -2 9 -11 0 -13 7 -11 33 11 42 35 88 54 129 53 28 -1 26 -3 -14 -9 -60 -10 -122 -54 -194 -135 -73 -82 -109 -137 -131 -197 -14 -41 -20 -47 -39 -42 -20 5 -27 -4 -68 -88 -52 -108 -86 -193 -86 -213 0 -8 9 -24 20 -35 19 -19 19 -20 -5 -116 -30 -117 -31 -162 -5 -245 39 -127 136 -236 265 -300 153 -75 313 -101 465 -75 113 20 185 52 234 107 l37 40 29 -33 c33 -36 39 -25 14 24 -15 29 -15 31 2 23 11 -4 26 -9 34 -13 8 -3 2 9 -13 25 l-28 31 49 49 c60 60 78 119 69 227 -7 80 -43 217 -59 227 -6 4 -2 11 10 18 43 23 45 45 14 123 -17 40 -41 95 -56 122 -14 27 -26 54 -26 61 0 19 -36 46 -52 40 -10 -4 -19 6 -28 36 -19 58 -75 142 -143 215 -76 82 -125 114 -189 124 -47 7 -49 8 -15 9 46 1 91 -17 135 -53 l32 -28 0 29 c0 18 3 23 8 15 6 -8 13 -1 25 23 14 30 15 46 6 113 -5 42 -21 113 -34 157 -13 44 -31 106 -40 138 l-16 57 -49 0 c-46 0 -50 -2 -55 -27 -4 -16 -11 -48 -16 -73 -10 -42 -9 -46 15 -65 14 -12 26 -26 26 -32 0 -13 -66 -73 -82 -73 -5 0 -29 19 -51 41 l-42 41 27 22 26 21 -18 70 -18 70 -40 3 -41 3 -16 -58z m67 -641 c-7 -2 -10 -8 -6 -13 3 -5 0 -9 -5 -9 -13 0 -13 3 -5 24 3 9 11 13 17 9 8 -5 7 -8 -1 -11z m97 -153 c-6 -12 -8 -37 -4 -58 l6 -36 -25 35 -25 35 25 23 c31 28 38 28 23 1z m-464 -166 c-4 -19 -9 -23 -17 -15 -9 9 -8 19 2 39 15 32 25 16 15 -24z m970 -1 c-3 -8 -5 -19 -5 -25 0 -7 -4 -6 -10 3 -5 8 -10 29 -10 45 1 29 1 29 16 10 8 -11 12 -26 9 -33z m-665 -42 c0 -5 -9 -10 -20 -10 -11 0 -20 -4 -20 -10 0 -5 5 -10 11 -10 11 0 9 -16 -7 -54 -6 -17 -4 -18 22 -12 16 4 38 18 49 31 l20 24 0 -25 c0 -28 -26 -39 -117 -50 -54 -6 -60 -5 -92 24 l-34 30 26 36 c25 35 26 36 94 36 39 0 68 -4 68 -10z m487 -12 c24 -27 50 -73 35 -65 -5 4 -20 -5 -33 -19 -22 -24 -28 -25 -86 -19 -96 10 -116 18 -118 44 l-2 23 19 -23 c13 -16 21 -20 25 -11 2 6 14 12 24 12 11 0 17 4 14 10 -3 5 -1 18 4 29 9 16 7 21 -17 29 -23 9 -16 11 44 11 61 1 73 -2 91 -21z m-870 -70 c-2 -13 -4 -5 -4 17 -1 22 1 32 4 23 2 -10 2 -28 0 -40z m1110 -5 c-3 -10 -5 -2 -5 17 0 19 2 27 5 18 2 -10 2 -26 0 -35z"/>
 <path d="M681 912 l-20 -29 31 -23 c21 -15 33 -19 36 -12 2 7 12 12 22 12 13 0 17 5 13 20 -3 11 0 27 7 35 10 12 10 15 -1 16 -8 0 -26 3 -41 5 -20 3 -31 -2 -47 -24z"/>
 <path d="M1248 933 c-16 -2 -28 -9 -28 -14 0 -6 5 -7 10 -4 6 3 11 0 11 -7 2 -18 1 -21 -7 -42 -7 -17 -4 -18 32 -12 21 4 45 14 53 22 13 12 12 17 -9 39 -13 14 -26 24 -29 24 -3 -1 -18 -4 -33 -6z"/>
 <path d="M1811 1917 c-12 -45 -26 -91 -29 -101 -3 -12 -1 -17 6 -12 24 14 74 196 54 196 -4 0 -18 -37 -31 -83z"/>
 <path d="M1680 1949 c0 -9 16 -47 34 -85 26 -50 32 -71 23 -76 -7 -5 -57 -22 -112 -39 -158 -48 -197 -61 -193 -64 2 -2 55 12 118 30 63 19 125 34 137 35 12 0 38 7 57 17 l35 16 -26 33 c-14 19 -36 60 -49 91 -13 32 -24 51 -24 42z"/>
 <path d="M290 1893 c0 -6 -15 -33 -34 -61 l-33 -50 34 -16 c18 -9 44 -16 56 -16 12 -1 74 -16 137 -35 63 -18 117 -32 118 -30 2 2 -43 18 -100 35 -241 73 -228 64 -193 124 15 26 25 50 21 53 -3 4 -6 2 -6 -4z"/>
 <path d="M560 1856 c0 -8 7 -17 16 -20 23 -9 24 -4 2 17 -14 13 -18 14 -18 3z"/>
 <path d="M1418 1848 c-19 -19 -13 -24 11 -9 7 5 12 13 10 18 -2 5 -12 1 -21 -9z"/>
 <path d="M577 1743 c-2 -4 10 -19 27 -32 l31 -25 -25 30 c-14 16 -26 30 -26 32 -1 2 -4 0 -7 -5z"/>
 <path d="M1391 1716 l-25 -31 30 25 c16 14 30 26 32 26 2 1 0 4 -5 7 -4 2 -19 -10 -32 -27z"/>
 <path d="M600 1665 c14 -8 30 -14 35 -14 6 0 -1 6 -15 14 -14 8 -29 14 -35 14 -5 0 1 -6 15 -14z"/>
 <path d="M1380 1665 c-14 -8 -20 -14 -15 -14 6 0 21 6 35 14 14 8 21 14 15 14 -5 0 -21 -6 -35 -14z"/>
 </g>
<g id="layer109" fill="#6c3926" stroke="none">
 <path d="M157 1958 c7 -52 40 -145 55 -154 7 -5 9 0 6 12 -3 10 -17 56 -29 101 -26 90 -40 108 -32 41z"/>
 <path d="M825 1943 c-9 -32 -27 -94 -41 -138 -13 -44 -29 -116 -34 -160 -9 -68 -8 -86 6 -117 9 -21 21 -35 25 -32 5 3 9 -2 9 -11 0 -13 7 -11 33 11 42 35 88 54 129 53 28 -1 26 -3 -14 -9 -60 -10 -122 -54 -194 -135 -73 -82 -109 -137 -131 -197 -14 -41 -20 -47 -39 -42 -20 5 -27 -4 -68 -88 -52 -108 -86 -193 -86 -213 0 -8 9 -24 20 -35 19 -19 19 -20 -5 -116 -30 -117 -31 -162 -5 -245 39 -127 136 -236 265 -300 153 -75 313 -101 465 -75 113 20 185 52 234 107 l37 40 29 -33 c33 -36 39 -25 14 24 -15 29 -15 31 2 23 11 -4 26 -9 34 -13 8 -3 2 9 -13 25 l-28 31 49 49 c60 60 78 119 69 227 -7 80 -43 217 -59 227 -6 4 -2 11 10 18 43 23 45 45 14 123 -17 40 -41 95 -56 122 -14 27 -26 54 -26 61 0 19 -36 46 -52 40 -10 -4 -19 6 -28 36 -19 58 -75 142 -143 215 -76 82 -125 114 -189 124 -47 7 -49 8 -15 9 46 1 91 -17 135 -53 l32 -28 0 29 c0 18 3 23 8 15 6 -8 13 -1 25 23 14 30 15 46 6 113 -5 42 -21 113 -34 157 -13 44 -31 106 -40 138 l-16 57 -49 0 c-55 0 -49 8 -69 -94 -9 -46 -8 -51 15 -68 13 -11 24 -25 24 -33 0 -16 -66 -75 -84 -75 -8 0 -31 19 -51 42 l-38 41 25 21 26 21 -18 70 -18 70 -40 3 -41 3 -16 -58z m75 -642 c-5 -10 -16 -21 -25 -25 -14 -5 -14 -2 0 25 9 16 20 27 25 24 7 -4 7 -13 0 -24z m250 -64 c0 -16 -18 3 -23 25 -6 22 -5 22 8 4 8 -11 15 -24 15 -29z m-161 -88 c-6 -12 -8 -37 -4 -58 l6 -36 -25 35 -25 35 25 23 c31 28 38 28 23 1z m-464 -166 c-4 -19 -9 -23 -17 -15 -9 9 -8 19 2 39 15 32 25 16 15 -24z m970 -1 c-3 -8 -5 -19 -5 -25 0 -7 -4 -6 -10 3 -5 8 -10 29 -10 45 1 29 1 29 16 10 8 -11 12 -26 9 -33z m-655 -68 c6 -26 4 -30 -14 -30 -15 1 -22 -6 -24 -24 -3 -20 -1 -22 10 -12 8 6 18 8 22 4 4 -4 18 5 29 20 l22 27 0 -25 c0 -28 -26 -39 -117 -50 -54 -6 -60 -5 -92 24 l-34 30 26 36 26 37 70 -3 c70 -3 70 -3 76 -34z m477 14 c24 -27 50 -73 35 -65 -5 4 -20 -5 -33 -19 -22 -24 -28 -25 -86 -19 -100 10 -115 17 -119 49 l-3 28 26 -29 c22 -25 25 -25 20 -7 -2 12 -1 28 4 35 6 10 9 11 9 2 0 -20 14 -15 29 8 12 20 11 21 -13 17 -18 -4 -26 -1 -26 8 0 11 17 14 68 14 58 0 72 -3 89 -22z m-870 -70 c-2 -13 -4 -5 -4 17 -1 22 1 32 4 23 2 -10 2 -28 0 -40z m1110 -5 c-3 -10 -5 -2 -5 17 0 19 2 27 5 18 2 -10 2 -26 0 -35z"/>
 <path d="M702 933 c-7 -2 -17 -14 -23 -25 -8 -15 -7 -24 7 -39 25 -27 34 -24 34 13 0 25 3 29 12 20 17 -17 25 -15 31 8 3 13 0 20 -8 20 -7 0 -19 2 -27 4 -7 3 -19 2 -26 -1z"/>
 <path d="M806 915 c4 -8 10 -12 15 -9 14 8 10 24 -6 24 -9 0 -12 -6 -9 -15z"/>
 <path d="M1275 910 c6 -25 4 -29 -10 -24 -16 7 -34 -10 -35 -30 0 -12 73 3 89 20 13 12 12 17 -9 39 -31 33 -43 32 -35 -5z"/>
 <path d="M1811 1917 c-12 -45 -26 -91 -29 -101 -3 -12 -1 -17 6 -12 24 14 74 196 54 196 -4 0 -18 -37 -31 -83z"/>
 <path d="M1680 1949 c0 -9 16 -47 34 -85 26 -50 32 -71 23 -76 -7 -5 -57 -22 -112 -39 -158 -48 -197 -61 -193 -64 2 -2 55 12 118 30 63 19 125 34 137 35 12 0 38 7 57 17 l35 16 -26 33 c-14 19 -36 60 -49 91 -13 32 -24 51 -24 42z"/>
 <path d="M290 1893 c0 -6 -15 -33 -34 -61 l-33 -50 34 -16 c18 -9 44 -16 56 -16 12 -1 74 -16 137 -35 63 -18 117 -32 118 -30 2 2 -43 18 -100 35 -241 73 -228 64 -193 124 15 26 25 50 21 53 -3 4 -6 2 -6 -4z"/>
 <path d="M560 1856 c0 -8 7 -17 16 -20 23 -9 24 -4 2 17 -14 13 -18 14 -18 3z"/>
 <path d="M1418 1848 c-19 -19 -13 -24 11 -9 7 5 12 13 10 18 -2 5 -12 1 -21 -9z"/>
 <path d="M577 1743 c-2 -4 10 -19 27 -32 l31 -25 -25 30 c-14 16 -26 30 -26 32 -1 2 -4 0 -7 -5z"/>
 <path d="M1391 1716 l-25 -31 30 25 c16 14 30 26 32 26 2 1 0 4 -5 7 -4 2 -19 -10 -32 -27z"/>
 <path d="M600 1665 c14 -8 30 -14 35 -14 6 0 -1 6 -15 14 -14 8 -29 14 -35 14 -5 0 1 -6 15 -14z"/>
 <path d="M1380 1665 c-14 -8 -20 -14 -15 -14 6 0 21 6 35 14 14 8 21 14 15 14 -5 0 -21 -6 -35 -14z"/>
 </g>
<g id="layer110" fill="#584536" stroke="none">
 <path d="M156 1969 c9 -49 32 -120 50 -149 10 -16 13 -18 8 -5 -4 11 -18 56 -31 99 -26 87 -37 109 -27 55z"/>
 <path d="M825 1943 c-9 -32 -27 -94 -41 -138 -13 -44 -29 -116 -34 -160 -9 -68 -8 -86 6 -117 9 -21 21 -35 25 -32 5 3 9 1 9 -5 0 -5 25 5 55 23 94 57 221 56 315 -2 l50 -31 1 27 c0 21 2 23 8 9 6 -15 9 -13 24 17 14 31 15 47 6 114 -5 42 -21 113 -34 157 -13 44 -31 106 -40 138 l-16 57 -49 0 c-55 0 -49 8 -69 -94 -9 -46 -8 -51 15 -68 13 -11 24 -25 24 -33 0 -16 -66 -75 -84 -75 -8 0 -31 19 -51 42 l-38 41 25 21 26 21 -18 70 -18 70 -40 3 -41 3 -16 -58z"/>
 <path d="M1830 1959 c-6 -24 -19 -69 -30 -99 -11 -30 -18 -56 -16 -57 7 -7 47 99 55 145 12 60 6 67 -9 11z"/>
 <path d="M1754 1802 c3 -6 -13 -18 -41 -28 -25 -10 -41 -20 -34 -22 15 -5 91 28 91 39 0 4 -5 11 -12 15 -6 4 -8 3 -4 -4z"/>
 <path d="M230 1791 c0 -11 76 -44 90 -39 6 2 -11 13 -39 25 -28 12 -51 18 -51 14z"/>
 <path d="M892 1525 c-48 -21 -117 -82 -178 -159 -69 -87 -94 -135 -134 -264 -18 -57 -34 -101 -36 -99 -2 2 5 33 16 68 27 89 26 113 -6 91 -14 -9 -120 -238 -128 -278 -6 -27 -3 -35 20 -53 20 -16 24 -24 16 -34 -16 -19 -52 -174 -52 -223 0 -100 64 -231 159 -321 86 -82 263 -152 427 -168 88 -9 239 16 311 51 28 13 67 43 87 65 l37 40 29 -33 c33 -36 39 -25 14 24 -15 29 -15 31 2 23 11 -4 26 -9 34 -13 8 -3 2 9 -13 25 l-28 31 49 49 c60 60 78 119 69 227 -7 78 -43 217 -58 227 -6 3 1 13 15 23 18 11 26 25 26 45 0 29 -40 136 -70 186 -10 17 -21 41 -25 55 -8 27 -33 60 -47 60 -4 0 -8 -8 -7 -17 1 -29 34 -124 41 -118 4 4 14 -4 22 -18 12 -17 14 -31 8 -48 l-9 -24 -9 25 c-4 14 -7 34 -5 45 1 16 0 17 -8 5 -9 -13 -10 -13 -15 0 -55 170 -72 216 -104 269 -49 84 -166 205 -223 230 -53 25 -176 28 -227 6z m8 -224 c-5 -10 -16 -21 -25 -25 -14 -5 -14 -2 0 25 9 16 20 27 25 24 7 -4 7 -13 0 -24z m250 -64 c0 -16 -18 3 -23 25 -6 22 -5 22 8 4 8 -11 15 -24 15 -29z m-159 -91 c-6 -14 -8 -41 -5 -58 l6 -33 -26 34 -26 35 27 28 c31 32 37 31 24 -6z m-464 -173 c-5 -7 -13 -10 -18 -7 -13 8 -11 38 4 53 10 10 13 7 18 -11 3 -13 2 -29 -4 -35z m313 -59 c6 -26 4 -30 -14 -30 -15 1 -22 -6 -24 -24 -3 -20 -1 -22 10 -12 8 6 18 8 22 4 4 -4 18 5 30 20 l22 28 -2 -27 c-1 -31 -15 -36 -113 -48 -58 -7 -63 -6 -95 23 l-34 30 26 36 26 37 70 -3 c70 -3 70 -3 76 -34z m477 14 c24 -27 50 -73 35 -65 -5 4 -20 -5 -33 -19 -22 -24 -28 -25 -86 -19 -82 9 -119 20 -115 34 1 7 -3 22 -9 34 -7 14 1 9 21 -13 26 -28 31 -31 27 -14 -2 12 -1 28 4 35 6 10 9 11 9 2 0 -20 14 -15 29 8 12 20 11 21 -13 17 -18 -4 -26 -1 -26 8 0 11 17 14 68 14 58 0 72 -3 89 -22z m-867 -50 c0 -28 -3 -39 -10 -32 -9 9 -3 74 6 74 2 0 4 -19 4 -42z m1110 -4 c0 -19 -4 -33 -8 -30 -8 5 -4 66 4 66 2 0 4 -16 4 -36z"/>
 <path d="M702 933 c-7 -2 -17 -14 -23 -25 -8 -15 -7 -24 7 -39 25 -27 34 -24 34 13 0 25 3 29 12 20 17 -17 25 -15 31 8 3 13 0 20 -8 20 -7 0 -19 2 -27 4 -7 3 -19 2 -26 -1z"/>
 <path d="M806 915 c4 -8 10 -12 15 -9 14 8 10 24 -6 24 -9 0 -12 -6 -9 -15z"/>
 <path d="M1275 910 c6 -25 4 -29 -10 -24 -16 7 -34 -10 -35 -30 0 -12 73 3 89 20 13 12 12 17 -9 39 -31 33 -43 32 -35 -5z"/>
 </g>
<g id="layer111" fill="#794630" stroke="none">
 <path d="M156 1969 c9 -49 32 -120 50 -149 10 -16 13 -18 8 -5 -4 11 -18 56 -31 99 -26 87 -37 109 -27 55z"/>
 <path d="M825 1943 c-9 -32 -27 -94 -40 -138 -13 -44 -29 -117 -35 -161 -9 -71 -8 -87 6 -118 10 -19 21 -33 26 -30 4 3 8 1 8 -5 0 -5 25 5 55 23 94 57 221 56 315 -2 l50 -31 1 27 c0 21 2 23 8 9 6 -15 9 -13 24 17 14 31 15 47 6 114 -5 42 -21 113 -34 157 -13 44 -31 106 -40 138 l-16 57 -49 0 c-55 0 -49 8 -69 -94 -9 -46 -8 -51 15 -68 13 -11 24 -25 24 -33 0 -16 -66 -75 -84 -75 -8 0 -31 19 -51 42 l-38 41 25 21 26 21 -18 70 -18 70 -40 3 -41 3 -16 -58z"/>
 <path d="M1830 1959 c-6 -24 -19 -69 -30 -99 -11 -30 -18 -56 -16 -57 7 -7 47 99 55 145 12 60 6 67 -9 11z"/>
 <path d="M1754 1802 c3 -6 -13 -18 -41 -28 -25 -10 -41 -20 -34 -22 15 -5 91 28 91 39 0 4 -5 11 -12 15 -6 4 -8 3 -4 -4z"/>
 <path d="M230 1791 c0 -11 76 -44 90 -39 6 2 -11 13 -39 25 -28 12 -51 18 -51 14z"/>
 <path d="M892 1525 c-48 -21 -117 -82 -178 -159 -69 -87 -94 -135 -134 -264 -18 -57 -34 -101 -36 -99 -2 2 5 33 16 68 27 89 26 113 -6 91 -14 -9 -120 -238 -128 -278 -6 -27 -3 -35 20 -53 20 -16 24 -24 16 -34 -16 -19 -52 -174 -52 -223 0 -100 64 -231 159 -321 86 -82 263 -152 427 -168 88 -9 239 16 311 51 28 13 67 43 87 65 l37 40 29 -33 c33 -36 39 -25 14 24 -15 29 -15 31 2 23 11 -4 26 -9 34 -13 8 -3 2 9 -13 25 l-28 31 49 49 c60 60 78 119 69 227 -7 78 -43 217 -58 227 -6 3 1 13 15 23 18 11 26 25 26 45 0 29 -40 136 -70 186 -10 17 -21 41 -25 55 -8 27 -33 60 -47 60 -4 0 -8 -8 -7 -17 1 -29 34 -124 41 -118 4 4 14 -4 22 -18 12 -17 14 -31 8 -48 l-9 -24 -9 25 c-4 14 -7 34 -5 45 1 16 0 17 -8 5 -9 -13 -10 -13 -15 0 -55 170 -72 216 -104 269 -49 84 -166 205 -223 230 -53 25 -176 28 -227 6z m8 -224 c-5 -10 -16 -21 -25 -25 -14 -5 -14 -2 0 25 9 16 20 27 25 24 7 -4 7 -13 0 -24z m247 -52 c10 -25 9 -29 -2 -19 -14 12 -27 50 -16 50 4 0 12 -14 18 -31z m-156 -103 c-6 -14 -8 -41 -5 -58 l6 -33 -26 34 -26 35 27 28 c31 32 37 31 24 -6z m-464 -173 c-5 -7 -13 -10 -18 -7 -13 8 -11 38 4 53 10 10 13 7 18 -11 3 -13 2 -29 -4 -35z m315 -56 c3 -27 0 -33 -16 -33 -28 1 -31 -20 -4 -28 17 -4 28 1 43 19 l21 25 -2 -27 c-1 -31 -19 -38 -125 -49 -65 -6 -68 -5 -84 20 -14 21 -20 24 -31 15 -23 -19 -16 -1 16 47 l31 44 73 0 74 0 4 -33z m479 10 c38 -53 54 -82 38 -70 -13 11 -20 8 -40 -13 -23 -24 -28 -25 -89 -19 -80 8 -137 24 -120 35 9 6 9 13 0 31 -9 17 -3 14 20 -11 26 -28 31 -31 27 -14 -2 12 -1 28 4 35 6 10 9 11 9 2 0 -20 14 -15 29 8 12 20 11 21 -13 17 -18 -4 -26 -1 -26 8 0 11 18 14 73 14 63 -1 74 -3 88 -23z m-871 -49 c0 -28 -3 -39 -10 -32 -9 9 -3 74 6 74 2 0 4 -19 4 -42z m1110 -4 c0 -19 -4 -33 -8 -30 -8 5 -4 66 4 66 2 0 4 -16 4 -36z"/>
 <path d="M702 933 c-7 -2 -17 -14 -23 -25 -8 -15 -7 -24 7 -39 25 -27 34 -24 34 13 0 25 3 29 12 20 17 -17 25 -15 31 8 3 13 0 20 -8 20 -7 0 -19 2 -27 4 -7 3 -19 2 -26 -1z"/>
 <path d="M806 915 c4 -8 10 -12 15 -9 14 8 10 24 -6 24 -9 0 -12 -6 -9 -15z"/>
 <path d="M1275 910 c6 -25 4 -29 -10 -24 -16 7 -34 -10 -35 -30 0 -12 73 3 89 20 13 12 12 17 -9 39 -31 33 -43 32 -35 -5z"/>
 </g>
<g id="layer112" fill="#605b57" stroke="none">
 <path d="M825 1943 c-9 -32 -27 -94 -40 -138 -13 -44 -29 -117 -35 -162 -10 -75 -9 -86 9 -120 18 -34 22 -34 25 4 1 6 13 21 28 32 24 19 39 21 190 21 161 0 164 0 191 -25 15 -14 27 -34 27 -43 1 -10 9 -1 20 20 18 34 19 45 9 115 -6 43 -21 114 -34 158 -13 44 -31 106 -40 138 l-16 57 -49 0 c-55 0 -49 8 -69 -94 -9 -46 -8 -51 15 -68 13 -11 24 -25 24 -33 0 -16 -66 -75 -84 -75 -8 0 -31 19 -51 42 l-38 41 25 21 26 21 -18 70 -18 70 -40 3 -41 3 -16 -58z"/>
 <path d="M902 1529 c-44 -13 -170 -134 -227 -218 -32 -46 -57 -102 -84 -184 -21 -65 -42 -121 -46 -125 -10 -10 3 54 22 106 9 23 13 45 10 48 -10 10 -37 -4 -44 -23 -3 -10 -23 -55 -45 -101 -32 -66 -39 -92 -37 -130 1 -27 -1 -53 -4 -59 -4 -7 0 -16 10 -21 13 -8 15 -13 5 -24 -16 -20 -52 -174 -52 -224 0 -100 64 -231 159 -321 86 -82 263 -152 427 -168 88 -9 239 16 311 51 28 13 67 43 87 65 l37 40 29 -33 c33 -36 39 -25 14 24 -15 29 -15 31 2 23 11 -4 26 -9 34 -13 8 -3 2 9 -13 25 l-28 31 49 49 c59 59 78 119 69 224 -7 84 -45 229 -61 229 -6 1 -1 9 11 19 12 10 19 21 16 25 -4 4 -6 26 -4 49 2 44 -8 73 -65 194 -31 65 -64 101 -64 70 0 -30 37 -114 59 -133 20 -17 23 -26 17 -50 l-8 -29 -14 28 c-8 15 -12 32 -9 37 3 5 0 8 -7 5 -9 -3 -24 31 -50 113 -43 134 -83 201 -177 297 -94 95 -119 108 -215 112 -45 1 -96 -2 -114 -8z m-2 -228 c-5 -10 -16 -21 -25 -25 -14 -5 -14 -2 0 25 9 16 20 27 25 24 7 -4 7 -13 0 -24z m247 -52 c10 -25 9 -29 -2 -19 -14 12 -27 50 -16 50 4 0 12 -14 18 -31z m-151 -96 c-7 -16 -11 -42 -9 -60 7 -42 0 -42 -27 2 l-21 35 28 25 c37 32 47 31 29 -2z m-461 -146 c0 -17 -8 -43 -17 -57 l-18 -24 0 38 c0 23 7 47 17 58 9 10 17 18 17 18 1 0 1 -15 1 -33z m327 -70 c-17 -7 -22 -17 -20 -32 3 -16 0 -21 -15 -21 -29 1 -32 -20 -5 -28 17 -4 29 1 46 22 23 26 23 26 17 3 -6 -18 -4 -22 6 -16 10 5 9 3 -1 -8 -17 -18 -100 -37 -161 -37 -30 0 -42 6 -55 25 -13 20 -19 23 -30 14 -23 -19 -16 -1 16 47 l31 44 97 -1 c79 0 93 -2 74 -12z m459 -10 c38 -53 54 -82 38 -70 -13 11 -20 8 -40 -13 -23 -25 -28 -26 -92 -20 -60 5 -153 33 -119 35 9 1 10 6 2 20 -19 36 -9 36 22 1 24 -28 29 -31 25 -14 -2 12 -1 28 4 35 6 10 9 11 9 2 0 -19 14 -16 27 7 12 18 10 19 -22 18 -20 -1 -41 4 -47 10 -9 9 11 12 83 12 85 -1 95 -3 110 -23z"/>
 <path d="M702 933 c-7 -2 -17 -14 -23 -25 -8 -15 -7 -24 7 -39 25 -27 34 -24 34 13 0 25 3 29 12 20 17 -17 25 -15 31 8 3 13 0 20 -8 20 -7 0 -19 2 -27 4 -7 3 -19 2 -26 -1z"/>
 <path d="M806 915 c4 -8 10 -12 15 -9 14 8 10 24 -6 24 -9 0 -12 -6 -9 -15z"/>
 <path d="M1275 910 c6 -25 4 -29 -10 -24 -16 7 -34 -10 -35 -30 0 -12 73 3 89 20 13 12 12 17 -9 39 -31 33 -43 32 -35 -5z"/>
 </g>
<g id="layer113" fill="#87523a" stroke="none">
 <path d="M830 1958 c-6 -24 -24 -86 -39 -138 -16 -52 -34 -132 -40 -177 -11 -76 -10 -85 8 -120 18 -34 22 -34 25 4 1 6 13 21 28 32 24 19 39 21 190 21 161 0 164 0 191 -25 15 -14 27 -34 27 -43 1 -10 9 -1 20 20 18 34 19 44 9 110 -6 40 -24 118 -40 173 -15 55 -33 119 -39 143 l-11 42 -48 0 -49 0 -13 -70 c-12 -67 -11 -71 9 -93 12 -13 22 -28 22 -33 0 -16 -64 -74 -81 -74 -8 0 -33 18 -54 41 l-40 41 26 20 25 19 -14 62 c-8 34 -16 68 -18 75 -2 7 -20 12 -43 12 -39 0 -41 -1 -51 -42z"/>
 <path d="M902 1529 c-44 -13 -170 -134 -227 -218 -32 -46 -57 -102 -84 -184 -21 -65 -42 -121 -46 -125 -10 -10 3 54 22 106 9 23 13 45 10 48 -10 10 -37 -4 -44 -23 -3 -10 -23 -55 -45 -101 -32 -66 -39 -92 -37 -130 1 -27 -1 -53 -4 -59 -4 -7 0 -16 10 -21 13 -8 15 -13 5 -24 -16 -20 -52 -174 -52 -224 0 -100 64 -231 159 -321 86 -82 263 -152 427 -168 88 -9 239 16 311 51 28 13 67 43 87 65 l37 40 29 -33 c33 -36 39 -25 14 24 -15 29 -15 31 2 23 11 -4 26 -9 34 -13 8 -3 2 9 -13 25 l-28 31 49 49 c59 59 78 119 69 224 -7 84 -45 229 -61 229 -6 1 -1 9 11 19 12 10 19 21 16 25 -4 4 -6 26 -4 49 2 44 -8 73 -65 194 -31 65 -64 101 -64 70 0 -30 37 -114 59 -133 20 -17 23 -26 17 -50 l-8 -29 -14 28 c-8 15 -12 32 -9 37 3 5 0 8 -7 5 -9 -3 -24 31 -50 113 -43 134 -83 201 -177 297 -94 95 -119 108 -215 112 -45 1 -96 -2 -114 -8z m11 -205 c9 -9 -23 -54 -39 -54 -18 0 -18 10 2 38 15 22 26 27 37 16z m244 -88 l15 -28 -25 18 c-14 11 -23 22 -21 26 2 4 -1 10 -7 14 -8 4 -7 9 2 15 9 5 15 4 18 -4 2 -7 10 -25 18 -41z m-161 -83 c-7 -16 -11 -42 -9 -60 7 -42 0 -42 -27 2 l-21 35 28 25 c37 32 47 31 29 -2z m-461 -146 c0 -17 -8 -43 -17 -57 l-18 -24 0 38 c0 23 7 47 17 58 9 10 17 18 17 18 1 0 1 -15 1 -33z m345 -67 c0 -5 -8 -10 -19 -10 -14 0 -17 -6 -13 -25 5 -28 12 -31 31 -12 11 10 12 8 6 -12 -6 -18 -4 -22 6 -16 10 5 9 3 -1 -8 -17 -18 -100 -37 -161 -37 -30 0 -42 6 -55 25 -13 20 -19 23 -30 14 -23 -19 -16 -1 16 47 l31 44 94 0 c57 0 95 -4 95 -10z m441 -13 c38 -53 54 -82 38 -70 -13 11 -20 8 -40 -13 -23 -25 -28 -26 -92 -20 -60 5 -153 33 -119 35 10 1 10 6 2 22 -14 26 -7 35 10 14 18 -21 27 -19 32 10 4 16 1 25 -8 25 -7 0 -16 5 -19 10 -4 6 27 10 87 10 84 -1 94 -3 109 -23z"/>
 <path d="M685 910 c-17 -19 -17 -21 0 -40 27 -29 35 -25 35 20 0 45 -8 49 -35 20z"/>
 <path d="M810 875 c-10 -13 -9 -15 9 -15 11 0 21 4 21 9 0 18 -18 21 -30 6z"/>
 <path d="M1280 895 c0 -38 18 -47 40 -20 10 13 10 19 -5 35 -26 29 -35 25 -35 -15z"/>
 <path d="M1242 878 c-18 -18 -15 -28 8 -28 13 0 20 7 20 20 0 23 -10 26 -28 8z"/>
 </g>
<g id="layer114" fill="#93614b" stroke="none">
 <path d="M830 1958 c-6 -24 -24 -86 -39 -138 -16 -52 -34 -132 -40 -177 -11 -76 -10 -85 8 -120 11 -21 21 -33 22 -28 1 6 3 20 4 33 1 12 4 24 6 26 2 1 27 18 54 37 49 33 52 34 155 34 102 0 106 -1 152 -32 26 -18 51 -33 56 -33 5 0 10 -6 9 -12 -1 -48 4 -52 23 -16 18 34 19 44 9 110 -6 40 -24 118 -40 173 -15 55 -33 119 -39 143 l-11 42 -48 0 -49 0 -13 -70 c-12 -67 -11 -71 9 -93 12 -13 22 -28 22 -33 0 -16 -64 -74 -81 -74 -8 0 -33 18 -54 41 l-40 41 26 20 25 19 -14 62 c-8 34 -16 68 -18 75 -2 7 -20 12 -43 12 -39 0 -41 -1 -51 -42z"/>
 <path d="M938 1531 c-51 -11 -110 -54 -177 -129 -81 -91 -124 -167 -156 -276 -15 -52 -32 -93 -37 -90 -4 3 -8 -1 -8 -9 0 -8 -11 -31 -25 -52 -15 -20 -24 -40 -21 -42 6 -6 -40 -71 -63 -90 -13 -11 -13 -13 2 -13 18 0 23 -25 8 -34 -13 -8 -51 -175 -51 -224 0 -98 65 -229 159 -319 86 -82 263 -152 427 -168 88 -9 239 16 311 51 28 13 67 43 87 65 l37 40 29 -33 c33 -36 39 -25 14 24 -12 24 -13 30 -3 25 53 -21 54 -21 26 10 l-28 31 49 49 c59 59 78 119 69 224 -7 78 -45 229 -58 229 -5 0 -9 7 -9 15 0 8 7 15 16 15 14 0 15 2 3 16 -8 9 -30 46 -49 83 -20 36 -40 65 -46 64 -6 -1 -23 42 -38 97 -16 54 -38 120 -50 147 -43 91 -179 243 -251 281 -29 14 -123 22 -167 13z m-35 -237 c-8 -13 -22 -24 -29 -24 -18 0 -18 6 3 41 13 21 20 26 30 18 10 -9 9 -16 -4 -35z m254 -57 l14 -28 -25 16 c-14 10 -24 21 -21 25 3 5 0 12 -6 16 -8 4 -7 9 2 15 9 5 15 4 18 -4 2 -7 10 -25 18 -40z m-127 -82 l23 -25 -31 0 c-30 0 -32 -2 -32 -37 l0 -38 -25 30 c-31 38 -31 44 3 72 34 28 34 28 62 -2z m-132 -224 c19 -13 22 -23 17 -44 -10 -38 -47 -55 -139 -63 -71 -6 -79 -5 -101 16 -13 12 -28 19 -34 15 -26 -15 -1 35 40 80 16 18 28 20 106 17 65 -2 94 -8 111 -21z m457 -52 c13 -25 13 -27 -4 -22 -12 3 -24 -4 -34 -18 -15 -20 -21 -22 -90 -16 -41 4 -86 11 -101 17 -30 11 -52 51 -42 77 7 16 9 15 28 -9 24 -35 34 -35 40 -3 5 24 -6 31 -37 25 -7 -1 -7 2 0 9 6 5 48 11 95 13 80 3 86 1 108 -22 13 -14 29 -37 37 -51z"/>
 <path d="M685 910 c-17 -19 -17 -21 0 -40 27 -29 35 -25 35 20 0 45 -8 49 -35 20z"/>
 <path d="M848 905 c5 -30 18 -32 32 -6 14 28 13 31 -14 31 -19 0 -22 -4 -18 -25z"/>
 <path d="M810 875 c-10 -13 -9 -15 9 -15 11 0 21 4 21 9 0 18 -18 21 -30 6z"/>
 <path d="M1280 895 c0 -38 18 -47 40 -20 10 13 10 19 -5 35 -26 29 -35 25 -35 -15z"/>
 <path d="M1242 878 c-18 -18 -15 -28 8 -28 13 0 20 7 20 20 0 23 -10 26 -28 8z"/>
 <path d="M516 1086 c-51 -105 -58 -125 -62 -181 l-5 -50 20 25 c23 27 36 81 27 105 -3 9 7 29 23 48 23 26 61 103 61 122 0 3 -6 5 -14 5 -8 0 -30 -33 -50 -74z"/>
 <path d="M1420 1156 c0 -19 35 -94 55 -118 17 -21 25 -41 25 -69 0 -22 8 -54 18 -72 l17 -32 3 47 c3 38 -5 64 -45 147 -26 56 -54 101 -60 101 -7 0 -13 -2 -13 -4z"/>
 </g>
<g id="layer115" fill="#c69a70" stroke="none">
 <path d="M830 1958 c-6 -24 -22 -79 -35 -123 -13 -44 -31 -123 -40 -176 -16 -93 -16 -98 2 -133 l19 -37 13 60 c15 68 18 71 119 130 39 23 72 45 72 49 0 3 -17 24 -37 45 l-38 39 26 20 25 19 -14 62 c-8 34 -16 68 -18 75 -2 7 -20 12 -43 12 -39 0 -41 -1 -51 -42z"/>
 <path d="M1049 1930 c-12 -67 -11 -71 9 -93 29 -30 28 -35 -10 -74 -38 -39 -37 -41 59 -93 77 -41 113 -85 113 -139 l1 -36 19 37 c18 34 19 44 9 110 -6 40 -24 118 -40 173 -15 55 -33 119 -39 143 l-11 42 -48 0 -49 0 -13 -70z"/>
 <path d="M936 1359 c-15 -12 -25 -27 -22 -35 3 -7 1 -16 -4 -19 -25 -16 -4 -25 53 -25 35 0 85 -6 111 -14 38 -12 47 -12 43 -1 -3 7 -1 17 5 23 8 8 0 23 -29 52 -35 35 -46 40 -85 40 -31 0 -54 -7 -72 -21z"/>
 <path d="M542 980 c-42 -88 -102 -241 -106 -268 -2 -15 -6 -34 -9 -42 -17 -48 -10 -188 12 -214 5 -6 10 -15 10 -21 3 -23 13 -45 22 -45 6 0 7 -4 4 -10 -3 -5 -1 -10 4 -10 6 0 11 -7 11 -15 0 -7 8 -19 18 -24 9 -6 13 -11 9 -11 -12 0 81 -90 93 -90 5 0 14 -8 19 -18 6 -9 11 -12 11 -7 0 7 3 7 8 0 10 -14 112 -68 112 -59 0 3 7 1 15 -6 8 -7 15 -9 15 -5 0 4 7 2 15 -5 8 -7 15 -9 15 -5 0 4 6 3 13 -2 6 -6 19 -11 27 -11 8 -1 29 -4 45 -7 80 -16 217 -16 297 0 93 18 151 48 195 98 28 32 31 33 56 20 26 -13 27 -13 17 12 -7 20 -6 25 5 25 18 0 19 12 3 29 -11 10 -7 16 15 33 16 11 40 38 53 60 23 35 25 51 27 149 1 60 -2 109 -7 109 -4 0 -5 11 -2 25 4 16 2 25 -5 25 -6 0 -9 7 -6 15 4 8 2 17 -3 20 -5 3 -7 12 -3 20 3 8 0 15 -7 15 -7 0 -10 6 -7 14 3 8 2 16 -2 18 -11 4 -64 148 -57 155 7 7 -12 43 -24 43 -4 0 -11 -13 -15 -30 -4 -16 -10 -30 -14 -30 -4 0 -7 -8 -8 -17 -1 -10 -17 -83 -38 -162 -20 -79 -39 -167 -43 -196 l-7 -52 -61 28 c-150 69 -370 114 -516 105 l-96 -6 -11 30 c-5 17 -7 30 -4 30 3 0 0 7 -7 15 -7 8 -9 15 -5 15 4 0 2 7 -5 15 -6 8 -9 18 -6 24 3 5 2 11 -4 13 -5 1 -11 32 -12 68 -2 36 -6 67 -9 70 -3 3 -10 30 -15 60 l-10 55 -22 -45z"/>
 <path d="M685 910 c-17 -19 -17 -21 0 -40 27 -29 35 -25 35 20 0 45 -8 49 -35 20z"/>
 <path d="M848 905 c5 -30 18 -32 32 -6 14 28 13 31 -14 31 -19 0 -22 -4 -18 -25z"/>
 <path d="M1110 917 c0 -14 19 -37 31 -37 4 0 9 11 11 25 4 21 1 25 -18 25 -13 0 -24 -6 -24 -13z"/>
 <path d="M1280 895 c0 -38 18 -47 40 -20 10 13 10 19 -5 35 -26 29 -35 25 -35 -15z"/>
 <path d="M810 875 c-10 -13 -9 -15 9 -15 11 0 21 4 21 9 0 18 -18 21 -30 6z"/>
 <path d="M1242 878 c-18 -18 -15 -28 8 -28 13 0 20 7 20 20 0 23 -10 26 -28 8z"/>
 <path d="M630 785 c0 -3 19 -15 43 -27 53 -28 211 -38 240 -16 16 12 5 14 -90 14 -76 0 -121 5 -150 17 -24 9 -43 14 -43 12z"/>
 <path d="M1320 772 c-26 -12 -64 -16 -143 -16 -92 0 -106 -2 -91 -13 29 -21 154 -17 218 8 31 11 58 25 61 30 8 13 -4 10 -45 -9z"/>
 <path d="M1582 530 c0 -19 2 -27 5 -17 2 9 2 25 0 35 -3 9 -5 1 -5 -18z"/>
 </g>
<g id="layer116" fill="#cea57c" stroke="none">
 <path d="M830 1958 c-6 -24 -22 -79 -35 -123 -13 -44 -31 -123 -40 -176 -16 -93 -16 -98 2 -133 l19 -37 12 60 c13 64 31 84 114 126 20 10 47 27 60 36 l23 18 -40 41 -40 42 26 20 25 19 -14 62 c-8 34 -16 68 -18 75 -2 7 -20 12 -43 12 -39 0 -41 -1 -51 -42z"/>
 <path d="M1049 1930 c-12 -67 -11 -71 9 -93 28 -30 28 -35 -9 -73 -17 -18 -28 -37 -24 -43 3 -6 37 -27 73 -45 87 -44 113 -72 120 -132 l5 -47 19 36 c16 32 17 44 7 109 -6 40 -24 118 -40 173 -15 55 -33 119 -39 143 l-11 42 -48 0 -49 0 -13 -70z"/>
 <path d="M936 1359 c-15 -12 -25 -27 -22 -35 3 -7 1 -16 -4 -19 -25 -16 -4 -25 53 -25 35 0 85 -6 111 -14 38 -12 47 -12 43 -1 -3 7 -1 17 5 23 8 8 0 23 -29 52 -35 35 -46 40 -85 40 -31 0 -54 -7 -72 -21z"/>
 <path d="M538 958 c-9 -18 -31 -80 -49 -138 -17 -58 -34 -112 -37 -120 -3 -8 -4 -20 -3 -27 1 -6 -3 -14 -9 -18 -5 -3 -7 -17 -4 -31 4 -14 1 -31 -6 -39 -10 -12 -10 -18 0 -30 6 -8 9 -23 5 -34 -3 -10 -1 -22 5 -26 6 -4 9 -14 6 -22 -4 -9 1 -21 10 -28 10 -7 18 -23 20 -36 1 -13 3 -27 3 -32 1 -4 7 -6 14 -5 6 2 12 -6 12 -17 0 -11 7 -20 15 -20 8 0 15 -8 15 -17 0 -23 52 -76 73 -74 9 0 17 -4 17 -11 0 -17 12 -26 37 -27 13 -1 22 -7 20 -14 -2 -11 3 -13 38 -16 21 -2 123 -37 136 -47 6 -5 14 -6 17 -2 4 3 13 1 20 -6 8 -6 21 -9 30 -5 8 3 18 0 22 -6 4 -6 20 -8 40 -4 19 3 35 1 39 -5 9 -14 63 -14 72 0 4 6 19 9 37 5 16 -3 36 -1 43 5 8 6 20 9 29 6 8 -4 17 -2 21 4 3 6 12 8 20 5 7 -3 16 -1 20 5 3 5 13 7 22 5 18 -6 43 5 45 20 1 5 8 8 14 8 7 -1 10 2 7 7 -3 5 6 13 21 19 14 5 30 21 35 35 5 14 15 25 21 25 6 0 9 7 6 15 -5 12 -2 12 19 3 33 -15 44 -1 17 22 -23 19 -21 30 7 30 18 0 53 33 44 42 -3 3 6 30 20 59 19 39 26 69 26 115 0 35 -5 66 -10 69 -6 4 -10 14 -9 23 1 10 0 24 -4 32 -14 39 -87 287 -87 298 0 32 -19 6 -35 -48 -10 -34 -22 -63 -26 -66 -5 -2 -6 -11 -3 -18 3 -8 0 -17 -5 -21 -6 -3 -9 -11 -6 -16 4 -5 3 -14 -1 -20 -4 -7 -8 -28 -10 -47 -2 -18 -8 -40 -14 -46 -5 -7 -7 -16 -3 -19 3 -4 0 -13 -7 -22 -7 -9 -13 -49 -14 -105 0 -52 -4 -79 -8 -64 -11 40 -25 51 -95 75 -36 12 -77 27 -90 34 -14 8 -31 11 -38 9 -7 -3 -16 0 -20 6 -4 6 -15 8 -25 5 -10 -3 -21 -1 -25 5 -4 6 -15 8 -25 5 -10 -3 -21 -1 -25 5 -3 5 -17 7 -30 4 -12 -3 -26 -1 -30 6 -4 7 -18 9 -35 5 -16 -3 -31 -2 -35 4 -8 14 -112 14 -121 0 -4 -6 -19 -9 -37 -5 -16 3 -35 2 -41 -3 -16 -12 -78 -23 -71 -12 3 5 18 12 34 16 l30 6 -18 43 c-21 47 -33 96 -37 141 -5 61 -27 175 -33 175 -4 0 -14 -15 -23 -32z"/>
 <path d="M685 910 c-17 -19 -17 -21 0 -40 27 -29 35 -25 35 20 0 45 -8 49 -35 20z"/>
 <path d="M848 905 c5 -30 18 -32 32 -6 14 28 13 31 -14 31 -19 0 -22 -4 -18 -25z"/>
 <path d="M1110 917 c0 -14 19 -37 31 -37 4 0 9 11 11 25 4 21 1 25 -18 25 -13 0 -24 -6 -24 -13z"/>
 <path d="M1280 895 c0 -38 18 -47 40 -20 10 13 10 19 -5 35 -26 29 -35 25 -35 -15z"/>
 <path d="M810 875 c-10 -13 -9 -15 9 -15 11 0 21 4 21 9 0 18 -18 21 -30 6z"/>
 <path d="M1242 878 c-18 -18 -15 -28 8 -28 13 0 20 7 20 20 0 23 -10 26 -28 8z"/>
 <path d="M690 753 c19 -13 46 -17 122 -18 53 0 101 5 107 10 7 7 -22 10 -87 10 -53 0 -113 3 -132 8 l-35 7 25 -17z"/>
 <path d="M1270 758 c-25 -5 -80 -7 -124 -4 -59 3 -75 1 -67 -7 19 -19 190 -15 226 5 34 19 29 20 -35 6z"/>
 <path d="M1434 238 c-3 -4 -3 -8 0 -8 2 0 11 -3 20 -6 10 -4 16 -1 16 8 0 16 -27 20 -36 6z"/>
 </g>
<g id="layer117" fill="#dcba99" stroke="none">
 <path d="M830 1958 c-6 -24 -22 -79 -35 -123 -13 -44 -31 -123 -40 -176 -16 -93 -16 -98 2 -133 l19 -37 12 60 c13 64 31 84 114 126 20 10 47 27 60 36 l23 18 -40 41 -40 42 26 20 25 19 -14 62 c-8 34 -16 68 -18 75 -2 7 -20 12 -43 12 -39 0 -41 -1 -51 -42z"/>
 <path d="M1049 1930 c-12 -67 -11 -71 9 -93 28 -30 28 -35 -9 -73 -17 -18 -28 -37 -24 -43 3 -6 37 -27 73 -45 87 -44 113 -72 120 -132 l5 -47 19 36 c16 32 17 44 7 109 -6 40 -24 118 -40 173 -15 55 -33 119 -39 143 l-11 42 -48 0 -49 0 -13 -70z"/>
 <path d="M936 1359 c-15 -12 -25 -27 -22 -35 3 -7 1 -16 -4 -19 -25 -16 -4 -25 53 -25 35 0 85 -6 111 -14 38 -12 47 -12 43 -1 -3 7 -1 17 5 23 8 8 0 23 -29 52 -35 35 -46 40 -85 40 -31 0 -54 -7 -72 -21z"/>
 <path d="M685 910 c-17 -19 -17 -21 0 -40 27 -29 35 -25 35 20 0 45 -8 49 -35 20z"/>
 <path d="M848 905 c5 -30 18 -32 32 -6 14 28 13 31 -14 31 -19 0 -22 -4 -18 -25z"/>
 <path d="M1110 917 c0 -14 19 -37 31 -37 4 0 9 11 11 25 4 21 1 25 -18 25 -13 0 -24 -6 -24 -13z"/>
 <path d="M1280 895 c0 -38 18 -47 40 -20 10 13 10 19 -5 35 -26 29 -35 25 -35 -15z"/>
 <path d="M810 875 c-10 -13 -9 -15 9 -15 11 0 21 4 21 9 0 18 -18 21 -30 6z"/>
 <path d="M1242 878 c-18 -18 -15 -28 8 -28 13 0 20 7 20 20 0 23 -10 26 -28 8z"/>
 <path d="M544 785 l-19 -100 -5 80 -5 80 -22 -60 c-11 -33 -26 -76 -32 -95 -14 -48 -29 -180 -20 -185 4 -3 10 -17 14 -32 3 -16 20 -50 36 -76 16 -26 26 -53 23 -59 -4 -6 -3 -8 3 -5 13 8 37 -18 29 -31 -7 -11 38 -55 47 -46 8 9 38 -16 32 -26 -3 -4 3 -7 13 -6 9 0 16 -5 14 -12 -1 -8 2 -11 7 -7 6 3 32 -5 59 -19 26 -13 75 -32 107 -41 33 -9 67 -19 75 -22 8 -4 19 -5 24 -4 5 1 16 -1 25 -4 22 -9 202 -9 224 0 9 4 24 5 32 2 8 -4 17 -2 20 4 4 5 12 9 18 7 7 -1 31 8 55 20 23 13 47 20 53 17 5 -4 8 -3 7 2 -3 11 62 83 75 83 4 0 5 -5 1 -12 -5 -7 -3 -8 5 -3 9 5 10 10 2 18 -18 18 -13 30 10 24 16 -4 18 -3 9 8 -15 18 -5 35 19 35 22 0 44 24 48 53 2 12 6 67 9 122 4 90 2 111 -25 205 l-29 105 -2 -90 -2 -90 -14 90 c-22 147 -24 149 -43 80 -10 -33 -32 -93 -50 -133 -30 -67 -32 -81 -29 -157 3 -85 -4 -103 -16 -40 -7 37 -37 58 -121 85 -22 7 -44 15 -50 18 -5 3 -23 7 -39 9 -17 2 -34 7 -39 12 -5 5 -16 7 -23 4 -8 -3 -20 0 -28 6 -7 6 -16 8 -19 5 -3 -4 -14 -3 -24 1 -10 4 -28 7 -40 6 -11 -1 -24 2 -27 8 -4 6 -20 8 -37 4 -17 -3 -41 0 -55 7 -20 11 -28 11 -48 0 -13 -7 -41 -10 -63 -8 -21 3 -45 1 -53 -3 -22 -11 -153 -40 -158 -34 -2 2 29 14 70 26 l75 22 -29 62 c-16 35 -35 91 -42 126 l-13 64 -19 -100z m554 -239 c46 -15 82 -29 79 -32 -2 -2 -22 2 -44 10 -72 25 -156 39 -293 46 l-135 8 155 -3 c137 -2 165 -5 238 -29z m289 -38 c-2 -13 -4 -3 -4 22 0 25 2 35 4 23 2 -13 2 -33 0 -45z m-364 -25 c-13 -2 -33 -2 -45 0 -13 2 -3 4 22 4 25 0 35 -2 23 -4z m-282 -39 c24 -8 85 -24 134 -34 50 -10 79 -19 65 -19 -38 -1 -195 36 -227 53 -36 20 -26 20 28 0z m550 -198 c-18 -21 -122 -64 -171 -71 -38 -5 -34 -3 20 12 36 10 85 30 110 45 54 31 56 32 41 14z m-421 -10 c25 -8 36 -15 25 -15 -11 0 -33 6 -50 14 -39 18 -31 18 25 1z"/>
 <path d="M700 753 c40 -19 192 -25 209 -8 7 7 -24 10 -92 10 -56 0 -113 3 -127 7 -14 4 -9 0 10 -9z"/>
 <path d="M1280 758 c-19 -5 -72 -8 -117 -6 -55 2 -79 0 -72 -7 16 -16 169 -11 209 7 40 19 31 21 -20 6z"/>
 </g>
<g id="layer118" fill="#e5caae" stroke="none">
 <path d="M830 1958 c-6 -24 -22 -79 -35 -123 -13 -44 -31 -123 -40 -176 -16 -93 -16 -98 2 -133 l19 -37 12 60 c13 64 31 84 114 126 20 10 47 27 60 36 l23 18 -40 41 -40 42 26 20 25 19 -14 62 c-8 34 -16 68 -18 75 -2 7 -20 12 -43 12 -39 0 -41 -1 -51 -42z"/>
 <path d="M1049 1930 c-12 -67 -11 -71 9 -93 28 -30 28 -35 -9 -73 -17 -18 -28 -37 -24 -43 3 -6 37 -27 73 -45 87 -44 113 -72 120 -132 l5 -47 19 36 c16 32 17 44 7 109 -6 40 -24 118 -40 173 -15 55 -33 119 -39 143 l-11 42 -48 0 -49 0 -13 -70z"/>
 <path d="M936 1359 c-15 -12 -25 -27 -22 -35 3 -7 1 -16 -4 -19 -25 -16 -4 -25 53 -25 35 0 85 -6 111 -14 38 -12 47 -12 43 -1 -3 7 -1 17 5 23 8 8 0 23 -29 52 -35 35 -46 40 -85 40 -31 0 -54 -7 -72 -21z"/>
 <path d="M685 910 c-17 -19 -17 -21 0 -40 27 -29 35 -25 35 20 0 45 -8 49 -35 20z"/>
 <path d="M848 905 c5 -30 18 -32 32 -6 14 28 13 31 -14 31 -19 0 -22 -4 -18 -25z"/>
 <path d="M1110 917 c0 -14 19 -37 31 -37 4 0 9 11 11 25 4 21 1 25 -18 25 -13 0 -24 -6 -24 -13z"/>
 <path d="M1280 895 c0 -38 18 -47 40 -20 10 13 10 19 -5 35 -26 29 -35 25 -35 -15z"/>
 <path d="M810 875 c-10 -13 -9 -15 9 -15 11 0 21 4 21 9 0 18 -18 21 -30 6z"/>
 <path d="M1242 878 c-18 -18 -15 -28 8 -28 13 0 20 7 20 20 0 23 -10 26 -28 8z"/>
 <path d="M453 615 c0 -22 2 -30 4 -17 2 12 2 30 0 40 -3 9 -5 -1 -4 -23z"/>
 <path d="M1512 560 c0 -60 -6 -101 -20 -138 -24 -62 -18 -69 8 -9 24 55 33 131 22 187 -8 41 -9 37 -10 -40z"/>
 <path d="M451 522 c-1 -29 41 -132 54 -132 3 0 -4 18 -15 41 -12 22 -25 60 -30 82 -7 40 -8 40 -9 9z"/>
 <path d="M775 180 c83 -41 190 -64 279 -58 69 5 179 37 200 59 6 6 -14 0 -44 -13 -48 -20 -71 -22 -185 -22 -114 1 -139 4 -200 26 -108 40 -115 41 -50 8z"/>
 </g>
<g id="layer119" fill="#d0ced3" stroke="none">
 <path d="M830 1958 c-6 -24 -22 -79 -35 -123 -13 -44 -31 -123 -40 -176 -16 -93 -16 -98 2 -133 l19 -37 12 60 c13 64 31 84 114 126 20 10 47 27 60 36 l23 18 -40 41 -40 42 26 20 25 19 -14 62 c-8 34 -16 68 -18 75 -2 7 -20 12 -43 12 -39 0 -41 -1 -51 -42z"/>
 <path d="M1049 1930 c-12 -67 -11 -71 9 -93 28 -30 28 -35 -9 -73 -17 -18 -28 -37 -24 -43 3 -6 37 -27 73 -45 87 -44 113 -72 120 -132 l5 -47 19 36 c16 32 17 44 7 109 -6 40 -24 118 -40 173 -15 55 -33 119 -39 143 l-11 42 -48 0 -49 0 -13 -70z"/>
 <path d="M936 1359 c-15 -12 -25 -27 -22 -35 3 -7 1 -16 -4 -19 -25 -16 -4 -25 53 -25 35 0 85 -6 111 -14 38 -12 47 -12 43 -1 -3 7 -1 17 5 23 8 8 0 23 -29 52 -35 35 -46 40 -85 40 -31 0 -54 -7 -72 -21z"/>
 <path d="M685 910 c-17 -19 -17 -21 0 -40 27 -29 35 -25 35 20 0 45 -8 49 -35 20z"/>
 <path d="M848 905 c5 -30 18 -32 32 -6 14 28 13 31 -14 31 -19 0 -22 -4 -18 -25z"/>
 <path d="M1110 917 c0 -14 19 -37 31 -37 4 0 9 11 11 25 4 21 1 25 -18 25 -13 0 -24 -6 -24 -13z"/>
 <path d="M1280 895 c0 -38 18 -47 40 -20 10 13 10 19 -5 35 -26 29 -35 25 -35 -15z"/>
 <path d="M810 875 c-10 -13 -9 -15 9 -15 11 0 21 4 21 9 0 18 -18 21 -30 6z"/>
 <path d="M1242 878 c-18 -18 -15 -28 8 -28 13 0 20 7 20 20 0 23 -10 26 -28 8z"/>
 </g>
<g id="layer120" fill="#dfdee3" stroke="none">
 <path d="M834 1975 c-3 -14 -4 -32 0 -40 3 -8 1 -15 -4 -15 -5 0 -12 -12 -16 -27 -3 -16 -14 -51 -24 -78 -16 -45 -25 -86 -34 -165 -2 -14 -7 -37 -10 -51 -7 -24 18 -108 28 -98 3 2 7 23 10 46 2 23 10 52 16 63 12 23 70 62 138 95 23 11 42 23 42 27 0 4 -19 22 -42 42 -24 19 -51 49 -62 68 l-18 33 24 -29 c24 -28 25 -29 51 -11 19 12 24 21 18 34 -4 9 -13 42 -20 74 l-12 57 -40 0 c-33 0 -40 -4 -45 -25z"/>
 <path d="M1055 1958 c-3 -24 -9 -57 -11 -74 -5 -25 0 -35 24 -56 l31 -26 -35 -30 c-19 -17 -34 -35 -34 -41 0 -5 36 -29 80 -52 88 -45 101 -61 110 -129 l7 -45 17 39 c14 30 15 44 7 69 -6 16 -11 48 -11 69 0 22 -10 72 -23 111 -27 82 -44 140 -52 180 -5 25 -9 27 -54 27 l-49 0 -7 -42z m80 -97 c-8 -17 -19 -33 -25 -36 -5 -3 -1 10 11 29 25 43 36 48 14 7z"/>
 <path d="M936 1359 c-20 -16 -24 -24 -16 -34 8 -9 6 -14 -5 -19 -31 -11 -14 -23 28 -19 24 2 70 -4 110 -15 37 -11 67 -15 67 -10 0 5 -7 11 -15 14 -8 4 -15 11 -15 16 0 6 6 6 14 -1 8 -7 17 -8 20 -3 3 5 -12 28 -33 51 -34 36 -43 41 -83 41 -31 0 -54 -7 -72 -21z"/>
 <path d="M692 918 c-15 -15 -16 -38 -2 -38 6 0 13 0 17 0 3 0 7 11 9 25 3 27 -5 32 -24 13z"/>
 <path d="M1284 895 c0 -32 1 -33 17 -19 15 13 16 20 6 35 -17 28 -23 24 -23 -16z"/>
 </g>
<g id="layer121" fill="#f3f2f4" stroke="none">
 <path d="M837 1973 c-5 -26 14 -74 50 -130 14 -21 17 -22 44 -7 23 11 27 19 21 32 -5 9 -14 43 -21 75 l-12 57 -39 0 c-33 0 -38 -3 -43 -27z"/>
 <path d="M1060 1993 c0 -5 -5 -37 -10 -72 -10 -61 -10 -64 14 -86 l26 -24 18 27 c39 54 60 107 55 135 -5 25 -9 27 -54 27 -27 0 -49 -3 -49 -7z"/>
 <path d="M826 1899 c-26 -75 -67 -222 -70 -252 -3 -21 -8 -41 -11 -46 -3 -5 4 -29 14 -53 11 -23 20 -36 21 -28 9 100 15 110 97 155 98 55 96 52 57 88 -18 18 -49 59 -68 91 -21 35 -37 53 -40 45z"/>
 <path d="M1140 1864 c-13 -26 -43 -66 -67 -91 -24 -24 -43 -45 -43 -47 0 -2 26 -16 58 -31 88 -41 120 -70 133 -118 l11 -42 13 26 c10 19 11 35 3 69 -16 70 -69 254 -77 267 -4 8 -16 -5 -31 -33z"/>
 <path d="M933 1355 c-22 -19 -24 -24 -10 -25 21 0 23 -20 2 -20 -8 0 -15 -4 -15 -9 0 -5 26 -11 58 -14 69 -5 118 -14 135 -23 9 -5 9 -4 0 7 -18 18 -16 32 3 25 15 -6 15 -3 -1 21 -28 45 -57 63 -102 63 -31 0 -49 -7 -70 -25z m92 -35 c3 -5 -3 -10 -14 -10 -12 0 -21 5 -21 10 0 6 6 10 14 10 8 0 18 -4 21 -10z"/>
 <path d="M697 910 c-3 -11 -2 -22 3 -25 4 -3 10 6 12 20 6 30 -7 34 -15 5z"/>
 </g>

</svg>