<?xml version="1.0" encoding="UTF-8" standalone="no"?>
<svg xmlns:rdf="http://www.w3.org/1999/02/22-rdf-syntax-ns#" xmlns="http://www.w3.org/2000/svg" height="267" viewBox="0 0 266.66666 266.66666" width="267" version="1.1" xmlns:cc="http://creativecommons.org/ns#" xmlns:dc="http://purl.org/dc/elements/1.1/">
 <g stroke-width="1.33">
  <path d="m18.4 261c.484-3.48 2.8-10.2 5.15-14.9 5-10.1 9.95-13.2 26.3-16.8 14.8-3.26 44.4-13.6 46.3-16.2 2.6-3.51 4.12-.736 5.67 10.3.770 5.48 3.06 15.2 5.08 21.7l3.68 11.7 6.42-10.1c3.53-5.58 7.87-11.1 9.64-12.2 4.11-2.69 3.12-3.89-8.51-10.3-5.01-2.74-9.84-6.18-10.8-7.63-.908-1.45-2.16-6.71-2.78-11.7-1.07-8.53-1.65-9.68-10.5-20.7-5.16-6.43-10.7-14.9-12.3-18.9-2.38-5.85-3.53-7.23-6.05-7.23-2.58 0-4.02-1.88-8.42-11-7.9-16.4-12.2-27.2-12.2-30.9 0-3.18 2.48-6.74 5.36-7.7.903-.301.138-5.25-2.13-13.8-4.51-16.9-3.91-25.3 2.76-38.9 9.02-18.4 22.9-29.9 44.7-37.4 18.5-6.31 33.6-7.96 48.5-5.34 14.1 2.48 26.8 8.33 32.8 15.1l4.21 4.8 4.14-3.82 4.14-3.82-2.9 5.08c-3.73 6.53-3.68 6.73 1.1 4.26 4.85-2.51 5.19-.919.719 3.28l-3.28 3.08 5.1 3.7c8.04 5.82 11.5 14.3 11.4 27.9-.0693 10-2.75 23.6-6.64 33.7-.625 1.62-.254 2.33 1.21 2.33 1.16 0 3.12 1.54 4.36 3.43 2.11 3.22 2.1 3.88-.0644 10.8-1.27 4.03-4.32 11.2-6.77 15.9-2.45 4.71-5.17 10.7-6.03 13.3-1.15 3.49-2.51 4.94-5.11 5.47-2.8.569-4.43 2.58-7.76 9.61-2.32 4.89-7.97 13.4-12.6 18.8-7.92 9.42-8.38 10.4-9.17 18.7-.462 4.81-1.54 10-2.4 11.6-.859 1.56-6.38 5.34-12.3 8.4-5.89 3.07-10.7 6.02-10.7 6.58 0 .552 2.15 3.07 4.77 5.6s6.94 8.1 9.6 12.4l4.83 7.79 3.69-11.8c2.03-6.49 4.32-16.3 5.09-21.8 1.55-11 3.08-13.8 5.67-10.3 1.92 2.59 31.5 12.9 46.3 16.2 16.3 3.58 21.3 6.75 26.3 16.8 2.35 4.73 4.67 11.4 5.15 14.9l.880 6.33h-95.2l.884-4.03c.706-3.21-.134-5.77-4.17-12.7-2.78-4.75-5.43-8.64-5.88-8.64-.453 0-2.17 1.43-3.82 3.19-2.79 2.97-2.9 3.71-1.57 10.9 2.18 11.8 2.57 11.2-7.91 11.2-5.13 0-9.32-.45-9.31-1 .0108-.55.930-4.86 2.04-9.59 1.95-8.26 1.92-8.69-.681-11.3-3.31-3.31-4.7-2.19-9.98 8.06-2.48 4.81-3.27 7.89-2.65 10.3l.874 3.48h-97.4zm127-81.1c4.77-5.06 5.78-7.65 2.49-6.39-2.79 1.07-2.51-1.75.333-3.41 3.24-1.89 1.81-1.76-7.73.681-4.55 1.17-10.9 1.92-14 1.67-4.46-.354-5.41-.0872-4.33 1.21.805.969 4.5 1.67 8.82 1.67 9.57 0 7.61 2.36-2.43 2.92l-7.33.410 4.67 3c7.29 4.68 14 4.07 19.5-1.76zm-49-57c-.445-1.16-.809-3.09-.809-4.29 0-2-.184-1.99-2.22.0421-1.83 1.83-1.92 2.58-.503 4.29 2.23 2.69 4.57 2.66 3.53-.0421zm79-5c-1.82-2.19-1.84-2.16-3.05 2.87-.948 3.94-.937 3.95 1.81 1.46 2.14-1.93 2.42-2.91 1.24-4.33z" fill="#e3c8ad"/>
  <path d="m17.9 266c0-4.11 3.45-16.3 6.1-21.6 3.85-7.64 10.1-11.5 22.6-14.1 13.8-2.86 47.7-14.7 49.7-17.3 2.56-3.5 3.98-.873 5.51 10.2.758 5.5 3.13 15.7 5.27 22.7 2.14 6.97 4.31 14.6 4.83 17l.939 4.33h-47.7c-29.1 0-47.4-.490-47.4-1.27zm106-3.73c.433-2.75 1.55-7.21 2.49-9.91 1.61-4.63 1.52-5.03-1.54-7.03-4.3-2.82-4.11-4.13 1.47-9.71l4.71-4.71-2.99-2.16c-1.64-1.19-6.27-3.96-10.3-6.16-9.44-5.18-12.1-8.99-13.1-18.7-.749-7.26-1.53-8.8-9.47-18.6-4.76-5.85-10.4-14.3-12.5-18.8-3.13-6.7-4.55-8.36-7.68-8.98-2.47-.493-4.17-1.86-4.75-3.82-.503-1.68-3.52-8.45-6.71-15.1-3.19-6.6-6.56-14.9-7.5-18.5-1.68-6.35-1.64-6.53 2-9.66l3.72-3.2-2.66-9.67c-4-13.8-4.4-19.4-2-28.8 2.9-11.2 8.9-21.4 18-30.5 19.7-19.7 57.9-29.2 86.9-21.6 12.9 3.35 16.5 5.23 23.5 12.2l5.63 5.63 4.19-3.87 4.19-3.87-2.95 5.17c-3.38 5.91-3.05 7.06 1.37 4.76l3.11-1.62-3.1 3.37-3.1 3.37 6.7 6.27c8.07 7.55 10.1 12.8 9.9 26-.106 8.4-3.49 25.9-6.56 33.9-.526 1.37-.072 2.1 1.3 2.1 1.16 0 3.09 1.5 4.3 3.33 2.03 3.09 2.02 3.84-.088 10.3-1.25 3.85-4.62 11.8-7.49 17.7-2.87 5.89-5.21 11.3-5.21 12.1 0 1.97-4.48 5.83-6.77 5.83-1.04.003-4.15 4.4-6.9 9.76-2.75 5.37-8.6 14-13 19.3-7.44 8.84-7.99 9.95-7.99 16.2 0 11.4-2.99 15-18.8 22.3-3.39 1.58-6.57 3.52-7.07 4.32-.493.797 1.28 3.63 3.94 6.29l4.84 4.84-3.59 3.75c-3.52 3.68-3.56 3.92-2.11 12.3.818 4.7 1.49 8.94 1.49 9.43.00003.490-4.16.891-9.25.891h-9.25zm21.2-82.2c4.59-4.59 5.76-7.47 3.04-7.47-.974 0-.857-.779.333-2.23 1.65-2.01 1.5-2.13-1.5-1.21-1.83.561-8.54 1.34-14.9 1.72-9.1.553-11.4 1.1-10.9 2.54.389 1.01 1.99 1.85 3.56 1.86 1.57.0107 3.76.633 4.86 1.38 1.44.983.608 1.12-3 .498-6.01-1.04-6.52.741-1.33 4.61 2.35 1.75 5.75 2.75 9.47 2.78 4.85.0353 6.54-.702 10.3-4.49zm-48.7-61c-.301-5.11-.361-5.16-3.39-3.18-3.67 2.41-3.73 2.79-.874 5.94 3.38 3.73 4.6 2.94 4.26-2.76zm22.1 4.04c.393-.635-.472-2.23-1.92-3.54-2.56-2.32-2.64-2.29-2.64 1.16 0 3.43 2.96 4.97 4.56 2.38zm35.4-2.18c0-3.64-1.25-4.22-3.73-1.73-2.45 2.45-1.9 5.07 1.07 5.07 1.96 0 2.67-.889 2.67-3.33zm21.4.504c1.24-2.31 1.05-3.29-1.02-5.37-2.49-2.49-2.54-2.45-2.85 2.83-.344 5.84 1.48 7.03 3.88 2.54zm-62.8-4.36c0-.288-.9-.869-2-1.29-1.1-.422-2-.186-2 .524s.9 1.29 2 1.29 2-.236 2-.524zm57.3-.809c0-.733-.9-1.33-2-1.33s-2 .6-2 1.33c0 .733.9 1.33 2 1.33s2-.6 2-1.33zm-106-37.3c-.6-12.3-.4-13.4 3.3-20.7 2.15-4.21 3.14-7.01 2.19-6.23-3.6 2.99-7.5 13.4-7.57 20.3-.0705 6.55 1.44 19.6 2.26 19.6.210 0 .118-5.85-.204-13zm142-5.7c.0387-9.02-.580-12.8-3.04-18.3-1.7-3.83-3.89-7.62-4.87-8.44-.981-.815-.166 1.72 1.81 5.62 3.3 6.51 3.6 8.41 3.6 22.7 0 10.7.384 14.7 1.22 12.7.673-1.61 1.25-8.02 1.27-14.3zm-94-49.8c10.3-3.72 12.8-4.09 27.3-4.07 13.1.0186 17.5.557 24 2.92 5.46 1.98 7.16 2.26 5.35.878-4.82-3.68-19.2-7.27-29.2-7.27-11.9 0-22.7 2.71-34.8 8.74-10.1 5.03-9.7 4.96 7.33-1.2zm46.1 239c.516-2.38 2.69-10 4.83-17 2.14-6.97 4.51-17.2 5.27-22.7 1.53-11.1 2.95-13.7 5.51-10.2 1.93 2.63 35.8 14.4 49.7 17.3 12.5 2.58 18.7 6.46 22.6 14.2 2.4 4.73 6.06 18.2 6.06 22.4 0 .232-21.3.422-47.4.422h-47.4z" fill="#dab997"/>
  <path d="m17.9 266c0-4.11 3.45-16.3 6.1-21.6 3.85-7.64 10.1-11.5 22.6-14.1 13.8-2.86 47.7-14.7 49.7-17.3 2.56-3.5 3.98-.873 5.51 10.2.758 5.5 3.13 15.7 5.27 22.7 2.14 6.97 4.31 14.6 4.83 17l.939 4.33h-47.7c-29.1 0-47.4-.490-47.4-1.27zm106-3.73c.433-2.75 1.55-7.21 2.49-9.91 1.61-4.63 1.52-5.03-1.54-7.03-4.3-2.82-4.11-4.13 1.47-9.71l4.71-4.71-2.99-2.16c-1.64-1.19-6.27-3.96-10.3-6.16-9.44-5.18-12.1-8.99-13.1-18.7-.749-7.26-1.53-8.8-9.47-18.6-4.76-5.85-10.4-14.3-12.5-18.8-3.13-6.7-4.55-8.36-7.68-8.98-2.47-.493-4.17-1.86-4.75-3.82-.503-1.68-3.52-8.45-6.71-15.1-3.19-6.6-6.56-14.9-7.5-18.5-1.68-6.34-1.64-6.53 1.97-9.63l3.68-3.17-2.89-11c-5.1-18.8-3.2-31 8-47.9 9.6-14.4 21.2-22.4 43.2-29.6 10.1-3.32 13.3-3.74 29.3-3.82 20.6-.101 33.5 2.91 40.7 9.52 2.24 2.05 3.14 3.04 2 2.21-24-17.6-80-10.7-104 12.7-7.6 7.4-15.4 20.1-17.7 28.5-2.2 8.21-.0680 23 5.41 37.6l4 10.7.0648-10.6c.0356-5.81.366-10.3.734-9.89.368.368 1.66 6.02 2.88 12.6l2.21 11.9 1.65-8.05c.906-4.43 3.43-12 5.61-16.8l3.9-9.1-10-2.9c-11.7-3.44-12.4-5.18-.844-2.16 12.9 3.38 30.4 4.7 42.4 3.2 20.8-2.59 43.6-8.39 53.9-13.7 3.05-1.58 4.39-3.4 5.03-6.83 1.58-8.42 2.58-5.95 2.15 5.27-.399 10.3-.0957 11.8 4.9 23.5 2.93 6.9 5.75 14.9 6.27 17.7 1.34 7.31 2.66 4.04 4.79-11.8l1.79-13.3.667 12 .667 12 3.67-14.3c5.65-22 4.92-39.7-1.96-47.6-2.41-2.75-2.12-2.64 1.42.547 2.45 2.2 5.7 6.4 7.23 9.33 4.62 8.88 3.17 28.2-3.8 50.3-.481 1.53-.0253 2.33 1.33 2.33 1.13 0 3.04 1.5 4.24 3.33 2.03 3.09 2.02 3.84-.088 10.3-1.25 3.85-4.62 11.8-7.49 17.7-2.87 5.89-5.21 11.3-5.21 12.1 0 1.97-4.48 5.83-6.77 5.83-1.04.003-4.15 4.4-6.9 9.76-2.75 5.37-8.6 14-13 19.3-7.44 8.84-7.99 9.95-7.99 16.2 0 11.4-2.99 15-18.8 22.3-3.39 1.58-6.57 3.52-7.07 4.32-.493.797 1.28 3.63 3.94 6.29l4.84 4.84-3.59 3.75c-3.52 3.68-3.56 3.92-2.11 12.3.818 4.7 1.49 8.94 1.49 9.43.00003.490-4.16.891-9.25.891h-9.25zm21.2-82.2c4.59-4.59 5.76-7.47 3.04-7.47-.974 0-.857-.779.333-2.23 1.65-2.01 1.5-2.13-1.5-1.21-1.83.561-8.54 1.34-14.9 1.72-9.1.553-11.4 1.1-10.9 2.54.389 1.01 1.99 1.85 3.56 1.86 1.57.0107 3.76.633 4.86 1.38 1.44.983.608 1.12-3 .498-6.01-1.04-6.52.741-1.33 4.61 2.35 1.75 5.75 2.75 9.47 2.78 4.85.0353 6.54-.702 10.3-4.49zm-48.7-61c-.301-5.11-.361-5.16-3.39-3.18-3.67 2.41-3.73 2.79-.874 5.94 3.38 3.73 4.6 2.94 4.26-2.76zm22.1 4.04c.393-.635-.472-2.23-1.92-3.54-2.56-2.32-2.64-2.29-2.64 1.16 0 3.43 2.96 4.97 4.56 2.38zm35.4-2.18c0-3.64-1.25-4.22-3.73-1.73-2.45 2.45-1.9 5.07 1.07 5.07 1.96 0 2.67-.889 2.67-3.33zm21.4.504c1.24-2.31 1.05-3.29-1.02-5.37-2.49-2.49-2.54-2.45-2.85 2.83-.344 5.84 1.48 7.03 3.88 2.54zm-62.8-4.36c0-.288-.9-.869-2-1.29-1.1-.422-2-.186-2 .524s.9 1.29 2 1.29 2-.236 2-.524zm57.3-.809c0-.733-.9-1.33-2-1.33s-2 .6-2 1.33c0 .733.9 1.33 2 1.33s2-.6 2-1.33zm-60.4-15.3c9.07 0 13.2-.444 12.3-1.33-2.23-2.22-22.6-1.43-27.9 1.08-2.57 1.22-3.17 1.78-1.33 1.23 1.83-.542 9.45-.986 16.9-.986zm64.4-.344c-5.43-2.47-24.7-3.09-28.4-.910-1.76 1.04.680 1.27 9.33.864 6.44-.302 13.8.0581 16.4 0.8 6.86 1.98 7.98 1.67 2.67-.754zm-17.9 162c.516-2.38 2.69-10 4.83-17 2.14-6.97 4.51-17.2 5.27-22.7 1.53-11.1 2.95-13.7 5.51-10.2 1.93 2.63 35.8 14.4 49.7 17.3 12.5 2.58 18.7 6.46 22.6 14.2 2.4 4.73 6.06 18.2 6.06 22.4 0 .232-21.3.422-47.4.422h-46zm33-179c.064-1.55.380-1.87.806-.806.385.962.338 2.11-.105 2.56-.443.443-.758-.344-0.7-1.75zm-73.4-8.57c16.9-.966 26.8-2.67 42-7.23 1.47-.440.677.127-1.76 1.26-9.95 4.64-19.7 6.28-39.6 6.67l-20.5.5zm71-4.65c.0148-2.93.288-3.98.607-2.32s.307 4.06-.0269 5.33-.595-.0822-.580-3.02zm14.5-2c0-1.83.303-2.58.673-1.67.370.917.370 2.42 0 3.33-.370.917-.673.167-.673-1.67zm-67.2-4.94c1.66-.319 4.06-.307 5.33.0269s-.0823.595-3.02.580c-2.93-.0148-3.98-.288-2.32-.607zm9.32-1.27c.917-.370 2.42-.370 3.33 0 .917.370.167.673-1.67.673-1.83 0-2.58-.303-1.67-.673zm-46.8-3.8c1.83-1.05 4.23-1.9 5.33-1.9 1.1.0027-.0189.881-2.49 1.95-5.68 2.47-7.2 2.44-2.85-.0522zm10.2-3.31c1.55-.627 5.75-1.47 9.33-1.88 6.31-.716 6.27-.680-1.49 1.17-8.98 2.14-12.1 2.42-7.84.712zm18-3.6c.917-.370 2.42-.370 3.33 0 .917.370.167.673-1.67.673-1.83 0-2.58-.303-1.67-.673zm-50.5-3.6c0-.277 1.05-1.33 2.33-2.33 2.11-1.66 2.16-1.61.503.503-1.74 2.22-2.84 2.93-2.84 1.83zm93.3-7.5c-1.2-.777-1.37-1.3-.412-1.31.873-.0112 1.96.580 2.41 1.31 1.02 1.66.561 1.66-2 0zm-9.58-3.58c.962-.385 2.11-.338 2.56.105.443.443-.344.758-1.75 0.7-1.55-.0640-1.87-.380-.806-.806zm-50.8-3.25c.904-.911 1.98-1.32 2.39-.910.411.411-.329 1.16-1.64 1.66-1.9.724-2.05.570-.746-.746zm61-3.95c-3.67-2.1-6.19-3.84-5.61-3.86 1.72-.0508 11.4 5.15 12.3 6.62 1.05 1.7 1.29 1.8-6.65-2.76zm25.6 3.26c-.413-.668.701-2.61 2.48-4.32 3.79-3.65 4.23-2.21.722 2.36-1.35 1.75-2.78 2.63-3.2 1.97zm-79-2.53c2.2-1.01 5.2-1.82 6.67-1.8 1.47.0160-.0333.880-3.33 1.92-7.4 2.33-8.59 2.29-3.33-.117zm67.2-1.62c-1.66-2.11-1.61-2.16.503-.503 2.22 1.74 2.93 2.84 1.83 2.84-.277 0-1.33-1.05-2.33-2.33zm-55.5-1.26c1.3-.338 3.1-.316 4 .0494.903.365-.159.642-2.36.615-2.2-.0272-2.94-.326-1.64-.664zm22.1-5.32c.962-.385 2.11-.338 2.56.105.443.443-.344.758-1.75 0.7-1.55-.0640-1.87-.380-.806-.806z" fill="#aca4a1"/>
  <path d="m18.6 262c3.63-21.6 10.1-28.3 31.9-33.1 15.3-3.31 42.2-12.5 45.5-15.5 2.75-2.51 2.9-2.52 3.59-.171.394 1.35 1.11 5.45 1.58 9.11.476 3.67 3.21 15 6.08 25.1 2.87 10.2 5.21 18.7 5.21 19 0 .299-21.3.544-47.4.544h-47.4zm106-1c.641-3.48 1.72-7.96 2.41-9.95 1.07-3.12.752-3.98-2.34-6.24l-3.58-2.63 5.33-5.49 5.33-5.49-3.33-2.56c-1.83-1.41-6.7-4.37-10.8-6.58-4.12-2.21-8.08-4.78-8.81-5.71-1.64-2.09-4.37-13.1-4.37-17.5 0-2.18-2.77-6.46-8.04-12.4-4.42-4.99-10.3-13.6-13-19.2-3.08-6.24-5.64-9.88-6.7-9.53-2 .667-6.89-3.39-6.89-5.71 0-.877-1.56-4.53-3.48-8.13-4.35-8.18-11.2-25.3-11.2-28 0-1.11 1.5-3.53 3.34-5.37l3.34-3.34-2.86-10.9c-5.8-20.8-3.8-33 7.3-49.9 9.6-14.4 21.2-22.4 43.2-29.6 10.1-3.32 13.3-3.74 29.3-3.82 20.6-.101 33.5 2.91 40.7 9.52 2.24 2.05 3.14 3.04 2 2.21-24-17.6-80-10.7-104 12.7-7.6 7.4-15.4 20.1-17.7 28.5-2.2 8.21-.0680 23 5.41 37.6l4 10.7.0648-10.6c.0356-5.81.366-10.3.734-9.89.368.368 1.66 6.02 2.88 12.6l2.21 11.9 1.65-8.05c.906-4.43 3.43-12 5.61-16.8l3.9-9.1-10-2.9c-11.7-3.44-12.4-5.18-.844-2.16 12.9 3.38 30.4 4.7 42.4 3.2 20.8-2.59 43.6-8.39 53.9-13.7 3.05-1.58 4.39-3.4 5.03-6.83 1.58-8.42 2.58-5.95 2.15 5.27-.399 10.3-.0957 11.8 4.9 23.5 2.93 6.9 5.75 14.9 6.27 17.7 1.34 7.31 2.66 4.04 4.79-11.8l1.79-13.3.667 12 .667 12 3.67-14.3c5.65-22 4.92-39.7-1.96-47.6-2.41-2.75-2.12-2.64 1.42.547 2.45 2.2 5.7 6.4 7.23 9.33 4.6 8.85 3.17 28.1-3.73 50.1-.422 1.35.552 2.66 2.69 3.64 2.65 1.21 3.35 2.5 3.35 6.21 0 4.97-5.58 20.5-9.38 26-1.25 1.83-2.71 4.83-3.25 6.67-1.6 5.44-4.6 9.33-7.2 9.33-1.69 0-3.91 2.96-7.25 9.67-2.65 5.32-8.37 13.7-12.7 18.7-7.42 8.51-7.93 9.53-8.47 17-.736 10.2-3.46 13.8-14.9 20-12.6 6.83-12.8 7.07-7.73 12.3 5.02 5.18 5.2 6.35 1.47 9.72-2.4 2.17-2.67 3.47-1.93 9.21.479 3.67 1.2 8.03 1.61 9.68.711 2.89.411 3-8.57 3h-9.31zm21-80.9c5.5-5.49 6.99-13.4 2.25-11.9-6.71 2.15-12.6 3.09-19.8 3.12-6.98.0289-9.58 1.36-6.46 3.29.664.411.895 1.94.512 3.41-.555 2.12.486 3.21 5.13 5.36 7.48 3.46 12.5 2.56 18.4-3.28zm-49.3-61c.262-3.3.127-6-0.3-6s-2.18 1.49-3.9 3.32c-3.03 3.22-3.05 3.4-.692 6 3.54 3.92 4.36 3.36 4.89-3.32zm22.4 5c-.005-.55-1.13-2.7-2.51-4.79l-2.5-3.79-.559 4.79c-.498 4.27-.227 4.79 2.51 4.79 1.69 0 3.06-.45 3.06-1zm34.9-3.88-.569-4.88-2.47 3.21c-3.33 4.33-3.15 6.54.540 6.54 2.74 0 3.01-.512 2.5-4.88zm5.1 4.29c0-.323-.6-.959-1.33-1.41-.733-.453-1.33-.189-1.33.588s.6 1.41 1.33 1.41c.733 0 1.33-.265 1.33-.588zm16.7-2.09c2.36-2.6 2.34-2.78-.692-6-1.9-2.02-4.6-3.32-6.89-3.32-4.21 0-5.02 2.63-1.67 5.42 1.74 1.45 2.31 1.42 3.31-.170.872-1.38 1.22-.699 1.23 2.42.0236 5 1.28 5.44 4.7 1.65zm-63.3-6.06c0-1.06-1.2-1.92-2.67-1.92-3 0-3.42 1.38-1.12 3.68 1.84 1.84 3.79.933 3.79-1.76zm-3.06-14.6c9.07 0 13.2-.444 12.3-1.33-2.23-2.22-22.6-1.43-27.9 1.08-2.57 1.22-3.17 1.78-1.33 1.23 1.83-.542 9.45-.986 16.9-.986zm64.4-.344c-5.43-2.47-24.7-3.09-28.4-.910-1.76 1.04.680 1.27 9.33.864 6.44-.302 13.8.0581 16.4 0.8 6.86 1.98 7.98 1.67 2.67-.754zm-18.7 166c0-.299 2.35-8.85 5.21-19 2.87-10.2 5.6-21.5 6.08-25.1.476-3.67 1.19-7.77 1.58-9.11.687-2.34.837-2.34 3.59.171 3.37 3.07 30.2 12.2 45.5 15.5 21.8 4.72 28.3 11.4 31.9 33.1l.839 5h-47.4c-26.1 0-47.4-.245-47.4-.544zm32-182c.064-1.55.380-1.87.806-.806.385.962.338 2.11-.105 2.56-.443.443-.758-.344-0.7-1.75zm-73.4-8.57c16.9-.966 26.8-2.67 42-7.23 1.47-.440.677.127-1.76 1.26-9.95 4.64-19.7 6.28-39.6 6.67l-20.5.5zm71-4.65c.0148-2.93.288-3.98.607-2.32s.307 4.06-.0269 5.33-.595-.0822-.580-3.02zm14.5-2c0-1.83.303-2.58.673-1.67.370.917.370 2.42 0 3.33-.370.917-.673.167-.673-1.67zm-67.2-4.94c1.66-.319 4.06-.307 5.33.0269s-.0823.595-3.02.580c-2.93-.0148-3.98-.288-2.32-.607zm9.32-1.27c.917-.370 2.42-.370 3.33 0 .917.370.167.673-1.67.673-1.83 0-2.58-.303-1.67-.673zm-46.8-3.8c1.83-1.05 4.23-1.9 5.33-1.9 1.1.0027-.0189.881-2.49 1.95-5.68 2.47-7.2 2.44-2.85-.0522zm10.2-3.31c1.55-.627 5.75-1.47 9.33-1.88 6.31-.716 6.27-.680-1.49 1.17-8.98 2.14-12.1 2.42-7.84.712zm18-3.6c.917-.370 2.42-.370 3.33 0 .917.370.167.673-1.67.673-1.83 0-2.58-.303-1.67-.673zm-50.5-3.6c0-.277 1.05-1.33 2.33-2.33 2.11-1.66 2.16-1.61.503.503-1.74 2.22-2.84 2.93-2.84 1.83zm93.3-7.5c-1.2-.777-1.37-1.3-.412-1.31.873-.0112 1.96.580 2.41 1.31 1.02 1.66.561 1.66-2 0zm-9.58-3.58c.962-.385 2.11-.338 2.56.105.443.443-.344.758-1.75 0.7-1.55-.0640-1.87-.380-.806-.806zm-50.8-3.25c.904-.911 1.98-1.32 2.39-.910.411.411-.329 1.16-1.64 1.66-1.9.724-2.05.570-.746-.746zm61-3.95c-3.67-2.1-6.19-3.84-5.61-3.86 1.72-.0508 11.4 5.15 12.3 6.62 1.05 1.7 1.29 1.8-6.65-2.76zm25.6 3.26c-.413-.668.701-2.61 2.48-4.32 3.79-3.65 4.23-2.21.722 2.36-1.35 1.75-2.78 2.63-3.2 1.97zm-79-2.53c2.2-1.01 5.2-1.82 6.67-1.8 1.47.0160-.0333.880-3.33 1.92-7.4 2.33-8.59 2.29-3.33-.117zm67.2-1.62c-1.66-2.11-1.61-2.16.503-.503 2.22 1.74 2.93 2.84 1.83 2.84-.277 0-1.33-1.05-2.33-2.33zm-55.5-1.26c1.3-.338 3.1-.316 4 .0494.903.365-.159.642-2.36.615-2.2-.0272-2.94-.326-1.64-.664zm22.1-5.32c.962-.385 2.11-.338 2.56.105.443.443-.344.758-1.75 0.7-1.55-.0640-1.87-.380-.806-.806z" fill="#caa178"/>
  <path d="m18.6 262c3.63-21.6 10.1-28.3 31.9-33.1 15.3-3.31 42.2-12.5 45.5-15.5 2.75-2.51 2.9-2.52 3.59-.171.394 1.35 1.11 5.45 1.58 9.11.476 3.67 3.21 15 6.08 25.1 2.87 10.2 5.21 18.7 5.21 19 0 .299-21.3.544-47.4.544h-47.4zm106-1c.641-3.48 1.72-7.96 2.41-9.95 1.07-3.12.752-3.98-2.34-6.24l-3.58-2.63 5.33-5.49 5.33-5.49-3.33-2.56c-1.83-1.41-6.7-4.37-10.8-6.58-4.12-2.21-8.08-4.78-8.81-5.71-1.67-2.13-4.37-13.1-4.37-17.7 0-2.45-2.47-6.24-8.07-12.4-4.65-5.11-10.2-13.2-13-19-3.06-6.25-5.61-9.88-6.67-9.53-1.87.625-6.89-3.33-6.89-5.42 0-.720-2.34-6.18-5.21-12.1-2.86-5.95-6.28-13.9-7.59-17.7-2.26-6.48-2.26-7.03-.0949-10.3 1.26-1.92 3.12-3.49 4.13-3.49 1.47 0 1.27-1.83-.990-9-2.4-7.8-3.2-13.9-3.3-23 0-11.5.4-13.5 4.1-21.3 5.8-12 13-20.4 23.4-27.4 21.3-14.5 52.3-20 78.3-14 11 2.53 7.37 2.9-5.18.517-19.3-3.66-42-.125-62.4 9.72-18.9 9.08-34.6 29.4-36.9 47.6-.915 7.32 2.01 22.5 7.62 39.5 3.3 10 8.98 23.2 9.67 22.5.258-.274 1.51-8 2.79-17.2 1.28-9.17 3.71-20.4 5.41-25l3.1-8.33-5.99-1.51c-9.56-2.41-6.16-2.55 6.82-.281 7.88 1.38 16 1.85 24 1.39 15.3-.890 40.8-6.55 55-12.2l11-4.37v3.04c0 7.81 14.4 61.4 16 59.6 1.08-1.2 9.42-27.8 12.5-39.9 2.73-10.7 2.74-28.4.0241-34.9-1.14-2.73-3.69-6.76-5.67-8.96l-3.6-4 4.5 4c10.2 9.09 12.2 24.4 6.18 48.1-1.82 7.19-3.17 13.2-3 13.3.174.136 1.67.950 3.32 1.81 2.23 1.16 3 2.74 3 6.17 0 4.9-5.6 20.4-9.37 26-1.24 1.83-2.98 5.54-3.85 8.23-1.76 5.43-4.48 8.32-7.04 7.46-1.02-.339-3.64 3.43-6.65 9.54-2.73 5.56-8.53 14.2-12.9 19.2-7.44 8.52-7.94 9.53-8.48 17-.736 10.2-3.46 13.8-14.9 20-12.6 6.83-12.8 7.07-7.73 12.3 5.02 5.18 5.2 6.35 1.47 9.72-2.4 2.17-2.67 3.47-1.93 9.21.479 3.67 1.2 8.03 1.61 9.68.711 2.89.411 3-8.57 3h-9.31zm21-80.9c5.5-5.49 6.99-13.4 2.25-11.9-6.71 2.15-12.6 3.09-19.8 3.12-6.98.0289-9.58 1.36-6.46 3.29.664.411.895 1.94.512 3.41-.555 2.12.486 3.21 5.13 5.36 7.48 3.46 12.5 2.56 18.4-3.28zm-49.3-61c.262-3.3.127-6-0.3-6s-2.18 1.49-3.9 3.32c-3.03 3.22-3.05 3.4-.692 6 3.54 3.92 4.36 3.36 4.89-3.32zm22.4 5c-.005-.55-1.13-2.7-2.51-4.79l-2.5-3.79-.559 4.79c-.498 4.27-.227 4.79 2.51 4.79 1.69 0 3.06-.45 3.06-1zm34.9-3.88-.569-4.88-2.47 3.21c-3.33 4.33-3.15 6.54.540 6.54 2.74 0 3.01-.512 2.5-4.88zm5.1 4.29c0-.323-.6-.959-1.33-1.41-.733-.453-1.33-.189-1.33.588s.6 1.41 1.33 1.41c.733 0 1.33-.265 1.33-.588zm16.7-2.09c2.36-2.6 2.34-2.78-.692-6-1.9-2.02-4.6-3.32-6.89-3.32-4.21 0-5.02 2.63-1.67 5.42 1.74 1.45 2.31 1.42 3.31-.170.872-1.38 1.22-.699 1.23 2.42.0236 5 1.28 5.44 4.7 1.65zm-63.3-6.06c0-1.06-1.2-1.92-2.67-1.92-3 0-3.42 1.38-1.12 3.68 1.84 1.84 3.79.933 3.79-1.76zm-2.38-14.6c16 .028 17.9-2.26 2.51-3.12-9.73-.550-21.4 2-26.1 5.73-2.18 1.7-1.57 1.65 3.33-.275 4.43-1.74 9.73-2.35 20.3-2.33zm73 3.9c0-.408-2.85-2.03-6.33-3.6-4.95-2.24-9.01-2.88-18.6-2.93-7.8-.0401-12.8.516-13.9 1.53-1.24 1.23 1.06 1.43 10.3.886 10.9-.652 17.5.445 28.2 4.72.183.0732.333-.201.333-.608zm-28 162c0-.299 2.35-8.85 5.21-19 2.87-10.2 5.6-21.5 6.08-25.1.476-3.67 1.19-7.77 1.58-9.11.687-2.34.837-2.34 3.59.171 3.37 3.07 30.2 12.2 45.5 15.5 21.8 4.72 28.3 11.4 31.9 33.1l.839 5h-47.4c-26.1 0-47.4-.245-47.4-.544z" fill="#b6895e"/>
  <path d="m18.6 262c2.25-13.4 7.14-23.2 13.5-26.9 2.39-1.41 10.7-4.1 18.5-5.98 19.1-4.6 41.9-12.5 45.5-15.8l2.93-2.65.724 3.17c.398 1.74 1.33 7.14 2.07 12 .738 4.86 3.06 14.5 5.15 21.3 2.1 6.88 4.21 14.2 4.69 16.2l.883 3.67h-95.3zm106-1c.641-3.48 1.72-7.96 2.41-9.95 1.07-3.12.752-3.98-2.34-6.24l-3.58-2.63 5.33-5.52 5.33-5.52-3.33-2.72c-1.83-1.5-6.82-4.48-11.1-6.64-8.71-4.39-10.8-7.76-12.4-19.9-.765-5.96-1.9-8.27-6.46-13.2-7.42-8.04-13.7-17.4-16.9-25.1-2.04-4.92-3.32-6.37-5.53-6.3-2.28.0772-3.91-1.97-7.85-9.87-5.98-12-11.4-24.7-12.5-29.6-.610-2.59-.0853-4.3 1.95-6.33 3.05-3.05 5.45-3.62 5.45-1.3 0 3.43 12.5 27.9 13.4 26.3 1.05-1.93 3.28-13 4.55-22.6.801-6.08.973-6.27 8.42-9.33 6.43-2.65 9.75-3.11 21.5-2.98 11.4.120 13.5-.150 11.6-1.52-6.21-4.54-22.4-3.2-34.4 2.85l-6.24 3.14 2.65-9.55c1.46-5.25 2.91-9.98 3.23-10.5.323-.522 2.84-.427 5.59.213 16.5 3.83 49.9-2 73.3-12.8l9.67-4.45v4.08c0 3.4 4.21 24.3 6.05 30.1.354 1.11-1.14.824-4.42-.836-10.9-5.5-27.3-6.54-33.2-2.1-2.05 1.53-.476 1.75 10.9 1.52 16.8-.333 26.8 2.59 28.2 8.18 1.67 6.85 8.71 24.2 9.82 24.2 1.08 0 5.04-9.57 8.36-20.2 1.72-5.51 2.38-5.9 6.38-3.76 1.76.940 2.58 2.8 2.58 5.82 0 4.26-6.24 21.2-9.85 26.8-.958 1.47-2.48 4.93-3.38 7.69-1.6 4.88-5.66 8.49-7.96 7.08-.626-.387-2.37 2.27-3.88 5.9-3.27 7.86-9.5 17.2-16.8 25.1-4.71 5.12-5.43 6.78-6.22 14.5-1.04 10-3.51 14-11.2 18.1-2.93 1.56-7.95 4.28-11.1 6.04l-5.8 3.21 4.8 4.92c5.58 5.71 5.79 6.83 2.01 10.3-2.4 2.17-2.67 3.47-1.93 9.21.479 3.67 1.2 8.03 1.61 9.68.711 2.89.411 3-8.57 3h-9.31zm17-77.1c4.89-2.92 8.62-8.27 8.89-12.8.260-4.37.497-4.3-7.35-1.96-3.3.988-9.75 1.73-14.3 1.65-5.64-.0975-8.33.369-8.33 1.44.00022.873.544 1.92 1.21 2.33.664.411.906 1.9.537 3.31-.508 1.94.580 3.23 4.46 5.27 6.25 3.3 10.3 3.49 14.9.712zm-44.9-65.2c.262-3.3.127-6-0.3-6s-2.18 1.49-3.9 3.32c-3.03 3.22-3.05 3.4-.692 6 3.54 3.92 4.36 3.36 4.89-3.32zm22.4 5c-.005-.55-1.13-2.7-2.51-4.79l-2.5-3.79-.559 4.79c-.498 4.27-.227 4.79 2.51 4.79 1.69 0 3.06-.45 3.06-1zm34.9-3.88-.569-4.88-2.47 3.21c-3.33 4.33-3.15 6.54.540 6.54 2.74 0 3.01-.512 2.5-4.88zm5.1 4.29c0-.323-.6-.959-1.33-1.41-.733-.453-1.33-.189-1.33.588s.6 1.41 1.33 1.41c.733 0 1.33-.265 1.33-.588zm16.7-2.09c2.36-2.6 2.34-2.78-.692-6-1.9-2.02-4.6-3.32-6.89-3.32-4.21 0-5.02 2.63-1.67 5.42 1.74 1.45 2.31 1.42 3.31-.170.872-1.38 1.22-.699 1.23 2.42.0236 5 1.28 5.44 4.7 1.65zm-63.3-6.06c0-1.06-1.2-1.92-2.67-1.92-3 0-3.42 1.38-1.12 3.68 1.84 1.84 3.79.933 3.79-1.76zm43.1 149c7.98-28.3 10.1-36.8 10.8-42.3.462-3.67 1.16-7.77 1.56-9.11.688-2.35.833-2.34 3.59.149 4.2 3.79 46.6 17.6 54 17.6 1.06 0 4.6 1.33 7.87 2.96 8.1 4.05 13.1 13.1 15.6 28l.839 5h-47.5c-44.6 0-47.4-.142-46.8-2.33z" fill="#94624a"/>
  <path d="m18.7 263c2.81-15.8 7.02-24.2 13.9-27.7 2.6-1.33 10-3.67 16.5-5.22 17.6-4.17 43.7-13.2 47-16.3 2.74-2.56 2.91-2.57 3.57-.239.383 1.35 1.08 5.75 1.55 9.78.468 4.03 2.58 13 4.69 20 2.11 6.97 4.41 15.2 5.1 18.3l1.26 5.67h-94.1zm106-2c.641-3.48 1.72-7.96 2.41-9.95 1.07-3.12.752-3.98-2.34-6.24l-3.58-2.63 5.27-5.42c2.9-2.98 6.23-5.42 7.41-5.42 2.34 0 10.7 7.95 10.7 10.2 0 .768-1.26 2.54-2.8 3.93-2.4 2.17-2.67 3.47-1.93 9.21.479 3.67 1.2 8.03 1.61 9.68.711 2.89.411 3-8.57 3h-9.31zm32 .667c.691-3.12 2.71-10.3 4.5-16 1.78-5.67 3.86-14.4 4.61-19.3.755-4.96 1.7-10.5 2.1-12.2l.724-3.17 2.93 2.74c3.34 3.12 29.4 12.2 47.1 16.4 16.1 3.8 20.8 6.67 25 15.1 1.87 3.76 3.78 9.23 4.25 12.2.470 2.93 1.14 6.38 1.49 7.67.601 2.19-2.26 2.33-46.6 2.33h-47.3zm-37.6-45.3c-1.85-.917-5.56-3.17-8.25-5-4.19-2.85-5.02-4.28-5.81-9.99-.737-5.36-2.1-7.97-6.95-13.3-7.29-8.06-14.5-19.1-16.9-25.8-.963-2.7-2.44-4.74-3.28-4.55-3.07.704-6.58-2.45-8.19-7.34-.903-2.76-2.42-6.21-3.37-7.68-3.49-5.41-10.1-22.4-10.2-26.3-.0712-2.5.826-4.74 2.35-5.85 2.92-2.14 4.62-2.31 4.62-.468 0 .733-.871 1.33-1.94 1.33-1.41 0-1.14.858 1 3.18 1.61 1.75 5.29 8.02 8.17 13.9 2.88 5.92 5.69 10.5 6.25 10.1.556-.344 2.61 4.64 4.56 11.1 1.95 6.43 5.3 15 7.45 19 6.81 12.8 24.7 31.7 32.9 34.8 4.03 1.53 20.5 1.53 24.6 0 4.55-1.73 14.1-10 21.5-18.6 10.9-12.8 14.9-21 21.6-44.7 1.46-5.18 2.58-7.25 3.3-6.09.741 1.2 2.6-1.35 5.86-8.06 2.63-5.4 5.77-10.9 6.98-12.2 2.05-2.26 2.04-2.43-.0871-2.43-1.26 0-1.91-.6-1.46-1.33 2.14-3.46 7.33 1.17 7.33 6.53 0 4.17-4.49 15.8-10.6 27.3-2.26 4.29-4.11 8.62-4.11 9.62 0 2.02-4.4 4.81-6.71 4.26-.817-.193-2.44 2.05-3.62 4.98-3.09 7.74-10.3 18.7-17 25.8-5.14 5.5-5.9 7.1-6.27 13.2-.230 3.82-.850 6.95-1.38 6.95-.529.00013-3.73 1.95-7.1 4.33-5.79 4.08-6.89 4.35-19 4.67-8.29.215-14.1-.262-16.3-1.33zm-41.9-65c-1.48-4.8-4.72-10.7-8.07-14.7-2.27-2.73-2.9-4.73-2.34-7.51.780-3.9-2.77-13.4-5-13.4-3.18 0 .199 13.4 6.93 27.4 3.22 6.72 6.2 11.3 7.4 11.3 1.46 0 1.75-.810 1.08-3zm123-10c5.31-11.1 6.33-14.5 6-19.7l-.402-6.23-2.33 4.27c-1.28 2.35-2.33 6.65-2.33 9.56 0 3.58-1.01 6.52-3.1 9.07-2.59 3.14-7.56 13.5-7.56 15.8 0 .352.75.638 1.67.635.917-.003 4.55-6.05 8.07-13.4zm-81.6 34.3c-3.39-5.48-3.52-7.45-.442-6.65 2.77.725 5.98 6.79 4.19 7.9-.676.418-.884 1.32-.462 2 .422.683.481 1.24.130 1.24-.350 0-1.89-2.02-3.41-4.49zm32.9-4.32c-1.48-2.39-.233-5.87 2.87-8.05l3.03-2.12-1.93 3.82c-1.06 2.1-2.2 4.69-2.54 5.76-.357 1.14-.947 1.38-1.44.590zm-21-17c-4.56-3.74-4.56-4.6.0515-10.1l3.72-4.45-.525 5.5c-.519 5.44-.472 5.5 3.85 5.5h4.37l-3.13 3.33c-3.76 4.01-3.73 4.01-8.33.235zm-24.6-26.7c-1.14-.636-4.28-.860-6.98-.498-4.7.631-5.13.342-10.1-6.75-3.72-5.33-4.49-7.14-2.72-6.47 1.63.625 3.46-.006 5.46-1.88 2.7-2.54 4.15-2.76 14.2-2.2 12.5.692 15.6 1.85 18.2 6.67 1.34 2.5 1.39 3.93.234 6.1-.834 1.56-2.1 2.83-2.8 2.83-.708 0-1.14.741-.953 1.65.393 1.94-11.3 2.37-14.6.535zm-8.21-9.51c.262-3.3.127-6-0.3-6s-2.18 1.49-3.9 3.32c-3.03 3.22-3.05 3.4-.692 6 3.54 3.92 4.36 3.36 4.89-3.32zm22.5 4.54c0-.801-1.13-2.9-2.52-4.66l-2.52-3.21-.544 4.66c-.482 4.13-.196 4.66 2.52 4.66 1.69 0 3.07-.655 3.07-1.46zm-6.67-7.29c0-1.06-1.2-1.92-2.67-1.92-3 0-3.42 1.38-1.12 3.68 1.84 1.84 3.79.933 3.79-1.76zm34.2 11.7c-.421-1.25-1.43-3.16-2.24-4.26-2.21-2.99.616-9.08 5.04-10.9 2.03-.824 8.5-1.77 14.4-2.09 9.56-.531 11-.301 13.2 2.18 1.94 2.15 2.93 2.43 4.34 1.26 3.79-3.15 2.92-.005-1.9 6.84-4.5 6.38-5.53 7.12-10.3 7.39-2.93.165-9.02.643-13.5 1.06-6.94.646-8.31.416-8.96-1.5zm7.39-7.81-.569-4.88-2.47 3.21c-3.33 4.33-3.15 6.54.540 6.54 2.74 0 3.01-.512 2.5-4.88zm5.1 4.29c0-.323-.6-.959-1.33-1.41-.733-.453-1.33-.189-1.33.588s.6 1.41 1.33 1.41c.733 0 1.33-.265 1.33-.588zm16.7-2.09c2.36-2.6 2.34-2.78-.692-6-1.9-2.02-4.6-3.32-6.89-3.32-4.21 0-5.02 2.63-1.67 5.42 1.74 1.45 2.31 1.42 3.31-.170.872-1.38 1.22-.699 1.23 2.42.0236 5 1.28 5.44 4.7 1.65z" fill="#625955"/>
  <path d="m18.3 265c.352-1.28 1.02-4.73 1.49-7.67.470-2.93 2.38-8.41 4.25-12.2 4.17-8.4 8.94-11.3 24.9-15.1 18.1-4.29 44.8-13.5 47.6-16.4 2.32-2.5 2.46-2.5 3.11-.158.376 1.35 1.09 6.05 1.59 10.4 0.5 4.4 2.31 12.5 4.02 18s4 13.4 5.07 17.7l1.96 7.67h-47c-44.4 0-47.3-.143-46.7-2.33zm106-.788c0-1.72 0.9-6.07 2-9.67 1.99-6.51 1.98-6.56-1.48-9.38l-3.48-2.83 4.97-5.5c2.73-3.02 5.78-5.5 6.77-5.5 2.27 0 11.2 7.78 11.2 9.75 0 .813-1.49 2.7-3.31 4.2-2.97 2.44-3.19 3.27-2.15 8.05.636 2.93 1.51 7.28 1.94 9.67l.784 4.33h-8.63c-8.16 0-8.63-.170-8.63-3.12zm34-8.55c1.72-6.42 3.78-13.4 4.57-15.4.792-2.07 2.06-8.07 2.82-13.3.759-5.27 1.69-11 2.07-12.8.686-3.17.695-3.17 3.17-.509 2.75 2.95 29.3 12.1 47.6 16.5 6.47 1.53 14 4.01 16.6 5.5 5.88 3.29 11.2 13.2 12.9 24.2l1.18 7.51h-94zm-39.4-39.3c-1.85-.917-5.56-3.17-8.25-5-4.19-2.85-5.02-4.28-5.81-9.99-.737-5.36-2.1-7.97-6.95-13.3-7.29-8.06-14.5-19.1-16.9-25.8-.963-2.7-2.44-4.74-3.28-4.55-3.07.704-6.58-2.45-8.19-7.34-.903-2.76-2.42-6.21-3.37-7.68-3.49-5.41-10.1-22.4-10.2-26.3-.0712-2.5.826-4.74 2.35-5.85 2.92-2.14 4.62-2.31 4.62-.468 0 .733-.871 1.33-1.94 1.33-1.41 0-1.14.858 1 3.18 1.61 1.75 5.29 8.02 8.17 13.9 2.88 5.92 5.69 10.5 6.25 10.1.556-.344 2.61 4.64 4.56 11.1 1.95 6.43 5.3 15 7.45 19 6.81 12.8 24.7 31.7 32.9 34.8 4.03 1.53 20.5 1.53 24.6 0 4.55-1.73 14.1-10 21.5-18.6 10.9-12.8 14.9-21 21.6-44.7 1.46-5.18 2.58-7.25 3.3-6.09.741 1.2 2.6-1.35 5.86-8.06 2.63-5.4 5.77-10.9 6.98-12.2 2.05-2.26 2.04-2.43-.0871-2.43-1.26 0-1.91-.6-1.46-1.33 2.14-3.46 7.33 1.17 7.33 6.53 0 4.17-4.49 15.8-10.6 27.3-2.26 4.29-4.11 8.62-4.11 9.62 0 2.02-4.4 4.81-6.71 4.26-.817-.193-2.44 2.05-3.62 4.98-3.09 7.74-10.3 18.7-17 25.8-5.14 5.5-5.9 7.1-6.27 13.2-.230 3.82-.850 6.95-1.38 6.95-.529.00013-3.73 1.95-7.1 4.33-5.79 4.08-6.89 4.35-19 4.67-8.29.215-14.1-.262-16.3-1.33zm-41.9-64c-1.48-4.8-4.72-10.7-8.07-14.7-2.27-2.73-2.9-4.73-2.34-7.51.780-3.9-2.77-13.4-5-13.4-3.18 0 .199 13.4 6.93 27.4 3.22 6.72 6.2 11.3 7.4 11.3 1.46 0 1.75-.810 1.08-3zm123-10c5.31-11.1 6.33-14.5 6-19.7l-.402-6.23-2.33 4.27c-1.28 2.35-2.33 6.65-2.33 9.56 0 3.58-1.01 6.52-3.1 9.07-2.59 3.14-7.56 13.5-7.56 15.8 0 .352.75.638 1.67.635.917-.003 4.55-6.05 8.07-13.4zm-81.7 33.5c-3.5-6.86-3.42-8.2.220-3.68 2.43 3.02 4.35 8.96 2.89 8.96-.229 0-1.63-2.38-3.11-5.28zm33.3-6.97c-.0107-1.24.580-2.63 1.31-3.08 1.69-1.04 1.69.722 0 3.33-1.11 1.72-1.3 1.69-1.31-.255zm-21-14c-4.56-3.74-4.56-4.6.0515-10.1l3.72-4.45-.525 5.5c-.519 5.44-.472 5.5 3.85 5.5h4.37l-3.13 3.33c-3.76 4.01-3.73 4.01-8.33.235zm-24.6-26.7c-1.14-.636-4.28-.860-6.98-.498-4.7.631-5.13.342-10.1-6.75-3.72-5.33-4.49-7.14-2.72-6.47 1.63.625 3.46-.006 5.46-1.88 2.7-2.54 4.15-2.76 14.2-2.2 12.5.692 15.6 1.85 18.2 6.67 1.34 2.5 1.39 3.93.234 6.1-.834 1.56-2.1 2.83-2.8 2.83-.708 0-1.14.741-.953 1.65.393 1.94-11.3 2.37-14.6.535zm-2.49-3.5c2.02-.0142 2.24-.374 1-1.62-.88-.88-1.6-2.68-1.6-4 0-2.71-3.5-3.3-4.36-.733-.307.917-.303.0167.0081-2 .660-4.27-.491-4.54-4.65-1.08-3.57 2.98-3.67 3.86-.844 7.89 1.53 2.18 2.99 2.86 5 2.31 1.56-.420 4.01-.771 5.44-.781zm16.2-.638c1.09-2.83-4.23-9.62-8.11-10.4-4.35-.831-4.87-.130-2.98 4.01 1.22 2.67 1.2 3.55-.0892 3.98-3.1 1.03-1.66 3.31 1.68 2.67 1.83-.350 3.33-.120 3.33.511 0 1.96 5.37 1.26 6.17-.804zm28 3.55c-.421-1.25-1.43-3.16-2.24-4.26-2.21-2.99.616-9.08 5.04-10.9 2.03-.824 8.5-1.77 14.4-2.09 9.56-.531 11-.301 13.2 2.18 1.94 2.15 2.93 2.43 4.34 1.26 3.79-3.15 2.92-.005-1.9 6.84-4.5 6.38-5.53 7.12-10.3 7.39-2.93.165-9.02.643-13.5 1.06-6.94.646-8.31.416-8.96-1.5zm13.2-2.93c1.34 0 1.38-.709.167-3.32-.848-1.83-2.29-3.33-3.21-3.33-.917-.006-1.67-1-1.67-2.22 0-1.99-.254-1.98-2.63.176-5.8 5.25-4.85 10.8 1.63 9.5 2.2-.441 4.77-.801 5.71-.801zm15.3-2 3.13-3.33-3.13-3.33c-5.26-5.6-13.2-4.03-9.44 1.88 1.4 2.21.361 5.77-1.37 4.7-.656-.406-1.19-.142-1.19.586s1.65 1.57 3.67 1.88c2.02.306 4.01.645 4.43.755.422.110 2.18-1.3 3.9-3.13z" fill="#855138"/>
  <path d="m19.4 260c1.73-11 7-20.9 12.9-24.2 2.68-1.5 10.2-3.97 16.6-5.5 18.1-4.29 44.8-13.5 47.6-16.4 2.32-2.5 2.46-2.5 3.11-.158.376 1.35 1.09 6.05 1.59 10.4 0.5 4.4 2.31 12.5 4.02 18s4 13.4 5.07 17.7l1.96 7.67h-93.7zm105 4.39c0-1.72 0.9-6.07 2-9.67 1.99-6.51 1.98-6.56-1.48-9.38l-3.48-2.83 4.97-5.5c2.73-3.02 5.78-5.5 6.77-5.5 2.27 0 11.2 7.78 11.2 9.75 0 .813-1.49 2.7-3.31 4.2-2.97 2.44-3.19 3.27-2.15 8.05.636 2.93 1.51 7.28 1.94 9.67l.784 4.33h-8.63c-8.16 0-8.63-.170-8.63-3.12zm34-8.55c1.72-6.42 3.78-13.4 4.57-15.4.792-2.07 2.06-8.07 2.82-13.3.759-5.27 1.69-11 2.07-12.8.686-3.17.695-3.17 3.17-.509 2.75 2.95 29.3 12.1 47.6 16.5 16.4 3.88 20.6 6.54 25 15.7 1.96 4.14 4.05 10.7 4.64 14.5l1.08 7h-94zm-50-47c-1.25-.953-2.7-4.37-3.22-7.59-.699-4.37-2.73-7.97-8.03-14.2-8.24-9.71-12.5-16.3-15.4-23.7-1.15-2.93-2.91-5.41-3.91-5.51-.996-.0988-2.59-.249-3.55-.333-.954-.0845-2.67-2.4-3.81-5.15s-4.45-10-7.36-16.1c-2.91-6.12-4.95-12-4.54-13.1.419-1.09.167-1.59-.571-1.13-.772.477-1.32-1.11-1.32-3.84 0-4.63 2.78-8.88 5.76-8.8.864.0223.509.659-.790 1.42-1.3.756-1.94 2.06-1.43 2.89.515.833.783 4.39.597 7.9-.272 5.12.705 8.57 4.92 17.4 2.89 6.06 5.62 12.1 6.07 13.4.868 2.53 4.46 4.49 5.79 3.16.441-.441-.185-3.39-1.39-6.54-1.21-3.16-2.19-6.87-2.19-8.25s-.401-2.11-.892-1.62c-2.08 2.08-5.77-3.67-5.77-8.99l.0068-5.46 3.28 5.33c1.81 2.93 5.74 12.6 8.74 21.6 6.39 19 13.2 29.7 27.7 43.4 11 10.4 16.2 12.3 30.4 11.4 11.4-.727 15.3-2.87 27.2-15 12.6-12.9 18-21.8 23.6-39.7 3.46-10.9 5.49-15.5 6.7-15 .955.347 1.38.0519.941-.656-.437-.708.08-2.95 1.15-4.98l1.94-3.7.983 3.9c0.8 3.17.386 4.41-2.22 6.68-2.91 2.53-7.89 13.7-7.88 17.7.0165 4.06 4.36-.741 8.51-9.42 7.64-16 9-20 8.66-25.6-.180-2.96.0824-6.05.583-6.86s-.0723-1.85-1.27-2.31c-1.2-.461-1.8-1.22-1.33-1.69 1.5-1.5 6.2 3.88 6.2 7.08 0 3.43-6 18.9-11.3 29.1-1.87 3.61-3.4 7.34-3.4 8.29 0 2.05-4.88 4.93-6.57 3.88-.649-.401-3.01 3.18-5.25 7.96-4.01 8.57-13.2 21.6-18.7 26.5-1.94 1.74-2.83 4.13-2.83 7.61 0 3.5-.904 5.92-2.92 7.79-2.71 2.53-4.58 2.72-26.3 2.68-17.1-.0309-24-.510-25.7-1.78zm-35.9-73c-.426-1.06-.742-.748-.806.806-.0579 1.41.257 2.19 0.7 1.75.443-.443.490-1.59.105-2.56zm45.1 39c-1.52-2.94-1.62-3.83-.361-3.35 2.53.971 5.16 5.67 3.68 6.59-.687.425-2.18-1.03-3.32-3.24zm34-5.67c-.0107-1.24.580-2.63 1.31-3.08 1.69-1.04 1.69.722 0 3.33-1.11 1.72-1.3 1.69-1.31-.255zm-21.8-13.8-3.76-3.31 2.87-4.65c3.58-5.79 4.47-5.86 3.64-.314-.363 2.4.179 5.97 1.22 8 2.31 4.52.976 4.61-3.96.272zm-40.4-33c-4.35-6.32-5.2-8.7-2.23-6.23 1.44 1.19 2.31.794 4.03-1.84 1.72-2.62 3.32-3.36 7.32-3.36 8.15 0 19.3 2.52 21.5 4.88 1.38 1.47 1.45 1.84.214 1.14-1.39-.787-1.6-.294-.890 2.15 0.9 3.1.854 3.09-2.19-.421-1.71-1.97-4.61-3.77-6.44-4-3.38-.418-3.43-.255-1.68 5.92.363 1.28-.0103 2.33-.829 2.33s-1.49.670-1.49 1.49c0 .869 1.39 1.22 3.33.852 1.83-.350 3.33-.162 3.33.418 0 .581 1.35 1.32 3 1.63 1.65.318-2.82.660-9.94.759l-12.9.182zm13.9 3.26c2.02-.0142 2.24-.374 1-1.62-.88-.88-1.6-2.68-1.6-4 0-2.71-3.5-3.3-4.36-.733-.307.917-.303.0167.0081-2 .660-4.27-.491-4.54-4.65-1.08-3.57 2.98-3.67 3.86-.844 7.89 1.53 2.18 2.99 2.86 5 2.31 1.56-.420 4.01-.771 5.44-.781zm52.7.823c5.55-1.39 5.9-1.73 4.68-4.51-.724-1.65-2.07-3-3-3-.926 0-1.71-1.05-1.74-2.33-.0403-1.73-1.07-1.15-4 2.28-4 4.68-5.08 4.66-2.57-.0373 1.03-1.92.944-2.61-.333-2.69-4.53-.287 7.95-3.96 15.9-4.69 8.53-.776 9.22-.627 12.3 2.64 2.67 2.87 3.57 3.18 5.31 1.81 1.56-1.23 1.44-.623-.437 2.35-6.62 10.5-5.57 9.93-19.4 9.8-12.2-.112-12.4-.175-6.67-1.62zm20-2.84 3.13-3.33-3.13-3.33c-5.26-5.6-13.2-4.03-9.44 1.88 1.4 2.21.361 5.77-1.37 4.7-.656-.406-1.19-.142-1.19.586s1.65 1.57 3.67 1.88c2.02.306 4.01.645 4.43.755.422.110 2.18-1.3 3.9-3.13z" fill="#77452f"/>
  <path d="m19.3 260c.594-3.85 2.66-10.3 4.6-14.4 4.23-8.92 9.04-11.9 25.9-16 17.4-4.18 44-13.3 46.7-16 2.06-2.06 2.51-2.11 3.17-.392.423 1.1.770 3.96.770 6.35 0 4.17 1.43 10.2 8.56 35.8l3.25 11.7h-90l2.64-9.53c1.45-5.24 3.25-10.7 4-12.1.748-1.4 1.09-3.26.767-4.13-.721-1.94-6.19 10.2-7.1 15.7-1.33 8.13-1.89 10-2.97 10-.610 0-.623-3.15-.0287-7zm13.9-19c-.453-.733-.639-1.34-.412-1.34.227-.003 4.61-1.53 9.75-3.4 8.63-3.13 8.88-3.33 3.33-2.59-3.3.439-8.25 1.76-11 2.93-3.95 1.68-4.68 2.51-3.5 3.93 1.74 2.09 3.04 2.42 1.83.466zm31-11.5c-.443-.443-1.59-.490-2.56-.105-1.06.426-.748.742.806.806 1.41.0579 2.19-.257 1.75-0.7zm20.4-7.19c1.1-.711 1.4-1.29.667-1.29s-2.23.582-3.33 1.29c-1.1.711-1.4 1.29-.667 1.29s2.23-.582 3.33-1.29zm40 42.2c0-1.72 0.9-6.07 2-9.67 1.99-6.51 1.98-6.56-1.48-9.38l-3.48-2.83 4.97-5.5c2.73-3.02 5.78-5.5 6.77-5.5 2.27 0 11.2 7.78 11.2 9.75 0 .813-1.49 2.7-3.31 4.2-2.97 2.44-3.19 3.27-2.15 8.05.636 2.93 1.51 7.28 1.94 9.67l.784 4.33h-8.63c-8.16 0-8.63-.170-8.63-3.12zm32.9-4.55c1.08-4.22 3.36-12.2 5.07-17.7s3.52-13.6 4.02-18c1.41-12.4 1.67-13 4.59-10.1 2.71 2.71 29.3 11.8 46.8 16 16.9 4.07 21.7 7.03 25.9 16 3.61 7.62 6.56 21.4 4.57 21.4-1.08 0-1.64-1.87-2.97-10-.913-5.56-6.38-17.7-7.1-15.7-.326.876.0196 2.74.767 4.13.748 1.4 2.55 6.83 4 12.1l2.64 9.53h-90.2zm76-23.2c-2.32-1.19-7.22-2.55-10.9-3.02l-6.67-.864 8 2.8c9.88 3.45 10.6 4.17 8.67 8.11-1.23 2.45-.836 2.26 1.77-.857l3.34-4zm-26.6-7.31c-.443-.443-1.59-.490-2.56-.105-1.06.426-.748.742.806.806 1.41.0579 2.19-.257 1.75-0.7zm-21-7.19c-1.1-.711-2.6-1.29-3.33-1.29-.733 0-.433.582.667 1.29 1.1.711 2.6 1.29 3.33 1.29.733 0 .433-.582-.667-1.29zm-61-14.6c-3.13-.523-8.46-2.91-11.9-5.3-4.8-3.39-6.41-3.95-7.29-2.57-.802 1.27-1.13.912-1.14-1.24-.0115-1.69-3.38-7.03-7.69-12.2-7.1-8.5-13.2-17.5-11.9-17.5.304 0 2.83 3.45 5.61 7.67 6.36 9.64 21.2 24.3 27.5 27.4 6.63 3.14 24.9 3.17 31.5.0405 2.62-1.24 8.71-5.87 13.5-10.3 4.82-4.41 6.82-5.91 4.44-3.34-3.26 3.52-4.37 5.98-4.49 9.95-.141 4.72-.245 4.88-1 1.48l-.842-3.79-3.59 2.83c-7.62 6.01-21 8.82-32.8 6.86zm49.6-27.2c2.05-2.69 4-4.89 4.33-4.89.926 0-4.85 7.8-6.55 8.85-.832.514.167-1.27 2.22-3.96zm-57.2-6.15c-1.52-2.94-1.62-3.83-.361-3.35 2.53.971 5.16 5.67 3.68 6.59-.687.425-2.18-1.03-3.32-3.24zm63.3-2.75c.785-1.47 1.73-2.67 2.09-2.67.367 0 .0244 1.2-.760 2.67-.785 1.47-1.73 2.67-2.09 2.67-.367 0-.0244-1.2.760-2.67zm-29.3-2.92c-.0107-1.24.580-2.63 1.31-3.08 1.69-1.04 1.69.722 0 3.33-1.11 1.72-1.3 1.69-1.31-.255zm-71.7-9c-1.15-2.55-1.63-4.63-1.06-4.63 1.06 0 4.32 8.09 3.57 8.84-.227.227-1.36-1.67-2.51-4.22zm104 4.04c0-.733.582-2.23 1.29-3.33.711-1.1 1.29-1.4 1.29-.667s-.582 2.23-1.29 3.33c-.711 1.1-1.29 1.4-1.29.667zm-112-9c-1.47-1.47-2.65-3.42-2.63-4.33.0223-.917.729-.467 1.57 1s2.47 3.4 3.63 4.29c1.15.893 1.65 1.64 1.1 1.67-.55.0233-2.2-1.16-3.67-2.62zm115 1.33c0-.733.635-1.33 1.41-1.33.777 0 1.04.6.588 1.33-.453.733-1.09 1.33-1.41 1.33-.323 0-.588-.6-.588-1.33zm-58.3-3-2.77-3 3.29-4.67 3.29-4.67-.872 4.86c-.503 2.8-.235 6.05.631 7.67 1.98 3.7-.0721 3.59-3.57-.193zm63.6 2.5c0-.277.914-1.26 2.03-2.19 1.7-1.41 1.89-1.33 1.19.503-.717 1.87-3.22 3.18-3.22 1.69zm-119-12c-1.58-5.26-2.64-9.8-2.36-10.1.283-.283 1.82 3.78 3.41 9.03s2.66 9.79 2.36 10.1c-.296.296-1.83-3.77-3.41-9.03zm115 4.21c.0737-2.99 3.63-11.7 3.74-9.15.0557 1.2-.775 4.2-1.85 6.67-1.07 2.47-1.93 3.59-1.9 2.49zm7.85-2.19c0-.715.933-2.47 2.07-3.89 1.96-2.44 1.98-2.4.486.745-1.94 4.08-2.56 4.84-2.56 3.14zm-134-7c-.785-1.47-1.13-2.67-.760-2.67.367 0 1.31 1.2 2.09 2.67.785 1.47 1.13 2.67.760 2.67-.367 0-1.31-1.2-2.09-2.67zm138-1c.501-1.31 1.25-2.05 1.66-1.64.411.411.00085 1.49-.910 2.39-1.32 1.31-1.47 1.15-.746-.746zm-134-2c-1.84-1.84-2.24-5.97-.667-6.92 1.84-1.12 3.81 2.42 3.07 5.52-.586 2.45-1.06 2.73-2.4 1.4zm128-1.8c-.012-2.2.560-4.9 1.27-6 .742-1.15 1.3-1.34 1.31-.442.0107.857.334 2.37.717 3.37.383.998-.198 3-1.29 4.44-1.9 2.52-1.99 2.46-2.01-1.37zm-107-11l-3.46-4.87 4.56-4c4.29-3.77 5.01-3.95 12.2-3.11 12.2 1.43 15.7 2.89 15.7 6.67v3.28l-2.67-3.19c-1.47-1.76-4.17-3.38-6-3.6-3.38-.418-3.43-.255-1.68 5.92.363 1.28-.0103 2.33-.829 2.33s-1.49.670-1.49 1.49c0 .875 1.4 1.22 3.39.841 2.14-.409 3.2-.0972 2.89.845-.284.858-4.45 1.66-9.8 1.88l-9.31.387zm12.9 2.11c2.02-.0142 2.24-.374 1-1.62-.88-.88-1.6-2.68-1.6-4 0-2.71-3.5-3.3-4.36-.733-.307.917-.303.0167.0081-2 .660-4.27-.491-4.54-4.65-1.08-3.57 2.98-3.67 3.86-.844 7.89 1.53 2.18 2.99 2.86 5 2.31 1.56-.420 4.01-.771 5.44-.781zm52.7 1.32c0-.733 1.44-1.33 3.21-1.33 2.94 0 3.08-.275 1.67-3.32-.848-1.83-2.29-3.33-3.21-3.33-.917-.006-1.69-1.06-1.71-2.34-.0339-1.88-.670-1.62-3.24 1.3l-3.2 3.63.381-3.57c.433-4.06 2.68-4.97 15.8-6.37 7.72-.823 8.49-.652 11.5 2.53 1.76 1.87 3.77 3.05 4.47 2.62 1.88-1.16-1.57 5.07-4.73 8.54-2.32 2.55-4.09 3-11.8 3-5.18 0-9.1-.575-9.1-1.33zm20-3.33 3.13-3.33-3.13-3.33c-5.26-5.6-13.2-4.03-9.44 1.88 1.4 2.21.361 5.77-1.37 4.7-.656-.406-1.19-.142-1.19.586s1.65 1.57 3.67 1.88c2.02.306 4.01.645 4.43.755.422.110 2.18-1.3 3.9-3.13zm32.6-1.67c-.442-2.02-1.03-4.4-1.3-5.29-.273-.893.0865-1.98 0.8-2.43.713-.441.872-1.51.352-2.38-.538-.897.0264-.787 1.31.255 1.24 1.01 2.21 2.81 2.16 4-.0732 1.7-.368 1.59-1.35-.497-.927-1.97-1.12-1.01-.737 3.67.577 7.03-.007 8.29-1.24 2.67zm-150-3c-1.08-3.52-.989-4.44.443-4.44 1.16 0 1.81 1.59 1.81 4.44 0 2.44-.199 4.44-.443 4.44s-1.06-2-1.81-4.44zm.917-7.56c1.1-.711 2.6-1.29 3.33-1.29.733 0 .433.582-.667 1.29-1.1.711-2.6 1.29-3.33 1.29-.733 0-.433-.582.667-1.29z" fill="#622f1d"/>
  <path d="m19.8 261c.684-8.22 5.16-19.3 9.18-22.7 2.84-2.4 2.85-2.4.594.287-3.27 3.89-6.57 12.1-8.59 21.3l-1.76 8zm58.8 4.77c-3.25-8.83-5.96-17.7-5.53-18.2.288-.288 2.19 3.71 4.22 8.89s3.31 9.8 2.85 10.3c-.467.467-1.16.0133-1.53-1.01zm30.9-.524c-7-19-10.8-36-10.6-43l.169-7.54 1.05 8c.576 4.4 3.22 15.5 5.88 24.6 2.66 9.13 4.62 17.5 4.37 18.7-.345 1.56-.660 1.42-1.31-.609zm15-.376c0-1.31.875-5.66 1.94-9.67 1.94-7.26 1.93-7.3-1.49-10.1l-3.44-2.84 5.49-5.49c3.02-3.02 6.07-5.49 6.78-5.49 1.89 0 10.7 8.03 10.7 9.75 0 .813-1.56 2.72-3.46 4.24-3.19 2.54-3.36 3.18-2.14 8.05.729 2.91 1.67 7.24 2.1 9.62l.771 4.33h-8.63c-7.39 0-8.63-.342-8.63-2.38zm32 .720c0-1.16 2.15-9.51 4.78-18.6 2.63-9.05 5.25-20.1 5.83-24.5l1.05-8 .169 7.51c.117 5.18-1.47 13.2-5.12 25.8-5.15 17.9-6.71 22-6.71 17.7zm30.7.757c0-1.37 2.02-7.39 5.24-15.6 2.82-7.22 2.76-2.64-.0857 5.95-2.72 8.21-5.15 12.8-5.15 9.67zm59.5-5.76c-.971-7.32-5.06-17.8-8.56-22-2.2-2.63-2.19-2.63.639-.238 3.82 3.22 8.07 13.4 9.21 22 .507 3.82.621 6.95.255 6.95-.367 0-1.06-3-1.55-6.66zm-166-19c.451-.730-.956-2.64-3.13-4.25-4.11-3.04-5.05-6-2.41-7.63.992-.613 1.18-.363.517.703-.632 1.02.606 3.33 3.24 6.06 3.07 3.17 3.8 4.69 2.61 5.42-.973.601-1.32.476-.835-.304zm102-.214c-.384-.621 1.1-2.85 3.29-4.95s3.68-4.62 3.3-5.61c-.377-.983-.0925-1.42.632-.972 2.43 1.5 1.35 4.45-2.7 7.34-2.21 1.57-3.67 3.41-3.25 4.09.419.677.461 1.23.0944 1.23s-.981-.508-1.36-1.13zm-148-8c1.45-1.48 20.7-6.07 21.7-5.16.309.309-4.14 1.59-9.88 2.85s-11 2.6-11.8 2.98c-.889.459-.889.235 0-.673zm185-2c-6.1-1.46-10.8-2.9-10.5-3.2.826-.826 20.1 3.61 21.6 4.97.697.641.997 1.1.667 1.02-.33-.0783-5.59-1.33-11.7-2.79zm-160-5c1.47-.630 3.57-1.15 4.67-1.15 1.26 0 1.01.424-.667 1.15-1.47.630-3.57 1.15-4.67 1.15-1.26 0-1.01-.424.667-1.15zm141 0c-1.68-.722-1.93-1.15-.667-1.15 1.1 0 3.2.516 4.67 1.15 1.68.722 1.93 1.15.667 1.15-1.1 0-3.2-.516-4.67-1.15zm-124-5c1.1-.711 2.6-1.29 3.33-1.29.733 0 .433.582-.667 1.29-1.1.711-2.6 1.29-3.33 1.29-.733 0-.433-.582.667-1.29zm9.33.956c0-.251 1.8-2.18 4-4.29s4-3.23 4-2.5c0 .733-1.8 2.66-4 4.29s-4 2.75-4 2.5zm88.7-2.94c-2.17-1.77-3.63-3.55-3.24-3.94.391-.391 2.43 1.08 4.53 3.27 4.59 4.79 4.08 5.06-1.29.664zm11.3 1.99c-1.1-.711-1.4-1.29-.667-1.29s2.23.582 3.33 1.29c1.1.711 1.4 1.29.667 1.29s-2.23-.582-3.33-1.29zm-70.7-49.3c0-.733.635-1.33 1.41-1.33.777 0 1.04.6.588 1.33-.453.733-1.09 1.33-1.41 1.33-.323 0-.588-.6-.588-1.33zm-26.8-50.2-3.46-4.9 4.31-3.79 4.31-3.79 10.5 1.46c9.44 1.31 17.5 3.74 12.7 3.85-1.02.0238-1.34.730-.771 1.71.536.917-.218.624-1.68-.651-1.46-1.27-4.58-2.7-6.93-3.17l-4.28-.857 2.37 4.2c1.9 3.36 2.02 4.42.634 5.3-.955.603-1.56 1.94-1.33 2.97.298 1.39-1.35 1.97-6.26 2.22-6.32.324-6.85.0857-10.1-4.56zm13.3 2.32c1.47-.0882 1.51-0.5.176-2.1-.910-1.1-1.34-3.2-.955-4.67.511-1.95.0449-2.67-1.73-2.67-1.34 0-2.67-.703-2.95-1.56-.340-1.02-1.98-.486-4.72 1.54l-4.2 3.1 2.72 3.82c2.11 2.97 3.52 3.69 6.28 3.23 1.95-.323 4.38-.637 5.38-.697zm58.7 2.22c-.940-3.07-1.5-6.23-1.51-8.57-.0107-2.02-.620-2.67-2-2.14-1.09.419-2.54-.0748-3.21-1.1-1.02-1.55-1.53-1.46-3.04.512-1.55 2.02-1.93 2.08-2.59.370-.873-2.28 4.3-3.95 16.5-5.35 6.72-.770 7.66-.545 10.5 2.51 1.73 1.84 3.75 2.98 4.49 2.52 1.67-1.03.322 1.41-4 7.25-2.78 3.76-3.99 4.33-9.14 4.33-3.26 0-5.98-.15-6.03-.333zm13.4-4.33 3.13-3.33-3.13-3.33c-5.26-5.6-13.2-4.03-9.44 1.88 1.4 2.21.361 5.77-1.37 4.7-.656-.406-1.19-.142-1.19.586s1.65 1.57 3.67 1.88c2.02.306 4.01.645 4.43.755.422.110 2.18-1.3 3.9-3.13z" fill="#21150e"/>
 </g>
</svg>
