<?xml version="1.0" encoding="UTF-8" standalone="no"?>
<!-- Created with Inkscape (http://www.inkscape.org/) -->

<svg
   xmlns:dc="http://purl.org/dc/elements/1.1/"
   xmlns:cc="http://creativecommons.org/ns#"
   xmlns:rdf="http://www.w3.org/1999/02/22-rdf-syntax-ns#"
   xmlns:svg="http://www.w3.org/2000/svg"
   xmlns="http://www.w3.org/2000/svg"
   xmlns:sodipodi="http://sodipodi.sourceforge.net/DTD/sodipodi-0.dtd"
   xmlns:inkscape="http://www.inkscape.org/namespaces/inkscape"
   version="1.1"
   id="svg1469"
   width="266.66666"
   height="266.66666"
   viewBox="0 0 266.66666 266.66666"
   sodipodi:docname="Professor2xeye.svg"
   inkscape:version="0.92.2 (5c3e80d, 2017-08-06)">
  <metadata
     id="metadata1475">
    <rdf:RDF>
      <cc:Work
         rdf:about="">
        <dc:format>image/svg+xml</dc:format>
        <dc:type
           rdf:resource="http://purl.org/dc/dcmitype/StillImage" />
        <dc:title></dc:title>
      </cc:Work>
    </rdf:RDF>
  </metadata>
  <defs
     id="defs1473" />
  <sodipodi:namedview
     pagecolor="#ffffff"
     bordercolor="#666666"
     borderopacity="1"
     objecttolerance="10"
     gridtolerance="10"
     guidetolerance="10"
     inkscape:pageopacity="0"
     inkscape:pageshadow="2"
     inkscape:window-width="640"
     inkscape:window-height="480"
     id="namedview1471"
     showgrid="false"
     inkscape:zoom="0.88500003"
     inkscape:cx="133.33333"
     inkscape:cy="133.33333"
     inkscape:window-x="0"
     inkscape:window-y="0"
     inkscape:window-maximized="0"
     inkscape:current-layer="svg1469" />
  <path
     inkscape:connector-curvature="0"
     id="path1503"
     d="M 2.531076,134.09005 V 0.7567172 H 135.86441 269.19774 V 134.09005 267.42338 H 135.86441 2.531076 Z"
     style="fill:#fefefe;stroke-width:1.33333325" />
  <path
     inkscape:connector-curvature="0"
     id="path1501"
     d="m 17.072492,260.76351 c 5.67997,-14.94845 13.800858,-24.61953 24.724176,-29.44372 6.344736,-2.8021 36.370893,-8.09049 40.220306,-7.08385 2.746133,0.71813 15.503317,-7.81524 21.551696,-14.41608 l 3.03759,-3.31504 -5.36355,-3.71695 C 93.670007,197.54 85.39053,188.1982 82.479393,181.61709 c -1.364396,-3.08444 -2.889671,-9.59967 -3.389499,-14.47828 -0.826565,-8.06775 -1.244463,-9.00924 -4.619417,-10.4072 -3.635027,-1.50567 -4.870931,-3.62337 -7.923041,-13.57597 -0.832266,-2.71394 -2.874823,-6.94087 -4.539019,-9.3932 -5.436114,-8.01056 -7.853333,-18.72706 -4.90347,-21.73906 1.283054,-1.31007 0.366456,-10.41104 -2.579931,-25.61628 -1.778741,-9.179444 -0.993365,-16.494417 2.041341,-19.013001 1.080595,-0.896813 1.964718,-3.081005 1.964718,-4.853761 0,-3.81098 4.826781,-13.783622 6.671303,-13.783622 0.706076,0 2.764384,-2.921844 4.574019,-6.492985 3.531664,-6.969406 10.229066,-13.501736 13.856977,-13.515445 1.227068,-0.0047 3.229572,-1.763595 4.450009,-3.908796 3.526063,-6.197876 12.640667,-12.082773 18.713957,-12.082773 2.85972,0 7.1197,-1.02196 9.46662,-2.271021 6.11946,-3.2568623 33.08144,-3.2568623 39.2009,0 2.34692,1.249061 6.6069,2.271021 9.46662,2.271021 6.0444,0 15.16546,5.865869 18.7016,12.027218 1.21364,2.114648 3.51593,4.173431 5.11621,4.575075 4.4442,1.115425 10.56883,6.843167 12.51501,11.704042 0.96019,2.398181 3.67553,6.542897 6.03409,9.210477 2.35858,2.667581 4.70315,6.867581 5.21019,9.333333 0.50704,2.465753 2.14869,7.086183 3.64815,10.267621 2.52616,5.3599 2.60252,6.485252 1.04041,15.333333 -3.08284,17.461684 -3.80751,25.416104 -2.53251,27.798454 1.88822,3.52817 -0.086,12.65796 -3.92878,18.16889 -1.88496,2.70319 -4.7094,8.81489 -6.27655,13.58156 -2.12546,6.46486 -3.88146,9.34414 -6.9119,11.33333 -3.6164,2.37383 -4.16423,3.6184 -4.98858,11.33333 -0.50932,4.76667 -2.02045,11.17207 -3.35808,14.23423 -2.85134,6.52747 -11.13024,15.87428 -18.7182,21.13274 -2.95192,2.04567 -5.1986,4.19556 -4.99262,4.77752 0.20597,0.58198 4.48332,4.32754 9.50521,8.32348 6.89341,5.48514 10.20859,7.26536 13.52965,7.26536 2.41943,0 5.5106,0.33822 6.8693,0.75158 1.35868,0.41337 8.61033,1.65606 16.11477,2.76156 24.55892,3.61781 34.07538,11.29117 41.7815,33.6894 l 2.43043,7.06413 H 135.13136 14.541944 Z"
     style="fill:#3386ad;stroke-width:1.33333325" />
  <path
     inkscape:connector-curvature="0"
     id="path1499"
     d="m 16.448297,263.75671 c 3.106896,-13.04957 13.843157,-26.55737 25.208933,-31.71657 6.086696,-2.76291 29.05941,-7.21727 40.295604,-7.81324 4.248468,-0.22533 14.381133,-6.90307 20.957086,-13.81133 l 3.71218,-3.89978 -5.37147,-3.72242 c -7.579971,-5.25292 -15.859008,-14.59271 -18.771237,-21.17628 -1.364396,-3.08444 -2.889671,-9.59967 -3.389499,-14.47828 -0.826565,-8.06775 -1.244463,-9.00924 -4.619417,-10.4072 -3.635027,-1.50567 -4.870931,-3.62337 -7.923041,-13.57597 -0.832266,-2.71394 -2.874823,-6.94087 -4.539019,-9.3932 -5.436114,-8.01056 -7.853333,-18.72706 -4.90347,-21.73906 1.283054,-1.31007 0.366456,-10.41104 -2.579931,-25.61628 -1.778741,-9.179444 -0.993365,-16.494417 2.041341,-19.013001 1.080595,-0.896813 1.964718,-3.081005 1.964718,-4.853761 0,-3.81098 4.826781,-13.783622 6.671303,-13.783622 0.706076,0 2.764384,-2.921844 4.574019,-6.492985 3.531664,-6.969406 10.229066,-13.501736 13.856977,-13.515445 1.227068,-0.0047 3.229572,-1.763595 4.450009,-3.908796 3.526063,-6.197876 12.640667,-12.082773 18.713957,-12.082773 2.85972,0 7.1197,-1.02196 9.46662,-2.271021 6.11946,-3.2568623 33.08144,-3.2568623 39.2009,0 2.34692,1.249061 6.6069,2.271021 9.46662,2.271021 6.0444,0 15.16546,5.865869 18.7016,12.027218 1.21364,2.114648 3.51593,4.173431 5.11621,4.575075 4.4442,1.115425 10.56883,6.843167 12.51501,11.704042 0.96019,2.398181 3.67553,6.542897 6.03409,9.210477 2.35858,2.667581 4.70315,6.867581 5.21019,9.333333 0.50704,2.465753 2.14869,7.086183 3.64815,10.267621 2.52616,5.3599 2.60252,6.485252 1.04041,15.333333 -3.08284,17.461684 -3.80751,25.416104 -2.53251,27.798454 1.88822,3.52817 -0.086,12.65796 -3.92878,18.16889 -1.88496,2.70319 -4.7094,8.81489 -6.27655,13.58156 -2.12546,6.46486 -3.88146,9.34414 -6.9119,11.33333 -3.6164,2.37383 -4.16423,3.6184 -4.98858,11.33333 -0.50932,4.76667 -2.02045,11.17207 -3.35808,14.23423 -2.84577,6.51469 -11.12682,15.87192 -18.67704,21.10421 -2.92928,2.03 -5.32596,4.08849 -5.32596,4.57445 0,0.48595 4.17635,4.15435 9.28078,8.152 9.71942,7.61198 9.98696,7.70222 31.38589,10.58596 22.29129,3.004 32.09061,7.48887 39.31921,17.99528 3.61609,5.25582 9.34745,18.88562 9.34745,22.22927 0,3.23692 -2.46173,0.39837 -3.93912,-4.54207 -4.1819,-13.9845 -12.09304,-24.26512 -21.78248,-28.3066 -2.78021,-1.15964 -10.88021,-2.9865 -18,-4.05972 -15.15711,-2.28473 -17.28177,-2.39569 -15.54506,-0.81181 0.69667,0.63536 6.96667,1.89685 13.93333,2.80333 15.28132,1.98834 23.95293,5.45058 29.51331,11.7835 4.1304,4.70426 11.81696,19.39669 11.81897,22.5913 8.4e-4,1.32074 -24.38285,1.66667 -117.47682,1.66667 H 15.575321 Z m 16.300625,-19.79562 c 6.582538,-6.58254 13.720292,-9.4932 29.720706,-12.11966 8.66339,-1.42208 13.009098,-2.6704 12.180593,-3.4989 -1.677604,-1.6776 -23.213012,2.21566 -31.20481,5.64136 -3.259425,1.39714 -8.096886,4.71093 -10.749913,7.36396 -4.70162,4.70162 -12.806065,17.40661 -12.806065,20.07553 0,0.73333 1.796036,-1.79833 3.991189,-5.62592 2.195155,-3.8276 6.185889,-9.15396 8.8683,-11.83637 z m 79.115488,5.49653 c 0,-0.34784 -1.8,-1.56324 -4,-2.70091 -5.01451,-2.5931 -5.31792,-1.46681 -0.33333,1.23738 4.19007,2.27314 4.33333,2.32153 4.33333,1.46353 z m 58,-6.77751 c 4.4,-3.11513 10.06771,-7.82226 12.59489,-10.46029 2.70631,-2.82501 5.99446,-4.87107 8,-4.97801 3.23763,-0.17266 3.25396,-0.21047 0.3319,-0.769 -2.22,-0.42434 -4.68171,0.89524 -8.86691,4.75302 -3.18653,2.93724 -9.60359,8.13998 -14.26012,11.56162 -13.71471,10.07765 -12.07252,9.99753 2.20024,-0.10734 z m -84.666669,-11.9234 c -4.021318,-4.14894 -10.776483,-6.74709 -8.666667,-3.33333 0.453225,0.73333 1.884047,1.33333 3.179604,1.33333 1.295557,0 3.764736,1.5 5.487063,3.33334 1.722326,1.83333 3.444616,3.33333 3.827308,3.33333 0.382691,0 -1.339598,-2.1 -3.827308,-4.66667 z"
     style="fill:#92614a;stroke-width:1.33333325" />
  <path
     inkscape:connector-curvature="0"
     id="path1497"
     d="m 16.448297,263.75671 c 3.106896,-13.04957 13.843157,-26.55737 25.208933,-31.71657 6.110945,-2.77391 29.092459,-7.22197 40.38308,-7.81613 4.29862,-0.22622 10.507118,-4.01142 19.8241,-12.08635 l 5.33333,-4.62235 -4.66667,-3.62053 c -8.542478,-6.62752 -17.574424,-16.67662 -20.019137,-22.27365 -1.32875,-3.04209 -2.84302,-9.62869 -3.365043,-14.63688 -0.689061,-6.61071 -1.542828,-9.31501 -3.115809,-9.86933 -4.267993,-1.50404 -6.887107,-4.89152 -7.696749,-9.95474 -0.45264,-2.83066 -2.865444,-8.53849 -5.361786,-12.68408 -5.195735,-8.62837 -7.769338,-17.99256 -5.903265,-21.47935 1.283486,-2.39822 0.48624,-10.88278 -2.600384,-27.674146 -1.610396,-8.76063 -1.540509,-9.855242 0.978968,-15.333333 1.492242,-3.244572 3.386335,-8.335154 4.209096,-11.312403 0.822763,-2.977251 3.037143,-6.861075 4.920845,-8.630722 1.883703,-1.769646 4.522491,-5.698794 5.863975,-8.731441 2.441133,-5.518585 10.022653,-12.550559 13.548481,-12.566419 1.03078,-0.0047 2.843344,-1.712471 4.027919,-3.795188 3.544413,-6.231776 11.433558,-11.406042 17.775279,-11.6583 3.07619,-0.122363 7.65059,-1.303884 10.16534,-2.625601 6.71726,-3.5304965 33.24464,-3.4693873 39.90561,0.09193 2.56667,1.372278 6.26297,2.343085 8.21401,2.157349 4.69126,-0.4466 13.25919,4.03494 17.61827,9.21541 1.92557,2.288423 3.50105,4.594199 3.50105,5.123949 0,0.52975 2.13302,1.734491 4.74004,2.677203 4.54072,1.641947 12.59329,10.661544 12.59329,14.10561 0,0.852772 1.81339,3.287834 4.02976,5.411248 2.21636,2.123415 4.69963,6.285669 5.51836,9.249455 0.81872,2.963785 2.71179,8.048038 4.2068,11.298338 2.68803,5.84402 2.69124,6.043006 0.29024,17.921166 -1.33538,6.606341 -2.40446,17.122658 -2.37573,23.369598 0.0564,12.25723 -0.77225,15.60369 -5.64552,22.7996 -1.73821,2.56667 -4.16952,8.19327 -5.40291,12.50355 -1.82263,6.36952 -2.93726,8.0991 -5.95306,9.23744 -3.33684,1.25952 -3.79797,2.21596 -4.57863,9.49646 -1.79382,16.72982 -7.67582,26.41894 -23.42264,38.58293 l -4.66666,3.60488 5.33333,4.70556 c 8.77757,7.74436 15.15277,11.58731 19.70168,11.8761 8.87709,0.56354 27.22494,3.48742 34.29832,5.4657 14.09777,3.94286 22.74873,12.59764 28.07957,28.092 2.88501,8.38543 3.09243,9.76871 1.46481,9.76871 -0.61725,0 -1.88484,-2.55 -2.81684,-5.66667 -4.1819,-13.9845 -12.09304,-24.26512 -21.78248,-28.3066 -2.78021,-1.15964 -10.88021,-2.9865 -18,-4.05972 -15.15711,-2.28473 -17.28177,-2.39569 -15.54506,-0.81181 0.69667,0.63536 6.96667,1.89685 13.93333,2.80333 15.28132,1.98834 23.95293,5.45058 29.51331,11.7835 4.1304,4.70426 11.81696,19.39669 11.81897,22.5913 8.4e-4,1.32074 -24.38285,1.66667 -117.47682,1.66667 H 15.575321 Z m 16.300625,-19.79562 c 6.582538,-6.58254 13.720292,-9.4932 29.720706,-12.11966 8.66339,-1.42208 13.009098,-2.6704 12.180593,-3.4989 -1.677604,-1.6776 -23.213012,2.21566 -31.20481,5.64136 -3.259425,1.39714 -8.096886,4.71093 -10.749913,7.36396 -4.70162,4.70162 -12.806065,17.40661 -12.806065,20.07553 0,0.73333 1.796036,-1.79833 3.991189,-5.62592 2.195155,-3.8276 6.185889,-9.15396 8.8683,-11.83637 z m 118.881318,6.06918 c 6.7288,-4.43286 12.23417,-8.24326 12.23417,-8.46753 0,-0.45548 -12.34145,1.36579 -17,2.50875 -3.09855,0.76021 -3.92031,-0.498 -1.77307,-2.71478 0.67482,-0.69666 2.50534,-4.86666 4.06782,-9.26666 l 2.84086,-8 -0.79625,7.11954 -0.79625,7.11955 10.3951,-0.96183 c 9.55987,-0.88454 10.91559,-1.39592 16.87251,-6.36432 l 6.4774,-5.40249 -3.81037,-2.75523 c -2.09571,-1.51537 -7.0151,-5.35657 -10.93199,-8.536 -8.31367,-6.7484 -9.85995,-6.69238 -21.38319,0.77459 -9.87888,6.40144 -14.50749,6.39892 -24.47316,-0.0133 -12.02695,-7.7385 -12.29062,-7.71511 -25.521517,2.26388 -6.384839,4.81562 -12.262973,8.75564 -13.062518,8.75564 -0.799546,0 1.7402,2.54304 5.643878,5.65118 6.745107,5.37054 7.664255,5.69555 18.507507,6.54415 6.27545,0.49112 11.61398,0.694 11.86341,0.45085 0.24942,-0.24313 -0.17965,-4.50892 -0.9535,-9.47952 -0.77385,-4.9706 -1.17912,-9.26532 -0.9006,-9.54384 0.27852,-0.27852 2.03139,4.4924 3.89527,10.60206 4.59132,15.04994 5.77887,16.47358 13.60442,16.30906 5.61024,-0.118 6.03897,0.0676 3.85204,1.66667 -3.23203,2.36331 -4.09488,2.29041 -10.69219,-0.90329 -5.28597,-2.5589 -24.39431,-7.27307 -25.4008,-6.26658 -0.58847,0.58847 31.6176,16.79586 33.57435,16.89596 0.78788,0.0403 6.93788,-3.5536 13.66667,-7.98648 z m -39.76583,-0.57265 c 0,-0.34784 -1.8,-1.56324 -4,-2.70091 -5.01451,-2.5931 -5.31792,-1.46681 -0.33333,1.23738 4.19007,2.27314 4.33333,2.32153 4.33333,1.46353 z m 58,-6.77751 c 4.4,-3.11513 10.06771,-7.82226 12.59489,-10.46029 2.70631,-2.82501 5.99446,-4.87107 8,-4.97801 3.23763,-0.17266 3.25396,-0.21047 0.3319,-0.769 -2.22,-0.42434 -4.68171,0.89524 -8.86691,4.75302 -3.18653,2.93724 -9.60359,8.13998 -14.26012,11.56162 -13.71471,10.07765 -12.07252,9.99753 2.20024,-0.10734 z m -84.666669,-11.9234 c -4.021318,-4.14894 -10.776483,-6.74709 -8.666667,-3.33333 0.453225,0.73333 1.884047,1.33333 3.179604,1.33333 1.295557,0 3.764736,1.5 5.487063,3.33334 1.722326,1.83333 3.444616,3.33333 3.827308,3.33333 0.382691,0 -1.339598,-2.1 -3.827308,-4.66667 z m 42.789899,-36.66666 c 0.59164,-1.1 1.42215,-4.7 1.84557,-8 0.76177,-5.93697 0.82433,-6.00064 5.95499,-6.06104 4.68252,-0.0551 5.26062,0.31644 5.964,3.83333 0.42838,2.14191 0.77888,5.24591 0.77888,6.89779 0,4.68023 3.14873,6.55421 8.1079,4.82543 5.56963,-1.94159 21.01915,-14.5831 23.37431,-19.12596 1.03517,-1.99675 2.76343,-8.29675 3.84053,-14 1.12684,-5.96651 4.01272,-14.44292 6.79654,-19.9627 3.05816,-6.06378 4.92342,-11.73751 5.06997,-15.42172 0.1482,-3.72557 1.29844,-7.18453 3.18796,-9.58666 1.69871,-2.15955 2.95612,-5.63315 2.95612,-8.16626 0,-2.42449 0.67923,-4.82795 1.5094,-5.34102 1.0458,-0.64635 1.23384,-4.237055 0.61221,-11.690901 -0.70804,-8.490016 -1.58845,-11.664321 -4.17606,-15.056868 -1.80339,-2.364357 -3.27888,-5.510713 -3.27888,-6.991904 0,-1.760272 -1.59515,-3.450022 -4.60534,-4.878449 -2.53294,-1.201956 -5.30641,-3.030107 -6.16326,-4.062556 -2.1992,-2.649874 -6.4834,-2.323225 -11.76568,0.897077 -8.44286,5.147119 -32.97305,7.856203 -46.79906,5.16843 -4.03333,-0.784079 -10.74087,-3.191943 -14.90564,-5.35081 -4.16477,-2.158865 -8.278432,-3.92521 -9.141464,-3.92521 -0.863033,0 -3.755493,1.700315 -6.42769,3.778476 -2.672196,2.078161 -5.908539,4.15933 -7.191872,4.62482 -1.283333,0.465489 -2.333333,1.882925 -2.333333,3.149857 0,1.266931 -1.576904,4.578985 -3.504232,7.36012 -3.069865,4.429816 -3.51392,6.421977 -3.582393,16.071666 -0.04299,6.058283 0.609069,13.415062 1.449017,16.348392 0.839948,2.93334 2.682545,9.63886 4.094661,14.90117 1.412115,5.26231 4.452821,12.86307 6.757123,16.89057 2.486262,4.34553 5.27775,12.30826 6.865962,19.5852 1.471977,6.74436 3.540468,13.93354 4.596645,15.97596 3.754836,7.26105 22.198686,20.60476 27.180306,19.66434 1.0214,-0.19281 2.34116,-1.25057 2.93281,-2.35057 z m -6.17805,-20.08871 c -1.5418,-2.49466 0.68547,-3.22321 11.33183,-3.70669 10.25856,-0.46587 16.9782,1.22508 15.34831,3.86229 -1.09308,1.76866 -25.57915,1.62586 -26.68014,-0.1556 z m 7.29979,-17.04806 -3.05045,-2.47011 3.06254,-8.18917 c 1.6844,-4.50404 3.14063,-11.49142 3.23608,-15.5275 0.0954,-4.03609 0.58035,-7.33941 1.07759,-7.34073 1.63683,-0.004 2.75627,14.51167 1.80449,23.39924 -0.6513,6.08176 -0.44694,9.30703 0.67538,10.65935 2.46797,2.97373 -3.00478,2.54665 -6.80563,-0.53108 z M 95.864407,123.74411 c 0,-0.55693 1.172379,-1.74477 2.605287,-2.63963 5.260316,-3.28512 5.619336,-6.27845 1.284784,-10.71193 -2.679335,-2.74049 -3.429103,-4.27375 -2.276107,-4.65461 0.945653,-0.31237 -0.08063,-0.31366 -2.280631,-0.003 -2.2,0.31079 -5.8,1.84243 -7.999999,3.40365 l -4,2.83858 2.136089,-3.27696 c 3.181192,-4.88024 7.502325,-6.4544 21.78235,-7.93517 7.1058,-0.73683 14.13245,-1.988778 15.61479,-2.782102 1.48234,-0.793324 3.0179,-1.119672 3.41235,-0.725217 1.44796,1.447958 -0.97265,4.908489 -4.32497,6.183049 -1.89626,0.72095 -3.10292,1.86875 -2.68148,2.55066 0.42145,0.68191 -0.38877,1.60643 -1.80048,2.05449 -1.41172,0.44806 -3.51125,2.25613 -4.66563,4.01794 -1.97275,3.0108 -1.8998,3.43988 1.21405,7.14048 4.21079,5.00423 4.15832,5.55225 -0.53156,5.55225 -2.78453,0 -4.04643,-0.77221 -4.57692,-2.80082 -0.78494,-3.00161 -3.57859,-2.31501 -3.57859,0.87951 0,1.30689 -1.49235,1.92131 -4.66667,1.92131 -2.566663,0 -4.666663,-0.45568 -4.666663,-1.01261 z m 12.666673,-14.98739 c 0.45322,-0.73334 -0.14678,-1.33334 -1.33334,-1.33334 -1.18655,0 -1.78655,0.6 -1.33333,1.33334 0.45323,0.73333 1.05323,1.33333 1.33333,1.33333 0.28011,0 0.88011,-0.6 1.33334,-1.33333 z m 43.33333,15.27514 c 0,-0.39867 1.5,-2.34254 3.33333,-4.31971 4.02199,-4.33753 4.0252,-4.38291 0.61762,-8.71495 -1.82484,-2.31991 -3.46507,-3.17179 -5,-2.59684 -1.92864,0.72243 -2.02118,0.53165 -0.5943,-1.22538 1.41855,-1.74678 1.15086,-2.43426 -1.66666,-4.28038 -3.90608,-2.55935 -4.74804,-7.020317 -1.02332,-5.421813 2.34745,1.007434 7.78476,1.978821 25,4.466303 7.50094,1.08383 9.93574,2.04655 12.4017,4.90363 3.71327,4.30219 2.94503,5.9274 -0.95726,2.02511 -4.14746,-4.14746 -9.5017,-3.55465 -14.50339,1.60579 l -4.24872,4.38357 3.98716,4.36539 c 2.19295,2.40096 3.98717,4.62835 3.98717,4.94976 0,0.32141 -2.03002,0.58438 -4.51116,0.58438 -3.46184,0 -4.68152,-0.65148 -5.24358,-2.80082 -0.78494,-3.00161 -3.57859,-2.31501 -3.57859,0.87951 0,1.2459 -1.40615,1.92131 -4,1.92131 -2.2,0 -4,-0.32619 -4,-0.72486 z m 12,-15.27514 c 0,-0.73334 -0.93541,-1.33334 -2.07869,-1.33334 -1.14328,0 -1.70787,0.6 -1.25464,1.33334 0.45322,0.73333 1.38864,1.33333 2.07869,1.33333 0.69005,0 1.25464,-0.6 1.25464,-1.33333 z m -37.024,8 c 0,-2.56667 0.2744,-3.61667 0.60977,-2.33334 0.33537,1.28334 0.33537,3.38334 0,4.66667 -0.33537,1.28333 -0.60977,0.23333 -0.60977,-2.33333 z m -51.26023,33.41106 c -0.733708,-2.89058 -2.59636,-6.34058 -4.139228,-7.66666 l -2.805216,-2.41107 2.31174,3.66667 c 1.271457,2.01666 1.697908,3.66666 0.947669,3.66666 -2.181207,0 -1.583501,2.44724 1.302596,5.33334 3.676212,3.67621 3.908602,3.42368 2.382439,-2.58894 z m 124.11375,0.43064 c 0.90105,-1.97761 0.97488,-3.00552 0.1806,-2.51462 -1.747,1.0797 -1.70119,-0.13414 0.14149,-3.74807 l 1.48495,-2.91235 -2.688,2.66667 c -3.41711,3.38999 -5.42955,11.69004 -2.56815,10.59201 1.05878,-0.40629 2.61088,-2.24393 3.44911,-4.08364 z M 68.444428,122.09005 c 0.665436,-2.83506 0.490242,-2.73541 -1.172011,0.66667 -1.07492,2.2 -1.920044,5.5 -1.878056,7.33333 0.07027,3.06787 0.163603,3.01478 1.172012,-0.66667 0.602617,-2.2 1.447743,-5.5 1.878055,-7.33333 z m 135.413672,0.38357 c -1.45281,-2.26572 -1.49044,-2.26281 -0.76104,0.0588 0.42204,1.34331 0.81472,3.14331 0.87261,4 0.076,1.12421 0.28772,1.10785 0.76103,-0.0588 0.36068,-0.88904 -0.032,-2.68904 -0.8726,-4 z m 3.40087,-6.76679 c -2.0717,-2.07169 -3.08984,2.1529 -1.64319,6.81808 l 1.58196,5.10153 0.41677,-5.57364 c 0.22923,-3.0655 0.0692,-5.92119 -0.35554,-6.34597 z m -141.39013,1.24731 c -1.382183,-3.60191 -3.772575,0.56891 -2.696515,4.70496 l 0.979341,3.76428 1.237846,-3.24628 c 0.680816,-1.78546 0.896513,-4.13579 0.479328,-5.22296 z"
     style="fill:#1c769f;stroke-width:1.33333325" />
  <path
     inkscape:connector-curvature="0"
     id="path1495"
     d="m 15.864956,266.05243 c -0.0011,-4.11424 9.196777,-21.07082 14.076593,-25.95064 2.764066,-2.76406 8.077463,-6.40484 11.80755,-8.09061 5.761587,-2.60388 28.122009,-6.85737 40.994131,-7.79808 3.735887,-0.27301 10.249764,-4.38667 19.12118,-12.07544 l 5.33333,-4.62235 -4.66667,-3.62053 c -8.542478,-6.62752 -17.574424,-16.67662 -20.019137,-22.27365 -1.32875,-3.04209 -2.84302,-9.62869 -3.365043,-14.63688 -0.689061,-6.61071 -1.542828,-9.31501 -3.115809,-9.86933 -4.267993,-1.50404 -6.887107,-4.89152 -7.696749,-9.95474 -0.45264,-2.83066 -2.865444,-8.53849 -5.361786,-12.68408 -5.195735,-8.62837 -7.769338,-17.99256 -5.903265,-21.47935 1.283486,-2.39822 0.48624,-10.88278 -2.600384,-27.674146 -1.610396,-8.76063 -1.540509,-9.855242 0.978968,-15.333333 1.492242,-3.244572 3.386335,-8.335154 4.209096,-11.312403 0.822763,-2.977251 3.037143,-6.861075 4.920845,-8.630722 1.883703,-1.769646 4.522491,-5.698794 5.863975,-8.731441 2.441133,-5.518585 10.022653,-12.550559 13.548481,-12.566419 1.03078,-0.0047 2.843344,-1.712471 4.027919,-3.795188 3.544413,-6.231776 11.433558,-11.406042 17.775279,-11.6583 3.07619,-0.122363 7.65059,-1.303884 10.16534,-2.625601 6.71726,-3.5304965 33.24464,-3.4693873 39.90561,0.09193 2.56667,1.372278 6.26297,2.343085 8.21401,2.157349 4.69126,-0.4466 13.25919,4.03494 17.61827,9.21541 1.92557,2.288423 3.50105,4.594199 3.50105,5.123949 0,0.52975 2.13302,1.734491 4.74004,2.677203 4.54072,1.641947 12.59329,10.661544 12.59329,14.10561 0,0.852772 1.81339,3.287834 4.02976,5.411248 2.21636,2.123415 4.69963,6.285669 5.51836,9.249455 0.81872,2.963785 2.71179,8.048038 4.2068,11.298338 2.68803,5.84402 2.69124,6.043006 0.29024,17.921166 -1.33538,6.606341 -2.40446,17.122658 -2.37573,23.369598 0.0564,12.25723 -0.77225,15.60369 -5.64552,22.7996 -1.73821,2.56667 -4.16952,8.19327 -5.40291,12.50355 -1.82263,6.36952 -2.93726,8.0991 -5.95306,9.23744 -3.33684,1.25952 -3.79797,2.21596 -4.57863,9.49646 -1.79382,16.72982 -7.67582,26.41894 -23.42264,38.58293 l -4.66666,3.60488 5.33333,4.70556 c 8.38259,7.39587 15.14171,11.61358 19.0596,11.89322 1.98389,0.1416 10.50361,1.2339 18.93273,2.42733 17.60116,2.49204 29.87908,7.60249 35.28131,14.68517 3.91937,5.13858 9.58316,17.2744 10.67036,22.86346 0.89392,4.59542 1.0993,4.9691 -6.18459,-11.25198 -7.12088,-15.85805 -15.32692,-20.9356 -39.75941,-24.60145 l -12.66667,-1.90051 -7.33333,7.03698 c -4.03333,3.87033 -10.78857,9.80022 -15.01165,13.17753 -8.28863,6.62863 -27.65502,19.9764 -27.65502,19.06048 0,-0.30811 6.45,-5.31359 14.33334,-11.12328 7.88333,-5.80969 18.76196,-14.39704 24.17473,-19.08297 8.98357,-7.77726 9.60116,-8.62711 7.08512,-9.74979 -2.31301,-1.03209 -4.23341,0.10893 -11.94125,7.09531 -5.05174,4.57885 -16.94004,13.51672 -26.41846,19.86192 -9.47841,6.3452 -17.08348,12.27345 -16.90014,13.1739 0.18333,0.90046 -0.0339,1.63719 -0.48273,1.63719 -0.44883,0 -9.57266,-4.31449 -20.27517,-9.58775 -16.770874,-8.26322 -20.756525,-10.86526 -28.850607,-18.83514 -8.891108,-8.75467 -8.954562,-8.85798 -1.190914,-1.93884 8.680495,7.73624 23.295661,16.72964 38.046041,23.4115 7.6622,3.47095 9.25267,3.78952 11.33123,2.26964 1.32988,-0.97242 2.11889,-2.05136 1.75338,-2.39761 -0.36551,-0.34627 -8.04379,-4.2866 -17.06284,-8.75631 -18.50987,-9.17321 -25.385832,-13.6242 -32.615548,-21.11284 l -5.013817,-5.19338 -14.14198,2.34829 c -7.778089,1.29156 -17.054014,3.31552 -20.613167,4.49768 -9.834635,3.26653 -18.594271,11.98593 -25.052332,24.93723 -3.023418,6.0633 -5.497369,10.10726 -5.49767,8.98658 z M 151.63024,250.03027 c 6.7288,-4.43286 12.23417,-8.24326 12.23417,-8.46753 0,-0.45548 -12.34145,1.36579 -17,2.50875 -3.09855,0.76021 -3.92031,-0.498 -1.77307,-2.71478 0.67482,-0.69666 2.50534,-4.86666 4.06782,-9.26666 l 2.84086,-8 -0.79625,7.11954 -0.79625,7.11955 10.3951,-0.96183 c 9.55987,-0.88454 10.91559,-1.39592 16.87251,-6.36432 l 6.4774,-5.40249 -3.81037,-2.75523 c -2.09571,-1.51537 -7.0151,-5.35657 -10.93199,-8.536 -8.31367,-6.7484 -9.85995,-6.69238 -21.38319,0.77459 -9.87888,6.40144 -14.50749,6.39892 -24.47316,-0.0133 -12.02695,-7.7385 -12.29062,-7.71511 -25.521517,2.26388 -6.384839,4.81562 -12.262973,8.75564 -13.062518,8.75564 -0.799546,0 1.7402,2.54304 5.643878,5.65118 6.745107,5.37054 7.664255,5.69555 18.507507,6.54415 6.27545,0.49112 11.61398,0.694 11.86341,0.45085 0.24942,-0.24313 -0.17965,-4.50892 -0.9535,-9.47952 -0.77385,-4.9706 -1.17912,-9.26532 -0.9006,-9.54384 0.27852,-0.27852 2.03139,4.4924 3.89527,10.60206 4.59132,15.04994 5.77887,16.47358 13.60442,16.30906 5.61024,-0.118 6.03897,0.0676 3.85204,1.66667 -3.23203,2.36331 -4.09488,2.29041 -10.69219,-0.90329 -5.28597,-2.5589 -24.39431,-7.27307 -25.4008,-6.26658 -0.58847,0.58847 31.6176,16.79586 33.57435,16.89596 0.78788,0.0403 6.93788,-3.5536 13.66667,-7.98648 z m -23.6426,-55.94022 c 0.59164,-1.1 1.42215,-4.7 1.84557,-8 0.76177,-5.93697 0.82433,-6.00064 5.95499,-6.06104 4.68252,-0.0551 5.26062,0.31644 5.964,3.83333 0.42838,2.14191 0.77888,5.24591 0.77888,6.89779 0,4.68023 3.14873,6.55421 8.1079,4.82543 5.56963,-1.94159 21.01915,-14.5831 23.37431,-19.12596 1.03517,-1.99675 2.76343,-8.29675 3.84053,-14 1.12684,-5.96651 4.01272,-14.44292 6.79654,-19.9627 3.05816,-6.06378 4.92342,-11.73751 5.06997,-15.42172 0.1482,-3.72557 1.29844,-7.18453 3.18796,-9.58666 1.69871,-2.15955 2.95612,-5.63315 2.95612,-8.16626 0,-2.42449 0.67923,-4.82795 1.5094,-5.34102 1.0458,-0.64635 1.23384,-4.237055 0.61221,-11.690901 -0.70804,-8.490016 -1.58845,-11.664321 -4.17606,-15.056868 -1.80339,-2.364357 -3.27888,-5.510713 -3.27888,-6.991904 0,-1.760272 -1.59515,-3.450022 -4.60534,-4.878449 -2.53294,-1.201956 -5.30641,-3.030107 -6.16326,-4.062556 -2.1992,-2.649874 -6.4834,-2.323225 -11.76568,0.897077 -8.44286,5.147119 -32.97305,7.856203 -46.79906,5.16843 -4.03333,-0.784079 -10.74087,-3.191943 -14.90564,-5.35081 -4.16477,-2.158865 -8.278432,-3.92521 -9.141464,-3.92521 -0.863033,0 -3.755493,1.700315 -6.42769,3.778476 -2.672196,2.078161 -5.908539,4.15933 -7.191872,4.62482 -1.283333,0.465489 -2.333333,1.882925 -2.333333,3.149857 0,1.266931 -1.576904,4.578985 -3.504232,7.36012 -3.069865,4.429816 -3.51392,6.421977 -3.582393,16.071666 -0.04299,6.058283 0.609069,13.415062 1.449017,16.348392 0.839948,2.93334 2.682545,9.63886 4.094661,14.90117 1.412115,5.26231 4.452821,12.86307 6.757123,16.89057 2.486262,4.34553 5.27775,12.30826 6.865962,19.5852 1.471977,6.74436 3.540468,13.93354 4.596645,15.97596 3.754836,7.26105 22.198686,20.60476 27.180306,19.66434 1.0214,-0.19281 2.34116,-1.25057 2.93281,-2.35057 z m -6.17805,-20.08871 c -1.5418,-2.49466 0.68547,-3.22321 11.33183,-3.70669 10.25856,-0.46587 16.9782,1.22508 15.34831,3.86229 -1.09308,1.76866 -25.57915,1.62586 -26.68014,-0.1556 z m 7.29979,-17.04806 -3.05045,-2.47011 3.06254,-8.18917 c 1.6844,-4.50404 3.14063,-11.49142 3.23608,-15.5275 0.0954,-4.03609 0.58035,-7.33941 1.07759,-7.34073 1.63683,-0.004 2.75627,14.51167 1.80449,23.39924 -0.6513,6.08176 -0.44694,9.30703 0.67538,10.65935 2.46797,2.97373 -3.00478,2.54665 -6.80563,-0.53108 z M 95.864407,123.74411 c 0,-0.55693 1.172379,-1.74477 2.605287,-2.63963 5.260316,-3.28512 5.619336,-6.27845 1.284784,-10.71193 -2.679335,-2.74049 -3.429103,-4.27375 -2.276107,-4.65461 0.945653,-0.31237 -0.08063,-0.31366 -2.280631,-0.003 -2.2,0.31079 -5.8,1.84243 -7.999999,3.40365 l -4,2.83858 2.136089,-3.27696 c 3.181192,-4.88024 7.502325,-6.4544 21.78235,-7.93517 7.1058,-0.73683 14.13245,-1.988778 15.61479,-2.782102 1.48234,-0.793324 3.0179,-1.119672 3.41235,-0.725217 1.44796,1.447958 -0.97265,4.908489 -4.32497,6.183049 -1.89626,0.72095 -3.10292,1.86875 -2.68148,2.55066 0.42145,0.68191 -0.38877,1.60643 -1.80048,2.05449 -1.41172,0.44806 -3.51125,2.25613 -4.66563,4.01794 -1.97275,3.0108 -1.8998,3.43988 1.21405,7.14048 4.21079,5.00423 4.15832,5.55225 -0.53156,5.55225 -2.78453,0 -4.04643,-0.77221 -4.57692,-2.80082 -0.78494,-3.00161 -3.57859,-2.31501 -3.57859,0.87951 0,1.30689 -1.49235,1.92131 -4.66667,1.92131 -2.566663,0 -4.666663,-0.45568 -4.666663,-1.01261 z m 12.666673,-14.98739 c 0.45322,-0.73334 -0.14678,-1.33334 -1.33334,-1.33334 -1.18655,0 -1.78655,0.6 -1.33333,1.33334 0.45323,0.73333 1.05323,1.33333 1.33333,1.33333 0.28011,0 0.88011,-0.6 1.33334,-1.33333 z m 43.33333,15.27514 c 0,-0.39867 1.5,-2.34254 3.33333,-4.31971 4.02199,-4.33753 4.0252,-4.38291 0.61762,-8.71495 -1.82484,-2.31991 -3.46507,-3.17179 -5,-2.59684 -1.92864,0.72243 -2.02118,0.53165 -0.5943,-1.22538 1.41855,-1.74678 1.15086,-2.43426 -1.66666,-4.28038 -3.90608,-2.55935 -4.74804,-7.020317 -1.02332,-5.421813 2.34745,1.007434 7.78476,1.978821 25,4.466303 7.50094,1.08383 9.93574,2.04655 12.4017,4.90363 3.71327,4.30219 2.94503,5.9274 -0.95726,2.02511 -4.14746,-4.14746 -9.5017,-3.55465 -14.50339,1.60579 l -4.24872,4.38357 3.98716,4.36539 c 2.19295,2.40096 3.98717,4.62835 3.98717,4.94976 0,0.32141 -2.03002,0.58438 -4.51116,0.58438 -3.46184,0 -4.68152,-0.65148 -5.24358,-2.80082 -0.78494,-3.00161 -3.57859,-2.31501 -3.57859,0.87951 0,1.2459 -1.40615,1.92131 -4,1.92131 -2.2,0 -4,-0.32619 -4,-0.72486 z m 12,-15.27514 c 0,-0.73334 -0.93541,-1.33334 -2.07869,-1.33334 -1.14328,0 -1.70787,0.6 -1.25464,1.33334 0.45322,0.73333 1.38864,1.33333 2.07869,1.33333 0.69005,0 1.25464,-0.6 1.25464,-1.33333 z m -37.024,8 c 0,-2.56667 0.2744,-3.61667 0.60977,-2.33334 0.33537,1.28334 0.33537,3.38334 0,4.66667 -0.33537,1.28333 -0.60977,0.23333 -0.60977,-2.33333 z m -51.26023,33.41106 c -0.733708,-2.89058 -2.59636,-6.34058 -4.139228,-7.66666 l -2.805216,-2.41107 2.31174,3.66667 c 1.271457,2.01666 1.697908,3.66666 0.947669,3.66666 -2.181207,0 -1.583501,2.44724 1.302596,5.33334 3.676212,3.67621 3.908602,3.42368 2.382439,-2.58894 z m 124.11375,0.43064 c 0.90105,-1.97761 0.97488,-3.00552 0.1806,-2.51462 -1.747,1.0797 -1.70119,-0.13414 0.14149,-3.74807 l 1.48495,-2.91235 -2.688,2.66667 c -3.41711,3.38999 -5.42955,11.69004 -2.56815,10.59201 1.05878,-0.40629 2.61088,-2.24393 3.44911,-4.08364 z M 68.444428,122.09005 c 0.665436,-2.83506 0.490242,-2.73541 -1.172011,0.66667 -1.07492,2.2 -1.920044,5.5 -1.878056,7.33333 0.07027,3.06787 0.163603,3.01478 1.172012,-0.66667 0.602617,-2.2 1.447743,-5.5 1.878055,-7.33333 z m 135.413672,0.38357 c -1.45281,-2.26572 -1.49044,-2.26281 -0.76104,0.0588 0.42204,1.34331 0.81472,3.14331 0.87261,4 0.076,1.12421 0.28772,1.10785 0.76103,-0.0588 0.36068,-0.88904 -0.032,-2.68904 -0.8726,-4 z m 3.40087,-6.76679 c -2.0717,-2.07169 -3.08984,2.1529 -1.64319,6.81808 l 1.58196,5.10153 0.41677,-5.57364 c 0.22923,-3.0655 0.0692,-5.92119 -0.35554,-6.34597 z m -141.39013,1.24731 c -1.382183,-3.60191 -3.772575,0.56891 -2.696515,4.70496 l 0.979341,3.76428 1.237846,-3.24628 c 0.680816,-1.78546 0.896513,-4.13579 0.479328,-5.22296 z"
     style="fill:#8c5b45;stroke-width:1.33333325" />
  <path
     inkscape:connector-curvature="0"
     id="path1493"
     d="m 15.864956,266.05243 c -0.0011,-4.11424 9.196777,-21.07082 14.076593,-25.95064 2.764066,-2.76406 8.077463,-6.40484 11.80755,-8.09061 6.427071,-2.90464 33.541857,-7.86128 40.781975,-7.45504 2.228613,0.12507 6.757966,-2.48467 13.666666,-7.87444 5.68333,-4.43381 10.33334,-8.50748 10.33334,-9.05259 0,-0.5451 -3.0339,-3.30478 -6.741997,-6.13261 -7.951197,-6.06366 -15.108856,-14.46158 -17.785216,-20.86702 -1.05441,-2.52356 -2.344666,-8.9273 -2.867233,-14.23052 -0.773697,-7.85182 -1.37492,-9.64224 -3.237857,-9.64224 -3.321809,0 -6.340032,-3.93719 -7.400964,-9.65436 -0.50906,-2.74323 -3.075295,-8.44323 -5.702745,-12.66667 -4.596972,-7.3893 -4.790483,-8.20788 -5.129797,-21.69967 C 57.471332,105.02464 56.395668,94.824635 55.274907,90.069352 52.61564,78.786342 52.682912,75.6637 55.713309,69.719753 c 1.383563,-2.713778 2.917467,-7.076442 3.408675,-9.694809 0.491209,-2.618367 2.851424,-6.97487 5.244922,-9.681115 2.393499,-2.706245 5.142651,-6.895226 6.109228,-9.308845 1.90392,-4.75424 10.078784,-12.273074 13.358732,-12.286698 1.116248,-0.0047 2.99874,-1.712471 4.183315,-3.795188 3.544413,-6.231776 11.433558,-11.406042 17.775279,-11.6583 3.07619,-0.122363 7.65059,-1.303884 10.16534,-2.625601 6.71726,-3.5304965 33.24464,-3.4693873 39.90561,0.09193 2.56667,1.372278 6.26297,2.343085 8.21401,2.157349 4.69126,-0.4466 13.25919,4.03494 17.61827,9.21541 1.92557,2.288423 3.50105,4.594199 3.50105,5.123949 0,0.52975 2.13302,1.734491 4.74004,2.677203 4.54072,1.641947 12.59329,10.661544 12.59329,14.10561 0,0.852772 1.81339,3.287834 4.02976,5.411248 2.21636,2.123415 4.69963,6.285669 5.51836,9.249455 0.81872,2.963785 2.71179,8.048038 4.2068,11.298338 2.6691,5.802877 2.67614,6.117752 0.38959,17.42967 -1.28075,6.336019 -2.43947,17.493954 -2.57496,24.795404 -0.23033,12.413 -0.52045,13.70593 -4.4662,19.90366 -2.32092,3.64556 -5.23348,10.1549 -6.47236,14.46518 -1.82934,6.36464 -2.94956,8.09997 -5.96305,9.23744 -3.33684,1.25952 -3.79797,2.21596 -4.57863,9.49646 -1.42917,13.329 -4.28597,20.03988 -11.85902,27.85796 -3.79332,3.91606 -8.97279,8.68532 -11.50992,10.59836 -4.47339,3.37301 -4.54103,3.55776 -2.23512,6.10575 4.78842,5.29116 18.03885,13.96374 21.72492,14.21926 2.08441,0.1445 10.68638,1.23916 19.1155,2.43259 17.60116,2.49204 29.87908,7.60249 35.28131,14.68517 3.91937,5.13858 9.58316,17.2744 10.67036,22.86346 0.89392,4.59542 1.0993,4.9691 -6.18459,-11.25198 -7.12088,-15.85805 -15.32692,-20.9356 -39.75941,-24.60145 l -12.66667,-1.90051 -7.33333,7.03698 c -4.03333,3.87033 -10.78857,9.80022 -15.01165,13.17753 -8.28863,6.62863 -27.65502,19.9764 -27.65502,19.06048 0,-0.30811 6.45,-5.31359 14.33334,-11.12328 7.88333,-5.80969 18.76196,-14.39704 24.17473,-19.08297 8.98357,-7.77726 9.60116,-8.62711 7.08512,-9.74979 -2.31301,-1.03209 -4.23341,0.10893 -11.94125,7.09531 -5.05174,4.57885 -16.94004,13.51672 -26.41846,19.86192 -9.47841,6.3452 -17.08348,12.27345 -16.90014,13.1739 0.18333,0.90046 -0.0339,1.63719 -0.48273,1.63719 -0.44883,0 -9.57266,-4.31449 -20.27517,-9.58775 -16.770874,-8.26322 -20.756525,-10.86526 -28.850607,-18.83514 -8.891108,-8.75467 -8.954562,-8.85798 -1.190914,-1.93884 8.680495,7.73624 23.295661,16.72964 38.046041,23.4115 7.6622,3.47095 9.25267,3.78952 11.33123,2.26964 1.32988,-0.97242 2.11889,-2.05136 1.75338,-2.39761 -0.36551,-0.34627 -8.04379,-4.2866 -17.06284,-8.75631 -18.50987,-9.17321 -25.385832,-13.6242 -32.615548,-21.11284 l -5.013817,-5.19338 -14.14198,2.34829 c -7.778089,1.29156 -17.054014,3.31552 -20.613167,4.49768 -9.834635,3.26653 -18.594271,11.98593 -25.052332,24.93723 -3.023418,6.0633 -5.497369,10.10726 -5.49767,8.98658 z M 155.18588,247.86537 c 11.31478,-7.54899 10.96049,-8.23027 -2.78183,-5.34934 l -8.12701,1.70375 2.79368,-6.23895 c 2.72504,-6.08562 2.80416,-6.14193 3.21949,-2.29102 0.31133,2.88658 0.96793,3.73988 2.44239,3.17408 1.10912,-0.42562 5.4175,-0.78046 9.5742,-0.78855 7.11832,-0.0139 7.9749,-0.38415 14.73668,-6.37035 l 7.17908,-6.35562 -10.17908,-7.66139 c -5.59848,-4.21376 -10.17907,-8.22049 -10.17907,-8.90384 0,-1.78895 -9.99755,1.9988 -17.56373,6.65432 -8.21623,5.05549 -12.57415,5.01681 -21.3776,-0.18972 -3.88227,-2.29607 -9.06609,-4.87439 -11.51961,-5.72963 -4.18549,-1.45894 -4.76178,-1.27782 -9.33333,2.93351 -2.67982,2.46867 -8.19611,6.717 -12.258424,9.44076 l -7.386023,4.95227 6.306925,5.28886 c 6.532774,5.47826 11.578082,6.91112 25.253742,7.17206 l 6.12196,0.11681 -1.04247,-6.33333 c -1.74749,-10.61648 -1.22531,-10.7755 2.06077,-0.62752 1.7286,5.33818 3.95175,10.70052 4.94035,11.9163 1.5659,1.92575 1.49134,2.09574 -0.57877,1.31959 -6.36008,-2.3846 -27.30728,-6.84741 -25.99898,-5.53912 0.42004,0.42004 8.77629,4.89305 18.56945,9.94003 17.26974,8.90009 17.90609,9.11158 21.13907,7.0255 1.83334,-1.18294 8.12799,-5.3497 13.98814,-9.25946 z m -22.6548,0.89134 c -0.48207,-0.78 0.90127,-1.33333 3.33333,-1.33333 2.43207,0 3.8154,0.55333 3.33333,1.33333 -0.45322,0.73334 -1.95322,1.33334 -3.33333,1.33334 -1.38011,0 -2.88011,-0.6 -3.33333,-1.33334 z m -4.14266,-54.10905 c 0.44513,-1.15997 0.80932,-3.74529 0.80932,-5.74516 0,-4.95289 2.55117,-7.86916 7.33334,-8.38281 4.23165,-0.45452 4.2551,-0.40901 6.82021,13.23703 0.31661,1.6843 1.53767,3 2.78423,3 6.61933,0 23.86974,-12.53723 27.85546,-20.24476 1.12043,-2.16668 2.89587,-8.54799 3.9454,-14.18067 1.19672,-6.4226 3.90058,-14.09167 7.25148,-20.56772 2.93876,-5.67956 5.34322,-12.15936 5.34322,-14.39955 0,-2.24018 1.00125,-5.99327 2.225,-8.34018 3.60532,-6.91433 4.9471,-14.22316 4.78402,-26.05904 -0.13266,-9.634065 -0.61274,-11.788245 -3.58116,-16.071666 -1.88532,-2.720532 -3.42786,-5.874484 -3.42786,-7.008785 0,-2.205995 -12.20475,-10.460967 -15.46626,-10.460967 -1.07565,0 -4.9348,1.509607 -8.57586,3.35468 -3.64108,1.845075 -8.27114,3.235376 -10.28902,3.089561 -2.01788,-0.145816 -4.8909,0.39721 -6.38452,1.206723 -3.47961,1.885891 -23.91766,1.916067 -28.47441,0.04204 -1.91213,-0.786388 -4.6766,-1.316852 -6.14327,-1.178807 -1.46666,0.138047 -5.5375,-1.571174 -9.0463,-3.798269 -7.877348,-4.99988 -9.79996,-5.03454 -15.649908,-0.282131 -2.550418,2.071922 -5.687125,4.153091 -6.970458,4.62482 -1.283333,0.47173 -2.333333,1.894271 -2.333333,3.161203 0,1.266931 -1.576904,4.578985 -3.504232,7.36012 -3.069865,4.429816 -3.51392,6.421977 -3.582393,16.071666 -0.04299,6.058283 0.612292,13.415062 1.45618,16.348392 0.843887,2.93334 2.526318,9.23334 3.738735,14 1.212418,4.76667 4.492359,13.17818 7.28876,18.69223 2.979995,5.87607 5.751568,13.85691 6.696391,19.28248 2.276525,13.07277 4.172704,16.81505 12.185868,24.04988 10.5683,9.54177 21.14969,13.79056 22.91137,9.19969 z m -5.81216,-20.50148 c -3.41536,-2.1601 5.09339,-4.33096 14.88324,-3.79718 9.2821,0.50608 11.2776,1.25032 9.79307,3.65234 -1.08469,1.75507 -21.93686,1.87747 -24.67631,0.14484 z m 9.28815,-15.91036 c -4.41498,-1.22086 -4.74739,-4.67797 -1.40407,-14.60248 1.50557,-4.46921 2.78898,-10.69476 2.85201,-13.83456 0.11237,-5.59773 0.13982,-5.63095 1.41148,-1.70873 0.71329,2.2 0.96195,9.33881 0.5526,15.86403 -0.49272,7.854 -0.23863,12.4733 0.75177,13.66666 1.6142,1.94499 0.98285,2.03826 -4.16379,0.61508 z M 95.864407,124.07126 c 0,-0.37701 1.904715,-2.38733 4.232703,-4.46738 l 4.2327,-3.78192 -2.9879,-4.1961 c -3.774987,-5.30149 -8.380159,-6.56151 -12.975819,-3.55032 -2.490006,1.63152 -3.309577,1.77152 -2.883249,0.49254 1.268567,-3.8057 8.812525,-6.52434 21.412258,-7.71639 6.99897,-0.66217 14.03166,-1.903038 15.62821,-2.757487 3.33628,-1.785523 4.6894,-1.036968 3.53999,1.958357 -1.25626,3.27376 -6.78395,4.68631 -19.28569,4.92829 -6.36893,0.12328 -9.391335,0.45584 -6.71646,0.73902 3.52925,0.37362 5.05915,1.26336 5.57693,3.24335 0.77063,2.94692 3.55966,2.20114 3.55966,-0.95186 0,-1.25819 1.42147,-1.92131 4.11853,-1.92131 h 4.11852 l -3.45185,4.1023 c -4.23154,5.0289 -4.23222,5.08337 -0.11853,9.5198 4.27824,4.61388 4.20235,5.04457 -0.88889,5.04457 -2.32222,0 -3.82743,-0.3948 -3.3449,-0.87732 0.98128,-0.98129 -1.49293,-4.45602 -3.17295,-4.45602 -0.59412,0 -1.46109,1.2 -1.92659,2.66667 -0.5929,1.86805 -2.01738,2.66667 -4.756524,2.66667 -2.150581,0 -3.910149,-0.30846 -3.910149,-0.68546 z m 59.265483,-3.77373 c 4.22283,-5.53641 4.21692,-5.87679 -0.1816,-10.46785 l -3.58279,-3.73963 h 3.76914 c 2.07301,0 4.49425,0.99167 5.3805,2.2037 1.6328,2.23299 5.37207,1.32391 3.95899,-0.9625 -0.42365,-0.68549 1.50675,-1.22221 4.31159,-1.1988 4.22313,0.0353 4.74177,0.31971 3.07869,1.68847 -1.1,0.90533 -3.08649,2.92381 -4.41441,4.48551 -2.35926,2.77458 -2.31802,2.94926 1.80478,7.64487 l 4.2192,4.80542 h -4.04826 c -2.87727,0 -4.2931,-0.77137 -4.89464,-2.66667 -0.46551,-1.46667 -1.33247,-2.66667 -1.92659,-2.66667 -1.68003,0 -4.15424,3.47473 -3.17296,4.45602 0.48253,0.48252 -1.05321,0.87732 -3.41275,0.87732 h -4.29008 z m 27.63912,-12.5792 c -2.11516,-1.42146 -7.87537,-2.34138 -18.18941,-2.90488 -15.01411,-0.82028 -19.38186,-2.22197 -19.38186,-6.219995 0,-2.215132 0.683,-2.278608 4.20962,-0.391224 1.48553,0.795033 8.34602,1.979589 15.24553,2.632349 11.85519,1.12161 19.26984,3.44711 21.26048,6.66803 1.44863,2.34392 0.15453,2.4327 -3.14436,0.21572 z M 77.197741,154.95568 c 0,-1.97199 -3.452944,-10.02062 -5.188805,-12.09482 -1.179491,-1.4094 -1.43084,-2.14642 -0.558556,-1.63785 1.026849,0.59869 1.51439,-0.0256 1.382928,-1.77081 -0.205288,-2.72527 -2.302234,-3.89428 -2.302234,-1.28346 0,0.77662 -0.701962,0.97819 -1.559918,0.44794 -1.096052,-0.6774 -1.2557,-0.20519 -0.536876,1.58798 0.562673,1.40363 1.318209,4.35206 1.678968,6.55206 0.658709,4.01697 3.855089,8.66666 5.95781,8.66666 0.619675,0 1.126683,-0.21046 1.126683,-0.4677 z m 121.924399,-2.49564 c 2.32196,-3.31507 2.79667,-6.97302 0.73998,-5.7019 -0.7346,0.454 -0.008,-1.42397 1.61369,-4.17328 1.62213,-2.7493 2.28604,-4.5888 1.47534,-4.08777 -1.89021,1.16821 -3.08015,-1.91933 -2.29127,-5.9451 0.61194,-3.12279 0.61045,-3.12257 -0.806,0.11768 -0.7805,1.78545 -1.12363,4.01624 -0.76251,4.95729 0.36112,0.94106 0.0828,2.06564 -0.61852,2.49907 -0.70131,0.43344 -1.26592,1.50265 -1.25469,2.37604 0.012,0.95415 0.5363,0.78969 1.31292,-0.41203 0.7906,-1.22336 1.30042,-1.37853 1.31292,-0.39958 0.0107,0.88022 -0.82678,2.08022 -1.86223,2.66666 -2.31751,1.31255 -4.38115,11.06626 -2.34135,11.06626 0.77336,0 2.34014,-1.33351 3.48172,-2.96335 z M 71.039817,133.35413 c 0.455328,-1.18656 0.231799,-1.72176 -0.524015,-1.25464 -0.724933,0.44803 -1.318061,1.37919 -1.318061,2.06925 0,1.91791 0.955688,1.49528 1.842076,-0.81461 z m -2.610435,-11.26408 c 0.693024,-2.89689 0.526163,-2.8096 -1.27441,0.66667 l -2.071846,4 0.826799,-3.97514 c 0.45474,-2.18633 0.930528,-4.5507 1.057308,-5.25415 0.126773,-0.70345 -0.896217,-1.52341 -2.273325,-1.82213 -2.177919,-0.47242 -2.395501,0.0379 -1.671568,3.92082 0.457746,2.45516 1.25386,6.86393 1.76914,9.79726 l 0.936872,5.33334 0.951798,-4.66667 c 0.523488,-2.56667 1.310643,-6.16667 1.749232,-8 z m 139.302118,-1 c 0.14341,-6.11438 -1.5404,-7.34747 -3.93171,-2.87927 -1.1232,2.09873 -1.05453,4.26822 0.27798,8.78113 1.55194,5.25609 1.87749,5.61045 2.64528,2.87928 0.48156,-1.71296 0.93536,-5.66447 1.00845,-8.78114 z m -2.42849,4.22222 c 0.064,-1.55325 0.37992,-1.8692 0.80554,-0.80555 0.38516,0.9625 0.3378,2.1125 -0.1052,2.55555 -0.44306,0.44306 -0.75818,-0.34444 -0.70029,-1.75 z"
     style="fill:#615957;stroke-width:1.33333325" />
  <path
     inkscape:connector-curvature="0"
     id="path1491"
     d="m 15.864956,266.05243 c -0.0011,-4.11424 9.196777,-21.07082 14.076593,-25.95064 2.764066,-2.76406 8.077463,-6.40484 11.80755,-8.09061 6.427071,-2.90464 33.541857,-7.86128 40.781975,-7.45504 2.228613,0.12507 6.757966,-2.48467 13.666666,-7.87444 5.68333,-4.43381 10.33334,-8.50144 10.33334,-9.03917 0,-0.53774 -3.39873,-3.83528 -7.552738,-7.32788 -14.031209,-11.79716 -18.089204,-19.00923 -19.819747,-35.2246 -0.7153,-6.70243 -1.345177,-8.33333 -3.218453,-8.33333 -3.360542,0 -6.376882,-3.91287 -7.442329,-9.65436 -0.50906,-2.74323 -3.044635,-8.44323 -5.634612,-12.66667 -5.229028,-8.52689 -7.339236,-20.05563 -4.333806,-23.67695 1.322533,-1.59355 1.324173,-2.40851 0.008,-3.99436 -0.909422,-1.09579 -1.361444,-3.5201 -1.004495,-5.38736 0.356951,-1.867264 -0.111693,-5.620712 -1.041435,-8.340997 -3.037926,-8.888657 -3.01745,-21.698438 0.03961,-24.755498 1.1,-1.1 2,-3.262128 2,-4.80473 0,-4.557637 3.420092,-11.40271 7.171759,-14.353773 1.922199,-1.512001 3.494907,-3.491921 3.494907,-4.399821 0,-5.004405 13.07959,-17.997006 15.590141,-15.486454 0.430765,0.430765 1.799695,-1.150795 3.042065,-3.514577 3.180887,-6.052081 14.233653,-13.335729 19.143223,-12.615158 2.13694,0.313636 5.94776,-0.521841 8.63929,-1.894063 6.62968,-3.3800052 32.93443,-3.5497776 39.30834,-0.253698 2.34152,1.210844 6.77437,2.306392 9.85078,2.434551 7.11318,0.296325 15.7599,5.876273 18.71782,12.07908 1.54353,3.236845 3.09472,4.618168 5.18606,4.618168 3.58531,0 10.13462,6.235677 12.46935,11.872217 0.9282,2.24088 3.71984,6.229074 6.20362,8.862657 2.48379,2.633581 4.6186,6.095609 4.74404,7.693394 0.12547,1.597786 0.29386,3.912419 0.37426,5.143629 0.0804,1.23121 1.17777,3.378455 2.4386,4.771654 2.87517,3.177037 3.11325,16.327985 0.43312,23.924312 -1.02262,2.898391 -1.55202,6.877275 -1.17644,8.841967 0.37558,1.96469 -0.0293,4.43036 -0.8999,5.47927 -1.21922,1.46908 -1.22049,2.584 -0.005,4.85424 2.41476,4.512 0.74108,13.73732 -3.78139,20.84313 -2.23336,3.5091 -5.07428,9.9068 -6.31316,14.21708 -1.85871,6.46684 -2.92658,8.0913 -6.10841,9.2923 -2.12074,0.8005 -3.86778,2.07391 -3.88232,2.8298 -0.1212,6.30991 -3.13312,20.4467 -5.23324,24.56327 -1.42296,2.78921 -7.19989,9.37905 -12.83762,14.64408 -9.81779,9.16872 -10.15455,9.67876 -7.97838,12.0834 4.69811,5.19136 17.97118,13.8495 21.61915,14.10238 2.08441,0.1445 10.68639,1.23916 19.1155,2.43259 17.60116,2.49204 29.87908,7.60249 35.28131,14.68517 3.91937,5.13858 9.58316,17.2744 10.67036,22.86346 0.89392,4.59542 1.09931,4.9691 -6.18459,-11.25198 -7.12105,-15.85805 -15.32709,-20.9356 -39.75958,-24.60145 l -12.66667,-1.90051 -7.33333,7.03698 c -4.03333,3.87033 -10.78857,9.80022 -15.01165,13.17753 -8.28863,6.62863 -27.65502,19.9764 -27.65502,19.06048 0,-0.30811 6.45,-5.31359 14.33334,-11.12328 7.88333,-5.80969 18.76196,-14.39704 24.17473,-19.08297 8.98357,-7.77726 9.60116,-8.62711 7.08512,-9.74979 -2.31301,-1.03209 -4.23341,0.10893 -11.94125,7.09531 -5.05174,4.57885 -16.94004,13.51672 -26.41846,19.86192 -9.47841,6.3452 -17.08348,12.27345 -16.90014,13.1739 0.18333,0.90046 -0.0339,1.63719 -0.48273,1.63719 -0.44883,0 -9.57266,-4.31449 -20.27517,-9.58775 -16.770874,-8.26322 -20.756525,-10.86526 -28.850607,-18.83514 -8.891108,-8.75467 -8.954562,-8.85798 -1.190914,-1.93884 8.680495,7.73624 23.295661,16.72964 38.046041,23.4115 7.6622,3.47095 9.25267,3.78952 11.33123,2.26964 1.32988,-0.97242 2.11889,-2.05136 1.75338,-2.39761 -0.36551,-0.34627 -8.04379,-4.2866 -17.06284,-8.75631 -18.50987,-9.17321 -25.385832,-13.6242 -32.615548,-21.11284 l -5.013817,-5.19338 -14.14198,2.34829 c -7.778089,1.29156 -17.054014,3.31552 -20.613167,4.49768 -9.834635,3.26653 -18.594271,11.98593 -25.052332,24.93723 -3.023418,6.0633 -5.497369,10.10726 -5.49767,8.98658 z M 152.40429,250.45041 c 7.83444,-5.2227 12.57771,-9.14656 11.34884,-9.38834 -1.1612,-0.22845 -6.01813,0.38807 -10.79319,1.37004 l -8.68189,1.78542 2.79319,-6.23783 c 2.55436,-5.70449 2.82714,-5.93288 3.19053,-2.67128 0.39336,3.53067 0.48568,3.56089 9.18184,3.00717 7.18951,-0.4578 8.58881,-0.22644 7.70679,1.27422 -0.76259,1.29744 -0.32844,1.22566 1.48482,-0.24547 1.40939,-1.14347 5.70154,-4.64015 9.53811,-7.77037 l 6.97557,-5.69135 -10.64224,-7.89075 c -5.85324,-4.3399 -10.64225,-8.46662 -10.64225,-9.17048 0,-1.82245 -9.92436,1.91651 -17.56373,6.61707 -8.21623,5.05549 -12.57415,5.01681 -21.3776,-0.18972 -3.88227,-2.29607 -9.06609,-4.87439 -11.51961,-5.72963 -4.18549,-1.45894 -4.76178,-1.27782 -9.33333,2.93351 -2.67982,2.46867 -8.356253,6.82395 -12.614297,9.6784 l -7.741897,5.18992 7.115586,5.50563 c 6.901824,5.34022 7.478976,5.52489 19.211728,6.14705 l 12.09614,0.64143 -1.05701,-6.42916 c -1.76162,-10.71486 -1.24798,-10.89644 2.04623,-0.72336 1.7286,5.33818 3.95175,10.70052 4.94035,11.9163 1.5659,1.92575 1.49134,2.09574 -0.57877,1.31959 -3.07551,-1.15311 -16.30952,-4.41901 -22.24879,-5.49059 -3.732,-0.67333 -4.29897,-0.50842 -2.93643,0.85412 1.72986,1.72986 33.25829,17.93039 35.43464,18.2077 0.66362,0.0845 7.26362,-3.88411 14.66667,-8.81924 z m -19.87321,-1.6937 c -0.48207,-0.78 0.90127,-1.33333 3.33333,-1.33333 2.43207,0 3.8154,0.55333 3.33333,1.33333 -0.45322,0.73334 -1.95322,1.33334 -3.33333,1.33334 -1.38011,0 -2.88011,-0.6 -3.33333,-1.33334 z m -4.14266,-54.10905 c 0.44513,-1.15997 0.80932,-3.74529 0.80932,-5.74516 0,-4.95289 2.55117,-7.86916 7.33334,-8.38281 4.23165,-0.45452 4.2551,-0.40901 6.82021,13.23703 0.31661,1.6843 1.53767,3 2.78423,3 6.61933,0 23.86974,-12.53723 27.85546,-20.24476 1.12043,-2.16668 2.89587,-8.54799 3.9454,-14.18067 1.19672,-6.4226 3.90058,-14.09167 7.25148,-20.56772 2.93876,-5.67956 5.34322,-12.15936 5.34322,-14.39955 0,-2.24018 1.00125,-5.99327 2.225,-8.34018 3.60532,-6.91433 4.9471,-14.22316 4.78402,-26.05904 -0.13266,-9.634065 -0.61274,-11.788245 -3.58116,-16.071666 -1.88532,-2.720532 -3.42786,-5.874484 -3.42786,-7.008785 0,-2.205995 -12.20475,-10.460967 -15.46626,-10.460967 -1.07565,0 -4.9348,1.509607 -8.57586,3.35468 -3.64108,1.845075 -8.27114,3.235376 -10.28902,3.089561 -2.01788,-0.145816 -4.8909,0.39721 -6.38452,1.206723 -3.47961,1.885891 -23.91766,1.916067 -28.47441,0.04204 -1.91213,-0.786388 -4.6766,-1.316852 -6.14327,-1.178807 -1.46666,0.138047 -5.5375,-1.571174 -9.0463,-3.798269 -7.877348,-4.99988 -9.79996,-5.03454 -15.649908,-0.282131 -2.550418,2.071922 -5.687125,4.153091 -6.970458,4.62482 -1.283333,0.47173 -2.333333,1.894271 -2.333333,3.161203 0,1.266931 -1.576904,4.578985 -3.504232,7.36012 -3.069865,4.429816 -3.51392,6.421977 -3.582393,16.071666 -0.04299,6.058283 0.612292,13.415062 1.45618,16.348392 0.843887,2.93334 2.526318,9.23334 3.738735,14 1.212418,4.76667 4.492359,13.17818 7.28876,18.69223 2.979995,5.87607 5.751568,13.85691 6.696391,19.28248 2.276525,13.07277 4.172704,16.81505 12.185868,24.04988 10.5683,9.54177 21.14969,13.79056 22.91137,9.19969 z m -5.81216,-20.50148 c -3.41536,-2.1601 5.09339,-4.33096 14.88324,-3.79718 9.2821,0.50608 11.2776,1.25032 9.79307,3.65234 -1.08469,1.75507 -21.93686,1.87747 -24.67631,0.14484 z m 9.28815,-15.91036 c -4.41498,-1.22086 -4.74739,-4.67797 -1.40407,-14.60248 1.50557,-4.46921 2.78898,-10.69476 2.85201,-13.83456 0.11237,-5.59773 0.13982,-5.63095 1.41148,-1.70873 0.71329,2.2 0.96195,9.33881 0.5526,15.86403 -0.49272,7.854 -0.23863,12.4733 0.75177,13.66666 1.6142,1.94499 0.98285,2.03826 -4.16379,0.61508 z M 95.864407,124.07126 c 0,-0.37701 1.904715,-2.38733 4.232703,-4.46738 l 4.2327,-3.78192 -2.9879,-4.1961 c -3.774987,-5.30149 -8.380159,-6.56151 -12.975819,-3.55032 -2.490006,1.63152 -3.309577,1.77152 -2.883249,0.49254 1.268567,-3.8057 8.812525,-6.52434 21.412258,-7.71639 6.99897,-0.66217 14.03166,-1.903038 15.62821,-2.757487 3.33628,-1.785523 4.6894,-1.036968 3.53999,1.958357 -1.25626,3.27376 -6.78395,4.68631 -19.28569,4.92829 -6.36893,0.12328 -9.391335,0.45584 -6.71646,0.73902 3.52925,0.37362 5.05915,1.26336 5.57693,3.24335 0.77063,2.94692 3.55966,2.20114 3.55966,-0.95186 0,-1.25819 1.42147,-1.92131 4.11853,-1.92131 h 4.11852 l -3.45185,4.1023 c -4.23154,5.0289 -4.23222,5.08337 -0.11853,9.5198 4.27824,4.61388 4.20235,5.04457 -0.88889,5.04457 -2.32222,0 -3.82743,-0.3948 -3.3449,-0.87732 0.98128,-0.98129 -1.49293,-4.45602 -3.17295,-4.45602 -0.59412,0 -1.46109,1.2 -1.92659,2.66667 -0.5929,1.86805 -2.01738,2.66667 -4.756524,2.66667 -2.150581,0 -3.910149,-0.30846 -3.910149,-0.68546 z m 59.265483,-3.77373 c 4.22283,-5.53641 4.21692,-5.87679 -0.1816,-10.46785 l -3.58279,-3.73963 h 3.76914 c 2.07301,0 4.49425,0.99167 5.3805,2.2037 1.6328,2.23299 5.37207,1.32391 3.95899,-0.9625 -0.42365,-0.68549 1.50675,-1.22221 4.31159,-1.1988 4.22313,0.0353 4.74177,0.31971 3.07869,1.68847 -1.1,0.90533 -3.08649,2.92381 -4.41441,4.48551 -2.35926,2.77458 -2.31802,2.94926 1.80478,7.64487 l 4.2192,4.80542 h -4.04826 c -2.87727,0 -4.2931,-0.77137 -4.89464,-2.66667 -0.46551,-1.46667 -1.33247,-2.66667 -1.92659,-2.66667 -1.68003,0 -4.15424,3.47473 -3.17296,4.45602 0.48253,0.48252 -1.05321,0.87732 -3.41275,0.87732 h -4.29008 z m 27.63912,-12.5792 c -2.11516,-1.42146 -7.87537,-2.34138 -18.18941,-2.90488 -15.01411,-0.82028 -19.38186,-2.22197 -19.38186,-6.219995 0,-2.215132 0.683,-2.278608 4.20962,-0.391224 1.48553,0.795033 8.34602,1.979589 15.24553,2.632349 11.85519,1.12161 19.26984,3.44711 21.26048,6.66803 1.44863,2.34392 0.15453,2.4327 -3.14436,0.21572 z M 77.197741,154.95568 c 0,-1.97199 -3.452944,-10.02062 -5.188805,-12.09482 -1.179491,-1.4094 -1.43084,-2.14642 -0.558556,-1.63785 1.026849,0.59869 1.51439,-0.0256 1.382928,-1.77081 -0.205288,-2.72527 -2.302234,-3.89428 -2.302234,-1.28346 0,0.77662 -0.701962,0.97819 -1.559918,0.44794 -1.096052,-0.6774 -1.2557,-0.20519 -0.536876,1.58798 0.562673,1.40363 1.318209,4.35206 1.678968,6.55206 0.658709,4.01697 3.855089,8.66666 5.95781,8.66666 0.619675,0 1.126683,-0.21046 1.126683,-0.4677 z m 121.924399,-2.49564 c 2.32196,-3.31507 2.79667,-6.97302 0.73998,-5.7019 -0.7346,0.454 -0.008,-1.42397 1.61369,-4.17328 1.62213,-2.7493 2.28604,-4.5888 1.47534,-4.08777 -1.89021,1.16821 -3.08015,-1.91933 -2.29127,-5.9451 0.61194,-3.12279 0.61045,-3.12257 -0.806,0.11768 -0.7805,1.78545 -1.12363,4.01624 -0.76251,4.95729 0.36112,0.94106 0.0828,2.06564 -0.61852,2.49907 -0.70131,0.43344 -1.26592,1.50265 -1.25469,2.37604 0.012,0.95415 0.5363,0.78969 1.31292,-0.41203 0.7906,-1.22336 1.30042,-1.37853 1.31292,-0.39958 0.0107,0.88022 -0.82678,2.08022 -1.86223,2.66666 -2.31751,1.31255 -4.38115,11.06626 -2.34135,11.06626 0.77336,0 2.34014,-1.33351 3.48172,-2.96335 z M 71.039817,133.35413 c 0.455328,-1.18656 0.231799,-1.72176 -0.524015,-1.25464 -0.724933,0.44803 -1.318061,1.37919 -1.318061,2.06925 0,1.91791 0.955688,1.49528 1.842076,-0.81461 z m -2.610435,-11.26408 c 0.693024,-2.89689 0.526163,-2.8096 -1.27441,0.66667 l -2.071846,4 0.826799,-3.97514 c 0.45474,-2.18633 0.930528,-4.5507 1.057308,-5.25415 0.126773,-0.70345 -0.896217,-1.52341 -2.273325,-1.82213 -2.177919,-0.47242 -2.395501,0.0379 -1.671568,3.92082 0.457746,2.45516 1.25386,6.86393 1.76914,9.79726 l 0.936872,5.33334 0.951798,-4.66667 c 0.523488,-2.56667 1.310643,-6.16667 1.749232,-8 z m 139.302118,-1 c 0.14341,-6.11438 -1.5404,-7.34747 -3.93171,-2.87927 -1.1232,2.09873 -1.05453,4.26822 0.27798,8.78113 1.55194,5.25609 1.87749,5.61045 2.64528,2.87928 0.48156,-1.71296 0.93536,-5.66447 1.00845,-8.78114 z m -2.42849,4.22222 c 0.064,-1.55325 0.37992,-1.8692 0.80554,-0.80555 0.38516,0.9625 0.3378,2.1125 -0.1052,2.55555 -0.44306,0.44306 -0.75818,-0.34444 -0.70029,-1.75 z"
     style="fill:#844f37;stroke-width:1.33333325" />
  <path
     inkscape:connector-curvature="0"
     id="path1489"
     d="m 15.864956,266.05243 c -0.0011,-4.11424 9.196777,-21.07082 14.076593,-25.95064 2.764066,-2.76406 8.077463,-6.40484 11.80755,-8.09061 6.354133,-2.87168 33.601823,-7.88244 40.551122,-7.45721 3.305897,0.20228 10.850153,-4.52776 19.564189,-12.26622 l 5.33333,-4.73624 -6.6609,-5.73073 C 84.841573,188.31729 81.515622,182.83721 79.517869,167.18837 c -1.078614,-8.44901 -1.766492,-10.43165 -3.619275,-10.43165 -3.209036,0 -6.237389,-3.8451 -7.350837,-9.33334 -0.520723,-2.56666 -2.382135,-7.28264 -4.136472,-10.47994 -1.754336,-3.1973 -2.850469,-6.36217 -2.43585,-7.03304 0.414618,-0.67086 -0.04075,-1.05489 -1.01192,-0.85339 -1.062364,0.22043 -1.726438,-0.80229 -1.667028,-2.56733 0.05431,-1.61354 -0.395691,-2.62813 -1,-2.25465 -1.713252,1.05885 -1.290263,-12.0868 0.444745,-13.8218 1.1691,-1.1691 1.131041,-2.04047 -0.1569,-3.59234 -0.935216,-1.12687 -1.408343,-3.57661 -1.051393,-5.44387 0.35695,-1.867264 -0.111694,-5.620712 -1.041435,-8.340997 -3.037965,-8.888657 -3.017489,-21.698438 0.03957,-24.755498 1.1,-1.1 2,-3.262128 2,-4.80473 0,-4.557637 3.420092,-11.40271 7.171759,-14.353773 1.922199,-1.512001 3.494907,-3.491921 3.494907,-4.399821 0,-5.004405 13.07959,-17.997006 15.590141,-15.486454 0.430765,0.430765 1.799695,-1.150795 3.042065,-3.514577 3.180887,-6.052081 14.233654,-13.335729 19.143224,-12.615158 2.13694,0.313636 5.94776,-0.521841 8.63929,-1.894063 6.62968,-3.3800052 32.93443,-3.5497776 39.30834,-0.253698 2.34152,1.210844 6.77437,2.306392 9.85078,2.434551 7.11318,0.296325 15.7599,5.876273 18.71782,12.07908 1.54353,3.236845 3.09472,4.618168 5.18606,4.618168 3.58531,0 10.13462,6.235677 12.46935,11.872217 0.9282,2.24088 3.71984,6.229074 6.20362,8.862657 2.48379,2.633581 4.6186,6.095609 4.74404,7.693394 0.12547,1.597786 0.29386,3.912419 0.37426,5.143629 0.0804,1.23121 1.17777,3.378455 2.4386,4.771654 2.8944,3.198274 3.10721,16.345133 0.38928,24.048563 -1.04672,2.966729 -1.5791,6.633199 -1.18304,8.147706 0.39605,1.51452 0.2495,3.81263 -0.32567,5.10692 -1.41523,3.18466 -1.63123,8.33124 -0.31552,7.51809 1.2374,-0.76475 1.38959,6.80551 0.22424,11.15351 -0.44003,1.64175 -1.26409,2.69821 -1.83127,2.34768 -0.56716,-0.35053 -0.94894,0.40622 -0.84841,1.68166 0.10107,1.28257 -0.60637,2.15525 -1.58297,1.95262 -0.97118,-0.20151 -1.44062,0.15975 -1.04319,0.80279 0.39741,0.64304 -0.45263,3.47426 -1.88899,6.29159 -1.43636,2.81735 -2.97396,7.05417 -3.41688,9.41517 -0.90095,4.80247 -4.97091,9.85682 -7.93711,9.85682 -1.07143,0 -1.95994,0.75 -1.97447,1.66666 -0.10267,6.47963 -3.08513,20.64494 -5.23324,24.85559 -1.42296,2.78921 -7.20576,9.38455 -12.85069,14.65628 l -10.26351,9.58498 3.07989,3.2784 c 5.14038,5.47168 17.04696,13.03799 20.95046,13.31346 2.02226,0.1427 10.57338,1.2359 19.0025,2.42933 17.60116,2.49204 29.87908,7.60249 35.28131,14.68517 3.91937,5.13858 9.58316,17.2744 10.67036,22.86346 0.89392,4.59542 1.0993,4.9691 -6.18459,-11.25198 -7.12088,-15.85805 -15.32692,-20.9356 -39.75941,-24.60145 l -12.66667,-1.90051 -7.33333,7.03698 c -4.03333,3.87033 -10.78857,9.80022 -15.01165,13.17753 -8.28863,6.62863 -27.65502,19.9764 -27.65502,19.06048 0,-0.30811 6.45,-5.31359 14.33334,-11.12328 7.88333,-5.80969 18.76196,-14.39704 24.17473,-19.08297 8.98357,-7.77726 9.60116,-8.62711 7.08512,-9.74979 -2.31301,-1.03209 -4.23341,0.10893 -11.94125,7.09531 -5.05174,4.57885 -16.94004,13.51672 -26.41846,19.86192 -9.47841,6.3452 -17.08348,12.27345 -16.90014,13.1739 0.18333,0.90046 -0.0339,1.63719 -0.48273,1.63719 -0.44883,0 -9.57266,-4.31449 -20.27517,-9.58775 -16.770875,-8.26322 -20.756526,-10.86526 -28.850608,-18.83514 -8.891108,-8.75467 -8.954562,-8.85798 -1.190914,-1.93884 8.680495,7.73624 23.295662,16.72964 38.046042,23.4115 7.6622,3.47095 9.25267,3.78952 11.33123,2.26964 1.32988,-0.97242 2.11889,-2.05136 1.75338,-2.39761 -0.36551,-0.34627 -8.04379,-4.2866 -17.06284,-8.75631 -18.50987,-9.17321 -25.385833,-13.6242 -32.615549,-21.11284 l -5.013817,-5.19338 -14.14198,2.34829 c -7.778089,1.29156 -17.054014,3.31552 -20.613167,4.49768 -9.834635,3.26653 -18.594271,11.98593 -25.052332,24.93723 -3.023418,6.0633 -5.497369,10.10726 -5.49767,8.98658 z M 152.09246,250.67022 c 7.23155,-4.81424 17.75927,-12.41736 23.39494,-16.8958 9.05197,-7.19328 9.96501,-8.31025 7.83113,-9.58017 -3.45743,-2.05762 -18.65248,-14.1454 -19.49805,-15.51087 -0.39083,-0.63113 -3.39083,-0.15008 -6.66667,1.06899 -8.31987,3.09616 -34.27685,3.08913 -42.6123,-0.012 l -5.98957,-2.22804 -4.6771,4.48928 c -2.57241,2.46912 -8.146514,6.89292 -12.38691,9.83068 l -7.709811,5.34138 5.709811,4.56538 c 3.140396,2.51096 7.768473,6.01704 10.284617,7.79129 4.658193,3.28471 35.766833,19.45875 37.965073,19.73884 0.66362,0.0845 7.12328,-3.78519 14.35484,-8.59943 z m -22.86013,-60.58017 c 0.91498,-7.82861 1.98933,-9.33333 6.66385,-9.33333 4.2696,0 6.6349,3.01948 6.6349,8.46996 0,4.89476 1.34024,7.53376 3.80932,7.50076 7.16485,-0.0957 25.63712,-13.92886 28.44573,-21.30179 0.69887,-1.83457 2.19,-7.8356 3.31365,-13.3356 1.12364,-5.5 4.27951,-14.5 7.01303,-20 2.73352,-5.5 5.9962,-13.9 7.25039,-18.66667 1.2542,-4.76666 2.96657,-11.06666 3.80528,-14 0.8387,-2.93333 1.45593,-10.339693 1.37162,-16.45858 -0.13266,-9.634065 -0.61274,-11.788245 -3.58116,-16.071666 -1.88532,-2.720532 -3.42786,-5.863121 -3.42786,-6.983533 0,-2.306256 -11.8809,-10.486219 -15.23059,-10.486219 -1.20527,0 -5.17047,1.509607 -8.81153,3.35468 -3.64108,1.845075 -8.27114,3.263499 -10.28902,3.152056 -2.01788,-0.11144 -5.20217,0.419733 -7.07621,1.180392 -4.57129,1.855452 -23.74703,1.84046 -27.18246,-0.02125 -1.50894,-0.817718 -4.29969,-1.374679 -6.20167,-1.237695 -1.97391,0.142167 -5.97978,-1.459593 -9.33334,-3.731964 -3.23135,-2.189561 -6.918042,-3.991941 -8.192644,-4.005286 -3.566972,-0.03735 -17.015875,9.570706 -17.015875,12.156338 0,1.254805 -1.586623,4.167058 -3.52583,6.471674 -3.230985,3.839808 -3.521745,5.158472 -3.476981,15.768967 0.05773,13.684446 0.661838,18.537946 2.806069,22.544476 0.87202,1.62938 2.180319,6.12866 2.90733,9.9984 0.727012,3.86973 3.71985,11.83588 6.650753,17.70255 3.27788,6.5612 6.086612,14.73368 7.297534,21.2334 2.129199,11.42865 5.854235,18.18002 12.908214,23.39526 7.97855,5.89879 15.11054,9.40187 18.43291,9.05384 2.88704,-0.30242 3.42723,-1.15249 4.03459,-6.34917 z m -5.33055,-15.94869 c -3.04781,-1.92747 1.81539,-3.38464 11.29596,-3.38464 4.4,0 9.18319,0.48228 10.6293,1.07172 4.60414,1.87669 -0.41252,3.5541 -10.6293,3.5541 -5.13333,0 -10.21652,-0.55853 -11.29596,-1.24118 z m 7.24225,-17.92571 c -2.48211,-1.81496 -2.48999,-2.07921 -0.24825,-8.33333 1.27333,-3.55242 2.35436,-9.45894 2.40227,-13.1256 0.0647,-4.94939 0.3823,-5.97976 1.23303,-4 1.57506,3.66537 1.59678,12.4323 0.0442,17.84577 -0.8444,2.94427 -0.82822,5.35599 0.0469,6.9912 1.58468,2.961 0.0869,3.22883 -3.47819,0.62196 z M 99.752743,120.20526 c 4.617027,-4.76356 4.591267,-5.66071 -0.319109,-11.11521 l -2.700731,-3 h 4.076907 c 3.05883,0 4.26538,0.72068 4.83161,2.88594 0.63503,2.42838 1.08015,2.61582 2.80749,1.18225 1.12904,-0.93702 1.724,-2.23569 1.32213,-2.88593 -0.40187,-0.65024 1.21699,-1.18226 3.59747,-1.18226 h 4.32814 l -3.58278,3.73963 c -4.40808,4.60103 -4.42765,5.37648 -0.24946,9.88247 4.0989,4.42048 4.13858,5.04457 0.32073,5.04457 -1.65693,0 -3.76202,-1.2 -4.67797,-2.66667 -0.91594,-1.46667 -2.21984,-2.66667 -2.89754,-2.66667 -0.6777,0 -1.61305,1.2 -2.07855,2.66667 -0.60879,1.91813 -2.01738,2.66667 -5.018078,2.66667 h -4.171707 z m 55.377147,0.0923 c 4.22283,-5.53641 4.21692,-5.8768 -0.1816,-10.46786 l -3.58279,-3.73962 h 3.76914 c 2.07301,0 4.58526,1.05 5.58278,2.33333 1.7273,2.22223 1.90002,2.22223 3.62731,0 0.99752,-1.28333 3.16873,-2.33333 4.82492,-2.33333 h 3.01127 l -3.50896,4.60048 -3.50896,4.60049 4.15549,4.73285 4.15549,4.73282 h -4.04826 c -2.87727,0 -4.2931,-0.77137 -4.89464,-2.66667 -0.46551,-1.46667 -1.40086,-2.66667 -2.07855,-2.66667 -0.67771,0 -1.9816,1.2 -2.89755,2.66667 -0.91594,1.46667 -3.05157,2.66667 -4.74582,2.66667 h -3.08046 l 3.40119,-4.45919 z M 85.443313,108.76894 c 1.328134,-4.15643 8.661614,-6.75405 22.448657,-7.95161 7.49595,-0.65111 14.27627,-1.831113 15.06738,-2.622226 2.01838,-2.018379 3.57173,-1.789025 3.57173,0.527371 0,3.647875 -6.98749,5.685655 -21.65255,6.314605 -11.642294,0.49932 -14.85681,1.09135 -17.194808,3.16688 -2.082824,1.849 -2.700472,2.00476 -2.240409,0.56498 z m 98.062337,-0.94241 c -1.69017,-1.69018 -5.88387,-2.38708 -18.09592,-3.00716 -15.85548,-0.80507 -20.21199,-2.14701 -20.21199,-6.225915 0,-2.160123 1.5835,-2.386575 3.47336,-0.496718 0.73702,0.737014 7.45998,1.923143 14.93992,2.635833 12.7996,1.21956 20.27428,3.48856 22.30235,6.77004 1.50209,2.43043 -0.0873,2.64427 -2.40772,0.32392 z M 77.106002,154.42338 c -0.05045,-0.55 -1.479232,-6.4 -3.175056,-13 -2.129816,-8.28905 -3.384906,-11.27226 -4.058558,-9.64674 -0.536384,1.29429 -0.637451,3.69429 -0.224594,5.33333 0.738055,2.93008 0.716742,2.93533 -1.270281,0.31341 -1.962391,-2.58942 -1.9138,-5.8255 0.215335,-14.34099 0.5637,-2.25452 0.279764,-4.44419 -0.734799,-5.66667 -2.547297,-3.0693 -5.326975,-2.4035 -5.326975,1.27594 0,3.80213 3.230814,16.76554 5.060167,20.30355 0.690524,1.33549 1.658044,4.65888 2.150043,7.38531 0.491998,2.72642 1.813832,5.87642 2.937405,7 2.156232,2.15624 4.581869,2.7276 4.427313,1.04286 z M 198.8427,153.09005 c 1.13204,-1.28333 2.45719,-4.43333 2.94476,-7 0.48759,-2.56667 1.72148,-6.76667 2.74199,-9.33333 5.44622,-13.69779 5.02842,-25.93432 -0.64839,-18.98973 -2.29349,2.80567 -2.31996,3.36864 -0.38948,8.28315 1.7958,4.57166 1.82532,5.85584 0.22204,9.6564 l -1.84921,4.38351 -0.6844,-5.33333 c -0.65875,-5.13356 -0.79611,-4.89812 -3.66667,6.28508 -1.64024,6.39013 -2.98226,12.24013 -2.98226,13 0,2.09888 2.0125,1.65464 4.31162,-0.95175 z"
     style="fill:#744834;stroke-width:1.33333325" />
  <path
     inkscape:connector-curvature="0"
     id="path1487"
     d="m 15.864956,266.05243 c -0.0011,-4.11424 9.196777,-21.07082 14.076593,-25.95064 7.240961,-7.24096 16.340738,-10.82968 33.922859,-13.37829 8.433333,-1.22245 15.741874,-2.47487 16.241202,-2.78313 0.499328,-0.30827 1.290787,0.0591 1.758797,0.81634 0.468011,0.75726 1.424336,1.02246 2.125167,0.58931 0.700831,-0.43313 1.109372,-0.0357 0.907869,0.88311 -0.663056,3.0235 17.983267,15.85632 35.958057,24.74713 l 17.65775,8.734 13.36375,-8.8966 c 17.09856,-11.38297 33.61637,-24.49992 32.70633,-25.9724 -0.86399,-1.39795 3.47663,-1.07892 23.27341,1.71056 17.60096,2.48007 29.87337,7.58461 35.28131,14.67477 3.91937,5.13858 9.58316,17.2744 10.67036,22.86346 0.89392,4.59542 1.0993,4.9691 -6.18459,-11.25198 -7.12088,-15.85805 -15.32692,-20.9356 -39.75941,-24.60145 l -12.66667,-1.90051 -7.33333,7.03698 c -4.03333,3.87033 -10.78857,9.80022 -15.01165,13.17753 -8.28863,6.62863 -27.65502,19.9764 -27.65502,19.06048 0,-0.30811 6.45,-5.31359 14.33334,-11.12328 7.88333,-5.80969 18.76196,-14.39704 24.17473,-19.08297 8.98357,-7.77726 9.60116,-8.62711 7.08512,-9.74979 -2.31301,-1.03209 -4.23341,0.10893 -11.94125,7.09531 -5.05174,4.57885 -16.94004,13.51672 -26.41846,19.86192 -9.47841,6.3452 -17.08348,12.27345 -16.90014,13.1739 0.18333,0.90046 -0.0339,1.63719 -0.48273,1.63719 -0.44883,0 -9.57266,-4.31449 -20.27517,-9.58775 -16.770874,-8.26322 -20.756525,-10.86526 -28.850607,-18.83514 -8.891108,-8.75467 -8.954562,-8.85798 -1.190914,-1.93884 8.680495,7.73624 23.295661,16.72964 38.046041,23.4115 7.6622,3.47095 9.25267,3.78952 11.33123,2.26964 1.32988,-0.97242 2.11889,-2.05136 1.75338,-2.39761 -0.36551,-0.34627 -8.04379,-4.2866 -17.06284,-8.75631 -18.50987,-9.17321 -25.385832,-13.6242 -32.615548,-21.11284 l -5.013817,-5.19338 -14.14198,2.34829 c -7.778089,1.29156 -17.054014,3.31552 -20.613167,4.49768 -9.834635,3.26653 -18.594271,11.98593 -25.052332,24.93723 -3.023418,6.0633 -5.497369,10.10726 -5.49767,8.98658 z M 89.138413,222.4619 c 7.174531,-5.19759 17.392667,-13.90685 17.392667,-14.82439 0,-0.53497 -3.39873,-3.83026 -7.552738,-7.32286 -14.031209,-11.79716 -18.089204,-19.00923 -19.819747,-35.2246 -0.692325,-6.48716 -1.377278,-8.33785 -3.09177,-8.35375 -1.644568,-0.0152 -1.769736,-0.29497 -0.494167,-1.10438 1.359467,-0.86266 1.099309,-3.58083 -1.274185,-13.31292 -2.955679,-12.11924 -5.063135,-15.629 -5.141277,-8.56228 -0.03541,3.20294 -0.217362,3.36274 -1.438656,1.26352 -0.993755,-1.70812 -0.915188,-4.28742 0.271657,-8.91825 1.767533,-6.89655 0.484589,-10.67861 -3.622383,-10.67861 -2.270086,0 -2.530405,9.54586 -0.370382,13.5819 1.066254,1.99231 1.066254,2.49263 0,1.83365 -2.056316,-1.27087 -1.751256,0.76232 0.576046,3.83929 1.076679,1.4235 1.954522,3.2235 1.950766,4 -0.0037,0.77651 -1.439851,-0.95564 -3.191319,-3.84921 -1.751466,-2.89357 -2.84643,-6.14199 -2.43325,-7.21872 0.436314,-1.13702 0.178053,-1.60345 -0.616072,-1.11265 -0.844782,0.5221 -1.179086,-0.54078 -0.874779,-2.78127 0.424221,-3.12339 0.318045,-3.25648 -0.765563,-0.95965 -1.707988,3.62027 -1.83357,0.002 -0.197882,-5.7012 0.774628,-2.70097 0.774628,-4.05792 0,-3.57917 -1.772687,1.09558 -1.549224,-1.21805 0.295853,-3.06312 1.1691,-1.1691 1.131041,-2.04047 -0.1569,-3.59234 -0.935216,-1.12687 -1.408343,-3.57661 -1.051393,-5.44387 0.35695,-1.867264 -0.111694,-5.620712 -1.041435,-8.340997 -3.037965,-8.888657 -3.017489,-21.698438 0.03957,-24.755498 1.1,-1.1 2,-3.262128 2,-4.80473 0,-4.557637 3.420092,-11.40271 7.171759,-14.353773 1.922199,-1.512001 3.494907,-3.491921 3.494907,-4.399821 0,-5.004405 13.07959,-17.997006 15.590141,-15.486454 0.430765,0.430765 1.799695,-1.150795 3.042065,-3.514577 3.180887,-6.052081 14.233654,-13.335729 19.143224,-12.615158 2.13694,0.313636 5.94776,-0.521841 8.63929,-1.894063 6.62968,-3.3800052 32.93443,-3.5497776 39.30834,-0.253698 2.34152,1.210844 6.77437,2.306392 9.85078,2.434551 7.11318,0.296325 15.7599,5.876273 18.71782,12.07908 1.54353,3.236845 3.09472,4.618168 5.18606,4.618168 3.58531,0 10.13462,6.235677 12.46935,11.872217 0.9282,2.24088 3.71984,6.229074 6.20362,8.862657 2.48379,2.633581 4.6186,6.095609 4.74404,7.693394 0.12547,1.597786 0.29386,3.912419 0.37426,5.143629 0.0804,1.23121 1.17777,3.378455 2.4386,4.771654 2.87517,3.177037 3.11325,16.327985 0.43312,23.924312 -1.02262,2.898391 -1.55202,6.877275 -1.17644,8.841967 0.37558,1.96469 -0.0293,4.43036 -0.8999,5.47927 -1.15128,1.38721 -1.19405,2.6334 -0.15689,4.57135 1.84633,3.44991 1.80893,5.42885 -0.0537,2.83955 -1.15607,-1.60712 -1.25331,-1.47616 -0.49498,0.66667 0.51904,1.46666 1.2277,3.86666 1.57478,5.33333 0.53266,2.25088 0.38762,2.35483 -0.9302,0.66667 -1.26116,-1.61559 -1.42834,-1.2191 -0.86976,2.06279 0.79134,4.64957 -0.59822,7.60441 -3.79688,8.07387 -1.58976,0.23333 -1.95247,-0.30152 -1.29266,-1.90616 0.50444,-1.22678 1.22891,-4.7805 1.60994,-7.89717 0.56276,-4.60324 0.29066,-5.66667 -1.4499,-5.66667 -1.17846,0 -3.06468,1.40716 -4.19157,3.12703 -1.83008,2.79305 -1.8349,3.6392 -0.0451,7.92274 1.30058,3.11274 1.61631,5.84316 0.89966,7.78045 -1.021,2.76002 -1.17938,2.64038 -2.10379,-1.58942 -0.95637,-4.37598 -1.13625,-4.08317 -4.1526,6.7592 -4.45656,16.01931 -4.27298,18.52096 1.00834,13.74143 2.34612,-2.12321 2.44349,-2.12252 1.62458,0.012 -0.4791,1.24855 -2.30493,2.62995 -4.05737,3.06979 -1.75245,0.43984 -3.19815,1.48465 -3.21268,2.32182 -0.11093,6.391 -3.10876,20.5467 -5.23324,24.71104 -1.42296,2.78922 -7.2096,9.38812 -12.85921,14.66424 l -10.27202,9.59293 3.85931,4.27695 3.85932,4.27696 -4.75463,-4.35977 -4.75462,-4.35978 -5.90926,2.27614 c -8.19938,3.15825 -34.19865,3.19401 -42.32017,0.0583 l -5.74426,-2.21792 -8.4879,7.20051 c -4.668343,3.96028 -9.883425,7.86332 -11.58907,8.67341 -2.968612,1.40995 -2.961224,1.37152 0.172832,-0.89893 z m 40.262807,-32.63814 c 1.15014,-8.10138 1.83849,-9.06704 6.46319,-9.06704 4.62471,0 5.31305,0.96566 6.4632,9.06704 0.76649,5.39905 1.34959,6.32017 4.21321,6.6556 4.63582,0.54302 19.70607,-8.79654 24.76099,-15.34524 3.03451,-3.93123 4.68151,-8.23492 6.31977,-16.5138 1.42104,-7.18115 4.37248,-15.53932 8.22927,-23.30448 3.30745,-6.65916 6.01356,-13.72843 6.01356,-15.7095 0,-1.98107 0.96929,-5.83267 2.15399,-8.55911 2.63056,-6.05397 3.258,-9.95573 3.7571,-23.363994 0.35599,-9.563513 0.0801,-10.860045 -3.40426,-16 -2.0854,-3.076253 -3.80255,-6.943187 -3.8159,-8.593187 -0.0133,-1.65 -0.71762,-3 -1.56508,-3 -0.84744,0 -3.50741,-1.5 -5.91104,-3.333334 -5.35913,-4.087617 -10.12293,-4.225639 -16.20069,-0.469386 -2.54868,1.575172 -6.9522,3.02907 -9.7856,3.230888 -2.8334,0.201816 -5.8316,0.78718 -6.66267,1.300808 -2.58858,1.59983 -21.62978,1.783417 -27.23252,0.262564 -2.93333,-0.79625 -6.41394,-1.302183 -7.7347,-1.124296 -1.32075,0.177886 -5.27328,-1.519472 -8.78339,-3.771907 -7.957202,-5.106118 -10.491911,-5.120489 -16.815243,-0.09534 -2.76834,2.2 -5.850842,4 -6.850006,4 -0.999163,0 -1.81666,1.293365 -1.81666,2.874145 0,1.58078 -1.413668,4.73078 -3.141486,7 -1.727816,2.26922 -3.579717,5.511988 -4.115335,7.206152 -1.503538,4.755703 -1.023235,20.309027 0.690949,22.374487 0.84198,1.01453 1.187427,2.7396 0.767659,3.8335 -0.419767,1.0939 0.39993,4.55154 1.82155,7.68365 1.42162,3.1321 2.585724,7.19474 2.586896,9.02807 0.0012,1.83333 2.738825,8.73333 6.083672,15.33333 3.957968,7.8098 6.550637,15.02626 7.424956,20.66667 1.513148,9.76165 5.123802,18.20376 9.559598,22.35141 5.64128,5.27483 18.90648,12.42974 22.3118,12.03442 2.86436,-0.33252 3.44652,-1.25167 4.21322,-6.65212 z m -4.55313,-15.32262 c -5.50999,-1.43728 0.006,-3.07776 10.34965,-3.07776 10.89844,0 15.64736,1.55656 9.65167,3.16355 -3.36852,0.90283 -16.42601,0.84683 -20.00132,-0.0857 z m 6.59071,-18.8114 c -2.0135,-2.22489 -1.95725,-3.02876 0.7698,-11 3.2471,-9.49133 4.69084,-7.72882 2.40392,2.9347 -1.07878,5.03017 -1.06327,7.28258 0.0595,8.63541 2.27567,2.74201 -0.71263,2.21509 -3.2332,-0.57011 z m -31.06598,-35.51073 c 1.92037,-2.51773 3.49159,-5.0349 3.49159,-5.5937 0,-0.55881 -1.61226,-2.69884 -3.58279,-4.75563 -3.574516,-3.73099 -3.575778,-3.73963 -0.547058,-3.73963 1.669648,0 4.103068,1.3181 5.407588,2.92912 l 2.37186,2.92912 1.82926,-2.92912 c 1.07414,-1.71998 3.17585,-2.92912 5.09132,-2.92912 h 3.26206 l -3.58278,3.73963 c -4.39852,4.59106 -4.40443,4.93144 -0.1816,10.46785 l 3.40118,4.45919 h -3.18716 c -2.139,0 -3.70699,-1.14087 -4.76776,-3.46901 -1.30295,-2.85966 -1.92606,-3.1823 -3.54735,-1.83674 -1.08172,0.89774 -1.96677,2.4588 -1.96677,3.46901 0,1.0925 -1.41478,1.83674 -3.49159,1.83674 h -3.491584 z m 52.87287,3.57771 c 0.0264,-0.55 1.47967,-2.75128 3.22953,-4.89172 l 3.18159,-3.89172 -3.38779,-4.44161 -3.38778,-4.44162 h 3.33608 c 2.21473,0 3.57046,0.89633 4.03342,2.66667 0.38355,1.46666 1.3131,2.66666 2.06566,2.66666 0.75257,0 1.74917,-1.2 2.21468,-2.66666 0.55157,-1.73785 2.01737,-2.66667 4.20837,-2.66667 h 3.36201 l -3.45186,4.1023 c -4.24575,5.04579 -4.24966,5.35004 -0.11852,9.23103 1.83333,1.72233 3.33333,3.62692 3.33333,4.23242 0,0.6055 -1.5,1.10092 -3.33333,1.10092 -1.94239,0 -3.33334,-0.76644 -3.33334,-1.83674 0,-1.01021 -0.88504,-2.57127 -1.96676,-3.46901 -1.62129,-1.34556 -2.24441,-1.02292 -3.54736,1.83674 -1.39964,3.07187 -6.56176,5.0516 -6.43793,2.46901 z M 86.531074,106.94628 c 0,-1.96435 6.620789,-3.82112 19.711786,-5.52807 7.85852,-1.02469 15.64713,-2.265026 17.30803,-2.756306 2.39788,-0.709273 2.85307,-0.458693 2.21016,1.216697 -1.1324,2.950979 -4.16578,3.670689 -20.37332,4.833809 -7.804495,0.56008 -15.23999,1.46337 -16.523323,2.0073 -1.283333,0.54394 -2.333333,0.64589 -2.333333,0.22657 z m 95.536966,-0.43038 c -0.49912,-0.49912 -7.43462,-1.33821 -15.41222,-1.86466 -16.47197,-1.08698 -19.54585,-1.79611 -20.68805,-4.772639 -0.64291,-1.67539 -0.18772,-1.92597 2.21016,-1.216697 1.66089,0.49128 9.47771,1.735096 17.37069,2.764046 7.89658,1.02941 15.67575,2.79878 17.29667,3.93412 1.6202,1.13482 2.31229,2.06331 1.53801,2.06331 -0.77428,0 -1.81614,-0.40837 -2.31526,-0.90748 z m 29.75553,18.90748 c 0,-0.73333 -0.58162,-0.43333 -1.2925,0.66667 -0.71088,1.1 -1.29249,2.6 -1.29249,3.33333 0,0.73334 0.58161,0.43334 1.29249,-0.66666 0.71088,-1.1 1.2925,-2.6 1.2925,-3.33334 z m -34.67619,93.9038 -4.6163,-4.09621 5,3.5878 c 4.4185,3.17053 5.85622,4.60461 4.6163,4.60461 -0.21104,0 -2.46104,-1.84329 -5,-4.0962 z m 25.48896,-75.34824 c 0.064,-1.55326 0.37992,-1.8692 0.80555,-0.80556 0.38516,0.9625 0.3378,2.1125 -0.1052,2.55556 -0.44307,0.44306 -0.75819,-0.34445 -0.7003,-1.75 z m 2.5614,-7.14353 c 0,-0.69005 0.59313,-1.62123 1.31807,-2.06925 0.75581,-0.46712 0.97933,0.0681 0.52401,1.25464 -0.88639,2.30989 -1.84208,2.73252 -1.84208,0.81461 z"
     style="fill:#025175;stroke-width:1.33333325" />
  <path
     inkscape:connector-curvature="0"
     id="path1485"
     d="m 89.138413,222.4619 c 7.174531,-5.19759 17.392667,-13.90685 17.392667,-14.82439 0,-0.53497 -3.39873,-3.83026 -7.552738,-7.32286 -14.031209,-11.79716 -18.089204,-19.00923 -19.819747,-35.2246 -0.692325,-6.48716 -1.377278,-8.33785 -3.09177,-8.35375 -1.644568,-0.0152 -1.769736,-0.29497 -0.494167,-1.10438 1.359467,-0.86266 1.099309,-3.58083 -1.274185,-13.31292 -2.955679,-12.11924 -5.063135,-15.629 -5.141277,-8.56228 -0.03541,3.20294 -0.217362,3.36274 -1.438656,1.26352 -0.993755,-1.70812 -0.915188,-4.28742 0.271657,-8.91825 1.767533,-6.89655 0.484589,-10.67861 -3.622383,-10.67861 -2.270086,0 -2.530405,9.54586 -0.370382,13.5819 1.066254,1.99231 1.066254,2.49263 0,1.83365 -2.056316,-1.27087 -1.751256,0.76232 0.576046,3.83929 1.076679,1.4235 1.954522,3.2235 1.950766,4 -0.0037,0.77651 -1.439851,-0.95564 -3.191319,-3.84921 -1.751466,-2.89357 -2.84643,-6.14199 -2.43325,-7.21872 0.436314,-1.13702 0.178053,-1.60345 -0.616072,-1.11265 -0.844782,0.5221 -1.179086,-0.54078 -0.874779,-2.78127 0.424221,-3.12339 0.318045,-3.25648 -0.765563,-0.95965 -1.707988,3.62027 -1.83357,0.002 -0.197882,-5.7012 0.774628,-2.70097 0.774628,-4.05792 0,-3.57917 -1.772687,1.09558 -1.549224,-1.21805 0.295853,-3.06312 1.1691,-1.1691 1.131041,-2.04047 -0.1569,-3.59234 -0.935216,-1.12687 -1.408343,-3.57661 -1.051393,-5.44387 0.35695,-1.867264 -0.111694,-5.620712 -1.041435,-8.340997 -3.037965,-8.888657 -3.017489,-21.698438 0.03957,-24.755498 1.1,-1.1 2,-3.262128 2,-4.80473 0,-4.557637 3.420092,-11.40271 7.171759,-14.353773 1.922199,-1.512001 3.494907,-3.491921 3.494907,-4.399821 0,-5.004405 13.07959,-17.997006 15.590141,-15.486454 0.430765,0.430765 1.799695,-1.150795 3.042065,-3.514577 3.180887,-6.052081 14.233654,-13.335729 19.143224,-12.615158 2.13694,0.313636 5.94776,-0.521841 8.63929,-1.894063 6.62968,-3.3800052 32.93443,-3.5497776 39.30834,-0.253698 2.34152,1.210844 6.77437,2.306392 9.85078,2.434551 7.11318,0.296325 15.7599,5.876273 18.71782,12.07908 1.54353,3.236845 3.09472,4.618168 5.18606,4.618168 3.58531,0 10.13462,6.235677 12.46935,11.872217 0.9282,2.24088 3.71984,6.229074 6.20362,8.862657 2.48379,2.633581 4.6186,6.095609 4.74404,7.693394 0.12547,1.597786 0.29386,3.912419 0.37426,5.143629 0.0804,1.23121 1.17777,3.378455 2.4386,4.771654 2.87517,3.177037 3.11325,16.327985 0.43312,23.924312 -1.02262,2.898391 -1.55202,6.877275 -1.17644,8.841967 0.37558,1.96469 -0.0293,4.43036 -0.8999,5.47927 -1.15128,1.38721 -1.19405,2.6334 -0.15689,4.57135 1.84633,3.44991 1.80893,5.42885 -0.0537,2.83955 -1.15607,-1.60712 -1.25331,-1.47616 -0.49498,0.66667 0.51904,1.46666 1.2277,3.86666 1.57478,5.33333 0.53266,2.25088 0.38762,2.35483 -0.9302,0.66667 -1.26116,-1.61559 -1.42834,-1.2191 -0.86976,2.06279 0.79134,4.64957 -0.59822,7.60441 -3.79688,8.07387 -1.58976,0.23333 -1.95247,-0.30152 -1.29266,-1.90616 0.50444,-1.22678 1.22891,-4.7805 1.60994,-7.89717 0.56276,-4.60324 0.29066,-5.66667 -1.4499,-5.66667 -1.17846,0 -3.06468,1.40716 -4.19157,3.12703 -1.83008,2.79305 -1.8349,3.6392 -0.0451,7.92274 1.30058,3.11274 1.61631,5.84316 0.89966,7.78045 -1.021,2.76002 -1.17938,2.64038 -2.10379,-1.58942 -0.95637,-4.37598 -1.13625,-4.08317 -4.1526,6.7592 -4.45656,16.01931 -4.27298,18.52096 1.00834,13.74143 2.34612,-2.12321 2.44349,-2.12252 1.62458,0.012 -0.4791,1.24855 -2.30493,2.62995 -4.05737,3.06979 -1.75245,0.43984 -3.19815,1.48465 -3.21268,2.32182 -0.11093,6.391 -3.10876,20.5467 -5.23324,24.71104 -1.42296,2.78922 -7.2096,9.38812 -12.85921,14.66424 l -10.27202,9.59293 3.85931,4.27695 3.85932,4.27696 -4.75463,-4.35977 -4.75462,-4.35978 -5.90926,2.27614 c -8.19938,3.15825 -34.19865,3.19401 -42.32017,0.0583 l -5.74426,-2.21792 -8.4879,7.20051 c -4.668343,3.96028 -9.883425,7.86332 -11.58907,8.67341 -2.968612,1.40995 -2.961224,1.37152 0.172832,-0.89893 z m 40.262807,-32.63814 c 1.15014,-8.10138 1.83849,-9.06704 6.46319,-9.06704 4.62471,0 5.31305,0.96566 6.4632,9.06704 0.76649,5.39905 1.34959,6.32017 4.21321,6.6556 4.63582,0.54302 19.70607,-8.79654 24.76099,-15.34524 3.03451,-3.93123 4.68151,-8.23492 6.31977,-16.5138 1.42104,-7.18115 4.37248,-15.53932 8.22927,-23.30448 3.30745,-6.65916 6.01356,-13.72843 6.01356,-15.7095 0,-1.98107 0.96929,-5.83267 2.15399,-8.55911 2.63056,-6.05397 3.258,-9.95573 3.7571,-23.363994 0.35599,-9.563513 0.0801,-10.860045 -3.40426,-16 -2.0854,-3.076253 -3.80255,-6.943187 -3.8159,-8.593187 -0.0133,-1.65 -0.71762,-3 -1.56508,-3 -0.84744,0 -3.50741,-1.5 -5.91104,-3.333334 -5.35913,-4.087617 -10.12293,-4.225639 -16.20069,-0.469386 -2.54868,1.575172 -6.9522,3.02907 -9.7856,3.230888 -2.8334,0.201816 -5.8316,0.78718 -6.66267,1.300808 -2.58858,1.59983 -21.62978,1.783417 -27.23252,0.262564 -2.93333,-0.79625 -6.41394,-1.302183 -7.7347,-1.124296 -1.32075,0.177886 -5.27328,-1.519472 -8.78339,-3.771907 -7.957202,-5.106118 -10.491911,-5.120489 -16.815243,-0.09534 -2.76834,2.2 -5.850842,4 -6.850006,4 -0.999163,0 -1.81666,1.293365 -1.81666,2.874145 0,1.58078 -1.413668,4.73078 -3.141486,7 -1.727816,2.26922 -3.579717,5.511988 -4.115335,7.206152 -1.503538,4.755703 -1.023235,20.309027 0.690949,22.374487 0.84198,1.01453 1.187427,2.7396 0.767659,3.8335 -0.419767,1.0939 0.39993,4.55154 1.82155,7.68365 1.42162,3.1321 2.585724,7.19474 2.586896,9.02807 0.0012,1.83333 2.738825,8.73333 6.083672,15.33333 3.957968,7.8098 6.550637,15.02626 7.424956,20.66667 1.513148,9.76165 5.123802,18.20376 9.559598,22.35141 5.64128,5.27483 18.90648,12.42974 22.3118,12.03442 2.86436,-0.33252 3.44652,-1.25167 4.21322,-6.65212 z m -4.55313,-15.32262 c -5.50999,-1.43728 0.006,-3.07776 10.34965,-3.07776 10.89844,0 15.64736,1.55656 9.65167,3.16355 -3.36852,0.90283 -16.42601,0.84683 -20.00132,-0.0857 z m 6.59071,-18.8114 c -2.0135,-2.22489 -1.95725,-3.02876 0.7698,-11 3.2471,-9.49133 4.69084,-7.72882 2.40392,2.9347 -1.07878,5.03017 -1.06327,7.28258 0.0595,8.63541 2.27567,2.74201 -0.71263,2.21509 -3.2332,-0.57011 z m -31.06598,-35.51073 c 1.92037,-2.51773 3.49159,-5.0349 3.49159,-5.5937 0,-0.55881 -1.61226,-2.69884 -3.58279,-4.75563 -3.574516,-3.73099 -3.575778,-3.73963 -0.547058,-3.73963 1.669648,0 4.103068,1.3181 5.407588,2.92912 l 2.37186,2.92912 1.82926,-2.92912 c 1.07414,-1.71998 3.17585,-2.92912 5.09132,-2.92912 h 3.26206 l -3.58278,3.73963 c -4.39852,4.59106 -4.40443,4.93144 -0.1816,10.46785 l 3.40118,4.45919 h -3.18716 c -2.139,0 -3.70699,-1.14087 -4.76776,-3.46901 -1.30295,-2.85966 -1.92606,-3.1823 -3.54735,-1.83674 -1.08172,0.89774 -1.96677,2.4588 -1.96677,3.46901 0,1.0925 -1.41478,1.83674 -3.49159,1.83674 h -3.491584 z m 52.87287,3.57771 c 0.0264,-0.55 1.47967,-2.75128 3.22953,-4.89172 l 3.18159,-3.89172 -3.38779,-4.44161 -3.38778,-4.44162 h 3.33608 c 2.21473,0 3.57046,0.89633 4.03342,2.66667 0.38355,1.46666 1.3131,2.66666 2.06566,2.66666 0.75257,0 1.74917,-1.2 2.21468,-2.66666 0.55157,-1.73785 2.01737,-2.66667 4.20837,-2.66667 h 3.36201 l -3.45186,4.1023 c -4.24575,5.04579 -4.24966,5.35004 -0.11852,9.23103 1.83333,1.72233 3.33333,3.62692 3.33333,4.23242 0,0.6055 -1.5,1.10092 -3.33333,1.10092 -1.94239,0 -3.33334,-0.76644 -3.33334,-1.83674 0,-1.01021 -0.88504,-2.57127 -1.96676,-3.46901 -1.62129,-1.34556 -2.24441,-1.02292 -3.54736,1.83674 -1.39964,3.07187 -6.56176,5.0516 -6.43793,2.46901 z M 86.531074,106.94628 c 0,-1.96435 6.620789,-3.82112 19.711786,-5.52807 7.85852,-1.02469 15.64713,-2.265026 17.30803,-2.756306 2.39788,-0.709273 2.85307,-0.458693 2.21016,1.216697 -1.1324,2.950979 -4.16578,3.670689 -20.37332,4.833809 -7.804495,0.56008 -15.23999,1.46337 -16.523323,2.0073 -1.283333,0.54394 -2.333333,0.64589 -2.333333,0.22657 z m 95.536966,-0.43038 c -0.49912,-0.49912 -7.43462,-1.33821 -15.41222,-1.86466 -16.47197,-1.08698 -19.54585,-1.79611 -20.68805,-4.772639 -0.64291,-1.67539 -0.18772,-1.92597 2.21016,-1.216697 1.66089,0.49128 9.47771,1.735096 17.37069,2.764046 7.89658,1.02941 15.67575,2.79878 17.29667,3.93412 1.6202,1.13482 2.31229,2.06331 1.53801,2.06331 -0.77428,0 -1.81614,-0.40837 -2.31526,-0.90748 z m 29.75553,18.90748 c 0,-0.73333 -0.58162,-0.43333 -1.2925,0.66667 -0.71088,1.1 -1.29249,2.6 -1.29249,3.33333 0,0.73334 0.58161,0.43334 1.29249,-0.66666 0.71088,-1.1 1.2925,-2.6 1.2925,-3.33334 z m -34.67619,93.9038 -4.6163,-4.09621 5,3.5878 c 4.4185,3.17053 5.85622,4.60461 4.6163,4.60461 -0.21104,0 -2.46104,-1.84329 -5,-4.0962 z m 25.48896,-75.34824 c 0.064,-1.55326 0.37992,-1.8692 0.80555,-0.80556 0.38516,0.9625 0.3378,2.1125 -0.1052,2.55556 -0.44307,0.44306 -0.75819,-0.34445 -0.7003,-1.75 z m 2.5614,-7.14353 c 0,-0.69005 0.59313,-1.62123 1.31807,-2.06925 0.75581,-0.46712 0.97933,0.0681 0.52401,1.25464 -0.88639,2.30989 -1.84208,2.73252 -1.84208,0.81461 z"
     style="fill:#5f3020;stroke-width:1.33333325" />
  <path
     inkscape:connector-curvature="0"
     id="path1483"
     d="m 119.26421,210.61593 c -10.24533,-2.47768 -16.94969,-6.50476 -26.267834,-15.77813 -9.596397,-9.55031 -11.496753,-13.70136 -13.935465,-30.44003 -1.093076,-7.50257 -3.430226,-19.04105 -5.193667,-25.64105 -1.763442,-6.6 -3.546406,-14.16328 -3.962143,-16.80728 -0.648824,-4.12639 -1.530463,-5.11154 -6.224689,-6.95549 -4.157585,-1.63314 -5.265149,-2.67892 -4.6194,-4.36172 0.467172,-1.21743 0.168447,-3.03401 -0.663835,-4.03685 -0.83228,-1.00284 -1.221188,-3.3511 -0.864238,-5.21836 0.35695,-1.867264 -0.111694,-5.620712 -1.041435,-8.340997 -3.037965,-8.888657 -3.017489,-21.698438 0.03957,-24.755498 1.1,-1.1 2,-3.262128 2,-4.80473 0,-4.557637 3.420092,-11.40271 7.171759,-14.353773 1.922199,-1.512001 3.494907,-3.491921 3.494907,-4.399821 0,-5.004405 13.07959,-17.997006 15.590141,-15.486454 0.430765,0.430765 1.799695,-1.150795 3.042065,-3.514577 3.180887,-6.052081 14.233654,-13.335729 19.143224,-12.615158 2.13694,0.313636 5.94776,-0.521841 8.63929,-1.894063 6.62968,-3.3800052 32.93443,-3.5497776 39.30834,-0.253698 2.34152,1.210844 6.77437,2.306392 9.85078,2.434551 7.11318,0.296325 15.7599,5.876273 18.71782,12.07908 1.54353,3.236845 3.09472,4.618168 5.18606,4.618168 3.58531,0 10.13462,6.235677 12.46935,11.872217 0.9282,2.24088 3.71984,6.229074 6.20362,8.862657 2.48379,2.633581 4.6186,6.095609 4.74404,7.693394 0.12547,1.597786 0.29386,3.912419 0.37426,5.143629 0.0804,1.23121 1.17777,3.378455 2.4386,4.771654 2.87517,3.177037 3.11325,16.327985 0.43312,23.924312 -1.02262,2.898391 -1.55202,6.877275 -1.17644,8.841967 0.37558,1.96469 0.001,4.39266 -0.83038,5.3955 -0.83228,1.00284 -1.14561,2.78134 -0.6963,3.95222 0.60433,1.57488 -0.60724,2.69871 -4.65582,4.31863 -4.03878,1.616 -5.65461,3.11129 -6.16685,5.70679 -0.38176,1.93437 -2.47102,11.01703 -4.64282,20.1837 -2.17179,9.16666 -4.55024,21.33325 -5.28544,27.03686 -0.7352,5.7036 -2.47884,12.6036 -3.87474,15.33334 -2.97285,5.81349 -17.61045,20.25051 -23.7518,23.42633 -11.32009,5.85385 -30.44604,7.58082 -44.99365,4.06268 z m 10.00784,-20.07716 c 0.84281,-6.31419 3.17988,-9.78205 6.59236,-9.78205 3.41248,0 5.74956,3.46786 6.59236,9.78205 0.60155,4.50669 1.31757,5.63304 3.80519,5.98576 6.04577,0.85725 23.72025,-10.92713 27.57824,-18.38767 1.06393,-2.0574 3.14625,-9.29317 4.62738,-16.07948 1.77706,-8.14216 4.51324,-15.65536 8.0449,-22.09022 2.94356,-5.36332 5.3651,-11.42976 5.38121,-13.48097 0.0161,-2.05121 1.19243,-6.29211 2.61405,-9.42421 1.42162,-3.13211 2.24132,-6.58975 1.82155,-7.68365 -0.41977,-1.0939 -0.0833,-2.80815 0.74771,-3.80945 1.58697,-1.91218 2.09356,-14.907555 0.82321,-21.117132 -0.40939,-2.001065 -2.23491,-5.834793 -4.05673,-8.519396 -1.82182,-2.684602 -3.3124,-5.997367 -3.3124,-7.361699 0,-1.364332 -0.49714,-2.480604 -1.10475,-2.480604 -0.6076,0 -3.91299,-1.860107 -7.34529,-4.133571 l -6.24055,-4.133569 -8.80931,4.248649 c -5.24177,2.528063 -9.93352,3.954663 -11.58532,3.522705 -1.52681,-0.39927 -3.5844,-0.05505 -4.57241,0.76492 -2.45952,2.04123 -27.63795,1.975339 -30.11304,-0.0788 -1.04024,-0.863324 -2.85998,-1.197972 -4.04388,-0.743668 -1.23474,0.473814 -4.85999,-0.795529 -8.50233,-2.976994 -10.189657,-6.102771 -11.639052,-6.18602 -17.818268,-1.023432 -2.997771,2.504568 -6.293726,4.55376 -7.324343,4.55376 -1.030616,0 -1.873848,1.097133 -1.873848,2.438073 0,1.340941 -1.841018,5.217504 -4.091151,8.614585 -3.629494,5.479536 -4.09553,7.293303 -4.129968,16.0734 -0.02135,5.44329 0.647415,11.179133 1.486143,12.746303 0.838728,1.56718 1.199351,3.37627 0.801381,4.02019 -0.397968,0.64393 0.461108,3.78153 1.909059,6.97245 1.44795,3.19092 2.645814,7.42714 2.66192,9.41383 0.01611,1.98669 2.679409,8.76241 5.918453,15.05714 3.941432,7.65976 6.420226,14.62318 7.494866,21.05451 0.883132,5.28524 2.712311,11.79505 4.06484,14.46625 4.521886,8.93059 20.751856,20.28434 27.884456,19.5067 2.82135,-0.30762 3.44715,-1.21607 4.07431,-5.91471 z m -28.04061,-71.16271 c 2.96651,-4.16608 2.88515,-5.15739 -0.84416,-10.28601 -2.030441,-2.79231 -2.023465,-3 0.10077,-3 1.25524,0 3.34958,1.3181 4.6541,2.92912 l 2.37186,2.92912 1.82926,-2.92912 c 1.0061,-1.61102 2.95615,-2.92912 4.33346,-2.92912 2.27463,0 2.19451,0.406 -0.87394,4.42895 l -3.37813,4.42895 3.31651,4.23772 c 2.74647,3.50934 2.93559,4.23771 1.10027,4.23771 -1.21894,0 -3.28358,-1.3181 -4.5881,-2.92911 l -2.37186,-2.92912 -1.82926,2.92912 c -1.0061,1.61101 -2.9258,2.92911 -4.266,2.92911 -2.262305,0 -2.230434,-0.28971 0.44522,-4.04732 z m 55.24886,0.10032 3.78147,-3.947 -3.59987,-4.71967 -3.59986,-4.71966 h 3.24568 c 2.12433,0 3.4866,0.92129 3.94302,2.66666 0.38355,1.46667 1.4097,2.66667 2.28034,2.66667 0.87064,0 1.89678,-1.2 2.28033,-2.66667 0.46919,-1.79418 1.81869,-2.66666 4.12463,-2.66666 h 3.42728 l -3.75599,3.9204 c -3.81848,3.98564 -3.81139,5.07855 0.0675,10.41293 2.06913,2.84551 2.0404,3 -0.55798,3 -1.56844,0 -3.10124,-1.1399 -3.58581,-2.66667 -0.46551,-1.46666 -1.40085,-2.66666 -2.07855,-2.66666 -0.6777,0 -1.9816,1.2 -2.89754,2.66666 -0.91595,1.46667 -2.8333,2.66667 -4.26076,2.66667 -2.30452,0 -2.1716,-0.44235 1.18608,-3.947 z M 87.864407,106.85054 c 0,-1.92905 7.344641,-3.99707 19.282723,-5.42943 7.36117,-0.88321 14.43395,-2.058202 15.71728,-2.611099 3.37484,-1.453976 2.93361,1.531619 -0.49775,3.368029 -1.55709,0.83333 -8.90709,1.83403 -16.33333,2.22378 -7.426243,0.38975 -14.552256,1.25015 -15.83559,1.91201 -1.283333,0.66186 -2.333333,0.90338 -2.333333,0.53671 z m 93.333333,-0.62435 c -1.1,-0.61386 -8.55568,-1.46796 -16.56818,-1.898 -12.63362,-0.67808 -14.93538,-1.1669 -17.33334,-3.6811 l -2.76514,-2.899193 3.33333,0.969808 c 1.83333,0.533394 9.35611,1.721175 16.71728,2.639525 11.84627,1.47788 19.28272,3.57831 19.28272,5.4464 0,0.81259 -0.28727,0.75039 -2.66667,-0.57744 z"
     style="fill:#2a232a;stroke-width:1.33333325" />
  <path
     inkscape:connector-curvature="0"
     id="path1481"
     d="m 125.19774,211.83558 c -5.4377,-0.91025 -16.41811,-4.67037 -20,-6.84877 -5.905917,-3.59183 -18.797882,-16.74752 -21.472174,-21.91144 -1.428353,-2.75808 -3.180063,-9.65808 -3.892685,-15.33333 -1.096852,-8.73522 -7.207437,-37.11183 -10.395131,-48.2734 -0.620594,-2.17298 -2.376982,-3.70046 -5.179077,-4.50409 -2.332009,-0.66881 -4.534162,-1.98256 -4.893674,-2.91943 -0.503626,-1.31242 0.167258,-1.27511 2.922876,0.16255 1.967093,1.02627 4.357149,1.86965 5.311235,1.87417 2.066928,0.01 5.598631,7.90949 5.598631,12.523 0,4.64337 1.319697,7.48521 3.475985,7.48521 2.414333,0 2.358891,-0.76197 -0.799476,-10.98757 -1.461253,-4.73099 -4.011253,-10.06076 -5.666666,-11.84394 -2.641239,-2.8451 -2.956803,-4.39135 -2.576743,-12.625931 0.326311,-7.070058 -0.05447,-9.788422 -1.544331,-11.0249 -1.71405,-1.422534 -1.533181,-2.08537 1.35795,-4.976501 2.833809,-2.833808 3.266549,-4.328444 2.877664,-9.939098 -0.251744,-3.632045 -0.08953,-6.603347 0.360465,-6.602891 2.490183,0.0025 7.7579,-7.517035 8.549892,-12.204795 0.659412,-3.903024 1.311349,-4.981619 2.370726,-3.922242 2.657411,2.657411 6.554391,1.523339 11.013993,-3.205217 3.874619,-4.108293 4.494536,-4.371704 5.183066,-2.202342 1.787837,5.632977 13.911634,7.396142 18.864224,2.743426 l 2.97194,-2.791998 1.64693,3.125331 c 3.63467,6.897418 9.66885,7.12871 12.83371,0.491922 2.04813,-4.294956 2.33486,-4.454472 3.92533,-2.183756 2.76864,3.952777 9.35,6.126938 13.21542,4.365732 1.8003,-0.820267 3.27326,-2.49725 3.27326,-3.726629 0,-2.081004 0.16824,-2.082976 2.43832,-0.02859 3.73994,3.384605 11.71589,2.84032 15.62228,-1.066076 1.89474,-1.894739 3.27273,-2.543152 3.27273,-1.539983 0,4.627579 11.06765,9.608121 16.64164,7.488891 2.92237,-1.111084 3.06021,-0.952339 2.09508,2.412877 -1.43529,5.004584 0.50037,9.335328 4.63651,10.373432 2.48445,0.623557 3.07677,1.287505 2.05773,2.306556 -3.84812,3.848108 0.20933,12.897621 5.78277,12.897621 2.14047,0 2.1036,0.377802 -0.43832,4.490712 -3.29985,5.339275 -3.60472,10.905747 -0.6592,12.036051 1.79097,0.68726 1.56789,1.463699 -1.45147,5.052008 -2.57598,3.0614 -3.37361,5.21023 -2.86953,7.73064 0.48804,2.44019 -0.0156,3.93646 -1.67358,4.97187 -3.37023,2.10474 -6.7883,9.95312 -6.7883,15.5869 0,4.71831 1.60856,6.25589 3.4417,3.28982 0.51282,-0.82976 1.59824,-4.81981 2.41202,-8.86677 0.81379,-4.04696 2.37962,-7.83002 3.47961,-8.40679 7.41266,-3.88673 10.44651,-4.86213 9.78836,-3.14704 -0.37278,0.97148 -2.4208,2.14915 -4.55112,2.61704 -4.61693,1.01405 -5.46229,2.19145 -6.6511,9.26348 -0.4976,2.96014 -2.46281,11.21991 -4.36715,18.35502 -1.90432,7.13512 -4.07862,17.8874 -4.83178,23.89396 -0.75316,6.00657 -2.61035,13.48452 -4.12708,16.61768 -3.41847,7.06161 -17.47782,20.40393 -25.44844,24.15057 -9.91098,4.6587 -25.7123,6.69084 -37.14502,4.77705 z m 31.52643,-5.97541 c 17.89373,-6.58243 30.13169,-22.79957 33.77497,-44.75697 0.88098,-5.30944 2.70126,-13.28487 4.04506,-17.72316 2.40048,-7.92824 2.39841,-8.05538 -0.11827,-7.25663 -1.61821,0.51361 -2.60911,0.16615 -2.69072,-0.94351 -0.44625,-6.06743 0.68543,-13.20218 2.89229,-18.23476 1.40167,-3.19637 2.22563,-6.33397 1.83103,-6.97245 -0.3946,-0.63847 -0.0312,-2.4431 0.80751,-4.01028 0.83873,-1.56717 1.50736,-7.338286 1.48584,-12.824686 -0.0329,-8.399104 -0.57188,-10.78032 -3.41083,-15.070249 -1.85443,-2.802236 -3.75256,-6.493526 -4.21807,-8.202866 -0.77121,-2.831947 -12.508,-11.77456 -15.45358,-11.77456 -0.67483,0 -4.32191,1.56832 -8.1046,3.485156 -3.7827,1.916836 -9.01275,3.729514 -11.62234,4.028174 -16.14713,1.847987 -27.22612,2.347351 -31.0387,1.39901 -2.40497,-0.598214 -6.416,-1.330238 -8.91339,-1.62672 -2.49739,-0.296483 -6.69739,-1.949039 -9.33333,-3.672348 -2.63595,-1.723309 -5.9035,-3.545812 -7.261226,-4.050005 -3.277507,-1.217107 -17.660605,8.037013 -18.757839,12.068838 -0.443864,1.630991 -2.237894,5.073942 -3.986734,7.651002 -4.194383,6.180768 -5.927719,21.269335 -3.088657,26.886544 1.064768,2.10669 1.681824,4.53968 1.371234,5.40663 -0.310589,0.86695 0.353083,3.35109 1.474825,5.5203 2.426616,4.69256 4.738652,18.161 3.469964,20.21378 -0.491736,0.79564 -1.891508,1.06387 -3.110604,0.59607 -2.034693,-0.78079 -2.057342,-0.39936 -0.276078,4.64928 1.067253,3.02492 3.136141,11.80742 4.597529,19.51666 4.199104,22.15151 13.194764,35.69035 28.827266,43.3862 13.68127,6.73527 32.28456,7.65397 46.80745,2.31155 z M 113.19774,194.6491 c -13.46328,-7.649 -19.237554,-15.8506 -21.901077,-31.10761 -1.047043,-5.99761 -3.716113,-14.77775 -5.931266,-19.51143 -2.215154,-4.73368 -3.735644,-8.60668 -3.37887,-8.60668 1.784994,0 9.802719,19.80703 11.150404,27.54602 0.847407,4.86616 2.664305,11.04994 4.037552,13.74173 4.860347,9.52707 20.460757,20.63915 27.784917,19.79104 2.73606,-0.31683 3.75523,-1.33704 4.40759,-4.41212 0.78685,-3.70901 0.86006,-3.75267 1.00633,-0.6 0.34056,7.33996 -7.33254,8.75125 -17.17558,3.15905 z m 28.8889,2.55206 c -0.4889,-0.48888 -0.82908,-2.43888 -0.75599,-4.33334 l 0.13293,-3.44444 0.91983,3.33334 c 1.86347,6.75301 12.00913,4.19316 23.84932,-6.01743 7.24083,-6.24424 9.44495,-10.58459 12.51425,-24.64308 1.36163,-6.23672 4.08678,-14.5262 6.05587,-18.42105 5.11004,-10.10765 6.40151,-9.98988 1.65601,0.15101 -2.1883,4.67631 -4.637,12.04871 -5.44152,16.38312 -3.37826,18.20043 -9.88713,28.01931 -22.85878,34.48336 -6.48611,3.23216 -14.15179,4.42863 -16.0719,2.50851 z m -9.66455,-9.8982 c -2.4751,-2.73496 -2.4742,-2.82224 0.0482,-4.66667 3.30399,-2.41593 5.32198,-2.37636 7.41489,0.14544 1.37534,1.65719 1.24637,2.50484 -0.71007,4.66667 -2.99624,3.3108 -3.63765,3.29698 -6.75301,-0.14544 z m -30.63413,-68.03189 3.49394,-4.1523 -3.44327,-4.51436 c -3.228992,-4.23343 -3.278688,-4.51436 -0.7986,-4.51436 1.47366,0 3.01944,1.18075 3.49105,2.66667 0.4655,1.46666 1.7621,2.66666 2.88134,2.66666 1.11924,0 2.34878,-1.2 2.73233,-2.66666 0.39998,-1.52956 1.81868,-2.66667 3.32703,-2.66667 2.43773,0 2.37707,0.30021 -0.83109,4.1129 -3.59744,4.27531 -3.50522,5.22951 0.98783,10.22043 2.46166,2.73445 2.49253,3 0.3487,3 -1.29362,0 -3.46701,-1.35 -4.82976,-3 l -2.47774,-3 -2.14493,3 c -1.17971,1.65 -3.06424,3 -4.18785,3 -1.52438,0 -1.15608,-1.05394 1.45102,-4.15231 z m 54.63932,0.26066 c 3.90929,-4.08042 3.81192,-5.10361 -0.99364,-10.44168 -2.46167,-2.73444 -2.49254,-3 -0.34871,-3 1.29363,0 3.51461,1.35 4.93555,3 l 2.58352,3 2.12617,-3 c 1.16939,-1.65 3.02616,-3 4.12616,-3 1.72401,0 1.69897,0.41399 -0.18147,3 -3.7293,5.12862 -3.81065,6.11993 -0.84414,10.28601 2.29914,3.22885 2.47442,4.04732 0.86676,4.04732 -1.10836,0 -2.98042,-1.35 -4.16012,-3 l -2.14492,-3 -2.47774,3 c -1.36276,1.65 -3.54381,3 -4.8468,3 -1.95937,0 -1.72429,-0.673 1.35938,-3.89165 z M 56.074935,91.423381 c 0,-1.833333 0.30263,-2.583333 0.672514,-1.666666 0.369883,0.916666 0.369883,2.416666 0,3.333333 -0.369884,0.916667 -0.672514,0.166667 -0.672514,-1.666667 z M 215.55279,82.756715 c 0.3716,-5.866667 0.89374,-10.916666 1.1603,-11.222222 0.924,-1.059174 0.21385,15.238414 -0.80855,18.555555 -0.56505,1.833333 -0.72335,-1.466667 -0.35175,-7.333333 z M 54.95784,79.423382 c 0,-4.766667 0.241993,-6.716667 0.537763,-4.333334 0.295768,2.383334 0.295768,6.283334 0,8.666667 -0.29577,2.383333 -0.537763,0.433333 -0.537763,-4.333333 z m 3.678497,-15.444444 c 0.06397,-1.553257 0.379922,-1.8692 0.805556,-0.805556 0.385162,0.9625 0.337792,2.1125 -0.105266,2.555556 -0.443056,0.443055 -0.758188,-0.344445 -0.700294,-1.75 z M 208.96342,55.361817 c -1.22887,-2.899472 -1.99428,-5.271768 -1.70091,-5.271768 0.97795,0 4.77022,8.162661 4.34955,9.362156 -0.22788,0.649759 -1.41976,-1.190916 -2.64864,-4.090388 z M 62.531074,52.756716 c 0.784936,-1.466667 1.727158,-2.666667 2.093824,-2.666667 0.366667,0 0.02444,1.2 -0.76049,2.666667 -0.784936,1.466666 -1.727157,2.666666 -2.093824,2.666666 -0.366667,0 -0.02444,-1.2 0.76049,-2.666666 z m 9.047555,-12.768069 c 1.5935,-2.941614 9.416825,-10.656983 9.938537,-9.801395 0.190983,0.313206 -2.279725,3.223834 -5.490463,6.468061 -3.210737,3.24423 -5.21237,4.74423 -4.448074,3.333334 z M 195.09537,35.986824 c -2.98964,-3.243225 -5.00945,-5.896774 -4.48848,-5.896774 1.02261,0 10.59085,10.242487 10.59085,11.337174 0,1.093979 -0.44289,0.699129 -6.10237,-5.4404 z M 180.28461,23.592491 c -2.33556,-2.813885 -6.38556,-6.13122 -9,-7.371854 -5.61635,-2.665135 -6.33231,-3.993022 -1.08687,-2.015807 3.9247,1.479372 11.7333,8.381608 13.82302,12.218553 1.93457,3.552076 0.93002,2.79092 -3.73615,-2.830892 z M 89.736342,23.182694 c 2.493245,-3.851947 6.792138,-7.063928 12.212498,-9.124744 2.2486,-0.854915 3.12287,-0.84267 2.57975,0.03613 -0.45186,0.731116 -1.69955,1.329302 -2.77266,1.329302 -1.07311,0 -4.737018,2.55 -8.142023,5.666667 -4.611157,4.220681 -5.60061,4.754669 -3.877565,2.092644 z m 28.128068,-12.37906 c 5.50296,-2.6505546 30.49704,-2.6505546 36,0 3.02543,1.45723 3.18785,1.68622 0.66667,0.939862 -4.32747,-1.281077 -33.00587,-1.281077 -37.33334,0 -2.52119,0.746358 -2.35876,0.517368 0.66667,-0.939862 z"
     style="fill:#130e13;stroke-width:1.33333325" />
</svg>
