<?xml version="1.0" encoding="UTF-8" standalone="no"?>
<svg xmlns:rdf="http://www.w3.org/1999/02/22-rdf-syntax-ns#" xmlns="http://www.w3.org/2000/svg" height="200" viewBox="0 0 200 200" width="200" version="1.1" xmlns:cc="http://creativecommons.org/ns#" xmlns:dc="http://purl.org/dc/elements/1.1/">
 <path d="m12.7 199c.0640-3.27 2.3-10.7 4.56-15.3 3.07-6.15 6.91-8.3 20.4-11.5 12.3-2.89 33.1-10.4 34.2-12.4.883-1.58 2.93-2.22 2.61-.819-.584 2.56 5.79 28.8 7.89 32.5.248.438 2-1.81 3.89-5s4.99-7.26 6.9-9.04l3.46-3.25-3.73-2.36c-2.05-1.3-5.86-3.56-8.45-5.03-5.11-2.88-6.14-5.06-7.17-15.1-.398-3.88-1.14-5.53-3.31-7.37-10.8-9.13-12.6-11.6-14.4-20.1-.846-3.94-1.5-5.05-3.01-5.05-1.13 0-3.06-1.67-4.67-4.04-1.51-2.22-4.19-5.86-5.97-8.07-4.08-5.09-5.62-10.7-4.74-17.3.650-4.87 2.93-9.06 4.43-8.14.384.237.508-3.04.276-7.27-.746-13.6 4.06-29.3 11.1-36.5 24-24.1 52.1-27 76.1-7.81 14.8 11.9 19.4 21.1 20 40.8.295 8.68.651 10.5 2.41 12.2 1.71 1.71 2.06 3.32 2.06 9.46v7.4l-6.28 9.35c-4.2 6.25-6.99 9.45-8.43 9.66-1.69.244-2.38 1.38-3.22 5.3-1.58 7.36-3.29 10-10.8 16.8l-6.75 6.09-.192 6.42c-.120 3.99-.816 7.37-1.84 8.93-.907 1.38-5.22 4.38-9.59 6.65-4.36 2.27-7.94 4.33-7.94 4.56 0 .240 1.56 1.9 3.48 3.7 1.91 1.79 5.04 5.89 6.94 9.11l3.47 5.84 3.49-11.3c3.12-10.2 5.27-20 4.8-22.1-.320-1.4 1.72-.758 2.61.819 1.12 2.01 21.9 9.55 34.2 12.4 13.5 3.16 17.3 5.31 20.4 11.5 2.27 4.53 4.5 12 4.56 15.3.0191.977-7.75 1.25-35.6 1.25h-35.6l.562-2.15c.568-2.17-1.85-7.89-5.57-13.2l-1.98-2.82-2.45 2.3c-1.96 1.84-2.34 2.96-1.88 5.57.312 1.79.842 4.84 1.18 6.76l.611 3.5h-14.3l.619-2.75c.341-1.51 1.06-4.5 1.6-6.64.853-3.4.707-4.16-1.16-6-2.13-2.1-2.14-2.1-3.66-.105-3.25 4.27-6.23 11.3-5.69 13.4l.561 2.14h-36.7c-27.8 0-35.6-.273-35.6-1.25zm75.5-107c.249-.402-.837-1.97-2.41-3.48l-2.86-2.74.0611 2.34c.0336 1.29-.256 3.05-.643 3.92-.577 1.3-.152 1.5 2.35 1.13 1.68-.247 3.26-.778 3.51-1.18zm28.5-.529c-.521-1.37-.667-3.22-.324-4.12.519-1.35.292-1.45-1.36-.563-5.1 2.73-5.24 5.57-.319 6.45 1.38.247 2.6.510 2.73.585.124.0749-.201-.985-.722-2.36zm-43.8-2.6c0-4.38-.220-4.54-3.95-2.84-3.07 1.4-3.16 2.22-.547 4.84 3.12 3.12 4.5 2.51 4.5-2zm57.5 1.31 2.12-2.69-2.29-1.27c-3.63-2.02-4.29-1.61-4.29 2.66 0 4.71 1.46 5.14 4.47 1.31zm-49.3-2.7c0-.243-.45-.719-1-1.06-.55-.340-1-.141-1 .441s.45 1.06 1 1.06 1-.198 1-.441zm43-.559c0-.55-.477-1-1.06-1-.582 0-.781.45-.441 1s.816 1 1.06 1c.243 0 .441-.45.441-1z" fill="#ebcbc5"/>
 <path d="m13.2 196c.371-2.34 2.01-7.19 3.63-10.8 3.49-7.7 6.75-9.82 19.1-12.5 11-2.35 34-10.3 35.5-12.2 1.94-2.57 3.08-.526 4.24 7.65.576 4.06 2.35 11.7 3.94 17 1.59 5.28 3.17 10.8 3.5 12.3l.606 2.75h-71.2zm79.7-.978c.523-2.88 1.35-5.98 1.84-6.9.672-1.26.278-2.07-1.59-3.3-3.19-2.09-3.13-2.77.623-7.04 4.04-4.61 7.03-4.6 11.6.01l3.54 3.54-2.79 2.91c-2.73 2.85-2.77 3.04-1.64 8.62.631 3.14 1.15 6.08 1.15 6.54 0 .458-3.09.833-6.86.833h-6.86zm23.3 2.48c.333-1.51 1.91-7.07 3.5-12.3 1.59-5.28 3.37-12.9 3.94-17 1.16-8.18 2.29-10.2 4.24-7.65 1.49 1.97 24.4 9.89 35.5 12.2 12.4 2.64 15.6 4.76 19.1 12.5 1.63 3.59 3.26 8.44 3.63 10.8l.675 4.25h-71zm-28.8-36c-9.75-4.91-9.5-4.65-9.5-9.86 0-4.5-.263-4.99-4.09-7.64-6.36-4.41-11.5-10.9-12.9-16.2-.682-2.62-1.43-5.5-1.67-6.41-.236-.908-1.51-1.92-2.82-2.25-1.6-.401-4.41-3.64-8.46-9.74-5.96-8.97-6.07-9.26-6.07-16.1 0-7.27 1.13-10.8 3.46-10.8 1.1 0 1.28-1.48.869-7.25-.864-12.1 3.68-28.2 10.1-35.8 5.89-7 22.4-17.8 30.5-19.9 7.05-1.86 20.7-1.42 28.1.907 10.4 3.25 25 13.8 30.4 22 5.71 8.59 9.47 25 8.06 35.3-.561 4.08-.410 4.85.951 4.85 2.29 0 3.57 4.1 3.57 11.4 0 5.08-.471 6.94-2.45 9.68-1.34 1.87-4.11 5.99-6.15 9.17-2.21 3.44-4.64 6-6.02 6.35-1.27.319-2.5 1.32-2.74 2.23-.236.908-.987 3.79-1.67 6.41-1.39 5.32-6.52 11.8-12.9 16.2-3.99 2.77-4.09 2.97-4.09 8.67 0 4.84-.263 5.73-1.54 5.24-.845-.324-2.32.123-3.29.993-5.56 5.03-22 6.47-29.7 2.6zm24-10.9c4.81-2.11 19.9-14.1 22.2-17.7.929-1.42 3.56-9.81 5.85-18.6 3.43-13.2 3.93-16.3 2.81-17.1-1.14-.858-1.09-2.16.262-8.02 1.41-6.08 1.47-9.16.511-23.5-1.43-21.3-2.62-25.2-9.5-31.7-2.93-2.77-7.21-6-9.51-7.18l-4.19-2.14-3.23 3.68c-8.65 9.85-23.9 9.79-32.6-.125l-3.34-3.81-4.49 2.18c-2.47 1.2-6.93 4.49-9.9 7.3-6.98 6.6-8.16 10.5-9.57 31.8-.918 13.9-.851 17.6.423 23.5 1.21 5.62 1.26 7.2.245 8.02-1 .811-.396 4.38 2.9 17.1 2.29 8.84 4.91 17.2 5.83 18.6 1.84 2.81 15.1 13.9 20.3 16.9 6.46 3.81 17.3 4.17 24.9.830zm-12.1-15c.962-.252 2.54-.252 3.5 0 .962.252.175.457-1.75.457-1.93 0-2.71-.206-1.75-.457zm-11.2-1.08c0-3.01 15.4-4.81 21.3-2.49 2.06.814 3.75 1.93 3.75 2.48 0 .610-.681.666-1.75.143-2.27-1.11-19.2-1.11-21.5 0-1.06.519-1.75.468-1.75-.130zm6.4-14.6c-3.59-3.59-4.08-5.45-2.32-8.75.594-1.11 1.71-4.79 2.48-8.18l1.4-6.17-.588 10.6c-.566 10.2-.504 10.7 1.68 12.2 1.64 1.15 2.77 1.32 4.11.599 2.34-1.25 2.41-.0657.0954 1.69-2.53 1.92-3.08 1.76-6.85-2.01zm9.68-5.18c.048-1.16.285-1.4.604-.604.289.722.253 1.58-.0789 1.92-.332.332-.569-.258-.525-1.31zm-30.4-18.6c-2.54-.925-5.35-2.3-6.25-3.05-1.8-1.52-2.25-7.13-.569-7.13.582 0 .737-.521.344-1.16-.490-.793-.0362-.980 1.44-.593 1.19.310 1.91.156 1.6-.342-.308-.499.254-.923 1.25-.942.995-.0195 2.93-.679 4.31-1.46l2.5-1.43-2.5-.0110c-4.49-.0198-11.5 1.98-12.7 3.66-.682 0.9-1.49 1.38-1.8 1.08-.309-.309.474-1.74 1.74-3.18 2.47-2.81 9.3-4.61 17.5-4.61 2.42 0 6.01-.675 7.99-1.5 4.39-1.83 4.35-1.83 4.35-.0567 0 1.98-3.91 4.55-6.97 4.58-2.12.0185-1.85.329 1.72 1.95 4.72 2.14 6.84 5.56 5.86 9.44-1.39 5.52-11.2 7.89-19.7 4.77zm15-2.74c.756-.623-2.03-4.48-4-5.53-1.89-1.01-2.06-.907-1.59.912.295 1.13-.0959 2.95-.868 4.05-1.35 1.92-1.25 1.98 2.36 1.42 2.07-.320 3.91-.704 4.1-.854zm-15.4-3.5c.0516-4.24-.987-4.9-4.61-2.96-2.56 1.37-2.45 3.49.288 5.41 3.41 2.39 4.27 1.9 4.33-2.45zm7.95-2c-.340-.55-1.07-1-1.62-1s-.722.45-.382 1 1.07 1 1.62 1 .722-.45.382-1zm1.23-7.6c-.332-.332-1.19-.368-1.92-.0790-.798.319-.561.556.604.604 1.05.0434 1.64-.193 1.31-.525zm28.8 16.3c-4.23-1.9-5.69-4.02-5.32-7.74.382-3.86 4-6.88 9.5-7.95l3.81-.738-4.03-.115c-4.38-.125-8.47-2.38-8.47-4.67 0-1.78-.0445-1.78 4.35.0567 1.97.825 5.57 1.5 7.99 1.5 8.17 0 15 1.8 17.5 4.61 2.73 3.11 2.23 4.42-.607 1.58-1.95-1.95-13.6-4.13-14.9-2.8-.333.333.343.605 1.5.605s2.35.399 2.66.887c.301.488 2.12 1.18 4.04 1.54 1.92.361 3.43.974 3.35 1.36-.0795.389.227 1.57.681 2.61 1.27 2.93-1.46 6.72-5.97 8.27-6.08 2.09-12.7 2.49-16 .977zm6.17-3.72c-.795-1.14-1.21-2.99-.910-4.11.459-1.76.264-1.9-1.37-1.03-1.05.561-2.75 1.95-3.78 3.09-1.98 2.18-1.79 2.4 2.9 3.44 4.34.960 4.7 0.8 3.17-1.39zm13.3-.935c2.66-2.66 2.52-3.85-.565-5.02-3.84-1.46-4.04-1.31-3.98 3.02.0549 4.5 1.44 5.11 4.55 2zm-6-4c0-.55-.477-1-1.06-1-.582 0-.781.45-.441 1s.816 1 1.06 1c.243 0 .441-.45.441-1zm-66.7 28.7c-.334-.870-.607-1.97-.607-2.44 0-.980-5.51-6.87-8.46-9.03-1.3-.956-.977-.139.959 2.43 1.6 2.13 3.01 4.53 3.13 5.34.264 1.8 3.32 5.29 4.63 5.29.524 0 .679-.712.345-1.58zm88-.949c.912-1.39 1.36-2.83 1-3.19-.361-.361 1.04-2.43 3.11-4.59s2.87-3.46 1.77-2.88c-3.92 2.08-9.5 9.57-9.5 12.8 0 1.35 2.19.0794 3.61-2.1zm-91.2-12c-.527-1.32-.987-1.87-1.02-1.23-.0847 1.56 1.08 4.52 1.58 4.02.219-.219-.0332-1.48-.560-2.79zm92.8-.895c-.0362-.989-.348-.819-.914.5-1.18 2.75-1.18 4.33 0 2.5.533-.825.945-2.18.914-3zm-95.6-2.5c-.252-.962-.457-.175-.457 1.75s.206 2.71.457 1.75c.252-.962.252-2.54 0-3.5zm97 .5c-.277-.688-.504-.125-.504 1.25s.227 1.94.504 1.25c.277-.688.277-1.81 0-2.5zm-99.8-5.5c.665-1.24.815-2.25.334-2.25-1.33 0-3.21 4.75-3.09 7.8l.102 2.7.724-3c.398-1.65 1.27-4.01 1.93-5.25zm104-.4c-.947-1.82-1.91-2.77-2.13-2.09-.227.673.295 2.24 1.16 3.47.866 1.24 1.64 3.39 1.72 4.78l.150 2.53.410-2.68c.226-1.48-.364-4.18-1.31-6zm-104-4.1c.0122-.380-.428-.969-.978-1.31-.550-.340-1-.476-1-.302s-.440 1.89-.978 3.81l-.978 3.49 1.96-2.5c1.08-1.38 1.97-2.81 1.98-3.19zm107 2.94c-.0183-2.69-1.6-5.47-2.56-4.5-.638.638 1.35 6.75 2.2 6.75.208 0 .372-1.01.363-2.25zm-108-7.25c-.317-.825-1.03-1.5-1.59-1.5-.585 0-.488.635.229 1.5.685.825 1.4 1.5 1.59 1.5s.0872-.675-.229-1.5zm108-.5c-.283-.458-.938-.833-1.46-.833-.518 0-.941.375-.941.833s.655.833 1.46.833c.801 0 1.22-.375.941-.833z" fill="#e6c3ba"/>
 <path d="m13.3 196c.337-2.34 1.88-7.03 3.43-10.4 3.38-7.42 7.38-10.3 17-12.2 10.3-2.03 36.9-11.1 37.9-13 1.57-2.78 2.99-.111 3.96 7.4.490 3.82 2.51 12.5 4.5 19.3 1.98 6.79 3.61 12.5 3.61 12.8 0 .225-16 .409-35.5.409h-35.5zm79.6-1c.525-2.89 1.34-5.92 1.8-6.75.599-1.06.0616-2.13-1.84-3.66l-2.69-2.16 3.1-3.84c4.32-5.36 7.51-5.57 12-.783l3.5 3.71-2.71 2.82c-2.63 2.75-2.67 2.98-1.56 8.53.631 3.14 1.15 6.08 1.15 6.54 0 .458-3.09.833-6.86.833h-6.86zm22.8 4.84c0-.225 1.57-5.82 3.49-12.4 1.92-6.61 3.96-15.3 4.53-19.3 1.11-7.86 2.48-10.4 4.04-7.68 1.05 1.86 27.6 11 37.9 13 3.58.703 8.18 2.31 10.2 3.57 4.14 2.55 8.19 9.47 9.27 15.8.368 2.17.885 4.73 1.15 5.69.451 1.64-1.7 1.75-35.1 1.75-19.6 0-35.6-.184-35.6-.409zm-24.1-38c-4.26-.839-9.85-3.74-12.7-6.6-.810-.810-1.47-3.19-1.47-5.28 0-3.44-.525-4.2-5.44-7.91-6.83-5.16-10.1-9.4-11.5-15.1-.633-2.48-1.37-5.24-1.63-6.15-.262-.908-1.55-1.92-2.85-2.25-1.37-.345-3.65-2.6-5.4-5.35-1.66-2.61-4.4-6.73-6.09-9.15-2.7-3.88-3.06-5.23-3.06-11.3 0-7.08 1.13-10.8 3.29-10.8.871-.000241 1.23-2.9 1.26-10.2.0484-11.8 2.46-21.2 7.36-28.9 3.86-6.08 16.6-16.2 26.1-20.7 6.77-3.22 8.49-3.61 17.6-3.95 15.8-.588 24.9 2.97 39.9 15.5 11.2 9.38 15.8 20.9 15.8 39-.0149 7.82.234 9.23 1.69 9.62 3.29.859 4.12 14.1 1.22 19.2-5.3 9.27-10.8 16.6-12.9 17.1-1.66.416-2.58 1.71-3.36 4.72-.588 2.28-1.32 5.04-1.63 6.14-.947 3.4-5.21 8.35-10.9 12.6-5.41 4.09-5.44 4.13-5.44 9.54 0 3.24-.390 5.2-.965 4.84-.531-.328-2.68.538-4.77 1.92-5.99 3.96-15 5.27-24.1 3.49zm17.8-10c4.73-1.18 23.1-15.8 25.2-20.1 1.36-2.72 9.76-32.2 9.76-34.3 0-.309-.675-.562-1.5-.562-1.74 0-1.93-3.42-.531-9.5 1.34-5.81 1.37-11.4.162-26.2-1.53-18.8-2.45-21.8-8.6-27.8-2.81-2.75-7.22-6.12-9.79-7.48l-4.68-2.48-3.28 3.58c-10 9.3-23.1 9.6-32.4 0l-4.61-4.72-5.3 3.03c-2.92 1.67-7.4 5.13-9.97 7.7-5.59 5.59-6.58 8.84-8.15 26.8-1.28 14.7-1.26 20.6.114 26.5 1.45 6.28 1.28 9.72-.477 9.72-1.94 0-1.93.0877.975 10.1 1.36 4.7 3.19 11.7 4.06 15.5 2.18 9.54 4.68 12.9 16.3 21.7 8.26 6.25 10.9 7.74 14.9 8.27 2.63.355 5.24.775 5.79.933 1.27.365 6.96-.389 11.5-1.52zm-19-20.3c3.37-2.03 15.6-2.02 19 .004l2.5 1.51-2.5-.755c-2.6-.785-13.3-.648-18.5.238l-3 .509 2.5-1.5zm3.63-12.6c-3.18-2.5-3.32-5.21-.674-13.4 2.12-6.58 2.58-5.6 1.07 2.31-.648 3.42-.620 6.08.0836 8.1 1.08 3.09 3.97 4.77 6.03 3.5.724-.447.894-.283.450.435-1.09 1.77-4.04 1.38-6.96-.918zm-23.9-24.5c-2.34-.861-5-3.47-5-4.9 0-.752 1.03-.266 2.45 1.15 3.6 3.6 5.04 3.15 5.1-1.63.0547-4.33-.537-4.56-6.05-2.39-1.77.697-1.72.481.424-1.87 2.04-2.24 3.26-2.66 7.73-2.66 2.92 0 7.09.713 9.27 1.58 4.58 1.83 8.08 6.18 6.01 7.46-.823.509-2.38-.341-4.35-2.38l-3.07-3.17-.346 3c-.190 1.65-.860 3.62-1.49 4.38-.947 1.14-.547 1.27 2.34.753 2.55-.459 2.94-.379 1.48 0.3-2.17 1.01-12.1 1.25-14.5.358zm9.98-7.81c-.696-.838-1.47-1.32-1.72-1.07-.693.693.716 2.59 1.92 2.59.663 0 .587-.574-.202-1.52zm33 7.45c-1.91-.672-1.57-.747 1.44-.319 3.5.497 3.79.384 2.64-1.01-.717-.864-1.11-2.93-.863-4.58.243-1.66.296-3.01.118-3.01s-2.12 1.62-4.32 3.61c-3.21 2.9-4.11 3.3-4.59 2.05-.718-1.87 1.91-4.81 6.28-7.03 3.57-1.82 12.7-2.19 14.6-.593.664.569 2.11 1.73 3.21 2.58l2 1.55-2-.710c-5.7-2.03-6.11-1.86-6.05 2.47.0615 4.87 1.54 5.25 5.26 1.33 1.8-1.89 2.41-2.18 1.95-.918-.364 1.01-.662 2.01-.662 2.22 0 .216-1.33 1.08-2.95 1.92-3.18 1.64-11.9 1.89-16 .448zm11-7.45c-.696-.838-1.47-1.32-1.72-1.07-.693.693.716 2.59 1.92 2.59.663 0 .587-.574-.202-1.52zm-63.3-3.9c0-.339.952-1.5 2.12-2.59 2.2-2.05 4.31-2.56 16.9-4.08 4.12-0.5 8.51-1.21 9.75-1.58 1.36-.408 2.25-.247 2.25.408 0 2.27-4.89 3.57-15.7 4.18-8.85.501-11.7 1.02-13.2 2.46-1.11 1-2.01 1.54-2.01 1.21zm73.3-1.3c-1.26-1.26-4.52-1.82-13.8-2.35-9.18-.528-12.5-1.09-13.8-2.33-2.34-2.34-1.14-2.88 3.87-1.74 2.41.552 8.08 1.45 12.6 2 8.17.995 11.8 2.36 12.7 4.79.645 1.68.312 1.6-1.67-.379zm-78.2 33.4c-.346-1.24-1.35-5.06-2.23-8.49-.883-3.43-1.96-6.02-2.39-5.75-.434.268-.572-.526-.308-1.76.452-2.12.392-2.14-.987-.455-.808.988-1.23 2.71-.935 3.83.416 1.59.739 1.75 1.47.704.748-1.06.855-1.03.531.157-.224.820.192 2.09.924 2.82 1.57 1.57 1.74 3.19.330 3.19-.550 0-1-.590-1-1.31 0-.722-1.35-2.31-3-3.53-3.46-2.56-3.64-3.75-1.29-8.68 1.49-3.12 1.52-3.71.25-4.52-.805-.509-1.1-.932-.654-.941.445-.0084.466-.570.0473-1.25-.419-.678-.820-2.03-.892-3-.168-2.28-1.06-3.14-2.4-2.31-1.53.944-1.32 2.54.337 2.54 1.13 0 1.03.983-.542 5.12-2.28 6.01-1.94 8.83.503 4.13 2.23-4.3 2.91-4.16 1.08.218-.797 1.91-1.45 3.84-1.45 4.28 0 1.76 6.75 11.2 7.51 10.5.446-.403.495-.184.108.488-.910 1.58 2.16 6.28 4.11 6.28 1.08 0 1.32-.637.873-2.25zm88.9-.75c.853-1.65 1.28-3 .948-3s1.01-1.88 2.97-4.18c1.97-2.3 3.58-4.77 3.58-5.5 0-.726.45-1.32 1-1.32s1-.477 1-1.06c0-.582-.45-.781-1-.441s-1 .178-1-.359-.312-1.8-.694-2.81c-.668-1.76-.626-1.76 1.12-.0342 2.17 2.15 3.11 1.63 1.71-.950-.553-1.02-1.45-3.28-2-5.04-.781-2.51-.695-3.26.409-3.5.967-.214 1.12-.765.482-1.78-1.05-1.68-2.28-.851-2.54 1.72-.0987.962-.742 2.92-1.43 4.36-1.04 2.17-.982 3.13.347 5.7 2.3 4.45 2.09 5.2-2.89 9.83-5.65 5.26-8.35 11.4-5.03 11.4.811 0 2.17-1.35 3.03-3zm1.11-9.84c.489.184 1.03-1.13 1.2-2.91.192-1.99-.139-3.25-.857-3.25-.647 0-.904.694-.575 1.55.341.890.174 1.29-.393.941-.544-.336-.995-.247-1 .198-.008.445-.272 1.93-.587 3.31-.398 1.74-.283 2.09.375 1.16.522-.734 1.35-1.18 1.84-1z" fill="#d7ab98"/>
 <path d="m13 198c.264-.962.781-3.53 1.15-5.69 1.03-6.09 5.04-13.1 8.83-15.4 1.87-1.15 8.89-3.48 15.6-5.17 15-3.77 31.2-9.49 32.8-11.6 1.9-2.5 3.01-.817 3.75 5.72.381 3.37 1.85 10 3.26 14.8 1.41 4.76 3.14 11 3.85 13.9l1.28 5.25h-35.7c-33.3 0-35.4-.107-35-1.75zm79.7-.591c0-1.29.630-4.43 1.4-6.99 1.37-4.56 1.35-4.68-1.17-6.52l-2.57-1.87 2.08-2.93c1.15-1.61 3.27-3.56 4.72-4.34 2.31-1.24 2.98-1.21 5.33.194 1.48.883 3.37 2.8 4.2 4.26 1.41 2.49 1.35 2.78-.863 4.59-2.1 1.73-2.29 2.47-1.68 6.69.377 2.61.926 5.76 1.22 7 .515 2.16.274 2.25-6.07 2.25-6.26 0-6.61-.122-6.61-2.34zm24.5-2.91c.704-2.89 2.41-9.08 3.79-13.8 1.38-4.68 2.83-11.3 3.23-14.8.760-6.65 1.91-8.42 3.83-5.9 1.59 2.09 17.8 7.82 32.8 11.6 6.71 1.69 13.7 4.02 15.6 5.17 3.79 2.34 7.8 9.36 8.83 15.4.368 2.17.885 4.73 1.15 5.69.451 1.64-1.69 1.75-35 1.75h-35.5zm-22.5-39.8c-8.75-1.32-15-3.35-15.1-4.91-.0477-1.03-.347-.870-.930.487-.729 1.7-.870 1.53-.930-1.13-.0581-2.59-1.05-3.88-5.75-7.5-5.6-4.31-11.3-11.8-11.3-14.8-.0031-.855-.474-3.24-1.05-5.3-.813-2.93-1.54-3.75-3.31-3.75-2.18 0-7.35-6.58-12.9-16.4-3.19-5.65-1.89-19.6 1.82-19.6 1.36 0 1.51-.773.951-4.85-1.34-9.77 2.57-27.1 7.94-35.3 3.75-5.67 22.3-19.8 26-19.9.537-.0066-1.86 1.67-5.33 3.72-12.6 7.45-18.1 16.4-18.2 29.2-.0015 3.06-.485 9.5-1.07 14.3-.880 7.18-.790 10.1.503 16.4 2.04 9.87 2.01 11.4-.254 11.4-1.66 0-1.4 1.6 2.87 17.6 5.31 19.8 5.02 19.4 18.7 30.1 9.26 7.26 14.2 9.37 21.7 9.37 8.28 0 13.6-2.19 22.7-9.28 13.8-10.8 13.5-10.3 18.8-30.2 4.27-16 4.54-17.6 2.87-17.6-2.26 0-2.3-1.66-.261-11.2.911-4.25 1.32-9.23.988-11.9-.319-2.52-.993-10-1.5-16.7-1.35-17.8-4.58-23.3-18.5-31.7-6.59-3.95-6.49-4.93.124-1.15 6.01 3.43 17.8 13 20.2 16.5 4.82 6.77 7.34 15.9 7.85 28.5.424 10.5.726 12.1 2.55 13.6 3.27 2.64 3.54 13.1.490 18.6-6.25 11.2-12.4 18.5-14.1 16.7-.601-.601-2.69 6.12-2.7 8.68-.0109 3.03-5.73 10.5-11.3 14.8-5.21 4.01-5.69 4.71-5.79 8.5-.113 3.93-.156 3.98-.882 1.13-.420-1.65-.817-2.21-.882-1.25-.0664.983-.917 1.75-1.94 1.75-1 0-3.81.638-6.25 1.42-5.78 1.85-11.4 2.35-16.9 1.51zm54.2-44.5c7.09-10.6 7.85-12.4 7.72-18.4-.0863-4.06-.282-4.75-.748-2.65l-.632 2.85-1.16-3.1c-.977-2.61-.924-3.1.333-3.1.823 0 1.31-.562 1.08-1.25-.903-2.71-3.09-1.01-4.53 3.53-1.15 3.6-1.26 5.33-.443 7 1.78 3.66 2 5.13 1.06 6.97-1.22 2.38-3.19 2.22-2.55-.204.281-1.07-.0687-2.75-.777-3.71-1.13-1.55-1.55-.874-3.48 5.6-1.21 4.05-2.44 8.88-2.74 10.7-.818 5.04 1.66 3.49 6.88-4.3zm-91.5 3.45c-1.33-6.65-4.74-16.8-5.64-16.8-1.27 0-2.35 4.59-1.43 6.07.453.734.230 1.02-.584.747-2.86-.953-3.44-3.59-1.63-7.39 1.64-3.43 1.64-3.99.131-8.55-.892-2.68-2.01-4.88-2.48-4.88-1.44 0-2.31 2.18-1.14 2.9.624.386.810 1.73.435 3.14l-.656 2.46-.707-2.5c-.487-1.72-.738-.596-.806 3.61-.0958 5.88.136 6.47 5.97 15.3 6.31 9.5 9.73 11.9 8.54 5.96zm38.1 16.5c.688-.277 1.81-.277 2.5 0 .688.277.125.504-1.25.504s-1.94-.227-1.25-.504zm6.01-.045c1.24-.239 3.04-.230 4 .0202.956.250-.0617.446-2.26.435-2.2-.0111-2.98-.216-1.74-.455zm-6.25-11.3c-.350-.567.0511-.734.941-.393 1.73.665 2.05 1.38.611 1.38-.518 0-1.22-.445-1.55-.989zm-2.35-7.01c0-1.38.227-1.94.504-1.25.277.688.277 1.81 0 2.5-.277.688-.504.125-.504-1.25zm-23.3-18.2c-1.71-.742-3.42-2.18-3.81-3.19-.625-1.63-.444-1.6 1.6.251 2.47 2.24 8.06 4.22 5.95 2.11-1.49-1.49-1.46-5.02.0560-6.54.933-.933.726-1.2-.935-1.2-1.17 0-3.29.439-4.7.975-3.48 1.32-3.24.428.385-1.45 6.51-3.37 17.1-.962 20.1 4.54 1.03 1.92.747 1.84-2.35-.625-3.52-2.81-8.09-4.07-7.36-2.03.212.597 1.13 1.02 2.03.946 1.89-.160 2.33 4.09.536 5.2-.772.477-.696.944.25 1.54 2.27 1.44-8.33.950-11.7-.538zm47.4.397c2.4-.965 3.08-2.14 1-1.72-.837.167-1.21-.988-1.14-3.5.0627-2.06-.0341-3.75-.215-3.75s-1.92 1.4-3.86 3.1c-4.28 3.76-4.75 2.43-.557-1.58 3.78-3.62 11.6-4.57 17.5-2.11 2.13.890 3.62 1.87 3.31 2.19-.312.312-1.49.0732-2.62-.531-2.44-1.31-8.28-1.05-7.82.338.179.536.922 1.17 1.65 1.42.887.296 1.07-.0148.541-.938-.639-1.12-.531-1.14.575-.116 1.06.988 1.12 1.9.259 4.18-1.08 2.87-1.06 2.9 1.54 1.94 1.45-.538 3.2-1.72 3.89-2.62 1.11-1.46 1.25-1.47 1.25-.0689 0 2.41-6.16 4.81-12.2 4.74-4.22-0.05-4.87-.254-3.1-.968zm-53.6-14.1c.678-.683 1.49-.991 1.79-.683.308.308-.247.867-1.23 1.24-1.43.543-1.54.428-.560-.560zm69.3.124c-.901-.582-1.02-.975-.309-.985.655-.0084 1.47.435 1.81.985.767 1.24.421 1.24-1.5 0zm-65.9-1.42c.350-.375 5.04-1.13 10.4-1.68 5.38-.550 10.6-1.44 11.6-1.98 2.09-1.12 2.52.277.584 1.88-1.37 1.14-23.6 2.89-22.6 1.78zm47.9-.322c-5.3-.363-8.03-1.52-8.03-3.41 0-.525.780-.496 1.84.0695 1.01.540 6.24 1.43 11.6 1.98 16.1 1.65 12.4 2.58-5.42 1.36z" fill="#c79e75"/>
 <path d="m13 198c.264-.962.781-3.53 1.15-5.69 1.03-6.09 5.04-13.1 8.83-15.4 1.87-1.15 8.89-3.48 15.6-5.17 15-3.77 31.2-9.49 32.8-11.6 1.95-2.56 3.04-.749 3.8 6.34.396 3.7 2.04 11 3.66 16.3 1.62 5.25 3.33 11.2 3.79 13.3l.848 3.75h-35.5c-33.3 0-35.4-.107-35-1.75zm79.7-.591c0-1.29.630-4.43 1.4-6.99 1.38-4.58 1.36-4.68-1.25-6.59l-2.65-1.94 3.95-4.07c2.17-2.24 4.73-4.07 5.67-4.07 2.04 0 7.87 5.57 7.87 7.52 0 .752-.956 2.04-2.12 2.85-1.86 1.3-2.04 2.09-1.43 6.31.383 2.65.937 5.83 1.23 7.07.515 2.16.274 2.25-6.07 2.25-6.26 0-6.61-.122-6.61-2.34zm24.1-1.54c.479-2.13 1.99-7.43 3.37-11.8 1.37-4.34 3.01-11.5 3.64-15.9 1.28-8.85 2.25-10.8 4.15-8.16 1.44 1.96 23.6 9.69 34.8 12.1 15.9 3.48 20.5 8.26 23.4 24.3l.578 3.25h-70.8zm-25.5-41c-.942-.374 2.75-.680 8.21-.680s9.15.306 8.21.680c-.942.374-4.64.680-8.21.680-3.58 0-7.27-.306-8.21-.680zm-8.19-3.68c-4.39-2.98-4.33-2.97-4.91-.75-.323 1.24-.491 1.05-.573-.649-.0764-1.58-2.61-4.82-7.43-9.5-4.02-3.91-5.04-5.05-2.25-2.54 6.66 5.99 13.2 11.2 17.6 13.8 1.92 1.17 3 2.13 2.39 2.14-.611.002-2.77-1.12-4.79-2.5zm30.4.361c4.33-2.64 10.9-7.81 17.6-13.8 2.79-2.51 1.77-1.36-2.25 2.54-6.08 5.9-7.34 7.68-7.47 10.5-.133 3.03-.196 3.1-.566.649-.229-1.51-.592-2.75-.806-2.75s-2.05 1.12-4.07 2.5c-2.03 1.38-4.18 2.5-4.79 2.5-.611-.002.463-.963 2.39-2.14zm-52.9-24.4c.0480-1.16.285-1.4.604-.604.289.722.253 1.58-.0790 1.92-.332.332-.569-.258-.525-1.31zm77 0c.048-1.16.285-1.4.604-.604.289.722.253 1.58-.0789 1.92-.332.332-.569-.258-.525-1.31zm-78-4c.0480-1.16.285-1.4.604-.604.289.722.253 1.58-.0790 1.92-.332.332-.569-.258-.525-1.31zm79 0c.048-1.16.285-1.4.604-.604.289.722.253 1.58-.0789 1.92-.332.332-.569-.258-.525-1.31zm-80.4-3.92c-.317-.825-.140-1.5.393-1.5s.969.675.969 1.5-.177 1.5-.393 1.5-.652-.675-.969-1.5zm81.4 0c0-.825.436-1.5.969-1.5s.710.675.393 1.5-.752 1.5-.969 1.5c-.216 0-.393-.675-.393-1.5zm4-.878c0-.208.788-.995 1.75-1.75 1.59-1.24 1.62-1.21.378.378-1.31 1.67-2.13 2.2-2.13 1.37zm-92-3.62c-.589-1.1-.845-2-.570-2s.982.9 1.57 2c.589 1.1.845 2 .570 2s-.982-.9-1.57-2zm6.08.417c.0480-1.16.285-1.4.604-.604.289.722.253 1.58-.0790 1.92-.332.332-.569-.258-.525-1.31zm83 0c.048-1.16.285-1.4.604-.604.289.722.253 1.58-.0789 1.92-.332.332-.569-.258-.525-1.31zm6.92-2.42c.589-1.1 1.3-2 1.57-2 .275 0 .0183.9-.570 2-.589 1.1-1.3 2-1.57 2-.275 0-.0183-.9.570-2zm-91.9-4.58c.0480-1.16.285-1.4.604-.604.289.722.253 1.58-.0790 1.92-.332.332-.569-.258-.525-1.31zm87 0c.048-1.16.285-1.4.604-.604.289.722.253 1.58-.0789 1.92-.332.332-.569-.258-.525-1.31zm8.42-.417c.995-1.1 2.03-2 2.31-2 .275 0-.314.9-1.31 2-.995 1.1-2.03 2-2.31 2-.275 0 .314-.9 1.31-2zm-105-1.25-1.9-2.25 2.25 1.9c2.11 1.79 2.71 2.6 1.9 2.6-.190 0-1.2-1.01-2.25-2.25zm8.67-2.33c.0480-1.16.285-1.4.604-.604.289.722.253 1.58-.0790 1.92-.332.332-.569-.258-.525-1.31zm89 0c.048-1.16.285-1.4.604-.604.289.722.253 1.58-.0789 1.92-.332.332-.569-.258-.525-1.31zm-96-1.21c-.675-1.26-.445-2.96.774-5.72 1.44-3.26 1.85-3.61 2.44-2.08.390 1.02.198 2.46-.427 3.21-.624.752-.919 2.5-.656 3.87.555 2.9-.731 3.33-2.13.714zm101 .416c.350-.913.075-3.02-.612-4.67-1.48-3.58-.412-5.26 1.6-2.51 1.85 2.54 1.81 5.99-.105 7.58-1.28 1.06-1.42.994-.886-.396zm5.49-.623c1.46-3.06 1.92-3.63 1.92-2.36 0 .537-0.7 1.85-1.56 2.92-1.47 1.83-1.49 1.8-.365-.559zm-112-7.8c0-3.58.181-5.04.403-3.25s.222 4.71 0 6.5-.403.325-.403-3.25zm115 .5c.008-2.75.202-3.76.432-2.24s.224 3.77-.0136 5c-.237 1.23-.425-.0138-.418-2.76zm-102-4.4c-2.56-9.89-2.4-22.2.445-33 .790-3.01.855-2.73.472 2-1.72 21.3-1.72 21.9-.0311 29.5 2.15 9.67 1.51 10.8-.886 1.55zm86.5 6.28c-.042-.653.641-4.25 1.52-8 1.55-6.62 1.53-10.7-.121-29.8-.391-4.53-.345-4.67.493-1.5 2.92 11.1 2.97 24.5.127 34-1.07 3.58-1.98 5.97-2.02 5.31zm-71.9-1.8c-1.71-.742-3.42-2.18-3.81-3.19-.594-1.55-.330-1.49 1.66.389 3.34 3.13 5.97 2.99 5.15-.287-.362-1.44-.104-3.15.603-4 1.02-1.23.884-1.49-.823-1.49-1.13 0-3.21.439-4.62.975-3.87 1.47-3.08.138.903-1.53 7.39-3.09 16.7-.828 19.6 4.75 1.07 2.06.880 2.01-1.82-.522-1.66-1.55-4.19-2.95-5.63-3.11-2.9-.318-3.36.579-1.21 2.36 1.08.894 1.52.864 1.92-.128.285-.710.554-.0808.597 1.4.0434 1.48-.378 2.97-.937 3.32-.559.345-.757 1.05-.441 1.56.876 1.42-7.61 1.04-11.1-.497zm5.6-1.07c0-.825-.177-1.5-.393-1.5s-.652.675-.969 1.5-.140 1.5.393 1.5.969-.675.969-1.5zm42.9 1.14c.766-.928 1.1-1.98.75-2.33-.353-.353-.642-.0909-.642.583s-0.5.917-1.11.540c-.650-.402-.883-2.08-.563-4.06.301-1.86.366-3.37.145-3.37s-2.07 1.46-4.11 3.25c-3.07 2.7-3.49 2.86-2.47.946 1.83-3.43 7.05-6.19 11.7-6.19 4.65-.0042 10.4 1.73 10.4 3.13 0 .549-0.8.509-1.93-.0978-1.06-.569-2.87-1.04-4.01-1.04-1.8 0-1.91.257-.871 1.93.918 1.47.929 2.53.0481 4.46-1.12 2.47-1.08 2.51 1.56 1.53 1.49-.553 3.27-1.75 3.96-2.65.688-.905 1.25-1.18 1.25-.610 0 2.36-4.07 4.5-9.65 5.07-5.41.555-5.75.473-4.46-1.09zm7.11-6.02c0-.208-.675-.938-1.5-1.62-1.23-1.02-1.5-.951-1.5.378 0 .892.675 1.62 1.5 1.62s1.5-.170 1.5-.378zm23.6 2.88c2.53-8.68 3.1-18.4 1.2-20.4-1-1.08-1-1.21 0-.641.851.480 1.25-.0714 1.25-1.73 0-5.11-1.35-8.74-4.81-12.9-3.47-4.17-3.48-4.21-.384-1.36 3.75 3.46 3.81 3.29 1.18-3.72-1.25-3.33-3.77-7.12-6.68-10-5.07-5.07-5.27-7.91-.215-3.12 7.17 6.81 11.9 21 11.9 35.9.013 7.92.257 9.16 2.01 10.3 1.1.687 2 1.78 2 2.43s-.607.353-1.35-.661c-1.37-1.87-3.61-1.4-3.7.771-.0248.655-.707 2.54-1.52 4.19-.808 1.65-1.21 2.1-.886 1zm5.56-.168c-.0638-.643-.407-1.99-.763-3-.502-1.42-.369-1.58.594-.688.683.629 1.03 1.98.763 3-.263 1.02-.530 1.33-.594.688zm-112-2c-.0084-1.24.435-2.25.985-2.25 1.25 0 1.25 1.06 0 3-.784 1.21-.972 1.07-.985-.75zm4.5-1.17c-.370-1.69-1.43-3.5-2.35-4.04-.920-.537-1.17-.989-.558-1.01.735-.0201 1.12-3.17 1.12-9.28.0078-10.3 1.9-19.1 5.88-27.2 2.74-5.6 8.84-12.4 10-11.2.380.380-1.41 2.79-3.98 5.36-2.91 2.91-5.43 6.69-6.68 10-2.62 7.01-2.57 7.18 1.18 3.72 3.1-2.85 3.08-2.81-.384 1.36-3.45 4.15-4.81 7.78-4.81 12.9 0 1.66.399 2.21 1.25 1.73 1-.565 1-.436 0 .641-1.5 1.61-1.59 8.77-.191 14.8.556 2.41.812 4.58.571 4.82-.242.242-.743-.940-1.11-2.63zm1.48-19.5c0-.208.788-.995 1.75-1.75 1.59-1.24 1.62-1.21.378.378-1.31 1.67-2.13 2.2-2.13 1.37zm97.9-1.37c-1.24-1.59-1.21-1.62.378-.378 1.67 1.31 2.2 2.13 1.37 2.13-.208 0-.995-.788-1.75-1.75zm-80.9-35.8c1.29-1.38 2.57-2.5 2.85-2.5.275 0-.557 1.12-1.85 2.5s-2.57 2.5-2.85 2.5c-.275 0 .557-1.12 1.85-2.5zm64.9-.25-2.42-2.75 2.75 2.42c1.51 1.33 2.75 2.57 2.75 2.75 0 .784-.810.146-3.08-2.42zm-56.9-5.6c1.07-.855 2.38-1.56 2.92-1.56 1.27 0 .703.462-2.36 1.92-2.36 1.12-2.39 1.1-.559-.365zm47.6-.0552c-1.38-.786-2.02-1.45-1.44-1.46.582-.0195 1.93.625 3 1.43 2.47 1.87 1.68 1.88-1.56.0318z" fill="#b78f5f"/>
 <path d="m13.3 197c2.85-16 7.42-20.8 23.4-24.3 11.5-2.54 32.2-9.57 34.2-11.6 1.02-1.02 2.23-1.61 2.7-1.33.465.287 1.17 3.56 1.57 7.27.397 3.71 1.55 9.45 2.56 12.8 1.01 3.31 2.74 9.28 3.83 13.3l1.99 7.25h-70.9zm79.4.909c0-1.29.630-4.43 1.4-6.99 1.38-4.58 1.36-4.68-1.25-6.59l-2.65-1.94 3.95-4.07c2.17-2.24 4.67-4.07 5.55-4.07 1.81 0 7.99 5.99 7.99 7.74 0 .630-.965 1.82-2.14 2.65-1.85 1.29-2.06 2.13-1.52 6.06.343 2.51.907 5.68 1.25 7.06.622 2.48.569 2.5-5.98 2.5-6.26 0-6.61-.122-6.61-2.34zm24.7-3.41c.809-3.16 2.52-9.12 3.8-13.2 1.28-4.12 2.66-10.5 3.05-14.3.395-3.72 1.1-7 1.56-7.29.465-.287 1.68.310 2.7 1.33 2.01 2.01 22.2 8.9 34.2 11.7 16.1 3.74 20.6 8.46 23.4 24.3l.567 3.25h-71zm-20.1-40c1.51-.229 3.99-.229 5.5 0s.275.417-2.75.417-4.26-.187-2.75-.417zm-13.7-3.78c-4.39-2.98-4.33-2.97-4.91-.75-.320 1.23-.492 1.02-.573-.671-.0638-1.33-.904-3.35-1.87-4.48-.962-1.13.275-.449 2.75 1.52s5.85 4.3 7.5 5.19c1.65.887 2.5 1.63 1.89 1.65-.611.022-2.77-1.08-4.79-2.46zm29.9.808c1.65-.887 5.02-3.22 7.5-5.19s3.71-2.65 2.75-1.52c-.962 1.13-1.82 3.6-1.9 5.48-.132 3.03-.198 3.1-.566.671-.229-1.51-.592-2.75-.806-2.75s-2.05 1.12-4.07 2.5c-2.03 1.38-4.18 2.48-4.79 2.46-.611-.022.240-.765 1.89-1.65zm-42.4-12c-1.24-1.59-1.21-1.62.378-.378.962.755 1.75 1.54 1.75 1.75 0 .823-.821.293-2.13-1.37zm56.1 1.37c0-.208.788-.995 1.75-1.75 1.59-1.24 1.62-1.21.378.378-1.31 1.67-2.13 2.2-2.13 1.37zm-63.1-8.37c-1.24-1.59-1.21-1.62.378-.378.962.755 1.75 1.54 1.75 1.75 0 .823-.821.293-2.13-1.37zm70.1 1.37c0-.208.788-.995 1.75-1.75 1.59-1.24 1.62-1.21.378.378-1.31 1.67-2.13 2.2-2.13 1.37zm-72.9-8.21c.0480-1.16.285-1.4.604-.604.289.722.253 1.58-.0790 1.92-.332.332-.569-.258-.525-1.31zm77 0c.048-1.16.285-1.4.604-.604.289.722.253 1.58-.0789 1.92-.332.332-.569-.258-.525-1.31zm-78-4c.0480-1.16.285-1.4.604-.604.289.722.253 1.58-.0790 1.92-.332.332-.569-.258-.525-1.31zm-1.58-4.42c-.340-.55-.141-1 .441-1s1.06.45 1.06 1-.198 1-.441 1-.719-.45-1.06-1zm81.5 0c0-.55.477-1 1.06-1 .582 0 .781.45.441 1s-.816 1-1.06 1c-.243 0-.441-.45-.441-1zm4-.378c0-.208.788-.995 1.75-1.75 1.59-1.24 1.62-1.21.378.378-1.31 1.67-2.13 2.2-2.13 1.37zm-92-3.62c-.589-1.1-.845-2-.570-2s.982.9 1.57 2c.589 1.1.845 2 .570 2s-.982-.9-1.57-2zm89.1.417c.048-1.16.285-1.4.604-.604.289.722.253 1.58-.0789 1.92-.332.332-.569-.258-.525-1.31zm6.92-2.42c.589-1.1 1.3-2 1.57-2 .275 0 .0183.9-.570 2-.589 1.1-1.3 2-1.57 2-.275 0-.0183-.9.570-2zm-91.9-4.58c.0480-1.16.285-1.4.604-.604.289.722.253 1.58-.0790 1.92-.332.332-.569-.258-.525-1.31zm87 0c.048-1.16.285-1.4.604-.604.289.722.253 1.58-.0789 1.92-.332.332-.569-.258-.525-1.31zm8.42-.417c.995-1.1 2.03-2 2.31-2 .275 0-.314.9-1.31 2-.995 1.1-2.03 2-2.31 2-.275 0 .314-.9 1.31-2zm-105-1.25-1.9-2.25 2.25 1.9c2.11 1.79 2.71 2.6 1.9 2.6-.190 0-1.2-1.01-2.25-2.25zm1.71-3.54c-.675-1.26-.445-2.96.774-5.72 1.44-3.26 1.85-3.61 2.44-2.08.390 1.02.198 2.46-.427 3.21-.624.752-.919 2.5-.656 3.87.555 2.9-.731 3.33-2.13.714zm102-.0486c.281-1.08-.00004-2.91-.625-4.08-1.54-2.87-.191-5 1.61-2.54 1.75 2.4 1.72 5.91-.074 7.4-1.16.964-1.33.822-.910-.775zm5.41-.159c1.46-3.06 1.92-3.63 1.92-2.36 0 .537-0.7 1.85-1.56 2.92-1.47 1.83-1.49 1.8-.365-.559zm-113-8.8c0-3.58.181-5.04.403-3.25s.222 4.71 0 6.5-.403.325-.403-3.25zm115 0c0-2.48.195-3.49.433-2.25s.238 3.26 0 4.5-.433.225-.433-2.25zm-81.5 1.29c1.24-.238 2.25-1.05 2.25-1.81 0-.846-.787-1.22-2.05-.978-2.6.501-3.69-2.1-2.01-4.79 1.2-1.93 1.07-1.99-3.09-1.43-3.12.416-3.86.303-2.6-.401 5.92-3.33 17.3-1.47 19.8 3.24 1.16 2.16 1.04 2.14-2-.415-1.78-1.49-4.32-2.72-5.65-2.72-2.92 0-3.12 1.09-.495 2.72 1.51.941 2.04.939 2.42-.0095.271-.668.528-.003.571 1.48.0434 1.48-.378 2.97-.937 3.32-.559.345-.757 1.05-.441 1.56.325.527-1.3.872-3.73.795-2.37-.0748-3.3-.331-2.06-.570zm44 0c3.99-.769 2.48-2.91-1.64-2.34-1.06.148-1.25-.666-.813-3.38.555-3.42.484-3.53-1.61-2.46-1.2.615-3.01 2.08-4 3.25l-1.82 2.13 1.13-2.3c1.57-3.19 6.84-6.19 10.9-6.19 4.19-.0046 11.1 2 11.1 3.21 0 .495-.528.575-1.17.176-.645-.399-2.9-1.04-5.02-1.43-4.39-.802-6.11.612-3.27 2.69 1.46 1.07 2.01 1.09 2.64.0983 1.22-1.92 1.03 1.99-.203 4.3-.947 1.77-.812 1.84 1.72.876 1.51-.574 3.41-1.58 4.22-2.24 1.18-.952 1.31-.920.661.160-1.26 2.09-7.09 4.16-11.3 4.01-2.32-.0835-2.91-.304-1.53-.570zm-51.1-.9c-.694-.280-1.77-1.48-2.39-2.67l-1.12-2.16 2.39 2.12c1.31 1.17 3.06 2.37 3.89 2.67 1.33.487 1.33.548 0 .548-.825 0-2.07-.229-2.76-.508zm85.9-3c-.0638-.643-.407-1.99-.763-3-.502-1.42-.369-1.58.594-.688.683.629 1.03 1.98.763 3-.263 1.02-.530 1.33-.594.688zm-111-2.1c-.0084-1.24.435-2.25.985-2.25 1.25 0 1.25 1.06 0 3-.784 1.21-.972 1.07-.985-.75zm4.06-2.83c.0480-1.16.285-1.4.604-.604.289.722.253 1.58-.0790 1.92-.332.332-.569-.258-.525-1.31zm103 0c.048-1.16.285-1.4.604-.604.289.722.253 1.58-.0789 1.92-.332.332-.569-.258-.525-1.31zm4.58-.874c-.326-.849-1.28-1.54-2.12-1.54-1.29 0-1.5-1.62-1.32-10.2l.208-10.2.332 9.37c.292 8.24.598 9.59 2.54 11.2 1.22.986 1.93 2.08 1.58 2.42-.345.346-.893-.0652-1.22-.914zm-111-2.4c.776-.493 1.33-4.35 1.54-10.7l.330-9.96.209 10.8c.188 9.66.0312 10.7-1.54 10.7-1.2-.0105-1.37-.256-.539-.785zm2.45-23.2c0-1.38.227-1.94.504-1.25.277.688.277 1.81 0 2.5-.277.688-.504.125-.504-1.25zm103 0c0-1.38.227-1.94.504-1.25.277.688.277 1.81 0 2.5-.277.688-.504.125-.504-1.25zm-102-4c-.0170-.825.587-2.85 1.34-4.5 1.77-3.86 1.79-2.07.0361 2.5-.741 1.92-1.36 2.82-1.38 2zm98.5-6.54c-.965-2.51-.680-3.16.499-1.14.584 1 .851 2.04.593 2.29-.257.257-.749-.263-1.09-1.16zm-94.3-5.5c.589-1.1 1.3-2 1.57-2 .275 0 .0183.9-.570 2-.589 1.1-1.3 2-1.57 2-.275 0-.0183-.9.570-2zm91 0c-.589-1.1-.845-2-.570-2s.982.9 1.57 2c.589 1.1.845 2 .570 2s-.982-.9-1.57-2zm-78-12.5c1.29-1.38 2.57-2.5 2.85-2.5.275 0-.557 1.12-1.85 2.5s-2.57 2.5-2.85 2.5c-.275 0 .557-1.12 1.85-2.5zm64.9-.25-2.42-2.75 2.75 2.42c1.51 1.33 2.75 2.57 2.75 2.75 0 .784-.810.146-3.08-2.42zm-56.9-5.6c1.07-.855 2.38-1.56 2.92-1.56 1.27 0 .703.462-2.36 1.92-2.36 1.12-2.39 1.1-.559-.365zm47.6-.0552c-1.38-.786-2.02-1.45-1.44-1.46.582-.0195 1.93.625 3 1.43 2.47 1.87 1.68 1.88-1.56.0318z" fill="#b7725c"/>
 <path d="m13.3 197c2.85-16 7.42-20.8 23.4-24.3 11.5-2.54 32.2-9.57 34.2-11.6 1.02-1.02 2.23-1.61 2.7-1.33.465.287 1.17 3.56 1.57 7.27.397 3.71 1.55 9.45 2.56 12.8 1.01 3.31 2.74 9.28 3.83 13.3l1.99 7.25h-70.9zm79.4.909c0-1.29.630-4.43 1.4-6.99 1.38-4.58 1.36-4.68-1.25-6.59l-2.65-1.94 3.95-4.07c2.17-2.24 4.67-4.07 5.55-4.07 1.81 0 7.99 5.99 7.99 7.74 0 .630-.965 1.82-2.14 2.65-1.85 1.29-2.06 2.13-1.52 6.06.343 2.51.907 5.68 1.25 7.06.622 2.48.569 2.5-5.98 2.5-6.26 0-6.61-.122-6.61-2.34zm24.7-3.41c.809-3.16 2.52-9.12 3.8-13.2 1.28-4.12 2.66-10.5 3.05-14.3.395-3.72 1.1-7 1.56-7.29.465-.287 1.68.310 2.7 1.33 2.01 2.01 22.2 8.9 34.2 11.7 16.1 3.74 20.6 8.46 23.4 24.3l.567 3.25h-71zm-41.6-100c1.24-.238 2.25-1.13 2.25-1.98 0-1.05-.636-1.38-2-1.02-1.1.288-2.25.115-2.56-.383-.308-.498.0290-.913.749-.921.988-.0116.957-.238-.127-.924-1.25-.789-1.25-1.14 0-2.65 1.34-1.62 1.12-1.7-3.06-1.14-3.21.425-4 .315-2.76-.385 5.92-3.33 17.3-1.47 19.8 3.24 1.16 2.16 1.04 2.14-2-.415-1.78-1.49-4.32-2.72-5.65-2.72-2.67 0-3.28 1.73-.929 2.64.822.315 1.25.976.941 1.47-.304.492.148.895 1.01.895 2.03 0 2.01 1.89-.0248 2.67-1.28.489-1.32.773-.25 1.45.829.525-.370 0.8-3.17.725-2.48-.0665-3.49-.316-2.25-.554zm44 0c1.24-.238 2.25-1.13 2.25-1.97 0-1.14-.645-1.38-2.5-.911-1.44.362-2.5.196-2.5-.392 0-.560.562-1.03 1.25-1.03.868-.0106.811-.293-.186-.924-1.19-.753-1.21-1.18-.128-2.48.719-.867.998-1.58.620-1.58-1.47 0-5.14 2.33-6.87 4.37l-1.82 2.13 1.13-2.3c1.57-3.19 6.84-6.19 10.9-6.19 4.19-.0046 11.1 2 11.1 3.21 0 .495-.528.575-1.17.176-.645-.399-2.9-1.04-5.02-1.43-4.25-.778-6.13.593-3.47 2.54 0.9.658 1.34 1.49.986 1.85-.358.358.0847.651.984.651 1.04 0 1.43.544 1.06 1.5-.773 2.01 1.59 1.92 4.58-.173 1.34-.940 2.04-1.11 1.6-.398-1.25 2.03-7.14 4.08-11.3 3.93-2.32-.0835-2.91-.304-1.53-.570zm-50.1-.9c-.694-.280-1.77-1.48-2.39-2.67l-1.12-2.16 2.39 2.12c1.31 1.17 3.06 2.37 3.89 2.67 1.33.487 1.33.548 0 .548-.825 0-2.07-.229-2.76-.508z" fill="#5f5f5b"/>
 <path d="m14 195c.837-7.07 5.16-15.3 9.32-17.8 1.83-1.08 7.27-2.89 12.1-4.01 13.2-3.09 33.5-10 36-12.3l2.2-2.01.496 2.38c.273 1.31.775 4.63 1.12 7.38.341 2.75 2.17 10.2 4.05 16.6 1.89 6.38 3.43 12.3 3.43 13.2 0 1.5-3.14 1.65-34.6 1.65h-34.6zm78.7 3.35c0-1.01.677-4.05 1.5-6.75 1.49-4.88 1.49-4.92-1.14-7.23l-2.64-2.32 3.84-3.93c2.11-2.16 4.41-3.93 5.1-3.93 1.64 0 8.33 5.88 8.33 7.32 0 .610-1.1 2.03-2.44 3.15-2.41 2.01-2.42 2.12-1.12 8.79l1.32 6.75h-6.38c-5.53 0-6.38-.245-6.38-1.84zm24 .294c0-.851 1.53-6.81 3.4-13.3 1.87-6.44 3.7-14 4.05-16.7.359-2.75.876-6.07 1.15-7.37l.496-2.38 2.2 2.01c2.42 2.21 22.6 9.14 35.3 12.1 12 2.81 15.5 4.95 18.8 11.4 1.5 2.97 3.01 7.73 3.35 10.6l.614 5.19h-34.6c-30.6 0-34.6-.181-34.6-1.55zm13-106c0-.208.788-.995 1.75-1.75 1.59-1.24 1.62-1.21.378.378-1.31 1.67-2.13 2.2-2.13 1.37zm-54-.5c-2.22-.348-2.22-.352-.25-2.47l1.98-2.12 1.94 2.09c1.77 1.9 1.79 2.12.25 2.47-.932.211-2.7.227-3.92.0354zm44-.0208c-2.07-.299-2.09-.426-.528-2.26 2.12-2.48 2.66-2.44 4.48.347 1.63 2.49 1.26 2.66-3.96 1.91zm-35.4-4.94c-1.24-1.59-1.21-1.62.378-.378.962.755 1.75 1.54 1.75 1.75 0 .823-.821.293-2.13-1.37zm42.9-1.93c.722-.289 1.58-.253 1.92.0790.332.332-.258.569-1.31.525-1.16-.0480-1.4-.285-.604-.604zm-52-1c.722-.289 1.58-.253 1.92.0790.332.332-.258.569-1.31.525-1.16-.0480-1.4-.285-.604-.604zm46 0c.722-.289 1.58-.253 1.92.0790.332.332-.258.569-1.31.525-1.16-.0480-1.4-.285-.604-.604z" fill="#1b262c"/>
 <path d="m14.2 196c.275-2.68 1.72-7.58 3.2-10.9 2.39-5.34 3.28-6.29 7.75-8.37 2.78-1.29 5.8-2.36 6.72-2.36 1.39-.008 20.3-5.21 27.3-7.51 1.54-.505 1.65-.430.5.322-2.34 1.52-16.3 5.88-24.8 7.75-4.24.930-8.96 2.32-10.5 3.1l-2.77 1.4 3.08 4.47c3.32 4.82 6.01 10.6 5.9 12.7-.0388.705-.718-.484-1.51-2.64-1.4-3.81-7.19-13.6-8.06-13.6-.771 0-4.48 9.36-5.94 15l-1.43 5.5zm41.6-1.83c-1.15-3.41-2.09-6.8-2.09-7.55 0-.745 1.79-2.16 3.98-3.14l3.98-1.78-2.98-2.2c-1.64-1.21-2.98-2.83-2.98-3.61 0-1.49 14.8-14.1 15.6-13.3.258.258-2.95 3.04-7.12 6.18-8.2 6.17-8.06 5.64-3.13 11.3l1.93 2.21-4.05 1.62-4.05 1.62 2.42 7.1c2.77 8.15 2.69 7.75 1.51 7.75-0.5 0-1.85-2.79-3-6.19zm21.7-7.06c-2.02-7.33-3.85-16.5-4.08-20.5-.523-8.99.130-8.73 1.42.582.533 3.85 2.53 12.3 4.43 18.8 3.59 12.2 4.01 14.4 2.68 14.4-.433 0-2.43-5.96-4.45-13.2zm15.2 12.1c0-.651.750-3.86 1.67-7.12 1.66-5.92 1.66-5.94-.619-7.66-1.91-1.44-2.1-2.06-1.17-3.81.614-1.15 2.47-3.05 4.12-4.22l3-2.14 2.98 2.12c4.76 3.39 5.28 5.11 2.42 8.11-2.27 2.38-2.39 2.96-1.46 7 1.99 8.64 1.85 8.9-4.94 8.9-3.96 0-6-.403-6-1.18zm24-.154c0-.736 1.56-6.63 3.46-13.1s3.9-14.9 4.43-18.8c1.29-9.31 1.95-9.59 1.39-.582-.470 7.56-7.05 33.8-8.47 33.8-.447 0-.813-.602-.813-1.34zm23 .709c0-.346 1.1-3.68 2.45-7.41l2.45-6.78-4.02-1.61-4.02-1.61 3.11-3.93 3.11-3.93-7.57-5.7c-4.16-3.13-7.36-5.91-7.1-6.16.803-.803 15.6 11.8 15.6 13.3 0 .773-1.34 2.4-2.98 3.61l-2.98 2.2 3.98 1.78c2.19.979 3.98 2.39 3.98 3.14 0 2.49-4.17 13.7-5.09 13.7-0.5 0-.908-.283-.908-.629zm45-1.62c-.0246-2.62-4.47-15.6-5.8-17-1.06-1.06-6.49 7.01-8.6 12.8-.791 2.16-1.47 3.35-1.51 2.64-.113-2.06 2.58-7.85 5.9-12.7l3.08-4.47-2.77-1.4c-1.52-.773-6.24-2.17-10.5-3.1-8.52-1.87-22.5-6.22-24.8-7.75-1.15-.753-1.04-.827.5-.322 7.01 2.3 25.9 7.5 27.3 7.51.919.005 3.94 1.07 6.72 2.36 4.48 2.09 5.36 3.04 7.75 8.37 2.59 5.77 4.66 15.3 3.33 15.3-.350 0-.645-1.01-.657-2.25zm-122-32.8c.825-.533 1.95-.969 2.5-.969s.325.436-.5.969-1.95.969-2.5.969-.325-.436.5-.969zm13.2-74.8c-.342-.554.101-1.28.984-1.62 1.91-.735 2.98.0749 2.06 1.56-.830 1.34-2.23 1.37-3.05.0595zm44-.0801c-.370-.598-.280-1.48.199-1.96 1.18-1.18 3.79.539 2.92 1.93-.874 1.41-2.26 1.42-3.12.0247z" fill="#090a0b"/>
</svg>
