<?xml version="1.0" encoding="UTF-8" standalone="no"?>
<svg xmlns:rdf="http://www.w3.org/1999/02/22-rdf-syntax-ns#" xmlns="http://www.w3.org/2000/svg" height="267" viewBox="0 0 266.66666 266.66666" width="267" version="1.1" xmlns:cc="http://creativecommons.org/ns#" xmlns:dc="http://purl.org/dc/elements/1.1/">
 <g stroke-width="1.33">
  <path d="m23.5 263c.504-2.75 2.45-8.44 4.32-12.6 3.94-8.84 10.4-13.5 20.6-14.8 9.2-1.21 46.8-14 48.8-16.5 2.59-3.44 4.31-.549 5.76 9.67.707 4.99 2.86 14.1 4.78 20.3l3.49 11.2 3.24-5.75c1.78-3.16 5.91-8.48 9.18-11.8l5.95-6.08-9.96-5.7c-5.48-3.13-10.6-6.45-11.3-7.37-.765-.922-2.11-6.28-2.98-11.9-1.58-10.2-1.65-10.3-8.59-15.6-8.61-6.64-11.1-10.3-13.9-20.5-1.65-5.99-2.89-8.14-5.01-8.67-1.63-.404-6.03-5.45-10.5-12-6.83-10.1-7.71-12.2-8.17-19.3-.553-8.56 1.23-15.3 4.04-15.3 1.27 0 1.76-3.22 1.87-12.3.171-14.1 1.85-22.4 6.53-32.3 5.12-10.8 18.8-22.9 35.1-31 8.9-4.43 11.1-4.95 22.8-5.42 9.36-.376 15.1.0851 20.5 1.66 8.02 2.33 21.9 9.87 25 13.6 1.02 1.23 4.15 3.69 6.95 5.45 11.2 7.08 18.8 26 18.9 47.4.0523 9.27.538 13 1.69 13 2.82.003 4.38 4.88 4.38 13.7 0 7.36-.576 9.35-4.33 15-2.38 3.56-5.87 8.93-7.75 11.9-1.97 3.15-4.64 5.63-6.31 5.87-2.15.313-3.26 1.86-4.33 6-.792 3.07-1.77 6.78-2.18 8.24-1.26 4.52-7.1 11.3-13.9 16.2l-6.51 4.68v8.44c0 7.23-.517 9.05-3.61 12.7-1.99 2.36-6.34 5.58-9.67 7.15-13.3 6.27-12.8 5.43-6.23 11.9 3.21 3.12 7.12 8.19 8.7 11.3 1.58 3.09 3.31 5.62 3.86 5.62 1.41 0 6.98-20.1 8.46-30.5.684-4.83 1.77-9.31 2.41-9.95.665-.665 2.8.005 4.96 1.56 4.46 3.2 32.1 12.5 45.3 15.3 13 2.71 18.4 6.31 22.5 14.9 1.84 3.88 3.73 9.53 4.22 12.6l.881 5.51h-90l.637-3.33c.350-1.83.270-3.33-.178-3.34-.448-.0010-2.52-3.28-4.61-7.27l-3.8-7.27-3.67 2.71c-3.37 2.49-3.58 3.16-2.59 8.27 2.02 10.4 2.15 10.2-7.35 10.2h-8.55l1.78-7.67c1.57-6.76 1.53-7.94-.327-10-1.16-1.28-2.57-2.33-3.14-2.33-1.66 0-9.22 14.1-9.22 17.2v2.84h-89.4z" fill="#ecccc6"/>
  <path d="m23.8 263c3.57-18.5 10.5-25.6 27.9-28.8 12.2-2.28 43.6-13.1 45.5-15.7 2.62-3.57 4.19-.678 5.61 10.3.704 5.46 2.71 14.1 4.47 19.3 1.75 5.13 3.6 11.6 4.12 14.3l.929 5h-89zm101-.667c.449-2.75 1.16-6.5 1.59-8.33.612-2.64.0273-3.78-2.8-5.48l-3.58-2.15 4.99-5.52c2.95-3.27 6.18-5.52 7.9-5.52 2.61 0 11.4 7.47 11.4 9.68 0 .485-1.47 2.26-3.28 3.94-2.94 2.74-3.15 3.6-2.03 8.39 2.31 9.9 2.24 10-6.87 10h-8.18zm28.9 3.78c0-.674 2.03-7.72 4.51-15.7 2.48-7.94 4.93-18.1 5.44-22.5 1.11-9.69 2.76-13.1 4.75-9.68 1.49 2.52 39.5 15.4 49.2 16.7 8.92 1.17 16.4 6 19.7 12.7 2.78 5.64 5.67 14.8 5.69 18 .005 1.3-9.81 1.67-44.7 1.67-26.2 0-44.7-.505-44.7-1.22zm-37.3-40.9c0-1.14.6-1.71 1.33-1.25.733.453 1.33 1.39 1.33 2.08s-.6 1.25-1.33 1.25c-.733 0-1.33-.935-1.33-2.08zm8.44-3.26c-3.06-.632-7.49-2.24-9.83-3.57-2.35-1.33-5.39-3.01-6.77-3.74-1.85-.974-2.5-2.8-2.5-7.01 0-4.28-.731-6.27-2.93-8.02-1.61-1.28-6.13-5.32-10-8.99-6.08-5.71-7.43-7.91-9.41-15.3-1.9-7.12-2.85-8.74-5.32-9.09-1.77-.252-3.9-2.17-5.19-4.67-1.2-2.33-4.16-6.83-6.58-10s-5.1-7.9-5.96-10.5c-2.19-6.63-.713-17.8 2.72-20.6 2.34-1.91 2.7-3.78 2.7-13.8 0-18.8 5.64-35.5 14.9-44.1 8.02-7.46 19-15 28.2-19.3 17-7.97 37.7-6.73 55.5 3.35 26.9 15.2 36.4 31.1 36.6 61.1.0521 8.17.556 11.7 1.68 11.7 2.56 0 4.84 9.02 4.17 16.5-0.5 5.6-2.04 8.99-8.42 18.5-4.71 7.04-8.71 11.7-10.1 11.7-2.24 0-5.2 6.05-5.2 10.6 0 3.89-7.56 13.8-14.6 19.2-6.68 5.08-6.76 5.23-6.76 12.5 0 5.83-.394 7.18-1.91 6.6-1.05-.404-3.3.344-5 1.66-6.24 4.85-20.4 7.42-30 5.44zm21.1-15.2c4.87-1.74 21.2-14.4 28.3-21.9 3.1-3.28 4.81-7.91 9.03-24.5 3.16-12.4 4.67-20.6 3.84-20.9-1.87-.624-1.71-4.61.631-15.6 1.61-7.56 1.73-11.9.612-22.7-2.25-21.7-3.92-31.5-6.11-36.2-2.02-4.26-12.2-13.1-19.5-16.9-3.49-1.81-3.87-1.66-9.6 3.83-11.9 11.4-27 11.4-39-.143l-6.12-5.86-4.9 2.5c-2.69 1.37-8.01 5.29-11.8 8.71-8.86 7.96-10.6 13.5-12.5 40.7-1.29 17.9-1.2 21.9.671 30 1.83 7.9 1.87 9.55.316 10.7-2.65 2 7.23 41 11.6 45.7 2.41 2.6 14.6 12.8 24.7 20.7 4.57 3.56 22 4.6 29.8 1.78zm-21.4-20.7c-4.64-1.3-4.92-3.91-.527-5.02 8.55-2.18 23.8-.483 22.8 2.54-0.7 2.1-5.64 3.39-13 3.39-3.3 0-7.46-.407-9.23-.904zm2.4-19.2c-4.49-3.83-5.44-6.78-3.67-11.3.781-2.01 2.26-7.26 3.29-11.7l1.87-8-.753 13.5c-.642 11.5-.424 13.8 1.48 15.7 1.46 1.46 3.22 1.92 5.08 1.33 2.52-.801 2.64-.653 1.03 1.29-2.43 2.93-4.15 2.76-8.33-.814zm-29.2-29.7c0-.416 1.48-2.69 3.29-5.06l3.29-4.31-3.29-3.54c-4.18-4.51-4.13-4.99.558-4.99 2.83 0 4.08.790 4.74 3l.896 3 1.46-3c1.04-2.13 2.64-3 5.51-3h4.05l-3.58 3.74c-4.41 4.6-4.43 5.38-.249 9.88 4.23 4.56 4.18 5.04-.511 5.04-2.72 0-4.05-.778-4.54-2.67-.384-1.47-1.31-2.67-2.07-2.67-.753 0-1.75 1.2-2.21 2.67-.541 1.7-2.02 2.67-4.09 2.67-1.78 0-3.24-.340-3.24-.756zm52-.0519c0-.444 1.52-2.61 3.38-4.82l3.38-4.01-3.44-4.51-3.44-4.51h3.86c2.68 0 4.31.916 5.33 3l1.46 3 .896-3c.668-2.24 1.9-3 4.86-3h3.96l-3.45 4.1c-3.61 4.29-3.34 6.79 1.14 10.5 3.14 2.6 2.5 4.06-1.77 4.06-2.82 0-4.05-.769-4.6-2.89-.635-2.43-1.08-2.62-2.81-1.18-1.13.937-1.72 2.24-1.32 2.89.402.650-1.1 1.18-3.35 1.18-2.24 0-4.08-.363-4.08-.808zm-65.7-16c0-4.67 7.85-7.74 24-9.4 6.23-.641 12.4-1.62 13.7-2.17 3.58-1.55 2.96 2.84-.667 4.79-1.65.883-9.42 1.98-17.3 2.45-11.2.661-14.9 1.37-17 3.31-1.5 1.36-2.73 1.82-2.73 1.03zm94.3-1.19c-1.76-1.76-5.65-2.49-16.7-3.14-14.7-.865-20.4-2.54-20.4-6.01 0-2.09 3.38-2.7 4.54-.821.385.623 5.37 1.5 11.1 1.95 5.71.449 12.2 1.19 14.4 1.64 5 1.02 10.5 5.01 9.79 7.12-.351 1.05-1.27.816-2.82-.733zm-100 39c-.779-2.54-1.89-4.32-2.47-3.96-.582.360-1.66-.478-2.4-1.86s-3.02-3.58-5.07-4.88c-3.15-2-2.95-1.56 1.31 2.9 2.76 2.89 4.67 5.62 4.23 6.06-1.25 1.25 1.96 6.36 4 6.36 1.47 0 1.55-.906.411-4.62zm113 1.62c.915-1.65 1.51-3.54 1.31-4.2-.193-.660 1.63-3.33 4.05-5.94 5.06-5.45.939-2.8-4.61 2.97-3.94 4.1-6.24 10.2-3.84 10.2.787 0 2.18-1.35 3.09-3zm-118-16c-.426-1.06-.742-.748-.806.806-.0579 1.41.257 2.19 0.7 1.75.443-.443.490-1.59.105-2.56zm-2.69-2.75c-.370-.917-.673-.167-.673 1.67 0 1.83.303 2.58.673 1.67.370-.917.370-2.42 0-3.33zm123 0c-.370-.917-.673-.167-.673 1.67 0 1.83.303 2.58.673 1.67.370-.917.370-2.42 0-3.33zm-126-8c.544-1.28.595-2.33.112-2.33-1.23 0-4.75 8.75-4.68 11.6.0322 1.31.851.276 1.82-2.29s2.21-5.72 2.75-7zm131 1.63c-1.2-2.32-2.48-3.91-2.85-3.55-.367.367.278 2.49 1.43 4.72s2.18 5.14 2.28 6.46c.134 1.78.328 1.64.748-.510.311-1.6-.415-4.81-1.61-7.12zm-133-7c-1.54-1.67-2.05-.925-3.13 4.58l-.917 4.67 2.6-4c1.49-2.29 2.11-4.53 1.45-5.24zm135 3.46c-.463-2.32-1.37-4.21-2.01-4.21-1.59 0-1.46 1.5.486 5.64 2.09 4.43 2.6 3.95 1.52-1.42zm-136-8c0-.733-.635-1.33-1.41-1.33-.777 0-1.04.6-.588 1.33.453.733 1.09 1.33 1.41 1.33.323 0 .588-.6.588-1.33zm137 0c.453-.733.189-1.33-.588-1.33s-1.41.6-1.41 1.33c0 .733.265 1.33.588 1.33s.959-.6 1.41-1.33z" fill="#e5c3b9"/>
  <path d="m23.8 263c3.68-19 10.2-25.1 31.8-29.7 14.1-3.02 39.6-12.1 41.7-14.9 2.63-3.48 4.19-.586 5.61 10.4.704 5.46 2.71 14.1 4.47 19.3 1.75 5.13 3.6 11.6 4.12 14.3l.929 5h-90zm101-.667c.449-2.75 1.16-6.5 1.59-8.33.607-2.62.0331-3.78-2.67-5.4l-3.44-2.06 4.8-5.6c5.92-6.92 9.26-7.12 15.2-.943l4.52 4.66-3.52 3.68c-3.18 3.32-3.4 4.19-2.29 9.01 2.29 9.9 2.23 10-6.88 10h-8.18zm29.7 1.33c.486-2.02 2.52-9.07 4.53-15.7 2.01-6.6 4.07-15.6 4.58-20.1 1.17-10.1 2.57-12.8 5.01-9.63 2.54 3.36 43.6 17.1 51.1 17.1 1.65 0 5.69 1.51 8.99 3.35 4.86 2.71 6.63 4.8 9.35 11 1.85 4.21 3.75 9.9 4.24 12.7l.875 5h-90zm-34.9-43.4c-2.23-.861-6.28-2.96-9-4.67-4.33-2.72-4.94-3.75-4.94-8.34 0-4.04-.813-5.91-3.57-8.22-14.6-12.2-17.7-16.6-19.8-27.9-.661-3.59-1.66-5.04-3.67-5.33-3.09-.456-12.9-13.1-17.2-22.3-3.49-7.4-2.68-19.5 1.56-23 2.27-1.9 2.65-3.88 2.67-14 .0177-13.2 2.1-22.6 7.38-33.4 6.46-13.2 30.7-30.3 47.9-33.8 21.5-4.4 45.2 4.33 64.8 23.9 6.7 6.7 8.08 9.02 11.2 18.8 2.73 8.65 3.54 14 3.6 23.8.0669 10.9.435 12.9 2.71 14.8 4.18 3.39 4.9 16.6 1.28 23.7-1.54 3.03-3.39 5.87-4.11 6.31-.716.443-2.97 3.78-5.01 7.41-2.24 3.98-5.07 7.08-7.14 7.8-2.78.968-3.73 2.58-5.06 8.5-1.96 8.74-5.44 13.8-14.6 21.1-6.79 5.41-6.88 5.57-6.88 12.8 0 6.28-.321 7.24-2.19 6.52-1.21-.463-3.19.0572-4.4 1.16-6.06 5.49-26.1 7.91-35.5 4.3zm23.3-11.7c6.39-1.47 28.9-17.6 33.4-23.9 1.37-1.92 3.2-6.45 4.06-10.1 1.46-6.1 7.16-27.6 8.74-32.9.451-1.52-.0341-2.33-1.4-2.33-2.67 0-2.66-3.43.0456-13.8 1.86-7.13 1.93-10.6.568-26.9-1.85-22-3.25-29.3-6.67-35-2.79-4.6-14.7-14.1-20.3-16.2-3.23-1.23-3.92-.947-6.45 2.6-9.24 13-33.2 12.9-42.8-.102-3.4-4.6-5.35-4.4-13.8 1.38-13 8.9-17.3 16.3-18.7 32-.474 5.5-1.44 14.6-2.15 20.2-1 7.97-.838 12.3.760 20 2.54 12.2 2.58 15.8.173 15.8-1.5 0-1.23 2.31 1.39 11.7 1.8 6.42 4.21 15.8 5.37 20.8 1.25 5.38 3.49 10.7 5.49 13.1 3.41 4.06 17.8 15.9 24.7 20.5 6.53 4.25 17.5 5.54 27.5 3.24zm-19-22c-3.68-1.12-4.16-1.69-2.84-3.29 1.15-1.38 4.5-1.93 11.8-1.91 10.8.0217 15.3 1.43 12.6 4.04-2.06 2.06-16.2 2.83-21.6 1.17zm3.35-18.3c-5.05-3.06-5.6-6.62-2.73-17.9 2.6-10.2 4.42-7.89 2.06 2.64-.678 3.02-.933 7.05-.567 8.96.727 3.8 4.78 6.69 7.78 5.54 2.7-1.03 2.35.184-.479 1.7-1.68 0.9-3.45.621-6.05-.953zm-29.4-30c0-.444 1.5-2.59 3.33-4.76l3.33-3.96-3.49-4.57-3.49-4.57h4c2.95 0 4.2.740 4.74 2.8.785 3 3.58 2.32 3.58-.880 0-1.16 1.32-1.92 3.33-1.92 4.03 0 4.23 1.44.667 4.67-3.44 3.11-3.37 3.92.825 9.42l3.49 4.58h-4c-2.88 0-4.2-.747-4.7-2.67-.384-1.47-1.41-2.67-2.28-2.67-.871 0-1.9 1.2-2.28 2.67-.451 1.73-1.82 2.67-3.88 2.67-1.75 0-3.18-.363-3.18-.808zm52-.119c0-.510 1.59-2.59 3.53-4.61l3.53-3.69-3.6-4.72-3.6-4.72h3.91c2.85 0 4.11.758 4.64 2.8.785 3 3.58 2.31 3.58-.880 0-1.26 1.42-1.92 4.12-1.92h4.12l-3.45 4.1c-4.25 5.05-4.25 5.35-.119 9.23 4.4 4.14 4.2 5.33-.889 5.33-2.32 0-3.83-.395-3.34-.877.981-.981-1.49-4.46-3.17-4.46-.594 0-1.46 1.2-1.93 2.67-.541 1.7-2.02 2.67-4.09 2.67-1.78 0-3.24-.417-3.24-.927zm-62.8-20c2.12-1.87 6.02-3.5 9.33-3.91 15.3-1.89 23.2-3.18 25.4-4.09 3.47-1.49 3.02 2.83-.498 4.71-1.56.833-8.91 1.82-16.3 2.2-8.07.408-14.7 1.43-16.5 2.53-4.63 2.9-5.42 2.09-1.41-1.44zm90.4 1.41c-1.83-.973-9.56-2.1-17.2-2.5-11.6-.610-14.3-1.17-16.6-3.47-3.13-3.13-2.33-5 1.33-3.08 1.35.709 6.95 1.71 12.4 2.21 13.3 1.23 19.1 2.82 22 6.04 2.81 3.1 2.54 3.21-1.99.796zm-98.6 40.6c-.620-2.16-3.88-6.47-7.24-9.59-6.6-6.1-7.26-8.25-4.01-12.9 1.15-1.65 1.84-3.73 1.52-4.63-1.03-2.87-5.35 7.9-4.51 11.2.439 1.73 2.61 5.12 4.83 7.53 2.22 2.42 3.91 4.82 3.77 5.33-.517 1.85 3.1 6.94 4.92 6.94 1.43 0 1.6-.918.734-3.93zm112 1.99c.883-1.06 1.73-2.76 1.88-3.78.149-1.01 2.2-4.28 4.56-7.26s4.29-6.71 4.29-8.29c0-3.22-3.83-11.4-4.86-10.3-.367.367.278 2.49 1.43 4.72s2.1 4.9 2.1 5.92c0 2.11-8.78 11.6-10.7 11.6-.698 0-1.28.75-1.29 1.67-.0107.917-.38 3.02-.822 4.67-.908 3.39 1.03 3.98 3.45 1.07zm-116-16c-.703-1.76-1.32-2.49-1.36-1.64-.113 2.08 1.44 6.03 2.11 5.36.292-.292-.0443-1.97-.747-3.72zm117-.110c-.426-1.06-.742-.748-.806.806-.0579 1.41.257 2.19 0.7 1.75.443-.443.490-1.59.105-2.56zm-120-3c-.338-1.3-.637-.559-.664 1.64-.0272 2.2.249 3.26.615 2.36.365-.903.387-2.7.0494-4zm123-1.36c-.335-1.28-.610-.233-.610 2.33 0 2.57.274 3.62.610 2.33.335-1.28.335-3.38 0-4.67zm-128-13c-1.59-1.73-2.37-.633-3.3 4.68l-.806 4.57 2.63-4c1.5-2.29 2.14-4.53 1.48-5.24zm135 3.34c-.495-2.25-1.35-4.1-1.9-4.1-2.3 0-2.42 1.76-.354 5.35 2.67 4.64 3.46 4.2 2.26-1.25zm-136-8c-.453-.733-1.39-1.33-2.08-1.33s-1.25.6-1.25 1.33c0 .733.935 1.33 2.08 1.33s1.71-.6 1.25-1.33zm137 0c0-.733-.565-1.33-1.25-1.33-.690 0-1.63.6-2.08 1.33-.453.733.111 1.33 1.25 1.33s2.08-.6 2.08-1.33z" fill="#e2bab1"/>
  <path d="m23.8 263c3.68-19 10.2-25.1 31.8-29.7 14.1-3.02 39.6-12.1 41.7-14.9 2.63-3.47 4.19-.597 5.64 10.4.722 5.46 2.75 14.4 4.52 19.9 1.76 5.5 3.62 12 4.13 14.3l.924 4.33h-90zm100 1.49c0-1.56.689-5.15 1.53-7.96 1.41-4.71 1.28-5.31-1.61-7.66l-3.15-2.55 3.67-4.82c5.47-7.17 9.4-7.61 15.3-1.71l4.81 4.81-3.55 3.7c-3.21 3.35-3.43 4.21-2.31 9.03 2.29 9.87 2.21 10-6.7 10-7.28 0-8-.257-8-2.85zm30.2-.821c.486-2.02 2.52-9.07 4.53-15.7 2.01-6.6 4.07-15.6 4.58-20.1 1.17-10.1 2.57-12.8 5.01-9.63 2.54 3.36 43.6 17.1 51.1 17.1 1.65 0 5.69 1.51 8.99 3.35 4.86 2.71 6.63 4.8 9.35 11 1.85 4.21 3.75 9.9 4.24 12.7l.875 5h-89zm-32-42c-2.88-.676-7.83-2.87-11-4.87-5.29-3.34-5.76-4.09-5.76-9.21-.002-4.79-.612-5.99-4.34-8.54-11.3-8-15.3-13-18-24-1.3-6-2.3-7-4.4-8-3.1 0-12.5-13-17.2-22-3.56-7.38-2.77-19.4 1.5-23 2.26-1.89 2.65-3.87 2.65-13.4 0-12.9 2.49-24 7.73-34.4 2.84-5.64 6.26-9.39 14.9-16.2 18.8-15.2 33.8-20.2 52.8-17.5 12.8 1.8 25.8 8.03 38.2 18.3 15.2 12.5 19.6 22.4 20.7 46 .592 13.1 1.07 15.6 3.31 17.4 1.97 1.59 2.77 4.27 3.22 10.7.512 7.33.146 9.33-2.46 13.4-9.33 14.7-13.6 20.1-16.5 21.2-1.79.680-3.25 2.04-3.25 3.03 0 .985-.901 4.83-2 8.53-1.94 6.55-5.87 11.3-17.3 20.8-3.47 2.9-3.97 4.15-3.77 9.44.127 3.35-.323 6.44-1 6.86-.677.418-1.23.143-1.23-.611s-2.12.0636-4.7 1.82c-7.91 5.37-20.7 7.19-31.9 4.57zm23.3-12.3c5.66-2.02 24.7-16.3 29.7-22.2 1.94-2.3 3.88-5.79 4.31-7.75.431-1.96 2.9-11.2 5.49-20.6 4.4-16 4.56-17.2 2.4-18.8-2.18-1.59-2.18-2.24-.0255-11.9 2.02-9.06 2.1-12.4.716-29.2-2.22-26.9-4.1-33-12.6-40.5-3.74-3.31-9.13-7.23-12-8.71l-5.17-2.69-5.5 5.37c-6.58 6.43-10.8 8.19-19.6 8.19-8.57 0-14.2-2.45-20.1-8.71l-4.76-5.05-5.63 2.93c-7.74 4.03-15.6 10.6-18.6 15.4-2.72 4.4-4.35 13.2-6.67 36.1-1.25 12.3-1.16 16.3.571 24.4 2.6 12.3 2.6 14.9-.0272 14.9-1.36 0-1.85.818-1.42 2.33.369 1.28 1.89 6.53 3.37 11.7 1.49 5.13 3.67 13.5 4.86 18.7 1.18 5.13 3.57 11.2 5.3 13.5 3.85 5.06 25.1 21 30.6 22.9 5.55 1.95 19 1.84 24.8-.206zm-19.4-21.8c-4.14-.995-5.62-2.97-3.32-4.42 2.21-1.39 18.6-1.76 21.9-.489 7.73 2.96-8.64 7.29-18.6 4.91zm-.415-20.4c-1.6-1.5-2.92-3.9-2.92-5.35 0-3.27 4.25-18.8 4.95-18.1.282.282-.179 4.49-1.03 9.36-1.35 7.75-1.26 9.27.718 12.3 1.66 2.54 3.1 3.29 5.43 2.84 1.75-.334 2.86-.0936 2.47.534-1.28 2.07-6.66 1.19-9.63-1.58zm-28.4-29c0-.444 1.52-2.61 3.38-4.82l3.38-4.01-3.44-4.51-3.44-4.51h3.91c2.85 0 4.11.758 4.64 2.8.785 3 3.58 2.32 3.58-.880 0-1.16 1.32-1.92 3.33-1.92 4.03 0 4.23 1.44.667 4.67-3.31 2.99-3.31 4.44 0 8.67 3.42 4.37 3.32 5.33-.511 5.33-2.06 0-3.42-.941-3.88-2.67-.384-1.47-1.41-2.67-2.28-2.67-.871 0-1.9 1.2-2.28 2.67-.451 1.73-1.82 2.67-3.88 2.67-1.75 0-3.18-.363-3.18-.808zm52-.119c0-.510 1.57-2.57 3.49-4.57l3.49-3.64-2.83-3.97c-3.57-5.02-3.54-5.56.353-5.56 2.14 0 3.43.945 3.93 2.89.635 2.43 1.08 2.62 2.81 1.18 1.13-.937 1.72-2.24 1.32-2.89-.402-.650.805-1.18 2.68-1.18 4.15 0 4.19.392.503 5.38l-2.91 3.94 2.71 3.01c4.9 5.44 4.94 6.34.298 6.34-2.37 0-3.91-.395-3.42-.877.981-.981-1.49-4.46-3.17-4.46-.594 0-1.46 1.2-1.93 2.67-.541 1.7-2.02 2.67-4.09 2.67-1.78 0-3.24-.417-3.24-.927zm-64-18.4c0-2.12 10-5.08 21.1-6.21 7.06-.722 13.6-1.96 14.6-2.76 2.97-2.47 3.68.187.818 3.05-2.29 2.29-5.05 2.83-17.6 3.5-8.21.433-15.2 1.3-15.6 1.92-.738 1.19-3.21 1.58-3.21.499zm92.1-.609c-1.04-.660-8.24-1.61-16-2.11-8.52-.552-15.3-1.67-17.1-2.84-3.64-2.3-2.7-5.15 1.04-3.14 1.38.737 7.79 1.89 14.3 2.57 12.2 1.27 18.2 2.91 19.7 5.35 1.06 1.71.648 1.75-1.85.174zm-97.4 45.5c0-.603-.870-3.75-1.93-7s-2.59-8.45-3.38-11.6c-1.69-6.59-4.01-7.51-4.01-1.59 0 2.38.555 3.74 1.33 3.25.733-.453 1.33-.538 1.33-.188s.410 1.7.911 3.01c.765 1.99.216 1.88-3.44-.724-5.61-3.99-6.18-5.73-3.6-10.9 1.17-2.34 2.12-4.88 2.12-5.65 0-2.36-2.38.784-4.58 6.06-2.04 4.88-2.01 4.97 2.6 11 2.56 3.35 4.65 6.61 4.65 7.23 0 1.71 5.34 8.17 6.76 8.17.680 0 1.24-.493 1.24-1.1zm113-5.9c.462-1.46 3.18-5.73 6.03-9.49s5.15-7.74 5.1-8.84c-.0688-1.56-.286-1.51-.994.253-.695 1.73-1.45.948-3.22-3.33l-2.31-5.59 2.64 3.15c2.51 2.99 2.64 3.01 2.64.442 0-6.65-2.87-8.86-5.39-4.15-1.15 2.14-1 3.78.620 7.2 2.69 5.66 2.65 6.46-.476 9.28-2.5 2.27-2.59 2.18-3-2.79-.410-4.98-.470-5.04-2.19-2.02-.973 1.71-1.87 5.15-2 7.66-.127 2.51-.581 4.56-1.01 4.56-1.13.009-3.73 9.06-2.85 9.93 1.08 1.08 5.42-3.16 6.4-6.26zm-2.11-7.59c0-.690.6-1.63 1.33-2.08.733-.453 1.33.111 1.33 1.25s-.6 2.08-1.33 2.08c-.733 0-1.33-.565-1.33-1.25zm-125-21c-1.76-1.76-3.86 1.47-3.88 5.96l-.0116 3.33 2.62-3.97c1.77-2.68 2.18-4.41 1.27-5.32zm-.423-5.46c-.712-1.85-1.19-1.93-2.96-.454-1.91 1.59-1.88 1.84.349 2.65 3.08 1.12 3.69.610 2.61-2.2zm136-.133c-1.27-1.54-1.79-1.57-2.67-.170-1.76 2.77-1.33 3.53 1.56 2.78 2.16-.565 2.38-1.08 1.12-2.6z" fill="#dab0a6"/>
  <path d="m24.4 262c2.98-16 10.4-23.3 27.1-26.7 13.7-2.8 42.2-12.6 45.1-15.4 3.47-3.47 4.7-2.01 5.66 6.69.468 4.21 2.59 13.6 4.72 21 2.13 7.33 4.25 15 4.72 17l.856 3.67h-89.7zm99.8 4.19c0-1.14.691-4.82 1.54-8.17 1.43-5.7 1.34-6.25-1.5-8.39-2.92-2.2-2.95-2.42-.776-5.73 2.51-3.84 7.7-7.63 10.4-7.63.982 0 3.82 2.1 6.3 4.66l4.52 4.66-3.64 3.8c-3.4 3.54-3.55 4.2-2.29 9.67 2.15 9.32 2.23 9.21-6.58 9.21-6.35 0-8-.428-8-2.08zm30.2-1.59c.486-2.02 2.56-9.18 4.62-15.9 2.05-6.74 4.14-15.8 4.63-20.2 1.12-9.94 2.46-12.5 4.87-9.26 1.93 2.58 27.1 11.5 42.4 15.1 5.5 1.27 12.9 3.54 16.4 5.05 5.58 2.4 6.85 3.74 10.2 10.8 2.12 4.45 4.23 10.3 4.69 13.1l.834 5h-89zm-44-49.6c-3.98-2.72-4.78-4.18-4.8-8.86-.0171-3.45-1.33-5.14-8.06-10.4-9.41-7.31-12.3-11.6-14.5-21.4-1.29-5.75-2.21-7.33-4.47-7.66-1.87-.273-5.63-4.5-10.9-12.3-8.07-11.9-8.08-11.9-7.91-21.2.136-7.84.628-9.76 3-11.7 2.43-1.97 2.84-3.71 2.84-12.2 0-19.4 5.07-35.4 14-44.1 21.2-20.6 40.4-28.3 62.4-24.9 14.9 2.3 29.2 9.94 43.5 23.2 9.24 8.59 14.9 25.3 14.9 44.1 0 9.94.379 11.9 2.65 13.8 4.27 3.57 5.05 15.6 1.5 23-4.47 9.28-14 21.8-17 22.3-2.11.311-3.02 2.12-4.37 8.67-1.51 7.33-2.57 9.12-9.25 15.7-4.15 4.11-8.67 8.07-10 8.81-1.78.957-2.78 3.59-3.49 9.2-.551 4.32-1.08 7.09-1.18 6.15-.133-1.31-.819-1.37-2.89-.260-1.54.826-11.4 1.57-22.8 1.71-15.7.203-20.8-.165-23-1.66zm35.3-5.59c2.49-.835 6.58-3.08 9.07-5l11.7-8.96c8.82-6.73 13.2-12.5 14.4-18.9.497-2.71 2.65-11.2 4.79-18.9 4.43-16 4.71-18.7 1.91-18.7-2.48 0-2.48-.208.167-11.9 1.9-8.39 1.97-12 .568-28.5-2.3-27.2-3.29-30.8-10.3-38.3-3.24-3.47-9.11-7.99-13-10l-7.13-3.74-3.75 4.46c-10.2 12.1-28 12.7-39.3 1.41l-6.22-6.22-5.16 2.63c-8.44 4.3-18.1 13.1-20.6 19-1.37 3.1-3 11.7-3.78 20-.753 8.02-1.73 17.9-2.17 21.9-.516 4.72-.0462 10.6 1.32 16.4 2.63 11.2 2.64 12.9.121 12.9-2.72 0-2.64.675 2.56 19.8 2.51 9.25 4.91 18.5 5.35 20.5.438 2 2.56 5.64 4.7 8.09 5.11 5.82 22.4 19 28.2 21.5 5.45 2.37 20.4 2.68 26.7.564zm-17.5-22.1c-5.73-.667-8.11-2.63-5.32-4.39 3.1-1.96 19.1-1.57 22 .533 2.44 1.79 2.44 1.85-.0785 2.55-4.65 1.29-11.8 1.86-16.6 1.31zm-2-20.4c-1.33-1.47-1.76-2.67-.952-2.67.804 0 1.86.642 2.34 1.43.485.785 2.17 1.95 3.75 2.58 2.86 1.15 2.86 1.16.0702 1.24-1.54.0465-3.88-1.12-5.21-2.58zm-2.6-8.33c1.46-6.71 3.5-10.7 2.64-5.17-.386 2.48-.702 5.62-.702 7s-.648 2.5-1.44 2.5c-.929 0-1.1-1.54-.494-4.33zm-25.4-20c0-.510 1.59-2.59 3.53-4.61l3.53-3.69-3.6-4.72c-3.5-4.59-3.52-4.72-.746-4.72 1.57 0 3.99 1.35 5.38 3l2.52 3 .845-3c.574-2.04 1.87-3 4.02-3 3.88 0 4.04 1.47.511 4.67-1.47 1.33-2.67 3.14-2.67 4.03 0 .887 1.2 3.14 2.67 5 3.33 4.23 3.33 4.97.0469 4.97-1.44 0-3.26-1.2-4.05-2.67-.785-1.47-2.06-2.67-2.84-2.67-.776 0-1.73 1.2-2.11 2.67-.451 1.73-1.82 2.67-3.88 2.67-1.75 0-3.18-.417-3.18-.927zm53.3-.226c0-.634 1.28-2.78 2.84-4.77l2.84-3.61-2.84-3.85c-3.58-4.85-3.56-5.29.335-5.29 2.16 0 3.45.965 4.02 3l.845 3 2.52-3c2.46-2.93 6.76-4.12 6.76-1.87 0 .620-1.2 2.21-2.67 3.54s-2.67 2.98-2.67 3.66c0 .687 1.2 2.78 2.67 4.64 3.31 4.21 3.37 5.7.225 5.7-1.34 0-3.24-1.49-4.22-3.32-1.37-2.56-2.18-2.98-3.56-1.84-.981.814-1.78 2.31-1.78 3.32s-1.2 1.84-2.67 1.84-2.67-.519-2.67-1.15zm-65.4-19c0-1.92 10.3-4.77 21.4-5.92 6.67-.691 12.9-1.92 13.9-2.72 1.16-.965 2.05-1.01 2.6-.128 1.79 2.9-5.48 5.16-18.8 5.84-7.43.376-14.8 1.37-16.3 2.2-1.56.833-2.83 1.16-2.83.734zm91.5-.818c-1.35-.784-8.55-1.75-16-2.14-14.4-.757-18.2-1.85-18.2-5.23 0-1.68.393-1.79 1.89-.545 1.04.864 7.73 2.17 14.9 2.9 11.2 1.15 20.6 3.82 20.6 5.89 0 .855-.279.777-3.12-.874zm-97.5 43.2c-2.65-11-6.34-21.7-7.46-21.7-.702 0-1.3 2.25-1.32 5l-.0444 5-2.54-3.04c-2.09-2.51-2.3-3.74-1.16-7 .759-2.18 1.9-4.28 2.54-4.67.636-.393.321-2.64-.701-5s-2.21-5.4-2.64-6.77c-.672-2.14-1.08-2.23-2.97-.667-1.85 1.53-1.89 1.88-.227 2.2 1.73.338 1.73 1.34.0250 8.33l-1.94 7.94 3.85 5.56c4.66 6.73 9.62 14.5 10.7 16.8.430.917 1.68 1.67 2.78 1.67 1.51 0 1.78-.901 1.11-3.67zm114-2c1.59-2.93 4.85-8 7.24-11.3 3.9-5.32 4.26-6.54 3.46-12-.484-3.34-1.42-7.12-2.09-8.41-.894-1.72-.686-2.33.795-2.33 1.23 0 1.71-.769 1.24-2-1.34-3.5-2.78-2.18-5 4.61-2.01 6.14-2 6.94.109 11.4 2.21 4.63 2.19 4.84-.659 7.69l-2.93 2.93v-4.96c0-7.89-2.02-5.81-5.2 5.37-1.62 5.68-3.27 11.4-3.67 12.8-1.36 4.63 3.69 1.78 6.71-3.79z" fill="#d3ab8d"/>
  <path d="m24.4 262c2.98-16 10.4-23.3 27.1-26.7 13.7-2.8 42.2-12.6 45.1-15.4 3.47-3.47 4.7-2.01 5.66 6.69.468 4.21 2.59 13.6 4.72 21 2.13 7.33 4.25 15 4.72 17l.856 3.67h-89.7zm99.8 4.19c0-1.14.691-4.82 1.54-8.17 1.43-5.7 1.34-6.25-1.5-8.39-2.92-2.2-2.95-2.42-.776-5.73 2.51-3.84 7.7-7.63 10.4-7.63.982 0 3.82 2.1 6.3 4.66l4.52 4.66-3.64 3.8c-3.4 3.54-3.55 4.2-2.29 9.67 2.15 9.32 2.23 9.21-6.58 9.21-6.35 0-8-.428-8-2.08zm30.2-1.59c.486-2.02 2.56-9.18 4.62-15.9 2.05-6.74 4.14-15.8 4.63-20.2 1.12-9.94 2.46-12.5 4.87-9.26 1.93 2.58 27.1 11.5 42.4 15.1 5.5 1.27 12.9 3.54 16.4 5.05 5.58 2.4 6.85 3.74 10.2 10.8 2.12 4.45 4.23 10.3 4.69 13.1l.834 5h-89zm-46.7-51.7c-1.16-1.16-2.11-4.04-2.11-6.41 0-3.68-1.2-5.26-8.33-10.9-8.71-6.92-11.8-11.7-14.4-22.2-1.17-4.72-2.25-6.36-4.36-6.67-1.54-.223-4.15-2.51-5.8-5.07-1.65-2.57-4.86-7.17-7.13-10.2-5.4-7.29-6.9-13.1-5.63-21.9.736-5.11 1.78-7.53 3.68-8.51 2.38-1.23 2.68-2.86 2.88-16 .168-10.8.930-16.7 2.92-22.3 3.25-9.22 9.7-18.9 14.6-21.9 1.97-1.22 5.39-3.82 7.59-5.78 4.5-4 16.8-11 17.7-10.1.328.328-2.34 2.08-5.93 3.9s-9.65 6.11-13.5 9.54c-8.66 7.78-10.1 12.6-12.3 40-1.34 17.2-1.26 21.2.526 28.7 2.61 10.9 2.61 12-.0345 12s-2.45 1.23 3.96 25.3c2.63 9.88 5.9 19.5 7.26 21.3 4.11 5.59 25.9 22.4 31.1 23.9 5.94 1.78 19 1.88 24.9.187 5.85-1.68 29-19.4 32.1-24.6 1.36-2.27 3.54-8.63 4.85-14.1 1.3-5.5 3.78-14.8 5.5-20.6 1.72-5.81 3.14-10.8 3.14-11 0-.237-1.27-.432-2.82-.432-2.28 0-2.67-.581-2.02-3 3.46-12.9 3.82-19.1 2.28-38.7-2.2-28.1-2.85-30.2-12.1-38.7-4.21-3.9-9.89-8.15-12.6-9.44-2.73-1.29-4.66-2.64-4.3-3 1.16-1.16 8.41 3.29 18.7 11.5 15.9 12.7 22.2 26.9 22.2 50.8 0 9.53.353 11.1 2.89 13.2 2.45 1.98 2.91 3.78 3 11.7.107 9.28.0645 9.39-7.97 21.2-5.16 7.58-9.08 12-10.8 12.3-2.24.328-3.07 1.97-4.39 8.67-1.43 7.25-2.46 9.08-8.49 15-3.78 3.7-8.29 7.62-10 8.72-2.46 1.55-3.31 3.5-3.82 8.74-.615 6.4-.828 6.72-4.16 6.24-5.65-.820-44-.682-45.4.163-.686.424-2.2-.177-3.35-1.34zm-27.4-48.8c0-3.69-7.16-25-8.19-24.3-.627.387-1.16 2.92-1.18 5.63l-.0444 4.92-2.54-3.04c-2.09-2.51-2.3-3.74-1.16-7 .759-2.18 1.86-4.26 2.45-4.62 1.32-.814-3.18-13.1-5.02-13.7-.727-.242-1.68.485-2.11 1.62-.495 1.29-.0429 2.06 1.22 2.06 1.5 0 1.69.592.756 2.33-.687 1.28-1.65 5.03-2.15 8.33-.789 5.27-.429 6.65 2.96 11.3 2.12 2.93 5.52 8.18 7.56 11.7 3.42 5.84 7.45 8.44 7.45 4.79zm113-4c2.02-3.48 5.39-8.73 7.49-11.7 3.35-4.67 3.71-6.08 2.92-11.3-.494-3.3-1.44-7.01-2.09-8.24-.851-1.59-.630-2.36.763-2.67 1.3-.286 1.58-1.05.811-2.27-1.55-2.48-4.1-.693-4.16 2.92-.0233 1.61-.859 4-1.86 5.31-1.56 2.06-1.42 3.12 1.04 7.62l2.86 5.23-3 3.01-3 3.01v-4.96c0-7.89-2.02-5.81-5.2 5.37-1.62 5.68-3.25 11.4-3.63 12.7-1.45 4.94 3.5 2.14 7.05-4zm-64.9 28c-5.71-.606-8.12-2.57-5.32-4.34 3.16-2 19.1-1.57 22.1.593 2.5 1.83 2.48 1.91-.745 2.58-6.27 1.29-11.3 1.66-16 1.17zm-1.52-20.3c-1.73-1.44-2.43-2.64-1.56-2.67.873-.0244 1.98.598 2.47 1.38.485.785 2.17 1.95 3.75 2.58 2.05.829 2.25 1.18.678 1.24-1.2.0465-3.6-1.1-5.33-2.54zm-2.64-8.34c.614-3.7.802-3.89 1.22-1.22.273 1.73-.0535 3.7-.725 4.38-.740.740-.935-.504-.496-3.15zm1.6-7.15c.064-1.55.380-1.87.806-.806.385.962.338 2.11-.105 2.56-.443.443-.758-.344-0.7-1.75zm-28.1-13.5c0-.510 1.59-2.59 3.53-4.61l3.53-3.69-3.6-4.72c-3.5-4.59-3.52-4.72-.746-4.72 1.57 0 3.99 1.35 5.38 3l2.52 3 .845-3c.574-2.04 1.87-3 4.02-3 3.88 0 4.04 1.47.511 4.67-1.47 1.33-2.67 3.14-2.67 4.03 0 .887 1.2 3.14 2.67 5 3.33 4.23 3.33 4.97.0469 4.97-1.44 0-3.26-1.2-4.05-2.67-.785-1.47-2.06-2.67-2.84-2.67-.776 0-1.73 1.2-2.11 2.67-.451 1.73-1.82 2.67-3.88 2.67-1.75 0-3.18-.417-3.18-.927zm53.3-.226c0-.634 1.28-2.78 2.84-4.77l2.84-3.61-2.84-3.85c-3.58-4.85-3.56-5.29.335-5.29 2.16 0 3.45.965 4.02 3l.845 3 2.52-3c2.46-2.93 6.76-4.12 6.76-1.87 0 .620-1.2 2.21-2.67 3.54s-2.67 2.98-2.67 3.66c0 .687 1.2 2.78 2.67 4.64 3.31 4.21 3.37 5.7.225 5.7-1.34 0-3.24-1.49-4.22-3.32-1.37-2.56-2.18-2.98-3.56-1.84-.981.814-1.78 2.31-1.78 3.32s-1.2 1.84-2.67 1.84-2.67-.519-2.67-1.15zm-57.3-22c.891-.499 7-1.46 13.6-2.14 6.58-.676 13-1.68 14.3-2.24 1.4-.607 2.33-.442 2.33.409 0 .782-2.25 2.03-5 2.78-5.67 1.54-27.7 2.58-25.2 1.19zm67.5.231c-13.1-.918-17.3-1.98-17.3-4.29 0-.766.994-.903 2.33-.324 1.28.555 7.43 1.53 13.7 2.17 9.37.960 22.7 3.83 16 3.45-1.1-.063-7.7-.515-14.7-1.01z" fill="#cf958b"/>
  <path d="m24.4 262c2.98-16 10.4-23.3 27.1-26.7 13.7-2.8 42.2-12.6 45.1-15.4 3.47-3.47 4.7-2.01 5.66 6.69.468 4.21 2.59 13.6 4.72 21 2.13 7.33 4.25 15 4.72 17l.856 3.67h-89.7zm99.8 4.19c0-1.14.691-4.82 1.54-8.17 1.43-5.7 1.34-6.25-1.5-8.39-2.92-2.2-2.95-2.42-.776-5.73 2.51-3.84 7.7-7.63 10.4-7.63.982 0 3.82 2.1 6.3 4.66l4.52 4.66-3.64 3.8c-3.4 3.54-3.55 4.2-2.29 9.67 2.15 9.32 2.23 9.21-6.58 9.21-6.35 0-8-.428-8-2.08zm30.2-1.59c.486-2.02 2.56-9.18 4.62-15.9 2.05-6.74 4.14-15.8 4.63-20.2 1.12-9.94 2.46-12.5 4.87-9.26 1.93 2.58 27.1 11.5 42.4 15.1 5.5 1.27 12.9 3.54 16.4 5.05 5.58 2.4 6.85 3.74 10.2 10.8 2.12 4.45 4.23 10.3 4.69 13.1l.834 5h-89zm4.69-54.9c-.175-5.48-.345-5.74-2.52-3.83-10.4 9.09-32.1 9.92-44.6 1.69l-4.91-3.24-.573 2.96c-.453 2.34-.611 2.15-.754-.934-.0999-2.14-1.23-5.13-2.51-6.64-2.51-2.95-2.4-2.89 7.97 4.92 7.42 5.59 17.9 8.23 27.3 6.86 7.43-1.08 12.3-3.35 19.7-9.1 2.91-2.28 4.72-3.25 4.02-2.15-.693 1.1-1.64 5-2.1 8.67l-.836 6.67zm5.15-11.3c0-.277 1.05-1.33 2.33-2.33 2.11-1.66 2.16-1.61.503.503-1.74 2.22-2.84 2.93-2.84 1.83zm-70.7-6.28-6-5.44 6.33 4.94c5.55 4.33 7.2 5.96 6 5.94-.183-.001-3.03-2.45-6.33-5.44zm80-1.89c2.56-2.93 5.19-5.93 5.83-6.66.642-.733.545-.133-.215 1.33-.760 1.47-3.38 4.47-5.83 6.66l-4.45 4zm-50.6-4.61c-3.55-2.25.0279-3.39 10.6-3.39 5.74 0 10.9.483 11.5 1.07 2.04 2.04-2.88 3.55-11.5 3.55-4.77 0-9.55-.558-10.6-1.24zm-35.8-1c-.483-.782-.593-1.71-.243-2.06s.991.290 1.43 1.42c.902 2.35.133 2.76-1.18.635zm-1.84-6.02c.0640-1.55.380-1.87.806-.806.385.962.338 2.11-.105 2.56-.443.443-.758-.344-0.7-1.75zm97.3-4c.064-1.55.380-1.87.806-.806.385.962.338 2.11-.105 2.56-.443.443-.758-.344-0.7-1.75zm-98.7-1.33c.0640-1.55.380-1.87.806-.806.385.962.338 2.11-.105 2.56-.443.443-.758-.344-0.7-1.75zm-1.44-4.33c0-.856-1.13-1.56-2.5-1.56-1.38 0-3.3-1.05-4.27-2.33-1.5-1.99-1.49-2.08.103-.667 1.03.917 2.72 1.67 3.77 1.67 2.22 0 1.73-3.35-2.59-17.9-2.57-8.62-2.95-9.18-4.66-6.83-1.03 1.4-1.5 3.7-1.05 5.11.568 1.79.268 2.38-.994 1.97-2.57-.844-3-7.18-.716-10.4 1.71-2.44 1.64-3.53-.595-9.41-3.45-9.08-2.73-34.2 1.3-45.5 3.28-9.24 9.74-18.9 14.6-22 1.97-1.22 5.09-3.54 6.92-5.14s5.13-3.94 7.33-5.19c3.97-2.26 3.97-2.25.667.157-1.83 1.34-6.19 5.07-9.69 8.3-7.99 7.39-9.54 12.6-11.6 39.5-1.34 17.2-1.26 21.2.526 28.7 2.69 11.2 2.65 12-.693 12-1.95 0-2.57.612-2.04 2 2.29 5.96 7.62 27.7 6.96 28.3-.426.426-.774.0737-.774-.782zm102-5c.0175-1.99.207-2.04 1.29-.333 1.1 1.74 1.67 1.75 4.31.119 2.79-1.72 2.89-1.7 1.21.333-2.44 2.95-6.84 2.88-6.82-.119zm-59.8-5.67c0-1.83.303-2.58.673-1.67.370.917.370 2.42 0 3.33-.370.917-.673.167-.673-1.67zm61.1 1.22c.006-1.04 1.2-5.79 2.66-10.6 3.26-10.7 3.26-10.7 0-10.7-3.19 0-3.15.881-.538-10.3 1.64-6.99 1.92-12.5 1.23-23.7-1.74-28.4-3.24-36.2-8.31-43.2-2.27-3.15-2.26-3.18.509-1.7 7.13 3.82 14.1 15.5 17.2 29.2 2.7 11.6 2.1 35.1-1.04 41-1.88 3.48-1.9 4.29-.180 6.91 2.31 3.53 1.85 10-.767 10.9-1.17.384-1.49.0237-.874-.973 1.19-1.92-.199-8.1-1.82-8.1-.639 0-2.49 4.95-4.11 11-2.96 11-4.01 13.7-4 10.2zm8.55-2.22c1.08-2.02 3.56-5.47 5.51-7.67 2.65-2.99 3-3.16 1.36-.667-1.2 1.83-3.43 5.28-4.94 7.67-3.36 5.28-4.64 5.72-1.93.667zm-127-4c-5.46-7.74-6.79-10.5-2.7-5.67 3.56 4.23 8.09 11.3 7.22 11.3-.284 0-2.32-2.55-4.52-5.67zm136-9.39c.501-1.31 1.25-2.05 1.66-1.64.411.411.00085 1.49-.910 2.39-1.32 1.31-1.47 1.15-.746-.746zm-105-6c0-.510 1.59-2.59 3.53-4.61l3.53-3.69-3.6-4.72c-3.5-4.59-3.52-4.72-.746-4.72 1.57 0 3.99 1.35 5.38 3l2.52 3 .845-3c.574-2.04 1.87-3 4.02-3 3.88 0 4.04 1.47.511 4.67-1.47 1.33-2.67 3.14-2.67 4.03 0 .887 1.2 3.14 2.67 5 3.33 4.23 3.33 4.97.0469 4.97-1.44 0-3.26-1.2-4.05-2.67-.785-1.47-2.06-2.67-2.84-2.67-.776 0-1.73 1.2-2.11 2.67-.451 1.73-1.82 2.67-3.88 2.67-1.75 0-3.18-.417-3.18-.927zm53.3-.226c0-.634 1.28-2.78 2.84-4.77l2.84-3.61-2.84-3.85c-3.58-4.85-3.56-5.29.335-5.29 2.16 0 3.45.965 4.02 3l.845 3 2.52-3c2.46-2.93 6.76-4.12 6.76-1.87 0 .620-1.2 2.21-2.67 3.54s-2.67 2.98-2.67 3.66c0 .687 1.2 2.78 2.67 4.64 3.31 4.21 3.37 5.7.225 5.7-1.34 0-3.24-1.49-4.22-3.32-1.37-2.56-2.18-2.98-3.56-1.84-.981.814-1.78 2.31-1.78 3.32s-1.2 1.84-2.67 1.84-2.67-.519-2.67-1.15zm55-2.85c0-2.57.274-3.62.610-2.33.335 1.28.335 3.38 0 4.67-.335 1.28-.610.233-.610-2.33zm-146-7c.0785-3.63.279-3.9 1.24-1.67.630 1.47 1.19 1.92 1.24 1 .0516-.917.681-1.67 1.4-1.67.794 0 .710 1.31-.214 3.33-2.11 4.62-3.78 4.17-3.66-1zm142 0c-.848-1.83-1.05-3.33-.444-3.33.603 0 1.45.75 1.88 1.67.431.917.556-.0288.277-2.1-.349-2.59-.0773-3.34.870-2.39.891.891.950 2.81.168 5.43l-1.21 4.06zm-109-12c.891-.499 7-1.46 13.6-2.14 6.58-.676 13-1.68 14.3-2.24 1.4-.607 2.33-.442 2.33.409 0 .782-2.25 2.03-5 2.78-5.67 1.54-27.7 2.58-25.2 1.19zm67.5.231c-13.1-.918-17.3-1.98-17.3-4.29 0-.766.994-.903 2.33-.324 1.28.555 7.43 1.53 13.7 2.17 9.37.960 22.7 3.83 16 3.45-1.1-.063-7.7-.515-14.7-1.01zm11.3-62.2c-2.93-2.63-4.13-4.16-2.67-3.4 2.47 1.28 9.84 8.36 8.57 8.24-.311-.0305-2.97-2.21-5.9-4.84z" fill="#c9a377"/>
  <path d="m24.4 262c2.98-16 10.4-23.3 27.1-26.7 13.7-2.8 42.2-12.6 45.1-15.4 3.47-3.47 4.7-2.01 5.66 6.69.468 4.21 2.59 13.6 4.72 21 2.13 7.33 4.25 15 4.72 17l.856 3.67h-89.7zm99.8 4.19c0-1.14.691-4.82 1.54-8.17 1.43-5.7 1.34-6.25-1.5-8.39-2.92-2.2-2.95-2.42-.776-5.73 2.51-3.84 7.7-7.63 10.4-7.63.982 0 3.82 2.1 6.3 4.66l4.52 4.66-3.64 3.8c-3.4 3.54-3.55 4.2-2.29 9.67 2.15 9.32 2.23 9.21-6.58 9.21-6.35 0-8-.428-8-2.08zm30.2-1.59c.486-2.02 2.56-9.18 4.62-15.9 2.05-6.74 4.14-15.8 4.63-20.2 1.12-9.94 2.46-12.5 4.87-9.26 1.93 2.58 27.1 11.5 42.4 15.1 5.5 1.27 12.9 3.54 16.4 5.05 5.58 2.4 6.85 3.74 10.2 10.8 2.12 4.45 4.23 10.3 4.69 13.1l.834 5h-89zm4.69-54.9c-.175-5.48-.345-5.74-2.52-3.83-10.4 9.09-32.1 9.92-44.6 1.69l-4.91-3.24-.573 2.96c-.453 2.34-.611 2.15-.754-.934-.0999-2.14-1.23-5.13-2.51-6.64-2.51-2.95-2.4-2.89 7.97 4.92 7.42 5.59 17.9 8.23 27.3 6.86 7.43-1.08 12.3-3.35 19.7-9.1 2.91-2.28 4.72-3.25 4.02-2.15-.693 1.1-1.64 5-2.1 8.67l-.836 6.67zm5.15-11.3c0-.277 1.05-1.33 2.33-2.33 2.11-1.66 2.16-1.61.503.503-1.74 2.22-2.84 2.93-2.84 1.83zm-70.7-6.28-6-5.44 6.33 4.94c5.55 4.33 7.2 5.96 6 5.94-.183-.001-3.03-2.45-6.33-5.44zm80-1.89c2.56-2.93 5.19-5.93 5.83-6.66.642-.733.545-.133-.215 1.33-.760 1.47-3.38 4.47-5.83 6.66l-4.45 4zm-50.6-4.61c-3.55-2.25.0279-3.39 10.6-3.39 5.74 0 10.9.483 11.5 1.07 2.04 2.04-2.88 3.55-11.5 3.55-4.77 0-9.55-.558-10.6-1.24zm-35.8-1c-.483-.782-.593-1.71-.243-2.06s.991.290 1.43 1.42c.902 2.35.133 2.76-1.18.635zm-1.84-6.02c.0640-1.55.380-1.87.806-.806.385.962.338 2.11-.105 2.56-.443.443-.758-.344-0.7-1.75zm97.3-4c.064-1.55.380-1.87.806-.806.385.962.338 2.11-.105 2.56-.443.443-.758-.344-0.7-1.75zm-98.7-1.33c.0640-1.55.380-1.87.806-.806.385.962.338 2.11-.105 2.56-.443.443-.758-.344-0.7-1.75zm-1.44-4.33c0-.856-1.13-1.56-2.5-1.56-1.38 0-3.3-1.05-4.27-2.33-1.5-1.99-1.49-2.08.103-.667 1.03.917 2.72 1.67 3.77 1.67 2.22 0 1.73-3.35-2.59-17.9-2.57-8.62-2.95-9.18-4.66-6.83-1.03 1.4-1.5 3.7-1.05 5.11.568 1.79.268 2.38-.994 1.97-2.71-.892-2.93-7.11-.393-11l2.24-3.42 2.42 4.51c2.91 5.43 9.79 30.1 8.7 31.2-.426.426-.774.0737-.774-.782zm102-5c.0175-1.99.207-2.04 1.29-.333 1.1 1.74 1.67 1.75 4.31.119 2.79-1.72 2.89-1.7 1.21.333-2.44 2.95-6.84 2.88-6.82-.119zm-59.8-5.67c0-1.83.303-2.58.673-1.67.370.917.370 2.42 0 3.33-.370.917-.673.167-.673-1.67zm61.1 1.44c0-2.52 5.68-21.5 6.25-21 .521.521-4.83 21.1-5.74 22.1-.284.306-.516-.196-.516-1.12zm8.56-2.44c1.08-2.02 3.56-5.47 5.51-7.67 2.65-2.99 3-3.16 1.36-.667-1.2 1.83-3.43 5.28-4.94 7.67-3.36 5.28-4.64 5.72-1.93.667zm-127-4c-5.46-7.74-6.79-10.5-2.7-5.67 3.56 4.23 8.09 11.3 7.22 11.3-.284 0-2.32-2.55-4.52-5.67zm128-9c-.697-8.37-.502-11.5 1.12-18.2 1.35-5.53 1.34-7.63-.0524-11-2.23-5.38-4.04-5.31-4.18.169-.119 4.75-4.82 24.2-5.07 21-.0841-1.1.734-6.64 1.82-12.3 1.5-7.84 1.65-12 .613-17.3-.747-3.87-1.21-11.4-1.02-16.8l.341-9.8 3.71 4.16c2.04 2.29 3.71 3.56 3.71 2.84 0-3.56-6.91-16.3-10.7-19.6-2.34-2.09-4.85-4.89-5.56-6.23-1.14-2.13-.976-2.26 1.32-1.03 7.55 4.04 14.9 17.8 17.6 32.9 2.11 11.8 1.24 31.8-1.6 37.2-1.85 3.48-1.87 4.3-.151 6.91 2.09 3.19 1.94 9.99-.248 10.7-.733.240-1.48-1.36-1.67-3.56zm3.01-43.7c-.725-6.77-1.7-9.38-4.75-12.7l-3.84-4.22-.0391 4.76c-.0268 3.26 1.21 6.41 3.92 10 4.89 6.46 5.26 8.71.601 3.65l-3.44-3.74.739 4.35c.406 2.39 2.1 6.2 3.77 8.47 2.94 4 3.04 4.03 3.49 1.06.253-1.68.0501-6.89-.451-11.6zm5.41 43.3c.501-1.31 1.25-2.05 1.66-1.64.411.411.00085 1.49-.910 2.39-1.32 1.31-1.47 1.15-.746-.746zm-105-5c0-.510 1.59-2.59 3.53-4.61l3.53-3.69-3.6-4.72c-3.5-4.59-3.52-4.72-.746-4.72 1.57 0 3.99 1.35 5.38 3l2.52 3 .845-3c.574-2.04 1.87-3 4.02-3 3.88 0 4.04 1.47.511 4.67-1.47 1.33-2.67 3.14-2.67 4.03 0 .887 1.2 3.14 2.67 5 3.33 4.23 3.33 4.97.0469 4.97-1.44 0-3.26-1.2-4.05-2.67-.785-1.47-2.06-2.67-2.84-2.67-.776 0-1.73 1.2-2.11 2.67-.451 1.73-1.82 2.67-3.88 2.67-1.75 0-3.18-.417-3.18-.927zm53.3-.226c0-.634 1.28-2.78 2.84-4.77l2.84-3.61-2.84-3.85c-3.58-4.85-3.56-5.29.335-5.29 2.16 0 3.45.965 4.02 3l.845 3 2.52-3c2.46-2.93 6.76-4.12 6.76-1.87 0 .620-1.2 2.21-2.67 3.54s-2.67 2.98-2.67 3.66c0 .687 1.2 2.78 2.67 4.64 3.31 4.21 3.37 5.7.225 5.7-1.34 0-3.24-1.49-4.22-3.32-1.37-2.56-2.18-2.98-3.56-1.84-.981.814-1.78 2.31-1.78 3.32s-1.2 1.84-2.67 1.84-2.67-.519-2.67-1.15zm55-2.85c0-2.57.274-3.62.610-2.33.335 1.28.335 3.38 0 4.67-.335 1.28-.610.233-.610-2.33zm-127 1.74c-1.02-1.66-4.92-21.2-4.93-24.7-.0044-2.7-.328-2.53-2.8 1.52-2.75 4.51-2.85 9.94-.321 17 .485 1.35.375 1.99-.244 1.42-6.9-6.28-5.48-40.9 2.31-56.6 4.13-8.34 14.5-18.3 25.7-24.9 3.91-2.28 3.92-2.27.667.0705-1.83 1.32-7.65 6.53-12.9 11.6-9.41 9.02-15.1 18.1-15.7 24.9-.156 1.83-.633 4.23-1.06 5.33s-1.17 4.4-1.64 7.33l-.864 5.33 4.55-4.67c3.45-3.54 4.76-6.25 5.43-11.2l.882-6.57-3.34 3.14c-1.84 1.73-3.34 2.55-3.34 1.82 0-.724 1.8-3.04 4.01-5.15l4.01-3.84-.579 7.25c-2.21 27.7-2.25 34.2-.258 42.5 1.9 7.98 2.06 11.1.414 8.47zm-6.83-27c1.94-2.94 3.26-6.59 3.01-8.33-.411-2.87-.719-2.71-4.11 2.2-3.17 4.6-4.96 11.4-3.01 11.4.356 0 2.2-2.35 4.11-5.23zm-11.3 18.2c.0785-3.63.279-3.9 1.24-1.67.630 1.47 1.19 1.92 1.24 1 .0516-.917.681-1.67 1.4-1.67.794 0 .710 1.31-.214 3.33-2.11 4.62-3.78 4.17-3.66-1zm141 0c-.848-1.83-1.05-3.33-.444-3.33.603 0 1.45.75 1.88 1.67.431.917.556-.0288.277-2.1-.349-2.59-.0773-3.34.870-2.39.891.891.950 2.81.168 5.43l-1.21 4.06zm-30-74.4c-2.93-2.63-4.13-4.16-2.67-3.4 2.47 1.28 9.84 8.36 8.57 8.24-.311-.0305-2.97-2.21-5.9-4.84z" fill="#a39b9a"/>
  <path d="m24.6 263c.371-2.77 2.05-8.22 3.72-12.1 3.99-9.28 8.67-12.1 27.8-16.7 8.36-2.01 18.8-5.12 23.2-6.91 4.42-1.79 9.08-3.26 10.4-3.26 1.28 0 4.14-1.52 6.34-3.37 4.61-3.88 4.69-3.77 6.26 8.58.505 3.97 2.95 14.1 5.43 22.5 2.48 8.43 4.51 15.5 4.51 15.8 0 .248-19.9.451-44.2.451h-44.1zm99.7 2.53c0-1.37.865-4.95 1.92-7.95 1.89-5.34 1.85-5.5-1.67-8.08l-3.59-2.63 5.27-5.42c2.9-2.98 6.03-5.42 6.96-5.42.927 0 3.89 2.21 6.59 4.9l4.9 4.9-3.59 3.09c-3.49 3-3.55 3.31-2.19 10.7.771 4.17 1.4 7.77 1.4 8.01 0 .232-3.6.422-8 .422-6.93 0-8-.334-8-2.5zm32.2-6.5c5.06-17.2 7.83-28.8 7.83-32.6 0-2.13.634-5.06 1.41-6.51 1.39-2.6 1.43-2.6 3.67-.048 2.36 2.7 33.5 13.3 47.5 16.2 14.7 3.02 21.7 10.3 24.6 25.7l1.17 6.26h-88.8zm2.69-49.5c-.175-5.48-.345-5.74-2.52-3.83-10.4 9.09-32.1 9.92-44.6 1.69l-4.91-3.24-.573 2.96c-.453 2.34-.611 2.15-.754-.934-.0999-2.14-1.23-5.13-2.51-6.64-2.51-2.95-2.4-2.89 7.97 4.92 7.42 5.59 17.9 8.23 27.3 6.86 7.43-1.08 12.3-3.35 19.7-9.1 2.91-2.28 4.72-3.25 4.02-2.15-.693 1.1-1.64 5-2.1 8.67l-.836 6.67zm5.15-11.3c0-.277 1.05-1.33 2.33-2.33 2.11-1.66 2.16-1.61.503.503-1.74 2.22-2.84 2.93-2.84 1.83zm-70.7-6.28-6-5.44 6.33 4.94c5.55 4.33 7.2 5.96 6 5.94-.183-.001-3.03-2.45-6.33-5.44zm80-1.89c2.56-2.93 5.19-5.93 5.83-6.66.642-.733.545-.133-.215 1.33-.760 1.47-3.38 4.47-5.83 6.66l-4.45 4zm-50.6-4.61c-3.55-2.25.0279-3.39 10.6-3.39 5.74 0 10.9.483 11.5 1.07 2.04 2.04-2.88 3.55-11.5 3.55-4.77 0-9.55-.558-10.6-1.24zm-35.8-2c-.483-.782-.593-1.71-.243-2.06s.991.290 1.43 1.42c.902 2.35.133 2.76-1.18.635zm-1.84-6.02c.0640-1.55.380-1.87.806-.806.385.962.338 2.11-.105 2.56-.443.443-.758-.344-0.7-1.75zm97.3-4c.064-1.55.380-1.87.806-.806.385.962.338 2.11-.105 2.56-.443.443-.758-.344-0.7-1.75zm-98.7-1.33c.0640-1.55.380-1.87.806-.806.385.962.338 2.11-.105 2.56-.443.443-.758-.344-0.7-1.75zm-1.44-4.33c0-.856-1.13-1.56-2.5-1.56-1.38 0-3.3-1.05-4.27-2.33-1.5-1.99-1.49-2.08.103-.667 1.03.917 2.72 1.67 3.77 1.67 2.22 0 1.73-3.35-2.59-17.9-2.57-8.62-2.95-9.18-4.66-6.83-1.03 1.4-1.5 3.7-1.05 5.11.568 1.79.268 2.38-.994 1.97-2.71-.892-2.93-7.11-.393-11l2.24-3.42 2.42 4.51c2.91 5.43 9.79 30.1 8.7 31.2-.426.426-.774.0737-.774-.782zm102-5c.0175-1.99.207-2.04 1.29-.333 1.1 1.74 1.67 1.75 4.31.119 2.79-1.72 2.89-1.7 1.21.333-2.44 2.95-6.84 2.88-6.82-.119zm-59.8-5.67c0-1.83.303-2.58.673-1.67.370.917.370 2.42 0 3.33-.370.917-.673.167-.673-1.67zm61.1 1.44c0-2.52 5.68-21.5 6.25-21 .521.521-4.83 21.1-5.74 22.1-.284.306-.516-.196-.516-1.12zm8.56-2.44c1.08-2.02 3.56-5.47 5.51-7.67 2.65-2.99 3-3.16 1.36-.667-1.2 1.83-3.43 5.28-4.94 7.67-3.36 5.28-4.64 5.72-1.93.667zm-127-4c-5.46-7.74-6.79-10.5-2.7-5.67 3.56 4.23 8.09 11.3 7.22 11.3-.284 0-2.32-2.55-4.52-5.67zm128-9c-.697-8.37-.502-11.5 1.12-18.2 1.35-5.53 1.34-7.63-.0524-11-2.23-5.38-4.04-5.31-4.18.169-.119 4.75-4.82 24.2-5.07 21-.0841-1.1.734-6.64 1.82-12.3 1.5-7.84 1.65-12 .613-17.3-.747-3.87-1.21-11.4-1.02-16.8l.341-9.8 3.71 4.16c2.04 2.29 3.71 3.56 3.71 2.84 0-3.56-6.91-16.3-10.7-19.6-2.34-2.09-4.85-4.89-5.56-6.23-1.14-2.13-.976-2.26 1.32-1.03 7.55 4.04 14.9 17.8 17.6 32.9 2.11 11.8 1.24 31.8-1.6 37.2-1.85 3.48-1.87 4.3-.151 6.91 2.09 3.19 1.94 9.99-.248 10.7-.733.240-1.48-1.36-1.67-3.56zm3.01-43.7c-.725-6.77-1.7-9.38-4.75-12.7l-3.84-4.22-.0391 4.76c-.0268 3.26 1.21 6.41 3.92 10 4.89 6.46 5.26 8.71.601 3.65l-3.44-3.74.739 4.35c.406 2.39 2.1 6.2 3.77 8.47 2.94 4 3.04 4.03 3.49 1.06.253-1.68.0501-6.89-.451-11.6zm5.41 43.3c.501-1.31 1.25-2.05 1.66-1.64.411.411.00085 1.49-.910 2.39-1.32 1.31-1.47 1.15-.746-.746zm2.22-8.94c0-2.57.274-3.62.610-2.33.335 1.28.335 3.38 0 4.67-.335 1.28-.610.233-.610-2.33zm-127 1.74c-1.02-1.66-4.92-21.2-4.93-24.7-.0044-2.7-.328-2.53-2.8 1.52-2.75 4.51-2.85 9.94-.321 17 .485 1.35.375 1.99-.244 1.42-6.9-6.28-5.48-40.9 2.31-56.6 4.13-8.34 14.5-18.3 25.7-24.9 3.91-2.28 3.92-2.27.667.0705-1.83 1.32-7.65 6.53-12.9 11.6-9.41 9.02-15.1 18.1-15.7 24.9-.156 1.83-.633 4.23-1.06 5.33s-1.17 4.4-1.64 7.33l-.864 5.33 4.55-4.67c3.45-3.54 4.76-6.25 5.43-11.2l.882-6.57-3.34 3.14c-1.84 1.73-3.34 2.55-3.34 1.82 0-.724 1.8-3.04 4.01-5.15l4.01-3.84-.579 7.25c-2.21 27.7-2.25 34.2-.258 42.5 1.9 7.98 2.06 11.1.414 8.47zm-6.83-27c1.94-2.94 3.26-6.59 3.01-8.33-.411-2.87-.719-2.71-4.11 2.2-3.17 4.6-4.96 11.4-3.01 11.4.356 0 2.2-2.35 4.11-5.23zm28 26.2c.521-.917 1.86-2.73 2.98-4.03 1.83-2.13 1.75-2.74-.869-6.28-3.46-4.68-3.56-5.36-.778-5.36 1.17 0 3.19 1.32 4.49 2.93l2.37 2.93 1.83-2.93c1.01-1.61 2.96-2.93 4.33-2.93 2.26 0 2.16.447-.982 4.57l-3.49 4.57 3.45 4.1c3.26 3.88 3.3 4.1.737 4.1-1.49 0-3.6-1.27-4.68-2.81l-1.97-2.81-1.76 2.81c-1.87 3-7.34 4.11-5.66 1.15zm53.8-2.21c3.42-4.8 3.43-5.77.0908-8.79-1.47-1.33-2.67-2.92-2.67-3.54 0-2.23 4.29-1.06 6.61 1.8l2.37 2.93 1.83-2.93c1.01-1.61 2.88-2.93 4.18-2.93 3.09 0 2.97 1.69-.321 4.67-3.37 3.05-3.35 4.77.0968 9.15 2.4 3.06 2.47 3.51.547 3.51-1.22 0-3.28-1.32-4.59-2.93l-2.37-2.93-1.83 2.93c-1.01 1.61-2.93 2.93-4.27 2.93-2.29 0-2.27-.239.321-3.87zm-93.1-5.79c.0785-3.63.279-3.9 1.24-1.67.630 1.47 1.19 1.92 1.24 1 .0516-.917.681-1.67 1.4-1.67.794 0 .710 1.31-.214 3.33-2.11 4.62-3.78 4.17-3.66-1zm142 1c-.848-1.83-1.05-3.33-.444-3.33.603 0 1.45.75 1.88 1.67.431.917.556-.0288.277-2.1-.349-2.59-.0773-3.34.870-2.39.891.891.950 2.81.168 5.43l-1.21 4.06zm-30-74.4c-2.93-2.63-4.13-4.16-2.67-3.4 2.47 1.28 9.84 8.36 8.57 8.24-.311-.0305-2.97-2.21-5.9-4.84z" fill="#c49271"/>
  <path d="m24.6 263c.371-2.77 2.05-8.22 3.72-12.1 3.99-9.28 8.67-12.1 27.8-16.7 8.36-2.01 18.8-5.12 23.2-6.91 4.42-1.79 9.08-3.26 10.4-3.26 1.28 0 4.14-1.52 6.34-3.37 4.61-3.88 4.69-3.77 6.26 8.58.505 3.97 2.95 14.1 5.43 22.5 2.48 8.43 4.51 15.5 4.51 15.8 0 .248-19.9.451-44.2.451h-44.1zm99.7 2.53c0-1.37.865-4.95 1.92-7.95 1.89-5.34 1.85-5.5-1.67-8.08l-3.59-2.63 5.27-5.42c2.9-2.98 6.03-5.42 6.96-5.42.927 0 3.89 2.21 6.59 4.9l4.9 4.9-3.59 3.09c-3.49 3-3.55 3.31-2.19 10.7.771 4.17 1.4 7.77 1.4 8.01 0 .232-3.6.422-8 .422-6.93 0-8-.334-8-2.5zm32.2-6.5c5.06-17.2 7.83-28.8 7.83-32.6 0-2.13.634-5.06 1.41-6.51 1.39-2.6 1.43-2.6 3.67-.048 2.36 2.7 33.5 13.3 47.5 16.2 14.7 3.02 21.7 10.3 24.6 25.7l1.17 6.26h-88.8zm-20.4-47.2c9.16-1.31 15.9-4.24 23-9.97 2.48-2 3.76-2.81 2.84-1.8-.917 1.02-1.77 4.58-1.89 7.91-.213 5.76-.250 5.82-.745 1.1l-.521-4.97-4.92 3.23c-5.48 3.6-14.5 6.04-21.6 5.84-3.07-.0868-1.77-.547 3.81-1.34zm-17.1-.773c-1.1-.424-4.21-2.16-6.91-3.86l-4.91-3.09-.573 2.96c-.453 2.34-.611 2.15-.754-.934-.0999-2.14-1.23-5.13-2.51-6.64s.367-.601 3.67 2.02c7.14 5.68 11.3 7.98 16.7 9.28 3.56.860 3.64.969.667.997-1.83.0172-4.23-.316-5.33-.740zm-21.6-17c-1.66-2.11-1.61-2.16.503-.503 1.28 1.01 2.33 2.06 2.33 2.33 0 1.1-1.09.391-2.84-1.83zm76.2-5c2.49-2.57 4.82-4.67 5.19-4.67.367 0-1.37 2.1-3.86 4.67s-4.82 4.67-5.19 4.67c-.367 0 1.37-2.1 3.86-4.67zm-82.8-.333-3.23-3.67 3.67 3.23c3.43 3.02 4.28 4.1 3.23 4.1-.239 0-1.89-1.65-3.67-3.67zm32.1-4.28c-3.55-2.25.0279-3.39 10.6-3.39 5.74 0 10.9.483 11.5 1.07 2.04 2.04-2.88 3.55-11.5 3.55-4.77 0-9.55-.558-10.6-1.24zm-36.8-2c-.483-.782-.593-1.71-.243-2.06s.991.290 1.43 1.42c.902 2.35.133 2.76-1.18.635zm-3.17-11.4c.0640-1.55.380-1.87.806-.806.385.962.338 2.11-.105 2.56-.443.443-.758-.344-0.7-1.75zm-1.44-4.33c0-.856-1.13-1.56-2.5-1.56-1.38 0-3.3-1.05-4.27-2.33-1.5-1.99-1.49-2.08.103-.667 2.67 2.38 5.32 2.06 5.45-.667.0630-1.28.643-.563 1.29 1.6.646 2.16.894 4.21.552 4.56-.342.342-.623-.0774-.623-.933zm102-5c.0175-1.99.207-2.04 1.29-.333 1.1 1.74 1.67 1.75 4.31.119 2.79-1.72 2.89-1.7 1.21.333-2.44 2.95-6.84 2.88-6.82-.119zm1.43-4.33c-.0961-2.29 4.91-18.7 5.09-16.7.064.733-1.04 5.23-2.44 10-1.41 4.77-2.6 7.77-2.64 6.67zm-107-6c-.903-3.38-1.4-6.37-1.12-6.66.289-.289 1.29 2.21 2.23 5.55.936 3.34 1.44 6.34 1.12 6.66-.322.322-1.32-2.18-2.23-5.55zm46.5 4.11c.064-1.55.380-1.87.806-.806.385.962.338 2.11-.105 2.56-.443.443-.758-.344-0.7-1.75zm-57.3-5.56c-3.28-4.79-3.48-5.36-.827-2.33 3.53 4.03 6.55 8.67 5.65 8.67-.268 0-2.44-2.85-4.82-6.33zm132-1.67c1.57-2.2 3.15-4 3.51-4 .367 0-.615 1.8-2.18 4-1.57 2.2-3.15 4-3.51 4-.367 0 .615-1.8 2.18-4zm-131-3c-1.55-1.55-.877-7.68 1.14-10.3 2.74-3.62 3.99-1.63 2 3.17-.916 2.21-1.32 4.93-.888 6.04.787 2.05-.623 2.76-2.25 1.14zm128-1.57c.375-1.43-.0279-3.93-.895-5.55-.994-1.86-1.11-3.41-.312-4.21.797-.797 1.87.203 2.91 2.7 1.85 4.48 1.51 8.37-.821 9.15-.974.324-1.31-.461-.880-2.09zm7.86-1.94c.501-1.31 1.25-2.05 1.66-1.64.411.411.00085 1.49-.910 2.39-1.32 1.31-1.47 1.15-.746-.746zm-130-1c-.724-1.9-.570-2.05.746-.746.911.904 1.32 1.98.910 2.39-.411.411-1.16-.329-1.66-1.64zm25.4-6.06c.521-.917 1.86-2.73 2.98-4.03 1.83-2.13 1.75-2.74-.869-6.28-3.46-4.68-3.56-5.36-.778-5.36 1.17 0 3.19 1.32 4.49 2.93l2.37 2.93 1.83-2.93c1.01-1.61 2.96-2.93 4.33-2.93 2.26 0 2.16.447-.982 4.57l-3.49 4.57 3.45 4.1c3.26 3.88 3.3 4.1.737 4.1-1.49 0-3.6-1.27-4.68-2.81l-1.97-2.81-1.76 2.81c-1.87 3-7.34 4.11-5.66 1.15zm53.8-2.21c3.42-4.8 3.43-5.77.0908-8.79-1.47-1.33-2.67-2.92-2.67-3.54 0-2.23 4.29-1.06 6.61 1.8l2.37 2.93 1.83-2.93c1.01-1.61 2.88-2.93 4.18-2.93 3.09 0 2.97 1.69-.321 4.67-3.37 3.05-3.35 4.77.0968 9.15 2.4 3.06 2.47 3.51.547 3.51-1.22 0-3.28-1.32-4.59-2.93l-2.37-2.93-1.83 2.93c-1.01 1.61-2.93 2.93-4.27 2.93-2.29 0-2.27-.239.321-3.87zm-76.6-4.13c-.506-2.3-.642-4.47-.303-4.81.340-.340 1 1.3 1.47 3.64 1.11 5.56.0344 6.63-1.17 1.17zm-14.6 0c.989-3.71 1.62-4.71 2.45-3.89.307.307-.318 2.06-1.39 3.89l-1.95 3.33zm6.71 1.19c-.319-1.02-1.12-3.66-1.78-5.86-.662-2.2-1.26-9.1-1.33-15.3l-.127-11.3 1.18 12.6c.651 6.94 1.8 14.4 2.55 16.5.753 2.16 1.08 4.22.728 4.57-.353.353-.903-.195-1.22-1.22zm119-1.86c.0137-1.47.483-4.47 1.04-6.67.914-3.59 1.02-3.66 1.04-.667.0136 1.83-.456 4.83-1.04 6.67-.837 2.61-1.06 2.76-1.04.667zm7.81-.111c.064-1.55.380-1.87.806-.806.385.962.338 2.11-.105 2.56-.443.443-.758-.344-0.7-1.75zm6.06.0596c-1.29-3.35-.907-4.22.665-1.52.778 1.34 1.13 2.71.791 3.06-.343.343-.998-.351-1.46-1.54zm-142-3c.0640-1.55.380-1.87.806-.806.385.962.338 2.11-.105 2.56-.443.443-.758-.344-0.7-1.75zm144-2c-.580-2.22-.406-2.74.583-1.75.775.775 1.15 2.2.826 3.16-.333.999-.937.394-1.41-1.41zm-5.77-14.3c.0695-8.69-.395-17-1.03-18.5-.638-1.47-1.33-4.17-1.54-6-.689-6.09-4.72-13.5-11-20.4-5.46-5.92-5.69-6.39-1.85-3.72 2.43 1.69 5.85 5.26 7.61 7.93 3.85 5.84 7.63 16.1 6.75 18.4-.346.902.044 1.86.867 2.14 1.94.645 3.17 30.5 1.39 33.6-.880 1.57-1.25-2.7-1.16-13.5zm-124 6.12c-.621-4.52-.472-8.84.380-11.1.769-2.02 1.48-6.49 1.58-9.92.0999-3.44.406-5.05.680-3.58s.0213 9.27-.562 17.3c-1.03 14.2-1.09 14.4-2.08 7.26zm116-7.3c-.520-4.86-.646-9.13-.279-9.5.367-.367 1.09 3.31 1.61 8.17s.646 9.13.279 9.5c-.367.367-1.09-3.31-1.61-8.17zm-122-17.9c.812-8.19 8.89-25.1 13.5-28.3 1.86-1.29 5.58-4.07 8.27-6.18s.906.0393-3.96 4.78c-10.1 9.88-12.3 13.5-15.9 26.8-2.44 9.01-2.55 9.18-1.93 2.92zm121 .667c0-2.93.237-5.33.527-5.33s.756 2.4 1.04 5.33c.280 2.93.0428 5.33-.527 5.33-.569 0-1.04-2.4-1.04-5.33zm3.83-7.67c-1.66-2.11-1.61-2.16.503-.503 2.22 1.74 2.93 2.84 1.83 2.84-.277 0-1.33-1.05-2.33-2.33zm-23-31.8c-2.4-2.04-2.89-2.85-1.22-2.02 2.44 1.21 7.03 5.6 5.72 5.48-.273-.0264-2.3-1.58-4.5-3.45z" fill="#c17a6e"/>
  <path d="m24.6 263c.371-2.77 2.05-8.22 3.72-12.1 3.99-9.28 8.67-12.1 27.8-16.7 8.36-2.01 18.8-5.12 23.2-6.91 4.42-1.79 9.08-3.26 10.4-3.26 1.28 0 4.14-1.52 6.34-3.37 4.61-3.88 4.69-3.77 6.26 8.58.505 3.97 2.95 14.1 5.43 22.5 2.48 8.43 4.51 15.5 4.51 15.8 0 .248-19.9.451-44.2.451h-44.1zm99.7 2.53c0-1.37.865-4.95 1.92-7.95 1.89-5.34 1.85-5.5-1.67-8.08l-3.59-2.63 5.27-5.42c2.9-2.98 6.03-5.42 6.96-5.42.927 0 3.89 2.21 6.59 4.9l4.9 4.9-3.59 3.09c-3.49 3-3.55 3.31-2.19 10.7.771 4.17 1.4 7.77 1.4 8.01 0 .232-3.6.422-8 .422-6.93 0-8-.334-8-2.5zm32.2-6.5c5.06-17.2 7.83-28.8 7.83-32.6 0-2.13.634-5.06 1.41-6.51 1.39-2.6 1.43-2.6 3.67-.048 2.36 2.7 33.5 13.3 47.5 16.2 14.7 3.02 21.7 10.3 24.6 25.7l1.17 6.26h-88.8zm-33.5-73.6c-3.55-2.25.0279-3.39 10.6-3.39 5.74 0 10.9.483 11.5 1.07 2.04 2.04-2.88 3.55-11.5 3.55-4.77 0-9.55-.558-10.6-1.24zm-54.1-40c-1.75-1.77-1.08-5.5 1.58-8.75 2.45-2.99 2.87-1.81 1.03 2.85-.434 1.1-.975 3.1-1.2 4.45-.226 1.35-.861 2-1.41 1.44zm128-3c0-1.73-.71-3.86-1.58-4.72-.868-.868-1.12-2.04-.558-2.6 1.3-1.3 4.8 3.42 4.8 6.49 0 1.28-.6 2.7-1.33 3.16-.745.460-1.33-.564-1.33-2.32zm-96.5-8.01c.521-.917 1.86-2.73 2.98-4.03 1.83-2.13 1.75-2.74-.869-6.28-3.46-4.68-3.56-5.36-.778-5.36 1.17 0 3.19 1.32 4.49 2.93l2.37 2.93 1.83-2.93c1.01-1.61 2.96-2.93 4.33-2.93 2.26 0 2.16.447-.982 4.57l-3.49 4.57 3.45 4.1c3.26 3.88 3.3 4.1.737 4.1-1.49 0-3.6-1.27-4.68-2.81l-1.97-2.81-1.76 2.81c-1.87 3-7.34 4.11-5.66 1.15zm53.8-2.21c3.42-4.8 3.43-5.77.0908-8.79-1.47-1.33-2.67-2.92-2.67-3.54 0-2.23 4.29-1.06 6.61 1.8l2.37 2.93 1.83-2.93c1.01-1.61 2.88-2.93 4.18-2.93 3.09 0 2.97 1.69-.321 4.67-3.37 3.05-3.35 4.77.0968 9.15 2.4 3.06 2.47 3.51.547 3.51-1.22 0-3.28-1.32-4.59-2.93l-2.37-2.93-1.83 2.93c-1.01 1.61-2.93 2.93-4.27 2.93-2.29 0-2.27-.239.321-3.87zm-76.6-4.13c-.506-2.3-.642-4.47-.303-4.81.340-.340 1 1.3 1.47 3.64 1.11 5.56.0344 6.63-1.17 1.17zm-8.93-2.93c-1.04-3.16-1.96-10.8-2.03-17.1l-.132-11.3 1.18 12.6c.651 6.94 1.8 14.4 2.55 16.5.753 2.16 1.13 4.16.847 4.45-.287.288-1.38-2.06-2.42-5.22zm121 2.26c.0137-1.47.483-4.47 1.04-6.67.914-3.59 1.02-3.66 1.04-.667.0136 1.83-.456 4.83-1.04 6.67-.837 2.61-1.06 2.76-1.04.667zm7.81-.111c.064-1.55.380-1.87.806-.806.385.962.338 2.11-.105 2.56-.443.443-.758-.344-0.7-1.75zm1.77-18.8c.0695-8.69-.395-17-1.03-18.5-.638-1.47-1.33-4.17-1.54-6-.667-5.89-4.6-13.4-10.4-19.6-3.79-4.14-4.63-5.6-2.57-4.51 6.23 3.3 16.8 22.8 14.4 26.7-.425.687-.0615 1.49.807 1.78 2.01.671 3.31 30.4 1.47 33.7-.880 1.57-1.25-2.7-1.16-13.5zm-124 6.12c-.621-4.52-.472-8.84.380-11.1.769-2.02 1.48-6.49 1.58-9.92.0999-3.44.406-5.05.680-3.58s.0213 9.27-.562 17.3c-1.03 14.2-1.09 14.4-2.08 7.26zm116-7.3c-.520-4.86-.646-9.13-.279-9.5.367-.367 1.09 3.31 1.61 8.17s.646 9.13.279 9.5c-.367.367-1.09-3.31-1.61-8.17zm-122-16.9c.803-8.09 8.73-24.8 13.6-28.6 5.36-4.22 5.51-1.9.199 2.97-5.87 5.39-8.55 10.5-11.9 22.7-2.44 9.01-2.55 9.18-1.93 2.92zm121 .667c0-2.93.237-5.33.527-5.33s.756 2.4 1.04 5.33c.280 2.93.0428 5.33-.527 5.33-.569 0-1.04-2.4-1.04-5.33zm3.83-7.67c-1.66-2.11-1.61-2.16.503-.503 2.22 1.74 2.93 2.84 1.83 2.84-.277 0-1.33-1.05-2.33-2.33z" fill="#b98d5c"/>
  <path d="m24.6 263c.371-2.77 2.05-8.22 3.72-12.1 3.99-9.28 8.67-12.1 27.8-16.7 8.36-2.01 18.8-5.12 23.2-6.91 4.42-1.79 9.08-3.26 10.4-3.26 1.28 0 4.14-1.52 6.34-3.37 4.61-3.88 4.69-3.77 6.26 8.58.505 3.97 2.95 14.1 5.43 22.5 2.48 8.43 4.51 15.5 4.51 15.8 0 .248-19.9.451-44.2.451h-44.1zm99.7 2.53c0-1.37.865-4.95 1.92-7.95 1.89-5.34 1.85-5.5-1.67-8.08l-3.59-2.63 5.27-5.42c2.9-2.98 6.03-5.42 6.96-5.42.927 0 3.89 2.21 6.59 4.9l4.9 4.9-3.59 3.09c-3.49 3-3.55 3.31-2.19 10.7.771 4.17 1.4 7.77 1.4 8.01 0 .232-3.6.422-8 .422-6.93 0-8-.334-8-2.5zm32.2-6.5c5.06-17.2 7.83-28.8 7.83-32.6 0-2.13.634-5.06 1.41-6.51 1.39-2.6 1.43-2.6 3.67-.048 2.36 2.7 33.5 13.3 47.5 16.2 14.7 3.02 21.7 10.3 24.6 25.7l1.17 6.26h-88.8zm-33.5-73.6c-3.55-2.25.0279-3.39 10.6-3.39 5.74 0 10.9.483 11.5 1.07 2.04 2.04-2.88 3.55-11.5 3.55-4.77 0-9.55-.558-10.6-1.24zm-54.3-41c-1.3-2.92 1.35-9.43 3.34-8.2.892.552.936 1.42.122 2.41-.699.851-1.52 3.05-1.83 4.88-.490 2.91-.695 3.03-1.64.915zm129-1.42c0-1.83-.610-3.71-1.36-4.17-.745-.461-.954-1.49-.463-2.28.576-.932 1.53-.572 2.69 1.01 2.12 2.9 2.34 6.78.463 7.95-.753.465-1.33-.627-1.33-2.51zm-96.5-7.82c.521-.917 1.86-2.73 2.98-4.03 1.83-2.13 1.75-2.74-.869-6.28-3.46-4.68-3.56-5.36-.778-5.36 1.17 0 3.19 1.32 4.49 2.93l2.37 2.93 1.83-2.93c1.01-1.61 2.96-2.93 4.33-2.93 2.26 0 2.16.447-.982 4.57l-3.49 4.57 3.45 4.1c3.26 3.88 3.3 4.1.737 4.1-1.49 0-3.6-1.27-4.68-2.81l-1.97-2.81-1.76 2.81c-1.87 3-7.34 4.11-5.66 1.15zm53.8-2.21c3.42-4.8 3.43-5.77.0908-8.79-1.47-1.33-2.67-2.92-2.67-3.54 0-2.23 4.29-1.06 6.61 1.8l2.37 2.93 1.83-2.93c1.01-1.61 2.88-2.93 4.18-2.93 3.09 0 2.97 1.69-.321 4.67-3.37 3.05-3.35 4.77.0968 9.15 2.4 3.06 2.47 3.51.547 3.51-1.22 0-3.28-1.32-4.59-2.93l-2.37-2.93-1.83 2.93c-1.01 1.61-2.93 2.93-4.27 2.93-2.29 0-2.27-.239.321-3.87zm-87.4-11c-.580-2.22-.406-2.74.583-1.75.775.775 1.15 2.2.826 3.16-.333.999-.937.394-1.41-1.41zm132-15c.005-5.87.239-8.1.521-4.96s.278 7.94-.009 10.7c-.286 2.73-.516.165-.512-5.7zm-133 0c0-3.3.260-4.65.578-3s.318 4.35 0 6-.578.3-.578-3zm1.18-16c0-1.83.303-2.58.673-1.67.370.917.370 2.42 0 3.33-.370.917-.673.167-.673-1.67z" fill="#b3725f"/>
  <path d="m24.6 263c.371-2.77 2.05-8.22 3.72-12.1 3.99-9.28 8.67-12.1 27.8-16.7 8.36-2.01 18.8-5.12 23.2-6.91 4.42-1.79 9.08-3.26 10.4-3.26 1.28 0 4.14-1.52 6.34-3.37 4.61-3.88 4.69-3.77 6.26 8.58.505 3.97 2.95 14.1 5.43 22.5 2.48 8.43 4.51 15.5 4.51 15.8 0 .248-19.9.451-44.2.451h-44.1zm99.7 2.53c0-1.37.865-4.95 1.92-7.95 1.89-5.34 1.85-5.5-1.67-8.08l-3.59-2.63 5.27-5.42c2.9-2.98 6.03-5.42 6.96-5.42.927 0 3.89 2.21 6.59 4.9l4.9 4.9-3.59 3.09c-3.49 3-3.55 3.31-2.19 10.7.771 4.17 1.4 7.77 1.4 8.01 0 .232-3.6.422-8 .422-6.93 0-8-.334-8-2.5zm32.2-6.5c5.06-17.2 7.83-28.8 7.83-32.6 0-2.13.634-5.06 1.41-6.51 1.39-2.6 1.43-2.6 3.67-.048 2.36 2.7 33.5 13.3 47.5 16.2 14.7 3.02 21.7 10.3 24.6 25.7l1.17 6.26h-88.8zm-32.2-73.5c-5.73-1.71-.355-3.47 10.3-3.39 9.43.0765 12.4.868 10.5 2.78-1.34 1.34-16.9 1.79-20.8.605zm-23.5-51.2c3.77-5.18 3.89-6.39.979-9.49-3.51-3.74-3.57-4.85-.259-4.85 1.42 0 2.96 1.2 3.42 2.67.466 1.47 1.4 2.67 2.08 2.67.678 0 1.98-1.2 2.9-2.67 1.67-2.67 5.02-3.68 5.02-1.51 0 .634-1.2 2.68-2.68 4.55l-2.68 3.4 3.46 4.11c3.29 3.91 3.33 4.11.722 4.11-1.51 0-3.44-1.31-4.3-2.92l-1.56-2.92-2.36 2.92c-1.3 1.61-3.39 2.92-4.65 2.92-2.12 0-2.13-.208-.101-3zm52.8-1.05c2.97-4.17 2.89-5.16-.844-10.3-2.05-2.82-2.03-3 .327-3 1.38 0 3.26 1.2 4.17 2.67.916 1.47 2.22 2.67 2.9 2.67.678 0 1.61-1.2 2.08-2.67.466-1.47 2.01-2.67 3.42-2.67 3.46 0 3.24 1.58-.745 5.32l-3.32 3.12 3.39 4.44c2.77 3.63 2.99 4.44 1.2 4.44-1.2 0-3.25-1.32-4.56-2.93l-2.37-2.93-1.83 2.93c-1.01 1.61-2.93 2.93-4.27 2.93-2.26 0-2.23-.290.445-4.05z" fill="#645e5e"/>
  <path d="m24.8 262c1.24-8.01 7-18.8 11.4-21.4 2.06-1.22 10.6-3.98 18.9-6.14 19-4.93 41.2-12.7 42.7-15 1.71-2.64 3.75 1.21 3.77 7.11.0112 2.67 1.59 10.2 3.5 16.7 1.92 6.5 4.26 14.7 5.21 18.1l1.73 6.33h-88.1zm99.5 4.58c0-0.6.941-4.26 2.09-8.13s1.9-7.18 1.67-7.35c-.233-.171-1.81-1.25-3.51-2.39l-3.09-2.08 4.23-4.81c5.11-5.82 8.87-6.12 13.7-1.07 4.32 4.51 4.49 6.35.762 8.34-2.49 1.33-2.72 2.27-1.95 8.06.478 3.6 1.21 7.45 1.63 8.54.623 1.62-.721 1.98-7.38 1.98-4.48 0-8.14-.491-8.14-1.09zm30.7-.692c0-.981 1.81-7.73 4.01-15 2.21-7.27 4.62-17.4 5.36-22.5.744-5.09 1.64-9.54 1.98-9.88.345-.345 1.7.341 3 1.52 2.86 2.59 34.8 13.3 47 15.8 4.76.961 10.6 2.89 13.1 4.29 5.2 3.01 10.6 12.9 11.8 21.5l.821 5.99h-43.5c-35.4 0-43.5-.331-43.5-1.78zm-27-80.5c-2.77-.303-4.68-1.11-4.25-1.8 1.04-1.68 18.9-1.61 19.9.0821.458.740-.545 1.34-2.25 1.35-1.69.0107-4.28.221-5.75.468s-4.93.202-7.69-0.1zm-25.8-52.7 3.29-4.33-2.68-3.29c-1.87-2.3-2.19-3.46-1.04-3.84 0.9-0.3 2.18.432 2.85 1.63 1.52 2.72 4.55 2.82 5.57.172.422-1.1 1.7-2 2.85-2 1.69 0 1.53.744-.867 3.99l-2.95 3.99 2.91 3.1c1.6 1.7 2.91 3.51 2.91 4.01 0 1.93-3.02.784-5.49-2.09l-2.58-3-2.13 3c-1.17 1.65-2.98 3-4.03 3-1.37 0-.974-1.23 1.39-4.33zm52.1.221 3.46-4.11-2.77-3.52c-1.95-2.47-2.28-3.69-1.12-4.07.905-.302 2.42.509 3.36 1.8 1.74 2.39 5.85 1.96 5.85-.609 0-.756.941-1.38 2.09-1.38 1.74 0 1.63.644-.676 3.89l-2.77 3.89 3.46 4.11c3.06 3.64 3.18 4.11.997 4.11-1.36 0-3.25-1.26-4.22-2.81l-1.75-2.81-2.99 2.81c-4.65 4.37-6.86 3.38-2.93-1.31z" fill="#272f34"/>
  <path d="m24.9 263c.477-2.93 2.35-8.66 4.16-12.7 3.8-8.53 9.1-12 22.5-14.7 11.2-2.25 43.5-13 46.1-15.4 1.94-1.76 2.28-1.74 3.02.185.457 1.19.831 4.38.831 7.08s2.1 12.1 4.67 20.8c2.57 8.72 4.67 16.7 4.67 17.6 0 2.52-62.1 2.64-63.1.118-.538-1.33-.694-1.33-.778 0-.0736 1.16-2.92 1.67-9.44 1.67-5.13 0-9.33-.152-9.33-.338 0-.764 5.13-17.8 6-20 .522-1.28.434-2.33-.194-2.33-1.36.003-7.13 13.7-7.16 17-.0112 1.27-.656 3.2-1.43 4.3-1.04 1.48-1.19.607-.546-3.33zm54.8-8.12c-1.05-2.87-1.95-4.56-2.01-3.75-.131 2.04 2.76 10.1 3.4 9.48.285-.285-.342-2.87-1.39-5.73zm-35 1.39c-.434-1.13-1.08-1.77-1.43-1.42s-.240 1.28.243 2.06c1.31 2.13 2.08 1.71 1.18-.635zm-5.15-9.12-2.08-3.18 15.7-4.9c22.8-7.1 35-11.5 35.8-12.9.430-.695-1.52-.273-4.34.938-7.17 3.08-28.1 9.57-34.5 10.7-2.93.515-7.58 1.82-10.3 2.9l-4.99 1.96 2.75 3.86c3.3 4.64 4.83 5.19 1.88.680zm41.6-8.39c-.496-.496.454-2.45 2.11-4.33l3.01-3.43-3.63 3.19c-3.17 2.79-3.86 5.47-1.41 5.47.446 0 .405-.405-.0909-.901zm43.9 25.2c.446-2.02 1.43-5.71 2.19-8.2 1.24-4.06 1.05-4.78-1.78-6.92l-3.16-2.38 2.79-3.75c1.54-2.06 4.38-4.32 6.32-5.01 2.99-1.07 4.13-.675 7.53 2.58 4.84 4.64 5 6.38.801 9.13-2.87 1.88-3.08 2.63-2.03 7.15 2.43 10.5 2.1 11.1-6.12 11.1-7.34 0-7.36-.012-6.55-3.67zm29.9 2.55c0-.615 2.1-8.25 4.67-17 2.57-8.72 4.67-17.8 4.67-20.1 0-5.73 2.49-12.2 3.84-10 1.75 2.84 45.8 17.6 52.5 17.6 1.43 0 4.95 1.32 7.81 2.93 6.06 3.41 11.3 12.9 12.4 22.4.678 5.94.671 5.96-.748 1.33-4.09-13.3-7.07-19.9-8.42-18.5-.389.389.408 3.67 1.77 7.29s2.9 8.54 3.41 10.9l.929 4.33h-41.4c-22.8 0-41.4-.503-41.4-1.12zm72.7-18.4c1.79-2.35 3.26-4.52 3.26-4.82 0-1.14-10.3-4.76-18-6.33-6.86-1.4-26.4-7.78-34.6-11.3-1.8-.774-2.27-.645-1.6.436.522.845 12.3 5.18 26.2 9.63l25.2 8.09-3.84 6.93c-2.11 3.81-4.2 8.43-4.64 10.3-.442 1.83.432.645 1.94-2.64 1.51-3.29 4.21-7.9 6-10.2zm-40.2 7.55c.620-2.32.515-2.72-.344-1.33-.680 1.1-1.64 3.5-2.13 5.33-.620 2.32-.515 2.72.344 1.33.680-1.1 1.64-3.5 2.13-5.33zm.764-5.33c-1.1-.711-2.6-1.29-3.33-1.29-.733 0-.433.582.667 1.29 1.1.711 2.6 1.29 3.33 1.29.733 0 .433-.582-.667-1.29zm-4.86-16.2c-2-2.09-3.93-3.79-4.3-3.79-.367 0 .944 1.68 2.91 3.74 2.92 3.05 3.27 4.08 1.92 5.6-1.42 1.59-1.31 1.6.722.0573 2.25-1.71 2.18-2.02-1.25-5.6zm-81.2-101 3.46-4.11-2.77-3.52c-1.66-2.11-2.19-3.72-1.32-4.01.799-.266 2.56.887 3.92 2.56l2.47 3.05 1.83-2.93c1.01-1.61 2.69-2.93 3.74-2.93 1.35 0 1 .967-1.16 3.27-3.14 3.34-3.05 4.51.747 9.73 1.48 2.04 1.66 3 .566 3-.889 0-2.76-1.35-4.16-3l-2.55-3-2.55 3c-1.4 1.65-3.25 3-4.12 3-.864 0-.0143-1.85 1.89-4.11zm52 .207 3.74-3.9-2.92-4.1c-3.32-4.66-1.11-5.68 2.54-1.17l2.37 2.93 1.83-2.93c1.01-1.61 2.6-2.93 3.55-2.93 1.13 0 .707 1.37-1.23 3.99l-2.95 3.99 2.91 3.1c1.6 1.7 2.91 3.51 2.91 4.01 0 1.93-3.02.784-5.49-2.09l-2.58-3-2.13 3c-1.17 1.65-3.07 3-4.21 3-1.52 0-1.07-1.07 1.65-3.9z" fill="#1b262c"/>
  <path d="m25.1 263c.972-6.72 6.85-20.3 9.19-21.2.971-.372.305 1.47-1.48 4.1s-3.91 7.24-4.73 10.3c-2.77 10.2-3.82 12.6-2.98 6.81zm53.4.667c-3.15-7.36-4.01-12.9-2.17-14.1.940-.581 1.27-.442.794.333-.453.733.380 4.5 1.85 8.37 3.02 7.94 2.61 12.6-.472 5.38zm30.8 3.33c-2.5-4.01-8.98-30.7-9.55-39.3-.393-6-.207-8.93.464-7.33.616 1.47 1.16 5.07 1.22 8 .0538 2.93 2.21 12.2 4.8 20.6 4.11 13.4 5.59 22.1 3.06 18zm15.4-1.67c.369-1.28 1.42-4.95 2.34-8.14 1.59-5.51 1.51-5.93-1.52-8.21-2.83-2.14-2.98-2.68-1.31-4.86 3-3.93 7.16-7.06 9.41-7.1 1.15-.0163 3.81 1.77 5.92 3.97l3.83 4-3.52 3.67c-3.17 3.31-3.4 4.19-2.28 9 2.27 9.79 2.14 10-6.12 10-6.44 0-7.33-.310-6.75-2.33zm30.2 1.22c0-.614 1.81-7.06 4.01-14.3 2.21-7.27 4.62-17.4 5.37-22.5 1.88-12.9 3.69-13.7 2.35-1.04-1.18 11.1-8.77 39-10.6 39-.615 0-1.12-.502-1.12-1.12zm29.3.658c0-.252 1.19-3.92 2.65-8.16 1.46-4.23 2.24-8.38 1.74-9.21-.547-.913-.0889-.850 1.16.158 1.85 1.5 1.8 2.49-.529 9.67-1.42 4.4-3.14 8-3.81 8-.669 0-1.22-.206-1.22-.458zm55.1-6.25c-.831-4.01-1.32-7.5-1.08-7.76.771-.831 3.45 10.6 3.01 12.9-.232 1.21-1.1-1.09-1.93-5.1zm-198-5.02c-1.25-2.72-3.35-6.41-4.67-8.21-1.31-1.8-1.65-2.82-.738-2.26 2.27 1.39 8.69 12.5 8.13 14.1-.248.709-1.48-.934-2.73-3.65zm180 4.56c0-1.63 5.24-11.3 6.57-12.1.702-.434-.291 2.08-2.21 5.58-3.96 7.24-4.37 7.84-4.37 6.53zm14.1-11.1c-.724-1.9-.570-2.05.746-.746.911.904 1.32 1.98.910 2.39-.411.411-1.16-.329-1.66-1.64zm-154-2.17 3.04-1.69-3.37-3.17c-1.85-1.74-3.37-3.91-3.37-4.82 0-.909 3.75-4.6 8.33-8.21 9.13-7.19 11.7-8.87 11.7-7.76 0 .402-4.2 3.79-9.33 7.52s-9.33 7.16-9.33 7.62c0 .456 1.9 2.79 4.21 5.18l4.21 4.35-3.63 1.38c-4.91 1.87-6.14 1.66-2.42-.399zm100 .323-3.22-1.29 4.46-4.6c4.43-4.57 4.44-4.62 1.94-7.63-1.58-1.9-1.04-1.65 1.43.672l3.95 3.7-4.48 3.51-4.48 3.51 3.14 1.74c3.65 2.02 1.95 2.26-2.75.380zm44.8-7.36c-.452-.452-2.8-1.29-5.22-1.86-3.83-.907-3.96-1.06-.989-1.18 1.88-.0751 4.58.744 6 1.82s2.24 1.98 1.81 2c-.428.0233-1.15-.327-1.6-.779zm-184-3c1.21-1.11 14.8-3.33 13.8-2.23-.367.371-3.86 1.25-7.77 1.96-3.91.708-6.61.831-6 .273zm168-2c-3.4-1.46.108-1.46 4.67 0 2.68.858 2.81 1.08.667 1.11-1.47.0216-3.87-.476-5.33-1.11zm-144-4c.962-.385 2.11-.338 2.56.105.443.443-.344.758-1.75 0.7-1.55-.064-1.87-.380-.806-.806zm128-1.09c-2.57-.988-3.77-1.8-2.67-1.8s4.1.809 6.67 1.8c2.57.988 3.77 1.8 2.67 1.8s-4.1-.809-6.67-1.8zm-121-1c3.67-1.58 5.77-1.58 3.33 0-1.1.711-2.9 1.26-4 1.22-1.32-.0483-1.09-.464.667-1.22zm107-.376c-7.64-5.97-9.6-7.72-9.12-8.2.296-.296 3.24 1.79 6.54 4.65 5.55 4.79 7.36 7.28 2.59 3.55zm-76.7-96.9 3.74-3.9-2.92-4.1c-3.32-4.66-1.11-5.68 2.54-1.17l2.37 2.93 1.83-2.93c1.01-1.61 2.69-2.93 3.74-2.93 1.38 0 1.1.865-.987 3.09-3.57 3.8-3.57 4.22-.142 9.04 3.26 4.58.880 5.3-2.88.872l-2.55-3-2.55 3c-1.4 1.65-3.31 3-4.25 3-.936 0-.0188-1.76 2.04-3.9zm50.1 2.99c0-.503 1.31-2.31 2.91-4.01l2.91-3.1-2.95-3.99c-3.37-4.56-1.2-5.51 2.41-1.06l2.37 2.93 1.83-2.93c1.01-1.61 2.6-2.93 3.55-2.93 1.14 0 .745 1.32-1.16 3.9l-2.88 3.9 2.86 3.64c3.73 4.75 2.45 5.92-1.96 1.79l-3.44-3.23-2.43 3c-2.43 2.99-4.01 3.82-4.01 2.09z" fill="#080a0b"/>
 </g>
</svg>
