<!DOCTYPE svg PUBLIC "-//W3C//DTD SVG 20010904//EN" "http://www.w3.org/TR/2001/REC-SVG-20010904/DTD/svg10.dtd">
<svg version="1.0" xmlns="http://www.w3.org/2000/svg" width="200px" height="200px" viewBox="0 0 2000 2000" preserveAspectRatio="xMidYMid meet">
<g id="layer101" fill="#f8f8f7" stroke="none">
 <path d="M130 1990 c0 -32 26 -122 47 -160 30 -57 76 -82 197 -110 115 -26 314 -95 339 -118 26 -23 64 -103 60 -124 -2 -9 -29 -35 -59 -58 -67 -50 -99 -98 -115 -172 -11 -51 -15 -58 -36 -58 -16 0 -29 -10 -41 -31 -9 -17 -34 -54 -55 -82 -20 -28 -42 -68 -49 -88 -14 -49 -2 -144 21 -167 15 -14 19 -39 24 -127 9 -186 54 -280 180 -380 89 -71 176 -118 247 -134 103 -24 243 -5 335 43 66 36 189 132 220 172 57 75 95 211 95 343 0 55 4 71 20 86 29 26 29 166 0 210 -69 103 -108 150 -126 153 -17 2 -24 15 -33 60 -16 74 -48 122 -115 172 -30 22 -56 50 -59 62 -6 22 29 92 61 121 24 22 225 91 338 117 121 28 167 53 197 110 21 38 47 128 47 160 0 6 -327 10 -870 10 -543 0 -870 -4 -870 -10z"/>
 </g>
<g id="layer102" fill="#dee1e6" stroke="none">
 <path d="M130 1990 c0 -32 26 -122 47 -160 30 -57 76 -82 197 -110 115 -26 314 -95 339 -118 26 -23 64 -103 60 -124 -2 -9 -29 -35 -59 -58 -67 -50 -99 -98 -115 -172 -11 -51 -15 -58 -36 -58 -16 0 -29 -10 -41 -31 -9 -17 -34 -54 -55 -82 -20 -28 -42 -68 -49 -88 -14 -49 -2 -144 21 -167 15 -14 19 -39 24 -127 9 -186 54 -280 180 -380 89 -71 176 -118 247 -134 103 -24 243 -5 335 43 66 36 189 132 220 172 57 75 95 211 95 343 0 55 4 71 20 86 29 26 29 166 0 210 -69 103 -108 150 -126 153 -17 2 -24 15 -33 60 -16 74 -48 122 -115 172 -30 22 -56 50 -59 62 -6 22 29 92 61 121 24 22 225 91 338 117 121 28 167 53 197 110 21 38 47 128 47 160 0 6 -138 10 -356 10 l-356 0 5 -21 c6 -22 -18 -79 -55 -132 l-20 -28 -25 23 c-19 18 -23 29 -19 55 3 18 9 49 12 68 l6 35 -71 0 -71 0 6 -27 c3 -16 10 -45 16 -66 8 -32 6 -42 -8 -58 -9 -10 -21 -19 -25 -19 -17 0 -78 125 -72 148 l5 22 -356 0 c-218 0 -356 -4 -356 -10z m804 -219 c14 -14 26 -28 26 -32 0 -5 -34 -27 -76 -50 -82 -45 -103 -74 -105 -141 l0 -33 -18 39 c-15 35 -16 46 -3 105 12 63 59 227 69 244 3 4 22 -18 42 -50 21 -32 50 -69 65 -82z m265 44 c45 -139 60 -219 46 -245 -11 -20 -12 -19 -24 19 -14 47 -50 78 -133 115 -32 14 -58 28 -58 31 0 3 16 19 35 36 19 17 50 56 67 85 18 30 34 54 35 54 1 0 16 -43 32 -95z m-140 -524 c7 -5 10 -14 7 -20 -11 -17 -88 -12 -126 9 l-35 19 70 0 c39 1 76 -3 84 -8z m-238 -281 c86 -24 126 -128 77 -200 -73 -108 -202 -78 -245 56 -14 47 -15 57 -2 91 23 59 82 77 170 53z m483 -21 c31 -24 56 -69 56 -99 0 -30 -36 -96 -62 -114 -33 -23 -109 -21 -142 5 -51 40 -70 123 -40 180 18 37 43 48 110 48 38 1 58 -5 78 -20z"/>
 <path d="M747 892 c-21 -23 -21 -27 -1 -46 21 -22 71 -21 83 2 11 21 4 35 -26 51 -29 15 -37 14 -56 -7z"/>
 <path d="M1188 899 c-24 -13 -23 -42 2 -64 18 -16 23 -17 45 -5 30 16 33 55 6 70 -24 12 -31 12 -53 -1z"/>
 </g>
<g id="layer103" fill="#ecccc6" stroke="none">
 <path d="M130 1990 c0 -32 26 -122 47 -160 30 -57 76 -82 197 -110 123 -28 316 -96 342 -121 l22 -21 11 38 c6 22 11 51 11 65 0 22 57 238 65 247 1 1 19 -25 39 -58 20 -33 53 -76 72 -97 26 -27 31 -39 22 -45 -7 -5 -41 -25 -76 -44 -71 -41 -88 -62 -97 -119 -4 -22 -8 -49 -10 -60 -2 -11 -4 -25 -4 -31 -1 -7 -26 -30 -56 -53 -68 -51 -99 -99 -116 -173 -11 -51 -15 -58 -36 -58 -16 0 -29 -10 -41 -31 -9 -17 -34 -54 -55 -82 -20 -28 -42 -68 -49 -88 -14 -49 -2 -144 21 -167 15 -14 19 -39 24 -127 9 -186 54 -280 180 -380 89 -71 176 -118 247 -134 103 -24 243 -5 335 43 66 36 189 132 220 172 57 75 95 211 95 343 0 55 4 71 20 86 29 26 29 166 0 210 -69 103 -108 150 -126 153 -17 2 -24 15 -33 60 -17 74 -48 122 -116 173 -30 23 -56 49 -57 58 -1 9 -2 23 -4 31 -1 8 -2 32 -3 52 -1 52 -38 90 -127 134 l-75 37 44 46 c46 48 97 119 97 135 0 6 -14 -12 -31 -40 -17 -27 -33 -51 -35 -53 -2 -3 -16 6 -30 20 -20 19 -24 30 -20 56 3 18 9 49 12 68 l6 35 -72 0 c-63 0 -71 -2 -67 -17 28 -99 29 -124 11 -138 -27 -20 -35 -15 -72 46 -24 39 -32 62 -28 82 l5 27 -354 0 c-218 0 -355 -4 -355 -10z m936 -703 c3 -3 3 -10 -1 -16 -10 -17 -83 -13 -123 7 l-37 17 35 5 c37 6 116 -3 126 -13z m-233 -281 c18 -7 45 -28 60 -45 63 -75 12 -198 -91 -217 -78 -15 -156 70 -157 174 0 47 4 57 28 78 33 28 106 33 160 10z m471 -11 c73 -55 73 -156 0 -214 -19 -15 -41 -21 -76 -21 -43 0 -55 5 -83 33 -56 56 -60 156 -8 197 32 25 137 28 167 5z"/>
 <path d="M741 886 c-16 -19 -3 -45 25 -52 45 -12 79 21 54 51 -16 19 -64 19 -79 1z"/>
 <path d="M1193 893 c-18 -7 -16 -52 2 -59 27 -11 65 5 65 26 0 28 -36 46 -67 33z"/>
 <path d="M1167 1968 c3 -18 19 -76 35 -128 25 -83 50 -205 51 -250 0 -8 -3 -24 -8 -35 -4 -11 2 -6 12 10 11 17 27 36 35 43 23 18 233 89 334 112 121 28 167 53 197 110 21 38 47 128 47 160 0 6 -137 10 -355 10 l-354 0 6 -32z"/>
 </g>
<g id="layer104" fill="#d4ced5" stroke="none">
 <path d="M130 1990 c0 -32 26 -122 47 -160 30 -57 76 -82 197 -110 123 -28 316 -96 342 -121 l22 -21 11 38 c6 22 11 51 11 65 0 22 57 238 65 247 1 1 19 -25 39 -58 20 -33 53 -76 72 -97 26 -27 31 -39 22 -45 -7 -5 -41 -25 -76 -44 -59 -34 -92 -66 -92 -89 1 -5 7 2 15 17 9 15 38 39 68 53 28 15 66 37 84 51 17 13 40 24 50 24 30 0 153 141 153 174 0 6 -14 -12 -31 -40 -17 -27 -33 -51 -35 -53 -2 -3 -16 6 -30 20 -20 19 -24 30 -20 56 3 18 9 49 12 68 l6 35 -72 0 c-63 0 -71 -2 -67 -17 28 -99 29 -124 11 -138 -27 -20 -35 -15 -72 46 -24 39 -32 62 -28 82 l5 27 -354 0 c-218 0 -355 -4 -355 -10z"/>
 <path d="M1167 1968 c3 -18 19 -76 35 -128 25 -83 50 -205 51 -250 0 -8 -3 -24 -8 -35 -4 -11 2 -6 12 10 11 17 27 36 35 43 23 18 233 89 334 112 121 28 167 53 197 110 21 38 47 128 47 160 0 6 -137 10 -355 10 l-354 0 6 -32z"/>
 <path d="M1037 1719 c6 -6 39 -25 73 -42 68 -34 107 -75 96 -102 -5 -14 -10 -13 -38 8 -47 35 -91 47 -168 47 -77 0 -121 -12 -168 -47 -17 -13 -37 -21 -42 -18 -6 4 -11 -7 -11 -24 -1 -17 -3 -35 -4 -41 -1 -5 -3 -16 -4 -24 0 -7 -26 -32 -56 -55 -68 -51 -99 -99 -116 -173 -11 -51 -15 -58 -36 -58 -16 0 -29 -10 -41 -31 -9 -17 -34 -54 -55 -82 -20 -28 -42 -68 -49 -88 -14 -49 -2 -144 21 -167 15 -14 19 -39 24 -127 9 -186 54 -280 180 -380 89 -71 176 -118 247 -134 103 -24 243 -5 335 43 66 36 189 132 220 172 57 75 95 211 95 343 0 55 4 71 20 86 29 26 29 166 0 210 -69 103 -108 150 -126 153 -17 2 -24 15 -33 60 -17 74 -48 122 -116 173 -30 23 -56 49 -57 58 -1 9 -2 23 -4 31 -1 8 -2 32 -3 52 -1 51 -37 89 -123 132 -39 20 -67 31 -61 25z m83 -214 c43 -22 169 -125 208 -169 17 -20 36 -53 41 -73 73 -283 74 -286 58 -294 -13 -8 -13 -17 -1 -72 17 -85 18 -128 5 -283 -15 -180 -30 -224 -93 -284 -28 -27 -70 -59 -93 -71 l-41 -22 -45 44 c-93 93 -220 93 -310 -1 l-47 -48 -48 28 c-76 44 -139 110 -158 166 -15 45 -40 276 -37 349 0 17 6 65 13 108 10 64 9 80 -1 87 -13 7 -10 21 60 293 12 46 50 90 144 166 79 65 105 81 150 92 45 12 159 2 195 -16z m-546 -362 c-4 -16 -17 -38 -30 -51 -13 -13 -24 -26 -24 -31 0 -4 -11 -13 -25 -19 -30 -14 -34 -55 -9 -90 8 -12 14 -28 11 -35 -6 -19 -38 39 -39 72 -1 19 10 44 28 68 16 21 29 40 29 43 1 3 9 20 18 38 22 41 50 44 41 5z m880 8 c10 -11 19 -26 20 -35 1 -8 16 -33 34 -55 18 -22 32 -52 32 -66 0 -30 -31 -96 -37 -78 -2 6 3 25 11 42 20 38 20 50 -1 73 -24 26 -29 22 -27 -19 l3 -38 -8 35 c-7 30 -9 31 -11 10 -2 -24 -2 -24 -11 4 -4 17 -6 32 -4 35 3 2 5 -1 5 -8 0 -7 4 -10 10 -6 12 7 1 35 -21 55 -19 17 -34 70 -21 70 5 0 17 -9 26 -19z m-913 -127 c-9 -28 -9 -29 -10 -3 -1 14 2 29 6 32 11 12 13 2 4 -29z m-24 -31 c-3 -10 -5 -2 -5 17 0 19 2 27 5 18 2 -10 2 -26 0 -35z m-47 -74 c7 -16 10 -32 7 -35 -10 -10 -27 7 -27 27 0 11 -5 30 -12 42 -10 19 -9 20 4 9 9 -7 21 -26 28 -43z m1080 9 c0 -30 -15 -52 -29 -44 -8 5 -6 16 6 37 21 35 23 36 23 7z m-1080 -83 c-12 -15 -30 -12 -30 5 0 8 31 19 39 13 2 -1 -2 -9 -9 -18z m1079 -2 c-10 -11 -14 -11 -20 -1 -14 21 -10 26 11 21 16 -4 18 -8 9 -20z"/>
 <path d="M860 1376 c-6 -6 -10 -22 -10 -36 0 -77 174 -134 243 -80 28 22 43 74 33 108 -6 19 -15 20 -132 18 -69 0 -129 -5 -134 -10z m206 -89 c3 -3 3 -10 -1 -16 -10 -17 -83 -13 -123 7 l-37 17 35 5 c37 6 116 -3 126 -13z"/>
 <path d="M941 1186 c-26 -27 -25 -56 3 -156 l15 -55 -6 96 c-5 92 -5 97 17 112 18 13 28 14 44 5 19 -10 20 -10 7 5 -19 24 -54 21 -80 -7z"/>
 <path d="M674 1039 c-47 -24 -70 -124 -44 -194 7 -17 7 -24 0 -20 -26 16 -5 -15 39 -57 60 -58 121 -72 180 -42 20 10 46 17 59 16 22 -3 30 12 12 23 -6 4 -4 17 5 35 8 16 15 53 15 83 0 102 -74 168 -187 166 -32 0 -67 -5 -79 -10z m159 -33 c18 -7 45 -28 60 -45 63 -75 12 -198 -91 -217 -78 -15 -156 70 -157 174 0 47 4 57 28 78 33 28 106 33 160 10z"/>
 <path d="M741 886 c-16 -19 -3 -45 25 -52 45 -12 79 21 54 51 -16 19 -64 19 -79 1z"/>
 <path d="M1132 1020 c-31 -19 -38 -30 -60 -97 -10 -32 5 -100 28 -128 6 -7 1 -16 -11 -23 -30 -19 -23 -30 19 -30 20 1 56 -3 79 -7 62 -11 109 2 154 42 38 35 39 37 39 103 0 59 -4 73 -26 100 -15 17 -39 37 -55 45 -41 22 -127 19 -167 -5z m172 -25 c73 -55 73 -156 0 -214 -19 -15 -41 -21 -76 -21 -43 0 -55 5 -83 33 -56 56 -60 156 -8 197 32 25 137 28 167 5z"/>
 <path d="M1193 893 c-18 -7 -16 -52 2 -59 27 -11 65 5 65 26 0 28 -36 46 -67 33z"/>
 </g>
<g id="layer105" fill="#dbc3be" stroke="none">
 <path d="M130 1990 c0 -32 26 -122 47 -160 30 -57 76 -82 197 -110 123 -28 316 -96 342 -121 l23 -21 9 38 c5 22 14 68 20 104 6 36 22 101 35 145 13 44 27 92 31 108 l6 27 -355 0 c-218 0 -355 -4 -355 -10z"/>
 <path d="M932 1948 c5 -29 14 -60 19 -69 6 -13 2 -21 -16 -33 -32 -21 -31 -28 6 -71 40 -46 70 -46 116 0 l36 36 -28 29 c-27 29 -28 30 -16 86 6 32 11 61 11 66 0 4 -31 8 -69 8 l-68 0 9 -52z"/>
 <path d="M1166 1973 c3 -16 19 -71 35 -124 16 -53 33 -128 39 -166 5 -39 12 -78 16 -87 6 -16 8 -15 28 3 26 25 220 93 342 121 121 28 167 53 197 110 21 38 47 128 47 160 0 6 -137 10 -355 10 l-355 0 6 -27z"/>
 <path d="M895 1618 c-16 -6 -44 -21 -62 -34 -17 -13 -36 -24 -42 -24 -6 0 -11 -12 -11 -27 0 -52 -12 -72 -66 -113 -67 -50 -99 -98 -115 -172 -11 -51 -15 -58 -36 -58 -16 0 -29 -10 -41 -31 -9 -17 -34 -54 -55 -82 -20 -28 -42 -68 -49 -88 -14 -49 -2 -144 21 -167 15 -14 19 -39 24 -127 9 -186 54 -280 180 -380 89 -71 176 -118 247 -134 103 -24 243 -5 335 43 66 36 189 132 220 172 57 75 95 211 95 343 0 55 4 71 20 86 29 26 29 166 0 210 -69 103 -108 150 -126 153 -17 2 -24 15 -33 60 -16 74 -48 122 -115 172 -57 43 -66 60 -66 125 0 29 -3 36 -11 28 -9 -9 -20 -6 -43 11 -17 13 -46 28 -65 35 -42 14 -165 13 -206 -1z m225 -113 c43 -22 169 -125 208 -169 17 -20 36 -53 41 -73 73 -283 74 -286 58 -294 -13 -8 -13 -17 -1 -72 17 -85 18 -128 5 -283 -15 -180 -30 -224 -93 -284 -28 -27 -70 -59 -93 -71 l-41 -22 -45 44 c-93 93 -220 93 -310 -1 l-47 -48 -48 28 c-76 44 -139 110 -158 166 -15 45 -40 276 -37 349 0 17 6 65 13 108 10 64 9 80 -1 87 -13 7 -10 21 60 293 12 46 50 90 144 166 79 65 105 81 150 92 45 12 159 2 195 -16z m-546 -362 c-4 -16 -17 -38 -30 -51 -13 -13 -24 -26 -24 -31 0 -4 -11 -13 -25 -19 -30 -14 -34 -55 -9 -90 8 -12 14 -28 11 -35 -6 -19 -38 39 -39 72 -1 19 10 44 28 68 16 21 29 40 29 43 1 3 9 20 18 38 22 41 50 44 41 5z m880 8 c10 -11 19 -26 20 -35 1 -8 16 -33 34 -55 18 -22 32 -52 32 -66 0 -30 -31 -96 -37 -78 -2 6 3 25 11 42 20 38 20 50 -1 73 -24 26 -29 22 -27 -19 l3 -38 -8 35 c-7 30 -9 31 -11 10 -2 -24 -2 -24 -11 4 -4 17 -6 32 -4 35 3 2 5 -1 5 -8 0 -7 4 -10 10 -6 12 7 1 35 -21 55 -19 17 -34 70 -21 70 5 0 17 -9 26 -19z m-913 -127 c-9 -28 -9 -29 -10 -3 -1 14 2 29 6 32 11 12 13 2 4 -29z m-24 -31 c-3 -10 -5 -2 -5 17 0 19 2 27 5 18 2 -10 2 -26 0 -35z m-47 -74 c7 -16 10 -32 7 -35 -10 -10 -27 7 -27 27 0 11 -5 30 -12 42 -10 19 -9 20 4 9 9 -7 21 -26 28 -43z m1080 9 c0 -30 -15 -52 -29 -44 -8 5 -6 16 6 37 21 35 23 36 23 7z m-1080 -83 c-12 -15 -30 -12 -30 5 0 8 31 19 39 13 2 -1 -2 -9 -9 -18z m1079 -2 c-10 -11 -14 -11 -20 -1 -14 21 -10 26 11 21 16 -4 18 -8 9 -20z"/>
 <path d="M860 1376 c-6 -6 -10 -22 -10 -36 0 -77 174 -134 243 -80 28 22 43 74 33 108 -6 19 -15 20 -132 18 -69 0 -129 -5 -134 -10z m204 -86 c32 -30 -60 -41 -122 -14 -37 16 -37 17 -12 25 28 9 120 1 134 -11z"/>
 <path d="M941 1186 c-26 -27 -25 -56 3 -156 l15 -55 -6 96 c-5 92 -5 97 17 112 18 13 28 14 44 5 19 -10 20 -10 7 5 -19 24 -54 21 -80 -7z"/>
 <path d="M674 1039 c-47 -24 -70 -124 -44 -194 7 -17 7 -24 0 -20 -26 16 -5 -15 39 -57 60 -58 121 -72 180 -42 20 10 46 17 59 16 22 -3 30 12 12 23 -6 4 -4 17 5 35 8 16 15 53 15 83 0 102 -74 168 -187 166 -32 0 -67 -5 -79 -10z m173 -38 c119 -55 84 -244 -48 -258 -62 -6 -103 22 -136 93 -32 70 -28 127 12 161 33 29 112 31 172 4z"/>
 <path d="M741 886 c-16 -19 -3 -45 25 -52 45 -12 79 21 54 51 -16 19 -64 19 -79 1z"/>
 <path d="M1132 1020 c-31 -19 -38 -30 -60 -97 -10 -32 5 -100 28 -128 6 -7 1 -16 -11 -23 -30 -19 -23 -30 19 -30 20 1 56 -3 79 -7 62 -11 109 2 154 42 38 35 39 37 39 103 0 59 -4 73 -26 100 -15 17 -39 37 -55 45 -41 22 -127 19 -167 -5z m171 -22 c28 -14 57 -69 57 -108 0 -41 -29 -92 -65 -116 -40 -26 -109 -23 -141 7 -57 52 -72 147 -31 194 34 40 124 52 180 23z"/>
 <path d="M1193 893 c-18 -7 -16 -52 2 -59 27 -11 65 5 65 26 0 28 -36 46 -67 33z"/>
 </g>
<g id="layer106" fill="#e4bbb3" stroke="none">
 <path d="M130 1990 c0 -32 26 -122 47 -160 30 -57 76 -82 197 -110 123 -28 316 -96 342 -121 l22 -21 11 38 c6 22 11 53 11 69 0 17 18 93 40 169 22 76 40 140 40 142 0 2 -160 4 -355 4 -218 0 -355 -4 -355 -10z"/>
 <path d="M931 1958 c4 -24 12 -55 18 -70 9 -24 7 -29 -16 -46 l-27 -20 27 -36 c46 -59 93 -58 136 3 l21 29 -26 21 c-28 22 -28 28 -8 129 l7 32 -70 0 -70 0 8 -42z"/>
 <path d="M1160 1996 c0 -2 16 -58 35 -124 19 -67 39 -152 45 -190 5 -38 12 -77 16 -86 6 -16 8 -15 28 3 26 25 220 93 342 121 121 28 167 53 197 110 21 38 47 128 47 160 0 6 -137 10 -355 10 -195 0 -355 -2 -355 -4z"/>
 <path d="M895 1618 c-30 -11 -94 -54 -106 -71 -4 -6 -10 -27 -13 -47 -5 -31 -16 -45 -61 -79 -68 -51 -99 -99 -116 -173 -11 -51 -15 -58 -36 -58 -16 0 -29 -10 -41 -31 -9 -17 -34 -54 -55 -82 -20 -28 -42 -68 -49 -88 -14 -49 -2 -144 21 -167 15 -14 19 -39 24 -127 9 -186 54 -280 180 -380 89 -71 176 -118 247 -134 103 -24 243 -5 335 43 66 36 189 132 220 172 57 75 95 211 95 343 0 55 4 71 20 86 29 26 29 166 0 210 -69 103 -108 150 -126 153 -17 2 -24 15 -33 60 -16 74 -48 122 -115 172 -55 42 -66 60 -66 118 0 21 -4 32 -13 30 -6 -2 -26 7 -42 18 -17 12 -45 26 -64 32 -42 15 -165 14 -206 0z m225 -113 c43 -22 169 -125 208 -169 17 -20 36 -53 41 -73 73 -283 74 -286 58 -294 -13 -8 -13 -17 -1 -72 17 -85 18 -128 5 -283 -15 -180 -30 -224 -93 -284 -28 -27 -70 -59 -93 -71 l-41 -22 -45 44 c-93 93 -220 93 -310 -1 l-47 -48 -48 28 c-76 44 -139 110 -158 166 -15 45 -40 276 -37 349 0 17 6 65 13 108 10 64 9 80 -1 87 -13 7 -10 21 60 293 12 46 50 90 144 166 79 65 105 81 150 92 45 12 159 2 195 -16z m-546 -362 c-4 -16 -17 -38 -30 -51 -13 -13 -24 -26 -24 -31 0 -4 -11 -13 -25 -19 -30 -14 -34 -55 -9 -90 8 -12 14 -28 11 -35 -6 -19 -38 39 -39 72 -1 19 10 44 28 68 16 21 29 40 29 43 1 3 9 20 18 38 22 41 50 44 41 5z m880 8 c10 -11 19 -26 20 -35 1 -8 16 -33 34 -55 18 -22 32 -52 32 -66 0 -30 -31 -96 -37 -78 -2 6 3 25 11 42 20 38 20 50 -1 73 -24 26 -29 22 -27 -19 l3 -38 -8 35 c-7 30 -9 31 -11 10 -2 -24 -2 -24 -11 4 -4 17 -6 32 -4 35 3 2 5 -1 5 -8 0 -7 4 -10 10 -6 12 7 1 35 -21 55 -19 17 -34 70 -21 70 5 0 17 -9 26 -19z m-913 -127 c-9 -28 -9 -29 -10 -3 -1 14 2 29 6 32 11 12 13 2 4 -29z m-24 -31 c-3 -10 -5 -2 -5 17 0 19 2 27 5 18 2 -10 2 -26 0 -35z m-47 -74 c7 -16 10 -32 7 -35 -10 -10 -27 7 -27 27 0 11 -5 30 -12 42 -10 19 -9 20 4 9 9 -7 21 -26 28 -43z m1080 9 c0 -30 -15 -52 -29 -44 -8 5 -6 16 6 37 21 35 23 36 23 7z m-1080 -83 c-12 -15 -30 -12 -30 5 0 8 31 19 39 13 2 -1 -2 -9 -9 -18z m1079 -2 c-10 -11 -14 -11 -20 -1 -14 21 -10 26 11 21 16 -4 18 -8 9 -20z"/>
 <path d="M864 1377 c-19 -11 -18 -47 2 -76 36 -50 149 -77 209 -49 45 20 74 105 43 125 -17 10 -235 10 -254 0z m200 -87 c16 -16 -10 -34 -47 -33 -18 0 -50 9 -72 18 -36 15 -38 18 -20 26 24 10 126 2 139 -11z"/>
 <path d="M941 1186 c-26 -27 -25 -56 3 -156 l15 -55 -6 96 c-5 92 -5 97 17 112 18 13 28 14 44 5 19 -10 20 -10 7 5 -19 24 -54 21 -80 -7z"/>
 <path d="M658 1021 c-31 -27 -33 -34 -33 -93 0 -35 4 -74 9 -87 6 -16 5 -21 -3 -17 -26 16 -7 -11 37 -54 61 -60 120 -73 183 -42 22 11 49 18 59 15 22 -6 26 7 10 23 -7 7 -6 20 5 40 22 42 19 112 -8 159 -30 54 -92 85 -169 85 -50 0 -62 -4 -90 -29z m189 -20 c126 -57 77 -261 -62 -261 -50 0 -94 35 -122 96 -32 70 -28 127 12 161 33 29 112 31 172 4z"/>
 <path d="M741 886 c-16 -19 -3 -45 25 -52 45 -12 79 21 54 51 -16 19 -64 19 -79 1z"/>
 <path d="M1135 1022 c-30 -19 -43 -39 -63 -100 -9 -29 -7 -42 12 -86 23 -51 23 -53 5 -64 -30 -19 -22 -29 24 -30 23 -1 65 -4 93 -7 57 -7 98 7 147 53 24 23 27 33 27 86 0 75 -23 117 -79 146 -51 25 -125 26 -166 2z m167 -23 c29 -15 58 -70 58 -107 0 -55 -27 -99 -75 -122 -96 -47 -185 20 -185 139 0 48 37 97 78 104 36 6 100 -1 124 -14z"/>
 <path d="M1193 893 c-18 -7 -16 -52 2 -59 27 -11 65 5 65 26 0 28 -36 46 -67 33z"/>
 </g>
<g id="layer107" fill="#dab0a7" stroke="none">
 <path d="M130 1990 c0 -32 26 -122 47 -160 30 -57 76 -82 197 -110 123 -28 316 -96 342 -121 l22 -21 11 38 c6 22 11 53 11 69 0 17 18 93 40 169 22 76 40 140 40 142 0 2 -160 4 -355 4 -218 0 -355 -4 -355 -10z"/>
 <path d="M931 1958 c4 -24 12 -55 18 -70 9 -24 7 -29 -16 -46 l-27 -20 27 -36 c46 -59 93 -58 136 3 l21 29 -26 21 c-28 22 -28 28 -8 129 l7 32 -70 0 -70 0 8 -42z"/>
 <path d="M1160 1996 c0 -2 16 -58 35 -124 19 -67 39 -152 45 -190 5 -38 12 -77 16 -86 6 -16 8 -15 28 3 26 25 220 93 342 121 121 28 167 53 197 110 21 38 47 128 47 160 0 6 -137 10 -355 10 -195 0 -355 -2 -355 -4z"/>
 <path d="M922 1619 c-42 -8 -99 -37 -126 -64 -7 -8 -16 -31 -20 -53 -5 -33 -15 -46 -61 -81 -68 -51 -99 -99 -116 -173 -11 -51 -15 -58 -36 -58 -16 0 -29 -10 -41 -31 -9 -17 -34 -54 -55 -82 -20 -28 -42 -68 -49 -88 -14 -49 -2 -144 21 -167 15 -14 19 -39 24 -127 8 -164 54 -279 141 -349 23 -20 45 -36 48 -36 3 0 20 -13 37 -29 38 -36 139 -86 201 -100 134 -31 311 9 415 93 48 39 23 40 -35 1 -62 -42 -74 -43 -96 -10 -22 34 -89 72 -142 81 -67 11 -129 -12 -183 -67 l-46 -47 -53 30 c-29 17 -74 51 -100 77 -56 56 -66 88 -81 268 -13 147 -13 206 1 266 14 63 13 97 -5 97 -19 0 -19 1 10 101 13 47 32 117 40 155 9 38 27 85 39 104 29 44 202 177 247 191 46 13 145 14 194 0 53 -14 235 -158 257 -202 14 -28 98 -323 98 -343 0 -3 -7 -6 -15 -6 -17 0 -19 -34 -5 -95 13 -58 13 -114 1 -263 -13 -162 -24 -206 -62 -254 -16 -20 -25 -39 -20 -43 17 -10 111 93 137 149 31 67 54 186 54 275 0 55 4 71 20 86 17 15 20 31 20 100 0 72 -3 86 -25 116 -14 19 -37 53 -52 77 -28 42 -51 58 -38 25 4 -10 8 -23 9 -29 1 -6 16 -28 34 -50 18 -21 32 -44 32 -51 0 -7 5 -13 10 -13 6 0 10 -5 10 -11 0 -5 -4 -7 -10 -4 -5 3 -10 2 -10 -4 0 -5 -3 -18 -7 -28 -7 -17 -6 -17 11 0 22 21 31 16 17 -10 -5 -10 -14 -32 -20 -50 -7 -25 -7 -32 4 -35 10 -2 12 -8 5 -18 -10 -17 -22 -8 -25 18 -1 9 -8 29 -14 43 -11 22 -10 31 3 57 23 45 21 52 -29 98 -57 53 -83 114 -50 114 8 0 15 5 15 10 0 6 -8 10 -18 10 -15 0 -22 13 -31 58 -16 74 -48 122 -115 172 -55 42 -66 60 -66 118 0 19 -4 31 -10 27 -5 -3 -26 6 -47 19 -60 40 -151 53 -241 35z m-346 -471 c-3 -13 -13 -51 -22 -85 -9 -35 -20 -61 -24 -58 -5 3 -6 -5 -3 -17 4 -22 4 -22 -10 -5 -8 10 -12 27 -10 38 5 16 8 18 15 7 8 -10 9 -10 5 2 -2 8 2 21 10 28 15 16 17 32 3 32 -5 0 -10 -6 -10 -13 0 -7 -13 -23 -30 -35 -35 -26 -36 -38 -13 -87 15 -31 15 -37 3 -45 -8 -6 -11 -10 -7 -10 5 0 5 -6 1 -12 -5 -7 -9 -21 -9 -30 -2 -23 -11 -32 -24 -23 -16 9 -13 25 3 25 13 0 13 5 0 38 -8 20 -19 45 -24 54 -6 11 -6 19 0 23 5 3 16 -8 25 -25 21 -41 27 -38 9 5 -7 19 -14 38 -14 43 0 17 67 111 75 104 5 -4 5 -2 1 5 -9 16 22 63 41 63 11 0 14 -6 9 -22z m900 -106 c5 1 10 -12 12 -29 2 -20 -1 -33 -8 -33 -7 0 -9 7 -6 16 3 8 2 12 -4 9 -6 -3 -10 -3 -10 2 0 4 -3 19 -6 33 -4 17 -3 21 4 12 5 -8 13 -12 18 -10z"/>
 <path d="M864 1377 c-19 -11 -18 -47 2 -76 36 -50 149 -77 209 -49 45 20 74 105 43 125 -17 10 -235 10 -254 0z m200 -87 c16 -16 -10 -34 -47 -33 -18 0 -50 9 -72 18 -36 15 -38 18 -20 26 24 10 126 2 139 -11z"/>
 <path d="M946 1189 c-31 -25 -33 -52 -6 -134 21 -66 25 -56 10 23 -6 34 -6 61 1 81 11 31 40 48 60 35 8 -4 9 -3 5 4 -11 18 -40 14 -70 -9z"/>
 <path d="M658 1021 c-31 -27 -33 -34 -33 -93 0 -35 4 -74 9 -87 6 -16 5 -21 -3 -17 -22 14 -10 -2 37 -51 39 -42 55 -51 95 -57 38 -6 57 -3 88 12 22 11 49 18 59 15 22 -6 26 7 10 23 -7 7 -6 20 5 40 22 42 19 112 -8 159 -30 54 -92 85 -169 85 -50 0 -62 -4 -90 -29z m189 -20 c126 -57 77 -261 -62 -261 -50 0 -94 35 -122 96 -32 70 -28 127 12 161 33 29 112 31 172 4z"/>
 <path d="M741 886 c-16 -19 -3 -45 25 -52 45 -12 79 21 54 51 -16 19 -64 19 -79 1z"/>
 <path d="M1139 1025 c-43 -23 -59 -58 -59 -125 0 -34 6 -73 14 -89 13 -25 13 -28 -5 -39 -30 -19 -22 -29 24 -30 23 0 61 -4 84 -7 52 -9 104 8 149 47 32 28 34 34 34 92 0 75 -23 117 -79 146 -47 23 -123 26 -162 5z m163 -26 c29 -15 58 -70 58 -107 0 -55 -27 -99 -75 -122 -96 -47 -185 20 -185 139 0 48 37 97 78 104 36 6 100 -1 124 -14z"/>
 <path d="M1193 893 c-18 -7 -16 -52 2 -59 27 -11 65 5 65 26 0 28 -36 46 -67 33z"/>
 </g>
<g id="layer108" fill="#d4ad8e" stroke="none">
 <path d="M130 1990 c0 -32 26 -122 47 -160 30 -57 76 -82 197 -110 123 -28 316 -96 342 -121 l22 -21 11 38 c6 22 11 53 11 69 0 17 18 93 40 169 22 76 40 140 40 142 0 2 -160 4 -355 4 -218 0 -355 -4 -355 -10z"/>
 <path d="M931 1958 c4 -24 12 -55 18 -70 9 -24 7 -29 -16 -46 l-27 -20 27 -36 c46 -59 93 -58 136 3 l21 29 -26 21 c-28 22 -28 28 -8 129 l7 32 -70 0 -70 0 8 -42z"/>
 <path d="M1160 1996 c0 -2 16 -58 35 -124 19 -67 39 -152 45 -190 5 -38 12 -77 16 -86 6 -16 8 -15 28 3 26 25 220 93 342 121 121 28 167 53 197 110 21 38 47 128 47 160 0 6 -137 10 -355 10 -195 0 -355 -2 -355 -4z"/>
 <path d="M804 1562 c-7 -4 -17 -27 -24 -52 -7 -28 -25 -57 -46 -76 -19 -18 -34 -29 -34 -26 0 11 -51 -43 -70 -73 -10 -16 -24 -56 -31 -87 -10 -49 -15 -58 -34 -58 -13 0 -28 -7 -35 -15 -7 -8 -9 -15 -6 -15 4 0 2 -6 -4 -12 -42 -50 -92 -128 -102 -159 -14 -49 -2 -144 21 -167 15 -14 19 -39 24 -127 8 -164 54 -279 141 -349 54 -45 81 -47 38 -3 -44 45 -60 99 -72 245 -6 70 -13 141 -16 157 -3 17 2 64 10 105 20 96 20 120 0 120 -19 0 -20 -7 30 185 20 77 45 153 54 170 23 38 173 161 232 188 33 15 65 21 120 21 94 0 136 -18 249 -111 76 -61 149 -152 134 -166 -2 -3 11 -64 31 -137 41 -150 41 -150 21 -150 -19 0 -19 -26 1 -120 8 -41 13 -88 9 -105 -3 -16 -10 -87 -15 -156 -11 -139 -28 -200 -66 -240 -15 -16 -21 -29 -16 -33 18 -11 112 91 138 148 31 67 54 186 54 275 0 55 4 71 20 86 15 14 20 31 20 74 0 61 -14 60 -36 -4 -10 -29 -9 -35 2 -35 17 0 19 -16 3 -25 -13 -9 -22 0 -24 23 -1 9 -7 27 -14 40 -10 19 -9 31 5 67 18 49 13 65 -30 87 -17 9 -19 8 -8 -3 14 -15 16 -65 3 -74 -10 -6 -10 -5 -41 105 -24 89 -24 90 -5 90 8 0 15 5 15 10 0 6 -8 10 -19 10 -14 0 -21 13 -31 62 -8 34 -22 70 -32 80 -10 10 -15 18 -11 18 4 0 -6 13 -22 30 -16 16 -30 28 -32 26 -2 -2 -20 12 -39 30 -29 26 -37 42 -44 86 -4 29 -8 46 -9 39 -1 -12 -4 -12 -13 -3 -13 13 -374 17 -394 4z m-224 -400 c0 -6 -31 -124 -46 -174 -3 -9 -10 -18 -18 -21 -9 -4 -12 7 -10 40 3 44 3 45 -16 28 -24 -22 -25 -37 -4 -77 13 -26 14 -35 3 -57 -6 -14 -13 -34 -14 -43 -2 -23 -11 -32 -24 -23 -15 9 -14 23 3 27 12 2 10 13 -10 53 -24 49 -25 83 -3 69 8 -4 9 -3 5 4 -4 7 11 38 32 69 22 32 47 70 56 86 15 25 46 38 46 19z"/>
 <path d="M866 1375 c-51 -52 40 -135 148 -135 56 0 102 35 112 86 10 54 -8 68 -76 59 -76 -9 -80 -9 -126 -1 -32 6 -45 4 -58 -9z m198 -85 c16 -16 -10 -34 -47 -33 -18 0 -50 9 -72 18 -36 15 -38 18 -20 26 24 10 126 2 139 -11z"/>
 <path d="M946 1185 c-30 -28 -30 -25 -12 -90 l14 -50 -3 67 c-3 65 -2 67 25 78 16 7 34 9 41 4 8 -4 10 -3 5 4 -12 19 -41 14 -70 -13z"/>
 <path d="M1460 1152 c0 -4 8 -18 17 -31 12 -18 13 -22 2 -17 -11 6 -10 4 1 -6 35 -31 70 -81 63 -91 -4 -7 1 -6 10 2 18 14 12 36 -18 61 -8 7 -25 30 -37 51 -20 36 -38 50 -38 31z"/>
 <path d="M683 1040 c-13 -5 -32 -24 -44 -42 -17 -28 -19 -43 -14 -93 4 -33 7 -69 8 -79 2 -30 70 -93 113 -105 53 -15 64 -14 105 8 22 12 46 17 59 14 20 -5 21 -4 11 15 -9 17 -8 28 4 51 39 75 -1 186 -78 222 -44 20 -126 24 -164 9z m164 -39 c126 -57 77 -261 -62 -261 -50 0 -94 35 -122 96 -32 70 -28 127 12 161 33 29 112 31 172 4z"/>
 <path d="M741 886 c-16 -19 -3 -45 25 -52 45 -12 79 21 54 51 -16 19 -64 19 -79 1z"/>
 <path d="M1148 1029 c-60 -23 -90 -142 -53 -213 14 -27 14 -30 -6 -50 -25 -22 -12 -33 20 -16 15 8 27 8 42 0 58 -31 140 -16 195 35 31 30 34 37 34 91 0 70 -20 107 -77 141 -41 25 -106 29 -155 12z m154 -30 c29 -15 58 -70 58 -107 0 -55 -27 -99 -75 -122 -96 -47 -185 20 -185 139 0 48 37 97 78 104 36 6 100 -1 124 -14z"/>
 <path d="M1193 893 c-18 -7 -16 -52 2 -59 27 -11 65 5 65 26 0 28 -36 46 -67 33z"/>
 <path d="M1563 994 c-3 -8 -1 -20 6 -27 8 -8 11 -4 11 16 0 30 -7 35 -17 11z"/>
 <path d="M939 336 c-38 -13 -99 -53 -99 -64 0 -4 -7 -15 -14 -25 -14 -17 -16 -17 -64 7 -28 14 -53 30 -57 36 -8 13 -25 13 -25 -1 0 -6 9 -13 20 -16 11 -3 20 -9 20 -13 0 -12 119 -68 170 -79 59 -14 146 -14 212 0 59 12 178 66 178 80 0 5 6 9 14 9 17 0 31 18 22 27 -3 4 -14 -1 -23 -9 -10 -9 -35 -24 -57 -35 l-39 -20 -40 44 c-28 30 -54 47 -90 58 -61 18 -81 18 -128 1z"/>
 </g>
<g id="layer109" fill="#d2998f" stroke="none">
 <path d="M130 1990 c0 -32 26 -122 47 -160 30 -57 76 -82 197 -110 123 -28 316 -96 342 -121 l22 -21 11 38 c6 22 11 53 11 69 0 17 18 93 40 169 22 76 40 140 40 142 0 2 -160 4 -355 4 -218 0 -355 -4 -355 -10z"/>
 <path d="M931 1958 c4 -24 12 -55 18 -70 9 -24 7 -29 -16 -46 l-27 -20 27 -36 c46 -59 93 -58 136 3 l21 29 -26 21 c-28 22 -28 28 -8 129 l7 32 -70 0 -70 0 8 -42z"/>
 <path d="M1160 1996 c0 -2 16 -58 35 -124 19 -67 39 -152 45 -190 5 -38 12 -77 16 -86 6 -16 8 -15 28 3 26 25 220 93 342 121 121 28 167 53 197 110 21 38 47 128 47 160 0 6 -137 10 -355 10 -195 0 -355 -2 -355 -4z"/>
 <path d="M1211 1565 c-1 -6 -78 -10 -208 -10 l-208 0 -15 -46 c-8 -26 -30 -60 -47 -77 -18 -16 -33 -27 -33 -24 0 11 -51 -43 -70 -73 -10 -16 -24 -56 -31 -87 -10 -49 -15 -58 -34 -58 -24 0 -49 -22 -38 -33 3 -4 1 -7 -5 -7 -6 0 -14 -9 -17 -20 -4 -11 -18 -33 -32 -48 -37 -39 -63 -100 -63 -151 0 -37 2 -42 15 -31 13 10 15 9 15 -9 0 -12 -4 -19 -10 -16 -18 11 -10 -34 9 -52 15 -15 19 -38 24 -128 8 -164 54 -279 141 -349 57 -47 80 -46 34 2 -42 43 -68 119 -68 200 0 29 -5 95 -11 145 -9 76 -8 105 5 167 20 94 20 110 0 110 -19 0 -20 -7 30 185 20 77 45 153 54 170 23 38 173 161 232 188 33 15 65 21 120 21 94 0 136 -18 249 -111 76 -61 149 -152 134 -166 -2 -3 11 -64 31 -137 41 -150 41 -150 21 -150 -19 0 -19 -19 1 -114 13 -63 14 -92 5 -164 -6 -48 -11 -112 -11 -143 0 -74 -24 -152 -61 -193 -16 -19 -25 -37 -20 -40 17 -11 111 91 137 148 31 67 54 186 54 275 0 55 4 71 20 86 21 19 30 92 10 80 -5 -3 -10 2 -11 12 0 10 -6 2 -12 -17 -10 -28 -10 -36 1 -38 15 -4 11 -24 -6 -30 -7 -2 -14 2 -16 10 -2 7 -9 30 -15 51 -11 32 -10 44 4 73 15 32 15 37 1 60 -21 31 -35 31 -28 -1 5 -26 -5 -62 -14 -52 -5 5 -54 176 -54 189 0 5 7 8 15 8 8 0 15 5 15 10 0 6 -8 10 -19 10 -14 0 -21 13 -31 62 -8 34 -22 70 -32 80 -10 10 -15 18 -11 18 4 0 -6 13 -22 30 -16 16 -30 28 -32 26 -2 -2 -20 12 -39 30 -29 26 -37 42 -44 86 -4 29 -8 49 -9 43z m-631 -403 c0 -6 -31 -124 -46 -174 -3 -9 -10 -18 -18 -21 -9 -4 -12 7 -10 40 3 44 3 45 -16 28 -24 -22 -25 -37 -5 -75 14 -27 14 -35 -1 -80 -9 -28 -21 -49 -27 -47 -17 5 -19 25 -3 29 12 2 11 12 -10 53 -24 49 -25 83 -3 69 8 -4 9 -3 5 4 -4 7 6 31 22 55 17 23 42 61 56 85 23 36 56 57 56 34z"/>
 <path d="M866 1375 c-51 -52 40 -135 148 -135 56 0 102 35 112 86 10 54 -8 68 -76 59 -76 -9 -80 -9 -126 -1 -32 6 -45 4 -58 -9z m198 -85 c16 -16 -10 -34 -47 -33 -18 0 -50 9 -72 18 -36 15 -38 18 -20 26 24 10 126 2 139 -11z"/>
 <path d="M958 1195 c-35 -20 -40 -40 -24 -100 l13 -50 -2 65 c-3 63 -2 65 29 82 17 9 27 17 21 17 -5 0 -22 -6 -37 -14z"/>
 <path d="M1464 1144 c13 -33 89 -133 97 -128 11 7 -5 39 -29 56 -9 7 -26 30 -36 51 -19 36 -44 53 -32 21z"/>
 <path d="M683 1040 c-42 -17 -65 -68 -60 -132 13 -149 122 -234 229 -178 22 11 47 19 55 16 10 -4 13 -1 8 14 -3 10 1 33 9 49 40 75 1 186 -77 222 -44 20 -126 24 -164 9z m164 -39 c126 -57 77 -261 -62 -261 -50 0 -94 35 -122 96 -32 70 -28 127 12 161 33 29 112 31 172 4z"/>
 <path d="M741 886 c-16 -19 -3 -45 25 -52 45 -12 79 21 54 51 -16 19 -64 19 -79 1z"/>
 <path d="M1148 1029 c-60 -23 -90 -142 -53 -213 14 -26 14 -31 0 -46 -21 -24 -19 -33 6 -19 16 8 28 8 48 -1 66 -31 141 -17 197 35 31 30 34 37 34 91 0 70 -20 107 -77 141 -41 25 -106 29 -155 12z m154 -30 c29 -15 58 -70 58 -107 0 -55 -27 -99 -75 -122 -96 -47 -185 20 -185 139 0 48 37 97 78 104 36 6 100 -1 124 -14z"/>
 <path d="M1193 893 c-18 -7 -16 -52 2 -59 27 -11 65 5 65 26 0 28 -36 46 -67 33z"/>
 <path d="M1564 999 c-3 -6 -1 -16 5 -22 8 -8 11 -5 11 11 0 24 -5 28 -16 11z"/>
 <path d="M680 290 c0 -6 8 -14 18 -17 9 -4 25 -15 36 -24 23 -22 76 -42 76 -29 0 5 -22 21 -49 35 -27 13 -52 29 -56 35 -8 13 -25 13 -25 0z"/>
 <path d="M1291 287 c-6 -8 -28 -22 -49 -31 -21 -9 -43 -26 -50 -36 -10 -16 -4 -15 38 7 28 14 50 29 50 33 0 4 9 10 20 13 11 3 20 10 20 16 0 15 -15 14 -29 -2z"/>
 </g>
<g id="layer110" fill="#5bbbd5" stroke="none">
 <path d="M130 1990 c0 -32 26 -122 47 -160 30 -57 76 -82 197 -110 123 -28 316 -96 342 -121 l22 -21 11 38 c6 22 11 53 11 69 0 17 18 93 40 169 22 76 40 140 40 142 0 2 -160 4 -355 4 -218 0 -355 -4 -355 -10z"/>
 <path d="M931 1958 c4 -24 12 -55 18 -70 9 -24 7 -29 -16 -46 l-27 -20 27 -36 c46 -59 93 -58 136 3 l21 29 -26 21 c-28 22 -28 28 -8 129 l7 32 -70 0 -70 0 8 -42z"/>
 <path d="M1160 1996 c0 -2 16 -58 35 -124 19 -67 39 -152 45 -190 5 -38 12 -77 16 -86 6 -16 8 -15 28 3 26 25 220 93 342 121 121 28 167 53 197 110 21 38 47 128 47 160 0 6 -137 10 -355 10 -195 0 -355 -2 -355 -4z"/>
 <path d="M887 1535 c-20 -8 -47 -21 -59 -30 -29 -20 -38 -19 -39 3 -1 9 -6 2 -12 -16 -5 -18 -7 -35 -4 -38 3 -3 23 8 45 26 22 17 66 40 98 50 34 11 48 19 34 19 -14 0 -42 -7 -63 -14z"/>
 <path d="M1084 1530 c32 -10 76 -32 97 -49 45 -37 49 -37 49 -10 0 12 -5 19 -12 16 -7 -2 -25 4 -40 15 -33 23 -103 48 -132 47 -11 0 5 -9 38 -19z"/>
 <path d="M668 1382 c-32 -34 -66 -86 -52 -81 20 8 95 97 86 103 -5 3 -20 -7 -34 -22z"/>
 <path d="M1296 1402 c-3 -5 8 -21 23 -36 16 -15 31 -23 35 -18 3 5 -8 21 -23 36 -16 15 -31 23 -35 18z"/>
 <path d="M866 1375 c-51 -52 40 -135 148 -135 56 0 102 35 112 86 10 54 -8 68 -76 59 -76 -9 -80 -9 -126 -1 -32 6 -45 4 -58 -9z m198 -85 c16 -16 -10 -34 -47 -33 -18 0 -50 9 -72 18 -36 15 -38 18 -20 26 24 10 126 2 139 -11z"/>
 <path d="M1362 1318 c2 -6 10 -14 16 -16 7 -2 10 2 6 12 -7 18 -28 22 -22 4z"/>
 <path d="M590 1218 c0 -9 -3 -23 -6 -32 -3 -9 -2 -16 4 -16 14 0 23 43 12 54 -7 7 -10 4 -10 -6z"/>
 <path d="M1394 1219 c-3 -6 -1 -16 5 -22 8 -8 11 -5 11 11 0 24 -5 28 -16 11z"/>
 <path d="M530 1175 c-7 -8 -9 -15 -4 -15 5 0 3 -4 -5 -9 -7 -5 -12 -14 -10 -20 3 -7 14 1 27 18 22 30 15 54 -8 26z"/>
 <path d="M571 1114 c-6 -21 -9 -40 -6 -42 2 -2 8 13 14 34 6 21 9 40 6 42 -2 2 -8 -13 -14 -34z"/>
 <path d="M1416 1125 c4 -16 11 -37 15 -45 6 -10 7 -4 3 15 -4 17 -11 37 -15 45 -6 10 -7 4 -3 -15z"/>
 <path d="M475 1091 c-6 -11 9 -23 19 -14 9 9 7 23 -3 23 -6 0 -12 -4 -16 -9z"/>
 <path d="M1532 1051 c4 -13 18 -16 19 -4 0 4 -5 9 -11 12 -7 2 -11 -2 -8 -8z"/>
 <path d="M425 1007 c-9 -25 -15 -61 -12 -83 l4 -39 1 42 c1 24 11 57 22 75 22 36 25 48 11 48 -5 0 -17 -19 -26 -43z"/>
 <path d="M683 1040 c-42 -17 -65 -68 -60 -132 13 -149 122 -234 229 -178 22 11 47 19 55 16 10 -4 13 -1 8 14 -3 10 1 33 9 49 40 75 1 186 -77 222 -44 20 -126 24 -164 9z m164 -39 c126 -57 77 -261 -62 -261 -50 0 -94 35 -122 96 -32 70 -28 127 12 161 33 29 112 31 172 4z"/>
 <path d="M741 886 c-16 -19 -3 -45 25 -52 45 -12 79 21 54 51 -16 19 -64 19 -79 1z"/>
 <path d="M482 1020 c-10 -17 -10 -27 4 -55 15 -32 15 -38 -1 -85 -17 -52 -23 -58 -43 -38 -9 9 -12 8 -12 -4 0 -9 6 -18 14 -21 9 -4 15 -36 19 -119 8 -167 53 -281 141 -352 57 -47 80 -46 34 1 -42 44 -68 120 -68 201 0 29 -5 95 -11 145 -9 76 -8 105 5 167 21 99 21 107 -9 112 -14 3 -25 2 -25 -2 0 -4 -7 -7 -15 -7 -8 0 -12 4 -9 9 3 5 0 15 -6 23 -10 12 -10 18 0 30 7 8 8 15 4 15 -5 0 -15 -9 -22 -20z"/>
 <path d="M1148 1029 c-60 -23 -90 -142 -53 -213 14 -26 14 -31 0 -46 -21 -24 -19 -33 6 -19 16 8 28 8 48 -1 66 -31 141 -17 197 35 31 30 34 37 34 91 0 70 -20 107 -77 141 -41 25 -106 29 -155 12z m154 -30 c29 -15 58 -70 58 -107 0 -55 -27 -99 -75 -122 -96 -47 -185 20 -185 139 0 48 37 97 78 104 36 6 100 -1 124 -14z"/>
 <path d="M1193 893 c-18 -7 -16 -52 2 -59 27 -11 65 5 65 26 0 28 -36 46 -67 33z"/>
 <path d="M1492 1029 c2 -7 10 -15 17 -17 8 -3 12 1 9 9 -2 7 -10 15 -17 17 -8 3 -12 -1 -9 -9z"/>
 <path d="M1443 972 c-28 -4 -28 -15 -7 -116 13 -63 14 -92 5 -164 -6 -48 -11 -112 -11 -143 0 -74 -24 -152 -61 -193 -16 -19 -25 -37 -20 -40 17 -11 111 91 137 148 31 67 54 186 54 275 0 55 4 71 20 86 20 18 29 62 10 50 -5 -3 -10 -1 -10 6 0 10 -3 10 -12 1 -10 -10 -10 -15 1 -21 15 -10 5 -34 -11 -29 -12 4 -39 74 -41 106 -2 27 -22 40 -54 34z"/>
 <path d="M690 280 c0 -5 7 -10 15 -10 8 0 15 -4 15 -10 0 -5 8 -10 18 -10 14 0 12 4 -8 20 -28 22 -40 25 -40 10z"/>
 <path d="M1270 270 c-20 -16 -22 -20 -7 -20 9 0 17 5 17 10 0 6 7 10 15 10 8 0 15 5 15 10 0 15 -12 12 -40 -10z"/>
 </g>
<g id="layer111" fill="#caa478" stroke="none">
 <path d="M130 1990 c0 -32 26 -122 47 -160 30 -57 76 -82 197 -110 123 -28 316 -96 342 -121 l22 -21 11 38 c6 22 11 53 11 69 0 17 18 93 40 169 22 76 40 140 40 142 0 2 -160 4 -355 4 -218 0 -355 -4 -355 -10z"/>
 <path d="M931 1958 c4 -24 12 -55 18 -70 9 -24 7 -29 -16 -46 l-27 -20 27 -36 c46 -59 93 -58 136 3 l21 29 -26 21 c-28 22 -28 28 -8 129 l7 32 -70 0 -70 0 8 -42z"/>
 <path d="M1160 1996 c0 -2 16 -58 35 -124 19 -67 39 -152 45 -190 5 -38 12 -77 16 -86 6 -16 8 -15 28 3 26 25 220 93 342 121 121 28 167 53 197 110 21 38 47 128 47 160 0 6 -137 10 -355 10 -195 0 -355 -2 -355 -4z"/>
 <path d="M887 1535 c-20 -8 -47 -21 -59 -30 -29 -20 -38 -19 -39 3 -1 9 -6 2 -12 -16 -5 -18 -7 -35 -4 -38 3 -3 23 8 45 26 22 17 66 40 98 50 34 11 48 19 34 19 -14 0 -42 -7 -63 -14z"/>
 <path d="M1084 1530 c32 -10 76 -32 97 -49 45 -37 49 -37 49 -10 0 12 -5 19 -12 16 -7 -2 -25 4 -40 15 -33 23 -103 48 -132 47 -11 0 5 -9 38 -19z"/>
 <path d="M668 1382 c-32 -34 -66 -86 -52 -81 20 8 95 97 86 103 -5 3 -20 -7 -34 -22z"/>
 <path d="M1296 1402 c-3 -5 8 -21 23 -36 16 -15 31 -23 35 -18 3 5 -8 21 -23 36 -16 15 -31 23 -35 18z"/>
 <path d="M866 1375 c-51 -52 40 -135 148 -135 56 0 102 35 112 86 10 54 -8 68 -76 59 -76 -9 -80 -9 -126 -1 -32 6 -45 4 -58 -9z m198 -85 c16 -16 -10 -34 -47 -33 -18 0 -50 9 -72 18 -36 15 -38 18 -20 26 24 10 126 2 139 -11z"/>
 <path d="M1362 1318 c2 -6 10 -14 16 -16 7 -2 10 2 6 12 -7 18 -28 22 -22 4z"/>
 <path d="M590 1218 c0 -9 -3 -23 -6 -32 -3 -9 -2 -16 4 -16 14 0 23 43 12 54 -7 7 -10 4 -10 -6z"/>
 <path d="M1394 1219 c-3 -6 -1 -16 5 -22 8 -8 11 -5 11 11 0 24 -5 28 -16 11z"/>
 <path d="M530 1175 c-7 -8 -9 -15 -4 -15 5 0 3 -4 -5 -9 -7 -5 -12 -14 -10 -20 3 -7 14 1 27 18 22 30 15 54 -8 26z"/>
 <path d="M571 1114 c-6 -21 -9 -40 -6 -42 2 -2 8 13 14 34 6 21 9 40 6 42 -2 2 -8 -13 -14 -34z"/>
 <path d="M1416 1125 c4 -16 11 -37 15 -45 6 -10 7 -4 3 15 -4 17 -11 37 -15 45 -6 10 -7 4 -3 -15z"/>
 <path d="M475 1091 c-6 -11 9 -23 19 -14 9 9 7 23 -3 23 -6 0 -12 -4 -16 -9z"/>
 <path d="M1532 1051 c4 -13 18 -16 19 -4 0 4 -5 9 -11 12 -7 2 -11 -2 -8 -8z"/>
 <path d="M425 1007 c-9 -25 -15 -61 -12 -83 l4 -39 1 42 c1 24 11 57 22 75 22 36 25 48 11 48 -5 0 -17 -19 -26 -43z"/>
 <path d="M683 1040 c-42 -17 -65 -68 -60 -132 13 -149 122 -234 229 -178 22 11 47 19 55 16 10 -4 13 -1 8 14 -3 10 1 33 9 49 40 75 1 186 -77 222 -44 20 -126 24 -164 9z m164 -39 c126 -57 77 -261 -62 -261 -50 0 -94 35 -122 96 -32 70 -28 127 12 161 33 29 112 31 172 4z"/>
 <path d="M482 1020 c-10 -17 -10 -27 4 -55 15 -32 15 -38 -1 -85 -17 -52 -23 -58 -43 -38 -9 9 -12 8 -12 -4 0 -9 6 -18 14 -21 9 -4 15 -36 19 -119 8 -167 53 -281 141 -352 57 -47 80 -46 34 1 -42 44 -68 120 -68 201 0 29 -5 95 -11 145 -9 76 -8 105 5 167 21 99 21 107 -9 112 -14 3 -25 2 -25 -2 0 -4 -7 -7 -15 -7 -8 0 -12 4 -9 9 3 5 0 15 -6 23 -10 12 -10 18 0 30 7 8 8 15 4 15 -5 0 -15 -9 -22 -20z"/>
 <path d="M1148 1029 c-60 -23 -90 -142 -53 -213 14 -26 14 -31 0 -46 -21 -24 -19 -33 6 -19 16 8 28 8 48 -1 66 -31 141 -17 197 35 31 30 34 37 34 91 0 70 -20 107 -77 141 -41 25 -106 29 -155 12z m154 -30 c29 -15 58 -70 58 -107 0 -55 -27 -99 -75 -122 -96 -47 -185 20 -185 139 0 48 37 97 78 104 36 6 100 -1 124 -14z"/>
 <path d="M1492 1029 c2 -7 10 -15 17 -17 8 -3 12 1 9 9 -2 7 -10 15 -17 17 -8 3 -12 -1 -9 -9z"/>
 <path d="M1443 972 c-28 -4 -28 -15 -7 -116 13 -63 14 -92 5 -164 -6 -48 -11 -112 -11 -143 0 -74 -24 -152 -61 -193 -16 -19 -25 -37 -20 -40 17 -11 111 91 137 148 31 67 54 186 54 275 0 55 4 71 20 86 20 18 29 62 10 50 -5 -3 -10 -1 -10 6 0 10 -3 10 -12 1 -10 -10 -10 -15 1 -21 15 -10 5 -34 -11 -29 -12 4 -39 74 -41 106 -2 27 -22 40 -54 34z"/>
 <path d="M690 280 c0 -5 7 -10 15 -10 8 0 15 -4 15 -10 0 -5 8 -10 18 -10 14 0 12 4 -8 20 -28 22 -40 25 -40 10z"/>
 <path d="M1270 270 c-20 -16 -22 -20 -7 -20 9 0 17 5 17 10 0 6 7 10 15 10 8 0 15 5 15 10 0 15 -12 12 -40 -10z"/>
 </g>
<g id="layer112" fill="#a7a09f" stroke="none">
 <path d="M130 1990 c0 -32 26 -122 47 -160 30 -57 76 -82 197 -110 123 -28 316 -96 342 -121 l22 -21 11 38 c6 22 11 53 11 69 0 17 18 93 40 169 22 76 40 140 40 142 0 2 -160 4 -355 4 -218 0 -355 -4 -355 -10z"/>
 <path d="M931 1958 c4 -24 12 -55 18 -70 9 -24 7 -29 -16 -46 l-27 -20 27 -36 c46 -59 93 -58 136 3 l21 29 -26 21 c-28 22 -28 28 -8 129 l7 32 -70 0 -70 0 8 -42z"/>
 <path d="M1160 1996 c0 -2 16 -58 35 -124 19 -67 39 -152 45 -190 5 -38 12 -77 16 -86 6 -16 8 -15 28 3 26 25 220 93 342 121 121 28 167 53 197 110 21 38 47 128 47 160 0 6 -137 10 -355 10 -195 0 -355 -2 -355 -4z"/>
 <path d="M887 1535 c-20 -8 -47 -21 -59 -30 -29 -20 -38 -19 -39 3 -1 9 -6 2 -12 -16 -5 -18 -7 -35 -4 -38 3 -3 23 8 45 26 22 17 66 40 98 50 34 11 48 19 34 19 -14 0 -42 -7 -63 -14z"/>
 <path d="M1084 1530 c32 -10 76 -32 97 -49 45 -37 49 -37 49 -10 0 12 -5 19 -12 16 -7 -2 -25 4 -40 15 -33 23 -103 48 -132 47 -11 0 5 -9 38 -19z"/>
 <path d="M668 1382 c-32 -34 -66 -86 -52 -81 20 8 95 97 86 103 -5 3 -20 -7 -34 -22z"/>
 <path d="M1296 1402 c-3 -5 8 -21 23 -36 16 -15 31 -23 35 -18 3 5 -8 21 -23 36 -16 15 -31 23 -35 18z"/>
 <path d="M866 1375 c-51 -52 40 -135 148 -135 56 0 102 35 112 86 10 54 -8 68 -76 59 -76 -9 -80 -9 -126 -1 -32 6 -45 4 -58 -9z m198 -85 c16 -16 -10 -34 -47 -33 -18 0 -50 9 -72 18 -36 15 -38 18 -20 26 24 10 126 2 139 -11z"/>
 <path d="M1362 1318 c2 -6 10 -14 16 -16 7 -2 10 2 6 12 -7 18 -28 22 -22 4z"/>
 <path d="M590 1218 c0 -9 -3 -23 -6 -32 -3 -9 -2 -16 4 -16 14 0 23 43 12 54 -7 7 -10 4 -10 -6z"/>
 <path d="M1394 1219 c-3 -6 -1 -16 5 -22 8 -8 11 -5 11 11 0 24 -5 28 -16 11z"/>
 <path d="M530 1175 c-7 -8 -9 -15 -4 -15 5 0 3 -4 -5 -9 -7 -5 -12 -14 -10 -20 3 -7 14 1 27 18 22 30 15 54 -8 26z"/>
 <path d="M571 1114 c-6 -21 -9 -40 -6 -42 2 -2 8 13 14 34 6 21 9 40 6 42 -2 2 -8 -13 -14 -34z"/>
 <path d="M1416 1125 c4 -16 11 -37 15 -45 6 -10 7 -4 3 15 -4 17 -11 37 -15 45 -6 10 -7 4 -3 -15z"/>
 <path d="M475 1091 c-6 -11 9 -23 19 -14 9 9 7 23 -3 23 -6 0 -12 -4 -16 -9z"/>
 <path d="M1532 1051 c4 -13 18 -16 19 -4 0 4 -5 9 -11 12 -7 2 -11 -2 -8 -8z"/>
 <path d="M425 1007 c-9 -25 -15 -61 -12 -83 l4 -39 1 42 c1 24 11 57 22 75 22 36 25 48 11 48 -5 0 -17 -19 -26 -43z"/>
 <path d="M683 1040 c-13 -5 -32 -24 -44 -42 -42 -68 -2 -220 70 -262 48 -28 118 -27 159 2 103 74 90 242 -21 293 -44 20 -126 24 -164 9z m164 -39 c126 -57 77 -261 -62 -261 -50 0 -94 35 -122 96 -32 70 -28 127 12 161 33 29 112 31 172 4z"/>
 <path d="M482 1020 c-10 -17 -10 -27 3 -54 14 -29 15 -41 4 -78 -16 -55 -24 -64 -44 -48 -12 10 -15 10 -15 -3 0 -8 6 -17 14 -20 9 -4 15 -36 19 -119 8 -168 53 -279 141 -351 73 -60 75 -42 4 31 -46 46 -73 84 -88 121 -21 54 -21 81 -1 42 6 -11 20 -25 30 -30 23 -13 23 -10 9 150 -9 107 -8 137 7 208 9 45 15 85 12 87 -6 6 -28 -73 -42 -151 l-12 -70 -16 32 c-21 40 -21 77 0 138 12 36 13 50 5 53 -7 2 -9 8 -6 13 3 6 0 16 -6 24 -10 12 -10 18 0 30 7 8 8 15 4 15 -5 0 -15 -9 -22 -20z m58 -350 c0 -24 -2 -23 -35 15 -32 38 -44 73 -28 88 10 11 63 -75 63 -103z m-2 -39 c5 -3 12 -31 16 -61 7 -53 7 -54 -12 -37 -18 16 -27 33 -62 109 -7 15 -10 34 -6 44 6 14 10 12 31 -16 14 -19 29 -36 33 -39z"/>
 <path d="M1148 1029 c-62 -23 -88 -133 -51 -218 40 -91 166 -104 249 -26 31 30 34 37 34 91 0 70 -20 107 -77 141 -41 25 -106 29 -155 12z m154 -30 c29 -15 58 -70 58 -107 0 -55 -27 -99 -75 -122 -96 -47 -185 20 -185 139 0 48 37 97 78 104 36 6 100 -1 124 -14z"/>
 <path d="M1492 1029 c2 -7 10 -15 17 -17 8 -3 12 1 9 9 -2 7 -10 15 -17 17 -8 3 -12 -1 -9 -9z"/>
 <path d="M1421 954 c-1 -7 6 -47 15 -90 14 -65 14 -97 6 -203 -11 -129 -12 -161 -4 -161 2 0 18 15 34 33 28 29 30 30 23 8 -20 -65 -42 -100 -97 -157 -32 -34 -55 -65 -49 -68 17 -11 111 91 137 148 31 67 54 186 54 275 0 55 4 71 20 86 20 18 29 62 10 50 -5 -3 -10 -1 -10 6 0 10 -3 10 -12 1 -10 -10 -10 -15 2 -22 12 -7 12 -12 2 -22 -15 -15 -26 -4 -42 45 -7 21 -14 36 -16 34 -3 -2 0 -16 6 -31 15 -40 12 -82 -7 -119 l-16 -32 -13 75 c-12 71 -42 169 -43 144z m72 -271 c-26 -34 -28 -35 -31 -15 -2 13 9 43 25 67 l28 45 3 -30 c2 -21 -5 -41 -25 -67z m27 -38 c-4 -5 -10 -21 -13 -35 -4 -14 -20 -41 -37 -60 l-30 -35 6 53 c5 39 14 61 35 83 16 17 29 36 30 43 1 6 4 0 8 -14 4 -14 5 -29 1 -35z"/>
 <path d="M690 280 c0 -5 7 -10 15 -10 8 0 15 -4 15 -10 0 -5 8 -10 18 -10 14 0 12 4 -8 20 -28 22 -40 25 -40 10z"/>
 <path d="M1270 270 c-20 -16 -22 -20 -7 -20 9 0 17 5 17 10 0 6 7 10 15 10 8 0 15 5 15 10 0 15 -12 12 -40 -10z"/>
 </g>
<g id="layer113" fill="#c59771" stroke="none">
 <path d="M130 1990 c0 -32 26 -122 47 -160 30 -57 76 -82 197 -110 123 -28 316 -96 342 -121 21 -20 22 -20 27 -2 3 10 9 45 13 78 4 33 20 103 36 155 16 52 33 112 37 133 l9 37 -354 0 c-217 0 -354 -4 -354 -10z"/>
 <path d="M930 1977 c0 -13 6 -45 14 -70 14 -46 14 -47 -13 -66 l-26 -20 40 -40 c21 -23 47 -41 56 -41 21 0 79 56 79 75 0 8 -10 21 -21 29 -19 13 -21 21 -15 63 4 26 10 58 13 71 5 21 3 22 -61 22 -63 0 -66 -1 -66 -23z"/>
 <path d="M1171 1961 c5 -21 20 -74 33 -117 14 -44 30 -110 36 -149 5 -38 13 -81 16 -94 l5 -24 22 22 c27 25 219 93 343 121 121 28 167 53 197 110 21 38 47 128 47 160 0 6 -137 10 -354 10 l-354 0 9 -39z"/>
 <path d="M887 1535 c-20 -8 -47 -21 -59 -30 -29 -20 -38 -19 -39 3 -1 9 -6 2 -12 -16 -5 -18 -7 -35 -4 -38 3 -3 23 8 45 26 22 17 66 40 98 50 34 11 48 19 34 19 -14 0 -42 -7 -63 -14z"/>
 <path d="M1084 1530 c32 -10 76 -32 97 -49 45 -37 49 -37 49 -10 0 12 -5 19 -12 16 -7 -2 -25 4 -40 15 -33 23 -103 48 -132 47 -11 0 5 -9 38 -19z"/>
 <path d="M668 1382 c-32 -34 -66 -86 -52 -81 20 8 95 97 86 103 -5 3 -20 -7 -34 -22z"/>
 <path d="M1296 1402 c-3 -5 8 -21 23 -36 16 -15 31 -23 35 -18 3 5 -8 21 -23 36 -16 15 -31 23 -35 18z"/>
 <path d="M871 1374 c-30 -22 -26 -47 13 -82 89 -78 221 -62 241 29 4 15 1 38 -5 50 -11 19 -17 21 -63 14 -76 -10 -98 -10 -133 -3 -21 5 -38 2 -53 -8z m193 -84 c8 -8 6 -15 -9 -26 -23 -17 -71 -12 -119 13 -23 12 -26 17 -15 25 18 12 128 3 143 -12z"/>
 <path d="M1362 1318 c2 -6 10 -14 16 -16 7 -2 10 2 6 12 -7 18 -28 22 -22 4z"/>
 <path d="M590 1218 c0 -9 -3 -23 -6 -32 -3 -9 -2 -16 4 -16 14 0 23 43 12 54 -7 7 -10 4 -10 -6z"/>
 <path d="M1394 1219 c-3 -6 -1 -16 5 -22 8 -8 11 -5 11 11 0 24 -5 28 -16 11z"/>
 <path d="M530 1175 c-7 -8 -9 -15 -4 -15 5 0 3 -4 -5 -9 -7 -5 -12 -14 -10 -20 3 -7 14 1 27 18 22 30 15 54 -8 26z"/>
 <path d="M571 1114 c-6 -21 -9 -40 -6 -42 2 -2 8 13 14 34 6 21 9 40 6 42 -2 2 -8 -13 -14 -34z"/>
 <path d="M1416 1125 c4 -16 11 -37 15 -45 6 -10 7 -4 3 15 -4 17 -11 37 -15 45 -6 10 -7 4 -3 -15z"/>
 <path d="M475 1091 c-6 -11 9 -23 19 -14 9 9 7 23 -3 23 -6 0 -12 -4 -16 -9z"/>
 <path d="M1532 1051 c4 -13 18 -16 19 -4 0 4 -5 9 -11 12 -7 2 -11 -2 -8 -8z"/>
 <path d="M425 1007 c-9 -25 -15 -61 -12 -83 l4 -39 1 42 c1 24 11 57 22 75 22 36 25 48 11 48 -5 0 -17 -19 -26 -43z"/>
 <path d="M674 1031 c-55 -34 -67 -125 -29 -214 29 -65 61 -90 130 -101 80 -12 165 71 165 163 0 49 -36 117 -75 141 -50 31 -151 37 -191 11z m175 -29 c94 -43 95 -198 2 -247 -46 -23 -104 -19 -139 10 -87 73 -95 233 -14 251 15 3 32 7 37 9 19 5 80 -7 114 -23z"/>
 <path d="M482 1020 c-10 -17 -10 -27 3 -54 14 -29 15 -41 4 -78 -16 -55 -24 -64 -44 -48 -12 10 -15 10 -15 -3 0 -8 6 -17 14 -20 9 -4 15 -36 19 -119 8 -168 53 -279 141 -351 73 -60 75 -42 4 31 -46 46 -73 84 -88 121 -21 54 -21 81 -1 42 6 -11 20 -25 30 -30 23 -13 23 -10 9 150 -9 107 -8 137 7 208 9 45 15 85 12 87 -6 6 -28 -73 -42 -151 l-12 -70 -16 32 c-21 40 -21 77 0 138 12 36 13 50 5 53 -7 2 -9 8 -6 13 3 6 0 16 -6 24 -10 12 -10 18 0 30 7 8 8 15 4 15 -5 0 -15 -9 -22 -20z m58 -350 c0 -24 -2 -23 -35 15 -32 38 -44 73 -28 88 10 11 63 -75 63 -103z m-2 -39 c5 -3 12 -31 16 -61 7 -53 7 -54 -12 -37 -18 16 -27 33 -62 109 -7 15 -10 34 -6 44 6 14 10 12 31 -16 14 -19 29 -36 33 -39z"/>
 <path d="M1155 1030 c-67 -27 -95 -127 -59 -213 20 -49 40 -66 94 -78 46 -11 115 11 158 51 29 26 32 34 32 89 0 54 -4 64 -32 97 -18 20 -47 43 -65 50 -36 15 -97 17 -128 4z m172 -53 c28 -31 33 -44 33 -84 0 -60 -26 -104 -73 -126 -44 -21 -70 -21 -113 -1 -42 20 -74 77 -74 133 0 87 44 124 139 118 47 -3 59 -9 88 -40z"/>
 <path d="M1492 1029 c2 -7 10 -15 17 -17 8 -3 12 1 9 9 -2 7 -10 15 -17 17 -8 3 -12 -1 -9 -9z"/>
 <path d="M1421 954 c-1 -7 6 -47 15 -90 14 -65 14 -97 6 -203 -11 -129 -12 -161 -4 -161 2 0 18 15 34 33 28 29 30 30 23 8 -20 -65 -42 -100 -97 -157 -32 -34 -55 -65 -49 -68 17 -11 111 91 137 148 31 67 54 186 54 275 0 55 4 71 20 86 20 18 29 62 10 50 -5 -3 -10 -1 -10 6 0 10 -3 10 -12 1 -10 -10 -10 -15 2 -22 12 -7 12 -12 2 -22 -15 -15 -26 -4 -42 45 -7 21 -14 36 -16 34 -3 -2 0 -16 6 -31 15 -40 12 -82 -7 -119 l-16 -32 -13 75 c-12 71 -42 169 -43 144z m72 -271 c-26 -34 -28 -35 -31 -15 -2 13 9 43 25 67 l28 45 3 -30 c2 -21 -5 -41 -25 -67z m27 -38 c-4 -5 -10 -21 -13 -35 -4 -14 -20 -41 -37 -60 l-30 -35 6 53 c5 39 14 61 35 83 16 17 29 36 30 43 1 6 4 0 8 -14 4 -14 5 -29 1 -35z"/>
 <path d="M690 280 c0 -5 7 -10 15 -10 8 0 15 -4 15 -10 0 -5 8 -10 18 -10 14 0 12 4 -8 20 -28 22 -40 25 -40 10z"/>
 <path d="M1270 270 c-20 -16 -22 -20 -7 -20 9 0 17 5 17 10 0 6 7 10 15 10 8 0 15 5 15 10 0 15 -12 12 -40 -10z"/>
 </g>
<g id="layer114" fill="#cd766e" stroke="none">
 <path d="M130 1990 c0 -32 26 -122 47 -160 30 -57 76 -82 197 -110 123 -28 316 -96 342 -121 21 -20 22 -20 27 -2 3 10 9 45 13 78 4 33 20 103 36 155 16 52 33 112 37 133 l9 37 -354 0 c-217 0 -354 -4 -354 -10z"/>
 <path d="M930 1977 c0 -13 6 -45 14 -70 14 -46 14 -47 -13 -66 l-26 -20 40 -40 c21 -23 47 -41 56 -41 21 0 79 56 79 75 0 8 -10 21 -21 29 -19 13 -21 21 -15 63 4 26 10 58 13 71 5 21 3 22 -61 22 -63 0 -66 -1 -66 -23z"/>
 <path d="M1171 1961 c5 -21 20 -74 33 -117 14 -44 30 -110 36 -149 5 -38 13 -81 16 -94 l5 -24 22 22 c27 25 219 93 343 121 121 28 167 53 197 110 21 38 47 128 47 160 0 6 -137 10 -354 10 l-354 0 9 -39z"/>
 <path d="M901 1538 c-19 -5 -50 -20 -69 -33 -19 -13 -41 -21 -48 -18 -9 3 -14 -2 -14 -16 0 -12 2 -21 5 -21 3 0 25 16 50 35 25 19 65 39 88 45 57 15 65 18 42 18 -11 0 -35 -4 -54 -10z"/>
 <path d="M1035 1545 c6 -2 29 -9 52 -15 23 -6 63 -26 88 -45 25 -19 47 -35 50 -35 3 0 5 9 5 21 0 14 -5 19 -14 16 -7 -3 -29 5 -48 18 -34 23 -99 46 -128 44 -8 0 -10 -2 -5 -4z"/>
 <path d="M660 1374 c-42 -48 -29 -58 16 -12 20 20 32 38 26 42 -5 3 -24 -10 -42 -30z"/>
 <path d="M1296 1402 c-3 -5 8 -21 23 -36 16 -15 31 -23 35 -18 3 5 -8 21 -23 36 -16 15 -31 23 -35 18z"/>
 <path d="M871 1374 c-30 -22 -26 -47 13 -82 89 -78 221 -62 241 29 4 15 1 38 -5 50 -11 19 -17 21 -63 14 -76 -10 -98 -10 -133 -3 -21 5 -38 2 -53 -8z m193 -84 c8 -8 6 -15 -9 -26 -23 -17 -71 -12 -119 13 -23 12 -26 17 -15 25 18 12 128 3 143 -12z"/>
 <path d="M530 1175 c-7 -8 -9 -15 -4 -15 5 0 3 -4 -5 -9 -7 -5 -12 -14 -10 -20 3 -7 14 1 27 18 22 30 15 54 -8 26z"/>
 <path d="M1532 1051 c4 -13 18 -16 19 -4 0 4 -5 9 -11 12 -7 2 -11 -2 -8 -8z"/>
 <path d="M674 1031 c-62 -38 -68 -138 -16 -234 60 -112 202 -110 260 3 27 55 28 101 1 156 -27 57 -71 83 -151 90 -52 4 -69 2 -94 -15z m175 -29 c94 -43 95 -198 2 -247 -46 -23 -104 -19 -139 10 -87 73 -95 233 -14 251 15 3 32 7 37 9 19 5 80 -7 114 -23z"/>
 <path d="M483 1020 c-7 -10 -9 -21 -5 -24 4 -2 12 7 19 20 13 29 3 32 -14 4z"/>
 <path d="M1155 1030 c-69 -28 -97 -137 -57 -216 26 -50 42 -64 89 -75 49 -11 117 10 161 51 29 26 32 34 32 89 0 54 -4 64 -32 97 -18 20 -47 43 -65 50 -36 15 -97 17 -128 4z m172 -53 c28 -31 33 -44 33 -84 0 -60 -26 -104 -73 -126 -44 -21 -70 -21 -113 -1 -42 20 -74 77 -74 133 0 87 44 124 139 118 47 -3 59 -9 88 -40z"/>
 <path d="M1496 1026 c3 -9 11 -16 16 -16 13 0 5 23 -10 28 -7 2 -10 -2 -6 -12z"/>
 <path d="M413 935 c0 -27 2 -38 4 -22 2 15 2 37 0 50 -2 12 -4 0 -4 -28z"/>
 <path d="M556 890 c-26 -99 -24 -222 4 -330 8 -30 9 -27 5 20 -17 213 -17 219 0 295 21 97 15 108 -9 15z"/>
 <path d="M1421 953 c-1 -6 6 -42 15 -80 15 -66 15 -106 -1 -298 -4 -45 -4 -47 5 -15 29 111 29 245 1 340 -11 36 -20 60 -20 53z"/>
 <path d="M1496 905 c3 -11 9 -39 13 -63 5 -23 9 -45 10 -47 7 -27 0 -79 -12 -94 -9 -12 -9 -13 1 -7 8 5 12 1 12 -13 0 -11 5 -23 10 -26 6 -4 10 22 10 71 0 61 4 82 18 98 16 18 17 25 7 44 -9 16 -15 20 -20 12 -4 -7 -1 -16 6 -21 10 -6 11 -11 2 -20 -13 -13 -33 -4 -33 14 -1 7 -8 26 -16 42 -8 17 -12 21 -8 10z"/>
 <path d="M485 870 c-8 -36 -21 -46 -40 -30 -12 10 -15 9 -15 -3 0 -8 6 -17 14 -20 9 -4 15 -36 19 -119 8 -168 53 -279 141 -351 73 -60 74 -42 3 30 -48 47 -72 81 -87 120 -26 70 -26 72 12 37 30 -27 29 -26 -5 15 -20 25 -37 52 -37 61 0 9 -5 21 -11 27 -15 15 -7 59 11 55 11 -3 11 1 -3 16 -18 20 -24 91 -8 108 9 10 25 84 17 84 -2 0 -7 -13 -11 -30z"/>
 <path d="M1517 633 c-4 -3 -7 -14 -7 -23 0 -9 -17 -36 -37 -61 -34 -41 -35 -42 -5 -15 35 32 37 31 22 -9 -6 -15 -7 -32 -3 -38 8 -13 29 45 38 108 7 44 5 52 -8 38z"/>
 <path d="M1458 448 c-9 -13 -39 -46 -67 -74 -29 -29 -48 -55 -43 -58 13 -8 124 102 117 114 -4 6 -2 10 3 10 6 0 12 7 16 15 8 23 -10 18 -26 -7z"/>
 </g>
<g id="layer115" fill="#bb915f" stroke="none">
 <path d="M130 1990 c0 -32 26 -122 47 -160 30 -57 76 -82 197 -110 123 -28 316 -96 342 -121 21 -20 22 -20 27 -2 3 10 9 45 13 78 4 33 20 103 36 155 16 52 33 112 37 133 l9 37 -354 0 c-217 0 -354 -4 -354 -10z"/>
 <path d="M930 1977 c0 -13 6 -45 14 -70 14 -46 14 -47 -13 -66 l-26 -20 40 -40 c21 -23 47 -41 56 -41 21 0 79 56 79 75 0 8 -10 21 -21 29 -19 13 -21 21 -15 63 4 26 10 58 13 71 5 21 3 22 -61 22 -63 0 -66 -1 -66 -23z"/>
 <path d="M1171 1961 c5 -21 20 -74 33 -117 14 -44 30 -110 36 -149 5 -38 13 -81 16 -94 l5 -24 22 22 c27 25 219 93 343 121 121 28 167 53 197 110 21 38 47 128 47 160 0 6 -137 10 -354 10 l-354 0 9 -39z"/>
 <path d="M871 1374 c-30 -22 -26 -47 13 -82 89 -78 221 -62 241 29 4 15 1 38 -5 50 -11 19 -17 21 -63 14 -76 -10 -98 -10 -133 -3 -21 5 -38 2 -53 -8z m236 -10 c5 -16 -27 -23 -73 -14 l-39 7 35 11 c42 13 72 11 77 -4z m-43 -74 c8 -8 6 -15 -9 -26 -23 -17 -71 -12 -119 13 -23 12 -26 17 -15 25 18 12 128 3 143 -12z"/>
 <path d="M674 1031 c-62 -38 -68 -138 -16 -234 60 -112 202 -110 260 3 27 55 28 101 1 156 -27 57 -71 83 -151 90 -52 4 -69 2 -94 -15z m175 -29 c94 -43 95 -198 2 -247 -46 -23 -104 -19 -139 10 -87 73 -95 233 -14 251 15 3 32 7 37 9 19 5 80 -7 114 -23z"/>
 <path d="M1155 1030 c-69 -28 -97 -137 -57 -216 26 -50 42 -64 89 -75 49 -11 117 10 161 51 29 26 32 34 32 89 0 54 -4 64 -32 97 -18 20 -47 43 -65 50 -36 15 -97 17 -128 4z m172 -53 c28 -31 33 -44 33 -84 0 -60 -26 -104 -73 -126 -44 -21 -70 -21 -113 -1 -42 20 -74 77 -74 133 0 87 44 124 139 118 47 -3 59 -9 88 -40z"/>
 <path d="M556 890 c-26 -99 -24 -222 4 -330 8 -30 9 -27 5 20 -17 213 -17 219 0 295 21 97 15 108 -9 15z"/>
 <path d="M1421 953 c-1 -6 6 -42 15 -80 15 -66 15 -106 -1 -298 -4 -45 -4 -47 5 -15 29 111 29 245 1 340 -11 36 -20 60 -20 53z"/>
 <path d="M1495 905 c4 -11 10 -39 14 -63 5 -23 9 -45 10 -47 7 -27 0 -79 -12 -94 -9 -12 -9 -13 1 -7 8 5 12 1 12 -13 0 -11 5 -23 11 -26 14 -10 10 160 -6 194 -27 59 -35 75 -30 56z"/>
 <path d="M490 888 c0 -7 -7 -26 -15 -41 -25 -48 -15 -244 17 -330 31 -82 67 -138 107 -167 45 -32 38 -7 -14 48 -26 26 -54 70 -65 100 -26 69 -26 71 12 36 30 -27 29 -26 -5 15 -20 25 -37 52 -37 61 0 9 -5 21 -11 27 -15 15 -7 59 11 55 11 -3 11 1 -3 16 -18 20 -24 91 -8 108 10 11 25 84 16 84 -3 0 -5 -6 -5 -12z"/>
 <path d="M1517 633 c-4 -3 -7 -14 -7 -23 0 -9 -17 -36 -37 -61 -34 -41 -35 -42 -5 -15 35 32 37 31 22 -9 -6 -15 -7 -32 -3 -38 8 -13 29 45 38 108 7 44 5 52 -8 38z"/>
 <path d="M1457 448 c-8 -13 -31 -40 -51 -61 -41 -43 -47 -65 -12 -41 31 19 77 79 69 88 -4 3 -2 6 4 6 6 0 13 7 17 15 8 23 -10 18 -27 -7z"/>
 </g>
<g id="layer116" fill="#90837f" stroke="none">
 <path d="M130 1990 c0 -32 26 -122 47 -160 30 -57 76 -82 197 -110 123 -28 316 -96 342 -121 21 -20 22 -20 27 -2 3 10 9 45 13 78 4 33 20 103 36 155 16 52 33 112 37 133 l9 37 -354 0 c-217 0 -354 -4 -354 -10z"/>
 <path d="M930 1977 c0 -13 6 -45 14 -70 14 -46 14 -47 -13 -66 l-26 -20 40 -40 c21 -23 47 -41 56 -41 21 0 79 56 79 75 0 8 -10 21 -21 29 -19 13 -21 21 -15 63 4 26 10 58 13 71 5 21 3 22 -61 22 -63 0 -66 -1 -66 -23z"/>
 <path d="M1171 1961 c5 -21 20 -74 33 -117 14 -44 30 -110 36 -149 5 -38 13 -81 16 -94 l5 -24 22 22 c27 25 219 93 343 121 121 28 167 53 197 110 21 38 47 128 47 160 0 6 -137 10 -354 10 l-354 0 9 -39z"/>
 <path d="M871 1374 c-30 -22 -26 -47 13 -82 89 -78 221 -62 241 29 4 15 1 38 -5 50 -11 19 -17 21 -63 14 -76 -10 -98 -10 -133 -3 -21 5 -38 2 -53 -8z m236 -10 c5 -16 -27 -23 -73 -14 l-39 7 35 11 c42 13 72 11 77 -4z m-43 -74 c8 -8 6 -15 -9 -26 -23 -17 -71 -12 -119 13 -23 12 -26 17 -15 25 18 12 128 3 143 -12z"/>
 <path d="M674 1031 c-62 -38 -68 -138 -16 -234 60 -112 202 -110 260 3 27 55 28 101 1 156 -27 57 -71 83 -151 90 -52 4 -69 2 -94 -15z m175 -29 c94 -43 95 -198 2 -247 -46 -23 -104 -19 -139 10 -87 73 -95 233 -14 251 15 3 32 7 37 9 19 5 80 -7 114 -23z"/>
 <path d="M1155 1030 c-69 -28 -97 -137 -57 -216 26 -50 42 -64 89 -75 49 -11 117 10 161 51 29 26 32 34 32 89 0 54 -4 64 -32 97 -18 20 -47 43 -65 50 -36 15 -97 17 -128 4z m172 -53 c28 -31 33 -44 33 -84 0 -60 -26 -104 -73 -126 -44 -21 -70 -21 -113 -1 -42 20 -74 77 -74 133 0 87 44 124 139 118 47 -3 59 -9 88 -40z"/>
 <path d="M462 730 c0 -19 2 -27 5 -17 2 9 2 25 0 35 -3 9 -5 1 -5 -18z"/>
 </g>
<g id="layer117" fill="#9a735f" stroke="none">
 <path d="M130 1990 c0 -32 26 -122 47 -160 30 -57 76 -82 197 -110 123 -28 316 -96 342 -121 l22 -21 6 29 c3 15 10 59 16 96 6 37 17 87 25 110 7 23 23 75 34 115 l20 72 -355 0 c-217 0 -354 -4 -354 -10z"/>
 <path d="M930 1977 c0 -13 6 -45 14 -70 14 -46 14 -47 -13 -66 l-26 -20 40 -40 c21 -23 46 -41 55 -41 18 0 80 60 80 77 0 7 -10 19 -21 27 -19 13 -21 20 -14 72 4 31 9 63 12 71 4 10 -10 13 -61 13 -63 0 -66 -1 -66 -23z"/>
 <path d="M1186 1909 c14 -50 29 -102 35 -115 5 -14 13 -55 19 -92 6 -37 13 -80 16 -95 l6 -29 22 21 c26 25 219 93 342 121 121 28 167 53 197 110 21 38 47 128 47 160 0 6 -137 10 -354 10 l-355 0 25 -91z"/>
 <path d="M1036 1383 c-4 -5 -44 -8 -88 -8 -65 0 -83 -3 -92 -17 -8 -13 -6 -23 10 -45 30 -39 74 -63 131 -69 61 -6 92 10 117 59 25 53 11 87 -37 87 -19 0 -37 -3 -41 -7z m71 -19 c5 -16 -27 -23 -73 -14 l-39 7 35 11 c42 13 72 11 77 -4z m-68 -60 c35 -7 39 -29 9 -48 -19 -11 -101 5 -126 26 -28 24 42 37 117 22z"/>
 <path d="M683 1036 c-56 -25 -74 -93 -49 -180 34 -115 124 -168 213 -125 122 58 119 234 -3 298 -38 19 -126 23 -161 7z m166 -34 c49 -24 74 -63 74 -114 0 -86 -59 -148 -140 -148 -126 0 -200 226 -91 276 39 17 106 12 157 -14z"/>
 <path d="M1153 1025 c-70 -30 -93 -127 -52 -212 33 -68 92 -91 170 -66 73 24 109 69 109 136 0 43 -5 59 -30 88 -52 64 -127 85 -197 54z m147 -21 c87 -52 78 -201 -15 -240 -81 -34 -149 -2 -178 85 -34 103 12 171 116 171 27 0 61 -7 77 -16z"/>
 <path d="M462 730 c0 -19 2 -27 5 -17 2 9 2 25 0 35 -3 9 -5 1 -5 -18z"/>
 </g>
<g id="layer118" fill="#605d5c" stroke="none">
 <path d="M130 1990 c0 -32 26 -122 47 -160 30 -57 76 -82 197 -110 123 -28 316 -96 342 -121 l22 -21 6 29 c3 15 10 59 16 96 6 37 17 87 25 110 7 23 23 75 34 115 l20 72 -355 0 c-217 0 -354 -4 -354 -10z"/>
 <path d="M930 1977 c0 -13 6 -45 14 -70 14 -46 14 -47 -13 -66 l-26 -20 40 -40 c21 -23 46 -41 55 -41 18 0 80 60 80 77 0 7 -10 19 -21 27 -19 13 -21 20 -14 72 4 31 9 63 12 71 4 10 -10 13 -61 13 -63 0 -66 -1 -66 -23z"/>
 <path d="M1186 1909 c14 -50 29 -102 35 -115 5 -14 13 -55 19 -92 6 -37 13 -80 16 -95 l6 -29 22 21 c26 25 219 93 342 121 121 28 167 53 197 110 21 38 47 128 47 160 0 6 -137 10 -354 10 l-355 0 25 -91z"/>
 <path d="M1025 1380 c-11 -5 -49 -6 -85 -3 -54 4 -68 2 -80 -12 -31 -37 44 -108 127 -121 62 -9 109 14 129 63 22 51 7 83 -38 82 -18 0 -42 -4 -53 -9z m82 -16 c5 -16 -27 -23 -73 -14 l-39 7 35 11 c42 13 72 11 77 -4z m-68 -60 c35 -7 39 -29 9 -48 -19 -11 -101 5 -126 26 -28 24 42 37 117 22z"/>
 <path d="M680 1033 c-61 -31 -73 -122 -31 -218 25 -54 57 -82 111 -94 38 -9 51 -7 87 10 122 59 119 234 -3 298 -43 21 -126 24 -164 4z m169 -31 c49 -24 74 -63 74 -114 0 -86 -59 -148 -140 -148 -126 0 -200 226 -91 276 39 17 106 12 157 -14z"/>
 <path d="M1153 1025 c-70 -30 -93 -127 -52 -212 21 -44 39 -59 91 -74 43 -12 122 17 158 58 41 46 42 120 4 170 -49 64 -132 88 -201 58z m147 -21 c87 -52 78 -201 -15 -240 -81 -34 -149 -2 -178 85 -34 103 12 171 116 171 27 0 61 -7 77 -16z"/>
 </g>
<g id="layer119" fill="#932526" stroke="none">
 <path d="M130 1990 c0 -32 26 -122 47 -160 30 -57 76 -82 197 -110 123 -28 316 -96 342 -121 l23 -21 5 33 c22 133 30 171 57 256 46 149 85 133 -321 133 -215 0 -350 -4 -350 -10z"/>
 <path d="M930 1983 c0 -10 7 -42 14 -70 14 -52 14 -53 -12 -73 l-25 -21 38 -39 c22 -22 46 -40 55 -40 17 0 80 59 80 75 0 5 -11 18 -25 30 -26 21 -26 16 0 133 5 21 3 22 -60 22 -55 0 -65 -3 -65 -17z"/>
 <path d="M1170 1982 c0 -10 13 -63 30 -118 16 -54 35 -128 40 -164 6 -36 13 -78 16 -93 l6 -29 22 21 c26 25 219 93 342 121 121 28 167 53 197 110 21 38 47 128 47 160 0 6 -135 10 -350 10 -333 0 -350 -1 -350 -18z"/>
 <path d="M1025 1379 c-16 -5 -58 -6 -91 -3 -57 6 -63 5 -74 -15 -9 -18 -8 -27 5 -47 19 -30 73 -64 100 -64 15 0 11 5 -14 18 -19 9 -32 22 -30 27 6 14 135 13 149 -1 8 -8 7 -16 -5 -28 -22 -22 -3 -21 24 2 26 21 41 70 30 100 -9 24 -39 28 -94 11z m82 -15 c5 -16 -27 -23 -73 -14 l-39 7 35 11 c42 13 72 11 77 -4z"/>
 <path d="M703 1043 c-32 -6 -70 -49 -77 -87 -9 -49 11 -129 44 -175 23 -31 41 -44 82 -56 51 -15 54 -15 97 7 49 26 77 69 85 133 l5 40 -11 -44 c-7 -26 -26 -59 -48 -82 -33 -35 -42 -39 -88 -39 -59 0 -101 28 -132 91 -24 46 -26 126 -5 156 51 73 212 43 257 -47 10 -19 18 -28 18 -19 0 25 -42 81 -75 100 -31 18 -114 30 -152 22z"/>
 <path d="M1153 1025 c-60 -26 -86 -99 -63 -180 7 -25 23 -56 35 -69 28 -30 88 -48 118 -36 18 7 14 9 -21 9 -36 1 -50 7 -77 34 -42 42 -61 107 -46 157 16 54 43 73 110 78 77 6 116 -15 143 -74 30 -69 9 -135 -55 -174 -38 -23 -29 -27 13 -5 47 24 70 62 70 115 0 61 -31 108 -90 138 -50 25 -91 27 -137 7z"/>
 </g>
<g id="layer120" fill="#49443f" stroke="none">
 <path d="M130 1990 c0 -32 26 -122 47 -160 30 -57 76 -82 197 -110 123 -28 316 -96 342 -121 l23 -21 5 33 c22 133 30 171 57 256 46 149 85 133 -321 133 -215 0 -350 -4 -350 -10z"/>
 <path d="M930 1983 c0 -10 7 -42 14 -70 14 -52 14 -53 -12 -73 l-25 -21 38 -39 c22 -22 46 -40 55 -40 17 0 80 59 80 75 0 5 -11 18 -25 30 -26 21 -26 16 0 133 5 21 3 22 -60 22 -55 0 -65 -3 -65 -17z"/>
 <path d="M1170 1982 c0 -10 13 -63 30 -118 16 -54 35 -128 40 -164 6 -36 13 -78 16 -93 l6 -29 22 21 c26 25 219 93 342 121 121 28 167 53 197 110 21 38 47 128 47 160 0 6 -135 10 -350 10 -333 0 -350 -1 -350 -18z"/>
 <path d="M1025 1379 c-16 -5 -58 -6 -91 -3 -57 6 -63 5 -74 -15 -9 -18 -8 -27 5 -47 19 -30 73 -64 100 -64 15 0 11 5 -14 18 -19 9 -32 22 -30 27 6 14 135 13 149 -1 8 -8 7 -16 -5 -28 -22 -22 -3 -21 24 2 26 21 41 70 30 100 -9 24 -39 28 -94 11z m80 -19 c0 -19 -27 -24 -73 -15 l-37 8 30 13 c38 17 80 14 80 -6z m-142 -7 c18 -9 46 -20 62 -23 22 -6 13 -7 -30 -6 -33 0 -72 -2 -87 -7 -22 -6 -28 -3 -33 14 -13 39 33 51 88 22z"/>
 <path d="M703 1043 c-32 -6 -70 -49 -77 -87 -9 -49 11 -129 44 -175 23 -31 41 -44 82 -56 51 -15 54 -15 97 7 49 26 77 69 85 133 l5 40 -11 -44 c-7 -26 -26 -59 -48 -82 -33 -35 -42 -39 -88 -39 -59 0 -101 28 -132 91 -24 46 -26 126 -5 156 51 73 212 43 257 -47 10 -19 18 -28 18 -19 0 25 -42 81 -75 100 -31 18 -114 30 -152 22z"/>
 <path d="M1153 1025 c-60 -26 -86 -99 -63 -180 7 -25 23 -56 35 -69 28 -30 88 -48 118 -36 18 7 14 9 -21 9 -36 1 -50 7 -77 34 -42 42 -61 107 -46 157 16 54 43 73 110 78 77 6 116 -15 143 -74 30 -69 9 -135 -55 -174 -38 -23 -29 -27 13 -5 47 24 70 62 70 115 0 61 -31 108 -90 138 -50 25 -91 27 -137 7z"/>
 </g>
<g id="layer121" fill="#5d2424" stroke="none">
 <path d="M130 1990 c0 -32 26 -122 47 -160 30 -57 76 -82 197 -110 123 -28 316 -96 342 -121 l22 -21 5 29 c3 15 9 53 13 83 3 30 19 96 35 147 15 50 31 108 35 127 l6 36 -351 0 c-215 0 -351 -4 -351 -10z"/>
 <path d="M930 1982 c0 -11 7 -41 15 -68 15 -49 15 -49 -11 -72 l-27 -23 39 -40 c21 -21 44 -39 51 -39 15 0 83 58 83 72 0 5 -11 19 -24 31 -25 22 -25 23 -12 90 l14 67 -64 0 c-55 0 -64 -2 -64 -18z"/>
 <path d="M1170 1986 c0 -8 15 -67 34 -133 19 -65 37 -140 41 -168 3 -27 9 -63 12 -78 l5 -29 22 21 c26 25 219 93 342 121 121 28 167 53 197 110 21 38 47 128 47 160 0 6 -135 10 -350 10 -294 0 -350 -2 -350 -14z"/>
 <path d="M1030 1379 c-14 -6 -53 -8 -92 -4 -61 6 -67 5 -78 -14 -19 -37 31 -92 96 -106 24 -5 23 -3 -9 11 -56 25 -41 39 41 39 81 0 111 -16 78 -41 -11 -8 -15 -14 -9 -14 21 0 53 35 62 67 17 58 -25 87 -89 62z m75 -19 c0 -19 -27 -24 -73 -15 l-37 8 30 13 c38 17 80 14 80 -6z m-142 -7 c18 -9 46 -20 62 -23 22 -6 13 -7 -30 -6 -33 0 -72 -2 -87 -7 -22 -6 -28 -3 -33 14 -13 39 33 51 88 22z"/>
 <path d="M710 1043 c-36 -7 -69 -41 -80 -83 -13 -47 10 -141 46 -187 34 -45 105 -66 154 -46 19 7 43 21 53 31 25 22 49 70 43 85 -2 7 -5 4 -5 -5 -2 -29 -60 -87 -98 -97 -52 -15 -89 -3 -128 41 -44 48 -55 76 -55 137 0 90 58 126 165 102 55 -12 96 -45 114 -91 6 -15 10 -18 10 -9 1 28 -43 83 -79 100 -39 19 -102 28 -140 22z"/>
 <path d="M1148 1019 c-37 -19 -58 -45 -58 -71 0 -7 9 1 20 19 10 17 28 37 39 42 25 14 116 14 142 1 10 -6 19 -8 19 -5 0 11 -69 35 -97 35 -15 -1 -45 -10 -65 -21z"/>
 <path d="M1337 975 c43 -62 37 -133 -14 -188 -24 -25 -25 -28 -6 -18 12 6 31 23 42 37 37 47 23 145 -25 185 -15 11 -14 8 3 -16z"/>
 <path d="M1081 910 c-2 -43 19 -100 48 -132 23 -26 36 -31 82 -34 l54 -3 -47 7 c-71 11 -110 56 -128 145 -5 27 -8 33 -9 17z"/>
 </g>
<g id="layer122" fill="#2a3135" stroke="none">
 <path d="M130 1990 c0 -32 26 -122 47 -160 30 -57 76 -82 197 -110 123 -28 316 -96 342 -121 l22 -21 5 29 c3 15 9 53 13 83 3 30 19 96 35 147 15 50 31 108 35 127 l6 36 -351 0 c-215 0 -351 -4 -351 -10z"/>
 <path d="M930 1982 c0 -11 7 -41 15 -68 15 -49 15 -49 -11 -72 l-27 -23 39 -40 c21 -21 44 -39 51 -39 15 0 83 58 83 72 0 5 -11 19 -24 31 -25 22 -25 23 -12 90 l14 67 -64 0 c-55 0 -64 -2 -64 -18z"/>
 <path d="M1170 1986 c0 -8 15 -67 34 -133 19 -65 37 -140 41 -168 3 -27 9 -63 12 -78 l5 -29 22 21 c26 25 219 93 342 121 121 28 167 53 197 110 21 38 47 128 47 160 0 6 -135 10 -350 10 -294 0 -350 -2 -350 -14z"/>
 <path d="M860 1360 c-19 -36 32 -92 96 -105 24 -5 23 -3 -9 11 -56 25 -41 39 41 39 81 0 111 -16 78 -41 -11 -8 -15 -14 -9 -14 36 0 81 81 62 111 -7 11 -9 10 -9 -3 0 -14 -8 -18 -37 -18 -49 0 -84 10 -77 21 3 5 -7 9 -23 9 l-27 0 24 -17 c13 -9 48 -19 77 -21 34 -3 52 -9 50 -16 -3 -6 -11 -9 -18 -6 -8 3 -57 5 -109 6 -94 0 -95 1 -95 25 0 20 6 25 35 30 l35 6 -37 2 c-28 1 -40 -4 -48 -19z"/>
 <path d="M710 1043 c-36 -7 -69 -41 -80 -83 -13 -47 10 -141 46 -187 34 -45 105 -66 154 -46 19 7 43 21 53 31 25 22 49 70 43 85 -2 7 -5 4 -5 -5 -2 -29 -60 -87 -98 -97 -52 -15 -89 -3 -128 41 -44 48 -55 76 -55 137 0 90 58 126 165 102 55 -12 96 -45 114 -91 6 -15 10 -18 10 -9 1 28 -43 83 -79 100 -39 19 -102 28 -140 22z"/>
 <path d="M1148 1019 c-37 -19 -58 -45 -58 -71 0 -7 9 1 20 19 10 17 28 37 39 42 25 14 116 14 142 1 10 -6 19 -8 19 -5 0 11 -69 35 -97 35 -15 -1 -45 -10 -65 -21z"/>
 <path d="M1337 975 c43 -62 37 -133 -14 -188 -24 -25 -25 -28 -6 -18 12 6 31 23 42 37 37 47 23 145 -25 185 -15 11 -14 8 3 -16z"/>
 <path d="M1081 910 c-2 -43 19 -100 48 -132 23 -26 36 -31 82 -34 l54 -3 -47 7 c-71 11 -110 56 -128 145 -5 27 -8 33 -9 17z"/>
 </g>
<g id="layer123" fill="#1d282e" stroke="none">
 <path d="M130 1990 c0 -32 26 -122 47 -160 30 -57 76 -82 197 -110 123 -28 316 -96 342 -121 l22 -21 5 29 c3 15 9 53 13 83 3 30 19 96 35 147 15 50 31 108 35 127 l6 36 -332 0 -332 0 7 -32 c4 -18 16 -59 27 -92 10 -32 17 -60 14 -63 -11 -11 -43 74 -61 160 -5 25 -25 39 -25 17z m130 -160 c-6 -11 -8 -24 -5 -29 3 -5 45 -22 95 -37 49 -15 88 -29 86 -31 -5 -5 -139 28 -178 44 l-37 15 21 29 c25 34 33 38 18 9z m269 -121 c34 -12 60 -23 58 -25 -2 -2 -35 7 -73 20 -38 14 -64 25 -58 25 5 1 38 -8 73 -20z m111 -44 c14 -8 21 -14 15 -14 -5 0 -21 6 -35 14 -14 8 -20 14 -15 14 6 0 21 -6 35 -14z"/>
 <path d="M930 1978 c1 -13 7 -41 15 -63 20 -54 19 -58 -12 -77 l-27 -16 41 -41 c22 -23 46 -41 52 -41 6 0 28 15 49 34 l37 35 -28 29 c-19 20 -27 36 -23 49 3 10 10 39 15 66 l8 47 -63 0 c-60 0 -64 -1 -64 -22z"/>
 <path d="M1174 1964 c4 -19 20 -77 35 -127 16 -51 32 -117 35 -147 4 -30 10 -68 13 -83 l5 -29 22 21 c26 25 219 93 342 121 121 28 167 53 198 110 35 66 59 196 30 167 -4 -3 -10 -27 -15 -52 -10 -52 -46 -141 -55 -133 -3 3 4 32 14 64 11 33 23 74 27 92 l7 32 -332 0 -332 0 6 -36z m579 -183 c-25 -13 -55 -21 -168 -45 -16 -3 13 9 65 27 74 26 95 37 94 51 -2 16 -1 16 17 0 20 -18 19 -18 -8 -33z m-267 -77 c-38 -13 -71 -22 -73 -20 -5 5 107 44 127 44 8 0 -16 -10 -54 -24z m-106 -39 c-14 -8 -29 -14 -35 -14 -5 0 1 6 15 14 14 8 30 14 35 14 6 0 -1 -6 -15 -14z"/>
 <path d="M862 1363 c-20 -38 30 -94 94 -108 22 -5 19 -2 -14 14 -24 11 -41 25 -37 31 10 15 138 12 160 -4 17 -12 18 -16 5 -32 -14 -16 -13 -16 8 -5 26 14 43 50 41 89 -1 17 -3 21 -6 10 -3 -13 -15 -18 -41 -18 -48 0 -83 10 -76 21 3 5 -7 9 -23 9 l-27 0 24 -17 c13 -9 48 -19 77 -21 34 -3 52 -9 50 -16 -3 -6 -11 -9 -18 -6 -8 3 -57 5 -109 6 -94 0 -95 1 -95 25 0 20 6 25 35 30 l35 6 -37 2 c-26 1 -40 -4 -46 -16z"/>
 <path d="M701 1037 c-75 -26 -95 -112 -51 -214 27 -63 44 -79 103 -97 44 -13 50 -13 89 8 43 21 88 76 88 105 -1 9 -7 3 -14 -14 -27 -61 -99 -102 -155 -88 -68 16 -122 95 -123 177 -2 84 46 122 141 112 60 -6 94 -26 129 -76 12 -18 22 -28 22 -23 0 6 -10 25 -22 43 -40 59 -139 90 -207 67z"/>
 <path d="M1155 1023 c-35 -18 -64 -51 -65 -73 0 -8 9 -1 20 17 26 43 48 53 117 54 42 0 52 3 38 9 -31 13 -77 11 -110 -7z"/>
 <path d="M1361 932 c16 -46 3 -96 -34 -139 -25 -28 -27 -34 -10 -25 40 22 63 62 63 111 0 26 -7 56 -15 67 -13 17 -14 16 -4 -14z"/>
 <path d="M1082 900 c0 -19 2 -27 5 -17 2 9 2 25 0 35 -3 9 -5 1 -5 -18z"/>
 <path d="M1091 849 c-1 -23 41 -82 69 -96 14 -7 41 -12 60 -12 34 1 34 2 -7 8 -47 8 -88 40 -108 86 -7 17 -14 23 -14 14z"/>
 </g>
<g id="layer124" fill="#1a1b1f" stroke="none">
 <path d="M130 1990 c0 -32 26 -122 47 -160 30 -57 76 -82 197 -110 123 -28 316 -96 342 -121 l23 -21 5 33 c3 19 8 55 11 81 3 26 22 100 41 164 38 130 40 144 21 144 -19 0 -89 -238 -87 -297 2 -65 0 -101 -7 -85 -2 7 -38 38 -80 68 l-74 57 36 37 c39 40 39 41 -17 59 l-37 12 25 65 c27 72 29 87 12 82 -6 -2 -22 -34 -34 -72 l-23 -67 32 -19 c18 -11 36 -20 41 -20 6 0 -5 -15 -23 -34 l-33 -34 34 -30 c18 -17 44 -40 58 -52 28 -25 29 -25 -80 17 -36 14 -115 37 -176 53 -151 38 -165 47 -197 118 -15 33 -27 68 -27 78 0 30 -12 64 -21 64 -5 0 -9 -4 -9 -10z"/>
 <path d="M300 1963 c-7 -21 -27 -66 -46 -100 -39 -74 -36 -83 6 -17 30 49 66 142 57 150 -3 3 -10 -12 -17 -33z"/>
 <path d="M935 1958 c4 -24 11 -51 16 -60 15 -28 10 -43 -18 -60 l-27 -16 41 -41 c22 -23 46 -41 52 -41 6 0 28 15 49 34 l37 35 -28 29 c-26 27 -27 32 -18 73 20 87 19 89 -50 89 l-61 0 7 -42z"/>
 <path d="M1170 1987 c0 -8 15 -66 34 -129 18 -63 37 -139 40 -169 4 -30 10 -67 13 -82 l5 -29 22 21 c26 25 219 93 342 121 121 28 167 53 198 110 24 46 52 157 42 167 -10 10 -15 -1 -26 -55 -5 -28 -20 -73 -34 -100 -28 -56 -53 -70 -191 -103 -49 -12 -124 -34 -165 -49 -123 -46 -118 -44 -90 -20 14 12 40 35 58 52 l34 30 -33 34 c-18 19 -29 34 -23 34 5 0 23 9 41 20 l32 19 -23 67 c-12 38 -28 70 -34 72 -17 5 -15 -9 12 -82 l23 -65 -36 -12 c-55 -18 -55 -19 -16 -59 l36 -37 -74 -57 c-42 -30 -78 -61 -80 -68 -6 -14 -6 -7 -10 92 -3 77 -65 290 -84 290 -7 0 -13 -6 -13 -13z"/>
 <path d="M1685 1973 c10 -44 50 -126 74 -153 24 -27 20 -15 -14 40 -12 19 -30 59 -39 88 -18 55 -33 72 -21 25z"/>
 <path d="M861 1362 c-14 -27 7 -63 54 -89 22 -13 47 -23 55 -23 8 0 -4 9 -28 20 -24 11 -41 24 -37 30 10 15 138 12 160 -4 17 -12 18 -16 5 -32 -14 -17 -14 -17 11 0 28 18 39 44 38 86 -1 17 -3 19 -6 8 -3 -13 -15 -18 -41 -18 -48 0 -83 10 -76 21 3 5 -7 9 -23 9 l-27 0 24 -17 c13 -9 48 -19 77 -21 34 -3 52 -9 50 -16 -3 -6 -11 -9 -18 -6 -8 3 -57 5 -109 6 -94 0 -95 1 -95 25 0 20 6 25 35 30 l35 6 -37 2 c-27 1 -40 -4 -47 -17z"/>
 <path d="M706 1040 c-15 -5 -37 -17 -47 -26 -19 -17 -45 -91 -35 -101 2 -3 9 13 15 34 17 62 41 78 121 78 77 0 107 -16 148 -75 12 -18 22 -28 22 -23 0 22 -47 77 -80 94 -44 21 -106 30 -144 19z"/>
 <path d="M1150 1020 c-36 -18 -69 -64 -57 -77 4 -3 7 1 7 9 0 9 14 28 31 42 25 22 41 26 92 27 44 0 56 3 42 9 -33 14 -78 10 -115 -10z"/>
 <path d="M1361 932 c16 -46 3 -96 -34 -139 -22 -25 -26 -33 -12 -26 40 22 58 52 62 106 3 37 0 58 -11 72 -15 19 -15 18 -5 -13z"/>
 <path d="M1082 900 c0 -19 2 -27 5 -17 2 9 2 25 0 35 -3 9 -5 1 -5 -18z"/>
 <path d="M631 885 c-1 -25 41 -116 61 -133 8 -6 36 -18 62 -26 43 -13 49 -12 88 8 43 21 88 76 88 105 -1 9 -7 2 -14 -14 -7 -17 -28 -43 -45 -58 -84 -71 -188 -27 -227 96 -7 23 -13 33 -13 22z"/>
 <path d="M1090 852 c0 -19 25 -64 47 -84 11 -10 35 -20 54 -23 33 -5 33 -5 5 4 -37 13 -75 48 -92 86 -7 17 -13 24 -14 17z"/>
 </g>
<g id="layer125" fill="#0a0b0b" stroke="none">
 <path d="M130 1990 c0 -32 26 -122 46 -160 35 -65 72 -84 229 -114 62 -12 292 -99 312 -118 12 -12 23 -19 23 -17 0 49 28 190 55 278 36 116 41 141 28 141 -14 0 -84 -274 -83 -327 0 -52 -12 -75 -27 -50 -4 7 -28 27 -53 46 -44 32 -45 32 -10 2 41 -37 37 -38 -39 -7 -70 30 -256 86 -285 86 -11 0 -40 9 -64 20 l-44 20 22 32 22 33 -26 -30 -25 -29 -25 55 c-13 31 -27 77 -31 102 -4 26 -11 47 -16 47 -5 0 -9 -4 -9 -10z"/>
 <path d="M561 1929 c-18 -56 -20 -74 -10 -83 8 -7 10 -7 6 0 -4 6 2 33 12 60 28 75 33 94 24 94 -5 0 -19 -32 -32 -71z"/>
 <path d="M930 1983 c1 -10 9 -42 19 -71 l18 -52 -25 -19 c-21 -15 -23 -21 -13 -39 6 -11 24 -30 41 -42 l30 -21 30 21 c48 34 53 51 23 82 -24 25 -25 30 -14 72 21 83 19 86 -49 86 -51 0 -60 -3 -60 -17z"/>
 <path d="M1170 1987 c0 -8 16 -67 35 -131 27 -94 55 -231 55 -273 0 -4 11 3 23 15 20 19 250 106 312 118 157 30 194 49 229 114 13 25 29 69 35 98 13 64 14 72 2 72 -5 0 -12 -21 -16 -47 -4 -25 -18 -71 -31 -102 l-25 -55 -25 29 -26 30 22 -33 22 -32 -44 -20 c-24 -11 -53 -20 -64 -20 -29 0 -215 -56 -285 -86 -76 -31 -80 -30 -39 7 35 30 34 30 -10 -2 -25 -19 -49 -39 -53 -46 -15 -25 -27 -2 -27 50 1 53 -69 327 -82 327 -5 0 -8 -6 -8 -13z"/>
 <path d="M1406 1978 c3 -13 15 -45 25 -72 10 -28 18 -51 16 -51 -1 -1 -11 -7 -22 -13 -11 -6 -15 -12 -9 -12 5 0 18 6 28 13 18 13 17 16 -5 85 -13 40 -27 72 -32 72 -4 0 -5 -10 -1 -22z"/>
 <path d="M608 1821 c11 -6 6 -14 -17 -30 -38 -27 -39 -41 -3 -72 l27 -24 -24 28 -25 27 32 33 c30 31 33 47 8 47 -6 0 -5 -4 2 -9z"/>
 <path d="M1376 1823 c-3 -4 8 -22 26 -40 l32 -33 -25 -27 -24 -28 28 24 c35 31 34 45 -4 72 -23 16 -28 24 -17 30 7 5 8 9 2 9 -6 0 -14 -3 -18 -7z"/>
 <path d="M973 1354 c16 -9 31 -13 35 -10 3 3 0 6 -7 6 -7 0 -9 5 -6 10 4 6 -6 10 -22 10 l-28 -1 28 -15z"/>
 <path d="M1065 1339 l-50 -6 43 -1 c30 -2 42 -6 39 -14 -2 -7 -15 -12 -28 -10 -23 2 -23 2 -4 -12 17 -12 18 -16 5 -32 -14 -17 -14 -17 12 0 22 14 49 73 36 79 -1 1 -25 0 -53 -4z"/>
 <path d="M860 1337 c0 -17 21 -47 43 -58 20 -11 21 -11 8 4 -17 21 -8 25 69 30 30 2 20 3 -23 2 -62 -1 -80 1 -87 14 -5 9 -10 12 -10 8z"/>
 <path d="M659 1011 c-16 -16 -29 -40 -29 -53 0 -20 3 -18 18 12 9 19 28 41 42 48 37 19 131 9 177 -19 20 -13 33 -17 29 -10 -16 25 -90 51 -149 51 -51 0 -62 -4 -88 -29z"/>
 <path d="M1163 1025 c-18 -8 -33 -17 -33 -20 0 -3 9 -1 19 5 11 5 44 10 73 11 39 0 48 3 33 9 -29 12 -56 11 -92 -5z"/>
 <path d="M1359 937 c16 -42 13 -73 -10 -118 -11 -23 -16 -38 -10 -34 6 3 18 20 27 37 18 35 15 111 -5 131 -10 9 -10 5 -2 -16z"/>
 <path d="M640 844 c0 -5 13 -31 29 -56 30 -48 69 -68 131 -68 48 0 131 73 130 115 0 6 -10 -7 -22 -28 -28 -48 -94 -82 -142 -73 -44 8 -82 38 -106 84 -10 21 -19 32 -20 26z"/>
 <path d="M1090 847 c0 -26 55 -97 74 -97 6 0 1 8 -11 18 -11 9 -31 33 -42 52 -12 19 -21 31 -21 27z"/>
 </g>

</svg>