<!DOCTYPE svg PUBLIC "-//W3C//DTD SVG 20010904//EN" "http://www.w3.org/TR/2001/REC-SVG-20010904/DTD/svg10.dtd">
<svg version="1.0" xmlns="http://www.w3.org/2000/svg" width="200px" height="200px" viewBox="0 0 2000 2000" preserveAspectRatio="xMidYMid meet">
<g id="layer101" fill="#f4f3f5" stroke="none">
 <path d="M123 1961 c3 -22 19 -71 37 -108 28 -60 37 -71 78 -90 26 -12 76 -27 112 -33 75 -13 283 -80 288 -92 2 -4 12 -8 22 -8 27 0 65 -38 84 -84 27 -64 29 -59 -65 -138 -62 -52 -84 -89 -94 -161 -6 -40 -10 -47 -30 -47 -23 0 -32 -10 -122 -153 -30 -46 -33 -59 -33 -125 0 -65 3 -76 25 -96 20 -18 23 -29 19 -57 -3 -20 -1 -75 5 -124 9 -72 19 -106 52 -173 23 -46 54 -95 69 -110 28 -28 112 -87 215 -150 l60 -37 145 0 145 0 74 41 c96 54 177 111 217 152 69 72 113 214 114 369 0 65 2 73 26 92 23 18 25 27 26 93 2 70 0 76 -39 133 -23 33 -53 79 -67 103 -16 25 -34 42 -45 42 -15 0 -22 12 -31 53 -15 64 -50 118 -110 166 -77 62 -83 76 -52 133 21 39 47 65 76 74 11 4 23 10 26 13 10 13 196 71 285 90 136 28 166 48 204 131 17 39 31 86 31 105 l0 35 -876 0 -877 0 6 -39z"/>
 </g>
<g id="layer102" fill="#e1dce4" stroke="none">
 <path d="M123 1961 c3 -22 19 -71 37 -108 28 -60 37 -71 78 -90 26 -12 76 -27 112 -33 75 -13 283 -80 288 -92 2 -4 12 -8 22 -8 37 0 100 -82 100 -130 0 -24 -1 -25 -81 -92 -62 -52 -84 -89 -94 -161 -6 -40 -10 -47 -30 -47 -23 0 -32 -10 -122 -153 -30 -46 -33 -59 -33 -125 0 -65 3 -76 25 -96 20 -18 23 -29 19 -57 -3 -20 -1 -75 5 -124 9 -72 19 -106 52 -173 23 -46 54 -95 69 -110 40 -40 135 -104 225 -152 l80 -42 130 4 130 4 74 41 c95 52 177 109 217 151 69 72 113 214 114 369 0 65 2 73 26 92 23 18 25 27 26 93 2 70 0 76 -39 133 -23 33 -53 79 -67 103 -16 25 -34 42 -45 42 -15 0 -22 12 -31 53 -15 64 -50 118 -110 166 -77 62 -83 76 -52 133 21 39 47 65 76 74 11 4 23 10 26 13 10 13 196 71 285 90 136 28 166 48 204 131 17 39 31 86 31 105 l0 35 -355 0 -355 0 0 -25 c0 -14 -17 -53 -38 -86 l-38 -59 -24 25 c-22 23 -23 28 -12 76 7 28 12 55 12 60 0 5 -31 9 -70 9 -67 0 -70 -1 -70 -24 0 -13 6 -41 14 -62 13 -37 12 -40 -10 -57 -22 -17 -23 -16 -58 40 -20 32 -36 68 -36 80 l0 23 -356 0 -357 0 6 -39z m791 -158 c27 -30 47 -55 45 -57 -2 -2 -34 -21 -71 -41 -79 -43 -104 -70 -113 -126 l-7 -41 -14 28 c-11 20 -12 35 -4 63 5 20 10 52 10 71 0 19 14 81 32 137 l31 103 21 -42 c12 -23 43 -66 70 -95z m284 35 c39 -121 57 -241 40 -271 -12 -21 -13 -20 -16 15 -4 50 -44 89 -132 129 l-69 32 58 62 c31 34 63 76 70 93 8 18 15 32 16 32 2 0 17 -42 33 -92z m-165 -449 c41 -21 59 -42 45 -51 -10 -6 -10 -10 2 -19 11 -8 9 -9 -10 -3 -14 4 -54 10 -90 14 -60 7 -61 7 -17 9 26 0 47 5 47 10 0 14 -38 24 -66 17 -35 -9 -30 3 9 19 40 18 52 18 80 4z m-303 -464 c-7 -8 -10 -26 -8 -40 6 -28 -16 -34 -45 -12 -18 14 -8 34 28 55 28 16 40 15 25 -3z m149 -1 c3 -3 -7 -17 -22 -32 -26 -25 -27 -26 -27 -5 0 12 -3 29 -7 39 -5 15 -2 16 23 10 16 -4 31 -10 33 -12z m293 4 c-5 -7 -12 -24 -14 -38 l-3 -25 -22 25 c-28 29 -29 37 -5 43 37 10 55 8 44 -5z m142 -32 c12 -19 -5 -36 -38 -36 -15 0 -16 2 -6 15 10 12 10 21 1 42 -12 26 -12 26 10 11 13 -8 28 -22 33 -32z"/>
 </g>
<g id="layer103" fill="#ecccc6" stroke="none">
 <path d="M123 1961 c3 -22 19 -71 37 -108 28 -60 37 -71 78 -90 26 -12 76 -27 112 -33 75 -13 283 -80 288 -92 2 -4 12 -8 22 -8 20 0 58 -32 79 -65 12 -19 12 -19 6 -1 -9 28 13 156 46 271 16 55 32 115 35 133 l7 32 -358 0 -358 0 6 -39z"/>
 <path d="M920 1978 c1 -13 7 -41 15 -63 14 -39 14 -40 -12 -61 -22 -17 -24 -23 -14 -41 6 -12 23 -31 38 -43 32 -25 38 -17 -72 -79 -33 -18 -64 -37 -68 -41 -7 -6 -20 -50 -44 -150 -7 -27 -6 -26 -84 -92 -62 -52 -84 -89 -94 -160 -6 -41 -10 -48 -30 -48 -23 0 -32 -10 -122 -153 -30 -46 -33 -59 -33 -125 0 -65 3 -76 25 -96 20 -18 23 -29 19 -57 -3 -20 -1 -75 5 -124 9 -72 19 -106 52 -173 23 -46 54 -95 69 -110 40 -40 135 -104 225 -152 l80 -42 130 4 130 4 74 41 c95 52 177 109 217 151 69 72 113 214 114 369 0 65 2 73 26 92 23 18 25 27 26 93 2 70 0 76 -39 133 -23 33 -53 79 -67 103 -16 26 -34 42 -45 42 -16 0 -22 12 -32 57 -14 63 -63 133 -121 172 -47 32 -55 48 -67 122 -6 34 -17 71 -25 84 -8 12 -51 41 -95 64 -45 23 -81 44 -81 46 0 3 17 20 38 39 l37 35 -31 33 c-25 26 -30 38 -24 58 4 14 10 40 13 58 l7 32 -70 0 c-66 0 -70 -1 -70 -22z m142 -609 c24 -22 29 -32 19 -36 -11 -5 -11 -7 0 -15 9 -5 0 -6 -25 -2 -22 4 -63 7 -92 8 -29 0 -50 4 -48 8 3 4 23 8 44 8 57 0 59 18 3 22 l-48 3 30 17 c46 26 80 22 117 -13z m-42 -187 c0 -4 -12 -8 -26 -7 -24 0 -27 -4 -31 -40 -5 -51 -13 -59 -13 -12 0 53 9 67 41 67 16 0 29 -4 29 -8z m-10 -33 c0 -5 -7 -9 -15 -9 -15 0 -20 12 -9 23 8 8 24 -1 24 -14z m-280 -224 c-7 -8 -10 -26 -8 -40 6 -27 -9 -33 -42 -15 -24 13 -16 36 19 55 34 19 46 19 31 0z m138 6 l24 -6 -29 -30 -28 -30 -3 25 c-2 14 -9 31 -14 38 -12 13 9 15 50 3z m302 -6 c-7 -9 -10 -25 -5 -42 6 -24 5 -25 -12 -13 -10 8 -26 23 -35 35 -16 19 -16 20 5 27 12 3 30 6 41 7 15 1 16 -2 6 -14z m113 3 c37 -19 49 -41 30 -55 -9 -7 -25 -13 -35 -13 -15 0 -17 4 -9 18 7 14 6 25 -5 40 -17 25 -12 27 19 10z m-273 -282 c0 -8 -4 -17 -9 -21 -12 -7 -24 12 -16 25 9 15 25 12 25 -4z"/>
 <path d="M1160 1985 c0 -8 14 -58 31 -112 25 -77 59 -236 59 -275 0 -5 7 -8 15 -8 8 0 15 4 15 9 0 5 15 14 33 22 17 7 34 16 37 19 10 12 198 71 285 89 136 28 166 48 204 131 17 39 31 86 31 105 l0 35 -355 0 c-308 0 -355 -2 -355 -15z"/>
 <path d="M865 1870 c9 -16 18 -30 21 -30 2 0 -2 14 -11 30 -9 17 -18 30 -21 30 -2 0 2 -13 11 -30z"/>
 <path d="M1236 1554 c-10 -25 1 -29 14 -5 6 12 7 21 1 21 -5 0 -12 -7 -15 -16z"/>
 </g>
<g id="layer104" fill="#d5cfd3" stroke="none">
 <path d="M123 1961 c3 -22 19 -71 37 -108 28 -60 37 -71 78 -90 26 -12 76 -27 112 -33 75 -13 283 -80 288 -92 2 -4 12 -8 22 -8 20 0 58 -32 79 -65 12 -19 12 -19 6 -1 -9 28 13 156 46 271 16 55 32 115 35 133 l7 32 -358 0 -358 0 6 -39z"/>
 <path d="M920 1978 c1 -13 7 -41 15 -63 14 -39 14 -40 -12 -61 -22 -17 -24 -23 -14 -41 6 -12 23 -31 38 -43 29 -23 29 -24 -29 -56 -16 -8 -28 -17 -28 -20 0 -3 21 6 46 21 28 16 55 25 70 22 13 -2 21 0 18 4 -2 4 12 24 33 43 l38 35 -31 33 c-25 26 -30 38 -24 58 4 14 10 40 13 58 l7 32 -70 0 c-66 0 -70 -1 -70 -22z"/>
 <path d="M1160 1985 c0 -8 14 -58 31 -112 25 -77 59 -236 59 -275 0 -5 7 -8 15 -8 8 0 15 4 15 9 0 5 15 14 33 22 17 7 34 16 37 19 10 12 198 71 285 89 136 28 166 48 204 131 17 39 31 86 31 105 l0 35 -355 0 c-308 0 -355 -2 -355 -15z"/>
 <path d="M865 1870 c9 -16 18 -30 21 -30 2 0 -2 14 -11 30 -9 17 -18 30 -21 30 -2 0 2 -13 11 -30z"/>
 <path d="M1040 1725 c0 -2 24 -17 53 -31 28 -15 66 -35 82 -46 l30 -20 -25 22 c-26 23 -140 84 -140 75z"/>
 <path d="M822 1663 c-7 -2 -17 -14 -23 -26 -9 -19 -8 -20 3 -7 8 8 20 21 28 28 15 13 13 14 -8 5z"/>
 <path d="M893 1626 c-22 -8 -54 -23 -71 -34 -16 -12 -32 -19 -36 -15 -3 3 -6 -5 -6 -20 0 -14 -4 -29 -10 -32 -5 -3 -10 -15 -10 -26 0 -23 -1 -24 -81 -91 -62 -52 -84 -89 -94 -160 -6 -41 -10 -48 -30 -48 -23 0 -32 -10 -122 -153 -30 -46 -33 -59 -33 -125 0 -65 3 -76 25 -96 20 -18 23 -29 19 -57 -3 -20 -1 -75 5 -124 9 -72 19 -106 52 -173 23 -46 54 -95 69 -110 40 -40 135 -104 225 -152 l80 -42 130 4 130 4 74 41 c95 52 177 109 217 151 69 72 113 214 114 369 0 65 2 73 26 92 23 18 25 27 26 93 2 70 0 76 -39 133 -23 33 -53 79 -67 103 -16 26 -34 42 -45 42 -16 0 -22 12 -32 57 -14 63 -63 133 -121 172 -46 32 -58 52 -65 112 -3 27 -10 49 -14 49 -5 0 -9 -5 -9 -11 0 -6 -13 -1 -29 11 -69 49 -187 64 -278 36z m192 -97 c22 -6 50 -19 61 -28 213 -164 202 -148 262 -373 36 -137 38 -148 21 -148 -23 0 -23 -7 -3 -106 14 -69 15 -98 5 -229 -17 -209 -25 -239 -76 -294 -24 -25 -69 -61 -99 -80 l-57 -34 -38 41 c-46 51 -94 72 -163 72 -68 -1 -126 -27 -166 -76 l-32 -39 -45 25 c-69 38 -141 105 -158 148 -9 21 -23 118 -32 215 -16 163 -16 181 -1 248 20 90 20 109 0 109 -12 0 -15 6 -10 23 3 12 23 89 43 170 41 164 44 169 151 253 35 27 74 57 86 67 53 43 166 59 251 36z m-515 -356 c0 -21 -22 -82 -28 -81 -4 1 -24 -13 -44 -32 -41 -36 -47 -63 -22 -98 8 -12 13 -28 11 -35 -3 -6 -14 8 -25 32 -24 52 -17 74 37 125 17 16 28 33 25 38 -7 11 23 58 36 58 6 0 10 -3 10 -7z m886 -18 c9 -14 14 -28 10 -32 -3 -3 12 -26 34 -49 25 -27 40 -53 40 -69 0 -31 -31 -96 -37 -78 -3 7 3 23 11 35 26 37 19 59 -34 110 -27 26 -50 54 -50 62 0 8 -3 21 -6 30 -10 25 14 18 32 -9z m-925 -126 c-6 -16 -10 -18 -10 -7 -1 22 12 55 16 42 2 -6 -1 -22 -6 -35z m959 -20 c0 -17 -20 -29 -20 -11 0 4 -3 18 -7 32 -6 22 -5 24 10 11 9 -7 17 -22 17 -32z m-976 -2 c4 -19 3 -26 -4 -22 -5 3 -10 18 -10 32 0 32 5 28 14 -10z m-47 -115 c-9 -11 -12 -11 -18 5 -4 10 -8 29 -8 43 -1 25 -1 25 18 -5 13 -22 15 -34 8 -43z m1078 19 c-7 -32 -20 -41 -28 -18 -4 11 24 59 31 52 2 -2 1 -17 -3 -34z m9 -62 c-8 -13 -21 -11 -27 5 -4 10 0 12 14 9 10 -3 16 -9 13 -14z"/>
 <path d="M955 1405 c-39 -18 -58 -34 -79 -66 l-17 -27 89 -1 c91 -1 143 -11 168 -32 23 -19 27 -4 9 33 -22 43 -53 76 -87 94 -33 17 -45 17 -83 -1z m107 -36 c24 -22 29 -32 19 -36 -11 -5 -11 -7 0 -15 9 -5 0 -6 -25 -2 -22 4 -63 7 -92 8 -29 0 -50 4 -48 8 3 4 23 8 44 8 57 0 59 18 3 22 l-48 3 30 17 c46 26 80 22 117 -13z"/>
 <path d="M935 1190 l-29 -30 19 -73 c32 -129 45 -128 23 2 -11 65 -10 72 7 91 13 14 28 20 43 17 14 -3 21 0 19 7 -8 24 -52 17 -82 -14z"/>
 <path d="M679 932 c-19 -17 -30 -34 -25 -39 5 -4 11 -2 13 5 5 12 54 42 69 42 3 0 1 -7 -6 -15 -7 -8 -10 -27 -7 -41 4 -22 2 -25 -17 -21 -11 2 -29 8 -40 12 -31 13 -14 -18 19 -34 l28 -14 -26 -14 c-50 -26 -29 -33 93 -33 66 0 120 4 120 9 0 10 -53 31 -84 32 -12 0 3 7 33 14 78 19 98 51 62 96 -17 21 -29 24 -109 27 -88 4 -90 3 -123 -26z m211 -3 c0 -3 -12 -19 -27 -35 l-28 -29 -3 25 c-2 14 -8 31 -14 37 -8 10 -1 12 31 10 22 -1 41 -5 41 -8z"/>
 <path d="M1098 944 c-36 -19 -46 -58 -23 -84 30 -33 177 -45 233 -18 31 15 45 46 16 33 -11 -4 -29 -10 -40 -12 -19 -4 -21 -1 -17 21 3 14 0 33 -7 41 -7 8 -9 15 -6 15 14 0 51 -23 63 -39 6 -9 15 -12 20 -8 4 5 -7 22 -25 38 -30 27 -38 29 -110 29 -48 -1 -87 -6 -104 -16z m72 -19 c-7 -9 -10 -26 -5 -42 6 -24 5 -25 -12 -13 -20 16 -52 52 -53 60 0 3 19 6 41 7 35 2 39 1 29 -12z"/>
 <path d="M1102 773 c6 -32 94 -83 143 -83 53 0 105 38 105 76 0 30 -11 30 -47 0 -44 -37 -65 -39 -114 -12 -70 37 -92 42 -87 19z"/>
 <path d="M1236 1554 c-10 -25 1 -29 14 -5 6 12 7 21 1 21 -5 0 -12 -7 -15 -16z"/>
 </g>
<g id="layer105" fill="#e5bbb3" stroke="none">
 <path d="M123 1961 c3 -22 19 -71 37 -108 28 -60 37 -71 78 -90 26 -12 76 -27 112 -33 75 -13 283 -80 288 -92 2 -4 12 -8 23 -8 11 0 33 -13 48 -29 l29 -30 12 87 c6 48 24 130 40 182 15 52 31 110 35 128 l7 32 -358 0 -357 0 6 -39z"/>
 <path d="M920 1981 c0 -10 7 -38 15 -62 16 -44 16 -44 -11 -65 -25 -20 -25 -23 -10 -46 9 -13 30 -34 47 -47 36 -27 57 -21 106 31 l28 29 -31 29 -32 28 13 61 13 61 -69 0 c-61 0 -69 -2 -69 -19z"/>
 <path d="M1160 1992 c0 -4 15 -60 34 -124 19 -65 39 -150 45 -189 11 -81 22 -99 45 -76 9 9 26 19 39 23 12 4 24 10 27 13 10 13 196 71 285 90 136 28 166 48 204 131 17 39 31 86 31 105 l0 35 -355 0 c-195 0 -355 -3 -355 -8z"/>
 <path d="M895 1626 c-72 -22 -110 -55 -125 -105 -8 -25 -18 -50 -24 -56 -6 -5 -36 -31 -67 -57 -62 -52 -84 -89 -94 -160 -6 -41 -10 -48 -30 -48 -23 0 -32 -10 -122 -153 -30 -46 -33 -59 -33 -125 0 -65 3 -76 25 -96 20 -18 23 -29 19 -57 -3 -20 -1 -75 5 -124 9 -72 19 -106 52 -173 23 -46 54 -95 69 -110 40 -40 135 -104 225 -152 l80 -42 130 4 130 4 74 41 c95 52 177 109 217 151 69 72 113 214 114 369 0 65 2 73 26 92 23 18 25 27 26 93 2 70 0 76 -39 133 -23 33 -53 79 -67 103 -16 26 -34 42 -45 42 -16 0 -22 12 -32 57 -14 63 -63 133 -121 172 -46 32 -58 52 -65 112 -3 27 -10 49 -14 49 -5 0 -9 -5 -9 -11 0 -6 -13 -1 -29 11 -69 48 -187 64 -276 36z m190 -97 c22 -6 50 -19 61 -28 213 -164 202 -148 262 -373 36 -137 38 -148 21 -148 -23 0 -23 -7 -3 -106 14 -69 15 -98 5 -229 -17 -209 -25 -239 -76 -294 -24 -25 -69 -61 -99 -80 l-57 -34 -38 41 c-46 51 -94 72 -163 72 -68 -1 -126 -27 -166 -76 l-32 -39 -45 25 c-69 38 -141 105 -158 148 -9 21 -23 118 -32 215 -16 163 -16 181 -1 248 20 90 20 109 0 109 -12 0 -15 6 -10 23 3 12 23 89 43 170 41 164 44 169 151 253 35 27 74 57 86 67 53 43 166 59 251 36z m-515 -356 c0 -21 -22 -82 -28 -81 -4 1 -24 -13 -44 -32 -41 -36 -47 -63 -22 -98 8 -12 13 -28 11 -35 -3 -6 -14 8 -25 32 -24 52 -17 74 37 125 17 16 28 33 25 38 -7 11 23 58 36 58 6 0 10 -3 10 -7z m886 -18 c9 -14 14 -28 10 -32 -3 -3 12 -26 34 -49 25 -27 40 -53 40 -69 0 -31 -31 -96 -37 -78 -3 7 3 23 11 35 26 37 19 59 -34 110 -27 26 -50 54 -50 62 0 8 -3 21 -6 30 -10 25 14 18 32 -9z m-925 -126 c-6 -16 -10 -18 -10 -7 -1 22 12 55 16 42 2 -6 -1 -22 -6 -35z m959 -20 c0 -17 -20 -29 -20 -11 0 4 -3 18 -7 32 -6 22 -5 24 10 11 9 -7 17 -22 17 -32z m-976 -2 c4 -19 3 -26 -4 -22 -5 3 -10 18 -10 32 0 32 5 28 14 -10z m-47 -115 c-9 -11 -12 -11 -18 5 -4 10 -8 29 -8 43 -1 25 -1 25 18 -5 13 -22 15 -34 8 -43z m1078 19 c-7 -32 -20 -41 -28 -18 -4 11 24 59 31 52 2 -2 1 -17 -3 -34z m9 -62 c-8 -13 -21 -11 -27 5 -4 10 0 12 14 9 10 -3 16 -9 13 -14z"/>
 <path d="M955 1405 c-39 -18 -58 -34 -79 -66 l-17 -27 87 -1 c48 -1 98 -4 113 -6 22 -5 23 -4 6 4 -11 5 -50 10 -87 10 -38 1 -68 5 -68 10 0 5 21 14 48 19 l47 11 -42 -2 c-52 -3 -57 15 -10 34 42 18 56 18 90 -1 29 -15 65 -60 48 -60 -16 0 -1 -35 21 -49 28 -18 32 -8 13 31 -22 43 -53 76 -87 94 -33 17 -45 17 -83 -1z"/>
 <path d="M935 1190 l-29 -30 19 -73 c32 -129 45 -128 23 2 -11 65 -10 72 7 91 13 14 28 20 43 17 14 -3 21 0 19 7 -8 24 -52 17 -82 -14z"/>
 <path d="M679 932 c-19 -17 -31 -34 -27 -38 4 -4 15 2 25 14 10 11 28 23 41 27 21 6 22 5 11 -13 -10 -16 -10 -26 -2 -45 11 -24 11 -25 -15 -17 -15 4 -35 11 -46 16 -31 12 -14 -19 19 -35 l28 -14 -26 -14 c-50 -26 -29 -33 93 -33 66 0 120 4 120 9 0 10 -53 31 -84 32 -12 0 3 7 33 14 78 19 98 51 62 96 -17 21 -29 24 -109 27 -88 4 -90 3 -123 -26z m211 1 c-1 -10 -30 -45 -53 -63 -17 -12 -18 -11 -12 13 5 17 2 33 -5 42 -11 13 -7 15 29 15 22 0 41 -3 41 -7z"/>
 <path d="M1098 944 c-36 -19 -46 -58 -23 -84 30 -33 177 -45 233 -18 31 15 45 46 16 33 -11 -4 -29 -10 -40 -12 -19 -4 -21 -1 -17 21 3 14 0 33 -7 41 -7 8 -9 15 -6 15 15 0 64 -30 69 -42 2 -7 8 -9 13 -5 5 5 -5 21 -24 38 -30 27 -38 29 -110 29 -48 -1 -87 -6 -104 -16z m72 -19 c-7 -9 -10 -25 -6 -40 6 -23 4 -25 -11 -16 -22 12 -53 48 -53 61 0 6 19 10 41 10 36 0 40 -2 29 -15z"/>
 <path d="M1102 773 c6 -32 94 -83 143 -83 53 0 105 38 105 76 0 30 -11 30 -47 0 -44 -37 -65 -39 -114 -12 -70 37 -92 42 -87 19z"/>
 </g>
<g id="layer106" fill="#cfc9b1" stroke="none">
 <path d="M123 1961 c3 -22 19 -71 37 -108 28 -60 37 -71 78 -90 26 -12 76 -27 112 -33 75 -13 283 -80 288 -92 2 -4 12 -8 23 -8 11 0 33 -13 48 -29 l29 -30 12 87 c6 48 24 130 40 182 15 52 31 110 35 128 l7 32 -358 0 -357 0 6 -39z"/>
 <path d="M920 1981 c0 -10 7 -38 15 -62 16 -44 16 -44 -11 -65 -25 -20 -25 -23 -10 -46 9 -13 30 -34 47 -47 36 -27 57 -21 106 31 l28 29 -31 29 -32 28 13 61 13 61 -69 0 c-61 0 -69 -2 -69 -19z"/>
 <path d="M1160 1992 c0 -4 15 -60 34 -124 19 -65 39 -150 45 -189 11 -81 22 -99 45 -76 9 9 26 19 39 23 12 4 24 10 27 13 10 13 196 71 285 90 136 28 166 48 204 131 17 39 31 86 31 105 l0 35 -355 0 c-195 0 -355 -3 -355 -8z"/>
 <path d="M907 1626 c-27 -7 -61 -23 -77 -35 -16 -11 -34 -21 -40 -21 -5 0 -10 -11 -10 -24 0 -14 -4 -28 -10 -31 -5 -3 -10 -13 -10 -21 0 -17 -3 -20 -81 -86 -62 -52 -84 -89 -94 -160 -6 -41 -10 -48 -30 -48 -23 0 -32 -10 -122 -153 -30 -46 -33 -59 -33 -125 0 -65 3 -76 25 -96 20 -18 23 -29 19 -57 -3 -20 -1 -75 5 -124 9 -72 19 -106 52 -173 23 -46 54 -95 69 -110 40 -40 135 -104 225 -152 l80 -42 130 4 130 4 74 41 c95 52 177 109 217 151 69 72 113 214 114 369 0 65 2 73 26 92 23 18 25 27 26 93 2 70 0 76 -39 133 -23 33 -53 79 -67 103 -16 26 -34 42 -45 42 -16 0 -22 12 -32 57 -14 63 -63 133 -121 172 -46 32 -58 52 -65 112 -4 36 -9 47 -18 39 -8 -6 -22 -2 -46 14 -36 25 -119 46 -172 45 -18 0 -54 -6 -80 -13z m194 -100 c43 -15 200 -135 235 -180 32 -40 119 -366 98 -366 -23 0 -24 -17 -8 -92 12 -55 14 -101 9 -183 -8 -157 -24 -274 -40 -304 -19 -38 -105 -115 -155 -141 l-43 -22 -41 41 c-77 76 -162 91 -254 45 -30 -15 -63 -41 -76 -60 l-23 -34 -59 36 c-74 44 -131 99 -151 144 -8 20 -22 112 -31 212 -15 169 -15 180 3 258 18 79 18 83 1 95 -16 12 -15 23 24 176 22 90 47 174 55 186 24 36 202 174 243 189 47 17 166 17 213 0z m-531 -360 c0 -7 -4 -26 -9 -42 -5 -16 -17 -55 -26 -87 -9 -32 -20 -55 -25 -52 -15 9 -12 53 4 62 7 4 16 18 20 29 5 17 -2 14 -34 -16 -44 -41 -48 -58 -23 -101 14 -24 15 -33 5 -49 -6 -11 -12 -29 -12 -39 0 -25 -18 -37 -33 -22 -8 8 -6 11 7 11 13 0 16 5 11 18 -4 9 -12 39 -17 66 -9 44 -7 51 19 88 15 22 37 55 47 72 10 17 25 41 33 54 15 24 33 29 33 8z m900 -37 c14 -25 37 -60 51 -79 34 -46 45 -65 31 -57 -7 5 -10 -11 -9 -45 1 -29 -2 -61 -7 -70 -6 -14 -4 -18 9 -18 9 0 13 -4 10 -10 -12 -20 -23 -9 -39 39 -14 44 -14 52 -1 78 22 42 19 58 -20 87 -33 26 -51 22 -20 -4 8 -7 15 -23 15 -36 0 -41 -16 -34 -28 14 -7 26 -19 67 -27 92 -18 55 -19 63 -2 58 6 -3 23 -25 37 -49z"/>
 <path d="M950 1402 c-29 -13 -56 -37 -74 -64 l-18 -27 36 1 c23 1 32 4 24 9 -17 11 -10 15 42 28 l45 10 -42 -2 c-52 -3 -56 13 -10 36 31 15 28 23 -3 9z"/>
 <path d="M1043 1391 c31 -20 63 -61 49 -61 -17 0 -2 -35 20 -49 30 -18 31 -9 6 39 -24 44 -71 90 -91 90 -7 0 1 -8 16 -19z"/>
 <path d="M939 1190 c-32 -31 -32 -31 -2 -138 8 -30 16 -52 18 -50 2 2 -2 38 -8 80 -10 70 -9 79 8 98 10 11 27 20 37 20 11 0 16 5 13 10 -11 18 -36 11 -66 -20z"/>
 <path d="M705 951 c-25 -11 -60 -49 -52 -57 4 -4 14 2 24 14 10 11 28 23 41 27 21 6 22 5 11 -13 -10 -16 -10 -26 -2 -45 11 -24 11 -25 -15 -17 -15 4 -35 11 -44 15 -31 13 -19 -14 14 -31 56 -29 218 -3 210 34 -1 7 3 11 9 10 19 -5 22 22 4 29 -11 4 -24 -1 -34 -13 -9 -11 -24 -26 -34 -34 -17 -12 -18 -11 -12 13 5 17 2 33 -5 42 -11 13 -7 15 21 16 l34 1 -40 9 c-51 10 -104 10 -130 0z"/>
 <path d="M1145 951 l-30 -9 34 -1 c28 -1 32 -3 21 -16 -7 -9 -10 -25 -6 -40 6 -23 4 -25 -11 -16 -10 5 -26 19 -35 30 -20 23 -33 26 -43 10 -10 -15 23 -48 64 -65 44 -18 134 -18 171 1 32 17 43 42 13 30 -10 -4 -28 -10 -39 -12 -19 -4 -21 -1 -17 21 3 14 0 33 -7 41 -7 8 -9 15 -6 15 15 0 64 -30 69 -42 2 -7 8 -9 13 -5 4 4 -4 20 -19 34 -21 22 -37 27 -84 29 -32 2 -71 -1 -88 -5z"/>
 <path d="M678 809 c-10 -5 -18 -14 -18 -19 0 -13 227 -13 234 -1 16 26 -176 44 -216 20z"/>
 <path d="M1100 777 c0 -14 35 -47 50 -47 6 0 10 -4 10 -8 0 -15 49 -32 90 -32 47 0 100 40 100 76 0 30 -5 30 -44 0 -47 -36 -67 -38 -111 -15 -58 30 -95 40 -95 26z"/>
 <path d="M440 986 c0 -18 27 -76 35 -76 4 0 -24 80 -32 89 -1 2 -3 -3 -3 -13z"/>
 </g>
<g id="layer107" fill="#bcc2c4" stroke="none">
 <path d="M123 1961 c3 -22 19 -71 37 -108 28 -60 37 -71 78 -90 26 -12 76 -27 112 -33 75 -13 283 -80 288 -92 2 -4 12 -8 23 -8 11 0 33 -13 48 -29 l29 -30 12 87 c6 48 24 130 40 182 15 52 31 110 35 128 l7 32 -358 0 -357 0 6 -39z"/>
 <path d="M920 1981 c0 -10 7 -38 15 -62 16 -44 16 -44 -11 -65 -25 -20 -25 -23 -10 -46 9 -13 30 -34 47 -47 36 -27 57 -21 106 31 l28 29 -31 29 -32 28 13 61 13 61 -69 0 c-61 0 -69 -2 -69 -19z"/>
 <path d="M1160 1992 c0 -4 15 -60 34 -124 19 -65 39 -150 45 -189 11 -81 22 -99 45 -76 9 9 26 19 39 23 12 4 24 10 27 13 10 13 196 71 285 90 136 28 166 48 204 131 17 39 31 86 31 105 l0 35 -355 0 c-195 0 -355 -3 -355 -8z"/>
 <path d="M907 1626 c-27 -7 -61 -23 -77 -35 -16 -11 -34 -21 -40 -21 -5 0 -10 -11 -10 -24 0 -14 -4 -28 -10 -31 -5 -3 -10 -13 -10 -21 0 -17 -3 -20 -81 -86 -62 -52 -84 -89 -94 -160 -6 -41 -10 -48 -30 -48 -23 0 -32 -10 -122 -153 -30 -46 -33 -59 -33 -125 0 -65 3 -76 25 -96 20 -18 23 -29 19 -57 -3 -20 -1 -75 5 -124 9 -72 19 -106 52 -173 23 -46 54 -95 69 -110 40 -40 135 -104 225 -152 l80 -42 130 4 130 4 74 41 c95 52 177 109 217 151 69 72 113 214 114 369 0 65 2 73 26 92 23 18 25 27 26 93 2 70 0 76 -39 133 -23 33 -53 79 -67 103 -16 25 -34 42 -45 42 -15 0 -22 12 -31 53 -15 64 -50 118 -110 166 -62 50 -68 59 -76 114 -5 32 -11 47 -19 43 -7 -2 -28 6 -46 18 -36 25 -119 46 -172 45 -18 0 -54 -6 -80 -13z m194 -100 c43 -15 200 -135 235 -180 32 -40 119 -366 98 -366 -23 0 -24 -17 -8 -92 12 -55 14 -101 9 -183 -8 -157 -24 -274 -40 -304 -19 -38 -105 -115 -155 -141 l-43 -22 -41 41 c-77 76 -162 91 -254 45 -30 -15 -63 -41 -76 -60 l-23 -34 -59 36 c-74 44 -131 99 -151 144 -8 20 -22 112 -31 212 -15 169 -15 180 3 258 18 79 18 83 1 95 -16 12 -15 23 24 176 22 90 47 174 55 186 24 36 202 174 243 189 47 17 166 17 213 0z m-531 -360 c0 -7 -4 -26 -9 -42 -5 -16 -17 -55 -26 -87 -9 -32 -20 -55 -25 -52 -15 9 -12 53 4 62 7 4 16 18 20 29 5 17 -2 14 -34 -16 -44 -41 -48 -58 -23 -101 14 -24 15 -33 5 -49 -6 -11 -12 -29 -12 -39 0 -25 -18 -37 -33 -22 -8 8 -6 11 7 11 13 0 16 5 11 18 -4 9 -12 39 -17 66 -9 44 -7 51 19 88 15 22 37 55 47 72 10 17 25 41 33 54 15 24 33 29 33 8z m900 -37 c14 -25 37 -60 51 -79 34 -46 45 -65 31 -57 -7 5 -10 -11 -9 -45 1 -29 -2 -61 -7 -70 -6 -14 -4 -18 9 -18 9 0 13 -4 10 -10 -12 -20 -23 -9 -39 39 -14 44 -14 52 -1 78 22 42 19 58 -20 87 -33 26 -51 22 -20 -4 8 -7 15 -23 15 -36 0 -41 -16 -34 -28 14 -7 26 -19 67 -27 92 -18 55 -19 63 -2 58 6 -3 23 -25 37 -49z"/>
 <path d="M1050 1397 c0 -10 41 -49 46 -45 2 3 -7 15 -21 28 -14 13 -25 20 -25 17z"/>
 <path d="M877 1340 l-18 -29 36 1 c22 1 31 4 23 9 -17 11 -10 15 42 28 l45 10 -42 -2 c-24 -1 -43 1 -43 5 0 19 -27 5 -43 -22z"/>
 <path d="M1094 1334 c-17 -7 -6 -38 18 -53 11 -7 22 -11 24 -8 4 3 -25 68 -29 66 -1 0 -7 -3 -13 -5z"/>
 <path d="M939 1190 c-32 -31 -32 -31 -2 -138 8 -30 16 -52 18 -50 2 2 -2 38 -8 80 -10 70 -9 79 8 98 10 11 27 20 37 20 11 0 16 5 13 10 -11 18 -36 11 -66 -20z"/>
 <path d="M705 951 c-25 -11 -60 -49 -52 -57 4 -4 14 2 24 14 10 11 28 23 41 27 21 6 22 5 11 -13 -10 -16 -10 -26 -2 -45 11 -24 11 -25 -15 -17 -15 4 -35 11 -44 15 -31 13 -19 -14 14 -31 56 -29 218 -3 210 34 -1 7 3 11 9 10 19 -5 22 22 4 29 -11 4 -24 -1 -34 -13 -9 -11 -24 -26 -34 -34 -17 -12 -18 -11 -12 13 5 17 2 33 -5 42 -11 13 -7 15 21 16 l34 1 -40 9 c-51 10 -104 10 -130 0z"/>
 <path d="M1145 951 l-30 -9 34 -1 c28 -1 32 -3 21 -16 -7 -9 -10 -25 -6 -40 6 -23 4 -25 -11 -16 -10 5 -26 19 -35 30 -20 23 -33 26 -43 10 -10 -15 23 -48 64 -65 44 -18 134 -18 171 1 32 17 42 42 13 30 -44 -18 -73 -23 -73 -14 0 6 -4 7 -10 4 -5 -3 -10 -2 -10 4 0 5 5 13 10 16 6 3 10 1 10 -4 0 -6 5 -11 10 -11 14 0 13 43 -2 58 -7 7 -9 12 -5 12 16 0 65 -30 70 -42 2 -7 8 -9 13 -5 4 4 -4 20 -19 34 -21 22 -37 27 -84 29 -32 2 -71 -1 -88 -5z"/>
 <path d="M678 809 c-10 -5 -18 -14 -18 -19 0 -13 227 -13 234 -1 16 26 -176 44 -216 20z"/>
 <path d="M1100 777 c0 -14 35 -47 50 -47 6 0 10 -4 10 -8 0 -15 49 -32 90 -32 47 0 100 40 100 76 0 30 -5 30 -44 0 -47 -36 -67 -38 -111 -15 -58 30 -95 40 -95 26z"/>
 <path d="M440 986 c0 -18 27 -76 35 -76 4 0 -24 80 -32 89 -1 2 -3 -3 -3 -13z"/>
 </g>
<g id="layer108" fill="#dab2a8" stroke="none">
 <path d="M123 1961 c3 -22 19 -71 37 -108 28 -60 37 -71 78 -90 26 -12 76 -27 112 -33 75 -13 283 -80 288 -92 2 -4 12 -8 22 -8 11 0 31 -11 46 -25 15 -14 29 -24 31 -22 1 2 8 42 14 88 6 46 24 125 39 174 15 50 31 105 35 123 l7 32 -358 0 -357 0 6 -39z"/>
 <path d="M920 1987 c0 -8 7 -36 15 -63 15 -49 15 -49 -11 -72 l-27 -23 44 -45 c24 -24 48 -44 54 -44 7 0 32 18 56 41 l44 41 -32 28 c-29 26 -31 31 -22 67 18 81 17 83 -56 83 -48 0 -65 -4 -65 -13z"/>
 <path d="M1160 1991 c0 -5 16 -61 35 -124 19 -64 38 -138 41 -164 8 -62 23 -113 35 -113 5 0 9 4 9 9 0 5 15 14 33 22 17 7 34 16 37 19 10 12 198 71 285 89 136 28 166 48 204 131 17 39 31 86 31 105 l0 35 -355 0 c-196 0 -355 -4 -355 -9z"/>
 <path d="M907 1626 c-27 -7 -61 -23 -77 -35 -16 -11 -34 -21 -40 -21 -5 0 -10 -11 -10 -24 0 -14 -4 -28 -10 -31 -5 -3 -10 -13 -10 -21 0 -17 -3 -20 -81 -86 -62 -52 -84 -89 -94 -160 -6 -41 -10 -48 -30 -48 -23 0 -32 -10 -122 -153 -30 -46 -33 -59 -33 -125 0 -65 3 -76 25 -96 20 -18 23 -29 19 -57 -3 -20 -1 -75 5 -124 9 -72 19 -106 52 -173 23 -46 54 -95 69 -110 40 -40 135 -104 225 -152 l80 -42 130 4 130 4 74 41 c95 52 177 109 217 151 69 72 113 214 114 369 0 65 2 73 26 92 23 18 25 27 26 93 2 70 0 76 -39 133 -23 33 -53 79 -67 103 -16 26 -34 42 -45 42 -16 0 -22 12 -32 57 -14 63 -63 133 -121 173 -46 31 -68 68 -68 115 0 28 -4 36 -14 32 -7 -3 -29 5 -47 17 -36 25 -119 46 -172 45 -18 0 -54 -6 -80 -13z m194 -100 c43 -15 200 -135 235 -180 32 -40 119 -366 98 -366 -23 0 -24 -17 -8 -92 12 -55 14 -101 9 -183 -8 -157 -24 -274 -40 -304 -19 -38 -105 -115 -155 -141 l-43 -22 -41 41 c-77 76 -162 91 -254 45 -30 -15 -63 -41 -76 -60 l-23 -34 -59 36 c-74 44 -131 99 -151 144 -8 20 -22 112 -31 212 -15 169 -15 180 3 258 18 79 18 83 1 95 -16 12 -15 23 24 176 22 90 47 174 55 186 24 36 202 174 243 189 47 17 166 17 213 0z m-531 -360 c0 -7 -4 -26 -9 -42 -5 -16 -17 -55 -26 -87 -9 -32 -20 -55 -25 -52 -15 9 -12 53 4 62 7 4 16 18 20 29 5 17 -2 14 -34 -16 -44 -41 -48 -58 -23 -101 14 -24 15 -33 5 -49 -6 -11 -12 -29 -12 -39 0 -25 -18 -37 -33 -22 -8 8 -6 11 7 11 13 0 16 5 11 18 -4 9 -12 39 -17 66 -9 44 -7 51 19 88 15 22 37 55 47 72 10 17 25 41 33 54 15 24 33 29 33 8z m900 -37 c14 -25 37 -60 51 -79 34 -46 45 -65 31 -57 -7 5 -10 -11 -9 -45 1 -29 -2 -61 -7 -70 -6 -14 -4 -18 9 -18 9 0 13 -4 10 -10 -12 -20 -23 -9 -39 39 -14 44 -14 52 -1 78 22 42 19 58 -20 87 -33 26 -51 22 -20 -4 8 -7 15 -23 15 -36 0 -41 -16 -34 -28 14 -7 26 -19 67 -27 92 -18 55 -19 63 -2 58 6 -3 23 -25 37 -49z"/>
 <path d="M877 1340 l-18 -29 38 1 c21 1 32 3 25 6 -7 2 -10 13 -6 28 9 35 -17 31 -39 -6z"/>
 <path d="M1094 1334 c-17 -7 -6 -38 18 -53 11 -7 22 -11 24 -8 4 3 -25 68 -29 66 -1 0 -7 -3 -13 -5z"/>
 <path d="M939 1190 c-32 -31 -32 -31 -2 -138 8 -30 16 -52 18 -50 2 2 -2 38 -8 80 -10 70 -9 79 8 98 10 11 27 20 37 20 11 0 16 5 13 10 -11 18 -36 11 -66 -20z"/>
 <path d="M705 951 c-25 -11 -60 -49 -52 -57 4 -4 14 2 24 14 10 11 28 23 41 27 22 6 22 5 10 -14 -10 -17 -10 -25 0 -41 6 -11 12 -22 12 -25 0 -8 -53 6 -64 16 -13 12 -26 11 -26 -1 0 -5 14 -17 32 -26 57 -29 218 -3 210 35 -1 7 2 10 7 7 14 -9 25 14 13 26 -8 8 -22 2 -47 -21 -42 -36 -49 -38 -40 -11 3 10 1 28 -5 40 -10 18 -8 20 22 21 33 1 32 1 -7 10 -51 10 -104 10 -130 0z"/>
 <path d="M1145 951 l-30 -9 32 -1 c31 -1 32 -2 21 -26 -8 -19 -8 -28 2 -40 23 -27 -8 -16 -45 16 -27 24 -39 29 -47 21 -15 -15 15 -49 61 -68 64 -27 201 -9 201 26 0 13 -1 13 -45 -6 -43 -18 -51 -14 -33 15 10 17 10 25 0 42 -12 19 -12 20 10 14 13 -4 31 -16 41 -27 10 -12 21 -18 24 -14 4 4 -5 19 -20 33 -21 22 -37 27 -84 29 -32 2 -71 -1 -88 -5z"/>
 <path d="M678 809 c-10 -5 -18 -14 -18 -19 0 -13 227 -13 234 -1 16 26 -176 44 -216 20z"/>
 <path d="M1100 777 c0 -14 35 -47 50 -47 6 0 10 -4 10 -8 0 -15 49 -32 90 -32 47 0 100 40 100 76 0 30 -5 30 -44 0 -47 -36 -67 -38 -111 -15 -58 30 -95 40 -95 26z"/>
 <path d="M440 986 c0 -18 27 -76 35 -76 4 0 -24 80 -32 89 -1 2 -3 -3 -3 -13z"/>
 </g>
<g id="layer109" fill="#b4b3b1" stroke="none">
 <path d="M123 1961 c3 -22 19 -71 37 -108 28 -60 37 -71 78 -90 26 -12 76 -27 112 -33 75 -13 283 -80 288 -92 2 -4 12 -8 22 -8 11 0 31 -11 46 -25 15 -14 29 -24 31 -22 1 2 8 42 14 88 6 46 24 125 39 174 15 50 31 105 35 123 l7 32 -358 0 -357 0 6 -39z"/>
 <path d="M920 1987 c0 -8 7 -36 15 -63 15 -49 15 -49 -11 -72 l-27 -23 39 -40 c47 -49 72 -49 121 -3 l38 36 -32 28 c-29 26 -31 31 -22 67 18 81 17 83 -56 83 -48 0 -65 -4 -65 -13z"/>
 <path d="M1160 1991 c0 -5 16 -61 35 -124 19 -64 38 -138 41 -164 8 -62 23 -113 35 -113 5 0 9 4 9 9 0 5 15 14 33 22 17 7 34 16 37 19 10 12 198 71 285 89 136 28 166 48 204 131 17 39 31 86 31 105 l0 35 -355 0 c-196 0 -355 -4 -355 -9z"/>
 <path d="M808 1574 c-16 -8 -28 -23 -28 -34 0 -10 -4 -22 -10 -25 -5 -3 -10 -13 -10 -21 0 -17 -3 -20 -81 -86 -62 -52 -84 -89 -94 -160 -6 -41 -10 -48 -30 -48 -23 0 -32 -10 -122 -153 -30 -46 -33 -59 -33 -125 0 -65 3 -76 25 -96 20 -18 23 -29 19 -57 -3 -20 -1 -75 5 -124 9 -72 19 -106 52 -173 23 -46 54 -95 69 -110 40 -40 135 -104 225 -152 l80 -42 130 4 130 4 74 41 c95 52 177 109 217 151 69 72 113 214 114 369 0 65 2 73 26 92 23 18 25 27 26 93 2 70 0 76 -39 133 -23 33 -53 79 -67 103 -16 26 -34 42 -45 42 -16 0 -22 12 -32 57 -14 63 -63 133 -121 173 -44 30 -68 68 -68 108 0 17 -4 34 -10 37 -5 3 -10 1 -10 -5 0 -7 -9 -5 -22 4 -32 23 -330 22 -370 0z m215 -1 c-13 -2 -35 -2 -50 0 -16 2 -5 4 22 4 28 0 40 -2 28 -4z m82 -43 c38 -15 220 -156 240 -187 13 -19 105 -343 105 -369 0 -2 -9 -4 -21 -4 -15 0 -19 -5 -15 -17 26 -89 36 -182 27 -243 -5 -36 -12 -103 -16 -150 -11 -154 -28 -190 -126 -264 -86 -65 -95 -66 -150 -14 -94 90 -208 89 -300 -2 -52 -52 -58 -52 -133 -1 -118 81 -139 127 -156 332 -5 69 -12 133 -15 141 -3 8 1 48 10 89 9 41 18 86 22 102 5 23 2 27 -17 27 -18 0 -21 4 -16 23 4 12 25 92 47 177 37 140 44 159 77 193 50 51 171 143 213 161 40 18 184 21 224 6z m-539 -382 c-13 -67 -47 -168 -56 -168 -6 0 -10 16 -10 35 0 40 -15 46 -31 11 -9 -18 -7 -30 7 -57 10 -19 17 -36 16 -39 -1 -3 -8 -23 -16 -45 -14 -39 -35 -52 -44 -27 -2 7 0 11 5 10 14 -5 16 6 4 47 -20 73 -15 86 94 243 23 33 39 28 31 -10z m893 6 c12 -15 21 -31 21 -36 0 -5 19 -33 41 -63 40 -53 41 -57 34 -110 -3 -30 -11 -57 -16 -61 -5 -3 -7 -10 -3 -15 3 -5 10 -6 16 -3 6 4 9 1 6 -7 -9 -27 -30 -13 -45 30 -13 40 -13 47 2 81 13 30 15 42 6 59 -17 32 -31 25 -31 -14 0 -48 -14 -44 -30 8 -7 23 -19 62 -26 86 -24 76 -13 94 25 45z"/>
 <path d="M888 1353 c-26 -31 -30 -43 -14 -43 19 0 46 27 46 46 0 19 -14 18 -32 -3z"/>
 <path d="M1092 1331 c-11 -6 -8 -15 11 -37 31 -36 41 -29 19 13 -12 22 -21 30 -30 24z"/>
 <path d="M946 1195 c-30 -28 -34 -72 -11 -120 l15 -30 -5 30 c-13 90 -12 98 24 122 19 13 27 23 19 23 -8 0 -27 -11 -42 -25z"/>
 <path d="M714 949 c-33 -9 -71 -45 -61 -55 4 -4 14 2 24 14 10 11 28 23 41 27 22 6 22 5 10 -14 -10 -17 -10 -25 0 -41 6 -11 12 -22 12 -25 0 -8 -53 6 -64 16 -15 14 -26 11 -20 -5 3 -8 19 -19 36 -25 71 -25 173 -2 195 44 12 28 2 33 -17 9 -8 -8 -22 -20 -33 -25 -16 -9 -18 -8 -12 10 3 11 1 29 -5 41 -10 18 -8 20 16 20 43 0 24 7 -36 13 -30 3 -69 1 -86 -4z"/>
 <path d="M1165 950 c-31 -6 -34 -7 -13 -9 26 -1 27 -3 16 -26 -8 -19 -8 -28 2 -40 20 -24 -5 -18 -38 10 -39 33 -48 32 -23 -4 11 -15 34 -34 51 -41 41 -17 134 -8 160 15 28 25 20 28 -25 10 -43 -19 -52 -15 -33 14 10 17 10 25 0 42 -12 19 -12 20 10 14 13 -4 31 -16 41 -27 10 -12 20 -18 24 -14 11 11 -29 46 -66 56 -39 11 -46 11 -106 0z"/>
 <path d="M678 809 c-38 -22 -15 -29 97 -29 115 0 143 10 89 30 -33 13 -164 12 -186 -1z"/>
 <path d="M1301 760 c-24 -17 -49 -30 -56 -30 -6 0 -34 11 -61 25 -48 25 -84 32 -84 18 0 -5 24 -25 52 -45 68 -49 118 -52 166 -9 17 17 32 39 32 50 0 12 -1 21 -2 21 -2 0 -23 -14 -47 -30z"/>
 </g>
<g id="layer110" fill="#d4ac8f" stroke="none">
 <path d="M123 1961 c3 -22 19 -71 37 -108 28 -60 37 -71 78 -90 26 -12 76 -27 112 -33 75 -13 283 -80 288 -92 2 -4 12 -8 23 -8 10 0 28 -9 40 -21 29 -29 38 -16 50 67 9 63 38 183 59 244 4 14 11 37 14 53 l6 27 -356 0 -357 0 6 -39z"/>
 <path d="M920 1991 c0 -5 8 -32 17 -61 l17 -53 -28 -24 -29 -24 39 -40 c46 -47 70 -49 112 -8 39 38 40 53 7 75 -20 13 -25 23 -21 43 3 14 8 43 12 64 l6 37 -66 0 c-36 0 -66 -4 -66 -9z"/>
 <path d="M1160 1996 c0 -2 16 -59 35 -125 20 -67 38 -143 41 -169 8 -61 23 -112 35 -112 5 0 9 4 9 9 0 5 15 14 33 22 17 7 34 16 37 19 10 12 198 71 285 89 136 28 166 48 204 131 17 39 31 86 31 105 l0 35 -355 0 c-195 0 -355 -2 -355 -4z"/>
 <path d="M809 1575 c-18 -10 -29 -26 -33 -48 -7 -39 -19 -54 -97 -119 -62 -52 -84 -89 -94 -160 -6 -41 -10 -48 -30 -48 -23 0 -32 -10 -122 -153 -30 -46 -33 -59 -33 -125 0 -65 3 -76 25 -96 20 -18 23 -29 19 -57 -3 -20 -1 -75 5 -124 9 -72 19 -106 52 -173 23 -46 54 -95 69 -110 35 -35 128 -99 215 -148 l70 -39 140 0 140 0 74 41 c96 54 177 111 217 152 69 72 113 214 114 369 0 65 2 73 26 92 23 18 25 27 26 93 2 70 0 76 -39 133 -23 33 -53 79 -67 103 -16 26 -34 42 -45 42 -16 0 -22 12 -32 57 -14 63 -63 133 -121 173 -44 30 -68 68 -68 108 0 17 -4 34 -10 37 -5 3 -10 1 -10 -5 0 -7 -9 -5 -22 4 -31 22 -330 22 -369 1z m214 -2 c-13 -2 -35 -2 -50 0 -16 2 -5 4 22 4 28 0 40 -2 28 -4z m82 -43 c38 -15 220 -156 240 -187 13 -19 105 -343 105 -369 0 -2 -9 -4 -21 -4 -15 0 -19 -5 -15 -17 26 -89 36 -182 27 -243 -5 -36 -12 -103 -16 -150 -11 -154 -28 -190 -126 -264 -86 -65 -95 -66 -150 -14 -94 90 -208 89 -300 -2 -52 -52 -58 -52 -133 -1 -118 81 -139 127 -156 332 -5 69 -12 133 -15 141 -3 8 1 48 10 89 9 41 18 86 22 102 5 23 2 27 -17 27 -18 0 -21 4 -16 23 4 12 25 92 47 177 37 140 44 159 77 193 50 51 171 143 213 161 40 18 184 21 224 6z m-539 -382 c-13 -67 -47 -168 -56 -168 -6 0 -10 16 -10 35 0 40 -15 46 -31 11 -9 -18 -7 -30 7 -57 10 -19 17 -36 16 -39 -1 -3 -8 -23 -16 -45 -14 -39 -35 -52 -44 -27 -2 7 0 11 5 10 14 -5 16 6 4 47 -20 73 -15 86 94 243 23 33 39 28 31 -10z m893 6 c12 -15 21 -31 21 -36 0 -5 19 -33 41 -63 40 -53 41 -57 34 -110 -3 -30 -11 -57 -16 -61 -5 -3 -7 -10 -3 -15 3 -5 10 -6 16 -3 6 4 9 1 6 -7 -9 -27 -30 -13 -45 30 -13 40 -13 47 2 81 13 30 15 42 6 59 -17 32 -31 25 -31 -14 0 -48 -14 -44 -30 8 -7 23 -19 62 -26 86 -24 76 -13 94 25 45z"/>
 <path d="M887 1352 c-18 -20 -23 -42 -9 -42 18 0 46 40 36 50 -7 7 -16 4 -27 -8z"/>
 <path d="M1090 1322 c0 -13 31 -52 41 -52 5 0 3 14 -6 30 -14 28 -35 41 -35 22z"/>
 <path d="M946 1195 c-30 -28 -34 -72 -11 -120 l15 -30 -5 30 c-13 90 -12 98 24 122 19 13 27 23 19 23 -8 0 -27 -11 -42 -25z"/>
 <path d="M726 950 c-22 -4 -48 -18 -58 -30 -26 -32 -15 -36 15 -6 35 35 61 35 45 1 -9 -19 -9 -28 0 -37 18 -18 14 -30 -8 -24 -68 20 -66 20 -48 1 42 -44 190 -23 215 30 14 31 9 31 -29 0 -16 -14 -38 -25 -49 -25 -20 0 -26 15 -9 25 6 3 10 1 10 -6 0 -10 3 -10 11 -2 9 9 9 20 -1 42 -7 17 -16 31 -20 31 -5 0 -14 2 -22 4 -7 2 -31 0 -52 -4z"/>
 <path d="M1189 943 c-27 -31 -30 -42 -19 -63 15 -28 -2 -25 -38 5 -39 33 -48 32 -23 -4 11 -15 34 -34 51 -41 41 -17 136 -8 158 14 18 20 20 20 -48 0 -22 -6 -26 6 -10 22 7 7 8 19 1 37 -14 36 10 37 46 1 14 -14 28 -22 32 -19 10 11 -48 55 -72 55 -12 0 -31 3 -42 6 -13 3 -27 -2 -36 -13z"/>
 <path d="M678 809 c-38 -22 -15 -29 97 -29 115 0 143 10 89 30 -33 13 -164 12 -186 -1z"/>
 <path d="M1301 760 c-24 -17 -49 -30 -56 -30 -6 0 -34 11 -61 25 -48 25 -84 32 -84 18 0 -5 24 -25 52 -45 68 -49 118 -52 166 -9 17 17 32 39 32 50 0 12 -1 21 -2 21 -2 0 -23 -14 -47 -30z"/>
 </g>
<g id="layer111" fill="#d1988d" stroke="none">
 <path d="M123 1961 c3 -22 19 -71 37 -108 28 -60 37 -71 78 -90 26 -12 76 -27 112 -33 75 -13 283 -80 288 -92 2 -4 12 -8 23 -8 10 0 28 -9 40 -21 29 -29 38 -16 50 67 9 63 38 183 59 244 4 14 11 37 14 53 l6 27 -356 0 -357 0 6 -39z"/>
 <path d="M920 1991 c0 -5 8 -32 17 -61 l17 -53 -28 -24 -29 -24 39 -40 c46 -47 70 -49 112 -8 39 38 40 53 7 75 -20 13 -25 23 -21 43 3 14 8 43 12 64 l6 37 -66 0 c-36 0 -66 -4 -66 -9z"/>
 <path d="M1160 1996 c0 -2 16 -59 35 -125 20 -67 38 -143 41 -169 8 -61 23 -112 35 -112 5 0 9 4 9 9 0 5 15 14 33 22 17 7 34 16 37 19 10 12 198 71 285 89 136 28 166 48 204 131 17 39 31 86 31 105 l0 35 -355 0 c-195 0 -355 -2 -355 -4z"/>
 <path d="M1200 1573 c0 -5 -19 -7 -41 -5 -32 3 -40 1 -34 -9 6 -9 4 -10 -11 -4 -21 10 -264 17 -305 9 -21 -4 -28 -13 -33 -38 -7 -38 -19 -53 -97 -118 -62 -52 -84 -89 -94 -160 -6 -41 -10 -48 -30 -48 -23 0 -32 -10 -122 -153 -30 -46 -33 -59 -33 -125 0 -65 3 -76 25 -96 20 -18 23 -29 19 -57 -3 -20 -1 -75 5 -124 9 -72 19 -106 52 -173 23 -46 54 -95 69 -110 57 -57 224 -161 238 -148 7 7 8 7 -58 44 -71 39 -146 110 -164 154 -8 18 -17 65 -20 103 -4 39 -12 117 -17 175 -9 88 -8 116 5 173 20 86 20 107 0 107 -12 0 -15 6 -10 23 4 12 25 91 47 176 44 172 53 188 149 259 19 15 50 39 68 54 18 16 49 35 69 43 41 17 188 20 229 5 39 -15 212 -149 236 -183 11 -16 38 -95 59 -175 55 -207 54 -202 35 -202 -20 0 -20 -23 1 -107 14 -56 14 -80 4 -172 -6 -58 -11 -127 -11 -152 0 -25 -7 -70 -16 -100 -19 -64 -81 -130 -170 -181 -32 -17 -52 -34 -46 -36 24 -8 167 85 227 146 70 72 114 213 115 369 0 65 2 73 26 92 23 18 25 27 26 93 2 70 0 76 -39 133 -23 33 -53 79 -67 103 -16 26 -34 42 -45 42 -16 0 -22 12 -32 57 -14 63 -63 133 -121 173 -44 30 -68 68 -68 108 0 17 -4 34 -10 37 -5 3 -10 2 -10 -2z m-628 -399 c4 -3 0 -24 -7 -47 -7 -23 -21 -68 -30 -99 -19 -62 -35 -68 -35 -13 0 26 -4 33 -14 29 -25 -10 -27 -36 -7 -77 18 -36 18 -42 5 -61 -7 -11 -14 -31 -14 -44 0 -17 -5 -23 -17 -20 -9 2 -18 9 -21 16 -2 7 0 12 5 11 20 -3 21 3 7 37 -24 58 -20 88 20 143 20 28 36 53 36 56 0 3 10 21 23 40 21 33 37 42 49 29z m887 -20 c12 -15 21 -31 21 -35 0 -5 16 -30 36 -56 46 -61 59 -93 45 -115 -6 -10 -11 -27 -11 -37 0 -11 -5 -23 -10 -26 -6 -4 -8 -11 -4 -16 3 -5 10 -6 16 -3 6 4 9 1 6 -7 -8 -24 -31 -15 -39 14 -4 16 -12 34 -18 41 -7 9 -4 25 11 55 l21 43 -22 21 -21 21 0 -37 c0 -49 -14 -47 -30 6 -7 23 -19 61 -26 85 -24 75 -13 95 25 46z"/>
 <path d="M887 1352 c-18 -20 -23 -42 -9 -42 18 0 46 40 36 50 -7 7 -16 4 -27 -8z"/>
 <path d="M1090 1322 c0 -13 31 -52 41 -52 5 0 3 14 -6 30 -14 28 -35 41 -35 22z"/>
 <path d="M950 1200 c-14 -10 -23 -21 -20 -23 3 -3 19 6 35 19 35 28 22 32 -15 4z"/>
 <path d="M924 1120 c9 -59 26 -76 19 -19 -3 24 -10 49 -16 54 -6 7 -7 -5 -3 -35z"/>
 <path d="M726 950 c-22 -4 -48 -18 -58 -30 -26 -32 -15 -36 15 -6 15 14 36 26 47 26 20 0 20 -1 6 -16 -18 -18 -21 -40 -6 -49 18 -11 11 -26 -10 -21 -67 19 -66 19 -49 1 19 -20 84 -30 133 -21 19 4 49 21 66 38 39 38 31 49 -10 14 -35 -29 -92 -38 -70 -11 10 12 15 13 20 4 6 -8 9 -8 15 1 8 12 -13 70 -25 70 -5 0 -14 2 -22 4 -7 2 -31 0 -52 -4z"/>
 <path d="M1198 949 c-28 -16 -40 -46 -28 -69 15 -28 -2 -25 -38 5 -40 33 -48 32 -23 -4 12 -16 38 -35 57 -41 43 -14 127 -9 149 10 22 18 14 21 -24 10 -18 -5 -41 -6 -52 -1 -19 6 -19 8 -5 20 13 11 16 11 16 0 0 -9 3 -10 10 -3 7 7 8 19 1 37 -14 36 10 37 46 1 14 -14 27 -23 30 -20 11 10 -47 56 -71 56 -13 0 -30 2 -38 5 -7 2 -21 0 -30 -6z"/>
 <path d="M683 808 c-44 -21 -22 -28 93 -28 87 0 115 3 112 12 -3 7 -15 15 -29 19 -38 11 -152 9 -176 -3z"/>
 <path d="M1301 759 c-54 -35 -65 -36 -125 -4 -62 33 -88 34 -58 2 30 -32 98 -67 130 -67 34 0 91 39 98 68 4 13 5 25 2 27 -2 2 -23 -9 -47 -26z"/>
 </g>
<g id="layer112" fill="#caa479" stroke="none">
 <path d="M123 1961 c3 -22 19 -71 37 -108 28 -60 37 -71 78 -90 26 -12 76 -27 112 -33 75 -13 283 -80 288 -92 2 -4 12 -8 23 -8 10 0 28 -9 40 -21 29 -29 38 -16 50 67 9 63 38 183 59 244 4 14 11 37 14 53 l6 27 -356 0 -357 0 6 -39z"/>
 <path d="M920 1991 c0 -5 8 -32 17 -61 l17 -53 -28 -24 -29 -24 39 -40 c46 -47 70 -49 112 -8 39 38 40 53 7 75 -20 13 -25 23 -21 43 3 14 8 43 12 64 l6 37 -66 0 c-36 0 -66 -4 -66 -9z"/>
 <path d="M1160 1996 c0 -2 16 -59 35 -125 20 -67 38 -143 41 -169 8 -61 23 -112 35 -112 5 0 9 4 9 9 0 5 15 14 33 22 17 7 34 16 37 19 10 12 198 71 285 89 136 28 166 48 204 131 17 39 31 86 31 105 l0 35 -355 0 c-195 0 -355 -2 -355 -4z"/>
 <path d="M1201 1538 c-1 -42 -6 -45 -32 -22 -31 28 -91 43 -170 44 -80 0 -127 -11 -171 -42 -34 -23 -38 -23 -39 5 0 17 -4 13 -16 -15 -8 -21 -19 -38 -24 -38 -5 0 -9 -7 -9 -16 0 -8 -4 -13 -9 -9 -5 3 -16 -3 -23 -12 -7 -10 -22 -23 -33 -29 -40 -22 -75 -80 -87 -142 -10 -54 -14 -62 -34 -62 -22 0 -31 -11 -121 -153 -30 -46 -33 -59 -33 -125 0 -65 3 -76 25 -96 20 -18 23 -29 19 -57 -9 -54 13 -203 37 -256 56 -126 94 -169 208 -238 9 -5 18 -13 21 -16 6 -7 87 -49 95 -49 19 0 -2 20 -37 36 -65 29 -153 107 -176 156 -11 24 -23 75 -27 113 -3 39 -11 117 -16 175 -9 88 -8 116 5 173 21 90 21 107 -3 107 -14 0 -18 6 -15 23 4 21 4 20 -6 -2 -14 -32 -33 -14 -32 29 1 39 -14 30 -20 -12 -3 -20 1 -42 10 -55 9 -15 11 -27 5 -36 -5 -6 -15 -31 -22 -55 -10 -36 -15 -41 -27 -31 -17 14 -18 36 -2 41 9 3 8 12 -5 31 -25 39 -21 86 13 132 16 22 42 63 59 91 32 56 56 72 69 48 6 -11 12 2 21 43 21 101 48 141 141 216 47 38 103 78 125 89 49 26 149 34 212 19 98 -25 318 -216 305 -264 -3 -10 56 -248 63 -255 9 -9 5 13 -15 82 -11 38 -17 73 -14 77 10 16 36 -4 62 -50 15 -25 43 -67 62 -94 36 -49 39 -71 24 -169 -7 -45 -31 -51 -40 -10 -4 15 -13 37 -20 50 -13 19 -12 26 1 52 19 38 19 64 -1 81 -15 12 -16 11 -10 -8 4 -12 2 -32 -5 -44 l-11 -22 -15 24 c-14 23 -14 23 -10 2 4 -18 1 -23 -14 -23 -24 0 -24 -20 -2 -107 14 -56 14 -80 4 -172 -6 -58 -11 -127 -11 -152 0 -73 -27 -146 -72 -195 -46 -50 -45 -68 3 -33 121 91 178 226 179 426 0 65 2 73 26 92 23 18 25 27 26 93 2 70 0 76 -39 133 -23 33 -53 79 -67 103 -16 26 -34 42 -45 42 -16 0 -22 12 -32 57 -14 60 -76 151 -110 160 -9 3 -20 11 -23 19 -3 8 -12 14 -21 14 -8 0 -14 3 -13 8 1 4 -4 18 -12 32 -7 14 -17 39 -21 55 -7 30 -7 29 -8 -7z"/>
 <path d="M887 1352 c-18 -20 -23 -42 -9 -42 18 0 46 40 36 50 -7 7 -16 4 -27 -8z"/>
 <path d="M1090 1322 c0 -13 31 -52 41 -52 5 0 3 14 -6 30 -14 28 -35 41 -35 22z"/>
 <path d="M556 1089 c-9 -29 -16 -57 -15 -63 0 -6 9 16 20 49 10 32 16 61 14 63 -2 2 -11 -20 -19 -49z"/>
 <path d="M726 950 c-22 -4 -48 -18 -58 -30 -26 -32 -15 -36 15 -6 15 14 36 26 49 26 13 0 18 -3 12 -8 -15 -10 -24 -51 -13 -58 17 -10 9 -25 -11 -20 -69 20 -67 20 -47 0 14 -15 33 -19 87 -19 62 0 71 3 99 29 40 39 40 55 0 22 -34 -29 -91 -38 -69 -11 10 12 15 13 20 4 6 -8 9 -8 15 1 8 12 -13 70 -25 70 -5 0 -14 2 -22 4 -7 2 -31 0 -52 -4z"/>
 <path d="M1198 946 c-18 -9 -23 -20 -23 -49 0 -20 -3 -37 -7 -37 -3 0 -20 12 -37 26 -40 33 -40 17 0 -22 27 -26 37 -29 98 -29 43 0 74 5 85 14 23 19 16 22 -23 11 -18 -5 -41 -6 -52 -1 -19 6 -19 8 -5 20 13 11 16 11 16 0 0 -9 3 -10 10 -3 7 7 8 19 1 37 -14 36 10 37 46 1 30 -30 41 -26 15 6 -22 27 -92 42 -124 26z"/>
 <path d="M1547 896 c-4 -10 -5 -21 -2 -24 9 -9 17 6 13 25 -3 17 -4 17 -11 -1z"/>
 <path d="M688 808 c-54 -19 -27 -28 88 -28 87 0 115 3 112 12 -3 7 -15 15 -29 19 -36 10 -140 9 -171 -3z"/>
 <path d="M1306 761 c-47 -38 -69 -39 -130 -6 -62 33 -88 34 -58 2 31 -33 99 -67 133 -67 36 0 103 57 98 84 -4 16 -9 14 -43 -13z"/>
 <path d="M1275 274 c-11 -9 -35 -23 -54 -31 -18 -8 -30 -17 -27 -21 8 -7 116 48 116 60 0 12 -13 9 -35 -8z"/>
 </g>
<g id="layer113" fill="#c59672" stroke="none">
 <path d="M123 1961 c3 -22 19 -71 37 -108 28 -60 37 -71 78 -90 26 -12 76 -27 112 -33 75 -13 283 -80 288 -92 2 -4 12 -8 23 -8 10 0 28 -9 40 -21 29 -29 38 -16 50 67 9 63 38 183 59 244 4 14 11 37 14 53 l6 27 -356 0 -357 0 6 -39z"/>
 <path d="M920 1991 c0 -5 8 -32 17 -61 l17 -53 -28 -24 -29 -24 39 -40 c46 -47 70 -49 112 -8 39 38 40 53 7 75 -20 13 -25 23 -21 43 3 14 8 43 12 64 l6 37 -66 0 c-36 0 -66 -4 -66 -9z"/>
 <path d="M1160 1996 c0 -2 16 -59 35 -125 20 -67 38 -143 41 -169 8 -61 23 -112 35 -112 5 0 9 4 9 9 0 5 15 14 33 22 17 7 34 16 37 19 10 12 198 71 285 89 136 28 166 48 204 131 17 39 31 86 31 105 l0 35 -355 0 c-195 0 -355 -2 -355 -4z"/>
 <path d="M1201 1538 c-1 -42 -6 -45 -32 -22 -31 28 -91 43 -170 44 -80 0 -127 -11 -171 -42 -34 -23 -38 -23 -39 5 0 17 -4 13 -16 -15 -8 -21 -19 -38 -24 -38 -5 0 -9 -7 -9 -16 0 -8 -4 -13 -9 -9 -5 3 -16 -3 -23 -12 -7 -10 -22 -23 -33 -29 -40 -22 -75 -80 -87 -142 -10 -54 -14 -62 -34 -62 -22 0 -31 -11 -121 -153 -30 -46 -33 -59 -33 -125 0 -65 3 -76 25 -96 20 -18 23 -29 19 -57 -9 -54 13 -203 37 -256 56 -126 94 -169 208 -238 9 -5 18 -13 21 -16 12 -15 89 -48 94 -41 3 5 -18 20 -47 34 -29 14 -85 56 -125 93 -74 68 -114 126 -127 180 l-7 30 31 -29 31 -30 0 42 c0 23 -5 87 -11 143 -9 86 -9 114 6 190 10 50 15 92 13 95 -7 6 -35 -106 -44 -174 l-7 -53 -20 33 c-18 30 -19 39 -9 87 6 29 21 72 32 95 11 23 20 47 19 52 0 5 -5 -2 -10 -15 -13 -32 -32 -14 -31 29 1 39 -14 30 -20 -12 -3 -20 1 -42 10 -55 9 -15 11 -27 5 -36 -5 -6 -15 -31 -22 -55 -10 -36 -15 -41 -27 -31 -17 14 -18 36 -2 41 9 3 8 12 -5 31 -25 39 -21 86 13 132 16 22 42 63 59 91 32 56 56 72 69 48 6 -11 12 2 21 43 21 101 48 141 141 216 47 38 103 78 125 89 49 26 149 34 212 19 98 -25 318 -216 305 -264 -3 -10 56 -248 63 -255 9 -9 5 13 -15 82 -11 38 -17 73 -14 77 10 16 36 -4 62 -50 15 -25 43 -67 62 -94 36 -49 39 -71 24 -169 -7 -45 -31 -51 -40 -10 -4 15 -13 37 -20 50 -13 19 -12 26 1 52 19 38 19 64 -1 81 -15 12 -16 11 -10 -8 4 -12 2 -32 -5 -44 l-11 -22 -14 24 c-9 17 -13 19 -14 8 0 -9 6 -22 14 -28 8 -6 16 -24 19 -39 3 -15 11 -50 17 -78 11 -45 10 -55 -6 -80 l-19 -28 -3 24 c-1 14 -10 59 -19 100 -9 41 -16 81 -16 88 0 6 -4 12 -9 12 -12 0 -10 -25 8 -94 12 -47 15 -83 9 -156 -17 -232 -17 -224 2 -209 10 8 26 23 35 34 15 18 15 14 -2 -35 -11 -30 -20 -56 -20 -58 0 -2 -32 -37 -72 -78 -72 -74 -86 -107 -27 -63 121 91 178 226 179 426 0 65 2 73 26 92 23 18 25 27 26 93 2 70 0 76 -39 133 -23 33 -53 79 -67 103 -16 26 -34 42 -45 42 -16 0 -22 12 -32 57 -14 60 -76 151 -110 160 -9 3 -20 11 -23 19 -3 8 -12 14 -21 14 -8 0 -14 3 -13 8 1 4 -4 18 -12 32 -7 14 -17 39 -21 55 -7 30 -7 29 -8 -7z m-701 -789 c12 -18 26 -48 31 -68 l8 -36 -40 45 c-37 43 -47 69 -32 83 9 9 6 11 33 -24z m1025 11 c7 -11 -9 -42 -44 -85 l-24 -30 6 37 c5 36 34 87 49 88 4 0 9 -4 13 -10z m-985 -160 c0 -14 3 -36 6 -50 5 -22 2 -21 -30 14 -22 24 -36 49 -36 66 0 14 -5 31 -11 37 -6 6 -8 16 -4 23 10 17 74 -60 75 -90z m970 42 c-4 -37 -14 -57 -39 -83 -21 -21 -31 -27 -27 -16 3 10 6 31 6 46 0 17 13 43 31 64 17 21 32 37 33 37 2 0 0 -22 -4 -48z"/>
 <path d="M887 1352 c-18 -20 -23 -42 -9 -42 18 0 46 40 36 50 -7 7 -16 4 -27 -8z"/>
 <path d="M1090 1322 c0 -13 31 -52 41 -52 5 0 3 14 -6 30 -14 28 -35 41 -35 22z"/>
 <path d="M556 1089 c-9 -29 -16 -57 -15 -63 0 -6 9 16 20 49 10 32 16 61 14 63 -2 2 -11 -20 -19 -49z"/>
 <path d="M726 950 c-22 -4 -48 -18 -58 -30 -26 -32 -15 -36 15 -6 26 26 87 37 87 15 0 -6 -8 -8 -19 -4 -14 4 -20 0 -23 -20 -3 -14 -1 -28 3 -31 17 -10 9 -25 -11 -20 -69 20 -67 20 -47 0 14 -15 33 -19 87 -19 62 0 71 3 99 29 40 39 40 55 0 22 -34 -29 -91 -38 -69 -11 10 12 15 13 20 4 6 -8 9 -8 15 1 8 12 -13 70 -25 70 -5 0 -14 2 -22 4 -7 2 -31 0 -52 -4z"/>
 <path d="M1207 952 c-11 -2 -16 -10 -13 -17 3 -10 0 -12 -11 -8 -13 5 -15 0 -11 -30 5 -44 -1 -45 -41 -11 -40 33 -40 17 0 -22 27 -26 37 -29 98 -29 43 0 74 5 85 14 23 19 16 22 -23 11 -18 -5 -41 -6 -52 -1 -19 6 -19 8 -5 20 13 11 16 11 16 0 0 -9 3 -10 10 -3 7 7 8 19 1 37 -14 36 10 37 46 1 30 -30 41 -26 15 6 -18 22 -80 39 -115 32z"/>
 <path d="M1547 896 c-4 -10 -5 -21 -2 -24 9 -9 17 6 13 25 -3 17 -4 17 -11 -1z"/>
 <path d="M1115 760 c20 -22 34 -28 16 -7 -6 8 -8 17 -4 20 3 4 -2 7 -12 7 -17 0 -17 -1 0 -20z"/>
 <path d="M1275 274 c-11 -9 -35 -23 -54 -31 -18 -8 -30 -17 -27 -21 8 -7 116 48 116 60 0 12 -13 9 -35 -8z"/>
 </g>
<g id="layer114" fill="#a09893" stroke="none">
 <path d="M123 1961 c3 -22 19 -71 37 -108 28 -60 37 -71 78 -90 26 -12 76 -27 112 -33 75 -13 283 -80 288 -92 2 -4 12 -8 23 -8 10 0 28 -9 40 -21 29 -29 38 -16 50 67 9 63 38 183 59 244 4 14 11 37 14 53 l6 27 -356 0 -357 0 6 -39z"/>
 <path d="M920 1991 c0 -5 8 -32 17 -61 l17 -53 -28 -24 -29 -24 39 -40 c46 -47 70 -49 112 -8 39 38 40 53 7 75 -20 13 -25 23 -21 43 3 14 8 43 12 64 l6 37 -66 0 c-36 0 -66 -4 -66 -9z"/>
 <path d="M1160 1996 c0 -2 16 -59 35 -125 20 -67 38 -143 41 -169 8 -61 23 -112 35 -112 5 0 9 4 9 9 0 5 15 14 33 22 17 7 34 16 37 19 10 12 198 71 285 89 136 28 166 48 204 131 17 39 31 86 31 105 l0 35 -355 0 c-195 0 -355 -2 -355 -4z"/>
 <path d="M1201 1538 c-1 -44 -3 -45 -39 -20 -43 30 -90 42 -161 42 -80 0 -127 -12 -175 -45 l-36 -24 -1 27 c0 25 -1 25 -16 -10 -8 -21 -19 -38 -24 -38 -5 0 -9 -4 -9 -10 0 -18 21 -11 60 20 62 49 118 70 191 70 87 0 133 -17 216 -81 126 -97 174 -152 178 -204 1 -11 5 -37 10 -58 6 -31 10 -35 21 -26 11 9 18 8 32 -5 10 -9 22 -13 25 -9 10 10 -13 33 -34 33 -13 0 -21 13 -30 57 -13 58 -73 148 -107 160 -9 4 -21 12 -25 20 -4 7 -15 13 -22 13 -8 0 -14 3 -13 8 1 4 -4 18 -12 32 -7 14 -17 39 -21 55 -7 30 -7 29 -8 -7z"/>
 <path d="M708 1433 c-7 -10 -22 -23 -33 -29 -40 -22 -75 -80 -87 -142 -10 -54 -14 -62 -34 -62 -22 0 -31 -11 -121 -153 -30 -46 -33 -59 -33 -125 0 -65 3 -76 25 -96 20 -18 23 -29 19 -57 -9 -54 13 -203 37 -256 41 -92 87 -158 129 -186 23 -15 45 -27 50 -27 4 0 10 -7 14 -15 3 -8 12 -15 21 -15 8 0 15 -4 15 -9 0 -11 39 -25 47 -18 3 3 -9 13 -27 22 -17 9 -67 50 -110 91 -75 72 -116 137 -125 198 -7 47 -18 87 -26 92 -12 7 -11 51 1 59 8 5 7 11 0 20 -14 17 -9 61 6 58 6 -1 9 10 6 28 -4 28 -22 41 -22 17 -1 -7 -10 -2 -20 11 -16 18 -20 38 -20 91 0 62 3 73 33 112 18 24 45 64 60 90 33 57 46 66 62 45 10 -14 15 -3 30 65 17 79 20 85 76 140 32 31 54 60 49 63 -5 3 -15 -3 -22 -12z"/>
 <path d="M887 1352 c-18 -20 -23 -42 -9 -42 18 0 46 40 36 50 -7 7 -16 4 -27 -8z"/>
 <path d="M1090 1322 c0 -13 31 -52 41 -52 5 0 3 14 -6 30 -14 28 -35 41 -35 22z"/>
 <path d="M1480 1145 c0 -20 8 -33 64 -113 24 -35 28 -51 28 -99 -1 -32 -4 -68 -8 -81 -10 -35 -37 -23 -48 21 -5 20 -14 37 -19 37 -5 0 -6 -8 -2 -17 14 -33 18 -110 6 -117 -6 -4 -11 -13 -11 -19 0 -8 3 -7 9 2 5 7 14 10 20 7 14 -9 14 -43 1 -51 -8 -5 -7 -11 1 -21 9 -11 9 -18 1 -26 -7 -7 -12 -24 -12 -39 0 -15 -10 -40 -23 -56 -39 -49 -50 -69 -18 -33 37 41 37 38 9 -37 -16 -43 -39 -77 -91 -130 -71 -74 -85 -105 -26 -62 121 91 178 226 179 426 0 65 2 73 26 92 23 18 25 27 26 93 1 73 1 73 -55 158 -34 50 -57 76 -57 65z"/>
 <path d="M1421 1110 c0 -8 4 -24 9 -35 5 -13 9 -14 9 -5 0 8 -4 24 -9 35 -5 13 -9 14 -9 5z"/>
 <path d="M546 1054 c-4 -14 -5 -28 -3 -31 3 -2 8 8 11 23 4 14 5 28 3 31 -3 2 -8 -8 -11 -23z"/>
 <path d="M486 1038 c-13 -42 -13 -65 0 -83 12 -17 16 -17 24 -6 5 10 3 22 -5 35 -8 11 -12 30 -9 43 6 24 -4 33 -10 11z"/>
 <path d="M1494 1032 c5 -14 2 -31 -7 -45 -14 -22 -13 -47 2 -47 10 0 31 46 31 69 0 10 -7 25 -16 32 -15 12 -16 11 -10 -9z"/>
 <path d="M546 895 c-10 -42 -18 -99 -19 -128 -1 -58 19 -226 28 -235 7 -8 6 17 -6 147 -10 100 -9 125 6 198 22 105 15 119 -9 18z"/>
 <path d="M726 950 c-22 -4 -48 -18 -58 -30 -26 -32 -15 -36 15 -6 26 26 87 37 87 15 0 -6 -8 -8 -19 -4 -14 4 -20 0 -23 -20 -3 -14 -1 -28 3 -31 17 -10 9 -25 -11 -20 -69 20 -67 20 -47 0 14 -15 33 -19 87 -19 62 0 71 3 99 29 40 39 40 55 0 22 -34 -29 -91 -38 -69 -11 10 12 15 13 20 4 6 -8 9 -8 15 1 8 12 -13 70 -25 70 -5 0 -14 2 -22 4 -7 2 -31 0 -52 -4z"/>
 <path d="M1207 952 c-11 -2 -16 -10 -13 -17 3 -10 0 -12 -11 -8 -13 5 -15 0 -11 -30 5 -44 -1 -45 -41 -11 -40 33 -40 17 0 -22 27 -26 37 -29 98 -29 43 0 74 5 85 14 23 19 16 22 -27 10 -46 -12 -77 0 -53 20 13 11 16 11 16 0 0 -9 3 -10 10 -3 7 7 8 19 1 37 -14 36 10 37 46 1 30 -30 41 -26 15 6 -18 22 -80 39 -115 32z"/>
 <path d="M1426 925 c3 -16 11 -48 16 -70 9 -37 5 -216 -8 -290 -3 -21 -2 -26 5 -15 5 8 12 46 16 84 3 38 10 76 14 85 10 19 -13 158 -33 203 l-15 33 5 -30z"/>
 <path d="M481 889 c-13 -39 -14 -46 -2 -33 9 10 24 64 17 64 -2 0 -9 -14 -15 -31z"/>
 <path d="M1547 896 c-4 -10 -5 -21 -2 -24 9 -9 17 6 13 25 -3 17 -4 17 -11 -1z"/>
 <path d="M500 562 c0 -5 10 -17 21 -28 22 -19 22 -19 10 3 -12 24 -31 39 -31 25z"/>
 <path d="M1257 263 c-20 -14 -36 -28 -34 -30 6 -6 87 40 87 49 0 13 -13 8 -53 -19z"/>
 <path d="M770 232 c0 -5 7 -13 16 -16 10 -4 14 -1 12 6 -5 15 -28 23 -28 10z"/>
 </g>
<g id="layer115" fill="#bb9262" stroke="none">
 <path d="M123 1961 c3 -22 19 -71 37 -108 28 -60 37 -71 78 -90 26 -12 76 -27 112 -33 75 -13 283 -80 288 -92 2 -4 12 -8 23 -8 10 0 28 -9 40 -21 11 -11 22 -19 23 -17 15 17 26 53 26 85 0 21 18 101 40 178 22 77 40 141 40 142 0 2 -160 3 -356 3 l-357 0 6 -39z"/>
 <path d="M923 1988 c2 -7 10 -37 18 -66 12 -50 12 -53 -9 -68 -12 -8 -22 -21 -22 -28 0 -19 64 -76 86 -76 18 0 84 57 84 73 0 3 -11 17 -25 30 -24 22 -25 26 -15 76 5 30 10 58 10 62 0 5 -30 9 -66 9 -49 0 -65 -3 -61 -12z"/>
 <path d="M1160 1996 c0 -2 8 -30 19 -62 26 -84 59 -221 66 -274 8 -63 18 -78 39 -57 9 9 26 19 39 23 12 4 24 10 27 13 10 13 196 71 285 90 136 28 166 48 204 131 17 39 31 86 31 105 l0 35 -355 0 c-195 0 -355 -2 -355 -4z"/>
 <path d="M1201 1538 c-1 -44 -3 -45 -39 -20 -43 30 -90 42 -161 42 -80 0 -127 -12 -175 -45 l-36 -24 -1 27 c0 25 -1 25 -16 -10 -8 -21 -19 -38 -24 -38 -5 0 -9 -4 -9 -10 0 -18 21 -11 60 20 62 49 118 70 191 70 87 0 133 -17 216 -81 126 -97 174 -152 178 -204 1 -11 5 -37 10 -58 6 -31 10 -35 21 -26 11 9 18 8 32 -5 10 -9 22 -13 25 -9 10 10 -13 33 -34 33 -13 0 -21 13 -30 57 -13 58 -73 148 -107 160 -9 4 -21 12 -25 20 -4 7 -15 13 -22 13 -8 0 -14 3 -13 8 1 4 -4 18 -12 32 -7 14 -17 39 -21 55 -7 30 -7 29 -8 -7z"/>
 <path d="M708 1433 c-7 -10 -22 -23 -33 -29 -40 -22 -75 -80 -87 -142 -10 -54 -14 -62 -34 -62 -22 0 -31 -11 -121 -153 -30 -46 -33 -59 -33 -125 0 -65 3 -76 25 -96 20 -18 23 -29 19 -57 -9 -54 13 -203 37 -256 41 -92 87 -158 129 -186 23 -15 45 -27 50 -27 4 0 10 -7 14 -15 3 -8 12 -15 21 -15 8 0 15 -4 15 -9 0 -11 39 -25 47 -18 3 3 -9 13 -27 22 -17 9 -67 50 -110 91 -75 72 -116 137 -125 198 -7 47 -18 87 -26 92 -12 7 -11 51 1 59 8 5 7 11 0 20 -14 17 -9 61 6 58 6 -1 9 10 6 28 -4 28 -22 41 -22 17 -1 -7 -10 -2 -20 11 -16 18 -20 38 -20 91 0 62 3 73 33 112 18 24 45 64 60 90 33 57 46 66 62 45 10 -14 15 -3 30 65 17 79 20 85 76 140 32 31 54 60 49 63 -5 3 -15 -3 -22 -12z"/>
 <path d="M886 1349 c-11 -16 -13 -25 -5 -28 17 -5 39 22 30 38 -7 10 -12 8 -25 -10z"/>
 <path d="M1100 1308 c0 -9 5 -20 11 -23 17 -11 20 0 4 21 -13 17 -14 17 -15 2z"/>
 <path d="M1480 1145 c0 -20 8 -33 64 -113 24 -35 28 -51 28 -99 -1 -32 -4 -68 -8 -81 -10 -35 -37 -23 -48 21 -5 20 -14 37 -19 37 -5 0 -6 -8 -2 -17 14 -33 18 -110 6 -117 -6 -4 -11 -13 -11 -19 0 -8 3 -7 9 2 5 7 14 10 20 7 14 -9 14 -43 1 -51 -8 -5 -7 -11 1 -21 9 -11 9 -18 1 -26 -7 -7 -12 -24 -12 -39 0 -15 -10 -40 -23 -56 -39 -49 -50 -69 -18 -33 37 41 37 38 9 -37 -16 -43 -39 -77 -91 -130 -71 -74 -85 -105 -26 -62 121 91 178 226 179 426 0 65 2 73 26 92 23 18 25 27 26 93 1 73 1 73 -55 158 -34 50 -57 76 -57 65z"/>
 <path d="M1421 1110 c0 -8 4 -24 9 -35 5 -13 9 -14 9 -5 0 8 -4 24 -9 35 -5 13 -9 14 -9 5z"/>
 <path d="M546 1054 c-4 -14 -5 -28 -3 -31 3 -2 8 8 11 23 4 14 5 28 3 31 -3 2 -8 -8 -11 -23z"/>
 <path d="M486 1038 c-13 -42 -13 -65 0 -83 12 -17 16 -17 24 -6 5 10 3 22 -5 35 -8 11 -12 30 -9 43 6 24 -4 33 -10 11z"/>
 <path d="M1494 1032 c5 -14 2 -31 -7 -45 -14 -22 -13 -47 2 -47 10 0 31 46 31 69 0 10 -7 25 -16 32 -15 12 -16 11 -10 -9z"/>
 <path d="M546 895 c-10 -42 -18 -99 -19 -128 -1 -58 19 -226 28 -235 7 -8 6 17 -6 147 -10 100 -9 125 6 198 22 105 15 119 -9 18z"/>
 <path d="M682 934 c-12 -8 -22 -20 -22 -25 0 -6 12 -1 26 10 28 22 84 29 84 10 0 -6 -9 -9 -20 -6 -16 4 -20 0 -20 -22 0 -15 5 -32 12 -39 15 -15 -9 -16 -48 -2 -43 17 -41 2 2 -16 55 -23 128 -13 166 23 38 36 36 51 -3 19 -34 -29 -91 -38 -69 -11 7 9 19 14 27 11 18 -7 17 14 -3 42 -12 17 -25 22 -62 22 -27 0 -57 -7 -70 -16z"/>
 <path d="M1193 936 c4 -11 1 -13 -10 -9 -13 5 -15 0 -11 -30 5 -44 -1 -45 -41 -11 -40 33 -41 17 -1 -21 37 -36 107 -45 164 -21 44 18 44 32 0 16 -15 -6 -39 -8 -52 -5 -20 5 -22 8 -11 21 9 11 14 12 19 3 12 -18 19 12 9 39 -11 29 9 30 45 1 14 -11 26 -16 26 -10 0 21 -46 41 -93 41 -39 0 -48 -3 -44 -14z"/>
 <path d="M1426 925 c3 -16 11 -48 16 -70 9 -37 5 -216 -8 -290 -3 -21 -2 -26 5 -15 5 8 12 46 16 84 3 38 10 76 14 85 10 19 -13 158 -33 203 l-15 33 5 -30z"/>
 <path d="M481 889 c-13 -39 -14 -46 -2 -33 9 10 24 64 17 64 -2 0 -9 -14 -15 -31z"/>
 <path d="M1547 896 c-4 -10 -5 -21 -2 -24 9 -9 17 6 13 25 -3 17 -4 17 -11 -1z"/>
 <path d="M500 562 c0 -5 10 -17 21 -28 22 -19 22 -19 10 3 -12 24 -31 39 -31 25z"/>
 <path d="M1257 263 c-20 -14 -36 -28 -34 -30 6 -6 87 40 87 49 0 13 -13 8 -53 -19z"/>
 <path d="M770 232 c0 -5 7 -13 16 -16 10 -4 14 -1 12 6 -5 15 -28 23 -28 10z"/>
 </g>
<g id="layer116" fill="#c37c70" stroke="none">
 <path d="M123 1961 c3 -22 19 -71 37 -108 28 -60 37 -71 78 -90 26 -12 76 -27 112 -33 75 -13 283 -80 288 -92 2 -4 12 -8 23 -8 10 0 28 -9 40 -21 11 -11 22 -19 23 -17 15 17 26 53 26 85 0 21 18 101 40 178 22 77 40 141 40 142 0 2 -160 3 -356 3 l-357 0 6 -39z"/>
 <path d="M923 1988 c2 -7 10 -37 18 -66 12 -50 12 -53 -9 -68 -12 -8 -22 -21 -22 -28 0 -19 64 -76 86 -76 18 0 84 57 84 73 0 3 -11 17 -25 30 -24 22 -25 26 -15 76 5 30 10 58 10 62 0 5 -30 9 -66 9 -49 0 -65 -3 -61 -12z"/>
 <path d="M1160 1996 c0 -2 8 -30 19 -62 26 -84 59 -221 66 -274 8 -63 18 -78 39 -57 9 9 26 19 39 23 12 4 24 10 27 13 10 13 196 71 285 90 136 28 166 48 204 131 17 39 31 86 31 105 l0 35 -355 0 c-195 0 -355 -2 -355 -4z"/>
 <path d="M1201 1538 c-1 -44 -3 -45 -39 -20 -43 30 -90 42 -161 42 -80 0 -127 -12 -175 -45 l-36 -24 -1 27 c0 25 -1 25 -16 -10 -8 -21 -19 -38 -24 -38 -5 0 -9 -4 -9 -10 0 -18 21 -11 60 20 62 49 118 70 191 70 87 0 133 -17 216 -81 126 -97 174 -152 178 -204 1 -11 5 -37 10 -58 6 -31 10 -35 21 -26 11 9 18 8 32 -5 10 -9 22 -13 25 -9 10 10 -13 33 -33 33 -16 0 -31 36 -46 108 -4 20 -74 103 -93 110 -9 3 -20 11 -24 19 -4 7 -15 13 -22 13 -8 0 -14 3 -13 8 1 4 -4 18 -12 32 -7 14 -17 39 -21 55 -7 30 -7 29 -8 -7z"/>
 <path d="M708 1433 c-7 -10 -22 -23 -33 -29 -40 -22 -75 -80 -87 -142 -10 -53 -15 -62 -33 -62 -22 0 -30 -10 -123 -154 -32 -49 -33 -54 -29 -130 3 -62 8 -82 22 -92 30 -22 38 -16 16 12 -17 21 -21 41 -21 95 0 61 3 72 33 111 18 24 45 64 60 90 33 57 46 66 62 45 10 -14 15 -3 30 65 17 79 20 85 76 140 32 31 54 60 49 63 -5 3 -15 -3 -22 -12z"/>
 <path d="M886 1349 c-11 -16 -13 -25 -5 -28 17 -5 39 22 30 38 -7 10 -12 8 -25 -10z"/>
 <path d="M1100 1308 c0 -9 5 -20 11 -23 17 -11 20 0 4 21 -13 17 -14 17 -15 2z"/>
 <path d="M1480 1134 c0 -9 13 -29 64 -102 24 -35 28 -51 28 -99 -1 -71 -10 -103 -28 -103 -8 0 -14 -7 -14 -16 0 -12 6 -11 29 8 23 18 30 32 32 63 6 87 -1 114 -42 175 -42 61 -69 90 -69 74z"/>
 <path d="M1421 1110 c0 -8 4 -24 9 -35 5 -13 9 -14 9 -5 0 8 -4 24 -9 35 -5 13 -9 14 -9 5z"/>
 <path d="M546 1054 c-4 -14 -5 -28 -3 -31 3 -2 8 8 11 23 4 14 5 28 3 31 -3 2 -8 -8 -11 -23z"/>
 <path d="M486 1038 c-13 -42 -13 -65 -1 -82 13 -17 15 -17 20 -3 4 8 2 24 -4 35 -5 10 -7 28 -4 40 6 23 -5 31 -11 10z"/>
 <path d="M1494 1033 c4 -12 2 -32 -4 -43 -6 -12 -9 -29 -5 -38 5 -14 9 -13 20 8 19 34 18 65 -1 81 -15 12 -16 11 -10 -8z"/>
 <path d="M682 934 c-12 -8 -22 -20 -22 -25 0 -6 12 -1 26 10 28 22 84 29 84 10 0 -6 -9 -9 -20 -6 -16 4 -20 0 -20 -22 0 -15 6 -33 13 -40 10 -11 7 -13 -18 -8 -16 3 -39 9 -50 12 -20 7 -20 6 -1 -9 25 -21 77 -30 121 -22 35 7 95 49 95 68 0 5 -14 -2 -31 -16 -34 -29 -91 -38 -69 -11 7 9 19 14 27 11 18 -7 17 14 -3 42 -12 17 -25 22 -62 22 -27 0 -57 -7 -70 -16z"/>
 <path d="M1210 934 c0 -11 -6 -14 -21 -9 -20 7 -21 4 -17 -29 5 -43 -1 -44 -41 -10 -40 33 -41 17 -1 -21 37 -36 107 -45 164 -21 43 18 45 33 2 16 -33 -12 -76 -13 -76 -1 0 5 7 14 15 21 12 10 15 10 15 -1 0 -12 2 -12 9 0 6 8 6 24 0 38 -11 30 8 31 45 2 14 -11 26 -16 26 -10 0 19 -44 41 -82 41 -28 0 -38 -4 -38 -16z"/>
 <path d="M1547 896 c-4 -10 -5 -21 -2 -24 9 -9 17 6 13 25 -3 17 -4 17 -11 -1z"/>
 <path d="M1345 330 c-21 -22 -24 -30 -13 -30 17 0 31 15 41 43 9 23 5 22 -28 -13z"/>
 <path d="M632 325 c6 -14 17 -25 24 -25 6 0 14 -7 18 -15 3 -8 10 -15 16 -15 6 0 18 -7 26 -15 9 -8 23 -15 32 -14 15 0 14 2 -2 12 -11 7 -43 31 -72 54 -46 37 -52 39 -42 18z"/>
 <path d="M1257 263 c-20 -14 -36 -28 -34 -30 6 -6 87 40 87 49 0 13 -13 8 -53 -19z"/>
 <path d="M770 232 c0 -5 7 -13 16 -16 10 -4 14 -1 12 6 -5 15 -28 23 -28 10z"/>
 </g>
<g id="layer117" fill="#8f8a70" stroke="none">
 <path d="M123 1961 c3 -22 19 -71 37 -108 28 -60 37 -71 78 -90 26 -12 76 -27 112 -33 75 -13 283 -80 288 -92 2 -4 12 -8 23 -8 10 0 28 -9 40 -21 11 -11 22 -19 23 -17 15 17 26 53 26 85 0 21 18 101 40 178 22 77 40 141 40 142 0 2 -160 3 -356 3 l-357 0 6 -39z"/>
 <path d="M923 1988 c2 -7 10 -37 18 -66 12 -50 12 -53 -9 -68 -12 -8 -22 -21 -22 -28 0 -19 64 -76 86 -76 18 0 84 57 84 73 0 3 -11 17 -25 30 -24 22 -25 26 -15 76 5 30 10 58 10 62 0 5 -30 9 -66 9 -49 0 -65 -3 -61 -12z"/>
 <path d="M1160 1996 c0 -2 8 -30 19 -62 26 -84 59 -221 66 -274 8 -63 18 -78 39 -57 9 9 26 19 39 23 12 4 24 10 27 13 10 13 196 71 285 90 136 28 166 48 204 131 17 39 31 86 31 105 l0 35 -355 0 c-195 0 -355 -2 -355 -4z"/>
 <path d="M886 1349 c-11 -16 -13 -25 -5 -28 17 -5 39 22 30 38 -7 10 -12 8 -25 -10z"/>
 <path d="M1100 1308 c0 -9 5 -20 11 -23 17 -11 20 0 4 21 -13 17 -14 17 -15 2z"/>
 <path d="M682 934 c-12 -8 -22 -20 -22 -25 0 -6 12 -1 26 10 28 22 84 29 84 10 0 -6 -9 -9 -20 -6 -16 4 -20 0 -20 -22 0 -15 6 -33 13 -40 10 -11 7 -13 -18 -8 -16 3 -39 9 -50 12 -20 7 -20 6 -1 -9 25 -21 77 -30 121 -22 35 7 95 49 95 68 0 5 -14 -2 -31 -16 -34 -29 -91 -38 -69 -11 7 9 19 14 25 11 14 -5 9 31 -8 52 -13 17 -98 15 -125 -4z"/>
 <path d="M1210 934 c0 -11 -6 -14 -21 -9 -20 7 -21 4 -17 -29 5 -43 -1 -44 -41 -10 -40 33 -41 17 -1 -21 37 -36 107 -45 164 -21 43 18 45 33 2 16 -33 -12 -76 -13 -76 -1 0 5 7 14 15 21 12 10 15 10 15 -1 0 -12 2 -12 9 0 6 8 6 24 0 38 -11 30 8 31 45 2 14 -11 26 -16 26 -10 0 19 -44 41 -82 41 -28 0 -38 -4 -38 -16z"/>
 </g>
<g id="layer118" fill="#63665d" stroke="none">
 <path d="M123 1961 c3 -22 19 -71 37 -108 28 -60 37 -71 78 -90 26 -12 76 -27 112 -33 75 -13 283 -80 288 -92 2 -4 12 -8 23 -8 10 0 28 -9 40 -21 11 -11 22 -19 23 -17 15 17 26 54 26 86 0 33 23 126 76 305 5 16 -16 17 -352 17 l-357 0 6 -39z"/>
 <path d="M931 1963 c23 -93 23 -94 0 -109 -29 -21 -27 -35 12 -72 42 -41 65 -40 107 3 l34 35 -27 28 c-26 27 -27 31 -17 82 5 29 10 57 10 61 0 5 -29 9 -64 9 l-64 0 9 -37z"/>
 <path d="M1186 1913 c37 -132 53 -203 59 -253 8 -62 18 -78 39 -57 9 9 26 19 39 23 12 4 24 10 27 13 10 13 196 71 285 90 136 28 166 48 204 131 17 39 31 86 31 105 l0 35 -354 0 -354 0 24 -87z"/>
 <path d="M886 1346 c-13 -21 -14 -26 -2 -26 20 0 36 23 27 38 -6 10 -12 6 -25 -12z"/>
 <path d="M1100 1306 c0 -8 7 -16 15 -20 13 -4 14 -2 5 14 -13 23 -20 26 -20 6z"/>
 <path d="M691 937 c-14 -6 -27 -19 -29 -27 -4 -13 -2 -12 14 1 10 9 28 21 39 27 27 16 6 15 -24 -1z"/>
 <path d="M766 935 c18 -14 18 -14 -8 -15 -22 0 -28 -5 -28 -23 0 -13 5 -28 12 -35 9 -9 7 -12 -13 -13 -23 -1 -23 -1 5 -11 32 -12 99 3 129 30 27 24 20 35 -10 13 -40 -28 -73 -36 -73 -17 0 8 9 18 20 21 40 13 17 65 -29 65 -24 0 -24 -1 -5 -15z"/>
 <path d="M1216 935 c5 -11 -1 -15 -21 -15 -25 0 -27 -3 -23 -30 5 -35 0 -37 -36 -9 -14 11 -26 16 -26 10 0 -34 106 -70 152 -52 21 9 21 10 -9 10 -37 1 -46 26 -13 36 22 7 26 35 8 53 -17 17 -39 15 -32 -3z"/>
 <path d="M1275 938 c11 -6 28 -18 38 -26 10 -9 17 -11 17 -4 0 6 -13 18 -30 27 -33 17 -56 20 -25 3z"/>
 </g>
<g id="layer119" fill="#543b47" stroke="none">
 <path d="M123 1961 c3 -22 19 -71 37 -108 28 -60 37 -71 78 -90 26 -12 76 -27 112 -33 75 -13 283 -80 288 -92 2 -4 12 -8 23 -8 10 0 29 -10 40 -21 27 -27 36 -15 44 61 6 54 13 86 60 248 l24 82 -356 0 -356 0 6 -39z"/>
 <path d="M939 1934 l19 -65 -24 -16 c-13 -8 -24 -19 -24 -24 0 -16 71 -79 88 -79 10 0 33 16 52 35 l34 35 -27 28 c-26 27 -27 31 -17 82 5 29 10 57 10 61 0 5 -29 9 -64 9 l-65 0 18 -66z"/>
 <path d="M1181 1933 c11 -38 29 -96 39 -131 11 -34 20 -79 20 -99 0 -42 20 -113 32 -113 4 0 8 4 8 9 0 5 15 14 33 22 17 7 34 16 37 19 10 12 198 71 285 89 136 28 166 48 204 131 17 39 31 86 31 105 l0 35 -354 0 -354 0 19 -67z"/>
 <path d="M892 1348 c-14 -14 -16 -28 -3 -28 9 0 24 30 18 36 -2 2 -9 -2 -15 -8z"/>
 <path d="M777 929 c-3 -11 -14 -19 -26 -19 -14 0 -21 -6 -21 -20 0 -11 5 -20 11 -20 6 0 9 -7 5 -15 -4 -12 3 -15 32 -14 33 0 35 1 13 10 -19 8 -21 12 -11 24 7 8 19 15 26 15 21 0 17 33 -5 47 -16 10 -20 9 -24 -8z"/>
 <path d="M1220 936 c0 -16 -27 -29 -41 -20 -14 8 -10 -39 5 -58 8 -12 26 -18 47 -17 28 1 30 2 11 7 -32 9 -27 23 17 50 7 4 -22 52 -31 52 -4 0 -8 -6 -8 -14z"/>
 </g>
<g id="layer120" fill="#32334e" stroke="none">
 <path d="M123 1961 c3 -22 19 -71 37 -108 28 -60 37 -71 78 -90 26 -12 76 -27 112 -33 75 -13 283 -80 288 -92 2 -4 12 -8 23 -8 10 0 28 -9 40 -21 11 -11 23 -19 25 -16 3 3 11 44 19 91 8 47 28 129 45 181 48 151 87 135 -321 135 l-352 0 6 -39z"/>
 <path d="M935 1951 c7 -27 16 -55 20 -62 5 -8 -2 -21 -21 -35 l-29 -23 40 -41 c21 -22 45 -40 51 -40 7 0 30 16 51 36 l38 36 -29 24 c-29 26 -31 46 -9 132 5 21 3 22 -60 22 l-65 0 13 -49z"/>
 <path d="M1196 1888 c19 -62 41 -153 48 -201 8 -49 17 -91 20 -94 3 -3 12 2 21 10 8 9 25 19 38 23 12 4 24 10 27 13 10 13 196 71 285 90 136 28 166 48 204 131 17 39 31 86 31 105 l0 35 -354 0 -354 0 34 -112z"/>
 <path d="M764 911 c-5 -3 -15 -14 -23 -24 -13 -17 -12 -18 15 -11 16 4 37 15 46 24 15 16 15 18 -7 18 -12 0 -27 -3 -31 -7z"/>
 <path d="M1199 912 c-1 -4 -1 -10 0 -14 0 -5 -6 -8 -14 -8 -8 0 -15 -5 -15 -10 0 -16 51 -3 70 18 17 18 17 19 -11 20 -16 0 -30 -2 -30 -6z"/>
 <path d="M754 849 c-3 -5 6 -9 20 -9 31 0 34 6 6 13 -11 3 -23 1 -26 -4z"/>
 <path d="M1194 849 c-3 -5 9 -9 25 -9 17 0 31 2 31 4 0 8 -51 13 -56 5z"/>
 </g>
<g id="layer121" fill="#1d272d" stroke="none">
 <path d="M123 1961 c3 -22 19 -71 37 -108 28 -60 37 -71 78 -90 26 -12 76 -27 112 -33 75 -13 283 -80 288 -92 2 -4 12 -8 23 -8 10 0 28 -9 40 -21 11 -11 23 -19 25 -16 3 2 11 44 19 93 8 49 25 121 39 160 13 39 27 89 31 112 l7 42 -352 0 -353 0 6 -39z m137 -166 c14 -8 21 -14 15 -14 -5 0 -21 6 -35 14 -14 8 -20 14 -15 14 6 0 21 -6 35 -14z"/>
 <path d="M935 1951 c7 -27 16 -55 20 -62 5 -8 -2 -21 -21 -35 l-29 -23 40 -41 c21 -22 45 -40 51 -40 7 0 30 16 51 36 l38 36 -29 24 c-29 26 -31 46 -9 132 5 21 3 22 -60 22 l-65 0 13 -49z"/>
 <path d="M1196 1888 c19 -62 41 -153 49 -202 8 -48 16 -90 19 -93 3 -3 12 2 21 10 8 9 25 19 38 23 12 4 24 10 27 13 10 13 196 71 285 90 136 28 166 48 204 131 17 39 31 86 31 105 l0 35 -354 0 -354 0 34 -112z"/>
 <path d="M759 909 c-11 -6 -11 -11 -2 -20 12 -12 43 -6 43 10 0 14 -25 20 -41 10z"/>
 <path d="M1197 913 c-3 -5 -2 -15 3 -22 10 -17 43 -6 38 12 -6 15 -34 22 -41 10z"/>
 <path d="M1203 843 c9 -2 25 -2 35 0 9 3 1 5 -18 5 -19 0 -27 -2 -17 -5z"/>
 </g>
<g id="layer122" fill="#27251f" stroke="none">
 <path d="M123 1961 c3 -22 19 -71 37 -108 28 -60 37 -71 78 -90 26 -12 76 -27 112 -33 75 -13 283 -80 288 -92 2 -4 12 -8 23 -8 10 0 28 -9 39 -20 25 -25 30 -16 46 89 7 47 27 128 44 180 31 97 35 121 22 121 -13 0 -82 -264 -82 -317 0 -50 -12 -77 -23 -50 -3 8 -29 30 -59 51 l-53 37 40 -35 c47 -42 43 -44 -33 -12 -71 30 -243 82 -298 91 -65 10 -101 38 -128 99 -13 29 -27 72 -31 95 -9 53 -29 55 -22 2z"/>
 <path d="M554 1948 c-9 -29 -19 -59 -22 -65 -2 -7 0 -13 5 -13 4 0 17 24 27 53 10 28 21 58 23 65 3 6 1 12 -5 12 -6 0 -18 -24 -28 -52z"/>
 <path d="M930 1987 c0 -7 7 -35 17 -62 l16 -48 -27 -24 -27 -23 32 -35 c40 -44 68 -44 109 -4 l31 32 -30 28 c-17 15 -29 34 -26 41 3 7 9 34 14 61 l8 47 -58 0 c-42 0 -59 -4 -59 -13z"/>
 <path d="M1170 1991 c0 -5 16 -60 35 -124 19 -63 37 -132 40 -153 9 -80 17 -114 26 -120 5 -3 9 -1 9 4 0 5 15 15 33 23 17 7 34 16 37 19 10 12 198 71 285 89 136 28 166 48 204 131 29 67 41 140 22 140 -5 0 -12 -19 -15 -43 -4 -23 -17 -66 -31 -94 -27 -59 -65 -88 -129 -99 -59 -9 -230 -61 -297 -90 -73 -30 -82 -30 -44 2 l30 26 -34 -18 c-18 -11 -42 -30 -52 -43 -10 -13 -19 -22 -20 -20 0 2 -4 38 -8 80 -8 77 -70 299 -83 299 -5 0 -8 -4 -8 -9z"/>
 <path d="M1409 1973 c13 -44 39 -103 46 -103 7 0 1 25 -22 88 -17 46 -36 58 -24 15z"/>
 <path d="M1735 1870 c9 -16 18 -30 21 -30 2 0 -2 14 -11 30 -9 17 -18 30 -21 30 -2 0 2 -13 11 -30z"/>
 <path d="M599 1831 c10 -7 6 -14 -18 -32 -17 -12 -31 -30 -31 -38 0 -9 15 -1 40 24 38 37 39 55 5 55 -5 0 -4 -4 4 -9z"/>
 <path d="M1370 1822 c0 -5 14 -21 32 -35 28 -23 30 -28 17 -44 -13 -16 -12 -17 4 -4 25 20 21 35 -18 65 -19 15 -35 23 -35 18z"/>
 <path d="M760 905 c-10 -12 -9 -16 5 -21 23 -9 40 10 22 25 -11 9 -17 8 -27 -4z"/>
 <path d="M1203 904 c-7 -19 2 -28 22 -21 19 8 19 23 0 31 -9 3 -18 -1 -22 -10z"/>
 </g>
<g id="layer123" fill="#0b0d0e" stroke="none">
 <path d="M123 1961 c3 -22 19 -71 37 -108 28 -60 37 -71 78 -90 26 -12 76 -27 112 -33 75 -13 283 -80 288 -92 2 -4 12 -8 23 -8 10 0 28 -9 39 -20 l20 -20 10 25 c6 15 10 39 10 55 0 30 45 211 59 239 13 25 23 91 14 91 -14 0 -83 -263 -83 -317 0 -50 -12 -77 -23 -50 -3 8 -29 30 -59 51 l-53 37 40 -35 c47 -42 43 -44 -33 -12 -71 30 -243 82 -298 91 -65 10 -101 38 -128 99 -13 29 -27 72 -31 95 -9 53 -29 55 -22 2z"/>
 <path d="M554 1948 c-9 -29 -19 -59 -22 -65 -2 -7 0 -13 5 -13 4 0 17 24 27 53 10 28 21 58 23 65 3 6 1 12 -5 12 -6 0 -18 -24 -28 -52z"/>
 <path d="M930 1992 c0 -5 7 -31 15 -58 19 -64 19 -67 -10 -84 l-25 -16 31 -37 c37 -45 65 -47 102 -9 33 35 34 45 2 66 -17 11 -24 23 -21 34 3 9 10 38 15 65 l8 47 -58 0 c-33 0 -59 -4 -59 -8z"/>
 <path d="M1170 1992 c0 -5 18 -69 40 -142 22 -73 40 -150 40 -169 1 -33 27 -111 29 -85 1 6 16 17 34 25 17 7 34 16 37 19 10 12 198 71 285 89 136 28 166 48 204 131 29 67 41 140 22 140 -5 0 -12 -19 -15 -43 -4 -23 -17 -66 -31 -94 -27 -59 -65 -88 -129 -99 -59 -9 -230 -61 -297 -90 -73 -30 -82 -30 -44 2 l30 26 -34 -18 c-18 -11 -42 -30 -52 -43 -10 -13 -19 -22 -20 -20 0 2 -4 38 -8 80 -8 77 -70 299 -83 299 -5 0 -8 -4 -8 -8z"/>
 <path d="M1409 1973 c13 -44 39 -103 46 -103 7 0 1 25 -22 88 -17 46 -36 58 -24 15z"/>
 <path d="M1735 1870 c9 -16 18 -30 21 -30 2 0 -2 14 -11 30 -9 17 -18 30 -21 30 -2 0 2 -13 11 -30z"/>
 <path d="M599 1831 c10 -7 6 -14 -18 -32 -17 -12 -31 -30 -31 -38 0 -9 15 -1 40 24 38 37 39 55 5 55 -5 0 -4 -4 4 -9z"/>
 <path d="M1370 1822 c0 -5 14 -21 32 -35 28 -23 30 -28 17 -44 -13 -16 -12 -17 4 -4 25 20 21 35 -18 65 -19 15 -35 23 -35 18z"/>
 <path d="M760 895 c0 -8 7 -15 15 -15 8 0 15 7 15 15 0 8 -7 15 -15 15 -8 0 -15 -7 -15 -15z"/>
 <path d="M1200 895 c0 -8 7 -15 15 -15 8 0 15 7 15 15 0 8 -7 15 -15 15 -8 0 -15 -7 -15 -15z"/>
 </g>

</svg>