<?xml version="1.0" encoding="UTF-8" standalone="no"?>
<svg xmlns:rdf="http://www.w3.org/1999/02/22-rdf-syntax-ns#" xmlns="http://www.w3.org/2000/svg" height="267" viewBox="0 0 266.66666 266.66666" width="267" version="1.1" xmlns:cc="http://creativecommons.org/ns#" xmlns:dc="http://purl.org/dc/elements/1.1/">
 <g stroke-width="1.33">
  <path d="m24.2 263c.504-2.75 2.45-8.44 4.32-12.6 4.08-9.17 9.95-13.1 23.1-15.6 12.4-2.33 44.4-13.2 46.3-15.8 2.61-3.39 4.68-.186 5.75 8.95.518 4.39 2.61 13.4 4.64 20l3.7 12.1 3.2-5.69c1.76-3.13 5.94-8.48 9.28-11.9l6.08-6.21-10-5.51c-5.53-3.03-10.6-6.24-11.3-7.12-1.28-1.62-2.56-7.38-3.69-16.6-.368-3.02-1.79-5.96-3.6-7.43-11.3-9.2-15.7-14.7-17.8-22-1.15-4.15-2.33-8.29-2.62-9.2-.293-.917-1.64-1.67-2.99-1.67-1.6 0-5.2-4.07-10.3-11.7-7.48-11.1-7.89-12.1-8.39-21.2-.473-8.53-.210-9.85 2.52-12.6 2.69-2.69 3.08-4.54 3.38-15.8.578-21.9 7.13-37.3 20.1-47.1 4.11-3.12 8.73-6.64 10.3-7.83 6.54-5.03 19.5-10.5 28.3-12 11.7-2 24.4-.0964 36 5.42 9.75 4.62 27.2 18.4 31.8 25.1 5.62 8.21 9.03 21.6 9.21 36.2.144 11.6.447 13.1 3.16 15.3 2.61 2.12 3 3.68 3 12.2 0 9.67-.0451 9.79-8.09 21.9-5.29 7.97-8.94 12.2-10.5 12.2-1.85 0-2.83 1.69-4.05 7-2.17 9.43-6.51 15.8-15.3 22.4l-7.35 5.55v8.4c0 10.6-3.19 14.8-16.3 21.4l-9.29 4.68 5.14 4.43c2.83 2.43 6.94 7.48 9.14 11.2 2.2 3.74 4.33 6.81 4.73 6.82 2.3.0829 11.3-40.3 9.66-43.2-.443-.787.937.185 3.07 2.16 4.22 3.91 29.3 13.1 45.2 16.5 15.5 3.34 21.2 6.75 25.3 15 1.92 3.91 3.85 9.76 4.3 13l.807 5.89h-90l.735-2.81c.484-1.85-.913-5.45-4.09-10.5l-4.82-7.71-3.57 2.64c-3.54 2.62-3.56 2.7-1.92 10.5l1.65 7.89h-9.13c-6.68 0-8.99-.447-8.63-1.67 3.65-12.3 3.81-14.4 1.28-16.3-1.39-1.05-2.84-1.93-3.24-1.95-1.49-.0877-9.28 14.2-9.28 17v2.94h-91.8zm117-73c3.96-2.34 6.21-5.74 3.79-5.74-.754 0-.984-.624-.513-1.39.558-.903-.371-1.08-2.66-.504-1.93.485-6.73.959-10.6 1.05-8.56.205-8.47 2.17.0982 2.17 4.07 0 5.7.477 5.08 1.49-.557.901-3.21 1.23-6.72.833-5.98-.674-6.69.879-1.38 3.02 4.52 1.82 8.8 1.51 12.9-.938zm-40.8-60.4c0-5.8-.197-5.95-5.22-4.04-4.1 1.56-3.4 4.58 1.71 7.36 1.93 1.05 3.51 1.93 3.51 1.96v-5.28zm19.3 3.18c.329-.329-1.02-2.22-3-4.19-3.45-3.45-3.6-3.48-3.6-.735 0 1.57-.399 3.9-.886 5.17-.760 1.98-.335 2.17 3 1.33 2.14-.536 4.15-1.24 4.48-1.57zm36.1.156c-.910-1.1-1.34-3.2-.955-4.67.899-3.44-.129-3.38-3.97.225-3.86 3.63-3.88 4.76-.0859 5.49 6.26 1.21 6.79 1.09 5.01-1.05zm18-2.45c2.13-3.04 1.53-4.12-3.08-5.51-2.76-.834-2.97-.588-2.18 2.53.495 1.97.198 4.26-.691 5.33-1.27 1.54-1.05 1.74 1.23 1.15 1.53-0.4 3.66-1.98 4.73-3.51z" fill="#ebccc6"/>
  <path d="m23.5 267c0-2.76 4.53-16.1 6.95-20.4 3.16-5.68 10.4-9.34 24.4-12.4 13.9-3.01 41.1-12.6 43-15.1 2.67-3.53 4.49-.328 5.62 9.85.557 5.02 2.89 15 5.19 22.1 2.3 7.16 4.18 13.9 4.18 15 0 1.72-6.01 1.98-44.7 1.98-24.6 0-44.7-.491-44.7-1.09zm101-1.75c0-1.56.689-5.15 1.53-7.96 1.4-4.68 1.27-5.32-1.51-7.58-2.55-2.07-2.8-2.92-1.54-5.27 1.98-3.7 7.97-8.35 10.8-8.35 2.1 0 10.7 7.78 10.7 9.68 0 .485-1.47 2.26-3.28 3.94-2.94 2.74-3.15 3.6-2.03 8.39 2.3 9.87 2.22 10-6.69 10-7.28 0-8-.257-8-2.85zm30.2-.821c.486-2.02 2.56-9.18 4.62-15.9 2.05-6.74 4.14-15.8 4.63-20.2 1.23-10.8 2.04-11.9 6.76-8.51 4.69 3.32 32.4 12.8 45.2 15.4 13 2.66 18.5 6.24 22.7 14.9 1.92 3.93 3.82 9.58 4.22 12.6l.727 5.42h-89.8zm-38.2-38.4c0-1.14.6-1.71 1.33-1.25.733.453 1.33 1.39 1.33 2.08s-.6 1.25-1.33 1.25c-.733 0-1.33-.935-1.33-2.08zm12.7-2.54c-.733-.271-3.5-.853-6.14-1.29-2.64-.440-7.59-2.65-11-4.9-5.61-3.72-6.19-4.59-6.19-9.32 0-4.02-.817-5.9-3.57-8.21-14.6-12.2-17.7-16.6-19.8-27.9-.664-3.61-1.65-5.03-3.69-5.33-2.93-.430-12.3-12.5-16.9-21.7-1.46-2.93-2.66-7.43-2.68-10-.0323-6.89 2.46-14.7 4.69-14.7 1.56 0 1.94-2.44 1.94-12.4 0-19 4.99-34.7 13.9-43.7 13.1-13.3 30.7-23.1 45.6-25.3 18.1-2.72 34.6 2.97 54.2 18.7 8.44 6.78 11.7 10.4 14.7 16.4 4.71 9.36 8.19 27.9 7.24 38.6-.528 5.93-.269 7.67 1.14 7.67 3 0 4.59 4.65 4.59 13.4 0 7.9-.367 8.82-8.26 20.8-5.25 7.94-9.12 12.5-10.6 12.5-1.66 0-2.79 1.69-3.82 5.67-2.54 9.81-2.95 10.9-5.8 14.7-1.53 2.07-5.95 6.21-9.81 9.19-6.95 5.36-7.03 5.5-7.03 12.7 0 5.08-.495 7.12-1.67 6.88-.917-.195-4.97 1.24-9 3.18-6.69 3.22-18.7 5.65-22 4.44zm16.3-15.8c5.21-1.89 22.7-15.4 29-22.4 2.53-2.8 4.96-6.75 5.41-8.79.446-2.04 2.58-10.9 4.74-19.6 3.02-12.2 3.55-16.1 2.28-16.9-1.29-.797-1.13-3.57.730-12.8 2.08-10.3 2.2-13.8 0.9-28.4-1.84-20.7-3.43-28.9-6.62-34.2-2.84-4.67-12-12.4-18.6-15.8l-4.49-2.28-3.78 4.59c-5.22 6.33-16 10.8-23.5 9.81-7.75-1.06-15.4-5.17-19.6-10.5l-3.42-4.37-6.1 3.33c-3.35 1.83-8.71 5.73-11.9 8.66-7.61 7-9.74 14.3-11.6 40.2-1.3 17.6-1.2 21.4.735 30 1.91 8.44 1.95 10 .336 11.2-1.59 1.16-1.11 4.41 3.09 20.9 2.74 10.8 5.95 21 7.14 22.9 2.96 4.51 26 22.8 30.9 24.5 5.32 1.89 18.9 1.82 24.3-.134zm-17.6-14.8c-3.14-1.39-14-10.6-14-11.9.00079-.148 6.55-.269 14.6-.269 13.1 0 15-.312 18.7-3.04 4.84-3.58 5.11-2.39 1.31 5.7-2.87 6.1-9.44 11.4-14 11.3-1.38-.0287-4.31-.850-6.51-1.83zm11.2-1.37c2.03-1.05 4.52-2.9 5.51-4.1 1.54-1.85 1.52-2.37-.0971-3.4-1.33-.841-1.4-1.22-.248-1.23.917-.0107 1.67-.606 1.67-1.32 0-.845-1.2-.845-3.42 0-1.88.715-7.32 1.3-12.1 1.3-5.43 0-8.35.497-7.83 1.33.453.733 3.64 1.35 7.08 1.37 4.98.0323 5.77.323 3.87 1.43-1.31.763-4.16.997-6.33.520-5.25-1.15-5.03.989.384 3.68 5.47 2.72 6.93 2.78 11.5.415zm-11.5-23.3c-4.89-4.08-5.5-7.71-2.79-16.4 1.35-4.33 2.45-9.36 2.45-11.2 0-1.87.579-2.94 1.34-2.46.739.457 1.04 2.44.669 4.41s-1.05 7.54-1.52 12.4c-.780 8.14-.615 8.96 2.2 10.9 2.28 1.59 3.75 1.79 5.84.788 2.46-1.18 2.41-1.01-.354 1.4-3.8 3.31-4.06 3.31-7.85.152zm-20.3-30.1c-1.1-.233-4.28-.797-7.07-1.25-2.79-.456-6.24-2-7.67-3.42-3.45-3.45-3.4-8.82.0937-9.93 1.48-.469 2.36-1.38 1.96-2.02-.398-.643 1.54-1.54 4.31-1.99 9.12-1.49 9.15-1.85.113-1.52-6.66.244-9.66.989-11.8 2.93-2.88 2.59-2.89 2.59-2.41-.0584.739-4.04 8.49-7.06 21.8-8.52 6.6-.720 13.4-1.72 15-2.22 2.23-.675 3-.367 3 1.2 0 2.5-3.93 4.85-8.25 4.93-2.61.0498-2.3.474 1.97 2.73 14.6 7.71 5.92 22.7-11.1 19.1zm-6.66-5.26c-.909-1.1-1.37-3.5-1.01-5.33.703-3.68-1.28-4.35-5.76-1.95-2.11 1.13-2.33 1.89-1.16 4.08.791 1.48 2.75 3.21 4.35 3.86 4.36 1.76 5.42 1.57 3.59-.650zm19.1 1.08c.930-.930-5.52-8.43-7.25-8.43-.527 0-.644 1.2-.260 2.67.385 1.47-.0451 3.57-.955 4.67-1.41 1.7-.984 1.99 2.95 1.99 2.53 0 5.02-.408 5.52-.908zm-10.9-8.71c-.957-.957-1.58-1.04-1.58-.2 0 1.78 1.58 3.36 2.47 2.47.379-.379-.0211-1.4-.889-2.27zm37.5 11.1c-8.2-5.12-6.95-13.1 2.74-17.5 5.55-2.52 5.55-2.52 1.43-2.55-3.93-.0279-9.88-4.47-8.22-6.13.413-.413 3.06-.129 5.88.631s9.69 1.74 15.3 2.19c10.9.868 18.5 4.23 18.5 8.18 0 2.02-.209 1.99-1.85-.262-1.49-2.04-3.79-2.6-11.7-2.85-8.87-.283-9.22-.205-3.61.819 3.41.623 7.51 2.44 9.11 4.04 3.37 3.37 2.78 4.88-1.1 2.8-4.66-2.49-12.4-.713-8.21 1.89.733.453 1.33.0686 1.33-.855 0-1.28.368-1.31 1.56-.115 1.16 1.16 1.18 2.4.0971 4.78-1.31 2.87-1.18 3.15 1.14 2.54 1.44-.375 3.48-1.92 4.54-3.44 2.37-3.39 4.08-2.15 2.11 1.53-1.67 3.12-7.19 5.09-17.5 6.21-5.97.652-8.13.301-11.6-1.88zm8.94-4.14c-1-1.87-.969-3.44.107-5.45 1.76-3.3-.0457-2.61-5.09 1.93-4.27 3.84-3.72 5.78 1.69 5.98 4.28.161 4.57-.057 3.29-2.45zm-76.3 27.4c-.788-2.57-2-4.67-2.68-4.67-.688 0-2.43-1.5-3.87-3.33s-3.3-3.33-4.12-3.33c-.824 0 .430 1.99 2.79 4.42s3.93 4.78 3.49 5.22c-1.25 1.25 1.97 6.36 4.01 6.36 1.47 0 1.55-.906.396-4.67zm113 1.67c.915-1.65 1.51-3.54 1.31-4.2-.193-.660 1.63-3.33 4.05-5.94s3.2-3.87 1.73-2.8c-5.6 4.08-9.58 8.75-10.5 12.3-1.12 4.46 1.03 4.88 3.37.663zm.674-14.6c-.426-1.06-.742-.748-.806.806-.0579 1.41.257 2.19 0.7 1.75.443-.443.490-1.59.105-2.56zm2.67-4.75c-.335-1.28-.610-.233-.610 2.33 0 2.57.274 3.62.610 2.33.335-1.28.335-3.38 0-4.67zm-129 1.81c-.335-1.75.430-4.77 1.7-6.71s1.97-3.86 1.56-4.27c-1.03-1.03-4.95 6.79-4.95 9.88 0 2.11 1.04 4.29 2.04 4.29.143 0-.0145-1.43-.349-3.19zm5.86-1.15c-.370-.917-.673-.167-.673 1.67 0 1.83.303 2.58.673 1.67.370-.917.370-2.42 0-3.33zm128-5.11c-.887-2.14-2.17-3.89-2.86-3.89-.686 0-.313 1.33.828 2.96s2.15 4.48 2.23 6.33c.112 2.44.329 2.7.785.931.347-1.34-.0959-4.19-.983-6.33zm-134-8.9c-1.09-1.09-1.61-.224-2.59 4.34l-.858 4 2.11-3.78c1.16-2.08 1.76-4.13 1.34-4.56zm137 5.34c-.0252-2.89-2.22-6.54-3.29-5.47-.734.734 1.86 7.8 2.86 7.8.249 0 .443-1.05.432-2.33zm-135-9c-.453-.733-1.54-1.32-2.41-1.31-.954.0123-.790.536.412 1.31 2.56 1.66 3.02 1.66 2 0zm136 0c.453-.733.189-1.33-.588-1.33s-1.41.6-1.41 1.33c0 .733.265 1.33.588 1.33s.959-.6 1.41-1.33z" fill="#e6c3ba"/>
  <path d="m24 265c.348-1.28 1.02-4.13 1.49-6.33s2.35-7 4.19-10.7c3.81-7.61 10-11.3 23.9-14 12.5-2.51 42.5-13 44.3-15.5 2.62-3.58 4.19-.689 5.61 10.3.704 5.46 2.71 14.1 4.47 19.3 1.75 5.13 3.6 11.6 4.12 14.3l.929 5h-44.8c-42 0-44.8-.145-44.2-2.33zm101 .257c0-1.14.691-4.82 1.54-8.17 1.43-5.7 1.34-6.25-1.5-8.39-2.92-2.2-2.95-2.42-.776-5.73 2.51-3.84 7.7-7.63 10.4-7.63.982 0 3.82 2.1 6.3 4.66l4.52 4.66-3.52 3.68c-3.18 3.32-3.4 4.19-2.29 9.01 2.29 9.87 2.21 10-6.7 10-6.35 0-8-.428-8-2.08zm29.8-.257c.368-1.28 2.46-8.33 4.65-15.7 2.19-7.33 4.6-17.5 5.36-22.5.755-5.04 1.7-9.49 2.11-9.89.405-.405 2.08.470 3.73 1.94 3.42 3.06 26.8 11.1 44 15.1 6.42 1.51 13.8 3.97 16.3 5.46 5.23 3.09 10.8 13.2 12.2 22.2l.878 5.67h-44.9c-42.2 0-44.9-.144-44.3-2.33zm-31.1-44.5c-3.28-.643-8.38-2.91-11.3-5.04-4.5-3.25-5.43-4.72-5.76-9.19-.358-4.73-1.28-6-8.37-11.5-9.34-7.25-12.2-11.5-14.4-21.4-1.29-5.75-2.21-7.33-4.47-7.66-1.87-.273-5.63-4.5-10.9-12.3-8.03-11.8-8.07-11.9-7.97-21.2.0907-7.88.554-9.69 3-11.7 2.55-2.06 2.9-3.67 2.91-13.5.0307-17.3 5.14-34.3 12.9-43.1 4.3-4.85 22.2-17.4 30.4-21.3 6.5-3.11 10.3-3.93 20.1-4.39 17.8-.834 32.8 4.1 46.4 15.4 3.36 2.77 7.89 6.42 10.1 8.1 8.96 6.89 17.3 33.6 15.6 49.9-.656 6.3-.439 7.67 1.21 7.67 2.74 0 4.61 5.48 4.61 13.5 0 7.18-2.21 12.5-8.19 19.8-2.09 2.55-3.81 5.3-3.81 6.1 0 1.88-5.7 7.26-7.69 7.26-1.37 0-4.28 7.78-4.3 11.5-.0156 3.06-7.62 12.5-14.3 17.9-6.72 5.33-7 5.81-7 12 0 3.56-.6 6.85-1.33 7.3-.733.453-1.33.180-1.33-.607s-2.25.0481-5 1.86c-8.37 5.5-18.6 7.04-31 4.62zm21.5-12.3c5.91-1.78 23.7-14.4 30.7-21.7 2.76-2.9 4.75-8.16 8.52-22.5 6.49-24.6 6.7-26 4.03-26-2.65 0-2.65-.356-.0311-11.6 1.58-6.76 1.9-12.3 1.26-21.7-1.4-20.5-3.37-34.8-5.32-38.6-2.5-4.84-14.2-15.6-20-18.4l-4.75-2.27-4.98 4.86c-12.5 12.2-30.7 11.8-41.1-.818l-3.97-4.82-5.55 2.98c-8.99 4.82-17.8 13-20.4 18.8-1.31 3-2.77 9.66-3.24 14.8-.468 5.13-1.47 14.7-2.23 21.3-1.13 9.86-1 13.6.735 21.1 2.63 11.3 2.66 14.3.115 14.3-2.59 0-2.58.117 1.3 13.5 1.82 6.26 4.24 15.4 5.4 20.4 1.15 4.97 3.05 10.5 4.21 12.3 2.13 3.25 21.5 18.8 27.2 21.9 7.84 4.2 18.5 5.01 28.1 2.13zm-1.56-20.2c1.72-1.83 3.43-3.33 3.8-3.33.367 0-.743 1.5-2.46 3.33s-3.43 3.33-3.8 3.33c-.367 0 .743-1.5 2.46-3.33zm-23.4-2.33c-3.15-3.74-3.33-4.39-1.35-4.78 1.26-.248 3 .472 3.86 1.6.861 1.13 3.97 2.28 6.9 2.56l5.33.511-5.81.224c-4.56.176-5.64.653-5.04 2.22 1.17 3.06.108 2.42-3.89-2.33zm24.4-3.22c.917-.370 1.67-1.5 1.67-2.51s1.2-2.48 2.67-3.27c3.1-1.66 3.21-1.32 1.12 3.27-.974 2.14-2.58 3.36-4.33 3.29-1.53-.0579-2.04-.408-1.12-.778zm-18-17c-4.2-3.3-4.33-6-.811-16.6l2.66-8-.958 7.33c-.527 4.03-.915 9.08-.863 11.2.106 4.36 3.89 7.89 7.46 6.97 1.28-.333 2-.0621 1.59.603-1.27 2.05-5.39 1.34-9.08-1.55zm-27.3-30c-4.73-1.12-10.7-5.96-9.13-7.48.491-.491 1.96.340 3.26 1.85s3.86 3.18 5.69 3.71c2.96.869 3.13.739 1.52-1.2-1.08-1.31-1.47-3.51-.964-5.53.941-3.75-1.32-4.46-6.08-1.91-4.02 2.15-4.55.445-.653-2.11 1.86-1.22 5.86-2.5 8.89-2.85 6.62-.761 19.1 2.98 18.2 5.44-.348.908-.0323 2.5.702 3.53 1.01 1.42 1.12 1.23.464-.788-.699-2.14-.539-2.34.808-1 1.29 1.28 1.31 2.03.114 3.23s-2.34.729-4.87-2c-3.92-4.23-6.12-4.61-5.15-.892.385 1.47-.0111 3.53-.879 4.58-1.3 1.57-.809 2 2.84 2.45 4.02.495 3.92.564-1.14.758-3.06.117-6.36.451-7.33.741-.977.290-3.8.0512-6.27-.531zm9.41-11c-.957-.957-1.58-1.04-1.58-.2 0 1.78 1.58 3.36 2.47 2.47.379-.379-.0211-1.4-.889-2.27zm45.8 11c-3.6-.663-4.25-1.04-2-1.17 2.97-.168 3.33-.773 3.33-5.52 0-2.93-.129-5.33-.287-5.33s-2.44 1.89-5.07 4.2c-3.37 2.96-5.2 3.78-6.2 2.78-1.65-1.65-.203-4.73 1.68-3.57.701.433 1.11.033.908-.889-1.07-4.9 17.3-7.84 25.3-4.06 4.4 2.07 6.29 5.35 2 3.47-3.37-1.48-11-1.85-11-.537 0 1.88 2.66 2.89 2.71 1.02.0252-1.09.551-.870 1.39.570.921 1.58.893 3.17-.0875 5-2 3.73.271 3.4 5.22-.768 2.26-1.9 4.1-2.8 4.1-2 0 2.53-5.21 6.78-8.33 6.8-1.65.0107-4.2.237-5.67.504s-5.07.0444-8-.496zm-67.7-18c2.46-2.98 8.46-4.58 20.6-5.49 5.72-.427 11.6-1.43 13.1-2.23 3.63-1.94 4.9-.409 2.03 2.46-1.77 1.77-5.62 2.49-16.7 3.13-7.91.453-15.8 1.6-17.6 2.55-2.93 1.56-3.07 1.52-1.47-.423zm88.2-.370c-2.57-.971-9.28-1.8-14.9-1.84-11.4-.0837-17.1-1.65-17.1-4.71 0-2.33 1.53-2.64 3.46-.706.730.730 6.1 1.67 11.9 2.09 10.8.784 21.9 3.83 21.9 6.02 0 .673-.15 1.15-.333 1.06-.183-.0875-2.43-.954-5-1.92zm-96.2 40.4c-.834-2.72-2.11-4.54-2.86-4.08-.829.513-1-.0773-.445-1.53 1.09-2.85-1.37-12.7-3.17-12.7-2.11 0-1.47 7.64.718 8.48 1.1.422 2 1.43 2 2.23 0 1.91-7.98-3.77-8.98-6.39-.424-1.1.341-4.07 1.7-6.6 2-3.72 2.17-5.07.876-7.14-.877-1.4-1.59-3.73-1.59-5.16 0-2.95-2.08-4.79-3.26-2.88-.429.695-.194 1.63.524 2.07.767.474.853 2.02.208 3.76-.603 1.62-1.5 5.35-1.99 8.29l-.889 5.33 2.64-5.67c3.58-7.7 4.41-7.16 1.36.878l-2.49 6.54 4.6 5.79c2.53 3.18 4.61 6.3 4.61 6.92.0272 2.37 5.73 9.02 6.81 7.94.626-.626.459-3.34-.372-6.05zm115-2c-.292-.292 1.8-3.61 4.64-7.37 2.85-3.76 4.71-7.16 4.15-7.55-.566-.393-1.01-3.41-.985-6.71.0247-3.3-.239-6.9-.587-8-.356-1.13.0948-1.85 1.04-1.67 2.03.407 2.21-1.84.245-3.05-1.92-1.19-2.86-.0319-3.31 4.07-.208 1.89-1.07 4.27-1.91 5.28-1.16 1.4-1.03 2.8.556 5.87 2.74 5.3 2.63 7.26-.583 10.2-2.62 2.37-2.67 2.33-2.67-2.73 0-5.72-1.88-5.03-3.43 1.26-.681 2.75-.517 3.59.572 2.92 2.55-1.58 1.71 2.08-1.03 4.45-1.41 1.22-2.94 4.59-3.41 7.49l-.854 5.27 4.05-4.58c2.23-2.52 3.81-4.82 3.52-5.11zm5.42-21c-1.29-3.35-.907-4.22.665-1.52.778 1.34 1.13 2.71.791 3.06-.343.343-.998-.351-1.46-1.54z" fill="#d6ab98"/>
  <path d="m24 265c.348-1.28 1.02-4.13 1.49-6.33s2.35-7 4.19-10.7c3.81-7.61 10-11.3 23.9-14 12.5-2.51 42.5-13 44.3-15.5 2.62-3.58 4.19-.689 5.61 10.3.704 5.46 2.71 14.1 4.47 19.3 1.75 5.13 3.6 11.6 4.12 14.3l.929 5h-44.8c-42 0-44.8-.145-44.2-2.33zm101 .257c0-1.14.691-4.82 1.54-8.17 1.43-5.7 1.34-6.25-1.5-8.39-2.92-2.2-2.95-2.42-.776-5.73 2.51-3.84 7.7-7.63 10.4-7.63.982 0 3.82 2.1 6.3 4.66l4.52 4.66-3.52 3.68c-3.18 3.32-3.4 4.19-2.29 9.01 2.29 9.87 2.21 10-6.7 10-6.35 0-8-.428-8-2.08zm29.8-.257c.368-1.28 2.46-8.33 4.65-15.7 2.19-7.33 4.6-17.5 5.36-22.5.755-5.04 1.7-9.49 2.11-9.89.405-.405 2.08.470 3.73 1.94 3.42 3.06 26.8 11.1 44 15.1 6.42 1.51 13.8 3.97 16.3 5.46 5.23 3.09 10.8 13.2 12.2 22.2l.878 5.67h-44.9c-42.2 0-44.9-.144-44.3-2.33zm5.01-54c-.196-4.32-1.15-4.41-10.8-1-8.83 3.11-21.3 3.32-28.7 0.5-9.33-3.59-11.3-3.76-11.4-.988-.0172 2.09-.225 2.17-1.31.489-.711-1.1-1.3-3.61-1.31-5.59-.0159-2.79-1.75-4.92-7.81-9.59-4.29-3.3-8.7-7.38-9.81-9.08-2.09-3.19-2.58-4.57-5.04-14.1-1.06-4.09-2.15-5.67-3.93-5.67-2.95 0-18-21.5-19.3-27.4-1.35-6.52.815-17 3.84-18.6 2.33-1.2 2.61-2.5 2.25-10.7-.967-22.4 5.61-39.4 19.7-51 8.79-7.22 20.9-15 23.3-15 .733.0064-1.97 1.83-6 4.05s-10.2 6.86-13.7 10.3c-7.96 7.82-9.49 13-11.6 39-1.34 16.7-1.27 20.6.540 28.4 2.69 11.6 2.64 12.9-.477 12.9-2.28 0-2.43.486-1.26 4.33.724 2.38 3.37 12.1 5.87 21.6 2.51 9.52 5.68 18.8 7.05 20.7 3.85 5.2 20.2 18.2 27.5 22 5.29 2.7 8.54 3.37 16.4 3.37 5.54 0 11.8-.841 14.4-1.94 5.91-2.47 25.7-17.9 29.4-22.9 1.53-2.09 4.96-12.2 7.62-22.5s5.21-19.9 5.66-21.5c.613-2.1.138-3-1.87-3.52-2.6-.679-2.62-.988-.785-8.87 2.55-10.9 2.67-16.4.826-36.7-2.46-27-3.74-29.9-17.9-40.3-4.35-3.2-7.4-5.81-6.76-5.79.631.0178 3.85 2.12 7.15 4.66 3.3 2.55 8.2 6.18 10.9 8.07 6.3 4.44 11.1 11.5 14.5 21.2 3.17 9.03 5.44 26.4 4.33 33.3-.622 3.84-.209 5.19 2.17 7.12 2.35 1.9 3.04 4.11 3.46 11 .287 4.75.202 7.44-.189 5.97s-1.63-4.69-2.76-7.17c-1.6-3.5-1.69-4.73-.405-5.52.905-.559 1.23-1.68.730-2.5-1.46-2.36-3.18-1.73-4.09 1.52-.462 1.65-1.49 4.32-2.28 5.93-1.11 2.27-.905 4.05.926 7.91 2.42 5.1 1.76 8.36-1.94 9.59-1.09.362-1.38-.0184-.779-.996 1.31-2.12-.430-8.82-1.89-7.29-.624.656-2.43 5.69-4.01 11.2-1.58 5.5-3.18 11-3.55 12.3-1.16 4.04 3.45 2.66 5.9-1.77 3.52-6.36 13.6-20.6 13.6-19.2-.004.693-1.05 2.82-2.33 4.72s-4.61 6.88-7.41 11.1c-2.8 4.18-6.44 8.12-8.09 8.75-2.31.879-3.41 2.96-4.74 8.94-1.45 6.55-2.82 8.86-8.57 14.5-3.76 3.7-8.24 7.6-9.95 8.68-2.35 1.48-3.37 3.75-4.17 9.28-.583 4.03-1.14 5.67-1.23 3.65zm-79.6-50c-.466-2.33-2.07-8.35-3.57-13.4-2.75-9.24-5.25-10.9-5.25-3.54 0 2.63-.580 3.84-1.67 3.49-2.54-.835-2.79-7.45-.409-11.1 1.55-2.36 1.75-3.87.764-5.58-.744-1.29-1.96-4.05-2.7-6.12-.738-2.08-2.05-3.54-2.92-3.25-2.43.809-2.89 3.69-.588 3.69 1.81 0 1.83.519.111 4.62-2.87 6.87-2.37 11.7 1.83 17.5 2.07 2.86 5.42 8.05 7.46 11.5 4.39 7.5 8.25 8.67 6.94 2.1zm62.5 28.2c1.33-1.47 2.71-2.67 3.08-2.67.367 0-.419 1.2-1.75 2.67s-2.71 2.67-3.08 2.67c-.367 0 .419-1.2 1.75-2.67zm-23.2-3.88c-2.23-3.13-2.47-4.12-1.01-4.12 1.06 0 2.67.9 3.59 2 .913 1.1 4.14 2.1 7.16 2.22l5.5.224-5.32.542c-2.92.298-5.69 1.15-6.15 1.9-.463.749-2.15-.489-3.77-2.77zm24.9-2.34c.917-.370 1.67-1.38 1.67-2.24 0-.862 1.2-2.32 2.67-3.23 3.1-1.93 3.21-1.63 1.12 2.96-.974 2.14-2.58 3.36-4.33 3.29-1.53-.0579-2.04-.408-1.12-.778zm-16-16c-1.69-2.16-1.63-2.19.837-.377 1.47 1.08 2.92 2.13 3.22 2.33.306.208-.071.377-.837.377s-2.22-1.05-3.22-2.33zm-3.57-9c.0272-2.2.326-2.94.664-1.64s.316 3.1-.0494 4c-.365.903-.642-.159-.615-2.36zm-31.7-26c-1.88-1.88-3.07-3.76-2.64-4.19.426-.426 1.84.458 3.14 1.96 2.86 3.31 7.81 4.95 9.02 2.99.483-.781.0834-1.26-.888-1.05-1.22.253-1.7-1.02-1.55-4.1.223-4.72-.872-5.01-8.21-2.18-2.54.977-2.55.907-.374-1.41 3.25-3.45 16.5-4.3 22.1-1.41 4.29 2.22 8.25 7.46 5.63 7.46-.759 0-1.38-.579-1.38-1.29 0-1.48-4.31-4-8.09-4.73-2.64-.508-3.56 1.26-1.36 2.61.671.415 1.5-.00008 1.84-.921.414-1.11.975-.826 1.66.835.586 1.42.384 3.55-.467 4.91-1.21 1.94-1.06 2.52.790 3 1.26.331-1.79.671-6.77.756-8.05.137-9.44-.225-12.5-3.26zm61.5 2.46c1.47-.353 3.27-1.22 4-1.92.862-.829.448-.946-1.17-.329-2.21.843-2.44.402-1.95-3.82.476-4.07.241-4.6-1.61-3.61-1.19.637-2.94 2.09-3.88 3.23-2.47 2.98-4.39 2.56-2.45-.538.897-1.44 3.5-3.62 5.79-4.85 5.44-2.93 18.4-2.08 21.7 1.43 2.14 2.28 2.12 2.35-.401 1.34-1.47-.585-4.97-1.24-7.77-1.46-4.41-.338-4.88-.118-3.45 1.6 1.17 1.41 1.93 1.55 2.59.488 1.58-2.56 2.77 2.64 1.25 5.48-1.95 3.64.375 3.25 5.28-.882 2.26-1.9 4.1-2.84 4.1-2.1 0 .745-1.58 2.6-3.51 4.12-2.81 2.21-5.27 2.73-12.3 2.61-4.85-.0851-7.62-.443-6.15-.796zm-63.4-18c1.15-.661 7.94-1.8 15.1-2.53 7.16-.733 13.9-2.04 14.9-2.9 1.49-1.24 1.89-1.14 1.89.449 0 2.77-2.72 3.59-14.5 4.39-5.58.378-12.2.936-14.8 1.24-3.21.382-4.02.181-2.58-.646zm59.3-1c-4.15-.607-7.33-2.54-7.33-4.44 0-.606 2.08-.233 4.62.830s7.19 1.97 10.3 2.01c3.14.0423 8.11.573 11 1.18 4.6.950 3.95 1.1-4.67 1.06-5.5-.0255-11.8-.310-14-.631zm8.01-69.7c-.467-.756.0681-.979 1.25-.524 2.31.886 2.73 1.84.815 1.84-.690 0-1.62-.593-2.07-1.32z" fill="#a3a19e"/>
  <path d="m25.3 262c1.19-8.67 6.61-18.5 11.9-21.7 2.47-1.46 9.25-3.71 15.1-5 15.6-3.47 42.2-12.6 45.4-15.6 2.75-2.53 2.9-2.53 3.57-.194.383 1.35 1.11 5.75 1.62 9.78.509 4.03 2.57 12.7 4.57 19.3 2.01 6.6 4.04 13.6 4.53 15.7l.883 3.67h-88.5zm99.5 4.2c0-.983.842-4.59 1.87-8 1.83-6.1 1.8-6.27-1.56-8.92l-3.44-2.7 5.17-5.29c2.84-2.91 5.9-5.29 6.8-5.29.899 0 3.88 2.11 6.62 4.7l4.98 4.7-3.61 3.76c-3.36 3.5-3.51 4.17-2.25 9.64 2.15 9.32 2.23 9.21-6.58 9.21-5.8 0-8-.492-8-1.79zm30.7-.0385c0-1 1.8-7.88 4-15.3 2.2-7.4 4.55-17.4 5.23-22.1 1.47-10.4 2.43-12.4 4.57-9.56 1.95 2.57 27.1 11.6 42.9 15.3 17.8 4.26 22.5 7.12 26.5 16.1 1.78 4.07 3.64 9.64 4.12 12.4l.875 5h-44.1c-36.4.00001-44.1-.317-44.1-1.83zm4.17-54.5c-.196-4.32-1.15-4.41-10.8-1-8.83 3.11-21.3 3.32-28.7 0.5-9.33-3.59-11.3-3.76-11.4-.988-.0172 2.09-.225 2.17-1.31.489-.711-1.1-1.3-3.61-1.31-5.59-.0159-2.79-1.75-4.92-7.81-9.59-4.29-3.3-8.7-7.38-9.81-9.08-2.09-3.19-2.58-4.57-5.04-14.1-1.06-4.09-2.15-5.67-3.93-5.67-2.95 0-18-21.5-19.3-27.4-1.35-6.52.815-17 3.84-18.6 2.33-1.2 2.61-2.5 2.25-10.7-.967-22.4 5.61-39.4 19.7-51 8.79-7.22 20.9-15 23.3-15 .733.0064-1.97 1.83-6 4.05s-10.2 6.86-13.7 10.3c-7.96 7.82-9.49 13-11.6 39-1.34 16.7-1.27 20.6.540 28.4 2.69 11.6 2.64 12.9-.477 12.9-2.28 0-2.43.486-1.26 4.33.724 2.38 3.37 12.1 5.87 21.6 2.51 9.52 5.68 18.8 7.05 20.7 3.85 5.2 20.2 18.2 27.5 22 5.29 2.7 8.54 3.37 16.4 3.37 5.54 0 11.8-.841 14.4-1.94 5.91-2.47 25.7-17.9 29.4-22.9 1.53-2.09 4.96-12.2 7.62-22.5s5.21-19.9 5.66-21.5c.613-2.1.138-3-1.87-3.52-2.6-.679-2.62-.988-.785-8.87 2.55-10.9 2.67-16.4.826-36.7-2.46-27-3.74-29.9-17.9-40.3-4.35-3.2-7.4-5.81-6.76-5.79.631.0178 3.85 2.12 7.15 4.66 3.3 2.55 8.2 6.18 10.9 8.07 6.3 4.44 11.1 11.5 14.5 21.2 3.17 9.03 5.44 26.4 4.33 33.3-.622 3.84-.209 5.19 2.17 7.12 2.35 1.9 3.04 4.11 3.46 11 .287 4.75.202 7.44-.189 5.97s-1.63-4.69-2.76-7.17c-1.6-3.5-1.69-4.73-.405-5.52.905-.559 1.23-1.68.730-2.5-1.46-2.36-3.18-1.73-4.09 1.52-.462 1.65-1.49 4.32-2.28 5.93-1.11 2.27-.905 4.05.926 7.91 2.42 5.1 1.76 8.36-1.94 9.59-1.09.362-1.38-.0184-.779-.996 1.31-2.12-.430-8.82-1.89-7.29-.624.656-2.43 5.69-4.01 11.2-1.58 5.5-3.18 11-3.55 12.3-1.16 4.04 3.45 2.66 5.9-1.77 3.52-6.36 13.6-20.6 13.6-19.2-.004.693-1.05 2.82-2.33 4.72s-4.61 6.88-7.41 11.1c-2.8 4.18-6.44 8.12-8.09 8.75-2.31.879-3.41 2.96-4.74 8.94-1.45 6.55-2.82 8.86-8.57 14.5-3.76 3.7-8.24 7.6-9.95 8.68-2.35 1.48-3.37 3.75-4.17 9.28-.583 4.03-1.14 5.67-1.23 3.65zm-79.6-51c-.466-2.33-2.07-8.35-3.57-13.4-2.75-9.24-5.25-10.9-5.25-3.54 0 2.63-.580 3.84-1.67 3.49-2.54-.835-2.79-7.45-.409-11.1 1.55-2.36 1.75-3.87.764-5.58-.744-1.29-1.96-4.05-2.7-6.12-.738-2.08-2.05-3.54-2.92-3.25-2.43.809-2.89 3.69-.588 3.69 1.81 0 1.83.519.111 4.62-2.87 6.87-2.37 11.7 1.83 17.5 2.07 2.86 5.42 8.05 7.46 11.5 4.39 7.5 8.25 8.67 6.94 2.1zm39.5 24.3c-2.31-3.7-2.07-4.34 1.01-2.68 1.47.785 2.67 2.31 2.67 3.38 0 2.75-1.73 2.43-3.68-.695zm27.7-5.47c.819-1.53 1.75-2.52 2.08-2.19.933.933-.959 4.97-2.33 4.97-.681 0-.568-1.25.251-2.78zm-18.9-12.9c-1.69-2.16-1.63-2.19.837-.377 1.47 1.08 2.92 2.13 3.22 2.33.306.208-.071.377-.837.377s-2.22-1.05-3.22-2.33zm-3.57-9c.0272-2.2.326-2.94.664-1.64s.316 3.1-.0494 4c-.365.903-.642-.159-.615-2.36zm-30.5-24c-1.63-1.14-2.95-2.79-2.94-3.67.0144-1.13.307-1.16 1-.118.539.810 2.78 2.44 4.98 3.61 2.2 1.18 3.08 2.16 1.96 2.19-1.12.0293-3.37-.881-5-2.02zm8.21.006c.437-1.14.244-1.73-.428-1.31-1.83 1.13-3.24-4.66-1.55-6.35.806-.806 1.47-2.01 1.47-2.68 0-1.1-1.92-.868-8.88 1.09-1.35.381-.657-.190 1.54-1.27 8.52-4.18 22.7-1.04 25.3 5.58.631 1.64-.0551 1.4-2.48-.871-3.45-3.24-10.1-4.92-10.1-2.55 0 .737 1.2 1.65 2.67 2.04 3.21.840 3.29 1.57.591 5.42-2.45 3.5-9.38 4.27-8.08.894zm56 .0852c.440-1.15.0781-1.85-.857-1.67-1.03.202-1.55-1.25-1.42-4.02.238-5.24-.682-5.36-6.43-.842-3.78 2.97-3.67 2.75.730-1.5 5.11-4.94 5.26-4.99 13.8-4.3 4.74.381 9.32 1.45 10.2 2.37 1.21 1.31 1.01 1.48-.914.805-6.08-2.15-9.26-2.56-8.34-1.07.603.976.195 1.23-1.15.713-1.51-.581-1.86-.211-1.26 1.35.453 1.18 1.96 2.15 3.35 2.15 3.14 0 3.13 1.17-.0675 5-2.86 3.43-8.83 4.23-7.6 1.02zm10.1.512c1.79-.716 3.92-1.73 4.73-2.25.807-.520.323.104-1.08 1.39-1.4 1.28-3.53 2.3-4.73 2.25-1.38-.0535-.986-.564 1.08-1.39zm-77.4-19c1.15-.661 7.94-1.8 15.1-2.53 7.16-.733 13.9-2.04 14.9-2.9 1.49-1.24 1.89-1.14 1.89.449 0 2.77-2.72 3.59-14.5 4.39-5.58.378-12.2.936-14.8 1.24-3.21.382-4.02.181-2.58-.646zm59.3-1c-4.15-.607-7.33-2.54-7.33-4.44 0-.606 2.08-.233 4.62.830s7.19 1.97 10.3 2.01c3.14.0423 8.11.573 11 1.18 4.6.950 3.95 1.1-4.67 1.06-5.5-.0255-11.8-.310-14-.631zm8.01-69.7c-.467-.756.0681-.979 1.25-.524 2.31.886 2.73 1.84.815 1.84-.690 0-1.62-.593-2.07-1.32z" fill="#c79c75"/>
  <path d="m25.3 262c1.19-8.67 6.61-18.5 11.9-21.7 2.47-1.46 9.25-3.71 15.1-5 15.6-3.47 42.2-12.6 45.4-15.6 2.75-2.53 2.9-2.53 3.57-.194.383 1.35 1.11 5.75 1.62 9.78.509 4.03 2.57 12.7 4.57 19.3 2.01 6.6 4.04 13.6 4.53 15.7l.883 3.67h-88.5zm99.5 4.2c0-.983.842-4.59 1.87-8 1.83-6.1 1.8-6.27-1.56-8.92l-3.44-2.7 5.17-5.29c2.84-2.91 5.9-5.29 6.8-5.29.899 0 3.88 2.11 6.62 4.7l4.98 4.7-3.61 3.76c-3.36 3.5-3.51 4.17-2.25 9.64 2.15 9.32 2.23 9.21-6.58 9.21-5.8 0-8-.492-8-1.79zm30.7-.0385c0-1 1.8-7.88 4-15.3 2.2-7.4 4.55-17.4 5.23-22.1 1.47-10.4 2.43-12.4 4.57-9.56 1.95 2.57 27.1 11.6 42.9 15.3 17.8 4.26 22.5 7.12 26.5 16.1 1.78 4.07 3.64 9.64 4.12 12.4l.875 5h-44.1c-36.4.00001-44.1-.317-44.1-1.83zm-31-55.1c.917-.370 2.42-.370 3.33 0 .917.370.167.673-1.67.673-1.83 0-2.58-.303-1.67-.673zm15.4-.0409c1.3-.338 3.1-.316 4 .0495.903.365-.159.642-2.36.615-2.2-.0272-2.94-.326-1.64-.664zm19.7-1.19c.064-1.55.380-1.87.806-.806.385.962.338 2.11-.105 2.56-.443.443-.758-.344-0.7-1.75zm-46-3c-5.85-3.97-5.77-3.96-6.54-1-.375 1.44-.669.923-.764-1.33-.175-4.16 1.33-4.7 4.02-1.46 1.01 1.22 4.23 3.3 7.16 4.64 2.93 1.33 4.37 2.44 3.19 2.46-1.18.0161-4.36-1.47-7.06-3.3zm35.1 1.86c1.79-.716 5.84-3.41 8.99-6 3.15-2.58 5.38-3.79 4.95-2.68-.943 2.46-12.7 10.2-15.3 10.1-1.04-.0465-.415-.671 1.38-1.39zm-51-14c-1.66-2.11-1.61-2.16.503-.503 1.28 1.01 2.33 2.06 2.33 2.33 0 1.1-1.09.391-2.84-1.83zm73.5-2.08c0-.229 1.95-2.18 4.33-4.33l4.33-3.92-3.92 4.33c-3.65 4.04-4.75 4.95-4.75 3.92zm-51.7-7.56c-2.31-3.7-2.07-4.34 1.01-2.68 1.47.785 2.67 2.31 2.67 3.38 0 2.75-1.73 2.43-3.68-.695zm27.7-5.47c.819-1.53 1.75-2.52 2.08-2.19.933.933-.959 4.97-2.33 4.97-.681 0-.568-1.25.251-2.78zm37.4-15.3c.064-1.55.380-1.87.806-.806.385.962.338 2.11-.105 2.56-.443.443-.758-.344-0.7-1.75zm-104-2c.0640-1.55.380-1.87.806-.806.385.962.338 2.11-.105 2.56-.443.443-.758-.344-0.7-1.75zm105-4c.064-1.55.380-1.87.806-.806.385.962.338 2.11-.105 2.56-.443.443-.758-.344-0.7-1.75zm-107-4c-.490-1.95-.635-3.81-.320-4.12.314-.314.973 1.03 1.46 2.98.490 1.95.635 3.81.320 4.12-.314.314-.973-1.03-1.46-2.98zm-10.3-1.57c-1.66-2.11-1.61-2.16.503-.503 1.28 1.01 2.33 2.06 2.33 2.33 0 1.1-1.09.391-2.84-1.83zm128 .497c0-.277 1.05-1.33 2.33-2.33 2.11-1.66 2.16-1.61.503.503-1.74 2.22-2.84 2.93-2.84 1.83zm-132-5c-1.66-2.11-1.61-2.16.503-.503 1.28 1.01 2.33 2.06 2.33 2.33 0 1.1-1.09.391-2.84-1.83zm4.44-1.93c-2.43-2.43-1.92-7.07 1.16-10.6l2.76-3.15-.885 4c-.487 2.2-.977 5.65-1.09 7.67-.112 2.02-.234 3.67-.271 3.67-.0367 0-.787-.72-1.67-1.6zm128-2.05c0-2.1-.668-4.48-1.48-5.3-.816-.816-1.02-2.23-.463-3.14.761-1.23 1.48-1.03 2.82.805 2.1 2.87 2.39 9.42.463 10.6-.770.476-1.33-.786-1.33-2.99zm-5.23-3.79c.064-1.55.380-1.87.806-.806.385.962.338 2.11-.105 2.56-.443.443-.758-.344-0.7-1.75zm14.9-5.89c0-2.57.274-3.62.610-2.33.335 1.28.335 3.38 0 4.67-.335 1.28-.610.233-.610-2.33zm-112 0c-1.63-1.14-2.95-2.79-2.94-3.67.0144-1.13.307-1.16 1-.118.539.810 2.78 2.44 4.98 3.61 2.2 1.18 3.08 2.16 1.96 2.19-1.12.0293-3.37-.881-5-2.02zm8.21.006c.437-1.14.244-1.73-.428-1.31-1.83 1.13-3.24-4.66-1.55-6.35.806-.806 1.47-2.01 1.47-2.68 0-1.1-1.92-.868-8.88 1.09-1.35.381-.657-.190 1.54-1.27 8.41-4.12 22.7-1.05 25.2 5.4.501 1.3-.747.790-3.3-1.36-4.2-3.53-9.24-4.62-9.24-2 0 .802 1.2 1.77 2.67 2.16 3.21.840 3.29 1.57.591 5.42-2.45 3.5-9.38 4.27-8.08.894zm56 .0852c.440-1.15.0781-1.85-.857-1.67-1.03.202-1.55-1.25-1.42-4.02.238-5.24-.682-5.36-6.43-.842-3.78 2.97-3.67 2.75.730-1.5 5.11-4.94 5.26-4.99 13.8-4.3 4.74.381 9.32 1.45 10.2 2.37 1.21 1.31 1.01 1.48-.914.805-5.27-1.86-8.28-2.17-10-1.02-2.15 1.4-.874 4.16 1.92 4.16 2.38 0 2.41 2.58.0652 5.67-2.23 2.94-8.11 3.23-7 .349zm10.1.512c1.79-.716 3.92-1.73 4.73-2.25.807-.520.323.104-1.08 1.39-1.4 1.28-3.53 2.3-4.73 2.25-1.38-.0535-.986-.564 1.08-1.39zm18.8-.639c.064-1.55.380-1.87.806-.806.385.962.338 2.11-.105 2.56-.443.443-.758-.344-0.7-1.75zm-110-5c-.506-2.3-.642-4.47-.303-4.81.340-.340 1 1.3 1.47 3.64 1.11 5.56.0344 6.63-1.17 1.17zm-7.71 1.76c-.354-.599-1.07-3.09-1.6-5.54-.756-3.52-1.49-4.32-3.49-3.79-1.39.365-2.2.119-1.79-.546.411-.665 1.46-1.21 2.34-1.21 1.12-.004 1.64-4.4 1.78-15 .141-11.3.853-16.9 2.86-22.5 3.54-9.91 8.49-17.5 13.8-21.3 4.27-3.04 4.31-3.05 2.32-.192-1.12 1.6-3.56 4.11-5.43 5.57-4.39 3.46-13 23.2-9.1 20.8.888-.549.502.704-.857 2.78-2.06 3.15-2.45 6.25-2.32 18.5.0826 8.09.849 16.4 1.7 18.6 1.43 3.54 1.26 6.43-.231 3.9zm127-1.76c1.19-2.29 1.74-9.31 1.74-22.4.0002-10.5.391-17.7.867-16 .477 1.69.927 8.93 1 16.1.0963 9.42.592 13 1.8 13 .925.0225.628.645-.667 1.4-1.28.747-2.33 2.41-2.33 3.7s-.933 3.51-2.07 4.93c-1.94 2.42-1.96 2.37-.334-.745zm-7.32-3.67c1.3-6.12 1.34-16 .141-31l-.911-11.3 2 12c1.1 6.6 1.95 14.1 1.9 16.7-.119 5.46-2.63 18.7-3.55 18.7-.348 0-.155-2.25.428-5zm13.4 2.44c-.580-2.22-.406-2.74.583-1.75.775.775 1.15 2.2.826 3.16-.333.999-.937.394-1.41-1.41zm-128-12c-.507-4.05-.543-7.98-.0803-8.73.462-.748 1.16-5.11 1.55-9.69s1.01-8.63 1.37-9c.650-.655-.928 33.6-1.58 34.4-.184.217-.750-2.92-1.26-6.98zm119-30.4-2.57-3.03 3 2.54c2.25 1.91 2.99 2.07 2.97.667-.0749-4.79-6.23-14.7-14.4-23.1-4.91-5.09-6.74-7.4-4.06-5.15s5.4 4.31 6.05 4.58c2.74 1.14 9.86 11.7 11.9 17.6 2.57 7.54 1.07 10.6-2.9 5.9zm-102-29.3c0-.277 1.05-1.33 2.33-2.33 2.11-1.66 2.16-1.61.503.503-1.74 2.22-2.84 2.93-2.84 1.83z" fill="#b68d5e"/>
  <path d="m25.3 262c1.19-8.67 6.61-18.5 11.9-21.7 2.47-1.46 9.25-3.71 15.1-5 15.6-3.47 42.2-12.6 45.4-15.6 2.75-2.53 2.9-2.53 3.57-.194.383 1.35 1.11 5.75 1.62 9.78.509 4.03 2.57 12.7 4.57 19.3 2.01 6.6 4.04 13.6 4.53 15.7l.883 3.67h-88.5zm99.5 4.2c0-.983.842-4.59 1.87-8 1.83-6.1 1.8-6.27-1.56-8.92l-3.44-2.7 5.17-5.29c2.84-2.91 5.9-5.29 6.8-5.29.899 0 3.88 2.11 6.62 4.7l4.98 4.7-3.61 3.76c-3.36 3.5-3.51 4.17-2.25 9.64 2.15 9.32 2.23 9.21-6.58 9.21-5.8 0-8-.492-8-1.79zm30.7-.0385c0-1 1.8-7.88 4-15.3 2.2-7.4 4.55-17.4 5.23-22.1 1.47-10.4 2.43-12.4 4.57-9.56 1.95 2.57 27.1 11.6 42.9 15.3 17.8 4.26 22.5 7.12 26.5 16.1 1.78 4.07 3.64 9.64 4.12 12.4l.875 5h-44.1c-36.4.00001-44.1-.317-44.1-1.83zm-31-55.1c.917-.370 2.42-.370 3.33 0 .917.370.167.673-1.67.673-1.83 0-2.58-.303-1.67-.673zm15.4-.0409c1.3-.338 3.1-.316 4 .0495.903.365-.159.642-2.36.615-2.2-.0272-2.94-.326-1.64-.664zm19.7-1.19c.064-1.55.380-1.87.806-.806.385.962.338 2.11-.105 2.56-.443.443-.758-.344-0.7-1.75zm-46-3c-5.85-3.97-5.77-3.96-6.54-1-.375 1.44-.669.923-.764-1.33-.175-4.16 1.33-4.7 4.02-1.46 1.01 1.22 4.23 3.3 7.16 4.64 2.93 1.33 4.37 2.44 3.19 2.46-1.18.0161-4.36-1.47-7.06-3.3zm35.1 1.86c1.79-.716 5.84-3.41 8.99-6 3.15-2.58 5.38-3.79 4.95-2.68-.943 2.46-12.7 10.2-15.3 10.1-1.04-.0465-.415-.671 1.38-1.39zm-51-14c-1.66-2.11-1.61-2.16.503-.503 1.28 1.01 2.33 2.06 2.33 2.33 0 1.1-1.09.391-2.84-1.83zm73.5-2.08c0-.229 1.95-2.18 4.33-4.33l4.33-3.92-3.92 4.33c-3.65 4.04-4.75 4.95-4.75 3.92zm-51.7-7.56c-2.31-3.7-2.07-4.34 1.01-2.68 1.47.785 2.67 2.31 2.67 3.38 0 2.75-1.73 2.43-3.68-.695zm27.7-5.47c.819-1.53 1.75-2.52 2.08-2.19.933.933-.959 4.97-2.33 4.97-.681 0-.568-1.25.251-2.78zm37.4-15.3c.064-1.55.380-1.87.806-.806.385.962.338 2.11-.105 2.56-.443.443-.758-.344-0.7-1.75zm-104-2c.0640-1.55.380-1.87.806-.806.385.962.338 2.11-.105 2.56-.443.443-.758-.344-0.7-1.75zm105-4c.064-1.55.380-1.87.806-.806.385.962.338 2.11-.105 2.56-.443.443-.758-.344-0.7-1.75zm-107-4c-.490-1.95-.635-3.81-.320-4.12.314-.314.973 1.03 1.46 2.98.490 1.95.635 3.81.320 4.12-.314.314-.973-1.03-1.46-2.98zm-10.3-1.57c-1.66-2.11-1.61-2.16.503-.503 1.28 1.01 2.33 2.06 2.33 2.33 0 1.1-1.09.391-2.84-1.83zm128 .497c0-.277 1.05-1.33 2.33-2.33 2.11-1.66 2.16-1.61.503.503-1.74 2.22-2.84 2.93-2.84 1.83zm-132-5c-1.66-2.11-1.61-2.16.503-.503 1.28 1.01 2.33 2.06 2.33 2.33 0 1.1-1.09.391-2.84-1.83zm4.44-1.93c-2.12-2.12-2.03-6.64.196-9.68 2.4-3.28 4.2-.443 2.15 3.39-.833 1.56-1.22 3.97-.853 5.36.777 2.97.638 3.06-1.49.930zm128-2.24c0-2.2-.574-4.35-1.28-4.79-.701-.433-.905-1.75-.452-2.93.733-1.91 1.02-1.88 2.61.298 2.09 2.86 2.37 9.41.452 10.6-.776.479-1.33-.849-1.33-3.18zm-5.23-3.6c.064-1.55.380-1.87.806-.806.385.962.338 2.11-.105 2.56-.443.443-.758-.344-0.7-1.75zm14.9-5.89c0-2.57.274-3.62.610-2.33.335 1.28.335 3.38 0 4.67-.335 1.28-.610.233-.610-2.33zm-102-.0204c1.74-1.14 1.75-1.47.0637-2.56-1.06-.685-2.42-.947-3.01-.582-1.9 1.17-2.74-3.47-1.01-5.56 2.44-2.94.709-3.81-4.19-2.1-2.36.821-4.53 1.25-4.82.954-1.4-1.4 9.96-3.71 15.3-3.11 4.54.511 7.02 1.74 10.2 5.05l4.17 4.37-4.44-3.56c-4.34-3.49-10.9-4.84-10.9-2.25 0 .719 1.5 1.68 3.33 2.14s3.33 1.24 3.33 1.73c0 2.48-4.51 6.82-7.08 6.8-2.39-.0167-2.56-.262-.924-1.33zm55.6-1.32c-.497-1.9-1.37-2.41-3.03-1.78-2.01.773-2.22.317-1.49-3.33.995-4.98-.0368-5.24-5.24-1.35l-3.85 2.88 3.55-3.73c4.5-4.73 14.1-6.03 21.1-2.85 2.58 1.18 3.17 1.73 1.33 1.23-6.58-1.76-10.7-1.57-10.7.511 0 1.1 1.2 2.31 2.67 2.69 3.07.804 3.33 2.73.811 6.05-2.34 3.08-4.34 2.95-5.2-.339zm-67.6-.693c-2.45-2.95-1.06-3.29 1.69-.412 1.28 1.34 1.81 2.44 1.16 2.44-.644 0-1.93-.914-2.86-2.03zm77.5 1.65c.306-.208 1.76-1.26 3.22-2.33 2.47-1.81 2.53-1.78.837.377-1.01 1.28-2.46 2.33-3.22 2.33-.766 0-1.14-.170-.837-.377zm32.9-6.18c-.580-2.22-.406-2.74.583-1.75.775.775 1.15 2.2.826 3.16-.333.999-.937.394-1.41-1.41zm-136-5c0-1.5-.812-1.94-2.67-1.46-1.47.384-2.33.154-1.92-.511 1.48-2.39 5.92-1.3 5.92 1.46 0 1.47-.3 2.67-.667 2.67s-.667-.970-.667-2.16zm132-6c.162-4.55.312-4.86.787-1.63.323 2.2 1.18 4.36 1.91 4.81.751.464.411 1.17-.787 1.63-1.74.667-2.08-.185-1.91-4.81zm-133-10c.01-3.67.269-5.01.575-2.98s.298 5.03-.0182 6.67-.567-.0183-.557-3.68zm133-8c.0272-2.2.326-2.94.664-1.64s.316 3.1-.0495 4c-.365.903-.642-.159-.615-2.36zm-132-7.2c0-1.83.303-2.58.673-1.67.370.917.370 2.42 0 3.33-.370.917-.673.167-.673-1.67zm1.31-5.33c0-1.1.516-3.2 1.15-4.67.722-1.68 1.15-1.93 1.15-.667 0 1.1-.516 3.2-1.15 4.67-.722 1.68-1.15 1.93-1.15.667zm108-30.3-3.23-3.67 3.67 3.23c2.02 1.78 3.67 3.43 3.67 3.67 0 1.05-1.08.195-4.1-3.23zm-85.2-.837c0-.277 1.05-1.33 2.33-2.33 2.11-1.66 2.16-1.61.503.503-1.74 2.22-2.84 2.93-2.84 1.83z" fill="#b7725e"/>
  <path d="m25.2 262c1.11-8.29 7.07-19.3 12-22.2 2.36-1.39 7.89-3.24 12.3-4.12 13.4-2.67 46.1-13.8 48.7-16.5 2.35-2.52 2.41-2.5 3.12 1.21.399 2.08 1.11 6.48 1.58 9.78.467 3.3 2.64 12 4.83 19.3 2.19 7.33 4.28 14.4 4.64 15.7.627 2.19-2.07 2.33-43.6 2.33h-44.2zm99.6 4.33c0-0.6.942-4.26 2.09-8.14 2.03-6.83 2.01-7.11-.667-8.98-3.64-2.55-3.48-4.22.822-8.71 4.74-4.95 9.04-4.78 14 .546l4 4.29-3.61 3.1c-3.72 3.2-3.82 4.66-1.09 16 .687 2.86.346 3-7.42 3-4.48 0-8.14-.491-8.14-1.09zm30.7-.575c.008-.917 1.83-7.67 4.04-15 2.22-7.33 4.63-17.5 5.36-22.6.730-5.12 1.91-9.89 2.62-10.6.838-.838 1.29-.746 1.29.258 0 .854 1.32 2.26 2.93 3.12 5.32 2.85 29.5 10.7 42.7 13.8 16 3.81 21.1 7.31 24.7 17.1 1.42 3.85 2.95 8.96 3.4 11.3l.824 4.33h-44c-34.3 0-44-.367-44-1.67zm-35.3-81c-2.05-2.26-2.1-2.67-.357-2.67 1.14 0 2.44.986 2.9 2.19 1.26 3.28.172 3.49-2.55.484zm27.3-5.34c.785-1.47 1.73-2.67 2.09-2.67.367 0 .0244 1.2-.760 2.67-.785 1.47-1.73 2.67-2.09 2.67-.367 0-.0244-1.2.760-2.67zm-41.7-46.7c-.488-1.87-1.48-2.68-2.68-2.22-2.28.876-2.75-5.25-.501-6.64.847-.523.380-1.32-1.17-1.99-1.66-.719-.051-.940 4.54-.621 5.75.399 7.8 1.23 10.7 4.29 1.95 2.09 2.28 2.75.732 1.48-4.14-3.41-11.2-5.23-11.2-2.89 0 1.01 1.33 2.77 2.96 3.91l2.96 2.08-2.78 2.78-2.78 2.78zm56.4.728c0-1.98-1.53-2.57-5.26-2.04-1.61.231-1.64-.0701-.170-1.84.996-1.2 1.16-2.12.387-2.12-.894 0-.835-1.16.170-3.32 1.23-2.66 2.47-3.3 6.21-3.2 3.81.0999 4.1.283 1.59.990-1.69.477-2.97 1.47-2.84 2.2.433 2.44 3.48 6 4.37 5.1 1.61-1.61.825 1.53-.976 3.9-2.17 2.86-3.48 2.99-3.48.333zm-11-8.33c1.73-1.65 3.86-2.98 4.73-2.96.876.0223.392.706-1.07 1.52-1.47.814-3.6 2.15-4.73 2.96-1.14.814-.652.130 1.07-1.52z" fill="#1b262c"/>
  <path d="m25.1 266c0-1.47.480-4.17 1.07-6 .845-2.64 1.07-2.78 1.07-.667 0 1.47-.480 4.17-1.07 6-.845 2.64-1.07 2.78-1.07.667zm20.2-.0575c-.434-1.13-.492-2.36-.127-2.72.364-.364.982.562 1.37 2.06.831 3.18-.0923 3.67-1.25.662zm33.8-1.94c-3.24-7.57-4.02-12.9-2.05-14.1.960-.554 1.34-.561.855-.0151-.489.546.270 4.36 1.69 8.48 2.92 8.49 2.55 12.7-.497 5.62zm30.8 3.27c-.401-.697-2.57-7.57-4.82-15.3-3.79-13-6.77-36-4.13-31.8.630.994 1.16 4.21 1.18 7.14.0354 5.21.793 8.43 6.66 28.4 2.53 8.59 3.15 15.1 1.1 11.5zm15.5-.934c3.92-13.2 3.97-14.6.641-17.1l-3.22-2.43 4.59-4.74c5.6-5.78 7.79-5.91 12.7-.742l3.83 4-3.35 3.67c-2.69 2.94-3.16 4.46-2.41 7.67.519 2.2 1.01 5.65 1.1 7.67.154 3.57-.03 3.67-7.13 3.67-5.21 0-7.15-.476-6.8-1.67zm30.1.758c0-0.5 2.06-7.85 4.58-16.3 2.52-8.48 4.96-18.9 5.43-23.1 1.32-11.9 2.83-10.1 1.77 2.09-.522 5.99-2.78 16.8-5.03 24.1-2.24 7.27-4.08 13.4-4.08 13.7 0 .247-.6.450-1.33.450-.733 0-1.33-.409-1.33-.909zm30.1-2.09c.504-1.65 1.74-5.02 2.76-7.5 2.57-6.28 2.43-6.73-2.83-8.92-2.57-1.07-4.67-2.45-4.67-3.07 0-.617 1.82-2.63 4.05-4.48l4.05-3.35-4.76-3.84c-8.66-6.99-14.7-12.7-12-11.3 1.47.742 6.27 4.67 10.7 8.72l8 7.37-4.54 3.84-4.54 3.84 3.45.866c6.96 1.75 7.77 3.95 4.76 12.9-1.48 4.4-3.29 7.99-4 7.99-.732 0-0.9-1.31-.385-3zm54.8-2.99c-.452-3.3-2.34-9-4.2-12.7-1.86-3.67-3.08-6.67-2.72-6.67 1.58 0 7.5 13.9 8.25 19.3.452 3.3.521 5.99.155 5.99-.367 0-1.04-2.7-1.49-5.99zm-19.5 3.71c0-1.89 3.88-11.1 4.67-11.1.351 0-.355 2.55-1.57 5.67-2.46 6.31-3.11 7.44-3.11 5.39zm-180-10c-1.25-2.72-3.35-6.41-4.67-8.21-1.31-1.8-1.65-2.82-.738-2.26 2.27 1.39 8.69 12.5 8.13 14.1-.248.709-1.48-.934-2.73-3.65zm-14.3-.569c-.140-2.29 5.94-13 7.77-13.7 1.74-.666 1.72-.441-.0827 1.62-1.15 1.31-3.34 4.79-4.87 7.72-1.52 2.93-2.79 4.9-2.83 4.37zm200-4.37c2.25-4.35 4.09-6.76 4.08-5.33-.005.733-1.24 2.83-2.74 4.67-1.81 2.21-2.26 2.44-1.35.667zm-145-3.78 3.04-1.69-3.37-3.17c-1.85-1.74-3.37-3.91-3.37-4.82 0-.909 3.75-4.6 8.33-8.21 9.13-7.19 11.7-8.87 11.7-7.76 0 .402-4.2 3.79-9.33 7.52s-9.33 7.23-9.33 7.77c0 .537 1.81 2.71 4.02 4.83l4.02 3.86-3.02 1.68c-1.66.924-3.62 1.68-4.36 1.68-.733 0 .0332-.759 1.7-1.69zm145-6.86c-2.2-.990-7.5-2.5-11.8-3.37-4.27-.862-7.47-1.87-7.1-2.23 1.66-1.66 23.5 4.79 23.5 6.94 0 .786.149.829-4.67-1.34zm-186-1c1.53-1.35 16.5-4.58 17.4-3.74.539.539-4.77 1.95-16 4.27-1.39.285-1.99.0476-1.33-.529zm20.3-5.05c.962-.385 2.11-.338 2.56.105.443.443-.344.758-1.75 0.7-1.55-.064-1.87-.380-.806-.806zm135-1.38c-1.1-.410-5.19-1.92-9.09-3.36s-6.89-2.82-6.64-3.06c.248-.248 5.24 1.28 11.1 3.39 5.85 2.11 9.74 3.83 8.64 3.81-1.1-.0169-2.9-.366-4-.775zm-118-5c1.1-.711 2.6-1.29 3.33-1.29.733 0 .433.582-.667 1.29-1.1.711-2.6 1.29-3.33 1.29-.733 0-.433-.582.667-1.29zm24.3-98.9c.692-2.08 3.68-2.44 3.78-.461.0387.733-.930 1.54-2.15 1.79-1.39.288-2-.212-1.63-1.33zm55.7-.461c0-1.1.9-2 2-2s2 .9 2 2-.9 2-2 2-2-.9-2-2z" fill="#090b0c"/>
 </g>
</svg>
