<!DOCTYPE svg PUBLIC "-//W3C//DTD SVG 20010904//EN" "http://www.w3.org/TR/2001/REC-SVG-20010904/DTD/svg10.dtd">
<svg version="1.0" xmlns="http://www.w3.org/2000/svg" width="137px" height="137px" viewBox="0 0 1370 1370" preserveAspectRatio="xMidYMid meet">
<g id="layer101" fill="#827e6f" stroke="none">
 <path d="M502 1350 c-118 -31 -206 -83 -302 -180 -141 -140 -200 -284 -200 -485 0 -201 59 -345 200 -485 140 -141 284 -200 485 -200 201 0 345 59 485 200 141 140 200 284 200 485 0 201 -59 345 -200 485 -98 98 -184 149 -306 180 -102 26 -261 26 -362 0z"/>
 </g>
<g id="layer102" fill="#b2a457" stroke="none">
 <path d="M502 1350 c-118 -31 -206 -83 -302 -180 -141 -140 -200 -284 -200 -485 0 -201 59 -345 200 -485 140 -141 284 -200 485 -200 201 0 345 59 485 200 141 140 200 284 200 485 0 201 -59 345 -200 485 -98 98 -184 149 -306 180 -102 26 -261 26 -362 0z m101 -1054 c110 -54 216 -41 296 36 44 43 44 43 25 9 -38 -66 -140 -108 -233 -95 -78 11 -163 71 -221 155 -13 19 0 8 29 -23 30 -33 73 -67 104 -82z"/>
 </g>
<g id="layer103" fill="#959493" stroke="none">
 <path d="M502 1350 c-118 -31 -206 -83 -303 -180 -68 -68 -94 -102 -128 -170 -182 -370 9 -816 405 -946 78 -25 104 -29 209 -29 105 0 131 4 208 29 397 130 588 576 406 946 -55 111 -178 237 -286 293 -147 77 -349 99 -511 57z m101 -1054 c109 -54 218 -41 292 33 22 22 45 40 50 41 6 0 6 -3 -1 -8 -6 -4 -13 -15 -17 -24 -10 -29 -85 -76 -139 -88 -65 -14 -131 -4 -184 26 -48 27 -134 106 -134 122 0 7 -4 12 -10 12 -5 0 -10 5 -10 12 0 7 23 -13 50 -44 30 -34 72 -67 103 -82z"/>
 </g>
<g id="layer104" fill="#f1d542" stroke="none">
 <path d="M502 1350 c-118 -31 -206 -83 -303 -180 -68 -68 -94 -102 -128 -170 -182 -370 9 -816 405 -946 78 -25 104 -29 209 -29 105 0 131 4 208 29 397 130 588 576 406 946 -55 111 -178 237 -286 293 -147 77 -349 99 -511 57z m252 -254 c95 -40 112 -181 27 -234 -14 -9 -28 -17 -30 -19 -3 -2 18 -24 47 -49 65 -57 135 -154 156 -217 33 -98 14 -199 -49 -262 -142 -142 -365 -73 -475 147 -36 72 -49 118 -35 118 3 0 24 -9 45 -20 86 -44 177 -35 224 21 54 63 43 143 -33 241 -63 83 -72 102 -73 148 -1 101 100 166 196 126z"/>
 </g>

</svg>