<!DOCTYPE svg PUBLIC "-//W3C//DTD SVG 20010904//EN" "http://www.w3.org/TR/2001/REC-SVG-20010904/DTD/svg10.dtd">
<svg version="1.0" xmlns="http://www.w3.org/2000/svg" width="261px" height="95px" viewBox="0 0 2610 950" preserveAspectRatio="xMidYMid meet">
<g id="layer101" fill="#030101" stroke="none">
 <path d="M26 924 l-26 -27 0 -422 0 -422 26 -27 27 -26 1252 0 1252 0 27 26 26 27 0 422 0 422 -26 27 -27 26 -1252 0 -1252 0 -27 -26z"/>
 </g>
<g id="layer102" fill="#9c3735" stroke="none">
 <path d="M50 900 c-19 -19 -20 -33 -20 -429 l0 -410 22 -15 c20 -14 155 -16 1253 -16 1098 0 1233 2 1253 16 l22 15 0 410 c0 396 -1 410 -20 429 -20 20 -33 20 -1255 20 -1222 0 -1235 0 -1255 -20z"/>
 </g>
<g id="layer103" fill="#eed446" stroke="none">
 <path d="M322 455 l3 -185 148 0 c82 0 168 5 193 11 113 29 130 160 27 210 -44 21 -106 23 -155 4 -16 -6 -18 1 -18 69 l0 76 -101 0 -100 0 3 -185z m246 -37 c17 -17 15 -55 -4 -62 -35 -13 -44 -7 -44 34 0 32 4 40 18 40 10 0 23 -5 30 -12z"/>
 <path d="M810 455 l0 -185 100 0 100 0 0 145 0 144 82 3 c78 3 82 4 88 27 6 25 30 -27 115 -247 l28 -73 140 3 139 3 73 183 73 183 -96 -3 -96 -3 -10 -33 -9 -33 -75 3 -76 3 -8 33 -9 32 -279 0 -280 0 0 -185z m680 28 c0 -5 -6 -25 -14 -46 l-13 -39 -17 41 c-21 53 -21 51 14 51 17 0 30 -3 30 -7z"/>
 <path d="M1920 559 l0 -80 -80 -99 c-44 -54 -80 -101 -80 -104 0 -3 42 -6 94 -6 l94 0 36 43 c34 41 36 41 49 22 49 -68 44 -66 149 -63 l98 3 -66 80 c-100 121 -104 129 -104 213 l0 72 -95 0 -95 0 0 -81z"/>
 </g>

</svg>