<!DOCTYPE svg PUBLIC "-//W3C//DTD SVG 20010904//EN" "http://www.w3.org/TR/2001/REC-SVG-20010904/DTD/svg10.dtd">
<svg version="1.0" xmlns="http://www.w3.org/2000/svg" width="137px" height="137px" viewBox="0 0 1370 1370" preserveAspectRatio="xMidYMid meet">
<g id="layer101" fill="#717170" stroke="none">
 <path d="M502 1350 c-118 -31 -206 -83 -302 -180 -141 -140 -200 -284 -200 -485 0 -201 59 -345 200 -485 140 -141 284 -200 485 -200 201 0 345 59 485 200 141 140 200 284 200 485 0 201 -59 345 -200 485 -98 98 -184 149 -306 180 -102 26 -261 26 -362 0z"/>
 </g>
<g id="layer102" fill="#858067" stroke="none">
 <path d="M502 1350 c-118 -31 -206 -83 -302 -180 -141 -140 -200 -284 -200 -485 0 -201 59 -345 200 -485 140 -141 284 -200 485 -200 201 0 345 59 485 200 141 140 200 284 200 485 0 201 -59 345 -200 485 -98 98 -184 149 -306 180 -102 26 -261 26 -362 0z m33 -400 c19 -20 19 -20 -20 0 -41 21 -66 19 -100 -9 -12 -9 -8 -3 8 12 24 24 35 28 61 23 17 -4 40 -15 51 -26z m-318 -145 c20 -8 34 -18 30 -21 -3 -3 -22 4 -44 15 -45 24 -37 27 14 6z m553 6 c0 -5 -11 -12 -24 -15 -13 -3 -32 -9 -43 -13 -10 -3 -15 -2 -10 3 7 7 46 24 75 33 1 1 2 -3 2 -8z m-452 -202 c32 16 47 19 66 11 15 -5 26 -14 26 -19 0 -5 -12 -5 -29 2 -24 9 -34 7 -64 -10 l-35 -21 -21 22 c-12 12 -21 26 -21 30 0 5 8 -2 18 -14 l18 -22 42 21z m303 0 l41 -20 26 23 25 23 -23 -32 c-13 -18 -25 -33 -26 -33 -2 0 -19 10 -40 22 -30 18 -41 20 -65 11 -34 -13 -39 -1 -6 15 12 6 23 11 25 11 1 1 21 -8 43 -20z m364 -21 l20 -21 -25 17 c-33 22 -72 20 -104 -5 -20 -16 -24 -17 -20 -4 9 24 56 45 84 39 14 -3 34 -15 45 -26z m-480 -88 c-3 -5 -19 -10 -36 -10 -16 0 -29 5 -29 10 0 6 16 10 36 10 21 0 33 -4 29 -10z m189 -45 c20 -8 36 -19 36 -24 0 -5 -18 -2 -40 7 -22 9 -40 20 -40 25 0 10 2 9 44 -8z m516 7 c0 -5 -18 -16 -40 -25 -48 -18 -54 -3 -7 17 39 17 47 19 47 8z m-426 -191 c38 23 47 23 72 4 18 -15 18 -15 -7 -9 -16 3 -40 -1 -59 -11 -37 -19 -54 -15 -70 17 l-12 23 22 -22 c22 -21 23 -21 54 -2z m288 -1 l32 -19 25 22 25 22 -23 -33 -23 -33 -35 22 c-30 19 -40 21 -64 12 -32 -12 -40 0 -11 16 25 15 38 13 74 -9z m-112 -100 c0 -5 -13 -10 -29 -10 -17 0 -33 5 -36 10 -4 6 8 10 29 10 20 0 36 -4 36 -10z"/>
 </g>
<g id="layer103" fill="#b5a85f" stroke="none">
 <path d="M502 1350 c-118 -31 -206 -83 -302 -180 -141 -140 -200 -284 -200 -484 0 -126 19 -207 72 -316 59 -120 178 -239 298 -298 109 -53 190 -72 315 -72 125 0 206 19 315 72 120 59 239 178 298 298 53 109 72 190 72 316 0 200 -59 344 -200 484 -98 98 -184 149 -306 180 -102 26 -261 26 -362 0z m16 -386 c12 -8 27 -25 33 -37 10 -18 7 -18 -16 6 -34 33 -81 36 -119 6 -20 -16 -24 -17 -20 -4 8 19 52 44 79 45 11 0 31 -7 43 -16z m-302 -156 c19 -6 35 -17 38 -24 3 -9 -5 -8 -32 3 -66 27 -70 44 -6 21z m559 3 c-17 -16 -85 -40 -85 -31 0 6 15 16 33 24 37 17 66 20 52 7z m-512 -202 l15 -20 42 21 c34 18 48 20 66 11 13 -6 24 -15 24 -21 0 -6 -8 -6 -24 1 -18 9 -31 7 -66 -11 -23 -12 -43 -20 -43 -18 -1 2 -13 15 -26 31 -14 15 -19 27 -13 27 6 0 17 -9 25 -21z m363 -1 l37 -22 19 24 c10 12 20 21 23 19 2 -3 -6 -18 -19 -33 l-23 -29 -40 22 c-32 19 -44 21 -61 12 -25 -13 -32 -14 -32 -3 0 8 36 30 52 31 4 1 24 -9 44 -21z m343 -3 c28 -14 47 -42 36 -53 -3 -3 -5 0 -5 6 0 7 -15 20 -34 29 -29 14 -39 14 -66 3 -17 -7 -37 -25 -45 -39 -8 -14 -14 -21 -14 -16 0 20 27 58 50 71 31 17 44 17 78 -1z m-459 -105 c0 -5 -15 -10 -34 -10 -19 0 -38 5 -41 10 -4 6 10 10 34 10 23 0 41 -4 41 -10z m185 -44 c19 -8 35 -20 35 -26 0 -6 -13 -5 -36 5 -20 8 -38 15 -40 15 -2 0 -4 5 -4 10 0 13 4 13 45 -4z m515 4 c0 -5 -2 -10 -4 -10 -2 0 -20 -7 -40 -15 -22 -10 -36 -11 -36 -5 0 6 15 17 33 25 39 17 47 18 47 5z m-280 -190 c28 0 63 6 78 14 24 12 30 12 47 0 23 -17 57 -18 73 -2 6 6 15 8 19 5 4 -4 -4 -19 -18 -33 l-26 -25 -36 21 c-31 18 -39 20 -59 9 -13 -7 -27 -12 -31 -11 -5 1 -5 -7 -2 -19 5 -15 4 -19 -5 -14 -9 5 -10 1 -5 -15 5 -15 4 -20 -4 -16 -7 5 -9 1 -5 -8 5 -13 -1 -16 -30 -16 -34 0 -36 1 -30 26 5 20 4 25 -5 20 -8 -6 -10 0 -5 19 3 14 2 25 -2 24 -5 -2 -21 3 -36 11 -23 11 -31 10 -61 -9 l-34 -21 -23 25 c-13 14 -20 28 -15 32 4 5 10 2 12 -4 6 -17 53 -16 77 2 16 12 22 12 47 0 15 -8 51 -15 79 -15z"/>
 </g>
<g id="layer104" fill="#979797" stroke="none">
 <path d="M502 1350 c-118 -31 -206 -83 -303 -180 -143 -143 -208 -306 -196 -494 12 -181 77 -326 202 -452 68 -68 97 -89 176 -127 120 -57 180 -72 304 -72 124 0 184 15 304 72 271 129 431 457 367 747 -29 126 -86 227 -185 326 -99 98 -186 149 -307 180 -102 26 -261 26 -362 0z m-22 -147 c-19 -3 -38 -10 -42 -16 -5 -8 -8 -8 -8 -1 0 18 12 24 49 22 l36 -1 -35 -4z m51 -252 c16 -16 29 -34 29 -39 0 -6 -13 3 -29 19 -16 16 -39 29 -51 29 -32 0 -78 -27 -85 -51 -4 -11 -9 -18 -11 -16 -10 10 21 59 45 72 40 22 70 18 102 -14z m-348 -58 c-7 -2 -13 -19 -13 -37 0 -29 4 -34 40 -46 29 -10 42 -21 50 -43 5 -17 8 -32 6 -34 -2 -3 -7 5 -11 17 -4 13 -25 29 -51 40 -41 18 -44 22 -44 58 0 40 6 53 24 51 6 0 5 -3 -1 -6z m597 -72 c0 -12 -11 -23 -27 -29 -16 -5 -36 -13 -45 -17 -11 -4 -18 -3 -18 4 0 6 18 18 40 27 22 9 40 20 40 25 0 5 2 9 5 9 3 0 5 -9 5 -19z m-40 -195 c-1 -6 -7 4 -15 23 -8 18 -15 38 -15 45 1 6 7 -4 15 -23 8 -18 15 -38 15 -45z m402 34 c-9 -21 -18 -35 -20 -30 -3 9 25 70 33 70 2 0 -4 -18 -13 -40z m-821 -49 c34 17 47 19 65 10 13 -6 24 -15 24 -21 0 -13 -6 -13 -30 0 -13 7 -28 4 -58 -13 l-41 -22 -25 24 c-14 14 -26 32 -26 40 1 11 8 8 25 -12 l25 -28 41 22z m389 17 c0 -7 -12 -25 -25 -41 l-25 -28 -38 25 c-53 33 -83 18 -101 -53 -13 -50 -14 -51 -51 -51 -36 0 -38 1 -49 46 -7 26 -10 49 -7 51 3 3 8 -11 11 -31 7 -34 10 -36 45 -36 37 0 38 1 50 49 9 39 17 52 39 61 24 9 34 8 66 -11 l39 -23 20 27 c22 30 26 32 26 15z m260 -23 c29 -15 57 -73 47 -98 -3 -6 -6 -2 -6 11 -1 13 -12 34 -26 47 -40 41 -101 30 -129 -23 -9 -15 -15 -20 -15 -12 0 37 49 89 87 90 7 0 26 -7 42 -15z m-318 -99 c-4 -31 -1 -35 33 -46 23 -8 40 -21 46 -37 12 -33 10 -54 -3 -27 -5 12 -28 30 -49 39 -35 16 -39 22 -39 55 0 30 6 50 15 50 0 0 -1 -15 -3 -34z m558 -49 c0 -7 -16 -19 -36 -26 -19 -7 -39 -22 -44 -34 -10 -26 -12 -12 -3 22 8 32 83 66 83 38z m-493 -153 c-10 -11 20 -34 45 -34 13 0 31 7 42 15 16 12 22 12 47 0 36 -19 122 -19 157 -1 24 12 30 12 47 0 27 -20 62 -17 78 7 11 14 16 17 19 7 3 -7 -6 -27 -19 -45 l-25 -32 -36 23 c-50 31 -78 19 -93 -41 -11 -41 -13 -43 -50 -43 -38 0 -39 2 -51 44 -15 57 -43 72 -84 45 -39 -26 -49 -24 -74 11 -19 26 -20 50 -3 50 4 0 4 -3 0 -6z"/>
 </g>
<g id="layer105" fill="#f0d542" stroke="none">
 <path d="M502 1350 c-118 -31 -206 -83 -303 -180 -143 -143 -208 -306 -196 -494 12 -181 77 -326 202 -452 68 -68 97 -89 176 -127 120 -57 180 -72 304 -72 124 0 184 15 304 72 271 129 431 457 367 747 -29 126 -86 227 -185 326 -99 98 -186 149 -307 180 -102 26 -261 26 -362 0z m18 -182 c20 -81 41 -93 108 -60 l40 19 22 -29 c21 -29 22 -31 5 -74 -19 -50 -13 -102 13 -111 70 -22 72 -24 72 -68 0 -41 -1 -43 -45 -59 -37 -15 -45 -23 -50 -49 -4 -19 0 -47 9 -69 20 -47 20 -48 -9 -81 l-25 -28 -38 25 c-53 33 -83 18 -101 -53 -13 -50 -13 -51 -51 -51 -38 0 -39 0 -51 54 -16 71 -40 85 -98 53 l-40 -22 -28 27 -27 28 21 51 c28 65 17 94 -45 120 -42 18 -43 20 -40 61 3 39 6 42 45 55 57 19 70 55 42 120 l-20 46 27 28 26 27 39 -21 c53 -28 84 -14 100 45 15 58 15 58 54 58 32 0 35 -3 45 -42z m459 -387 c16 -63 40 -75 93 -47 l38 21 24 -29 23 -30 -18 -42 c-25 -54 -13 -88 36 -108 32 -14 35 -18 35 -58 0 -41 -2 -45 -36 -57 -49 -18 -60 -50 -36 -105 l19 -42 -24 -31 -25 -32 -36 23 c-50 31 -78 19 -93 -41 -11 -41 -13 -43 -50 -43 -38 0 -39 2 -51 44 -15 57 -43 72 -84 45 -39 -25 -49 -24 -74 10 l-20 30 20 37 c28 49 15 84 -41 109 -36 16 -39 21 -39 57 0 35 3 39 41 54 53 22 64 49 42 108 -15 41 -15 46 0 70 21 31 32 32 72 7 36 -22 70 -11 79 25 16 63 25 74 59 74 31 0 34 -3 46 -49z"/>
 <path d="M431 946 c-56 -31 -69 -123 -25 -175 72 -86 195 14 150 122 -25 60 -74 81 -125 53z"/>
 <path d="M875 566 c-45 -45 -45 -107 0 -152 66 -66 161 9 135 106 -19 69 -88 93 -135 46z"/>
 </g>

</svg>