<!DOCTYPE svg PUBLIC "-//W3C//DTD SVG 20010904//EN" "http://www.w3.org/TR/2001/REC-SVG-20010904/DTD/svg10.dtd">
<svg version="1.0" xmlns="http://www.w3.org/2000/svg" width="200px" height="200px" viewBox="0 0 2000 2000" preserveAspectRatio="xMidYMid meet">
<g id="layer101" fill="#f8f8f7" stroke="none">
 <path d="M130 1983 c1 -37 22 -110 46 -158 30 -61 72 -86 188 -110 105 -23 316 -96 347 -120 27 -22 66 -101 61 -125 -2 -8 -18 -31 -36 -50 -57 -60 -104 -129 -127 -185 -18 -43 -28 -55 -47 -57 -14 -2 -28 -10 -32 -18 -99 -198 -122 -259 -118 -301 2 -24 10 -37 26 -44 14 -6 20 -15 16 -25 -15 -41 -44 -180 -44 -216 0 -100 64 -231 159 -321 86 -82 263 -152 427 -168 88 -9 239 16 311 51 28 13 67 43 87 65 l37 40 29 -33 c33 -36 39 -25 14 24 -15 28 -15 30 0 24 48 -19 50 -18 23 11 l-28 31 49 49 c38 38 52 61 62 103 16 68 8 171 -23 278 -23 77 -23 82 -6 82 21 0 39 28 39 60 0 24 -34 110 -91 228 -32 66 -44 82 -62 82 -18 0 -28 13 -50 64 -16 35 -54 94 -85 131 -85 100 -87 106 -61 157 12 23 33 51 47 62 32 25 243 98 348 121 116 24 158 49 188 110 24 48 45 121 46 158 0 16 -48 17 -870 17 -822 0 -870 -1 -870 -17z"/>
 </g>
<g id="layer102" fill="#d7d5db" stroke="none">
 <path d="M130 1983 c1 -37 22 -110 46 -158 30 -61 72 -86 188 -110 105 -23 316 -96 347 -120 27 -22 66 -101 61 -125 -2 -8 -18 -31 -36 -50 -57 -60 -104 -129 -127 -185 -18 -43 -28 -55 -47 -57 -14 -2 -28 -10 -32 -18 -99 -198 -122 -259 -118 -301 2 -24 10 -37 26 -44 14 -6 20 -15 16 -25 -15 -41 -44 -180 -44 -216 0 -100 64 -231 159 -321 86 -82 263 -152 427 -168 88 -9 239 16 311 51 28 13 67 43 87 65 l37 40 29 -33 c33 -36 39 -25 14 24 -15 28 -15 30 0 24 48 -19 50 -18 23 11 l-28 31 49 49 c38 38 52 61 62 103 16 68 8 171 -23 278 -23 77 -23 82 -6 82 21 0 39 28 39 60 0 24 -34 110 -91 228 -32 66 -44 82 -62 82 -18 0 -28 13 -50 64 -16 35 -54 94 -85 131 -85 100 -87 106 -61 157 12 23 33 51 47 62 32 25 243 98 348 121 116 24 158 49 188 110 24 48 45 121 46 158 0 16 -24 17 -356 17 l-356 0 5 -27 c5 -28 -16 -81 -55 -135 l-18 -27 -26 24 c-24 22 -24 25 -14 86 5 35 10 67 10 72 0 4 -31 7 -70 7 -38 0 -70 -3 -70 -7 1 -17 28 -122 34 -132 4 -5 -7 -17 -23 -25 -27 -15 -30 -14 -44 7 -36 56 -55 104 -50 130 l5 27 -356 0 c-332 0 -356 -1 -356 -17z m799 -213 l39 -41 -37 -23 c-20 -13 -55 -33 -78 -45 -55 -27 -64 -46 -73 -141 -1 -8 -10 4 -20 26 -16 38 -17 47 -5 105 12 56 55 206 71 249 3 9 15 -4 34 -37 17 -29 47 -70 69 -93z m275 28 c50 -163 57 -207 41 -238 l-13 -25 -8 30 c-13 53 -43 84 -120 121 -41 19 -74 37 -74 39 0 2 19 24 43 48 24 25 54 66 67 91 14 25 26 46 27 46 1 0 18 -51 37 -112z m-124 -519 c0 -14 -45 -28 -71 -22 -13 2 -39 12 -57 21 l-33 17 53 5 c55 5 108 -5 108 -21z m-280 -265 c85 -14 135 -117 95 -200 -21 -45 -90 -79 -140 -70 -50 10 -110 80 -119 140 -10 63 15 115 64 132 19 7 41 11 48 8 8 -2 31 -7 52 -10z m488 -20 c43 -25 66 -76 58 -126 -12 -74 -51 -108 -126 -108 -56 0 -84 16 -109 62 -39 74 -18 170 43 186 46 13 99 7 134 -14z"/>
 <path d="M740 892 c-26 -21 -18 -50 15 -58 39 -10 60 -1 63 27 3 22 -2 29 -27 37 -25 9 -34 8 -51 -6z"/>
 <path d="M1170 881 c-14 -27 -13 -28 14 -46 20 -14 28 -14 45 -3 25 15 28 53 5 62 -29 11 -53 6 -64 -13z"/>
 </g>
<g id="layer103" fill="#e2c8ac" stroke="none">
 <path d="M130 1983 c1 -37 22 -110 46 -158 30 -61 72 -86 188 -110 106 -23 321 -98 347 -121 26 -24 36 -10 44 66 4 30 24 117 46 193 21 77 39 141 39 143 0 2 -160 4 -355 4 -332 0 -355 -1 -355 -17z"/>
 <path d="M932 1949 c5 -28 13 -60 17 -72 7 -17 3 -27 -18 -44 l-26 -22 40 -41 40 -41 -25 -19 c-14 -11 -48 -30 -75 -44 -70 -34 -83 -52 -101 -137 -12 -58 -22 -82 -48 -109 -56 -60 -103 -129 -127 -185 -18 -43 -28 -55 -47 -57 -14 -2 -28 -10 -32 -18 -99 -198 -122 -259 -118 -301 2 -24 10 -37 26 -44 14 -6 20 -15 16 -25 -15 -41 -44 -180 -44 -216 0 -100 64 -231 159 -321 86 -82 263 -152 427 -168 88 -9 239 16 311 51 28 13 67 43 87 65 l37 40 29 -33 c33 -36 39 -25 14 24 -12 24 -13 30 -3 25 53 -21 54 -21 26 10 l-28 31 49 49 c38 38 52 61 62 103 16 68 8 171 -23 278 -23 77 -23 82 -6 82 21 0 39 28 39 60 0 24 -34 110 -91 228 -32 65 -44 82 -62 82 -17 0 -30 16 -59 78 -21 44 -61 104 -93 140 -53 58 -58 67 -65 128 -10 80 -28 103 -122 150 -36 18 -70 39 -73 45 -4 6 7 25 24 43 37 38 38 47 10 72 -22 19 -22 39 -3 132 l7 32 -70 0 -70 0 9 -51z m141 -658 c34 -34 -66 -46 -125 -15 -30 16 -31 18 -13 25 26 11 125 3 138 -10z m-234 -289 c44 -20 71 -66 71 -120 0 -83 -58 -142 -138 -142 -74 0 -141 84 -142 177 0 97 97 136 209 85z m479 -27 c26 -29 32 -43 32 -81 0 -62 -29 -107 -82 -129 -53 -21 -97 -13 -133 23 -34 34 -45 62 -45 114 0 83 49 121 145 113 42 -4 56 -10 83 -40z"/>
 <path d="M731 886 c-16 -19 -3 -45 25 -52 45 -12 79 21 54 51 -16 19 -64 19 -79 1z"/>
 <path d="M1177 893 c-13 -12 -7 -54 8 -59 44 -17 84 23 53 54 -13 13 -50 16 -61 5z"/>
 <path d="M1160 1996 c0 -2 18 -66 39 -143 22 -76 42 -163 46 -193 8 -76 18 -90 44 -66 26 23 241 98 347 121 116 24 158 49 188 110 24 48 45 121 46 158 0 16 -23 17 -355 17 -195 0 -355 -2 -355 -4z"/>
 </g>
<g id="layer104" fill="#dcba99" stroke="none">
 <path d="M130 1983 c1 -37 22 -110 46 -158 30 -61 72 -86 188 -110 106 -23 321 -98 347 -121 26 -24 36 -10 44 66 4 30 24 117 46 193 21 77 39 141 39 143 0 2 -160 4 -355 4 -332 0 -355 -1 -355 -17z"/>
 <path d="M932 1949 c5 -28 13 -60 17 -72 7 -17 3 -27 -18 -44 l-26 -22 40 -41 40 -41 -25 -19 c-14 -11 -48 -30 -75 -44 -70 -34 -83 -52 -101 -137 -12 -58 -22 -82 -48 -109 -56 -60 -103 -129 -127 -185 -18 -43 -28 -55 -47 -57 -14 -2 -28 -10 -32 -18 -99 -198 -122 -259 -118 -301 2 -24 10 -37 26 -44 14 -6 20 -15 16 -25 -15 -41 -44 -180 -44 -216 0 -100 64 -231 159 -321 86 -82 263 -152 427 -168 88 -9 239 16 311 51 28 13 67 43 87 65 l37 40 29 -33 c33 -36 39 -25 14 24 -12 24 -13 30 -3 25 53 -21 54 -21 26 10 l-28 31 49 49 c38 38 52 61 62 103 16 68 8 171 -23 278 -23 77 -23 82 -6 82 21 0 39 28 39 60 0 24 -34 110 -91 228 -32 65 -44 82 -62 82 -17 0 -30 16 -59 78 -21 44 -61 104 -93 140 -53 58 -58 67 -65 128 -10 80 -28 103 -122 150 -36 18 -70 39 -73 45 -4 6 7 25 24 43 37 38 38 47 10 72 -22 19 -22 39 -3 132 l7 32 -70 0 -70 0 9 -51z m141 -658 c34 -34 -66 -46 -125 -15 -30 16 -31 18 -13 25 26 11 125 3 138 -10z m-234 -289 c44 -20 71 -66 71 -120 0 -83 -58 -142 -138 -142 -74 0 -141 84 -142 177 0 97 97 136 209 85z m479 -27 c26 -29 32 -43 32 -81 0 -62 -29 -107 -82 -129 -53 -21 -97 -13 -133 23 -34 34 -45 62 -45 114 0 83 49 121 145 113 42 -4 56 -10 83 -40z m-853 -392 c0 -99 2 -112 28 -157 15 -27 25 -51 23 -53 -8 -8 -54 81 -66 125 -8 32 -8 62 -1 112 6 38 11 71 11 74 0 3 1 6 3 6 1 0 2 -48 2 -107z m1055 40 c17 -79 7 -155 -30 -230 -17 -35 -35 -63 -39 -63 -4 0 6 27 23 61 24 48 31 77 34 142 2 45 0 99 -6 120 -6 20 -7 35 -2 32 5 -3 14 -31 20 -62z m-595 -474 c94 -16 205 -7 290 25 40 15 62 20 51 11 -79 -61 -265 -82 -388 -45 -64 19 -188 75 -188 84 0 2 38 -12 83 -30 46 -18 114 -38 152 -45z"/>
 <path d="M731 886 c-16 -19 -3 -45 25 -52 45 -12 79 21 54 51 -16 19 -64 19 -79 1z"/>
 <path d="M1177 893 c-13 -12 -7 -54 8 -59 44 -17 84 23 53 54 -13 13 -50 16 -61 5z"/>
 <path d="M1160 1996 c0 -2 18 -66 39 -143 22 -76 42 -163 46 -193 8 -76 18 -90 44 -66 26 23 241 98 347 121 116 24 158 49 188 110 24 48 45 121 46 158 0 16 -23 17 -355 17 -195 0 -355 -2 -355 -4z"/>
 </g>
<g id="layer105" fill="#cea57c" stroke="none">
 <path d="M130 1983 c1 -37 22 -110 46 -158 30 -61 72 -86 188 -110 106 -23 321 -98 347 -121 26 -24 36 -10 44 66 4 30 24 117 46 193 21 77 39 141 39 143 0 2 -160 4 -355 4 -332 0 -355 -1 -355 -17z"/>
 <path d="M932 1949 c5 -28 13 -60 17 -72 7 -17 3 -27 -18 -44 l-26 -22 40 -41 40 -41 -25 -19 c-14 -11 -48 -30 -75 -44 -70 -34 -83 -52 -101 -137 -12 -58 -22 -82 -48 -109 -56 -60 -103 -129 -127 -185 -18 -43 -28 -55 -47 -57 -14 -2 -28 -10 -32 -18 -99 -198 -122 -259 -118 -301 2 -24 10 -37 26 -44 14 -6 20 -15 16 -25 -15 -41 -44 -180 -44 -216 0 -100 64 -231 159 -321 86 -82 263 -152 427 -168 80 -8 233 15 299 44 23 10 64 40 91 65 l49 47 27 -33 c30 -37 37 -24 12 24 -12 24 -13 30 -3 25 53 -21 54 -20 25 11 -15 17 -25 35 -22 41 4 6 3 11 -3 11 -17 0 -23 -20 -11 -35 9 -11 7 -12 -9 -8 -23 6 -27 -7 -8 -26 10 -10 9 -11 -3 -6 -10 3 -28 -8 -49 -30 -34 -37 -127 -91 -148 -87 -6 2 -14 -2 -18 -7 -3 -6 -12 -8 -20 -4 -8 3 -23 2 -32 -2 -22 -9 -202 -9 -224 0 -9 3 -20 5 -25 4 -5 -1 -16 0 -24 4 -8 3 -42 13 -75 22 -32 9 -81 28 -107 41 -27 14 -53 22 -59 19 -5 -4 -8 -1 -7 7 2 7 -5 12 -14 12 -10 -1 -16 2 -13 6 7 11 -22 33 -33 26 -11 -7 -55 38 -46 47 10 10 -17 38 -29 30 -6 -3 -7 -1 -3 5 3 6 -7 33 -23 59 -16 26 -33 60 -36 76 -4 15 -10 29 -14 32 -9 5 6 137 20 185 6 19 21 62 32 95 l22 60 5 -80 5 -80 19 100 19 100 13 -64 c7 -35 26 -91 42 -126 l29 -62 -75 -22 c-41 -12 -72 -24 -70 -26 5 -6 136 23 158 34 8 4 32 6 53 3 22 -2 50 1 63 8 20 11 28 11 48 0 14 -7 38 -10 55 -7 17 4 33 2 37 -4 3 -6 16 -9 27 -8 12 1 30 -2 40 -6 10 -4 21 -5 24 -1 3 3 12 1 19 -5 8 -6 20 -9 28 -6 7 3 18 1 23 -4 5 -5 22 -10 39 -12 16 -2 34 -6 39 -9 6 -3 28 -11 50 -18 84 -27 114 -48 121 -85 12 -63 19 -45 16 40 -3 76 -1 90 29 157 18 40 40 100 50 133 19 69 21 67 43 -80 l14 -90 2 90 2 90 29 -105 c26 -92 29 -117 26 -205 -2 -55 -8 -108 -12 -119 -16 -36 18 -11 39 30 31 58 28 209 -6 322 -23 77 -24 82 -7 82 21 0 39 28 39 60 0 24 -34 110 -91 228 -32 65 -44 82 -62 82 -17 0 -30 16 -59 78 -21 44 -61 104 -93 140 -53 58 -58 67 -65 128 -10 80 -28 103 -122 150 -36 18 -70 39 -73 45 -4 6 7 25 24 43 37 38 38 47 10 72 -22 19 -22 39 -3 132 l7 32 -70 0 -70 0 9 -51z m141 -658 c34 -34 -66 -46 -125 -15 -30 16 -31 18 -13 25 26 11 125 3 138 -10z m-234 -289 c44 -20 71 -66 71 -120 0 -83 -58 -142 -138 -142 -74 0 -141 84 -142 177 0 97 97 136 209 85z m479 -27 c26 -29 32 -43 32 -81 0 -62 -29 -107 -82 -129 -53 -21 -97 -13 -133 23 -34 34 -45 62 -45 114 0 83 49 121 145 113 42 -4 56 -10 83 -40z m-402 -224 c-6 -9 -56 -22 -56 -14 0 4 40 21 53 22 5 1 6 -3 3 -8z m234 -13 c10 -6 3 -7 -20 -2 -19 3 -39 10 -45 16 -12 11 42 0 65 -14z"/>
 <path d="M731 886 c-16 -19 -3 -45 25 -52 45 -12 79 21 54 51 -16 19 -64 19 -79 1z"/>
 <path d="M1177 893 c-13 -12 -7 -54 8 -59 44 -17 84 23 53 54 -13 13 -50 16 -61 5z"/>
 <path d="M1160 1996 c0 -2 18 -66 39 -143 22 -76 42 -163 46 -193 8 -76 18 -90 44 -66 26 23 241 98 347 121 116 24 158 49 188 110 24 48 45 121 46 158 0 16 -23 17 -355 17 -195 0 -355 -2 -355 -4z"/>
 <path d="M840 570 c137 -7 221 -21 293 -46 22 -8 42 -12 44 -10 3 3 -33 17 -79 32 -73 24 -101 27 -238 29 l-155 3 135 -8z"/>
 <path d="M1383 530 c0 -25 2 -35 4 -22 2 12 2 32 0 45 -2 12 -4 2 -4 -23z"/>
 <path d="M978 483 c12 -2 32 -2 45 0 12 2 2 4 -23 4 -25 0 -35 -2 -22 -4z"/>
 <path d="M713 444 c32 -17 189 -54 227 -53 14 0 -15 9 -65 19 -49 10 -110 26 -134 34 -54 20 -64 20 -28 0z"/>
 <path d="M1250 232 c-25 -15 -74 -35 -110 -45 -54 -15 -58 -17 -20 -12 49 7 153 50 171 71 15 18 13 17 -41 -14z"/>
 <path d="M845 235 c17 -8 39 -14 50 -14 11 0 0 7 -25 15 -56 17 -64 17 -25 -1z"/>
 </g>
<g id="layer106" fill="#5bbbd5" stroke="none">
 <path d="M130 1983 c1 -37 22 -110 46 -158 30 -61 72 -86 188 -110 106 -23 321 -98 347 -121 26 -24 36 -10 44 66 4 30 24 117 46 193 21 77 39 141 39 143 0 2 -160 4 -355 4 -332 0 -355 -1 -355 -17z"/>
 <path d="M932 1949 c5 -28 13 -60 17 -72 7 -17 3 -27 -18 -44 l-26 -22 40 -41 40 -41 -25 -19 c-14 -11 -48 -30 -75 -44 -70 -34 -83 -52 -101 -137 -12 -58 -22 -82 -48 -109 -56 -60 -103 -129 -127 -185 -18 -43 -28 -55 -47 -57 -14 -2 -28 -10 -32 -18 -99 -198 -122 -259 -118 -301 2 -24 10 -37 26 -44 14 -6 20 -15 16 -25 -15 -41 -44 -180 -44 -216 0 -100 64 -231 157 -320 114 -109 361 -187 537 -168 64 6 68 8 42 17 -20 7 -35 6 -48 -2 -23 -14 -75 -14 -84 0 -3 6 -17 8 -31 4 -14 -3 -31 -1 -39 5 -7 7 -18 9 -24 5 -6 -4 -17 -2 -24 4 -8 7 -18 11 -22 10 -5 -1 -11 0 -14 1 -3 1 -22 3 -44 4 -24 2 -42 9 -48 20 -5 9 -17 15 -26 12 -19 -6 -68 18 -64 31 1 4 -6 8 -17 9 -37 2 -126 81 -126 112 0 9 -7 17 -15 17 -8 0 -15 9 -15 20 0 11 -6 19 -12 17 -7 -1 -13 1 -14 5 0 5 -2 19 -3 32 -2 13 -11 30 -20 37 -10 7 -15 18 -11 24 4 6 2 17 -4 24 -6 7 -9 21 -5 30 3 9 1 23 -6 31 -11 13 -11 20 0 39 7 13 9 29 5 35 -4 7 -1 18 5 26 6 8 9 19 5 25 -4 6 -2 17 4 24 7 8 11 18 10 22 -1 5 3 22 9 37 7 15 11 31 10 35 -1 4 4 20 10 35 7 16 12 34 12 42 0 8 4 17 10 20 5 3 10 12 10 20 0 8 10 31 23 52 l22 38 12 -75 c7 -41 15 -95 17 -120 2 -25 15 -75 29 -111 21 -59 22 -67 8 -77 -14 -10 -14 -11 1 -11 9 -1 20 4 23 9 4 6 21 8 40 4 19 -3 35 -1 39 5 9 14 113 14 121 0 4 -6 19 -7 36 -4 18 4 36 2 44 -5 8 -6 19 -9 25 -5 6 4 17 1 25 -5 8 -6 19 -9 25 -5 6 4 17 1 25 -5 8 -6 19 -9 25 -5 6 4 17 1 25 -5 8 -6 18 -9 22 -7 5 3 22 0 38 -7 17 -8 59 -24 95 -37 50 -19 69 -31 80 -54 15 -29 15 -28 17 53 1 48 7 89 14 98 6 8 9 17 6 21 -4 3 -3 11 3 18 5 6 11 27 13 46 2 19 7 40 11 47 4 7 5 16 1 21 -3 5 0 13 6 16 5 4 8 13 5 21 -3 7 -2 16 3 18 4 3 16 32 26 66 10 33 22 60 26 60 4 0 11 -15 14 -32 4 -18 12 -44 18 -58 5 -14 11 -32 12 -40 2 -16 42 -154 52 -180 4 -8 5 -22 4 -32 -1 -9 3 -19 9 -23 13 -8 13 -142 0 -150 -5 -3 -8 -19 -7 -34 3 -41 13 -30 27 30 16 67 7 171 -23 277 -23 77 -23 82 -6 82 21 0 39 28 39 60 0 24 -34 110 -91 228 -32 65 -44 82 -62 82 -17 0 -30 16 -59 78 -21 44 -61 104 -93 140 -53 58 -58 67 -65 128 -10 80 -28 103 -122 150 -36 18 -70 39 -73 45 -4 6 7 25 24 43 37 38 38 47 10 72 -22 19 -22 39 -3 132 l7 32 -70 0 -70 0 9 -51z m141 -658 c34 -34 -66 -46 -125 -15 -30 16 -31 18 -13 25 26 11 125 3 138 -10z m-234 -289 c44 -20 71 -66 71 -120 0 -83 -58 -142 -138 -142 -74 0 -141 84 -142 177 0 97 97 136 209 85z m479 -27 c26 -29 32 -43 32 -81 0 -62 -29 -107 -82 -129 -53 -21 -97 -13 -133 23 -34 34 -45 62 -45 114 0 83 49 121 145 113 42 -4 56 -10 83 -40z m-393 -224 c-6 -5 -26 -12 -45 -16 -33 -7 -34 -6 -15 9 21 16 76 23 60 7z m235 -13 c10 -6 1 -7 -30 -3 -25 3 -49 11 -55 17 -12 13 62 1 85 -14z"/>
 <path d="M731 886 c-16 -19 -3 -45 25 -52 45 -12 79 21 54 51 -16 19 -64 19 -79 1z"/>
 <path d="M1177 893 c-13 -12 -7 -54 8 -59 44 -17 84 23 53 54 -13 13 -50 16 -61 5z"/>
 <path d="M1160 1996 c0 -2 18 -66 39 -143 22 -76 42 -163 46 -193 8 -76 18 -90 44 -66 26 23 241 98 347 121 116 24 158 49 188 110 24 48 45 121 46 158 0 16 -23 17 -355 17 -195 0 -355 -2 -355 -4z"/>
 <path d="M1525 379 c-10 -15 3 -25 16 -12 7 7 7 13 1 17 -6 3 -14 1 -17 -5z"/>
 <path d="M1436 266 c3 -7 -2 -16 -10 -19 -9 -4 -16 -11 -16 -17 0 -6 7 -4 16 4 8 9 20 14 25 11 5 -4 9 0 9 8 0 8 -7 17 -14 20 -10 4 -13 1 -10 -7z"/>
 <path d="M1486 262 c-3 -6 1 -13 10 -16 23 -9 28 -2 10 13 -8 7 -17 8 -20 3z"/>
 <path d="M1465 220 c-4 -7 0 -19 9 -28 13 -14 16 -14 16 -2 0 25 -16 44 -25 30z"/>
 <path d="M1340 170 c-14 -11 -20 -20 -15 -20 6 0 21 9 35 20 14 11 21 20 15 20 -5 0 -21 -9 -35 -20z"/>
 <path d="M1261 126 c-10 -12 -8 -13 8 -9 12 3 21 9 21 14 0 14 -16 11 -29 -5z"/>
 <path d="M1185 110 c-3 -5 3 -10 15 -10 12 0 18 5 15 10 -3 6 -10 10 -15 10 -5 0 -12 -4 -15 -10z"/>
 </g>
<g id="layer107" fill="#c69a6f" stroke="none">
 <path d="M130 1983 c1 -37 22 -110 46 -158 30 -61 72 -86 188 -110 106 -23 321 -98 347 -121 26 -24 36 -10 44 66 4 30 24 117 46 193 21 77 39 141 39 143 0 2 -160 4 -355 4 -332 0 -355 -1 -355 -17z"/>
 <path d="M932 1949 c5 -28 13 -60 17 -72 7 -17 3 -27 -18 -44 l-26 -22 40 -41 40 -41 -25 -19 c-14 -11 -48 -30 -75 -44 -70 -34 -83 -52 -101 -137 -12 -58 -22 -82 -48 -109 -56 -60 -103 -129 -127 -185 -18 -43 -28 -55 -47 -57 -14 -2 -28 -10 -32 -18 -99 -198 -122 -259 -118 -301 2 -24 10 -37 26 -44 14 -6 20 -15 16 -25 -15 -41 -44 -180 -44 -216 0 -100 64 -231 157 -320 114 -109 361 -187 537 -168 64 6 68 8 42 17 -20 7 -35 6 -48 -2 -23 -14 -75 -14 -84 0 -3 6 -17 8 -31 4 -14 -3 -31 -1 -39 5 -7 7 -18 9 -24 5 -6 -4 -17 -2 -24 4 -8 7 -18 11 -22 10 -5 -1 -11 0 -14 1 -3 1 -22 3 -44 4 -24 2 -42 9 -48 20 -5 9 -17 15 -26 12 -19 -6 -68 18 -64 31 1 4 -6 8 -17 9 -37 2 -126 81 -126 112 0 9 -7 17 -15 17 -8 0 -15 9 -15 20 0 11 -6 19 -12 17 -7 -1 -13 1 -14 5 0 5 -2 19 -3 32 -2 13 -11 30 -20 37 -10 7 -15 18 -11 24 4 6 2 17 -4 24 -6 7 -9 21 -5 30 3 9 1 23 -6 31 -11 13 -11 20 0 39 7 13 9 29 5 35 -4 7 -1 18 5 26 6 8 9 19 5 25 -4 6 -2 17 4 24 7 8 11 18 10 22 -1 5 3 22 9 37 7 15 11 31 10 35 -1 4 4 20 10 35 7 16 12 34 12 42 0 8 4 17 10 20 5 3 10 12 10 20 0 8 10 31 23 52 l22 38 12 -75 c7 -41 15 -95 17 -120 2 -25 15 -75 29 -111 21 -59 22 -67 8 -77 -14 -10 -14 -11 1 -11 9 -1 20 4 23 9 4 6 21 8 40 4 19 -3 35 -1 39 5 9 14 113 14 121 0 4 -6 19 -7 36 -4 18 4 36 2 44 -5 8 -6 19 -9 25 -5 6 4 17 1 25 -5 8 -6 19 -9 25 -5 6 4 17 1 25 -5 8 -6 19 -9 25 -5 6 4 17 1 25 -5 8 -6 18 -9 22 -7 5 3 22 0 38 -7 17 -8 59 -24 95 -37 50 -19 69 -31 80 -54 15 -29 15 -28 17 53 1 48 7 89 14 98 6 8 9 17 6 21 -4 3 -3 11 3 18 5 6 11 27 13 46 2 19 7 40 11 47 4 7 5 16 1 21 -3 5 0 13 6 16 5 4 8 13 5 21 -3 7 -2 16 3 18 4 3 16 32 26 66 10 33 22 60 26 60 4 0 11 -15 14 -32 4 -18 12 -44 18 -58 5 -14 11 -32 12 -40 2 -16 42 -154 52 -180 4 -8 5 -22 4 -32 -1 -9 3 -19 9 -23 13 -8 13 -142 0 -150 -5 -3 -8 -19 -7 -34 3 -41 13 -30 27 30 16 67 7 171 -23 277 -23 77 -23 82 -6 82 21 0 39 28 39 60 0 24 -34 110 -91 228 -32 65 -44 82 -62 82 -17 0 -30 16 -59 78 -21 44 -61 104 -93 140 -53 58 -58 67 -65 128 -10 80 -28 103 -122 150 -36 18 -70 39 -73 45 -4 6 7 25 24 43 37 38 38 47 10 72 -22 19 -22 39 -3 132 l7 32 -70 0 -70 0 9 -51z m141 -658 c34 -34 -66 -46 -125 -15 -30 16 -31 18 -13 25 26 11 125 3 138 -10z m-234 -289 c44 -20 71 -66 71 -120 0 -83 -58 -142 -138 -142 -74 0 -141 84 -142 177 0 97 97 136 209 85z m479 -27 c26 -29 32 -43 32 -81 0 -62 -29 -107 -82 -129 -53 -21 -97 -13 -133 23 -34 34 -45 62 -45 114 0 83 49 121 145 113 42 -4 56 -10 83 -40z m-393 -224 c-6 -5 -26 -12 -45 -16 -33 -7 -34 -6 -15 9 21 16 76 23 60 7z m235 -13 c10 -6 1 -7 -30 -3 -25 3 -49 11 -55 17 -12 13 62 1 85 -14z"/>
 <path d="M1160 1996 c0 -2 18 -66 39 -143 22 -76 42 -163 46 -193 8 -76 18 -90 44 -66 26 23 241 98 347 121 116 24 158 49 188 110 24 48 45 121 46 158 0 16 -23 17 -355 17 -195 0 -355 -2 -355 -4z"/>
 <path d="M1525 379 c-10 -15 3 -25 16 -12 7 7 7 13 1 17 -6 3 -14 1 -17 -5z"/>
 <path d="M1436 266 c3 -7 -2 -16 -10 -19 -9 -4 -16 -11 -16 -17 0 -6 7 -4 16 4 8 9 20 14 25 11 5 -4 9 0 9 8 0 8 -7 17 -14 20 -10 4 -13 1 -10 -7z"/>
 <path d="M1486 262 c-3 -6 1 -13 10 -16 23 -9 28 -2 10 13 -8 7 -17 8 -20 3z"/>
 <path d="M1465 220 c-4 -7 0 -19 9 -28 13 -14 16 -14 16 -2 0 25 -16 44 -25 30z"/>
 <path d="M1340 170 c-14 -11 -20 -20 -15 -20 6 0 21 9 35 20 14 11 21 20 15 20 -5 0 -21 -9 -35 -20z"/>
 <path d="M1261 126 c-10 -12 -8 -13 8 -9 12 3 21 9 21 14 0 14 -16 11 -29 -5z"/>
 <path d="M1185 110 c-3 -5 3 -10 15 -10 12 0 18 5 15 10 -3 6 -10 10 -15 10 -5 0 -12 -4 -15 -10z"/>
 </g>
<g id="layer108" fill="#9e7065" stroke="none">
 <path d="M130 1983 c1 -37 22 -110 46 -158 30 -61 72 -86 188 -110 106 -23 321 -98 347 -121 26 -24 36 -10 44 66 4 30 24 117 46 193 21 77 39 141 39 143 0 2 -160 4 -355 4 -332 0 -355 -1 -355 -17z"/>
 <path d="M932 1949 c5 -28 13 -60 17 -72 7 -17 3 -27 -18 -44 l-26 -22 40 -41 40 -41 -25 -19 c-14 -11 -49 -31 -78 -45 -63 -31 -86 -65 -101 -148 -8 -47 -18 -69 -44 -96 -57 -60 -104 -129 -128 -186 -18 -43 -28 -55 -47 -57 -14 -2 -28 -10 -32 -18 -135 -269 -148 -328 -78 -353 14 -5 24 12 53 87 20 52 42 102 50 112 12 16 14 12 20 -39 4 -31 10 -57 14 -57 3 0 7 -30 8 -67 1 -37 7 -69 13 -71 5 -2 7 -8 4 -13 -3 -6 0 -16 6 -24 7 -8 9 -15 5 -15 -4 0 -2 -7 5 -15 7 -8 10 -15 7 -15 -3 0 -1 -14 5 -30 l10 -30 92 6 c140 10 337 -29 502 -99 l81 -34 7 56 c3 31 22 119 42 196 20 77 36 148 37 158 1 9 4 17 8 17 4 0 10 14 14 30 4 17 11 30 15 30 12 0 31 -36 24 -43 -8 -8 48 -157 59 -157 4 0 5 4 2 10 -3 5 3 10 14 10 22 0 41 27 41 60 0 24 -34 110 -91 228 -32 65 -44 82 -62 82 -17 0 -30 16 -59 78 -21 44 -61 104 -93 140 -53 58 -58 67 -65 128 -10 80 -30 104 -117 146 -88 42 -93 51 -55 91 38 39 39 48 11 73 -22 19 -22 39 -3 132 l7 32 -70 0 -70 0 9 -51z m128 -589 c0 -5 -10 -10 -22 -10 -19 0 -20 2 -8 10 19 13 30 13 30 0z m13 -69 c34 -34 -66 -46 -125 -15 -30 16 -31 18 -13 25 26 11 125 3 138 -10z m-234 -289 c44 -20 71 -66 71 -120 0 -83 -58 -142 -138 -142 -74 0 -141 84 -142 177 0 97 97 136 209 85z m479 -27 c26 -29 32 -43 32 -81 0 -62 -29 -107 -82 -129 -53 -21 -97 -13 -133 23 -34 34 -45 62 -45 114 0 83 49 121 145 113 42 -4 56 -10 83 -40z m52 -190 c0 -6 -50 -31 -80 -39 -14 -4 -5 5 20 18 45 25 60 30 60 21z m-454 -40 c-11 -8 -31 -15 -45 -15 -24 0 -24 1 -5 15 10 8 30 14 44 14 24 0 24 0 6 -14z m234 1 l45 -15 -46 0 c-25 -1 -54 5 -65 14 -19 14 -19 14 1 15 11 0 40 -7 65 -14z"/>
 <path d="M1160 1996 c0 -2 18 -66 39 -143 22 -76 42 -163 46 -193 8 -76 18 -90 44 -66 26 23 241 98 347 121 116 24 158 49 188 110 24 48 45 121 46 158 0 16 -23 17 -355 17 -195 0 -355 -2 -355 -4z"/>
 <path d="M1535 760 c4 -14 12 -29 17 -35 7 -7 8 -2 3 15 -4 14 -12 30 -17 35 -7 7 -8 2 -3 -15z"/>
 <path d="M427 683 c-7 -13 -19 -89 -13 -83 6 7 25 90 21 90 -2 0 -6 -3 -8 -7z"/>
 <path d="M1564 650 c3 -14 6 -65 6 -115 0 -51 4 -84 9 -77 12 20 4 193 -10 206 -9 8 -10 5 -5 -14z"/>
 <path d="M441 433 c13 -36 62 -113 71 -113 4 0 -9 24 -28 52 -19 29 -34 58 -34 65 0 6 -4 15 -10 18 -6 4 -6 -4 1 -22z"/>
 <path d="M575 245 c80 -70 297 -157 384 -154 14 0 -12 9 -59 19 -47 10 -110 27 -141 39 -61 23 -165 87 -188 114 -7 9 -19 17 -25 17 -6 0 7 -16 29 -35z"/>
 <path d="M1486 262 c-3 -6 1 -13 10 -16 23 -9 28 -2 10 13 -8 7 -17 8 -20 3z"/>
 <path d="M1465 220 c-4 -7 0 -19 9 -28 13 -14 16 -14 16 -2 0 25 -16 44 -25 30z"/>
 <path d="M1018 83 c18 -2 45 -2 60 0 15 2 0 4 -33 4 -33 0 -45 -2 -27 -4z"/>
 </g>
<g id="layer109" fill="#93624b" stroke="none">
 <path d="M130 1983 c1 -37 22 -110 46 -158 30 -61 72 -86 188 -110 106 -23 321 -98 347 -121 26 -24 34 -11 43 68 4 33 19 99 33 146 14 48 31 111 38 140 l13 52 -354 0 c-331 0 -354 -1 -354 -17z"/>
 <path d="M932 1949 c5 -28 13 -60 17 -72 7 -17 3 -27 -18 -44 l-26 -22 39 -40 c47 -48 44 -56 -50 -101 -74 -36 -86 -51 -108 -145 -13 -51 -26 -79 -50 -105 -56 -60 -104 -129 -127 -185 -18 -43 -28 -55 -47 -57 -14 -2 -28 -10 -32 -18 -135 -269 -148 -328 -78 -353 14 -5 24 12 53 87 20 52 42 102 50 112 12 16 14 12 20 -39 4 -31 12 -57 17 -57 6 0 7 -7 4 -16 -9 -22 5 -125 16 -118 4 3 6 10 3 15 -11 16 12 10 36 -11 13 -10 19 -19 12 -20 -6 0 -15 5 -18 10 -3 6 -10 10 -15 10 -14 0 -21 -32 -9 -46 6 -8 8 -14 4 -14 -4 0 -2 -7 5 -15 7 -8 10 -15 7 -15 -3 0 -1 -14 5 -30 l10 -30 92 6 c140 10 337 -29 502 -99 l81 -34 7 56 c3 31 22 119 42 196 20 77 36 148 37 158 1 9 4 17 8 17 4 0 10 14 14 30 4 17 11 30 15 30 12 0 31 -36 24 -43 -8 -8 48 -157 59 -157 4 0 5 4 2 10 -3 5 3 10 14 10 22 0 41 27 41 60 0 24 -34 110 -91 228 -32 65 -44 82 -62 82 -17 0 -30 16 -59 78 -21 44 -61 104 -93 140 -53 58 -58 67 -65 128 -9 74 -17 86 -77 120 -24 13 -64 36 -89 50 l-46 26 36 37 c42 43 44 54 15 75 -23 15 -23 36 -3 134 l7 32 -70 0 -70 0 9 -51z m128 -589 c0 -5 -10 -10 -22 -10 -19 0 -20 2 -8 10 19 13 30 13 30 0z m-17 -56 c41 -7 47 -27 15 -48 -19 -11 -101 6 -126 27 -26 21 35 33 111 21z m-204 -303 c50 -25 74 -62 74 -113 0 -85 -60 -148 -141 -148 -74 0 -141 84 -142 177 0 98 101 139 209 84z m459 -2 c73 -46 68 -173 -8 -226 -36 -25 -109 -23 -147 5 -59 42 -75 154 -30 210 25 31 141 38 185 11z m72 -214 c0 -10 -104 -55 -125 -55 -11 1 9 14 45 29 69 31 80 34 80 26z m-440 -35 c0 -5 -12 -12 -27 -16 -16 -3 -37 -8 -48 -10 -18 -5 -18 -3 4 15 24 22 71 29 71 11z m224 -2 c66 -18 68 -31 4 -24 -64 7 -88 14 -88 27 0 12 35 11 84 -3z"/>
 <path d="M1175 1948 c7 -29 24 -93 38 -143 14 -49 28 -115 32 -145 8 -76 18 -90 44 -66 26 23 241 98 347 121 116 24 158 49 188 110 24 48 45 121 46 158 0 16 -23 17 -354 17 l-354 0 13 -52z"/>
 <path d="M1570 534 c0 -43 3 -74 7 -70 10 10 11 136 1 142 -4 3 -8 -30 -8 -72z"/>
 <path d="M1018 83 c18 -2 45 -2 60 0 15 2 0 4 -33 4 -33 0 -45 -2 -27 -4z"/>
 </g>
<g id="layer110" fill="#6b5e58" stroke="none">
 <path d="M130 1983 c1 -37 22 -110 46 -158 30 -61 72 -86 188 -110 106 -23 321 -98 347 -121 26 -24 34 -11 43 68 4 33 19 99 33 146 14 48 31 111 38 140 l13 52 -354 0 c-331 0 -354 -1 -354 -17z"/>
 <path d="M932 1949 c5 -28 13 -60 17 -72 7 -17 3 -27 -18 -44 l-26 -22 40 -40 c21 -23 46 -41 55 -41 18 0 80 60 80 77 0 7 -10 19 -21 27 -23 15 -23 36 -3 134 l7 32 -70 0 -70 0 9 -51z"/>
 <path d="M1175 1948 c7 -29 24 -93 38 -143 14 -49 28 -115 32 -145 8 -76 18 -90 44 -66 26 23 241 98 347 121 116 24 158 49 188 110 24 48 45 121 46 158 0 16 -23 17 -354 17 l-354 0 13 -52z"/>
 <path d="M905 1622 c-12 -4 -41 -20 -66 -36 -39 -25 -47 -35 -57 -79 -8 -33 -24 -64 -46 -87 -56 -59 -103 -128 -127 -185 -18 -43 -28 -55 -47 -57 -14 -2 -28 -10 -32 -18 -135 -270 -148 -328 -77 -353 11 -4 17 -1 17 8 0 8 -8 15 -17 15 -15 0 -15 2 -2 13 23 19 69 84 63 90 -3 2 6 22 21 42 14 21 25 44 25 52 0 8 4 12 8 9 5 -3 22 41 40 97 18 62 47 127 71 164 48 75 163 193 211 218 42 22 172 25 210 5 78 -40 212 -189 256 -283 12 -27 34 -93 50 -147 15 -55 32 -98 38 -97 6 1 26 -28 46 -64 19 -37 41 -74 49 -83 12 -14 11 -16 -3 -16 -9 0 -16 -6 -16 -14 0 -18 40 -10 58 12 25 32 9 86 -79 270 -32 66 -44 82 -62 82 -18 0 -28 13 -50 64 -16 35 -54 94 -85 131 -70 83 -81 102 -84 149 -2 20 -7 36 -11 36 -5 0 -29 14 -55 32 -43 30 -54 32 -137 35 -49 1 -99 -1 -110 -5z m-325 -467 c0 -19 -38 -96 -61 -122 -16 -19 -26 -39 -23 -48 9 -24 -4 -78 -27 -105 l-20 -25 5 50 c4 56 11 76 62 181 20 41 42 74 50 74 8 0 14 -2 14 -5z m913 -96 c40 -83 48 -109 45 -147 l-3 -47 -17 32 c-10 18 -18 50 -18 72 0 28 -8 48 -25 69 -14 17 -32 49 -40 72 -18 51 -18 50 -2 50 6 0 34 -45 60 -101z"/>
 <path d="M874 1369 c-21 -24 -17 -44 16 -78 33 -33 83 -51 142 -51 67 0 126 77 99 129 -10 18 -20 20 -127 18 -91 -2 -118 -5 -130 -18z m186 -9 c0 -5 -12 -10 -27 -9 -25 0 -26 1 -8 9 27 12 35 12 35 0z m-17 -56 c41 -7 47 -27 15 -48 -19 -11 -101 6 -126 27 -26 21 35 33 111 21z"/>
 <path d="M968 1157 c-34 -28 -34 -34 -3 -72 l25 -30 0 38 c0 35 2 37 32 37 l31 0 -23 25 c-28 30 -28 30 -62 2z"/>
 <path d="M670 1038 c-65 -34 -76 -143 -24 -239 30 -54 55 -72 117 -83 79 -14 167 70 167 160 0 53 -35 119 -76 145 -44 27 -147 36 -184 17z m169 -37 c50 -25 74 -62 74 -113 0 -85 -60 -148 -141 -148 -74 0 -141 84 -142 177 0 98 101 139 209 84z"/>
 <path d="M1134 1024 c-42 -21 -64 -62 -64 -123 0 -51 24 -116 52 -138 7 -6 31 -16 53 -22 49 -13 122 9 167 51 24 23 28 33 28 84 0 43 -6 66 -22 90 -46 67 -143 93 -214 58z m164 -25 c73 -46 68 -173 -8 -226 -36 -25 -109 -23 -147 5 -59 42 -75 154 -30 210 25 31 141 38 185 11z"/>
 </g>
<g id="layer111" fill="#a83738" stroke="none">
 <path d="M130 1983 c1 -37 22 -110 46 -158 30 -61 72 -86 188 -110 106 -23 321 -98 347 -121 27 -24 34 -11 43 73 4 35 17 99 31 141 13 42 30 103 38 135 l15 57 -354 0 c-331 0 -354 -1 -354 -17z"/>
 <path d="M930 1977 c0 -13 7 -46 15 -73 14 -48 14 -49 -12 -70 l-26 -21 38 -41 c20 -23 43 -42 51 -42 18 0 84 59 84 75 0 7 -11 22 -25 32 -22 16 -23 22 -16 58 5 22 11 55 15 73 l6 32 -65 0 c-61 0 -65 -1 -65 -23z"/>
 <path d="M1177 1943 c8 -32 25 -92 38 -133 12 -41 26 -105 30 -141 9 -86 17 -99 44 -75 26 23 241 98 347 121 116 24 158 49 188 110 24 48 45 121 46 158 0 16 -23 17 -354 17 l-354 0 15 -57z"/>
 <path d="M905 1622 c-12 -4 -41 -20 -66 -36 -39 -25 -47 -35 -57 -79 -8 -33 -24 -64 -46 -87 -56 -59 -103 -128 -127 -185 -18 -43 -28 -55 -47 -57 -14 -2 -28 -10 -32 -18 -135 -270 -148 -328 -77 -353 11 -4 17 -1 17 8 0 8 -8 15 -17 15 -15 0 -15 2 -2 13 23 19 69 84 63 90 -3 2 6 22 21 42 14 21 25 44 25 52 0 8 4 12 8 9 5 -3 22 41 40 97 18 62 47 127 71 164 48 75 163 193 211 218 42 22 172 25 210 5 78 -40 212 -189 256 -283 12 -27 34 -93 50 -147 15 -55 32 -98 38 -97 6 1 26 -28 46 -64 19 -37 41 -74 49 -83 12 -14 11 -16 -3 -16 -9 0 -16 -6 -16 -14 0 -18 40 -10 58 12 25 32 9 86 -79 270 -32 66 -44 82 -62 82 -18 0 -28 13 -50 64 -16 35 -54 94 -85 131 -70 83 -81 102 -84 149 -2 20 -7 36 -11 36 -5 0 -29 14 -55 32 -43 30 -54 32 -137 35 -49 1 -99 -1 -110 -5z m-325 -467 c0 -19 -38 -96 -61 -122 -16 -19 -26 -39 -23 -48 9 -24 -4 -78 -27 -105 l-20 -25 5 50 c4 56 11 76 62 181 20 41 42 74 50 74 8 0 14 -2 14 -5z m913 -96 c40 -83 48 -109 45 -147 l-3 -47 -17 32 c-10 18 -18 50 -18 72 0 28 -8 48 -25 69 -14 17 -32 49 -40 72 -18 51 -18 50 -2 50 6 0 34 -45 60 -101z"/>
 <path d="M879 1372 c-28 -20 -23 -46 15 -80 90 -78 221 -62 240 30 12 60 -1 67 -125 65 -73 -1 -118 -7 -130 -15z m181 -12 c0 -5 -12 -10 -27 -9 -25 0 -26 1 -8 9 27 12 35 12 35 0z m20 -66 c8 -8 6 -16 -6 -29 -14 -13 -27 -16 -63 -11 -51 7 -95 32 -85 47 8 14 140 7 154 -7z"/>
 <path d="M968 1157 c-34 -28 -34 -34 -3 -72 l25 -30 0 38 c0 35 2 37 32 37 l31 0 -23 25 c-28 30 -28 30 -62 2z"/>
 <path d="M664 1031 c-31 -19 -54 -64 -54 -106 0 -50 33 -130 69 -166 74 -73 183 -53 230 44 36 74 23 144 -37 200 -50 48 -153 61 -208 28z m191 -39 c78 -54 82 -147 10 -219 -29 -29 -40 -33 -83 -33 -59 0 -101 29 -132 91 -23 44 -27 127 -7 152 41 54 141 59 212 9z"/>
 <path d="M1145 1030 c-70 -28 -96 -130 -55 -215 29 -59 97 -95 145 -75 15 7 9 9 -23 9 -36 1 -50 7 -77 34 -42 42 -61 107 -46 157 16 54 43 73 110 78 77 6 116 -15 143 -74 30 -69 9 -135 -55 -174 -38 -23 -29 -27 13 -5 48 25 70 62 70 119 0 43 -5 58 -32 90 -17 21 -46 45 -64 52 -37 15 -98 17 -129 4z"/>
 </g>
<g id="layer112" fill="#87523a" stroke="none">
 <path d="M130 1983 c1 -37 22 -110 46 -158 30 -61 72 -86 188 -110 106 -23 321 -98 347 -121 27 -24 34 -11 43 73 4 35 17 99 31 141 13 42 30 103 38 135 l15 57 -354 0 c-331 0 -354 -1 -354 -17z"/>
 <path d="M930 1977 c0 -13 7 -46 15 -73 14 -48 14 -49 -12 -70 l-26 -21 38 -41 c20 -23 43 -42 51 -42 18 0 84 59 84 75 0 7 -11 22 -25 32 -22 16 -23 22 -16 58 5 22 11 55 15 73 l6 32 -65 0 c-61 0 -65 -1 -65 -23z"/>
 <path d="M1177 1943 c8 -32 25 -92 38 -133 12 -41 26 -105 30 -141 9 -86 17 -99 44 -75 26 23 241 98 347 121 116 24 158 49 188 110 24 48 45 121 46 158 0 16 -23 17 -354 17 l-354 0 15 -57z"/>
 <path d="M905 1622 c-12 -4 -41 -20 -66 -36 -39 -25 -47 -35 -57 -79 -8 -33 -24 -64 -46 -87 -56 -59 -103 -128 -127 -185 -18 -43 -28 -55 -47 -57 -14 -2 -28 -10 -32 -18 -135 -270 -148 -328 -77 -353 11 -4 17 -1 17 8 0 8 -8 15 -17 15 -15 0 -15 2 -2 13 23 19 69 84 63 90 -3 2 6 22 21 42 14 21 25 44 25 52 0 8 4 12 8 9 5 -3 22 41 40 97 18 62 47 127 71 164 48 75 163 193 211 218 42 22 172 25 210 5 78 -40 212 -189 256 -283 12 -27 34 -93 50 -147 15 -55 32 -98 38 -97 6 1 26 -28 46 -64 19 -37 41 -74 49 -83 12 -14 11 -16 -3 -16 -9 0 -16 -6 -16 -14 0 -18 40 -10 58 12 25 32 9 86 -79 270 -32 66 -44 82 -62 82 -18 0 -28 13 -50 64 -16 35 -54 94 -85 131 -70 83 -81 102 -84 149 -2 20 -7 36 -11 36 -5 0 -29 14 -55 32 -43 30 -54 32 -137 35 -49 1 -99 -1 -110 -5z m-325 -467 c0 -19 -38 -96 -61 -122 -16 -19 -26 -39 -23 -48 9 -24 -4 -78 -27 -105 l-20 -25 5 50 c4 56 11 76 62 181 20 41 42 74 50 74 8 0 14 -2 14 -5z m913 -96 c40 -83 48 -109 45 -147 l-3 -47 -17 32 c-10 18 -18 50 -18 72 0 28 -8 48 -25 69 -14 17 -32 49 -40 72 -18 51 -18 50 -2 50 6 0 34 -45 60 -101z"/>
 <path d="M879 1372 c-28 -20 -23 -46 15 -80 90 -78 221 -62 240 30 12 60 -1 67 -125 65 -73 -1 -118 -7 -130 -15z m221 -7 c17 -21 -5 -28 -55 -17 l-40 9 35 11 c47 14 46 14 60 -3z m-131 -14 l34 -18 -53 -7 c-59 -8 -82 3 -60 29 16 19 37 19 79 -4z m111 -57 c8 -8 6 -16 -6 -29 -14 -13 -27 -16 -63 -11 -51 7 -95 32 -85 47 8 14 140 7 154 -7z"/>
 <path d="M968 1157 c-34 -28 -34 -34 -3 -72 l25 -30 0 38 c0 35 2 37 32 37 l31 0 -23 25 c-28 30 -28 30 -62 2z"/>
 <path d="M664 1031 c-31 -19 -54 -64 -54 -106 0 -50 33 -130 69 -166 74 -73 183 -53 230 44 36 74 23 144 -37 200 -50 48 -153 61 -208 28z m191 -39 c78 -54 82 -147 10 -219 -29 -29 -40 -33 -83 -33 -59 0 -101 29 -132 91 -23 44 -27 127 -7 152 41 54 141 59 212 9z"/>
 <path d="M1145 1030 c-70 -28 -96 -130 -55 -215 29 -59 97 -95 145 -75 15 7 9 9 -23 9 -36 1 -50 7 -77 34 -42 42 -61 107 -46 157 16 54 43 73 110 78 77 6 116 -15 143 -74 30 -69 9 -135 -55 -174 -38 -23 -29 -27 13 -5 48 25 70 62 70 119 0 43 -5 58 -32 90 -17 21 -46 45 -64 52 -37 15 -98 17 -129 4z"/>
 </g>
<g id="layer113" fill="#7a462f" stroke="none">
 <path d="M130 1983 c1 -37 22 -110 46 -158 30 -61 72 -86 188 -110 106 -23 321 -98 347 -121 27 -24 34 -11 43 73 4 35 17 99 31 141 13 42 30 103 38 135 l15 57 -354 0 c-331 0 -354 -1 -354 -17z"/>
 <path d="M930 1977 c0 -13 7 -46 15 -73 14 -48 14 -49 -12 -70 l-26 -21 38 -41 c20 -23 43 -42 51 -42 18 0 84 59 84 75 0 7 -11 22 -25 32 -22 16 -23 22 -16 58 5 22 11 55 15 73 l6 32 -65 0 c-61 0 -65 -1 -65 -23z"/>
 <path d="M1177 1943 c8 -32 25 -92 38 -133 12 -41 26 -105 30 -141 9 -86 17 -99 44 -75 26 23 241 98 347 121 116 24 158 49 188 110 24 48 45 121 46 158 0 16 -23 17 -354 17 l-354 0 15 -57z"/>
 <path d="M815 1562 c-11 -9 -26 -37 -34 -62 -7 -25 -27 -61 -45 -80 -57 -61 -104 -129 -127 -185 -18 -43 -28 -55 -47 -57 -14 -2 -28 -10 -32 -18 -129 -260 -145 -320 -90 -347 28 -14 44 -7 17 8 -9 6 -14 15 -10 22 3 6 5 32 4 59 -2 38 5 64 37 130 22 46 42 91 45 101 7 19 34 33 44 23 3 -3 -1 -25 -10 -48 -19 -52 -32 -116 -22 -106 4 4 25 60 46 125 46 140 96 219 204 322 86 81 123 96 231 89 86 -6 115 -22 205 -113 94 -96 134 -163 177 -297 20 -65 42 -116 47 -114 6 2 11 -8 12 -21 2 -40 21 -51 29 -18 6 23 2 33 -17 49 -22 19 -59 103 -59 133 0 31 33 -5 64 -70 57 -121 67 -150 65 -194 -2 -23 0 -45 4 -49 3 -4 -4 -15 -16 -25 l-22 -18 25 6 c73 17 66 68 -41 291 -32 65 -44 82 -62 82 -17 0 -30 16 -59 78 -21 43 -61 104 -92 138 -38 42 -58 75 -65 103 -16 75 -32 80 -221 80 -141 0 -168 -2 -185 -17z"/>
 <path d="M881 1374 c-30 -22 -26 -47 13 -82 90 -78 221 -62 240 30 3 16 1 39 -5 50 -10 18 -17 20 -63 13 -69 -10 -95 -11 -132 -3 -21 5 -38 2 -53 -8z m218 -8 c18 -21 -2 -29 -52 -20 l-42 7 30 13 c39 17 50 17 64 0z m-130 -15 l34 -18 -53 -7 c-59 -8 -82 3 -60 29 16 19 37 19 79 -4z m111 -57 c8 -8 6 -16 -6 -29 -14 -13 -27 -16 -63 -11 -51 7 -95 32 -85 47 8 14 140 7 154 -7z"/>
 <path d="M967 1155 l-28 -25 21 -35 c27 -44 34 -44 27 -2 -2 18 2 44 9 60 18 33 8 34 -29 2z"/>
 <path d="M664 1031 c-31 -19 -54 -64 -54 -106 0 -50 33 -130 69 -166 74 -73 183 -53 230 44 36 74 23 144 -37 200 -50 48 -153 61 -208 28z m191 -39 c78 -54 82 -147 10 -219 -29 -29 -40 -33 -83 -33 -59 0 -101 29 -132 91 -23 44 -27 127 -7 152 41 54 141 59 212 9z"/>
 <path d="M517 1022 c-10 -11 -17 -35 -17 -58 l0 -38 18 24 c9 14 17 40 17 57 0 18 0 33 -1 33 0 0 -8 -8 -17 -18z"/>
 <path d="M1145 1030 c-70 -28 -96 -130 -55 -215 29 -59 97 -95 145 -75 15 7 9 9 -23 9 -36 1 -50 7 -77 34 -42 42 -61 107 -46 157 16 54 43 73 110 78 77 6 116 -15 143 -74 30 -69 9 -135 -55 -174 -38 -23 -29 -27 13 -5 48 25 70 62 70 119 0 43 -5 58 -32 90 -17 21 -46 45 -64 52 -37 15 -98 17 -129 4z"/>
 </g>
<g id="layer114" fill="#59453c" stroke="none">
 <path d="M130 1983 c1 -37 22 -110 46 -158 30 -61 72 -86 188 -110 106 -23 321 -98 347 -121 27 -24 34 -11 43 73 4 35 17 99 31 141 13 42 30 103 38 135 l15 57 -339 0 -339 0 6 -27 c6 -26 32 -111 48 -158 4 -11 -2 -4 -12 15 -19 33 -34 79 -47 143 -6 30 -25 37 -25 10z m190 -231 c-14 -5 -90 28 -90 39 0 4 23 -2 51 -14 28 -12 45 -23 39 -25z"/>
 <path d="M930 1977 c0 -13 7 -46 15 -73 14 -48 14 -49 -12 -70 l-26 -21 38 -41 c20 -23 43 -42 51 -42 18 0 84 59 84 75 0 7 -11 22 -25 32 -22 16 -23 22 -16 58 5 22 11 55 15 73 l6 32 -65 0 c-61 0 -65 -1 -65 -23z"/>
 <path d="M1177 1943 c8 -32 25 -92 38 -133 12 -41 26 -105 30 -141 9 -86 17 -99 44 -75 26 23 241 98 347 121 116 24 158 49 188 110 27 52 53 161 42 172 -10 11 -18 -4 -27 -51 -8 -43 -49 -150 -54 -144 -2 2 7 35 20 73 12 39 26 82 29 98 l6 27 -339 0 -339 0 15 -57z m593 -152 c0 -11 -76 -44 -91 -39 -7 2 9 12 34 22 28 10 44 22 41 28 -4 7 -2 8 4 4 7 -4 12 -11 12 -15z"/>
 <path d="M933 1551 c-23 -4 -64 -21 -92 -39 -30 -18 -51 -26 -52 -19 0 7 -6 0 -13 -15 -6 -16 -26 -43 -42 -60 -55 -58 -102 -128 -125 -183 -18 -43 -28 -55 -47 -57 -14 -2 -28 -10 -32 -18 -129 -260 -145 -320 -90 -347 34 -17 37 -8 5 19 -25 22 -26 26 -16 58 l11 35 -5 -37 c-4 -22 -1 -39 6 -43 8 -6 10 6 7 41 -4 43 2 63 45 159 28 61 55 113 61 117 32 22 33 -2 6 -91 -11 -35 -19 -66 -17 -68 2 -2 20 47 40 109 46 141 92 220 186 315 90 92 131 112 229 113 115 0 178 -37 284 -167 66 -80 95 -137 132 -253 15 -47 30 -92 32 -100 5 -13 6 -13 15 0 8 12 9 11 8 -5 -2 -11 1 -31 5 -45 l9 -25 9 24 c6 17 4 31 -8 48 -8 14 -18 22 -22 18 -7 -6 -40 89 -41 118 -2 37 40 4 54 -43 4 -14 15 -38 25 -55 40 -65 59 -130 50 -169 -4 -20 -4 -38 1 -42 5 -3 10 12 11 33 l1 38 4 -35 c4 -29 0 -38 -23 -57 -28 -22 -28 -22 -4 -16 73 17 66 68 -41 291 -32 65 -44 82 -62 82 -17 0 -30 16 -59 78 -21 43 -61 104 -92 139 -36 39 -59 75 -65 100 -7 31 -9 33 -10 11 l-1 -27 -57 35 c-31 19 -64 34 -74 34 -9 0 -36 2 -60 4 -24 3 -63 1 -86 -3z"/>
 <path d="M881 1374 c-30 -22 -26 -47 13 -82 90 -78 221 -62 240 30 3 16 1 39 -5 50 -10 18 -17 20 -63 13 -69 -10 -95 -11 -132 -3 -21 5 -38 2 -53 -8z m221 -8 c10 -7 15 -16 11 -19 -8 -9 -63 -8 -88 2 -18 7 -17 9 10 19 40 14 47 14 67 -2z m-133 -15 l34 -18 -53 -7 c-59 -8 -82 3 -60 29 16 19 37 19 79 -4z m111 -57 c8 -8 6 -16 -6 -29 -14 -13 -27 -16 -63 -11 -51 7 -95 32 -85 47 8 14 140 7 154 -7z"/>
 <path d="M967 1152 l-27 -28 26 -35 26 -34 -6 33 c-3 17 -1 44 5 58 13 37 7 38 -24 6z"/>
 <path d="M664 1031 c-31 -19 -54 -64 -54 -106 0 -50 33 -130 69 -166 74 -73 183 -53 230 44 36 74 23 144 -37 200 -50 48 -153 61 -208 28z m191 -39 c78 -54 82 -147 10 -219 -29 -29 -40 -33 -83 -33 -59 0 -101 29 -132 91 -23 44 -27 127 -7 152 41 54 141 59 212 9z"/>
 <path d="M1145 1030 c-70 -28 -96 -130 -55 -215 29 -59 97 -95 145 -75 15 7 9 9 -23 9 -36 1 -50 7 -77 34 -42 42 -61 107 -46 157 16 54 43 73 110 78 77 6 116 -15 143 -74 30 -69 9 -135 -55 -174 -38 -23 -29 -27 13 -5 48 25 70 62 70 119 0 43 -5 58 -32 90 -17 21 -46 45 -64 52 -37 15 -98 17 -129 4z"/>
 <path d="M513 1019 c-15 -15 -17 -45 -4 -53 14 -9 28 17 22 42 -5 18 -8 21 -18 11z"/>
 </g>
<g id="layer115" fill="#6c3926" stroke="none">
 <path d="M130 1983 c1 -37 22 -110 46 -158 30 -61 72 -86 188 -110 106 -23 321 -98 347 -121 17 -16 22 -16 29 -4 6 8 10 31 10 51 0 34 10 78 64 272 l25 87 -340 0 -339 0 6 -27 c6 -26 32 -111 48 -158 4 -11 -2 -4 -12 15 -19 33 -34 79 -47 143 -6 30 -25 37 -25 10z m190 -231 c-14 -5 -90 28 -90 39 0 4 23 -2 51 -14 28 -12 45 -23 39 -25z"/>
 <path d="M930 1977 c0 -13 7 -46 15 -73 14 -48 14 -49 -12 -70 l-26 -21 38 -41 c20 -23 43 -42 51 -42 17 0 84 58 84 73 0 6 -11 20 -25 32 -22 18 -24 24 -16 60 5 22 11 55 15 73 l6 32 -65 0 c-61 0 -65 -1 -65 -23z"/>
 <path d="M1177 1943 c8 -32 25 -93 38 -135 14 -42 27 -106 31 -141 9 -84 16 -97 43 -73 26 23 241 98 347 121 116 24 158 49 188 110 27 52 53 161 42 172 -10 11 -18 -4 -27 -51 -8 -43 -49 -150 -54 -144 -2 2 7 35 20 73 12 39 26 82 29 98 l6 27 -339 0 -339 0 15 -57z m593 -152 c0 -11 -76 -44 -91 -39 -7 2 9 12 34 22 28 10 44 22 41 28 -4 7 -2 8 4 4 7 -4 12 -11 12 -15z"/>
 <path d="M933 1551 c-23 -4 -64 -21 -92 -39 -30 -18 -51 -26 -52 -19 0 7 -6 0 -13 -15 -6 -16 -26 -43 -42 -60 -55 -58 -102 -128 -125 -183 -18 -43 -28 -55 -47 -57 -14 -2 -28 -10 -32 -18 -129 -260 -145 -320 -90 -347 34 -17 37 -8 5 19 -25 22 -26 26 -16 58 l11 35 -5 -37 c-4 -22 -1 -39 6 -43 8 -6 10 6 7 41 -4 43 2 63 45 159 28 61 55 113 61 117 32 22 33 -2 6 -91 -11 -35 -19 -66 -17 -68 2 -2 20 47 40 109 46 141 92 220 186 315 90 92 131 112 229 113 115 0 178 -37 284 -167 66 -80 95 -137 132 -253 15 -47 30 -92 32 -100 5 -13 6 -13 15 0 8 12 9 11 8 -5 -2 -11 1 -31 5 -45 l9 -25 9 24 c6 17 4 31 -8 48 -8 14 -18 22 -22 18 -7 -6 -40 89 -41 118 -2 37 40 4 54 -43 4 -14 15 -38 25 -55 40 -65 59 -130 50 -169 -4 -20 -4 -38 1 -42 5 -3 10 12 11 33 l1 38 4 -35 c4 -29 0 -38 -23 -57 -28 -22 -28 -22 -4 -16 73 17 66 68 -41 291 -32 65 -44 82 -62 82 -17 0 -30 16 -59 78 -21 43 -61 104 -92 139 -36 39 -59 75 -65 100 -7 31 -9 33 -10 11 l-1 -27 -57 35 c-31 19 -64 34 -74 34 -9 0 -36 2 -60 4 -24 3 -63 1 -86 -3z"/>
 <path d="M1035 1380 c-11 -5 -50 -6 -87 -3 -61 5 -67 4 -78 -17 -10 -19 -9 -27 8 -49 27 -37 72 -60 123 -65 24 -2 35 -2 24 1 -48 10 -106 36 -102 47 6 16 142 15 159 -2 11 -11 10 -16 -6 -28 -11 -8 -15 -14 -9 -14 20 0 53 35 62 65 13 47 -2 75 -41 74 -18 0 -42 -4 -53 -9z m67 -14 c10 -7 15 -16 11 -19 -8 -9 -63 -8 -88 2 -18 7 -17 9 10 19 40 14 47 14 67 -2z m-133 -15 l34 -18 -53 -7 c-59 -8 -82 3 -60 29 16 19 37 19 79 -4z"/>
 <path d="M967 1152 l-27 -28 26 -35 26 -34 -6 33 c-3 17 -1 44 5 58 13 37 7 38 -24 6z"/>
 <path d="M675 1037 c-76 -35 -82 -167 -12 -259 25 -33 42 -44 82 -54 45 -12 54 -11 92 7 118 57 119 234 1 295 -40 21 -128 27 -163 11z m179 -44 c74 -52 85 -140 25 -208 -53 -60 -128 -67 -182 -16 -84 77 -91 218 -13 252 39 17 126 2 170 -28z"/>
 <path d="M1140 1022 c-50 -24 -73 -73 -66 -140 8 -90 62 -146 138 -144 46 1 47 12 1 12 -26 0 -50 8 -68 22 -33 25 -64 91 -65 133 0 39 33 93 66 105 37 15 111 12 143 -4 77 -41 89 -149 24 -219 -24 -25 -25 -28 -6 -18 40 21 63 60 63 111 0 114 -128 194 -230 142z"/>
 <path d="M513 1019 c-15 -15 -17 -45 -4 -53 14 -9 28 17 22 42 -5 18 -8 21 -18 11z"/>
 </g>
<g id="layer116" fill="#65321f" stroke="none">
 <path d="M130 1983 c1 -37 22 -110 46 -158 30 -61 72 -86 188 -110 106 -23 321 -98 347 -121 17 -16 22 -16 29 -4 6 8 10 31 10 51 0 34 10 78 64 272 l25 87 -254 0 c-193 0 -255 -3 -258 -12 -4 -10 -6 -10 -6 0 -1 19 -151 17 -151 -2 0 -8 12 -52 26 -96 14 -45 23 -84 20 -87 -8 -8 -45 77 -52 119 -11 66 -15 78 -24 78 -6 0 -10 -8 -10 -17z m145 -139 c-35 -60 -48 -51 193 -124 57 -17 102 -33 100 -35 -1 -2 -55 12 -118 30 -63 19 -125 34 -137 35 -12 0 -38 7 -56 16 l-34 16 33 50 c19 28 34 55 34 61 0 6 3 8 6 4 4 -3 -6 -27 -21 -53z m320 -12 c-6 -8 -35 12 -35 24 0 11 4 10 18 -3 10 -10 18 -19 17 -21z m15 -116 l25 -30 -31 25 c-17 13 -29 28 -27 32 3 5 6 7 7 5 0 -2 12 -16 26 -32z m10 -51 c14 -8 21 -14 15 -14 -5 0 -21 6 -35 14 -14 8 -20 14 -15 14 6 0 21 -6 35 -14z"/>
 <path d="M930 1977 c0 -13 7 -46 15 -73 14 -48 14 -49 -12 -70 l-26 -21 38 -41 c20 -23 43 -42 51 -42 17 0 84 58 84 73 0 6 -11 20 -25 32 -22 18 -24 24 -16 60 5 22 11 55 15 73 l6 32 -65 0 c-61 0 -65 -1 -65 -23z"/>
 <path d="M1177 1943 c8 -32 25 -93 38 -135 14 -42 27 -106 31 -141 9 -84 16 -97 43 -73 26 23 241 98 347 121 116 24 158 49 188 110 27 52 53 161 42 172 -11 11 -19 -5 -27 -56 -8 -54 -46 -148 -55 -138 -3 3 6 42 20 87 14 44 26 88 26 96 0 19 -146 21 -153 2 -4 -10 -6 -10 -6 0 -1 9 -59 12 -255 12 l-254 0 15 -57z m576 -127 l26 -33 -35 -16 c-19 -10 -45 -17 -57 -17 -12 -1 -74 -16 -137 -35 -63 -18 -116 -32 -118 -30 -4 3 35 16 193 64 55 17 105 34 112 39 9 5 3 26 -23 76 -18 38 -34 76 -34 85 0 9 11 -10 24 -42 13 -31 35 -72 49 -91z m-324 23 c-24 -15 -30 -10 -11 9 9 10 19 14 21 9 2 -5 -3 -13 -10 -18z m-1 -103 c-2 0 -16 -12 -32 -26 l-30 -25 25 31 c13 17 28 29 32 27 5 -3 7 -6 5 -7z m-28 -71 c-14 -8 -29 -14 -35 -14 -5 0 1 6 15 14 14 8 30 14 35 14 6 0 -1 -6 -15 -14z"/>
 <path d="M885 1536 c-16 -7 -45 -25 -62 -40 -29 -24 -33 -26 -34 -9 0 13 -4 11 -13 -9 -6 -16 -26 -43 -42 -60 -55 -58 -102 -128 -125 -183 -18 -43 -28 -55 -47 -57 -14 -2 -28 -10 -32 -18 -85 -169 -120 -255 -120 -294 0 -33 15 -56 37 -56 8 0 6 7 -7 20 -11 11 -20 27 -20 35 0 20 34 105 86 213 41 84 48 93 68 88 19 -5 25 1 39 42 22 60 58 115 131 197 72 81 134 125 194 135 42 7 43 8 12 8 -19 1 -48 -5 -65 -12z"/>
 <path d="M1058 1540 c64 -10 113 -42 189 -124 68 -73 124 -157 143 -215 9 -30 18 -40 28 -36 16 6 52 -21 52 -40 0 -7 11 -34 25 -60 27 -50 68 -144 80 -183 5 -17 0 -29 -24 -51 -28 -26 -29 -29 -9 -24 29 7 48 31 48 60 0 27 -33 109 -91 231 -32 65 -44 82 -62 82 -17 0 -30 16 -59 78 -21 43 -61 104 -92 138 -30 33 -59 76 -64 95 -10 33 -10 33 -11 6 l-1 -29 -32 28 c-44 36 -89 54 -135 53 -34 -1 -32 -2 15 -9z"/>
 <path d="M1035 1380 c-11 -5 -50 -6 -87 -3 -61 5 -67 4 -78 -17 -10 -19 -9 -27 8 -49 27 -37 72 -60 123 -65 24 -2 35 -2 24 1 -48 10 -106 36 -102 47 6 16 142 15 159 -2 11 -11 10 -16 -6 -28 -11 -8 -15 -14 -9 -14 20 0 53 35 62 65 13 47 -2 75 -41 74 -18 0 -42 -4 -53 -9z m67 -14 c23 -17 13 -26 -26 -25 -42 1 -77 15 -56 22 56 20 60 20 82 3z m-129 -15 l39 -18 -44 -6 c-24 -3 -51 -9 -60 -12 -21 -8 -36 34 -17 46 20 13 40 10 82 -10z"/>
 <path d="M966 1148 l-25 -23 25 -35 25 -35 -6 36 c-4 21 -2 46 4 58 15 27 8 27 -23 -1z"/>
 <path d="M675 1037 c-76 -35 -82 -167 -12 -259 25 -33 42 -44 82 -54 45 -12 54 -11 92 7 118 57 119 234 1 295 -40 21 -128 27 -163 11z m179 -44 c74 -52 85 -140 25 -208 -53 -60 -128 -67 -182 -16 -84 77 -91 218 -13 252 39 17 126 2 170 -28z"/>
 <path d="M1140 1022 c-50 -24 -73 -73 -66 -140 8 -90 62 -146 138 -144 46 1 47 12 1 12 -26 0 -50 8 -68 22 -33 25 -64 91 -65 133 0 39 33 93 66 105 37 15 111 12 143 -4 77 -41 89 -149 24 -219 -24 -25 -25 -28 -6 -18 40 21 63 60 63 111 0 114 -128 194 -230 142z"/>
 <path d="M510 1007 c-10 -20 -11 -30 -2 -39 8 -8 13 -4 17 15 10 40 0 56 -15 24z"/>
 <path d="M1470 1005 c0 -16 5 -37 10 -45 6 -9 10 -10 10 -3 0 6 2 17 5 25 3 7 -1 22 -9 33 -15 19 -15 19 -16 -10z"/>
 <path d="M443 875 c0 -22 2 -30 4 -17 2 12 2 30 0 40 -3 9 -5 -1 -4 -23z"/>
 <path d="M1552 870 c0 -19 2 -27 5 -17 2 9 2 25 0 35 -3 9 -5 1 -5 -18z"/>
 </g>
<g id="layer117" fill="#592e29" stroke="none">
 <path d="M130 1983 c1 -37 22 -110 46 -158 30 -61 72 -86 188 -110 106 -23 321 -98 347 -121 17 -16 22 -16 29 -4 6 8 10 31 10 51 0 34 10 78 64 272 22 79 23 88 8 85 -24 -5 -92 -225 -91 -298 0 -30 0 -66 0 -80 -1 -24 -1 -24 -15 -4 -8 12 -44 43 -80 69 -37 26 -66 50 -66 52 0 2 16 18 36 35 39 34 37 40 -18 57 l-37 12 29 80 c21 58 25 79 15 79 -8 0 -24 -31 -38 -74 -27 -82 -26 -85 28 -106 l30 -11 -35 -29 -35 -29 60 -57 c33 -31 51 -53 40 -49 -80 32 -212 75 -275 90 -122 27 -148 42 -176 98 -14 27 -30 76 -36 108 -9 54 -28 82 -28 42z"/>
 <path d="M300 1956 c-7 -26 -28 -72 -47 -103 -41 -69 -37 -82 5 -17 33 49 66 136 60 156 -3 7 -10 -9 -18 -36z"/>
 <path d="M930 1977 c0 -13 7 -46 15 -73 14 -48 14 -49 -12 -70 l-26 -21 38 -41 c20 -23 43 -42 51 -42 17 0 84 58 84 73 0 6 -11 20 -25 32 -22 18 -24 24 -16 60 5 22 11 55 15 73 l6 32 -65 0 c-61 0 -65 -1 -65 -23z"/>
 <path d="M1176 1943 c9 -32 26 -93 39 -135 14 -42 27 -106 31 -141 9 -84 16 -97 43 -73 26 23 241 98 347 121 116 24 158 49 188 110 36 72 58 175 37 175 -5 0 -14 -27 -19 -59 -6 -32 -22 -81 -36 -108 -28 -56 -54 -71 -176 -98 -41 -10 -124 -35 -184 -55 l-108 -39 58 55 58 54 -34 29 -35 29 30 12 c54 21 55 25 28 106 -14 43 -30 74 -38 74 -10 0 -6 -21 15 -79 l29 -80 -37 -12 c-55 -17 -57 -24 -18 -55 20 -16 36 -32 36 -35 0 -3 -29 -28 -66 -54 -36 -26 -72 -57 -80 -69 -14 -20 -14 -20 -15 4 0 14 0 50 0 80 1 72 -67 293 -91 298 -15 3 -15 -1 -2 -55z"/>
 <path d="M1681 1988 c-1 -28 35 -117 65 -159 36 -52 43 -43 9 10 -15 22 -38 69 -51 103 -12 35 -23 55 -23 46z"/>
 <path d="M1035 1380 c-11 -5 -50 -6 -87 -3 -61 5 -67 4 -78 -17 -10 -19 -9 -27 8 -49 27 -37 72 -60 123 -65 24 -2 35 -2 24 1 -48 10 -106 36 -102 47 6 16 142 15 159 -2 11 -11 10 -16 -6 -28 -11 -8 -15 -14 -9 -14 20 0 53 35 62 65 13 47 -2 75 -41 74 -18 0 -42 -4 -53 -9z m67 -14 c23 -17 13 -26 -26 -25 -42 1 -77 15 -56 22 56 20 60 20 82 3z m-122 -16 c22 -11 59 -20 85 -20 25 0 45 -5 45 -11 0 -7 -16 -8 -47 -2 -60 10 -99 10 -141 1 -25 -6 -34 -4 -38 7 -18 46 31 58 96 25z"/>
 <path d="M675 1037 c-76 -35 -82 -167 -12 -259 25 -33 42 -44 82 -54 45 -12 54 -11 92 7 118 57 119 234 1 295 -40 21 -128 27 -163 11z m179 -44 c74 -52 85 -140 25 -208 -53 -60 -128 -67 -182 -16 -84 77 -91 218 -13 252 39 17 126 2 170 -28z"/>
 <path d="M1140 1022 c-50 -24 -73 -73 -66 -140 8 -90 62 -146 138 -144 46 1 47 12 1 12 -26 0 -50 8 -68 22 -33 25 -64 91 -65 133 0 39 33 93 66 105 37 15 111 12 143 -4 77 -41 89 -149 24 -219 -24 -25 -25 -28 -6 -18 40 21 63 60 63 111 0 114 -128 194 -230 142z"/>
 </g>
<g id="layer118" fill="#572717" stroke="none">
 <path d="M130 1983 c1 -37 22 -110 46 -158 30 -61 72 -86 188 -110 105 -23 321 -98 346 -120 11 -10 23 -16 26 -13 3 4 10 38 15 77 6 39 26 124 45 189 37 126 41 156 22 150 -21 -7 -88 -236 -87 -298 0 -30 0 -66 0 -80 -1 -24 -1 -24 -15 -4 -8 12 -44 43 -80 69 -37 26 -66 50 -66 52 0 2 16 18 36 35 39 34 37 40 -18 57 l-37 12 29 80 c21 58 25 79 15 79 -8 0 -24 -31 -38 -74 -27 -82 -26 -85 28 -106 l30 -11 -35 -29 -35 -29 60 -57 c33 -31 51 -53 40 -49 -80 32 -212 75 -275 90 -122 27 -148 42 -176 98 -14 27 -30 76 -36 108 -9 54 -28 82 -28 42z"/>
 <path d="M300 1956 c-7 -26 -28 -72 -47 -103 -41 -69 -37 -82 5 -17 33 49 66 136 60 156 -3 7 -10 -9 -18 -36z"/>
 <path d="M930 1977 c0 -13 7 -46 15 -73 14 -48 14 -49 -12 -70 l-26 -21 38 -41 c20 -23 43 -42 51 -42 17 0 84 58 84 73 0 6 -11 20 -25 32 -22 18 -24 24 -16 60 5 22 11 55 15 73 l6 32 -65 0 c-61 0 -65 -1 -65 -23z"/>
 <path d="M1170 1983 c0 -10 15 -71 34 -135 19 -65 39 -150 45 -189 5 -39 12 -73 15 -77 3 -3 15 3 26 13 25 22 241 97 346 120 116 24 158 49 188 110 36 72 58 175 37 175 -5 0 -14 -27 -19 -59 -6 -32 -22 -81 -36 -108 -28 -56 -54 -71 -176 -98 -41 -10 -124 -35 -184 -55 l-108 -39 58 55 58 54 -34 29 -35 29 30 12 c54 21 55 25 28 106 -14 43 -30 74 -38 74 -10 0 -6 -21 15 -79 l29 -80 -37 -12 c-55 -17 -57 -24 -18 -55 20 -16 36 -32 36 -35 0 -3 -29 -28 -66 -54 -36 -26 -72 -57 -80 -69 -14 -20 -14 -20 -15 4 0 14 0 50 0 80 1 62 -66 291 -86 298 -7 2 -13 -4 -13 -15z"/>
 <path d="M1681 1988 c-1 -28 35 -117 65 -159 36 -52 43 -43 9 10 -15 22 -38 69 -51 103 -12 35 -23 55 -23 46z"/>
 <path d="M1035 1380 c-11 -5 -50 -6 -87 -3 -61 5 -67 4 -78 -17 -10 -19 -9 -27 8 -49 27 -37 72 -60 123 -65 24 -2 35 -2 24 1 -48 10 -106 36 -102 47 6 16 142 15 159 -2 11 -11 10 -16 -6 -28 -11 -8 -15 -14 -9 -14 20 0 53 35 62 65 13 47 -2 75 -41 74 -18 0 -42 -4 -53 -9z m68 -14 c26 -20 21 -26 -25 -26 -48 0 -84 15 -58 24 8 2 22 7 30 9 24 9 34 7 53 -7z m-123 -16 c22 -11 59 -20 85 -20 25 0 45 -5 45 -11 0 -7 -16 -8 -47 -2 -60 10 -99 10 -141 1 -25 -6 -34 -4 -38 7 -18 46 31 58 96 25z"/>
 <path d="M684 1040 c-57 -18 -81 -81 -64 -166 17 -80 62 -134 125 -150 45 -12 54 -11 90 6 119 58 122 235 4 295 -35 19 -117 26 -155 15z m170 -47 c74 -52 85 -140 25 -208 -53 -60 -128 -67 -182 -16 -84 77 -91 218 -13 252 39 17 126 2 170 -28z"/>
 <path d="M1140 1022 c-50 -24 -73 -73 -66 -140 8 -90 62 -146 138 -144 46 1 47 12 1 12 -26 0 -50 8 -68 22 -33 25 -64 91 -65 133 0 39 33 93 66 105 37 15 111 12 143 -4 77 -41 89 -149 24 -219 -24 -25 -25 -28 -6 -18 40 21 63 60 63 111 0 61 -31 108 -90 138 -53 27 -93 28 -140 4z"/>
 </g>
<g id="layer119" fill="#322e2c" stroke="none">
 <path d="M130 1983 c1 -37 22 -110 46 -158 30 -61 72 -86 188 -110 105 -23 321 -98 346 -120 11 -10 23 -16 26 -13 3 4 10 39 15 80 6 40 26 124 45 187 33 111 43 165 26 146 -19 -22 -82 -273 -82 -327 0 -54 -12 -83 -23 -55 -3 8 -29 30 -59 51 l-53 37 40 -36 40 -36 -55 22 c-30 12 -109 37 -175 56 -254 74 -226 60 -262 132 -18 35 -36 85 -39 112 -6 46 -24 70 -24 32z"/>
 <path d="M583 1985 c-21 -40 -45 -126 -39 -140 3 -8 11 -15 18 -15 10 0 10 2 1 8 -9 6 -6 25 13 76 24 66 28 112 7 71z"/>
 <path d="M930 1977 c0 -13 7 -46 15 -73 14 -48 14 -49 -12 -70 l-26 -21 38 -41 c20 -23 43 -42 51 -42 17 0 84 58 84 73 0 6 -11 20 -25 32 -22 18 -24 24 -16 60 5 22 11 55 15 73 l6 32 -65 0 c-61 0 -65 -1 -65 -23z"/>
 <path d="M1170 1983 c0 -11 15 -72 34 -134 19 -63 39 -147 45 -187 5 -41 12 -76 15 -80 3 -3 15 3 26 13 25 22 241 97 346 120 116 24 158 49 188 110 36 71 58 175 37 175 -5 0 -11 -21 -15 -47 -8 -60 -58 -168 -84 -182 -11 -6 -58 -20 -104 -31 -89 -21 -200 -55 -288 -89 l-55 -22 40 36 40 36 -53 -37 c-30 -21 -56 -43 -59 -51 -11 -28 -23 1 -23 55 0 35 -14 107 -37 187 -35 128 -53 170 -53 128z"/>
 <path d="M1400 1991 c0 -6 11 -41 25 -78 18 -50 21 -69 12 -75 -9 -6 -9 -8 1 -8 23 0 24 29 2 95 -19 58 -40 92 -40 66z"/>
 <path d="M1710 1895 c0 -12 48 -85 56 -85 3 0 -3 12 -14 28 -10 15 -24 36 -30 47 -6 11 -12 15 -12 10z"/>
 <path d="M598 1817 l22 -13 -30 -22 c-36 -27 -38 -42 -7 -68 l22 -19 -19 23 c-19 22 -19 22 13 56 32 33 33 34 13 45 -12 6 -24 11 -29 11 -4 -1 2 -6 15 -13z"/>
 <path d="M1387 1819 c-18 -10 -17 -13 14 -45 32 -34 32 -34 13 -56 l-19 -23 23 19 c30 26 28 41 -8 68 l-30 22 22 13 c13 7 19 12 13 12 -5 0 -18 -4 -28 -10z"/>
 <path d="M1035 1380 c-11 -5 -50 -6 -87 -3 -61 5 -67 4 -78 -17 -10 -19 -9 -27 8 -49 27 -37 72 -60 123 -65 24 -2 35 -2 24 1 -48 10 -106 36 -102 47 6 16 142 15 159 -2 11 -11 10 -16 -6 -28 -11 -8 -15 -14 -9 -14 20 0 53 35 62 65 13 47 -2 75 -41 74 -18 0 -42 -4 -53 -9z m68 -14 c9 -7 17 -16 17 -20 0 -8 -81 -6 -105 3 -18 7 -17 9 10 19 40 14 57 14 78 -2z m-122 -16 c24 -11 64 -20 87 -20 31 0 42 -4 39 -12 -2 -7 -11 -11 -18 -8 -8 2 -57 5 -109 6 -95 2 -109 7 -96 39 8 21 46 19 97 -5z"/>
 <path d="M684 1040 c-57 -18 -81 -81 -64 -166 17 -80 62 -134 125 -150 45 -12 54 -11 90 6 119 58 122 235 4 295 -35 19 -117 26 -155 15z m170 -47 c74 -52 85 -140 25 -208 -53 -60 -128 -67 -182 -16 -84 77 -91 218 -13 252 39 17 126 2 170 -28z"/>
 <path d="M1140 1022 c-50 -24 -73 -73 -66 -140 8 -90 62 -146 138 -144 46 1 47 12 1 12 -26 0 -50 8 -68 22 -33 25 -64 91 -65 133 0 39 33 93 66 105 37 15 111 12 143 -4 77 -41 89 -149 24 -219 -24 -25 -25 -28 -6 -18 40 21 63 60 63 111 0 61 -31 108 -90 138 -53 27 -93 28 -140 4z"/>
 </g>
<g id="layer120" fill="#481b0c" stroke="none">
 <path d="M130 1983 c1 -37 22 -110 46 -158 30 -61 72 -86 188 -110 105 -23 321 -98 346 -120 11 -10 23 -16 26 -13 3 4 10 39 15 80 6 40 26 124 45 187 33 111 43 165 26 146 -19 -22 -82 -273 -82 -327 0 -54 -12 -83 -23 -55 -3 8 -29 30 -59 51 l-53 37 40 -36 40 -36 -55 22 c-30 12 -109 37 -175 56 -254 74 -226 60 -262 132 -18 35 -36 85 -39 112 -6 46 -24 70 -24 32z"/>
 <path d="M583 1985 c-21 -40 -45 -126 -39 -140 3 -8 11 -15 18 -15 10 0 10 2 1 8 -9 6 -6 25 13 76 24 66 28 112 7 71z"/>
 <path d="M930 1982 c0 -11 7 -41 15 -68 19 -64 19 -67 -10 -85 l-25 -15 44 -43 44 -44 31 22 c17 13 36 32 42 43 9 17 7 24 -15 42 l-26 21 14 73 14 72 -64 0 c-55 0 -64 -2 -64 -18z"/>
 <path d="M1170 1983 c0 -11 15 -72 34 -134 19 -63 39 -147 45 -187 5 -41 12 -76 15 -80 3 -3 15 3 26 13 25 22 241 97 346 120 116 24 158 49 188 110 36 71 58 175 37 175 -5 0 -11 -21 -15 -47 -8 -60 -58 -168 -84 -182 -11 -6 -58 -20 -104 -31 -89 -21 -200 -55 -288 -89 l-55 -22 40 36 40 36 -53 -37 c-30 -21 -56 -43 -59 -51 -11 -28 -23 1 -23 55 0 35 -14 107 -37 187 -35 128 -53 170 -53 128z"/>
 <path d="M1400 1991 c0 -6 11 -41 25 -78 18 -50 21 -69 12 -75 -9 -6 -9 -8 1 -8 23 0 24 29 2 95 -19 58 -40 92 -40 66z"/>
 <path d="M1710 1895 c0 -12 48 -85 56 -85 3 0 -3 12 -14 28 -10 15 -24 36 -30 47 -6 11 -12 15 -12 10z"/>
 <path d="M598 1817 l22 -13 -30 -22 c-36 -27 -38 -42 -7 -68 l22 -19 -19 23 c-19 22 -19 22 13 56 32 33 33 34 13 45 -12 6 -24 11 -29 11 -4 -1 2 -6 15 -13z"/>
 <path d="M1387 1819 c-18 -10 -17 -13 14 -45 32 -34 32 -34 13 -56 l-19 -23 23 19 c30 26 28 41 -8 68 l-30 22 22 13 c13 7 19 12 13 12 -5 0 -18 -4 -28 -10z"/>
 <path d="M1088 1374 c42 -22 41 -34 -5 -34 -51 0 -88 11 -73 20 7 4 -19 11 -56 15 -74 8 -97 -5 -87 -46 7 -26 60 -66 98 -74 24 -5 21 -2 -13 14 -24 11 -41 25 -37 31 10 15 138 12 160 -4 17 -12 18 -16 5 -32 -14 -16 -13 -16 7 -5 28 15 43 42 43 78 0 36 -16 53 -49 53 -25 0 -25 -1 7 -16z m-107 -24 c24 -11 64 -20 87 -20 31 0 42 -4 39 -12 -2 -7 -11 -11 -18 -8 -8 2 -57 5 -109 6 -95 2 -109 7 -96 39 8 21 46 19 97 -5z"/>
 <path d="M691 1037 c-40 -14 -67 -49 -75 -97 l-6 -35 15 40 c22 56 46 76 96 82 62 7 122 -12 160 -50 23 -22 29 -25 21 -10 -19 34 -66 62 -123 73 -28 6 -52 10 -53 9 0 0 -16 -5 -35 -12z"/>
 <path d="M1140 1020 c-36 -18 -69 -64 -57 -77 4 -3 7 1 7 9 0 9 14 28 31 42 25 22 41 26 92 27 44 0 56 3 42 9 -33 14 -78 10 -115 -10z"/>
 <path d="M1351 932 c16 -46 3 -96 -34 -139 -25 -28 -27 -34 -10 -25 40 22 63 62 63 111 0 26 -7 56 -15 67 -13 17 -14 16 -4 -14z"/>
 <path d="M1072 900 c0 -19 2 -27 5 -17 2 9 2 25 0 35 -3 9 -5 1 -5 -18z"/>
 <path d="M621 885 c-1 -25 41 -116 61 -133 8 -6 36 -18 62 -26 43 -13 49 -12 88 8 43 21 88 76 88 105 -1 9 -7 2 -14 -14 -7 -17 -28 -43 -45 -58 -84 -71 -188 -27 -227 96 -7 23 -13 33 -13 22z"/>
 <path d="M1080 852 c0 -29 52 -102 74 -102 6 0 -2 12 -18 26 -15 15 -34 41 -42 58 -7 17 -13 25 -14 18z"/>
 </g>
<g id="layer121" fill="#381103" stroke="none">
 <path d="M138 1981 c-4 -13 -2 -33 3 -43 6 -11 8 -22 6 -25 -3 -2 1 -16 8 -30 8 -15 12 -30 9 -35 -3 -4 0 -8 6 -8 6 0 9 -3 7 -7 -3 -5 4 -17 15 -28 16 -16 15 -11 -6 36 -14 30 -29 79 -34 109 -6 44 -9 50 -14 31z"/>
 <path d="M577 1956 c-23 -68 -21 -82 3 -21 11 28 19 54 17 60 -2 5 -11 -12 -20 -39z"/>
 <path d="M786 1868 c-22 -75 -40 -162 -42 -198 l-3 -65 9 65 c5 36 23 109 39 162 30 98 47 168 39 168 -2 0 -21 -60 -42 -132z"/>
 <path d="M930 1982 c0 -11 7 -41 15 -68 19 -64 19 -67 -10 -85 l-25 -15 44 -43 44 -44 31 22 c17 13 36 32 42 43 9 17 7 24 -15 42 l-26 21 14 73 14 72 -64 0 c-55 0 -64 -2 -64 -18z"/>
 <path d="M1176 1967 c3 -21 19 -82 35 -135 16 -53 34 -126 39 -162 l9 -65 -4 70 c-2 40 -20 122 -40 190 -41 138 -47 155 -39 102z"/>
 <path d="M1401 1995 c-1 -5 8 -32 19 -60 12 -27 18 -37 15 -21 -7 34 -33 96 -34 81z"/>
 <path d="M1851 1974 c-1 -46 -28 -127 -56 -169 -14 -20 -24 -40 -20 -43 3 -3 5 0 5 7 0 7 5 9 12 5 6 -4 8 -3 5 3 -4 5 2 19 13 30 10 12 16 24 13 27 -4 3 -1 6 6 6 7 0 10 4 7 8 -3 5 1 20 9 35 7 14 11 28 8 30 -2 3 0 14 6 25 7 13 8 29 2 44 -9 22 -10 21 -10 -8z"/>
 <path d="M594 1778 l-29 -33 33 29 c17 17 32 31 32 33 0 8 -8 1 -36 -29z"/>
 <path d="M1370 1807 c0 -2 15 -16 33 -33 l32 -29 -29 33 c-28 30 -36 37 -36 29z"/>
 <path d="M255 1750 c13 -12 38 -22 65 -24 25 -2 45 -5 45 -6 0 -1 16 -3 35 -5 l35 -3 -40 13 c-22 7 -50 14 -63 14 -12 1 -39 8 -60 16 l-37 16 20 -21z"/>
 <path d="M1725 1755 c-16 -8 -41 -15 -55 -15 -14 -1 -43 -8 -65 -15 l-40 -13 35 3 c19 2 35 4 35 5 0 1 20 4 45 6 27 2 52 12 64 24 23 23 22 23 -19 5z"/>
 <path d="M1515 1700 c-13 -5 -14 -9 -5 -9 8 0 24 4 35 9 13 5 14 9 5 9 -8 0 -24 -4 -35 -9z"/>
 <path d="M490 1689 c14 -7 27 -13 30 -14 3 -1 19 -7 35 -14 78 -31 116 -43 120 -39 6 6 -138 64 -180 72 -29 6 -30 6 -5 -5z"/>
 <path d="M1397 1658 c-42 -17 -75 -33 -72 -36 5 -5 123 36 141 50 6 4 14 5 17 1 4 -3 7 -1 7 5 0 16 -5 15 -93 -20z"/>
 <path d="M690 1624 c0 -6 9 -19 19 -28 15 -14 21 -15 27 -4 4 7 4 10 -1 6 -4 -4 -16 3 -26 15 -10 12 -18 17 -19 11z"/>
 <path d="M1284 1605 c-4 -8 -11 -12 -17 -8 -6 4 -7 1 -3 -6 6 -9 13 -8 27 5 22 20 23 24 9 24 -6 0 -13 -7 -16 -15z"/>
 <path d="M872 1363 c-20 -38 30 -94 94 -108 22 -5 19 -2 -14 14 -24 11 -41 25 -37 31 10 15 138 12 160 -4 17 -12 18 -16 5 -32 -14 -16 -13 -16 7 -5 30 15 43 42 42 83 -1 18 -3 25 -6 16 -3 -13 -15 -18 -41 -18 -48 0 -83 10 -76 21 3 5 -7 9 -23 9 l-27 0 24 -17 c13 -9 48 -19 77 -21 34 -3 52 -9 50 -16 -3 -6 -11 -9 -18 -6 -8 3 -57 5 -109 6 -94 0 -95 1 -95 25 0 20 6 25 35 30 l35 6 -37 2 c-26 1 -40 -4 -46 -16z"/>
 <path d="M691 1037 c-40 -14 -67 -49 -75 -97 l-6 -35 15 40 c22 56 46 76 96 82 62 7 122 -12 160 -50 23 -22 29 -25 21 -10 -19 34 -66 62 -123 73 -28 6 -52 10 -53 9 0 0 -16 -5 -35 -12z"/>
 <path d="M1140 1020 c-36 -18 -69 -64 -57 -77 4 -3 7 1 7 9 0 9 14 28 31 42 25 22 41 26 92 27 44 0 56 3 42 9 -33 14 -78 10 -115 -10z"/>
 <path d="M1351 932 c16 -46 3 -96 -34 -139 -25 -28 -27 -34 -10 -25 40 22 63 62 63 111 0 26 -7 56 -15 67 -13 17 -14 16 -4 -14z"/>
 <path d="M1072 900 c0 -19 2 -27 5 -17 2 9 2 25 0 35 -3 9 -5 1 -5 -18z"/>
 <path d="M621 885 c-1 -25 41 -116 61 -133 8 -6 36 -18 62 -26 43 -13 49 -12 88 8 43 21 88 76 88 105 -1 9 -7 2 -14 -14 -7 -17 -28 -43 -45 -58 -84 -71 -188 -27 -227 96 -7 23 -13 33 -13 22z"/>
 <path d="M1080 852 c0 -29 52 -102 74 -102 6 0 -2 12 -18 26 -15 15 -34 41 -42 58 -7 17 -13 25 -14 18z"/>
 </g>
<g id="layer122" fill="#0c0a0a" stroke="none">
 <path d="M930 1982 c0 -11 7 -41 15 -68 19 -64 19 -67 -10 -85 l-25 -15 44 -43 44 -44 31 22 c17 13 36 32 42 43 9 17 7 24 -15 42 l-26 21 14 73 14 72 -64 0 c-55 0 -64 -2 -64 -18z"/>
 <path d="M872 1363 c-20 -38 30 -94 94 -108 22 -5 19 -2 -14 14 -24 11 -41 25 -37 31 3 5 -1 10 -9 10 -8 0 -20 9 -26 19 -8 16 -6 23 12 35 18 13 19 16 6 16 -10 0 -21 -8 -26 -17z"/>
 <path d="M995 1349 c22 -10 57 -19 78 -19 27 0 37 -4 34 -12 -2 -7 -15 -12 -28 -10 -23 2 -23 2 -4 -12 17 -12 18 -16 5 -32 -14 -16 -13 -16 7 -5 26 13 43 41 43 69 0 15 -6 18 -30 14 -39 -6 -102 6 -95 19 4 5 -6 9 -22 8 -27 -1 -26 -1 12 -20z"/>
 <path d="M958 1313 c17 -2 47 -2 65 0 17 2 3 4 -33 4 -36 0 -50 -2 -32 -4z"/>
 <path d="M691 1037 c-40 -14 -67 -49 -75 -97 l-6 -35 15 40 c22 56 46 76 96 82 62 7 122 -12 160 -50 23 -22 29 -25 21 -10 -19 34 -66 62 -123 73 -28 6 -52 10 -53 9 0 0 -16 -5 -35 -12z"/>
 <path d="M1140 1020 c-36 -18 -69 -64 -57 -77 4 -3 7 1 7 9 0 9 14 28 31 42 25 22 41 26 92 27 44 0 56 3 42 9 -33 14 -78 10 -115 -10z"/>
 <path d="M1351 932 c16 -46 3 -96 -34 -139 -25 -28 -27 -34 -10 -25 40 22 63 62 63 111 0 26 -7 56 -15 67 -13 17 -14 16 -4 -14z"/>
 <path d="M1072 900 c0 -19 2 -27 5 -17 2 9 2 25 0 35 -3 9 -5 1 -5 -18z"/>
 <path d="M621 885 c-1 -25 41 -116 61 -133 8 -6 36 -18 62 -26 43 -13 49 -12 88 8 43 21 88 76 88 105 -1 9 -7 2 -14 -14 -7 -17 -28 -43 -45 -58 -84 -71 -188 -27 -227 96 -7 23 -13 33 -13 22z"/>
 <path d="M1080 852 c0 -29 52 -102 74 -102 6 0 -2 12 -18 26 -15 15 -34 41 -42 58 -7 17 -13 25 -14 18z"/>
 </g>

</svg>