<svg xmlns="http://www.w3.org/2000/svg" xmlns:xlink="http://www.w3.org/1999/xlink" width="149.603" height="37.734" viewBox="0 0 140.253 35.376"><defs><linearGradient id="a"><stop offset="0"/><stop offset="1" stop-opacity="0"/></linearGradient><linearGradient xlink:href="#a" id="b" x1="546.875" y1="751.794" x2="543.2" y2="722.866" gradientUnits="userSpaceOnUse" gradientTransform="translate(-473.661 -708.035)"/></defs><path d="M106.773 15.129c-.348.1-.83 1.044-1.144 2.299-.414 1.648-1.817 3.096-3.818 3.937-2.498 1.05-3.388 2.222-4.217 5.555-.998 4.011-1.37 4.342-7.397 6.596-2.325.869-6.008 1.696-10.215 2.396h60.553V24.598c-.605.543-1.695 1.205-2.99 1.746-1.925.804-3.5 1.935-3.5 2.513 0 1.672-3.18 1.22-5.436-.771-3.262-2.881-8.867-4.161-11.093-2.533-3.35 2.449-4.55 1.714-3.92-2.395.576-3.758-.29-4.798-6.682-8.02a.19.19 0 0 0-.14-.01z" fill="#c39565"/><path d="M31.264 12.697c-1.095.758-2.081 1.211-2.758 1.211-1.22 0-5.535.727-9.59 1.615-6.23 1.365-8.026 2.256-11.59 5.75-2.84 2.784-4.228 5.013-4.25 6.819-.022 1.786-.7 2.893-2.031 3.316-2.765.878-2.508 3.358.467 4.488 1.357.517 10.575.992 20.484 1.057 9.909.066 19.26.504 20.781.973 1.522.468 3.893.601 5.268.297 1.375-.305 4.975-.48 8-.391 10.437.308 27.581-1.86 34.152-4.316 6.027-2.254 6.4-2.585 7.397-6.596.829-3.333 1.72-4.505 4.217-5.555 2.001-.841 3.404-2.289 3.818-3.937.36-1.434.938-2.464 1.285-2.29 6.393 3.222 7.258 4.262 6.682 8.02-.63 4.11.57 4.844 3.92 2.395 2.226-1.628 7.83-.348 11.093 2.533 2.256 1.992 5.436 2.443 5.436.771 0-.578 1.575-1.709 3.5-2.513 1.925-.805 3.5-1.898 3.5-2.43 0-1.21-4.52-2.405-6.389-1.687-.765.293-4.478-.151-8.252-.989-5.33-1.183-7.54-2.244-9.908-4.761-1.062-1.13-4.722-2.867-7.01-3.332l-8.261.043c.162.16-.505.224-.455.376.208.636-.996 2.721-2.674 4.633-1.679 1.912-3.051 3.98-3.051 4.594 0 1.27-.06 1.268-5.5-.06-2.2-.538-6.475-.745-9.5-.463-11.407 1.062-34.535-2.035-37.525-5.026a5.17 5.17 0 0 1-.63-.742l-.001-.004a2.713 2.713 0 0 1-.2-.344c1.111-.786-3.445-2.603-2.12-2.917z" fill="#b38a57"/><path d="M32.355 12.697c-1.74 1.17-3.553 1.916-5.507 2.252-14.155 2.434-15.183 2.824-19.596 7.442-3.83 4.007-4.166 4.73-3.107 6.707.887 1.657.897 2.31.037 2.597-.633.211-.91.774-.616 1.25.295.477 2.511.02 4.926-1.015 3.567-1.53 4.49-1.627 4.914-.522.672 1.75 8.255 2.812 12.139 1.7 2.452-.703 3-1.393 3-3.78 0-2.458.365-2.88 2.316-2.67 1.795.194 2.2-.145 1.791-1.5-.789-2.62 1.595-5.063 4.934-5.056 5.035.01 23.457 4.125 23.49 5.246.017.583 1.203 1.915 2.637 2.96 2.283 1.665 3.034 1.748 6.04.66 2.989-1.08 3.688-1.01 5.4.54 1.713 1.55 1.769 1.89.429 2.64-.846.474-1.537 1.288-1.537 1.811 0 .523 1.125.95 2.5.95 1.555 0 2.5-.567 2.5-1.5 0-1.673 2.641-2.077 3.172-.485.215.644 1.798.485 4.332-.436 2.197-.798 5.216-1.71 6.709-2.025 2.121-.448 2.943-1.42 3.758-4.445.764-2.839 1.82-4.195 3.963-5.082 3.253-1.348 4.672-3.82 3.097-5.395-.568-.568-1.031-1.33-1.031-1.693 0-1.075 5.412.185 6.5 1.513.55.672 2.041 1.776 3.316 2.455 1.8.96 2.256 1.945 2.034 4.414-.218 2.421.063 3.065 1.181 2.704 3.034-.981 9.717-.236 12.143 1.353 2.292 1.502 2.844 1.512 6.21.106 4.494-1.878 3.926-3.377-1.251-3.305-6.41.088-14.877-2.906-17.907-6.332-1.147-1.298-5.246-3.012-7.916-3.906-1.574.472-5.586-1.343-6.585.714.208.636-.996 2.721-2.674 4.633-1.679 1.912-3.051 3.98-3.051 4.594 0 1.27-.06 1.268-5.5-.06-2.2-.538-6.475-.745-9.5-.463-11.407 1.062-34.535-2.035-37.525-5.026-1.985-5.256-3.766-4.545-3.475-1.834-.829 1.928-.862 1.921-.93-.191-.031-.98-.116-1.455.282-1.984zm-9.582 7.211c1.234 0 1.285.28.272 1.5-.685.825-1.626 1.5-2.092 1.5-.465 0-.588-.675-.271-1.5.316-.825 1.258-1.5 2.091-1.5zm27.772 5.895l3.5 2.01c4.193 2.409 7 2.648 7 .595 0-.825-.844-1.5-1.875-1.5-1.031 0-3.394-.248-5.25-.553zm37.482 1.336a1.91 1.91 0 0 1 1.065.3c.717.443.68 1.094-.121 2.059-1.511 1.82-2.926 1.805-2.926-.031 0-1.344.929-2.3 1.982-2.328zm-41.722 1.834c-2.65.06-2.67.098-.51.966 4.425 1.779 2.389 3.018-4.5 2.74-5.428-.218-6.75.02-6.75 1.216 0 1.036 1.642 1.723 5.434 2.27 2.989.43 5.667 1.012 5.949 1.294.282.282 1.135.273 1.896-.02.761-.292 3.596-.53 6.301-.53 5.799 0 6.954-2.396 1.637-3.393-1.805-.339-4.05-1.514-4.99-2.612-.98-1.144-2.885-1.968-4.467-1.931z" fill="#ad784b"/><path d="M33.703 12.697c-1.375 1.158-3.101 2.297-4.408 2.854-2.035.867-3.25 2.093-3.25 3.28 0 1.04-2.265 3.928-5.033 6.417-4.5 4.046-4.844 4.638-3.25 5.588.98.584 3.133.953 4.783.818 2.436-.199 2.943-.649 2.703-2.394-.2-1.45.677-2.843 2.691-4.278 1.643-1.17 3.277-3.039 3.631-4.156.355-1.117 1.731-2.444 3.059-2.949 1.364-.519 2.416-1.732 2.416-2.79 0-.693.195-.98.724-1.765zm7.453 5.782c1.968 1.215 15.285 4.394 18.485 4.412 1.703.009 4.136.917 5.404 2.017 1.877 1.628 3.718 1.996 9.902 1.977 4.179-.013 9.398-.453 11.598-.979 3.5-.836 4.174-.704 5.394 1.059 1.86 2.684 3.37 2.004 4.53-2.04.55-1.92 2.101-3.985 3.668-4.884 2.315-1.329 2.635-2.041 2.18-4.846-.2-1.227-.253-1.998-.122-2.498-1.6.123-.646.082-1.362.93.208.636-1.059 2.658-2.737 4.57-1.679 1.912-3.051 3.98-3.051 4.594 0 1.27-.06 1.268-5.5-.06-2.2-.538-6.475-.745-9.5-.463-11.407 1.062-34.535-2.035-37.525-5.026-4.67-6.522-2.783.105-1.364 1.237zm-24.111-.57c-1.992 0-2.602 1.065-1.334 2.333 1.218 1.218 3.334.689 3.334-.834 0-.833-.889-1.5-2-1.5zm-6.223 1.503l-2.888 3.461c-1.59 1.903-2.89 4.04-2.89 4.748 0 1.591 1.063 1.62 4.685.127 1.548-.638 3.378-1.067 4.066-.955 1.88.307 1.445-2.07-.895-4.883zm106.246.58c-.74-.055-1.023.572-1.023 1.951 0 1.769.28 1.886 2.135.893 1.706-.913 1.856-1.319.75-2.02-.808-.511-1.418-.79-1.862-.824zm11.858 3.916c-.55 0-.721.45-.381 1 .34.55 1.067 1 1.617 1s.723-.45.383-1c-.34-.55-1.07-1-1.62-1z" fill="#96612e"/><path d="M31.176 12.697c-1.615 1.057-3.094 1.654-4.278 1.68-4.254.093-17.207 2.752-17.207 3.533 0 .388-1.343 2.228-2.984 4.09-3.729 4.23-3.803 5.88-.266 5.9 2.143.012 2.42.231 1.25.987-1.225.791-1.107.972.643.984 1.179.008 2.402-.66 2.719-1.484.732-1.909 2.638-1.96 2.638-.07 0 .786 1.013 1.624 2.25 1.863 1.238.238 4.388.495 7 .57 4.437.127 4.75-.028 4.75-2.363 0-1.375-.45-2.5-1-2.5s-1 .45-1 1-.519 1-1.154 1c-.655 0-.372-.866.654-2 .996-1.1 2.604-2 3.573-2 1.011 0 2.189-1.171 2.765-2.75.633-1.733 1.035-2.103 1.084-1 .097 2.142 1.652 2.302 2.44.25.316-.825.14-1.5-.393-1.5s-.969-.755-.969-1.676c0-1.387.43-1.27 2.496.672 1.373 1.29 2.734 2.106 3.024 1.816.75-.75-.557-3.812-1.627-3.812-1.008 0-1.092-1.673-.533-3.19zm8.892 0c-.923 1.373-.56 2.862 1.077 4.498 1.973 1.973 14.316 4.652 22.42 4.866 5.111.134 5.597.255 2.126.53-6.442.512-8.241 1.512-4 2.223 2.473.415 3.424 1.06 3.239 2.194-.201 1.23.347 1.488 2.341 1.107 1.9-.363 2.241-.727 1.262-1.347-.81-.514 1.534-.859 5.908-.868 4.386-.009 7.25.4 7.25 1.032 0 .649-1.42.814-3.75.437-3.523-.57-3.632-.512-1.808.955 1.067.86 3.374 1.563 5.125 1.563 1.75 0 4.61.284 6.353.633 1.744.348 3.096.236 3.006-.25-.09-.487-.095-1.558-.013-2.383.12-1.208.347-1.159 1.167.25 1.43 2.453 3.391 2.177 3.573-.502.385-5.677 2.755-8.49 6.62-7.86.95.155 2.986-4.965 2.263-5.69-.287-.286-1.539.328-2.78 1.364-1.24 1.036-1.693 1.244-1.006.461.613-.698 1.103-2.062 1.207-3.213zm66.93 0c1.555.886 2.693 1.789 2.693 2.213 0 .537.665.977 1.477.977s2.223 1.136 3.133 2.525c1.55 2.366 1.542 2.65-.137 4.506-.986 1.09-1.435 2.315-.996 2.725.439.409.999.181 1.244-.506.246-.688 1.084-1.25 1.863-1.25.78 0 1.416-.424 1.416-.94s.9-.87 2-.787c1.1.083 2 .507 2 .94 0 .433.338.733.75.668 2.566-.405 4.648.443 6.809 2.775 2.527 2.727 4.737 2.608 2.463-.133-1.076-1.297-.874-1.542 1.357-1.648 1.443-.069 3.071-.238 3.621-.375.55-.138 1.788-.336 2.75-.44 1.426-.153 1.342-.352-.455-1.076-1.213-.488-3.198-.697-4.414-.463-1.215.234-5.275-.27-9.02-1.12-4.987-1.135-7.415-2.269-9.083-4.24-2.96-3.74-4.798-3.464-9.47-4.35zm-81.732 4.324c.267.019.425.123.425.333 0 .33-.727 1.712-1.615 3.068-1.743 2.66-4.79 3.072-9.635 1.303-2.946-1.076-3.722-2.838-1.25-2.838.825 0 1.5.401 1.5.892 0 1.844 3.053 1.97 4.745.198 1.44-1.51 4.669-3.036 5.83-2.956zm18.623 4.891c-.085.04.33.503 1.117 1.225 1.05.962 2.732 1.75 3.738 1.75 1.007 0 2.107.45 2.447 1 .34.55 1.941 1 3.559 1s2.941.45 2.941 1 .702 1 1.559 1 1.305-.413.994-.916c-.31-.503 0-1.102.692-1.332.69-.23-.207-.505-1.995-.61-6.026-.353-7.25-.568-7.25-1.277 0-.388-1.462-1.02-3.25-1.402-1.787-.383-3.72-.98-4.296-1.329-.144-.087-.228-.122-.256-.109zM17.75 24.887c.518 0 .941.45.941 1s-.7 1-1.558 1c-.858 0-1.282-.45-.942-1 .34-.55 1.041-1 1.559-1zm69.158 0c.853 0 1.787.9 2.074 2 .422 1.61.031 2-2.005 2-2.003 0-2.298-.28-1.416-1.342.612-.738.817-1.638.455-2-.362-.362.04-.658.892-.658zm-53.336.127a6.328 6.328 0 0 0-1.611.18c-.973.253-.42.477 1.23.497 1.65.02 2.447-.187 1.77-.46-.339-.138-.845-.21-1.389-.217zm11.56 1.925c-.86-.088-1.44.217-1.44.948 0 .55.926 1 2.058 1 1.132 0 1.798.424 1.477.943-.325.525 1.535 1.112 4.191 1.32 2.626.207 5.362.456 6.082.555.72.1 1.031-.268.691-.818-.34-.55-2.278-1.016-4.308-1.033-2.03-.018-4.565-.693-5.633-1.5-1.117-.845-2.257-1.326-3.117-1.415zM3.956 30.473c-.743-.05-.858.306-.52 1.187.457 1.19.094 1.417-1.576.98-1.193-.311-1.917-.16-1.609.339.8 1.295 2.768 1.12 4.898-.438 1.765-1.29 1.756-1.366-.234-1.887a5.459 5.459 0 0 0-.959-.181zm80.13.9c-1.351.034-3.394.858-3.394 1.629 0 1.137 3.714 1.156 4.414.023.293-.473.294-1.098.002-1.39-.196-.196-.57-.273-1.021-.262zm-68.733.174c-1.353-.025-2.311.07-2.032.342.48.464 2.221 1.007 3.871 1.207 2.746.332 5.088-.033 4.317-.672-.551-.457-3.902-.835-6.156-.877zm60.78.34c-1.502 0-2.44.576-2.44 1.5 0 1.653.443 1.754 3.74.87 2.826-.757 1.941-2.37-1.3-2.37zm-39.759.105c-2.197.015-2.682.375-2.682 1.203 0 .85.788 1.717 1.75 1.928 3.915.86 24.25.79 24.25-.082 0-1.05-4.54-1.767-17.25-2.728-2.816-.214-4.75-.33-6.068-.32zm-13.8 3.022a6.328 6.328 0 0 0-1.612.18c-.973.253-.42.477 1.23.497 1.65.02 2.447-.187 1.77-.46-.339-.138-.845-.21-1.389-.217z" fill="url(#b)"/></svg>