<?xml version="1.0" encoding="UTF-8" standalone="no"?>
<svg
   xmlns:dc="http://purl.org/dc/elements/1.1/"
   xmlns:cc="http://creativecommons.org/ns#"
   xmlns:rdf="http://www.w3.org/1999/02/22-rdf-syntax-ns#"
   xmlns:svg="http://www.w3.org/2000/svg"
   xmlns="http://www.w3.org/2000/svg"
   xmlns:xlink="http://www.w3.org/1999/xlink"
   version="1.1"
   viewBox="0 0 495.11 688.19"
   id="svg2">
  <defs
     id="defs3">
    <linearGradient
       y2="546.82"
       y1="518.09"
       gradientTransform="matrix(.70436 0 0 1.4197 -41.714 -212.57)"
       x2="262.01"
       gradientUnits="userSpaceOnUse"
       x1="229.42"
       id="linearGradient2104">
      <stop
         offset="0"
         style="stop-color:#7e3600"
         id="stop2070" />
      <stop
         offset="1"
         style="stop-color:#d55e12"
         id="stop2072" />
    </linearGradient>
    <linearGradient
       y2="335.73"
       y1="162.67"
       gradientTransform="matrix(1.0822 .049362 .14739 .75315 -46.056 55.266)"
       x2="221.62"
       gradientUnits="userSpaceOnUse"
       xlink:href="#linearGradient2104"
       x1="300.63"
       id="linearGradient2870">
      <stop
         offset="0"
         style="stop-color:#cf8e63"
         id="stop2874" />
      <stop
         offset=".12848"
         style="stop-color:#bd7442"
         id="stop5069" />
      <stop
         offset=".24285"
         style="stop-color:#c97e4b"
         id="stop5071" />
      <stop
         offset=".47937"
         style="stop-color:#b2622c"
         id="stop5073" />
      <stop
         offset="1"
         style="stop-color:#823906"
         id="stop2876" />
    </linearGradient>
    <linearGradient
       y2="213.31"
       y1="121.23"
       gradientTransform="matrix(.72371 .033010 .21385 1.0927 -41.165 57.343)"
       x2="360.14"
       gradientUnits="userSpaceOnUse"
       x1="427.06"
       id="linearGradient2898">
      <stop
         offset="0"
         style="stop-color:#994306"
         id="stop5041" />
      <stop
         offset="1"
         style="stop-color:#73330a"
         id="stop5043" />
    </linearGradient>
    <filter
       x="-.034569"
       y="-0.0535"
       width="1.0691"
       height="1.107"
       style="color-interpolation-filters:sRGB"
       id="filter5249">
      <feGaussianBlur
         stdDeviation="7.1225942"
         id="feGaussianBlur5251" />
    </filter>
    <linearGradient
       x1="229.42"
       y1="518.09"
       gradientTransform="matrix(.70436 0 0 1.4197 -3.1426 -229.71)"
       x2="262.01"
       gradientUnits="userSpaceOnUse"
       xlink:href="#linearGradient2104"
       y2="546.82"
       id="linearGradient5342" />
  </defs>
  <g
     transform="translate(-42.207 -122.16)"
     id="layer1">
    <g
       id="mallet">
      <g
         id="shaft">
        <path
           id="path2058"
           style="fill-rule:evenodd;stroke:#000000;stroke-width:4;fill:url(#linearGradient5342)"
           d="m252.82 307.41s-156.3 384.26-176.52 408.36c-34.95 41.65-31.784 65.62-31.784 65.62-3.573 23.94 24.282 35.02 32.138 20.39 0 0 195.38-438.69 203.1-465.18s12.74-23.29 12.74-23.29l-39.67-5.9z" />
        <path
           id="path2058-5"
           style="opacity:0.46;fill-rule:evenodd;stroke:#000000;stroke-width:4;fill:#000000"
           d="m277.78 311.12c-2.2154 1.8861-5.7382 7.3142-10.148 22.447-7.72 26.49-203.1 465.18-203.1 465.18-2.1137 3.9362-5.6801 5.9966-9.6875 6.4609 7.7618 4.8583 17.623 4.3651 21.809-3.4297 0 0 195.38-438.69 203.1-465.18 6.0457-20.745 10.423-23.27 12.043-23.395l-14.016-2.084zm14.016 2.084 0.69727 0.10352s-0.2487-0.13799-0.69727-0.10352z" />
      </g>
      <g
         transform="matrix(0.8,0,0,0.8,45,63)"
         id="head">
        <g
           transform="translate(33,-21)"
           id="g5355">
          <path
             d="m 33,160 c -22,40 -21,90 2,110 1,10 4,10 8,10 1,0 3,0 5,0 3,0 5,0 8,0 44,10 134,40 184,60 40,10 120,40 180,80 40,30 140,-200 90,-190 C 510,230 200,93 90,97 63,98 44,130 33,160 Z"
             style="fill:url(#linearGradient2870);fill-rule:evenodd;stroke:black;stroke-width:4.97"
             id="path2052" />
          <path
             transform="matrix(1,0.05,0.16,0.81,-46,56)"
             style="opacity:0.48;fill:#df864b;fill-rule:evenodd;filter:url(#filter5249)"
             d="m 95,120 c -38,70 -73,160 -51,160 42,0 136,30 196,50 30,20 100,50 150,100 30,40 180,-250 130,-250 -20,10 -70,-10 -120,-30 -30,60 -70,110 -80,90 C 270,190 200,160 160,140 140,130 120,120 95,120 Z"
             id="path2052-0" />
          <path
             d="M 490,230 C 470,290 410,390 390,370 330,330 260,290 210,280 170,260 69,230 19,220 c -9,30 11,60 24,60 42,0 147,30 197,60 40,10 120,40 180,80 40,30 140,-200 90,-190 -10,0 -10,0 -20,0 z"
             style="opacity:0.44;fill:#f68b41;fill-rule:evenodd"
             id="path2052-2" />
          <path
             d="m 230,330 30,10 c -20,-20 10,-150 70,-180 -10,-10 -40,10 -40,0 -10,-10 -90,120 -60,170 z"
             style="opacity:0.5;fill:#0d0b06;fill-rule:evenodd;stroke:black;stroke-width:3.5"
             id="path1291-7" />
          <path
             d="m 220,330 c 10,0 20,10 40,10 -20,-20 0,-150 70,-180 -10,-10 -30,-10 -40,-20 -30,-10 -100,110 -70,190 z"
             style="fill:url(#linearGradient2898);fill-rule:evenodd;stroke:black;stroke-width:3.54"
             id="path1291" />
          <path
             style="fill:#cc895c;stroke:black;stroke-width:4.97;stroke-linecap:round"
             d="m 520,350 c -30,50 -70,90 -100,80 -40,-20 -40,-70 -20,-130 30,-60 80,-90 120,-70 20,10 20,60 0,120 z"
             id="path5260-7" />
          <ellipse
             cx="550"
             cy="110"
             ry="110"
             transform="matrix(0.92,0.4,-0.4,0.92,0,0)"
             rx="57"
             style="fill:#cf8e63"
             id="path5260-7-0" />
          <ellipse
             cx="550"
             cy="130"
             ry="93"
             transform="matrix(0.92,0.39,-0.41,0.91,0,0)"
             rx="51"
             style="fill:#c77c4a"
             id="path5260-7-0-8" />
          <ellipse
             cx="550"
             cy="130"
             ry="68"
             transform="matrix(0.92,0.39,-0.41,0.91,0,0)"
             rx="38"
             style="fill:#b06736"
             id="path5260-7-0-8-9" />
        </g>
      </g>
    </g>
  </g>
  <metadata
     id="metadata35">
    <rdf:RDF>
      <cc:Work>
        <dc:format>image/svg+xml</dc:format>
        <dc:type
           rdf:resource="http://purl.org/dc/dcmitype/StillImage" />
        <cc:license
           rdf:resource="http://creativecommons.org/licenses/publicdomain/" />
        <dc:publisher>
          <cc:Agent
             rdf:about="http://openclipart.org/">
            <dc:title>Openclipart</dc:title>
          </cc:Agent>
        </dc:publisher>
        <dc:title></dc:title>
      </cc:Work>
      <cc:License
         rdf:about="http://creativecommons.org/licenses/publicdomain/">
        <cc:permits
           rdf:resource="http://creativecommons.org/ns#Reproduction" />
        <cc:permits
           rdf:resource="http://creativecommons.org/ns#Distribution" />
        <cc:permits
           rdf:resource="http://creativecommons.org/ns#DerivativeWorks" />
      </cc:License>
    </rdf:RDF>
  </metadata>
</svg>
