<!DOCTYPE svg PUBLIC "-//W3C//DTD SVG 20010904//EN" "http://www.w3.org/TR/2001/REC-SVG-20010904/DTD/svg10.dtd">
<svg version="1.0" xmlns="http://www.w3.org/2000/svg" width="227px" height="138px" viewBox="0 0 2270 1380" preserveAspectRatio="xMidYMid meet">
<g id="layer101" fill="#ec161d" stroke="none">
 <path d="M859 1198 c-1 -7 0 -21 0 -31 1 -9 -7 -29 -18 -43 -20 -26 -28 -54 -15 -54 3 0 15 11 26 25 11 14 30 25 43 25 27 0 58 26 52 44 -2 6 -11 10 -19 8 -8 -1 -23 7 -33 18 -21 23 -34 26 -36 8z"/>
 <path d="M1134 1185 c-9 -14 -23 -24 -30 -21 -21 8 -28 -14 -10 -33 9 -10 16 -23 16 -30 0 -9 3 -9 13 1 8 7 12 20 9 30 -3 15 2 18 27 18 29 0 32 3 29 27 -4 37 -32 41 -54 8z"/>
 <path d="M1286 1201 c-7 -10 25 -71 37 -71 4 0 7 13 7 28 0 38 -30 67 -44 43z"/>
 <path d="M1226 1181 c-3 -4 0 -22 7 -40 11 -30 10 -33 -18 -56 -34 -27 -24 -37 35 -32 45 3 48 21 15 86 -26 53 -30 57 -39 42z"/>
 <path d="M1052 1063 c-9 -17 -20 -21 -47 -20 -19 2 -40 8 -47 15 -7 7 -16 12 -20 12 -14 0 -9 -27 7 -40 12 -10 13 -16 3 -27 -28 -34 -9 -113 27 -113 20 0 19 -24 0 -40 -13 -11 -20 -9 -39 9 -14 13 -29 19 -39 15 -10 -3 -17 -8 -17 -9 0 -8 112 -115 121 -115 5 0 7 11 3 25 -4 16 -2 25 6 25 6 0 9 4 6 9 -13 20 27 20 45 0 24 -28 24 -40 -1 -46 -11 -3 -20 -7 -20 -10 0 -17 49 -68 77 -79 39 -17 49 -34 34 -62 -8 -15 -4 -26 20 -55 33 -40 33 -82 1 -73 -77 21 -101 15 -64 -16 19 -17 129 -58 155 -58 11 0 17 -8 17 -21 0 -24 16 -39 71 -69 73 -38 137 -1 125 74 -9 53 -42 128 -89 204 -38 62 -39 65 -33 128 4 35 3 64 -2 64 -14 0 -32 -23 -32 -42 0 -22 -23 -24 -40 -3 -10 13 -10 19 4 33 21 24 20 32 -4 32 -13 0 -22 9 -26 28 -4 15 -12 34 -19 42 -25 30 -46 82 -40 98 9 24 31 -3 55 -68 14 -41 19 -48 20 -28 0 15 -4 29 -9 32 -4 3 -11 18 -14 34 -8 42 -66 71 -108 55 -35 -13 -49 -10 -49 13 0 8 -4 14 -9 14 -5 0 -11 12 -13 28 -3 27 -3 27 -16 5z m63 -104 c10 -15 -1 -23 -20 -15 -9 3 -13 10 -10 16 8 13 22 13 30 -1z m-65 -19 c0 -5 -7 -10 -15 -10 -8 0 -15 5 -15 10 0 6 7 10 15 10 8 0 15 -4 15 -10z m258 -387 c-4 -22 -22 -20 -26 1 -2 10 3 16 13 16 10 0 15 -7 13 -17z m46 -68 c7 -18 -35 -38 -59 -29 -21 9 -19 24 4 24 11 0 23 5 26 10 9 15 22 12 29 -5z m-9 -71 c9 -9 14 -19 11 -21 -8 -9 -44 7 -50 22 -7 20 18 19 39 -1z m75 -20 c0 -17 -22 -14 -28 4 -2 7 3 12 12 12 9 0 16 -7 16 -16z"/>
 <path d="M1085 610 c-8 -13 15 -24 27 -12 6 6 4 11 -6 15 -8 3 -18 2 -21 -3z"/>
 <path d="M806 447 c-18 -13 -18 -14 -2 -20 22 -9 36 -1 36 19 0 18 -11 18 -34 1z"/>
 <path d="M1207 335 c-8 -19 13 -31 24 -14 13 20 11 29 -5 29 -8 0 -16 -7 -19 -15z"/>
 <path d="M1110 300 c-12 -8 -11 -10 8 -11 12 -1 27 -2 34 -3 6 -1 13 5 16 12 4 14 -36 16 -58 2z"/>
 <path d="M761 201 c-8 -5 -10 -14 -7 -20 8 -13 46 -15 46 -2 0 16 -25 30 -39 22z"/>
 </g>
<g id="layer102" fill="#ed585b" stroke="none">
 <path d="M1187 993 c-4 -3 -7 -13 -7 -22 1 -13 3 -12 12 3 10 19 12 18 36 -10 13 -16 21 -22 17 -14 -11 21 -37 50 -45 50 -4 0 -10 -3 -13 -7z"/>
 <path d="M1190 938 c0 -9 7 -22 17 -29 15 -13 15 -12 3 11 -17 34 -20 36 -20 18z"/>
 <path d="M1256 893 c9 -38 14 -42 14 -10 0 14 -5 29 -10 32 -7 4 -8 -3 -4 -22z"/>
 <path d="M1220 884 c0 -5 7 -18 15 -28 12 -16 15 -17 15 -4 0 8 -7 21 -15 28 -8 7 -15 9 -15 4z"/>
 <path d="M917 860 c10 -11 22 -20 27 -20 5 0 1 9 -9 20 -10 11 -22 20 -26 20 -5 0 -1 -9 8 -20z"/>
 <path d="M1054 835 c-3 -8 1 -22 10 -30 21 -22 20 -36 -4 -42 -22 -6 -26 -18 -8 -29 7 -4 8 -3 4 4 -5 8 0 12 13 12 23 0 26 15 15 69 -7 33 -21 41 -30 16z"/>
 <path d="M987 786 c-17 -25 -13 -36 10 -36 10 0 12 6 8 21 -5 14 -2 25 6 30 9 5 9 9 3 9 -7 0 -19 -11 -27 -24z"/>
 <path d="M1276 783 c-14 -20 -16 -27 -6 -36 10 -9 11 -9 5 1 -4 8 1 22 11 33 9 10 15 21 13 23 -2 2 -12 -7 -23 -21z"/>
 <path d="M1235 660 c-8 -14 3 -30 21 -30 8 0 14 8 13 18 0 10 -3 12 -6 5 -2 -7 -9 -13 -15 -13 -6 0 -8 7 -4 15 6 17 0 20 -9 5z"/>
 <path d="M1085 610 c-8 -13 15 -24 27 -12 6 6 4 11 -6 15 -8 3 -18 2 -21 -3z"/>
 <path d="M1271 560 c-1 -25 20 -42 36 -29 7 7 13 16 13 22 0 6 -6 2 -14 -9 -14 -18 -15 -18 -25 6 -5 14 -10 18 -10 10z"/>
 <path d="M1197 503 c-3 -3 -3 -11 0 -19 7 -18 33 -18 33 0 0 14 -24 29 -33 19z"/>
 <path d="M1317 504 c-14 -15 -6 -26 9 -13 13 10 17 10 26 -2 8 -12 9 -12 5 1 -4 16 -29 25 -40 14z"/>
 <path d="M1270 475 c0 -8 10 -19 23 -25 21 -11 22 -11 2 5 -17 14 -18 17 -5 25 13 8 12 10 -2 10 -10 0 -18 -7 -18 -15z"/>
 <path d="M1354 406 c5 -15 2 -17 -14 -13 -11 3 -18 1 -14 -4 7 -12 31 -11 40 2 3 6 1 16 -6 22 -10 9 -12 8 -6 -7z"/>
 <path d="M1420 391 c0 -8 -6 -11 -16 -7 -14 5 -15 4 -4 -9 7 -8 17 -12 23 -8 5 3 7 1 3 -5 -3 -6 -2 -13 3 -16 18 -11 22 14 7 36 -9 12 -16 16 -16 9z"/>
 </g>
<g id="layer103" fill="#f29697" stroke="none">
 <path d="M1050 829 c0 -6 7 -17 15 -26 10 -9 13 -23 9 -37 -5 -16 -4 -18 6 -9 9 9 10 19 0 47 -11 34 -30 50 -30 25z"/>
 <path d="M990 773 c0 -13 5 -23 10 -23 13 0 13 11 0 30 -8 12 -10 11 -10 -7z"/>
 <path d="M1200 490 c0 -5 7 -10 15 -10 8 0 15 5 15 10 0 6 -7 10 -15 10 -8 0 -15 -4 -15 -10z"/>
 <path d="M1416 381 c-4 -6 -2 -11 4 -11 6 0 8 -4 5 -10 -3 -5 -1 -10 4 -10 13 0 14 10 2 29 -6 9 -11 10 -15 2z"/>
 </g>
<g id="layer104" fill="#f0d4d5" stroke="none">
 <path d="M1056 832 c-4 -7 0 -19 8 -28 17 -17 19 -11 7 20 -5 14 -10 16 -15 8z"/>
 </g>

</svg>