<!DOCTYPE svg PUBLIC "-//W3C//DTD SVG 20010904//EN" "http://www.w3.org/TR/2001/REC-SVG-20010904/DTD/svg10.dtd">
<svg version="1.0" xmlns="http://www.w3.org/2000/svg" width="180px" height="179px" viewBox="0 0 1800 1790" preserveAspectRatio="xMidYMid meet">
<g id="layer101" fill="#dc1022" stroke="none">
 <path d="M630 1336 c0 -15 43 -75 51 -70 12 7 -20 65 -39 72 -6 2 -12 1 -12 -2z"/>
 <path d="M738 1164 c-4 -40 0 -66 10 -84 11 -19 13 -40 8 -82 -7 -57 -8 -57 -37 -51 -22 4 -30 1 -35 -13 -22 -66 -28 -73 -56 -67 -23 5 -29 1 -38 -21 -11 -31 -21 -33 -45 -6 -27 30 -52 25 -60 -10 -8 -35 4 -138 16 -146 5 -3 9 -15 9 -28 0 -12 11 -33 25 -46 14 -13 25 -28 25 -33 0 -6 8 -28 17 -49 12 -28 23 -38 39 -38 12 0 24 -6 27 -12 5 -18 57 10 57 31 0 8 9 24 19 35 11 12 21 35 23 51 1 17 7 33 13 37 5 4 10 29 10 55 0 43 2 48 23 47 17 0 22 5 22 23 0 13 5 23 12 23 19 0 68 -52 68 -72 0 -22 13 -23 30 -3 7 8 29 15 49 15 33 0 39 4 54 36 10 19 15 39 12 44 -12 19 19 21 38 2 l20 -21 19 24 c10 13 18 28 18 34 0 6 6 11 14 11 10 0 16 14 18 43 3 36 7 44 37 59 77 39 116 107 66 116 -11 2 -28 11 -38 20 -16 14 -21 13 -58 -24 -45 -44 -61 -41 -88 14 -17 33 -31 42 -31 18 0 -8 -5 -18 -11 -21 -12 -8 -49 23 -49 42 0 7 -9 13 -20 13 -13 0 -20 7 -20 18 0 28 -37 57 -73 58 -18 0 -55 4 -83 8 l-51 8 -5 -58z"/>
 <path d="M697 1014 c-8 -9 11 -44 24 -44 6 0 9 10 7 22 -3 22 -19 34 -31 22z"/>
 <path d="M1320 901 c0 -10 7 -24 15 -31 12 -10 15 -10 15 3 0 23 -11 47 -21 47 -5 0 -9 -8 -9 -19z"/>
 <path d="M830 637 c0 -18 28 -42 37 -33 9 8 -9 38 -25 44 -7 2 -12 -3 -12 -11z"/>
 <path d="M890 520 c0 -19 3 -21 12 -12 9 9 9 15 0 24 -9 9 -12 7 -12 -12z"/>
 </g>
<g id="layer102" fill="#a8494e" stroke="none">
 <path d="M630 1336 c0 -15 43 -75 51 -70 12 7 -20 65 -39 72 -6 2 -12 1 -12 -2z"/>
 <path d="M740 1180 c0 -22 2 -40 4 -40 2 0 6 18 8 40 2 22 0 40 -4 40 -5 0 -8 -18 -8 -40z"/>
 <path d="M1170 1065 c-41 -42 -52 -43 -80 -7 -18 22 -20 23 -8 3 28 -48 43 -48 92 -3 25 23 42 42 38 42 -5 0 -23 -16 -42 -35z"/>
 <path d="M696 1012 c-6 -10 19 -50 27 -42 2 3 -2 16 -9 28 -6 13 -14 20 -18 14z"/>
 <path d="M751 968 c-1 -25 -4 -27 -31 -22 -23 5 -31 2 -36 -12 -22 -66 -28 -73 -55 -67 -15 3 -29 0 -33 -5 -4 -6 2 -8 15 -5 12 3 25 0 29 -7 10 -17 30 -4 30 20 0 10 5 22 10 25 6 3 10 15 10 27 0 18 4 20 30 14 33 -6 46 8 37 41 -3 12 -5 9 -6 -9z"/>
 <path d="M1208 969 c-20 -10 -39 -23 -42 -28 -7 -10 63 24 78 39 13 13 9 12 -36 -11z"/>
 <path d="M1153 885 c0 -22 2 -30 4 -17 2 12 2 30 0 40 -3 9 -5 -1 -4 -23z"/>
 <path d="M800 765 c0 -8 -6 -15 -14 -15 -8 0 -17 -3 -19 -7 -3 -5 6 -8 19 -8 18 0 24 5 24 23 0 12 -2 22 -5 22 -3 0 -5 -7 -5 -15z"/>
 <path d="M830 637 c0 -18 28 -42 37 -33 9 8 -9 38 -25 44 -7 2 -12 -3 -12 -11z"/>
 <path d="M568 565 c-3 -3 2 -21 10 -40 13 -27 22 -35 42 -34 24 2 24 2 2 6 -21 4 -48 45 -44 66 2 8 -2 9 -10 2z"/>
 <path d="M890 520 c0 -19 3 -21 12 -12 9 9 9 15 0 24 -9 9 -12 7 -12 -12z"/>
 </g>
<g id="layer103" fill="#eb6c64" stroke="none">
 <path d="M632 1328 c2 -6 12 -12 22 -14 14 -2 15 0 5 12 -14 17 -32 19 -27 2z"/>
 <path d="M740 1180 c0 -22 2 -40 4 -40 2 0 6 18 8 40 2 22 0 40 -4 40 -5 0 -8 -18 -8 -40z"/>
 <path d="M1170 1065 c-41 -42 -52 -43 -80 -7 -18 22 -20 23 -8 3 28 -48 43 -48 92 -3 25 23 42 42 38 42 -5 0 -23 -16 -42 -35z"/>
 <path d="M751 968 c-1 -25 -4 -27 -31 -22 -23 5 -31 2 -36 -12 -3 -11 -13 -34 -21 -52 -8 -19 -12 -36 -9 -39 3 -3 8 3 11 13 4 10 11 27 16 36 5 10 9 25 9 34 0 13 6 15 30 10 33 -6 46 8 37 41 -3 12 -5 9 -6 -9z"/>
 <path d="M1208 969 c-20 -10 -39 -23 -42 -28 -7 -10 63 24 78 39 13 13 9 12 -36 -11z"/>
 <path d="M1153 885 c0 -22 2 -30 4 -17 2 12 2 30 0 40 -3 9 -5 -1 -4 -23z"/>
 <path d="M800 765 c0 -8 -6 -15 -14 -15 -8 0 -17 -3 -19 -7 -3 -5 6 -8 19 -8 18 0 24 5 24 23 0 12 -2 22 -5 22 -3 0 -5 -7 -5 -15z"/>
 <path d="M840 643 c5 -2 10 -9 10 -14 0 -6 -6 -7 -12 -3 -7 4 -5 -1 4 -11 10 -11 21 -15 25 -11 9 9 -9 39 -25 42 -7 1 -8 0 -2 -3z"/>
 <path d="M568 565 c-3 -3 2 -21 10 -40 13 -27 22 -35 42 -34 24 2 24 2 2 6 -21 4 -48 45 -44 66 2 8 -2 9 -10 2z"/>
 </g>
<g id="layer104" fill="#e28b8d" stroke="none">
 <path d="M840 643 c5 -2 10 -9 10 -14 0 -6 -6 -7 -12 -3 -7 4 -5 -1 4 -11 10 -11 21 -15 25 -11 9 9 -9 39 -25 42 -7 1 -8 0 -2 -3z"/>
 </g>

</svg>