<!DOCTYPE svg PUBLIC "-//W3C//DTD SVG 20010904//EN" "http://www.w3.org/TR/2001/REC-SVG-20010904/DTD/svg10.dtd">
<svg version="1.0" xmlns="http://www.w3.org/2000/svg" width="120px" height="127px" viewBox="0 0 1200 1270" preserveAspectRatio="xMidYMid meet">
<g id="layer101" fill="#b00908" stroke="none">
 <path d="M470 967 c0 -27 13 -36 26 -16 3 6 -1 18 -10 27 -15 15 -16 14 -16 -11z"/>
 <path d="M603 910 c-12 -28 -6 -47 9 -32 5 5 8 20 6 33 l-5 24 -10 -25z"/>
 <path d="M791 896 c-8 -9 -11 -19 -7 -23 9 -9 29 13 24 27 -2 8 -8 7 -17 -4z"/>
 <path d="M742 850 c-18 -29 -15 -36 8 -15 20 18 26 35 12 35 -4 0 -13 -9 -20 -20z"/>
 <path d="M403 845 c-17 -19 -16 -25 2 -25 8 0 15 9 15 20 0 23 -1 24 -17 5z"/>
 <path d="M857 788 c-4 -12 -4 -24 -1 -27 6 -7 24 20 24 37 0 21 -17 13 -23 -10z"/>
 <path d="M526 764 c-4 -10 -1 -14 6 -12 15 5 23 28 10 28 -5 0 -13 -7 -16 -16z"/>
 <path d="M720 762 c0 -5 -11 -15 -25 -22 -30 -16 -32 -26 -6 -33 21 -5 59 47 41 58 -5 3 -10 2 -10 -3z"/>
 <path d="M180 730 c0 -11 5 -20 10 -20 6 0 10 9 10 20 0 11 -4 20 -10 20 -5 0 -10 -9 -10 -20z"/>
 <path d="M324 715 c-7 -18 3 -35 21 -35 18 0 26 25 12 39 -15 15 -27 14 -33 -4z"/>
 <path d="M594 693 c-22 -4 -52 -48 -41 -60 4 -3 15 1 25 10 10 10 23 17 29 17 6 0 14 7 17 16 8 20 8 24 -1 23 -5 -1 -17 -4 -29 -6z"/>
 <path d="M468 617 c-10 -23 -18 -46 -18 -50 0 -19 -57 -62 -82 -63 -26 -2 -27 1 -30 50 -2 30 -7 49 -13 46 -5 -3 -9 -13 -8 -22 2 -10 -2 -18 -7 -18 -5 0 -7 -13 -3 -30 4 -23 2 -30 -11 -30 -9 0 -16 -4 -16 -10 0 -5 -7 -7 -15 -4 -11 5 -15 -2 -15 -26 0 -24 4 -31 14 -27 9 4 18 -5 26 -23 8 -20 17 -26 31 -23 21 6 25 18 9 28 -15 9 -12 25 4 25 16 0 31 -53 21 -70 -13 -21 5 -9 38 25 19 19 37 32 40 29 3 -4 12 5 18 19 7 15 16 24 21 21 18 -11 63 7 74 31 11 23 10 24 -7 14 -10 -5 -19 -7 -19 -3 0 3 -6 1 -13 -5 -22 -17 -28 -1 -10 26 9 14 22 22 30 19 11 -4 13 -1 8 14 -4 13 -1 22 9 26 21 8 20 26 -3 46 -19 16 -21 15 -41 -19 -11 -19 -23 -33 -26 -30 -4 3 1 16 10 29 17 24 21 48 9 48 -5 0 -16 -19 -25 -43z"/>
 <path d="M266 584 c-9 -25 4 -37 19 -17 13 18 11 33 -5 33 -4 0 -11 -7 -14 -16z"/>
 <path d="M240 544 c0 -6 -8 -19 -18 -30 -10 -10 -21 -26 -25 -34 -4 -8 -11 -22 -15 -30 -26 -45 -30 -58 -21 -71 7 -12 9 -11 9 2 0 9 7 22 15 29 13 11 14 8 8 -21 -3 -19 -10 -35 -15 -37 -24 -10 9 -82 38 -82 6 0 19 18 29 40 10 22 22 40 27 40 4 0 8 8 8 18 0 20 -34 55 -63 65 -17 6 -15 11 14 52 25 35 30 48 21 57 -7 7 -12 8 -12 2z"/>
 <path d="M666 465 c-16 -24 -21 -45 -11 -45 10 0 42 35 48 53 10 26 -18 21 -37 -8z"/>
 <path d="M556 464 c-10 -25 1 -29 14 -5 6 12 7 21 1 21 -5 0 -12 -7 -15 -16z"/>
 <path d="M587 473 c-4 -3 -7 -13 -7 -21 0 -12 3 -12 15 -2 8 7 15 16 15 21 0 11 -14 12 -23 2z"/>
 <path d="M587 423 c-3 -5 -1 -16 2 -26 6 -17 8 -16 19 7 9 21 9 26 -3 26 -7 0 -16 -3 -18 -7z"/>
 <path d="M540 410 c0 -5 -6 -7 -13 -4 -8 3 -19 -7 -27 -23 -21 -42 -41 -63 -60 -63 -10 0 -20 -6 -23 -14 -3 -7 -17 -16 -32 -18 -21 -4 -29 -1 -37 18 -6 13 -19 26 -30 29 -10 4 -18 12 -18 18 -1 19 -30 -25 -30 -45 0 -9 -12 -28 -26 -41 -22 -21 -24 -28 -15 -45 6 -11 11 -30 11 -41 0 -17 6 -21 35 -21 21 0 35 5 35 13 0 6 4 18 9 25 7 11 12 11 28 1 19 -11 27 -6 86 46 36 32 73 60 83 61 9 1 21 7 26 12 12 12 19 102 7 102 -5 0 -9 -4 -9 -10z"/>
 <path d="M647 331 c-26 -16 -26 -16 -5 -33 16 -13 24 -14 39 -5 22 14 25 43 5 50 -7 3 -25 -2 -39 -12z"/>
 <path d="M540 245 c-10 -12 -10 -21 -2 -40 14 -30 41 -32 72 -7 l23 19 -21 21 c-26 26 -54 28 -72 7z"/>
 </g>
<g id="layer102" fill="#c5504e" stroke="none">
 <path d="M470 982 c0 -7 5 -12 10 -12 6 0 10 -5 10 -11 0 -5 -4 -7 -10 -4 -5 3 -10 1 -10 -4 0 -14 17 -14 26 0 3 6 -1 18 -10 27 -10 11 -16 12 -16 4z"/>
 <path d="M791 896 c-8 -9 -11 -19 -7 -23 9 -9 29 13 24 27 -2 8 -8 7 -17 -4z"/>
 <path d="M403 845 c-16 -18 -16 -25 0 -25 7 0 13 9 14 20 2 23 2 24 -14 5z"/>
 <path d="M857 788 c-4 -12 -4 -24 -1 -27 6 -7 24 20 24 37 0 21 -17 13 -23 -10z"/>
 <path d="M720 762 c0 -5 -11 -15 -25 -22 -14 -7 -25 -18 -25 -23 0 -6 8 -3 18 6 23 21 39 22 22 2 -7 -9 -11 -17 -8 -20 2 -2 12 9 21 25 11 18 14 31 7 35 -5 3 -10 2 -10 -3z"/>
 <path d="M323 714 c-3 -8 0 -21 6 -27 9 -9 11 -8 5 7 -4 11 -2 21 7 27 10 6 11 9 1 9 -7 0 -15 -7 -19 -16z"/>
 <path d="M590 690 c-25 -8 -25 -8 -2 -9 13 -1 20 -5 17 -11 -3 -5 -1 -10 4 -10 6 0 11 2 11 4 0 2 3 11 6 20 7 17 2 18 -36 6z"/>
 <path d="M517 643 c-4 -6 5 -15 19 -22 14 -6 23 -7 20 -2 -4 5 -3 11 1 14 5 2 2 2 -6 0 -8 -2 -18 1 -21 8 -5 7 -10 7 -13 2z"/>
 <path d="M488 597 c-16 -21 -17 -21 -18 -2 0 17 -2 17 -10 5 -20 -32 -11 -42 20 -23 17 9 30 23 30 30 0 17 -2 16 -22 -10z"/>
 <path d="M285 580 c-4 -6 -11 -8 -16 -5 -5 4 -9 2 -9 -4 0 -19 16 -19 28 0 7 10 10 19 8 19 -3 0 -8 -5 -11 -10z"/>
 <path d="M517 567 c-3 -9 1 -18 9 -21 16 -6 18 2 5 22 -7 11 -9 11 -14 -1z"/>
 <path d="M246 536 c5 -12 4 -17 -3 -13 -14 9 -44 -30 -37 -48 4 -10 2 -15 -6 -13 -6 2 -15 -4 -19 -12 -5 -8 -13 -24 -19 -36 -6 -13 -7 -26 -1 -35 7 -12 9 -12 9 0 0 8 10 26 23 40 15 17 16 21 3 11 -17 -13 -18 -12 -14 5 2 11 9 19 15 18 6 -1 23 16 39 38 21 31 25 42 15 52 -10 9 -11 8 -5 -7z"/>
 <path d="M548 514 c-4 -3 -14 -7 -24 -8 -10 -2 -20 -9 -22 -16 -3 -8 0 -10 8 -5 7 4 15 3 19 -3 3 -6 11 0 18 14 11 24 11 29 1 18z"/>
 <path d="M352 502 c-8 -6 -2 -9 18 -9 20 0 26 3 18 9 -7 4 -15 8 -18 8 -3 0 -11 -4 -18 -8z"/>
 <path d="M280 490 c0 -5 -7 -7 -15 -4 -8 4 -15 1 -15 -5 0 -15 21 -13 44 4 17 13 18 15 3 15 -9 0 -17 -4 -17 -10z"/>
 <path d="M446 476 c4 -17 1 -27 -11 -34 -12 -6 -14 -11 -6 -16 6 -4 16 3 22 18 7 14 16 23 21 20 5 -4 4 3 -4 15 -17 28 -30 27 -22 -3z"/>
 <path d="M666 465 c-18 -27 -21 -49 -6 -40 6 4 8 10 5 15 -3 4 7 18 22 29 20 14 23 20 12 21 -9 0 -24 -11 -33 -25z"/>
 <path d="M558 463 c-6 -8 -8 -16 -5 -20 4 -3 9 1 13 10 3 9 14 14 25 12 10 -2 19 0 19 5 0 13 -40 8 -52 -7z"/>
 <path d="M339 441 c8 -5 15 -25 15 -45 1 -20 2 -36 3 -36 1 0 15 14 31 30 31 31 32 42 1 14 -15 -14 -18 -13 -27 15 -6 17 -17 31 -24 31 -10 0 -10 -3 1 -9z"/>
 <path d="M502 390 c-6 -11 -12 -23 -12 -27 0 -5 5 0 11 10 12 20 39 23 39 5 0 -9 3 -8 10 2 7 11 5 17 -8 22 -25 10 -26 10 -40 -12z"/>
 <path d="M190 367 c0 -9 -4 -17 -10 -17 -5 0 -10 -11 -10 -25 0 -14 4 -25 9 -25 9 0 23 71 16 79 -3 2 -5 -3 -5 -12z"/>
 <path d="M268 368 c-4 -9 -3 -18 3 -20 5 -2 6 -15 0 -36 -6 -20 -6 -30 0 -27 5 4 9 15 9 25 0 10 5 22 10 25 6 3 10 11 10 16 0 6 -4 8 -9 4 -5 -3 -11 3 -13 12 -3 17 -4 17 -10 1z"/>
 <path d="M639 327 c-15 -11 -15 -14 -1 -27 14 -13 15 -12 10 2 -4 8 -1 21 5 27 15 15 6 14 -14 -2z"/>
 <path d="M525 323 c-11 -2 -42 -24 -70 -49 l-50 -46 49 38 c26 21 55 39 63 40 9 2 20 7 26 13 6 6 9 10 7 10 -3 -1 -14 -4 -25 -6z"/>
 <path d="M408 299 c-12 -13 -14 -19 -5 -19 7 0 18 9 25 20 15 25 3 25 -20 -1z"/>
 <path d="M669 298 c-12 -22 -11 -22 7 -8 10 8 20 15 22 16 2 1 -1 5 -7 8 -5 4 -15 -4 -22 -16z"/>
 <path d="M230 256 c-8 -11 -9 -20 -1 -33 11 -17 11 -17 9 2 -1 11 1 26 5 33 11 17 2 15 -13 -2z"/>
 <path d="M340 205 c15 -18 36 -19 46 -3 5 8 0 9 -14 6 -12 -4 -22 -2 -22 3 0 5 -5 9 -11 9 -8 0 -8 -5 1 -15z"/>
 </g>

</svg>