<!DOCTYPE svg PUBLIC "-//W3C//DTD SVG 20010904//EN" "http://www.w3.org/TR/2001/REC-SVG-20010904/DTD/svg10.dtd">
<svg version="1.0" xmlns="http://www.w3.org/2000/svg" width="300px" height="287px" viewBox="0 0 3000 2870" preserveAspectRatio="xMidYMid meet">
<g id="layer101" fill="#cd0710" stroke="none">
 <path d="M1377 1919 c-10 -11 -17 -25 -15 -30 4 -13 48 24 48 40 0 17 -14 13 -33 -10z"/>
 <path d="M1330 1905 c0 -8 5 -15 10 -15 6 0 10 7 10 15 0 8 -4 15 -10 15 -5 0 -10 -7 -10 -15z"/>
 <path d="M1550 1900 c0 -5 7 -10 15 -10 8 0 15 5 15 10 0 6 -7 10 -15 10 -8 0 -15 -4 -15 -10z"/>
 <path d="M1780 1890 c0 -5 9 -10 20 -10 11 0 20 5 20 10 0 6 -9 10 -20 10 -11 0 -20 -4 -20 -10z"/>
 <path d="M1389 1885 c-1 -3 -3 -9 -4 -15 -1 -5 -3 -14 -4 -20 0 -5 -8 -10 -16 -10 -8 0 -15 5 -15 10 0 6 -7 10 -16 10 -13 0 -14 -3 -4 -15 7 -8 10 -24 7 -36 -3 -12 1 -28 11 -38 32 -34 52 -61 52 -71 0 -6 7 -10 15 -10 16 0 55 -38 55 -54 -1 -6 -9 -1 -19 12 -11 12 -23 22 -28 22 -4 0 -35 25 -67 55 -58 54 -96 70 -96 40 0 -9 -6 -12 -15 -9 -11 5 -12 10 -4 26 13 23 8 31 -15 22 -24 -9 -20 -25 17 -67 33 -38 54 -49 43 -22 -3 8 0 15 6 15 6 0 5 7 -3 17 -8 11 -2 8 16 -6 17 -12 33 -36 36 -52 7 -31 -1 -38 -20 -15 -9 11 -9 15 0 18 7 2 9 10 5 17 -6 9 -11 9 -22 0 -18 -15 -18 -36 0 -46 12 -6 10 -10 -8 -19 -19 -9 -25 -7 -36 10 -12 19 -12 20 4 7 21 -18 33 -7 15 15 -8 10 -23 14 -43 11 -39 -5 -77 11 -74 32 2 9 -3 15 -10 13 -8 -1 -11 2 -7 7 12 21 41 -3 36 -31 -2 -12 57 -10 64 2 3 6 -1 10 -9 10 -9 0 -28 12 -44 28 -15 15 -20 21 -10 13 10 -8 21 -11 25 -7 4 4 1 11 -6 15 -7 5 -11 13 -7 19 8 13 -3 42 -16 42 -5 0 -7 -10 -4 -22 3 -13 3 -17 0 -10 -8 17 -24 15 -24 -3 0 -8 -5 -15 -11 -15 -6 0 -9 -7 -5 -15 3 -9 0 -15 -9 -15 -9 0 -12 6 -8 16 5 13 2 15 -13 10 -14 -4 -32 6 -62 34 -23 22 -47 40 -54 40 -7 0 15 -25 47 -56 33 -31 59 -61 57 -66 -2 -6 4 -8 13 -5 9 4 15 1 15 -8 0 -12 -5 -12 -25 -3 -14 6 -25 15 -25 20 0 4 -4 8 -9 8 -5 0 -28 18 -51 40 -23 22 -45 40 -49 40 -15 -1 -27 -17 -28 -37 -2 -27 5 -29 22 -6 13 17 14 17 33 -1 12 -10 18 -25 15 -34 -4 -14 -3 -15 6 -2 8 12 14 10 38 -16 15 -17 36 -34 46 -37 10 -4 15 -11 12 -17 -3 -5 0 -7 7 -5 8 3 22 -2 33 -10 19 -16 19 -16 -12 -11 -18 3 -33 2 -33 -2 1 -11 50 -44 50 -33 0 9 47 0 70 -14 23 -14 -3 -23 -33 -11 -17 8 -38 11 -44 9 -7 -3 -13 -1 -13 4 0 11 -84 73 -99 73 -5 0 -27 12 -48 26 -37 25 -59 44 -35 30 6 -4 12 -2 12 4 0 7 -8 9 -19 5 -11 -3 -22 -1 -26 5 -7 12 -35 14 -35 2 0 -5 11 -14 24 -22 14 -7 22 -18 19 -26 -3 -8 -1 -14 5 -14 6 0 13 6 15 13 4 8 6 6 6 -4 1 -9 11 -21 24 -27 19 -11 18 -11 -12 -6 -19 4 -71 28 -116 55 -77 46 -125 61 -125 39 0 -5 -7 -10 -16 -10 -9 0 -14 -5 -12 -12 6 -18 28 -22 28 -5 0 27 26 25 77 -6 57 -37 63 -65 7 -37 -19 10 -42 24 -50 31 -8 6 -18 9 -22 5 -7 -7 -1 -13 45 -43 10 -7 -7 -3 -37 8 -80 30 -90 32 -90 21 0 -5 24 -20 53 -32 53 -23 111 -59 75 -47 -10 4 -18 2 -18 -4 0 -5 -13 -3 -30 6 -32 17 -54 20 -30 5 10 -7 11 -10 2 -10 -7 0 -15 7 -18 15 -7 16 -34 21 -34 6 0 -15 25 -37 58 -50 23 -10 28 -17 24 -33 -4 -17 -2 -19 15 -10 10 6 25 7 32 3 19 -12 -58 -22 -80 -10 -22 11 -25 -1 -6 -20 6 -7 -6 -4 -28 8 -49 26 -54 26 -52 1 1 -13 6 -19 15 -15 7 2 10 0 7 -5 -7 -11 41 -34 66 -31 8 1 49 -16 90 -37 61 -32 73 -43 71 -61 -2 -12 2 -21 10 -21 8 0 20 -9 28 -20 24 -33 31 -23 10 13 -11 17 -20 35 -20 40 0 16 37 6 65 -19 24 -21 26 -25 10 -22 -14 2 -21 -3 -23 -19 -2 -16 2 -23 12 -23 9 0 16 -8 16 -17 0 -16 -2 -16 -11 -3 -9 12 -10 12 -5 -3 3 -10 6 -21 6 -23 0 -2 6 -4 14 -4 8 0 16 -7 20 -15 7 -19 -1 -19 -21 1 -11 10 -18 12 -23 5 -4 -8 -16 -3 -34 13 -17 13 -23 25 -17 27 14 5 4 39 -11 39 -6 0 -8 -7 -4 -15 3 -8 1 -15 -5 -15 -6 0 -9 -7 -5 -15 6 -17 -2 -19 -22 -6 -11 7 -11 9 2 14 26 10 18 27 -13 27 -17 0 -33 5 -36 10 -3 6 -1 10 4 10 6 0 11 5 11 11 0 6 -6 9 -14 6 -8 -3 -16 -1 -18 5 -5 13 -28 2 -28 -13 0 -5 7 -9 15 -9 16 0 18 -7 17 -54 -1 -23 3 -27 20 -23 21 6 68 -10 80 -27 3 -5 21 -10 40 -10 50 -2 63 -14 39 -36 l-21 -17 26 -27 c30 -29 54 -34 54 -11 0 9 9 15 25 15 29 0 33 -14 8 -30 -15 -9 -15 -12 -4 -17 11 -4 8 -10 -10 -25 l-24 -20 32 6 c18 3 35 1 38 -4 3 -6 15 -10 25 -10 13 0 17 -5 14 -15 -4 -8 -2 -15 4 -15 6 0 13 6 15 13 3 6 6 -1 6 -16 1 -21 6 -28 19 -26 31 3 43 -1 37 -11 -3 -6 -17 -7 -31 -4 -13 3 -24 2 -24 -3 0 -6 -11 -15 -25 -21 -15 -7 -25 -8 -25 -2 0 6 7 10 15 10 14 0 14 3 0 24 -9 13 -13 31 -9 41 6 15 3 17 -14 13 -15 -4 -19 -2 -15 8 3 8 0 14 -6 14 -6 0 -16 -11 -21 -24 -5 -13 -12 -26 -17 -28 -4 -3 -2 -3 5 -1 18 4 52 -15 52 -30 0 -9 -2 -9 -9 1 -7 12 -74 12 -87 0 -7 -8 7 -38 18 -38 6 0 8 6 5 14 -4 10 0 14 13 13 11 -1 17 -3 15 -6 -3 -2 5 -9 17 -15 11 -6 24 -20 28 -32 7 -18 5 -20 -21 -16 -21 3 -29 0 -29 -11 0 -10 11 -14 41 -13 36 1 40 3 36 23 -3 15 1 23 9 23 8 0 11 -6 8 -15 -5 -11 -2 -13 10 -9 9 3 23 0 32 -7 9 -7 24 -13 35 -14 28 -2 33 -12 15 -30 -13 -13 -16 -14 -16 -2 0 7 -11 19 -25 25 -32 15 -45 15 -45 2 0 -5 7 -10 15 -10 8 0 15 -7 15 -16 0 -10 5 -14 16 -10 8 3 13 2 10 -3 -6 -9 22 -26 38 -22 15 3 26 -22 20 -43 -5 -14 -2 -18 9 -13 11 4 14 2 10 -9 -3 -7 -1 -14 3 -15 48 -4 58 -7 62 -17 4 -13 32 -4 32 10 0 5 -4 7 -9 3 -5 -3 -13 0 -17 6 -4 8 -3 9 4 5 7 -4 12 -3 12 3 0 6 -10 15 -22 22 -18 10 -20 9 -15 -4 4 -11 2 -14 -8 -11 -8 3 -11 13 -8 21 5 12 2 14 -8 9 -8 -4 -5 0 5 8 11 9 17 19 13 22 -4 4 -13 1 -22 -6 -13 -11 -14 -10 -8 5 5 14 3 17 -10 12 -9 -3 -17 -2 -17 4 0 6 9 13 20 16 11 3 20 12 20 20 0 10 -7 12 -22 8 -17 -5 -19 -4 -9 4 12 8 13 12 1 25 -7 9 -10 19 -6 23 3 3 6 2 6 -4 0 -6 7 -14 16 -17 12 -4 15 -2 10 9 -3 8 -1 15 5 15 5 0 9 8 7 18 -4 24 35 28 53 5 13 -16 12 -17 -3 -5 -18 14 -43 7 -32 -9 3 -5 10 -6 16 -3 6 4 8 -1 3 -15 -9 -29 17 -28 39 2 9 12 14 17 11 10 -3 -6 -1 -23 5 -38 7 -17 7 -24 0 -20 -13 8 -43 -22 -35 -35 3 -5 -3 -10 -14 -10 -25 0 -26 -6 -7 -26 19 -19 40 -18 32 2 -4 11 -1 14 12 12 13 -3 17 -13 16 -51 -1 -52 3 -56 34 -28 25 21 29 36 8 28 -8 -3 -17 1 -20 10 -5 12 -1 14 20 9 21 -6 25 -4 21 8 -4 9 -2 16 3 16 6 0 10 -6 10 -14 0 -8 6 -17 13 -19 7 -3 5 -6 -5 -6 -18 -1 -26 -21 -9 -21 40 0 54 33 24 57 -16 13 -16 13 5 3 13 -6 26 -18 29 -26 3 -8 11 -14 19 -14 8 0 14 -4 14 -10 0 -19 17 -10 28 15 11 24 6 30 -20 26 -5 0 -8 4 -8 10 0 6 -8 8 -19 4 -11 -3 -22 -1 -25 4 -10 16 12 23 34 11 16 -8 24 -8 35 4 17 17 20 46 5 46 -6 0 -3 11 7 25 21 28 35 33 26 8 -5 -12 -2 -15 10 -10 12 5 17 1 17 -13 0 -11 -4 -20 -10 -20 -5 0 -10 -9 -10 -21 0 -15 5 -20 22 -17 12 2 23 9 26 16 2 6 -2 11 -10 9 -7 -2 -3 1 10 7 26 12 29 26 5 26 -9 0 -14 3 -11 6 4 3 22 1 40 -4 25 -7 44 -6 69 4 28 12 31 12 17 0 -22 -16 -23 -26 -2 -26 8 0 12 -4 9 -10 -3 -5 0 -10 8 -10 8 0 17 9 20 20 3 11 2 20 -1 20 -4 0 -8 14 -9 30 -1 17 2 30 7 30 6 0 9 -5 7 -11 -1 -6 3 -13 10 -16 8 -3 11 3 8 16 -2 14 1 18 11 14 10 -4 11 -10 3 -24 -5 -10 -14 -19 -19 -19 -19 0 -10 -17 15 -28 28 -13 34 -32 10 -32 -8 0 -15 -4 -15 -10 0 -13 37 -13 45 0 4 6 -1 22 -10 36 -20 32 -15 40 35 48 26 4 40 11 40 21 0 13 -4 14 -21 4 -20 -10 -21 -9 -15 17 4 16 12 32 18 35 6 4 8 11 4 17 -3 5 1 13 10 16 24 9 31 7 14 -4 -12 -8 -9 -10 12 -10 15 0 34 7 43 16 13 13 16 14 15 3 -4 -28 0 -39 15 -39 11 0 13 5 8 18 -15 31 -10 67 10 66 9 -1 17 4 17 12 0 8 -4 14 -9 14 -5 0 -11 9 -14 20 -5 21 -37 28 -37 9 0 -6 7 -9 15 -5 19 7 19 -8 0 -27 -12 -12 -20 -13 -40 -4 -30 15 -40 36 -20 43 21 9 18 24 -4 24 -11 0 -23 4 -26 10 -4 6 1 7 10 3 10 -3 21 0 26 8 7 11 9 10 9 -4 0 -14 5 -17 21 -12 14 5 25 2 30 -6 14 -23 30 4 23 39 -4 18 -9 32 -13 32 -15 -1 -33 -19 -27 -28 3 -5 -1 -12 -9 -16 -9 -3 -15 1 -15 10 0 11 -6 15 -20 11 -10 -3 -27 1 -37 9 -15 12 -16 15 -3 23 8 6 11 13 7 17 -3 4 4 16 17 28 13 12 28 30 34 41 6 11 12 15 12 9 0 -7 11 -9 25 -6 14 2 24 10 22 16 -2 6 -11 10 -19 8 -9 -1 -35 6 -59 17 -31 14 -38 20 -22 20 12 1 23 6 25 11 2 6 19 13 38 15 19 3 36 9 38 14 2 6 10 7 18 4 8 -3 14 1 14 11 0 9 -5 16 -11 16 -6 0 -9 6 -7 12 5 13 -14 38 -27 38 -4 0 -5 -11 -3 -25 3 -14 1 -25 -3 -25 -5 0 -8 -6 -7 -12 2 -7 -4 -12 -13 -10 -9 1 -22 -5 -29 -13 -14 -17 -50 -20 -50 -4 0 6 -7 8 -16 5 -23 -9 -84 33 -84 59 0 6 4 4 9 -4 5 -7 14 -11 20 -7 6 4 9 2 5 -7 -2 -7 1 -14 8 -14 7 0 21 -4 31 -8 10 -4 17 -3 17 4 0 6 -4 11 -10 11 -5 0 -10 6 -10 14 0 8 -5 16 -12 18 -6 2 -8 10 -4 16 11 18 26 14 19 -4 -4 -12 -2 -15 8 -12 8 3 13 11 11 17 -1 7 2 10 7 6 6 -3 8 -12 4 -20 -3 -8 0 -15 6 -15 8 0 7 -6 -1 -20 -9 -14 -9 -23 -2 -30 12 -12 44 -3 44 12 0 6 -7 8 -15 5 -8 -4 -17 -2 -20 3 -4 6 3 10 14 10 24 0 27 10 9 28 -9 9 -9 12 -1 12 7 0 15 -9 18 -21 4 -11 12 -18 17 -17 14 5 21 48 8 48 -5 0 -7 6 -4 14 8 22 -16 30 -30 11 -10 -14 -17 -16 -32 -7 -10 6 -13 12 -6 12 6 0 13 -1 15 -2 9 -8 36 33 31 46 -4 10 -1 16 7 16 7 0 10 2 7 5 -9 10 -39 -7 -35 -19 3 -7 -9 -20 -25 -29 -27 -15 -30 -16 -24 -1 3 8 6 18 6 20 0 2 7 4 15 4 8 0 15 5 15 10 0 6 -9 10 -20 10 -11 0 -20 -4 -20 -9 0 -5 -10 -6 -22 -3 -21 5 -20 6 10 14 44 12 41 28 -5 23 -21 -3 -30 -2 -20 1 11 3 16 12 13 20 -3 8 1 14 9 14 8 0 15 5 15 11 0 7 -10 9 -25 7 -17 -4 -25 -1 -25 9 0 11 -4 11 -22 2 -13 -7 -25 -16 -28 -20 -3 -4 -12 -4 -20 1 -10 7 -11 10 -2 10 6 0 12 8 12 18 0 14 2 15 10 2 9 -13 11 -13 20 0 14 22 12 40 -4 46 -20 8 -60 -31 -51 -47 5 -7 4 -10 -2 -6 -6 4 -14 0 -17 -9 -10 -26 -7 -34 14 -34 11 0 20 -5 20 -11 0 -11 15 -9 55 7 19 8 19 7 3 -10 -10 -9 -18 -21 -18 -26 0 -4 -7 -10 -14 -13 -10 -4 -13 -1 -9 9 4 10 0 12 -11 8 -9 -3 -16 -1 -16 5 0 6 -5 11 -11 11 -6 0 -9 -7 -6 -15 4 -8 2 -17 -4 -20 -5 -4 -12 7 -15 24 -4 21 -12 31 -24 31 -14 0 -17 7 -15 33 4 48 4 49 14 43 4 -3 6 -17 3 -31 -2 -15 0 -25 7 -25 6 0 11 9 11 19 0 11 6 21 13 24 6 2 8 8 4 13 -11 11 -97 13 -97 2 0 -5 -4 -7 -9 -4 -14 9 -71 -18 -77 -37 -6 -18 -7 -18 -29 3 -13 12 -28 19 -34 16 -5 -4 -15 2 -20 13 -9 15 -7 18 7 17 9 0 21 -7 25 -14 6 -9 13 -9 27 -2 10 5 30 10 44 10 23 0 31 9 27 33 -2 12 27 8 32 -5 2 -7 8 -10 12 -6 5 5 -2 16 -13 27 -12 10 -22 23 -22 30 0 6 -4 11 -10 11 -5 0 -10 -8 -10 -17 0 -16 -2 -16 -11 -3 -7 11 -12 12 -15 3 -3 -7 -12 -9 -20 -6 -8 3 -14 0 -14 -6 0 -6 11 -11 24 -11 13 0 27 -7 30 -16 5 -13 1 -15 -19 -12 -17 4 -25 1 -25 -8 0 -17 -10 -17 -32 -1 -10 8 -13 18 -8 26 6 11 8 11 12 0 3 -8 9 -11 13 -7 11 10 -4 28 -23 28 -28 0 -53 -38 -50 -72 2 -18 -2 -33 -10 -35 -7 -3 -10 1 -6 11 6 17 5 17 -38 20 -32 1 -50 16 -20 16 12 0 22 5 22 11 0 6 -6 9 -13 6 -7 -3 -24 2 -38 10 -16 10 -18 12 -4 8 19 -6 85 23 85 37 0 5 -9 8 -20 8 -11 0 -20 -4 -20 -9 0 -13 -34 -23 -53 -15 -10 3 -13 12 -10 22 5 14 3 14 -15 -2 -46 -40 -31 0 21 55 21 23 21 29 2 29 -8 0 -16 -2 -16 -5z m341 -175 c0 -5 -4 -10 -9 -10 -5 0 -16 -6 -23 -12 -22 -21 -60 -40 -66 -34 -3 3 0 6 6 6 6 0 9 7 6 15 -5 11 -2 13 10 9 10 -4 18 0 22 11 4 9 13 14 20 11 8 -3 14 -1 14 4 0 6 5 10 10 10 6 0 10 -4 10 -10z m-769 -85 c52 -24 88 -45 82 -45 -7 0 -13 -5 -13 -11 0 -6 6 -9 14 -6 14 6 44 -19 35 -28 -7 -7 -69 27 -64 35 8 12 -23 33 -40 26 -9 -3 -15 0 -15 8 0 22 -31 28 -46 9 -11 -15 -15 -16 -26 -4 -11 12 -10 13 5 8 9 -4 17 -3 17 2 0 5 -9 11 -20 14 -11 3 -20 1 -20 -4 0 -5 -9 -4 -19 3 -18 11 -18 13 -3 25 9 7 18 13 18 13 1 0 44 -20 95 -45z m645 4 c19 -22 19 -22 -3 -10 -13 6 -23 16 -23 21 0 15 5 12 26 -11z m-276 -19 c14 -11 21 -20 17 -20 -5 0 -20 9 -34 20 -14 11 -22 20 -17 20 5 0 20 -9 34 -20z m444 4 c9 -23 4 -24 -16 -2 -14 14 -15 18 -4 18 8 0 17 -7 20 -16z m-877 -46 c-6 -4 -26 2 -44 13 -40 25 -43 17 -6 -15 33 -29 15 -43 -20 -16 -14 11 -29 20 -34 20 -6 0 -10 7 -10 15 0 8 7 15 14 15 8 0 12 4 9 9 -3 4 19 -1 48 -13 30 -12 49 -24 43 -28z m73 -29 c0 -6 6 -9 13 -6 7 2 25 -6 41 -18 l29 -23 -27 1 c-14 1 -26 5 -26 9 0 4 -16 12 -35 19 -23 9 -35 19 -35 31 0 16 3 17 20 8 11 -6 20 -16 20 -21z m199 -36 c2 -2 -1 -3 -7 -3 -7 0 -29 16 -50 36 l-37 36 45 -33 c25 -18 47 -34 49 -36z m73 60 c-6 -2 -10 -9 -6 -14 3 -5 1 -9 -5 -9 -5 0 -12 4 -15 9 -6 9 10 19 29 19 6 0 4 -2 -3 -5z m662 -30 c3 -7 2 -13 -2 -13 -5 0 -16 6 -26 13 -16 12 -16 13 3 13 11 0 23 -6 25 -13z m-1009 -52 c-2 -2 -19 5 -37 16 -32 18 -74 20 -63 3 3 -4 -4 -6 -15 -3 -23 6 -36 21 -17 20 32 -1 48 4 42 13 -4 6 16 -2 43 -17 28 -15 49 -30 47 -32z m19 43 c9 -8 19 -13 24 -11 4 3 16 -2 27 -10 20 -15 20 -15 0 -10 -11 4 -32 9 -47 13 -16 3 -26 10 -23 14 3 5 -1 11 -7 13 -9 4 -9 6 -1 6 6 1 19 -6 27 -15z m211 -100 c-17 -17 -35 -18 -35 -1 0 6 11 13 25 13 21 2 22 0 10 -12z m840 -33 c-8 -14 -32 -14 -41 0 -4 8 0 9 15 4 14 -4 21 -2 21 6 0 7 3 10 6 6 3 -3 3 -10 -1 -16z m-900 -17 c15 5 16 4 6 -8 -7 -8 -10 -20 -6 -26 3 -5 1 -10 -4 -10 -6 0 -11 5 -11 10 0 6 -6 10 -12 10 -7 0 -22 8 -33 17 -20 15 -20 15 3 10 13 -3 22 0 22 6 0 7 4 6 9 -2 5 -8 16 -11 26 -7z m918 -28 c-3 -5 5 -7 19 -4 21 4 24 1 20 -14 -2 -10 -8 -21 -13 -24 -5 -3 -6 2 -3 10 5 12 -1 16 -24 16 -16 0 -32 6 -35 13 -3 7 4 12 18 12 13 0 21 -4 18 -9z m-926 -152 c-5 -5 -57 13 -57 20 0 3 14 0 31 -6 16 -6 28 -12 26 -14z m-27 -29 c-7 -8 -16 -15 -21 -15 -5 0 -9 7 -9 15 0 9 9 15 21 15 18 0 19 -2 9 -15z m72 -17 c-9 -9 -12 -7 -12 12 0 19 3 21 12 12 9 -9 9 -15 0 -24z m891 -47 c4 -16 0 -18 -21 -15 -15 3 -29 8 -32 11 -3 3 6 3 18 0 20 -5 23 -2 19 14 -3 10 -2 17 3 14 4 -3 10 -13 13 -24z m-446 -98 c-11 -10 -26 8 -20 23 5 15 7 14 15 -1 6 -9 7 -19 5 -22z m403 33 c0 -2 3 -11 6 -19 3 -8 -1 -17 -9 -20 -10 -4 -13 0 -10 13 4 13 -2 20 -19 23 -21 4 -20 4 5 6 15 0 27 -1 27 -3z m-224 -54 c-4 -3 -11 0 -16 8 -15 24 -11 33 6 15 9 -9 13 -19 10 -23z m44 30 c0 -5 -7 -17 -16 -28 -8 -10 -14 -14 -11 -9 2 6 7 18 10 28 7 17 17 23 17 9z m-285 -13 l20 0 -20 -8 c-11 -5 -27 -5 -36 0 -11 6 -21 4 -29 -6 -7 -8 -17 -12 -22 -9 -15 9 25 34 47 29 11 -3 29 -5 40 -6z m436 -49 c5 0 9 -4 9 -10 0 -5 -4 -10 -8 -10 -10 0 -32 45 -31 63 0 7 5 0 11 -15 5 -16 14 -28 19 -28z m-211 25 c11 -13 9 -15 -13 -13 -20 2 -23 5 -15 15 13 16 13 16 28 -2z m-474 -20 c-5 -20 -3 -24 11 -19 16 5 16 4 0 -6 -18 -11 -18 -13 -1 -31 9 -10 14 -19 11 -19 -3 0 -15 10 -26 21 -11 12 -30 22 -43 23 -22 1 -41 36 -19 36 6 0 11 -4 11 -10 0 -18 29 -11 42 10 17 27 21 25 14 -5z m222 1 l21 -25 -30 1 c-26 1 -44 18 -18 18 6 0 9 7 5 15 -8 21 -3 19 22 -9z m196 1 c10 -4 16 -10 13 -13 -8 -9 -47 15 -47 29 0 8 3 9 8 1 4 -6 16 -14 26 -17z m152 -2 c13 -14 20 -25 16 -25 -9 1 -52 37 -52 44 0 12 13 5 36 -19z m-302 0 c4 -13 2 -14 -14 -5 -23 13 -26 20 -6 20 8 0 16 -7 20 -15z m98 -39 c19 6 19 5 1 -13 -12 -13 -19 -15 -21 -6 -2 7 -13 15 -25 19 -19 6 -19 8 -4 19 9 7 18 18 19 26 0 8 3 -1 5 -19 4 -28 7 -32 25 -26z m163 10 c33 -14 52 -35 21 -23 -7 3 -19 0 -25 -6 -9 -9 -11 -8 -6 4 4 10 0 19 -11 23 -12 4 -15 2 -10 -9 4 -11 -1 -15 -22 -14 -17 1 -20 3 -9 6 9 2 17 11 17 19 0 17 2 17 45 0z m-289 -31 c-8 -8 -22 -12 -30 -9 -27 10 -18 24 15 24 27 0 29 -2 15 -15z m-13 -47 c-2 -5 1 -15 7 -23 15 -18 -1 -20 -18 -3 -6 6 -15 8 -19 4 -4 -4 -1 -12 7 -17 12 -8 11 -10 -4 -7 -27 4 -32 28 -7 35 21 5 30 23 11 23 -5 0 -10 5 -10 10 0 6 8 5 19 -2 11 -7 17 -16 14 -20z m125 13 c11 -7 10 -10 -3 -15 -9 -3 -21 -4 -26 -1 -5 3 -18 1 -29 -5 -11 -6 -20 -7 -20 -2 0 4 12 13 28 19 35 14 35 14 50 4z"/>
 <path d="M1250 1860 c0 -5 -7 -7 -15 -4 -8 4 -15 1 -15 -5 0 -11 13 -15 37 -12 6 1 14 -3 18 -9 3 -5 1 -10 -4 -10 -6 0 -11 -4 -11 -10 0 -16 17 -11 25 7 3 10 1 19 -4 21 -6 2 -11 10 -11 18 0 8 -4 14 -10 14 -5 0 -10 -4 -10 -10z"/>
 <path d="M1282 1858 c5 -15 28 -23 28 -10 0 5 -7 13 -16 16 -10 4 -14 1 -12 -6z"/>
 <path d="M1530 1860 c0 -5 7 -10 15 -10 8 0 15 5 15 10 0 6 -7 10 -15 10 -8 0 -15 -4 -15 -10z"/>
 <path d="M1112 1828 c-13 -34 -10 -44 8 -33 6 4 9 13 6 21 -3 9 2 14 14 14 24 0 26 15 4 24 -9 3 -17 6 -18 6 -1 0 -7 -14 -14 -32z"/>
 <path d="M1480 1854 c0 -10 31 -36 37 -31 3 3 -2 13 -10 22 -16 15 -27 19 -27 9z"/>
 <path d="M1407 1844 c-11 -11 -8 -26 3 -19 6 3 7 -1 4 -9 -4 -11 0 -16 11 -16 11 0 15 7 13 22 -3 22 -19 33 -31 22z"/>
 <path d="M1583 1835 c-16 -17 -17 -35 -3 -35 6 0 10 7 10 15 0 8 7 15 16 15 8 0 12 5 9 10 -8 13 -18 12 -32 -5z"/>
 <path d="M1751 1831 c-9 -6 -10 -11 -2 -15 13 -8 31 1 31 15 0 11 -11 11 -29 0z"/>
 <path d="M1070 1815 c0 -8 5 -15 10 -15 6 0 10 7 10 15 0 8 -4 15 -10 15 -5 0 -10 -7 -10 -15z"/>
 <path d="M1300 1816 c0 -22 17 -28 24 -10 9 22 8 24 -9 24 -8 0 -15 -6 -15 -14z"/>
 <path d="M1896 1814 c-9 -24 -7 -34 8 -34 8 0 14 10 14 25 0 28 -13 33 -22 9z"/>
 <path d="M832 1811 c4 -13 18 -16 19 -4 0 4 -5 9 -11 12 -7 2 -11 -2 -8 -8z"/>
 <path d="M1800 1805 c0 -8 -4 -15 -10 -15 -16 0 -11 -37 6 -44 18 -7 34 0 34 16 0 5 -7 7 -15 4 -14 -5 -14 -4 0 16 19 28 19 38 0 38 -8 0 -15 -7 -15 -15z"/>
 <path d="M1740 1795 c0 -8 7 -15 15 -15 8 0 15 4 15 9 0 5 -7 11 -15 15 -9 3 -15 0 -15 -9z"/>
 <path d="M780 1790 c0 -5 7 -10 15 -10 8 0 15 5 15 10 0 6 -7 10 -15 10 -8 0 -15 -4 -15 -10z"/>
 <path d="M1940 1785 c0 -8 5 -15 10 -15 6 0 10 7 10 15 0 8 -4 15 -10 15 -5 0 -10 -7 -10 -15z"/>
 <path d="M1477 1774 c-8 -8 1 -24 14 -24 5 0 9 7 9 15 0 15 -12 20 -23 9z"/>
 <path d="M665 1759 c-10 -15 3 -25 16 -12 7 7 7 13 1 17 -6 3 -14 1 -17 -5z"/>
 <path d="M1915 1739 c-10 -16 1 -22 26 -14 17 6 19 9 8 16 -19 12 -26 11 -34 -2z"/>
 <path d="M1933 1713 c-22 -8 -14 -21 12 -19 14 0 25 7 25 14 0 12 -15 15 -37 5z"/>
 <path d="M2020 1711 c0 -5 -9 -7 -20 -4 -31 8 -24 -11 9 -23 26 -11 29 -10 29 12 0 13 -4 24 -9 24 -5 0 -9 -4 -9 -9z"/>
 <path d="M1059 1669 c13 -11 26 -17 29 -14 7 6 -29 34 -43 34 -5 0 1 -9 14 -20z"/>
 <path d="M2043 1666 c-13 -6 -23 -14 -23 -18 0 -5 -7 -8 -15 -8 -8 0 -15 -7 -15 -15 0 -8 5 -15 10 -15 6 0 10 4 10 9 0 5 14 12 30 16 21 5 30 13 30 26 0 10 -1 18 -2 18 -2 -1 -13 -6 -25 -13z"/>
 <path d="M2140 1585 c0 -8 5 -15 10 -15 6 0 10 7 10 15 0 8 -4 15 -10 15 -5 0 -10 -7 -10 -15z"/>
 <path d="M2160 1530 c0 -5 7 -10 15 -10 8 0 15 5 15 10 0 6 -7 10 -15 10 -8 0 -15 -4 -15 -10z"/>
 <path d="M510 1520 c0 -5 7 -10 15 -10 8 0 15 5 15 10 0 6 -7 10 -15 10 -8 0 -15 -4 -15 -10z"/>
 <path d="M2179 1491 c11 -7 11 -9 0 -13 -8 -3 -11 -9 -7 -13 4 -4 14 -5 22 -2 20 8 9 37 -13 37 -13 0 -13 -2 -2 -9z"/>
 <path d="M608 1455 c-3 -15 -1 -25 6 -25 6 0 13 11 14 25 1 14 -2 25 -7 25 -5 0 -11 -11 -13 -25z"/>
 <path d="M510 1435 c0 -9 6 -12 15 -9 9 4 15 0 15 -10 0 -9 5 -16 10 -16 15 0 12 19 -4 36 -19 18 -36 18 -36 -1z"/>
 <path d="M2166 1434 c-9 -22 3 -32 14 -14 12 19 12 30 1 30 -5 0 -12 -7 -15 -16z"/>
 <path d="M2190 1421 c0 -5 6 -11 13 -14 8 -3 6 -9 -8 -20 -11 -8 -17 -19 -13 -23 4 -4 22 7 39 25 17 18 28 35 24 39 -3 4 -11 0 -16 -8 -8 -11 -12 -12 -16 -2 -5 14 -23 16 -23 3z"/>
 <path d="M760 1411 c0 -11 21 -19 38 -14 21 8 13 23 -13 23 -14 0 -25 -4 -25 -9z"/>
 <path d="M717 1394 c-12 -12 -8 -24 8 -24 9 0 12 -6 9 -15 -4 -8 -1 -15 5 -15 6 0 11 6 11 13 0 19 -24 49 -33 41z"/>
 <path d="M813 1393 c-18 -6 -16 -23 2 -23 8 0 15 -5 15 -12 0 -6 2 -9 5 -6 10 10 -10 45 -22 41z"/>
 <path d="M2050 1380 c0 -11 7 -20 15 -20 17 0 18 2 9 24 -9 23 -24 20 -24 -4z"/>
 <path d="M663 1373 c-22 -8 -14 -37 14 -50 15 -7 28 -11 30 -9 7 7 -9 36 -17 31 -5 -3 -11 -1 -15 5 -3 5 -1 10 4 10 6 0 11 5 11 10 0 11 -7 12 -27 3z"/>
 <path d="M2230 1360 c0 -5 4 -10 10 -10 5 0 7 -7 4 -15 -4 -8 -1 -15 5 -15 12 0 14 11 5 34 -7 18 -24 22 -24 6z"/>
 <path d="M2190 1334 c0 -8 9 -14 20 -14 11 0 20 4 20 9 0 5 -9 11 -20 14 -13 3 -20 0 -20 -9z"/>
 <path d="M2160 1333 c0 -14 19 -38 25 -32 8 8 -5 39 -16 39 -5 0 -9 -3 -9 -7z"/>
 <path d="M2070 1302 c0 -9 6 -12 16 -8 9 3 20 6 25 6 5 0 9 4 9 10 0 5 -11 9 -25 8 -14 -1 -25 -9 -25 -16z"/>
 <path d="M2026 1289 c-23 -22 -19 -30 12 -22 13 3 22 13 22 24 0 24 -10 23 -34 -2z"/>
 <path d="M2113 1293 c-20 -8 -16 -43 5 -43 25 0 34 -11 21 -26 -7 -9 -6 -14 2 -20 7 -4 15 -2 17 4 2 7 10 12 18 12 9 0 13 4 10 9 -4 5 0 11 6 14 7 2 10 8 6 12 -4 4 -14 2 -23 -5 -13 -11 -14 -10 -9 5 6 14 3 16 -14 11 -17 -6 -19 -3 -15 14 5 20 0 23 -24 13z"/>
 <path d="M2270 1280 c0 -5 7 -10 15 -10 8 0 15 5 15 10 0 6 -7 10 -15 10 -8 0 -15 -4 -15 -10z"/>
 <path d="M740 1270 c0 -5 4 -10 9 -10 5 0 17 -7 26 -16 23 -23 30 -10 8 15 -18 22 -43 28 -43 11z"/>
 <path d="M2063 1265 c-18 -20 -16 -25 7 -25 13 0 20 7 20 20 0 23 -10 25 -27 5z"/>
 <path d="M2020 1240 c-17 -11 -8 -23 14 -18 9 2 12 8 8 15 -5 8 -13 9 -22 3z"/>
 <path d="M2265 1239 c-4 -6 -5 -13 -2 -16 7 -7 27 6 27 18 0 12 -17 12 -25 -2z"/>
 <path d="M801 1224 c-12 -14 -12 -17 0 -25 9 -6 15 -4 17 6 2 8 8 15 13 15 6 0 7 5 4 10 -8 14 -18 12 -34 -6z"/>
 <path d="M850 1225 c-11 -13 -11 -18 0 -28 9 -9 14 -9 17 -1 2 7 13 10 23 7 11 -3 20 0 20 6 0 6 -7 11 -15 11 -8 0 -15 5 -15 10 0 15 -16 12 -30 -5z"/>
 <path d="M750 1210 c0 -11 5 -20 10 -20 6 0 10 9 10 20 0 11 -4 20 -10 20 -5 0 -10 -9 -10 -20z"/>
 <path d="M610 1201 c0 -5 7 -11 15 -15 9 -3 15 0 15 9 0 8 -7 15 -15 15 -8 0 -15 -4 -15 -9z"/>
 <path d="M2288 1193 c-19 -5 -25 -23 -9 -23 17 0 41 12 41 21 0 9 -4 10 -32 2z"/>
 <path d="M2230 1175 c0 -8 4 -15 9 -15 5 0 11 7 15 15 3 9 0 15 -9 15 -8 0 -15 -7 -15 -15z"/>
 <path d="M795 1159 c-4 -6 -5 -13 -2 -16 7 -7 27 6 27 18 0 12 -17 12 -25 -2z"/>
 <path d="M836 1154 c-3 -8 1 -23 10 -32 15 -15 16 -14 10 6 -6 18 -3 22 13 22 12 0 21 5 21 10 0 16 -47 11 -54 -6z"/>
 <path d="M925 1150 c-3 -5 -17 -10 -31 -10 -15 0 -24 -6 -24 -15 0 -8 5 -15 10 -15 6 0 10 -7 10 -15 0 -8 8 -15 18 -15 14 0 15 -2 2 -10 -25 -16 -2 -23 30 -10 27 11 32 11 44 -5 8 -11 18 -15 25 -10 10 6 11 3 2 -13 -14 -26 -14 -42 0 -42 6 0 9 7 5 15 -3 9 0 15 9 15 23 0 18 26 -7 38 -18 8 -19 11 -5 11 9 1 17 7 17 15 0 14 -55 16 -77 3 -16 -10 -43 2 -43 19 0 8 6 11 15 8 8 -4 15 -2 15 4 0 6 3 17 6 26 7 17 -11 22 -21 6z"/>
 <path d="M2255 1143 c-3 -10 -1 -19 5 -21 6 -2 17 -11 26 -19 8 -8 18 -13 21 -9 3 3 -3 14 -14 23 -11 10 -18 24 -16 31 7 19 -14 14 -22 -5z"/>
 <path d="M693 1120 c1 -20 8 -25 20 -14 7 8 -3 34 -13 34 -5 0 -8 -9 -7 -20z"/>
 <path d="M2195 1130 c-3 -5 2 -10 12 -11 10 0 13 -3 6 -6 -21 -8 -15 -23 8 -23 15 0 19 4 15 16 -3 9 -6 20 -6 25 0 12 -27 12 -35 -1z"/>
 <path d="M2113 1117 c2 -7 15 -12 28 -12 13 1 27 -4 31 -9 10 -14 20 -2 13 16 -7 17 -78 22 -72 5z"/>
 <path d="M850 1075 c0 -9 6 -12 15 -9 8 4 15 10 15 15 0 5 -7 9 -15 9 -8 0 -15 -7 -15 -15z"/>
 <path d="M2143 1083 c-17 -6 -16 -23 3 -48 15 -19 15 -19 9 8 -5 17 -3 27 4 27 6 0 11 5 11 10 0 11 -7 12 -27 3z"/>
 <path d="M2207 1074 c-8 -8 1 -24 14 -24 5 0 9 7 9 15 0 15 -12 20 -23 9z"/>
 <path d="M740 1050 c0 -5 7 -10 15 -10 8 0 15 5 15 10 0 6 -7 10 -15 10 -8 0 -15 -4 -15 -10z"/>
 <path d="M2107 1054 c-3 -3 -1 -18 3 -34 7 -25 5 -30 -13 -36 -14 -4 -25 -1 -34 12 -10 13 -16 15 -24 7 -8 -8 -6 -15 10 -25 11 -7 21 -16 21 -21 0 -4 -11 0 -25 9 -32 21 -47 9 -17 -12 12 -8 22 -21 22 -29 0 -7 6 -15 13 -18 9 -3 9 -7 0 -19 -7 -8 -10 -18 -6 -21 14 -15 -10 -6 -47 18 -43 27 -50 29 -50 16 0 -5 21 -21 46 -35 44 -24 48 -25 59 -9 7 10 11 21 9 25 -3 5 -1 8 5 8 5 0 9 12 7 28 -1 17 6 34 20 47 29 26 40 68 21 83 -8 7 -16 9 -20 6z"/>
 <path d="M720 995 c0 -8 5 -15 10 -15 6 0 10 7 10 15 0 8 -4 15 -10 15 -5 0 -10 -7 -10 -15z"/>
 <path d="M933 998 c2 -7 10 -13 17 -13 7 0 15 6 18 13 2 7 -5 12 -18 12 -13 0 -20 -5 -17 -12z"/>
 <path d="M2136 979 c-11 -10 -17 -21 -14 -25 9 -8 48 19 48 33 0 18 -12 15 -34 -8z"/>
 <path d="M830 955 c0 -8 5 -15 10 -15 6 0 10 7 10 15 0 8 -4 15 -10 15 -5 0 -10 -7 -10 -15z"/>
 <path d="M940 955 c0 -8 -11 -17 -25 -21 -14 -3 -25 -10 -25 -15 0 -16 26 -10 50 11 38 33 54 21 28 -20 -12 -19 -3 -43 10 -24 4 6 15 13 25 17 9 3 17 11 17 17 0 6 -4 8 -10 5 -5 -3 -10 3 -10 13 0 20 -18 32 -46 32 -8 0 -14 -7 -14 -15z"/>
 <path d="M2200 945 c0 -8 5 -15 10 -15 6 0 10 7 10 15 0 8 -4 15 -10 15 -5 0 -10 -7 -10 -15z"/>
 <path d="M2010 900 c0 -5 7 -10 15 -10 8 0 15 5 15 10 0 6 -7 10 -15 10 -8 0 -15 -4 -15 -10z"/>
 <path d="M2100 900 c0 -5 7 -10 15 -10 8 0 15 5 15 10 0 6 -7 10 -15 10 -8 0 -15 -4 -15 -10z"/>
 <path d="M1013 881 c-10 -16 -9 -18 8 -14 10 3 19 12 19 19 0 20 -13 17 -27 -5z"/>
 <path d="M1934 884 c3 -9 6 -20 6 -25 0 -6 5 -7 10 -4 6 3 10 1 10 -4 0 -6 -4 -11 -10 -11 -5 0 -10 -7 -10 -15 0 -23 14 -18 27 11 10 21 9 28 -8 45 -23 23 -33 25 -25 3z"/>
 <path d="M920 850 c-8 -5 -12 -12 -9 -15 8 -8 39 5 39 16 0 11 -11 11 -30 -1z"/>
 <path d="M1320 850 c0 -13 28 -25 38 -16 3 4 0 11 -8 16 -20 13 -30 12 -30 0z"/>
 <path d="M1721 852 c-6 -2 -11 -8 -11 -13 0 -14 53 -7 57 8 4 11 -20 14 -46 5z"/>
 <path d="M1790 840 c0 -5 -7 -10 -15 -10 -8 0 -15 -4 -15 -9 0 -13 28 -33 38 -27 12 7 12 56 1 56 -5 0 -9 -4 -9 -10z"/>
 <path d="M2010 835 c0 -8 9 -15 20 -15 11 0 20 2 20 5 0 2 -9 9 -20 15 -16 9 -20 8 -20 -5z"/>
 <path d="M920 815 c-10 -12 -10 -15 4 -15 9 0 16 7 16 15 0 8 -2 15 -4 15 -2 0 -9 -7 -16 -15z"/>
 <path d="M1710 795 c0 -16 6 -25 15 -25 16 0 19 9 9 34 -9 25 -24 19 -24 -9z"/>
 <path d="M1852 809 c5 -17 48 -25 48 -10 0 6 -4 11 -9 11 -5 0 -17 3 -27 7 -12 4 -15 2 -12 -8z"/>
 <path d="M1190 800 c0 -5 7 -10 15 -10 8 0 15 5 15 10 0 6 -7 10 -15 10 -8 0 -15 -4 -15 -10z"/>
 <path d="M1641 784 c-7 -8 -10 -18 -6 -22 3 -3 10 0 14 7 5 8 14 10 21 6 8 -5 11 -3 8 5 -6 20 -21 21 -37 4z"/>
 <path d="M1940 775 c0 -8 5 -15 10 -15 6 0 10 7 10 15 0 8 -4 15 -10 15 -5 0 -10 -7 -10 -15z"/>
 <path d="M900 764 c0 -9 5 -14 12 -12 18 6 21 28 4 28 -9 0 -16 -7 -16 -16z"/>
 <path d="M1860 766 c0 -9 7 -16 16 -16 9 0 14 5 12 12 -6 18 -28 21 -28 4z"/>
 <path d="M1687 753 c-22 -6 -18 -37 6 -41 12 -2 15 1 11 12 -3 9 -1 16 5 16 6 0 11 5 11 10 0 10 -3 11 -33 3z"/>
 <path d="M1800 744 c0 -17 22 -14 28 4 2 7 -3 12 -12 12 -9 0 -16 -7 -16 -16z"/>
 <path d="M1150 737 c0 -9 -5 -17 -11 -19 -14 -5 6 -48 21 -48 13 0 13 17 0 25 -15 10 -12 25 6 25 9 0 14 5 12 12 -6 18 -28 22 -28 5z"/>
 <path d="M900 720 c0 -5 6 -10 14 -10 7 0 22 -11 32 -25 19 -25 44 -34 44 -15 0 6 -6 10 -13 10 -7 0 -21 11 -31 25 -19 25 -46 34 -46 15z"/>
 <path d="M1460 721 c0 -5 6 -12 13 -14 10 -4 10 -6 0 -6 -7 -1 -13 -8 -13 -17 0 -10 -5 -14 -15 -10 -18 7 -32 -21 -19 -34 13 -13 54 0 54 16 0 8 6 14 13 14 9 0 8 3 -2 9 -9 6 -10 10 -2 12 16 6 3 39 -15 39 -8 0 -14 -4 -14 -9z"/>
 <path d="M1550 710 c-8 -5 -12 -12 -9 -15 8 -8 39 5 39 16 0 11 -11 11 -30 -1z"/>
 <path d="M1292 698 c5 -15 28 -18 29 -3 0 6 -7 12 -17 13 -10 3 -15 -1 -12 -10z"/>
 <path d="M1514 684 c3 -9 6 -21 6 -27 0 -7 5 -4 11 6 11 18 5 37 -13 37 -5 0 -7 -7 -4 -16z"/>
 <path d="M1630 685 c0 -8 5 -15 10 -15 6 0 10 7 10 15 0 8 -4 15 -10 15 -5 0 -10 -7 -10 -15z"/>
 <path d="M1370 680 c0 -5 7 -10 15 -10 8 0 15 5 15 10 0 6 -7 10 -15 10 -8 0 -15 -4 -15 -10z"/>
 <path d="M1010 671 c0 -9 41 -23 48 -16 2 2 1 8 -3 14 -8 13 -45 15 -45 2z"/>
 <path d="M1405 619 c-10 -15 3 -25 16 -12 7 7 7 13 1 17 -6 3 -14 1 -17 -5z"/>
 </g>

</svg>