<!DOCTYPE svg PUBLIC "-//W3C//DTD SVG 20010904//EN" "http://www.w3.org/TR/2001/REC-SVG-20010904/DTD/svg10.dtd">
<svg version="1.0" xmlns="http://www.w3.org/2000/svg" width="1350px" height="629px" viewBox="0 0 13500 6290" preserveAspectRatio="xMidYMid meet">
<g id="layer101" fill="#701212" stroke="none">
 <path d="M0 3145 l0 -3145 6750 0 6750 0 0 3145 0 3145 -6750 0 -6750 0 0 -3145z"/>
 </g>
<g id="layer102" fill="#b60606" stroke="none">
 <path d="M0 3145 l0 -3145 6750 0 6750 0 0 3145 0 3145 -6750 0 -6750 0 0 -3145z m6558 176 c-7 -9 -14 -18 -15 -20 -2 -2 -3 5 -3 16 0 11 7 20 15 20 12 0 12 -3 3 -16z m-663 -253 c5 -5 -7 -7 -25 -7 -19 1 -27 3 -17 6 17 4 16 8 -10 36 l-28 32 35 -30 c19 -16 39 -33 45 -37z m871 -442 c2 -13 1 -13 -3 -1 -2 8 -9 13 -14 10 -5 -4 -9 -1 -9 5 0 18 25 5 26 -14z"/>
 </g>
<g id="layer103" fill="#a01a1a" stroke="none">
 <path d="M0 3145 l0 -3145 6750 0 6750 0 0 3145 0 3145 -6750 0 -6750 0 0 -3145z m7155 345 c8 -7 15 -9 15 -4 0 5 5 1 11 -8 7 -13 3 -30 -16 -68 -14 -27 -28 -50 -31 -50 -2 0 -1 8 4 18 5 9 12 34 16 54 6 32 3 39 -18 53 -48 32 -88 0 -117 -94 -6 -22 -7 -20 -8 15 -1 42 18 91 39 104 15 9 86 -4 105 -20z m-610 -120 c5 -17 4 -22 -3 -15 -5 6 -13 21 -17 35 -5 17 -4 22 3 15 5 -5 13 -21 17 -35z m1065 20 c-16 -5 -19 -8 -8 -9 9 -1 23 -10 31 -21 8 -11 17 -17 21 -12 14 13 -6 -52 -25 -84 -10 -17 -29 -39 -41 -50 l-23 -19 22 25 c27 32 41 67 39 105 -2 45 -35 45 -75 0 -26 -30 -31 -32 -31 -16 0 33 58 91 89 90 l26 -1 -25 -8z m-581 -62 c-1 -31 -1 -31 -8 -8 -5 14 -6 28 -4 33 9 15 13 6 12 -25z m-471 -7 c-7 -9 -14 -18 -15 -20 -2 -2 -3 5 -3 16 0 11 7 20 15 20 12 0 12 -3 3 -16z m522 -26 c-24 -24 -47 -42 -52 -39 -4 3 -8 0 -8 -7 0 -7 -3 -10 -6 -6 -3 3 -3 15 1 28 5 15 9 18 15 9 6 -9 18 -2 46 24 54 50 57 45 4 -9z m-961 -29 c1 -5 -5 -3 -13 4 -8 6 -12 19 -9 27 6 14 8 14 14 -3 4 -10 8 -23 8 -28z m1388 -91 c-2 -20 -9 -41 -15 -47 -7 -7 -8 0 -1 28 4 22 9 42 9 47 0 4 2 7 5 7 3 0 4 -16 2 -35z m53 5 c0 -5 -10 -15 -22 -21 -23 -12 -23 -12 -4 10 21 23 26 26 26 11z m-1710 -75 c13 -14 19 -25 13 -25 -5 0 -20 11 -33 25 -13 14 -19 25 -13 25 5 0 20 -11 33 -25z m45 -35 c4 -6 -7 -10 -27 -9 -27 0 -30 2 -13 9 27 12 33 12 40 0z m-65 -10 c0 -5 -9 -10 -21 -10 -11 0 -30 -5 -41 -11 -15 -8 -19 -8 -13 1 14 22 75 39 75 20z m1710 -130 c-23 -18 -91 -48 -78 -34 8 7 91 53 98 53 3 0 -6 -8 -20 -19z m-1654 -162 c-11 -15 -16 -18 -16 -7 0 16 21 42 28 34 2 -2 -3 -14 -12 -27z m374 -95 c0 -5 -5 -15 -10 -23 -7 -11 -10 -11 -10 -2 0 8 -5 10 -12 6 -9 -5 -9 -2 1 9 14 18 31 23 31 10z m1021 -40 c13 -15 17 -22 7 -15 -9 7 -18 9 -20 5 -3 -4 -3 -2 -2 5 2 6 -1 12 -6 12 -6 0 -10 5 -10 10 0 15 4 13 31 -17z m-505 -39 c11 -43 11 -47 -2 -30 -8 11 -14 30 -14 43 0 13 -4 23 -10 23 -5 0 -10 5 -10 11 0 6 5 9 12 7 7 -3 18 -27 24 -54z"/>
 </g>
<g id="layer104" fill="#d20908" stroke="none">
 <path d="M0 3145 l0 -3145 6750 0 6750 0 0 3145 0 3145 -6750 0 -6750 0 0 -3145z m7155 345 c8 -7 15 -9 15 -4 0 5 5 2 10 -7 11 -19 -9 -83 -35 -107 -16 -16 -17 -16 -7 3 5 11 12 37 16 57 6 32 3 39 -18 53 -38 25 -71 11 -95 -41 -18 -37 -20 -54 -13 -111 l7 -68 50 45 50 44 -45 -48 c-75 -79 -75 -79 -77 39 -3 102 7 147 37 165 15 9 86 -4 105 -20z m-609 -127 l7 -36 28 34 c16 19 29 31 29 27 0 -3 -15 -24 -34 -47 l-34 -40 -6 39 c-3 21 -9 46 -13 56 -4 11 -3 15 5 10 6 -4 14 -23 18 -43z m1064 27 c-16 -5 -19 -8 -8 -9 9 -1 23 -10 31 -21 8 -11 17 -17 20 -13 4 3 7 -3 7 -13 0 -24 -49 -103 -76 -124 -15 -11 -14 -9 3 10 44 51 55 133 18 138 -38 5 -74 -47 -89 -129 -8 -40 -13 -76 -10 -78 2 -2 15 6 29 19 14 13 25 19 25 13 0 -6 -19 -23 -42 -38 -23 -15 -39 -21 -36 -13 8 21 36 157 37 185 1 7 15 28 32 48 22 24 39 35 58 34 l26 -1 -25 -8z m-1491 -124 c1 -5 -5 -3 -13 4 -8 6 -12 19 -9 27 6 14 8 14 14 -3 4 -10 8 -23 8 -28z m-253 -173 c37 -32 37 -33 13 -33 -13 0 -49 -6 -78 -14 -46 -12 -51 -12 -38 1 8 8 34 17 58 20 l43 6 -49 45 c-56 50 -16 30 51 -25z m1694 -147 c0 -3 -18 -16 -40 -29 l-41 -24 31 -13 c17 -7 29 -15 26 -17 -5 -5 -76 24 -76 31 0 3 21 17 48 30 52 28 52 28 52 22z m-1669 -173 c-6 -10 -15 -34 -21 -53 l-10 -35 5 43 c3 23 3 42 0 42 -3 0 -24 -9 -45 -20 -22 -11 -40 -18 -40 -15 0 6 113 63 118 59 2 -1 -1 -10 -7 -21z m363 -120 c-9 -37 -14 -42 -14 -14 0 15 -4 20 -12 15 -9 -5 -9 -2 1 9 20 25 32 20 25 -10z m1032 -25 c16 -18 19 -25 7 -15 -21 18 -22 18 -26 0 -3 -11 -3 -9 -2 5 1 12 -2 22 -6 22 -5 0 -9 5 -9 10 0 15 4 13 36 -22z m-510 -34 c11 -43 11 -47 -2 -30 -8 11 -14 30 -14 43 0 34 -11 28 -49 -25 -40 -57 -38 -44 4 21 17 25 34 45 40 43 5 -1 15 -25 21 -52z"/>
 </g>
<g id="layer105" fill="#f20808" stroke="none">
 <path d="M0 3145 l0 -3145 6750 0 6750 0 0 3145 0 3145 -6750 0 -6750 0 0 -3145z m7115 375 c-21 -5 -24 -8 -10 -9 11 0 31 -8 43 -17 12 -8 22 -12 22 -7 0 4 5 1 10 -8 15 -26 -14 -88 -74 -155 -90 -100 -91 -100 -93 21 -4 139 21 185 97 183 l35 0 -30 -8z m-624 -14 c5 3 9 -4 9 -16 0 -11 11 -42 25 -68 14 -26 25 -56 25 -66 0 -18 1 -18 24 3 14 13 30 36 37 52 6 16 14 28 16 25 7 -7 -27 -68 -57 -103 l-28 -31 -6 42 c-4 24 -20 70 -36 102 -16 32 -29 64 -29 69 0 6 3 4 6 -3 2 -6 9 -10 14 -6z m-377 -224 c10 -30 5 -28 -35 15 -20 23 -23 28 -7 14 l27 -23 -4 58 -4 59 8 -50 c5 -28 11 -61 15 -73z m1509 110 c-8 -5 -6 -13 7 -29 9 -12 20 -19 24 -16 3 4 6 -1 6 -11 0 -26 -25 -69 -71 -123 -45 -51 -116 -106 -107 -82 8 22 36 158 37 186 2 26 63 83 90 83 15 0 21 -3 14 -8z m-2025 -189 c-10 -2 -18 -8 -18 -12 0 -4 -7 -8 -16 -8 -14 0 -14 2 2 14 10 7 25 12 33 12 13 -1 12 -2 -1 -6z m147 -28 c28 -14 74 -44 102 -67 l53 -43 -64 -12 c-35 -6 -86 -23 -114 -37 -28 -14 -58 -26 -67 -26 -25 0 -17 17 12 25 15 3 50 17 79 31 28 13 63 24 77 24 38 0 33 15 -15 51 -50 36 -106 63 -130 61 -10 0 -18 4 -18 9 0 6 -4 7 -10 4 -5 -3 -10 -1 -10 5 0 16 41 6 105 -25z m1819 -226 c-10 -12 -32 -30 -49 -40 l-29 -18 34 -15 c19 -8 29 -15 22 -16 -16 0 -82 27 -82 34 0 3 22 17 49 31 27 13 52 29 56 35 3 5 9 10 12 10 3 0 -2 -10 -13 -21z m106 -103 c0 -9 -50 -12 -62 -5 -8 6 1 9 25 9 20 0 37 -2 37 -4z m-1779 -73 c-6 -10 -15 -34 -21 -53 l-10 -35 4 42 c4 47 0 48 -69 5 -29 -18 -36 -20 -25 -7 13 16 121 74 128 69 2 -1 -1 -10 -7 -21z m364 -115 c-3 -13 -10 -43 -15 -68 l-9 -45 3 57 3 56 -36 -25 c-35 -24 -35 -24 4 11 47 42 57 45 50 14z m1031 -30 c16 -18 19 -24 7 -14 -23 19 -23 19 -23 -4 0 -13 -2 -21 -4 -19 -4 5 -16 69 -13 69 2 0 16 -15 33 -32z m-506 -38 c9 -30 24 -70 34 -88 10 -19 16 -36 13 -38 -4 -5 -61 106 -71 139 -8 25 -21 14 -57 -46 -17 -29 -27 -41 -23 -27 9 33 67 119 78 116 5 -1 16 -26 26 -56z m-641 -35 c-11 -19 -20 -42 -19 -52 1 -10 2 -26 1 -37 -1 -15 -4 -16 -16 -6 -18 15 -13 38 22 93 29 47 39 49 12 2z m97 -79 c-4 -18 -16 -46 -27 -60 -19 -25 -22 -25 -49 -11 -16 8 -32 20 -36 26 -5 8 -1 8 14 0 11 -6 27 -11 34 -11 15 1 58 65 58 87 0 9 3 14 6 10 4 -3 3 -22 0 -41z m430 -23 c-10 -26 -18 -8 -9 23 5 21 8 24 11 11 2 -10 1 -25 -2 -34z"/>
 <path d="M7069 3463 c-1 -5 -1 -11 0 -15 0 -4 -5 -5 -13 -2 -19 7 -39 -48 -31 -85 4 -17 12 -31 18 -31 7 0 21 -3 33 -6 42 -11 94 102 62 134 -13 13 -67 17 -69 5z"/>
 <path d="M7550 3322 c-32 -26 -42 -115 -14 -126 14 -5 28 2 52 29 27 29 33 43 30 73 -4 44 -31 54 -68 24z"/>
 </g>
<g id="layer106" fill="#dc1f21" stroke="none">
 <path d="M0 3145 l0 -3145 6750 0 6750 0 0 3145 0 3145 -6750 0 -6750 0 0 -3145z m6530 475 c-11 -7 -7 -10 18 -10 18 0 47 -7 65 -16 l32 -17 -20 24 -19 24 24 -23 c20 -18 25 -32 24 -70 0 -26 -5 -56 -12 -67 -9 -17 -10 -15 -6 15 4 26 1 42 -16 63 -42 53 -120 23 -120 -45 0 -38 33 -98 54 -98 8 0 21 -2 28 -5 9 -4 20 5 28 20 7 14 15 23 17 21 7 -7 -28 -69 -57 -103 l-28 -31 -6 42 c-4 24 -20 70 -36 102 -37 74 -39 122 -5 158 13 14 30 26 37 26 9 0 9 -3 -2 -10z m-481 -71 c32 -30 42 -62 51 -164 5 -49 12 -99 16 -110 5 -14 -3 -10 -29 14 -42 40 -45 47 -17 56 16 5 20 15 20 50 0 54 -15 90 -44 103 -47 21 -74 -35 -45 -90 7 -12 7 -18 1 -14 -11 7 -42 91 -42 113 0 8 5 11 10 8 6 -3 10 -1 10 5 0 6 12 16 26 22 23 11 24 13 7 19 -14 6 -14 8 -2 8 8 1 25 -8 38 -20z m1066 -29 c-21 -5 -24 -8 -10 -9 11 0 31 -8 43 -17 12 -8 22 -12 22 -7 0 4 5 1 10 -8 15 -26 -14 -88 -74 -155 -90 -100 -91 -100 -93 21 -4 139 21 185 97 183 l35 0 -30 -8z m508 -128 c-8 -5 -6 -13 7 -29 9 -12 20 -19 24 -16 3 4 6 -1 6 -11 0 -26 -25 -69 -71 -123 -45 -51 -116 -106 -107 -82 8 22 36 158 37 186 2 26 63 83 90 83 15 0 21 -3 14 -8z m-1882 -215 c30 -15 78 -46 106 -69 l53 -43 -64 -12 c-35 -6 -86 -23 -114 -37 -87 -44 -176 -29 -202 34 -19 46 -6 100 31 134 28 25 37 28 84 24 29 -2 77 -16 106 -31z m1978 -158 c17 -6 36 -20 42 -31 8 -14 8 -18 0 -14 -6 4 -10 -4 -9 -21 2 -80 -4 -102 -31 -107 -42 -9 -110 -10 -117 -3 -4 4 11 7 34 7 32 0 45 6 61 26 12 15 21 34 21 44 0 10 -9 29 -21 44 -22 28 -56 34 -92 14 -21 -10 -21 -10 -7 7 13 16 63 43 81 45 3 0 20 -5 38 -11z m-157 -74 c-24 -30 -18 -73 12 -85 35 -14 3 -11 -52 5 -28 9 -54 20 -57 25 -3 5 17 21 44 34 27 14 52 30 56 36 3 5 8 10 11 10 3 0 -3 -11 -14 -25z m-1670 -167 c-5 -7 -13 -30 -17 -50 -4 -21 -11 -38 -16 -38 -5 0 -9 4 -9 9 0 5 -12 16 -26 26 -25 16 -26 16 -70 -28 -49 -50 -54 -72 -23 -111 17 -22 28 -26 57 -24 29 2 41 10 60 38 l24 35 -7 -30 c-4 -16 -11 -42 -17 -56 -12 -33 -68 -65 -94 -54 -11 4 -14 9 -8 12 6 2 -6 21 -27 42 -22 21 -39 47 -39 57 0 43 83 126 165 166 52 26 65 27 47 6z m363 -120 c-3 -13 -9 -43 -14 -68 -5 -27 -9 -35 -10 -20 -1 27 -34 54 -54 45 -7 -4 6 10 28 29 47 42 57 44 50 14z m1056 -61 c24 -28 34 -44 22 -34 -17 15 -26 16 -42 8 -18 -10 -21 -8 -26 14 -3 14 -7 37 -10 51 -7 33 3 26 56 -39z m-531 -7 c10 -30 28 -77 40 -104 15 -34 20 -58 16 -82 -6 -32 -46 -74 -70 -74 -6 0 -4 5 4 10 12 8 11 10 -8 10 -12 0 -39 7 -59 15 -35 15 -36 15 -22 -3 8 -10 4 -7 -8 6 -28 28 -29 76 -5 143 21 55 74 139 86 136 5 -2 16 -27 26 -57z m-643 -40 c-20 -37 -21 -42 -7 -67 9 -16 26 -29 39 -31 24 -4 57 20 64 47 3 9 3 1 1 -18 -3 -37 -27 -79 -50 -88 -10 -4 -30 10 -55 38 -43 48 -43 57 -2 122 31 49 37 48 10 -3z m1159 -100 c44 -42 103 -26 88 24 -5 15 -3 18 5 10 16 -15 28 -89 13 -80 -6 3 -13 2 -17 -4 -3 -5 -17 -10 -31 -10 -18 0 -23 -4 -18 -12 5 -8 -2 -7 -16 3 -35 22 -60 76 -59 124 l1 40 8 -38 c4 -21 16 -47 26 -57z"/>
 <path d="M7069 3463 c-1 -5 -1 -11 0 -15 0 -4 -5 -5 -13 -2 -19 7 -39 -48 -31 -85 4 -17 12 -31 18 -31 7 0 21 -3 33 -6 42 -11 94 102 62 134 -13 13 -67 17 -69 5z"/>
 <path d="M7550 3322 c-32 -26 -42 -115 -14 -126 14 -5 28 2 52 29 27 29 33 43 30 73 -4 44 -31 54 -68 24z"/>
 <path d="M5549 3161 c-30 -30 -38 -72 -19 -101 7 -11 10 -4 10 27 0 30 7 50 26 72 33 39 22 40 -17 2z"/>
 <path d="M5616 3157 c-34 -34 -34 -79 -1 -112 30 -31 66 -31 125 -2 37 18 46 28 48 54 2 25 -3 35 -28 53 -18 13 -51 25 -75 28 -37 4 -47 1 -69 -21z"/>
 <path d="M6694 2545 c-9 -14 -19 -45 -21 -69 -5 -38 -2 -45 22 -64 15 -12 36 -22 47 -22 28 0 68 45 68 76 0 36 -35 90 -63 98 -33 9 -35 8 -53 -19z"/>
 </g>
<g id="layer107" fill="#795353" stroke="none">
 <path d="M0 3145 l0 -3145 6750 0 6750 0 0 3145 0 3145 -6750 0 -6750 0 0 -3145z m6530 475 c-11 -7 -4 -10 25 -10 22 0 52 -8 65 -17 l25 -17 -20 25 -20 24 28 -24 c20 -18 27 -34 27 -60 0 -59 -39 -149 -90 -208 l-28 -31 -6 42 c-4 24 -20 70 -36 102 -39 78 -40 135 -4 163 15 12 32 21 38 21 6 0 4 -5 -4 -10z m-481 -71 c32 -30 42 -62 51 -164 5 -49 12 -99 16 -110 5 -14 -3 -10 -29 14 -42 40 -45 47 -17 56 16 5 20 15 20 50 0 54 -15 90 -44 103 -47 21 -74 -35 -45 -90 7 -12 7 -18 1 -14 -11 7 -42 91 -42 113 0 8 5 11 10 8 6 -3 10 -1 10 5 0 6 12 16 26 22 23 11 24 13 7 19 -14 6 -14 8 -2 8 8 1 25 -8 38 -20z m1078 -28 c-17 -6 -16 -8 10 -20 15 -7 29 -11 31 -9 2 1 7 -4 12 -12 16 -29 -14 -91 -74 -157 -91 -99 -91 -99 -93 22 -4 138 21 185 97 184 25 0 30 -2 17 -8z m496 -129 c-8 -5 -6 -13 7 -29 9 -12 20 -19 24 -16 10 11 7 -27 -5 -50 -25 -49 -92 -126 -131 -152 -23 -15 -39 -21 -36 -13 8 21 36 157 37 185 2 26 63 83 90 83 15 0 21 -3 14 -8z m-1882 -215 c30 -15 78 -46 106 -69 l53 -43 -64 -12 c-35 -6 -86 -23 -114 -37 -114 -58 -212 -17 -212 90 0 28 8 44 35 71 33 33 38 35 89 31 30 -2 77 -16 107 -31z m1994 -163 c20 -13 47 -53 27 -40 -4 2 -8 -12 -9 -32 -2 -88 -4 -91 -38 -98 -54 -10 -94 -11 -108 -2 -7 4 5 8 30 8 33 0 46 5 62 26 27 35 26 59 -4 89 -34 35 -68 32 -114 -10 -30 -28 -37 -40 -33 -61 2 -14 14 -29 26 -34 35 -14 3 -11 -52 5 -28 9 -54 20 -57 25 -3 5 9 17 27 26 18 9 56 34 83 55 80 60 118 71 160 43z m42 -101 c-3 -10 -5 -2 -5 17 0 19 2 27 5 18 2 -10 2 -26 0 -35z m-1886 -140 c-6 -10 -17 -40 -25 -68 -10 -36 -14 -43 -15 -24 -1 17 -11 33 -27 44 -25 16 -26 16 -70 -28 -49 -49 -54 -72 -23 -111 36 -46 119 -23 119 34 0 11 5 20 10 20 15 0 12 -34 -5 -78 -19 -47 -65 -77 -103 -67 -25 7 -25 8 -7 15 11 5 14 9 7 9 -19 1 -72 62 -72 84 0 51 67 119 164 168 28 14 52 25 54 23 2 -1 -1 -10 -7 -21z m364 -110 c-6 -16 -13 -94 -14 -185 -1 -41 -46 -88 -84 -88 -20 0 -27 3 -19 8 9 7 7 13 -9 28 -12 10 -24 17 -28 14 -17 -13 -10 45 11 86 36 73 169 199 143 137z m1056 -66 c24 -28 34 -44 22 -34 -17 15 -26 16 -42 8 -18 -10 -21 -8 -26 14 -3 14 -7 37 -10 51 -7 33 3 26 56 -39z m-535 5 c6 -24 22 -64 35 -90 26 -54 31 -121 9 -147 -23 -28 -77 -48 -98 -36 -13 8 -9 11 23 12 l40 1 -35 7 c-19 4 -46 13 -60 21 -24 12 -24 12 -10 -7 8 -10 5 -8 -7 5 -28 28 -29 76 -5 143 21 55 74 139 86 136 5 -2 15 -22 22 -45z m520 -151 c10 -11 29 -22 40 -25 29 -9 57 19 48 48 -5 15 -3 18 5 10 16 -15 28 -89 13 -80 -6 3 -13 2 -17 -4 -3 -5 -17 -10 -31 -10 -18 0 -23 -4 -18 -12 5 -8 -2 -7 -16 3 -36 23 -60 77 -59 129 l2 45 6 -43 c4 -24 16 -51 27 -61z"/>
 <path d="M6522 3550 c-14 -13 -22 -33 -22 -52 0 -35 35 -98 55 -98 7 0 20 -3 28 -6 10 -3 21 9 36 39 26 54 26 77 0 111 -25 32 -66 34 -97 6z m78 -5 c0 -8 -9 -15 -20 -15 -11 0 -20 7 -20 15 0 8 9 15 20 15 11 0 20 -7 20 -15z"/>
 <path d="M7074 3456 c-3 -8 -11 -13 -18 -10 -13 5 -36 -35 -36 -61 0 -17 13 -26 57 -35 31 -8 36 -6 54 23 10 18 19 40 19 49 0 38 -64 66 -76 34z"/>
 <path d="M7562 3333 c-17 -7 -42 -57 -42 -83 0 -12 10 -25 26 -32 24 -11 29 -10 50 17 31 38 30 99 -1 102 -11 1 -26 -1 -33 -4z"/>
 <path d="M5547 3162 c-22 -24 -32 -76 -18 -99 9 -15 10 -12 11 20 0 21 7 51 15 67 18 34 15 38 -8 12z"/>
 <path d="M5615 3155 c-46 -45 -24 -115 40 -131 17 -4 43 2 78 17 48 22 52 27 52 59 0 29 -5 37 -40 57 -53 30 -99 30 -130 -2z"/>
 <path d="M6166 2589 c-49 -58 -46 -131 6 -137 37 -4 58 30 58 93 0 39 -4 53 -19 62 -17 11 -23 8 -45 -18z"/>
 <path d="M6694 2545 c-9 -14 -19 -45 -21 -69 -5 -38 -2 -45 22 -64 15 -12 36 -22 47 -22 25 0 68 44 68 70 0 35 -37 97 -62 104 -34 9 -36 8 -54 -19z"/>
 </g>
<g id="layer108" fill="#cf302d" stroke="none">
 <path d="M0 3145 l0 -3145 6750 0 6750 0 0 3145 0 3145 -6750 0 -6750 0 0 -3145z m6530 475 c-11 -7 -4 -10 25 -10 22 0 52 -8 65 -17 l25 -17 -20 25 -20 24 28 -24 c44 -40 35 -107 -29 -221 -18 -31 -38 -61 -47 -68 -12 -11 -16 -6 -21 31 -4 24 -20 71 -36 103 -39 78 -40 135 -4 163 15 12 32 21 38 21 6 0 4 -5 -4 -10z m-481 -71 c32 -30 42 -62 51 -164 5 -49 12 -99 16 -110 5 -14 -3 -10 -29 14 -42 40 -45 47 -17 56 16 5 20 15 20 50 0 54 -15 90 -44 103 -47 21 -74 -35 -45 -90 7 -12 7 -18 1 -14 -11 7 -42 91 -42 113 0 8 5 11 10 8 6 -3 10 -1 10 5 0 6 12 16 26 22 23 11 24 13 7 19 -14 6 -14 8 -2 8 8 1 25 -8 38 -20z m1078 -28 c-17 -6 -16 -8 10 -20 15 -7 29 -11 31 -9 2 1 7 -4 12 -12 18 -32 -14 -92 -92 -174 -42 -45 -79 -78 -82 -75 -3 3 -2 20 4 37 5 18 6 64 3 103 -9 102 26 159 97 158 25 0 30 -2 17 -8z m496 -129 c-8 -5 -6 -13 7 -29 9 -12 20 -19 24 -16 3 4 6 -3 6 -13 0 -43 -91 -157 -168 -212 l-32 -23 19 44 c11 25 23 67 27 94 5 26 9 51 10 56 1 4 2 14 3 22 2 28 62 85 90 85 15 0 21 -3 14 -8z m-1882 -215 c30 -15 78 -46 106 -69 l53 -43 -64 -12 c-35 -6 -86 -23 -114 -37 -114 -58 -212 -17 -212 90 0 28 8 44 35 71 33 33 38 35 89 31 30 -2 77 -16 107 -31z m1994 -163 c20 -13 47 -53 27 -40 -4 2 -8 -12 -9 -32 -2 -88 -4 -91 -38 -98 -54 -10 -94 -11 -108 -2 -7 4 5 8 30 8 33 0 46 5 62 26 27 35 26 59 -4 89 -34 35 -68 32 -114 -10 -30 -28 -37 -40 -33 -61 2 -14 14 -30 26 -35 35 -15 -44 1 -86 18 -45 18 -48 28 -10 36 15 3 52 24 82 47 91 70 132 82 175 54z m42 -101 c-3 -10 -5 -2 -5 17 0 19 2 27 5 18 2 -10 2 -26 0 -35z m-1902 -188 c-16 -46 -24 -61 -24 -44 -1 17 -10 33 -27 44 -25 16 -26 16 -70 -28 -49 -49 -54 -72 -23 -111 36 -46 119 -23 119 34 0 11 5 20 10 20 15 0 12 -34 -5 -78 -19 -47 -65 -77 -103 -67 -25 7 -25 8 -7 15 11 5 14 9 7 9 -19 1 -72 62 -72 84 0 50 69 121 165 170 28 14 51 24 52 24 0 -1 -9 -33 -22 -72z m378 -77 c-8 -29 -13 -71 -12 -93 3 -80 -1 -104 -27 -134 -19 -23 -34 -31 -57 -31 -20 0 -27 3 -19 8 9 7 7 13 -9 28 -12 10 -24 17 -28 14 -17 -13 -10 45 11 87 20 39 136 173 150 173 3 0 -1 -24 -9 -52z m553 -124 c31 -66 37 -132 14 -159 -23 -28 -77 -48 -98 -36 -13 8 -9 11 23 12 l40 1 -35 7 c-19 4 -46 13 -60 21 -24 12 -24 12 -10 -7 8 -10 5 -8 -7 5 -46 47 -19 156 67 271 l25 34 6 -45 c4 -24 19 -71 35 -104z m505 73 c24 -28 34 -44 22 -34 -17 15 -26 16 -42 8 -18 -10 -21 -8 -26 14 -3 14 -7 37 -10 51 -7 33 3 26 56 -39z m-15 -146 c10 -11 29 -22 40 -25 29 -9 57 19 48 48 -5 15 -3 18 5 10 16 -15 28 -89 13 -80 -6 3 -13 2 -17 -4 -3 -5 -17 -10 -31 -10 -18 0 -23 -4 -18 -12 5 -8 -2 -7 -16 3 -36 23 -60 77 -59 129 l2 45 6 -43 c4 -24 16 -51 27 -61z"/>
 <path d="M6522 3550 c-14 -13 -22 -33 -22 -52 0 -35 35 -98 55 -98 7 0 20 -3 28 -6 10 -3 21 9 36 39 26 54 26 77 0 111 -25 32 -66 34 -97 6z m78 -5 c0 -8 -9 -15 -20 -15 -11 0 -20 7 -20 15 0 8 9 15 20 15 11 0 20 -7 20 -15z"/>
 <path d="M7074 3456 c-3 -8 -11 -13 -18 -10 -13 5 -36 -35 -36 -61 0 -17 13 -26 57 -35 31 -8 36 -6 54 23 10 18 19 40 19 49 0 38 -64 66 -76 34z"/>
 <path d="M7562 3333 c-17 -7 -42 -57 -42 -83 0 -12 10 -25 26 -32 24 -11 29 -10 50 17 31 38 30 99 -1 102 -11 1 -26 -1 -33 -4z"/>
 <path d="M5547 3162 c-22 -24 -32 -76 -18 -99 9 -15 10 -12 11 20 0 21 7 51 15 67 18 34 15 38 -8 12z"/>
 <path d="M5615 3155 c-46 -45 -24 -115 40 -131 17 -4 43 2 78 17 48 22 52 27 52 59 0 29 -5 37 -40 57 -53 30 -99 30 -130 -2z"/>
 <path d="M6166 2589 c-49 -58 -46 -131 6 -137 37 -4 58 30 58 93 0 39 -4 53 -19 62 -17 11 -23 8 -45 -18z"/>
 <path d="M6694 2545 c-9 -14 -19 -45 -21 -69 -5 -38 -2 -45 22 -64 15 -12 36 -22 47 -22 25 0 68 44 68 70 0 35 -37 97 -62 104 -34 9 -36 8 -54 -19z"/>
 </g>
<g id="layer109" fill="#f9241e" stroke="none">
 <path d="M0 3145 l0 -3145 6750 0 6750 0 0 3145 0 3145 -6750 0 -6750 0 0 -3145z m6530 475 c-11 -7 -4 -10 25 -10 22 0 52 -7 65 -16 22 -14 22 -12 -3 10 -15 14 -24 26 -19 26 4 0 20 -13 35 -28 43 -45 35 -109 -29 -222 -18 -31 -38 -61 -47 -68 -12 -11 -16 -6 -21 31 -4 23 -20 70 -36 102 -39 79 -40 135 -4 164 15 12 32 21 38 21 6 0 4 -5 -4 -10z m-481 -71 c32 -30 42 -62 51 -164 5 -49 12 -99 16 -110 4 -13 -7 -7 -35 20 l-42 40 26 8 c22 8 25 14 25 52 0 54 -15 90 -44 103 -47 21 -74 -35 -45 -90 7 -12 7 -18 1 -14 -11 7 -42 91 -42 113 0 8 5 11 10 8 6 -3 10 -1 10 5 0 6 12 16 26 22 23 11 24 13 7 19 -14 6 -14 8 -2 8 8 1 25 -8 38 -20z m1096 -25 c8 -4 22 -19 30 -34 24 -46 1 -94 -86 -185 -43 -44 -80 -77 -83 -74 -3 3 -1 20 4 38 5 18 6 61 3 96 -3 35 -3 75 1 90 14 55 78 89 131 69z m489 -130 c9 -3 16 -11 16 -16 0 -6 -7 -4 -17 3 -15 13 -15 12 -3 -8 8 -12 18 -19 22 -17 4 3 8 -5 8 -18 0 -39 -56 -123 -112 -170 -95 -79 -91 -77 -69 -26 10 24 22 64 25 88 14 89 18 102 48 136 29 33 50 40 82 28z m-1893 -217 c30 -15 78 -46 106 -69 l53 -43 -64 -12 c-35 -6 -86 -23 -114 -37 -114 -58 -212 -17 -212 90 0 28 8 44 35 71 33 33 38 35 89 31 30 -2 77 -16 107 -31z m2000 -168 c16 -11 29 -25 29 -30 0 -6 -4 -8 -8 -5 -4 2 -8 -12 -9 -32 -2 -93 -1 -90 -57 -102 -56 -11 -113 -1 -203 35 -50 20 -54 30 -14 38 16 4 53 26 83 50 84 68 131 80 179 46z m36 -96 c-3 -10 -5 -2 -5 17 0 19 2 27 5 18 2 -10 2 -26 0 -35z m-1888 -145 c-7 -12 -16 -64 -20 -115 -5 -70 -12 -99 -28 -121 -24 -34 -70 -49 -98 -33 -17 10 -17 10 2 11 l20 1 -20 11 c-11 6 -32 24 -46 39 -24 26 -25 30 -13 65 7 21 28 52 46 71 31 30 158 106 166 98 2 -2 -2 -14 -9 -27z m365 -119 c-8 -29 -13 -77 -12 -108 2 -80 -9 -118 -42 -141 -38 -27 -54 -25 -85 12 -34 40 -30 76 18 150 26 41 119 138 132 138 1 0 -4 -23 -11 -51z m551 -125 c36 -80 42 -117 20 -150 -21 -33 -79 -58 -103 -45 -13 8 -9 11 23 12 l40 1 -35 7 c-19 4 -46 13 -60 21 -24 12 -24 12 -10 -7 8 -10 5 -8 -7 5 -47 48 -20 159 65 270 l27 35 6 -45 c4 -24 19 -71 34 -104z m506 74 c29 -35 41 -52 27 -40 -21 20 -30 22 -47 13 -22 -12 -19 -17 -36 64 -3 14 -3 25 -1 25 2 0 28 -28 57 -62z m-15 -147 c10 -11 29 -22 40 -25 29 -9 57 19 48 48 -5 15 -3 18 5 10 16 -15 28 -89 13 -80 -6 3 -13 2 -17 -4 -3 -5 -17 -10 -31 -10 -18 0 -23 -4 -18 -12 5 -8 -2 -7 -16 3 -36 23 -60 77 -59 129 l2 45 6 -43 c4 -24 16 -51 27 -61z"/>
 <path d="M6522 3550 c-14 -13 -22 -33 -22 -52 0 -35 35 -98 55 -98 7 0 20 -3 28 -6 10 -3 21 9 36 39 26 54 26 77 0 111 -25 32 -66 34 -97 6z m78 -5 c0 -8 -9 -15 -20 -15 -11 0 -20 7 -20 15 0 8 9 15 20 15 11 0 20 -7 20 -15z"/>
 <path d="M7073 3457 c-4 -8 -16 -17 -26 -20 -12 -5 -17 -15 -15 -29 2 -18 12 -24 47 -31 49 -10 61 -1 61 45 0 39 -49 64 -67 35z"/>
 <path d="M7570 3323 c0 -9 -3 -13 -7 -10 -9 10 -33 -13 -33 -32 0 -9 13 -24 29 -34 29 -17 30 -17 45 5 19 27 21 59 4 76 -17 17 -38 15 -38 -5z"/>
 <path d="M5547 3162 c-22 -24 -32 -76 -18 -99 9 -15 10 -12 11 20 0 21 7 51 15 67 18 34 15 38 -8 12z"/>
 <path d="M5615 3155 c-31 -30 -32 -73 -5 -103 32 -35 65 -37 123 -11 48 22 52 27 52 59 0 29 -5 37 -40 57 -53 30 -99 30 -130 -2z"/>
 <path d="M7581 2955 c-64 -58 -38 -105 59 -105 30 0 43 6 59 26 27 35 26 59 -4 89 -34 35 -68 32 -114 -10z"/>
 <path d="M5754 2697 c-49 -49 -54 -72 -23 -111 36 -45 101 -30 117 27 14 49 4 94 -25 112 -24 16 -25 15 -69 -28z"/>
 <path d="M6166 2589 c-32 -38 -42 -74 -30 -108 11 -30 41 -38 68 -18 14 11 21 30 24 73 3 51 1 61 -17 71 -17 11 -23 9 -45 -18z"/>
 <path d="M6110 2433 c0 -12 28 -38 34 -32 2 2 -5 13 -15 23 -11 11 -19 15 -19 9z"/>
 <path d="M6694 2545 c-9 -14 -19 -45 -21 -69 -5 -38 -2 -45 22 -64 15 -12 36 -22 47 -22 25 0 68 44 68 70 0 35 -37 97 -62 104 -34 9 -36 8 -54 -19z"/>
 </g>
<g id="layer110" fill="#cc443d" stroke="none">
 <path d="M0 3145 l0 -3145 6750 0 6750 0 0 3145 0 3145 -6750 0 -6750 0 0 -3145z m6560 483 c-25 -11 -25 -11 10 -18 20 -3 42 -10 50 -14 8 -4 4 2 -9 13 -13 12 -20 21 -15 21 4 0 21 -12 36 -27 33 -31 36 -73 13 -141 -16 -45 -76 -145 -93 -156 -5 -3 -13 13 -16 37 -4 24 -20 70 -36 102 -56 113 -29 190 70 193 8 0 4 -4 -10 -10z m-514 -76 c35 -28 46 -60 54 -161 5 -53 11 -105 16 -116 12 -33 -63 43 -105 107 -21 31 -42 73 -45 93 -6 31 -4 39 19 56 14 12 23 25 20 30 -10 15 19 10 41 -9z m1099 -28 c8 -4 22 -19 30 -34 24 -46 1 -94 -86 -185 -43 -44 -80 -77 -83 -74 -3 3 -1 20 4 38 5 18 6 61 3 96 -3 35 -3 75 1 90 14 55 78 89 131 69z m489 -130 c9 -3 16 -11 16 -16 0 -6 -7 -4 -17 3 -15 13 -15 12 -3 -8 8 -12 18 -19 22 -17 4 3 8 -5 8 -18 0 -39 -56 -123 -112 -170 -95 -79 -91 -77 -69 -26 10 24 22 64 25 88 14 89 18 102 48 136 29 33 50 40 82 28z m-1893 -217 c30 -15 78 -46 106 -69 l53 -43 -64 -12 c-35 -6 -86 -23 -114 -37 -114 -58 -212 -17 -212 90 0 28 8 44 35 71 33 33 38 35 89 31 30 -2 77 -16 107 -31z m2002 -170 c21 -16 29 -33 31 -62 3 -35 3 -36 -4 -10 -5 20 -8 24 -9 10 -1 -11 -4 -31 -8 -44 -4 -18 -3 -22 6 -16 10 6 11 3 2 -13 -17 -32 -103 -46 -172 -28 -69 18 -139 46 -139 56 0 4 13 10 29 13 16 4 53 26 83 50 85 69 135 81 181 44z m-1854 -239 c-7 -12 -16 -64 -20 -115 -8 -104 -29 -147 -78 -158 -30 -6 -83 13 -97 37 -4 6 3 4 17 -5 37 -26 43 -20 12 12 -15 16 -31 24 -34 19 -3 -5 -9 -1 -11 10 -8 30 18 92 54 129 31 30 158 106 166 98 2 -2 -2 -14 -9 -27z m365 -119 c-8 -29 -13 -77 -12 -108 2 -80 -9 -118 -42 -141 -38 -27 -54 -25 -85 12 -34 40 -30 76 18 150 26 41 119 138 132 138 1 0 -4 -23 -11 -51z m551 -125 c40 -87 43 -123 11 -161 -27 -32 -71 -47 -96 -32 -11 6 -5 9 20 10 l35 1 -30 8 c-16 4 -39 11 -50 16 -18 7 -19 6 -6 -12 7 -10 2 -6 -13 9 -50 54 -27 158 61 274 l28 36 6 -45 c4 -24 19 -71 34 -104z m580 -29 c34 -68 32 -86 -12 -107 -34 -16 -39 -16 -61 -2 -36 23 -52 73 -50 155 1 41 -2 85 -6 99 -11 38 97 -84 129 -145z"/>
 <path d="M6535 3558 c-28 -16 -35 -28 -35 -65 0 -39 30 -63 78 -63 28 0 35 5 47 35 11 24 12 41 6 59 -13 33 -28 40 -34 15 -7 -27 -32 -19 -31 10 1 24 -3 25 -31 9z"/>
 <path d="M5996 3484 c-10 -27 -7 -48 14 -82 20 -32 20 -32 51 -16 28 14 30 19 25 47 -3 17 -14 39 -23 49 -20 22 -59 24 -67 2z"/>
 <path d="M7073 3457 c-4 -8 -16 -17 -26 -20 -12 -5 -17 -15 -15 -29 2 -18 12 -24 47 -31 49 -10 61 -1 61 45 0 39 -49 64 -67 35z"/>
 <path d="M7570 3323 c0 -9 -3 -13 -7 -10 -9 10 -33 -13 -33 -32 0 -9 13 -24 29 -34 29 -17 30 -17 45 5 19 27 21 59 4 76 -17 17 -38 15 -38 -5z"/>
 <path d="M5547 3162 c-21 -24 -33 -77 -18 -86 7 -5 11 2 11 19 0 14 7 39 15 55 18 34 15 38 -8 12z"/>
 <path d="M5615 3155 c-63 -62 10 -160 94 -125 20 8 31 21 35 42 12 60 7 76 -26 92 -44 22 -75 20 -103 -9z"/>
 <path d="M7602 2974 c-27 -18 -31 -84 -6 -108 39 -40 117 -4 117 54 0 58 -62 89 -111 54z"/>
 <path d="M5745 2685 c-33 -32 -34 -87 -3 -109 50 -35 108 -4 108 58 0 28 -6 38 -34 55 -42 26 -42 26 -71 -4z"/>
 <path d="M6145 2560 c-31 -60 -10 -118 39 -106 47 12 63 93 24 120 -32 23 -45 20 -63 -14z"/>
 <path d="M6110 2433 c0 -12 28 -38 34 -32 2 2 -5 13 -15 23 -11 11 -19 15 -19 9z"/>
 <path d="M6680 2504 c-15 -37 -12 -59 8 -85 38 -46 122 -16 122 45 0 42 -27 66 -76 66 -39 0 -46 -3 -54 -26z"/>
 <path d="M7275 2530 c-12 -19 6 -70 30 -86 56 -36 92 3 60 65 -13 25 -22 31 -50 31 -18 0 -37 -5 -40 -10z"/>
 </g>
<g id="layer111" fill="#fa3b33" stroke="none">
 <path d="M0 3145 l0 -3145 6750 0 6750 0 0 3145 0 3145 -6750 0 -6750 0 0 -3145z m6560 483 c-25 -11 -25 -11 10 -18 20 -3 42 -10 50 -14 8 -4 4 2 -9 13 -13 12 -19 21 -14 21 5 0 22 -13 37 -29 25 -27 28 -35 24 -79 -5 -55 -33 -119 -80 -183 l-31 -43 -16 65 c-9 35 -26 78 -39 96 -31 44 -31 121 1 150 21 20 46 30 77 31 8 0 4 -4 -10 -10z m-514 -76 c35 -28 46 -60 54 -161 5 -53 11 -105 15 -116 5 -12 -10 -3 -39 25 -52 50 -100 127 -111 178 -6 28 -3 36 19 53 15 11 24 25 21 30 -10 15 19 10 41 -9z m1099 -28 c8 -4 22 -19 30 -34 24 -46 1 -94 -86 -185 -43 -44 -80 -77 -83 -74 -3 3 -1 20 4 38 5 18 6 61 3 96 -3 35 -3 75 1 90 14 55 78 89 131 69z m503 -143 c3 -9 0 -11 -9 -7 -8 4 -6 1 4 -7 48 -40 -19 -144 -166 -256 -16 -13 -16 -11 2 31 10 24 22 64 25 88 14 89 18 102 48 136 25 28 37 34 61 32 17 -2 33 -9 35 -17z m-1907 -204 c30 -15 78 -46 106 -69 l53 -43 -64 -12 c-35 -6 -86 -23 -114 -37 -114 -58 -212 -17 -212 90 0 28 8 44 35 71 33 33 38 35 89 31 30 -2 77 -16 107 -31z m2008 -176 c25 -23 31 -36 30 -68 l-2 -38 -7 35 c-4 19 -8 26 -9 15 -1 -11 -4 -31 -8 -44 -4 -18 -3 -22 6 -16 10 6 11 3 2 -13 -11 -21 -59 -42 -97 -42 -50 0 -214 54 -214 70 0 4 13 10 28 13 16 3 53 25 83 49 72 57 88 66 125 67 22 1 41 -8 63 -28z m-1864 -244 c-9 -21 -15 -67 -15 -109 0 -55 -5 -81 -20 -106 -34 -56 -92 -65 -141 -21 l-24 21 25 -16 c38 -25 44 -19 13 13 -16 16 -31 24 -34 18 -4 -5 -10 4 -14 21 -12 58 45 128 155 186 36 19 66 33 67 32 2 -2 -4 -19 -12 -39z m369 -107 c-7 -28 -13 -80 -12 -118 0 -77 -11 -113 -44 -136 -33 -24 -53 -20 -83 16 -34 40 -30 78 16 149 24 38 121 139 134 139 1 0 -4 -23 -11 -50z m555 -132 c17 -33 31 -75 31 -93 0 -61 -75 -120 -120 -94 -11 6 -5 9 20 10 l35 1 -30 8 c-16 4 -39 11 -50 16 -18 7 -19 6 -6 -12 7 -10 2 -6 -13 9 -50 54 -27 158 61 274 l28 36 7 -47 c4 -26 20 -75 37 -108z m576 -22 c34 -68 32 -87 -12 -108 -34 -16 -39 -16 -61 -2 -36 24 -52 74 -50 156 0 40 -2 84 -6 98 -11 38 98 -84 129 -144z"/>
 <path d="M6535 3558 c-28 -16 -35 -28 -35 -65 0 -39 30 -63 78 -63 28 0 35 5 47 35 11 24 12 41 6 59 -13 33 -28 40 -34 15 -7 -27 -32 -19 -31 10 1 24 -3 25 -31 9z"/>
 <path d="M5996 3484 c-10 -27 -7 -48 14 -82 20 -32 20 -32 51 -16 28 14 30 19 25 47 -3 17 -14 39 -23 49 -20 22 -59 24 -67 2z"/>
 <path d="M7078 3448 c-53 -14 -56 -35 -7 -48 61 -17 81 -3 63 44 -7 18 -5 18 -56 4z"/>
 <path d="M7570 3325 c0 -8 -5 -14 -11 -12 -25 5 -18 -22 11 -43 16 -12 31 -18 32 -13 6 31 2 69 -6 75 -17 12 -26 9 -26 -7z"/>
 <path d="M5547 3162 c-21 -24 -33 -77 -18 -86 7 -5 11 2 11 19 0 14 7 39 15 55 18 34 15 38 -8 12z"/>
 <path d="M5615 3155 c-63 -62 10 -160 94 -125 20 8 31 21 35 42 12 60 7 76 -26 92 -44 22 -75 20 -103 -9z"/>
 <path d="M7602 2974 c-27 -18 -31 -84 -6 -108 39 -40 117 -4 117 54 0 58 -62 89 -111 54z"/>
 <path d="M5745 2685 c-33 -32 -34 -87 -3 -109 50 -35 108 -4 108 58 0 28 -6 38 -34 55 -42 26 -42 26 -71 -4z"/>
 <path d="M6145 2560 c-30 -58 -10 -118 37 -107 47 12 64 94 26 121 -32 23 -45 20 -63 -14z"/>
 <path d="M6680 2504 c-15 -37 -12 -59 8 -85 38 -46 122 -16 122 45 0 42 -27 66 -76 66 -39 0 -46 -3 -54 -26z"/>
 <path d="M7275 2530 c-12 -19 6 -70 30 -86 56 -36 92 3 60 65 -13 25 -22 31 -50 31 -18 0 -37 -5 -40 -10z"/>
 </g>
<g id="layer112" fill="#ce524d" stroke="none">
 <path d="M0 3145 l0 -3145 6750 0 6750 0 0 3145 0 3145 -6750 0 -6750 0 0 -3145z m6605 480 c17 -9 38 -27 45 -40 26 -49 -3 -151 -72 -246 l-31 -43 -16 65 c-9 35 -26 78 -39 96 -31 44 -31 121 1 150 19 18 40 28 70 32 5 0 24 -6 42 -14z m-564 -65 c33 -18 51 -70 59 -169 5 -53 11 -105 15 -116 5 -12 -13 0 -43 29 -65 63 -117 163 -108 207 11 56 35 71 77 49z m1104 -36 c8 -4 22 -19 30 -34 24 -46 1 -94 -86 -185 -43 -44 -80 -77 -83 -74 -3 3 -1 20 4 38 5 18 6 61 3 96 -3 35 -3 75 1 90 14 55 78 89 131 69z m503 -143 c3 -9 0 -11 -9 -7 -8 4 -6 1 4 -7 48 -40 -19 -144 -166 -256 -16 -13 -16 -11 2 31 10 24 22 64 25 88 14 89 18 102 48 136 25 28 37 34 61 32 17 -2 33 -9 35 -17z m-1907 -204 c30 -15 78 -46 106 -69 l53 -43 -64 -12 c-35 -6 -86 -23 -114 -37 -114 -58 -212 -17 -212 90 0 28 8 44 35 71 33 33 38 35 89 31 30 -2 77 -16 107 -31z m2009 -177 c30 -28 32 -34 27 -77 -11 -101 -103 -118 -274 -51 -60 23 -66 33 -25 41 16 3 53 25 83 49 72 57 88 66 125 67 23 1 42 -8 64 -29z m-1865 -243 c-9 -21 -15 -67 -15 -110 0 -60 -4 -80 -23 -108 -45 -66 -125 -60 -160 14 -24 48 -17 77 33 131 34 36 168 121 178 112 1 -2 -5 -19 -13 -39z m369 -107 c-7 -28 -13 -80 -12 -118 0 -77 -11 -113 -44 -136 -33 -24 -53 -20 -83 16 -34 40 -30 78 16 149 24 38 121 139 134 139 1 0 -4 -23 -11 -50z m555 -132 c39 -76 40 -118 3 -159 -40 -45 -94 -45 -133 -1 -53 60 -32 160 58 279 l28 36 7 -47 c4 -26 20 -75 37 -108z m576 -17 c31 -55 33 -104 4 -125 -30 -20 -76 -1 -107 44 -19 28 -22 45 -21 114 1 45 -1 92 -5 106 -9 34 94 -78 129 -139z"/>
 <path d="M6570 3619 c0 -5 4 -9 9 -9 5 0 17 -3 27 -7 11 -4 15 -3 11 4 -9 14 -47 24 -47 12z"/>
 <path d="M6516 3541 c-10 -11 -16 -30 -14 -43 3 -20 9 -23 57 -26 58 -3 75 8 65 43 -9 28 -12 29 -28 16 -17 -15 -36 -7 -36 15 0 20 -24 17 -44 -5z"/>
 <path d="M6007 3493 c-9 -8 -9 -46 -1 -67 5 -14 9 -14 37 1 43 21 42 19 23 48 -16 24 -45 33 -59 18z"/>
 <path d="M7078 3448 c-53 -14 -56 -35 -7 -48 61 -17 81 -3 63 44 -7 18 -5 18 -56 4z"/>
 <path d="M7570 3325 c0 -8 -5 -14 -11 -12 -25 5 -18 -22 11 -43 16 -12 31 -18 32 -13 6 31 2 69 -6 75 -17 12 -26 9 -26 -7z"/>
 <path d="M5543 3158 c-15 -19 -26 -58 -16 -58 9 0 35 61 29 67 -2 2 -8 -2 -13 -9z"/>
 <path d="M5614 3153 c-36 -37 -22 -103 27 -123 22 -10 32 -10 43 -1 17 14 26 130 11 133 -37 5 -70 2 -81 -9z"/>
 <path d="M7621 2981 c-13 -8 -11 -48 5 -103 7 -22 32 -23 62 -2 58 40 -7 143 -67 105z"/>
 <path d="M7759 2922 c-3 -20 -2 -29 4 -23 5 5 7 19 5 32 -3 20 -5 19 -9 -9z"/>
 <path d="M5736 2658 c-23 -32 -20 -54 10 -77 36 -28 58 -26 84 6 23 30 21 35 -42 72 l-36 22 -16 -23z"/>
 <path d="M5700 2540 c6 -11 16 -20 22 -20 6 0 3 9 -7 20 -10 11 -20 20 -22 20 -2 0 1 -9 7 -20z"/>
 <path d="M6140 2541 c-15 -30 -12 -56 9 -75 25 -22 54 -14 69 20 16 33 17 29 -24 53 -43 26 -41 25 -54 2z"/>
 <path d="M6680 2462 c0 -67 97 -87 120 -26 17 43 3 54 -61 54 -58 0 -59 0 -59 -28z"/>
 <path d="M6700 2350 c8 -5 24 -9 35 -9 l20 0 -20 9 c-11 5 -27 9 -35 9 -13 1 -13 0 0 -9z"/>
 <path d="M7285 2490 c-9 -14 17 -50 42 -56 31 -8 43 2 43 37 0 27 -2 29 -39 29 -22 0 -42 -4 -46 -10z"/>
 </g>
<g id="layer113" fill="#f9534c" stroke="none">
 <path d="M0 3145 l0 -3145 6750 0 6750 0 0 3145 0 3145 -6750 0 -6750 0 0 -3145z m6605 480 c17 -9 38 -27 45 -40 27 -50 -3 -151 -72 -247 l-32 -43 -11 51 c-6 28 -23 72 -38 99 -19 33 -27 62 -27 95 0 42 4 52 31 74 35 30 58 32 104 11z m-564 -65 c33 -18 51 -70 59 -169 5 -53 11 -105 15 -116 5 -12 -13 1 -44 30 -66 63 -116 161 -107 206 11 56 35 71 77 49z m1123 -43 c23 -17 24 -72 3 -117 -18 -37 -153 -178 -162 -169 -2 3 0 20 5 38 5 18 6 61 3 96 -7 78 0 110 34 141 29 27 87 33 117 11z m484 -129 c37 -37 -14 -148 -100 -220 -95 -79 -91 -77 -69 -26 10 24 22 64 25 88 14 89 18 102 48 136 32 36 73 45 96 22z m-1907 -211 c30 -15 78 -46 106 -69 l53 -43 -64 -12 c-35 -6 -86 -23 -114 -37 -115 -58 -212 -18 -212 89 0 29 8 45 35 72 33 33 38 35 89 31 30 -2 77 -16 107 -31z m2010 -176 c31 -31 37 -68 19 -116 -14 -38 -71 -59 -137 -51 -56 6 -183 52 -183 66 0 4 13 10 29 13 16 4 53 26 83 50 71 58 87 66 126 67 24 0 42 -8 63 -29z m-1866 -244 c-9 -21 -15 -67 -15 -109 0 -55 -5 -81 -20 -106 -38 -62 -111 -66 -155 -8 -40 53 -29 100 37 164 31 29 158 105 165 98 2 -2 -4 -19 -12 -39z m369 -107 c-7 -28 -13 -80 -12 -118 0 -37 -5 -79 -10 -93 -12 -30 -48 -59 -73 -59 -23 0 -69 56 -69 83 0 45 47 122 109 180 34 31 63 57 65 57 2 0 -3 -23 -10 -50z m555 -130 c38 -73 40 -118 6 -158 -30 -36 -69 -45 -112 -27 -40 17 -53 42 -53 103 0 53 32 127 87 199 l28 36 7 -47 c3 -26 20 -74 37 -106z m575 -16 c32 -57 32 -109 1 -130 -18 -12 -26 -11 -55 4 -54 27 -68 62 -72 180 l-3 104 51 -55 c28 -30 63 -76 78 -103z"/>
 <path d="M6570 3619 c0 -5 4 -9 9 -9 5 0 17 -3 27 -7 11 -4 15 -3 11 4 -9 14 -47 24 -47 12z"/>
 <path d="M6516 3541 c-10 -11 -16 -30 -14 -43 3 -20 9 -23 57 -26 58 -3 75 8 65 43 -9 28 -12 29 -28 16 -17 -15 -36 -7 -36 15 0 20 -24 17 -44 -5z"/>
 <path d="M6007 3493 c-9 -8 -9 -46 -1 -67 5 -14 9 -14 37 1 43 21 42 19 23 48 -16 24 -45 33 -59 18z"/>
 <path d="M7085 3440 c28 -12 37 -12 30 0 -3 6 -16 10 -28 9 -21 0 -21 -1 -2 -9z"/>
 <path d="M5543 3158 c-15 -19 -26 -58 -16 -58 9 0 35 61 29 67 -2 2 -8 -2 -13 -9z"/>
 <path d="M5614 3153 c-36 -37 -22 -103 27 -123 22 -10 32 -10 43 -1 17 14 26 130 11 133 -37 5 -70 2 -81 -9z"/>
 <path d="M7621 2981 c-13 -8 -11 -48 5 -103 7 -22 32 -23 62 -2 58 40 -7 143 -67 105z"/>
 <path d="M7759 2922 c-3 -20 -2 -29 4 -23 5 5 7 19 5 32 -3 20 -5 19 -9 -9z"/>
 <path d="M5736 2658 c-23 -32 -20 -54 10 -77 36 -28 58 -26 84 6 23 30 21 35 -42 72 l-36 22 -16 -23z"/>
 <path d="M5700 2540 c6 -11 16 -20 22 -20 6 0 3 9 -7 20 -10 11 -20 20 -22 20 -2 0 1 -9 7 -20z"/>
 <path d="M6140 2541 c-15 -29 -12 -56 8 -74 25 -23 37 -21 61 9 28 35 27 39 -15 63 -43 26 -41 25 -54 2z"/>
 <path d="M6680 2462 c0 -67 97 -87 120 -26 17 43 3 54 -61 54 -58 0 -59 0 -59 -28z"/>
 <path d="M6700 2350 c8 -5 24 -10 34 -10 26 0 18 6 -19 14 -22 5 -26 4 -15 -4z"/>
 <path d="M7285 2490 c-9 -14 17 -50 42 -56 31 -8 43 2 43 37 0 27 -2 29 -39 29 -22 0 -42 -4 -46 -10z"/>
 </g>
<g id="layer114" fill="#fc6958" stroke="none">
 <path d="M0 3145 l0 -3145 6750 0 6750 0 0 3145 0 3145 -6750 0 -6750 0 0 -3145z m6608 481 c78 -40 65 -156 -30 -288 l-32 -43 -11 51 c-6 28 -23 72 -38 99 -19 33 -27 62 -27 95 0 42 4 52 31 74 34 29 67 33 107 12z m-567 -66 c34 -19 52 -71 60 -170 4 -52 10 -104 14 -115 16 -43 -97 83 -125 139 -34 66 -37 101 -14 134 17 24 35 27 65 12z m1123 -43 c23 -17 24 -72 3 -117 -18 -37 -153 -178 -162 -169 -2 3 0 20 5 38 5 18 6 61 3 96 -7 78 0 110 34 141 29 27 87 33 117 11z m484 -129 c37 -37 -14 -148 -100 -220 -95 -79 -91 -77 -69 -26 10 24 22 64 25 88 14 89 18 102 48 136 32 36 73 45 96 22z m-1907 -211 c30 -15 78 -46 106 -69 l53 -43 -64 -12 c-35 -6 -86 -23 -114 -37 -115 -58 -212 -18 -212 89 0 29 8 45 35 72 33 33 38 35 89 31 30 -2 77 -16 107 -31z m2010 -176 c31 -31 37 -68 19 -116 -14 -38 -71 -59 -137 -51 -56 6 -183 52 -183 66 0 4 13 10 29 13 16 4 53 26 83 50 71 58 87 66 126 67 24 0 42 -8 63 -29z m-1866 -244 c-9 -21 -15 -67 -15 -109 0 -55 -5 -81 -20 -106 -37 -61 -108 -66 -155 -10 -41 49 -30 101 37 166 31 29 158 105 165 98 2 -2 -4 -19 -12 -39z m369 -107 c-7 -28 -13 -80 -12 -118 0 -79 -12 -115 -46 -138 -31 -19 -81 -12 -72 11 3 8 0 17 -6 21 -7 5 -8 2 -4 -7 4 -8 0 -5 -8 5 -9 11 -16 29 -16 40 0 44 48 122 109 179 34 31 63 57 65 57 2 0 -3 -23 -10 -50z m555 -130 c38 -73 40 -118 6 -158 -30 -36 -69 -45 -112 -27 -40 17 -53 42 -53 103 0 53 32 127 87 199 l28 36 7 -47 c3 -26 20 -74 37 -106z m575 -15 c26 -48 33 -98 17 -124 -12 -18 -55 -17 -86 3 -41 27 -53 63 -56 174 l-4 104 51 -55 c28 -30 63 -76 78 -102z"/>
 <path d="M6516 3538 c-27 -38 -20 -46 44 -50 56 -3 60 -2 60 19 0 12 -4 25 -10 28 -5 3 -10 1 -10 -4 0 -6 -9 -11 -20 -11 -18 0 -25 10 -21 33 2 16 -29 6 -43 -15z"/>
 <path d="M6012 3488 c-14 -14 -16 -58 -2 -58 19 0 60 24 60 35 0 14 -21 35 -35 35 -6 0 -16 -5 -23 -12z"/>
 <path d="M7085 3440 c28 -12 37 -12 30 0 -3 6 -16 10 -28 9 -21 0 -21 -1 -2 -9z"/>
 <path d="M5638 3153 c-41 -16 -54 -48 -37 -86 11 -24 56 -53 66 -43 8 8 21 131 14 138 -3 3 -22 0 -43 -9z"/>
 <path d="M5535 3139 c-10 -30 -2 -32 12 -3 6 13 7 24 3 24 -5 0 -12 -9 -15 -21z"/>
 <path d="M7635 2980 c-3 -5 -3 -32 1 -60 7 -55 27 -66 57 -32 24 27 21 58 -9 81 -30 23 -40 26 -49 11z"/>
 <path d="M5734 2645 c-9 -37 -1 -59 29 -73 24 -12 31 -11 53 2 13 9 24 20 24 25 0 4 -22 22 -50 39 l-50 31 -6 -24z"/>
 <path d="M6140 2505 c0 -45 32 -66 61 -39 26 23 24 29 -15 53 -44 28 -46 27 -46 -14z"/>
 <path d="M6685 2470 c-3 -5 0 -20 7 -34 21 -47 92 -46 104 0 4 14 5 26 3 28 -10 8 -109 14 -114 6z"/>
 <path d="M7307 2481 l-29 -6 25 -23 c32 -30 61 -26 65 11 4 29 -4 31 -61 18z"/>
 </g>
<g id="layer115" fill="#f7746b" stroke="none">
 <path d="M0 3145 l0 -3145 6750 0 6750 0 0 3145 0 3145 -6750 0 -6750 0 0 -3145z m6608 481 c78 -40 65 -156 -30 -288 l-32 -43 -11 51 c-6 28 -23 72 -38 99 -19 33 -27 62 -27 95 0 42 4 52 31 74 34 29 67 33 107 12z m-560 -72 c33 -23 44 -56 52 -164 4 -52 11 -104 15 -115 5 -12 -14 1 -44 30 -68 65 -116 160 -108 212 9 54 41 68 85 37z m1116 -37 c23 -17 24 -72 3 -117 -18 -37 -153 -178 -162 -169 -2 3 0 20 5 38 5 18 6 61 3 96 -7 78 0 110 34 141 29 27 87 33 117 11z m484 -129 c37 -37 -14 -148 -100 -220 -95 -79 -91 -77 -69 -26 10 24 22 64 25 88 14 89 18 102 48 136 32 36 73 45 96 22z m-1907 -211 c30 -15 78 -46 106 -69 l53 -43 -64 -12 c-35 -6 -86 -23 -114 -37 -115 -58 -212 -18 -212 89 0 29 8 45 35 72 33 33 38 35 89 31 30 -2 77 -16 107 -31z m2010 -176 c22 -22 29 -39 29 -68 0 -103 -107 -130 -266 -66 -35 14 -64 29 -64 33 0 4 13 10 29 13 16 4 53 26 83 50 71 58 87 66 126 67 24 0 42 -8 63 -29z m-1866 -244 c-9 -21 -15 -67 -15 -109 0 -83 -22 -132 -67 -149 -72 -27 -148 41 -129 117 11 41 81 109 154 147 37 20 68 34 70 33 1 -2 -5 -19 -13 -39z m369 -107 c-7 -28 -13 -80 -12 -118 0 -79 -12 -115 -46 -138 -31 -19 -81 -12 -72 11 3 8 0 17 -6 21 -7 5 -8 2 -4 -7 4 -8 0 -5 -8 5 -9 11 -16 29 -16 40 0 44 48 122 109 179 34 31 63 57 65 57 2 0 -3 -23 -10 -50z m555 -130 c38 -73 40 -118 6 -158 -30 -36 -69 -45 -112 -27 -40 17 -53 42 -53 103 0 53 32 127 87 199 l28 36 7 -47 c3 -26 20 -74 37 -106z m575 -15 c26 -48 33 -98 17 -124 -14 -22 -68 -17 -95 8 -36 34 -45 66 -48 174 l-3 99 51 -55 c28 -30 63 -76 78 -102z"/>
 <path d="M6515 3538 c-15 -22 -15 -23 22 -30 60 -11 85 -9 80 5 -2 7 -15 11 -30 9 -25 -3 -32 5 -28 31 2 16 -29 5 -44 -15z"/>
 <path d="M6023 3493 c-7 -3 -13 -13 -13 -24 0 -16 3 -17 25 -7 14 6 25 15 25 19 0 10 -22 17 -37 12z"/>
 <path d="M7085 3440 c28 -12 37 -12 30 0 -3 6 -16 10 -28 9 -21 0 -21 -1 -2 -9z"/>
 <path d="M5620 3140 c-25 -25 -26 -72 -2 -93 29 -26 42 -20 42 17 0 18 3 48 6 65 5 24 3 31 -10 31 -9 0 -25 -9 -36 -20z"/>
 <path d="M7643 2963 c3 -10 8 -35 12 -56 7 -43 22 -44 44 -5 13 23 13 29 -2 52 -20 30 -61 37 -54 9z"/>
 <path d="M5730 2626 c0 -45 44 -75 81 -56 27 15 24 25 -17 49 -41 24 -64 27 -64 7z"/>
 <path d="M6140 2506 c0 -23 23 -56 39 -56 4 0 16 9 25 19 17 19 16 20 -23 41 l-41 20 0 -24z"/>
 <path d="M6690 2446 c0 -18 38 -46 61 -46 18 0 49 30 49 48 0 8 -20 12 -55 12 -41 0 -55 -4 -55 -14z"/>
 <path d="M7315 2461 c-19 -8 -19 -8 3 -20 25 -13 42 -7 42 15 0 15 -14 17 -45 5z"/>
 </g>
<g id="layer116" fill="#fa8776" stroke="none">
 <path d="M0 3145 l0 -3145 6750 0 6750 0 0 3145 0 3145 -6750 0 -6750 0 0 -3145z m6608 481 c78 -40 65 -156 -30 -288 l-32 -43 -11 51 c-6 28 -23 72 -38 99 -19 33 -27 62 -27 95 0 42 4 52 31 74 34 29 67 33 107 12z m-560 -72 c33 -23 44 -56 52 -164 4 -52 11 -104 15 -115 5 -12 -14 1 -44 30 -68 65 -116 160 -108 212 9 54 41 68 85 37z m1116 -37 c23 -17 24 -72 3 -117 -18 -37 -153 -178 -162 -169 -2 3 0 20 5 38 5 18 6 61 3 96 -7 78 0 110 34 141 29 27 87 33 117 11z m484 -129 c37 -37 -14 -148 -100 -220 -95 -79 -91 -77 -69 -26 10 24 22 64 25 88 14 89 18 102 48 136 32 36 73 45 96 22z m-1907 -211 c30 -15 78 -46 106 -69 l53 -43 -64 -12 c-35 -6 -86 -23 -114 -37 -115 -58 -212 -18 -212 89 0 29 8 45 35 72 33 33 38 35 89 31 30 -2 77 -16 107 -31z m2010 -176 c22 -22 29 -39 29 -68 0 -103 -107 -130 -266 -66 -35 14 -64 29 -64 33 0 4 13 10 29 13 16 4 53 26 83 50 71 58 87 66 126 67 24 0 42 -8 63 -29z m-1866 -244 c-9 -21 -15 -67 -15 -109 0 -83 -22 -132 -67 -149 -72 -27 -148 41 -129 117 11 41 81 109 154 147 37 20 68 34 70 33 1 -2 -5 -19 -13 -39z m369 -107 c-7 -28 -13 -80 -12 -118 0 -79 -12 -115 -46 -138 -30 -19 -81 -12 -72 11 3 9 0 12 -9 9 -9 -4 -16 5 -20 29 -11 55 26 127 102 197 35 33 65 60 67 60 2 0 -3 -23 -10 -50z m555 -130 c38 -73 40 -118 6 -158 -30 -36 -69 -45 -112 -27 -40 17 -53 42 -53 103 0 53 32 127 87 199 l28 36 7 -47 c3 -26 20 -74 37 -106z m575 -15 c29 -53 34 -116 11 -135 -21 -17 -68 -4 -100 30 -30 31 -29 27 -38 199 l-4 65 52 -56 c29 -31 64 -77 79 -103z"/>
 <path d="M6525 3546 c-23 -16 -16 -29 13 -24 14 2 17 8 13 21 -6 16 -9 16 -26 3z"/>
 <path d="M6010 3475 c0 -13 4 -14 20 -5 11 6 20 13 20 15 0 3 -9 5 -20 5 -11 0 -20 -7 -20 -15z"/>
 <path d="M5616 3128 c-21 -30 -20 -61 3 -82 17 -16 18 -15 25 30 8 63 8 74 -3 74 -6 0 -17 -10 -25 -22z"/>
 <path d="M7660 2961 c0 -10 3 -33 6 -50 5 -25 9 -29 20 -20 17 14 18 61 2 77 -17 17 -28 15 -28 -7z"/>
 <path d="M5730 2622 c0 -23 34 -52 61 -52 38 0 37 10 -6 38 -36 23 -55 28 -55 14z"/>
 <path d="M6140 2505 c0 -19 23 -45 40 -45 29 0 24 17 -10 35 -16 9 -30 13 -30 10z"/>
 <path d="M6697 2435 c10 -28 52 -38 80 -19 14 8 23 17 21 18 -1 2 -27 6 -55 10 -46 6 -52 5 -46 -9z"/>
 <path d="M7305 2450 c3 -5 17 -10 31 -10 13 0 24 5 24 10 0 6 -14 10 -31 10 -17 0 -28 -4 -24 -10z"/>
 </g>
<g id="layer117" fill="#f5948b" stroke="none">
 <path d="M0 3145 l0 -3145 6750 0 6750 0 0 3145 0 3145 -6750 0 -6750 0 0 -3145z m6608 481 c78 -40 65 -156 -30 -288 l-32 -43 -11 51 c-6 28 -23 72 -38 99 -19 33 -27 62 -27 95 0 42 4 52 31 74 34 29 67 33 107 12z m-560 -72 c35 -24 44 -52 52 -158 4 -56 11 -110 15 -121 5 -12 -13 0 -43 29 -91 87 -137 209 -96 250 20 20 43 20 72 0z m1116 -37 c23 -17 24 -72 3 -117 -18 -37 -153 -178 -162 -169 -2 3 0 20 5 38 5 18 6 61 3 96 -7 78 0 110 34 141 29 27 87 33 117 11z m484 -129 c37 -37 -14 -148 -100 -220 -95 -79 -91 -77 -69 -26 10 24 22 64 25 88 14 89 18 102 48 136 32 36 73 45 96 22z m-1907 -211 c30 -15 78 -46 106 -69 l53 -43 -64 -12 c-35 -6 -86 -23 -114 -37 -115 -58 -212 -18 -212 89 0 29 8 45 35 72 33 33 38 35 89 31 30 -2 77 -16 107 -31z m2010 -176 c22 -22 29 -39 29 -68 0 -103 -107 -130 -266 -66 -35 14 -64 29 -64 33 0 4 13 10 29 13 16 4 53 26 83 50 71 58 87 66 126 67 24 0 42 -8 63 -29z m-1866 -244 c-9 -21 -15 -67 -15 -109 0 -83 -22 -132 -67 -149 -72 -27 -148 41 -129 117 11 41 81 109 154 147 37 20 68 34 70 33 1 -2 -5 -19 -13 -39z m369 -107 c-7 -28 -13 -81 -12 -119 0 -78 -15 -119 -54 -141 -25 -13 -31 -13 -55 0 -72 40 -44 149 64 250 35 33 65 60 67 60 2 0 -3 -23 -10 -50z m555 -130 c38 -73 40 -118 6 -158 -30 -36 -69 -45 -112 -27 -40 17 -53 42 -53 103 0 53 32 127 87 199 l28 36 7 -47 c3 -26 20 -74 37 -106z m583 -32 c28 -55 29 -97 2 -119 -20 -16 -68 -2 -99 31 -30 31 -29 27 -38 200 l-4 64 57 -61 c31 -34 68 -85 82 -115z"/>
 <path d="M6531 3551 c-10 -6 -10 -10 -1 -16 13 -8 24 -1 19 14 -3 6 -10 7 -18 2z"/>
 <path d="M5613 3123 c-16 -26 -17 -59 -3 -68 14 -9 22 17 18 57 -3 32 -3 32 -15 11z"/>
 <path d="M7673 2960 c4 -14 7 -35 7 -48 0 -13 4 -20 10 -17 16 10 12 61 -7 76 -15 13 -16 11 -10 -11z"/>
 <path d="M5740 2601 c0 -16 29 -33 52 -29 22 3 21 5 -9 21 -36 19 -43 21 -43 8z"/>
 <path d="M6152 2478 c3 -7 15 -14 29 -16 23 -2 23 -2 5 13 -24 18 -39 20 -34 3z"/>
 <path d="M6715 2420 c3 -5 19 -10 35 -10 16 0 32 5 35 10 4 6 -10 10 -35 10 -25 0 -39 -4 -35 -10z"/>
 </g>
<g id="layer118" fill="#ffffff" stroke="none">
 <path d="M0 3145 l0 -3145 6750 0 6750 0 0 3145 0 3145 -6750 0 -6750 0 0 -3145z m6608 481 c78 -40 65 -156 -30 -288 l-32 -43 -11 51 c-6 28 -23 72 -38 99 -19 33 -27 62 -27 95 0 42 4 52 31 74 34 29 67 33 107 12z m-544 -87 c31 -36 34 -48 39 -159 2 -47 8 -94 12 -105 12 -36 -111 101 -133 147 -12 24 -22 61 -22 80 0 70 59 91 104 37z m1100 -22 c23 -17 24 -72 3 -117 -18 -37 -153 -178 -162 -169 -2 3 0 20 5 38 5 18 6 61 3 96 -7 78 0 110 34 141 29 27 87 33 117 11z m484 -129 c37 -37 -14 -148 -100 -220 -95 -79 -91 -77 -69 -26 10 24 22 64 25 88 14 89 18 102 48 136 32 36 73 45 96 22z m-1907 -211 c30 -15 78 -46 106 -69 l53 -43 -63 -11 c-34 -7 -91 -26 -127 -43 -67 -32 -97 -34 -148 -8 -31 15 -52 57 -52 103 0 28 8 44 35 71 33 33 38 35 89 31 30 -2 77 -16 107 -31z m2010 -176 c22 -22 29 -39 29 -68 0 -103 -107 -130 -266 -66 -35 14 -64 29 -64 33 0 4 13 10 29 13 16 4 53 26 83 50 71 58 87 66 126 67 24 0 42 -8 63 -29z m-1866 -244 c-9 -21 -15 -67 -15 -109 0 -83 -22 -132 -67 -149 -72 -27 -148 41 -129 117 11 41 81 109 154 147 37 20 68 34 70 33 1 -2 -5 -19 -13 -39z m369 -107 c-7 -28 -13 -81 -12 -119 0 -78 -15 -119 -54 -141 -25 -13 -31 -13 -55 0 -72 40 -44 149 64 250 35 33 65 60 67 60 2 0 -3 -23 -10 -50z m555 -130 c38 -73 40 -118 6 -158 -30 -36 -69 -45 -112 -27 -40 17 -53 42 -53 103 0 53 32 127 87 199 l28 36 7 -47 c3 -26 20 -74 37 -106z m547 27 c58 -77 73 -127 50 -162 -21 -33 -56 -32 -95 1 -48 40 -55 61 -55 171 l-1 102 29 -27 c16 -15 48 -53 72 -85z"/>
 </g>

</svg>