<!DOCTYPE svg PUBLIC "-//W3C//DTD SVG 20010904//EN" "http://www.w3.org/TR/2001/REC-SVG-20010904/DTD/svg10.dtd">
<svg version="1.0" xmlns="http://www.w3.org/2000/svg" width="774px" height="616px" viewBox="0 0 7740 6160" preserveAspectRatio="xMidYMid meet">
<g id="layer101" fill="#910101" stroke="none">
 <path d="M3231 3539 c-12 -13 -21 -26 -21 -30 0 -4 -9 -5 -19 -2 -14 4 -22 -3 -30 -29 -6 -18 -21 -44 -32 -58 l-21 -25 7 30 c3 17 8 38 12 49 11 39 -22 8 -38 -35 -9 -24 -24 -45 -32 -47 -25 -5 -57 17 -57 38 0 11 -4 20 -8 20 -4 0 -8 12 -7 28 0 23 -4 27 -33 30 -34 3 -34 3 -27 -30 7 -32 7 -33 -12 -15 -28 24 -36 21 -31 -13 5 -36 -9 -40 -22 -5 -5 14 -17 25 -26 25 -10 0 -14 -5 -10 -15 4 -10 -1 -15 -14 -15 -16 0 -20 -7 -20 -35 0 -19 -4 -35 -9 -35 -5 0 -34 25 -65 55 -54 54 -84 70 -72 40 4 -10 -1 -15 -14 -15 -26 0 -26 -20 0 -27 11 -3 17 -9 14 -14 -3 -5 9 -23 27 -40 37 -34 33 -47 -10 -29 -17 7 -38 9 -47 6 -9 -3 -28 3 -44 14 -15 11 -36 20 -47 20 -14 0 -8 -10 24 -40 33 -31 39 -41 28 -50 -10 -9 -16 -6 -25 9 -12 23 -40 29 -40 8 0 -7 7 -23 17 -36 24 -35 26 -81 2 -81 -11 0 -19 5 -19 10 0 6 -9 10 -19 10 -11 0 -49 33 -89 75 -39 41 -73 75 -76 75 -18 0 -2 -50 23 -74 40 -39 57 -81 41 -101 -8 -9 -8 -15 -2 -15 6 0 18 -3 28 -7 14 -5 16 -2 10 21 -4 18 -3 25 4 21 5 -3 10 -15 10 -25 0 -11 9 -24 20 -30 23 -13 27 -48 5 -56 -25 -10 -17 -24 14 -24 31 0 59 -24 41 -35 -6 -3 -8 -11 -5 -16 4 -5 -5 -14 -18 -20 -16 -7 -23 -17 -20 -29 3 -10 -2 -20 -11 -23 -10 -4 -13 -13 -9 -23 5 -14 2 -16 -20 -10 -17 4 -27 2 -27 -4 0 -7 -8 -9 -19 -5 -25 7 -71 -11 -71 -29 0 -12 11 -12 76 1 42 8 78 12 80 10 11 -11 -11 -37 -31 -37 -12 0 -30 -9 -41 -21 -18 -20 -18 -21 1 -35 11 -7 26 -18 33 -24 8 -7 12 -7 12 0 0 5 7 10 15 10 8 0 15 6 15 13 0 6 4 18 9 26 8 12 12 12 25 -2 14 -13 14 -20 4 -43 -10 -22 -10 -28 0 -32 10 -3 9 -9 -4 -24 -15 -16 -16 -21 -4 -28 11 -7 9 -12 -11 -28 -31 -26 -23 -34 19 -16 27 11 32 18 27 34 -5 14 -2 20 10 20 9 0 13 -4 10 -10 -12 -19 5 -30 30 -20 l25 9 -16 -40 c-17 -41 -11 -65 9 -39 7 8 22 14 35 12 13 -2 30 2 38 8 10 9 14 9 14 1 0 -6 5 -11 10 -11 6 0 8 11 4 25 -6 25 8 35 21 15 9 -15 25 -12 25 4 0 8 -8 17 -17 19 -14 4 -13 5 4 6 12 0 24 -5 26 -11 4 -10 6 -9 6 1 1 11 4 11 16 1 14 -11 14 -15 0 -36 -9 -13 -11 -24 -5 -24 5 0 10 -7 10 -16 0 -11 5 -14 16 -10 9 3 25 6 35 6 13 0 18 4 13 12 -4 6 -3 8 4 4 17 -11 10 -46 -10 -46 -20 0 -23 -11 -7 -27 15 -15 49 -4 49 16 1 21 24 51 40 51 9 0 11 -9 7 -30 -4 -17 -2 -30 3 -30 6 0 10 4 10 8 0 9 69 42 87 42 6 0 17 -22 24 -50 7 -27 16 -50 20 -50 12 0 18 43 8 61 -6 11 -5 20 1 24 14 9 30 -3 30 -22 0 -11 6 -14 23 -9 12 3 25 6 30 6 11 0 9 38 -3 45 -18 11 1 26 28 23 16 -2 27 2 27 9 0 6 3 15 8 19 4 4 7 19 7 33 0 24 1 24 25 -12 14 -20 30 -37 36 -37 12 0 0 51 -18 68 -18 18 -17 43 2 36 8 -4 15 -12 15 -19 0 -6 9 -20 20 -30 26 -23 25 -9 -1 52 -22 49 -49 138 -49 161 0 7 12 12 29 12 20 0 30 6 34 19 3 11 17 22 36 26 26 5 31 11 31 35 0 23 5 29 31 34 17 3 47 6 65 6 30 0 34 3 34 25 l0 26 -80 -6 c-64 -4 -78 -2 -74 9 3 7 -2 16 -10 19 -37 14 -10 60 35 61 25 1 35 6 37 20 4 17 0 18 -31 13 -28 -4 -35 -3 -30 9 3 8 -1 14 -11 14 -9 0 -16 -8 -16 -20 0 -11 -4 -20 -8 -20 -17 0 1 59 24 81 32 30 32 52 0 39 -17 -6 -26 -5 -30 3 -5 9 -7 9 -12 0 -7 -15 -64 -18 -64 -3 0 5 10 14 21 21 12 6 47 34 79 62 31 29 73 65 93 80 35 26 49 57 27 57 -11 0 -29 -15 -152 -123 -48 -44 -88 -74 -88 -68 0 16 -27 13 -34 -4 -3 -8 -10 -15 -16 -15 -6 0 1 17 15 38 21 30 23 38 10 40 -8 2 -22 -4 -31 -12 -18 -18 -34 -21 -34 -6 0 6 4 10 10 10 5 0 17 14 25 31 9 16 32 48 51 69 34 38 41 69 17 77 -6 2 -21 -6 -32 -18z"/>
 </g>
<g id="layer102" fill="#aa3e42" stroke="none">
 <path d="M3231 3539 c-12 -13 -21 -26 -21 -30 0 -4 -9 -5 -19 -2 -14 4 -22 -3 -30 -29 -6 -18 -21 -44 -32 -58 l-21 -25 7 30 c3 17 8 38 12 49 11 39 -22 8 -38 -35 -9 -24 -24 -45 -32 -47 -25 -5 -57 17 -57 38 0 11 -4 20 -8 20 -4 0 -8 12 -7 28 0 23 -4 27 -33 30 -34 3 -34 3 -27 -30 7 -32 7 -33 -12 -15 -28 24 -36 21 -31 -13 5 -36 -9 -40 -22 -5 -5 14 -17 25 -26 25 -10 0 -14 -5 -10 -15 4 -10 -1 -15 -14 -15 -16 0 -20 -7 -20 -35 0 -19 -4 -35 -9 -35 -5 0 -34 25 -65 55 -54 54 -84 70 -72 40 4 -10 -1 -15 -14 -15 -26 0 -26 -20 0 -27 11 -3 17 -9 14 -14 -3 -5 9 -23 27 -40 37 -34 33 -47 -10 -29 -17 7 -38 9 -47 6 -9 -3 -28 3 -44 14 -15 11 -36 20 -47 20 -14 0 -8 -10 24 -40 33 -31 39 -41 28 -50 -10 -9 -16 -6 -25 9 -12 23 -40 29 -40 8 0 -7 8 -24 17 -37 10 -14 16 -32 15 -42 -2 -9 1 -19 6 -22 13 -8 9 48 -4 65 -20 26 -26 44 -6 20 12 -16 25 -22 36 -18 28 11 30 36 5 57 -13 10 -18 19 -11 20 6 0 12 -4 12 -9 0 -13 38 -21 42 -9 3 7 11 7 25 -1 12 -6 31 -11 43 -11 19 0 21 4 16 26 -5 19 -4 24 6 18 8 -4 10 -3 5 2 -5 5 -12 9 -15 10 -23 3 -42 19 -42 34 0 10 -8 21 -17 23 -17 4 -17 5 0 6 9 0 17 5 17 10 0 6 23 -12 52 -40 62 -60 88 -64 88 -14 0 28 4 35 20 35 12 0 20 7 21 18 1 11 4 8 8 -8 4 -16 15 -26 30 -28 21 -3 23 -1 17 25 -6 23 -5 26 5 16 24 -24 42 -15 37 17 -3 20 0 30 8 30 7 0 15 -13 19 -30 4 -16 11 -30 16 -30 5 0 9 -9 9 -20 0 -41 84 -56 100 -17 7 17 9 18 9 5 2 -40 53 2 71 58 7 21 16 31 24 28 8 -3 23 6 34 20 19 25 42 35 42 18 0 -5 -12 -19 -26 -33 -14 -13 -37 -43 -51 -66 -14 -24 -29 -43 -34 -43 -5 0 -9 -10 -9 -21 0 -17 5 -20 25 -17 25 5 34 -5 15 -17 -5 -3 -10 -13 -10 -21 0 -21 33 -17 53 6 13 15 14 20 3 20 -8 0 -16 -7 -20 -15 -3 -8 -10 -15 -16 -15 -6 0 1 17 15 38 21 30 23 38 10 40 -8 2 -22 -4 -31 -12 -18 -18 -34 -21 -34 -6 0 6 4 10 10 10 5 0 17 14 25 31 9 16 32 48 51 69 34 38 41 69 17 77 -6 2 -21 -6 -32 -18z"/>
 <path d="M3451 3497 c-13 -12 -66 -59 -118 -104 -51 -46 -89 -83 -83 -83 5 0 10 -7 10 -16 0 -13 10 -15 59 -12 59 3 60 3 42 -17 -26 -28 -37 -95 -17 -95 12 0 14 -7 10 -30 -4 -18 -1 -36 6 -45 9 -11 9 -15 1 -15 -7 0 -9 -5 -6 -11 5 -6 38 -9 91 -6 67 4 84 2 84 -9 0 -9 -12 -14 -34 -14 -18 0 -48 -3 -65 -6 -26 -5 -31 -11 -31 -34 0 -24 -5 -30 -31 -35 -19 -4 -33 -15 -36 -26 -4 -13 -14 -19 -34 -19 -23 0 -29 -4 -29 -22 0 -21 19 -97 35 -143 6 -16 3 -15 -13 5 -13 15 -20 19 -20 10 3 -40 -4 -58 -21 -63 -13 -3 -18 -11 -15 -23 2 -11 -3 -28 -11 -39 -13 -16 -19 -18 -35 -7 -11 6 -25 12 -32 12 -9 0 -8 -3 2 -10 12 -7 12 -12 3 -21 -10 -10 -18 -10 -40 1 -16 8 -31 16 -35 18 -5 2 -8 0 -8 -5 0 -8 47 -33 64 -33 5 0 18 -7 28 -17 10 -9 18 -11 18 -5 0 6 -5 14 -10 17 -18 11 1 26 28 23 16 -2 27 2 27 9 0 6 3 15 8 19 4 4 7 19 7 33 0 24 1 24 25 -12 14 -20 30 -37 36 -37 12 0 0 51 -18 68 -18 18 -17 43 2 36 8 -4 15 -12 15 -19 0 -6 9 -20 20 -30 26 -23 25 -9 -1 52 -22 49 -49 138 -49 161 0 7 12 12 29 12 20 0 30 6 34 19 3 11 17 22 36 26 26 5 31 11 31 35 0 23 5 29 31 34 17 3 47 6 65 6 30 0 34 3 34 25 l0 26 -80 -6 c-64 -4 -78 -2 -74 9 3 7 -2 16 -10 19 -37 14 -10 60 35 61 25 1 35 6 37 20 4 17 0 18 -31 13 -28 -4 -35 -3 -30 9 3 8 -1 14 -11 14 -9 0 -16 -8 -16 -20 0 -11 -4 -20 -8 -20 -17 0 1 59 24 81 32 30 32 52 0 39 -17 -6 -26 -5 -30 3 -5 9 -7 9 -12 0 -7 -15 -64 -18 -64 -3 0 5 10 14 21 21 12 6 47 34 79 62 31 29 73 65 93 80 36 27 49 58 25 56 -7 0 -24 -10 -37 -22z"/>
 <path d="M2320 3337 c0 -13 13 -36 29 -51 40 -39 57 -81 41 -101 -8 -9 -8 -15 -2 -15 6 0 18 -3 28 -7 14 -5 16 -2 10 21 -4 18 -3 25 4 21 5 -3 10 -15 10 -25 0 -11 9 -24 20 -30 23 -13 27 -48 5 -56 -25 -10 -17 -24 14 -24 31 0 66 -30 43 -37 -6 -3 -10 -9 -6 -14 3 -5 -6 -14 -20 -20 -16 -7 -22 -17 -19 -26 4 -9 -1 -20 -10 -25 -10 -5 -14 -15 -10 -25 5 -13 2 -15 -20 -9 -17 4 -27 2 -27 -4 0 -7 -8 -9 -19 -5 -25 7 -71 -11 -71 -29 0 -12 11 -12 76 1 42 8 78 12 80 10 11 -11 -11 -37 -31 -37 -12 0 -30 -9 -41 -21 -18 -20 -18 -21 1 -35 11 -7 26 -18 33 -24 8 -7 12 -7 12 0 0 5 7 10 15 10 8 0 15 6 15 13 0 6 4 18 9 26 8 12 12 12 25 -2 14 -13 14 -20 4 -43 -10 -22 -10 -28 0 -32 10 -3 9 -9 -4 -24 -15 -16 -16 -21 -4 -28 11 -7 9 -12 -11 -28 -31 -26 -23 -34 19 -16 27 11 32 18 27 34 -4 14 -2 20 8 20 8 0 14 -8 13 -17 -1 -13 5 -17 23 -15 20 3 23 0 17 -17 -3 -12 -9 -31 -13 -42 -4 -16 -2 -20 8 -17 7 2 15 20 16 38 2 19 8 39 13 44 6 6 10 14 10 20 0 5 -3 6 -6 3 -4 -3 -16 -1 -27 5 -17 9 -19 8 -14 -6 4 -9 2 -16 -3 -16 -6 0 -10 7 -10 16 0 13 -7 15 -32 12 -26 -4 -28 -3 -15 7 21 15 22 35 3 35 -12 0 -12 6 -3 29 9 23 8 32 -5 45 -9 9 -24 16 -32 16 -20 0 -21 19 -1 26 13 5 13 9 -3 23 -19 16 -26 51 -10 51 4 0 8 9 8 20 0 10 8 24 19 29 40 22 34 91 -8 91 -13 0 -16 7 -13 34 3 27 0 37 -17 45 -12 7 -21 21 -21 32 0 12 -10 23 -25 29 -14 5 -25 14 -25 20 0 5 -16 27 -35 49 -62 68 -37 54 31 -19 37 -38 75 -70 85 -70 11 0 19 -5 19 -11 0 -5 -6 -7 -12 -3 -9 5 -10 4 -3 -4 6 -7 22 -8 45 -2 32 7 32 8 8 9 -16 1 -28 6 -28 11 0 6 -9 10 -19 10 -11 0 -49 33 -89 75 -39 41 -73 75 -76 75 -3 0 -6 -10 -6 -23z m156 -513 c-3 -9 -6 -20 -6 -25 0 -12 -31 -11 -49 0 -12 8 -12 12 -2 25 18 22 65 22 57 0z"/>
 <path d="M2650 3305 c14 -8 32 -14 40 -14 9 0 4 6 -10 14 -14 8 -32 14 -40 14 -9 0 -4 -6 10 -14z"/>
 <path d="M3182 2784 c4 -21 22 -23 26 -1 2 10 -3 17 -13 17 -10 0 -15 -6 -13 -16z"/>
 <path d="M2713 2675 c-7 -8 -13 -18 -13 -22 0 -5 -9 -14 -20 -20 -17 -11 -19 -10 -14 5 5 15 4 15 -8 1 -7 -9 -19 -14 -27 -11 -8 3 -11 0 -7 -7 9 -15 49 -14 64 1 9 9 12 9 12 0 0 -7 5 -12 10 -12 6 0 8 11 4 25 -6 25 8 35 21 15 9 -15 25 -12 25 4 0 8 -8 17 -17 19 -14 4 -13 5 4 6 12 0 24 -5 26 -11 4 -10 6 -9 6 1 1 11 4 11 16 1 14 -11 14 -15 0 -36 -9 -13 -11 -24 -5 -24 5 0 10 -7 10 -15 0 -15 18 -14 67 0 6 2 11 -5 10 -16 -1 -11 -9 -19 -19 -19 -20 0 -23 -11 -7 -27 15 -15 49 -4 49 16 1 21 24 51 40 51 9 0 11 -9 7 -30 -4 -17 -2 -30 3 -30 6 0 10 4 10 8 0 9 69 42 87 42 6 0 17 -22 24 -50 7 -27 16 -50 20 -50 12 0 18 43 8 61 -6 11 -5 20 1 24 14 8 30 -3 30 -21 0 -16 16 -17 45 -3 17 8 16 9 -7 6 -19 -3 -28 1 -31 15 -6 20 -37 24 -55 6 -9 -9 -12 -9 -12 0 0 15 -40 56 -57 58 -7 1 -15 -2 -19 -7 -3 -5 2 -9 10 -9 29 0 25 -18 -7 -33 -30 -15 -32 -15 -39 4 -9 24 -36 25 -54 2 -13 -17 -13 -17 -14 0 0 9 -5 17 -10 17 -7 0 -7 6 0 20 9 16 8 18 -6 13 -9 -3 -14 -13 -11 -24 4 -15 -1 -19 -24 -19 -22 0 -29 5 -29 19 0 11 5 23 11 26 7 5 4 14 -7 26 -20 23 -83 25 -101 4z"/>
 </g>
<g id="layer103" fill="#d7a3a1" stroke="none">
 <path d="M2614 3439 c1 -7 12 -16 25 -20 14 -6 20 -5 16 1 -3 6 -12 10 -20 10 -7 0 -16 5 -18 10 -3 6 -4 5 -3 -1z"/>
 <path d="M3330 3301 c0 -5 -10 -12 -22 -14 -17 -3 -14 -5 9 -6 25 -1 31 2 27 14 -7 17 -14 20 -14 6z"/>
 <path d="M3493 3033 c9 -2 25 -2 35 0 9 3 1 5 -18 5 -19 0 -27 -2 -17 -5z"/>
 <path d="M3402 2990 c0 -19 2 -27 5 -17 2 9 2 25 0 35 -3 9 -5 1 -5 -18z"/>
 <path d="M2873 2642 c-7 -4 -11 -17 -10 -29 0 -12 5 -19 9 -17 5 3 6 10 2 15 -3 5 0 16 6 24 14 17 11 19 -7 7z"/>
 <path d="M2685 2631 c-4 -7 0 -8 11 -4 12 4 15 3 10 -5 -4 -7 -2 -12 4 -12 14 0 8 22 -7 27 -6 2 -14 -1 -18 -6z"/>
 <path d="M3085 2630 c3 -6 13 -10 21 -10 8 0 14 -4 14 -10 0 -12 47 -13 54 -1 4 5 -3 7 -14 4 -11 -3 -26 -1 -33 4 -19 15 -49 24 -42 13z"/>
 </g>

</svg>