<!DOCTYPE svg PUBLIC "-//W3C//DTD SVG 20010904//EN" "http://www.w3.org/TR/2001/REC-SVG-20010904/DTD/svg10.dtd">
<svg version="1.0" xmlns="http://www.w3.org/2000/svg" width="803px" height="486px" viewBox="0 0 8030 4860" preserveAspectRatio="xMidYMid meet">
<g id="layer101" fill="#721212" stroke="none">
 <path d="M0 2430 l0 -2430 4015 0 4015 0 0 2430 0 2430 -4015 0 -4015 0 0 -2430z"/>
 </g>
<g id="layer102" fill="#a61919" stroke="none">
 <path d="M0 2430 l0 -2430 4015 0 4015 0 0 2430 0 2430 -4015 0 -4015 0 0 -2430z"/>
 </g>
<g id="layer103" fill="#d3181f" stroke="none">
 <path d="M0 2430 l0 -2430 4015 0 4015 0 0 2430 0 2430 -4015 0 -4015 0 0 -2430z m4410 -61 c0 -5 -7 -9 -15 -9 -8 0 -15 7 -15 15 0 9 6 12 15 9 8 -4 15 -10 15 -15z m-376 -274 c3 -8 -2 -11 -14 -8 -10 3 -21 11 -24 18 -3 8 2 11 14 8 10 -3 21 -11 24 -18z"/>
 </g>
<g id="layer104" fill="#6e5152" stroke="none">
 <path d="M0 2430 l0 -2430 4015 0 4015 0 0 2430 0 2430 -4015 0 -4015 0 0 -2430z m4410 -61 c0 -5 -7 -9 -15 -9 -8 0 -15 7 -15 15 0 9 6 12 15 9 8 -4 15 -10 15 -15z m-370 -263 c0 -19 -4 -23 -19 -19 -11 3 -22 11 -25 18 -3 9 2 11 15 8 10 -3 19 0 19 6 0 6 2 11 5 11 3 0 5 -11 5 -24z"/>
 </g>
<g id="layer105" fill="#eb1c24" stroke="none">
 <path d="M0 2430 l0 -2430 4015 0 4015 0 0 2430 0 2430 -4015 0 -4015 0 0 -2430z m4410 -61 c0 -5 -7 -9 -15 -9 -8 0 -15 7 -15 15 0 9 6 12 15 9 8 -4 15 -10 15 -15z m-370 -263 c0 -19 -4 -23 -19 -19 -11 3 -22 11 -25 18 -3 9 2 11 15 8 10 -3 19 0 19 6 0 6 2 11 5 11 3 0 5 -11 5 -24z"/>
 </g>
<g id="layer106" fill="#dc2f36" stroke="none">
 <path d="M0 2430 l0 -2430 4015 0 4015 0 0 2430 0 2430 -4015 0 -4015 0 0 -2430z m4143 898 c49 -35 58 -46 47 -53 -5 -3 -10 -15 -10 -25 0 -11 -7 -19 -17 -19 -57 -1 -96 -24 -108 -62 -4 -11 -11 -19 -16 -19 -15 0 -1 55 23 96 11 18 19 46 18 61 -1 15 -2 31 -1 36 2 14 32 7 64 -15z m369 -14 c-6 -40 -12 -46 -37 -40 -31 8 -40 -9 -31 -59 5 -24 11 -32 21 -29 11 5 13 -2 8 -30 -8 -50 9 -47 68 14 27 28 49 51 49 53 0 1 -9 26 -19 55 -11 29 -15 54 -10 58 15 9 27 -4 34 -35 3 -16 13 -35 20 -41 8 -6 17 -33 20 -58 4 -26 11 -56 16 -68 7 -14 6 -40 -6 -89 -18 -79 -15 -94 25 -123 17 -13 30 -29 30 -36 0 -7 7 -19 15 -26 10 -9 13 -24 8 -56 -3 -27 -1 -49 6 -58 13 -16 13 -57 -2 -173 -11 -87 -1 -132 43 -193 10 -14 22 -39 26 -56 3 -16 12 -38 19 -49 22 -36 64 -173 71 -233 7 -63 -6 -121 -32 -143 -21 -17 -75 -21 -109 -7 -50 21 -107 83 -114 124 -5 31 -10 37 -35 40 -15 1 -37 10 -47 20 -10 9 -25 14 -33 11 -8 -3 -20 0 -26 8 -6 7 -25 16 -43 19 -24 5 -36 16 -49 43 -10 20 -15 39 -13 41 3 3 30 0 61 -7 40 -8 61 -8 70 0 20 16 13 36 -43 133 -17 29 -16 75 2 82 11 5 12 10 3 27 -6 12 -14 29 -18 36 -4 8 -19 18 -35 23 -34 9 -87 58 -81 74 2 6 0 16 -6 22 -15 15 -2 43 17 36 8 -3 15 -2 16 2 0 5 1 26 3 47 2 21 -1 40 -6 43 -4 3 -8 16 -8 30 0 31 -13 31 -34 -1 -9 -14 -25 -25 -35 -25 -23 0 -44 -40 -43 -82 l1 -32 -18 39 c-11 22 -44 65 -75 95 l-56 54 22 23 c26 28 48 15 48 -29 0 -24 3 -28 13 -19 8 6 17 8 21 4 8 -9 45 36 46 54 0 7 -12 18 -27 25 -36 17 -54 69 -46 128 6 46 19 63 41 55 19 -7 15 1 -19 39 -31 36 -36 71 -9 71 8 0 19 -10 25 -22 10 -24 29 -30 40 -13 4 6 13 5 25 -2 22 -14 47 2 60 38 6 16 15 21 28 17 28 -7 57 35 39 56 -31 40 -38 62 -26 77 9 11 14 12 19 4 5 -8 15 -1 28 18 19 26 26 29 54 23 25 -6 32 -12 30 -27z m183 -17 c1 -62 -9 -77 -24 -37 -6 18 -8 36 -6 41 3 4 -4 13 -15 19 -27 14 -19 26 17 25 27 0 28 -2 28 -48z m-285 -928 c0 -5 -7 -9 -15 -9 -8 0 -15 7 -15 15 0 9 6 12 15 9 8 -4 15 -10 15 -15z m-353 -255 c3 -8 2 -19 -3 -24 -12 -12 -51 -2 -58 15 -3 9 2 11 15 8 10 -3 19 0 19 6 0 17 20 13 27 -5z m513 -173 c0 -32 -16 -49 -31 -34 -11 11 8 63 23 63 4 0 8 -13 8 -29z m-86 -60 c10 -16 -19 -28 -57 -23 -34 4 -36 6 -20 18 20 15 69 19 77 5z m-493 -184 c16 -22 16 -23 -9 -25 -14 -1 -31 3 -39 9 -11 10 -10 14 4 25 24 18 25 17 44 -9z"/>
 <path d="M4586 3116 c-17 -27 -21 -46 -8 -46 9 0 36 59 29 66 -2 2 -12 -7 -21 -20z"/>
 <path d="M4360 3090 c0 -24 15 -27 24 -4 9 22 8 24 -9 24 -8 0 -15 -9 -15 -20z"/>
 <path d="M4516 3045 c3 -13 2 -37 -4 -52 -7 -23 -4 -39 19 -88 15 -33 28 -66 28 -72 1 -7 5 -13 10 -13 12 0 34 -57 27 -68 -3 -6 -3 -17 0 -25 6 -17 36 -16 42 1 2 7 8 10 13 6 16 -9 10 -40 -11 -59 -26 -23 -25 -50 0 -75 27 -27 40 -18 40 26 0 19 4 34 9 34 9 0 24 71 16 78 -3 3 -11 -1 -20 -8 -12 -10 -15 -10 -15 4 0 9 -7 16 -15 16 -9 0 -15 9 -15 25 0 15 -5 23 -12 20 -9 -4 -13 9 -14 42 -1 32 -7 51 -19 59 -10 7 -19 23 -20 36 -3 24 -53 138 -61 138 -2 0 -2 -11 2 -25z"/>
 <path d="M4380 2955 c0 -8 9 -19 20 -25 17 -9 20 -8 20 9 0 10 -7 22 -16 25 -22 8 -24 8 -24 -9z"/>
 <path d="M4300 2943 c1 -18 18 -35 24 -24 4 6 4 16 1 21 -7 12 -25 13 -25 3z"/>
 <path d="M4576 2461 c-3 -5 1 -14 8 -20 16 -13 32 2 21 19 -8 12 -22 13 -29 1z"/>
 <path d="M4630 2303 c0 -10 5 -25 10 -33 8 -13 12 -13 27 3 17 18 17 19 -1 33 -26 19 -36 18 -36 -3z"/>
 <path d="M4686 2195 c-7 -26 8 -65 24 -65 16 0 22 21 16 56 -8 40 -31 45 -40 9z"/>
 <path d="M4535 2200 c-7 -12 2 -30 16 -30 5 0 9 9 9 20 0 21 -15 27 -25 10z"/>
 <path d="M4630 2162 c0 -5 9 -17 20 -27 17 -16 20 -16 26 -2 3 9 3 21 -1 27 -7 12 -45 14 -45 2z"/>
 <path d="M4666 2084 c-13 -34 42 -80 66 -56 13 13 -7 52 -27 52 -8 0 -15 5 -15 10 0 16 -17 12 -24 -6z"/>
 <path d="M4786 2044 c-4 -10 1 -26 12 -38 11 -12 23 -30 27 -41 8 -19 8 -19 12 -1 3 10 0 23 -6 29 -6 6 -11 19 -11 28 0 9 -6 22 -14 28 -11 9 -15 8 -20 -5z"/>
 </g>
<g id="layer107" fill="#da3c43" stroke="none">
 <path d="M0 2430 l0 -2430 4015 0 4015 0 0 2430 0 2430 -4015 0 -4015 0 0 -2430z m4143 898 c49 -35 58 -46 47 -53 -5 -3 -10 -15 -10 -25 0 -11 -7 -19 -17 -19 -57 -1 -96 -24 -108 -62 -4 -11 -11 -19 -16 -19 -15 0 -1 55 23 96 11 18 19 46 18 61 -1 15 -2 31 -1 36 2 14 32 7 64 -15z m371 14 c3 -5 2 -22 -3 -38 -6 -24 -13 -29 -37 -29 -20 0 -30 -6 -32 -18 -6 -29 7 -67 23 -67 10 0 12 -9 8 -35 -8 -48 8 -45 64 10 l46 45 -10 48 c-6 26 -12 54 -14 62 -8 29 24 15 34 -15 5 -16 16 -37 23 -45 7 -9 16 -36 19 -60 4 -25 12 -55 18 -68 8 -17 7 -38 -7 -90 -20 -76 -17 -90 24 -121 17 -12 30 -28 30 -35 0 -7 7 -19 15 -26 10 -9 13 -24 8 -56 -3 -27 -1 -49 6 -58 14 -16 13 -60 -1 -173 -12 -87 -2 -131 42 -193 10 -14 22 -39 26 -56 4 -16 11 -34 16 -41 23 -29 69 -193 74 -263 5 -68 3 -78 -18 -104 -28 -33 -77 -43 -123 -24 -50 21 -107 83 -114 124 -5 31 -10 37 -35 40 -15 1 -37 10 -47 20 -10 9 -25 14 -33 11 -8 -3 -20 0 -26 8 -6 7 -25 16 -43 19 -24 5 -36 16 -49 43 -10 20 -15 39 -13 41 3 3 30 0 61 -7 40 -8 61 -8 70 0 20 16 12 39 -46 136 -16 27 -18 38 -8 60 21 53 5 103 -33 103 -22 0 -90 58 -87 74 1 6 -3 21 -10 33 -13 23 -1 40 19 27 20 -12 26 16 16 79 -5 34 -11 64 -14 67 -2 3 -14 -7 -25 -23 -11 -15 -27 -27 -36 -27 -20 0 -47 -54 -44 -90 1 -20 -2 -17 -17 15 -10 22 -44 65 -75 95 l-56 54 22 23 c24 26 48 16 48 -21 0 -44 79 -13 80 31 0 7 -12 18 -27 25 -37 18 -56 74 -45 136 6 39 11 47 29 46 l22 0 -20 27 c-11 16 -24 31 -29 34 -14 9 -12 42 2 51 6 4 21 -5 35 -21 17 -19 27 -25 35 -17 7 7 16 7 29 -1 14 -9 22 -7 38 7 12 11 21 27 21 36 0 24 11 32 28 18 12 -10 18 -8 33 11 16 20 17 27 7 40 -32 40 -40 62 -27 77 9 11 14 12 19 4 5 -8 15 -1 29 19 16 22 30 31 51 31 16 0 31 -4 34 -8z m181 -45 c1 -62 -9 -77 -24 -37 -6 18 -8 36 -6 41 3 4 -4 13 -15 19 -27 14 -15 32 18 28 25 -3 27 -7 27 -51z m-285 -928 c0 -5 -7 -9 -15 -9 -8 0 -15 7 -15 15 0 9 6 12 15 9 8 -4 15 -10 15 -15z m-353 -255 c3 -8 2 -19 -3 -24 -12 -12 -51 -2 -58 15 -3 9 2 11 15 8 10 -3 19 0 19 6 0 17 20 13 27 -5z m513 -173 c0 -32 -16 -49 -31 -34 -11 11 8 63 23 63 4 0 8 -13 8 -29z m-86 -60 c10 -16 -19 -28 -57 -23 -34 4 -36 6 -20 18 20 15 69 19 77 5z m-493 -184 c16 -22 16 -23 -9 -25 -14 -1 -31 3 -39 9 -11 10 -10 14 4 25 24 18 25 17 44 -9z"/>
 <path d="M4587 3112 c-18 -19 -23 -42 -9 -42 8 0 34 51 29 57 -2 2 -11 -5 -20 -15z"/>
 <path d="M4360 3090 c0 -24 15 -27 24 -4 9 22 8 24 -9 24 -8 0 -15 -9 -15 -20z"/>
 <path d="M4516 2998 c2 -50 9 -87 23 -115 12 -23 21 -47 21 -53 0 -5 4 -10 8 -10 12 0 32 -46 32 -74 0 -27 28 -43 36 -21 4 8 10 12 15 9 16 -9 10 -40 -11 -59 -26 -24 -25 -52 2 -75 29 -23 38 -17 38 26 0 19 4 34 9 34 5 0 11 13 13 30 5 33 -5 59 -16 41 -9 -15 -46 24 -46 49 0 11 -5 17 -12 15 -9 -4 -13 7 -13 35 -1 27 -8 47 -24 64 -12 13 -21 30 -19 37 2 12 -48 139 -56 139 -1 0 -1 -33 0 -72z"/>
 <path d="M4380 2955 c0 -8 9 -19 20 -25 23 -12 25 -7 10 21 -13 22 -30 25 -30 4z"/>
 <path d="M4300 2943 c1 -18 18 -35 24 -24 4 6 4 16 1 21 -7 12 -25 13 -25 3z"/>
 <path d="M4576 2461 c-3 -5 1 -14 8 -20 16 -13 32 2 21 19 -8 12 -22 13 -29 1z"/>
 <path d="M4630 2298 c0 -7 5 -20 10 -28 8 -13 11 -13 26 2 9 9 13 21 10 27 -10 15 -46 14 -46 -1z"/>
 <path d="M4686 2195 c-7 -27 12 -67 29 -62 15 5 18 43 5 66 -14 28 -26 26 -34 -4z"/>
 <path d="M4535 2200 c-7 -12 2 -30 16 -30 5 0 9 9 9 20 0 21 -15 27 -25 10z"/>
 <path d="M4630 2162 c0 -5 9 -17 20 -27 17 -16 20 -16 26 -2 3 9 3 21 -1 27 -7 12 -45 14 -45 2z"/>
 <path d="M4666 2085 c-12 -33 43 -80 66 -57 13 13 -7 52 -27 52 -8 0 -15 5 -15 10 0 16 -17 12 -24 -5z"/>
 <path d="M4786 2044 c-4 -11 1 -26 14 -39 11 -12 20 -27 20 -33 0 -7 5 -12 10 -12 6 0 10 4 10 9 0 6 -4 13 -10 16 -5 3 -10 17 -10 29 0 31 -25 53 -34 30z"/>
 </g>
<g id="layer108" fill="#af5f60" stroke="none">
 <path d="M0 2430 l0 -2430 4015 0 4015 0 0 2430 0 2430 -4015 0 -4015 0 0 -2430z m4155 889 c33 -23 43 -35 36 -42 -6 -6 -11 -19 -11 -28 0 -10 -8 -18 -17 -18 -59 -1 -78 -13 -121 -77 -22 -33 -4 51 19 91 11 19 20 47 19 62 -1 15 -2 31 -1 36 2 15 32 6 76 -24z m363 -6 c3 -34 1 -36 -48 -37 -16 -1 -26 -8 -28 -19 -6 -30 7 -67 23 -67 11 0 13 -8 9 -30 -9 -44 22 -40 69 11 36 38 38 43 32 82 -4 23 -11 50 -16 59 -12 22 7 34 26 18 8 -7 15 -23 15 -35 0 -12 7 -28 15 -35 7 -6 17 -33 20 -58 4 -26 11 -57 18 -70 8 -18 7 -37 -6 -87 -9 -35 -17 -68 -17 -74 0 -6 16 -25 35 -42 19 -18 35 -38 35 -44 0 -7 7 -18 16 -26 12 -10 14 -23 9 -60 -4 -30 -3 -49 5 -54 13 -8 12 -61 -2 -172 -12 -87 -2 -131 42 -193 10 -14 22 -39 26 -56 4 -16 11 -34 16 -41 23 -29 69 -193 74 -263 5 -68 3 -78 -18 -104 -28 -33 -77 -43 -123 -24 -50 21 -107 83 -114 124 -5 31 -10 37 -35 40 -15 1 -37 10 -47 20 -10 9 -25 14 -33 11 -8 -3 -20 0 -26 8 -6 7 -25 16 -43 19 -25 5 -36 14 -47 39 -7 17 -16 36 -18 41 -4 8 52 3 105 -11 18 -4 25 0 32 18 9 24 2 42 -49 126 -16 27 -18 38 -8 60 21 53 5 103 -33 103 -22 0 -90 58 -87 74 1 6 -3 21 -10 34 -13 23 -15 22 32 36 10 3 11 17 4 68 -6 34 -12 65 -15 68 -2 3 -14 -7 -25 -23 -11 -15 -26 -27 -33 -27 -20 0 -48 -50 -47 -84 1 -30 1 -30 -17 9 -11 22 -44 65 -75 95 l-56 54 22 23 c25 27 48 16 48 -24 0 -21 3 -23 14 -14 11 9 16 9 22 0 5 -8 13 -4 25 12 25 33 24 46 -8 61 -36 17 -55 72 -46 134 4 33 12 48 25 53 19 7 19 8 -6 38 -14 17 -26 38 -26 46 0 30 23 31 47 2 17 -19 27 -25 35 -17 7 7 16 7 29 -1 14 -9 22 -7 38 7 12 11 21 27 21 36 0 24 11 32 28 18 12 -10 18 -8 33 11 16 20 17 27 7 40 -32 40 -40 62 -27 77 9 11 14 12 19 4 5 -8 15 -1 30 20 18 25 28 31 54 28 27 -3 31 -7 34 -35z m180 -10 c2 -24 -1 -50 -6 -60 -8 -14 -12 -9 -23 28 -7 24 -19 48 -26 52 -21 13 -4 29 25 25 24 -3 27 -8 30 -45z m-288 -934 c0 -5 -7 -9 -15 -9 -8 0 -15 7 -15 15 0 9 6 12 15 9 8 -4 15 -10 15 -15z m-353 -255 c3 -8 2 -19 -3 -24 -12 -12 -51 -2 -58 15 -3 9 2 11 15 8 10 -3 19 0 19 6 0 17 20 13 27 -5z m513 -178 c0 -39 -12 -52 -29 -32 -9 10 -9 20 0 40 17 36 29 33 29 -8z m-86 -55 c10 -16 -19 -28 -57 -23 -34 4 -36 6 -20 18 20 15 69 19 77 5z m-493 -184 c16 -22 16 -23 -9 -25 -14 -1 -31 3 -39 9 -11 10 -10 14 4 25 24 18 25 17 44 -9z"/>
 <path d="M4587 3112 c-18 -19 -23 -42 -9 -42 8 0 34 51 29 57 -2 2 -11 -5 -20 -15z"/>
 <path d="M4360 3090 c0 -24 15 -27 24 -4 9 22 8 24 -9 24 -8 0 -15 -9 -15 -20z"/>
 <path d="M4517 3014 c-8 -51 15 -144 35 -144 5 0 8 -11 8 -25 0 -14 4 -25 8 -25 12 0 32 -46 32 -74 0 -27 28 -43 36 -21 4 8 10 12 15 9 16 -9 10 -40 -11 -59 -26 -24 -25 -47 3 -73 28 -26 37 -20 37 25 0 18 4 33 9 33 5 0 11 13 13 30 5 33 -5 59 -16 41 -8 -13 -46 23 -46 44 0 8 -5 14 -11 13 -6 -2 -12 16 -14 41 -2 27 -12 52 -26 67 -12 12 -19 29 -16 36 2 8 -8 38 -23 67 l-27 54 -6 -39z"/>
 <path d="M4382 2953 c2 -10 11 -19 21 -21 16 -3 17 -1 7 17 -13 25 -33 28 -28 4z"/>
 <path d="M4300 2943 c1 -18 18 -35 24 -24 4 6 4 16 1 21 -7 12 -25 13 -25 3z"/>
 <path d="M4576 2461 c-3 -5 1 -14 8 -20 16 -13 32 2 21 19 -8 12 -22 13 -29 1z"/>
 <path d="M4630 2298 c0 -7 5 -20 10 -28 8 -13 11 -13 26 2 9 9 13 21 10 27 -10 15 -46 14 -46 -1z"/>
 <path d="M4686 2195 c-7 -27 12 -67 29 -62 15 5 18 43 5 66 -14 28 -26 26 -34 -4z"/>
 <path d="M4537 2196 c-3 -8 -2 -18 3 -21 13 -8 24 15 12 27 -6 6 -11 4 -15 -6z"/>
 <path d="M4630 2162 c0 -5 9 -17 20 -27 17 -16 20 -16 26 -2 3 9 3 21 -1 27 -7 12 -45 14 -45 2z"/>
 <path d="M4674 2086 c-12 -32 34 -82 56 -60 13 13 2 44 -16 44 -7 0 -17 8 -23 18 -9 16 -10 16 -17 -2z"/>
 <path d="M4786 2044 c-4 -11 1 -26 14 -39 11 -12 20 -27 20 -33 0 -7 5 -12 10 -12 6 0 10 4 10 9 0 6 -4 13 -10 16 -5 3 -10 17 -10 29 0 31 -25 53 -34 30z"/>
 </g>
<g id="layer109" fill="#7d8385" stroke="none">
 <path d="M0 2430 l0 -2430 4015 0 4015 0 0 2430 0 2430 -4015 0 -4015 0 0 -2430z m4131 904 c7 -9 22 -14 36 -11 17 3 23 1 19 -9 -3 -7 0 -16 5 -20 7 -4 7 -10 0 -17 -6 -6 -11 -19 -11 -28 0 -10 -8 -18 -17 -18 -59 -1 -78 -13 -121 -77 -22 -33 -4 51 19 91 11 19 20 47 19 62 -1 15 -2 31 -1 36 2 13 38 7 52 -9z m387 -21 c3 -34 1 -36 -48 -37 -27 -1 -36 -22 -25 -63 4 -17 11 -23 21 -19 12 5 14 -1 8 -29 -5 -30 -3 -35 12 -35 11 0 36 18 57 41 36 38 38 43 32 82 -4 23 -11 50 -16 59 -12 22 7 34 26 18 8 -7 15 -23 15 -35 0 -12 7 -28 15 -35 7 -6 17 -33 20 -58 4 -26 11 -57 18 -70 8 -18 7 -37 -6 -87 -9 -35 -17 -68 -17 -74 0 -6 16 -25 35 -42 19 -18 35 -38 35 -46 0 -7 7 -16 16 -20 13 -5 15 -15 9 -58 -4 -35 -2 -55 5 -60 13 -8 12 -61 -2 -172 -12 -87 -2 -131 42 -193 10 -14 22 -39 26 -56 4 -16 11 -34 16 -41 23 -29 69 -193 74 -263 5 -68 3 -78 -18 -104 -28 -33 -77 -43 -123 -24 -50 21 -107 83 -114 124 -5 31 -10 37 -35 40 -15 1 -37 10 -47 20 -10 9 -25 14 -33 11 -8 -3 -20 0 -26 8 -6 7 -25 16 -43 19 -25 5 -36 14 -47 39 -7 17 -16 36 -18 41 -4 8 52 3 105 -11 18 -4 25 0 32 18 9 24 2 42 -49 126 -16 27 -18 38 -8 60 21 53 5 103 -33 103 -22 0 -90 58 -87 74 1 6 -3 21 -10 34 -13 23 -15 22 32 36 10 3 11 17 4 68 -6 34 -12 65 -15 68 -2 3 -14 -7 -25 -23 -11 -15 -26 -27 -33 -27 -18 0 -47 -47 -45 -73 4 -41 0 -42 -19 -2 -10 22 -44 65 -75 95 l-56 54 22 23 c25 27 48 16 48 -24 0 -21 3 -23 14 -14 11 9 16 9 22 0 5 -8 13 -4 25 12 25 33 24 46 -8 61 -36 17 -55 72 -46 134 4 33 12 48 25 53 19 7 19 8 -6 38 -14 17 -26 38 -26 46 0 30 23 31 47 2 17 -19 27 -25 35 -17 7 7 16 7 29 -1 14 -9 22 -7 38 7 12 11 21 27 21 36 0 24 11 32 28 18 12 -10 18 -8 33 11 16 20 17 27 7 40 -32 40 -40 62 -27 77 9 11 14 12 19 4 5 -8 15 -1 30 20 18 25 28 31 54 28 27 -3 31 -7 34 -35z m180 -10 c2 -24 -1 -50 -6 -60 -8 -14 -12 -9 -23 28 -7 24 -19 48 -26 52 -21 13 -4 29 25 25 24 -3 27 -8 30 -45z m-485 -110 c3 -5 -1 -14 -9 -21 -12 -11 -14 -9 -14 8 0 20 14 27 23 13z m191 -809 c18 -7 12 -24 -10 -24 -8 0 -14 7 -14 15 0 17 2 18 24 9z m-350 -294 c-13 -13 -51 -1 -58 17 -4 10 -2 13 8 10 8 -3 20 1 27 10 12 13 14 13 23 -6 6 -14 6 -25 0 -31z m516 -154 c0 -39 -12 -52 -29 -32 -9 10 -9 20 0 40 17 36 29 33 29 -8z m-85 -55 c9 -15 -16 -25 -63 -26 -43 -1 -43 -1 -20 17 25 19 73 24 83 9z m-492 -186 c18 -25 18 -25 -11 -25 -39 0 -57 19 -34 36 23 18 24 17 45 -11z"/>
 <path d="M4587 3112 c-19 -21 -22 -42 -7 -42 6 0 10 9 10 19 0 11 6 21 13 24 6 2 9 7 6 11 -3 3 -13 -2 -22 -12z"/>
 <path d="M4360 3090 c0 -24 15 -27 24 -4 9 22 8 24 -9 24 -8 0 -15 -9 -15 -20z"/>
 <path d="M4517 3014 c-8 -51 15 -144 35 -144 5 0 8 -11 8 -25 0 -14 4 -25 8 -25 12 0 32 -46 32 -74 0 -27 28 -43 36 -21 4 8 10 12 15 9 16 -9 10 -40 -11 -59 -26 -24 -25 -47 3 -73 28 -26 37 -20 37 24 0 18 4 34 9 36 9 3 15 36 12 67 -1 11 -5 10 -16 -5 -13 -17 -14 -17 -15 -2 0 9 -6 21 -14 25 -8 4 -16 17 -18 28 -5 19 -6 19 -15 -4 -7 -18 -9 -11 -9 37 0 50 -4 65 -23 86 -13 14 -21 31 -18 38 2 8 -8 38 -23 67 l-27 54 -6 -39z"/>
 <path d="M4382 2953 c2 -10 11 -19 21 -21 16 -3 17 -1 7 17 -13 25 -33 28 -28 4z"/>
 <path d="M4300 2943 c1 -18 18 -35 24 -24 4 6 4 16 1 21 -7 12 -25 13 -25 3z"/>
 <path d="M4576 2461 c-3 -5 1 -14 8 -20 16 -13 32 2 21 19 -8 12 -22 13 -29 1z"/>
 <path d="M4630 2298 c0 -7 5 -20 10 -28 8 -13 11 -13 26 2 9 9 13 21 10 27 -10 15 -46 14 -46 -1z"/>
 <path d="M4686 2195 c-7 -27 12 -67 29 -62 15 5 18 43 5 66 -14 28 -26 26 -34 -4z"/>
 <path d="M4537 2196 c-3 -8 -2 -18 3 -21 13 -8 24 15 12 27 -6 6 -11 4 -15 -6z"/>
 <path d="M4630 2162 c0 -5 9 -17 20 -27 17 -16 20 -16 26 -2 3 9 3 21 -1 27 -7 12 -45 14 -45 2z"/>
 <path d="M4674 2086 c-12 -32 34 -82 56 -60 13 13 2 44 -16 44 -7 0 -17 8 -23 18 -9 16 -10 16 -17 -2z"/>
 <path d="M4786 2044 c-4 -11 1 -26 14 -39 11 -12 20 -27 20 -33 0 -7 5 -12 10 -12 6 0 10 4 10 9 0 6 -4 13 -10 16 -5 3 -10 17 -10 29 0 31 -25 53 -34 30z"/>
 </g>
<g id="layer110" fill="#d56f71" stroke="none">
 <path d="M0 2430 l0 -2430 4015 0 4015 0 0 2430 0 2430 -4015 0 -4015 0 0 -2430z m4131 904 c7 -9 22 -14 36 -11 17 3 23 1 19 -9 -3 -7 0 -15 7 -17 9 -3 9 -8 0 -18 -7 -7 -13 -21 -13 -30 0 -10 -8 -18 -17 -18 -59 -1 -78 -13 -121 -77 -22 -33 -4 51 19 91 11 19 20 47 19 62 -1 15 -2 31 -1 36 2 13 38 7 52 -9z m387 -21 c3 -34 1 -36 -48 -37 -27 -1 -36 -22 -25 -63 4 -17 11 -23 21 -19 12 5 14 -1 8 -29 -5 -30 -3 -35 12 -35 11 0 36 18 57 41 36 38 38 43 32 82 -4 23 -11 50 -16 59 -12 22 7 34 26 18 8 -7 15 -23 15 -35 0 -12 7 -28 15 -35 7 -6 17 -33 20 -58 4 -26 11 -57 18 -70 8 -18 7 -37 -6 -87 -9 -35 -17 -68 -17 -74 0 -6 16 -25 35 -42 19 -18 35 -38 35 -46 0 -7 7 -16 16 -20 13 -5 15 -15 9 -58 -4 -35 -2 -55 5 -60 13 -8 12 -61 -2 -172 -12 -87 -2 -131 42 -193 10 -14 22 -39 26 -56 4 -16 11 -34 16 -41 23 -29 69 -193 74 -263 5 -68 3 -78 -18 -104 -28 -33 -77 -43 -123 -24 -50 21 -107 83 -114 124 -5 31 -10 37 -35 40 -15 1 -37 10 -47 20 -10 9 -25 14 -33 11 -8 -3 -20 0 -26 8 -6 7 -25 16 -43 19 -25 5 -36 14 -47 39 -7 17 -16 36 -18 41 -4 8 52 3 105 -11 18 -4 25 0 32 18 9 24 2 42 -49 126 -16 27 -18 38 -8 60 21 53 5 103 -33 103 -22 0 -90 58 -87 74 1 6 -3 21 -10 34 -13 23 -15 22 32 36 10 3 11 17 4 68 -6 34 -12 65 -15 68 -2 3 -14 -7 -25 -23 -11 -15 -26 -27 -33 -27 -18 0 -47 -47 -45 -73 4 -41 0 -42 -19 -2 -10 22 -44 65 -75 95 l-56 54 22 23 21 23 35 -36 35 -36 18 23 c25 33 24 46 -8 61 -36 17 -55 72 -46 134 4 33 12 48 25 53 19 7 19 8 -6 38 -14 17 -26 38 -26 46 0 30 23 31 47 2 17 -19 27 -25 35 -17 7 7 16 7 29 -1 14 -9 22 -7 38 7 12 11 21 27 21 36 0 24 11 32 28 18 12 -10 18 -8 33 11 16 20 17 27 7 40 -32 40 -40 62 -27 77 9 11 14 12 19 4 5 -8 15 -1 30 20 18 25 28 31 54 28 27 -3 31 -7 34 -35z m180 -10 c2 -24 -1 -50 -6 -60 -8 -14 -12 -9 -23 28 -7 24 -19 48 -26 52 -21 13 -4 29 25 25 24 -3 27 -8 30 -45z m-485 -110 c3 -5 -1 -14 -9 -21 -12 -11 -14 -9 -14 8 0 20 14 27 23 13z m191 -809 c18 -7 12 -24 -10 -24 -8 0 -14 7 -14 15 0 17 2 18 24 9z m-350 -294 c-13 -13 -51 -1 -58 17 -4 10 -2 13 8 10 8 -3 20 1 27 10 12 13 14 13 23 -6 6 -14 6 -25 0 -31z m516 -154 c0 -39 -12 -52 -29 -32 -9 10 -9 20 0 40 17 36 29 33 29 -8z m-85 -55 c9 -15 -16 -25 -63 -26 -43 -1 -43 -1 -20 17 25 19 73 24 83 9z m-492 -186 c18 -25 18 -25 -11 -25 -39 0 -57 19 -34 36 23 18 24 17 45 -11z"/>
 <path d="M4587 3112 c-19 -21 -22 -42 -7 -42 6 0 10 9 10 19 0 11 6 21 13 24 6 2 9 7 6 11 -3 3 -13 -2 -22 -12z"/>
 <path d="M4360 3090 c0 -24 15 -27 24 -4 9 22 8 24 -9 24 -8 0 -15 -9 -15 -20z"/>
 <path d="M4520 3039 c0 -9 -3 -31 -7 -49 -4 -22 -3 -31 5 -27 6 5 8 0 5 -13 -5 -20 17 -80 29 -80 5 0 8 -11 8 -25 0 -14 4 -25 8 -25 5 0 14 -12 20 -26 18 -37 31 -20 27 32 -2 30 -12 55 -26 70 -12 12 -19 29 -16 36 2 8 -8 38 -24 68 -15 30 -28 48 -29 39z"/>
 <path d="M4382 2953 c2 -10 11 -19 21 -21 16 -3 17 -1 7 17 -13 25 -33 28 -28 4z"/>
 <path d="M4300 2943 c1 -18 18 -35 24 -24 4 6 4 16 1 21 -7 12 -25 13 -25 3z"/>
 <path d="M4625 2773 c-4 -13 -11 -20 -16 -17 -5 3 -9 -4 -9 -14 0 -24 29 -37 36 -17 4 8 10 12 15 9 16 -9 10 -40 -11 -59 -26 -24 -25 -47 3 -73 28 -26 37 -20 37 24 0 18 4 34 9 36 9 3 15 36 12 67 -1 11 -5 10 -16 -5 -13 -17 -14 -17 -15 -2 0 9 -6 21 -14 25 -8 4 -16 17 -19 28 -5 19 -5 19 -12 -2z"/>
 <path d="M4576 2461 c-3 -5 1 -14 8 -20 16 -13 32 2 21 19 -8 12 -22 13 -29 1z"/>
 <path d="M4630 2298 c0 -7 5 -20 10 -28 8 -13 11 -13 26 2 9 9 13 21 10 27 -10 15 -46 14 -46 -1z"/>
 <path d="M4686 2195 c-7 -27 12 -67 29 -62 15 5 18 43 5 66 -14 28 -26 26 -34 -4z"/>
 <path d="M4537 2196 c-3 -8 -2 -18 3 -21 13 -8 24 15 12 27 -6 6 -11 4 -15 -6z"/>
 <path d="M4630 2162 c0 -5 9 -17 20 -27 17 -16 20 -16 26 -2 3 9 3 21 -1 27 -7 12 -45 14 -45 2z"/>
 <path d="M4674 2086 c-12 -32 34 -82 56 -60 13 13 2 44 -16 44 -7 0 -17 8 -23 18 -9 16 -10 16 -17 -2z"/>
 <path d="M4786 2044 c-4 -11 1 -26 14 -39 11 -12 20 -27 20 -33 0 -7 5 -12 10 -12 6 0 10 4 10 9 0 6 -4 13 -10 16 -5 3 -10 17 -10 29 0 31 -25 53 -34 30z"/>
 </g>
<g id="layer111" fill="#a3a2a5" stroke="none">
 <path d="M0 2430 l0 -2430 4015 0 4015 0 0 2430 0 2430 -4015 0 -4015 0 0 -2430z m4131 904 c7 -9 22 -14 36 -11 17 3 23 1 19 -9 -3 -7 0 -15 7 -17 9 -3 9 -8 0 -18 -7 -7 -13 -21 -13 -30 0 -10 -8 -18 -17 -18 -59 -1 -78 -13 -121 -77 -22 -33 -4 51 19 91 11 19 20 47 19 62 -1 15 -2 31 -1 36 2 13 38 7 52 -9z m387 -21 c3 -34 1 -36 -48 -37 -27 -1 -36 -22 -25 -63 4 -17 11 -23 21 -19 12 5 14 -1 8 -29 -5 -30 -3 -35 12 -35 11 0 36 18 57 40 34 37 37 43 31 82 -4 24 -11 51 -15 60 -12 22 7 34 26 18 8 -7 15 -23 15 -35 0 -12 7 -28 15 -35 7 -6 17 -33 20 -58 4 -26 11 -57 18 -70 8 -18 7 -37 -6 -87 -9 -35 -17 -68 -17 -74 0 -6 16 -25 35 -42 19 -18 35 -38 35 -46 0 -7 7 -16 16 -20 13 -5 15 -15 9 -58 -4 -35 -2 -55 5 -60 13 -8 12 -61 -2 -172 -12 -87 -2 -131 42 -193 10 -14 22 -39 26 -56 4 -16 11 -34 16 -41 23 -29 69 -193 74 -263 5 -68 3 -78 -18 -104 -28 -33 -77 -43 -123 -24 -50 21 -107 83 -114 124 -5 31 -10 37 -35 40 -15 1 -37 10 -47 20 -10 9 -25 14 -33 11 -8 -3 -20 0 -26 8 -6 7 -25 16 -43 19 -25 5 -36 14 -47 39 -7 17 -16 36 -18 41 -4 8 52 3 105 -11 18 -4 25 0 32 18 9 24 2 42 -49 126 -16 27 -18 38 -8 60 21 53 5 103 -33 103 -22 0 -90 58 -87 74 1 6 -3 21 -10 34 -13 23 -15 22 32 36 10 3 11 17 4 68 -6 34 -12 65 -15 68 -2 3 -14 -7 -25 -23 -11 -15 -26 -27 -33 -27 -18 0 -47 -47 -45 -73 4 -41 0 -42 -19 -2 -10 22 -44 65 -75 95 l-56 54 22 23 21 23 35 -36 35 -36 18 23 c25 33 24 46 -8 61 -36 17 -55 72 -46 134 4 33 12 48 25 53 19 7 19 8 -6 38 -14 17 -26 38 -26 46 0 30 23 31 47 2 17 -19 27 -25 35 -17 7 7 16 7 29 -1 14 -9 22 -7 38 7 12 11 21 27 21 36 0 24 11 32 28 18 12 -10 18 -8 33 11 16 20 17 27 7 40 -26 32 -38 61 -32 76 7 18 21 20 26 3 2 -6 15 3 27 21 19 26 29 32 55 29 27 -3 31 -7 34 -35z m180 -10 c2 -24 -1 -50 -6 -60 -8 -14 -12 -9 -23 28 -7 24 -19 48 -26 52 -21 13 -4 29 25 25 24 -3 27 -8 30 -45z m-485 -110 c3 -5 -1 -14 -9 -21 -12 -11 -14 -9 -14 8 0 20 14 27 23 13z m200 -812 c17 -6 16 -8 -7 -19 -23 -10 -26 -9 -26 8 0 21 4 23 33 11z m-357 -288 c-6 -15 -47 -13 -58 2 -13 17 -9 27 7 21 9 -3 20 3 27 14 12 19 13 19 21 -2 4 -12 5 -28 3 -35z m514 -157 c0 -39 -12 -52 -29 -32 -9 10 -9 20 0 40 17 36 29 33 29 -8z m-85 -55 c9 -15 -16 -25 -63 -26 -43 -1 -43 -1 -20 17 25 19 73 24 83 9z m-568 -103 c-8 -13 -13 -14 -19 -5 -12 18 -10 23 11 23 15 0 17 -3 8 -18z m81 -88 l23 -30 -33 7 c-48 9 -63 22 -41 39 24 18 24 17 51 -16z m91 -4 c-12 -10 -60 -16 -54 -6 3 5 18 10 32 10 15 0 24 -2 22 -4z"/>
 <path d="M4587 3112 c-19 -21 -22 -42 -7 -42 6 0 10 9 10 19 0 11 6 21 13 24 6 2 9 7 6 11 -3 3 -13 -2 -22 -12z"/>
 <path d="M4360 3090 c0 -24 15 -27 24 -4 9 22 8 24 -9 24 -8 0 -15 -9 -15 -20z"/>
 <path d="M4520 3039 c0 -9 -3 -31 -7 -49 -4 -22 -3 -31 5 -27 6 5 8 0 5 -13 -5 -20 17 -80 29 -80 5 0 8 -11 8 -25 0 -14 4 -25 8 -25 5 0 14 -12 21 -26 16 -37 26 -22 22 34 -2 31 -10 55 -23 69 -11 12 -18 28 -15 35 2 8 -8 38 -24 68 -15 30 -28 48 -29 39z"/>
 <path d="M4382 2953 c2 -10 11 -19 21 -21 16 -3 17 -1 7 17 -13 25 -33 28 -28 4z"/>
 <path d="M4300 2943 c1 -18 18 -35 24 -24 4 6 4 16 1 21 -7 12 -25 13 -25 3z"/>
 <path d="M4625 2773 c-4 -13 -11 -20 -16 -17 -5 3 -9 -4 -9 -14 0 -24 29 -37 36 -17 4 8 10 12 15 9 16 -9 10 -40 -11 -59 -26 -24 -25 -47 3 -73 28 -26 37 -20 37 24 0 18 4 34 9 36 9 3 15 36 12 67 -1 11 -5 10 -16 -5 -13 -17 -14 -17 -15 -2 0 9 -6 21 -14 25 -8 4 -16 17 -19 28 -5 19 -5 19 -12 -2z"/>
 <path d="M4576 2461 c-3 -5 1 -14 8 -20 16 -13 32 2 21 19 -8 12 -22 13 -29 1z"/>
 <path d="M4630 2298 c0 -7 5 -20 10 -28 8 -13 11 -13 26 2 9 9 13 21 10 27 -10 15 -46 14 -46 -1z"/>
 <path d="M4689 2208 c0 -7 -2 -20 -4 -29 -4 -20 21 -53 34 -44 14 8 14 41 1 66 -12 21 -30 25 -31 7z"/>
 <path d="M4537 2196 c-3 -8 -2 -18 3 -21 13 -8 24 15 12 27 -6 6 -11 4 -15 -6z"/>
 <path d="M4630 2162 c0 -5 9 -17 20 -27 17 -16 20 -16 26 -2 3 9 3 21 -1 27 -7 12 -45 14 -45 2z"/>
 <path d="M4674 2086 c-12 -32 34 -82 56 -60 13 13 2 44 -16 44 -7 0 -17 8 -23 18 -9 16 -10 16 -17 -2z"/>
 <path d="M4786 2045 c-3 -8 2 -24 12 -34 9 -10 23 -26 30 -37 11 -17 11 -17 2 3 -5 12 -10 30 -10 41 0 27 -26 48 -34 27z"/>
 </g>
<g id="layer112" fill="#d59192" stroke="none">
 <path d="M0 2430 l0 -2430 4015 0 4015 0 0 2430 0 2430 -4015 0 -4015 0 0 -2430z m4131 904 c7 -9 22 -14 36 -11 26 5 43 -27 24 -46 -6 -6 -11 -19 -11 -28 0 -10 -8 -18 -17 -18 -59 -1 -78 -13 -121 -77 -22 -33 -4 51 19 91 11 19 20 47 19 62 -1 15 -2 31 -1 36 2 13 38 7 52 -9z m387 -21 c3 -34 1 -36 -48 -37 -27 -1 -36 -22 -25 -63 4 -17 11 -23 21 -19 12 5 14 -1 8 -29 -5 -30 -3 -35 12 -35 11 0 36 18 57 40 34 37 37 43 31 82 -4 24 -11 51 -15 60 -12 22 7 34 26 18 8 -7 15 -22 15 -33 0 -11 7 -28 15 -37 8 -9 18 -41 23 -71 4 -30 13 -53 19 -52 11 2 4 -49 -17 -117 -15 -51 -13 -56 25 -91 19 -18 35 -38 35 -46 0 -7 7 -16 16 -20 13 -5 15 -15 9 -58 -4 -35 -2 -55 5 -60 13 -8 12 -61 -2 -172 -12 -87 -2 -131 42 -193 10 -14 22 -39 26 -56 4 -16 11 -34 16 -41 23 -29 69 -193 74 -263 5 -68 3 -78 -18 -104 -28 -33 -77 -43 -123 -24 -50 21 -107 83 -114 124 -5 31 -10 37 -35 40 -15 1 -37 10 -47 20 -10 9 -25 14 -33 11 -8 -3 -20 0 -26 8 -6 7 -25 16 -43 19 -25 5 -36 14 -47 39 -7 17 -16 36 -18 41 -4 8 52 3 105 -11 18 -4 25 0 32 18 9 24 2 42 -49 126 -16 27 -18 38 -8 60 21 53 5 103 -33 103 -22 0 -90 58 -87 74 1 6 -3 21 -10 34 -13 23 -15 22 32 36 10 3 11 17 4 68 -6 34 -12 65 -15 68 -2 3 -14 -7 -25 -23 -11 -15 -26 -27 -33 -27 -18 0 -47 -47 -45 -73 4 -41 0 -42 -19 -2 -10 22 -44 65 -75 95 l-56 54 22 23 21 23 35 -36 35 -36 18 23 c25 33 24 46 -8 61 -17 8 -33 27 -40 48 -15 42 -7 118 15 143 14 16 13 19 -6 40 -12 13 -22 31 -22 40 0 30 23 31 47 2 17 -19 27 -25 35 -17 7 7 16 7 29 -1 14 -9 22 -7 38 7 12 11 21 27 21 36 0 24 11 32 28 18 12 -10 18 -8 33 11 16 20 17 27 7 40 -26 32 -38 61 -32 76 7 18 21 20 26 3 2 -6 15 3 27 21 19 26 29 32 55 29 27 -3 31 -7 34 -35z m180 -10 c2 -24 -1 -50 -6 -59 -8 -14 -12 -10 -22 22 -7 21 -19 46 -26 55 -18 20 -7 31 26 27 22 -3 25 -8 28 -45z m-485 -110 c3 -5 -1 -14 -9 -21 -12 -11 -14 -9 -14 8 0 20 14 27 23 13z m200 -812 c17 -6 16 -8 -7 -19 -23 -10 -26 -9 -26 8 0 21 4 23 33 11z m-357 -288 c-6 -15 -47 -13 -58 2 -13 17 -9 27 7 21 9 -3 20 3 27 14 12 19 13 19 21 -2 4 -12 5 -28 3 -35z m514 -157 c0 -39 -12 -52 -29 -32 -9 10 -9 20 0 40 17 36 29 33 29 -8z m-85 -65 c-8 -8 -34 -15 -60 -16 -46 -1 -46 0 -23 17 14 11 37 17 61 16 33 -2 36 -4 22 -17z m-568 -93 c-8 -13 -13 -14 -19 -5 -12 18 -10 23 11 23 15 0 17 -3 8 -18z m81 -88 l23 -30 -33 7 c-48 9 -63 22 -41 39 24 18 24 17 51 -16z m91 -4 c-12 -10 -60 -16 -54 -6 3 5 18 10 32 10 15 0 24 -2 22 -4z"/>
 <path d="M4587 3112 c-19 -21 -22 -42 -7 -42 6 0 10 9 10 19 0 11 6 21 13 24 6 2 9 7 6 11 -3 3 -13 -2 -22 -12z"/>
 <path d="M4360 3090 c0 -24 15 -27 24 -4 9 22 8 24 -9 24 -8 0 -15 -9 -15 -20z"/>
 <path d="M4518 3019 c-3 -19 -1 -40 4 -46 6 -7 7 -20 4 -29 -8 -20 14 -74 30 -74 7 0 15 -7 18 -16 3 -8 2 -12 -4 -9 -16 10 -11 -13 7 -34 22 -27 33 -18 33 28 0 26 -7 44 -21 57 -11 10 -18 25 -16 34 2 9 -8 41 -23 70 l-27 54 -5 -35z"/>
 <path d="M4387 2954 c-9 -10 2 -24 18 -24 9 0 12 6 9 15 -6 16 -17 19 -27 9z"/>
 <path d="M4625 2773 c-4 -13 -11 -20 -16 -17 -5 3 -9 -4 -9 -14 0 -24 29 -37 36 -17 4 8 10 12 15 9 16 -9 10 -40 -11 -59 -26 -24 -25 -47 3 -73 28 -26 37 -20 37 24 0 18 4 34 9 36 9 3 15 36 12 67 -1 11 -5 10 -16 -5 -13 -17 -14 -17 -15 -2 0 9 -6 21 -14 25 -8 4 -16 17 -19 28 -5 19 -5 19 -12 -2z"/>
 <path d="M4576 2461 c-3 -5 1 -14 8 -20 16 -13 32 2 21 19 -8 12 -22 13 -29 1z"/>
 <path d="M4630 2298 c0 -7 5 -20 10 -28 8 -13 11 -13 26 2 9 9 13 21 10 27 -10 15 -46 14 -46 -1z"/>
 <path d="M4689 2208 c0 -7 -2 -20 -4 -29 -4 -20 21 -53 34 -44 14 8 14 41 1 66 -12 21 -30 25 -31 7z"/>
 <path d="M4537 2196 c-3 -8 -2 -18 3 -21 13 -8 24 15 12 27 -6 6 -11 4 -15 -6z"/>
 <path d="M4630 2162 c0 -5 9 -17 20 -27 17 -16 20 -16 26 -2 3 9 3 21 -1 27 -7 12 -45 14 -45 2z"/>
 <path d="M4675 2079 c-8 -12 24 -59 41 -59 17 0 25 15 19 32 -7 17 -53 39 -60 27z"/>
 <path d="M4786 2045 c-3 -8 2 -24 12 -34 9 -10 23 -26 30 -37 11 -17 11 -17 2 3 -5 12 -10 30 -10 41 0 27 -26 48 -34 27z"/>
 </g>
<g id="layer113" fill="#d6b2b2" stroke="none">
 <path d="M0 2430 l0 -2430 4015 0 4015 0 0 2430 0 2430 -4015 0 -4015 0 0 -2430z m4131 904 c7 -9 22 -14 36 -11 26 5 43 -27 24 -46 -6 -6 -11 -19 -11 -28 0 -10 -8 -18 -17 -18 -46 -1 -68 -10 -90 -35 -12 -15 -23 -34 -23 -42 0 -8 -5 -14 -11 -14 -16 0 -3 63 22 105 11 19 20 47 19 62 -1 15 -2 31 -1 36 2 13 38 7 52 -9z m387 -21 c3 -34 1 -36 -48 -37 -27 -1 -36 -22 -25 -63 4 -17 11 -23 21 -19 12 5 14 -1 8 -29 -5 -30 -3 -35 12 -35 11 0 36 18 57 40 34 37 37 43 31 82 -4 24 -11 51 -15 60 -12 22 7 34 26 18 8 -7 15 -22 15 -33 0 -11 7 -28 15 -37 8 -9 18 -41 23 -71 4 -30 13 -53 19 -52 11 2 4 -49 -17 -117 -15 -51 -13 -56 25 -91 19 -18 35 -38 35 -46 0 -7 7 -16 16 -20 13 -5 15 -15 9 -58 -4 -35 -2 -55 5 -60 13 -8 12 -61 -2 -172 -12 -87 -2 -131 42 -193 10 -14 22 -39 26 -56 4 -16 11 -34 16 -41 23 -29 69 -193 74 -263 5 -68 3 -78 -18 -104 -28 -33 -77 -43 -123 -24 -50 21 -107 83 -114 124 -5 31 -10 37 -35 40 -15 1 -37 10 -47 20 -10 9 -25 14 -33 11 -8 -3 -20 0 -26 8 -6 7 -25 16 -43 19 -25 5 -36 14 -47 39 -7 17 -15 35 -17 39 -3 4 18 6 46 5 28 -1 51 -5 51 -9 0 -18 31 -6 39 15 9 22 1 41 -49 124 -16 27 -18 38 -8 60 21 53 5 103 -33 103 -22 0 -90 58 -87 74 1 6 -3 21 -10 34 -13 23 -15 22 32 36 10 3 11 17 4 68 -6 34 -12 65 -15 68 -2 3 -14 -7 -25 -23 -11 -15 -26 -27 -33 -27 -20 0 -47 -48 -43 -77 2 -15 -3 -28 -9 -30 -8 -3 -13 5 -13 22 0 20 -18 45 -65 94 l-65 68 23 21 22 21 34 -36 34 -36 18 24 c25 33 24 46 -8 61 -17 8 -33 27 -40 48 -15 42 -7 118 15 143 14 16 13 19 -6 40 -12 13 -22 31 -22 40 0 30 23 31 47 2 17 -19 27 -25 35 -17 7 7 16 7 29 -1 14 -9 22 -7 38 7 12 11 21 27 21 36 0 24 11 32 28 18 12 -10 18 -8 33 11 16 20 17 27 7 40 -26 32 -38 61 -32 76 7 18 21 20 26 3 2 -6 15 3 27 21 19 26 29 32 55 29 27 -3 31 -7 34 -35z m180 -10 c2 -24 -1 -50 -6 -59 -8 -14 -12 -10 -22 22 -7 21 -19 46 -26 55 -18 20 -7 31 26 27 22 -3 25 -8 28 -45z m-478 -109 c0 -7 -27 -34 -33 -34 -3 0 -3 9 0 20 5 17 33 30 33 14z m199 -813 c13 -9 10 -13 -21 -24 -13 -5 -18 -1 -18 13 0 21 16 25 39 11z m-363 -288 c-6 -15 -47 -13 -58 2 -13 17 -9 27 7 21 9 -3 20 3 27 14 12 19 13 19 21 -2 4 -12 5 -28 3 -35z m514 -157 c0 -39 -12 -52 -29 -32 -9 10 -9 20 0 40 17 36 29 33 29 -8z m-85 -65 c-8 -8 -34 -15 -60 -16 -46 -1 -46 0 -23 17 14 11 37 17 61 16 33 -2 36 -4 22 -17z m-135 -40 c0 -5 -9 -11 -20 -14 -22 -6 -26 3 -8 21 11 11 28 7 28 -7z m-433 -53 c-8 -13 -13 -14 -19 -5 -12 18 -10 23 11 23 15 0 17 -3 8 -18z m78 -83 c32 -33 32 -36 -7 -28 -48 9 -62 22 -41 39 23 17 18 18 48 -11z m94 -9 c-12 -10 -60 -16 -54 -6 3 5 18 10 32 10 15 0 24 -2 22 -4z"/>
 <path d="M4587 3112 c-19 -21 -22 -42 -7 -42 6 0 10 9 10 19 0 11 6 21 13 24 6 2 9 7 6 11 -3 3 -13 -2 -22 -12z"/>
 <path d="M4360 3090 c0 -24 15 -27 24 -4 9 22 8 24 -9 24 -8 0 -15 -9 -15 -20z"/>
 <path d="M4518 3019 c-3 -19 -1 -40 4 -46 6 -7 7 -20 4 -29 -8 -20 14 -74 30 -74 7 0 15 -7 18 -16 3 -8 2 -12 -4 -9 -16 10 -11 -13 7 -34 22 -27 33 -18 33 28 0 26 -7 44 -21 57 -11 10 -18 25 -16 34 2 9 -8 41 -23 70 l-27 54 -5 -35z"/>
 <path d="M4387 2954 c-9 -10 2 -24 18 -24 9 0 12 6 9 15 -6 16 -17 19 -27 9z"/>
 <path d="M4625 2773 c-4 -13 -11 -23 -16 -23 -5 0 -9 -6 -9 -14 0 -20 30 -29 36 -11 4 8 10 12 15 9 16 -9 10 -40 -11 -59 -26 -24 -25 -47 3 -73 28 -26 37 -20 37 24 0 18 4 34 9 36 9 3 15 36 12 67 -1 11 -5 10 -16 -5 -13 -17 -14 -17 -15 -2 0 9 -6 21 -14 25 -8 4 -16 17 -19 28 -5 19 -5 19 -12 -2z"/>
 <path d="M4576 2461 c-3 -5 1 -14 8 -20 16 -13 32 2 21 19 -8 12 -22 13 -29 1z"/>
 <path d="M4630 2298 c0 -7 5 -20 10 -28 8 -13 11 -13 26 2 9 9 13 21 10 27 -10 15 -46 14 -46 -1z"/>
 <path d="M4688 2203 c-6 -26 12 -75 26 -70 16 5 19 42 6 66 -13 26 -27 27 -32 4z"/>
 <path d="M4537 2196 c-3 -8 -2 -18 3 -21 13 -8 24 15 12 27 -6 6 -11 4 -15 -6z"/>
 <path d="M4630 2162 c0 -5 9 -17 20 -27 17 -16 20 -16 26 -2 3 9 3 21 -1 27 -7 12 -45 14 -45 2z"/>
 <path d="M4675 2079 c-8 -12 24 -59 41 -59 17 0 25 15 19 32 -7 17 -53 39 -60 27z"/>
 <path d="M4786 2045 c-3 -8 2 -24 12 -34 9 -10 23 -26 30 -37 11 -17 11 -17 2 3 -5 12 -10 30 -10 41 0 27 -26 48 -34 27z"/>
 </g>
<g id="layer114" fill="#dbc0c3" stroke="none">
 <path d="M0 2430 l0 -2430 4015 0 4015 0 0 2430 0 2430 -4015 0 -4015 0 0 -2430z m4131 904 c7 -9 22 -14 36 -11 26 5 42 -26 24 -47 -6 -8 -9 -21 -5 -30 5 -12 0 -16 -17 -16 -50 1 -73 -7 -96 -34 -12 -15 -23 -34 -23 -42 0 -8 -5 -14 -11 -14 -16 0 -3 63 22 105 11 19 20 47 19 62 -1 15 -2 31 -1 36 2 13 38 7 52 -9z m387 -21 c3 -34 1 -36 -48 -37 -27 -1 -36 -22 -25 -63 4 -17 11 -23 21 -19 12 5 14 -1 8 -29 -5 -30 -3 -35 12 -35 11 0 36 18 57 40 34 37 37 43 31 82 -4 24 -11 51 -15 60 -12 22 7 34 26 18 8 -7 15 -22 15 -33 0 -11 7 -28 15 -37 8 -9 18 -41 23 -71 4 -30 13 -53 19 -52 11 2 4 -49 -17 -117 -15 -51 -13 -56 25 -91 19 -18 35 -38 35 -46 0 -7 7 -16 16 -20 13 -5 15 -15 9 -58 -4 -35 -2 -55 5 -60 13 -8 12 -61 -2 -172 -12 -87 -2 -131 42 -193 10 -14 22 -39 26 -56 4 -16 11 -34 16 -41 23 -29 69 -193 74 -263 5 -68 3 -78 -18 -104 -28 -33 -77 -43 -123 -24 -50 21 -107 83 -114 124 -5 31 -10 37 -35 40 -15 1 -37 10 -47 20 -10 9 -25 14 -33 11 -8 -3 -20 0 -26 8 -6 7 -25 16 -43 19 -25 5 -36 14 -47 39 -7 17 -15 35 -17 39 -3 4 18 6 46 5 28 -1 51 -5 51 -9 0 -18 31 -6 39 15 9 22 1 41 -49 124 -16 27 -18 38 -8 60 21 53 5 103 -33 103 -22 0 -90 58 -87 74 1 6 -3 21 -10 34 -13 23 -15 22 32 36 10 3 11 17 4 68 -6 34 -12 65 -15 68 -2 3 -14 -7 -25 -23 -11 -15 -26 -27 -33 -27 -20 0 -47 -48 -43 -77 2 -15 -3 -28 -9 -30 -8 -3 -13 5 -13 22 0 20 -18 45 -65 94 l-65 68 23 21 22 21 34 -36 34 -36 18 24 c25 33 24 46 -8 61 -17 8 -33 27 -40 48 -15 43 -6 118 16 143 15 18 14 20 -7 37 -23 19 -30 54 -12 65 6 4 8 10 5 15 -8 13 6 40 21 40 16 0 19 -16 4 -25 -15 -9 -12 -27 11 -54 14 -17 23 -21 31 -13 8 8 16 7 29 -1 14 -9 22 -7 38 7 12 11 21 27 21 36 0 24 11 32 28 18 12 -10 18 -8 33 11 16 20 17 27 7 40 -27 33 -37 59 -31 81 6 22 7 22 19 5 12 -17 15 -16 31 14 16 27 23 31 53 29 31 -3 35 -6 38 -35z m180 -10 c2 -24 -1 -50 -6 -59 -8 -14 -12 -10 -22 22 -7 21 -19 46 -26 55 -18 20 -7 31 26 27 22 -3 25 -8 28 -45z m-408 -701 c0 -10 6 -24 13 -32 10 -12 9 -12 -4 -2 -19 14 -32 52 -18 52 5 0 9 -8 9 -18z m123 -216 c18 -14 16 -18 -15 -29 -14 -5 -18 -1 -18 18 0 28 7 30 33 11z m-363 -301 c-10 -12 -16 -13 -26 -4 -8 6 -14 8 -14 3 0 -11 -20 18 -20 30 0 4 7 6 15 2 9 -3 20 3 28 14 12 20 12 19 20 -5 6 -17 5 -31 -3 -40z m520 -149 c0 -39 -12 -52 -29 -32 -9 10 -9 20 0 40 17 36 29 33 29 -8z m-83 -63 c-10 -10 -34 -17 -62 -18 -45 -1 -46 0 -23 17 13 10 40 18 63 18 37 0 38 -1 22 -17z m-132 -43 c-6 -10 -45 -20 -45 -11 0 4 5 12 11 18 12 12 42 6 34 -7z m-437 -50 c-9 -14 -14 -16 -20 -7 -13 20 -9 27 12 27 18 0 19 -3 8 -20z m70 -80 c13 -21 47 -27 57 -10 3 6 17 10 31 10 36 0 21 -16 -23 -26 -74 -16 -142 5 -106 32 24 18 26 17 41 -6z"/>
 <path d="M4360 3090 c0 -24 15 -27 24 -4 9 22 8 24 -9 24 -8 0 -15 -9 -15 -20z"/>
 <path d="M4575 3097 c-4 -10 -5 -21 -1 -24 10 -10 18 4 13 24 -4 17 -4 17 -12 0z"/>
 <path d="M4518 3019 c-3 -19 -1 -40 4 -46 6 -7 7 -20 4 -29 -8 -20 14 -74 30 -74 7 0 15 -7 18 -16 3 -8 2 -12 -4 -9 -16 10 -11 -13 7 -34 22 -27 33 -18 33 28 0 26 -7 44 -21 57 -11 10 -18 25 -16 34 2 9 -8 41 -23 70 l-27 54 -5 -35z"/>
 <path d="M4387 2954 c-9 -10 2 -24 18 -24 9 0 12 6 9 15 -6 16 -17 19 -27 9z"/>
 <path d="M4625 2773 c-4 -13 -11 -23 -16 -23 -15 0 -10 -28 6 -34 19 -7 28 13 22 51 -4 27 -5 27 -12 6z"/>
 <path d="M4657 2717 c3 -14 -3 -30 -16 -41 -27 -25 -26 -47 2 -74 28 -26 37 -20 37 24 0 18 4 34 9 36 9 3 15 37 12 68 -1 10 -7 6 -16 -10 -10 -18 -14 -20 -15 -8 0 9 -4 19 -9 22 -4 3 -6 -5 -4 -17z"/>
 <path d="M4576 2461 c-3 -5 1 -14 8 -20 16 -13 32 2 21 19 -8 12 -22 13 -29 1z"/>
 <path d="M4630 2298 c0 -7 5 -20 10 -28 8 -13 11 -13 26 2 9 9 13 21 10 27 -10 15 -46 14 -46 -1z"/>
 <path d="M4688 2203 c-6 -26 12 -75 26 -70 16 5 19 42 6 66 -13 26 -27 27 -32 4z"/>
 <path d="M4537 2196 c-3 -8 -2 -18 3 -21 13 -8 24 15 12 27 -6 6 -11 4 -15 -6z"/>
 <path d="M4630 2162 c0 -5 9 -17 20 -27 17 -16 20 -16 26 -2 3 9 3 21 -1 27 -7 12 -45 14 -45 2z"/>
 <path d="M4675 2079 c-8 -12 24 -59 41 -59 17 0 25 15 19 32 -7 17 -53 39 -60 27z"/>
 <path d="M4786 2045 c-3 -8 2 -24 12 -34 9 -10 23 -26 30 -37 11 -17 11 -17 2 3 -5 12 -10 30 -10 41 0 27 -26 48 -34 27z"/>
 </g>
<g id="layer115" fill="#d5d2d3" stroke="none">
 <path d="M0 2430 l0 -2430 4015 0 4015 0 0 2430 0 2430 -4015 0 -4015 0 0 -2430z m4130 905 c15 -18 47 -20 53 -2 2 6 8 0 12 -16 4 -16 3 -33 -4 -41 -6 -7 -9 -21 -5 -30 5 -12 0 -16 -17 -16 -50 1 -73 -7 -96 -34 -12 -15 -23 -34 -23 -42 0 -8 -5 -14 -11 -14 -16 0 -3 63 22 105 11 19 20 47 19 62 -1 15 -2 31 -1 36 2 13 38 7 51 -8z m390 -20 c0 -35 -3 -38 -50 -39 -20 -1 -25 -7 -28 -31 -1 -16 2 -37 8 -45 9 -13 11 -13 21 0 7 11 8 4 4 -27 -6 -37 -4 -43 12 -43 10 0 35 18 56 40 34 37 37 43 31 82 -4 24 -11 51 -15 60 -12 22 7 34 26 18 8 -7 15 -22 15 -33 0 -11 7 -28 15 -37 8 -9 18 -41 23 -71 5 -33 13 -53 20 -52 16 4 15 0 -8 -82 -11 -38 -20 -75 -20 -82 0 -7 16 -27 35 -44 19 -18 35 -38 35 -46 0 -7 7 -16 16 -20 13 -5 15 -16 10 -59 -4 -32 -2 -55 4 -59 13 -8 12 -63 -2 -172 -12 -87 -1 -136 42 -190 10 -13 22 -38 25 -56 4 -18 12 -37 17 -44 23 -28 69 -193 74 -263 5 -68 3 -78 -18 -104 -28 -33 -77 -43 -123 -24 -50 21 -107 83 -114 124 -5 31 -10 37 -35 40 -15 1 -37 10 -47 20 -10 9 -25 14 -33 11 -8 -3 -20 0 -26 8 -6 7 -25 16 -43 19 -25 5 -36 14 -47 39 -7 17 -15 35 -17 39 -3 4 18 6 46 5 28 -1 51 -5 51 -9 0 -18 31 -6 39 15 9 22 1 41 -49 124 -16 27 -18 38 -8 60 20 52 5 103 -31 103 -27 0 -92 50 -89 68 1 9 -4 27 -10 40 -13 23 -15 22 32 36 10 3 11 17 4 68 -6 34 -12 65 -15 68 -2 3 -14 -7 -25 -23 -11 -15 -26 -27 -33 -27 -20 0 -47 -49 -42 -76 2 -14 0 -27 -5 -30 -4 -3 -5 -10 -2 -16 4 -7 2 -8 -4 -4 -7 4 -12 21 -12 38 0 23 -14 44 -65 97 l-65 68 23 21 22 21 35 -35 34 -35 18 23 c24 31 22 47 -6 58 -35 13 -49 45 -50 115 -2 49 2 63 19 78 l20 17 -22 19 c-24 20 -30 55 -13 66 6 4 8 10 5 15 -8 13 6 40 21 40 16 0 19 -16 4 -25 -15 -9 -12 -27 11 -54 14 -17 23 -21 31 -13 8 8 16 7 29 -1 14 -9 22 -7 38 7 12 11 21 27 21 36 0 24 11 32 28 18 12 -10 18 -8 33 11 16 20 17 27 7 40 -27 33 -37 59 -31 81 6 22 7 22 19 5 12 -17 15 -16 31 14 15 26 24 31 56 31 36 0 37 -1 37 -35z m178 -12 c2 -24 -1 -50 -6 -59 -8 -14 -12 -10 -22 22 -7 21 -19 46 -26 55 -18 20 -7 31 26 27 22 -3 25 -8 28 -45z m-400 -694 c-10 -17 -10 -23 0 -26 6 -3 12 -9 12 -14 0 -16 -21 1 -29 25 -8 19 -1 28 27 35 1 1 -3 -9 -10 -20z m116 -224 c19 -14 18 -15 -5 -24 -25 -9 -46 9 -34 29 8 13 16 12 39 -5z m-364 -300 c-15 -17 -48 -8 -56 17 -6 21 6 41 13 20 6 -17 33 4 34 27 0 9 5 1 10 -17 7 -23 7 -38 -1 -47z m520 -149 c0 -39 -12 -52 -29 -32 -9 10 -9 20 0 40 17 36 29 33 29 -8z m-85 -66 c-12 -13 -25 -17 -45 -14 -15 4 -38 1 -51 -6 -20 -9 -18 -6 6 14 21 18 42 26 69 26 38 0 39 0 21 -20z m-130 -40 c-6 -10 -45 -20 -45 -11 0 4 5 12 11 18 12 12 42 6 34 -7z m-436 -51 c-9 -17 -13 -19 -20 -8 -14 22 -11 29 11 29 18 0 19 -3 9 -21z m69 -79 c13 -21 41 -26 58 -11 11 11 104 21 104 12 0 -10 -118 -34 -159 -32 -47 2 -67 19 -44 37 24 18 26 17 41 -6z"/>
 <path d="M4360 3090 c0 -24 15 -27 24 -4 9 22 8 24 -9 24 -8 0 -15 -9 -15 -20z"/>
 <path d="M4575 3097 c-4 -10 -5 -21 -1 -24 10 -10 18 4 13 24 -4 17 -4 17 -12 0z"/>
 <path d="M4517 3019 c-3 -22 0 -38 8 -44 9 -8 10 -16 3 -28 -11 -20 10 -77 28 -77 7 0 15 -7 18 -16 3 -8 2 -12 -4 -9 -16 10 -11 -13 7 -34 22 -27 33 -18 33 28 0 26 -7 44 -21 57 -11 10 -18 25 -16 34 2 9 -8 41 -23 70 l-27 54 -6 -35z"/>
 <path d="M4387 2954 c-9 -10 2 -24 18 -24 9 0 12 6 9 15 -6 16 -17 19 -27 9z"/>
 <path d="M4625 2773 c-4 -13 -11 -23 -16 -23 -15 0 -10 -28 6 -34 19 -7 28 13 22 51 -4 27 -5 27 -12 6z"/>
 <path d="M4685 2719 c-8 -23 -8 -23 -16 -4 -7 20 -8 20 -8 -1 -1 -11 -10 -29 -21 -39 -26 -24 -25 -47 3 -73 28 -26 37 -20 37 25 0 18 4 33 9 33 11 0 20 56 10 71 -4 7 -10 3 -14 -12z"/>
 <path d="M4576 2461 c-3 -5 1 -14 8 -20 16 -13 32 2 21 19 -8 12 -22 13 -29 1z"/>
 <path d="M4630 2298 c0 -7 5 -20 10 -28 8 -13 11 -13 26 2 9 9 13 21 10 27 -10 15 -46 14 -46 -1z"/>
 <path d="M4688 2203 c-6 -26 12 -75 26 -70 16 5 19 42 6 66 -13 26 -27 27 -32 4z"/>
 <path d="M4537 2196 c-3 -8 -2 -18 3 -21 13 -8 24 15 12 27 -6 6 -11 4 -15 -6z"/>
 <path d="M4630 2162 c0 -5 9 -17 19 -26 22 -20 40 -4 21 19 -13 16 -40 20 -40 7z"/>
 <path d="M4675 2079 c-8 -12 24 -59 41 -59 17 0 25 15 19 32 -7 17 -53 39 -60 27z"/>
 <path d="M4786 2045 c-3 -8 2 -24 12 -34 9 -10 23 -26 30 -37 11 -17 11 -17 2 3 -5 12 -10 30 -10 41 0 27 -26 48 -34 27z"/>
 </g>
<g id="layer116" fill="#eae1e2" stroke="none">
 <path d="M0 2430 l0 -2430 4015 0 4015 0 0 2430 0 2430 -4015 0 -4015 0 0 -2430z m4130 905 c15 -18 47 -20 53 -2 2 6 8 0 12 -16 4 -16 3 -33 -4 -41 -6 -7 -9 -21 -5 -30 5 -12 0 -16 -17 -16 -50 1 -73 -7 -96 -34 -12 -15 -23 -34 -23 -42 0 -8 -5 -14 -11 -14 -16 0 -3 63 22 105 11 19 20 47 19 62 -1 15 -2 31 -1 36 2 13 38 7 51 -8z m390 -20 c0 -35 -3 -38 -50 -39 -20 -1 -25 -7 -28 -31 -1 -16 2 -37 8 -45 9 -13 11 -13 21 0 7 11 8 4 4 -27 -6 -37 -4 -43 12 -43 10 0 35 18 56 40 37 40 38 42 29 88 -5 26 -13 55 -17 65 -5 11 -3 17 7 17 20 0 38 -21 38 -44 0 -11 7 -27 15 -36 8 -9 18 -41 23 -71 5 -33 13 -53 20 -52 16 4 15 0 -8 -82 -11 -38 -20 -75 -20 -82 0 -7 16 -27 35 -44 19 -18 35 -38 35 -46 0 -7 7 -16 16 -20 13 -5 15 -16 10 -59 -4 -32 -2 -55 4 -59 13 -8 12 -63 -2 -172 -12 -87 -1 -136 42 -190 10 -13 22 -38 25 -56 4 -18 12 -37 17 -44 23 -28 69 -193 74 -263 5 -68 3 -78 -18 -104 -28 -33 -77 -43 -123 -24 -50 21 -107 83 -114 124 -5 31 -10 37 -35 40 -15 1 -37 10 -47 20 -10 9 -25 14 -33 11 -8 -3 -20 0 -26 8 -6 7 -25 16 -43 19 -25 5 -36 14 -47 39 -7 17 -15 35 -17 39 -3 4 18 6 46 5 28 -1 51 -5 51 -9 0 -18 31 -6 39 15 9 22 1 41 -49 124 -15 26 -17 39 -10 59 21 55 7 104 -30 104 -26 0 -91 50 -88 68 1 9 -4 27 -10 40 -13 23 -15 22 32 36 10 3 11 17 4 68 -6 34 -12 65 -15 68 -2 3 -14 -7 -25 -23 -11 -15 -26 -27 -33 -27 -20 0 -47 -49 -42 -76 2 -14 0 -27 -5 -30 -4 -3 -5 -10 -2 -16 4 -7 2 -8 -4 -4 -7 4 -12 21 -12 38 0 23 -14 44 -65 97 l-65 68 23 21 23 22 34 -35 34 -36 18 23 c24 31 22 47 -6 58 -35 13 -49 45 -50 115 -2 49 2 63 19 78 l20 17 -22 19 c-24 20 -30 55 -13 66 6 4 8 10 5 15 -8 13 6 40 21 40 16 0 19 -16 4 -25 -15 -9 -12 -27 11 -54 14 -17 23 -21 31 -13 8 8 16 7 29 -1 14 -9 22 -7 38 7 12 11 21 27 21 36 0 24 11 32 28 18 12 -10 18 -8 33 11 16 20 17 27 7 40 -27 33 -37 59 -31 81 6 22 7 22 19 5 12 -17 15 -16 31 14 15 26 24 31 56 31 36 0 37 -1 37 -35z m178 -12 c2 -24 -1 -50 -6 -59 -8 -14 -12 -10 -22 22 -7 21 -19 46 -26 55 -18 20 -7 31 26 27 22 -3 25 -8 28 -45z m-400 -694 c-10 -17 -10 -23 0 -26 6 -3 12 -9 12 -14 0 -16 -21 1 -29 25 -5 13 -4 24 3 28 20 14 26 8 14 -13z m116 -224 c19 -14 18 -15 -5 -24 -25 -9 -46 9 -34 29 8 13 16 12 39 -5z m-364 -300 c-15 -17 -48 -8 -56 17 -6 21 6 41 13 20 6 -17 33 4 34 27 0 9 5 1 10 -17 7 -23 7 -38 -1 -47z m520 -149 c0 -39 -12 -52 -29 -32 -9 10 -9 20 0 40 17 36 29 33 29 -8z m-72 -58 c-4 -18 -28 -27 -59 -21 -15 3 -37 0 -50 -7 -20 -9 -18 -6 6 14 33 28 107 38 103 14z m-143 -48 c-6 -10 -45 -20 -45 -11 0 4 5 12 11 18 12 12 42 6 34 -7z m-436 -51 c-9 -17 -13 -19 -20 -8 -14 22 -11 29 11 29 18 0 19 -3 9 -21z m69 -79 c13 -21 41 -26 58 -11 11 11 104 21 104 12 0 -10 -118 -34 -159 -32 -47 2 -67 19 -44 37 24 18 26 17 41 -6z"/>
 <path d="M4360 3090 c0 -24 15 -27 24 -4 9 22 8 24 -9 24 -8 0 -15 -9 -15 -20z"/>
 <path d="M4517 3019 c-3 -22 0 -38 8 -44 9 -8 10 -16 3 -28 -11 -21 10 -77 29 -77 15 0 32 -30 30 -50 -1 -8 3 -17 8 -20 6 -3 11 12 13 34 3 29 -2 44 -19 62 -12 12 -19 29 -16 36 2 8 -8 38 -23 68 l-27 54 -6 -35z"/>
 <path d="M4630 2785 c-2 -5 -4 -17 -4 -25 -1 -8 -7 -14 -14 -12 -18 3 -14 -15 4 -22 23 -9 26 -3 21 36 -2 18 -5 29 -7 23z"/>
 <path d="M4685 2719 c-8 -23 -8 -23 -16 -4 -7 20 -8 20 -8 -1 -1 -11 -10 -29 -21 -39 -26 -24 -25 -47 3 -73 28 -26 37 -20 37 25 0 18 4 33 9 33 11 0 20 56 10 71 -4 7 -10 3 -14 -12z"/>
 <path d="M4576 2461 c-3 -5 1 -14 8 -20 16 -13 32 2 21 19 -8 12 -22 13 -29 1z"/>
 <path d="M4630 2298 c0 -7 5 -20 10 -28 8 -13 11 -13 26 2 9 9 13 21 10 27 -10 15 -46 14 -46 -1z"/>
 <path d="M4688 2203 c-5 -24 14 -74 27 -70 15 5 18 43 5 66 -13 26 -27 27 -32 4z"/>
 <path d="M4630 2162 c0 -5 9 -17 19 -26 22 -20 40 -4 21 19 -13 16 -40 20 -40 7z"/>
 <path d="M4680 2070 c0 -32 41 -63 54 -41 10 15 -3 35 -29 48 -22 10 -25 9 -25 -7z"/>
 <path d="M4786 2045 c-3 -8 2 -24 12 -34 9 -10 23 -26 30 -37 11 -17 11 -17 2 3 -5 12 -10 30 -10 41 0 27 -26 48 -34 27z"/>
 </g>
<g id="layer117" fill="#ffffff" stroke="none">
 <path d="M0 2430 l0 -2430 4015 0 4015 0 0 2430 0 2430 -4015 0 -4015 0 0 -2430z m4132 903 c16 -14 23 -15 38 -5 16 10 21 9 30 -9 9 -16 8 -24 -4 -38 -9 -10 -14 -25 -10 -35 5 -12 0 -16 -17 -16 -50 1 -73 -7 -96 -34 -12 -15 -23 -36 -23 -47 0 -11 -4 -18 -9 -15 -5 4 -12 0 -14 -6 -4 -9 -6 -8 -6 2 -1 19 19 75 43 119 12 22 16 46 13 68 -5 29 -3 33 15 33 12 0 30 -8 40 -17z m388 -18 c0 -35 -3 -38 -50 -39 -20 -1 -25 -7 -28 -31 -1 -16 2 -37 8 -45 9 -13 11 -13 19 0 6 8 13 11 18 7 4 -4 2 -17 -5 -27 -37 -60 5 -66 60 -9 33 34 39 45 33 67 -4 15 -9 36 -10 47 -1 11 -5 28 -10 38 -5 13 -2 17 13 17 20 0 32 -18 32 -48 0 -8 7 -23 15 -32 8 -9 18 -41 23 -71 5 -33 13 -53 20 -52 16 4 15 0 -8 -82 -11 -38 -20 -75 -20 -80 0 -6 21 -33 46 -59 57 -60 67 -85 51 -126 -9 -24 -9 -33 1 -39 15 -9 15 -61 0 -178 -12 -88 -6 -114 38 -181 13 -18 26 -47 30 -65 3 -17 12 -41 20 -52 26 -41 65 -178 71 -253 5 -75 5 -78 -23 -108 -23 -24 -38 -31 -71 -32 -23 -1 -45 3 -48 8 -3 6 -14 10 -24 10 -10 0 -21 9 -24 20 -3 11 -11 20 -19 20 -18 0 -40 37 -47 79 -5 28 -11 34 -35 37 -15 1 -37 10 -47 20 -10 9 -25 14 -33 11 -8 -3 -20 0 -26 8 -6 7 -25 16 -43 19 -25 5 -36 14 -47 39 -7 17 -16 36 -18 41 -3 5 14 7 37 3 23 -3 44 -1 47 5 4 7 10 4 16 -6 13 -22 27 -20 37 7 9 22 1 42 -48 123 -16 27 -17 37 -8 73 14 52 6 67 -54 99 -56 29 -71 45 -73 73 -1 23 -30 48 -42 36 -4 -4 -2 -13 4 -19 18 -18 14 -30 -5 -19 -10 5 -18 18 -18 28 0 10 -7 18 -15 18 -8 0 -14 -6 -12 -13 1 -8 -2 -11 -8 -7 -5 3 -10 18 -10 33 0 20 -18 48 -65 99 l-64 70 23 22 22 21 34 -35 34 -36 18 23 c24 31 22 47 -6 58 -34 13 -48 43 -51 113 -2 50 1 63 17 76 19 16 19 16 -2 39 -19 20 -21 30 -15 68 7 46 27 66 47 46 8 -8 7 -13 -5 -18 -22 -8 -21 -23 3 -53 17 -19 23 -21 35 -11 12 10 18 10 30 0 13 -10 19 -10 35 5 11 10 20 29 20 42 0 26 10 29 29 11 10 -11 16 -8 32 11 16 20 17 27 7 40 -26 33 -37 59 -31 80 6 24 23 28 23 5 0 -21 19 -7 30 22 8 20 16 24 50 24 39 0 40 -1 40 -35z m178 -4 c2 -19 1 -45 -3 -59 -6 -24 -8 -22 -34 29 -15 30 -26 58 -23 62 2 5 16 7 30 5 23 -2 28 -9 30 -37z m-287 -922 c16 -8 18 -13 8 -25 -15 -19 -35 -18 -43 2 -14 35 -2 43 35 23z m-353 -251 c-2 -50 -12 -68 -36 -61 -24 6 -45 40 -31 49 6 4 15 1 19 -7 6 -9 14 -2 26 24 10 20 19 37 20 37 2 0 2 -19 2 -42z m512 -208 c0 -41 -5 -46 -29 -31 -12 8 -12 14 -1 40 17 43 30 39 30 -9z m-376 -31 c-10 -16 -24 -9 -24 12 0 18 2 19 15 9 8 -7 12 -16 9 -21z m303 -24 c0 -9 -13 -17 -31 -19 -101 -16 -121 -11 -68 17 38 20 99 22 99 2z m-137 -45 c0 -9 -42 -22 -48 -15 -3 3 1 11 7 19 12 14 41 12 41 -4z m-434 -42 c-9 -13 -21 -33 -26 -45 -5 -13 -14 -23 -20 -23 -14 0 -12 11 5 33 7 11 11 25 9 32 -5 12 9 20 40 24 5 0 1 -9 -8 -21z m68 -87 c14 -15 24 -18 44 -11 39 12 112 19 112 11 0 -4 -28 -13 -62 -19 -34 -6 -65 -16 -68 -23 -5 -7 -13 -8 -26 -1 -11 5 -32 15 -48 22 l-30 11 25 14 c33 18 33 18 53 -4z"/>
 <path d="M4522 3005 c-11 -13 -8 -19 15 -40 40 -35 46 -31 22 15 -12 22 -22 40 -23 40 0 -1 -7 -7 -14 -15z"/>
 <path d="M4527 2938 c-5 -17 13 -58 26 -58 15 0 36 -33 37 -57 0 -13 5 -23 10 -23 6 0 10 16 10 36 0 25 -9 47 -32 75 -33 41 -44 47 -51 27z"/>
 <path d="M4336 2748 c-10 -16 -25 -28 -33 -28 -18 0 -52 -39 -53 -61 0 -26 22 -36 73 -31 l47 4 -1 42 c-1 22 -4 55 -8 71 l-7 30 -18 -27z"/>
 <path d="M4627 2752 c-5 -7 -13 -10 -18 -7 -5 4 -9 2 -9 -3 0 -11 30 -25 37 -18 3 2 3 13 1 23 -3 13 -6 15 -11 5z"/>
 <path d="M4689 2730 c-1 -8 -1 -23 0 -32 3 -25 -8 -22 -19 5 -6 14 -9 16 -9 6 -1 -9 -10 -24 -21 -34 -26 -24 -25 -47 3 -73 28 -26 37 -20 37 25 0 18 4 33 9 33 12 0 19 56 9 72 -6 10 -8 10 -9 -2z"/>
 <path d="M4576 2461 c-3 -5 1 -14 8 -20 16 -13 32 2 21 19 -8 12 -22 13 -29 1z"/>
 <path d="M4630 2298 c0 -7 5 -20 10 -28 8 -13 11 -13 26 2 9 9 13 21 10 27 -10 15 -46 14 -46 -1z"/>
 <path d="M4688 2198 c-5 -15 13 -68 24 -68 13 0 19 39 8 60 -12 23 -26 26 -32 8z"/>
 <path d="M4637 2163 c-4 -3 2 -13 14 -21 24 -17 37 -9 19 13 -14 16 -23 19 -33 8z"/>
 <path d="M4680 2069 c0 -4 5 -11 10 -14 6 -4 8 -10 5 -15 -7 -11 26 -23 37 -12 14 14 -2 40 -28 45 -13 2 -24 1 -24 -4z"/>
 <path d="M4786 2041 c-4 -6 1 -19 11 -29 10 -10 23 -27 30 -38 8 -13 8 -7 -1 19 -15 45 -31 64 -40 48z"/>
 </g>

</svg>