<!DOCTYPE svg PUBLIC "-//W3C//DTD SVG 20010904//EN" "http://www.w3.org/TR/2001/REC-SVG-20010904/DTD/svg10.dtd">
<svg version="1.0" xmlns="http://www.w3.org/2000/svg" width="1350px" height="616px" viewBox="0 0 13500 6160" preserveAspectRatio="xMidYMid meet">
<g id="layer101" fill="#7f2822" stroke="none">
 <path d="M0 3080 l0 -3080 6750 0 6750 0 0 3080 0 3080 -6750 0 -6750 0 0 -3080z"/>
 </g>
<g id="layer102" fill="#9f2223" stroke="none">
 <path d="M0 3080 l0 -3080 6750 0 6750 0 0 3080 0 3080 -6750 0 -6750 0 0 -3080z m6590 -1210 c0 -10 -41 -30 -61 -30 -20 0 -8 19 19 28 36 14 42 14 42 2z"/>
 </g>
<g id="layer103" fill="#962d2a" stroke="none">
 <path d="M0 3080 l0 -3080 6750 0 6750 0 0 3080 0 3080 -6750 0 -6750 0 0 -3080z m7080 -439 c0 -5 -16 -18 -35 -30 -30 -18 -37 -18 -41 -6 -4 8 -14 15 -23 16 -19 1 55 26 82 28 9 1 17 -3 17 -8z m-134 -16 c8 -21 -6 -41 -17 -24 -12 19 -11 39 1 39 6 0 13 -7 16 -15z m54 -60 c3 -5 -10 -11 -27 -13 -23 -2 -33 1 -33 10 0 16 52 18 60 3z m-410 -695 c0 -10 -41 -30 -61 -30 -20 0 -8 19 19 28 36 14 42 14 42 2z"/>
 </g>
<g id="layer104" fill="#ba2b31" stroke="none">
 <path d="M0 3080 l0 -3080 6750 0 6750 0 0 3080 0 3080 -6750 0 -6750 0 0 -3080z m7078 -441 c-2 -6 -23 -22 -46 -34 -24 -13 -38 -26 -32 -30 18 -11 0 -25 -32 -25 -25 0 -29 3 -25 20 3 11 1 20 -3 20 -12 0 -23 37 -15 50 9 14 158 13 153 -1z m-479 -760 c-12 -22 -56 -42 -76 -35 -7 3 -13 16 -13 29 0 21 4 24 50 25 47 1 49 0 39 -19z"/>
 </g>
<g id="layer105" fill="#9a4639" stroke="none">
 <path d="M0 3080 l0 -3080 6750 0 6750 0 0 3080 0 3080 -6750 0 -6750 0 0 -3080z m7891 640 c37 -77 51 -127 44 -149 -3 -11 1 -36 10 -57 9 -23 12 -41 6 -48 -7 -9 -8 -81 -1 -81 1 0 3 -9 5 -20 1 -11 6 -28 10 -37 13 -31 -14 -20 -36 15 -20 32 -21 60 -6 222 2 25 -2 46 -12 58 -8 9 -19 27 -25 39 -7 14 -25 25 -46 29 -19 4 -36 12 -38 18 -7 22 -32 11 -32 -13 0 -14 -4 -27 -9 -30 -5 -4 -5 -18 2 -36 8 -22 8 -33 0 -41 -8 -8 -13 6 -18 50 -9 77 13 136 48 127 27 -7 57 19 58 53 2 21 3 19 8 -9 3 -19 18 -60 32 -90z m-1846 -312 c1 -18 3 -58 5 -88 4 -45 2 -55 -11 -58 -26 -5 -41 87 -20 126 5 9 12 25 15 35 8 25 11 21 11 -15z m1679 7 c-11 -17 -17 -49 -18 -93 -1 -52 -4 -67 -16 -68 -8 0 -27 -4 -42 -8 -35 -10 -38 -45 -5 -54 22 -6 22 -6 -3 -12 -19 -5 -25 -13 -25 -32 0 -14 -4 -30 -9 -35 -4 -4 -6 35 -4 89 l5 98 -30 23 c-22 17 -29 28 -24 42 6 15 15 17 58 12 48 -6 52 -4 85 28 41 41 51 45 28 10z m-1620 -182 c-3 -16 -17 -52 -31 -81 -13 -29 -21 -57 -18 -62 3 -5 0 -12 -6 -15 -5 -4 -8 -14 -4 -24 3 -9 3 -12 -2 -6 -4 6 -7 54 -5 108 3 96 4 97 27 91 12 -3 26 -1 29 5 12 19 17 12 10 -16z m323 -13 c28 -17 32 -24 30 -60 l-1 -40 -24 30 c-26 33 -51 37 -114 20 -23 -7 -45 -23 -60 -43 -12 -18 -31 -42 -42 -54 -12 -12 -42 -44 -68 -71 -27 -28 -48 -57 -48 -64 0 -18 -56 -73 -62 -61 -3 4 -3 27 0 51 3 33 10 45 26 52 22 8 123 112 141 145 6 11 26 29 45 42 19 12 48 33 63 47 33 31 70 33 114 6z m1639 -97 c21 -8 107 -93 94 -93 -5 0 -28 17 -52 38 -24 20 -54 44 -67 52 -16 11 -20 20 -15 34 7 18 8 18 15 -3 5 -12 16 -24 25 -28z m-1340 -128 c-15 -44 -40 -67 -64 -58 -12 5 -11 8 6 14 12 5 22 16 22 26 0 15 40 67 46 60 2 -1 -3 -20 -10 -42z m852 -12 c0 -10 3 -31 7 -48 9 -35 2 -31 -19 10 -11 21 -12 32 -4 42 14 17 17 16 16 -4z m-1114 -50 c-4 -16 -13 -39 -20 -53 -19 -36 -18 0 0 45 18 42 29 46 20 8z m924 -2 c-9 -15 -9 -25 0 -45 12 -26 12 -26 -13 -10 -29 19 -31 31 -8 56 21 24 36 23 21 -1z m-728 -18 c-1 -18 -18 -35 -24 -24 -4 6 -4 16 -1 21 7 12 25 13 25 3z m937 -49 c-9 -9 -28 6 -21 18 4 6 10 6 17 -1 6 -6 8 -13 4 -17z m-682 -34 c6 -10 23 -8 63 7 6 3 12 -1 12 -9 0 -8 10 -25 22 -37 19 -22 22 -22 33 -7 13 17 61 23 50 6 -3 -5 2 -18 12 -29 20 -24 24 -58 9 -70 -17 -12 -96 -1 -96 14 0 12 -22 26 -45 30 -15 2 -35 -16 -29 -27 3 -5 0 -15 -6 -23 -25 -30 -1 -37 101 -30 l99 7 -4 -41 c-4 -51 -30 -91 -58 -91 -12 0 -29 -7 -38 -15 -16 -14 -24 -13 -87 7 -62 20 -69 25 -63 43 4 11 4 29 0 39 -4 11 0 33 9 50 9 18 15 58 16 94 0 52 -4 66 -19 78 -17 12 -17 14 -4 14 9 0 20 -5 23 -10z m-949 -23 c-10 -7 -33 -23 -50 -37 l-31 -24 23 25 c12 14 22 31 22 37 0 7 12 12 28 11 25 0 25 -1 8 -12z m644 -24 c-25 -32 -27 -94 -2 -116 9 -8 30 -19 45 -22 29 -8 32 -28 5 -33 -22 -4 -88 86 -88 120 0 15 5 28 11 28 5 0 7 5 4 11 -8 13 24 51 37 43 4 -3 -1 -17 -12 -31z m1455 17 c-3 -5 -15 -10 -26 -10 -10 0 -19 5 -19 10 0 6 12 10 26 10 14 0 23 -4 19 -10z m-2200 -109 c3 -9 1 -17 -5 -19 -26 -9 -70 -56 -70 -75 -1 -29 -38 -71 -84 -92 -29 -14 -36 -23 -36 -46 0 -16 5 -29 10 -29 15 0 12 -37 -4 -43 -8 -3 -22 0 -33 8 -16 12 -22 9 -60 -33 -55 -62 -54 -35 2 52 25 38 45 75 45 82 0 7 10 19 23 25 21 12 41 28 92 76 12 12 37 42 54 66 33 45 56 55 66 28z m2205 -12 l25 -20 -32 16 c-18 8 -33 18 -33 20 0 10 16 4 40 -16z m-683 -121 c15 -17 14 -18 -9 -18 -16 0 -29 9 -38 25 -12 22 -11 30 6 63 l19 37 3 -45 c2 -25 11 -53 19 -62z m-1387 33 c0 -3 3 -17 7 -31 6 -22 5 -24 -10 -11 -15 12 -22 10 -56 -12 l-39 -26 -4 24 c-5 25 17 50 55 64 22 8 47 4 47 -8z m138 -39 c2 -23 -1 -32 -12 -32 -21 0 -28 15 -20 45 9 34 28 26 32 -13z m1297 -41 c0 -24 32 -38 55 -23 20 12 21 12 5 -12 -9 -14 -32 -34 -51 -45 -31 -18 -34 -25 -34 -66 0 -25 -4 -45 -9 -45 -12 0 -3 138 11 164 8 15 8 21 -1 24 -18 6 -13 24 7 20 9 -2 17 -9 17 -17z m855 -166 c0 -28 -17 -34 -27 -9 -3 9 0 20 8 25 19 12 19 12 19 -16z m-1926 -36 c-8 -13 -50 -11 -62 4 -8 10 -2 12 29 9 21 -2 36 -8 33 -13z m-846 -24 c-10 -23 -28 -34 -28 -18 0 7 31 43 36 43 2 0 -2 -11 -8 -25z m-42 -102 c-8 -15 -15 -25 -16 -21 0 12 23 58 27 54 3 -2 -2 -17 -11 -33z m532 -12 c-2 -9 -15 -17 -30 -19 -29 -3 -32 -11 -43 -81 -5 -29 -10 -39 -16 -30 -4 7 -4 18 1 24 5 6 7 20 6 30 -2 11 3 29 10 40 8 11 14 34 14 51 l0 32 31 -15 c18 -9 29 -21 27 -32z m447 29 c3 -5 -12 -21 -35 -35 -26 -17 -40 -33 -40 -47 0 -12 -2 -19 -5 -16 -3 3 -3 23 1 45 5 31 12 42 33 50 35 14 39 15 46 3z m-818 -27 c-8 -10 -17 -31 -19 -48 -2 -20 -9 -31 -23 -34 -11 -2 -33 -14 -48 -27 -31 -26 -90 -33 -103 -12 -4 7 -9 23 -10 36 l-3 24 26 -26 c14 -14 30 -26 35 -26 25 0 96 54 118 90 13 22 28 40 34 40 5 0 2 -8 -7 -17z m928 -31 c-7 -7 -64 22 -59 30 3 5 18 1 34 -9 16 -9 28 -19 25 -21z m704 22 c9 -8 31 -79 30 -99 0 -18 -1 -17 -13 4 -8 14 -12 30 -10 36 6 15 -35 51 -65 58 -13 3 -38 -1 -55 -9 l-31 -15 24 21 c20 17 32 20 70 14 25 -4 48 -8 50 -10z m170 -8 c14 -17 23 -114 11 -121 -5 -3 -11 -1 -14 4 -4 5 -2 13 4 16 8 5 8 11 0 20 -6 8 -10 22 -9 32 2 10 -2 28 -9 41 -14 24 -1 30 17 8z m-755 -55 c-2 -2 -11 2 -19 9 -13 11 -13 15 -3 21 8 5 15 2 19 -9 4 -9 5 -19 3 -21z m401 -19 l-28 -27 24 31 c13 17 26 30 28 27 3 -2 -8 -16 -24 -31z m-750 -22 c-4 -6 -14 -8 -24 -5 -17 5 -55 -29 -76 -69 -5 -11 -16 -21 -24 -24 -13 -4 14 41 53 86 20 22 84 33 71 12z m321 -32 c-9 -12 -16 -33 -16 -45 0 -18 -7 -25 -30 -29 -33 -7 -41 -37 -14 -52 13 -7 13 -11 -3 -31 -10 -12 -31 -23 -48 -24 -27 -2 -30 1 -33 31 -2 24 -10 35 -27 42 -16 6 -23 15 -19 25 5 13 8 13 27 0 27 -19 47 -19 47 0 0 8 17 26 38 39 20 14 48 34 62 45 32 26 35 26 16 -1z m738 -59 c-10 -11 -28 -26 -39 -31 -14 -8 -12 -2 9 21 33 34 61 44 30 10z m-1284 -64 c-27 -29 -37 -27 -20 4 6 12 18 21 27 21 13 0 12 -5 -7 -25z m-234 -50 c-15 -57 -31 -72 -21 -20 6 33 20 65 30 65 1 0 -3 -20 -9 -45z m1014 -107 c-21 -23 -36 -19 -27 7 4 8 16 15 27 15 l21 0 -21 -22z m-1024 -27 c-3 -5 2 -19 13 -32 17 -21 21 -22 50 -9 24 10 35 10 44 1 8 -8 7 -11 -6 -11 -10 0 -29 -11 -42 -24 -13 -13 -34 -25 -48 -28 -21 -4 -25 -2 -21 15 2 11 -1 26 -7 33 -7 8 -7 14 1 19 6 4 8 15 5 26 -4 11 -2 19 5 19 6 0 9 -4 6 -9z"/>
 </g>
<g id="layer106" fill="#ca2432" stroke="none">
 <path d="M0 3080 l0 -3080 6750 0 6750 0 0 3080 0 3080 -6750 0 -6750 0 0 -3080z m7891 640 c37 -77 51 -127 44 -149 -3 -11 1 -36 10 -57 9 -23 12 -41 6 -48 -7 -9 -8 -81 -1 -81 1 0 3 -9 5 -20 1 -11 6 -28 10 -37 13 -31 -14 -20 -36 15 -20 32 -21 60 -6 222 2 25 -2 46 -12 58 -8 9 -19 27 -25 39 -7 14 -25 25 -46 29 -19 4 -36 12 -38 18 -7 22 -32 11 -32 -13 0 -14 -4 -27 -9 -30 -5 -4 -5 -18 2 -36 8 -22 8 -33 0 -41 -8 -8 -13 6 -18 50 -9 77 13 136 48 127 27 -7 57 19 58 53 2 21 3 19 8 -9 3 -19 18 -60 32 -90z m-1846 -312 c1 -18 3 -58 5 -88 4 -45 2 -55 -11 -58 -26 -5 -41 87 -20 126 5 9 12 25 15 35 8 25 11 21 11 -15z m1679 7 c-11 -17 -17 -49 -18 -93 -1 -52 -4 -67 -16 -68 -8 0 -27 -4 -42 -8 -35 -10 -38 -45 -5 -54 22 -6 22 -6 -3 -12 -19 -5 -25 -13 -25 -32 0 -14 -4 -30 -9 -35 -4 -4 -6 35 -4 89 l5 98 -30 23 c-22 17 -29 28 -24 42 6 15 15 17 58 12 48 -6 52 -4 85 28 41 41 51 45 28 10z m-1732 -91 c3 -3 3 -14 1 -25 -7 -25 -31 -21 -51 9 -14 21 -13 22 15 22 16 0 32 -3 35 -6z m112 -91 c-3 -16 -17 -52 -31 -81 -13 -29 -21 -57 -18 -62 3 -5 0 -12 -6 -15 -5 -4 -8 -14 -4 -24 3 -9 3 -12 -2 -6 -4 6 -7 54 -5 108 3 96 4 97 27 91 12 -3 26 -1 29 5 12 19 17 12 10 -16z m323 -13 c28 -17 32 -24 30 -60 l-1 -40 -24 30 c-26 33 -51 37 -114 20 -23 -7 -45 -23 -60 -43 -12 -18 -31 -42 -42 -54 -12 -12 -42 -44 -68 -71 -27 -28 -48 -57 -48 -64 0 -18 -56 -73 -62 -61 -3 4 -3 27 0 51 3 33 10 45 26 52 22 8 123 112 141 145 6 11 26 29 45 42 19 12 48 33 63 47 33 31 70 33 114 6z m1639 -97 c21 -8 107 -93 94 -93 -5 0 -28 17 -52 38 -24 20 -54 44 -67 52 -16 11 -20 20 -15 34 7 18 8 18 15 -3 5 -12 16 -24 25 -28z m-1340 -128 c-15 -44 -40 -67 -64 -58 -12 5 -11 8 6 14 12 5 22 16 22 26 0 15 40 67 46 60 2 -1 -3 -20 -10 -42z m852 -12 c0 -10 3 -31 7 -48 9 -35 2 -31 -19 10 -11 21 -12 32 -4 42 14 17 17 16 16 -4z m-1114 -50 c-4 -16 -13 -39 -20 -53 -19 -36 -18 0 0 45 18 42 29 46 20 8z m924 -2 c-9 -15 -9 -25 0 -45 12 -26 12 -26 -13 -10 -29 19 -31 31 -8 56 21 24 36 23 21 -1z m-728 -18 c-1 -18 -18 -35 -24 -24 -4 6 -4 16 -1 21 7 12 25 13 25 3z m937 -49 c-9 -9 -28 6 -21 18 4 6 10 6 17 -1 6 -6 8 -13 4 -17z m-682 -35 c4 -6 12 -8 19 -6 44 17 56 18 56 5 0 -8 10 -25 22 -37 19 -22 22 -22 33 -7 13 17 61 23 50 6 -3 -5 2 -18 12 -29 20 -24 24 -58 9 -70 -17 -12 -96 -1 -96 14 0 12 -22 26 -45 30 -15 2 -35 -16 -29 -27 3 -5 0 -15 -6 -23 -21 -26 -3 -31 99 -28 l101 3 -4 -40 c-4 -50 -30 -90 -58 -90 -12 0 -29 -7 -38 -15 -16 -14 -24 -13 -87 7 -62 20 -69 25 -63 43 4 11 4 29 0 39 -4 11 0 33 9 50 9 18 15 58 16 94 0 52 -4 66 -19 78 -17 12 -17 14 -4 14 9 0 20 -5 23 -11z m-949 -22 c-10 -7 -33 -23 -50 -37 l-31 -24 23 25 c12 14 22 31 22 37 0 7 12 12 28 11 25 0 25 -1 8 -12z m644 -24 c-25 -32 -27 -94 -2 -116 9 -8 30 -19 45 -22 29 -8 32 -28 5 -33 -22 -4 -88 86 -88 120 0 15 5 28 11 28 5 0 7 5 4 11 -8 13 24 51 37 43 4 -3 -1 -17 -12 -31z m1455 17 c-3 -5 -15 -10 -26 -10 -10 0 -19 5 -19 10 0 6 12 10 26 10 14 0 23 -4 19 -10z m-2200 -109 c3 -9 1 -17 -5 -19 -26 -9 -70 -56 -70 -75 -1 -29 -38 -71 -84 -92 -29 -14 -36 -23 -36 -46 0 -16 5 -29 10 -29 15 0 12 -37 -4 -43 -8 -3 -22 0 -33 8 -16 12 -22 9 -60 -33 -55 -62 -54 -35 2 52 25 38 45 75 45 82 0 7 10 19 23 25 21 12 41 28 92 76 12 12 37 42 54 66 33 45 56 55 66 28z m2205 -12 l25 -20 -32 16 c-18 8 -33 18 -33 20 0 10 16 4 40 -16z m-683 -121 c15 -17 14 -18 -9 -18 -16 0 -29 9 -38 25 -12 22 -11 30 6 63 l19 37 3 -45 c2 -25 11 -53 19 -62z m-1387 33 c0 -3 3 -17 7 -31 6 -22 5 -24 -10 -11 -15 12 -22 10 -56 -12 l-39 -26 -4 24 c-5 25 17 50 55 64 22 8 47 4 47 -8z m138 -39 c2 -23 -1 -32 -12 -32 -21 0 -28 15 -20 45 9 34 28 26 32 -13z m1297 -41 c0 -24 32 -38 55 -23 20 12 21 12 5 -12 -9 -14 -32 -34 -51 -45 -31 -18 -34 -25 -34 -66 0 -25 -4 -45 -9 -45 -12 0 -3 138 11 164 8 15 8 21 -1 24 -18 6 -13 24 7 20 9 -2 17 -9 17 -17z m855 -166 c0 -28 -17 -34 -27 -9 -3 9 0 20 8 25 19 12 19 12 19 -16z m-1926 -36 c-8 -13 -50 -11 -62 4 -8 10 -2 12 29 9 21 -2 36 -8 33 -13z m-846 -24 c-10 -23 -28 -34 -28 -18 0 7 31 43 36 43 2 0 -2 -11 -8 -25z m-42 -102 c-8 -15 -15 -25 -16 -21 0 12 23 58 27 54 3 -2 -2 -17 -11 -33z m532 -12 c-2 -9 -15 -17 -30 -19 -29 -3 -32 -11 -43 -81 -5 -29 -10 -39 -16 -30 -4 7 -4 18 1 24 5 6 7 20 6 30 -2 11 3 29 10 40 8 11 14 34 14 51 l0 32 31 -15 c18 -9 29 -21 27 -32z m447 29 c3 -5 -12 -21 -35 -35 -26 -17 -40 -33 -40 -47 0 -12 -2 -19 -5 -16 -3 3 -3 23 1 45 5 31 12 42 33 50 35 14 39 15 46 3z m-818 -27 c-8 -10 -17 -31 -19 -48 -2 -20 -9 -31 -23 -34 -11 -2 -33 -14 -48 -27 -31 -26 -90 -33 -103 -12 -4 7 -9 23 -10 36 l-3 24 26 -26 c14 -14 30 -26 35 -26 25 0 96 54 118 90 13 22 28 40 34 40 5 0 2 -8 -7 -17z m928 -31 c-7 -7 -64 22 -59 30 3 5 18 1 34 -9 16 -9 28 -19 25 -21z m704 22 c9 -8 31 -79 30 -99 0 -18 -1 -17 -13 4 -8 14 -12 30 -10 36 6 15 -35 51 -65 58 -13 3 -38 -1 -55 -9 l-31 -15 24 21 c20 17 32 20 70 14 25 -4 48 -8 50 -10z m170 -8 c14 -17 23 -114 11 -121 -5 -3 -11 -1 -14 4 -4 5 -2 13 4 16 8 5 8 11 0 20 -6 8 -10 22 -9 32 2 10 -2 28 -9 41 -14 24 -1 30 17 8z m-755 -55 c-2 -2 -11 2 -19 9 -13 11 -13 15 -3 21 8 5 15 2 19 -9 4 -9 5 -19 3 -21z m401 -19 l-28 -27 24 31 c13 17 26 30 28 27 3 -2 -8 -16 -24 -31z m-750 -22 c-4 -6 -14 -8 -24 -5 -17 5 -55 -29 -76 -69 -5 -11 -16 -21 -24 -24 -13 -4 14 41 53 86 20 22 84 33 71 12z m321 -32 c-9 -12 -16 -33 -16 -45 0 -18 -7 -25 -30 -29 -33 -7 -41 -37 -15 -51 13 -8 13 -11 0 -30 -20 -29 -66 -39 -81 -18 -7 9 -10 25 -7 35 4 14 -2 22 -21 30 -17 6 -24 14 -20 25 5 13 8 13 27 0 27 -19 47 -19 47 0 0 8 17 26 38 39 20 14 48 34 62 45 32 26 35 26 16 -1z m738 -59 c-10 -11 -28 -26 -39 -31 -14 -8 -12 -2 9 21 33 34 61 44 30 10z m-1284 -64 c-27 -29 -37 -27 -20 4 6 12 18 21 27 21 13 0 12 -5 -7 -25z m-234 -50 c-15 -57 -31 -72 -21 -20 6 33 20 65 30 65 1 0 -3 -20 -9 -45z m1014 -107 c-21 -23 -36 -19 -27 7 4 8 16 15 27 15 l21 0 -21 -22z m-1024 -27 c-3 -5 2 -19 13 -32 17 -21 21 -22 50 -9 24 10 35 10 44 1 8 -8 7 -11 -6 -11 -10 0 -29 -11 -42 -24 -13 -13 -34 -25 -48 -28 -21 -4 -25 -2 -21 15 2 11 -1 26 -7 33 -7 8 -7 14 1 19 6 4 8 15 5 26 -4 11 -2 19 5 19 6 0 9 -4 6 -9z"/>
 </g>
<g id="layer107" fill="#ad463d" stroke="none">
 <path d="M0 3080 l0 -3080 6750 0 6750 0 0 3080 0 3080 -6750 0 -6750 0 0 -3080z m7891 640 c37 -77 51 -127 44 -149 -3 -11 1 -36 10 -57 9 -23 12 -41 6 -48 -8 -9 -8 -70 -1 -86 1 -3 2 -8 1 -12 -2 -16 31 -79 44 -85 8 -3 15 -13 15 -22 0 -9 6 -26 14 -37 8 -11 16 -36 18 -54 2 -22 10 -38 23 -45 24 -13 105 -91 105 -102 0 -4 26 -36 58 -69 52 -55 59 -68 70 -125 6 -35 12 -136 12 -224 1 -221 -29 -355 -52 -240 -5 21 -12 43 -17 49 -5 6 -12 25 -15 42 -4 18 -16 40 -27 50 -11 10 -19 30 -19 50 0 18 -6 38 -12 43 -81 67 -130 94 -171 97 -15 1 -30 -2 -33 -7 -3 -5 -44 -9 -91 -9 l-86 0 -48 -48 c-37 -37 -50 -58 -55 -90 -4 -28 -14 -46 -30 -57 -13 -8 -26 -15 -29 -15 -9 0 -5 54 9 114 14 60 11 83 -19 151 -8 16 -11 33 -9 37 3 4 -2 8 -10 8 -22 0 -28 17 -14 40 10 15 10 24 1 39 -8 12 -8 22 -2 28 7 7 4 23 -10 49 -14 26 -17 41 -11 50 6 6 8 19 4 28 -4 9 0 18 9 22 17 6 23 46 31 184 4 74 4 76 -27 101 -21 19 -28 31 -23 44 5 15 14 17 57 12 48 -6 52 -4 89 32 22 21 40 42 40 46 0 4 6 13 14 19 12 9 12 27 -2 118 -14 99 -14 109 2 143 14 30 22 36 39 31 27 -7 57 19 58 53 2 21 3 19 8 -9 3 -19 18 -60 32 -90z m-1759 -310 c-2 -14 -4 -38 -5 -55 -1 -16 -6 -36 -10 -43 -5 -7 -10 -33 -13 -59 -2 -25 -15 -70 -29 -100 -14 -29 -23 -58 -20 -63 3 -5 0 -12 -6 -15 -5 -4 -8 -14 -4 -24 4 -9 3 -12 -2 -6 -5 6 -6 56 -3 113 3 72 2 102 -6 102 -22 0 -33 94 -15 128 5 9 12 25 15 35 5 15 15 18 53 15 45 -3 48 -5 45 -28z m-140 -86 c3 -3 3 -14 1 -25 -7 -25 -31 -21 -51 9 -14 21 -13 22 15 22 16 0 32 -3 35 -6z m435 -103 c28 -18 31 -24 31 -66 -1 -25 4 -51 10 -57 18 -18 14 -109 -8 -174 -11 -32 -20 -68 -20 -78 0 -11 -25 -45 -55 -77 -30 -32 -55 -64 -55 -72 0 -8 -9 -22 -19 -31 -24 -22 -64 -104 -58 -119 2 -7 -7 -25 -19 -40 -36 -43 -21 -90 55 -173 12 -13 29 -14 98 -9 60 5 87 4 98 -5 12 -10 13 -16 4 -27 -7 -7 -9 -16 -6 -20 4 -3 -3 -19 -14 -34 -11 -16 -18 -33 -14 -39 3 -5 -12 -21 -35 -35 -23 -15 -40 -33 -40 -44 0 -25 -49 -73 -69 -66 -17 5 -62 -36 -74 -67 -3 -9 -28 -27 -54 -39 -59 -26 -91 -54 -108 -95 -7 -17 -34 -46 -60 -65 -57 -41 -73 -74 -49 -100 16 -18 16 -19 0 -19 -9 0 -28 -11 -41 -24 -13 -13 -34 -25 -48 -28 -22 -4 -25 -2 -21 18 2 12 0 26 -6 29 -6 4 -7 12 -3 18 4 7 8 51 8 98 0 66 4 91 17 105 9 11 22 39 29 64 7 25 17 50 21 57 6 7 5 20 -1 32 -7 13 -8 22 -1 26 5 3 8 16 6 28 -2 12 3 31 9 42 7 11 16 45 19 75 9 72 45 182 65 197 9 6 13 15 9 19 -4 4 -3 13 3 20 15 18 5 52 -24 88 l-24 30 -51 -33 c-75 -48 -147 -131 -160 -184 -11 -41 -31 -68 -120 -160 -15 -16 -29 -43 -32 -60 -3 -22 -12 -33 -25 -36 -11 -2 -33 -14 -48 -27 -31 -26 -90 -33 -103 -12 -12 20 -16 88 -5 88 13 0 61 107 55 123 -2 7 7 24 21 37 14 13 25 28 25 34 0 6 21 42 45 80 25 38 45 75 45 82 0 7 10 19 23 25 12 7 31 20 42 30 11 10 29 27 41 36 11 10 37 40 57 67 21 28 45 51 53 52 32 5 44 14 44 32 0 10 9 27 20 37 11 10 20 24 20 32 0 8 12 13 33 13 36 0 71 29 73 59 1 9 2 33 3 54 1 29 6 39 24 46 23 9 124 112 142 146 6 11 26 29 45 42 19 12 48 33 63 47 33 31 70 33 114 7z m300 -223 c-7 -20 -27 -49 -45 -66 -18 -17 -32 -36 -32 -43 0 -9 -3 -10 -10 -3 -14 14 10 62 32 68 10 2 18 12 18 22 0 16 39 68 46 61 2 -1 -2 -19 -9 -39z m661 6 c18 -13 21 -19 11 -30 -6 -8 -9 -17 -6 -21 4 -3 2 -12 -4 -19 -7 -9 -8 -24 -3 -41 4 -16 6 -32 5 -37 -1 -4 5 -19 14 -32 19 -30 19 -60 0 -68 -27 -10 -42 -66 -36 -131 7 -67 26 -85 92 -85 31 0 37 -4 42 -25 4 -26 -22 -60 -72 -95 -20 -14 -22 -24 -24 -122 -1 -99 1 -109 21 -131 16 -17 24 -39 26 -76 4 -52 4 -53 -52 -108 -32 -31 -65 -63 -74 -71 -10 -9 -18 -22 -18 -29 0 -8 -5 -23 -11 -35 -11 -20 -11 -19 -24 6 -12 22 -11 30 1 56 9 16 12 34 9 40 -4 6 -2 16 3 23 6 8 7 30 1 62 -6 28 -10 57 -10 66 -1 40 -75 77 -113 57 -28 -14 -112 -104 -138 -148 -12 -19 -33 -48 -47 -65 -39 -46 -52 -73 -45 -99 3 -13 1 -27 -5 -30 -6 -4 -11 -15 -11 -24 0 -9 -11 -27 -24 -40 -14 -12 -32 -43 -42 -67 -17 -45 -37 -58 -48 -30 -5 15 30 87 47 94 16 6 28 54 32 127 3 40 14 100 25 133 18 54 18 63 6 107 -8 27 -19 123 -26 214 -14 214 -28 328 -43 354 -6 12 -10 26 -9 33 1 6 -2 14 -7 17 -12 8 36 95 55 103 8 3 20 0 27 -5 9 -8 27 -7 63 4 27 8 62 13 77 10 41 -8 77 15 148 93 62 70 69 73 144 79 11 1 31 -5 43 -14z m-778 -221 c-25 -32 -27 -94 -2 -116 9 -8 30 -19 45 -22 29 -8 32 -28 5 -33 -22 -4 -88 86 -88 120 0 15 5 28 11 28 5 0 7 5 4 11 -8 13 24 51 37 43 4 -3 -1 -17 -12 -31z m-16 -637 c9 3 23 1 31 -6 8 -7 24 -10 34 -7 26 6 32 -20 13 -51 -8 -12 -12 -25 -9 -29 4 -3 0 -15 -8 -27 -8 -11 -15 -31 -15 -43 0 -18 -7 -25 -30 -29 -33 -7 -41 -37 -15 -51 13 -8 13 -11 0 -30 -20 -29 -66 -39 -81 -18 -7 9 -10 25 -7 35 4 14 -1 22 -17 28 -19 7 -22 17 -26 86 -4 60 -1 87 12 115 28 61 33 64 69 41 18 -11 40 -17 49 -14z"/>
 <path d="M6951 2726 c-6 -7 -8 -16 -4 -19 3 -4 0 -13 -6 -21 -7 -8 -10 -19 -8 -23 6 -10 134 -8 168 2 23 8 23 8 4 16 -11 4 -35 8 -52 8 -21 1 -33 6 -33 15 0 13 -19 26 -47 32 -7 1 -17 -4 -22 -10z"/>
 </g>
<g id="layer108" fill="#be3d44" stroke="none">
 <path d="M0 3080 l0 -3080 6750 0 6750 0 0 3080 0 3080 -6750 0 -6750 0 0 -3080z m7891 640 c37 -77 51 -127 44 -149 -3 -11 1 -36 10 -57 9 -23 12 -41 6 -48 -8 -9 -8 -70 -1 -86 1 -3 2 -8 1 -12 -2 -16 31 -79 44 -85 8 -3 15 -13 15 -22 0 -9 6 -26 14 -37 8 -11 16 -36 18 -54 2 -22 10 -38 23 -45 24 -13 105 -91 105 -102 0 -4 26 -36 58 -69 52 -55 59 -68 70 -125 6 -35 12 -136 12 -224 1 -221 -29 -355 -52 -240 -5 21 -12 43 -17 49 -5 6 -12 25 -15 42 -4 18 -16 40 -27 50 -11 10 -19 30 -19 50 0 18 -6 38 -12 43 -81 67 -130 94 -171 97 -15 1 -30 -2 -33 -7 -3 -5 -44 -9 -91 -9 l-86 0 -48 -48 c-37 -37 -50 -58 -55 -90 -4 -28 -14 -46 -30 -57 -13 -8 -26 -15 -29 -15 -9 0 -5 54 9 114 14 60 11 83 -19 151 -8 16 -11 33 -9 37 3 4 -2 8 -10 8 -22 0 -28 17 -14 40 10 15 10 24 1 39 -8 12 -8 22 -2 28 7 7 4 23 -10 49 -14 26 -17 41 -11 50 6 6 8 19 4 28 -4 9 0 18 9 22 17 6 23 46 31 184 4 74 4 76 -27 101 -21 19 -28 31 -23 44 5 15 14 17 57 12 48 -6 52 -4 89 32 22 21 40 42 40 46 0 4 6 13 14 19 12 9 12 27 -2 118 -14 99 -14 109 2 143 14 30 22 36 39 31 27 -7 57 19 58 53 2 21 3 19 8 -9 3 -19 18 -60 32 -90z m-1759 -310 c-2 -14 -4 -38 -5 -55 -1 -16 -6 -36 -10 -43 -5 -7 -10 -33 -13 -59 -2 -25 -15 -70 -29 -100 -14 -29 -23 -58 -20 -63 3 -5 0 -12 -6 -15 -5 -4 -8 -14 -4 -23 3 -9 3 -13 -1 -9 -9 9 -12 117 -4 170 l5 42 -44 16 c-24 8 -50 24 -57 35 -11 16 -9 23 16 48 l30 29 9 -24 c7 -18 10 -19 10 -6 1 9 5 25 10 35 5 9 12 25 15 35 5 15 15 18 53 15 45 -3 48 -5 45 -28z m295 -189 c28 -18 31 -24 31 -66 -1 -25 4 -51 10 -57 18 -18 14 -109 -8 -174 -11 -32 -20 -68 -20 -78 0 -11 -25 -45 -55 -77 -30 -32 -55 -64 -55 -72 0 -8 -9 -22 -19 -31 -24 -22 -64 -104 -58 -119 2 -7 -7 -25 -19 -40 -36 -43 -21 -90 55 -173 12 -13 29 -14 98 -9 60 5 87 4 98 -5 12 -10 13 -16 4 -27 -7 -7 -9 -16 -6 -20 4 -3 -3 -19 -14 -34 -11 -16 -18 -33 -14 -39 3 -5 -12 -21 -35 -35 -23 -15 -40 -33 -40 -44 0 -25 -49 -73 -69 -66 -17 5 -62 -36 -74 -67 -3 -9 -28 -27 -54 -39 -59 -26 -91 -54 -108 -95 -7 -17 -34 -46 -60 -65 -57 -41 -73 -74 -49 -100 16 -18 16 -19 0 -19 -9 0 -28 -11 -41 -24 -13 -13 -34 -25 -48 -28 -22 -4 -25 -2 -21 18 2 12 0 26 -6 29 -6 4 -7 12 -3 18 4 7 8 51 8 98 0 66 4 91 17 105 9 11 22 39 29 64 7 25 17 50 21 57 6 7 5 20 -1 32 -7 13 -8 22 -1 26 5 3 8 16 6 28 -2 12 3 31 9 42 7 11 16 45 19 75 9 72 45 182 65 197 9 6 13 15 9 19 -4 4 -3 13 3 20 15 18 5 52 -24 88 l-24 30 -51 -33 c-75 -48 -147 -131 -160 -184 -11 -41 -31 -68 -120 -160 -15 -16 -29 -43 -32 -60 -3 -22 -12 -33 -25 -36 -11 -2 -33 -14 -48 -27 -31 -26 -90 -33 -103 -12 -12 20 -16 88 -5 88 13 0 61 107 55 123 -2 7 7 24 21 37 14 13 25 28 25 34 0 6 21 42 45 80 25 38 45 75 45 82 0 7 10 19 23 25 12 7 31 20 42 30 11 10 29 27 41 36 11 10 37 40 57 67 21 28 45 51 53 52 32 5 44 14 44 32 0 10 9 27 20 37 11 10 20 24 20 32 0 8 12 13 33 13 36 0 71 29 73 59 1 9 2 33 3 54 1 29 6 39 24 46 23 9 124 112 142 146 6 11 26 29 45 42 19 12 48 33 63 47 33 31 70 33 114 7z m300 -223 c-7 -20 -27 -49 -45 -66 -18 -17 -32 -36 -32 -43 0 -9 -3 -10 -10 -3 -14 14 10 62 32 68 10 2 18 12 18 22 0 16 39 68 46 61 2 -1 -2 -19 -9 -39z m661 6 c18 -13 21 -19 11 -30 -6 -8 -9 -17 -6 -21 4 -3 2 -12 -4 -19 -7 -9 -8 -24 -3 -41 4 -16 6 -32 5 -37 -1 -4 5 -19 14 -32 19 -30 19 -60 0 -68 -27 -10 -42 -66 -36 -131 7 -67 26 -85 92 -85 31 0 37 -4 42 -25 4 -26 -22 -60 -72 -95 -20 -14 -22 -24 -24 -122 -1 -99 1 -109 21 -131 16 -17 24 -39 26 -76 4 -52 4 -53 -52 -108 -32 -31 -65 -63 -74 -71 -10 -9 -18 -22 -18 -29 0 -8 -5 -23 -11 -35 -11 -20 -11 -19 -24 6 -12 22 -11 30 1 56 9 16 12 34 9 40 -4 6 -2 16 3 23 6 8 7 30 1 62 -6 28 -10 57 -10 66 -1 40 -75 77 -113 57 -28 -14 -112 -104 -138 -148 -12 -19 -33 -48 -47 -65 -39 -46 -52 -73 -45 -99 3 -13 1 -27 -5 -30 -6 -4 -11 -15 -11 -24 0 -9 -11 -27 -24 -40 -14 -12 -32 -43 -42 -67 -17 -45 -37 -58 -48 -30 -5 15 30 87 47 94 16 6 28 54 32 127 3 40 14 100 25 133 18 54 18 63 6 107 -8 27 -19 123 -26 214 -14 214 -28 328 -43 354 -6 12 -10 26 -9 33 1 6 -2 14 -7 17 -12 8 36 95 55 103 8 3 20 0 27 -5 9 -8 27 -7 63 4 27 8 62 13 77 10 41 -8 77 15 148 93 62 70 69 73 144 79 11 1 31 -5 43 -14z m-778 -221 c-25 -32 -27 -94 -2 -116 9 -8 30 -19 45 -22 29 -8 32 -28 5 -33 -22 -4 -88 86 -88 120 0 15 5 28 11 28 5 0 7 5 4 11 -8 13 24 51 37 43 4 -3 -1 -17 -12 -31z m-16 -637 c9 3 23 1 31 -6 8 -7 24 -10 34 -7 26 6 32 -20 13 -51 -8 -12 -12 -25 -9 -29 4 -3 0 -15 -8 -27 -8 -11 -15 -31 -15 -43 0 -18 -7 -25 -30 -29 -21 -5 -30 -12 -30 -25 0 -11 7 -19 15 -19 34 0 -2 -55 -42 -65 -32 -8 -54 14 -46 45 4 14 -1 22 -17 28 -19 7 -22 17 -26 86 -4 60 -1 87 12 115 28 61 33 64 69 41 18 -11 40 -17 49 -14z"/>
 <path d="M7037 2683 c-15 -14 -5 -23 26 -23 44 0 67 15 35 23 -30 9 -53 9 -61 0z"/>
 </g>
<g id="layer109" fill="#c73a46" stroke="none">
 <path d="M0 3080 l0 -3080 6750 0 6750 0 0 3080 0 3080 -6750 0 -6750 0 0 -3080z m7891 640 c34 -71 53 -135 45 -149 -4 -6 -4 -17 0 -23 15 -23 18 -61 10 -120 -2 -21 0 -40 5 -44 5 -3 7 -9 4 -14 -8 -12 24 -80 40 -87 8 -3 15 -13 15 -22 0 -10 7 -26 15 -37 8 -10 15 -27 15 -36 0 -10 5 -18 11 -18 5 0 8 -4 4 -9 -3 -5 22 -37 55 -71 33 -34 60 -64 60 -68 0 -4 15 -23 34 -42 77 -79 82 -87 94 -151 15 -86 17 -363 2 -436 -18 -88 -19 -90 -30 -73 -6 8 -10 24 -10 35 0 11 -6 32 -14 46 -7 14 -16 39 -20 55 -4 16 -17 39 -29 52 -13 14 -20 34 -19 52 1 18 -3 30 -10 30 -6 0 -9 3 -5 6 7 7 -38 42 -98 76 -42 23 -92 32 -101 17 -3 -5 -43 -9 -89 -9 -75 0 -86 -3 -114 -26 -17 -14 -29 -30 -25 -35 3 -5 -2 -9 -11 -9 -17 0 -45 -55 -45 -89 0 -16 -48 -60 -54 -49 -1 2 -8 12 -16 23 -8 11 -10 16 -5 12 6 -5 16 19 26 63 18 76 12 126 -19 162 -8 10 -12 24 -9 33 4 9 1 15 -8 15 -21 0 -27 17 -13 39 10 16 10 23 0 33 -15 15 -16 62 -1 53 5 -4 1 10 -10 31 -21 39 -20 80 4 99 15 13 25 64 14 71 -12 7 -11 101 1 109 16 10 5 70 -19 104 -34 48 -22 65 40 58 48 -6 52 -4 89 32 22 21 40 42 40 46 0 4 6 13 14 19 12 9 12 27 -2 118 -14 99 -14 109 2 143 14 30 22 36 39 31 27 -7 57 19 58 53 2 21 3 19 8 -9 3 -19 18 -60 32 -90z m-1759 -310 c-2 -14 -4 -38 -5 -55 -1 -16 -6 -36 -10 -43 -5 -7 -10 -33 -13 -59 -2 -25 -15 -70 -29 -100 -14 -29 -23 -58 -20 -63 3 -5 0 -12 -6 -15 -5 -4 -8 -14 -5 -22 3 -8 1 -11 -4 -8 -5 3 -9 40 -8 83 2 110 -7 139 -43 147 -16 4 -36 16 -44 28 -13 19 -12 23 12 46 14 14 32 26 41 26 15 0 26 14 36 48 5 15 15 18 53 15 45 -3 48 -5 45 -28z m296 -190 c29 -18 32 -24 32 -69 0 -28 5 -53 10 -56 17 -10 11 -108 -10 -171 -11 -32 -20 -68 -20 -78 0 -11 -25 -45 -55 -77 -30 -32 -55 -64 -55 -72 0 -8 -9 -22 -19 -31 -24 -22 -64 -104 -58 -119 2 -7 -7 -25 -20 -41 -16 -19 -22 -35 -18 -50 12 -39 36 -86 45 -86 5 0 12 -9 15 -20 4 -11 11 -18 16 -15 5 4 9 2 9 -2 0 -12 38 -14 46 -2 3 6 12 5 22 -3 9 -8 13 -8 9 -2 -4 7 0 15 9 18 8 3 12 2 9 -4 -4 -6 11 -10 38 -10 45 0 79 -21 57 -35 -6 -4 -9 -12 -7 -18 2 -7 -4 -24 -14 -38 -10 -14 -17 -36 -14 -47 2 -12 1 -21 -3 -21 -22 4 -34 -6 -63 -48 -39 -57 -59 -74 -79 -68 -16 5 -62 -38 -73 -67 -3 -9 -30 -28 -59 -41 -57 -27 -101 -69 -92 -90 3 -8 -20 -31 -57 -58 -74 -53 -102 -109 -53 -109 26 0 15 -16 -18 -25 -18 -6 -37 -19 -43 -30 -6 -12 -20 -20 -36 -20 -22 -1 -26 3 -23 22 2 12 0 25 -6 28 -6 4 -8 11 -4 16 3 6 7 50 8 99 1 65 5 93 17 106 9 11 14 25 12 32 -3 7 1 19 7 28 7 8 10 17 6 21 -3 4 4 17 15 29 18 19 20 26 9 39 -9 11 -10 18 -1 29 6 7 9 21 5 30 -3 9 0 26 8 39 8 12 18 47 22 77 9 73 45 182 65 197 9 6 13 15 9 19 -4 4 -3 13 3 20 15 18 5 52 -24 88 l-24 30 -39 -24 c-53 -33 -125 -100 -118 -111 3 -5 -1 -9 -8 -9 -17 0 -34 -27 -47 -78 -6 -22 -28 -58 -49 -80 -65 -70 -97 -114 -102 -141 -3 -15 -13 -27 -25 -30 -11 -2 -33 -14 -48 -27 -20 -17 -41 -24 -70 -24 -48 0 -79 13 -53 23 11 4 13 15 9 41 -3 22 -2 36 5 36 14 0 63 107 56 124 -3 7 2 19 11 26 8 7 15 16 15 21 0 5 16 31 35 58 19 26 35 51 35 55 0 20 44 96 56 96 7 0 18 9 24 20 6 11 15 20 20 20 12 0 86 72 117 114 13 16 30 31 39 32 36 6 46 14 40 36 -7 30 44 78 83 78 20 0 30 6 34 20 3 11 12 20 21 20 9 0 15 8 14 18 -5 62 3 93 26 102 13 5 43 32 67 61 87 103 121 138 142 145 12 4 32 17 44 30 27 29 67 31 111 4z m300 -224 c-7 -21 -23 -45 -36 -54 -13 -8 -28 -27 -33 -40 -7 -18 -13 -22 -20 -15 -7 7 -7 18 3 34 17 32 90 121 94 116 2 -1 -2 -20 -8 -41z m660 8 c17 -12 20 -19 12 -29 -6 -7 -10 -17 -9 -21 1 -5 -1 -17 -6 -27 -4 -11 1 -37 14 -69 25 -60 27 -94 6 -102 -21 -8 -44 -65 -40 -96 16 -109 14 -107 100 -119 31 -5 39 -10 39 -26 -1 -31 -25 -74 -45 -80 -37 -12 -51 -52 -52 -151 -1 -84 1 -96 21 -117 16 -17 24 -40 26 -76 4 -51 3 -53 -48 -107 -29 -30 -58 -54 -65 -54 -7 0 -10 -4 -7 -9 3 -5 -1 -11 -9 -15 -8 -3 -15 -16 -15 -29 0 -13 -5 -28 -12 -35 -8 -8 -14 -5 -24 13 -11 21 -10 30 1 53 8 15 12 34 9 44 -2 9 0 19 5 22 21 13 -16 147 -48 174 -8 6 -25 12 -37 12 -27 0 -74 -20 -74 -31 0 -5 -25 -33 -55 -64 -30 -30 -55 -59 -55 -65 0 -5 -15 -27 -32 -47 -46 -54 -59 -80 -52 -107 3 -13 1 -27 -5 -30 -6 -4 -11 -15 -11 -24 0 -9 -11 -27 -24 -40 -14 -12 -32 -43 -42 -67 -17 -45 -37 -58 -47 -31 -6 15 32 97 57 121 9 9 16 19 16 23 3 91 13 163 30 211 18 53 18 63 6 107 -8 27 -21 150 -31 274 -9 124 -20 226 -25 228 -4 2 -6 11 -3 21 3 11 -1 30 -8 42 -7 13 -12 29 -11 36 1 6 -2 14 -7 17 -5 3 3 28 17 55 26 48 28 49 72 49 95 -1 180 9 203 25 14 9 51 45 82 81 57 64 65 68 140 74 11 1 31 -5 43 -14z m-778 -221 c-42 -54 -12 -125 59 -139 25 -5 29 -9 20 -20 -19 -23 -44 -16 -78 23 -35 39 -55 113 -32 113 7 0 9 5 6 11 -8 13 24 51 37 43 4 -3 -1 -17 -12 -31z m-63 -623 c16 -12 34 -18 45 -14 10 3 25 0 33 -6 8 -7 24 -10 34 -7 25 6 33 -23 15 -48 -8 -11 -12 -27 -9 -36 3 -9 -1 -24 -10 -32 -8 -9 -15 -25 -15 -37 0 -15 -8 -22 -30 -26 -21 -5 -30 -12 -30 -25 0 -11 7 -19 15 -19 34 0 -2 -55 -42 -65 -32 -8 -54 14 -46 45 4 14 -1 22 -17 28 -19 7 -22 17 -26 91 -3 52 -1 87 6 96 6 7 10 17 8 21 -5 19 14 54 29 54 8 0 26 -9 40 -20z"/>
 <path d="M7065 2681 c-9 -16 21 -24 42 -12 10 6 13 11 6 11 -6 0 -18 3 -26 6 -8 3 -18 1 -22 -5z"/>
 </g>
<g id="layer110" fill="#9b5b52" stroke="none">
 <path d="M0 3080 l0 -3080 6750 0 6750 0 0 3080 0 3080 -6750 0 -6750 0 0 -3080z m7891 640 c34 -71 53 -135 45 -149 -4 -6 -4 -17 0 -23 15 -23 18 -61 10 -120 -2 -21 0 -40 4 -43 5 -3 7 -11 4 -18 -2 -7 7 -29 20 -48 14 -18 30 -45 36 -59 6 -14 20 -33 32 -44 13 -12 18 -27 15 -43 -4 -20 8 -38 62 -93 36 -38 80 -85 96 -106 17 -20 39 -47 51 -59 13 -14 25 -49 33 -94 16 -91 17 -380 1 -441 -20 -78 -20 -77 -31 -57 -6 10 -12 32 -14 49 -3 16 -8 35 -13 42 -5 6 -12 25 -16 41 -4 17 -21 44 -38 61 -22 24 -28 38 -23 53 15 49 -174 163 -201 120 -3 -5 -40 -9 -83 -9 l-77 0 -51 -49 c-56 -54 -73 -79 -73 -109 0 -16 -47 -61 -54 -50 -1 2 -8 11 -15 21 -10 13 -11 20 -2 31 6 7 18 37 25 66 17 64 6 110 -39 160 -30 34 -31 38 -25 105 4 47 2 78 -6 95 -10 20 -10 37 1 85 8 33 15 86 15 117 0 31 5 60 10 63 16 10 5 70 -19 104 -34 48 -22 65 40 58 48 -6 52 -4 89 32 22 21 40 42 40 46 0 4 6 13 14 19 12 9 12 27 -2 118 -14 99 -14 109 2 143 14 30 22 36 39 31 27 -7 57 19 58 53 2 21 3 19 8 -9 3 -19 18 -60 32 -90z m-1754 -291 c9 -9 8 -18 -3 -35 -9 -14 -13 -32 -9 -44 4 -12 2 -27 -5 -35 -6 -7 -13 -35 -16 -61 -2 -26 -15 -71 -29 -101 -14 -29 -23 -58 -20 -63 3 -5 0 -12 -6 -15 -5 -4 -8 -14 -5 -22 3 -8 1 -11 -4 -8 -5 3 -9 40 -8 83 2 110 -7 139 -43 147 -16 4 -36 16 -44 28 -13 19 -12 23 12 46 14 14 32 26 41 26 15 0 26 14 36 48 4 13 16 17 49 17 24 0 48 -5 54 -11z m291 -209 c29 -18 32 -24 32 -69 0 -28 5 -53 10 -56 17 -10 11 -108 -10 -171 -11 -32 -20 -68 -20 -79 0 -12 -18 -39 -41 -60 -22 -22 -48 -53 -56 -70 -9 -16 -27 -43 -40 -59 -28 -34 -55 -95 -47 -107 3 -5 -6 -23 -20 -40 -20 -23 -24 -37 -19 -57 19 -76 95 -149 128 -122 7 6 38 14 67 17 63 6 97 -12 83 -43 -5 -10 -9 -24 -10 -30 0 -6 -8 -22 -17 -36 -10 -14 -15 -36 -13 -47 2 -12 0 -19 -6 -16 -13 8 -71 -55 -65 -70 9 -24 -43 -60 -72 -51 -18 6 -63 -34 -75 -66 -3 -9 -30 -28 -59 -41 -59 -27 -72 -40 -81 -78 -4 -16 -29 -42 -68 -70 -60 -43 -81 -71 -72 -96 3 -7 11 -13 19 -13 26 0 14 -16 -18 -25 -18 -6 -37 -19 -43 -30 -6 -12 -20 -20 -36 -20 -22 -1 -26 3 -23 22 2 12 0 25 -6 28 -6 4 -7 12 -3 18 4 7 6 38 4 70 -3 64 13 149 36 185 8 13 12 26 9 30 -4 3 4 16 15 28 18 19 20 26 9 39 -9 11 -10 18 -1 29 6 7 9 21 5 30 -3 9 0 26 8 39 8 12 18 48 22 80 8 72 44 178 65 194 9 6 13 15 9 19 -4 4 -3 13 3 20 15 18 5 52 -24 88 l-24 30 -39 -25 c-47 -28 -114 -88 -114 -100 0 -5 -13 -28 -30 -51 -16 -22 -30 -49 -30 -58 0 -9 -20 -37 -45 -62 -25 -25 -45 -55 -45 -67 0 -12 -6 -21 -13 -21 -20 0 -45 -31 -49 -60 -2 -15 -11 -26 -23 -29 -11 -2 -33 -14 -48 -27 -20 -17 -41 -24 -70 -24 -48 0 -79 13 -53 23 11 4 13 15 9 41 -3 22 -2 36 5 36 14 0 63 107 56 124 -3 7 2 19 11 26 8 7 15 16 15 21 0 5 16 31 35 58 19 26 35 51 35 55 0 20 44 96 56 96 7 0 18 9 24 20 6 11 15 20 21 20 14 0 117 107 133 139 21 39 114 121 138 121 34 0 69 46 75 102 5 39 11 51 28 58 13 5 42 32 66 61 87 103 121 138 142 145 12 4 32 17 44 30 27 29 67 31 111 4z m299 -231 c-11 -22 -26 -43 -34 -46 -7 -3 -21 -19 -29 -35 -14 -27 -34 -30 -34 -5 0 18 100 138 109 132 5 -2 -1 -23 -12 -46z m656 32 c31 -12 34 -29 11 -77 -16 -33 -15 -37 5 -86 26 -63 27 -90 2 -105 -22 -14 -37 -101 -27 -156 5 -28 13 -36 44 -45 20 -7 48 -13 62 -14 17 -2 24 -9 24 -23 -1 -31 -25 -74 -45 -80 -35 -11 -48 -49 -50 -149 -2 -87 0 -98 20 -120 27 -29 38 -129 16 -149 -65 -56 -104 -97 -109 -113 -3 -10 -17 -32 -30 -49 l-24 -30 -13 27 c-9 22 -9 30 0 42 7 8 15 48 17 88 4 59 1 82 -15 119 -21 47 -36 59 -71 59 -28 0 -70 -21 -70 -35 0 -7 -11 -20 -25 -29 -13 -9 -32 -30 -40 -47 -15 -29 -26 -42 -79 -99 -34 -36 -56 -84 -50 -107 3 -12 1 -24 -5 -27 -6 -4 -11 -15 -11 -24 0 -9 -11 -27 -24 -40 -14 -12 -32 -43 -42 -67 -18 -47 -38 -58 -49 -25 -7 21 15 70 51 113 27 32 29 49 12 76 -9 15 -8 24 5 45 9 14 17 32 17 41 0 9 9 42 20 75 18 54 19 63 6 102 -8 24 -17 95 -21 158 -5 76 -12 123 -22 139 -11 17 -14 39 -10 77 3 30 2 56 -2 59 -7 4 -24 113 -25 167 -1 9 -4 19 -7 23 -4 3 5 28 19 55 24 47 26 48 71 48 25 0 73 2 106 6 33 3 63 5 68 6 4 0 15 8 25 18 10 9 27 22 38 28 28 16 64 73 64 103 0 25 2 26 68 29 37 2 80 -2 95 -7z m-773 -238 c-42 -54 -12 -125 59 -139 25 -5 29 -9 20 -20 -20 -24 -44 -15 -82 28 -27 30 -37 52 -37 75 0 18 5 33 11 33 5 0 7 5 4 11 -8 13 24 51 37 43 4 -3 -1 -17 -12 -31z m-63 -623 c16 -12 34 -18 45 -14 10 3 25 0 33 -6 8 -7 24 -10 34 -7 25 6 33 -23 15 -48 -8 -11 -12 -27 -9 -36 3 -9 -1 -24 -10 -32 -8 -9 -15 -25 -15 -37 0 -15 -8 -22 -30 -26 -21 -5 -30 -12 -30 -25 0 -11 7 -19 15 -19 34 0 -2 -55 -42 -65 -32 -8 -54 14 -46 45 4 14 -1 22 -17 28 -19 7 -22 17 -26 91 -3 52 -1 87 6 96 6 7 10 17 8 21 -5 19 14 54 29 54 8 0 26 -9 40 -20z"/>
 </g>
<g id="layer111" fill="#b7504c" stroke="none">
 <path d="M0 3080 l0 -3080 6750 0 6750 0 0 3080 0 3080 -6750 0 -6750 0 0 -3080z m7891 640 c34 -71 53 -135 45 -149 -4 -6 -4 -17 0 -23 15 -23 18 -61 10 -120 -2 -21 0 -40 4 -43 5 -3 7 -11 4 -18 -2 -7 7 -29 20 -48 14 -18 30 -45 36 -59 6 -14 20 -33 32 -44 13 -12 18 -27 15 -43 -4 -20 8 -38 62 -93 36 -38 80 -85 96 -106 17 -20 39 -47 51 -59 13 -14 25 -49 33 -94 16 -91 17 -380 1 -441 -20 -78 -20 -77 -31 -57 -6 10 -12 32 -14 49 -3 16 -8 35 -13 42 -5 6 -12 25 -16 41 -4 17 -21 44 -38 61 -22 24 -28 38 -23 53 15 49 -174 163 -201 120 -3 -5 -40 -9 -83 -9 l-77 0 -51 -49 c-56 -54 -73 -79 -73 -109 0 -16 -47 -61 -54 -50 -1 2 -8 11 -15 21 -10 13 -11 20 -2 31 6 7 18 37 25 66 17 64 6 110 -39 160 -30 34 -31 38 -25 105 4 47 2 78 -6 95 -10 20 -10 37 1 85 8 33 15 86 15 117 0 31 5 60 10 63 16 10 5 70 -19 104 -34 48 -22 65 40 58 48 -6 52 -4 89 32 22 21 40 42 40 46 0 4 6 13 14 19 12 9 12 27 -2 118 -14 99 -14 109 2 143 14 30 22 36 39 31 27 -7 57 19 58 53 2 21 3 19 8 -9 3 -19 18 -60 32 -90z m-1754 -291 c9 -9 8 -18 -3 -35 -9 -14 -13 -32 -9 -44 4 -12 2 -27 -5 -35 -6 -7 -13 -35 -16 -61 -2 -26 -15 -71 -29 -101 -14 -29 -23 -58 -20 -63 3 -5 0 -12 -6 -15 -5 -4 -8 -14 -5 -22 3 -8 1 -11 -4 -8 -5 3 -9 40 -8 83 2 124 -8 149 -59 143 -6 -1 -20 10 -31 24 -11 14 -25 25 -31 25 -6 0 -8 7 -5 15 4 10 13 13 26 9 14 -4 24 1 35 15 8 12 21 20 30 19 15 -3 27 11 37 45 4 13 16 17 49 17 24 0 48 -5 54 -11z m291 -209 c29 -18 32 -24 32 -69 0 -28 5 -53 10 -56 17 -10 11 -108 -10 -171 -11 -32 -20 -68 -20 -79 0 -12 -18 -39 -41 -60 -22 -22 -48 -53 -56 -70 -9 -16 -27 -43 -40 -59 -28 -34 -55 -95 -47 -107 3 -5 -6 -23 -20 -40 -20 -23 -24 -37 -19 -57 19 -76 95 -149 128 -122 7 6 38 14 67 17 63 6 97 -12 83 -43 -5 -10 -9 -24 -10 -30 0 -6 -8 -22 -17 -36 -10 -14 -15 -36 -13 -47 2 -12 0 -19 -6 -16 -13 8 -71 -55 -65 -70 9 -24 -43 -60 -72 -51 -18 6 -63 -34 -75 -66 -3 -9 -30 -28 -59 -41 -59 -27 -72 -40 -81 -78 -4 -16 -29 -42 -68 -70 -60 -43 -81 -71 -72 -96 3 -7 11 -13 19 -13 26 0 14 -16 -18 -25 -18 -6 -37 -19 -43 -30 -6 -12 -20 -20 -36 -20 -22 -1 -26 3 -23 22 2 12 0 25 -6 28 -6 4 -7 12 -3 18 4 7 6 38 4 70 -3 64 13 149 36 185 8 13 12 26 9 30 -4 3 4 16 15 28 18 19 20 26 9 39 -9 11 -10 18 -1 29 6 7 9 21 5 30 -3 9 0 26 8 39 8 12 18 48 22 80 8 72 44 178 65 194 9 6 13 15 9 19 -4 4 -3 13 3 20 15 18 5 52 -24 88 l-24 30 -39 -25 c-47 -28 -114 -88 -114 -100 0 -5 -13 -28 -30 -51 -16 -22 -30 -49 -30 -58 0 -9 -20 -37 -45 -62 -25 -25 -45 -55 -45 -67 0 -12 -6 -21 -13 -21 -20 0 -45 -31 -49 -60 -2 -15 -11 -26 -23 -29 -11 -2 -33 -14 -48 -27 -20 -17 -41 -24 -70 -24 -48 0 -79 13 -53 23 11 4 13 15 9 41 -3 22 -2 36 5 36 14 0 63 107 56 124 -3 7 2 19 11 26 8 7 15 16 15 21 0 5 16 31 35 58 19 26 35 51 35 55 0 20 44 96 56 96 7 0 18 9 24 20 6 11 15 20 21 20 14 0 117 107 133 139 21 39 114 121 138 121 34 0 69 46 75 102 5 39 11 51 28 58 13 5 42 32 66 61 87 103 121 138 142 145 12 4 32 17 44 30 27 29 67 31 111 4z m299 -231 c-11 -22 -26 -43 -34 -46 -7 -3 -21 -19 -29 -35 -14 -27 -34 -30 -34 -5 0 18 100 138 109 132 5 -2 -1 -23 -12 -46z m656 32 c31 -12 34 -29 11 -77 -16 -33 -15 -37 5 -86 26 -63 27 -90 2 -105 -22 -14 -37 -101 -27 -156 5 -28 13 -36 44 -45 20 -7 48 -13 62 -14 17 -2 24 -9 24 -23 -1 -31 -25 -74 -45 -80 -35 -11 -48 -49 -50 -149 -2 -87 0 -98 20 -120 27 -29 38 -129 16 -149 -65 -56 -104 -97 -109 -113 -3 -10 -17 -32 -30 -49 l-24 -30 -13 27 c-9 22 -9 30 0 42 7 8 15 48 17 88 4 59 1 82 -15 119 -21 47 -36 59 -71 59 -28 0 -70 -21 -70 -35 0 -7 -11 -20 -25 -29 -13 -9 -32 -30 -40 -47 -15 -29 -26 -42 -79 -99 -34 -36 -56 -84 -50 -107 3 -12 1 -24 -5 -27 -6 -4 -11 -15 -11 -24 0 -9 -11 -27 -24 -40 -14 -12 -32 -43 -42 -67 -18 -47 -38 -58 -49 -25 -7 21 15 70 51 113 27 32 29 49 12 76 -9 15 -8 24 5 45 9 14 17 32 17 41 0 9 9 42 20 75 18 54 19 63 6 102 -8 24 -17 95 -21 158 -5 76 -12 123 -22 139 -11 17 -14 39 -10 77 3 30 2 56 -2 59 -7 4 -24 113 -25 167 -1 9 -4 19 -7 23 -4 3 5 28 19 55 24 47 26 48 71 48 25 0 73 2 106 6 33 3 63 5 68 6 4 0 15 8 25 18 10 9 27 22 38 28 28 16 64 73 64 103 0 25 2 26 68 29 37 2 80 -2 95 -7z m-773 -238 c-42 -54 -12 -125 59 -139 25 -5 29 -9 20 -20 -20 -24 -44 -15 -82 28 -27 30 -37 52 -37 75 0 18 5 33 11 33 5 0 7 5 4 11 -8 13 24 51 37 43 4 -3 -1 -17 -12 -31z m-63 -623 c16 -12 34 -18 45 -14 10 3 25 0 33 -6 8 -7 24 -10 34 -7 25 6 33 -23 15 -48 -8 -11 -12 -27 -9 -36 3 -9 -1 -24 -10 -32 -8 -9 -15 -25 -15 -37 0 -15 -8 -22 -30 -26 -21 -5 -30 -12 -30 -25 0 -11 7 -19 15 -19 20 0 19 -12 -6 -44 -35 -44 -95 -26 -82 25 4 13 -2 21 -17 27 -19 7 -22 17 -26 91 -3 52 -1 87 6 96 6 7 10 17 8 21 -5 19 14 54 29 54 8 0 26 -9 40 -20z"/>
 </g>
<g id="layer112" fill="#c74e53" stroke="none">
 <path d="M0 3080 l0 -3080 6750 0 6750 0 0 3080 0 3080 -6750 0 -6750 0 0 -3080z m7891 640 c34 -70 53 -135 45 -149 -4 -6 0 -21 8 -33 17 -24 21 -73 7 -82 -7 -5 -8 -71 -1 -71 1 0 3 -10 4 -22 1 -11 11 -33 22 -48 10 -15 26 -40 34 -55 8 -15 23 -35 33 -45 12 -11 17 -27 14 -42 -4 -20 9 -38 62 -93 36 -38 80 -85 96 -106 17 -20 39 -47 51 -59 13 -14 25 -49 33 -94 16 -91 17 -380 1 -441 -20 -78 -20 -77 -31 -57 -6 10 -12 32 -14 49 -3 16 -8 35 -13 42 -5 6 -12 25 -16 41 -4 17 -21 44 -38 61 -22 24 -28 38 -23 53 15 49 -174 163 -201 120 -3 -5 -40 -9 -83 -9 l-77 0 -51 -49 c-56 -54 -73 -79 -73 -109 0 -16 -47 -61 -54 -50 -1 2 -8 11 -15 21 -10 13 -11 20 -2 31 6 7 18 37 25 66 17 64 6 110 -39 160 -30 34 -31 38 -25 105 4 47 2 78 -6 95 -10 20 -10 37 1 85 8 33 15 86 15 117 0 31 5 60 10 63 16 10 5 70 -19 104 -32 44 -22 63 32 60 23 -1 51 1 62 6 22 10 75 59 75 71 0 4 6 12 14 18 12 9 12 27 -2 118 -14 99 -14 109 2 143 14 30 22 36 39 31 27 -7 57 19 58 53 2 21 3 19 8 -9 3 -19 18 -60 32 -90z m-1754 -291 c9 -9 8 -18 -3 -35 -9 -14 -13 -32 -9 -44 4 -12 2 -27 -5 -35 -6 -7 -13 -35 -16 -61 -2 -26 -15 -71 -29 -101 -14 -29 -23 -58 -20 -63 3 -5 0 -12 -6 -15 -5 -4 -8 -14 -4 -24 5 -12 3 -13 -6 -4 -6 6 -13 48 -15 95 -5 113 -9 128 -38 128 -14 0 -33 10 -43 23 -10 13 -24 26 -32 28 -11 4 -11 7 1 19 8 8 17 23 21 33 7 19 52 24 62 7 9 -15 35 7 35 30 0 9 3 20 7 23 11 11 88 8 100 -4z m291 -209 c29 -18 32 -24 32 -69 0 -28 5 -53 10 -56 17 -10 11 -108 -10 -171 -11 -32 -20 -68 -20 -79 0 -12 -18 -39 -41 -60 -22 -22 -48 -53 -56 -70 -9 -16 -27 -43 -40 -59 -28 -34 -55 -95 -47 -107 3 -5 -6 -23 -20 -40 -20 -23 -24 -37 -19 -57 19 -76 95 -149 128 -122 7 6 38 14 67 17 63 6 97 -12 83 -43 -5 -10 -9 -24 -10 -30 0 -6 -8 -22 -17 -36 -10 -14 -15 -36 -13 -47 2 -12 0 -19 -6 -16 -13 8 -71 -55 -65 -70 9 -24 -43 -60 -72 -51 -18 6 -63 -34 -75 -66 -3 -9 -30 -28 -59 -41 -59 -27 -72 -40 -81 -78 -4 -16 -29 -42 -68 -70 -60 -43 -81 -71 -72 -96 3 -7 11 -13 19 -13 26 0 14 -16 -18 -25 -18 -6 -37 -19 -43 -30 -6 -12 -21 -21 -38 -22 -26 -2 -28 1 -23 22 3 13 1 27 -4 30 -6 4 -7 12 -3 18 4 7 6 38 4 70 -3 64 13 149 36 185 8 13 12 26 9 30 -4 3 4 16 15 28 18 19 20 26 9 39 -9 11 -10 18 -1 29 6 7 9 21 5 30 -3 9 0 26 8 39 8 12 18 48 22 80 8 69 44 178 63 192 8 6 13 15 12 20 -1 6 2 19 6 29 11 26 -26 90 -54 94 -29 5 -151 -84 -151 -110 0 -5 -13 -27 -30 -50 -16 -22 -30 -49 -30 -58 0 -9 -20 -37 -45 -62 -25 -25 -45 -55 -45 -67 0 -12 -6 -21 -13 -21 -20 0 -45 -31 -49 -60 -2 -15 -11 -26 -23 -29 -11 -2 -33 -14 -48 -27 -20 -17 -41 -24 -70 -24 -48 0 -79 13 -53 23 11 4 13 15 9 41 -3 22 -2 36 5 36 14 0 63 107 56 124 -3 7 2 19 11 26 8 7 15 16 15 21 0 5 15 30 34 56 19 27 42 72 51 101 13 38 22 52 36 52 10 0 23 8 28 18 5 9 33 35 61 57 28 22 66 63 84 90 43 63 121 135 148 135 34 0 69 47 75 102 5 39 11 51 28 58 13 5 42 32 66 61 87 103 121 138 142 145 12 4 32 17 44 30 27 29 67 31 111 4z m299 -231 c-11 -22 -26 -43 -34 -46 -7 -3 -21 -19 -29 -35 -14 -27 -34 -30 -34 -5 0 18 100 138 109 132 5 -2 -1 -23 -12 -46z m656 32 c31 -12 34 -29 11 -77 -16 -33 -15 -37 5 -86 26 -63 26 -85 1 -106 -16 -13 -22 -33 -27 -87 -5 -66 -4 -71 21 -94 15 -15 44 -27 69 -30 33 -5 42 -10 42 -26 0 -26 -22 -62 -62 -100 -32 -29 -33 -32 -35 -127 -1 -89 1 -100 21 -122 27 -29 38 -129 16 -149 -65 -56 -104 -97 -109 -113 -3 -10 -17 -32 -30 -49 l-24 -30 -13 27 c-9 22 -9 30 0 42 7 8 15 48 17 88 4 59 1 82 -15 119 -21 47 -36 59 -71 59 -28 0 -70 -21 -70 -35 0 -7 -11 -20 -25 -29 -13 -9 -32 -30 -40 -47 -15 -29 -26 -42 -79 -99 -34 -36 -56 -84 -50 -107 3 -12 1 -24 -5 -27 -6 -4 -11 -15 -11 -24 0 -9 -11 -27 -24 -40 -14 -12 -32 -43 -42 -67 -18 -47 -38 -58 -49 -25 -7 21 15 70 51 113 27 32 29 49 12 76 -9 15 -8 24 5 45 9 14 17 32 17 41 0 9 9 42 20 75 18 54 19 63 6 102 -8 24 -17 95 -21 158 -5 76 -12 123 -22 139 -11 17 -14 39 -10 77 3 30 2 56 -2 59 -7 4 -24 113 -25 167 -1 9 -4 19 -7 23 -4 3 5 28 19 55 24 47 27 49 66 48 23 0 70 2 106 5 36 4 68 7 73 7 4 0 15 8 25 18 10 9 27 22 38 28 28 16 64 73 64 103 0 25 2 26 68 29 37 2 80 -2 95 -7z m-773 -238 c-42 -54 -12 -125 59 -139 25 -5 29 -9 20 -20 -20 -24 -44 -15 -82 28 -27 30 -37 52 -37 75 0 18 5 33 11 33 5 0 7 5 4 11 -8 13 24 51 37 43 4 -3 -1 -17 -12 -31z m-60 -625 c23 -16 32 -19 43 -9 11 9 17 8 27 -4 15 -18 41 -20 57 -4 16 16 11 -27 -5 -58 -7 -12 -9 -28 -6 -36 3 -8 -2 -21 -10 -30 -9 -9 -16 -25 -16 -37 0 -15 -8 -22 -30 -26 -35 -7 -36 -11 -13 -36 16 -17 15 -20 -4 -46 -35 -48 -100 -34 -86 18 4 14 -1 22 -17 28 -19 7 -22 17 -26 91 -3 52 -1 87 6 96 6 7 10 17 8 21 -5 18 14 54 28 54 8 0 28 -10 44 -22z"/>
 </g>
<g id="layer113" fill="#ae6a56" stroke="none">
 <path d="M0 3080 l0 -3080 6750 0 6750 0 0 3080 0 3080 -6750 0 -6750 0 0 -3080z m7872 695 c6 -16 19 -48 28 -70 27 -62 43 -122 36 -134 -4 -6 0 -21 8 -33 17 -24 21 -73 7 -82 -7 -5 -8 -60 -1 -76 1 -3 2 -9 1 -13 -3 -15 40 -77 52 -77 16 0 61 -106 53 -125 -4 -11 26 -47 99 -119 58 -56 105 -108 105 -114 0 -7 9 -21 20 -32 11 -11 20 -30 20 -43 0 -13 6 -29 13 -35 20 -21 19 -373 -2 -439 -9 -29 -22 -58 -28 -64 -17 -17 -32 -2 -32 34 1 41 -25 103 -63 146 -24 27 -29 40 -24 63 5 24 0 35 -27 59 -17 16 -51 41 -75 54 -34 19 -48 22 -74 14 -18 -5 -67 -9 -109 -9 l-75 0 -51 -49 c-56 -54 -73 -79 -73 -109 0 -21 -58 -65 -73 -55 -13 8 -1 81 19 121 20 42 14 73 -28 146 -31 53 -33 60 -28 124 4 44 2 76 -6 92 -10 20 -10 37 1 85 8 33 15 86 15 117 0 31 4 59 9 62 16 10 5 72 -18 105 -32 44 -22 63 32 60 23 -1 51 1 62 6 22 10 75 59 75 71 0 4 6 12 14 18 12 9 12 27 -2 118 -14 99 -14 109 2 143 14 30 22 36 39 31 28 -7 57 20 58 53 1 20 2 21 6 6 2 -11 9 -33 15 -50z m-1744 -335 c21 -20 21 -39 0 -66 -4 -6 -6 -19 -2 -28 3 -9 1 -23 -5 -30 -7 -8 -14 -36 -17 -62 -2 -26 -15 -71 -29 -101 -14 -29 -23 -58 -20 -62 3 -5 1 -20 -4 -33 l-9 -23 -11 29 c-6 15 -11 58 -10 95 2 87 -6 111 -36 111 -13 0 -32 11 -42 23 -10 13 -24 26 -32 28 -11 4 -11 7 1 19 8 8 17 23 21 33 7 19 52 24 62 7 10 -16 37 9 33 29 -4 20 30 50 58 51 11 0 30 -9 42 -20z m300 -220 c24 -15 32 -27 32 -49 0 -17 4 -32 8 -35 18 -11 13 -151 -7 -211 -11 -33 -21 -68 -21 -79 0 -10 -23 -43 -51 -73 -27 -31 -48 -62 -45 -69 3 -8 -6 -21 -19 -30 -14 -9 -25 -23 -25 -30 0 -8 -5 -14 -10 -14 -11 0 -30 -43 -34 -75 -1 -11 -9 -34 -19 -52 -29 -54 -17 -98 38 -149 22 -20 35 -25 59 -20 89 16 131 17 150 3 14 -10 17 -19 11 -33 -5 -10 -9 -24 -10 -30 0 -6 -8 -22 -17 -35 -9 -15 -14 -36 -11 -52 4 -20 1 -27 -9 -27 -24 0 -70 -41 -64 -56 9 -23 -30 -54 -66 -54 -33 0 -68 -27 -80 -61 -4 -9 -31 -29 -62 -44 -48 -24 -59 -34 -80 -81 -14 -30 -30 -54 -36 -54 -6 0 -31 -14 -56 -30 -45 -32 -51 -52 -25 -84 16 -19 17 -17 -31 -40 -21 -9 -38 -22 -38 -29 0 -7 -14 -12 -31 -13 -27 -1 -30 2 -25 21 3 12 3 25 -1 28 -3 4 -5 42 -4 86 2 83 21 172 42 197 6 8 9 17 5 21 -3 3 1 14 10 24 13 14 13 22 4 39 -9 16 -9 29 -2 44 6 11 13 32 15 46 21 112 75 270 97 287 8 6 12 15 8 19 -4 4 -3 13 2 19 12 14 -22 105 -39 105 -31 0 -113 -51 -127 -79 -6 -12 -23 -34 -37 -49 -14 -15 -31 -48 -38 -75 -9 -37 -20 -54 -49 -74 -21 -15 -43 -42 -49 -60 -7 -19 -25 -40 -41 -48 -19 -10 -30 -24 -32 -42 -2 -18 -10 -29 -23 -32 -11 -2 -33 -14 -48 -27 -20 -17 -41 -24 -70 -24 -48 0 -78 13 -53 23 12 5 14 14 9 37 -4 21 -1 35 9 43 9 7 23 39 33 72 22 79 28 91 74 149 22 27 47 73 56 102 9 30 21 54 27 54 13 0 124 93 160 134 15 17 28 36 28 43 0 20 123 133 145 133 38 1 65 35 72 90 5 41 11 53 28 60 13 5 42 32 66 61 87 103 121 138 142 145 12 4 32 17 44 30 27 29 67 31 111 4z m301 -227 c-11 -21 -30 -48 -43 -60 -14 -12 -27 -32 -31 -43 -8 -27 -25 -16 -25 17 0 15 12 36 30 53 17 15 30 32 30 38 0 12 42 41 51 36 4 -2 -2 -21 -12 -41z m677 13 c3 -14 -1 -39 -11 -60 -17 -35 -17 -38 4 -88 24 -58 27 -94 8 -101 -17 -6 -37 -74 -37 -125 0 -48 26 -72 76 -72 50 0 64 -9 64 -41 0 -42 -17 -71 -61 -101 l-39 -28 -2 -82 c-2 -112 -1 -119 23 -144 26 -27 35 -128 14 -147 -65 -56 -104 -97 -109 -113 -3 -10 -17 -32 -30 -48 l-23 -30 -12 23 c-10 18 -9 35 3 85 9 34 16 78 16 97 0 60 -51 119 -104 119 -27 0 -107 -75 -137 -129 -17 -31 -45 -68 -61 -83 -38 -34 -58 -71 -51 -96 2 -11 0 -23 -6 -26 -6 -4 -11 -15 -11 -24 0 -9 -11 -27 -24 -40 -14 -12 -32 -43 -42 -67 -18 -48 -39 -58 -49 -25 -4 14 4 40 26 78 26 46 33 70 35 125 2 44 10 83 24 113 29 58 30 144 3 175 -9 11 -13 35 -12 66 1 27 0 54 -4 59 -3 6 -8 64 -12 129 -7 131 -21 251 -35 303 -7 26 -4 41 17 80 36 68 42 73 65 61 11 -6 31 -8 44 -5 13 4 25 6 26 4 2 -1 13 4 26 11 17 9 27 9 36 1 22 -18 81 13 149 77 9 9 20 34 23 55 l7 38 88 0 c85 0 89 -1 95 -24z m-774 -173 c-3 -16 -13 -39 -23 -52 -29 -37 -25 -83 11 -109 16 -12 38 -22 48 -22 26 0 34 -11 21 -27 -20 -23 -45 -14 -83 27 -27 30 -36 49 -36 75 0 19 5 35 11 35 5 0 8 4 5 9 -9 13 33 89 50 91 1 0 -1 -12 -4 -27z m-88 -664 c16 -12 35 -19 46 -16 11 3 23 1 26 -5 4 -6 21 -8 39 -5 29 5 34 2 38 -19 2 -13 1 -27 -4 -30 -5 -3 -13 -23 -19 -44 -6 -22 -15 -40 -20 -40 -6 0 -10 -11 -10 -25 0 -20 -6 -27 -30 -31 -35 -7 -36 -11 -13 -36 16 -17 15 -20 -4 -46 -35 -48 -100 -34 -86 18 4 14 -1 22 -17 28 -19 7 -22 17 -27 95 -4 72 -1 94 16 132 11 25 24 45 29 45 5 0 21 -9 36 -21z"/>
 </g>
<g id="layer114" fill="#cb5c64" stroke="none">
 <path d="M0 3080 l0 -3080 6750 0 6750 0 0 3080 0 3080 -6750 0 -6750 0 0 -3080z m7872 695 c6 -16 19 -48 28 -70 27 -62 43 -122 36 -134 -4 -6 0 -21 8 -33 17 -24 21 -73 7 -82 -7 -5 -8 -60 -1 -76 1 -3 2 -9 1 -13 -3 -15 40 -77 52 -77 16 0 61 -106 53 -125 -4 -11 26 -47 99 -119 58 -56 105 -108 105 -114 0 -7 9 -21 20 -32 11 -11 20 -30 20 -43 0 -13 6 -29 13 -35 20 -21 19 -373 -2 -439 -9 -29 -22 -58 -28 -64 -17 -17 -32 -2 -32 34 1 41 -25 103 -63 146 -24 27 -29 40 -24 63 5 24 0 35 -27 59 -17 16 -51 41 -75 54 -34 19 -48 22 -74 14 -18 -5 -67 -9 -109 -9 l-75 0 -51 -49 c-56 -54 -73 -79 -73 -109 0 -21 -58 -65 -73 -55 -13 8 -1 81 19 121 20 42 14 73 -28 146 -31 53 -33 60 -28 124 4 44 2 76 -6 92 -10 20 -10 37 1 85 8 33 15 86 15 117 0 31 4 59 9 62 16 10 5 72 -18 105 -32 44 -22 63 32 60 23 -1 51 1 62 6 22 10 75 59 75 71 0 4 6 12 14 18 12 9 12 27 -2 118 -14 99 -14 109 2 143 14 30 22 36 39 31 28 -7 57 20 58 53 1 20 2 21 6 6 2 -11 9 -33 15 -50z m-1744 -335 c21 -20 21 -39 0 -66 -4 -6 -6 -19 -2 -28 3 -9 1 -23 -5 -30 -7 -8 -14 -36 -17 -62 -2 -26 -15 -71 -29 -101 -14 -29 -23 -58 -20 -62 3 -5 1 -20 -4 -33 l-9 -23 -11 28 c-6 16 -11 63 -10 105 1 80 -10 102 -52 102 -10 0 -24 8 -31 18 -7 11 -23 24 -36 31 -22 12 -23 14 -7 31 9 9 15 24 13 31 -2 11 7 13 37 11 22 -2 45 -8 51 -13 14 -11 38 14 32 33 -6 17 31 47 58 48 11 0 30 -9 42 -20z m300 -220 c24 -15 32 -27 32 -49 0 -17 4 -32 8 -35 18 -11 13 -151 -7 -211 -11 -33 -21 -68 -21 -79 0 -10 -23 -43 -51 -73 -27 -31 -48 -62 -45 -69 3 -8 -6 -21 -19 -30 -14 -9 -25 -23 -25 -30 0 -8 -5 -14 -10 -14 -11 0 -30 -43 -34 -75 -1 -11 -9 -34 -19 -52 -29 -54 -17 -98 38 -149 22 -20 35 -25 59 -20 89 16 131 17 150 3 14 -10 17 -19 11 -33 -5 -10 -9 -24 -10 -30 0 -6 -8 -22 -17 -35 -9 -15 -14 -36 -11 -52 4 -20 1 -27 -9 -27 -24 0 -70 -41 -64 -56 9 -23 -30 -54 -66 -54 -33 0 -68 -27 -80 -61 -4 -9 -31 -29 -62 -44 -48 -24 -59 -34 -80 -81 -14 -30 -30 -54 -36 -54 -6 0 -31 -14 -56 -30 -45 -32 -51 -52 -25 -84 16 -19 17 -17 -31 -40 -21 -9 -38 -22 -38 -29 0 -7 -14 -12 -31 -13 -27 -1 -30 2 -25 21 3 12 3 25 -1 28 -3 4 -5 42 -4 86 2 83 21 172 42 197 6 8 9 17 5 21 -3 3 1 14 10 24 13 14 13 22 4 39 -9 16 -9 29 -2 44 6 11 13 32 15 46 21 112 75 270 97 287 8 6 12 15 8 19 -4 4 -3 13 2 19 12 14 -22 105 -39 105 -31 0 -113 -51 -127 -79 -6 -12 -23 -34 -37 -49 -14 -15 -31 -48 -38 -75 -9 -37 -20 -54 -49 -74 -21 -15 -43 -42 -49 -60 -7 -19 -25 -40 -41 -48 -19 -10 -30 -24 -32 -42 -2 -18 -10 -29 -23 -32 -11 -2 -33 -14 -48 -27 -20 -17 -41 -24 -70 -24 -48 0 -78 13 -53 23 12 5 14 14 9 37 -4 21 -1 35 9 43 9 7 23 39 33 72 22 79 28 91 74 149 22 27 47 73 56 102 9 30 21 54 27 54 13 0 124 93 160 134 15 17 28 36 28 43 0 20 123 133 145 133 38 1 65 35 72 90 5 41 11 53 28 60 13 5 42 32 66 61 87 103 121 138 142 145 12 4 32 17 44 30 27 29 67 31 111 4z m301 -227 c-11 -21 -30 -48 -43 -60 -14 -12 -27 -32 -31 -43 -8 -27 -25 -16 -25 17 0 15 12 36 30 53 17 15 30 32 30 38 0 12 42 41 51 36 4 -2 -2 -21 -12 -41z m677 13 c3 -14 -1 -39 -11 -60 -17 -35 -17 -38 4 -88 24 -58 27 -94 8 -101 -17 -6 -37 -74 -37 -125 0 -48 26 -72 76 -72 50 0 64 -9 64 -41 0 -42 -17 -71 -61 -101 l-39 -28 -2 -82 c-2 -112 -1 -119 23 -144 26 -27 35 -128 14 -147 -65 -56 -104 -97 -109 -113 -3 -10 -17 -32 -30 -48 l-23 -30 -12 23 c-10 18 -9 35 3 85 9 34 16 78 16 97 0 60 -51 119 -104 119 -27 0 -107 -75 -137 -129 -17 -31 -45 -68 -61 -83 -38 -34 -58 -71 -51 -96 2 -11 0 -23 -6 -26 -6 -4 -11 -15 -11 -24 0 -9 -11 -27 -24 -40 -14 -12 -32 -43 -42 -67 -18 -48 -39 -58 -49 -25 -4 14 4 40 26 78 26 46 33 70 35 125 2 44 10 83 24 113 29 58 30 144 3 175 -9 11 -13 35 -12 66 1 27 0 54 -4 59 -3 6 -8 64 -12 129 -7 131 -21 251 -35 303 -7 26 -4 41 17 80 36 68 42 73 65 61 11 -6 31 -8 44 -5 13 4 25 6 26 4 2 -1 13 4 26 11 17 9 27 9 36 1 22 -18 81 13 149 77 9 9 20 34 23 55 l7 38 88 0 c85 0 89 -1 95 -24z m-774 -173 c-3 -16 -13 -39 -23 -52 -29 -37 -25 -83 11 -109 16 -12 38 -22 48 -22 26 0 34 -11 21 -27 -20 -23 -45 -14 -83 27 -27 30 -36 49 -36 75 0 19 5 35 11 35 5 0 8 4 5 9 -9 13 33 89 50 91 1 0 -1 -12 -4 -27z m-88 -664 c16 -12 35 -19 46 -16 11 3 23 1 26 -5 4 -6 21 -8 39 -5 29 5 34 2 38 -19 2 -13 1 -27 -4 -30 -5 -3 -13 -23 -19 -44 -6 -22 -15 -40 -20 -40 -6 0 -10 -11 -10 -25 0 -20 -6 -27 -30 -31 -35 -7 -36 -11 -13 -36 16 -17 15 -20 -4 -46 -35 -48 -100 -34 -86 18 4 14 -1 22 -17 28 -19 7 -22 17 -27 95 -4 72 -1 94 16 132 11 25 24 45 29 45 5 0 21 -9 36 -21z"/>
 </g>
<g id="layer115" fill="#b5736e" stroke="none">
 <path d="M0 3080 l0 -3080 6750 0 6750 0 0 3080 0 3080 -6750 0 -6750 0 0 -3080z m7883 680 c15 -23 33 -80 59 -185 5 -22 11 -78 12 -125 3 -81 24 -150 46 -150 14 0 62 -113 56 -133 -3 -13 30 -53 121 -144 89 -88 127 -133 129 -152 1 -14 7 -44 13 -66 16 -61 12 -360 -5 -412 -8 -24 -12 -47 -9 -52 3 -5 -2 -17 -11 -26 -22 -22 -42 -3 -48 45 -2 19 -12 49 -20 65 -9 17 -16 34 -16 39 0 4 -11 21 -25 38 -14 16 -25 42 -25 58 0 37 -44 88 -95 111 -33 14 -59 16 -155 11 l-115 -5 -48 -54 c-26 -30 -50 -68 -54 -84 -6 -31 -68 -83 -86 -72 -12 7 -1 91 17 135 12 29 12 38 -6 83 -11 27 -26 61 -35 74 -11 17 -15 45 -14 90 1 36 -3 80 -8 97 -6 21 -5 51 4 90 7 33 16 104 19 158 4 89 3 102 -15 128 -30 42 -19 61 34 56 54 -5 78 8 123 67 l37 48 -13 113 c-12 102 -12 115 4 138 9 15 26 26 38 26 28 0 58 27 59 54 1 15 3 12 8 -9 4 -17 15 -42 24 -55z m-1743 -318 c21 -17 21 -19 7 -52 -8 -19 -23 -71 -32 -115 -10 -44 -26 -102 -36 -130 -10 -27 -22 -66 -27 -85 l-9 -35 -13 30 c-6 17 -13 68 -13 115 l-2 85 -34 11 c-19 6 -39 18 -45 26 -6 8 -21 20 -34 27 -22 12 -23 14 -7 31 9 9 15 24 13 31 -3 14 10 15 77 7 26 -3 30 0 30 20 1 49 80 70 125 34z m288 -222 c24 -15 32 -27 32 -49 0 -17 3 -32 8 -35 17 -11 13 -146 -7 -214 -11 -37 -22 -78 -25 -92 -3 -14 -23 -46 -46 -70 -22 -25 -40 -49 -40 -55 0 -5 -12 -23 -26 -40 -30 -34 -65 -105 -58 -117 3 -5 -6 -22 -20 -39 -33 -39 -33 -71 1 -115 41 -55 70 -66 137 -52 38 8 64 9 83 2 25 -9 28 -15 26 -49 -2 -21 -10 -49 -18 -61 -8 -13 -15 -35 -15 -49 0 -14 -6 -25 -14 -25 -22 0 -68 -41 -62 -56 8 -22 -30 -54 -63 -54 -23 0 -38 -11 -70 -49 -23 -27 -60 -58 -84 -69 -32 -15 -50 -33 -70 -69 -17 -33 -42 -60 -73 -79 -55 -34 -69 -61 -45 -88 15 -17 15 -19 -4 -30 -10 -6 -32 -23 -48 -38 -17 -17 -40 -28 -56 -28 -25 0 -28 3 -23 25 3 17 -1 30 -13 39 -16 12 -16 13 -1 19 13 5 16 21 16 74 0 58 25 182 47 233 4 8 8 41 9 72 1 31 10 67 18 81 9 13 16 34 15 48 -1 54 37 175 66 209 26 30 28 78 5 115 -12 19 -25 35 -28 35 -4 -1 -28 -15 -53 -33 -72 -51 -126 -117 -140 -170 -8 -33 -21 -54 -40 -68 -16 -11 -40 -40 -54 -63 -14 -24 -36 -48 -49 -54 -16 -7 -26 -21 -28 -39 -2 -18 -10 -29 -23 -32 -11 -2 -33 -14 -48 -27 -20 -17 -41 -24 -70 -24 -46 0 -76 13 -58 24 6 4 11 20 11 35 0 15 14 55 30 89 17 34 30 71 30 82 0 11 13 34 28 52 48 57 70 92 87 145 14 42 25 56 64 81 61 40 151 128 151 149 0 8 20 33 44 55 25 21 48 48 51 58 5 14 16 20 38 20 49 1 77 30 84 90 5 40 11 54 27 60 31 12 134 130 148 170 3 9 23 24 44 35 22 11 50 28 63 38 31 22 68 22 109 -3z m969 -196 c17 -23 16 -39 -3 -80 -16 -33 -15 -37 5 -86 26 -64 26 -82 -1 -118 -15 -20 -23 -49 -26 -89 -4 -52 -2 -60 19 -75 13 -9 38 -16 55 -16 50 0 64 -9 64 -41 0 -42 -17 -71 -61 -101 l-39 -28 0 -88 c0 -69 4 -96 20 -127 28 -55 35 -139 12 -160 -62 -56 -95 -97 -117 -142 -14 -29 -31 -53 -39 -53 -22 0 -27 56 -11 117 20 77 19 122 -5 161 -19 30 -54 52 -84 52 -29 0 -107 -75 -141 -136 -20 -35 -40 -64 -45 -64 -14 0 -60 -84 -60 -109 0 -28 -16 -59 -46 -89 -13 -13 -31 -44 -40 -68 -18 -47 -39 -57 -49 -24 -4 14 4 40 26 78 27 48 33 69 35 133 2 48 11 92 24 120 24 53 25 94 5 144 -9 20 -15 58 -14 84 1 26 0 52 -4 57 -3 6 -8 64 -12 129 -7 133 -21 251 -36 307 -8 31 -6 45 12 82 28 59 42 71 69 56 13 -7 33 -9 48 -4 15 4 34 9 42 11 8 3 35 5 60 6 32 2 55 10 77 27 38 31 73 89 73 122 0 14 2 27 5 29 2 3 41 4 87 3 65 -2 85 -6 95 -20z m-655 11 c6 -7 -24 -70 -45 -94 -24 -27 -67 -111 -67 -129 0 -10 -7 -27 -15 -38 -19 -26 -19 -73 2 -96 9 -10 20 -18 24 -18 4 0 20 -5 34 -10 23 -9 25 -13 15 -25 -7 -8 -20 -15 -29 -15 -25 0 -101 78 -101 104 0 13 16 53 35 90 19 37 35 81 35 98 0 20 9 39 30 58 17 15 30 31 30 36 0 10 31 44 40 44 4 0 9 -2 12 -5z m-195 -861 c9 -8 25 -14 37 -13 11 2 31 -3 44 -10 12 -6 31 -9 41 -6 14 4 20 -1 23 -20 3 -14 2 -28 -3 -31 -5 -3 -13 -23 -19 -44 -6 -22 -15 -40 -20 -40 -6 0 -10 -11 -10 -25 0 -20 -6 -27 -30 -31 -35 -7 -36 -11 -13 -36 16 -17 15 -20 -4 -46 -35 -48 -100 -34 -86 18 4 14 -1 22 -17 28 -19 7 -22 17 -27 95 -4 72 -1 94 16 132 21 48 41 56 68 29z"/>
 </g>
<g id="layer116" fill="#c2867a" stroke="none">
 <path d="M0 3080 l0 -3080 6750 0 6750 0 0 3080 0 3080 -6750 0 -6750 0 0 -3080z m7883 680 c16 -24 40 -104 57 -185 5 -22 13 -53 19 -68 8 -20 8 -34 0 -49 -18 -34 14 -158 41 -158 14 0 62 -113 56 -133 -3 -13 30 -53 121 -144 89 -88 127 -133 129 -152 1 -14 7 -44 13 -66 16 -61 12 -360 -5 -412 -8 -24 -12 -47 -9 -52 3 -5 -2 -17 -11 -26 -22 -22 -42 -3 -48 45 -2 19 -12 49 -20 65 -9 17 -16 34 -16 39 0 4 -11 21 -25 38 -14 16 -25 42 -25 58 0 37 -44 88 -95 111 -33 14 -59 16 -155 11 l-115 -5 -48 -54 c-26 -30 -50 -68 -54 -84 -6 -31 -68 -83 -86 -72 -12 7 -1 91 17 135 12 29 12 38 -6 83 -11 27 -26 61 -35 74 -11 17 -15 45 -14 90 1 36 -3 80 -8 97 -6 21 -5 51 4 90 7 33 16 104 19 158 4 89 3 102 -15 128 -30 42 -19 61 34 56 49 -5 79 11 128 73 l32 41 -13 113 c-12 103 -12 116 4 139 9 15 26 26 38 26 28 0 58 27 59 54 1 15 3 12 8 -9 4 -17 15 -42 24 -55z m-1743 -318 c21 -17 21 -19 7 -52 -8 -19 -23 -71 -32 -115 -10 -44 -26 -102 -36 -130 -10 -27 -22 -66 -27 -85 l-9 -35 -13 30 c-7 17 -11 64 -10 106 1 78 -10 104 -43 97 -13 -3 -75 45 -91 70 -4 6 -2 19 3 29 5 10 12 26 15 36 4 14 10 16 23 8 10 -5 34 -11 53 -12 31 -4 35 -1 35 19 1 49 80 70 125 34z m288 -222 c24 -15 32 -27 32 -49 0 -17 3 -32 8 -35 17 -11 13 -146 -7 -214 -11 -37 -22 -78 -25 -92 -3 -14 -23 -46 -46 -70 -22 -25 -40 -49 -40 -55 0 -5 -12 -23 -26 -40 -30 -34 -65 -105 -58 -117 3 -5 -6 -22 -20 -39 -33 -39 -33 -71 1 -115 41 -55 70 -66 137 -52 38 8 64 9 83 2 25 -9 28 -15 26 -49 -2 -21 -10 -49 -18 -61 -8 -13 -15 -35 -15 -49 0 -14 -6 -25 -14 -25 -22 0 -68 -41 -62 -56 8 -22 -30 -54 -63 -54 -23 0 -38 -11 -70 -49 -23 -27 -60 -58 -84 -69 -32 -15 -50 -33 -70 -69 -17 -33 -42 -60 -73 -79 -55 -34 -69 -61 -45 -88 15 -17 15 -19 -4 -30 -10 -6 -32 -23 -48 -38 -17 -17 -40 -28 -56 -28 -25 0 -28 3 -23 25 3 17 -1 30 -13 39 -16 12 -16 13 -1 19 13 5 16 21 16 74 0 58 25 182 47 233 4 8 8 41 9 72 1 31 10 67 18 81 9 13 16 34 15 48 -1 54 37 175 66 209 26 30 28 78 5 115 -12 19 -25 35 -28 35 -4 -1 -28 -15 -53 -33 -72 -51 -126 -117 -140 -170 -8 -33 -21 -54 -40 -68 -16 -11 -40 -40 -54 -63 -14 -24 -36 -48 -49 -54 -16 -7 -26 -21 -28 -39 -2 -18 -10 -29 -23 -32 -11 -2 -33 -14 -48 -27 -20 -17 -41 -24 -70 -24 -46 0 -76 13 -58 24 6 4 11 20 11 35 0 15 14 55 30 89 17 34 30 71 30 82 0 11 13 34 28 52 48 57 70 92 87 145 14 42 25 56 64 81 61 40 151 128 151 149 0 8 20 33 44 55 25 21 48 48 51 58 5 14 16 20 38 20 49 1 77 30 84 90 5 40 11 53 27 60 28 10 88 77 126 139 18 29 44 55 67 67 21 10 49 27 62 37 31 22 68 22 109 -3z m969 -196 c17 -23 16 -39 -3 -80 -16 -33 -15 -37 5 -86 26 -64 26 -82 -1 -118 -15 -20 -23 -49 -26 -89 -4 -52 -2 -60 19 -75 13 -9 38 -16 55 -16 50 0 64 -9 64 -41 0 -42 -17 -71 -61 -101 l-39 -28 0 -88 c0 -69 4 -96 20 -127 28 -55 35 -139 12 -160 -62 -56 -95 -97 -117 -142 -14 -29 -31 -53 -39 -53 -22 0 -27 56 -11 117 20 77 19 122 -5 161 -19 30 -54 52 -84 52 -29 0 -107 -75 -141 -136 -20 -35 -40 -64 -45 -64 -14 0 -60 -84 -60 -109 0 -28 -16 -59 -46 -89 -13 -13 -31 -44 -40 -68 -18 -47 -39 -57 -49 -24 -4 14 4 40 26 78 27 48 33 69 35 133 2 48 11 92 24 120 24 53 25 94 5 144 -9 20 -15 58 -14 84 1 26 0 52 -4 57 -3 6 -8 64 -12 129 -7 133 -21 251 -36 307 -8 31 -6 45 12 82 28 59 42 71 69 56 13 -7 33 -9 48 -4 15 4 34 9 42 11 8 3 35 5 60 6 32 2 55 10 77 27 38 31 73 89 73 122 0 14 2 27 5 29 2 3 41 4 87 3 65 -2 85 -6 95 -20z m-655 11 c6 -7 -24 -70 -45 -94 -24 -27 -67 -111 -67 -129 0 -10 -7 -27 -15 -38 -19 -26 -19 -73 2 -96 9 -10 20 -18 24 -18 4 0 20 -5 34 -10 23 -9 25 -13 15 -25 -7 -8 -20 -15 -29 -15 -25 0 -101 78 -101 104 0 13 16 53 35 90 19 37 35 81 35 98 0 20 9 39 30 58 17 15 30 31 30 36 0 10 31 44 40 44 4 0 9 -2 12 -5z m-195 -861 c9 -8 25 -14 37 -13 11 2 31 -3 44 -10 12 -6 31 -9 41 -6 14 4 20 -1 23 -20 3 -14 2 -28 -3 -31 -5 -3 -13 -23 -19 -44 -6 -22 -15 -40 -20 -40 -6 0 -10 -11 -10 -25 0 -20 -6 -27 -30 -31 -35 -7 -36 -11 -14 -35 15 -17 15 -20 0 -44 -37 -56 -104 -54 -93 2 3 16 -2 28 -15 37 -31 22 -37 169 -9 231 21 48 41 56 68 29z"/>
 </g>
<g id="layer117" fill="#d9cccb" stroke="none">
 <path d="M0 3080 l0 -3080 6750 0 6750 0 0 3080 0 3080 -6750 0 -6750 0 0 -3080z m7883 680 c16 -24 40 -104 57 -185 5 -22 13 -53 19 -68 8 -20 8 -34 0 -49 -18 -34 14 -158 41 -158 14 0 62 -113 56 -133 -3 -13 30 -53 121 -144 89 -88 127 -133 129 -152 1 -14 7 -44 13 -66 16 -61 12 -360 -5 -412 -8 -24 -12 -47 -9 -52 3 -5 -2 -17 -11 -26 -22 -22 -42 -3 -48 45 -2 19 -12 49 -20 65 -9 17 -16 34 -16 39 0 4 -11 21 -25 38 -14 16 -25 42 -25 58 0 37 -44 88 -95 111 -33 14 -59 16 -155 11 l-115 -5 -48 -54 c-26 -30 -50 -68 -54 -84 -6 -31 -68 -83 -86 -72 -12 7 -1 91 17 135 12 29 12 38 -6 83 -11 27 -26 61 -35 74 -11 17 -15 45 -14 90 1 36 -3 80 -8 97 -6 21 -5 51 4 90 7 33 16 104 19 158 4 89 3 102 -15 128 -29 39 -19 58 30 58 58 0 84 13 126 65 l38 46 -13 114 c-12 103 -12 116 4 139 9 15 26 26 38 26 28 0 58 27 59 54 1 15 3 12 8 -9 4 -17 15 -42 24 -55z m-1743 -318 c21 -17 21 -19 7 -52 -8 -19 -23 -71 -32 -115 -10 -44 -26 -102 -36 -130 -10 -27 -22 -66 -27 -85 l-9 -35 -13 30 c-7 17 -11 59 -10 93 2 71 -15 102 -57 102 -15 0 -27 8 -32 23 -5 12 -19 30 -30 39 -22 19 -25 36 -15 87 7 32 22 39 42 19 6 -6 28 -17 47 -24 30 -10 37 -10 42 1 2 8 2 18 -1 24 -10 15 35 41 70 41 18 0 42 -8 54 -18z m288 -222 c24 -15 32 -27 32 -49 0 -17 3 -32 8 -35 17 -11 13 -146 -7 -214 -11 -37 -22 -78 -25 -92 -3 -14 -23 -46 -46 -70 -22 -25 -40 -49 -40 -55 0 -5 -12 -23 -26 -40 -30 -34 -65 -105 -58 -117 3 -5 -6 -22 -20 -39 -33 -39 -33 -71 1 -115 41 -55 70 -66 137 -52 38 8 64 9 83 2 25 -9 28 -15 26 -49 -2 -21 -10 -49 -18 -61 -8 -13 -15 -35 -15 -49 0 -14 -6 -25 -14 -25 -22 0 -68 -41 -62 -56 8 -22 -30 -54 -63 -54 -23 0 -38 -11 -70 -49 -23 -27 -60 -58 -84 -69 -32 -15 -50 -33 -70 -69 -17 -33 -42 -60 -73 -79 -55 -34 -69 -61 -45 -88 15 -17 15 -19 -4 -30 -10 -6 -32 -23 -48 -38 -17 -17 -40 -28 -56 -28 -25 0 -28 3 -23 25 3 17 -1 30 -13 39 -16 12 -16 13 -1 19 13 5 16 21 16 74 0 58 25 182 47 233 4 8 8 41 9 72 1 31 10 67 18 81 9 13 16 34 15 48 -1 54 37 175 66 209 26 30 28 78 5 115 -12 19 -25 35 -28 35 -4 -1 -28 -15 -53 -33 -72 -51 -126 -117 -140 -170 -8 -33 -21 -54 -40 -68 -16 -11 -40 -40 -54 -63 -14 -24 -36 -48 -49 -54 -16 -7 -26 -21 -28 -39 -2 -18 -10 -29 -23 -32 -11 -2 -33 -14 -48 -27 -20 -17 -41 -24 -70 -24 -46 0 -76 13 -58 24 6 4 11 20 11 35 0 15 14 55 30 89 17 34 30 71 30 82 0 11 13 34 28 52 48 57 70 92 87 145 14 42 25 56 64 81 61 40 151 128 151 149 0 8 20 33 44 55 25 21 48 48 51 58 5 14 16 20 38 20 49 1 77 30 84 90 5 40 11 53 27 60 23 9 100 95 134 151 12 19 39 44 59 55 21 10 49 27 62 37 31 22 68 22 109 -3z m969 -196 c17 -23 16 -39 -3 -80 -16 -33 -15 -37 5 -86 26 -64 26 -82 -1 -118 -15 -20 -23 -49 -26 -89 -4 -52 -2 -60 19 -75 13 -9 38 -16 55 -16 50 0 64 -9 64 -41 0 -42 -17 -71 -61 -101 l-39 -28 0 -88 c0 -69 4 -96 20 -127 28 -55 35 -139 12 -160 -62 -56 -95 -97 -117 -142 -14 -29 -31 -53 -39 -53 -22 0 -27 56 -11 117 20 77 19 122 -5 161 -19 30 -54 52 -84 52 -29 0 -107 -75 -141 -136 -20 -35 -40 -64 -45 -64 -14 0 -60 -84 -60 -109 0 -28 -16 -59 -46 -89 -13 -13 -31 -44 -40 -68 -18 -47 -39 -57 -49 -24 -4 14 4 40 26 78 27 48 33 69 35 133 2 48 11 92 24 120 24 53 25 94 5 144 -9 20 -15 58 -14 84 1 26 0 52 -4 57 -3 6 -8 64 -12 129 -7 133 -21 251 -36 307 -8 31 -6 45 12 82 28 59 42 71 69 56 13 -7 33 -9 48 -4 15 4 34 9 42 11 8 3 35 5 60 6 32 2 55 10 77 27 38 31 73 89 73 122 0 14 2 27 5 29 2 3 41 4 87 3 65 -2 85 -6 95 -20z m-655 11 c6 -7 -24 -70 -45 -94 -24 -27 -67 -111 -67 -129 0 -10 -7 -27 -15 -38 -19 -26 -19 -73 2 -96 9 -10 20 -18 24 -18 4 0 20 -5 34 -10 23 -9 25 -13 15 -25 -7 -8 -20 -15 -29 -15 -25 0 -101 78 -101 104 0 13 16 53 35 90 19 37 35 81 35 98 0 20 9 39 30 58 17 15 30 31 30 36 0 10 31 44 40 44 4 0 9 -2 12 -5z m-195 -861 c9 -8 25 -14 37 -13 11 2 31 -3 44 -10 12 -6 31 -9 41 -6 14 4 20 -1 23 -20 3 -14 2 -28 -3 -31 -5 -3 -13 -23 -19 -44 -6 -22 -15 -40 -20 -40 -6 0 -10 -11 -10 -25 0 -20 -6 -27 -30 -31 -35 -7 -36 -11 -14 -35 15 -17 15 -20 0 -44 -38 -58 -96 -54 -96 6 0 15 -7 32 -16 37 -12 7 -17 30 -21 95 -4 72 -1 94 16 132 21 48 41 56 68 29z"/>
 </g>
<g id="layer118" fill="#f1e0e1" stroke="none">
 <path d="M0 3080 l0 -3080 6750 0 6750 0 0 3080 0 3080 -6750 0 -6750 0 0 -3080z m7883 680 c16 -25 41 -106 58 -189 5 -25 16 -55 25 -69 14 -22 14 -25 -2 -43 -12 -14 -15 -28 -11 -57 7 -43 34 -102 47 -102 14 0 62 -113 56 -133 -3 -13 30 -53 121 -144 89 -88 127 -133 129 -152 1 -14 7 -44 13 -66 16 -61 12 -360 -5 -412 -8 -24 -12 -47 -9 -52 3 -5 -2 -17 -11 -26 -22 -22 -42 -3 -48 45 -2 19 -12 49 -20 65 -9 17 -16 34 -16 39 0 4 -11 21 -25 38 -14 16 -25 42 -25 58 0 37 -44 88 -95 111 -33 14 -59 16 -155 11 l-115 -5 -48 -54 c-26 -30 -50 -68 -54 -84 -6 -31 -68 -83 -86 -72 -12 7 -1 91 17 135 12 29 12 38 -6 83 -11 27 -26 61 -35 74 -11 17 -15 45 -14 90 1 36 -3 80 -8 97 -6 21 -5 51 4 90 7 33 16 104 19 158 4 89 3 102 -15 128 -29 39 -19 58 30 58 58 0 84 13 126 65 l38 46 -13 113 c-12 106 -12 115 6 145 13 22 26 31 44 31 31 0 50 16 51 45 1 13 3 10 8 -10 4 -17 15 -42 24 -55z m-1966 -324 c14 -21 32 -35 52 -39 45 -9 46 -9 46 14 1 46 82 66 125 31 21 -17 21 -19 7 -52 -8 -19 -23 -71 -32 -115 -10 -44 -26 -102 -36 -130 -10 -27 -22 -65 -25 -83 -6 -31 -8 -32 -23 -15 -12 13 -16 38 -16 97 0 84 -3 89 -58 101 -15 3 -31 13 -34 23 -4 9 -14 27 -24 40 -14 18 -18 40 -16 93 0 38 3 69 7 69 3 0 15 -15 27 -34z m511 -216 c24 -15 32 -27 32 -49 0 -17 3 -32 8 -35 17 -11 13 -146 -7 -214 -11 -37 -22 -78 -25 -92 -3 -14 -23 -46 -46 -70 -22 -25 -40 -49 -40 -55 0 -5 -12 -23 -26 -40 -30 -34 -65 -105 -58 -117 3 -5 -6 -22 -20 -39 -33 -39 -33 -71 1 -115 41 -55 70 -66 137 -52 38 8 64 9 83 2 25 -9 28 -15 26 -49 -2 -21 -10 -49 -18 -61 -8 -13 -15 -35 -15 -49 0 -14 -6 -25 -14 -25 -22 0 -68 -41 -62 -56 8 -22 -30 -54 -63 -54 -23 0 -38 -11 -70 -49 -23 -27 -60 -58 -84 -69 -32 -15 -50 -33 -69 -69 -18 -33 -44 -60 -76 -81 -53 -34 -69 -64 -46 -83 21 -17 17 -25 -21 -48 -19 -11 -35 -27 -35 -36 0 -11 -11 -15 -39 -15 -36 0 -38 2 -33 25 3 17 -1 30 -13 39 -16 12 -16 13 -1 19 13 5 16 21 16 74 0 58 25 182 47 233 4 8 8 41 9 72 1 31 10 67 18 81 9 13 16 34 15 48 -1 54 37 175 66 209 26 30 28 78 5 115 -12 19 -25 35 -28 35 -4 -1 -28 -15 -53 -33 -72 -51 -126 -117 -140 -170 -8 -33 -21 -54 -40 -68 -16 -11 -40 -40 -54 -63 -14 -24 -36 -48 -49 -54 -16 -7 -26 -21 -28 -39 -2 -18 -10 -29 -23 -32 -11 -2 -33 -14 -48 -27 -20 -17 -41 -24 -70 -24 -46 0 -76 13 -58 24 6 4 11 20 11 35 0 15 14 55 30 89 17 34 30 71 30 82 0 11 13 34 28 52 48 57 70 92 87 145 14 42 25 56 64 81 61 40 151 128 151 149 0 8 20 33 44 55 25 21 48 48 51 58 5 14 16 20 38 20 49 1 77 30 84 90 5 40 11 53 27 60 23 9 100 95 134 151 12 19 39 44 59 55 21 10 49 27 62 37 31 22 68 22 109 -3z m969 -196 c17 -23 16 -39 -3 -80 -16 -33 -15 -37 5 -86 26 -64 26 -82 -1 -118 -15 -20 -23 -49 -26 -89 -4 -52 -2 -60 19 -75 13 -9 38 -16 55 -16 50 0 64 -9 64 -41 0 -42 -17 -71 -61 -101 l-39 -28 0 -88 c0 -69 4 -96 20 -127 28 -55 35 -139 12 -160 -62 -56 -95 -97 -117 -142 -14 -29 -31 -53 -39 -53 -22 0 -27 56 -11 117 20 77 19 122 -5 161 -19 30 -54 52 -84 52 -29 0 -107 -75 -141 -136 -20 -35 -40 -64 -45 -64 -14 0 -60 -84 -60 -109 0 -28 -16 -59 -46 -89 -13 -13 -31 -44 -40 -68 -18 -47 -39 -57 -49 -24 -4 14 4 40 26 78 27 48 33 69 35 133 2 48 11 92 24 120 24 53 25 94 5 144 -9 20 -15 58 -14 84 1 26 0 52 -4 57 -3 6 -8 64 -12 129 -7 133 -21 251 -36 307 -8 31 -6 45 12 82 28 59 42 71 69 56 13 -7 33 -9 48 -4 15 4 34 9 42 11 8 3 35 5 60 6 32 2 55 10 77 27 38 31 73 89 73 122 0 14 2 27 5 29 2 3 41 4 87 3 65 -2 85 -6 95 -20z m-655 11 c6 -7 -24 -70 -45 -94 -24 -27 -67 -111 -67 -129 0 -10 -7 -27 -15 -38 -19 -26 -19 -73 2 -96 9 -10 20 -18 24 -18 4 0 20 -5 34 -10 23 -9 25 -13 15 -25 -7 -8 -20 -15 -29 -15 -25 0 -101 78 -101 104 0 13 16 53 35 90 19 37 35 81 35 98 0 20 9 39 30 58 17 15 30 31 30 36 0 10 31 44 40 44 4 0 9 -2 12 -5z m-195 -861 c9 -8 25 -14 37 -13 11 2 31 -3 44 -10 12 -6 31 -9 41 -6 14 4 20 -1 23 -20 3 -14 2 -28 -3 -31 -5 -3 -13 -23 -19 -44 -6 -22 -15 -40 -20 -40 -6 0 -10 -11 -10 -25 0 -20 -6 -27 -30 -31 -34 -7 -36 -11 -14 -35 18 -20 10 -40 -31 -79 -33 -31 -59 -18 -63 31 -2 19 -10 39 -18 46 -11 8 -17 36 -21 97 -4 70 -1 93 16 131 21 48 41 56 68 29z"/>
 </g>
<g id="layer119" fill="#ffffff" stroke="none">
 <path d="M0 3080 l0 -3080 6750 0 6750 0 0 3080 0 3080 -6750 0 -6750 0 0 -3080z m7883 689 c18 -10 67 -145 67 -185 0 -10 8 -40 17 -66 16 -45 16 -48 -1 -67 -14 -15 -17 -29 -12 -55 8 -41 34 -96 46 -96 10 0 60 -106 60 -127 0 -25 59 -101 103 -132 65 -47 84 -65 92 -90 3 -12 17 -26 30 -31 15 -6 22 -16 21 -32 -1 -13 3 -29 8 -37 17 -22 15 -464 -2 -484 -8 -9 -11 -20 -8 -25 6 -10 -21 -52 -34 -52 -12 0 -42 58 -37 68 3 4 0 18 -6 32 -5 14 -11 37 -12 52 -2 15 -14 41 -29 58 -14 18 -26 43 -26 56 0 36 -15 60 -50 78 -16 9 -42 22 -57 30 -22 11 -54 13 -141 9 l-113 -6 -49 -46 c-31 -29 -52 -58 -56 -78 -8 -39 -57 -88 -79 -79 -14 5 -16 15 -10 69 4 34 11 70 14 81 9 23 -13 110 -35 144 -12 19 -16 45 -15 94 1 37 -3 77 -9 89 -9 16 -9 32 0 68 7 25 16 100 20 166 7 110 6 122 -12 148 -28 39 -18 57 34 57 53 0 89 17 105 50 7 14 20 30 29 37 14 10 16 23 10 75 -20 189 -20 182 6 211 14 15 36 27 50 27 29 0 48 17 49 45 1 11 4 6 9 -14 5 -19 15 -38 23 -42z m-1965 -334 c15 -24 30 -35 46 -35 14 0 32 -3 42 -7 14 -5 16 -2 12 15 -8 30 25 52 78 52 34 0 45 -5 58 -25 16 -24 16 -27 -3 -53 -10 -15 -19 -39 -19 -52 1 -45 -24 -144 -53 -209 -16 -35 -29 -71 -29 -79 0 -13 -3 -12 -18 4 -15 16 -17 31 -14 87 5 78 -11 107 -60 107 -20 0 -31 6 -37 23 -5 12 -18 31 -30 41 -18 16 -21 30 -21 93 0 84 12 93 48 38z m510 -215 c24 -15 32 -27 32 -49 0 -35 25 -60 42 -43 17 17 28 15 28 -4 0 -9 -9 -18 -20 -21 -17 -5 -20 -14 -20 -67 0 -39 -5 -69 -15 -82 -8 -10 -15 -28 -15 -39 0 -40 -37 -121 -73 -160 -20 -22 -37 -44 -37 -50 0 -5 -12 -23 -26 -40 -38 -44 -56 -84 -50 -110 4 -16 -2 -33 -19 -53 -30 -36 -31 -50 -4 -102 28 -54 67 -74 117 -60 45 12 112 13 131 1 18 -12 5 -87 -20 -112 -21 -21 -25 -44 -9 -54 6 -3 10 -1 10 4 0 16 49 13 66 -4 8 -8 31 -14 50 -13 19 1 40 -4 46 -10 6 -6 23 -9 37 -6 23 5 26 2 28 -24 1 -17 -4 -36 -12 -42 -8 -7 -15 -23 -15 -36 0 -12 -5 -26 -11 -29 -5 -4 -14 -18 -19 -31 -6 -16 -20 -27 -40 -30 -36 -8 -36 -11 -8 -41 l22 -23 -29 -30 c-16 -16 -37 -32 -47 -36 -27 -8 -58 23 -58 57 0 18 -6 30 -18 33 -15 5 -17 18 -16 115 1 60 5 114 8 120 4 7 -1 11 -12 11 -27 0 -74 -39 -68 -56 8 -22 -30 -54 -63 -54 -23 0 -38 -11 -70 -49 -23 -27 -60 -58 -84 -69 -32 -15 -50 -33 -69 -69 -18 -32 -44 -60 -75 -80 -36 -23 -48 -38 -49 -57 -1 -17 3 -26 13 -26 25 0 11 -45 -14 -46 -27 -1 -53 -21 -53 -40 0 -10 -12 -14 -38 -14 -37 0 -38 1 -34 30 4 25 1 30 -17 30 -26 0 -28 16 -2 23 15 4 18 14 19 61 1 89 12 147 50 246 3 8 7 41 8 72 1 32 10 68 19 82 11 17 15 35 11 52 -4 14 -3 31 2 37 5 7 12 27 15 45 4 18 17 56 31 85 37 81 40 104 16 143 -12 19 -25 34 -29 34 -16 0 -89 -57 -128 -100 -26 -29 -46 -64 -56 -100 -10 -34 -28 -67 -46 -84 -16 -16 -34 -40 -40 -55 -6 -14 -24 -33 -40 -43 -17 -9 -31 -26 -33 -40 -2 -15 -11 -25 -28 -28 -14 -3 -41 -17 -60 -32 -32 -24 -39 -25 -80 -18 -25 5 -49 9 -55 10 -5 0 -2 7 9 15 14 11 17 22 13 45 -5 22 -3 32 8 36 8 4 12 10 10 15 -3 4 3 26 15 48 11 22 20 49 20 59 0 10 12 29 26 43 34 31 84 104 84 121 0 22 39 98 50 98 21 0 175 153 174 172 -1 13 16 33 48 55 33 24 51 45 55 64 6 33 7 33 33 17 17 -11 24 -9 46 14 20 20 27 37 28 74 2 31 8 49 17 53 31 12 131 107 152 144 12 22 41 50 64 63 23 14 47 31 53 39 18 21 79 18 118 -5z m967 -190 c19 -36 19 -44 -1 -86 -16 -33 -15 -37 5 -86 26 -64 26 -82 -1 -118 -15 -20 -23 -49 -26 -89 -4 -52 -2 -60 19 -75 14 -9 43 -16 71 -16 37 0 50 -4 58 -19 6 -12 6 -22 1 -25 -5 -3 -7 -14 -4 -24 5 -23 -33 -72 -56 -72 -10 0 -26 -9 -35 -19 -15 -17 -17 -35 -14 -113 3 -81 6 -96 27 -119 19 -20 25 -39 27 -85 4 -57 2 -60 -32 -92 -20 -18 -47 -40 -59 -48 -13 -8 -35 -39 -49 -69 -27 -58 -42 -73 -58 -57 -15 15 -15 68 1 144 11 57 11 75 0 114 -17 56 -30 68 -75 66 -51 -2 -112 -56 -152 -135 -19 -36 -42 -73 -53 -83 -10 -9 -19 -23 -19 -31 0 -7 -6 -16 -14 -19 -10 -4 -14 -19 -13 -43 1 -29 -7 -47 -40 -88 -23 -29 -47 -66 -54 -83 -8 -17 -20 -29 -28 -28 -26 5 -22 50 10 107 27 46 32 68 34 131 2 50 10 90 24 120 24 53 26 95 7 141 -8 19 -17 79 -21 134 -13 191 -35 406 -45 446 -9 34 -8 45 12 86 29 58 50 73 79 55 16 -11 24 -11 36 -1 8 7 44 13 82 13 56 1 72 5 98 26 45 36 76 95 70 130 -4 15 -3 30 0 34 4 3 44 6 89 6 82 0 84 0 99 -30z m-645 12 c0 -13 -35 -77 -57 -106 -11 -14 -24 -42 -27 -61 -4 -19 -11 -35 -16 -35 -6 0 -10 -11 -10 -23 0 -13 -9 -32 -20 -42 -25 -23 -26 -76 -2 -98 10 -10 21 -15 24 -12 3 3 17 1 32 -5 38 -14 33 -54 -7 -58 -21 -3 -37 5 -63 30 -19 18 -39 40 -44 49 -11 20 9 100 39 152 11 21 21 53 21 71 0 27 7 39 35 60 19 15 35 32 35 38 0 16 31 48 47 48 7 0 13 -4 13 -8z"/>
 </g>

</svg>