<!DOCTYPE svg PUBLIC "-//W3C//DTD SVG 20010904//EN" "http://www.w3.org/TR/2001/REC-SVG-20010904/DTD/svg10.dtd">
<svg version="1.0" xmlns="http://www.w3.org/2000/svg" width="1350px" height="616px" viewBox="0 0 13500 6160" preserveAspectRatio="xMidYMid meet">
<g id="layer101" fill="#ec1c24" stroke="none">
 <path d="M0 3080 l0 -3080 6750 0 6750 0 0 3080 0 3080 -6750 0 -6750 0 0 -3080z"/>
 </g>
<g id="layer102" fill="#bb7274" stroke="none">
 <path d="M0 3080 l0 -3080 6750 0 6750 0 0 3080 0 3080 -6750 0 -6750 0 0 -3080z m5150 683 c11 -13 17 -23 14 -23 -4 0 5 -9 20 -21 14 -11 24 -24 21 -29 -3 -5 7 -18 21 -29 15 -12 24 -21 21 -21 -3 0 4 -10 16 -22 13 -13 31 -34 40 -48 17 -23 19 -24 31 -7 11 15 15 15 25 3 7 -8 13 -24 14 -35 1 -12 5 -21 10 -21 4 0 5 -4 2 -10 -3 -5 -2 -10 3 -10 25 0 79 -71 67 -89 -3 -5 -1 -11 5 -13 5 -1 11 -13 13 -24 1 -12 11 -29 20 -38 16 -16 21 -30 18 -48 0 -5 4 -8 9 -8 10 0 27 -34 28 -54 0 -5 5 -12 12 -16 6 -4 12 -13 14 -21 1 -8 21 -34 44 -59 23 -24 39 -46 37 -48 -2 -2 0 -9 6 -16 29 -34 87 -131 83 -137 -2 -4 6 -16 19 -26 13 -10 25 -22 27 -28 2 -5 14 -18 27 -28 13 -10 23 -24 23 -32 0 -7 18 -28 40 -45 23 -18 39 -35 36 -37 -3 -3 21 -27 52 -55 31 -27 68 -64 82 -83 21 -27 29 -31 44 -23 15 8 16 12 5 19 -12 8 -11 12 4 23 25 19 21 34 -10 38 -26 3 -28 6 -27 47 1 35 6 49 27 65 14 12 29 35 33 51 4 17 12 33 18 38 8 5 7 9 -2 15 -13 9 -6 72 9 72 5 0 6 6 4 13 -3 6 10 28 28 47 28 31 32 42 32 93 0 38 5 61 14 66 9 6 11 18 7 34 -4 17 -1 31 9 41 17 16 20 36 6 36 -8 0 -24 37 -22 53 1 4 -4 7 -10 7 -6 0 -9 7 -5 15 3 8 1 15 -4 15 -16 0 -12 76 5 90 18 15 20 60 3 60 -9 0 -9 3 1 13 10 10 15 8 27 -7 8 -11 15 -30 15 -43 1 -13 2 -28 3 -33 2 -17 26 -28 47 -23 10 3 19 1 19 -5 0 -5 8 -9 18 -8 15 1 17 -11 20 -111 1 -66 -1 -113 -7 -113 -5 0 -7 -9 -4 -20 3 -11 1 -20 -3 -20 -10 0 -16 -34 -17 -94 -1 -25 5 -43 16 -51 20 -14 25 -105 6 -105 -8 0 -10 -19 -7 -57 4 -44 1 -67 -13 -95 -23 -45 -25 -107 -4 -134 11 -13 14 -14 13 -4 -2 11 8 16 34 18 35 3 38 0 54 -35 10 -21 18 -42 18 -48 1 -15 31 -12 31 2 0 21 54 65 71 59 8 -3 13 -10 10 -15 -3 -5 1 -12 9 -15 13 -4 13 -9 3 -25 -7 -11 -16 -18 -20 -15 -4 3 -5 -2 -2 -11 6 -14 8 -14 19 1 7 10 19 15 29 11 9 -4 16 -3 16 2 0 5 11 12 25 15 14 4 23 11 20 16 -3 5 3 15 13 22 11 7 19 18 18 23 -2 17 43 17 60 1 9 -9 11 -16 4 -16 -6 0 -8 -4 -5 -10 3 -5 1 -10 -5 -10 -6 0 -8 -4 -5 -10 3 -5 1 -10 -5 -10 -6 0 -8 -5 -5 -10 9 -15 -23 -62 -37 -54 -6 4 -8 3 -5 -3 8 -13 57 -23 57 -12 0 5 11 9 25 9 14 0 25 -5 25 -10 0 -6 11 -8 25 -4 14 3 25 2 25 -3 0 -5 17 -8 38 -7 20 0 41 -4 45 -10 6 -8 10 -7 14 2 6 15 33 16 33 1 0 -8 22 -10 71 -7 45 4 74 1 82 -6 7 -6 44 -13 82 -15 76 -3 89 -9 83 -37 -3 -15 -12 -19 -42 -18 -21 1 -42 7 -46 13 -4 8 -29 11 -72 9 l-64 -3 10 -29 c8 -22 8 -30 -2 -33 -6 -3 -10 -9 -7 -13 8 -13 -37 -40 -67 -40 -16 0 -28 5 -28 10 0 6 -9 10 -20 10 -11 0 -20 -5 -20 -11 0 -7 -10 -9 -25 -7 -14 3 -25 1 -25 -4 0 -6 -7 -8 -15 -4 -8 3 -15 0 -15 -5 0 -7 -11 -9 -25 -7 -14 3 -25 1 -25 -4 0 -5 -4 -6 -10 -3 -5 3 -10 2 -10 -4 0 -6 -8 -8 -17 -5 -10 3 -6 -3 10 -12 15 -10 27 -22 27 -27 0 -4 5 -5 10 -2 6 3 10 2 10 -3 0 -5 10 -8 23 -8 13 1 22 -5 22 -14 0 -18 -54 -16 -70 3 -11 14 -95 17 -95 3 0 -4 -9 -6 -20 -3 -11 3 -20 1 -20 -3 0 -4 -14 -13 -32 -19 -26 -9 -34 -9 -41 4 -4 8 -12 13 -18 10 -5 -4 -9 -2 -9 3 0 5 -15 8 -32 8 -30 -1 -33 2 -33 27 1 15 -3 27 -7 27 -4 0 -8 -4 -8 -10 0 -5 -11 -12 -25 -16 -24 -6 -25 -8 -9 -25 9 -10 13 -23 9 -28 -8 -14 -85 -14 -85 0 0 6 -9 8 -20 4 -13 -4 -20 -2 -21 7 0 7 -4 4 -8 -7 -5 -12 -4 -23 2 -26 5 -4 7 -21 4 -38 -4 -19 -2 -31 4 -31 6 0 9 -6 7 -12 -3 -7 1 -19 9 -26 7 -8 11 -18 8 -23 -4 -5 -1 -9 6 -9 7 0 10 -3 6 -6 -3 -4 1 -13 9 -22 9 -8 13 -23 11 -33 -3 -11 -1 -19 5 -19 5 0 6 -5 3 -10 -3 -5 -1 -10 6 -10 7 0 10 -3 6 -6 -3 -4 1 -13 9 -21 8 -9 13 -22 10 -29 -3 -8 -1 -14 5 -14 6 0 9 -7 5 -15 -3 -8 -1 -15 5 -15 5 0 7 -11 3 -25 -4 -16 -2 -25 6 -25 7 0 9 -8 5 -20 -4 -12 -2 -20 5 -20 6 0 8 -5 5 -10 -3 -5 -1 -10 5 -10 6 0 8 -5 5 -10 -3 -5 -1 -10 5 -10 7 0 10 -13 8 -32 -3 -30 -6 -33 -42 -36 l-38 -3 4 35 c2 20 0 36 -4 36 -4 0 -8 9 -8 20 0 11 4 20 8 20 4 0 8 9 8 20 0 11 -4 20 -8 20 -5 0 -7 13 -6 29 1 15 -6 40 -15 55 -10 15 -17 32 -15 39 1 6 -13 27 -31 45 -20 20 -31 38 -27 48 3 8 -1 17 -9 20 -8 4 -12 10 -9 15 3 5 0 9 -7 9 -7 0 -9 3 -6 7 4 3 -1 12 -11 19 -14 11 -14 13 -2 14 12 0 11 3 -2 11 -10 5 -18 16 -18 24 0 11 -8 13 -28 9 -19 -4 -34 0 -45 10 -20 20 -33 20 -41 0 -3 -8 -10 -12 -16 -9 -5 3 -10 1 -10 -4 0 -6 5 -11 10 -11 7 0 8 -27 5 -72 -7 -105 -7 -108 -21 -97 -13 11 -25 59 -15 59 4 0 7 9 7 20 0 11 -4 20 -9 20 -5 0 -7 11 -5 25 3 14 1 25 -3 25 -5 0 -9 6 -9 14 0 7 -9 16 -20 19 -17 4 -19 11 -13 39 3 18 9 35 13 38 3 3 6 25 6 49 -1 30 4 47 16 54 9 6 14 16 11 24 -3 7 -9 10 -14 7 -5 -3 -12 2 -15 10 -3 9 -10 14 -14 11 -9 -6 -24 13 -25 30 -1 6 -6 9 -13 7 -7 -1 -12 2 -12 8 0 5 -6 9 -12 7 -7 -1 -12 4 -11 11 2 6 -1 12 -6 12 -5 0 -13 9 -16 20 -4 11 -11 18 -16 14 -6 -3 -18 1 -27 9 -9 8 -43 27 -74 42 -32 15 -58 32 -58 37 0 5 -4 7 -9 3 -5 -3 -12 -1 -15 4 -4 5 3 13 15 16 13 4 24 2 29 -5 4 -6 10 -10 13 -8 4 1 15 -4 25 -13 10 -8 23 -14 30 -11 7 2 12 -1 12 -8 0 -6 5 -8 10 -5 6 3 10 1 10 -5 0 -6 5 -8 11 -4 13 8 89 -15 89 -27 0 -4 13 -3 29 2 23 8 28 15 23 32 -3 12 -11 26 -19 30 -7 5 -11 12 -8 18 4 5 1 9 -5 9 -6 0 -8 5 -5 10 9 14 -8 13 -23 -2 -7 -7 -12 -9 -12 -5 0 15 -6 23 -52 66 -26 25 -46 46 -45 48 2 1 -22 31 -54 65 -32 34 -57 64 -55 65 2 2 -12 20 -31 41 -19 20 -37 49 -40 64 -3 15 -10 26 -17 25 -6 -1 -10 4 -9 11 2 6 -1 12 -6 12 -10 0 -54 63 -86 123 -11 20 -23 37 -27 37 -5 0 -8 4 -8 10 0 5 -12 21 -26 35 -15 15 -23 32 -20 41 4 10 -6 25 -25 41 -16 14 -28 32 -25 39 3 8 1 14 -4 14 -6 0 -23 21 -40 48 -16 26 -30 43 -30 38 0 -5 -7 -3 -15 4 -8 7 -13 16 -10 20 3 4 -2 11 -11 14 -8 3 -13 10 -10 15 3 5 -9 16 -28 25 -29 14 -51 45 -47 69 1 4 -3 7 -7 7 -12 0 -86 100 -79 107 4 3 -5 14 -18 25 -14 11 -25 25 -25 33 0 7 -7 18 -15 25 -9 7 -15 20 -14 29 1 9 -1 28 -5 43 -11 37 3 57 21 32 8 -10 23 -29 33 -41z"/>
 </g>
<g id="layer103" fill="#d97576" stroke="none">
 <path d="M0 3080 l0 -3080 6750 0 6750 0 0 3080 0 3080 -6750 0 -6750 0 0 -3080z m5150 683 c11 -13 17 -23 14 -23 -4 0 5 -9 20 -21 14 -11 24 -24 21 -29 -3 -5 7 -18 21 -29 15 -12 24 -21 21 -21 -3 0 4 -10 16 -22 13 -13 31 -34 40 -48 17 -23 19 -24 31 -7 11 15 15 15 25 3 7 -8 13 -24 14 -35 1 -12 5 -21 10 -21 4 0 5 -4 2 -10 -3 -5 -2 -10 3 -10 25 0 79 -71 67 -89 -3 -5 -1 -11 5 -13 5 -1 11 -13 13 -24 1 -12 11 -29 20 -38 16 -16 21 -30 18 -48 0 -5 4 -8 9 -8 10 0 27 -34 28 -54 0 -5 5 -12 12 -16 6 -4 12 -13 14 -21 1 -8 21 -34 44 -59 23 -24 39 -46 37 -48 -2 -2 0 -9 6 -16 29 -34 87 -131 83 -137 -2 -4 6 -16 19 -26 13 -10 25 -22 27 -28 2 -5 14 -18 27 -28 13 -10 23 -24 23 -32 0 -7 18 -28 40 -45 23 -18 39 -35 36 -37 -3 -3 21 -27 52 -55 31 -27 68 -64 82 -83 21 -27 29 -31 44 -23 15 8 16 12 5 19 -12 8 -11 12 4 23 25 19 21 34 -10 38 -26 3 -28 6 -27 47 1 35 6 49 27 65 14 12 29 35 33 51 4 17 12 33 18 38 8 5 7 9 -2 15 -13 9 -6 72 9 72 5 0 6 6 4 13 -3 6 10 28 28 47 28 31 32 42 32 93 0 38 5 61 14 66 9 6 11 18 7 34 -4 17 -1 31 9 41 17 16 20 36 6 36 -8 0 -24 37 -22 53 1 4 -4 7 -10 7 -6 0 -9 7 -5 15 3 8 1 15 -4 15 -16 0 -12 76 5 90 18 15 20 60 3 60 -9 0 -9 3 1 13 10 10 15 8 27 -7 8 -11 15 -30 15 -43 1 -13 2 -28 3 -33 2 -17 26 -28 47 -23 10 3 19 1 19 -5 0 -5 8 -9 18 -8 15 1 17 -11 20 -111 1 -66 -1 -113 -7 -113 -5 0 -7 -9 -4 -20 3 -11 1 -20 -3 -20 -10 0 -16 -34 -17 -94 -1 -25 5 -43 16 -51 20 -14 25 -105 6 -105 -8 0 -10 -19 -7 -57 4 -44 1 -67 -13 -95 -23 -45 -25 -107 -4 -134 11 -13 14 -14 13 -4 -2 11 8 16 34 18 35 3 38 0 54 -35 10 -21 18 -42 18 -48 1 -15 31 -12 31 2 0 21 54 65 71 59 8 -3 13 -10 10 -15 -3 -5 1 -12 9 -15 13 -4 14 -10 5 -26 -6 -11 -15 -18 -20 -15 -6 3 -7 -1 -4 -10 6 -14 8 -14 19 1 7 10 19 15 29 11 9 -4 16 -3 16 2 0 5 11 12 25 15 14 4 23 11 20 16 -3 5 3 15 13 22 11 7 19 18 18 23 -2 17 43 17 60 1 9 -9 11 -16 4 -16 -6 0 -8 -4 -5 -10 3 -5 1 -10 -5 -10 -6 0 -8 -4 -5 -10 3 -5 1 -10 -5 -10 -6 0 -8 -5 -5 -10 9 -15 -23 -62 -37 -54 -6 4 -8 3 -5 -3 8 -13 57 -23 57 -12 0 5 11 9 25 9 14 0 25 -5 25 -10 0 -6 11 -8 25 -4 14 3 25 2 25 -3 0 -5 17 -8 38 -7 20 0 41 -4 45 -10 6 -8 10 -7 14 2 6 15 33 16 33 1 0 -8 22 -10 71 -7 45 4 74 1 82 -6 7 -6 44 -13 82 -15 80 -4 85 -5 85 -32 0 -29 -27 -34 -84 -15 -28 9 -72 15 -97 14 l-45 -3 10 -29 c8 -22 8 -30 -2 -33 -6 -3 -10 -9 -7 -13 8 -13 -37 -40 -67 -40 -16 0 -28 5 -28 10 0 6 -9 10 -20 10 -11 0 -20 -5 -20 -11 0 -7 -10 -9 -25 -7 -14 3 -25 1 -25 -4 0 -6 -7 -8 -15 -4 -8 3 -15 0 -15 -5 0 -7 -11 -9 -25 -7 -14 3 -25 1 -25 -4 0 -5 -4 -6 -10 -3 -5 3 -10 2 -10 -4 0 -6 -8 -8 -17 -5 -10 3 -6 -3 10 -12 15 -10 27 -22 27 -27 0 -4 5 -5 10 -2 6 3 10 2 10 -3 0 -5 10 -8 23 -8 13 1 22 -5 22 -14 0 -18 -54 -16 -70 3 -11 14 -95 17 -95 3 0 -4 -9 -6 -20 -3 -11 3 -20 1 -20 -3 0 -4 -14 -13 -32 -19 -26 -9 -34 -9 -41 4 -4 8 -12 13 -18 10 -5 -4 -9 -2 -9 3 0 5 -15 8 -32 8 -30 -1 -33 2 -33 27 1 15 -3 27 -7 27 -4 0 -8 -4 -8 -10 0 -5 -11 -12 -25 -16 -24 -6 -25 -8 -9 -25 9 -10 13 -23 9 -28 -8 -14 -85 -14 -85 0 0 6 -9 8 -20 4 -13 -4 -20 -2 -21 7 0 7 -4 4 -8 -7 -5 -12 -4 -23 2 -26 5 -4 7 -21 4 -38 -4 -19 -2 -31 4 -31 6 0 9 -6 7 -12 -3 -7 1 -19 9 -26 7 -8 11 -18 8 -23 -4 -5 -1 -9 6 -9 7 0 10 -3 6 -6 -3 -4 1 -13 9 -22 9 -8 13 -23 11 -33 -3 -11 -1 -19 5 -19 5 0 6 -5 3 -10 -3 -5 -1 -10 6 -10 7 0 10 -3 6 -6 -3 -4 1 -13 9 -21 8 -9 13 -22 10 -29 -3 -8 -1 -14 5 -14 6 0 9 -7 5 -15 -3 -8 -1 -15 5 -15 5 0 7 -11 3 -25 -4 -16 -2 -25 6 -25 7 0 9 -8 5 -20 -4 -12 -2 -20 5 -20 6 0 8 -5 5 -10 -3 -5 -1 -10 5 -10 6 0 8 -5 5 -10 -3 -5 -1 -10 4 -10 6 0 11 -16 11 -35 0 -34 -1 -35 -41 -35 -41 0 -41 0 -37 35 2 19 0 35 -4 35 -4 0 -8 9 -8 20 0 11 4 20 8 20 4 0 8 9 8 20 0 11 -4 20 -8 20 -5 0 -7 13 -6 29 1 15 -6 40 -15 55 -10 15 -17 32 -15 39 1 6 -13 27 -31 45 -20 20 -31 38 -27 48 3 8 -1 17 -9 20 -8 4 -12 10 -9 15 3 5 0 9 -7 9 -7 0 -9 3 -6 7 4 3 -1 12 -11 19 -14 11 -14 13 -2 14 12 0 11 3 -2 11 -10 5 -18 16 -18 24 0 11 -8 13 -28 9 -19 -4 -34 0 -45 10 -20 20 -33 20 -41 0 -3 -8 -10 -12 -16 -9 -5 3 -10 1 -10 -4 0 -6 5 -11 10 -11 7 0 8 -27 5 -72 -7 -105 -7 -108 -21 -97 -13 11 -25 59 -15 59 4 0 7 9 7 20 0 11 -4 20 -9 20 -5 0 -7 11 -5 25 3 14 1 25 -3 25 -5 0 -9 6 -9 14 0 7 -9 16 -20 19 -17 4 -19 11 -13 39 3 18 9 35 13 38 3 3 6 25 6 49 -1 30 4 47 16 54 9 6 14 16 11 24 -3 7 -9 10 -14 7 -5 -3 -12 2 -15 10 -3 9 -10 14 -14 11 -9 -6 -24 13 -25 30 -1 6 -6 9 -13 7 -7 -1 -12 2 -12 8 0 5 -6 9 -12 7 -7 -1 -12 4 -11 11 2 6 -1 12 -6 12 -5 0 -13 9 -16 20 -4 11 -11 18 -16 14 -6 -3 -18 1 -27 9 -9 8 -43 27 -74 42 -32 15 -58 32 -58 37 0 5 -4 7 -9 3 -5 -3 -12 -1 -15 4 -4 5 3 13 15 16 13 4 24 2 29 -5 4 -6 10 -10 13 -8 4 1 15 -4 25 -13 10 -8 23 -14 30 -11 7 2 12 -1 12 -8 0 -6 5 -8 10 -5 6 3 10 1 10 -5 0 -6 5 -8 11 -4 13 8 89 -15 89 -27 0 -4 13 -3 29 2 23 8 28 15 23 32 -3 12 -11 26 -19 30 -7 5 -11 12 -8 18 4 5 1 9 -5 9 -6 0 -8 5 -5 10 9 14 -8 13 -23 -2 -7 -7 -12 -9 -12 -5 0 15 -6 23 -52 66 -26 25 -46 46 -45 48 2 1 -22 31 -54 65 -32 34 -57 64 -55 65 2 2 -12 20 -31 41 -19 20 -37 49 -40 64 -3 15 -10 26 -17 25 -6 -1 -10 4 -9 11 2 6 -1 12 -6 12 -10 0 -54 63 -86 123 -11 20 -23 37 -27 37 -5 0 -8 4 -8 10 0 5 -12 21 -26 35 -15 15 -23 32 -20 41 4 10 -6 25 -25 41 -16 14 -28 32 -25 39 3 8 1 14 -4 14 -6 0 -23 21 -40 48 -16 26 -30 43 -30 38 0 -5 -7 -3 -15 4 -8 7 -13 16 -10 20 3 4 -2 11 -11 14 -8 3 -13 10 -10 15 3 5 -9 16 -28 25 -29 14 -51 45 -47 69 1 4 -3 7 -7 7 -12 0 -86 100 -79 107 4 3 -5 14 -18 25 -14 11 -25 25 -25 33 0 7 -7 18 -15 25 -9 7 -15 20 -14 29 1 9 -1 28 -5 43 -11 37 3 57 21 32 8 -10 23 -29 33 -41z"/>
 </g>
<g id="layer104" fill="#e97173" stroke="none">
 <path d="M0 3080 l0 -3080 6750 0 6750 0 0 3080 0 3080 -6750 0 -6750 0 0 -3080z m5150 683 c11 -13 17 -23 14 -23 -4 0 5 -9 20 -21 14 -11 24 -24 21 -29 -3 -5 7 -18 21 -29 15 -12 24 -21 21 -21 -3 0 4 -10 16 -22 13 -13 30 -34 40 -48 16 -23 18 -23 30 -6 11 15 15 15 24 4 6 -7 13 -22 15 -33 1 -11 17 -34 34 -50 36 -36 57 -72 49 -84 -3 -5 -1 -11 5 -13 5 -1 11 -13 13 -24 1 -12 11 -29 20 -38 16 -16 21 -30 18 -48 0 -5 4 -8 9 -8 10 0 27 -34 28 -54 0 -5 5 -12 12 -16 6 -4 12 -13 14 -21 1 -8 21 -34 44 -59 23 -24 39 -46 37 -48 -2 -2 1 -9 6 -16 5 -6 30 -42 54 -81 24 -38 55 -80 67 -92 12 -13 19 -23 14 -23 -5 0 3 -9 18 -21 14 -11 26 -25 26 -30 0 -5 52 -61 115 -125 63 -64 115 -120 115 -125 0 -6 9 -5 21 2 18 9 19 13 8 20 -12 8 -11 12 4 23 25 19 21 34 -10 38 -26 3 -28 6 -27 47 1 35 6 49 27 65 14 12 29 35 33 51 4 17 12 33 18 38 8 5 7 9 -2 15 -14 9 -6 72 10 72 5 0 6 5 2 11 -3 6 6 24 22 40 23 24 29 42 35 95 4 37 12 70 19 74 8 5 10 17 6 33 -4 17 -1 31 9 41 14 13 13 19 -4 49 -11 20 -17 38 -14 41 4 3 1 6 -6 6 -8 0 -11 7 -7 15 3 8 1 15 -4 15 -16 0 -12 76 5 90 18 15 20 60 3 60 -9 0 -9 3 1 13 10 10 15 8 27 -7 8 -11 15 -30 15 -43 1 -13 2 -28 3 -33 2 -17 26 -28 47 -23 10 3 19 1 19 -5 0 -5 8 -9 18 -8 15 1 17 -11 20 -111 1 -66 -1 -113 -7 -113 -5 0 -7 -9 -4 -20 3 -11 1 -20 -3 -20 -10 0 -16 -34 -17 -94 -1 -26 5 -43 17 -52 17 -12 18 -22 11 -101 -5 -48 -7 -100 -6 -115 1 -16 -2 -28 -7 -28 -29 0 -43 -112 -17 -146 11 -13 14 -14 13 -4 -2 11 8 16 34 18 35 3 38 0 54 -35 10 -21 18 -42 18 -48 1 -15 31 -12 31 2 0 14 49 63 63 63 6 0 17 -12 27 -26 13 -20 14 -28 5 -40 -7 -7 -16 -11 -21 -8 -5 3 -6 -2 -3 -11 6 -14 8 -14 19 1 7 10 19 15 29 11 9 -4 16 -3 16 2 0 5 11 12 25 15 14 4 23 11 20 16 -3 5 3 15 13 22 11 7 19 18 18 23 -2 17 43 17 60 1 9 -9 11 -16 4 -16 -6 0 -8 -4 -5 -10 3 -5 1 -10 -5 -10 -6 0 -8 -4 -5 -10 3 -5 1 -10 -5 -10 -6 0 -8 -5 -5 -10 9 -15 -23 -62 -37 -54 -6 4 -8 3 -5 -3 8 -13 57 -23 57 -12 0 5 11 9 25 9 14 0 25 -5 25 -10 0 -6 11 -8 25 -4 14 3 25 2 25 -3 0 -5 18 -8 40 -7 22 1 40 -2 40 -7 0 -5 9 -4 20 3 17 11 22 10 29 -1 7 -11 25 -13 75 -9 44 4 71 2 79 -6 7 -6 44 -13 82 -15 80 -4 85 -5 85 -32 0 -29 -27 -34 -84 -15 -28 9 -72 15 -97 14 -40 -3 -46 -5 -38 -20 15 -27 10 -47 -16 -73 -24 -25 -85 -35 -85 -15 0 6 -9 10 -20 10 -11 0 -20 -5 -20 -11 0 -7 -10 -9 -25 -7 -14 3 -25 1 -25 -4 0 -6 -7 -8 -15 -4 -8 3 -15 0 -15 -5 0 -7 -11 -9 -25 -7 -14 3 -25 1 -25 -4 0 -5 -4 -6 -10 -3 -5 3 -10 2 -10 -4 0 -6 -8 -8 -17 -5 -10 3 -6 -3 10 -12 15 -10 27 -22 27 -27 0 -4 5 -5 10 -2 6 3 10 2 10 -4 0 -6 7 -8 15 -5 15 6 45 -12 45 -26 0 -13 -74 -1 -85 13 -11 14 -95 17 -95 3 0 -4 -9 -6 -20 -3 -11 3 -20 1 -20 -3 0 -4 -14 -13 -32 -19 -26 -9 -34 -9 -41 4 -4 8 -12 13 -18 10 -5 -4 -9 -2 -9 3 0 5 -15 8 -32 8 -30 -1 -33 2 -33 27 1 15 -3 27 -7 27 -4 0 -8 -4 -8 -10 0 -5 -11 -12 -25 -16 -24 -6 -25 -8 -9 -25 9 -10 13 -23 9 -28 -8 -15 -85 -14 -85 0 0 6 -7 8 -17 5 -9 -4 -20 -2 -23 5 -5 6 -9 3 -13 -10 -3 -12 -1 -21 5 -21 5 0 9 -12 7 -27 -1 -16 4 -44 12 -63 7 -19 12 -38 11 -42 -1 -5 3 -8 10 -8 6 0 9 -3 5 -6 -3 -4 1 -13 9 -22 9 -8 13 -23 11 -33 -3 -11 -1 -19 5 -19 5 0 6 -5 3 -10 -3 -5 -1 -10 6 -10 7 0 10 -3 6 -6 -3 -4 1 -13 9 -21 8 -9 13 -22 10 -29 -3 -8 -1 -14 5 -14 6 0 9 -7 5 -15 -3 -8 -1 -15 5 -15 5 0 7 -11 3 -25 -4 -16 -2 -25 6 -25 7 0 9 -8 5 -20 -4 -13 -2 -20 6 -20 7 0 10 -3 6 -6 -3 -4 0 -13 8 -21 8 -8 15 -30 15 -49 0 -33 -1 -34 -41 -34 -41 0 -41 0 -37 35 2 19 0 35 -4 35 -4 0 -8 9 -8 20 0 11 4 20 8 20 4 0 8 9 8 20 0 11 -4 20 -8 20 -5 0 -7 13 -6 29 1 15 -6 40 -15 54 -9 15 -17 31 -17 38 0 6 -14 27 -31 46 -17 19 -28 41 -25 49 3 7 0 17 -7 21 -22 14 -49 63 -35 63 8 0 6 5 -4 11 -10 5 -18 16 -18 24 0 11 -8 13 -28 9 -19 -4 -34 0 -45 10 -20 20 -33 20 -41 0 -3 -8 -10 -12 -16 -9 -5 3 -10 1 -10 -4 0 -6 5 -11 10 -11 7 0 9 -27 6 -72 -3 -40 -6 -81 -6 -91 -1 -14 -4 -16 -14 -7 -15 11 -28 60 -17 60 4 0 7 9 7 20 0 11 -4 20 -9 20 -5 0 -7 11 -5 25 3 14 1 25 -3 25 -5 0 -9 6 -9 14 0 7 -9 16 -20 19 -17 4 -19 11 -13 39 3 18 9 35 13 38 3 3 6 25 6 48 -1 24 5 48 12 54 14 12 17 42 2 33 -6 -3 -13 1 -16 9 -3 9 -10 14 -14 11 -4 -2 -19 10 -34 28 -15 17 -29 31 -31 30 -3 -2 -5 -1 -5 2 2 18 -36 43 -149 102 -80 42 -99 63 -57 63 14 0 26 -5 26 -11 0 -5 4 -8 8 -5 5 3 18 -3 28 -13 11 -9 25 -16 32 -13 6 2 12 -1 12 -8 0 -6 5 -8 10 -5 6 3 10 1 10 -5 0 -6 5 -8 11 -4 13 8 89 -15 89 -27 0 -4 13 -3 29 2 23 8 28 15 23 32 -3 12 -13 27 -21 34 -9 7 -12 13 -8 13 4 0 2 6 -5 14 -9 10 -17 11 -25 4 -7 -6 -13 -8 -13 -4 0 3 0 8 0 11 0 2 -20 24 -44 47 -47 46 -170 188 -163 188 3 0 -11 17 -30 38 -19 20 -37 49 -40 64 -3 15 -10 26 -17 25 -6 -1 -10 4 -9 11 2 6 -1 12 -6 12 -10 0 -54 63 -86 123 -11 20 -22 37 -26 37 -13 0 -61 79 -54 90 3 5 -7 22 -24 36 -17 14 -31 30 -31 34 0 16 -58 95 -80 108 -11 7 -18 17 -15 21 2 5 -2 12 -11 15 -8 3 -13 10 -10 15 3 5 -9 16 -28 25 -19 9 -36 26 -40 38 -7 29 -5 26 -43 68 -18 19 -40 49 -48 66 -8 17 -21 37 -30 44 -8 7 -15 18 -15 25 0 7 -7 18 -15 25 -9 7 -15 20 -14 29 1 9 -1 28 -5 43 -11 37 3 57 21 32 8 -10 23 -29 33 -41z"/>
 </g>
<g id="layer105" fill="#dc8480" stroke="none">
 <path d="M0 3080 l0 -3080 6750 0 6750 0 0 3080 0 3080 -6750 0 -6750 0 0 -3080z m5150 683 c11 -13 17 -23 14 -23 -4 0 5 -9 20 -21 14 -11 24 -24 21 -29 -3 -5 5 -17 18 -27 12 -10 39 -39 59 -65 31 -42 37 -46 48 -32 11 12 16 13 26 2 7 -7 14 -22 16 -33 2 -11 17 -34 34 -50 36 -36 57 -72 49 -84 -3 -5 -1 -11 5 -13 5 -1 11 -13 13 -24 1 -12 11 -29 20 -38 16 -16 21 -30 18 -48 0 -5 4 -8 9 -8 10 0 27 -34 28 -54 0 -5 5 -12 12 -16 6 -4 12 -13 14 -21 1 -8 21 -34 44 -59 23 -24 39 -46 37 -48 -2 -2 1 -9 6 -16 5 -6 30 -42 55 -81 25 -38 55 -80 66 -92 12 -13 18 -23 13 -23 -4 0 4 -9 19 -21 14 -11 26 -25 26 -30 0 -5 52 -61 115 -125 63 -64 115 -120 115 -125 0 -6 9 -5 21 2 18 9 19 13 8 20 -12 8 -11 12 4 23 25 19 21 34 -10 38 -26 3 -28 6 -27 47 1 35 7 49 27 65 24 20 52 91 41 107 -10 17 19 95 47 127 23 25 29 42 29 77 0 24 5 56 10 71 6 15 12 41 14 57 2 16 9 33 15 37 9 5 7 16 -8 43 -11 19 -17 38 -14 41 4 3 1 6 -6 6 -8 0 -11 7 -7 15 3 8 1 15 -4 15 -16 0 -12 76 5 90 18 15 20 60 3 60 -9 0 -9 3 1 13 10 10 15 8 27 -7 8 -11 15 -30 15 -43 1 -13 2 -28 3 -35 0 -6 14 -13 31 -15 16 -3 32 -7 35 -11 3 -4 12 -7 20 -7 12 0 16 -20 18 -112 1 -66 -1 -113 -7 -113 -5 0 -7 -9 -4 -20 3 -11 1 -20 -3 -20 -10 0 -16 -34 -17 -92 -1 -26 5 -42 17 -51 17 -12 18 -23 11 -103 -5 -49 -7 -101 -6 -116 1 -16 -2 -28 -7 -28 -29 0 -43 -112 -17 -146 11 -13 14 -14 13 -4 -2 11 7 16 33 18 34 3 37 0 60 -44 22 -42 44 -59 44 -34 0 12 51 60 63 60 6 0 17 -12 27 -26 13 -20 14 -28 5 -40 -7 -7 -16 -11 -21 -8 -5 3 -6 -2 -3 -11 6 -14 8 -14 19 1 7 10 19 15 29 11 9 -4 16 -3 16 2 0 5 11 12 25 15 14 4 23 11 20 16 -3 5 3 15 13 22 11 7 19 18 18 23 -2 17 43 17 60 1 9 -9 11 -16 4 -16 -6 0 -8 -4 -5 -10 3 -5 1 -10 -5 -10 -6 0 -8 -4 -5 -10 3 -5 1 -10 -5 -10 -6 0 -8 -5 -5 -10 9 -15 -23 -62 -37 -54 -6 4 -8 3 -5 -3 8 -13 57 -23 57 -12 0 5 11 9 25 9 14 0 25 -5 25 -10 0 -6 11 -8 25 -4 14 3 25 2 25 -3 0 -5 18 -8 40 -7 22 1 40 -2 40 -7 0 -5 9 -4 20 3 17 11 22 10 29 -1 7 -11 25 -13 75 -9 44 4 71 2 79 -6 7 -6 44 -13 82 -15 80 -4 85 -5 85 -32 0 -29 -27 -34 -84 -15 -28 9 -72 15 -97 14 -40 -3 -46 -5 -38 -20 15 -27 10 -47 -16 -73 -24 -25 -85 -35 -85 -15 0 6 -9 10 -20 10 -11 0 -20 -5 -20 -11 0 -7 -10 -9 -25 -7 -14 3 -25 1 -25 -4 0 -6 -7 -8 -15 -4 -8 3 -15 0 -15 -5 0 -7 -11 -9 -25 -7 -14 3 -25 1 -25 -4 0 -5 -4 -6 -10 -3 -5 3 -10 2 -10 -4 0 -6 -8 -8 -17 -5 -10 3 -6 -3 10 -12 15 -10 27 -22 27 -27 0 -4 5 -5 10 -2 6 3 10 2 10 -4 0 -6 7 -8 15 -5 15 6 45 -12 45 -26 0 -10 -70 -2 -84 9 -15 12 -96 18 -96 8 0 -5 -9 -7 -20 -4 -11 3 -20 1 -20 -3 0 -4 -14 -13 -32 -19 -26 -9 -34 -9 -41 4 -4 8 -12 13 -18 10 -5 -4 -9 -1 -9 5 0 8 -6 8 -20 0 -14 -7 -20 -7 -20 0 0 5 -5 9 -12 8 -7 -2 -15 11 -19 27 -4 17 -7 24 -8 18 0 -7 -12 -15 -26 -19 -24 -6 -25 -8 -9 -25 9 -10 13 -23 9 -28 -8 -15 -85 -14 -85 0 0 6 -7 8 -17 5 -9 -4 -20 -2 -23 5 -5 6 -9 3 -13 -10 -3 -12 -1 -21 5 -21 5 0 9 -12 7 -27 -1 -16 4 -44 12 -63 7 -19 12 -38 11 -42 -1 -5 3 -8 10 -8 6 0 9 -3 5 -6 -3 -4 1 -13 9 -22 9 -8 13 -23 11 -33 -3 -11 -1 -19 5 -19 5 0 6 -5 3 -10 -3 -5 -1 -10 6 -10 7 0 10 -3 6 -6 -3 -4 1 -13 9 -21 8 -9 13 -22 10 -29 -3 -8 -1 -14 5 -14 6 0 9 -7 5 -15 -3 -8 -1 -15 5 -15 5 0 7 -11 3 -25 -4 -16 -2 -25 6 -25 7 0 9 -8 5 -20 -4 -13 -2 -20 6 -20 7 0 10 -3 6 -6 -3 -4 0 -13 8 -21 8 -8 15 -30 15 -49 0 -33 -1 -34 -41 -34 -41 0 -41 0 -37 35 2 19 0 35 -4 35 -4 0 -8 9 -8 20 0 11 4 20 8 20 4 0 8 9 8 20 0 11 -4 20 -8 20 -5 0 -7 13 -6 29 1 15 -6 40 -15 54 -9 15 -17 31 -17 38 0 6 -14 27 -31 46 -17 19 -28 41 -25 49 3 7 0 17 -7 21 -22 14 -49 63 -35 63 8 0 6 5 -4 11 -10 5 -18 16 -18 24 0 11 -8 13 -28 9 -19 -4 -34 0 -45 10 -33 34 -50 10 -48 -69 0 -27 -2 -69 -5 -93 -4 -34 -8 -41 -19 -32 -14 11 -27 60 -16 60 4 0 7 9 7 20 0 11 -4 20 -9 20 -5 0 -7 11 -5 25 3 14 1 25 -3 25 -5 0 -9 6 -9 14 0 7 -9 16 -20 19 -17 4 -19 11 -13 39 3 18 9 35 13 38 3 3 6 25 6 48 -1 24 5 48 12 54 14 12 17 42 2 33 -6 -3 -13 1 -16 9 -3 9 -10 14 -14 11 -4 -2 -19 10 -34 28 -15 17 -29 31 -31 30 -3 -2 -5 -1 -5 2 2 18 -36 43 -149 102 -80 42 -99 63 -57 63 14 0 26 -5 26 -11 0 -5 4 -8 8 -5 5 3 18 -3 28 -13 11 -9 25 -16 32 -13 6 2 12 0 12 -5 0 -5 10 -9 23 -10 32 -3 97 -25 97 -34 0 -4 13 -3 29 2 23 8 28 15 23 32 -3 12 -13 27 -21 34 -9 7 -12 13 -8 13 4 0 2 6 -5 14 -9 10 -17 11 -25 4 -7 -6 -13 -8 -13 -4 0 3 0 8 0 11 0 2 -20 24 -44 47 -97 95 -236 272 -236 299 0 11 -6 18 -12 16 -7 -1 -12 4 -11 11 2 6 -1 12 -6 12 -10 0 -54 63 -86 123 -11 20 -22 37 -26 37 -11 0 -61 79 -55 88 3 5 -8 22 -24 37 -17 16 -30 32 -30 36 0 15 -59 94 -80 107 -11 7 -18 17 -15 21 2 5 -2 12 -11 15 -8 3 -13 10 -10 15 3 5 -9 16 -28 25 -19 9 -36 26 -40 38 -7 29 -5 26 -43 68 -18 19 -40 49 -48 66 -8 17 -21 37 -30 44 -8 7 -15 18 -15 25 0 7 -7 18 -16 26 -8 7 -13 21 -11 31 3 10 1 18 -4 18 -11 0 -12 53 -2 64 4 4 13 -1 21 -11 7 -10 22 -28 32 -40z"/>
 </g>
<g id="layer106" fill="#df7d82" stroke="none">
 <path d="M0 3080 l0 -3080 6750 0 6750 0 0 3080 0 3080 -6750 0 -6750 0 0 -3080z m5162 662 c-2 -2 8 -12 23 -23 14 -12 23 -24 20 -29 -3 -5 5 -17 18 -27 12 -10 39 -39 59 -65 31 -42 37 -46 48 -32 11 12 16 13 26 2 7 -7 14 -22 16 -33 2 -11 17 -34 34 -50 37 -37 57 -72 49 -85 -3 -6 -2 -10 4 -10 5 0 12 -13 16 -30 4 -16 10 -30 15 -30 9 0 25 -39 22 -52 -1 -5 3 -8 8 -8 10 0 27 -34 28 -54 0 -5 5 -12 12 -16 6 -4 12 -13 14 -21 1 -8 21 -34 44 -59 23 -24 39 -46 37 -48 -2 -2 1 -9 6 -16 5 -6 30 -42 55 -81 25 -38 55 -80 66 -92 12 -13 18 -23 13 -23 -4 0 4 -9 19 -21 14 -11 26 -24 26 -29 0 -4 52 -61 115 -125 63 -65 115 -122 115 -127 0 -5 10 -4 21 3 18 9 19 13 8 20 -12 8 -11 12 4 23 25 19 21 34 -10 38 -26 3 -28 6 -27 47 1 35 7 49 27 65 24 20 52 91 41 107 -10 17 19 95 47 127 23 25 29 42 29 77 0 24 5 56 10 71 6 15 12 41 14 57 2 16 9 33 15 37 9 5 7 16 -8 43 -11 19 -17 38 -14 41 4 3 1 6 -6 6 -8 0 -11 7 -7 15 3 8 1 15 -4 15 -16 0 -12 76 5 90 18 15 20 60 3 60 -9 0 -9 3 1 13 10 10 15 8 27 -7 8 -11 15 -30 15 -43 1 -13 2 -28 3 -35 0 -6 14 -13 31 -15 16 -3 32 -7 35 -11 3 -4 12 -7 20 -7 12 0 16 -20 18 -112 1 -66 -1 -113 -7 -113 -5 0 -7 -9 -4 -20 3 -11 1 -20 -3 -20 -10 0 -16 -34 -17 -92 -1 -26 5 -42 17 -51 17 -12 18 -23 11 -103 -5 -49 -7 -101 -6 -116 1 -16 -2 -28 -7 -28 -29 0 -43 -112 -17 -146 11 -13 14 -14 13 -4 -2 11 7 16 33 18 34 3 37 0 60 -44 22 -42 44 -59 44 -34 0 12 51 60 63 60 6 0 17 -12 27 -26 13 -20 14 -28 5 -40 -7 -7 -16 -11 -21 -8 -5 3 -6 -2 -3 -11 6 -14 8 -14 19 1 7 10 19 15 29 11 9 -4 16 -3 16 2 0 5 11 12 25 15 14 4 24 10 23 14 -1 4 6 19 16 35 20 30 49 35 72 12 9 -9 11 -15 4 -15 -6 0 -8 -4 -5 -10 3 -5 1 -10 -5 -10 -6 0 -8 -4 -5 -10 3 -5 1 -10 -5 -10 -6 0 -8 -5 -5 -10 9 -15 -23 -62 -37 -54 -6 4 -8 3 -5 -3 8 -13 57 -23 57 -12 0 5 11 9 25 9 14 0 25 -5 25 -10 0 -6 11 -8 25 -4 14 3 25 2 25 -3 0 -5 18 -8 40 -7 22 1 40 -2 40 -7 0 -5 9 -4 20 3 17 11 22 10 29 -1 7 -11 25 -13 75 -9 44 4 71 2 79 -6 7 -6 44 -13 82 -15 80 -4 85 -5 85 -32 0 -29 -27 -34 -84 -15 -28 9 -72 15 -97 14 -40 -3 -46 -5 -38 -20 15 -27 10 -47 -16 -73 -24 -25 -85 -35 -85 -15 0 6 -9 10 -20 10 -11 0 -20 -5 -20 -11 0 -7 -10 -9 -25 -7 -14 3 -25 1 -25 -4 0 -6 -7 -8 -15 -4 -8 3 -15 0 -15 -5 0 -7 -11 -9 -25 -7 -14 3 -25 1 -25 -4 0 -5 -4 -6 -10 -3 -5 3 -10 2 -10 -4 0 -6 -8 -8 -17 -5 -10 3 -6 -3 10 -12 15 -10 27 -22 27 -27 0 -4 5 -5 10 -2 6 3 10 2 10 -4 0 -6 7 -8 15 -5 16 7 45 -12 45 -28 0 -11 -68 -2 -85 12 -15 11 -95 17 -95 7 0 -5 -9 -7 -20 -4 -11 3 -20 1 -20 -3 0 -4 -14 -13 -32 -19 -26 -9 -34 -9 -40 3 -5 8 -21 13 -38 12 -16 -1 -30 1 -30 6 0 4 -5 7 -12 6 -7 -2 -15 11 -19 27 -4 17 -7 24 -8 18 0 -7 -12 -15 -26 -19 -24 -6 -25 -8 -9 -25 9 -10 13 -23 9 -28 -8 -15 -85 -14 -85 0 0 6 -7 8 -17 5 -9 -4 -20 -2 -23 5 -5 6 -9 3 -13 -10 -3 -12 -1 -21 5 -21 5 0 9 -12 7 -27 -1 -16 4 -44 12 -63 7 -19 12 -38 11 -42 -1 -5 3 -8 10 -8 6 0 9 -3 5 -6 -3 -4 0 -13 8 -21 13 -13 20 -41 16 -65 0 -5 4 -8 11 -8 6 0 9 -3 5 -6 -3 -4 1 -13 9 -21 8 -9 13 -22 10 -29 -3 -8 -1 -14 5 -14 6 0 9 -7 5 -15 -3 -8 -1 -15 5 -15 5 0 7 -11 3 -25 -4 -16 -2 -25 6 -25 7 0 10 -6 7 -14 -3 -7 0 -19 6 -25 6 -6 8 -11 3 -11 -4 0 0 -7 8 -16 9 -8 16 -31 16 -50 0 -33 -1 -34 -39 -34 l-38 0 -6 53 c-4 28 -3 53 2 55 6 2 5 15 -1 33 -5 16 -8 35 -5 43 3 7 -3 28 -14 45 -10 17 -19 36 -19 42 0 6 -13 27 -30 46 -16 18 -30 43 -30 53 0 11 -3 20 -7 20 -14 0 -43 60 -30 60 7 0 4 5 -5 11 -10 5 -18 16 -18 24 0 11 -8 13 -28 9 -19 -4 -34 0 -45 10 -34 35 -50 10 -48 -75 3 -80 -8 -133 -24 -119 -14 11 -26 60 -16 60 4 0 7 9 7 20 0 11 -4 20 -9 20 -5 0 -7 11 -5 25 3 14 1 25 -3 25 -5 0 -9 7 -9 15 0 8 -6 15 -14 15 -24 0 -26 15 -10 76 8 33 13 67 11 76 -3 10 1 22 9 29 16 13 19 44 4 34 -6 -3 -13 1 -16 9 -3 9 -10 14 -14 11 -4 -2 -19 10 -34 28 -15 17 -29 31 -31 30 -3 -2 -5 -1 -5 2 2 18 -36 43 -149 102 -80 42 -99 63 -57 63 14 0 26 -5 26 -11 0 -5 4 -8 8 -5 5 3 18 -3 28 -13 11 -9 25 -16 32 -13 6 2 12 0 12 -5 0 -5 10 -9 23 -10 32 -3 97 -25 97 -34 0 -4 13 -3 29 2 32 11 32 27 3 62 -8 9 -12 17 -8 17 4 0 1 6 -6 14 -8 9 -17 11 -24 5 -8 -6 -17 -2 -26 13 -9 13 -29 37 -45 53 -91 90 -223 261 -223 287 0 11 -4 17 -9 14 -9 -6 -71 80 -106 147 -11 20 -22 37 -26 37 -11 0 -61 79 -55 88 3 5 -8 22 -24 37 -17 16 -30 32 -30 36 0 15 -59 94 -80 107 -11 7 -18 17 -15 21 2 5 -2 12 -11 15 -8 3 -13 10 -10 15 3 5 -10 16 -29 25 -19 9 -35 22 -35 29 0 7 -22 41 -50 77 -27 36 -49 70 -50 76 0 6 -9 19 -20 29 -11 10 -20 24 -20 30 0 7 -7 18 -16 26 -8 7 -13 21 -11 31 3 10 1 18 -4 18 -10 0 -12 53 -2 63 6 7 71 -64 65 -71z"/>
 </g>
<g id="layer107" fill="#d28e8e" stroke="none">
 <path d="M0 3080 l0 -3080 6750 0 6750 0 0 3080 0 3080 -6750 0 -6750 0 0 -3080z m5163 669 c26 -31 47 -58 47 -61 0 -3 13 -20 29 -39 17 -19 41 -47 54 -64 20 -24 27 -27 40 -17 17 14 30 3 42 -36 3 -13 21 -38 39 -56 19 -18 41 -56 51 -87 10 -30 21 -56 25 -59 4 -3 26 -41 50 -85 24 -44 61 -101 82 -127 22 -27 37 -48 34 -48 -4 0 -2 -6 4 -12 6 -7 31 -44 56 -83 25 -38 55 -80 66 -92 12 -13 19 -23 17 -23 -8 0 107 -126 194 -213 42 -43 77 -82 77 -87 0 -5 7 -7 15 -4 10 4 13 13 10 25 -4 12 -1 21 9 25 26 10 18 32 -11 36 -26 3 -28 6 -27 47 1 35 7 49 27 65 24 20 52 91 41 107 -10 17 19 95 47 127 22 25 29 43 29 74 0 38 9 82 31 155 8 27 6 41 -16 86 -28 60 -33 118 -10 137 18 15 20 60 3 60 -9 0 -9 3 1 13 10 10 15 8 27 -7 8 -11 14 -30 14 -42 0 -28 25 -54 51 -54 10 0 19 -4 19 -9 0 -5 8 -8 18 -7 15 1 17 -11 20 -111 1 -62 -1 -113 -5 -113 -4 0 -8 -10 -9 -22 0 -13 -7 -44 -14 -70 -13 -45 -13 -49 8 -78 22 -29 22 -36 16 -145 -4 -63 -10 -115 -14 -115 -13 0 -30 -51 -30 -89 0 -20 7 -46 15 -57 13 -18 14 -17 10 11 -2 17 -2 24 1 18 3 -7 21 -13 40 -13 29 0 36 -5 48 -32 20 -46 45 -78 46 -57 0 17 50 69 67 69 6 0 18 -12 28 -26 13 -20 14 -28 5 -40 -7 -7 -17 -11 -23 -7 -6 3 -7 1 -3 -6 5 -8 12 -9 19 -3 7 5 26 13 44 16 21 5 40 20 58 47 29 41 56 49 81 24 9 -9 11 -15 4 -15 -6 0 -8 -4 -5 -10 3 -5 1 -10 -5 -10 -6 0 -8 -4 -5 -10 3 -5 1 -10 -5 -10 -6 0 -8 -5 -5 -10 9 -15 -23 -62 -37 -54 -6 4 -8 3 -5 -3 8 -13 57 -23 57 -12 0 5 11 9 25 9 14 0 25 -5 25 -10 0 -6 11 -8 25 -4 14 3 25 2 25 -3 0 -5 18 -8 40 -7 22 1 40 -3 40 -8 0 -6 7 -5 15 2 13 11 20 11 40 0 16 -8 43 -11 80 -7 36 4 59 1 68 -6 6 -7 44 -14 82 -16 76 -3 89 -9 83 -37 -4 -22 -33 -23 -113 -6 -27 6 -62 8 -77 5 -24 -4 -26 -9 -21 -33 7 -38 -33 -80 -77 -80 -16 0 -30 5 -30 10 0 13 -37 13 -42 0 -1 -5 -20 -11 -40 -12 -21 -2 -38 -7 -38 -12 0 -4 -11 -6 -25 -4 -14 3 -25 1 -25 -4 0 -5 -4 -6 -10 -3 -5 3 -10 2 -10 -4 0 -6 -8 -8 -17 -5 -10 3 -6 -3 10 -12 15 -10 27 -22 27 -27 0 -4 5 -5 10 -2 6 3 10 2 10 -4 0 -6 7 -8 15 -5 16 7 45 -12 45 -28 0 -11 -68 -2 -85 12 -15 11 -95 17 -95 7 0 -5 -9 -7 -20 -4 -11 3 -20 1 -20 -3 0 -15 -63 -32 -71 -19 -4 7 -21 12 -38 13 -17 0 -31 4 -31 9 0 4 -5 6 -12 5 -7 -2 -15 11 -19 27 -4 17 -7 24 -8 18 0 -7 -12 -15 -26 -19 -24 -6 -25 -8 -9 -25 9 -10 13 -23 9 -28 -8 -13 -85 -15 -85 -2 0 5 -11 8 -24 7 -21 -1 -23 -5 -21 -41 2 -22 9 -56 16 -75 8 -19 12 -38 11 -42 -1 -5 3 -8 10 -8 6 0 9 -3 5 -6 -3 -4 0 -13 8 -21 13 -13 20 -41 16 -65 0 -5 4 -8 11 -8 6 0 9 -3 5 -6 -3 -4 1 -13 9 -21 8 -9 13 -21 10 -29 -3 -7 0 -14 6 -16 5 -2 11 -17 12 -33 1 -17 5 -36 10 -43 4 -7 5 -16 2 -19 -3 -3 -1 -12 5 -20 6 -7 8 -13 5 -13 -4 0 0 -7 8 -16 9 -8 16 -31 16 -50 0 -33 -1 -34 -40 -34 -45 0 -41 -13 -45 136 -1 48 -7 80 -18 98 -9 14 -17 30 -17 37 0 6 -13 27 -30 46 -16 18 -30 38 -30 44 0 5 -12 28 -27 52 -14 23 -26 42 -25 42 1 0 -1 10 -4 22 -5 18 -11 22 -30 17 -15 -4 -34 0 -51 11 -25 17 -26 16 -36 -1 -6 -10 -9 -44 -8 -75 3 -79 -8 -133 -24 -119 -14 11 -26 60 -16 60 4 0 7 9 7 20 0 11 -4 20 -9 20 -5 0 -7 11 -5 25 3 14 1 25 -3 25 -5 0 -9 7 -9 15 0 8 -6 15 -14 15 -24 0 -26 15 -10 76 8 33 13 67 11 76 -3 10 1 22 9 29 15 13 20 44 5 34 -6 -3 -29 14 -53 37 -24 23 -44 41 -45 40 -2 -1 -3 0 -3 3 2 18 -36 43 -149 102 -80 42 -99 63 -57 63 14 0 26 -5 26 -11 0 -5 4 -8 8 -5 5 3 18 -3 28 -13 11 -9 25 -16 32 -13 6 2 12 0 12 -5 0 -5 10 -9 23 -10 32 -3 97 -25 97 -34 0 -4 13 -3 29 2 32 11 32 27 3 62 -8 9 -12 17 -8 17 4 0 1 6 -6 14 -7 8 -17 11 -22 6 -16 -16 -296 311 -296 346 0 8 -4 14 -9 14 -9 0 -76 95 -106 153 -11 20 -22 37 -26 37 -11 0 -61 79 -55 88 3 5 -8 22 -24 37 -17 16 -30 32 -30 36 0 15 -51 84 -78 106 -15 12 -24 22 -20 23 12 0 -46 60 -59 60 -8 0 -17 10 -22 23 -5 12 -29 50 -55 83 -25 34 -46 66 -46 71 0 6 -9 18 -20 28 -11 10 -20 24 -20 30 0 7 -7 18 -16 26 -8 7 -13 21 -11 31 3 10 1 18 -4 18 -10 0 -12 53 -2 64 4 3 10 3 13 -1 4 -5 27 -33 53 -64z"/>
 </g>
<g id="layer108" fill="#eb8d8f" stroke="none">
 <path d="M0 3080 l0 -3080 6750 0 6750 0 0 3080 0 3080 -6750 0 -6750 0 0 -3080z m5163 669 c26 -31 47 -58 47 -61 0 -3 13 -20 29 -39 17 -19 41 -47 54 -64 20 -24 27 -27 40 -17 17 14 30 3 42 -36 3 -13 21 -38 39 -56 19 -18 41 -56 51 -87 10 -30 21 -56 25 -59 4 -3 26 -41 50 -85 24 -44 61 -101 82 -127 22 -27 37 -48 34 -48 -4 0 -2 -6 4 -12 6 -7 31 -44 56 -83 25 -38 55 -80 66 -92 12 -13 19 -23 17 -23 -8 0 107 -126 194 -213 42 -43 77 -82 77 -87 0 -5 7 -7 15 -4 10 4 13 13 10 25 -4 12 -1 21 9 25 26 10 18 32 -11 36 -26 3 -28 6 -27 47 1 35 7 49 27 65 24 20 52 91 41 107 -10 17 19 95 47 127 22 25 29 43 29 74 0 38 9 82 31 155 8 27 6 41 -16 86 -26 56 -33 121 -14 132 6 4 9 23 7 43 -6 69 30 46 46 -30 5 -22 15 -29 54 -40 l47 -14 3 -112 c1 -62 -1 -112 -5 -112 -4 0 -8 -10 -9 -22 0 -13 -7 -44 -14 -70 -13 -45 -13 -49 8 -78 22 -29 22 -36 16 -145 -4 -63 -10 -115 -14 -115 -13 0 -30 -51 -30 -89 0 -20 7 -46 15 -57 13 -18 14 -17 10 11 -2 17 -2 24 1 18 3 -7 21 -13 40 -13 29 0 36 -5 48 -32 20 -46 45 -78 46 -57 0 17 50 69 67 69 6 0 18 -12 28 -26 13 -20 14 -28 5 -40 -7 -7 -17 -11 -23 -7 -6 3 -7 1 -3 -6 5 -8 12 -9 19 -3 7 5 26 13 44 16 21 5 40 20 58 47 29 41 56 49 81 24 9 -9 11 -15 4 -15 -6 0 -8 -4 -5 -10 3 -5 1 -10 -5 -10 -6 0 -8 -4 -5 -10 3 -5 1 -10 -5 -10 -6 0 -8 -5 -5 -10 9 -15 -23 -62 -37 -54 -6 4 -8 3 -5 -3 8 -13 57 -23 57 -12 0 12 47 11 54 0 3 -5 15 -7 26 -4 11 3 20 1 20 -3 0 -5 30 -9 68 -10 148 -3 204 -7 215 -18 7 -6 44 -13 82 -15 76 -3 89 -9 83 -37 -4 -20 2 -20 -145 -8 l-73 6 6 -30 c5 -24 1 -36 -19 -56 -28 -28 -74 -35 -95 -14 -8 8 -15 8 -24 1 -7 -6 -29 -13 -48 -15 -19 -1 -37 -6 -40 -10 -3 -4 -20 -8 -38 -10 -18 -1 -32 -6 -32 -10 0 -4 -8 -5 -17 -2 -10 3 -6 -3 10 -12 15 -10 27 -22 27 -27 0 -4 5 -5 10 -2 6 3 10 2 10 -4 0 -6 7 -8 15 -5 16 7 45 -12 45 -28 0 -11 -68 -2 -85 12 -15 11 -95 17 -95 7 0 -5 -9 -7 -20 -4 -11 3 -20 1 -20 -3 0 -15 -63 -32 -71 -19 -4 7 -21 12 -38 13 -17 0 -31 4 -31 9 0 4 -5 6 -12 5 -7 -2 -15 11 -19 27 -4 17 -7 24 -8 18 0 -7 -12 -15 -26 -19 -24 -6 -25 -8 -9 -25 9 -10 13 -23 9 -28 -7 -12 -78 -15 -89 -4 -3 4 -15 7 -25 8 -16 1 -18 -5 -16 -39 2 -23 9 -57 16 -76 8 -19 12 -38 11 -42 -1 -5 2 -8 7 -8 10 0 31 -48 34 -78 1 -12 4 -22 8 -22 9 0 39 -76 44 -110 2 -14 8 -40 14 -57 5 -18 7 -33 5 -33 -3 0 2 -7 10 -16 9 -8 16 -31 16 -50 0 -33 -1 -34 -40 -34 -38 0 -40 1 -41 33 -6 150 -9 181 -23 202 -9 14 -16 29 -16 36 0 6 -13 27 -30 46 -16 18 -30 38 -30 44 0 5 -12 28 -27 52 -14 23 -26 42 -25 42 1 0 -1 10 -5 23 -4 17 -10 21 -25 16 -11 -3 -33 0 -49 7 -43 17 -53 3 -50 -79 3 -86 -6 -127 -24 -112 -14 11 -26 60 -16 60 4 0 7 9 7 20 0 11 -4 20 -9 20 -5 0 -7 11 -5 25 3 14 1 25 -3 25 -5 0 -9 7 -9 16 0 11 -6 14 -20 9 -24 -8 -25 2 -6 73 7 29 11 63 9 75 -3 14 2 29 11 36 17 14 23 46 7 37 -5 -3 -24 8 -42 25 -18 16 -41 35 -51 40 -11 6 -17 13 -14 16 12 13 -24 39 -143 100 -77 40 -99 63 -61 63 24 0 80 -30 80 -43 0 -4 4 -6 9 -2 5 3 20 1 33 -4 13 -5 42 -15 66 -22 23 -7 42 -16 42 -20 0 -4 13 -3 29 2 33 12 32 21 -5 77 -13 18 -25 28 -29 22 -12 -20 -295 312 -295 346 0 8 -4 14 -9 14 -9 0 -72 89 -103 146 -9 17 -31 46 -48 65 -17 19 -34 46 -37 61 -3 15 -16 37 -29 49 -13 12 -24 26 -24 30 0 15 -51 84 -78 106 -15 12 -24 22 -20 23 12 0 -46 60 -59 60 -8 0 -17 10 -22 23 -5 12 -29 50 -55 83 -25 34 -46 66 -46 71 0 6 -9 18 -20 28 -11 10 -20 24 -20 30 0 7 -7 18 -16 26 -8 7 -13 21 -11 31 3 10 1 18 -4 18 -10 0 -12 53 -2 64 4 3 10 3 13 -1 4 -5 27 -33 53 -64z"/>
 </g>
<g id="layer109" fill="#d5a0a0" stroke="none">
 <path d="M0 3080 l0 -3080 6750 0 6750 0 0 3080 0 3080 -6750 0 -6750 0 0 -3080z m5224 591 c48 -61 92 -111 96 -111 5 0 12 5 15 10 10 16 24 2 41 -40 9 -21 26 -46 39 -54 13 -9 33 -41 45 -73 12 -32 25 -62 29 -68 5 -5 28 -46 51 -90 24 -44 60 -100 80 -125 21 -25 44 -58 53 -75 45 -89 255 -350 323 -401 17 -14 42 -40 55 -58 24 -35 54 -39 44 -5 -4 12 -1 21 9 25 26 10 18 32 -11 36 -26 3 -28 6 -27 47 1 35 7 49 27 65 24 20 52 91 41 107 -10 17 19 95 47 127 22 25 29 43 29 74 0 38 9 82 31 155 8 27 6 41 -16 86 -26 56 -33 121 -14 132 6 4 9 23 7 43 -6 69 30 46 46 -30 5 -22 15 -29 54 -40 l47 -14 3 -104 c2 -82 -2 -118 -18 -171 -25 -83 -25 -90 1 -123 20 -26 21 -31 10 -176 -16 -222 -18 -210 24 -210 30 0 37 -5 49 -32 28 -63 31 -64 66 -24 38 43 52 45 75 10 16 -24 16 -27 -2 -47 -10 -12 -11 -17 -3 -10 8 6 29 14 47 17 21 5 40 20 58 47 29 41 56 49 81 24 9 -9 11 -15 4 -15 -6 0 -8 -4 -5 -10 3 -5 1 -10 -5 -10 -6 0 -8 -4 -5 -10 3 -5 1 -10 -5 -10 -6 0 -8 -5 -5 -10 9 -15 -23 -62 -37 -54 -6 4 -8 3 -5 -3 8 -13 57 -23 57 -12 0 12 47 11 54 0 3 -5 15 -7 26 -4 11 3 20 1 20 -3 0 -5 30 -9 68 -10 136 -2 197 -7 217 -17 11 -6 52 -13 90 -16 67 -6 70 -7 70 -31 0 -28 11 -27 -142 -14 l-73 6 6 -30 c5 -24 1 -36 -19 -56 -28 -28 -74 -35 -95 -14 -8 8 -15 8 -24 1 -7 -6 -29 -13 -48 -15 -19 -1 -37 -6 -40 -10 -3 -4 -20 -8 -38 -10 -18 -1 -32 -6 -32 -10 0 -4 -8 -5 -17 -2 -10 3 -6 -3 10 -12 15 -10 27 -22 27 -27 0 -4 5 -5 10 -2 6 3 10 2 10 -4 0 -6 7 -8 15 -5 16 7 45 -12 45 -28 0 -12 -70 -1 -84 13 -16 15 -83 10 -142 -11 -51 -18 -58 -18 -80 -3 -13 8 -31 13 -39 9 -8 -3 -15 -1 -15 4 0 6 -6 9 -12 8 -7 -2 -14 7 -16 18 -3 20 -6 21 -32 11 -27 -10 -28 -12 -14 -28 9 -10 13 -23 9 -28 -7 -12 -78 -15 -89 -4 -3 4 -15 7 -25 8 -16 1 -18 -5 -16 -39 2 -23 9 -57 16 -76 8 -19 12 -38 11 -42 -1 -5 2 -8 7 -8 10 0 31 -48 34 -78 1 -12 4 -22 8 -22 9 0 52 -111 45 -117 -2 -2 5 -28 17 -56 11 -29 21 -70 21 -92 1 -37 -1 -40 -28 -43 -16 -2 -32 0 -37 5 -5 5 -11 56 -14 113 -3 68 -10 112 -20 126 -8 13 -15 28 -15 35 0 6 -13 27 -30 46 -16 18 -30 38 -30 44 0 5 -12 28 -27 52 -14 23 -26 42 -25 42 1 0 -1 10 -5 23 -4 17 -10 21 -25 16 -11 -3 -33 0 -49 7 -43 17 -53 3 -50 -79 3 -86 -6 -127 -24 -112 -14 11 -26 60 -16 60 4 0 7 9 7 20 0 11 -4 20 -9 20 -5 0 -7 11 -5 25 3 14 1 25 -3 25 -5 0 -9 7 -9 16 0 11 -6 14 -20 9 -24 -8 -25 2 -6 73 7 29 11 63 9 75 -3 14 2 29 11 36 17 14 23 46 7 37 -5 -3 -24 8 -42 25 -18 16 -41 35 -51 40 -11 6 -17 13 -14 16 12 13 -24 39 -143 100 -77 40 -99 63 -61 63 24 0 80 -30 80 -43 0 -4 4 -6 9 -2 5 3 20 1 33 -4 152 -58 195 -49 135 29 -10 14 -24 25 -30 25 -28 1 -297 320 -297 351 0 8 -4 14 -9 14 -9 0 -72 89 -103 146 -9 17 -31 46 -48 65 -17 19 -34 46 -37 61 -3 15 -16 37 -29 49 -13 12 -24 26 -24 30 0 13 -61 99 -70 99 -5 0 -23 20 -40 45 -17 25 -38 45 -46 45 -8 0 -18 10 -23 23 -5 12 -29 50 -55 83 -25 34 -46 66 -46 71 0 6 -9 18 -20 28 -11 10 -20 24 -20 30 0 7 -7 18 -15 25 -16 14 -31 93 -20 111 6 8 12 6 24 -8 9 -11 56 -71 105 -132z"/>
 <path d="M6327 2707 c-11 -29 -8 -91 6 -110 10 -15 12 -9 9 35 -1 29 -4 62 -5 73 -2 19 -3 19 -10 2z"/>
 </g>
<g id="layer110" fill="#d0adac" stroke="none">
 <path d="M0 3080 l0 -3080 6750 0 6750 0 0 3080 0 3080 -6750 0 -6750 0 0 -3080z m5224 591 c48 -61 92 -111 96 -111 5 0 12 5 15 10 10 16 24 2 41 -40 9 -21 26 -46 39 -54 13 -9 33 -41 45 -73 12 -32 25 -62 29 -68 5 -5 28 -46 51 -90 24 -44 60 -100 80 -125 20 -25 43 -56 50 -70 45 -90 182 -262 321 -402 86 -87 116 -107 104 -68 -4 13 -1 22 9 26 26 10 18 32 -11 36 -26 3 -28 6 -27 47 1 35 7 49 27 65 24 20 52 91 41 107 -10 17 19 95 47 127 22 25 29 43 29 74 0 38 9 82 31 155 8 27 6 41 -16 86 -26 56 -33 121 -14 132 6 4 9 23 7 43 -6 69 30 46 46 -30 5 -22 15 -29 54 -40 l47 -14 3 -104 c2 -82 -2 -118 -18 -171 -25 -83 -25 -90 1 -123 20 -26 21 -31 10 -176 -16 -222 -18 -210 24 -210 30 0 37 -5 49 -32 28 -63 31 -64 66 -24 38 43 52 45 75 10 16 -24 16 -27 -2 -47 -10 -12 -11 -17 -3 -10 8 6 29 14 47 17 21 5 40 20 58 47 29 41 56 49 81 25 12 -13 12 -17 -1 -29 -8 -8 -11 -17 -8 -21 4 -3 1 -6 -6 -6 -7 0 -9 -5 -6 -10 10 -16 -23 -62 -38 -54 -7 4 -8 3 -4 -2 5 -5 40 -9 79 -10 38 0 73 -5 76 -10 4 -5 65 -11 137 -12 71 -2 139 -9 150 -15 11 -6 52 -13 90 -16 67 -6 70 -7 70 -31 0 -28 11 -27 -142 -14 l-73 6 6 -30 c5 -24 1 -36 -19 -55 -21 -22 -33 -25 -93 -25 -79 -1 -107 -4 -114 -14 -3 -4 -20 -8 -38 -10 -17 -1 -33 -7 -36 -14 -6 -15 23 -38 54 -42 28 -4 50 -19 50 -34 0 -12 -70 -1 -84 13 -16 15 -83 10 -142 -11 -51 -18 -58 -18 -80 -3 -13 8 -31 13 -39 9 -8 -3 -15 -1 -15 4 0 6 -6 9 -12 8 -7 -2 -14 7 -16 18 -3 20 -6 21 -32 11 -27 -10 -28 -12 -14 -28 9 -10 13 -23 9 -28 -7 -12 -78 -15 -89 -4 -3 4 -15 7 -26 8 -17 1 -19 -3 -13 -44 3 -25 18 -75 33 -111 15 -36 39 -92 54 -126 14 -33 31 -85 37 -115 6 -30 18 -67 26 -82 8 -16 13 -43 11 -60 -3 -27 -8 -33 -32 -35 -16 -2 -32 0 -37 5 -5 5 -11 56 -14 113 -3 68 -10 112 -20 126 -8 13 -15 28 -15 35 0 6 -13 27 -30 46 -16 18 -30 38 -30 44 0 5 -12 28 -27 52 -14 23 -26 44 -26 47 2 17 -12 30 -33 30 -13 0 -35 5 -49 12 -39 17 -49 0 -46 -80 3 -86 -6 -127 -24 -112 -14 12 -26 60 -15 60 6 0 -17 110 -26 119 -2 2 -11 -2 -20 -10 -16 -13 -17 -11 -10 26 4 22 10 66 13 97 3 32 12 63 19 69 15 12 20 44 5 35 -5 -3 -26 10 -47 29 -21 19 -41 35 -46 35 -4 0 -14 13 -22 29 -9 16 -23 31 -33 35 -42 16 -177 94 -181 104 -7 21 33 13 94 -18 32 -16 66 -30 75 -30 9 0 33 -7 54 -16 46 -19 87 -12 78 14 -10 27 -44 67 -56 67 -17 1 -164 164 -257 285 -19 25 -38 47 -42 48 -5 2 -8 8 -8 13 0 6 -19 38 -42 72 -24 34 -51 77 -61 95 -10 17 -32 47 -48 65 -17 17 -33 44 -36 59 -3 15 -16 37 -29 49 -13 12 -24 26 -24 30 0 13 -61 99 -70 99 -5 0 -23 20 -40 45 -17 25 -38 45 -46 45 -8 0 -18 10 -23 23 -5 12 -29 50 -55 83 -25 34 -46 66 -46 71 0 6 -9 18 -20 28 -11 10 -20 24 -20 30 0 7 -7 18 -15 25 -16 14 -31 93 -20 111 6 8 12 6 24 -8 9 -11 56 -71 105 -132z"/>
 <path d="M6327 2707 c-11 -29 -8 -91 6 -110 10 -15 12 -9 9 35 -1 29 -4 62 -5 73 -2 19 -3 19 -10 2z"/>
 </g>
<g id="layer111" fill="#f79fa2" stroke="none">
 <path d="M0 3080 l0 -3080 6750 0 6750 0 0 3080 0 3080 -6750 0 -6750 0 0 -3080z m5224 591 c48 -61 92 -111 96 -111 5 0 12 5 15 10 10 16 24 2 41 -40 9 -21 26 -46 39 -54 13 -9 33 -41 45 -73 12 -32 25 -62 29 -68 5 -5 28 -46 51 -90 24 -44 60 -100 80 -125 20 -25 43 -56 50 -70 45 -90 182 -262 321 -402 86 -87 116 -107 104 -68 -4 13 -1 22 9 26 26 10 18 32 -11 36 -26 3 -28 6 -27 47 1 35 7 49 27 65 24 20 52 91 41 107 -10 17 19 95 47 127 22 25 29 43 29 74 0 38 9 82 31 155 8 27 6 41 -16 86 -26 56 -33 121 -14 132 6 4 9 23 7 43 -6 69 30 46 46 -30 5 -22 15 -29 54 -40 l47 -14 3 -104 c2 -82 -2 -118 -18 -171 -25 -83 -25 -90 1 -123 20 -26 21 -31 10 -176 -16 -222 -18 -210 24 -210 30 0 37 -5 49 -32 28 -63 31 -64 66 -24 38 43 52 45 75 10 16 -24 16 -27 -2 -47 -10 -12 -11 -17 -3 -10 8 6 29 14 47 17 21 5 40 20 58 47 29 40 56 49 79 26 11 -10 8 -23 -13 -67 -17 -36 -31 -54 -41 -52 -8 2 -11 0 -7 -5 5 -4 40 -8 79 -9 38 0 73 -5 76 -10 4 -5 65 -11 137 -12 71 -2 139 -9 150 -15 11 -6 52 -13 90 -16 67 -6 70 -7 70 -31 0 -28 11 -27 -142 -14 l-73 6 6 -30 c5 -25 1 -36 -21 -58 -23 -23 -32 -26 -69 -21 -42 6 -190 -23 -207 -40 -12 -12 20 -37 51 -41 14 -2 34 -13 45 -24 l20 -20 -45 6 c-25 4 -49 11 -54 17 -16 15 -83 10 -142 -11 -51 -18 -58 -18 -80 -3 -13 8 -31 13 -39 9 -8 -3 -15 -1 -15 4 0 6 -6 9 -12 8 -7 -2 -14 7 -16 18 -3 20 -6 21 -32 11 -27 -10 -28 -12 -14 -28 9 -10 13 -23 9 -28 -8 -13 -59 -14 -102 -2 l-32 9 5 -46 c4 -26 19 -76 34 -112 15 -36 39 -92 54 -126 14 -33 31 -85 37 -115 6 -30 18 -67 26 -82 8 -16 13 -43 11 -60 -3 -27 -8 -33 -32 -35 -16 -2 -32 0 -37 5 -5 5 -11 56 -14 113 -3 68 -10 112 -20 126 -8 13 -15 28 -15 35 0 6 -13 27 -30 46 -16 18 -30 38 -30 44 0 5 -12 28 -27 52 -14 23 -26 44 -26 47 2 17 -12 30 -33 30 -13 0 -35 5 -49 12 -39 17 -49 0 -46 -80 2 -73 -6 -122 -20 -122 -10 0 -28 64 -19 68 6 2 -17 112 -26 121 -2 2 -10 -2 -19 -9 -23 -19 -25 -10 -9 50 8 30 14 71 14 91 0 20 7 42 15 49 16 13 21 45 6 36 -5 -3 -26 10 -47 29 -21 19 -41 35 -46 35 -4 0 -14 13 -22 29 -9 16 -23 31 -33 35 -42 16 -177 94 -181 104 -7 21 33 13 94 -18 32 -16 66 -30 75 -30 9 0 33 -7 54 -16 46 -19 87 -12 78 14 -10 27 -44 67 -56 67 -17 1 -164 164 -257 285 -19 25 -38 47 -42 48 -5 2 -8 8 -8 13 0 6 -19 38 -42 72 -24 34 -51 77 -61 95 -10 17 -32 47 -48 65 -17 17 -33 44 -36 59 -3 15 -16 37 -29 49 -13 12 -24 26 -24 30 0 13 -61 99 -70 99 -5 0 -23 20 -40 45 -17 25 -38 45 -46 45 -8 0 -18 10 -23 23 -5 12 -29 50 -55 83 -25 34 -46 66 -46 71 0 6 -9 18 -20 28 -11 10 -20 24 -20 30 0 7 -7 18 -15 25 -16 14 -31 93 -20 111 6 8 12 6 24 -8 9 -11 56 -71 105 -132z"/>
 <path d="M6327 2707 c-11 -29 -8 -91 6 -110 10 -15 12 -9 9 35 -1 29 -4 62 -5 73 -2 19 -3 19 -10 2z"/>
 </g>
<g id="layer112" fill="#f8b1b3" stroke="none">
 <path d="M0 3080 l0 -3080 6750 0 6750 0 0 3080 0 3080 -6750 0 -6750 0 0 -3080z m5224 591 c48 -61 92 -111 96 -111 5 0 12 5 15 10 10 16 24 2 41 -40 9 -21 26 -46 39 -54 13 -9 33 -41 45 -73 12 -32 25 -62 29 -68 5 -5 28 -46 51 -90 24 -44 60 -100 80 -125 20 -25 43 -56 50 -70 45 -90 182 -262 321 -402 86 -87 116 -107 104 -68 -4 13 -1 22 9 26 26 10 18 32 -11 36 -26 3 -28 6 -27 47 1 35 7 49 27 65 24 20 52 91 41 107 -10 17 19 95 47 127 22 25 29 43 29 74 0 38 9 82 31 155 8 27 6 41 -16 86 -26 56 -33 121 -14 132 6 4 9 23 7 43 -6 69 30 46 46 -30 5 -22 15 -29 54 -40 l47 -14 3 -104 c2 -82 -2 -118 -18 -171 -25 -84 -25 -90 1 -123 18 -23 21 -36 16 -87 -5 -56 6 -88 19 -55 3 8 12 12 19 10 7 -3 22 4 33 16 l19 21 -4 -25 c-3 -16 -10 -23 -19 -19 -8 3 -14 0 -14 -7 0 -7 -6 -10 -14 -7 -21 8 -48 -30 -37 -52 7 -12 6 -22 -2 -31 -10 -10 -9 -11 3 -4 25 14 43 14 31 0 -8 -9 -7 -13 4 -13 8 0 15 6 15 14 0 7 5 13 11 13 5 0 8 4 5 8 -3 5 2 9 10 9 8 0 13 -6 10 -12 -2 -7 1 -18 7 -24 6 -6 8 -13 5 -16 -3 -3 -13 1 -22 10 -12 13 -16 13 -16 3 0 -8 -9 -24 -21 -36 -11 -12 -17 -27 -13 -34 4 -7 3 -8 -5 -4 -6 4 -14 0 -17 -8 -3 -9 -10 -13 -15 -10 -5 3 -9 -6 -9 -20 0 -23 4 -26 35 -26 30 0 37 -5 49 -32 28 -63 31 -64 66 -24 38 43 52 45 75 10 16 -24 16 -27 -2 -47 -10 -12 -11 -17 -3 -10 8 6 29 14 47 17 21 5 40 20 58 47 28 40 55 49 79 27 11 -10 9 -21 -7 -58 -11 -25 -26 -52 -33 -61 -13 -15 -8 -16 56 -15 39 0 74 -4 78 -9 4 -6 65 -12 137 -13 71 -2 139 -9 150 -15 11 -6 52 -13 90 -16 67 -6 70 -7 70 -31 0 -28 11 -27 -142 -14 l-73 6 6 -30 c5 -25 1 -36 -21 -58 -23 -23 -32 -26 -69 -21 -42 6 -190 -23 -207 -40 -12 -12 20 -37 51 -41 14 -2 34 -13 45 -24 l20 -20 -45 6 c-25 4 -49 11 -54 17 -16 15 -83 10 -142 -11 -51 -18 -58 -18 -80 -3 -13 8 -31 13 -39 9 -8 -3 -15 -1 -15 4 0 6 -6 9 -12 8 -7 -2 -14 7 -16 18 -3 20 -6 21 -32 11 -27 -10 -28 -12 -14 -28 9 -10 13 -23 9 -28 -8 -13 -59 -14 -102 -2 l-32 9 5 -46 c4 -26 19 -76 34 -112 15 -36 39 -92 54 -126 14 -33 31 -85 37 -115 6 -30 18 -67 26 -82 8 -16 13 -43 11 -60 -3 -27 -8 -33 -32 -35 -16 -2 -32 0 -37 5 -5 5 -11 56 -14 113 -3 68 -10 112 -20 126 -8 13 -15 28 -15 35 0 6 -13 27 -30 46 -16 18 -30 38 -30 44 0 5 -12 28 -27 52 -14 23 -26 44 -26 47 2 17 -12 30 -33 30 -13 0 -35 5 -49 12 -39 17 -49 0 -46 -80 2 -73 -6 -122 -20 -122 -10 0 -28 64 -19 68 6 2 -17 112 -26 121 -2 2 -10 -2 -19 -9 -23 -19 -25 -10 -9 50 8 30 14 71 14 91 0 20 7 42 15 49 16 13 21 45 6 36 -5 -3 -26 10 -47 29 -21 19 -41 35 -46 35 -4 0 -14 13 -22 29 -9 16 -23 31 -33 35 -42 16 -177 94 -181 104 -7 21 33 13 94 -18 32 -16 66 -30 75 -30 9 0 33 -7 54 -16 46 -19 87 -12 78 14 -10 27 -44 67 -56 67 -17 1 -164 164 -257 285 -19 25 -38 47 -42 48 -5 2 -8 8 -8 13 0 6 -19 38 -42 72 -24 34 -51 77 -61 95 -10 17 -32 47 -48 65 -17 17 -33 44 -36 59 -3 15 -16 37 -29 49 -13 12 -24 26 -24 30 0 13 -61 99 -70 99 -5 0 -23 20 -40 45 -17 25 -38 45 -46 45 -8 0 -18 10 -23 23 -5 12 -29 50 -55 83 -25 34 -46 66 -46 71 0 6 -9 18 -20 28 -11 10 -20 24 -20 30 0 7 -7 18 -15 25 -16 14 -31 93 -20 111 6 8 12 6 24 -8 9 -11 56 -71 105 -132z m1263 -805 c-9 -13 -13 -27 -10 -30 4 -4 8 -13 9 -21 2 -11 -2 -12 -16 -5 -13 7 -21 7 -25 0 -4 -6 -12 -10 -18 -9 -30 4 -42 -3 -22 -11 19 -8 19 -9 -1 -9 -12 -1 -24 6 -28 14 -5 13 5 20 27 16 4 0 7 4 7 10 0 8 6 7 17 -2 15 -12 16 -12 11 2 -5 13 -2 16 14 11 14 -3 19 -1 14 6 -4 6 1 20 11 32 24 27 29 25 10 -4z"/>
 <path d="M6352 2691 c4 -13 18 -16 19 -4 0 4 -5 9 -11 12 -7 2 -11 -2 -8 -8z"/>
 </g>
<g id="layer113" fill="#fabfc1" stroke="none">
 <path d="M0 3080 l0 -3080 6750 0 6750 0 0 3080 0 3080 -6750 0 -6750 0 0 -3080z m5224 591 c48 -61 92 -111 96 -111 5 0 12 5 15 10 10 16 24 2 41 -40 9 -21 26 -46 39 -54 13 -9 33 -41 45 -73 12 -32 25 -62 29 -68 5 -5 28 -46 51 -90 24 -44 60 -100 80 -125 20 -25 43 -56 50 -70 45 -90 182 -262 321 -402 86 -87 116 -107 104 -68 -4 13 -1 22 9 26 26 10 18 32 -11 36 -26 3 -28 6 -27 47 1 35 7 49 27 65 24 20 52 91 41 107 -10 17 19 95 47 127 22 25 29 43 29 74 0 38 9 82 31 155 8 27 6 41 -16 86 -26 56 -33 121 -14 132 6 4 9 23 7 43 -6 69 30 46 46 -30 5 -22 15 -29 54 -40 l47 -14 3 -104 c2 -82 -2 -118 -18 -171 -25 -83 -25 -90 -1 -121 13 -16 21 -43 22 -77 2 -29 7 -55 12 -58 6 -4 7 5 3 21 -4 17 -3 25 3 22 5 -4 13 -1 17 5 4 8 3 9 -4 5 -7 -4 -12 -5 -12 -2 0 2 -3 12 -7 21 -5 14 -3 16 13 8 10 -6 26 -8 34 -6 9 3 11 1 4 -4 -6 -4 -14 -17 -18 -28 -7 -18 -6 -18 13 2 12 12 21 28 21 35 0 9 3 9 10 -2 8 -12 11 -12 27 2 10 8 25 13 33 10 21 -7 53 -42 39 -42 -8 0 -8 -4 -1 -12 13 -17 3 -75 -14 -82 -8 -3 -14 -1 -14 4 0 6 -5 10 -11 10 -6 0 -4 -9 5 -21 13 -20 13 -24 -6 -50 -12 -15 -25 -26 -29 -23 -4 2 -15 -6 -24 -18 -14 -21 -14 -24 2 -35 9 -7 13 -13 7 -13 -5 0 -2 -5 6 -10 13 -8 12 -10 -2 -10 -10 0 -18 5 -18 10 0 6 -5 10 -10 10 -6 0 -9 -3 -9 -7 4 -22 -3 -32 -16 -27 -8 4 -12 11 -8 17 3 6 1 7 -6 3 -8 -5 -9 -12 -3 -19 5 -7 15 -28 21 -47 6 -19 18 -43 26 -54 13 -17 15 -16 45 18 38 43 52 45 75 10 16 -24 16 -27 -2 -47 -10 -12 -11 -17 -3 -10 8 6 29 14 47 17 21 5 40 20 58 47 28 40 55 49 79 27 11 -10 9 -21 -7 -58 -11 -25 -27 -54 -36 -64 -15 -18 -15 -19 26 -12 24 3 63 2 88 -4 25 -6 100 -13 168 -16 67 -4 131 -11 142 -17 11 -6 52 -13 90 -16 67 -6 70 -7 70 -31 0 -28 11 -27 -142 -14 l-73 6 6 -30 c5 -25 1 -36 -21 -58 -23 -23 -32 -26 -69 -21 -44 6 -190 -23 -209 -42 -10 -10 40 -41 66 -41 8 0 22 -10 33 -21 l19 -22 -45 7 c-25 4 -49 11 -54 17 -16 15 -83 10 -142 -11 -51 -18 -58 -18 -80 -3 -13 8 -31 13 -39 9 -8 -3 -15 -1 -15 4 0 6 -6 9 -12 8 -7 -2 -14 7 -16 18 -3 20 -6 21 -32 11 -27 -10 -28 -12 -14 -28 9 -10 13 -23 9 -28 -8 -13 -59 -14 -102 -2 l-32 9 5 -46 c4 -26 19 -76 34 -112 15 -36 39 -92 54 -126 14 -33 31 -85 37 -115 6 -30 18 -67 26 -82 8 -16 13 -43 11 -60 -3 -27 -8 -33 -32 -35 -16 -2 -32 0 -37 5 -5 5 -11 56 -14 113 -3 68 -10 112 -20 126 -8 13 -15 28 -15 35 0 6 -13 27 -30 46 -16 18 -30 38 -30 44 0 5 -12 28 -27 52 -14 23 -26 44 -26 47 2 17 -12 30 -33 30 -13 0 -35 5 -49 12 -39 17 -49 0 -46 -80 2 -74 -6 -122 -20 -122 -10 0 -25 57 -21 74 5 15 -19 116 -27 116 -4 0 -12 -5 -19 -12 -19 -19 -21 -6 -6 52 8 30 14 70 14 89 0 19 8 43 17 54 17 18 17 19 -1 29 -11 6 -32 24 -49 39 -16 16 -34 29 -38 29 -5 0 -15 13 -23 29 -9 16 -23 31 -33 35 -42 16 -177 94 -181 104 -7 21 33 13 94 -18 32 -16 66 -30 75 -30 9 0 33 -7 54 -16 46 -19 87 -12 78 14 -10 27 -44 67 -56 67 -17 1 -164 164 -257 285 -19 25 -38 47 -42 48 -5 2 -8 8 -8 13 0 6 -19 38 -42 72 -24 34 -51 77 -61 95 -10 17 -32 47 -48 65 -17 17 -33 44 -36 59 -3 15 -16 37 -29 49 -13 12 -24 26 -24 30 0 13 -61 99 -70 99 -5 0 -23 20 -40 45 -17 25 -38 45 -46 45 -8 0 -18 10 -23 23 -5 12 -29 50 -55 83 -25 34 -46 66 -46 71 0 6 -9 18 -20 28 -11 10 -20 24 -20 30 0 7 -7 18 -15 25 -16 14 -31 93 -20 111 6 8 12 6 24 -8 9 -11 56 -71 105 -132z m1274 -962 c-2 -6 -8 -10 -13 -10 -5 0 -11 4 -13 10 -2 6 4 11 13 11 9 0 15 -5 13 -11z"/>
 <path d="M6452 2816 c4 -5 2 -16 -5 -24 -10 -13 -9 -14 1 -8 9 6 12 3 10 -9 -2 -11 4 -19 16 -21 13 -2 15 1 8 8 -6 6 -8 16 -6 23 3 6 -3 18 -13 26 -10 7 -15 9 -11 5z"/>
 </g>
<g id="layer114" fill="#fad0d2" stroke="none">
 <path d="M0 3080 l0 -3080 6750 0 6750 0 0 3080 0 3080 -6750 0 -6750 0 0 -3080z m5224 591 c48 -61 92 -111 96 -111 5 0 12 5 15 10 10 16 23 3 44 -45 11 -25 26 -45 34 -45 8 0 24 -24 36 -52 12 -29 28 -65 36 -81 64 -123 103 -188 135 -227 20 -25 43 -56 50 -70 45 -90 182 -262 321 -402 86 -87 116 -107 104 -68 -4 13 -1 22 9 26 25 10 19 34 -8 34 -33 0 -39 13 -32 64 5 32 13 46 30 54 22 10 51 85 40 104 -10 16 19 94 47 126 22 25 29 43 29 74 0 38 9 82 31 155 8 27 6 41 -16 86 -26 56 -33 121 -14 132 6 4 9 23 7 43 -6 69 30 46 46 -30 5 -22 15 -29 54 -40 l47 -14 3 -104 c2 -82 -2 -118 -18 -172 -20 -65 -19 -118 1 -118 5 0 14 -10 19 -22 l9 -23 0 23 c1 12 5 22 11 22 5 0 9 -10 7 -21 -1 -12 4 -23 11 -25 7 -1 8 0 3 2 -5 3 -1 14 10 25 11 11 17 25 12 32 -5 9 -2 8 9 -1 12 -10 21 -10 42 -1 39 18 102 -3 127 -44 22 -37 22 -123 0 -137 -8 -4 -10 -13 -7 -19 12 -19 -4 -34 -21 -19 -12 10 -15 9 -13 -7 4 -37 0 -45 -22 -45 -13 0 -18 -4 -13 -8 15 -11 15 -44 0 -38 -7 2 -21 -2 -32 -10 -10 -9 -13 -13 -7 -10 14 7 23 -13 16 -33 -4 -11 -6 -11 -13 0 -7 11 -12 9 -24 -8 -8 -12 -22 -29 -31 -37 -15 -16 -13 -27 13 -58 14 -15 17 -14 45 18 36 41 50 42 73 8 16 -24 16 -27 -2 -47 -10 -12 -11 -17 -3 -10 8 6 29 14 47 17 21 5 40 20 58 47 28 40 60 50 82 28 12 -12 -16 -89 -46 -123 -15 -18 -15 -19 26 -12 24 3 63 2 88 -4 25 -6 100 -13 168 -16 67 -4 131 -11 142 -17 11 -6 52 -13 90 -16 67 -6 70 -7 70 -31 0 -28 11 -27 -142 -14 l-73 6 6 -30 c5 -25 1 -36 -21 -58 -23 -23 -32 -26 -69 -21 -44 6 -190 -23 -209 -42 -10 -10 40 -41 66 -41 8 0 22 -10 33 -21 l19 -22 -45 7 c-25 4 -49 11 -54 17 -16 15 -83 10 -142 -11 -51 -18 -58 -18 -80 -3 -13 8 -31 13 -39 9 -8 -3 -15 -1 -15 4 0 6 -6 9 -12 8 -7 -2 -14 7 -16 18 -3 20 -6 21 -32 11 -27 -10 -28 -12 -14 -28 9 -10 13 -23 9 -28 -8 -13 -59 -14 -102 -2 l-32 9 5 -46 c4 -26 19 -76 34 -112 15 -36 39 -92 54 -126 14 -33 31 -85 37 -115 6 -30 18 -67 26 -82 8 -16 13 -43 11 -60 -3 -27 -8 -33 -32 -35 -16 -2 -32 0 -37 5 -5 5 -11 56 -14 113 -3 68 -10 112 -20 126 -8 13 -15 28 -15 35 0 6 -13 27 -30 46 -16 18 -30 38 -30 44 0 5 -12 28 -27 52 -14 23 -26 44 -26 47 2 17 -12 30 -33 30 -13 0 -35 5 -49 12 -40 18 -47 1 -47 -111 0 -55 -4 -101 -9 -101 -13 0 -29 36 -30 67 -2 46 -20 133 -28 133 -4 0 -12 -5 -19 -12 -19 -19 -21 -6 -6 52 8 30 14 70 14 89 0 19 8 43 17 54 17 18 17 19 -1 29 -11 6 -32 24 -49 39 -16 16 -34 29 -38 29 -5 0 -15 13 -23 29 -9 16 -23 31 -33 35 -42 16 -177 94 -181 104 -7 21 33 13 94 -18 32 -16 66 -30 75 -30 9 0 33 -7 54 -16 46 -19 87 -12 78 14 -13 35 -47 72 -56 63 -6 -6 -18 1 -31 19 -12 16 -59 73 -106 127 -47 54 -101 118 -120 143 -19 25 -38 47 -42 48 -5 2 -8 8 -8 13 0 6 -19 38 -42 72 -24 34 -51 77 -61 95 -10 17 -32 47 -48 65 -17 17 -33 44 -36 59 -3 15 -16 37 -29 49 -13 12 -24 26 -24 30 0 13 -61 99 -70 99 -5 0 -23 20 -40 45 -17 25 -38 45 -46 45 -8 0 -18 10 -23 23 -5 12 -29 50 -55 83 -25 34 -46 66 -46 71 0 6 -9 18 -20 28 -11 10 -20 24 -20 30 0 7 -7 18 -15 25 -16 14 -31 93 -20 111 6 8 12 6 24 -8 9 -11 56 -71 105 -132z"/>
 </g>
<g id="layer115" fill="#fce0e1" stroke="none">
 <path d="M0 3080 l0 -3080 6750 0 6750 0 0 3080 0 3080 -6750 0 -6750 0 0 -3080z m5224 591 c48 -61 92 -111 96 -111 5 0 12 5 15 10 10 16 23 3 44 -45 11 -25 26 -45 34 -45 8 0 24 -24 36 -52 12 -29 28 -65 36 -81 64 -123 103 -188 135 -227 20 -25 43 -56 50 -70 45 -90 182 -262 321 -402 86 -87 116 -107 104 -69 -4 13 0 23 12 30 20 11 10 27 -22 33 -16 3 -20 12 -21 48 -1 37 4 49 26 70 28 25 54 85 44 101 -10 17 18 94 47 127 22 25 29 43 29 74 0 38 9 82 31 155 8 27 6 41 -16 86 -26 56 -33 121 -14 132 6 4 9 23 7 43 -6 69 30 46 46 -30 5 -22 15 -29 54 -40 l47 -14 3 -104 c2 -83 -2 -118 -18 -173 -24 -78 -20 -103 16 -110 18 -3 31 3 49 24 20 25 24 26 28 11 3 -9 5 -3 6 13 1 25 7 33 34 43 45 16 49 15 42 -8 -5 -15 -3 -18 9 -14 8 3 23 1 34 -5 16 -8 21 -7 26 5 6 16 26 10 26 -7 0 -6 -5 -7 -12 -3 -7 4 -8 3 -4 -5 4 -6 11 -9 16 -6 13 8 40 -6 51 -27 8 -15 8 -19 0 -14 -6 4 -11 0 -11 -8 0 -9 3 -15 8 -15 19 3 23 -2 12 -16 -13 -16 -6 -35 13 -34 9 0 9 2 0 6 -7 2 -13 9 -13 15 0 7 5 6 14 -1 19 -16 16 -109 -5 -124 -9 -7 -14 -18 -12 -24 3 -7 -3 -13 -12 -13 -9 0 -14 4 -10 9 3 5 0 13 -6 17 -8 4 -7 9 2 16 11 8 11 9 -1 5 -8 -2 -14 -14 -14 -26 1 -12 -3 -20 -10 -18 -6 3 -10 10 -8 16 1 6 -2 11 -8 11 -13 0 -13 -17 0 -25 6 -4 8 -11 5 -16 -3 -5 2 -6 12 -3 15 4 15 3 -2 -8 -11 -7 -21 -19 -23 -27 -2 -11 0 -12 11 -3 16 13 28 6 21 -12 -5 -13 -61 -15 -80 -4 -6 4 -11 1 -11 -7 0 -8 4 -12 8 -9 4 2 10 0 14 -6 4 -6 11 -7 17 -4 6 4 6 -2 -1 -15 -7 -11 -14 -21 -17 -21 -3 0 -3 4 1 9 3 5 0 13 -7 17 -7 4 -10 4 -6 -1 4 -4 3 -14 -4 -22 -8 -11 -8 -17 2 -26 10 -10 11 -9 5 2 -6 10 -4 12 4 7 14 -9 -3 -36 -23 -36 -18 0 -61 -52 -59 -70 2 -10 0 -10 -3 -2 -3 6 -13 12 -22 12 -15 0 -15 -1 0 -17 14 -13 20 -14 32 -4 9 8 13 18 9 24 -3 5 -1 7 4 4 6 -4 16 0 23 8 18 22 35 18 55 -11 16 -24 16 -27 -2 -47 -10 -12 -11 -17 -3 -10 8 6 29 14 47 17 21 5 40 20 58 47 28 40 60 50 82 28 12 -12 -16 -89 -46 -123 -15 -18 -15 -19 26 -12 24 3 63 2 88 -4 25 -6 100 -13 168 -16 67 -4 131 -11 142 -17 11 -6 52 -13 90 -16 67 -6 70 -7 70 -31 0 -28 11 -27 -142 -14 l-73 6 6 -30 c5 -25 1 -36 -21 -58 -23 -23 -32 -26 -69 -21 -44 6 -190 -23 -209 -42 -10 -10 40 -41 66 -41 8 0 22 -10 33 -21 l19 -22 -45 7 c-25 4 -49 11 -54 17 -16 15 -83 10 -142 -11 -51 -18 -58 -18 -80 -3 -13 8 -31 13 -39 9 -8 -3 -15 -1 -15 4 0 6 -6 9 -12 8 -7 -2 -14 7 -16 18 -3 20 -6 21 -32 11 -27 -10 -28 -12 -14 -28 9 -10 13 -23 9 -28 -8 -13 -59 -14 -102 -2 l-32 9 5 -46 c4 -26 19 -76 34 -112 15 -36 39 -92 54 -126 14 -33 31 -85 37 -115 6 -30 18 -67 26 -82 8 -16 13 -43 11 -60 -3 -27 -8 -33 -32 -35 -16 -2 -32 0 -37 5 -5 5 -11 56 -14 113 -3 68 -10 112 -20 126 -8 13 -15 28 -15 35 0 6 -13 27 -30 46 -16 18 -30 38 -30 44 0 5 -12 28 -27 52 -14 23 -26 44 -26 47 2 17 -12 30 -33 30 -13 0 -35 5 -49 12 -40 18 -47 1 -47 -111 0 -55 -4 -101 -9 -101 -13 0 -29 36 -30 67 -2 46 -20 133 -28 133 -4 0 -12 -5 -19 -12 -19 -19 -21 -6 -6 52 8 30 14 70 14 89 0 19 8 43 17 54 17 18 17 19 -1 29 -11 6 -32 24 -49 39 -16 16 -34 29 -38 29 -5 0 -15 13 -23 29 -9 16 -23 31 -33 35 -42 16 -177 94 -181 104 -7 21 33 13 94 -18 32 -16 66 -30 75 -30 9 0 33 -7 54 -16 46 -19 87 -12 78 14 -13 35 -47 72 -56 63 -6 -6 -18 1 -31 19 -12 16 -59 73 -106 127 -47 54 -101 118 -120 143 -19 25 -38 47 -42 48 -5 2 -8 8 -8 13 0 6 -19 38 -42 72 -24 34 -51 77 -61 95 -10 17 -32 47 -48 65 -17 17 -33 44 -36 59 -3 15 -16 37 -29 49 -13 12 -24 26 -24 30 0 13 -61 99 -70 99 -5 0 -23 20 -40 45 -17 25 -38 45 -46 45 -8 0 -18 10 -23 23 -5 12 -29 50 -55 83 -25 34 -46 66 -46 71 0 6 -9 18 -20 28 -11 10 -20 24 -20 30 0 7 -7 18 -15 25 -16 14 -31 93 -20 111 6 8 12 6 24 -8 9 -11 56 -71 105 -132z"/>
 <path d="M6652 2915 c-18 -21 7 -21 34 0 19 14 19 14 -1 14 -11 0 -26 -6 -33 -14z"/>
 <path d="M6680 2884 c0 -8 -4 -12 -10 -9 -12 8 -13 -5 -1 -24 6 -9 11 -10 15 -2 4 6 5 11 1 11 -3 0 -1 9 5 20 7 14 7 20 0 20 -5 0 -10 -7 -10 -16z"/>
 <path d="M6515 2640 c-4 -6 -10 -8 -14 -6 -4 3 -8 -1 -8 -9 0 -21 10 -19 25 5 7 11 10 20 8 20 -3 0 -8 -5 -11 -10z"/>
 </g>
<g id="layer116" fill="#f8e8df" stroke="none">
 <path d="M0 3080 l0 -3080 6750 0 6750 0 0 3080 0 3080 -6750 0 -6750 0 0 -3080z m5224 591 c48 -61 92 -111 96 -111 5 0 12 5 15 10 10 16 23 3 44 -45 11 -25 26 -45 34 -45 8 0 24 -24 36 -52 12 -29 28 -65 36 -81 65 -123 103 -188 135 -227 21 -25 44 -58 53 -75 17 -35 73 -119 102 -154 143 -175 299 -335 318 -327 7 2 3 5 -8 5 -16 1 -17 3 -6 10 8 5 11 16 8 26 -4 9 -11 14 -16 11 -4 -3 -17 4 -27 17 -18 20 -18 21 0 7 24 -18 44 -21 53 -7 3 7 3 9 -2 5 -12 -11 -35 11 -35 34 0 11 -10 28 -22 37 -15 13 -18 20 -9 25 7 4 10 2 9 -5 -2 -6 2 -13 7 -15 14 -5 35 52 28 74 -4 13 -3 14 5 4 7 -11 10 -10 16 3 3 9 -1 23 -9 31 -8 9 -15 18 -15 22 0 3 5 1 12 -6 14 -14 45 -16 53 -2 3 5 1 18 -4 28 -12 22 9 71 53 122 19 23 26 43 26 72 0 39 9 82 31 155 8 27 6 41 -16 86 -26 56 -33 121 -14 132 6 4 9 23 7 43 -6 69 30 46 46 -30 5 -22 15 -29 54 -40 l47 -14 3 -102 c1 -57 -2 -119 -7 -138 -8 -30 -7 -35 5 -30 8 3 14 1 14 -4 0 -6 -7 -10 -15 -10 -8 0 -15 -7 -15 -15 0 -8 5 -15 10 -15 6 0 10 6 10 13 0 9 2 9 9 -1 6 -11 9 -9 14 7 4 15 12 20 33 18 20 -1 30 3 32 16 2 9 -2 17 -8 17 -6 0 -9 -4 -6 -9 3 -5 0 -11 -8 -14 -8 -3 -17 1 -20 9 -3 8 -2 12 3 9 6 -3 14 2 19 11 6 11 12 13 16 6 4 -6 14 -9 24 -6 12 4 13 3 4 -3 -7 -5 -10 -17 -6 -27 5 -13 9 -14 20 -5 8 6 11 15 8 20 -3 5 0 9 5 9 6 0 11 -6 11 -12 0 -10 2 -10 8 0 11 17 42 5 42 -17 0 -13 2 -14 9 -1 6 8 8 17 5 21 -2 4 0 11 6 14 6 4 10 3 9 -2 -4 -22 3 -30 26 -30 14 0 25 3 25 8 0 5 5 9 10 9 7 0 7 -7 -1 -21 -9 -18 -7 -25 21 -50 17 -16 35 -29 40 -29 4 0 10 -7 13 -14 4 -11 1 -13 -11 -10 -15 5 -14 3 2 -10 10 -8 16 -19 12 -24 -3 -5 2 -9 10 -9 8 0 13 6 10 14 -3 7 -1 13 5 13 15 0 1 -60 -20 -84 -15 -18 -15 -19 3 -12 16 5 17 4 6 -9 -12 -15 -4 -20 23 -16 4 0 7 -3 7 -8 0 -12 -32 -24 -39 -14 -3 4 -12 9 -20 11 -16 3 -11 -5 34 -57 11 -14 14 -20 5 -15 -33 19 -50 15 -56 -16 -4 -16 -11 -27 -16 -24 -5 3 -12 -3 -15 -15 -6 -22 -33 -30 -33 -9 0 6 -2 9 -5 6 -9 -8 6 -38 16 -32 5 3 6 -2 2 -11 -3 -9 -9 -12 -12 -7 -8 11 -42 12 -35 0 3 -5 11 -5 17 -1 7 3 4 -3 -5 -14 -10 -11 -18 -27 -18 -36 0 -20 -26 -23 -33 -4 -3 7 -6 6 -6 -5 -1 -9 -6 -20 -13 -24 -7 -4 -8 -3 -4 4 4 7 1 12 -8 12 -10 0 -13 -6 -10 -15 7 -18 25 -19 43 -2 11 10 12 8 6 -11 -4 -13 -2 -29 6 -38 9 -11 8 -19 -7 -37 -11 -12 -12 -17 -4 -10 8 6 29 14 47 17 21 5 40 20 58 47 28 40 60 50 82 28 12 -12 -16 -89 -46 -123 -15 -18 -15 -19 26 -12 24 3 63 2 88 -4 25 -6 100 -13 168 -16 67 -4 131 -11 142 -17 11 -6 52 -13 90 -16 67 -6 70 -7 70 -31 0 -28 11 -27 -142 -14 l-73 6 6 -30 c5 -25 1 -36 -21 -58 -23 -23 -32 -26 -69 -21 -44 6 -190 -23 -209 -42 -10 -10 40 -41 66 -41 8 0 22 -10 33 -21 l19 -22 -45 7 c-25 4 -49 11 -54 17 -16 15 -83 10 -142 -11 -51 -18 -58 -18 -80 -3 -13 8 -31 12 -40 9 -21 -8 -44 11 -44 34 0 16 -4 17 -30 7 -27 -10 -28 -12 -14 -28 9 -10 13 -23 9 -28 -8 -13 -59 -14 -102 -2 l-32 9 5 -46 c4 -26 19 -76 34 -112 15 -36 39 -92 54 -126 14 -33 31 -85 37 -115 6 -30 18 -67 26 -82 8 -16 13 -43 11 -60 -3 -27 -8 -33 -32 -35 -16 -2 -32 0 -37 5 -5 5 -11 56 -14 113 -3 68 -10 112 -20 126 -8 13 -15 28 -15 35 0 6 -13 27 -30 46 -16 18 -30 38 -30 44 0 5 -12 28 -27 52 -14 23 -26 44 -26 47 2 17 -12 30 -33 30 -13 0 -35 5 -49 12 -40 18 -47 1 -47 -111 0 -55 -4 -101 -9 -101 -13 0 -29 36 -30 67 -2 46 -20 133 -28 133 -4 0 -12 -5 -19 -12 -19 -19 -21 -6 -6 52 8 30 14 70 14 89 0 19 8 43 17 54 17 18 17 19 -1 29 -11 6 -32 24 -49 39 -16 16 -34 29 -38 29 -5 0 -15 13 -23 29 -9 16 -23 31 -33 35 -42 16 -177 94 -181 104 -7 21 33 13 94 -18 32 -16 66 -30 75 -30 9 0 33 -7 54 -16 46 -19 87 -12 78 14 -13 35 -47 72 -56 63 -6 -6 -18 1 -31 19 -12 16 -59 73 -106 127 -47 54 -101 118 -120 143 -19 25 -38 47 -42 48 -5 2 -8 8 -8 13 0 6 -19 38 -42 72 -24 34 -51 77 -61 95 -10 17 -32 47 -48 65 -17 17 -33 44 -36 59 -3 15 -16 37 -29 49 -13 12 -24 26 -24 30 0 13 -61 99 -70 99 -5 0 -23 20 -40 45 -17 25 -38 45 -46 45 -8 0 -18 10 -23 23 -5 12 -29 50 -55 83 -25 34 -46 66 -46 71 0 6 -9 18 -20 28 -11 10 -20 24 -20 30 0 7 -7 18 -15 25 -16 14 -31 93 -20 111 6 8 12 6 24 -8 9 -11 56 -71 105 -132z m1479 -934 c9 5 9 3 1 -8 -6 -8 -14 -21 -17 -29 -3 -8 -5 1 -5 20 0 19 2 29 5 22 2 -6 10 -9 16 -5z"/>
 </g>
<g id="layer117" fill="#ffffff" stroke="none">
 <path d="M0 3080 l0 -3080 6750 0 6750 0 0 3080 0 3080 -6750 0 -6750 0 0 -3080z m5148 695 c10 -11 51 -62 91 -112 64 -81 76 -92 97 -87 18 5 25 1 30 -12 13 -44 37 -83 54 -87 10 -2 23 -22 30 -43 11 -35 61 -134 120 -239 11 -20 32 -48 46 -63 14 -15 35 -45 46 -67 43 -82 170 -245 287 -367 56 -60 80 -71 82 -40 1 17 1 23 -9 56 -3 11 -1 17 5 13 6 -4 8 3 5 19 -5 29 17 51 30 31 5 -8 8 -6 8 6 0 10 4 16 9 13 5 -3 12 1 15 9 5 14 2 14 -24 0 -27 -14 -29 -14 -27 4 0 11 5 17 10 14 4 -3 7 2 5 10 -2 9 2 16 7 16 6 0 9 -8 7 -17 -2 -15 -1 -15 8 1 6 9 17 15 23 11 7 -3 4 1 -6 9 -12 10 -15 17 -7 22 6 4 18 -1 26 -11 14 -18 15 -18 5 2 -8 17 -6 27 10 48 11 14 19 31 17 38 -2 6 9 24 26 39 24 21 31 38 37 85 10 77 24 147 31 160 4 5 -4 32 -17 59 -25 52 -34 145 -14 145 6 0 10 15 9 33 -4 59 -1 64 20 38 11 -13 20 -33 20 -46 0 -28 14 -40 68 -57 l43 -13 -3 -126 -3 -125 20 25 19 24 13 -29 c6 -16 12 -22 13 -14 0 20 35 41 55 34 11 -5 14 -2 9 12 -6 17 -5 17 9 -1 20 -25 12 -38 -15 -24 -16 9 -19 8 -12 -3 5 -7 7 -24 5 -38 -3 -21 -1 -23 13 -10 14 10 14 15 4 21 -9 6 -5 9 12 10 14 1 29 1 34 0 5 -1 16 1 24 4 11 4 12 8 3 19 -8 10 -9 16 -1 21 5 3 10 1 10 -5 0 -6 4 -8 10 -5 6 4 7 -1 3 -12 -3 -10 -3 -15 2 -11 4 4 17 2 29 -4 11 -7 25 -12 29 -13 4 0 11 -6 16 -13 5 -8 11 -13 15 -13 7 1 6 -7 -1 -26 -3 -7 -10 -10 -16 -6 -6 3 -7 1 -3 -5 10 -17 26 -15 26 3 0 8 5 15 10 15 6 0 10 -4 10 -10 0 -5 7 -7 15 -4 8 4 15 2 15 -4 0 -6 3 -17 6 -26 3 -9 1 -16 -5 -16 -6 0 -10 5 -9 11 2 6 -4 13 -13 14 -9 2 -16 -3 -16 -11 0 -7 4 -11 8 -8 4 2 11 -1 15 -7 3 -6 1 -15 -6 -19 -9 -6 -6 -10 9 -15 13 -4 25 -4 28 -1 4 3 -2 6 -12 6 -18 0 -18 1 1 14 30 23 41 -8 19 -57 -5 -12 -2 -22 8 -30 20 -15 34 -67 18 -67 -6 0 -11 -13 -11 -30 0 -16 -5 -30 -11 -30 -5 0 -15 -13 -20 -30 -6 -16 -17 -30 -25 -30 -8 0 -14 -5 -14 -11 0 -5 4 -8 9 -4 5 3 13 0 17 -6 4 -7 3 -9 -3 -6 -13 8 -40 -25 -35 -43 2 -8 -3 -6 -12 5 -12 15 -15 16 -16 5 0 -13 -1 -13 -11 0 -8 12 -10 12 -8 -5 2 -34 -1 -55 -8 -54 -19 3 -34 -2 -29 -9 2 -4 1 -14 -5 -22 -6 -11 -9 -12 -9 -2 0 7 -4 11 -9 8 -5 -3 -8 -21 -6 -38 1 -19 -4 -41 -13 -51 -15 -17 -14 -17 14 -2 16 8 36 15 45 15 9 0 28 18 43 40 27 41 60 52 83 29 12 -12 -16 -89 -46 -123 -15 -18 -15 -19 26 -12 24 3 63 2 88 -4 25 -6 100 -13 168 -16 67 -4 131 -11 142 -17 11 -6 52 -13 90 -16 67 -6 70 -7 70 -31 0 -28 11 -27 -142 -14 l-73 6 6 -30 c5 -25 1 -36 -21 -58 -23 -23 -32 -26 -69 -21 -44 6 -190 -23 -209 -42 -10 -10 5 -18 86 -50 44 -17 34 -35 -15 -27 -24 4 -47 11 -52 17 -16 15 -83 10 -143 -11 -52 -18 -59 -19 -81 -4 -13 8 -31 13 -39 10 -20 -8 -43 11 -43 34 0 16 -4 17 -30 7 -27 -10 -28 -12 -14 -28 9 -10 13 -23 9 -28 -8 -13 -59 -14 -102 -2 l-32 9 5 -46 c4 -26 19 -76 34 -112 15 -36 39 -92 54 -126 14 -33 31 -85 37 -115 6 -30 18 -67 26 -82 8 -16 13 -43 11 -60 -3 -27 -8 -33 -32 -35 -16 -2 -32 0 -37 5 -5 5 -11 56 -14 113 -3 68 -10 112 -20 126 -8 13 -15 29 -15 36 0 6 -11 23 -24 37 -20 23 -83 129 -87 149 -5 24 -14 32 -35 32 -13 0 -35 5 -49 12 -40 18 -47 1 -47 -111 0 -56 -4 -101 -10 -101 -12 0 -40 68 -33 81 8 12 -14 119 -24 119 -4 0 -12 -5 -19 -12 -18 -18 -27 -1 -13 28 6 14 14 54 18 88 3 33 13 69 22 79 14 17 14 19 -1 28 -30 17 -103 81 -114 101 -11 21 -20 27 -133 85 -41 22 -76 44 -79 51 -7 21 33 13 94 -18 32 -16 66 -30 75 -30 9 0 33 -7 54 -16 46 -19 87 -12 78 14 -4 9 -16 30 -27 45 -19 26 -21 27 -33 11 -12 -16 -13 -17 -13 -1 0 9 -24 41 -53 70 -29 28 -65 68 -80 87 -14 20 -44 55 -67 79 -22 25 -40 49 -40 55 0 6 -11 23 -25 38 -14 15 -25 30 -25 33 0 4 -19 32 -42 63 -24 31 -52 73 -62 92 -10 19 -31 49 -47 65 -15 17 -31 42 -34 58 -4 15 -11 30 -16 33 -5 3 -29 36 -54 75 -25 38 -52 72 -60 76 -9 3 -25 23 -35 44 -11 20 -28 40 -38 43 -10 4 -30 23 -44 44 -14 20 -45 66 -69 102 -24 36 -47 67 -51 68 -4 2 -8 11 -8 20 0 8 -7 23 -16 33 -18 20 -30 89 -20 116 7 17 8 17 22 -2 8 -11 22 -29 32 -40z m1399 -572 c-4 -3 0 -15 10 -25 9 -10 11 -18 6 -18 -16 0 -36 28 -28 40 3 5 9 10 12 10 4 0 3 -3 0 -7z"/>
 <path d="M6392 3145 c-6 -14 -8 -25 -3 -25 8 0 23 41 17 47 -1 2 -8 -8 -14 -22z"/>
 <path d="M6707 2797 c-5 -12 -1 -17 13 -17 11 0 20 5 20 11 0 5 -4 8 -9 5 -5 -4 -11 -1 -13 6 -3 8 -7 6 -11 -5z"/>
 <path d="M6622 2675 c-7 -8 -9 -15 -5 -15 4 0 1 -5 -7 -11 -13 -8 -12 -10 4 -7 11 2 21 13 22 26 4 26 3 26 -14 7z"/>
 </g>

</svg>