<!DOCTYPE svg PUBLIC "-//W3C//DTD SVG 20010904//EN" "http://www.w3.org/TR/2001/REC-SVG-20010904/DTD/svg10.dtd">
<svg version="1.0" xmlns="http://www.w3.org/2000/svg" width="1350px" height="616px" viewBox="0 0 13500 6160" preserveAspectRatio="xMidYMid meet">
<g id="layer101" fill="#930505" stroke="none">
 <path d="M0 3080 l0 -3080 6750 0 6750 0 0 3080 0 3080 -6750 0 -6750 0 0 -3080z"/>
 </g>
<g id="layer102" fill="#ec1c24" stroke="none">
 <path d="M0 3080 l0 -3080 6750 0 6750 0 0 3080 0 3080 -6750 0 -6750 0 0 -3080z m7433 640 c6 -23 3 -24 -24 -9 -11 5 -17 14 -14 20 10 16 32 10 38 -11z m75 -197 c-6 -8 -15 -10 -22 -4 -6 4 -18 11 -26 13 -8 3 2 5 22 5 30 -1 35 -4 26 -14z m-510 -304 c-16 -10 -33 5 -23 21 5 8 11 8 21 -1 12 -10 12 -14 2 -20z"/>
 </g>
<g id="layer103" fill="#ef4145" stroke="none">
 <path d="M0 3080 l0 -3080 6750 0 6750 0 0 3080 0 3080 -6750 0 -6750 0 0 -3080z m7234 783 c9 4 16 2 16 -2 0 -5 18 -7 40 -4 22 3 40 1 40 -4 0 -5 19 -10 42 -10 36 -2 49 -9 81 -43 32 -33 37 -43 27 -55 -11 -13 -2 -15 64 -15 44 0 76 -4 76 -10 0 -6 4 -9 8 -8 14 5 74 -51 67 -62 -3 -5 -1 -10 4 -10 6 0 11 -11 11 -23 0 -17 -10 -29 -35 -43 -19 -10 -35 -22 -35 -27 0 -4 -4 -5 -10 -2 -5 3 -10 1 -10 -5 0 -6 -5 -8 -10 -5 -6 3 -13 -1 -16 -9 -3 -9 -10 -14 -14 -11 -5 3 -17 -6 -28 -20 -11 -13 -22 -22 -25 -18 -4 3 -9 -2 -13 -11 -9 -23 -17 -20 -54 14 -18 17 -36 30 -40 30 -9 0 -96 -79 -164 -147 -23 -24 -49 -43 -56 -43 -19 -1 -65 -38 -57 -47 11 -11 -13 -42 -28 -37 -8 4 -15 1 -15 -5 0 -7 -6 -11 -13 -9 -16 4 -87 -33 -87 -44 0 -5 -11 -8 -25 -8 -14 0 -25 4 -25 9 0 4 -13 8 -30 7 -16 -1 -30 -5 -30 -10 0 -4 -9 -6 -21 -3 -15 4 -23 0 -26 -13 -3 -11 -14 -22 -24 -25 -10 -4 -19 -11 -19 -17 0 -5 -7 -8 -15 -4 -8 3 -15 1 -15 -5 0 -6 -7 -9 -15 -5 -8 3 -15 1 -15 -5 0 -6 -4 -7 -10 -4 -5 3 -21 -5 -34 -18 -14 -14 -27 -22 -30 -20 -3 3 -8 -1 -12 -10 -3 -9 -11 -14 -19 -11 -7 3 -20 -2 -29 -11 -9 -9 -20 -13 -26 -10 -5 3 -10 1 -10 -5 0 -7 -7 -9 -16 -6 -11 4 -31 -8 -60 -38 -24 -24 -44 -41 -44 -37 0 3 -5 -2 -11 -12 -6 -9 -14 -15 -19 -12 -4 3 -20 -9 -34 -26 -14 -16 -30 -27 -36 -24 -13 8 -13 23 0 38 6 7 30 38 54 69 24 31 46 54 50 51 3 -4 6 -1 6 6 0 7 5 9 11 5 13 -7 111 85 103 98 -3 4 2 8 10 8 9 0 16 4 16 8 0 5 10 14 23 20 l22 11 -25 1 c-14 1 -32 3 -40 4 -8 0 -18 -3 -21 -8 -4 -5 -10 1 -14 13 -3 11 -9 21 -13 22 -39 4 -72 3 -72 -3 0 -5 -9 -8 -20 -8 -11 0 -20 4 -20 9 0 13 -74 8 -83 -7 -4 -6 -22 -19 -39 -28 -29 -15 -30 -15 -24 1 4 13 2 16 -9 11 -8 -3 -15 -1 -15 3 0 15 -33 22 -41 10 -10 -17 -41 -2 -37 18 2 10 12 18 23 18 26 0 125 46 125 57 0 5 4 7 9 4 5 -4 8 2 7 11 -2 10 5 26 15 37 11 11 17 21 16 23 -7 6 -67 -29 -67 -38 0 -6 -5 -7 -10 -4 -6 3 -13 -1 -16 -10 -5 -12 -14 -15 -30 -11 -15 4 -24 2 -24 -5 0 -7 -15 -10 -40 -7 -22 2 -40 0 -40 -4 0 -5 -9 -8 -20 -8 -11 0 -20 4 -20 9 0 6 -9 9 -20 8 -11 -1 -20 -5 -20 -10 0 -4 -4 -6 -9 -3 -5 3 -20 -5 -34 -18 -14 -13 -28 -21 -31 -18 -3 3 -6 0 -6 -6 0 -6 -7 -9 -15 -6 -8 4 -15 1 -15 -5 0 -6 -7 -11 -15 -11 -8 0 -15 3 -15 8 0 4 -23 5 -51 3 -63 -4 -78 8 -53 43 11 14 24 24 29 23 11 -1 95 52 106 67 4 5 32 7 63 4 31 -3 56 -1 56 3 0 5 7 6 15 3 9 -4 18 1 21 11 4 9 13 14 20 11 8 -3 14 -1 14 5 0 6 5 7 10 4 6 -3 10 -1 10 6 0 7 3 10 6 6 4 -3 22 0 42 8 21 10 53 13 83 10 31 -3 49 -1 49 6 0 5 5 7 10 4 6 -3 10 -1 10 5 0 6 4 8 10 5 11 -7 90 32 105 51 5 8 29 15 53 16 23 1 42 5 42 9 0 5 7 6 15 3 8 -4 15 -1 15 6 0 7 11 9 30 6 17 -2 30 0 30 4 0 5 8 11 18 14 11 4 17 16 17 36 0 16 -3 30 -7 30 -5 0 -8 9 -8 20 0 28 45 69 70 63 12 -3 20 0 20 7 0 7 8 9 20 5 11 -4 20 -2 20 4 0 6 6 8 14 5 7 -3 20 2 29 10 16 17 37 21 37 8 0 -4 18 -6 40 -4 26 3 40 0 40 -8 0 -6 5 -8 11 -4 6 3 15 1 19 -6 13 -22 59 -21 73 1 15 24 33 24 46 2 6 -10 11 -13 11 -6 0 7 7 10 15 7 9 -4 15 -1 15 7 0 17 -30 49 -47 49 -24 0 -15 46 12 60 14 7 25 18 25 23 0 5 11 6 25 3 17 -4 25 -2 25 6 0 10 3 9 9 -1 5 -8 16 -11 25 -8z m-1990 -748 c4 -10 -5 -22 -27 -35 -55 -34 -76 -5 -22 30 36 24 41 24 49 5z m-276 -127 c12 0 22 -4 22 -9 0 -4 6 -6 14 -3 19 7 32 -16 15 -27 -8 -5 -9 -9 -4 -9 6 0 2 -5 -7 -11 -35 -20 -20 -34 38 -34 58 0 79 -9 44 -20 -11 -3 -20 -11 -20 -17 0 -7 -17 -9 -45 -6 -25 3 -45 1 -45 -4 0 -5 -15 -9 -32 -8 -18 1 -35 1 -38 0 -3 -1 -14 -3 -24 -5 -10 -2 -22 -9 -26 -15 -4 -6 -14 -8 -23 -4 -10 4 -17 1 -17 -6 0 -8 -15 -11 -45 -8 -25 2 -45 0 -45 -4 0 -5 -29 -8 -65 -8 -36 0 -65 4 -65 9 0 5 -8 12 -18 15 -23 8 -82 59 -82 72 1 14 98 106 107 101 4 -2 17 -1 28 3 11 4 85 5 165 3 80 -2 155 -5 168 -5z"/>
 <path d="M6783 3253 c-18 -7 -16 -23 2 -23 8 0 15 7 15 15 0 8 -1 15 -2 14 -2 0 -9 -3 -15 -6z"/>
 </g>
<g id="layer104" fill="#e3a39f" stroke="none">
 <path d="M0 3080 l0 -3080 6750 0 6750 0 0 3080 0 3080 -6750 0 -6750 0 0 -3080z m7234 783 c9 4 16 2 16 -2 0 -5 18 -7 40 -4 22 3 40 1 40 -4 0 -5 19 -10 42 -10 36 -2 49 -9 81 -43 32 -33 37 -43 27 -55 -11 -13 -2 -15 64 -15 44 0 76 -4 76 -10 0 -6 4 -9 8 -8 14 5 74 -51 67 -62 -3 -5 -1 -10 4 -10 6 0 11 -11 11 -23 0 -17 -10 -29 -35 -43 -19 -10 -35 -22 -35 -27 0 -4 -4 -5 -10 -2 -5 3 -10 1 -10 -5 0 -6 -5 -8 -10 -5 -6 3 -13 -1 -16 -9 -3 -9 -10 -14 -14 -11 -5 3 -17 -6 -28 -20 -11 -13 -22 -22 -25 -18 -4 3 -9 -2 -13 -11 -9 -23 -17 -20 -54 14 -18 17 -36 30 -40 30 -9 0 -96 -79 -164 -147 -23 -24 -49 -43 -56 -43 -19 -1 -65 -38 -57 -47 11 -11 -13 -42 -28 -37 -8 4 -15 1 -15 -5 0 -7 -6 -11 -13 -9 -16 4 -87 -33 -87 -44 0 -5 -11 -8 -25 -8 -14 0 -25 4 -25 9 0 4 -13 8 -30 7 -16 -1 -30 -5 -30 -10 0 -4 -9 -6 -21 -3 -15 4 -23 0 -26 -13 -3 -11 -14 -22 -24 -25 -10 -4 -19 -11 -19 -17 0 -5 -7 -8 -15 -4 -8 3 -15 1 -15 -5 0 -6 -7 -9 -15 -5 -8 3 -15 1 -15 -5 0 -6 -4 -7 -10 -4 -5 3 -21 -5 -34 -18 -14 -14 -27 -22 -30 -20 -3 3 -8 -1 -12 -10 -3 -9 -11 -14 -19 -11 -7 3 -20 -2 -29 -11 -9 -9 -20 -13 -26 -10 -5 3 -10 1 -10 -5 0 -7 -7 -9 -16 -6 -11 4 -31 -8 -60 -38 -24 -24 -44 -41 -44 -37 0 3 -5 -2 -11 -12 -6 -9 -14 -15 -19 -12 -4 3 -20 -9 -34 -26 -14 -16 -30 -27 -36 -24 -13 8 -13 23 0 38 6 7 30 38 54 69 24 31 46 54 50 51 3 -4 6 -1 6 6 0 7 5 9 11 5 13 -7 111 85 103 98 -3 4 2 8 10 8 9 0 16 4 16 8 0 5 10 14 23 20 l22 11 -25 1 c-14 1 -32 3 -40 4 -8 0 -18 -3 -21 -8 -4 -5 -10 1 -14 13 -3 11 -9 21 -13 22 -39 4 -72 3 -72 -3 0 -5 -9 -8 -20 -8 -11 0 -20 4 -20 9 0 13 -74 8 -83 -7 -4 -6 -22 -19 -39 -28 -29 -15 -30 -15 -24 1 4 13 2 16 -9 11 -8 -3 -15 -1 -15 3 0 15 -33 22 -41 10 -10 -17 -41 -2 -37 18 2 10 12 18 23 18 26 0 125 46 125 57 0 5 4 7 9 3 6 -3 8 4 6 15 -2 11 0 20 4 20 4 0 8 6 8 14 0 17 -37 9 -44 -10 -3 -8 -9 -11 -14 -8 -5 3 -12 -2 -15 -11 -5 -12 -14 -15 -30 -11 -15 4 -24 2 -24 -5 0 -7 -15 -10 -40 -7 -22 2 -40 0 -40 -4 0 -5 -9 -8 -20 -8 -11 0 -20 4 -20 9 0 6 -9 9 -20 8 -11 -1 -20 -5 -20 -10 0 -4 -4 -6 -9 -3 -5 3 -20 -5 -34 -18 -14 -13 -28 -21 -31 -18 -3 3 -6 0 -6 -6 0 -6 -7 -9 -15 -6 -8 4 -15 1 -15 -5 0 -6 -7 -11 -15 -11 -8 0 -15 3 -15 8 0 4 -23 5 -51 3 -63 -4 -78 8 -53 43 11 14 24 24 29 23 11 -1 95 52 106 67 4 5 32 7 63 4 31 -3 56 -1 56 3 0 5 7 6 15 3 9 -4 18 1 21 11 4 9 13 14 20 11 8 -3 14 -1 14 5 0 6 5 7 10 4 6 -3 10 -1 10 6 0 7 3 10 6 6 4 -3 22 0 42 8 21 10 53 13 83 10 31 -3 49 -1 49 6 0 5 5 7 10 4 6 -3 10 -1 10 5 0 6 4 8 10 5 11 -7 90 32 105 51 5 8 29 15 53 16 23 1 42 5 42 9 0 5 7 6 15 3 8 -4 15 -1 15 6 0 7 11 9 30 6 17 -2 30 0 30 4 0 5 8 11 18 14 11 4 17 16 17 36 0 16 -3 30 -7 30 -5 0 -8 9 -8 20 0 28 45 69 70 63 12 -3 20 0 20 7 0 7 8 9 20 5 11 -4 20 -2 20 4 0 6 6 8 14 5 7 -3 20 2 29 10 16 17 37 21 37 8 0 -4 18 -6 40 -4 26 3 40 0 40 -8 0 -6 5 -8 11 -4 6 3 15 1 19 -6 13 -22 59 -21 73 1 15 24 33 24 46 2 6 -10 11 -13 11 -6 0 7 7 10 15 7 9 -4 15 -1 15 7 0 17 -30 49 -47 49 -24 0 -15 46 12 60 14 7 25 18 25 23 0 5 11 6 25 3 17 -4 25 -2 25 6 0 10 3 9 9 -1 5 -8 16 -11 25 -8z m-1990 -748 c4 -10 -5 -22 -27 -35 -55 -34 -76 -5 -22 30 36 24 41 24 49 5z m-276 -127 c12 0 22 -4 22 -9 0 -4 6 -6 14 -3 19 7 32 -16 15 -27 -8 -5 -9 -9 -4 -9 6 0 2 -5 -7 -11 -35 -20 -20 -34 38 -34 58 0 79 -9 44 -20 -11 -3 -20 -11 -20 -17 0 -7 -17 -9 -45 -6 -25 3 -45 1 -45 -4 0 -5 -15 -9 -32 -8 -18 1 -35 1 -38 0 -3 -1 -14 -3 -24 -5 -10 -2 -22 -9 -26 -15 -4 -6 -14 -8 -23 -4 -10 4 -17 1 -17 -6 0 -8 -15 -11 -45 -8 -25 2 -45 0 -45 -4 0 -5 -29 -8 -65 -8 -36 0 -65 4 -65 9 0 5 -8 12 -18 15 -23 8 -82 59 -82 72 1 14 98 106 107 101 4 -2 17 -1 28 3 11 4 85 5 165 3 80 -2 155 -5 168 -5z"/>
 </g>
<g id="layer105" fill="#e5cdbe" stroke="none">
 <path d="M0 3080 l0 -3080 6750 0 6750 0 0 3080 0 3080 -6750 0 -6750 0 0 -3080z m7234 783 c9 4 16 2 16 -2 0 -5 18 -7 40 -4 22 3 40 1 40 -4 0 -5 19 -10 42 -10 35 -2 49 -9 80 -42 24 -25 36 -45 32 -55 -5 -14 4 -16 65 -16 41 0 71 -4 71 -10 0 -6 4 -9 8 -8 14 5 74 -51 67 -62 -3 -5 -1 -10 4 -10 6 0 11 -11 11 -23 0 -17 -10 -29 -35 -43 -19 -10 -35 -22 -35 -27 0 -4 -4 -5 -10 -2 -5 3 -10 1 -10 -5 0 -6 -5 -8 -10 -5 -6 3 -13 -1 -16 -9 -3 -9 -10 -14 -14 -11 -5 3 -17 -6 -28 -20 -11 -13 -22 -22 -25 -18 -4 3 -9 -2 -13 -11 -9 -23 -17 -20 -54 14 -18 17 -36 30 -40 30 -9 0 -96 -79 -164 -147 -23 -24 -49 -43 -56 -43 -19 -1 -65 -38 -57 -47 11 -11 -13 -42 -28 -37 -8 4 -15 1 -15 -5 0 -7 -6 -11 -13 -9 -16 4 -87 -33 -87 -44 0 -5 -11 -8 -25 -8 -14 0 -25 4 -25 9 0 4 -13 8 -30 7 -16 -1 -30 -5 -30 -10 0 -4 -9 -6 -21 -3 -15 4 -23 0 -26 -13 -3 -11 -14 -22 -24 -25 -10 -4 -19 -11 -19 -17 0 -5 -7 -8 -15 -4 -8 3 -15 1 -15 -5 0 -6 -7 -9 -15 -5 -8 3 -15 1 -15 -5 0 -6 -4 -7 -10 -4 -5 3 -21 -5 -34 -18 -14 -14 -27 -22 -30 -20 -3 3 -8 -1 -12 -10 -3 -9 -11 -14 -19 -11 -7 3 -20 -2 -29 -11 -9 -9 -20 -13 -26 -10 -5 3 -10 1 -10 -5 0 -7 -7 -9 -16 -6 -11 4 -31 -8 -60 -38 -24 -24 -44 -41 -44 -37 0 3 -5 -2 -11 -12 -6 -9 -14 -15 -19 -12 -4 3 -20 -9 -34 -26 -14 -16 -30 -27 -36 -24 -13 8 -13 23 0 38 6 7 30 38 54 69 24 31 46 54 50 51 3 -4 6 -1 6 6 0 7 5 9 11 5 13 -7 111 85 103 98 -3 4 2 8 10 8 9 0 16 4 16 8 0 5 10 14 23 20 l22 11 -25 1 c-14 1 -32 3 -40 4 -8 0 -18 -3 -21 -8 -4 -5 -10 1 -14 13 -3 11 -9 21 -13 22 -39 4 -72 3 -72 -3 0 -5 -9 -8 -20 -8 -11 0 -20 4 -20 9 0 13 -71 2 -90 -14 -8 -7 -26 -18 -39 -25 -21 -11 -23 -10 -17 5 4 13 2 16 -9 11 -8 -3 -15 -1 -15 3 0 15 -33 22 -41 10 -10 -17 -41 -2 -37 18 2 10 12 18 23 18 26 0 125 46 125 57 0 5 4 7 9 3 6 -3 8 4 6 15 -2 11 0 20 4 20 4 0 8 6 8 14 0 17 -37 9 -44 -10 -3 -8 -9 -11 -14 -8 -5 3 -12 -2 -15 -11 -5 -12 -14 -15 -30 -11 -15 4 -24 2 -24 -5 0 -7 -15 -10 -40 -7 -22 2 -40 0 -40 -4 0 -5 -9 -8 -20 -8 -11 0 -20 4 -20 9 0 6 -9 9 -20 8 -11 -1 -20 -5 -20 -10 0 -4 -4 -6 -9 -3 -5 3 -20 -5 -34 -18 -14 -13 -28 -21 -31 -18 -3 3 -6 0 -6 -6 0 -6 -7 -9 -15 -6 -8 4 -15 1 -15 -5 0 -6 -7 -11 -15 -11 -8 0 -15 3 -15 8 0 4 -23 5 -51 3 -63 -4 -78 8 -53 43 11 14 24 24 29 23 11 -1 95 52 106 67 4 5 32 7 63 4 31 -3 56 -1 56 3 0 5 7 6 15 3 9 -4 18 1 21 11 4 9 13 14 20 11 8 -3 14 -1 14 5 0 6 5 7 10 4 6 -3 10 -1 10 6 0 7 3 10 6 6 4 -3 22 0 42 8 21 10 53 13 83 10 31 -3 49 -1 49 6 0 5 5 7 10 4 6 -3 10 -1 10 5 0 6 4 8 10 5 11 -7 90 32 105 51 5 8 29 15 53 16 23 1 42 5 42 9 0 5 7 6 15 3 8 -4 15 -1 15 6 0 7 11 9 30 6 17 -2 30 0 30 4 0 5 8 11 18 14 11 4 17 16 17 36 0 16 -3 30 -7 30 -5 0 -8 9 -8 20 0 25 46 71 64 64 8 -3 17 0 21 6 4 6 15 8 26 5 10 -4 19 -2 19 4 0 6 6 8 14 5 7 -3 20 2 29 10 16 17 37 21 37 8 0 -4 18 -6 40 -4 26 3 40 0 40 -8 0 -6 5 -8 11 -4 6 3 15 1 19 -6 14 -22 58 -21 74 2 11 15 20 18 33 13 32 -14 53 -15 53 -3 0 16 -31 48 -47 48 -24 0 -15 46 12 60 14 7 25 18 25 23 0 5 11 6 25 3 17 -4 25 -2 25 6 0 10 3 9 9 -1 5 -8 16 -11 25 -8z m-1990 -748 c4 -10 -5 -22 -27 -35 -55 -34 -76 -5 -22 30 36 24 41 24 49 5z m-276 -127 c12 0 22 -4 22 -8 0 -4 7 -7 16 -6 25 2 28 -21 5 -41 -12 -9 -21 -22 -21 -28 0 -12 39 -13 58 -1 7 4 18 4 25 -1 6 -4 15 -8 19 -8 18 0 17 -14 -1 -20 -12 -3 -21 -11 -21 -17 0 -7 -17 -9 -45 -6 -25 3 -45 1 -45 -4 0 -5 -15 -9 -32 -8 -18 1 -35 1 -38 0 -3 -1 -14 -3 -24 -5 -10 -2 -22 -9 -26 -15 -4 -6 -14 -8 -23 -4 -10 4 -17 1 -17 -6 0 -8 -15 -11 -45 -8 -25 2 -45 0 -45 -4 0 -5 -29 -8 -65 -8 -36 0 -65 4 -65 10 0 5 -11 12 -24 16 -23 5 -76 56 -76 71 1 13 99 105 107 100 4 -2 17 -1 28 3 11 4 85 5 165 3 80 -2 155 -5 168 -5z"/>
 </g>
<g id="layer106" fill="#f2e4de" stroke="none">
 <path d="M0 3080 l0 -3080 6750 0 6750 0 0 3080 0 3080 -6750 0 -6750 0 0 -3080z m7234 783 c9 4 16 2 16 -2 0 -5 18 -7 40 -4 22 3 40 1 40 -4 0 -5 19 -10 42 -10 35 -2 49 -9 80 -42 24 -25 36 -45 32 -55 -5 -14 4 -16 65 -16 41 0 71 -4 71 -10 0 -6 4 -9 8 -8 14 5 74 -51 67 -62 -3 -5 -1 -10 4 -10 6 0 11 -11 11 -23 0 -17 -10 -29 -35 -43 -19 -10 -35 -22 -35 -27 0 -4 -4 -5 -10 -2 -5 3 -10 1 -10 -5 0 -6 -5 -8 -10 -5 -6 3 -13 -1 -16 -9 -3 -9 -10 -14 -14 -11 -5 3 -17 -6 -28 -20 -11 -13 -22 -22 -25 -18 -4 3 -9 -2 -13 -11 -8 -21 -22 -20 -42 4 -10 10 -29 22 -43 25 -26 6 -45 -8 -174 -135 -23 -22 -47 -40 -55 -40 -19 -1 -65 -38 -57 -47 11 -11 -13 -42 -28 -37 -8 4 -15 1 -15 -6 0 -7 -6 -10 -14 -7 -8 3 -22 -3 -31 -13 -10 -11 -21 -17 -26 -15 -4 3 -14 -2 -22 -10 -17 -16 -57 -21 -57 -6 0 4 -13 8 -30 7 -16 -1 -30 -5 -30 -10 0 -4 -9 -6 -21 -3 -15 4 -23 0 -26 -13 -3 -11 -14 -22 -24 -25 -10 -4 -19 -11 -19 -17 0 -5 -7 -8 -15 -4 -8 3 -15 1 -15 -5 0 -6 -7 -9 -15 -5 -8 3 -15 1 -15 -5 0 -6 -4 -7 -10 -4 -5 3 -21 -5 -34 -18 -14 -14 -27 -22 -30 -20 -3 3 -8 -1 -12 -10 -3 -9 -11 -14 -19 -11 -7 3 -20 -2 -28 -11 -9 -9 -31 -18 -49 -20 -22 -3 -45 -17 -70 -44 -21 -22 -38 -37 -38 -33 0 4 -5 -1 -11 -11 -6 -9 -14 -15 -19 -12 -4 3 -20 -9 -34 -26 -24 -28 -46 -32 -46 -8 0 16 107 149 114 142 3 -4 6 -1 6 6 0 7 4 10 8 7 12 -7 113 84 106 95 -3 5 1 9 8 9 18 0 43 40 26 41 -7 1 -20 2 -28 3 -8 0 -18 -3 -21 -8 -4 -5 -10 1 -14 13 -3 11 -9 21 -13 22 -39 4 -72 3 -72 -3 0 -5 -9 -8 -20 -8 -11 0 -20 4 -20 9 0 13 -71 2 -90 -14 -8 -7 -26 -18 -39 -25 -21 -11 -23 -10 -17 5 4 13 2 16 -9 11 -8 -3 -15 -1 -15 3 0 15 -33 22 -41 10 -10 -17 -41 -2 -37 18 2 10 12 18 23 18 26 0 125 46 125 57 0 5 4 7 9 3 6 -3 8 4 6 15 -2 11 0 20 4 20 4 0 8 6 8 14 0 17 -37 9 -44 -10 -3 -8 -9 -11 -14 -8 -5 3 -12 -2 -15 -11 -5 -12 -14 -15 -30 -11 -15 4 -24 2 -24 -5 0 -7 -15 -10 -40 -7 -22 2 -40 0 -40 -4 0 -5 -9 -8 -20 -8 -11 0 -20 5 -20 11 0 7 -7 8 -17 4 -10 -4 -24 -8 -31 -8 -7 0 -23 -10 -37 -23 -13 -12 -26 -19 -29 -16 -3 3 -6 0 -6 -6 0 -6 -7 -9 -15 -6 -8 4 -15 1 -15 -5 0 -6 -7 -11 -15 -11 -8 0 -15 3 -15 8 0 4 -23 5 -51 3 -63 -4 -78 8 -53 43 11 14 24 24 29 23 11 -1 95 52 106 67 4 5 32 7 63 4 31 -3 56 -1 56 4 0 5 4 7 9 4 5 -3 14 1 21 10 7 8 19 13 27 10 7 -3 13 -1 13 5 0 6 5 7 10 4 6 -3 10 -1 10 6 0 7 3 10 6 6 4 -3 22 0 42 8 21 10 53 13 83 10 31 -3 49 -1 49 6 0 5 5 7 10 4 6 -3 10 -1 10 5 0 6 4 8 10 5 11 -7 90 32 105 51 5 8 29 15 53 16 23 1 42 5 42 9 0 5 7 6 15 3 8 -4 15 -1 15 6 0 7 11 9 30 6 17 -2 30 0 30 4 0 5 8 11 18 14 11 4 17 16 17 36 0 16 -3 30 -7 30 -5 0 -8 9 -8 20 0 25 46 71 64 64 8 -3 17 0 21 6 4 6 15 8 26 5 10 -4 19 -2 19 4 0 6 6 8 14 5 7 -3 20 2 29 10 16 17 37 21 37 8 0 -4 18 -6 40 -4 24 3 40 0 40 -7 0 -6 6 -8 14 -5 7 3 16 -1 19 -9 7 -19 42 -15 66 7 13 12 26 16 38 11 32 -14 53 -15 53 -3 0 16 -31 48 -47 48 -24 0 -15 46 12 60 14 7 25 18 25 23 0 5 11 6 25 3 17 -4 25 -2 25 6 0 10 3 9 9 -1 5 -8 16 -11 25 -8z m-1990 -748 c4 -10 -5 -22 -27 -35 -55 -34 -76 -5 -22 30 36 24 41 24 49 5z m-276 -127 c12 0 22 -4 22 -8 0 -4 7 -7 16 -6 25 2 28 -21 5 -41 -12 -9 -21 -22 -21 -28 0 -12 39 -13 58 -1 7 4 18 4 25 -1 6 -4 15 -8 19 -8 18 0 17 -14 -1 -20 -12 -3 -21 -11 -21 -17 0 -7 -17 -9 -45 -6 -25 3 -45 1 -45 -4 0 -5 -15 -9 -32 -8 -18 1 -35 1 -38 0 -3 -1 -14 -3 -24 -5 -10 -2 -22 -9 -26 -15 -4 -6 -14 -8 -23 -4 -10 4 -17 1 -17 -6 0 -8 -15 -11 -45 -8 -25 2 -45 0 -45 -4 0 -5 -29 -8 -65 -8 -36 0 -65 4 -65 10 0 5 -11 12 -24 16 -13 3 -36 19 -50 35 -27 30 -32 45 -18 51 4 2 21 20 36 40 16 21 32 35 37 32 5 -3 9 0 9 6 0 7 6 10 13 7 6 -2 21 -1 32 3 11 4 85 5 165 3 80 -2 155 -5 168 -5z"/>
 </g>
<g id="layer107" fill="#ffffff" stroke="none">
 <path d="M0 3080 l0 -3080 6750 0 6750 0 0 3080 0 3080 -6750 0 -6750 0 0 -3080z m7270 781 c30 -2 57 -6 60 -10 3 -3 22 -7 43 -9 45 -3 102 -44 116 -84 10 -27 13 -28 79 -28 64 0 73 -3 102 -30 19 -18 30 -36 26 -45 -3 -8 -1 -15 4 -15 12 0 13 -40 2 -56 -10 -16 -68 -44 -76 -37 -3 4 -6 2 -6 -4 0 -14 -66 -64 -88 -67 -9 -2 -18 -8 -20 -14 -6 -18 -26 -15 -55 8 -33 26 -51 25 -74 -2 -31 -39 -120 -108 -128 -100 -5 4 -5 1 -1 -5 4 -7 2 -22 -4 -33 -8 -14 -18 -18 -38 -15 -27 5 -82 -28 -69 -42 11 -11 -13 -42 -28 -37 -8 4 -15 1 -15 -5 0 -6 -4 -11 -10 -11 -5 0 -26 -11 -46 -25 -35 -24 -94 -34 -94 -16 0 4 -13 8 -30 7 -16 -1 -30 -4 -30 -8 0 -5 -6 -8 -13 -8 -8 0 -22 -10 -33 -21 -22 -25 -121 -72 -134 -64 -5 3 -16 -5 -24 -17 -9 -12 -16 -18 -16 -13 0 5 -9 -1 -21 -14 -12 -12 -27 -20 -35 -17 -8 3 -14 2 -14 -3 0 -5 -11 -12 -25 -15 -13 -3 -47 -25 -74 -49 -79 -67 -132 -107 -142 -107 -19 0 -21 32 -4 63 29 55 68 94 120 120 45 22 120 87 102 87 -4 0 -3 10 4 21 9 17 8 23 -2 30 -8 4 -16 3 -20 -3 -9 -15 -32 1 -25 18 3 8 2 14 -2 15 -41 4 -72 3 -72 -4 0 -4 -27 -5 -60 -1 -51 6 -60 4 -60 -9 0 -35 -62 -45 -84 -15 -8 10 -25 16 -47 15 -28 -2 -34 2 -34 18 0 15 7 20 27 20 15 1 38 10 50 21 13 11 35 28 51 37 15 10 27 22 27 28 0 14 -50 5 -60 -11 -5 -7 -15 -10 -26 -6 -9 4 -20 2 -24 -4 -4 -6 -40 -12 -81 -14 -53 -3 -85 -10 -109 -25 -18 -11 -37 -18 -42 -15 -4 3 -8 1 -8 -5 0 -6 -7 -8 -15 -5 -8 4 -15 1 -15 -5 0 -6 -7 -11 -15 -11 -8 0 -15 3 -15 8 0 4 -26 7 -57 7 -52 0 -58 2 -61 22 -3 22 25 46 49 41 6 -2 16 6 22 17 16 26 29 36 44 30 7 -2 20 3 28 12 12 11 30 14 70 11 30 -3 55 -2 55 2 0 10 92 52 125 57 17 3 56 5 88 5 31 0 57 5 57 10 0 5 5 6 10 3 6 -3 10 -2 10 4 0 6 6 8 13 5 7 -2 26 7 41 21 16 14 33 24 40 22 6 -2 16 3 21 10 6 8 28 15 50 16 22 1 43 6 47 11 4 6 25 10 47 10 23 1 41 4 41 8 0 4 8 9 18 12 11 4 17 16 17 36 0 16 -3 30 -7 30 -13 0 -9 45 5 63 11 16 109 49 150 51 9 0 17 4 17 8 0 13 99 -1 143 -19 34 -15 38 -15 57 2 14 12 28 16 50 12 35 -7 38 1 10 26 -20 17 -26 52 -12 73 13 20 52 35 72 29 13 -4 20 -2 20 7 0 8 3 9 8 3 4 -5 32 -12 62 -14z m-2020 -741 c12 -8 11 -13 -8 -33 -29 -31 -92 -36 -92 -8 0 21 25 45 38 38 4 -3 14 -2 22 4 19 11 21 11 40 -1z m-241 -139 c24 -13 22 -41 -7 -74 -15 -17 -15 -17 12 -8 59 23 110 4 78 -29 -15 -15 -109 -34 -214 -43 -10 -1 -18 -5 -18 -10 0 -5 -9 -5 -20 -2 -12 4 -20 2 -20 -5 0 -8 -15 -11 -45 -8 -25 2 -45 0 -45 -4 0 -5 -29 -8 -65 -8 -39 0 -65 4 -65 11 0 5 -4 7 -10 4 -16 -10 -70 25 -81 53 -8 20 -7 35 5 60 9 18 21 30 26 27 6 -3 10 1 10 9 0 17 36 40 53 33 7 -2 21 -1 32 3 33 12 349 4 374 -9z"/>
 </g>

</svg>