<!DOCTYPE svg PUBLIC "-//W3C//DTD SVG 20010904//EN" "http://www.w3.org/TR/2001/REC-SVG-20010904/DTD/svg10.dtd">
<svg version="1.0" xmlns="http://www.w3.org/2000/svg" width="180px" height="179px" viewBox="0 0 1800 1790" preserveAspectRatio="xMidYMid meet">
<g id="layer101" fill="#5f1313" stroke="none">
 <path d="M1225 1070 c-7 -12 2 -30 15 -30 5 0 21 5 37 11 l28 12 -25 7 c-36 11 -48 11 -55 0z"/>
 <path d="M1265 1011 c-11 -1 -28 -10 -38 -19 -18 -16 -18 -17 5 -23 23 -6 56 6 93 35 19 15 19 15 -10 13 -17 -1 -40 -4 -50 -6z"/>
 <path d="M1068 943 c-10 -2 -18 -9 -18 -14 0 -14 20 -11 36 6 16 15 13 16 -18 8z"/>
 <path d="M720 886 c-20 -8 -61 -25 -93 -40 -31 -14 -63 -23 -72 -20 -11 5 -15 -1 -15 -20 0 -14 3 -25 8 -25 20 3 20 -3 2 -21 -11 -11 -25 -20 -31 -20 -5 0 -8 -4 -4 -9 3 -6 -4 -15 -15 -21 -11 -6 -20 -7 -20 -2 0 12 -100 56 -108 48 -3 -3 1 -6 9 -6 8 -1 3 -7 -11 -16 l-25 -15 24 7 24 6 -19 -25 c-14 -19 -32 -27 -66 -32 -27 -4 -50 -10 -53 -14 -2 -4 16 -5 41 -1 25 4 56 5 68 3 13 -3 42 4 65 15 37 18 44 19 69 6 15 -7 33 -14 40 -14 6 0 12 -5 12 -11 0 -6 -7 -9 -15 -5 -24 9 -18 -2 29 -51 26 -27 47 -59 50 -78 7 -37 32 -53 41 -26 3 9 6 48 6 85 1 52 -3 72 -17 88 -14 15 -16 22 -6 25 6 3 12 12 12 21 1 15 2 15 15 -1 19 -26 48 -14 66 26 12 27 22 34 64 44 l50 11 -57 1 c-46 1 -62 -3 -78 -19 -26 -26 -44 -27 -30 -1 11 21 74 44 165 61 93 16 92 30 -2 30 -45 0 -85 -4 -88 -10 -3 -5 -21 -10 -38 -9 l-32 1 30 10 c17 5 50 16 75 23 l45 14 -40 0 c-22 0 -56 -6 -75 -13z m-70 -101 c-13 -14 -26 -22 -29 -19 -3 3 5 14 19 24 34 27 38 25 10 -5z m-11 -170 c0 -5 -4 -2 -10 8 -5 9 -20 17 -32 17 -22 1 -22 1 -2 15 17 14 20 13 32 -7 7 -13 12 -27 12 -33z"/>
 <path d="M544 869 c-16 -27 56 -34 80 -8 8 9 4 10 -16 5 -17 -4 -28 -2 -28 4 0 14 -27 13 -36 -1z"/>
 <path d="M290 791 c0 -5 14 -14 31 -20 46 -16 48 -14 11 9 -37 22 -42 24 -42 11z"/>
 <path d="M590 500 c0 -19 3 -21 12 -12 9 9 9 15 0 24 -9 9 -12 7 -12 -12z"/>
 </g>
<g id="layer102" fill="#9c1d20" stroke="none">
 <path d="M1302 1000 c-12 -20 -12 -21 13 -4 28 18 31 24 12 24 -7 0 -18 -9 -25 -20z"/>
 <path d="M1224 988 c-10 -13 -15 -20 -10 -16 5 4 17 3 27 -3 13 -7 19 -6 19 1 0 6 5 8 12 4 7 -4 8 -3 4 5 -5 7 -16 9 -29 5 -19 -6 -20 -5 -8 10 7 9 11 16 9 16 -3 0 -13 -10 -24 -22z"/>
 <path d="M1068 943 c-10 -2 -18 -9 -18 -14 0 -14 20 -11 36 6 16 15 13 16 -18 8z"/>
 <path d="M750 889 c0 -6 -7 -8 -16 -5 -10 4 -13 2 -8 -6 5 -8 2 -9 -9 -5 -20 8 -49 -2 -42 -13 3 -5 20 -4 38 2 17 6 52 16 77 23 l45 14 -42 0 c-25 1 -43 -4 -43 -10z"/>
 <path d="M545 869 c-9 -13 0 -22 23 -24 9 0 23 -5 30 -9 7 -4 16 -5 19 -2 4 3 1 6 -5 6 -7 0 -12 5 -12 11 0 5 4 8 9 4 5 -3 12 -1 16 4 3 6 -5 8 -20 5 -14 -2 -25 0 -25 6 0 13 -27 13 -35 -1z"/>
 <path d="M845 863 c-16 -2 -52 -10 -80 -17 -27 -8 -69 -20 -93 -27 -61 -18 -76 -31 -67 -58 7 -23 8 -22 45 14 24 23 43 34 51 30 7 -5 10 -4 6 2 -4 7 2 11 16 11 32 -1 180 31 189 40 8 8 -20 11 -67 5z m-195 -78 c-13 -14 -26 -22 -29 -19 -3 3 5 14 19 24 34 27 38 25 10 -5z"/>
 <path d="M540 805 c0 -23 3 -27 10 -15 8 12 10 12 10 1 0 -15 7 -12 10 4 1 6 7 17 13 25 11 13 10 13 -6 1 -16 -13 -20 -13 -28 0 -6 10 -9 6 -9 -16z"/>
 <path d="M290 791 c0 -5 14 -14 31 -20 46 -16 48 -14 11 9 -37 22 -42 24 -42 11z"/>
 <path d="M760 790 c0 -7 14 -8 38 -4 51 9 53 14 4 14 -23 0 -42 -5 -42 -10z"/>
 <path d="M657 762 c-18 -20 -23 -47 -7 -37 6 3 13 -1 16 -9 3 -9 13 -16 22 -16 8 0 12 3 9 7 -4 3 -2 12 4 20 14 16 -2 18 -18 2 -8 -8 -13 -7 -18 1 -4 7 -4 15 1 19 9 6 17 31 11 31 -2 0 -11 -8 -20 -18z"/>
 <path d="M381 753 c8 -4 3 -11 -12 -20 l-24 -14 25 7 25 7 -20 -24 -20 -24 22 18 c22 19 25 49 4 53 -9 2 -9 1 0 -3z"/>
 <path d="M553 718 c-43 -14 -43 -29 -1 -17 43 12 49 11 47 -3 -3 -25 1 -39 10 -34 4 3 13 -6 20 -20 15 -33 14 -42 -1 -21 -7 9 -30 19 -50 21 -21 2 -42 7 -48 11 -20 13 -9 -7 22 -38 27 -28 31 -29 26 -10 -4 16 -2 20 8 16 8 -3 12 -15 10 -29 -3 -13 0 -27 6 -30 6 -4 8 -2 4 4 -3 6 -2 14 4 17 6 4 10 3 9 -2 -4 -18 14 -72 25 -76 13 -5 16 147 3 160 -5 4 -5 -1 -2 -12 6 -16 3 -15 -14 5 -13 16 -19 33 -16 48 6 25 -8 27 -62 10z"/>
 <path d="M471 715 c-1 -12 19 -35 31 -35 4 0 5 7 2 15 -4 8 -10 13 -14 10 -5 -3 -11 1 -13 7 -3 7 -6 8 -6 3z"/>
 <path d="M536 680 c-18 -6 -18 -7 4 -13 28 -7 32 -6 22 9 -4 6 -16 8 -26 4z"/>
 <path d="M290 673 c-14 -3 -29 -9 -35 -15 -7 -8 -6 -9 3 -4 7 4 43 8 80 9 49 0 59 2 37 8 -34 8 -50 8 -85 2z"/>
 <path d="M590 500 c0 -19 3 -21 12 -12 9 9 9 15 0 24 -9 9 -12 7 -12 -12z"/>
 </g>
<g id="layer103" fill="#db2629" stroke="none">
 <path d="M756 891 c5 -6 24 -6 44 -1 l35 8 -44 1 c-28 1 -41 -3 -35 -8z"/>
 <path d="M690 869 c0 -5 -5 -7 -12 -3 -7 4 -8 3 -4 -4 4 -6 13 -9 21 -5 17 6 20 23 5 23 -5 0 -10 -5 -10 -11z"/>
 <path d="M570 859 c-31 -6 -30 -9 5 -13 6 -1 16 -5 23 -10 7 -4 16 -5 19 -2 4 3 1 6 -5 6 -7 0 -12 5 -12 11 0 5 4 8 9 4 5 -3 12 -2 15 3 6 10 -5 10 -54 1z"/>
 <path d="M834 859 c-28 -4 -61 -13 -75 -18 l-24 -10 26 0 c53 -2 118 12 123 25 3 8 4 13 3 13 -1 -1 -25 -5 -53 -10z"/>
 <path d="M678 817 c-7 -8 -18 -12 -24 -10 -16 5 -44 -25 -43 -45 0 -12 3 -10 10 7 5 14 15 21 23 18 8 -3 20 1 27 9 7 8 18 13 26 10 8 -4 11 -1 7 5 -4 8 1 9 16 4 15 -5 20 -4 16 4 -10 15 -42 14 -58 -2z"/>
 <path d="M290 791 c0 -5 14 -14 31 -20 46 -16 48 -14 11 9 -37 22 -42 24 -42 11z"/>
 <path d="M760 790 c0 -7 14 -8 38 -4 51 9 53 14 4 14 -23 0 -42 -5 -42 -10z"/>
 <path d="M360 729 c-11 -8 -9 -9 10 -3 l25 7 -20 -24 -20 -24 22 19 c32 26 17 49 -17 25z"/>
 <path d="M567 713 c-3 -5 6 -8 19 -8 13 0 24 3 24 8 0 4 -9 7 -19 7 -11 0 -22 -3 -24 -7z"/>
 <path d="M290 673 c-47 -9 -41 -20 7 -13 26 4 55 5 63 3 13 -4 13 -4 0 6 -15 11 -27 12 -70 4z"/>
 <path d="M647 649 c5 -24 5 -24 -11 -4 -17 20 -17 20 -7 -2 14 -28 14 -44 0 -20 -5 9 -19 17 -30 17 -14 0 -18 4 -13 13 6 9 3 8 -8 -1 -13 -10 -22 -11 -37 -2 -12 6 -21 8 -21 4 0 -12 52 -55 58 -49 4 3 0 10 -8 15 -11 7 -8 10 13 10 17 0 27 -5 27 -15 0 -8 -5 -15 -11 -15 -5 0 -7 -5 -4 -10 4 -6 11 -7 17 -4 6 4 8 2 4 -4 -3 -6 -2 -13 4 -17 5 -3 10 -14 10 -24 0 -10 7 -24 16 -31 13 -12 14 -10 3 12 -8 19 -8 39 0 79 8 34 8 56 2 62 -6 6 -8 1 -4 -14z"/>
 </g>
<g id="layer104" fill="#aa5f60" stroke="none">
 <path d="M756 891 c5 -6 24 -6 44 -1 l35 8 -44 1 c-28 1 -41 -3 -35 -8z"/>
 <path d="M690 869 c0 -5 -5 -7 -12 -3 -7 4 -8 3 -4 -4 4 -6 13 -9 21 -5 17 6 20 23 5 23 -5 0 -10 -5 -10 -11z"/>
 <path d="M570 859 c-31 -6 -30 -9 5 -13 6 -1 16 -5 23 -10 7 -4 16 -5 19 -2 4 3 1 6 -5 6 -7 0 -12 5 -12 11 0 5 4 8 9 4 5 -3 12 -2 15 3 6 10 -5 10 -54 1z"/>
 <path d="M834 859 c-28 -4 -61 -13 -75 -18 l-24 -10 26 0 c53 -2 118 12 123 25 3 8 4 13 3 13 -1 -1 -25 -5 -53 -10z"/>
 <path d="M678 818 c-7 -7 -20 -14 -28 -16 -8 -2 -19 -7 -23 -11 -13 -13 30 -6 47 8 8 7 21 9 27 5 8 -5 9 -3 4 6 -6 9 -2 10 15 5 15 -5 20 -4 16 4 -10 15 -41 14 -58 -1z"/>
 <path d="M290 791 c0 -5 14 -14 31 -20 46 -16 48 -14 11 9 -37 22 -42 24 -42 11z"/>
 <path d="M760 790 c0 -7 14 -8 38 -4 51 9 53 14 4 14 -23 0 -42 -5 -42 -10z"/>
 <path d="M360 729 c-11 -8 -9 -9 10 -3 l25 7 -20 -24 -20 -24 22 19 c32 26 17 49 -17 25z"/>
 <path d="M290 673 c-47 -9 -41 -20 7 -13 26 4 55 5 63 3 13 -4 13 -4 0 6 -15 11 -27 12 -70 4z"/>
 <path d="M570 645 c-10 -13 -9 -15 11 -14 13 0 18 3 11 6 -6 2 -10 9 -6 14 9 15 -2 10 -16 -6z"/>
 <path d="M545 624 c15 -14 29 -23 32 -20 7 6 -35 46 -48 46 -7 0 0 -11 16 -26z"/>
 <path d="M639 614 c-1 -5 -1 -12 -1 -16 1 -3 -5 -9 -14 -12 -8 -3 -12 -2 -9 4 3 6 1 10 -5 10 -17 0 -6 -24 12 -28 16 -3 35 34 24 45 -3 4 -7 2 -7 -3z"/>
 </g>
<g id="layer105" fill="#e35b5d" stroke="none">
 <path d="M780 846 c0 -9 40 -13 46 -5 3 5 -6 9 -20 9 -14 0 -26 -2 -26 -4z"/>
 <path d="M563 641 c-21 -17 -21 -31 -1 -31 5 0 6 5 3 10 -3 6 4 10 17 11 13 0 17 3 10 6 -6 2 -10 9 -6 14 8 13 2 11 -23 -10z"/>
 <path d="M639 614 c-1 -5 -1 -12 -1 -16 1 -3 -5 -9 -14 -12 -8 -3 -12 -2 -9 4 3 6 1 10 -5 10 -17 0 -6 -24 12 -28 16 -3 35 34 24 45 -3 4 -7 2 -7 -3z"/>
 </g>
<g id="layer106" fill="#eaa6a8" stroke="none">
 <path d="M780 846 c0 -9 40 -13 46 -5 3 5 -6 9 -20 9 -14 0 -26 -2 -26 -4z"/>
 </g>

</svg>