<!DOCTYPE svg PUBLIC "-//W3C//DTD SVG 20010904//EN" "http://www.w3.org/TR/2001/REC-SVG-20010904/DTD/svg10.dtd">
<svg version="1.0" xmlns="http://www.w3.org/2000/svg" width="180px" height="179px" viewBox="0 0 1800 1790" preserveAspectRatio="xMidYMid meet">
<g id="layer101" fill="#c70505" stroke="none">
 <path d="M686 1559 c-8 -17 -1 -339 9 -444 5 -52 4 -58 -8 -42 -8 9 -17 17 -20 17 -9 0 4 -93 14 -104 5 -6 9 -17 9 -25 -1 -13 -3 -12 -11 2 -8 14 -14 16 -25 6 -8 -7 -12 -20 -9 -30 4 -12 1 -21 -9 -25 -18 -7 -10 -34 11 -34 12 0 14 -8 9 -33 -5 -27 -2 -37 19 -55 15 -13 25 -33 25 -48 0 -14 4 -23 9 -20 5 3 14 -8 20 -25 10 -28 12 -29 27 -15 8 9 20 16 25 16 5 0 9 7 9 15 0 8 4 15 10 15 5 0 7 7 4 15 -3 8 4 34 15 58 21 43 21 58 -2 105 -9 18 -8 25 2 32 11 6 9 13 -8 31 -12 13 -19 30 -16 37 3 8 -5 31 -17 51 -13 20 -23 43 -23 51 -1 14 -13 58 -40 147 -12 36 -12 44 1 51 17 10 19 44 4 102 -6 25 -9 60 -6 78 2 18 1 30 -4 27 -5 -3 -10 9 -12 27 -3 24 -6 29 -12 17z"/>
 <path d="M730 1266 c0 -8 5 -18 10 -21 6 -3 10 1 10 9 0 8 -4 18 -10 21 -5 3 -10 -1 -10 -9z"/>
 <path d="M817 1178 c6 -40 16 -57 36 -58 4 0 7 7 7 15 0 8 -6 15 -14 15 -9 0 -13 10 -12 31 0 18 -4 34 -11 36 -8 3 -10 -9 -6 -39z"/>
 <path d="M780 1081 c0 -5 7 -14 15 -21 13 -10 15 -9 15 9 0 12 -6 21 -15 21 -8 0 -15 -4 -15 -9z"/>
 <path d="M845 1021 c3 -18 5 -51 5 -72 0 -22 5 -39 10 -39 6 0 10 7 10 15 0 8 5 15 12 15 6 0 4 6 -7 13 -15 12 -16 19 -7 45 9 26 8 32 -3 32 -7 0 -16 6 -19 13 -4 6 -4 -3 -1 -22z"/>
 <path d="M810 995 c0 -8 5 -15 10 -15 6 0 10 7 10 15 0 8 -4 15 -10 15 -5 0 -10 -7 -10 -15z"/>
 <path d="M850 841 c0 -10 -3 -26 -6 -35 -5 -13 1 -16 25 -16 17 0 31 5 31 10 0 6 -7 10 -15 10 -8 0 -15 9 -15 19 0 11 -4 23 -10 26 -5 3 -10 -3 -10 -14z"/>
 <path d="M790 581 c0 -5 7 -12 16 -15 22 -9 24 -8 24 9 0 8 -9 15 -20 15 -11 0 -20 -4 -20 -9z"/>
 </g>
<g id="layer102" fill="#d75656" stroke="none">
 <path d="M688 1564 c-5 -4 -8 -21 -8 -38 1 -26 2 -28 11 -13 11 19 8 63 -3 51z"/>
 <path d="M683 1440 c0 -25 2 -35 4 -22 2 12 2 32 0 45 -2 12 -4 2 -4 -23z"/>
 <path d="M683 1320 c0 -25 2 -35 4 -22 2 12 2 32 0 45 -2 12 -4 2 -4 -23z"/>
 <path d="M820 1160 c0 -25 4 -31 16 -26 8 3 12 2 9 -4 -3 -6 -1 -10 4 -10 6 0 11 7 11 15 0 8 -7 15 -16 15 -10 0 -14 6 -11 15 4 8 2 17 -3 20 -6 4 -10 -8 -10 -25z"/>
 <path d="M744 1122 c1 -17 8 -37 16 -44 12 -11 12 -11 1 4 -7 9 -10 22 -6 27 3 6 2 18 -3 28 -8 13 -9 10 -8 -15z"/>
 <path d="M780 1081 c0 -5 7 -14 15 -21 10 -9 15 -9 15 -1 0 6 -6 11 -12 11 -9 0 -8 4 2 10 13 8 12 10 -2 10 -10 0 -18 -4 -18 -9z"/>
 <path d="M701 1072 c-1 -8 -6 -10 -13 -6 -8 5 -7 1 2 -10 15 -19 26 -7 17 17 -4 9 -6 9 -6 -1z"/>
 <path d="M670 1006 c0 -8 5 -18 10 -21 6 -3 10 -14 10 -23 -1 -15 -2 -15 -11 1 -8 14 -14 16 -25 6 -8 -6 -12 -20 -9 -30 4 -10 0 -21 -9 -26 -10 -6 -12 -13 -6 -23 8 -13 13 -13 31 -2 20 13 21 12 15 -5 -6 -15 -5 -16 6 -5 11 11 10 16 -4 26 -22 16 -23 26 -4 26 27 0 35 53 11 76 -13 14 -15 14 -15 0z"/>
 <path d="M803 963 c6 -13 14 -23 19 -23 13 0 10 18 -4 23 -10 4 -9 8 2 16 12 8 11 10 -6 9 -19 -2 -20 -5 -11 -25z"/>
 <path d="M854 951 c2 -36 12 -49 18 -23 3 10 0 26 -7 36 -11 15 -13 13 -11 -13z"/>
 <path d="M800 928 c0 -3 7 -19 15 -34 8 -16 15 -22 15 -14 -1 8 -7 24 -15 34 -8 11 -15 17 -15 14z"/>
 <path d="M850 846 c0 -8 5 -18 10 -21 6 -3 10 1 10 9 0 8 -4 18 -10 21 -5 3 -10 -1 -10 -9z"/>
 <path d="M651 829 c-1 -8 10 -25 24 -37 14 -12 25 -17 25 -12 0 6 -7 13 -16 17 -9 3 -20 15 -24 27 -6 14 -9 16 -9 5z"/>
 <path d="M790 741 c0 -6 -10 -21 -22 -33 -17 -17 -18 -20 -4 -15 10 4 20 7 22 7 2 0 4 6 4 14 0 8 5 16 12 18 9 3 9 6 0 12 -7 4 -12 2 -12 -3z"/>
 <path d="M790 581 c0 -5 7 -12 16 -15 21 -8 21 -8 21 9 0 8 -9 15 -19 15 -10 0 -18 -4 -18 -9z"/>
 </g>

</svg>