<!DOCTYPE svg PUBLIC "-//W3C//DTD SVG 20010904//EN" "http://www.w3.org/TR/2001/REC-SVG-20010904/DTD/svg10.dtd">
<svg version="1.0" xmlns="http://www.w3.org/2000/svg" width="180px" height="179px" viewBox="0 0 1800 1790" preserveAspectRatio="xMidYMid meet">
<g id="layer101" fill="#a5171d" stroke="none">
 <path d="M358 1778 c9 -9 15 -9 24 0 9 9 7 12 -12 12 -19 0 -21 -3 -12 -12z"/>
 <path d="M1772 1758 c-16 -16 -15 -48 2 -48 14 0 26 21 26 46 0 17 -12 18 -28 2z"/>
 <path d="M1620 1675 c0 -20 4 -26 18 -23 9 2 17 12 17 23 0 11 -8 21 -17 23 -14 3 -18 -3 -18 -23z"/>
 <path d="M760 1658 c0 -14 6 -19 22 -16 31 4 33 25 3 30 -20 4 -25 1 -25 -14z"/>
 <path d="M382 1573 c2 -11 14 -19 31 -21 23 -3 28 0 25 15 -2 11 -14 19 -31 21 -23 3 -28 0 -25 -15z"/>
 <path d="M1063 1578 c-20 -10 -38 -36 -30 -44 2 -2 18 1 35 7 21 7 32 18 32 30 0 21 -5 22 -37 7z"/>
 <path d="M650 1570 c0 -12 35 -31 44 -23 15 15 4 33 -19 33 -14 0 -25 -4 -25 -10z"/>
 <path d="M360 1525 c0 -20 39 -40 53 -26 7 7 6 15 -3 26 -16 19 -50 20 -50 0z"/>
 <path d="M960 1525 c0 -10 7 -15 18 -13 21 4 19 22 -2 26 -10 2 -16 -3 -16 -13z"/>
 <path d="M418 1473 c-39 -6 -37 -33 2 -33 23 0 30 4 30 20 0 11 -1 19 -2 19 -2 -1 -15 -4 -30 -6z"/>
 <path d="M842 1463 c2 -12 12 -18 28 -18 16 0 26 6 28 18 3 13 -3 17 -28 17 -25 0 -31 -4 -28 -17z"/>
 <path d="M484 1435 c-8 -19 3 -35 26 -35 19 0 30 17 23 38 -6 17 -42 15 -49 -3z"/>
 <path d="M679 1428 c0 -13 -3 -17 -6 -10 -2 6 -16 12 -29 12 -19 0 -24 -5 -24 -24 0 -13 6 -26 12 -28 9 -3 8 -10 -5 -23 -11 -11 -16 -26 -13 -36 19 -62 19 -61 0 -57 -12 2 -20 13 -22 28 -5 47 -24 71 -51 68 -24 -3 -26 -8 -29 -56 -2 -35 2 -59 12 -74 9 -12 16 -30 16 -39 0 -10 5 -19 11 -21 7 -2 13 -17 14 -33 2 -17 1 -24 -2 -17 -6 16 -30 15 -40 -2 -4 -8 -15 -14 -23 -14 -52 3 -62 -14 -38 -67 8 -18 18 -25 30 -22 11 3 18 0 18 -9 0 -8 10 -14 21 -14 18 0 19 -3 9 -15 -9 -11 -16 -12 -32 -2 -16 10 -22 8 -39 -12 -23 -28 -24 -54 -3 -72 12 -10 20 -10 35 -1 29 18 42 15 36 -11 -9 -33 8 -55 31 -41 15 10 21 8 33 -10 8 -11 16 -37 19 -56 3 -22 13 -38 26 -45 55 -27 71 -77 39 -119 -20 -26 -19 -38 3 -34 9 2 22 -3 28 -11 18 -23 44 -6 44 28 0 25 -3 29 -17 24 -10 -4 -21 -11 -25 -17 -5 -7 -8 -5 -8 5 0 10 11 20 25 23 14 4 34 15 45 26 20 20 20 20 20 -4 0 -26 27 -43 44 -26 6 6 11 31 11 55 0 50 2 53 21 28 8 -12 9 -22 2 -30 -15 -18 -5 -57 16 -61 26 -5 35 14 31 65 -2 31 1 43 11 43 8 0 14 6 14 13 0 8 3 8 9 -2 13 -21 41 -5 41 23 0 14 -8 29 -17 35 -25 14 1 41 41 41 24 0 37 9 56 35 21 29 31 34 63 35 34 0 37 2 37 29 0 34 -35 61 -80 61 -27 0 -30 3 -24 24 4 18 -1 30 -23 50 -27 25 -27 26 -5 26 25 0 31 31 9 52 -19 17 19 77 49 78 24 0 34 18 34 56 0 21 -3 23 -32 17 -18 -3 -39 -10 -46 -16 -15 -11 -15 -11 -27 28 -7 18 -20 32 -35 36 -14 4 -20 7 -14 8 14 1 25 62 13 76 -4 6 -26 9 -48 7 -35 -4 -41 -8 -46 -34 -6 -23 -3 -33 14 -44 12 -9 21 -26 21 -40 0 -26 -9 -31 -27 -13 -8 8 -13 8 -17 0 -12 -20 -24 -12 -31 20 -5 21 -3 34 5 39 8 5 10 18 6 34 -5 19 -13 26 -31 26 -22 0 -24 -3 -18 -30 5 -26 2 -30 -15 -30 -12 0 -26 -8 -32 -17 -11 -17 -11 -17 -6 0 7 23 -8 60 -35 86 -30 28 -59 27 -60 -1z m27 -66 c-4 -3 -11 0 -16 8 -15 24 -11 33 6 15 9 -9 13 -19 10 -23z"/>
 <path d="M384 1315 c-4 -8 -3 -26 0 -40 6 -23 11 -25 57 -25 l52 0 -7 32 c-9 47 -45 62 -47 20 0 -12 -3 -11 -9 6 -11 25 -38 29 -46 7z"/>
 <path d="M1316 1305 c4 -8 15 -20 26 -26 17 -9 19 -8 16 13 -2 15 -11 24 -25 26 -18 3 -21 0 -17 -13z"/>
 <path d="M1162 1298 c-21 -21 -14 -55 12 -60 20 -4 25 0 30 25 3 16 6 33 6 38 0 13 -34 11 -48 -3z"/>
 <path d="M50 1280 c0 -13 7 -20 20 -20 13 0 20 7 20 20 0 13 -7 20 -20 20 -13 0 -20 -7 -20 -20z"/>
 <path d="M1280 1260 c0 -15 7 -20 25 -20 29 0 30 3 9 24 -21 22 -34 20 -34 -4z"/>
 <path d="M450 1200 c0 -37 2 -41 23 -38 18 2 22 9 22 38 0 29 -4 36 -22 38 -21 3 -23 -1 -23 -38z"/>
 <path d="M347 1212 c-3 -4 -3 -20 0 -36 l6 -29 14 24 14 24 -5 -26 c-6 -30 0 -40 20 -32 18 7 18 33 -2 61 -15 22 -38 29 -47 14z"/>
 <path d="M270 1196 c1 -38 14 -56 41 -56 23 0 29 4 29 23 0 17 -9 25 -35 33 -25 8 -35 8 -35 0z"/>
 <path d="M180 1153 c0 -23 11 -38 33 -46 20 -7 21 2 5 38 -13 29 -38 34 -38 8z"/>
 <path d="M74 1057 c-8 -21 1 -47 16 -47 19 0 23 31 7 48 -15 14 -17 14 -23 -1z"/>
 <path d="M27 1053 c-13 -12 -7 -33 8 -33 8 0 15 9 15 20 0 20 -11 26 -23 13z"/>
 <path d="M343 1034 c-9 -25 17 -64 44 -64 36 0 40 28 8 56 -33 28 -43 30 -52 8z"/>
 <path d="M1270 926 c0 -8 8 -17 18 -19 10 -3 6 -5 -10 -6 -30 -1 -36 -18 -18 -52 13 -24 49 -25 56 -1 3 9 10 25 15 34 13 26 11 38 -6 32 -9 -4 -15 0 -15 10 0 9 -8 16 -20 16 -11 0 -20 -6 -20 -14z"/>
 <path d="M347 843 c-4 -3 -7 -15 -7 -26 0 -13 5 -17 16 -13 9 3 18 6 20 6 2 0 4 9 4 20 0 19 -20 27 -33 13z"/>
 <path d="M1395 820 c-8 -24 11 -60 31 -60 9 0 22 -7 31 -15 18 -18 37 -15 41 6 2 9 -11 20 -33 28 -22 8 -40 22 -45 37 -11 29 -17 30 -25 4z"/>
 <path d="M471 785 c-38 -43 -42 -85 -8 -80 12 1 34 8 50 15 23 11 27 19 27 57 0 36 -3 43 -19 43 -10 0 -33 -16 -50 -35z"/>
 <path d="M1002 803 c2 -10 13 -19 26 -21 24 -4 29 7 10 26 -18 18 -40 15 -36 -5z"/>
 <path d="M2 773 c4 -39 28 -42 28 -4 0 21 -5 31 -16 31 -11 0 -14 -8 -12 -27z"/>
 <path d="M376 763 c-8 -19 8 -38 23 -29 16 10 13 46 -3 46 -8 0 -17 -8 -20 -17z"/>
 <path d="M1004 725 c-9 -24 2 -42 30 -47 30 -6 36 -2 36 24 0 11 -11 23 -26 28 -33 13 -34 13 -40 -5z"/>
 <path d="M1217 703 c-4 -3 -7 -21 -7 -39 0 -23 5 -33 19 -37 28 -7 33 3 16 29 -8 13 -12 30 -9 38 6 16 -7 22 -19 9z"/>
 <path d="M640 645 c-10 -13 -11 -18 -1 -28 10 -9 15 -8 26 7 23 31 -1 50 -25 21z"/>
 <path d="M467 643 c-4 -3 -7 -19 -7 -35 0 -24 4 -28 30 -28 31 0 56 30 46 56 -5 14 -57 20 -69 7z"/>
 <path d="M1055 630 c-11 -17 26 -60 51 -60 27 0 32 24 10 53 -14 18 -51 23 -61 7z"/>
 <path d="M524 556 c-8 -20 -7 -21 29 -30 23 -5 27 -3 27 14 0 11 -4 20 -9 20 -5 0 -16 3 -25 6 -10 4 -18 0 -22 -10z"/>
 <path d="M616 544 c-14 -37 -7 -54 24 -54 28 0 30 3 30 35 0 30 -3 35 -24 35 -13 0 -27 -7 -30 -16z"/>
 <path d="M393 488 c-28 -13 -30 -38 -5 -38 21 0 56 33 45 43 -8 9 -13 8 -40 -5z"/>
 <path d="M524 465 c-8 -19 10 -41 36 -48 24 -6 26 10 4 41 -18 26 -32 28 -40 7z"/>
 <path d="M1192 454 c9 -9 21 -13 27 -9 16 10 3 25 -22 25 -20 0 -20 -1 -5 -16z"/>
 <path d="M1170 431 c0 -21 13 -41 26 -41 17 0 17 10 0 33 -14 19 -26 22 -26 8z"/>
 <path d="M371 414 c-12 -14 -11 -16 4 -12 10 1 20 9 23 16 5 17 -10 15 -27 -4z"/>
 <path d="M520 402 c0 -22 4 -32 12 -30 18 6 20 22 3 43 -14 19 -14 18 -15 -13z"/>
 <path d="M1070 406 c0 -14 10 -30 25 -40 31 -20 55 -21 55 -1 0 8 -9 15 -20 15 -13 0 -20 7 -20 19 0 10 -7 22 -16 25 -23 9 -24 8 -24 -18z"/>
 <path d="M481 406 c-7 -9 -10 -23 -7 -33 6 -15 8 -15 22 -1 11 11 13 21 7 33 -9 15 -11 15 -22 1z"/>
 <path d="M695 369 c-4 -5 -4 -21 -1 -34 4 -17 11 -22 25 -18 18 5 34 46 23 58 -9 9 -41 5 -47 -6z"/>
 <path d="M1152 148 c7 -20 58 -23 58 -4 0 11 -10 16 -31 16 -20 0 -29 -4 -27 -12z"/>
 <path d="M636 72 c-3 -3 -6 -20 -6 -39 0 -28 3 -33 24 -33 25 0 42 25 25 36 -6 3 -8 12 -5 19 5 13 -28 28 -38 17z"/>
 </g>
<g id="layer102" fill="#cd2f1e" stroke="none">
 <path d="M358 1778 c9 -9 15 -9 24 0 9 9 7 12 -12 12 -19 0 -21 -3 -12 -12z"/>
 <path d="M1772 1758 c-16 -16 -15 -48 2 -48 14 0 26 21 26 46 0 17 -12 18 -28 2z"/>
 <path d="M1620 1675 c0 -20 4 -26 18 -23 9 2 17 12 17 23 0 11 -8 21 -17 23 -14 3 -18 -3 -18 -23z"/>
 <path d="M760 1658 c0 -14 6 -19 22 -16 31 4 33 25 3 30 -20 4 -25 1 -25 -14z"/>
 <path d="M382 1573 c2 -11 14 -19 31 -21 23 -3 28 0 25 15 -2 11 -14 19 -31 21 -23 3 -28 0 -25 -15z"/>
 <path d="M1080 1579 c0 -5 -4 -8 -9 -4 -10 6 -41 -21 -41 -36 0 -11 0 -11 39 2 20 7 31 18 31 30 0 10 -4 19 -10 19 -5 0 -10 -5 -10 -11z"/>
 <path d="M650 1570 c0 -12 35 -31 44 -23 15 15 4 33 -19 33 -14 0 -25 -4 -25 -10z"/>
 <path d="M360 1525 c0 -20 39 -40 53 -26 7 7 6 15 -3 26 -16 19 -50 20 -50 0z"/>
 <path d="M960 1525 c0 -10 7 -15 18 -13 21 4 19 22 -2 26 -10 2 -16 -3 -16 -13z"/>
 <path d="M418 1473 c-39 -6 -37 -33 2 -33 23 0 30 4 30 20 0 11 -1 19 -2 19 -2 -1 -15 -4 -30 -6z"/>
 <path d="M842 1463 c2 -12 12 -18 28 -18 16 0 26 6 28 18 3 13 -3 17 -28 17 -25 0 -31 -4 -28 -17z"/>
 <path d="M484 1435 c-8 -19 3 -35 26 -35 19 0 30 17 23 38 -6 17 -42 15 -49 -3z"/>
 <path d="M679 1428 c0 -13 -3 -17 -6 -10 -2 6 -16 12 -29 12 -19 0 -24 -5 -24 -24 0 -13 6 -26 12 -28 9 -3 8 -10 -5 -23 -11 -11 -16 -26 -13 -36 19 -62 19 -61 0 -57 -12 2 -20 13 -22 28 -5 47 -24 71 -51 68 -24 -3 -26 -8 -29 -56 -2 -35 2 -59 12 -74 9 -12 16 -30 16 -39 0 -10 5 -19 11 -21 7 -2 13 -17 14 -33 2 -17 1 -24 -2 -17 -6 16 -30 15 -40 -2 -4 -8 -15 -14 -23 -14 -52 3 -62 -14 -38 -67 8 -18 18 -25 30 -22 11 3 18 0 18 -9 0 -8 10 -14 21 -14 18 0 19 -2 9 -15 -10 -12 -16 -13 -26 -4 -11 9 -14 8 -14 -2 0 -12 -2 -12 -9 0 -7 10 -12 8 -25 -10 -20 -30 -20 -53 0 -70 12 -10 20 -10 35 -1 29 18 42 15 36 -11 -9 -33 8 -55 31 -41 15 10 21 8 33 -10 8 -11 16 -37 19 -56 3 -22 13 -38 26 -45 12 -6 29 -17 38 -24 19 -16 21 -72 4 -89 -9 -9 -9 -12 0 -12 7 0 9 -7 5 -17 -3 -10 -3 -15 2 -11 4 4 13 0 20 -9 18 -25 45 -9 45 26 0 25 -3 29 -17 24 -10 -4 -21 -11 -25 -17 -5 -7 -8 -5 -8 5 0 10 11 20 25 23 14 4 34 15 45 26 20 20 20 20 20 -4 0 -26 27 -43 44 -26 13 13 18 110 4 107 -5 -1 -19 10 -31 25 -15 20 -17 30 -9 40 5 7 12 26 14 42 4 36 28 48 29 14 0 -23 0 -23 9 -2 5 12 13 25 19 29 16 9 13 25 -4 25 -8 0 -15 8 -15 18 0 9 -16 37 -35 60 -48 61 -50 75 -19 122 15 22 24 43 21 47 -4 3 -10 -3 -14 -13 -8 -23 -33 -43 -52 -44 -11 0 -11 3 -2 14 15 18 -2 56 -24 56 -8 0 -15 7 -15 15 0 15 -35 29 -60 23 -10 -2 -13 14 -14 70 -1 60 2 73 16 78 10 3 22 2 28 -1 13 -8 13 -45 -1 -45 -6 0 -9 -12 -7 -27 2 -21 8 -27 21 -25 11 2 24 -4 31 -14 12 -16 14 -16 27 3 8 11 21 23 29 26 9 4 6 6 -10 6 -61 -2 -80 1 -80 16 0 14 27 20 72 16 11 -1 23 9 30 23 14 33 1 47 -19 21 -13 -16 -15 -17 -10 -2 8 23 -7 60 -34 86 -30 28 -59 27 -60 -1z m56 -28 c10 -11 15 -23 12 -27 -8 -7 -47 25 -47 39 0 14 16 9 35 -12z m-29 -38 c-4 -3 -11 0 -16 8 -15 24 -11 33 6 15 9 -9 13 -19 10 -23z m-146 -46 c0 -2 -3 -11 -6 -20 -9 -23 -24 -20 -24 4 0 11 7 20 15 20 8 0 15 -2 15 -4z m-50 -381 c10 -12 10 -15 -4 -15 -9 0 -16 7 -16 15 0 8 2 15 4 15 2 0 9 -7 16 -15z m320 -230 c0 -9 -6 -12 -15 -9 -8 4 -22 1 -30 -6 -9 -7 -18 -10 -22 -6 -9 9 28 35 50 36 9 0 17 -7 17 -15z"/>
 <path d="M948 1432 c-32 -3 -38 -7 -43 -33 -6 -25 -3 -34 14 -45 12 -9 21 -26 21 -40 0 -26 -9 -31 -27 -13 -8 8 -13 8 -17 0 -12 -20 -24 -12 -31 20 -5 21 -3 34 5 39 21 13 3 60 -23 60 -20 0 -22 -5 -22 -40 0 -22 3 -40 7 -40 5 0 8 -6 8 -13 0 -21 24 -67 35 -67 6 0 25 4 44 10 31 9 33 8 27 -13 -5 -20 17 -57 35 -57 5 0 17 9 27 20 12 13 25 18 35 14 21 -8 22 -33 2 -40 -8 -4 -15 -15 -15 -25 0 -12 -5 -16 -15 -13 -10 4 -15 0 -15 -12 0 -28 26 -95 39 -103 8 -5 10 -21 6 -47 -5 -31 -2 -44 14 -62 16 -20 18 -27 8 -43 -11 -18 -18 -20 -58 -23 -27 -2 -47 -26 -54 -66 -4 -26 -13 -40 -26 -43 -13 -3 -17 -11 -13 -21 8 -21 31 -20 37 2 4 16 5 15 6 -1 2 -27 35 -17 39 13 3 14 -3 29 -14 37 -24 18 -1 43 40 43 24 0 37 9 56 35 21 29 31 34 63 35 33 0 37 3 37 25 0 23 -2 24 -20 15 -27 -14 -72 -9 -78 9 -4 11 3 12 33 7 32 -6 36 -5 33 11 -3 19 -58 32 -58 14 0 -6 -7 -11 -16 -11 -11 0 -14 5 -9 18 17 41 16 51 -12 76 -27 25 -27 26 -5 26 25 0 31 31 9 52 -19 17 19 77 49 78 24 0 34 18 34 56 0 27 -12 31 -33 9 -12 -11 -16 -12 -20 -2 -3 9 -8 9 -21 -2 -19 -16 -18 -16 -32 24 -6 20 -17 31 -33 33 -13 2 -20 7 -14 10 16 11 24 69 10 79 -7 4 -29 7 -49 5z m25 -58 c-6 -16 -6 -16 -27 -8 -19 7 -21 30 -3 37 17 6 37 -12 30 -29z m15 -72 c2 -7 -3 -12 -12 -12 -9 0 -16 7 -16 16 0 17 22 14 28 -4z"/>
 <path d="M385 1320 c-3 -5 0 -10 7 -10 10 0 10 -2 -1 -9 -8 -5 -11 -16 -6 -30 5 -18 14 -21 57 -21 l51 0 -7 32 c-9 47 -45 62 -47 20 0 -12 -3 -11 -9 6 -10 23 -34 30 -45 12z"/>
 <path d="M1316 1305 c4 -8 15 -20 26 -26 17 -9 19 -8 16 13 -2 15 -11 24 -25 26 -18 3 -21 0 -17 -13z"/>
 <path d="M1162 1298 c-21 -21 -14 -55 12 -60 20 -4 25 0 30 25 3 16 6 33 6 38 0 13 -34 11 -48 -3z"/>
 <path d="M50 1280 c0 -13 7 -20 20 -20 13 0 20 7 20 20 0 13 -7 20 -20 20 -13 0 -20 -7 -20 -20z"/>
 <path d="M1280 1260 c0 -15 7 -20 25 -20 29 0 30 3 9 24 -21 22 -34 20 -34 -4z"/>
 <path d="M804 1225 c-10 -14 -25 -23 -31 -20 -17 6 -16 -3 2 -21 18 -18 35 -10 35 17 0 10 7 19 15 19 8 0 15 -9 15 -19 0 -11 9 -23 21 -26 12 -4 18 -12 15 -21 -6 -15 9 -20 18 -5 10 16 -6 71 -20 71 -8 0 -14 7 -14 15 0 24 -35 17 -56 -10z"/>
 <path d="M450 1199 c0 -36 2 -40 23 -37 16 2 23 11 25 31 2 15 -2 27 -8 27 -6 0 -9 4 -6 8 2 4 -4 9 -15 9 -16 2 -19 -5 -19 -38z"/>
 <path d="M337 1191 l-11 -30 -24 26 c-28 30 -36 25 -27 -16 5 -26 11 -31 36 -31 25 0 29 4 30 28 2 26 2 26 6 2 l5 -24 15 24 14 25 -5 -26 c-6 -30 0 -40 20 -32 18 7 18 33 -2 61 -21 30 -44 28 -57 -7z"/>
 <path d="M180 1153 c0 -23 11 -38 33 -46 20 -7 21 2 5 38 -13 29 -38 34 -38 8z"/>
 <path d="M74 1057 c-8 -21 1 -47 16 -47 19 0 23 31 7 48 -15 14 -17 14 -23 -1z"/>
 <path d="M27 1053 c-13 -12 -7 -33 8 -33 8 0 15 9 15 20 0 20 -11 26 -23 13z"/>
 <path d="M830 1045 c0 -8 5 -15 10 -15 6 0 10 7 10 15 0 8 -4 15 -10 15 -5 0 -10 -7 -10 -15z"/>
 <path d="M343 1034 c-9 -25 17 -64 44 -64 36 0 40 28 8 56 -33 28 -43 30 -52 8z"/>
 <path d="M1270 926 c0 -8 8 -17 18 -19 10 -3 6 -5 -10 -6 -30 -1 -36 -18 -18 -52 13 -24 49 -25 56 -1 3 9 10 25 15 34 13 26 11 38 -6 32 -9 -4 -15 0 -15 10 0 9 -8 16 -20 16 -11 0 -20 -6 -20 -14z"/>
 <path d="M347 843 c-4 -3 -7 -15 -7 -26 0 -13 5 -17 16 -13 9 3 18 6 20 6 2 0 4 9 4 20 0 19 -20 27 -33 13z"/>
 <path d="M1395 821 c-8 -25 11 -61 31 -61 9 0 22 -7 31 -15 18 -18 37 -15 40 6 2 8 -18 24 -48 38 -33 15 -47 26 -39 31 8 5 9 10 2 14 -6 3 -13 -3 -17 -13z"/>
 <path d="M471 785 c-38 -43 -42 -85 -8 -80 12 1 34 8 50 15 23 11 27 19 27 57 0 36 -3 43 -19 43 -10 0 -33 -16 -50 -35z m25 -37 c-9 -5 -16 -16 -16 -23 0 -8 -4 -15 -10 -15 -16 0 -12 20 12 53 20 27 23 29 26 13 2 -11 -3 -23 -12 -28z"/>
 <path d="M1002 803 c2 -10 13 -19 26 -21 24 -4 29 7 10 26 -18 18 -40 15 -36 -5z"/>
 <path d="M2 773 c4 -39 28 -42 28 -4 0 21 -5 31 -16 31 -11 0 -14 -8 -12 -27z"/>
 <path d="M376 763 c-8 -19 8 -38 23 -29 16 10 13 46 -3 46 -8 0 -17 -8 -20 -17z"/>
 <path d="M1004 726 c-9 -24 3 -46 26 -46 11 0 23 0 27 -1 4 0 9 4 11 10 2 6 -3 8 -11 5 -8 -3 -18 -1 -22 5 -3 6 1 11 9 11 9 0 16 5 16 10 0 6 -4 10 -9 10 -5 0 -16 3 -25 6 -10 4 -18 0 -22 -10z"/>
 <path d="M870 716 c0 -8 5 -18 10 -21 8 -5 7 -11 0 -20 -6 -8 -10 -24 -8 -37 4 -29 44 -38 51 -11 8 35 2 84 -13 93 -22 14 -40 12 -40 -4z"/>
 <path d="M1217 703 c-4 -3 -7 -21 -7 -39 0 -23 5 -33 19 -37 28 -7 33 3 16 29 -8 13 -12 30 -9 38 6 16 -7 22 -19 9z"/>
 <path d="M640 645 c-10 -13 -11 -18 -1 -28 10 -9 15 -8 26 7 23 31 -1 50 -25 21z"/>
 <path d="M467 643 c-14 -13 -7 -63 8 -63 8 0 15 6 15 13 0 6 3 22 6 35 5 15 2 22 -8 22 -8 0 -18 -3 -21 -7z"/>
 <path d="M510 613 c1 -36 1 -37 16 -18 17 22 15 46 -3 53 -9 2 -13 -8 -13 -35z"/>
 <path d="M1055 630 c-3 -5 2 -22 12 -36 l17 -27 6 24 c4 16 8 20 14 11 4 -6 4 -16 1 -22 -3 -5 1 -10 9 -10 19 0 20 29 2 53 -14 18 -51 23 -61 7z"/>
 <path d="M524 556 c-8 -20 -7 -21 29 -30 23 -5 27 -3 27 14 0 11 -4 20 -9 20 -5 0 -16 3 -25 6 -10 4 -18 0 -22 -10z"/>
 <path d="M616 544 c-14 -37 -7 -54 24 -54 32 0 40 14 15 24 -8 3 -15 10 -15 16 0 5 7 10 15 10 8 0 15 5 15 10 0 16 -47 11 -54 -6z"/>
 <path d="M393 488 c-28 -13 -30 -38 -5 -38 21 0 56 33 45 43 -8 9 -13 8 -40 -5z"/>
 <path d="M524 465 c-8 -19 10 -41 36 -48 24 -6 26 10 4 41 -18 26 -32 28 -40 7z"/>
 <path d="M1192 454 c9 -9 21 -13 27 -9 16 10 3 25 -22 25 -20 0 -20 -1 -5 -16z"/>
 <path d="M1170 431 c0 -21 13 -41 26 -41 17 0 17 10 0 33 -14 19 -26 22 -26 8z"/>
 <path d="M371 414 c-12 -14 -11 -16 4 -12 10 1 20 9 23 16 5 17 -10 15 -27 -4z"/>
 <path d="M520 402 c0 -22 4 -32 12 -30 18 6 20 22 3 43 -14 19 -14 18 -15 -13z"/>
 <path d="M1070 406 c0 -14 10 -30 25 -40 31 -20 55 -21 55 -1 0 8 -9 15 -20 15 -13 0 -20 7 -20 19 0 10 -7 22 -16 25 -23 9 -24 8 -24 -18z"/>
 <path d="M482 408 c-18 -18 -15 -28 8 -28 21 0 25 7 12 27 -6 10 -11 10 -20 1z"/>
 <path d="M695 369 c-4 -5 -4 -21 -1 -34 4 -17 11 -22 25 -18 18 5 34 46 23 58 -9 9 -41 5 -47 -6z"/>
 <path d="M1152 148 c7 -20 58 -23 58 -4 0 11 -10 16 -31 16 -20 0 -29 -4 -27 -12z"/>
 <path d="M636 72 c-3 -3 -6 -20 -6 -39 0 -28 3 -33 24 -33 25 0 42 25 25 36 -6 3 -8 12 -5 19 5 13 -28 28 -38 17z"/>
 </g>
<g id="layer103" fill="#b24f55" stroke="none">
 <path d="M358 1778 c9 -9 15 -9 24 0 9 9 7 12 -12 12 -19 0 -21 -3 -12 -12z"/>
 <path d="M1772 1758 c-13 -13 -16 -48 -4 -48 14 0 32 23 32 42 0 21 -11 23 -28 6z"/>
 <path d="M1620 1675 c0 -20 4 -26 18 -23 9 2 17 12 17 23 0 11 -8 21 -17 23 -14 3 -18 -3 -18 -23z"/>
 <path d="M760 1658 c0 -14 6 -19 22 -16 31 4 33 25 3 30 -20 4 -25 1 -25 -14z"/>
 <path d="M382 1573 c2 -11 14 -19 31 -21 23 -3 28 0 25 15 -2 11 -14 19 -31 21 -23 3 -28 0 -25 -15z"/>
 <path d="M650 1570 c0 -12 35 -31 44 -23 15 15 4 33 -19 33 -14 0 -25 -4 -25 -10z"/>
 <path d="M1043 1562 c-12 -12 -18 -32 -9 -32 19 0 66 25 66 35 0 17 -39 15 -57 -3z"/>
 <path d="M367 1533 c-12 -11 -8 -22 14 -34 28 -14 48 3 29 26 -13 16 -32 20 -43 8z"/>
 <path d="M965 1531 c-7 -12 12 -24 25 -16 11 7 4 25 -10 25 -5 0 -11 -4 -15 -9z"/>
 <path d="M842 1463 c2 -12 12 -18 28 -18 16 0 26 6 28 18 3 13 -3 17 -28 17 -25 0 -31 -4 -28 -17z"/>
 <path d="M390 1455 c0 -9 9 -15 25 -15 16 0 25 6 25 15 0 9 -9 15 -25 15 -16 0 -25 -6 -25 -15z"/>
 <path d="M484 1435 c-8 -19 3 -35 26 -35 19 0 30 17 23 38 -6 17 -42 15 -49 -3z"/>
 <path d="M679 1428 c0 -13 -3 -17 -6 -10 -2 6 -16 12 -29 12 -19 0 -24 -5 -24 -24 0 -13 6 -26 12 -28 9 -3 8 -10 -5 -23 -10 -9 -16 -24 -13 -32 4 -8 9 -26 12 -40 6 -21 3 -24 -12 -21 -12 2 -20 13 -22 28 -5 47 -24 71 -51 68 -24 -3 -26 -8 -29 -56 -2 -35 2 -59 12 -74 9 -12 16 -30 16 -39 0 -10 5 -19 11 -21 7 -2 13 -17 14 -33 2 -17 1 -24 -2 -17 -6 16 -30 15 -40 -2 -4 -8 -15 -14 -23 -14 -52 3 -62 -14 -38 -67 8 -18 18 -25 30 -22 11 3 18 0 18 -9 0 -8 10 -14 21 -14 17 0 19 -3 10 -14 -6 -7 -24 -12 -41 -10 -24 3 -33 -1 -42 -21 -20 -44 18 -84 50 -52 14 15 14 17 -6 24 -14 6 -19 12 -13 21 11 19 54 -42 47 -65 -3 -10 -1 -25 4 -33 7 -12 13 -13 28 -4 15 10 21 8 33 -10 8 -11 16 -37 19 -56 3 -22 13 -38 26 -45 43 -21 54 -37 54 -75 0 -21 -6 -41 -12 -43 -10 -4 -10 -6 -1 -6 7 -1 10 -8 6 -18 -3 -10 -3 -15 2 -11 4 4 13 0 20 -9 18 -25 45 -9 45 26 0 25 -3 29 -17 24 -10 -4 -21 -11 -25 -17 -5 -7 -8 -5 -8 4 0 8 15 22 33 29 17 8 37 22 44 30 11 14 12 12 13 -10 0 -28 26 -47 42 -31 16 16 21 81 8 97 -20 23 -31 18 -20 -11 13 -32 13 -44 0 -44 -5 0 -10 9 -10 20 0 25 -14 25 -48 2 -52 -36 -56 -37 -49 -12 5 19 -2 31 -34 61 -22 20 -41 46 -44 57 -5 29 -48 92 -62 92 -7 0 -13 7 -13 15 0 8 5 15 10 15 13 0 13 47 0 55 -5 3 -10 13 -10 21 0 18 -34 50 -67 64 -13 5 -23 14 -23 20 0 13 37 13 45 0 3 -5 13 -10 21 -10 9 0 12 5 8 12 -4 6 -3 8 4 5 5 -4 8 -16 5 -27 -4 -14 0 -20 11 -20 15 0 21 13 16 35 -1 6 -2 16 -2 23 5 60 2 86 -12 101 -9 10 -16 25 -16 33 0 9 -7 21 -15 28 -8 7 -15 25 -15 41 0 19 5 29 15 29 10 0 15 -10 15 -28 0 -33 23 -57 62 -64 l27 -5 -2 58 c-2 49 0 60 15 65 10 3 22 2 28 -1 13 -8 13 -45 -1 -45 -6 0 -9 -12 -7 -27 2 -23 7 -27 26 -25 12 2 22 -2 22 -9 0 -9 4 -8 15 1 19 16 10 30 -21 30 -35 0 -32 30 4 31 15 1 35 1 44 0 11 -1 23 9 30 23 14 33 1 47 -19 21 -13 -16 -15 -17 -10 -2 8 23 -7 60 -34 86 -30 28 -59 27 -60 -1z m56 -28 c10 -11 15 -23 12 -27 -8 -7 -47 25 -47 39 0 14 16 9 35 -12z m-29 -38 c-4 -3 -11 0 -16 8 -15 24 -11 33 6 15 9 -9 13 -19 10 -23z"/>
 <path d="M950 1431 c-26 -5 -37 -13 -44 -34 -8 -23 -7 -30 12 -43 12 -8 22 -26 22 -40 0 -26 -9 -31 -27 -13 -8 8 -13 8 -17 0 -12 -20 -24 -12 -31 20 -5 21 -3 34 5 39 21 13 3 60 -23 60 -20 0 -22 -5 -22 -40 0 -22 3 -40 7 -40 5 0 8 -6 8 -13 0 -21 24 -67 35 -67 6 0 25 4 44 10 31 9 33 8 27 -13 -5 -20 17 -57 35 -57 5 0 17 9 27 20 12 13 25 18 35 14 21 -8 22 -33 2 -40 -8 -4 -15 -15 -15 -25 0 -12 -5 -16 -15 -13 -10 4 -15 0 -15 -12 0 -28 26 -95 39 -103 8 -5 10 -21 6 -47 -5 -31 -2 -44 14 -62 16 -20 18 -27 8 -43 -11 -18 -18 -20 -58 -23 -27 -2 -47 -26 -54 -66 -4 -26 -13 -40 -26 -43 -13 -3 -17 -11 -13 -21 8 -21 31 -20 37 2 4 16 5 15 6 -1 2 -27 35 -17 39 13 3 14 -3 29 -14 37 -24 18 -1 43 40 43 24 0 37 9 56 35 19 25 34 35 60 37 28 2 36 8 38 26 3 21 1 22 -18 12 -27 -14 -72 -9 -78 9 -4 11 3 12 33 7 32 -6 36 -5 33 11 -3 19 -58 32 -58 14 0 -6 -7 -11 -16 -11 -11 0 -14 5 -9 18 17 41 16 51 -12 76 -27 25 -27 26 -5 26 25 0 31 31 9 52 -19 17 19 77 49 78 24 0 34 18 34 57 0 15 -5 23 -12 20 -7 -2 -13 -11 -13 -20 0 -25 -13 -30 -20 -8 -7 23 -20 27 -30 11 -11 -18 -21 -11 -30 22 -7 22 -18 35 -35 39 -14 4 -19 7 -12 8 13 1 18 77 5 83 -5 2 -24 2 -43 -1z m23 -57 c-6 -16 -6 -16 -27 -8 -19 7 -21 30 -3 37 17 6 37 -12 30 -29z m21 -67 c30 -16 26 -26 -9 -19 -14 2 -25 11 -25 18 0 17 1 17 34 1z"/>
 <path d="M395 1319 c-13 -5 -15 -8 -5 -8 12 -1 13 -3 1 -10 -8 -5 -11 -16 -6 -30 5 -18 14 -21 56 -21 51 0 54 4 43 47 -9 31 -33 37 -44 10 -6 -16 -9 -17 -9 -5 -1 22 -12 27 -36 17z"/>
 <path d="M1320 1306 c0 -8 9 -20 21 -26 18 -10 20 -9 17 12 -3 26 -38 39 -38 14z"/>
 <path d="M1162 1298 c-21 -21 -14 -55 12 -60 20 -4 25 0 30 25 3 16 6 33 6 38 0 13 -34 11 -48 -3z"/>
 <path d="M50 1280 c0 -13 7 -20 20 -20 13 0 20 7 20 20 0 13 -7 20 -20 20 -13 0 -20 -7 -20 -20z"/>
 <path d="M1280 1260 c0 -13 7 -20 20 -20 24 0 27 25 4 34 -23 9 -24 8 -24 -14z"/>
 <path d="M450 1199 c0 -36 2 -40 23 -37 29 4 36 44 10 63 -28 22 -33 18 -33 -26z"/>
 <path d="M347 1212 c-3 -4 -3 -20 0 -36 l6 -29 14 24 14 24 -6 -27 c-4 -21 -2 -28 10 -28 24 0 29 27 11 55 -16 24 -40 33 -49 17z"/>
 <path d="M270 1194 c0 -29 21 -54 45 -54 19 0 25 5 25 23 0 16 -3 18 -9 8 -7 -11 -11 -10 -20 6 -14 27 -41 38 -41 17z"/>
 <path d="M182 1149 c3 -23 33 -48 43 -37 3 3 0 17 -6 32 -15 32 -42 35 -37 5z"/>
 <path d="M27 1053 c-13 -12 -7 -33 8 -33 8 0 15 9 15 20 0 20 -11 26 -23 13z"/>
 <path d="M73 1045 c-7 -20 2 -29 21 -22 9 4 13 13 10 22 -8 19 -23 19 -31 0z"/>
 <path d="M343 1034 c-9 -25 17 -64 44 -64 31 0 40 27 17 49 -29 27 -54 33 -61 15z"/>
 <path d="M1270 926 c0 -8 8 -17 18 -19 10 -3 6 -5 -10 -6 -30 -1 -36 -18 -18 -52 13 -24 49 -25 56 -1 3 9 10 25 15 34 13 26 11 38 -6 32 -9 -4 -15 0 -15 10 0 9 -8 16 -20 16 -11 0 -20 -6 -20 -14z"/>
 <path d="M347 843 c-4 -3 -7 -15 -7 -26 0 -13 5 -17 16 -13 9 3 18 6 20 6 2 0 4 9 4 20 0 19 -20 27 -33 13z"/>
 <path d="M471 785 c-28 -33 -45 -95 -21 -80 6 3 10 12 10 18 0 7 11 26 25 42 22 28 24 28 25 9 0 -12 -7 -24 -15 -28 -8 -3 -15 -12 -15 -21 0 -18 2 -18 35 -3 21 9 25 18 25 55 0 36 -3 43 -19 43 -10 0 -33 -16 -50 -35z"/>
 <path d="M1000 806 c0 -14 29 -31 38 -22 2 3 2 12 -1 21 -8 19 -37 20 -37 1z"/>
 <path d="M1402 789 c2 -14 11 -25 22 -27 11 -3 26 -11 34 -19 17 -16 36 -13 40 8 1 8 -15 22 -40 33 -24 11 -47 22 -51 24 -5 2 -7 -6 -5 -19z"/>
 <path d="M2 773 c4 -39 28 -42 28 -4 0 21 -5 31 -16 31 -11 0 -14 -8 -12 -27z"/>
 <path d="M377 766 c-6 -16 16 -40 26 -29 4 3 7 15 7 25 0 21 -25 24 -33 4z"/>
 <path d="M1005 731 c-11 -19 5 -51 26 -51 10 0 22 0 26 -1 4 0 9 4 11 10 2 6 -3 8 -11 5 -8 -3 -18 -1 -22 5 -3 6 1 11 9 11 9 0 16 5 16 10 0 6 -4 10 -9 10 -5 0 -16 3 -24 6 -8 3 -18 1 -22 -5z"/>
 <path d="M870 716 c0 -8 5 -18 10 -21 8 -5 7 -11 0 -20 -6 -8 -10 -24 -8 -37 4 -29 44 -38 51 -11 8 35 2 84 -13 93 -22 14 -40 12 -40 -4z"/>
 <path d="M1217 703 c-4 -3 -7 -21 -7 -39 0 -23 5 -33 19 -37 28 -7 33 3 16 29 -8 13 -12 30 -9 38 6 16 -7 22 -19 9z"/>
 <path d="M644 645 c-11 -27 1 -39 19 -21 17 17 15 36 -4 36 -5 0 -12 -7 -15 -15z"/>
 <path d="M467 643 c-11 -10 -8 -51 4 -58 13 -9 15 -6 24 33 5 24 3 32 -8 32 -7 0 -17 -3 -20 -7z"/>
 <path d="M510 613 c1 -36 1 -37 16 -18 17 22 15 46 -3 53 -9 2 -13 -8 -13 -35z"/>
 <path d="M1055 630 c-3 -5 2 -22 12 -36 l17 -27 6 24 c4 16 8 20 14 11 4 -6 4 -16 1 -22 -3 -5 1 -10 9 -10 19 0 20 29 2 53 -14 18 -51 23 -61 7z"/>
 <path d="M524 556 c-8 -20 -7 -21 29 -30 23 -5 27 -3 27 14 0 11 -4 20 -9 20 -5 0 -16 3 -25 6 -10 4 -18 0 -22 -10z"/>
 <path d="M616 544 c-14 -37 -7 -54 24 -54 32 0 40 14 15 24 -8 3 -15 10 -15 16 0 5 7 10 15 10 8 0 15 5 15 10 0 16 -47 11 -54 -6z"/>
 <path d="M393 488 c-28 -13 -30 -38 -5 -38 21 0 56 33 45 43 -8 9 -13 8 -40 -5z"/>
 <path d="M524 465 c-8 -19 10 -41 36 -48 24 -6 26 10 4 41 -18 26 -32 28 -40 7z"/>
 <path d="M1192 454 c9 -9 21 -13 27 -9 16 10 3 25 -22 25 -20 0 -20 -1 -5 -16z"/>
 <path d="M1170 431 c0 -21 13 -41 26 -41 17 0 17 10 0 33 -14 19 -26 22 -26 8z"/>
 <path d="M371 414 c-12 -14 -11 -16 4 -12 10 1 20 9 23 16 5 17 -10 15 -27 -4z"/>
 <path d="M1070 406 c0 -14 10 -30 25 -40 31 -20 55 -21 55 -1 0 8 -9 15 -20 15 -13 0 -20 7 -20 19 0 10 -7 22 -16 25 -23 9 -24 8 -24 -18z"/>
 <path d="M481 401 c-10 -17 -9 -21 3 -21 20 0 27 13 16 29 -6 11 -10 9 -19 -8z"/>
 <path d="M695 369 c-4 -5 -4 -21 -1 -34 4 -17 11 -22 25 -18 18 5 34 46 23 58 -9 9 -41 5 -47 -6z"/>
 <path d="M1152 148 c7 -20 58 -23 58 -4 0 11 -10 16 -31 16 -20 0 -29 -4 -27 -12z"/>
 <path d="M636 73 c-3 -4 -6 -21 -6 -40 0 -28 3 -33 24 -33 27 0 43 28 21 36 -7 3 -12 11 -9 19 5 13 -20 28 -30 18z"/>
 </g>

</svg>