<!DOCTYPE svg PUBLIC "-//W3C//DTD SVG 20010904//EN" "http://www.w3.org/TR/2001/REC-SVG-20010904/DTD/svg10.dtd">
<svg version="1.0" xmlns="http://www.w3.org/2000/svg" width="1350px" height="616px" viewBox="0 0 13500 6160" preserveAspectRatio="xMidYMid meet">
<g id="layer101" fill="#c61821" stroke="none">
 <path d="M0 3080 l0 -3080 6750 0 6750 0 0 3080 0 3080 -6750 0 -6750 0 0 -3080z"/>
 </g>
<g id="layer102" fill="#fe0413" stroke="none">
 <path d="M0 3080 l0 -3080 6750 0 6750 0 0 3080 0 3080 -6750 0 -6750 0 0 -3080z m6701 1531 c19 -12 25 -21 18 -28 -7 -7 -5 -14 5 -22 11 -9 22 -9 49 3 40 16 77 11 77 -10 0 -8 11 -19 25 -24 25 -9 30 -25 19 -54 -7 -19 -69 -32 -87 -18 -7 5 -21 6 -32 1 -30 -12 -32 -11 -38 12 -4 16 -11 20 -27 16 -17 -4 -20 -2 -16 10 6 13 0 14 -36 8 -84 -16 -101 -10 -112 37 -5 22 0 33 31 63 40 39 67 40 124 6z"/>
 </g>
<g id="layer103" fill="#ec1c24" stroke="none">
 <path d="M0 3080 l0 -3080 6750 0 6750 0 0 3080 0 3080 -6750 0 -6750 0 0 -3080z m6701 1531 c19 -12 25 -21 18 -28 -7 -7 -5 -14 5 -22 11 -9 22 -9 49 3 40 16 77 11 77 -10 0 -8 11 -19 25 -24 25 -9 30 -25 19 -54 -7 -19 -69 -32 -87 -18 -7 5 -21 6 -32 1 -30 -12 -32 -11 -38 12 -4 16 -11 20 -27 16 -17 -4 -20 -2 -16 10 6 13 0 14 -36 8 -84 -16 -101 -10 -112 37 -5 22 0 33 31 63 40 39 67 40 124 6z m148 -205 c10 -11 8 -16 -9 -21 -11 -4 -32 -17 -47 -31 -30 -28 -51 -30 -79 -9 -27 20 -28 20 -59 -25 -18 -26 -35 -40 -49 -39 -11 0 -15 3 -8 6 8 3 -4 14 -30 28 -72 39 -59 52 46 45 43 -2 86 16 86 37 0 15 26 18 35 3 4 -7 14 -5 28 5 27 19 71 19 86 1z m436 -66 c8 -13 -61 -60 -87 -60 -51 0 -65 47 -18 57 17 3 32 9 35 13 5 8 64 0 70 -10z"/>
 </g>
<g id="layer104" fill="#ff232d" stroke="none">
 <path d="M0 3080 l0 -3080 6750 0 6750 0 0 3080 0 3080 -6750 0 -6750 0 0 -3080z m6701 1531 c19 -12 25 -21 18 -28 -7 -7 -5 -14 5 -22 11 -9 22 -9 49 3 40 16 77 11 77 -10 0 -8 11 -19 25 -24 25 -9 30 -25 19 -54 -7 -19 -69 -32 -87 -18 -7 5 -21 6 -32 1 -30 -12 -32 -11 -38 12 -4 16 -11 20 -27 16 -17 -4 -20 -2 -16 10 6 13 0 14 -36 8 -84 -16 -101 -10 -112 37 -5 22 0 33 31 63 40 39 67 40 124 6z m148 -205 c10 -11 8 -16 -9 -21 -11 -4 -32 -17 -47 -31 -30 -28 -51 -30 -79 -9 -27 20 -28 20 -59 -25 -16 -23 -36 -40 -47 -40 -11 0 -17 4 -14 8 3 5 -13 19 -34 31 -64 36 -49 48 54 41 43 -2 86 16 86 37 0 15 26 18 35 3 4 -7 14 -5 28 5 27 19 71 19 86 1z m424 -61 l29 -6 -41 -29 c-43 -32 -79 -38 -99 -18 -21 21 -13 38 18 45 17 3 33 9 36 14 2 4 10 6 17 4 7 -2 25 -6 40 -10z m-255 -1370 c2 -108 7 -170 17 -190 7 -16 16 -57 20 -90 9 -71 18 -85 55 -85 31 0 55 -23 47 -44 -3 -8 -21 -22 -39 -32 -55 -27 -78 -54 -78 -91 0 -18 -5 -64 -12 -102 -9 -55 -9 -75 0 -93 13 -24 16 -47 9 -83 -18 -96 -20 -101 -47 -117 -27 -15 -29 -15 -49 6 -25 27 -27 53 -5 77 15 17 14 21 -15 56 -34 41 -39 77 -16 110 10 14 12 24 5 28 -20 12 -10 35 14 35 35 0 41 16 17 46 -27 34 -27 64 -1 64 30 0 60 36 60 72 0 24 -10 40 -40 68 -47 43 -49 62 -21 177 30 122 37 182 29 258 -9 83 -5 97 24 93 22 -3 23 -6 26 -163z"/>
 </g>
<g id="layer105" fill="#ffffff" stroke="none">
 <path d="M0 3080 l0 -3080 6750 0 6750 0 0 3080 0 3080 -6750 0 -6750 0 0 -3080z m6701 1531 c19 -12 25 -21 18 -28 -7 -7 -5 -14 5 -22 11 -9 22 -9 49 3 40 16 77 11 77 -10 0 -21 36 -30 100 -27 30 2 65 3 78 3 13 0 20 5 17 10 -3 6 -15 10 -25 10 -24 0 -38 44 -20 65 15 18 61 20 93 3 12 -6 29 -14 37 -18 25 -12 24 -55 -2 -68 -21 -10 -22 -11 -3 -13 11 -1 49 -2 85 -3 61 -1 65 -3 68 -25 4 -29 -20 -51 -55 -51 -13 0 -33 -9 -45 -20 -13 -12 -36 -20 -56 -20 -29 0 -32 -3 -27 -20 4 -12 2 -20 -5 -20 -6 0 -15 -12 -20 -26 -13 -34 -57 -31 -52 4 2 12 -2 22 -7 22 -6 0 -11 -9 -11 -20 0 -21 -32 -34 -71 -28 -26 3 -38 40 -21 61 5 7 12 24 16 40 5 20 12 27 31 27 51 0 34 43 -24 60 -26 7 -30 5 -35 -16 -5 -17 -16 -25 -41 -30 -19 -3 -41 -2 -48 4 -7 5 -21 6 -32 1 -30 -12 -32 -11 -38 12 -4 16 -11 20 -27 16 -17 -4 -20 -2 -16 10 6 13 0 14 -36 8 -84 -16 -101 -10 -112 37 -5 22 0 33 31 63 40 39 67 40 124 6z m147 -203 c13 -13 -2 -38 -23 -38 -7 0 -15 -6 -18 -14 -8 -19 -58 -29 -88 -17 -28 10 -59 -2 -59 -23 0 -13 -28 -30 -67 -41 -22 -6 -86 15 -97 33 -3 5 2 20 12 32 16 20 27 23 86 22 40 -1 64 3 61 8 -3 6 0 10 8 10 8 0 20 7 28 16 8 10 22 14 39 11 14 -3 32 -2 40 4 21 12 64 11 78 -3z m442 -52 c0 -2 3 -11 6 -20 4 -10 -7 -21 -35 -35 -45 -24 -81 -27 -99 -9 -20 20 -14 33 21 50 29 14 107 24 107 14z m-272 -1381 c2 -108 7 -170 17 -190 7 -16 16 -57 20 -90 9 -71 18 -85 55 -85 31 0 55 -23 47 -44 -3 -8 -21 -22 -39 -32 -55 -27 -78 -54 -78 -91 0 -18 -5 -64 -12 -102 -9 -55 -9 -75 0 -93 13 -24 16 -47 9 -83 -18 -96 -20 -101 -47 -117 -27 -15 -29 -15 -49 6 -25 27 -27 53 -5 77 15 17 14 21 -15 56 -34 41 -39 77 -16 110 10 14 12 24 5 28 -20 12 -10 35 14 35 35 0 41 16 17 46 -27 34 -27 64 -1 64 30 0 60 36 60 72 0 24 -10 40 -40 68 -47 43 -49 62 -21 177 30 122 37 182 29 258 -9 83 -5 97 24 93 22 -3 23 -6 26 -163z"/>
 </g>

</svg>