<!DOCTYPE svg PUBLIC "-//W3C//DTD SVG 20010904//EN" "http://www.w3.org/TR/2001/REC-SVG-20010904/DTD/svg10.dtd">
<svg version="1.0" xmlns="http://www.w3.org/2000/svg" width="1350px" height="616px" viewBox="0 0 13500 6160" preserveAspectRatio="xMidYMid meet">
<g id="layer101" fill="#7f0504" stroke="none">
 <path d="M0 3080 l0 -3080 6750 0 6750 0 0 3080 0 3080 -6750 0 -6750 0 0 -3080z"/>
 </g>
<g id="layer102" fill="#900101" stroke="none">
 <path d="M0 3080 l0 -3080 6750 0 6750 0 0 3080 0 3080 -6750 0 -6750 0 0 -3080z"/>
 </g>
<g id="layer103" fill="#a90707" stroke="none">
 <path d="M0 3080 l0 -3080 6750 0 6750 0 0 3080 0 3080 -6750 0 -6750 0 0 -3080z m6155 460 c4 -6 -11 -31 -32 -56 -21 -25 -43 -54 -49 -65 -6 -10 -19 -28 -29 -39 -18 -19 -17 -20 3 -20 11 0 24 5 27 10 3 6 13 10 21 10 12 0 11 -6 -6 -31 -24 -32 -21 -50 5 -29 8 7 22 10 31 6 10 -4 33 11 67 42 90 83 178 155 183 150 9 -10 -7 -33 -40 -58 -19 -14 -60 -47 -93 -75 -32 -27 -70 -58 -83 -67 -21 -15 -23 -19 -10 -27 21 -15 83 -14 98 1 8 8 15 9 23 1 7 -7 2 -15 -15 -27 -16 -10 -26 -26 -26 -41 0 -13 -4 -27 -10 -30 -15 -9 -12 -25 5 -25 9 0 15 9 15 25 0 14 5 25 10 25 6 0 10 -9 10 -20 0 -11 5 -20 10 -20 6 0 10 4 10 9 0 4 11 6 25 3 20 -3 23 -7 14 -18 -6 -8 -21 -12 -33 -9 -28 7 -43 -4 -51 -38 -6 -23 -4 -27 14 -27 12 0 21 -4 21 -10 0 -5 -9 -10 -21 -10 -11 0 -17 -4 -14 -10 5 -9 84 -6 158 5 21 4 27 1 27 -14 0 -15 -11 -20 -57 -25 -65 -8 -83 -19 -83 -51 0 -17 -7 -24 -30 -28 -18 -4 -30 -13 -30 -22 0 -10 -10 -15 -31 -15 l-31 0 7 -56 c4 -31 16 -77 28 -103 36 -78 37 -81 28 -81 -4 0 -18 20 -31 45 -13 25 -29 50 -36 56 -9 7 -10 18 -4 35 6 15 6 24 0 24 -6 0 -10 5 -10 11 0 17 -42 48 -75 54 -18 4 -44 0 -65 -9 -19 -8 -31 -15 -27 -16 4 0 2 -10 -5 -22 -18 -34 -17 -59 4 -80 11 -11 13 -18 6 -18 -7 0 -2 -6 12 -14 34 -18 95 -11 131 14 16 12 30 18 30 13 1 -4 3 -20 4 -35 2 -14 11 -41 20 -58 9 -17 14 -37 12 -43 -3 -7 -8 -4 -13 8 -16 41 -36 64 -50 58 -11 -4 -12 -9 -4 -18 7 -9 7 -20 -1 -38 -9 -19 -21 -26 -58 -31 -32 -4 -49 -2 -56 6 -10 14 -45 20 -45 9 0 -7 44 -27 83 -35 34 -8 35 -33 1 -46 -33 -13 -32 -13 -36 13 -2 12 -10 22 -18 22 -11 0 -14 -10 -12 -42 2 -24 -1 -43 -6 -43 -6 0 -13 19 -17 43 -10 59 -38 91 -80 92 -18 0 -31 -3 -28 -7 2 -5 15 -8 27 -8 13 0 30 -8 37 -17 8 -10 9 -14 2 -10 -6 4 -14 3 -18 -2 -5 -9 -62 -41 -73 -41 -2 0 2 7 9 16 11 14 10 18 -6 30 -28 20 -33 18 -40 -20 -7 -33 -38 -55 -51 -35 -3 5 2 9 11 9 12 0 15 9 14 38 -2 21 1 44 6 51 5 9 3 12 -6 9 -7 -2 -16 -15 -19 -28 -4 -16 -14 -25 -34 -27 -17 -3 -25 0 -21 7 3 5 1 10 -6 10 -7 0 -2 11 11 25 19 21 21 25 7 25 -9 0 -17 4 -17 8 0 5 -16 9 -37 10 -33 1 -35 0 -17 -12 10 -8 15 -18 11 -22 -4 -5 -11 -4 -15 2 -15 24 -37 20 -49 -8 -14 -34 -37 -38 -28 -5 6 21 6 21 -14 -3 -11 -14 -21 -21 -21 -16 0 5 -9 1 -20 -9 -11 -10 -20 -15 -20 -12 0 12 24 62 37 78 11 13 9 17 -13 27 -23 11 -25 11 -19 -8 5 -15 2 -20 -10 -20 -11 0 -15 5 -11 15 4 12 -3 15 -37 15 -27 0 -37 3 -29 9 8 4 15 21 16 37 2 16 7 37 11 47 5 12 3 17 -10 17 -9 0 -13 5 -10 10 3 6 -3 10 -14 10 -12 0 -21 -5 -21 -12 0 -6 -7 -19 -16 -29 -15 -17 -18 -17 -40 -2 -32 20 -30 41 4 55 85 34 86 35 63 43 -20 6 -60 3 -133 -11 -17 -4 -28 -1 -28 6 0 14 42 30 53 20 5 -4 23 -3 40 3 18 5 39 12 47 14 13 4 13 5 0 13 -13 8 -13 10 2 10 11 0 15 7 13 25 -1 17 4 29 17 36 11 6 17 13 14 16 -3 4 -1 12 5 19 16 19 2 34 -31 34 -34 0 -48 16 -20 23 27 7 25 31 -3 54 -13 10 -22 23 -20 29 2 6 -3 17 -12 24 -13 10 -15 9 -15 -9 0 -13 -6 -21 -17 -21 -14 0 -15 2 -4 9 19 12 7 42 -40 101 -36 46 -48 70 -33 70 3 0 38 -34 78 -75 40 -41 80 -75 89 -75 17 0 23 -15 10 -23 -5 -2 -2 -2 5 0 8 1 22 3 33 3 16 0 18 3 9 19 -5 11 -7 26 -4 35 3 8 -4 27 -15 42 -25 32 -27 44 -6 44 9 0 20 -11 25 -25 11 -29 16 -30 36 -11 12 13 8 19 -28 50 -53 46 -43 59 14 17 34 -25 44 -28 50 -17 6 11 14 12 38 3 43 -16 48 -1 11 37 -23 24 -29 35 -19 39 9 4 5 8 -9 12 -13 4 -23 12 -23 17 0 5 9 7 19 3 16 -5 18 -2 14 15 -8 32 5 24 59 -35 27 -30 56 -55 63 -55 7 0 16 13 20 29 3 17 14 31 26 34 12 3 17 11 13 21 -3 9 -2 16 4 16 5 0 13 -11 16 -25 10 -38 37 -33 30 5 -7 32 6 40 26 15 17 -20 33 -9 20 15 -14 27 -13 28 18 27 31 -2 44 -15 36 -39 -2 -9 0 -19 6 -23 5 -3 10 -13 10 -22 0 -20 29 -42 56 -43 17 0 24 10 34 45 7 25 17 48 21 51 8 4 4 -40 -7 -73 -13 -43 46 27 61 72 6 18 17 30 27 30 10 0 25 10 33 23 17 23 40 29 50 12z m-735 -870 c0 -9 -32 -30 -46 -30 -4 0 1 9 11 20 19 21 35 26 35 10z"/>
 <path d="M5841 3484 c0 -11 3 -14 6 -6 3 7 2 16 -1 19 -3 4 -6 -2 -5 -13z"/>
 <path d="M5570 3376 c0 -2 7 -7 16 -10 8 -3 12 -2 9 4 -6 10 -25 14 -25 6z"/>
 <path d="M5530 3305 c14 -8 32 -14 40 -14 9 0 4 6 -10 14 -14 8 -32 14 -40 14 -9 0 -4 -6 10 -14z"/>
 <path d="M5407 3119 c7 -7 15 -10 18 -7 3 3 -2 9 -12 12 -14 6 -15 5 -6 -5z"/>
 <path d="M5421 2734 c0 -11 3 -14 6 -6 3 7 2 16 -1 19 -3 4 -6 -2 -5 -13z"/>
 <path d="M6040 2640 c20 -13 33 -13 25 0 -3 6 -14 10 -23 10 -15 0 -15 -2 -2 -10z"/>
 </g>
<g id="layer104" fill="#9d2126" stroke="none">
 <path d="M0 3080 l0 -3080 6750 0 6750 0 0 3080 0 3080 -6750 0 -6750 0 0 -3080z m6155 460 c4 -6 -11 -31 -32 -56 -21 -25 -43 -54 -49 -65 -6 -10 -19 -28 -29 -39 -18 -19 -17 -20 3 -20 11 0 24 5 27 10 3 6 13 10 21 10 12 0 11 -6 -6 -31 -24 -32 -21 -50 5 -29 8 7 22 10 31 6 10 -4 33 11 67 42 94 87 178 155 183 149 9 -9 -10 -36 -43 -60 -17 -12 -57 -44 -90 -72 -32 -27 -70 -58 -83 -67 -21 -15 -23 -19 -10 -27 21 -14 76 -14 100 1 31 20 38 -2 7 -24 -16 -12 -27 -29 -27 -43 0 -13 -4 -27 -10 -30 -15 -9 -12 -25 5 -25 9 0 15 9 15 25 0 14 5 25 10 25 6 0 10 -9 10 -20 0 -11 5 -20 10 -20 6 0 10 4 10 9 0 4 11 6 25 3 20 -3 23 -7 14 -18 -6 -8 -21 -12 -33 -9 -28 7 -43 -4 -51 -38 -6 -23 -4 -27 14 -27 12 0 21 -4 21 -10 0 -5 -9 -10 -21 -10 -11 0 -17 -4 -14 -10 5 -9 84 -6 158 5 21 4 27 1 27 -14 0 -15 -11 -20 -57 -26 -66 -8 -83 -18 -83 -50 0 -17 -7 -24 -30 -28 -18 -4 -30 -13 -30 -22 0 -10 -10 -15 -31 -15 l-31 0 7 -57 c4 -32 20 -86 36 -120 16 -34 29 -66 29 -70 -1 -11 -39 40 -40 52 0 6 -9 21 -18 33 l-19 24 3 -36 c2 -19 10 -49 19 -66 9 -17 14 -37 12 -43 -3 -7 -8 -4 -13 8 -16 41 -36 64 -50 58 -11 -4 -12 -9 -4 -18 7 -9 7 -20 -1 -38 -9 -19 -21 -26 -58 -31 -32 -4 -49 -2 -56 6 -10 14 -45 20 -45 9 0 -7 44 -27 83 -35 34 -8 35 -33 1 -46 -33 -13 -32 -13 -36 13 -2 12 -10 22 -18 22 -11 0 -14 -10 -12 -42 4 -55 -14 -56 -23 -1 -10 60 -40 97 -74 92 -35 -7 -40 -14 -9 -14 14 0 32 -8 39 -17 8 -10 9 -14 2 -10 -6 4 -14 3 -18 -2 -5 -9 -62 -41 -72 -41 -2 0 1 9 7 20 8 15 6 21 -9 30 -28 14 -29 14 -36 -24 -7 -33 -38 -55 -51 -35 -3 5 2 9 11 9 12 0 15 9 14 38 -2 21 1 44 6 51 5 9 3 12 -6 9 -7 -2 -16 -15 -19 -28 -4 -16 -14 -25 -34 -27 -17 -3 -25 0 -21 7 3 5 1 10 -6 10 -7 0 -2 11 11 25 19 21 21 25 7 25 -9 0 -17 4 -17 8 0 5 -16 9 -37 10 -33 1 -35 0 -17 -12 10 -8 15 -18 11 -22 -4 -5 -11 -4 -15 2 -4 6 -15 13 -25 17 -15 5 -16 2 -11 -20 5 -17 3 -24 -4 -19 -6 3 -13 2 -17 -4 -12 -19 -26 -10 -20 13 6 21 6 21 -14 -3 -11 -14 -21 -21 -21 -16 0 5 -9 1 -20 -9 -11 -10 -20 -15 -20 -12 0 12 24 62 37 78 11 13 9 17 -13 27 -23 11 -25 11 -19 -8 5 -15 2 -20 -10 -20 -11 0 -15 5 -11 15 4 12 -3 15 -37 15 -27 0 -37 3 -29 9 8 4 15 21 16 37 2 16 7 37 11 47 5 12 3 17 -10 17 -9 0 -13 5 -10 10 3 6 -3 10 -14 10 -12 0 -21 -5 -21 -12 0 -6 -7 -19 -16 -29 -15 -17 -18 -17 -40 -2 -32 20 -30 41 4 55 85 34 86 35 63 43 -20 6 -60 3 -133 -11 -17 -4 -28 -1 -28 6 0 14 42 30 53 20 5 -4 23 -3 40 3 18 5 39 12 47 14 13 4 13 5 0 13 -13 8 -13 10 2 10 11 0 15 7 13 25 -1 17 4 29 17 36 11 6 17 13 14 16 -3 4 -1 12 5 19 16 19 2 34 -31 34 -34 0 -48 16 -20 23 27 7 25 31 -3 54 -13 10 -22 23 -20 29 2 6 -3 17 -12 24 -13 10 -15 9 -15 -9 0 -13 -6 -21 -17 -21 -14 0 -15 2 -4 9 19 12 7 42 -40 101 -36 46 -48 70 -33 70 3 0 39 -34 80 -75 41 -41 81 -75 89 -75 16 0 21 -15 8 -23 -5 -2 -2 -2 5 0 8 1 22 3 33 3 16 0 18 3 9 19 -5 11 -7 26 -4 35 3 8 -4 27 -15 42 -25 32 -27 44 -6 44 9 0 20 -11 25 -25 11 -29 16 -30 36 -11 12 13 8 19 -28 50 -53 46 -43 59 14 17 34 -25 44 -28 50 -17 6 11 14 12 38 3 43 -16 48 -1 11 37 -23 24 -29 35 -19 39 9 4 5 8 -9 12 -13 4 -23 12 -23 17 0 5 9 7 19 3 16 -5 18 -2 14 15 -8 31 2 25 60 -35 29 -30 58 -55 64 -55 6 0 14 13 18 29 3 17 14 31 26 34 12 3 17 11 13 21 -3 9 -1 16 5 16 6 0 13 -11 17 -25 9 -37 35 -33 28 5 -7 32 6 40 26 15 17 -20 33 -9 20 15 -14 27 -13 28 18 27 31 -2 44 -15 36 -39 -2 -9 0 -19 6 -23 5 -3 10 -13 10 -22 0 -9 8 -22 18 -29 23 -18 62 -18 62 0 0 22 33 92 37 79 2 -6 0 -28 -6 -47 -5 -20 -7 -36 -4 -36 10 0 48 55 58 85 6 18 17 30 27 30 10 0 25 10 33 23 17 23 40 29 50 12z m-735 -870 c0 -9 -32 -30 -46 -30 -4 0 1 9 11 20 19 21 35 26 35 10z"/>
 <path d="M5841 3484 c0 -11 3 -14 6 -6 3 7 2 16 -1 19 -3 4 -6 -2 -5 -13z"/>
 <path d="M5570 3376 c0 -2 7 -7 16 -10 8 -3 12 -2 9 4 -6 10 -25 14 -25 6z"/>
 <path d="M5530 3305 c14 -8 32 -14 40 -14 9 0 4 6 -10 14 -14 8 -32 14 -40 14 -9 0 -4 -6 10 -14z"/>
 <path d="M5407 3119 c7 -7 15 -10 18 -7 3 3 -2 9 -12 12 -14 6 -15 5 -6 -5z"/>
 <path d="M6062 2784 c4 -21 22 -23 26 -1 2 10 -3 17 -13 17 -10 0 -15 -6 -13 -16z"/>
 <path d="M5421 2734 c0 -11 3 -14 6 -6 3 7 2 16 -1 19 -3 4 -6 -2 -5 -13z"/>
 <path d="M6040 2640 c20 -13 33 -13 25 0 -3 6 -14 10 -23 10 -15 0 -15 -2 -2 -10z"/>
 </g>
<g id="layer105" fill="#a63f41" stroke="none">
 <path d="M0 3080 l0 -3080 6750 0 6750 0 0 3080 0 3080 -6750 0 -6750 0 0 -3080z m6155 459 c4 -6 -11 -32 -34 -59 -23 -27 -41 -52 -41 -56 0 -4 -12 -21 -27 -36 -23 -24 -24 -28 -8 -28 10 0 27 7 37 17 28 25 31 10 7 -31 -23 -39 -17 -47 13 -19 14 12 21 14 26 6 5 -8 47 22 122 87 114 99 130 110 130 89 0 -13 -33 -44 -144 -134 -47 -38 -86 -73 -86 -76 0 -7 36 -19 58 -19 7 0 11 4 7 9 -3 5 -1 12 5 16 5 3 10 2 10 -3 0 -5 11 -7 25 -4 14 2 25 0 25 -6 0 -5 -11 -17 -25 -26 -15 -10 -25 -26 -25 -41 0 -13 -5 -27 -10 -30 -12 -7 -4 -25 11 -25 5 0 9 11 9 25 0 15 6 25 14 25 9 0 12 -7 9 -20 -3 -11 0 -20 6 -20 6 0 11 4 11 9 0 4 11 6 25 3 20 -3 23 -7 14 -18 -7 -8 -21 -11 -34 -8 -19 5 -27 0 -39 -25 -20 -38 -20 -41 4 -41 11 0 20 -4 20 -10 0 -5 -7 -10 -15 -10 -8 0 -15 -5 -15 -10 0 -10 29 -9 143 5 31 5 37 2 37 -14 0 -15 -10 -20 -52 -25 -67 -9 -88 -21 -88 -51 0 -18 -7 -26 -25 -31 -14 -3 -30 -15 -36 -25 -5 -11 -20 -19 -35 -19 -24 0 -25 -1 -18 -52 4 -29 17 -73 29 -98 13 -25 26 -56 29 -70 l7 -25 -20 24 c-12 13 -21 28 -21 35 0 6 -10 22 -21 36 -18 23 -19 23 -9 3 7 -16 7 -23 0 -23 -6 0 -4 -15 6 -37 9 -21 18 -47 21 -58 4 -18 2 -18 -16 4 -12 13 -21 29 -21 37 0 8 -10 14 -21 14 -17 0 -19 -3 -10 -14 9 -10 9 -20 0 -39 -9 -19 -21 -26 -57 -31 -26 -3 -50 -2 -56 4 -5 5 -17 10 -25 10 -27 0 22 -28 54 -32 22 -2 31 -9 33 -25 2 -15 -2 -23 -11 -23 -9 0 -22 -3 -31 -6 -12 -4 -16 0 -16 15 0 14 -6 21 -20 21 -20 0 -28 -24 -11 -34 10 -7 3 -46 -9 -46 -4 0 -11 17 -16 38 -4 20 -8 39 -9 42 -4 21 -33 50 -50 50 -18 0 -17 -1 4 -17 l24 -16 -48 -24 c-27 -12 -50 -23 -51 -23 -1 0 0 9 3 21 5 19 -9 38 -29 39 -4 0 -10 -15 -14 -34 -6 -34 -26 -52 -45 -40 -15 9 -10 24 6 17 13 -4 16 2 14 34 -2 21 1 44 5 51 5 8 2 10 -8 6 -9 -3 -16 -16 -16 -29 0 -18 -6 -22 -30 -23 -17 0 -28 4 -25 9 4 5 1 9 -5 9 -7 0 -8 6 0 19 16 30 3 48 -37 49 -33 1 -35 0 -17 -12 10 -8 15 -18 11 -22 -4 -5 -11 -4 -15 2 -4 6 -14 13 -23 16 -13 5 -15 1 -11 -19 3 -17 1 -24 -6 -19 -6 3 -14 1 -17 -4 -4 -6 -19 -10 -35 -8 -15 1 -35 -4 -44 -11 -30 -25 -14 26 23 72 13 16 13 17 -4 11 -12 -5 -16 -4 -12 3 4 6 0 14 -9 17 -12 4 -14 1 -9 -14 5 -15 2 -20 -10 -20 -11 0 -15 5 -11 15 4 11 -2 15 -20 15 -21 0 -24 -4 -19 -19 4 -14 0 -23 -14 -30 -30 -17 -36 -13 -16 9 14 15 15 23 6 33 -9 11 -8 17 4 27 12 10 13 15 4 21 -9 5 -7 13 5 30 20 29 20 39 0 39 -8 0 -12 5 -9 10 3 6 -3 10 -14 10 -19 0 -23 -9 -20 -37 2 -19 -38 -19 -65 0 l-29 20 23 19 c12 10 30 18 39 18 9 0 25 7 35 15 17 13 17 15 3 21 -9 3 -47 1 -83 -5 -37 -7 -69 -9 -72 -6 -12 12 17 25 67 30 49 5 105 24 73 25 -10 0 -10 4 2 15 8 9 13 22 10 30 -3 7 4 18 16 25 12 6 19 14 16 17 -3 4 -1 12 5 19 16 19 2 34 -31 34 -34 0 -48 16 -20 23 27 7 25 31 -2 54 -13 10 -24 25 -26 33 -6 26 -24 37 -20 13 1 -12 0 -22 -4 -23 -28 -1 -32 1 -19 9 19 12 7 42 -40 98 -35 43 -49 73 -33 73 4 0 40 -34 81 -75 40 -41 80 -75 88 -75 8 0 15 -4 15 -10 0 -5 8 -10 19 -10 15 0 18 8 18 40 0 26 -6 45 -18 56 -11 10 -19 23 -19 31 0 23 30 14 40 -12 11 -29 25 -32 35 -7 4 12 -4 25 -29 47 -39 32 -45 45 -21 45 8 0 15 -4 15 -8 0 -5 12 -15 28 -23 15 -8 30 -18 34 -24 4 -6 8 -2 8 9 0 13 4 16 18 11 31 -14 62 -17 62 -8 0 5 -14 22 -30 38 -22 21 -27 31 -18 37 9 6 6 10 -9 14 -13 4 -23 11 -23 16 0 5 9 7 19 3 16 -5 18 -2 14 15 -8 31 2 25 60 -35 56 -58 77 -68 77 -35 0 11 9 28 20 37 11 10 20 23 20 30 0 23 19 14 26 -12 9 -37 35 -33 28 5 -7 34 1 38 29 13 20 -18 20 -17 14 13 -5 29 -4 31 23 32 29 1 49 -26 35 -48 -3 -5 -1 -10 4 -10 6 0 11 -11 11 -25 0 -19 7 -26 33 -33 38 -11 41 -9 57 40 21 69 40 58 20 -12 l-9 -35 29 34 c16 19 32 47 36 63 4 23 10 29 25 25 12 -3 24 3 34 19 16 25 39 31 50 13z"/>
 <path d="M5841 3484 c0 -11 3 -14 6 -6 3 7 2 16 -1 19 -3 4 -6 -2 -5 -13z"/>
 <path d="M5585 3370 c3 -5 8 -10 11 -10 3 0 2 5 -1 10 -3 6 -8 10 -11 10 -3 0 -2 -4 1 -10z"/>
 <path d="M5530 3305 c14 -8 32 -14 40 -14 9 0 4 6 -10 14 -14 8 -32 14 -40 14 -9 0 -4 -6 10 -14z"/>
 <path d="M5407 3119 c7 -7 15 -10 18 -7 3 3 -2 9 -12 12 -14 6 -15 5 -6 -5z"/>
 <path d="M6062 2784 c4 -21 22 -23 26 -1 2 10 -3 17 -13 17 -10 0 -15 -6 -13 -16z"/>
 <path d="M5420 2730 c0 -7 3 -10 7 -7 3 4 3 10 0 14 -4 3 -7 0 -7 -7z"/>
 <path d="M5536 2633 c-6 -14 -5 -15 5 -6 7 7 10 15 7 18 -3 3 -9 -2 -12 -12z"/>
 <path d="M6040 2640 c20 -13 33 -13 25 0 -3 6 -14 10 -23 10 -15 0 -15 -2 -2 -10z"/>
 </g>
<g id="layer106" fill="#c23534" stroke="none">
 <path d="M0 3080 l0 -3080 6750 0 6750 0 0 3080 0 3080 -6750 0 -6750 0 0 -3080z m6121 400 c-23 -27 -41 -52 -41 -56 0 -4 -12 -21 -27 -36 -25 -26 -25 -28 -6 -28 11 0 26 7 33 15 7 8 19 15 26 15 9 0 6 -12 -11 -37 -28 -41 -25 -56 6 -28 15 14 22 16 28 7 5 -8 29 8 77 50 103 94 164 141 170 135 10 -10 -16 -47 -50 -70 -47 -32 -176 -140 -176 -148 0 -7 36 -19 58 -19 7 0 11 4 7 9 -3 5 -1 12 5 16 5 3 10 2 10 -3 0 -5 11 -7 25 -4 31 6 32 -6 1 -33 -24 -20 -44 -95 -25 -95 5 0 9 11 9 25 0 16 6 25 16 25 11 0 14 -6 9 -20 -6 -20 10 -30 17 -10 2 5 13 7 26 4 18 -5 20 -9 11 -20 -7 -8 -21 -11 -34 -8 -19 5 -27 0 -39 -25 -20 -38 -20 -41 4 -41 11 0 20 -4 20 -10 0 -5 -7 -10 -16 -10 -8 0 -13 -4 -9 -9 3 -5 20 -8 38 -6 121 15 137 15 137 -4 0 -15 -11 -20 -52 -25 -68 -9 -91 -22 -83 -47 5 -15 -1 -22 -28 -34 -19 -8 -37 -21 -40 -30 -4 -8 -18 -15 -32 -15 -25 0 -26 -1 -19 -52 4 -29 17 -73 29 -98 13 -25 26 -56 29 -70 l7 -25 -20 24 c-12 13 -21 29 -21 37 0 8 -9 14 -20 14 -20 0 -20 -1 -4 -37 9 -21 18 -47 21 -58 4 -18 2 -18 -16 4 -12 13 -21 29 -21 37 0 8 -10 14 -21 14 -17 0 -19 -3 -10 -14 9 -10 9 -20 0 -39 -9 -19 -21 -26 -57 -31 -26 -3 -50 -2 -56 4 -5 5 -17 10 -25 10 -27 0 22 -28 54 -32 22 -2 31 -9 33 -25 2 -15 -2 -23 -11 -23 -9 0 -22 -3 -31 -6 -12 -4 -16 0 -16 15 0 14 -6 21 -20 21 -20 0 -28 -24 -11 -34 10 -7 3 -46 -9 -46 -4 0 -11 17 -16 38 -4 20 -8 39 -9 42 -4 21 -33 50 -50 49 -18 0 -18 -1 3 -9 32 -14 27 -26 -20 -46 -24 -10 -46 -20 -50 -22 -3 -2 -4 7 -1 18 4 13 0 26 -8 31 -22 14 -26 11 -33 -25 -8 -40 -33 -54 -55 -30 -15 15 -14 16 8 9 23 -7 24 -6 19 33 -4 24 -1 45 6 52 8 8 7 10 -6 5 -10 -4 -18 -17 -18 -31 0 -20 -5 -24 -31 -24 -17 0 -28 4 -24 10 3 6 1 10 -5 10 -7 0 -8 6 0 19 16 30 3 48 -37 49 -33 1 -35 0 -17 -12 10 -8 15 -18 11 -22 -4 -5 -11 -4 -15 2 -4 6 -14 13 -23 16 -13 5 -15 1 -11 -19 3 -17 1 -24 -6 -19 -6 3 -14 1 -17 -4 -4 -6 -20 -10 -36 -8 -18 2 -33 -3 -39 -12 -5 -8 -12 -11 -16 -7 -8 8 11 51 35 80 14 16 13 17 -4 11 -12 -5 -16 -4 -12 3 4 6 0 14 -9 17 -12 4 -14 1 -9 -14 5 -15 2 -20 -10 -20 -11 0 -15 5 -11 15 4 11 -2 15 -20 15 -21 0 -24 -4 -19 -19 4 -14 0 -23 -14 -30 -30 -17 -36 -13 -16 9 14 15 15 23 6 33 -9 11 -8 17 4 27 12 10 13 15 4 21 -10 6 -10 11 -1 22 7 7 9 17 5 20 -3 4 -1 7 5 7 7 0 12 5 12 10 0 6 -7 10 -16 10 -8 0 -12 5 -9 10 3 6 -3 10 -14 10 -19 0 -23 -9 -20 -37 0 -4 -8 -10 -17 -13 -21 -8 -75 20 -71 35 3 9 14 16 80 46 48 22 15 33 -62 21 -84 -14 -91 -15 -91 -3 0 13 26 21 83 27 46 4 100 23 69 24 -10 0 -10 4 2 15 8 9 13 22 10 30 -3 7 4 18 16 25 12 6 19 14 16 17 -3 4 -1 12 5 19 16 19 2 34 -31 34 -34 0 -48 16 -20 23 27 7 25 32 -5 55 -14 11 -25 27 -25 35 0 9 -5 19 -12 23 -8 5 -9 2 -5 -10 9 -23 0 -37 -19 -29 -11 4 -12 8 -4 13 16 10 -3 54 -45 103 -32 37 -45 67 -29 67 4 0 40 -34 81 -75 40 -41 80 -75 88 -75 8 0 15 -4 15 -10 0 -5 8 -10 19 -10 15 0 18 8 18 40 0 26 -6 45 -18 56 -11 10 -19 23 -19 31 0 23 30 14 40 -12 11 -29 25 -32 35 -8 4 13 -4 26 -29 46 -20 16 -36 33 -36 38 0 15 27 10 41 -7 19 -23 52 -34 61 -20 5 8 13 8 28 -1 22 -15 50 -17 50 -5 0 5 -13 21 -29 36 -16 16 -27 35 -24 42 3 8 -1 14 -11 14 -9 0 -16 5 -16 11 0 6 8 8 19 4 16 -5 18 -2 14 15 -3 11 -3 20 0 20 3 0 30 -25 61 -55 59 -59 76 -67 76 -35 0 11 9 28 20 37 11 10 20 23 20 30 0 23 19 14 26 -12 9 -37 35 -33 28 5 -7 34 1 38 29 13 20 -18 20 -17 14 14 -6 30 -5 31 26 30 28 -2 32 -5 32 -29 -1 -16 3 -28 7 -28 4 0 8 -11 8 -25 0 -19 7 -26 33 -33 38 -11 41 -9 57 40 21 69 40 58 20 -12 l-9 -35 28 33 c16 19 32 47 35 63 4 22 11 29 23 27 10 -1 31 11 47 26 26 27 29 28 38 12 8 -14 1 -28 -31 -66z"/>
 <path d="M5840 3480 c0 -7 3 -10 7 -7 3 4 3 10 0 14 -4 3 -7 0 -7 -7z"/>
 <path d="M5585 3370 c3 -5 8 -10 11 -10 3 0 2 5 -1 10 -3 6 -8 10 -11 10 -3 0 -2 -4 1 -10z"/>
 <path d="M5530 3305 c14 -8 32 -14 40 -14 9 0 4 6 -10 14 -14 8 -32 14 -40 14 -9 0 -4 -6 10 -14z"/>
 <path d="M5407 3119 c7 -7 15 -10 18 -7 3 3 -2 9 -12 12 -14 6 -15 5 -6 -5z"/>
 <path d="M6062 2784 c4 -21 22 -23 26 -1 2 10 -3 17 -13 17 -10 0 -15 -6 -13 -16z"/>
 <path d="M5420 2730 c0 -7 3 -10 7 -7 3 4 3 10 0 14 -4 3 -7 0 -7 -7z"/>
 <path d="M5536 2633 c-6 -14 -5 -15 5 -6 7 7 10 15 7 18 -3 3 -9 -2 -12 -12z"/>
 <path d="M6040 2640 c20 -13 33 -13 25 0 -3 6 -14 10 -23 10 -15 0 -15 -2 -2 -10z"/>
 </g>
<g id="layer107" fill="#ae4f51" stroke="none">
 <path d="M0 3080 l0 -3080 6750 0 6750 0 0 3080 0 3080 -6750 0 -6750 0 0 -3080z m6121 400 c-23 -27 -41 -52 -41 -56 0 -4 -12 -21 -27 -36 -25 -26 -25 -28 -6 -28 11 0 26 7 33 15 7 8 19 15 26 15 9 0 6 -12 -11 -37 -28 -41 -25 -56 6 -28 15 14 22 16 28 7 5 -8 29 8 77 50 103 94 164 141 170 135 10 -10 -16 -47 -50 -70 -47 -32 -176 -140 -176 -148 0 -7 36 -19 58 -19 7 0 11 4 7 9 -3 5 -1 12 5 16 5 3 10 2 10 -3 0 -5 11 -7 25 -4 31 6 32 -6 1 -33 -24 -20 -44 -95 -25 -95 5 0 9 11 9 25 0 16 6 25 16 25 11 0 14 -6 9 -20 -6 -20 10 -30 17 -10 2 5 13 7 26 4 18 -5 20 -9 11 -20 -7 -8 -21 -11 -34 -8 -19 5 -27 0 -39 -25 -20 -38 -20 -41 4 -41 11 0 20 -4 20 -10 0 -5 -7 -10 -16 -10 -8 0 -13 -4 -9 -9 3 -5 20 -8 38 -6 121 15 137 15 137 -4 0 -15 -11 -20 -52 -25 -68 -9 -91 -22 -83 -47 5 -15 -1 -22 -28 -34 -19 -8 -37 -21 -40 -30 -4 -8 -18 -15 -32 -15 -25 0 -26 -1 -19 -52 4 -29 17 -73 29 -98 13 -25 26 -56 29 -70 l7 -25 -20 24 c-12 13 -21 29 -21 37 0 8 -9 14 -20 14 -20 0 -20 -1 -4 -37 9 -21 18 -47 21 -58 4 -18 2 -18 -16 4 -12 13 -21 29 -21 37 0 8 -10 14 -21 14 -17 0 -19 -3 -10 -14 9 -10 9 -20 0 -39 -9 -19 -21 -26 -57 -31 -26 -3 -50 -2 -56 4 -5 5 -17 10 -25 10 -27 0 22 -28 54 -32 22 -2 31 -9 33 -25 2 -15 -2 -23 -11 -23 -9 0 -22 -3 -31 -6 -12 -4 -16 0 -16 15 0 14 -6 21 -20 21 -20 0 -28 -24 -11 -34 10 -7 3 -46 -9 -46 -4 0 -11 17 -16 38 -4 20 -8 39 -9 42 -4 21 -33 50 -50 49 -18 0 -18 -1 3 -9 32 -14 27 -26 -20 -46 -24 -10 -46 -20 -50 -22 -3 -2 -4 7 -1 18 4 13 0 26 -8 31 -22 14 -26 11 -33 -25 -8 -40 -33 -54 -55 -30 -15 15 -14 16 8 9 23 -7 24 -6 19 33 -4 24 -1 45 6 52 8 8 7 10 -6 5 -10 -4 -18 -17 -18 -31 0 -20 -5 -24 -31 -24 -17 0 -28 4 -24 10 3 6 1 10 -5 10 -7 0 -8 6 0 19 16 30 3 48 -37 49 -33 1 -35 0 -17 -12 10 -8 15 -18 11 -22 -4 -5 -11 -4 -15 2 -4 6 -14 13 -23 16 -13 5 -15 1 -11 -19 3 -17 1 -24 -6 -19 -6 3 -14 1 -17 -4 -4 -6 -20 -10 -36 -8 -18 2 -33 -3 -39 -12 -5 -8 -12 -11 -16 -7 -8 8 11 51 35 80 14 16 13 17 -4 11 -12 -5 -16 -4 -12 3 4 6 0 14 -9 17 -12 4 -14 1 -9 -14 5 -15 2 -20 -10 -20 -11 0 -15 5 -11 15 4 11 -2 15 -20 15 -21 0 -24 -4 -19 -19 4 -14 0 -23 -14 -30 -30 -17 -36 -13 -16 9 14 15 15 23 6 33 -9 11 -8 17 4 27 12 10 13 15 4 21 -10 6 -10 11 -1 22 7 7 9 17 5 20 -3 4 -1 7 5 7 7 0 12 5 12 10 0 6 -7 10 -16 10 -8 0 -12 5 -9 10 3 6 -3 10 -14 10 -19 0 -23 -9 -20 -37 0 -4 -8 -10 -17 -13 -21 -8 -75 20 -71 35 3 9 14 16 80 46 48 22 15 33 -62 21 -84 -14 -91 -15 -91 -3 0 13 26 21 83 27 46 4 100 23 69 24 -10 0 -10 4 2 15 8 9 13 22 10 30 -3 7 4 18 16 25 12 6 19 14 16 17 -3 4 -1 12 5 19 16 19 2 34 -31 34 -34 0 -48 16 -20 23 27 7 25 32 -5 55 -14 11 -25 27 -25 35 0 9 -5 19 -12 23 -8 5 -9 2 -5 -10 9 -23 0 -37 -19 -29 -11 4 -12 8 -4 13 16 10 -3 54 -45 103 -32 37 -45 67 -29 67 4 0 40 -34 81 -75 40 -41 80 -75 88 -75 8 0 15 -4 15 -10 0 -5 8 -10 19 -10 15 0 18 8 18 40 0 26 -6 45 -18 56 -11 10 -19 23 -19 31 0 23 30 14 40 -12 11 -29 25 -32 35 -8 4 13 -4 26 -29 46 -20 16 -36 33 -36 38 0 15 27 10 41 -7 19 -23 52 -34 61 -20 5 8 13 8 28 -1 22 -15 50 -17 50 -5 0 5 -13 21 -29 36 -16 16 -27 35 -24 42 3 8 -1 14 -11 14 -9 0 -16 5 -16 11 0 6 8 8 19 4 16 -5 18 -2 14 15 -3 11 -3 20 0 20 3 0 30 -25 61 -55 59 -59 76 -67 76 -35 0 11 9 28 20 37 11 10 20 23 20 30 0 23 19 14 26 -12 9 -37 35 -33 28 5 -7 34 1 38 29 13 20 -18 20 -17 14 14 -6 30 -5 31 26 30 28 -2 32 -5 32 -29 -1 -16 3 -28 7 -28 4 0 8 -11 8 -25 0 -19 7 -26 33 -33 38 -11 41 -9 57 40 21 69 40 58 20 -12 l-9 -35 28 33 c16 19 32 47 35 63 4 22 11 29 23 27 10 -1 31 11 47 26 26 27 29 28 38 12 8 -14 1 -28 -31 -66z"/>
 <path d="M5840 3480 c0 -7 3 -10 7 -7 3 4 3 10 0 14 -4 3 -7 0 -7 -7z"/>
 <path d="M5585 3370 c3 -5 8 -10 11 -10 3 0 2 5 -1 10 -3 6 -8 10 -11 10 -3 0 -2 -4 1 -10z"/>
 <path d="M5530 3305 c14 -8 32 -14 40 -14 9 0 4 6 -10 14 -14 8 -32 14 -40 14 -9 0 -4 -6 10 -14z"/>
 <path d="M5407 3119 c7 -7 15 -10 18 -7 3 3 -2 9 -12 12 -14 6 -15 5 -6 -5z"/>
 <path d="M6071 2774 c0 -11 3 -14 6 -6 3 7 2 16 -1 19 -3 4 -6 -2 -5 -13z"/>
 <path d="M5420 2730 c0 -7 3 -10 7 -7 3 4 3 10 0 14 -4 3 -7 0 -7 -7z"/>
 <path d="M5536 2633 c-6 -14 -5 -15 5 -6 7 7 10 15 7 18 -3 3 -9 -2 -12 -12z"/>
 <path d="M6040 2640 c20 -13 33 -13 25 0 -3 6 -14 10 -23 10 -15 0 -15 -2 -2 -10z"/>
 </g>
<g id="layer108" fill="#c9504f" stroke="none">
 <path d="M0 3080 l0 -3080 6750 0 6750 0 0 3080 0 3080 -6750 0 -6750 0 0 -3080z m6142 422 c-11 -15 -29 -36 -41 -46 -12 -11 -21 -24 -21 -30 0 -5 -12 -23 -27 -38 -25 -26 -25 -28 -6 -28 11 0 26 7 33 15 7 8 19 15 27 15 10 0 7 -10 -11 -37 -29 -42 -26 -55 5 -28 15 14 22 16 28 7 5 -8 29 8 77 50 103 94 164 141 170 135 10 -10 -16 -47 -50 -70 -47 -32 -176 -140 -176 -148 0 -7 36 -19 58 -19 7 0 11 4 7 9 -3 5 -1 12 5 16 5 3 10 2 10 -3 0 -5 11 -7 25 -4 32 6 32 -11 1 -35 -24 -18 -44 -93 -25 -93 5 0 9 11 9 25 0 16 6 25 16 25 11 0 14 -6 9 -20 -6 -20 10 -30 17 -10 2 5 13 7 26 4 18 -5 20 -9 11 -20 -7 -8 -19 -12 -28 -9 -20 6 -35 -4 -50 -32 -15 -29 -14 -33 9 -33 11 0 20 -4 20 -10 0 -5 -7 -10 -17 -10 -9 0 -13 -3 -10 -7 8 -7 107 -5 150 3 22 5 27 2 27 -15 0 -16 -9 -21 -47 -26 -72 -9 -96 -21 -88 -45 5 -17 0 -23 -29 -35 -20 -9 -36 -22 -36 -30 0 -10 -10 -15 -30 -15 l-31 0 7 -52 c4 -29 17 -73 29 -98 13 -25 26 -56 29 -70 l7 -25 -20 24 c-12 13 -21 29 -21 37 0 8 -9 14 -20 14 -20 0 -20 -1 -4 -37 9 -21 18 -47 21 -58 4 -18 2 -18 -16 4 -12 13 -21 29 -21 37 0 8 -10 14 -21 14 -17 0 -19 -3 -10 -14 9 -10 9 -20 0 -39 -9 -19 -21 -26 -57 -31 -26 -3 -50 -2 -56 4 -5 5 -17 10 -25 10 -27 0 22 -28 54 -32 22 -2 31 -9 33 -25 2 -13 0 -23 -5 -23 -4 0 -18 -3 -30 -6 -19 -5 -23 -2 -23 15 0 14 -6 21 -20 21 -20 0 -28 -24 -11 -34 4 -3 6 -17 4 -31 -5 -26 -23 -25 -23 1 0 9 -10 38 -21 65 -16 37 -27 49 -43 48 -21 0 -21 0 2 -9 32 -14 27 -26 -20 -46 -24 -10 -46 -20 -50 -22 -3 -2 -4 7 -1 18 4 13 0 26 -8 31 -22 14 -26 11 -33 -25 -8 -40 -33 -54 -55 -30 -15 15 -14 16 8 9 23 -7 24 -6 19 33 -4 24 -1 45 6 52 8 8 7 10 -6 5 -10 -4 -18 -17 -18 -31 0 -20 -5 -24 -31 -24 -17 0 -28 4 -24 10 3 6 1 10 -5 10 -7 0 -8 6 0 19 16 30 3 48 -37 49 -33 1 -35 0 -17 -12 11 -8 15 -18 10 -23 -5 -4 -11 -2 -13 5 -8 20 -33 14 -33 -9 0 -11 -4 -18 -9 -14 -5 3 -13 0 -16 -5 -4 -6 -20 -10 -36 -8 -18 2 -33 -3 -39 -12 -5 -8 -12 -11 -16 -7 -8 8 11 51 36 81 14 18 14 18 -7 7 -31 -16 -56 -14 -49 4 4 11 -2 15 -20 15 -21 0 -24 -4 -19 -19 4 -14 0 -23 -14 -30 -30 -17 -36 -13 -16 9 14 15 15 23 6 33 -9 11 -8 17 4 27 12 10 13 15 4 21 -10 6 -10 11 -1 22 7 7 9 17 5 20 -3 4 -1 7 5 7 7 0 12 5 12 10 0 6 -7 10 -16 10 -8 0 -12 5 -9 10 3 6 -3 10 -14 10 -19 0 -23 -9 -20 -37 0 -4 -8 -10 -17 -13 -21 -8 -75 20 -71 35 3 9 14 16 80 46 48 22 15 33 -62 21 -84 -14 -91 -15 -91 -3 0 12 28 21 82 26 61 7 84 15 67 26 -10 6 -11 9 -1 9 6 0 12 11 12 25 0 14 8 29 21 35 11 7 18 14 15 17 -3 4 -1 12 5 19 16 19 2 34 -31 34 -16 0 -32 5 -35 10 -3 6 0 10 8 10 28 0 30 34 3 57 -14 12 -26 29 -26 37 0 8 -5 18 -12 22 -8 5 -9 2 -5 -10 9 -23 0 -37 -19 -29 -11 4 -12 8 -4 13 16 10 -3 54 -45 103 -37 43 -44 67 -20 67 8 0 15 -4 15 -10 0 -15 130 -140 146 -140 8 0 14 -4 14 -10 0 -5 8 -10 19 -10 15 0 18 8 18 40 0 26 -6 45 -18 56 -11 10 -19 23 -19 31 0 23 30 14 40 -12 11 -30 26 -32 33 -5 3 14 -5 27 -29 45 -19 14 -34 30 -34 36 0 15 26 10 41 -7 19 -23 52 -34 61 -20 5 8 13 8 28 -1 22 -15 50 -17 50 -5 0 5 -13 21 -29 36 -16 16 -27 35 -24 42 3 8 -1 14 -11 14 -9 0 -16 5 -16 11 0 6 8 8 19 4 16 -5 18 -2 14 15 -3 11 -3 20 0 20 3 0 30 -25 61 -55 30 -30 59 -55 65 -55 6 0 11 14 11 30 0 21 5 30 16 30 9 0 18 9 21 20 7 28 21 25 29 -5 9 -37 35 -33 28 5 -7 34 1 38 29 13 19 -18 19 -17 13 14 -7 30 -6 31 26 30 29 -2 33 -5 33 -29 -1 -16 3 -28 7 -28 4 0 8 -11 8 -25 0 -19 7 -26 33 -33 38 -11 41 -9 57 40 21 69 40 58 20 -12 l-9 -35 28 33 c16 19 32 47 35 63 4 22 11 29 23 27 10 -1 31 11 47 26 25 26 29 27 38 12 6 -11 4 -24 -10 -44z"/>
 <path d="M5840 3480 c0 -7 3 -10 7 -7 3 4 3 10 0 14 -4 3 -7 0 -7 -7z"/>
 <path d="M5585 3370 c3 -5 8 -10 11 -10 3 0 2 5 -1 10 -3 6 -8 10 -11 10 -3 0 -2 -4 1 -10z"/>
 <path d="M5530 3305 c14 -8 32 -14 40 -14 9 0 4 6 -10 14 -14 8 -32 14 -40 14 -9 0 -4 -6 10 -14z"/>
 <path d="M5407 3119 c7 -7 15 -10 18 -7 3 3 -2 9 -12 12 -14 6 -15 5 -6 -5z"/>
 <path d="M6071 2774 c0 -11 3 -14 6 -6 3 7 2 16 -1 19 -3 4 -6 -2 -5 -13z"/>
 <path d="M5420 2730 c0 -7 3 -10 7 -7 3 4 3 10 0 14 -4 3 -7 0 -7 -7z"/>
 <path d="M5470 2700 c0 -6 7 -10 15 -10 8 0 15 2 15 4 0 2 -7 6 -15 10 -8 3 -15 1 -15 -4z"/>
 <path d="M5536 2633 c-6 -14 -5 -15 5 -6 7 7 10 15 7 18 -3 3 -9 -2 -12 -12z"/>
 <path d="M6043 2643 c4 -3 10 -3 14 0 3 4 0 7 -7 7 -7 0 -10 -3 -7 -7z"/>
 </g>
<g id="layer109" fill="#b05f62" stroke="none">
 <path d="M0 3080 l0 -3080 6750 0 6750 0 0 3080 0 3080 -6750 0 -6750 0 0 -3080z m6142 422 c-11 -15 -29 -36 -41 -46 -12 -11 -21 -24 -21 -31 0 -7 -9 -20 -20 -30 -11 -10 -20 -22 -20 -27 0 -13 27 -9 40 7 7 8 19 15 27 15 10 0 7 -10 -11 -37 -29 -42 -26 -55 5 -28 15 14 22 16 28 7 5 -8 29 8 77 50 103 94 164 141 170 135 10 -10 -16 -47 -50 -70 -47 -32 -176 -140 -176 -148 0 -7 36 -19 58 -19 7 0 11 4 7 9 -3 5 -1 12 5 16 5 3 10 2 10 -3 0 -5 11 -7 25 -4 32 6 32 -11 1 -35 -24 -18 -44 -93 -25 -93 5 0 9 11 9 25 0 16 6 25 16 25 11 0 14 -6 9 -20 -6 -20 10 -30 17 -10 2 5 13 7 26 4 18 -5 20 -9 11 -20 -7 -8 -19 -12 -28 -9 -20 6 -35 -4 -50 -32 -15 -29 -14 -33 9 -33 11 0 20 -4 20 -10 0 -5 -7 -10 -17 -10 -9 0 -13 -3 -10 -7 8 -7 107 -5 150 3 22 5 27 2 27 -15 0 -16 -9 -21 -47 -26 -72 -9 -96 -21 -88 -45 5 -17 0 -23 -29 -35 -20 -9 -36 -22 -36 -30 0 -10 -10 -15 -30 -15 l-31 0 7 -52 c4 -29 17 -73 29 -98 13 -25 26 -56 29 -70 l7 -25 -20 24 c-12 13 -21 29 -21 37 0 8 -9 14 -20 14 -20 0 -20 -1 -4 -37 9 -21 18 -47 21 -58 4 -18 2 -18 -16 4 -12 13 -21 29 -21 37 0 8 -10 14 -21 14 -17 0 -19 -3 -10 -14 9 -10 9 -20 0 -39 -9 -19 -21 -26 -57 -31 -26 -3 -50 -2 -56 4 -5 5 -17 10 -25 10 -27 0 22 -28 54 -32 22 -2 31 -9 33 -25 2 -13 0 -23 -5 -23 -4 0 -18 -3 -30 -6 -19 -5 -23 -2 -23 15 0 14 -6 21 -20 21 -20 0 -28 -24 -11 -34 4 -3 6 -17 4 -31 -5 -26 -23 -25 -23 1 0 9 -10 38 -21 65 -16 37 -27 49 -43 48 -21 0 -21 0 2 -9 32 -14 27 -26 -20 -46 -24 -10 -46 -20 -50 -22 -3 -2 -4 7 -1 18 4 13 0 26 -8 31 -22 14 -26 11 -33 -25 -8 -40 -33 -54 -55 -30 -15 15 -14 16 8 9 23 -7 24 -6 19 33 -4 24 -1 45 6 52 8 8 7 10 -6 5 -10 -4 -18 -17 -18 -31 0 -20 -5 -24 -31 -24 -17 0 -28 4 -24 10 3 6 1 10 -5 10 -7 0 -8 6 0 19 16 30 3 48 -37 49 -33 1 -35 0 -17 -12 11 -8 15 -18 10 -23 -5 -4 -11 -2 -13 5 -8 20 -33 14 -33 -9 0 -11 -4 -18 -9 -14 -5 3 -13 0 -16 -5 -4 -6 -20 -10 -36 -8 -18 2 -33 -3 -39 -12 -5 -8 -12 -11 -16 -7 -8 8 11 51 36 81 14 18 14 18 -7 7 -31 -16 -56 -14 -49 4 4 11 -2 15 -20 15 -21 0 -24 -4 -19 -19 4 -14 0 -23 -14 -30 -30 -17 -36 -13 -16 9 14 15 15 23 6 33 -9 11 -8 17 4 27 12 10 13 15 4 21 -10 6 -10 11 -1 22 7 7 9 17 5 20 -3 4 -1 7 5 7 7 0 12 5 12 10 0 6 -7 10 -16 10 -8 0 -12 5 -9 10 3 6 -3 10 -14 10 -19 0 -23 -9 -20 -37 0 -4 -8 -10 -17 -13 -21 -8 -75 20 -71 35 3 9 14 16 80 46 48 22 15 33 -62 21 -84 -14 -91 -15 -91 -3 0 12 28 21 82 26 61 7 84 15 67 26 -10 6 -11 9 -1 9 6 0 12 11 12 25 0 14 8 29 21 35 11 7 18 14 15 17 -3 4 -1 12 5 19 16 19 2 34 -31 34 -16 0 -32 5 -35 10 -3 6 0 10 8 10 28 0 30 34 3 57 -14 12 -26 29 -26 37 0 8 -5 18 -12 22 -8 5 -9 2 -5 -10 9 -23 0 -37 -19 -29 -11 4 -12 8 -4 13 16 10 -3 54 -45 103 -37 43 -44 67 -20 67 8 0 15 -4 15 -10 0 -15 130 -140 146 -140 8 0 14 -4 14 -10 0 -5 8 -10 19 -10 15 0 18 8 18 40 0 26 -6 45 -18 56 -11 10 -19 23 -19 31 0 23 30 14 40 -12 11 -30 26 -32 33 -5 3 14 -5 27 -29 45 -19 14 -34 30 -34 36 0 15 26 10 41 -7 19 -23 52 -34 61 -20 5 8 13 8 28 -1 22 -15 50 -17 50 -5 0 5 -13 21 -29 36 -16 16 -27 35 -24 42 3 8 -1 14 -11 14 -9 0 -16 5 -16 11 0 6 8 8 19 4 16 -5 18 -2 14 15 -3 11 -3 20 0 20 3 0 30 -25 61 -55 30 -30 59 -55 65 -55 6 0 11 14 11 30 0 21 5 30 16 30 9 0 18 9 21 20 7 28 21 25 29 -5 9 -37 35 -33 28 5 -7 34 1 38 29 13 19 -18 19 -17 13 14 -7 30 -6 31 26 30 29 -2 33 -5 33 -29 -1 -16 3 -28 7 -28 4 0 8 -11 8 -25 0 -19 7 -26 33 -33 38 -11 41 -9 57 40 21 69 40 58 20 -12 l-9 -35 28 33 c16 19 32 47 35 63 4 22 11 29 23 27 10 -1 31 11 47 26 25 26 29 27 38 12 6 -11 4 -24 -10 -44z"/>
 <path d="M5840 3480 c0 -7 3 -10 7 -7 3 4 3 10 0 14 -4 3 -7 0 -7 -7z"/>
 <path d="M5585 3370 c3 -5 8 -10 11 -10 3 0 2 5 -1 10 -3 6 -8 10 -11 10 -3 0 -2 -4 1 -10z"/>
 <path d="M5530 3305 c14 -8 32 -14 40 -14 9 0 4 6 -10 14 -14 8 -32 14 -40 14 -9 0 -4 -6 10 -14z"/>
 <path d="M5407 3119 c7 -7 15 -10 18 -7 3 3 -2 9 -12 12 -14 6 -15 5 -6 -5z"/>
 <path d="M5420 2730 c0 -7 3 -10 7 -7 3 4 3 10 0 14 -4 3 -7 0 -7 -7z"/>
 <path d="M5470 2700 c0 -6 7 -10 15 -10 8 0 15 2 15 4 0 2 -7 6 -15 10 -8 3 -15 1 -15 -4z"/>
 <path d="M5536 2633 c-6 -14 -5 -15 5 -6 7 7 10 15 7 18 -3 3 -9 -2 -12 -12z"/>
 </g>
<g id="layer110" fill="#b66d6e" stroke="none">
 <path d="M0 3080 l0 -3080 6750 0 6750 0 0 3080 0 3080 -6750 0 -6750 0 0 -3080z m6142 422 c-11 -15 -29 -36 -41 -46 -12 -11 -21 -24 -21 -31 0 -7 -9 -20 -20 -30 -11 -10 -20 -22 -20 -27 0 -13 27 -9 40 7 7 8 19 15 27 15 10 0 7 -10 -11 -37 -29 -42 -26 -55 5 -28 15 15 22 16 28 7 5 -9 30 8 82 55 96 88 159 137 165 130 10 -9 -16 -46 -44 -64 -15 -9 -47 -35 -72 -58 -25 -22 -61 -52 -80 -66 -39 -30 -38 -36 10 -45 23 -5 31 -4 26 4 -3 6 -2 13 4 17 5 3 10 2 10 -3 0 -5 11 -7 25 -4 32 6 32 -11 1 -35 -24 -18 -44 -93 -25 -93 5 0 9 11 9 25 0 16 6 25 16 25 11 0 14 -6 8 -22 -6 -19 -5 -21 8 -11 15 13 58 7 58 -7 0 -11 -37 -23 -49 -16 -12 8 -41 -21 -41 -40 0 -8 7 -17 15 -20 20 -8 19 -24 -1 -24 -8 0 -13 -4 -9 -10 3 -5 11 -7 18 -5 7 2 45 6 85 9 66 6 72 5 72 -13 0 -20 -25 -31 -72 -31 -42 0 -58 -10 -58 -37 0 -18 -9 -28 -35 -39 -19 -8 -35 -21 -35 -29 0 -10 -10 -15 -30 -15 l-31 0 7 -52 c4 -29 17 -73 29 -98 13 -25 26 -56 29 -70 l7 -25 -20 24 c-12 13 -21 29 -21 37 0 8 -9 14 -20 14 -20 0 -19 -20 4 -49 6 -7 12 -25 13 -40 l3 -26 -20 24 c-11 13 -20 29 -20 36 0 8 -9 13 -19 12 -14 -1 -17 -5 -10 -13 6 -8 6 -20 -2 -37 -9 -19 -21 -26 -57 -31 -26 -3 -50 -2 -56 4 -5 5 -17 10 -25 10 -27 0 22 -28 54 -32 22 -2 31 -9 33 -25 2 -13 0 -23 -5 -23 -4 0 -18 -3 -30 -6 -19 -5 -23 -2 -23 15 0 14 -6 21 -20 21 -21 0 -27 -19 -10 -36 7 -7 7 -19 1 -35 -6 -17 -10 -20 -14 -9 -24 75 -41 110 -46 101 -4 -5 -23 -17 -44 -26 -20 -8 -37 -20 -37 -26 0 -5 -4 -8 -9 -5 -5 3 -7 15 -4 27 4 12 0 25 -8 30 -22 14 -26 11 -33 -25 -7 -35 -25 -50 -51 -40 -24 9 -18 26 6 19 21 -7 22 -5 17 33 -4 24 -1 45 6 52 8 8 7 10 -6 5 -10 -4 -18 -17 -18 -31 0 -20 -5 -24 -31 -24 -17 0 -28 4 -24 10 3 6 -2 10 -11 10 -16 0 -16 1 0 19 24 27 11 48 -31 49 -33 1 -35 0 -17 -12 11 -8 15 -18 10 -23 -5 -4 -11 -2 -13 5 -9 24 -33 13 -33 -15 0 -20 -3 -24 -9 -14 -6 10 -10 10 -16 1 -4 -6 -20 -10 -36 -8 -18 2 -33 -3 -39 -12 -5 -8 -12 -11 -16 -7 -8 8 11 51 36 81 14 18 14 18 -7 7 -32 -16 -56 -14 -49 5 4 12 0 15 -17 12 -13 -2 -21 -9 -19 -18 2 -8 -5 -20 -14 -27 -27 -20 -39 -15 -19 7 14 15 15 23 6 33 -9 11 -8 17 4 27 10 8 12 16 6 19 -12 8 -3 51 10 51 5 0 9 5 9 10 0 6 -7 10 -16 10 -8 0 -12 5 -9 10 3 6 -3 10 -14 10 -19 0 -23 -9 -20 -37 0 -4 -8 -10 -17 -13 -21 -8 -75 20 -71 35 3 9 14 16 80 46 48 22 15 33 -62 21 -84 -14 -91 -15 -91 -3 0 12 28 21 82 26 61 7 84 15 67 26 -10 6 -11 9 -1 9 6 0 12 11 12 25 0 14 8 29 21 35 11 7 18 14 15 17 -3 4 -1 12 5 19 16 19 2 34 -31 34 -16 0 -32 5 -35 10 -3 6 0 10 8 10 28 0 30 34 3 57 -14 12 -26 29 -26 37 0 8 -5 18 -12 22 -8 5 -9 2 -5 -10 9 -23 0 -37 -19 -29 -11 4 -12 8 -4 13 16 10 -3 54 -45 103 -37 43 -44 67 -20 67 8 0 15 -4 15 -10 0 -15 130 -140 146 -140 8 0 14 -4 14 -10 0 -5 8 -10 19 -10 15 0 18 8 18 40 0 26 -6 45 -18 56 -11 10 -19 23 -19 31 0 23 29 14 43 -14 14 -26 15 -26 26 -6 9 18 6 24 -24 47 -19 15 -35 31 -35 37 0 15 26 10 41 -7 19 -23 52 -34 61 -20 5 8 13 8 28 -1 22 -15 50 -17 50 -5 0 5 -13 21 -30 37 -16 15 -27 31 -25 35 3 4 -5 10 -16 13 -13 3 -18 10 -14 17 4 7 16 9 28 6 15 -4 17 -2 8 7 -6 6 -11 15 -11 19 0 19 22 5 74 -47 30 -30 59 -55 65 -55 6 0 11 16 11 35 0 28 4 35 20 35 11 0 20 7 20 15 0 24 19 17 26 -10 9 -37 35 -33 28 5 -7 34 1 38 29 13 19 -18 19 -17 13 14 -7 30 -6 31 26 30 29 -2 33 -5 33 -29 -1 -16 3 -28 7 -28 4 0 8 -8 8 -19 0 -23 17 -38 49 -43 20 -2 26 3 38 37 21 61 36 69 29 15 l-7 -45 25 29 c13 16 27 42 30 58 4 21 11 28 23 26 10 -1 31 11 47 26 25 26 29 27 38 12 6 -11 4 -24 -10 -44z"/>
 <path d="M5840 3480 c0 -7 3 -10 7 -7 3 4 3 10 0 14 -4 3 -7 0 -7 -7z"/>
 <path d="M5534 3305 c36 -19 47 -19 22 0 -11 8 -27 15 -35 15 -9 0 -3 -7 13 -15z"/>
 <path d="M5407 3119 c7 -7 15 -10 18 -7 3 3 -2 9 -12 12 -14 6 -15 5 -6 -5z"/>
 <path d="M5420 2730 c0 -7 3 -10 7 -7 3 4 3 10 0 14 -4 3 -7 0 -7 -7z"/>
 <path d="M5470 2700 c0 -6 7 -10 15 -10 8 0 15 2 15 4 0 2 -7 6 -15 10 -8 3 -15 1 -15 -4z"/>
 <path d="M5536 2633 c-6 -14 -5 -15 5 -6 7 7 10 15 7 18 -3 3 -9 -2 -12 -12z"/>
 <path d="M5888 2623 c7 -3 16 -2 19 1 4 3 -2 6 -13 5 -11 0 -14 -3 -6 -6z"/>
 </g>
<g id="layer111" fill="#c47879" stroke="none">
 <path d="M0 3080 l0 -3080 6750 0 6750 0 0 3080 0 3080 -6750 0 -6750 0 0 -3080z m6142 422 c-11 -15 -29 -36 -41 -46 -12 -11 -21 -24 -21 -31 0 -7 -9 -20 -20 -30 -11 -10 -20 -22 -20 -27 0 -13 27 -9 40 7 7 8 19 15 27 15 10 0 7 -10 -11 -37 -29 -42 -26 -55 5 -28 15 15 22 16 28 7 5 -9 30 8 82 55 96 88 159 137 165 130 10 -9 -16 -46 -44 -64 -15 -9 -50 -37 -77 -62 -28 -26 -64 -56 -80 -67 -34 -25 -32 -31 15 -40 23 -5 31 -4 26 4 -3 6 -2 13 4 17 5 3 10 2 10 -3 0 -5 11 -7 25 -4 31 6 32 -11 2 -35 -24 -18 -45 -93 -26 -93 5 0 9 11 9 25 0 16 6 25 16 25 11 0 14 -6 9 -22 -6 -19 -5 -21 6 -10 16 15 46 16 55 1 9 -15 -16 -30 -39 -25 -34 8 -65 -48 -32 -60 20 -8 19 -21 -2 -28 -10 -3 24 -4 75 -1 84 3 92 2 92 -14 0 -20 -26 -31 -72 -31 -42 0 -58 -10 -58 -37 0 -18 -9 -28 -35 -39 -19 -8 -35 -21 -35 -29 0 -10 -10 -15 -31 -15 l-30 0 7 -47 c3 -27 17 -70 29 -98 12 -27 25 -61 29 -75 l7 -25 -20 24 c-12 13 -21 29 -21 37 0 8 -9 14 -20 14 -20 0 -19 -20 4 -49 6 -7 12 -25 13 -40 l3 -26 -20 24 c-11 13 -20 30 -20 38 0 21 -23 10 -26 -13 -7 -54 -9 -56 -60 -59 -27 -2 -54 1 -61 7 -7 5 -18 8 -25 5 -8 -4 -7 -6 5 -6 9 -1 17 -5 17 -10 0 -6 15 -11 33 -13 24 -2 33 -8 35 -25 2 -13 0 -23 -5 -23 -4 0 -18 -3 -30 -6 -19 -5 -23 -2 -23 15 0 14 -6 21 -20 21 -21 0 -27 -19 -10 -36 7 -7 7 -19 1 -35 l-9 -24 -11 28 c-6 16 -11 34 -11 40 -1 16 -29 65 -30 51 0 -7 -18 -19 -40 -28 -22 -9 -40 -21 -40 -27 0 -5 -4 -8 -9 -5 -5 3 -7 15 -4 27 4 12 0 25 -8 30 -22 14 -26 11 -33 -25 -7 -35 -25 -50 -51 -40 -24 9 -18 26 6 19 21 -7 22 -5 16 31 -4 22 -2 43 5 51 8 11 7 12 -6 7 -9 -3 -16 -17 -16 -30 0 -19 -5 -24 -26 -24 -37 0 -55 21 -38 44 19 27 7 43 -33 44 -33 1 -35 0 -17 -12 11 -8 15 -18 10 -23 -5 -4 -11 -2 -13 5 -9 24 -33 13 -33 -15 0 -20 -3 -24 -9 -14 -6 10 -10 10 -16 1 -4 -6 -20 -10 -36 -8 -18 2 -33 -3 -39 -12 -5 -8 -12 -11 -16 -7 -8 8 11 51 35 80 15 18 14 18 -11 7 -29 -14 -63 -7 -52 11 4 7 -1 9 -12 7 -11 -2 -18 -11 -16 -20 2 -11 -10 -23 -30 -34 l-33 -17 24 26 c19 21 21 29 12 40 -9 11 -8 17 4 27 10 8 12 16 6 19 -12 8 -3 51 10 51 5 0 9 5 9 10 0 6 -7 10 -16 10 -8 0 -12 5 -9 10 3 6 -3 10 -14 10 -19 0 -23 -9 -20 -37 0 -4 -8 -10 -17 -13 -18 -7 -74 18 -74 32 0 11 43 38 62 38 10 0 18 5 18 10 0 6 8 10 17 10 13 0 14 3 5 12 -9 9 -26 9 -75 0 -77 -14 -97 -15 -97 -3 0 13 29 23 77 26 62 5 89 15 72 26 -10 6 -11 9 -1 9 6 0 12 11 12 25 0 14 8 29 21 35 11 7 18 14 15 17 -3 4 -1 12 5 19 16 19 2 34 -31 34 -32 0 -48 15 -25 24 22 8 18 44 -5 58 -11 7 -20 20 -20 30 0 9 -5 20 -12 24 -8 5 -9 2 -5 -10 9 -23 0 -37 -19 -29 -11 4 -12 8 -4 13 16 10 -3 54 -45 103 -37 43 -44 67 -20 67 8 0 15 -4 15 -10 0 -15 130 -140 146 -140 8 0 14 -4 14 -10 0 -5 8 -10 19 -10 15 0 18 8 18 40 0 26 -6 45 -18 56 -11 10 -19 23 -19 31 0 23 29 14 43 -14 14 -26 15 -26 26 -6 9 18 6 24 -24 47 -60 46 -40 64 23 21 27 -18 38 -21 44 -12 6 9 12 9 28 0 22 -15 50 -17 50 -5 0 5 -13 21 -30 37 -16 15 -27 32 -24 37 3 4 -2 8 -10 8 -24 0 -30 21 -8 27 13 3 18 11 15 19 -11 29 17 12 71 -41 30 -30 59 -55 65 -55 6 0 11 16 11 35 0 28 4 35 20 35 11 0 20 7 20 15 0 24 19 17 26 -10 9 -37 35 -33 28 5 -7 34 1 38 29 13 19 -18 19 -17 13 14 -7 30 -6 31 26 30 29 -2 33 -5 33 -29 -1 -16 3 -28 7 -28 4 0 8 -8 8 -19 0 -23 17 -38 48 -43 20 -2 27 4 42 46 26 67 34 70 26 11 l-7 -50 25 30 c13 17 27 43 30 58 4 20 11 27 23 25 10 -1 31 11 47 26 25 26 29 27 38 12 6 -11 4 -24 -10 -44z"/>
 <path d="M5840 3480 c0 -7 3 -10 7 -7 3 4 3 10 0 14 -4 3 -7 0 -7 -7z"/>
 <path d="M5534 3305 c36 -19 47 -19 22 0 -11 8 -27 15 -35 15 -9 0 -3 -7 13 -15z"/>
 <path d="M5407 3119 c7 -7 15 -10 18 -7 3 3 -2 9 -12 12 -14 6 -15 5 -6 -5z"/>
 <path d="M5420 2730 c0 -7 3 -10 7 -7 3 4 3 10 0 14 -4 3 -7 0 -7 -7z"/>
 <path d="M5470 2700 c0 -6 7 -10 15 -10 8 0 15 2 15 4 0 2 -7 6 -15 10 -8 3 -15 1 -15 -4z"/>
 <path d="M5536 2633 c-6 -14 -5 -15 5 -6 7 7 10 15 7 18 -3 3 -9 -2 -12 -12z"/>
 <path d="M5888 2623 c7 -3 16 -2 19 1 4 3 -2 6 -13 5 -11 0 -14 -3 -6 -6z"/>
 </g>
<g id="layer112" fill="#cc9595" stroke="none">
 <path d="M0 3080 l0 -3080 6750 0 6750 0 0 3080 0 3080 -6750 0 -6750 0 0 -3080z m6142 422 c-11 -15 -29 -36 -41 -46 -12 -11 -21 -24 -21 -31 0 -7 -9 -20 -20 -30 -11 -10 -20 -22 -20 -27 0 -13 27 -9 40 7 7 8 19 15 27 15 10 0 7 -10 -11 -37 -25 -36 -26 -64 -2 -30 15 19 36 23 36 6 0 -6 23 9 50 33 128 110 186 158 193 158 20 0 3 -32 -29 -57 -20 -15 -60 -48 -89 -73 -28 -25 -65 -55 -81 -66 -33 -25 -31 -31 16 -40 23 -5 31 -4 26 4 -3 6 -2 13 4 17 5 3 10 2 10 -3 0 -5 11 -7 25 -4 31 6 32 -11 2 -35 -24 -18 -45 -93 -26 -93 5 0 9 11 9 25 0 16 6 25 16 25 11 0 14 -6 9 -22 -6 -19 -5 -21 6 -10 16 15 46 16 55 1 9 -15 -16 -30 -39 -25 -34 8 -65 -48 -32 -60 20 -8 19 -21 -2 -28 -10 -3 24 -4 75 -1 84 3 92 2 92 -15 0 -21 -19 -30 -65 -30 -49 0 -65 -9 -65 -37 0 -18 -9 -28 -35 -39 -19 -8 -35 -21 -35 -29 0 -10 -10 -15 -31 -15 -31 0 -31 0 -24 -42 4 -24 20 -76 36 -116 33 -81 32 -105 -2 -48 -11 20 -27 36 -35 36 -14 0 -10 -24 10 -49 6 -7 12 -25 13 -40 l3 -26 -20 24 c-11 13 -20 30 -20 38 0 21 -23 10 -26 -13 -7 -54 -9 -56 -60 -59 -27 -2 -54 1 -61 7 -7 5 -18 8 -25 5 -8 -4 -7 -6 5 -6 9 -1 17 -5 17 -10 0 -6 15 -11 33 -13 24 -2 33 -8 35 -25 2 -13 0 -23 -5 -23 -4 0 -18 -3 -29 -6 -16 -4 -23 0 -27 15 -3 12 -12 21 -21 21 -18 0 -21 -21 -6 -36 7 -7 7 -19 1 -35 l-9 -24 -11 28 c-6 16 -11 34 -11 40 -1 16 -29 65 -30 51 0 -7 -18 -19 -40 -28 -22 -9 -40 -21 -40 -27 0 -5 -4 -8 -9 -5 -4 3 -6 16 -4 29 7 35 -25 45 -37 11 -6 -14 -10 -32 -10 -40 0 -15 -18 -18 -44 -8 -24 9 -19 26 5 19 21 -7 22 -5 16 31 -4 22 -2 43 5 51 8 11 7 12 -6 7 -9 -3 -16 -17 -16 -30 0 -19 -5 -24 -26 -24 -37 0 -55 21 -38 44 19 27 7 43 -33 44 -33 1 -35 0 -17 -12 11 -8 15 -18 10 -23 -5 -4 -11 -2 -13 5 -9 24 -33 13 -33 -15 0 -20 -3 -24 -9 -14 -6 10 -10 10 -16 1 -4 -6 -20 -10 -36 -8 -18 2 -33 -3 -39 -12 -5 -8 -12 -11 -16 -7 -8 8 11 51 35 80 15 18 14 18 -11 7 -29 -14 -63 -7 -53 10 3 5 -1 10 -9 10 -9 0 -16 -9 -16 -20 0 -12 -12 -26 -32 -36 l-33 -17 24 26 c19 21 21 29 12 40 -9 11 -8 17 4 27 10 8 12 16 6 19 -12 8 -3 51 10 51 5 0 9 5 9 10 0 6 -7 10 -16 10 -8 0 -12 5 -9 10 3 6 -3 10 -14 10 -19 0 -23 -9 -20 -37 0 -4 -8 -10 -17 -13 -18 -7 -74 18 -74 32 0 11 43 38 62 38 10 0 18 5 18 10 0 6 8 10 17 10 13 0 14 3 5 12 -9 9 -25 9 -70 0 -69 -14 -102 -15 -102 -3 0 13 29 23 77 26 62 5 89 15 72 26 -10 6 -11 9 -1 9 6 0 12 11 12 25 0 14 8 29 21 35 11 7 18 14 15 17 -3 4 -1 12 5 19 16 19 2 34 -31 34 -32 0 -48 15 -25 24 22 8 18 44 -5 58 -11 7 -20 20 -20 30 0 9 -5 20 -12 24 -8 5 -9 2 -5 -10 9 -23 0 -37 -19 -29 -11 4 -12 8 -4 13 15 9 -9 63 -51 111 -17 21 -29 45 -27 55 3 17 4 17 18 1 54 -63 144 -147 156 -147 8 0 14 -4 14 -10 0 -5 8 -10 19 -10 15 0 18 8 18 40 0 26 -6 45 -18 56 -11 10 -19 23 -19 31 0 23 29 14 43 -14 14 -26 15 -26 26 -6 9 18 6 24 -24 47 -60 46 -40 64 23 21 25 -17 38 -21 43 -13 5 8 15 8 38 -2 46 -18 50 -5 11 35 -19 19 -30 35 -24 36 5 0 -1 4 -14 10 -24 9 -22 29 3 29 9 0 12 6 9 15 -12 30 16 14 70 -40 30 -30 59 -55 65 -55 6 0 11 16 11 35 0 28 4 35 20 35 11 0 20 7 20 15 0 24 19 17 26 -10 9 -37 35 -33 28 5 -7 34 1 38 29 13 19 -18 19 -17 13 14 -7 30 -6 31 26 30 29 -2 33 -5 33 -29 -1 -16 3 -28 7 -28 4 0 8 -8 8 -19 0 -23 17 -38 48 -43 20 -2 27 4 42 46 26 67 34 70 26 11 l-7 -50 25 30 c13 17 27 43 30 58 4 20 11 27 23 25 10 -1 31 11 47 26 25 26 29 27 38 12 6 -11 4 -24 -10 -44z"/>
 <path d="M5840 3480 c0 -7 3 -10 7 -7 3 4 3 10 0 14 -4 3 -7 0 -7 -7z"/>
 <path d="M5513 3313 c4 -3 10 -3 14 0 3 4 0 7 -7 7 -7 0 -10 -3 -7 -7z"/>
 <path d="M5540 3306 c0 -2 7 -7 16 -10 8 -3 12 -2 9 4 -6 10 -25 14 -25 6z"/>
 <path d="M5407 3119 c7 -7 15 -10 18 -7 3 3 -2 9 -12 12 -14 6 -15 5 -6 -5z"/>
 <path d="M5420 2730 c0 -7 3 -10 7 -7 3 4 3 10 0 14 -4 3 -7 0 -7 -7z"/>
 <path d="M5470 2700 c0 -6 7 -10 15 -10 8 0 15 2 15 4 0 2 -7 6 -15 10 -8 3 -15 1 -15 -4z"/>
 <path d="M5534 2628 c-4 -7 -3 -8 4 -4 7 4 12 9 12 12 0 8 -9 4 -16 -8z"/>
 <path d="M5888 2623 c7 -3 16 -2 19 1 4 3 -2 6 -13 5 -11 0 -14 -3 -6 -6z"/>
 </g>
<g id="layer113" fill="#d0a0a0" stroke="none">
 <path d="M0 3080 l0 -3080 6750 0 6750 0 0 3080 0 3080 -6750 0 -6750 0 0 -3080z m6142 422 c-11 -15 -29 -36 -41 -46 -12 -11 -21 -24 -21 -31 0 -7 -9 -20 -20 -30 -11 -10 -20 -22 -20 -27 0 -13 27 -9 40 7 7 8 19 15 27 15 10 0 7 -10 -11 -37 -25 -36 -26 -64 -2 -30 15 19 36 23 36 6 0 -6 23 9 50 33 128 110 186 158 193 158 20 0 3 -32 -30 -57 -20 -15 -57 -46 -82 -69 -25 -22 -61 -51 -78 -63 -39 -26 -41 -37 -10 -45 14 -4 27 0 36 12 8 10 15 13 17 6 3 -6 16 -9 29 -6 31 6 32 -11 2 -35 -24 -18 -45 -93 -26 -93 5 0 9 11 9 25 0 16 6 25 16 25 11 0 14 -6 9 -22 -6 -19 -5 -21 6 -10 18 17 59 15 59 -2 0 -16 -34 -31 -49 -22 -12 8 -41 -21 -41 -40 0 -8 7 -17 15 -20 20 -8 19 -21 -2 -28 -10 -3 24 -4 75 -1 84 3 92 2 92 -15 0 -21 -19 -30 -65 -30 -49 0 -65 -9 -65 -37 0 -18 -9 -28 -35 -39 -19 -8 -35 -21 -35 -29 0 -10 -10 -15 -31 -15 -31 0 -31 0 -24 -42 4 -24 20 -76 36 -116 33 -81 32 -105 -2 -48 -11 20 -27 36 -35 36 -14 0 -10 -24 10 -49 6 -7 12 -25 13 -40 l3 -26 -20 24 c-11 13 -20 30 -20 38 0 21 -23 10 -26 -13 -7 -54 -11 -59 -37 -56 -26 3 -45 -12 -27 -23 12 -7 14 -45 3 -45 -5 0 -18 -3 -29 -6 -16 -4 -23 0 -27 15 -3 12 -12 21 -21 21 -18 0 -21 -21 -6 -36 7 -7 7 -19 1 -35 l-9 -24 -11 28 c-6 16 -11 33 -11 38 0 6 -5 19 -10 29 -10 18 -11 18 -51 1 -23 -11 -45 -25 -50 -32 -9 -15 -12 -7 -10 27 3 33 -28 39 -39 8 -6 -14 -10 -32 -10 -40 0 -15 -18 -18 -44 -8 -23 9 -20 26 4 19 16 -5 20 -2 20 17 0 13 -5 30 -10 38 -8 13 -10 12 -10 -2 0 -22 -45 -25 -64 -5 -11 11 -11 16 0 31 19 27 7 43 -33 44 -33 1 -35 0 -17 -12 11 -8 15 -18 10 -23 -5 -4 -11 -2 -13 5 -9 23 -33 13 -34 -15 0 -16 -3 -22 -6 -15 -4 10 -8 10 -18 2 -8 -7 -24 -10 -37 -8 -13 2 -28 -4 -35 -12 -6 -8 -15 -12 -19 -7 -8 8 11 51 35 80 15 18 14 18 -11 7 -29 -14 -63 -7 -53 10 3 5 -1 10 -10 10 -11 0 -15 -7 -13 -21 2 -15 -5 -24 -29 -34 -38 -16 -42 -11 -11 15 18 14 20 20 10 33 -10 11 -9 17 3 27 10 8 12 16 6 19 -12 8 -3 51 10 51 5 0 9 5 9 10 0 6 -7 10 -15 10 -8 0 -15 5 -15 10 0 6 -7 10 -15 10 -13 0 -17 -10 -14 -37 0 -4 -8 -10 -18 -14 -18 -6 -73 18 -73 33 0 11 43 38 61 38 9 0 20 7 23 16 3 9 11 12 18 8 10 -5 10 -4 1 6 -10 10 -24 11 -69 1 -69 -13 -104 -14 -104 -2 0 13 29 23 77 26 62 5 89 15 72 26 -10 6 -11 9 -1 9 6 0 12 11 12 25 0 14 8 29 20 35 11 6 18 15 15 20 -3 5 -1 12 5 15 17 10 -8 35 -36 35 -27 0 -40 16 -19 24 22 8 18 43 -5 56 -11 6 -20 19 -20 30 0 10 -5 22 -11 26 -7 4 -9 0 -5 -14 8 -24 -4 -34 -24 -21 -11 6 -12 9 -2 9 21 0 5 38 -39 96 -39 51 -51 88 -25 78 7 -3 17 -13 22 -23 5 -10 38 -43 74 -75 85 -75 87 -76 104 -76 20 0 16 58 -7 93 -21 32 -22 47 -2 47 9 0 21 -12 27 -26 11 -24 13 -25 25 -8 12 16 8 23 -29 56 -51 44 -30 53 30 13 25 -17 38 -21 43 -13 5 8 15 8 38 -2 44 -18 47 -8 11 34 -18 20 -28 36 -24 37 5 0 -1 4 -14 10 -24 9 -22 29 3 29 9 0 12 6 9 15 -12 30 16 14 70 -40 30 -30 59 -55 65 -55 6 0 11 16 11 35 0 28 4 35 20 35 12 0 20 7 20 16 0 23 24 11 28 -14 2 -12 9 -22 16 -22 8 0 11 10 8 30 -5 34 3 37 31 13 19 -18 19 -17 13 14 -7 30 -6 31 26 30 29 -2 33 -5 33 -29 -1 -16 3 -28 7 -28 4 0 8 -9 8 -20 0 -14 11 -26 33 -35 l32 -14 28 57 27 57 -6 -50 -5 -50 25 30 c13 17 27 43 30 58 4 20 11 27 23 25 10 -1 31 11 47 26 25 26 29 27 38 12 6 -11 4 -24 -10 -44z"/>
 <path d="M5840 3480 c0 -7 3 -10 7 -7 3 4 3 10 0 14 -4 3 -7 0 -7 -7z"/>
 <path d="M5540 3306 c0 -2 7 -7 16 -10 8 -3 12 -2 9 4 -6 10 -25 14 -25 6z"/>
 <path d="M5407 3119 c7 -7 15 -10 18 -7 3 3 -2 9 -12 12 -14 6 -15 5 -6 -5z"/>
 <path d="M5420 2730 c0 -7 3 -10 7 -7 3 4 3 10 0 14 -4 3 -7 0 -7 -7z"/>
 <path d="M5470 2700 c0 -6 7 -10 15 -10 8 0 15 2 15 4 0 2 -7 6 -15 10 -8 3 -15 1 -15 -4z"/>
 <path d="M5750 2640 c-9 -6 -10 -10 -3 -10 6 0 15 5 18 10 8 12 4 12 -15 0z"/>
 <path d="M5534 2628 c-4 -7 -3 -8 4 -4 7 4 12 9 12 12 0 8 -9 4 -16 -8z"/>
 <path d="M5888 2623 c7 -3 16 -2 19 1 4 3 -2 6 -13 5 -11 0 -14 -3 -6 -6z"/>
 <path d="M5983 2623 c9 -2 17 -9 17 -14 0 -5 10 -9 23 -9 20 0 20 1 -7 15 -15 8 -33 14 -40 14 -6 -1 -3 -3 7 -6z"/>
 </g>
<g id="layer114" fill="#d3b2b2" stroke="none">
 <path d="M0 3080 l0 -3080 6750 0 6750 0 0 3080 0 3080 -6750 0 -6750 0 0 -3080z m6160 447 c0 -4 -17 -26 -39 -50 -21 -23 -41 -52 -45 -64 -4 -11 -13 -24 -21 -27 -8 -3 -15 -10 -15 -16 0 -15 26 -12 40 5 7 8 19 15 27 15 10 0 7 -10 -11 -37 -25 -36 -26 -64 -2 -30 15 19 36 23 36 6 0 -6 23 9 50 33 128 110 186 158 193 158 20 0 3 -32 -30 -57 -20 -15 -57 -46 -82 -69 -25 -22 -61 -51 -78 -63 -39 -26 -41 -37 -10 -45 14 -4 27 0 36 12 8 10 15 13 17 6 3 -6 16 -9 29 -6 31 6 32 -11 2 -35 -24 -18 -45 -93 -26 -93 5 0 9 11 9 25 0 16 6 25 16 25 11 0 14 -6 9 -22 -6 -19 -5 -21 6 -10 18 17 59 15 59 -2 0 -16 -34 -31 -49 -22 -12 8 -41 -21 -41 -39 0 -8 8 -19 18 -24 15 -9 15 -12 2 -22 -11 -8 8 -9 73 -5 87 5 88 5 85 -17 -2 -18 -10 -22 -43 -25 -74 -5 -85 -10 -85 -41 0 -25 -5 -31 -31 -36 -19 -4 -33 -15 -36 -26 -4 -13 -14 -19 -35 -19 -29 0 -30 -1 -23 -42 4 -24 20 -76 36 -116 33 -81 32 -105 -2 -48 -11 20 -27 36 -35 36 -16 0 -9 -26 14 -52 8 -10 12 -18 7 -18 -4 0 -2 -6 4 -14 8 -9 8 -16 2 -20 -11 -7 -41 31 -41 52 0 21 -23 9 -26 -14 -7 -54 -11 -59 -37 -56 -26 3 -45 -12 -27 -23 12 -7 14 -45 3 -45 -5 0 -18 -3 -29 -6 -16 -4 -23 0 -27 15 -3 12 -12 21 -21 21 -18 0 -21 -21 -6 -36 7 -7 7 -19 1 -35 l-9 -24 -11 28 c-6 16 -11 33 -11 38 0 6 -5 19 -11 30 -10 19 -12 19 -34 5 -14 -9 -31 -16 -40 -16 -9 0 -18 -7 -21 -15 -10 -24 -22 -8 -16 21 7 40 -30 28 -43 -14 -9 -32 -19 -37 -49 -26 -23 9 -20 26 4 19 16 -5 20 -2 20 17 0 13 -5 30 -10 38 -8 13 -10 12 -10 -2 0 -22 -45 -25 -64 -5 -11 11 -11 16 0 31 19 27 7 43 -33 44 -33 1 -35 0 -17 -12 11 -8 15 -18 10 -23 -5 -4 -11 -2 -13 5 -3 6 -12 12 -20 12 -11 0 -14 -7 -9 -25 4 -14 2 -25 -4 -25 -5 0 -10 5 -10 11 0 8 -4 8 -14 -1 -8 -6 -25 -10 -38 -8 -13 2 -28 -4 -35 -12 -6 -8 -15 -12 -19 -7 -8 8 11 51 35 80 15 18 14 18 -11 7 -29 -14 -63 -7 -53 10 3 5 -1 10 -10 10 -11 0 -15 -7 -13 -21 2 -15 -5 -24 -29 -34 -38 -16 -44 -5 -11 17 19 13 21 18 10 30 -10 12 -9 18 3 28 10 8 12 16 6 19 -13 8 -2 51 12 51 6 0 1 9 -11 20 -33 31 -50 22 -43 -22 0 -5 -6 -8 -14 -8 -8 0 -15 -5 -15 -11 0 -6 -7 -3 -15 5 -9 9 -24 20 -33 26 -15 9 -15 12 7 30 13 11 31 20 41 20 17 0 36 27 26 37 -3 3 -28 0 -56 -6 -62 -13 -100 -14 -100 -2 0 13 29 23 83 27 53 4 70 11 62 25 -4 5 -1 9 4 9 6 0 11 11 11 25 0 14 8 29 20 35 11 6 18 15 15 20 -3 5 -1 12 5 15 17 10 -8 35 -36 35 -27 0 -40 16 -19 24 22 8 18 43 -5 56 -11 6 -20 19 -20 30 0 10 -5 22 -12 26 -8 5 -9 2 -5 -10 9 -22 0 -37 -17 -30 -7 3 -11 16 -9 32 3 20 -6 39 -36 76 -41 48 -55 91 -26 80 8 -3 17 -13 21 -22 5 -14 54 -61 148 -139 8 -7 21 -13 30 -13 20 0 16 58 -7 93 -21 32 -22 47 -2 47 9 0 21 -12 27 -26 11 -24 13 -25 25 -8 12 16 8 23 -29 56 -51 44 -30 53 30 13 25 -17 38 -21 43 -13 5 8 15 8 38 -2 44 -18 49 -6 12 30 -17 18 -29 36 -25 41 3 5 -2 9 -10 9 -24 0 -30 21 -8 27 13 3 18 11 15 19 -11 28 17 13 72 -41 32 -30 62 -55 66 -55 5 0 9 16 9 35 0 28 4 35 20 35 12 0 20 7 20 16 0 23 24 11 28 -14 2 -12 9 -22 16 -22 8 0 11 10 8 30 -5 34 3 37 31 13 19 -18 19 -17 13 14 -7 30 -6 31 26 30 29 -2 33 -5 33 -29 -1 -16 3 -28 7 -28 4 0 8 -9 8 -20 0 -14 11 -26 33 -35 l32 -13 27 56 28 57 -6 -50 -5 -50 25 30 c13 17 27 43 30 58 4 20 11 27 23 25 10 -1 31 10 47 26 22 23 30 26 37 15 5 -8 9 -17 9 -22z"/>
 <path d="M5840 3480 c0 -7 3 -10 7 -7 3 4 3 10 0 14 -4 3 -7 0 -7 -7z"/>
 <path d="M5540 3306 c0 -2 7 -7 16 -10 8 -3 12 -2 9 4 -6 10 -25 14 -25 6z"/>
 <path d="M5413 3113 c4 -3 10 -3 14 0 3 4 0 7 -7 7 -7 0 -10 -3 -7 -7z"/>
 <path d="M5470 2700 c0 -6 7 -10 15 -10 8 0 15 2 15 4 0 2 -7 6 -15 10 -8 3 -15 1 -15 -4z"/>
 <path d="M5750 2640 c-9 -6 -10 -10 -3 -10 6 0 15 5 18 10 8 12 4 12 -15 0z"/>
 <path d="M5534 2628 c-4 -7 -3 -8 4 -4 7 4 12 9 12 12 0 8 -9 4 -16 -8z"/>
 <path d="M5888 2623 c7 -3 16 -2 19 1 4 3 -2 6 -13 5 -11 0 -14 -3 -6 -6z"/>
 <path d="M5983 2623 c9 -2 17 -9 17 -14 0 -5 10 -9 23 -9 20 0 20 1 -7 15 -15 8 -33 14 -40 14 -6 -1 -3 -3 7 -6z"/>
 </g>
<g id="layer115" fill="#e9c2ba" stroke="none">
 <path d="M0 3080 l0 -3080 6750 0 6750 0 0 3080 0 3080 -6750 0 -6750 0 0 -3080z m6160 448 c0 -4 -18 -27 -39 -52 -22 -25 -42 -54 -46 -65 -3 -10 -12 -22 -20 -25 -18 -6 -20 -26 -3 -26 6 0 19 7 29 16 31 28 41 11 14 -25 -13 -19 -22 -37 -19 -40 3 -3 11 2 18 12 15 19 36 23 36 6 0 -6 23 9 50 33 128 110 186 158 193 158 20 0 3 -32 -30 -57 -20 -15 -57 -46 -82 -69 -25 -22 -61 -51 -78 -63 -39 -26 -41 -37 -10 -45 14 -4 27 0 36 12 8 10 15 13 17 6 3 -6 16 -9 29 -6 32 6 32 -11 1 -35 -22 -18 -42 -83 -24 -83 4 0 8 9 8 20 0 12 7 20 16 20 10 0 14 -6 11 -14 -5 -12 1 -13 29 -9 27 4 34 2 34 -10 0 -17 -34 -32 -49 -23 -12 8 -41 -21 -41 -40 0 -8 7 -17 16 -21 9 -3 13 -12 9 -21 -5 -13 5 -14 75 -9 80 6 81 6 78 -16 -2 -18 -10 -22 -43 -25 -74 -5 -85 -10 -85 -41 0 -25 -5 -31 -31 -36 -19 -4 -33 -15 -36 -26 -4 -13 -14 -19 -35 -19 -29 0 -30 -1 -23 -42 4 -24 20 -76 36 -116 32 -78 33 -103 3 -55 -19 29 -34 43 -46 43 -10 0 2 -31 20 -52 8 -10 12 -18 7 -18 -4 0 -2 -7 5 -15 7 -9 10 -19 6 -23 -10 -9 -46 35 -46 55 0 21 -23 10 -26 -13 -7 -54 -11 -59 -37 -56 -26 3 -45 -12 -27 -23 12 -7 14 -45 3 -45 -5 0 -18 -3 -29 -6 -16 -4 -23 0 -27 15 -3 12 -12 21 -21 21 -19 0 -20 -5 -6 -30 6 -11 6 -28 2 -41 -10 -26 -16 -19 -31 39 -9 31 -17 42 -31 42 -10 0 -22 -4 -25 -10 -3 -5 -15 -10 -26 -10 -11 0 -22 -7 -25 -15 -10 -24 -22 -8 -16 21 7 40 -30 28 -43 -14 -9 -32 -19 -37 -49 -26 -23 9 -20 26 4 19 16 -5 20 -2 20 17 0 13 -5 30 -10 38 -8 13 -10 12 -10 -2 0 -10 -6 -18 -14 -18 -8 0 -21 -3 -30 -6 -11 -4 -16 -1 -16 10 0 9 -5 16 -10 16 -6 0 -4 10 4 23 20 29 9 42 -34 45 -33 3 -34 2 -15 -12 11 -8 17 -18 12 -22 -4 -4 -13 -2 -19 4 -20 20 -31 14 -24 -13 4 -14 2 -25 -4 -25 -5 0 -10 5 -10 11 0 8 -4 8 -14 -1 -8 -6 -25 -10 -38 -8 -13 2 -28 -4 -35 -12 -6 -8 -15 -12 -19 -7 -8 8 11 51 35 80 15 18 14 18 -11 7 -29 -14 -63 -7 -53 10 3 5 -1 10 -10 10 -11 0 -15 -7 -13 -21 2 -15 -5 -24 -29 -34 -38 -16 -44 -5 -11 17 19 13 21 18 10 30 -10 12 -9 18 3 28 10 8 12 16 6 19 -13 8 -2 51 12 51 6 0 1 9 -11 20 -33 31 -50 22 -43 -22 0 -5 -6 -8 -14 -8 -8 0 -15 -5 -15 -11 0 -6 -7 -3 -15 5 -9 9 -24 20 -33 25 -15 9 -15 11 2 30 11 12 29 21 41 21 21 0 42 26 31 37 -3 3 -28 0 -56 -6 -62 -13 -100 -14 -100 -2 0 13 29 23 83 27 56 4 75 13 56 25 -11 6 -10 9 4 15 9 3 17 14 17 25 0 10 9 23 20 29 11 6 18 15 15 20 -3 5 -1 12 5 15 17 10 -8 35 -36 35 -27 0 -40 16 -19 24 22 8 18 43 -5 56 -11 6 -20 19 -20 30 0 10 -5 22 -11 26 -7 4 -9 0 -5 -14 8 -24 -2 -32 -28 -22 -14 4 -16 9 -8 14 21 13 13 40 -28 90 -22 26 -40 57 -40 68 0 23 19 20 34 -6 15 -25 112 -118 139 -133 12 -7 29 -12 38 -13 22 0 20 47 -4 83 -9 14 -17 31 -17 37 0 18 29 11 40 -11 9 -17 14 -18 26 -8 13 11 9 18 -28 50 -32 29 -38 38 -25 39 11 0 32 -9 48 -21 18 -12 37 -18 49 -14 10 3 29 1 40 -5 39 -21 46 -4 12 28 -19 17 -31 36 -27 42 3 5 -1 10 -9 10 -24 0 -30 21 -8 27 13 3 18 11 15 19 -11 28 17 13 72 -41 32 -30 62 -55 66 -55 5 0 9 16 9 35 0 28 4 35 20 35 12 0 20 7 20 16 0 23 24 11 28 -14 2 -12 9 -22 16 -22 8 0 11 10 8 30 -5 34 3 37 31 13 19 -18 19 -17 13 14 -7 30 -6 31 26 30 29 -2 33 -5 33 -29 -1 -16 3 -28 7 -28 4 0 8 -9 8 -20 0 -14 11 -26 33 -35 l32 -13 27 56 28 57 -6 -50 -5 -50 25 30 c13 17 27 43 30 58 4 20 11 27 23 25 10 -1 31 10 47 26 22 23 30 26 37 15 5 -8 9 -17 9 -21z"/>
 <path d="M5540 3306 c0 -2 7 -7 16 -10 8 -3 12 -2 9 4 -6 10 -25 14 -25 6z"/>
 <path d="M5413 3113 c4 -3 10 -3 14 0 3 4 0 7 -7 7 -7 0 -10 -3 -7 -7z"/>
 <path d="M5470 2700 c0 -6 7 -10 15 -10 8 0 15 2 15 4 0 2 -7 6 -15 10 -8 3 -15 1 -15 -4z"/>
 <path d="M5750 2640 c-9 -6 -10 -10 -3 -10 6 0 15 5 18 10 8 12 4 12 -15 0z"/>
 <path d="M5888 2623 c7 -3 16 -2 19 1 4 3 -2 6 -13 5 -11 0 -14 -3 -6 -6z"/>
 <path d="M5983 2623 c9 -2 17 -9 17 -14 0 -5 10 -9 23 -9 20 0 20 1 -7 15 -15 8 -33 14 -40 14 -6 -1 -3 -3 7 -6z"/>
 </g>
<g id="layer116" fill="#e8d4d4" stroke="none">
 <path d="M0 3080 l0 -3080 6750 0 6750 0 0 3080 0 3080 -6750 0 -6750 0 0 -3080z m6160 448 c0 -4 -18 -27 -39 -52 -22 -25 -42 -54 -46 -65 -3 -10 -12 -22 -20 -25 -18 -6 -20 -26 -3 -26 6 0 19 7 29 16 31 28 41 11 14 -25 -13 -19 -22 -37 -19 -40 3 -3 11 2 18 12 15 19 36 23 36 6 0 -6 23 9 50 33 128 110 186 158 193 158 20 0 3 -32 -30 -57 -20 -15 -57 -46 -82 -69 -25 -22 -61 -51 -78 -63 -39 -26 -41 -37 -10 -45 14 -4 27 0 36 12 8 10 15 13 17 6 3 -6 16 -9 29 -6 32 6 32 -11 1 -35 -22 -18 -42 -83 -24 -83 4 0 8 9 8 20 0 12 7 20 16 20 10 0 14 -6 11 -14 -5 -12 1 -13 29 -9 27 4 34 2 34 -10 0 -17 -34 -32 -49 -23 -12 8 -41 -21 -41 -40 0 -8 7 -17 16 -21 9 -3 13 -12 9 -21 -5 -13 5 -14 75 -9 80 6 81 6 78 -16 -2 -18 -10 -22 -43 -25 -74 -5 -85 -10 -85 -41 0 -25 -5 -31 -31 -36 -19 -4 -33 -15 -36 -26 -4 -13 -14 -19 -35 -19 -29 0 -30 -1 -23 -42 4 -24 20 -76 36 -116 32 -78 33 -103 3 -55 -19 29 -34 43 -46 43 -10 0 2 -31 20 -52 8 -10 12 -18 7 -18 -4 0 -2 -7 5 -15 7 -9 10 -19 6 -23 -10 -9 -46 35 -46 55 0 8 -6 13 -12 10 -7 -2 -12 -10 -10 -17 2 -7 0 -20 -4 -29 -4 -9 -8 -20 -8 -26 -1 -5 -13 -9 -28 -7 -27 3 -46 -12 -28 -23 12 -7 14 -45 3 -45 -5 0 -18 -3 -29 -6 -16 -4 -23 0 -27 15 -3 12 -12 21 -21 21 -19 0 -20 -5 -6 -30 6 -11 6 -28 2 -41 -10 -26 -16 -19 -31 39 -9 31 -17 42 -31 42 -10 0 -22 -4 -25 -10 -3 -5 -15 -10 -26 -10 -11 0 -22 -7 -25 -15 -10 -24 -22 -8 -16 21 7 40 -30 28 -43 -14 -9 -32 -19 -37 -49 -26 -23 9 -20 26 4 19 16 -5 20 -2 20 17 0 13 -5 30 -10 38 -8 13 -10 12 -10 -2 0 -10 -6 -18 -14 -18 -8 0 -21 -3 -30 -6 -11 -4 -16 -1 -16 10 0 9 -5 16 -10 16 -6 0 -4 10 4 23 20 29 9 42 -34 45 -33 3 -34 2 -15 -12 11 -8 17 -18 12 -22 -4 -4 -13 -2 -19 4 -20 20 -31 14 -24 -13 4 -14 2 -25 -4 -25 -5 0 -10 5 -10 11 0 8 -4 8 -14 -1 -8 -6 -25 -10 -38 -8 -13 2 -28 -4 -35 -12 -6 -8 -15 -12 -19 -7 -8 8 11 51 35 80 15 18 14 18 -11 7 -29 -14 -63 -7 -53 10 3 5 -1 10 -10 10 -11 0 -15 -7 -13 -21 2 -15 -5 -24 -29 -34 -38 -16 -44 -5 -11 17 19 13 21 18 10 30 -10 12 -9 18 3 28 10 8 12 16 6 19 -13 8 -2 51 12 51 6 0 1 9 -11 20 -33 31 -50 22 -43 -22 0 -5 -6 -8 -14 -8 -8 0 -15 -5 -15 -11 0 -6 -7 -3 -15 5 -9 9 -24 20 -33 25 -15 9 -15 11 2 30 11 12 29 21 41 21 21 0 42 26 31 37 -3 3 -28 0 -56 -6 -62 -13 -100 -14 -100 -2 0 13 29 23 83 27 56 4 75 13 56 25 -11 6 -10 9 4 15 9 3 17 14 17 25 0 10 9 23 20 29 11 6 18 15 15 20 -3 5 -1 12 5 15 17 10 -8 35 -36 35 -27 0 -40 16 -19 24 22 8 18 43 -5 56 -11 6 -20 19 -20 30 0 10 -5 22 -11 26 -7 4 -9 0 -5 -14 8 -24 -2 -32 -28 -22 -14 4 -16 9 -8 14 21 13 13 40 -28 90 -22 26 -40 57 -40 68 0 23 19 20 34 -6 15 -25 112 -118 139 -133 12 -7 29 -12 38 -13 22 0 20 47 -4 83 -9 14 -17 31 -17 37 0 18 29 11 40 -11 9 -17 14 -18 26 -8 13 11 9 18 -28 50 -32 29 -38 38 -25 39 11 0 32 -9 48 -21 18 -12 37 -18 49 -14 10 3 29 1 40 -5 39 -21 46 -4 12 28 -19 17 -31 36 -27 42 3 5 -1 10 -9 10 -24 0 -30 21 -8 27 13 3 18 11 15 19 -11 29 19 12 73 -41 31 -30 60 -55 65 -55 5 0 9 16 9 35 0 28 4 35 20 35 12 0 20 7 20 16 0 23 24 11 28 -14 2 -12 9 -22 16 -22 8 0 11 10 8 30 -5 34 3 37 31 13 19 -18 19 -17 13 14 -7 30 -6 31 26 30 29 -2 33 -5 33 -29 -1 -16 3 -28 7 -28 4 0 8 -9 8 -20 0 -14 11 -26 33 -35 l32 -13 27 56 28 57 -6 -50 -5 -50 25 30 c13 17 27 43 30 58 4 20 11 27 23 25 10 -1 31 10 47 26 22 23 30 26 37 15 5 -8 9 -17 9 -21z"/>
 <path d="M5413 3113 c4 -3 10 -3 14 0 3 4 0 7 -7 7 -7 0 -10 -3 -7 -7z"/>
 <path d="M5483 2693 c4 -3 10 -3 14 0 3 4 0 7 -7 7 -7 0 -10 -3 -7 -7z"/>
 <path d="M5750 2640 c-9 -6 -10 -10 -3 -10 6 0 15 5 18 10 8 12 4 12 -15 0z"/>
 <path d="M5888 2623 c7 -3 16 -2 19 1 4 3 -2 6 -13 5 -11 0 -14 -3 -6 -6z"/>
 <path d="M5983 2623 c9 -2 17 -9 17 -14 0 -5 10 -9 23 -9 20 0 20 1 -7 15 -15 8 -33 14 -40 14 -6 -1 -3 -3 7 -6z"/>
 </g>
<g id="layer117" fill="#ffffff" stroke="none">
 <path d="M0 3080 l0 -3080 6750 0 6750 0 0 3080 0 3080 -6750 0 -6750 0 0 -3080z m6123 397 c-23 -24 -44 -53 -47 -65 -4 -11 -13 -23 -21 -26 -18 -6 -20 -26 -3 -26 6 0 19 7 29 16 32 29 40 10 14 -29 -14 -20 -21 -37 -15 -37 6 0 13 7 16 15 7 17 31 20 36 4 2 -5 39 23 83 63 79 72 148 128 159 128 19 0 1 -33 -31 -57 -20 -15 -57 -46 -82 -69 -25 -22 -61 -51 -78 -63 -39 -26 -41 -37 -10 -45 14 -4 27 0 36 12 8 10 15 13 17 6 3 -6 16 -9 29 -6 32 6 32 -8 1 -37 -23 -22 -41 -81 -24 -81 4 0 8 9 8 20 0 12 7 20 16 20 10 0 14 -6 11 -14 -5 -12 1 -13 29 -9 27 4 34 2 34 -10 0 -17 -34 -32 -49 -23 -12 8 -41 -21 -41 -40 0 -8 7 -17 16 -21 9 -3 13 -12 9 -21 -5 -13 5 -14 75 -9 l80 6 0 -24 c0 -22 -5 -25 -34 -25 -18 0 -48 -3 -65 -6 -26 -5 -31 -11 -31 -34 0 -24 -5 -30 -31 -35 -19 -4 -33 -15 -36 -26 -4 -13 -14 -19 -34 -19 -17 0 -29 -5 -29 -12 0 -22 26 -110 49 -167 24 -60 22 -77 -5 -34 -19 29 -34 43 -46 43 -10 0 2 -31 20 -52 8 -10 12 -18 7 -18 -4 0 -2 -7 5 -15 7 -9 10 -19 6 -23 -10 -9 -46 35 -46 55 0 8 -6 13 -12 10 -7 -2 -12 -10 -10 -17 2 -7 0 -20 -4 -29 -4 -9 -8 -20 -8 -26 -1 -5 -13 -9 -28 -7 -27 3 -46 -12 -28 -23 12 -7 14 -45 3 -45 -5 0 -18 -3 -29 -6 -16 -4 -23 0 -27 15 -3 12 -12 21 -21 21 -19 0 -20 -5 -6 -30 6 -11 6 -28 2 -41 -10 -26 -16 -19 -31 39 -9 31 -17 42 -31 42 -10 0 -22 -4 -25 -10 -3 -5 -15 -10 -26 -10 -11 0 -22 -7 -25 -15 -11 -27 -24 -15 -17 16 5 27 3 31 -13 27 -11 -2 -23 -16 -29 -36 -9 -32 -19 -37 -49 -26 -20 8 -21 24 -1 24 21 0 29 25 16 47 -10 17 -10 17 -11 1 0 -10 -6 -18 -14 -18 -8 0 -21 -3 -30 -6 -11 -4 -16 -1 -16 10 0 9 -5 16 -10 16 -6 0 -4 10 4 23 11 16 12 26 5 37 -8 12 -12 12 -16 2 -4 -10 -8 -10 -19 -1 -7 6 -19 9 -26 6 -8 -4 -7 -6 5 -6 9 -1 17 -8 17 -16 0 -17 -16 -20 -25 -5 -13 20 -27 10 -21 -15 4 -14 2 -25 -4 -25 -5 0 -10 5 -10 11 0 8 -5 8 -15 -1 -8 -7 -26 -10 -39 -8 -15 3 -27 0 -30 -8 -3 -8 -10 -14 -16 -14 -18 0 -11 32 16 67 l25 33 -25 -11 c-27 -13 -61 -5 -51 11 3 5 -1 10 -10 10 -11 0 -15 -7 -13 -21 2 -15 -5 -24 -29 -34 -37 -16 -43 -7 -13 20 14 13 17 22 10 30 -7 9 -6 16 5 25 11 9 12 15 5 20 -8 5 -8 15 0 34 8 21 7 31 -4 42 -26 25 -44 12 -37 -28 0 -5 -6 -8 -14 -8 -8 0 -15 -5 -15 -11 0 -6 -7 -3 -15 5 -9 9 -24 20 -33 25 -15 9 -15 11 2 30 11 12 29 21 41 21 21 0 42 26 31 37 -3 3 -28 0 -56 -6 -61 -13 -100 -14 -100 -3 0 14 51 33 71 27 11 -4 19 -2 19 5 0 6 10 8 24 4 13 -3 27 -1 30 5 4 6 1 11 -6 11 -9 1 -7 5 5 14 9 7 17 20 17 29 0 9 9 21 20 27 11 6 18 15 15 20 -3 5 -1 12 5 15 17 10 -8 35 -36 35 -27 0 -40 16 -19 24 22 8 18 43 -5 56 -11 6 -20 19 -20 30 0 10 -5 22 -11 26 -7 4 -9 0 -5 -14 8 -24 -2 -32 -28 -22 -14 4 -16 9 -8 14 21 13 13 40 -28 90 -35 42 -52 86 -34 86 3 0 36 -32 71 -70 64 -69 106 -100 136 -100 20 0 16 53 -6 77 -9 11 -17 27 -17 36 0 24 27 21 40 -4 9 -17 14 -18 26 -8 13 11 9 18 -28 50 -32 29 -38 38 -25 39 11 0 32 -9 47 -20 16 -11 35 -17 44 -14 9 3 30 1 47 -6 43 -18 47 -5 10 29 -18 17 -30 35 -26 41 3 5 -1 10 -9 10 -24 0 -30 21 -8 27 13 3 18 11 15 19 -11 29 19 12 73 -41 31 -30 60 -55 65 -55 5 0 9 16 9 35 0 28 4 35 20 35 12 0 20 7 20 16 0 23 24 11 28 -14 2 -12 9 -22 16 -22 8 0 11 10 8 30 -5 34 3 37 31 13 19 -18 19 -17 13 14 -7 30 -6 31 26 30 29 -2 33 -5 33 -29 -1 -16 2 -28 6 -28 4 0 9 -10 11 -22 2 -13 15 -27 34 -34 l32 -13 19 51 c11 29 26 54 33 56 9 3 11 -1 6 -14 -4 -11 -10 -32 -13 -49 l-5 -30 25 30 c14 17 28 43 31 59 5 23 10 27 27 23 15 -4 23 1 31 18 14 30 40 37 52 13 7 -14 0 -27 -31 -61z"/>
 <path d="M5483 2693 c4 -3 10 -3 14 0 3 4 0 7 -7 7 -7 0 -10 -3 -7 -7z"/>
 <path d="M5888 2623 c7 -3 16 -2 19 1 4 3 -2 6 -13 5 -11 0 -14 -3 -6 -6z"/>
 <path d="M5983 2623 c9 -2 17 -9 17 -14 0 -5 10 -9 23 -9 20 0 20 1 -7 15 -15 8 -33 14 -40 14 -6 -1 -3 -3 7 -6z"/>
 </g>

</svg>