<?xml version="1.0" encoding="UTF-8" standalone="no"?>
<!-- Created with Inkscape (http://www.inkscape.org/) -->

<svg
   xmlns:dc="http://purl.org/dc/elements/1.1/"
   xmlns:cc="http://creativecommons.org/ns#"
   xmlns:rdf="http://www.w3.org/1999/02/22-rdf-syntax-ns#"
   xmlns:svg="http://www.w3.org/2000/svg"
   xmlns="http://www.w3.org/2000/svg"
   xmlns:sodipodi="http://sodipodi.sourceforge.net/DTD/sodipodi-0.dtd"
   xmlns:inkscape="http://www.inkscape.org/namespaces/inkscape"
   version="1.1"
   id="svg10"
   width="200"
   height="200"
   viewBox="0 0 200 200"
   sodipodi:docname="Trustee2.svg"
   inkscape:version="0.92.2 (5c3e80d, 2017-08-06)">
  <metadata
     id="metadata16">
    <rdf:RDF>
      <cc:Work
         rdf:about="">
        <dc:format>image/svg+xml</dc:format>
        <dc:type
           rdf:resource="http://purl.org/dc/dcmitype/StillImage" />
        <dc:title></dc:title>
      </cc:Work>
    </rdf:RDF>
  </metadata>
  <defs
     id="defs14" />
  <sodipodi:namedview
     pagecolor="#ffffff"
     bordercolor="#666666"
     borderopacity="1"
     objecttolerance="10"
     gridtolerance="10"
     guidetolerance="10"
     inkscape:pageopacity="0"
     inkscape:pageshadow="2"
     inkscape:window-width="640"
     inkscape:window-height="480"
     id="namedview12"
     showgrid="false"
     showguides="false"
     inkscape:zoom="1.18"
     inkscape:cx="100"
     inkscape:cy="100"
     inkscape:window-x="0"
     inkscape:window-y="0"
     inkscape:window-maximized="0"
     inkscape:current-layer="svg10" />
  <path
     inkscape:connector-curvature="0"
     id="path58"
     d="M 0.84745766,99.694915 V -0.3050847 H 100.84746 h 100 V 99.694915 199.69492 h -100 H 0.84745766 Z"
     style="fill:#fdfcfc" />
  <path
     inkscape:connector-curvature="0"
     id="path56"
     d="m 14.34684,195.44492 c 0.371348,-2.3375 2.005914,-7.18639 3.63237,-10.77531 3.397004,-7.49579 7.01521,-9.9982 17.368248,-12.01216 9.391095,-1.82682 35.861714,-10.84491 37.253747,-12.6917 1.90556,-2.52809 3.071992,-0.55878 4.141291,6.99183 0.780699,5.51273 5.683966,24.45637 6.608784,25.53286 0.139635,0.16253 1.641566,-2.16332 3.337624,-5.16857 1.696058,-3.00525 4.90143,-7.37488 7.123049,-9.71029 2.221619,-2.3354 3.925952,-4.35701 3.787406,-4.49246 -0.138545,-0.13545 -3.392812,-2.02668 -7.231704,-4.20273 -9.005325,-5.10462 -10.53557,-7.25174 -11.512774,-16.15385 -0.433606,-3.95005 -0.95016,-7.32439 -1.147898,-7.49854 -0.197739,-0.17415 -2.609525,-2.24382 -5.359525,-4.59928 -7.046845,-6.03584 -9.299372,-9.4616 -10.613605,-16.14171 -0.980998,-4.98632 -1.46372,-5.82809 -3.342186,-5.82809 -2.782259,0 -6.191038,-3.60828 -7.085331,-7.5 -0.37916,-1.65 -2.400496,-6.17385 -4.491858,-10.05299 -5.898805,-10.941357 -6.179907,-17.322939 -0.84991,-19.294633 1.785588,-0.660532 2.020854,-1.842501 2.32756,-11.693594 0.544922,-17.502355 5.628074,-29.842793 15.200309,-36.902002 2.279739,-1.681232 6.329739,-4.721117 9,-6.755299 7.552931,-5.753758 14.348143,-8.026529 25.613267,-8.56678 14.514026,-0.696061 23.967076,2.344685 34.755866,11.17986 3.01724,2.470881 6.94524,5.679991 8.7289,7.131357 3.55281,2.890932 8.29209,12.120468 10.24624,19.954076 0.686,2.75 1.36617,9.470503 1.51148,14.93445 0.24209,9.102933 0.44266,10.000465 2.39628,10.723156 1.17265,0.433789 2.5559,1.903428 3.07389,3.265864 1.2182,3.204096 -0.82392,11.302919 -3.80593,15.093935 -1.2104,1.53877 -2.91865,5.31436 -3.79611,8.39018 -1.82258,6.38881 -4.72644,10.09242 -7.91307,10.09242 -1.87847,0 -2.36119,0.84177 -3.34219,5.82809 -1.31277,6.67268 -3.55639,10.08901 -10.6136,16.16112 -4.98092,4.28564 -6.69937,6.94642 -6.41784,9.93709 0.8824,9.37343 -2.01092,13.6464 -12.73575,18.80864 l -7.28266,3.50541 4.40256,4.2788 c 2.42141,2.35334 5.85482,6.85206 7.6298,9.99716 l 3.22725,5.71836 2.87583,-9.36734 c 1.58171,-5.15203 3.32194,-12.50781 3.86717,-16.34618 1.10777,-7.79853 2.26009,-9.79731 4.17989,-7.25032 1.39204,1.84679 27.86266,10.86488 37.25375,12.6917 10.35304,2.01396 13.97124,4.51637 17.36825,12.01216 1.62645,3.58892 3.26102,8.43781 3.63237,10.77531 l 0.67518,4.25 h -35.65529 c -35.56294,0 -35.65359,-0.005 -35.00053,-2.06296 0.63048,-1.98645 -2.66718,-9.79312 -6.06934,-14.3682 -1.40484,-1.88918 -1.49203,-1.87859 -4.01017,0.48708 -2.08165,1.95561 -2.46566,3.04247 -2.00728,5.68116 0.31174,1.79461 0.84189,4.83792 1.1781,6.76292 l 0.61129,3.5 h -7.178679 c -6.353055,0 -7.123465,-0.20127 -6.698606,-1.75 2.705195,-9.8612 2.889716,-12.35746 1.018082,-13.773 -2.643263,-1.99913 -3.419212,-1.49882 -7.136196,4.60118 -2.370611,3.89045 -3.158766,6.19855 -2.790462,8.17182 l 0.513279,2.75 H 49.23456 13.671662 Z M 75.047458,92.494915 c -0.66,-0.66 -1.2,-2.283145 -1.2,-3.606989 0,-1.784016 -0.409395,-2.249889 -1.581787,-1.8 -0.869984,0.333844 -1.98086,0.606989 -2.468616,0.606989 -1.692753,0 0.301776,3.068109 2.918977,4.490152 3.265525,1.774307 3.877174,1.855596 2.331426,0.309848 z m 12.8,-0.677555 c 0,-0.482656 -0.620036,-1.39214 -1.377857,-2.021076 -1.082601,-0.898478 -1.491113,-0.710429 -1.906381,0.877556 -0.393867,1.50615 -0.04282,2.021075 1.377858,2.021075 1.048509,0 1.90638,-0.3949 1.90638,-0.877555 z m 29.304222,-1.067117 c -0.42123,-1.610794 -0.82328,-1.748119 -2.3417,-0.799849 -2.14659,1.340565 -1.63357,2.744521 1.00288,2.744521 1.33751,0 1.70701,-0.536705 1.33882,-1.944672 z m 13.25103,-0.116378 c 1.5963,-1.76389 1.65469,-2.194218 0.40499,-2.984687 -2.27883,-1.441419 -2.70175,-1.168795 -3.17355,2.045737 -0.51737,3.525074 0.2061,3.770437 2.76856,0.93895 z"
     style="fill:#ebc3b8" />
  <path
     inkscape:connector-curvature="0"
     id="path54"
     d="m 13.847458,199.24414 c 0,-2.67488 2.754941,-12.0542 4.639801,-15.79641 2.951384,-5.85969 7.641799,-8.90402 16.360199,-10.61864 10.315172,-2.02865 36.891796,-11.12018 37.941223,-12.97922 1.567116,-2.77611 2.992091,-0.11078 3.955047,7.39769 0.490047,3.82105 2.51386,12.50094 4.497362,19.28865 1.983502,6.78771 3.606368,12.52521 3.606368,12.75 0,0.22479 -15.975,0.40871 -35.5,0.40871 -19.525,0 -35.5,-0.20285 -35.5,-0.45078 z m 79.538852,-1.29922 c 0.193387,-0.9625 0.87195,-4.11587 1.507917,-7.00749 1.088088,-4.94732 1.02447,-5.36424 -1.078352,-7.067 -1.856923,-1.50365 -2.046932,-2.16029 -1.124079,-3.88465 1.240786,-2.31843 6.826628,-7.29086 8.190284,-7.29086 0.48464,0 2.77909,1.80545 5.09877,4.01211 l 4.2176,4.0121 -2.82205,2.94558 c -2.76548,2.88654 -2.79906,3.06 -1.67549,8.65468 0.6306,3.14 1.14655,6.08404 1.14655,6.54231 0,0.45827 -3.10787,0.83322 -6.906382,0.83322 -6.044787,0 -6.862516,-0.21832 -6.554768,-1.75 z m 23.46115,1.34129 c 0,-0.22479 1.57225,-5.81897 3.4939,-12.4315 1.92164,-6.61253 3.95962,-15.30659 4.52884,-19.32013 1.11458,-7.85882 2.47526,-10.44959 4.03604,-7.68471 1.04942,1.85904 27.62605,10.95057 37.94122,12.97922 3.575,0.70308 8.18056,2.31178 10.23458,3.57489 4.1389,2.5452 8.18884,9.46751 9.27089,15.84617 0.36804,2.16962 0.8852,4.73227 1.14924,5.69477 0.45068,1.64286 -1.6974,1.75 -35.08732,1.75 -19.56207,0 -35.56739,-0.18392 -35.56739,-0.40871 z M 91.840984,161.76058 c -8.198517,-2.49388 -12.993335,-6.86823 -12.994082,-11.85462 -4.95e-4,-3.30499 -0.713019,-4.34817 -6.512039,-9.53398 -7.195672,-6.43478 -8.636681,-8.69936 -10.452956,-16.42706 -0.913064,-3.88481 -1.692998,-5.25 -2.999331,-5.25 -3.376595,0 -6.790362,-3.81128 -8.025533,-8.96005 -0.656355,-2.73599 -2.47682,-6.91218 -4.045479,-9.28042 -5.475359,-8.266293 -5.726482,-17.028119 -0.525457,-18.333493 2.403025,-0.603121 2.484376,-0.869217 1.919301,-6.277929 -1.154048,-11.046158 2.680541,-26.983356 8.54226,-35.503073 3.042892,-4.422692 5.510261,-6.48473 17.525722,-14.646654 17.796499,-12.088897 41.99506,-10.179698 60.14837,4.74554 1.84369,1.515841 4.63913,3.736892 6.21208,4.93567 3.69729,2.817774 8.73994,12.326177 10.83652,20.433305 0.9524,3.682767 1.677,10.515302 1.71137,16.137099 0.0406,6.637086 0.42615,9.75 1.20768,9.75 2.19457,0 4.45805,3.678838 4.45805,7.245688 0,2.201955 -1.40112,6.228057 -3.6267,10.421259 -1.99469,3.758188 -4.25713,8.953758 -5.02766,11.545728 -1.40589,4.72929 -4.33869,7.78733 -7.46841,7.78733 -1.2006,0 -2.02868,1.4931 -2.91168,5.25 -1.81627,7.7277 -3.25728,9.99228 -10.45295,16.42706 -6.46173,5.77844 -6.51149,5.86339 -6.51204,11.11678 -3.9e-4,3.70852 -0.37489,5.21503 -1.25056,5.03069 -0.6875,-0.14474 -2.49159,0.56497 -4.00908,1.57712 -1.5175,1.01215 -4.4425,2.44109 -6.5,3.17542 -4.03958,1.44174 -15.183942,1.72464 -19.247396,0.48859 z m 20.584176,-11.34099 c 5.51288,-2.86209 20.87798,-16.28401 22.6642,-19.79793 2.17121,-4.27129 9.01348,-31.818848 8.33945,-33.575335 -0.27259,-0.710365 0.47663,-5.574986 1.66493,-10.810271 l 2.16055,-9.518698 -2.32484,-13.761221 C 141.05976,40.050607 138.28872,34.50494 126.95164,26.977207 112.67018,17.494435 90.275836,17.056491 76.170437,25.98413 63.873741,33.766998 61.054468,38.940306 57.149729,60.886736 l -2.689488,15.116158 1.858312,8.596011 c 1.022071,4.727805 1.830089,9.72101 1.795594,11.09601 -0.107507,4.28536 6.899452,32.332305 8.920032,35.704455 1.533169,2.55871 10.429204,10.55247 19.553803,17.57057 5.029885,3.86869 19.602748,4.68633 25.837178,1.44965 z M 98.347458,135.69492 c -0.360575,-0.58342 0.656282,-1 2.440982,-1 1.68246,0 3.05902,0.45 3.05902,1 0,0.55 -1.09844,1 -2.44098,1 -1.34255,0 -2.719103,-0.45 -3.059022,-1 z m 12.000002,-2.92325 c -3.92631,-1.56361 -16.553203,-2.27749 -18.066664,-1.02143 -0.96952,0.80463 -1.433338,0.83774 -1.433338,0.10231 0,-3.52144 13.252402,-3.56238 20.000002,-0.0618 3.52774,1.83016 3.20794,2.45755 -0.5,0.98091 z M 97.597458,116.21128 c -1.5125,-1.33123 -2.75,-2.67332 -2.75,-2.98242 0,-0.8722 4.434253,-7.50764 5.026426,-7.52156 0.289536,-0.007 0.354766,1.78762 0.144966,3.98762 -0.374887,3.93105 -0.324931,4 2.89789,4 h 3.27935 l -2.34863,2.5 c -2.84694,3.03043 -2.8256,3.03037 -6.250002,0.0164 z m -26.25,-22.671097 c -5.379768,-2.942505 -6.067248,-7.983452 -1.41675,-10.388318 4.429768,-2.290722 18.959042,-1.633639 21.85642,0.988452 2.487063,2.250761 2.637313,4.834758 0.410598,7.061472 -1.532975,1.532976 -1.829838,1.455495 -4.194594,-1.094788 -1.872619,-2.019536 -2.661233,-2.370417 -2.985396,-1.328303 -0.242293,0.778919 -0.81016,2.137574 -1.261926,3.019234 -0.67024,1.308028 -0.323337,1.541473 1.885127,1.26858 l 2.706521,-0.334436 -2.5,0.88174 c -3.568447,1.258576 -12.143946,1.215028 -14.5,-0.07363 z m 3.504769,-1.339522 c -0.682066,-0.821839 -1.024569,-2.621839 -0.761117,-4 0.515284,-2.695531 -1.35039,-3.363298 -4.243652,-1.5189 -1.88939,1.204449 -0.413856,3.942199 3.098156,5.748412 3.12416,1.606742 3.402737,1.573208 1.906613,-0.229512 z m 39.995233,1.419014 c -2.325,-0.814569 -2.28003,-0.85582 0.64246,-0.589297 3.01923,0.275346 3.09952,0.186162 2.04752,-2.27444 -1.61968,-3.788354 -1.67914,-3.798903 -4.12974,-0.732571 -2.10058,2.628377 -2.37719,2.711745 -3.91036,1.178571 -0.90743,-0.907434 -1.64988,-2.485594 -1.64988,-3.507023 0,-2.068694 2.50401,-4.983517 4.32143,-5.030409 0.64821,-0.01672 0.39107,-0.489085 -0.57143,-1.04969 -2.48074,-1.444898 -2.18861,-4.560653 0.5,-5.332919 1.2375,-0.355454 8.1,-0.887744 15.25,-1.182866 11.55854,-0.477089 12.79869,-0.373105 11.18448,0.937799 -1.8538,1.505479 -16.83248,4.663796 -22.10115,4.66012 -1.60416,-0.0011 -2.61519,0.299434 -2.24673,0.667897 0.36846,0.368462 3.93096,0.642156 7.91667,0.608208 12.12649,-0.103287 15.93092,3.691512 9.82365,9.798783 -2.59557,2.595578 -3.57592,2.911909 -8.75,2.823397 -3.2048,-0.05482 -6.95192,-0.493826 -8.32692,-0.97556 z m 17.41269,-4.557825 c 0.70175,-1.828732 -0.87298,-3.326429 -3.52402,-3.351622 -1.18283,-0.01124 -1.48395,0.651036 -1.13232,2.490433 0.26345,1.378161 -0.13645,3.247699 -0.88867,4.154529 -1.26892,1.529724 -1.14175,1.531979 1.76114,0.03124 1.72085,-0.889649 3.42359,-2.38571 3.78387,-3.32458 z M 85.847458,81.04346 C 72.654547,79.042934 64.715075,77.294274 63.183325,76.05171 c -1.640769,-1.331 -0.454351,-1.432242 11.164133,-0.952679 14.945305,0.61688 17.5,1.143224 17.5,3.605527 0,1.389108 -2.498106,3.52911 -3.331787,2.854175 -0.09252,-0.0749 -1.293213,-0.306773 -2.668213,-0.515273 z m -26.58588,32.90146 c -0.343191,-1.5125 -1.814264,-3.81189 -3.269052,-5.10975 -1.454787,-1.29786 -2.129721,-2.08794 -1.499853,-1.75574 0.629869,0.3322 1.38659,-0.025 1.681603,-0.7938 0.721233,-1.8795 -0.314376,-5.59071 -1.560081,-5.59071 -0.55,0 -0.764482,-0.900625 -0.476627,-2.001385 0.309158,-1.182224 0.11659,-1.749975 -0.470487,-1.387141 -0.546622,0.337831 -0.760435,1.506856 -0.475138,2.597831 0.683234,2.612695 -0.266552,4.956895 -1.659542,4.095975 -0.608018,-0.37577 -0.110089,1.00385 1.106509,3.06583 1.216598,2.06198 1.761221,3.47046 1.210272,3.12996 -1.542529,-0.95334 -1.186492,1.79012 0.55498,4.27642 0.856187,1.22238 2.439761,2.22251 3.519052,2.22251 1.625345,0 1.855189,-0.47227 1.338364,-2.75 z m -5.71179,-9.91667 c 0.281406,-0.73333 0.640358,-1.33333 0.79767,-1.33333 0.157312,0 0.516264,0.6 0.79767,1.33333 0.281407,0.73334 -0.07754,1.33334 -0.79767,1.33334 -0.720125,0 -1.079077,-0.6 -0.79767,-1.33334 z m 91.897972,11.90136 c 1.73409,-1.15789 3.55644,-5.17206 2.85975,-6.29933 -0.34784,-0.56282 0.0814,-2.11269 0.95375,-3.44415 0.87241,-1.33147 1.57931,-2.77418 1.57089,-3.20603 -0.008,-0.43185 -0.45153,-0.11018 -0.98469,0.71482 -0.72257,1.11809 -0.97327,0.56026 -0.98469,-2.19098 -0.008,-2.030049 -0.4225,-3.94265 -0.92018,-4.250234 -0.51217,-0.316533 -0.67957,1.120576 -0.38572,3.311344 0.28553,2.12882 0.0827,4.1403 -0.45067,4.46996 -0.56572,0.34964 -0.81277,-0.53387 -0.5929,-2.12035 0.36718,-2.64947 0.35048,-2.65922 -0.6464,-0.37739 -1.09164,2.49875 -0.49105,4.56715 1.04966,3.61494 1.92613,-1.19041 0.83493,1.04922 -1.46417,3.00515 -4.2213,3.5912 -4.22541,9.59053 -0.005,6.77225 z M 49.530572,97.507415 c -0.319226,-0.797733 -0.556183,-0.560776 -0.604167,0.604167 -0.04342,1.054166 0.192928,1.644793 0.52522,1.3125 0.332291,-0.332292 0.367818,-1.194792 0.07895,-1.916667 z m 101.964288,-4.0625 -0.60261,-3.25 1.50574,2.5 c 1.45383,2.413818 1.49615,2.318997 1.22761,-2.750622 -0.2182,-4.119134 0.0451,-5.253787 1.22186,-5.265312 1.3127,-0.01286 1.31631,-0.130859 0.029,-0.945006 -1.74683,-1.104731 -1.96879,-0.947809 -2.4904,1.760736 -0.2193,1.138725 -0.89108,2.99038 -1.49285,4.114787 -0.60176,1.124408 -0.80944,3.178612 -0.4615,4.564898 0.92147,3.671449 1.7711,3.088496 1.06319,-0.729481 z M 50.159115,88.448674 c -0.233775,-0.410432 -0.61042,-1.70882 -0.836991,-2.885306 -0.535803,-2.782206 -0.749781,-2.938559 -2.503626,-1.829393 -1.287347,0.814144 -1.283731,0.932056 0.02896,0.944264 1.184819,0.01102 1.451653,1.222431 1.269909,5.765313 l -0.230091,5.751363 1.348441,-3.5 c 0.741643,-1.925 1.157172,-3.835808 0.923398,-4.246241 z m 1.657717,3.246241 c 0,-1.333333 -0.107708,-1.333333 -0.969374,0 -0.533156,0.825 -0.969374,2.175 -0.969374,3 0,1.333333 0.107708,1.333333 0.969374,0 0.533156,-0.825 0.969374,-2.175 0.969374,-3 z"
     style="fill:#dcaa9c" />
  <path
     inkscape:connector-curvature="0"
     id="path52"
     d="m 14.192752,197.94492 c 0.264037,-0.9625 0.781196,-3.52515 1.14924,-5.69477 1.033007,-6.08959 5.044591,-13.10727 8.829984,-15.44678 1.867697,-1.1543 8.888282,-3.48104 15.6013,-5.17053 14.97324,-3.76839 31.16512,-9.49472 32.757647,-11.5849 1.904351,-2.49945 3.005727,-0.81684 3.745534,5.72219 0.380817,3.36598 1.848393,10.01355 3.26128,14.77238 1.412887,4.75882 3.144983,11.01491 3.849103,13.90241 l 1.280217,5.25 H 49.18987 c -33.304014,0 -35.44778,-0.1072 -34.997118,-1.75 z m 80.260532,-4.37322 c 0.785648,-3.36777 1.648056,-6.47855 1.916463,-6.91284 0.268406,-0.43429 -0.698677,-1.65407 -2.149074,-2.71061 -2.526522,-1.84044 -2.569332,-2.02438 -1.021076,-4.38732 0.888806,-1.35649 2.913653,-3.42573 4.499662,-4.59832 l 2.883651,-2.13198 3.56095,2.41973 c 4.71505,3.20396 5.67133,6.24252 2.71739,8.63448 -1.96651,1.59238 -2.15657,2.39429 -1.55527,6.56207 0.37675,2.61141 0.9265,5.76051 1.22165,6.99801 0.51771,2.17062 0.28897,2.25 -6.48308,2.25 h -7.019717 z m 23.854796,0.87322 c 0.70412,-2.8875 2.41114,-9.075 3.79339,-13.75 1.38224,-4.675 2.83483,-11.31331 3.22798,-14.75179 0.76027,-6.64952 1.91142,-8.41928 3.83454,-5.89519 1.59253,2.09018 17.78441,7.81651 32.75765,11.5849 6.71302,1.68949 13.7336,4.01623 15.6013,5.17053 3.78539,2.33951 7.79698,9.35719 8.82999,15.44678 0.36804,2.16962 0.8852,4.73227 1.14924,5.69477 0.45066,1.6428 -1.69311,1.75 -34.99712,1.75 h -35.47719 z m 3.53938,-38.82615 c 0,-0.71152 -3.64243,-1.02124 -10.75,-0.91407 -25.737232,0.38808 -31.504682,0.0963 -30.868445,-1.56172 0.341496,-0.88992 0.173849,-1.29132 -0.393011,-0.94098 -0.572394,0.35376 -0.988546,-0.73044 -0.988546,-2.57544 0,-2.64758 -1.243909,-4.39082 -7.356122,-10.30902 -6.959515,-6.7386 -7.448908,-7.50677 -9.077086,-14.24762 -1.544946,-6.39626 -1.968463,-7.125 -4.1408,-7.125 -3.50194,0 -5.229955,-1.85078 -6.863321,-7.35092 -0.794002,-2.67369 -3.045423,-7.72552 -5.003156,-11.226277 -4.624295,-8.269012 -4.907752,-13.992023 -0.809515,-16.344161 2.705865,-1.553002 2.75122,-1.740832 2.826026,-11.70349 0.08582,-11.429352 1.866737,-18.855871 6.711271,-27.986352 2.582118,-4.866512 4.764359,-7.098328 12.858916,-13.151039 12.585687,-9.410956 19.547323,-11.941285 32.853789,-11.941285 13.30646,0 20.2681,2.530329 32.85379,11.941285 8.08902,6.048572 10.27933,8.287855 12.86343,13.151039 4.4711,8.414466 6.47663,17.235805 6.45363,28.386312 -0.0196,9.487741 -0.008,9.531704 2.90475,11.20349 2.38147,1.366776 2.9244,2.347753 2.9244,5.2839 0,1.98304 -0.40803,3.353348 -0.90674,3.04513 -0.49871,-0.308218 -0.68326,0.294219 -0.4101,1.338751 0.57451,2.196941 -1.38128,6.408216 -2.62043,5.642382 -0.46031,-0.284485 -0.78836,0.04041 -0.72901,0.721992 0.0594,0.681581 -0.62695,2.814243 -1.52512,4.739243 -0.89818,1.925 -2.37672,5.61643 -3.28565,8.20319 -1.56992,4.46785 -4.07253,6.55596 -7.1608,5.97478 -0.64435,-0.12126 -1.89946,2.93813 -2.89388,7.05395 -1.66874,6.90683 -2.12048,7.62097 -9.08847,14.36792 -7.12733,6.90124 -7.33753,7.24391 -7.51472,12.25 -0.10025,2.83259 -0.33591,5.15016 -0.52368,5.15016 -0.18777,0 -0.3414,-0.48427 -0.3414,-1.07615 z m -9.47302,-4.37068 c 4.10689,-1.71596 16.70171,-11.77172 21.29155,-16.99927 1.73391,-1.97482 3.42081,-4.81983 3.74866,-6.32224 0.32785,-1.50241 2.27612,-9.03166 4.32947,-16.73166 2.85482,-10.70544 3.42378,-14.07612 2.41774,-14.323448 -1.397,-0.343446 -1.23232,-1.697924 1.28972,-10.608058 1.88766,-6.668915 1.76103,-11.578001 -0.65431,-25.365439 -3.20829,-18.313894 -5.09725,-23.106628 -11.48982,-29.152452 -6.61266,-6.253986 -15.51537,-10.57017 -25.20999,-12.222232 -13.896915,-2.368177 -29.293426,2.370674 -39.709996,12.222232 -6.392568,6.045824 -8.281522,10.838558 -11.489819,29.152452 -2.415336,13.787438 -2.541968,18.696524 -0.654309,25.365439 2.52853,8.933053 2.688626,10.26436 1.275671,10.608058 -1.02477,0.249272 -0.47259,3.533868 2.407947,14.323448 2.0557,7.7 4.010283,15.22925 4.343519,16.73166 0.333236,1.50241 2.024541,4.34742 3.758457,6.32224 3.474089,3.95677 16.056845,14.46536 19.508797,16.29294 6.23887,3.30305 17.832763,3.63277 24.836713,0.70633 z M 92.750782,130.38771 c 0.446105,-0.44397 3.237854,-0.66262 6.203888,-0.4859 l 5.39279,0.32132 -6.203889,0.48589 c -3.412139,0.26725 -5.838893,0.12265 -5.392789,-0.32131 z m 12.654318,0.40047 c -0.30822,-0.49871 0.34022,-0.67122 1.44098,-0.38337 2.33499,0.61061 2.63015,1.29011 0.5604,1.29011 -0.79254,0 -1.69316,-0.40803 -2.00138,-0.90674 z m -8.334788,-15.35604 -2.125773,-2.26278 2.049661,-3.23722 c 1.127313,-1.78047 2.220157,-3.23722 2.428541,-3.23722 0.208384,0 0.303241,1.6875 0.210794,3.75 -0.09245,2.0625 0.191012,4.5375 0.629905,5.5 1.12649,2.47037 -0.660138,2.18346 -3.193128,-0.51278 z M 72.847458,94.011566 c -2.935408,-1.117828 -6,-4.701212 -6,-7.015716 0,-5.816187 14.560251,-5.858295 20.75,-0.06001 1.2375,1.159236 2.25,2.754114 2.25,3.544172 0,0.926665 -0.679253,0.598624 -1.91392,-0.924314 -2.198594,-2.711923 -3.074423,-2.266699 -3.499627,1.77902 -0.282208,2.685141 -0.600072,2.872065 -5.193529,3.054127 -2.691108,0.106664 -5.567924,-0.06311 -6.392924,-0.377279 z m 2.004769,-1.810905 c -0.682066,-0.821839 -1.024569,-2.621839 -0.761117,-4 0.403282,-2.109629 0.100756,-2.505746 -1.913709,-2.505746 -3.653435,0 -4.137535,2.908588 -0.941638,5.657583 3.067843,2.638847 5.594365,3.231389 3.616464,0.848163 z m 43.159273,1.744254 c 0.31563,-1.443087 -1.38852,-6.25 -2.21574,-6.25 -0.45919,0 -1.46327,0.897137 -2.23129,1.993639 -1.72541,2.463369 -3.03673,1.472281 -1.60114,-1.210136 2.6648,-4.979233 16.42647,-7.594183 20.90038,-3.971429 4.80757,3.892933 -1.52745,10.177311 -10.26625,10.184188 -2.6125,0.0021 -4.67618,-0.333762 -4.58596,-0.746262 z m 13.48656,-3.839497 c 0.83698,-1.277403 1.23145,-2.79234 0.87658,-3.366527 -0.87009,-1.407837 -5.23295,-1.329075 -6.12267,0.110532 -0.44208,0.7153 -0.27432,0.883063 0.44098,0.440984 1.53706,-0.949952 1.54632,3.612695 0.0105,5.148558 -0.85873,0.858734 -0.59328,1.000021 1.0644,0.566528 1.21465,-0.317638 2.89326,-1.622672 3.73025,-2.900075 z M 74.802217,79.171209 C 61.21362,76.669237 61.147099,75.827932 74.532358,75.758301 c 12.382481,-0.06441 17.80643,0.950186 17.068213,3.192767 -0.579122,1.75928 -7.916794,1.855439 -16.798354,0.220141 z m 35.491393,0.436574 c -1.59673,-2.583568 1.91666,-3.417381 15.35098,-3.643157 15.14482,-0.254523 15.2671,0.662539 0.43326,3.249343 -10.08254,1.758249 -14.86719,1.877625 -15.78424,0.393814 z M 57.511606,106.71316 c -1.383301,-5.06139 -2.77363,-9.461061 -3.089621,-9.777051 -1.004188,-1.004188 -1.855582,0.611381 -1.966813,3.732151 -0.127775,3.58495 -0.211689,3.63516 -1.633921,0.97769 -0.79997,-1.49476 -0.788131,-2.983567 0.04377,-5.504254 0.923865,-2.799339 0.825344,-4.403664 -0.518976,-8.451032 -1.808947,-5.44623 -2.172369,-5.701004 -5.057458,-3.545486 -1.906918,1.424703 -1.905383,1.441294 0.08709,0.941365 1.805435,-0.452999 2.025121,-0.03562 2,3.799737 -0.01552,2.369749 0.337576,5.624719 0.784661,7.233267 0.740868,2.665538 0.663685,2.80081 -0.871238,1.526937 -0.926266,-0.768733 -0.510992,0.331006 0.922832,2.443866 2.396198,3.531 4.616394,9.42057 4.629947,12.28199 0.0086,1.82537 5.203878,5.52428 6.266517,4.46164 0.557735,-0.55774 -0.06924,-4.53162 -1.596792,-10.12082 z m 91.569704,2.87503 c 0.95362,-2.9663 2.2601,-6.51827 2.9033,-7.89327 1.42864,-3.054077 1.75217,-4.99107 1.96252,-11.750005 0.12749,-4.096327 0.51905,-5.253365 1.78186,-5.265313 1.41023,-0.01334 1.42548,-0.140034 0.11847,-0.984687 -2.37885,-1.537333 -2.72279,-1.2618 -4.33643,3.473972 -1.0042,2.947166 -1.33462,6.313138 -0.96822,9.863242 0.3593,3.481281 0.15766,5.635601 -0.56956,6.085051 -0.75384,0.46589 -1.12579,-0.4801 -1.12579,-2.86324 0,-1.957467 -0.41807,-3.559025 -0.92904,-3.559025 -1.45293,0 -6.52605,18.454635 -5.52042,20.081775 1.29845,2.10094 4.96461,-1.84234 6.68331,-7.1885 z"
     style="fill:#c28875" />
  <path
     inkscape:connector-curvature="0"
     id="path50"
     d="m 14.464111,196.44492 c 2.770093,-15.88769 7.453492,-20.75766 23.383347,-24.31487 11.579815,-2.58583 32.162314,-9.59744 34.223373,-11.6585 1.017267,-1.01727 2.230069,-1.61442 2.695116,-1.32701 0.465047,0.28742 1.169108,3.56633 1.564582,7.28648 0.395473,3.72014 1.768681,10.1389 3.051574,14.2639 1.282892,4.125 2.994697,10.0875 3.804011,13.25 l 1.47148,5.75 H 49.277526 13.897458 Z m 79.383347,0.90893 c 0,-1.28759 0.629614,-4.43312 1.399142,-6.99006 1.378982,-4.58201 1.360972,-4.677 -1.25,-6.59244 l -2.649142,-1.94344 3.952948,-4.0665 c 2.174121,-2.23657 4.673346,-4.06649 5.553834,-4.06649 1.81039,0 7.99322,5.98766 7.99322,7.7409 0,0.63013 -0.95576,1.81513 -2.1239,2.63333 -1.86008,1.30285 -2.03749,2.08624 -1.42824,6.3067 0.38262,2.65049 0.93716,5.83157 1.23231,7.06907 0.5153,2.16049 0.27374,2.25 -6.07176,2.25 -6.26267,0 -6.608412,-0.12248 -6.608412,-2.34107 z m 24.661342,-3.40893 c 0.80932,-3.1625 2.52112,-9.125 3.80402,-13.25 1.28289,-4.125 2.6561,-10.54376 3.05157,-14.2639 0.76003,-7.14946 1.85449,-8.97199 3.7996,-6.32723 1.48481,2.01887 20.11542,8.57824 32.68347,11.50702 11.69099,2.72439 17.7237,5.58466 20.14396,9.55077 2.00041,3.27809 4.3321,10.07964 5.23939,15.28334 l 0.56665,3.25 H 152.41739 117.03732 Z M 98.597458,153.98919 c 1.2375,-0.23836 3.262502,-0.23836 4.500002,0 1.2375,0.23835 0.225,0.43337 -2.25,0.43337 -2.475002,0 -3.487502,-0.19502 -2.250002,-0.43337 z m -11.242921,-2.28282 c -0.350339,-0.56686 0.05106,-0.7345 0.940983,-0.39301 1.732417,0.66479 2.049387,1.38156 0.610955,1.38156 -0.517541,0 -1.215913,-0.44485 -1.551938,-0.98855 z m 24.492923,0.59554 c 0,-0.21616 0.69837,-0.661 1.55194,-0.98855 0.88992,-0.34149 1.29132,-0.17385 0.94098,0.39301 -0.58726,0.95021 -2.49292,1.40545 -2.49292,0.59554 z m 10.07895,-2.42508 -0.079,-3.3181 -3,2.13619 c -4.23276,3.01399 -3.73079,1.92201 0.78448,-1.70656 l 3.78448,-3.04129 -0.35695,3.62392 c -0.5042,5.11871 -1.04018,6.20947 -1.13306,2.30584 z m -43.156904,-2.30584 -0.49101,-3.62392 3.784481,3.04129 c 4.479573,3.59988 5.029905,4.72957 0.856258,1.75767 l -2.928224,-2.08508 -0.365248,2.26699 c -0.265837,1.64997 -0.498888,1.28064 -0.856257,-1.35695 z m -4.049603,-5.62607 c -1.243871,-1.58606 -1.208501,-1.62143 0.377555,-0.37756 1.665748,1.30637 2.195479,2.12756 1.372445,2.12756 -0.207656,0 -0.995156,-0.7875 -1.75,-1.75 z m 50.127557,1.37244 c 0,-0.20765 0.7875,-0.99515 1.75,-1.75 1.58606,-1.24387 1.62143,-1.2085 0.37756,0.37756 -1.30637,1.66575 -2.12756,2.19548 -2.12756,1.37244 z m -56.075688,-6.37244 -2.424314,-2.75 2.75,2.42431 c 2.570289,2.26589 3.208588,3.07569 2.424314,3.07569 -0.179127,0 -1.416627,-1.2375 -2.75,-2.75 z m 63.075688,0.25 c 1.29175,-1.375 2.57363,-2.5 2.84863,-2.5 0.275,0 -0.55688,1.125 -1.84863,2.5 -1.29175,1.375 -2.57363,2.5 -2.84863,2.5 -0.275,0 0.55688,-1.125 1.84863,-2.5 z M 62.926405,127.11159 c 0.04798,-1.16495 0.284941,-1.4019 0.604167,-0.60417 0.288871,0.72187 0.253344,1.58437 -0.07895,1.91667 -0.332292,0.33229 -0.568641,-0.25834 -0.52522,-1.3125 z m 75.000005,0 c 0.048,-1.16495 0.28494,-1.4019 0.60416,-0.60417 0.28887,0.72187 0.25335,1.58437 -0.0789,1.91667 -0.3323,0.33229 -0.56864,-0.25834 -0.52522,-1.3125 z m -77.514659,-9.12354 c -0.542685,-1.4252 -0.427821,-1.54006 0.559795,-0.5598 0.683418,0.67834 0.990671,1.48524 0.682784,1.79313 -0.307887,0.30789 -0.867048,-0.24711 -1.242579,-1.23333 z m 79.435709,0.76589 c 0,-0.51754 0.44485,-1.21592 0.98855,-1.55194 0.56686,-0.35034 0.7345,0.0511 0.39301,0.94098 -0.66479,1.73242 -1.38156,2.04939 -1.38156,0.61096 z m -42.193048,-3.31399 -2.693047,-2.24503 2.407825,-3.42038 2.407824,-3.42037 -0.573364,3.53322 c -0.31535,1.94327 -0.05867,4.49494 0.570406,5.67038 1.431564,2.67489 1.215994,2.66291 -2.119644,-0.11782 z m -38.728007,-4.32836 c 0.04798,-1.16495 0.284941,-1.4019 0.604167,-0.60417 0.288871,0.72187 0.253344,1.58437 -0.07895,1.91667 -0.332292,0.33229 -0.568641,-0.25834 -0.52522,-1.3125 z m 83.000005,0 c 0.048,-1.16495 0.28494,-1.4019 0.60416,-0.60417 0.28887,0.72187 0.25335,1.58437 -0.0789,1.91667 -0.3323,0.33229 -0.56864,-0.25834 -0.52522,-1.3125 z m 8.92105,-6.35765 c 0,-0.51754 0.44485,-1.21592 0.98855,-1.55194 0.56686,-0.35034 0.7345,0.0511 0.39301,0.94098 -0.66479,1.73242 -1.38156,2.04939 -1.38156,0.61096 z M 51.406973,96.6715 c 0.534368,-5.592382 -1.393585,-12.578441 -3.921906,-14.211272 -0.71893,-0.464298 -0.749574,-0.740323 -0.08326,-0.75 0.662512,-0.0096 1.072954,-3.63878 1.104413,-9.765313 0.09585,-18.666619 5.67148,-31.825086 16.841238,-39.74527 l 4,-2.836295 -2.696386,2.915782 c -4.253937,4.600068 -6.643571,11.230265 -9.407183,26.100851 -2.708007,14.571385 -2.765101,20.808867 -0.289441,31.621056 1.138932,4.974168 1.123851,5.933174 -0.105245,6.692797 -0.86588,0.535144 -1.923857,0.480684 -2.668562,-0.137367 -0.91715,-0.761167 -1.499268,-0.168902 -2.26767,2.307202 -0.907816,2.925359 -0.96947,2.658249 -0.505998,-2.192171 z m 93.519437,3.44009 c 0.048,-1.164951 0.28494,-1.401908 0.60416,-0.604175 0.28887,0.721875 0.25335,1.584375 -0.0789,1.916675 -0.3323,0.33229 -0.56864,-0.25834 -0.52522,-1.3125 z m 4.61697,-0.757596 c -0.47612,-1.734856 -1.28533,-2.646877 -2.07848,-2.34252 -0.71434,0.27412 -1.91869,0.11529 -2.67633,-0.352955 -1.1622,-0.718281 -1.16972,-1.758911 -0.0481,-6.65748 2.47566,-10.812189 2.41857,-17.049671 -0.28944,-31.621056 -2.76752,-14.891632 -5.16437,-21.532918 -9.40718,-26.065798 -2.45673,-2.62468 -2.25197,-2.562337 2.30361,0.701407 10.02296,7.180726 14.55702,17.998569 15.26853,36.429323 0.31383,8.129262 0.85278,12.260229 1.60219,12.280409 0.6211,0.01672 0.34178,0.489085 -0.62072,1.04969 -0.9625,0.560605 -1.75,1.694268 -1.75,2.519251 0,0.824983 -0.68866,2.831687 -1.53035,4.459341 -1.16732,2.25734 -1.2713,3.443407 -0.43835,4.999793 0.6006,1.122233 0.94626,3.255669 0.76814,4.740969 l -0.32386,2.700552 z m 3.90709,-0.492412 c -0.28327,-0.458334 0.12038,-0.833334 0.89699,-0.833334 0.77661,0 1.18026,0.375 0.89699,0.833334 -0.28326,0.458333 -0.68691,0.833333 -0.89699,0.833333 -0.21008,0 -0.61373,-0.375 -0.89699,-0.833333 z M 45.875436,94.268504 c -0.565388,-1.487084 -1.072834,-3.461993 -1.127658,-4.388689 -0.06158,-1.040965 -0.405726,-0.729451 -0.900471,0.8151 -0.639713,1.997131 -0.763947,1.648604 -0.617627,-1.732693 0.10074,-2.327981 0.618452,-4.577981 1.150471,-5 0.538716,-0.427332 0.635,-0.346385 0.217307,0.182693 -1.2027,1.52342 -0.8671,2.532166 0.648888,1.950427 1.062669,-0.407785 1.497879,0.741408 1.810756,4.781385 0.486383,6.280348 0.213913,7.062427 -1.181666,3.391777 z M 154.3229,94.694915 c 0.27349,-1.375 0.5034,-3.9625 0.51091,-5.75 0.008,-1.7875 0.46365,-3.25 1.01365,-3.25 1.46588,0 1.13645,5.036098 -0.55601,8.5 -1.29391,2.648212 -1.40749,2.706843 -0.96855,0.5 z M 71.124295,92.722196 c -3.156878,-1.924827 -5.084705,-5.911106 -3.835901,-7.931713 0.965857,-1.56279 7.0678,-2.396325 12.060984,-1.647551 4.383397,0.657331 10.49808,4.615632 10.49808,6.795864 0,0.588396 -0.784144,0.392679 -1.75,-0.436789 -2.65417,-2.279376 -4.68754,-3.324064 -3.858264,-1.982267 0.385414,0.623613 0.134339,2.155642 -0.557944,3.404508 -0.692283,1.248867 -1.163093,2.608167 -1.046244,3.020667 0.455194,1.606931 -8.415226,0.664676 -11.510711,-1.222719 z m 6.084787,-0.251179 c -0.274901,-0.444799 -0.886328,-0.569851 -1.358726,-0.277893 -1.177835,0.727942 -2.272745,-3.072637 -1.545401,-5.364294 0.497436,-1.567281 0.174826,-1.786285 -2.014758,-1.36772 -3.780563,0.722701 -4.247992,3.144405 -1.125359,5.830381 2.446787,2.104637 7.1878,3.02984 6.044244,1.179526 z m 43.138378,1.211887 c 1.95767,-0.852996 1.95384,-0.885341 -0.18083,-1.528256 -2.29882,-0.692354 -3.71075,-3.017124 -2.7634,-4.549975 1.04305,-1.68768 -0.90978,-0.925813 -3.24132,1.264556 -1.27295,1.195873 -2.31445,1.663403 -2.31445,1.038955 0,-3.799677 8.86573,-7.713937 15.72164,-6.941176 5.99096,0.675268 7.80099,2.486753 6.13602,6.140963 -1.62618,3.56907 -5.70545,5.604155 -11.058,5.516659 -3.34283,-0.05465 -3.85459,-0.264212 -2.29966,-0.941726 z m 10.11932,-2.516398 c 2.99636,-2.996367 2.72845,-4.600968 -0.93164,-5.579826 -2.43542,-0.651333 -2.62847,-0.50402 -2.0998,1.602338 0.3202,1.275789 0.0781,3.261529 -0.53803,4.412756 -1.5901,2.971116 0.40656,2.72764 3.56947,-0.435268 z m -3.61932,-3.412574 c 0,-0.517541 -0.45,-1.219098 -1,-1.559017 -0.55,-0.339919 -1,0.08352 -1,0.940983 0,0.857459 0.45,1.559017 1,1.559017 0.55,0 1,-0.423442 1,-0.940983 z m 31.232,0.940983 c 0,-1.925 0.2058,-2.7125 0.45733,-1.75 0.25152,0.9625 0.25152,2.5375 0,3.5 -0.25153,0.9625 -0.45733,0.175 -0.45733,-1.75 z M 74.657386,78.857783 c -5.32954,-0.940323 -10.01704,-2.036646 -10.416667,-2.436273 -0.919038,-0.919039 21.242697,-0.767579 24.606739,0.16817 1.375,0.382473 2.5,1.350117 2.5,2.15032 0,2.0949 -5.273297,2.132114 -16.690072,0.117783 z m 35.636224,0.75 c -1.57402,-2.546822 1.93305,-3.418832 14.85297,-3.693093 15.27871,-0.324332 15.30681,0.771259 0.0815,3.179566 -11.95268,1.890656 -14.03907,1.962397 -14.93452,0.513527 z M 69.847458,29.31736 c 0,-0.207656 0.7875,-0.995156 1.75,-1.75 1.586056,-1.243871 1.621426,-1.208501 0.377555,0.377555 -1.306369,1.665748 -2.127555,2.195479 -2.127555,1.372445 z M 129.7199,27.944915 c -1.24387,-1.586056 -1.2085,-1.621426 0.37756,-0.377555 1.66575,1.306369 2.19548,2.127555 1.37244,2.127555 -0.20765,0 -0.99515,-0.7875 -1.75,-1.75 z M 90.659958,19.011801 c 0.721875,-0.288871 1.584375,-0.253344 1.916667,0.07895 0.332291,0.332292 -0.258334,0.568641 -1.3125,0.52522 -1.164943,-0.04798 -1.4019,-0.284941 -0.604167,-0.604167 z m 19.000002,0 c 0.72187,-0.288871 1.58437,-0.253344 1.91667,0.07895 0.33229,0.332292 -0.25834,0.568641 -1.3125,0.52522 -1.16495,-0.04798 -1.4019,-0.284941 -0.60417,-0.604167 z M 98.597458,17.989182 c 1.2375,-0.238353 3.262502,-0.238353 4.500002,0 1.2375,0.238353 0.225,0.433369 -2.25,0.433369 -2.475002,0 -3.487502,-0.195016 -2.250002,-0.433369 z"
     style="fill:#af725e" />
  <path
     inkscape:connector-curvature="0"
     id="path48"
     d="m 14.465162,196.44492 c 1.734076,-9.92725 5.381041,-16.95497 10.324736,-19.89581 1.956658,-1.16395 6.636818,-2.7596 10.400356,-3.54589 10.566593,-2.20762 34.06374,-10.05364 36.981259,-12.34856 l 2.613697,-2.05594 0.523451,2.2981 c 0.287898,1.26396 0.976476,5.27886 1.530173,8.92202 0.553697,3.64316 2.35715,11.011 4.007673,16.37299 4.668141,15.1652 8.603861,13.50309 -31.974049,13.50309 h -34.975 z m 79.382296,0.90893 c 0,-1.28759 0.629614,-4.43312 1.399142,-6.99006 1.378982,-4.58201 1.360972,-4.677 -1.25,-6.59244 l -2.649142,-1.94344 3.952948,-4.0665 c 2.174121,-2.23657 4.673346,-4.06649 5.553834,-4.06649 1.77785,0 7.99322,5.97383 7.99322,7.6826 0,0.59806 -1.08127,1.79586 -2.40283,2.66177 -2.12383,1.39159 -2.31116,2.01453 -1.61338,5.36501 0.4342,2.08484 1.05423,5.25312 1.37783,7.04062 l 0.58838,3.25 h -6.475 c -6.122782,0 -6.475002,-0.12735 -6.475002,-2.34107 z m 24.000002,0.57374 c 0,-0.97203 1.51459,-6.93453 3.36577,-13.25 1.85117,-6.31547 3.69236,-14.14072 4.09154,-17.38944 1.0552,-8.58782 1.28547,-8.94072 4.29109,-6.5765 2.85881,2.24874 26.46022,10.10861 36.9088,12.29157 3.76354,0.78629 8.4437,2.38194 10.40036,3.54589 4.9437,2.94084 8.59066,9.96856 10.32474,19.89581 l 0.5677,3.25 h -34.975 c -32.77349,0 -34.975,-0.11125 -34.975,-1.76733 z M 54.465833,95.979956 c -0.393228,-0.393227 -1.618772,-2.755727 -2.723432,-5.25 -5.217687,-11.781302 -3.930015,-33.275926 2.776362,-46.344778 1.698327,-3.309562 8.190829,-10.690263 9.40379,-10.690263 0.463304,0 -0.304516,2.283399 -1.706265,5.074219 -1.671818,3.328516 -3.515206,10.467219 -5.358157,20.75 -2.886368,16.104545 -2.897789,19.716766 -0.09427,29.81346 0.589842,2.124277 1.07495,4.649821 1.078017,5.612321 0.0056,1.752979 -2.033087,2.378003 -3.376048,1.035041 z m 89.381627,-1.719941 c 0,-1.339196 0.44719,-3.61111 0.99376,-5.0487 2.73286,-7.18795 2.83691,-13.787024 0.43046,-27.300701 -2.86213,-16.072584 -3.78737,-19.605788 -6.40686,-24.465699 -2.64606,-4.909209 -1.16909,-4.767226 3.43625,0.33033 7.29259,8.072027 10.88366,20.848168 10.37725,36.91967 -0.28005,8.887452 -0.7447,11.383062 -3.02554,16.25 -2.83397,6.047234 -5.80532,7.744009 -5.80532,3.3151 z M 71.186744,92.760174 c -6.08891,-3.712752 -5.205241,-8.563642 1.766091,-9.694934 6.005761,-0.9746 16.894623,3.391892 16.894623,6.774835 0,0.55 -1.185686,0.06734 -2.634859,-1.07258 -2.807488,-2.208371 -5.365141,-2.719688 -5.365141,-1.07258 0,0.55 0.45,1 1,1 1.629633,0 1.140871,2.562539 -0.828741,4.345012 C 79.58336,95.243896 75.06883,95.1273 71.186744,92.760174 Z m 6.669852,-0.554249 c -0.679663,-0.818944 -1.637942,-1.240422 -2.129508,-0.936617 -1.479321,0.91427 -2.114528,-2.266964 -0.904212,-4.528461 1.051389,-1.964539 0.935796,-2.064025 -1.672997,-1.439883 -1.541331,0.368757 -3.139921,0.859809 -3.552421,1.091226 -2.802909,1.572465 2.695541,7.302725 7.007303,7.302725 2.08963,0 2.289895,-0.238204 1.251835,-1.48899 z m 43.351974,0.73899 c 0.0872,-1.098039 -0.51307,-1.698257 -1.61111,-1.611111 -1.68914,0.134059 -2.1669,-0.753268 -1.82465,-3.388889 0.23892,-1.839839 -1.25328,-1.52479 -3.73679,0.788955 -1.20371,1.121425 -2.18856,1.649867 -2.18856,1.174314 0,-3.686821 10.94646,-8.008698 17.27664,-6.82115 5.30571,0.995357 6.40589,3.643288 3.13087,7.535426 -1.42191,1.68985 -3.02039,3.072455 -3.55217,3.072455 -0.53178,0 0.25858,-1.054088 1.75636,-2.342417 1.79031,-1.539964 2.50531,-2.910265 2.08714,-4 -0.58591,-1.526877 -1.56809,-1.80627 -7.19884,-2.047806 -2.5719,-0.110323 -2.38473,1.578897 0.3286,2.965686 1.91225,0.977357 1.97056,1.266267 0.63915,3.167116 -1.13357,1.618395 -1.18253,2.205675 -0.2164,2.59559 0.68676,0.277165 -0.16385,0.539463 -1.89024,0.582884 -2.40218,0.06042 -3.10629,-0.331786 -3,-1.671053 z M 77.373927,79.127699 c -15.100968,-2.381443 -15.635551,-3.454986 -1.526469,-3.065442 12.817333,0.35388 16.36224,1.031921 15.715145,3.005865 -0.537526,1.63971 -4.074709,1.654562 -14.188676,0.05958 z m 32.932413,0.500685 c -0.36253,-0.586592 -0.42474,-1.300942 -0.13824,-1.587443 1.33345,-1.333447 9.07062,-2.29479 18.17936,-2.258783 11.94423,0.04721 10.43346,1.098138 -4.83855,3.365814 -12.38661,1.839235 -12.36329,1.838386 -13.20257,0.480412 z"
     style="fill:#694a3a" />
  <path
     inkscape:connector-curvature="0"
     id="path46"
     d="m 15.13248,194.93617 c 0.330378,-2.78953 1.929524,-7.70428 3.553656,-10.92167 3.497519,-6.92855 5.410799,-8.04257 20.259378,-11.79618 14.490629,-3.66313 31.01074,-9.44609 33.557416,-11.74698 2.067689,-1.86813 2.17635,-1.87269 2.668087,-0.11193 0.281937,1.00953 0.817338,4.50691 1.189779,7.77196 0.372441,3.26505 1.958677,10.09965 3.524968,15.18799 1.566291,5.08835 3.148508,10.85444 3.516039,12.81355 l 0.668237,3.56201 H 50.522458 16.974875 l 1.981346,-7.14993 c 1.089741,-3.93246 2.447531,-8.021 3.017312,-9.08564 0.569781,-1.06465 0.785816,-2.18587 0.480077,-2.49161 -0.909522,-0.90952 -4.793535,8.88549 -5.353204,13.50014 -0.285026,2.35013 -0.979566,4.55808 -1.543422,4.90656 -0.677261,0.41857 -0.82133,-1.0877 -0.424504,-4.43827 z m 10.289595,-14.12052 c -0.298879,-0.48359 1.587064,-1.81892 4.190983,-2.96738 3.250505,-1.43365 4.03982,-2.09834 2.518327,-2.12074 -1.21884,-0.0179 -3.796259,0.72093 -5.727598,1.64192 -2.731996,1.3028 -3.267325,1.96877 -2.411482,3 1.231036,1.48331 2.271397,1.80798 1.42977,0.4462 z m 68.425383,17.0382 c 0,-1.01259 0.6766,-4.05009 1.503556,-6.75 1.494889,-4.88063 1.488343,-4.9223 -1.135758,-7.22774 l -2.639314,-2.31881 3.838706,-3.93119 c 2.111288,-2.16215 4.559104,-3.93119 5.439592,-3.93119 1.67906,0 7.99322,5.93248 7.99322,7.51004 0,0.50316 -1.09693,1.83173 -2.43763,2.9524 -2.40859,2.01329 -2.42195,2.11795 -1.12178,8.78756 l 1.31583,6.75 h -6.37821 c -5.528012,0 -6.378212,-0.24541 -6.378212,-1.84107 z m 24.445662,-1.72094 c 0.36753,-1.95911 1.94974,-7.7252 3.51603,-12.81355 1.5663,-5.08834 3.15253,-11.92294 3.52497,-15.18799 0.37244,-3.26505 0.90784,-6.76243 1.18978,-7.77196 0.49174,-1.76076 0.6004,-1.7562 2.66809,0.11193 2.54667,2.30089 19.06679,8.08385 33.55741,11.74698 14.84858,3.75361 16.76186,4.86763 20.25938,11.79618 2.96292,5.86951 5.15088,16.60944 3.12915,15.35994 -0.56385,-0.34848 -1.25839,-2.55643 -1.54342,-4.90656 -0.55967,-4.61465 -4.44368,-14.40966 -5.3532,-13.50014 -0.30574,0.30574 -0.0897,1.42696 0.48007,2.49161 0.56979,1.06464 1.92758,5.15318 3.01732,9.08564 l 1.98134,7.14993 h -33.54758 -33.54758 z m 57.35309,-18.59518 c -1.81431,-0.96744 -4.42375,-1.76316 -5.79875,-1.76828 -1.93975,-0.007 -1.43278,0.46135 2.26224,2.09087 4.12321,1.81836 4.59518,2.31718 3.51724,3.71739 -0.76078,0.98821 -0.35763,0.85912 1.03651,-0.3319 l 2.28152,-1.94911 z M 131.09746,91.116174 c 0.9625,-1.143307 1.75,-2.589974 1.75,-3.214816 0,-1.631568 -3.37684,-3.206443 -6.87524,-3.206443 -3.32775,0 -4.95401,1.467809 -2.61902,2.36383 1.71723,0.658963 1.99322,3.209761 0.45046,4.163243 -1.22165,0.755016 -4.15802,-1.391504 -3.45644,-2.52669 1.01441,-1.641346 -4.0514,-1.869425 -6.47734,-0.291631 -2.38232,1.549422 -2.44315,1.543866 -1.09525,-0.100043 2.54505,-3.103965 7.4126,-4.931568 13.14865,-4.936879 3.0667,-0.0028 6.1042,0.321394 6.75,0.72052 1.92707,1.190996 1.33388,5.162467 -1.07582,7.202662 -2.24773,1.903065 -2.24823,1.90289 -0.5,-0.173753 z m -53.87,-0.873372 c -0.306475,-0.798662 -0.265794,-1.923662 0.0904,-2.5 0.35947,-0.581635 -0.157283,-1.0547 -1.161387,-1.0632 -1.533806,-0.01298 -1.580817,-0.162785 -0.309015,-0.984687 2.499523,-1.615316 -3.05862,-1.217924 -6.25,0.446858 -2.785565,1.453088 -3.794791,0.639692 -1.5,-1.208941 2.172251,-1.749916 7.265885,-2.356766 11.602751,-1.382337 4.437376,0.997013 9.702319,3.922683 8.758179,4.866824 -0.309429,0.309428 -1.20486,0.02957 -1.989846,-0.621913 -1.964264,-1.630194 -7.621084,-3.174372 -7.621084,-2.080375 0,0.484277 0.744521,1.297159 1.654492,1.806404 0.995653,0.557196 1.406363,1.572512 1.031384,2.54969 -0.773893,2.016735 -3.555304,2.127631 -4.305874,0.171677 z M 49.479402,83.604637 C 49.131833,81.86679 48.922653,76.113665 49.014558,70.819915 l 0.167101,-9.625 0.658936,12.5 c 0.362415,6.875 0.571595,12.628125 0.464844,12.784722 -0.106751,0.156597 -0.478467,-1.137153 -0.826037,-2.875 z M 151.58568,76.194915 c 0.50326,-14.503876 1.02569,-16.501515 1.0461,-4 0.009,5.5 -0.3086,11.125 -0.70573,12.5 -0.39713,1.375 -0.5503,-2.45 -0.34037,-8.5 z m -96.580327,-11.5 c 0,-1.375 0.226973,-1.9375 0.504386,-1.25 0.277412,0.6875 0.277412,1.8125 0,2.5 -0.277413,0.6875 -0.504386,0.125 -0.504386,-1.25 z m 90.999997,0 c 0,-1.375 0.22698,-1.9375 0.50439,-1.25 0.27741,0.6875 0.27741,1.8125 0,2.5 -0.27741,0.6875 -0.50439,0.125 -0.50439,-1.25 z m 4.96464,-4.5 c -0.0824,-1.1 -0.38139,-3.125 -0.66439,-4.5 l -0.51456,-2.5 1.07114,2.453157 c 0.58913,1.349237 0.8881,3.374237 0.66439,4.5 -0.39626,1.994056 -0.41061,1.995264 -0.55658,0.04684 z m -100.964637,-1.5 c 0,-1.375 0.226973,-1.9375 0.504386,-1.25 0.277412,0.6875 0.277412,1.8125 0,2.5 -0.277413,0.6875 -0.504386,0.125 -0.504386,-1.25 z m 6,0 c 0,-1.375 0.226973,-1.9375 0.504386,-1.25 0.277412,0.6875 0.277412,1.8125 0,2.5 -0.277413,0.6875 -0.504386,0.125 -0.504386,-1.25 z m 88.999997,0 c 0,-1.375 0.22698,-1.9375 0.50439,-1.25 0.27741,0.6875 0.27741,1.8125 0,2.5 -0.27741,0.6875 -0.50439,0.125 -0.50439,-1.25 z M 51.307958,53.537703 c 0.958239,-4.794941 4.28404,-11.482243 7.574001,-15.229301 1.777413,-2.024362 3.448456,-3.463864 3.713427,-3.198892 0.264971,0.264971 -1.220694,2.438855 -3.301479,4.830853 -2.080785,2.391998 -4.848335,7.027816 -6.150111,10.301819 -1.301775,3.274003 -2.127903,4.756988 -1.835838,3.295521 z M 147.41696,47.98055 c -1.06177,-2.573698 -3.42427,-6.332883 -5.25,-8.353744 -3.93675,-4.357514 -4.4299,-6.315792 -0.71927,-2.856205 2.75565,2.569212 8.72239,13.468496 8.20569,14.989109 -0.16826,0.495159 -1.17464,-1.205463 -2.23642,-3.77916 z"
     style="fill:#602f1e" />
  <path
     inkscape:connector-curvature="0"
     id="path44"
     d="m 15.338791,195.32639 c 0.552334,-5.34711 5.006548,-16.22481 6.948972,-16.97019 0.674499,-0.25883 1.226362,0.1417 1.226362,0.89007 0,0.74837 -0.357746,1.13957 -0.794991,0.86934 -1.225344,-0.7573 -4.893355,7.16331 -6.468566,13.96806 -1.35348,5.84689 -1.392921,5.90065 -0.911777,1.24272 z m 42.062649,-1.38147 c -0.996194,-3.1625 -2.044604,-6.425 -2.3298,-7.25 -0.349718,-1.01164 -0.185258,-1.17443 0.505145,-0.5 0.879609,0.85926 5.270673,11.72097 5.270673,13.03751 0,0.25437 -0.36782,0.46249 -0.817378,0.46249 -0.449558,0 -1.632445,-2.5875 -2.62864,-5.75 z m 25.138252,4.75 c -3.240957,-8.99239 -7.017114,-24.82605 -7.273921,-30.5 l -0.316825,-7 0.885623,6.22233 c 0.487092,3.42228 2.529731,11.62586 4.539197,18.23018 2.009466,6.60431 3.440492,12.57926 3.180058,13.27767 -0.350132,0.93894 -0.614384,0.87897 -1.014132,-0.23018 z m 11.307766,-0.8185 c 0,-1.00017 0.705614,-4.19456 1.568032,-7.09863 0.862417,-2.90408 1.424917,-5.38497 1.25,-5.5131 -0.174918,-0.12813 -1.36862,-0.94029 -2.652671,-1.8048 l -2.334639,-1.57184 3.701001,-4.09656 c 2.035551,-2.25312 4.330247,-4.09657 5.099329,-4.09657 0.76908,0 3.07921,1.54278 5.13364,3.42839 l 3.73531,3.4284 -2.84718,2.97775 c -1.87081,1.95662 -2.64729,3.61005 -2.2643,4.82161 0.32059,1.01412 0.98122,3.98135 1.46807,6.59385 l 0.8852,4.75 h -6.3709 c -5.492269,0 -6.370892,-0.25079 -6.370892,-1.8185 z m 24.000002,0.61188 c 0,-0.84698 1.61142,-6.85554 3.58093,-13.35235 1.96952,-6.49682 3.97413,-14.54134 4.45471,-17.87671 l 0.87378,-6.06432 -0.45295,7.5 c -0.55917,9.25894 -8.45647,37.08227 -8.45647,29.79338 z m 23.54709,-1.04338 c 1.13577,-3.74777 4.70261,-11.83363 5.06168,-11.47456 0.63637,0.63636 -4.01741,13.72456 -4.88005,13.72456 -0.47492,0 -0.55666,-1.0125 -0.18163,-2.25 z m 43.99408,-2.5 c -0.8018,-5.55256 -5.10982,-15.63462 -6.35244,-14.86664 -0.47047,0.29076 -0.8554,-0.0836 -0.8554,-0.83201 0,-2.88124 2.56252,-0.17258 4.98054,5.26459 2.33647,5.25379 4.56869,15.18406 3.41322,15.18406 -0.275,0 -0.80866,-2.1375 -1.18592,-4.75 z M 60.097458,178.6797 c -3.725417,-3.38908 -3.926679,-4.2092 -1.5,-6.11234 1.594842,-1.25076 1.625301,-1.21365 0.343548,0.41854 -1.254501,1.59748 -1.044241,2.16468 1.946167,5.25 4.09306,4.22296 3.642698,4.47606 -0.789715,0.4438 z m 80.656452,-0.24731 c 3.03771,-3.25982 3.25421,-3.84939 2,-5.44649 -1.28175,-1.63219 -1.25129,-1.6693 0.34355,-0.41854 2.49867,1.9596 2.09701,3.23387 -2.0722,6.57406 l -3.6778,2.94649 z M 26.117243,176.26643 c 1.751062,-1.30695 19.721778,-5.91328 20.404819,-5.23024 0.194763,0.19476 -2.689847,1.10551 -6.410245,2.02388 -3.720397,0.91838 -8.789359,2.31271 -11.264359,3.09853 -3.50728,1.11358 -4.109577,1.13736 -2.730215,0.10783 z m 146.230217,-0.16576 c -2.2,-0.74448 -7.04396,-2.10887 -10.76436,-3.03198 -3.7204,-0.92311 -6.60501,-1.83774 -6.41024,-2.0325 0.69324,-0.69325 18.66629,3.93303 20.40481,5.25222 2.08362,1.58103 1.97859,1.57493 -3.23021,-0.18774 z M 52.767293,168.62502 c 2.980909,-1.05807 5.592798,-1.7508 5.804197,-1.5394 0.466489,0.46649 -8.641985,3.63918 -10.152171,3.53623 -0.589523,-0.0402 1.367065,-0.93876 4.347974,-1.99683 z m 94.267667,0.38679 c -2.37188,-0.83887 -4.1358,-1.70192 -3.91983,-1.91789 0.21596,-0.21596 2.83159,0.47303 5.8125,1.5311 2.9809,1.05807 4.74483,1.92112 3.91983,1.91789 -0.825,-0.003 -3.44063,-0.69223 -5.8125,-1.5311 z m -78.187502,-4.81689 c 1.291745,-1.375 2.573628,-2.5 2.848628,-2.5 0.275,0 -0.556883,1.125 -1.848628,2.5 -1.291745,1.375 -2.573628,2.5 -2.848628,2.5 -0.275,0 0.556883,-1.125 1.848628,-2.5 z m 62.924312,-0.25 -2.42431,-2.75 2.75,2.42431 c 2.57029,2.26589 3.20859,3.07569 2.42431,3.07569 -0.17912,0 -1.41662,-1.2375 -2.75,-2.75 z m -0.67431,-72.828746 c 2.77419,-3.295324 2.2042,-5.245425 -1.75,-5.987237 -4.53304,-0.850403 -10.12154,0.200616 -14.43509,2.714781 -2.66562,1.553668 -3.12993,1.634474 -2.07283,0.360738 2.42358,-2.920238 6.78544,-4.509541 12.37647,-4.509541 3.00733,0 6.17968,0.273145 7.04966,0.606989 2.30654,0.8851 1.9336,4.78517 -0.66821,6.988023 -2.24773,1.903065 -2.24823,1.90289 -0.5,-0.173753 z M 77.847458,89.194915 c 0,-0.825 0.675,-1.5 1.5,-1.5 0.825,0 1.5,0.675 1.5,1.5 0,0.825 -0.675,1.5 -1.5,1.5 -0.825,0 -1.5,-0.675 -1.5,-1.5 z m 43.000002,-0.07332 c 0,-0.931239 0.68037,-1.441373 1.66713,-1.25 2.50877,0.486547 2.85325,2.82332 0.4162,2.82332 -1.22833,0 -2.08333,-0.645689 -2.08333,-1.573324 z M 85.186121,87.079361 c -3.483731,-2.434927 -12.765236,-2.99019 -15.879026,-0.949956 -2.552031,1.672155 -2.58305,1.664626 -1.497638,-0.363485 0.93396,-1.74512 2.062526,-2.071005 7.172056,-2.071005 5.65636,0 12.118476,1.981553 13.441097,4.121598 0.82204,1.33009 -0.81096,0.958153 -3.236489,-0.737152 z m 66.819229,-8.384446 c 0,-1.375 0.22698,-1.9375 0.50439,-1.25 0.27741,0.6875 0.27741,1.8125 0,2.5 -0.27741,0.6875 -0.50439,0.125 -0.50439,-1.25 z"
     style="fill:#200f09" />
</svg>
