<?xml version="1.0" encoding="UTF-8" standalone="no"?>
<!-- Created with Inkscape (http://www.inkscape.org/) -->

<svg
   xmlns:dc="http://purl.org/dc/elements/1.1/"
   xmlns:cc="http://creativecommons.org/ns#"
   xmlns:rdf="http://www.w3.org/1999/02/22-rdf-syntax-ns#"
   xmlns:svg="http://www.w3.org/2000/svg"
   xmlns="http://www.w3.org/2000/svg"
   xmlns:sodipodi="http://sodipodi.sourceforge.net/DTD/sodipodi-0.dtd"
   xmlns:inkscape="http://www.inkscape.org/namespaces/inkscape"
   version="1.1"
   id="svg104"
   width="266.66666"
   height="266.66666"
   viewBox="0 0 266.66666 266.66666"
   sodipodi:docname="Trustee2eye.svg"
   inkscape:version="0.92.2 (5c3e80d, 2017-08-06)">
  <metadata
     id="metadata110">
    <rdf:RDF>
      <cc:Work
         rdf:about="">
        <dc:format>image/svg+xml</dc:format>
        <dc:type
           rdf:resource="http://purl.org/dc/dcmitype/StillImage" />
        <dc:title></dc:title>
      </cc:Work>
    </rdf:RDF>
  </metadata>
  <defs
     id="defs108" />
  <sodipodi:namedview
     pagecolor="#ffffff"
     bordercolor="#666666"
     borderopacity="1"
     objecttolerance="10"
     gridtolerance="10"
     guidetolerance="10"
     inkscape:pageopacity="0"
     inkscape:pageshadow="2"
     inkscape:window-width="640"
     inkscape:window-height="480"
     id="namedview106"
     showgrid="false"
     inkscape:zoom="0.88500003"
     inkscape:cx="133.33333"
     inkscape:cy="133.33333"
     inkscape:window-x="0"
     inkscape:window-y="0"
     inkscape:window-maximized="0"
     inkscape:current-layer="svg104" />
  <path
     inkscape:connector-curvature="0"
     id="path130"
     d="M -0.0903924,134.11299 V 0.7796612 H 133.24294 266.57627 V 134.11299 267.44632 H 133.24294 -0.0903924 Z"
     style="fill:#fdfcfc;stroke-width:1.33333325" />
  <path
     inkscape:connector-curvature="0"
     id="path128"
     d="m 21.646193,262.81128 c 1.507828,-9.29167 7.500568,-20.16164 13.15707,-23.86505 2.940112,-1.92495 6.224309,-3.49991 7.298215,-3.49991 6.124354,0 51.655946,-14.84565 55.10513,-17.96712 3.277012,-2.96565 3.713682,-2.62423 4.647622,3.63379 1.43393,9.6083 3.5215,18.57189 6.75395,29 1.70485,5.5 3.45655,11.65 3.89265,13.66666 l 0.79292,3.66667 H 67.093886 20.894027 Z m 102.263417,2.84695 c 0,-0.98346 0.84747,-4.60404 1.88327,-8.04575 1.84117,-6.11773 1.81043,-6.30537 -1.37494,-8.39252 -3.79459,-2.48631 -3.32736,-2.78267 -7.71394,4.89303 -1.88592,3.3 -3.43617,5.15253 -3.445,4.11673 -0.0226,-2.65223 7.09944,-13.43708 11.92922,-18.06431 2.23009,-2.13657 4.05472,-4.3569 4.05472,-4.93408 0,-0.57717 -4.51121,-3.5253 -10.0249,-6.55138 -5.5137,-3.0261 -10.62872,-6.63024 -11.36672,-8.0092 -0.738,-1.37898 -1.87807,-6.77798 -2.5335,-11.99779 -0.96633,-7.69588 -1.77946,-9.88508 -4.29994,-11.57677 -6.052488,-4.06229 -15.393903,-14.61876 -16.318546,-18.44113 -2.991595,-12.36691 -3.635157,-13.8754 -5.919613,-13.8754 -4.211119,0 -6.984911,-3.26218 -9.654561,-11.35442 -1.439772,-4.36424 -4.157498,-10.15681 -6.03939,-12.87238 -3.805026,-5.49066 -6.35243,-14.73378 -5.125777,-18.59862 0.439671,-1.38528 2.287265,-3.29827 4.105764,-4.25108 3.160167,-1.65577 3.328348,-2.37774 3.803576,-16.32794 0.69684,-20.455504 7.039281,-37.406261 16.771096,-44.822291 2.242181,-1.708632 6.295001,-4.977315 9.006267,-7.263739 24.072144,-20.30016 59.302794,-20.120556 84.916434,0.4329 18.7713,15.062875 24.71347,27.577444 25.35169,53.39212 0.28588,11.5636 0.52442,12.50721 3.81653,15.09678 4.24865,3.34199 4.73895,10.34002 1.17619,16.78752 -1.2822,2.32037 -3.59466,6.52037 -5.1388,9.33333 -1.54414,2.81296 -3.20337,7.18564 -3.68717,9.71706 -1.06667,5.58109 -5.61175,10.73076 -9.47095,10.73076 -2.38509,0 -3.09076,1.24238 -4.45371,7.84114 -1.82414,8.83163 -6.26197,15.24759 -15.5538,22.48679 -6.01037,4.68263 -6.02684,4.71839 -6.02684,13.08146 0,10.59395 -3.19442,14.80848 -16.1812,21.34852 -5.03368,2.53492 -9.15213,4.94014 -9.15213,5.34492 0,0.4048 1.8,2.25059 4,4.10176 4.83029,4.06443 4.97445,5.74844 0.82579,9.64592 -2.75867,2.59163 -3.02466,3.62574 -2.03182,7.89908 2.45578,10.56998 2.21858,10.91707 -7.46064,10.91707 -6.35833,0 -8.66666,-0.47625 -8.66666,-1.78809 z m 31.1011,-1.06255 c 0.49534,-1.89417 -0.7946,-5.25813 -3.84449,-10.02589 -4.80001,-7.50363 -5.49467,-9.17332 -3.23557,-7.77712 0.74492,0.46037 2.79457,3.64578 4.55478,7.07868 2.12799,4.15013 3.4389,5.57146 3.91214,4.24164 3.03452,-8.5272 7.504,-25.98524 8.22532,-32.12848 1.18042,-10.05346 2.3404,-11.8079 5.76053,-8.71272 3.18608,2.88336 23.93789,10.26433 42.19285,15.00706 19.27147,5.00684 23.79887,7.61222 27.94615,16.08208 1.88434,3.84832 3.79888,9.71686 4.25453,13.04118 l 0.82845,6.04421 h -45.67008 -45.67006 z"
     style="fill:#ebc4b8;stroke-width:1.33333325" />
  <path
     inkscape:connector-curvature="0"
     id="path126"
     d="m 21.242941,265.65505 c 0,-2.9806 4.941006,-16.37045 7.458926,-20.21329 3.450876,-5.26669 10.702665,-9.21168 20.541073,-11.17437 12.728365,-2.53922 44.214307,-13.42218 47.526004,-16.42712 3.565876,-3.23559 4.112016,-2.34744 5.777446,9.39534 0.7358,5.18808 3.07829,15.0079 5.20553,21.82179 2.12724,6.81391 4.17678,13.73892 4.55454,15.38892 l 0.68683,3 H 67.118113 c -37.513142,0 -45.875172,-0.32651 -45.875172,-1.79127 z m 102.666669,0.69994 c 0,-0.60023 0.93955,-4.25516 2.0879,-8.12207 1.96521,-6.61756 1.94562,-7.1386 -0.33333,-8.86627 -1.33168,-1.00953 -2.87124,-1.8546 -3.42124,-1.87793 -2.30519,-0.0977 -0.66053,-3.04147 4.49411,-8.04388 3.02176,-2.93252 6.19999,-5.33185 7.06273,-5.33185 0.86275,0 3.9404,2.44137 6.83923,5.42526 l 5.2706,5.42527 -3.64743,3.16089 c -3.49448,3.02835 -3.59232,3.45144 -2.33333,10.09006 0.72276,3.81104 1.31409,7.44726 1.31409,8.0805 0,0.63324 -3.9,1.15135 -8.66667,1.15135 -4.76666,0 -8.66666,-0.49109 -8.66666,-1.09133 z m 32.20756,-4.57534 c 0.6916,-3.11666 2.46825,-9.56666 3.94812,-14.33333 1.47986,-4.76667 3.51526,-13.68168 4.52309,-19.81115 1.00783,-6.12946 2.1736,-11.48566 2.5906,-11.90266 0.417,-0.417 1.50307,0.2605 2.41347,1.50556 1.90656,2.60738 36.12305,14.5181 48.98382,17.05122 12.19069,2.40114 18.19111,6.45894 22.05197,14.91271 1.73595,3.80104 3.56111,9.46099 4.0559,12.57765 l 0.89962,5.66667 h -45.36201 -45.36202 z m -35.46855,-41.96936 c -3.21072,-0.81685 -13.05624,-6.90585 -14.38526,-8.89662 -0.53877,-0.80704 -0.98877,-3.51762 -1,-6.0235 -0.0176,-3.9261 -1.33254,-5.76985 -9.50924,-13.33333 -8.98518,-8.31132 -9.608955,-9.27257 -11.752263,-18.11052 -1.966732,-8.10984 -2.689188,-9.39296 -5.511182,-9.78824 -4.69989,-0.65829 -7.522333,-3.7038 -8.560349,-9.2369 -0.50051,-2.66795 -2.209928,-7.18024 -3.798702,-10.02732 -1.588776,-2.84707 -3.937752,-7.07498 -5.219946,-9.39535 -3.07643,-5.56738 -3.027506,-13.17921 0.10292,-16.0122 1.341072,-1.21366 3.015794,-2.20665 3.721599,-2.20665 0.728137,0 1.353459,-5.91217 1.445505,-13.66667 0.258974,-21.817426 7.727533,-40.919707 18.9435,-48.451652 2.631422,-1.7671 8.084404,-5.594686 12.117737,-8.50575 14.199221,-10.248299 34.317151,-14.342976 50.312871,-10.24036 11.14073,2.8574 20.37724,7.705705 31.33221,16.446506 15.96787,12.740497 21.06812,24.004962 22.05601,48.713136 0.55219,13.81065 0.91625,15.72103 3.12997,16.42363 6.73803,2.13857 6.46784,11.23951 -0.68116,22.94314 -2.57725,4.21924 -5.38197,10.5032 -6.23271,13.96436 -1.71059,6.9594 -3.22636,8.74999 -8.02183,9.47619 -2.71241,0.41075 -3.59059,1.82112 -5.49184,8.82012 -2.86915,10.56196 -4.67364,13.25145 -13.63992,20.32941 l -7.28143,5.74794 -0.0744,7.77777 c -0.0529,5.53296 -0.54726,7.62016 -1.71276,7.23166 -0.90108,-0.30036 -4.86201,1.14964 -8.80205,3.22223 -6.27428,3.30045 -8.51267,3.74913 -18.02833,3.61367 -5.97553,-0.0851 -12.03205,-0.45168 -13.45892,-0.8147 z m 29.48204,-14.9844 c 6.68243,-3.94272 22.39364,-16.71201 25.6396,-20.83859 1.54393,-1.96279 3.39927,-5.73747 4.12296,-8.38818 8.4928,-31.10665 10.12744,-38.24768 8.93391,-39.02828 -0.86711,-0.5671 -0.4923,-4.32416 1.06414,-10.66666 3.12404,-12.73041 3.17656,-18.94396 0.29687,-35.124521 C 186.02879,67.408931 183.47526,60.652134 176.24725,53.891172 167.8703,46.055521 159.71526,41.388519 149.96281,38.848995 132.2309,34.231631 113.45824,37.524524 98.256074,47.918824 85.286482,56.786626 82.298003,62.777613 77.873065,88.780524 74.290509,109.83323 74.248773,111.58006 77.04531,123.42632 c 1.4689,6.22234 2.180461,11.92234 1.581245,12.66667 -1.179174,1.46475 7.916214,38.70232 11.114823,45.50536 1.784716,3.79588 20.148372,19.23718 27.706012,23.29694 8.51422,4.57362 24.87282,4.53888 32.68327,-0.0693 z m -24.62205,-19.96485 c -5.1222,-1.28677 -6.16736,-2.08308 -5.06824,-3.86148 1.1263,-1.8224 15.24084,-3.08341 20.70288,-1.84962 4.97948,1.12477 6.7394,3.50977 3.50561,4.75069 -3.93697,1.51077 -14.78313,2.055 -19.14025,0.96041 z m 4.0466,-23.56646 c -4.63523,-3.62762 -4.55776,-4.44651 1.05778,-11.18159 l 2.77924,-3.33333 -0.84295,5.57461 c -0.83,5.48891 -0.77799,5.58115 3.38353,6 l 4.22649,0.42539 -3.14929,2.94224 -3.1493,2.94224 z M 95.909606,134.86195 c 0,-0.32141 1.794225,-2.5488 3.987166,-4.94977 l 3.987168,-4.36538 -4.010613,-4.13791 c -2.205836,-2.27584 -3.703476,-4.44503 -3.328088,-4.82042 1.40608,-1.40608 8.697701,0.55774 8.697701,2.34252 0,2.57557 1.68298,2.30537 4.23973,-0.68069 2.07781,-2.42671 1.88655,-2.56423 -4.71276,-3.38876 -10.726408,-1.34018 -19.955437,-4.03395 -20.616652,-6.01759 -0.496797,-1.4904 2.39164,-1.64087 16.475962,-0.85833 9.3931,0.52189 18.21002,1.55453 19.59315,2.29476 3.08994,1.65368 2.55927,5.62815 -0.83885,6.28257 -2.56937,0.49482 -8.69018,6.61033 -8.76511,8.75752 -0.0232,0.66411 1.4884,3.21411 3.35905,5.66667 l 3.40119,4.45918 h -3.978 c -2.807,0 -4.22715,-0.78498 -4.82438,-2.66666 -0.4655,-1.46667 -1.4621,-2.66667 -2.21467,-2.66667 -0.75257,0 -1.68212,1.2 -2.06566,2.66667 -0.49395,1.88886 -1.81869,2.66666 -4.541842,2.66666 -2.114471,0 -3.844492,-0.26297 -3.844492,-0.58437 z m 53.333334,-0.14048 c 0,-0.39868 1.5,-2.34255 3.33333,-4.31971 1.83334,-1.97717 3.31438,-4.20099 3.2912,-4.94181 -0.0566,-1.80814 -6.17689,-8.68029 -7.73065,-8.68029 -2.17728,0 -4.11456,-3.35824 -2.98843,-5.18037 2.08452,-3.37282 39.55186,-5.85823 38.4493,-2.55055 -0.65906,1.97717 -10.56011,4.58352 -22.23776,5.85385 -4.83102,0.52554 -7.88366,1.2602 -6.78366,1.6326 1.1,0.37239 2.65898,1.57141 3.4644,2.66447 1.53668,2.0855 5.14066,0.97102 3.81199,-1.1788 -0.42191,-0.68266 1.48601,-1.2412 4.23981,-1.2412 h 5.00691 l -4.24872,4.38357 -4.24872,4.38357 3.98716,4.36538 c 2.19295,2.40097 3.98717,4.62836 3.98717,4.94977 0,0.3214 -1.75957,0.58437 -3.91014,0.58437 -2.73915,0 -4.16363,-0.79861 -4.75652,-2.66666 -0.46551,-1.46667 -1.46211,-2.66667 -2.21468,-2.66667 -0.75256,0 -1.68211,1.2 -2.06566,2.66667 -0.49394,1.88886 -1.81869,2.66666 -4.54184,2.66666 -2.11446,0 -3.84449,-0.32618 -3.84449,-0.72485 z m -69.837943,23.2018 c -0.460868,-2.30433 -1.836028,-4.91952 -3.05591,-5.81152 -1.219881,-0.892 -2.419485,-3.05663 -2.665788,-4.81029 -0.33474,-2.38332 -0.132413,-2.69951 0.801266,-1.25214 0.686997,1.06499 0.953266,2.41499 0.591708,3 -0.361559,0.58502 -0.01053,1.06367 0.780046,1.06367 1.644182,0 0.609468,-5.51259 -1.997866,-10.64393 -1.639735,-3.22707 -1.68218,-3.18278 -1.68218,1.75556 0,2.78638 -0.362104,5.42825 -0.804677,5.87082 -0.442572,0.44258 0.159664,2.27646 1.338302,4.07528 1.178639,1.79883 1.480743,2.86131 0.671344,2.36108 -2.553432,-1.5781 -1.605364,3.11412 1.195031,5.91452 3.972062,3.97207 5.811696,3.39182 4.828724,-1.52305 z m 113.101453,1.6002 c 1.28892,-1.42423 2.06424,-3.37423 1.72293,-4.33333 -0.34131,-0.9591 0.21252,-3.39382 1.23075,-5.41048 1.27945,-2.53408 1.38421,-3.66667 0.33917,-3.66667 -0.90397,0 -1.20817,-1.21099 -0.75639,-3.01108 0.41566,-1.65609 0.26006,-3.81311 -0.34577,-4.79336 -0.79348,-1.28387 -1.38365,-0.72147 -2.11039,2.01108 -1.61149,6.0592 -1.87045,9.8642 -0.61869,9.09056 0.63713,-0.39376 0.82803,-1.74672 0.4242,-3.00657 -0.5854,-1.82639 -0.46349,-1.9098 0.60155,-0.41154 1.47676,2.07746 0.67508,5.45424 -1.2949,5.45424 -1.07558,0 -5.12264,7.86648 -5.12264,9.95718 0,1.69133 3.78371,0.4918 5.93018,-1.88003 z m 6.98064,-24.32715 c -0.42563,-1.06364 -0.74158,-0.7477 -0.80555,0.80556 -0.0579,1.40555 0.25723,2.19306 0.70029,1.75 0.44306,-0.44306 0.49042,-1.59306 0.1052,-2.55556 z M 70.529026,130.19148 c -0.03028,-1.33225 -0.731377,-0.88173 -1.952753,1.25484 -2.100209,3.67394 -2.772573,1.26826 -0.718329,-2.57013 0.899288,-1.68034 0.713041,-3.14592 -0.624262,-4.91235 -1.751352,-2.31333 -1.909373,-2.06676 -1.948338,3.0401 -0.02332,3.05669 0.354092,6.59087 0.838698,7.85373 0.822448,2.14327 0.999966,2.13356 2.666667,-0.14579 0.98206,-1.34304 1.764303,-3.37722 1.738317,-4.5204 z m 132.026834,-3.66647 c 0.0252,-3.61466 -2.08122,-5.141 -3.17201,-2.29841 -1.20052,3.12848 0.5705,9.29234 2.01501,7.01308 0.62512,-0.98634 1.14577,-3.10795 1.157,-4.71467 z M 66.215162,119.9741 c -0.443056,-0.44305 -1.593056,-0.49042 -2.555556,-0.10527 -1.063644,0.42564 -0.747701,0.74158 0.805556,0.80556 1.405555,0.0579 2.193055,-0.25724 1.75,-0.70029 z m 137.694438,0.21758 c 0,-0.32339 -0.6,-0.9588 -1.33333,-1.41202 -0.73333,-0.45323 -1.33333,-0.18864 -1.33333,0.58797 0,0.77662 0.6,1.41203 1.33333,1.41203 0.73333,0 1.33333,-0.26459 1.33333,-0.58798 z"
     style="fill:#daaa9b;stroke-width:1.33333325" />
  <path
     inkscape:connector-curvature="0"
     id="path124"
     d="m 21.756441,265.11299 c 0.38126,-1.28334 1.107526,-4.13334 1.613926,-6.33334 2.655432,-11.53624 12.745616,-23.33333 19.95726,-23.33333 8.196993,0 52.063464,-14.54475 54.818741,-18.17617 1.325454,-1.74694 1.79174,-1.27118 2.992562,3.0534 0.78236,2.81752 1.42582,6.73792 1.42991,8.712 0.004,1.97406 2.10743,10.51732 4.6741,18.98498 2.56667,8.46767 4.66667,16.30252 4.66667,17.41078 0,1.75836 -5.78553,2.01501 -45.423188,2.01501 -42.63536,0 -45.380637,-0.14321 -44.729981,-2.33333 z m 102.650619,0 c 3.93909,-13.57324 3.9446,-14.04408 0.19624,-16.77458 l -3.54969,-2.58576 5.03193,-5.15317 c 2.76756,-2.83424 6.29246,-5.15316 7.83311,-5.15316 1.54065,0 4.86888,2.14647 7.39606,4.76992 l 4.5949,4.76992 -3.76544,3.0256 c -3.90548,3.13811 -3.99248,4.11365 -1.46567,16.43456 0.58853,2.86973 0.23391,3 -8.16667,3 -7.73281,0 -8.70103,-0.27875 -8.10477,-2.33333 z m 31.61397,-2.83527 c 0.63872,-2.84273 2.65284,-9.89273 4.47582,-15.66667 1.82297,-5.77393 3.71874,-14.09806 4.21282,-18.49806 0.49407,-4.4 1.46382,-9.09955 2.15496,-10.44344 1.14218,-2.22086 1.39978,-2.2477 2.82792,-0.29459 2.01262,2.75241 26.59267,11.69035 42.55968,15.47579 15.20625,3.60509 23.08429,7.38046 26.28301,12.59557 2.43359,3.96764 6.7077,16.86573 6.7077,20.242 0,1.42053 -8.67506,1.758 -45.1916,1.758 h -45.19161 z m 3.8538,-50.51261 c -0.39765,-1.04202 -2.92096,-1.62422 -6.63674,-1.5313 -11.88107,0.29714 -32.07137,0.19448 -35.68565,-0.18142 -2.02978,-0.21112 -5.30832,0.0221 -7.28563,0.51848 -3.46637,0.87 -3.62632,0.66713 -4.46622,-5.66431 -0.77134,-5.81465 -1.53904,-7.0463 -6.704059,-10.75553 -8.180572,-5.87484 -12.310341,-11.8228 -14.928558,-21.50105 -1.99519,-7.37522 -2.724324,-8.47251 -6.25682,-9.41595 -4.34198,-1.15963 -7.396365,-4.41664 -7.229617,-7.70921 0.09089,-1.79483 0.205629,-1.80554 0.84065,-0.0785 1.316675,3.58091 4.743443,6.66667 7.403388,6.66667 1.93874,0 2.369039,-0.59523 1.686816,-2.33333 -0.50372,-1.28334 -2.032589,-6.76802 -3.397489,-12.18818 -2.978176,-11.82664 -4.665351,-14.09412 -5.992169,-8.05316 -0.73203,3.33291 -1.22411,3.87764 -2.095796,2.32003 -0.645848,-1.15407 -0.578814,-3.98935 0.154797,-6.54729 0.967643,-3.37397 0.762643,-6.11136 -0.812911,-10.85491 -2.22026,-6.68454 -2.68701,-7.08136 -5.892549,-5.00979 -1.709196,1.10457 -1.660729,1.29547 0.333333,1.31292 1.922572,0.0168 2.373483,1.37006 2.5614,7.68708 0.326115,10.9626 0.373156,11.22508 2.855615,15.93379 1.237308,2.34692 2.249652,5.28147 2.249652,6.52123 0,1.23976 -1.764817,-1.24467 -3.921817,-5.52095 -2.157,-4.27628 -3.564295,-8.35353 -3.127323,-9.06057 0.436973,-0.70703 0.144989,-0.8841 -0.648853,-0.39348 -0.793843,0.49062 -1.741754,-0.16667 -2.10647,-1.46066 -2.903347,-10.30084 -1.999909,-15.38871 3.01517,-16.98044 2.262994,-0.71824 2.548089,-2.17729 2.557814,-13.09029 0.01253,-14.099726 2.779483,-26.672848 7.982591,-36.273681 3.980206,-7.344317 20.163602,-21.226556 31.358175,-26.899274 12.83333,-6.503142 33.82775,-8.572415 44.22405,-4.358856 3.66202,1.484198 1.41604,1.466253 -7.92458,-0.06332 -23.32,-3.818752 -52.045694,10.007786 -59.102243,28.447688 -3.822726,9.989404 -8.734097,39.948843 -7.901416,48.198773 0.370083,3.66667 1.475507,10.21828 2.456498,14.55913 1.416581,6.26833 1.441145,8.00662 0.119373,8.44722 -0.915336,0.30511 -1.390304,0.998 -1.055485,1.53975 0.33482,0.54174 3.060089,10.53725 6.056153,22.21224 6.198517,24.1542 6.633269,24.81752 25.74431,39.27893 11.60629,8.78253 15.33269,9.92108 29.49614,9.01213 8.05846,-0.51716 10.65772,-1.30609 15.5596,-4.72271 9.4645,-6.59674 21.45598,-16.72373 24.06907,-20.32669 3.26027,-4.4953 13.58054,-45.20398 11.95862,-47.17125 -0.77415,-0.93899 -0.194,-5.96045 1.55917,-13.49541 l 2.79207,-12 -3.03695,-17.749847 c -4.76864,-27.870943 -6.18999,-31.815658 -14.3494,-39.824408 -3.87065,-3.799173 -10.8033,-8.733842 -15.4059,-10.965932 -4.6026,-2.232088 -7.59446,-4.073673 -6.64858,-4.092412 4.29279,-0.08504 15.70816,7.256847 31.42049,20.208339 5.30391,4.371945 10.87208,15.408031 13.45747,26.672584 2.36915,10.32242 2.87023,31.076596 0.87332,36.171806 -0.80909,2.06441 -1.47107,4.579 -1.47107,5.58798 0,1.00898 -0.54365,2.17051 -1.20813,2.58117 -0.70868,0.438 -0.61957,2.66438 0.21557,5.38553 1.01842,3.31828 1.00847,5.50044 -0.0349,7.66536 -1.38916,2.88228 -1.46296,2.82375 -1.54891,-1.22815 -0.1729,-8.15248 -2.43293,-5.60434 -5.9164,6.67064 -4.19144,14.76972 -4.15808,14.25067 -0.9161,14.25067 3.15208,0 6.74226,-4.80117 6.74226,-9.01645 0,-1.69939 1.2537,-5.54722 2.78599,-8.55076 1.92057,-3.76464 2.85245,-8.30018 3,-14.6012 0.15283,-6.52686 0.71304,-9.14376 1.95937,-9.15258 1.04031,-0.007 1.34087,-0.6856 0.74406,-1.67901 -0.68038,-1.13247 -0.27824,-1.08015 1.25464,0.16326 1.53729,1.24699 2.24944,3.79545 2.23553,8 -0.0133,3.88428 -0.43828,5.51088 -1.14836,4.39069 -0.85745,-1.35269 -1.30233,-1.11246 -1.85523,1.00184 -0.40002,1.52968 -0.18326,2.44498 0.48168,2.03402 2.07262,-1.28094 1.36479,0.27419 -3.45768,7.59674 -2.56666,3.89729 -4.66666,8.66874 -4.66666,10.60324 0,4.71782 -4.76279,10.54354 -8.61982,10.54354 -2.7266,0 -3.36754,1.12059 -5.41149,9.46108 -2.41712,9.86328 -6.00565,14.81028 -16.59146,22.87231 -3.98459,3.03463 -4.725,4.49709 -5.36326,10.59364 -0.40726,3.89013 -1.0292,6.31642 -1.38208,5.39176 z m -37.13604,-28.19013 c -3.91249,-2.47814 0.2043,-4.12824 10.24951,-4.10824 11.54387,0.0229 15.67057,1.43785 11.18909,3.83626 -3.26341,1.74654 -18.7994,1.94363 -21.4386,0.27198 z m 6.83748,-22.72007 c -3.6366,-3.03377 -3.66869,-3.81124 -0.33333,-8.07525 l 2.60737,-3.33334 0.0297,4.42099 c 0.0163,2.43155 0.65076,5.58155 1.40989,7 1.73536,3.24255 0.18195,3.23736 -3.71357,-0.012 z M 97.29089,134.44632 c 0.02637,-0.55 1.479662,-2.75127 3.22954,-4.89171 l 3.18158,-3.89172 -3.38779,-4.44162 -3.387785,-4.44161 h 2.944529 c 1.619496,0 4.012526,1.31892 5.317856,2.93094 l 2.37333,2.93093 0.93025,-2.93093 c 0.62235,-1.96086 2.00377,-2.93094 4.17372,-2.93094 4.03911,0 4.03227,0.34483 -0.0952,4.79844 l -3.33868,3.60249 3.33868,4.37724 c 4.12119,5.40316 4.13445,5.88849 0.16086,5.88849 -2.05648,0 -3.42389,-0.94097 -3.87517,-2.66666 -0.38354,-1.46667 -1.33241,-2.66667 -2.1086,-2.66667 -0.77618,0 -2.05347,1.2 -2.8384,2.66667 -1.33736,2.49888 -6.723662,3.85521 -6.61872,1.66666 z m 53.28538,0.24438 c 0,-0.4156 1.47887,-2.69453 3.28636,-5.06428 l 3.28638,-4.30865 -3.28638,-3.5442 c -4.0906,-4.41154 -4.0956,-4.99391 -0.0429,-4.99391 2.07248,0 3.54906,0.96276 4.08986,2.66666 0.4655,1.46667 1.3655,2.66667 2,2.66667 0.63449,0 1.53449,-1.2 2,-2.66667 0.87329,-2.75151 7.33333,-3.92606 7.33333,-1.33333 0,0.73333 -0.531,1.33333 -1.17999,1.33333 -0.64898,0 -2.13981,1.46488 -3.31293,3.25528 -2.0164,3.07743 -1.95193,3.47041 1.17999,7.19248 4.1082,4.88231 4.1245,5.55224 0.1351,5.55224 -2.05648,0 -3.42389,-0.94097 -3.87517,-2.66666 -0.38355,-1.46667 -1.33241,-2.66667 -2.1086,-2.66667 -0.77619,0 -2.05347,1.2 -2.8384,2.66667 -1.25615,2.34713 -6.66667,3.89809 -6.66667,1.91104 z m -36,-18.77965 c -16.126259,-2.44533 -28.121721,-4.91632 -28.742515,-5.92079 -1.073398,-1.73679 27.472165,-1.51473 32.543555,0.25316 2.30943,0.80508 4.19896,1.88508 4.19896,2.4 0,1.20367 -2.97272,4.19251 -3.93333,3.95466 -0.40333,-0.0999 -2.23333,-0.40903 -4.06667,-0.68703 z m 30.90924,-2.7396 c 0.24095,-1.25118 1.93495,-2.69137 3.76443,-3.20043 5.15432,-1.43419 34.06892,-1.3954 32.593,0.0437 -1.78983,1.74521 -22.27171,5.43158 -30.17839,5.43158 -5.51956,0 -6.54448,-0.37733 -6.17904,-2.27487 z"
     style="fill:#c58875;stroke-width:1.33333325" />
  <path
     inkscape:connector-curvature="0"
     id="path122"
     d="m 21.242941,266.92011 c 0,-2.27287 5.794022,-18.29299 7.782536,-21.51824 3.216266,-5.21662 11.111803,-8.92962 26.88413,-12.64267 15.961135,-3.75751 40.158981,-12.56965 42.207068,-15.37059 1.402313,-1.91777 1.627128,-1.88844 2.292035,0.29902 0.40547,1.33394 1.38701,6.62536 2.18119,11.75869 0.79419,5.13333 3.21601,14.89051 5.38184,21.68261 2.16583,6.7921 3.93787,13.2421 3.93787,14.33334 0,1.71761 -6.08784,1.98405 -45.333337,1.98405 -24.933333,0 -45.333332,-0.2368 -45.333332,-0.52621 z m 104.841419,-7.78234 1.93825,-8.30856 -3.4845,-2.53828 -3.4845,-2.53828 5.03193,-5.15317 c 2.76756,-2.83424 6.29246,-5.15316 7.83311,-5.15316 1.54065,0 4.86888,2.14647 7.39606,4.76992 l 4.5949,4.76992 -3.81212,3.06281 c -3.48515,2.80011 -3.73411,3.56322 -2.9026,8.89675 0.50024,3.20867 1.20612,6.88393 1.56864,8.16727 0.57906,2.04994 -0.39003,2.33333 -7.97916,2.33333 h -8.63826 z m 29.11423,6.64188 c 4.23103,-13.09205 8.031,-27.84344 9.49394,-36.85516 0.99896,-6.15366 2.12778,-11.49998 2.5085,-11.88072 0.38072,-0.38072 1.74591,0.25162 3.03374,1.40519 2.95946,2.65093 35.30497,13.56073 47.67483,16.08024 13.43815,2.73708 18.30175,6.06271 22.35147,15.28347 1.84397,4.1985 3.74643,9.88365 4.22769,12.63365 l 0.87502,5 h -45.35191 c -35.6799,0 -45.23704,-0.35544 -44.81328,-1.66667 z m -32.87232,-56.57748 c 0.9625,-0.38516 2.1125,-0.3378 2.55556,0.1052 0.44305,0.44306 -0.34445,0.75819 -1.75,0.7003 -1.55326,-0.064 -1.8692,-0.37992 -0.80556,-0.80555 z m -14.58674,-8.08918 c -1.65849,-2.11475 -1.61133,-2.16191 0.50341,-0.50341 1.28333,1.00646 2.33333,2.05646 2.33333,2.33333 0,1.09738 -1.09491,0.39108 -2.83674,-1.82992 z m 15.83674,-17.18577 c -1.28333,-0.37204 -2.33333,-1.16824 -2.33333,-1.76935 0,-1.86925 3.89797,-2.71235 12.44239,-2.69113 8.19608,0.0204 13.07613,1.57217 11.11409,3.53421 -1.20048,1.20048 -17.781,1.92412 -21.22315,0.92627 z m 5.80372,-24.14756 -2.82503,-2.33334 2.77168,-4 2.77168,-4 -0.87896,4.38795 c -0.54394,2.71547 -0.26357,5.12944 0.73557,6.33333 2.20065,2.65162 0.86073,2.44974 -2.57494,-0.38794 z M 70.014598,136.50522 c 0.444328,-3.94104 -0.06347,-8.54503 -1.365458,-12.37994 -1.341355,-3.95086 -2.072867,-10.91349 -2.072867,-19.7298 0,-23.30769 7.70529,-42.991991 19.283497,-49.26253 2.508173,-1.35838 2.527942,-1.281566 0.476117,1.849915 -3.448941,5.263749 -6.392424,15.283922 -9.323701,31.739647 -3.248303,18.235448 -3.328801,24.893128 -0.435972,36.056918 2.469604,9.53052 1.982619,12.12004 -2.192609,11.65912 -2.123575,-0.23444 -3.246728,0.60744 -4.012705,3.00777 -0.695931,2.18083 -0.819123,1.16395 -0.356302,-2.9411 z m 125.895012,0.85125 c 0,-1.48479 -0.77396,-1.8442 -2.67324,-1.2414 -3.9851,1.26483 -4.52496,-1.93821 -2.11362,-12.54008 1.16611,-5.12696 2.12019,-11.41336 2.12019,-13.96978 0,-9.01181 -6.72913,-41.474607 -9.97272,-48.110589 -1.77924,-3.640104 -3.05484,-6.798507 -2.83468,-7.018672 1.04243,-1.042431 7.83012,5.769747 10.80213,10.841101 7.08419,12.088262 9.05135,20.245365 9.20003,38.14939 0.11333,13.64469 -0.31631,17.69974 -2.35661,22.2432 -2.01584,4.48899 -2.22128,6.34216 -1.06936,9.64655 0.8587,2.46331 0.92309,4.09013 0.16185,4.09013 -0.69519,0 -1.26397,-0.94042 -1.26397,-2.08985 z M 97.242939,134.6388 c 0,-0.44414 1.518936,-2.61268 3.375411,-4.81898 l 3.37542,-4.01145 -3.44327,-4.51436 -3.443272,-4.51435 h 3.311342 c 2.14033,0 3.61064,0.94303 4.1577,2.66666 0.46551,1.46667 1.46211,2.66667 2.21468,2.66667 0.75257,0 1.68212,-1.2 2.06566,-2.66667 0.45642,-1.74537 1.81869,-2.66666 3.94303,-2.66666 h 3.24568 l -3.44327,4.51435 -3.44327,4.51436 3.37541,4.01145 c 4.03796,4.79884 4.16477,5.6265 0.8621,5.6265 -1.38233,0 -3.56251,-1.60125 -4.84484,-3.55835 l -2.33153,-3.55835 -1.8644,3.55835 c -1.60086,3.05535 -7.112581,5.18703 -7.112581,2.75083 z m 53.333331,0 c 0,-0.44414 1.51894,-2.61268 3.37542,-4.81898 l 3.37541,-4.01145 -3.44327,-4.51436 -3.44326,-4.51435 h 3.31133 c 2.14033,0 3.61064,0.94303 4.15771,2.66666 0.4655,1.46667 1.4621,2.66667 2.21468,2.66667 0.75256,0 1.6821,-1.2 2.06565,-2.66667 0.46013,-1.75953 1.81869,-2.66666 3.99371,-2.66666 h 3.29634 l -3.44706,4.0966 c -3.61082,4.29121 -3.34,6.79388 1.13721,10.50965 2.80017,2.32393 2.61179,4.06041 -0.44052,4.06041 -1.38232,0 -3.55587,-1.59112 -4.83008,-3.53582 l -2.31676,-3.53582 -2.14541,3.53582 c -1.85456,3.05649 -6.8611,5.04733 -6.8611,2.7283 z m 52.63356,-6.59531 c 0.0183,-3.2571 0.48311,-5.92392 1.03311,-5.92625 1.30252,-0.005 1.25974,8.18963 -0.0536,10.25534 -0.55698,0.8761 -0.99779,-1.07199 -0.97958,-4.32909 z m -141.054356,0.26659 c -0.596469,-2.82494 -0.745798,-5.47494 -0.331845,-5.88889 1.508796,-1.5088 2.253207,0.87518 1.839616,5.89137 l -0.423283,5.13376 z m 37.969056,-14.99947 c -18.386751,-3.08304 -17.878495,-4.70676 1.31428,-4.19869 11.43796,0.30279 17.54543,1.01313 18.98532,2.20814 5.31301,4.4094 -1.74583,5.10159 -20.2996,1.99055 z m 46.0073,1.24682 c -3.48946,-3.48946 5.31884,-5.76078 22.37778,-5.77034 16.65634,-0.009 15.56556,1.89597 -2.65792,4.64263 -14.76556,2.22548 -18.41348,2.43409 -19.71986,1.12771 z"
     style="fill:#a56e5e;stroke-width:1.33333325" />
  <path
     inkscape:connector-curvature="0"
     id="path120"
     d="m 23.21255,260.89485 c 3.838991,-14.55292 10.404776,-22.76364 19.754764,-24.70394 19.69032,-4.08611 50.51628,-14.0091 54.378968,-17.50478 2.796758,-2.53104 2.676818,-2.82042 5.288678,12.76019 0.79906,4.76667 3.21275,14.34281 5.36374,21.28032 2.151,6.93752 3.91091,13.08752 3.91091,13.66667 0,0.57916 -20.345696,1.05301 -45.212654,1.05301 H 21.484307 Z m 102.03039,4.47523 c 0,-1.14193 0.69566,-4.83895 1.54591,-8.21559 1.42814,-5.67165 1.32656,-6.31696 -1.33334,-8.47082 -3.88851,-3.14872 -3.66171,-4.27408 1.83382,-9.09923 5.72934,-5.03043 7.25578,-5.11411 12.51797,-0.68627 4.95685,4.17092 5.16221,6.66398 0.82964,10.07198 -1.79996,1.41585 -3.00203,3.3022 -2.67124,4.19189 0.33079,0.88968 1.12601,4.46761 1.76719,7.95095 l 1.16577,6.33333 h -7.82786 c -6.19696,0 -7.82786,-0.43257 -7.82786,-2.07624 z m 31.30191,-2.89187 c 0.51261,-2.73245 2.35076,-9.48245 4.08477,-15 1.73401,-5.51754 3.80925,-14.18428 4.61164,-19.25942 1.618,-10.23399 2.51288,-12.51472 3.97933,-10.14195 1.4014,2.26751 30.75739,12.62967 43.35568,15.3038 5.86667,1.24527 13.35415,3.56948 16.63884,5.16491 8.55079,4.15324 11.66581,9.3067 15.25285,25.2341 l 0.82578,3.66667 h -44.84046 -44.84045 z m -29.96858,-78.6597 c -6.00616,-1.07749 -5.7726,-2.80959 0.50582,-3.75109 6.71026,-1.00627 18.16085,0.225 18.16085,1.95281 0,2.07252 -11.15031,3.14669 -18.66667,1.79828 z M 72.039534,132.44632 c -4.485668,-11.83134 -5.461598,-16.74007 -5.443553,-27.37993 0.0319,-18.805802 5.651737,-36.833332 14.325358,-45.953397 4.204755,-4.421179 6.731169,-4.842444 3.998136,-0.666667 -3.563289,5.444319 -6.98478,19.99697 -11.240673,47.810034 -0.615378,4.02161 1.603268,17.63996 4.375372,26.85663 1.099568,3.65583 -4.616021,3.02231 -6.01464,-0.66667 z m 117.203406,1.77195 c 0,-0.67544 1.23165,-6.41397 2.737,-12.75229 2.57553,-10.84437 2.61943,-12.12878 0.74413,-21.77194 -1.09608,-5.636244 -2.38088,-12.947714 -2.85509,-16.247714 -1.23447,-8.590386 -4.57357,-20.150344 -6.86953,-23.782352 -3.07576,-4.865564 -1.03832,-4.938874 3.66082,-0.13172 8.46883,8.663495 13.53383,24.876033 13.8806,44.430456 0.18556,10.4632 -0.33684,14.72703 -2.53206,20.66667 -1.52123,4.11598 -3.25128,8.23361 -3.84456,9.15028 -1.24826,1.92868 -4.92131,2.25602 -4.92131,0.43861 z m -88.77047,-3.99693 c 3.90929,-4.08042 3.81192,-5.10362 -0.993638,-10.44168 l -2.70073,-3 h 3.410248 c 2.2889,0 3.63954,0.87684 4.10759,2.66666 0.38354,1.46667 1.33241,2.66667 2.1086,2.66667 0.77618,0 2.05346,-1.2 2.8384,-2.66667 0.78494,-1.46666 2.30605,-2.66666 3.38025,-2.66666 2.715,0 2.43747,1.815 -0.71358,4.66666 -3.50173,3.16902 -3.36993,4.45338 0.91612,8.92704 3.57451,3.73099 3.57578,3.73963 0.54706,3.73963 -1.66966,0 -4.10307,-1.3181 -5.40759,-2.92912 l -2.37186,-2.92911 -1.82926,2.92911 c -1.0061,1.61102 -2.99719,2.92912 -4.424658,2.92912 -2.312836,0 -2.189483,-0.42368 1.133048,-3.89165 z m 53.43787,-0.10911 3.83296,-4.00076 -2.91684,-3.94525 c -3.55911,-4.81394 -3.60223,-5.38656 -0.40569,-5.38656 1.38981,0 2.82254,1.19078 3.2085,2.66666 0.38355,1.46667 1.33242,2.66667 2.1086,2.66667 0.77619,0 2.05347,-1.2 2.8384,-2.66667 0.78494,-1.46666 2.30604,-2.66666 3.38024,-2.66666 2.71502,0 2.43748,1.815 -0.71357,4.66666 -3.48121,3.15045 -3.36469,4.60779 0.72063,9.01363 3.29753,3.55624 3.31202,3.65304 0.54705,3.65304 -1.56213,0 -3.90757,-1.3181 -5.21209,-2.92912 l -2.37186,-2.92911 -1.82926,2.92911 c -1.0061,1.61102 -2.99719,2.92912 -4.42466,2.92912 -2.29666,0 -2.15422,-0.46048 1.23759,-4.00076 z M 104.0543,113.35064 c -6.887086,-1.01043 -12.837086,-2.15226 -13.222222,-2.5374 -0.981896,-0.9819 23.742352,-0.84291 27.465382,0.15439 3.23732,0.86719 3.35487,3.67195 0.16833,4.01609 -1.03924,0.11224 -7.5244,-0.62265 -14.41149,-1.63308 z m 42.52197,0.18837 c 0,-2.62159 4.50152,-3.40586 18.66667,-3.2522 l 12.66667,0.13742 -8.66667,1.67481 c -15.36612,2.96946 -22.66667,3.43325 -22.66667,1.43997 z"
     style="fill:#664638;stroke-width:1.33333325" />
  <path
     inkscape:connector-curvature="0"
     id="path118"
     d="m 23.335867,263.77965 c 3.223806,-14.58618 8.010767,-22.76168 14.880076,-25.41317 2.031515,-0.78415 8.793664,-2.68408 15.026997,-4.22209 18.234812,-4.49923 40.428618,-12.15322 43.598907,-15.03596 l 2.93224,-2.6663 0.616483,3.16876 c 0.33906,1.74282 1.29367,7.26883 2.12135,12.28003 0.82768,5.01119 2.46281,11.91119 3.63363,15.33333 1.17081,3.42214 2.86792,9.37207 3.77136,13.22207 l 1.64261,7 H 69.10123 26.642941 l 0.818464,-4.33333 c 0.450156,-2.38334 1.920918,-7.29758 3.268361,-10.92054 1.347444,-3.62294 2.179213,-6.85786 1.848379,-7.1887 -0.967056,-0.96706 -5.931392,11.53222 -6.84201,17.22692 -0.458709,2.86861 -1.368762,5.21565 -2.022341,5.21565 -0.653579,0 -0.823647,-1.65 -0.377927,-3.66667 z m 22.702481,-24.43106 c 7.669181,-2.5356 7.717223,-2.58083 1.871259,-1.76135 -7.307459,1.02435 -13.735857,4.12909 -12.543595,6.05821 0.60485,0.97867 1.175426,0.93592 1.839003,-0.13777 0.529141,-0.85616 4.504141,-2.72776 8.833333,-4.15909 z m 16.537925,-4.56894 c 2.566667,-0.98841 3.766667,-1.8157 2.666667,-1.83842 -1.1,-0.0227 -3.8,0.7829 -6,1.79028 -5.149413,2.35786 -2.754265,2.39246 3.333333,0.0481 z m 8.972223,-2.80556 c -0.443056,-0.44305 -1.593056,-0.49041 -2.555556,-0.1052 -1.063644,0.42563 -0.747702,0.74158 0.805556,0.80555 1.405554,0.0579 2.193054,-0.25724 1.75,-0.70029 z m 54.398754,29.80556 c 0.51629,-3.11666 1.53163,-6.7942 2.25632,-8.1723 1.05545,-2.00708 0.60626,-3.07288 -2.25754,-5.35639 l -3.57516,-2.85073 4.83355,-4.97696 c 2.65845,-2.73732 5.58697,-4.97695 6.50781,-4.97695 0.92084,0 3.74196,2.14343 6.26915,4.76319 l 4.59489,4.76317 -3.68433,3.18807 c -3.45141,2.9865 -3.60099,3.5494 -2.36593,8.90348 2.35954,10.22885 2.27,10.38209 -6.06693,10.38209 h -7.45053 z m 29.96236,4.50551 c 0,-0.63864 1.79662,-7.38864 3.9925,-15 2.19588,-7.61136 4.627,-17.43884 5.40251,-21.83884 2.18785,-12.41339 2.5368,-13.26737 4.39071,-10.74544 1.83217,2.49237 32.06306,12.84532 47.03855,16.10893 14.6179,3.1857 18.72536,5.99122 23.206,15.85042 3.93119,8.65016 5.94192,16.78609 4.14856,16.78609 -0.5983,0 -1.81432,-3.15 -2.70225,-7 -0.88793,-3.85 -2.81657,-9.1 -4.28588,-11.66667 -2.86188,-4.99929 -2.75579,-4.22712 1.32825,9.66667 l 2.64552,9 h -42.58223 c -23.42023,0 -42.58224,-0.52252 -42.58224,-1.16116 z m 75.93109,-22.08915 c 1.29637,-1.56202 0.8451,-2.30265 -2.4372,-4 -2.21547,-1.14566 -5.40794,-2.06985 -7.09435,-2.05374 -2.31084,0.022 -1.64725,0.67322 2.69364,2.6432 3.16793,1.43765 5.38252,3.22448 4.92132,3.97072 -1.25441,2.02968 0.0944,1.63546 1.91659,-0.56018 z m -14.26443,-6.96606 c -0.91667,-0.36988 -2.41667,-0.36988 -3.33333,0 -0.91667,0.36988 -0.16667,0.67252 1.66666,0.67252 1.83334,0 2.58334,-0.30264 1.66667,-0.67252 z m -90.66666,-53.36692 c -6.31216,-0.85311 -5.301,-2.62343 2,-3.5016 6.76792,-0.81405 17.88489,0.59716 15.66666,1.98877 -2.0046,1.25759 -12.74817,2.17758 -17.66666,1.51283 z M 101.15215,130.2405 c 3.43071,-4.81799 3.424,-5.24614 -0.14163,-9.04158 -2.63421,-2.80398 -2.678096,-3.08593 -0.48032,-3.08593 1.33032,0 3.18072,1.04204 4.11199,2.31563 1.60767,2.19862 1.82253,2.19862 4.25198,0 3.94366,-3.56896 6.70837,-2.91324 3.24786,0.7703 -3.56563,3.79544 -3.57234,4.22359 -0.14163,9.04158 3.25859,4.57626 0.87994,5.29761 -2.87707,0.87249 l -2.54706,-3 -2.54705,3 c -3.75701,4.42512 -6.135664,3.70377 -2.87707,-0.87249 z m 52.61367,0.87249 c 3.798,-5.22308 3.8876,-6.3912 0.74672,-9.73451 -2.73889,-2.91542 -2.80847,-3.26549 -0.64901,-3.26549 1.33032,0 3.18072,1.04204 4.112,2.31563 1.60766,2.19862 1.82252,2.19862 4.25197,0 4.28247,-3.87557 6.55243,-2.7033 2.65092,1.369 l -3.53011,3.68463 3.37728,4.31537 c 2.43167,3.1071 2.83578,4.31537 1.44328,4.31537 -1.0637,0 -2.89078,-1.35 -4.06017,-3 l -2.12617,-3 -2.58352,3 c -1.42094,1.65 -3.31052,3 -4.19908,3 -1.09755,0 -0.91608,-0.96196 0.56589,-3 z m 44.41568,-13.66667 c 0.42375,-3.66666 0.98592,-6.91666 1.24928,-7.22222 0.99676,-1.15647 0.23969,8.67487 -0.86416,11.22222 -0.74344,1.7156 -0.88079,0.289 -0.38512,-4 z m -130.061367,2 c 0,-1.83333 0.302631,-2.58333 0.672515,-1.66666 0.369882,0.91666 0.369882,2.41666 0,3.33333 -0.369884,0.91667 -0.672515,0.16667 -0.672515,-1.66667 z m -1.10634,-15.33333 c 0.0059,-5.133331 0.246911,-7.069949 0.535544,-4.303593 0.288635,2.766353 0.283795,6.966353 -0.0108,9.333333 -0.294504,2.36698 -0.530659,0.10359 -0.524744,-5.02974 z m 27.921189,6.40935 c 1.297289,-0.33806 3.097289,-0.31583 4,0.0494 0.902709,0.36523 -0.15871,0.64183 -2.35871,0.61465 -2.2,-0.0272 -2.938581,-0.326 -1.64129,-0.66405 z m 73.974628,0.0409 c 0.91666,-0.36988 2.41666,-0.36988 3.33333,0 0.91667,0.36989 0.16667,0.67252 -1.66667,0.67252 -1.83333,0 -2.58333,-0.30263 -1.66666,-0.67252 z m -96.894741,-5.22807 c 0.06397,-1.55325 0.379921,-1.8692 0.805556,-0.80555 0.385161,0.9625 0.337792,2.1125 -0.105267,2.55555 -0.443056,0.44306 -0.758188,-0.34444 -0.700293,-1.75 z m 2.87691,-13.888885 c 0,-1.833333 0.458022,-5.133333 1.017827,-7.333333 0.907904,-3.56801 1.017827,-3.640009 1.017827,-0.666666 0,1.833333 -0.458022,5.133333 -1.017827,7.333333 -0.907904,3.56801 -1.017827,3.640009 -1.017827,0.666666 z m 123.789761,0.555556 c 0.064,-1.553257 0.37992,-1.8692 0.80555,-0.805556 0.38516,0.9625 0.3378,2.1125 -0.1052,2.555556 -0.44307,0.443055 -0.75819,-0.344445 -0.7003,-1.75 z M 68.136226,88.112992 c -0.02156,-1.466666 0.476466,-3.866666 1.106714,-5.333333 1.460013,-3.397633 1.460013,0.107773 0,4.666666 -0.858172,2.679642 -1.075206,2.81038 -1.106714,0.666667 z M 197.34821,85.335215 c 0.064,-1.553257 0.37992,-1.8692 0.80554,-0.805556 0.38516,0.9625 0.3378,2.1125 -0.1052,2.555556 -0.44306,0.443054 -0.75818,-0.344445 -0.70029,-1.75 z m -8.7569,-21.386388 c -1.2604,-1.923624 -1.63264,-3.090206 -0.82717,-2.592408 1.53919,0.951274 4.64356,6.089907 3.67905,6.089907 -0.30812,0 -1.59146,-1.573875 -2.85188,-3.497499 z M 81.242939,60.276253 c 0,-0.276875 1.05,-1.326875 2.333334,-2.333333 2.114741,-1.658495 2.161901,-1.611335 0.503406,0.503406 -1.741825,2.220998 -2.83674,2.927305 -2.83674,1.829927 z M 182.71013,57.719022 c -1.68656,-2.808412 -1.65815,-2.836825 0.63777,-0.637776 1.32164,1.265874 2.11597,2.588587 1.7652,2.939363 -0.35077,0.350776 -1.43211,-0.684939 -2.40297,-2.301587 z"
     style="fill:#612f1e;stroke-width:1.33333325" />
  <path
     inkscape:connector-curvature="0"
     id="path116"
     d="m 78.613577,264.21111 c -2.088802,-5.49396 -1.421584,-7.38012 0.805242,-2.27635 1.077092,2.46864 1.644935,4.80185 1.261872,5.18492 -0.383061,0.38307 -1.313264,-0.9258 -2.067114,-2.90857 z m 26.750773,-12.8467 c -2.49989,-8.94038 -4.72019,-19.32938 -4.934,-23.08666 l -0.38875,-6.83143 1.10655,6.87557 c 0.6086,3.78158 3.02731,13.20862 5.37492,20.94902 2.34761,7.74038 4.06996,15.03537 3.82746,16.21108 -0.24251,1.17572 -2.48629,-5.17719 -4.98618,-14.11758 z m 19.87859,14.29382 c 0,-0.98346 0.88358,-4.724 1.96351,-8.31235 1.94081,-6.44881 1.9242,-6.55559 -1.43604,-9.23495 l -3.39954,-2.7107 4.83355,-4.97696 c 2.65845,-2.73732 5.41348,-4.97695 6.12228,-4.97695 0.7088,0 3.52992,2.10841 6.26916,4.68535 l 4.98041,4.68536 -3.68334,3.04469 c -3.56216,2.94453 -3.63894,3.27892 -2.33334,10.16331 0.74251,3.91522 1.35002,7.6367 1.35002,8.26994 0,0.63324 -3.3,1.15135 -7.33334,1.15135 -5.24337,0 -7.33333,-0.5096 -7.33333,-1.78809 z m 31.40732,-1.76686 c 0.46615,-2.07812 2.56809,-9.47838 4.67101,-16.44505 2.10292,-6.96667 4.42211,-15.36667 5.15378,-18.66667 l 1.33026,-6 -0.68929,7.21748 c -0.37911,3.96963 -2.45565,12.73168 -4.61452,19.47124 -2.15888,6.73956 -3.92523,13.20628 -3.92523,14.3705 0,1.16421 -0.62405,2.50242 -1.38677,2.97381 -0.90389,0.55864 -1.09167,-0.45859 -0.53924,-2.92131 z m 30.02669,2.22162 c 0.0107,-1.1 0.86788,-3.8 1.90468,-6 l 1.88507,-4 -0.7918,4 c -0.99128,5.00764 -3.02816,9.08418 -2.99795,6 z m 56.00459,-4.77778 c 0.064,-1.55326 0.37992,-1.8692 0.80554,-0.80556 0.38516,0.9625 0.3378,2.1125 -0.1052,2.55556 -0.44306,0.44306 -0.75818,-0.34445 -0.70029,-1.75 z m -162.23195,-20.88889 -2.539984,-3 3,2.53999 c 2.81926,2.38696 3.606988,3.46001 2.539984,3.46001 -0.253009,0 -1.603009,-1.35 -3,-3 z m 106.12668,-0.33333 c 1.72234,-1.83334 3.43151,-3.33334 3.79818,-3.33334 0.36666,0 -0.74251,1.5 -2.46484,3.33334 -1.72234,1.83333 -3.43151,3.33333 -3.79818,3.33333 -0.36666,0 0.74251,-1.5 2.46484,-3.33333 z M 52.99294,234.53551 c 0.9625,-0.38516 2.1125,-0.3378 2.555556,0.1052 0.443055,0.44305 -0.344445,0.75818 -1.75,0.70029 -1.553257,-0.064 -1.8692,-0.37992 -0.805556,-0.80555 z M 101.15215,130.2405 c 3.43071,-4.81799 3.424,-5.24614 -0.14163,-9.04158 -2.63421,-2.80398 -2.678096,-3.08593 -0.48032,-3.08593 1.33032,0 3.18072,1.04204 4.11199,2.31563 1.59962,2.18762 1.84777,2.17578 4.4885,-0.21404 3.73728,-3.38219 4.84101,-1.96014 1.58557,2.04286 -2.58599,3.17982 -2.58399,3.20119 0.70119,7.52222 3.68894,4.8521 1.68314,6.01786 -2.29412,1.33333 l -2.54706,-3 -2.54705,3 c -3.75701,4.42512 -6.135664,3.70377 -2.87707,-0.87249 z m 52.61367,0.87249 c 3.798,-5.22308 3.8876,-6.3912 0.74672,-9.73451 -2.54433,-2.70831 -2.68879,-3.26549 -0.84665,-3.26549 1.22161,0 2.95833,1.18046 3.85937,2.62325 1.61936,2.59301 1.67323,2.59038 4.67271,-0.22748 3.90526,-3.66881 5.23562,-2.41241 1.85162,1.74868 -2.58598,3.17982 -2.584,3.20119 0.70119,7.52222 3.68895,4.8521 1.68315,6.01786 -2.29412,1.33333 l -2.54705,-3 -2.54706,3 c -1.40088,1.65 -3.27406,3 -4.16262,3 -1.09755,0 -0.91608,-0.96196 0.56589,-3 z"
     style="fill:#160a08;stroke-width:1.33333325" />
</svg>
