<!DOCTYPE svg PUBLIC "-//W3C//DTD SVG 20010904//EN" "http://www.w3.org/TR/2001/REC-SVG-20010904/DTD/svg10.dtd">
<svg version="1.0" xmlns="http://www.w3.org/2000/svg" width="753px" height="176px" viewBox="0 0 7530 1760" preserveAspectRatio="xMidYMid meet">
<g id="layer101" fill="#ffffff" stroke="none">
 <path d="M620 1740 c-118 -33 -174 -63 -244 -132 -50 -49 -76 -67 -120 -80 -129 -40 -202 -94 -239 -177 -46 -105 19 -242 151 -316 52 -29 96 -42 177 -50 86 -9 105 -15 105 -34 0 -33 86 -125 153 -164 60 -35 122 -48 242 -49 159 -1 264 26 370 97 77 51 96 84 120 206 4 24 10 27 69 32 154 14 288 112 326 236 16 51 18 71 10 102 -28 101 -140 185 -304 225 -86 22 -116 25 -208 20 l-108 -5 -51 35 c-70 47 -135 64 -264 69 -91 4 -123 2 -185 -15z"/>
 <path d="M4430 1640 c-118 -33 -174 -63 -244 -132 -50 -49 -76 -67 -120 -80 -129 -40 -202 -94 -239 -177 -46 -105 19 -242 151 -316 52 -29 96 -42 177 -50 86 -9 105 -15 105 -34 0 -33 86 -125 153 -164 60 -35 122 -48 242 -49 159 -1 264 26 370 97 77 51 96 84 120 206 4 24 10 27 69 32 154 14 288 112 326 236 16 51 18 71 10 102 -28 101 -140 185 -304 225 -86 22 -116 25 -208 20 l-108 -5 -51 35 c-70 47 -135 64 -264 69 -91 4 -123 2 -185 -15z"/>
 <path d="M2370 1010 c-118 -33 -174 -63 -244 -132 -50 -49 -76 -67 -120 -80 -129 -40 -202 -94 -239 -177 -46 -105 19 -242 151 -316 52 -29 96 -42 177 -50 86 -9 105 -15 105 -34 0 -33 86 -125 153 -164 60 -35 122 -48 242 -49 159 -1 264 26 370 97 77 51 96 84 120 206 4 24 10 27 69 32 154 14 288 112 326 236 16 51 18 71 10 102 -28 101 -140 185 -304 225 -86 22 -116 25 -208 20 l-108 -5 -51 35 c-70 47 -135 64 -264 69 -91 4 -123 2 -185 -15z"/>
 <path d="M6400 1010 c-118 -33 -174 -63 -244 -132 -50 -49 -76 -67 -120 -80 -129 -40 -202 -94 -239 -177 -46 -105 19 -242 151 -316 52 -29 96 -42 177 -50 86 -9 105 -15 105 -34 0 -33 86 -125 153 -164 60 -35 122 -48 242 -49 159 -1 264 26 370 97 77 51 96 84 120 206 4 24 10 27 69 32 154 14 288 112 326 236 16 51 18 71 10 102 -28 101 -140 185 -304 225 -86 22 -116 25 -208 20 l-108 -5 -51 35 c-70 47 -135 64 -264 69 -91 4 -123 2 -185 -15z"/>
 </g>

</svg>