<!DOCTYPE svg PUBLIC "-//W3C//DTD SVG 20010904//EN" "http://www.w3.org/TR/2001/REC-SVG-20010904/DTD/svg10.dtd">
<svg version="1.0" xmlns="http://www.w3.org/2000/svg" width="652px" height="281px" viewBox="0 0 6520 2810" preserveAspectRatio="xMidYMid meet">
<g id="layer101" fill="#efefef" stroke="none">
 <path d="M0 2773 c0 -47 57 -444 67 -470 5 -10 42 -76 83 -146 l74 -127 741 0 741 0 57 138 c50 122 60 157 82 298 14 87 29 201 32 252 l6 92 -45 0 c-34 0 -52 -6 -72 -25 -14 -13 -26 -29 -26 -35 0 -17 -33 -11 -57 12 -13 12 -36 21 -53 21 -17 0 -40 -9 -53 -21 -28 -26 -44 -28 -69 -5 -10 9 -32 16 -48 16 -16 0 -38 -7 -48 -16 -25 -22 -48 -21 -79 3 -14 11 -31 20 -37 20 -6 0 -28 -9 -49 -20 -47 -26 -53 -25 -89 5 -16 14 -36 25 -43 25 -7 0 -27 -11 -43 -25 -36 -30 -45 -31 -88 -5 -35 22 -74 20 -95 -6 -17 -20 -53 -17 -74 6 -10 11 -30 20 -45 20 -15 0 -35 -9 -45 -20 -21 -23 -52 -25 -79 -5 -26 20 -71 19 -107 -2 -27 -16 -30 -16 -70 6 l-42 24 -43 -23 -42 -24 -45 24 -44 23 -35 -21 c-47 -29 -54 -28 -92 13 -29 30 -40 35 -80 35 l-46 0 0 -37z"/>
 <path d="M2690 2773 c0 -47 57 -444 67 -470 5 -10 42 -76 83 -146 l74 -127 741 0 741 0 57 138 c50 122 60 157 82 298 14 87 29 201 32 252 l6 92 -45 0 c-34 0 -52 -6 -72 -25 -14 -13 -26 -29 -26 -35 0 -17 -33 -11 -57 12 -13 12 -36 21 -53 21 -17 0 -40 -9 -53 -21 -28 -26 -44 -28 -69 -5 -10 9 -32 16 -48 16 -16 0 -38 -7 -48 -16 -25 -22 -48 -21 -79 3 -14 11 -31 20 -37 20 -6 0 -28 -9 -49 -20 -47 -26 -53 -25 -89 5 -16 14 -36 25 -43 25 -7 0 -27 -11 -43 -25 -36 -30 -45 -31 -88 -5 -35 22 -74 20 -95 -6 -17 -20 -53 -17 -74 6 -10 11 -30 20 -45 20 -15 0 -35 -9 -45 -20 -21 -23 -52 -25 -79 -5 -26 20 -71 19 -107 -2 -27 -16 -30 -16 -70 6 l-42 24 -43 -23 -42 -24 -45 24 -44 23 -35 -21 c-47 -29 -54 -28 -92 13 -29 30 -40 35 -80 35 l-46 0 0 -37z"/>
 <path d="M1504 1736 c-6 -14 26 -278 50 -415 12 -67 25 -99 86 -205 l72 -126 687 0 687 0 47 118 c26 65 52 133 57 152 15 53 60 382 60 440 l0 50 -39 0 c-41 0 -91 -31 -91 -56 0 -22 -29 -17 -62 11 -34 29 -58 26 -96 -8 l-22 -21 -39 22 c-40 23 -79 19 -96 -7 -10 -17 -34 -13 -67 11 l-31 21 -41 -21 c-51 -27 -52 -27 -88 3 -34 28 -64 26 -87 -6 -17 -24 -27 -24 -78 3 l-42 22 -30 -22 c-37 -27 -46 -27 -78 -2 -14 11 -36 20 -48 20 -12 0 -30 -9 -40 -20 -21 -24 -44 -25 -71 -5 -25 19 -78 19 -94 0 -17 -20 -32 -19 -74 6 l-35 21 -41 -23 c-34 -19 -44 -21 -58 -11 -43 31 -62 33 -102 10 l-39 -23 -36 38 c-30 30 -43 37 -76 37 -25 0 -42 -5 -45 -14z"/>
 <path d="M3954 1736 c-6 -14 26 -278 50 -415 12 -67 25 -99 86 -205 l72 -126 687 0 687 0 47 118 c26 65 52 133 57 152 15 53 60 382 60 440 l0 50 -39 0 c-41 0 -91 -31 -91 -56 0 -22 -29 -17 -62 11 -34 29 -58 26 -96 -8 l-22 -21 -39 22 c-40 23 -79 19 -96 -7 -10 -17 -34 -13 -67 11 l-31 21 -41 -21 c-51 -27 -52 -27 -88 3 -34 28 -64 26 -87 -6 -17 -24 -27 -24 -78 3 l-42 22 -30 -22 c-37 -27 -46 -27 -78 -2 -14 11 -36 20 -48 20 -12 0 -30 -9 -40 -20 -21 -24 -44 -25 -71 -5 -25 19 -78 19 -94 0 -17 -20 -32 -19 -74 6 l-35 21 -41 -23 c-34 -19 -44 -21 -58 -11 -43 31 -62 33 -102 10 l-39 -23 -36 38 c-30 30 -43 37 -76 37 -25 0 -42 -5 -45 -14z"/>
 <path d="M744 558 c4 -40 17 -134 30 -208 l23 -135 69 -108 68 -107 650 2 649 3 49 109 c42 94 52 132 73 260 14 83 25 174 25 203 l0 53 -44 0 c-36 0 -49 -5 -64 -25 -24 -31 -35 -31 -72 -3 -31 22 -44 20 -92 -14 -14 -10 -23 -9 -47 5 -37 21 -52 21 -90 0 -29 -17 -32 -17 -66 1 -34 19 -36 19 -76 1 -32 -15 -44 -16 -57 -7 -48 34 -61 36 -92 14 -35 -26 -40 -27 -85 -5 -34 16 -37 16 -71 -2 -34 -18 -37 -18 -66 -2 -37 21 -72 22 -88 2 -15 -18 -51 -20 -68 -3 -14 14 -71 13 -85 -1 -16 -16 -41 -13 -75 6 -29 16 -32 16 -65 -2 -35 -18 -36 -18 -77 0 -39 18 -43 18 -70 2 -38 -23 -49 -21 -76 8 -18 20 -33 25 -70 25 l-47 0 7 -72z"/>
 <path d="M2814 558 c4 -40 17 -134 30 -208 l23 -135 69 -108 68 -107 650 2 649 3 49 109 c42 94 52 132 73 260 14 83 25 174 25 203 l0 53 -44 0 c-36 0 -49 -5 -64 -25 -24 -31 -35 -31 -72 -3 -31 22 -44 20 -92 -14 -14 -10 -23 -9 -47 5 -37 21 -52 21 -90 0 -29 -17 -32 -17 -66 1 -34 19 -36 19 -76 1 -32 -15 -44 -16 -57 -7 -48 34 -61 36 -92 14 -35 -26 -40 -27 -85 -5 -34 16 -37 16 -71 -2 -34 -18 -37 -18 -66 -2 -37 21 -72 22 -88 2 -15 -18 -51 -20 -68 -3 -14 14 -71 13 -85 -1 -16 -16 -41 -13 -75 6 -29 16 -32 16 -65 -2 -35 -18 -36 -18 -77 0 -39 18 -43 18 -70 2 -38 -23 -49 -21 -76 8 -18 20 -33 25 -70 25 l-47 0 7 -72z"/>
 <path d="M4884 558 c4 -40 17 -134 30 -208 l23 -135 69 -108 68 -107 650 2 649 3 49 109 c42 94 52 132 73 260 14 83 25 174 25 203 l0 53 -44 0 c-36 0 -49 -5 -64 -25 -24 -31 -35 -31 -72 -3 -31 22 -44 20 -92 -14 -14 -10 -23 -9 -47 5 -37 21 -52 21 -90 0 -29 -17 -32 -17 -66 1 -34 19 -36 19 -76 1 -32 -15 -44 -16 -57 -7 -48 34 -61 36 -92 14 -35 -26 -40 -27 -85 -5 -34 16 -37 16 -71 -2 -34 -18 -37 -18 -66 -2 -37 21 -72 22 -88 2 -15 -18 -51 -20 -68 -3 -14 14 -71 13 -85 -1 -16 -16 -41 -13 -75 6 -29 16 -32 16 -65 -2 -35 -18 -36 -18 -77 0 -39 18 -43 18 -70 2 -38 -23 -49 -21 -76 8 -18 20 -33 25 -70 25 l-47 0 7 -72z"/>
 </g>

</svg>