<!DOCTYPE svg PUBLIC "-//W3C//DTD SVG 20010904//EN" "http://www.w3.org/TR/2001/REC-SVG-20010904/DTD/svg10.dtd">
<svg version="1.0" xmlns="http://www.w3.org/2000/svg" width="188px" height="78px" viewBox="0 0 1880 780" preserveAspectRatio="xMidYMid meet">
<g id="layer101" fill="#bcbcbc" stroke="none">
 <path d="M0 743 c0 -47 57 -444 67 -470 5 -10 42 -76 83 -146 l74 -127 741 0 741 0 57 138 c50 122 60 157 82 298 14 87 29 201 32 252 l6 92 -45 0 c-34 0 -52 -6 -72 -25 -14 -13 -26 -29 -26 -35 0 -17 -33 -11 -57 12 -30 28 -76 28 -106 0 -28 -26 -44 -28 -69 -5 -10 9 -32 16 -48 16 -16 0 -38 -7 -48 -16 -25 -22 -48 -21 -79 3 -14 11 -31 20 -37 20 -6 0 -28 -9 -49 -20 -47 -26 -53 -25 -89 5 -37 31 -49 31 -86 0 -36 -30 -45 -31 -88 -5 -35 22 -74 20 -95 -6 -17 -20 -53 -17 -74 6 -10 11 -30 20 -45 20 -15 0 -35 -9 -45 -20 -21 -23 -52 -25 -79 -5 -26 20 -71 19 -107 -2 -27 -16 -30 -16 -70 6 l-42 24 -43 -23 -42 -24 -45 24 -44 23 -35 -21 c-47 -29 -54 -28 -92 13 -29 30 -40 35 -80 35 l-46 0 0 -37z"/>
 </g>
<g id="layer102" fill="#efefef" stroke="none">
 <path d="M0 743 c0 -87 61 -458 82 -500 12 -24 25 -43 30 -43 4 0 8 -5 8 -11 0 -6 23 -51 52 -100 l52 -89 741 0 741 0 57 138 c50 122 60 157 82 298 14 87 29 201 32 252 l6 92 -45 0 c-35 0 -50 -6 -69 -26 -22 -24 -24 -33 -23 -124 1 -80 -2 -97 -14 -96 -23 4 -33 32 -39 110 -3 40 -12 81 -19 91 -21 28 -69 24 -94 -8 -25 -32 -50 -34 -75 -7 -10 11 -30 20 -45 20 -15 0 -35 -9 -45 -20 -24 -27 -57 -25 -84 4 -15 16 -29 22 -44 18 -30 -7 -57 -31 -57 -51 0 -9 -3 -12 -8 -6 -4 6 -16 16 -27 23 -11 7 -33 21 -50 32 -39 26 -42 25 -73 -10 -32 -36 -43 -37 -89 -6 -37 26 -52 25 -92 -6 -31 -23 -34 -23 -80 8 -41 27 -61 25 -91 -10 -7 -9 -23 -16 -37 -16 -14 0 -21 -4 -18 -10 3 -5 1 -10 -5 -10 -7 0 -10 6 -7 14 7 17 -33 46 -61 46 -11 0 -31 -9 -45 -20 -14 -11 -32 -20 -40 -20 -7 0 -22 9 -32 20 -23 25 -63 25 -95 0 -32 -25 -42 -25 -85 4 -59 40 -87 22 -99 -67 -5 -34 -11 -47 -21 -44 -8 4 -16 -6 -21 -26 -7 -27 -9 -21 -11 38 -4 91 -9 110 -35 135 -15 14 -35 20 -65 20 l-43 0 0 -37z"/>
 </g>

</svg>