<?xml version="1.0" encoding="UTF-8" standalone="no"?>
<!-- Created with Inkscape (http://www.inkscape.org/) -->

<svg
   xmlns:dc="http://purl.org/dc/elements/1.1/"
   xmlns:cc="http://creativecommons.org/ns#"
   xmlns:rdf="http://www.w3.org/1999/02/22-rdf-syntax-ns#"
   xmlns:svg="http://www.w3.org/2000/svg"
   xmlns="http://www.w3.org/2000/svg"
   xmlns:sodipodi="http://sodipodi.sourceforge.net/DTD/sodipodi-0.dtd"
   xmlns:inkscape="http://www.inkscape.org/namespaces/inkscape"
   version="1.1"
   id="svg5720"
   width="200"
   height="200"
   viewBox="0 0 200 200"
   sodipodi:docname="Trustee1.svg"
   inkscape:version="0.92.2 (5c3e80d, 2017-08-06)">
  <metadata
     id="metadata5726">
    <rdf:RDF>
      <cc:Work
         rdf:about="">
        <dc:format>image/svg+xml</dc:format>
        <dc:type
           rdf:resource="http://purl.org/dc/dcmitype/StillImage" />
        <dc:title></dc:title>
      </cc:Work>
    </rdf:RDF>
  </metadata>
  <defs
     id="defs5724" />
  <sodipodi:namedview
     pagecolor="#ffffff"
     bordercolor="#666666"
     borderopacity="1"
     objecttolerance="10"
     gridtolerance="10"
     guidetolerance="10"
     inkscape:pageopacity="0"
     inkscape:pageshadow="2"
     inkscape:window-width="640"
     inkscape:window-height="480"
     id="namedview5722"
     showgrid="false"
     inkscape:zoom="1.18"
     inkscape:cx="100"
     inkscape:cy="100"
     inkscape:window-x="0"
     inkscape:window-y="0"
     inkscape:window-maximized="0"
     inkscape:current-layer="svg5720" />
  <path
     inkscape:connector-curvature="0"
     id="path5848"
     d="M 1.1525428,100.23729 V 0.2372881 h 99.9999972 100 v 100.0000019 100 h -100 -99.9999972 z"
     style="fill:#fdfdfd" />
  <path
     inkscape:connector-curvature="0"
     id="path5846"
     d="m 14.176989,198.98729 c 0.05918,-3.02613 2.167946,-10.63751 4.157782,-15.0071 2.700991,-5.93126 8.187032,-9.38409 18.200987,-11.4554 12.049035,-2.49226 33.925717,-10.10648 35.936268,-12.50768 2.269383,-2.71032 3.349736,-1.37029 4.208579,5.22018 0.856064,6.56914 2.326053,12.86245 4.902635,20.98912 l 2.278778,7.18738 3.199833,-5.6698 c 1.759908,-3.11838 4.981266,-7.60242 7.158572,-9.96451 l 3.958738,-4.29473 -2.263309,-1.4815 c -1.24482,-0.81482 -4.617715,-2.67398 -7.495322,-4.13146 -6.346234,-3.2143 -8.079435,-5.67043 -9.03533,-12.80398 -0.664448,-4.95858 -1.215264,-5.89521 -5.916531,-10.06069 -2.85113,-2.52619 -6.103593,-4.88499 -7.227695,-5.24176 -1.353093,-0.42946 -2.39957,-2.06463 -3.096458,-4.83838 -2.348964,-9.34932 -5.371494,-15.60425 -8.08309,-16.72743 -2.814904,-1.16597 -4.129555,-3.35434 -5.847228,-9.73329 -0.585676,-2.17503 -2.200815,-5.62852 -3.589199,-7.67442 -5.038077,-7.424024 -5.756277,-17.144559 -1.351822,-18.296349 1.849345,-0.483615 1.956294,-0.984813 1.204462,-5.644472 -0.453803,-2.812552 -0.823268,-9.613731 -0.821034,-15.113731 0.0035,-8.727637 0.342046,-10.722085 2.660407,-15.675146 3.226545,-6.893349 9.863855,-14.319943 14.165836,-15.850382 1.792606,-0.637724 4.907514,-3.339172 7.169695,-6.218019 2.607236,-3.317963 6.263242,-6.337971 10.5,-8.673423 6.296361,-3.470777 6.81329,-3.579701 16.5,-3.476765 7.687947,0.0817 12.080847,0.722851 18.999997,2.773099 19.79692,5.866123 30.83383,13.769519 36.79072,26.345371 l 3.20928,6.775265 -10e-4,16.731638 -0.001,16.731637 2.71818,1.125909 c 1.495,0.619249 2.99449,1.99649 3.33221,3.060535 1.01676,3.203521 -0.52632,9.425297 -3.50087,14.115668 -1.54214,2.431705 -3.36606,6.179285 -4.05316,8.327945 -2.3746,7.42572 -3.00489,8.50624 -5.94687,10.1947 -3.03216,1.74022 -6.22631,8.32242 -7.60506,15.6718 -0.40953,2.18299 -1.69701,4.32689 -3.30614,5.50539 -1.44948,1.06156 -4.98555,3.86616 -7.85793,6.23245 -5.04322,4.15462 -5.22346,4.47795 -5.25,9.41747 -0.0367,6.83502 -2.26932,9.47855 -12.23821,14.49081 l -7.99964,4.02214 3.85696,3.30141 c 2.12132,1.81577 5.62241,6.3202 7.78019,10.00983 l 3.92323,6.70843 2.87141,-9.32388 c 1.57928,-5.12813 3.30094,-12.6768 3.82592,-16.77481 1.11307,-8.6887 2.12346,-10.25861 4.66273,-7.24483 2.0134,2.38964 24.32447,10.15234 36.01294,12.52999 7.04952,1.43401 13.53505,4.52343 16.00507,7.62412 1.78453,2.24018 4.92103,10.86862 5.74037,15.79165 l 0.70734,4.25 H 152.6329 116.93659 l 0.62673,-2.49709 c 0.60797,-2.42234 -2.17688,-9.23995 -5.68237,-13.91106 -1.40902,-1.87753 -1.47499,-1.87753 -4.11178,0 -2.81838,2.00684 -2.86655,2.65507 -0.97766,13.15815 l 0.58448,3.25 h -7.08629 -7.086287 l 0.560664,-3.25 c 0.308365,-1.7875 0.972115,-4.55465 1.475,-6.14922 1.357325,-4.30388 1.15693,-5.21181 -1.540412,-6.97917 -2.44785,-1.6039 -2.464823,-1.5904 -6.039811,4.80228 -2.654524,4.74673 -3.416811,7.08106 -2.936844,8.9934 l 0.647349,2.58271 H 49.760951 c -27.833098,0 -35.60307,-0.27295 -35.583962,-1.25 z m 95.725551,-65.86521 c 1.2375,-0.45941 2.25,-1.07143 2.25,-1.36004 0,-0.28861 -5.04,-0.52475 -11.2,-0.52475 -7.625315,0 -10.8739,0.3261 -10.178288,1.02171 2.580183,2.58018 13.210918,3.05985 19.128288,0.86308 z M 89.621293,92.147555 c 0.712668,-0.727168 0.25893,-1.684128 -1.46875,-3.097678 -2.395472,-1.959924 -2.514769,-1.967409 -2.853238,-0.179018 -0.19428,1.026536 -1.09428,2.722631 -2,3.769101 -1.585592,1.831996 -1.517914,1.877731 1.821988,1.23125 1.907813,-0.369282 3.932812,-1.144927 4.5,-1.723655 z m 29.186237,0.260992 c -0.91025,-1.005807 -1.65499,-2.591181 -1.65499,-3.523053 0,-1.577416 -0.17248,-1.581297 -2.5,-0.05625 -1.375,0.900935 -2.5,2.050809 -2.5,2.555277 0,1.08571 3.70574,2.699565 6.40499,2.78938 1.78247,0.05931 1.79855,-0.05422 0.25,-1.765355 z M 74.483903,89.987288 C 73.69396,85.83736 73.862274,85.95679 70.781769,87.360362 c -3.208736,1.461999 -3.287837,2.302209 -0.40672,4.320222 3.580592,2.507944 4.811968,2.000483 4.108854,-1.693296 z m 7.086853,2.643011 c 0.869983,-0.333844 1.581787,-1.024676 1.581787,-1.535184 0,-0.510507 -0.976876,-0.405386 -2.170835,0.233601 -1.76482,0.944503 -2.391166,0.860475 -3.348877,-0.449273 -0.647923,-0.886087 -1.467143,-1.321967 -1.820489,-0.968621 -0.86697,0.86697 1.263056,3.326466 2.880858,3.326466 0.712673,0 2.007572,-0.273145 2.877556,-0.606989 z m 44.369154,-1.240117 c 0.35493,-1.076782 0.0165,-1.118296 -1.6865,-0.206875 -1.72046,0.92076 -2.24452,0.843212 -2.7227,-0.402895 -0.74243,-1.934749 -2.37817,-2.021728 -2.37817,-0.126457 0,2.667511 5.93847,3.311658 6.78737,0.736227 z m 5.99012,0.290402 c 2.88112,-2.018013 2.80202,-2.858223 -0.40672,-4.320222 -3.0805,-1.403572 -2.91219,-1.523002 -3.70213,2.626926 -0.70311,3.693779 0.52826,4.20124 4.10885,1.693296 z M 84.152543,88.296305 c 0,-1.17986 -1.950354,-2.441996 -2.666667,-1.725684 -0.716312,0.716313 0.545824,2.666667 1.725684,2.666667 0.517541,0 0.940983,-0.423442 0.940983,-0.940983 z m 42.999997,-0.559017 c 0,-0.825 -0.675,-1.5 -1.5,-1.5 -1.56157,0 -1.98397,1.1827 -0.83333,2.333333 1.15063,1.150634 2.33333,0.728241 2.33333,-0.833333 z"
     style="fill:#f2c9b5" />
  <path
     inkscape:connector-curvature="0"
     id="path5844"
     d="m 14.779995,195.98729 c 0.750568,-4.89937 3.847739,-13.54909 5.644462,-15.76375 2.574198,-3.17299 7.378106,-5.31058 18.118041,-8.06197 16.085575,-4.12087 31.621442,-9.58636 34.238664,-12.04511 l 2.269742,-2.13231 0.528012,2.37657 c 0.290407,1.30711 1.024156,5.27774 1.630555,8.82362 0.606399,3.54588 2.641662,11.79436 4.522807,18.32997 1.881146,6.53561 3.420265,12.07194 3.420265,12.30295 0,0.23102 -15.980318,0.42003 -35.511818,0.42003 H 14.128908 Z m 79.370683,0.5 c 0.401273,-2.0625 1.060038,-5.40609 1.463923,-7.4302 0.620887,-3.11165 0.410184,-3.88264 -1.363861,-4.99055 -2.858033,-1.78487 -2.669701,-2.65965 1.489638,-6.9192 l 3.587835,-3.67428 -3.337835,-2.49983 c -1.835809,-1.37491 -4.912835,-3.28059 -6.837835,-4.23486 -5.963604,-2.95629 -7.907158,-5.4312 -9.206918,-11.72401 -1.250713,-6.05535 -3.545149,-8.71587 -13.174989,-15.27707 -2.146836,-1.46273 -3.410999,-3.61182 -4.70585,-8 -3.244233,-10.99454 -4.358134,-13.5 -6.001946,-13.5 -2.390835,0 -4.409937,-2.86187 -6.349668,-9 -0.955941,-3.025 -3.027462,-7.45842 -4.60338,-9.852043 -1.575919,-2.393623 -3.17428,-6.412418 -3.551913,-8.930656 -0.623641,-4.158734 -0.437971,-4.792481 2.024649,-6.910737 l 2.711254,-2.332123 -1.203746,-7.461981 c -1.85636,-11.507506 -0.87178,-21.172356 2.947133,-28.929669 3.136524,-6.371185 10.878311,-14.582793 13.74845,-14.582793 0.743322,0 2.592467,-1.459595 4.10921,-3.243545 11.17595,-13.144833 22.005443,-17.4471661 37.275181,-14.808656 10.63937,1.838414 25.6284,7.023507 31.74861,10.982668 7.76047,5.020246 14.65746,12.938807 17.30474,19.867901 2.5743,6.738074 3.55919,21.002204 2.20181,31.888882 -0.49287,3.952987 -0.64334,7.162197 -0.33438,7.131579 2.5369,-0.251414 4.24574,0.532337 5.57116,2.555195 2.06186,3.146783 0.63272,9.755565 -3.52856,16.317228 -1.66656,2.6279 -3.50566,6.58492 -4.08688,8.79337 -1.39149,5.28722 -3.53386,8.51193 -5.66702,8.53006 -1.85374,0.0157 -5.87733,9.05604 -6.93705,15.58629 -0.34527,2.12767 -1.52038,4.18562 -2.97399,5.20829 -1.32174,0.92991 -4.85853,3.65836 -7.85954,6.06322 -4.63031,3.71051 -5.45637,4.87395 -5.45637,7.6849 0,6.87984 -3.26512,11.24413 -11,14.70306 -2.475,1.10678 -5.72688,2.87403 -7.22639,3.92723 l -2.72639,1.91489 3.47639,3.05231 c 3.96221,3.47887 4.43832,6.25995 1.35425,7.9105 -2.20185,1.17839 -2.24665,3.12338 -0.2922,12.68463 l 0.66434,3.25 h -6.99072 -6.990729 z m 16.823932,-63.6435 c 1.47534,-1.47533 0.6319,-1.6065 -10.33029,-1.6065 -10.434651,0 -11.688567,0.17363 -9.964283,1.37979 3.022595,2.11433 5.41606,2.53549 12.330283,2.16963 4.13606,-0.21886 6.91918,-0.89781 7.96429,-1.94292 z M 82.429877,102.17716 c 4.962598,-1.37812 10.314307,-6.172501 11.75171,-10.527875 2.339622,-7.089125 -3.997772,-11.772716 -16.029044,-11.846114 -8.976938,-0.05476 -13.904457,1.984627 -16.517135,6.836077 -2.257313,4.191577 -1.403838,7.935303 2.678405,11.748689 4.749236,4.436453 11.044133,5.753113 18.116064,3.789223 z m -6.007702,-4.568983 c -2.976709,-1.359557 -7.269632,-4.794285 -7.269632,-5.816365 0,-0.34369 1.0125,-0.08253 2.25,0.580347 1.2375,0.662882 5.509239,1.241214 9.492754,1.285184 6.818403,0.07526 7.243179,0.211772 7.25,2.329945 0.004,1.2375 -0.330254,2.29822 -0.742754,2.357155 -4.21934,0.60283 -8.707345,0.301896 -10.980368,-0.736266 z m 1.730368,-7.811872 c 0,-2.107512 1.599037,-2.747074 2.912217,-1.16479 0.876838,1.056526 0.769063,1.5141 -0.468481,1.98899 -2.25381,0.864868 -2.443736,0.800811 -2.443736,-0.8242 z m 10.411836,-1.404232 c -1.70614,-2.045698 -3.208787,-2.584811 -8.213556,-2.946824 -7.748985,-0.560511 -11.036327,0.265492 -12.225836,3.071956 -0.850451,2.00651 -0.918437,1.932192 -0.706708,-0.772529 0.17439,-2.227751 1.001013,-3.353435 3.234264,-4.404374 1.65,-0.77647 3.242856,-1.778214 3.539679,-2.226099 0.296824,-0.447885 3.342808,0.317898 6.768854,1.701739 3.426046,1.383841 6.671533,2.242683 7.212194,1.908536 0.54066,-0.334146 1.446954,0.612705 2.013986,2.104113 1.463427,3.849103 0.809104,4.479478 -1.622877,1.563482 z M 136.61632,99.47894 c 5.08969,-3.577166 6.53392,-7.926249 4.23384,-12.749564 -1.98556,-4.163754 -6.14518,-6.437166 -13.00138,-7.105812 l -5.19624,-0.506758 6.25,3.651437 c 4.69103,2.74064 6.23419,4.18992 6.18661,5.810241 l -0.0634,2.158804 -0.89332,-2.220083 c -1.13283,-2.815301 -4.47134,-3.647597 -12.06447,-3.007694 -8.54506,0.720124 -12.86136,5.080799 -7.74136,7.820942 2.49018,1.332704 13.64394,0.609777 16.82039,-1.090207 2.68786,-1.438495 2.52768,-0.616012 -0.46234,2.374002 -4.26623,4.266233 -10.4152,5.331963 -16.53213,2.865326 l -3.5,-1.411367 2.09093,2.147693 c 5.47824,5.62696 16.81068,6.22652 23.87285,1.26304 z M 121.35398,89.429829 c 0.40687,-2.112719 3.16674,-2.23478 3.56674,-0.157747 0.18313,0.950895 -0.50112,1.594808 -1.79856,1.692541 -1.47204,0.110886 -1.99731,-0.345051 -1.76818,-1.534794 z m -4.20144,110.387431 c 0,-0.23101 1.58827,-5.93809 3.52948,-12.68238 1.94121,-6.7443 3.97162,-15.37992 4.51203,-19.19027 1.29684,-9.1439 2.01624,-10.40598 4.41847,-7.75154 1.95152,2.1564 24.45416,9.94975 36.2277,12.54676 10.36495,2.2863 14.72227,4.97485 17.73146,10.94064 1.97107,3.90768 4.58086,13.13328 4.58086,16.19331 0,0.19993 -15.975,0.36351 -35.5,0.36351 -19.525,0 -35.5,-0.18901 -35.5,-0.42003 z"
     style="fill:#f3af96" />
  <path
     inkscape:connector-curvature="0"
     id="path5842"
     d="m 14.152543,199.87378 c 0,-3.06003 2.609792,-12.28563 4.580858,-16.19331 2.876645,-5.70301 7.494291,-8.74806 15.919142,-10.49769 13.273728,-2.7566 36.069273,-10.56679 38.520463,-13.19783 1.720215,-1.84643 1.810625,-1.84971 2.327673,-0.0844 0.295869,1.01018 0.829762,4.08669 1.18643,6.83669 0.356668,2.75 2.4073,11.22886 4.556961,18.84191 2.14966,7.61311 3.908473,14.02561 3.908473,14.25005 0,0.22445 -15.975,0.40809 -35.5,0.40809 -19.525,0 -35.5,-0.16358 -35.5,-0.36351 z m 79.998135,-3.38649 c 0.401273,-2.0625 1.060038,-5.40609 1.463923,-7.4302 0.620887,-3.11165 0.410184,-3.88264 -1.363861,-4.99055 -1.154009,-0.72069 -2.098197,-1.6508 -2.098197,-2.06692 0,-1.39426 7.216066,-8.76233 8.581567,-8.76233 2.14012,0 8.41843,6.01727 8.41843,8.06841 0,1.02367 -0.95496,2.3723 -2.12214,2.99696 -2.20185,1.17839 -2.24665,3.12338 -0.2922,12.68463 l 0.66434,3.25 h -6.99072 -6.990729 z m 23.001862,3.34191 c 0,-0.22444 1.75881,-6.63694 3.90847,-14.25 2.14966,-7.61305 4.2003,-16.09191 4.55696,-18.84191 0.35667,-2.75 0.90488,-5.87162 1.21825,-6.93694 0.53779,-1.82825 0.64174,-1.83851 1.85244,-0.18278 2.01548,2.75633 26.88027,11.25405 41.46388,14.17057 6.23704,1.24733 10.6173,4.51177 13.30226,9.91368 1.97135,3.9662 4.69774,13.30114 4.69774,16.08469 0,0.24793 -15.975,0.45078 -35.5,0.45078 -19.525,0 -35.5,-0.18364 -35.5,-0.40809 z m -29.307288,-38.518 c -6.4721,-2.59046 -7.425615,-3.53352 -8.198593,-8.10873 -0.524111,-3.10219 -1.726424,-4.81083 -5.764762,-8.19244 -2.806395,-2.35001 -5.9869,-4.72274 -7.067789,-5.27274 -2.316879,-1.17892 -2.874107,-2.20551 -5.15655,-9.5 -3.274728,-10.46574 -3.99004,-12 -5.594718,-12 -2.403298,0 -4.588298,-2.97169 -5.882177,-8 -0.636864,-2.475 -2.652292,-6.975 -4.478729,-10 -1.826437,-3.025002 -3.634023,-7.396163 -4.016857,-9.713693 -0.615065,-3.723374 -0.384041,-4.525711 1.985376,-6.895128 l 2.681436,-2.681436 -1.23673,-7.950059 C 43.58589,63.166392 44.369957,52.794881 47.110817,46.598711 49.987356,40.095819 55.78881,33.302352 60.122514,31.362095 62.120074,30.467761 66.543609,26.754404 69.95259,23.110192 78.211736,14.28114 83.612209,11.877026 95.152543,11.892 c 10.645977,0.01381 22.221397,2.9906 34.591577,8.895721 11.11986,5.308261 18.97065,13.060003 22.44821,22.164987 2.61156,6.837636 3.59727,21.02722 2.22534,32.03458 -0.8729,7.00357 -0.83158,7.25 1.21563,7.25 5.76264,0 6.22833,8.118887 1.00176,17.464869 -1.93461,3.459413 -4.21732,8.646463 -5.07268,11.526783 -1.20081,4.04357 -2.16531,5.46724 -4.23254,6.24753 -2.76655,1.04425 -6.40795,8.4405 -7.8101,15.86351 -0.65721,3.4793 -2.94306,6.89731 -4.6127,6.89731 -0.51453,0 -3.36979,2.07966 -6.34501,4.62147 -4.84605,4.14011 -5.40949,5.03122 -5.40949,8.55533 0,3.81073 -0.17996,4.01797 -5.75,6.62174 -7.72072,3.60911 -22.168971,4.23255 -29.557288,1.27537 z m 23.375788,-8.68303 c 2.98732,-0.88502 7.29623,-2.69979 9.57535,-4.03282 5.73702,-3.35551 13.02146,-11.41196 15.4606,-17.09911 2.61192,-6.09002 10.89555,-34.88245 10.89555,-37.871021 0,-4.074361 -1.90429,-3.569753 -4.09195,1.084307 -2.28981,4.87135 -5.34599,7.522444 -10.80727,9.374814 -10.54202,3.57565 -23.13316,-2.48999 -26.14914,-12.597052 -1.19399,-4.001253 -1.4838,-4.25 -4.95164,-4.25 -3.467836,0 -3.757648,0.248747 -4.951634,4.25 -4.877152,16.344182 -29.768226,18.514442 -36.956409,3.222238 -2.21344,-4.708891 -4.091954,-5.149145 -4.091954,-0.959001 0,3.036425 8.203332,31.462405 10.885049,37.718595 7.095778,16.55378 27.877984,26.28592 45.183448,21.15905 z M 99.402543,138.54796 c 0.962497,-0.25152 2.537497,-0.25152 3.499997,0 0.9625,0.25153 0.175,0.45733 -1.75,0.45733 -1.924997,0 -2.712497,-0.2058 -1.749997,-0.45733 z m -1,-3.02692 c 1.5125,-0.22913 3.987497,-0.22913 5.499997,0 1.5125,0.22912 0.275,0.41659 -2.75,0.41659 -3.024997,0 -4.262497,-0.18747 -2.749997,-0.41659 z m -2.5,-15.99519 c -2.0625,-0.22511 -3.75,-0.77403 -3.75,-1.21982 0,-0.44579 2.065754,-0.4246 4.590564,0.0471 2.833498,0.52936 5.296173,0.47998 6.434053,-0.129 1.01393,-0.54263 2.88567,-0.87416 4.15944,-0.73671 1.48361,0.16008 2.21719,-0.22606 2.04116,-1.07444 -0.15112,-0.72838 0.16672,-1.05147 0.70633,-0.71797 1.85408,1.14588 -0.12099,3.55901 -2.79142,3.41054 -1.45207,-0.0807 -3.76513,0.0729 -5.14013,0.34141 -1.375,0.26852 -4.187497,0.30403 -6.249997,0.0789 z m -37.213042,-4.03856 c -0.372361,-0.9625 -0.925295,-2.9802 -1.228743,-4.48377 -0.303447,-1.50357 -0.855919,-2.54576 -1.227715,-2.31598 -0.371795,0.22978 -1.329506,0.004 -2.128246,-0.50092 -1.201273,-0.75993 -1.146524,-0.92135 0.316798,-0.93402 1.420811,-0.0123 1.639638,-0.55665 1.111635,-2.76531 -0.361579,-1.5125 -1.214695,-3.84737 -1.895813,-5.188599 -1.172197,-2.30824 -1.232642,-2.219165 -1.130761,1.666329 0.0592,2.25771 0.422648,3.91024 0.807663,3.67229 0.385015,-0.23796 0.958265,-0.0148 1.273889,0.49588 0.67577,1.09342 -1.35324,0.91142 -3.285433,-0.2947 -1.090254,-0.68056 -1.135725,-0.44261 -0.236497,1.23761 0.6123,1.14409 1.053906,2.4359 0.981347,2.87068 -0.394516,2.364 0.323156,4.50875 2.104918,6.29051 2.545976,2.54598 5.487914,2.70809 4.536958,0.25 z m 88.955669,0.37905 c 1.03118,-0.75402 1.96722,-2.70474 2.08008,-4.33493 0.11287,-1.63019 0.96336,-4.43008 1.88998,-6.22198 0.92663,-1.7919 1.46769,-3.47509 1.20235,-3.74043 -0.26533,-0.26534 -0.79771,0.51094 -1.18306,1.72506 -1.02058,3.21556 -2.49592,0.38068 -1.82651,-3.509677 l 0.5243,-3.047095 -1.5253,2.739825 c -1.91353,3.437177 -2.4227,6.251137 -1.13808,6.289727 0.54098,0.0163 0.85235,-0.65874 0.69191,-1.5 -0.25774,-1.35151 -0.17095,-1.35495 0.74561,-0.0296 0.78882,1.14066 0.47376,1.97912 -1.31517,3.5 -1.85228,1.57474 -4.63874,7.07062 -4.63874,9.14922 0,0.85948 2.78779,0.22644 4.49263,-1.02017 z M 86.245259,100.93265 C 91.933855,97.957989 96.108361,90.843483 94.621904,86.656541 93.292338,82.911519 87.431837,80.109672 79.615807,79.482276 64.020175,78.230409 54.98876,88.286472 63.254148,97.700228 c 5.166818,5.884682 15.216923,7.297672 22.991111,3.232422 z M 72.652543,93.7021 c -2.082288,-1.002955 -2.29058,-1.267739 -0.680904,-0.865578 1.275502,0.318671 5.325502,0.930067 9,1.358659 l 6.680904,0.779257 -6,0.08632 c -3.359463,0.04833 -7.320268,-0.549599 -9,-1.358658 z m 5.5,-3.905795 c 0,-2.107512 1.599037,-2.747074 2.912217,-1.16479 0.876838,1.056526 0.769063,1.5141 -0.468481,1.98899 -2.25381,0.864868 -2.443736,0.800811 -2.443736,-0.8242 z m 11.341664,-0.83803 c -1.523101,-2.585995 -5.115044,-3.720987 -11.775923,-3.720987 -5.327467,0 -6.96006,0.394319 -8.656554,2.090813 -1.897232,1.897232 -2.058248,1.920379 -1.739079,0.25 0.214338,-1.121743 1.998658,-2.411617 4.567845,-3.302066 3.488743,-1.209156 5.205923,-1.253637 9.953472,-0.257828 5.334002,1.118819 10.479664,4.381325 9.094683,5.766306 -0.331529,0.331529 -0.981529,-0.04028 -1.444444,-0.826238 z m 42.840333,13.106345 c 8.66922,-2.597369 12.41711,-11.585011 7.34477,-17.613151 -6.25037,-7.428138 -25.93512,-6.625363 -31.10745,1.268611 -1.31643,2.009123 -1.39799,3.051807 -0.46084,5.891407 3.05718,9.263353 13.3581,13.708493 24.22352,10.453133 z m -11.0011,-7.869439 c 3.6745,-0.428592 7.7245,-1.039988 9,-1.358659 1.60968,-0.402161 1.40139,-0.137377 -0.6809,0.865578 -1.67973,0.80906 -5.64054,1.406991 -9,1.358659 l -6,-0.08632 z m -10.11061,-4.152129 c 0.099,-1.840062 1.41709,-4.999822 1.96875,-4.719704 0.25353,0.128732 2.20092,-0.34018 4.32754,-1.042028 6.88166,-2.271151 17.63342,0.235454 17.63342,4.110956 0,0.464756 -0.94682,-0.101809 -2.10405,-1.259034 -1.84693,-1.846937 -3.021,-2.057741 -9.60799,-1.725114 -6.73324,0.340014 -7.74961,0.664545 -9.89595,3.15981 -1.31561,1.529483 -2.36038,2.193284 -2.32172,1.475114 z m 10.13115,-0.613223 c 0.40687,-2.112719 3.16674,-2.23478 3.56674,-0.157747 0.18313,0.950895 -0.50112,1.594808 -1.79856,1.692541 -1.47204,0.110886 -1.99731,-0.345051 -1.76818,-1.534794 z m -70.631086,2.901087 c 0.529274,-1.710269 0.409853,-2.199428 -0.412827,-1.690983 -1.439769,0.889826 -1.527434,-0.632735 -0.117605,-2.042564 1.721862,-1.721862 -2.26723,-5.897523 -4.634161,-4.850899 -1.79935,0.795648 -1.784184,0.864146 0.271621,1.226793 1.197559,0.211252 2.772559,1.144578 3.5,2.074059 1.186473,1.516004 1.143698,1.5497 -0.415546,0.327342 -1.494359,-1.171493 -1.829008,-1.125896 -2.385796,0.32507 -0.356196,0.928232 -0.136521,3.393622 0.488167,5.478644 0.624688,2.085022 1.187546,4.86374 1.250795,6.17493 0.08584,1.779432 0.31732,1.496422 0.912828,-1.11602 0.438805,-1.925 1.132941,-4.582867 1.542524,-5.906372 z m -2.491404,1.323039 c 0.04798,-1.164943 0.284941,-1.4019 0.604167,-0.604167 0.288871,0.721875 0.253344,1.584375 -0.07895,1.916667 -0.332292,0.332291 -0.568641,-0.258334 -0.52522,-1.3125 z m 106.82137,-2.789112 c 0.0921,-4.502574 -0.0332,-4.768261 -1.65032,-3.5 -1.58606,1.243871 -1.62143,1.208501 -0.37756,-0.377555 0.75485,-0.9625 2.32985,-1.756891 3.5,-1.765313 1.74017,-0.01252 1.85444,-0.191817 0.62756,-0.984687 -4.28499,-2.769172 -7.06286,1.043967 -4.44645,6.103558 0.79555,1.538417 1.40587,3.606969 1.35626,4.596782 -0.0496,0.989813 -0.51662,0.321123 -1.03783,-1.485979 -0.5212,-1.807101 -1.37896,-3.019063 -1.90614,-2.693249 -0.57547,0.355663 -0.36055,1.748706 0.53783,3.485979 0.82298,1.591474 1.54119,3.703436 1.59601,4.693249 0.19838,3.581612 1.69994,-3.150299 1.80064,-8.072785 z m -8.43949,-7.377555 C 144.39185,70.259765 139.7174,58.325056 133.8316,50.853119 c -5.74943,-7.298804 -17.90855,-10.598623 -27.68566,-7.513508 -1.92137,0.606278 -10.276451,1.393778 -18.56685,1.75 -14.337178,0.616041 -15.281791,0.785563 -19.338689,3.470557 -6.710382,4.441162 -9.878978,12.760319 -11.589065,30.42712 -0.821612,8.488017 -0.143211,8.961085 5.195149,3.622725 8.356278,-8.356278 23.501459,-10.939864 30.742249,-5.244258 1.797377,1.413818 2.334513,2.442892 1.684131,3.226554 -1.886082,2.27259 1.104876,4.147569 6.534535,4.096386 5.68408,-0.05358 9.05863,-1.88678 7.32295,-3.97814 -2.67749,-3.226184 6.43054,-7.020555 14.78293,-6.158512 6.23767,0.643785 15.7542,4.910393 17.27006,7.742799 0.80441,1.503042 5.20282,4.690678 6.76451,4.902408 0.16243,0.02202 0.0119,-1.647462 -0.33448,-3.709962 z"
     style="fill:#df936e" />
  <path
     inkscape:connector-curvature="0"
     id="path5840"
     d="m 14.497837,198.48729 c 0.264037,-0.9625 0.774355,-3.48869 1.134039,-5.61375 0.359684,-2.12506 1.801622,-6.20376 3.204305,-9.06378 3.000638,-6.11818 7.055182,-8.63922 17.809218,-11.07346 14.578354,-3.29989 35.226238,-10.42646 36.586761,-12.62783 1.417597,-2.29372 2.704077,0.28465 3.404258,6.82284 0.395915,3.697 2.044366,11.01576 3.663225,16.2639 1.618858,5.24814 3.325187,11.22958 3.791842,13.29208 l 0.848463,3.75 h -35.46109 c -33.288684,0 -35.431681,-0.10721 -34.981021,-1.75 z m 79.654706,-0.59107 c 0,-1.28759 0.631442,-4.43919 1.403203,-7.00356 1.366842,-4.54167 1.339251,-4.7128 -1.064713,-6.60375 -1.927418,-1.51611 -2.256049,-2.33662 -1.500528,-3.74644 1.1219,-2.0935 6.776155,-7.30518 7.925535,-7.30518 1.67575,0 8.2365,6.23875 8.2365,7.83226 0,0.92765 -0.95307,2.28185 -2.11794,3.00932 -1.8774,1.17246 -2.0414,1.90958 -1.44409,6.49055 0.37062,2.84233 0.92248,6.18037 1.22635,7.41787 0.53091,2.16209 0.29429,2.25 -6.05591,2.25 -6.262665,0 -6.608407,-0.12248 -6.608407,-2.34107 z m 23.714507,0.0911 c 0.29,-1.2375 1.99672,-7.425 3.79271,-13.75 1.796,-6.325 3.58588,-14.31331 3.97751,-17.75179 0.69716,-6.12096 2.04627,-8.6251 3.43565,-6.37703 1.36053,2.20137 22.00841,9.32794 36.58676,12.62783 10.75404,2.43424 14.80858,4.95528 17.80922,11.07346 1.40269,2.86002 2.84462,6.93872 3.20431,9.06378 0.35968,2.12506 0.87,4.65125 1.13404,5.61375 0.45066,1.6428 -1.69294,1.75 -34.9937,1.75 H 117.33978 Z M 91.652543,154.85104 c -2.75,-0.66889 -6.440204,-1.93501 -8.200454,-2.81359 -2.282081,-1.13905 -3.335492,-1.26783 -3.671052,-0.4488 -0.25883,0.63175 -0.506126,0.13614 -0.549547,-1.10136 -0.04342,-1.2375 -0.416447,-2.25561 -0.828947,-2.26247 -0.4125,-0.007 -2.601028,-1.69435 -4.863395,-3.75 -2.262367,-2.05564 -5.456196,-4.46469 -7.097397,-5.35344 -2.193284,-1.18771 -3.13848,-2.56784 -3.566968,-5.2083 -0.32063,-1.97581 -1.626795,-6.25496 -2.902588,-9.50921 -1.726614,-4.40419 -3.004081,-6.17518 -4.996954,-6.9274 -2.052542,-0.77475 -3.030447,-2.19966 -4.190499,-6.10597 -0.832243,-2.80247 -3.106702,-7.9449 -5.054353,-11.427625 -2.924623,-5.229715 -3.496201,-7.191761 -3.282827,-11.268908 0.200543,-3.831978 0.708277,-5.137078 2.26896,-5.83222 1.918156,-0.854364 1.953239,-1.222203 0.763005,-8 -0.68618,-3.907453 -1.265461,-9.644558 -1.287292,-12.749124 -0.08439,-12.001954 7.085391,-26.097104 15.468048,-30.408781 2.195743,-1.129396 7.14226,-5.221071 10.99226,-9.092613 9.170465,-9.221775 13.564551,-10.813434 27.884656,-10.100594 16.364031,0.814586 34.129031,7.470089 43.609441,16.337905 10.29192,9.626887 13.95618,21.850377 12.41317,41.408748 l -0.90727,11.5 3,1.011546 c 2.85321,0.962051 2.99923,1.282415 2.98432,6.54729 -0.0126,4.456682 -0.62383,6.501156 -3.13564,10.488453 -1.71598,2.723993 -3.65277,6.752713 -4.30399,8.952713 -1.85772,6.2759 -3.23721,8.51022 -5.62419,9.10931 -1.66615,0.41818 -2.85698,2.32568 -4.82139,7.72302 -1.43481,3.94222 -2.60658,8.2011 -2.60393,9.46418 0.003,1.54792 -1.01762,2.8518 -3.13179,4 -1.72513,0.93692 -4.98763,3.38538 -7.25,5.44102 -2.26236,2.05565 -4.45089,3.74315 -4.86339,3.75 -0.4125,0.007 -0.8022,1.24997 -0.866,2.76247 -0.0638,1.5125 -0.31179,2.01445 -0.55109,1.11543 -0.39857,-1.49733 -0.74565,-1.48629 -4.134,0.13144 -8.02543,3.83164 -17.77566,4.7873 -26.698907,2.61688 z m 25.999997,-4.11222 c 8.43044,-4.02897 16.57068,-12.41152 19.43052,-20.0089 4.13962,-10.99722 10.77876,-35.562606 10.29509,-38.092748 -0.64068,-3.351513 -3.3573,-2.73929 -4.35216,0.980814 -1.81608,6.790814 -8.35794,10.619304 -18.14555,10.619304 -5.2562,0 -7.10648,-0.48841 -10.85418,-2.86513 -4.53165,-2.873892 -7.87372,-7.974585 -7.87372,-12.016949 0,-1.384484 -0.83581,-2.289594 -2.5,-2.707279 -3.874331,-0.972396 -7.499997,0.307825 -7.499997,2.648246 0,3.972758 -3.927926,9.814564 -8.336172,12.397972 -3.384467,1.98343 -5.702819,2.54314 -10.533804,2.54314 -9.644662,0 -16.197155,-3.86497 -18.003469,-10.619304 -0.423713,-1.584384 -1.525525,-3.026194 -2.448471,-3.204022 -2.791184,-0.53779 -2.072098,6.174319 2.241472,20.922386 7.225759,24.70482 10.205345,29.92241 21.068501,36.89328 7.547146,4.84299 12.247781,6.02933 22.51194,5.68157 7.45263,-0.25251 10.03158,-0.79794 15,-3.17238 z M 59.152543,116.68313 c 0,-1.66919 -5.282567,-19.085878 -6.017715,-19.840487 -0.50295,-0.516263 -1.143451,0.329618 -1.514401,2 -1.080569,4.865797 -1.196398,4.988347 -1.968541,2.082727 -0.504212,-1.89739 -0.186312,-4.055854 0.977441,-6.636597 1.630016,-3.614732 1.630566,-4.023004 0.01001,-7.438075 -1.701176,-3.584963 -2.859936,-4.174924 -5.905005,-3.006421 -2.156257,0.827433 -2.012782,2.31848 0.168213,1.748136 1.49644,-0.391327 1.763213,0.310471 1.841191,4.84362 0.113548,6.600935 0.644423,9.737287 2.082174,12.301257 0.616827,1.1 1.65952,4.025 2.317097,6.5 1.382224,5.20245 3.537923,8 6.164526,8 1.014754,0 1.84501,-0.24937 1.84501,-0.55416 z m 89.233717,-1.19584 c 0.84903,-0.9625 1.87297,-3.325 2.27542,-5.25 0.83562,-3.9969 2.93137,-8.41924 5.63226,-11.884861 1.02223,-1.311672 1.84058,-2.886672 1.81856,-3.5 -0.022,-0.613327 -0.73223,0.162143 -1.57826,1.723267 -1.9702,3.635524 -2.72034,2.931452 -1.27971,-1.201137 0.61106,-1.752874 0.92497,-4.780608 0.69759,-6.728298 -0.35723,-3.059973 -0.16008,-3.475003 1.45065,-3.053787 1.51595,0.396429 1.64378,0.222027 0.68448,-0.93386 -0.64878,-0.781729 -2.2146,-1.421326 -3.4796,-1.421326 -3.61187,0 -5.11603,5.702541 -2.97968,11.296498 1.24409,3.257611 1.38876,4.930515 0.60469,6.992764 -0.56684,1.49091 -1.29331,2.71074 -1.61439,2.71074 -0.32107,0 -0.29886,-0.46098 0.0494,-1.0244 0.76573,-1.23898 -0.3805,-6.975602 -1.3938,-6.975602 -0.39589,0 -1.7671,3.937502 -3.04714,8.750002 -1.28003,4.8125 -2.54784,9.5375 -2.81736,10.5 -0.3468,1.23847 0.0833,1.75 1.4716,1.75 1.07891,0 2.65631,-0.7875 3.50534,-1.75 z M 85.751474,101.33186 c 4.768094,-2.165414 8.289488,-6.632124 9.08287,-11.521169 0.459274,-2.830172 0.09763,-3.873315 -2.024722,-5.840246 -4.910776,-4.551154 -17.967632,-6.301547 -25.021297,-3.354337 -4.281146,1.788777 -7.635782,6.116955 -7.635782,9.851747 0,10.039295 14.17166,16.053645 25.598931,10.864005 z M 78.152543,89.705903 c 0,-0.807738 0.675,-1.468615 1.5,-1.468615 0.825,0 1.5,0.401855 1.5,0.893011 0,0.491156 -0.675,1.152033 -1.5,1.468615 -0.913711,0.350624 -1.5,0.0016 -1.5,-0.893011 z m -11,-1.313627 c 0,-3.260674 9.20239,-5.930059 14.5,-4.20609 2.971306,0.966934 2.961741,0.975703 -1,0.916795 -7.984636,-0.118726 -9.534634,0.168941 -11.5,2.134307 -1.1,1.1 -2,1.619744 -2,1.154988 z m 67.456117,12.866254 c 9.92765,-4.805893 9.87569,-16.477698 -0.0919,-20.642422 -7.4952,-3.131695 -22.84301,-0.630108 -26.0365,4.24377 -3.17551,4.846442 0.93314,13.229282 8.07335,16.471982 5.40337,2.45391 12.89734,2.42348 18.05505,-0.0733 z M 121.15254,89.737288 c 0,-0.825 0.64844,-1.5 1.44098,-1.5 2.11561,0 2.80217,1.692718 0.97149,2.395215 -2.22879,0.855266 -2.41247,0.787105 -2.41247,-0.895215 z m -9.9682,-0.09501 c -0.11262,-3.877593 11.04973,-7.267938 17.87658,-5.429659 2.25039,0.605968 4.09162,1.339739 4.09162,1.630603 0,0.290864 -0.98479,0.216284 -2.18842,-0.165733 -3.29938,-1.047183 -12.63812,-0.602649 -15.12103,0.719776 -1.2048,0.641691 -2.73874,1.880706 -3.40875,2.753368 -0.67,0.872661 -1.2325,1.093901 -1.25,0.491645 z m -67.348683,2.40751 c -0.319226,-0.797733 -0.556183,-0.560776 -0.604167,0.604167 -0.04342,1.054166 0.192928,1.644791 0.52522,1.3125 0.332291,-0.332292 0.367818,-1.194792 0.07895,-1.916667 z m 114.999993,-1 c -0.31922,-0.797733 -0.55618,-0.560776 -0.60416,0.604167 -0.0434,1.054166 0.19292,1.644791 0.52522,1.3125 0.33229,-0.332292 0.36781,-1.194792 0.0789,-1.916667 z m -99.683107,-2.8125 c 0,-0.55 -0.5625,-1.035526 -1.25,-1.078947 -0.857231,-0.05414 -0.811156,-0.252792 0.146635,-0.632212 0.768149,-0.304295 2.677373,-2.011945 4.242721,-3.794777 6.17754,-7.03583 21.001047,-10.23593 28.610644,-6.176468 3.129453,1.669456 4.477513,4.682404 2.095012,4.682404 -0.682582,0 -0.464195,0.763317 0.533935,1.866238 2.30087,2.542432 12.7214,2.463265 15.30014,-0.116238 1.07839,-1.078715 1.28369,-1.75 0.5352,-1.75 -2.43223,0 -1.13095,-2.993097 2.03571,-4.682404 7.53852,-4.021543 22.3101,-0.890682 28.5852,6.058679 1.55136,1.718049 3.85509,3.725639 5.1194,4.461311 2.29707,1.336604 2.29825,1.334037 1.61242,-3.5 -2.67709,-18.869168 -10.96698,-34.448239 -20.88542,-39.249674 -5.14297,-2.489669 -13.09823,-2.695872 -22.6816,-0.587912 -3.574997,0.786358 -11.449997,1.455433 -17.499997,1.486833 -16.966299,0.08806 -22.801167,3.918119 -26.546641,17.425463 -2.073199,7.476599 -3.450112,20.472347 -2.549326,24.061363 0.60867,2.425134 2.595967,3.593598 2.595967,1.526341 z m 85.999997,0 c 0,-0.55 -0.45,-1 -1,-1 -0.55,0 -1,0.45 -1,1 0,0.55 0.45,1 1,1 0.55,0 1,-0.45 1,-1 z"
     style="fill:#9ecb1b" />
  <path
     inkscape:connector-curvature="0"
     id="path5838"
     d="m 14.497837,198.48729 c 0.264037,-0.9625 0.774355,-3.48869 1.134039,-5.61375 0.359684,-2.12506 1.801622,-6.20376 3.204305,-9.06378 3.000638,-6.11818 7.055182,-8.63922 17.809218,-11.07346 14.578354,-3.29989 35.226238,-10.42646 36.586761,-12.62783 1.417597,-2.29372 2.704077,0.28465 3.404258,6.82284 0.395915,3.697 2.044366,11.01576 3.663225,16.2639 1.618858,5.24814 3.325187,11.22958 3.791842,13.29208 l 0.848463,3.75 h -35.46109 c -33.288684,0 -35.431681,-0.10721 -34.981021,-1.75 z m 79.654706,-0.59107 c 0,-1.28759 0.631442,-4.43919 1.403203,-7.00356 1.366842,-4.54167 1.339251,-4.7128 -1.064713,-6.60375 -1.927418,-1.51611 -2.256049,-2.33662 -1.500528,-3.74644 1.1219,-2.0935 6.776155,-7.30518 7.925535,-7.30518 1.67575,0 8.2365,6.23875 8.2365,7.83226 0,0.92765 -0.95307,2.28185 -2.11794,3.00932 -1.8774,1.17246 -2.0414,1.90958 -1.44409,6.49055 0.37062,2.84233 0.92248,6.18037 1.22635,7.41787 0.53091,2.16209 0.29429,2.25 -6.05591,2.25 -6.262665,0 -6.608407,-0.12248 -6.608407,-2.34107 z m 23.714507,0.0911 c 0.29,-1.2375 1.99672,-7.425 3.79271,-13.75 1.796,-6.325 3.58588,-14.31331 3.97751,-17.75179 0.69716,-6.12096 2.04627,-8.6251 3.43565,-6.37703 1.36053,2.20137 22.00841,9.32794 36.58676,12.62783 10.75404,2.43424 14.80858,4.95528 17.80922,11.07346 1.40269,2.86002 2.84462,6.93872 3.20431,9.06378 0.35968,2.12506 0.87,4.65125 1.13404,5.61375 0.45066,1.6428 -1.69294,1.75 -34.9937,1.75 H 117.33978 Z M 91.652543,154.85104 c -2.75,-0.66889 -6.440204,-1.93501 -8.200454,-2.81359 -2.282081,-1.13905 -3.335492,-1.26783 -3.671052,-0.4488 -0.25883,0.63175 -0.506126,0.13614 -0.549547,-1.10136 -0.04342,-1.2375 -0.416447,-2.25561 -0.828947,-2.26247 -0.4125,-0.007 -2.601028,-1.69435 -4.863395,-3.75 -2.262367,-2.05564 -5.456196,-4.46469 -7.097397,-5.35344 -2.193284,-1.18771 -3.13848,-2.56784 -3.566968,-5.2083 -0.32063,-1.97581 -1.626795,-6.25496 -2.902588,-9.50921 -1.726614,-4.40419 -3.004081,-6.17518 -4.996954,-6.9274 -2.052542,-0.77475 -3.030447,-2.19966 -4.190499,-6.10597 -0.832243,-2.80247 -3.106702,-7.9449 -5.054353,-11.427625 -2.924623,-5.229715 -3.496201,-7.191761 -3.282827,-11.268908 0.200543,-3.831978 0.708277,-5.137078 2.26896,-5.83222 1.918156,-0.854364 1.953239,-1.222203 0.763005,-8 -0.68618,-3.907453 -1.265461,-9.644558 -1.287292,-12.749124 -0.08439,-12.001954 7.085391,-26.097104 15.468048,-30.408781 2.195743,-1.129396 7.14226,-5.221071 10.99226,-9.092613 9.170465,-9.221775 13.564551,-10.813434 27.884656,-10.100594 16.364031,0.814586 34.129031,7.470089 43.609441,16.337905 10.29192,9.626887 13.95618,21.850377 12.41317,41.408748 l -0.90727,11.5 3,1.011546 c 2.85321,0.962051 2.99923,1.282415 2.98432,6.54729 -0.0126,4.456682 -0.62383,6.501156 -3.13564,10.488453 -1.71598,2.723993 -3.65277,6.752713 -4.30399,8.952713 -1.85772,6.2759 -3.23721,8.51022 -5.62419,9.10931 -1.66615,0.41818 -2.85698,2.32568 -4.82139,7.72302 -1.43481,3.94222 -2.60658,8.2011 -2.60393,9.46418 0.003,1.54792 -1.01762,2.8518 -3.13179,4 -1.72513,0.93692 -4.98763,3.38538 -7.25,5.44102 -2.26236,2.05565 -4.45089,3.74315 -4.86339,3.75 -0.4125,0.007 -0.8022,1.24997 -0.866,2.76247 -0.0638,1.5125 -0.31179,2.01445 -0.55109,1.11543 -0.39857,-1.49733 -0.74565,-1.48629 -4.134,0.13144 -8.02543,3.83164 -17.77566,4.7873 -26.698907,2.61688 z m 25.999997,-4.11222 c 3.40218,-1.62593 8.41917,-5.281 11.58737,-8.44186 6.36981,-6.35503 7.80318,-9.58057 14.31516,-32.21366 4.02701,-13.996298 4.18053,-15.023444 3.42045,-22.885944 C 144.97194,66.471598 136.62756,49.550203 125.83414,44.3252 120.69117,41.835531 112.73591,41.629328 103.15254,43.737288 99.577543,44.523646 91.702543,45.192721 85.652543,45.224121 77.134488,45.26833 73.723825,45.70296 70.536455,47.150404 61.720043,51.1541 58.034918,60.334801 56.090971,83.138237 l -1.183613,13.88435 4.039661,13.857353 c 7.335389,25.16277 10.274975,30.34324 21.193581,37.34969 7.547146,4.84299 12.247781,6.02933 22.51194,5.68157 7.45263,-0.25251 10.03158,-0.79794 15,-3.17238 z M 78.152543,89.705903 c 0,-0.807738 0.675,-1.468615 1.5,-1.468615 0.825,0 1.5,0.401855 1.5,0.893011 0,0.491156 -0.675,1.152033 -1.5,1.468615 -0.913711,0.350624 -1.5,0.0016 -1.5,-0.893011 z m 42.999997,0.03139 c 0,-0.825 0.64844,-1.5 1.44098,-1.5 2.11561,0 2.80217,1.692718 0.97149,2.395215 -2.22879,0.855266 -2.41247,0.787105 -2.41247,-0.895215 z m -9.9682,-0.09501 c -0.11262,-3.877593 11.04973,-7.267938 17.87658,-5.429659 2.25039,0.605968 4.09162,1.339739 4.09162,1.630603 0,0.290864 -0.98479,0.216284 -2.18842,-0.165733 -3.29938,-1.047183 -12.63812,-0.602649 -15.12103,0.719776 -1.2048,0.641691 -2.73874,1.880706 -3.40875,2.753368 -0.67,0.872661 -1.2325,1.093901 -1.25,0.491645 z M 67.152543,88.392276 c 0,-3.260674 9.20239,-5.930059 14.5,-4.20609 2.971306,0.966934 2.961741,0.975703 -1,0.916795 -7.984636,-0.118726 -9.534634,0.168941 -11.5,2.134307 -1.1,1.1 -2,1.619744 -2,1.154988 z m 20.5,-8.790346 C 84.944673,78.590247 80.954794,78.209418 75.30122,78.423014 l -8.351323,0.315519 4.351323,-1.953529 c 8.040332,-3.60971 22.851323,-1.679555 22.851323,2.977964 0,1.805281 -1.324806,1.772459 -6.5,-0.161038 z m 20.499997,0.161038 c 0,-4.667473 14.81172,-6.58703 22.88049,-2.965246 l 4.38048,1.966246 -8.09971,-0.367828 c -5.6501,-0.256584 -9.52384,0.117421 -12.80863,1.23666 -5.78925,1.972597 -6.35263,1.984141 -6.35263,0.130168 z M 59.152543,116.68313 c 0,-1.66919 -5.282567,-19.085878 -6.017715,-19.840487 -0.50295,-0.516263 -1.143451,0.329618 -1.514401,2 -1.080569,4.865797 -1.196398,4.988347 -1.968541,2.082727 -0.504212,-1.89739 -0.186312,-4.055854 0.977441,-6.636597 1.630016,-3.614732 1.630566,-4.023004 0.01001,-7.438075 -1.701176,-3.584963 -2.859936,-4.174924 -5.905005,-3.006421 -2.156257,0.827433 -2.012782,2.31848 0.168213,1.748136 1.49644,-0.391327 1.763213,0.310471 1.841191,4.84362 0.113548,6.600935 0.644423,9.737287 2.082174,12.301257 0.616827,1.1 1.65952,4.025 2.317097,6.5 1.382224,5.20245 3.537923,8 6.164526,8 1.014754,0 1.84501,-0.24937 1.84501,-0.55416 z m 89.233717,-1.19584 c 0.84903,-0.9625 1.87297,-3.325 2.27542,-5.25 0.83562,-3.9969 2.93137,-8.41924 5.63226,-11.884861 1.02223,-1.311672 1.84058,-2.886672 1.81856,-3.5 -0.022,-0.613327 -0.73223,0.162143 -1.57826,1.723267 -1.9702,3.635524 -2.72034,2.931452 -1.27971,-1.201137 0.61106,-1.752874 0.92497,-4.780608 0.69759,-6.728298 -0.35723,-3.059973 -0.16008,-3.475003 1.45065,-3.053787 1.51595,0.396429 1.64378,0.222027 0.68448,-0.93386 -0.64878,-0.781729 -2.2146,-1.421326 -3.4796,-1.421326 -3.61187,0 -5.11603,5.702541 -2.97968,11.296498 1.24409,3.257611 1.38876,4.930515 0.60469,6.992764 -0.56684,1.49091 -1.29331,2.71074 -1.61439,2.71074 -0.32107,0 -0.29886,-0.46098 0.0494,-1.0244 0.76573,-1.23898 -0.3805,-6.975602 -1.3938,-6.975602 -0.39589,0 -1.7671,3.937502 -3.04714,8.750002 -1.28003,4.8125 -2.54784,9.5375 -2.81736,10.5 -0.3468,1.23847 0.0833,1.75 1.4716,1.75 1.07891,0 2.65631,-0.7875 3.50534,-1.75 z M 43.835657,92.049788 c -0.319226,-0.797733 -0.556183,-0.560776 -0.604167,0.604167 -0.04342,1.054166 0.192928,1.644791 0.52522,1.3125 0.332291,-0.332292 0.367818,-1.194792 0.07895,-1.916667 z m 114.999993,-1 c -0.31922,-0.797733 -0.55618,-0.560776 -0.60416,0.604167 -0.0434,1.054166 0.19292,1.644791 0.52522,1.3125 0.33229,-0.332292 0.36781,-1.194792 0.0789,-1.916667 z"
     style="fill:#cb6a4c" />
  <path
     inkscape:connector-curvature="0"
     id="path5836"
     d="m 14.497837,198.48729 c 0.264037,-0.9625 0.781196,-3.52515 1.14924,-5.69477 1.711467,-10.08912 8.259798,-17.3943 17.005466,-18.97095 10.563063,-1.90428 36.661462,-10.42182 39.573738,-12.91539 1.110782,-0.95108 2.395508,-1.49691 2.854947,-1.21297 0.459439,0.28395 1.158912,3.56003 1.554386,7.28018 0.395473,3.72014 1.768681,10.1389 3.051574,14.2639 1.282892,4.125 2.994697,10.0875 3.804011,13.25 l 1.47148,5.75 H 49.490223 c -33.299508,0 -35.443048,-0.1072 -34.992386,-1.75 z m 79.654706,-0.59107 c 0,-1.28759 0.654416,-4.51553 1.454259,-7.1732 1.327984,-4.41256 1.306276,-4.94458 -0.25,-6.12713 -0.937343,-0.71225 -2.041759,-1.3093 -2.454259,-1.3268 -1.623865,-0.0689 -0.573779,-2.05307 3.265399,-6.17022 3.983398,-4.27181 4.037198,-4.29301 6.749998,-2.66082 1.50403,0.90492 3.60579,2.79936 4.67058,4.20986 1.92986,2.55643 1.92862,2.57238 -0.39081,5.0413 -1.98411,2.11199 -2.23525,3.14466 -1.70521,7.01173 0.34188,2.49424 0.90403,5.66028 1.24922,7.03566 0.6221,2.47863 0.56934,2.50069 -5.98077,2.50069 -6.262665,0 -6.608407,-0.12248 -6.608407,-2.34107 z m 24.661337,-3.40893 c 0.80932,-3.1625 2.52112,-9.125 3.80402,-13.25 1.28289,-4.125 2.6561,-10.54376 3.05157,-14.2639 0.73773,-6.93967 2.05521,-9.25203 3.64888,-6.4043 0.96458,1.72361 23.14653,9.24235 35.83419,12.14626 8.86534,2.02908 13.51792,4.15962 16.06136,7.35493 2.23305,2.80537 5.43626,11.24009 6.2346,16.41701 l 0.5783,3.75 H 152.6846 117.3424 Z M 93.902543,154.57501 c 0.6875,-0.27741 1.8125,-0.27741 2.5,0 0.6875,0.27741 0.125,0.50439 -1.25,0.50439 -1.375,0 -1.9375,-0.22698 -1.25,-0.50439 z m 11.999997,0 c 0.6875,-0.27741 1.8125,-0.27741 2.5,0 0.6875,0.27741 0.125,0.50439 -1.25,0.50439 -1.375,0 -1.9375,-0.22698 -1.25,-0.50439 z m -20.749997,-2.33772 c -0.825,-0.53316 -1.05,-0.96937 -0.5,-0.96937 0.55,0 1.675,0.43621 2.5,0.96937 0.825,0.53316 1.05,0.96937 0.5,0.96937 -0.55,0 -1.675,-0.43621 -2.5,-0.96937 z m 29.999997,0 c 0.825,-0.53316 1.95,-0.96937 2.5,-0.96937 0.55,0 0.325,0.43621 -0.5,0.96937 -0.825,0.53316 -1.95,0.96937 -2.5,0.96937 -0.55,0 -0.325,-0.43621 0.5,-0.96937 z m 7.15789,-2 c 0,-1.375 0.22698,-1.9375 0.50439,-1.25 0.27741,0.6875 0.27741,1.8125 0,2.5 -0.27741,0.6875 -0.50439,0.125 -0.50439,-1.25 z m -47.285442,-4.75 c -1.243871,-1.58606 -1.208501,-1.62143 0.377555,-0.37756 0.9625,0.75485 1.75,1.54235 1.75,1.75 0,0.82304 -0.821186,0.29331 -2.127555,-1.37244 z m 50.127552,1.37244 c 0,-0.20765 0.7875,-0.99515 1.75,-1.75 1.58606,-1.24387 1.62143,-1.2085 0.37756,0.37756 -1.30637,1.66575 -2.12756,2.19548 -2.12756,1.37244 z m 6.77572,-7.01979 c 3.41581,-3.89039 6.72323,-10.72717 8.38816,-17.33919 1.05048,-4.17184 2.39121,-6.04171 3.52153,-4.91138 0.3038,0.30379 -0.61099,3.83635 -2.03285,7.85014 -1.42186,4.01378 -2.71286,8.39386 -2.86888,9.73351 -0.19989,1.71634 -1.73416,3.28625 -5.19467,5.31538 l -4.91099,2.87963 z m -64.251117,0.11288 c -3.27697,-1.85599 -4.096724,-2.95115 -4.665965,-6.23355 -0.379811,-2.19009 -1.628381,-6.15679 -2.7746,-8.81489 -2.313447,-5.36491 -2.65857,-8.02527 -0.967999,-7.46174 0.61382,0.2046 2.368242,4.10411 3.898717,8.66556 1.530474,4.56145 4.199463,10.05655 5.931087,12.21132 1.731623,2.15477 3.014701,3.91037 2.851283,3.90132 -0.163418,-0.009 -2.086053,-1.02966 -4.272523,-2.26802 z M 49.971558,101.41911 c -0.774309,-2.689385 0.946248,-8.444932 2.278396,-7.621618 2.286612,1.413203 -0.706349,-6.976296 -3.968132,-11.122981 -2.464746,-3.133418 -4.605945,-17.724446 -3.71431,-25.31087 1.239213,-10.543771 8.261507,-22.272998 15.470151,-25.839552 2.134534,-1.056083 6.361398,-4.599308 9.393031,-7.873834 7.80339,-8.428593 12.958143,-10.812109 24.324359,-11.247387 7.420477,-0.284172 10.924857,0.13645 18.964377,2.276254 25.20523,6.708639 38.03542,18.152582 41.54713,37.058166 1.37818,7.419525 0.40009,25.07788 -1.70849,30.845175 -3.24903,8.886576 -3.40002,9.803197 -1.8672,11.33601 0.80392,0.80392 1.42299,3.117029 1.37572,5.140244 -0.0839,3.590153 -0.10626,3.610933 -0.93062,0.864638 -0.46456,-1.547663 -1.33095,-3.399877 -1.9253,-4.11603 -0.59436,-0.716153 -1.52977,-4.883926 -2.0787,-9.261718 C 144.39761,64.738709 136.74905,49.609017 125.77324,44.295719 120.61761,41.79992 112.68072,41.607169 102.50262,43.73058 98.471832,44.571505 90.8375,45.167097 85.002619,45.095842 73.570721,44.956237 71.052735,45.63 65.812912,50.230626 c -5.708916,5.012495 -7.831065,12.025739 -9.678393,31.985002 -0.817113,8.828414 -1.496335,11.945067 -2.942099,13.5 -1.033848,1.111913 -2.031306,3.37166 -2.216574,5.021662 -0.313088,2.78837 -0.383935,2.83647 -1.004288,0.68182 z m -4.780282,-6.088312 c -1.625058,-3.923237 -1.832966,-9.276424 -0.380218,-9.789793 0.774907,-0.273835 1.284782,1.677604 1.539847,5.893445 0.209733,3.466561 0.311472,6.429767 0.226087,6.584903 -0.08539,0.155135 -0.708957,-1.054714 -1.385716,-2.688555 z m 110.314084,0.574703 c 0.35595,-1.007484 0.64718,-3.819984 0.64718,-6.25 0,-4.297095 1.228,-5.872394 2.333,-2.99281 0.66474,1.732274 -1.11196,8.688631 -2.57311,10.074597 -0.72753,0.690095 -0.85368,0.43232 -0.40707,-0.831787 z M 78.152543,89.705903 c 0,-0.807738 0.675,-1.468615 1.5,-1.468615 0.825,0 1.5,0.401855 1.5,0.893011 0,0.491156 -0.675,1.152033 -1.5,1.468615 -0.913711,0.350624 -1.5,0.0016 -1.5,-0.893011 z m 43.597767,0.795817 c -1.07303,-1.073023 -0.62938,-2.264432 0.84321,-2.264432 0.79254,0 1.68996,0.402847 1.99426,0.895215 0.63621,1.029416 -1.93604,2.270652 -2.83747,1.369217 z M 71.965043,84.554174 c 0.721875,-0.288871 1.584375,-0.253344 1.916667,0.07895 0.332291,0.332292 -0.258334,0.568641 -1.3125,0.52522 -1.164943,-0.04798 -1.4019,-0.284941 -0.604167,-0.604167 z m 46.999997,0 c 0.72187,-0.288871 1.58437,-0.253344 1.91667,0.07895 0.33229,0.332292 -0.25834,0.568641 -1.3125,0.52522 -1.16495,-0.04798 -1.4019,-0.284941 -0.60417,-0.604167 z m 10,0 c 0.72187,-0.288871 1.58437,-0.253344 1.91667,0.07895 0.33229,0.332292 -0.25834,0.568641 -1.3125,0.52522 -1.16495,-0.04798 -1.4019,-0.284941 -0.60417,-0.604167 z M 87.652543,79.539131 c -2.647275,-0.961026 -6.790045,-1.342147 -12.250145,-1.126971 -4.537579,0.17882 -8.250079,0.248793 -8.25,0.155495 8.58e-4,-1.004451 11.720074,-3.632861 15.737329,-3.5296 5.591566,0.143727 11.634931,2.582887 11.014095,4.445395 -0.553692,1.661077 -1.79846,1.672165 -6.251279,0.05568 z m 20.499997,0.223837 c 0,-4.281189 12.75419,-6.106204 21.75,-3.112239 2.8875,0.961011 5.25,1.826964 5.25,1.92434 0,0.09738 -3.61114,0.01306 -8.02475,-0.187376 -5.53409,-0.251316 -9.54965,0.134347 -12.9379,1.242586 -5.99466,1.960754 -6.03735,1.961692 -6.03735,0.132689 z"
     style="fill:#c5603c" />
  <path
     inkscape:connector-curvature="0"
     id="path5834"
     d="m 14.497837,198.48729 c 0.264037,-0.9625 0.781196,-3.52515 1.14924,-5.69477 1.100348,-6.48656 5.128361,-13.29209 9.501017,-16.05242 2.180588,-1.37655 4.563896,-2.50281 5.29624,-2.50281 5.436052,0 41.358785,-11.5532 42.55193,-13.68523 1.584382,-2.83113 2.90311,-0.50435 3.63935,6.42133 0.395473,3.72014 1.768681,10.1389 3.051574,14.2639 1.282892,4.125 2.994697,10.0875 3.804011,13.25 l 1.47148,5.75 H 49.490223 c -33.299508,0 -35.443048,-0.1072 -34.992386,-1.75 z m 79.654706,-0.59107 c 0,-1.28759 0.661677,-4.53965 1.470394,-7.22682 1.143755,-3.80041 1.199291,-5.05117 0.25,-5.63044 -4.091936,-2.49694 -4.086011,-2.47947 -1.887983,-5.56631 1.163717,-1.63429 3.267314,-3.72591 4.674661,-4.64804 2.432095,-1.59357 2.705835,-1.5719 5.527905,0.43759 4.75026,3.38248 5.54891,5.72466 2.90989,8.53378 -2.25433,2.39961 -2.34642,6.00892 -0.35569,13.94062 0.6221,2.47863 0.56934,2.50069 -5.98077,2.50069 -6.262665,0 -6.608407,-0.12248 -6.608407,-2.34107 z m 24.661337,-3.40893 c 0.80932,-3.1625 2.52112,-9.125 3.80402,-13.25 1.28289,-4.125 2.6561,-10.54376 3.05157,-14.2639 0.73773,-6.93967 2.05521,-9.25203 3.64888,-6.4043 0.96458,1.72361 23.14653,9.24235 35.83419,12.14626 8.86534,2.02908 13.51792,4.15962 16.06136,7.35493 2.23305,2.80537 5.43626,11.24009 6.2346,16.41701 l 0.5783,3.75 H 152.6846 117.3424 Z M 66.402543,139.24825 c -2.389252,-1.45675 -3.256286,-2.71378 -3.273735,-4.74626 -0.01306,-1.52059 -1.135971,-5.4647 -2.49537,-8.7647 -2.68552,-6.51922 -2.90306,-7.5 -1.663517,-7.5 0.449558,0 1.628258,2.5875 2.619334,5.75 2.048248,6.53591 5.072358,12.92651 7.334787,15.5 1.976007,2.24769 1.479891,2.20066 -2.521499,-0.23904 z m 68.733817,-2.63519 c 1.70462,-2.68167 4.02443,-7.91327 5.15514,-11.62577 1.13071,-3.7125 2.46201,-6.75 2.95844,-6.75 1.22963,0 1.19317,0.19081 -1.1871,6.21298 -1.14934,2.90786 -2.39589,7.06708 -2.77011,9.24272 -0.52552,3.0552 -1.42882,4.39278 -3.96804,5.87577 l -3.28763,1.92008 z M 52.168853,89.775337 c -1.118675,-2.609761 -2.883781,-5.825401 -3.922459,-7.145866 -2.428836,-3.087764 -4.562908,-17.744148 -3.678882,-25.26583 1.242351,-10.570465 8.262304,-22.273393 15.512242,-25.860377 2.157685,-1.067537 6.166539,-4.395697 8.908566,-7.395912 7.487692,-8.192727 13.694225,-11.178489 24.296678,-11.688343 7.036822,-0.338389 10.548802,0.07824 19.000002,2.253985 33.10344,8.522422 45.2156,24.779225 42.13227,56.549465 -0.59153,6.095047 -1.52161,11.629312 -2.06684,12.298366 -0.54524,0.669055 -1.5672,3.156176 -2.27102,5.526936 -1.57512,5.305643 -2.43796,3.996624 -3.32065,-5.037776 C 144.9941,65.94833 135.91151,48.77524 125.65254,44.10295 120.71257,41.853117 111.81888,41.703911 102.27841,43.710811 98.375691,44.531773 90.707444,45.131119 84.963033,45.06417 73.733252,44.933291 70.270542,45.834897 65.81096,50.050906 c -5.84664,5.527309 -7.955644,12.326673 -9.670439,31.177192 -0.624946,6.869946 -1.316591,12.671136 -1.53699,12.891535 -0.220399,0.220399 -1.316004,-1.734534 -2.434678,-4.344296 z m 4.800622,-42.755676 c 1.568492,-3.1915 2.157876,-5.179663 1.334009,-4.5 -2.793138,2.304245 -5.269976,9.732681 -5.668048,16.999391 l -0.395416,7.218236 0.959737,-7 c 0.535842,-3.908252 2.200844,-9.525352 3.769718,-12.717627 z m 89.635265,5.307128 c -1.51037,-2.775036 -3.64921,-5.842916 -4.753,-6.817511 -1.19038,-1.05106 -0.77996,-0.05946 1.00877,2.437282 1.65861,2.3151 3.58841,5.592029 4.28844,7.282065 0.70004,1.690036 1.48184,2.863743 1.73735,2.608238 0.2555,-0.255504 -0.7712,-2.735038 -2.28156,-5.510074 z m 0.72427,-11.30396 c -1.12841,-1.825811 -3.30063,-4.436981 -4.82714,-5.802599 -2.33388,-2.087881 -2.25192,-1.866694 0.51511,1.390147 1.80983,2.130198 3.77882,4.9446 4.37552,6.254226 0.59671,1.309625 1.28815,2.177905 1.53655,1.92951 0.24839,-0.248395 -0.47162,-1.945472 -1.60004,-3.771284 z M 84.280098,20.487288 c 1.243871,-1.586056 1.208501,-1.621426 -0.377555,-0.377555 -0.9625,0.754844 -1.75,1.542344 -1.75,1.75 0,0.823034 0.821186,0.293303 2.127555,-1.372445 z m 35.872442,-0.189075 c -0.825,-0.483042 -3.3,-1.135396 -5.5,-1.449674 l -4,-0.571416 4.5,1.381907 c 5.30914,1.630388 7.07942,1.856694 5,0.639183 z m -10.73097,-2.716862 c -0.67703,-0.273923 -2.02703,-0.290597 -3,-0.03705 -0.97297,0.253544 -0.41903,0.477663 1.23097,0.498042 1.65,0.02038 2.44606,-0.187065 1.76903,-0.460988 z M 78.152543,89.705903 c 0,-0.807738 0.675,-1.468615 1.5,-1.468615 0.825,0 1.5,0.401855 1.5,0.893011 0,0.491156 -0.675,1.152033 -1.5,1.468615 -0.913711,0.350624 -1.5,0.0016 -1.5,-0.893011 z m 43.597767,0.795817 c -1.07303,-1.073023 -0.62938,-2.264432 0.84321,-2.264432 0.79254,0 1.68996,0.402847 1.99426,0.895215 0.63621,1.029416 -1.93604,2.270652 -2.83747,1.369217 z M 71.965043,84.554174 c 0.721875,-0.288871 1.584375,-0.253344 1.916667,0.07895 0.332291,0.332292 -0.258334,0.568641 -1.3125,0.52522 -1.164943,-0.04798 -1.4019,-0.284941 -0.604167,-0.604167 z m 46.999997,0 c 0.72187,-0.288871 1.58437,-0.253344 1.91667,0.07895 0.33229,0.332292 -0.25834,0.568641 -1.3125,0.52522 -1.16495,-0.04798 -1.4019,-0.284941 -0.60417,-0.604167 z m 10,0 c 0.72187,-0.288871 1.58437,-0.253344 1.91667,0.07895 0.33229,0.332292 -0.25834,0.568641 -1.3125,0.52522 -1.16495,-0.04798 -1.4019,-0.284941 -0.60417,-0.604167 z M 86.652543,79.007691 c -3.991756,-1.271962 -7.84089,-1.774664 -11.5,-1.501914 l -5.5,0.409969 3.486744,-1.438698 c 5.191656,-2.142179 16.387926,-1.309535 19.119328,1.421867 2.978418,2.978418 1.30194,3.309994 -5.606072,1.108776 z m 22.047137,1.443399 c -1.14508,-1.14507 -0.43701,-2.038177 2.85399,-3.599861 4.0807,-1.93642 13.85547,-2.060243 18.09887,-0.22927 2.84889,1.229262 2.72296,1.273445 -2.5,0.877174 -3.69815,-0.280582 -7.53212,0.224232 -11.70286,1.540901 -3.41158,1.077006 -6.44908,1.711981 -6.75,1.411056 z"
     style="fill:#b74131" />
  <path
     inkscape:connector-curvature="0"
     id="path5832"
     d="m 14.497837,198.48729 c 0.264037,-0.9625 0.781196,-3.52515 1.14924,-5.69477 1.100348,-6.48656 5.128361,-13.29209 9.501017,-16.05242 2.180588,-1.37655 4.563896,-2.50281 5.29624,-2.50281 5.436052,0 41.358785,-11.5532 42.55193,-13.68523 1.584382,-2.83113 2.90311,-0.50435 3.63935,6.42133 0.395473,3.72014 1.768681,10.1389 3.051574,14.2639 1.282892,4.125 2.994697,10.0875 3.804011,13.25 l 1.47148,5.75 H 49.490223 c -33.299508,0 -35.443048,-0.1072 -34.992386,-1.75 z m 79.654706,-0.59107 c 0,-1.28759 0.661677,-4.53965 1.470394,-7.22682 1.143755,-3.80041 1.199291,-5.05117 0.25,-5.63044 -4.091936,-2.49694 -4.086011,-2.47947 -1.887983,-5.56631 1.163717,-1.63429 3.267314,-3.72591 4.674661,-4.64804 2.432095,-1.59357 2.705835,-1.5719 5.527905,0.43759 4.75026,3.38248 5.54891,5.72466 2.90989,8.53378 -2.25433,2.39961 -2.34642,6.00892 -0.35569,13.94062 0.6221,2.47863 0.56934,2.50069 -5.98077,2.50069 -6.262665,0 -6.608407,-0.12248 -6.608407,-2.34107 z m 24.661337,-3.40893 c 0.80932,-3.1625 2.52112,-9.125 3.80402,-13.25 1.28289,-4.125 2.6561,-10.54376 3.05157,-14.2639 0.733,-6.89525 2.05444,-9.2534 3.61885,-6.45795 1.22522,2.18934 37.00514,13.72185 42.57243,13.72185 0.73234,0 3.16124,1.15504 5.39755,2.56676 4.65278,2.93718 8.4957,10.14969 9.79828,18.38972 l 0.79727,5.04352 H 152.59813 117.3424 Z m -53.661337,-56.25 c -1.1,-1.1 -2,-2.88973 -2,-3.97717 0,-1.08745 -1.130859,-4.98159 -2.513019,-8.65365 -1.38216,-3.67206 -2.28216,-6.90733 -2,-7.18949 0.705437,-0.70544 0.740576,-0.62764 3.501245,7.75245 1.346612,4.08768 3.461586,8.92518 4.699943,10.75 2.48195,3.65736 1.453884,4.45991 -1.688169,1.31786 z m 69.833797,-0.76659 c 1.08349,-1.52162 2.69573,-4.33412 3.58277,-6.25 0.88703,-1.91587 1.38118,-2.65911 1.09811,-1.65162 -0.28308,1.00748 -0.51468,2.91998 -0.51468,4.25 0,2.45943 -3.12602,6.41821 -5.06809,6.41821 -0.58746,0 -0.18161,-1.24496 0.90189,-2.76659 z m 5.21682,-10.23341 c -0.0111,-0.275 0.61781,-2.525 1.39766,-5 1.00606,-3.19287 1.42707,-3.77382 1.44939,-2 0.025,1.98649 -2.77161,8.86246 -2.84705,7 z M 53.42324,91.485908 c 0.298532,-1.238259 0.181905,-2.028343 -0.259171,-1.755743 -0.441076,0.2726 -1.07411,-0.213584 -1.406741,-1.080408 -0.855705,-2.229931 -0.722917,-3.146882 0.236725,-1.634672 0.445986,0.702789 0.890977,-4.533213 0.988869,-11.63556 0.197902,-14.358437 1.204279,-21.171495 4.0914,-27.698309 2.152234,-4.865484 6.942118,-8.434228 11.328221,-8.44019 3.465073,-0.0047 3.493176,-1.273996 0.08752,-3.952886 -6.790521,-5.341425 -12.013665,-2.539955 -18.040211,9.675995 l -3.797309,7.697231 0.05784,13.537961 c 0.04444,10.401934 -0.15618,12.611373 -0.866074,9.537961 -1.365452,-5.911579 -1.314529,-20.396917 0.08829,-25.113342 1.856748,-6.242603 7.996382,-14.862703 12.481205,-17.523718 2.190348,-1.299617 7.190116,-5.554479 11.110596,-9.455249 11.082825,-11.027107 21.039048,-13.607672 38.405842,-9.954453 22.1371,4.656683 37.26644,14.349644 43.14669,27.642928 4.97367,11.243799 4.9934,31.865687 0.0425,44.403834 l -2.76408,7 -0.62914,-4 C 143.70183,63.150749 137.2043,49.963365 125.69736,44.027554 c -4.85776,-2.505856 -12.93365,-2.657563 -23.54482,-0.442293 -4.620125,0.964535 -11.531817,1.486326 -17.999997,1.358893 -9.493845,-0.187043 -10.905571,0.02544 -14.732442,2.217407 -8.180879,4.685872 -11.584935,13.031169 -13.27694,32.549407 -0.570888,6.585525 -1.538542,12.435525 -2.150342,13 -0.799706,0.737847 -0.9598,0.393514 -0.569579,-1.22506 z M 151.59936,48.406369 C 148.31201,37.098257 141.3529,28.866998 130.48646,23.43392 112.75668,14.569271 92.206781,11.577228 81.294393,16.271612 c -5.464585,2.350801 -13.145171,9.77215 -13.136727,12.693333 0.0028,0.974789 1.119839,3.572343 2.482268,5.772343 l 2.477145,4 -0.611,-3.268659 c -0.717757,-3.839777 1.758041,-11.117354 4.682402,-13.763865 1.932062,-1.748492 1.964062,-1.676208 1.964062,4.436553 0,3.888026 0.374312,5.982667 1,5.595971 0.55,-0.339919 1,-1.43079 1,-2.424158 0,-1.866257 3.586845,-7.075842 4.871779,-7.075842 0.399641,0 0.542909,1.573616 0.318373,3.496925 -0.342859,2.93684 0.119854,3.990245 2.888981,6.576996 3.148875,2.94149 3.581215,3.054111 9.609047,2.503075 3.471497,-0.317348 9.252427,-0.841084 12.846507,-1.163859 9.38677,-0.842999 18.58829,2.09374 25.20783,8.045276 4.97704,4.474788 10.08385,12.954063 13.87724,23.041587 l 1.88024,5 0.29375,-7.843597 c 0.19168,-5.118335 -0.27631,-9.804512 -1.34693,-13.487322 z m -6.30256,-3.919081 c -1.0912,-2.550044 -1.06651,-2.608858 0.33949,-0.80887 0.83394,1.067621 1.51625,2.305121 1.51625,2.75 0,1.519907 -0.67833,0.81036 -1.85574,-1.94113 z m -3.73927,-5.401319 c -1.04775,-1.183225 -3.90559,-3.433225 -6.35077,-5 -2.44518,-1.566775 -3.9752,-2.848681 -3.40004,-2.848681 1.34304,0 8.27459,5.063587 10.75081,7.853602 1.04774,1.180519 1.67999,2.146398 1.40499,2.146398 -0.275,0 -1.35725,-0.968094 -2.40499,-2.151319 z M 78.152543,89.705903 c 0,-0.807738 0.675,-1.468615 1.5,-1.468615 0.825,0 1.5,0.401855 1.5,0.893011 0,0.491156 -0.675,1.152033 -1.5,1.468615 -0.913711,0.350624 -1.5,0.0016 -1.5,-0.893011 z m 43.597767,0.795817 c -1.07303,-1.073023 -0.62938,-2.264432 0.84321,-2.264432 0.79254,0 1.68996,0.402847 1.99426,0.895215 0.63621,1.029416 -1.93604,2.270652 -2.83747,1.369217 z m -73.192779,-7.514432 -1.904988,-2.25 2.25,1.904988 c 2.114445,1.790218 2.705241,2.595012 1.904988,2.595012 -0.189757,0 -1.202257,-1.0125 -2.25,-2.25 z m 23.407512,1.566886 c 0.721875,-0.288871 1.584375,-0.253344 1.916667,0.07895 0.332291,0.332292 -0.258334,0.568641 -1.3125,0.52522 -1.164943,-0.04798 -1.4019,-0.284941 -0.604167,-0.604167 z m 46.999997,0 c 0.72187,-0.288871 1.58437,-0.253344 1.91667,0.07895 0.33229,0.332292 -0.25834,0.568641 -1.3125,0.52522 -1.16495,-0.04798 -1.4019,-0.284941 -0.60417,-0.604167 z m 10,0 c 0.72187,-0.288871 1.58437,-0.253344 1.91667,0.07895 0.33229,0.332292 -0.25834,0.568641 -1.3125,0.52522 -1.16495,-0.04798 -1.4019,-0.284941 -0.60417,-0.604167 z M 47.310438,67.237288 c 0,-1.375 0.226973,-1.9375 0.504386,-1.25 0.277412,0.6875 0.277412,1.8125 0,2.5 -0.277413,0.6875 -0.504386,0.125 -0.504386,-1.25 z m 1.921052,-5.583333 c 0.04798,-1.164943 0.284941,-1.4019 0.604167,-0.604167 0.288871,0.721875 0.253344,1.584375 -0.07895,1.916667 -0.332292,0.332291 -0.568641,-0.258334 -0.52522,-1.3125 z m 1.037054,-5.800647 c -0.183242,-4.555688 1.924357,-10.25955 5.110509,-13.830734 2.894164,-3.243909 2.9061,-3.247246 0.947709,-0.264927 -1.79579,2.734704 -4.397988,9.807026 -5.511626,14.979641 -0.295483,1.372455 -0.466988,1.095087 -0.546592,-0.88398 z"
     style="fill:#9a1f0f" />
  <path
     inkscape:connector-curvature="0"
     id="path5830"
     d="m 14.497837,198.48729 c 0.264037,-0.9625 0.781196,-3.52515 1.14924,-5.69477 1.100348,-6.48656 5.128361,-13.29209 9.501017,-16.05242 2.180588,-1.37655 4.563896,-2.50281 5.29624,-2.50281 5.436052,0 41.358785,-11.5532 42.55193,-13.68523 1.584382,-2.83113 2.90311,-0.50435 3.63935,6.42133 0.395473,3.72014 1.768681,10.1389 3.051574,14.2639 1.282892,4.125 2.994697,10.0875 3.804011,13.25 l 1.47148,5.75 H 49.490223 c -33.299508,0 -35.443048,-0.1072 -34.992386,-1.75 z m 79.654706,-0.59107 c 0,-1.28759 0.661677,-4.53965 1.470394,-7.22682 1.143755,-3.80041 1.199291,-5.05117 0.25,-5.63044 -4.091936,-2.49694 -4.086011,-2.47947 -1.887983,-5.56631 1.163717,-1.63429 3.267314,-3.72591 4.674661,-4.64804 2.432095,-1.59357 2.705835,-1.5719 5.527905,0.43759 4.75026,3.38248 5.54891,5.72466 2.90989,8.53378 -2.25433,2.39961 -2.34642,6.00892 -0.35569,13.94062 0.6221,2.47863 0.56934,2.50069 -5.98077,2.50069 -6.262665,0 -6.608407,-0.12248 -6.608407,-2.34107 z m 24.661337,-3.40893 c 0.80932,-3.1625 2.52112,-9.125 3.80402,-13.25 1.28289,-4.125 2.6561,-10.54376 3.05157,-14.2639 0.733,-6.89525 2.05444,-9.2534 3.61885,-6.45795 1.22522,2.18934 37.00514,13.72185 42.57243,13.72185 0.73234,0 3.16124,1.15504 5.39755,2.56676 4.65278,2.93718 8.4957,10.14969 9.79828,18.38972 l 0.79727,5.04352 H 152.59813 117.3424 Z M 78.152543,89.705903 c 0,-0.807738 0.675,-1.468615 1.5,-1.468615 0.825,0 1.5,0.401855 1.5,0.893011 0,0.491156 -0.675,1.152033 -1.5,1.468615 -0.913711,0.350624 -1.5,0.0016 -1.5,-0.893011 z m 43.597767,0.795817 c -1.07303,-1.073023 -0.62938,-2.264432 0.84321,-2.264432 0.79254,0 1.68996,0.402847 1.99426,0.895215 0.63621,1.029416 -1.93604,2.270652 -2.83747,1.369217 z M 71.965043,84.554174 c 0.721875,-0.288871 1.584375,-0.253344 1.916667,0.07895 0.332291,0.332292 -0.258334,0.568641 -1.3125,0.52522 -1.164943,-0.04798 -1.4019,-0.284941 -0.604167,-0.604167 z m 46.999997,0 c 0.72187,-0.288871 1.58437,-0.253344 1.91667,0.07895 0.33229,0.332292 -0.25834,0.568641 -1.3125,0.52522 -1.16495,-0.04798 -1.4019,-0.284941 -0.60417,-0.604167 z m 10,0 c 0.72187,-0.288871 1.58437,-0.253344 1.91667,0.07895 0.33229,0.332292 -0.25834,0.568641 -1.3125,0.52522 -1.16495,-0.04798 -1.4019,-0.284941 -0.60417,-0.604167 z"
     style="fill:#612f1d" />
  <path
     inkscape:connector-curvature="0"
     id="path5828"
     d="m 15.232043,198.16879 c -0.108868,-3.51733 2.571864,-12.22628 5.063099,-16.44861 3.079323,-5.21907 3.251557,-4.19423 0.280476,1.66891 -1.435839,2.8335 -3.207644,7.896 -3.937346,11.25 -0.729701,3.35401 -1.362504,4.94238 -1.406229,3.5297 z m 43.825534,-0.54281 c -2.248342,-5.64309 -3.925495,-11.80915 -2.945505,-10.82916 1.282488,1.28249 5.195369,12.61891 4.571039,13.24324 -0.261036,0.26103 -0.992526,-0.8253 -1.625534,-2.41408 z m 23.78222,1.11131 C 78.11296,183.63686 75.171769,171.26222 75.274485,166.90732 l 0.121942,-5.17003 0.862929,5.91678 c 0.474611,3.25424 2.482245,11.46671 4.461408,18.24995 1.979163,6.78325 3.406465,12.89569 3.171783,13.58322 -0.255477,0.74845 -0.677912,0.44751 -1.05275,-0.74995 z m 11.312746,-0.3185 c 0,-1.00017 0.718149,-4.23677 1.595887,-7.19243 l 1.595888,-5.37394 -2.666888,-1.94269 -2.666887,-1.94269 3.773948,-3.86488 c 2.075671,-2.12568 4.494349,-3.86487 5.374829,-3.86487 0.88049,0 3.15166,1.60757 5.04705,3.57239 l 3.44617,3.57238 -2.71486,2.34943 -2.71487,2.34942 1.34869,7.07819 1.34869,7.07819 h -6.38382 c -5.504774,0 -6.383827,-0.25041 -6.383827,-1.8185 z m 24.424287,-1.49351 c 0.37928,-2.09661 2.01036,-8.10271 3.62463,-13.3469 1.61426,-5.24419 3.33309,-12.30378 3.81962,-15.68799 l 0.8846,-6.1531 0.12343,5.13036 c 0.0798,3.31608 -1.28007,9.99466 -3.84533,18.88543 -3.94102,13.6589 -5.9289,18.47965 -4.60695,11.1722 z m 23.09081,1.31201 c 1.53607,-5.19018 4.69568,-13.12255 5.07562,-12.74261 0.57001,0.57 -3.66701,13.05322 -4.83419,14.24261 -0.64351,0.65577 -0.72662,0.13942 -0.24143,-1.5 z m 44.1927,-2.5 c -0.4009,-2.75 -1.85265,-7.41471 -3.2261,-10.36602 -2.25461,-4.84474 -2.66644,-5.23331 -4.23945,-4 -1.60971,1.2621 -1.63064,1.21387 -0.27522,-0.63398 0.80687,-1.1 1.53858,-2.13171 1.62603,-2.2927 0.0874,-0.16098 1.10475,1.31022 2.26066,3.26935 2.65483,4.49959 5.39581,13.81464 4.93463,16.77001 -0.20502,1.31379 -0.65556,0.16855 -1.08055,-2.74666 z M 60.187681,178.66588 c -1.905675,-1.83271 -3.224916,-3.57215 -2.931648,-3.86541 0.293269,-0.29327 2.046698,1.0283 3.89651,2.93682 4.363409,4.5019 3.557347,5.27766 -0.964862,0.92859 z m 77.964859,2.79183 c 0,-0.45545 1.575,-2.35464 3.5,-4.22042 1.925,-1.86578 3.5,-2.92636 3.5,-2.35684 0,0.56951 -1.575,2.4687 -3.5,4.22041 -1.925,1.75171 -3.5,2.81229 -3.5,2.35685 z M 27.593673,175.79246 c 1.067621,-0.85535 2.876666,-1.55517 4.020099,-1.55517 1.143434,0 5.389915,-0.91751 9.436626,-2.03891 4.046711,-1.1214 7.545407,-1.85116 7.774881,-1.62169 0.51641,0.51641 -14.650239,4.6606 -17.056577,4.6606 -0.961203,0 -2.730558,0.47482 -3.9319,1.05517 -2.109982,1.01928 -2.11825,1.00228 -0.243129,-0.5 z m 146.558867,0.44483 c -0.825,-0.53316 -2.36936,-0.97627 -3.4319,-0.98469 -2.57147,-0.0204 -17.77342,-4.14332 -17.24084,-4.67591 0.22948,-0.22947 3.72817,0.50029 7.77488,1.62169 4.04672,1.1214 8.2932,2.03891 9.43663,2.03891 1.14343,0 2.95248,0.66069 4.0201,1.4682 2.17299,1.64356 1.76387,2.03287 -0.55887,0.5318 z m -119.080162,-8.0699 c 2.980909,-1.05807 5.592798,-1.7508 5.804197,-1.5394 0.466489,0.46649 -8.641985,3.63918 -10.152171,3.53623 -0.589523,-0.0402 1.367065,-0.93876 4.347974,-1.99683 z m 90.267662,0.38679 c -2.37188,-0.83887 -4.1358,-1.70192 -3.91983,-1.91789 0.21596,-0.21596 2.83159,0.47303 5.8125,1.5311 2.9809,1.05807 4.74483,1.92112 3.91983,1.91789 -0.825,-0.003 -3.44063,-0.69223 -5.8125,-1.5311 z m -80.187497,-0.58143 c 0,-0.2204 1.9125,-1.92061 4.25,-3.77824 2.3375,-1.85762 3.614966,-2.58693 2.838814,-1.62068 -1.461913,1.81997 -7.088814,6.10548 -7.088814,5.39892 z m 65.924307,-4.48546 -2.42431,-2.75 2.75,2.42431 c 2.57029,2.26589 3.20859,3.07569 2.42431,3.07569 -0.17912,0 -1.41662,-1.2375 -2.75,-2.75 z"
     style="fill:#210e07" />
</svg>
