<!DOCTYPE svg PUBLIC "-//W3C//DTD SVG 20010904//EN" "http://www.w3.org/TR/2001/REC-SVG-20010904/DTD/svg10.dtd">
<svg version="1.0" xmlns="http://www.w3.org/2000/svg" width="200px" height="200px" viewBox="0 0 2000 2000" preserveAspectRatio="xMidYMid meet">
<g id="layer101" fill="#f9bea8" stroke="none">
 <path d="M120 1982 c0 -50 34 -127 76 -172 57 -61 115 -86 255 -107 64 -10 117 -23 123 -31 6 -7 24 -25 40 -40 15 -15 45 -63 66 -107 l38 -79 -29 -33 c-36 -42 -67 -102 -89 -173 -13 -42 -23 -56 -39 -58 -12 -2 -27 -13 -35 -25 -88 -147 -98 -168 -103 -226 -6 -64 9 -121 32 -121 15 0 -26 -147 -52 -187 -14 -21 -14 -23 0 -23 14 0 13 -8 -5 -61 l-20 -60 25 -27 c19 -20 24 -34 20 -55 -4 -20 0 -35 14 -50 11 -12 30 -48 43 -80 14 -35 35 -67 51 -80 16 -11 29 -26 29 -33 0 -15 15 -20 105 -34 39 -6 95 -18 126 -25 80 -21 125 -19 194 10 71 29 86 30 130 9 32 -15 37 -15 102 11 206 82 273 148 273 269 0 22 12 63 27 94 31 64 42 178 24 260 -10 47 -9 54 9 72 30 30 28 140 -2 198 -75 139 -91 162 -112 162 -17 0 -24 11 -39 63 -21 71 -65 152 -100 186 -23 21 -24 25 -12 49 7 15 21 46 30 68 10 23 36 61 59 83 40 39 51 44 157 67 131 29 199 57 252 103 37 33 79 110 92 169 l7 32 -881 0 c-845 0 -881 -1 -881 -18z"/>
 </g>
<g id="layer102" fill="#efad95" stroke="none">
 <path d="M120 1982 c0 -50 34 -127 76 -172 57 -61 115 -86 255 -107 64 -10 117 -23 123 -31 6 -7 24 -25 40 -40 15 -15 45 -63 66 -107 l38 -79 -29 -33 c-36 -42 -67 -102 -89 -173 -13 -42 -23 -56 -39 -58 -12 -2 -27 -13 -35 -25 -88 -147 -98 -168 -103 -226 -6 -64 9 -121 32 -121 15 0 -26 -147 -52 -187 -14 -21 -14 -23 0 -23 14 0 13 -8 -5 -61 l-20 -60 25 -27 c19 -20 24 -34 20 -55 -4 -20 0 -35 14 -50 11 -12 30 -48 43 -80 14 -35 35 -67 51 -80 16 -11 29 -26 29 -33 0 -15 15 -20 105 -34 39 -6 95 -18 126 -25 80 -21 125 -19 194 10 71 29 86 30 130 9 32 -15 37 -15 102 11 206 82 273 148 273 269 0 22 12 63 27 94 31 64 42 178 24 260 -10 47 -9 54 9 72 30 30 28 141 -2 197 -68 125 -79 143 -88 143 -13 0 -13 -6 5 -40 9 -17 13 -30 10 -30 -3 0 6 -21 21 -46 23 -39 26 -53 21 -102 -4 -37 -3 -51 3 -42 7 11 10 8 10 -12 0 -16 -4 -28 -10 -28 -11 0 -13 13 -14 75 -1 26 -5 39 -13 37 -7 -1 -13 6 -13 16 0 10 -8 28 -17 41 -9 14 -11 21 -5 17 7 -4 12 -3 12 3 0 5 -5 11 -10 13 -6 2 -17 24 -24 50 -14 44 -14 46 7 53 21 8 21 8 -3 12 -21 3 -28 14 -43 66 -21 71 -65 152 -100 186 -23 21 -24 25 -12 49 7 15 21 46 30 68 10 23 36 61 59 83 40 39 51 44 157 67 131 29 199 57 252 103 37 33 79 110 92 169 l7 32 -881 0 c-845 0 -881 -1 -881 -18z m893 -189 c8 -64 31 -111 76 -150 l36 -33 -40 11 c-23 7 -74 9 -120 6 l-80 -5 27 19 c30 22 68 112 68 163 0 66 25 58 33 -11z m-193 -427 c0 -73 4 -107 13 -113 24 -16 131 -52 139 -47 4 3 8 13 8 23 0 12 -14 21 -49 30 -77 19 -84 28 -85 104 -1 55 3 70 20 88 26 26 48 17 88 -36 15 -19 33 -35 40 -35 8 0 30 20 50 45 62 75 106 50 106 -61 0 -70 -8 -80 -79 -105 -33 -11 -47 -22 -49 -37 -5 -30 15 -28 93 7 l65 30 0 105 c0 59 4 106 9 106 20 0 110 -99 135 -148 14 -28 44 -117 67 -197 36 -127 40 -151 31 -186 -5 -22 -11 -103 -11 -181 -3 -249 -23 -288 -150 -288 -78 0 -170 -22 -262 -62 -64 -28 -85 -32 -159 -32 -72 0 -93 4 -141 27 -82 40 -89 51 -99 159 -12 120 -12 225 -1 232 5 3 35 -3 67 -13 109 -34 133 -35 194 -4 59 30 78 56 39 53 -40 -4 -46 -1 -62 24 -15 22 -14 26 9 60 l25 36 -23 0 c-13 0 -29 -9 -36 -20 -7 -11 -17 -20 -22 -20 -6 0 -10 9 -10 20 0 16 -7 20 -36 20 l-36 0 31 -36 c34 -38 33 -47 -12 -85 -19 -15 -18 -16 24 -24 24 -4 48 -7 52 -6 5 1 6 -3 2 -9 -9 -14 -41 -13 -126 5 -77 16 -92 27 -85 60 3 11 -3 42 -13 70 l-17 50 39 140 c21 77 49 164 62 193 23 50 122 162 144 162 7 0 11 -37 11 -104z m-250 -221 c0 -9 -7 -32 -17 -53 -9 -20 -15 -41 -14 -45 1 -5 -3 -6 -8 -3 -5 4 -19 -6 -31 -21 -21 -28 -23 -60 -5 -105 4 -11 3 -18 -4 -18 -6 0 -11 8 -12 18 0 9 -3 12 -5 5 -3 -7 0 -21 5 -32 6 -11 7 -22 2 -25 -30 -19 -20 106 14 174 12 25 29 62 38 83 17 38 37 50 37 22z m-49 -152 c-4 -28 -6 -32 -9 -15 -3 22 3 52 11 52 1 0 1 -17 -2 -37z m294 -163 c3 -6 -1 -13 -10 -16 -19 -8 -30 0 -20 15 8 14 22 14 30 1z"/>
 <path d="M905 1319 c-13 -19 6 -24 100 -24 51 0 96 3 100 7 19 19 -13 28 -100 28 -56 0 -97 -4 -100 -11z"/>
 <path d="M966 1175 l-30 -24 24 -103 c33 -145 40 -149 33 -20 l-6 112 32 0 c37 0 39 9 8 38 -28 27 -25 27 -61 -3z"/>
 <path d="M1159 912 l30 -39 -28 -27 c-22 -21 -34 -26 -56 -20 -23 6 -26 4 -23 -12 7 -36 65 -55 153 -50 76 5 162 23 153 32 -3 2 -31 -1 -63 -7 -60 -11 -110 -5 -100 11 3 6 17 10 31 10 l25 0 -26 34 -26 34 32 36 31 36 -36 0 c-29 0 -36 -4 -36 -20 0 -11 -5 -20 -11 -20 -6 0 -13 9 -16 20 -4 14 -14 20 -35 20 l-30 0 31 -38z m66 -82 c3 -6 -1 -13 -10 -16 -19 -8 -30 0 -20 15 8 14 22 14 30 1z"/>
 <path d="M1481 1017 c7 -15 16 -27 21 -27 14 0 9 16 -13 36 -21 19 -21 19 -8 -9z"/>
 </g>
<g id="layer103" fill="#e69b7f" stroke="none">
 <path d="M120 1982 c0 -50 34 -127 76 -172 57 -61 115 -86 255 -107 64 -10 117 -23 123 -31 6 -7 24 -25 40 -40 15 -15 45 -63 66 -107 l38 -79 -29 -33 c-36 -42 -67 -102 -89 -173 -13 -42 -23 -56 -39 -58 -12 -2 -27 -13 -35 -25 -88 -147 -98 -168 -103 -226 -6 -64 9 -121 32 -121 15 0 -26 -147 -52 -187 -14 -21 -14 -23 0 -23 14 0 13 -8 -5 -61 l-20 -60 25 -27 c19 -20 24 -34 20 -55 -4 -20 0 -35 14 -50 11 -12 30 -48 43 -80 14 -35 35 -67 51 -80 16 -11 29 -26 29 -33 0 -15 15 -20 105 -34 39 -6 95 -18 126 -25 80 -21 125 -19 194 10 71 29 86 30 130 9 32 -15 37 -15 102 11 206 82 273 148 273 269 0 22 12 63 27 94 31 64 42 178 24 260 -10 47 -9 54 9 72 20 20 29 77 10 65 -6 -4 -10 5 -10 20 0 15 4 24 10 20 13 -8 13 34 -1 74 -9 25 -14 29 -25 20 -15 -13 -20 -34 -5 -25 5 3 11 -1 15 -9 7 -19 -14 -125 -25 -125 -11 0 -21 56 -14 80 9 28 -3 44 -21 29 -11 -9 -14 -7 -14 10 0 30 -1 34 -12 56 -8 17 -6 17 11 -3 11 -12 21 -28 24 -35 2 -6 8 -9 12 -4 5 4 -7 24 -27 45 -19 20 -38 49 -42 64 -3 14 -8 33 -12 41 -3 9 3 17 18 22 l23 8 -25 4 c-21 3 -28 14 -43 66 -21 71 -65 152 -100 186 -23 21 -24 25 -12 49 7 15 21 46 30 68 10 23 36 61 59 83 40 39 51 44 157 67 131 29 199 57 252 103 37 33 79 110 92 169 l7 32 -881 0 c-845 0 -881 -1 -881 -18z m877 -99 c-3 -10 -5 -2 -5 17 0 19 2 27 5 18 2 -10 2 -26 0 -35z m13 -58 c0 -12 9 -53 20 -89 21 -67 24 -71 116 -134 18 -11 17 -12 -2 -3 -52 24 -148 32 -216 18 -38 -7 -68 -13 -68 -12 0 1 18 14 39 28 30 20 44 40 60 82 12 31 21 69 21 85 0 36 10 61 21 54 5 -3 9 -16 9 -29z m-180 -569 c15 -15 133 -56 142 -49 22 13 -2 37 -57 57 -56 20 -60 23 -68 61 -9 45 -2 112 15 132 19 23 41 14 91 -34 l48 -48 41 48 c43 50 61 57 90 30 14 -12 18 -31 18 -83 0 -77 -10 -91 -79 -111 -44 -13 -61 -33 -44 -50 7 -7 29 -3 64 11 86 34 88 37 91 161 l3 109 55 -43 c30 -24 59 -44 65 -45 5 -1 10 -8 10 -15 1 -6 13 -37 28 -67 14 -30 44 -115 65 -189 36 -125 38 -136 24 -164 -10 -21 -17 -83 -22 -216 -9 -264 -16 -274 -178 -285 -57 -4 -111 -15 -170 -37 -150 -53 -183 -61 -249 -55 -66 5 -157 42 -187 75 -22 24 -36 150 -35 316 0 109 -3 139 -20 183 l-21 52 34 117 c64 220 94 275 190 345 l41 29 3 -113 c1 -62 7 -117 12 -122z m-272 -158 c-11 -35 -20 -68 -20 -75 -1 -7 -5 -10 -10 -6 -6 3 -9 -3 -8 -13 4 -33 0 -68 -6 -61 -4 3 -6 25 -6 49 1 40 0 41 -14 24 -17 -24 -18 -43 -3 -86 9 -25 9 -34 -1 -40 -6 -4 -11 -10 -11 -14 3 -23 -1 -28 -10 -13 -7 12 -9 41 -5 75 5 43 4 53 -4 42 -9 -12 -10 -10 -4 10 4 14 19 37 33 52 14 16 26 31 26 36 3 36 31 82 50 82 10 0 8 -15 -7 -62z m-111 -220 c-2 -18 -4 -6 -4 27 0 33 2 48 4 33 2 -15 2 -42 0 -60z"/>
 <path d="M905 1321 c-12 -20 38 -33 111 -29 75 3 91 9 79 27 -8 14 -182 15 -190 2z"/>
 <path d="M977 1182 c-10 -10 -14 -22 -10 -25 3 -4 -1 -7 -10 -7 -9 0 -17 -6 -17 -12 0 -16 47 -198 52 -203 8 -9 -5 162 -14 173 -15 17 8 42 39 42 24 0 24 0 6 25 -22 30 -25 30 -46 7z"/>
 <path d="M740 915 l33 -34 -27 -36 -27 -35 29 0 c22 0 31 6 36 23 l6 22 19 -22 c11 -13 29 -23 42 -23 23 0 23 0 -4 28 -15 15 -27 32 -27 36 0 4 12 23 26 42 26 34 26 34 4 34 -12 0 -30 -10 -39 -22 -18 -22 -41 -18 -41 8 0 9 -11 14 -32 14 l-32 0 34 -35z"/>
 <path d="M1159 912 l30 -38 -32 -32 -32 -32 29 0 c16 0 35 8 42 18 13 16 15 16 28 0 7 -10 23 -18 35 -18 22 0 22 0 -4 34 l-26 34 32 36 31 36 -31 0 c-20 0 -31 -5 -31 -14 0 -26 -23 -30 -41 -8 -9 12 -27 22 -39 22 -21 0 -20 -2 9 -38z"/>
 <path d="M860 803 c-40 -22 -53 -24 -115 -19 -38 3 -81 8 -95 11 -14 3 -2 -3 25 -14 67 -26 145 -26 195 -1 21 11 41 24 44 29 13 20 -11 17 -54 -6z"/>
 <path d="M1080 810 c0 -18 63 -42 119 -46 31 -3 80 2 111 10 l55 14 -80 -5 c-66 -4 -90 -1 -135 16 -62 24 -70 25 -70 11z"/>
 <path d="M1466 1142 c-4 -7 -2 -20 3 -30 6 -11 8 -22 6 -24 -3 -3 6 -17 19 -31 13 -14 21 -29 17 -34 -3 -4 2 -1 12 6 15 12 16 16 3 30 -7 9 -22 34 -33 55 -12 23 -23 34 -27 28z"/>
 <path d="M1526 954 c-4 -14 -5 -28 -3 -31 3 -2 8 8 11 23 4 14 5 28 3 31 -3 2 -8 -8 -11 -23z"/>
 </g>
<g id="layer104" fill="#d9886b" stroke="none">
 <path d="M120 1982 c0 -50 34 -127 76 -172 57 -61 115 -86 255 -107 64 -10 117 -23 123 -31 6 -7 24 -25 40 -40 15 -15 46 -65 69 -112 22 -47 42 -87 44 -90 3 -3 12 4 22 15 9 11 30 27 47 36 l29 15 -3 -114 c-2 -72 1 -119 7 -125 16 -16 133 -57 143 -50 22 13 -2 37 -57 57 -56 20 -60 23 -68 61 -9 45 -2 112 15 132 19 23 41 14 91 -34 l48 -48 41 48 c22 26 48 47 57 47 35 0 51 -33 51 -102 0 -75 -10 -89 -79 -109 -44 -13 -61 -33 -44 -50 7 -7 29 -3 64 11 90 36 91 38 87 166 l-3 112 27 -19 c14 -10 29 -19 33 -19 3 0 18 -14 32 -30 14 -17 28 -28 31 -26 3 3 12 1 21 -6 9 -6 2 3 -15 21 -29 31 -31 35 -19 60 8 14 21 45 30 67 10 23 36 61 59 83 40 39 51 44 157 67 131 29 199 57 252 103 37 33 79 110 92 169 l7 32 -881 0 c-845 0 -881 -1 -881 -18z m917 -267 c15 -40 28 -56 68 -82 81 -52 105 -73 105 -94 0 -34 -46 -23 -106 26 -47 39 -61 45 -100 45 -51 0 -72 -9 -130 -55 -73 -60 -127 -44 -62 18 19 17 55 44 80 58 38 22 49 36 66 81 11 30 24 92 28 139 l7 84 13 -85 c7 -47 21 -107 31 -135z"/>
 <path d="M673 1390 c-3 -11 -9 -20 -14 -20 -5 0 -9 -8 -9 -17 0 -14 6 -11 25 12 27 33 31 45 14 45 -6 0 -13 -9 -16 -20z"/>
 <path d="M1320 1373 c1 -14 39 -58 45 -52 3 4 -1 14 -10 22 -8 9 -15 20 -15 26 0 6 -4 11 -10 11 -5 0 -10 -3 -10 -7z"/>
 <path d="M612 1278 c-11 -29 -23 -69 -27 -88 -11 -53 9 -25 33 45 11 33 23 68 27 78 4 10 3 17 -3 17 -6 0 -19 -24 -30 -52z"/>
 <path d="M910 1320 c-25 -16 39 -32 112 -28 70 4 85 9 73 27 -8 13 -164 14 -185 1z"/>
 <path d="M1367 1303 c-4 -6 3 -39 15 -74 23 -73 44 -104 33 -50 -13 62 -41 135 -48 124z"/>
 <path d="M977 1179 c-9 -6 -15 -14 -12 -20 4 -5 -1 -9 -9 -9 -18 0 -22 -25 -6 -35 6 -4 8 -11 5 -16 -4 -5 -3 -14 1 -21 4 -7 9 -26 11 -42 5 -46 23 -57 23 -14 0 20 -4 40 -10 43 -16 10 -12 63 6 91 19 29 16 37 -9 23z"/>
 <path d="M528 1158 c-26 -32 -13 -35 18 -5 17 17 21 27 13 27 -8 0 -22 -10 -31 -22z"/>
 <path d="M570 1125 c-6 -15 -8 -30 -6 -33 3 -3 10 8 16 23 6 15 8 30 6 33 -3 3 -10 -8 -16 -23z"/>
 <path d="M1415 1119 c31 -94 33 -119 18 -150 -11 -23 -17 -81 -23 -218 -9 -264 -16 -274 -178 -285 -57 -4 -111 -15 -170 -37 -150 -53 -183 -61 -249 -55 -66 5 -157 42 -187 75 -22 24 -36 150 -35 317 0 118 -2 137 -24 190 -24 56 -26 58 -35 34 -5 -14 -12 -32 -15 -40 -4 -12 -6 -12 -6 2 -1 9 -5 19 -10 23 -6 3 -9 -16 -9 -47 1 -29 -4 -66 -12 -83 -7 -16 -14 -36 -16 -43 -9 -45 -48 -159 -61 -178 -14 -22 -14 -24 0 -24 14 0 13 -8 -5 -61 l-20 -60 25 -27 c19 -20 24 -34 20 -55 -4 -20 0 -35 14 -50 11 -12 30 -48 43 -80 14 -35 35 -67 51 -80 16 -11 29 -26 29 -33 0 -15 15 -20 105 -34 39 -6 95 -18 126 -25 80 -21 125 -19 194 10 71 29 86 30 130 9 32 -15 37 -15 102 11 206 82 273 148 273 269 0 22 12 63 27 94 31 64 42 178 24 262 -10 46 -9 55 4 63 8 4 13 13 9 18 -4 6 -11 6 -20 -2 -9 -7 -14 -8 -14 -1 0 6 4 12 10 14 5 2 11 23 14 48 l6 45 -10 -39 c-14 -52 -16 -53 -34 -17 -12 22 -13 36 -6 56 13 35 13 37 -8 30 -16 -5 -22 6 -41 80 -13 47 -27 88 -33 91 -7 4 -7 -2 -3 -17z"/>
 <path d="M475 1071 c-6 -11 9 -23 19 -14 9 9 7 23 -3 23 -6 0 -12 -4 -16 -9z"/>
 <path d="M550 1055 c-6 -15 -8 -30 -6 -33 3 -3 10 8 16 23 6 15 8 30 6 33 -3 3 -10 -8 -16 -23z"/>
 <path d="M1512 1051 c2 -7 7 -12 11 -12 12 1 9 15 -3 20 -7 2 -11 -2 -8 -8z"/>
 <path d="M446 1024 c-4 -10 -1 -14 6 -12 15 5 23 28 10 28 -5 0 -13 -7 -16 -16z"/>
 <path d="M426 969 c-8 -44 -7 -111 2 -127 9 -14 42 -6 42 10 0 6 -6 8 -14 5 -11 -4 -15 7 -18 49 -1 30 1 59 7 65 5 6 5 13 -2 20 -7 7 -12 1 -17 -22z"/>
 <path d="M1554 969 c-3 -6 -1 -16 5 -22 8 -8 11 -5 11 11 0 24 -5 28 -16 11z"/>
 <path d="M740 915 l33 -34 -27 -36 -27 -35 29 0 c22 0 31 6 36 23 l6 22 19 -22 c11 -13 29 -23 42 -23 23 0 23 0 -4 28 -15 15 -27 32 -27 36 0 4 12 23 26 42 26 34 26 34 4 34 -12 0 -30 -10 -39 -22 -18 -22 -41 -18 -41 8 0 9 -11 14 -32 14 l-32 0 34 -35z"/>
 <path d="M1159 912 l30 -38 -32 -32 -32 -32 29 0 c16 0 35 8 42 18 13 16 15 16 28 0 7 -10 23 -18 35 -18 22 0 22 0 -4 34 l-26 34 32 36 31 36 -31 0 c-20 0 -31 -5 -31 -14 0 -26 -23 -30 -41 -8 -9 12 -27 22 -39 22 -21 0 -20 -2 9 -38z"/>
 <path d="M860 803 c-40 -22 -53 -24 -115 -19 -38 3 -81 8 -95 11 -14 3 -2 -3 25 -14 67 -26 145 -26 195 -1 21 11 41 24 44 29 13 20 -11 17 -54 -6z"/>
 <path d="M1080 810 c0 -18 63 -42 119 -46 31 -3 80 2 111 10 l55 14 -80 -5 c-66 -4 -90 -1 -135 16 -62 24 -70 25 -70 11z"/>
 </g>
<g id="layer105" fill="#b3897a" stroke="none">
 <path d="M120 1982 c0 -50 34 -127 76 -172 57 -61 115 -86 255 -107 64 -10 117 -23 123 -31 6 -7 24 -25 40 -40 16 -15 44 -59 62 -98 18 -40 37 -75 43 -78 5 -4 28 3 51 15 34 18 39 24 26 31 -37 21 -3 71 80 118 70 39 92 85 109 220 l11 95 8 -70 c4 -38 17 -99 29 -135 20 -58 27 -69 72 -97 91 -58 105 -72 105 -104 0 -18 11 -44 28 -65 28 -35 45 -44 41 -21 -1 6 2 23 8 37 6 14 19 44 28 66 9 23 36 61 59 83 40 39 51 44 157 67 131 29 199 57 252 103 37 33 79 110 92 169 l7 32 -881 0 c-845 0 -881 -1 -881 -18z"/>
 <path d="M934 1597 c-12 -7 -41 -30 -66 -52 l-46 -40 -1 -122 c-2 -90 1 -123 11 -130 26 -16 132 -52 140 -46 22 13 -2 37 -57 57 -56 20 -60 23 -68 61 -9 45 -2 112 15 132 19 23 41 14 91 -34 l48 -48 41 48 c22 26 48 47 57 47 35 0 51 -33 51 -102 0 -75 -10 -89 -79 -109 -44 -13 -61 -33 -44 -50 7 -7 29 -3 64 11 87 34 89 38 89 152 0 118 -10 141 -81 198 -43 34 -58 40 -97 40 -26 -1 -56 -6 -68 -13z"/>
 <path d="M1342 1338 c2 -6 10 -14 16 -16 7 -2 10 2 6 12 -7 18 -28 22 -22 4z"/>
 <path d="M915 1321 c-11 -20 38 -33 106 -29 71 4 86 9 74 27 -8 14 -172 15 -180 2z"/>
 <path d="M940 1143 c0 -5 7 -17 15 -27 14 -19 15 -19 15 7 0 17 -5 27 -15 27 -8 0 -15 -3 -15 -7z"/>
 <path d="M1429 964 c-6 -16 -14 -112 -18 -214 -11 -263 -17 -273 -179 -284 -57 -4 -111 -15 -170 -37 -150 -53 -183 -61 -249 -55 -66 5 -157 42 -187 75 -22 24 -36 150 -35 317 0 100 -3 140 -16 172 -10 23 -21 42 -26 42 -13 0 -36 -39 -54 -90 -8 -25 -18 -52 -22 -60 -3 -8 -7 -21 -9 -28 -9 -45 -48 -159 -61 -178 -14 -22 -14 -24 0 -24 14 0 13 -8 -5 -61 l-20 -60 25 -27 c19 -20 24 -34 20 -55 -4 -20 0 -35 14 -50 11 -12 30 -48 43 -80 14 -35 35 -67 51 -80 16 -11 29 -26 29 -33 0 -15 15 -20 105 -34 39 -6 95 -18 126 -25 80 -21 125 -19 194 10 71 29 86 30 130 9 32 -15 37 -15 102 11 206 82 273 148 273 269 0 22 12 63 27 94 35 72 43 188 19 282 -11 42 -13 66 -6 68 5 2 10 8 10 13 0 4 -6 6 -13 3 -13 -5 -40 52 -32 67 3 4 -8 22 -24 40 l-30 33 -12 -30z"/>
 <path d="M1554 969 c-3 -6 -1 -16 5 -22 8 -8 11 -5 11 11 0 24 -5 28 -16 11z"/>
 <path d="M420 940 c0 -19 3 -21 12 -12 9 9 9 15 0 24 -9 9 -12 7 -12 -12z"/>
 <path d="M740 915 l33 -34 -27 -36 -27 -35 29 0 c22 0 31 6 36 23 l6 22 19 -22 c11 -13 29 -23 42 -23 23 0 23 0 -4 28 -15 15 -27 32 -27 36 0 4 12 23 26 42 26 34 26 34 4 34 -12 0 -30 -10 -39 -22 -18 -22 -41 -18 -41 8 0 9 -11 14 -32 14 l-32 0 34 -35z"/>
 <path d="M1159 912 l30 -38 -32 -32 -32 -32 29 0 c16 0 35 8 42 18 13 16 15 16 28 0 7 -10 23 -18 35 -18 22 0 22 0 -4 34 l-26 34 32 36 31 36 -31 0 c-20 0 -31 -5 -31 -14 0 -26 -23 -30 -41 -8 -9 12 -27 22 -39 22 -21 0 -20 -2 9 -38z"/>
 <path d="M420 870 c0 -19 3 -21 12 -12 9 9 9 15 0 24 -9 9 -12 7 -12 -12z"/>
 <path d="M860 803 c-40 -22 -53 -24 -115 -19 -38 3 -81 8 -95 11 -14 3 -2 -3 25 -14 67 -26 145 -26 195 -1 21 11 41 24 44 29 13 20 -11 17 -54 -6z"/>
 <path d="M1080 810 c0 -18 63 -42 119 -46 31 -3 80 2 111 10 l55 14 -80 -5 c-66 -4 -90 -1 -135 16 -62 24 -70 25 -70 11z"/>
 </g>
<g id="layer106" fill="#c97967" stroke="none">
 <path d="M120 1982 c0 -50 34 -127 76 -172 57 -61 115 -86 255 -107 64 -10 117 -23 123 -31 6 -7 24 -25 40 -40 16 -15 44 -59 62 -98 18 -40 37 -75 43 -78 5 -4 28 3 51 15 35 18 38 23 25 33 -32 23 -8 62 66 108 94 58 106 86 132 298 2 14 6 -4 11 -40 18 -153 46 -204 147 -265 54 -33 59 -39 59 -71 0 -23 9 -47 28 -70 28 -35 45 -44 41 -21 -1 6 2 23 8 37 6 14 19 44 28 66 9 23 36 61 59 83 40 39 51 44 157 67 131 29 199 57 252 103 37 33 79 110 92 169 l7 32 -881 0 c-845 0 -881 -1 -881 -18z"/>
 <path d="M929 1592 c-14 -9 -44 -33 -66 -52 l-41 -35 -1 -115 c-2 -133 1 -140 73 -164 64 -21 88 -21 84 1 -2 10 -25 24 -61 36 -66 22 -77 38 -77 115 0 52 21 92 48 92 9 0 38 -21 64 -47 l48 -47 49 53 c48 52 51 53 73 39 27 -18 40 -67 32 -125 -7 -49 -20 -62 -83 -84 -51 -18 -69 -49 -28 -49 31 0 117 37 122 53 3 7 6 58 8 115 5 121 -6 145 -87 200 -56 37 -115 43 -157 14z"/>
 <path d="M1342 1338 c2 -6 10 -14 16 -16 7 -2 10 2 6 12 -7 18 -28 22 -22 4z"/>
 <path d="M915 1321 c-11 -20 38 -33 106 -29 71 4 86 9 74 27 -8 14 -172 15 -180 2z"/>
 <path d="M940 1143 c0 -5 7 -17 15 -27 14 -19 15 -19 15 7 0 17 -5 27 -15 27 -8 0 -15 -3 -15 -7z"/>
 <path d="M1429 964 c-6 -16 -14 -112 -19 -214 -10 -264 -16 -273 -175 -284 -79 -5 -136 -20 -270 -71 -60 -23 -80 -26 -143 -22 -77 6 -162 39 -195 75 -23 26 -38 143 -36 299 0 99 -4 145 -16 183 -9 27 -20 50 -25 50 -19 0 -42 -51 -87 -190 -25 -80 -53 -155 -61 -167 -13 -20 -13 -23 1 -23 14 0 13 -8 -5 -61 l-20 -60 25 -27 c19 -20 24 -34 20 -55 -4 -20 0 -35 14 -50 11 -12 30 -48 43 -80 14 -35 35 -67 51 -80 16 -11 29 -26 29 -33 0 -15 15 -20 105 -34 39 -6 95 -18 126 -25 80 -21 125 -19 194 10 71 29 86 30 130 9 32 -15 37 -15 102 11 206 82 273 148 273 269 0 22 12 63 27 94 35 72 43 188 19 282 -11 42 -13 66 -6 68 5 2 10 8 10 13 0 4 -6 6 -13 3 -13 -5 -40 52 -32 67 3 4 -8 22 -24 40 l-30 33 -12 -30z"/>
 <path d="M1554 969 c-3 -6 -1 -16 5 -22 8 -8 11 -5 11 11 0 24 -5 28 -16 11z"/>
 <path d="M420 940 c0 -19 3 -21 12 -12 9 9 9 15 0 24 -9 9 -12 7 -12 -12z"/>
 <path d="M744 916 c14 -19 26 -38 26 -42 0 -4 -12 -21 -27 -36 -27 -28 -27 -28 -4 -28 13 0 31 10 41 22 l17 22 14 -22 c8 -13 24 -22 38 -22 l25 0 -27 28 c-33 34 -33 37 -1 79 l25 33 -24 0 c-16 0 -28 -9 -36 -26 -9 -21 -14 -24 -26 -14 -8 7 -15 19 -15 26 0 8 -11 14 -26 14 l-26 0 26 -34z"/>
 <path d="M1140 943 c0 -5 11 -21 24 -38 l24 -29 -25 -33 -25 -33 25 0 c16 0 26 7 30 20 3 11 10 20 15 20 6 0 14 -9 17 -20 4 -13 15 -20 31 -20 l25 0 -27 35 -27 36 33 34 34 35 -32 0 c-21 0 -32 -5 -32 -14 0 -7 -7 -19 -15 -26 -12 -10 -17 -7 -26 14 -11 23 -49 38 -49 19z"/>
 <path d="M420 870 c0 -19 3 -21 12 -12 9 9 9 15 0 24 -9 9 -12 7 -12 -12z"/>
 <path d="M856 799 c-43 -23 -77 -27 -151 -17 l-50 7 50 -14 c28 -8 67 -15 88 -15 39 0 117 33 117 50 0 14 -10 12 -54 -11z"/>
 <path d="M1080 811 c0 -13 68 -43 109 -48 20 -2 56 0 81 5 l45 10 -65 1 c-41 1 -81 9 -109 21 -48 22 -61 24 -61 11z"/>
 </g>
<g id="layer107" fill="#927368" stroke="none">
 <path d="M120 1982 c0 -50 34 -127 76 -172 57 -61 115 -86 255 -107 64 -10 117 -23 123 -31 6 -7 24 -25 40 -40 16 -15 44 -59 62 -98 18 -40 38 -75 44 -79 17 -11 60 23 60 48 0 50 14 67 81 109 94 58 106 87 132 298 2 14 6 -4 11 -40 18 -153 46 -204 147 -265 55 -34 59 -39 59 -74 0 -27 7 -44 26 -62 l26 -24 19 24 c10 13 19 30 19 38 0 26 38 88 78 126 35 34 50 40 153 63 131 29 199 57 252 103 37 33 79 110 92 169 l7 32 -881 0 c-845 0 -881 -1 -881 -18z"/>
 <path d="M914 1581 c-22 -15 -52 -43 -67 -60 -26 -31 -27 -38 -27 -140 0 -71 4 -113 13 -123 13 -17 98 -48 130 -48 12 0 17 6 15 17 -2 10 -25 24 -61 36 -66 22 -77 38 -77 115 0 52 21 92 48 92 9 0 38 -21 64 -47 l48 -47 49 53 c48 52 51 53 73 39 27 -18 40 -67 32 -125 -7 -49 -20 -62 -83 -84 -51 -18 -69 -49 -28 -49 31 0 117 37 122 53 3 7 6 58 8 115 5 121 -6 145 -87 200 -64 42 -117 44 -172 3z"/>
 <path d="M920 1320 c-23 -14 14 -25 85 -25 33 0 69 4 80 8 34 14 -3 27 -80 27 -38 0 -77 -4 -85 -10z"/>
 <path d="M1429 963 c-6 -15 -14 -111 -19 -213 -10 -264 -16 -273 -175 -284 -79 -5 -136 -20 -270 -71 -60 -23 -80 -26 -143 -22 -77 6 -162 39 -195 75 -23 26 -38 143 -36 299 0 99 -4 145 -16 183 -9 27 -20 50 -25 50 -19 0 -42 -51 -87 -190 -25 -80 -53 -155 -61 -167 -13 -20 -13 -23 1 -23 14 0 13 -8 -5 -61 l-20 -60 25 -27 c19 -20 24 -34 20 -55 -4 -20 0 -35 14 -50 11 -12 30 -48 43 -80 14 -35 35 -67 51 -80 16 -11 29 -26 29 -33 0 -15 15 -20 105 -34 39 -6 95 -18 126 -25 80 -21 125 -19 194 10 71 29 86 30 130 9 32 -15 37 -15 102 11 206 82 273 148 273 269 0 22 12 63 27 94 52 106 40 276 -31 435 -30 67 -43 77 -57 40z"/>
 <path d="M744 916 c14 -19 26 -38 26 -42 0 -4 -12 -21 -27 -36 -27 -28 -27 -28 -4 -28 13 0 31 10 41 22 l17 22 14 -22 c8 -13 24 -22 38 -22 l25 0 -27 28 c-33 34 -33 37 -1 79 l25 33 -24 0 c-16 0 -28 -9 -36 -26 -9 -21 -14 -24 -26 -14 -8 7 -15 19 -15 26 0 8 -11 14 -26 14 l-26 0 26 -34z"/>
 <path d="M1140 943 c0 -5 11 -21 24 -38 l24 -29 -25 -33 -25 -33 25 0 c16 0 26 7 30 20 3 11 10 20 15 20 6 0 14 -9 17 -20 4 -13 15 -20 31 -20 l25 0 -27 35 -27 36 33 34 34 35 -32 0 c-21 0 -32 -5 -32 -14 0 -7 -7 -19 -15 -26 -12 -10 -17 -7 -26 14 -11 23 -49 38 -49 19z"/>
 <path d="M856 799 c-43 -23 -77 -27 -151 -17 l-50 7 50 -14 c28 -8 67 -15 88 -15 39 0 117 33 117 50 0 14 -10 12 -54 -11z"/>
 <path d="M1080 811 c0 -13 68 -43 109 -48 20 -2 56 0 81 5 l45 10 -65 1 c-41 1 -81 9 -109 21 -48 22 -61 24 -61 11z"/>
 </g>
<g id="layer108" fill="#706664" stroke="none">
 <path d="M120 1982 c0 -50 34 -127 76 -172 57 -61 115 -86 255 -107 64 -10 117 -23 123 -31 6 -7 24 -25 40 -40 16 -15 44 -59 62 -98 18 -40 38 -75 44 -79 18 -11 60 23 60 50 0 46 18 70 84 110 44 27 71 51 82 73 19 40 43 152 45 207 1 28 6 9 19 -60 24 -143 39 -167 148 -234 48 -30 52 -36 52 -70 0 -27 7 -44 26 -62 l26 -24 19 24 c10 13 19 30 19 38 0 26 38 88 78 126 35 34 50 40 153 63 131 29 199 57 252 103 37 33 79 110 92 169 l7 32 -881 0 c-845 0 -881 -1 -881 -18z"/>
 <path d="M914 1581 c-85 -62 -89 -70 -92 -194 -3 -99 -1 -114 15 -128 26 -22 111 -52 128 -45 28 10 15 23 -45 45 -33 12 -64 30 -70 41 -5 10 -10 43 -10 74 0 43 5 61 23 81 28 33 45 27 93 -31 l36 -45 54 51 c52 49 56 51 77 37 30 -19 43 -88 28 -144 -11 -39 -15 -43 -69 -61 -38 -12 -58 -25 -61 -37 -3 -15 2 -17 29 -12 17 4 52 16 76 26 l44 20 1 58 c2 200 2 201 -85 261 -64 43 -117 44 -172 3z"/>
 <path d="M920 1320 c-23 -14 14 -25 85 -25 33 0 69 4 80 8 34 14 -3 27 -80 27 -38 0 -77 -4 -85 -10z"/>
 <path d="M1437 983 c-14 -23 -27 -141 -27 -244 0 -130 -13 -208 -39 -240 -14 -18 -34 -23 -117 -31 -74 -7 -133 -21 -232 -55 -117 -40 -142 -45 -200 -41 -64 3 -144 33 -194 71 -23 18 -39 143 -37 304 0 99 -4 145 -16 183 -9 27 -20 50 -25 50 -19 0 -42 -51 -87 -190 -25 -80 -53 -155 -61 -167 -13 -20 -13 -23 1 -23 14 0 13 -8 -5 -61 l-20 -60 25 -27 c19 -20 24 -34 20 -55 -4 -20 0 -35 14 -50 11 -12 30 -48 43 -80 14 -35 35 -67 51 -80 16 -11 29 -26 29 -33 0 -15 15 -20 105 -34 39 -6 95 -18 126 -25 80 -21 125 -19 194 10 71 29 86 30 130 9 32 -15 37 -15 102 11 206 82 273 148 273 269 0 22 12 63 27 94 38 77 43 188 14 300 -32 125 -79 220 -94 195z"/>
 <path d="M730 943 c0 -5 9 -19 20 -33 25 -32 25 -43 0 -65 -25 -22 -26 -35 -2 -35 9 0 23 10 31 22 l14 22 18 -23 c10 -12 26 -21 35 -19 15 3 13 7 -9 34 l-26 30 24 30 c29 35 31 44 7 44 -11 0 -24 -12 -31 -27 l-13 -28 -22 28 c-20 25 -46 36 -46 20z"/>
 <path d="M1140 941 c0 -5 7 -14 16 -21 33 -28 35 -47 8 -79 l-26 -31 25 0 c16 0 26 7 30 20 3 11 10 20 17 20 7 0 14 -9 17 -20 4 -13 14 -20 31 -20 l26 0 -27 28 c-32 34 -33 37 -7 69 11 14 20 30 20 34 0 19 -28 8 -45 -17 -13 -20 -19 -23 -31 -13 -8 6 -14 18 -14 25 0 8 -9 14 -20 14 -11 0 -20 -4 -20 -9z"/>
 <path d="M856 797 c-28 -15 -57 -21 -95 -20 -53 0 -54 0 -21 -9 19 -5 49 -7 67 -5 40 7 103 36 103 48 0 13 -10 10 -54 -14z"/>
 <path d="M1098 800 c37 -31 96 -43 155 -32 l52 10 -57 1 c-32 0 -81 10 -110 21 -65 25 -69 25 -40 0z"/>
 </g>
<g id="layer109" fill="#705850" stroke="none">
 <path d="M120 1982 c0 -50 34 -127 76 -172 57 -61 115 -86 255 -107 64 -10 117 -23 123 -31 6 -7 24 -25 40 -40 16 -15 44 -59 62 -98 18 -40 38 -75 44 -79 23 -14 57 22 63 67 6 45 9 49 92 101 65 41 91 93 107 215 13 102 22 102 31 2 13 -131 43 -180 150 -242 43 -25 47 -30 47 -66 0 -29 7 -45 26 -63 l26 -24 19 24 c10 13 19 30 19 38 0 26 38 88 78 126 35 34 50 40 153 63 131 29 199 57 252 103 37 33 79 110 92 169 l7 32 -441 0 -440 0 -4 -32 -4 -33 -1 33 -2 32 -435 0 c-414 0 -435 -1 -435 -18z"/>
 <path d="M914 1581 c-81 -59 -86 -69 -91 -186 -4 -82 -2 -110 10 -128 16 -24 118 -64 136 -53 21 14 10 25 -41 41 -73 23 -88 43 -88 119 0 53 4 66 24 85 30 28 49 20 96 -39 l32 -41 54 51 c47 44 56 49 74 40 26 -14 40 -49 40 -100 0 -68 -13 -86 -79 -111 -38 -13 -61 -27 -61 -37 0 -18 41 -11 106 17 l44 20 0 119 c0 136 -7 151 -89 203 -61 39 -114 39 -167 0z"/>
 <path d="M920 1320 c-23 -14 14 -25 85 -25 33 0 69 4 80 8 34 14 -3 27 -80 27 -38 0 -77 -4 -85 -10z"/>
 <path d="M1437 983 c-14 -23 -27 -141 -27 -244 0 -130 -13 -208 -39 -240 -14 -18 -34 -23 -117 -31 -74 -7 -133 -21 -232 -55 -117 -40 -142 -45 -200 -41 -64 3 -144 33 -194 71 -23 18 -39 143 -37 304 0 99 -4 145 -16 183 -9 27 -20 50 -25 50 -19 0 -42 -51 -87 -190 -25 -80 -53 -155 -61 -167 -13 -20 -13 -23 1 -23 14 0 13 -8 -5 -61 l-20 -60 25 -27 c19 -20 24 -34 20 -55 -4 -20 0 -35 14 -50 11 -12 30 -48 43 -80 14 -35 35 -67 51 -80 16 -11 29 -26 29 -33 0 -15 15 -20 105 -34 39 -6 95 -18 126 -25 80 -21 125 -19 194 10 71 29 86 30 130 9 32 -15 37 -15 102 11 206 82 273 148 273 269 0 22 12 63 28 95 24 50 27 67 27 161 0 89 -4 118 -28 190 -40 118 -66 165 -80 143z"/>
 <path d="M730 943 c0 -5 9 -19 20 -33 25 -32 25 -43 0 -65 -25 -22 -26 -35 -2 -35 9 0 23 10 31 22 l14 22 18 -23 c10 -12 26 -21 35 -19 15 3 13 7 -9 34 l-26 30 24 30 c29 35 31 44 7 44 -11 0 -24 -12 -31 -27 l-13 -28 -22 28 c-20 25 -46 36 -46 20z"/>
 <path d="M1140 941 c0 -5 7 -14 16 -21 33 -28 35 -47 8 -79 l-26 -31 25 0 c16 0 26 7 30 20 3 11 10 20 17 20 7 0 14 -9 17 -20 4 -13 14 -20 31 -20 l26 0 -27 28 c-32 34 -33 37 -7 69 11 14 20 30 20 34 0 19 -28 8 -45 -17 -13 -20 -19 -23 -31 -13 -8 6 -14 18 -14 25 0 8 -9 14 -20 14 -11 0 -20 -4 -20 -9z"/>
 <path d="M873 805 c-12 -8 -45 -21 -75 -29 -46 -13 -49 -15 -20 -15 36 -1 132 36 132 50 0 13 -13 11 -37 -6z"/>
 <path d="M1085 810 c17 -28 128 -60 140 -40 4 6 -4 10 -19 10 -13 0 -45 9 -71 20 -53 23 -59 24 -50 10z"/>
 </g>
<g id="layer110" fill="#2e556a" stroke="none">
 <path d="M120 1982 c0 -50 34 -127 76 -172 57 -61 115 -86 255 -107 64 -10 117 -23 123 -31 6 -7 24 -25 40 -40 16 -15 44 -59 62 -98 18 -40 37 -75 43 -78 6 -4 22 1 36 11 18 13 24 27 25 55 0 40 2 42 95 101 65 41 91 93 107 215 13 102 22 102 31 2 13 -131 43 -180 149 -241 40 -23 46 -31 51 -70 4 -28 13 -49 29 -61 22 -17 24 -17 41 3 9 12 17 28 17 36 0 26 38 88 78 126 35 34 50 40 153 63 131 29 199 57 252 103 37 33 79 110 92 169 l7 32 -441 0 -440 0 -4 -32 -4 -33 -1 33 -2 32 -435 0 c-414 0 -435 -1 -435 -18z"/>
 <path d="M950 1603 c-25 -9 -99 -73 -111 -95 -15 -28 -23 -197 -10 -230 16 -42 151 -86 151 -49 0 5 -24 17 -52 26 -80 26 -88 37 -88 117 0 55 4 72 20 88 29 29 39 26 92 -27 l48 -47 48 47 c26 26 53 47 59 47 26 0 53 -52 53 -104 0 -75 -15 -96 -82 -119 -32 -10 -58 -23 -58 -28 0 -20 27 -19 85 4 l60 23 3 118 c3 133 -1 143 -85 203 -45 32 -92 41 -133 26z"/>
 <path d="M920 1320 c-23 -14 14 -25 85 -25 33 0 69 4 80 8 34 14 -3 27 -80 27 -38 0 -77 -4 -85 -10z"/>
 <path d="M1436 979 c-15 -49 -18 -83 -25 -245 -11 -255 -9 -252 -197 -272 -62 -7 -119 -22 -185 -47 -122 -48 -218 -57 -298 -27 -73 28 -118 61 -126 92 -3 14 -8 111 -11 215 -3 142 -9 202 -21 238 -9 26 -20 47 -25 47 -16 0 -38 -49 -82 -185 -25 -77 -53 -152 -62 -167 -13 -25 -13 -28 0 -28 12 0 12 -9 -6 -61 l-20 -60 25 -27 c19 -20 24 -34 20 -55 -4 -20 0 -35 14 -50 11 -12 30 -48 43 -80 14 -35 35 -67 51 -80 16 -11 29 -26 29 -33 0 -15 15 -20 105 -34 39 -6 95 -18 126 -25 80 -21 125 -19 194 10 71 29 86 30 130 9 32 -15 37 -15 102 11 206 82 273 148 273 269 0 22 12 63 28 95 25 51 27 65 26 166 -1 95 -5 121 -31 197 -31 90 -69 152 -77 127z"/>
 <path d="M749 911 c12 -16 21 -32 21 -36 0 -4 -9 -20 -21 -36 -19 -27 -19 -29 -2 -29 10 0 24 9 31 20 7 11 16 20 21 20 5 0 13 -9 16 -20 4 -11 15 -20 26 -20 19 0 19 2 -5 33 l-25 33 25 32 c21 26 23 32 9 32 -9 0 -25 -10 -35 -22 l-19 -23 -16 23 c-9 12 -23 22 -31 22 -12 0 -11 -6 5 -29z"/>
 <path d="M1164 911 c30 -31 29 -38 -7 -78 l-20 -23 25 0 c17 0 27 7 31 20 3 11 10 20 17 20 7 0 14 -9 17 -20 3 -11 14 -20 24 -20 24 0 24 12 -1 35 -25 23 -25 30 1 63 14 19 17 28 8 31 -7 2 -21 -7 -32 -20 l-19 -24 -18 23 c-10 12 -26 22 -36 22 -15 0 -13 -5 10 -29z"/>
 <path d="M875 803 c-16 -9 -50 -22 -75 -29 -39 -11 -41 -13 -15 -13 32 -1 108 30 119 48 9 14 7 14 -29 -6z"/>
 <path d="M1088 807 c13 -15 45 -28 107 -42 43 -9 24 5 -32 25 -27 9 -57 21 -68 25 -18 8 -18 7 -7 -8z"/>
 </g>
<g id="layer111" fill="#892e2b" stroke="none">
 <path d="M120 1982 c0 -50 34 -127 76 -172 57 -61 115 -86 255 -107 64 -10 117 -23 123 -31 6 -7 24 -25 40 -40 16 -15 44 -59 62 -98 18 -40 37 -75 43 -78 6 -4 22 1 36 11 18 14 24 27 25 56 0 39 5 44 110 110 47 29 81 100 83 172 1 30 5 55 10 55 4 0 7 17 7 38 1 57 16 18 23 -58 12 -130 39 -173 148 -240 41 -24 47 -33 52 -71 4 -28 13 -49 29 -61 22 -17 24 -17 41 3 9 12 17 28 17 36 0 26 38 88 78 126 35 34 50 40 153 63 131 29 199 57 252 103 37 33 79 110 92 169 l7 32 -441 0 -440 0 -4 -32 -4 -33 -1 33 -2 32 -435 0 c-414 0 -435 -1 -435 -18z m657 -87 c0 -8 -4 -12 -9 -9 -5 3 -6 10 -3 15 4 5 -1 12 -9 15 -9 3 -16 11 -16 17 0 5 8 3 18 -6 10 -10 19 -24 19 -32z"/>
 <path d="M950 1603 c-25 -9 -99 -73 -111 -95 -15 -28 -23 -197 -10 -230 16 -42 151 -86 151 -49 0 5 -24 17 -52 26 -80 26 -88 37 -88 117 0 55 4 72 20 88 29 29 39 26 92 -27 l48 -47 48 47 c26 26 53 47 59 47 26 0 53 -52 53 -104 0 -75 -15 -96 -82 -119 -32 -10 -58 -23 -58 -28 0 -20 27 -19 85 4 l60 23 3 118 c3 133 -1 143 -85 203 -45 32 -92 41 -133 26z"/>
 <path d="M920 1320 c-23 -14 14 -25 85 -25 33 0 69 4 80 8 34 14 -3 27 -80 27 -38 0 -77 -4 -85 -10z"/>
 <path d="M1436 979 c-15 -49 -18 -83 -25 -245 -11 -255 -9 -252 -197 -272 -62 -7 -119 -22 -185 -47 -122 -48 -218 -57 -298 -27 -73 28 -118 61 -126 92 -3 14 -8 111 -11 215 -3 142 -9 202 -21 238 -9 26 -20 47 -25 47 -16 0 -38 -49 -82 -185 -25 -77 -53 -152 -62 -167 -13 -25 -13 -28 0 -28 12 0 12 -9 -6 -61 l-20 -60 25 -27 c19 -20 24 -34 20 -55 -4 -20 0 -35 14 -50 11 -12 30 -48 43 -80 14 -35 35 -67 51 -80 16 -11 29 -26 29 -33 0 -15 15 -20 105 -34 39 -6 95 -18 126 -25 80 -21 125 -19 194 10 71 29 86 30 130 9 32 -15 37 -15 102 11 206 82 273 148 273 269 0 22 12 63 28 95 25 51 27 65 26 166 -1 95 -5 121 -31 197 -31 90 -69 152 -77 127z"/>
 <path d="M749 911 c12 -16 21 -32 21 -36 0 -4 -9 -20 -21 -36 -19 -27 -19 -29 -2 -29 10 0 24 9 31 20 7 11 16 20 21 20 5 0 13 -9 16 -20 4 -11 15 -20 26 -20 19 0 19 2 -5 33 l-25 33 25 32 c21 26 23 32 9 32 -9 0 -25 -10 -35 -22 l-19 -23 -16 23 c-9 12 -23 22 -31 22 -12 0 -11 -6 5 -29z"/>
 <path d="M1164 911 c30 -31 29 -38 -7 -78 l-20 -23 25 0 c17 0 27 7 31 20 3 11 10 20 17 20 7 0 14 -9 17 -20 3 -11 14 -20 24 -20 24 0 24 12 -1 35 -25 23 -25 30 1 63 14 19 17 28 8 31 -7 2 -21 -7 -32 -20 l-19 -24 -18 23 c-10 12 -26 22 -36 22 -15 0 -13 -5 10 -29z"/>
 <path d="M875 803 c-16 -9 -50 -22 -75 -29 -39 -11 -41 -13 -15 -13 32 -1 108 30 119 48 9 14 7 14 -29 -6z"/>
 <path d="M1088 807 c13 -15 45 -28 107 -42 43 -9 24 5 -32 25 -27 9 -57 21 -68 25 -18 8 -18 7 -7 -8z"/>
 </g>
<g id="layer112" fill="#4f4341" stroke="none">
 <path d="M120 1982 c0 -50 34 -127 76 -172 57 -61 115 -86 255 -107 64 -10 117 -23 123 -31 6 -7 24 -25 40 -40 16 -15 44 -59 62 -98 18 -40 37 -75 43 -78 6 -4 22 1 36 11 18 14 24 27 25 56 0 39 5 44 110 110 47 29 81 100 83 172 1 30 5 55 10 55 4 0 7 17 7 38 1 57 16 18 23 -58 12 -130 39 -173 148 -240 41 -24 47 -33 52 -71 4 -28 13 -49 29 -61 22 -17 24 -17 41 3 9 12 17 28 17 36 0 26 38 88 78 126 35 34 50 40 153 63 131 29 199 57 252 103 37 33 79 110 92 169 l7 32 -441 0 -440 0 -4 -32 -4 -33 -1 33 -2 32 -435 0 c-414 0 -435 -1 -435 -18z m657 -87 c0 -8 -4 -12 -9 -9 -5 3 -6 10 -3 15 4 5 -1 12 -9 15 -9 3 -16 11 -16 17 0 5 8 3 18 -6 10 -10 19 -24 19 -32z"/>
 <path d="M950 1603 c-25 -9 -99 -73 -111 -95 -15 -28 -23 -197 -10 -230 16 -42 151 -86 151 -49 0 5 -24 17 -52 26 -80 26 -88 37 -88 117 0 55 4 72 20 88 29 29 39 26 92 -27 l48 -47 48 47 c26 26 53 47 59 47 26 0 53 -52 53 -104 0 -75 -15 -96 -82 -119 -32 -10 -58 -23 -58 -28 0 -20 27 -19 85 4 l60 23 3 118 c3 133 -1 143 -85 203 -45 32 -92 41 -133 26z"/>
 <path d="M930 1321 l-25 -7 24 -8 c32 -11 110 -11 141 -1 l25 9 -25 7 c-14 4 -45 7 -70 7 -25 0 -56 -3 -70 -7z"/>
 <path d="M1436 979 c-15 -49 -18 -83 -25 -245 -11 -255 -9 -252 -197 -272 -62 -7 -119 -22 -185 -47 -122 -48 -218 -57 -298 -27 -73 28 -118 61 -126 92 -3 14 -8 111 -11 215 -3 142 -9 202 -21 238 -9 26 -20 47 -25 47 -16 0 -38 -49 -82 -185 -25 -77 -53 -152 -62 -167 -13 -25 -13 -28 0 -28 12 0 12 -9 -6 -61 l-20 -60 25 -27 c19 -20 24 -34 20 -55 -4 -20 0 -35 14 -50 11 -12 30 -48 43 -80 14 -35 35 -67 51 -80 16 -11 29 -26 29 -33 0 -15 15 -20 105 -34 39 -6 95 -18 126 -25 80 -21 125 -19 194 10 71 29 86 30 130 9 32 -15 37 -15 102 11 206 82 273 148 273 269 0 22 12 63 28 95 25 51 27 65 26 166 -1 95 -5 121 -31 197 -31 90 -69 152 -77 127z"/>
 <path d="M749 911 c12 -16 21 -32 21 -36 0 -4 -9 -20 -21 -36 -19 -27 -19 -29 -2 -29 10 0 24 9 31 20 7 11 16 20 21 20 5 0 13 -9 16 -20 4 -11 15 -20 26 -20 19 0 19 2 -5 33 l-25 33 25 32 c21 26 23 32 9 32 -9 0 -25 -10 -35 -22 l-19 -23 -16 23 c-9 12 -23 22 -31 22 -12 0 -11 -6 5 -29z"/>
 <path d="M1164 911 c30 -31 29 -38 -7 -78 l-20 -23 25 0 c17 0 27 7 31 20 3 11 10 20 17 20 7 0 14 -9 17 -20 3 -11 14 -20 24 -20 24 0 24 12 -1 35 -25 23 -25 30 1 63 14 19 17 28 8 31 -7 2 -21 -7 -32 -20 l-19 -24 -18 23 c-10 12 -26 22 -36 22 -15 0 -13 -5 10 -29z"/>
 <path d="M875 803 c-16 -9 -50 -22 -75 -29 -39 -11 -41 -13 -15 -13 32 -1 108 30 119 48 9 14 7 14 -29 -6z"/>
 <path d="M1088 807 c13 -15 45 -28 107 -42 43 -9 24 5 -32 25 -27 9 -57 21 -68 25 -18 8 -18 7 -7 -8z"/>
 </g>
<g id="layer113" fill="#115171" stroke="none">
 <path d="M120 1982 c0 -50 34 -127 76 -172 57 -61 115 -86 255 -107 64 -10 117 -23 123 -31 6 -7 24 -25 40 -40 16 -15 42 -56 59 -92 41 -91 43 -93 78 -73 24 14 29 24 29 55 0 40 5 45 110 111 47 29 81 100 83 172 1 30 5 55 10 55 4 0 7 17 7 38 1 57 16 18 23 -58 12 -131 36 -169 152 -243 45 -29 50 -36 53 -74 2 -31 9 -45 27 -57 23 -15 25 -14 40 6 8 12 15 28 15 36 0 25 39 87 78 125 35 34 50 40 153 63 131 29 199 57 252 103 37 33 79 110 92 169 l7 32 -441 0 -440 0 -4 -32 -4 -33 -1 33 -2 32 -435 0 c-414 0 -435 -1 -435 -18z m657 -87 c0 -8 -4 -12 -9 -9 -5 3 -6 10 -3 15 4 5 -1 12 -9 15 -9 3 -16 11 -16 17 0 5 8 3 18 -6 10 -10 19 -24 19 -32z"/>
 <path d="M945 1600 c-24 -9 -115 -95 -115 -108 0 -5 18 8 40 29 23 22 54 46 70 54 27 14 29 14 23 -2 -6 -16 -5 -16 10 -4 14 11 17 11 17 0 0 -12 2 -12 9 0 6 10 10 10 16 1 6 -9 9 -9 15 0 12 19 89 -27 117 -69 13 -19 23 -29 23 -22 0 19 -78 98 -114 115 -37 17 -79 20 -111 6z"/>
 <path d="M930 1321 l-25 -7 24 -8 c32 -11 110 -11 141 -1 l25 9 -25 7 c-14 4 -45 7 -70 7 -25 0 -56 -3 -70 -7z"/>
 <path d="M531 966 c-12 -14 -39 -89 -87 -240 -14 -44 -33 -90 -41 -103 -14 -21 -14 -23 0 -23 14 0 13 -8 -5 -61 l-20 -60 25 -27 c19 -20 24 -34 20 -55 -4 -20 0 -35 14 -50 11 -12 30 -48 43 -80 14 -35 35 -67 51 -80 16 -11 29 -26 29 -33 0 -15 15 -20 105 -34 39 -6 95 -18 126 -25 80 -21 125 -19 194 10 71 29 86 30 130 9 32 -15 37 -15 102 11 206 82 273 148 273 269 0 22 12 63 28 95 25 51 27 65 26 166 -1 96 -5 121 -32 199 -17 49 -40 98 -50 109 -19 19 -20 18 -32 -15 -7 -18 -16 -113 -20 -214 -10 -256 -4 -249 -204 -274 -59 -7 -121 -24 -180 -47 -80 -32 -102 -37 -181 -37 -83 -1 -96 2 -158 32 -48 24 -71 42 -79 60 -5 15 -12 113 -14 217 -3 144 -8 203 -21 243 -18 55 -24 60 -42 38z m-6 -117 c-8 -47 -21 -105 -30 -129 -9 -25 -12 -46 -7 -48 5 -1 -1 -37 -15 -79 -25 -81 -24 -96 5 -70 17 16 18 14 11 -47 -3 -35 -10 -69 -14 -75 -5 -9 0 -12 16 -9 22 3 24 -1 29 -52 5 -53 6 -55 33 -52 30 3 32 -3 17 -44 -14 -35 -7 -41 25 -20 14 9 25 13 25 8 0 -4 6 -16 13 -26 13 -18 16 -18 58 7 55 31 114 46 107 26 -3 -8 -9 -25 -13 -37 -7 -23 -6 -23 17 -9 12 9 40 19 60 22 34 7 36 6 31 -15 -6 -21 -4 -21 18 -10 13 7 53 33 88 57 35 24 66 42 68 40 2 -2 -4 -21 -12 -42 l-16 -37 29 21 c16 11 41 25 56 31 24 9 26 7 26 -15 l0 -25 46 35 c68 52 84 59 84 39 0 -12 12 -3 37 25 35 42 37 42 45 21 12 -33 31 -19 50 36 9 27 17 40 18 29 1 -32 16 1 30 70 7 33 17 64 22 69 4 6 8 25 8 44 0 26 4 33 14 29 13 -5 13 0 1 41 -11 35 -11 48 -3 53 9 6 9 14 0 34 -7 15 -10 31 -6 36 3 5 -2 34 -11 65 -9 31 -14 58 -12 60 6 6 34 -99 48 -180 15 -91 7 -172 -25 -242 -14 -31 -26 -73 -26 -93 -1 -49 -30 -111 -70 -145 -18 -15 -82 -52 -142 -82 -102 -51 -110 -54 -131 -39 -32 22 -97 19 -151 -9 -44 -22 -54 -23 -114 -15 -37 5 -80 14 -96 19 -16 6 -61 13 -100 16 -67 6 -73 9 -110 48 -21 22 -49 66 -63 96 -14 30 -33 64 -44 76 -15 16 -17 26 -10 45 7 20 4 29 -17 52 l-26 27 22 62 c15 40 19 64 12 68 -6 4 -3 20 9 46 19 40 47 125 76 228 9 32 18 56 21 54 2 -3 -3 -43 -11 -89z"/>
 <path d="M748 917 c27 -29 27 -41 1 -78 -19 -27 -19 -29 -2 -29 10 0 24 9 31 20 7 11 16 20 21 20 5 0 13 -9 16 -20 4 -11 15 -20 26 -20 19 0 19 2 -5 33 l-25 33 25 32 c21 26 23 32 9 32 -9 0 -25 -10 -35 -22 l-19 -23 -16 23 c-9 12 -23 22 -32 22 -14 0 -13 -4 5 -23z"/>
 <path d="M1164 911 c30 -31 29 -38 -7 -78 l-20 -23 26 0 c17 0 27 5 27 14 0 26 22 29 40 6 9 -12 23 -21 29 -19 9 3 6 13 -9 32 -23 28 -22 36 6 75 15 20 15 22 1 22 -9 0 -23 -10 -32 -22 l-16 -23 -19 23 c-10 12 -26 22 -36 22 -15 0 -13 -5 10 -29z"/>
 </g>
<g id="layer114" fill="#2e4a59" stroke="none">
 <path d="M120 1982 c0 -50 34 -127 76 -172 57 -61 115 -86 255 -107 64 -10 117 -23 123 -31 6 -7 24 -25 40 -40 16 -15 42 -56 59 -92 41 -90 42 -92 78 -72 24 14 29 23 29 55 0 39 5 44 110 110 43 27 77 94 85 167 l6 55 -15 -39 c-35 -93 -74 -88 -146 18 -27 41 -55 78 -62 82 -6 4 0 -8 14 -27 14 -19 36 -52 48 -74 37 -67 70 -105 91 -105 30 0 15 -17 -61 -66 -86 -55 -110 -85 -110 -136 0 -56 -20 -45 -50 30 -14 34 -40 76 -57 95 -18 18 -33 42 -33 52 0 11 23 55 50 99 28 43 60 97 71 120 30 63 -3 16 -72 -101 -34 -57 -66 -103 -73 -103 -7 0 -67 11 -133 24 -135 27 -186 49 -230 100 -29 33 -73 130 -73 161 0 8 -4 15 -10 15 -5 0 -10 -8 -10 -18z"/>
 <path d="M981 1955 c-1 -27 -4 -60 -7 -72 -4 -14 -2 -23 5 -23 6 0 11 17 11 38 1 57 16 18 23 -58 12 -131 36 -169 152 -243 46 -29 50 -35 53 -76 3 -33 8 -44 23 -48 10 -3 19 -10 19 -17 1 -16 40 33 40 51 0 26 38 88 78 126 35 34 50 40 153 63 131 29 199 57 252 103 37 33 79 110 92 169 11 55 -11 36 -35 -30 -17 -46 -37 -77 -79 -119 -63 -62 -103 -80 -256 -110 -81 -16 -91 -16 -100 -2 -5 8 -28 43 -50 77 -22 33 -50 79 -63 101 -15 27 -20 32 -16 15 3 -14 31 -61 60 -106 30 -44 54 -91 54 -104 0 -13 -18 -42 -44 -70 -27 -29 -49 -65 -57 -91 -14 -49 -35 -81 -24 -37 10 40 -26 91 -93 132 -65 39 -114 86 -91 86 22 0 62 45 102 115 19 33 47 72 61 88 14 15 21 27 16 27 -5 0 -24 -20 -42 -45 -82 -114 -109 -145 -128 -145 -45 0 -70 63 -70 178 0 41 -4 72 -10 72 -5 0 -11 -15 -11 -32 l-2 -33 -7 35 c-7 33 -7 33 -9 -15z"/>
 <path d="M945 1600 c-24 -9 -115 -95 -115 -108 0 -5 18 8 40 29 23 22 54 46 70 54 27 14 29 14 23 -2 -6 -16 -5 -16 10 -4 14 11 17 11 17 0 0 -12 2 -12 9 0 6 10 10 10 16 1 6 -9 9 -9 15 0 12 19 89 -27 117 -69 13 -19 23 -29 23 -22 0 19 -78 98 -114 115 -37 17 -79 20 -111 6z"/>
 <path d="M930 1321 l-25 -7 24 -8 c32 -11 110 -11 141 -1 l25 9 -25 7 c-14 4 -45 7 -70 7 -25 0 -56 -3 -70 -7z"/>
 <path d="M531 966 c-12 -14 -39 -89 -87 -240 -14 -44 -33 -90 -41 -103 -14 -21 -14 -23 0 -23 14 0 13 -8 -5 -61 l-20 -60 25 -27 c19 -20 24 -34 20 -55 -4 -20 0 -35 14 -50 11 -12 30 -48 43 -80 14 -35 35 -67 51 -80 16 -11 29 -26 29 -33 0 -15 15 -20 105 -34 39 -6 95 -18 126 -25 80 -21 125 -19 194 10 71 29 86 30 130 9 32 -15 37 -15 102 11 206 82 273 148 273 269 0 22 12 63 28 95 25 51 27 65 26 166 -1 96 -5 121 -32 199 -17 49 -40 98 -50 109 -19 19 -20 18 -32 -15 -7 -18 -16 -113 -20 -214 -10 -256 -4 -249 -204 -274 -59 -7 -121 -24 -180 -47 -80 -32 -102 -37 -181 -37 -83 -1 -96 2 -158 32 -48 24 -71 42 -79 60 -5 15 -12 113 -14 217 -3 144 -8 203 -21 243 -18 55 -24 60 -42 38z m-6 -117 c-8 -47 -21 -105 -30 -129 -9 -25 -12 -46 -7 -48 5 -1 -1 -37 -15 -79 -25 -81 -24 -96 5 -70 17 16 18 14 11 -47 -3 -35 -10 -69 -14 -75 -5 -9 0 -12 16 -9 22 3 24 -1 29 -52 5 -53 6 -55 33 -52 30 3 32 -3 17 -44 -14 -35 -7 -41 25 -20 14 9 25 13 25 8 0 -4 6 -16 13 -26 13 -18 16 -18 58 7 55 31 114 46 107 26 -3 -8 -9 -25 -13 -37 -7 -23 -6 -23 17 -9 12 9 40 19 60 22 34 7 36 6 31 -15 -6 -21 -4 -21 18 -10 13 7 53 33 88 57 35 24 66 42 68 40 2 -2 -4 -21 -12 -42 l-16 -37 29 21 c16 11 41 25 56 31 24 9 26 7 26 -15 l0 -25 46 35 c68 52 84 59 84 39 0 -12 12 -3 37 25 35 42 37 42 45 21 12 -33 31 -19 50 36 9 27 17 40 18 29 1 -32 16 1 30 70 7 33 17 64 22 69 4 6 8 25 8 44 0 26 4 33 14 29 13 -5 13 0 1 41 -11 35 -11 48 -3 53 9 6 9 14 0 34 -7 15 -10 31 -6 36 3 5 -2 34 -11 65 -9 31 -14 58 -12 60 6 6 34 -99 48 -180 15 -91 7 -172 -25 -242 -14 -31 -26 -73 -26 -93 -1 -49 -30 -111 -70 -145 -18 -15 -82 -52 -142 -82 -102 -51 -110 -54 -131 -39 -32 22 -97 19 -151 -9 -44 -22 -54 -23 -114 -15 -37 5 -80 14 -96 19 -16 6 -61 13 -100 16 -67 6 -73 9 -110 48 -21 22 -49 66 -63 96 -14 30 -33 64 -44 76 -15 16 -17 26 -10 45 7 20 4 29 -17 52 l-26 27 22 62 c15 40 19 64 12 68 -6 4 -3 20 9 46 19 40 47 125 76 228 9 32 18 56 21 54 2 -3 -3 -43 -11 -89z"/>
 <path d="M748 917 c27 -29 27 -41 1 -78 -19 -27 -19 -29 -2 -29 10 0 24 9 31 20 7 11 16 20 21 20 5 0 13 -9 16 -20 4 -11 15 -20 26 -20 19 0 19 2 -5 33 l-25 33 25 32 c21 26 23 32 9 32 -9 0 -25 -10 -35 -22 l-19 -23 -16 23 c-9 12 -23 22 -32 22 -14 0 -13 -4 5 -23z"/>
 <path d="M1164 911 c30 -31 29 -38 -7 -78 l-20 -23 26 0 c17 0 27 5 27 14 0 26 22 29 40 6 9 -12 23 -21 29 -19 9 3 6 13 -9 32 -23 28 -22 36 6 75 15 20 15 22 1 22 -9 0 -23 -10 -32 -22 l-16 -23 -19 23 c-10 12 -26 22 -36 22 -15 0 -13 -5 10 -29z"/>
 </g>
<g id="layer115" fill="#7e2422" stroke="none">
 <path d="M120 1982 c0 -50 34 -127 76 -172 57 -61 115 -86 255 -107 64 -10 117 -23 123 -31 6 -7 24 -25 40 -40 16 -15 42 -56 59 -92 41 -92 44 -94 78 -70 20 15 29 30 31 58 3 34 9 41 78 87 81 55 101 88 114 191 l7 49 -15 -38 c-29 -79 -60 -87 -114 -29 -32 33 -34 34 -17 7 25 -43 66 -85 82 -85 24 0 3 -20 -67 -66 -86 -55 -110 -85 -110 -136 0 -56 -20 -45 -50 30 -14 34 -40 76 -57 95 -18 18 -33 42 -33 52 0 11 19 49 42 85 44 69 108 189 82 155 -8 -11 -42 -66 -75 -122 -34 -57 -66 -103 -72 -103 -35 0 -270 51 -295 64 -45 23 -98 89 -121 150 -11 31 -21 63 -21 71 0 8 -4 15 -10 15 -5 0 -10 -8 -10 -18z"/>
 <path d="M982 1955 c-1 -27 -5 -61 -7 -75 l-6 -25 11 25 c6 13 9 47 7 75 l-3 50 -2 -50z"/>
 <path d="M1001 1978 c1 -13 5 -36 9 -53 7 -26 8 -22 9 23 0 29 -3 52 -9 52 -5 0 -9 -10 -9 -22z"/>
 <path d="M1840 1938 c-17 -46 -37 -77 -79 -119 -63 -62 -103 -80 -256 -110 -82 -16 -91 -16 -100 -2 -50 79 -121 181 -124 178 -2 -2 22 -42 53 -88 31 -46 56 -94 56 -107 0 -13 -18 -42 -44 -70 -27 -29 -49 -65 -57 -91 -14 -49 -35 -81 -24 -37 10 40 -26 91 -93 132 -31 19 -67 45 -80 59 -22 24 -22 25 -3 30 19 5 85 86 77 95 -3 2 -18 -11 -34 -29 -23 -26 -34 -31 -54 -26 -26 7 -38 28 -57 97 -16 61 -13 -6 4 -79 19 -79 43 -113 103 -148 75 -42 92 -62 92 -104 0 -29 5 -39 20 -44 11 -3 20 -12 20 -18 1 -17 40 32 40 50 0 46 107 173 147 173 35 0 233 52 233 61 0 6 5 7 10 4 6 -3 10 -2 10 3 0 6 17 17 39 25 61 25 115 103 136 195 12 55 -11 35 -35 -30z"/>
 <path d="M945 1600 c-24 -9 -115 -95 -115 -108 0 -5 18 8 40 29 23 22 54 46 70 54 27 14 29 14 23 -2 -6 -16 -5 -16 10 -4 14 11 17 11 17 0 0 -12 2 -12 9 0 6 10 10 10 16 1 6 -9 9 -9 15 0 12 19 89 -27 117 -69 13 -19 23 -29 23 -22 0 19 -78 98 -114 115 -37 17 -79 20 -111 6z"/>
 <path d="M930 1321 l-25 -7 24 -8 c32 -11 110 -11 141 -1 l25 9 -25 7 c-14 4 -45 7 -70 7 -25 0 -56 -3 -70 -7z"/>
 <path d="M531 966 c-12 -14 -39 -89 -87 -240 -14 -44 -33 -90 -41 -103 -14 -21 -14 -23 0 -23 14 0 13 -8 -5 -61 l-20 -60 25 -27 c19 -20 24 -34 20 -55 -4 -20 0 -35 14 -50 11 -12 30 -48 43 -80 14 -35 35 -67 51 -80 16 -11 29 -26 29 -33 0 -15 15 -20 105 -34 39 -6 95 -18 126 -25 80 -21 125 -19 194 10 71 29 86 30 130 9 32 -15 37 -15 102 11 206 82 273 148 273 269 0 22 12 63 28 95 25 51 27 65 26 166 -1 96 -5 121 -32 199 -17 49 -40 98 -50 109 -19 19 -20 18 -32 -15 -7 -18 -16 -113 -20 -214 -10 -256 -4 -249 -204 -274 -59 -7 -121 -24 -180 -47 -80 -32 -102 -37 -181 -37 -83 -1 -96 2 -158 32 -48 24 -71 42 -79 60 -5 15 -12 113 -14 217 -3 144 -8 203 -21 243 -18 55 -24 60 -42 38z m-6 -117 c-8 -47 -21 -105 -30 -129 -9 -25 -12 -46 -7 -48 5 -1 -1 -37 -15 -79 -25 -81 -24 -96 5 -70 17 16 18 14 11 -47 -3 -35 -10 -69 -14 -75 -5 -9 0 -12 16 -9 22 3 24 -1 29 -52 5 -53 6 -55 33 -52 30 3 32 -3 17 -44 -14 -35 -7 -41 25 -20 14 9 25 13 25 8 0 -4 6 -16 13 -26 13 -18 16 -18 58 7 55 31 114 46 107 26 -3 -8 -9 -25 -13 -37 -7 -23 -6 -23 17 -9 12 9 40 19 60 22 34 7 36 6 31 -15 -6 -21 -4 -21 18 -10 13 7 53 33 88 57 35 24 66 42 68 40 2 -2 -4 -21 -12 -42 l-16 -37 29 21 c16 11 41 25 56 31 24 9 26 7 26 -15 l0 -25 46 35 c68 52 84 59 84 39 0 -12 12 -3 37 25 35 42 37 42 45 21 12 -33 31 -19 50 36 9 27 17 40 18 29 1 -32 16 1 30 70 7 33 17 64 22 69 4 6 8 25 8 44 0 26 4 33 14 29 13 -5 13 0 1 41 -11 35 -11 48 -3 53 9 6 9 14 0 34 -7 15 -10 31 -6 36 3 5 -2 34 -11 65 -9 31 -14 58 -12 60 6 6 34 -99 48 -180 15 -91 7 -172 -25 -242 -14 -31 -26 -73 -26 -93 -1 -49 -30 -111 -70 -145 -18 -15 -82 -52 -142 -82 -102 -51 -110 -54 -131 -39 -32 22 -97 19 -151 -9 -44 -22 -54 -23 -114 -15 -37 5 -80 14 -96 19 -16 6 -61 13 -100 16 -67 6 -73 9 -110 48 -21 22 -49 66 -63 96 -14 30 -33 64 -44 76 -15 16 -17 26 -10 45 7 20 4 29 -17 52 l-26 27 22 62 c15 40 19 64 12 68 -6 4 -3 20 9 46 19 40 47 125 76 228 9 32 18 56 21 54 2 -3 -3 -43 -11 -89z"/>
 <path d="M748 917 c27 -29 27 -41 1 -78 -19 -27 -19 -29 -2 -29 10 0 24 9 31 20 7 11 16 20 21 20 5 0 13 -9 16 -20 4 -11 15 -20 26 -20 19 0 19 2 -5 33 l-25 33 25 32 c21 26 23 32 9 32 -9 0 -25 -10 -35 -22 l-19 -23 -16 23 c-9 12 -23 22 -32 22 -14 0 -13 -4 5 -23z"/>
 <path d="M1164 911 c30 -31 29 -38 -7 -78 l-20 -23 26 0 c17 0 27 5 27 14 0 26 22 29 40 6 9 -12 23 -21 29 -19 9 3 6 13 -9 32 -23 28 -22 36 6 75 15 20 15 22 1 22 -9 0 -23 -10 -32 -22 l-16 -23 -19 23 c-10 12 -26 22 -36 22 -15 0 -13 -5 10 -29z"/>
 </g>
<g id="layer116" fill="#463936" stroke="none">
 <path d="M120 1982 c0 -50 34 -127 76 -172 57 -61 115 -86 255 -107 64 -10 117 -23 123 -31 6 -7 24 -25 40 -40 16 -15 42 -56 59 -92 41 -92 44 -94 78 -70 20 15 29 30 31 58 3 34 9 41 78 87 81 55 101 88 114 191 l7 49 -15 -38 c-29 -79 -60 -87 -114 -29 -32 33 -34 34 -17 7 25 -43 66 -85 82 -85 24 0 3 -20 -67 -66 -86 -55 -110 -85 -110 -136 0 -56 -20 -45 -50 30 -14 34 -40 76 -57 95 -18 18 -33 42 -33 52 0 11 19 49 42 85 44 69 108 189 82 155 -8 -11 -42 -66 -75 -122 -34 -57 -66 -103 -72 -103 -35 0 -270 51 -295 64 -45 23 -98 89 -121 150 -11 31 -21 63 -21 71 0 8 -4 15 -10 15 -5 0 -10 -8 -10 -18z"/>
 <path d="M982 1955 c-1 -27 -5 -61 -7 -75 l-6 -25 11 25 c6 13 9 47 7 75 l-3 50 -2 -50z"/>
 <path d="M1001 1978 c1 -13 5 -36 9 -53 7 -26 8 -22 9 23 0 29 -3 52 -9 52 -5 0 -9 -10 -9 -22z"/>
 <path d="M1840 1938 c-17 -46 -37 -77 -79 -119 -63 -62 -103 -80 -256 -110 -82 -16 -91 -16 -100 -2 -50 79 -121 181 -124 178 -2 -2 22 -42 53 -88 31 -46 56 -94 56 -107 0 -13 -18 -42 -44 -70 -27 -29 -49 -65 -57 -91 -14 -49 -35 -81 -24 -37 10 40 -26 91 -93 132 -31 19 -67 45 -80 59 -22 24 -22 25 -3 30 19 5 85 86 77 95 -3 2 -18 -11 -34 -29 -23 -26 -34 -31 -54 -26 -26 7 -38 28 -57 97 -16 61 -13 -6 4 -79 19 -79 43 -113 103 -148 75 -42 92 -62 92 -104 0 -29 5 -39 20 -44 11 -3 20 -12 20 -18 1 -17 40 32 40 50 0 46 107 173 147 173 35 0 233 52 233 61 0 6 5 7 10 4 6 -3 10 -2 10 3 0 6 17 17 39 25 61 25 115 103 136 195 12 55 -11 35 -35 -30z"/>
 <path d="M945 1600 c-24 -9 -115 -95 -115 -108 0 -5 18 8 40 29 23 22 54 46 70 54 27 14 29 14 23 -2 -6 -16 -5 -16 10 -4 14 11 17 11 17 0 0 -12 2 -12 9 0 6 10 10 10 16 1 6 -9 9 -9 15 0 12 19 89 -27 117 -69 13 -19 23 -29 23 -22 0 19 -78 98 -114 115 -37 17 -79 20 -111 6z"/>
 <path d="M531 966 c-12 -14 -39 -89 -87 -240 -14 -44 -33 -90 -41 -103 -14 -21 -14 -23 0 -23 14 0 13 -8 -5 -61 l-20 -60 25 -27 c19 -20 24 -34 20 -55 -4 -20 0 -35 14 -50 11 -12 30 -48 43 -80 14 -35 35 -67 51 -80 16 -11 29 -26 29 -33 0 -15 15 -20 105 -34 39 -6 95 -18 126 -25 80 -21 125 -19 194 10 71 29 86 30 130 9 32 -15 37 -15 102 11 206 82 273 148 273 269 0 22 12 63 28 95 25 51 27 65 26 166 -1 96 -5 121 -32 199 -17 49 -40 98 -50 109 -19 19 -20 18 -32 -15 -7 -18 -16 -113 -20 -214 -10 -256 -4 -249 -204 -274 -59 -7 -121 -24 -180 -47 -80 -32 -102 -37 -181 -37 -83 -1 -96 2 -158 32 -48 24 -71 42 -79 60 -5 15 -12 113 -14 217 -3 144 -8 203 -21 243 -18 55 -24 60 -42 38z m-6 -117 c-8 -47 -21 -105 -30 -129 -9 -25 -12 -46 -7 -48 5 -1 -1 -37 -15 -79 -25 -81 -24 -96 5 -70 17 16 18 14 11 -47 -3 -35 -10 -69 -14 -75 -5 -9 0 -12 16 -9 22 3 24 -1 29 -52 5 -53 6 -55 33 -52 30 3 32 -3 17 -44 -14 -35 -7 -41 25 -20 14 9 25 13 25 8 0 -4 6 -16 13 -26 13 -18 16 -18 58 7 55 31 114 46 107 26 -3 -8 -9 -25 -13 -37 -7 -23 -6 -23 17 -9 12 9 40 19 60 22 34 7 36 6 31 -15 -6 -21 -4 -21 18 -10 13 7 53 33 88 57 35 24 66 42 68 40 2 -2 -4 -21 -12 -42 l-16 -37 29 21 c16 11 41 25 56 31 24 9 26 7 26 -15 l0 -25 46 35 c68 52 84 59 84 39 0 -12 12 -3 37 25 35 42 37 42 45 21 12 -33 31 -19 50 36 9 27 17 40 18 29 1 -32 16 1 30 70 7 33 17 64 22 69 4 6 8 25 8 44 0 26 4 33 14 29 13 -5 13 0 1 41 -11 35 -11 48 -3 53 9 6 9 14 0 34 -7 15 -10 31 -6 36 3 5 -2 34 -11 65 -9 31 -14 58 -12 60 6 6 34 -99 48 -180 15 -91 7 -172 -25 -242 -14 -31 -26 -73 -26 -93 -1 -49 -30 -111 -70 -145 -18 -15 -82 -52 -142 -82 -102 -51 -110 -54 -131 -39 -32 22 -97 19 -151 -9 -44 -22 -54 -23 -114 -15 -37 5 -80 14 -96 19 -16 6 -61 13 -100 16 -67 6 -73 9 -110 48 -21 22 -49 66 -63 96 -14 30 -33 64 -44 76 -15 16 -17 26 -10 45 7 20 4 29 -17 52 l-26 27 22 62 c15 40 19 64 12 68 -6 4 -3 20 9 46 19 40 47 125 76 228 9 32 18 56 21 54 2 -3 -3 -43 -11 -89z"/>
 <path d="M748 917 c27 -29 27 -41 1 -78 -19 -27 -19 -29 -2 -29 10 0 24 9 31 20 7 11 16 20 21 20 5 0 13 -9 16 -20 4 -11 15 -20 26 -20 19 0 19 2 -5 33 l-25 33 25 32 c21 26 23 32 9 32 -9 0 -25 -10 -35 -22 l-19 -23 -16 23 c-9 12 -23 22 -32 22 -14 0 -13 -4 5 -23z"/>
 <path d="M1164 911 c30 -31 29 -38 -7 -78 l-20 -23 26 0 c17 0 27 5 27 14 0 26 22 29 40 6 9 -12 23 -21 29 -19 9 3 6 13 -9 32 -23 28 -22 36 6 75 15 20 15 22 1 22 -9 0 -23 -10 -32 -22 l-16 -23 -19 23 c-10 12 -26 22 -36 22 -15 0 -13 -5 10 -29z"/>
 </g>
<g id="layer117" fill="#11435d" stroke="none">
 <path d="M120 1982 c0 -50 34 -127 76 -172 57 -61 115 -86 255 -107 64 -10 117 -23 123 -31 6 -7 24 -25 40 -40 16 -15 42 -56 59 -92 41 -92 44 -94 78 -70 20 15 29 30 31 58 3 34 9 41 78 87 81 55 101 88 114 191 l7 49 -15 -38 c-29 -79 -60 -87 -114 -29 -32 33 -34 34 -17 7 25 -43 66 -85 82 -85 24 0 3 -20 -67 -66 -86 -55 -110 -85 -110 -136 0 -56 -20 -45 -50 30 -14 34 -40 76 -57 95 -18 18 -33 42 -33 52 0 11 19 49 42 85 44 69 108 189 82 155 -8 -11 -42 -66 -75 -122 -34 -57 -66 -103 -72 -103 -35 0 -270 51 -295 64 -45 23 -98 89 -121 150 -11 31 -21 63 -21 71 0 8 -4 15 -10 15 -5 0 -10 -8 -10 -18z"/>
 <path d="M982 1955 c-1 -27 -5 -61 -7 -75 l-6 -25 11 25 c6 13 9 47 7 75 l-3 50 -2 -50z"/>
 <path d="M1001 1978 c1 -13 5 -36 9 -53 7 -26 8 -22 9 23 0 29 -3 52 -9 52 -5 0 -9 -10 -9 -22z"/>
 <path d="M1840 1938 c-17 -46 -37 -77 -79 -119 -63 -62 -103 -80 -256 -110 -82 -16 -91 -16 -100 -2 -50 79 -121 181 -124 178 -2 -2 22 -42 53 -88 31 -46 56 -94 56 -107 0 -13 -18 -42 -44 -70 -27 -29 -49 -65 -57 -91 -14 -49 -35 -81 -24 -37 10 40 -26 91 -93 132 -31 19 -67 45 -80 59 -22 24 -22 25 -3 30 19 5 85 86 77 95 -3 2 -18 -11 -34 -29 -23 -26 -34 -31 -54 -26 -26 7 -38 28 -57 97 -16 61 -13 -6 4 -79 19 -79 43 -113 103 -148 75 -42 92 -62 92 -104 0 -29 5 -39 20 -44 11 -3 20 -12 20 -18 1 -17 40 32 40 50 0 46 107 173 147 173 31 0 233 52 233 60 0 4 22 17 49 29 72 31 124 102 146 199 12 55 -11 35 -35 -30z"/>
 <path d="M970 1594 c0 -8 5 -12 10 -9 6 3 10 0 10 -7 0 -8 3 -9 8 -3 4 6 13 11 20 13 15 3 68 -23 96 -47 12 -10 16 -11 12 -3 -5 8 -29 27 -54 43 -51 32 -102 39 -102 13z"/>
 <path d="M925 1581 c-16 -10 -43 -33 -60 -52 l-30 -33 40 34 c22 19 51 43 65 52 34 23 22 22 -15 -1z"/>
 <path d="M524 949 c-17 -34 -40 -98 -80 -223 -14 -44 -33 -90 -41 -103 -14 -21 -14 -23 0 -23 14 0 13 -8 -5 -61 l-20 -60 25 -27 c19 -20 24 -34 20 -55 -4 -20 0 -35 14 -50 11 -12 30 -48 43 -80 14 -35 35 -67 51 -80 16 -11 29 -26 29 -33 0 -15 15 -20 105 -34 39 -6 95 -18 126 -25 80 -21 125 -19 194 10 71 29 86 30 130 9 32 -15 37 -15 102 11 206 82 273 148 273 269 0 22 12 63 28 95 24 50 27 67 27 161 0 77 -5 120 -19 160 -33 98 -49 135 -66 153 -17 18 -18 18 -30 -15 -7 -19 -14 -94 -16 -178 -5 -180 -10 -217 -34 -257 -14 -23 -28 -33 -52 -37 -18 -2 -73 -9 -122 -16 -56 -7 -126 -25 -195 -51 -96 -37 -113 -41 -181 -37 -93 4 -204 52 -222 96 -5 15 -12 113 -14 217 -3 144 -8 203 -21 243 -9 28 -21 52 -25 52 -4 0 -15 -14 -24 -31z m9 -76 c-13 -84 -27 -145 -40 -180 -4 -10 -2 -14 5 -9 12 7 8 -11 -22 -97 -21 -63 -21 -70 5 -56 22 11 22 10 15 -51 -4 -34 -9 -67 -12 -75 -4 -9 0 -12 14 -8 22 5 32 -18 32 -81 0 -31 3 -37 12 -28 26 26 41 14 35 -28 -6 -44 -2 -48 23 -25 16 14 18 13 30 -15 l13 -30 41 24 c41 23 116 49 124 42 2 -3 -2 -14 -8 -26 -15 -27 -9 -33 21 -22 13 5 37 12 53 16 26 6 28 5 23 -14 -7 -28 0 -25 98 39 43 28 80 50 82 48 2 -2 -4 -21 -12 -41 l-16 -37 38 25 c42 29 70 33 75 11 2 -11 16 -5 57 22 37 25 55 32 61 24 5 -8 17 -1 39 24 31 36 51 39 51 8 0 -30 27 6 40 53 7 25 16 40 20 34 8 -12 40 92 40 129 0 12 4 19 10 16 6 -4 10 8 10 30 0 22 4 34 10 30 14 -9 13 5 -5 55 -18 51 -18 53 -3 44 11 -7 9 10 -8 50 -5 13 -4 17 3 13 6 -4 3 23 -8 65 -19 74 -18 103 2 52 22 -59 49 -201 49 -265 0 -48 -8 -90 -30 -152 -16 -48 -30 -98 -30 -112 0 -78 -66 -144 -215 -216 -99 -49 -105 -50 -127 -35 -34 24 -95 20 -155 -11 l-53 -26 -87 18 c-49 10 -126 23 -172 29 -71 9 -85 15 -92 32 -4 12 -15 24 -24 28 -9 3 -32 39 -50 79 -19 41 -41 80 -50 87 -11 9 -14 22 -10 44 5 25 1 36 -18 54 l-25 24 24 59 c28 69 28 69 9 69 -14 0 -14 2 0 23 16 26 69 173 80 226 8 35 33 101 39 101 2 0 -3 -39 -11 -87z m925 -108 l1 -20 -9 20 c-5 11 -8 31 -8 45 l0 25 8 -25 c4 -14 8 -34 8 -45z m-924 -224 c-4 -22 -1 -54 5 -72 6 -18 9 -34 7 -37 -11 -10 -28 79 -22 112 9 49 18 46 10 -3z m861 -91 c-3 -6 -19 -17 -36 -25 -41 -22 -193 -75 -182 -64 5 5 45 22 89 37 44 15 91 36 104 45 28 20 34 21 25 7z m-315 -106 c-141 -61 -150 -64 -150 -58 0 6 162 82 200 94 67 21 44 5 -50 -36z m-405 -24 c-11 -5 -27 -9 -35 -9 -9 0 -8 4 5 9 11 5 27 9 35 9 9 0 8 -4 -5 -9z m196 -10 c-48 -11 -167 -23 -160 -16 8 8 112 23 159 24 l35 0 -34 -8z"/>
 <path d="M748 917 c27 -29 28 -47 1 -81 -18 -23 -18 -26 -4 -26 9 0 25 10 34 22 18 22 41 18 41 -8 0 -8 9 -14 21 -14 20 0 20 1 -5 31 l-27 31 26 34 c21 28 23 34 10 34 -9 0 -25 -10 -35 -22 l-19 -23 -16 23 c-9 12 -23 22 -32 22 -14 0 -13 -4 5 -23z"/>
 <path d="M1164 911 c30 -31 29 -38 -7 -78 l-20 -23 26 0 c17 0 27 5 27 14 0 26 22 29 40 6 9 -12 23 -21 29 -19 9 3 6 13 -9 32 -23 28 -22 36 6 75 15 20 15 22 1 22 -9 0 -23 -10 -32 -22 l-16 -23 -19 23 c-10 12 -26 22 -36 22 -15 0 -13 -5 10 -29z"/>
 </g>
<g id="layer118" fill="#3e302d" stroke="none">
 <path d="M120 1984 c0 -52 33 -128 76 -174 57 -61 115 -86 255 -107 64 -10 117 -23 123 -31 6 -7 24 -25 40 -40 16 -15 44 -59 62 -98 18 -40 37 -75 43 -79 15 -9 14 5 -2 24 -8 9 -22 39 -32 66 -10 28 -36 67 -57 88 -43 42 -42 40 -27 70 9 19 8 20 -3 6 -12 -15 -24 -14 -151 11 -90 19 -153 37 -181 54 -51 30 -98 95 -116 163 -15 54 -30 78 -30 47z"/>
 <path d="M983 1945 c0 -33 2 -45 4 -27 2 18 2 45 0 60 -2 15 -4 0 -4 -33z"/>
 <path d="M1846 1946 c-45 -133 -139 -201 -326 -236 -127 -24 -118 -24 -123 -2 -3 9 -5 3 -6 -14 -1 -20 -12 -41 -35 -63 -19 -18 -41 -51 -51 -74 -9 -23 -23 -58 -31 -77 l-14 -35 20 24 c11 13 20 30 20 38 0 46 107 173 147 173 31 0 233 52 233 60 0 4 22 17 49 29 72 31 124 102 146 199 11 52 -9 37 -29 -22z"/>
 <path d="M836 1792 c10 -18 30 -43 43 -55 18 -16 16 -10 -9 23 -46 61 -56 71 -34 32z"/>
 <path d="M960 1783 c-7 -21 -19 -46 -28 -55 -8 -10 -10 -18 -5 -18 16 0 30 21 42 64 14 52 7 59 -9 9z"/>
 <path d="M1026 1775 c9 -64 41 -113 92 -145 90 -55 102 -68 102 -111 0 -24 4 -38 10 -34 6 3 10 19 10 34 0 30 -53 88 -105 114 -42 21 -84 68 -66 75 8 3 10 7 3 11 -6 4 -20 27 -32 51 l-20 45 6 -40z"/>
 <path d="M1126 1758 c-24 -32 -30 -44 -15 -31 22 20 65 83 57 83 -2 0 -21 -24 -42 -52z"/>
 <path d="M899 1652 c-20 -15 -45 -33 -55 -40 -11 -7 0 -3 24 10 23 12 50 30 59 40 22 24 15 22 -28 -10z"/>
 <path d="M970 1594 c0 -8 5 -12 10 -9 6 3 10 0 10 -7 0 -8 3 -9 8 -3 4 6 13 11 20 13 15 3 68 -23 96 -47 12 -10 16 -11 12 -3 -5 8 -29 27 -54 43 -51 32 -102 39 -102 13z"/>
 <path d="M786 1574 c-26 -26 -37 -84 -16 -84 6 0 10 14 10 32 0 19 9 41 22 55 30 32 17 29 -16 -3z"/>
 <path d="M925 1581 c-16 -10 -43 -33 -60 -52 l-30 -33 40 34 c22 19 51 43 65 52 34 23 22 22 -15 -1z"/>
 <path d="M524 949 c-17 -34 -40 -98 -80 -223 -14 -44 -33 -90 -41 -103 -14 -21 -14 -23 0 -23 14 0 13 -8 -5 -61 l-20 -60 25 -27 c19 -20 24 -34 20 -55 -4 -20 0 -35 14 -50 11 -12 30 -48 43 -80 14 -35 35 -67 51 -80 16 -11 29 -26 29 -33 0 -15 15 -20 105 -34 39 -6 95 -18 126 -25 80 -21 125 -19 194 10 71 29 86 30 130 9 32 -15 37 -15 102 11 206 82 273 148 273 269 0 22 12 63 28 95 24 50 27 67 27 161 0 77 -5 120 -19 160 -33 98 -49 135 -66 153 -17 18 -18 18 -30 -15 -7 -19 -14 -94 -16 -178 -5 -180 -10 -217 -34 -257 -14 -23 -28 -33 -52 -37 -18 -2 -73 -9 -122 -16 -56 -7 -126 -25 -195 -51 -96 -37 -113 -41 -181 -37 -93 4 -204 52 -222 96 -5 15 -12 113 -14 217 -3 144 -8 203 -21 243 -9 28 -21 52 -25 52 -4 0 -15 -14 -24 -31z m9 -76 c-13 -84 -27 -145 -40 -180 -4 -10 -2 -14 5 -9 12 7 8 -11 -22 -97 -21 -63 -21 -70 5 -56 22 11 22 10 15 -51 -4 -34 -9 -67 -12 -75 -4 -9 0 -12 14 -8 22 5 32 -18 32 -81 0 -31 3 -37 12 -28 26 26 41 14 35 -28 -6 -44 -2 -48 23 -25 16 14 18 13 30 -15 l13 -30 41 24 c41 23 116 49 124 42 2 -3 -2 -14 -8 -26 -15 -27 -9 -33 21 -22 13 5 37 12 53 16 26 6 28 5 23 -14 -7 -28 0 -25 98 39 43 28 80 50 82 48 2 -2 -4 -21 -12 -41 l-16 -37 38 25 c42 29 70 33 75 11 2 -11 16 -5 57 22 37 25 55 32 61 24 5 -8 17 -1 39 24 31 36 51 39 51 8 0 -30 27 6 40 53 7 25 16 40 20 34 8 -12 40 92 40 129 0 12 4 19 10 16 6 -4 10 8 10 30 0 22 4 34 10 30 14 -9 13 5 -5 55 -18 51 -18 53 -3 44 11 -7 9 10 -8 50 -5 13 -4 17 3 13 6 -4 3 23 -8 65 -19 74 -18 103 2 52 22 -59 49 -201 49 -265 0 -48 -8 -90 -30 -152 -16 -48 -30 -98 -30 -112 0 -78 -66 -144 -215 -216 -99 -49 -105 -50 -127 -35 -34 24 -95 20 -155 -11 l-53 -26 -87 18 c-49 10 -126 23 -172 29 -71 9 -85 15 -92 32 -4 12 -15 24 -24 28 -9 3 -32 39 -50 79 -19 41 -41 80 -50 87 -11 9 -14 22 -10 44 5 25 1 36 -18 54 l-25 24 24 59 c28 69 28 69 9 69 -14 0 -14 2 0 23 16 26 69 173 80 226 8 35 33 101 39 101 2 0 -3 -39 -11 -87z m925 -108 l1 -20 -9 20 c-5 11 -8 31 -8 45 l0 25 8 -25 c4 -14 8 -34 8 -45z m-924 -224 c-4 -22 -1 -54 5 -72 6 -18 9 -34 7 -37 -11 -10 -28 79 -22 112 9 49 18 46 10 -3z m861 -91 c-3 -6 -19 -17 -36 -25 -41 -22 -193 -75 -182 -64 5 5 45 22 89 37 44 15 91 36 104 45 28 20 34 21 25 7z m-315 -106 c-141 -61 -150 -64 -150 -58 0 6 162 82 200 94 67 21 44 5 -50 -36z m-405 -24 c-11 -5 -27 -9 -35 -9 -9 0 -8 4 5 9 11 5 27 9 35 9 9 0 8 -4 -5 -9z m196 -10 c-48 -11 -167 -23 -160 -16 8 8 112 23 159 24 l35 0 -34 -8z"/>
 <path d="M748 917 c27 -29 28 -47 1 -81 -18 -23 -18 -26 -4 -26 9 0 25 10 34 22 18 22 41 18 41 -8 0 -8 9 -14 21 -14 20 0 20 1 -5 31 l-27 31 26 34 c21 28 23 34 10 34 -9 0 -25 -10 -35 -22 l-19 -23 -16 23 c-9 12 -23 22 -32 22 -14 0 -13 -4 5 -23z"/>
 <path d="M1164 911 c30 -31 29 -38 -7 -78 l-20 -23 26 0 c17 0 27 5 27 14 0 26 22 29 40 6 9 -12 23 -21 29 -19 9 3 6 13 -9 32 -23 28 -22 36 6 75 15 20 15 22 1 22 -9 0 -23 -10 -32 -22 l-16 -23 -19 23 c-10 12 -26 22 -36 22 -15 0 -13 -5 10 -29z"/>
 </g>
<g id="layer119" fill="#06344b" stroke="none">
 <path d="M120 1984 c0 -52 33 -128 76 -174 57 -61 115 -86 255 -107 64 -10 117 -23 123 -31 6 -7 24 -25 40 -40 16 -15 44 -59 62 -98 18 -40 37 -75 43 -79 15 -9 14 5 -2 24 -8 9 -22 39 -32 66 -10 28 -36 67 -57 88 -43 42 -42 40 -27 70 9 19 8 20 -3 6 -12 -15 -24 -14 -151 11 -90 19 -153 37 -181 54 -51 30 -98 95 -116 163 -15 54 -30 78 -30 47z"/>
 <path d="M983 1945 c0 -33 2 -45 4 -27 2 18 2 45 0 60 -2 15 -4 0 -4 -33z"/>
 <path d="M1846 1946 c-45 -133 -139 -201 -326 -236 -127 -24 -118 -24 -123 -2 -3 9 -5 3 -6 -14 -1 -20 -12 -41 -35 -63 -19 -18 -41 -51 -51 -74 -9 -23 -23 -58 -31 -77 l-14 -35 20 24 c11 13 20 30 20 38 0 46 107 173 147 173 31 0 233 52 233 60 0 4 22 17 49 29 72 31 124 102 146 199 11 52 -9 37 -29 -22z"/>
 <path d="M836 1792 c10 -18 30 -43 43 -55 18 -16 16 -10 -9 23 -46 61 -56 71 -34 32z"/>
 <path d="M960 1783 c-7 -21 -19 -46 -28 -55 -8 -10 -10 -18 -5 -18 16 0 30 21 42 64 14 52 7 59 -9 9z"/>
 <path d="M1026 1775 c9 -64 41 -113 92 -145 90 -55 102 -68 102 -111 0 -24 4 -38 10 -34 6 3 10 19 10 34 0 30 -53 88 -105 114 -42 21 -84 68 -66 75 8 3 10 7 3 11 -6 4 -20 27 -32 51 l-20 45 6 -40z"/>
 <path d="M1126 1758 c-24 -32 -30 -44 -15 -31 22 20 65 83 57 83 -2 0 -21 -24 -42 -52z"/>
 <path d="M899 1652 c-20 -15 -45 -33 -55 -40 -11 -7 0 -3 24 10 23 12 50 30 59 40 22 24 15 22 -28 -10z"/>
 <path d="M786 1574 c-26 -26 -37 -84 -16 -84 6 0 10 14 10 32 0 19 9 41 22 55 30 32 17 29 -16 -3z"/>
 <path d="M524 949 c-17 -34 -40 -98 -80 -223 -14 -44 -33 -90 -41 -103 -14 -21 -14 -23 0 -23 14 0 13 -8 -5 -61 l-20 -60 25 -27 c19 -20 24 -34 20 -55 -4 -20 0 -35 14 -50 11 -12 30 -48 43 -80 12 -32 34 -67 49 -78 14 -11 29 -28 33 -37 6 -15 7 -15 7 2 1 10 -11 27 -25 39 -14 11 -41 53 -59 93 -19 41 -39 74 -45 74 -8 0 -10 13 -5 39 5 33 3 41 -19 59 l-26 20 23 62 c17 49 19 64 9 67 -10 4 -10 9 1 27 15 23 77 195 77 214 0 6 10 37 22 69 20 52 22 56 29 33 12 -43 9 -212 -5 -272 -8 -37 -10 -58 -3 -61 6 -2 6 -21 -2 -55 -15 -62 0 -128 26 -117 13 4 15 -2 11 -39 l-5 -44 33 5 c37 6 40 2 23 -29 -10 -19 -9 -21 17 -15 71 16 78 17 64 11 -21 -9 -60 -46 -60 -57 0 -5 6 -5 13 2 17 14 124 37 211 46 l69 7 -23 -32 -23 -32 39 25 c49 32 173 86 239 103 l50 13 -30 -25 -30 -26 40 20 c22 10 66 27 97 37 31 10 65 26 74 36 23 26 37 24 29 -3 -4 -17 -1 -15 11 7 10 17 18 52 18 82 1 43 3 49 15 40 13 -11 12 23 -2 118 -1 6 3 9 10 8 9 -2 9 7 -2 36 -13 37 -19 78 -16 111 1 13 2 13 12 0 11 -17 2 75 -11 98 -13 26 -29 -94 -29 -220 -1 -138 -13 -207 -41 -233 -12 -11 -56 -21 -127 -30 -59 -7 -115 -16 -123 -19 -8 -2 -60 -21 -114 -41 -138 -51 -206 -51 -311 0 -55 26 -79 44 -87 63 -6 15 -13 114 -15 225 -3 166 -7 205 -23 242 -11 25 -22 45 -24 45 -3 0 -13 -14 -22 -31z"/>
 <path d="M1461 946 c34 -57 60 -171 66 -281 5 -91 3 -107 -20 -165 -14 -36 -28 -87 -32 -115 -14 -101 -53 -143 -207 -221 -60 -30 -108 -56 -108 -58 0 -2 31 9 68 24 198 81 262 145 262 264 0 22 12 63 28 95 24 50 27 67 27 161 0 76 -5 120 -19 160 -28 84 -58 149 -74 162 -7 7 -4 -5 9 -26z"/>
 <path d="M755 910 l28 -29 -27 -36 c-24 -31 -25 -35 -8 -35 11 0 24 11 31 26 9 21 14 24 26 14 8 -7 15 -19 15 -26 0 -8 10 -14 22 -14 l21 0 -20 23 c-36 40 -37 47 -7 78 23 24 25 29 10 29 -10 0 -26 -10 -36 -22 l-19 -23 -16 23 c-9 12 -23 22 -32 22 -13 0 -10 -7 12 -30z"/>
 <path d="M1165 913 c31 -34 31 -34 -1 -72 l-26 -31 26 0 c16 0 26 6 26 14 0 26 23 30 41 8 28 -36 44 -25 16 11 l-25 33 25 32 c18 24 21 32 9 32 -8 0 -22 -10 -31 -22 l-16 -23 -19 23 c-10 12 -26 22 -35 22 -12 0 -10 -6 10 -27z"/>
 <path d="M625 129 c28 -5 91 -19 140 -30 50 -10 110 -19 135 -18 l45 1 -57 9 c-31 4 -83 15 -115 23 -32 8 -89 17 -128 19 -66 5 -67 5 -20 -4z"/>
 <path d="M993 120 c-59 -26 -54 -32 7 -9 60 23 76 23 114 4 16 -9 31 -13 33 -11 9 9 -56 36 -84 36 -15 0 -47 -9 -70 -20z"/>
 </g>
<g id="layer120" fill="#2f211e" stroke="none">
 <path d="M524 949 c-17 -34 -40 -98 -80 -223 -14 -44 -33 -90 -41 -103 -14 -21 -14 -23 0 -23 14 0 13 -8 -5 -61 l-20 -60 25 -27 c19 -20 24 -34 20 -55 -4 -20 0 -35 14 -50 11 -12 30 -48 43 -80 12 -32 34 -67 49 -78 14 -11 29 -28 33 -37 6 -15 7 -15 7 2 1 10 -11 27 -25 39 -14 11 -41 53 -59 93 -19 41 -39 74 -45 74 -8 0 -10 13 -5 39 5 33 3 41 -19 59 l-26 20 23 62 c17 49 19 64 9 67 -10 4 -10 9 1 27 15 23 77 195 77 214 0 6 10 37 22 69 20 52 22 56 29 33 12 -43 9 -212 -5 -272 -8 -37 -10 -58 -3 -61 6 -2 6 -21 -2 -55 -15 -62 0 -128 26 -117 13 4 15 -2 11 -39 l-5 -44 33 5 c37 6 40 2 23 -29 -10 -19 -9 -21 17 -15 71 16 78 17 64 11 -21 -9 -60 -46 -60 -57 0 -5 6 -5 13 2 17 14 124 37 211 46 l69 7 -23 -32 -23 -32 39 25 c49 32 173 86 239 103 l50 13 -30 -25 -30 -26 40 20 c22 10 66 27 97 37 31 10 65 26 74 36 23 26 37 24 29 -3 -4 -17 -1 -15 11 7 10 17 18 52 18 82 1 43 3 49 15 40 13 -11 12 23 -2 118 -1 6 3 9 10 8 9 -2 9 7 -2 36 -13 37 -19 78 -16 111 1 13 2 13 12 0 11 -17 2 75 -11 98 -13 26 -29 -94 -29 -220 -1 -138 -13 -207 -41 -233 -12 -11 -56 -21 -127 -30 -59 -7 -115 -16 -123 -19 -8 -2 -60 -21 -114 -41 -138 -51 -206 -51 -311 0 -55 26 -79 44 -87 63 -6 15 -13 114 -15 225 -3 166 -7 205 -23 242 -11 25 -22 45 -24 45 -3 0 -13 -14 -22 -31z"/>
 <path d="M1461 946 c34 -57 60 -171 66 -281 5 -91 3 -107 -20 -165 -14 -36 -28 -87 -32 -115 -14 -101 -53 -143 -207 -221 -60 -30 -108 -56 -108 -58 0 -2 31 9 68 24 198 81 262 145 262 264 0 22 12 63 28 95 24 50 27 67 27 161 0 76 -5 120 -19 160 -28 84 -58 149 -74 162 -7 7 -4 -5 9 -26z"/>
 <path d="M755 910 l28 -29 -27 -36 c-24 -31 -25 -35 -8 -35 11 0 24 11 31 26 9 21 14 24 26 14 8 -7 15 -19 15 -26 0 -8 10 -14 22 -14 l21 0 -20 23 c-36 40 -37 47 -7 78 23 24 25 29 10 29 -10 0 -26 -10 -36 -22 l-19 -23 -16 23 c-9 12 -23 22 -32 22 -13 0 -10 -7 12 -30z"/>
 <path d="M1165 913 c31 -34 31 -34 -1 -72 l-26 -31 26 0 c16 0 26 6 26 14 0 26 23 30 41 8 28 -36 44 -25 16 11 l-25 33 25 32 c18 24 21 32 9 32 -8 0 -22 -10 -31 -22 l-16 -23 -19 23 c-10 12 -26 22 -35 22 -12 0 -10 -6 10 -27z"/>
 <path d="M625 129 c28 -5 91 -19 140 -30 50 -10 110 -19 135 -18 l45 1 -57 9 c-31 4 -83 15 -115 23 -32 8 -89 17 -128 19 -66 5 -67 5 -20 -4z"/>
 <path d="M993 120 c-59 -26 -54 -32 7 -9 60 23 76 23 114 4 16 -9 31 -13 33 -11 9 9 -56 36 -84 36 -15 0 -47 -9 -70 -20z"/>
 </g>
<g id="layer121" fill="#281a18" stroke="none">
 <path d="M562 917 c5 -23 11 -118 13 -212 4 -180 13 -238 41 -264 15 -15 15 -14 0 10 -14 22 -31 169 -29 244 0 11 1 52 3 90 2 68 -14 160 -30 170 -4 3 -3 -14 2 -38z"/>
 <path d="M754 911 c30 -31 29 -38 -7 -78 -20 -22 -20 -23 -1 -23 11 0 24 10 29 21 13 29 28 29 40 2 5 -13 19 -23 29 -23 18 0 17 3 -7 28 -15 15 -27 32 -27 37 0 5 12 22 27 37 26 27 26 28 6 28 -13 0 -24 -8 -28 -20 -3 -11 -13 -20 -20 -20 -8 0 -19 9 -25 20 -6 11 -18 20 -27 20 -13 0 -10 -7 11 -29z"/>
 <path d="M1169 911 c26 -36 26 -43 1 -66 -11 -10 -20 -22 -20 -27 0 -4 9 -8 20 -8 11 0 20 6 20 14 0 7 6 19 13 25 11 8 17 5 27 -14 7 -14 20 -25 27 -25 10 0 6 11 -12 34 l-26 34 27 31 c19 23 22 31 10 31 -8 0 -22 -10 -31 -22 l-16 -23 -19 23 c-27 33 -45 27 -21 -7z"/>
 <path d="M1416 877 c-5 -16 -6 -63 -2 -105 8 -91 -8 -226 -29 -259 -21 -32 -50 -42 -161 -53 -65 -7 -124 -21 -188 -45 -139 -52 -181 -60 -248 -46 -31 7 -77 22 -102 35 -25 13 -43 19 -39 13 11 -18 114 -57 166 -63 56 -6 131 11 263 60 48 17 107 29 175 35 97 8 104 10 130 39 17 18 32 52 38 84 14 64 11 349 -3 305z"/>
 <path d="M473 812 c-12 -31 -30 -82 -39 -112 -9 -30 -24 -66 -33 -80 -10 -15 -11 -21 -3 -16 19 12 47 73 77 169 31 100 30 124 -2 39z"/>
 <path d="M1515 805 c2 -16 9 -61 16 -98 13 -80 2 -161 -30 -228 -12 -24 -21 -56 -21 -72 0 -101 -61 -173 -204 -242 -53 -25 -96 -47 -96 -49 0 -7 105 36 161 65 64 35 127 94 136 130 3 13 8 47 10 74 3 28 17 75 31 105 24 50 27 66 27 165 -1 83 -5 119 -18 145 -17 35 -17 35 -12 5z"/>
 <path d="M400 545 l-22 -67 26 -27 c18 -18 24 -34 20 -51 -4 -22 -3 -23 5 -5 14 30 13 34 -15 60 l-26 24 23 61 c12 33 19 63 16 66 -3 3 -15 -25 -27 -61z"/>
 <path d="M436 348 c12 -13 31 -49 43 -80 13 -31 34 -65 48 -75 14 -10 29 -27 33 -38 6 -14 9 -15 9 -4 1 8 -15 30 -34 49 -19 19 -35 38 -35 43 0 21 -52 116 -68 122 -13 5 -13 2 4 -17z"/>
 <path d="M626 128 c3 -4 17 -8 32 -8 15 0 64 -9 110 -20 46 -11 104 -19 130 -19 46 2 46 2 -13 9 -33 4 -78 12 -101 18 -58 17 -164 30 -158 20z"/>
 <path d="M1013 127 c-17 -7 -35 -15 -39 -20 -10 -10 58 13 71 24 11 11 8 11 -32 -4z"/>
 </g>
<g id="layer122" fill="#130c0a" stroke="none">
 <path d="M750 921 c5 -11 15 -23 20 -26 15 -10 12 -21 -16 -54 -23 -28 -24 -31 -7 -31 10 0 23 10 28 21 13 29 28 29 40 2 5 -13 19 -23 29 -23 18 0 17 3 -7 28 -33 35 -33 40 -2 75 24 25 24 27 6 27 -11 0 -22 -9 -26 -20 -3 -11 -13 -20 -20 -20 -8 0 -19 9 -25 20 -6 11 -15 20 -21 20 -6 0 -6 -7 1 -19z"/>
 <path d="M1169 911 c26 -36 26 -43 1 -66 -25 -23 -25 -35 -1 -35 12 0 21 8 23 22 4 31 22 33 38 3 7 -14 20 -25 27 -25 10 0 6 11 -12 34 l-26 34 27 31 c19 23 22 31 10 31 -8 0 -20 -9 -26 -20 -6 -11 -17 -20 -25 -20 -7 0 -17 9 -20 20 -3 11 -13 20 -21 20 -12 0 -11 -6 5 -29z"/>
 </g>

</svg>