<?xml version="1.0" encoding="UTF-8" standalone="no"?>
<svg xmlns:rdf="http://www.w3.org/1999/02/22-rdf-syntax-ns#" xmlns="http://www.w3.org/2000/svg" height="267" viewBox="0 0 266.66666 266.66666" width="267" version="1.1" xmlns:cc="http://creativecommons.org/ns#" xmlns:dc="http://purl.org/dc/elements/1.1/">
 <g stroke-width="1.33">
  <path d="m15.2 266c0-.696 2.2-6.65 4.89-13.2l4.89-12 8.87-4.09c9.44-4.35 24.2-8.52 35.7-10.1 6.09-.824 7-1.34 7-3.95 0-2.08 1.47-3.78 4.79-5.54 2.83-1.5 7.72-6.58 11.9-12.4l7.15-9.88-2.61-3.66c-1.43-2.01-2.61-4.1-2.61-4.63 0-.531-2.1-3.29-4.66-6.12-3-3.32-5.45-8.01-6.89-13.2-1.86-6.7-2.71-8-5.18-8-3.12 0-4.94-1.7-9.28-8.66-1.47-2.35-4.62-7.18-7-10.7-3.87-5.77-4.33-7.46-4.33-15.9 0-9.75 2.21-15.4 6.04-15.4 1.44 0 1.66-1.03.924-4.33-.532-2.38-.956-11.8-.942-21 .0237-15.9.216-17.1 4.25-25.6 2.32-4.93 7.09-12 10.6-15.8 12.4-13.2 24.1-17.8 49.4-19.2 32-1.77 51.7 5.45 63 23 8.63 13.4 13.3 36.3 11.1 54.4-1.02 8.53-.909 9.4 1.12 8.87 6.18-1.62 9.26 18.2 4.22 27.1-7.16 12.7-14.5 22.1-17.7 22.7-2.88.576-3.79 2-5.84 9.17-1.41 4.91-4.23 10.6-6.69 13.6-2.34 2.79-5.59 6.98-7.21 9.31-2.93 4.21-2.93 4.25-.307 6.09 1.45 1.02 6.3 6.49 10.8 12.2 4.47 5.67 9 10.6 10 11.1 1.05.404 1.91 1.86 1.91 3.23 0 1.53 1.16 2.72 3 3.07 20.1 3.82 30.9 6.35 37.1 8.7 7.31 2.76 7.57 3.04 12.2 13.1 2.62 5.67 5.15 12.3 5.64 14.6l.882 4.33h-118c-73.6 0-118-.477-118-1.26zm81.8-146c-.386-2.01-1.23-3.32-1.88-2.92-1.77 1.09-1.42 5.6.486 6.28 2.22.792 2.2.830 1.4-3.36zm77 .883c1.45-1.74 1.42-2.31-.170-3.31-2.86-1.81-3.25-1.56-3.25 2.08 0 3.85.958 4.2 3.42 1.23z" fill="#e6e6e6"/>
  <path d="m16 264c.497-1.65 2.81-7.5 5.14-13 3.87-9.13 4.83-10.3 11-13.6 6.87-3.71 26.7-9.48 38.1-11.1 5.32-.752 6.33-1.35 6.33-3.77 0-1.95 1.58-3.73 4.9-5.52 4.12-2.21 19.1-20 19.1-22.6 0-1.05-4.99-8.12-10.1-14.3-2.27-2.75-5.19-8.54-6.5-12.9-2.04-6.73-2.92-7.99-6.06-8.61-2.53-.506-4.94-2.73-7.75-7.13-2.24-3.52-5.91-9.04-8.15-12.3-3.62-5.21-4.08-6.94-4.08-15.4 0-10.1 2.56-16.3 6.18-14.9 1.58.606 1.73-.463.862-6.24-1.9-14.7-.9-35.3 2.3-43.5 7.9-20.6 27.9-35.4 49.9-36.6l8.67-.463-7.33 1.2c-15.8 2.59-26.6 8.17-36.9 19-8.9 9.41-11.1 16.6-11 35.6.117 21.5 2.23 28.9 2.5 8.76.229-17.3 1.64-23.2 7.34-30.7 4.2-5.51 6.09-5.92 6.09-1.33 0 3.9.895 4.14 4.23 1.13 2.28-2.06 2.44-2.04 2.43.333-.0027 1.4-1.19 4.49-2.65 6.87-1.45 2.38-2.29 4.33-1.87 4.33.427 0 5.67-2.54 11.6-5.64 10.3-5.34 24-16.9 27.2-22.9 1.25-2.35 1.91-2 8.16 4.25 6.62 6.62 21.6 15.2 30.1 17.1l3.9.912-3.1-4.36-3.1-4.36 2.98.946c2.67.848 2.83.665 1.53-1.76-1.43-2.67-2.01-8.21-.853-8.21 2.3 0 17.1 10.1 19.3 13.1 3.4 4.78 9.47 22.7 9.47 28 0 2.21.660 4.43 1.47 4.93 2.01 1.24.324-20.4-2.35-30.1-3.43-12.4-10.1-21.7-19.8-27.4-6.27-3.69-29.4-9.96-36.7-9.96-2.81 0-6.79.638-8.85 1.42-3.03 1.14-3.43 1.09-2.08-.270 4.57-4.61 33.8-1.21 46.9 5.47 12.2 6.22 22.1 20.7 26.2 38.1 2.13 9.17 2.95 38 1.17 40.8-.665 1.08-.304 1.34 1.1.799 4.43-1.7 6.88 2.25 7.44 12 .576 10.2-.455 13.1-8.47 24.1-8.78 12.1-10.2 13.6-12.5 13.6-1.73 0-2.92 2.08-4.54 7.88-1.57 5.65-4.36 10.6-9.89 17.5l-7.69 9.63 6.67 6.87c8.4 8.66 18.4 20.7 19.4 23.3.521 1.35 5.24 2.74 14.7 4.34 19 3.21 30.3 7.54 34.1 13.1 2.88 4.23 7.45 15.2 9.16 22l.850 3.39h-237zm128-48.1c3.22-1.35 5.49-4.01 8.83-10.3 2.47-4.69 7.55-11.8 11.3-15.9l6.8-7.33-4.4-.423c-3.65-.351-5.09-1.55-8.47-7.04-5.46-8.87-9.41-10.7-23.6-10.9-14.1-.170-18.6 1.83-23.6 10.3-2.35 4.01-4.69 6.26-7.05 6.78-1.94.427-4.09.907-4.76 1.07-.672.160 1.8 3.63 5.49 7.71s8.7 11.1 11.1 15.7c2.42 4.54 5.95 9.09 7.84 10.1 4.42 2.41 15 2.49 20.5.165zm-24-20.2c-5.47-2.3-9.17-11.1-7.18-17.2 2.07-6.27 5.84-7.91 19.4-8.41 13.8-.511 20.1 1.68 23.1 8.04 1.56 3.28 1.49 4.61-.492 9.8-3.93 10.3-14.3 12-18 2.9-.872-2.1-2.04-3.83-2.6-3.83-.555 0-1.72 1.72-2.6 3.83-2.17 5.24-6.44 7.02-11.6 4.84zm-21.9-76c-.408-3.5-1.07-4.55-2.51-4-1.07.412-2.5.750-3.18.750-2.05 0-1.37 2.52 1.44 5.33 3.83 3.83 4.87 3.32 4.24-2.08zm17.6 3.94c2.81-1.08 2.67-2.8-.368-4.42-2.01-1.08-2.76-.710-3.97 1.95-1.59 3.48-.265 4.24 4.34 2.47zm40.3-1.3c-.445-1.16-.809-2.75-.809-3.54 0-.787-1.19-.358-2.64.954-3.04 2.75-2.41 4.7 1.52 4.7 1.94 0 2.5-.609 1.92-2.11zm17.8-1.45c2.17-2.76 2.42-3.81 1.1-4.65-3.28-2.08-4.75-1.09-5.29 3.54-.653 5.59.439 5.88 4.2 1.1zm-100-62.1c0-5.39 20.4-24.6 25.9-24.5.773.0229-.899 1.46-3.72 3.19-6.36 3.91-13.4 10.5-18.4 17.3-2.11 2.86-3.83 4.64-3.83 3.96zm24 .359c0-.263 3.41-2.74 7.58-5.51s10.6-7.8 14.2-11.2c5.43-5.03 6.08-5.37 3.54-1.88-5.03 6.92-25.4 21.8-25.4 18.6zm91.9-2.44c-3.06-5.71-13.9-16.1-20.2-19.2-7.57-3.84-8.44-5.41-1.36-2.47 6.88 2.86 14 7.95 17.2 12.3 3.24 4.38 7.44 12.3 6.53 12.3-.360 0-1.36-1.31-2.22-2.92zm-38-4.86c-7.95-4.38-16.6-11-16.6-12.8-.00002-.678 1.35.0237 3 1.56s7.47 5.54 12.9 8.9c10.9 6.71 11.3 8.23.632 2.33zm-49.2-11.6c5.16-3.2 17.9-7.77 18.9-6.77.270.270-2.68 1.52-6.56 2.78s-8.92 3.44-11.2 4.84c-2.29 1.4-4.69 2.53-5.33 2.51-.647-.0229 1.22-1.53 4.16-3.35zm55.3-2.77c-2.57-1.14-8.27-2.86-12.7-3.84-7.03-1.56-7.4-1.79-3.05-1.88 5.1-.109 19.1 4.43 20.4 6.65.974 1.58.891 1.56-4.72-.921z" fill="#ead8d0"/>
  <path d="m15.2 267c0-.383 2.22-6.13 4.94-12.8 4.42-10.8 5.55-12.4 10.7-15.5 7.27-4.26 18.5-7.77 33.8-10.6 9.85-1.8 11.9-2.6 11.9-4.61 0-1.38 2.56-4.19 5.89-6.48 4.66-3.21 18.1-19.6 18.1-22.1 0-.828-5.52-8.74-10-14.3-2.2-2.74-5.25-8.74-6.78-13.3-1.59-4.77-3.59-8.39-4.67-8.47-1.04-.0748-2.55-.227-3.37-.339-.812-.112-3.7-3.65-6.41-7.87s-6.4-9.71-8.19-12.2c-2.75-3.82-3.26-6.06-3.26-14.3 0-8.08.476-10.3 2.72-12.5 1.49-1.49 3.38-2.3 4.19-1.8 1.02.628 1.22-.294.648-2.95-.456-2.13-1.2-9.26-1.66-15.9-2.22-32.1 12.2-55.1 40.4-64.6 4.56-1.52 10.9-2.7 14-2.61 5.29.151 5.12.248-2.29 1.31-19.3 2.77-41 19.7-44.8 34.7-1.96 7.95-2 33.8-.0669 41.1.960 3.66 1.26 1.35 1.37-10.7.162-17.2 1.51-23.8 6.35-30.9 4.56-6.7 7.61-7.8 6.83-2.45-.677 4.61-.210 4.88 3.19 1.8 3.78-3.42 4.39-1.14 1.28 4.82-1.55 2.97-2.37 5.38-1.83 5.37 1.97-.0448 23-11.9 27.6-15.5 3.69-2.92 9.49-10 12.1-14.8.116-.212 3.47 2.8 7.46 6.69 7.28 7.11 20.5 14.6 28.9 16.4 4.51.945 4.51.943 2.33-2.16-2.76-3.94-2.76-5.32-.0219-4.27 1.82.698 1.92.394.667-1.95-1.53-2.85-2.04-8.29-.789-8.29.385 0 4.58 2.45 9.32 5.44 7.45 4.7 9.15 6.56 12.5 13.7 2.15 4.52 4.61 12.1 5.47 16.9 2.9 16.1 3.7 17.6 3.82 7.33.318-27-7.5-45.6-23-54.6-6.67-3.89-23.7-8.71-35.5-10l-8.67-.967 7.33-.160c9.98-.218 29.8 4.33 36.8 8.47 12.2 7.13 21.4 20.7 25.2 37.1 2.14 9.22 2.97 34.4 1.31 39.6-.750 2.36-.520 2.84 1.07 2.23 4.25-1.63 6.58 2.19 7.21 11.8.514 7.87.147 10-2.49 14.8-6.8 12.1-13.5 20.9-17.1 22.2-3.04 1.15-4.14 2.83-5.88 9.02-1.48 5.27-4.5 10.6-9.82 17.3l-7.69 9.74 6.05 6.14c10.4 10.6 20.1 22.4 20.1 24.6 0 1.38 1.2 2.1 3.46 2.1 6.67 0 30.6 5.52 37.5 8.63 5.44 2.47 7.54 4.37 9.83 8.86 2.9 5.68 7.92 19.2 7.92 21.4 0 .619-53.1 1.12-118 1.12s-118-.313-118-.697zm130-51c2.37-1.33 5.8-5.68 8.7-11 2.63-4.86 7.32-11.3 10.4-14.3 6.44-6.25 7-8.14 2.4-8.14-3.65 0-6.58-2.49-9.44-8.02-3.7-7.15-9.01-9.62-21.7-10.1-14.1-.524-18.7 1.35-24.6 9.96-4.9 7.2-6.01 8.11-10 8.13-4.35.0296-3.74 1.82 2.97 8.73 3.28 3.38 7.9 9.77 10.3 14.2 2.36 4.43 5.69 8.96 7.4 10.1 6.81 4.46 16.2 4.66 23.6.497zm-29.1-22.9c-2.93-3.48-3.51-5.34-3.18-10.3.625-9.43 4.42-11.5 21-11.6 11.4-.0369 13.7.346 17 2.76 3 2.23 3.85 4.02 4.17 8.82.327 4.93-.250 6.79-3.18 10.3-4.8 5.7-10.6 5.36-14.5-.839-1.48-2.36-2.98-4.28-3.35-4.28-.367 0-1.87 1.93-3.35 4.28-3.89 6.2-9.74 6.54-14.5.839zm-17.9-73c-.408-3.5-1.07-4.55-2.51-4-1.07.412-2.5.750-3.18.750-2.05 0-1.37 2.52 1.44 5.33 3.83 3.83 4.87 3.32 4.24-2.08zm17.6 3.94c2.81-1.08 2.67-2.8-.368-4.42-2.01-1.08-2.76-.710-3.97 1.95-1.59 3.48-.265 4.24 4.34 2.47zm9.53-2.4c2.13-8.5-6.3-13.1-24.1-13.2-12.1-.0479-18 .949-18 3.06 0 1.94 5.08 2.89 7.78 1.45 4.11-2.2 19-2.14 24.6.0881 7.36 2.94 8.57 4.53 5.78 7.62-1.8 1.98-1.92 2.72-.568 3.26 3.12 1.25 3.68.960 4.5-2.3zm-27.1-13c.917-.370 2.42-.370 3.33 0 .917.370.167.673-1.67.673-1.83 0-2.58-.303-1.67-.673zm57.1 13.4c-.445-1.16-.809-2.75-.809-3.54 0-.787-1.2-.345-2.67.982-3.6 3.26-3.35 4.67.809 4.67 2.62 0 3.28-.518 2.67-2.11zm17.9-1.29c2.7-2.87 2.89-3.6 1.23-4.65-3.54-2.24-5-1.35-5.55 3.38-.649 5.56.0796 5.78 4.32 1.26zm11.9-3.96c0-4.65-.598-6.19-2.88-7.41-3.26-1.74-23.6-2.2-30.1-.681-6.01 1.39-5.44 3.46.864 3.1 2.86-.167 4.91-.766 4.57-1.33-.915-1.5 15.2.0718 18.4 1.8 2.23 1.19 2.58 2.29 1.9 5.92-.733 3.91-.463 4.51 2.21 4.95 4.52.743 5.04.0923 5.04-6.34zm-20.2-8.21c.962-.385 2.11-.338 2.56.105.443.443-.344.758-1.75 0.7-1.55-.064-1.87-.380-.806-.806zm-65-50.1c0-.311 2.48-2.21 5.51-4.21 3.03-2.01 8.28-6.06 11.7-9.01 4.13-3.6 3.7-3.01-1.29 1.8-6.55 6.3-15.9 13-15.9 11.4zm85.9-6.08c-2.27-3.38-7.82-8.67-12.4-11.8-8.75-5.99-9.52-7.12-2.41-3.55 5.44 2.74 15.2 12.1 17.8 17 3.14 5.97 1.52 5.1-2.97-1.62zm-109 .6c2.44-4.82 16.2-16.7 19.4-16.7.680 0-1.4 1.85-4.63 4.1-3.23 2.26-8.17 6.61-11 9.67-2.82 3.06-4.52 4.37-3.77 2.9zm71.6-1.86c-3.67-2.11-7.87-5.25-9.33-6.99l-2.67-3.15 2.67 2.2c1.47 1.21 6.27 4.36 10.7 7 9.47 5.68 8.32 6.5-1.33.945zm-48.7-8.84c0-1.14 13.7-7.29 16-7.2 1.1.0445-.156.875-2.79 1.85-2.64.970-6.69 2.74-9 3.94s-4.21 1.83-4.21 1.41zm54.5-5.27c-.345-.345-3.89-1.56-7.89-2.69-7.02-2-7.07-2.04-1.44-1.33 5.33.671 14.8 4.47 11.4 4.6-.794.0294-1.73-.229-2.07-.574z" fill="#dacbcc"/>
  <path d="m15.8 265c7.12-19.1 9.5-23.3 14.7-26.3 6.8-3.92 23.9-9.22 36.4-11.3 8.04-1.34 9.67-2.03 9.67-4.14 0-1.49 2.14-3.88 5.23-5.83 2.87-1.81 6.88-5.57 8.9-8.35s5.29-7.17 7.28-9.77l3.61-4.72-2.84-3.54c-9.6-12-12.5-17-15-24-1.59-4.76-3.59-8.38-4.67-8.46-1.04-.0748-2.55-.227-3.37-.339-.812-.112-3.7-3.65-6.41-7.87s-6.4-9.71-8.19-12.2c-2.75-3.82-3.26-6.06-3.26-14.3 0-8.08.476-10.3 2.72-12.5 1.49-1.49 3.39-2.3 4.21-1.79 1.06.653 1.24-.597.610-4.28-4.9-28.7-.4-48.5 14.5-63.7 7.1-7.3 19.4-14.2 28.1-15.9 2.2-.432.316.636-4.19 2.37-16.1 6.2-28.3 18-33.9 32.7-6.02 15.7-4.61 45.8 2.86 60.9l2.64 5.33-.572-8c-1.11-15.6 1.21-50.3 3.67-55 2.75-5.24 5.54-5.82 4.3-.888-.625 2.49-.422 3.17.730 2.46 1.17-.722 1.37.140.753 3.22-.463 2.31-.507 4.21-.0983 4.21 4.06 0 32.2-14.9 40.7-21.6l4.87-3.8 5.71 4.77c9.98 8.34 24.5 13.9 36.3 13.9 4.49 0 4.98-.280 3.56-2-1.39-1.68-1.17-2 1.42-2 2.94 0 2.88-.195-1.35-4.33-3.7-3.62-4.05-4.41-2.08-4.8 3.4-.671 8.86 3.84 12.5 10.3 3.6 6.45 5.83 23 6.16 45.8.115 7.87.546 14.6.959 15.1 1.53 1.53 5.09-10.3 6.3-21 2.03-18-1.35-38.9-8.55-53-7.6-14.9-23.8-23.6-49.3-26.7-7.55-.917-7.66-.981-2-1.14 7.71-.214 30.8 5.52 36.6 9.08 6.67 4.12 15.2 14 18.8 21.8 5.39 11.6 7.55 24.3 7.04 41.5-.328 11.3-.0345 15.3 1.09 14.8 3.77-1.45 6.12 2.74 6.72 12 .514 7.87.147 10-2.49 14.8-6.8 12.1-13.5 20.9-17.1 22.2-3.04 1.15-4.14 2.83-5.88 9.02-1.48 5.27-4.5 10.6-9.82 17.3l-7.69 9.74 6.05 6.12c9.57 9.68 19.4 21.7 19.4 23.9.004 1.41 3.63 2.54 13.4 4.18 17.1 2.87 30.9 7.47 34.7 11.6 2.9 3.13 8.61 16 10.4 23.4l.878 3.67h-119c-112 0-118-.122-117-2.33zm124-47c5.97-1.66 12.4-6.82 15.2-12.2 1.12-2.17 5.3-7.5 9.29-11.8 8.28-9.01 9.1-11.9 3.36-11.9-3.83 0-5.96-1.91-12.6-11.4-3.55-5.05-9.49-7.09-20.8-7.12-12.9-.0408-17.3 1.99-24 11.1-4.65 6.3-6.15 7.47-9.11 7.12-5.95-.699-5.13 3.49 2.22 11.3 3.66 3.88 8.09 9.55 9.83 12.6 3.77 6.63 8.19 10.4 14.4 12.1 6.11 1.75 6.48 1.76 12.2.166zm-23.5-25.4c-6.6-7.85-2.8-21 6.15-21.3 5.27-.178 20.3-.209 23.5-.0495 8.98.448 12.8 13.5 6.15 21.4-5.88 6.98-12.8 5.09-16.6-4.57l-1.59-4-1.09 3.81c-2.71 9.48-10.6 11.8-16.5 4.75zm-16.8-69c-.964-1.16-1.34-3.63-.890-5.87.732-3.66.582-3.81-2.83-2.9-5.23 1.4-5.25 4.88-.0313 8.07 5.29 3.23 5.95 3.35 3.75.704zm57.9-1.27c-1.18-1.8-1.72-3.96-1.2-4.8 1.35-2.18-3.76.658-5.97 3.32-1.39 1.68-1.37 2.17.110 2.66 1.8.599 6.2 1.64 8.18 1.94.567.0851.0652-1.32-1.11-3.12zm-39.9-.563c0-1.01-1.28-2.69-2.84-3.72-2.67-1.77-2.88-1.64-3.45 2.24-.554 3.78-.314 4.09 2.84 3.72 1.9-.220 3.45-1.23 3.45-2.24zm8.09-.705c2.13-8.5-6.3-13.1-24.1-13.2-12.1-.0479-18 .949-18 3.06 0 1.94 5.08 2.89 7.78 1.45 4.11-2.2 19-2.14 24.6.0881 7.36 2.94 8.57 4.53 5.78 7.62-1.8 1.98-1.92 2.72-.568 3.26 3.12 1.25 3.68.960 4.5-2.3zm-26.1-12c.917-.370 2.42-.370 3.33 0 .917.370.167.673-1.67.673-1.83 0-2.58-.303-1.67-.673zm75.1 12.8c3.37-3.37 2.83-5.48-1.68-6.69-4.02-1.07-7.17.444-5.74 2.76.773 1.25 1.29 1.21 2.27-.184.872-1.25 1.1-.471.731 2.52-.614 5.02.567 5.44 4.42 1.58zm11.9-4.62c0-4.65-.598-6.19-2.88-7.41-3.26-1.74-23.6-2.2-30.1-.681-6.01 1.39-5.44 3.46.864 3.1 2.86-.167 4.91-.766 4.57-1.33-.688-1.13 13.9-.203 17.3 1.1 2.92 1.12 3.89 4.31 2.25 7.38-1.42 2.64-1.42 2.64 4.06 4.26 3.26.966 4-.219 4-6.41zm-20.2-8.21c.962-.385 2.11-.338 2.56.105.443.443-.344.758-1.75 0.7-1.55-.064-1.87-.380-.806-.806zm-52-85.2c1.3-.338 3.1-.316 4 .0494.903.365-.159.642-2.36.615-2.2-.0272-2.94-.326-1.64-.664z" fill="#f0c9b4"/>
  <path d="m15.8 265c7.12-19.1 9.5-23.3 14.7-26.3 6.8-3.92 23.9-9.22 36.4-11.3 8.04-1.34 9.67-2.03 9.67-4.14 0-1.49 2.14-3.88 5.23-5.83 2.87-1.81 6.88-5.57 8.9-8.35s5.29-7.17 7.28-9.77l3.61-4.72-2.84-3.48c-8.19-10-13.2-18.4-15.1-25.2-1.82-6.54-2.55-7.58-5.32-7.58-1.77 0-3.38-.225-3.59-.5-3.78-5.09-13.3-19.6-14.8-22.5-2.3-4.45-2.7-18.9-.624-22.8.759-1.42 2.64-2.58 4.17-2.58 2.49 0 2.7-.543 1.95-5-5.1-28.6-.5-48.5 14.3-63.7 7.1-7.3 19.4-14.2 28.1-15.9 2.2-.432.316.636-4.19 2.37-16.1 6.2-28.3 18-33.9 32.7-6.02 15.7-4.61 45.8 2.86 60.9l2.64 5.33-.572-8c-1.11-15.6 1.21-50.3 3.67-55 2.75-5.24 5.54-5.82 4.3-.888-.625 2.49-.422 3.17.730 2.46 1.17-.722 1.37.140.753 3.22-.463 2.31-.507 4.21-.0983 4.21 4.06 0 32.2-14.9 40.7-21.6l4.87-3.8 5.71 4.77c9.98 8.34 24.5 13.9 36.3 13.9 4.49 0 4.98-.280 3.56-2-1.39-1.68-1.17-2 1.42-2 2.94 0 2.88-.195-1.35-4.33-3.7-3.62-4.05-4.41-2.08-4.8 3.4-.671 8.86 3.84 12.5 10.3 3.6 6.45 5.83 23 6.16 45.8.115 7.87.546 14.6.959 15.1 1.53 1.53 5.09-10.3 6.3-21 2.03-18-1.35-38.9-8.55-53-7.6-14.9-23.8-23.6-49.3-26.7-7.55-.917-7.66-.981-2-1.14 7.71-.214 30.8 5.52 36.6 9.08 6.67 4.12 15.2 14 18.8 21.8 5.39 11.6 7.55 24.3 7.04 41.5-.343 11.7-.0616 15.3 1.18 14.8 4.41-1.7 7.9 8.02 6.7 18.7-1.05 9.31-19 34.5-22.2 31.1-.299-.307-1.93 3.55-3.62 8.56-1.69 5.02-5.05 11.4-7.46 14.3-2.41 2.84-5.63 6.78-7.15 8.76l-2.77 3.6 6.1 6.17c9.61 9.71 19.4 21.8 19.4 23.9.004 1.41 3.63 2.54 13.4 4.18 17.1 2.87 30.9 7.47 34.7 11.6 2.9 3.13 8.61 16 10.4 23.4l.878 3.67h-119c-112 0-118-.122-117-2.33zm124-47c5.97-1.66 12.4-6.82 15.2-12.2 1.12-2.17 5.3-7.5 9.29-11.8 8.28-9.01 9.1-11.9 3.36-11.9-3.83 0-5.96-1.91-12.6-11.4-3.13-4.45-10.6-7.67-16.3-7.01-2.38.278-4.04.0313-3.68-.549.937-1.52 9.01-1.3 13.4.360 2.06.778 5.69 3.28 8.05 5.56 3.76 3.62 4.23 3.79 3.76 1.34-.298-1.55.324-3.53 1.38-4.41 1.54-1.28 1.6-2.02.284-3.75-.902-1.19-1.11-1.71-.469-1.16.644.546 1.88-.354 2.75-2 1.31-2.49 1.16-3.46-.905-5.77-1.98-2.21-2.08-2.78-.516-2.78 1.08 0 1.6.593 1.15 1.32-.467.756-.130.895.790.326 1.13-.696 1.19-1.49.218-2.66-.763-.919-1.05-2.01-.643-2.41.409-.409.0107-1.2-.884-1.75-1-.620-1.28-.451-.734.441.492.796.337 1.79-.344 2.21-1.4.864-1.17-2.67.270-4.1.512-.512.0719-1.88-.978-3.04s-1.95-2.71-2-3.44c-.0523-.733-.545-1.38-1.1-1.45-.55-.0615-2.69-.811-4.75-1.67-2.06-.855-4.22-1.55-4.79-1.55-.572 0-2.11-1.19-3.42-2.64s-2.84-2.36-3.39-2.01c-.552.341-1.29-.457-1.63-1.77-.989-3.78-12.3-3.18-15.1.805-1.67 2.39-10.8 8.18-13.9 8.82-.367.0749-.517.586-.333 1.14.183.55-.336.85-1.15.667-2.91-.653-5.95 7.44-5.88 15.7.0778 8.61 1.29 11.9 3.79 10.4 1.07-.639 1.03-.273-.109 1.13-1.36 1.68-1.34 2.36.0809 3.54 1.33 1.1 2.96.616 6.6-1.98 2.8-1.99 7.43-3.73 11-4.13l6.14-.692-4.18-2.54c-3.02-1.83-3.93-3.18-3.29-4.82.489-1.25 2.32-7.61 4.07-14.1 1.75-6.51 3.5-12.2 3.9-12.6 1-1 .717 11-.460 19.3l-.982 6.89 5.83.874c4.98.747 5.59 1.16 4.18 2.87-2.46 2.97-8.59 5.82-12.5 5.82-6.55 0-12.3 3.63-18 11.3-4.65 6.3-6.15 7.47-9.11 7.12-5.95-.699-5.13 3.49 2.22 11.3 3.66 3.88 8.09 9.55 9.83 12.6 3.77 6.63 8.19 10.4 14.4 12.1 6.11 1.75 6.48 1.76 12.2.166zm-23.5-25.4c-4.13-4.91-4.65-12.8-1.12-17.1 1.28-1.58 4.72-3.42 7.63-4.07 7.17-1.62 7.49-.726.539 1.51-3.1.999-5.9 2.62-6.22 3.59-.440 1.36.406 1.27 3.57-.366 2.28-1.18 8.13-2.45 13-2.82 7.29-.556 9.8-.177 14.3 2.15 3.96 2.06 4.94 2.25 3.66.714-.961-1.16-4.08-2.81-6.93-3.66-6.82-2.04-5.68-3.06 1.32-1.18 6.52 1.76 9.52 5.61 9.52 12.2 0 6.53-5.38 13.1-10.7 13.1-3.8 0-9.31-5.14-9.31-8.68 0-.911-.893-2.4-1.99-3.3-1.09-.906-1.68-2.13-1.32-2.73.368-.595-.389-1.36-1.68-1.69-1.29-.337.350-.623 3.65-.635 4.27-.0155 5.08.236 2.82.869-2.79.782-2.93 1.1-1.12 2.6 1.29 1.07 2.36 1.22 2.87.392.447-.724 1.96-1.09 3.37-.825 1.4.270 3.26-.360 4.12-1.4.864-1.04 2.1-1.56 2.75-1.16.650.402 1.18.196 1.18-.458 0-3.68-25.9-4.26-29.5-.667-1.29 1.29-.995 1.51 1.39 1.05 2.36-.455 2.71-.204 1.58 1.16-1.13 1.37-.657 1.69 2.21 1.49 7.15-.492 9.09 4.31 4.23 10.5-3.88 4.94-9.33 4.7-13.8-.589zm26.7-11.7c-.378-.611.161-1.11 1.2-1.11s1.57.5 1.2 1.11c-.378.611-.916 1.11-1.2 1.11-.280 0-.818-.5-1.2-1.11zm-30.1-36.3c-.008-2.36 3.46-7.6 4.37-6.59.326.366-.521 2.46-1.88 4.66-1.43 2.31-2.48 3.12-2.48 1.92zm37.7-.223c-2.43-3.13-3.23-5.03-2.13-5.03 1.32 0 4.82 5.36 4.02 6.16-.313.313-1.16-.195-1.88-1.13zm-33.1-13.6c4.92-2.06 9.13-8.55 8.46-13.1-.654-4.39-6.5-7.74-15.8-9.07-8.92-1.27-21.5-.493-25.6 1.59-4.78 2.46-1.91 17.6 4 21 3.54 2.06 23.7 1.75 29-.455zm-24.5-6.89c-4.72-3.97-5.42-9.08-1.52-11.2 4.27-2.29 15.7-1.63 21.3 1.23 5.12 2.61 6.85 4.99 6.69 9.17-.0615 1.62-.404 1.43-1.26-.689-.645-1.6-2.34-3.54-3.77-4.3-2.26-1.21-2.67-.883-3.18 2.58-.482 3.29-.107 3.99 2.19 4.1 5.15.247-3.32 2.26-10.1 2.4-4.88.104-7.12-.616-10.3-3.32zm6.56.115c-.964-1.16-1.34-3.63-.890-5.87.732-3.66.582-3.81-2.83-2.9-5.23 1.4-5.25 4.88-.0313 8.07 5.29 3.23 5.95 3.35 3.75.704zm80.1 7.3c6.59-3.53 9.13-18.5 3.63-21.4-4.29-2.3-27.3-1.99-33 .443l-4.67 1.97 4.1.928c2.26.510 5.74.303 7.75-.461 5.68-2.16 17.6-1.74 20 .707 2.57 2.57 2.57 2.46.0313 7.36-1.14 2.2-3.57 4.57-5.42 5.27-4.05 1.54-13.3 1.45-17.8-.172-2.93-1.04-2.81-1.11 1.01-.565 4.33.615 4.34.605 2.22-2.63-1.17-1.78-1.7-3.93-1.18-4.77 1.63-2.63-4.36 1.12-6.37 4-2.24 3.19-4.71 1.86-6.28-3.37-1.01-3.37-1.18-3.48-1.28-.820-.183 4.9 3.71 11 8.31 13 5.02 2.18 25.2 2.59 29 .579zm-5.32-9.38c3.37-3.37 2.83-5.48-1.68-6.69-4.02-1.07-7.17.444-5.74 2.76.773 1.25 1.29 1.21 2.27-.184.872-1.25 1.1-.471.731 2.52-.614 5.02.567 5.44 4.42 1.58zm-44.7-10.6c-.812-1.31 2.8-.984 4.17.381 1.4 1.4 4.75 1.11 3.86-.336-.430-.695.336-1.05 1.7-.786 3.01.580 4.92-.640 4.92-3.14 0-1.02.9-2.37 2-3 3.42-1.96 9.94-4.26 11.2-3.95.674.160.471-.619-.452-1.73-1.41-1.7-1.27-1.94.841-1.54 1.89.364 2.52-.294 2.52-2.63 0-1.72-.38-2.88-.844-2.6-.464.287-.844-.325-.844-1.36s.432-1.62.960-1.29c1.88 1.16 2.27-4.6.540-7.94-1.1-2.13-1.27-3.7-.455-4.2.825-.510.736-1.5-.242-2.67-.852-1.03-2.23-1.46-3.06-.959-.950.569-0.9.147.134-1.13 1.36-1.69 1.03-2.6-1.96-5.26-2.73-2.43-3.14-2.57-1.69-.550 1.62 2.25 1.39 2.2-1.46-.333-1.86-1.65-4.02-3-4.8-3s-2.16-.893-3.07-1.99c-.906-1.09-2.11-1.7-2.68-1.35-.567.351-1.7-.164-2.51-1.14-1.62-1.95-7.4-2.12-9.09-.263-.603.661-.197.692.936.0724 1.19-.649 1.55-.601.889.120-.611.668-3.01 1.24-5.33 1.27-2.43.0349-4.09.707-3.92 1.58.176.877-.864 1.3-2.45.993-2.25-.434-2.47-.184-1.19 1.36 1.29 1.55 1.05 1.79-1.33 1.33-2.38-.459-2.62-.219-1.33 1.33s1.05 1.79-1.33 1.33c-2.55-.491-2.69-.292-1.12 1.64.982 1.21 1.1 1.79.270 1.29-.834-.499-2.33.101-3.33 1.33-1.56 1.93-1.54 2.08.182 1.06 1.78-1.05 1.78-.905 0 1.28-1.1 1.35-2 2.82-2 3.26 0 .437-.326.686-.724.554-.398-.133-.683 2.87-.633 6.67.0919 6.99 1.37 10.8 3.23 9.66.560-.346 1.02.217 1.02 1.25 0 1.04-.593 1.52-1.32 1.07-.757-.468-.894-.130-.322.796.547.886 4.27 3.06 8.27 4.83 5.32 2.35 7.17 3.85 6.88 5.57-.231 1.35.449 2.39 1.6 2.44 1.1.0498 1.84.858 1.63 1.8-.202.938.258 1.32 1.02.847.763-.472 1.08-1.36.693-1.98zm3.92-52.1c-.338-.547.271-.864 1.35-.705 2.79.409 3.79 1.7 1.32 1.7-1.13 0-2.34-.447-2.67-.994zm-20-35.1c1.3-.338 3.1-.316 4 .0494.903.365-.159.642-2.36.615-2.2-.0272-2.94-.326-1.64-.664z" fill="#eec6b0"/>
  <path d="m15.8 265c7.12-19.1 9.5-23.3 14.7-26.3 6.8-3.92 23.9-9.22 36.4-11.3 8.04-1.34 9.67-2.03 9.67-4.14 0-1.49 2.14-3.88 5.23-5.83 2.87-1.81 6.88-5.57 8.9-8.35s5.29-7.17 7.28-9.77l3.61-4.72-2.84-3.48c-8.18-10-13-18.1-15-25.3-1.27-4.51-2.86-7.7-3.7-7.39-3.59 1.3-8.1-3.79-19.1-21.6-5.31-8.59-3.64-26.8 2.45-26.8 2.58 0 2.79-.506 2.02-5-4.9-28.6-.3-48.5 14.5-63.7 7.1-7.3 19.4-14.2 28.1-15.9 2.2-.432.316.636-4.19 2.37-16.1 6.2-28.3 18-33.9 32.7-6.02 15.7-4.61 45.8 2.86 60.9l2.64 5.33-.572-8c-1.11-15.6 1.21-50.3 3.67-55 2.75-5.24 5.54-5.82 4.3-.888-.625 2.49-.422 3.17.730 2.46 1.17-.722 1.37.140.753 3.22-.463 2.31-.507 4.21-.0983 4.21 4.06 0 32.2-14.9 40.7-21.6l4.87-3.8 5.71 4.77c9.98 8.34 24.5 13.9 36.3 13.9 4.49 0 4.98-.280 3.56-2-1.39-1.68-1.17-2 1.42-2 2.94 0 2.88-.195-1.35-4.33-3.7-3.62-4.05-4.41-2.08-4.8 3.4-.671 8.86 3.84 12.5 10.3 3.6 6.45 5.83 23 6.16 45.8.115 7.87.546 14.6.959 15.1 1.53 1.53 5.09-10.3 6.3-21 2.03-18-1.35-38.9-8.55-53-7.6-14.9-23.8-23.6-49.3-26.7-7.55-.917-7.66-.981-2-1.14 7.71-.214 30.8 5.52 36.6 9.08 6.67 4.12 15.2 14 18.8 21.8 5.39 11.6 7.55 24.3 7.04 41.5-.442 15.2-0.4 15.4 2.5 15.4 2.34-.001 3.26 1.17 4.47 5.66 2.28 8.46.953 17.4-3.55 23.9-2.13 3.07-5.81 8.48-8.19 12-4.04 6.03-5.43 7.03-9.14 6.6-.806-.0936-2.54 3.79-3.85 8.64-1.55 5.73-4.07 10.9-7.2 14.7-2.65 3.22-6.06 7.46-7.59 9.42l-2.77 3.56 6.1 6.17c9.61 9.71 19.4 21.8 19.4 23.9.004 1.41 3.63 2.54 13.4 4.18 17.1 2.87 30.9 7.47 34.7 11.6 2.9 3.13 8.61 16 10.4 23.4l.878 3.67h-107l.933-9.47c.513-5.21 1.29-10.4 1.73-11.5.604-1.57.140-1.91-1.91-1.37-2.7.705-2.69.687.108-5.96 2.74-6.49 2.83-6.57 3.55-2.83.725 3.78 0.8 3.72 4.37-3.18 3.85-7.45 8.3-22.7 7-24-.426-.426-3.02 1.03-5.77 3.23-8.04 6.44-11.2 7.61-20.3 7.61-9.39 0-12.4-1.16-21-8.19-4.85-3.95-5.77-4.29-6.51-2.37-1.01 2.63 4.69 17.8 9.56 25.4l3.4 5.33-.699-8-.699-8 3.15 9.68c1.73 5.33 3.81 10.5 4.62 11.5.809.975 1.17 2.08.799 2.45-.370.370.835 4.68 2.68 9.57 1.84 4.9 3.35 9.19 3.35 9.54s-26.5.636-58.8.636c-55.5 0-58.8-.133-57.9-2.33zm124-47c5.97-1.66 12.4-6.82 15.2-12.2 1.12-2.17 5.3-7.5 9.29-11.8 8.23-8.95 9.09-11.9 3.47-11.9-3.83 0-7.05-2.74-11.3-9.65-3.02-4.86-7.32-7.52-14.4-8.91-4.73-.929-5.08-1.17-1.84-1.26 7.25-.212 14.5 4.24 19.1 11.7 3.72 6.05 4.72 6.83 8.73 6.83 3.46 0 5.1-.862 6.95-3.67 3.15-4.77 16-51.9 15.5-56.7-.531-4.62-2.91-4.84-2.91-.267 0 1.87-.897 5.13-1.99 7.25-3.25 6.28-6.93 8.01-17 8.01-17.7 0-25.9-4.26-27.5-14.3-.793-4.92-.950-5.04-7.13-5.44l-6.32-.406v4.84c0 9.88-9.81 15.3-27.8 15.3-9.37.007-10-.191-14.3-4.53-2.55-2.55-4.54-5.9-4.55-7.67-.0339-5.21-2.17-7.31-3.01-2.96-.451 2.36 1.73 12.4 5.85 26.9 6.7 23.6 8.84 29.2 12.3 32.1 1.07.890 1.65 2.77 1.28 4.17-.464 1.77 1.38 4.71 6.04 9.64 3.69 3.9 8.13 9.6 9.87 12.7 3.77 6.63 8.19 10.4 14.4 12.1 6.11 1.75 6.48 1.76 12.2.166zm-23.5-25.4c-4.67-5.55-4.75-13.4-.179-18 1.8-1.8 4.35-3.25 5.67-3.22 1.5.0328.855.722-1.74 1.85-6.54 2.85-7.86 10.1-3.21 17.8 2.04 3.35 3.56 4.33 6.68 4.33 3.13 0 4.64-.979 6.68-4.33 1.45-2.38 2.64-3.66 2.65-2.85.003.818-1.24 3.07-2.76 5-3.88 4.94-9.33 4.7-13.8-.589zm22 .589c-1.52-1.93-2.76-4.18-2.76-5 .003-.818 1.19.463 2.65 2.85 4.69 7.69 13.5 5 15.5-4.71 1.32-6.62-.385-10.9-5.19-13-2.62-1.14-3.36-1.88-1.89-1.92 4.35-.0948 8.94 5.96 8.94 11.8 0 11.2-11.2 17.7-17.2 9.98zm-36-13c1.84-.354 4.77-3.31 7.5-7.59 4.95-7.73 11.1-11.6 18.3-11.3 4.31.141 4.26.186-1.14 1.25-8.13 1.61-10.4 3.18-16.4 11.3-3.9 5.28-6.2 7.24-8.35 7.11l-2.96-.182zm18.7-4.56c2.06-2.16 18.5-3.62 24.2-2.15 2.19.567 4.38 1.69 4.88 2.49.618 1-.0905 1.12-2.27.375-3.93-1.34-20.7-1.29-25.2.0816-2.78.844-3.05.712-1.61-.795zm20-6.07c.962-.385 2.11-.338 2.56.105.443.443-.344.758-1.75 0.7-1.55-.064-1.87-.380-.806-.806zm-10.3-9.97c-6.52-2.45-6.59-2.94-2.55-17.3 2.09-7.45 4.19-13.9 4.66-14.3.974-.889-.411 17.7-1.66 22.2-.725 2.63-0.2 3.06 4.66 3.84 6.4 1.02 6.9 2.41 1.81 5.01-2.56 1.31-4.65 1.5-6.93.647zm-17.4-15.9c-.008-2.36 3.46-7.6 4.37-6.59.326.366-.521 2.46-1.88 4.66-1.43 2.31-2.48 3.12-2.48 1.92zm37.7-.223c-2.43-3.13-3.23-5.03-2.13-5.03 1.32 0 4.82 5.36 4.02 6.16-.313.313-1.16-.195-1.88-1.13zm-71.4 7.02c-.738-2.91-1.72-5.23-2.19-5.18-2.37.301-3.05-.374-1.9-1.87.826-1.08.684-3.55-.401-7-1.43-4.56-1.69-4.82-1.78-1.75-.135 4.71-2.32 5.9-5.52 3-3.13-2.83-3.23-4.81-.502-10.1 1.14-2.21 1.84-4.73 1.55-5.6-.785-2.32-4.96 6.39-4.96 10.4 0 2.03 1.95 5.55 4.85 8.77 2.67 2.95 4.49 5.74 4.04 6.19-1.19 1.19 4.31 8.45 6.39 8.45 1.4 0 1.49-1.11.426-5.28zm-6.84-8.68c-.411-1.07-.237-2.27.387-2.65.624-.386 1.47.176 1.88 1.25.411 1.07.237 2.27-.387 2.65-.624.386-1.47-.176-1.88-1.25zm119 11c1.22-1.86 1.85-3.74 1.41-4.18-.442-.442 1.58-3.51 4.49-6.81 2.91-3.31 5.29-7.14 5.29-8.53 0-3.82-3.78-12.1-5.15-11.2-.662.409-.0317 3.11 1.4 6.01 2.77 5.6 1.97 9.64-2.23 11.2-1.61.619-1.88 0.1-1.25-2.41.442-1.76.111-4.29-.734-5.63-1.32-2.09-1.43-1.91-.759 1.25.529 2.5.261 3.57-.837 3.33-.888-.188-1.8.857-2.02 2.32-.390 2.59-.370 2.59.697.0715 1.07-2.53 1.12-2.53 1.81.144.856 3.28-1.04 7.12-3.51 7.12-.974 0-2.38 2.4-3.13 5.33-1.09 4.29-.995 5.33.474 5.33 1.01 0 2.82-1.52 4.04-3.37zm-122-20c-.338-1.3-.637-.559-.664 1.64-.0272 2.2.249 3.26.615 2.36.365-.903.387-2.7.0494-4zm49.3-3.82c5.14-3.82 7.09-11.5 3.83-15.1-3.72-4.11-11-5.87-24.1-5.82-15.2.0553-17.9 1.36-17.9 8.55 0 5.56 1.46 9.42 5.15 13.6 1.86 2.13 3.87 2.39 15.7 2 11.3-.370 14.2-.923 17.4-3.24zm-23.6-2.81c-7.04-2.57-10.4-11-5.42-13.7 6.46-3.45 23.9.0441 26.8 5.36 2.39 4.47 1.32 5.17-2.34 1.53l-3.64-3.61-.730 4c-.589 3.23-.209 4.14 1.97 4.75 2.18.602 1.83.925-1.8 1.67-5.16 1.05-11.9 1.04-14.8-.0218zm2.66-2.4c-.964-1.16-1.34-3.63-.890-5.87.732-3.66.582-3.81-2.83-2.9-5.23 1.4-5.25 4.88-.0313 8.07 5.29 3.23 5.95 3.35 3.75.704zm83.6 3.47c4.17-6.2 4.24-15.4.128-17.6-3.85-2.06-25.8-2.09-31.9-.0407-2.66.886-5.91 2.8-7.23 4.25-3.59 3.97-1.32 11.6 4.66 15.6 4.16 2.8 5.85 3.05 18 2.71l13.4-.377zm-24.7-1.14c.156-.55-.472-2.36-1.39-4.03-.923-1.67-1.26-3.71-.744-4.54 1.24-2-1.86-.223-5.81 3.33-3.45 3.11-3.97 1.55-.924-2.8 1.14-1.63 1.59-3 1-3.05-.592-.0491 1.62-.940 4.92-1.98 8.19-2.58 19.2-2.5 21.9.164 2.51 2.51 2.49 2.25.502 6.61-.876 1.92-3.25 4.35-5.27 5.4-3.81 1.97-14.7 2.66-14.2.9zm15.8-4.42c3.37-3.37 2.83-5.48-1.68-6.69-4.02-1.07-7.17.444-5.74 2.76.773 1.25 1.29 1.21 2.27-.184.872-1.25 1.1-.471.731 2.52-.614 5.02.567 5.44 4.42 1.58zm-20.3 3.17c.962-.385 2.11-.338 2.56.105.443.443-.344.758-1.75 0.7-1.55-.064-1.87-.380-.806-.806zm51.7-2.36c-.488-2.6-1.36-4.73-1.94-4.73-2.39 0-2.54 1.85-.503 6.12 2.63 5.51 3.63 4.94 2.44-1.39zm-138-8c-.819-2.58-4.52-4.61-5.86-3.21-.445.464.541 1.75 2.19 2.86s3 2.62 3 3.35c0 .797-.739.721-1.84-.191-1.45-1.21-2.01-.891-2.65 1.5-1.86 6.95-.893 8.13 2.53 3.08 2-2.94 3.07-5.97 2.62-7.4zm137-3.07c-1.63-1.63-5.46 1.13-5.46 3.94 0 1.51.657 1.44 3.4-.361 2.29-1.5 2.96-2.67 2.06-3.57zm-61.8-.493c.915-.862 1.3-2.52.853-3.68-1.61-4.18 22.6-11.4 31.6-9.39 5.07 1.11 11.9 6.84 11.9 10 0 1.36.692 2.9 1.54 3.42 1.14.704 1.31-1.78.646-9.59-3.01-35.6-4.03-39.8-11-45.9l-3.84-3.33 3.88 4.29c3.37 3.73 3.58 4.4 1.63 5.15-1.63.624-1.86 1.32-.859 2.53 2.14 2.58-8.03 3.7-17.7 1.95-10.4-1.89-18-5.52-25.6-12.2-5.34-4.7-6.35-5.13-8.38-3.54-1.27.993-2.63 2.24-3.02 2.77-2.19 2.91-23.5 14.2-33 17.5-10.8 3.76-14 3.91-11.3.531.721-.934.897-3.2.391-5.03-.790-2.86-1.04-2.48-1.74 2.67-1.68 12.4-1.98 42.8-.420 42.3.825-.275 1.71-1.65 1.97-3.06 0.7-3.83 5.36-8.29 10.4-9.96 8.97-2.96 35.1 4.05 33.2 8.91-.416 1.08-.0855 2.69.734 3.56 1.92 2.06 16 2.08 18.1.0274zm-44.3-5.9c6.03-0.1 7.18-.397 4.68-1.2-5.52-1.77-13.2-1.46-17.4.701-5.15 2.66-4.99 3.42.391 1.87 2.38-.682 7.93-1.3 12.3-1.37zm82.8-.576c-2.84-2.15-8.62-2.5-15.6-.958-3.93.874-3.33 1.1 4.83 1.76 5.13.421 10.2.851 11.3.958 1.44.139 1.28-.353-.588-1.76zm-51 145c-.404-.654 1.33-1.43 3.86-1.72 3.64-.425 4.29-.179 3.16 1.19-1.64 1.97-5.92 2.3-7.02.536zm-17-226c1.3-.338 3.1-.316 4 .0494.903.365-.159.642-2.36.615-2.2-.0272-2.94-.326-1.64-.664z" fill="#d6b1a7"/>
  <path d="m15.7 265c5.45-14.2 9.78-23.2 12.1-25.1 5.63-4.57 23-9.98 43.8-13.6 3.76-.660 5-1.52 5-3.47 0-1.56 2.08-3.9 5.24-5.9 2.88-1.82 7.35-6.18 9.93-9.68 2.58-3.51 5.89-7.93 7.35-9.83 2.12-2.74 2.34-3.85 1.07-5.38-.876-1.06 1.11.858 4.41 4.27s7.2 8.21 8.67 10.7c1.47 2.46 4.71 5.85 7.2 7.52 2.49 1.68 3.98 3.05 3.3 3.05-1.63 0-6.48-3.44-10.5-7.44-4.1-4.1-7.36-4.2-7.3-.223.0807 5.28 7.54 22.2 13 29.4 6.42 8.52 7.89 11.2 11 20.4l2.48 7.2h-58.3c-50.3 0-58.6-.273-58-1.9zm129 .233c.258-10.4 3.1-22.1 7.16-29.4 4.1-7.38 8.79-21.5 8.79-26.5 0-2.9-5.02-2.18-6.7.967-1.45 2.71-7.84 7.28-10.2 7.27-.620-.003.790-1.17 3.13-2.6s5.26-4.12 6.48-5.98 2.69-3.09 3.27-2.74c.576.356 1.4-.280 1.84-1.41.493-1.28.243-1.72-.660-1.16-3.17 1.96 1.46-4.27 7.01-9.42 3.16-2.93 4.65-4.03 3.33-2.44-2.34 2.81-2.33 2.94.404 4.4 1.55.828 6.45 6.13 10.9 11.8 4.44 5.65 9.08 11 10.3 12 1.22.951 2.22 2.75 2.22 4 0 1.54 1.28 2.41 4 2.69 8.34.871 28.3 5.47 35.6 8.21 5.43 2.04 8.35 4.06 10.2 7.11 2.87 4.65 7.27 15.5 8.67 21.3l.883 3.67h-54c-41.8 0-53.3-.360-53.3-1.67zm-54.5-86c-2.24-2.74-5.17-8.64-6.52-13.1-2.09-6.92-2.95-8.16-5.86-8.51-2.6-.308-5.29-3.17-11.4-12.1-6.73-9.9-8.06-12.8-8.56-18.9-.326-3.93.123-9.3.998-12 1.3-3.94 2.24-4.81 5.15-4.8 4.13.0152 3.95-.415 15.7 38 4.76 15.6 8.75 26 11.3 29.8 5.01 7.28 4.51 8.14-.882 1.53zm-10.7-26c-2.6-10-7-22-8-21-.665.220-1.21 2.27-1.21 4.56 0 4.56-2.39 4.75-4.73.375-1.45-2.72 1.54-11.9 3.87-11.9.702 0 .964-1.19.583-2.65s-1.17-2.36-1.75-2c-.582.359-.785-.397-.451-1.68.859-3.31-2.63-7.63-5.33-6.59-2.64 1.01-2.92 3.59-.392 3.59 1.45 0 1.51.916.345 4.65-1.18 3.76-1.65 4.21-2.48 2.33-.590-1.33-.805.402-.503 4.07.391 4.75 1.89 8.34 5.84 14 2.92 4.19 6.31 9.57 7.53 12 2.8 5.48 8.01 6.24 6.69.979zm92.8 30.8c-.0215-.693 1.42-2.79 3.19-4.67 2.23-2.35 5.37-10.5 10.1-26.1 3.78-12.5 8.42-27.2 10.3-32.7 3.08-8.91 3.46-12 3.45-28.7-.004-16.6-.397-19.9-3.52-29.3-5.83-17.7-13.9-27.2-28.1-33.4-2.26-.984-3.21-1.81-2.11-1.83 3.71-.0735 15.6 7.77 20.5 13.5 10.9 12.7 16.2 32.2 15.2 55.3-.550 12.4-.378 13.8 1.67 13.8 3.38 0 4.88 2.56 5.84 10 1.16 8.99-.480 13.7-9.31 26.8-5.62 8.36-8.24 11.2-10.4 11.2-2.48 0-3.43 1.51-5.99 9.44-1.69 5.24-4.75 11.3-6.89 13.7-2.12 2.33-3.87 3.66-3.89 2.97zm22.5-33.7c2.12-3.48 4.73-7.3 5.79-8.48s3.04-4.04 4.41-6.35c2.33-3.95 2.36-4.68.418-12.1-1.66-6.37-1.73-8-.335-8.31 1.19-.266 1.34-1.01.470-2.39-1.83-2.91-5.46-.236-7.36 5.41-1.3 3.87-1.16 5.18.906 8.58 3.12 5.12 3.11 9-.0364 11.8-2.38 2.15-2.46 2.1-1.85-1.1.353-1.85.234-4.42-.265-5.71-.866-2.25-.968-2.25-2.23-.007-1.08 1.93-7.84 23.1-7.84 24.6 0 .237.913.432 2.03.432s3.77-2.85 5.89-6.33zm-73.3 25.8c3.5-2.15 20.6-2.96 23.5-1.12.849.539-3.65.980-10 .980s-12.7.491-14.2 1.09c-1.47.601-1.17.172.667-.953zm7-16.3c-2.38-.998-4.33-2.56-4.32-3.48.023-2.31 6.41-25.2 7.28-26.1 1.04-1.04.873 2.07-.769 14.3-1.33 9.86-1.24 11.2.881 13.6 3.11 3.43 2.21 3.94-3.07 1.73zm6.33-1.81c-1.61-1.04-1.4-1.3 1.08-1.31 1.72-.012 2.71.569 2.25 1.31-.991 1.6-.852 1.6-3.33 0zm-47-24c-3.72-1.62-6.88-6.2-8.56-12.4-1.47-5.44-3.92-6.76-3.92-2.11 0 1.59-.412 2.48-.915 1.97-1.26-1.26-.583-46.9.747-50.4.917-2.48 1.08 33.1.169 36.9-.681 2.87.0884 4.67 2 4.67 1.1 0 2.05-.45 2.1-1 1.12-11 9.55-15 24.9-11.8 13.7 2.87 19.4 5.53 18.4 8.69-1.13 3.57 1.29 4.7 10.4 4.82 8 .106 9.57-.772 9.57-5.33 0-2.05 1.95-3.35 8.67-5.75 11.7-4.18 23.9-4.53 28.8-.839 4.68 3.5 6.27 7.3 1.72 4.11-3.31-2.32-12.6-2.76-18.5-.867-2.58.828-1.69 1.1 4 1.21 9.12.175 17.2 2.35 18.2 4.88.405 1.05 1.57 1.92 2.59 1.92 2.21 0 2.48-7.32.618-16.9-1.5-7.77-2.91-26.3-1.92-25.3 1.05 1.05 3.59 26.8 3.72 37.6.0953 8.18-.179 9.29-2.22 8.94-1.72-.289-2.33.513-2.33 3.07 0 5.25-3.56 11-8.29 13.5-5.36 2.77-23.7 1.95-30.1-1.34-4.7-2.43-8.27-8.22-8.27-13.4 0-3.19-.410-3.4-6.67-3.4-6.19 0-6.67.235-6.67 3.27 0 10.4-7.54 15.5-23.8 16.2-6.36.273-12.8-.0617-14.4-.744zm30.3-4.47c8.6-5.8 8.71-15 .229-19-3.78-1.8-8.29-2.38-18.3-2.37-7.33.007-14.8.468-16.5 1.03-2.93.944-3.11 1.55-2.58 8.86.427 5.9 1.35 8.68 3.72 11.2 2.94 3.13 3.99 3.35 16.1 3.35 11.2 0 13.5-.396 17.4-3.04zm-25.1-4.92c-5.36-3.27-7.17-9-3.64-11.6 2.93-2.15 13.6-2.36 18.9-.370 4.1 1.55 9.75 6.33 9.75 8.24 0 .659-1.65-.103-3.67-1.69l-3.67-2.89-.707 3.79c-.486 2.61-.0907 4.04 1.26 4.57 1.41.557 1.05 1.02-1.29 1.65-5.97 1.6-12.5.928-16.9-1.72zm4.96-.706c-1-1.21-1.34-3.63-.846-6.08.749-3.75.571-4.01-2.17-3.18-6.52 1.97-6.31 6.09.481 9.58 4.17 2.14 4.54 2.1 2.53-.317zm83.6 3.47c3.61-5.36 4.16-14.9 1.02-17.5-3.35-2.78-29.5-2.33-35.7.619-8.51 4.05-8.37 13.2.294 19.1 4.15 2.79 5.83 3.05 17.9 2.71l13.4-.377zm-25.4-4.14c-1.3-2.2-1.96-4.66-1.46-5.47.652-1.05.136-1.05-1.85.01-1.51.810-3.12 2.07-3.57 2.8-1.64 2.66-3.42 1.32-1.93-1.45 3.61-6.75 21.9-10.4 27.9-5.52 2.58 2.09 2.73 2.78 1.3 5.94-1.86 4.08-8.52 7.7-14.2 7.7-2.86 0-4.45-1.03-6.21-4zm16.5-1.33c3.52-3.52 3.36-5.13-.655-6.66-3.43-1.3-7.34-.561-7.34 1.39 0 1.97 2.41 2.68 3.22.944.428-.921.583.275.345 2.66-0.5 4.99.672 5.43 4.44 1.67zm-77.4-16c7.2-.534 9.07-1.01 6.67-1.71-7.05-2.04-15.6-1.34-18.9 1.55-2.74 2.42-2.8 2.66-.481 1.84 1.47-.515 7.17-1.27 12.7-1.68zm-30.5-.274c0-1.83.303-2.58.673-1.67.370.917.370 2.42 0 3.33-.370.917-.673.167-.673-1.67zm-1.18-9.33c0-3.3.260-4.65.578-3s.318 4.35 0 6-.578.3-.578-3zm-1.48-10c-.311-7.8 2.57-22.7 5.73-29.6 1.76-3.85 6.1-10.1 9.63-13.9 6.3-6.78 16.9-14.6 19.7-14.4.773.0324-.694 1.18-3.26 2.55-17.6 9.4-26.8 24.8-30.4 50.7-.663 4.77-1.28 6.87-1.36 4.67zm29.2-16.7c1.1-.711 2.6-1.29 3.33-1.29.733 0 .433.582-.667 1.29-1.1.711-2.6 1.29-3.33 1.29-.733 0-.433-.582.667-1.29zm11.4-4.9c2.2-1.16 6.9-3.86 10.4-6 3.55-2.15 6.07-3.29 5.61-2.54-1 1.63-17.1 10.8-18.9 10.7-.663-.0294.595-1 2.79-2.16zm49.6-.395c-6.67-2.13-22.3-12.1-22.3-14.2 0-.405 2.35 1.12 5.22 3.4 7.33 5.8 18.5 10.6 27.6 12 6.62.967 7 1.16 2.48 1.23-2.93 0.05-8.8-1.02-13-2.37zm20.2-9.06c-1.66-2.11-1.61-2.16.503-.503 1.28 1.01 2.33 2.06 2.33 2.33 0 1.1-1.09.391-2.84-1.83zm-49.2-3.67c1.72-1.83 3.43-3.33 3.8-3.33.367 0-.743 1.5-2.46 3.33s-3.43 3.33-3.8 3.33c-.367 0 .743-1.5 2.46-3.33zm35.8-25.6c.962-.385 2.11-.338 2.56.105.443.443-.344.758-1.75 0.7-1.55-.0640-1.87-.380-.806-.806zm-5.33-1.33c.962-.385 2.11-.338 2.56.105.443.443-.344.758-1.75 0.7-1.55-.0640-1.87-.380-.806-.806zm-13.4-2.64c.917-.370 2.42-.370 3.33 0 .917.370.167.673-1.67.673-1.83 0-2.58-.303-1.67-.673z" fill="#ada8a8"/>
  <path d="m18 260c1.51-3.85 3.76-9.62 4.99-12.8 1.91-4.95 3.4-6.4 10-9.76 7.41-3.74 25.5-9.18 30.1-9.03 1.17.0391-2.87 1.55-8.98 3.35-6.1 1.8-14.5 4.94-18.7 6.97-6.53 3.18-8.07 4.69-11.2 11-1.99 4.01-4.33 9.54-5.21 12.3-.881 2.75-2.1 5-2.72 5-.614 0 .123-3.15 1.64-7zm61.4-4.47c-.210-19.1-1.48-28.3-3.98-29-1.4-.374-1.1-.628.850-.729 1.65-.0851 3 .595 3 1.51-.002.917.637 7.97 1.42 15.7.937 9.21.984 15.8.138 19.3-1.14 4.72-1.3 3.95-1.42-6.8zm19.2 6.87c5.13-2.43 11.4-5.96 13.8-7.84 2.47-1.88 6.24-3.8 8.36-4.27l3.87-.849-5.4-6.45c-8.79-10.5-15.1-25.4-15.7-37.3-.416-7.77-1.17-10.7-3.38-13.3-1.57-1.83-.258-.933 2.91 2 5.56 5.15 10.2 11.4 7.02 9.42-.903-.558-1.15-.119-.660 1.16.435 1.13 1.42 1.67 2.19 1.2.773-.478 1.01-.232.526.549-.481.778-2.07 1.1-3.54.717-2.12-.554-2.66-.0489-2.62 2.46.0787 5.41 7.47 22.3 13 29.5 2.88 3.82 5.99 8.35 6.9 10.1 2.74 5.14 6.7 17.5 5.61 17.5-.560 0-2.06-3.3-3.33-7.33s-2.9-7.33-3.62-7.33c-2.41 0-2.66 3.43-.598 8.36 3.1 7.41 2.33 7.76-1.38.639-1.81-3.48-3.57-6.33-3.91-6.33-.338 0-3.78 1.98-7.64 4.39-9.23 5.77-13.7 7.63-18.1 7.52-2.85-.0687-1.65-1.02 5.73-4.51zm46 2.93c.258-10.4 3.1-22.1 7.16-29.4 4.1-7.38 8.79-21.5 8.79-26.5 0-2.9-5.02-2.18-6.7.967-1.45 2.71-7.84 7.28-10.2 7.27-.620-.003.790-1.17 3.13-2.6s5.26-4.12 6.48-5.98 2.69-3.09 3.27-2.74c.576.356 1.4-.280 1.84-1.41.493-1.28.243-1.72-.660-1.16-3.17 1.96 1.46-4.27 7.01-9.42 3.16-2.93 4.68-4.06 3.4-2.51-2.26 2.72-2.23 2.89.961 4.98 3.05 2 20.4 23.5 18.9 23.5-.353 0-4.28-4.65-8.73-10.3-4.45-5.68-9.59-11.4-11.4-12.7l-3.33-2.4-.0232 4.4c-.0443 8.41-3.99 23-8.9 33-2.72 5.52-5.33 11.6-5.8 13.5-.723 2.93-.469 3.39 1.58 2.85 1.34-.351 3.85-.284 5.58.149 4.3 1.08 29.7 18.2 27 18.2-2.65 0-12.7-5.11-20.7-10.6-3.3-2.24-6.41-4.07-6.91-4.07-.498-.003-1.59 3.29-2.43 7.33-.837 4.03-2 7.33-2.59 7.33-.982 0 .395-10.3 1.92-14.4.414-1.11-.182-1.6-1.61-1.33-2.48.478-4.05 4.68-4.25 11.4-.073 2.38-.733 4.33-1.47 4.33-.733 0-1.31-.75-1.29-1.67zm43.4-5.46c-.703-4.89-.525-13.1.479-22 1.42-12.6 2.74-19 2.74-13.3 0 1.47 1.98 2.31 7 2.96 11.9 1.55 25.3 4.6 33.4 7.61 7.12 2.65 8.05 3.48 11.5 10.4 4.35 8.62 8.44 21.5 6.83 21.5-.602 0-1.44-1.73-1.86-3.84-.423-2.11-2.65-8.06-4.95-13.2-3.97-8.88-4.58-9.54-11.7-12.7-7.8-3.49-38.3-9.94-39.8-8.42-.472.472-1.23 9.41-1.69 19.9-.761 17.3-.934 18.3-1.95 11.2zm-121-33c.917-.370 2.42-.370 3.33 0 .917.370.167.673-1.67.673-1.83 0-2.58-.303-1.67-.673zm12.9-8.76c6.11-4.05 11.5-9.56 15.5-15.7 4.68-7.29 6.88-9.08 3.05-2.48-3.96 6.83-12.4 15.8-16.9 17.9-2.3 1.09-3.04 1.22-1.64.289zm39.3-3.24c-1.9-1.18-4.23-3.42-5.17-4.96-1.4-2.31-1.01-2.19 2.13.672 2.11 1.92 5.03 4.15 6.5 4.96 1.47.809 2.07 1.47 1.33 1.48-.733.003-2.89-.962-4.79-2.14zm-28.6-36.4c-2.24-2.74-5.17-8.64-6.52-13.1-2.09-6.92-2.95-8.16-5.86-8.51-2.6-.308-5.29-3.17-11.4-12.1-6.73-9.9-8.06-12.8-8.56-18.9-.326-3.93.135-9.34 1.02-12 1.36-4.11 2.15-4.83 4.96-4.48 4.09 0.5 5.56 4 15.9 37.7 4.76 15.6 8.74 26 11.3 29.8 5.01 7.28 4.51 8.14-.882 1.53zm-10.6-27c-2.6-10-7-22-8-21-.665.220-1.21 2.27-1.21 4.56 0 4.56-2.39 4.75-4.73.375-1.45-2.72 1.54-11.9 3.87-11.9.702 0 .964-1.19.583-2.65s-1.17-2.36-1.75-2c-.582.359-.785-.397-.451-1.68.859-3.31-2.63-7.63-5.33-6.59-2.64 1.01-2.92 3.59-.392 3.59 1.45 0 1.51.916.345 4.65-1.18 3.76-1.65 4.21-2.48 2.33-.590-1.33-.805.402-.503 4.07.391 4.75 1.89 8.34 5.84 14 2.92 4.19 6.31 9.57 7.53 12 2.8 5.48 8.01 6.24 6.69.979zm92.8 30.8c-.0215-.693 1.42-2.79 3.21-4.67 2.3-2.41 5.56-11 11.2-29.6 6.9-22.8 11.7-35.8 10.7-29.2-.167 1.1.718 3.92 1.97 6.27 2.93 5.51 2.87 8.78-.220 11.6-2.38 2.15-2.46 2.1-1.85-1.1.353-1.85.234-4.42-.265-5.71-.866-2.25-.968-2.25-2.23-.007-1.92 3.42-7.94 24-7.22 24.7 1.61 1.61 5.02-1.63 8.8-8.33 2.29-4.07 4.67-7.39 5.29-7.39 1.39 0 3.26-5.3 2.84-8-.282-1.78-.165-1.78 1.05 0 2.09 3.05 1.82-3.56-.460-11.1-1.58-5.24-1.58-6.21-.0418-6.21 1.1 0 1.51-.819 1.04-2.07-1.12-2.93-4.73-1.84-6.87 2.08l-1.81 3.32.816-3.33c.449-1.83 1.17-9.63 1.61-17.3 1.73-30.6-7.87-55.4-25.4-65.4-3.76-2.16-6.2-3.93-5.43-3.93 2.58-.0229 13.3 7.48 17 12 10.5 12.5 14.8 27.2 14.9 51 .0329 16 .310 18.3 2.21 18.3 3.27.00087 4.77 2.63 5.72 10 1.16 8.99-.480 13.7-9.31 26.8-5.62 8.36-8.24 11.2-10.4 11.2-2.48 0-3.43 1.51-5.99 9.44-1.69 5.24-4.75 11.3-6.89 13.7-2.12 2.33-3.87 3.66-3.89 2.97zm-50.7-7.93c3.5-2.15 20.6-2.96 23.5-1.12.849.539-3.65.980-10 .980s-12.7.491-14.2 1.09c-1.47.601-1.17.172.667-.953zm7-16.3c-2.38-.998-4.33-2.56-4.32-3.48.023-2.31 6.41-25.2 7.28-26.1 1.04-1.04.873 2.07-.769 14.3-1.33 9.86-1.24 11.2.881 13.6 3.11 3.43 2.21 3.94-3.07 1.73zm6.33-1.81c-1.61-1.04-1.4-1.3 1.08-1.31 1.72-.012 2.71.569 2.25 1.31-.991 1.6-.852 1.6-3.33 0zm-46-24c-3.74-1.62-6.88-6.21-8.59-12.5-.971-3.59-1.95-4.89-3.3-4.38-1.35.516-1.92-.234-1.92-2.51 0-2.45.532-3.05 2.17-2.42 1.29.496 2.65-.0375 3.37-1.32 1.57-2.8 9.25-4.88 18.5-5.01 5.33-.0736 6.61-.414 4.67-1.25-4.52-1.94-15.8-1.5-19 .742-4.18 2.93-3.7.0323.550-3.31 4.86-3.83 18.1-3.7 29.8.284 6.79 2.31 8.67 3.53 8.67 5.62 0 4.59 1.58 5.45 9.84 5.34 8.78-.115 10.2-.810 10.2-5.13 0-2.35 1.59-3.42 8.67-5.83 11.6-3.94 24.2-4.07 29.5-.290 2.13 1.52 3.87 3.35 3.87 4.08 0 .725-1.33.384-2.96-.757-3.21-2.24-14.5-2.69-19-.742-1.94.833-.666 1.17 4.67 1.25 9.07.125 17.2 2.29 18.2 4.84.405 1.05 1.87 1.92 3.26 1.92s2.52.9 2.52 2c0 1.11-1.19 2-2.67 2-1.97 0-2.67.889-2.67 3.4 0 5.19-3.58 11-8.29 13.4-5.36 2.77-23.7 1.95-30.1-1.34-4.7-2.43-8.27-8.22-8.27-13.4 0-3.19-.410-3.4-6.67-3.4-6.19 0-6.67.235-6.67 3.27 0 10.4-7.54 15.5-23.8 16.2-6.36.273-12.8-.0617-14.4-.744zm23.4-1.54c16.2-3.47 18.2-20.3 2.86-23.5-6.26-1.33-25.1-1.3-29.9.0479-3.75 1.04-3.81 1.22-3.25 8.95.591 8.17 3.09 12.5 8.41 14.7 3.84 1.57 14.1 1.49 21.9-.177zm-11.6-6.15c3.15-.823 2.96-3.17-.333-4.03-2.97-.776-3.53-4.33-1.07-6.79 1.24-1.24.972-1.6-1.22-1.6-7.64 0-9.4 4.62-3.53 9.24 1.93 1.52 2.8 2.76 1.94 2.76-2.52 0-8.12-6.3-8.12-9.14 0-2.7 5.75-5.53 11.2-5.52 4.91.0131 12.5 2.64 15.7 5.43l3.11 2.71-3.19-1.55c-4.35-2.12-10.8-3.91-10.8-2.99 0 .415 1.61 2.25 3.58 4.08 3.26 3.02 3.38 3.47 1.35 4.95-1.23.897-1.84 2.02-1.36 2.5.477.477-1.48.799-4.35.714-2.87-.0851-4.17-.429-2.89-.764zm80.6 3.27c2.87-2.87 3.68-5.12 4.14-11.6.568-7.85.511-8.01-3.24-9.06-4.86-1.35-23.7-1.38-29.9-.0478-10.3 2.19-13.6 10.5-7.17 18.1 4.12 4.9 11.2 6.8 23.6 6.38 7.78-.260 9.5-.791 12.6-3.86zm-21.1-3.43c2.26-1.58.604-4.7-1.97-3.72-1.29.494-1.87-.304-1.87-2.58 0-4.04-1.25-4.14-5.21-.451-2.82 2.62-3.01 2.65-2.58.333.997-5.38 17.9-10.2 25.5-7.32 8.43 3.26 1.96 13.3-9.25 14.4-4.35.416-5.82.199-4.58-.672zm15.9-7.81c.449-3.07-2.61-4.39-10.3-4.42-4.46-.0179-4.5.0312-2.13 2.65 1.33 1.47 3.22 2.67 4.21 2.67 2.18 0 2.23.692.296 4.31l-1.5 2.8 4.5-2.62c2.47-1.44 4.68-3.86 4.9-5.38zm15.2-12.4c0-2.57.274-3.62.610-2.33.335 1.28.335 3.38 0 4.67-.335 1.28-.610.233-.610-2.33zm-126 .556c.0640-1.55.380-1.87.806-.806.385.962.338 2.11-.105 2.56-.443.443-.758-.344-0.7-1.75zm9.79-17.1c.131-10.6.559-19.7.953-20.1.393-.393.602 8 .463 18.6.9 10.3.4 19.6.1 19.6-.385.385-.594-8.01-.463-18.6zm-11 9.23c.0272-2.2.326-2.94.664-1.64s.316 3.1-.0494 4c-.365.903-.642-.159-.615-2.36zm125-2c0-1.83.303-2.58.673-1.67.370.917.370 2.42 0 3.33-.370.917-.673.167-.673-1.67zm-1.12-12c0-4.77.242-6.72.538-4.33.296 2.38.296 6.28 0 8.67-.296 2.38-.538.433-.538-4.33zm-123-11.7c.0272-2.2.326-2.94.664-1.64s.316 3.1-.0494 4c-.365.903-.642-.159-.615-2.36zm122-.7c0-1.83.303-2.58.673-1.67.370.917.370 2.42 0 3.33-.370.917-.673.167-.673-1.67zm-121-6.1c-.1-8.4 16.5-30.2 26.7-35.1l3.33-1.6-3.33 2.37c-11.8 8.4-20.4 19.1-24.2 30.1-1.3 3.8-2.4 5.7-2.5 4.2zm38.1-1.5c2.2-1.16 6.9-3.86 10.4-6 3.55-2.15 6.07-3.29 5.61-2.54-1 1.63-17.1 10.8-18.9 10.7-.663-.0294.595-1 2.79-2.16zm49-.5c-4.4-1.41-9.8-4.13-12-6.04l-4-3.47 4.25 2.8c5.63 3.72 14.1 6.65 23.1 7.99 6.58.983 6.78 1.1 2 1.18-2.93.0482-8.93-1.07-13.3-2.48zm7.08-38.2c.962-.385 2.11-.338 2.56.105.443.443-.344.758-1.75 0.7-1.55-.0640-1.87-.380-.806-.806z" fill="#c48d71"/>
  <path d="m17.8 261c8.17-20.4 7.81-19.8 15.9-23.4 9.47-4.16 19.3-7.25 26.2-8.25 2.95-.424.371.747-5.76 2.62-6.1 1.86-14.5 5.05-18.7 7.08-6.53 3.18-8.07 4.69-11.2 11-1.99 4.01-4.33 9.54-5.21 12.3-.881 2.75-2.1 5-2.7 5-.607 0 .0398-2.85 1.44-6.33zm61.6-5.14c-.210-19.1-1.48-28.3-3.98-29-1.4-.374-1.1-.628.850-.729 1.65-.0851 3 .595 3 1.51-.002.917.637 7.97 1.42 15.7.937 9.21.984 15.8.138 19.3-1.14 4.72-1.3 3.95-1.42-6.8zm19.2 6.87c5.13-2.43 11.4-5.96 13.8-7.84 2.47-1.88 6.24-3.8 8.36-4.27l3.87-.849-5.4-6.45c-8.39-10-15.1-25.5-15.7-36.5-.407-6.56-.144-8.91.924-8.25.822.508 1.5 4.34 1.51 8.51.0199 9.27 6.41 24.9 14.4 35.3 5.38 6.98 11 19.1 10.8 23.3-.0579 1.26-1.31-1.17-2.78-5.38-1.47-4.22-3.24-7.67-3.94-7.67-2.37 0-2.6 3.47-.556 8.36 3.1 7.41 2.33 7.76-1.38.639-1.81-3.48-3.57-6.33-3.91-6.33-.338 0-3.78 1.98-7.64 4.39-9.23 5.77-13.7 7.63-18.1 7.52-2.85-.0687-1.65-1.02 5.73-4.51zm46.9-1.76c1.02-11 3.4-19.4 7.31-25.8 4.03-6.55 9.11-24 9.11-31.3 0-2.41.6-4.75 1.33-5.2 3.98-2.46-1.31 21.2-7.59 34-2.72 5.52-5.33 11.6-5.8 13.5-.723 2.93-.469 3.39 1.58 2.85 1.34-.351 3.85-.284 5.58.149 4.3 1.08 29.7 18.2 27 18.2-2.65 0-12.7-5.11-20.7-10.6-3.3-2.24-6.41-4.07-6.91-4.07-.498-.003-1.59 3.29-2.43 7.33-.837 4.03-2 7.33-2.59 7.33-.969 0 .387-10.3 1.89-14.3.341-.917-.276-1.67-1.37-1.67-2.34 0-4.59 5.24-4.59 10.7 0 2.11-.525 4.16-1.17 4.56-.642.397-.905-2.12-.585-5.59zm42.5-.765c-1.01-7.01 1.02-35.1 2.65-36.7.314-.314.572.296.572 1.36 0 1.41 3.75 2.56 13.9 4.28 7.65 1.29 18.5 3.89 24.1 5.76 9.99 3.36 10.2 3.53 13.9 10.9 4.37 8.67 8.47 21.5 6.86 21.5-.602 0-1.44-1.73-1.86-3.84-.423-2.11-2.65-8.06-4.95-13.2-3.97-8.88-4.58-9.54-11.7-12.7-7.8-3.49-38.3-9.94-39.8-8.42-.472.472-1.23 9.41-1.69 19.9-.761 17.3-.934 18.3-1.95 11.2zm-121-32c.917-.370 2.42-.370 3.33 0 .917.370.167.673-1.67.673-1.83 0-2.58-.303-1.67-.673zm114-16c-3.82-4.95-8.82-10.7-11.1-12.8-3.68-3.31-3.76-3.5-.608-1.58 3.18 1.94 20.9 23.3 19.3 23.3-.347 0-3.76-4.05-7.57-9zm-93.7 1.43c3.54-3.54 7.82-8.23 9.51-10.4l3.07-4-2.95 4.67c-3.64 5.75-10.4 13.1-13.6 14.9-1.34.728.463-1.57 4-5.11zm87.8-31.1c1.33-1.47 2.71-2.67 3.08-2.67.367 0-.419 1.2-1.75 2.67s-2.71 2.67-3.08 2.67c-.367 0 .419-1.2 1.75-2.67zm-83.4-2.33-3.23-3.67 3.67 3.23c3.43 3.02 4.28 4.1 3.23 4.1-.239 0-1.89-1.65-3.67-3.67zm-10.6-21c-.844-.917-1.08-2.41-.518-3.31.695-1.12 1.27-.679 1.81 1.41.968 3.7.710 4.08-1.3 1.9zm47.5.177c-3.89-2.01-3.9-4.32-.042-16.2l2.59-8-.779 11c-.555 7.83-0.3 11.6.889 13 2.02 2.44 1.65 2.47-2.66.250zm56.1.813c.0515-.579.547-2.21 1.1-3.62.778-1.99 1.17-2.14 1.74-.660.403 1.05-.092 2.68-1.1 3.62-1.01.942-1.79 1.24-1.74.660zm-110-4c-1.69-2.16-1.63-2.19.837-.377 1.47 1.08 2.92 2.13 3.22 2.33.306.208-.0710.377-.837.377s-2.22-1.05-3.22-2.33zm116 1.81c0-.288.931-.881 2.07-1.32 1.19-.455 1.72-.232 1.25.524-.783 1.27-3.32 1.87-3.32.794zm-124-14c-1.66-2.11-1.61-2.16.503-.503 1.28 1.01 2.33 2.06 2.33 2.33 0 1.1-1.09.391-2.84-1.83zm139-6.89c1.58-2.89 3.08-5.05 3.33-4.81.645.645-3.49 8.38-4.97 9.3-.682.422.0551-1.6 1.64-4.49zm-137 .959c-2.58-2.58-1.85-7.33 1.73-11.2 3.91-4.22 4.07-3.76 1.19 3.43-1.18 2.95-1.8 6.26-1.38 7.36.929 2.42.565 2.52-1.55.403zm130-2c0-2.18-.579-5.98-1.29-8.45-1.25-4.36-1.22-4.42 1.26-2.19 3.69 3.34 4.82 9.81 2.17 12.5-1.96 1.96-2.14 1.81-2.14-1.82zm-102-2c2.4-.297 6-.291 8 .0136 2 .304.0428.547-4.36.540-4.4-.008-6.04-.256-3.64-.553zm68 0c2.4-.297 6-.291 8 .0136 2 .304.0428.547-4.36.540-4.4-.008-6.04-.256-3.64-.553zm-77.2-2.03c-3.64-2.94-6.45-8.16-6.45-12 0-2.81-.640-3.7-2.67-3.7-1.53 0-2.67-.889-2.67-2.08 0-1.14.631-1.69 1.4-1.21.771.476 2.84-.688 4.6-2.59 2.06-2.22 4.54-3.42 6.93-3.35 3.93.111 3.4.480-2.6 1.8-3.41.753-3.67 1.28-3.67 7.58 0 7.42 2.81 13.5 7.23 15.7 1.53.740 2.14 1.39 1.36 1.44-.777.0496-2.34-.660-3.47-1.58zm23.9.784c.917-.370 2.42-.370 3.33 0 .917.370.167.673-1.67.673-1.83 0-2.58-.303-1.67-.673zm42.7 0c.917-.370 2.42-.370 3.33 0 .917.370.167.673-1.67.673-1.83 0-2.58-.303-1.67-.673zm27.8-3.65c4.07-4.07 4.53-5.29 4.53-12 0-7.03-.201-7.49-3.67-8.25-5.99-1.32-6.54-1.69-2.67-1.8 2.13-.0613 4.92 1.15 6.67 2.89 1.65 1.65 3.55 3 4.22 3 .672 0 1.47.75 1.78 1.67.326.978-.593 1.67-2.22 1.67-2.15 0-2.78.840-2.78 3.7 0 3.81-2.81 9.02-6.45 12-4.19 3.39-3.81 1.52.583-2.87zm-64.7 2.82c.306-.208 1.76-1.26 3.22-2.33 2.47-1.81 2.53-1.78.837.377-1.01 1.28-2.46 2.33-3.22 2.33-.766 0-1.14-.170-.837-.377zm29.5-1.85c-2.37-.952-5.64-7.66-5.64-11.6 0-3.7-4.39-5.5-10-4.09-2.53.634-3.33 1.71-3.33 4.44 0 1.98-.933 4.77-2.07 6.19-2 2.5-2.03 2.49-.667-.324 3.75-7.76-.132-14.4-9.22-15.9-2.93-.469-5.09-1.24-4.79-1.72.296-.479-3.46-.784-8.36-.677l-8.9.194 7.33-.823c7.03-.789 7.15-.865 2.83-1.82-7.28-1.62-15.4-1.15-18.5 1.06-2.67 1.87-2.87 1.87-2.14-.0493 2.19-5.7 16.6-7.79 28.5-4.13 11.9 3.69 13.7 4.68 12.1 6.63-2.48 2.99 2.09 5.47 10.4 5.63 7.84.153 14.1-2.8 10.5-4.99-2.57-1.59-.0879-3.25 9.51-6.37 14.1-4.57 28.9-3.04 31.3 3.23.735 1.92.536 1.92-2.14.0493-3.16-2.22-11.2-2.68-18.5-1.06-4.31.958-4.19 1.03 2.83 1.82l7.33.823-8.9-.194c-4.89-.107-8.61.273-8.25.844.353.571-.613 1.04-2.15 1.04-1.53 0-4.85.860-7.36 1.91-7.16 2.99-8.05 12.2-1.74 18.1 2.97 2.77 2.98 2.99.0377 1.81zm-88-5.11c.0148-2.93.288-3.98.607-2.32s.307 4.06-.0269 5.33-.595-.0822-.580-3.02zm136 2.56c.064-1.55.380-1.87.806-.806.385.962.338 2.11-.105 2.56-.443.443-.758-.344-0.7-1.75zm-93.1-1.47c3.15-.823 2.96-3.17-.333-4.03-2.97-.776-3.53-4.33-1.07-6.79 1.24-1.24.972-1.6-1.22-1.6-7.64 0-9.4 4.62-3.53 9.24 1.93 1.52 2.8 2.76 1.94 2.76-2.52 0-8.12-6.3-8.12-9.14 0-2.7 5.75-5.53 11.2-5.52 4.91.0131 12.5 2.64 15.7 5.43l3.11 2.71-3.19-1.55c-4.35-2.12-10.8-3.91-10.8-2.99 0 .415 1.57 2.21 3.49 3.99l3.49 3.24-2.77 2.58c-1.52 1.42-4.45 2.51-6.49 2.43-2.25-.0937-2.8-.395-1.39-.764zm59.5-.164c2.26-1.58.604-4.7-1.97-3.72-1.29.494-1.87-.304-1.87-2.58 0-4-1.25-4.14-5.08-.573-1.6 1.5-2.92 2.12-2.92 1.39 0-2.37 5.27-6.33 10.5-7.9 10.1-3.03 18.8-1.09 18.8 4.2 0 4.92-5.55 9.15-12.9 9.85-4.35.416-5.82.199-4.58-.672zm15.9-7.81c.449-3.07-2.61-4.39-10.3-4.42-4.46-.0179-4.5.0312-2.13 2.65 1.33 1.47 3.22 2.67 4.21 2.67 2.18 0 2.23.692.296 4.31l-1.5 2.8 4.5-2.62c2.47-1.44 4.68-3.86 4.9-5.38zm-116 1.34c-.0465-1.59-.501-3.99-1.01-5.33-.866-2.29-.780-2.3 1.33-.210 1.7 1.69 1.95 2.99 1.01 5.33-1.22 3.04-1.24 3.04-1.33.210zm143-2.44c-.422-1.1-.186-2 .524-2s1.29.9 1.29 2-.236 2-.524 2-.869-.9-1.29-2zm-.851-6c-3.1-.994-3.13-1.08-.412-1.2 1.61-.0731 3.29.467 3.75 1.2.453.733.639 1.27.412 1.2-.227-.0731-1.91-.613-3.75-1.2zm-139-2c.962-.385 2.11-.338 2.56.105.443.443-.344.758-1.75 0.7-1.55-.064-1.87-.380-.806-.806z" fill="#c17a55"/>
  <path d="m17.8 261c8.17-20.4 7.81-19.8 15.9-23.4 9.47-4.16 19.3-7.25 26.2-8.25 2.95-.424.371.747-5.76 2.62-6.1 1.86-14.5 5.05-18.7 7.08-6.53 3.18-8.07 4.69-11.2 11-1.99 4.01-4.33 9.54-5.21 12.3-.881 2.75-2.1 5-2.7 5-.607 0 .0398-2.85 1.44-6.33zm61.6-5.14c-.210-19.1-1.48-28.3-3.98-29-1.4-.374-1.1-.628.850-.729 1.65-.0851 3 .595 3 1.51-.002.917.637 7.97 1.42 15.7.937 9.21.984 15.8.138 19.3-1.14 4.72-1.3 3.95-1.42-6.8zm19.2 6.87c5.13-2.43 11.4-5.96 13.8-7.84 2.47-1.88 6.24-3.8 8.36-4.27l3.87-.849-5.4-6.45c-8.69-10.4-15.1-25.5-15.5-36.7-.255-6.55-.0195-8.34.791-6 .635 1.83 1.22 5.73 1.3 8.67.195 6.98 7.84 24.3 14.6 33.1 5.38 6.98 11 19.1 10.8 23.3-.0579 1.26-1.31-1.17-2.78-5.38-1.47-4.22-3.24-7.67-3.94-7.67-2.37 0-2.6 3.47-.556 8.36 3.1 7.41 2.33 7.76-1.38.639-1.81-3.48-3.57-6.33-3.91-6.33-.338 0-3.78 1.98-7.64 4.39-9.23 5.77-13.7 7.63-18.1 7.52-2.85-.0687-1.65-1.02 5.73-4.51zm46.9-1.76c1.02-11.1 3.4-19.4 7.32-25.8 3.43-5.57 7.04-17.4 9.9-32.5.676-3.56 1.18-4.41 1.5-2.55.915 5.25-3.62 22.5-8.56 32.5-2.72 5.53-5.33 11.6-5.81 13.5-.723 2.93-.469 3.39 1.58 2.85 1.34-.351 3.85-.284 5.58.149 4.3 1.08 29.7 18.2 27 18.2-2.65 0-12.7-5.11-20.7-10.6-3.3-2.24-6.41-4.07-6.91-4.07-.498-.003-1.59 3.29-2.43 7.33-.837 4.03-2 7.33-2.59 7.33-.969 0 .387-10.3 1.89-14.3.341-.917-.276-1.67-1.37-1.67-2.34 0-4.59 5.24-4.59 10.7 0 2.11-.525 4.16-1.17 4.56-.642.397-.905-2.12-.585-5.59zm42.5-.765c-1.01-7.01 1.02-35.1 2.65-36.7.314-.314.572.296.572 1.36 0 1.41 3.75 2.56 13.9 4.28 7.65 1.29 18.5 3.89 24.1 5.76 9.99 3.36 10.2 3.53 13.9 10.9 4.37 8.67 8.47 21.5 6.86 21.5-.602 0-1.44-1.73-1.86-3.84-.423-2.11-2.65-8.06-4.95-13.2-3.97-8.88-4.58-9.54-11.7-12.7-7.8-3.49-38.3-9.94-39.8-8.42-.472.472-1.23 9.41-1.69 19.9-.761 17.3-.934 18.3-1.95 11.2zm-121-32c.917-.370 2.42-.370 3.33 0 .917.370.167.673-1.67.673-1.83 0-2.58-.303-1.67-.673zm114-16c-3.82-4.95-8.82-10.7-11.1-12.8-3.68-3.31-3.76-3.5-.608-1.58 3.18 1.94 20.9 23.3 19.3 23.3-.347 0-3.76-4.05-7.57-9zm-93.7 1.43c3.54-3.54 7.82-8.23 9.51-10.4l3.07-4-2.95 4.67c-3.64 5.75-10.4 13.1-13.6 14.9-1.34.728.463-1.57 4-5.11zm9.45-78.7c2.4-.297 6-.291 8 .0136 2 .304.0428.547-4.36.540-4.4-.008-6.04-.256-3.64-.553zm68 0c2.4-.297 6-.291 8 .0136 2 .304.0428.547-4.36.540-4.4-.008-6.04-.256-3.64-.553zm-77.2-2.03c-3.64-2.94-6.45-8.16-6.45-12 0-2.81-.640-3.7-2.67-3.7-1.53 0-2.67-.889-2.67-2.08 0-1.14.631-1.69 1.4-1.21.771.476 2.84-.688 4.6-2.59 2.06-2.22 4.54-3.42 6.93-3.35 3.93.111 3.4.480-2.6 1.8-3.41.753-3.67 1.28-3.67 7.58 0 7.42 2.81 13.5 7.23 15.7 1.53.740 2.14 1.39 1.36 1.44-.777.0496-2.34-.660-3.47-1.58zm23.9.784c.917-.370 2.42-.370 3.33 0 .917.370.167.673-1.67.673-1.83 0-2.58-.303-1.67-.673zm42.7 0c.917-.370 2.42-.370 3.33 0 .917.370.167.673-1.67.673-1.83 0-2.58-.303-1.67-.673zm27.8-3.65c4.07-4.07 4.53-5.29 4.53-12 0-7.03-.201-7.49-3.67-8.25-5.99-1.32-6.54-1.69-2.67-1.8 2.13-.0613 4.92 1.15 6.67 2.89 1.65 1.65 3.55 3 4.22 3 .672 0 1.47.75 1.78 1.67.326.978-.593 1.67-2.22 1.67-2.15 0-2.78.840-2.78 3.7 0 3.81-2.81 9.02-6.45 12-4.19 3.39-3.81 1.52.583-2.87zm-64.7 2.82c.306-.208 1.76-1.26 3.22-2.33 2.47-1.81 2.53-1.78.837.377-1.01 1.28-2.46 2.33-3.22 2.33-.766 0-1.14-.170-.837-.377zm29.5-1.85c-2.37-.952-5.64-7.66-5.64-11.6 0-3.7-4.39-5.5-10-4.09-2.53.634-3.33 1.71-3.33 4.44 0 1.98-.933 4.77-2.07 6.19-2 2.5-2.03 2.49-.667-.324 3.75-7.76-.132-14.4-9.22-15.9-2.93-.469-5.09-1.24-4.79-1.72.296-.479-3.46-.784-8.36-.677l-8.9.194 7.33-.823c7.03-.789 7.15-.865 2.83-1.82-7.28-1.62-15.4-1.15-18.5 1.06-2.67 1.87-2.87 1.87-2.14-.0493 2.19-5.7 16.6-7.79 28.5-4.13 11.9 3.69 13.7 4.68 12.1 6.63-2.48 2.99 2.09 5.47 10.4 5.63 7.84.153 14.1-2.8 10.5-4.99-2.57-1.59-.0879-3.25 9.51-6.37 14.1-4.57 28.9-3.04 31.3 3.23.735 1.92.536 1.92-2.14.0493-3.16-2.22-11.2-2.68-18.5-1.06-4.31.958-4.19 1.03 2.83 1.82l7.33.823-8.9-.194c-4.89-.107-8.61.273-8.25.844.353.571-.613 1.04-2.15 1.04-1.53 0-4.85.860-7.36 1.91-7.16 2.99-8.05 12.2-1.74 18.1 2.97 2.77 2.98 2.99.0377 1.81zm-45.3-4.03c3.15-.823 2.96-3.17-.333-4.03-2.97-.776-3.53-4.33-1.07-6.79 1.24-1.24.972-1.6-1.22-1.6-7.64 0-9.4 4.62-3.53 9.24 1.93 1.52 2.8 2.76 1.94 2.76-2.52 0-8.12-6.3-8.12-9.14 0-2.7 5.75-5.53 11.2-5.52 4.91.0131 12.5 2.64 15.7 5.43l3.11 2.71-3.19-1.55c-4.35-2.12-10.8-3.91-10.8-2.99 0 .415 1.57 2.21 3.49 3.99l3.49 3.24-2.77 2.58c-1.52 1.42-4.45 2.51-6.49 2.43-2.25-.0937-2.8-.395-1.39-.764zm59.5-.164c2.26-1.58.604-4.7-1.97-3.72-1.29.494-1.87-.304-1.87-2.58 0-4-1.25-4.14-5.08-.573-1.6 1.5-2.92 2.12-2.92 1.39 0-2.37 5.27-6.33 10.5-7.9 10.1-3.03 18.8-1.09 18.8 4.2 0 4.92-5.55 9.15-12.9 9.85-4.35.416-5.82.199-4.58-.672zm15.9-7.81c.449-3.07-2.61-4.39-10.3-4.42-4.46-.0179-4.5.0312-2.13 2.65 1.33 1.47 3.22 2.67 4.21 2.67 2.18 0 2.23.692.296 4.31l-1.5 2.8 4.5-2.62c2.47-1.44 4.68-3.86 4.9-5.38z" fill="#626fa0"/>
  <path d="m17.8 261c8.17-20.4 7.81-19.8 15.9-23.4 9.47-4.16 19.3-7.25 26.2-8.25 2.95-.424.371.747-5.76 2.62-6.1 1.86-14.5 5.05-18.7 7.08-6.53 3.18-8.07 4.69-11.2 11-1.99 4.01-4.33 9.54-5.21 12.3-.881 2.75-2.1 5-2.7 5-.607 0 .0398-2.85 1.44-6.33zm61.6-5.14c-.210-19.1-1.48-28.3-3.98-29-1.4-.374-1.1-.628.850-.729 1.65-.0851 3 .595 3 1.51-.002.917.637 7.97 1.42 15.7.937 9.21.984 15.8.138 19.3-1.14 4.72-1.3 3.95-1.42-6.8zm19.2 6.87c5.13-2.43 11.4-5.96 13.8-7.84 2.47-1.88 6.24-3.8 8.36-4.27l3.87-.849-5.4-6.45c-8.69-10.4-15.1-25.5-15.5-36.7-.255-6.55-.0195-8.34.791-6 .635 1.83 1.22 5.73 1.3 8.67.195 6.98 7.84 24.3 14.6 33.1 5.38 6.98 11 19.1 10.8 23.3-.0579 1.26-1.31-1.17-2.78-5.38-1.47-4.22-3.24-7.67-3.94-7.67-2.37 0-2.6 3.47-.556 8.36 3.1 7.41 2.33 7.76-1.38.639-1.81-3.48-3.57-6.33-3.91-6.33-.338 0-3.78 1.98-7.64 4.39-9.23 5.77-13.7 7.63-18.1 7.52-2.85-.0687-1.65-1.02 5.73-4.51zm46.9-1.76c1.02-11.1 3.4-19.4 7.32-25.8 3.43-5.57 7.04-17.4 9.9-32.5.676-3.56 1.18-4.41 1.5-2.55.915 5.25-3.62 22.5-8.56 32.5-2.72 5.53-5.33 11.6-5.81 13.5-.723 2.93-.469 3.39 1.58 2.85 1.34-.351 3.85-.284 5.58.149 4.3 1.08 29.7 18.2 27 18.2-2.65 0-12.7-5.11-20.7-10.6-3.3-2.24-6.41-4.07-6.91-4.07-.498-.003-1.59 3.29-2.43 7.33-.837 4.03-2 7.33-2.59 7.33-.969 0 .387-10.3 1.89-14.3.341-.917-.276-1.67-1.37-1.67-2.34 0-4.59 5.24-4.59 10.7 0 2.11-.525 4.16-1.17 4.56-.642.397-.905-2.12-.585-5.59zm42.5-.765c-1.01-7.01 1.02-35.1 2.65-36.7.314-.314.572.296.572 1.36 0 1.41 3.75 2.56 13.9 4.28 7.65 1.29 18.5 3.89 24.1 5.76 9.99 3.36 10.2 3.53 13.9 10.9 4.37 8.67 8.47 21.5 6.86 21.5-.602 0-1.44-1.73-1.86-3.84-.423-2.11-2.65-8.06-4.95-13.2-3.97-8.88-4.58-9.54-11.7-12.7-7.8-3.49-38.3-9.94-39.8-8.42-.472.472-1.23 9.41-1.69 19.9-.761 17.3-.934 18.3-1.95 11.2zm-121-32c.917-.370 2.42-.370 3.33 0 .917.370.167.673-1.67.673-1.83 0-2.58-.303-1.67-.673zm114-16c-3.82-4.95-8.82-10.7-11.1-12.8-3.68-3.31-3.76-3.5-.608-1.58 3.18 1.94 20.9 23.3 19.3 23.3-.347 0-3.76-4.05-7.57-9zm-93.7 1.43c3.54-3.54 7.82-8.23 9.51-10.4l3.07-4-2.95 4.67c-3.64 5.75-10.4 13.1-13.6 14.9-1.34.728.463-1.57 4-5.11zm9.45-78.7c2.4-.297 6-.291 8 .0136 2 .304.0428.547-4.36.540-4.4-.008-6.04-.256-3.64-.553zm68 0c2.4-.297 6-.291 8 .0136 2 .304.0428.547-4.36.540-4.4-.008-6.04-.256-3.64-.553zm-77.2-2.03c-3.64-2.94-6.45-8.16-6.45-12 0-2.81-.640-3.7-2.67-3.7-1.53 0-2.67-.889-2.67-2.08 0-1.14.631-1.69 1.4-1.21.771.476 2.84-.688 4.6-2.59 2.06-2.22 4.54-3.42 6.93-3.35 3.93.111 3.4.480-2.6 1.8-3.41.753-3.67 1.28-3.67 7.58 0 7.42 2.81 13.5 7.23 15.7 1.53.740 2.14 1.39 1.36 1.44-.777.0496-2.34-.660-3.47-1.58zm23.9.784c.917-.370 2.42-.370 3.33 0 .917.370.167.673-1.67.673-1.83 0-2.58-.303-1.67-.673zm42.7 0c.917-.370 2.42-.370 3.33 0 .917.370.167.673-1.67.673-1.83 0-2.58-.303-1.67-.673zm27.8-3.65c4.07-4.07 4.53-5.29 4.53-12 0-7.03-.201-7.49-3.67-8.25-5.99-1.32-6.54-1.69-2.67-1.8 2.13-.0613 4.92 1.15 6.67 2.89 1.65 1.65 3.55 3 4.22 3 .672 0 1.47.75 1.78 1.67.326.978-.593 1.67-2.22 1.67-2.15 0-2.78.840-2.78 3.7 0 3.81-2.81 9.02-6.45 12-4.19 3.39-3.81 1.52.583-2.87zm-64.7 2.82c.306-.208 1.76-1.26 3.22-2.33 2.47-1.81 2.53-1.78.837.377-1.01 1.28-2.46 2.33-3.22 2.33-.766 0-1.14-.170-.837-.377zm29.5-1.85c-2.37-.952-5.64-7.66-5.64-11.6 0-3.7-4.39-5.5-10-4.09-2.53.634-3.33 1.71-3.33 4.44 0 1.98-.933 4.77-2.07 6.19-2 2.5-2.03 2.49-.667-.324 3.75-7.76-.132-14.4-9.22-15.9-2.93-.469-5.09-1.24-4.79-1.72.296-.479-3.46-.784-8.36-.677l-8.9.194 7.33-.823c7.03-.789 7.15-.865 2.83-1.82-7.28-1.62-15.4-1.15-18.5 1.06-2.67 1.87-2.87 1.87-2.14-.0493 2.19-5.7 16.6-7.79 28.5-4.13 11.9 3.69 13.7 4.68 12.1 6.63-2.48 2.99 2.09 5.47 10.4 5.63 7.84.153 14.1-2.8 10.5-4.99-2.57-1.59-.0879-3.25 9.51-6.37 14.1-4.57 28.9-3.04 31.3 3.23.735 1.92.536 1.92-2.14.0493-3.16-2.22-11.2-2.68-18.5-1.06-4.31.958-4.19 1.03 2.83 1.82l7.33.823-8.9-.194c-4.89-.107-8.61.273-8.25.844.353.571-.613 1.04-2.15 1.04-1.53 0-4.85.860-7.36 1.91-7.16 2.99-8.05 12.2-1.74 18.1 2.97 2.77 2.98 2.99.0377 1.81zm-45.3-4.03c1.28-.335 3.38-.335 4.67 0 1.28.335.233.610-2.33.610-2.57 0-3.62-.274-2.33-.610zm63.2-.210c6.94-1.27 12.5-4.86 12.5-8.08 0-6.03-18.2-5.12-25.1 1.25-1.61 1.5-2.93 2.13-2.93 1.39 0-2.37 5.27-6.33 10.5-7.9 10.1-3.03 18.8-1.09 18.8 4.2 0 5.01-5.55 9.17-12.9 9.69l-6.42.450zm-72.2-3.48c-4.57-4.57-4.24-8.13.926-9.93 7.43-2.59 17.1-.903 22.7 3.97l3.11 2.7-4.31-2.09c-5.34-2.59-15-4-19.6-2.85-4.51 1.13-4.47 5.13.0853 8.71 1.93 1.52 2.8 2.76 1.94 2.76-.866 0-3.05-1.47-4.85-3.27zm11.5-1.22c-1.19-1.43-1.21-2.18-.094-2.87 2.17-1.34 4.87 1.64 3.09 3.42-.964.964-1.88.796-3-.548zm57.2-1.51c0-1.11 1.19-2 2.67-2s2.67.889 2.67 2-1.19 2-2.67 2-2.67-.889-2.67-2z" fill="#8e6c69"/>
  <path d="m151 265c0-1.83.303-2.58.673-1.67.370.917.370 2.42 0 3.33-.370.917-.673.167-.673-1.67zm37.5-5.33c0-4.77.242-6.72.538-4.33.296 2.38.296 6.28 0 8.67-.296 2.38-.538.433-.538-4.33zm-42.8-.667c.003-2.2.462-5.8 1.02-8 1.41-5.54 1.47-.0875.0765 6.67-.928 4.48-1.1 4.7-1.1 1.33zm6.46-1.44c.064-1.55.380-1.87.806-.806.385.962.338 2.11-.105 2.56-.443.443-.758-.344-0.7-1.75zm.746-6.56c-.422-1.1-.186-2 .524-2s1.29.9 1.29 2-.236 2-.524 2-.869-.9-1.29-2zm-127-6c.308-1.04 2.03-2.8 3.82-3.92 2.53-1.58 2.81-1.6 1.26-.114-1.1 1.05-2.82 2.82-3.82 3.92-1.47 1.61-1.71 1.63-1.26.114zm164-5c.0272-2.2.326-2.94.664-1.64s.316 3.1-.0495 4c-.365.903-.642-.159-.615-2.36zm47.1-.757c-2.2-1.41-3.32-2.57-2.48-2.57.835-.004 2.94 1.17 4.67 2.62 3.96 3.3 3.01 3.28-2.19-.0461zm-199-2c2.57-1.34 6.17-2.82 8-3.3 1.83-.471.106.652-3.84 2.5-8.27 3.87-11.1 4.4-4.16.798zm173-7c.962-.385 2.11-.338 2.56.105.443.443-.344.758-1.75 0.7-1.55-.064-1.87-.380-.806-.806zm-6.67-1.33c.962-.385 2.11-.338 2.56.105.443.443-.344.758-1.75 0.7-1.55-.064-1.87-.380-.806-.806zm-90.7-96c.962-.385 2.11-.338 2.56.105.443.443-.344.758-1.75 0.7-1.55-.064-1.87-.380-.806-.806zm41.3 0c.962-.385 2.11-.338 2.56.105.443.443-.344.758-1.75 0.7-1.55-.064-1.87-.380-.806-.806zm22.9.387c0-.288.931-.881 2.07-1.32 1.19-.455 1.72-.232 1.25.524-.783 1.27-3.32 1.87-3.32.794zm-4-9.31c0-.277 1.05-1.33 2.33-2.33 2.11-1.66 2.16-1.61.503.503-1.74 2.22-2.84 2.93-2.84 1.83zm-91.3-3c.0640-1.55.380-1.87.806-.806.385.962.338 2.11-.105 2.56-.443.443-.758-.344-0.7-1.75zm22.7.286c-1.19-1.43-1.21-2.18-.094-2.87 2.17-1.34 4.87 1.64 3.09 3.42-.964.964-1.88.796-3-.548zm82.6-.286c.064-1.55.380-1.87.806-.806.385.962.338 2.11-.105 2.56-.443.443-.758-.344-0.7-1.75zm-96.2-1.97c-1.94-3.62.0834-6.07 5.76-6.97 4.87-.769 16.5 1.32 17.7 3.16.421.682-.790.634-2.74-.108-4.57-1.74-14.8-1.7-18.1.06-2.09 1.12-2.32 1.9-1.2 4 .768 1.44 1.1 2.61.731 2.61-.367 0-1.33-1.24-2.14-2.75zm70.7.752c0-1.11 1.19-2 2.67-2s2.67.889 2.67 2-1.19 2-2.67 2-2.67-.889-2.67-2zm-9.33-2.56c4.2-4.26 14.9-6.55 21.8-4.65 2.65.732 4.82 1.92 4.82 2.65 0 .846-.923.824-2.58-.0627-4.79-2.56-15-1.59-21.4 2.05l-6 3.4zm-10.5.337c-.0851-1.22-.735-2.42-1.44-2.67-.709-.244.234-1.16 2.1-2.03 2.62-1.23 3.1-1.23 2.1 0-.708.873-1.58 2.79-1.94 4.25-.483 1.96-.696 2.08-.810.444zm-15.8-3.41c-1.17-2.49-1.16-2.94.0627-1.98.873.688 2.28 1.48 3.12 1.76 1.14.380 1.12.890-.0627 1.98-1.19 1.09-1.98.646-3.12-1.76zm-49.7.964c0-.733 1.2-1.33 2.67-1.33s2.67.6 2.67 1.33c0 .733-1.2 1.33-2.67 1.33s-2.67-.6-2.67-1.33zm112 0c0-.733 1.2-1.33 2.67-1.33s2.67.6 2.67 1.33c0 .733-1.2 1.33-2.67 1.33s-2.67-.6-2.67-1.33zm-104-6c1.42-1.14 3.52-2.03 4.67-1.97 1.8.0909 1.81.206.0785.847-1.1.408-3.2 1.29-4.67 1.97-2.62 1.21-2.63 1.19-.0785-.847zm36.7.593c-1.1-.711-3.39-1.3-5.08-1.31-1.69-.0112-2.75-.552-2.35-1.2.401-.649-.913-1.54-2.92-1.99-15.1-3.35-16.5-3.45-21.1-1.55-2.52 1.05-4.58 1.36-4.58.683 0-2.39 7.95-5.3 14.5-5.3 11.1 0 30.3 7.1 24.4 9.04-.868.289-1.24 1.07-.824 1.75.953 1.54.449 1.51-2.07-.114zm27.2.247c.460-.744.126-1.59-.742-1.88-5.83-1.94 13.4-9.04 24.5-9.04 3.86 0 8.26.949 10.5 2.26 5.69 3.36 5.8 5.73.127 2.84-3.14-1.6-6.31-2.22-8.88-1.73-11.7 2.22-16.6 3.69-15.9 4.77.408.661-.533 1.2-2.09 1.2s-4.07.660-5.57 1.47c-1.67.895-2.41.939-1.9.114z" fill="#665b5a"/>
  <path d="m152 117c1.27-1.32 2.59-2.12 2.94-1.77.351.351-.685 1.43-2.3 2.4-2.81 1.69-2.84 1.66-.638-.638zm-76.3-1.98c0-.688 1.2-1.25 2.67-1.25s2.67.472 2.67 1.05c0 .577-1.2 1.14-2.67 1.25s-2.67-.362-2.67-1.05zm113 .0829c-1.62-1.05-1.43-1.3 1-1.31 1.65-.0112 3 .580 3 1.31 0 1.67-1.41 1.67-4 0zm-78.7-9.36c-8.35-3.36-17.3-4.43-22-2.65-3.83 1.44-3.88 1.4-1.58-.917 1.9-1.92 4.34-2.37 12-2.23 9.94.188 23.7 4.05 24.6 6.92.765 2.3-5.98 1.71-13-1.12zm34.9 1.29c1.84-5.53 31.9-9.71 36.5-5.08 2.03 2.02 1.79 2.08-3.27.728-4.64-1.24-6.91-.998-15.1 1.6-13 4.11-18.8 5-18.1 2.76z" fill="#2a2229"/>
 </g>
</svg>
