<!DOCTYPE svg PUBLIC "-//W3C//DTD SVG 20010904//EN" "http://www.w3.org/TR/2001/REC-SVG-20010904/DTD/svg10.dtd">
<svg version="1.0" xmlns="http://www.w3.org/2000/svg" width="200px" height="200px" viewBox="0 0 2000 2000" preserveAspectRatio="xMidYMid meet">
<g id="layer101" fill="#fdfdfd" stroke="none">
 <path d="M120 1983 c0 -32 24 -123 33 -123 4 0 5 -4 2 -10 -3 -5 -1 -10 4 -10 6 0 10 -3 9 -7 -5 -16 29 -49 72 -70 25 -12 80 -29 123 -38 43 -9 115 -29 160 -45 193 -68 193 -68 222 -136 l16 -38 -38 -34 c-22 -19 -29 -29 -15 -22 18 9 22 8 22 -5 0 -10 9 -15 27 -15 23 0 25 -2 11 -12 -11 -9 -21 -47 -32 -118 -20 -144 -35 -176 -91 -200 -25 -11 -57 -31 -72 -45 -16 -14 -30 -25 -34 -25 -3 0 -15 -17 -27 -39 -19 -33 -22 -54 -22 -140 0 -84 4 -109 21 -144 21 -41 91 -136 133 -181 27 -30 138 -86 170 -86 13 0 26 -6 29 -12 6 -21 254 -18 298 4 19 9 59 28 89 41 100 43 158 102 198 199 24 57 32 92 32 137 0 33 -4 63 -10 66 -5 3 -10 13 -10 22 0 21 -59 114 -84 132 -11 8 -42 35 -69 61 l-49 46 -10 124 c-5 69 -14 130 -20 137 -6 8 -36 13 -72 14 -67 1 -57 6 57 29 45 9 57 15 57 30 0 11 -6 25 -14 32 -12 11 -11 18 4 48 23 45 46 65 95 83 147 55 199 71 290 92 131 29 175 57 209 129 16 34 26 72 26 100 l0 46 -870 0 c-816 0 -870 -1 -870 -17z"/>
 </g>
<g id="layer102" fill="#dcd7dc" stroke="none">
 <path d="M120 1983 c0 -32 24 -123 33 -123 4 0 5 -4 2 -10 -3 -5 -1 -10 4 -10 6 0 10 -3 9 -7 -5 -16 29 -49 72 -70 25 -12 80 -29 123 -38 69 -15 145 -38 287 -90 50 -18 75 -40 92 -82 9 -23 12 -25 15 -10 3 10 -1 24 -7 32 -8 10 -8 24 -1 52 6 21 11 53 11 70 0 18 14 76 31 129 l30 96 28 -44 c16 -24 48 -63 73 -87 l44 -45 -65 -34 c-97 -50 -116 -72 -129 -145 -10 -52 -18 -67 -49 -95 -23 -19 -29 -29 -15 -22 18 9 22 8 22 -5 0 -10 9 -15 27 -15 23 0 25 -2 11 -12 -11 -9 -21 -47 -32 -118 -20 -144 -35 -176 -91 -200 -25 -11 -57 -31 -72 -45 -16 -14 -30 -25 -34 -25 -3 0 -15 -17 -27 -39 -19 -33 -22 -54 -22 -140 0 -84 4 -109 21 -144 21 -41 91 -136 133 -181 27 -30 138 -86 170 -86 13 0 26 -6 29 -12 6 -21 254 -18 298 4 19 9 59 28 89 41 100 43 158 102 198 199 24 57 32 92 32 137 0 33 -4 62 -9 65 -5 3 -12 17 -15 32 -9 33 -55 105 -80 123 -11 8 -42 35 -69 61 l-49 46 -10 124 c-6 69 -15 131 -20 138 -6 7 -36 12 -72 13 -67 1 -57 6 57 29 45 9 57 15 57 30 0 10 -6 25 -12 32 -13 14 -14 16 -16 72 -3 49 -43 91 -130 135 l-74 37 40 35 c23 20 57 61 76 93 l35 58 11 -44 c6 -23 18 -65 26 -93 14 -49 36 -165 36 -195 0 -8 -3 -26 -7 -40 -6 -23 -5 -22 12 5 32 50 26 46 202 110 41 15 120 37 176 50 131 29 175 57 209 129 16 34 26 72 26 100 l0 46 -353 0 -354 0 5 -30 c3 -18 0 -30 -7 -30 -6 0 -11 -5 -11 -10 0 -6 -13 -30 -28 -55 l-28 -45 -23 24 c-24 25 -24 40 -4 124 5 21 3 22 -66 22 -71 0 -71 0 -71 -27 1 -16 7 -45 14 -65 13 -36 12 -38 -11 -53 -14 -9 -26 -15 -27 -13 -21 26 -67 131 -63 143 6 13 -34 15 -353 15 -334 0 -360 -1 -360 -17z m920 -548 c0 -21 -5 -25 -29 -25 -39 0 -61 9 -61 25 0 17 16 23 58 24 28 1 32 -2 32 -24z m-195 -117 c-1 -105 20 -107 30 -3 l7 75 34 0 34 0 0 -65 c0 -36 4 -65 9 -65 9 0 21 57 21 104 0 24 3 28 23 22 12 -3 30 -6 40 -6 15 0 17 -8 15 -56 -2 -39 1 -58 10 -61 9 -3 12 12 12 56 0 59 1 61 26 61 l27 0 -7 -75 c-6 -64 -5 -75 9 -75 12 0 15 14 15 76 0 66 2 75 18 72 14 -3 18 -19 23 -103 7 -130 22 -161 103 -227 131 -105 164 -239 95 -388 -43 -93 -113 -150 -238 -193 -126 -44 -193 -45 -314 -8 -115 34 -162 64 -225 141 -104 127 -134 261 -82 365 24 47 45 65 152 130 53 32 73 88 94 258 5 47 6 48 37 45 l32 -3 0 -77z"/>
 <path d="M915 1049 c-13 -21 14 -89 36 -89 5 0 15 12 22 26 l14 27 7 -26 c6 -26 37 -44 56 -32 13 8 13 46 0 79 -11 30 -44 35 -58 9 -9 -16 -11 -16 -27 0 -19 19 -41 22 -50 6z"/>
 <path d="M752 903 c-19 -7 -42 -58 -42 -92 0 -41 28 -109 50 -121 19 -10 72 -4 103 12 38 19 60 115 37 159 -21 37 -102 61 -148 42z"/>
 <path d="M1082 885 c-55 -46 -49 -118 15 -178 27 -25 32 -26 62 -16 60 21 99 116 71 170 -13 24 -61 49 -94 49 -13 0 -38 -11 -54 -25z"/>
 <path d="M570 815 c0 -3 7 -32 17 -65 17 -63 39 -84 28 -27 -11 56 -26 97 -36 97 -5 0 -9 -2 -9 -5z"/>
 <path d="M1348 703 c-21 -24 -31 -59 -23 -83 10 -30 28 -25 21 6 -5 17 -1 35 9 51 20 30 15 51 -7 26z"/>
 </g>
<g id="layer103" fill="#d2cfd1" stroke="none">
 <path d="M120 1983 c0 -32 24 -123 33 -123 4 0 5 -4 2 -10 -3 -5 -1 -10 4 -10 6 0 10 -3 9 -7 -5 -16 29 -49 72 -70 25 -12 80 -29 123 -38 69 -15 138 -36 287 -90 25 -9 55 -27 66 -41 l22 -25 12 88 c7 48 27 136 46 194 19 58 34 116 34 127 l0 22 -355 0 c-329 0 -355 -1 -355 -17z"/>
 <path d="M920 1976 c0 -13 7 -42 14 -64 15 -41 15 -41 -15 -63 l-31 -22 41 -41 42 -42 -62 -35 c-101 -57 -116 -73 -129 -137 -9 -47 -19 -64 -53 -95 -23 -21 -32 -33 -19 -27 18 9 22 8 22 -5 0 -10 9 -15 27 -15 23 0 25 -2 11 -12 -11 -9 -21 -47 -32 -118 -20 -144 -35 -176 -91 -200 -25 -11 -57 -31 -72 -45 -16 -14 -30 -25 -34 -25 -3 0 -15 -17 -27 -39 -19 -33 -22 -54 -22 -140 0 -84 4 -109 21 -144 21 -41 91 -136 133 -181 27 -30 138 -86 170 -86 13 0 26 -6 29 -12 6 -21 254 -18 298 4 19 9 59 28 89 41 100 43 158 102 198 199 24 57 32 92 32 137 0 33 -4 62 -9 65 -5 3 -12 17 -15 32 -9 33 -55 105 -80 123 -11 8 -42 35 -69 61 l-49 46 -10 124 c-6 69 -15 131 -20 138 -6 7 -36 12 -72 13 -67 1 -57 6 57 29 61 12 74 32 42 64 -8 8 -15 29 -15 46 0 60 -45 115 -120 146 -19 8 -46 22 -59 30 l-23 16 37 38 38 39 -31 28 -31 28 13 63 14 62 -69 0 c-66 0 -69 -1 -69 -24z m120 -539 c0 -32 -4 -35 -48 -28 -28 5 -38 11 -40 29 -3 20 1 22 42 22 42 0 46 -2 46 -23z m-190 -117 c0 -47 4 -80 10 -80 6 0 10 24 10 53 0 83 7 97 46 97 l34 0 0 -66 c0 -41 4 -63 10 -59 6 3 10 30 10 60 0 30 5 57 11 60 6 4 26 4 45 1 l34 -7 0 -59 c0 -33 4 -60 10 -60 6 0 10 27 10 60 0 58 1 60 26 60 26 0 26 0 23 -72 -3 -51 0 -72 9 -75 9 -4 12 15 12 71 0 69 2 76 20 76 14 0 20 -7 20 -22 3 -116 10 -189 23 -218 9 -20 44 -59 82 -90 129 -107 164 -245 98 -390 -47 -104 -147 -175 -303 -216 -94 -25 -163 -20 -277 18 -93 31 -102 37 -170 105 -99 99 -137 179 -138 282 0 116 43 179 159 236 54 26 92 99 101 193 11 120 12 122 51 122 l34 0 0 -80z"/>
 <path d="M921 1046 c-15 -18 12 -90 31 -84 17 6 22 66 7 84 -15 18 -23 18 -38 0z"/>
 <path d="M997 1053 c-13 -13 -7 -72 9 -88 38 -38 68 7 44 66 -12 27 -38 38 -53 22z"/>
 <path d="M743 886 c-23 -20 -28 -32 -28 -73 0 -56 20 -110 46 -124 26 -13 93 5 119 33 26 28 37 102 19 135 -15 28 -64 53 -103 53 -14 0 -38 -11 -53 -24z"/>
 <path d="M1104 900 c-70 -28 -71 -133 -2 -197 35 -32 83 -13 117 48 23 43 24 49 12 88 -10 34 -20 46 -46 57 -39 16 -51 16 -81 4z"/>
 <path d="M573 805 c22 -80 31 -105 38 -105 10 0 -19 101 -33 115 -7 7 -8 4 -5 -10z"/>
 <path d="M1342 698 c-15 -20 -23 -54 -16 -72 10 -25 22 -19 16 9 -2 14 3 36 12 50 17 25 7 36 -12 13z"/>
 <path d="M1160 1981 c0 -10 14 -64 30 -121 37 -122 62 -262 53 -287 -4 -10 5 -4 20 13 15 17 46 38 69 47 24 8 76 27 117 42 41 15 120 37 176 50 131 29 175 57 209 129 16 34 26 72 26 100 l0 46 -350 0 c-335 0 -350 -1 -350 -19z"/>
 </g>
<g id="layer104" fill="#d2c0c1" stroke="none">
 <path d="M120 1983 c0 -32 24 -123 33 -123 4 0 5 -4 2 -10 -3 -5 -1 -10 4 -10 6 0 10 -3 9 -7 -5 -16 29 -49 72 -70 25 -12 80 -29 123 -38 69 -15 138 -36 287 -90 25 -9 55 -28 68 -42 12 -14 22 -21 22 -15 0 47 26 183 50 257 15 50 31 107 35 128 l7 37 -356 0 c-330 0 -356 -1 -356 -17z"/>
 <path d="M920 1982 c0 -11 6 -40 14 -65 14 -46 13 -48 -10 -66 -13 -10 -24 -23 -24 -27 0 -4 16 -24 35 -44 41 -42 42 -40 -54 -91 -73 -39 -86 -55 -101 -124 -8 -39 -20 -58 -53 -88 -23 -21 -32 -33 -19 -27 18 9 22 8 22 -5 0 -10 9 -15 27 -15 23 0 25 -2 11 -12 -11 -9 -21 -47 -32 -118 -20 -144 -35 -176 -91 -200 -25 -11 -57 -31 -72 -45 -16 -14 -30 -25 -34 -25 -3 0 -15 -17 -27 -39 -19 -33 -22 -54 -22 -140 0 -84 4 -109 21 -144 21 -41 91 -136 133 -181 27 -30 138 -86 170 -86 13 0 26 -6 29 -12 6 -21 254 -18 298 4 19 9 59 28 89 41 100 43 158 102 198 199 24 57 32 92 32 137 0 33 -4 62 -9 65 -5 3 -12 17 -15 32 -9 33 -55 105 -80 123 -11 8 -42 35 -69 61 l-49 46 -10 124 c-6 69 -15 131 -20 138 -6 7 -36 12 -72 13 -67 1 -57 6 57 29 60 12 74 32 44 62 -8 7 -16 33 -20 57 -8 62 -33 90 -120 136 -43 22 -76 45 -75 50 1 6 15 21 30 33 35 29 35 47 3 75 -22 20 -24 26 -15 62 20 82 18 85 -55 85 -56 0 -65 -2 -65 -18z m122 -553 c-4 -29 -6 -30 -41 -25 -20 3 -39 5 -42 6 -9 0 -18 38 -11 44 3 3 26 6 52 6 46 0 47 0 42 -31z m-191 -113 c-2 -55 0 -76 8 -72 6 4 11 31 11 61 0 74 6 85 46 85 l34 0 0 -60 c0 -33 4 -60 10 -60 6 0 10 27 10 61 l0 60 43 -3 42 -3 3 -62 c4 -80 22 -82 22 -3 0 57 1 60 25 60 24 0 25 -2 25 -76 0 -47 4 -73 10 -69 6 3 10 37 10 76 0 62 2 69 20 69 11 0 20 -6 21 -12 1 -7 2 -51 4 -98 3 -117 21 -154 104 -223 93 -78 126 -143 125 -247 0 -107 -37 -185 -117 -251 -130 -108 -320 -150 -457 -101 -30 11 -67 23 -81 26 -39 9 -121 74 -169 134 -150 190 -128 385 53 472 44 21 56 33 79 80 18 38 29 79 33 130 9 109 10 112 53 108 l37 -3 -4 -79z"/>
 <path d="M927 1053 c-13 -12 -7 -62 9 -77 21 -22 34 -11 34 28 0 41 -24 68 -43 49z"/>
 <path d="M997 1053 c-4 -3 -7 -21 -7 -39 0 -25 7 -38 25 -50 33 -22 49 -9 42 33 -9 51 -38 79 -60 56z"/>
 <path d="M747 890 c-33 -26 -42 -71 -27 -125 18 -64 45 -86 94 -75 53 12 83 43 91 95 8 56 -13 99 -56 114 -46 16 -73 14 -102 -9z"/>
 <path d="M1098 894 c-34 -18 -48 -43 -48 -84 0 -58 47 -120 91 -120 33 0 84 54 94 99 9 44 -18 94 -58 109 -41 15 -46 15 -79 -4z"/>
 <path d="M586 770 c6 -36 11 -46 18 -39 2 2 -3 20 -10 39 l-14 35 6 -35z"/>
 <path d="M1336 680 c-7 -18 -11 -41 -9 -51 8 -28 21 -23 16 5 -3 13 0 34 7 46 6 12 9 24 6 27 -3 3 -12 -9 -20 -27z"/>
 <path d="M1160 1983 c0 -10 12 -56 26 -103 34 -113 41 -142 55 -228 l11 -74 22 20 c11 12 39 27 61 35 149 56 199 71 290 92 131 29 175 57 209 129 16 34 26 72 26 100 l0 46 -350 0 c-327 0 -350 -1 -350 -17z"/>
 </g>
<g id="layer105" fill="#eda287" stroke="none">
 <path d="M120 1983 c0 -32 24 -123 33 -123 4 0 5 -4 2 -10 -3 -5 -1 -10 4 -10 6 0 10 -3 9 -7 -5 -16 29 -49 72 -70 25 -12 80 -29 123 -38 69 -15 131 -34 287 -90 25 -9 51 -23 58 -32 19 -27 32 -4 43 78 6 41 23 115 39 164 16 50 31 105 35 123 l7 32 -356 0 c-330 0 -356 -1 -356 -17z"/>
 <path d="M920 1978 c1 -13 7 -41 15 -63 15 -39 14 -41 -10 -62 -29 -26 -24 -47 20 -81 14 -11 25 -24 25 -30 0 -5 -30 -26 -68 -45 -87 -46 -107 -69 -122 -139 -6 -32 -15 -58 -19 -58 -4 0 -22 -14 -41 -30 -23 -20 -27 -27 -12 -20 18 9 22 8 22 -5 0 -10 9 -15 27 -15 23 0 25 -2 11 -12 -11 -9 -21 -47 -32 -118 -20 -144 -35 -176 -91 -200 -25 -11 -57 -31 -72 -45 -16 -14 -30 -25 -34 -25 -3 0 -15 -17 -27 -39 -19 -33 -22 -54 -22 -140 0 -84 4 -109 21 -144 21 -41 91 -136 133 -181 27 -30 138 -86 170 -86 13 0 26 -6 29 -12 6 -21 254 -18 298 4 19 9 59 28 89 41 100 43 158 102 198 199 24 57 32 92 32 137 0 33 -4 62 -9 65 -5 3 -12 17 -15 32 -9 33 -55 105 -80 123 -11 8 -42 35 -69 61 l-49 46 -10 124 c-6 69 -15 131 -20 138 -6 7 -36 12 -72 13 -67 1 -57 6 57 29 61 12 74 32 42 64 -8 8 -15 24 -15 35 0 61 -41 111 -125 153 -91 46 -91 47 -50 80 42 35 43 44 11 77 -22 23 -24 31 -16 71 16 82 18 80 -55 80 -61 0 -65 -1 -65 -22z m122 -549 c-4 -30 -6 -31 -44 -26 -45 6 -43 5 -52 35 -7 21 -5 22 47 22 l54 0 -5 -31z m-190 -114 c-3 -55 0 -77 7 -70 5 6 11 39 13 75 l3 65 41 3 40 3 -4 -61 c-3 -40 -1 -60 7 -60 7 0 11 23 11 61 l0 60 43 -3 42 -3 3 -63 c4 -76 22 -74 22 4 0 51 1 54 25 54 24 0 25 -2 25 -76 0 -47 4 -73 10 -69 6 3 10 37 10 76 0 62 2 69 20 69 24 0 22 8 25 -105 3 -123 19 -158 105 -228 94 -78 125 -140 125 -252 0 -73 -3 -86 -38 -150 -30 -57 -49 -79 -104 -118 -124 -89 -309 -125 -423 -82 -25 9 -60 20 -77 25 -125 31 -269 216 -281 357 -9 113 42 201 145 250 76 36 108 97 118 222 9 99 11 103 53 99 l37 -3 -3 -80z"/>
 <path d="M923 1044 c-9 -23 10 -69 27 -69 19 0 26 51 9 71 -15 18 -28 18 -36 -2z"/>
 <path d="M1003 1053 c-7 -2 -13 -20 -13 -39 0 -25 6 -38 26 -50 22 -15 27 -15 35 -3 11 16 4 66 -12 86 -12 14 -16 15 -36 6z"/>
 <path d="M753 895 c-49 -35 -49 -135 0 -190 20 -22 26 -24 60 -16 49 12 74 35 87 80 15 54 13 68 -17 101 -34 38 -96 50 -130 25z"/>
 <path d="M1100 892 c-60 -29 -66 -109 -14 -171 45 -54 96 -37 138 47 41 80 -43 165 -124 124z"/>
 <path d="M1336 679 c-7 -18 -11 -41 -8 -53 5 -17 7 -15 13 14 3 19 10 43 14 53 4 9 4 17 1 17 -4 0 -13 -14 -20 -31z"/>
 <path d="M1160 1986 c0 -7 14 -60 31 -117 26 -86 59 -245 59 -283 0 -5 10 0 23 12 12 11 40 27 62 35 149 56 199 71 290 92 131 29 175 57 209 129 16 34 26 72 26 100 l0 46 -350 0 c-290 0 -350 -2 -350 -14z"/>
 </g>
<g id="layer106" fill="#e0b1a5" stroke="none">
 <path d="M120 1983 c0 -32 24 -123 33 -123 4 0 5 -4 2 -10 -3 -5 -1 -10 4 -10 6 0 10 -3 9 -7 -5 -16 29 -49 72 -70 25 -12 80 -29 123 -38 69 -15 131 -34 287 -90 25 -9 51 -23 58 -32 19 -27 32 -4 43 78 6 41 23 115 39 164 16 50 31 105 35 123 l7 32 -356 0 c-330 0 -356 -1 -356 -17z"/>
 <path d="M920 1978 c1 -13 7 -41 15 -63 15 -39 14 -41 -10 -62 -30 -26 -25 -42 22 -84 28 -25 75 -45 70 -30 -1 4 13 20 31 35 38 33 39 42 8 75 -22 23 -24 31 -16 71 16 82 18 80 -55 80 -61 0 -65 -1 -65 -22z"/>
 <path d="M1160 1986 c0 -7 14 -60 31 -117 26 -86 59 -245 59 -283 0 -5 10 0 23 12 12 11 40 27 62 35 149 56 199 71 290 92 131 29 175 57 209 129 16 34 26 72 26 100 l0 46 -350 0 c-290 0 -350 -2 -350 -14z"/>
 <path d="M855 1620 c-38 -15 -51 -17 -58 -7 -6 8 -7 7 -3 -5 3 -10 1 -20 -3 -22 -5 -3 -11 -24 -15 -46 -3 -22 -10 -40 -14 -40 -4 0 -23 -14 -42 -30 -23 -20 -27 -27 -12 -20 18 9 22 8 22 -5 0 -10 9 -15 27 -15 23 0 25 -2 11 -12 -11 -9 -21 -47 -32 -118 -20 -144 -35 -176 -91 -200 -25 -11 -57 -31 -72 -45 -16 -14 -30 -25 -34 -25 -3 0 -15 -17 -27 -39 -19 -33 -22 -54 -22 -140 0 -84 4 -109 21 -144 21 -41 91 -136 133 -181 27 -30 138 -86 170 -86 13 0 26 -6 29 -12 6 -21 254 -18 298 4 19 9 59 28 89 41 100 43 158 102 198 199 24 57 32 92 32 137 0 33 -4 62 -9 65 -5 3 -12 17 -15 32 -9 33 -55 105 -80 123 -11 8 -42 35 -69 61 l-49 46 -10 124 c-6 69 -15 131 -20 138 -6 7 -36 12 -72 13 -67 1 -57 6 57 29 61 12 74 32 42 64 -8 8 -15 26 -15 40 0 14 -5 28 -10 31 -6 4 -8 11 -4 16 3 5 2 8 -3 7 -4 -1 -34 8 -66 20 -77 29 -209 30 -282 2z m226 -82 l52 -12 -84 -13 c-46 -7 -122 -14 -169 -17 -81 -4 -83 -3 -55 12 72 38 171 50 256 30z m-39 -109 c-4 -30 -6 -31 -44 -26 -45 6 -43 5 -52 35 -7 21 -5 22 47 22 l54 0 -5 -31z m-190 -114 c-3 -55 0 -77 7 -70 5 6 11 39 13 75 l3 65 41 3 40 3 -4 -61 c-3 -40 -1 -60 7 -60 7 0 11 23 11 61 l0 60 43 -3 42 -3 3 -63 c4 -76 22 -74 22 4 0 51 1 54 25 54 24 0 25 -2 25 -76 0 -47 4 -73 10 -69 6 3 10 37 10 76 0 62 2 69 20 69 24 0 22 8 25 -105 3 -123 19 -158 105 -228 94 -78 125 -140 125 -252 0 -73 -3 -86 -38 -150 -30 -57 -49 -79 -104 -118 -124 -89 -309 -125 -423 -82 -25 9 -60 20 -77 25 -125 31 -269 216 -281 357 -9 113 42 201 145 250 76 36 108 97 118 222 9 99 11 103 53 99 l37 -3 -3 -80z"/>
 <path d="M923 1044 c-9 -23 10 -69 27 -69 19 0 26 51 9 71 -15 18 -28 18 -36 -2z"/>
 <path d="M1003 1053 c-7 -2 -13 -20 -13 -39 0 -25 6 -38 26 -50 22 -15 27 -15 35 -3 11 16 4 66 -12 86 -12 14 -16 15 -36 6z"/>
 <path d="M753 895 c-49 -35 -49 -135 0 -190 20 -22 26 -24 60 -16 49 12 74 35 87 80 15 54 13 68 -17 101 -34 38 -96 50 -130 25z"/>
 <path d="M1100 892 c-60 -29 -66 -109 -14 -171 45 -54 96 -37 138 47 41 80 -43 165 -124 124z"/>
 <path d="M1336 679 c-7 -18 -11 -41 -8 -53 5 -17 7 -15 13 14 3 19 10 43 14 53 4 9 4 17 1 17 -4 0 -13 -14 -20 -31z"/>
 </g>
<g id="layer107" fill="#b1b0b0" stroke="none">
 <path d="M120 1983 c0 -32 24 -123 33 -123 4 0 5 -4 2 -10 -3 -5 -1 -10 4 -10 6 0 10 -3 9 -7 -5 -16 29 -49 72 -70 25 -12 80 -29 123 -38 69 -15 131 -34 287 -90 25 -9 51 -23 58 -32 19 -27 32 -4 43 78 6 41 23 115 39 164 16 50 31 105 35 123 l7 32 -356 0 c-330 0 -356 -1 -356 -17z"/>
 <path d="M920 1978 c1 -13 7 -41 15 -63 15 -39 14 -41 -10 -62 -30 -26 -25 -42 24 -85 39 -35 48 -35 94 3 44 36 45 44 13 78 -22 23 -24 31 -16 71 16 82 18 80 -55 80 -61 0 -65 -1 -65 -22z"/>
 <path d="M1160 1986 c0 -7 14 -60 31 -117 26 -86 59 -245 59 -283 0 -5 10 0 23 12 12 11 40 27 62 35 149 56 199 71 290 92 131 29 175 57 209 129 16 34 26 72 26 100 l0 46 -350 0 c-290 0 -350 -2 -350 -14z"/>
 <path d="M850 1618 c-51 -21 -55 -26 -68 -70 -7 -27 -16 -48 -20 -48 -4 0 -23 -14 -42 -30 -23 -20 -27 -27 -12 -20 18 9 22 8 22 -5 0 -10 9 -15 27 -15 23 0 25 -2 11 -12 -11 -9 -21 -47 -32 -118 -20 -144 -35 -176 -91 -200 -25 -11 -57 -31 -72 -45 -16 -14 -30 -25 -34 -25 -3 0 -15 -17 -27 -39 -19 -33 -22 -54 -22 -140 0 -84 4 -109 21 -144 21 -41 91 -136 133 -181 27 -30 138 -86 170 -86 13 0 26 -6 29 -12 6 -21 254 -18 298 4 19 9 59 28 89 41 100 43 158 102 198 199 24 57 32 92 32 137 0 33 -4 62 -9 65 -5 3 -12 17 -15 32 -9 33 -55 105 -80 123 -11 8 -42 35 -69 61 l-49 46 -10 124 c-6 69 -15 131 -20 138 -6 7 -36 12 -72 13 -67 1 -57 6 57 29 62 12 74 32 41 65 -9 9 -20 31 -23 48 -5 26 -16 37 -56 57 -42 21 -67 25 -150 28 -85 2 -108 -1 -155 -20z m231 -80 l52 -12 -84 -13 c-46 -7 -122 -14 -169 -17 -81 -4 -83 -3 -55 12 72 38 171 50 256 30z m-39 -109 c-4 -30 -6 -31 -44 -26 -45 6 -43 5 -52 35 -7 21 -5 22 47 22 l54 0 -5 -31z m-190 -114 c-3 -55 0 -77 7 -70 5 6 11 39 13 75 l3 65 41 3 40 3 -4 -61 c-3 -40 -1 -60 7 -60 7 0 11 23 11 61 l0 60 43 -3 42 -3 3 -63 c4 -76 22 -74 22 4 0 51 1 54 25 54 24 0 25 -2 25 -76 0 -47 4 -73 10 -69 6 3 10 37 10 76 0 62 2 69 20 69 24 0 22 8 25 -105 3 -123 19 -158 105 -228 94 -78 125 -140 125 -252 0 -73 -3 -86 -38 -150 -30 -57 -49 -79 -104 -118 -124 -89 -309 -125 -423 -82 -25 9 -60 20 -77 25 -125 31 -269 216 -281 357 -9 113 42 201 145 250 76 36 108 97 118 222 9 99 11 103 53 99 l37 -3 -3 -80z"/>
 <path d="M923 1044 c-9 -23 10 -69 27 -69 19 0 26 51 9 71 -15 18 -28 18 -36 -2z"/>
 <path d="M1003 1053 c-7 -2 -13 -20 -13 -39 0 -25 6 -38 26 -50 22 -15 27 -15 35 -3 11 16 4 66 -12 86 -12 14 -16 15 -36 6z"/>
 <path d="M753 895 c-49 -35 -49 -135 0 -190 20 -22 26 -24 60 -16 49 12 74 35 87 80 15 54 13 68 -17 101 -34 38 -96 50 -130 25z"/>
 <path d="M1100 892 c-60 -29 -66 -109 -14 -171 45 -54 96 -37 138 47 41 80 -43 165 -124 124z"/>
 <path d="M1336 679 c-7 -18 -11 -41 -8 -53 5 -17 7 -15 13 14 3 19 10 43 14 53 4 9 4 17 1 17 -4 0 -13 -14 -20 -31z"/>
 </g>
<g id="layer108" fill="#e59173" stroke="none">
 <path d="M120 1983 c0 -32 24 -123 33 -123 4 0 5 -4 2 -10 -3 -5 -1 -10 4 -10 6 0 10 -3 9 -7 -5 -16 29 -49 72 -70 25 -12 80 -29 123 -38 69 -15 131 -34 287 -90 25 -9 51 -23 58 -32 20 -27 33 -3 43 77 5 39 22 115 38 168 16 54 32 109 35 125 l6 27 -355 0 c-329 0 -355 -1 -355 -17z"/>
 <path d="M920 1987 c0 -7 7 -37 16 -66 14 -50 14 -54 -3 -67 -10 -7 -21 -14 -25 -14 -18 0 -5 -22 33 -60 23 -22 46 -40 53 -40 12 1 54 35 75 63 12 16 11 21 -13 46 -25 26 -26 31 -17 72 19 79 19 79 -54 79 -47 0 -65 -4 -65 -13z"/>
 <path d="M1160 1986 c0 -8 15 -63 34 -123 19 -59 37 -135 41 -168 4 -33 12 -71 17 -84 8 -22 10 -22 26 -8 9 8 35 22 57 30 147 55 199 71 290 92 131 29 175 57 209 129 16 34 26 72 26 100 l0 46 -350 0 c-296 0 -350 -2 -350 -14z"/>
 <path d="M850 1618 c-51 -21 -55 -26 -68 -70 -7 -27 -16 -48 -20 -48 -4 0 -23 -14 -42 -30 -23 -20 -27 -27 -12 -20 18 9 22 8 22 -5 0 -10 9 -15 27 -15 23 0 25 -2 11 -12 -11 -9 -21 -47 -32 -118 -20 -144 -35 -176 -91 -200 -25 -11 -57 -31 -72 -45 -16 -14 -30 -25 -34 -25 -16 0 -49 -82 -48 -121 l1 -44 13 48 c21 75 55 119 122 155 32 17 66 39 75 49 32 35 55 108 60 186 6 90 17 107 66 100 l32 -5 -5 -82 c-3 -53 -2 -72 4 -56 5 14 9 49 10 78 l1 52 44 0 44 0 -5 -62 c-5 -45 -3 -59 5 -54 7 4 12 31 12 62 l0 54 45 0 45 0 0 -60 c0 -33 4 -60 10 -60 6 0 10 27 10 61 0 52 2 60 16 55 9 -3 20 -6 25 -6 5 0 10 -33 10 -72 1 -79 4 -76 14 15 6 52 9 58 28 55 21 -3 22 -9 23 -88 2 -133 12 -158 99 -236 128 -113 164 -223 117 -356 -27 -75 -61 -124 -119 -165 -97 -71 -252 -120 -346 -110 -84 9 -221 60 -271 101 -75 61 -147 170 -171 260 l-14 51 0 -43 c-1 -25 8 -60 20 -85 21 -41 91 -136 133 -181 27 -30 138 -86 170 -86 13 0 26 -6 29 -12 6 -21 254 -18 298 4 19 9 59 28 89 41 100 43 158 102 198 199 24 57 32 92 32 137 0 33 -4 62 -9 65 -5 3 -12 17 -15 32 -9 33 -55 105 -80 123 -11 8 -42 35 -69 61 l-49 46 -10 124 c-6 69 -15 131 -20 138 -6 7 -36 12 -72 13 -67 1 -57 6 57 29 62 12 74 32 41 65 -9 9 -20 31 -23 48 -5 26 -16 37 -56 57 -42 21 -67 25 -150 28 -85 2 -108 -1 -155 -20z m231 -80 l52 -12 -84 -13 c-46 -7 -122 -14 -169 -17 -81 -4 -83 -3 -55 12 72 38 171 50 256 30z m-35 -94 c-3 -9 -6 -22 -6 -30 0 -9 -11 -14 -32 -14 -40 0 -53 8 -62 38 -7 21 -5 22 49 22 48 0 56 -3 51 -16z"/>
 <path d="M1003 1053 c-32 -12 1 -103 37 -103 18 0 22 47 6 79 -17 31 -21 34 -43 24z m27 -58 c0 -17 -2 -17 -10 -5 -5 8 -10 24 -10 35 0 17 2 17 10 5 5 -8 10 -24 10 -35z"/>
 <path d="M920 1028 c0 -13 6 -33 14 -44 19 -25 39 -7 34 32 -2 21 -9 30 -25 32 -18 3 -23 -1 -23 -20z"/>
 <path d="M746 887 c-21 -21 -26 -36 -26 -77 0 -54 19 -103 46 -118 22 -12 88 5 109 28 23 26 37 93 25 124 -11 31 -47 55 -93 63 -29 4 -40 1 -61 -20z m116 -24 c16 -14 19 -27 16 -65 -3 -26 -11 -54 -18 -63 -14 -17 -65 -20 -75 -5 -9 15 -27 12 -19 -2 5 -10 4 -10 -6 -1 -7 7 -15 37 -18 68 -4 45 -1 60 14 76 22 25 75 21 106 -8z"/>
 <path d="M1079 881 c-36 -29 -34 -105 4 -154 44 -59 102 -44 137 36 21 46 13 92 -21 120 -28 23 -91 22 -120 -2z m109 -17 c33 -23 31 -92 -4 -128 -15 -14 -34 -26 -44 -26 -29 0 -62 46 -67 93 -5 38 -2 47 18 61 30 20 68 21 97 0z"/>
 <path d="M1342 688 c-7 -7 -11 -28 -10 -47 l1 -36 4 35 c3 19 9 41 15 47 13 16 6 17 -10 1z"/>
 </g>
<g id="layer109" fill="#a49b9a" stroke="none">
 <path d="M120 1983 c0 -32 24 -123 33 -123 4 0 5 -4 2 -10 -3 -5 -1 -10 4 -10 6 0 10 -3 9 -7 -5 -16 29 -49 72 -70 25 -12 80 -29 123 -38 69 -15 131 -34 287 -90 25 -9 51 -23 58 -32 20 -27 33 -3 43 77 5 39 22 115 38 168 16 54 32 109 35 125 l6 27 -355 0 c-329 0 -355 -1 -355 -17z"/>
 <path d="M920 1987 c0 -7 7 -37 16 -66 14 -50 14 -54 -3 -67 -10 -7 -21 -14 -25 -14 -18 0 -5 -22 33 -60 23 -22 46 -40 53 -40 12 1 54 35 75 63 12 16 11 21 -13 46 -25 26 -26 31 -17 72 19 79 19 79 -54 79 -47 0 -65 -4 -65 -13z"/>
 <path d="M1160 1986 c0 -8 15 -63 34 -123 19 -59 37 -135 41 -168 4 -33 12 -71 17 -84 8 -22 10 -22 26 -8 9 8 35 22 57 30 147 55 199 71 290 92 131 29 175 57 209 129 16 34 26 72 26 100 l0 46 -350 0 c-296 0 -350 -2 -350 -14z"/>
 <path d="M790 1565 c-5 -14 -10 -32 -10 -40 0 -7 -15 -23 -34 -34 -19 -12 -40 -29 -47 -38 -13 -15 -12 -15 9 -4 18 10 22 9 22 -4 0 -10 9 -15 27 -15 23 0 25 -2 11 -12 -11 -9 -21 -47 -32 -118 -20 -144 -35 -176 -91 -200 -25 -11 -57 -31 -72 -45 -16 -14 -30 -25 -34 -25 -16 0 -49 -82 -48 -121 l1 -44 13 48 c21 75 55 119 122 155 32 17 66 39 75 49 32 35 55 108 60 186 6 90 17 107 66 100 l32 -5 -5 -82 c-3 -53 -2 -72 4 -56 5 14 9 49 10 78 l1 52 44 0 44 0 -5 -62 c-5 -45 -3 -59 5 -54 7 4 12 31 12 62 l0 54 45 0 45 0 0 -60 c0 -33 4 -60 10 -60 6 0 10 27 10 61 0 52 2 60 16 55 9 -3 20 -6 25 -6 5 0 10 -33 10 -72 1 -79 4 -76 14 15 6 52 9 58 28 55 21 -3 22 -9 23 -88 2 -133 12 -158 99 -236 128 -113 164 -223 117 -356 -27 -75 -61 -124 -119 -165 -97 -71 -252 -120 -346 -110 -84 9 -221 60 -271 101 -75 61 -147 170 -171 260 l-14 51 0 -43 c-1 -25 8 -60 20 -85 21 -41 91 -136 133 -181 27 -30 138 -86 170 -86 13 0 26 -6 29 -12 6 -21 254 -18 298 4 19 9 59 28 89 41 100 43 158 102 198 199 24 57 32 92 32 137 0 33 -4 62 -9 65 -5 3 -12 17 -15 32 -9 33 -55 105 -80 123 -11 8 -42 35 -69 61 l-49 46 -10 124 c-6 69 -15 131 -20 138 -6 7 -36 12 -72 13 -67 1 -57 6 57 29 46 9 57 15 57 31 0 10 -9 27 -20 36 -11 10 -20 30 -20 45 0 32 -20 41 -70 30 -43 -9 -287 -7 -318 2 -18 6 -24 2 -32 -19z m335 -36 c29 -12 27 -13 -50 -21 -99 -10 -295 -24 -295 -21 0 5 68 37 105 50 48 16 196 11 240 -8z m-82 -67 c3 -4 3 -19 0 -35 -4 -23 -10 -27 -37 -27 -38 0 -51 8 -60 37 -6 17 -2 22 16 26 40 7 77 7 81 -1z"/>
 <path d="M1003 1053 c-32 -12 1 -103 37 -103 18 0 22 47 6 79 -17 31 -21 34 -43 24z m27 -58 c0 -17 -2 -17 -10 -5 -5 8 -10 24 -10 35 0 17 2 17 10 5 5 -8 10 -24 10 -35z"/>
 <path d="M920 1028 c0 -13 6 -33 14 -44 19 -25 39 -7 34 32 -2 21 -9 30 -25 32 -18 3 -23 -1 -23 -20z"/>
 <path d="M746 887 c-21 -21 -26 -36 -26 -77 0 -54 19 -103 46 -118 22 -12 88 5 109 28 23 26 37 93 25 124 -11 31 -47 55 -93 63 -29 4 -40 1 -61 -20z m116 -24 c16 -14 19 -27 16 -65 -3 -26 -11 -54 -18 -63 -14 -17 -65 -20 -75 -5 -9 15 -27 12 -19 -2 5 -10 4 -10 -6 -1 -7 7 -15 37 -18 68 -4 45 -1 60 14 76 22 25 75 21 106 -8z"/>
 <path d="M1079 881 c-36 -29 -34 -105 4 -154 44 -59 102 -44 137 36 21 46 13 92 -21 120 -28 23 -91 22 -120 -2z m109 -17 c33 -23 31 -92 -4 -128 -15 -14 -34 -26 -44 -26 -29 0 -62 46 -67 93 -5 38 -2 47 18 61 30 20 68 21 97 0z"/>
 <path d="M1342 688 c-7 -7 -11 -28 -10 -47 l1 -36 4 35 c3 19 9 41 15 47 13 16 6 17 -10 1z"/>
 </g>
<g id="layer110" fill="#de8465" stroke="none">
 <path d="M120 1983 c0 -32 24 -123 33 -123 4 0 5 -4 2 -10 -3 -5 -1 -10 4 -10 6 0 10 -3 9 -7 -5 -14 27 -48 62 -67 19 -10 80 -29 135 -41 55 -13 138 -37 185 -55 47 -17 100 -36 118 -41 18 -6 36 -17 39 -25 15 -39 39 10 46 96 3 30 19 98 35 150 16 52 32 107 36 123 l6 27 -355 0 c-329 0 -355 -1 -355 -17z"/>
 <path d="M920 1987 c0 -7 7 -37 16 -66 14 -50 14 -54 -3 -67 -10 -7 -21 -14 -25 -14 -17 0 -6 -19 34 -58 23 -23 47 -42 52 -42 12 1 52 35 75 63 12 16 11 21 -13 46 -25 26 -26 31 -17 72 19 79 19 79 -54 79 -47 0 -65 -4 -65 -13z"/>
 <path d="M1160 1987 c0 -6 14 -55 30 -107 17 -52 38 -135 46 -185 19 -106 21 -111 42 -91 10 8 35 21 57 29 147 55 199 71 290 92 131 29 175 57 209 129 16 34 26 72 26 100 l0 46 -350 0 c-274 0 -350 -3 -350 -13z"/>
 <path d="M790 1565 c-5 -14 -10 -32 -10 -40 0 -7 -15 -23 -34 -34 -19 -12 -40 -29 -47 -38 -13 -15 -12 -15 9 -4 18 10 22 9 22 -4 0 -10 9 -15 27 -15 23 0 25 -2 11 -12 -11 -9 -21 -48 -32 -124 -20 -139 -35 -170 -92 -195 -24 -10 -56 -30 -71 -44 -16 -14 -30 -25 -34 -25 -15 0 -49 -82 -48 -116 l0 -39 13 40 c28 88 68 134 143 164 69 28 102 94 114 225 4 48 11 92 17 98 5 5 26 6 46 3 27 -6 36 -12 37 -29 1 -17 2 -17 6 -3 3 13 15 17 48 17 44 0 44 0 43 -35 -1 -19 2 -38 5 -42 4 -3 7 13 7 36 l0 42 47 -3 47 -3 -3 -57 c-1 -36 2 -58 8 -58 7 0 11 24 11 59 0 57 1 59 25 57 19 -1 25 -7 26 -26 l0 -25 10 23 c6 17 15 22 31 20 22 -3 23 -8 25 -89 3 -136 12 -157 99 -235 147 -132 173 -248 93 -412 -41 -84 -127 -149 -249 -189 -117 -38 -204 -38 -323 1 -106 35 -167 79 -230 168 -55 78 -67 101 -83 158 l-12 45 -1 -38 c-1 -21 9 -57 20 -80 21 -41 91 -136 133 -181 28 -31 139 -86 171 -86 14 0 25 -5 25 -10 0 -6 6 -10 13 -9 6 1 20 -1 30 -6 30 -13 229 1 262 19 17 8 55 26 85 39 99 43 158 102 198 199 24 57 32 92 32 137 0 33 -4 62 -9 65 -5 3 -12 17 -15 32 -9 33 -55 105 -80 123 -11 8 -42 35 -69 61 l-49 46 -10 124 c-6 69 -15 131 -20 138 -6 7 -36 12 -72 13 -67 1 -57 6 57 29 46 9 57 15 57 31 0 10 -9 27 -20 36 -11 10 -20 30 -20 45 0 32 -20 41 -70 30 -43 -9 -287 -7 -318 2 -18 6 -24 2 -32 -19z m335 -36 c29 -12 27 -13 -50 -21 -99 -10 -295 -24 -295 -21 0 5 68 37 105 50 48 16 196 11 240 -8z m-80 -69 c3 -5 3 -21 -1 -35 -5 -20 -12 -25 -39 -25 -55 0 -91 54 -42 63 42 8 76 7 82 -3z"/>
 <path d="M1133 1275 c0 -22 2 -30 4 -17 2 12 2 30 0 40 -3 9 -5 -1 -4 -23z"/>
 <path d="M1002 1048 c-19 -19 -14 -55 10 -78 19 -18 24 -18 37 -6 12 13 12 20 0 52 -16 41 -29 50 -47 32z m33 -47 c5 -17 4 -22 -6 -19 -8 3 -15 18 -17 34 -4 33 11 24 23 -15z"/>
 <path d="M920 1028 c0 -13 7 -33 15 -44 13 -16 16 -17 25 -4 18 26 8 65 -17 68 -18 3 -23 -1 -23 -20z"/>
 <path d="M758 895 c-15 -9 -31 -27 -34 -41 -10 -38 1 -110 21 -140 15 -23 21 -25 63 -20 26 3 54 14 65 25 22 21 36 84 27 120 -12 52 -93 83 -142 56z m94 -21 c29 -15 30 -17 26 -75 -2 -33 -9 -64 -15 -70 -13 -13 -51 -15 -77 -4 -14 6 -17 5 -12 -3 4 -7 3 -12 -2 -12 -31 0 -44 136 -16 164 20 20 57 20 96 0z"/>
 <path d="M1080 880 c-11 -11 -22 -31 -26 -45 -9 -35 22 -112 53 -132 78 -51 167 104 98 172 -31 32 -96 34 -125 5z m94 -4 c25 -10 35 -22 40 -46 8 -45 -20 -102 -58 -115 -25 -9 -31 -6 -57 23 -21 24 -29 42 -29 70 0 42 6 54 35 70 26 15 29 15 69 -2z"/>
 <path d="M1334 676 c-3 -8 -4 -27 -2 -43 3 -23 5 -20 9 15 5 43 2 53 -7 28z"/>
 </g>
<g id="layer111" fill="#939291" stroke="none">
 <path d="M120 1983 c0 -32 24 -123 33 -123 4 0 5 -4 2 -10 -3 -5 -1 -10 4 -10 6 0 10 -3 9 -7 -5 -14 27 -48 62 -67 19 -10 80 -29 135 -41 55 -13 138 -37 185 -55 47 -17 100 -36 118 -41 18 -6 36 -17 39 -25 15 -39 39 10 46 96 3 30 19 98 35 150 16 52 32 107 36 123 l6 27 -355 0 c-329 0 -355 -1 -355 -17z"/>
 <path d="M920 1987 c0 -7 7 -37 16 -66 14 -50 14 -54 -3 -67 -10 -7 -21 -14 -25 -14 -17 0 -6 -19 34 -58 23 -23 47 -42 52 -42 12 1 52 35 75 63 12 16 11 21 -13 46 -25 26 -26 31 -17 72 19 79 19 79 -54 79 -47 0 -65 -4 -65 -13z"/>
 <path d="M1160 1987 c0 -6 14 -55 30 -107 17 -52 38 -135 46 -185 19 -106 21 -111 42 -91 10 8 35 21 57 29 147 55 199 71 290 92 131 29 175 57 209 129 16 34 26 72 26 100 l0 46 -350 0 c-274 0 -350 -3 -350 -13z"/>
 <path d="M885 1557 c-22 -8 -51 -19 -64 -26 -19 -11 -25 -11 -32 0 -7 11 -9 10 -9 -3 0 -10 -18 -29 -39 -42 -44 -28 -69 -56 -32 -37 17 10 21 9 21 -4 0 -10 9 -15 27 -15 23 0 25 -2 11 -12 -11 -9 -21 -48 -32 -124 -20 -139 -35 -170 -92 -195 -24 -10 -56 -30 -71 -44 -16 -14 -30 -25 -34 -25 -15 0 -49 -82 -48 -116 l0 -39 13 40 c28 88 68 134 143 164 69 28 102 94 114 225 4 48 11 92 17 98 5 5 26 6 46 3 27 -6 36 -12 37 -29 1 -17 2 -17 6 -3 3 13 15 17 48 17 44 0 44 0 43 -35 -1 -19 2 -38 5 -42 4 -3 7 13 7 36 l0 42 47 -3 47 -3 -3 -57 c-1 -36 2 -58 8 -58 7 0 11 24 11 59 0 57 1 59 25 57 19 -1 25 -7 26 -26 l0 -25 10 23 c6 17 15 22 31 20 22 -3 23 -8 25 -89 3 -136 12 -157 99 -235 147 -132 173 -248 93 -412 -41 -84 -127 -149 -249 -189 -117 -38 -204 -38 -323 1 -106 35 -167 79 -230 168 -55 78 -67 101 -83 158 l-12 45 -1 -38 c-1 -21 9 -57 20 -80 21 -41 91 -136 133 -181 28 -31 139 -86 171 -86 14 0 25 -5 25 -10 0 -6 6 -10 13 -9 6 1 20 -1 30 -6 30 -13 229 1 262 19 17 8 55 26 85 39 99 43 158 102 198 199 24 57 32 92 32 137 0 33 -4 62 -9 65 -5 3 -12 17 -15 32 -9 33 -55 105 -80 123 -11 8 -42 35 -69 61 l-49 46 -10 124 c-6 69 -14 130 -20 137 -5 7 -37 13 -71 15 l-62 3 84 17 c46 10 86 20 89 22 10 10 -9 56 -23 56 -10 0 -15 11 -16 33 l-1 32 -9 -27 -10 -26 -47 21 c-58 26 -197 33 -257 14z m189 -12 c39 -8 74 -19 78 -23 9 -9 -72 -18 -264 -30 -58 -4 -104 -4 -101 1 13 21 141 64 198 66 11 0 51 -6 89 -14z m-29 -85 c3 -5 3 -21 -1 -35 -5 -20 -12 -25 -39 -25 -55 0 -91 54 -42 63 42 8 76 7 82 -3z"/>
 <path d="M1133 1275 c0 -22 2 -30 4 -17 2 12 2 30 0 40 -3 9 -5 -1 -4 -23z"/>
 <path d="M1002 1048 c-19 -19 -14 -55 10 -78 19 -18 24 -18 37 -6 12 13 12 20 0 52 -16 41 -29 50 -47 32z m33 -47 c5 -17 4 -22 -6 -19 -8 3 -15 18 -17 34 -4 33 11 24 23 -15z"/>
 <path d="M920 1028 c0 -13 7 -33 15 -44 13 -16 16 -17 25 -4 18 26 8 65 -17 68 -18 3 -23 -1 -23 -20z"/>
 <path d="M758 895 c-15 -9 -31 -27 -34 -41 -10 -38 1 -110 21 -140 15 -23 21 -25 63 -20 26 3 54 14 65 25 22 21 36 84 27 120 -12 52 -93 83 -142 56z m94 -21 c29 -15 30 -17 26 -75 -2 -33 -9 -64 -15 -70 -13 -13 -51 -15 -77 -4 -14 6 -17 5 -12 -3 4 -7 3 -12 -2 -12 -31 0 -44 136 -16 164 20 20 57 20 96 0z"/>
 <path d="M1080 880 c-11 -11 -22 -31 -26 -45 -9 -35 22 -112 53 -132 78 -51 167 104 98 172 -31 32 -96 34 -125 5z m94 -4 c25 -10 35 -22 40 -46 8 -45 -20 -102 -58 -115 -25 -9 -31 -6 -57 23 -21 24 -29 42 -29 70 0 42 6 54 35 70 26 15 29 15 69 -2z"/>
 <path d="M1334 676 c-3 -8 -4 -27 -2 -43 3 -23 5 -20 9 15 5 43 2 53 -7 28z"/>
 </g>
<g id="layer112" fill="#d07351" stroke="none">
 <path d="M120 1983 c0 -32 24 -123 33 -123 4 0 5 -4 2 -10 -3 -5 -1 -10 4 -10 6 0 10 -3 9 -7 -5 -14 27 -48 62 -67 19 -10 80 -29 135 -41 55 -13 138 -37 185 -55 47 -17 100 -36 118 -41 18 -6 36 -17 39 -25 3 -8 9 -14 13 -14 12 0 30 59 30 101 0 20 15 86 34 146 18 59 36 120 40 136 l6 27 -355 0 c-329 0 -355 -1 -355 -17z"/>
 <path d="M920 1994 c0 -3 7 -34 16 -67 l16 -61 -27 -19 -26 -20 42 -43 c24 -24 48 -44 54 -44 6 0 29 18 50 41 l40 40 -28 25 c-28 24 -28 26 -18 75 18 81 19 79 -54 79 -36 0 -65 -3 -65 -6z"/>
 <path d="M1160 1992 c0 -4 16 -61 35 -127 20 -66 40 -151 45 -189 12 -83 17 -92 38 -72 10 8 35 21 57 29 147 55 199 71 290 92 131 29 175 57 209 129 16 34 26 72 26 100 l0 46 -350 0 c-192 0 -350 -3 -350 -8z"/>
 <path d="M885 1557 c-22 -8 -51 -19 -64 -26 -19 -11 -25 -11 -32 0 -7 11 -9 10 -9 -3 0 -10 -18 -29 -39 -42 -44 -28 -69 -56 -32 -37 17 10 21 9 21 -4 0 -10 9 -15 27 -15 23 0 25 -2 11 -12 -10 -9 -21 -51 -32 -125 -21 -139 -35 -169 -92 -194 -24 -10 -56 -30 -71 -44 -16 -14 -30 -25 -34 -25 -14 0 -49 -81 -48 -111 1 -31 1 -32 8 -9 26 84 77 143 152 174 67 28 96 87 109 220 5 49 13 93 19 99 15 15 81 -1 81 -21 1 -15 2 -15 10 -2 5 10 23 15 46 15 32 0 39 -4 44 -25 l6 -25 6 28 c4 21 1 30 -13 38 -11 5 -19 18 -19 29 0 15 10 20 46 26 51 7 67 -2 62 -37 -2 -18 -11 -25 -33 -28 -28 -5 -28 -5 10 -10 l40 -6 -3 -57 c-2 -36 1 -58 7 -58 7 0 11 25 11 60 0 57 1 61 23 58 12 -2 27 -7 34 -11 6 -4 13 -3 15 3 1 5 13 7 25 4 20 -6 22 -12 22 -92 1 -138 8 -156 100 -242 148 -139 173 -259 87 -416 -25 -46 -49 -71 -104 -111 -58 -42 -149 -82 -194 -87 -3 -1 -10 -4 -14 -9 -13 -13 44 -7 73 8 15 8 56 26 91 41 34 15 62 30 62 34 0 4 18 19 40 34 85 56 147 255 106 340 -9 19 -16 37 -16 40 0 13 -56 91 -74 105 -11 8 -42 35 -69 61 l-49 46 -9 90 c-5 49 -9 105 -9 125 1 47 -14 57 -85 61 l-60 3 84 17 c46 10 86 20 89 22 10 10 -9 56 -23 56 -10 0 -15 11 -16 33 l-1 32 -9 -27 -10 -26 -47 21 c-58 26 -197 33 -257 14z m189 -12 c39 -8 74 -19 78 -23 9 -9 -72 -18 -264 -30 -58 -4 -104 -4 -101 1 13 21 141 64 198 66 11 0 51 -6 89 -14z"/>
 <path d="M1002 1048 c-19 -19 -14 -55 10 -78 19 -18 24 -18 37 -6 12 13 12 20 0 52 -16 41 -29 50 -47 32z m38 -61 c0 -16 -3 -17 -15 -7 -8 7 -15 24 -15 39 1 25 1 25 15 7 8 -11 15 -29 15 -39z"/>
 <path d="M920 1036 c0 -24 19 -66 29 -66 14 0 23 36 16 60 -7 23 -45 28 -45 6z m33 -29 c-3 -5 -9 -3 -14 4 -4 7 -5 17 -2 22 3 5 9 3 14 -4 4 -7 5 -17 2 -22z"/>
 <path d="M765 899 c-11 -6 -26 -19 -32 -27 -19 -23 -16 -101 5 -142 14 -30 22 -35 52 -36 42 -1 86 19 100 46 6 12 10 44 8 72 -2 41 -8 55 -28 69 -33 24 -80 32 -105 18z m59 -9 c7 0 25 -11 39 -24 22 -20 25 -30 21 -67 -3 -23 -10 -51 -15 -61 -12 -22 -57 -34 -72 -19 -16 16 -27 13 -21 -6 5 -15 3 -15 -10 2 -53 64 -28 201 32 180 8 -3 19 -5 26 -5z"/>
 <path d="M1092 888 c-13 -7 -27 -27 -33 -49 -10 -32 -9 -43 11 -84 38 -79 97 -84 140 -13 59 96 -19 193 -118 146z m88 -13 c36 -19 46 -61 26 -108 -40 -96 -136 -59 -136 52 0 63 49 88 110 56z"/>
 <path d="M491 787 c-1 -21 8 -56 19 -78 21 -40 95 -142 134 -184 27 -29 139 -85 170 -85 13 0 26 -6 29 -12 3 -10 8 -10 16 -2 9 8 -3 15 -46 28 -32 9 -67 22 -78 28 -97 52 -210 198 -234 303 l-9 40 -1 -38z"/>
 <path d="M1334 676 c-3 -8 -4 -27 -2 -43 3 -23 5 -20 9 15 5 43 2 53 -7 28z"/>
 <path d="M880 420 c0 -5 21 -10 47 -10 55 0 54 5 -4 14 -27 4 -43 2 -43 -4z"/>
 <path d="M1020 420 c-24 -8 -23 -8 8 -9 17 -1 32 4 32 9 0 11 -5 11 -40 0z"/>
 </g>
<g id="layer113" fill="#828280" stroke="none">
 <path d="M120 1983 c0 -32 24 -123 33 -123 4 0 5 -4 2 -10 -3 -5 -1 -10 4 -10 6 0 10 -3 9 -7 -5 -14 27 -48 62 -67 19 -10 80 -29 135 -41 55 -13 138 -37 185 -55 47 -17 100 -36 118 -41 18 -6 36 -17 39 -25 3 -8 9 -14 13 -14 12 0 30 59 30 101 0 20 15 86 34 146 18 59 36 120 40 136 l6 27 -355 0 c-329 0 -355 -1 -355 -17z"/>
 <path d="M920 1994 c0 -3 7 -34 16 -67 l16 -61 -27 -19 -26 -20 42 -43 c24 -24 48 -44 54 -44 6 0 29 18 50 41 l40 40 -28 25 c-28 24 -28 26 -18 75 18 81 19 79 -54 79 -36 0 -65 -3 -65 -6z"/>
 <path d="M1160 1992 c0 -4 16 -61 35 -127 20 -66 40 -151 45 -189 12 -83 17 -92 38 -72 10 8 35 21 57 29 147 55 199 71 290 92 131 29 175 57 209 129 16 34 26 72 26 100 l0 46 -350 0 c-192 0 -350 -3 -350 -8z"/>
 <path d="M1015 1499 c-22 -4 -89 -9 -150 -10 -88 -2 -112 -5 -122 -18 -20 -26 -15 -41 14 -41 23 0 25 -2 11 -12 -10 -9 -21 -51 -32 -125 -21 -139 -35 -169 -92 -194 -24 -10 -56 -30 -71 -44 -16 -14 -30 -25 -34 -25 -14 0 -49 -81 -48 -111 1 -31 1 -32 8 -9 26 84 77 143 152 174 67 28 96 87 109 220 5 49 13 93 19 99 15 15 81 -1 81 -21 1 -15 2 -15 10 -2 5 10 23 15 46 15 32 0 39 -4 44 -25 l6 -25 6 28 c4 21 1 30 -13 38 -11 5 -19 18 -19 29 0 22 31 33 76 28 25 -3 29 -7 29 -33 0 -26 -4 -31 -30 -34 -28 -5 -28 -5 10 -10 l40 -6 -3 -57 c-2 -36 1 -58 7 -58 7 0 11 25 11 60 0 57 1 61 23 58 12 -2 27 -7 34 -11 6 -4 13 -3 15 3 1 5 13 7 25 4 20 -6 22 -12 22 -92 1 -138 8 -156 100 -242 148 -139 173 -259 87 -416 -25 -46 -49 -71 -104 -111 -58 -42 -149 -82 -194 -87 -3 -1 -10 -4 -14 -9 -13 -13 44 -7 73 8 15 8 56 26 91 41 34 15 62 30 62 34 0 4 18 19 40 34 85 56 147 255 106 340 -9 19 -16 37 -16 40 0 13 -56 91 -74 105 -11 8 -42 35 -69 61 l-49 46 -9 90 c-5 49 -9 105 -9 125 1 47 -14 57 -85 61 l-60 3 84 17 c46 10 86 20 88 22 2 2 1 14 -2 27 -6 23 -10 24 -98 25 -51 1 -110 -2 -132 -7z"/>
 <path d="M1002 1048 c-19 -19 -14 -55 10 -78 19 -18 24 -18 37 -6 12 13 12 20 0 52 -16 41 -29 50 -47 32z m38 -61 c0 -16 -3 -17 -15 -7 -8 7 -15 24 -15 39 1 25 1 25 15 7 8 -11 15 -29 15 -39z"/>
 <path d="M920 1036 c0 -24 19 -66 29 -66 14 0 23 36 16 60 -7 23 -45 28 -45 6z m33 -29 c-3 -5 -9 -3 -14 4 -4 7 -5 17 -2 22 3 5 9 3 14 -4 4 -7 5 -17 2 -22z"/>
 <path d="M765 899 c-11 -6 -26 -19 -32 -27 -19 -23 -16 -101 5 -142 14 -30 22 -35 52 -36 42 -1 86 19 100 46 6 12 10 44 8 72 -2 41 -8 55 -28 69 -33 24 -80 32 -105 18z m59 -9 c7 0 25 -11 39 -24 22 -20 25 -30 21 -67 -3 -23 -10 -51 -15 -61 -12 -22 -57 -34 -72 -19 -16 16 -27 13 -21 -6 5 -15 3 -15 -10 2 -53 64 -28 201 32 180 8 -3 19 -5 26 -5z"/>
 <path d="M1092 888 c-13 -7 -27 -27 -33 -49 -10 -32 -9 -43 11 -84 38 -79 97 -84 140 -13 59 96 -19 193 -118 146z m88 -13 c36 -19 46 -61 26 -108 -40 -96 -136 -59 -136 52 0 63 49 88 110 56z"/>
 <path d="M491 787 c-1 -21 8 -56 19 -78 21 -40 95 -142 134 -184 27 -29 139 -85 170 -85 13 0 26 -6 29 -12 3 -10 8 -10 16 -2 9 8 -3 15 -46 28 -32 9 -67 22 -78 28 -97 52 -210 198 -234 303 l-9 40 -1 -38z"/>
 <path d="M1334 676 c-3 -8 -4 -27 -2 -43 3 -23 5 -20 9 15 5 43 2 53 -7 28z"/>
 <path d="M880 420 c0 -5 21 -10 47 -10 55 0 54 5 -4 14 -27 4 -43 2 -43 -4z"/>
 <path d="M1020 420 c-24 -8 -23 -8 8 -9 17 -1 32 4 32 9 0 11 -5 11 -40 0z"/>
 </g>
<g id="layer114" fill="#828081" stroke="none">
 <path d="M120 1983 c0 -32 24 -123 33 -123 4 0 5 -4 2 -10 -3 -5 -1 -10 4 -10 6 0 10 -3 9 -7 -5 -14 27 -48 62 -67 19 -10 80 -29 135 -41 55 -13 138 -37 185 -55 47 -17 100 -36 118 -41 18 -6 36 -17 39 -25 3 -8 9 -14 13 -14 12 0 30 59 30 101 0 20 15 86 34 146 18 59 36 120 40 136 l6 27 -355 0 c-329 0 -355 -1 -355 -17z"/>
 <path d="M920 1994 c0 -3 7 -34 16 -67 l16 -61 -27 -19 -26 -20 42 -43 c24 -24 48 -44 54 -44 6 0 29 18 50 41 l40 40 -28 25 c-28 24 -28 26 -18 75 18 81 19 79 -54 79 -36 0 -65 -3 -65 -6z"/>
 <path d="M1160 1992 c0 -4 16 -61 35 -127 20 -66 40 -151 45 -189 12 -83 17 -92 38 -72 10 8 35 21 57 29 147 55 199 71 290 92 131 29 175 57 209 129 16 34 26 72 26 100 l0 46 -350 0 c-192 0 -350 -3 -350 -8z"/>
 <path d="M1015 1499 c-22 -4 -89 -9 -150 -10 -88 -2 -112 -5 -122 -18 -20 -26 -15 -41 13 -41 22 0 23 -2 11 -14 -8 -8 -22 -64 -31 -124 -21 -139 -35 -168 -92 -193 -24 -10 -56 -30 -71 -44 -16 -14 -30 -25 -34 -25 -14 0 -49 -81 -48 -111 1 -31 1 -32 8 -9 26 85 77 143 153 174 64 27 94 89 108 225 5 46 13 88 19 94 16 16 81 -1 81 -21 1 -15 2 -15 10 -2 5 9 25 17 45 18 31 2 38 -1 43 -20 5 -21 6 -21 12 -2 5 13 1 23 -11 32 -45 32 -10 68 57 60 25 -3 29 -7 29 -33 0 -26 -4 -31 -30 -34 -28 -5 -28 -5 10 -10 l40 -6 -3 -57 c-1 -35 2 -58 8 -58 6 0 10 26 10 60 0 57 1 60 24 60 14 0 28 -5 32 -11 4 -8 8 -8 13 0 4 5 16 8 28 5 20 -6 22 -13 22 -92 1 -138 8 -156 99 -242 91 -85 104 -105 127 -183 21 -72 9 -145 -38 -231 -26 -48 -49 -72 -105 -113 -58 -42 -149 -82 -194 -87 -3 -1 -10 -4 -14 -9 -13 -13 44 -7 73 8 15 8 56 26 91 41 34 15 62 30 62 34 0 4 18 19 40 34 58 39 113 155 118 253 3 44 0 73 -6 73 -5 0 -12 13 -15 30 -7 35 -54 109 -81 129 -11 8 -42 35 -69 61 l-49 46 -9 90 c-5 49 -9 105 -9 125 1 47 -14 57 -85 61 l-60 3 84 17 c46 10 86 20 88 22 2 2 1 14 -2 27 -6 23 -10 24 -98 25 -51 1 -110 -2 -132 -7z"/>
 <path d="M1001 1046 c-17 -20 -6 -68 18 -83 15 -10 22 -9 31 3 10 11 10 22 -1 51 -16 42 -31 50 -48 29z m39 -59 c0 -10 -5 -15 -11 -12 -14 9 -28 48 -21 59 7 12 32 -24 32 -47z"/>
 <path d="M920 1036 c0 -24 19 -66 29 -66 14 0 23 36 16 60 -7 23 -45 28 -45 6z m32 -34 c-4 -13 -7 -12 -12 4 -4 10 -5 23 -2 28 7 13 21 -16 14 -32z"/>
 <path d="M765 899 c-11 -7 -26 -19 -32 -27 -19 -23 -16 -101 5 -142 14 -30 22 -35 52 -36 42 -1 86 19 100 46 6 12 10 44 8 72 -2 41 -8 54 -28 69 -33 23 -80 31 -105 18z m59 -9 c48 -18 65 -44 60 -91 -3 -24 -10 -51 -15 -61 -12 -23 -52 -33 -78 -19 -17 10 -20 9 -14 -5 4 -11 2 -15 -5 -11 -6 4 -18 27 -27 51 -14 35 -15 51 -5 84 9 36 30 61 52 62 4 0 18 -4 32 -10z"/>
 <path d="M1150 887 c58 -16 78 -51 61 -108 -22 -73 -95 -90 -126 -29 -20 39 -19 99 2 122 16 18 16 18 0 12 -9 -3 -22 -23 -28 -44 -10 -33 -9 -44 11 -85 38 -79 97 -84 140 -13 46 75 10 159 -67 157 l-38 -1 45 -11z"/>
 <path d="M491 782 c-1 -18 8 -51 19 -73 21 -40 95 -142 134 -184 27 -29 139 -85 170 -85 13 0 26 -6 29 -12 3 -10 8 -10 16 -2 9 8 -3 15 -46 28 -32 9 -67 22 -78 28 -97 52 -196 177 -231 293 l-12 40 -1 -33z"/>
 <path d="M1332 640 c0 -19 2 -27 5 -17 2 9 2 25 0 35 -3 9 -5 1 -5 -18z"/>
 <path d="M880 419 c0 -5 21 -9 47 -9 25 0 44 2 42 4 -10 8 -89 13 -89 5z"/>
 <path d="M1020 420 c-24 -8 -23 -8 8 -9 17 -1 32 4 32 9 0 11 -5 11 -40 0z"/>
 </g>
<g id="layer115" fill="#a56656" stroke="none">
 <path d="M120 1983 c0 -32 24 -123 33 -123 4 0 5 -4 2 -10 -3 -5 -1 -10 4 -10 6 0 10 -3 9 -7 -5 -14 27 -48 62 -67 19 -10 80 -29 135 -41 55 -13 138 -37 185 -55 47 -17 100 -36 118 -41 18 -6 36 -17 39 -25 3 -8 9 -14 14 -14 11 0 29 66 29 106 0 17 15 83 34 145 18 63 36 124 39 137 l5 22 -354 0 c-328 0 -354 -1 -354 -17z"/>
 <path d="M920 1993 c0 -4 8 -33 17 -66 l16 -60 -27 -20 -27 -20 42 -43 c24 -24 48 -44 54 -44 6 0 29 18 50 41 l40 40 -29 25 c-28 25 -28 26 -17 81 6 31 11 60 11 65 0 4 -29 8 -65 8 -36 0 -65 -3 -65 -7z"/>
 <path d="M1166 1973 c4 -16 22 -80 40 -143 19 -63 34 -129 34 -146 0 -17 5 -45 11 -63 10 -29 13 -31 28 -17 9 8 34 21 56 29 147 55 199 71 290 92 131 29 175 57 209 129 16 34 26 72 26 100 l0 46 -350 0 -350 0 6 -27z"/>
 <path d="M1015 1499 c-22 -4 -89 -9 -150 -10 -88 -2 -112 -5 -122 -18 -20 -26 -15 -41 15 -41 19 0 23 -3 13 -9 -8 -5 -21 -55 -32 -122 -11 -63 -22 -121 -26 -129 -3 -8 -7 -17 -7 -20 -4 -18 -24 -34 -63 -51 -24 -10 -51 -26 -59 -34 -8 -8 -23 -20 -33 -27 -26 -18 -61 -92 -60 -125 1 -26 2 -26 11 7 15 58 60 113 118 146 104 59 123 93 140 246 5 45 14 86 19 91 13 13 81 -1 81 -15 0 -9 3 -9 12 0 7 7 27 12 46 12 26 0 35 -5 40 -22 5 -21 6 -21 12 -2 5 13 1 23 -11 32 -45 32 -10 68 57 60 25 -3 29 -7 29 -33 0 -23 -6 -31 -25 -36 -24 -7 -24 -7 6 -8 16 -1 35 -6 42 -13 9 -9 12 -9 12 0 0 7 19 10 58 9 l57 -2 2 -70 c4 -167 4 -168 108 -269 83 -82 94 -97 115 -159 19 -60 21 -75 11 -128 -24 -138 -125 -253 -263 -300 -38 -13 -68 -26 -68 -30 0 -7 116 33 160 56 60 31 127 104 159 175 35 75 50 168 33 203 -5 12 -22 48 -36 79 -19 39 -46 73 -88 110 -33 29 -66 59 -74 66 -7 7 -15 31 -18 55 -3 23 -8 60 -11 82 -4 22 -6 61 -5 86 0 27 -5 51 -13 57 -7 6 -40 12 -72 14 l-60 3 84 17 c46 10 86 20 88 22 2 2 1 14 -2 27 -6 23 -10 24 -98 25 -51 1 -110 -2 -132 -7z"/>
 <path d="M1067 1340 c-4 -14 -6 -36 -6 -50 1 -18 4 -14 10 14 10 44 6 75 -4 36z"/>
 <path d="M1001 1046 c-18 -22 -4 -74 21 -82 12 -3 24 -1 28 6 11 17 0 57 -20 75 -15 14 -19 14 -29 1z m34 -37 c4 -17 5 -33 2 -36 -9 -8 -39 45 -32 57 11 18 23 11 30 -21z"/>
 <path d="M924 1037 c-6 -17 12 -67 25 -67 5 0 12 12 15 26 10 38 -27 75 -40 41z m30 -14 c4 -9 2 -21 -4 -27 -7 -7 -10 -7 -10 1 0 6 -3 18 -6 27 -3 9 -2 16 4 16 5 0 13 -8 16 -17z"/>
 <path d="M741 874 c-27 -35 -27 -93 0 -145 20 -39 22 -41 57 -34 62 11 72 15 87 45 24 46 19 107 -10 135 -13 14 -32 25 -42 24 -15 0 -14 -2 4 -9 12 -5 29 -20 38 -34 21 -31 12 -99 -16 -127 -22 -22 -59 -25 -78 -6 -10 10 -11 8 -5 -8 7 -18 6 -18 -9 -6 -23 18 -40 87 -32 127 3 19 16 40 28 49 12 8 16 15 10 15 -6 0 -21 -12 -32 -26z"/>
 <path d="M1142 891 c49 -10 66 -26 74 -66 7 -38 -14 -85 -48 -107 -20 -14 -28 -14 -50 -2 -48 25 -66 116 -31 158 l18 21 -22 -19 c-45 -37 -36 -113 20 -165 21 -19 30 -22 54 -14 38 13 73 67 73 113 0 54 -25 80 -80 85 -43 4 -43 4 -8 -4z"/>
 <path d="M491 772 c-1 -25 14 -58 36 -80 17 -18 17 -3 -1 17 -8 9 -19 32 -24 51 -8 26 -10 29 -11 12z"/>
 <path d="M540 665 c0 -10 83 -119 109 -143 40 -36 37 -16 -3 24 -21 21 -51 57 -67 81 -28 40 -39 51 -39 38z"/>
 <path d="M690 499 c0 -5 24 -21 53 -34 55 -26 82 -32 72 -15 -3 6 -17 10 -29 10 -13 0 -40 11 -60 25 -20 13 -36 20 -36 14z"/>
 <path d="M1025 420 c-18 -8 -17 -9 8 -9 16 -1 26 3 22 9 -3 6 -7 10 -8 9 -1 0 -11 -4 -22 -9z"/>
 </g>
<g id="layer116" fill="#727170" stroke="none">
 <path d="M120 1983 c0 -32 24 -123 33 -123 4 0 5 -4 2 -10 -3 -5 -1 -10 4 -10 6 0 10 -3 9 -7 -5 -14 27 -48 62 -67 19 -10 80 -29 135 -41 55 -13 138 -37 185 -55 47 -17 100 -36 118 -41 18 -6 36 -17 39 -25 3 -8 9 -14 14 -14 11 0 29 66 29 106 0 17 15 83 34 145 18 63 36 124 39 137 l5 22 -354 0 c-328 0 -354 -1 -354 -17z"/>
 <path d="M920 1993 c0 -4 7 -33 17 -66 l16 -59 -27 -22 -28 -22 46 -42 c52 -48 59 -47 111 8 l30 32 -29 24 c-28 25 -28 26 -17 81 6 31 11 60 11 65 0 4 -29 8 -65 8 -36 0 -65 -3 -65 -7z"/>
 <path d="M1166 1973 c4 -16 22 -80 40 -143 19 -63 34 -129 34 -146 0 -17 5 -45 11 -63 10 -29 13 -31 28 -17 9 8 34 21 56 29 147 55 199 71 290 92 131 29 175 57 209 129 16 34 26 72 26 100 l0 46 -350 0 -350 0 6 -27z"/>
 <path d="M1015 1499 c-22 -4 -89 -9 -150 -10 -88 -2 -112 -5 -122 -18 -20 -26 -15 -41 15 -41 19 0 23 -3 13 -9 -8 -5 -21 -55 -32 -122 -11 -63 -22 -121 -26 -129 -3 -8 -7 -17 -7 -20 -4 -18 -24 -34 -63 -51 -24 -10 -51 -26 -59 -34 -8 -8 -23 -20 -33 -27 -26 -18 -61 -92 -60 -125 1 -26 2 -26 11 7 15 58 60 113 118 146 104 59 123 93 140 246 5 45 14 86 19 91 13 13 81 -1 81 -15 0 -9 3 -9 12 0 7 7 27 12 46 12 26 0 35 -5 40 -22 5 -21 6 -21 12 -2 5 13 1 23 -11 32 -45 32 -10 68 57 60 25 -3 29 -7 29 -33 0 -23 -6 -31 -25 -36 -24 -7 -24 -7 6 -8 16 -1 35 -6 42 -13 9 -9 12 -9 12 0 0 7 19 10 58 9 l57 -2 2 -70 c4 -167 4 -168 108 -269 83 -82 94 -97 115 -159 19 -60 21 -75 11 -128 -24 -138 -125 -253 -263 -300 -38 -13 -68 -26 -68 -30 0 -7 116 33 160 56 60 31 127 104 159 175 35 76 50 168 33 203 -6 12 -20 45 -32 72 -14 33 -43 71 -87 113 -37 34 -70 62 -74 62 -4 0 -10 8 -14 18 -10 24 -26 157 -25 213 0 27 -5 51 -13 57 -7 6 -40 12 -72 14 l-60 3 84 17 c46 10 86 20 88 22 2 2 1 14 -2 27 -6 23 -10 24 -98 25 -51 1 -110 -2 -132 -7z"/>
 <path d="M1067 1340 c-4 -14 -6 -36 -6 -50 1 -18 4 -14 10 14 10 44 6 75 -4 36z"/>
 <path d="M1001 1046 c-18 -22 -4 -74 21 -82 12 -3 24 -1 28 6 11 17 0 57 -20 75 -15 14 -19 14 -29 1z m34 -37 c4 -17 5 -33 2 -36 -9 -8 -39 45 -32 57 11 18 23 11 30 -21z"/>
 <path d="M924 1037 c-6 -17 12 -67 25 -67 5 0 12 12 15 26 10 38 -27 75 -40 41z m30 -14 c4 -9 2 -21 -4 -27 -7 -7 -10 -7 -10 1 0 6 -3 18 -6 27 -3 9 -2 16 4 16 5 0 13 -8 16 -17z"/>
 <path d="M741 874 c-27 -35 -27 -93 0 -145 20 -39 22 -41 57 -34 62 11 72 15 87 45 24 46 19 107 -10 135 -13 14 -32 25 -42 24 -15 0 -14 -2 4 -9 12 -5 29 -20 38 -34 21 -31 12 -99 -16 -127 -22 -22 -59 -25 -78 -6 -10 10 -11 8 -5 -8 7 -18 6 -18 -9 -6 -23 18 -40 87 -32 127 3 19 16 40 28 49 12 8 16 15 10 15 -6 0 -21 -12 -32 -26z"/>
 <path d="M1142 891 c49 -10 66 -26 74 -66 7 -38 -14 -85 -48 -107 -20 -14 -28 -14 -50 -2 -48 25 -66 116 -31 158 l18 21 -22 -19 c-45 -37 -36 -113 20 -165 21 -19 30 -22 54 -14 38 13 73 67 73 113 0 54 -25 80 -80 85 -43 4 -43 4 -8 -4z"/>
 <path d="M491 772 c-1 -25 14 -58 36 -80 17 -18 17 -3 -1 17 -8 9 -19 32 -24 51 -8 26 -10 29 -11 12z"/>
 <path d="M540 665 c0 -10 83 -119 109 -143 40 -36 37 -16 -3 24 -21 21 -51 57 -67 81 -28 40 -39 51 -39 38z"/>
 <path d="M690 499 c0 -5 24 -21 53 -34 55 -26 82 -32 72 -15 -3 6 -17 10 -29 10 -13 0 -40 11 -60 25 -20 13 -36 20 -36 14z"/>
 <path d="M1025 420 c-18 -8 -17 -9 8 -9 16 -1 26 3 22 9 -3 6 -7 10 -8 9 -1 0 -11 -4 -22 -9z"/>
 </g>
<g id="layer117" fill="#6b5c58" stroke="none">
 <path d="M120 1983 c0 -32 24 -123 33 -123 4 0 5 -4 2 -10 -3 -5 -1 -10 4 -10 6 0 10 -3 9 -7 -5 -16 29 -49 72 -70 25 -12 80 -29 123 -38 69 -15 131 -34 287 -90 25 -9 51 -24 58 -33 11 -15 14 -15 22 -2 5 8 12 40 15 70 6 54 13 86 60 248 l24 82 -355 0 c-328 0 -354 -1 -354 -17z"/>
 <path d="M923 1983 c33 -124 33 -113 3 -137 l-28 -22 46 -42 c52 -48 59 -47 111 8 l30 32 -29 23 c-29 23 -29 23 -18 81 7 31 12 61 12 66 0 4 -30 8 -66 8 -57 0 -65 -2 -61 -17z"/>
 <path d="M1164 1983 c40 -132 76 -271 76 -297 0 -18 5 -47 11 -65 10 -29 13 -31 28 -17 9 8 34 21 56 29 147 55 199 71 290 92 131 29 175 57 209 129 16 34 26 72 26 100 l0 46 -351 0 c-329 0 -350 -1 -345 -17z"/>
 <path d="M1015 1499 c-22 -4 -89 -9 -150 -10 -88 -2 -112 -5 -122 -18 -20 -26 -15 -41 13 -41 14 0 23 -4 19 -10 -3 -5 3 -10 14 -10 10 0 22 6 25 13 5 10 7 10 12 0 3 -7 12 -13 19 -13 7 0 15 -4 17 -8 2 -5 21 -7 44 -4 38 4 40 5 36 32 -3 24 0 30 21 35 13 4 38 5 53 3 25 -2 29 -8 32 -35 2 -22 -1 -33 -10 -34 -7 -1 -2 -4 12 -8 14 -4 37 -4 51 0 15 4 31 3 37 -3 6 -6 12 -6 16 1 6 10 -7 15 -59 23 -11 2 18 11 64 21 46 9 86 19 88 21 2 2 1 14 -2 27 -6 23 -10 24 -98 25 -51 1 -110 -2 -132 -7z"/>
 <path d="M1188 1398 c5 -7 12 -62 14 -123 3 -63 10 -121 18 -135 7 -14 46 -56 86 -93 95 -88 129 -155 128 -248 0 -69 -11 -105 -55 -181 -17 -28 -22 -45 -14 -42 29 11 83 138 91 215 7 64 -54 197 -115 252 -24 20 -45 37 -47 37 -11 0 -54 54 -54 66 0 8 -4 14 -8 14 -4 0 -6 16 -4 36 3 27 1 35 -7 29 -9 -5 -8 -1 1 14 10 17 10 25 0 41 -8 13 -10 35 -6 60 6 39 -6 70 -28 70 -7 0 -7 -4 0 -12z"/>
 <path d="M745 1328 c-2 -7 -6 -31 -8 -53 -3 -22 -8 -47 -12 -56 -3 -10 -2 -20 3 -23 14 -8 21 16 28 85 5 54 -1 77 -11 47z"/>
 <path d="M1062 1300 c0 -19 2 -27 5 -17 2 9 2 25 0 35 -3 9 -5 1 -5 -18z"/>
 <path d="M712 1164 c-7 -8 -10 -14 -6 -14 20 0 -33 -40 -71 -55 -25 -9 -45 -20 -45 -25 0 -4 -12 -16 -27 -27 -16 -10 -29 -24 -31 -32 -1 -7 10 0 26 15 16 16 55 42 86 59 36 18 63 40 73 58 16 33 14 42 -5 21z"/>
 <path d="M924 1037 c-6 -17 12 -67 25 -67 5 0 12 12 15 26 10 38 -27 75 -40 41z m32 -11 c3 -8 1 -23 -5 -33 -9 -16 -10 -16 -11 -1 0 9 -3 23 -6 32 -3 9 -1 16 5 16 7 0 14 -6 17 -14z"/>
 <path d="M1030 1031 c7 -13 10 -34 7 -47 -2 -13 0 -24 4 -24 15 0 10 55 -7 76 -14 18 -15 18 -4 -5z"/>
 <path d="M505 959 c-9 -17 -15 -34 -13 -39 2 -5 11 9 20 30 20 47 15 53 -7 9z"/>
 <path d="M870 865 c19 -20 22 -32 18 -70 -3 -25 -12 -54 -19 -63 -8 -10 -4 -7 9 6 15 16 22 35 22 63 0 40 -23 89 -43 89 -6 0 0 -11 13 -25z"/>
 <path d="M1195 870 c14 -15 20 -36 20 -67 0 -38 -5 -49 -33 -74 -19 -17 -26 -29 -18 -29 16 0 50 43 61 78 11 37 -3 90 -28 103 l-22 12 20 -23z"/>
 <path d="M730 861 c-22 -43 -3 -129 35 -161 14 -11 13 -7 -4 16 -27 37 -38 112 -22 143 7 11 9 21 7 21 -3 0 -10 -9 -16 -19z"/>
 <path d="M1054 807 c3 -10 6 -25 6 -32 0 -17 58 -85 71 -85 5 0 -6 16 -26 35 -19 20 -35 43 -35 53 0 9 -5 24 -11 32 -9 12 -10 12 -5 -3z"/>
 <path d="M1290 524 c-62 -49 -70 -59 -33 -40 35 18 89 64 82 71 -3 2 -25 -12 -49 -31z"/>
 </g>
<g id="layer118" fill="#4d4b4c" stroke="none">
 <path d="M120 1983 c0 -32 24 -123 33 -123 4 0 5 -4 2 -10 -3 -5 -1 -10 4 -10 6 0 10 -3 9 -7 -5 -16 29 -49 72 -70 25 -12 80 -29 123 -38 69 -15 131 -34 287 -90 25 -9 51 -23 57 -32 7 -9 15 -14 18 -11 4 3 13 45 20 94 8 48 26 122 39 163 14 42 28 93 32 114 l6 37 -351 0 c-325 0 -351 -1 -351 -17z"/>
 <path d="M924 1983 c3 -10 11 -40 17 -67 12 -48 12 -50 -15 -71 l-27 -22 46 -42 46 -42 27 19 c15 11 36 30 47 42 l20 22 -29 23 c-26 21 -28 27 -22 67 4 23 9 53 13 66 5 21 3 22 -62 22 -58 0 -66 -2 -61 -17z"/>
 <path d="M1181 1928 c11 -40 29 -102 40 -137 10 -35 19 -77 19 -95 0 -17 5 -48 11 -69 10 -35 12 -37 27 -24 9 9 35 22 57 30 147 55 199 71 290 92 131 29 175 57 209 129 16 34 26 72 26 100 l0 46 -349 0 -350 0 20 -72z"/>
 <path d="M1015 1499 c-22 -4 -89 -9 -150 -10 -88 -2 -112 -5 -122 -18 -21 -27 -15 -41 17 -41 17 0 30 -5 30 -11 0 -8 5 -7 16 2 13 10 17 10 24 0 4 -8 13 -10 19 -7 6 4 11 1 11 -8 0 -12 5 -14 24 -6 13 5 34 7 47 4 22 -4 22 -4 4 5 -11 5 -14 10 -7 10 6 1 12 10 12 21 0 22 31 33 76 28 26 -3 29 -7 29 -41 0 -23 5 -37 13 -37 6 0 15 0 19 -1 4 0 9 5 12 12 2 8 -2 10 -13 6 -10 -4 -16 -1 -16 8 0 8 6 12 14 9 13 -5 165 21 173 30 2 2 1 14 -2 27 -6 23 -10 24 -98 25 -51 1 -110 -2 -132 -7z"/>
 <path d="M1208 1384 c-5 -4 -8 -19 -8 -33 0 -18 3 -22 11 -14 6 6 9 21 7 33 -1 12 -6 18 -10 14z"/>
 <path d="M1201 1257 c0 -33 3 -56 8 -53 5 4 7 -3 4 -14 -8 -32 14 -73 60 -111 75 -62 109 -102 136 -158 45 -97 30 -218 -40 -325 l-21 -31 29 32 c53 59 96 215 72 263 -4 8 -19 41 -34 72 -23 50 -115 162 -115 141 0 -14 -60 59 -60 73 0 8 -4 14 -9 14 -6 0 -7 16 -4 37 4 26 3 34 -5 29 -7 -4 -12 -3 -12 3 0 5 6 11 13 14 9 3 9 7 1 18 -7 8 -14 23 -17 34 -2 11 -5 -6 -6 -38z"/>
 <path d="M740 1277 c0 -14 -3 -40 -6 -58 -4 -23 -2 -29 4 -19 15 25 24 88 12 95 -6 4 -10 -4 -10 -18z"/>
 <path d="M715 1166 c-5 -6 -11 -20 -13 -31 -2 -15 2 -13 14 8 16 30 16 43 -1 23z"/>
 <path d="M1206 855 c12 -18 15 -37 11 -63 -5 -25 -3 -32 3 -22 18 28 2 110 -22 110 -5 0 -1 -11 8 -25z"/>
 <path d="M888 797 c-3 -26 -14 -58 -24 -70 l-19 -22 22 19 c23 19 38 69 31 103 -2 10 -7 -4 -10 -30z"/>
 <path d="M1054 807 c3 -10 6 -25 6 -32 0 -17 58 -85 72 -85 5 0 -7 15 -26 34 -20 18 -36 42 -36 52 0 11 -5 26 -11 34 -9 12 -10 12 -5 -3z"/>
 <path d="M1284 515 c-21 -19 -31 -32 -21 -29 9 3 17 10 17 16 0 5 6 6 13 2 6 -4 9 -3 4 1 -4 5 5 17 20 27 16 10 23 18 17 18 -6 0 -28 -16 -50 -35z"/>
 </g>
<g id="layer119" fill="#c52703" stroke="none">
 <path d="M120 1983 c0 -32 24 -123 33 -123 4 0 5 -4 2 -10 -3 -5 -1 -10 4 -10 6 0 10 -3 9 -7 -5 -16 29 -49 72 -70 25 -12 80 -29 123 -38 69 -15 131 -34 287 -90 25 -9 51 -23 57 -32 7 -9 15 -14 18 -11 4 3 13 45 20 94 8 48 26 122 39 163 14 42 28 93 32 114 l6 37 -351 0 c-325 0 -351 -1 -351 -17z"/>
 <path d="M930 1973 c1 -16 7 -45 14 -66 13 -35 12 -38 -10 -56 -13 -10 -24 -24 -24 -29 0 -6 19 -26 41 -46 l42 -35 26 18 c14 10 34 28 45 40 18 20 18 21 -11 47 -32 28 -32 24 -8 132 5 21 2 22 -55 22 -59 0 -60 0 -60 -27z"/>
 <path d="M1181 1928 c11 -40 29 -102 40 -137 10 -35 19 -77 19 -95 0 -17 5 -48 11 -69 10 -35 12 -37 27 -24 9 9 35 22 57 30 147 55 199 71 290 92 131 29 175 57 209 129 16 34 26 72 26 100 l0 46 -349 0 -350 0 20 -72z"/>
 <path d="M1015 1499 c-22 -4 -90 -9 -151 -10 -107 -1 -113 -3 -125 -25 -16 -31 -11 -34 45 -36 25 0 46 -4 46 -8 0 -5 9 -6 20 -3 12 3 20 0 20 -7 0 -10 3 -10 14 -1 8 6 18 11 22 10 23 -4 34 3 34 21 0 37 100 42 110 5 3 -11 14 -21 25 -23 20 -2 165 24 172 32 2 2 1 14 -2 27 -6 23 -10 24 -98 25 -51 1 -110 -2 -132 -7z"/>
 <path d="M1203 1260 c0 -30 2 -43 4 -27 2 15 2 39 0 55 -2 15 -4 2 -4 -28z"/>
 <path d="M746 1273 c-2 -10 -7 -34 -10 -53 -8 -44 8 -11 17 38 7 34 2 45 -7 15z"/>
 <path d="M1211 1177 c-1 -23 28 -75 46 -81 10 -4 10 -1 0 14 -6 11 -15 20 -19 20 -4 0 -12 15 -17 33 -5 17 -10 24 -10 14z"/>
 <path d="M1280 1075 c0 -2 20 -19 45 -39 25 -21 42 -31 39 -23 -3 8 -16 20 -30 27 -13 7 -24 19 -24 25 0 6 -7 12 -15 12 -8 0 -15 -1 -15 -2z"/>
 <path d="M1404 928 c26 -53 31 -74 30 -133 0 -48 -7 -85 -22 -117 -11 -27 -19 -48 -17 -48 11 0 46 84 50 120 3 23 6 44 7 48 8 30 -53 192 -72 192 -4 0 7 -28 24 -62z"/>
 <path d="M1211 851 c6 -13 9 -40 5 -60 -4 -25 -2 -31 4 -21 15 23 12 64 -6 86 -14 18 -15 18 -3 -5z"/>
 <path d="M1061 778 c-1 -9 9 -27 22 -40 12 -13 17 -17 10 -8 -7 8 -16 27 -22 40 -6 17 -10 19 -10 8z"/>
 </g>
<g id="layer120" fill="#764432" stroke="none">
 <path d="M120 1983 c0 -32 24 -123 33 -123 4 0 5 -4 2 -10 -3 -5 -1 -10 4 -10 6 0 10 -3 9 -7 -5 -16 29 -49 72 -70 25 -12 80 -29 123 -38 69 -15 131 -34 287 -90 25 -9 51 -23 57 -32 7 -9 15 -14 18 -11 4 3 13 45 20 94 8 48 26 122 39 163 14 42 28 93 32 114 l6 37 -351 0 c-325 0 -351 -1 -351 -17z"/>
 <path d="M930 1973 c1 -16 7 -45 14 -66 13 -35 12 -38 -10 -56 -13 -10 -24 -24 -24 -29 0 -6 19 -26 41 -46 l42 -35 26 18 c14 10 34 28 45 40 18 20 18 21 -11 47 -32 28 -32 24 -8 132 5 21 2 22 -55 22 -59 0 -60 0 -60 -27z"/>
 <path d="M1181 1928 c11 -40 29 -102 40 -137 10 -35 19 -77 19 -95 0 -17 5 -48 11 -69 10 -35 12 -37 27 -24 9 9 35 22 57 30 147 55 199 71 290 92 131 29 175 57 209 129 16 34 26 72 26 100 l0 46 -349 0 -350 0 20 -72z"/>
 <path d="M1203 1260 c0 -30 2 -43 4 -27 2 15 2 39 0 55 -2 15 -4 2 -4 -28z"/>
 <path d="M746 1273 c-2 -10 -7 -34 -10 -53 -8 -44 8 -11 17 38 7 34 2 45 -7 15z"/>
 <path d="M1211 1177 c-1 -23 28 -75 46 -81 10 -4 10 -1 0 14 -6 11 -15 20 -19 20 -4 0 -12 15 -17 33 -5 17 -10 24 -10 14z"/>
 <path d="M1280 1075 c0 -2 20 -19 45 -39 25 -21 42 -31 39 -23 -3 8 -16 20 -30 27 -13 7 -24 19 -24 25 0 6 -7 12 -15 12 -8 0 -15 -1 -15 -2z"/>
 <path d="M1404 928 c26 -53 31 -74 30 -133 0 -48 -7 -85 -22 -117 -11 -27 -19 -48 -17 -48 11 0 46 84 50 120 3 23 6 44 7 48 8 30 -53 192 -72 192 -4 0 7 -28 24 -62z"/>
 <path d="M1211 851 c6 -13 9 -40 5 -60 -4 -25 -2 -31 4 -21 15 23 12 64 -6 86 -14 18 -15 18 -3 -5z"/>
 <path d="M1061 778 c-1 -9 9 -27 22 -40 12 -13 17 -17 10 -8 -7 8 -16 27 -22 40 -6 17 -10 19 -10 8z"/>
 </g>
<g id="layer121" fill="#5f423f" stroke="none">
 <path d="M120 1983 c0 -32 24 -123 33 -123 4 0 5 -4 2 -10 -3 -5 -1 -10 4 -10 6 0 10 -3 9 -7 -5 -16 29 -49 72 -70 25 -12 80 -29 123 -38 69 -15 131 -34 287 -90 25 -9 51 -23 57 -32 7 -9 15 -14 18 -11 4 3 13 45 20 94 8 48 26 122 39 163 14 42 28 93 32 114 l6 37 -331 0 c-229 0 -331 -3 -331 -11 0 -6 11 -44 25 -86 14 -42 24 -77 22 -80 -7 -7 -46 93 -53 136 -6 40 -34 60 -34 24z m124 -166 c-3 -10 15 -20 58 -35 60 -20 61 -21 18 -15 -25 3 -58 12 -73 20 -23 12 -26 17 -16 29 14 18 20 18 13 1z"/>
 <path d="M930 1973 c1 -16 7 -45 14 -66 13 -35 12 -38 -10 -56 -13 -10 -24 -23 -24 -29 0 -15 68 -72 85 -72 9 0 32 15 52 34 l37 34 -30 27 c-33 29 -33 25 -9 133 5 21 2 22 -55 22 -59 0 -60 0 -60 -27z"/>
 <path d="M1181 1928 c11 -40 29 -102 40 -137 10 -35 19 -77 19 -95 0 -17 5 -48 11 -69 10 -35 12 -37 27 -24 9 9 35 22 57 30 147 55 199 71 290 92 131 29 175 57 209 129 16 34 26 72 26 100 0 55 -15 61 -25 9 -9 -52 -45 -143 -55 -143 -5 0 -1 19 9 43 10 23 21 56 25 72 4 17 9 38 12 48 5 16 -15 17 -330 17 l-335 0 20 -72z m579 -113 c10 -13 7 -17 -21 -29 -19 -7 -52 -16 -74 -20 -35 -5 -33 -3 20 17 33 13 59 28 58 35 -4 16 2 15 17 -3z"/>
 <path d="M1203 1260 c0 -30 2 -43 4 -27 2 15 2 39 0 55 -2 15 -4 2 -4 -28z"/>
 <path d="M746 1273 c-2 -10 -7 -34 -10 -53 -8 -44 8 -11 17 38 7 34 2 45 -7 15z"/>
 <path d="M1211 1177 c-1 -23 28 -75 46 -81 10 -4 10 -1 0 14 -6 11 -15 20 -19 20 -4 0 -12 15 -17 33 -5 17 -10 24 -10 14z"/>
 <path d="M1280 1075 c0 -2 20 -19 45 -39 25 -21 42 -31 39 -23 -3 8 -16 20 -30 27 -13 7 -24 19 -24 25 0 6 -7 12 -15 12 -8 0 -15 -1 -15 -2z"/>
 <path d="M1404 928 c26 -53 31 -74 30 -133 0 -48 -7 -85 -22 -117 -11 -27 -19 -48 -17 -48 11 0 46 84 50 120 3 23 6 44 7 48 8 30 -53 192 -72 192 -4 0 7 -28 24 -62z"/>
 <path d="M1211 851 c6 -13 9 -40 5 -60 -4 -25 -2 -31 4 -21 15 23 12 64 -6 86 -14 18 -15 18 -3 -5z"/>
 <path d="M1061 778 c-1 -9 9 -27 22 -40 12 -13 17 -17 10 -8 -7 8 -16 27 -22 40 -6 17 -10 19 -10 8z"/>
 </g>
<g id="layer122" fill="#434043" stroke="none">
 <path d="M120 1983 c0 -32 24 -123 33 -123 4 0 5 -4 2 -10 -3 -5 -1 -10 4 -10 6 0 10 -3 9 -7 -5 -16 29 -49 72 -70 25 -12 80 -29 123 -38 69 -15 131 -34 287 -90 25 -9 51 -23 57 -32 18 -24 23 -14 34 69 6 40 23 116 39 168 15 52 31 110 35 128 l7 32 -331 0 c-229 0 -331 -3 -331 -11 0 -6 11 -44 25 -86 14 -42 24 -77 22 -80 -7 -7 -46 93 -53 136 -6 40 -34 60 -34 24z m124 -166 c-3 -10 15 -20 58 -35 60 -20 61 -21 18 -15 -25 3 -58 12 -73 20 -23 12 -26 17 -16 29 14 18 20 18 13 1z"/>
 <path d="M930 1973 c1 -16 7 -45 14 -66 13 -35 12 -38 -10 -56 -13 -10 -24 -23 -24 -29 0 -15 68 -72 85 -72 9 0 32 15 52 34 l37 34 -30 27 c-33 29 -33 25 -9 133 5 21 2 22 -55 22 -59 0 -60 0 -60 -27z"/>
 <path d="M1170 1984 c0 -8 16 -70 35 -137 19 -67 35 -135 35 -152 0 -16 5 -47 11 -68 10 -35 12 -37 27 -24 9 9 35 22 57 30 147 55 199 71 290 92 131 29 175 57 209 129 16 34 26 72 26 100 0 55 -15 61 -25 9 -9 -52 -45 -143 -55 -143 -5 0 -1 19 9 43 10 23 21 56 25 72 4 17 9 38 12 48 5 16 -15 17 -325 17 -293 0 -331 -2 -331 -16z m590 -169 c10 -13 7 -17 -21 -29 -19 -7 -52 -16 -74 -20 -35 -5 -33 -3 20 17 33 13 59 28 58 35 -4 16 2 15 17 -3z"/>
 <path d="M1203 1260 c0 -30 2 -43 4 -27 2 15 2 39 0 55 -2 15 -4 2 -4 -28z"/>
 <path d="M746 1273 c-2 -10 -7 -34 -10 -53 -8 -44 8 -11 17 38 7 34 2 45 -7 15z"/>
 <path d="M1211 1177 c-1 -23 28 -75 46 -81 10 -4 10 -1 0 14 -6 11 -15 20 -19 20 -4 0 -12 15 -17 33 -5 17 -10 24 -10 14z"/>
 <path d="M1280 1075 c0 -2 20 -19 45 -39 25 -21 42 -31 39 -23 -3 8 -16 20 -30 27 -13 7 -24 19 -24 25 0 6 -7 12 -15 12 -8 0 -15 -1 -15 -2z"/>
 <path d="M1404 928 c26 -53 31 -74 30 -133 0 -48 -7 -85 -22 -117 -11 -27 -19 -48 -17 -48 11 0 46 84 50 120 3 23 6 44 7 48 8 30 -53 192 -72 192 -4 0 7 -28 24 -62z"/>
 <path d="M1211 851 c6 -13 9 -40 5 -60 -4 -25 -2 -31 4 -21 15 23 12 64 -6 86 -14 18 -15 18 -3 -5z"/>
 <path d="M1061 778 c-1 -9 9 -27 22 -40 12 -13 17 -17 10 -8 -7 8 -16 27 -22 40 -6 17 -10 19 -10 8z"/>
 </g>
<g id="layer123" fill="#59362e" stroke="none">
 <path d="M120 1983 c0 -32 24 -123 33 -123 4 0 5 -4 2 -10 -3 -5 -1 -10 4 -10 6 0 10 -3 9 -7 -5 -16 29 -49 72 -70 25 -12 80 -29 123 -38 69 -15 131 -34 287 -90 25 -9 51 -23 57 -32 18 -24 23 -14 34 69 6 40 23 116 39 168 15 52 31 110 35 128 l7 32 -331 0 c-229 0 -331 -3 -331 -11 0 -6 11 -44 25 -86 14 -42 24 -77 22 -80 -7 -7 -46 93 -53 136 -6 40 -34 60 -34 24z m124 -166 c-3 -10 15 -20 58 -35 60 -20 61 -21 18 -15 -25 3 -58 12 -73 20 -23 12 -26 17 -16 29 14 18 20 18 13 1z"/>
 <path d="M930 1976 c0 -13 7 -43 15 -67 12 -34 13 -44 3 -51 -44 -26 -44 -26 -23 -53 11 -15 32 -34 46 -42 25 -15 28 -15 57 6 44 31 50 57 17 82 -16 13 -24 27 -20 38 2 9 9 37 14 64 l8 47 -58 0 c-55 0 -59 -1 -59 -24z"/>
 <path d="M1170 1984 c0 -8 16 -70 35 -137 19 -67 35 -135 35 -152 0 -16 5 -47 11 -68 10 -35 12 -37 27 -24 9 9 35 22 57 30 147 55 199 71 290 92 131 29 175 57 209 129 16 34 26 72 26 100 0 55 -15 61 -25 9 -9 -52 -45 -143 -55 -143 -5 0 -1 19 9 43 10 23 21 56 25 72 4 17 9 38 12 48 5 16 -15 17 -325 17 -293 0 -331 -2 -331 -16z m590 -169 c10 -13 7 -17 -21 -29 -19 -7 -52 -16 -74 -20 -35 -5 -33 -3 20 17 33 13 59 28 58 35 -4 16 2 15 17 -3z"/>
 <path d="M1203 1265 c0 -22 2 -30 4 -17 2 12 2 30 0 40 -3 9 -5 -1 -4 -23z"/>
 <path d="M1443 810 c0 -25 2 -35 4 -22 2 12 2 32 0 45 -2 12 -4 2 -4 -23z"/>
 </g>
<g id="layer124" fill="#653220" stroke="none">
 <path d="M120 1983 c0 -32 24 -123 33 -123 4 0 5 -4 2 -10 -3 -5 -1 -10 4 -10 6 0 10 -3 9 -7 -5 -16 29 -49 72 -70 25 -12 80 -29 123 -38 69 -15 131 -34 287 -90 25 -9 51 -23 57 -32 7 -9 15 -15 17 -12 3 2 12 47 20 99 8 52 26 127 39 165 13 39 27 87 31 108 l7 37 -331 0 c-228 0 -330 -3 -330 -11 0 -6 11 -44 25 -86 14 -42 24 -77 22 -80 -7 -7 -46 93 -53 136 -6 40 -34 60 -34 24z m124 -166 c-3 -10 15 -20 58 -35 60 -20 61 -21 18 -15 -25 3 -58 12 -73 20 -23 12 -26 17 -16 29 14 18 20 18 13 1z"/>
 <path d="M930 1976 c0 -13 7 -43 15 -67 12 -34 13 -44 3 -51 -44 -26 -44 -26 -23 -53 11 -15 32 -34 46 -42 25 -15 28 -15 57 6 44 31 50 57 17 82 -16 13 -24 27 -20 38 2 9 9 37 14 64 l8 47 -58 0 c-55 0 -59 -1 -59 -24z"/>
 <path d="M1170 1986 c0 -7 14 -60 31 -117 17 -57 35 -135 40 -174 13 -101 17 -110 37 -92 10 9 35 22 57 30 147 55 199 71 290 92 131 29 175 57 209 129 16 34 26 72 26 100 0 55 -15 61 -25 9 -9 -52 -45 -143 -55 -143 -5 0 -1 19 9 43 10 23 21 56 25 72 4 17 9 38 12 48 5 16 -15 17 -325 17 -274 0 -331 -2 -331 -14z m590 -171 c10 -13 7 -17 -21 -29 -19 -7 -52 -16 -74 -20 -35 -5 -33 -3 20 17 33 13 59 28 58 35 -4 16 2 15 17 -3z"/>
 <path d="M1203 1265 c0 -22 2 -30 4 -17 2 12 2 30 0 40 -3 9 -5 -1 -4 -23z"/>
 <path d="M1443 810 c0 -25 2 -35 4 -22 2 12 2 32 0 45 -2 12 -4 2 -4 -23z"/>
 </g>
<g id="layer125" fill="#582818" stroke="none">
 <path d="M120 1983 c0 -32 24 -123 33 -123 4 0 5 -4 2 -10 -3 -5 -1 -10 4 -10 6 0 10 -3 9 -7 -5 -16 29 -49 72 -70 25 -12 80 -29 123 -38 69 -15 131 -34 287 -90 25 -9 51 -23 57 -32 7 -9 15 -15 17 -12 3 2 12 47 20 99 8 52 26 127 39 165 49 143 43 208 -7 73 -32 -89 -56 -198 -56 -257 l0 -45 -27 26 c-16 13 -49 40 -75 58 -27 18 -48 38 -48 44 0 6 14 23 31 37 33 27 33 49 0 49 -9 0 -25 6 -34 13 -16 11 -16 16 4 75 20 59 20 88 0 66 -16 -17 -42 -114 -36 -133 3 -11 19 -22 35 -26 17 -4 30 -9 30 -11 0 -2 -14 -17 -32 -33 l-32 -28 25 -24 c13 -13 42 -38 64 -56 l40 -32 -60 24 c-53 21 -153 51 -333 102 -41 11 -58 22 -73 46 -18 31 -41 94 -53 150 -7 30 -26 37 -26 10z"/>
 <path d="M296 1985 c-4 -11 -24 -55 -46 -97 -21 -43 -36 -78 -32 -78 22 0 98 159 89 184 -3 6 -8 2 -11 -9z"/>
 <path d="M930 1976 c0 -13 7 -43 15 -67 12 -34 13 -44 3 -51 -44 -26 -44 -26 -23 -53 11 -15 32 -34 46 -42 25 -15 28 -15 57 6 44 31 50 57 17 82 -16 13 -24 27 -20 38 2 9 9 37 14 64 l8 47 -58 0 c-55 0 -59 -1 -59 -24z"/>
 <path d="M1170 1987 c0 -8 14 -61 31 -118 17 -57 35 -135 40 -174 13 -101 17 -110 37 -92 10 9 35 22 57 30 147 55 199 71 290 92 131 29 175 57 209 129 16 34 26 72 26 100 0 58 -15 60 -23 3 -6 -42 -47 -147 -57 -147 -3 0 -27 44 -53 98 -27 57 -47 88 -47 74 0 -25 41 -113 71 -151 11 -13 19 -27 19 -32 0 -5 -24 -15 -52 -23 -193 -52 -286 -80 -333 -101 -30 -13 -55 -21 -55 -17 1 4 23 23 50 42 64 45 71 65 34 95 -16 13 -27 25 -24 27 3 1 19 10 35 19 23 12 30 21 28 43 -3 42 -34 116 -49 116 -10 0 -6 -18 12 -67 24 -64 24 -68 8 -80 -10 -7 -26 -13 -35 -13 -33 0 -33 -23 -1 -51 18 -16 32 -32 32 -36 0 -5 -22 -23 -48 -42 -26 -19 -62 -48 -79 -65 l-33 -30 0 85 c0 70 -6 104 -34 189 -31 93 -56 137 -56 97z"/>
 <path d="M1203 1265 c0 -22 2 -30 4 -17 2 12 2 30 0 40 -3 9 -5 -1 -4 -23z"/>
 <path d="M1443 810 c0 -25 2 -35 4 -22 2 12 2 32 0 45 -2 12 -4 2 -4 -23z"/>
 </g>
<g id="layer126" fill="#312f30" stroke="none">
 <path d="M120 1983 c0 -32 24 -123 33 -123 4 0 5 -4 2 -10 -3 -5 -1 -10 4 -10 6 0 10 -3 9 -7 -5 -16 29 -49 72 -70 25 -12 80 -29 123 -38 69 -15 131 -34 287 -90 25 -9 51 -23 57 -32 7 -9 15 -14 18 -12 2 3 10 40 16 83 5 43 23 119 38 169 36 116 45 157 34 157 -14 0 -77 -232 -81 -300 -2 -36 -8 -69 -13 -75 -6 -5 -9 -5 -9 1 0 6 -15 21 -32 34 -24 17 -29 19 -18 5 18 -22 19 -23 -123 29 -55 20 -136 45 -182 55 -46 10 -99 27 -117 38 -38 22 -82 104 -93 171 -6 41 -25 60 -25 25z"/>
 <path d="M551 1935 c-13 -36 -21 -69 -18 -72 6 -6 15 12 43 91 16 45 16 46 6 46 -5 0 -19 -29 -31 -65z"/>
 <path d="M930 1976 c0 -13 7 -43 15 -67 12 -34 13 -44 3 -51 -44 -26 -44 -26 -23 -53 11 -15 32 -34 46 -42 25 -15 28 -15 57 6 44 31 50 57 17 82 -16 13 -24 27 -20 38 2 9 9 37 14 64 l8 47 -58 0 c-55 0 -59 -1 -59 -24z"/>
 <path d="M1170 1989 c0 -9 16 -69 35 -135 19 -65 35 -129 35 -141 0 -12 5 -45 11 -73 10 -47 12 -50 27 -36 10 8 35 21 57 29 147 55 199 71 290 92 58 13 119 34 143 48 51 33 92 114 92 184 -1 54 -13 43 -25 -21 -18 -105 -75 -165 -171 -179 -54 -9 -251 -70 -291 -90 -42 -22 -60 -22 -42 0 13 15 12 15 -9 4 -12 -6 -28 -21 -35 -31 -6 -11 -15 -20 -18 -20 -3 0 -9 32 -12 71 -8 100 -87 368 -87 298z"/>
 <path d="M1405 1978 c16 -54 38 -108 45 -108 5 0 -1 29 -13 65 -12 36 -25 65 -30 65 -4 0 -5 -10 -2 -22z"/>
 <path d="M580 1795 c-19 -19 -32 -36 -29 -39 3 -3 23 12 44 34 47 49 34 53 -15 5z"/>
 <path d="M1395 1790 c21 -22 41 -37 44 -34 6 6 -63 74 -75 74 -5 0 9 -18 31 -40z"/>
 <path d="M1203 1265 c0 -22 2 -30 4 -17 2 12 2 30 0 40 -3 9 -5 -1 -4 -23z"/>
 <path d="M1443 810 c0 -25 2 -35 4 -22 2 12 2 32 0 45 -2 12 -4 2 -4 -23z"/>
 </g>
<g id="layer127" fill="#481b0b" stroke="none">
 <path d="M120 1983 c0 -32 24 -123 33 -123 4 0 5 -4 2 -10 -3 -5 -1 -10 4 -10 6 0 10 -3 9 -7 -5 -16 29 -49 72 -70 25 -12 80 -29 123 -38 69 -15 131 -34 287 -90 25 -9 51 -23 57 -32 7 -9 15 -14 18 -12 2 3 10 40 16 83 5 43 23 119 38 169 36 116 45 157 34 157 -14 0 -77 -232 -81 -300 -2 -36 -8 -69 -13 -75 -6 -5 -9 -5 -9 1 0 6 -15 21 -32 34 -24 17 -29 19 -18 5 18 -22 19 -23 -123 29 -55 20 -136 45 -182 55 -46 10 -99 27 -117 38 -38 22 -82 104 -93 171 -6 41 -25 60 -25 25z"/>
 <path d="M551 1935 c-13 -36 -21 -69 -18 -72 6 -6 15 12 43 91 16 45 16 46 6 46 -5 0 -19 -29 -31 -65z"/>
 <path d="M930 1980 c0 -10 7 -40 16 -66 13 -39 14 -49 2 -55 -45 -28 -45 -26 -3 -69 21 -22 44 -40 50 -40 6 0 27 16 46 36 l34 35 -28 25 c-28 24 -28 26 -18 75 17 80 18 79 -44 79 -48 0 -55 -2 -55 -20z"/>
 <path d="M1170 1989 c0 -9 16 -69 35 -135 19 -65 35 -129 35 -141 0 -12 5 -45 11 -73 10 -47 12 -50 27 -36 10 8 35 21 57 29 147 55 199 71 290 92 58 13 119 34 143 48 51 33 92 114 92 184 -1 54 -13 43 -25 -21 -18 -105 -75 -165 -171 -179 -54 -9 -251 -70 -291 -90 -42 -22 -60 -22 -42 0 13 15 12 15 -9 4 -12 -6 -28 -21 -35 -31 -6 -11 -15 -20 -18 -20 -3 0 -9 32 -12 71 -8 100 -87 368 -87 298z"/>
 <path d="M1405 1978 c16 -54 38 -108 45 -108 5 0 -1 29 -13 65 -12 36 -25 65 -30 65 -4 0 -5 -10 -2 -22z"/>
 <path d="M580 1795 c-19 -19 -32 -36 -29 -39 3 -3 23 12 44 34 47 49 34 53 -15 5z"/>
 <path d="M1395 1790 c21 -22 41 -37 44 -34 6 6 -63 74 -75 74 -5 0 9 -18 31 -40z"/>
 </g>
<g id="layer128" fill="#350b03" stroke="none">
 <path d="M120 1975 c0 -14 7 -42 15 -61 8 -20 12 -40 9 -45 -3 -5 0 -9 6 -9 6 0 8 -4 5 -10 -3 -5 -1 -10 4 -10 6 0 10 -3 9 -7 -10 -30 82 -87 157 -98 45 -7 204 -56 325 -100 25 -9 51 -23 58 -32 13 -19 17 -6 3 15 -13 20 -302 120 -398 138 -73 13 -109 39 -137 99 -13 30 -28 75 -31 100 -8 48 -25 62 -25 20z"/>
 <path d="M806 1983 c-56 -191 -76 -272 -75 -311 2 -46 2 -46 9 13 4 33 21 105 37 160 17 55 34 112 37 128 7 30 1 38 -8 10z"/>
 <path d="M930 1980 c0 -10 7 -40 16 -66 13 -39 14 -49 2 -55 -45 -28 -45 -26 -3 -69 21 -22 44 -40 50 -40 6 0 27 16 46 36 l34 35 -28 25 c-28 24 -28 26 -18 75 17 80 18 79 -44 79 -48 0 -55 -2 -55 -20z"/>
 <path d="M1170 1990 c0 -7 15 -65 34 -129 19 -64 37 -129 39 -146 l4 -30 2 30 c0 17 -15 87 -35 155 -35 122 -44 147 -44 120z"/>
 <path d="M1843 1950 c-18 -86 -50 -148 -85 -166 -17 -9 -74 -26 -127 -39 -148 -37 -328 -101 -355 -127 -22 -22 -21 -35 2 -15 9 8 35 22 57 30 147 55 199 71 290 92 131 29 175 56 210 130 19 41 25 68 23 103 l-3 47 -12 -55z"/>
 <path d="M1252 1650 c0 -19 2 -27 5 -17 2 9 2 25 0 35 -3 9 -5 1 -5 -18z"/>
 </g>
<g id="layer129" fill="#0c0a0a" stroke="none">
 <path d="M930 1980 c0 -10 7 -40 16 -66 13 -39 14 -49 2 -55 -45 -28 -45 -26 -3 -69 21 -22 44 -40 50 -40 6 0 27 16 46 36 l34 35 -28 25 c-28 24 -28 26 -18 75 17 80 18 79 -44 79 -48 0 -55 -2 -55 -20z"/>
 </g>

</svg>