<!DOCTYPE svg PUBLIC "-//W3C//DTD SVG 20010904//EN" "http://www.w3.org/TR/2001/REC-SVG-20010904/DTD/svg10.dtd">
<svg version="1.0" xmlns="http://www.w3.org/2000/svg" width="200px" height="200px" viewBox="0 0 2000 2000" preserveAspectRatio="xMidYMid meet">
<g id="layer101" fill="#f2f0f3" stroke="none">
 <path d="M130 1983 c1 -37 22 -110 46 -158 30 -61 72 -86 188 -110 105 -23 321 -98 346 -120 22 -20 21 -32 -7 -97 -14 -33 -19 -37 -42 -32 -45 11 -119 72 -158 132 -9 12 -22 22 -29 22 -16 0 -19 -26 -5 -34 5 -3 14 -21 20 -38 l11 -33 -24 30 c-14 17 -25 33 -26 38 0 4 -7 7 -16 7 -18 0 -18 1 17 -95 12 -33 24 -95 27 -137 l5 -78 -41 0 c-51 0 -142 33 -201 72 -26 18 -47 25 -50 19 -4 -6 -12 -7 -21 -1 -24 15 -40 12 -40 -9 0 -14 -6 -17 -24 -14 -22 5 -23 2 -29 -69 -4 -40 -9 -124 -13 -185 -7 -110 -7 -113 -30 -113 -32 0 -31 -28 1 -36 23 -6 24 -10 27 -96 l3 -91 42 -12 c23 -7 58 -16 77 -19 30 -6 35 -4 30 9 -5 11 1 15 20 15 16 0 26 -6 26 -14 0 -21 29 -47 43 -39 16 10 -27 -48 -55 -74 -12 -11 -45 -34 -73 -50 -61 -36 -75 -68 -23 -52 18 5 81 10 139 11 94 1 110 -1 147 -22 76 -43 79 -134 11 -276 -17 -36 -29 -67 -27 -69 2 -2 46 25 98 60 177 121 272 134 352 49 32 -35 88 -145 88 -173 0 -30 28 -26 36 5 5 19 9 22 15 13 11 -19 23 -4 38 50 27 93 56 109 130 71 43 -21 146 -129 188 -196 33 -52 69 -62 59 -16 -6 24 -5 25 7 10 8 -10 21 -18 28 -18 12 0 13 12 5 74 -7 54 -6 91 4 135 19 91 27 97 122 93 32 -2 37 -6 40 -29 3 -23 12 -29 72 -50 73 -24 101 -29 92 -15 -2 4 21 5 52 1 93 -12 112 -11 112 7 0 11 6 14 21 9 21 -7 22 -6 15 61 -3 38 -11 94 -16 124 -5 30 -14 87 -20 125 -21 133 -17 124 -63 127 l-42 3 38 18 c50 24 71 57 62 97 -7 34 -59 90 -82 90 -20 0 -101 -49 -111 -67 -7 -12 -20 -9 -78 22 -114 60 -138 120 -90 220 23 50 102 148 137 173 11 7 19 20 19 28 0 16 -21 19 -36 4 -16 -16 -145 -50 -191 -50 -56 0 -143 33 -176 68 -47 49 -70 117 -70 210 0 62 4 87 15 99 21 20 243 96 344 118 116 24 158 49 188 110 24 48 45 121 46 158 0 16 -48 17 -870 17 -822 0 -870 -1 -870 -17z m1688 -1295 c18 -18 14 -28 -12 -28 l-24 0 4 -102 4 -103 -14 60 c-7 33 -21 84 -29 112 -15 49 -15 53 1 63 23 13 56 12 70 -2z"/>
 </g>
<g id="layer102" fill="#d7d1d9" stroke="none">
 <path d="M130 1983 c1 -37 22 -110 46 -158 30 -61 72 -86 188 -110 105 -23 321 -98 346 -120 22 -20 21 -32 -7 -97 -14 -33 -19 -37 -42 -32 -45 11 -119 72 -158 132 -9 12 -22 22 -29 22 -16 0 -19 -26 -5 -34 5 -3 14 -21 20 -38 l11 -33 -24 30 c-14 17 -25 33 -26 38 0 4 -7 7 -16 7 -18 0 -18 1 17 -95 12 -33 24 -95 27 -137 l5 -78 -41 0 c-51 0 -142 33 -201 72 -26 18 -47 25 -50 19 -4 -6 -12 -7 -21 -1 -24 15 -40 12 -40 -9 0 -14 -6 -17 -24 -14 -22 5 -23 2 -29 -69 -4 -40 -9 -124 -13 -185 -7 -110 -7 -113 -30 -113 -32 0 -31 -28 1 -36 23 -6 24 -10 27 -96 l3 -91 42 -12 c23 -7 58 -16 77 -19 30 -6 35 -4 30 9 -5 11 1 15 20 15 16 0 26 -6 26 -14 0 -21 29 -47 43 -39 16 10 -27 -48 -55 -74 -12 -11 -45 -34 -73 -50 -61 -36 -75 -68 -23 -52 18 5 81 10 139 11 94 1 110 -1 147 -22 76 -43 79 -134 11 -276 -17 -36 -29 -67 -27 -69 2 -2 46 25 98 60 177 121 272 134 352 49 32 -35 88 -145 88 -173 0 -30 28 -26 36 5 5 19 9 22 15 13 11 -19 23 -4 38 50 27 93 56 109 130 71 43 -21 146 -129 188 -196 33 -52 69 -62 59 -16 -6 24 -5 25 7 10 8 -10 21 -18 28 -18 12 0 13 12 5 74 -7 54 -6 91 4 135 19 91 27 97 122 93 32 -2 37 -6 40 -29 3 -23 12 -29 72 -50 73 -24 101 -29 92 -15 -2 4 21 5 52 1 93 -12 112 -11 112 7 0 11 6 14 21 9 21 -7 22 -6 15 61 -3 38 -11 94 -16 124 -5 30 -14 87 -20 125 -21 133 -17 124 -63 127 l-42 3 38 18 c50 24 71 57 62 97 -7 34 -59 90 -82 90 -20 0 -101 -49 -111 -67 -7 -12 -20 -9 -78 22 -114 60 -138 120 -90 220 23 50 102 148 137 173 11 7 19 20 19 28 0 16 -21 19 -36 4 -16 -16 -145 -50 -191 -50 -56 0 -143 33 -176 68 -47 49 -70 117 -70 210 0 62 4 87 15 99 21 20 243 96 344 118 116 24 158 49 188 110 24 48 45 121 46 158 0 16 -23 17 -355 17 l-355 0 6 -24 c6 -24 -19 -83 -58 -138 l-18 -27 -26 24 c-24 23 -25 26 -15 81 17 88 20 84 -59 84 -38 0 -70 -2 -70 -4 0 -3 7 -35 16 -73 15 -67 15 -68 -7 -86 -22 -18 -24 -18 -37 0 -34 45 -63 116 -58 139 l6 24 -355 0 c-332 0 -355 -1 -355 -17z m800 -213 l40 -40 -38 -23 c-70 -45 -121 -67 -127 -57 -10 17 -25 1 -25 -28 -1 -25 -2 -25 -12 -8 -6 11 -11 32 -10 47 1 25 57 222 69 242 3 5 18 -14 35 -43 16 -28 47 -69 68 -90z m277 25 c40 -129 50 -202 27 -202 -9 0 -23 11 -31 24 -9 14 -51 42 -95 64 -43 21 -78 42 -78 45 0 3 20 26 44 51 24 24 54 64 67 88 13 24 26 41 30 37 3 -4 20 -52 36 -107z m611 -1107 c18 -18 14 -28 -12 -28 l-24 0 4 -102 4 -103 -14 60 c-7 33 -21 84 -29 112 -15 49 -15 53 1 63 23 13 56 12 70 -2z"/>
 </g>
<g id="layer103" fill="#f7f700" stroke="none">
 <path d="M130 1983 c1 -37 22 -110 46 -158 30 -61 72 -86 188 -110 105 -23 321 -98 346 -120 22 -20 21 -32 -7 -97 -14 -33 -19 -37 -42 -32 -45 11 -119 72 -158 132 -9 12 -22 22 -29 22 -16 0 -19 -26 -5 -34 5 -3 14 -21 20 -38 l11 -33 -24 30 c-14 17 -25 33 -26 38 0 4 -7 7 -16 7 -18 0 -18 1 17 -95 12 -33 24 -95 27 -137 l5 -78 -41 0 c-51 0 -142 33 -201 72 -26 18 -47 25 -50 19 -4 -6 -12 -7 -21 -1 -24 15 -40 12 -40 -9 0 -14 -6 -17 -24 -14 -22 5 -23 2 -29 -69 -4 -40 -9 -124 -13 -185 -7 -110 -7 -113 -30 -113 -32 0 -31 -28 1 -36 23 -6 24 -10 27 -96 l3 -91 42 -12 c23 -7 58 -16 77 -19 30 -6 35 -4 30 9 -5 11 1 15 20 15 16 0 26 -6 26 -14 0 -21 29 -47 43 -39 16 10 -27 -48 -55 -74 -12 -11 -45 -34 -73 -50 -61 -36 -75 -68 -23 -52 18 5 81 10 139 11 94 1 110 -1 147 -22 76 -43 79 -134 11 -276 -17 -36 -29 -67 -27 -69 2 -2 46 25 98 60 177 121 272 134 352 49 32 -35 88 -145 88 -173 0 -30 28 -26 36 5 5 19 9 22 15 13 11 -19 23 -4 38 50 27 93 56 109 130 71 43 -21 146 -129 188 -196 33 -52 69 -62 59 -16 -6 24 -5 25 7 10 8 -10 21 -18 28 -18 12 0 13 12 5 74 -7 54 -6 91 4 135 19 91 27 97 122 93 32 -2 37 -6 40 -29 3 -23 12 -29 72 -50 73 -24 101 -29 92 -15 -2 4 21 5 52 1 93 -12 112 -11 112 7 0 11 6 14 21 9 21 -7 22 -6 15 61 -3 38 -11 94 -16 124 -5 30 -14 87 -20 125 -21 133 -17 124 -63 127 l-42 3 38 18 c50 24 71 57 62 97 -7 34 -59 90 -82 90 -20 0 -101 -49 -111 -67 -7 -12 -20 -9 -78 22 -114 60 -138 120 -90 220 23 50 102 148 137 173 11 7 19 20 19 28 0 16 -21 19 -36 4 -16 -16 -145 -50 -191 -50 -56 0 -143 33 -176 68 -47 49 -70 117 -70 210 0 62 4 87 15 99 21 20 243 96 344 118 116 24 158 49 188 110 24 48 45 121 46 158 0 16 -23 17 -355 17 -195 0 -355 -2 -355 -4 0 -2 18 -66 39 -143 22 -76 43 -168 46 -205 6 -60 5 -68 -9 -68 -10 0 -29 14 -43 31 -14 16 -56 46 -94 64 -37 19 -71 40 -74 46 -4 6 7 25 24 43 37 38 38 47 10 72 -18 16 -20 26 -14 69 3 27 9 60 12 73 5 21 3 22 -65 22 l-69 0 8 -47 c5 -27 13 -60 18 -75 8 -24 6 -30 -17 -47 l-27 -20 40 -41 40 -41 -23 -17 c-46 -35 -142 -81 -157 -76 -10 4 -15 0 -15 -14 0 -27 -15 -36 -30 -18 -16 20 -6 84 41 249 21 77 39 141 39 143 0 2 -160 4 -355 4 -332 0 -355 -1 -355 -17z m1688 -1295 c18 -18 14 -28 -12 -28 l-24 0 4 -102 4 -103 -14 60 c-7 33 -21 84 -29 112 -15 49 -15 53 1 63 23 13 56 12 70 -2z"/>
 </g>
<g id="layer104" fill="#d0d10c" stroke="none">
 <path d="M130 1983 c1 -37 22 -110 46 -158 30 -61 72 -86 188 -110 105 -23 321 -98 346 -120 22 -20 21 -32 -7 -97 -14 -33 -19 -37 -42 -32 -45 11 -119 72 -158 132 -9 12 -22 22 -29 22 -16 0 -19 -26 -5 -34 5 -3 14 -21 20 -38 l11 -33 -24 30 c-14 17 -25 33 -26 38 0 4 -7 7 -16 7 -18 0 -18 1 17 -95 12 -33 24 -95 27 -137 l5 -78 -41 0 c-51 0 -142 33 -201 72 -26 18 -47 25 -50 19 -4 -6 -12 -7 -21 -1 -24 15 -40 12 -40 -9 0 -14 -6 -17 -24 -14 -22 5 -23 2 -29 -69 -4 -40 -9 -124 -13 -185 -7 -110 -7 -113 -30 -113 -32 0 -31 -28 1 -36 23 -6 24 -10 27 -96 l3 -91 42 -12 c23 -7 58 -16 77 -19 30 -6 35 -4 30 9 -5 11 1 15 20 15 16 0 26 -6 26 -14 0 -21 29 -47 43 -39 16 10 -27 -48 -55 -74 -12 -11 -45 -34 -73 -50 -61 -36 -75 -68 -23 -52 18 5 81 10 139 11 94 1 110 -1 147 -22 76 -43 79 -134 11 -276 -17 -36 -29 -67 -27 -69 2 -2 46 25 98 60 177 121 272 134 352 49 32 -35 88 -145 88 -173 0 -30 28 -26 36 5 5 19 9 22 15 13 11 -19 23 -4 38 50 27 93 56 109 130 71 43 -21 146 -129 188 -196 33 -52 69 -62 59 -16 -6 24 -5 25 7 10 8 -10 21 -18 28 -18 12 0 13 12 5 74 -7 54 -6 91 4 135 19 91 27 97 122 93 32 -2 37 -6 40 -29 3 -23 12 -29 72 -50 73 -24 101 -29 92 -15 -2 4 21 5 52 1 93 -12 112 -11 112 7 0 11 6 14 21 9 21 -7 22 -6 15 61 -3 38 -11 94 -16 124 -5 30 -14 87 -20 125 -21 133 -17 124 -63 127 l-42 3 38 18 c50 24 71 57 62 97 -7 34 -59 90 -82 90 -20 0 -101 -49 -111 -67 -7 -12 -20 -9 -78 22 -114 60 -138 120 -90 220 23 50 102 148 137 173 11 7 19 20 19 28 0 16 -21 19 -36 4 -16 -16 -145 -50 -191 -50 -56 0 -143 33 -176 68 -47 49 -70 117 -70 210 0 62 4 87 15 99 21 20 243 96 344 118 116 24 158 49 188 110 24 48 45 121 46 158 0 16 -23 17 -355 17 -195 0 -355 -2 -355 -4 0 -2 18 -66 39 -143 22 -76 43 -168 46 -205 6 -60 5 -68 -9 -68 -10 0 -29 14 -43 31 -14 16 -56 46 -94 64 -37 19 -71 40 -74 46 -4 6 7 25 24 43 37 38 38 47 10 72 -18 16 -20 26 -14 69 3 27 9 60 12 73 5 21 3 22 -65 22 l-69 0 8 -47 c5 -27 13 -60 18 -75 8 -24 6 -30 -17 -47 l-27 -20 40 -41 40 -41 -23 -17 c-46 -35 -142 -81 -157 -76 -10 4 -15 0 -15 -14 0 -27 -15 -36 -30 -18 -16 20 -6 84 41 249 21 77 39 141 39 143 0 2 -160 4 -355 4 -332 0 -355 -1 -355 -17z m710 -618 c12 -20 37 -47 56 -61 61 -47 171 -35 208 22 9 13 24 28 33 33 16 8 18 3 19 -42 1 -29 4 -63 6 -77 3 -14 6 -30 7 -37 2 -19 60 -75 100 -96 27 -15 49 -18 100 -15 36 3 74 8 83 12 15 7 16 5 5 -18 -7 -14 -15 -26 -19 -26 -14 0 -59 -90 -61 -122 -2 -28 -6 -33 -26 -32 -13 0 -28 9 -33 18 -18 32 -82 93 -117 111 -53 27 -157 28 -202 2 -56 -32 -84 -81 -88 -154 -1 -8 -16 -2 -40 15 -31 22 -41 36 -50 77 -6 29 -8 76 -5 112 7 61 6 63 -20 73 -15 5 -30 9 -34 8 -4 -1 -20 4 -35 10 -36 15 -37 15 -37 -3 0 -18 -12 -19 -29 -2 -10 10 -14 9 -22 -5 -18 -32 -24 -19 -24 55 0 39 -4 83 -9 96 -8 22 -6 22 33 -9 55 -45 97 -47 133 -9 15 16 30 45 34 64 3 19 8 35 9 35 2 0 13 -16 25 -35z m-273 -233 c16 -10 5 -82 -12 -82 -7 0 -15 12 -18 28 -3 15 -9 35 -12 45 -5 12 -2 17 11 17 11 0 24 -4 31 -8z m-157 -228 c0 -9 -6 -11 -17 -7 -25 9 -34 26 -20 35 14 8 37 -9 37 -28z m760 -115 c30 -66 32 -74 21 -111 -14 -47 -36 -48 -61 -3 -32 58 -46 118 -35 153 15 52 38 41 75 -39z m648 -101 c18 -18 14 -28 -12 -28 l-24 0 4 -102 4 -103 -14 60 c-7 33 -21 84 -29 112 -15 49 -15 53 1 63 23 13 56 12 70 -2z m-1115 -113 c23 -9 50 -21 59 -26 35 -18 114 -10 160 16 l45 25 11 -24 c27 -59 103 -123 156 -130 11 -2 29 -7 38 -11 10 -4 31 -2 48 4 26 9 34 7 54 -10 20 -17 22 -27 20 -92 -1 -40 -3 -74 -3 -76 -1 -2 -14 14 -29 35 -49 67 -113 123 -153 135 -59 18 -93 -12 -130 -116 -7 -19 -7 -18 -8 3 -1 27 -38 102 -50 102 -5 0 -11 8 -13 18 -6 21 -65 52 -100 52 -12 0 -36 -7 -52 -15 -15 -8 -32 -15 -38 -15 -5 0 -33 -16 -63 -35 -30 -19 -55 -31 -55 -26 0 5 9 28 19 52 11 24 18 58 17 74 -3 39 -23 85 -36 85 -20 0 -10 21 15 30 14 5 25 17 25 28 0 43 15 30 18 -16 3 -48 4 -50 45 -67z m-231 66 c2 -9 -10 -13 -39 -15 l-41 -1 31 27 c32 26 40 24 49 -11z m1088 -201 c8 -5 12 -11 9 -14 -3 -3 -14 1 -25 9 -21 16 -8 20 16 5z"/>
 </g>
<g id="layer105" fill="#92604a" stroke="none">
 <path d="M130 1983 c1 -37 22 -110 46 -158 30 -61 72 -86 188 -110 105 -23 321 -98 346 -120 22 -20 21 -32 -7 -97 -14 -33 -19 -37 -42 -32 -45 11 -119 72 -158 132 -9 12 -22 22 -29 22 -16 0 -19 -26 -5 -34 5 -3 14 -21 20 -38 l11 -33 -24 30 c-14 17 -25 33 -26 38 0 4 -7 7 -16 7 -18 0 -18 1 17 -95 12 -33 24 -95 27 -137 l5 -78 -41 0 c-51 0 -142 33 -201 72 -26 18 -47 25 -50 19 -4 -6 -12 -7 -21 -1 -24 15 -40 12 -40 -9 0 -14 -6 -17 -24 -14 -22 5 -23 2 -29 -69 -4 -40 -9 -124 -13 -185 -7 -110 -7 -113 -30 -113 -32 0 -31 -28 1 -36 23 -6 24 -10 27 -96 l3 -91 42 -12 c23 -7 58 -16 77 -19 30 -6 35 -4 30 9 -5 11 1 15 20 15 16 0 26 -6 26 -14 0 -21 29 -47 43 -39 16 10 -27 -48 -55 -74 -12 -11 -45 -34 -73 -50 -61 -36 -75 -68 -23 -52 18 5 81 10 139 11 94 1 110 -1 147 -22 76 -43 79 -134 11 -276 -17 -36 -29 -67 -27 -69 2 -2 46 25 98 60 177 121 272 134 352 49 32 -35 88 -145 88 -173 0 -30 28 -26 36 5 5 19 9 22 15 13 11 -19 23 -4 38 50 27 93 56 109 130 71 43 -21 146 -129 188 -196 33 -52 69 -62 59 -16 -6 24 -5 25 7 10 8 -10 21 -18 28 -18 12 0 13 12 5 74 -7 54 -6 91 4 135 19 91 27 97 122 93 32 -2 37 -6 40 -29 3 -23 12 -29 72 -50 73 -24 101 -29 92 -15 -2 4 21 5 52 1 93 -12 112 -11 112 7 0 11 6 14 21 9 21 -7 22 -6 15 61 -3 38 -11 94 -16 124 -5 30 -14 87 -20 125 -21 133 -17 124 -63 127 l-42 3 38 18 c50 24 71 57 62 97 -7 34 -59 90 -82 90 -20 0 -101 -49 -111 -67 -7 -12 -20 -9 -78 22 -114 60 -138 120 -90 220 23 50 102 148 137 173 11 7 19 20 19 28 0 16 -21 19 -36 4 -16 -16 -145 -50 -191 -50 -56 0 -143 33 -176 68 -47 49 -70 117 -70 210 0 62 4 87 15 99 21 20 243 96 344 118 116 24 158 49 188 110 24 48 45 121 46 158 0 16 -23 17 -355 17 -195 0 -355 -2 -355 -4 0 -2 18 -66 39 -143 22 -76 43 -168 46 -205 6 -60 5 -68 -9 -68 -10 0 -29 14 -43 31 -14 16 -56 46 -94 64 -37 19 -71 40 -74 46 -4 6 7 25 24 43 37 38 38 47 10 72 -18 16 -20 26 -14 69 3 27 9 60 12 73 5 21 3 22 -65 22 l-69 0 8 -47 c5 -27 13 -60 18 -75 8 -24 6 -30 -17 -47 l-27 -20 40 -41 40 -41 -23 -17 c-46 -35 -142 -81 -157 -76 -10 4 -15 0 -15 -14 0 -27 -15 -36 -30 -18 -16 20 -6 84 41 249 21 77 39 141 39 143 0 2 -160 4 -355 4 -332 0 -355 -1 -355 -17z m790 -685 c68 -35 125 -22 199 47 l49 46 -5 -58 c-11 -119 42 -205 142 -233 42 -12 56 -11 111 3 34 9 65 17 69 17 3 0 -9 -19 -28 -42 -46 -57 -77 -120 -77 -158 0 -19 -4 -29 -10 -25 -6 4 -17 1 -25 -5 -12 -10 -15 -9 -15 4 0 23 -77 104 -120 126 -19 9 -59 23 -88 29 -47 10 -59 9 -103 -10 -62 -27 -84 -55 -100 -124 l-12 -53 -42 31 c-40 30 -43 36 -49 91 -3 32 -6 83 -6 112 l0 53 -54 15 c-67 20 -66 20 -66 0 0 -15 -2 -15 -24 0 -23 15 -25 14 -31 -5 -4 -11 -12 -18 -18 -16 -7 3 -10 11 -8 18 13 42 11 100 -7 152 -10 31 -16 57 -12 57 5 0 10 -7 13 -15 10 -23 88 -75 115 -75 37 0 60 26 78 87 l16 54 36 -52 c21 -29 53 -60 72 -71z m-334 -175 c-2 -10 -7 -33 -11 -50 -4 -18 -13 -33 -20 -33 -7 0 -16 15 -20 33 -4 17 -9 40 -11 50 -4 14 1 17 31 17 30 0 35 -3 31 -17z m-176 -209 c6 -14 10 -27 10 -30 0 -11 -22 -2 -41 17 -17 17 -19 23 -8 30 22 14 29 11 39 -17z m731 -66 c52 -54 74 -153 45 -194 -43 -57 -119 106 -91 194 8 28 19 28 46 0z m-411 -280 c84 -35 121 -35 185 1 l51 29 19 -35 c47 -87 176 -154 240 -125 20 9 28 7 53 -14 27 -24 29 -29 21 -71 -5 -25 -6 -63 -3 -84 4 -22 4 -39 2 -39 -3 0 -20 21 -38 48 -64 90 -129 142 -178 142 -31 0 -69 -37 -88 -86 l-17 -46 -17 44 c-58 154 -148 176 -304 73 -72 -47 -71 -47 -42 30 22 58 20 117 -5 149 -23 29 -19 59 8 54 12 -2 20 8 27 37 l11 40 5 -60 5 -59 65 -28z m1088 120 c18 -18 14 -28 -12 -28 l-24 0 4 -102 4 -103 -14 60 c-7 33 -21 84 -29 112 -15 49 -15 53 1 63 23 13 56 12 70 -2z m-1348 -18 c0 -10 10 -25 23 -32 20 -12 16 -13 -43 -18 -36 -3 -67 -4 -70 -2 -6 4 72 71 83 72 4 0 7 -9 7 -20z m1075 -222 c40 -18 29 -29 -12 -11 -21 8 -40 17 -42 19 -9 9 30 3 54 -8z"/>
 </g>
<g id="layer106" fill="#854f36" stroke="none">
 <path d="M130 1983 c1 -37 22 -110 46 -158 30 -61 72 -86 188 -110 105 -23 321 -98 346 -120 22 -20 21 -32 -7 -97 -14 -33 -19 -37 -42 -32 -45 11 -119 72 -158 132 -9 12 -22 22 -29 22 -16 0 -19 -26 -5 -34 5 -3 14 -21 20 -38 l11 -33 -24 30 c-14 17 -25 33 -26 38 0 4 -7 7 -16 7 -18 0 -18 1 17 -95 12 -33 24 -95 27 -137 l5 -78 -41 0 c-51 0 -142 33 -201 72 -26 18 -47 25 -50 19 -4 -6 -12 -7 -21 -1 -24 15 -40 12 -40 -9 0 -14 -6 -17 -24 -14 -22 5 -23 2 -29 -69 -4 -40 -9 -124 -13 -185 -7 -110 -7 -113 -30 -113 -32 0 -31 -28 1 -36 23 -6 24 -10 27 -96 l3 -91 42 -12 c23 -7 58 -16 77 -19 30 -6 35 -4 30 9 -5 11 1 15 20 15 16 0 26 -6 26 -14 0 -21 29 -47 43 -39 16 10 -27 -48 -55 -74 -12 -11 -45 -34 -73 -50 -61 -36 -75 -68 -23 -52 18 5 81 10 139 11 94 1 110 -1 147 -22 76 -43 79 -134 11 -276 -17 -36 -29 -67 -27 -69 2 -2 46 25 98 60 177 121 272 134 352 49 32 -35 88 -145 88 -173 0 -30 28 -26 36 5 5 19 9 22 15 13 11 -19 23 -4 38 50 27 93 56 109 130 71 43 -21 146 -129 188 -196 33 -52 69 -62 59 -16 -6 24 -5 25 7 10 8 -10 21 -18 28 -18 12 0 13 12 5 74 -7 54 -6 91 4 135 19 91 27 97 122 93 32 -2 37 -6 40 -29 3 -23 12 -29 72 -50 73 -24 101 -29 92 -15 -2 4 21 5 52 1 93 -12 112 -11 112 7 0 11 6 14 21 9 21 -7 22 -6 15 61 -3 38 -11 94 -16 124 -5 30 -14 87 -20 125 -21 133 -17 124 -63 127 l-42 3 38 18 c50 24 71 57 62 97 -7 34 -59 90 -82 90 -20 0 -101 -49 -111 -67 -7 -12 -20 -9 -78 22 -114 60 -138 120 -90 220 23 50 102 148 137 173 11 7 19 20 19 28 0 16 -21 19 -36 4 -16 -16 -145 -50 -191 -50 -56 0 -143 33 -176 68 -47 49 -70 117 -70 210 0 62 4 87 15 99 21 20 243 96 344 118 116 24 158 49 188 110 24 48 45 121 46 158 0 16 -23 17 -354 17 l-354 0 10 -42 c5 -24 22 -85 38 -137 16 -51 32 -125 36 -165 6 -70 5 -71 -21 -83 -25 -11 -32 -9 -74 20 -45 31 -49 32 -151 32 -85 0 -110 -4 -131 -18 -26 -18 -27 -18 -47 8 -24 30 -32 32 -32 6 0 -27 -15 -34 -30 -16 -16 20 -7 88 27 203 14 48 31 111 38 140 l13 52 -354 0 c-331 0 -354 -1 -354 -17z m983 -469 c15 -8 25 -19 22 -24 -10 -17 -88 -32 -130 -26 -48 8 -112 43 -99 56 24 23 158 19 207 -6z m-193 -216 c67 -35 125 -22 198 46 l47 44 0 -81 c0 -94 15 -131 68 -171 58 -44 163 -48 252 -11 13 6 6 -7 -22 -41 -51 -62 -83 -124 -83 -164 0 -19 -4 -29 -10 -25 -6 4 -17 1 -25 -5 -12 -10 -15 -9 -15 4 0 23 -77 104 -120 126 -19 9 -59 23 -88 29 -47 10 -59 9 -103 -10 -62 -27 -84 -55 -100 -124 l-12 -53 -42 31 c-40 30 -43 36 -49 91 -3 32 -6 83 -6 112 l0 53 -54 15 c-67 20 -66 20 -66 0 0 -15 -2 -15 -24 0 -23 15 -25 14 -31 -5 -4 -11 -12 -18 -18 -16 -7 3 -10 11 -8 18 13 42 11 91 -7 144 -11 33 -18 62 -16 64 2 2 13 -8 24 -22 27 -34 81 -67 110 -67 35 0 59 27 76 87 l16 54 36 -52 c21 -29 53 -60 72 -71z m-334 -175 c-2 -10 -7 -33 -11 -50 -4 -18 -13 -33 -20 -33 -7 0 -16 15 -20 33 -4 17 -9 40 -11 50 -4 14 1 17 31 17 30 0 35 -3 31 -17z m-176 -209 c6 -14 10 -27 10 -30 0 -11 -22 -2 -41 17 -17 17 -19 23 -8 30 22 14 29 11 39 -17z m731 -66 c52 -54 74 -153 45 -194 -43 -57 -119 106 -91 194 8 28 19 28 46 0z m-411 -280 c84 -35 121 -35 185 1 l51 29 19 -35 c47 -87 176 -154 240 -125 20 9 28 7 53 -14 27 -24 29 -29 21 -71 -5 -25 -6 -64 -3 -87 l5 -41 -22 30 c-48 63 -145 154 -173 161 -44 11 -77 -13 -107 -75 l-27 -54 -6 31 c-4 17 -21 51 -38 77 -64 96 -137 99 -272 10 -72 -47 -71 -47 -42 30 24 63 21 121 -9 147 -19 17 -22 25 -14 40 5 10 17 17 26 16 12 -2 20 9 27 37 l11 40 5 -60 5 -59 65 -28z m1088 120 c18 -18 14 -28 -12 -28 l-24 0 4 -102 4 -103 -14 60 c-7 33 -21 84 -29 112 -15 49 -15 53 1 63 23 13 56 12 70 -2z m-1348 -18 c0 -10 10 -25 23 -32 20 -12 16 -13 -43 -18 -36 -3 -67 -4 -70 -2 -6 4 72 71 83 72 4 0 7 -9 7 -20z m1075 -222 c40 -18 29 -29 -12 -11 -21 8 -40 17 -42 19 -9 9 30 3 54 -8z"/>
 <path d="M931 1953 c5 -27 13 -60 18 -75 8 -24 6 -30 -17 -47 l-27 -20 40 -40 c21 -23 45 -41 52 -41 17 0 83 59 83 74 0 7 -9 21 -21 32 -18 16 -20 26 -14 69 3 27 9 60 12 73 5 21 3 22 -65 22 l-69 0 8 -47z"/>
 </g>
<g id="layer107" fill="#fd0000" stroke="none">
 <path d="M130 1983 c1 -37 22 -110 46 -158 30 -61 72 -86 188 -110 105 -23 321 -98 346 -120 22 -20 21 -32 -7 -97 -14 -33 -19 -37 -42 -32 -45 11 -119 72 -158 132 -9 12 -22 22 -29 22 -16 0 -19 -26 -5 -34 5 -3 14 -21 20 -38 l11 -33 -24 30 c-14 17 -25 33 -26 38 0 4 -7 7 -16 7 -18 0 -18 1 17 -95 12 -33 24 -95 27 -137 l5 -78 -41 0 c-51 0 -142 33 -201 72 -26 18 -47 25 -50 19 -4 -6 -12 -7 -21 -1 -24 15 -40 12 -40 -9 0 -14 -6 -17 -24 -14 -22 5 -23 2 -29 -69 -4 -40 -9 -124 -13 -185 -7 -110 -7 -113 -30 -113 -32 0 -31 -28 1 -36 23 -6 24 -10 27 -96 l3 -91 42 -12 c23 -7 58 -16 77 -19 30 -6 35 -4 30 9 -5 11 1 15 20 15 16 0 26 -6 26 -14 0 -21 29 -47 43 -39 16 10 -27 -48 -55 -74 -12 -11 -45 -34 -73 -50 -61 -36 -75 -68 -23 -52 18 5 81 10 139 11 94 1 110 -1 147 -22 76 -43 79 -134 11 -276 -17 -36 -29 -67 -27 -69 2 -2 46 25 98 60 177 121 272 134 352 49 32 -35 88 -145 88 -173 0 -30 28 -26 36 5 5 19 9 22 15 13 11 -19 23 -4 38 50 27 93 56 109 130 71 43 -21 146 -129 188 -196 33 -52 69 -62 59 -16 -6 24 -5 25 7 10 8 -10 21 -18 28 -18 12 0 13 12 5 74 -7 54 -6 91 4 135 19 91 27 97 122 93 32 -2 37 -6 40 -29 3 -23 12 -29 72 -50 73 -24 101 -29 92 -15 -2 4 21 5 52 1 93 -12 112 -11 112 7 0 11 6 14 21 9 21 -7 22 -6 15 61 -3 38 -11 94 -16 124 -5 30 -14 87 -20 125 -21 133 -17 124 -63 127 l-42 3 38 18 c50 24 71 57 62 97 -7 34 -59 90 -82 90 -20 0 -101 -49 -111 -67 -7 -12 -20 -9 -78 22 -114 60 -138 120 -90 220 23 50 102 148 137 173 11 7 19 20 19 28 0 16 -21 19 -36 4 -16 -16 -145 -50 -191 -50 -56 0 -143 33 -176 68 -47 49 -70 117 -70 210 0 62 4 87 15 99 21 20 243 96 344 118 116 24 158 49 188 110 24 48 45 121 46 158 0 16 -23 17 -354 17 l-353 0 12 -52 c7 -29 24 -91 39 -137 32 -100 46 -231 25 -231 -7 0 -27 -14 -44 -30 l-31 -30 -40 16 c-41 18 -164 25 -219 12 -28 -6 -33 -3 -65 42 -38 53 -50 61 -50 31 0 -27 -15 -34 -30 -16 -16 20 -7 88 27 203 14 48 31 111 38 140 l13 52 -354 0 c-331 0 -354 -1 -354 -17z m980 -459 c39 -16 40 -18 24 -35 -23 -25 -97 -39 -142 -27 -20 5 -52 22 -71 36 -31 23 -33 26 -15 33 36 14 162 10 204 -7z m-190 -226 c67 -35 125 -22 198 46 l47 44 0 -81 c0 -94 15 -131 68 -171 58 -44 163 -48 252 -11 13 6 6 -7 -22 -41 -51 -62 -83 -124 -83 -164 0 -19 -4 -29 -10 -25 -6 4 -17 1 -25 -5 -12 -10 -15 -9 -15 4 0 23 -77 104 -120 126 -19 9 -59 23 -88 29 -47 10 -59 9 -103 -10 -62 -27 -84 -55 -100 -124 l-12 -53 -42 31 c-40 30 -43 36 -49 91 -3 32 -6 83 -6 112 l0 53 -54 15 c-67 20 -66 20 -66 0 0 -15 -2 -15 -24 0 -23 15 -25 14 -31 -5 -4 -11 -12 -18 -18 -16 -7 3 -10 11 -8 18 13 42 11 91 -7 144 -11 33 -18 62 -16 64 2 2 13 -8 24 -22 27 -34 81 -67 110 -67 35 0 59 27 76 87 l16 54 36 -52 c21 -29 53 -60 72 -71z m-334 -175 c-2 -10 -7 -33 -11 -50 -4 -18 -13 -33 -20 -33 -7 0 -16 15 -20 33 -4 17 -9 40 -11 50 -4 14 1 17 31 17 30 0 35 -3 31 -17z m-176 -209 c6 -14 10 -27 10 -30 0 -11 -22 -2 -41 17 -17 17 -19 23 -8 30 22 14 29 11 39 -17z m731 -66 c52 -54 74 -153 45 -194 -43 -57 -119 106 -91 194 8 28 19 28 46 0z m-411 -280 c84 -35 121 -35 185 1 l51 29 19 -35 c47 -87 176 -154 240 -125 20 9 28 7 53 -14 27 -24 29 -29 21 -71 -5 -25 -6 -64 -3 -87 l5 -41 -22 30 c-48 63 -145 154 -173 161 -44 11 -77 -13 -107 -75 l-27 -54 -6 31 c-4 17 -21 51 -38 77 -64 96 -137 99 -272 10 -72 -47 -71 -47 -42 30 24 63 21 121 -9 147 -19 17 -22 25 -14 40 5 10 17 17 26 16 12 -2 20 9 27 37 l11 40 5 -60 5 -59 65 -28z m1088 120 c18 -18 14 -28 -12 -28 l-24 0 4 -102 4 -103 -14 60 c-7 33 -21 84 -29 112 -15 49 -15 53 1 63 23 13 56 12 70 -2z m-1348 -18 c0 -10 10 -25 23 -32 20 -12 16 -13 -43 -18 -36 -3 -67 -4 -70 -2 -6 4 72 71 83 72 4 0 7 -9 7 -20z m1075 -222 c40 -18 29 -29 -12 -11 -21 8 -40 17 -42 19 -9 9 30 3 54 -8z"/>
 <path d="M931 1953 c5 -27 13 -60 18 -75 8 -24 6 -30 -17 -47 l-27 -20 40 -40 c21 -23 45 -41 52 -41 17 0 83 59 83 74 0 7 -9 21 -21 32 -18 16 -20 26 -14 69 3 27 9 60 12 73 5 21 3 22 -65 22 l-69 0 8 -47z"/>
 </g>
<g id="layer108" fill="#0000df" stroke="none">
 <path d="M130 1983 c1 -37 22 -110 46 -158 30 -61 72 -86 188 -110 105 -23 321 -98 346 -120 22 -20 21 -32 -7 -97 -14 -33 -19 -37 -42 -32 -45 11 -119 72 -158 132 -9 12 -22 22 -29 22 -16 0 -19 -26 -5 -34 5 -3 14 -21 20 -38 l11 -33 -24 30 c-14 17 -25 33 -26 38 0 4 -7 7 -16 7 -18 0 -18 1 17 -95 12 -33 24 -95 27 -137 l5 -78 -41 0 c-51 0 -142 33 -201 72 -26 18 -47 25 -50 19 -4 -6 -12 -7 -21 -1 -24 15 -40 12 -40 -9 0 -14 -6 -17 -24 -14 -22 5 -23 2 -29 -69 -4 -40 -9 -124 -13 -185 -7 -110 -7 -113 -30 -113 -32 0 -31 -28 1 -36 23 -6 24 -10 27 -96 l3 -91 42 -12 c23 -7 58 -16 77 -19 30 -6 35 -4 30 9 -5 11 1 15 20 15 16 0 26 -6 26 -14 0 -21 29 -47 43 -39 16 10 -27 -48 -55 -74 -12 -11 -45 -34 -73 -50 -61 -36 -75 -68 -23 -52 18 5 81 10 139 11 94 1 110 -1 147 -22 76 -43 79 -134 11 -276 -17 -36 -29 -67 -27 -69 2 -2 46 25 98 60 177 121 272 134 352 49 32 -35 88 -145 88 -173 0 -30 28 -26 36 5 5 19 9 22 15 13 11 -19 23 -4 38 50 27 93 56 109 130 71 43 -21 146 -129 188 -196 33 -52 69 -62 59 -16 -6 24 -5 25 7 10 8 -10 21 -18 28 -18 12 0 13 12 5 74 -7 54 -6 91 4 135 19 91 27 97 122 93 32 -2 37 -6 40 -29 3 -23 12 -29 72 -50 73 -24 101 -29 92 -15 -2 4 21 5 52 1 93 -12 112 -11 112 7 0 11 6 14 21 9 21 -7 22 -6 15 61 -3 38 -11 94 -16 124 -5 30 -14 87 -20 125 -21 133 -17 124 -63 127 l-42 3 38 18 c50 24 71 57 62 97 -7 34 -59 90 -82 90 -20 0 -101 -49 -111 -67 -7 -12 -20 -9 -78 22 -114 60 -138 120 -90 220 23 50 102 148 137 173 11 7 19 20 19 28 0 16 -21 19 -36 4 -16 -16 -145 -50 -191 -50 -56 0 -143 33 -176 68 -47 49 -70 117 -70 210 0 62 4 87 15 99 21 20 243 96 344 118 116 24 158 49 188 110 24 48 45 121 46 158 0 16 -23 17 -354 17 l-353 0 12 -52 c7 -29 24 -91 39 -137 32 -100 46 -231 25 -231 -7 0 -27 -14 -44 -30 l-31 -30 -40 16 c-41 18 -164 25 -219 12 -28 -6 -33 -3 -65 42 -38 53 -50 61 -50 31 0 -27 -15 -34 -30 -16 -16 20 -7 88 27 203 14 48 31 111 38 140 l13 52 -354 0 c-331 0 -354 -1 -354 -17z m980 -459 c39 -16 40 -18 24 -35 -23 -25 -97 -39 -142 -27 -20 5 -52 22 -71 36 -31 23 -33 26 -15 33 36 14 162 10 204 -7z m-190 -226 c67 -35 125 -22 198 46 l47 44 0 -81 c0 -94 15 -131 68 -171 58 -44 163 -48 252 -11 13 6 6 -7 -22 -41 -51 -62 -83 -124 -83 -164 0 -19 -4 -29 -10 -25 -6 4 -17 1 -25 -5 -12 -10 -15 -9 -15 4 0 23 -77 104 -120 126 -19 9 -59 23 -88 29 -47 10 -59 9 -103 -10 -62 -27 -84 -55 -100 -124 l-12 -53 -42 31 c-40 30 -43 36 -49 91 -3 32 -6 83 -6 112 l0 53 -54 15 c-67 20 -66 20 -66 0 0 -15 -2 -15 -24 0 -23 15 -25 14 -31 -5 -4 -11 -12 -18 -18 -16 -7 3 -10 11 -8 18 13 42 11 91 -7 144 -11 33 -18 62 -16 64 2 2 13 -8 24 -22 27 -34 81 -67 110 -67 35 0 59 27 76 87 l16 54 36 -52 c21 -29 53 -60 72 -71z m-755 -5 l35 -17 -5 -90 c-4 -50 -8 -101 -11 -113 -9 -44 14 -23 67 62 30 47 57 85 61 85 3 0 15 -11 26 -25 23 -29 34 -32 30 -7 -2 14 3 16 27 14 17 -2 35 -8 41 -13 7 -5 19 -50 29 -99 l17 -90 39 -10 c22 -6 43 -8 48 -6 5 3 14 35 21 71 10 55 15 65 29 59 36 -14 54 -17 47 -6 -11 17 8 22 47 11 l37 -10 2 -92 c0 -51 1 -98 1 -105 -1 -6 18 -26 41 -44 110 -85 158 -166 136 -232 -18 -55 -55 -79 -111 -73 -25 3 -67 16 -92 28 l-47 23 -1 75 c-1 42 -4 117 -8 166 l-6 90 -44 -158 c-41 -146 -46 -157 -65 -151 -58 18 -65 24 -75 62 -11 38 -91 391 -91 398 0 10 -19 2 -41 -17 -13 -12 -39 -33 -56 -46 -18 -14 -33 -31 -33 -37 0 -6 27 -72 60 -145 33 -74 60 -134 60 -135 0 -1 -18 0 -40 2 -48 5 -49 7 -106 165 -21 59 -42 107 -48 107 -5 0 -7 -46 -3 -116 l6 -117 -35 6 c-68 11 -68 10 -61 222 8 222 17 325 28 325 5 0 24 -8 44 -17z m421 -170 c-2 -10 -7 -33 -11 -50 -4 -18 -13 -33 -20 -33 -7 0 -16 15 -20 33 -4 17 -9 40 -11 50 -4 14 1 17 31 17 30 0 35 -3 31 -17z m565 -142 c64 -33 93 -65 125 -134 21 -48 28 -78 28 -129 1 -74 12 -90 21 -30 4 20 13 70 21 111 8 40 14 74 14 76 0 2 21 -3 48 -9 l47 -12 22 -90 c12 -49 22 -97 23 -106 0 -43 18 -12 35 61 23 103 25 105 61 89 16 -6 30 -13 32 -14 2 -1 14 -49 27 -106 13 -56 39 -169 59 -250 20 -81 36 -154 36 -162 0 -13 -6 -13 -44 0 -50 17 -46 6 -76 194 -12 74 -25 142 -28 150 -3 8 -12 -21 -21 -65 l-17 -80 -33 2 c-18 0 -37 5 -43 11 -5 5 -20 49 -33 97 -14 48 -26 89 -28 92 -2 2 -14 -59 -26 -134 -12 -76 -24 -144 -26 -151 -3 -8 -19 -2 -49 20 -45 31 -45 32 -39 76 4 33 3 43 -5 38 -7 -4 -12 -13 -12 -21 0 -20 -49 -55 -78 -55 -49 0 -104 24 -144 63 -114 111 -158 386 -76 475 20 21 30 23 79 20 31 -2 75 -14 100 -27z m-741 -67 c6 -14 10 -27 10 -30 0 -11 -22 -2 -41 17 -17 17 -19 23 -8 30 22 14 29 11 39 -17z m1437 -92 c22 -14 42 -64 33 -83 -16 -29 -39 -30 -66 -4 -23 23 -33 73 -17 88 9 9 35 9 50 -1z m-1117 -254 c84 -35 121 -35 185 1 l51 29 19 -35 c47 -87 176 -154 240 -125 20 9 28 7 53 -14 27 -24 29 -29 21 -71 -5 -25 -6 -64 -3 -87 l5 -41 -22 30 c-48 63 -145 154 -173 161 -44 11 -77 -13 -107 -75 l-27 -54 -6 31 c-4 17 -21 51 -38 77 -64 96 -137 99 -272 10 -72 -47 -71 -47 -42 30 24 63 21 121 -9 147 -19 17 -22 25 -14 40 5 10 17 17 26 16 12 -2 20 9 27 37 l11 40 5 -60 5 -59 65 -28z m1088 120 c18 -18 14 -28 -12 -28 l-24 0 4 -102 4 -103 -14 60 c-7 33 -21 84 -29 112 -15 49 -15 53 1 63 23 13 56 12 70 -2z m-1348 -18 c0 -10 10 -25 23 -32 20 -12 16 -13 -43 -18 -36 -3 -67 -4 -70 -2 -6 4 72 71 83 72 4 0 7 -9 7 -20z m1405 -72 c18 -102 53 -343 50 -346 -2 -2 -27 -1 -54 3 l-51 7 0 138 c0 75 -3 158 -6 184 l-7 46 31 0 c27 0 32 -4 37 -32z m-330 -150 c40 -18 29 -29 -12 -11 -21 8 -40 17 -42 19 -9 9 30 3 54 -8z"/>
 <path d="M500 919 c0 -27 24 -139 30 -139 10 0 31 123 22 131 -15 15 -52 20 -52 8z"/>
 <path d="M764 764 c3 -9 6 -36 6 -60 0 -40 2 -44 24 -44 66 0 75 39 21 88 -37 34 -61 42 -51 16z"/>
 <path d="M1051 861 c-26 -37 -29 -136 -5 -184 24 -47 65 -87 89 -87 12 0 34 13 49 29 54 57 43 155 -28 239 -36 42 -76 44 -105 3z m90 -13 c52 -54 74 -153 45 -194 -43 -57 -119 106 -91 194 8 28 19 28 46 0z"/>
 <path d="M931 1953 c5 -27 13 -60 18 -75 8 -24 6 -30 -17 -47 l-27 -20 40 -40 c21 -23 45 -41 52 -41 17 0 83 59 83 74 0 7 -9 21 -21 32 -18 16 -20 26 -14 69 3 27 9 60 12 73 5 21 3 22 -65 22 l-69 0 8 -47z"/>
 </g>
<g id="layer109" fill="#1616a5" stroke="none">
 <path d="M130 1983 c1 -37 22 -110 46 -158 30 -61 72 -86 188 -110 105 -23 321 -98 346 -120 22 -20 21 -32 -7 -97 -14 -33 -19 -37 -42 -32 -45 11 -119 72 -158 132 -9 12 -22 22 -29 22 -16 0 -19 -26 -5 -34 5 -3 14 -21 20 -38 l11 -33 -24 30 c-14 17 -25 33 -26 38 0 4 -7 7 -16 7 -18 0 -18 1 17 -95 12 -33 24 -95 27 -137 l5 -78 -41 0 c-51 0 -142 33 -201 72 -26 18 -47 25 -50 19 -4 -6 -12 -7 -21 -1 -24 15 -40 12 -40 -9 0 -14 -6 -17 -24 -14 -22 5 -23 2 -29 -69 -4 -40 -9 -124 -13 -185 -7 -110 -7 -113 -30 -113 -32 0 -31 -28 1 -36 23 -6 24 -10 27 -96 l3 -91 42 -12 c23 -7 58 -16 77 -19 30 -6 35 -4 30 9 -5 11 1 15 20 15 16 0 26 -6 26 -14 0 -21 29 -47 43 -39 16 10 -27 -48 -55 -74 -12 -11 -45 -34 -73 -50 -61 -36 -75 -68 -23 -52 18 5 81 10 139 11 94 1 110 -1 147 -22 76 -43 79 -134 11 -276 -17 -36 -29 -67 -27 -69 2 -2 46 25 98 60 177 121 272 134 352 49 32 -35 88 -145 88 -173 0 -30 28 -26 36 5 5 19 9 22 15 13 11 -19 23 -4 38 50 27 93 56 109 130 71 43 -21 146 -129 188 -196 33 -52 69 -62 59 -16 -6 24 -5 25 7 10 8 -10 21 -18 28 -18 12 0 13 12 5 74 -7 54 -6 91 4 135 19 91 27 97 122 93 32 -2 37 -6 40 -29 3 -23 12 -29 72 -50 73 -24 101 -29 92 -15 -2 4 21 5 52 1 93 -12 112 -11 112 7 0 11 6 14 21 9 21 -7 22 -6 15 61 -3 38 -11 94 -16 124 -5 30 -14 87 -20 125 -21 133 -17 124 -63 127 l-42 3 38 18 c50 24 71 57 62 97 -7 34 -59 90 -82 90 -20 0 -101 -49 -111 -67 -7 -12 -20 -9 -78 22 -114 60 -138 120 -90 220 23 50 102 148 137 173 11 7 19 20 19 28 0 16 -21 19 -36 4 -16 -16 -145 -50 -191 -50 -56 0 -143 33 -176 68 -47 49 -70 117 -70 210 0 62 4 87 15 99 21 20 243 96 344 118 116 24 158 49 188 110 24 48 45 121 46 158 0 16 -23 17 -354 17 l-353 0 12 -52 c7 -29 24 -91 39 -137 32 -100 46 -231 25 -231 -7 0 -27 -14 -44 -30 l-31 -30 -40 16 c-41 18 -164 25 -219 12 -28 -6 -33 -3 -65 42 -38 53 -50 61 -50 31 0 -27 -15 -34 -30 -16 -16 20 -7 88 27 203 14 48 31 111 38 140 l13 52 -354 0 c-331 0 -354 -1 -354 -17z m663 -436 c106 -153 245 -167 378 -38 l47 46 -2 -80 c-2 -136 45 -224 147 -277 53 -27 181 -30 241 -4 22 9 41 14 44 12 2 -3 -15 -27 -38 -53 -50 -57 -87 -127 -96 -181 -5 -29 -1 -49 16 -82 15 -28 18 -46 12 -52 -7 -7 -13 1 -17 24 -6 33 -10 36 -75 55 -38 11 -69 17 -68 14 2 -23 -4 -41 -12 -36 -6 4 -17 1 -25 -5 -12 -10 -15 -9 -15 4 0 23 -77 104 -120 126 -19 9 -59 23 -88 29 -47 10 -59 9 -103 -10 -62 -27 -84 -55 -100 -124 l-12 -53 -42 31 c-40 30 -43 36 -49 91 -3 32 -6 83 -6 112 l0 53 -54 15 c-67 20 -66 20 -66 0 0 -15 -2 -15 -24 0 -23 15 -25 14 -31 -5 -7 -21 -32 -20 -27 1 3 11 0 11 -12 1 -9 -7 -14 -16 -12 -20 3 -4 0 -28 -6 -54 -16 -77 -40 -60 -52 38 -11 81 -19 108 -37 112 -23 6 -23 12 -4 37 25 33 18 111 -20 236 -6 22 -2 20 36 -16 64 -59 89 -74 129 -74 53 0 99 58 115 143 4 20 8 37 9 37 2 0 19 -24 39 -53z m317 -23 c39 -16 40 -18 24 -35 -23 -25 -97 -39 -142 -27 -20 5 -52 22 -71 36 -31 23 -33 26 -15 33 36 14 162 10 204 -7z m-945 -231 l35 -17 -5 -90 c-4 -50 -8 -101 -11 -113 -9 -44 14 -23 67 62 30 47 57 85 61 85 3 0 15 -11 26 -25 23 -29 34 -32 30 -7 -2 14 3 16 27 14 17 -2 35 -8 41 -13 7 -5 19 -50 29 -99 l17 -90 39 -10 c22 -6 43 -8 48 -6 5 3 14 35 21 71 10 55 15 65 29 59 36 -14 54 -17 47 -6 -11 17 8 22 47 11 l37 -10 2 -92 c0 -51 1 -98 1 -105 -1 -6 18 -26 41 -44 110 -85 158 -166 136 -232 -18 -55 -55 -79 -111 -73 -25 3 -67 16 -92 28 l-47 23 -1 75 c-1 42 -4 117 -8 166 l-6 90 -44 -158 c-41 -146 -46 -157 -65 -151 -58 18 -65 24 -75 62 -11 38 -91 391 -91 398 0 10 -19 2 -41 -17 -13 -12 -39 -33 -56 -46 -18 -14 -33 -31 -33 -37 0 -6 27 -72 60 -145 33 -74 60 -134 60 -135 0 -1 -18 0 -40 2 -48 5 -49 7 -106 165 -21 59 -42 107 -48 107 -5 0 -7 -46 -3 -116 l6 -117 -35 6 c-68 11 -68 10 -61 222 8 222 17 325 28 325 5 0 24 -8 44 -17z m135 -39 c0 -6 -43 -75 -45 -72 -1 2 0 22 3 44 3 35 7 41 23 37 10 -3 19 -7 19 -9z m115 -369 c2 -16 9 -46 15 -65 17 -58 10 -58 -16 -1 -13 30 -22 56 -19 59 2 3 -2 10 -11 16 -8 6 -16 18 -18 26 -2 8 -10 32 -20 52 -21 48 -20 53 6 70 23 15 23 14 40 -56 10 -39 20 -84 23 -101z m736 96 c64 -33 93 -65 125 -134 21 -48 28 -78 28 -129 1 -74 12 -90 21 -30 4 20 13 70 21 111 8 40 14 74 14 76 0 2 21 -3 48 -9 l47 -12 22 -90 c12 -49 22 -97 23 -106 0 -43 18 -12 35 61 23 103 25 105 61 89 16 -6 30 -13 32 -14 2 -1 14 -49 27 -106 13 -56 39 -169 59 -250 20 -81 36 -154 36 -162 0 -13 -6 -13 -44 0 -50 17 -46 6 -76 194 -12 74 -25 142 -28 150 -3 8 -12 -21 -21 -65 l-17 -80 -33 2 c-18 0 -37 5 -43 11 -5 5 -20 49 -33 97 -14 48 -26 89 -28 92 -2 2 -14 -59 -26 -134 -12 -76 -24 -144 -26 -151 -3 -8 -19 -2 -49 20 -45 31 -45 32 -39 76 4 33 3 43 -5 38 -7 -4 -12 -13 -12 -21 0 -20 -49 -55 -78 -55 -49 0 -104 24 -144 63 -114 111 -158 386 -76 475 20 21 30 23 79 20 31 -2 75 -14 100 -27z m696 -159 c22 -14 42 -64 33 -83 -16 -29 -39 -30 -66 -4 -23 23 -33 73 -17 88 9 9 35 9 50 -1z m-83 -72 c35 -13 33 -26 -6 -34 -36 -7 -33 -8 -42 22 -8 25 6 29 48 12z m-1321 -64 c-10 -11 -11 -15 -3 -8 20 17 28 15 32 -10 2 -15 19 -30 52 -47 48 -25 49 -25 63 -5 8 10 21 19 30 19 10 0 21 15 29 40 l12 40 1 -58 1 -58 58 -26 c89 -40 131 -41 195 -5 l53 30 19 -35 c47 -87 176 -154 240 -125 21 10 28 8 52 -15 16 -14 27 -30 25 -35 -1 -5 2 -7 8 -3 5 3 24 -3 40 -15 32 -22 50 -20 50 8 0 12 3 13 12 4 7 -7 15 -12 19 -12 8 0 23 85 21 115 -2 18 -1 18 10 -2 7 -14 20 -23 35 -23 31 0 79 -25 86 -45 4 -8 12 -15 18 -15 7 0 4 10 -8 23 -21 23 -21 47 1 47 11 0 36 -86 36 -121 0 -4 -26 -6 -58 -6 -73 2 -117 -22 -149 -82 -19 -37 -23 -59 -23 -138 l0 -94 -62 82 c-77 102 -163 169 -219 169 -49 0 -99 -47 -128 -122 -11 -29 -20 -47 -20 -40 -2 26 -63 138 -94 170 -64 67 -116 77 -212 41 -31 -12 -89 -43 -128 -69 -40 -27 -73 -47 -74 -46 -2 1 6 20 16 42 27 57 44 140 37 178 -17 87 -84 120 -239 114 -59 -1 -103 -1 -99 3 80 62 107 87 125 114 19 30 24 32 64 27 34 -4 43 -1 43 10 0 11 7 14 25 10 25 -4 25 -5 8 -26z m1375 2 c18 -18 14 -28 -12 -28 l-24 0 4 -102 4 -103 -14 60 c-7 33 -21 84 -29 112 -15 49 -15 53 1 63 23 13 56 12 70 -2z m57 -90 c18 -102 53 -343 50 -346 -2 -2 -27 -1 -54 3 l-51 7 0 138 c0 75 -3 158 -6 184 l-7 46 31 0 c27 0 32 -4 37 -32z"/>
 <path d="M613 1215 c0 -22 2 -30 4 -17 2 12 2 30 0 40 -3 9 -5 -1 -4 -23z"/>
 <path d="M1493 1133 c4 -3 -1 -16 -10 -27 -18 -21 -18 -21 5 -2 24 21 29 36 10 36 -6 0 -8 -3 -5 -7z"/>
 <path d="M500 919 c0 -27 24 -139 30 -139 10 0 31 123 22 131 -15 15 -52 20 -52 8z"/>
 <path d="M764 764 c3 -9 6 -36 6 -60 0 -40 2 -44 24 -44 66 0 75 39 21 88 -37 34 -61 42 -51 16z"/>
 <path d="M1051 861 c-26 -37 -29 -136 -5 -184 24 -47 65 -87 89 -87 12 0 34 13 49 29 54 57 43 155 -28 239 -36 42 -76 44 -105 3z m90 -13 c52 -54 74 -153 45 -194 -43 -57 -119 106 -91 194 8 28 19 28 46 0z"/>
 <path d="M355 619 c-4 -6 -5 -13 -2 -16 7 -7 27 6 27 18 0 12 -17 12 -25 -2z"/>
 <path d="M931 1953 c5 -27 13 -60 18 -75 8 -24 6 -30 -17 -47 l-27 -20 40 -40 c21 -23 45 -41 52 -41 17 0 83 59 83 74 0 7 -9 21 -21 32 -18 16 -20 26 -14 69 3 27 9 60 12 73 5 21 3 22 -65 22 l-69 0 8 -47z"/>
 </g>
<g id="layer110" fill="#653220" stroke="none">
 <path d="M130 1983 c1 -37 22 -110 46 -158 30 -61 72 -86 188 -110 105 -23 321 -98 346 -120 22 -20 21 -32 -7 -97 -14 -33 -19 -37 -42 -32 -45 11 -119 72 -158 132 -9 12 -22 22 -29 22 -16 0 -19 -26 -5 -34 5 -3 14 -20 20 -36 6 -18 6 -28 1 -25 -6 4 -10 2 -10 -4 0 -14 80 -78 113 -90 45 -17 67 -13 97 19 30 32 55 115 64 211 3 31 18 96 32 145 15 49 32 113 39 142 l13 52 -354 0 c-331 0 -354 -1 -354 -17z"/>
 <path d="M931 1953 c5 -27 13 -60 18 -75 8 -24 6 -30 -17 -47 l-27 -20 40 -40 c21 -23 45 -41 52 -41 17 0 83 59 83 74 0 7 -9 21 -21 32 -18 16 -20 26 -14 69 3 27 9 60 12 73 5 21 3 22 -65 22 l-69 0 8 -47z"/>
 <path d="M1175 1948 c7 -29 24 -91 39 -137 33 -103 46 -231 24 -231 -21 0 -24 -154 -4 -223 43 -148 193 -212 368 -157 34 11 65 20 67 20 3 0 -9 -15 -26 -32 -42 -46 -92 -117 -109 -157 -21 -50 -18 -123 7 -155 18 -23 19 -28 6 -41 -13 -13 -16 -10 -24 21 -7 32 -13 37 -75 58 -37 12 -66 20 -66 17 2 -24 -4 -41 -12 -36 -6 4 -17 1 -25 -5 -12 -10 -15 -9 -15 4 0 23 -77 104 -120 126 -19 9 -59 23 -88 29 -47 10 -59 9 -103 -10 -62 -27 -84 -55 -100 -124 l-12 -53 -42 31 c-40 30 -43 36 -49 91 -3 32 -6 83 -6 112 l0 53 -54 15 c-67 20 -66 20 -66 0 0 -15 -2 -15 -24 0 -23 15 -25 14 -31 -5 -5 -14 -12 -18 -25 -14 -16 5 -20 -3 -30 -50 -15 -70 -35 -72 -49 -5 -6 28 -11 56 -11 63 0 7 -5 29 -11 50 -7 26 -15 37 -29 37 -24 0 -25 8 -4 31 33 36 27 101 -23 264 -6 18 -5 18 10 6 9 -7 17 -10 17 -5 -1 15 -37 54 -50 54 -13 0 -13 -3 21 -95 12 -33 24 -95 27 -137 l5 -78 -41 0 c-51 0 -142 33 -201 72 -26 18 -47 25 -50 19 -4 -6 -12 -7 -21 -1 -24 15 -40 12 -40 -9 0 -14 -6 -17 -24 -14 -22 5 -23 2 -29 -69 -4 -40 -9 -124 -13 -185 -7 -110 -7 -113 -30 -113 -27 0 -33 -25 -8 -34 25 -9 32 -7 36 11 2 9 3 -32 3 -91 l0 -109 42 -12 c23 -7 58 -16 77 -19 30 -6 35 -4 30 9 -5 11 1 15 20 15 14 0 26 -6 26 -12 1 -30 19 -40 85 -44 57 -3 66 -1 61 12 -5 12 0 15 22 12 21 -2 30 -11 38 -36 18 -56 112 -98 128 -57 3 9 13 15 22 13 12 -2 21 9 29 37 l13 40 1 -58 1 -58 58 -26 c89 -40 131 -41 195 -5 l53 30 19 -35 c48 -88 176 -154 241 -124 21 9 29 9 38 -2 6 -8 36 -31 66 -51 52 -35 55 -35 58 -15 3 16 9 20 27 15 20 -5 24 -1 29 32 3 20 6 48 7 62 l0 25 11 -23 c7 -14 20 -22 37 -22 14 0 32 -4 40 -9 18 -12 41 -3 41 15 0 8 4 14 10 14 16 0 29 -35 36 -92 l6 -53 -65 0 c-78 0 -110 -19 -145 -86 -20 -38 -23 -56 -20 -132 2 -48 0 -87 -3 -87 -3 0 -26 29 -52 63 -87 120 -193 196 -251 181 -31 -8 -83 -65 -92 -101 -11 -43 -31 -76 -37 -61 -3 7 -6 3 -6 -9 -1 -32 27 -29 35 3 5 19 9 22 15 13 11 -19 23 -4 38 50 27 93 56 109 130 71 43 -21 146 -129 188 -196 33 -52 69 -62 59 -16 -6 24 -5 25 7 10 8 -10 21 -18 28 -18 12 0 13 12 5 74 -7 54 -6 91 4 135 19 91 27 97 122 93 32 -2 37 -6 40 -29 3 -23 12 -29 72 -50 73 -24 101 -29 92 -15 -2 4 21 5 52 1 93 -12 112 -11 112 7 0 11 6 14 21 9 21 -7 22 -6 15 61 -3 38 -11 94 -16 124 -5 30 -14 87 -20 125 -21 133 -17 124 -63 127 l-42 3 38 18 c50 24 71 57 62 97 -7 34 -59 90 -82 90 -20 0 -101 -49 -111 -67 -7 -12 -20 -9 -78 22 -114 60 -138 120 -90 220 23 50 102 148 137 173 11 7 19 20 19 28 0 16 -21 19 -36 4 -16 -16 -145 -50 -191 -50 -56 0 -143 33 -176 68 -47 49 -70 117 -70 210 0 62 4 87 15 99 21 20 243 96 344 118 116 24 158 49 188 110 24 48 45 121 46 158 0 16 -23 17 -354 17 l-353 0 12 -52z m-1010 -655 l35 -17 -5 -90 c-4 -50 -8 -101 -11 -113 -9 -44 14 -23 67 62 30 47 57 85 61 85 3 0 15 -11 26 -25 23 -29 34 -32 30 -7 -2 14 3 16 27 14 17 -2 35 -8 41 -13 7 -5 19 -50 29 -99 l17 -90 39 -10 c22 -6 43 -8 48 -6 5 3 14 35 21 71 10 55 15 65 29 59 36 -14 54 -17 47 -6 -11 17 8 22 47 11 l37 -10 2 -92 c0 -51 1 -98 1 -105 -1 -6 18 -26 41 -44 110 -85 158 -166 136 -232 -18 -55 -55 -79 -111 -73 -25 3 -67 16 -92 28 l-47 23 -1 75 c-1 42 -4 117 -8 166 l-6 90 -44 -158 c-41 -146 -46 -157 -65 -151 -58 18 -65 24 -75 62 -11 38 -91 391 -91 398 0 10 -19 2 -41 -17 -13 -12 -39 -33 -56 -46 -18 -14 -33 -31 -33 -37 0 -6 27 -72 60 -145 33 -74 60 -134 60 -135 0 -1 -18 0 -40 2 -48 5 -49 7 -106 165 -21 59 -42 107 -48 107 -5 0 -7 -46 -3 -116 l6 -117 -35 6 c-68 11 -68 10 -61 222 8 222 17 325 28 325 5 0 24 -8 44 -17z m155 -45 c12 -8 12 -9 -2 -4 -12 3 -24 -6 -39 -30 -26 -43 -32 -39 -23 15 6 36 9 41 28 35 11 -4 28 -11 36 -16z m68 -235 c15 -64 26 -116 28 -128 0 -5 3 -17 6 -25 15 -42 29 -103 24 -107 -3 -3 -9 3 -12 13 -4 10 -22 52 -40 92 -18 39 -31 72 -29 72 2 0 -7 19 -20 42 l-24 43 21 22 c12 13 24 23 28 23 3 0 11 -21 18 -47z m763 -32 c64 -33 93 -65 125 -134 21 -48 28 -78 28 -129 1 -74 12 -90 21 -30 4 20 13 70 21 111 8 40 14 74 14 76 0 2 21 -3 48 -9 l47 -12 22 -90 c12 -49 22 -97 23 -106 0 -43 18 -12 35 61 23 103 25 105 61 89 16 -6 30 -13 32 -14 2 -1 14 -49 27 -106 13 -56 39 -169 59 -250 20 -81 36 -154 36 -162 0 -13 -6 -13 -44 0 -50 17 -46 6 -76 194 -12 74 -25 142 -28 150 -3 8 -12 -21 -21 -65 l-17 -80 -33 2 c-18 0 -37 5 -43 11 -5 5 -20 49 -33 97 -14 48 -26 89 -28 92 -2 2 -14 -59 -26 -134 -12 -76 -24 -144 -26 -151 -3 -8 -19 -2 -49 20 -45 31 -45 32 -39 76 4 33 3 43 -5 38 -7 -4 -12 -13 -12 -21 0 -20 -49 -55 -78 -55 -49 0 -104 24 -144 63 -114 111 -158 386 -76 475 20 21 30 23 79 20 31 -2 75 -14 100 -27z m696 -159 c22 -14 42 -64 33 -83 -16 -29 -39 -30 -66 -4 -23 23 -33 73 -17 88 9 9 35 9 50 -1z m-69 -75 c19 -15 14 -24 -20 -36 -37 -13 -36 -13 -44 26 -6 29 -5 30 22 25 16 -2 35 -9 42 -15z m40 -59 c18 -18 14 -28 -12 -28 l-24 0 4 -102 4 -103 -14 60 c-7 33 -21 84 -29 112 -15 49 -15 53 1 63 23 13 56 12 70 -2z m57 -90 c18 -102 53 -343 50 -346 -2 -2 -27 -1 -54 3 l-51 7 0 138 c0 75 -3 158 -6 184 l-7 46 31 0 c27 0 32 -4 37 -32z"/>
 <path d="M500 919 c0 -27 24 -139 30 -139 10 0 31 123 22 131 -15 15 -52 20 -52 8z"/>
 <path d="M764 764 c3 -9 6 -36 6 -60 0 -40 2 -44 24 -44 66 0 75 39 21 88 -37 34 -61 42 -51 16z"/>
 <path d="M1051 861 c-26 -37 -29 -136 -5 -184 24 -47 65 -87 89 -87 12 0 34 13 49 29 54 57 43 155 -28 239 -36 42 -76 44 -105 3z m90 -13 c52 -54 74 -153 45 -194 -43 -57 -119 106 -91 194 8 28 19 28 46 0z"/>
 <path d="M786 1605 c-8 -42 11 -74 76 -130 67 -57 133 -68 207 -35 52 24 51 32 -2 20 -47 -10 -101 3 -146 38 -31 23 -33 26 -15 33 36 14 162 10 204 -7 35 -14 39 -19 28 -33 -7 -9 7 2 30 24 23 21 42 41 42 44 0 2 -11 -5 -23 -17 -23 -22 -25 -22 -63 -6 -41 18 -164 25 -219 12 -28 -6 -33 -3 -65 42 -19 27 -38 49 -41 50 -4 0 -10 -16 -13 -35z"/>
 <path d="M272 649 c-18 -21 -58 -54 -90 -72 -66 -39 -84 -72 -30 -56 18 5 81 10 139 11 94 1 110 -1 147 -22 76 -43 79 -134 11 -276 -17 -36 -29 -67 -27 -69 2 -2 49 27 105 65 56 37 128 77 160 88 32 11 50 21 41 21 -34 2 -126 -40 -198 -89 -40 -28 -74 -49 -76 -47 -2 2 8 28 22 58 35 70 44 177 20 214 -9 13 -27 32 -40 41 -35 22 -140 34 -224 26 -39 -5 -72 -5 -72 -1 0 4 15 16 33 28 36 23 123 108 116 115 -2 3 -19 -13 -37 -35z"/>
 <path d="M805 320 c52 -23 87 -61 124 -135 17 -33 30 -56 31 -51 0 14 -50 109 -77 145 -14 18 -41 39 -59 47 -49 21 -66 16 -19 -6z"/>
 </g>
<g id="layer111" fill="#572717" stroke="none">
 <path d="M130 1983 c1 -37 22 -110 46 -158 30 -61 72 -86 188 -110 105 -23 321 -98 346 -120 22 -20 21 -32 -7 -97 -14 -33 -19 -37 -42 -31 -48 11 -117 68 -158 131 -16 23 -43 30 -43 11 0 -6 9 -24 21 -40 11 -16 19 -34 17 -40 -2 -6 -15 5 -28 25 -14 20 -31 36 -39 36 -15 0 -14 -1 20 -95 12 -33 24 -95 27 -137 l5 -78 -40 0 c-60 0 -177 44 -221 84 -16 15 -25 17 -30 9 -5 -8 -13 -9 -22 -3 -24 15 -40 12 -40 -9 0 -14 -6 -17 -24 -14 -26 5 -26 2 -42 -252 -5 -70 -12 -114 -21 -123 -7 -8 -13 -9 -13 -3 0 6 -4 11 -10 11 -16 0 -11 -27 6 -34 25 -9 32 -7 36 11 2 9 3 -32 3 -91 l0 -109 42 -12 c23 -7 58 -16 77 -19 30 -6 35 -4 30 9 -5 11 1 15 20 15 14 0 26 -6 26 -12 1 -30 19 -40 85 -44 57 -3 66 -1 61 12 -5 12 0 15 22 12 21 -2 30 -11 38 -36 18 -56 112 -98 128 -57 3 9 13 15 22 13 12 -2 21 9 29 37 l13 40 1 -58 1 -58 58 -26 c89 -40 131 -41 195 -5 l53 30 19 -35 c48 -88 176 -154 241 -124 21 9 29 9 38 -2 6 -8 36 -31 66 -51 52 -35 55 -35 58 -15 3 16 9 20 27 15 20 -5 24 -1 29 32 3 20 6 48 7 62 l0 25 11 -22 c7 -15 20 -23 37 -23 14 0 32 -4 40 -9 18 -12 41 -3 41 15 0 8 4 14 10 14 16 0 29 -35 36 -92 l6 -53 -65 0 c-78 0 -110 -19 -145 -86 -20 -38 -23 -56 -20 -132 2 -48 0 -87 -3 -87 -3 0 -26 29 -52 63 -87 120 -193 196 -251 181 -31 -8 -83 -65 -92 -101 -11 -43 -31 -76 -37 -61 -3 7 -6 3 -6 -9 -1 -32 27 -29 35 3 5 19 9 22 15 13 11 -19 19 -8 43 63 25 72 39 83 92 74 31 -6 54 -24 114 -84 41 -43 89 -98 105 -124 35 -55 72 -67 61 -20 -6 24 -5 25 7 10 16 -20 53 -25 41 -7 -4 7 -7 25 -6 40 0 16 -3 29 -7 29 -10 0 5 127 21 174 15 45 37 55 105 48 36 -3 42 -7 45 -30 3 -22 13 -29 72 -49 73 -24 101 -29 92 -15 -2 4 21 5 52 1 93 -12 112 -11 112 7 0 11 6 14 21 9 21 -7 22 -6 15 61 -3 38 -11 94 -16 124 -5 30 -14 87 -20 125 -21 133 -17 124 -63 127 l-42 3 38 18 c50 24 71 57 62 97 -7 34 -59 90 -82 90 -20 0 -101 -49 -111 -67 -7 -12 -20 -9 -78 22 -104 55 -132 108 -103 196 12 35 74 125 116 168 13 13 23 28 23 32 0 5 7 9 15 9 8 0 15 7 15 15 0 17 -21 20 -36 5 -16 -16 -145 -50 -191 -50 -107 0 -207 71 -234 168 -18 64 -16 190 4 209 20 20 243 96 343 118 116 24 158 49 188 110 36 72 58 175 37 175 -5 0 -14 -27 -19 -59 -6 -32 -22 -81 -36 -108 -28 -56 -54 -71 -176 -98 -41 -10 -124 -35 -184 -55 l-108 -39 58 55 58 54 -34 29 -35 29 30 12 c54 21 55 25 28 106 -14 43 -30 74 -38 74 -10 0 -6 -21 15 -79 l29 -80 -37 -12 c-55 -17 -57 -23 -16 -58 24 -19 35 -34 29 -39 -41 -37 -148 -113 -152 -108 -4 3 -6 34 -5 68 1 47 -8 93 -36 182 -20 66 -43 121 -51 124 -11 4 -12 -5 -6 -44 4 -27 11 -56 16 -65 16 -31 57 -204 60 -259 3 -45 1 -55 -12 -53 -22 4 -26 -148 -5 -220 43 -148 193 -212 368 -157 34 11 65 20 67 20 3 0 -9 -15 -26 -32 -42 -46 -92 -117 -109 -157 -21 -50 -18 -123 7 -155 18 -23 19 -28 6 -41 -13 -13 -16 -10 -24 21 -7 32 -13 37 -75 58 -37 12 -66 20 -66 17 2 -24 -4 -41 -12 -36 -6 4 -17 1 -25 -5 -12 -10 -15 -9 -15 4 0 23 -77 104 -120 126 -19 9 -59 23 -88 29 -47 10 -59 9 -103 -10 -62 -27 -84 -55 -100 -124 l-12 -53 -42 31 c-40 30 -43 36 -49 91 -3 32 -6 83 -6 112 l0 53 -54 15 c-67 20 -66 20 -66 0 0 -15 -2 -15 -24 0 -23 15 -25 14 -31 -5 -5 -14 -12 -18 -25 -14 -16 5 -20 -3 -30 -50 -15 -70 -35 -72 -49 -5 -6 28 -11 56 -11 63 0 7 -5 29 -11 50 -7 26 -15 37 -29 37 -24 0 -25 8 -4 31 33 36 27 105 -23 263 -4 11 18 -5 50 -36 84 -84 154 -99 195 -40 25 35 52 125 52 175 0 42 29 167 60 260 23 66 26 111 8 105 -21 -7 -88 -236 -87 -298 0 -30 0 -66 0 -80 -1 -24 -1 -24 -15 -4 -8 12 -44 43 -80 69 -37 26 -66 50 -66 52 0 2 16 18 36 35 39 34 37 40 -18 57 l-37 12 29 80 c21 58 25 79 15 79 -8 0 -24 -31 -38 -74 -27 -82 -26 -85 28 -106 l30 -11 -35 -29 -35 -29 60 -57 c33 -31 51 -53 40 -49 -80 32 -212 75 -275 90 -122 27 -148 42 -176 98 -14 27 -30 76 -36 108 -9 54 -28 82 -28 42z m35 -690 l35 -17 -5 -90 c-4 -50 -8 -101 -11 -113 -9 -44 14 -23 67 62 30 47 57 85 61 85 3 0 15 -11 26 -25 23 -29 34 -32 30 -7 -2 14 3 16 27 14 17 -2 35 -8 41 -13 7 -5 19 -50 29 -99 l17 -90 39 -10 c22 -6 43 -8 48 -6 5 3 14 35 21 71 10 55 15 65 29 59 36 -14 54 -17 47 -6 -11 17 8 22 47 11 l37 -10 2 -92 c0 -51 1 -98 1 -105 -1 -6 18 -26 41 -44 110 -85 158 -166 136 -232 -18 -55 -55 -79 -111 -73 -25 3 -67 16 -92 28 l-47 23 -1 75 c-1 42 -4 117 -8 166 l-6 90 -44 -158 c-41 -146 -46 -157 -65 -151 -58 18 -65 24 -75 62 -11 38 -91 391 -91 398 0 10 -19 2 -41 -17 -13 -12 -39 -33 -56 -46 -18 -14 -33 -31 -33 -37 0 -6 27 -72 60 -145 33 -74 60 -134 60 -135 0 -1 -18 0 -40 2 -48 5 -49 7 -106 165 -21 59 -42 107 -48 107 -5 0 -7 -46 -3 -116 l6 -117 -35 6 c-68 11 -68 10 -61 222 8 222 17 325 28 325 5 0 24 -8 44 -17z m155 -45 c12 -8 12 -9 -2 -4 -12 3 -24 -6 -39 -30 -26 -43 -32 -39 -23 15 6 36 9 41 28 35 11 -4 28 -11 36 -16z m68 -235 c15 -64 26 -116 28 -128 0 -5 3 -17 6 -25 15 -42 29 -103 24 -107 -3 -3 -9 3 -12 13 -4 10 -22 52 -40 92 -18 39 -31 72 -29 72 2 0 -7 19 -20 42 l-24 43 21 22 c12 13 24 23 28 23 3 0 11 -21 18 -47z m763 -32 c64 -33 93 -65 125 -134 21 -48 28 -78 28 -129 1 -74 12 -90 21 -30 4 20 13 70 21 111 8 40 14 74 14 76 0 2 21 -3 48 -9 l47 -12 22 -90 c12 -49 22 -97 23 -106 0 -43 18 -12 35 61 23 103 25 105 61 89 16 -6 30 -13 32 -14 2 -1 14 -49 27 -106 13 -56 39 -169 59 -250 20 -81 36 -154 36 -162 0 -13 -6 -13 -44 0 -50 17 -46 6 -76 194 -12 74 -25 142 -28 150 -3 8 -12 -21 -21 -65 l-17 -80 -33 2 c-18 0 -37 5 -43 11 -5 5 -20 49 -33 97 -14 48 -26 89 -28 92 -2 2 -14 -59 -26 -134 -12 -76 -24 -144 -26 -151 -3 -8 -19 -2 -49 20 -45 31 -45 32 -39 76 4 33 3 43 -5 38 -7 -4 -12 -13 -12 -21 0 -20 -49 -55 -78 -55 -49 0 -104 24 -144 63 -114 111 -158 386 -76 475 20 21 30 23 79 20 31 -2 75 -14 100 -27z m696 -159 c22 -14 42 -64 33 -83 -16 -29 -39 -30 -66 -4 -23 23 -33 73 -17 88 9 9 35 9 50 -1z m-69 -75 c19 -15 14 -24 -20 -36 -37 -13 -36 -13 -44 26 -6 29 -5 30 22 25 16 -2 35 -9 42 -15z m40 -59 c18 -18 14 -28 -12 -28 l-24 0 4 -102 4 -103 -14 60 c-7 33 -21 84 -29 112 -15 49 -15 53 1 63 23 13 56 12 70 -2z m57 -90 c18 -102 53 -343 50 -346 -2 -2 -27 -1 -54 3 l-51 7 0 138 c0 75 -3 158 -6 184 l-7 46 31 0 c27 0 32 -4 37 -32z"/>
 <path d="M500 919 c0 -27 24 -139 30 -139 10 0 31 123 22 131 -15 15 -52 20 -52 8z"/>
 <path d="M764 764 c3 -9 6 -36 6 -60 0 -40 2 -44 24 -44 66 0 75 39 21 88 -37 34 -61 42 -51 16z"/>
 <path d="M1051 861 c-26 -37 -29 -136 -5 -184 24 -47 65 -87 89 -87 12 0 34 13 49 29 54 57 43 155 -28 239 -36 42 -76 44 -105 3z m90 -13 c52 -54 74 -153 45 -194 -43 -57 -119 106 -91 194 8 28 19 28 46 0z"/>
 <path d="M300 1956 c-7 -26 -28 -72 -47 -103 -41 -69 -37 -82 5 -17 33 49 66 136 60 156 -3 7 -10 -9 -18 -36z"/>
 <path d="M931 1953 c5 -27 13 -60 18 -75 8 -24 6 -30 -17 -47 l-27 -20 40 -40 c21 -23 45 -41 52 -41 18 0 83 59 83 76 0 7 -10 18 -21 25 -19 10 -21 17 -15 67 4 31 9 66 12 79 6 22 4 23 -64 23 l-69 0 8 -47z"/>
 <path d="M1681 1988 c-1 -28 35 -117 65 -159 36 -52 43 -43 9 10 -15 22 -38 69 -51 103 -12 35 -23 55 -23 46z"/>
 <path d="M786 1605 c-8 -42 11 -74 76 -130 65 -55 133 -68 201 -37 l39 17 -64 0 c-51 0 -70 5 -99 25 -40 27 -106 102 -122 138 -14 31 -24 28 -31 -13z"/>
 <path d="M272 649 c-18 -21 -58 -54 -90 -72 -67 -39 -84 -71 -30 -57 18 5 68 10 110 12 42 2 73 7 69 11 -5 4 -45 4 -90 -1 -44 -4 -81 -5 -81 -1 0 4 15 16 33 28 36 23 123 108 116 115 -2 3 -19 -13 -37 -35z"/>
 <path d="M380 531 c128 -25 151 -125 69 -297 -17 -36 -29 -67 -27 -69 2 -2 49 27 105 65 56 37 128 77 160 88 32 11 50 21 41 21 -34 2 -126 -40 -198 -89 -40 -28 -74 -49 -76 -47 -2 2 8 28 23 58 18 37 27 76 31 124 4 62 1 73 -19 99 -26 33 -76 57 -116 55 -25 -1 -24 -2 7 -8z"/>
 <path d="M805 320 c52 -23 87 -61 124 -135 17 -33 30 -56 31 -51 0 14 -50 109 -77 145 -14 18 -41 39 -59 47 -49 21 -66 16 -19 -6z"/>
 </g>
<g id="layer112" fill="#3b470e" stroke="none">
 <path d="M130 1982 c0 -36 31 -138 50 -164 11 -15 20 -31 20 -35 0 -11 79 -51 115 -57 108 -20 102 -18 248 -69 70 -24 136 -52 147 -62 22 -20 21 -32 -7 -97 -14 -33 -19 -37 -42 -31 -48 11 -117 68 -158 131 -16 23 -43 30 -43 11 0 -6 9 -24 21 -40 11 -16 19 -34 17 -40 -2 -6 -15 5 -28 25 -14 20 -31 36 -39 36 -15 0 -14 -1 20 -95 12 -33 24 -95 27 -137 l5 -78 -40 0 c-60 0 -177 44 -221 84 -16 15 -25 17 -30 9 -5 -8 -13 -9 -22 -3 -24 15 -40 12 -40 -9 0 -14 -6 -17 -24 -14 -26 5 -26 2 -42 -252 -5 -70 -12 -114 -21 -123 -7 -8 -13 -9 -13 -3 0 6 -4 11 -10 11 -16 0 -11 -27 6 -34 25 -9 32 -7 36 11 2 9 3 -32 3 -91 l0 -109 42 -12 c23 -7 58 -16 77 -19 30 -6 35 -4 30 9 -5 11 1 15 20 15 14 0 26 -6 26 -12 1 -30 19 -40 85 -44 57 -3 66 -1 61 12 -5 12 0 15 22 12 21 -2 30 -11 38 -36 18 -56 112 -98 128 -57 3 9 13 15 22 13 12 -2 21 9 29 37 l13 40 1 -58 1 -58 58 -26 c89 -40 131 -41 195 -5 l53 30 19 -35 c48 -88 176 -154 241 -124 21 9 29 9 38 -2 6 -8 36 -31 66 -51 52 -35 55 -35 58 -15 3 16 9 20 27 15 20 -5 24 -1 29 32 3 20 6 48 7 62 l0 25 11 -22 c7 -15 20 -23 37 -23 14 0 32 -4 40 -9 18 -12 41 -3 41 15 0 8 4 14 10 14 16 0 29 -35 36 -92 l6 -53 -65 0 c-78 0 -110 -19 -145 -86 -20 -38 -23 -56 -20 -132 2 -48 0 -87 -3 -87 -3 0 -26 29 -52 63 -87 120 -193 196 -251 181 -31 -8 -83 -65 -92 -101 -11 -43 -31 -76 -37 -61 -3 7 -6 3 -6 -9 -1 -32 27 -29 35 3 5 19 9 22 15 13 11 -19 19 -8 43 63 25 72 39 83 92 74 31 -6 54 -24 114 -84 41 -43 89 -98 105 -124 35 -55 72 -67 61 -20 -6 24 -5 25 7 10 16 -20 53 -25 41 -7 -4 7 -7 25 -6 40 0 16 -3 29 -7 29 -10 0 5 127 21 174 15 45 37 55 105 48 36 -3 42 -7 45 -30 3 -22 13 -29 72 -49 73 -24 101 -29 92 -15 -2 4 21 5 52 1 93 -12 112 -11 112 7 0 11 6 14 21 9 21 -7 22 -6 15 61 -3 38 -11 94 -16 124 -5 30 -14 87 -20 125 -21 133 -17 124 -63 127 l-42 3 38 18 c50 24 71 57 62 97 -7 34 -59 90 -82 90 -20 0 -101 -49 -111 -67 -7 -12 -20 -9 -78 22 -104 55 -132 108 -103 196 12 35 74 125 116 168 13 13 23 28 23 32 0 5 7 9 15 9 8 0 15 7 15 15 0 17 -21 20 -36 5 -16 -16 -145 -50 -191 -50 -107 0 -207 71 -234 168 -18 64 -16 190 4 209 8 8 73 35 143 60 147 51 141 49 249 69 36 6 115 46 115 57 0 4 9 20 20 35 19 26 50 128 50 164 0 39 -18 15 -24 -33 -9 -67 -48 -153 -79 -174 -14 -8 -76 -29 -138 -45 -96 -24 -184 -53 -294 -96 l-20 -7 20 23 20 23 -32 -23 c-18 -13 -33 -27 -33 -32 0 -4 -7 -8 -15 -8 -11 0 -15 13 -15 54 0 48 -68 317 -84 334 -13 13 -4 -33 29 -148 34 -116 59 -255 49 -272 -3 -4 -10 -5 -17 -2 -20 7 -22 -153 -3 -219 43 -148 193 -212 368 -157 34 11 65 20 67 20 3 0 -9 -15 -26 -32 -42 -46 -92 -117 -109 -157 -21 -50 -18 -123 7 -155 18 -23 19 -28 6 -41 -13 -13 -16 -10 -24 21 -7 32 -13 37 -75 58 -37 12 -66 20 -66 17 2 -24 -4 -41 -12 -36 -6 4 -17 1 -25 -5 -12 -10 -15 -9 -15 4 0 23 -77 104 -120 126 -19 9 -59 23 -88 29 -47 10 -59 9 -103 -10 -62 -27 -84 -55 -100 -124 l-12 -53 -42 31 c-40 30 -43 36 -49 91 -3 32 -6 83 -6 112 l0 53 -54 15 c-67 20 -66 20 -66 0 0 -15 -2 -15 -24 0 -23 15 -25 14 -31 -5 -5 -14 -12 -18 -25 -14 -16 5 -20 -3 -30 -50 -15 -70 -35 -72 -49 -5 -6 28 -11 56 -11 63 0 7 -5 29 -11 50 -7 26 -15 37 -29 37 -24 0 -25 8 -4 31 33 36 27 105 -23 263 -4 11 19 -5 50 -37 96 -95 165 -100 210 -13 40 76 31 112 -43 171 l-25 20 20 -24 20 -24 -20 7 c-110 43 -198 72 -294 96 -62 16 -124 37 -138 45 -31 21 -70 107 -79 174 -6 48 -24 72 -24 33z m35 -689 l35 -17 -5 -90 c-4 -50 -8 -101 -11 -113 -9 -44 14 -23 67 62 30 47 57 85 61 85 3 0 15 -11 26 -25 23 -29 34 -32 30 -7 -2 14 3 16 27 14 17 -2 35 -8 41 -13 7 -5 19 -50 29 -99 l17 -90 39 -10 c22 -6 43 -8 48 -6 5 3 14 35 21 71 10 55 15 65 29 59 36 -14 54 -17 47 -6 -11 17 8 22 47 11 l37 -10 2 -92 c0 -51 1 -98 1 -105 -1 -6 18 -26 41 -44 110 -85 158 -166 136 -232 -18 -55 -55 -79 -111 -73 -25 3 -67 16 -92 28 l-47 23 -1 75 c-1 42 -4 117 -8 166 l-6 90 -44 -158 c-41 -146 -46 -157 -65 -151 -58 18 -65 24 -75 62 -11 38 -91 391 -91 398 0 10 -19 2 -41 -17 -13 -12 -39 -33 -56 -46 -18 -14 -33 -31 -33 -37 0 -6 27 -72 60 -145 33 -74 60 -134 60 -135 0 -1 -18 0 -40 2 -48 5 -49 7 -106 165 -21 59 -42 107 -48 107 -5 0 -7 -46 -3 -116 l6 -117 -35 6 c-68 11 -68 10 -61 222 8 222 17 325 28 325 5 0 24 -8 44 -17z m155 -45 c12 -8 12 -9 -2 -4 -12 3 -24 -6 -39 -30 -26 -43 -32 -39 -23 15 6 36 9 41 28 35 11 -4 28 -11 36 -16z m68 -235 c15 -64 26 -116 28 -128 0 -5 3 -17 6 -25 15 -42 29 -103 24 -107 -3 -3 -9 3 -12 13 -4 10 -22 52 -40 92 -18 39 -31 72 -29 72 2 0 -7 19 -20 42 l-24 43 21 22 c12 13 24 23 28 23 3 0 11 -21 18 -47z m763 -32 c64 -33 93 -65 125 -134 21 -48 28 -78 28 -129 1 -74 12 -90 21 -30 4 20 13 70 21 111 8 40 14 74 14 76 0 2 21 -3 48 -9 l47 -12 22 -90 c12 -49 22 -97 23 -106 0 -43 18 -12 35 61 23 103 25 105 61 89 16 -6 30 -13 32 -14 2 -1 14 -49 27 -106 13 -56 39 -169 59 -250 20 -81 36 -154 36 -162 0 -13 -6 -13 -44 0 -50 17 -46 6 -76 194 -12 74 -25 142 -28 150 -3 8 -12 -21 -21 -65 l-17 -80 -33 2 c-18 0 -37 5 -43 11 -5 5 -20 49 -33 97 -14 48 -26 89 -28 92 -2 2 -14 -59 -26 -134 -12 -76 -24 -144 -26 -151 -3 -8 -19 -2 -49 20 -45 31 -45 32 -39 76 4 33 3 43 -5 38 -7 -4 -12 -13 -12 -21 0 -20 -49 -55 -78 -55 -49 0 -104 24 -144 63 -114 111 -158 386 -76 475 20 21 30 23 79 20 31 -2 75 -14 100 -27z m696 -159 c22 -14 42 -64 33 -83 -16 -29 -39 -30 -66 -4 -23 23 -33 73 -17 88 9 9 35 9 50 -1z m-69 -75 c19 -15 14 -24 -20 -36 -37 -13 -36 -13 -44 26 -6 29 -5 30 22 25 16 -2 35 -9 42 -15z m40 -59 c18 -18 14 -28 -12 -28 l-24 0 4 -102 4 -103 -14 60 c-7 33 -21 84 -29 112 -15 49 -15 53 1 63 23 13 56 12 70 -2z m57 -90 c18 -102 53 -343 50 -346 -2 -2 -27 -1 -54 3 l-51 7 0 138 c0 75 -3 158 -6 184 l-7 46 31 0 c27 0 32 -4 37 -32z"/>
 <path d="M500 919 c0 -27 24 -139 30 -139 10 0 31 123 22 131 -15 15 -52 20 -52 8z"/>
 <path d="M764 764 c3 -9 6 -36 6 -60 0 -40 2 -44 24 -44 66 0 75 39 21 88 -37 34 -61 42 -51 16z"/>
 <path d="M1051 861 c-26 -37 -29 -136 -5 -184 24 -47 65 -87 89 -87 12 0 34 13 49 29 54 57 43 155 -28 239 -36 42 -76 44 -105 3z m90 -13 c52 -54 74 -153 45 -194 -43 -57 -119 106 -91 194 8 28 19 28 46 0z"/>
 <path d="M585 1989 c-26 -71 -44 -133 -40 -137 2 -3 9 8 15 24 6 16 18 48 27 72 9 23 13 45 10 49 -4 3 -9 0 -12 -8z"/>
 <path d="M802 1935 c-49 -164 -62 -223 -61 -275 l2 -55 8 64 c4 36 13 76 18 90 21 58 62 222 58 233 -2 7 -14 -18 -25 -57z"/>
 <path d="M931 1953 c5 -27 13 -60 18 -75 8 -24 6 -30 -17 -47 l-27 -20 40 -40 c21 -23 45 -41 52 -41 18 0 83 59 83 76 0 7 -10 18 -21 25 -19 10 -21 17 -15 67 4 31 9 66 12 79 6 22 4 23 -64 23 l-69 0 8 -47z"/>
 <path d="M1400 1993 c0 -10 15 -55 39 -117 21 -54 21 -20 0 45 -21 61 -39 96 -39 72z"/>
 <path d="M613 1813 c3 -5 -7 -20 -23 -32 -31 -22 -38 -45 -18 -57 7 -5 8 -3 3 5 -4 8 5 25 25 46 23 24 28 35 19 40 -7 5 -10 4 -6 -2z"/>
 <path d="M1376 1813 c-3 -4 8 -21 25 -39 29 -30 31 -35 18 -51 -13 -16 -12 -17 4 -4 25 19 21 37 -13 62 -16 12 -27 26 -24 31 6 10 0 11 -10 1z"/>
 <path d="M786 1605 c-8 -42 11 -74 76 -130 66 -56 133 -68 203 -36 l40 18 -46 -4 c-26 -3 -64 0 -85 7 -44 15 -134 102 -155 149 -18 40 -25 39 -33 -4z"/>
 <path d="M272 649 c-18 -21 -58 -54 -90 -72 -67 -39 -84 -71 -30 -57 18 5 68 10 110 12 42 2 73 7 69 11 -5 4 -45 4 -90 -1 -44 -4 -81 -5 -81 -1 0 4 15 16 33 28 36 23 123 108 116 115 -2 3 -19 -13 -37 -35z"/>
 <path d="M380 531 c128 -25 151 -125 69 -297 -17 -36 -29 -67 -27 -69 2 -2 49 27 105 65 56 37 128 77 160 88 32 11 50 21 41 21 -34 2 -126 -40 -198 -89 -40 -28 -74 -49 -76 -47 -2 2 8 28 23 58 18 37 27 76 31 124 4 62 1 73 -19 99 -26 33 -76 57 -116 55 -25 -1 -24 -2 7 -8z"/>
 <path d="M805 320 c52 -23 87 -61 124 -135 17 -33 30 -56 31 -51 0 14 -50 109 -77 145 -14 18 -41 39 -59 47 -49 21 -66 16 -19 -6z"/>
 </g>
<g id="layer113" fill="#07075e" stroke="none">
 <path d="M130 1982 c0 -36 31 -138 50 -164 11 -15 20 -31 20 -35 0 -11 79 -51 115 -57 108 -20 102 -18 249 -69 155 -54 169 -65 155 -125 -16 -74 -47 -86 -108 -43 -16 12 -34 21 -39 21 -6 0 -14 9 -17 20 -4 11 -11 18 -16 15 -5 -4 -13 5 -19 19 -5 14 -14 26 -20 26 -5 0 -9 5 -8 12 2 6 -5 14 -14 16 -11 2 -18 -2 -18 -12 0 -9 3 -16 8 -16 9 0 32 -49 32 -69 0 -8 -12 3 -26 25 -25 38 -54 54 -54 30 1 -19 28 -48 32 -35 2 7 14 -1 27 -19 12 -18 27 -29 33 -26 6 4 8 2 5 -3 -9 -14 60 -61 101 -69 41 -8 73 12 97 63 37 77 28 109 -45 168 l-25 20 20 -24 20 -24 -20 7 c-110 43 -198 72 -294 96 -62 16 -124 37 -138 45 -31 21 -70 107 -79 174 -6 48 -24 72 -24 33z"/>
 <path d="M585 1989 c-26 -71 -44 -133 -40 -137 2 -3 9 8 15 24 6 16 18 48 27 72 9 23 13 45 10 49 -4 3 -9 0 -12 -8z"/>
 <path d="M802 1935 c-49 -164 -62 -223 -61 -275 l2 -55 8 64 c4 36 13 76 18 90 21 58 62 222 58 233 -2 7 -14 -18 -25 -57z"/>
 <path d="M936 1939 c7 -33 15 -67 18 -74 3 -8 -7 -22 -21 -33 l-26 -19 41 -41 c23 -23 46 -42 52 -42 15 0 80 61 80 76 0 7 -8 18 -19 23 -25 14 -32 36 -22 64 4 12 11 41 15 65 l6 42 -68 0 -69 0 13 -61z"/>
 <path d="M1170 1988 c0 -9 16 -71 35 -138 34 -116 59 -255 49 -272 -3 -4 -10 -5 -17 -2 -20 7 -22 -153 -3 -219 43 -148 193 -212 368 -157 34 11 65 20 67 20 3 0 -9 -15 -26 -32 -42 -46 -92 -117 -109 -157 -21 -50 -18 -123 7 -155 18 -23 19 -28 6 -41 -13 -13 -16 -10 -24 21 -7 32 -13 37 -74 57 l-67 23 4 -24 c4 -21 2 -24 -16 -19 -11 3 -23 1 -26 -4 -3 -6 -19 11 -36 36 -39 59 -86 90 -171 116 l-68 20 -65 -38 c-56 -32 -66 -43 -76 -78 -6 -22 -11 -47 -10 -55 1 -40 -9 -41 -55 -1 -47 40 -47 40 -50 108 -1 37 -5 87 -8 109 -6 40 -8 42 -50 53 -55 14 -55 14 -55 -4 0 -14 -3 -14 -30 0 -26 13 -30 14 -30 1 0 -21 -18 -30 -34 -17 -11 9 -15 2 -20 -36 -14 -107 -50 -92 -65 28 -12 93 -18 109 -42 109 -23 0 -25 13 -4 30 8 7 17 27 21 45 7 38 -13 145 -27 145 -6 0 -5 -8 1 -20 12 -22 17 -140 7 -157 -11 -18 -112 5 -197 44 -45 21 -76 42 -72 48 3 5 -1 5 -9 -2 -9 -8 -20 -9 -29 -3 -24 15 -40 12 -40 -9 0 -14 -6 -17 -24 -14 -22 5 -23 2 -29 -69 -4 -40 -9 -124 -13 -185 -4 -62 -10 -113 -15 -113 -4 0 -10 -8 -12 -17 -4 -17 -5 -17 -6 0 -1 21 -21 23 -21 2 0 -8 5 -16 10 -16 6 -1 16 -2 23 -3 6 -1 14 4 17 11 3 7 5 -35 5 -94 l0 -106 42 -12 c23 -7 58 -16 77 -19 30 -6 35 -4 30 9 -5 11 1 15 20 15 16 0 26 -6 26 -15 0 -8 9 -23 21 -34 12 -11 18 -25 14 -33 -4 -7 2 -3 12 10 16 20 24 22 63 16 38 -6 43 -5 37 10 -6 14 -2 17 21 14 20 -2 31 -12 43 -38 10 -20 26 -37 40 -41 13 -3 23 -11 22 -17 -5 -19 48 -9 59 11 7 14 13 16 22 7 11 -8 16 -1 25 35 16 63 31 56 31 -14 l0 -58 59 -27 c73 -33 126 -33 187 -2 48 25 64 25 64 3 1 -17 59 -80 99 -108 27 -18 49 -23 95 -24 34 0 69 4 79 9 12 6 17 4 17 -6 0 -8 26 -34 58 -57 54 -41 57 -42 60 -21 3 18 8 21 28 16 21 -6 24 -3 26 26 1 18 1 48 -1 67 -1 23 2 32 11 29 7 -3 14 -14 16 -25 2 -14 10 -21 25 -20 12 0 37 -3 55 -7 26 -6 32 -5 32 8 0 9 4 16 10 16 16 0 29 -35 36 -92 l6 -53 -65 0 c-78 0 -111 -19 -144 -85 -29 -56 -34 -200 -8 -200 9 0 18 -7 21 -15 4 -8 16 -15 28 -15 13 0 17 3 9 8 -7 4 -10 20 -7 40 3 17 1 32 -4 32 -12 0 -2 133 11 147 4 3 7 16 7 28 0 41 29 52 122 47 21 -2 27 -8 30 -29 3 -23 12 -29 72 -50 73 -24 101 -29 92 -15 -2 4 21 5 52 1 93 -12 112 -11 112 7 0 11 6 14 21 9 21 -7 22 -6 15 61 -3 38 -11 94 -16 124 -5 30 -14 87 -20 125 -21 133 -17 124 -63 127 l-42 3 38 18 c50 24 71 57 62 97 -7 34 -59 90 -82 90 -20 0 -101 -49 -112 -67 -7 -13 -18 -9 -75 21 -92 50 -107 66 -113 120 -6 50 7 93 44 143 12 17 23 36 23 42 0 6 5 11 10 11 6 0 15 12 20 26 6 14 14 23 19 20 5 -4 15 7 23 24 7 17 18 28 25 25 7 -2 13 2 13 10 0 19 -19 19 -44 0 -11 -8 -28 -15 -38 -15 -10 0 -18 -4 -18 -9 0 -11 -5 -12 -116 -14 -72 -2 -87 1 -140 28 -51 26 -63 38 -86 85 -15 30 -28 69 -29 85 -1 17 -6 40 -12 53 -8 16 -7 26 1 34 7 7 12 26 12 44 0 17 7 37 15 44 9 7 73 33 143 57 145 51 139 49 247 69 36 6 115 46 115 57 0 4 9 20 20 35 19 26 50 128 50 164 0 39 -18 15 -24 -33 -9 -67 -48 -153 -79 -174 -14 -8 -76 -29 -138 -45 -96 -24 -184 -53 -294 -96 l-20 -7 20 23 20 23 -32 -23 c-18 -13 -33 -27 -33 -32 0 -4 -7 -8 -15 -8 -11 0 -15 13 -15 54 0 33 -15 107 -39 191 -38 133 -51 166 -51 133z m-1005 -695 l35 -17 -5 -90 c-4 -50 -8 -101 -11 -113 -9 -44 14 -23 67 62 30 47 57 85 61 85 3 0 15 -11 26 -25 23 -29 34 -32 30 -7 -2 14 3 16 27 14 17 -2 35 -8 41 -13 7 -5 19 -50 29 -99 l17 -90 39 -10 c22 -6 43 -8 48 -6 5 3 14 35 21 71 10 55 15 65 29 59 36 -14 54 -17 47 -6 -11 17 8 22 47 11 l37 -10 2 -92 c0 -51 1 -98 1 -105 -1 -6 18 -26 41 -44 110 -85 158 -166 136 -232 -18 -55 -55 -79 -111 -73 -25 3 -67 16 -92 28 l-47 23 -1 75 c-1 42 -4 117 -8 166 l-6 90 -44 -158 c-41 -146 -46 -157 -65 -151 -58 18 -65 24 -75 62 -11 38 -91 391 -91 398 0 10 -19 2 -41 -17 -13 -12 -39 -33 -56 -46 -18 -14 -33 -31 -33 -37 0 -6 27 -72 60 -145 33 -74 60 -134 60 -135 0 -1 -18 0 -40 2 -48 5 -49 7 -106 165 -21 59 -42 107 -48 107 -5 0 -7 -46 -3 -116 l6 -117 -35 6 c-68 11 -68 10 -61 222 8 222 17 325 28 325 5 0 24 -8 44 -17z m155 -45 c12 -8 12 -9 -2 -4 -12 3 -24 -6 -39 -30 -26 -43 -32 -39 -23 15 6 36 9 41 28 35 11 -4 28 -11 36 -16z m69 -245 c7 -32 17 -66 23 -76 5 -11 11 -38 14 -60 3 -23 10 -57 15 -75 11 -35 4 -59 -7 -26 -4 10 -20 48 -36 83 -17 35 -31 68 -32 75 -1 6 -12 29 -23 52 l-22 41 22 21 c12 12 24 22 28 22 3 0 11 -26 18 -57z m762 -22 c64 -33 93 -65 125 -134 21 -48 28 -78 28 -129 1 -74 12 -90 21 -30 4 20 13 70 21 111 8 40 14 74 14 76 0 2 21 -3 48 -9 l47 -12 22 -90 c12 -49 22 -97 23 -106 0 -43 18 -12 35 61 23 103 25 105 61 89 16 -6 30 -13 32 -14 2 -1 14 -49 27 -106 13 -56 39 -169 59 -250 20 -81 36 -154 36 -162 0 -13 -6 -13 -44 0 -50 17 -46 6 -76 194 -12 74 -25 142 -28 150 -3 8 -12 -21 -21 -65 l-17 -80 -33 2 c-18 0 -37 5 -43 11 -5 5 -20 49 -33 97 -14 48 -26 89 -28 92 -2 2 -14 -59 -26 -134 -12 -76 -24 -144 -26 -151 -3 -8 -19 -2 -49 20 -45 31 -45 32 -39 76 4 33 3 43 -5 38 -7 -4 -12 -13 -12 -21 0 -21 -49 -55 -80 -55 -65 0 -140 44 -182 108 -55 83 -89 243 -74 346 4 27 18 59 33 77 25 29 30 31 83 27 32 -2 75 -14 101 -27z m696 -159 c22 -14 42 -64 33 -83 -16 -29 -39 -30 -66 -4 -23 23 -33 73 -17 88 9 9 35 9 50 -1z m-69 -75 c19 -15 14 -24 -20 -36 -37 -13 -36 -13 -44 26 -6 29 -5 30 22 25 16 -2 35 -9 42 -15z m38 -58 c21 -17 17 -29 -10 -29 l-24 0 4 -102 4 -103 -14 60 c-7 33 -21 84 -30 114 -8 29 -14 56 -12 60 8 12 68 12 82 0z m59 -91 c18 -102 53 -343 50 -346 -2 -2 -27 -1 -54 3 l-51 7 0 138 c0 75 -3 158 -6 184 l-7 46 31 0 c27 0 32 -4 37 -32z"/>
 <path d="M500 919 c0 -27 24 -139 30 -139 10 0 31 123 22 131 -15 15 -52 20 -52 8z"/>
 <path d="M764 764 c3 -9 6 -36 6 -60 0 -40 2 -44 24 -44 66 0 75 39 21 88 -37 34 -61 42 -51 16z"/>
 <path d="M1051 861 c-26 -37 -29 -136 -5 -184 24 -47 65 -87 89 -87 12 0 34 13 49 29 54 57 43 155 -28 239 -36 42 -76 44 -105 3z m131 -65 c60 -117 -4 -220 -68 -110 -32 54 -39 148 -15 178 13 15 16 15 38 -6 14 -13 34 -41 45 -62z"/>
 <path d="M1400 1993 c0 -10 15 -55 39 -117 21 -54 21 -20 0 45 -21 61 -39 96 -39 72z"/>
 <path d="M613 1813 c3 -5 -7 -20 -23 -32 -31 -22 -38 -45 -18 -57 7 -5 8 -3 3 5 -4 8 5 25 25 46 23 24 28 35 19 40 -7 5 -10 4 -6 -2z"/>
 <path d="M1376 1813 c-3 -4 8 -21 25 -39 29 -30 31 -35 18 -51 -13 -16 -12 -17 4 -4 25 19 21 37 -13 62 -16 12 -27 26 -24 31 6 10 0 11 -10 1z"/>
 <path d="M797 1623 c-2 -5 -7 -21 -11 -36 -6 -25 0 -35 52 -87 80 -79 146 -98 225 -62 l39 17 -64 0 c-81 0 -129 29 -193 115 -24 33 -46 57 -48 53z"/>
 <path d="M238 613 c-9 -9 -38 -28 -65 -42 -28 -16 -49 -34 -51 -46 -2 -15 -1 -17 6 -6 6 7 15 10 21 7 6 -4 11 -1 11 8 0 8 15 24 33 35 18 11 42 29 52 41 22 24 16 27 -7 3z"/>
 <path d="M270 542 c0 -5 14 -7 30 -4 17 2 30 6 30 8 0 2 -13 4 -30 4 -16 0 -30 -4 -30 -8z"/>
 <path d="M380 532 c54 -12 98 -43 111 -76 6 -18 13 -25 16 -18 6 17 -21 57 -52 78 -13 9 -44 17 -67 20 -40 3 -41 3 -8 -4z"/>
 <path d="M496 368 c-3 -7 -7 -26 -11 -43 -4 -16 -20 -58 -37 -93 -16 -35 -28 -65 -25 -68 2 -2 15 5 28 16 40 33 41 34 119 80 41 25 97 52 125 61 27 10 42 17 33 18 -33 2 -126 -40 -198 -89 -40 -28 -74 -49 -76 -47 -2 2 7 26 20 54 25 51 43 123 32 123 -4 0 -8 -6 -10 -12z"/>
 <path d="M797 327 c35 -13 78 -48 106 -87 10 -14 15 -18 11 -10 -27 58 -94 112 -136 109 -7 0 1 -6 19 -12z"/>
 <path d="M1084 270 c-28 -11 -72 -65 -81 -98 -10 -42 -30 -75 -36 -60 -3 7 -6 4 -6 -8 -1 -29 28 -26 36 4 4 17 8 20 14 11 11 -19 23 -3 38 51 25 90 58 110 125 75 16 -9 31 -13 34 -10 6 5 -77 45 -93 44 -5 0 -19 -4 -31 -9z"/>
 <path d="M1220 226 c0 -5 13 -21 29 -37 33 -31 130 -156 138 -176 7 -18 43 -16 43 2 0 8 -8 15 -18 15 -11 0 -37 26 -64 63 -48 64 -128 148 -128 133z"/>
 </g>
<g id="layer114" fill="#4d0c05" stroke="none">
 <path d="M130 1982 c0 -36 31 -138 50 -164 11 -15 20 -31 20 -35 0 -11 79 -51 115 -57 108 -20 102 -18 248 -69 148 -51 169 -66 160 -111 -3 -17 -3 -28 0 -25 4 3 8 20 10 38 4 34 -8 52 -63 96 l-25 20 20 -24 20 -24 -20 7 c-110 43 -198 72 -294 96 -62 16 -124 37 -138 45 -31 21 -70 107 -79 174 -6 48 -24 72 -24 33z"/>
 <path d="M585 1989 c-26 -71 -44 -133 -40 -137 2 -3 9 8 15 24 6 16 18 48 27 72 9 23 13 45 10 49 -4 3 -9 0 -12 -8z"/>
 <path d="M802 1935 c-49 -164 -62 -223 -61 -275 l2 -55 8 64 c4 36 13 76 18 90 21 58 62 222 58 233 -2 7 -14 -18 -25 -57z"/>
 <path d="M936 1939 c7 -33 15 -67 18 -74 3 -8 -7 -22 -21 -33 l-26 -19 41 -41 c23 -23 46 -42 52 -42 15 0 80 61 80 76 0 7 -8 18 -19 23 -25 14 -32 36 -22 64 4 12 11 41 15 65 l6 42 -68 0 -69 0 13 -61z"/>
 <path d="M1170 1988 c0 -9 16 -71 35 -138 47 -160 60 -258 38 -283 -23 -25 -23 -155 0 -223 47 -136 205 -194 371 -135 54 19 60 19 71 4 11 -14 14 -12 26 16 8 17 19 29 26 26 7 -2 13 2 13 10 0 19 -19 19 -44 0 -11 -8 -28 -15 -38 -15 -10 0 -18 -4 -18 -9 0 -11 -5 -12 -116 -14 -72 -2 -87 1 -140 28 -51 26 -63 38 -86 85 -15 30 -28 69 -29 85 -1 17 -6 40 -12 53 -8 16 -7 26 1 34 7 7 12 26 12 44 0 17 7 37 15 44 9 7 73 33 143 57 145 51 139 49 247 69 36 6 115 46 115 57 0 4 9 20 20 35 19 26 50 128 50 164 0 39 -18 15 -24 -33 -9 -67 -48 -153 -79 -174 -14 -8 -76 -29 -138 -45 -96 -24 -184 -53 -294 -96 l-20 -7 20 23 20 23 -32 -23 c-18 -13 -33 -27 -33 -32 0 -4 -7 -8 -15 -8 -11 0 -15 13 -15 54 0 33 -15 107 -39 191 -38 133 -51 166 -51 133z"/>
 <path d="M1400 1993 c0 -10 15 -55 39 -117 21 -54 21 -20 0 45 -21 61 -39 96 -39 72z"/>
 <path d="M613 1813 c3 -5 -7 -20 -23 -32 -31 -22 -38 -45 -18 -57 7 -5 8 -3 3 5 -4 8 5 25 25 46 23 24 28 35 19 40 -7 5 -10 4 -6 -2z"/>
 <path d="M1376 1813 c-3 -4 8 -21 25 -39 29 -30 31 -35 18 -51 -13 -16 -12 -17 4 -4 25 19 21 37 -13 62 -16 12 -27 26 -24 31 6 10 0 11 -10 1z"/>
 <path d="M795 1616 c-3 -9 -7 -22 -9 -29 -6 -19 46 -84 94 -119 45 -33 99 -45 157 -33 l38 8 -53 8 c-69 9 -122 45 -177 120 -32 44 -46 56 -50 45z"/>
 <path d="M460 1606 c0 -9 3 -16 8 -16 9 0 32 -49 32 -67 0 -36 81 -93 131 -93 35 0 80 32 66 47 -4 3 -7 1 -7 -6 0 -16 -44 -6 -79 18 -16 12 -34 21 -39 21 -6 0 -14 9 -17 20 -4 11 -11 18 -16 15 -5 -4 -13 5 -19 19 -5 14 -14 26 -20 26 -5 0 -9 5 -7 12 1 6 -6 14 -15 16 -11 2 -18 -2 -18 -12z"/>
 <path d="M422 1573 c2 -10 10 -17 17 -15 7 1 21 -8 31 -20 27 -32 25 -18 -2 18 -27 34 -51 43 -46 17z"/>
 <path d="M130 1361 c0 -14 -6 -17 -24 -14 -22 5 -23 2 -29 -69 -18 -209 -20 -300 -7 -308 11 -7 11 -14 1 -37 -7 -17 -11 -61 -9 -103 l3 -73 42 -12 c23 -7 58 -16 77 -19 30 -6 35 -4 30 9 -5 11 0 15 19 15 17 0 27 -7 31 -22 3 -13 15 -29 27 -36 11 -8 18 -9 14 -3 -7 12 4 15 58 12 29 -2 37 1 37 14 0 12 5 15 16 11 9 -3 21 -6 28 -6 7 0 20 -18 29 -40 8 -22 22 -40 30 -40 8 0 28 -7 43 -15 27 -14 30 -13 44 5 11 15 19 17 26 10 8 -8 14 1 23 34 16 64 31 57 31 -13 l0 -58 59 -27 c73 -33 126 -33 187 -2 48 25 64 25 64 3 1 -17 59 -80 99 -108 27 -18 49 -23 95 -24 34 0 69 4 79 9 12 6 17 4 17 -7 0 -12 99 -87 115 -87 3 0 5 9 5 20 0 22 10 26 27 9 13 -13 27 36 25 89 -2 38 21 40 26 3 2 -14 9 -21 17 -17 8 3 29 1 47 -5 26 -7 35 -6 44 6 6 8 16 15 22 15 17 0 35 -76 36 -149 l1 -64 69 -24 c73 -24 101 -29 92 -15 -2 4 21 5 52 1 93 -12 112 -11 112 7 0 11 6 14 21 9 21 -7 22 -6 15 61 -3 38 -11 94 -16 124 -5 30 -14 87 -20 125 -21 133 -17 124 -63 127 l-42 3 38 18 c50 24 71 57 62 97 -7 34 -59 90 -82 90 -20 0 -101 -49 -112 -67 -7 -13 -18 -9 -75 21 -92 50 -107 66 -113 120 -6 50 7 93 44 143 12 17 23 36 23 41 0 6 6 12 14 15 7 3 16 15 19 27 8 30 -5 22 -55 -37 -93 -110 -119 -216 -70 -282 24 -32 28 -46 12 -36 -5 3 -10 -1 -10 -9 0 -27 -19 -18 -26 12 -3 15 -7 32 -9 39 -2 6 -28 18 -57 27 -48 14 -54 14 -65 0 -7 -9 -19 -14 -27 -11 -9 4 -18 2 -22 -4 -3 -5 -19 11 -36 36 -39 59 -86 90 -171 116 l-68 20 -65 -38 c-56 -32 -66 -43 -76 -78 -6 -22 -11 -47 -10 -55 1 -40 -9 -41 -55 -1 -47 40 -47 40 -50 108 -1 37 -5 87 -8 109 -6 40 -8 42 -50 53 -55 14 -55 14 -55 -4 0 -14 -3 -14 -30 0 -26 13 -30 14 -30 1 0 -21 -18 -30 -34 -17 -11 9 -15 2 -20 -36 -3 -27 -10 -54 -15 -62 -14 -22 -38 2 -45 47 -22 123 -28 142 -45 142 -27 0 -33 11 -16 30 13 14 11 16 -23 18 -53 4 -98 18 -175 55 -38 19 -64 37 -60 42 4 5 1 4 -7 -2 -10 -8 -21 -9 -30 -3 -24 15 -40 12 -40 -9z m35 -68 l35 -17 -5 -90 c-4 -50 -8 -101 -11 -113 -9 -44 14 -23 67 62 30 47 57 85 61 85 3 0 15 -11 26 -25 23 -29 34 -32 30 -7 -2 14 3 16 27 14 17 -2 35 -8 41 -13 7 -5 19 -50 29 -99 l17 -90 39 -10 c22 -6 43 -8 48 -6 5 3 14 35 21 71 10 55 15 65 29 59 36 -14 54 -17 47 -6 -11 17 8 22 47 11 l37 -10 2 -92 c0 -51 1 -98 1 -105 -1 -6 18 -26 41 -44 110 -85 158 -166 136 -232 -18 -55 -55 -79 -111 -73 -25 3 -67 16 -92 28 l-47 23 -1 75 c-1 42 -4 117 -8 166 l-6 90 -44 -158 c-41 -146 -46 -157 -65 -151 -58 18 -65 24 -75 62 -11 38 -91 391 -91 398 0 10 -19 2 -41 -17 -13 -12 -39 -33 -56 -46 -18 -14 -33 -31 -33 -37 0 -6 27 -72 60 -145 33 -74 60 -134 60 -135 0 -1 -18 0 -40 2 -48 5 -49 7 -106 165 -21 59 -42 107 -48 107 -5 0 -7 -46 -3 -116 l6 -117 -35 6 c-68 11 -68 10 -61 222 8 222 17 325 28 325 5 0 24 -8 44 -17z m165 -51 c0 -8 -6 -12 -14 -9 -10 4 -23 -7 -36 -29 -12 -18 -25 -34 -30 -34 -7 0 -4 67 5 97 5 17 75 -6 75 -25z m67 -237 c7 -32 11 -60 8 -63 -3 -3 -1 -10 4 -16 6 -7 17 -43 25 -81 8 -39 18 -81 22 -95 7 -22 6 -24 -9 -11 -9 7 -17 17 -17 22 0 5 -11 32 -24 61 -13 29 -39 86 -57 126 l-32 72 24 24 c13 13 28 23 33 22 5 -1 16 -29 23 -61z m754 -24 c64 -33 93 -65 125 -134 21 -48 28 -78 28 -129 1 -74 12 -90 21 -30 4 20 13 70 21 111 8 40 14 74 14 76 0 2 21 -3 48 -9 l47 -12 22 -90 c12 -49 22 -97 23 -106 0 -43 18 -12 35 61 23 103 25 105 61 89 16 -6 30 -13 32 -14 2 -1 14 -49 27 -106 13 -56 39 -169 59 -250 20 -81 36 -154 36 -162 0 -13 -6 -13 -44 0 -50 17 -46 6 -76 194 -12 74 -25 142 -28 150 -3 8 -12 -21 -21 -65 l-17 -80 -33 2 c-18 0 -37 5 -43 11 -5 5 -20 49 -33 97 -14 48 -26 89 -28 92 -2 2 -14 -59 -26 -134 -12 -76 -24 -144 -26 -151 -3 -8 -19 -2 -49 20 -45 31 -45 32 -39 76 4 33 3 43 -5 38 -7 -4 -12 -13 -12 -21 0 -21 -49 -55 -80 -55 -65 0 -140 44 -182 108 -55 83 -89 243 -74 346 4 27 18 59 33 77 25 29 30 31 83 27 32 -2 75 -14 101 -27z m696 -159 c22 -14 42 -64 33 -83 -16 -29 -39 -30 -66 -4 -23 23 -33 73 -17 88 9 9 35 9 50 -1z m-83 -62 c14 -5 28 -20 32 -34 3 -14 12 -30 20 -37 21 -17 17 -29 -10 -29 l-24 0 3 -102 c2 -57 2 -92 -1 -78 -13 63 -46 179 -64 222 -11 26 -20 51 -20 57 0 14 31 14 64 1z m111 -162 c18 -102 53 -343 50 -346 -2 -2 -27 -1 -54 3 l-51 7 0 138 c0 75 -3 158 -6 184 l-7 46 31 0 c27 0 32 -4 37 -32z"/>
 <path d="M500 919 c0 -27 24 -139 30 -139 10 0 31 123 22 131 -15 15 -52 20 -52 8z"/>
 <path d="M764 764 c3 -9 6 -36 6 -60 0 -40 2 -44 24 -44 66 0 75 39 21 88 -37 34 -61 42 -51 16z"/>
 <path d="M1051 861 c-26 -37 -29 -136 -5 -184 24 -47 65 -87 89 -87 12 0 34 13 49 29 54 57 43 155 -28 239 -36 42 -76 44 -105 3z m131 -65 c60 -117 -4 -220 -68 -110 -32 54 -39 148 -15 178 13 15 16 15 38 -6 14 -13 34 -41 45 -62z"/>
 <path d="M10 965 c0 -8 3 -15 8 -16 4 0 15 -2 25 -4 9 -2 15 1 11 6 -3 5 -10 7 -15 4 -5 -4 -9 1 -9 9 0 9 -4 16 -10 16 -5 0 -10 -7 -10 -15z"/>
 <path d="M132 548 c-7 -7 -12 -19 -12 -27 0 -13 2 -14 9 -2 5 7 13 11 19 7 6 -4 8 2 5 14 -6 24 -6 23 -21 8z"/>
 <path d="M1467 309 c-34 -20 -57 -88 -57 -171 0 -65 3 -81 20 -98 11 -11 28 -20 38 -20 11 0 13 3 5 8 -7 4 -10 20 -7 40 3 17 1 32 -4 32 -12 0 -2 133 11 147 4 3 7 16 7 28 0 11 5 26 12 33 15 15 0 15 -25 1z"/>
 <path d="M462 260 c-11 -27 -19 -50 -16 -50 7 0 45 92 41 97 -2 2 -14 -19 -25 -47z"/>
 <path d="M1046 237 c-17 -19 -39 -56 -47 -83 -9 -27 -21 -48 -27 -46 -7 1 -12 -4 -12 -11 0 -24 30 -15 37 11 4 17 8 20 14 11 12 -20 22 -4 42 62 19 62 29 75 67 82 20 3 19 5 -9 6 -26 1 -41 -6 -65 -32z"/>
 <path d="M520 239 l-25 -20 33 16 c17 8 32 18 32 20 0 10 -16 4 -40 -16z"/>
 <path d="M424 186 c-8 -22 -2 -27 16 -16 12 7 12 12 3 21 -10 10 -14 9 -19 -5z"/>
 <path d="M1295 140 c11 -13 25 -30 32 -38 7 -7 20 -26 30 -42 9 -17 21 -30 26 -30 11 0 -50 84 -82 112 l-26 23 20 -25z"/>
 <path d="M1410 20 c0 -6 -4 -8 -10 -5 -5 3 -10 1 -10 -4 0 -6 9 -11 20 -11 21 0 27 15 10 25 -5 3 -10 1 -10 -5z"/>
 </g>
<g id="layer115" fill="#17191f" stroke="none">
 <path d="M138 1975 c-3 -14 -1 -28 3 -31 5 -3 9 9 9 25 0 38 -6 40 -12 6z"/>
 <path d="M786 1868 c-22 -75 -40 -162 -42 -198 l-3 -65 9 65 c5 36 23 109 39 162 30 98 47 168 39 168 -2 0 -21 -60 -42 -132z"/>
 <path d="M936 1939 c7 -33 15 -67 18 -74 3 -8 -7 -22 -21 -33 l-26 -19 41 -41 c23 -23 46 -42 52 -42 15 0 80 61 80 76 0 7 -8 18 -19 23 -25 14 -32 36 -22 64 4 12 11 41 15 65 l6 42 -68 0 -69 0 13 -61z"/>
 <path d="M1176 1967 c3 -21 18 -81 34 -134 17 -52 34 -123 40 -156 l9 -62 -4 65 c-2 36 -20 119 -40 185 -41 138 -47 155 -39 102z"/>
 <path d="M1851 1971 c-1 -24 2 -32 9 -25 7 7 7 19 1 35 -9 23 -10 22 -10 -10z"/>
 <path d="M148 1920 c-2 -8 1 -26 8 -39 7 -14 11 -28 8 -33 -3 -4 0 -8 6 -8 6 0 9 -3 7 -7 -3 -5 5 -17 15 -28 20 -20 20 -20 3 15 -10 19 -24 53 -30 75 -7 21 -14 33 -17 25z"/>
 <path d="M1840 1915 c0 -11 -12 -45 -26 -75 -21 -46 -22 -52 -6 -35 11 11 18 23 15 28 -2 4 1 7 7 7 6 0 9 4 6 8 -3 5 1 20 8 34 8 16 10 31 5 39 -7 11 -9 9 -9 -6z"/>
 <path d="M594 1778 l-29 -33 33 29 c17 17 32 31 32 33 0 8 -8 1 -36 -29z"/>
 <path d="M1370 1807 c0 -2 15 -16 33 -33 l32 -29 -29 33 c-28 30 -36 37 -36 29z"/>
 <path d="M260 1749 c0 -13 19 -19 61 -22 19 -1 39 -6 46 -10 6 -4 14 -3 18 2 3 6 -11 13 -32 16 -21 4 -50 10 -65 15 -18 6 -28 5 -28 -1z"/>
 <path d="M1710 1749 c-14 -4 -42 -10 -63 -14 -21 -3 -35 -10 -32 -16 4 -5 12 -6 18 -2 7 4 30 9 51 10 22 2 44 7 50 13 14 14 4 18 -24 9z"/>
 <path d="M510 1679 c0 -7 3 -9 7 -6 3 4 11 3 17 -1 17 -14 136 -55 141 -50 4 4 -58 31 -147 64 -11 4 -18 1 -18 -7z"/>
 <path d="M1397 1658 c-42 -17 -75 -33 -72 -36 5 -5 124 36 141 50 6 4 14 5 17 1 4 -3 7 -1 7 5 0 16 -4 15 -93 -20z"/>
 <path d="M795 1616 c-3 -9 -7 -22 -9 -29 -6 -19 46 -84 94 -119 45 -33 99 -45 157 -33 l38 8 -53 8 c-69 9 -122 45 -177 120 -32 44 -46 56 -50 45z"/>
 <path d="M460 1606 c0 -9 3 -16 8 -16 9 0 32 -49 32 -67 0 -36 81 -93 131 -93 35 0 80 32 66 47 -4 3 -7 1 -7 -6 0 -16 -44 -6 -79 18 -16 12 -34 21 -39 21 -6 0 -14 9 -17 20 -4 11 -11 18 -16 15 -5 -4 -13 5 -19 19 -5 14 -14 26 -20 26 -5 0 -9 5 -7 12 1 6 -6 14 -15 16 -11 2 -18 -2 -18 -12z"/>
 <path d="M707 1598 c16 -17 20 -31 16 -53 -3 -16 -3 -28 0 -25 10 9 16 81 7 75 -4 -3 -10 2 -14 10 -3 8 -11 15 -17 15 -7 0 -3 -10 8 -22z"/>
 <path d="M1278 1613 c-10 -2 -18 -9 -18 -15 0 -6 -8 -20 -17 -30 -23 -26 -23 -155 0 -224 47 -136 205 -194 371 -135 54 19 60 19 71 4 11 -14 14 -12 26 16 8 17 19 29 26 26 7 -2 13 2 13 10 0 19 -19 19 -44 0 -11 -8 -28 -15 -38 -15 -10 0 -18 -4 -18 -9 0 -11 -5 -12 -116 -14 -72 -2 -87 1 -140 28 -51 26 -63 38 -86 85 -15 30 -28 69 -29 85 -1 17 -6 40 -12 53 -8 16 -7 26 1 34 7 7 12 25 12 42 0 16 7 38 17 48 16 18 13 20 -19 11z"/>
 <path d="M422 1573 c2 -10 10 -17 17 -15 7 1 21 -8 31 -20 27 -32 25 -18 -2 18 -27 34 -51 43 -46 17z"/>
 <path d="M130 1361 c0 -14 -6 -17 -24 -14 -22 5 -23 2 -29 -69 -18 -209 -20 -300 -7 -308 11 -7 11 -14 1 -37 -7 -17 -11 -61 -9 -103 l3 -73 42 -12 c23 -7 58 -16 77 -19 30 -6 35 -4 30 9 -5 11 0 15 19 15 17 0 27 -7 31 -22 3 -13 15 -29 27 -36 11 -8 18 -9 15 -4 -3 6 0 13 6 16 10 3 8 8 -4 16 -9 5 -26 36 -38 67 -12 31 -32 81 -46 110 -13 30 -24 61 -25 71 0 12 -3 9 -11 -8 -6 -15 -7 -61 -3 -118 l6 -94 -23 7 c-13 4 -34 12 -48 19 l-25 11 1 180 c1 204 7 331 16 340 3 4 26 0 50 -9 31 -10 42 -19 41 -33 -2 -10 -5 -52 -8 -93 -3 -41 -8 -85 -11 -97 -7 -35 15 -27 31 10 8 17 32 58 53 90 l39 58 26 -30 c29 -35 39 -39 35 -13 -4 24 33 27 62 4 22 -17 25 -30 46 -152 5 -31 11 -37 47 -48 22 -7 44 -9 48 -5 5 5 11 31 14 58 4 45 4 47 -5 18 -16 -49 -42 -38 -53 22 -26 138 -29 145 -46 145 -27 0 -33 11 -16 30 13 14 11 16 -23 18 -53 4 -98 18 -175 55 -38 19 -64 37 -60 42 4 5 1 4 -7 -2 -10 -8 -21 -9 -30 -3 -24 15 -40 12 -40 -9z m200 -119 c0 -8 -6 -12 -14 -9 -10 4 -23 -7 -36 -29 -12 -18 -25 -34 -30 -34 -7 0 -4 67 5 97 5 17 75 -6 75 -25z"/>
 <path d="M1620 1156 c-96 -117 -122 -218 -72 -285 24 -32 28 -46 12 -36 -5 3 -10 2 -10 -3 0 -5 18 -15 40 -22 30 -10 42 -20 46 -39 3 -14 10 -37 14 -51 8 -22 58 -238 91 -393 13 -63 8 -78 -21 -59 -11 7 -28 12 -39 12 -15 0 -21 10 -26 43 -7 39 -8 40 -17 17 -20 -54 -8 -71 66 -97 73 -24 101 -29 92 -15 -2 4 21 5 52 1 93 -12 112 -11 112 7 0 11 6 14 21 9 21 -7 22 -6 15 61 -3 38 -11 94 -16 124 -5 30 -14 87 -20 125 -21 133 -17 124 -63 127 l-42 3 38 18 c50 24 71 57 62 97 -7 34 -59 90 -82 90 -20 0 -101 -49 -112 -67 -7 -13 -18 -9 -75 21 -92 50 -107 66 -113 120 -6 50 7 93 44 143 12 17 23 36 23 41 0 6 6 12 14 15 14 5 29 47 18 47 -4 0 -27 -25 -52 -54z m239 -340 c23 -25 31 -80 14 -97 -17 -17 -64 1 -74 28 -21 56 -12 83 32 92 3 0 16 -10 28 -23z m-95 -56 c14 -5 28 -20 32 -34 3 -14 12 -30 20 -37 21 -17 17 -29 -10 -29 l-24 0 3 -102 c2 -57 2 -92 -1 -78 -13 63 -46 179 -64 222 -11 26 -20 51 -20 57 0 14 31 14 64 1z m104 -132 c5 -7 15 -49 20 -93 6 -44 15 -107 20 -140 6 -33 13 -79 16 -103 l6 -42 -47 1 c-27 1 -54 6 -61 12 -17 13 -14 358 2 369 16 11 32 10 44 -4z"/>
 <path d="M634 1145 c-8 -17 -8 -27 -1 -34 16 -16 37 -13 31 3 -8 22 8 25 47 9 42 -16 49 -41 44 -155 -3 -61 -1 -69 21 -83 46 -30 106 -91 131 -132 14 -24 26 -43 27 -43 1 0 0 45 -2 100 -5 113 4 147 50 185 25 21 36 24 76 19 26 -3 51 -10 56 -15 6 -5 16 -9 24 -9 23 0 89 -58 121 -105 36 -53 51 -103 51 -168 0 -30 4 -46 10 -42 6 4 8 10 6 14 -3 3 2 40 11 81 8 41 15 83 15 94 -1 15 4 17 26 11 15 -3 39 -9 53 -11 21 -5 28 -15 42 -69 9 -35 17 -70 17 -78 0 -9 5 -28 11 -44 12 -30 12 -32 46 106 3 13 1 26 -7 31 -6 4 -15 23 -19 41 -6 31 -12 36 -61 52 -51 16 -56 16 -67 1 -7 -9 -19 -14 -28 -11 -8 4 -15 2 -15 -3 0 -21 -16 -8 -40 32 -34 56 -90 94 -172 119 l-69 20 -65 -38 c-56 -32 -66 -43 -76 -78 -6 -22 -11 -47 -10 -55 1 -40 -9 -41 -55 -1 -47 40 -47 40 -50 108 -1 37 -5 87 -8 109 -6 40 -8 42 -50 53 -55 14 -55 14 -55 -4 0 -14 -3 -14 -28 -1 -26 13 -28 13 -38 -9z"/>
 <path d="M590 1126 c0 -31 6 -34 13 -6 3 11 1 23 -4 26 -5 3 -9 -6 -9 -20z"/>
 <path d="M353 1080 c-10 -12 -35 -33 -56 -46 -43 -28 -43 -42 0 -129 14 -27 34 -70 45 -95 11 -25 27 -58 34 -73 13 -26 12 -28 -5 -22 -11 3 -22 1 -26 -5 -4 -6 6 -10 24 -10 22 0 31 5 31 16 0 11 5 14 16 10 9 -3 22 -6 29 -6 7 0 18 -12 24 -27 10 -26 11 -26 6 -3 -2 14 -5 31 -5 37 0 7 -5 12 -11 10 -13 -2 -21 10 -53 83 -13 30 -39 88 -56 127 l-33 73 27 25 c15 14 31 23 36 20 7 -4 22 -70 26 -115 1 -17 22 -69 23 -59 3 23 -33 176 -44 192 -13 19 -14 19 -32 -3z"/>
 <path d="M10 965 c0 -8 3 -15 8 -16 4 0 15 -2 25 -4 9 -2 15 1 11 6 -3 5 -10 7 -15 4 -5 -4 -9 1 -9 9 0 9 -4 16 -10 16 -5 0 -10 -7 -10 -15z"/>
 <path d="M645 873 c-9 -37 -29 -108 -44 -156 -24 -80 -28 -88 -48 -84 -27 5 -21 -9 7 -16 14 -3 24 1 31 15 8 15 13 17 24 8 11 -9 15 -5 20 24 4 19 15 45 25 56 16 18 18 34 13 118 -3 53 -7 98 -8 100 -1 2 -10 -28 -20 -65z"/>
 <path d="M504 904 c3 -9 9 -40 12 -70 4 -30 10 -54 14 -54 13 0 29 114 18 128 -16 18 -52 16 -44 -4z"/>
 <path d="M1074 880 c-64 -25 -54 -202 14 -263 36 -33 76 -25 107 20 25 37 35 101 14 88 -6 -4 -8 -13 -5 -21 10 -27 -12 -64 -38 -64 -39 0 -79 76 -80 150 -1 35 4 63 13 74 13 15 16 15 39 -6 13 -13 35 -45 48 -73 13 -27 24 -41 24 -31 0 28 -45 100 -74 120 -28 18 -32 18 -62 6z"/>
 <path d="M432 855 c0 -11 4 -31 8 -45 6 -20 8 -21 8 -5 0 11 -4 31 -8 45 -6 20 -8 21 -8 5z"/>
 <path d="M768 723 c2 -32 5 -59 6 -60 1 -1 19 0 39 4 26 4 37 11 37 23 0 17 -64 90 -79 90 -4 0 -6 -26 -3 -57z"/>
 <path d="M672 659 c-2 -45 2 -58 14 -63 13 -5 14 -3 6 7 -6 7 -12 35 -15 62 l-3 50 -2 -56z"/>
 <path d="M940 674 c0 -43 -27 -94 -57 -105 -35 -13 -94 -11 -123 6 -14 8 -32 14 -40 14 -8 0 3 -9 25 -20 55 -26 114 -24 171 5 48 25 64 25 64 3 1 -17 59 -80 99 -108 27 -18 49 -23 95 -24 34 0 69 4 79 9 12 6 17 4 17 -7 0 -12 99 -87 115 -87 3 0 5 9 5 20 0 22 10 26 27 9 13 -13 27 36 25 89 -1 26 2 33 13 28 11 -4 15 2 15 19 0 13 -4 26 -9 30 -6 3 -13 26 -17 50 -8 60 -20 64 -28 12 -13 -83 -16 -102 -21 -129 -3 -16 -7 -42 -8 -58 -6 -48 -18 -52 -65 -22 -42 27 -42 27 -38 77 5 48 5 49 -8 20 -33 -76 -148 -71 -230 10 -42 41 -86 114 -86 143 0 10 -5 24 -10 32 -7 11 -10 8 -10 -16z"/>
 <path d="M1590 603 c-1 -15 -7 -50 -14 -78 -11 -43 -17 -51 -42 -55 l-29 -6 30 -6 c20 -5 34 -2 41 8 18 23 33 16 43 -18 16 -55 13 6 -3 86 -8 38 -13 73 -10 77 2 4 0 10 -6 14 -6 4 -10 -6 -10 -22z"/>
 <path d="M132 548 c-7 -7 -12 -19 -12 -27 0 -13 2 -14 9 -2 5 7 13 11 19 7 6 -4 8 2 5 14 -6 24 -6 23 -21 8z"/>
 <path d="M1470 475 c0 -16 16 -20 24 -6 3 5 -1 11 -9 15 -9 3 -15 0 -15 -9z"/>
 <path d="M1467 309 c-34 -20 -57 -88 -57 -171 0 -65 3 -81 20 -98 11 -11 28 -20 38 -20 11 0 13 3 5 8 -7 4 -10 20 -7 40 3 17 1 32 -4 32 -12 0 -2 133 11 147 4 3 7 16 7 28 0 11 5 26 12 33 15 15 0 15 -25 1z"/>
 <path d="M462 260 c-11 -27 -19 -50 -16 -50 7 0 45 92 41 97 -2 2 -14 -19 -25 -47z"/>
 <path d="M1046 237 c-17 -19 -39 -56 -47 -83 -9 -27 -21 -48 -27 -46 -7 1 -12 -4 -12 -11 0 -24 30 -15 37 11 4 17 8 20 14 11 12 -20 22 -4 42 62 19 62 29 75 67 82 20 3 19 5 -9 6 -26 1 -41 -6 -65 -32z"/>
 <path d="M520 239 l-25 -20 33 16 c17 8 32 18 32 20 0 10 -16 4 -40 -16z"/>
 <path d="M424 186 c-8 -22 -2 -27 16 -16 12 7 12 12 3 21 -10 10 -14 9 -19 -5z"/>
 <path d="M1295 140 c11 -13 25 -30 32 -38 7 -7 20 -26 30 -42 9 -17 21 -30 26 -30 11 0 -50 84 -82 112 l-26 23 20 -25z"/>
 <path d="M1410 20 c0 -6 -4 -8 -10 -5 -5 3 -10 1 -10 -4 0 -6 9 -11 20 -11 21 0 27 15 10 25 -5 3 -10 1 -10 -5z"/>
 </g>
<g id="layer116" fill="#340801" stroke="none">
 <path d="M138 1975 c-3 -14 -1 -28 3 -31 5 -3 9 9 9 25 0 38 -6 40 -12 6z"/>
 <path d="M786 1868 c-22 -75 -40 -162 -42 -198 l-3 -65 9 65 c5 36 23 109 39 162 30 98 47 168 39 168 -2 0 -21 -60 -42 -132z"/>
 <path d="M933 1960 c6 -22 13 -38 15 -36 6 7 -10 76 -18 76 -4 0 -2 -18 3 -40z"/>
 <path d="M959 1948 c-1 -29 0 -57 1 -63 1 -5 3 -19 4 -30 1 -23 51 -34 69 -16 8 8 8 11 0 11 -8 0 -9 9 -3 29 10 36 0 135 -11 106 -6 -17 -8 -17 -8 -2 -2 35 -20 16 -24 -25 l-4 -43 -1 43 c-3 60 -22 52 -23 -10z"/>
 <path d="M1042 1970 c0 -19 2 -27 5 -17 2 9 2 25 0 35 -3 9 -5 1 -5 -18z"/>
 <path d="M1176 1967 c3 -21 18 -81 34 -134 17 -52 34 -123 40 -156 l9 -62 -4 65 c-2 36 -20 119 -40 185 -41 138 -47 155 -39 102z"/>
 <path d="M1851 1971 c-1 -24 2 -32 9 -25 7 7 7 19 1 35 -9 23 -10 22 -10 -10z"/>
 <path d="M148 1920 c-2 -8 1 -26 8 -39 7 -14 11 -28 8 -33 -3 -4 0 -8 6 -8 6 0 9 -3 7 -7 -3 -5 5 -17 15 -28 20 -20 20 -20 3 15 -10 19 -24 53 -30 75 -7 21 -14 33 -17 25z"/>
 <path d="M1840 1915 c0 -11 -12 -45 -26 -75 -21 -46 -22 -52 -6 -35 11 11 18 23 15 28 -2 4 1 7 7 7 6 0 9 4 6 8 -3 5 1 20 8 34 8 16 10 31 5 39 -7 11 -9 9 -9 -6z"/>
 <path d="M594 1778 l-29 -33 33 29 c17 17 32 31 32 33 0 8 -8 1 -36 -29z"/>
 <path d="M1370 1807 c0 -2 15 -16 33 -33 l32 -29 -29 33 c-28 30 -36 37 -36 29z"/>
 <path d="M260 1749 c0 -13 19 -19 61 -22 19 -1 39 -6 46 -10 6 -4 14 -3 18 2 3 6 -11 13 -32 16 -21 4 -50 10 -65 15 -18 6 -28 5 -28 -1z"/>
 <path d="M1710 1749 c-14 -4 -42 -10 -63 -14 -21 -3 -35 -10 -32 -16 4 -5 12 -6 18 -2 7 4 30 9 51 10 22 2 44 7 50 13 14 14 4 18 -24 9z"/>
 <path d="M510 1679 c0 -7 3 -9 7 -6 3 4 11 3 17 -1 17 -14 136 -55 141 -50 4 4 -58 31 -147 64 -11 4 -18 1 -18 -7z"/>
 <path d="M1397 1658 c-42 -17 -75 -33 -72 -36 5 -5 124 36 141 50 6 4 14 5 17 1 4 -3 7 -1 7 5 0 16 -4 15 -93 -20z"/>
 <path d="M460 1603 c0 -14 2 -15 9 -4 5 8 14 10 21 6 9 -5 11 -4 6 3 -11 18 -36 14 -36 -5z"/>
 <path d="M705 1600 c15 -17 35 -19 35 -4 0 3 -4 3 -9 0 -5 -3 -11 1 -15 9 -3 8 -11 15 -17 15 -7 0 -5 -8 6 -20z"/>
 <path d="M795 1597 c-9 -33 25 -82 87 -127 47 -35 93 -45 145 -34 l38 7 -51 7 c-28 4 -59 12 -70 18 -22 12 -101 94 -126 132 l-16 25 -7 -28z"/>
 <path d="M1246 1565 c-24 -36 -22 -159 4 -229 39 -104 126 -152 260 -144 48 3 86 10 93 18 9 9 9 11 0 6 -6 -3 -42 -7 -80 -7 -170 -3 -271 116 -261 307 2 41 3 74 2 74 -1 0 -9 -11 -18 -25z"/>
 <path d="M504 1547 c3 -11 9 -30 12 -43 7 -29 79 -74 116 -74 31 0 56 24 37 36 -8 4 -9 3 -5 -4 21 -35 -67 10 -123 62 -26 24 -41 34 -37 23z"/>
 <path d="M130 1361 c0 -14 -6 -17 -24 -14 -22 5 -23 2 -29 -74 -18 -226 -20 -276 -8 -269 6 4 11 1 11 -9 0 -10 -5 -13 -12 -9 -9 5 -9 2 1 -9 11 -14 11 -23 2 -45 -7 -16 -11 -61 -9 -102 l3 -73 42 -12 c23 -7 58 -16 77 -19 30 -6 35 -4 30 9 -5 11 0 15 19 15 18 0 27 -7 31 -24 7 -28 27 -38 47 -25 12 8 11 11 -3 19 -9 6 -26 36 -38 67 -12 31 -32 81 -46 110 -13 30 -24 61 -25 71 0 12 -3 9 -11 -8 -6 -15 -7 -61 -3 -118 l6 -94 -23 7 c-13 4 -34 12 -48 19 l-25 11 1 180 c1 204 7 331 16 340 3 4 26 0 50 -9 31 -10 42 -19 41 -33 -2 -10 -5 -52 -8 -93 -3 -41 -8 -85 -11 -97 -7 -35 15 -27 31 10 8 17 32 58 53 90 l39 58 26 -30 c29 -35 39 -39 35 -13 -4 24 33 27 62 4 22 -17 25 -30 46 -152 5 -31 11 -37 47 -48 22 -7 44 -9 48 -5 5 5 11 31 14 58 4 46 4 47 -5 17 -8 -23 -16 -32 -28 -30 -16 3 -31 54 -47 161 -5 31 -10 37 -30 37 -16 0 -25 6 -25 15 0 8 -8 15 -19 15 -27 0 -139 44 -216 85 -77 40 -85 42 -85 16z m176 -96 c21 -8 33 -19 29 -25 -4 -6 -13 -9 -21 -6 -7 3 -22 -9 -34 -30 -29 -46 -42 -43 -34 9 10 76 8 74 60 52z"/>
 <path d="M1638 1173 c-84 -91 -129 -196 -108 -257 6 -18 20 -42 30 -51 11 -10 20 -26 20 -36 0 -12 10 -21 25 -25 17 -4 27 -15 31 -33 3 -14 10 -37 14 -51 8 -22 58 -238 91 -393 13 -63 8 -78 -21 -59 -11 7 -28 12 -39 12 -15 0 -21 10 -27 43 l-7 42 -9 -40 c-5 -21 -7 -44 -4 -50 14 -37 326 -74 326 -38 0 10 6 12 21 8 21 -7 22 -6 15 61 -3 38 -11 94 -16 124 -5 30 -14 87 -20 125 -21 133 -17 124 -63 127 l-42 3 38 18 c75 36 85 100 25 158 -38 36 -51 36 -110 -1 -36 -23 -45 -33 -41 -50 6 -24 5 -24 -41 -5 -20 8 -36 21 -36 29 0 16 -21 26 -55 26 -33 0 -67 52 -73 111 -4 39 1 60 23 104 15 33 31 52 37 49 6 -4 8 -2 4 4 -3 5 6 24 20 41 32 38 27 41 -8 4z m221 -357 c24 -25 31 -80 13 -98 -7 -7 -19 -7 -41 0 -25 9 -31 8 -31 -2 0 -8 7 -19 15 -26 22 -18 18 -30 -9 -30 l-24 0 3 -102 c2 -57 2 -92 -1 -78 -15 71 -48 185 -65 217 -11 21 -19 48 -19 60 0 20 4 23 28 17 15 -4 37 -12 48 -20 21 -12 21 -11 17 31 -5 43 -4 45 38 54 3 0 16 -10 28 -23z m9 -188 c5 -7 15 -49 20 -93 6 -44 15 -107 20 -140 6 -33 13 -79 16 -103 l6 -42 -47 1 c-27 1 -54 6 -61 12 -17 13 -14 358 2 369 16 11 32 10 44 -4z m-62 -360 c4 -6 2 -14 -4 -16 -7 -2 -10 -9 -6 -15 3 -7 -1 -3 -10 7 -15 19 -13 36 4 36 5 0 12 -5 16 -12z"/>
 <path d="M634 1145 c-8 -17 -8 -27 -1 -34 16 -16 37 -13 31 3 -8 22 8 25 47 9 42 -16 49 -41 44 -155 -3 -61 -1 -69 21 -83 46 -30 106 -91 131 -132 14 -24 26 -43 26 -43 1 0 2 54 2 119 0 77 -3 114 -9 103 -5 -9 -9 -31 -8 -49 1 -18 -1 -33 -4 -33 -4 0 -21 13 -39 29 -18 16 -39 31 -45 33 -8 2 -14 31 -17 78 -3 41 -6 86 -7 100 -2 14 -4 32 -4 41 -1 9 -14 19 -29 23 -16 3 -38 8 -50 12 -17 5 -23 2 -23 -10 0 -20 -5 -20 -33 -1 -20 13 -23 12 -33 -10z"/>
 <path d="M353 1080 c-10 -12 -35 -33 -56 -46 -43 -28 -43 -42 0 -129 14 -27 34 -70 45 -95 11 -25 27 -58 34 -74 13 -25 13 -28 0 -23 -9 4 -18 2 -21 -3 -4 -6 5 -10 19 -10 17 0 26 6 26 15 0 11 7 14 25 9 25 -6 33 4 16 21 -5 6 -23 44 -41 85 -17 41 -43 97 -56 124 -13 28 -24 55 -24 61 0 17 49 60 57 51 5 -4 15 -38 25 -74 9 -37 17 -59 17 -50 2 30 -21 122 -34 142 -13 17 -14 17 -32 -4z"/>
 <path d="M1003 1023 c-35 -21 -63 -44 -63 -51 0 -9 13 -2 35 17 32 27 40 30 83 25 26 -3 51 -10 57 -15 5 -5 15 -9 23 -9 23 0 89 -58 121 -105 36 -53 51 -103 51 -169 0 -56 12 -55 17 2 2 21 9 61 16 88 12 47 11 51 -14 89 -57 85 -108 125 -185 144 -22 5 -48 12 -59 15 -13 4 -42 -7 -82 -31z"/>
 <path d="M646 875 c-43 -164 -71 -245 -86 -249 -9 -2 -6 -4 8 -5 13 -1 22 5 22 14 0 18 12 19 27 4 7 -7 14 4 22 37 7 26 18 52 26 58 11 9 12 32 7 111 l-7 100 -19 -70z"/>
 <path d="M504 904 c3 -9 9 -40 12 -70 4 -30 10 -54 14 -54 13 0 29 114 18 128 -16 18 -52 16 -44 -4z"/>
 <path d="M1396 904 c-4 -10 -13 -14 -26 -11 -11 3 -20 2 -20 -2 0 -7 72 -31 93 -31 12 0 34 -70 52 -167 7 -37 25 -54 25 -25 0 11 7 42 16 70 15 45 15 52 2 66 -9 8 -18 30 -22 49 -5 29 -12 36 -47 46 -23 7 -47 15 -54 17 -7 3 -15 -2 -19 -12z"/>
 <path d="M1074 880 c-65 -26 -54 -202 16 -265 23 -20 63 -23 85 -5 18 15 11 30 -15 30 -12 0 -29 17 -47 47 -22 37 -27 59 -27 110 0 35 5 68 12 75 17 17 59 -24 88 -87 13 -27 24 -41 24 -31 0 28 -45 100 -74 120 -28 18 -32 18 -62 6z"/>
 <path d="M768 723 c2 -32 5 -59 6 -60 1 -1 19 0 39 4 26 4 37 11 37 23 0 17 -64 90 -79 90 -4 0 -6 -26 -3 -57z"/>
 <path d="M1205 720 c-3 -5 -4 -14 -1 -19 4 -5 2 -22 -4 -38 -9 -26 -9 -27 5 -9 8 11 15 32 15 48 0 29 -5 35 -15 18z"/>
 <path d="M672 659 c-2 -45 2 -58 14 -63 13 -5 14 -3 6 7 -6 7 -12 35 -15 62 l-3 50 -2 -56z"/>
 <path d="M940 674 c0 -43 -27 -94 -57 -105 -35 -13 -94 -11 -123 6 -14 8 -32 14 -40 14 -8 0 3 -9 25 -20 46 -21 122 -25 150 -6 11 7 32 18 46 24 25 11 29 9 60 -37 64 -93 164 -131 252 -95 12 5 17 3 17 -8 0 -13 78 -73 85 -65 2 2 -14 15 -36 28 -39 25 -40 26 -35 75 5 48 5 49 -8 20 -33 -76 -148 -71 -230 10 -42 41 -86 114 -86 143 0 10 -5 24 -10 32 -7 11 -10 8 -10 -16z"/>
 <path d="M1416 617 c-13 -83 -16 -102 -21 -129 -3 -16 -7 -40 -9 -55 -3 -16 -8 -39 -12 -52 -5 -17 -4 -22 4 -17 7 4 12 14 12 22 0 11 6 13 19 9 21 -6 26 9 33 90 2 18 8 29 16 27 14 -2 17 34 3 43 -6 3 -13 26 -17 50 -8 60 -20 64 -28 12z"/>
 <path d="M1590 603 c-1 -15 -7 -50 -14 -78 -10 -38 -19 -51 -37 -56 -24 -7 -24 -7 3 -8 15 -1 30 4 33 9 13 20 35 9 44 -22 16 -55 13 6 -3 86 -8 38 -13 73 -10 77 2 4 0 10 -6 14 -6 4 -10 -6 -10 -22z"/>
 <path d="M1448 283 c-8 -10 -20 -33 -27 -52 -14 -42 -15 -138 -1 -146 6 -3 10 -11 10 -16 0 -6 -5 -7 -12 -3 -7 4 -8 3 -4 -4 13 -22 34 -2 29 29 -2 17 0 29 6 29 8 0 7 6 -1 19 -9 15 -9 23 1 34 9 12 9 16 -1 20 -10 3 -9 14 4 53 19 54 18 62 -4 37z"/>
 <path d="M1041 226 c-27 -29 -46 -97 -25 -89 8 3 14 15 14 27 0 11 9 36 20 54 24 38 21 40 -9 8z"/>
 </g>
<g id="layer117" fill="#040202" stroke="none">
 <path d="M932 1985 c0 -11 4 -31 8 -45 6 -20 8 -21 8 -5 0 11 -4 31 -8 45 -6 20 -8 21 -8 5z"/>
 <path d="M959 1948 c-1 -29 0 -57 1 -63 1 -5 3 -19 4 -30 1 -23 51 -34 69 -16 8 8 8 11 0 11 -8 0 -9 9 -3 29 10 36 0 135 -11 106 -6 -17 -8 -17 -8 -2 -2 35 -20 16 -24 -25 l-4 -43 -1 43 c-3 60 -22 52 -23 -10z"/>
 <path d="M1042 1970 c0 -19 2 -27 5 -17 2 9 2 25 0 35 -3 9 -5 1 -5 -18z"/>
 <path d="M460 1603 c0 -14 2 -15 9 -4 5 8 14 10 21 6 9 -5 11 -4 6 3 -11 18 -36 14 -36 -5z"/>
 <path d="M795 1597 c-9 -33 25 -82 87 -127 47 -35 93 -45 145 -34 l38 7 -51 7 c-28 4 -59 12 -70 18 -22 12 -101 94 -126 132 l-16 25 -7 -28z"/>
 <path d="M1246 1565 c-24 -36 -22 -159 4 -229 39 -104 126 -152 260 -144 48 3 86 10 93 18 9 9 9 11 0 6 -6 -3 -42 -7 -80 -7 -170 -3 -271 116 -261 307 2 41 3 74 2 74 -1 0 -9 -11 -18 -25z"/>
 <path d="M504 1547 c3 -11 9 -30 12 -43 7 -29 79 -74 116 -74 31 0 56 24 37 36 -8 4 -9 3 -5 -4 21 -35 -67 10 -123 62 -26 24 -41 34 -37 23z"/>
 <path d="M130 1361 c0 -14 -6 -17 -24 -14 -22 5 -23 2 -29 -74 -18 -226 -20 -276 -8 -269 6 4 11 1 11 -9 0 -10 -5 -14 -12 -9 -10 5 -10 4 -1 -6 7 -8 15 -11 18 -8 6 5 17 213 15 291 -1 59 13 66 70 37 37 -19 41 -24 35 -48 -4 -15 -9 -65 -11 -112 l-5 -85 24 35 c58 86 61 91 43 84 -14 -5 -15 0 -10 42 4 27 10 53 14 57 4 5 25 1 45 -8 28 -11 35 -19 28 -26 -8 -8 -6 -19 6 -40 9 -16 19 -29 24 -29 11 0 8 14 -5 29 -11 11 -5 13 35 8 26 -2 50 -7 53 -10 3 -3 13 -46 22 -96 l17 -91 42 -14 c36 -12 43 -12 43 -1 0 7 2 20 5 28 4 9 -1 13 -17 13 -19 -1 -24 7 -35 59 -7 33 -15 77 -18 98 -5 31 -10 37 -30 37 -16 0 -25 6 -25 15 0 8 -8 15 -19 15 -27 0 -139 44 -216 85 -77 40 -85 42 -85 16z"/>
 <path d="M1621 1153 c-89 -103 -119 -213 -73 -270 12 -15 25 -36 28 -45 3 -9 18 -21 33 -26 25 -9 29 -21 90 -281 34 -150 61 -274 58 -277 -2 -3 -26 4 -53 13 -38 15 -49 24 -50 41 -2 36 -11 36 -19 2 -4 -18 -3 -35 1 -40 42 -37 324 -67 324 -33 0 10 6 12 21 8 21 -7 22 -6 15 61 -3 38 -11 94 -16 124 -5 30 -14 87 -20 125 -21 133 -17 124 -63 127 l-42 3 38 18 c75 36 85 100 25 158 -38 36 -51 36 -110 -1 -36 -23 -45 -33 -41 -50 6 -24 5 -24 -41 -5 -20 8 -36 21 -36 29 0 16 -21 26 -55 26 -33 0 -67 52 -73 111 -4 39 1 60 23 104 15 33 31 52 37 49 6 -4 8 -2 4 4 -3 5 6 24 20 41 14 17 23 31 21 31 -3 0 -24 -21 -46 -47z m224 -319 c19 -8 45 -55 45 -83 0 -11 -10 -27 -22 -35 -20 -14 -24 -14 -45 -1 -19 13 -23 13 -23 1 0 -7 7 -19 15 -26 22 -18 18 -30 -9 -30 l-24 0 3 -102 c2 -57 2 -92 -1 -78 -15 71 -48 185 -65 217 -11 21 -19 48 -19 60 0 20 4 23 28 17 15 -4 34 -10 43 -15 13 -7 15 -2 14 24 -4 49 18 67 60 51z m52 -329 c11 -72 24 -161 28 -199 l7 -69 -28 8 c-26 6 -65 9 -102 6 -7 -1 -10 -7 -7 -13 4 -7 0 -4 -9 6 -17 21 -11 40 10 32 11 -4 14 18 16 122 3 175 3 173 -6 209 -7 31 -7 31 31 30 l38 -2 22 -130z"/>
 <path d="M634 1146 c-9 -19 -8 -25 7 -35 25 -15 28 -14 22 9 -6 24 -10 23 47 6 l45 -13 0 -102 c0 -102 0 -103 30 -127 68 -57 116 -107 131 -140 9 -19 18 -33 19 -32 1 2 -2 32 -7 68 -9 65 -11 67 -64 105 -46 34 -54 44 -51 65 3 13 0 64 -6 112 l-11 86 -34 7 c-18 3 -40 9 -48 12 -8 3 -14 -1 -14 -11 0 -20 -5 -20 -33 -1 -20 13 -23 12 -33 -9z"/>
 <path d="M331 1055 c-21 -19 -43 -35 -49 -35 -23 0 -21 -21 12 -92 76 -163 96 -211 90 -219 -3 -5 0 -9 5 -9 6 0 11 7 11 15 0 11 7 14 25 9 25 -6 33 4 16 21 -5 6 -23 44 -41 85 -17 41 -43 97 -56 124 -13 28 -24 55 -24 61 0 18 47 58 59 51 7 -4 8 -1 5 8 -8 21 -8 21 -53 -19z"/>
 <path d="M1036 1043 c-20 -11 -25 -18 -16 -23 7 -4 20 -6 29 -3 32 8 133 -38 176 -82 49 -49 85 -133 86 -203 0 -56 12 -35 24 43 4 28 11 58 16 67 6 11 5 20 -3 25 -7 4 -19 20 -27 36 -18 35 -78 95 -112 113 -24 12 -45 18 -124 37 -11 3 -33 -2 -49 -10z"/>
 <path d="M185 950 c-4 -13 -4 -63 0 -112 3 -48 3 -88 -2 -88 -22 0 -89 24 -95 34 -4 6 -8 45 -8 86 0 56 -3 70 -11 58 -5 -10 -9 -52 -7 -94 l3 -77 42 -12 c23 -7 58 -16 77 -19 30 -6 35 -4 30 9 -5 11 1 15 20 15 16 0 26 -6 26 -14 0 -21 28 -46 45 -40 12 5 11 9 -5 23 -11 9 -39 70 -63 136 -37 98 -46 115 -52 95z"/>
 <path d="M917 910 c-3 -11 -1 -23 4 -26 5 -3 9 6 9 20 0 31 -6 34 -13 6z"/>
 <path d="M514 860 c5 -34 14 -56 18 -52 13 13 20 102 9 102 -5 0 -16 2 -23 5 -12 5 -12 -4 -4 -55z"/>
 <path d="M627 791 c-36 -126 -37 -134 -20 -146 16 -12 19 -9 30 32 6 24 18 50 27 56 13 10 14 27 8 102 l-7 90 -38 -134z"/>
 <path d="M1393 901 c-12 -18 -9 -21 22 -27 40 -7 47 -17 65 -94 12 -48 15 -66 19 -102 1 -5 5 -8 10 -8 4 0 13 25 19 55 10 46 9 65 -5 109 -15 49 -20 55 -56 66 -21 6 -44 13 -51 16 -6 2 -17 -5 -23 -15z"/>
 <path d="M1049 853 c-19 -50 -22 -92 -9 -140 24 -83 92 -137 128 -101 9 9 6 14 -11 22 -51 26 -91 158 -66 222 7 20 5 24 -11 24 -13 0 -24 -10 -31 -27z"/>
 <path d="M774 739 c3 -17 6 -40 6 -50 0 -15 7 -19 35 -19 44 0 45 17 4 65 -39 44 -54 45 -45 4z"/>
 <path d="M941 658 c-1 -23 -10 -47 -26 -66 l-25 -30 37 19 38 19 17 -22 c23 -30 23 -17 0 24 -10 18 -24 47 -30 63 l-10 30 -1 -37z"/>
 <path d="M1416 618 c-3 -24 -6 -57 -6 -75 0 -17 -3 -34 -8 -37 -5 -3 -7 -16 -5 -30 3 -13 0 -26 -5 -30 -14 -8 -3 -43 15 -51 22 -8 25 -2 31 57 2 29 9 58 14 65 7 9 -15 129 -27 141 -1 2 -6 -16 -9 -40z"/>
 <path d="M1588 575 c-4 -22 -10 -55 -14 -73 -6 -28 -4 -31 11 -26 10 4 21 1 26 -7 13 -20 11 13 -5 86 l-12 60 -6 -40z"/>
 <path d="M1256 474 c-18 -26 -18 -26 3 -15 11 7 21 18 21 26 0 20 -2 19 -24 -11z"/>
 <path d="M1448 283 c-8 -10 -20 -33 -27 -52 -14 -42 -15 -138 -1 -146 6 -3 10 -11 10 -16 0 -6 -5 -7 -12 -3 -7 4 -8 3 -4 -4 13 -22 34 -2 29 29 -2 17 0 29 6 29 8 0 7 6 -1 19 -9 15 -9 23 1 34 9 12 9 16 -1 20 -10 3 -9 14 4 53 19 54 18 62 -4 37z"/>
 <path d="M1041 226 c-27 -29 -46 -97 -25 -89 8 3 14 15 14 27 0 11 9 36 20 54 24 38 21 40 -9 8z"/>
 </g>

</svg>