<!DOCTYPE svg PUBLIC "-//W3C//DTD SVG 20010904//EN" "http://www.w3.org/TR/2001/REC-SVG-20010904/DTD/svg10.dtd">
<svg version="1.0" xmlns="http://www.w3.org/2000/svg" width="200px" height="200px" viewBox="0 0 2000 2000" preserveAspectRatio="xMidYMid meet">
<g id="layer101" fill="#f2f0f3" stroke="none">
 <path d="M130 1983 c1 -37 22 -110 46 -158 30 -61 72 -86 188 -110 105 -23 317 -96 347 -120 35 -29 68 -105 58 -132 -5 -13 -14 -23 -21 -23 -7 0 -21 -14 -31 -31 -30 -53 -15 -59 142 -55 75 2 169 -1 210 -6 40 -5 80 -6 90 -2 9 4 22 6 30 5 22 -4 71 20 71 35 0 8 5 14 12 14 6 0 0 12 -14 28 -14 15 -28 35 -31 45 -9 23 28 95 61 121 32 25 243 98 348 121 116 24 158 49 188 110 24 48 45 121 46 158 0 16 -48 17 -870 17 -822 0 -870 -1 -870 -17z"/>
 </g>
<g id="layer102" fill="#e1dfe3" stroke="none">
 <path d="M130 1983 c1 -37 22 -110 46 -158 30 -61 72 -86 188 -110 105 -23 317 -96 347 -120 35 -29 68 -105 58 -132 -5 -13 -14 -23 -21 -23 -7 0 -21 -14 -31 -31 -30 -53 -15 -59 142 -55 75 2 169 -1 210 -6 40 -5 80 -6 90 -2 9 4 22 6 30 5 22 -4 71 20 71 35 0 8 5 14 12 14 6 0 0 12 -14 28 -14 15 -28 35 -31 45 -9 23 28 95 61 121 32 25 243 98 348 121 116 24 158 49 188 110 24 48 45 121 46 158 0 16 -24 17 -356 17 l-356 0 5 -27 c5 -28 -16 -81 -55 -135 l-18 -27 -26 24 c-26 24 -26 26 -15 88 6 35 11 67 11 70 0 4 -31 7 -70 7 l-70 0 7 -32 c3 -18 12 -52 18 -75 14 -45 8 -58 -29 -65 -27 -5 -87 104 -79 144 l6 28 -357 0 c-332 0 -356 -1 -356 -17z m804 -220 c39 -36 41 -33 -57 -88 -62 -34 -91 -62 -85 -82 1 -4 -2 -26 -6 -48 l-8 -40 -18 42 c-17 38 -17 48 -5 105 11 51 44 168 71 247 3 8 19 -10 40 -45 19 -32 50 -73 68 -91z m271 32 c46 -148 56 -202 42 -232 -9 -21 -11 -21 -23 -5 -7 9 -10 20 -8 24 8 12 -16 49 -27 43 -5 -4 -8 -1 -7 6 2 8 -32 30 -79 54 -45 22 -82 43 -83 48 0 4 11 12 24 16 24 10 85 85 107 134 7 15 13 27 15 27 2 0 19 -52 39 -115z"/>
 </g>
<g id="layer103" fill="#ddd8e2" stroke="none">
 <path d="M130 1983 c1 -37 22 -110 46 -158 30 -61 72 -86 188 -110 44 -9 134 -36 201 -59 116 -40 175 -72 175 -94 0 -6 4 -14 10 -17 6 -4 7 2 1 18 -6 16 -3 56 9 123 18 95 56 234 65 234 3 0 12 -14 20 -31 9 -17 19 -29 21 -26 3 2 -5 23 -17 46 -14 27 -19 50 -15 66 l6 25 -355 0 c-332 0 -355 -1 -355 -17z"/>
 <path d="M927 1968 c3 -18 12 -52 19 -76 12 -41 11 -43 -12 -58 -13 -9 -24 -24 -24 -34 0 -19 30 -50 48 -50 7 0 12 -3 12 -8 0 -11 -60 -62 -74 -62 -31 0 -99 -57 -102 -85 -7 -84 -28 -155 -46 -155 -7 0 -21 -14 -31 -31 -30 -53 -15 -59 142 -55 75 2 169 -1 210 -6 40 -5 80 -6 90 -2 9 4 22 6 30 5 22 -4 71 20 71 35 0 8 5 14 12 14 6 0 -1 13 -16 29 -20 21 -28 41 -32 80 -6 68 -17 94 -51 120 -48 38 -103 71 -117 71 -8 0 -20 7 -27 16 -12 15 -8 22 34 59 26 24 47 46 47 50 0 4 -6 2 -13 -4 -11 -8 -19 -5 -37 13 -21 23 -22 28 -11 89 6 35 11 67 11 70 0 4 -31 7 -70 7 l-69 0 6 -32z"/>
 <path d="M1166 1971 c5 -21 0 -41 -16 -66 -12 -20 -20 -38 -17 -41 3 -3 13 8 22 25 8 17 18 31 20 31 2 0 16 -38 30 -85 35 -112 56 -244 43 -268 -5 -10 -7 -21 -4 -25 3 -3 6 0 6 6 0 41 197 127 386 167 116 24 158 49 188 110 24 48 45 121 46 158 0 16 -23 17 -355 17 l-354 0 5 -29z"/>
 </g>
<g id="layer104" fill="#926049" stroke="none">
 <path d="M130 1983 c1 -37 22 -110 46 -158 30 -61 72 -86 188 -110 105 -23 321 -98 346 -120 11 -10 23 -15 26 -12 4 4 13 44 21 89 8 46 30 136 49 201 19 66 34 121 34 123 0 2 -160 4 -355 4 -332 0 -355 -1 -355 -17z"/>
 <path d="M927 1968 c3 -18 12 -52 18 -75 13 -41 12 -44 -14 -62 l-26 -20 40 -41 40 -41 -25 -19 c-14 -11 -48 -30 -75 -44 -70 -34 -83 -52 -101 -136 -17 -82 -20 -90 -37 -90 -7 0 -20 -14 -30 -31 -30 -53 -15 -59 142 -55 75 2 169 -1 210 -6 40 -5 80 -6 90 -2 9 4 22 6 30 5 22 -4 71 20 71 35 0 8 5 14 12 14 6 0 -1 13 -16 29 -22 23 -29 43 -36 96 -10 81 -28 103 -122 151 -36 18 -70 39 -73 45 -4 6 7 25 24 43 37 38 38 47 10 72 -21 19 -22 26 -3 132 l6 32 -71 0 -70 0 6 -32z"/>
 <path d="M1160 1996 c0 -2 17 -64 39 -138 21 -74 42 -162 46 -195 9 -79 18 -93 44 -69 26 23 241 98 347 121 116 24 158 49 188 110 24 48 45 121 46 158 0 16 -23 17 -355 17 -195 0 -355 -2 -355 -4z"/>
 </g>
<g id="layer105" fill="#666364" stroke="none">
 <path d="M130 1983 c1 -37 22 -110 46 -158 30 -61 72 -86 188 -110 105 -23 321 -98 346 -120 11 -10 23 -15 26 -12 4 4 13 44 21 89 8 46 30 136 49 201 19 66 34 121 34 123 0 2 -160 4 -355 4 -332 0 -355 -1 -355 -17z"/>
 <path d="M927 1968 c3 -18 12 -52 18 -75 13 -41 12 -44 -14 -62 l-26 -20 40 -40 c21 -23 46 -41 55 -41 18 0 80 60 80 76 0 6 -9 19 -21 30 -21 19 -22 26 -3 132 l6 32 -71 0 -70 0 6 -32z"/>
 <path d="M1160 1996 c0 -2 17 -64 39 -138 21 -74 42 -162 46 -195 9 -79 18 -93 44 -69 26 23 241 98 347 121 116 24 158 49 188 110 24 48 45 121 46 158 0 16 -23 17 -355 17 -195 0 -355 -2 -355 -4z"/>
 <path d="M905 1623 c-15 -4 -77 -42 -113 -69 -2 -1 -5 -15 -7 -30 -5 -45 -23 -84 -37 -84 -7 0 -21 -14 -31 -31 -30 -53 -15 -59 142 -55 75 2 169 -1 210 -6 40 -5 80 -6 90 -2 9 4 22 6 30 5 22 -4 71 20 71 35 0 8 5 14 12 14 6 0 0 12 -15 28 -25 26 -51 107 -41 124 3 4 0 8 -6 8 -6 0 -32 14 -58 32 -43 30 -54 32 -137 35 -49 1 -99 -1 -110 -4z m222 -119 c38 -22 43 -29 43 -59 0 -34 -1 -35 -39 -35 -53 0 -71 8 -72 34 -1 16 -2 17 -6 4 -3 -13 -14 -18 -36 -18 -18 0 -56 -3 -85 -7 l-53 -6 7 27 c9 36 -11 33 -25 -4 -8 -26 -15 -30 -45 -30 -20 0 -36 4 -36 9 0 11 71 75 102 92 65 36 178 32 245 -7z m83 -92 c-27 -4 -34 2 -26 24 6 15 8 15 27 -2 l21 -19 -22 -3z"/>
 </g>
<g id="layer106" fill="#875038" stroke="none">
 <path d="M130 1983 c1 -37 22 -110 46 -158 30 -61 72 -86 188 -110 106 -23 321 -98 347 -121 27 -24 35 -10 44 70 4 34 22 111 39 171 18 61 36 122 40 138 l6 27 -355 0 c-332 0 -355 -1 -355 -17z"/>
 <path d="M930 1977 c0 -13 7 -46 15 -73 15 -49 15 -49 -11 -70 l-26 -22 37 -41 c21 -22 43 -41 51 -41 18 0 84 59 84 75 0 7 -12 22 -26 32 -24 18 -25 22 -16 59 5 21 13 54 16 72 l6 32 -65 0 c-61 0 -65 -1 -65 -23z"/>
 <path d="M1160 1996 c0 -2 17 -64 39 -138 21 -74 42 -162 46 -195 9 -79 18 -93 44 -69 26 23 241 98 347 121 116 24 158 49 188 110 24 48 45 121 46 158 0 16 -23 17 -355 17 -195 0 -355 -2 -355 -4z"/>
 <path d="M905 1623 c-15 -4 -77 -42 -113 -69 -2 -1 -5 -15 -7 -30 -5 -45 -23 -84 -37 -84 -7 0 -21 -14 -31 -31 -30 -53 -15 -59 142 -55 75 2 169 -1 210 -6 40 -5 80 -6 90 -2 9 4 22 6 30 5 22 -4 71 20 71 35 0 8 5 14 12 14 6 0 0 12 -15 28 -25 26 -51 107 -41 124 3 4 0 8 -6 8 -6 0 -32 14 -58 32 -43 30 -54 32 -137 35 -49 1 -99 -1 -110 -4z m222 -119 c38 -22 43 -29 43 -59 0 -34 -1 -35 -39 -35 -53 0 -71 8 -72 34 -1 16 -2 17 -6 4 -3 -13 -14 -18 -36 -18 -18 0 -56 -3 -85 -7 l-53 -6 7 27 c9 36 -11 33 -25 -4 -8 -26 -15 -30 -45 -30 -20 0 -36 4 -36 9 0 11 71 75 102 92 65 36 178 32 245 -7z m83 -92 c-27 -4 -34 2 -26 24 6 15 8 15 27 -2 l21 -19 -22 -3z"/>
 </g>
<g id="layer107" fill="#b73413" stroke="none">
 <path d="M130 1983 c1 -37 22 -110 46 -158 30 -61 72 -86 188 -110 106 -23 321 -98 347 -121 27 -24 35 -10 44 70 4 34 22 111 39 171 18 61 36 122 40 138 l6 27 -355 0 c-332 0 -355 -1 -355 -17z"/>
 <path d="M930 1977 c0 -13 7 -46 15 -73 15 -49 15 -49 -11 -70 l-26 -22 37 -41 c21 -22 43 -41 51 -41 18 0 84 59 84 75 0 7 -12 22 -26 32 -24 18 -25 22 -16 59 5 21 13 54 16 72 l6 32 -65 0 c-61 0 -65 -1 -65 -23z"/>
 <path d="M1160 1996 c0 -2 17 -64 39 -138 21 -74 42 -162 46 -195 9 -79 18 -93 44 -69 26 23 241 98 347 121 116 24 158 49 188 110 24 48 45 121 46 158 0 16 -23 17 -355 17 -195 0 -355 -2 -355 -4z"/>
 <path d="M806 1555 c-11 -8 -20 -25 -22 -37 -4 -38 -23 -78 -36 -78 -7 0 -21 -14 -31 -31 -30 -53 -15 -59 142 -55 75 2 169 -1 210 -6 40 -5 80 -6 90 -2 9 4 22 6 30 5 22 -4 71 20 71 35 0 8 5 14 12 14 6 0 0 12 -15 28 -14 15 -30 46 -36 70 -15 69 -22 71 -221 71 -137 0 -179 -3 -194 -14z m292 -28 c36 -13 114 -72 131 -99 10 -16 7 -18 -19 -18 -26 0 -30 4 -31 28 l-2 27 -4 -27 c-4 -25 -9 -28 -43 -28 -52 0 -70 8 -71 34 -1 16 -2 17 -6 4 -3 -13 -14 -18 -36 -18 -18 0 -56 -3 -85 -7 l-53 -6 7 27 c9 36 -11 33 -25 -4 -9 -28 -13 -30 -58 -30 l-48 1 58 54 c31 30 72 59 90 64 46 13 156 12 195 -2z"/>
 </g>
<g id="layer108" fill="#7a452f" stroke="none">
 <path d="M130 1983 c1 -37 22 -110 46 -158 30 -61 72 -86 188 -110 106 -23 321 -98 347 -121 27 -24 35 -10 44 70 4 34 22 111 39 171 18 61 36 122 40 138 l6 27 -355 0 c-332 0 -355 -1 -355 -17z"/>
 <path d="M930 1977 c0 -13 7 -46 15 -73 15 -49 15 -49 -11 -70 l-26 -22 37 -41 c21 -22 43 -41 51 -41 18 0 84 59 84 75 0 7 -12 22 -26 32 -24 18 -25 22 -16 59 5 21 13 54 16 72 l6 32 -65 0 c-61 0 -65 -1 -65 -23z"/>
 <path d="M1160 1996 c0 -2 17 -64 39 -138 21 -74 42 -162 46 -195 9 -79 18 -93 44 -69 26 23 241 98 347 121 116 24 158 49 188 110 24 48 45 121 46 158 0 16 -23 17 -355 17 -195 0 -355 -2 -355 -4z"/>
 <path d="M806 1555 c-11 -8 -20 -25 -22 -37 -4 -38 -23 -78 -36 -78 -7 0 -21 -14 -31 -31 -30 -53 -15 -59 142 -55 75 2 169 -1 210 -6 40 -5 80 -6 90 -2 9 4 25 8 36 8 35 2 65 17 65 32 0 8 5 14 12 14 6 0 0 12 -15 28 -14 15 -30 46 -36 70 -15 69 -22 71 -221 71 -137 0 -179 -3 -194 -14z m292 -28 c36 -13 114 -72 131 -99 10 -16 7 -18 -19 -18 -21 0 -30 5 -31 18 -1 16 -2 16 -6 0 -6 -23 -84 -25 -106 -3 -8 8 -16 12 -19 10 -2 -2 -45 -6 -96 -9 -51 -3 -97 -8 -102 -11 -5 -3 -31 -8 -58 -12 -40 -4 -49 -3 -49 10 0 9 4 14 9 11 5 -3 33 17 64 45 30 28 70 55 87 60 46 13 156 12 195 -2z"/>
 </g>
<g id="layer109" fill="#c52602" stroke="none">
 <path d="M130 1983 c1 -37 22 -110 46 -158 30 -61 72 -86 188 -110 106 -23 321 -98 347 -121 27 -24 35 -10 44 70 4 34 22 111 39 171 18 61 36 122 40 138 l6 27 -340 0 -340 0 6 -27 c6 -26 32 -111 48 -158 4 -11 -2 -4 -12 15 -19 33 -34 79 -47 143 -6 30 -25 37 -25 10z m190 -231 c-14 -5 -90 28 -90 39 0 4 23 -2 51 -14 28 -12 45 -23 39 -25z"/>
 <path d="M930 1977 c0 -13 7 -46 15 -73 15 -49 15 -49 -11 -70 l-26 -22 37 -41 c21 -22 43 -41 51 -41 18 0 84 59 84 75 0 7 -12 22 -26 32 -24 18 -25 22 -16 59 5 21 13 54 16 72 l6 32 -65 0 c-61 0 -65 -1 -65 -23z"/>
 <path d="M1160 1996 c0 -2 17 -64 39 -138 21 -74 42 -162 46 -195 9 -79 18 -93 44 -69 26 23 241 98 347 121 116 24 158 49 188 110 27 52 53 161 42 172 -10 11 -18 -4 -27 -51 -8 -43 -49 -150 -54 -144 -2 2 7 35 20 73 12 39 26 82 29 98 l6 27 -340 0 c-187 0 -340 -2 -340 -4z m610 -205 c0 -11 -76 -44 -91 -39 -7 2 9 12 34 22 28 10 44 22 41 28 -4 7 -2 8 4 4 7 -4 12 -11 12 -15z"/>
 <path d="M933 1551 c-23 -4 -64 -21 -92 -39 -30 -18 -51 -26 -52 -19 0 7 -7 -3 -15 -20 -8 -18 -20 -33 -27 -33 -6 0 -20 -14 -30 -31 -30 -53 -15 -59 142 -55 75 2 169 -1 210 -6 40 -5 80 -6 90 -2 9 4 25 8 36 8 35 2 65 17 65 32 0 8 5 14 12 14 6 0 0 12 -15 28 -14 15 -31 45 -36 67 -7 32 -9 35 -10 13 l-1 -27 -57 35 c-31 19 -64 34 -74 34 -9 0 -36 2 -60 4 -24 3 -63 1 -86 -3z m186 -30 c21 -11 60 -40 87 -65 l49 -45 -37 -1 c-29 0 -38 4 -39 18 -1 16 -2 16 -6 0 -6 -23 -84 -25 -106 -3 -8 8 -16 12 -19 10 -2 -2 -45 -6 -96 -9 -51 -3 -97 -8 -102 -11 -5 -3 -31 -8 -58 -12 -41 -4 -49 -3 -49 11 0 9 2 14 5 11 3 -2 28 15 56 39 79 67 100 75 194 76 63 0 92 -5 121 -19z"/>
 </g>
<g id="layer110" fill="#8c2b0d" stroke="none">
 <path d="M130 1983 c1 -37 22 -110 46 -158 30 -61 72 -86 188 -110 106 -23 321 -98 347 -121 27 -24 35 -10 44 70 4 34 22 111 39 171 18 61 36 122 40 138 l6 27 -340 0 -340 0 6 -27 c6 -26 32 -111 48 -158 4 -11 -2 -4 -12 15 -19 33 -34 79 -47 143 -6 30 -25 37 -25 10z m190 -231 c-14 -5 -90 28 -90 39 0 4 23 -2 51 -14 28 -12 45 -23 39 -25z"/>
 <path d="M930 1977 c0 -13 7 -46 15 -73 15 -49 15 -49 -11 -70 l-26 -22 37 -41 c21 -22 43 -41 51 -41 18 0 84 59 84 75 0 7 -12 22 -26 32 -24 18 -25 22 -16 59 5 21 13 54 16 72 l6 32 -65 0 c-61 0 -65 -1 -65 -23z"/>
 <path d="M1160 1996 c0 -2 17 -64 39 -138 21 -74 42 -162 46 -195 9 -79 18 -93 44 -69 26 23 241 98 347 121 116 24 158 49 188 110 27 52 53 161 42 172 -10 11 -18 -4 -27 -51 -8 -43 -49 -150 -54 -144 -2 2 7 35 20 73 12 39 26 82 29 98 l6 27 -340 0 c-187 0 -340 -2 -340 -4z m610 -205 c0 -11 -76 -44 -91 -39 -7 2 9 12 34 22 28 10 44 22 41 28 -4 7 -2 8 4 4 7 -4 12 -11 12 -15z"/>
 <path d="M933 1551 c-23 -4 -64 -21 -92 -39 -30 -18 -51 -26 -51 -19 -1 10 -40 -60 -40 -71 0 -2 24 16 53 41 79 67 104 77 197 77 96 0 131 -15 213 -90 58 -53 89 -69 44 -22 -14 15 -31 45 -36 67 -7 32 -9 35 -10 13 l-1 -27 -57 35 c-31 19 -64 34 -74 34 -9 0 -36 2 -60 4 -24 3 -63 1 -86 -3z"/>
 <path d="M715 1400 c-10 -11 -16 -22 -13 -25 3 -3 13 4 23 15 10 11 16 22 13 25 -3 3 -13 -4 -23 -15z"/>
 </g>
<g id="layer111" fill="#653220" stroke="none">
 <path d="M130 1983 c1 -37 22 -110 46 -158 30 -61 72 -86 188 -110 106 -23 321 -98 347 -121 27 -24 35 -10 44 70 4 34 22 111 39 171 18 61 36 122 40 138 l6 27 -340 0 -340 0 6 -27 c6 -26 32 -111 48 -158 4 -11 -2 -4 -12 15 -19 33 -34 79 -47 143 -6 30 -25 37 -25 10z m190 -231 c-14 -5 -90 28 -90 39 0 4 23 -2 51 -14 28 -12 45 -23 39 -25z"/>
 <path d="M930 1977 c0 -13 7 -46 15 -73 15 -49 15 -49 -11 -70 l-26 -22 37 -41 c21 -22 43 -41 51 -41 18 0 84 59 84 75 0 7 -12 22 -26 32 -24 18 -25 22 -16 59 5 21 13 54 16 72 l6 32 -65 0 c-61 0 -65 -1 -65 -23z"/>
 <path d="M1160 1996 c0 -2 17 -64 39 -138 21 -74 42 -162 46 -195 9 -79 18 -93 44 -69 26 23 241 98 347 121 116 24 158 49 188 110 27 52 53 161 42 172 -10 11 -18 -4 -27 -51 -8 -43 -49 -150 -54 -144 -2 2 7 35 20 73 12 39 26 82 29 98 l6 27 -340 0 c-187 0 -340 -2 -340 -4z m610 -205 c0 -11 -76 -44 -91 -39 -7 2 9 12 34 22 28 10 44 22 41 28 -4 7 -2 8 4 4 7 -4 12 -11 12 -15z"/>
 <path d="M933 1551 c-23 -4 -64 -21 -92 -39 -30 -18 -51 -26 -51 -19 -1 7 -9 -4 -19 -23 -9 -19 -16 -37 -15 -39 2 -2 25 14 51 36 75 63 102 73 193 73 96 0 131 -15 213 -90 58 -53 89 -69 44 -22 -14 15 -31 45 -36 67 -7 32 -9 35 -10 13 l-1 -27 -57 35 c-31 19 -64 34 -74 34 -9 0 -36 2 -60 4 -24 3 -63 1 -86 -3z"/>
 </g>
<g id="layer112" fill="#572717" stroke="none">
 <path d="M130 1983 c1 -37 22 -110 46 -158 30 -61 72 -86 188 -110 105 -23 321 -98 346 -120 11 -10 23 -15 27 -11 4 4 12 42 19 84 6 42 28 133 48 201 20 68 34 126 32 129 -17 16 -37 -21 -70 -132 -24 -80 -37 -142 -36 -173 1 -26 1 -59 1 -73 -1 -24 -1 -24 -15 -4 -8 12 -44 43 -80 69 -37 26 -66 50 -66 52 0 2 16 18 36 35 39 34 37 40 -18 57 l-37 12 29 80 c21 58 25 79 15 79 -8 0 -24 -31 -38 -74 -27 -82 -26 -85 28 -106 l30 -11 -35 -29 -35 -29 60 -57 c33 -31 51 -53 40 -49 -80 32 -212 75 -275 90 -122 27 -148 42 -176 98 -14 27 -30 76 -36 108 -9 54 -28 82 -28 42z"/>
 <path d="M300 1956 c-7 -26 -28 -72 -47 -103 -41 -69 -37 -82 5 -17 33 49 66 136 60 156 -3 7 -10 -9 -18 -36z"/>
 <path d="M930 1977 c0 -13 7 -46 15 -73 15 -49 15 -49 -11 -70 l-26 -22 37 -41 c21 -22 43 -41 51 -41 18 0 84 59 84 75 0 7 -12 22 -26 32 -24 18 -25 22 -16 59 5 21 13 54 16 72 l6 32 -65 0 c-61 0 -65 -1 -65 -23z"/>
 <path d="M1160 1997 c0 -3 17 -65 39 -139 21 -74 42 -162 46 -195 9 -79 18 -93 44 -69 26 23 241 98 347 121 116 24 158 49 188 110 36 72 58 175 37 175 -5 0 -14 -27 -19 -59 -6 -32 -22 -81 -36 -108 -28 -56 -54 -71 -176 -98 -41 -10 -124 -35 -184 -55 l-108 -39 58 55 58 54 -34 29 -35 29 30 12 c54 21 55 25 28 106 -14 43 -30 74 -38 74 -10 0 -6 -21 15 -79 l29 -80 -37 -12 c-55 -17 -57 -24 -18 -55 20 -16 36 -32 36 -35 0 -3 -29 -28 -66 -54 -36 -26 -72 -57 -80 -69 -14 -20 -14 -20 -15 4 0 14 0 50 0 80 1 74 -67 293 -92 298 -9 2 -17 1 -17 -1z"/>
 <path d="M1681 1988 c-1 -28 35 -117 65 -159 36 -52 43 -43 9 10 -15 22 -38 69 -51 103 -12 35 -23 55 -23 46z"/>
 </g>
<g id="layer113" fill="#481b0c" stroke="none">
 <path d="M130 1983 c1 -37 22 -110 46 -158 30 -61 72 -86 188 -110 101 -22 321 -97 344 -119 10 -9 21 -16 24 -16 7 0 18 44 29 120 4 30 24 109 43 174 34 110 38 144 17 120 -18 -21 -81 -272 -81 -326 0 -54 -12 -83 -23 -55 -3 8 -29 30 -59 51 l-53 37 40 -36 40 -36 -55 22 c-30 12 -109 37 -175 56 -254 74 -226 60 -262 132 -18 35 -36 85 -39 112 -6 46 -24 70 -24 32z"/>
 <path d="M583 1985 c-21 -40 -45 -126 -39 -140 3 -8 11 -15 18 -15 10 0 10 2 1 8 -9 6 -6 25 13 76 24 66 28 112 7 71z"/>
 <path d="M930 1977 c0 -13 7 -46 15 -73 15 -49 15 -49 -11 -70 l-26 -22 37 -41 c21 -22 43 -41 51 -41 18 0 84 59 84 75 0 7 -12 22 -26 32 -24 18 -25 22 -16 59 5 21 13 54 16 72 l6 32 -65 0 c-61 0 -65 -1 -65 -23z"/>
 <path d="M1166 1973 c4 -15 20 -71 36 -123 17 -52 33 -120 38 -150 10 -76 20 -120 28 -120 3 0 14 7 24 16 23 22 243 97 344 119 116 24 158 49 188 110 36 71 58 175 37 175 -5 0 -11 -21 -15 -47 -8 -60 -58 -168 -84 -182 -11 -6 -58 -20 -104 -31 -89 -21 -200 -55 -288 -89 l-55 -22 40 36 40 36 -53 -37 c-30 -21 -56 -43 -59 -51 -11 -28 -23 1 -23 55 0 65 -70 324 -89 330 -8 3 -10 -4 -5 -25z"/>
 <path d="M1400 1991 c0 -6 11 -41 25 -78 18 -50 21 -69 12 -75 -9 -6 -9 -8 1 -8 23 0 24 29 2 95 -19 58 -40 92 -40 66z"/>
 <path d="M1710 1895 c0 -12 48 -85 56 -85 3 0 -3 12 -14 28 -10 15 -24 36 -30 47 -6 11 -12 15 -12 10z"/>
 <path d="M598 1817 l22 -13 -30 -22 c-36 -27 -38 -42 -7 -68 l22 -19 -19 23 c-19 22 -19 22 13 56 32 33 33 34 13 45 -12 6 -24 11 -29 11 -4 -1 2 -6 15 -13z"/>
 <path d="M1387 1819 c-18 -10 -17 -13 14 -45 32 -34 32 -34 13 -56 l-19 -23 23 19 c30 26 28 41 -8 68 l-30 22 22 13 c13 7 19 12 13 12 -5 0 -18 -4 -28 -10z"/>
 </g>
<g id="layer114" fill="#391102" stroke="none">
 <path d="M138 1981 c-4 -13 -2 -33 3 -43 6 -11 8 -22 6 -25 -3 -2 1 -16 8 -30 8 -15 12 -30 9 -35 -3 -4 0 -8 6 -8 6 0 9 -3 7 -7 -3 -5 4 -17 15 -28 16 -16 15 -11 -6 36 -14 30 -29 79 -34 109 -6 44 -9 50 -14 31z"/>
 <path d="M577 1956 c-23 -68 -21 -82 3 -21 11 28 19 54 17 60 -2 5 -11 -12 -20 -39z"/>
 <path d="M786 1868 c-34 -116 -60 -273 -43 -258 4 3 9 34 12 69 3 35 15 91 27 125 11 33 26 84 33 111 7 28 16 58 20 68 4 9 3 17 -2 17 -5 0 -26 -60 -47 -132z"/>
 <path d="M930 1977 c0 -13 7 -46 15 -73 15 -49 15 -49 -11 -70 l-26 -22 37 -41 c21 -22 43 -41 51 -41 18 0 84 59 84 75 0 7 -12 22 -26 32 -24 18 -25 22 -16 59 5 21 13 54 16 72 l6 32 -65 0 c-61 0 -65 -1 -65 -23z"/>
 <path d="M1165 1983 c4 -10 13 -40 20 -68 7 -27 22 -78 33 -111 12 -34 24 -90 27 -125 3 -35 8 -66 12 -69 3 -3 3 24 1 60 -6 72 -77 330 -91 330 -5 0 -6 -8 -2 -17z"/>
 <path d="M1401 1995 c-1 -5 8 -32 19 -60 12 -27 18 -37 15 -21 -7 34 -33 96 -34 81z"/>
 <path d="M1851 1974 c-1 -46 -28 -127 -56 -169 -14 -20 -24 -40 -20 -43 3 -3 5 0 5 7 0 7 5 9 12 5 6 -4 8 -3 5 3 -4 5 2 19 13 30 10 12 16 24 13 27 -4 3 -1 6 6 6 7 0 10 4 7 8 -3 5 1 20 9 35 7 14 11 28 8 30 -2 3 0 14 6 25 7 13 8 29 2 44 -9 22 -10 21 -10 -8z"/>
 <path d="M594 1778 l-29 -33 33 29 c17 17 32 31 32 33 0 8 -8 1 -36 -29z"/>
 <path d="M1370 1807 c0 -2 15 -16 33 -33 l32 -29 -29 33 c-28 30 -36 37 -36 29z"/>
 <path d="M255 1750 c13 -12 38 -22 65 -24 25 -2 45 -5 45 -6 0 -1 16 -3 35 -5 l35 -3 -40 13 c-22 7 -50 14 -63 14 -12 1 -39 8 -60 16 l-37 16 20 -21z"/>
 <path d="M1725 1755 c-16 -8 -41 -15 -55 -15 -14 -1 -43 -8 -65 -15 l-40 -13 35 3 c19 2 35 4 35 5 0 1 20 4 45 6 27 2 52 12 64 24 23 23 22 23 -19 5z"/>
 <path d="M1470 1685 c-83 -29 -159 -63 -143 -64 11 -1 61 17 128 44 11 5 22 9 25 10 3 1 16 6 30 12 14 6 32 13 40 16 13 5 13 5 0 5 -8 0 -44 -10 -80 -23z"/>
 <path d="M490 1689 c14 -7 27 -13 30 -14 3 -1 19 -7 35 -14 78 -31 116 -43 120 -39 6 6 -138 64 -180 72 -29 6 -30 6 -5 -5z"/>
 <path d="M690 1624 c0 -6 9 -19 19 -28 15 -14 21 -15 27 -4 4 7 4 10 -1 6 -4 -4 -16 3 -26 15 -10 12 -18 17 -19 11z"/>
 <path d="M1284 1605 c-4 -8 -11 -12 -17 -8 -6 4 -7 1 -3 -6 6 -9 13 -8 27 5 22 20 23 24 9 24 -6 0 -13 -7 -16 -15z"/>
 </g>
<g id="layer115" fill="#0e0c0c" stroke="none">
 <path d="M930 1977 c0 -13 7 -46 15 -73 15 -49 15 -49 -11 -70 l-26 -22 37 -41 c21 -22 43 -41 51 -41 18 0 84 59 84 75 0 7 -12 22 -26 32 -24 18 -25 22 -16 59 5 21 13 54 16 72 l6 32 -65 0 c-61 0 -65 -1 -65 -23z"/>
 </g>

</svg>