<!DOCTYPE svg PUBLIC "-//W3C//DTD SVG 20010904//EN" "http://www.w3.org/TR/2001/REC-SVG-20010904/DTD/svg10.dtd">
<svg version="1.0" xmlns="http://www.w3.org/2000/svg" width="200px" height="200px" viewBox="0 0 2000 2000" preserveAspectRatio="xMidYMid meet">
<g id="layer101" fill="#f2f0f3" stroke="none">
 <path d="M130 1990 c0 -32 26 -122 47 -160 30 -56 76 -82 193 -109 135 -31 322 -98 346 -125 36 -38 63 -98 54 -121 -4 -12 -29 -38 -55 -59 l-47 -39 33 -21 c29 -18 49 -21 134 -21 58 1 114 6 132 14 23 9 41 10 69 2 22 -6 94 -13 161 -17 104 -6 124 -5 137 9 15 14 11 20 -40 64 -73 62 -81 84 -52 132 12 20 32 46 43 58 23 26 213 94 345 124 117 27 163 53 193 109 21 38 47 128 47 160 0 6 -327 10 -870 10 -543 0 -870 -4 -870 -10z"/>
 </g>
<g id="layer102" fill="#e0dbe3" stroke="none">
 <path d="M130 1990 c0 -32 26 -122 47 -160 30 -56 76 -82 193 -109 135 -31 322 -98 346 -125 36 -38 63 -98 54 -121 -4 -12 -29 -38 -55 -59 l-47 -39 33 -21 c29 -18 49 -21 134 -21 58 1 114 6 132 14 23 9 41 10 69 2 22 -6 94 -13 161 -17 104 -6 124 -5 137 9 15 14 11 20 -40 64 -73 62 -81 84 -52 132 12 20 32 46 43 58 23 26 213 94 345 124 117 27 163 53 193 109 21 38 47 128 47 160 0 6 -138 10 -356 10 l-356 0 5 -21 c6 -22 -18 -79 -55 -131 -19 -27 -20 -28 -44 -10 -22 15 -24 22 -19 67 3 28 8 60 11 73 6 21 4 22 -66 22 -63 0 -71 -2 -66 -17 28 -96 29 -114 7 -136 -22 -22 -22 -22 -37 -2 -33 43 -63 113 -57 134 l5 21 -356 0 c-218 0 -356 -4 -356 -10z m805 -217 l35 -33 -38 -24 c-20 -13 -58 -35 -84 -50 -48 -27 -66 -61 -69 -126 -1 -23 -2 -22 -16 10 -9 19 -15 52 -14 73 2 31 48 206 77 286 3 8 18 -9 40 -45 19 -32 50 -74 69 -91z m270 30 c46 -147 56 -204 39 -235 l-12 -23 -8 30 c-13 52 -33 72 -115 115 -43 22 -79 42 -79 43 0 2 22 26 48 54 26 28 56 70 67 92 10 23 19 41 21 41 2 0 19 -53 39 -117z"/>
 </g>
<g id="layer103" fill="#e3cccb" stroke="none">
 <path d="M130 1990 c0 -32 26 -122 47 -160 30 -56 76 -82 193 -109 136 -31 323 -98 343 -123 24 -29 33 -15 41 66 4 33 11 75 17 91 5 17 18 63 30 103 12 39 24 72 27 72 4 0 7 16 7 35 l0 35 -352 0 c-217 0 -353 -4 -353 -10z"/>
 <path d="M926 1973 c4 -16 13 -47 20 -71 11 -39 11 -43 -9 -57 -12 -8 -27 -15 -35 -15 -8 0 -3 -13 14 -35 14 -19 33 -35 40 -35 25 0 15 -29 -16 -45 -16 -9 -30 -21 -30 -27 0 -6 -3 -9 -6 -5 -8 7 -76 -26 -91 -45 -14 -18 -31 -74 -37 -128 -5 -38 -13 -52 -56 -90 l-51 -45 33 -20 c27 -16 51 -20 134 -19 57 0 113 5 131 13 23 9 41 10 69 2 22 -6 94 -13 161 -17 103 -6 124 -5 137 9 14 14 10 20 -45 69 l-62 54 -6 72 c-8 88 -25 108 -129 157 -83 40 -83 39 -13 102 20 18 29 31 21 28 -8 -2 -26 5 -39 15 -21 18 -23 26 -18 65 4 25 9 56 13 70 6 25 6 25 -65 25 l-71 0 6 -27z"/>
 <path d="M1175 1942 c6 -33 15 -63 18 -69 11 -18 47 -162 53 -216 9 -74 18 -87 41 -59 20 25 207 92 343 123 117 27 163 53 193 109 21 38 47 128 47 160 0 6 -137 10 -354 10 l-354 0 13 -58z"/>
 </g>
<g id="layer104" fill="#d4cdd6" stroke="none">
 <path d="M130 1990 c0 -32 26 -122 47 -160 30 -56 76 -82 193 -109 136 -31 323 -98 343 -123 24 -29 33 -15 41 66 4 33 11 75 17 91 5 17 18 63 30 103 12 39 24 72 27 72 4 0 7 16 7 35 l0 35 -352 0 c-217 0 -353 -4 -353 -10z"/>
 <path d="M926 1973 c4 -16 13 -47 20 -71 11 -39 11 -43 -9 -57 -12 -8 -27 -15 -35 -15 -8 0 -3 -13 14 -35 14 -19 33 -35 40 -35 19 0 18 -22 -2 -46 -8 -10 -12 -13 -9 -6 6 11 3 12 -14 3 -11 -7 -21 -16 -21 -22 0 -6 -4 -8 -9 -4 -5 3 -15 0 -23 -7 -7 -7 -20 -14 -28 -16 -19 -4 -52 -34 -45 -40 3 -3 0 -11 -6 -19 -6 -7 -9 -13 -5 -13 3 0 2 -10 -3 -23 -5 -13 -12 -41 -15 -63 -5 -31 -17 -49 -57 -84 l-50 -45 33 -20 c27 -16 51 -20 134 -19 57 0 113 5 131 13 23 9 41 10 69 2 22 -6 94 -13 161 -17 103 -6 124 -5 137 9 14 14 10 20 -46 70 l-62 54 -4 67 c-2 36 -9 66 -14 66 -5 0 -7 4 -4 9 3 4 -6 19 -19 31 -14 13 -25 20 -25 17 0 -4 -9 2 -21 14 -11 11 -27 18 -35 15 -8 -3 -14 -1 -14 5 0 6 -4 7 -10 4 -5 -3 -10 -1 -10 5 0 6 -4 8 -10 5 -5 -3 -10 -1 -10 6 0 7 -3 9 -7 6 -3 -4 -12 -2 -19 4 -11 9 -3 21 39 61 28 27 45 47 37 44 -8 -3 -26 4 -39 14 -21 18 -23 26 -18 65 4 25 9 56 13 70 6 25 6 25 -65 25 l-71 0 6 -27z"/>
 <path d="M1175 1942 c6 -33 15 -63 18 -69 11 -18 47 -162 53 -216 9 -74 18 -87 41 -59 20 25 207 92 343 123 117 27 163 53 193 109 21 38 47 128 47 160 0 6 -137 10 -354 10 l-354 0 13 -58z"/>
 </g>
<g id="layer105" fill="#ecc4b8" stroke="none">
 <path d="M130 1990 c0 -32 26 -122 47 -160 30 -56 76 -82 193 -109 136 -31 323 -98 343 -123 24 -29 33 -15 42 71 4 36 18 100 30 141 13 41 30 101 38 133 l15 57 -354 0 c-217 0 -354 -4 -354 -10z"/>
 <path d="M936 1939 c8 -34 17 -65 19 -69 3 -5 -7 -17 -22 -28 l-28 -21 39 -40 c48 -49 44 -57 -57 -107 -75 -38 -89 -59 -107 -157 -9 -45 -17 -58 -61 -97 l-50 -45 33 -20 c27 -16 51 -20 134 -19 57 0 113 5 131 13 23 9 41 10 69 2 22 -6 94 -13 161 -17 103 -6 124 -5 137 9 14 14 10 20 -45 69 -59 52 -61 56 -68 114 -4 34 -15 73 -24 88 -10 14 -53 44 -96 66 -44 22 -82 43 -85 48 -3 5 10 24 29 42 41 39 43 53 14 74 -19 13 -21 21 -16 60 4 25 9 57 13 71 6 25 6 25 -64 25 l-70 0 14 -61z"/>
 <path d="M1171 1961 c5 -21 20 -74 33 -117 14 -44 32 -119 39 -167 8 -48 17 -90 20 -94 4 -3 14 4 24 16 20 24 209 91 343 122 117 27 163 53 193 109 21 38 47 128 47 160 0 6 -137 10 -354 10 l-354 0 9 -39z"/>
 </g>
<g id="layer106" fill="#e7b9ab" stroke="none">
 <path d="M130 1990 c0 -32 26 -122 47 -160 30 -56 76 -82 193 -109 136 -31 323 -98 343 -123 24 -29 33 -15 42 71 4 36 18 100 30 141 13 41 30 101 38 133 l15 57 -354 0 c-217 0 -354 -4 -354 -10z"/>
 <path d="M936 1939 c8 -34 17 -65 19 -69 3 -5 -7 -17 -22 -29 l-28 -20 47 -48 48 -47 40 39 c46 45 49 58 19 79 -19 13 -21 21 -16 60 4 25 9 57 13 71 6 25 6 25 -64 25 l-70 0 14 -61z"/>
 <path d="M1171 1961 c5 -21 20 -74 33 -117 14 -44 32 -119 39 -167 8 -48 17 -90 20 -94 4 -3 14 4 24 16 20 24 209 91 343 122 117 27 163 53 193 109 21 38 47 128 47 160 0 6 -137 10 -354 10 l-354 0 9 -39z"/>
 <path d="M886 1614 c-22 -8 -47 -21 -56 -29 -9 -8 -22 -15 -28 -15 -11 0 -17 -14 -26 -72 -5 -28 -18 -47 -57 -79 l-50 -42 27 -18 c37 -24 134 -33 214 -19 36 6 79 13 95 15 17 1 35 4 40 5 27 6 41 4 50 -8 7 -8 48 -15 117 -19 89 -5 109 -3 122 10 14 14 10 20 -46 70 -59 52 -61 56 -66 110 -3 43 -8 54 -19 50 -7 -3 -22 2 -31 11 -49 44 -204 60 -286 30z m221 -110 c18 -7 49 -25 69 -40 30 -23 33 -29 19 -36 -8 -5 -13 -13 -10 -19 9 -13 -4 -11 -60 10 -49 19 -101 17 -157 -4 -11 -4 -16 -1 -15 11 3 25 -23 30 -30 6 -6 -23 -36 -39 -41 -22 -3 7 -21 8 -53 4 -32 -4 -49 -3 -49 4 0 11 61 62 99 82 55 28 163 31 228 4z m159 -115 c18 -20 18 -20 -11 -13 -37 8 -39 10 -30 23 9 16 20 13 41 -10z"/>
 </g>
<g id="layer107" fill="#d2aba2" stroke="none">
 <path d="M130 1990 c0 -32 26 -122 47 -160 30 -56 76 -82 193 -109 136 -31 323 -98 343 -123 24 -29 33 -15 42 71 4 36 18 100 30 141 13 41 30 101 38 133 l15 57 -354 0 c-217 0 -354 -4 -354 -10z"/>
 <path d="M936 1939 c8 -34 17 -65 19 -69 3 -5 -7 -17 -22 -29 l-28 -20 47 -48 48 -47 40 39 c46 45 49 58 19 79 -19 13 -21 21 -16 60 4 25 9 57 13 71 6 25 6 25 -64 25 l-70 0 14 -61z"/>
 <path d="M1171 1961 c5 -21 20 -74 33 -117 14 -44 32 -119 39 -167 8 -48 17 -90 20 -94 4 -3 14 4 24 16 20 24 209 91 343 122 117 27 163 53 193 109 21 38 47 128 47 160 0 6 -137 10 -354 10 l-354 0 9 -39z"/>
 <path d="M915 1619 c-21 -5 -60 -23 -86 -39 -40 -27 -47 -36 -52 -73 -5 -35 -14 -50 -57 -87 l-51 -45 28 -16 c15 -9 49 -20 75 -23 59 -9 185 3 201 18 19 18 108 18 121 0 17 -23 219 -33 240 -11 14 14 10 20 -45 69 -58 51 -62 58 -67 106 -2 28 -8 49 -13 46 -5 -2 -25 6 -46 20 -64 42 -159 55 -248 35z m192 -102 c31 -12 208 -145 201 -152 -2 -2 -22 2 -46 8 -29 8 -42 16 -42 29 0 10 -7 18 -16 18 -10 0 -14 -6 -11 -15 5 -12 -4 -11 -44 5 -60 24 -126 26 -157 4 -24 -16 -42 -12 -42 12 0 8 -4 14 -10 14 -5 0 -10 -9 -10 -20 0 -23 -28 -27 -62 -9 -15 8 -22 8 -28 -1 -5 -8 -19 -11 -39 -7 -17 4 -31 3 -31 -2 0 -5 -9 -7 -20 -4 -16 4 -7 15 51 60 39 30 82 59 97 63 41 12 173 10 209 -3z"/>
 </g>
<g id="layer108" fill="#dca696" stroke="none">
 <path d="M130 1990 c0 -32 26 -122 47 -160 30 -56 76 -82 193 -109 136 -31 323 -98 343 -123 24 -29 33 -15 42 71 4 36 18 100 30 141 13 41 30 101 38 133 l15 57 -354 0 c-217 0 -354 -4 -354 -10z"/>
 <path d="M936 1939 c8 -34 17 -65 19 -69 3 -5 -7 -17 -22 -28 l-28 -21 40 -40 c21 -23 46 -41 55 -41 18 0 80 60 80 77 0 7 -10 19 -21 27 -19 13 -21 21 -16 60 4 25 9 57 13 71 6 25 6 25 -64 25 l-70 0 14 -61z"/>
 <path d="M1171 1961 c5 -21 20 -74 33 -117 14 -44 32 -119 39 -167 8 -48 17 -90 20 -94 4 -3 14 4 24 16 20 24 209 91 343 122 117 27 163 53 193 109 21 38 47 128 47 160 0 6 -137 10 -354 10 l-354 0 9 -39z"/>
 <path d="M916 1619 c-22 -5 -59 -22 -82 -36 -36 -23 -45 -35 -55 -75 -9 -38 -21 -56 -61 -89 l-49 -42 26 -17 c15 -10 50 -21 77 -24 62 -8 185 3 201 18 19 18 108 18 121 0 17 -23 219 -33 240 -11 14 14 10 20 -45 69 -58 51 -62 58 -67 106 -2 28 -8 49 -13 46 -5 -2 -25 6 -46 20 -64 42 -159 55 -247 35z m191 -102 c31 -12 208 -145 201 -152 -2 -2 -22 2 -46 8 -29 8 -42 16 -42 29 0 10 -7 18 -16 18 -10 0 -14 -6 -11 -15 5 -12 -4 -11 -44 5 -60 24 -126 26 -157 4 -24 -16 -42 -12 -42 12 0 8 -4 14 -10 14 -5 0 -10 -9 -10 -20 0 -23 -28 -27 -62 -9 -15 8 -22 8 -28 -1 -5 -8 -19 -11 -39 -7 -17 4 -31 3 -31 -2 0 -5 -9 -7 -20 -4 -16 4 -7 15 51 60 39 30 82 59 97 63 41 12 173 10 209 -3z"/>
 </g>
<g id="layer109" fill="#d69b89" stroke="none">
 <path d="M130 1990 c0 -32 26 -122 47 -160 30 -56 76 -82 193 -109 136 -31 323 -98 343 -123 24 -29 33 -15 42 71 4 36 18 100 30 141 13 41 30 101 38 133 l15 57 -354 0 c-217 0 -354 -4 -354 -10z"/>
 <path d="M936 1939 c8 -34 17 -65 19 -69 3 -5 -7 -17 -22 -28 l-28 -21 40 -40 c21 -23 46 -41 55 -41 18 0 80 60 80 77 0 7 -10 19 -21 27 -19 13 -21 21 -16 60 4 25 9 57 13 71 6 25 6 25 -64 25 l-70 0 14 -61z"/>
 <path d="M1171 1961 c5 -21 20 -74 33 -117 14 -44 32 -119 39 -167 8 -48 17 -90 20 -94 4 -3 14 4 24 16 20 24 209 91 343 122 117 27 163 53 193 109 21 38 47 128 47 160 0 6 -137 10 -354 10 l-354 0 9 -39z"/>
 <path d="M808 1557 c-14 -13 -28 -40 -32 -60 -5 -26 -19 -46 -57 -78 l-50 -42 26 -17 c15 -10 50 -21 77 -24 66 -9 186 3 203 20 19 20 105 18 119 -1 17 -24 218 -34 240 -12 14 14 10 20 -45 69 -56 50 -61 58 -69 108 -4 30 -8 49 -9 41 -1 -11 -6 -10 -26 3 -20 13 -54 16 -188 16 -158 0 -165 -1 -189 -23z m307 -42 c30 -12 199 -144 193 -150 -2 -2 -22 2 -46 8 -29 8 -42 16 -42 29 0 10 -7 18 -16 18 -10 0 -14 -6 -10 -15 5 -13 1 -13 -31 0 -60 25 -138 30 -168 11 -27 -18 -45 -14 -45 10 0 8 -4 14 -10 14 -5 0 -10 -9 -10 -20 0 -22 -33 -27 -60 -10 -9 5 -19 5 -27 -2 -7 -6 -27 -8 -43 -4 -17 3 -30 2 -30 -3 0 -5 -9 -7 -20 -4 -17 4 -10 13 43 55 34 28 70 54 80 60 53 28 178 30 242 3z"/>
 </g>
<g id="layer110" fill="#cf8b78" stroke="none">
 <path d="M130 1990 c0 -32 26 -122 47 -160 30 -56 76 -82 193 -109 136 -31 323 -98 343 -123 24 -29 33 -15 42 71 4 36 18 100 30 141 13 41 30 101 38 133 l15 57 -354 0 c-217 0 -354 -4 -354 -10z"/>
 <path d="M936 1939 c8 -34 17 -65 19 -69 3 -5 -7 -17 -22 -28 l-28 -21 40 -40 c21 -23 46 -41 55 -41 18 0 80 60 80 77 0 7 -10 19 -21 27 -19 13 -21 21 -16 60 4 25 9 57 13 71 6 25 6 25 -64 25 l-70 0 14 -61z"/>
 <path d="M1171 1961 c5 -21 20 -74 33 -117 14 -44 32 -119 39 -167 8 -48 17 -90 20 -94 4 -3 14 4 24 16 20 24 209 91 343 122 117 27 163 53 193 109 21 38 47 128 47 160 0 6 -137 10 -354 10 l-354 0 9 -39z"/>
 <path d="M1210 1530 c-1 -25 -4 -37 -7 -27 -2 9 -14 17 -26 17 -12 0 -40 7 -62 15 -22 8 -74 14 -115 14 -41 0 -93 -6 -115 -14 -22 -8 -50 -15 -62 -15 -15 0 -23 -6 -24 -17 0 -15 -2 -15 -8 2 -7 18 -9 16 -15 -12 -5 -22 -24 -46 -57 -74 l-50 -42 26 -17 c15 -10 50 -21 77 -24 64 -9 186 3 202 19 7 7 35 14 64 16 40 3 52 1 55 -12 8 -29 216 -41 243 -15 12 12 5 22 -47 68 -56 50 -61 58 -69 108 l-8 55 -2 -45z m-125 -1 c40 -11 161 -97 206 -146 21 -23 22 -25 4 -19 -11 4 -32 10 -47 13 -19 4 -28 12 -28 24 0 11 -7 19 -15 19 -9 0 -12 -6 -8 -16 5 -14 1 -13 -33 2 -46 19 -157 22 -179 4 -16 -14 -35 -6 -35 16 0 8 -4 14 -10 14 -5 0 -10 -8 -10 -19 0 -24 -51 -36 -63 -15 -7 12 -12 13 -23 3 -7 -6 -27 -9 -44 -7 -16 2 -31 1 -32 -2 -2 -4 -11 -4 -21 -1 -15 6 -5 17 55 63 40 31 89 61 108 66 48 14 127 14 175 1z"/>
 </g>
<g id="layer111" fill="#c2765f" stroke="none">
 <path d="M130 1990 c0 -32 26 -122 47 -160 30 -56 76 -82 193 -109 136 -31 323 -98 343 -123 24 -29 33 -15 42 71 4 36 18 100 30 141 13 41 30 101 38 133 l15 57 -354 0 c-217 0 -354 -4 -354 -10z"/>
 <path d="M936 1939 c8 -34 17 -65 19 -69 3 -5 -7 -17 -22 -28 l-28 -21 40 -40 c21 -23 46 -41 55 -41 18 0 80 60 80 77 0 7 -10 19 -21 27 -19 13 -21 21 -16 60 4 25 9 57 13 71 6 25 6 25 -64 25 l-70 0 14 -61z"/>
 <path d="M1171 1961 c5 -21 20 -74 33 -117 14 -44 32 -119 39 -167 8 -48 17 -90 20 -94 4 -3 14 4 24 16 20 24 209 91 343 122 117 27 163 53 193 109 21 38 47 128 47 160 0 6 -137 10 -354 10 l-354 0 9 -39z"/>
 <path d="M886 1530 c-26 -10 -56 -26 -65 -34 -23 -21 -31 -20 -32 2 0 11 -6 6 -14 -14 -8 -17 -35 -48 -60 -69 l-47 -38 27 -17 c15 -10 50 -21 77 -24 64 -9 186 3 202 19 7 7 35 14 64 16 40 3 52 1 55 -12 8 -29 216 -41 243 -15 12 13 6 21 -46 66 -47 41 -61 61 -69 94 -9 40 -9 40 -10 9 -1 -18 -3 -33 -6 -33 -2 0 -21 11 -41 25 -72 49 -189 59 -278 25z m212 -3 c34 -13 227 -156 219 -163 -11 -11 -96 21 -100 38 -3 10 -10 18 -16 18 -6 0 -8 -7 -4 -16 5 -14 2 -14 -33 1 -44 19 -150 23 -167 6 -18 -18 -37 -13 -46 11 l-8 23 -7 -22 c-7 -23 -58 -42 -64 -24 -4 13 -32 15 -32 2 0 -5 -15 -5 -35 -1 -19 4 -35 4 -35 0 0 -5 -10 -6 -21 -3 -21 6 -20 8 12 35 55 46 112 84 144 96 40 14 152 13 193 -1z"/>
 </g>
<g id="layer112" fill="#cf4d2e" stroke="none">
 <path d="M130 1990 c0 -32 26 -122 47 -160 30 -56 76 -82 193 -109 136 -31 323 -98 343 -123 24 -29 33 -15 42 71 4 36 18 100 30 141 13 41 30 101 38 133 l15 57 -354 0 c-217 0 -354 -4 -354 -10z"/>
 <path d="M936 1939 c8 -34 17 -65 19 -69 3 -5 -7 -17 -22 -28 l-28 -21 40 -40 c21 -23 46 -41 55 -41 18 0 80 60 80 77 0 7 -10 19 -21 27 -19 13 -21 21 -16 60 4 25 9 57 13 71 6 25 6 25 -64 25 l-70 0 14 -61z"/>
 <path d="M1171 1961 c5 -21 20 -74 33 -117 14 -44 32 -119 39 -167 8 -48 17 -90 20 -94 4 -3 14 4 24 16 20 24 209 91 343 122 117 27 163 53 193 109 21 38 47 128 47 160 0 6 -137 10 -354 10 l-354 0 9 -39z"/>
 <path d="M940 1430 c-1 -8 -2 -21 -1 -27 1 -8 -11 -13 -33 -13 -19 0 -37 6 -40 13 -5 9 -7 9 -12 0 -4 -8 -26 -11 -73 -7 -55 4 -70 2 -81 -12 -12 -14 -12 -18 3 -29 39 -29 242 -29 270 0 7 7 36 14 64 17 43 4 52 2 56 -12 5 -19 68 -30 175 -30 80 0 85 21 8 40 -40 9 -56 18 -61 34 -6 18 -8 19 -12 4 -4 -16 -7 -16 -40 -3 -40 17 -159 20 -168 5 -12 -19 -43 -11 -48 13 -2 12 -5 15 -7 7z"/>
 </g>
<g id="layer113" fill="#c52703" stroke="none">
 <path d="M130 1990 c0 -32 26 -122 47 -160 30 -56 76 -82 193 -109 136 -31 323 -98 343 -123 24 -29 33 -15 42 71 4 36 18 100 30 141 13 41 30 101 38 133 l15 57 -354 0 c-217 0 -354 -4 -354 -10z"/>
 <path d="M936 1939 c8 -34 17 -65 19 -69 3 -5 -7 -17 -22 -28 l-28 -21 40 -40 c21 -23 46 -41 55 -41 18 0 80 60 80 77 0 7 -10 19 -21 27 -19 13 -21 21 -16 60 4 25 9 57 13 71 6 25 6 25 -64 25 l-70 0 14 -61z"/>
 <path d="M1171 1961 c5 -21 20 -74 33 -117 14 -44 32 -119 39 -167 8 -48 17 -90 20 -94 4 -3 14 4 24 16 20 24 209 91 343 122 117 27 163 53 193 109 21 38 47 128 47 160 0 6 -137 10 -354 10 l-354 0 9 -39z"/>
 <path d="M980 1403 c-33 -10 -75 -13 -157 -10 -91 4 -115 2 -125 -10 -17 -21 10 -39 73 -47 63 -9 186 3 202 18 16 16 86 36 102 30 7 -3 15 -13 18 -23 5 -20 66 -31 175 -31 93 0 80 20 -36 52 -122 35 -194 40 -252 21z"/>
 </g>
<g id="layer114" fill="#734230" stroke="none">
 <path d="M130 1990 c0 -32 26 -122 47 -160 30 -56 76 -82 193 -109 136 -31 323 -98 343 -123 24 -29 33 -15 42 71 4 36 18 100 30 141 13 41 30 101 38 133 l15 57 -354 0 c-217 0 -354 -4 -354 -10z"/>
 <path d="M936 1939 c8 -34 17 -65 19 -69 3 -5 -7 -17 -22 -28 l-28 -21 40 -40 c21 -23 46 -41 55 -41 18 0 80 60 80 77 0 7 -10 19 -21 27 -19 13 -21 21 -16 60 4 25 9 57 13 71 6 25 6 25 -64 25 l-70 0 14 -61z"/>
 <path d="M1171 1961 c5 -21 20 -74 33 -117 14 -44 32 -119 39 -167 8 -48 17 -90 20 -94 4 -3 14 4 24 16 20 24 209 91 343 122 117 27 163 53 193 109 21 38 47 128 47 160 0 6 -137 10 -354 10 l-354 0 9 -39z"/>
 </g>
<g id="layer115" fill="#653220" stroke="none">
 <path d="M130 1991 c0 -33 26 -123 47 -161 30 -56 76 -82 193 -109 136 -31 323 -98 343 -123 25 -30 31 -17 46 94 6 50 16 99 22 109 5 10 20 59 33 109 l23 90 -338 0 -338 0 20 -71 c11 -40 25 -81 30 -91 6 -11 8 -22 5 -25 -9 -9 -47 87 -54 136 -4 24 -13 46 -20 49 -6 2 -12 -1 -12 -7z m116 -180 c-3 -5 16 -18 42 -29 32 -15 40 -21 25 -22 -12 0 -38 8 -57 17 -28 13 -33 19 -25 30 13 15 23 18 15 4z"/>
 <path d="M936 1939 c8 -34 17 -65 19 -69 3 -5 -7 -17 -22 -28 l-28 -21 40 -40 c21 -23 46 -41 55 -41 18 0 80 60 80 77 0 7 -10 19 -21 27 -19 13 -21 21 -16 60 4 25 9 57 13 71 6 25 6 25 -64 25 l-70 0 14 -61z"/>
 <path d="M1180 1932 c9 -37 27 -96 38 -130 12 -34 25 -93 28 -131 8 -88 16 -102 41 -73 20 25 207 92 343 123 117 27 163 53 194 109 24 45 53 157 43 167 -12 12 -25 -9 -30 -49 -5 -46 -44 -144 -53 -135 -3 3 -1 14 5 25 5 10 19 51 30 91 l20 71 -338 0 -338 0 17 -68z m568 -154 c-18 -9 -44 -17 -58 -17 -19 0 -14 4 23 21 41 18 46 23 35 37 -8 10 -4 8 10 -3 l23 -20 -33 -18z"/>
 </g>
<g id="layer116" fill="#573225" stroke="none">
 <path d="M130 1990 c0 -32 26 -122 47 -160 30 -56 76 -82 193 -109 136 -31 323 -98 343 -123 25 -30 31 -17 46 94 6 50 16 99 22 109 5 10 20 59 33 109 21 81 22 90 7 90 -23 0 -93 -232 -91 -298 2 -64 -1 -100 -7 -84 -3 7 -39 38 -80 68 l-75 56 37 38 c39 40 39 41 -17 59 l-37 12 25 65 c27 72 29 87 12 82 -6 -2 -22 -34 -34 -70 -21 -62 -21 -68 -6 -81 10 -8 28 -18 41 -22 l23 -7 -32 -33 -32 -33 34 -30 c18 -17 44 -40 58 -52 l25 -21 -25 7 c-14 3 -36 12 -50 19 -30 16 -219 71 -275 81 -22 4 -52 13 -67 21 -34 16 -75 94 -90 169 -6 29 -15 54 -19 54 -5 0 -9 -4 -9 -10z"/>
 <path d="M294 1948 c-9 -29 -27 -69 -39 -88 -35 -56 -36 -60 -30 -60 20 0 106 182 92 196 -3 3 -13 -19 -23 -48z"/>
 <path d="M936 1939 c8 -34 17 -65 19 -69 3 -5 -7 -17 -22 -28 l-28 -21 40 -40 c21 -23 46 -41 55 -41 18 0 80 60 80 77 0 7 -10 19 -21 27 -19 13 -21 21 -16 60 4 25 9 57 13 71 6 25 6 25 -64 25 l-70 0 14 -61z"/>
 <path d="M1180 1932 c9 -37 27 -96 38 -130 12 -34 25 -93 28 -131 8 -88 16 -102 41 -73 20 25 207 92 343 123 154 35 202 78 229 207 13 64 14 72 2 72 -4 0 -13 -25 -19 -54 -15 -75 -56 -153 -90 -169 -15 -8 -45 -17 -67 -21 -56 -10 -245 -65 -275 -81 -14 -7 -36 -16 -50 -19 l-25 -7 25 21 c14 12 40 35 58 52 l34 30 -32 33 -32 33 23 7 c13 4 31 14 41 22 15 13 15 19 -6 81 -12 36 -28 68 -34 70 -17 5 -15 -10 12 -82 l25 -65 -37 -12 c-56 -18 -56 -19 -17 -59 l37 -38 -75 -56 c-41 -30 -77 -61 -80 -68 -6 -14 -6 -8 -10 92 -3 87 -65 290 -87 290 -15 0 -15 -5 0 -68z"/>
 <path d="M1685 1973 c10 -44 50 -126 74 -153 24 -27 20 -15 -14 40 -12 19 -30 59 -39 88 -18 55 -33 72 -21 25z"/>
 </g>
<g id="layer117" fill="#572717" stroke="none">
 <path d="M130 1990 c0 -32 26 -122 47 -160 30 -56 76 -82 193 -109 136 -31 323 -98 343 -123 15 -18 20 -20 28 -7 5 7 9 28 10 44 1 56 9 96 44 213 42 143 43 152 26 152 -23 0 -93 -232 -91 -298 2 -64 -1 -100 -7 -84 -3 7 -39 38 -80 68 l-75 56 37 38 c39 40 39 41 -17 59 l-37 12 26 70 c14 38 23 73 19 76 -11 11 -22 -9 -44 -74 -19 -57 -19 -63 -4 -76 10 -8 28 -18 41 -22 l23 -7 -32 -33 -32 -33 34 -30 c18 -17 44 -40 58 -52 l25 -21 -25 7 c-14 3 -36 12 -50 19 -30 16 -219 71 -275 81 -22 4 -52 13 -67 21 -34 16 -75 94 -90 169 -6 29 -15 54 -19 54 -5 0 -9 -4 -9 -10z"/>
 <path d="M294 1948 c-9 -29 -27 -69 -39 -88 -35 -56 -36 -60 -30 -60 20 0 106 182 92 196 -3 3 -13 -19 -23 -48z"/>
 <path d="M936 1939 c8 -34 17 -65 19 -69 3 -5 -7 -17 -22 -28 l-28 -21 40 -40 c21 -23 46 -41 55 -41 18 0 80 60 80 77 0 7 -10 19 -21 27 -19 13 -21 21 -16 60 4 25 9 57 13 71 6 25 6 25 -64 25 l-70 0 14 -61z"/>
 <path d="M1176 1950 c8 -27 21 -74 30 -102 31 -108 44 -164 44 -203 0 -22 4 -47 9 -54 8 -13 13 -11 28 7 20 25 207 92 343 123 154 35 202 78 229 207 13 64 14 72 2 72 -4 0 -13 -25 -19 -54 -15 -75 -56 -153 -90 -169 -15 -8 -45 -17 -67 -21 -56 -10 -245 -65 -275 -81 -14 -7 -36 -16 -50 -19 l-25 -7 25 21 c14 12 40 35 58 52 l34 30 -32 33 -32 33 23 7 c13 4 31 14 41 22 15 13 15 19 -4 76 -22 65 -33 85 -44 74 -4 -3 5 -38 19 -76 l26 -70 -37 -12 c-56 -18 -56 -19 -17 -59 l37 -38 -75 -56 c-41 -30 -77 -61 -80 -68 -6 -14 -6 -8 -10 92 -3 87 -65 290 -88 290 -14 0 -15 -5 -3 -50z"/>
 <path d="M1685 1973 c10 -44 50 -126 74 -153 24 -27 20 -15 -14 40 -12 19 -30 59 -39 88 -18 55 -33 72 -21 25z"/>
 </g>
<g id="layer118" fill="#471b0b" stroke="none">
 <path d="M130 1990 c0 -32 26 -122 46 -160 29 -53 75 -83 154 -99 30 -6 64 -13 75 -15 43 -9 288 -96 301 -107 15 -12 19 -1 6 16 -4 6 -27 25 -52 44 -44 32 -45 32 -10 2 41 -37 37 -38 -39 -7 -70 30 -256 86 -285 86 -11 0 -40 9 -64 20 l-44 20 22 32 22 33 -26 -30 -25 -29 -20 44 c-12 25 -26 71 -33 103 -7 31 -16 57 -20 57 -4 0 -8 -4 -8 -10z"/>
 <path d="M558 1929 c-22 -70 -22 -71 -3 -85 10 -8 24 -14 29 -14 6 0 2 6 -9 12 -11 6 -21 12 -22 13 -2 0 6 23 16 51 29 78 33 94 22 94 -5 0 -20 -32 -33 -71z"/>
 <path d="M780 1877 c-19 -67 -37 -153 -41 -192 -3 -38 -9 -78 -13 -87 -5 -11 -4 -18 2 -18 9 0 17 30 27 105 4 33 16 82 40 165 38 129 42 150 31 150 -6 0 -27 -55 -46 -123z"/>
 <path d="M936 1939 c8 -34 17 -65 19 -69 3 -5 -7 -17 -22 -28 l-28 -21 40 -40 c21 -23 46 -41 55 -41 18 0 80 60 80 77 0 7 -10 19 -21 27 -19 13 -21 21 -16 60 4 25 9 57 13 71 6 25 6 25 -64 25 l-70 0 14 -61z"/>
 <path d="M1169 1973 c5 -16 14 -48 21 -73 7 -25 21 -70 30 -100 10 -30 23 -91 29 -134 6 -44 13 -82 16 -84 2 -3 12 5 22 17 20 24 209 91 343 122 117 27 163 53 193 109 32 58 57 170 39 170 -4 0 -13 -26 -20 -57 -7 -32 -21 -78 -32 -102 -18 -39 -22 -42 -38 -30 -15 13 -16 12 -3 -3 12 -16 9 -20 -30 -38 -24 -11 -54 -20 -65 -20 -29 0 -215 -56 -285 -86 -76 -31 -80 -30 -39 7 35 30 34 30 -10 -2 -25 -19 -49 -39 -53 -46 -16 -25 -27 -2 -27 54 0 67 -69 323 -87 323 -8 0 -9 -8 -4 -27z"/>
 <path d="M1406 1978 c3 -13 15 -45 25 -72 10 -28 18 -51 16 -51 -1 -1 -11 -7 -22 -13 -11 -6 -15 -12 -9 -12 5 0 19 6 29 14 18 13 18 15 -5 85 -12 39 -27 71 -32 71 -5 0 -6 -10 -2 -22z"/>
 <path d="M1691 1960 c-1 -17 35 -100 43 -100 3 0 -3 19 -13 43 -10 23 -21 49 -24 57 -5 13 -5 13 -6 0z"/>
 <path d="M608 1821 c11 -6 6 -14 -17 -30 -38 -27 -39 -41 -3 -72 l27 -24 -22 25 -21 25 28 34 c29 33 31 51 7 51 -8 0 -8 -3 1 -9z"/>
 <path d="M1376 1822 c-3 -5 8 -24 24 -43 l28 -34 -21 -25 -22 -25 28 24 c35 31 34 45 -4 72 -23 16 -28 24 -17 30 9 6 9 9 1 9 -6 0 -14 -4 -17 -8z"/>
 </g>
<g id="layer119" fill="#391102" stroke="none">
 <path d="M137 1986 c-4 -10 -2 -26 3 -37 6 -11 8 -24 5 -29 -3 -5 0 -12 6 -15 5 -4 8 -13 5 -21 -3 -8 -1 -14 5 -14 6 0 7 -4 4 -10 -3 -5 -1 -10 5 -10 6 0 8 -4 5 -10 -3 -5 -1 -10 5 -10 6 0 9 -3 7 -7 -3 -5 1 -14 9 -21 19 -18 18 -8 -7 40 -11 22 -26 68 -33 101 -8 41 -15 55 -19 43z"/>
 <path d="M580 1976 c-15 -41 -10 -56 6 -17 8 18 13 36 10 39 -3 2 -10 -7 -16 -22z"/>
 <path d="M810 1958 c-6 -24 -23 -79 -36 -123 -22 -72 -45 -227 -31 -215 3 3 8 32 11 65 5 52 51 231 76 293 6 13 6 22 0 22 -5 0 -14 -19 -20 -42z"/>
 <path d="M936 1939 c8 -34 17 -65 19 -69 3 -5 -7 -17 -22 -28 l-28 -21 40 -40 c21 -23 46 -41 55 -41 18 0 80 60 80 77 0 7 -10 19 -21 27 -19 13 -21 21 -16 60 4 25 9 57 13 71 6 25 6 25 -64 25 l-70 0 14 -61z"/>
 <path d="M1170 1978 c22 -55 72 -240 80 -299 l9 -64 -4 70 c-2 39 -15 106 -29 150 -13 44 -30 99 -36 123 -6 23 -15 42 -20 42 -6 0 -6 -9 0 -22z"/>
 <path d="M1405 1980 c12 -41 27 -60 20 -25 -4 17 -11 35 -17 40 -7 7 -8 2 -3 -15z"/>
 <path d="M1850 1976 c0 -22 3 -27 11 -19 8 8 8 16 0 30 -9 16 -10 14 -11 -11z"/>
 <path d="M1840 1925 c0 -11 -11 -44 -25 -73 -29 -62 -30 -67 -11 -50 8 7 12 16 9 21 -2 4 1 7 7 7 6 0 8 5 5 10 -3 6 -1 10 5 10 6 0 8 5 5 10 -3 6 -1 10 5 10 6 0 8 5 5 10 -4 6 -2 16 4 23 6 8 6 18 1 27 -8 12 -10 11 -10 -5z"/>
 <path d="M246 1765 c6 -15 82 -41 92 -31 3 3 10 2 16 -4 7 -5 18 -5 26 0 9 6 -2 11 -36 15 -27 4 -61 14 -76 21 -24 12 -27 12 -22 -1z"/>
 <path d="M1730 1766 c-14 -7 -47 -17 -74 -21 -34 -4 -45 -9 -36 -15 8 -5 19 -5 26 0 6 6 13 7 16 4 10 -10 86 16 92 31 6 18 8 18 -24 1z"/>
 <path d="M1526 1711 c-11 -4 -15 -10 -10 -13 5 -2 20 1 34 8 26 14 8 18 -24 5z"/>
 <path d="M535 1681 c3 -5 41 -21 85 -36 48 -16 86 -35 95 -48 8 -11 17 -18 20 -16 3 3 -11 23 -31 45 -19 21 -33 33 -29 27 9 -19 -8 -16 -71 12 -60 27 -79 31 -69 16z"/>
 <path d="M1390 1664 c-63 -27 -74 -29 -65 -11 4 6 -10 -6 -29 -27 -20 -22 -34 -42 -31 -45 3 -2 12 5 20 16 9 13 47 32 95 48 44 15 82 31 85 36 9 14 -15 9 -75 -17z"/>
 </g>
<g id="layer120" fill="#0e0c0c" stroke="none">
 <path d="M930 1977 c0 -13 6 -45 14 -70 14 -46 14 -47 -13 -66 l-26 -20 40 -40 c21 -23 46 -41 55 -41 18 0 80 60 80 77 0 7 -10 19 -22 27 -21 15 -21 19 -11 78 6 35 8 66 6 71 -2 4 -31 7 -64 7 -55 0 -59 -1 -59 -23z"/>
 </g>

</svg>