<!DOCTYPE svg PUBLIC "-//W3C//DTD SVG 20010904//EN" "http://www.w3.org/TR/2001/REC-SVG-20010904/DTD/svg10.dtd">
<svg version="1.0" xmlns="http://www.w3.org/2000/svg" width="200px" height="200px" viewBox="0 0 2000 2000" preserveAspectRatio="xMidYMid meet">
<g id="layer101" fill="#f4f2f5" stroke="none">
 <path d="M120 1983 c0 -32 24 -123 33 -123 4 0 5 -4 2 -10 -3 -5 -1 -10 4 -10 6 0 10 -3 9 -7 -5 -16 29 -49 72 -70 25 -12 80 -29 123 -38 43 -9 115 -29 160 -45 193 -68 193 -68 222 -136 l16 -38 -38 -34 c-22 -19 -29 -29 -15 -22 17 8 22 8 22 -3 0 -10 22 -16 83 -21 45 -4 92 -9 105 -13 18 -4 24 -1 28 15 4 13 17 22 42 26 56 9 62 8 62 -15 0 -20 4 -21 48 -16 104 13 152 28 152 47 0 11 -6 25 -14 32 -12 11 -11 18 4 48 23 45 46 65 95 83 147 55 199 71 290 92 131 29 175 57 209 129 16 34 26 72 26 100 l0 46 -870 0 c-816 0 -870 -1 -870 -17z"/>
 </g>
<g id="layer102" fill="#e3dce1" stroke="none">
 <path d="M120 1983 c0 -32 24 -123 33 -123 4 0 5 -4 2 -10 -3 -5 -1 -10 4 -10 6 0 10 -3 9 -7 -5 -16 29 -49 72 -70 25 -12 80 -29 123 -38 69 -15 145 -38 287 -90 50 -18 75 -41 91 -82 7 -16 13 -23 16 -15 3 7 -2 23 -10 36 -11 16 -12 27 -5 34 5 5 11 34 13 63 1 30 5 61 8 69 15 40 41 127 42 140 7 51 18 51 47 1 15 -28 37 -57 48 -63 11 -7 20 -17 20 -23 0 -6 10 -15 22 -20 23 -10 37 -35 20 -35 -19 0 -154 -84 -167 -104 -7 -12 -17 -43 -21 -71 -6 -41 -14 -57 -48 -88 -24 -23 -31 -34 -18 -28 17 9 22 9 22 -2 0 -10 22 -16 83 -21 45 -4 92 -9 105 -13 18 -4 24 -1 28 15 4 13 17 22 42 26 56 9 62 8 62 -15 0 -20 4 -21 48 -16 103 13 152 28 152 47 0 10 -6 25 -12 32 -7 7 -15 31 -17 53 -6 77 -35 108 -143 159 -56 26 -57 28 -43 50 8 12 28 32 44 44 34 25 85 105 79 124 -2 6 -19 -14 -37 -46 l-33 -57 -25 23 c-21 20 -24 29 -18 68 3 25 8 53 11 63 5 15 -3 17 -66 17 l-71 0 6 -47 c3 -26 10 -52 15 -57 17 -17 11 -30 -17 -43 -15 -7 -27 -12 -28 -10 -62 99 -75 129 -63 144 8 11 -55 13 -351 13 -335 0 -361 -1 -361 -17z"/>
 <path d="M1161 1961 c5 -21 14 -51 20 -67 7 -16 11 -33 10 -38 -2 -10 27 -105 40 -129 5 -9 6 -28 3 -42 -3 -14 -2 -31 3 -38 10 -13 9 -47 -2 -87 -6 -23 -5 -22 12 5 32 50 26 46 202 110 41 15 120 37 176 50 131 29 175 57 209 129 16 34 26 72 26 100 l0 46 -354 0 -354 0 9 -39z"/>
 </g>
<g id="layer103" fill="#ddd9e4" stroke="none">
 <path d="M120 1983 c0 -32 24 -123 33 -123 4 0 5 -4 2 -10 -3 -5 -1 -10 4 -10 6 0 10 -3 9 -7 -5 -16 29 -49 72 -70 25 -12 80 -29 123 -38 69 -15 131 -34 287 -90 25 -9 50 -23 57 -32 6 -8 16 -12 22 -9 13 8 32 101 25 121 -4 8 -1 22 6 30 7 9 10 18 7 22 -4 3 -3 11 2 17 4 6 11 26 15 44 3 19 13 49 22 68 l17 35 34 -53 c19 -29 53 -68 74 -86 21 -19 39 -37 39 -41 0 -4 -35 -26 -79 -49 -43 -23 -83 -48 -89 -55 -5 -6 -15 -39 -22 -72 -10 -49 -20 -66 -54 -98 -23 -22 -31 -34 -18 -28 17 9 22 9 22 -2 0 -10 22 -16 83 -21 45 -4 92 -9 105 -13 18 -4 24 -1 28 15 4 13 17 22 42 26 56 9 62 8 62 -15 0 -20 4 -21 48 -16 104 13 152 28 152 47 0 11 -6 25 -14 32 -12 11 -11 18 4 48 23 45 46 65 95 83 147 55 199 71 290 92 131 29 175 57 209 129 16 34 26 72 26 100 l0 46 -351 0 -351 0 7 -42 c4 -24 12 -54 18 -68 5 -14 11 -29 12 -35 0 -5 4 -17 7 -25 12 -29 30 -105 33 -140 2 -19 8 -48 13 -65 7 -23 5 -37 -10 -60 -18 -30 -18 -30 -18 -5 -2 56 -32 93 -110 133 -41 21 -79 42 -83 46 -4 4 15 32 43 61 28 29 60 71 71 93 32 63 14 54 -21 -11 l-33 -58 -29 26 -29 27 14 61 14 62 -69 0 -68 0 3 -33 c2 -18 9 -42 15 -54 18 -33 15 -49 -13 -61 -14 -7 -28 -12 -30 -12 -10 0 -67 115 -67 136 l0 24 -354 0 c-328 0 -354 -1 -354 -17z"/>
 <path d="M737 1562 c3 -12 9 -25 14 -28 14 -8 11 10 -6 32 -13 18 -14 18 -8 -4z"/>
 </g>
<g id="layer104" fill="#d7ced4" stroke="none">
 <path d="M120 1983 c0 -32 24 -123 33 -123 4 0 5 -4 2 -10 -3 -5 -1 -10 4 -10 6 0 10 -3 9 -7 -5 -16 29 -49 72 -70 25 -12 80 -29 123 -38 69 -15 131 -34 287 -90 25 -9 50 -23 57 -32 6 -8 16 -12 22 -9 13 8 32 101 25 121 -4 8 -1 22 6 30 6 8 9 19 6 24 -4 5 -2 12 3 15 4 3 11 23 15 43 3 21 13 52 22 68 9 17 18 47 20 68 l4 37 -355 0 c-329 0 -355 -1 -355 -17z"/>
 <path d="M923 1967 c2 -18 9 -42 15 -54 18 -34 14 -47 -19 -66 l-31 -17 43 -39 c43 -38 43 -40 24 -55 -11 -8 -42 -27 -70 -42 -76 -41 -93 -60 -105 -123 -9 -46 -19 -63 -53 -94 -23 -21 -32 -33 -19 -27 17 8 22 8 22 -3 0 -10 22 -16 83 -21 45 -4 92 -9 105 -13 18 -4 24 -1 28 15 4 13 17 22 42 26 56 9 62 8 62 -15 0 -20 4 -21 48 -16 103 13 152 28 152 47 0 10 -7 25 -15 34 -8 8 -15 29 -15 46 0 64 -47 117 -141 158 -26 11 -49 24 -53 30 -4 6 10 27 29 47 l36 35 -31 29 -31 28 14 61 14 62 -69 0 -68 0 3 -33z"/>
 <path d="M1165 1958 c4 -24 12 -54 18 -68 5 -14 11 -29 12 -35 0 -5 4 -17 7 -25 12 -29 30 -105 33 -140 2 -19 8 -50 14 -67 6 -20 6 -35 0 -38 -5 -4 -9 -11 -9 -16 0 -6 11 3 25 19 14 16 44 36 67 45 24 8 76 27 117 42 41 15 120 37 176 50 131 29 175 57 209 129 16 34 26 72 26 100 l0 46 -351 0 -351 0 7 -42z"/>
 </g>
<g id="layer105" fill="#d7b9b5" stroke="none">
 <path d="M120 1983 c0 -32 24 -123 33 -123 4 0 5 -4 2 -10 -3 -5 -1 -10 4 -10 6 0 10 -3 9 -7 -5 -16 29 -49 72 -70 25 -12 80 -29 123 -38 69 -15 131 -34 287 -90 25 -9 51 -23 58 -32 20 -28 34 -1 42 85 5 44 13 88 18 98 6 11 20 55 32 99 12 44 24 88 27 98 4 16 -17 17 -351 17 -330 0 -356 -1 -356 -17z"/>
 <path d="M925 1968 c4 -18 12 -48 18 -66 10 -28 9 -35 -3 -43 -47 -28 -47 -26 -6 -68 47 -48 44 -54 -50 -102 -74 -37 -86 -52 -103 -124 -9 -38 -22 -59 -54 -88 -23 -21 -32 -33 -19 -27 17 8 22 8 22 -3 0 -10 22 -16 83 -21 45 -4 92 -9 105 -13 18 -4 24 -1 28 15 4 13 17 22 42 26 56 9 62 8 62 -15 0 -20 4 -21 48 -16 103 13 152 28 152 47 0 10 -7 25 -15 34 -8 8 -15 25 -15 39 0 65 -41 116 -127 155 -21 10 -49 23 -62 31 l-23 13 38 39 38 39 -27 28 c-26 27 -27 32 -18 73 19 79 19 79 -55 79 l-66 0 7 -32z"/>
 <path d="M1160 1989 c0 -15 20 -88 31 -114 17 -41 40 -132 49 -199 12 -83 17 -92 38 -72 10 8 35 21 57 29 147 55 199 71 290 92 131 29 175 57 209 129 16 34 26 72 26 100 l0 46 -350 0 c-254 0 -350 -3 -350 -11z"/>
 </g>
<g id="layer106" fill="#f5ae93" stroke="none">
 <path d="M120 1983 c0 -32 24 -123 33 -123 4 0 5 -4 2 -10 -3 -5 -1 -10 4 -10 6 0 10 -3 9 -7 -5 -16 29 -49 72 -70 25 -12 80 -29 123 -38 69 -15 131 -34 287 -90 25 -9 51 -23 58 -32 20 -27 34 -2 42 79 4 40 21 116 37 168 17 52 33 107 37 123 l6 27 -355 0 c-329 0 -355 -1 -355 -17z"/>
 <path d="M925 1968 c4 -18 12 -48 18 -66 10 -28 9 -35 -3 -43 -47 -28 -47 -26 -6 -68 22 -22 36 -46 33 -54 -3 -7 -37 -30 -76 -51 -81 -42 -96 -60 -111 -134 -7 -28 -15 -52 -19 -52 -4 0 -22 -14 -41 -30 -23 -20 -27 -27 -12 -20 17 8 22 8 22 -3 0 -10 22 -16 83 -21 45 -4 92 -9 105 -13 18 -4 24 -1 28 15 4 13 17 22 42 26 56 9 62 8 62 -15 0 -20 4 -21 48 -16 103 13 152 28 152 47 0 10 -7 26 -16 35 -9 8 -18 35 -21 58 -7 53 -39 88 -112 122 -31 15 -64 34 -74 43 -17 15 -16 18 20 54 l37 38 -27 28 c-26 27 -27 32 -18 73 19 79 19 79 -55 79 l-66 0 7 -32z"/>
 <path d="M1160 1990 c0 -6 16 -63 35 -126 20 -64 40 -148 45 -186 12 -85 17 -94 38 -74 10 8 35 21 57 29 147 55 199 71 290 92 131 29 175 57 209 129 16 34 26 72 26 100 l0 46 -350 0 c-229 0 -350 -3 -350 -10z"/>
 </g>
<g id="layer107" fill="#e9ac99" stroke="none">
 <path d="M120 1983 c0 -32 24 -123 33 -123 4 0 5 -4 2 -10 -3 -5 -1 -10 4 -10 6 0 10 -3 9 -7 -5 -16 29 -49 72 -70 25 -12 80 -29 123 -38 69 -15 131 -34 287 -90 25 -9 51 -23 58 -32 20 -27 34 -2 42 79 4 40 21 116 37 168 17 52 33 107 37 123 l6 27 -355 0 c-329 0 -355 -1 -355 -17z"/>
 <path d="M925 1968 c4 -18 12 -48 18 -66 10 -28 9 -35 -3 -43 -47 -28 -47 -26 0 -74 24 -25 49 -45 55 -45 6 0 28 18 50 40 l39 40 -27 28 c-26 27 -27 32 -18 73 19 79 19 79 -55 79 l-66 0 7 -32z"/>
 <path d="M1160 1990 c0 -6 16 -63 35 -126 20 -64 40 -148 45 -186 12 -85 17 -94 38 -74 10 8 35 21 57 29 147 55 199 71 290 92 131 29 175 57 209 129 16 34 26 72 26 100 l0 46 -350 0 c-229 0 -350 -3 -350 -10z"/>
 <path d="M856 1620 c-27 -11 -53 -17 -57 -14 -4 2 -13 -21 -19 -51 -6 -30 -15 -55 -19 -55 -4 0 -22 -14 -41 -30 -23 -20 -27 -27 -12 -20 17 8 22 8 22 -3 0 -10 22 -16 83 -21 45 -4 92 -9 105 -13 18 -4 24 -1 28 15 4 13 17 22 42 26 56 9 62 8 62 -15 0 -20 4 -21 48 -16 103 13 152 28 152 47 0 10 -7 26 -16 35 -9 9 -19 36 -22 61 -2 24 -9 47 -13 50 -5 3 -6 -2 -3 -10 4 -11 -8 -9 -53 10 -76 31 -213 33 -287 4z m225 -82 l52 -12 -84 -13 c-46 -7 -122 -14 -169 -17 -81 -4 -83 -3 -55 12 72 38 171 50 256 30z"/>
 </g>
<g id="layer108" fill="#e38e70" stroke="none">
 <path d="M120 1983 c0 -32 24 -123 33 -123 4 0 5 -4 2 -10 -3 -5 -1 -10 4 -10 6 0 10 -3 9 -7 -5 -16 29 -49 72 -70 25 -12 80 -29 123 -38 69 -15 131 -34 287 -90 25 -9 51 -23 58 -32 20 -27 34 -2 42 79 4 40 21 116 37 168 17 52 33 107 37 123 l6 27 -355 0 c-329 0 -355 -1 -355 -17z"/>
 <path d="M925 1968 c4 -18 12 -48 18 -66 10 -28 9 -35 -3 -43 -47 -28 -47 -26 0 -74 24 -25 49 -45 55 -45 6 0 28 18 50 40 l39 40 -27 28 c-26 27 -27 32 -18 73 19 79 19 79 -55 79 l-66 0 7 -32z"/>
 <path d="M1160 1990 c0 -6 16 -63 35 -126 20 -64 40 -148 45 -186 12 -85 17 -94 38 -74 10 8 35 21 57 29 147 55 199 71 290 92 131 29 175 57 209 129 16 34 26 72 26 100 l0 46 -350 0 c-229 0 -350 -3 -350 -10z"/>
 <path d="M850 1618 c-51 -21 -55 -26 -68 -70 -7 -27 -16 -48 -20 -48 -4 0 -23 -14 -42 -30 -23 -20 -27 -27 -12 -20 17 8 22 8 22 -3 0 -10 22 -16 83 -21 45 -4 92 -9 105 -13 18 -4 24 -1 28 15 4 13 17 22 42 26 56 9 62 8 62 -15 0 -20 4 -21 48 -16 103 13 152 28 152 47 0 10 -7 26 -16 35 -9 9 -20 31 -23 48 -5 26 -16 37 -56 57 -42 21 -67 25 -150 28 -85 2 -108 -1 -155 -20z m231 -80 l52 -12 -84 -13 c-46 -7 -122 -14 -169 -17 -81 -4 -83 -3 -55 12 72 38 171 50 256 30z"/>
 </g>
<g id="layer109" fill="#dd8565" stroke="none">
 <path d="M120 1983 c0 -32 24 -123 33 -123 4 0 5 -4 2 -10 -3 -5 -1 -10 4 -10 6 0 10 -3 9 -7 -5 -16 29 -49 72 -70 25 -12 80 -29 123 -38 69 -15 131 -34 287 -90 25 -9 51 -23 58 -32 20 -27 34 -2 42 79 4 40 21 116 37 168 17 52 33 107 37 123 l6 27 -355 0 c-329 0 -355 -1 -355 -17z"/>
 <path d="M925 1968 c4 -18 12 -48 18 -66 10 -28 9 -35 -3 -43 -47 -28 -47 -26 0 -74 24 -25 49 -45 55 -45 6 0 28 18 50 40 l39 40 -27 28 c-26 27 -27 32 -18 73 19 79 19 79 -55 79 l-66 0 7 -32z"/>
 <path d="M1160 1990 c0 -6 16 -63 35 -126 20 -64 40 -148 45 -186 12 -85 17 -94 38 -74 10 8 35 21 57 29 147 55 199 71 290 92 131 29 175 57 209 129 16 34 26 72 26 100 l0 46 -350 0 c-229 0 -350 -3 -350 -10z"/>
 <path d="M790 1565 c-5 -14 -10 -32 -10 -40 0 -7 -15 -23 -34 -34 -19 -12 -40 -29 -47 -38 -13 -15 -12 -15 9 -4 18 9 22 9 22 -2 0 -10 22 -16 83 -21 45 -4 92 -9 105 -13 18 -4 24 -1 28 15 4 13 17 22 42 26 56 9 62 8 62 -15 0 -20 4 -21 48 -16 105 13 152 28 152 48 0 11 -9 27 -20 36 -11 10 -20 29 -20 44 0 15 -7 29 -16 33 -21 8 -36 8 -31 -1 6 -10 -311 -9 -340 1 -19 6 -25 3 -33 -19z m335 -36 c29 -12 28 -13 -50 -21 -99 -10 -295 -24 -295 -21 0 5 68 37 105 50 49 16 197 11 240 -8z"/>
 </g>
<g id="layer110" fill="#d37451" stroke="none">
 <path d="M120 1983 c0 -32 24 -123 33 -123 4 0 5 -4 2 -10 -3 -5 -1 -10 4 -10 6 0 10 -3 9 -7 -5 -16 29 -49 72 -70 25 -12 80 -29 123 -38 69 -15 131 -34 287 -90 25 -9 51 -23 58 -32 20 -27 34 -2 42 79 4 40 21 116 37 168 17 52 33 107 37 123 l6 27 -355 0 c-329 0 -355 -1 -355 -17z"/>
 <path d="M925 1968 c4 -18 12 -48 18 -66 10 -28 9 -35 -3 -43 -47 -28 -47 -26 0 -74 24 -25 49 -45 55 -45 6 0 28 18 50 40 l39 40 -27 28 c-26 27 -27 32 -18 73 19 79 19 79 -55 79 l-66 0 7 -32z"/>
 <path d="M1160 1990 c0 -6 16 -63 35 -126 20 -64 40 -148 45 -186 12 -85 17 -94 38 -74 10 8 35 21 57 29 147 55 199 71 290 92 131 29 175 57 209 129 16 34 26 72 26 100 l0 46 -350 0 c-229 0 -350 -3 -350 -10z"/>
 <path d="M875 1552 c-27 -11 -58 -22 -67 -27 -12 -5 -18 -3 -18 6 0 8 -6 3 -13 -11 -7 -14 -24 -31 -39 -37 -14 -7 -32 -20 -39 -30 -13 -15 -12 -15 9 -4 18 9 22 9 22 -2 0 -10 22 -16 83 -21 45 -4 92 -9 105 -13 18 -4 24 -1 28 15 4 13 17 22 42 26 56 9 62 8 62 -14 0 -15 7 -20 24 -20 27 0 167 28 174 35 10 9 -9 55 -23 55 -10 0 -15 11 -16 33 l-1 32 -9 -27 -10 -26 -47 21 c-67 30 -199 34 -267 9z m199 -7 c39 -8 74 -19 78 -23 9 -9 -84 -20 -264 -31 -58 -3 -104 -3 -101 2 13 21 141 64 198 66 11 0 51 -6 89 -14z"/>
 </g>
<g id="layer111" fill="#645856" stroke="none">
 <path d="M120 1983 c0 -32 24 -123 33 -123 4 0 5 -4 2 -10 -3 -5 -1 -10 4 -10 6 0 10 -3 9 -7 -5 -16 29 -49 72 -70 25 -12 80 -29 123 -38 69 -15 131 -34 287 -90 25 -9 51 -23 58 -32 20 -27 34 -2 42 79 4 40 21 116 37 168 17 52 33 107 37 123 l6 27 -355 0 c-329 0 -355 -1 -355 -17z"/>
 <path d="M925 1968 c4 -18 12 -48 18 -66 10 -28 9 -35 -3 -43 -47 -28 -47 -26 0 -74 24 -25 49 -45 55 -45 6 0 28 18 50 40 l39 40 -27 28 c-26 27 -27 32 -18 73 19 79 19 79 -55 79 l-66 0 7 -32z"/>
 <path d="M1160 1990 c0 -6 16 -63 35 -126 20 -64 40 -148 45 -186 12 -85 17 -94 38 -74 10 8 35 21 57 29 147 55 199 71 290 92 131 29 175 57 209 129 16 34 26 72 26 100 l0 46 -350 0 c-229 0 -350 -3 -350 -10z"/>
 <path d="M1015 1500 c-22 -5 -89 -9 -149 -10 -115 -2 -146 -11 -139 -40 4 -14 21 -19 86 -24 45 -4 92 -9 105 -13 18 -4 24 -1 28 15 4 13 17 22 42 26 56 9 62 8 62 -14 0 -15 7 -20 24 -20 27 0 167 28 174 35 2 2 2 14 -1 27 -6 22 -11 23 -99 24 -51 1 -111 -2 -133 -6z"/>
 </g>
<g id="layer112" fill="#c52703" stroke="none">
 <path d="M120 1983 c0 -32 24 -123 33 -123 4 0 5 -4 2 -10 -3 -5 -1 -10 4 -10 6 0 10 -3 9 -7 -5 -14 27 -48 62 -67 19 -10 80 -29 135 -41 55 -13 138 -37 185 -55 47 -17 100 -36 118 -41 18 -6 36 -17 39 -25 14 -37 32 -1 39 78 2 26 17 89 33 140 16 51 31 104 34 118 2 14 8 33 12 43 7 16 -14 17 -349 17 -330 0 -356 -1 -356 -17z"/>
 <path d="M937 1933 c15 -66 15 -67 -6 -84 -26 -21 -20 -37 28 -83 l30 -29 40 33 c47 37 52 63 16 86 -16 10 -24 23 -20 33 2 9 9 37 14 64 l8 47 -62 0 -63 0 15 -67z"/>
 <path d="M1165 1980 c1 -11 4 -23 8 -26 4 -4 7 -15 7 -24 0 -10 12 -53 26 -96 14 -44 30 -112 35 -152 10 -87 15 -98 37 -78 10 8 35 21 57 29 147 55 199 71 290 92 131 29 175 57 209 129 16 34 26 72 26 100 l0 46 -348 0 c-341 0 -349 0 -347 -20z"/>
 <path d="M1015 1500 c-22 -5 -89 -9 -149 -10 -115 -2 -146 -11 -139 -40 4 -14 21 -19 86 -24 45 -4 92 -9 105 -13 18 -4 24 -1 28 15 4 13 17 22 42 26 56 9 62 8 62 -14 0 -15 7 -20 24 -20 27 0 167 28 174 35 2 2 2 14 -1 27 -6 22 -11 23 -99 24 -51 1 -111 -2 -133 -6z"/>
 </g>
<g id="layer113" fill="#764432" stroke="none">
 <path d="M120 1983 c0 -32 24 -123 33 -123 4 0 5 -4 2 -10 -3 -5 -1 -10 4 -10 6 0 10 -3 9 -7 -5 -14 27 -48 62 -67 19 -10 80 -29 135 -41 55 -13 138 -37 185 -55 47 -17 100 -36 118 -41 18 -6 36 -17 39 -25 14 -37 32 -1 39 78 2 26 17 89 33 140 16 51 31 104 34 118 2 14 8 33 12 43 7 16 -14 17 -349 17 -330 0 -356 -1 -356 -17z"/>
 <path d="M937 1933 c15 -66 15 -67 -6 -84 -26 -21 -20 -37 28 -83 l30 -29 40 33 c47 37 52 63 16 86 -16 10 -24 23 -20 33 2 9 9 37 14 64 l8 47 -62 0 -63 0 15 -67z"/>
 <path d="M1165 1980 c1 -11 4 -23 8 -26 4 -4 7 -15 7 -24 0 -10 12 -53 26 -96 14 -44 30 -112 35 -152 10 -87 15 -98 37 -78 10 8 35 21 57 29 147 55 199 71 290 92 131 29 175 57 209 129 16 34 26 72 26 100 l0 46 -348 0 c-341 0 -349 0 -347 -20z"/>
 </g>
<g id="layer114" fill="#5f423f" stroke="none">
 <path d="M120 1983 c0 -32 24 -123 33 -123 4 0 5 -4 2 -10 -3 -5 -1 -10 4 -10 6 0 10 -3 9 -7 -5 -14 27 -48 62 -67 19 -10 80 -29 135 -41 55 -13 138 -37 185 -55 47 -17 100 -36 118 -41 18 -6 36 -17 39 -25 14 -37 32 -1 39 78 2 26 17 89 33 140 16 51 31 104 34 118 2 14 8 33 12 43 7 16 -13 17 -329 17 -233 0 -336 -3 -336 -11 0 -6 11 -44 25 -86 14 -42 24 -77 22 -80 -7 -7 -46 93 -53 136 -6 40 -34 60 -34 24z m124 -166 c-3 -10 15 -20 58 -35 60 -20 61 -21 18 -15 -25 3 -58 12 -73 20 -23 12 -26 17 -16 29 14 18 20 18 13 1z"/>
 <path d="M937 1933 c15 -65 15 -67 -6 -84 -11 -9 -21 -20 -21 -23 0 -13 64 -76 78 -76 24 0 82 49 82 70 0 11 -11 27 -25 36 -16 10 -24 23 -20 33 2 9 9 37 14 64 l8 47 -62 0 -63 0 15 -67z"/>
 <path d="M1165 1980 c1 -11 4 -23 8 -26 4 -4 7 -15 7 -24 0 -10 12 -53 26 -96 14 -44 30 -112 35 -152 10 -87 15 -98 37 -78 10 8 35 21 57 29 147 55 199 71 290 92 131 29 175 57 209 129 16 34 26 72 26 100 0 55 -15 61 -25 9 -9 -52 -45 -143 -55 -143 -5 0 -1 19 9 43 10 23 21 56 25 72 4 17 9 38 12 48 5 16 -15 17 -329 17 -326 0 -334 0 -332 -20z m595 -165 c10 -13 7 -17 -21 -29 -19 -7 -52 -16 -74 -20 -35 -5 -33 -3 20 17 33 13 59 28 58 35 -4 16 2 15 17 -3z"/>
 </g>
<g id="layer115" fill="#59362e" stroke="none">
 <path d="M120 1983 c0 -32 24 -123 33 -123 4 0 5 -4 2 -10 -3 -5 -1 -10 4 -10 6 0 10 -3 9 -7 -5 -14 27 -48 62 -67 19 -10 80 -29 135 -41 55 -13 138 -37 185 -55 47 -17 100 -36 118 -41 18 -6 36 -17 39 -25 15 -39 33 0 38 84 2 29 7 65 13 80 5 15 20 63 32 107 12 44 26 88 31 97 5 10 9 20 9 23 0 3 -151 5 -335 5 -232 0 -335 -3 -335 -11 0 -6 11 -44 25 -86 14 -42 24 -77 22 -80 -7 -7 -46 93 -53 136 -6 40 -34 60 -34 24z m124 -166 c-3 -10 15 -20 58 -35 60 -20 61 -21 18 -15 -25 3 -58 12 -73 20 -23 12 -26 17 -16 29 14 18 20 18 13 1z"/>
 <path d="M937 1933 c15 -65 15 -67 -6 -84 -11 -9 -21 -20 -21 -23 0 -13 64 -76 78 -76 24 0 82 49 82 70 0 11 -11 27 -25 36 -16 10 -24 23 -20 33 2 9 9 37 14 64 l8 47 -62 0 -63 0 15 -67z"/>
 <path d="M1167 1980 c-3 -11 -1 -22 3 -25 5 -3 11 -20 15 -38 8 -37 23 -91 37 -126 5 -14 13 -60 18 -103 11 -93 16 -105 38 -84 10 8 35 21 57 29 147 55 199 71 290 92 131 29 175 57 209 129 16 34 26 72 26 100 0 55 -15 61 -25 9 -9 -52 -45 -143 -55 -143 -5 0 -1 19 9 43 10 23 21 56 25 72 4 17 9 38 12 48 5 16 -15 17 -324 17 -321 0 -330 -1 -335 -20z m593 -165 c10 -13 7 -17 -21 -29 -19 -7 -52 -16 -74 -20 -35 -5 -33 -3 20 17 33 13 59 28 58 35 -4 16 2 15 17 -3z"/>
 </g>
<g id="layer116" fill="#64311f" stroke="none">
 <path d="M120 1983 c0 -32 24 -123 33 -123 4 0 5 -4 2 -10 -3 -5 -1 -10 4 -10 6 0 10 -3 9 -7 -5 -14 27 -48 62 -67 19 -10 80 -29 135 -41 55 -13 138 -37 185 -55 47 -17 100 -36 118 -41 18 -6 36 -17 39 -25 7 -20 23 -17 23 4 0 10 3 21 6 25 3 3 7 29 10 59 3 49 54 241 75 280 5 10 9 20 9 23 0 3 -151 5 -335 5 -232 0 -335 -3 -335 -11 0 -6 11 -44 25 -86 14 -42 24 -77 22 -80 -7 -7 -46 93 -53 136 -6 40 -34 60 -34 24z m124 -166 c-3 -10 15 -20 58 -35 60 -20 61 -21 18 -15 -25 3 -58 12 -73 20 -23 12 -26 17 -16 29 14 18 20 18 13 1z"/>
 <path d="M937 1933 c15 -65 15 -67 -6 -84 -11 -9 -21 -20 -21 -23 0 -13 64 -76 78 -76 24 0 82 49 82 70 0 11 -11 27 -25 36 -16 10 -24 23 -20 33 2 9 9 37 14 64 l8 47 -62 0 -63 0 15 -67z"/>
 <path d="M1170 1987 c0 -8 15 -65 33 -128 19 -63 37 -145 41 -183 8 -83 13 -92 34 -72 10 8 35 21 57 29 147 55 199 71 290 92 131 29 175 57 209 129 16 34 26 72 26 100 0 55 -15 61 -25 9 -9 -52 -45 -143 -55 -143 -5 0 -1 19 9 43 10 23 21 56 25 72 4 17 9 38 12 48 5 16 -15 17 -325 17 -270 0 -331 -2 -331 -13z m590 -172 c10 -13 7 -17 -21 -29 -19 -7 -52 -16 -74 -20 -35 -5 -33 -3 20 17 33 13 59 28 58 35 -4 16 2 15 17 -3z"/>
 </g>
<g id="layer117" fill="#582818" stroke="none">
 <path d="M120 1983 c0 -32 24 -123 33 -123 4 0 5 -4 2 -10 -3 -5 -1 -10 4 -10 6 0 10 -3 9 -7 -5 -14 27 -48 62 -67 19 -10 80 -29 135 -41 55 -13 138 -37 185 -55 47 -17 100 -36 118 -41 18 -6 36 -17 39 -25 7 -20 23 -17 23 4 0 10 3 21 6 25 3 3 7 29 10 59 3 49 54 241 75 280 12 24 11 28 -5 28 -27 0 -95 -233 -96 -329 l0 -45 -27 26 c-16 13 -49 40 -75 58 -27 18 -48 38 -48 44 0 6 14 23 31 37 33 27 33 49 0 49 -9 0 -25 6 -34 13 -16 11 -16 16 4 75 20 59 20 88 0 66 -16 -17 -42 -114 -36 -133 3 -11 19 -22 35 -26 17 -4 30 -9 30 -11 0 -2 -14 -17 -32 -33 l-32 -28 25 -24 c13 -13 42 -38 64 -56 l40 -32 -60 24 c-53 21 -153 51 -333 102 -41 11 -58 22 -73 46 -18 31 -41 94 -53 150 -7 30 -26 37 -26 10z"/>
 <path d="M296 1985 c-4 -11 -24 -55 -46 -97 -21 -43 -36 -78 -32 -78 22 0 98 159 89 184 -3 6 -8 2 -11 -9z"/>
 <path d="M937 1933 c15 -65 15 -67 -6 -84 -11 -9 -21 -20 -21 -23 0 -13 64 -76 78 -76 24 0 82 49 82 70 0 11 -11 27 -25 36 -16 10 -24 23 -20 33 2 9 9 37 14 64 l8 47 -62 0 -63 0 15 -67z"/>
 <path d="M1170 1987 c0 -7 15 -65 33 -128 19 -63 37 -145 41 -183 8 -83 13 -92 34 -72 10 8 35 21 57 29 147 55 199 71 290 92 131 29 175 57 209 129 16 34 26 72 26 100 0 58 -15 60 -23 3 -6 -42 -47 -147 -57 -147 -3 0 -27 44 -53 98 -27 57 -47 88 -47 74 0 -25 41 -113 71 -151 11 -13 19 -27 19 -32 0 -5 -24 -15 -52 -23 -193 -52 -286 -80 -333 -101 -30 -13 -55 -21 -55 -17 1 4 23 23 50 42 64 45 71 65 34 95 -16 13 -27 25 -24 27 3 1 19 10 35 19 23 12 30 21 28 43 -3 42 -34 116 -49 116 -10 0 -6 -18 12 -67 24 -64 24 -68 8 -80 -10 -7 -26 -13 -35 -13 -33 0 -33 -23 -1 -51 18 -16 32 -32 32 -36 0 -5 -22 -23 -48 -42 -26 -19 -62 -48 -79 -65 l-33 -30 0 85 c0 70 -6 104 -34 189 -19 58 -39 106 -45 108 -6 2 -11 -3 -11 -11z"/>
 </g>
<g id="layer118" fill="#481b0b" stroke="none">
 <path d="M120 1983 c0 -32 24 -123 33 -123 4 0 5 -4 2 -10 -3 -5 -1 -10 4 -10 6 0 10 -3 9 -7 -5 -14 27 -48 62 -67 19 -10 80 -29 135 -41 55 -13 138 -37 185 -55 47 -17 100 -36 118 -41 18 -6 36 -17 39 -25 7 -20 23 -17 23 4 0 10 3 21 6 25 3 3 7 27 8 54 3 47 57 249 77 285 12 23 11 28 -3 28 -18 0 -81 -221 -86 -300 -2 -36 -8 -69 -13 -75 -6 -5 -9 -5 -9 1 0 6 -15 21 -32 34 -24 17 -29 19 -18 5 18 -22 19 -23 -123 29 -55 20 -136 45 -182 55 -46 10 -99 27 -117 38 -38 22 -82 104 -93 171 -6 41 -25 60 -25 25z"/>
 <path d="M551 1935 c-13 -36 -21 -69 -18 -72 6 -6 15 12 43 91 16 45 16 46 6 46 -5 0 -19 -29 -31 -65z"/>
 <path d="M937 1933 c15 -65 15 -67 -6 -84 -11 -9 -21 -20 -21 -23 0 -13 64 -76 78 -76 24 0 82 49 82 70 0 11 -11 27 -25 36 -16 10 -24 23 -20 33 2 9 9 37 14 64 l8 47 -62 0 -63 0 15 -67z"/>
 <path d="M1170 1989 c0 -9 16 -69 35 -135 19 -65 35 -129 35 -141 0 -12 5 -45 11 -73 10 -47 12 -50 27 -36 10 8 35 21 57 29 147 55 199 71 290 92 58 13 119 34 143 48 51 33 92 114 92 184 -1 54 -13 43 -25 -21 -18 -105 -75 -165 -171 -179 -54 -9 -251 -70 -291 -90 -42 -22 -60 -22 -42 0 13 15 12 15 -9 4 -12 -6 -28 -21 -35 -31 -6 -11 -15 -20 -18 -20 -3 0 -9 32 -12 71 -8 100 -87 368 -87 298z"/>
 <path d="M1405 1978 c16 -54 38 -108 45 -108 5 0 -1 29 -13 65 -12 36 -25 65 -30 65 -4 0 -5 -10 -2 -22z"/>
 <path d="M580 1795 c-19 -19 -32 -36 -29 -39 3 -3 23 12 44 34 47 49 34 53 -15 5z"/>
 <path d="M1395 1790 c21 -22 41 -37 44 -34 6 6 -63 74 -75 74 -5 0 9 -18 31 -40z"/>
 </g>
<g id="layer119" fill="#350b03" stroke="none">
 <path d="M120 1975 c0 -14 7 -42 15 -61 8 -20 12 -40 9 -45 -3 -5 0 -9 6 -9 6 0 8 -4 5 -10 -3 -5 -1 -10 4 -10 6 0 10 -3 9 -7 -10 -30 82 -87 157 -98 45 -7 204 -56 325 -100 25 -9 51 -23 58 -32 13 -19 17 -6 3 15 -13 20 -302 120 -398 138 -73 13 -109 39 -137 99 -13 30 -28 75 -31 100 -8 48 -25 62 -25 20z"/>
 <path d="M806 1983 c-54 -183 -76 -273 -76 -311 0 -25 3 -42 7 -38 4 4 6 23 4 42 -2 32 58 265 80 307 6 10 6 17 0 17 -5 0 -12 -8 -15 -17z"/>
 <path d="M937 1933 c15 -65 15 -67 -6 -84 -11 -9 -21 -20 -21 -23 0 -13 64 -76 78 -76 24 0 82 49 82 70 0 11 -11 27 -25 36 -16 10 -24 23 -20 33 2 9 9 37 14 64 l8 47 -62 0 -63 0 15 -67z"/>
 <path d="M1170 1990 c0 -7 15 -65 34 -129 19 -64 37 -129 39 -146 l4 -30 2 30 c0 17 -15 87 -35 155 -35 122 -44 147 -44 120z"/>
 <path d="M1843 1950 c-18 -86 -50 -148 -85 -166 -17 -9 -74 -26 -127 -39 -148 -37 -328 -101 -355 -127 -22 -22 -21 -35 2 -15 9 8 35 22 57 30 147 55 199 71 290 92 131 29 175 56 210 130 19 41 25 68 23 103 l-3 47 -12 -55z"/>
 <path d="M1252 1650 c0 -19 2 -27 5 -17 2 9 2 25 0 35 -3 9 -5 1 -5 -18z"/>
 </g>
<g id="layer120" fill="#0b0a0a" stroke="none">
 <path d="M930 1979 c0 -11 5 -41 12 -66 10 -43 10 -48 -10 -64 -12 -9 -22 -20 -22 -23 0 -13 64 -76 78 -76 24 0 82 49 82 70 0 10 -11 27 -25 37 -23 16 -24 21 -15 53 5 19 10 47 10 62 0 27 -2 28 -55 28 -49 0 -55 -2 -55 -21z"/>
 </g>

</svg>