<?xml version="1.0" encoding="UTF-8" standalone="no"?>
<svg xmlns:rdf="http://www.w3.org/1999/02/22-rdf-syntax-ns#" xmlns="http://www.w3.org/2000/svg" height="200" viewBox="0 0 200 200" width="200" version="1.1" xmlns:cc="http://creativecommons.org/ns#" xmlns:dc="http://purl.org/dc/elements/1.1/">
 <path d="m17.7 197c2.12-12.2 9-21.9 17.6-25 3.47-1.23 4.78-2.19 4.47-3.26-1.28-4.39-4.61-30.5-5.61-44-1.6-22 .6-53.8 4.5-67.1 5.9-19.9 18.9-36.5 34.8-44.4 8.6-4.21 19.6-5.73 26.1-3.57 3.05 1.01 4.83.923 10.4-.480 15.5-3.9 29 1.8 38.5 16.3 7.93 12.1 13.7 29.7 16.8 51.2 1.87 13 1.6 47.2-.490 60.6-1.51 9.72-5.23 25.6-7.12 30.5-.485 1.24.402 1.89 3.92 2.88 11.8 3.32 17.3 10.3 21 27.3l.606 2.75h-167zm71-105c.777-3.89-.620-6.43-4.66-8.48l-3.22-1.64 2.5 2.85c1.38 1.57 1.69 2.23.708 1.47-2.64-2.03-4.81.268-2.46 2.61 1.37 1.37 1.93 1.43 3.21.370 1.33-1.11 1.55-.920 1.55 1.34 0 1.44-.872 3.49-1.94 4.56-1.3 1.3-1.55 2.08-.75 2.37 1.83.667 4.39-2.08 5.06-5.44zm-15.9 3c-2.32-3.32-1.93-7.49.975-10.4 2.5-2.5 2.51-2.52.25-1.87-3.57 1.03-6.97 5.32-6.21 7.84 1.06 3.57 3.38 6.65 5.01 6.65 1.37 0 1.37-.235-.0230-2.22zm43.5.0339c-2.85-3.06-2.58-6.99.711-10.3l2.75-2.78-3.22 1.65c-3.99 2.04-5.66 5-4.78 8.47.890 3.55 2.35 5.16 4.67 5.16 1.85 0 1.85-.0744-.122-2.19zm14.3-.0614c2.73-4.33 2.82-6.42.413-9.07-1.26-1.38-3.41-2.84-4.79-3.23l-2.5-.714 2.5 2.08c2.43 2.03 2.44 2.07.25 1.52-1.79-.449-2.25-.142-2.25 1.49 0 2.9 2.05 3.82 3.65 1.64 1.24-1.7 1.35-1.61 1.35 1.12 0 1.63-.701 3.97-1.56 5.19-1.39 1.99-1.39 2.22-.0231 2.22.844 0 2.17-1.01 2.95-2.25z" fill="#936247"/>
 <path d="m17.9 198c3.04-13.8 6.93-20.1 15.1-24.3 2.81-1.47 5.63-2.84 6.26-3.05.841-.280.620-3.62-.818-12.4-3.6-21-4.5-34-3.9-57 .5-24.2 2.1-36.7 6.1-48.3 9.7-27.8 35.4-47.1 57-42.8 4.97.987 7.28 1 10.7.0627 6.51-1.77 15.7-1.55 21.9.521 12 4 23.4 19.7 29.4 40.8 9.5 33 9.29 78.8-.516 112-2 6.7-1.84 8.15.906 8.16 3.48.0201 11.9 4.87 15 8.61 3.18 3.85 7.15 14.4 7.15 19v2.39h-165zm88-66.9c1.88-.892 3.63-1.97 3.89-2.39.262-.423-4.02-.770-9.51-.770-10.3 0-11.6.750-5.63 3.34 4.18 1.82 7.13 1.77 11.2-.181zm1.26-4.39c2.06-.012 2.3-.223 1.12-.985-1.77-1.15-13-1.33-15.7-.253-1.4.571-.888.899 2.17 1.39 2.2.355 5.29.469 6.88.253 1.58-.216 4.06-.399 5.5-.408zm-32.8-31.9c-3.46-3.46-3.67-5.86-.850-9.44 2.16-2.75 6.09-3.47 8.93-1.63 1.27.821 1.22.972-.320.985-1.31.0110-1.73.643-1.5 2.27.228 1.6.967 2.23 2.57 2.17 3.28-.116 2.97 3.87-.5 6.46l-2.75 2.05 3.22.0317c2.58.0253 3.53-.562 4.75-2.92 1.82-3.51 1.9-5.14.415-8.39-1.45-3.19-4.86-4.66-10.8-4.66-5.32 0-10.1 2.8-10.1 5.92 0 5.66 3.41 9.83 8.17 10 1.26.0476.945-.664-1.25-2.86zm43.8.808c-3.24-2.42-3.8-8.07-1.1-11.1 1.78-1.96 7.8-2.53 8.85-.829.340.55-.0835 1-.941 1-.857 0-1.56.620-1.56 1.38 0 1.98 2.71 3.95 4.49 3.27 2.58-.989 1.72 2.3-1.41 5.43-2.93 2.93-2.56 3.43 1.71 2.28 2.19-.587 5.21-5.82 5.21-9.03 0-.783-1.1-2.53-2.45-3.88-1.95-1.95-3.48-2.45-7.45-2.45-6.11 0-9.52 1.44-11 4.66-1.48 3.25-1.4 4.88.415 8.39 1.22 2.36 2.17 2.94 4.75 2.92l3.22-.0317zm-42.7-2.9c0-.518-.45-1.22-1-1.56s-1 .0835-1 .941c0 .857.45 1.56 1 1.56s1-.423 1-.941zm43-.0590c0-.55-.45-1-1-1s-1 .45-1 1 .45 1 1 1 1-.45 1-1z" fill="#5b4339"/>
 <path d="m18 198c.246-1.51 1.37-5.64 2.5-9.16 2.47-7.74 8.11-13.9 15.2-16.6 4.62-1.76 4.74-1.92 4.13-5.17-6.4-34-7.3-78.1-2-103 7.1-33.9 35.4-59.3 60-54 3.3.719 6.68 1.24 7.5 1.15 1.09-.112 1.14.0028.177.425-.995.435-.748 1.23.996 3.22 1.93 2.2 1.76 2.14-.995-.358-3.23-2.92-3.59-3-13.5-3-9.55 0-10.6.208-16.8 3.34-21.1 10.6-32.6 32-35.8 66.7-1.7 18.2-1.09 24.9 1.03 11.4 1.97-12.6 7.95-27.1 16.1-39.1 4.15-6.12 5.79-7.54 3.47-3-2.9 5.67-9.57 28.1-11.5 38.8-2.37 13-3.65 26.2-1.99 20.5 5.11-17.6 7.71-24.9 11.9-33.5 12.9-26.8 30.3-45.4 42.6-45.5 3.59-.0253 7.79 2.93 9.86 6.94 1.39 2.68 1.59 2.74 5.56 1.68 6.62-1.77 10.4 1.02 15.7 11.5 8.27 16.5 13.5 42.9 13.5 68.7.0189 8.95.180 16.1.358 15.9.178-.178 1.28-6.15 2.44-13.3 1.75-10.7 2.04-15.8 1.67-29.4-.474-17.5-2.32-28.2-7.14-41.5-3.13-8.63-1.92-7.31 3.87 4.21 5.6 11.1 9.2 24.7 10.1 38.3 1.35 19.6 3.39 10.6 3.38-15-.006-20-2.11-30.9-8.39-43.5-7.12-14.3-15.3-22.4-25.5-25.1-3.03-.817-3.71-1.25-2.05-1.28 3.95-.0912 13.1 4.65 17.8 9.23 11.3 11 19 31.1 22.7 59.7 1.27 9.64 1.53 17.4 1.14 34-.527 22.5-2.37 36.2-6.77 50.5-1.15 3.73-1.72 7.1-1.27 7.49.455.390 2.67 1.23 4.92 1.87 6.95 1.97 12.2 6.6 15.5 13.5 1.6 3.41 3.14 8.45 3.43 11.2.379 3.56.260 4.41-.418 2.98-.819-1.73-.958-1.76-1.02-.25-.0663 1.65-4.57 1.75-80 1.75-75.3 0-80-.102-80.4-1.75-.436-1.67-.463-1.67-.573 0-.0638.962-.504 1.75-.977 1.75-.474 0-.660-1.24-.414-2.75zm10.4-15.7c2.25-2.56 5.95-5.6 8.22-6.76s3.6-2.3 2.95-2.52c-1.65-.563-9.39 3.53-12 6.36-2.6 2.78-6.23 10.6-6.9 14.9-.318 2.02.204 1.32 1.6-2.14 1.14-2.83 3.91-7.24 6.16-9.79zm150 7.24c-1.25-3.44-3.21-7.51-4.35-9.05-2.26-3.06-12.7-8.75-16.1-8.75-1.2.00045.483 1.22 3.95 2.86 7.22 3.42 13.7 10.4 16.2 17.2.936 2.64 1.89 4.6 2.13 4.37.234-.234-.599-3.24-1.85-6.67zm-51.2-7.33c-.308-.308-.867.247-1.24 1.23-.543 1.43-.428 1.54.560.560.683-.678.991-1.49.683-1.79zm-54.9-3.63c-2.43-4.77-6.99-11.1-7.57-10.5-.202.202 1.66 3.46 4.14 7.23s4.51 7.3 4.51 7.83.256.707.570.394c.313-.313-.427-2.53-1.64-4.92zm-1.7-17c.821-1.53.246-1.33-2.54.892-1.98 1.58-3.6 3.22-3.6 3.65-.000049 1.29 5-2.41 6.14-4.54zm35.5-29.4c1.88-.892 3.63-1.97 3.89-2.39.262-.423-4.02-.770-9.51-.770-10.3 0-11.6.750-5.63 3.34 4.18 1.82 7.13 1.77 11.2-.181zm1.26-4.39c2.06-.012 2.3-.223 1.12-.985-1.77-1.15-13-1.33-15.7-.253-1.4.571-.888.899 2.17 1.39 2.2.355 5.29.469 6.88.253 1.58-.216 4.06-.399 5.5-.408zm-19.8-31.4c2.1-2.53 2.47-8.34.704-11-2.2-3.36-8.8-5.12-13.7-3.66-5.35 1.6-7.34 4.23-6.52 8.62 1.11 5.93 3.49 7.48 11.4 7.48 4.7 0 7.25-.447 8.05-1.41zm-13.1-1.64-2.36-2.05 3.2 1.55c4.15 2.01 5.62 1.95 7.65-.282 2.12-2.34 1.01-3.53-1.59-1.71-2.25 1.58-4.75 1.01-4.75-1.07 0-.766-.675-1.39-1.5-1.39s-1.5.54-1.5 1.2c0 .829-.321.879-1.04.163-2.53-2.53 2.26-8.36 6.87-8.36 1.58 0 1.93.637 1.82 3.25-.121 2.66.259 3.31 2.1 3.57 2.89.410 2.86 2.26-.0644 5.01-2.9 2.72-5.78 2.76-8.82.125zm56.1 1.11c2.93-2.93 3.71-8.67 1.51-11.1-2.8-3.1-8.29-4.34-13.2-3.01-5.33 1.43-7.68 4.74-6.88 9.66.913 5.63 2.09 6.39 9.8 6.39 5.48 0 7.27-.396 8.82-1.94zm-12.5-.637c-1.91-1.56-1.91-1.57.0589-.871 4.18 1.49 6.06 1.52 7.9.163 2.86-2.12 1.1-4.09-1.9-2.12-2.23 1.46-2.48 1.43-3.69-.511-1.58-2.54-3.51-2.69-4.13-.328-.252.962-.510.305-.573-1.46-.137-3.79 3.05-7.29 6.64-7.29 1.86 0 2.25.403 1.79 1.86-.852 2.69.371 5.14 2.56 5.14 2.65 0 2.44 3.5-.330 5.44-2.84 1.99-5.87 1.98-8.34-.0249zm-8.77-75.1c-.367-.367-.667-1.13-.667-1.7 0-.627.466-.568 1.18.15.651.651.951 1.42.667 1.7-.284.284-.817.217-1.18-.15zm-7.92-3c.688-.277 1.81-.277 2.5 0 .688.277.125.504-1.25.504s-1.94-.227-1.25-.504zm11.1-8.02c.722-.289 1.58-.253 1.92.0789.332.332-.258.569-1.31.525-1.16-.0480-1.4-.285-.604-.604z" fill="#743915"/>
 <path d="m18 198c.246-1.51 1.37-5.64 2.5-9.16 2.47-7.74 8.11-13.9 15.2-16.6 4.62-1.76 4.74-1.92 4.13-5.17-6.4-34-7.3-78.1-2-103 7.1-33.9 35.4-59.3 60-54 3.3.719 6.68 1.24 7.5 1.15 1.09-.112 1.14.0028.177.425-.995.435-.748 1.23.996 3.22 1.93 2.2 1.76 2.14-.995-.358-3.23-2.92-3.59-3-13.5-3-9.55 0-10.6.208-16.8 3.34-21.1 10.6-32.6 32-35.8 66.7-1.7 18.2-1.09 24.9 1.03 11.4 1.97-12.6 7.95-27.1 16.1-39.1 4.15-6.12 5.79-7.54 3.47-3-2.9 5.67-9.57 28.1-11.5 38.8-2.37 13-3.65 26.2-1.99 20.5 5.11-17.6 7.71-24.9 11.9-33.5 12.9-26.8 30.3-45.4 42.6-45.5 3.59-.0253 7.79 2.93 9.86 6.94 1.39 2.68 1.59 2.74 5.56 1.68 6.62-1.77 10.4 1.02 15.7 11.5 8.27 16.5 13.5 42.9 13.5 68.7.0189 8.95.180 16.1.358 15.9.178-.178 1.28-6.15 2.44-13.3 1.75-10.7 2.04-15.8 1.67-29.4-.474-17.5-2.32-28.2-7.14-41.5-3.13-8.63-1.92-7.31 3.87 4.21 5.6 11.1 9.2 24.7 10.1 38.3 1.35 19.6 3.39 10.6 3.38-15-.006-20-2.11-30.9-8.39-43.5-7.12-14.3-15.3-22.4-25.5-25.1-3.03-.817-3.71-1.25-2.05-1.28 3.95-.0912 13.1 4.65 17.8 9.23 11.3 11 19 31.1 22.7 59.7 1.27 9.64 1.53 17.4 1.14 34-.527 22.5-2.37 36.2-6.77 50.5-1.15 3.73-1.72 7.1-1.27 7.49.455.390 2.67 1.23 4.92 1.87 6.95 1.97 12.2 6.6 15.5 13.5 1.6 3.41 3.14 8.45 3.43 11.2.379 3.56.260 4.41-.418 2.98-.819-1.73-.958-1.76-1.02-.25-.0663 1.65-4.57 1.75-80 1.75-75.3 0-80-.102-80.4-1.75-.436-1.67-.463-1.67-.573 0-.0638.962-.504 1.75-.977 1.75-.474 0-.660-1.24-.414-2.75zm10.4-15.7c2.25-2.56 5.95-5.6 8.22-6.76s3.6-2.3 2.95-2.52c-1.65-.563-9.39 3.53-12 6.36-2.6 2.78-6.23 10.6-6.9 14.9-.318 2.02.204 1.32 1.6-2.14 1.14-2.83 3.91-7.24 6.16-9.79zm150 7.24c-1.25-3.44-3.21-7.51-4.35-9.05-2.26-3.06-12.7-8.75-16.1-8.75-1.2.00045.483 1.22 3.95 2.86 7.22 3.42 13.7 10.4 16.2 17.2.936 2.64 1.89 4.6 2.13 4.37.234-.234-.599-3.24-1.85-6.67zm-51.2-7.33c-.308-.308-.867.247-1.24 1.23-.543 1.43-.428 1.54.560.560.683-.678.991-1.49.683-1.79zm-54.9-3.63c-2.43-4.77-6.99-11.1-7.57-10.5-.202.202 1.66 3.46 4.14 7.23s4.51 7.3 4.51 7.83.256.707.570.394c.313-.313-.427-2.53-1.64-4.92zm29.1-.165c0-1.28.696-4.66 1.55-7.53 1.24-4.17 2.39-5.8 5.75-8.14 2.31-1.61 5.25-3.67 6.52-4.57 3.33-2.35 1.97-2.91-1.98-.811-2.53 1.34-5.66 1.78-12.8 1.78-7.18 0-10.3-.434-12.8-1.78-5.72-3.04-4.61-1.01 1.86 3.38 6.62 4.49 8.56 7.62 9.64 15.5.637 4.65 2.34 6.22 2.34 2.16zm-30.6-17c.821-1.53.246-1.33-2.54.892-1.98 1.58-3.6 3.22-3.6 3.65-.000049 1.29 5-2.41 6.14-4.54zm39.3-12.8c2.67-.672 7.77-3.68 13.2-7.78 8.64-6.53 8.89-6.85 11.1-13.7 4.22-12.9 6.43-31.4 4.58-38.3-.577-2.15-.723-2.19-2.45-.629-1.01.913-2.36 3.29-3 5.29-1.88 5.84-2.42 6.14-10.8 5.97l-7.63-.162 7.33-.588c8.09-.649 9.64-1.77 10.8-7.77 1.66-8.83-12.9-12.4-20-4.94-1.63 1.72-2.63 2.56-2.23 1.88.406-.688.259-1.25-.328-1.25-.708 0-.661-.651.140-1.93.664-1.06 1.46-1.91 1.76-1.89 1.39.105 5.05-1.49 5.05-2.2 0-.434.9-.554 2-.267 1.1.288 2 .123 2-.367 0-1.2 7.82-1.45 8.54-.274.316.512 2.15.931 4.09.931 3.07 0 3.47-.283 3.19-2.25-.284-2-1.13-2.35-7.52-3.13-5.88-.720-8.09-.569-12 .820-7.27 2.58-9.3 2.94-9.3 1.63 0-1.97 8.2-5.02 13.5-5.02 2.75.0014 6.97.457 9.38 1.01 2.41.556 4.56.832 4.78.615.498-.498-5.4-18.2-7.28-21.9-1.6-3.1-3.54-4.31-10.2-6.34-7.32-2.23-17.1-2.81-25-1.48-6.29 1.06-7.57 1.66-10.5 4.95-4.18 4.62-10.3 12.9-15 20.2l-3.51 5.49 7.15-1.86c6.64-1.73 7.52-1.75 12.2-.295 4.75 1.46 9.39 4.9 8.2 6.09-.287.287-2.79-.616-5.56-2.01-5.54-2.78-9.46-3.1-17.4-1.4-4.87 1.04-6.74 2.17-6.78 4.12-.0222 1.09 7.76.922 8.44-.181.642-1.04 8.54-.996 8.54.0461 0 .539 5.14 1.98 8.23 2.31.402.0426 1.41 1.04 2.24 2.23 1.2 1.72 1.24 2.25.197 2.65-.719.276-1.83-.334-2.47-1.35-1.73-2.76-8.78-4.39-13.2-3.05-5.24 1.57-7.33 4.25-6.56 8.39 1.13 6.04 2.67 7.15 10.8 7.8l7.33.588-7.63.162c-8.06.171-9.03-.284-10.4-4.84-1.06-3.66-5.58-10-7.14-10-2.39 0-2.52 4.3-.484 16 1.1 6.32 2.3 14.5 2.67 18.2.509 5.15 1.4 7.86 3.75 11.4 3.58 5.41 18.4 16.8 23.6 18.2 4.96 1.33 14.4 1.35 19.5.0563zm-13.5-32c-3.62-1.52-2.65-2.01 3.95-2.01 4.05 0 5.86.340 5.22.981-1.5 1.5-6.65 2.08-9.17 1.03zm-22.4-21.1l-2.36-2.05 3.2 1.55c4.15 2.01 5.62 1.95 7.65-.282 2.12-2.34 1.01-3.53-1.59-1.71-2.25 1.58-4.75 1.01-4.75-1.07 0-.766-.675-1.39-1.5-1.39s-1.5.54-1.5 1.2c0 .829-.321.879-1.04.163-2.53-2.53 2.26-8.36 6.87-8.36 1.58 0 1.93.637 1.82 3.25-.121 2.66.259 3.31 2.1 3.57 2.89.410 2.86 2.26-.0644 5.01-2.9 2.72-5.78 2.76-8.82.125zm13.9-.0307c.354-1.35.807-1.81 1.06-1.06.240.721-.0382 1.79-.619 2.37-.742.742-.872.352-.437-1.31zm30 .5c-1.91-1.56-1.91-1.57.0589-.871 4.18 1.49 6.06 1.52 7.9.163 2.86-2.12 1.1-4.09-1.9-2.12-2.23 1.46-2.48 1.43-3.69-.511-1.58-2.54-3.51-2.69-4.13-.328-.252.962-.510.305-.573-1.46-.137-3.79 3.05-7.29 6.64-7.29 1.86 0 2.25.403 1.79 1.86-.852 2.69.371 5.14 2.56 5.14 2.65 0 2.44 3.5-.330 5.44-2.84 1.99-5.87 1.98-8.34-.0249zm-8.77-75.1c-.367-.367-.667-1.13-.667-1.7 0-.627.466-.568 1.18.15.651.651.951 1.42.667 1.7-.284.284-.817.217-1.18-.15zm-7.92-3c.688-.277 1.81-.277 2.5 0 .688.277.125.504-1.25.504s-1.94-.227-1.25-.504zm11.1-8.02c.722-.289 1.58-.253 1.92.0789.332.332-.258.569-1.31.525-1.16-.0480-1.4-.285-.604-.604z" fill="#64311e"/>
 <path d="m18.4 199c-.0387-1.45.861-5.66 2-9.35 2.49-8.05 8.08-14.3 15.3-17 4.62-1.76 4.74-1.92 4.13-5.17-6.4-34-7.3-78.1-2-103 7.1-33.9 35.4-59.3 60-54 3.3.719 6.68 1.24 7.5 1.15 1.09-.112 1.14.0028.177.425-.995.435-.748 1.23.996 3.22 1.93 2.2 1.76 2.14-.995-.358-3.23-2.92-3.59-3-13.5-3-9.55 0-10.6.208-16.8 3.34-21.1 10.6-32.6 32-35.8 66.7-1.7 18.2-1.09 24.9 1.03 11.4 1.97-12.6 7.95-27.1 16.1-39.1 4.15-6.12 5.79-7.54 3.47-3-2.9 5.67-9.57 28.1-11.5 38.8-2.37 13-3.65 26.2-1.99 20.5 5.11-17.6 7.71-24.9 11.9-33.5 12.9-26.8 30.3-45.4 42.6-45.5 3.59-.0253 7.79 2.93 9.86 6.94 1.39 2.68 1.59 2.74 5.56 1.68 6.62-1.77 10.4 1.02 15.7 11.5 8.27 16.5 13.5 42.9 13.5 68.7.0189 8.95.180 16.1.358 15.9.178-.178 1.28-6.15 2.44-13.3 1.75-10.7 2.04-15.8 1.67-29.4-.474-17.5-2.32-28.2-7.14-41.5-3.13-8.63-1.92-7.31 3.87 4.21 5.6 11.1 9.2 24.7 10.1 38.3 1.35 19.6 3.39 10.6 3.38-15-.006-20-2.11-30.9-8.39-43.5-7.12-14.3-15.3-22.4-25.5-25.1-3.03-.817-3.71-1.25-2.05-1.28 3.95-.0912 13.1 4.65 17.8 9.23 11.3 11 19 31.1 22.7 59.7 1.27 9.64 1.53 17.4 1.14 34-.527 22.5-2.37 36.2-6.77 50.5-1.15 3.73-1.72 7.1-1.27 7.49.455.390 2.67 1.23 4.92 1.87 6.97 1.98 12.2 6.59 15.4 13.5 1.57 3.4 3.11 8.43 3.41 11.2.630 5.6-.169 4.03-2.84-5.56-2.15-7.75-6.35-13.1-12.7-16.3-8.08-4.03-8.81-3.76-13.2 4.87-3.81 7.41-5.9 9.61-5 5.25.264-1.29-.206-.806-1.1 1.13-.858 1.86-3.17 6.02-5.13 9.25-3.49 5.74-3.66 5.87-7.99 5.87h-4.43l-.118-5.25c-.0651-2.89-.403-6.58-.750-8.2l-.632-2.95-1.25 2.74c-1.23 2.7-1.28 2.72-3.65.946-1.32-.988-3.22-3.01-4.23-4.5-1.67-2.47-1.97-2.57-3.53-1.16-.939.850-1.47 2.16-1.18 2.91.288.751-.623 3.87-2.03 6.93-1.4 3.06-2.3 6.23-1.98 7.04.473 1.23-.983 1.47-8.93 1.47h-9.49l-.518-2.75c-1.26-6.68-3.77-13.8-5.5-15.5-1.84-1.84-1.93-1.8-4.23 1.55-1.29 1.89-3.16 3.93-4.15 4.55-1.55.969-2.09.558-3.9-3-1.16-2.27-3.46-5.98-5.13-8.25l-3.02-4.13.694 4.5c.721 4.67 4.07 18.7 5.13 21.4.506 1.32-.286 1.58-4.8 1.58-4.95 0-5.7-.317-8.96-3.75-5.98-6.31-8.91-10.9-11.9-18.5-2.86-7.24-2.88-7.26-2.99-3.29l-.111 4-1.17-3.74-1.17-3.74-5.04 2.35c-2.77 1.29-6.23 3.76-7.67 5.48-2.61 3.1-6.72 12.7-6.86 15.9-.0387.942-.457 2.61-.930 3.71-.772 1.8-.867 1.73-.930-.645zm64.4-19.3c3.06-4.64 6.57-9.17 7.81-10.1l2.26-1.61-2.13-1.7c-1.17-.934-4.23-2.94-6.8-4.46-5.64-3.32-8.14-8.1-6.51-12.4 1.03-2.7 1.01-2.72-.950-.944-1.1.993-2.3 3.17-2.66 4.85-.367 1.67-2.64 4.96-5.06 7.31-2.74 2.66-4.38 5.15-4.38 6.6.0059 1.29 1.98 5.16 4.38 8.6s4.93 7.6 5.61 9.25c.682 1.65 1.61 2.99 2.05 2.99.449 0 3.32-3.8 6.37-8.44zm43 6.19c.382-1.24.839-9 1.02-17.2.243-11.4-.0161-15.6-1.07-17.7-1.97-3.81-3.46-4.41-2.11-.846.959 2.54.822 3.4-.915 5.76-1.12 1.52-4.22 4.21-6.88 5.98-2.66 1.76-5.54 3.9-6.39 4.75-1.4 1.4-1.33 1.7.674 3.11 1.22.856 4.72 5.35 7.78 10 3.06 4.64 5.93 8.44 6.38 8.44.451 0 1.13-1.01 1.51-2.25zm-24-9.5c1.11-7.51 3.35-11.2 9.13-14.9 5.51-3.52 8.33-6.41 4.81-4.92-4.02 1.7-12 3.53-15.4 3.53-3.42 0-11.4-1.83-15.4-3.53-3.44-1.46-.792 1.29 4.86 5.04 5.85 3.88 8 7.37 9.08 14.7.385 2.61 1.05 4.75 1.47 4.75.425 0 1.09-2.14 1.47-4.75zm9.67-28.8c2.47-.842 8.15-4.42 12.6-7.96 7.78-6.15 8.22-6.72 10.2-13.2 4.21-13.6 6.16-32.1 4.15-39.2-.556-1.99-.864-2.15-1.84-.967-.646.779-2.13 3.64-3.3 6.36s-2.65 5.29-3.31 5.7c-.653.415-4.11.691-7.69.613l-6.5-.142 6.83-.593c7.55-.655 9.16-1.88 10.3-7.81.776-4.14-1.32-6.82-6.56-8.39-4.47-1.34-11.3.243-13.3 3.07-.884 1.26-1.8 1.62-2.7 1.06-1.04-.640-.537-1.36 2.05-2.95 5.38-3.3 10.6-4.31 18.2-3.55 6.85.688 6.91.673 6.58-1.66-.240-1.69-1.18-2.53-3.33-2.99-5.44-1.16-13.9-.811-18 .735-6.45 2.45-7.5 2.68-7.5 1.62 0-1.42 6.58-4.36 11.1-4.98 2.12-.284 6.6.0234 9.96.684 3.36.660 6.3 1 6.55.757.435-.435-4.18-15.1-6.75-21.4-2.89-7.13-22.7-11.4-37.8-8.21-4.11.882-5.83 1.98-9.46 6.01-4.37 4.86-17.9 24-17.3 24.6.156.156 2.47-.375 5.15-1.18 2.67-.805 6.83-1.46 9.24-1.46 4.18 0 11.5 2.84 12.8 4.99.983 1.59-1.21 1.2-5.49-.986-6.58-3.35-21.3-2.02-23.9 2.17-1.3 2.09-1.26 2.1 6.7 1.4 8.74-.762 13.6.131 19.1 3.5 2.58 1.59 3.08 2.31 2.05 2.95-.908.561-1.82.204-2.7-1.06-1.98-2.82-8.84-4.41-13.3-3.07-5.24 1.57-7.33 4.25-6.56 8.39 1.11 5.93 2.72 7.15 10.3 7.81l6.83.593-6.5.142c-3.58.0781-7-.189-7.62-.593-.9.3-2.6-2.5-4.1-5.6-3.2-6.9-6.3-10-7.7-7.9-1.3 2.06-1.19 4.01.970 16.5 1.05 6.05 2.22 14.1 2.61 17.8.545 5.23 1.44 7.91 3.84 11.5 3.65 5.44 16.4 15.6 22.1 17.6 5.37 1.92 17.1 1.95 22.6.0538zm-15.7-32c-2.36-1.35-2.13-1.43 4-1.43s6.36.0805 4 1.43c-1.38.786-3.18 1.43-4 1.43-.825 0-2.63-.643-4-1.43zm-22.2-20.1l-2.36-2.05 3.2 1.55c4.15 2.01 5.62 1.95 7.65-.282 2.12-2.34 1.01-3.53-1.59-1.71-2.25 1.58-4.75 1.01-4.75-1.07 0-.766-.675-1.39-1.5-1.39s-1.5.54-1.5 1.2c0 .829-.321.879-1.04.163-2.53-2.53 2.26-8.36 6.87-8.36 1.58 0 1.93.637 1.82 3.25-.121 2.66.259 3.31 2.1 3.57 2.89.410 2.86 2.26-.0644 5.01-2.9 2.72-5.78 2.76-8.82.125zm43.6.468c-1.91-1.56-1.91-1.57.0589-.871 4.18 1.49 6.06 1.52 7.9.163 2.86-2.12 1.1-4.09-1.9-2.12-2.23 1.46-2.48 1.43-3.69-.511-1.58-2.54-3.51-2.69-4.13-.328-.252.962-.510.305-.573-1.46-.137-3.79 3.05-7.29 6.64-7.29 1.86 0 2.25.403 1.79 1.86-.852 2.69.371 5.14 2.56 5.14 2.65 0 2.44 3.5-.330 5.44-2.84 1.99-5.87 1.98-8.34-.0249zm-8.77-75.1c-.367-.367-.667-1.13-.667-1.7 0-.627.466-.568 1.18.15.651.651.951 1.42.667 1.7-.284.284-.817.217-1.18-.15zm-7.92-3c.688-.277 1.81-.277 2.5 0 .688.277.125.504-1.25.504s-1.94-.227-1.25-.504zm11.1-8.02c.722-.289 1.58-.253 1.92.0789.332.332-.258.569-1.31.525-1.16-.0480-1.4-.285-.604-.604z" fill="#4c342a"/>
 <path d="m18.4 199c-.160-4.53 3.02-13.5 6.45-18.3 2.52-3.47 5-5.43 9.5-7.5l6.09-2.8-.620-4c-5-31-6-44-5.3-66.4 1.1-35.2 5.3-51.3 18.1-68.3 8-10.6 21.7-19.8 31.2-20.9l3.85-.438-3.75.968c-15.8 4.2-31.7 19.6-39.1 38.2-7.1 18.1-11 52.9-8.7 78.9 1.66 19.2 4.25 37.5 5.24 36.9.477-.295.909-1.52.961-2.73.0517-1.21.685.734 1.41 4.31 2.25 11.1 7.13 20.3 15.8 29.8 2.49 2.71 3.37 4.25 2.41 4.25-1.73 0-8.33-6.89-12.2-12.8-1.46-2.21-3.75-7.11-5.08-10.9l-2.42-6.87-.0211 4.42c-.0234 4.89-.660 5.17-1.31.565-.349-2.46-.845-2.94-2.82-2.72-3.47.383-9.91 5.18-13.1 9.76-1.52 2.18-3.64 7.35-4.69 11.5-1.06 4.12-1.96 6.4-2.01 5.07zm48.5-6.32c-4.83-15.2-5.7-22.5-6.6-55.2-.781-28.5-2.62-51.1-3.86-47.5-.283.825-1.56 4.88-2.85 9-1.28 4.13-2.08 5.8-1.77 3.72 2.6-16.8 15.1-39.5 31.6-57.3 11.5-12.5 19.7-15.9 25.7-10.1 1.35 1.46 2.45 3.3 2.45 4.11 0 1.11.662 1.28 2.75.713 6.69-1.82 11.4 1.04 15.7 9.53 8.52 16.8 15.7 53 12.5 63-.575 1.8-.858.390-1-5l-.203-7.5-1.31 9.56c-.718 5.26-3.15 16.5-5.4 25.1-3.59 13.6-4.08 16.8-4.01 25.9.0511 6.52.755 13 1.89 17.4 1 3.88 1.85 5.86 1.92 4.43.131-2.92 3.07-13.3 3.61-12.8.196.196-.277 3.05-1.05 6.35-.775 3.3-1.42 7.71-1.42 9.8-.009 2.09-.399 3.57-.867 3.28-.779-.482-3.76-10.2-6.15-20.1-.845-3.49-.905-3.18-.472 2.5.272 3.58 1.16 8.98 1.97 12 1.68 6.27 2 17 .499 17-.55 0-1.05-2.36-1.12-5.25-.0651-2.89-.403-6.58-.750-8.2l-.632-2.95-1.25 2.74c-1.23 2.7-1.28 2.72-3.65.946-1.32-.988-3.22-3.01-4.23-4.5-1.67-2.47-1.97-2.57-3.53-1.16-.939.850-1.47 2.16-1.18 2.91.288.751-.623 3.87-2.03 6.93-1.4 3.06-2.3 6.23-1.98 7.04.473 1.23-.983 1.47-8.93 1.47h-9.49l-.518-2.75c-1.26-6.68-3.77-13.8-5.5-15.5-1.84-1.84-1.93-1.8-4.23 1.55-1.29 1.89-3.16 3.93-4.15 4.55-1.55.969-2.09.558-3.9-3-1.16-2.27-3.46-5.98-5.13-8.25l-3.02-4.13.694 4.5c.721 4.67 4.07 18.7 5.13 21.4.333.868.161 1.58-.384 1.58-.544 0-2.17-3.71-3.61-8.25zm15.8-13.2c3.06-4.64 6.57-9.17 7.81-10.1l2.26-1.61-2.13-1.7c-1.17-.934-4.23-2.94-6.8-4.46-5.6-3.3-8.14-8.1-6.53-12.3 1.81-4.76-1.53-.963-4.51 5.12-1.55 3.17-3.88 6.16-5.6 7.17-4.14 2.45-4.01 7.01.359 12.7 1.81 2.37 4.4 6.4 5.75 8.94s2.76 4.63 3.14 4.63c.379 0 3.19-3.8 6.25-8.44zm43.1 6.69c.395-.962.851-8.72 1.01-17.2.225-11.8-.0392-16.1-1.1-18.2-1.98-3.83-3.47-4.43-2.12-.862.959 2.54.822 3.4-.915 5.76-1.12 1.52-4.22 4.21-6.88 5.98-2.66 1.76-5.54 3.9-6.39 4.75-1.4 1.4-1.33 1.7.674 3.11 1.22.856 4.72 5.35 7.78 10 3.06 4.64 5.93 8.44 6.39 8.44.456 0 1.15-.788 1.55-1.75zm-24-10c1.11-7.51 3.35-11.2 9.13-14.9 5.51-3.52 8.33-6.41 4.81-4.92-4.02 1.7-12 3.53-15.4 3.53-3.42 0-11.4-1.83-15.4-3.53-3.44-1.46-.792 1.29 4.86 5.04 5.85 3.88 8 7.37 9.08 14.7.385 2.61 1.05 4.75 1.47 4.75.425 0 1.09-2.14 1.47-4.75zm9.67-28.8c2.47-.842 8.15-4.42 12.6-7.96 7.78-6.15 8.22-6.72 10.2-13.2 4.2-13.6 6.16-32.1 4.16-39.2-.635-2.26-.718-2.28-2.27-.5-.886 1.02-1.86 2.52-2.16 3.35-.328.891-.584.455-.630-1.08-.233-7.6-15.7-10.6-20.4-3.91-.859 1.23-1.77 1.57-2.67 1.01-1.04-.640-.537-1.36 2.05-2.95 5.98-3.67 13.5-4.6 21.7-2.68 2.77.649 3.25.488 3.25-1.09 0-2.75-3.69-15.5-6.73-23.4-2.48-6.36-3.01-7.01-7.31-8.86-9.5-4.09-21.5-5.22-31.9-3-4.08.875-5.84 1.98-9.33 5.87-4.7 5.23-12.7 16.6-17.6 24.8-2.9 4.92-2.96 5.23-1.13 5.81 1.06.338 2.37.345 2.9.0167 1.95-1.2 11.2-1.56 14.8-.574 5.61 1.54 10.9 5.02 9.18 6.06-.904.559-1.81.215-2.67-1.01-1.78-2.54-7.76-4.36-12-3.66-4.4.713-8.25 4.21-8.25 7.48 0 2.3-.207 2.19-2.84-1.45-1.56-2.16-3.05-4.55-3.31-5.32-.288-.866-.978-.168-1.8 1.82-1.16 2.79-1.05 4.94.767 15.9 1.16 6.98 2.41 15.6 2.78 19 .504 4.7 1.49 7.55 3.79 11 3.64 5.42 16.4 15.5 22.1 17.6 5.37 1.92 17.1 1.95 22.6.0538zm-15.7-33c-2.36-1.35-2.13-1.43 4-1.43s6.36.0805 4 1.43c-1.38.786-3.18 1.43-4 1.43-.825 0-2.63-.643-4-1.43zm-25.6-16.8c-1.53-.991-3.64-5.26-2.95-5.95.320-.320.581-.0560.581.586s.938 2.1 2.08 3.25c2.1 2.1 2.28 3.4.287 2.11zm8.88.115c.962-.252 2.54-.252 3.5 0 .962.252.175.457-1.75.457s-2.71-.206-1.75-.457zm38-.0037c.973-.254 2.32-.237 3 .0370.677.274-.119.481-1.77.461-1.65-.0204-2.2-.244-1.23-.498zm10.7-.338c0-.533.436-.969.968-.969s1.64-1.24 2.46-2.75c1.76-3.25 2.07-2.44.437 1.15-1.15 2.53-3.86 4.34-3.86 2.57zm-52-5.7c-1.18-1.18-.712-4.1.739-4.66.773-.297 2.19.330 3.15 1.39 1.58 1.74 1.32 2.39-.811 2.05-.412-.0651-.75.332-.75.882 0 1.14-1.34 1.33-2.33.333zm43-.7c-1.27-3.31 2.27-4.92 4.61-2.09 1.45 1.75 1.31 1.97-1.77 2.92-1.57.482-2.43.231-2.84-.828zm-33-15.7c-2.11-1.11-5.71-2.41-8-2.89l-4.17-.872 4.5.148c4.37.144 12 3.27 12 4.91 0 1.03.187 1.09-4.33-1.3zm22.3 1.09c0-1.36 5.28-3.59 10.5-4.44 3.2-.519 3.64-.423 2.21.482-.987.622-2.96 1.34-4.38 1.6-1.43.258-3.88 1.14-5.46 1.95-1.8.928-2.87 1.08-2.87.405zm-36.9-3.7c.722-.289 1.58-.253 1.92.0790.332.332-.258.569-1.31.525-1.16-.0480-1.4-.285-.604-.604zm54.2-.223c0-.499.9-.671 2-.383s2 .696 2 .906c0 .211-.9.383-2 .383s-2-.408-2-.906zm10 128c0-.208 1.55-2.95 3.43-6.08 4.6-7.64 10.2-21.1 13.1-31.5 2.82-10.2 3.28-8.01.596 2.83-1.04 4.22-2.15 9.47-2.46 11.7l-.565 4 1.9-4.02c3.24-6.86 6.8-20.7 9.06-35.1 2.33-14.9 3.91-52.8 2.43-58l-.815-2.87-.693 3.5c-.463 2.34-.736.151-.824-6.62-.341-26.2-7.02-45.3-20.7-59.1-4.48-4.52-6.04-6.58-4.18-5.5 11.7 6.81 22.2 28.5 27.4 56.7 2.29 12.5 2.65 54 .582 67.5-2.15 14-8.01 34.8-11.9 42.2-3.59 6.84-5.53 8.72-4.68 4.55.264-1.29-.206-.806-1.1 1.13-2.61 5.65-8.64 15.1-9.62 15.1-.510 0-.928-.170-.928-.379zm43.6-6.96c-2.69-11.4-7.71-17.4-17.6-21-4.13-1.52-4.21-1.61-1-1.12 9.11 1.38 17.7 10.9 20 22.1 1.75 8.44.594 8.45-1.4.009zm-138-39c0-1.92.206-2.71.457-1.75.252.962.252 2.54 0 3.5-.252.962-.457.175-.457-1.75zm48.5-146c.688-.277 1.81-.277 2.5 0 .688.277.125.504-1.25.504s-1.94-.227-1.25-.504z" fill="#532611"/>
 <path d="m18.4 199c.0480-1.16.285-1.4.604-.604.289.722.253 1.58-.0790 1.92-.332.332-.569-.258-.525-1.31zm39.2-2.17c-5.49-5.87-11.2-15.1-13-21.2-1.6-5.34-1.69-5.43-2.35-2.55-.543 2.36-.714 2.52-.807.75-.0651-1.24-.456-2.25-.868-2.25-.412-.002-.797-1.69-.855-3.75-.0579-2.06-.831-8.47-1.72-14.2-5.3-35-4.5-75.6 1.9-97.7 3.7-12.8 13.4-27.9 22.8-35.4 6.3-5.1 16.1-9.9 21.3-10.5l3.85-.438-3.75.968c-15.8 4.2-31.7 19.6-39.1 38.2-7.1 18.1-11 52.9-8.7 78.9 1.66 19.2 4.25 37.5 5.24 36.9.477-.295.909-1.52.961-2.73.0517-1.21.693.818 1.43 4.5 2.18 11 7.02 20 15.8 29.6 2.15 2.34 3.35 4.25 2.67 4.25-.683 0-2.82-1.69-4.75-3.75zm9.35-4.5c-4.83-15.2-5.7-22.5-6.6-55.2-.467-17-1.42-35-2.12-40l-1.27-9-2.22 7c-1.22 3.85-2.26 6.27-2.31 5.38-.166-3.09 5.05-17.4 9.06-24.9 8.19-15.3 23.9-34.6 32.8-40.2 5.92-3.76 11.2-3.82 14.6-.178 1.35 1.46 2.45 3.3 2.45 4.11 0 1.11.662 1.28 2.75.713 6.69-1.82 11.4 1.04 15.7 9.53 8.52 16.8 15.7 53 12.5 63-.575 1.8-.858.390-1-5l-.203-7.5-1.31 9.56c-.718 5.26-3.15 16.5-5.4 25.1-3.59 13.6-4.08 16.8-4.01 25.9.0511 6.52.755 13 1.89 17.4 1 3.88 1.85 5.86 1.92 4.43.137-3.07 3.08-13.3 3.66-12.7.223.223-.0642 2.1-.638 4.18-.573 2.08-1.39 6.55-1.8 9.94-.733 5.93-.808 6.06-1.94 3.33-2.65-6.39-5.32-18.6-5.7-26.1-.473-9.31-1.66-12.8-5.02-14.6-1.34-.716-2.43-1.64-2.43-2.05s2.31-2.44 5.14-4.52c5.72-4.2 7.48-7.42 10.9-19.9 1.58-5.73 2.34-11.9 2.69-21.8.513-14.6.0819-15.9-3.67-11.1-1.83 2.33-2.07 2.4-2.07.674 0-7.24-15.9-9.57-20.5-3.01-1.24 1.77-1.5 1.85-1.5.444 0-3.01 7.5-5.97 14.9-5.86 3.58.0538 7.33.356 8.32.671.994.316 2.2.329 2.69.0299 1.99-1.23-6.48-28.2-9.95-31.7-4.98-4.98-25.2-7.74-36.6-4.99-4.64 1.12-5.8 1.99-10.6 7.92-5.77 7.13-14.4 19.7-17 24.8-2.07 4.03-1.01 4.53 7.16 3.37 8.78-1.24 19.2 1.86 19.2 5.72 0 1.4-.266 1.32-1.5-.449-1.96-2.79-7.79-4.68-12.2-3.95-4.17.676-8.25 4.16-8.25 7.04 0 1.72-.448 1.5-2.89-1.42-1.67-2-2.47-3.73-1.89-4.09.633-.395.553-.902-.217-1.38-1.36-.841-2.68.763-3.66 4.43-.354 1.33.310 8.76 1.48 16.5s2.41 16.7 2.77 19.8c.791 7.02 4.02 11.9 11.9 17.8 3.05 2.3 5.54 4.55 5.54 4.99 0 .447-.944 1.11-2.1 1.48-1.27.403-3.01 2.73-4.4 5.88-1.27 2.87-3.92 6.63-5.9 8.37-2.83 2.49-3.6 3.9-3.6 6.63 0 1.91.408 3.72.906 4.03.498.308.672 1.46.385 2.55-.613 2.34 1.27 13 3.77 21.2.968 3.2 1.4 5.81.969 5.81-.435 0-1.97-3.71-3.41-8.25zm24.8 6.69c.330-.860-.0333-2.79-.807-4.28-.774-1.5-1.73-4.43-2.12-6.51-.391-2.08-1.76-5.04-3.05-6.57l-2.34-2.78 2.69-4.15c1.48-2.28 3.01-4.15 3.41-4.15.397 0 2.66 2.25 5.03 5s4.98 5 5.81 5c.825 0 3.44-2.25 5.81-5s4.63-5 5.03-5c.397 0 1.94 1.89 3.44 4.19 2.68 4.13 2.69 4.22.826 6.25-1.04 1.13-1.88 3.26-1.87 4.73.0123 1.47-.934 4.65-2.1 7.07-1.17 2.41-2.12 5.15-2.12 6.07 0 1.46-1.24 1.68-9.11 1.68-7.85 0-9.02-.216-8.51-1.56zm37.6-4.19c0-3.17-.387-7.11-.859-8.75-.473-1.65-1.12-6.6-1.45-11l-.587-8 1.35 7.07c.742 3.89 1.84 8.84 2.44 11 1.37 4.93 1.44 15.4.103 15.4-.551 0-1-2.59-1-5.76zm7 5.38c0-.208 1.55-2.95 3.43-6.08 4.6-7.64 10.2-21.1 13.1-31.5 2.82-10.2 3.28-8.01.596 2.83-4.4 17.8-3.36 19.7 1.89 3.45 5.74-17.7 9.01-42.7 9.01-69 .00086-15.6-.887-22.1-2.1-15.3-.389 2.15-.683-.389-.764-6.62-.341-26.2-7.02-45.3-20.7-59.1-4.48-4.52-6.04-6.58-4.18-5.5 11.7 6.81 22.2 28.5 27.4 56.7 2.29 12.5 2.65 54 .576 67.5-2.92 18.9-9.54 39.4-15.2 47-.898 1.2-1.03.955-.681-1.25.242-1.51.266-2.75.0535-2.75s-.848 1.24-1.41 2.75c-1.61 4.31-9.19 17.2-10.1 17.2-.452 0-.822-.170-.822-.379zm44.2-5.22c-.665-3.17-1.04-5.93-.836-6.13.573-.573 2.83 9.53 2.41 10.8-.203.610-.913-1.48-1.58-4.65zm-161-1c1.19-5.4 6.52-14.8 9.73-17.3l3.23-2.43-3.64 3.93c-4.29 4.63-6.43 8.6-7.39 13.7-.385 2.05-1.12 3.98-1.63 4.3-.538.332-.664-.617-.301-2.26zm158-9c-.674-1.63-2.08-3.74-3.13-4.69s-1.9-2.22-1.89-2.82c.0269-1.32 3.45 2.81 5.58 6.75.848 1.56 1.34 3.04 1.1 3.28-.242.242-.991-.893-1.67-2.52zm-109-9c-.945-1.44-1.22-2.32-.620-1.94 1.15.713 3.48 4.57 2.76 4.57-.231 0-1.19-1.18-2.14-2.62zm34.6-1.38c0-1.38.227-1.94.504-1.25.277.688.277 1.81 0 2.5-.277.688-.504.125-.504-1.25zm65.3-.0678c-1.65-1.06-2.49-1.92-1.86-1.93.627-.003 2.2.880 3.5 1.96 2.97 2.48 2.26 2.46-1.64-.0346zm-70.4-.516c.0480-1.16.285-1.4.604-.604.289.722.253 1.58-.0790 1.92-.332.332-.569-.258-.525-1.31zm-64.3-.541c.678-.683 1.49-.991 1.79-.683.308.308-.247.867-1.23 1.24-1.43.543-1.54.428-.560-.560zm62.7-4.65c-.649-1.72-3.63-4.64-7.46-7.31-7.08-4.94-9.73-8.55-8.44-11.5.675-1.56 1.01-1.12 1.82 2.41.857 3.71 1.82 4.88 6.84 8.29 5.9 4.01 9.33 7.92 8.67 9.9-.197.591-.844-.212-1.44-1.79zm8.23.774c.770-3.18 3.36-6.01 7.57-8.29 3.18-1.72 3.21-1.72.810 0-3.79 2.72-7 6.07-7 7.31 0 .607.520.783 1.15.391.721-.446.883-.274.431.457-.398.644-1.1.936-1.57.648-.465-.287-1.1.0428-1.42.734-.317.691-.304.131.0295-1.24zm13-11.9c.644-.856 1.32-3.13 1.5-5.06.346-3.69 2.11-4.44 2.64-1.12.175 1.11-.907 3.21-2.5 4.85-1.54 1.59-2.28 2.19-1.64 1.33zm2.99-7.31c-.277-.688-.504-.125-.504 1.25s.227 1.94.504 1.25c.277-.688.277-1.81 0-2.5zm-78.4 4.25c0-1.92.206-2.71.457-1.75.252.962.252 2.54 0 3.5-.252.962-.457.175-.457-1.75zm9.85-50.6c.0480-1.16.285-1.4.604-.604.289.722.253 1.58-.0790 1.92-.332.332-.569-.258-.525-1.31zm18.9-6.5c-1.84-2.22-.792-2.47 1.27-.309.962 1.01 1.36 1.83.872 1.83-.483 0-1.45-.686-2.14-1.52zm60.8-.309c.962-1.01 1.93-1.69 2.14-1.52.591.465-2.01 3.36-3.01 3.36-.483 0-.0901-.825.872-1.83zm-53-3.9c-1.17-1.17-.718-4.1.711-4.65.758-.291 1.88-.0240 2.5.593 1.39 1.39 1.49 4.07.122 3.22-.55-.340-1-.141-1 .441 0 1.19-1.32 1.41-2.33.392zm43-.7c-1.27-3.31 2.27-4.92 4.61-2.09 1.45 1.75 1.31 1.97-1.77 2.92-1.57.482-2.43.231-2.84-.828zm-33-15.8c-2.11-1.08-5.71-2.34-8-2.8-4.16-.822-4.16-.824-.667-.858 3.48-.0333 7.69 1.24 11.5 3.49 3.51 2.07 1.15 2.21-2.82.165zm22.3 1.02c0-1.28 5.51-3.53 10.5-4.29 4.33-.658 3.75-.305-5.25 3.21-2.89 1.13-5.25 1.61-5.25 1.08zm-36.9-3.5c.722-.289 1.58-.253 1.92.0790.332.332-.258.569-1.31.525-1.16-.0480-1.4-.285-.604-.604zm54.9.0208c.688-.277 1.81-.277 2.5 0 .688.277.125.504-1.25.504s-1.94-.227-1.25-.504zm-37-64c.688-.277 1.81-.277 2.5 0 .688.277.125.504-1.25.504s-1.94-.227-1.25-.504z" fill="#291711"/>
</svg>
