<!DOCTYPE svg PUBLIC "-//W3C//DTD SVG 20010904//EN" "http://www.w3.org/TR/2001/REC-SVG-20010904/DTD/svg10.dtd">
<svg version="1.0" xmlns="http://www.w3.org/2000/svg" width="200px" height="200px" viewBox="0 0 2000 2000" preserveAspectRatio="xMidYMid meet">
<g id="layer101" fill="#141111" stroke="none">
 <path d="M174 1954 c15 -114 93 -220 178 -246 21 -6 38 -17 38 -23 0 -7 -9 -70 -20 -141 -57 -375 -48 -791 21 -1004 85 -259 281 -445 485 -458 40 -2 93 0 117 6 34 9 53 8 92 -3 255 -77 459 123 545 538 62 298 47 737 -35 994 l-22 71 36 7 c50 9 115 49 146 90 31 39 60 112 70 173 l7 42 -832 0 -833 0 7 -46z"/>
 </g>
<g id="layer102" fill="#0d122d" stroke="none">
 <path d="M174 1954 c15 -114 93 -220 179 -246 l39 -12 -5 -45 c-4 -25 -13 -89 -21 -141 -54 -356 -42 -761 30 -980 87 -262 302 -450 515 -450 32 0 70 5 85 11 22 8 45 6 97 -7 95 -23 168 -15 247 27 111 59 180 159 245 351 109 326 112 828 6 1166 l-18 60 36 7 c50 9 115 49 146 90 31 39 60 112 70 173 l7 42 -370 0 c-356 0 -370 -1 -375 -19 -2 -11 -1 -23 4 -28 5 -5 11 -18 13 -29 2 -10 7 -31 11 -45 5 -21 2 -30 -17 -43 l-23 -17 25 6 c19 4 31 0 44 -14 18 -20 18 -22 -8 -61 -14 -22 -31 -40 -36 -40 -5 0 -26 23 -47 50 -20 28 -44 50 -53 50 -9 0 -33 -22 -53 -50 -21 -27 -42 -50 -47 -50 -5 0 -22 18 -36 40 l-27 41 21 22 c11 12 23 36 27 52 4 17 13 47 22 67 30 71 46 68 -368 68 l-372 0 7 -46z m625 -1050 c6 4 11 0 11 -9 0 -20 -28 -31 -42 -17 -6 6 -8 19 -4 29 6 14 9 15 15 4 5 -7 14 -10 20 -7z m436 -24 c-9 -15 -32 -12 -38 4 -3 7 -1 18 5 24 13 13 43 -12 33 -28z"/>
 </g>
<g id="layer103" fill="#2e180f" stroke="none">
 <path d="M174 1954 c15 -114 93 -220 179 -246 l39 -12 -5 -45 c-4 -25 -13 -89 -21 -141 -54 -356 -42 -761 30 -980 87 -262 302 -450 515 -450 32 0 70 5 85 11 22 8 45 6 97 -7 95 -23 168 -15 247 27 111 59 180 159 245 351 109 326 112 828 6 1166 l-18 60 36 7 c50 9 115 49 146 90 31 39 60 112 70 173 l7 42 -370 0 c-356 0 -370 -1 -375 -19 -2 -11 -1 -23 4 -28 5 -5 11 -18 13 -29 2 -10 7 -31 11 -45 5 -21 2 -30 -17 -43 l-23 -17 25 6 c19 4 31 0 44 -14 18 -20 18 -22 -8 -61 -14 -22 -31 -40 -36 -40 -5 0 -26 23 -47 50 -20 28 -44 50 -53 50 -9 0 -33 -22 -53 -50 -21 -27 -42 -50 -47 -50 -5 0 -22 18 -36 40 l-27 41 21 22 c11 12 23 36 27 52 4 17 13 47 22 67 30 71 46 68 -368 68 l-372 0 7 -46z m625 -1050 c6 4 11 0 11 -9 0 -20 -28 -31 -42 -17 -6 6 -8 19 -4 29 6 14 9 15 15 4 5 -7 14 -10 20 -7z m436 -24 c-9 -15 -32 -12 -38 4 -3 7 -1 18 5 24 13 13 43 -12 33 -28z m-513 -68 c18 -6 44 -13 58 -15 14 -2 0 -5 -30 -5 -70 -1 -134 10 -130 23 1 6 11 23 23 39 l20 28 13 -30 c8 -20 23 -33 46 -40z m655 4 c-3 -14 -59 -25 -127 -24 l-55 0 42 8 c59 12 82 26 89 57 l7 27 23 -29 c12 -16 22 -34 21 -39z m-198 -13 c2 -2 0 -3 -6 -3 -6 0 -21 9 -34 21 l-24 20 30 -17 c17 -10 32 -19 34 -21z"/>
 </g>
<g id="layer104" fill="#481c06" stroke="none">
 <path d="M170 1977 c0 -35 27 -119 45 -142 16 -20 16 -20 6 2 -22 45 -10 36 19 -14 22 -39 44 -61 83 -83 62 -36 84 -38 90 -7 4 18 4 17 6 -6 1 -19 5 -26 13 -21 8 5 9 0 5 -17 -4 -13 -7 -35 -7 -49 l-1 -25 -11 25 c-9 22 -13 8 -29 -95 -46 -304 -48 -526 -8 -800 30 -209 75 -326 172 -454 52 -68 152 -144 225 -171 63 -24 191 -43 207 -31 5 5 26 7 45 5 149 -15 207 -15 250 0 25 9 50 18 55 19 6 1 16 10 24 20 7 10 19 16 26 13 11 -4 60 41 96 88 11 16 11 18 0 12 -9 -6 -12 -5 -9 5 3 8 11 13 17 11 7 -1 10 2 7 7 -3 5 12 47 34 93 49 105 71 206 80 378 4 74 7 119 8 101 2 -26 5 -32 13 -24 20 20 5 473 -20 618 -20 118 -62 279 -82 317 -6 11 -9 22 -6 24 2 3 12 -14 21 -36 16 -39 18 -41 49 -35 60 13 129 58 157 102 15 23 30 39 34 36 4 -4 4 1 0 11 -5 13 -4 17 3 13 12 -8 27 31 39 96 l6 37 -231 0 -231 0 40 -61 c21 -33 46 -80 56 -104 9 -25 20 -42 25 -39 5 3 9 -7 9 -21 0 -15 7 -52 16 -82 9 -30 14 -57 11 -59 -3 -3 -8 9 -12 26 -13 58 -73 201 -115 271 -35 58 -45 69 -68 69 -27 0 -27 -1 -28 -68 -1 -37 -9 -94 -18 -127 -14 -57 -15 -58 -11 -15 2 25 8 72 12 105 15 108 17 105 -98 105 -93 0 -99 -1 -99 -20 0 -12 8 -33 17 -47 10 -15 13 -24 6 -20 -9 6 -10 0 -1 -24 10 -29 9 -34 -12 -51 -23 -18 -16 -25 9 -9 10 6 21 1 36 -18 25 -28 23 -36 -21 -95 -14 -19 -15 -19 -45 10 -17 16 -38 41 -47 57 -9 15 -21 27 -27 27 -5 0 -33 -25 -61 -57 l-51 -57 -31 43 -32 44 24 27 c13 16 29 50 35 76 7 27 17 54 23 61 5 7 7 21 3 33 -6 18 -14 20 -106 20 -99 0 -100 0 -110 -27 -22 -57 -49 -190 -55 -268 l-6 -80 32 -24 c18 -13 42 -46 56 -76 12 -30 31 -58 41 -64 10 -6 13 -11 7 -11 -16 0 -38 28 -63 82 -12 25 -33 54 -46 62 -24 16 -25 16 -25 -6 -1 -13 -3 -85 -5 -161 -3 -106 -1 -136 8 -130 8 4 8 1 -1 -9 -7 -9 -17 -57 -22 -107 -10 -108 -31 -243 -37 -237 -2 2 1 39 7 83 6 43 15 218 20 388 9 325 19 404 68 533 l20 52 -33 0 c-28 0 -42 -10 -90 -62 -31 -35 -74 -98 -96 -141 -42 -85 -51 -88 -21 -9 21 55 63 118 115 175 l35 37 -219 0 -219 0 0 -23z m1179 -157 l-1 -25 -8 25 c-4 14 -8 19 -9 11 -1 -8 -3 -12 -6 -10 -2 3 -2 15 2 28 7 29 23 8 22 -29z m-49 -121 c-19 -121 -14 -161 48 -399 16 -63 32 -140 36 -170 l5 -55 -14 65 c-17 74 -52 187 -65 211 -5 9 -12 34 -16 55 -5 22 -9 42 -10 47 -1 4 -2 17 -3 28 -1 21 -2 21 -22 -5 -11 -14 -26 -26 -32 -26 -6 0 -2 6 9 14 25 18 45 83 43 139 -2 42 20 171 28 164 2 -3 -1 -33 -7 -68z m109 -709 c1 19 7 44 12 55 13 29 1 -89 -22 -218 -22 -118 -77 -289 -115 -354 -32 -55 -69 -83 -108 -82 l-31 2 30 6 c17 3 37 11 45 16 52 35 115 180 154 357 l6 28 -92 -5 c-51 -2 -82 -2 -68 1 68 14 92 27 105 57 l13 30 17 -26 c9 -15 21 -24 26 -21 5 3 10 56 11 117 1 92 2 102 8 57 5 -44 7 -48 9 -20z m-860 -70 c0 -9 -4 -8 -9 5 -5 11 -9 27 -9 35 0 9 4 8 9 -5 5 -11 9 -27 9 -35z m28 -34 c-5 -29 3 -50 45 -123 101 -177 243 -350 307 -375 41 -15 109 -11 139 8 34 23 59 27 68 12 4 -7 3 -8 -4 -4 -7 4 -16 -2 -21 -16 -5 -13 -20 -34 -35 -47 -52 -49 -145 -7 -253 115 -85 97 -177 228 -221 319 -40 81 -64 145 -43 115 9 -12 11 -11 11 8 0 12 3 22 6 22 4 0 4 -15 1 -34z m213 23 c0 -5 5 -7 10 -4 6 3 10 -1 10 -10 0 -20 -28 -31 -42 -17 -6 6 -8 18 -5 26 7 18 27 22 27 5z m430 1 c0 -5 4 -9 9 -7 16 4 13 -18 -3 -28 -20 -12 -39 5 -30 28 7 18 24 23 24 7z m-498 -98 c18 -6 44 -13 58 -15 14 -2 0 -5 -30 -5 -70 -1 -134 10 -130 23 1 6 11 23 23 39 l20 28 13 -30 c8 -20 23 -33 46 -40z m457 -9 c2 -2 0 -3 -6 -3 -6 0 -21 9 -34 21 l-24 20 30 -17 c17 -10 32 -19 34 -21z m282 -580 c-5 -10 -24 -31 -42 -48 -31 -29 -31 -28 5 18 40 49 54 60 37 30z"/>
 <path d="M1071 379 c-15 -12 -40 -19 -70 -20 l-46 0 31 -16 c40 -20 78 -11 100 22 21 33 15 38 -15 14z"/>
 </g>
<g id="layer105" fill="#281c27" stroke="none">
 <path d="M190 1981 c0 -10 9 -49 21 -86 23 -77 73 -139 134 -166 52 -24 63 -24 68 4 4 18 4 17 6 -6 1 -19 5 -26 13 -21 8 5 9 0 5 -17 -4 -13 -7 -35 -7 -49 l-1 -25 -11 25 c-9 22 -13 8 -29 -95 -46 -304 -48 -526 -8 -800 30 -209 75 -326 172 -454 52 -68 152 -144 225 -171 63 -24 191 -43 207 -31 5 5 26 7 45 5 149 -15 207 -15 250 0 25 9 50 18 55 19 6 1 16 10 24 20 7 10 19 16 26 13 11 -4 60 41 96 88 11 16 11 18 0 12 -9 -6 -12 -5 -9 5 3 8 11 13 17 11 7 -1 10 2 7 7 -3 5 12 47 34 93 49 105 71 206 80 378 4 74 7 119 8 101 2 -26 5 -32 13 -24 20 20 5 473 -20 618 -20 118 -62 279 -82 317 -6 11 -9 22 -6 24 2 3 12 -13 21 -36 9 -22 20 -40 26 -40 5 0 34 9 64 20 93 35 149 115 172 243 l6 37 -221 0 -221 0 40 -61 c21 -33 46 -80 56 -104 9 -25 20 -42 25 -39 5 3 9 -7 9 -21 0 -15 7 -52 16 -82 9 -30 14 -57 11 -59 -3 -3 -8 9 -12 26 -13 58 -73 201 -115 271 -35 58 -45 69 -68 69 -27 0 -27 -1 -28 -68 -1 -37 -9 -94 -17 -127 -12 -47 -16 -52 -15 -25 1 19 -4 45 -10 57 -7 12 -12 25 -12 30 1 4 7 -3 14 -16 l14 -25 5 30 c6 30 10 83 8 122 -1 21 -4 22 -101 22 -94 0 -100 -1 -100 -20 0 -12 8 -33 17 -47 10 -15 13 -24 6 -20 -9 6 -10 0 -1 -24 10 -29 9 -34 -12 -51 -23 -18 -16 -25 9 -9 10 6 20 3 32 -12 l18 -22 43 46 c24 25 34 34 22 20 -12 -14 -42 -58 -67 -98 -36 -57 -53 -74 -78 -81 l-33 -8 43 -34 c120 -97 123 -101 117 -142 -5 -28 -3 -38 7 -38 35 0 67 72 67 150 -1 30 6 80 14 110 9 30 13 39 10 20 -23 -155 -18 -203 44 -440 16 -63 32 -140 36 -170 l5 -55 -14 65 c-38 163 -63 202 -185 285 -114 78 -260 81 -369 8 -125 -82 -201 -174 -201 -243 0 -49 -31 -253 -37 -246 -2 2 1 39 7 83 6 43 15 218 20 388 9 325 19 404 68 533 l20 52 -33 0 c-28 0 -42 -10 -90 -62 -31 -35 -74 -98 -96 -141 -42 -85 -51 -88 -21 -9 21 55 63 118 115 175 l35 37 -209 0 c-198 0 -209 -1 -209 -19z m1159 -161 l-1 -25 -8 25 c-4 14 -8 19 -9 11 -1 -8 -3 -12 -6 -10 -2 3 -2 15 2 28 7 29 23 8 22 -29z m60 -830 c1 19 7 44 12 55 13 29 1 -89 -22 -218 -22 -118 -77 -289 -115 -354 -32 -55 -69 -83 -108 -82 l-31 2 30 6 c17 3 37 11 45 16 52 35 115 180 154 357 l6 28 -92 -5 c-51 -2 -82 -2 -68 1 68 14 92 27 105 57 l13 30 17 -26 c9 -15 21 -24 26 -21 5 3 10 56 11 117 1 92 2 102 8 57 5 -44 7 -48 9 -20z m-860 -70 c0 -9 -4 -8 -9 5 -5 11 -9 27 -9 35 0 9 4 8 9 -5 5 -11 9 -27 9 -35z m28 -34 c-5 -29 3 -50 45 -123 101 -177 243 -350 307 -375 41 -15 109 -11 139 8 34 23 59 27 68 12 4 -7 3 -8 -4 -4 -7 4 -16 -2 -21 -16 -5 -13 -20 -34 -35 -47 -52 -49 -145 -7 -253 115 -85 97 -177 228 -221 319 -40 81 -64 145 -43 115 9 -12 11 -11 11 8 0 12 3 22 6 22 4 0 4 -15 1 -34z m213 23 c0 -5 5 -7 10 -4 6 3 10 -1 10 -10 0 -20 -28 -31 -42 -17 -6 6 -8 18 -5 26 7 18 27 22 27 5z m430 1 c0 -5 4 -9 9 -7 16 4 13 -18 -3 -28 -20 -12 -39 5 -30 28 7 18 24 23 24 7z m-498 -98 c18 -6 44 -13 58 -15 14 -2 0 -5 -30 -5 -70 -1 -134 10 -130 23 1 6 11 23 23 39 l20 28 13 -30 c8 -20 23 -33 46 -40z m457 -9 c2 -2 0 -3 -6 -3 -6 0 -21 9 -34 21 l-24 20 30 -17 c17 -10 32 -19 34 -21z m282 -580 c-5 -10 -24 -31 -42 -48 -31 -29 -31 -28 5 18 40 49 54 60 37 30z"/>
 <path d="M1071 379 c-15 -12 -40 -19 -70 -20 l-46 0 31 -16 c40 -20 78 -11 100 22 21 33 15 38 -15 14z"/>
 <path d="M699 1973 c-12 -33 -45 -172 -53 -226 l-5 -39 31 44 c34 48 56 73 43 48 -5 -8 -23 -36 -42 -61 -45 -63 -44 -100 3 -141 20 -18 45 -53 56 -77 19 -46 33 -61 55 -61 7 0 10 13 7 38 -5 44 2 54 76 109 80 59 87 69 50 76 -24 5 -40 22 -76 79 -26 40 -56 85 -68 99 -12 14 -2 5 21 -20 51 -54 65 -48 89 38 9 31 21 61 26 68 5 7 7 21 3 33 -6 18 -14 20 -106 20 -99 0 -100 0 -110 -27z"/>
 <path d="M985 1773 c-14 -83 -18 -95 -41 -122 -13 -16 -46 -43 -73 -60 -46 -30 -49 -35 -53 -80 l-3 -47 69 18 c85 22 143 23 219 3 32 -8 62 -15 67 -15 6 0 10 20 10 45 0 44 -2 46 -54 80 -83 53 -107 93 -110 187 -1 41 -24 34 -31 -9z"/>
 <path d="M937 1745 c-36 -46 -37 -50 -6 -51 22 -1 25 3 21 19 -3 14 -1 18 6 13 8 -5 12 3 12 23 0 17 -1 31 -2 31 -2 0 -15 -16 -31 -35z"/>
 <path d="M1030 1766 c0 -23 31 -76 45 -76 26 0 23 15 -11 52 -19 21 -34 32 -34 24z"/>
 <path d="M640 1588 c-1 -13 -3 -85 -5 -162 l-4 -138 62 59 c34 33 72 65 85 72 27 14 29 31 4 31 -24 0 -43 22 -71 82 -12 25 -33 54 -46 62 -24 16 -25 16 -25 -6z"/>
 <path d="M1257 1474 c-10 -13 -27 -24 -37 -24 -11 0 -20 -4 -20 -10 0 -5 3 -10 8 -10 4 0 32 -21 62 -47 30 -26 50 -41 44 -33 -12 16 -20 45 -30 106 -3 21 -7 40 -7 41 -1 0 -10 -10 -20 -23z"/>
 </g>
<g id="layer106" fill="#3c251b" stroke="none">
 <path d="M190 1981 c0 -10 9 -49 21 -86 23 -77 73 -139 134 -166 52 -24 63 -24 68 4 4 18 4 17 6 -6 1 -19 5 -26 13 -21 8 5 9 0 5 -17 -4 -13 -7 -35 -7 -49 l-1 -25 -11 25 c-9 22 -13 8 -29 -95 -46 -304 -48 -526 -8 -800 30 -209 75 -326 172 -454 52 -68 152 -144 225 -171 63 -24 191 -43 207 -31 5 5 26 7 45 5 149 -15 207 -15 250 0 25 9 50 18 55 19 6 1 16 10 24 20 7 10 19 16 26 13 11 -4 60 41 96 88 11 16 11 18 0 12 -9 -6 -12 -5 -9 5 3 8 11 13 17 11 7 -1 10 2 7 7 -3 5 12 47 34 93 49 105 71 206 80 378 4 74 7 119 8 101 2 -26 5 -32 13 -24 20 20 5 473 -20 618 -20 118 -62 279 -82 317 -6 11 -9 22 -6 24 2 3 12 -13 21 -36 9 -22 20 -40 26 -40 5 0 34 9 64 20 93 35 149 115 172 243 l6 37 -221 0 -221 0 40 -61 c21 -33 46 -80 56 -104 9 -25 20 -42 25 -39 5 3 9 -7 9 -21 0 -15 7 -52 16 -82 9 -30 14 -57 11 -59 -3 -3 -8 9 -12 26 -13 58 -73 201 -115 271 -35 58 -45 69 -68 69 -27 0 -27 -1 -28 -68 -1 -37 -9 -94 -17 -127 -12 -47 -16 -52 -15 -25 1 19 -4 45 -10 57 -7 12 -12 25 -12 30 1 4 7 -3 14 -16 l14 -25 5 30 c6 30 10 83 8 122 -1 21 -4 22 -101 22 -94 0 -100 -1 -100 -20 0 -12 7 -31 16 -44 8 -14 17 -43 19 -67 2 -23 11 -49 20 -58 14 -14 19 -11 58 30 23 25 33 34 21 20 -12 -14 -42 -58 -67 -98 -36 -57 -53 -74 -78 -81 l-33 -8 43 -34 c120 -97 123 -101 117 -142 -5 -28 -3 -38 7 -38 35 0 67 72 67 150 -1 30 6 80 14 110 9 30 13 39 10 20 -23 -155 -18 -203 44 -440 16 -63 32 -140 36 -170 l5 -55 -14 65 c-38 163 -63 202 -185 285 -114 78 -260 81 -369 8 -125 -82 -201 -174 -201 -243 0 -49 -31 -253 -37 -246 -2 2 1 39 7 83 6 43 15 218 20 388 9 325 19 404 68 533 l20 52 -33 0 c-28 0 -42 -10 -90 -62 -31 -35 -74 -98 -96 -141 -42 -85 -51 -88 -21 -9 21 55 63 118 115 175 l35 37 -209 0 c-198 0 -209 -1 -209 -19z m1159 -161 l-1 -25 -8 25 c-4 14 -8 19 -9 11 -1 -8 -3 -12 -6 -10 -2 3 -2 15 2 28 7 29 23 8 22 -29z m60 -830 c1 19 7 44 12 55 13 29 1 -89 -22 -218 -22 -118 -77 -289 -115 -354 -32 -55 -69 -83 -108 -82 l-31 2 30 6 c39 8 55 19 86 61 36 48 86 186 113 311 l6 26 -88 -5 c-76 -4 -95 -1 -137 17 -26 12 -46 23 -43 26 2 3 22 -4 44 -16 68 -35 174 -2 174 54 0 17 2 17 21 -7 11 -14 25 -26 30 -26 5 0 10 51 11 113 1 91 3 102 8 57 5 -44 7 -48 9 -20z m-860 -70 c0 -9 -4 -8 -9 5 -5 11 -9 27 -9 35 0 9 4 8 9 -5 5 -11 9 -27 9 -35z m28 -32 c-6 -44 21 -102 40 -86 8 6 10 14 4 17 -5 3 4 21 20 39 23 26 29 29 29 14 0 -31 45 -64 92 -69 31 -3 54 2 82 16 22 11 42 19 44 16 3 -3 -16 -14 -42 -26 -39 -17 -63 -20 -136 -17 -49 1 -91 0 -95 -4 -9 -8 81 -152 155 -246 63 -82 130 -144 169 -157 40 -12 101 -7 129 11 34 23 59 27 68 12 4 -7 3 -8 -4 -4 -7 4 -16 -2 -21 -16 -5 -13 -20 -34 -35 -47 -52 -49 -145 -7 -253 115 -85 97 -177 228 -221 319 -40 81 -64 145 -43 115 9 -12 11 -11 11 8 0 12 3 22 6 22 4 0 4 -15 1 -32z m213 21 c0 -5 5 -7 10 -4 6 3 10 -1 10 -10 0 -20 -28 -31 -42 -17 -6 6 -8 18 -5 26 7 18 27 22 27 5z m430 1 c0 -5 4 -9 9 -7 16 4 13 -18 -3 -28 -20 -12 -39 5 -30 28 7 18 24 23 24 7z m-316 -151 c-11 -18 -87 -49 -119 -48 -23 0 -18 4 23 15 30 8 63 21 75 29 26 18 31 19 21 4z m288 -29 c9 0 20 -5 23 -10 4 -7 -3 -9 -22 -5 -41 9 -103 37 -103 46 0 4 19 -1 43 -11 23 -11 50 -20 59 -20z m269 -507 c-5 -10 -24 -31 -42 -48 -31 -29 -31 -28 5 18 40 49 54 60 37 30z"/>
 <path d="M1071 379 c-15 -12 -40 -19 -70 -20 l-46 0 31 -16 c40 -20 78 -11 100 22 21 33 15 38 -15 14z"/>
 <path d="M699 1973 c-12 -33 -45 -172 -53 -226 l-5 -39 31 44 c34 48 56 73 43 48 -5 -8 -23 -36 -42 -61 -45 -63 -44 -100 3 -141 20 -18 45 -53 56 -77 19 -46 33 -61 55 -61 7 0 10 13 7 38 -5 44 2 54 76 109 80 59 87 69 50 76 -24 5 -40 22 -76 79 -26 40 -56 85 -68 99 -12 14 -2 5 21 -20 51 -54 65 -48 89 38 9 31 21 61 26 68 5 7 7 21 3 33 -6 18 -14 20 -106 20 -99 0 -100 0 -110 -27z"/>
 <path d="M986 1778 c-3 -13 -8 -40 -11 -60 -7 -46 -40 -86 -104 -127 -46 -30 -49 -35 -53 -80 l-3 -47 69 18 c85 22 143 23 219 3 32 -8 62 -15 67 -15 6 0 10 20 10 45 0 42 -3 47 -42 72 -89 56 -107 82 -123 176 -7 41 -22 49 -29 15z"/>
 <path d="M937 1745 c-36 -46 -37 -50 -6 -51 22 -1 25 3 21 19 -3 14 -1 18 6 13 8 -5 12 3 12 23 0 17 -1 31 -2 31 -2 0 -15 -16 -31 -35z"/>
 <path d="M1030 1766 c0 -23 31 -76 45 -76 26 0 23 15 -11 52 -19 21 -34 32 -34 24z"/>
 <path d="M640 1588 c-1 -13 -3 -85 -5 -162 l-4 -138 62 59 c34 33 72 65 85 72 27 14 29 31 4 31 -24 0 -43 22 -71 82 -12 25 -33 54 -46 62 -24 16 -25 16 -25 -6z"/>
 <path d="M1257 1474 c-10 -13 -27 -24 -37 -24 -11 0 -20 -4 -20 -10 0 -5 3 -10 8 -10 4 0 32 -21 62 -47 30 -26 50 -41 44 -33 -12 16 -20 45 -30 106 -3 21 -7 40 -7 41 -1 0 -10 -10 -20 -23z"/>
 </g>
<g id="layer107" fill="#322528" stroke="none">
 <path d="M190 1981 c0 -10 9 -48 20 -83 24 -79 81 -148 141 -172 44 -18 54 -15 62 19 3 13 5 7 7 -15 l1 -35 18 50 c29 79 57 129 111 194 l51 61 -206 0 c-195 0 -205 -1 -205 -19z"/>
 <path d="M696 1952 c-19 -56 -46 -179 -46 -207 l1 -20 15 20 c63 81 67 77 7 -6 -44 -62 -45 -107 -4 -132 18 -11 40 -39 57 -75 15 -31 32 -60 38 -64 25 -17 34 -8 30 30 -5 44 2 54 76 109 80 59 87 69 50 76 -24 5 -40 22 -76 79 -26 40 -56 85 -68 99 -12 14 -2 5 21 -20 51 -54 55 -51 89 45 28 78 27 73 25 97 -1 15 -13 17 -100 17 l-99 0 -16 -48z"/>
 <path d="M1090 1981 c0 -11 9 -36 21 -55 13 -23 18 -43 14 -57 -5 -13 -3 -19 3 -15 6 3 8 -1 5 -12 -2 -10 3 -24 12 -32 14 -12 21 -8 58 31 23 25 33 34 21 20 -12 -14 -42 -58 -67 -98 -36 -57 -53 -74 -78 -81 l-33 -8 43 -34 c120 -97 123 -101 117 -142 -7 -44 9 -51 40 -17 17 19 19 39 21 178 0 86 6 172 12 191 6 19 11 61 11 92 l0 58 -100 0 c-92 0 -100 -1 -100 -19z"/>
 <path d="M1380 1992 c0 -4 5 -13 10 -18 6 -6 29 -44 50 -85 23 -42 40 -65 40 -54 0 18 2 18 20 -5 11 -14 29 -49 41 -77 20 -49 23 -52 48 -46 122 30 193 112 216 251 l7 42 -216 0 c-119 0 -216 -4 -216 -8z"/>
 <path d="M555 1815 c-56 -90 -90 -169 -111 -262 -25 -105 -28 -105 -34 -3 l-5 95 -19 -140 c-38 -283 -38 -542 -1 -772 24 -148 42 -209 92 -313 104 -216 322 -357 498 -322 45 9 67 8 118 -4 128 -33 229 -2 326 102 117 124 176 298 191 559 4 72 8 117 9 100 2 -26 3 -27 11 -10 25 57 2 468 -35 650 -21 101 -37 130 -31 55 15 -161 16 -200 9 -200 -5 0 -18 49 -30 108 -13 59 -34 144 -49 188 -29 87 -74 188 -80 181 -3 -2 7 -61 21 -129 14 -69 25 -147 25 -174 l-1 -49 -13 31 c-8 17 -26 50 -42 75 -15 24 -36 64 -46 89 l-19 45 6 -50 c4 -27 17 -106 31 -175 60 -314 67 -443 33 -630 -25 -140 -89 -338 -130 -401 -36 -57 -85 -84 -124 -69 -35 13 -32 14 -50 -20 -32 -62 -91 -69 -170 -20 -92 57 -270 285 -345 442 -49 102 -98 285 -109 409 -17 184 22 425 95 597 20 46 34 85 31 88 -3 3 -26 -29 -52 -71z m-128 -662 c-3 -10 -5 -2 -5 17 0 19 2 27 5 18 2 -10 2 -26 0 -35z"/>
 <path d="M986 1778 c-3 -13 -8 -40 -11 -60 -7 -46 -40 -86 -104 -127 -46 -30 -49 -35 -53 -80 l-3 -47 69 18 c85 22 143 23 219 3 32 -8 62 -15 67 -15 6 0 10 20 10 45 0 42 -3 47 -42 72 -89 56 -107 82 -123 176 -7 41 -22 49 -29 15z"/>
 <path d="M937 1745 c-37 -44 -37 -50 -6 -51 22 -1 25 3 21 19 -3 14 -1 18 6 13 8 -5 12 3 12 23 0 17 -1 31 -2 30 -2 0 -16 -16 -31 -34z"/>
 <path d="M1030 1766 c0 -23 31 -76 45 -76 26 0 23 15 -11 52 -19 21 -34 32 -34 24z"/>
 <path d="M930 1479 c-63 -11 -136 -55 -218 -133 -65 -61 -79 -87 -87 -157 -3 -30 -16 -113 -27 -184 -12 -72 -18 -142 -15 -155 10 -37 23 -53 37 -45 8 5 9 10 2 14 -6 3 2 20 19 39 23 26 29 29 29 14 0 -10 12 -29 26 -43 36 -34 119 -34 164 0 18 13 31 18 28 10 -2 -7 -22 -22 -44 -33 -33 -18 -54 -21 -137 -18 l-98 3 27 -48 c79 -137 195 -287 237 -304 21 -10 73 -14 157 -14 106 1 134 4 184 24 53 21 60 28 81 75 28 64 51 134 68 211 l14 61 -71 -8 c-77 -8 -162 9 -186 37 -16 20 -5 19 27 -2 40 -26 127 -22 158 7 14 13 25 33 25 44 0 19 3 18 24 -9 22 -27 25 -28 32 -12 15 39 -4 250 -31 352 -29 112 -46 135 -152 212 -86 61 -167 79 -273 62z m-155 -506 c-32 -2 -66 -9 -75 -16 -13 -11 -13 -10 -1 6 10 13 27 17 75 15 l61 -2 -60 -3z m521 -9 c10 -8 12 -12 4 -7 -8 4 -42 11 -75 14 l-60 6 56 1 c37 2 61 -3 75 -14z m-495 -55 c19 -10 20 -12 4 -29 -19 -21 -45 -16 -45 9 0 31 11 36 41 20z m440 1 c13 0 11 -12 -6 -35 -14 -18 -16 -18 -31 -3 -20 20 -11 53 12 44 9 -3 20 -6 25 -6z m-337 -151 c-3 -6 -27 -20 -51 -31 -35 -15 -57 -18 -96 -14 -29 4 -56 11 -61 16 -6 6 1 7 20 1 51 -14 128 -3 169 25 24 17 28 17 19 3z m211 1 c3 -6 26 -15 51 -21 49 -13 74 -34 27 -24 -42 9 -103 37 -103 47 0 11 17 10 25 -2z"/>
 </g>
<g id="layer108" fill="#552813" stroke="none">
 <path d="M190 1981 c0 -10 9 -48 20 -83 24 -79 81 -148 141 -172 44 -18 54 -15 62 19 3 13 5 7 7 -15 l1 -35 18 50 c29 79 57 129 111 194 l51 61 -206 0 c-195 0 -205 -1 -205 -19z"/>
 <path d="M696 1952 c-19 -56 -46 -179 -46 -207 l1 -20 15 20 c63 81 67 77 7 -6 -44 -62 -45 -107 -4 -132 18 -11 40 -39 57 -75 15 -31 32 -60 38 -64 25 -17 34 -8 30 30 -5 44 2 54 76 109 80 59 87 69 50 76 -24 5 -40 22 -76 79 -26 40 -56 85 -68 99 -12 14 -2 5 21 -20 51 -54 55 -51 89 45 28 78 27 73 25 97 -1 15 -13 17 -100 17 l-99 0 -16 -48z"/>
 <path d="M1090 1981 c0 -11 9 -36 21 -55 12 -20 21 -52 21 -71 0 -19 7 -40 15 -46 11 -10 22 -4 56 32 23 25 33 34 21 20 -12 -14 -42 -58 -67 -98 -36 -57 -53 -74 -78 -81 l-33 -8 43 -34 c120 -97 123 -101 117 -142 -7 -44 9 -51 40 -17 17 19 19 39 21 178 0 86 6 172 12 191 6 19 11 61 11 92 l0 58 -100 0 c-92 0 -100 -1 -100 -19z"/>
 <path d="M1380 1992 c0 -4 5 -13 10 -18 6 -6 29 -44 50 -85 23 -42 40 -65 40 -54 0 18 2 18 20 -5 11 -14 29 -49 41 -77 20 -49 23 -52 48 -46 122 30 193 112 216 251 l7 42 -216 0 c-119 0 -216 -4 -216 -8z"/>
 <path d="M555 1815 c-56 -90 -90 -169 -111 -262 -25 -105 -28 -105 -34 -3 l-5 95 -19 -140 c-38 -283 -38 -542 -1 -772 24 -148 42 -209 92 -313 104 -216 322 -357 498 -322 45 9 67 8 118 -4 128 -33 229 -2 326 102 117 124 176 298 191 559 4 72 8 117 9 100 2 -26 3 -27 11 -10 25 57 2 468 -35 650 -21 101 -37 130 -31 55 15 -161 16 -200 9 -200 -5 0 -18 49 -30 108 -13 59 -34 144 -49 188 -29 87 -74 188 -80 181 -3 -2 7 -61 21 -129 14 -69 25 -147 25 -174 l-1 -49 -13 31 c-8 17 -26 50 -42 75 -15 24 -36 64 -46 89 l-19 45 6 -50 c4 -27 17 -106 31 -175 60 -314 67 -443 33 -630 -25 -140 -89 -338 -130 -401 -36 -57 -85 -84 -124 -69 -35 13 -32 14 -50 -20 -32 -62 -91 -69 -170 -20 -92 57 -270 285 -345 442 -49 102 -98 285 -109 409 -17 184 22 425 95 597 20 46 34 85 31 88 -3 3 -26 -29 -52 -71z m-128 -662 c-3 -10 -5 -2 -5 17 0 19 2 27 5 18 2 -10 2 -26 0 -35z"/>
 <path d="M986 1778 c-3 -13 -8 -40 -11 -60 -7 -46 -40 -86 -104 -127 -46 -30 -49 -35 -53 -80 l-3 -47 69 18 c85 22 143 23 219 3 32 -8 62 -15 67 -15 6 0 10 20 10 45 0 42 -3 47 -42 72 -89 56 -107 82 -123 176 -7 41 -22 49 -29 15z"/>
 <path d="M937 1745 c-37 -44 -37 -50 -6 -51 22 -1 25 3 21 19 -3 14 -1 18 6 13 8 -5 12 3 12 23 0 17 -1 31 -2 30 -2 0 -16 -16 -31 -34z"/>
 <path d="M1030 1766 c0 -23 31 -76 45 -76 26 0 23 15 -11 52 -19 21 -34 32 -34 24z"/>
 <path d="M930 1479 c-63 -11 -136 -55 -218 -133 -70 -66 -80 -86 -92 -194 -5 -50 -17 -125 -25 -169 -17 -91 -19 -132 -5 -153 9 -12 16 -8 45 24 30 33 35 36 35 18 0 -26 42 -60 85 -68 43 -8 100 11 121 39 14 20 15 20 12 3 -2 -10 -21 -28 -43 -40 -34 -18 -54 -21 -138 -18 l-98 3 27 -48 c79 -137 195 -287 237 -304 21 -10 73 -14 157 -14 106 1 134 4 184 24 54 22 60 27 82 78 28 62 74 215 74 244 0 17 -7 19 -87 17 -98 -3 -165 19 -171 57 -3 19 -2 18 13 -2 46 -64 205 -40 205 31 0 19 3 18 24 -9 22 -27 25 -28 32 -12 15 39 -4 250 -31 352 -29 112 -46 135 -152 212 -86 61 -167 79 -273 62z m-159 -509 c-45 -5 -68 -13 -78 -26 -7 -10 -13 -14 -13 -9 0 5 7 17 17 27 12 14 30 18 77 17 l61 -2 -64 -7z m527 -6 c12 -8 22 -20 22 -26 0 -7 -6 -3 -14 8 -11 14 -31 21 -78 25 l-63 6 55 1 c36 1 63 -3 78 -14z m-497 -55 c19 -10 20 -12 4 -29 -19 -21 -45 -16 -45 9 0 31 11 36 41 20z m447 -4 c6 -5 -18 -45 -27 -45 -16 0 -33 30 -27 46 4 11 13 13 28 8 13 -3 24 -8 26 -9z m-338 -145 c0 -18 -82 -50 -125 -49 -22 0 -58 7 -80 14 l-40 14 40 -7 c66 -10 111 -6 151 15 47 25 54 26 54 13z m231 -10 c28 -12 68 -20 109 -21 l65 -2 -56 -9 c-63 -11 -123 1 -161 32 -30 25 -12 25 43 0z"/>
 </g>
<g id="layer109" fill="#4e352b" stroke="none">
 <path d="M194 1963 c21 -117 71 -194 152 -233 49 -24 56 -22 62 18 6 43 12 39 13 -9 l0 -44 18 57 c24 74 64 141 119 200 l45 48 -208 0 -207 0 6 -37z"/>
 <path d="M697 1948 c-17 -54 -47 -190 -47 -211 0 -14 52 60 81 116 23 43 32 41 77 -15 27 -35 30 -36 44 -20 16 18 58 139 58 167 0 12 -16 15 -98 15 l-98 0 -17 -52z"/>
 <path d="M1097 1986 c-3 -8 4 -32 15 -55 11 -23 21 -55 23 -71 1 -16 8 -36 15 -45 11 -13 16 -10 41 24 39 52 56 58 72 24 l12 -27 6 30 c4 16 7 53 8 82 l1 52 -94 0 c-71 0 -95 -3 -99 -14z"/>
 <path d="M1396 1973 c10 -16 33 -57 52 -93 19 -36 32 -55 29 -42 -11 45 12 20 50 -55 21 -43 39 -79 39 -81 1 -1 28 7 60 19 101 37 154 109 180 247 l7 32 -218 0 -217 0 18 -27z"/>
 <path d="M555 1815 c-56 -90 -90 -169 -111 -262 -25 -105 -28 -105 -34 -3 l-5 95 -19 -140 c-38 -283 -38 -542 -1 -772 24 -148 42 -209 92 -313 104 -216 322 -357 498 -322 45 9 67 8 118 -4 128 -33 229 -2 326 102 117 124 176 298 191 559 4 72 8 117 9 100 2 -26 3 -27 11 -10 25 57 2 468 -35 650 -21 101 -37 130 -31 55 15 -161 16 -200 9 -200 -5 0 -18 49 -30 108 -13 59 -34 144 -49 188 -29 87 -74 188 -80 181 -3 -2 7 -61 21 -129 14 -69 25 -147 25 -174 l-1 -49 -13 31 c-8 17 -26 50 -42 75 -15 24 -36 64 -46 89 l-19 45 6 -50 c4 -27 17 -106 31 -175 60 -314 67 -443 33 -630 -25 -140 -89 -338 -130 -401 -36 -57 -85 -84 -124 -69 -35 13 -32 14 -50 -20 -32 -62 -91 -69 -170 -20 -92 57 -270 285 -345 442 -49 102 -98 285 -109 409 -17 184 22 425 95 597 20 46 34 85 31 88 -3 3 -26 -29 -52 -71z m-128 -662 c-3 -10 -5 -2 -5 17 0 19 2 27 5 18 2 -10 2 -26 0 -35z"/>
 <path d="M730 1824 c-13 -26 -39 -66 -57 -90 -44 -57 -45 -103 -4 -127 18 -10 41 -40 57 -72 14 -31 29 -57 33 -59 4 -3 6 13 6 34 0 47 26 77 102 120 29 17 53 34 53 38 0 4 -9 13 -20 20 -11 7 -45 50 -76 97 -31 47 -59 85 -62 85 -4 0 -18 -21 -32 -46z"/>
 <path d="M1175 1785 c-31 -47 -65 -91 -75 -98 -11 -6 -20 -15 -20 -19 0 -5 31 -28 68 -52 71 -45 100 -86 89 -126 -8 -31 3 -24 17 13 10 23 13 73 11 182 -3 145 -8 185 -25 185 -5 0 -34 -38 -65 -85z"/>
 <path d="M985 1753 c-11 -74 -32 -109 -91 -148 -47 -32 -73 -55 -61 -55 3 0 21 7 40 15 23 10 69 15 127 15 58 0 104 -5 127 -15 19 -8 37 -15 40 -15 13 0 -15 24 -61 54 -58 37 -80 73 -91 149 -4 26 -11 47 -15 47 -4 0 -11 -21 -15 -47z"/>
 <path d="M885 1464 c-57 -20 -185 -122 -221 -176 -23 -34 -33 -63 -38 -110 -4 -34 -16 -118 -27 -186 -20 -117 -20 -172 0 -172 5 0 23 19 40 42 29 40 31 41 31 16 0 -48 75 -87 139 -73 16 3 41 17 54 29 15 14 30 20 38 16 9 -6 2 -15 -22 -29 -55 -34 -103 -43 -190 -35 l-80 7 32 -54 c47 -81 123 -188 173 -245 39 -45 52 -52 102 -63 110 -22 227 -9 325 34 30 14 39 27 62 85 28 72 67 205 67 228 0 11 -14 13 -68 7 -76 -7 -128 3 -181 36 -26 16 -31 23 -21 29 9 6 19 2 27 -10 20 -28 84 -43 131 -30 54 14 76 41 68 83 -11 59 -27 71 -103 78 l-68 6 65 1 c36 1 70 -2 77 -6 7 -4 19 -25 28 -46 9 -22 24 -50 33 -64 l16 -25 7 24 c20 72 1 256 -41 392 -20 65 -25 71 -102 132 -45 35 -102 71 -127 80 -55 19 -172 18 -226 -1z m155 -319 c24 -13 21 -14 -40 -14 -61 0 -64 1 -40 14 14 8 32 14 40 14 8 0 26 -6 40 -14z m-235 -172 c-86 -7 -105 -13 -120 -41 -8 -15 -14 -23 -15 -19 0 13 22 51 34 59 6 4 40 7 76 6 41 -1 50 -3 25 -5z m-4 -64 c19 -10 20 -12 4 -29 -19 -21 -45 -16 -45 9 0 31 11 36 41 20z m447 -4 c6 -5 -18 -45 -27 -45 -16 0 -33 30 -27 46 4 11 13 13 28 8 13 -3 24 -8 26 -9z m-340 -147 c-7 -21 -70 -48 -110 -48 -44 0 -136 19 -142 29 -3 4 23 2 57 -5 53 -11 70 -11 114 2 29 8 55 20 58 25 9 14 27 11 23 -3z m242 -9 c38 -14 71 -20 112 -17 32 2 58 0 58 -4 0 -8 -9 -9 -100 -13 -57 -3 -125 19 -134 42 -7 17 0 16 64 -8z"/>
 </g>
<g id="layer110" fill="#703719" stroke="none">
 <path d="M196 1963 c11 -62 44 -141 72 -175 14 -17 49 -41 77 -54 l50 -24 12 38 11 37 2 -40 1 -40 23 61 c28 77 59 127 115 187 l44 47 -207 0 -207 0 7 -37z"/>
 <path d="M697 1948 c-17 -54 -47 -190 -47 -211 0 -14 52 60 81 116 23 43 32 41 77 -15 27 -35 30 -36 44 -20 16 18 58 139 58 167 0 12 -16 15 -98 15 l-98 0 -17 -52z"/>
 <path d="M1097 1986 c-3 -8 4 -32 15 -55 11 -23 21 -55 23 -71 1 -16 8 -36 15 -45 11 -13 16 -10 41 24 39 52 56 58 72 24 l12 -27 6 30 c4 16 7 53 8 82 l1 52 -94 0 c-71 0 -95 -3 -99 -14z"/>
 <path d="M1396 1973 c10 -16 33 -57 52 -93 19 -36 32 -55 29 -42 -11 44 12 20 50 -53 28 -56 43 -75 59 -75 32 0 121 48 148 81 26 31 59 111 70 172 l7 37 -217 0 -216 0 18 -27z"/>
 <path d="M740 1840 c-7 -16 -32 -58 -56 -92 -24 -35 -44 -74 -44 -86 0 -15 17 -40 44 -66 24 -24 47 -57 51 -74 11 -50 30 -58 30 -12 0 47 26 77 102 120 29 17 53 34 53 38 0 4 -9 13 -20 20 -11 7 -45 50 -76 97 -31 47 -59 85 -64 85 -4 0 -13 -13 -20 -30z"/>
 <path d="M1175 1785 c-31 -47 -65 -91 -75 -98 -11 -6 -20 -15 -20 -19 0 -5 31 -28 68 -52 71 -45 100 -86 89 -126 -8 -31 3 -24 17 13 10 23 13 72 11 177 -3 143 -10 190 -26 190 -4 0 -33 -38 -64 -85z"/>
 <path d="M985 1753 c-11 -74 -32 -109 -91 -148 -47 -32 -73 -55 -61 -55 3 0 21 7 40 15 23 10 69 15 127 15 58 0 104 -5 127 -15 19 -8 37 -15 40 -15 13 0 -15 24 -61 54 -58 37 -80 73 -91 149 -4 26 -11 47 -15 47 -4 0 -11 -21 -15 -47z"/>
 <path d="M885 1464 c-58 -20 -185 -122 -221 -176 -24 -36 -33 -62 -39 -115 -4 -37 -15 -117 -26 -178 -22 -126 -23 -144 -9 -165 9 -13 15 -10 36 15 14 17 34 50 45 75 11 24 26 48 32 52 7 4 41 7 77 6 l65 -1 -69 -7 c-76 -8 -91 -19 -102 -77 -7 -40 7 -60 55 -80 43 -18 102 -9 134 21 15 14 30 20 38 16 9 -6 2 -15 -22 -29 -55 -34 -103 -43 -191 -35 -79 7 -80 7 -67 -14 26 -42 165 -55 238 -22 53 24 68 25 50 3 -36 -42 -127 -55 -214 -28 -27 8 -50 13 -52 11 -5 -5 121 -184 169 -239 41 -48 53 -55 104 -65 107 -22 218 -11 314 29 34 14 49 28 59 52 26 65 72 210 67 214 -2 3 -28 0 -56 -6 -28 -6 -70 -11 -93 -11 -45 0 -127 32 -127 50 0 14 7 13 68 -10 52 -20 126 -24 187 -11 22 4 31 13 33 30 4 23 3 23 -65 16 -77 -7 -128 3 -182 36 -26 16 -31 23 -21 29 9 6 19 2 27 -10 20 -28 84 -43 131 -30 54 14 76 41 68 83 -11 59 -27 71 -103 78 l-68 6 65 1 c36 1 70 -2 77 -6 7 -4 19 -25 28 -46 9 -22 24 -50 33 -64 l16 -25 7 24 c20 72 1 256 -41 392 -20 65 -25 71 -102 132 -45 35 -102 71 -127 80 -55 19 -172 18 -226 -1z m155 -319 c24 -13 21 -14 -40 -14 -61 0 -64 1 -40 14 14 8 32 14 40 14 8 0 26 -6 40 -14z m-210 -207 c26 -28 25 -46 -2 -50 -19 -2 -23 -9 -22 -35 2 -27 -2 -33 -18 -33 -46 0 -94 58 -68 84 7 7 10 6 10 -2 0 -7 7 -12 15 -12 8 0 15 6 15 14 0 21 25 26 48 11 26 -19 37 -7 15 17 -20 22 -35 23 -76 3 l-32 -16 24 21 c30 26 65 26 91 -2z m428 6 c27 -19 30 -54 3 -54 -22 0 -34 -25 -26 -51 5 -15 1 -19 -17 -19 -36 0 -68 35 -67 73 1 18 3 24 6 15 6 -24 25 -23 41 3 12 19 15 20 37 5 30 -20 48 0 19 21 -18 14 -37 13 -79 -2 -20 -7 -20 -6 -1 9 25 20 55 20 84 0z"/>
 <path d="M1455 1267 c17 -338 -101 -809 -217 -872 -31 -17 -43 -18 -78 -9 -39 11 -41 10 -55 -16 -8 -16 -27 -38 -41 -49 -108 -85 -331 115 -484 433 -46 97 -110 278 -110 314 0 9 -5 24 -10 32 -11 18 -5 -58 17 -190 18 -109 50 -226 97 -352 18 -48 32 -88 30 -88 -2 0 -21 26 -42 58 -82 120 -142 265 -161 391 -16 99 -24 87 -17 -24 15 -226 47 -370 113 -505 48 -98 150 -201 248 -250 66 -33 76 -35 172 -35 99 0 103 1 135 30 27 25 29 26 10 4 l-24 -27 39 -13 c21 -8 70 -13 109 -13 137 0 243 83 330 259 64 129 84 235 83 445 0 91 -4 185 -8 210 -7 43 -7 44 -14 15 -3 -16 -9 -66 -13 -110 -10 -120 -48 -259 -100 -360 -58 -114 -69 -126 -38 -40 58 159 69 234 67 460 0 174 -4 225 -21 300 l-21 90 4 -88z"/>
 </g>
<g id="layer111" fill="#683b30" stroke="none">
 <path d="M1790 1958 c-32 -108 -85 -175 -173 -218 -66 -31 -49 -44 20 -15 88 37 129 90 159 206 18 70 14 90 -6 27z"/>
 <path d="M200 1948 c0 -31 41 -128 67 -159 25 -29 57 -49 108 -69 41 -15 29 6 -19 34 -56 32 -92 75 -128 151 -15 33 -28 52 -28 43z"/>
 <path d="M740 1843 c0 -6 -23 -46 -51 -88 -55 -82 -61 -111 -10 -46 35 43 76 129 67 138 -3 4 -6 1 -6 -4z"/>
 <path d="M640 1644 c0 -3 20 -26 45 -50 42 -41 47 -27 6 19 -18 21 -51 41 -51 31z"/>
 <path d="M1455 1267 c17 -338 -101 -809 -217 -872 -31 -17 -43 -18 -78 -9 -39 11 -41 10 -55 -16 -8 -16 -27 -38 -41 -49 -108 -85 -331 115 -484 433 -46 97 -110 278 -110 314 0 9 -5 24 -10 32 -11 18 -5 -58 17 -190 18 -109 50 -226 97 -352 18 -48 32 -88 30 -88 -2 0 -21 26 -42 58 -82 120 -142 265 -161 391 -16 99 -24 87 -17 -24 15 -226 47 -370 113 -505 48 -98 150 -201 248 -250 66 -33 76 -35 172 -35 99 0 103 1 135 30 27 25 29 26 10 4 l-24 -27 39 -13 c21 -8 70 -13 109 -13 137 0 243 83 330 259 64 129 84 235 83 445 0 91 -4 185 -8 210 -7 43 -7 44 -14 15 -3 -16 -9 -66 -13 -110 -10 -120 -48 -259 -100 -360 -58 -114 -69 -126 -38 -40 58 159 69 234 67 460 0 174 -4 225 -21 300 l-21 90 4 -88z"/>
 <path d="M917 1295 c-38 -25 -40 -37 -9 -50 12 -5 22 -13 22 -18 0 -4 6 -5 13 -1 8 5 8 3 -2 -9 -7 -9 -17 -14 -22 -11 -5 3 -8 0 -7 -8 2 -7 -3 -12 -10 -10 -6 1 -11 -4 -10 -10 2 -7 -2 -12 -9 -11 -12 3 -12 -14 0 -33 4 -7 0 -17 -8 -24 -15 -12 -11 -35 4 -26 4 3 8 -1 8 -9 0 -8 -4 -12 -8 -10 -4 3 -6 -3 -4 -12 1 -10 8 -17 14 -15 6 1 15 -8 20 -21 5 -12 17 -29 26 -37 20 -16 63 -21 71 -8 3 5 12 4 20 -3 11 -9 14 -8 14 6 0 10 3 15 7 12 3 -4 15 0 25 10 10 9 18 13 18 8 0 -4 7 -2 15 5 8 7 12 16 9 21 -3 5 1 19 8 31 14 27 19 70 6 62 -7 -5 -12 20 -5 30 6 11 -47 54 -62 51 -10 -2 -18 3 -18 10 0 8 3 13 6 13 8 -2 44 13 58 25 14 10 6 22 -38 50 -36 24 -112 20 -152 -8z m140 -148 c20 -21 -59 -37 -101 -21 -21 8 -20 21 2 28 20 5 91 0 99 -7z"/>
 <path d="M713 960 c-27 -11 -52 -84 -37 -108 6 -10 27 -25 47 -35 47 -24 105 -16 143 19 23 22 26 31 21 65 -8 60 -20 69 -91 68 -33 0 -71 -4 -83 -9z m117 -22 c26 -28 25 -46 -2 -50 -19 -2 -23 -9 -22 -35 2 -27 -2 -33 -18 -33 -46 0 -94 58 -68 84 7 7 10 6 10 -2 0 -7 7 -12 15 -12 8 0 15 6 15 14 0 21 25 26 48 11 26 -19 37 -7 15 17 -20 22 -35 23 -76 3 l-32 -16 24 21 c30 26 65 26 91 -2z"/>
 <path d="M1131 956 c-21 -25 -25 -83 -7 -110 21 -34 83 -50 134 -36 56 14 76 41 68 85 -11 59 -35 75 -115 75 -47 0 -72 -4 -80 -14z m127 -12 c27 -19 30 -54 3 -54 -22 0 -34 -25 -26 -51 5 -15 1 -19 -17 -19 -36 0 -68 35 -67 73 1 18 3 24 6 15 6 -24 25 -23 41 3 12 19 15 20 37 5 30 -20 48 0 19 21 -18 14 -37 13 -79 -2 -20 -7 -20 -6 -1 9 25 20 55 20 84 0z"/>
 <path d="M973 737 c1 -6 -9 -11 -23 -12 -15 -1 -24 -6 -22 -14 1 -7 -2 -10 -7 -7 -5 3 -14 -1 -20 -8 -9 -10 -9 -16 -1 -21 8 -5 8 -11 -1 -21 -6 -7 -15 -12 -19 -9 -15 10 -3 -45 15 -66 11 -12 15 -20 9 -16 -6 3 -11 0 -11 -8 0 -8 8 -12 20 -10 15 3 16 1 8 -9 -9 -11 -5 -13 19 -11 22 2 28 -1 21 -9 -8 -9 1 -12 34 -11 24 0 47 4 52 9 5 5 2 6 -6 1 -9 -5 -12 -4 -8 3 4 5 15 9 24 8 10 -2 23 7 29 18 6 12 15 20 21 19 5 -1 10 4 10 12 0 8 -5 11 -11 8 -6 -3 -5 0 2 8 6 7 12 19 12 27 0 8 -5 10 -12 6 -10 -6 -10 -5 -1 7 10 12 10 18 0 29 -6 7 -7 10 -1 7 6 -3 11 0 11 8 0 8 -8 12 -20 10 -15 -3 -17 -2 -7 10 10 12 8 13 -10 10 -17 -3 -19 -1 -11 9 9 11 6 13 -11 12 -13 0 -22 4 -21 10 1 6 -4 11 -12 11 -8 0 -11 -5 -8 -10 4 -6 1 -7 -8 -1 -21 13 -39 14 -36 1z"/>
 </g>
<g id="layer112" fill="#5c453b" stroke="none">
 <path d="M1777 1911 c-24 -69 -89 -138 -162 -172 -34 -17 -51 -29 -39 -29 11 0 48 14 81 30 68 34 101 75 128 158 21 67 15 78 -8 13z"/>
 <path d="M206 1925 c20 -97 94 -185 169 -200 29 -6 29 -6 -8 18 -65 42 -108 89 -138 152 -18 37 -27 49 -23 30z"/>
 <path d="M686 1747 c-30 -44 -39 -63 -23 -49 21 20 84 122 75 122 -2 0 -25 -33 -52 -73z"/>
 <path d="M646 1632 c5 -4 22 -18 39 -32 22 -19 26 -20 15 -5 -19 25 -42 44 -54 45 -6 0 -6 -3 0 -8z"/>
 <path d="M1455 1267 c17 -338 -101 -809 -217 -872 -31 -17 -43 -18 -78 -9 -39 11 -41 10 -55 -16 -8 -16 -27 -38 -41 -49 -108 -85 -331 115 -484 433 -46 97 -110 278 -110 314 0 9 -5 24 -10 32 -11 18 -5 -58 17 -190 18 -109 50 -226 97 -352 18 -48 32 -88 30 -88 -2 0 -21 26 -42 58 -82 120 -142 265 -161 391 -16 99 -24 87 -17 -24 15 -226 47 -370 113 -505 48 -98 150 -201 248 -250 66 -33 76 -35 172 -35 99 0 103 1 135 30 27 25 29 26 10 4 l-24 -27 39 -13 c21 -8 70 -13 109 -13 137 0 243 83 330 259 64 129 84 235 83 445 0 91 -4 185 -8 210 -7 43 -7 44 -14 15 -3 -16 -9 -66 -13 -110 -10 -120 -48 -259 -100 -360 -58 -114 -69 -126 -38 -40 58 159 69 234 67 460 0 174 -4 225 -21 300 l-21 90 4 -88z"/>
 <path d="M917 1295 c-38 -25 -40 -37 -9 -50 12 -5 22 -13 22 -18 0 -4 6 -5 13 -1 8 5 8 3 -2 -9 -7 -9 -17 -14 -22 -11 -5 3 -8 0 -7 -8 2 -7 -3 -12 -10 -10 -6 1 -11 -4 -10 -10 2 -7 -2 -12 -9 -11 -12 3 -12 -14 0 -33 4 -7 0 -17 -8 -24 -15 -12 -11 -35 4 -26 4 3 8 -1 8 -9 0 -8 -4 -12 -8 -10 -4 3 -6 -3 -4 -12 1 -10 8 -17 14 -15 6 1 15 -8 20 -21 5 -12 17 -29 26 -37 20 -16 63 -21 71 -8 3 5 12 4 20 -3 11 -9 14 -8 14 6 0 10 3 15 7 12 3 -4 15 0 25 10 10 9 18 13 18 8 0 -4 7 -2 15 5 8 7 12 16 9 21 -3 5 1 19 8 31 14 27 19 70 6 62 -7 -5 -12 20 -5 30 6 11 -47 54 -62 51 -10 -2 -18 3 -18 10 0 8 3 13 6 13 8 -2 44 13 58 25 14 10 6 22 -38 50 -36 24 -112 20 -152 -8z m140 -148 c20 -21 -59 -37 -101 -21 -21 8 -20 21 2 28 20 5 91 0 99 -7z"/>
 <path d="M713 960 c-27 -11 -52 -84 -37 -108 19 -31 80 -54 123 -47 78 13 110 70 76 135 -15 29 -19 30 -78 29 -34 0 -72 -4 -84 -9z m117 -22 c26 -28 25 -46 -2 -50 -19 -2 -23 -9 -22 -35 2 -27 -2 -33 -18 -33 -46 0 -94 58 -68 84 7 7 10 6 10 -2 0 -7 7 -12 15 -12 8 0 15 6 15 14 0 21 25 26 48 10 13 -8 23 -10 27 -5 3 6 -6 18 -20 27 -25 16 -29 16 -63 0 l-37 -16 24 20 c30 26 65 25 91 -2z"/>
 <path d="M1131 956 c-21 -25 -25 -83 -7 -110 21 -34 83 -50 134 -36 56 14 76 41 68 85 -11 59 -35 75 -115 75 -47 0 -72 -4 -80 -14z m127 -12 c27 -19 30 -54 3 -54 -22 0 -34 -25 -26 -51 5 -15 1 -19 -17 -19 -36 0 -68 35 -67 73 1 18 3 24 6 15 6 -24 25 -23 41 3 12 19 15 20 37 5 30 -20 48 0 19 21 -18 14 -37 13 -79 -2 -20 -7 -20 -6 -1 9 25 20 55 20 84 0z"/>
 <path d="M973 737 c1 -6 -9 -11 -23 -12 -15 -1 -24 -6 -22 -14 1 -7 -2 -10 -7 -7 -5 3 -14 -1 -20 -8 -9 -10 -9 -16 -1 -21 8 -5 8 -11 -1 -21 -6 -7 -15 -12 -19 -9 -15 10 -3 -45 15 -66 11 -12 15 -20 9 -16 -6 3 -11 0 -11 -8 0 -8 8 -12 20 -10 15 3 16 1 8 -9 -9 -11 -5 -13 19 -11 22 2 28 -1 21 -9 -8 -9 1 -12 34 -11 24 0 47 4 52 9 5 5 2 6 -6 1 -9 -5 -12 -4 -8 3 4 5 15 9 24 8 10 -2 23 7 29 18 6 12 15 20 21 19 5 -1 10 4 10 12 0 8 -5 11 -11 8 -6 -3 -5 0 2 8 6 7 12 19 12 27 0 8 -5 10 -12 6 -10 -6 -10 -5 -1 7 10 12 10 18 0 29 -6 7 -7 10 -1 7 6 -3 11 0 11 8 0 8 -8 12 -20 10 -15 -3 -17 -2 -7 10 10 12 8 13 -10 10 -17 -3 -19 -1 -11 9 9 11 6 13 -11 12 -13 0 -22 4 -21 10 1 6 -4 11 -12 11 -8 0 -11 -5 -8 -10 4 -6 1 -7 -8 -1 -21 13 -39 14 -36 1z"/>
 </g>
<g id="layer113" fill="#7d411d" stroke="none">
 <path d="M210 1910 c0 -8 13 -40 28 -70 29 -58 85 -105 137 -115 l30 -6 -30 17 c-62 35 -102 75 -133 131 -17 32 -32 51 -32 43z"/>
 <path d="M1756 1864 c-31 -59 -79 -103 -147 -133 -24 -11 -37 -20 -28 -20 29 -2 135 58 158 89 21 29 55 110 48 116 -1 2 -15 -22 -31 -52z"/>
 <path d="M681 1741 c-26 -39 -34 -58 -21 -46 23 20 75 104 69 109 -2 1 -24 -27 -48 -63z"/>
 <path d="M646 1632 c5 -4 23 -18 39 -32 l30 -25 -29 33 c-17 17 -34 32 -40 32 -6 0 -6 -3 0 -8z"/>
 <path d="M917 1295 c-38 -25 -40 -37 -9 -50 12 -5 22 -13 22 -18 0 -4 6 -5 13 -1 8 5 8 3 -2 -9 -7 -9 -17 -14 -22 -11 -5 3 -8 0 -7 -8 2 -7 -3 -12 -10 -10 -6 1 -11 -4 -10 -10 2 -7 -2 -12 -9 -11 -12 3 -12 -14 0 -33 4 -7 0 -17 -8 -24 -15 -12 -11 -35 4 -26 4 3 8 -1 8 -9 0 -8 -4 -12 -8 -10 -4 3 -6 -3 -4 -12 1 -10 8 -17 14 -15 6 1 15 -8 20 -21 5 -12 17 -29 26 -37 20 -16 63 -21 71 -8 3 5 12 4 20 -3 11 -9 14 -8 14 6 0 10 3 15 7 12 3 -4 15 0 25 10 10 9 18 13 18 8 0 -4 7 -2 15 5 8 7 12 16 9 21 -3 5 1 19 8 31 14 27 19 70 6 62 -7 -5 -12 20 -5 30 6 11 -47 54 -62 51 -10 -2 -18 3 -18 10 0 8 3 13 6 13 8 -2 44 13 58 25 14 10 6 22 -38 50 -36 24 -112 20 -152 -8z m140 -148 c20 -21 -59 -37 -101 -21 -21 8 -20 21 2 28 20 5 91 0 99 -7z"/>
 <path d="M714 960 c-21 -8 -44 -56 -44 -91 0 -23 44 -57 84 -64 43 -9 110 19 125 51 15 33 14 49 -4 84 -15 29 -19 30 -78 29 -34 0 -72 -4 -83 -9z m116 -20 c26 -26 25 -48 -2 -52 -19 -2 -23 -9 -22 -35 2 -29 -1 -33 -22 -33 -14 0 -36 11 -49 25 -29 28 -34 67 -9 63 10 -2 19 3 22 11 3 10 -1 12 -14 8 -15 -6 -14 -3 5 13 30 26 65 26 91 0z"/>
 <path d="M1126 942 c-32 -62 -17 -102 47 -127 82 -31 166 11 153 78 -11 61 -26 71 -109 75 l-75 4 -16 -30z m133 1 c30 -25 35 -60 9 -59 -24 1 -50 -34 -30 -41 19 -7 3 -23 -24 -23 -35 0 -64 34 -63 73 0 17 3 26 6 20 7 -18 23 -16 23 2 0 8 -6 15 -12 15 -23 1 25 30 48 30 12 0 31 -8 43 -17z"/>
 <path d="M973 737 c1 -6 -9 -11 -23 -12 -15 -1 -24 -6 -22 -14 1 -7 -2 -10 -7 -7 -5 3 -14 -1 -20 -8 -9 -10 -9 -16 -1 -21 8 -5 8 -11 -1 -21 -6 -7 -15 -12 -19 -9 -15 10 -3 -45 15 -66 11 -12 15 -20 9 -16 -6 3 -11 0 -11 -8 0 -8 8 -12 20 -10 15 3 16 1 8 -9 -9 -11 -5 -13 19 -11 22 2 28 -1 21 -9 -8 -9 1 -12 34 -11 24 0 47 4 52 9 5 5 2 6 -6 1 -9 -5 -12 -4 -8 3 4 5 15 9 24 8 10 -2 23 7 29 18 6 12 15 20 21 19 5 -1 10 4 10 12 0 8 -5 11 -11 8 -6 -3 -5 0 2 8 6 7 12 19 12 27 0 8 -5 10 -12 6 -10 -6 -10 -5 -1 7 10 12 10 18 0 29 -6 7 -7 10 -1 7 6 -3 11 0 11 8 0 8 -8 12 -20 10 -15 -3 -17 -2 -7 10 10 12 8 13 -10 10 -17 -3 -19 -1 -11 9 9 11 6 13 -11 12 -13 0 -22 4 -21 10 1 6 -4 11 -12 11 -8 0 -11 -5 -8 -10 4 -6 1 -7 -8 -1 -21 13 -39 14 -36 1z"/>
 </g>
<g id="layer114" fill="#724333" stroke="none">
 <path d="M210 1910 c0 -8 13 -40 28 -70 29 -58 85 -105 137 -115 l30 -6 -30 17 c-62 35 -102 75 -133 131 -17 32 -32 51 -32 43z"/>
 <path d="M1756 1864 c-31 -59 -79 -103 -147 -133 -24 -11 -37 -20 -28 -20 29 -2 135 58 158 89 21 29 55 110 48 116 -1 2 -15 -22 -31 -52z"/>
 <path d="M681 1741 c-26 -39 -34 -58 -21 -46 23 20 75 104 69 109 -2 1 -24 -27 -48 -63z"/>
 <path d="M646 1632 c5 -4 23 -18 39 -32 l30 -25 -29 33 c-17 17 -34 32 -40 32 -6 0 -6 -3 0 -8z"/>
 <path d="M954 1306 c-58 -26 -54 -40 9 -32 32 3 57 2 57 -3 0 -5 -6 -9 -12 -8 -7 0 -33 -1 -58 -2 -64 -3 -22 -19 50 -19 66 0 116 16 60 19 l-35 2 35 6 35 6 -26 18 c-36 24 -79 29 -115 13z"/>
 <path d="M714 960 c-21 -8 -44 -56 -44 -91 0 -23 44 -57 84 -64 43 -9 110 19 125 51 15 33 14 49 -4 84 -15 29 -19 30 -78 29 -34 0 -72 -4 -83 -9z m116 -20 c26 -26 25 -48 -2 -52 -19 -2 -23 -9 -22 -35 2 -29 -1 -33 -22 -33 -14 0 -36 11 -49 25 -29 28 -34 67 -9 63 10 -2 19 3 22 11 3 10 -1 12 -14 8 -15 -6 -14 -3 5 13 30 26 65 26 91 0z"/>
 <path d="M1126 942 c-32 -62 -17 -102 47 -127 82 -31 166 11 153 78 -11 61 -26 71 -109 75 l-75 4 -16 -30z m133 1 c30 -25 35 -60 9 -59 -24 1 -50 -34 -30 -41 19 -7 3 -23 -24 -23 -35 0 -64 34 -63 73 0 17 3 26 6 20 7 -18 23 -16 23 2 0 8 -6 15 -12 15 -23 1 25 30 48 30 12 0 31 -8 43 -17z"/>
 </g>
<g id="layer115" fill="#69504a" stroke="none">
 <path d="M954 1306 c-58 -26 -54 -40 9 -32 32 3 57 2 57 -3 0 -5 -6 -9 -12 -8 -7 0 -33 -1 -58 -2 -64 -3 -22 -19 50 -19 66 0 116 16 60 19 l-35 2 35 6 35 6 -26 18 c-36 24 -79 29 -115 13z"/>
 <path d="M714 960 c-21 -8 -44 -56 -44 -91 0 -23 44 -57 84 -64 43 -9 110 19 125 51 15 33 14 49 -4 84 -15 29 -19 30 -78 29 -34 0 -72 -4 -83 -9z m116 -20 c26 -26 25 -48 -2 -52 -19 -2 -23 -9 -22 -35 2 -29 -1 -33 -22 -33 -14 0 -36 11 -49 25 -29 28 -34 67 -9 63 10 -2 19 3 22 11 3 10 -1 12 -14 8 -15 -6 -14 -3 5 13 30 26 65 26 91 0z"/>
 <path d="M1126 942 c-32 -62 -17 -102 47 -127 82 -31 166 11 153 78 -11 61 -26 71 -109 75 l-75 4 -16 -30z m133 1 c30 -25 35 -60 9 -59 -24 1 -50 -34 -30 -41 19 -7 3 -23 -24 -23 -35 0 -64 34 -63 73 0 17 3 26 6 20 7 -18 23 -16 23 2 0 8 -6 15 -12 15 -23 1 25 30 48 30 12 0 31 -8 43 -17z"/>
 </g>
<g id="layer116" fill="#71625c" stroke="none">
 <path d="M954 1306 c-58 -26 -54 -40 9 -32 32 3 57 2 57 -3 0 -5 -6 -9 -12 -8 -7 0 -33 -1 -58 -2 -64 -3 -22 -19 50 -19 66 0 116 16 60 19 l-35 2 35 6 35 6 -26 18 c-36 24 -79 29 -115 13z"/>
 <path d="M714 960 c-21 -8 -44 -56 -44 -90 0 -42 83 -76 145 -59 65 18 89 67 62 125 -14 29 -22 34 -49 34 l-33 -1 28 -20 c33 -25 39 -70 7 -62 -27 7 -39 -25 -16 -42 15 -12 15 -13 0 -19 -33 -13 -63 -5 -83 20 -28 36 -26 60 8 95 31 30 21 38 -25 19z"/>
 <path d="M1123 936 c-28 -59 -3 -107 65 -126 50 -13 107 3 129 36 14 22 14 30 3 65 -9 27 -22 44 -38 50 -43 17 -51 10 -21 -20 31 -32 40 -64 14 -55 -18 7 -45 -12 -45 -32 0 -8 7 -14 16 -14 8 0 12 -4 9 -10 -10 -17 -71 -11 -88 8 -27 30 -22 87 11 111 l27 20 -33 1 c-27 0 -35 -5 -49 -34z"/>
 </g>
<g id="layer117" fill="#a86d4c" stroke="none">
 <path d="M954 1306 c-58 -26 -54 -40 9 -32 32 3 57 2 57 -3 0 -5 -6 -9 -12 -8 -7 0 -33 -1 -58 -2 -64 -3 -22 -19 50 -19 66 0 116 16 60 19 l-35 2 35 6 35 6 -26 18 c-36 24 -79 29 -115 13z"/>
 <path d="M718 963 c-17 -4 -48 -60 -48 -87 0 -10 11 -28 25 -41 20 -21 34 -25 80 -25 49 0 60 4 86 29 33 33 35 47 15 96 -12 28 -21 35 -42 35 l-27 0 20 -22 c11 -13 24 -33 28 -46 6 -20 4 -22 -18 -17 -30 8 -47 -23 -23 -41 21 -15 10 -24 -29 -24 -37 0 -75 35 -75 70 0 13 12 37 27 52 26 27 22 32 -19 21z"/>
 <path d="M1124 935 c-20 -49 -18 -63 15 -96 26 -25 37 -29 86 -29 46 0 60 4 80 25 29 28 30 33 9 84 -14 35 -34 50 -67 51 -5 0 3 -14 17 -31 29 -35 38 -81 10 -59 -12 11 -18 11 -30 -2 -14 -14 -14 -17 0 -30 19 -20 11 -28 -29 -28 -35 0 -60 22 -70 61 -5 19 0 34 20 57 l27 32 -27 0 c-20 0 -29 -8 -41 -35z"/>
 </g>
<g id="layer118" fill="#887a73" stroke="none">
 <path d="M961 1291 c-10 -6 1 -9 32 -9 26 0 45 4 41 9 -7 12 -55 11 -73 0z"/>
 <path d="M718 963 c-17 -4 -48 -60 -48 -87 0 -10 11 -28 25 -41 20 -21 34 -25 80 -25 49 0 60 4 86 29 33 33 35 47 15 96 -12 28 -21 35 -42 35 l-27 0 20 -22 c11 -13 24 -33 28 -46 6 -20 4 -22 -18 -17 -30 8 -47 -23 -23 -41 21 -15 10 -24 -29 -24 -37 0 -75 35 -75 70 0 13 12 37 27 52 26 27 22 32 -19 21z"/>
 <path d="M1124 935 c-20 -49 -18 -63 15 -96 26 -25 37 -29 86 -29 46 0 60 4 80 25 29 28 30 33 9 84 -14 35 -34 50 -67 51 -5 0 3 -14 17 -31 29 -35 38 -81 10 -59 -12 11 -18 11 -30 -2 -14 -14 -14 -17 0 -30 19 -20 11 -28 -29 -28 -35 0 -60 22 -70 61 -5 19 0 34 20 57 l27 32 -27 0 c-20 0 -29 -8 -41 -35z"/>
 </g>
<g id="layer119" fill="#897f81" stroke="none">
 <path d="M961 1291 c-10 -6 1 -9 32 -9 26 0 45 4 41 9 -7 12 -55 11 -73 0z"/>
 <path d="M820 962 c0 -2 9 -15 20 -29 25 -32 28 -72 4 -53 -12 11 -18 10 -32 -4 -16 -16 -16 -18 2 -31 18 -14 18 -15 -5 -24 l-24 -10 23 0 c27 -1 82 49 82 74 0 8 -6 31 -14 50 -10 24 -20 33 -35 32 -12 -1 -21 -3 -21 -5z"/>
 <path d="M1124 935 c-7 -19 -14 -42 -14 -50 0 -21 53 -75 73 -75 11 0 6 10 -14 29 -34 35 -36 59 -9 94 25 32 25 37 -1 37 -13 0 -25 -11 -35 -35z"/>
 <path d="M686 919 c-9 -23 -14 -50 -11 -60 8 -23 55 -49 87 -48 l23 0 -24 10 c-13 5 -30 17 -37 27 -16 20 -18 68 -4 77 6 3 10 1 10 -5 0 -6 5 -8 11 -4 8 4 7 9 -2 15 -12 8 -11 11 1 19 12 8 9 10 -11 10 -22 0 -30 -7 -43 -41z"/>
 <path d="M1268 937 c26 -27 32 -78 7 -57 -12 10 -18 10 -29 0 -18 -14 -10 -40 13 -41 9 0 4 -6 -14 -14 -26 -12 -27 -14 -8 -15 35 0 71 17 83 41 9 17 8 30 -5 65 -14 36 -21 44 -43 44 l-25 0 21 -23z"/>
 </g>
<g id="layer120" fill="#b67f62" stroke="none">
 <path d="M961 1291 c-10 -6 1 -9 32 -9 26 0 45 4 41 9 -7 12 -55 11 -73 0z"/>
 <path d="M820 962 c0 -2 9 -15 20 -29 25 -32 28 -72 4 -53 -12 11 -18 10 -32 -4 -16 -16 -16 -18 2 -31 18 -14 18 -15 -5 -24 l-24 -10 23 0 c27 -1 82 49 82 74 0 8 -6 31 -14 50 -10 24 -20 33 -35 32 -12 -1 -21 -3 -21 -5z"/>
 <path d="M1124 935 c-8 -19 -14 -42 -14 -50 0 -21 53 -75 73 -75 11 0 6 10 -14 29 -34 35 -36 59 -9 94 25 31 25 32 -1 34 -15 1 -25 -8 -35 -32z"/>
 <path d="M702 947 c-19 -22 -33 -69 -27 -88 7 -21 54 -49 82 -49 16 1 16 2 -2 12 -48 26 -60 83 -25 118 19 19 19 20 1 20 -10 0 -23 -6 -29 -13z"/>
 <path d="M1269 941 c13 -13 21 -34 21 -53 0 -30 -1 -31 -14 -13 -12 16 -16 17 -29 6 -19 -15 -11 -41 12 -41 11 -1 8 -5 -9 -15 -20 -11 -21 -14 -7 -15 29 0 75 28 82 50 10 30 -25 94 -53 98 l-24 4 21 -21z"/>
 </g>
<g id="layer121" fill="#b5b3b2" stroke="none">
 <path d="M820 962 c0 -2 9 -15 20 -29 25 -32 28 -72 4 -53 -12 11 -18 10 -32 -4 -16 -16 -16 -18 2 -31 18 -14 18 -15 -5 -24 l-24 -10 23 0 c27 -1 82 49 82 74 0 8 -6 31 -14 50 -10 24 -20 33 -35 32 -12 -1 -21 -3 -21 -5z"/>
 <path d="M1124 935 c-8 -19 -14 -42 -14 -50 0 -21 53 -75 73 -75 11 0 6 10 -14 29 -34 35 -36 59 -9 94 25 31 25 32 -1 34 -15 1 -25 -8 -35 -32z"/>
 <path d="M702 947 c-19 -22 -33 -69 -27 -88 7 -21 54 -49 82 -49 16 1 16 2 -2 12 -48 26 -60 83 -25 118 19 19 19 20 1 20 -10 0 -23 -6 -29 -13z"/>
 <path d="M1269 941 c13 -13 21 -34 21 -53 0 -30 -1 -31 -14 -13 -12 16 -16 17 -29 6 -19 -15 -11 -41 12 -41 11 -1 8 -5 -9 -15 -20 -11 -21 -14 -7 -15 29 0 75 28 82 50 10 30 -25 94 -53 98 l-24 4 21 -21z"/>
 </g>
<g id="layer122" fill="#c3bdb9" stroke="none">
 <path d="M820 963 c0 -2 9 -12 20 -23 22 -22 27 -75 8 -86 -6 -4 -8 -3 -5 2 3 6 2 16 -3 24 -8 13 -12 12 -27 -3 -17 -17 -17 -19 -1 -31 10 -7 15 -16 11 -19 -3 -4 -1 -7 6 -7 17 0 61 46 61 65 0 9 -6 31 -14 50 -10 24 -20 33 -35 32 -12 -1 -21 -3 -21 -4z"/>
 <path d="M696 938 c-28 -45 -28 -64 0 -91 32 -33 51 -35 30 -5 -9 12 -16 34 -16 48 0 14 7 36 16 48 13 20 14 22 0 22 -9 0 -22 -10 -30 -22z"/>
 <path d="M1121 929 c-16 -46 -14 -57 14 -84 30 -31 53 -33 25 -3 -24 26 -25 49 -5 88 15 28 14 30 -4 30 -12 0 -23 -11 -30 -31z"/>
 <path d="M1274 938 c9 -12 16 -36 16 -52 0 -28 -1 -29 -14 -11 -12 16 -16 17 -29 6 -18 -14 -12 -41 10 -41 8 0 11 -4 8 -10 -12 -20 13 -9 39 17 19 18 25 32 20 47 -10 35 -34 66 -50 66 -14 0 -13 -2 0 -22z"/>
 </g>
<g id="layer123" fill="#d7d4d3" stroke="none">
 <path d="M702 947 c-6 -7 -15 -24 -21 -39 -11 -29 5 -60 42 -79 21 -12 21 -11 5 8 -23 25 -23 81 -1 105 14 16 14 18 1 18 -9 0 -20 -6 -26 -13z"/>
 <path d="M844 938 c18 -25 21 -74 6 -83 -5 -3 -10 -11 -10 -17 0 -14 28 9 41 34 14 27 -9 88 -34 88 -17 0 -17 -2 -3 -22z"/>
 <path d="M1121 924 c-11 -39 -4 -60 25 -85 16 -13 16 -12 6 8 -16 29 -15 52 2 86 14 25 13 27 -4 27 -13 0 -22 -11 -29 -36z"/>
 <path d="M1273 942 c22 -24 22 -71 0 -101 -18 -26 -5 -23 30 7 32 28 10 112 -30 112 -15 0 -14 -2 0 -18z"/>
 <path d="M810 875 c-9 -11 -10 -19 -2 -27 14 -14 32 -1 32 23 0 23 -13 25 -30 4z"/>
 <path d="M1247 878 c-12 -9 -14 -17 -7 -28 8 -13 11 -13 27 2 22 23 5 44 -20 26z"/>
 </g>
<g id="layer124" fill="#e3dfdc" stroke="none">
 <path d="M702 947 c-6 -7 -15 -25 -21 -39 -8 -22 -6 -31 14 -52 31 -33 37 -33 20 2 -16 29 -12 57 13 85 14 15 14 17 0 17 -9 0 -20 -6 -26 -13z"/>
 <path d="M1141 934 c-25 -31 -26 -53 -7 -80 13 -17 14 -15 9 24 -4 32 -1 47 12 62 10 11 15 20 12 20 -3 0 -15 -12 -26 -26z"/>
 <path d="M1273 943 c20 -23 23 -83 5 -102 -11 -11 -9 -11 9 -2 46 23 36 110 -12 120 -19 3 -19 2 -2 -16z"/>
 <path d="M860 896 c0 -13 -3 -33 -6 -43 -5 -16 -4 -16 10 1 18 22 21 52 6 61 -6 3 -10 -5 -10 -19z"/>
 <path d="M1247 878 c-12 -9 -14 -17 -7 -28 8 -13 11 -13 27 2 22 23 5 44 -20 26z"/>
 <path d="M807 865 c-7 -16 8 -29 23 -20 15 9 12 35 -4 35 -8 0 -16 -7 -19 -15z"/>
 </g>
<g id="layer125" fill="#f1f1f1" stroke="none">
 <path d="M696 938 c-23 -33 -20 -61 11 -89 l26 -24 -16 25 c-22 32 -21 52 4 84 16 21 17 26 5 26 -8 0 -22 -10 -30 -22z"/>
 <path d="M1272 943 c25 -29 29 -56 12 -88 l-15 -30 25 24 c14 14 26 34 26 46 0 27 -27 65 -47 65 -15 0 -15 -2 -1 -17z"/>
 <path d="M1252 878 c-14 -14 -16 -38 -3 -38 5 0 14 7 21 15 17 20 0 41 -18 23z"/>
 <path d="M806 862 c-3 -6 -1 -14 5 -17 15 -10 25 3 12 16 -7 7 -13 7 -17 1z"/>
 </g>

</svg>