<!DOCTYPE svg PUBLIC "-//W3C//DTD SVG 20010904//EN" "http://www.w3.org/TR/2001/REC-SVG-20010904/DTD/svg10.dtd">
<svg version="1.0" xmlns="http://www.w3.org/2000/svg" width="200px" height="200px" viewBox="0 0 2000 2000" preserveAspectRatio="xMidYMid meet">
<g id="layer101" fill="#fefefe" stroke="none">
 <path d="M174 1954 c15 -115 93 -221 181 -246 22 -6 45 -17 50 -23 12 -14 120 -46 180 -53 58 -6 104 -45 133 -113 15 -36 33 -61 49 -68 30 -14 25 -21 -32 -58 -52 -32 -60 -63 -17 -63 55 0 57 -7 39 -126 -21 -148 -36 -180 -92 -204 -25 -11 -57 -31 -72 -45 -16 -14 -30 -25 -34 -25 -3 0 -15 -17 -27 -39 -19 -33 -22 -54 -22 -140 0 -84 4 -109 21 -144 21 -41 91 -136 133 -181 27 -30 138 -86 170 -86 13 0 26 -6 29 -12 6 -21 254 -18 298 4 19 9 59 28 89 41 100 43 158 102 198 199 24 57 32 92 32 137 0 33 -4 63 -10 66 -5 3 -10 13 -10 22 0 21 -59 114 -84 132 -11 8 -42 35 -69 61 l-49 46 -10 124 c-5 69 -14 130 -20 137 -8 10 -2 13 30 13 22 0 47 3 56 6 20 8 21 44 1 44 -9 0 -37 17 -64 38 l-48 38 28 16 c15 9 34 32 42 50 18 43 91 134 119 149 12 6 61 17 109 25 48 7 105 17 126 23 56 15 117 63 147 113 23 39 56 143 56 175 0 11 -159 13 -831 13 l-832 0 7 -46z"/>
 </g>
<g id="layer102" fill="#e1e0e0" stroke="none">
 <path d="M174 1954 c15 -115 93 -221 181 -246 22 -6 45 -17 50 -23 12 -14 120 -46 180 -53 58 -6 104 -45 133 -113 15 -36 33 -61 49 -68 30 -14 25 -21 -32 -58 -52 -32 -60 -63 -17 -63 55 0 57 -7 39 -126 -21 -148 -36 -180 -92 -204 -25 -11 -57 -31 -72 -45 -16 -14 -30 -25 -34 -25 -3 0 -15 -17 -27 -39 -19 -33 -22 -54 -22 -140 0 -84 4 -109 21 -144 21 -41 91 -136 133 -181 27 -30 138 -86 170 -86 13 0 26 -6 29 -12 6 -21 254 -18 298 4 19 9 59 28 89 41 100 43 158 102 198 199 24 57 32 92 32 137 0 33 -4 62 -9 65 -5 3 -12 17 -15 32 -9 33 -55 105 -80 123 -11 8 -42 35 -69 61 l-49 46 -10 124 c-6 69 -15 131 -20 138 -8 9 -1 12 30 12 22 0 47 3 56 6 20 8 21 44 1 44 -9 0 -37 17 -64 38 l-48 38 28 16 c15 9 34 32 42 50 18 43 91 134 119 149 12 6 61 17 109 25 48 7 105 17 126 23 56 15 117 63 147 113 23 39 56 143 56 175 0 11 -159 13 -831 13 l-832 0 7 -46z m883 -629 c0 -16 -41 -21 -71 -9 -30 12 -16 24 27 24 32 0 44 -4 44 -15z m-192 -107 c-1 -105 20 -107 30 -3 l7 75 34 0 34 0 0 -65 c0 -36 4 -65 9 -65 10 0 21 49 21 97 0 28 3 34 16 29 9 -3 26 -6 38 -6 21 0 23 -4 22 -57 -1 -36 3 -58 12 -60 9 -3 12 12 12 56 0 59 1 61 26 61 l26 0 -7 -75 c-5 -64 -4 -75 9 -75 13 0 16 13 16 75 0 41 3 75 8 75 23 -1 31 -21 31 -82 0 -137 16 -177 104 -249 69 -58 91 -89 119 -169 24 -70 17 -130 -25 -223 -40 -90 -112 -147 -236 -190 -126 -44 -193 -45 -314 -8 -115 35 -164 65 -225 141 -105 131 -134 261 -82 365 24 47 45 65 152 130 53 32 73 88 94 258 5 47 6 48 37 45 l32 -3 0 -77z"/>
 <path d="M935 949 c-13 -21 14 -89 36 -89 5 0 15 12 22 26 l14 27 7 -26 c6 -26 37 -44 56 -32 13 8 13 46 0 79 -11 30 -44 35 -58 9 -9 -16 -11 -16 -27 0 -19 19 -41 22 -50 6z"/>
 <path d="M772 803 c-19 -7 -42 -58 -42 -92 0 -41 28 -109 50 -121 19 -10 72 -4 103 12 38 19 60 115 37 159 -21 37 -102 61 -148 42z"/>
 <path d="M1094 776 c-19 -19 -34 -44 -34 -55 0 -34 25 -84 57 -114 27 -25 32 -26 62 -16 60 21 99 116 71 170 -13 24 -61 49 -96 49 -16 0 -38 -12 -60 -34z"/>
 <path d="M590 715 c0 -3 7 -32 17 -65 17 -63 39 -84 28 -27 -11 56 -26 97 -36 97 -5 0 -9 -2 -9 -5z"/>
 <path d="M1368 603 c-21 -24 -31 -59 -23 -83 10 -30 28 -25 21 6 -5 17 -1 35 9 51 20 30 15 51 -7 26z"/>
 </g>
<g id="layer103" fill="#d0d0d0" stroke="none">
 <path d="M174 1954 c15 -115 93 -221 181 -246 22 -6 45 -17 50 -23 12 -14 120 -46 180 -53 58 -6 104 -45 133 -113 15 -36 33 -61 49 -68 30 -14 25 -21 -32 -58 -52 -32 -60 -63 -17 -63 55 0 57 -7 39 -126 -21 -148 -36 -180 -92 -204 -25 -11 -57 -31 -72 -45 -16 -14 -30 -25 -34 -25 -3 0 -15 -17 -27 -39 -19 -33 -22 -54 -22 -140 0 -84 4 -109 21 -144 21 -41 91 -136 133 -181 27 -30 138 -86 170 -86 13 0 26 -6 29 -12 6 -21 254 -18 298 4 19 9 59 28 89 41 100 43 158 102 198 199 24 57 32 92 32 137 0 33 -4 62 -9 65 -5 3 -12 17 -15 32 -9 33 -55 105 -80 123 -11 8 -42 35 -69 61 l-49 46 -10 124 c-6 69 -15 131 -20 138 -8 9 -1 12 30 12 22 0 47 3 56 6 20 8 21 44 1 44 -9 0 -37 17 -64 38 l-48 38 28 16 c15 9 34 32 42 50 18 43 91 134 119 149 12 6 61 17 109 25 48 7 105 17 126 23 56 15 117 63 147 113 23 39 56 143 56 175 0 11 -159 13 -831 13 l-832 0 7 -46z m886 -627 c0 -21 -8 -24 -47 -18 -55 9 -55 31 1 31 32 0 46 -4 46 -13z m-190 -107 c0 -47 4 -80 10 -80 6 0 10 24 10 53 0 83 7 97 46 97 l34 0 0 -66 c0 -41 4 -63 10 -59 6 3 10 30 10 60 0 30 5 57 11 60 6 4 26 4 45 1 l34 -7 0 -59 c0 -33 4 -60 10 -60 6 0 10 27 10 60 0 58 1 60 26 60 26 0 26 0 23 -72 -3 -51 0 -72 9 -75 9 -4 12 15 12 71 0 69 2 76 20 76 14 0 20 -7 20 -22 3 -116 10 -189 23 -218 9 -20 44 -59 82 -90 129 -107 164 -245 98 -390 -47 -104 -147 -175 -303 -216 -94 -25 -163 -20 -277 18 -93 31 -102 37 -170 105 -99 99 -137 179 -138 282 0 116 43 179 159 236 54 26 92 99 101 193 11 120 12 122 51 122 l34 0 0 -80z"/>
 <path d="M941 946 c-15 -18 12 -90 31 -84 17 6 22 66 7 84 -15 18 -23 18 -38 0z"/>
 <path d="M1017 953 c-13 -13 -7 -72 9 -88 38 -38 68 7 44 66 -12 27 -38 38 -53 22z"/>
 <path d="M763 786 c-23 -20 -28 -32 -28 -73 0 -56 20 -110 46 -124 26 -13 93 5 119 33 26 28 37 102 19 135 -15 28 -64 53 -103 53 -14 0 -38 -11 -53 -24z"/>
 <path d="M1124 800 c-70 -28 -71 -133 -2 -197 35 -32 83 -13 117 48 23 43 24 49 12 88 -10 34 -20 46 -46 57 -39 16 -51 16 -81 4z"/>
 <path d="M593 705 c22 -80 31 -105 38 -105 10 0 -19 101 -33 115 -7 7 -8 4 -5 -10z"/>
 <path d="M1362 598 c-15 -20 -23 -54 -16 -72 10 -25 22 -19 16 9 -2 14 3 36 12 50 17 25 7 36 -12 13z"/>
 </g>
<g id="layer104" fill="#c1c0bf" stroke="none">
 <path d="M174 1954 c15 -115 93 -221 181 -246 22 -6 45 -17 50 -23 12 -14 120 -46 180 -53 58 -6 104 -45 133 -113 15 -36 33 -61 49 -68 30 -14 25 -21 -32 -58 -52 -32 -60 -63 -17 -63 55 0 57 -7 39 -126 -21 -148 -36 -180 -92 -204 -25 -11 -57 -31 -72 -45 -16 -14 -30 -25 -34 -25 -3 0 -15 -17 -27 -39 -19 -33 -22 -54 -22 -140 0 -84 4 -109 21 -144 21 -41 91 -136 133 -181 27 -30 138 -86 170 -86 13 0 26 -6 29 -12 6 -21 254 -18 298 4 19 9 59 28 89 41 100 43 158 102 198 199 24 57 32 92 32 137 0 33 -4 62 -9 65 -5 3 -12 17 -15 32 -9 33 -55 105 -80 123 -11 8 -42 35 -69 61 l-49 46 -10 124 c-6 69 -15 131 -20 138 -8 9 -1 12 30 12 22 0 47 3 56 6 20 8 21 44 1 44 -9 0 -37 17 -64 38 l-48 38 28 16 c15 9 34 32 42 50 18 43 91 134 119 149 12 6 61 17 109 25 48 7 105 17 126 23 56 15 117 63 147 113 23 39 56 143 56 175 0 11 -159 13 -831 13 l-832 0 7 -46z m886 -635 c0 -18 -4 -20 -37 -15 -21 3 -41 5 -45 6 -5 0 -8 7 -8 15 0 11 12 15 45 15 39 0 45 -3 45 -21z m-189 -103 c-2 -55 0 -76 8 -72 6 4 11 31 11 61 0 74 6 85 46 85 l34 0 0 -60 c0 -33 4 -60 10 -60 6 0 10 27 10 61 l0 60 43 -3 42 -3 3 -62 c4 -80 22 -82 22 -3 0 57 1 60 25 60 24 0 25 -2 25 -76 0 -47 4 -73 10 -69 6 3 10 37 10 76 0 62 2 69 20 69 11 0 20 -6 21 -12 1 -7 2 -51 4 -98 3 -117 21 -154 104 -223 93 -78 126 -143 126 -247 -1 -106 -37 -184 -118 -251 -61 -52 -90 -67 -197 -101 -112 -37 -241 -22 -375 43 -112 55 -221 213 -232 340 -10 109 41 195 147 248 47 23 59 35 82 82 18 37 29 77 33 129 9 109 10 112 53 108 l37 -3 -4 -79z"/>
 <path d="M947 953 c-13 -12 -7 -62 9 -77 21 -22 34 -11 34 28 0 41 -24 68 -43 49z"/>
 <path d="M1017 953 c-4 -3 -7 -21 -7 -39 0 -25 7 -38 25 -50 33 -22 49 -9 42 33 -9 51 -38 79 -60 56z"/>
 <path d="M767 790 c-33 -26 -42 -71 -27 -125 18 -64 45 -86 94 -75 53 12 83 43 91 95 8 56 -13 99 -56 114 -46 16 -73 14 -102 -9z"/>
 <path d="M1118 794 c-34 -18 -48 -43 -48 -84 0 -58 47 -120 91 -120 33 0 84 54 94 99 9 44 -18 94 -58 109 -41 15 -46 15 -79 -4z"/>
 <path d="M606 670 c6 -36 11 -46 18 -39 2 2 -3 20 -10 39 l-14 35 6 -35z"/>
 <path d="M1356 580 c-7 -18 -11 -41 -9 -51 8 -28 21 -23 16 5 -3 13 0 34 7 46 6 12 9 24 6 27 -3 3 -12 -9 -20 -27z"/>
 </g>
<g id="layer105" fill="#b1b0b0" stroke="none">
 <path d="M174 1954 c15 -115 93 -221 181 -246 22 -6 45 -17 50 -23 12 -14 120 -46 180 -53 58 -6 104 -45 133 -113 15 -36 33 -61 49 -68 30 -14 25 -21 -32 -58 -52 -32 -60 -63 -17 -63 55 0 57 -7 39 -126 -21 -148 -36 -180 -92 -204 -25 -11 -57 -31 -72 -45 -16 -14 -30 -25 -34 -25 -3 0 -15 -17 -27 -39 -19 -33 -22 -54 -22 -140 0 -84 4 -109 21 -144 21 -41 91 -136 133 -181 27 -30 138 -86 170 -86 13 0 26 -6 29 -12 6 -21 254 -18 298 4 19 9 59 28 89 41 100 43 158 102 198 199 24 57 32 92 32 137 0 33 -4 62 -9 65 -5 3 -12 17 -15 32 -9 33 -55 105 -80 123 -11 8 -42 35 -69 61 l-49 46 -10 124 c-6 69 -15 131 -20 138 -8 9 -1 12 30 12 22 0 47 3 56 6 20 8 21 44 1 44 -9 0 -37 17 -64 38 l-48 38 28 16 c15 9 34 32 42 50 18 43 91 134 119 149 12 6 61 17 109 25 48 7 105 17 126 23 56 15 117 63 147 113 23 39 56 143 56 175 0 11 -159 13 -831 13 l-832 0 7 -46z m886 -634 c0 -15 -7 -20 -29 -20 -39 0 -61 9 -61 26 0 10 13 14 45 14 38 0 45 -3 45 -20z m-189 -105 c-4 -95 12 -92 19 3 l5 67 41 3 40 3 -4 -61 c-3 -40 -1 -60 7 -60 7 0 11 22 11 60 l0 60 45 0 45 0 0 -66 c0 -41 4 -63 10 -59 6 3 10 31 10 61 0 51 1 54 25 54 24 0 25 -2 25 -77 0 -42 3 -74 6 -71 8 9 12 37 13 96 1 45 4 52 21 52 24 0 22 8 25 -105 4 -122 19 -156 105 -228 94 -79 125 -141 125 -252 0 -73 -3 -86 -38 -150 -30 -57 -49 -79 -104 -118 -137 -98 -302 -124 -457 -73 -105 35 -163 73 -221 147 -65 83 -97 152 -103 225 -9 119 37 197 149 254 73 38 105 97 114 218 8 98 10 104 53 100 l37 -3 -4 -80z"/>
 <path d="M943 944 c-9 -23 10 -69 27 -69 19 0 26 51 9 71 -15 18 -28 18 -36 -2z"/>
 <path d="M1023 953 c-7 -2 -13 -20 -13 -39 0 -25 6 -38 26 -50 22 -15 27 -15 35 -3 11 16 4 66 -12 86 -12 14 -16 15 -36 6z"/>
 <path d="M773 795 c-45 -32 -48 -127 -5 -184 16 -21 26 -25 53 -23 64 7 93 37 105 108 5 36 3 45 -22 73 -35 39 -96 51 -131 26z m0 -110 c4 -32 3 -43 -3 -30 -8 19 -14 93 -6 84 2 -2 6 -26 9 -54z m124 8 c-3 -10 -5 -2 -5 17 0 19 2 27 5 18 2 -10 2 -26 0 -35z m-17 -58 c-7 -8 -20 -15 -29 -14 -11 0 -9 3 7 9 12 5 22 15 22 21 0 7 3 9 6 6 4 -4 1 -13 -6 -22z"/>
 <path d="M1120 792 c-59 -30 -65 -110 -14 -172 45 -53 96 -35 137 46 41 81 -43 167 -123 126z m63 -162 c21 11 21 10 3 -4 -11 -9 -23 -16 -26 -16 -3 0 -15 7 -26 16 -18 14 -18 15 4 4 16 -8 28 -8 45 0z"/>
 <path d="M1360 591 c-5 -11 -9 -35 -9 -53 l1 -33 8 35 c4 19 11 43 15 53 10 23 -2 22 -15 -2z"/>
 </g>
<g id="layer106" fill="#a1a09f" stroke="none">
 <path d="M174 1954 c15 -115 93 -221 181 -246 22 -6 45 -17 50 -23 12 -14 120 -46 180 -53 58 -6 104 -45 133 -113 15 -36 33 -61 49 -68 30 -14 25 -21 -32 -58 -52 -32 -60 -63 -17 -63 55 0 57 -7 39 -126 -21 -148 -36 -180 -92 -204 -25 -11 -57 -31 -72 -45 -16 -14 -30 -25 -34 -25 -16 0 -49 -82 -48 -121 l1 -44 13 48 c21 75 55 119 122 155 32 17 66 39 75 49 32 35 55 108 60 187 6 88 17 106 67 98 l29 -4 -4 -81 c-2 -56 -1 -74 5 -57 5 14 9 49 10 78 l1 52 44 0 44 0 -5 -62 c-5 -45 -3 -59 5 -54 7 4 12 31 12 62 l0 54 45 0 45 0 0 -60 c0 -33 4 -60 10 -60 6 0 10 27 10 61 0 52 2 60 16 55 9 -3 20 -6 25 -6 5 0 10 -33 10 -72 l2 -73 9 73 c9 67 12 73 32 70 19 -3 21 -9 22 -88 1 -113 16 -161 62 -202 96 -86 130 -127 152 -184 64 -167 -25 -343 -215 -429 -72 -33 -199 -59 -254 -52 -73 9 -216 61 -259 95 -75 60 -153 177 -177 266 l-14 51 0 -43 c-1 -25 8 -60 20 -85 21 -41 91 -136 133 -181 27 -30 138 -86 170 -86 13 0 26 -6 29 -12 6 -21 254 -18 298 4 19 9 59 28 89 41 100 43 158 102 198 199 24 57 32 92 32 137 0 33 -4 62 -9 65 -5 3 -12 17 -15 32 -9 33 -55 105 -80 123 -11 8 -42 35 -69 61 l-49 46 -10 124 c-6 69 -15 131 -20 138 -8 9 -1 12 30 12 22 0 47 3 56 6 20 8 21 44 1 44 -9 0 -37 17 -64 38 l-48 38 28 16 c15 9 34 32 42 50 18 43 91 134 119 149 12 6 61 17 109 25 48 7 105 17 126 23 56 15 117 63 147 113 23 39 56 143 56 175 0 11 -159 13 -831 13 l-832 0 7 -46z m886 -634 c0 -16 -7 -20 -34 -20 -29 0 -66 20 -66 36 0 2 23 4 50 4 43 0 50 -3 50 -20z"/>
 <path d="M1023 953 c-32 -12 1 -103 37 -103 18 0 22 47 6 79 -17 31 -21 34 -43 24z m27 -58 c0 -17 -2 -17 -10 -5 -5 8 -10 24 -10 35 0 17 2 17 10 5 5 -8 10 -24 10 -35z"/>
 <path d="M940 928 c0 -13 6 -33 14 -44 19 -25 39 -7 34 32 -2 21 -9 30 -25 32 -18 3 -23 -1 -23 -20z"/>
 <path d="M766 787 c-21 -21 -26 -36 -26 -77 0 -54 19 -103 46 -118 22 -13 83 2 106 26 25 25 41 93 28 126 -11 31 -47 55 -93 63 -29 4 -40 1 -61 -20z m117 -25 c15 -13 18 -27 15 -64 -3 -26 -11 -54 -18 -63 -14 -17 -65 -20 -75 -5 -9 15 -27 12 -19 -2 5 -10 4 -10 -6 -1 -8 7 -16 39 -18 72 -4 52 -2 60 19 75 28 20 73 15 102 -12z"/>
 <path d="M1099 781 c-19 -16 -24 -29 -24 -68 0 -97 80 -157 133 -100 75 80 48 187 -48 187 -22 0 -47 -8 -61 -19z m109 -17 c49 -34 12 -152 -49 -154 -28 0 -61 46 -66 93 -5 38 -2 47 18 61 30 20 68 21 97 0z"/>
 <path d="M1362 588 c-7 -7 -11 -28 -10 -47 l1 -36 4 35 c3 19 9 41 15 47 13 16 6 17 -10 1z"/>
 </g>
<g id="layer107" fill="#939292" stroke="none">
 <path d="M174 1954 c15 -115 93 -221 181 -246 22 -6 45 -17 50 -23 12 -14 120 -46 180 -53 58 -6 104 -45 133 -113 15 -36 33 -61 49 -68 30 -14 25 -21 -32 -58 -52 -32 -60 -63 -17 -63 55 0 57 -7 39 -126 -21 -148 -36 -180 -92 -204 -25 -11 -57 -31 -72 -45 -16 -14 -30 -25 -34 -25 -15 0 -49 -82 -48 -116 l0 -39 13 40 c28 88 68 134 143 164 68 28 102 93 114 225 5 49 13 94 18 99 4 4 25 5 45 2 27 -6 36 -12 37 -29 1 -17 2 -17 6 -3 3 13 15 17 50 17 44 0 45 -1 40 -28 -3 -15 -2 -34 4 -42 6 -11 9 -2 9 28 l0 43 47 -3 47 -3 -3 -57 c-1 -36 2 -58 8 -58 7 0 11 24 11 59 0 57 1 59 25 57 21 -1 25 -6 26 -31 1 -29 1 -29 8 -5 5 18 14 25 31 25 24 0 25 -2 27 -86 3 -135 12 -157 96 -233 149 -133 176 -250 96 -414 -41 -84 -127 -149 -249 -189 -117 -38 -204 -38 -323 1 -106 35 -167 79 -230 168 -55 78 -67 101 -83 158 l-12 45 -1 -38 c-1 -21 9 -57 20 -80 21 -41 91 -136 133 -181 27 -30 138 -86 170 -86 13 0 26 -6 29 -12 6 -21 254 -18 298 4 19 9 59 28 89 41 100 43 158 102 198 199 24 57 32 92 32 137 0 33 -4 62 -9 65 -5 3 -12 17 -15 32 -9 33 -55 105 -80 123 -11 8 -42 35 -69 61 l-49 46 -10 124 c-6 69 -15 131 -20 138 -8 9 -1 12 30 12 22 0 47 3 56 6 20 8 21 44 1 44 -9 0 -37 17 -64 38 l-48 38 28 16 c15 9 34 32 42 50 18 43 91 134 119 149 12 6 61 17 109 25 48 7 105 17 126 23 56 15 117 63 147 113 23 39 56 143 56 175 0 11 -159 13 -831 13 l-832 0 7 -46z m886 -634 c0 -16 -7 -20 -34 -20 -29 0 -66 20 -66 36 0 2 23 4 50 4 43 0 50 -3 50 -20z"/>
 <path d="M1153 1175 c0 -22 2 -30 4 -17 2 12 2 30 0 40 -3 9 -5 -1 -4 -23z"/>
 <path d="M1022 948 c-19 -19 -14 -55 10 -78 19 -18 24 -18 37 -6 12 13 12 20 0 52 -16 41 -29 50 -47 32z m34 -65 c-11 -11 -26 10 -26 35 l1 27 15 -28 c9 -16 13 -31 10 -34z"/>
 <path d="M940 928 c0 -13 7 -33 15 -44 13 -16 16 -17 25 -4 18 26 8 65 -17 68 -18 3 -23 -1 -23 -20z"/>
 <path d="M778 795 c-15 -9 -31 -27 -34 -41 -10 -38 1 -110 21 -140 15 -23 21 -25 63 -20 26 3 54 14 65 25 22 21 36 84 27 120 -12 52 -93 83 -142 56z m85 -16 c30 -16 37 -28 37 -71 0 -79 -39 -114 -89 -81 -22 14 -24 14 -18 -1 10 -26 -9 -18 -21 9 -18 38 -15 120 4 139 18 19 56 21 87 5z"/>
 <path d="M1100 780 c-11 -11 -22 -31 -26 -45 -9 -35 22 -112 53 -132 78 -51 167 104 98 172 -31 32 -96 34 -125 5z m94 -4 c25 -10 35 -22 40 -46 8 -45 -20 -102 -58 -115 -25 -9 -31 -6 -57 23 -21 24 -29 42 -29 70 0 42 6 54 35 70 26 15 29 15 69 -2z"/>
 <path d="M1354 576 c-3 -8 -4 -27 -2 -43 3 -23 5 -20 9 15 5 43 2 53 -7 28z"/>
 </g>
<g id="layer108" fill="#828280" stroke="none">
 <path d="M174 1954 c15 -115 93 -221 181 -246 22 -6 45 -17 50 -23 12 -14 120 -46 180 -53 58 -6 104 -45 133 -113 15 -36 33 -61 49 -68 30 -14 25 -21 -32 -58 -52 -32 -60 -63 -17 -63 56 0 58 -7 39 -133 -22 -143 -36 -173 -93 -198 -24 -10 -56 -30 -71 -44 -16 -14 -30 -25 -34 -25 -14 0 -49 -81 -48 -111 1 -31 1 -32 8 -9 26 84 77 143 152 174 67 28 96 87 109 220 5 49 13 93 19 99 15 15 81 -1 81 -21 1 -15 2 -15 10 -2 5 10 23 15 46 15 32 0 39 -4 44 -25 l6 -25 6 28 c4 21 1 30 -13 38 -33 17 -21 29 30 29 33 0 51 -5 54 -14 7 -19 -1 -26 -32 -27 -17 -1 -12 -4 14 -8 l40 -6 -3 -57 c-2 -36 1 -58 7 -58 7 0 11 25 11 60 0 57 1 61 23 58 12 -2 27 -7 34 -11 6 -4 13 -3 15 3 1 5 13 7 25 4 20 -6 22 -12 22 -92 1 -138 8 -156 100 -242 148 -139 173 -259 87 -416 -25 -46 -49 -71 -104 -111 -58 -42 -149 -82 -194 -87 -3 -1 -10 -4 -14 -8 -13 -14 44 -8 73 7 15 8 56 26 91 41 34 15 62 30 62 34 0 4 18 19 40 34 85 56 147 255 106 340 -9 19 -16 37 -16 40 0 13 -56 91 -74 105 -11 8 -42 35 -69 61 l-49 46 -9 90 c-5 49 -9 104 -9 123 1 18 -4 39 -11 47 -9 12 -5 14 29 14 22 0 47 3 56 6 20 8 21 44 1 44 -9 0 -37 17 -64 38 l-48 38 28 16 c15 9 34 32 42 50 18 43 91 134 119 149 12 6 61 17 109 25 48 7 105 17 126 23 56 15 117 63 147 113 23 39 56 143 56 175 0 11 -159 13 -831 13 l-832 0 7 -46z"/>
 <path d="M1022 948 c-19 -19 -14 -55 10 -78 19 -18 24 -18 37 -6 12 13 12 20 0 52 -16 41 -29 50 -47 32z m38 -61 c0 -16 -3 -17 -15 -7 -8 7 -15 24 -15 39 1 25 1 25 15 7 8 -11 15 -29 15 -39z"/>
 <path d="M944 919 c8 -43 24 -59 37 -39 17 27 6 65 -20 68 -22 4 -23 1 -17 -29z m29 -12 c-3 -5 -9 -3 -14 4 -4 7 -5 17 -2 22 3 5 9 3 14 -4 4 -7 5 -17 2 -22z"/>
 <path d="M785 799 c-11 -6 -26 -19 -32 -27 -19 -23 -16 -101 5 -142 14 -30 22 -35 52 -36 42 -1 86 19 100 46 6 12 10 44 8 72 -2 41 -8 55 -28 69 -33 24 -80 32 -105 18z m59 -9 c7 0 25 -11 39 -24 22 -20 25 -30 21 -67 -3 -23 -10 -51 -15 -61 -12 -22 -57 -34 -72 -19 -16 16 -27 13 -21 -6 5 -15 3 -15 -10 2 -53 64 -28 201 32 180 8 -3 19 -5 26 -5z"/>
 <path d="M1112 788 c-13 -7 -27 -27 -33 -49 -10 -32 -9 -43 11 -84 38 -79 97 -84 140 -13 59 96 -19 193 -118 146z m87 -13 c74 -38 25 -181 -55 -161 -52 13 -75 130 -32 160 28 20 51 20 87 1z"/>
 <path d="M511 687 c-1 -21 8 -56 19 -78 21 -40 95 -142 134 -184 27 -29 139 -85 170 -85 13 0 26 -6 29 -12 3 -10 8 -10 16 -2 9 8 -3 15 -46 28 -32 9 -67 22 -78 28 -97 52 -210 198 -234 303 l-9 40 -1 -38z"/>
 <path d="M1354 576 c-3 -8 -4 -27 -2 -43 3 -23 5 -20 9 15 5 43 2 53 -7 28z"/>
 <path d="M900 320 c0 -5 21 -10 47 -10 55 0 54 5 -4 14 -27 4 -43 2 -43 -4z"/>
 <path d="M1040 320 c-24 -8 -23 -8 8 -9 17 -1 32 4 32 9 0 11 -5 11 -40 0z"/>
 </g>
<g id="layer109" fill="#828081" stroke="none">
 <path d="M174 1954 c15 -115 93 -221 181 -246 22 -6 45 -17 50 -23 12 -14 120 -46 180 -53 58 -6 104 -45 133 -113 15 -36 33 -61 49 -68 30 -14 25 -21 -32 -58 -52 -32 -60 -63 -17 -63 56 0 58 -7 39 -133 -22 -143 -36 -173 -93 -198 -24 -10 -56 -30 -71 -44 -16 -14 -30 -25 -34 -25 -14 0 -49 -81 -48 -111 1 -31 1 -32 8 -9 26 85 77 143 153 174 64 27 94 89 108 225 5 46 13 88 19 94 16 16 81 -1 81 -21 1 -15 2 -15 10 -2 5 9 25 17 45 18 31 2 38 -1 43 -20 5 -21 6 -21 12 -2 5 13 1 23 -11 32 -31 22 -22 32 30 32 33 0 51 -5 54 -14 7 -19 -1 -26 -32 -27 -17 -1 -12 -4 14 -8 l40 -6 -3 -57 c-1 -35 2 -58 8 -58 6 0 10 26 10 60 0 57 1 60 24 60 14 0 28 -5 32 -11 4 -8 8 -8 13 0 4 5 16 8 28 5 20 -6 22 -13 22 -92 1 -138 8 -156 99 -242 91 -85 104 -105 127 -183 21 -72 9 -145 -38 -231 -26 -48 -49 -72 -105 -113 -58 -42 -149 -82 -194 -87 -3 -1 -10 -4 -14 -8 -13 -14 44 -8 73 7 15 8 56 26 91 41 34 15 62 30 62 34 0 4 18 19 40 34 58 39 113 155 118 254 3 43 0 72 -6 72 -5 0 -12 13 -15 30 -7 35 -54 109 -81 129 -11 8 -42 35 -69 61 l-49 46 -9 90 c-5 49 -9 104 -9 123 1 18 -4 39 -11 47 -9 12 -5 14 29 14 22 0 47 3 56 6 20 8 21 44 1 44 -9 0 -37 17 -64 38 l-48 38 28 16 c15 9 34 32 42 50 18 43 91 134 119 149 12 6 61 17 109 25 48 7 105 17 126 23 56 15 117 63 147 113 23 39 56 143 56 175 0 11 -159 13 -831 13 l-832 0 7 -46z"/>
 <path d="M1021 946 c-17 -20 -6 -68 18 -83 15 -10 22 -9 31 3 10 11 10 22 -1 51 -16 42 -31 50 -48 29z m39 -59 c0 -10 -5 -15 -11 -12 -14 9 -28 48 -21 59 7 12 32 -24 32 -47z"/>
 <path d="M940 936 c0 -24 19 -66 29 -66 14 0 23 36 16 60 -7 23 -45 28 -45 6z m32 -34 c-4 -13 -7 -12 -12 4 -4 10 -5 23 -2 28 7 13 21 -16 14 -32z"/>
 <path d="M785 799 c-11 -7 -26 -19 -32 -27 -19 -23 -16 -101 5 -142 14 -30 22 -35 52 -36 42 -1 86 19 100 46 6 12 10 44 8 72 -2 41 -8 54 -28 69 -33 23 -80 31 -105 18z m59 -9 c48 -18 65 -44 60 -91 -3 -24 -10 -51 -15 -61 -12 -23 -52 -33 -78 -19 -17 10 -20 9 -14 -5 4 -11 2 -15 -5 -11 -6 4 -18 27 -27 51 -14 35 -15 51 -5 84 9 36 30 61 52 62 4 0 18 -4 32 -10z"/>
 <path d="M1170 787 c58 -16 78 -51 61 -108 -22 -73 -95 -90 -126 -29 -20 39 -19 99 2 122 16 18 16 18 0 12 -9 -3 -22 -23 -28 -44 -10 -33 -9 -44 11 -85 38 -79 97 -84 140 -13 46 75 10 159 -67 157 l-38 -1 45 -11z"/>
 <path d="M511 682 c-1 -18 8 -51 19 -73 21 -40 95 -142 134 -184 27 -29 139 -85 170 -85 13 0 26 -6 29 -12 3 -10 8 -10 16 -2 9 8 -3 15 -46 28 -32 9 -67 22 -78 28 -97 52 -196 177 -231 293 l-12 40 -1 -33z"/>
 <path d="M1352 540 c0 -19 2 -27 5 -17 2 9 2 25 0 35 -3 9 -5 1 -5 -18z"/>
 <path d="M900 319 c0 -5 21 -9 47 -9 25 0 44 2 42 4 -10 8 -89 13 -89 5z"/>
 <path d="M1040 320 c-24 -8 -23 -8 8 -9 17 -1 32 4 32 9 0 11 -5 11 -40 0z"/>
 </g>
<g id="layer110" fill="#817a79" stroke="none">
 <path d="M174 1954 c15 -115 93 -221 181 -246 22 -6 45 -17 50 -23 12 -14 120 -46 180 -53 58 -6 104 -45 133 -113 15 -36 33 -61 49 -68 30 -14 25 -21 -32 -58 -52 -32 -60 -63 -17 -63 48 0 55 -12 48 -76 -21 -179 -40 -228 -102 -255 -25 -10 -52 -26 -60 -34 -8 -8 -23 -20 -32 -27 -31 -22 -62 -84 -61 -119 l1 -34 10 35 c15 58 60 113 118 146 104 59 125 97 141 248 4 43 12 83 18 89 12 12 81 0 81 -15 0 -9 3 -9 12 0 7 7 27 12 46 12 26 0 35 -5 40 -22 5 -21 6 -21 12 -2 5 13 1 23 -11 32 -31 22 -22 32 30 32 33 0 51 -5 54 -14 7 -19 -1 -26 -32 -27 -17 -1 -12 -4 14 -8 l40 -6 -3 -59 c-1 -33 1 -57 5 -52 8 7 8 12 11 79 l2 37 58 -4 c31 -2 58 -5 59 -5 1 -1 2 -40 2 -88 1 -140 8 -157 99 -243 88 -83 101 -101 126 -178 15 -44 16 -63 7 -113 -24 -138 -125 -253 -263 -300 -38 -13 -68 -26 -68 -30 0 -7 116 33 160 56 60 31 127 104 159 175 35 75 50 168 34 203 -6 12 -19 42 -29 67 -17 41 -144 180 -164 180 -4 0 -11 8 -15 17 -9 25 -27 171 -25 217 0 21 -5 44 -11 52 -9 12 -4 14 29 14 22 0 47 3 56 6 20 8 21 44 1 44 -9 0 -37 17 -64 38 l-48 38 28 16 c15 9 34 32 42 50 18 43 91 134 119 149 12 6 61 17 109 25 48 7 105 17 126 23 56 15 117 63 147 113 23 39 56 143 56 175 0 11 -159 13 -831 13 l-832 0 7 -46z"/>
 <path d="M1020 945 c-17 -21 -3 -73 22 -81 27 -8 38 11 28 47 -15 52 -28 61 -50 34z m40 -58 c0 -10 -5 -15 -11 -12 -14 9 -28 48 -21 59 7 12 32 -24 32 -47z"/>
 <path d="M940 936 c0 -24 19 -66 30 -66 16 0 24 49 10 65 -16 19 -40 19 -40 1z m32 -34 c-4 -13 -7 -12 -12 4 -4 10 -5 23 -2 28 7 13 21 -16 14 -32z"/>
 <path d="M774 792 c-38 -25 -44 -103 -13 -163 20 -39 22 -41 57 -34 62 11 72 15 87 45 24 46 19 107 -10 135 -13 14 -32 25 -42 24 -15 0 -14 -2 4 -9 37 -15 56 -54 48 -101 -11 -65 -50 -93 -95 -69 -17 9 -18 8 -13 -7 6 -16 5 -16 -10 -4 -23 18 -40 87 -32 127 3 19 16 40 28 49 21 15 13 22 -9 7z"/>
 <path d="M1164 790 c51 -13 64 -25 72 -65 7 -38 -14 -85 -48 -107 -46 -30 -97 21 -98 96 0 23 7 47 17 58 15 17 15 18 0 13 -9 -4 -21 -22 -27 -41 -15 -44 0 -90 40 -129 26 -25 34 -27 57 -19 38 13 73 68 73 114 0 53 -25 80 -80 85 l-45 5 39 -10z"/>
 <path d="M511 680 c-1 -34 34 -108 46 -96 3 3 0 13 -7 21 -7 9 -19 37 -26 63 -12 46 -13 46 -13 12z"/>
 <path d="M560 565 c0 -8 79 -114 103 -138 31 -31 145 -87 175 -86 27 0 27 0 4 10 -13 5 -35 11 -49 14 -24 4 -72 34 -118 73 -12 9 -40 43 -64 75 -41 54 -51 64 -51 52z"/>
 <path d="M1045 320 c-18 -8 -17 -9 8 -9 15 -1 27 4 27 9 0 12 -8 12 -35 0z"/>
 </g>
<g id="layer111" fill="#727171" stroke="none">
 <path d="M174 1954 c15 -115 93 -221 181 -246 22 -6 45 -17 50 -23 12 -14 120 -46 180 -53 58 -6 104 -45 133 -113 15 -36 33 -61 49 -68 30 -14 25 -21 -32 -58 -52 -33 -60 -63 -17 -63 57 0 61 -12 40 -135 -10 -60 -21 -117 -24 -125 -3 -8 -5 -17 -5 -20 -1 -14 -28 -35 -67 -51 -24 -10 -50 -26 -58 -34 -8 -8 -23 -20 -33 -27 -26 -18 -61 -92 -60 -125 1 -26 2 -26 11 7 15 58 60 113 118 146 104 59 126 99 139 246 4 43 12 83 18 89 14 14 83 3 83 -13 0 -9 3 -9 12 0 7 7 27 12 45 12 26 0 36 -5 43 -22 7 -19 9 -20 9 -5 1 10 -6 25 -14 33 -25 26 -17 34 35 34 28 0 50 -4 50 -10 0 -5 0 -13 1 -17 0 -5 -10 -11 -23 -15 -20 -5 -19 -6 7 -7 17 -1 36 -6 43 -13 9 -9 12 -9 12 0 0 7 19 10 58 9 l57 -2 2 -89 c4 -138 12 -156 112 -255 79 -77 90 -93 111 -154 19 -60 21 -75 11 -128 -24 -138 -125 -253 -263 -300 -38 -13 -68 -26 -68 -30 0 -7 116 33 160 56 60 31 127 104 159 174 47 101 50 152 16 242 -24 62 -39 85 -98 142 -38 37 -73 67 -77 67 -4 0 -11 8 -15 17 -10 24 -26 158 -25 212 0 24 -5 50 -11 57 -9 12 -4 14 29 14 22 0 47 3 56 6 20 8 21 44 1 44 -9 0 -37 17 -64 38 l-48 38 28 16 c15 9 34 32 42 50 18 43 91 134 119 149 12 6 61 17 109 25 48 7 105 17 126 23 56 15 117 63 147 113 23 39 56 143 56 175 0 11 -159 13 -831 13 l-832 0 7 -46z"/>
 <path d="M1087 1240 c-4 -14 -6 -36 -6 -50 1 -18 4 -14 10 14 10 44 6 75 -4 36z"/>
 <path d="M1020 946 c-17 -22 -3 -74 22 -82 27 -8 38 12 26 47 -14 39 -32 53 -48 35z m35 -37 c4 -17 5 -33 2 -36 -9 -8 -39 45 -32 57 11 18 23 11 30 -21z"/>
 <path d="M944 937 c-6 -17 12 -67 25 -67 5 0 12 12 15 26 10 38 -27 75 -40 41z m33 -13 c3 -8 1 -20 -6 -27 -8 -8 -11 -8 -11 0 0 6 -3 18 -6 27 -3 9 -1 16 5 16 7 0 14 -7 18 -16z"/>
 <path d="M761 774 c-27 -34 -27 -93 -1 -144 19 -38 22 -40 58 -35 75 11 102 41 102 113 0 37 -22 82 -41 82 -5 0 0 -13 12 -29 17 -24 20 -37 15 -68 -11 -56 -32 -83 -64 -83 -16 0 -34 6 -41 13 -10 10 -11 8 -5 -8 7 -18 6 -18 -9 -6 -39 31 -45 134 -10 173 9 10 13 18 10 18 -3 0 -15 -12 -26 -26z"/>
 <path d="M1162 791 c49 -10 66 -26 74 -66 7 -39 -14 -85 -50 -109 -24 -15 -28 -15 -50 -1 -47 31 -63 118 -29 159 l18 21 -22 -19 c-45 -37 -36 -113 20 -165 21 -19 30 -22 54 -14 38 13 73 67 73 113 0 54 -25 80 -80 85 -43 4 -43 4 -8 -4z"/>
 <path d="M511 672 c-1 -25 14 -58 36 -80 17 -18 17 -3 -1 17 -8 9 -19 32 -24 51 -8 26 -10 29 -11 12z"/>
 <path d="M560 560 c0 -5 3 -10 8 -10 4 0 16 -15 26 -34 21 -39 95 -120 103 -112 3 2 -11 21 -30 40 -20 19 -49 56 -67 81 -31 46 -40 53 -40 35z"/>
 <path d="M785 355 c34 -16 64 -20 50 -6 -6 4 -26 11 -45 14 l-35 6 30 -14z"/>
 </g>
<g id="layer112" fill="#626260" stroke="none">
 <path d="M174 1954 c15 -115 93 -221 181 -246 22 -6 45 -17 50 -23 12 -14 120 -46 180 -53 58 -6 104 -45 133 -113 15 -36 33 -61 49 -68 30 -14 25 -21 -32 -58 -71 -44 -62 -61 42 -75 9 -1 10 -5 2 -14 -6 -7 -6 -14 -1 -18 6 -3 12 1 16 9 6 16 47 20 74 7 9 -5 36 -7 58 -5 35 4 41 8 37 24 -5 17 0 19 45 19 37 0 51 -4 56 -17 4 -9 1 -20 -5 -24 -17 -10 30 -16 63 -8 16 4 28 3 30 -3 3 -7 11 -6 25 3 12 7 26 10 30 5 4 -4 11 -58 14 -120 3 -61 12 -123 19 -136 7 -14 46 -56 86 -93 76 -71 118 -139 130 -214 8 -52 -16 -146 -55 -211 -17 -30 -24 -49 -16 -46 29 12 83 138 91 216 5 40 0 59 -34 130 -26 56 -53 95 -81 121 -24 20 -45 37 -47 37 -11 0 -54 54 -54 66 0 8 -4 14 -8 14 -4 0 -6 16 -4 36 3 27 1 35 -7 29 -9 -5 -8 -1 1 14 10 17 10 25 0 41 -8 13 -10 35 -6 60 4 26 2 45 -6 55 -11 13 -7 15 28 15 22 0 47 3 56 6 20 8 21 44 1 44 -9 0 -37 17 -64 38 l-48 38 28 16 c15 9 34 32 42 50 18 43 91 134 119 149 12 6 61 17 109 25 48 7 105 17 126 23 56 15 117 63 147 113 23 39 56 143 56 175 0 11 -159 13 -831 13 l-832 0 7 -46z"/>
 <path d="M765 1228 c-2 -7 -6 -31 -8 -53 -3 -22 -8 -47 -12 -56 -3 -10 -2 -20 3 -23 14 -8 21 16 28 85 5 54 -1 77 -11 47z"/>
 <path d="M1082 1200 c0 -19 2 -27 5 -17 2 9 2 25 0 35 -3 9 -5 1 -5 -18z"/>
 <path d="M730 1065 c-7 -8 -9 -15 -5 -15 18 0 -24 -34 -62 -51 -24 -10 -55 -30 -70 -44 -16 -14 -30 -25 -34 -25 -3 0 -6 -7 -6 -15 0 -9 13 -3 36 18 20 18 58 43 84 56 28 15 55 37 63 54 17 32 14 46 -6 22z"/>
 <path d="M944 937 c-6 -17 12 -67 25 -67 5 0 12 12 15 26 10 38 -27 75 -40 41z m32 -11 c3 -8 1 -23 -5 -33 -9 -16 -10 -16 -11 -1 0 9 -3 23 -6 32 -3 9 -1 16 5 16 7 0 14 -6 17 -14z"/>
 <path d="M1050 932 c6 -13 10 -33 8 -44 -3 -21 -4 -21 -20 -4 -10 10 -18 13 -18 7 0 -9 31 -31 44 -31 13 0 5 57 -10 76 -14 18 -15 18 -4 -4z"/>
 <path d="M532 877 c-6 -6 -13 -26 -16 -42 -3 -17 -3 -23 0 -15 4 8 13 27 21 43 14 29 12 35 -5 14z"/>
 <path d="M756 768 c-9 -12 -16 -37 -16 -55 0 -41 27 -110 46 -117 9 -4 7 5 -7 23 -29 39 -37 113 -15 146 20 31 13 33 -8 3z"/>
 <path d="M890 765 c20 -21 22 -31 16 -71 -3 -26 -12 -55 -19 -64 -6 -9 -2 -5 11 8 16 16 22 35 22 65 0 43 -22 87 -42 87 -6 0 -1 -11 12 -25z"/>
 <path d="M1215 770 c14 -15 20 -36 20 -67 0 -38 -5 -49 -33 -74 -19 -17 -26 -29 -18 -29 16 0 50 43 61 78 11 37 -3 90 -28 103 l-22 12 20 -23z"/>
 <path d="M1074 707 c3 -10 6 -25 6 -32 0 -17 58 -85 71 -85 5 0 -6 16 -26 35 -19 20 -35 43 -35 53 0 9 -5 24 -11 32 -9 12 -10 12 -5 -3z"/>
 <path d="M1296 414 c-33 -24 -64 -44 -69 -44 -6 0 -8 -3 -5 -6 9 -8 82 31 114 61 46 42 22 36 -40 -11z"/>
 </g>
<g id="layer113" fill="#545353" stroke="none">
 <path d="M174 1954 c15 -115 93 -221 181 -246 22 -6 45 -17 50 -23 12 -14 120 -46 180 -53 58 -6 104 -45 133 -113 15 -36 33 -61 49 -68 30 -14 25 -21 -32 -58 -25 -15 -45 -35 -45 -44 0 -17 18 -22 130 -34 30 -4 57 -11 58 -16 2 -5 8 -6 14 -3 5 3 26 6 46 6 20 0 32 3 25 5 -7 2 -9 11 -6 19 6 16 102 20 105 4 0 -5 1 -16 2 -22 1 -19 28 -27 49 -14 12 8 22 8 35 0 13 -9 22 -9 34 0 9 7 38 13 65 14 26 2 56 5 66 8 21 7 23 44 2 44 -9 0 -37 17 -64 38 l-48 38 28 16 c15 9 34 32 42 50 18 43 91 134 119 149 12 6 61 17 109 25 48 7 105 17 126 23 56 15 117 63 147 113 23 39 56 143 56 175 0 11 -159 13 -831 13 l-832 0 7 -46z"/>
 <path d="M1228 1284 c-5 -4 -8 -19 -8 -33 0 -18 3 -22 11 -14 6 6 9 21 7 33 -1 12 -6 18 -10 14z"/>
 <path d="M1225 1138 c4 -91 13 -110 74 -163 77 -67 103 -98 130 -155 43 -92 35 -196 -24 -296 -31 -52 -32 -55 -7 -27 52 60 94 216 71 263 -4 8 -19 41 -34 72 -23 50 -115 162 -115 141 0 -14 -60 59 -60 73 0 8 -4 14 -9 14 -6 0 -8 17 -5 38 3 28 2 32 -5 17 -9 -19 -10 -19 -10 3 -1 12 4 22 9 22 6 0 10 7 10 15 0 8 -4 15 -9 15 -5 0 -12 10 -15 23 -3 12 -3 -12 -1 -55z"/>
 <path d="M760 1177 c0 -14 -3 -40 -6 -58 -4 -23 -2 -29 4 -19 14 23 22 89 11 95 -5 4 -9 -5 -9 -18z"/>
 <path d="M735 1066 c-5 -6 -11 -20 -13 -31 -2 -15 2 -13 14 8 16 30 16 43 -1 23z"/>
 <path d="M1226 755 c12 -18 15 -37 11 -63 -5 -25 -3 -32 3 -22 18 28 2 110 -22 110 -5 0 -1 -11 8 -25z"/>
 <path d="M912 710 c0 -19 2 -27 5 -17 2 9 2 25 0 35 -3 9 -5 1 -5 -18z"/>
 <path d="M1074 707 c3 -10 6 -25 6 -32 0 -17 58 -85 72 -85 5 0 -7 15 -26 34 -20 18 -36 42 -36 52 0 11 -5 26 -11 34 -9 12 -10 12 -5 -3z"/>
 <path d="M901 661 c-1 -8 -9 -24 -18 -35 -16 -20 -16 -20 6 0 13 12 21 28 18 35 -4 11 -6 11 -6 0z"/>
 </g>
<g id="layer114" fill="#674948" stroke="none">
 <path d="M174 1954 c15 -115 93 -221 181 -246 22 -6 45 -17 50 -23 12 -14 120 -46 180 -53 58 -6 104 -45 133 -113 15 -36 33 -61 49 -68 30 -14 25 -21 -32 -58 -25 -15 -45 -35 -45 -44 0 -16 10 -19 106 -33 17 -2 54 -7 82 -11 43 -6 53 -4 71 14 39 39 141 22 116 -19 -5 -8 34 -7 165 6 88 8 100 12 100 34 0 11 -7 20 -15 20 -9 0 -37 17 -64 38 l-48 38 28 16 c15 9 34 32 42 50 18 43 91 134 119 149 12 6 61 17 109 25 48 7 105 17 126 23 56 15 117 63 147 113 23 39 56 143 56 175 0 11 -159 13 -831 13 l-832 0 7 -46z"/>
 <path d="M1223 1160 c0 -30 2 -43 4 -27 2 15 2 39 0 55 -2 15 -4 2 -4 -28z"/>
 <path d="M766 1173 c-2 -10 -7 -34 -10 -53 -8 -44 8 -11 17 38 7 34 2 45 -7 15z"/>
 <path d="M1231 1077 c-1 -23 28 -75 46 -81 10 -4 10 -1 0 14 -6 11 -15 20 -19 20 -4 0 -12 15 -17 33 -5 17 -10 24 -10 14z"/>
 <path d="M1300 975 c0 -2 20 -19 45 -39 25 -21 42 -31 39 -23 -3 8 -16 20 -30 27 -13 7 -24 19 -24 25 0 6 -7 12 -15 12 -8 0 -15 -1 -15 -2z"/>
 <path d="M1408 863 c55 -79 64 -195 22 -290 -10 -24 -17 -43 -15 -43 11 0 46 84 50 120 3 23 6 44 7 48 9 32 -54 192 -74 192 -5 0 -1 -12 10 -27z"/>
 <path d="M1231 751 c6 -13 9 -40 5 -60 -4 -25 -2 -31 4 -21 15 23 12 64 -6 86 -14 18 -15 18 -3 -5z"/>
 <path d="M1081 678 c-1 -9 9 -27 22 -40 12 -13 17 -17 10 -8 -7 8 -16 27 -22 40 -6 17 -10 19 -10 8z"/>
 </g>
<g id="layer115" fill="#c32602" stroke="none">
 <path d="M174 1954 c15 -115 93 -221 181 -246 22 -6 45 -17 50 -23 12 -14 120 -46 180 -53 58 -6 104 -45 133 -113 15 -36 33 -61 49 -68 30 -14 25 -21 -32 -58 -56 -35 -59 -59 -7 -66 158 -24 212 -25 227 -3 17 22 100 22 109 0 3 -9 4 -20 0 -25 -3 -5 5 -9 18 -9 19 0 20 2 8 11 -12 8 -11 9 5 5 33 -9 151 -4 213 10 25 5 31 44 7 44 -9 0 -37 17 -64 38 l-48 38 28 16 c15 9 34 32 42 50 18 43 91 134 119 149 12 6 61 17 109 25 48 7 105 17 126 23 56 15 117 63 147 113 23 39 56 143 56 175 0 11 -159 13 -831 13 l-832 0 7 -46z m1566 -127 c0 -2 -15 -16 -32 -33 l-33 -29 29 33 c28 30 36 37 36 29z"/>
 <path d="M1223 1160 c0 -30 2 -43 4 -27 2 15 2 39 0 55 -2 15 -4 2 -4 -28z"/>
 <path d="M766 1173 c-2 -10 -7 -34 -10 -53 -8 -44 8 -11 17 38 7 34 2 45 -7 15z"/>
 <path d="M1231 1077 c-1 -23 28 -75 46 -81 10 -4 10 -1 0 14 -6 11 -15 20 -19 20 -4 0 -12 15 -17 33 -5 17 -10 24 -10 14z"/>
 <path d="M1300 975 c0 -2 20 -19 45 -39 25 -21 42 -31 39 -23 -3 8 -16 20 -30 27 -13 7 -24 19 -24 25 0 6 -7 12 -15 12 -8 0 -15 -1 -15 -2z"/>
 <path d="M1408 863 c55 -79 64 -195 22 -290 -10 -24 -17 -43 -15 -43 11 0 46 84 50 120 3 23 6 44 7 48 9 32 -54 192 -74 192 -5 0 -1 -12 10 -27z"/>
 <path d="M1231 751 c6 -13 9 -40 5 -60 -4 -25 -2 -31 4 -21 15 23 12 64 -6 86 -14 18 -15 18 -3 -5z"/>
 <path d="M1081 678 c-1 -9 9 -27 22 -40 12 -13 17 -17 10 -8 -7 8 -16 27 -22 40 -6 17 -10 19 -10 8z"/>
 </g>
<g id="layer116" fill="#6d3f32" stroke="none">
 <path d="M174 1954 c15 -115 93 -221 181 -246 22 -6 45 -17 50 -23 12 -14 120 -46 180 -53 58 -6 104 -45 133 -113 16 -38 33 -61 51 -69 l26 -12 -22 -18 c-65 -53 -85 -71 -80 -76 3 -3 16 3 28 15 15 14 36 21 60 21 25 0 41 6 47 16 8 14 10 14 15 1 8 -20 186 -12 203 9 10 12 12 11 17 -6 4 -14 14 -20 34 -21 15 0 44 -2 63 -3 19 -1 41 2 48 7 7 6 12 6 12 -1 0 -6 15 -14 33 -17 17 -4 38 -12 45 -17 6 -6 12 -7 12 -2 0 5 -24 27 -54 49 l-53 40 28 17 c16 10 35 32 42 50 18 43 91 134 119 149 12 6 61 17 109 25 48 7 105 17 126 23 56 15 117 63 147 113 23 39 56 143 56 175 0 11 -159 13 -831 13 l-832 0 7 -46z m1566 -127 c0 -2 -15 -16 -32 -33 l-33 -29 29 33 c28 30 36 37 36 29z"/>
 <path d="M1064 1298 c-3 -4 4 -8 15 -8 11 0 22 4 25 8 2 4 -4 8 -15 8 -11 0 -23 -4 -25 -8z"/>
 <path d="M1223 1160 c0 -30 2 -43 4 -27 2 15 2 39 0 55 -2 15 -4 2 -4 -28z"/>
 <path d="M766 1173 c-2 -10 -7 -34 -10 -53 -8 -44 8 -11 17 38 7 34 2 45 -7 15z"/>
 <path d="M1231 1077 c-1 -23 28 -75 46 -81 10 -4 10 -1 0 14 -6 11 -15 20 -19 20 -4 0 -12 15 -17 33 -5 17 -10 24 -10 14z"/>
 <path d="M1300 975 c0 -2 20 -19 45 -39 25 -21 42 -31 39 -23 -3 8 -16 20 -30 27 -13 7 -24 19 -24 25 0 6 -7 12 -15 12 -8 0 -15 -1 -15 -2z"/>
 <path d="M1408 863 c55 -79 64 -195 22 -290 -10 -24 -17 -43 -15 -43 11 0 46 84 50 120 3 23 6 44 7 48 9 32 -54 192 -74 192 -5 0 -1 -12 10 -27z"/>
 <path d="M1231 751 c6 -13 9 -40 5 -60 -4 -25 -2 -31 4 -21 15 23 12 64 -6 86 -14 18 -15 18 -3 -5z"/>
 <path d="M1081 678 c-1 -9 9 -27 22 -40 12 -13 17 -17 10 -8 -7 8 -16 27 -22 40 -6 17 -10 19 -10 8z"/>
 </g>
<g id="layer117" fill="#8d330f" stroke="none">
 <path d="M174 1954 c15 -115 93 -221 181 -246 22 -6 45 -17 50 -23 12 -14 120 -46 180 -53 58 -6 104 -45 133 -113 16 -38 33 -61 51 -69 l26 -12 -22 -18 c-65 -53 -85 -71 -80 -76 3 -3 16 3 28 15 15 14 36 21 60 21 25 0 41 6 47 16 8 14 10 14 15 1 8 -20 186 -12 203 9 10 12 12 11 17 -6 4 -14 14 -20 34 -21 15 0 44 -2 63 -3 19 -1 41 2 48 7 7 6 12 6 12 -1 0 -6 15 -14 33 -17 17 -4 38 -12 45 -17 6 -6 12 -7 12 -2 0 5 -24 27 -54 49 l-53 40 28 17 c16 10 35 32 42 50 18 43 91 134 119 149 12 6 61 17 109 25 122 18 160 30 207 64 49 36 86 95 106 175 18 68 20 85 7 85 -5 0 -14 -24 -20 -52 -26 -121 -85 -198 -177 -228 -59 -20 -60 -5 -1 23 30 15 70 44 88 64 32 38 72 115 84 166 l7 27 -800 0 c-754 0 -801 -1 -805 -17 -4 -17 -5 -17 -6 0 0 9 -6 17 -12 17 -8 0 -10 -15 -5 -46z m114 -145 c17 -19 47 -44 66 -54 35 -19 47 -35 26 -35 -23 0 -89 41 -113 69 -26 31 -67 128 -67 159 0 9 13 -10 29 -44 16 -33 42 -76 59 -95z m443 -14 c-22 -49 -80 -129 -88 -121 -3 3 18 39 46 81 28 42 51 82 51 88 0 5 3 8 6 4 3 -3 -4 -26 -15 -52z m-40 -182 c41 -46 36 -60 -6 -19 -25 24 -45 47 -45 50 0 10 33 -10 51 -31z"/>
 <path d="M1064 1298 c-3 -4 4 -8 15 -8 11 0 22 4 25 8 2 4 -4 8 -15 8 -11 0 -23 -4 -25 -8z"/>
 <path d="M1223 1160 c0 -30 2 -43 4 -27 2 15 2 39 0 55 -2 15 -4 2 -4 -28z"/>
 <path d="M766 1173 c-2 -10 -7 -34 -10 -53 -8 -44 8 -11 17 38 7 34 2 45 -7 15z"/>
 <path d="M1231 1077 c-1 -23 28 -75 46 -81 10 -4 10 -1 0 14 -6 11 -15 20 -19 20 -4 0 -12 15 -17 33 -5 17 -10 24 -10 14z"/>
 <path d="M1300 975 c0 -2 20 -19 45 -39 25 -21 42 -31 39 -23 -3 8 -16 20 -30 27 -13 7 -24 19 -24 25 0 6 -7 12 -15 12 -8 0 -15 -1 -15 -2z"/>
 <path d="M1408 863 c55 -79 64 -195 22 -290 -10 -24 -17 -43 -15 -43 11 0 46 84 50 120 3 23 6 44 7 48 9 32 -54 192 -74 192 -5 0 -1 -12 10 -27z"/>
 <path d="M1231 751 c6 -13 9 -40 5 -60 -4 -25 -2 -31 4 -21 15 23 12 64 -6 86 -14 18 -15 18 -3 -5z"/>
 <path d="M1081 678 c-1 -9 9 -27 22 -40 12 -13 17 -17 10 -8 -7 8 -16 27 -22 40 -6 17 -10 19 -10 8z"/>
 </g>
<g id="layer118" fill="#424041" stroke="none">
 <path d="M174 1954 c15 -115 93 -221 181 -246 22 -6 45 -17 50 -23 12 -14 120 -46 180 -53 58 -6 104 -45 133 -113 16 -37 33 -61 50 -69 l26 -11 -45 -39 c-24 -22 -47 -39 -51 -40 -5 0 -8 -5 -8 -10 0 -6 17 1 37 15 21 14 46 25 57 25 10 0 25 8 32 18 13 15 15 16 27 1 16 -22 176 -15 194 8 13 17 33 9 33 -12 0 -20 107 -31 136 -13 6 4 18 -2 27 -13 9 -10 25 -19 35 -19 10 0 23 -5 30 -12 7 -7 12 -8 12 -2 0 5 -24 27 -54 49 l-53 40 28 17 c16 10 35 32 42 50 18 43 91 134 119 149 12 6 61 17 109 25 122 18 160 30 207 64 49 36 86 95 106 175 18 68 20 85 7 85 -5 0 -14 -24 -20 -52 -26 -121 -85 -198 -177 -228 -59 -20 -60 -5 -1 23 30 15 70 44 88 64 32 38 72 115 84 166 l7 27 -800 0 c-754 0 -801 -1 -805 -17 -4 -17 -5 -17 -6 0 0 9 -6 17 -12 17 -8 0 -10 -15 -5 -46z m114 -145 c17 -19 47 -44 66 -54 35 -19 47 -35 26 -35 -23 0 -89 41 -113 69 -26 31 -67 128 -67 159 0 9 13 -10 29 -44 16 -33 42 -76 59 -95z m443 -14 c-22 -49 -80 -129 -88 -121 -3 3 18 39 46 81 28 42 51 82 51 88 0 5 3 8 6 4 3 -3 -4 -26 -15 -52z m-40 -182 c41 -46 36 -60 -6 -19 -25 24 -45 47 -45 50 0 10 33 -10 51 -31z"/>
 <path d="M1223 1160 c0 -30 2 -43 4 -27 2 15 2 39 0 55 -2 15 -4 2 -4 -28z"/>
 <path d="M766 1173 c-2 -10 -7 -34 -10 -53 -8 -44 8 -11 17 38 7 34 2 45 -7 15z"/>
 <path d="M1231 1077 c-1 -23 28 -75 46 -81 10 -4 10 -1 0 14 -6 11 -15 20 -19 20 -4 0 -12 15 -17 33 -5 17 -10 24 -10 14z"/>
 <path d="M1300 975 c0 -2 20 -19 45 -39 25 -21 42 -31 39 -23 -3 8 -16 20 -30 27 -13 7 -24 19 -24 25 0 6 -7 12 -15 12 -8 0 -15 -1 -15 -2z"/>
 <path d="M1408 863 c55 -79 64 -195 22 -290 -10 -24 -17 -43 -15 -43 11 0 46 84 50 120 3 23 6 44 7 48 9 32 -54 192 -74 192 -5 0 -1 -12 10 -27z"/>
 <path d="M1231 751 c6 -13 9 -40 5 -60 -4 -25 -2 -31 4 -21 15 23 12 64 -6 86 -14 18 -15 18 -3 -5z"/>
 <path d="M1081 678 c-1 -9 9 -27 22 -40 12 -13 17 -17 10 -8 -7 8 -16 27 -22 40 -6 17 -10 19 -10 8z"/>
 </g>
<g id="layer119" fill="#66321e" stroke="none">
 <path d="M174 1954 c15 -115 93 -221 181 -246 22 -6 45 -17 50 -23 12 -14 120 -46 180 -53 58 -6 104 -45 133 -113 16 -37 33 -61 50 -69 l26 -11 -45 -39 c-24 -22 -47 -39 -51 -40 -5 0 -8 -5 -8 -10 0 -6 17 1 37 15 21 14 46 25 57 25 10 0 25 8 32 18 13 15 15 16 27 1 16 -22 176 -15 194 8 13 17 33 9 33 -12 0 -20 107 -31 136 -13 6 4 18 -2 27 -13 9 -10 25 -19 35 -19 10 0 23 -5 30 -12 7 -7 12 -8 12 -2 0 5 -24 27 -54 49 l-53 40 28 17 c16 10 35 32 42 50 18 43 91 134 119 149 12 6 61 17 109 25 122 18 160 30 207 64 49 36 86 95 106 175 18 68 20 85 7 85 -5 0 -14 -24 -20 -52 -26 -121 -85 -198 -177 -228 -59 -20 -60 -5 -1 23 30 15 70 44 88 64 32 38 72 115 84 166 l7 27 -800 0 c-754 0 -801 -1 -805 -17 -4 -17 -5 -17 -6 0 0 9 -6 17 -12 17 -8 0 -10 -15 -5 -46z m114 -145 c17 -19 47 -44 66 -54 35 -19 47 -35 26 -35 -23 0 -89 41 -113 69 -26 31 -67 128 -67 159 0 9 13 -10 29 -44 16 -33 42 -76 59 -95z m443 -14 c-22 -49 -80 -129 -88 -121 -3 3 18 39 46 81 28 42 51 82 51 88 0 5 3 8 6 4 3 -3 -4 -26 -15 -52z m-40 -182 c41 -46 36 -60 -6 -19 -25 24 -45 47 -45 50 0 10 33 -10 51 -31z"/>
 <path d="M1223 1165 c0 -22 2 -30 4 -17 2 12 2 30 0 40 -3 9 -5 -1 -4 -23z"/>
 <path d="M1463 710 c0 -25 2 -35 4 -22 2 12 2 32 0 45 -2 12 -4 2 -4 -23z"/>
 </g>
<g id="layer120" fill="#4f2f27" stroke="none">
 <path d="M174 1954 c15 -115 93 -221 181 -246 22 -6 45 -17 50 -23 12 -14 120 -46 180 -53 58 -6 104 -45 133 -113 16 -38 33 -61 51 -69 l26 -12 -22 -18 c-107 -86 -111 -101 -8 -29 100 70 130 82 217 87 95 5 145 -10 225 -70 32 -23 68 -48 81 -55 39 -21 23 1 -32 42 l-53 40 28 17 c16 10 35 32 42 50 18 43 91 134 119 149 12 6 61 17 109 25 122 18 160 30 207 64 49 36 86 95 106 175 18 68 20 85 7 85 -4 0 -15 -30 -24 -66 -40 -161 -104 -211 -315 -246 -62 -10 -65 -10 -105 19 -28 19 -56 54 -86 105 -43 77 -43 77 -66 60 -13 -9 -31 -29 -41 -44 -17 -25 -20 -26 -36 -12 -9 9 -14 22 -11 30 2 7 -7 38 -21 69 -14 31 -23 62 -20 70 5 13 -9 15 -89 15 l-95 0 -5 -27 c-13 -67 -38 -138 -55 -155 -18 -19 -19 -18 -42 15 -13 19 -32 40 -42 46 -15 9 -21 5 -39 -31 -20 -38 -68 -107 -116 -165 l-18 -21 -70 19 c-38 10 -79 19 -91 19 -30 0 -135 54 -161 82 -28 30 -60 101 -74 166 -14 66 -34 70 -25 6z m651 -168 c29 -46 64 -91 76 -99 27 -20 21 -28 -49 -71 -68 -41 -87 -70 -79 -122 6 -35 6 -36 -13 -19 -10 9 -22 31 -26 47 -3 17 -26 50 -50 74 -27 26 -44 51 -44 66 0 12 20 51 44 86 24 34 49 76 56 92 7 17 16 30 21 30 5 0 34 -38 64 -84z m444 34 c14 -27 42 -66 63 -87 21 -20 38 -47 38 -58 0 -12 -20 -43 -45 -69 -25 -27 -53 -67 -64 -91 -22 -50 -45 -71 -28 -25 10 25 8 34 -9 57 -11 16 -42 42 -69 60 -27 18 -55 39 -64 48 -14 14 -13 17 7 31 13 9 48 54 77 100 30 46 58 84 62 84 5 0 19 -23 32 -50z m-254 -67 c11 -76 33 -112 91 -149 74 -47 88 -73 21 -37 -24 13 -57 17 -127 17 -70 0 -103 -4 -127 -17 -67 -35 -53 -11 21 38 59 39 80 74 91 148 4 26 11 47 15 47 4 0 11 -21 15 -47z"/>
 <path d="M1223 1165 c0 -22 2 -30 4 -17 2 12 2 30 0 40 -3 9 -5 -1 -4 -23z"/>
 <path d="M1463 710 c0 -25 2 -35 4 -22 2 12 2 32 0 45 -2 12 -4 2 -4 -23z"/>
 </g>
<g id="layer121" fill="#7e2001" stroke="none">
 <path d="M174 1954 c15 -115 93 -221 181 -246 22 -6 45 -17 50 -23 12 -14 120 -46 180 -53 58 -6 104 -45 133 -113 16 -38 33 -61 51 -69 l26 -12 -22 -18 c-107 -86 -111 -101 -8 -29 100 70 130 82 217 87 95 5 145 -10 225 -70 32 -23 68 -48 81 -55 39 -21 23 1 -32 42 l-53 40 27 17 c23 14 70 89 70 112 0 18 -21 -8 -39 -48 -22 -51 -45 -72 -28 -26 10 25 8 34 -9 57 -11 16 -42 42 -69 60 -27 18 -55 39 -64 48 -14 14 -13 17 7 31 13 9 48 54 77 100 30 46 58 84 63 84 5 0 17 -19 28 -41 10 -23 20 -37 22 -31 2 6 -6 29 -18 52 -21 42 -22 42 -43 23 -20 -16 -41 -40 -59 -67 -12 -18 -36 14 -36 49 0 19 -9 51 -21 71 -12 19 -21 44 -21 55 0 17 -8 19 -90 19 -87 0 -90 -1 -89 -22 1 -23 -30 -119 -51 -157 -15 -29 -24 -26 -51 13 -12 18 -31 39 -41 45 -15 9 -21 5 -39 -30 -21 -42 -51 -86 -103 -150 -26 -33 -31 -35 -65 -28 -20 5 -61 14 -91 20 -151 32 -224 89 -259 204 -12 37 -21 76 -21 86 0 10 -5 19 -11 19 -8 0 -10 -15 -5 -46z m651 -168 c29 -46 64 -91 76 -99 27 -20 21 -28 -49 -71 -68 -41 -87 -70 -79 -121 8 -50 -12 -33 -48 40 -15 32 -39 62 -56 72 -45 27 -39 64 26 163 30 46 55 87 55 92 0 25 27 -2 75 -76z m190 -33 c11 -76 33 -112 91 -149 74 -47 88 -73 21 -37 -24 13 -57 17 -127 17 -70 0 -103 -4 -127 -17 -67 -35 -53 -11 21 38 59 39 80 74 91 148 4 26 11 47 15 47 4 0 11 -21 15 -47z"/>
 <path d="M1806 1963 c-24 -136 -87 -216 -194 -248 -34 -10 -62 -23 -62 -28 0 -4 8 -6 18 -3 9 3 35 10 58 15 91 24 159 100 188 216 18 68 20 85 7 85 -5 0 -12 -17 -15 -37z"/>
 <path d="M1370 1697 c0 -7 7 -22 15 -33 13 -17 14 -16 4 14 -11 33 -19 41 -19 19z"/>
 <path d="M1223 1165 c0 -22 2 -30 4 -17 2 12 2 30 0 40 -3 9 -5 -1 -4 -23z"/>
 <path d="M1463 710 c0 -25 2 -35 4 -22 2 12 2 32 0 45 -2 12 -4 2 -4 -23z"/>
 </g>
<g id="layer122" fill="#58260f" stroke="none">
 <path d="M174 1954 c15 -115 93 -221 181 -246 22 -6 45 -17 50 -23 12 -14 120 -46 180 -53 58 -6 104 -45 133 -113 16 -38 33 -61 50 -69 l26 -11 -39 -35 c-38 -32 -38 -34 -10 -22 17 7 46 25 67 40 52 40 110 58 188 58 85 0 136 -18 209 -74 32 -24 69 -47 82 -51 15 -4 3 10 -32 37 l-56 44 27 16 c23 13 70 88 70 112 0 18 -21 -8 -39 -48 -22 -51 -45 -72 -28 -26 10 25 8 34 -9 57 -11 16 -42 42 -69 60 -27 18 -55 39 -64 48 -14 14 -13 17 7 31 13 9 48 54 77 100 30 46 58 84 63 84 5 0 17 -19 28 -41 10 -23 20 -37 22 -31 2 6 -6 29 -18 52 -21 42 -22 42 -43 23 -20 -16 -41 -40 -59 -67 -12 -18 -36 14 -36 49 0 19 -9 51 -21 71 -12 19 -21 44 -21 55 0 17 -8 19 -90 19 -87 0 -90 -1 -89 -22 1 -23 -30 -119 -51 -157 -15 -29 -24 -26 -51 13 -12 18 -31 39 -41 45 -15 9 -21 5 -39 -30 -21 -42 -51 -86 -103 -150 -26 -33 -31 -35 -65 -28 -20 5 -61 14 -91 20 -151 32 -224 89 -259 204 -12 37 -21 76 -21 86 0 10 -5 19 -11 19 -8 0 -10 -15 -5 -46z m651 -168 c29 -46 64 -91 76 -99 27 -20 21 -28 -49 -71 -68 -41 -87 -70 -79 -121 8 -50 -12 -33 -48 40 -15 32 -39 62 -56 72 -45 27 -39 64 26 163 30 46 55 87 55 92 0 25 27 -2 75 -76z m190 -33 c11 -76 33 -112 91 -149 74 -47 88 -73 21 -37 -24 13 -57 17 -127 17 -70 0 -103 -4 -127 -17 -67 -35 -53 -11 21 38 59 39 80 74 91 148 4 26 11 47 15 47 4 0 11 -21 15 -47z"/>
 <path d="M1806 1963 c-24 -136 -87 -216 -194 -248 -34 -10 -62 -23 -62 -28 0 -4 8 -6 18 -3 9 3 35 10 58 15 91 24 159 100 188 216 18 68 20 85 7 85 -5 0 -12 -17 -15 -37z"/>
 <path d="M1370 1697 c0 -7 7 -22 15 -33 13 -17 14 -16 4 14 -11 33 -19 41 -19 19z"/>
 <path d="M1223 1165 c0 -22 2 -30 4 -17 2 12 2 30 0 40 -3 9 -5 -1 -4 -23z"/>
 <path d="M1463 710 c0 -25 2 -35 4 -22 2 12 2 32 0 45 -2 12 -4 2 -4 -23z"/>
 </g>
<g id="layer123" fill="#302e2e" stroke="none">
 <path d="M174 1954 c15 -115 93 -221 181 -246 22 -6 45 -17 50 -23 12 -14 120 -46 180 -53 58 -6 104 -45 133 -113 16 -38 33 -61 51 -69 l26 -12 -30 -24 c-48 -39 -12 -28 52 16 71 48 150 64 246 49 60 -9 84 -22 218 -118 40 -28 17 0 -30 37 l-48 38 27 16 c23 13 70 88 70 112 0 18 -28 -17 -35 -42 -8 -31 -33 -62 -51 -62 -8 0 -11 12 -7 38 5 41 1 46 -118 142 l-43 34 33 8 c25 7 42 24 78 81 25 40 55 84 67 98 12 14 2 5 -21 -20 -34 -36 -45 -42 -56 -32 -8 6 -15 27 -15 46 0 19 -9 51 -21 71 -12 19 -21 44 -21 55 0 17 -8 19 -90 19 -87 0 -90 -1 -89 -22 1 -27 -44 -155 -60 -171 -8 -8 -23 1 -54 34 -23 25 -33 34 -21 20 12 -14 42 -59 68 -99 36 -57 52 -74 76 -79 37 -7 30 -17 -50 -76 -74 -55 -81 -65 -76 -109 4 -38 -5 -47 -30 -30 -6 4 -23 33 -38 64 -17 36 -39 64 -57 75 -37 22 -40 70 -5 116 31 43 65 101 42 72 -123 -150 -118 -147 -182 -120 -19 8 -52 16 -73 19 -59 6 -147 53 -186 99 -33 39 -75 143 -75 188 0 10 -5 19 -11 19 -8 0 -10 -15 -5 -46z m841 -191 c16 -94 34 -120 123 -176 40 -26 42 -29 42 -78 0 -45 -2 -50 -17 -44 -45 18 -122 35 -163 35 -49 0 -132 -20 -169 -40 -24 -12 -24 -12 -18 26 4 22 7 47 7 57 0 10 22 32 54 52 66 42 94 76 101 124 11 67 15 81 25 81 5 0 12 -17 15 -37z m-45 -14 c0 -20 -4 -28 -12 -23 -7 5 -9 1 -6 -13 4 -16 1 -20 -21 -19 -14 1 -25 5 -24 9 2 8 55 75 61 76 1 1 2 -13 2 -30z m124 -51 c-11 -17 -33 -7 -48 24 -25 49 -19 55 19 18 19 -18 32 -37 29 -42z"/>
 <path d="M1806 1963 c-24 -136 -87 -216 -194 -248 -34 -10 -62 -23 -62 -28 0 -4 8 -6 18 -3 9 3 35 10 58 15 91 24 159 100 188 216 18 68 20 85 7 85 -5 0 -12 -17 -15 -37z"/>
 <path d="M1250 1865 c1 -16 39 -82 40 -68 0 7 -9 27 -20 45 -11 18 -20 29 -20 23z"/>
 <path d="M1370 1697 c0 -7 7 -22 15 -33 13 -17 14 -16 4 14 -11 33 -19 41 -19 19z"/>
 <path d="M1223 1165 c0 -22 2 -30 4 -17 2 12 2 30 0 40 -3 9 -5 -1 -4 -23z"/>
 <path d="M1463 710 c0 -25 2 -35 4 -22 2 12 2 32 0 45 -2 12 -4 2 -4 -23z"/>
 </g>
<g id="layer124" fill="#3c251c" stroke="none">
 <path d="M174 1954 c15 -115 93 -221 181 -246 22 -6 45 -17 50 -23 12 -14 120 -46 180 -53 58 -6 104 -45 133 -113 16 -38 33 -61 51 -69 l26 -12 -30 -24 c-48 -39 -12 -28 52 16 71 48 150 64 246 49 60 -9 84 -22 218 -118 40 -28 17 0 -30 37 l-48 38 27 16 c23 13 70 88 70 112 0 18 -28 -17 -35 -42 -8 -31 -33 -62 -51 -62 -8 0 -11 12 -7 38 5 41 1 46 -118 142 l-43 34 33 8 c25 7 42 24 78 81 25 40 55 84 67 98 12 14 2 5 -22 -20 l-43 -46 -19 23 c-11 13 -24 21 -29 17 -6 -3 -4 7 4 22 18 34 19 47 3 37 -7 -4 -8 -3 -4 5 4 6 1 23 -8 36 -9 13 -16 33 -16 45 0 19 -6 20 -90 20 -87 0 -90 -1 -89 -22 1 -27 -44 -155 -60 -171 -8 -8 -23 1 -54 34 -23 25 -33 34 -21 20 12 -14 42 -59 68 -99 36 -57 52 -74 76 -79 37 -7 30 -17 -50 -76 -74 -55 -81 -65 -76 -109 4 -38 -5 -47 -30 -30 -6 4 -23 33 -38 64 -17 36 -39 64 -57 75 -37 22 -40 70 -5 116 31 43 65 101 42 72 -123 -150 -118 -147 -182 -120 -19 8 -52 16 -73 19 -59 6 -147 53 -186 99 -33 39 -75 143 -75 188 0 10 -5 19 -11 19 -8 0 -10 -15 -5 -46z m841 -191 c16 -94 34 -120 123 -176 40 -26 42 -29 42 -78 0 -45 -2 -50 -17 -44 -45 18 -122 35 -163 35 -49 0 -132 -20 -169 -40 -24 -12 -24 -12 -18 26 4 22 7 47 7 57 0 10 22 32 54 52 66 42 94 76 101 124 11 67 15 81 25 81 5 0 12 -17 15 -37z m-45 -14 c0 -20 -4 -28 -12 -23 -7 5 -9 1 -6 -13 4 -16 1 -20 -21 -19 -14 1 -25 5 -24 9 2 8 55 75 61 76 1 1 2 -13 2 -30z m124 -51 c-11 -17 -33 -7 -48 24 -25 49 -19 55 19 18 19 -18 32 -37 29 -42z"/>
 <path d="M1806 1963 c-24 -136 -87 -216 -194 -248 -34 -10 -62 -23 -62 -28 0 -4 8 -6 18 -3 9 3 35 10 58 15 91 24 159 100 188 216 18 68 20 85 7 85 -5 0 -12 -17 -15 -37z"/>
 <path d="M1250 1865 c1 -16 39 -82 40 -68 0 7 -9 27 -20 45 -11 18 -20 29 -20 23z"/>
 <path d="M1370 1697 c0 -7 7 -22 15 -33 13 -17 14 -16 4 14 -11 33 -19 41 -19 19z"/>
 </g>
<g id="layer125" fill="#481b07" stroke="none">
 <path d="M174 1954 c15 -115 93 -221 181 -246 22 -6 45 -17 50 -23 12 -15 122 -46 182 -53 55 -5 114 -59 138 -124 13 -39 22 -49 47 -56 l31 -8 -32 -27 c-48 -40 -21 -33 46 13 71 48 150 64 246 49 49 -8 77 -20 130 -57 105 -72 116 -78 67 -33 -25 22 -48 41 -52 41 -19 0 -6 19 14 22 23 3 68 69 67 98 0 8 -8 -1 -18 -21 -36 -78 -73 -95 -64 -31 5 41 1 46 -118 142 l-43 34 33 8 c25 7 42 24 78 81 25 40 55 84 67 98 12 14 2 5 -21 -20 l-43 -45 -23 22 c-13 12 -28 19 -32 15 -5 -5 -4 0 4 9 13 18 10 63 -8 96 -6 11 -11 30 -11 41 0 20 -6 21 -91 21 -83 0 -90 -1 -84 -18 3 -11 -1 -32 -9 -47 -8 -16 -18 -45 -21 -66 -4 -20 -15 -45 -26 -55 -19 -17 -21 -16 -62 27 -23 25 -33 34 -21 20 12 -14 42 -59 68 -99 36 -57 52 -74 76 -79 37 -7 30 -17 -50 -76 -74 -55 -81 -65 -76 -109 3 -25 0 -38 -7 -38 -22 0 -36 15 -55 61 -11 24 -36 59 -56 77 -47 41 -48 78 -3 141 38 52 50 71 44 71 -2 0 -19 -21 -37 -47 -19 -27 -40 -52 -47 -56 -7 -4 -13 -17 -13 -29 0 -18 -5 -20 -42 -16 -124 13 -257 67 -309 126 -37 43 -79 145 -79 193 0 10 -5 19 -11 19 -8 0 -10 -15 -5 -46z m846 -214 c13 -69 32 -95 103 -143 57 -37 57 -38 57 -88 0 -45 -2 -50 -17 -44 -45 18 -122 35 -163 35 -49 0 -132 -20 -169 -40 -24 -12 -24 -12 -18 26 4 22 7 47 7 57 0 10 22 32 54 52 30 19 63 46 74 60 20 25 24 36 37 119 8 50 22 36 35 -34z m-50 9 c0 -20 -4 -28 -12 -23 -7 5 -9 1 -6 -13 4 -16 1 -20 -21 -19 -14 1 -25 4 -24 9 3 8 56 77 61 77 1 0 2 -14 2 -31z m124 -51 c-11 -17 -33 -7 -48 24 -25 49 -19 55 19 18 19 -18 32 -37 29 -42z"/>
 <path d="M1805 1958 c-22 -132 -89 -215 -197 -245 -32 -9 -58 -20 -58 -25 0 -5 8 -7 18 -4 9 3 35 10 58 15 91 24 159 100 188 216 18 68 20 85 7 85 -5 0 -12 -19 -16 -42z"/>
 <path d="M1250 1865 c0 -5 9 -23 20 -40 26 -39 26 -25 0 17 -11 18 -20 29 -20 23z"/>
 </g>
<g id="layer126" fill="#361407" stroke="none">
 <path d="M915 1980 c4 -12 2 -26 -3 -33 -6 -7 -16 -35 -23 -62 -6 -28 -22 -62 -36 -76 l-23 -26 26 -39 c14 -21 28 -41 31 -44 3 -3 29 22 58 55 l53 59 55 -59 c62 -66 62 -66 102 6 13 24 12 28 -14 53 -15 14 -31 23 -36 19 -5 -5 -4 0 4 9 13 18 10 63 -8 96 -6 11 -11 30 -11 41 0 20 -6 21 -91 21 -87 0 -90 -1 -84 -20z"/>
 <path d="M1795 1913 c-18 -95 -89 -172 -185 -200 -33 -10 -60 -22 -60 -26 0 -5 8 -6 18 -3 9 3 35 10 58 15 91 24 167 111 180 204 8 56 -1 63 -11 10z"/>
 <path d="M194 1904 c8 -86 79 -173 161 -196 22 -6 45 -17 50 -23 12 -14 115 -44 187 -54 l46 -7 4 43 c3 44 -14 56 -20 14 -3 -20 -8 -22 -45 -19 -105 11 -246 64 -295 111 -37 35 -59 72 -78 132 l-13 40 3 -41z"/>
 <path d="M880 1611 c-73 -53 -98 -88 -85 -117 8 -15 10 -12 13 19 3 33 10 43 49 70 49 34 101 77 93 76 -3 0 -34 -22 -70 -48z"/>
 <path d="M650 1617 c0 -2 15 -16 33 -33 l32 -29 -29 33 c-28 30 -36 37 -36 29z"/>
 <path d="M1172 1565 c9 -11 21 -31 27 -45 7 -17 10 -20 10 -8 1 10 -11 30 -26 46 -16 15 -20 19 -11 7z"/>
 <path d="M1266 1517 c-10 -26 -25 -52 -34 -58 -13 -7 -13 -9 -2 -6 18 4 63 82 58 99 -2 6 -12 -10 -22 -35z"/>
 <path d="M711 1548 c-3 -25 44 -98 62 -98 6 0 3 6 -7 13 -10 7 -26 31 -36 52 -10 22 -19 37 -19 33z"/>
 </g>
<g id="layer127" fill="#151111" stroke="none">
 <path d="M915 1980 c3 -10 0 -32 -8 -47 -8 -15 -18 -44 -22 -63 -4 -19 -16 -45 -28 -57 l-20 -22 27 -41 c14 -22 31 -40 36 -40 5 0 26 22 47 50 30 40 41 49 58 44 11 -4 23 -13 28 -20 15 -26 59 -74 68 -74 5 0 21 18 35 40 l27 41 -23 24 c-13 13 -28 21 -34 18 -6 -4 -5 0 2 9 14 18 11 62 -7 96 -6 11 -11 30 -11 41 0 20 -6 21 -91 21 -85 0 -90 -1 -84 -20z"/>
 </g>

</svg>