<!DOCTYPE svg PUBLIC "-//W3C//DTD SVG 20010904//EN" "http://www.w3.org/TR/2001/REC-SVG-20010904/DTD/svg10.dtd">
<svg version="1.0" xmlns="http://www.w3.org/2000/svg" width="200px" height="200px" viewBox="0 0 2000 2000" preserveAspectRatio="xMidYMid meet">
<g id="layer101" fill="#110e0d" stroke="none">
 <path d="M174 1954 c15 -114 93 -220 178 -246 21 -6 38 -17 38 -23 0 -7 -9 -70 -20 -141 -57 -375 -48 -791 21 -1004 85 -259 281 -445 485 -458 40 -2 93 0 117 6 34 9 53 8 92 -3 255 -77 459 123 545 538 62 298 47 737 -35 994 l-22 71 36 7 c50 9 115 49 146 90 31 39 60 112 70 173 l7 42 -832 0 -833 0 7 -46z"/>
 </g>
<g id="layer102" fill="#2e180f" stroke="none">
 <path d="M174 1954 c15 -114 93 -220 179 -246 l39 -12 -5 -45 c-4 -25 -13 -89 -21 -141 -54 -356 -42 -761 30 -980 87 -262 302 -450 515 -450 32 0 70 5 85 11 22 8 45 6 97 -7 95 -23 168 -15 247 27 111 59 180 159 245 351 109 326 112 828 6 1166 l-18 60 36 7 c50 9 115 49 146 90 31 39 60 112 70 173 l7 42 -370 0 c-361 0 -370 0 -375 -20 -3 -11 -2 -22 3 -25 4 -3 11 -21 14 -41 4 -19 10 -42 12 -49 7 -17 -37 -40 -92 -49 -34 -6 -47 -16 -78 -57 -20 -27 -41 -49 -46 -49 -5 0 -21 18 -36 41 l-26 41 20 22 c12 11 23 35 27 51 4 17 13 47 22 67 30 71 46 68 -368 68 l-372 0 7 -46z m970 -143 c17 -18 16 -21 -8 -60 -15 -23 -30 -41 -35 -41 -12 0 -71 74 -71 89 0 6 10 11 23 11 12 0 29 5 37 10 22 14 35 12 54 -9z m-252 -497 c-18 -12 -20 -19 -12 -35 6 -10 18 -19 26 -19 8 0 13 -4 9 -10 -3 -5 14 -19 37 -30 34 -17 37 -20 14 -15 -39 8 -85 42 -96 69 -10 26 5 56 28 56 13 0 12 -3 -6 -16z m113 -4 c-3 -5 -1 -10 6 -10 7 0 10 -3 7 -6 -4 -3 -19 1 -35 10 l-28 15 28 1 c16 0 26 -4 22 -10z m116 -63 c-6 -14 -20 -31 -33 -38 -21 -11 -22 -11 -8 5 13 16 12 20 -5 32 -19 14 -19 14 4 12 13 -2 26 3 28 10 3 8 -9 12 -39 14 l-43 1 50 6 c55 7 62 0 46 -42z m-98 16 c-18 -2 -48 -2 -65 0 -18 2 -4 4 32 4 36 0 50 -2 33 -4z m-234 -223 c57 -11 104 -39 123 -73 8 -15 2 -12 -21 10 -33 34 -84 53 -138 53 -57 0 -82 -17 -109 -72 -22 -47 -25 -49 -19 -18 9 49 36 83 76 97 19 7 35 12 35 12 1 1 25 -3 53 -9z m476 -10 c14 -6 1 -9 -43 -9 -59 -1 -67 -4 -98 -35 -36 -36 -45 -36 -16 0 36 46 107 65 157 44z m115 -151 c0 -49 -23 -89 -63 -111 -18 -9 -17 -6 6 17 38 39 53 95 39 143 -10 33 -10 35 3 18 8 -11 15 -41 15 -67z m-287 32 c2 -10 1 -25 -4 -32 -6 -10 -9 -4 -9 19 0 36 5 42 13 13z m-400 -135 c44 -46 92 -55 150 -27 27 13 51 35 65 58 12 21 22 33 22 27 0 -25 -48 -80 -88 -100 -39 -20 -45 -21 -88 -8 -26 8 -54 20 -62 26 -20 17 -62 108 -61 133 0 11 7 -1 15 -27 8 -26 29 -62 47 -82z m453 0 c16 -14 24 -26 18 -26 -22 0 -74 73 -74 102 1 7 7 -1 14 -18 8 -17 27 -43 42 -58z"/>
 </g>
<g id="layer103" fill="#16162b" stroke="none">
 <path d="M174 1954 c3 -25 15 -64 26 -87 11 -23 17 -31 14 -17 -3 15 7 4 25 -27 23 -38 46 -61 84 -83 62 -36 84 -38 90 -7 4 18 4 17 6 -6 1 -19 5 -26 13 -21 8 5 9 0 5 -17 -4 -13 -7 -35 -7 -49 l-1 -25 -11 25 c-9 22 -13 8 -29 -95 -29 -195 -42 -389 -35 -530 9 -174 41 -393 72 -485 66 -196 200 -354 351 -410 64 -24 192 -43 208 -31 5 5 26 7 45 5 149 -15 207 -15 250 0 25 9 50 18 55 19 6 1 16 10 24 20 7 10 19 16 26 13 11 -4 60 41 96 88 11 16 11 18 0 12 -9 -6 -12 -5 -9 5 3 8 11 13 17 11 7 -1 10 2 7 7 -3 5 12 47 34 93 49 105 71 206 80 378 4 74 7 119 8 101 2 -26 5 -32 13 -24 20 20 5 473 -20 618 -20 118 -62 279 -82 317 -6 11 -9 22 -6 24 2 3 12 -14 21 -36 16 -39 18 -41 49 -35 60 13 129 58 157 102 15 23 30 39 34 36 4 -4 4 1 0 11 -5 13 -4 17 3 13 12 -8 27 31 39 96 l6 37 -231 0 -231 0 40 -61 c21 -33 46 -80 56 -104 9 -25 20 -42 25 -39 5 3 9 -7 9 -21 0 -15 7 -52 16 -82 9 -30 14 -57 11 -59 -3 -3 -8 9 -12 26 -13 58 -73 201 -115 271 -35 58 -45 69 -68 69 -27 0 -27 -1 -28 -68 -1 -37 -9 -94 -18 -127 -14 -57 -15 -58 -11 -15 2 25 8 72 12 105 15 108 17 105 -98 105 -96 0 -99 -1 -99 -22 0 -13 7 -31 14 -41 8 -10 11 -27 8 -39 -3 -13 -1 -19 5 -15 21 13 1 -33 -20 -48 -23 -16 -16 -20 11 -6 13 6 23 2 39 -18 l21 -27 -26 -42 c-15 -23 -30 -42 -34 -42 -4 0 -26 22 -50 50 -24 27 -50 50 -58 50 -8 0 -36 -23 -61 -52 l-46 -52 -31 43 -32 44 24 27 c13 16 29 50 35 76 7 27 17 54 23 61 5 7 7 21 3 33 -6 18 -14 20 -106 20 -99 0 -100 0 -110 -27 -21 -54 -48 -189 -55 -265 l-6 -77 32 -28 c18 -15 43 -51 56 -79 13 -29 31 -57 41 -63 10 -6 13 -11 7 -11 -16 0 -38 28 -63 82 -12 25 -33 54 -46 62 -24 16 -25 16 -25 -6 -1 -13 -3 -85 -5 -161 -3 -106 -1 -136 8 -130 8 4 8 1 -1 -9 -7 -9 -17 -57 -22 -107 -10 -108 -31 -243 -37 -237 -2 2 1 39 7 83 6 43 15 218 20 388 9 325 19 404 68 533 l20 52 -33 0 c-28 0 -42 -10 -90 -62 -31 -35 -74 -98 -96 -141 -42 -85 -51 -88 -21 -9 21 55 63 118 115 175 l35 37 -221 0 -220 0 7 -46z m1175 -134 l-1 -25 -8 25 c-4 14 -8 19 -9 11 -1 -8 -3 -12 -6 -10 -2 3 -2 15 2 28 7 29 23 8 22 -29z m-49 -121 c-19 -121 -14 -161 48 -399 16 -63 32 -140 36 -170 l5 -55 -14 65 c-17 74 -52 187 -65 211 -5 9 -12 34 -16 55 -5 22 -9 42 -10 47 -1 4 -2 17 -3 28 -1 21 -2 21 -22 -5 -11 -14 -26 -26 -32 -26 -6 0 -2 6 9 14 25 18 45 83 43 139 -2 42 20 171 28 164 2 -3 -1 -33 -7 -68z m-315 -379 c17 -4 26 -8 20 -10 -22 -4 33 -19 72 -19 32 -1 42 3 45 17 3 14 5 14 10 2 9 -24 -15 -81 -42 -99 -24 -15 -24 -15 -11 2 12 15 12 20 -5 33 -18 14 -18 14 5 12 13 -2 26 3 28 10 3 8 -8 12 -39 12 -25 0 -60 9 -82 21 -22 11 -51 19 -70 17 -26 -2 -31 -7 -31 -28 0 -25 1 -25 80 -24 78 1 79 1 17 -5 -34 -3 -63 -10 -65 -14 -1 -5 16 -17 38 -28 34 -17 36 -19 11 -14 -100 21 -141 127 -48 124 20 -1 51 -5 67 -9z m424 -330 c1 19 7 44 12 55 13 29 1 -89 -22 -218 -22 -118 -77 -289 -115 -354 -32 -55 -69 -83 -108 -82 l-31 2 30 6 c39 8 55 19 86 61 41 56 119 287 119 353 0 17 -2 17 -21 -7 -11 -14 -30 -31 -42 -38 -18 -9 -18 -7 5 16 56 57 60 137 10 198 -22 28 -23 30 -3 13 33 -28 44 -53 52 -110 5 -39 7 -25 9 65 3 97 4 106 10 60 5 -44 7 -48 9 -20z m-573 39 c30 -9 61 -36 79 -69 5 -8 -6 -1 -23 17 -34 34 -85 53 -139 53 -58 0 -82 -16 -108 -72 -27 -57 -33 -47 -10 16 25 70 92 88 201 55z m429 1 c14 -6 1 -9 -43 -9 -59 -1 -67 -4 -98 -35 -36 -36 -44 -35 -18 3 30 42 109 63 159 41z m-716 -110 c0 -9 -4 -8 -9 5 -5 11 -9 27 -9 35 0 9 4 8 9 -5 5 -11 9 -27 9 -35z m545 -33 c6 -72 51 -129 110 -141 16 -3 27 -8 25 -11 -10 -10 -76 16 -97 38 -29 31 -52 89 -52 133 0 51 8 39 14 -19z m-517 -1 c-5 -29 3 -50 45 -123 101 -177 243 -350 307 -375 41 -15 109 -11 139 8 34 23 59 27 68 12 4 -7 3 -8 -4 -4 -7 4 -16 -2 -21 -16 -5 -13 -20 -34 -35 -47 -52 -49 -145 -7 -253 115 -85 97 -177 228 -221 319 -40 81 -64 145 -43 115 9 -12 11 -11 11 8 0 12 3 22 6 22 4 0 4 -15 1 -34z m116 -110 c44 -46 92 -55 150 -27 27 13 51 35 65 58 12 21 22 33 22 27 0 -25 -48 -80 -88 -101 -40 -20 -47 -21 -88 -8 -25 7 -52 19 -60 26 -23 19 -64 105 -63 131 0 14 6 5 15 -24 8 -26 29 -62 47 -82z m768 -553 c-5 -10 -24 -31 -42 -48 -31 -29 -31 -28 5 18 40 49 54 60 37 30z"/>
 <path d="M1071 379 c-15 -12 -40 -19 -70 -20 l-46 0 31 -16 c40 -20 78 -11 100 22 21 33 15 38 -15 14z"/>
 </g>
<g id="layer104" fill="#491b07" stroke="none">
 <path d="M174 1954 c3 -25 15 -64 26 -87 11 -23 17 -31 14 -17 -3 15 7 4 25 -27 23 -38 46 -61 84 -83 62 -36 84 -38 90 -7 4 18 4 17 6 -6 1 -19 5 -26 13 -21 8 5 9 0 5 -17 -4 -13 -7 -35 -7 -49 l-1 -25 -11 25 c-9 22 -13 8 -29 -95 -29 -195 -42 -389 -35 -530 9 -174 41 -393 72 -485 66 -196 200 -354 351 -410 64 -24 192 -43 208 -31 5 5 26 7 45 5 149 -15 207 -15 250 0 25 9 50 18 55 19 6 1 16 10 24 20 7 10 19 16 26 13 11 -4 60 41 96 88 11 16 11 18 0 12 -9 -6 -12 -5 -9 5 3 8 11 13 17 11 7 -1 10 2 7 7 -3 5 12 47 34 93 49 105 71 206 80 378 4 74 7 119 8 101 2 -26 5 -32 13 -24 20 20 5 473 -20 618 -20 118 -62 279 -82 317 -6 11 -9 22 -6 24 2 3 12 -14 21 -36 16 -39 18 -41 49 -35 60 13 129 58 157 102 15 23 30 39 34 36 4 -4 4 1 0 11 -5 13 -4 17 3 13 12 -8 27 31 39 96 l6 37 -231 0 -231 0 40 -61 c21 -33 46 -80 56 -104 9 -25 20 -42 25 -39 5 3 9 -7 9 -21 0 -15 7 -52 16 -82 9 -30 14 -57 11 -59 -3 -3 -8 9 -12 26 -13 58 -73 201 -115 271 -35 58 -45 69 -68 69 -27 0 -27 -1 -28 -68 -1 -37 -9 -94 -18 -127 -14 -57 -15 -58 -11 -15 2 25 8 72 12 105 15 108 17 105 -98 105 -93 0 -99 -1 -99 -20 0 -12 7 -32 16 -45 9 -13 13 -28 10 -34 -3 -5 -2 -11 4 -13 6 -2 4 -14 -5 -31 -8 -15 -10 -25 -5 -22 6 3 21 -6 34 -22 22 -26 23 -30 9 -53 -41 -71 -40 -70 -92 -12 -26 28 -54 52 -62 52 -8 0 -35 -23 -60 -52 l-46 -52 -31 43 -32 44 24 27 c13 16 29 50 35 76 7 27 17 54 23 61 5 7 7 21 3 33 -6 18 -14 20 -106 20 -99 0 -100 0 -110 -27 -21 -54 -48 -189 -55 -265 l-6 -77 32 -28 c18 -15 43 -51 56 -79 13 -29 31 -57 41 -63 10 -6 13 -11 7 -11 -16 0 -38 28 -63 82 -12 25 -33 54 -46 62 -24 16 -25 16 -25 -6 -1 -13 -3 -85 -5 -161 -3 -106 -1 -136 8 -130 8 4 8 1 -1 -9 -7 -9 -17 -57 -22 -107 -10 -108 -31 -243 -37 -237 -2 2 1 39 7 83 6 43 15 218 20 388 9 325 19 404 68 533 l20 52 -33 0 c-28 0 -42 -10 -90 -62 -31 -35 -74 -98 -96 -141 -42 -85 -51 -88 -21 -9 21 55 63 118 115 175 l35 37 -221 0 -220 0 7 -46z m1175 -134 l-1 -25 -8 25 c-4 14 -8 19 -9 11 -1 -8 -3 -12 -6 -10 -2 3 -2 15 2 28 7 29 23 8 22 -29z m-49 -121 c-19 -121 -14 -161 48 -399 16 -63 32 -140 36 -170 l5 -55 -14 65 c-17 74 -52 187 -65 211 -5 9 -12 34 -16 55 -5 22 -9 42 -10 47 -1 4 -2 17 -3 28 -1 21 -2 21 -22 -5 -11 -14 -26 -26 -32 -26 -6 0 -2 6 9 14 25 18 45 83 43 139 -2 42 20 171 28 164 2 -3 -1 -33 -7 -68z m-315 -379 c17 -4 26 -8 20 -10 -22 -4 33 -19 72 -19 32 -1 42 3 45 17 3 14 5 14 10 2 9 -24 -15 -81 -42 -99 -24 -15 -24 -15 -11 2 12 15 12 20 -5 33 -18 14 -18 14 5 12 13 -2 26 3 28 10 3 8 -8 12 -39 12 -25 0 -60 9 -82 21 -22 11 -51 19 -70 17 -26 -2 -31 -7 -31 -28 0 -25 1 -25 80 -24 78 1 79 1 17 -5 -34 -3 -63 -10 -65 -14 -1 -5 16 -17 38 -28 34 -17 36 -19 11 -14 -100 21 -141 127 -48 124 20 -1 51 -5 67 -9z m424 -330 c1 19 7 44 12 55 13 29 1 -89 -22 -218 -22 -118 -77 -289 -115 -354 -32 -55 -69 -83 -108 -82 l-31 2 30 6 c39 8 55 19 86 61 41 55 102 233 114 329 l5 44 -21 -27 c-11 -14 -30 -31 -42 -38 -17 -9 -15 -4 10 25 53 61 55 128 5 190 -23 28 -23 29 -3 12 33 -28 44 -53 52 -110 5 -39 7 -25 9 65 3 97 4 106 10 60 5 -44 7 -48 9 -20z m-559 31 c33 -15 80 -72 80 -95 0 -6 -10 5 -21 25 -27 46 -67 69 -132 76 -76 7 -104 -7 -132 -69 -26 -58 -33 -47 -10 16 14 41 32 57 75 67 35 9 99 0 140 -20z m415 9 c14 -6 2 -9 -42 -9 -55 -1 -67 -5 -95 -30 -30 -27 -33 -34 -33 -89 0 -46 5 -67 21 -88 31 -42 67 -65 103 -66 22 -1 28 -4 19 -9 -21 -12 -81 7 -106 34 -28 30 -52 89 -52 129 0 95 100 165 185 128z m-716 -110 c0 -9 -4 -8 -9 5 -5 11 -9 27 -9 35 0 9 4 8 9 -5 5 -11 9 -27 9 -35z m28 -34 c-5 -29 3 -50 45 -123 101 -177 243 -350 307 -375 41 -15 109 -11 139 8 34 23 59 27 68 12 4 -7 3 -8 -4 -4 -7 4 -16 -2 -21 -16 -5 -13 -20 -34 -35 -47 -52 -49 -145 -7 -253 115 -85 97 -177 228 -221 319 -40 81 -64 145 -43 115 9 -12 11 -11 11 8 0 12 3 22 6 22 4 0 4 -15 1 -34z m101 -94 c29 -40 85 -66 128 -58 41 8 92 50 110 91 7 16 13 24 14 16 1 -32 -45 -92 -85 -111 -39 -19 -44 -19 -93 -5 -35 11 -59 25 -74 45 -12 17 -30 30 -40 30 -11 0 -16 5 -13 10 3 6 1 10 -5 10 -6 0 -8 5 -5 10 4 6 10 8 15 5 5 -3 7 12 4 32 l-4 38 13 -42 c8 -22 24 -55 35 -71z m783 -569 c-5 -10 -24 -31 -42 -48 -31 -29 -31 -28 5 18 40 49 54 60 37 30z"/>
 <path d="M1071 379 c-15 -12 -40 -19 -70 -20 l-46 0 31 -16 c40 -20 78 -11 100 22 21 33 15 38 -15 14z"/>
 </g>
<g id="layer105" fill="#3b251b" stroke="none">
 <path d="M190 1981 c0 -10 9 -48 20 -83 23 -76 76 -143 134 -169 53 -24 64 -24 69 4 4 18 4 17 6 -6 1 -19 5 -26 13 -21 8 5 9 0 5 -17 -4 -13 -7 -35 -7 -49 l-1 -25 -11 25 c-9 22 -13 8 -29 -95 -29 -195 -42 -389 -35 -530 9 -174 41 -393 72 -485 66 -196 200 -354 351 -410 64 -24 192 -43 208 -31 5 5 26 7 45 5 149 -15 207 -15 250 0 25 9 50 18 55 19 6 1 16 10 24 20 7 10 19 16 26 13 11 -4 60 41 96 88 11 16 11 18 0 12 -9 -6 -12 -5 -9 5 3 8 11 13 17 11 7 -1 10 2 7 7 -3 5 12 47 34 93 49 105 71 206 80 378 4 74 7 119 8 101 2 -26 5 -32 13 -24 20 20 5 473 -20 618 -20 118 -62 279 -82 317 -6 11 -9 22 -6 24 2 3 12 -13 21 -36 9 -22 20 -40 24 -40 31 0 108 38 146 71 47 41 77 103 91 187 l7 42 -221 0 -221 0 40 -61 c21 -33 46 -80 56 -104 9 -25 20 -42 25 -39 5 3 9 -7 9 -21 0 -15 7 -52 16 -82 9 -30 14 -57 11 -59 -3 -3 -8 9 -12 26 -13 58 -73 201 -115 271 -35 58 -45 69 -68 69 -27 0 -27 -1 -28 -68 -1 -37 -9 -94 -17 -127 -12 -47 -16 -52 -15 -25 1 19 -4 45 -10 57 -7 12 -12 25 -12 30 1 4 7 -3 14 -16 l14 -25 5 30 c6 30 10 83 8 122 -1 21 -4 22 -101 22 -94 0 -100 -1 -100 -20 0 -12 7 -32 16 -45 9 -13 13 -28 10 -34 -3 -5 -2 -11 4 -13 6 -2 4 -14 -5 -31 -8 -15 -10 -25 -4 -22 5 4 18 -4 29 -17 l19 -23 43 46 c24 25 34 34 22 20 -12 -14 -42 -58 -67 -98 -36 -57 -53 -74 -78 -81 l-33 -8 43 -34 c120 -97 123 -101 117 -142 -5 -28 -3 -38 7 -38 35 0 67 72 67 150 -1 30 6 80 14 110 9 30 13 39 10 20 -23 -155 -18 -203 44 -440 16 -63 32 -140 36 -170 l5 -55 -14 65 c-38 163 -63 202 -185 285 -114 78 -260 81 -369 8 -125 -82 -201 -174 -201 -243 0 -49 -31 -253 -37 -246 -2 2 1 39 7 83 6 43 15 218 20 388 9 325 19 404 68 533 l20 52 -33 0 c-28 0 -42 -10 -90 -62 -31 -35 -74 -98 -96 -141 -42 -85 -51 -88 -21 -9 21 55 63 118 115 175 l35 37 -209 0 c-198 0 -209 -1 -209 -19z m1159 -161 l-1 -25 -8 25 c-4 14 -8 19 -9 11 -1 -8 -3 -12 -6 -10 -2 3 -2 15 2 28 7 29 23 8 22 -29z m-364 -500 c17 -4 26 -8 20 -10 -22 -4 33 -19 72 -19 32 -1 42 3 45 17 3 14 5 14 10 2 9 -24 -15 -81 -42 -99 -24 -15 -24 -15 -11 2 12 15 12 19 -5 32 -22 16 -149 21 -159 5 -3 -5 14 -19 37 -30 34 -17 37 -20 14 -15 -100 21 -141 127 -48 124 20 -1 51 -5 67 -9z m424 -330 c1 19 7 44 12 55 13 29 1 -89 -22 -218 -22 -118 -77 -289 -115 -354 -32 -55 -69 -83 -108 -82 l-31 2 30 6 c39 8 55 19 86 61 41 55 102 233 114 329 l5 44 -21 -27 c-11 -14 -30 -31 -42 -38 -17 -9 -15 -4 10 25 53 61 55 128 5 190 -23 28 -23 29 -3 12 33 -28 44 -53 52 -110 5 -39 7 -25 9 65 3 97 4 106 10 60 5 -44 7 -48 9 -20z m-559 31 c33 -15 80 -72 80 -95 0 -6 -10 5 -21 25 -27 46 -67 69 -132 76 -76 7 -104 -7 -132 -69 -26 -58 -33 -47 -10 16 14 41 32 57 75 67 35 9 99 0 140 -20z m415 9 c14 -6 2 -9 -42 -9 -55 -1 -67 -5 -95 -30 -30 -27 -33 -34 -33 -89 0 -46 5 -67 21 -88 31 -42 67 -65 103 -66 22 -1 28 -4 19 -9 -21 -12 -81 7 -106 34 -28 30 -52 89 -52 129 0 95 100 165 185 128z m-716 -110 c0 -9 -4 -8 -9 5 -5 11 -9 27 -9 35 0 9 4 8 9 -5 5 -11 9 -27 9 -35z m28 -34 c-5 -29 3 -50 45 -123 101 -177 243 -350 307 -375 41 -15 109 -11 139 8 34 23 59 27 68 12 4 -7 3 -8 -4 -4 -7 4 -16 -2 -21 -16 -5 -13 -20 -34 -35 -47 -52 -49 -145 -7 -253 115 -85 97 -177 228 -221 319 -40 81 -64 145 -43 115 9 -12 11 -11 11 8 0 12 3 22 6 22 4 0 4 -15 1 -34z m101 -94 c29 -40 85 -66 128 -58 41 8 92 50 110 91 7 16 13 24 14 16 1 -32 -45 -92 -85 -111 -39 -19 -44 -19 -93 -5 -35 11 -59 25 -74 45 -12 17 -30 30 -40 30 -11 0 -16 5 -13 10 3 6 1 10 -5 10 -6 0 -8 5 -5 10 4 6 10 8 15 5 5 -3 7 12 4 32 l-4 38 13 -42 c8 -22 24 -55 35 -71z m783 -569 c-5 -10 -24 -31 -42 -48 -31 -29 -31 -28 5 18 40 49 54 60 37 30z"/>
 <path d="M884 1305 c-13 -33 1 -38 97 -39 52 -1 100 -3 108 -6 7 -3 16 1 18 8 3 8 -8 12 -39 12 -23 0 -63 9 -87 20 -51 24 -89 26 -97 5z"/>
 <path d="M1071 379 c-15 -12 -40 -19 -70 -20 l-46 0 31 -16 c40 -20 78 -11 100 22 21 33 15 38 -15 14z"/>
 <path d="M699 1973 c-12 -33 -45 -172 -53 -226 l-5 -39 31 44 c34 48 56 73 43 48 -5 -8 -23 -36 -42 -61 -45 -63 -44 -100 3 -141 20 -18 45 -53 56 -77 19 -46 33 -61 55 -61 7 0 10 13 7 38 -5 44 2 54 76 109 80 59 87 69 50 76 -24 5 -40 22 -76 79 -26 40 -56 85 -68 99 -12 14 -2 5 21 -20 51 -54 65 -48 89 38 9 31 21 61 26 68 5 7 7 21 3 33 -6 18 -14 20 -106 20 -99 0 -100 0 -110 -27z"/>
 <path d="M986 1778 c-3 -13 -8 -40 -11 -60 -7 -46 -40 -86 -104 -127 -46 -30 -49 -35 -53 -79 -3 -26 -3 -49 -2 -51 2 -2 22 4 46 14 83 33 210 29 301 -10 15 -6 17 -1 17 44 0 49 -2 52 -42 78 -89 56 -107 82 -123 176 -7 41 -22 49 -29 15z"/>
 <path d="M937 1745 c-36 -46 -37 -50 -6 -51 22 -1 25 3 21 19 -3 14 -1 18 6 13 8 -5 12 3 12 23 0 17 -1 31 -2 31 -2 0 -15 -16 -31 -35z"/>
 <path d="M1030 1766 c0 -23 31 -76 45 -76 26 0 23 15 -11 52 -19 21 -34 32 -34 24z"/>
 <path d="M640 1588 c-1 -13 -3 -85 -5 -162 l-4 -138 62 59 c34 33 72 65 85 72 27 14 29 31 4 31 -24 0 -43 22 -71 82 -12 25 -33 54 -46 62 -24 16 -25 16 -25 -6z"/>
 <path d="M1257 1474 c-10 -13 -27 -24 -37 -24 -11 0 -20 -4 -20 -10 0 -5 3 -10 8 -10 4 0 32 -21 62 -47 30 -26 50 -41 44 -33 -12 16 -20 45 -30 106 -3 21 -7 40 -7 41 -1 0 -10 -10 -20 -23z"/>
 </g>
<g id="layer106" fill="#322a2b" stroke="none">
 <path d="M190 1981 c0 -45 42 -149 75 -188 37 -44 121 -91 135 -77 4 5 10 18 13 29 3 13 5 7 7 -15 l1 -35 18 50 c29 79 57 129 111 194 l51 61 -206 0 c-195 0 -205 -1 -205 -19z"/>
 <path d="M696 1952 c-19 -56 -46 -179 -46 -207 l1 -20 15 20 c63 81 67 77 7 -6 -44 -62 -45 -107 -4 -132 18 -11 40 -39 57 -75 15 -31 32 -60 38 -64 25 -17 34 -8 30 30 -5 44 2 54 76 109 80 59 87 69 50 76 -24 5 -40 22 -76 79 -26 40 -56 85 -68 99 -12 14 -2 5 21 -20 51 -54 55 -51 89 45 28 78 27 73 25 97 -1 15 -13 17 -100 17 l-99 0 -16 -48z"/>
 <path d="M1090 1980 c0 -12 7 -32 16 -45 9 -13 12 -30 8 -36 -5 -8 -3 -9 6 -4 9 6 10 2 5 -16 -4 -13 -13 -30 -19 -38 -8 -12 -8 -13 2 -7 8 5 20 -1 32 -16 l19 -23 43 46 c24 25 34 34 22 20 -12 -14 -42 -58 -67 -98 -36 -57 -53 -74 -78 -81 l-33 -8 43 -34 c120 -97 123 -101 117 -142 -7 -44 9 -51 40 -17 17 19 19 39 21 178 0 86 6 172 12 191 6 19 11 61 11 92 l0 58 -100 0 c-94 0 -100 -1 -100 -20z"/>
 <path d="M1380 1992 c0 -4 5 -13 10 -18 6 -6 29 -44 50 -85 23 -42 40 -65 40 -54 0 18 2 18 20 -5 11 -14 29 -49 41 -77 20 -49 23 -52 48 -46 122 30 193 112 216 251 l7 42 -216 0 c-119 0 -216 -4 -216 -8z"/>
 <path d="M555 1815 c-56 -90 -90 -169 -111 -262 -25 -105 -28 -105 -34 -3 l-5 95 -19 -140 c-38 -283 -38 -542 -1 -772 24 -148 42 -209 92 -313 104 -216 322 -357 498 -322 45 9 67 8 118 -4 128 -33 229 -2 326 102 117 124 176 298 191 559 4 72 8 117 9 100 2 -26 3 -27 11 -10 25 57 2 468 -35 650 -21 101 -37 130 -31 55 15 -161 16 -200 9 -200 -5 0 -18 49 -30 108 -13 59 -34 144 -49 188 -29 87 -74 188 -80 181 -3 -2 7 -61 21 -129 14 -69 25 -147 25 -174 l-1 -49 -13 31 c-8 17 -26 50 -42 75 -15 24 -36 64 -46 89 l-19 45 6 -50 c4 -27 17 -106 31 -175 60 -314 67 -443 33 -630 -25 -140 -89 -338 -130 -401 -36 -57 -85 -84 -124 -69 -35 13 -32 14 -50 -20 -32 -62 -91 -69 -170 -20 -92 57 -270 285 -345 442 -49 102 -98 285 -109 409 -17 184 22 425 95 597 20 46 34 85 31 88 -3 3 -26 -29 -52 -71z m-128 -662 c-3 -10 -5 -2 -5 17 0 19 2 27 5 18 2 -10 2 -26 0 -35z"/>
 <path d="M986 1778 c-3 -13 -8 -40 -11 -60 -7 -46 -40 -86 -104 -127 -46 -30 -49 -35 -53 -79 -3 -26 -3 -49 -2 -51 2 -2 22 4 46 14 83 33 210 29 301 -10 15 -6 17 -1 17 44 0 49 -2 52 -42 78 -89 56 -107 82 -123 176 -7 41 -22 49 -29 15z"/>
 <path d="M937 1745 c-37 -44 -37 -50 -6 -51 22 -1 25 3 21 19 -3 14 -1 18 6 13 8 -5 12 3 12 23 0 17 -1 31 -2 30 -2 0 -16 -16 -31 -34z"/>
 <path d="M1030 1766 c0 -23 31 -76 45 -76 26 0 23 15 -11 52 -19 21 -34 32 -34 24z"/>
 <path d="M930 1479 c-63 -11 -136 -55 -218 -133 -70 -66 -80 -86 -92 -194 -5 -50 -17 -125 -25 -169 -17 -89 -19 -132 -6 -152 7 -12 13 -12 24 -3 7 7 17 8 22 4 4 -4 5 2 2 13 -18 64 -18 95 1 138 16 35 27 47 56 57 46 15 122 5 165 -21 30 -18 71 -73 71 -94 0 -5 -10 6 -21 26 -27 46 -67 69 -132 76 -73 7 -104 -8 -128 -62 -17 -38 -18 -51 -9 -87 35 -132 143 -184 230 -112 38 32 50 54 56 101 6 46 14 56 14 16 0 -16 -11 -51 -25 -78 -13 -27 -21 -53 -18 -58 3 -6 1 -7 -5 -3 -6 4 -23 -1 -37 -10 -26 -17 -117 -26 -108 -11 3 5 -5 7 -18 6 -13 -2 -26 1 -28 6 -9 25 -44 60 -59 60 -9 0 -16 6 -14 13 2 13 -14 17 -22 4 -8 -13 86 -165 165 -268 45 -59 80 -96 101 -105 22 -10 74 -14 158 -14 106 1 134 4 184 24 54 22 60 27 82 78 35 78 76 224 71 251 -2 12 0 25 4 28 5 3 9 10 9 16 0 6 -9 -1 -21 -16 -11 -14 -30 -31 -42 -38 -17 -9 -15 -4 10 25 53 61 55 128 5 190 -23 28 -23 29 -3 12 31 -27 44 -52 52 -105 5 -27 6 8 4 85 -2 101 -9 152 -29 230 -30 112 -47 135 -153 212 -86 61 -167 79 -273 62z m197 -162 c14 -31 -5 -85 -37 -106 -24 -15 -24 -15 -11 2 12 15 12 19 -5 32 -21 16 -149 21 -159 6 -7 -13 50 -41 105 -52 l45 -8 -53 4 c-60 5 -105 27 -134 66 -17 22 -18 30 -8 49 11 21 17 22 78 17 37 -3 76 -2 87 3 40 17 81 12 92 -13z m143 -287 c11 -7 -3 -10 -47 -10 -55 0 -67 -4 -95 -29 -30 -27 -33 -34 -33 -89 0 -46 5 -67 21 -88 31 -42 67 -65 103 -66 21 -1 28 -4 19 -9 -9 -6 -8 -9 7 -9 14 0 16 -3 7 -12 -9 -9 -16 -7 -31 6 -11 10 -26 16 -33 14 -7 -3 -19 2 -27 9 -7 8 -20 12 -27 9 -8 -3 -11 0 -8 8 3 8 0 17 -5 21 -18 11 -41 75 -41 114 0 52 29 103 70 123 38 20 96 23 120 8z"/>
 <path d="M1030 1319 c-20 -8 -22 -12 -10 -19 8 -5 34 -10 58 -10 36 0 43 3 40 18 -4 20 -50 26 -88 11z"/>
 <path d="M884 1305 c-13 -33 1 -38 97 -39 52 -1 100 -3 108 -6 7 -3 16 1 18 8 3 8 -8 12 -39 12 -23 0 -63 9 -87 20 -51 24 -89 26 -97 5z"/>
 </g>
<g id="layer107" fill="#562711" stroke="none">
 <path d="M190 1981 c0 -45 42 -149 75 -188 37 -44 121 -91 135 -77 4 5 10 18 13 29 3 13 5 7 7 -15 l1 -35 18 50 c29 79 57 129 111 194 l51 61 -206 0 c-195 0 -205 -1 -205 -19z"/>
 <path d="M696 1952 c-19 -56 -46 -179 -46 -207 l1 -20 15 20 c63 81 67 77 7 -6 -44 -62 -45 -107 -4 -132 18 -11 40 -39 57 -75 15 -31 32 -60 38 -64 25 -17 34 -8 30 30 -5 44 2 54 76 109 80 59 87 69 50 76 -24 5 -40 22 -76 79 -26 40 -56 85 -68 99 -12 14 -2 5 21 -20 51 -54 55 -51 89 45 28 78 27 73 25 97 -1 15 -13 17 -100 17 l-99 0 -16 -48z"/>
 <path d="M1090 1981 c0 -11 9 -36 21 -55 12 -20 21 -52 21 -71 0 -19 7 -40 15 -46 11 -10 22 -4 56 32 23 25 33 34 21 20 -12 -14 -42 -58 -67 -98 -36 -57 -53 -74 -78 -81 l-33 -8 43 -34 c120 -97 123 -101 117 -142 -7 -44 9 -51 40 -17 17 19 19 39 21 178 0 86 6 172 12 191 6 19 11 61 11 92 l0 58 -100 0 c-92 0 -100 -1 -100 -19z"/>
 <path d="M1380 1992 c0 -4 5 -13 10 -18 6 -6 29 -44 50 -85 23 -42 40 -65 40 -54 0 18 2 18 20 -5 11 -14 29 -49 41 -77 20 -49 23 -52 48 -46 122 30 193 112 216 251 l7 42 -216 0 c-119 0 -216 -4 -216 -8z"/>
 <path d="M555 1815 c-56 -90 -90 -169 -111 -262 -25 -105 -28 -105 -34 -3 l-5 95 -19 -140 c-38 -283 -38 -542 -1 -772 24 -148 42 -209 92 -313 104 -216 322 -357 498 -322 45 9 67 8 118 -4 128 -33 229 -2 326 102 117 124 176 298 191 559 4 72 8 117 9 100 2 -26 3 -27 11 -10 25 57 2 468 -35 650 -21 101 -37 130 -31 55 15 -161 16 -200 9 -200 -5 0 -18 49 -30 108 -13 59 -34 144 -49 188 -29 87 -74 188 -80 181 -3 -2 7 -61 21 -129 14 -69 25 -147 25 -174 l-1 -49 -13 31 c-8 17 -26 50 -42 75 -15 24 -36 64 -46 89 l-19 45 6 -50 c4 -27 17 -106 31 -175 60 -314 67 -443 33 -630 -25 -140 -89 -338 -130 -401 -36 -57 -85 -84 -124 -69 -35 13 -32 14 -50 -20 -32 -62 -91 -69 -170 -20 -92 57 -270 285 -345 442 -49 102 -98 285 -109 409 -17 184 22 425 95 597 20 46 34 85 31 88 -3 3 -26 -29 -52 -71z m-128 -662 c-3 -10 -5 -2 -5 17 0 19 2 27 5 18 2 -10 2 -26 0 -35z"/>
 <path d="M986 1778 c-3 -13 -8 -40 -11 -60 -7 -46 -40 -86 -104 -127 -46 -30 -49 -35 -53 -79 -3 -26 -3 -49 -2 -51 2 -2 22 4 46 14 83 33 210 29 301 -10 15 -6 17 -1 17 44 0 49 -2 52 -42 78 -89 56 -107 82 -123 176 -7 41 -22 49 -29 15z"/>
 <path d="M937 1745 c-37 -44 -37 -50 -6 -51 22 -1 25 3 21 19 -3 14 -1 18 6 13 8 -5 12 3 12 23 0 17 -1 31 -2 30 -2 0 -16 -16 -31 -34z"/>
 <path d="M1030 1766 c0 -23 31 -76 45 -76 26 0 23 15 -11 52 -19 21 -34 32 -34 24z"/>
 <path d="M930 1479 c-63 -11 -136 -55 -218 -133 -70 -66 -80 -86 -92 -194 -5 -50 -17 -125 -25 -169 -17 -89 -19 -132 -6 -152 7 -12 13 -12 24 -3 7 7 17 8 21 4 4 -4 4 7 0 23 -14 50 -9 118 10 147 49 75 212 54 266 -34 11 -18 20 -37 20 -43 0 -5 -8 4 -19 20 -25 41 -49 59 -98 75 -48 15 -119 8 -140 -13 -45 -44 -45 -132 -1 -199 35 -52 65 -71 115 -71 69 0 129 55 138 127 3 22 8 42 12 45 10 10 -6 -89 -19 -112 -7 -12 -11 -27 -10 -34 2 -7 -7 -17 -19 -23 -17 -10 -20 -9 -14 2 4 8 2 8 -7 -2 -26 -29 -97 -36 -158 -16 -25 9 -35 14 -23 12 22 -4 22 -3 -4 28 -19 25 -31 32 -49 28 l-24 -4 27 -47 c78 -135 195 -285 236 -302 21 -10 73 -14 157 -14 106 1 134 4 184 24 54 22 60 27 82 78 35 78 76 224 71 251 -2 12 0 25 4 28 5 3 9 10 9 16 0 6 -9 -1 -21 -16 -11 -14 -30 -31 -42 -37 -19 -10 -18 -8 5 17 49 53 59 103 31 161 -23 49 -66 73 -131 73 -65 0 -84 -9 -111 -56 -27 -45 -22 -96 13 -153 31 -48 52 -61 103 -62 30 0 34 -2 18 -9 -16 -7 -10 -9 25 -10 l45 -2 -45 -9 c-58 -12 -117 -4 -160 23 -42 25 -25 36 20 13 18 -9 34 -14 37 -12 2 3 -4 8 -14 11 -32 10 -66 73 -70 129 -9 125 103 196 211 134 52 -29 79 -67 87 -125 5 -28 6 4 4 83 -2 101 -9 152 -29 230 -30 112 -47 135 -153 212 -86 61 -167 79 -273 62z m200 -164 c15 -38 -11 -91 -53 -111 -65 -31 -170 4 -206 68 -13 22 -13 28 -1 43 12 14 26 16 80 12 36 -3 74 -2 85 3 11 5 35 9 53 9 26 1 34 -4 42 -24z"/>
 <path d="M1030 1319 c-20 -8 -22 -12 -10 -19 8 -5 34 -10 58 -10 36 0 43 3 40 18 -4 20 -50 26 -88 11z"/>
 <path d="M884 1305 c-13 -33 1 -38 97 -39 52 -1 100 -3 108 -6 7 -3 16 1 18 8 3 8 -8 12 -39 12 -23 0 -63 9 -87 20 -51 24 -89 26 -97 5z"/>
 <path d="M930 1250 c-8 -5 -12 -11 -10 -13 18 -14 83 -37 105 -37 29 0 65 16 65 29 0 25 -126 43 -160 21z"/>
 </g>
<g id="layer108" fill="#701c1c" stroke="none">
 <path d="M194 1963 c21 -117 71 -194 152 -233 49 -24 56 -22 62 18 6 43 12 39 13 -9 l0 -44 18 57 c24 73 58 132 116 196 l47 52 -207 0 -207 0 6 -37z"/>
 <path d="M697 1948 c-17 -54 -47 -190 -47 -211 0 -14 52 60 81 116 23 43 32 41 77 -15 27 -35 30 -36 44 -20 16 18 58 139 58 167 0 12 -16 15 -98 15 l-98 0 -17 -52z"/>
 <path d="M1097 1986 c-3 -8 4 -32 15 -55 11 -23 21 -55 23 -71 1 -16 8 -36 15 -45 11 -13 16 -10 41 24 39 52 56 58 72 24 l12 -27 6 30 c4 16 7 53 8 82 l1 52 -94 0 c-71 0 -95 -3 -99 -14z"/>
 <path d="M1396 1973 c10 -16 33 -57 52 -93 19 -36 32 -55 29 -42 -11 45 12 20 50 -55 21 -43 38 -79 39 -80 0 -1 25 5 55 15 101 32 159 110 185 248 l6 34 -217 0 -217 0 18 -27z"/>
 <path d="M555 1815 c-56 -90 -90 -169 -111 -262 -25 -105 -28 -105 -34 -3 l-5 95 -19 -140 c-38 -283 -38 -542 -1 -772 24 -148 42 -209 92 -313 104 -216 322 -357 498 -322 45 9 67 8 118 -4 128 -33 229 -2 326 102 117 124 176 298 191 559 4 72 8 117 9 100 2 -26 3 -27 11 -10 25 57 2 468 -35 650 -21 101 -37 130 -31 55 15 -161 16 -200 9 -200 -5 0 -18 49 -30 108 -13 59 -34 144 -49 188 -29 87 -74 188 -80 181 -3 -2 7 -61 21 -129 14 -69 25 -147 25 -174 l-1 -49 -13 31 c-8 17 -26 50 -42 75 -15 24 -36 64 -46 89 l-19 45 6 -50 c4 -27 17 -106 31 -175 60 -314 67 -443 33 -630 -25 -140 -89 -338 -130 -401 -36 -57 -85 -84 -124 -69 -35 13 -32 14 -50 -20 -32 -62 -91 -69 -170 -20 -92 57 -270 285 -345 442 -49 102 -98 285 -109 409 -17 184 22 425 95 597 20 46 34 85 31 88 -3 3 -26 -29 -52 -71z m-128 -662 c-3 -10 -5 -2 -5 17 0 19 2 27 5 18 2 -10 2 -26 0 -35z"/>
 <path d="M750 1862 c0 -5 -25 -46 -55 -92 -65 -99 -71 -136 -26 -163 17 -10 41 -40 56 -72 32 -64 61 -96 44 -47 -16 46 10 86 87 134 35 22 64 43 64 47 0 3 -9 12 -20 19 -11 7 -45 50 -76 97 -50 76 -74 101 -74 77z"/>
 <path d="M1175 1785 c-31 -47 -65 -91 -75 -98 -11 -6 -20 -15 -20 -19 0 -5 31 -28 68 -52 71 -45 100 -86 89 -126 -8 -31 3 -24 17 13 10 23 13 73 11 182 -3 145 -8 185 -25 185 -5 0 -34 -38 -65 -85z"/>
 <path d="M985 1753 c-11 -74 -32 -109 -91 -148 -47 -32 -73 -55 -61 -55 3 0 21 7 40 15 23 10 69 15 127 15 58 0 104 -5 127 -15 19 -8 37 -15 40 -15 13 0 -15 24 -61 54 -58 37 -80 73 -91 149 -4 26 -11 47 -15 47 -4 0 -11 -21 -15 -47z"/>
 <path d="M885 1464 c-58 -20 -185 -122 -221 -176 -24 -36 -33 -62 -39 -115 -4 -37 -15 -117 -26 -178 -21 -124 -22 -144 -10 -164 7 -12 13 -12 24 -3 7 7 17 8 21 4 4 -4 4 7 0 23 -14 50 -9 118 10 147 49 75 212 54 266 -34 11 -18 20 -37 20 -43 0 -5 -8 4 -19 20 -25 41 -49 59 -98 75 -48 15 -119 8 -140 -13 -45 -44 -45 -132 -1 -199 35 -52 65 -71 115 -71 69 0 129 55 138 127 3 22 8 42 12 45 10 10 -6 -89 -19 -112 -7 -12 -11 -27 -10 -33 3 -16 -24 -36 -56 -41 -76 -13 -101 -13 -142 1 -25 9 -35 14 -23 12 22 -4 22 -3 -4 28 -19 24 -31 32 -48 28 l-23 -4 30 -52 c48 -80 128 -194 175 -246 34 -38 52 -49 97 -60 85 -20 226 -9 302 24 59 26 61 28 87 96 36 93 70 218 63 235 -3 8 -1 17 4 20 6 4 10 11 10 17 0 6 -9 -1 -21 -16 -11 -14 -30 -31 -42 -37 -19 -10 -18 -8 5 17 49 53 59 103 31 161 -23 49 -66 73 -131 73 -65 0 -84 -9 -111 -56 -27 -45 -22 -96 13 -153 31 -48 52 -61 103 -62 30 0 34 -2 18 -9 -16 -7 -10 -9 25 -10 l45 -2 -45 -9 c-71 -15 -172 7 -185 39 -4 11 1 13 20 8 31 -8 31 -3 3 34 -30 41 -35 123 -11 170 35 67 125 89 197 47 47 -26 75 -62 86 -108 7 -28 8 -21 9 37 1 83 -19 211 -49 307 -20 65 -25 71 -102 132 -45 35 -102 71 -127 80 -55 19 -172 18 -226 -1z m145 -135 c21 6 49 11 64 11 63 0 49 -104 -17 -136 -65 -31 -171 4 -207 69 -14 27 -14 29 7 46 19 16 29 17 69 9 33 -7 58 -7 84 1z m10 -184 c24 -13 21 -14 -40 -14 -61 0 -64 1 -40 14 14 8 32 14 40 14 8 0 26 -6 40 -14z"/>
 <path d="M1050 1324 c-8 -3 -22 -8 -30 -10 -26 -9 10 -24 58 -24 36 0 43 3 40 18 -3 17 -39 26 -68 16z"/>
 <path d="M884 1305 c-13 -32 1 -37 96 -39 52 -1 101 -4 109 -6 7 -3 16 1 18 8 3 8 -9 12 -42 12 -26 0 -63 9 -85 20 -46 24 -88 26 -96 5z"/>
 <path d="M930 1250 c-8 -5 -12 -11 -10 -13 18 -14 83 -37 105 -37 29 0 65 16 65 29 0 25 -126 43 -160 21z"/>
 </g>
<g id="layer109" fill="#303545" stroke="none">
 <path d="M194 1963 c21 -117 71 -194 152 -233 49 -24 56 -22 62 18 6 43 12 39 13 -9 l0 -44 18 57 c24 73 58 132 116 196 l47 52 -207 0 -207 0 6 -37z"/>
 <path d="M697 1948 c-17 -54 -47 -190 -47 -211 0 -14 52 60 81 116 23 43 32 41 77 -15 27 -35 30 -36 44 -20 16 18 58 139 58 167 0 12 -16 15 -98 15 l-98 0 -17 -52z"/>
 <path d="M1097 1986 c-3 -8 4 -32 15 -55 11 -23 21 -55 23 -71 1 -16 8 -36 15 -45 11 -13 16 -10 41 24 39 52 56 58 72 24 l12 -27 6 30 c4 16 7 53 8 82 l1 52 -94 0 c-71 0 -95 -3 -99 -14z"/>
 <path d="M1396 1973 c10 -16 33 -57 52 -93 19 -36 32 -55 29 -42 -11 45 12 20 50 -55 21 -43 38 -79 39 -80 0 -1 25 5 55 15 101 32 159 110 185 248 l6 34 -217 0 -217 0 18 -27z"/>
 <path d="M555 1815 c-56 -90 -90 -169 -111 -262 -25 -105 -28 -105 -34 -3 l-5 95 -19 -140 c-38 -283 -38 -542 -1 -772 24 -148 42 -209 92 -313 104 -216 322 -357 498 -322 45 9 67 8 118 -4 128 -33 229 -2 326 102 117 124 176 298 191 559 4 72 8 117 9 100 2 -26 3 -27 11 -10 25 57 2 468 -35 650 -21 101 -37 130 -31 55 15 -161 16 -200 9 -200 -5 0 -18 49 -30 108 -13 59 -34 144 -49 188 -29 87 -74 188 -80 181 -3 -2 7 -61 21 -129 14 -69 25 -147 25 -174 l-1 -49 -13 31 c-8 17 -26 50 -42 75 -15 24 -36 64 -46 89 l-19 45 6 -50 c4 -27 17 -106 31 -175 60 -314 67 -443 33 -630 -25 -140 -89 -338 -130 -401 -36 -57 -85 -84 -124 -69 -35 13 -32 14 -50 -20 -32 -62 -91 -69 -170 -20 -92 57 -270 285 -345 442 -49 102 -98 285 -109 409 -17 184 22 425 95 597 20 46 34 85 31 88 -3 3 -26 -29 -52 -71z m-128 -662 c-3 -10 -5 -2 -5 17 0 19 2 27 5 18 2 -10 2 -26 0 -35z"/>
 <path d="M750 1862 c0 -5 -25 -46 -55 -92 -65 -99 -71 -136 -26 -163 17 -10 41 -40 56 -72 32 -64 61 -96 44 -47 -16 46 10 86 87 134 35 22 64 43 64 47 0 3 -9 12 -20 19 -11 7 -45 50 -76 97 -50 76 -74 101 -74 77z"/>
 <path d="M1175 1785 c-31 -47 -65 -91 -75 -98 -11 -6 -20 -15 -20 -19 0 -5 31 -28 68 -52 71 -45 100 -86 89 -126 -8 -31 3 -24 17 13 10 23 13 73 11 182 -3 145 -8 185 -25 185 -5 0 -34 -38 -65 -85z"/>
 <path d="M985 1753 c-11 -74 -32 -109 -91 -148 -47 -32 -73 -55 -61 -55 3 0 21 7 40 15 23 10 69 15 127 15 58 0 104 -5 127 -15 19 -8 37 -15 40 -15 13 0 -15 24 -61 54 -58 37 -80 73 -91 149 -4 26 -11 47 -15 47 -4 0 -11 -21 -15 -47z"/>
 <path d="M885 1464 c-58 -20 -185 -122 -221 -176 -24 -36 -33 -62 -39 -115 -4 -37 -15 -117 -26 -178 -21 -124 -22 -144 -10 -164 7 -12 13 -12 24 -3 7 7 17 8 21 4 4 -4 4 7 0 23 -14 50 -9 118 10 147 49 75 212 54 266 -34 11 -18 20 -37 20 -43 0 -5 -8 4 -19 20 -25 41 -49 59 -98 75 -48 15 -119 8 -140 -13 -45 -44 -45 -132 -1 -199 35 -52 65 -71 115 -71 69 0 129 55 138 127 3 22 8 42 12 45 10 10 -6 -89 -19 -112 -7 -12 -11 -27 -10 -33 3 -16 -24 -36 -56 -41 -76 -13 -101 -13 -142 1 -25 9 -35 14 -23 12 22 -4 22 -3 -4 28 -19 24 -31 32 -48 28 l-23 -4 30 -52 c48 -80 128 -194 175 -246 34 -38 52 -49 97 -60 85 -20 226 -9 302 24 59 26 61 28 87 96 36 93 70 218 63 235 -3 8 -1 17 4 20 6 4 10 11 10 17 0 6 -9 -1 -21 -16 -11 -14 -30 -31 -42 -37 -19 -10 -18 -8 5 17 49 53 59 103 31 161 -23 49 -66 73 -131 73 -65 0 -84 -9 -111 -56 -27 -45 -22 -96 13 -153 31 -48 52 -61 103 -62 30 0 34 -2 18 -9 -16 -7 -10 -9 25 -10 l45 -2 -45 -9 c-71 -15 -172 7 -185 39 -4 11 1 13 20 8 31 -8 31 -3 3 34 -30 41 -35 123 -11 170 35 67 125 89 197 47 47 -26 75 -62 86 -108 7 -28 8 -21 9 37 1 83 -19 211 -49 307 -20 65 -25 71 -102 132 -45 35 -102 71 -127 80 -55 19 -172 18 -226 -1z m145 -135 c21 6 49 11 64 11 63 0 49 -104 -17 -136 -65 -31 -171 4 -207 69 -14 27 -14 29 7 46 19 16 29 17 69 9 33 -7 58 -7 84 1z m10 -184 c24 -13 21 -14 -40 -14 -61 0 -64 1 -40 14 14 8 32 14 40 14 8 0 26 -6 40 -14z"/>
 <path d="M1050 1324 c-8 -3 -22 -8 -30 -10 -26 -9 10 -24 58 -24 36 0 43 3 40 18 -3 17 -39 26 -68 16z"/>
 <path d="M891 1311 c-19 -12 -4 -54 17 -46 9 3 37 9 62 12 l45 6 -40 18 c-45 21 -64 23 -84 10z"/>
 <path d="M930 1250 c-8 -5 -12 -11 -10 -13 18 -14 83 -37 105 -37 29 0 65 16 65 29 0 25 -126 43 -160 21z"/>
 </g>
<g id="layer110" fill="#4e352b" stroke="none">
 <path d="M194 1963 c21 -117 71 -194 152 -233 49 -24 56 -22 62 18 6 43 12 39 13 -9 l0 -44 18 57 c24 73 58 132 116 196 l47 52 -207 0 -207 0 6 -37z"/>
 <path d="M697 1948 c-17 -54 -47 -190 -47 -211 0 -14 52 60 81 116 23 43 32 41 77 -15 27 -35 30 -36 44 -20 16 18 58 139 58 167 0 12 -16 15 -98 15 l-98 0 -17 -52z"/>
 <path d="M1097 1986 c-3 -8 4 -32 15 -55 11 -23 21 -55 23 -71 1 -16 8 -36 15 -45 11 -13 16 -10 41 24 39 52 56 58 72 24 l12 -27 6 30 c4 16 7 53 8 82 l1 52 -94 0 c-71 0 -95 -3 -99 -14z"/>
 <path d="M1396 1973 c10 -16 33 -57 52 -93 19 -36 32 -55 29 -42 -11 45 12 20 50 -55 21 -43 38 -79 39 -80 0 -1 25 5 55 15 101 32 159 110 185 248 l6 34 -217 0 -217 0 18 -27z"/>
 <path d="M555 1815 c-56 -90 -90 -169 -111 -262 -25 -105 -28 -105 -34 -3 l-5 95 -19 -140 c-38 -283 -38 -542 -1 -772 24 -148 42 -209 92 -313 104 -216 322 -357 498 -322 45 9 67 8 118 -4 128 -33 229 -2 326 102 117 124 176 298 191 559 4 72 8 117 9 100 2 -26 3 -27 11 -10 25 57 2 468 -35 650 -21 101 -37 130 -31 55 15 -161 16 -200 9 -200 -5 0 -18 49 -30 108 -13 59 -34 144 -49 188 -29 87 -74 188 -80 181 -3 -2 7 -61 21 -129 14 -69 25 -147 25 -174 l-1 -49 -13 31 c-8 17 -26 50 -42 75 -15 24 -36 64 -46 89 l-19 45 6 -50 c4 -27 17 -106 31 -175 60 -314 67 -443 33 -630 -25 -140 -89 -338 -130 -401 -36 -57 -85 -84 -124 -69 -35 13 -32 14 -50 -20 -32 -62 -91 -69 -170 -20 -92 57 -270 285 -345 442 -49 102 -98 285 -109 409 -17 184 22 425 95 597 20 46 34 85 31 88 -3 3 -26 -29 -52 -71z m-128 -662 c-3 -10 -5 -2 -5 17 0 19 2 27 5 18 2 -10 2 -26 0 -35z"/>
 <path d="M750 1862 c0 -5 -25 -46 -55 -92 -65 -99 -71 -136 -26 -163 17 -10 41 -40 56 -72 32 -64 61 -96 44 -47 -16 46 10 86 87 134 35 22 64 43 64 47 0 3 -9 12 -20 19 -11 7 -45 50 -76 97 -50 76 -74 101 -74 77z"/>
 <path d="M1175 1785 c-31 -47 -65 -91 -75 -98 -11 -6 -20 -15 -20 -19 0 -5 31 -28 68 -52 71 -45 100 -86 89 -126 -8 -31 3 -24 17 13 10 23 13 73 11 182 -3 145 -8 185 -25 185 -5 0 -34 -38 -65 -85z"/>
 <path d="M985 1753 c-11 -74 -32 -109 -91 -148 -47 -32 -73 -55 -61 -55 3 0 21 7 40 15 23 10 69 15 127 15 58 0 104 -5 127 -15 19 -8 37 -15 40 -15 13 0 -15 24 -61 54 -58 37 -80 73 -91 149 -4 26 -11 47 -15 47 -4 0 -11 -21 -15 -47z"/>
 <path d="M885 1464 c-58 -20 -185 -122 -221 -176 -24 -36 -33 -62 -39 -115 -4 -37 -15 -117 -26 -178 -21 -124 -22 -144 -10 -164 8 -12 12 -12 24 -2 11 9 15 30 14 79 -3 109 45 152 153 137 65 -9 110 -40 138 -95 25 -48 25 -108 0 -153 -7 -12 -11 -27 -10 -34 8 -39 -123 -64 -198 -39 -25 9 -35 14 -23 12 22 -4 22 -3 -4 28 -19 24 -31 32 -48 28 l-23 -4 30 -52 c48 -80 128 -194 175 -246 34 -38 52 -49 97 -60 85 -20 226 -9 302 24 59 26 61 28 87 96 36 94 70 218 63 236 -4 11 -13 9 -42 -11 -20 -14 -42 -25 -48 -25 -6 0 3 9 21 20 46 28 67 65 67 119 0 81 -53 132 -136 130 -69 -2 -91 -12 -115 -54 -28 -49 -25 -97 11 -154 31 -48 52 -61 103 -62 30 0 34 -2 18 -9 -16 -7 -10 -9 25 -10 l45 -2 -45 -9 c-71 -15 -172 7 -185 39 -4 11 1 13 20 8 31 -8 31 -3 3 34 -30 41 -35 123 -11 170 35 67 125 89 197 47 47 -26 75 -62 86 -108 7 -28 8 -21 9 37 1 83 -19 211 -49 307 -20 65 -25 71 -102 132 -45 35 -102 71 -127 80 -55 19 -172 18 -226 -1z m145 -135 c21 6 49 11 64 11 63 0 49 -104 -17 -136 -65 -31 -171 4 -207 69 -14 27 -14 29 7 46 19 16 29 17 69 9 33 -7 58 -7 84 1z m10 -184 c24 -13 21 -14 -40 -14 -61 0 -64 1 -40 14 14 8 32 14 40 14 8 0 26 -6 40 -14z"/>
 <path d="M1050 1324 c-8 -3 -22 -8 -30 -10 -26 -9 10 -24 58 -24 36 0 43 3 40 18 -3 17 -39 26 -68 16z"/>
 <path d="M891 1311 c-19 -12 -4 -54 17 -46 9 3 37 9 62 12 l45 6 -40 18 c-45 21 -64 23 -84 10z"/>
 <path d="M930 1250 c-8 -5 -12 -11 -10 -13 18 -14 83 -37 105 -37 29 0 65 16 65 29 0 25 -126 43 -160 21z"/>
 <path d="M707 1023 c-67 -11 -89 -125 -39 -204 44 -67 66 -82 118 -82 48 0 83 19 118 67 28 37 28 115 0 152 -38 52 -121 80 -197 67z"/>
 </g>
<g id="layer111" fill="#6f3719" stroke="none">
 <path d="M196 1963 c11 -62 44 -141 72 -175 14 -17 49 -41 77 -54 l50 -24 12 38 11 37 2 -40 1 -40 23 63 c27 72 61 126 118 188 l41 44 -207 0 -207 0 7 -37z"/>
 <path d="M697 1948 c-17 -54 -47 -190 -47 -211 0 -14 52 60 81 116 23 43 32 41 77 -15 27 -35 30 -36 44 -20 16 18 58 139 58 167 0 12 -16 15 -98 15 l-98 0 -17 -52z"/>
 <path d="M1097 1986 c-3 -8 4 -32 15 -55 11 -23 21 -55 23 -71 1 -16 8 -36 15 -45 11 -13 16 -10 41 24 39 52 56 58 72 24 l12 -27 6 30 c4 16 7 53 8 82 l1 52 -94 0 c-71 0 -95 -3 -99 -14z"/>
 <path d="M1396 1973 c10 -16 33 -57 52 -93 19 -36 32 -55 29 -42 -11 44 12 20 50 -53 28 -56 43 -75 59 -75 32 0 121 48 148 81 26 31 59 111 70 172 l7 37 -217 0 -216 0 18 -27z"/>
 <path d="M740 1840 c-7 -16 -32 -58 -56 -92 -24 -35 -44 -74 -44 -86 0 -15 17 -40 44 -66 24 -24 47 -57 50 -74 4 -16 16 -38 27 -48 19 -17 19 -16 8 14 -16 46 10 86 87 134 35 22 64 43 64 47 0 3 -9 12 -20 19 -11 7 -45 50 -76 97 -31 47 -59 85 -64 85 -4 0 -13 -13 -20 -30z"/>
 <path d="M1175 1785 c-31 -47 -65 -91 -75 -98 -11 -6 -20 -15 -20 -19 0 -5 31 -28 68 -52 71 -45 100 -86 89 -126 -8 -31 3 -24 17 13 10 23 13 72 11 177 -3 143 -10 190 -26 190 -4 0 -33 -38 -64 -85z"/>
 <path d="M985 1753 c-11 -74 -32 -109 -91 -148 -47 -32 -73 -55 -61 -55 3 0 21 7 40 15 23 10 69 15 127 15 58 0 104 -5 127 -15 19 -8 37 -15 40 -15 13 0 -15 24 -61 54 -58 37 -80 73 -91 149 -4 26 -11 47 -15 47 -4 0 -11 -21 -15 -47z"/>
 <path d="M885 1464 c-58 -20 -185 -122 -221 -176 -24 -36 -33 -62 -39 -115 -4 -37 -15 -117 -26 -178 -21 -124 -22 -144 -10 -164 8 -12 12 -13 26 -1 13 11 15 24 10 65 -12 93 35 155 117 155 149 -1 240 -124 179 -243 -10 -20 -14 -37 -9 -37 19 0 -16 -33 -49 -47 -42 -17 -108 -17 -168 2 -27 8 -50 13 -52 11 -5 -5 129 -196 172 -244 38 -42 52 -51 101 -61 155 -31 344 11 373 82 26 64 72 210 67 214 -2 3 -30 -1 -62 -7 -67 -14 -139 -8 -183 15 -38 19 -41 40 -6 31 l25 -6 -26 47 c-21 40 -25 58 -22 106 4 48 9 63 35 89 36 35 100 47 157 28 44 -14 104 -82 109 -124 2 -17 5 1 5 40 2 82 -18 209 -48 307 -20 65 -25 71 -102 132 -45 35 -102 71 -127 80 -55 19 -172 18 -226 -1z m105 -138 c14 1 48 5 76 9 47 7 53 6 64 -14 14 -27 -1 -80 -30 -106 -25 -23 -89 -30 -135 -15 -46 15 -105 66 -105 90 0 29 38 50 74 42 17 -4 42 -6 56 -6z m50 -181 c24 -13 21 -14 -40 -14 -61 0 -64 1 -40 14 14 8 32 14 40 14 8 0 26 -6 40 -14z"/>
 <path d="M1045 1323 c-37 -9 -38 -22 -2 -28 46 -9 72 -3 72 15 0 16 -34 22 -70 13z"/>
 <path d="M891 1311 c-19 -12 -4 -54 17 -46 9 3 37 9 62 12 l45 6 -40 18 c-45 21 -64 23 -84 10z"/>
 <path d="M930 1250 c-8 -5 -12 -11 -10 -13 18 -14 83 -37 105 -37 29 0 65 16 65 29 0 25 -126 43 -160 21z"/>
 <path d="M1455 1267 c17 -338 -101 -809 -217 -872 -31 -17 -43 -18 -78 -9 -39 11 -41 10 -55 -16 -8 -16 -27 -38 -41 -49 -108 -85 -331 115 -484 433 -46 97 -110 278 -110 314 0 9 -5 24 -10 32 -11 18 -5 -58 17 -190 18 -109 50 -226 97 -352 18 -48 32 -88 30 -88 -2 0 -21 26 -42 58 -82 120 -142 265 -161 391 -16 99 -24 87 -17 -24 15 -226 47 -370 113 -505 48 -98 150 -201 248 -250 66 -33 76 -35 172 -35 99 0 103 1 135 30 27 25 29 26 10 4 l-24 -27 39 -13 c21 -8 70 -13 109 -13 137 0 243 83 330 259 64 129 84 235 83 445 0 91 -4 185 -8 210 -7 43 -7 44 -14 15 -3 -16 -9 -66 -13 -110 -10 -120 -48 -259 -100 -360 -58 -114 -69 -126 -38 -40 58 159 69 234 67 460 0 174 -4 225 -21 300 l-21 90 4 -88z"/>
 <path d="M707 1023 c-67 -11 -89 -125 -39 -204 44 -67 66 -82 118 -82 71 0 131 55 139 128 12 100 -96 179 -218 158z"/>
 <path d="M1160 1011 c-35 -10 -71 -76 -66 -123 5 -42 46 -112 75 -128 65 -34 171 15 191 89 31 117 -69 198 -200 162z"/>
 <path d="M633 791 c-19 -5 -20 -8 -9 -23 7 -10 28 -21 47 -24 l34 -7 -25 29 c-14 16 -25 29 -25 30 0 0 -10 -2 -22 -5z"/>
 <path d="M1332 778 c-7 -7 -32 -21 -55 -31 l-42 -18 59 6 c69 6 76 10 76 36 0 22 -20 25 -38 7z"/>
 </g>
<g id="layer112" fill="#683b2f" stroke="none">
 <path d="M1790 1958 c-32 -108 -85 -175 -173 -218 -66 -31 -49 -44 20 -15 88 37 129 90 159 206 18 70 14 90 -6 27z"/>
 <path d="M200 1948 c0 -31 41 -128 67 -159 25 -29 57 -49 108 -69 41 -15 29 6 -19 34 -56 32 -92 75 -128 151 -15 33 -28 52 -28 43z"/>
 <path d="M740 1843 c0 -6 -23 -46 -51 -88 -55 -82 -61 -111 -10 -46 35 43 76 129 67 138 -3 4 -6 1 -6 -4z"/>
 <path d="M640 1644 c0 -3 20 -26 45 -50 42 -41 47 -27 6 19 -18 21 -51 41 -51 31z"/>
 <path d="M1455 1267 c17 -338 -101 -809 -217 -872 -31 -17 -43 -18 -78 -9 -39 11 -41 10 -55 -16 -8 -16 -27 -38 -41 -49 -108 -85 -331 115 -484 433 -46 97 -110 278 -110 314 0 9 -5 24 -10 32 -11 18 -5 -58 17 -190 18 -109 50 -226 97 -352 18 -48 32 -88 30 -88 -2 0 -21 26 -42 58 -82 120 -142 265 -161 391 -16 99 -24 87 -17 -24 15 -226 47 -370 113 -505 48 -98 150 -201 248 -250 66 -33 76 -35 172 -35 99 0 103 1 135 30 27 25 29 26 10 4 l-24 -27 39 -13 c21 -8 70 -13 109 -13 137 0 243 83 330 259 64 129 84 235 83 445 0 91 -4 185 -8 210 -7 43 -7 44 -14 15 -3 -16 -9 -66 -13 -110 -10 -120 -48 -259 -100 -360 -58 -114 -69 -126 -38 -40 58 159 69 234 67 460 0 174 -4 225 -21 300 l-21 90 4 -88z"/>
 <path d="M1045 1323 c-37 -9 -38 -22 -2 -28 46 -9 72 -3 72 15 0 16 -34 22 -70 13z"/>
 <path d="M891 1311 c-19 -12 -4 -54 17 -46 9 3 37 9 62 12 l45 6 -40 18 c-45 21 -64 23 -84 10z"/>
 <path d="M1130 1266 c0 -8 -10 -27 -23 -41 -26 -31 -89 -43 -138 -26 -26 9 -35 8 -49 -4 -9 -8 -20 -12 -24 -8 -4 5 -6 1 -4 -7 2 -8 -2 -14 -9 -13 -12 3 -12 -14 0 -33 4 -7 0 -17 -8 -24 -15 -12 -11 -35 5 -25 10 6 8 -15 -4 -33 -5 -9 -1 -15 13 -19 12 -3 21 -12 21 -20 0 -8 5 -11 12 -7 6 4 8 3 5 -3 -4 -6 0 -17 9 -24 19 -16 47 -21 38 -8 -3 5 -9 7 -14 4 -5 -3 -11 -1 -14 4 -11 17 26 5 39 -13 12 -15 13 -15 19 0 5 13 9 14 21 4 12 -10 15 -9 15 4 0 10 4 15 8 12 10 -6 54 38 73 74 15 29 20 72 7 64 -4 -3 -9 2 -9 10 -3 31 -4 35 -19 48 -12 11 -12 10 0 -7 14 -18 14 -19 -2 -6 -17 13 -16 16 12 48 26 30 40 63 25 63 -3 0 -5 -6 -5 -14z m-73 -119 c20 -21 -59 -37 -101 -21 -21 8 -20 21 2 28 20 5 91 0 99 -7z"/>
 <path d="M885 1239 c17 -20 34 -34 38 -32 5 3 7 6 5 7 -2 0 -19 15 -38 31 l-34 30 29 -36z"/>
 <path d="M930 1250 c-8 -5 -12 -11 -10 -13 18 -14 83 -37 105 -37 29 0 65 16 65 29 0 25 -126 43 -160 21z"/>
 <path d="M707 1023 c-67 -11 -89 -125 -39 -204 44 -67 66 -82 118 -82 71 0 131 55 139 128 12 100 -96 179 -218 158z"/>
 <path d="M860 1027 c0 -2 14 -16 31 -33 22 -20 28 -23 19 -8 -11 18 -50 50 -50 41z"/>
 <path d="M1101 1016 c-5 -6 -12 -25 -15 -41 -3 -17 -3 -23 0 -15 4 8 17 27 31 41 18 19 20 26 8 26 -8 0 -19 -5 -24 -11z"/>
 <path d="M1160 1011 c-35 -10 -71 -76 -66 -123 5 -37 44 -109 68 -124 20 -13 118 -22 111 -10 -4 5 1 7 11 3 9 -4 15 -3 12 2 -3 4 8 18 24 29 34 26 53 84 43 132 -5 25 -3 31 6 25 10 -6 11 -3 3 12 -15 27 -39 46 -65 50 -61 9 -125 11 -147 4z m198 -56 c-3 -3 -13 7 -23 22 l-17 28 23 -22 c12 -12 20 -25 17 -28z"/>
 <path d="M973 737 c1 -6 -9 -11 -23 -12 -15 -1 -24 -6 -22 -14 1 -7 -2 -10 -7 -7 -5 3 -14 -1 -20 -8 -9 -10 -9 -16 -1 -21 8 -5 8 -11 -1 -21 -6 -7 -15 -12 -19 -9 -15 10 -3 -45 15 -66 11 -12 15 -20 9 -16 -6 3 -11 0 -11 -8 0 -8 8 -12 20 -10 15 3 16 1 8 -9 -9 -11 -5 -13 19 -11 22 2 28 -1 21 -9 -8 -9 1 -12 34 -11 24 0 47 4 52 9 5 5 2 6 -6 1 -9 -5 -12 -4 -8 3 4 5 15 9 24 8 10 -2 23 7 29 18 6 12 15 20 21 19 5 -1 10 4 10 12 0 8 -5 11 -11 8 -6 -3 -5 0 2 8 6 7 12 19 12 27 0 8 -5 10 -12 6 -10 -6 -10 -5 -1 7 10 12 10 18 0 29 -6 7 -7 10 -1 7 6 -3 11 0 11 8 0 8 -8 12 -20 10 -15 -3 -17 -2 -7 10 10 12 8 13 -10 10 -17 -3 -19 -1 -11 9 9 11 6 13 -11 12 -13 0 -22 4 -21 10 1 6 -4 11 -12 11 -8 0 -11 -5 -8 -10 4 -6 1 -7 -8 -1 -21 13 -39 14 -36 1z"/>
 </g>
<g id="layer113" fill="#5c453b" stroke="none">
 <path d="M1777 1911 c-24 -69 -89 -138 -162 -172 -34 -17 -51 -29 -39 -29 11 0 48 14 81 30 68 34 101 75 128 158 21 67 15 78 -8 13z"/>
 <path d="M206 1925 c20 -97 94 -185 169 -200 29 -6 29 -6 -8 18 -65 42 -108 89 -138 152 -18 37 -27 49 -23 30z"/>
 <path d="M686 1747 c-30 -44 -39 -63 -23 -49 21 20 84 122 75 122 -2 0 -25 -33 -52 -73z"/>
 <path d="M646 1632 c5 -4 22 -18 39 -32 22 -19 26 -20 15 -5 -19 25 -42 44 -54 45 -6 0 -6 -3 0 -8z"/>
 <path d="M1455 1267 c17 -338 -101 -809 -217 -872 -31 -17 -43 -18 -78 -9 -39 11 -41 10 -55 -16 -8 -16 -27 -38 -41 -49 -108 -85 -331 115 -484 433 -46 97 -110 278 -110 314 0 9 -5 24 -10 32 -11 18 -5 -58 17 -190 18 -109 50 -226 97 -352 18 -48 32 -88 30 -88 -2 0 -21 26 -42 58 -82 120 -142 265 -161 391 -16 99 -24 87 -17 -24 15 -226 47 -370 113 -505 48 -98 150 -201 248 -250 66 -33 76 -35 172 -35 99 0 103 1 135 30 27 25 29 26 10 4 l-24 -27 39 -13 c21 -8 70 -13 109 -13 137 0 243 83 330 259 64 129 84 235 83 445 0 91 -4 185 -8 210 -7 43 -7 44 -14 15 -3 -16 -9 -66 -13 -110 -10 -120 -48 -259 -100 -360 -58 -114 -69 -126 -38 -40 58 159 69 234 67 460 0 174 -4 225 -21 300 l-21 90 4 -88z"/>
 <path d="M1035 1316 l-30 -13 37 -8 c46 -9 73 -4 73 15 0 20 -42 23 -80 6z"/>
 <path d="M891 1311 c-19 -12 -4 -54 17 -46 9 3 37 9 62 12 l45 6 -40 18 c-45 21 -64 23 -84 10z"/>
 <path d="M1130 1264 c0 -8 -14 -29 -31 -46 -28 -29 -34 -30 -87 -25 -75 7 -85 9 -100 27 -11 13 -11 11 -2 -7 10 -21 7 -27 -12 -24 -5 0 -7 -5 -5 -12 1 -6 -3 -11 -10 -10 -12 3 -12 -14 0 -33 4 -7 0 -17 -8 -24 -15 -12 -11 -35 5 -25 10 6 8 -15 -4 -33 -5 -9 -1 -15 13 -19 12 -3 21 -12 21 -20 0 -8 5 -11 12 -7 6 4 8 3 5 -3 -4 -6 0 -17 9 -24 19 -16 47 -21 38 -8 -3 5 -9 7 -14 4 -5 -3 -11 -1 -14 4 -11 17 26 5 39 -13 12 -15 13 -15 19 0 5 13 9 14 21 4 12 -10 15 -9 15 4 0 10 4 15 9 12 4 -3 18 6 31 19 13 13 27 22 33 18 6 -3 7 -1 3 5 -4 6 -1 22 6 34 14 27 19 70 6 62 -4 -3 -9 2 -9 10 -3 31 -4 35 -19 48 -12 11 -12 10 0 -7 14 -18 14 -19 -2 -6 -17 13 -16 16 12 48 26 30 40 63 25 63 -3 0 -5 -7 -5 -16z m-73 -117 c20 -21 -59 -37 -101 -21 -21 8 -20 21 2 28 20 5 91 0 99 -7z"/>
 <path d="M930 1250 c-8 -5 -12 -11 -10 -13 16 -12 81 -37 98 -37 28 0 72 17 72 28 0 26 -126 44 -160 22z"/>
 <path d="M707 1023 c-67 -11 -89 -125 -39 -204 44 -67 66 -82 118 -82 71 0 131 55 139 128 12 100 -96 179 -218 158z"/>
 <path d="M1090 994 c-14 -35 -9 -38 13 -9 10 15 13 26 7 30 -6 3 -15 -6 -20 -21z"/>
 <path d="M1160 1011 c-35 -10 -71 -76 -66 -123 5 -42 47 -112 76 -128 21 -11 131 -10 125 1 -3 3 9 16 25 27 34 26 53 84 43 132 -5 27 -3 31 8 24 10 -6 10 -2 -2 16 -9 14 -23 25 -30 25 -8 1 -13 5 -12 10 1 6 -8 11 -20 12 -81 10 -125 11 -147 4z"/>
 <path d="M973 737 c1 -6 -9 -11 -23 -12 -15 -1 -24 -6 -22 -14 1 -7 -2 -10 -7 -7 -5 3 -14 -1 -20 -8 -9 -10 -9 -16 -1 -21 8 -5 8 -11 -1 -21 -6 -7 -15 -12 -19 -9 -15 10 -3 -45 15 -66 11 -12 15 -20 9 -16 -6 3 -11 0 -11 -8 0 -8 8 -12 20 -10 15 3 16 1 8 -9 -9 -11 -5 -13 19 -11 22 2 28 -1 21 -9 -8 -9 1 -12 34 -11 24 0 47 4 52 9 5 5 2 6 -6 1 -9 -5 -12 -4 -8 3 4 5 15 9 24 8 10 -2 23 7 29 18 6 12 15 20 21 19 5 -1 10 4 10 12 0 8 -5 11 -11 8 -6 -3 -5 0 2 8 6 7 12 19 12 27 0 8 -5 10 -12 6 -10 -6 -10 -5 -1 7 10 12 10 18 0 29 -6 7 -7 10 -1 7 6 -3 11 0 11 8 0 8 -8 12 -20 10 -15 -3 -17 -2 -7 10 10 12 8 13 -10 10 -17 -3 -19 -1 -11 9 9 11 6 13 -11 12 -13 0 -22 4 -21 10 1 6 -4 11 -12 11 -8 0 -11 -5 -8 -10 4 -6 1 -7 -8 -1 -21 13 -39 14 -36 1z"/>
 </g>
<g id="layer114" fill="#7d421e" stroke="none">
 <path d="M210 1905 c0 -5 13 -35 28 -65 29 -58 84 -104 137 -115 25 -6 22 -2 -20 23 -59 35 -85 61 -119 122 -14 25 -26 41 -26 35z"/>
 <path d="M1755 1854 c-25 -46 -76 -91 -139 -120 -28 -13 -44 -24 -35 -24 9 0 43 14 76 30 60 30 102 76 118 128 9 32 2 27 -20 -14z"/>
 <path d="M671 1723 c-25 -36 -26 -41 -6 -18 26 30 49 65 42 65 -2 0 -18 -21 -36 -47z"/>
 <path d="M640 1637 c0 -2 15 -14 33 -27 20 -15 27 -17 18 -6 -13 16 -51 41 -51 33z"/>
 <path d="M1035 1316 l-30 -13 37 -8 c46 -9 73 -4 73 15 0 20 -42 23 -80 6z"/>
 <path d="M891 1311 c-19 -12 -4 -54 17 -46 9 3 37 9 62 12 l45 6 -40 18 c-45 21 -64 23 -84 10z"/>
 <path d="M932 1251 c-17 -11 27 -41 71 -48 34 -5 87 10 87 25 0 26 -126 44 -158 23z"/>
 <path d="M1096 1213 c-27 -23 -36 -25 -85 -20 -74 7 -84 9 -99 27 -11 13 -11 11 -2 -7 10 -21 7 -27 -12 -24 -5 0 -7 -5 -5 -12 1 -6 -3 -11 -10 -10 -12 3 -12 -14 0 -33 4 -7 0 -17 -8 -24 -15 -12 -11 -35 5 -25 10 6 8 -15 -4 -33 -5 -9 -1 -15 13 -19 12 -3 21 -12 21 -20 0 -8 5 -11 12 -7 6 4 8 3 5 -3 -4 -6 0 -17 9 -24 19 -16 47 -21 38 -8 -3 5 -9 7 -14 4 -5 -3 -11 -1 -14 4 -11 17 26 5 39 -13 12 -15 13 -15 19 0 5 13 9 14 21 4 12 -10 15 -9 15 4 0 10 4 15 9 12 4 -3 18 6 31 19 13 13 27 22 33 18 6 -3 7 -1 3 5 -4 6 -1 22 6 34 14 27 19 70 6 62 -7 -4 -12 16 -10 38 1 3 -5 12 -14 19 -13 10 -12 15 7 36 29 30 21 29 -15 -4z m-39 -66 c20 -21 -59 -37 -101 -21 -21 8 -20 21 2 28 20 5 91 0 99 -7z"/>
 <path d="M699 1014 c-66 -28 -80 -117 -31 -195 33 -51 46 -63 87 -76 109 -35 209 98 152 201 -38 68 -136 101 -208 70z"/>
 <path d="M1090 994 c-14 -35 -9 -38 13 -9 10 15 13 26 7 30 -6 3 -15 -6 -20 -21z"/>
 <path d="M1160 1011 c-35 -10 -71 -76 -66 -123 5 -42 46 -112 75 -128 66 -35 171 15 191 91 11 39 9 50 -16 114 -7 18 -6 19 12 5 17 -12 17 -12 6 0 -7 8 -18 15 -25 15 -7 1 -11 5 -10 10 1 6 -8 11 -20 12 -81 10 -125 11 -147 4z"/>
 <path d="M973 737 c1 -6 -9 -11 -23 -12 -15 -1 -24 -6 -22 -14 1 -7 -2 -10 -7 -7 -5 3 -14 -1 -20 -8 -9 -10 -9 -16 -1 -21 8 -5 8 -11 -1 -21 -6 -7 -15 -12 -19 -9 -15 10 -3 -45 15 -66 11 -12 15 -20 9 -16 -6 3 -11 0 -11 -8 0 -8 8 -12 20 -10 15 3 16 1 8 -9 -9 -11 -5 -13 19 -11 22 2 28 -1 21 -9 -8 -9 1 -12 34 -11 24 0 47 4 52 9 5 5 2 6 -6 1 -9 -5 -12 -4 -8 3 4 5 15 9 24 8 10 -2 23 7 29 18 6 12 15 20 21 19 5 -1 10 4 10 12 0 8 -5 11 -11 8 -6 -3 -5 0 2 8 6 7 12 19 12 27 0 8 -5 10 -12 6 -10 -6 -10 -5 -1 7 10 12 10 18 0 29 -6 7 -7 10 -1 7 6 -3 11 0 11 8 0 8 -8 12 -20 10 -15 -3 -17 -2 -7 10 10 12 8 13 -10 10 -17 -3 -19 -1 -11 9 9 11 6 13 -11 12 -13 0 -22 4 -21 10 1 6 -4 11 -12 11 -8 0 -11 -5 -8 -10 4 -6 1 -7 -8 -1 -21 13 -39 14 -36 1z"/>
 </g>
<g id="layer115" fill="#912425" stroke="none">
 <path d="M210 1905 c0 -5 13 -35 28 -65 29 -58 84 -104 137 -115 25 -6 22 -2 -20 23 -59 35 -85 61 -119 122 -14 25 -26 41 -26 35z"/>
 <path d="M1755 1854 c-25 -46 -76 -91 -139 -120 -28 -13 -44 -24 -35 -24 9 0 43 14 76 30 60 30 102 76 118 128 9 32 2 27 -20 -14z"/>
 <path d="M671 1723 c-25 -36 -26 -41 -6 -18 26 30 49 65 42 65 -2 0 -18 -21 -36 -47z"/>
 <path d="M640 1637 c0 -2 15 -14 33 -27 20 -15 27 -17 18 -6 -13 16 -51 41 -51 33z"/>
 <path d="M1035 1316 l-30 -13 37 -8 c46 -9 73 -4 73 15 0 20 -42 23 -80 6z"/>
 <path d="M891 1311 c-19 -12 -4 -54 17 -46 9 3 37 9 62 12 l45 6 -40 18 c-45 21 -64 23 -84 10z"/>
 <path d="M932 1251 c-17 -11 27 -41 71 -48 34 -5 87 10 87 25 0 26 -126 44 -158 23z"/>
 <path d="M699 1014 c-66 -28 -80 -117 -31 -195 33 -51 46 -63 87 -76 109 -35 209 98 152 201 -38 68 -136 101 -208 70z"/>
 <path d="M1160 1011 c-35 -10 -71 -76 -66 -123 5 -42 46 -112 75 -128 66 -35 171 15 191 91 11 39 9 52 -16 113 -6 15 -4 17 7 11 8 -5 11 -5 6 1 -5 5 -14 9 -20 9 -7 1 -11 5 -10 10 1 6 -8 11 -20 12 -81 10 -125 11 -147 4z"/>
 </g>
<g id="layer116" fill="#724531" stroke="none">
 <path d="M210 1905 c0 -5 13 -35 28 -65 29 -58 84 -104 137 -115 25 -6 22 -2 -20 23 -59 35 -85 61 -119 122 -14 25 -26 41 -26 35z"/>
 <path d="M1755 1854 c-25 -46 -76 -91 -139 -120 -28 -13 -44 -24 -35 -24 9 0 43 14 76 30 60 30 102 76 118 128 9 32 2 27 -20 -14z"/>
 <path d="M671 1723 c-25 -36 -26 -41 -6 -18 26 30 49 65 42 65 -2 0 -18 -21 -36 -47z"/>
 <path d="M640 1637 c0 -2 15 -14 33 -27 20 -15 27 -17 18 -6 -13 16 -51 41 -51 33z"/>
 <path d="M1035 1316 l-30 -13 37 -8 c46 -9 73 -4 73 15 0 20 -42 23 -80 6z"/>
 <path d="M932 1251 c-17 -11 27 -41 71 -48 34 -5 87 10 87 25 0 26 -126 44 -158 23z"/>
 <path d="M699 1014 c-66 -28 -80 -117 -31 -195 33 -51 46 -63 87 -76 109 -35 209 98 152 201 -38 68 -136 101 -208 70z"/>
 <path d="M1160 1011 c-35 -10 -71 -76 -66 -123 5 -42 46 -112 75 -128 66 -35 171 15 191 91 11 39 9 52 -16 113 -6 15 -4 17 7 11 8 -5 11 -5 6 1 -5 5 -14 9 -20 9 -7 1 -11 5 -10 10 1 6 -8 11 -20 12 -81 10 -125 11 -147 4z"/>
 </g>
<g id="layer117" fill="#645957" stroke="none">
 <path d="M1040 1318 l-35 -11 35 -8 c41 -9 82 -1 77 15 -5 15 -35 17 -77 4z"/>
 <path d="M932 1251 c-17 -11 27 -41 71 -48 34 -5 87 10 87 25 0 26 -126 44 -158 23z"/>
 <path d="M699 1014 c-66 -28 -80 -117 -31 -195 33 -51 46 -63 87 -76 109 -35 209 98 152 201 -38 68 -136 101 -208 70z"/>
 <path d="M1160 1011 c-35 -10 -71 -76 -66 -123 5 -42 46 -112 75 -128 64 -34 170 15 190 87 14 50 14 50 -10 100 -31 63 -104 88 -189 64z"/>
 </g>
<g id="layer118" fill="#e06465" stroke="none">
 <path d="M1040 1318 l-35 -11 35 -8 c41 -9 82 -1 77 15 -5 15 -35 17 -77 4z"/>
 <path d="M931 1252 c-11 -8 -8 -13 15 -25 48 -25 96 -30 119 -13 15 11 17 18 9 26 -15 15 -125 24 -143 12z"/>
 <path d="M699 1014 c-76 -32 -79 -144 -6 -228 104 -121 292 27 211 165 -35 60 -138 91 -205 63z"/>
 <path d="M1154 1006 c-83 -37 -69 -198 21 -241 89 -41 185 24 185 126 0 100 -106 158 -206 115z"/>
 </g>
<g id="layer119" fill="#5ebcd5" stroke="none">
 <path d="M931 1252 c-11 -8 -8 -13 15 -25 48 -25 96 -30 119 -13 15 11 17 18 9 26 -15 15 -125 24 -143 12z"/>
 <path d="M699 1014 c-76 -32 -79 -144 -6 -228 104 -121 292 27 211 165 -35 60 -138 91 -205 63z"/>
 <path d="M1154 1006 c-83 -37 -69 -198 21 -241 89 -41 185 24 185 126 0 100 -106 158 -206 115z"/>
 </g>
<g id="layer120" fill="#fdfefa" stroke="none">
 <path d="M931 1252 c-11 -8 -8 -13 15 -25 48 -25 96 -30 119 -13 15 11 17 18 9 26 -15 15 -125 24 -143 12z"/>
 <path d="M699 1014 c-76 -32 -79 -144 -6 -228 104 -121 292 27 211 165 -35 60 -138 91 -205 63z m121 -129 c26 -31 -9 -62 -55 -51 -51 13 -39 66 15 66 15 0 33 -7 40 -15z"/>
 <path d="M1154 1006 c-83 -37 -69 -198 21 -241 89 -41 185 24 185 126 0 100 -106 158 -206 115z m94 -118 c31 -31 -9 -71 -53 -54 -15 5 -21 47 -8 59 11 11 48 8 61 -5z"/>
 </g>

</svg>