<!DOCTYPE svg PUBLIC "-//W3C//DTD SVG 20010904//EN" "http://www.w3.org/TR/2001/REC-SVG-20010904/DTD/svg10.dtd">
<svg version="1.0" xmlns="http://www.w3.org/2000/svg" width="200px" height="200px" viewBox="0 0 2000 2000" preserveAspectRatio="xMidYMid meet">
<g id="layer101" fill="#fdfefa" stroke="none">
 <path d="M174 1954 c15 -114 93 -220 178 -246 21 -6 38 -17 38 -23 0 -7 -9 -70 -20 -141 -57 -375 -48 -791 21 -1004 85 -259 281 -445 485 -458 40 -2 93 0 117 6 34 9 53 8 92 -3 255 -77 459 123 545 538 62 298 47 737 -35 994 l-22 71 36 7 c50 9 115 49 146 90 31 39 60 112 70 173 l7 42 -832 0 -833 0 7 -46z"/>
 </g>
<g id="layer102" fill="#5ebcd5" stroke="none">
 <path d="M174 1954 c15 -114 93 -220 178 -246 21 -6 38 -17 38 -23 0 -7 -9 -70 -20 -141 -57 -375 -48 -791 21 -1004 85 -259 281 -445 485 -458 40 -2 93 0 117 6 34 9 53 8 92 -3 255 -77 459 123 545 538 62 298 47 737 -35 994 l-22 71 36 7 c50 9 115 49 146 90 31 39 60 112 70 173 l7 42 -832 0 -833 0 7 -46z m900 -714 c8 -8 6 -15 -9 -26 -23 -17 -71 -12 -119 13 -23 12 -26 17 -15 25 18 12 128 3 143 -12z m-224 -239 c133 -67 69 -273 -80 -258 -37 4 -51 12 -77 43 -34 38 -53 88 -53 136 0 94 103 132 210 79z m440 4 c47 -24 70 -62 70 -114 0 -102 -96 -167 -185 -126 -90 43 -104 204 -21 241 41 18 100 17 136 -1z"/>
 <path d="M740 885 c-17 -20 -6 -43 25 -51 30 -8 53 0 61 21 9 22 -14 45 -46 45 -15 0 -33 -7 -40 -15z"/>
 <path d="M1187 893 c-13 -12 -7 -54 8 -59 44 -17 84 23 53 54 -13 13 -50 16 -61 5z"/>
 </g>
<g id="layer103" fill="#e06465" stroke="none">
 <path d="M174 1954 c15 -114 93 -220 178 -246 21 -6 38 -17 38 -23 0 -7 -9 -70 -20 -141 -57 -375 -48 -791 21 -1004 85 -259 281 -445 485 -458 40 -2 93 0 117 6 34 9 53 8 92 -3 255 -77 459 123 545 538 62 298 47 737 -35 994 l-22 71 36 7 c50 9 115 49 146 90 31 39 60 112 70 173 l7 42 -832 0 -833 0 7 -46z m900 -714 c8 -8 6 -15 -9 -26 -23 -17 -71 -12 -119 13 -23 12 -26 17 -15 25 18 12 128 3 143 -12z m-224 -239 c133 -67 69 -273 -80 -258 -37 4 -51 12 -77 43 -34 38 -53 88 -53 136 0 94 103 132 210 79z m440 4 c47 -24 70 -62 70 -114 0 -102 -96 -167 -185 -126 -90 43 -104 204 -21 241 41 18 100 17 136 -1z"/>
 </g>
<g id="layer104" fill="#645957" stroke="none">
 <path d="M174 1954 c15 -114 93 -220 178 -246 21 -6 38 -17 38 -23 0 -7 -9 -70 -20 -141 -57 -375 -48 -791 21 -1004 85 -259 281 -445 485 -458 40 -2 93 0 117 6 34 9 53 8 92 -3 255 -77 459 123 545 538 62 298 47 737 -35 994 l-22 71 36 7 c50 9 115 49 146 90 31 39 60 112 70 173 l7 42 -832 0 -833 0 7 -46z m943 -640 c5 -16 -36 -24 -77 -15 l-35 8 35 11 c42 13 72 11 77 -4z m-43 -74 c8 -8 6 -15 -9 -26 -23 -17 -71 -12 -119 13 -23 12 -26 17 -15 25 18 12 128 3 143 -12z m-224 -239 c133 -67 69 -273 -80 -258 -37 4 -51 12 -77 43 -34 38 -53 88 -53 136 0 94 103 132 210 79z m440 4 c47 -24 70 -62 70 -114 0 -102 -96 -167 -185 -126 -90 43 -104 204 -21 241 41 18 100 17 136 -1z"/>
 </g>
<g id="layer105" fill="#724531" stroke="none">
 <path d="M174 1954 c15 -114 93 -220 178 -246 21 -6 38 -17 38 -23 0 -7 -9 -70 -20 -141 -57 -375 -48 -791 21 -1004 85 -259 281 -445 485 -458 40 -2 93 0 117 6 34 9 53 8 92 -3 255 -77 459 123 545 538 62 298 47 737 -35 994 l-22 71 36 7 c50 9 115 49 146 90 31 39 60 112 70 173 l7 42 -832 0 -833 0 7 -46z m943 -640 c5 -16 -36 -24 -77 -15 l-35 8 35 11 c42 13 72 11 77 -4z m-52 -66 c32 -15 32 -26 -2 -39 -34 -13 -83 -6 -118 17 -20 13 -23 19 -13 25 19 13 103 11 133 -3z m-217 -245 c51 -27 83 -85 75 -140 -11 -85 -94 -144 -168 -120 -41 13 -54 25 -87 76 -30 49 -37 110 -17 155 25 54 120 68 197 29z m445 2 c25 -10 41 -27 56 -58 24 -50 24 -50 10 -100 -20 -72 -126 -121 -190 -87 -29 16 -70 86 -75 128 -5 47 31 113 66 123 43 12 96 10 133 -6z"/>
 </g>
<g id="layer106" fill="#912425" stroke="none">
 <path d="M174 1954 c15 -114 93 -220 178 -246 21 -6 38 -17 38 -23 0 -7 -9 -70 -20 -141 -57 -375 -48 -791 21 -1004 85 -259 281 -445 485 -458 40 -2 93 0 117 6 34 9 53 8 92 -3 255 -77 459 123 545 538 62 298 47 737 -35 994 l-22 71 36 7 c50 9 115 49 146 90 31 39 60 112 70 173 l7 42 -832 0 -833 0 7 -46z m109 -153 c12 -13 45 -37 72 -53 42 -25 45 -29 20 -23 -53 11 -108 57 -137 115 -35 69 -36 90 -2 30 14 -25 35 -56 47 -69z m1492 67 c-16 -52 -58 -98 -118 -128 -33 -16 -67 -30 -76 -30 -9 0 7 11 35 24 63 29 114 74 139 120 22 41 29 46 20 14z m-1074 -115 c-6 -10 -22 -31 -36 -48 -20 -23 -19 -18 6 18 32 46 49 63 30 30z m-10 -149 c9 -11 2 -9 -18 6 -18 13 -33 25 -33 27 0 8 38 -17 51 -33z m424 -294 c0 -19 -27 -24 -73 -15 l-37 8 30 13 c38 17 80 14 80 -6z m-50 -62 c32 -15 32 -26 -2 -39 -34 -13 -83 -6 -118 17 -20 13 -23 19 -13 25 19 13 103 11 133 -3z m-217 -245 c51 -27 83 -85 75 -140 -11 -85 -94 -144 -168 -120 -41 13 -54 25 -87 76 -30 49 -37 110 -17 155 25 54 120 68 197 29z m459 4 c12 -1 21 -6 20 -12 -1 -5 3 -9 10 -10 6 0 15 -4 20 -9 5 -6 2 -6 -6 -1 -11 6 -13 4 -7 -11 25 -61 27 -74 16 -113 -20 -76 -125 -126 -191 -91 -29 16 -70 86 -75 128 -5 47 31 113 66 123 22 7 66 6 147 -4z"/>
 </g>
<g id="layer107" fill="#563e34" stroke="none">
 <path d="M174 1954 c15 -114 93 -220 178 -246 21 -6 38 -17 38 -23 0 -7 -9 -70 -20 -141 -57 -375 -48 -791 21 -1004 85 -259 281 -445 485 -458 40 -2 93 0 117 6 34 9 53 8 92 -3 255 -77 459 123 545 538 62 298 47 737 -35 994 l-22 71 36 7 c50 9 115 49 146 90 31 39 60 112 70 173 l7 42 -832 0 -833 0 7 -46z m109 -153 c12 -13 45 -37 72 -53 42 -25 45 -29 20 -23 -53 11 -108 57 -137 115 -35 69 -36 90 -2 30 14 -25 35 -56 47 -69z m1492 67 c-16 -52 -58 -98 -118 -128 -33 -16 -67 -30 -76 -30 -9 0 7 11 35 24 63 29 114 74 139 120 22 41 29 46 20 14z m-1074 -115 c-6 -10 -22 -31 -36 -48 -20 -23 -19 -18 6 18 32 46 49 63 30 30z m-10 -149 c9 -11 2 -9 -18 6 -18 13 -33 25 -33 27 0 8 38 -17 51 -33z m424 -294 c0 -19 -27 -24 -73 -15 l-37 8 30 13 c38 17 80 14 80 -6z m-140 -9 l40 -18 -45 -6 c-25 -3 -53 -9 -62 -12 -21 -8 -36 34 -17 46 20 13 39 11 84 -10z m90 -53 c32 -15 32 -26 -2 -39 -34 -13 -83 -6 -118 17 -20 13 -23 19 -13 25 19 13 103 11 133 -3z m-217 -245 c51 -27 83 -85 75 -140 -11 -85 -94 -144 -168 -120 -41 13 -54 25 -87 76 -30 49 -37 110 -17 155 25 54 120 68 197 29z m459 4 c12 -1 21 -6 20 -12 -1 -5 3 -9 10 -10 6 0 15 -4 20 -9 5 -6 2 -6 -6 -1 -11 6 -13 4 -7 -11 25 -61 27 -74 16 -113 -20 -76 -125 -126 -191 -91 -29 16 -70 86 -75 128 -5 47 31 113 66 123 22 7 66 6 147 -4z"/>
 </g>
<g id="layer108" fill="#683b2f" stroke="none">
 <path d="M174 1954 c15 -114 93 -220 178 -246 21 -6 38 -17 38 -23 0 -7 -9 -70 -20 -141 -57 -375 -48 -791 21 -1004 85 -259 281 -445 485 -458 40 -2 93 0 117 6 34 9 53 8 92 -3 240 -73 438 104 529 471 43 173 51 247 50 494 0 254 -19 410 -69 567 l-22 71 36 7 c50 9 115 49 146 90 31 39 60 112 70 173 l7 42 -832 0 -833 0 7 -46z m1621 -24 c-8 -22 -12 -40 -9 -40 3 0 2 -6 -3 -12 -4 -7 -8 -19 -9 -27 -4 -22 -77 -101 -94 -101 -5 0 -10 -5 -10 -12 0 -6 -3 -9 -6 -5 -3 3 -26 -3 -51 -14 -25 -11 -48 -17 -51 -14 -7 6 -7 6 56 35 80 36 139 108 175 213 4 9 9 17 11 17 3 0 -1 -18 -9 -40z m-1499 -132 c22 -20 56 -45 77 -56 25 -13 33 -22 23 -25 -8 -3 -17 -3 -20 1 -4 3 -13 7 -21 8 -33 5 -124 94 -129 127 -1 7 -5 17 -8 23 -4 6 -10 26 -12 45 -5 28 -1 24 23 -26 16 -33 46 -76 67 -97z m280 0 c-73 -172 -112 -413 -95 -597 11 -124 60 -307 109 -409 75 -157 253 -385 345 -442 79 -49 138 -42 170 20 18 34 15 33 50 20 39 -15 88 12 124 69 41 63 105 261 130 401 34 187 27 316 -33 630 -14 69 -27 148 -31 175 l-6 50 19 -45 c10 -25 31 -65 46 -89 16 -25 34 -58 42 -75 l13 -31 1 49 c0 27 -11 105 -25 174 -14 68 -24 127 -21 129 6 7 51 -94 80 -181 15 -44 36 -129 49 -188 12 -59 25 -108 30 -108 7 0 6 39 -9 200 -6 75 10 46 31 -55 37 -182 60 -593 35 -650 -8 -17 -9 -16 -11 10 -1 17 -5 -28 -9 -100 -15 -261 -74 -435 -191 -559 -97 -104 -198 -135 -326 -102 -51 12 -73 13 -118 4 -121 -24 -255 30 -376 151 -149 149 -215 349 -238 719 -10 159 -1 338 25 537 l19 140 5 -95 c6 -102 9 -102 34 3 8 37 26 94 39 126 27 66 116 215 124 207 3 -3 -11 -42 -31 -88z m145 -17 c-23 -44 -71 -104 -78 -97 -5 4 3 15 35 51 6 7 12 18 12 24 0 6 4 11 9 11 5 0 12 11 15 25 4 14 11 25 16 25 6 0 2 -17 -9 -39z m-50 -154 c8 -7 24 -25 34 -42 l19 -30 -31 33 c-16 17 -35 32 -41 32 -7 0 -12 5 -12 10 0 13 11 12 31 -3z m447 -319 c3 -15 -4 -18 -40 -18 -59 0 -79 14 -42 28 41 15 78 10 82 -10z m-143 -7 l40 -18 -45 -6 c-25 -3 -53 -9 -62 -12 -21 -8 -36 34 -17 46 20 13 39 11 84 -10z m89 -52 c37 -17 29 -44 -13 -46 -19 -1 -47 -5 -61 -8 -15 -3 -20 -2 -12 3 8 6 1 12 -23 22 -57 23 -43 38 37 39 26 1 58 -4 72 -10z m-253 -231 c51 -17 90 -47 105 -82 7 -17 13 -25 14 -17 0 8 2 12 5 9 3 -3 1 -16 -4 -30 -6 -15 -5 -31 1 -42 8 -14 7 -17 -1 -12 -6 4 -11 1 -11 -8 0 -26 -60 -85 -98 -95 -65 -19 -104 1 -154 78 -50 79 -28 194 39 204 53 8 70 7 104 -5z m473 0 c-5 -8 -2 -9 10 -5 11 5 15 3 10 -5 -5 -8 -2 -9 9 -5 10 4 16 2 14 -5 -1 -7 3 -12 10 -13 6 0 15 -4 20 -9 5 -5 2 -6 -6 -1 -9 5 -12 3 -9 -6 3 -8 11 -14 18 -14 7 0 15 -7 17 -15 4 -13 3 -13 -7 0 -9 12 -10 8 -6 -19 8 -43 -8 -103 -34 -126 -11 -10 -17 -22 -14 -26 3 -5 -3 -6 -12 -2 -12 4 -15 3 -10 -5 5 -8 2 -10 -8 -6 -9 3 -16 2 -16 -3 0 -11 -88 -2 -108 11 -23 14 -63 86 -68 122 -4 34 23 105 46 119 6 4 41 10 78 15 37 4 68 8 70 9 2 0 0 -4 -4 -11z m-354 -71 c0 -12 0 -11 -24 28 l-17 30 20 -24 c12 -13 21 -28 21 -34z m200 -182 c0 -4 -9 4 -20 18 -11 14 -20 28 -20 32 0 4 9 -4 20 -18 11 -14 20 -28 20 -32z"/>
 <path d="M422 1170 c0 -19 2 -27 5 -17 2 9 2 25 0 35 -3 9 -5 1 -5 -18z"/>
 </g>
<g id="layer109" fill="#703819" stroke="none">
 <path d="M174 1954 c15 -114 93 -220 178 -246 21 -6 38 -17 38 -23 0 -7 -9 -70 -20 -141 -57 -375 -48 -791 21 -1004 85 -259 281 -445 485 -458 40 -2 93 0 117 6 34 9 53 8 92 -3 240 -73 438 104 529 471 43 173 51 247 50 494 0 254 -19 410 -69 567 l-22 71 36 7 c50 9 115 49 146 90 31 39 60 112 70 173 12 71 -10 47 -29 -33 -27 -115 -79 -174 -180 -209 -58 -19 -56 -19 -56 -7 0 4 20 16 43 25 66 25 122 79 156 149 17 34 33 74 37 90 l6 27 -801 0 c-912 0 -823 11 -773 -95 38 -78 73 -120 134 -154 61 -35 46 -52 -17 -21 -80 39 -130 117 -151 233 -9 55 -28 47 -20 -9z m402 -156 c-73 -172 -112 -413 -95 -597 11 -124 60 -307 109 -409 75 -157 253 -385 345 -442 79 -49 138 -42 170 20 18 34 15 33 50 20 39 -15 88 12 124 69 41 63 105 261 130 401 34 187 27 316 -33 630 -14 69 -27 148 -31 175 l-6 50 19 -45 c10 -25 31 -65 46 -89 16 -25 34 -58 42 -75 l13 -31 1 49 c0 27 -11 105 -25 174 -14 68 -24 127 -21 129 6 7 51 -94 80 -181 15 -44 36 -129 49 -188 12 -59 25 -108 30 -108 7 0 6 39 -9 200 -6 75 10 46 31 -55 37 -182 60 -593 35 -650 -8 -17 -9 -16 -11 10 -1 17 -5 -28 -9 -100 -15 -261 -74 -435 -191 -559 -97 -104 -198 -135 -326 -102 -51 12 -73 13 -118 4 -121 -24 -255 30 -376 151 -149 149 -215 349 -238 719 -10 159 -1 338 25 537 l19 140 5 -95 c6 -102 9 -102 34 3 8 37 26 94 39 126 27 66 116 215 124 207 3 -3 -11 -42 -31 -88z m151 -10 c-25 -53 -90 -136 -85 -108 4 18 102 170 107 165 1 -2 -8 -28 -22 -57z m-19 -198 c12 -18 22 -38 22 -44 0 -6 -9 3 -20 20 -11 17 -31 37 -45 44 -14 7 -25 20 -25 28 0 22 39 -6 68 -48z m410 -282 c3 -15 -4 -18 -40 -18 -24 0 -50 5 -58 10 -8 5 -10 10 -5 10 6 0 5 4 -2 8 -6 4 14 7 45 7 46 0 57 -3 60 -17z m-143 -7 l40 -18 -45 -6 c-25 -3 -53 -9 -62 -12 -21 -8 -36 34 -17 46 20 13 39 11 84 -10z m-85 -56 l25 -30 -27 24 c-16 14 -28 29 -28 34 0 6 1 8 3 6 1 -2 13 -17 27 -34z m174 4 c26 -12 33 -51 7 -41 -8 3 -12 1 -9 -4 3 -5 -15 -9 -42 -9 -27 0 -44 2 -39 6 5 3 -7 11 -26 19 -57 23 -43 38 37 39 26 1 58 -4 72 -10z m-253 -230 c49 -17 98 -56 105 -85 5 -20 9 -23 16 -12 6 8 7 5 2 -12 -8 -28 -8 -34 0 -70 6 -21 5 -22 -3 -5 -8 17 -10 17 -10 3 -1 -29 -60 -87 -99 -97 -65 -19 -104 1 -154 78 -50 79 -28 194 39 204 53 8 70 7 104 -4z m473 -1 c-5 -8 -2 -9 10 -5 11 5 15 3 10 -5 -5 -7 -2 -9 8 -5 10 3 24 -3 35 -15 10 -12 12 -18 4 -13 -9 5 -12 3 -9 -6 3 -8 11 -14 18 -14 7 0 15 -7 17 -15 4 -13 3 -13 -7 0 -9 12 -10 8 -6 -19 8 -43 -8 -103 -34 -126 -11 -10 -17 -22 -13 -28 3 -5 1 -7 -5 -4 -13 9 -44 -2 -37 -13 6 -10 -85 0 -108 12 -26 13 -67 84 -73 124 -4 34 23 105 46 119 6 4 41 10 78 15 37 4 68 8 70 9 2 0 0 -4 -4 -11z m-354 -71 c0 -6 -6 -3 -12 8 -6 11 -18 29 -27 40 -9 12 -4 8 12 -7 15 -16 27 -34 27 -41z m187 55 c-9 -9 -20 -29 -26 -42 -6 -15 -10 -19 -10 -9 -1 16 35 69 46 69 3 0 -1 -8 -10 -18z m13 -237 c0 -4 -9 4 -20 18 -11 14 -20 28 -20 32 0 4 9 -4 20 -18 11 -14 20 -28 20 -32z m-442 -6 c17 -20 20 -29 11 -34 -7 -5 -10 -4 -6 2 4 6 0 16 -9 24 -8 7 -20 22 -26 33 -6 12 -6 17 -2 11 5 -5 20 -22 32 -36z"/>
 <path d="M422 1170 c0 -19 2 -27 5 -17 2 9 2 25 0 35 -3 9 -5 1 -5 -18z"/>
 </g>
<g id="layer110" fill="#303545" stroke="none">
 <path d="M174 1954 c15 -114 93 -220 178 -246 21 -6 38 -17 38 -23 0 -7 -9 -70 -20 -141 -57 -375 -48 -791 21 -1004 85 -259 281 -445 485 -458 40 -2 93 0 117 6 34 9 53 8 92 -3 240 -73 438 104 529 471 43 173 51 247 50 494 0 254 -19 410 -69 567 l-22 71 36 7 c50 9 115 49 146 90 31 39 60 112 70 173 12 71 -10 47 -29 -33 -19 -78 -54 -138 -103 -172 -24 -18 -125 -57 -127 -50 -1 1 -18 37 -39 80 -38 76 -60 99 -51 55 3 -13 -2 -9 -11 11 -8 18 -31 60 -51 92 -35 58 -36 59 -80 59 l-44 0 -1 -52 c-1 -29 -4 -66 -8 -82 l-6 -30 -12 27 c-16 34 -33 28 -72 -24 -25 -34 -30 -37 -41 -24 -7 9 -14 29 -15 45 -2 16 -12 48 -23 71 -11 23 -18 47 -15 55 4 11 -13 14 -91 14 -80 0 -96 -3 -96 -15 0 -28 -42 -149 -58 -167 -14 -16 -17 -15 -44 20 -45 56 -54 58 -77 15 -11 -21 -34 -58 -51 -83 l-31 -45 6 45 c6 39 30 136 51 208 6 21 4 22 -49 22 -54 0 -56 -1 -102 -52 -58 -64 -92 -123 -116 -196 l-18 -57 0 44 c-1 49 -7 52 -14 6 -3 -25 -8 -30 -28 -27 -35 3 -99 51 -131 97 -16 22 -36 72 -45 113 -19 80 -39 98 -29 26z m402 -156 c-73 -172 -112 -413 -95 -597 11 -124 60 -307 109 -409 75 -157 253 -385 345 -442 79 -49 138 -42 170 20 18 34 15 33 50 20 39 -15 88 12 124 69 41 63 105 261 130 401 34 187 27 316 -33 630 -14 69 -27 148 -31 175 l-6 50 19 -45 c10 -25 31 -65 46 -89 16 -25 34 -58 42 -75 l13 -31 1 49 c0 27 -11 105 -25 174 -14 68 -24 127 -21 129 6 7 51 -94 80 -181 15 -44 36 -129 49 -188 12 -59 25 -108 30 -108 7 0 6 39 -9 200 -6 75 10 46 31 -55 37 -182 60 -593 35 -650 -8 -17 -9 -16 -11 10 -1 17 -5 -28 -9 -100 -15 -261 -74 -435 -191 -559 -97 -104 -198 -135 -326 -102 -51 12 -73 13 -118 4 -121 -24 -255 30 -376 151 -149 149 -215 349 -238 719 -10 159 -1 338 25 537 l19 140 5 -95 c6 -102 9 -102 34 3 8 37 26 94 39 126 27 66 116 215 124 207 3 -3 -11 -42 -31 -88z m248 -13 c31 -47 65 -90 76 -97 11 -7 20 -16 20 -19 0 -4 -29 -25 -64 -47 -77 -48 -103 -88 -87 -134 17 -49 -12 -17 -44 47 -15 32 -39 62 -56 72 -45 27 -39 64 26 163 30 46 55 87 55 92 0 24 24 -1 74 -77z m431 68 c14 -35 14 -316 -1 -350 -14 -37 -25 -44 -17 -13 11 40 -18 81 -89 126 -37 24 -68 47 -68 52 0 4 9 13 20 19 10 7 44 51 75 98 31 47 60 85 65 85 4 0 11 -8 15 -17z m-240 -100 c11 -76 33 -112 91 -149 46 -30 74 -54 61 -54 -3 0 -21 7 -40 15 -23 10 -69 15 -127 15 -58 0 -104 -5 -127 -15 -19 -8 -37 -15 -40 -15 -12 0 14 23 61 55 59 39 80 74 91 148 4 26 11 47 15 47 4 0 11 -21 15 -47z m96 -288 c25 -9 82 -45 127 -80 77 -61 82 -67 102 -132 30 -96 50 -224 49 -307 -1 -58 -2 -65 -9 -37 -11 46 -39 82 -86 108 -72 42 -162 20 -197 -47 -24 -47 -19 -129 11 -170 28 -37 28 -42 -3 -34 -19 5 -24 3 -20 -8 13 -32 114 -54 185 -39 l45 9 -45 2 c-35 1 -41 3 -25 10 16 7 12 9 -18 9 -51 1 -72 14 -103 62 -36 57 -39 105 -11 154 24 42 46 52 115 54 83 2 136 -49 136 -130 0 -54 -21 -91 -67 -119 -18 -11 -27 -20 -21 -20 6 0 28 11 48 25 29 20 38 22 42 11 7 -18 -27 -142 -63 -236 -26 -68 -28 -70 -87 -96 -76 -33 -217 -44 -302 -24 -45 11 -63 22 -97 60 -47 52 -127 166 -175 246 l-30 52 23 4 c17 4 29 -4 48 -28 26 -31 26 -32 4 -28 -12 2 -2 -3 23 -12 75 -25 206 0 198 39 -1 7 3 22 10 34 25 45 25 105 0 153 -28 55 -73 86 -138 95 -108 15 -156 -28 -153 -137 1 -49 -3 -70 -14 -79 -12 -10 -16 -10 -24 2 -12 20 -11 40 10 164 11 61 22 141 26 178 6 53 15 79 39 115 36 54 163 156 221 176 54 19 171 20 226 1z m-264 -462 c55 -29 78 -65 78 -123 -1 -81 -61 -143 -139 -143 -52 0 -74 15 -118 82 -50 79 -28 193 39 204 46 8 101 0 140 -20z"/>
 <path d="M422 1170 c0 -19 2 -27 5 -17 2 9 2 25 0 35 -3 9 -5 1 -5 -18z"/>
 <path d="M877 1319 c-21 -17 -21 -19 -7 -46 36 -65 142 -100 207 -69 66 32 80 136 17 136 -15 0 -43 -5 -64 -11 -26 -8 -51 -8 -84 -1 -40 8 -50 7 -69 -9z m241 -11 c3 -15 -4 -18 -40 -18 -48 0 -84 15 -58 24 8 2 22 7 30 10 29 10 65 1 68 -16z m-143 -7 l40 -18 -45 -6 c-25 -3 -53 -9 -62 -12 -21 -8 -36 34 -17 46 20 13 39 11 84 -10z m90 -53 c30 -13 32 -24 6 -38 -28 -15 -68 -12 -109 7 -48 22 -49 22 -32 33 21 13 104 12 135 -2z"/>
 <path d="M960 1145 c-24 -13 -21 -14 40 -14 61 0 64 1 40 14 -14 8 -32 14 -40 14 -8 0 -26 -6 -40 -14z"/>
 </g>
<g id="layer111" fill="#701c1c" stroke="none">
 <path d="M174 1954 c15 -114 93 -220 178 -246 21 -6 38 -17 38 -23 0 -7 -9 -70 -20 -141 -57 -375 -48 -791 21 -1004 85 -259 281 -445 485 -458 40 -2 93 0 117 6 34 9 53 8 92 -3 240 -73 438 104 529 471 43 173 51 247 50 494 0 254 -19 410 -69 567 l-22 71 36 7 c50 9 115 49 146 90 31 39 60 112 70 173 12 71 -10 47 -29 -33 -19 -78 -54 -138 -103 -172 -24 -18 -125 -57 -127 -50 -1 1 -18 37 -39 80 -38 76 -60 99 -51 55 3 -13 -2 -9 -11 11 -8 18 -31 60 -51 92 -35 58 -36 59 -80 59 l-44 0 -1 -52 c-1 -29 -4 -66 -8 -82 l-6 -30 -12 27 c-16 34 -33 28 -72 -24 -25 -34 -30 -37 -41 -24 -7 9 -14 29 -15 45 -2 16 -12 48 -23 71 -11 23 -18 47 -15 55 4 11 -13 14 -91 14 -80 0 -96 -3 -96 -15 0 -28 -42 -149 -58 -167 -14 -16 -17 -15 -44 20 -45 56 -54 58 -77 15 -11 -21 -34 -58 -51 -83 l-31 -45 6 45 c6 39 30 136 51 208 6 21 4 22 -49 22 -54 0 -56 -1 -102 -52 -58 -64 -92 -123 -116 -196 l-18 -57 0 44 c-1 49 -7 52 -14 6 -3 -25 -8 -30 -28 -27 -35 3 -99 51 -131 97 -16 22 -36 72 -45 113 -19 80 -39 98 -29 26z m402 -156 c-73 -172 -112 -413 -95 -597 11 -124 60 -307 109 -409 75 -157 253 -385 345 -442 79 -49 138 -42 170 20 18 34 15 33 50 20 39 -15 88 12 124 69 41 63 105 261 130 401 34 187 27 316 -33 630 -14 69 -27 148 -31 175 l-6 50 19 -45 c10 -25 31 -65 46 -89 16 -25 34 -58 42 -75 l13 -31 1 49 c0 27 -11 105 -25 174 -14 68 -24 127 -21 129 6 7 51 -94 80 -181 15 -44 36 -129 49 -188 12 -59 25 -108 30 -108 7 0 6 39 -9 200 -6 75 10 46 31 -55 37 -182 60 -593 35 -650 -8 -17 -9 -16 -11 10 -1 17 -5 -28 -9 -100 -15 -261 -74 -435 -191 -559 -97 -104 -198 -135 -326 -102 -51 12 -73 13 -118 4 -121 -24 -255 30 -376 151 -149 149 -215 349 -238 719 -10 159 -1 338 25 537 l19 140 5 -95 c6 -102 9 -102 34 3 8 37 26 94 39 126 27 66 116 215 124 207 3 -3 -11 -42 -31 -88z m248 -13 c31 -47 65 -90 76 -97 11 -7 20 -16 20 -19 0 -4 -29 -25 -64 -47 -77 -48 -103 -88 -87 -134 17 -49 -12 -17 -44 47 -15 32 -39 62 -56 72 -45 27 -39 64 26 163 30 46 55 87 55 92 0 24 24 -1 74 -77z m431 68 c14 -35 14 -316 -1 -350 -14 -37 -25 -44 -17 -13 11 40 -18 81 -89 126 -37 24 -68 47 -68 52 0 4 9 13 20 19 10 7 44 51 75 98 31 47 60 85 65 85 4 0 11 -8 15 -17z m-240 -100 c11 -76 33 -112 91 -149 46 -30 74 -54 61 -54 -3 0 -21 7 -40 15 -23 10 -69 15 -127 15 -58 0 -104 -5 -127 -15 -19 -8 -37 -15 -40 -15 -12 0 14 23 61 55 59 39 80 74 91 148 4 26 11 47 15 47 4 0 11 -21 15 -47z m96 -288 c25 -9 82 -45 127 -80 77 -61 82 -67 102 -132 30 -96 50 -224 49 -307 -1 -58 -2 -65 -9 -37 -11 46 -39 82 -86 108 -72 42 -162 20 -197 -47 -24 -47 -19 -129 11 -170 28 -37 28 -42 -3 -34 -19 5 -24 3 -20 -8 13 -32 114 -54 185 -39 l45 9 -45 2 c-35 1 -41 3 -25 10 16 7 12 9 -18 9 -51 1 -72 14 -103 62 -35 57 -40 108 -13 153 27 47 46 56 111 56 65 0 108 -24 131 -73 28 -58 18 -108 -31 -161 -23 -25 -24 -27 -5 -17 12 6 31 23 42 37 12 15 21 22 21 16 0 -6 -4 -13 -10 -17 -5 -3 -7 -12 -4 -20 7 -17 -27 -142 -63 -235 -26 -68 -28 -70 -87 -96 -76 -33 -217 -44 -302 -24 -45 11 -63 22 -97 60 -47 52 -127 166 -175 246 l-30 52 23 4 c17 4 29 -4 48 -28 26 -31 26 -32 4 -28 -12 2 -2 -3 23 -12 75 -25 206 1 198 40 -1 6 3 21 10 33 13 23 29 122 19 112 -4 -3 -9 -23 -12 -45 -9 -72 -69 -127 -138 -127 -50 0 -80 19 -115 71 -44 67 -44 155 1 199 21 21 92 28 140 13 49 -16 73 -34 98 -75 11 -16 19 -25 19 -20 0 6 -9 25 -20 43 -54 88 -217 109 -266 34 -19 -29 -24 -97 -10 -147 4 -16 4 -27 0 -23 -4 4 -14 3 -21 -4 -11 -9 -17 -9 -24 3 -12 20 -11 40 10 164 11 61 22 141 26 178 6 53 15 79 39 115 36 54 163 156 221 176 54 19 171 20 226 1z"/>
 <path d="M422 1170 c0 -19 2 -27 5 -17 2 9 2 25 0 35 -3 9 -5 1 -5 -18z"/>
 <path d="M877 1319 c-21 -17 -21 -19 -7 -46 36 -65 142 -100 207 -69 66 32 80 136 17 136 -15 0 -43 -5 -64 -11 -26 -8 -51 -8 -84 -1 -40 8 -50 7 -69 -9z m241 -11 c3 -15 -4 -18 -40 -18 -48 0 -84 15 -58 24 8 2 22 7 30 10 29 10 65 1 68 -16z m-143 -7 l40 -18 -45 -6 c-25 -3 -53 -9 -62 -12 -21 -8 -36 34 -17 46 20 13 39 11 84 -10z m90 -53 c30 -13 32 -24 6 -38 -28 -15 -68 -12 -109 7 -48 22 -49 22 -32 33 21 13 104 12 135 -2z"/>
 <path d="M960 1145 c-24 -13 -21 -14 40 -14 61 0 64 1 40 14 -14 8 -32 14 -40 14 -8 0 -26 -6 -40 -14z"/>
 </g>
<g id="layer112" fill="#51220d" stroke="none">
 <path d="M174 1954 c15 -114 93 -220 178 -246 21 -6 38 -17 38 -23 0 -7 -9 -70 -20 -141 -57 -375 -48 -791 21 -1004 85 -259 281 -445 485 -458 40 -2 93 0 117 6 34 9 53 8 92 -3 240 -73 438 104 529 471 43 173 51 247 50 494 0 254 -19 410 -69 567 l-22 71 36 7 c50 9 115 49 146 90 31 39 60 112 70 173 12 71 -10 47 -29 -33 -19 -78 -54 -138 -103 -172 -24 -18 -125 -57 -127 -50 -1 1 -18 37 -39 80 -38 76 -60 99 -51 55 3 -13 -2 -9 -11 11 -8 18 -31 60 -51 92 -35 58 -36 59 -80 59 l-44 0 -1 -52 c-1 -29 -4 -66 -8 -82 l-6 -30 -12 27 c-16 34 -33 28 -72 -24 -25 -34 -30 -37 -41 -24 -7 9 -14 29 -15 45 -2 16 -12 48 -23 71 -11 23 -18 47 -15 55 4 11 -13 14 -91 14 -80 0 -96 -3 -96 -15 0 -28 -42 -149 -58 -167 -14 -16 -17 -15 -44 20 -45 56 -54 58 -77 15 -11 -21 -34 -58 -51 -83 l-31 -45 6 45 c6 39 30 136 51 208 6 21 4 22 -49 22 -54 0 -56 -1 -102 -52 -58 -64 -92 -123 -116 -196 l-18 -57 0 44 c-1 49 -7 52 -14 6 -3 -25 -8 -30 -28 -27 -35 3 -99 51 -131 97 -16 22 -36 72 -45 113 -19 80 -39 98 -29 26z m402 -156 c-73 -172 -112 -413 -95 -597 11 -124 60 -307 109 -409 75 -157 253 -385 345 -442 79 -49 138 -42 170 20 18 34 15 33 50 20 39 -15 88 12 124 69 41 63 105 261 130 401 34 187 27 316 -33 630 -14 69 -27 148 -31 175 l-6 50 19 -45 c10 -25 31 -65 46 -89 16 -25 34 -58 42 -75 l13 -31 1 49 c0 27 -11 105 -25 174 -14 68 -24 127 -21 129 6 7 51 -94 80 -181 15 -44 36 -129 49 -188 12 -59 25 -108 30 -108 7 0 6 39 -9 200 -6 75 10 46 31 -55 37 -182 60 -593 35 -650 -8 -17 -9 -16 -11 10 -1 17 -5 -28 -9 -100 -15 -261 -74 -435 -191 -559 -97 -104 -198 -135 -326 -102 -51 12 -73 13 -118 4 -121 -24 -255 30 -376 151 -149 149 -215 349 -238 719 -10 159 -1 338 25 537 l19 140 5 -95 c6 -102 9 -102 34 3 8 37 26 94 39 126 27 66 116 215 124 207 3 -3 -11 -42 -31 -88z m248 -13 c31 -47 65 -90 76 -97 11 -7 20 -16 20 -19 0 -4 -29 -25 -64 -47 -77 -48 -103 -88 -87 -134 17 -49 -12 -17 -44 47 -15 32 -39 62 -56 72 -45 27 -39 64 26 163 30 46 55 87 55 92 0 24 24 -1 74 -77z m431 68 c14 -35 14 -316 -1 -350 -14 -37 -25 -44 -17 -13 11 40 -18 81 -89 126 -37 24 -68 47 -68 52 0 4 9 13 20 19 10 7 44 51 75 98 31 47 60 85 65 85 4 0 11 -8 15 -17z m-240 -100 c11 -76 33 -112 91 -149 46 -30 74 -54 61 -54 -3 0 -21 7 -40 15 -23 10 -69 15 -127 15 -58 0 -104 -5 -127 -15 -19 -8 -37 -15 -40 -15 -12 0 14 23 61 55 59 39 80 74 91 148 4 26 11 47 15 47 4 0 11 -21 15 -47z m96 -288 c25 -9 82 -45 127 -80 77 -61 82 -67 102 -132 30 -96 50 -224 49 -307 -1 -58 -2 -65 -9 -37 -11 46 -39 82 -86 108 -72 42 -162 20 -197 -47 -24 -47 -19 -129 11 -170 28 -37 28 -42 -3 -34 -19 5 -24 3 -20 -8 13 -32 114 -54 185 -39 l45 9 -45 2 c-35 1 -41 3 -25 10 16 7 12 9 -18 9 -51 1 -72 14 -103 62 -35 57 -40 108 -13 153 27 47 46 56 111 56 65 0 108 -24 131 -73 28 -58 18 -108 -31 -161 -23 -25 -24 -27 -5 -17 12 6 31 23 42 37 12 15 21 22 21 16 0 -6 -4 -13 -10 -17 -5 -3 -7 -12 -4 -20 7 -17 -27 -142 -63 -235 -26 -68 -28 -70 -87 -96 -76 -33 -217 -44 -302 -24 -45 11 -63 22 -97 60 -47 52 -127 166 -175 246 l-30 52 23 4 c17 4 29 -4 48 -28 26 -31 26 -32 4 -28 -12 2 -2 -3 23 -12 75 -25 206 1 198 40 -1 6 3 21 10 33 13 23 29 122 19 112 -4 -3 -9 -23 -12 -45 -9 -72 -69 -127 -138 -127 -50 0 -80 19 -115 71 -44 67 -44 155 1 199 21 21 92 28 140 13 49 -16 73 -34 98 -75 11 -16 19 -25 19 -20 0 6 -9 25 -20 43 -54 88 -217 109 -266 34 -19 -29 -24 -97 -10 -147 4 -16 4 -27 0 -23 -4 4 -14 3 -21 -4 -11 -9 -17 -9 -24 3 -12 20 -11 40 10 164 11 61 22 141 26 178 6 53 15 79 39 115 36 54 163 156 221 176 54 19 171 20 226 1z"/>
 <path d="M422 1170 c0 -19 2 -27 5 -17 2 9 2 25 0 35 -3 9 -5 1 -5 -18z"/>
 <path d="M877 1319 c-21 -17 -21 -19 -7 -46 36 -65 142 -100 207 -69 66 32 80 136 17 136 -15 0 -43 -5 -64 -11 -26 -8 -51 -8 -84 -1 -40 8 -50 7 -69 -9z m241 -11 c3 -15 -4 -18 -40 -18 -48 0 -84 15 -58 24 8 2 22 7 30 10 29 10 65 1 68 -16z m-138 -8 c22 -11 59 -20 85 -20 33 0 45 -4 42 -12 -2 -7 -11 -11 -18 -8 -8 2 -57 5 -109 6 -95 2 -109 7 -96 39 8 21 50 19 96 -5z m85 -52 c30 -13 32 -24 6 -38 -28 -15 -68 -12 -109 7 -48 22 -49 22 -32 33 21 13 104 12 135 -2z"/>
 <path d="M960 1145 c-24 -13 -21 -14 40 -14 61 0 64 1 40 14 -14 8 -32 14 -40 14 -8 0 -26 -6 -40 -14z"/>
 </g>
<g id="layer113" fill="#322a2b" stroke="none">
 <path d="M550 1939 c-54 -65 -82 -115 -111 -194 l-18 -50 -2 35 c-1 26 -3 29 -6 12 -7 -36 -28 -37 -88 -2 -41 24 -63 45 -86 83 -24 42 -28 46 -23 22 3 -16 13 -40 21 -53 19 -31 88 -79 124 -87 16 -4 29 -12 29 -19 0 -7 -9 -71 -20 -142 -57 -375 -48 -791 21 -1004 85 -259 281 -445 485 -458 40 -2 93 0 117 6 34 9 53 8 92 -3 240 -73 438 104 529 471 43 173 51 247 50 494 0 254 -19 410 -69 567 l-22 71 36 7 c20 4 55 18 79 31 44 26 106 100 96 115 -3 5 0 9 6 9 6 0 8 5 5 11 -4 5 -21 -13 -38 -42 -33 -55 -98 -99 -164 -112 -30 -6 -32 -4 -52 46 -12 29 -30 63 -41 77 -18 23 -20 23 -20 5 0 -12 -16 9 -38 50 -62 115 -62 115 -108 115 l-41 0 -7 -77 c-3 -43 -10 -103 -15 -133 -5 -30 -7 -102 -4 -160 6 -118 -3 -154 -42 -172 -14 -6 -24 -15 -23 -19 2 -4 28 -27 59 -52 54 -44 57 -48 82 -139 37 -135 47 -200 46 -307 -1 -76 -3 -86 -8 -49 -8 57 -35 95 -87 125 -108 62 -220 -9 -211 -134 4 -56 38 -119 70 -129 10 -3 16 -8 14 -11 -3 -2 -19 3 -37 12 -45 23 -62 12 -20 -13 43 -27 102 -35 160 -23 l45 9 -45 2 c-35 1 -41 3 -25 10 16 7 12 9 -18 9 -51 1 -72 14 -103 62 -35 57 -40 108 -13 153 27 47 46 56 111 56 65 0 108 -24 131 -73 28 -58 18 -108 -31 -161 -23 -25 -24 -27 -5 -17 12 6 31 23 42 37 12 15 21 22 21 16 0 -6 -4 -13 -9 -16 -4 -3 -6 -16 -4 -28 5 -27 -36 -173 -71 -251 -22 -51 -28 -56 -82 -78 -50 -20 -78 -23 -184 -24 -84 0 -136 4 -157 14 -41 17 -158 167 -236 302 l-27 47 24 4 c18 4 30 -3 49 -28 26 -31 26 -32 4 -28 -12 2 -2 -3 23 -12 61 -20 132 -13 158 16 9 10 11 10 7 2 -6 -11 -3 -12 14 -2 12 6 21 16 19 23 -1 7 3 22 10 34 13 23 29 122 19 112 -4 -3 -9 -23 -12 -45 -9 -72 -69 -127 -138 -127 -50 0 -80 19 -115 71 -44 67 -44 155 1 199 21 21 92 28 140 13 49 -16 73 -34 98 -75 11 -16 19 -25 19 -20 0 6 -9 25 -20 43 -54 88 -217 109 -266 34 -19 -29 -24 -97 -10 -147 4 -16 4 -27 0 -23 -4 4 -14 3 -21 -4 -11 -9 -17 -9 -24 3 -13 21 -11 62 10 179 10 58 22 142 26 188 7 79 9 84 50 130 24 27 62 61 84 76 23 16 41 32 41 36 0 4 -11 12 -25 18 -16 7 -35 34 -53 74 -18 40 -38 68 -55 77 -19 10 -27 22 -27 40 0 51 29 217 49 281 12 36 21 66 21 68 0 1 -25 2 -55 2 -54 0 -54 0 -105 -61z m26 -141 c-73 -172 -112 -413 -95 -597 11 -124 60 -307 109 -409 75 -157 253 -385 345 -442 79 -49 138 -42 170 20 18 34 15 33 50 20 39 -15 88 12 124 69 41 63 105 261 130 401 34 187 27 316 -33 630 -14 69 -27 148 -31 175 l-6 50 19 -45 c10 -25 31 -65 46 -89 16 -25 34 -58 42 -75 l13 -31 1 49 c0 27 -11 105 -25 174 -14 68 -24 127 -21 129 6 7 51 -94 80 -181 15 -44 36 -129 49 -188 12 -59 25 -108 30 -108 7 0 6 39 -9 200 -6 75 10 46 31 -55 37 -182 60 -593 35 -650 -8 -17 -9 -16 -11 10 -1 17 -5 -28 -9 -100 -15 -261 -74 -435 -191 -559 -97 -104 -198 -135 -326 -102 -51 12 -73 13 -118 4 -121 -24 -255 30 -376 151 -149 149 -215 349 -238 719 -10 159 -1 338 25 537 l19 140 5 -95 c6 -102 9 -102 34 3 8 37 26 94 39 126 27 66 116 215 124 207 3 -3 -11 -42 -31 -88z"/>
 <path d="M422 1170 c0 -19 2 -27 5 -17 2 9 2 25 0 35 -3 9 -5 1 -5 -18z"/>
 <path d="M911 1978 c1 -30 -44 -154 -65 -177 -15 -17 -14 -21 16 -62 l31 -43 47 52 c26 29 53 52 61 52 8 0 33 -23 57 -50 24 -28 46 -50 50 -50 4 0 19 19 34 42 26 42 27 43 9 63 -10 11 -19 35 -19 53 0 18 -10 49 -21 68 -12 19 -21 44 -21 55 0 17 -8 19 -90 19 -87 0 -90 -1 -89 -22z"/>
 <path d="M1035 1330 c-11 -5 -49 -6 -85 -3 -54 4 -68 2 -80 -12 -31 -37 44 -108 127 -121 60 -9 109 14 128 61 22 50 6 85 -37 84 -18 0 -42 -4 -53 -9z m83 -22 c3 -15 -4 -18 -40 -18 -24 0 -50 5 -58 10 -12 7 -10 11 10 19 38 15 84 9 88 -11z m-131 -8 c21 -11 57 -20 81 -20 31 0 42 -4 39 -12 -2 -7 -11 -11 -18 -8 -8 2 -57 5 -108 5 -96 2 -110 8 -97 40 8 21 59 19 103 -5z m78 -52 c30 -13 32 -24 6 -38 -28 -15 -68 -12 -109 7 -48 22 -49 22 -32 33 21 13 104 12 135 -2z"/>
 </g>
<g id="layer114" fill="#362016" stroke="none">
 <path d="M550 1939 c-54 -65 -82 -115 -111 -194 l-18 -50 -2 35 c-1 26 -3 29 -6 12 -7 -36 -28 -37 -88 -2 -41 24 -63 45 -86 83 -24 42 -28 46 -23 22 3 -16 13 -40 21 -53 19 -31 88 -79 124 -87 16 -4 29 -12 29 -19 0 -7 -9 -71 -20 -142 -57 -375 -48 -791 21 -1004 85 -259 281 -445 485 -458 40 -2 93 0 117 6 34 9 53 8 92 -3 240 -73 438 104 529 471 43 173 51 247 50 494 0 254 -19 410 -69 567 l-22 71 36 7 c20 4 55 18 79 31 44 26 106 100 96 115 -3 5 0 9 6 9 6 0 8 5 5 11 -4 5 -21 -13 -38 -42 -33 -55 -98 -99 -164 -112 -30 -6 -32 -4 -52 46 -12 29 -30 63 -41 77 -18 23 -20 23 -20 5 0 -12 -16 9 -38 50 -62 115 -62 115 -108 115 l-41 0 -7 -77 c-3 -43 -10 -103 -15 -133 -5 -30 -7 -102 -4 -160 6 -118 -3 -154 -42 -172 -14 -6 -24 -15 -23 -19 2 -4 28 -27 59 -52 54 -44 57 -48 82 -139 37 -135 47 -200 46 -307 -1 -74 -3 -86 -8 -51 -8 53 -20 78 -52 105 -20 17 -20 16 3 -12 50 -62 48 -129 -5 -190 -25 -29 -27 -34 -10 -25 12 7 31 24 42 38 12 15 21 22 21 16 0 -6 -4 -13 -9 -16 -4 -3 -6 -16 -4 -28 5 -27 -36 -173 -71 -251 -22 -51 -28 -56 -82 -78 -50 -20 -78 -23 -184 -24 -84 0 -136 4 -158 14 -21 9 -56 46 -101 105 -79 103 -173 255 -165 268 8 13 24 9 21 -4 -1 -7 6 -13 15 -13 16 0 54 -40 57 -60 1 -5 13 -8 28 -7 14 2 23 0 20 -5 -9 -15 82 -6 108 11 14 9 31 14 37 10 6 -4 8 -3 5 3 -3 5 5 31 18 58 14 27 25 62 25 78 0 40 -8 30 -14 -16 -6 -47 -18 -69 -56 -101 -87 -72 -195 -20 -230 112 -9 36 -8 49 9 87 24 54 55 69 128 62 65 -7 105 -30 132 -76 11 -20 21 -31 21 -26 0 21 -41 76 -71 94 -43 26 -119 36 -165 21 -29 -10 -40 -22 -56 -57 -19 -43 -19 -74 -1 -138 3 -11 2 -17 -2 -13 -5 4 -15 3 -22 -4 -11 -9 -17 -9 -24 3 -13 21 -11 62 10 179 10 58 22 142 26 188 7 79 9 84 50 130 24 27 62 61 84 76 23 16 41 32 41 36 0 4 -11 12 -25 18 -16 7 -35 34 -53 74 -18 40 -38 68 -55 77 -19 10 -27 22 -27 40 0 51 29 217 49 281 12 36 21 66 21 68 0 1 -25 2 -55 2 -54 0 -54 0 -105 -61z m26 -141 c-73 -172 -112 -413 -95 -597 11 -124 60 -307 109 -409 75 -157 253 -385 345 -442 79 -49 138 -42 170 20 18 34 15 33 50 20 39 -15 88 12 124 69 41 63 105 261 130 401 34 187 27 316 -33 630 -14 69 -27 148 -31 175 l-6 50 19 -45 c10 -25 31 -65 46 -89 16 -25 34 -58 42 -75 l13 -31 1 49 c0 27 -11 105 -25 174 -14 68 -24 127 -21 129 6 7 51 -94 80 -181 15 -44 36 -129 49 -188 12 -59 25 -108 30 -108 7 0 6 39 -9 200 -6 75 10 46 31 -55 37 -182 60 -593 35 -650 -8 -17 -9 -16 -11 10 -1 17 -5 -28 -9 -100 -15 -261 -74 -435 -191 -559 -97 -104 -198 -135 -326 -102 -51 12 -73 13 -118 4 -121 -24 -255 30 -376 151 -149 149 -215 349 -238 719 -10 159 -1 338 25 537 l19 140 5 -95 c6 -102 9 -102 34 3 8 37 26 94 39 126 27 66 116 215 124 207 3 -3 -11 -42 -31 -88z"/>
 <path d="M422 1170 c0 -19 2 -27 5 -17 2 9 2 25 0 35 -3 9 -5 1 -5 -18z"/>
 <path d="M911 1978 c1 -30 -44 -154 -65 -177 -15 -17 -14 -21 16 -62 l31 -43 47 52 c26 29 53 52 60 52 7 0 35 -24 61 -52 52 -58 51 -59 92 12 14 23 13 27 -9 53 -15 17 -29 25 -37 21 -9 -6 -9 -4 -1 7 6 8 15 25 19 38 5 18 4 22 -5 16 -9 -5 -11 -4 -6 4 4 6 1 23 -8 36 -9 13 -16 33 -16 45 0 19 -6 20 -90 20 -87 0 -90 -1 -89 -22z"/>
 <path d="M1035 1330 c-11 -5 -50 -6 -87 -3 -61 5 -67 4 -78 -17 -25 -46 51 -108 142 -115 l53 -4 -45 8 c-50 10 -101 34 -101 47 0 5 29 12 63 15 62 6 61 6 -17 5 -79 -1 -80 -1 -80 24 0 21 5 26 31 28 19 2 48 -6 70 -17 22 -12 57 -21 82 -21 31 0 42 -4 39 -12 -2 -7 -15 -12 -28 -10 -23 2 -23 2 -5 -12 17 -13 17 -18 5 -33 -13 -17 -13 -17 11 -2 32 21 51 75 37 106 -11 25 -52 30 -92 13z m83 -22 c3 -15 -4 -18 -40 -18 -24 0 -50 5 -58 10 -12 7 -10 11 10 19 38 15 84 9 88 -11z"/>
 <path d="M1150 1022 c-41 -20 -70 -71 -70 -123 0 -39 23 -103 41 -114 5 -4 8 -13 5 -21 -3 -8 0 -11 8 -8 7 3 20 -1 27 -9 8 -7 20 -12 27 -9 7 2 22 -4 33 -14 15 -13 22 -15 31 -6 9 9 7 12 -7 12 -15 0 -16 3 -7 9 9 5 2 8 -19 9 -36 1 -72 24 -103 66 -16 21 -21 42 -21 88 0 55 3 62 33 89 28 25 40 29 95 29 44 0 58 3 47 10 -24 15 -82 12 -120 -8z"/>
 </g>
<g id="layer115" fill="#16162b" stroke="none">
 <path d="M917 1981 c3 -10 -2 -32 -10 -47 -8 -16 -17 -45 -21 -64 -3 -19 -16 -44 -27 -56 l-21 -22 26 -41 c15 -23 31 -41 36 -41 5 0 26 22 46 49 31 41 44 51 78 57 68 11 94 29 92 64 0 16 -4 30 -8 30 -5 0 -8 9 -8 19 0 11 -4 22 -9 25 -5 3 -7 15 -4 26 5 19 0 20 -85 20 -83 0 -90 -1 -85 -19z"/>
 <path d="M1095 1825 c-11 -8 -30 -15 -42 -15 -13 0 -23 -5 -23 -11 0 -15 59 -89 71 -89 5 0 20 19 35 41 l26 42 -24 23 c-22 22 -26 23 -43 9z"/>
 <path d="M872 1313 c-20 -38 30 -94 94 -108 23 -5 20 -2 -14 15 -23 11 -40 25 -37 30 4 6 -1 10 -9 10 -8 0 -20 9 -26 19 -8 16 -6 23 12 35 18 13 19 16 6 16 -10 0 -21 -8 -26 -17z"/>
 <path d="M983 1304 c16 -9 31 -13 35 -10 3 3 0 6 -7 6 -7 0 -9 5 -6 10 4 6 -6 10 -22 10 l-28 -1 28 -15z"/>
 <path d="M1075 1289 l-50 -6 43 -1 c30 -2 42 -6 39 -14 -2 -7 -15 -12 -28 -10 -23 2 -23 2 -4 -12 17 -12 18 -16 5 -32 -14 -16 -13 -16 8 -5 23 12 45 55 40 75 -2 7 -21 9 -53 5z"/>
 <path d="M958 1263 c17 -2 47 -2 65 0 17 2 3 4 -33 4 -36 0 -50 -2 -32 -4z"/>
 <path d="M701 1037 c-40 -14 -67 -49 -75 -97 -6 -31 -4 -29 18 18 29 62 57 76 133 69 65 -7 105 -30 132 -76 11 -20 21 -31 21 -25 0 23 -46 78 -80 95 -48 23 -108 30 -149 16z"/>
 <path d="M1150 1020 c-36 -18 -69 -64 -57 -77 4 -3 7 1 7 9 0 9 14 28 31 42 25 22 41 26 92 27 44 0 56 3 42 9 -33 14 -78 10 -115 -10z"/>
 <path d="M1361 932 c16 -46 3 -96 -34 -139 -23 -26 -26 -33 -11 -25 11 6 26 18 33 26 8 9 16 14 20 12 4 -3 8 23 9 57 2 44 -2 68 -12 82 -15 19 -15 18 -5 -13z"/>
 <path d="M1080 898 c0 -23 3 -29 9 -19 8 12 4 51 -5 51 -2 0 -4 -15 -4 -32z"/>
 <path d="M636 867 c3 -25 2 -37 -5 -33 -5 4 -12 2 -16 -4 -3 -5 -1 -10 5 -10 6 0 8 -4 5 -10 -3 -5 2 -10 13 -10 10 0 28 -13 40 -29 14 -20 39 -34 74 -45 50 -14 55 -14 94 4 39 19 85 80 84 111 -1 8 -7 0 -14 -16 -7 -17 -28 -43 -45 -58 -84 -71 -186 -28 -227 96 l-14 42 6 -38z"/>
 <path d="M1090 852 c0 -19 25 -64 47 -84 11 -10 35 -20 54 -23 33 -5 33 -5 5 4 -37 13 -75 48 -92 86 -7 17 -13 24 -14 17z"/>
 </g>
<g id="layer116" fill="#110e0d" stroke="none">
 <path d="M917 1981 c3 -10 -2 -32 -10 -47 -8 -16 -17 -45 -21 -64 -3 -19 -16 -44 -27 -56 l-21 -22 26 -41 c15 -23 31 -41 36 -41 5 0 26 22 46 49 31 41 44 51 78 57 55 9 99 32 92 49 -2 7 -8 30 -12 49 -3 20 -10 38 -14 41 -5 3 -6 14 -3 25 5 19 0 20 -85 20 -83 0 -90 -1 -85 -19z"/>
 <path d="M1090 1820 c-8 -5 -25 -10 -37 -10 -13 0 -23 -5 -23 -11 0 -15 59 -89 71 -89 5 0 20 18 35 41 24 39 25 42 8 60 -19 21 -32 23 -54 9z"/>
 <path d="M872 1313 c-20 -38 30 -94 94 -108 23 -5 20 -2 -14 15 -23 11 -40 25 -37 30 4 6 -1 10 -9 10 -8 0 -20 9 -26 19 -8 16 -6 23 12 35 18 13 19 16 6 16 -10 0 -21 -8 -26 -17z"/>
 <path d="M983 1304 c16 -9 31 -13 35 -10 3 3 0 6 -7 6 -7 0 -9 5 -6 10 4 6 -6 10 -22 10 l-28 -1 28 -15z"/>
 <path d="M1075 1289 l-50 -6 43 -1 c30 -2 42 -6 39 -14 -2 -7 -15 -12 -28 -10 -23 2 -23 2 -4 -12 17 -12 18 -16 5 -32 -14 -16 -13 -16 8 -5 23 12 45 55 40 75 -2 7 -21 9 -53 5z"/>
 <path d="M958 1263 c17 -2 47 -2 65 0 17 2 3 4 -33 4 -36 0 -50 -2 -32 -4z"/>
 <path d="M701 1037 c-40 -14 -67 -48 -76 -97 -6 -31 -3 -29 19 18 27 55 52 72 109 72 54 0 105 -19 138 -53 23 -22 29 -25 21 -10 -19 34 -66 62 -123 73 -28 6 -52 10 -53 9 0 0 -16 -5 -35 -12z"/>
 <path d="M1155 1023 c-16 -8 -38 -25 -47 -37 -29 -36 -20 -36 16 0 31 31 39 34 98 35 44 0 57 3 43 9 -31 13 -77 11 -110 -7z"/>
 <path d="M1362 928 c14 -48 -1 -104 -39 -143 -23 -23 -24 -26 -6 -17 40 22 63 62 63 111 0 26 -7 56 -15 67 -13 17 -13 15 -3 -18z"/>
 <path d="M1080 898 c0 -23 3 -29 9 -19 8 12 4 51 -5 51 -2 0 -4 -15 -4 -32z"/>
 <path d="M631 885 c-1 -25 41 -116 61 -133 8 -6 36 -18 62 -26 43 -13 49 -12 88 8 40 20 88 75 88 100 0 6 -10 -6 -22 -27 -29 -49 -94 -82 -145 -72 -48 9 -98 62 -117 123 -8 26 -15 38 -15 27z"/>
 <path d="M1090 852 c0 -29 52 -102 74 -102 6 0 -2 12 -18 26 -15 15 -34 41 -42 58 -7 17 -13 25 -14 18z"/>
 </g>

</svg>