<!DOCTYPE svg PUBLIC "-//W3C//DTD SVG 20010904//EN" "http://www.w3.org/TR/2001/REC-SVG-20010904/DTD/svg10.dtd">
<svg version="1.0" xmlns="http://www.w3.org/2000/svg" width="200px" height="200px" viewBox="0 0 2000 2000" preserveAspectRatio="xMidYMid meet">
<g id="layer101" fill="#ebeae9" stroke="none">
 <path d="M174 1954 c15 -114 93 -220 178 -246 21 -6 38 -17 38 -23 0 -7 -9 -70 -20 -141 -57 -375 -48 -791 21 -1004 85 -259 281 -445 485 -458 40 -2 93 0 117 6 34 9 53 8 92 -3 255 -77 459 123 545 538 62 298 47 737 -35 994 l-22 71 36 7 c50 9 115 49 146 90 31 39 60 112 70 173 l7 42 -832 0 -833 0 7 -46z"/>
 </g>
<g id="layer102" fill="#dedbd8" stroke="none">
 <path d="M174 1954 c15 -114 93 -220 178 -246 21 -6 38 -17 38 -23 0 -7 -9 -70 -20 -141 -57 -375 -48 -791 21 -1004 85 -259 281 -445 485 -458 40 -2 93 0 117 6 34 9 53 8 92 -3 255 -77 459 123 545 538 62 298 47 737 -35 994 l-22 71 36 7 c50 9 115 49 146 90 31 39 60 112 70 173 l7 42 -832 0 -833 0 7 -46z m873 -644 c37 -22 65 -64 36 -53 -16 6 -16 4 2 -16 l19 -22 -29 11 c-17 6 -62 12 -102 13 -80 2 -83 17 -5 28 l47 6 -52 2 c-62 1 -67 13 -15 34 49 21 61 21 99 -3z m-329 -380 c-19 -27 -21 -34 -11 -61 12 -31 12 -31 -7 -14 -11 10 -20 28 -20 39 0 28 27 66 46 66 11 0 9 -7 -8 -30z m586 8 c22 -30 20 -61 -4 -83 -19 -17 -19 -17 -7 14 10 27 8 34 -11 61 -17 23 -19 30 -8 30 8 0 22 -10 30 -22z"/>
 </g>
<g id="layer103" fill="#b6b2af" stroke="none">
 <path d="M174 1954 c15 -114 93 -220 178 -246 21 -6 38 -17 38 -23 0 -7 -9 -70 -20 -141 -57 -375 -48 -791 21 -1004 85 -259 281 -445 485 -458 40 -2 93 0 117 6 34 9 53 8 92 -3 255 -77 459 123 545 538 62 298 47 737 -35 994 l-22 71 36 7 c50 9 115 49 146 90 31 39 60 112 70 173 l7 42 -832 0 -833 0 7 -46z m859 -633 c14 -6 35 -20 46 -32 23 -25 29 -55 9 -43 -8 5 -7 0 2 -11 14 -17 13 -18 -5 -10 -11 4 -60 11 -109 14 -70 5 -86 8 -75 18 8 6 32 13 54 16 39 4 39 4 -8 5 -54 2 -55 15 -3 38 37 16 57 17 89 5z m-306 -379 c-22 -24 -22 -80 1 -105 16 -19 16 -20 -5 -8 -37 19 -53 50 -42 79 14 36 28 52 47 52 13 0 13 -2 -1 -18z m148 -12 c9 -17 13 -39 10 -49 -7 -22 -45 -59 -45 -43 0 6 5 14 10 17 15 9 12 58 -6 83 -13 20 -13 22 0 22 9 0 23 -14 31 -30z m281 8 c-19 -26 -20 -60 -5 -91 8 -17 5 -16 -15 6 -20 22 -25 35 -20 55 8 34 22 52 41 52 12 0 12 -3 -1 -22z m148 0 c30 -43 18 -84 -33 -113 -11 -6 -10 -2 2 16 22 30 22 77 0 101 -14 16 -15 18 0 18 9 0 23 -10 31 -22z m-466 -70 c-2 -13 -11 -24 -20 -26 -21 -4 -24 18 -6 36 19 19 30 14 26 -10z m432 -13 c-7 -8 -16 -15 -21 -15 -14 0 -11 38 4 43 20 7 31 -11 17 -28z"/>
 </g>
<g id="layer104" fill="#999390" stroke="none">
 <path d="M174 1954 c15 -114 93 -220 178 -246 21 -6 38 -17 38 -23 0 -7 -9 -70 -20 -141 -57 -375 -48 -791 21 -1004 85 -259 281 -445 485 -458 40 -2 93 0 117 6 34 9 53 8 92 -3 255 -77 459 123 545 538 62 298 47 737 -35 994 l-22 71 36 7 c50 9 115 49 146 90 31 39 60 112 70 173 l7 42 -832 0 -833 0 7 -46z m869 -635 c32 -16 57 -50 57 -78 0 -18 -4 -22 -17 -15 -10 4 -57 9 -104 12 l-87 4 7 26 c12 47 95 76 144 51z m-178 -369 c8 -9 18 -30 21 -48 5 -26 1 -36 -24 -62 -17 -16 -38 -30 -47 -30 -13 0 -11 5 7 23 13 12 19 19 14 15 -30 -23 -50 8 -21 32 12 10 18 10 30 0 23 -19 20 22 -5 53 -11 14 -20 27 -20 29 0 11 32 3 45 -12z m315 12 c0 -5 -9 -17 -20 -27 -30 -27 -26 -69 11 -99 22 -18 26 -26 14 -26 -9 0 -30 14 -47 30 -25 26 -29 36 -24 62 3 18 14 40 23 50 17 19 43 24 43 10z m-450 -22 c-35 -35 -23 -92 25 -118 18 -10 18 -11 2 -12 -28 0 -75 28 -82 49 -11 36 24 101 56 101 18 0 18 -1 -1 -20z m574 -2 c28 -44 29 -71 1 -100 -16 -18 -36 -28 -53 -28 l-27 1 25 14 c19 11 21 14 8 15 -11 0 -18 8 -18 19 0 28 21 37 37 16 12 -17 13 -17 13 10 0 16 -10 39 -22 52 l-21 23 21 0 c12 0 28 -10 36 -22z"/>
 </g>
<g id="layer105" fill="#897a72" stroke="none">
 <path d="M174 1954 c15 -114 93 -220 178 -246 21 -6 38 -17 38 -23 0 -7 -9 -70 -20 -141 -57 -375 -48 -791 21 -1004 85 -259 281 -445 485 -458 40 -2 93 0 117 6 34 9 53 8 92 -3 255 -77 459 123 545 538 62 298 47 737 -35 994 l-22 71 36 7 c50 9 115 49 146 90 31 39 60 112 70 173 l7 42 -832 0 -833 0 7 -46z m873 -637 c56 -31 81 -109 29 -91 -11 4 -57 9 -102 11 l-81 4 6 31 c5 24 15 34 41 44 45 16 79 16 107 1z m-171 -382 c8 -19 14 -42 14 -50 0 -25 -55 -75 -82 -74 l-23 0 25 11 c21 9 22 12 8 15 -22 5 -23 26 -3 43 12 10 18 10 30 0 23 -19 20 22 -5 53 -25 31 -25 32 1 34 15 1 25 -8 35 -32z m304 27 c0 -5 -9 -17 -20 -27 -37 -34 -15 -98 40 -118 10 -3 7 -6 -8 -6 -27 -1 -82 49 -82 74 0 35 29 85 49 85 12 0 21 -4 21 -8z m-450 -24 c-35 -37 -24 -90 25 -116 18 -10 18 -11 2 -12 -28 0 -75 28 -82 49 -6 19 8 66 27 88 6 7 19 13 30 13 18 0 18 -1 -2 -22z m574 0 c29 -46 30 -75 2 -102 -15 -16 -36 -26 -53 -26 l-28 1 25 14 c18 10 20 14 8 15 -25 0 -32 20 -14 38 16 16 18 16 32 -2 13 -19 14 -18 14 9 0 16 -10 39 -22 52 l-21 23 21 0 c12 0 28 -10 36 -22z"/>
 </g>
<g id="layer106" fill="#8a6f5d" stroke="none">
 <path d="M174 1954 c15 -114 93 -220 178 -246 21 -6 38 -17 38 -23 0 -7 -9 -70 -20 -141 -57 -375 -48 -791 21 -1004 85 -259 281 -445 485 -458 40 -2 93 0 117 6 34 9 53 8 92 -3 255 -77 459 123 545 538 62 298 47 737 -35 994 l-22 71 36 7 c50 9 115 49 146 90 31 39 60 112 70 173 l7 42 -832 0 -833 0 7 -46z m870 -636 c31 -14 60 -55 61 -85 1 -13 1 -23 0 -23 0 0 -18 7 -40 15 -22 8 -70 14 -106 15 l-66 0 6 32 c5 24 14 34 41 44 45 16 73 17 104 2z m-307 -376 c-33 -34 -34 -68 -5 -99 22 -24 81 -32 93 -13 3 6 -1 10 -9 10 -18 0 -21 17 -7 39 5 8 16 11 31 6 19 -6 21 -4 15 17 -4 12 -14 30 -21 39 -19 22 -18 29 7 29 13 0 25 -11 35 -35 20 -49 18 -63 -15 -96 -26 -25 -37 -29 -86 -29 -47 0 -60 4 -82 26 -20 20 -24 32 -19 57 6 35 47 77 73 77 13 0 11 -6 -10 -28z m443 20 c0 -5 -9 -17 -20 -27 -43 -39 -7 -115 55 -115 40 0 50 9 27 26 -16 12 -16 14 1 31 18 17 19 17 33 -1 13 -19 14 -19 14 6 0 15 -12 40 -26 57 -17 20 -21 31 -12 31 44 0 90 -79 68 -119 -16 -30 -42 -41 -100 -41 -44 0 -56 5 -81 29 -33 33 -35 47 -15 96 10 24 22 35 35 35 12 0 21 -4 21 -8z"/>
 </g>
<g id="layer107" fill="#6f615c" stroke="none">
 <path d="M174 1954 c15 -114 93 -220 178 -246 21 -6 38 -17 38 -23 0 -7 -9 -70 -20 -141 -57 -375 -48 -791 21 -1004 85 -259 281 -445 485 -458 40 -2 93 0 117 6 34 9 53 8 92 -3 255 -77 459 123 545 538 62 298 47 737 -35 994 l-22 71 36 7 c50 9 115 49 146 90 31 39 60 112 70 173 l7 42 -832 0 -833 0 7 -46z m899 -659 c36 -37 48 -92 17 -79 -35 14 -89 24 -141 24 l-56 0 6 30 c7 37 41 58 98 59 36 1 47 -4 76 -34z m-336 -353 c-33 -34 -34 -68 -5 -99 22 -24 81 -32 93 -13 3 6 -1 10 -9 10 -18 0 -21 17 -7 39 5 8 16 11 31 6 19 -6 21 -4 15 17 -4 12 -17 33 -28 46 l-20 22 27 0 c21 0 30 -7 42 -35 20 -49 18 -63 -15 -96 -26 -25 -37 -29 -86 -29 -47 0 -60 4 -82 26 -20 20 -24 32 -19 57 6 35 47 77 73 77 13 0 11 -6 -10 -28z m433 3 c-47 -50 -19 -125 46 -125 18 0 36 5 39 10 3 6 -1 10 -9 10 -21 0 -20 24 0 41 14 11 18 10 30 -6 13 -18 14 -17 14 7 0 15 -12 40 -26 57 -17 20 -21 31 -12 31 44 0 90 -79 68 -119 -16 -30 -42 -41 -100 -41 -44 0 -56 5 -81 29 -33 33 -35 47 -15 96 12 28 21 35 42 35 l27 0 -23 -25z"/>
 </g>
<g id="layer108" fill="#6a514a" stroke="none">
 <path d="M174 1954 c15 -114 93 -220 178 -246 21 -6 38 -17 38 -23 0 -7 -9 -70 -20 -141 -57 -375 -48 -791 21 -1004 85 -259 281 -445 485 -458 40 -2 93 0 117 6 34 9 53 8 92 -3 255 -77 459 123 545 538 62 298 47 737 -35 994 l-22 71 36 7 c50 9 115 49 146 90 31 39 60 112 70 173 l7 42 -832 0 -833 0 7 -46z m899 -659 c21 -21 35 -46 35 -60 0 -14 -1 -25 -2 -25 0 0 -23 7 -50 15 -27 8 -75 15 -106 15 l-57 0 6 30 c7 37 41 58 98 59 36 1 47 -4 76 -34z m-334 -354 c-34 -35 -36 -59 -8 -95 21 -27 61 -34 89 -16 13 8 12 10 -3 10 -13 0 -17 6 -15 23 2 16 9 22 26 21 32 -1 29 39 -5 65 l-28 20 33 1 c27 0 35 -5 49 -34 27 -58 3 -107 -62 -125 -62 -17 -145 17 -145 59 0 56 34 98 82 99 12 1 9 -6 -13 -28z m439 8 c-33 -24 -38 -81 -11 -111 17 -19 78 -25 88 -8 3 6 -1 10 -9 10 -9 0 -16 6 -16 14 0 20 27 39 45 32 26 -9 17 23 -14 55 -30 30 -22 37 21 20 16 -6 29 -23 38 -50 11 -35 11 -43 -3 -65 -22 -33 -79 -49 -129 -36 -68 19 -93 67 -65 126 14 29 22 34 49 34 l33 -1 -27 -20z"/>
 </g>
<g id="layer109" fill="#6d4031" stroke="none">
 <path d="M174 1954 c15 -114 93 -220 178 -246 21 -6 38 -17 38 -23 0 -7 -9 -70 -20 -141 -57 -375 -48 -791 21 -1004 85 -259 281 -445 485 -458 40 -2 93 0 117 6 34 9 53 8 92 -3 255 -77 459 123 545 538 62 298 47 737 -35 994 l-22 71 36 7 c50 9 115 49 146 90 31 39 60 112 70 173 l7 42 -832 0 -833 0 7 -46z m878 -636 c31 -15 50 -43 54 -80 2 -16 3 -28 1 -28 -1 0 -24 7 -51 15 -27 8 -75 15 -106 15 l-57 0 6 30 c10 52 92 77 153 48z m-177 -378 c8 -16 15 -36 15 -44 0 -81 -123 -121 -195 -64 -28 22 -30 39 -14 87 14 40 36 50 116 50 59 1 63 0 78 -29z m431 6 c24 -34 28 -84 9 -106 -31 -34 -91 -44 -142 -25 -64 25 -79 65 -47 127 l16 30 75 -4 c59 -3 78 -7 89 -22z"/>
 <path d="M739 940 c-19 -16 -20 -19 -5 -13 13 4 17 2 14 -8 -3 -8 -12 -13 -22 -11 -25 4 -20 -35 9 -63 13 -14 35 -25 49 -25 21 0 24 4 22 33 -1 26 3 33 22 35 27 4 28 26 2 52 -26 26 -61 26 -91 0z"/>
 <path d="M1174 945 c-11 -8 -14 -15 -6 -15 6 0 12 -7 12 -15 0 -18 -16 -20 -23 -2 -3 6 -6 -3 -6 -20 -1 -39 28 -73 63 -73 27 0 43 16 24 23 -20 7 6 42 30 41 26 -1 21 34 -9 59 -26 21 -59 22 -85 2z"/>
 </g>
<g id="layer110" fill="#5c453b" stroke="none">
 <path d="M174 1954 c15 -114 93 -220 178 -246 21 -6 38 -17 38 -23 0 -7 -9 -70 -20 -141 -57 -375 -48 -791 21 -1004 85 -259 281 -445 485 -458 40 -2 93 0 117 6 34 9 53 8 92 -3 255 -77 459 123 545 538 62 298 47 737 -35 994 l-22 71 36 7 c50 9 115 49 146 90 45 58 93 215 66 215 -6 0 -11 -6 -11 -14 0 -8 -4 -17 -9 -20 -5 -4 -7 3 -4 14 5 20 2 20 -812 20 l-818 0 7 -46z m65 -73 c15 -25 30 -54 34 -63 3 -9 19 -25 34 -35 15 -10 30 -21 33 -25 3 -4 18 -11 33 -17 15 -6 27 -15 27 -21 0 -22 -99 29 -133 69 -27 33 -68 130 -66 159 1 14 2 14 6 -2 3 -10 17 -39 32 -65z m1541 -5 c-12 -31 -33 -69 -46 -85 -26 -32 -116 -81 -147 -81 -27 0 -12 17 22 23 16 3 35 12 42 19 8 7 27 21 42 31 15 10 31 26 34 35 4 9 9 19 12 22 6 5 43 79 47 93 1 4 2 10 4 15 1 4 4 2 6 -4 3 -6 -5 -37 -16 -68z m-1056 -98 c-22 -43 -75 -110 -82 -104 -6 7 80 135 91 136 4 0 0 -15 -9 -32z m-39 -163 c47 -46 44 -53 -5 -14 -22 18 -40 36 -40 41 0 14 10 9 45 -27z m395 -315 c36 -39 40 -95 6 -85 -54 15 -144 26 -181 20 -31 -5 -36 -3 -22 5 9 6 17 22 17 35 0 35 36 55 98 55 47 0 58 -4 82 -30z m-212 -343 c39 -47 20 -118 -40 -142 -64 -25 -158 7 -158 54 0 35 23 83 44 91 33 14 142 12 154 -3z m438 -11 c24 -34 28 -84 9 -106 -31 -34 -91 -44 -142 -25 -64 25 -79 65 -47 127 l16 30 75 -4 c59 -3 78 -7 89 -22z"/>
 <path d="M739 940 c-19 -16 -20 -19 -5 -13 13 4 17 2 14 -8 -3 -8 -12 -13 -22 -11 -25 4 -20 -35 9 -63 13 -14 35 -25 49 -25 21 0 24 4 22 33 -1 26 3 33 22 35 25 4 27 14 11 43 -6 12 -17 18 -25 15 -9 -3 -12 -1 -9 4 11 18 -43 10 -66 -10z"/>
 <path d="M1174 945 c-11 -8 -14 -15 -6 -15 6 0 12 -7 12 -15 0 -18 -16 -20 -23 -2 -3 6 -6 -3 -6 -20 -1 -39 28 -73 63 -73 27 0 43 16 24 23 -20 7 6 42 30 41 26 -1 21 34 -9 59 -26 21 -59 22 -85 2z"/>
 </g>
<g id="layer111" fill="#443e43" stroke="none">
 <path d="M174 1954 c15 -114 93 -220 178 -246 21 -6 38 -17 38 -23 0 -7 -9 -70 -20 -141 -57 -375 -48 -791 21 -1004 85 -259 281 -445 485 -458 40 -2 93 0 117 6 34 9 53 8 92 -3 255 -77 459 123 545 538 62 298 47 737 -35 994 l-22 71 36 7 c50 9 115 49 146 90 31 39 60 112 70 173 10 62 -11 53 -24 -10 -25 -117 -75 -186 -164 -223 -69 -29 -86 -16 -20 15 33 17 76 47 94 67 32 37 72 115 84 166 l7 27 -800 0 c-754 0 -801 -1 -805 -17 -4 -17 -5 -17 -6 0 0 9 -6 17 -12 17 -8 0 -10 -15 -5 -46z m111 -142 c15 -18 47 -44 71 -58 48 -28 60 -49 19 -34 -84 32 -123 70 -154 155 -30 81 -26 100 7 30 16 -33 41 -75 57 -93z m446 -17 c-22 -49 -80 -129 -88 -121 -3 3 18 39 46 81 28 42 51 82 51 88 0 5 3 8 6 4 3 -3 -4 -26 -15 -52z m-40 -182 c41 -46 36 -60 -6 -19 -25 24 -45 47 -45 50 0 10 33 -10 51 -31z m802 -648 c2 -226 -9 -301 -67 -460 -31 -86 -20 -74 38 40 52 101 90 240 100 360 4 44 10 94 13 110 7 29 7 28 14 -15 4 -25 8 -119 8 -210 1 -210 -19 -316 -83 -445 -87 -176 -193 -259 -330 -259 -39 0 -88 5 -109 13 l-39 13 24 27 c19 22 17 21 -10 -4 -32 -29 -36 -30 -135 -30 -96 0 -106 2 -172 35 -98 49 -200 152 -248 250 -66 135 -98 279 -113 505 -7 111 1 123 17 24 19 -126 79 -271 161 -391 21 -32 40 -58 42 -58 2 0 -12 40 -30 88 -47 126 -79 243 -97 352 -22 132 -28 208 -17 190 5 -8 10 -23 10 -32 0 -36 64 -217 110 -314 153 -318 376 -518 484 -433 14 11 33 33 41 49 14 26 16 27 55 16 35 -9 47 -8 78 9 116 63 234 534 217 872 l-4 88 21 -90 c17 -75 21 -126 21 -300z m-425 348 c28 -25 57 -73 43 -73 -5 0 -8 -7 -4 -16 5 -13 8 -13 15 -2 7 10 8 9 4 -4 -3 -10 -1 -18 4 -18 6 0 10 -5 10 -12 0 -7 -6 -5 -17 4 -32 28 -96 42 -188 42 -49 0 -79 2 -65 6 18 4 26 14 28 33 2 15 13 34 25 42 30 21 119 20 145 -2z m-198 -358 c6 -8 14 -32 17 -54 5 -34 2 -43 -21 -64 -33 -30 -77 -40 -126 -27 -54 14 -74 41 -66 85 11 59 35 75 115 75 48 0 72 -4 81 -15z m429 -4 c30 -30 38 -87 16 -111 -27 -30 -87 -43 -135 -30 -51 14 -75 48 -67 96 9 56 21 64 98 64 55 0 73 -4 88 -19z"/>
 <path d="M739 940 l-24 -21 32 16 c41 20 56 19 76 -3 22 -24 11 -36 -15 -17 -23 15 -48 10 -48 -11 0 -8 -7 -14 -15 -14 -8 0 -15 5 -15 12 0 8 -3 9 -10 2 -26 -26 22 -84 68 -84 16 0 20 6 18 33 -1 26 3 33 22 35 27 4 28 22 2 50 -26 28 -61 28 -91 2z"/>
 <path d="M1174 944 c-19 -15 -19 -16 1 -9 42 15 61 16 79 2 29 -21 11 -41 -19 -21 -22 15 -25 14 -37 -5 -16 -26 -35 -27 -41 -3 -3 9 -5 3 -6 -15 -1 -38 31 -73 67 -73 18 0 22 4 17 19 -8 26 4 51 26 51 27 0 24 35 -3 54 -29 20 -59 20 -84 0z"/>
 </g>
<g id="layer112" fill="#713819" stroke="none">
 <path d="M174 1954 c15 -114 93 -220 178 -246 21 -6 38 -17 38 -23 0 -7 -9 -70 -20 -141 -57 -375 -48 -791 21 -1004 85 -259 281 -445 485 -458 40 -2 93 0 117 6 34 9 53 8 92 -3 255 -77 459 123 545 538 62 298 47 737 -35 994 l-22 71 36 7 c50 9 115 49 146 90 31 39 60 112 70 173 10 62 -11 53 -24 -10 -25 -117 -75 -186 -164 -223 -69 -29 -86 -16 -20 15 33 17 76 47 94 67 32 37 72 115 84 166 l7 27 -800 0 c-754 0 -801 -1 -805 -17 -4 -17 -5 -17 -6 0 0 9 -6 17 -12 17 -8 0 -10 -15 -5 -46z m111 -142 c15 -18 47 -44 71 -58 48 -28 60 -49 19 -34 -84 32 -123 70 -154 155 -30 81 -26 100 7 30 16 -33 41 -75 57 -93z m446 -17 c-22 -49 -80 -129 -88 -121 -3 3 18 39 46 81 28 42 51 82 51 88 0 5 3 8 6 4 3 -3 -4 -26 -15 -52z m-40 -182 c41 -46 36 -60 -6 -19 -25 24 -45 47 -45 50 0 10 33 -10 51 -31z m802 -648 c2 -226 -9 -301 -67 -460 -31 -86 -20 -74 38 40 52 101 90 240 100 360 4 44 10 94 13 110 7 29 7 28 14 -15 4 -25 8 -119 8 -210 1 -210 -19 -316 -83 -445 -87 -176 -193 -259 -330 -259 -39 0 -88 5 -109 13 l-39 13 24 27 c19 22 17 21 -10 -4 -32 -29 -36 -30 -135 -30 -96 0 -106 2 -172 35 -98 49 -200 152 -248 250 -66 135 -98 279 -113 505 -7 111 1 123 17 24 19 -126 79 -271 161 -391 21 -32 40 -58 42 -58 2 0 -12 40 -30 88 -47 126 -79 243 -97 352 -22 132 -28 208 -17 190 5 -8 10 -23 10 -32 0 -36 64 -217 110 -314 153 -318 376 -518 484 -433 14 11 33 33 41 49 14 26 16 27 55 16 35 -9 47 -8 78 9 116 63 234 534 217 872 l-4 88 21 -90 c17 -75 21 -126 21 -300z m-433 355 c21 -11 63 -79 75 -120 7 -24 7 -24 -11 -9 -33 28 -96 43 -186 43 -68 -1 -85 2 -81 13 3 7 9 13 14 13 5 0 8 4 7 9 -2 5 12 21 31 35 38 28 114 36 151 16z m-190 -365 c6 -8 14 -32 17 -54 5 -33 1 -44 -20 -65 -45 -45 -122 -47 -173 -3 -24 21 -26 28 -20 61 11 60 35 76 115 76 48 0 72 -4 81 -15z m429 -4 c30 -30 38 -87 16 -111 -29 -32 -88 -45 -135 -31 -51 15 -75 49 -67 97 9 56 21 64 98 64 55 0 73 -4 88 -19z"/>
 <path d="M739 940 l-24 -21 32 16 c41 20 56 19 76 -3 22 -24 11 -36 -15 -17 -23 15 -48 10 -48 -11 0 -8 -7 -14 -15 -14 -8 0 -15 5 -15 12 0 8 -3 9 -10 2 -26 -26 22 -84 68 -84 16 0 20 6 18 33 -1 26 3 33 22 35 27 4 28 22 2 50 -26 28 -61 28 -91 2z"/>
 <path d="M1174 944 c-19 -15 -19 -16 1 -9 42 15 61 16 79 2 29 -21 11 -41 -19 -21 -22 15 -25 14 -37 -5 -16 -26 -35 -27 -41 -3 -3 9 -5 3 -6 -15 -1 -38 31 -73 67 -73 18 0 22 4 17 19 -8 26 4 51 26 51 27 0 24 35 -3 54 -29 20 -59 20 -84 0z"/>
 </g>
<g id="layer113" fill="#4e352b" stroke="none">
 <path d="M174 1954 c15 -114 93 -220 178 -246 21 -6 38 -17 38 -23 0 -7 -9 -70 -20 -141 -57 -375 -48 -791 21 -1004 85 -259 281 -445 485 -458 40 -2 93 0 117 6 34 9 53 8 92 -3 255 -77 459 123 545 538 62 298 47 737 -35 994 l-22 71 36 7 c50 9 115 49 146 90 31 39 60 112 70 173 10 62 -11 53 -24 -10 -25 -117 -75 -186 -164 -223 -61 -25 -69 -21 -110 60 -39 74 -59 96 -51 53 3 -13 -2 -9 -11 11 -8 18 -31 60 -51 92 -35 58 -36 59 -80 59 l-44 0 -1 -52 c-1 -29 -4 -66 -8 -82 l-6 -30 -12 27 c-16 34 -33 28 -72 -24 -25 -34 -30 -37 -41 -24 -7 9 -14 29 -15 45 -2 16 -12 48 -23 71 -11 23 -18 47 -15 55 4 11 -13 14 -91 14 -80 0 -96 -3 -96 -15 0 -28 -42 -149 -58 -167 -14 -16 -17 -15 -44 20 -45 56 -54 58 -77 15 -11 -21 -34 -58 -51 -83 l-31 -45 6 45 c6 39 30 136 51 208 6 21 4 22 -49 22 -52 0 -57 -2 -95 -44 -57 -62 -91 -116 -118 -188 l-23 -63 -1 40 -2 40 -11 -37 -12 -38 -50 24 c-27 13 -60 34 -72 47 -28 31 -60 102 -74 167 -14 66 -34 70 -25 6z m650 -169 c31 -47 65 -90 76 -97 11 -7 20 -16 20 -19 0 -4 -29 -25 -64 -47 -77 -48 -103 -88 -87 -134 11 -30 11 -31 -8 -14 -11 10 -23 32 -27 48 -3 17 -26 50 -50 74 -27 26 -44 51 -44 66 0 12 20 51 44 86 24 34 49 76 56 92 7 17 16 30 20 30 5 0 33 -38 64 -85z m431 63 c14 -46 14 -311 -1 -345 -14 -37 -25 -44 -17 -13 11 40 -18 81 -89 126 -37 24 -68 47 -68 52 0 4 9 13 20 19 10 7 44 51 75 98 31 47 60 85 64 85 5 0 12 -10 16 -22z m-240 -95 c11 -76 33 -112 91 -149 46 -30 74 -54 61 -54 -3 0 -21 7 -40 15 -23 10 -69 15 -127 15 -58 0 -104 -5 -127 -15 -19 -8 -37 -15 -40 -15 -12 0 14 23 61 55 59 39 80 74 91 148 4 26 11 47 15 47 4 0 11 -21 15 -47z m94 -288 c62 -21 200 -131 217 -171 43 -102 74 -316 59 -410 -7 -46 -8 -47 -22 -29 -8 11 -24 40 -35 65 -10 24 -25 48 -31 52 -7 4 -41 7 -77 6 l-65 -1 68 -6 c76 -7 92 -19 103 -78 5 -25 2 -39 -11 -53 -42 -46 -137 -49 -180 -6 -13 13 -28 20 -34 17 -16 -10 24 -50 57 -56 15 -3 39 -9 53 -14 15 -4 54 -4 88 1 35 5 65 8 67 5 2 -2 0 -22 -5 -43 -5 -21 -9 -31 -10 -21 -1 16 -5 15 -44 -8 -52 -30 -87 -31 -146 -5 -54 25 -86 27 -56 4 36 -28 114 -64 138 -64 13 0 41 11 62 25 20 15 40 24 42 21 5 -5 -28 -109 -58 -183 -29 -71 -218 -113 -373 -82 -49 10 -63 19 -100 60 -44 49 -148 196 -185 262 l-21 37 28 0 c32 0 81 -29 50 -30 -9 0 -20 -4 -23 -10 -4 -6 37 -10 117 -10 124 0 145 12 49 26 l-45 7 48 23 c62 30 80 45 66 54 -7 4 -22 -3 -35 -16 -25 -25 -82 -40 -119 -30 -14 3 -37 17 -52 29 -23 20 -26 29 -20 58 11 61 27 73 103 80 l68 6 -65 1 c-36 1 -70 -2 -77 -6 -6 -4 -21 -28 -32 -52 -11 -25 -31 -58 -45 -75 -21 -25 -27 -28 -36 -15 -14 21 -13 39 9 165 11 61 22 141 26 178 6 53 15 79 39 115 36 54 163 156 221 176 53 19 172 20 224 1z m384 -500 c2 -226 -9 -301 -67 -460 -31 -86 -20 -74 38 40 52 101 90 240 100 360 4 44 10 94 13 110 7 29 7 28 14 -15 4 -25 8 -119 8 -210 1 -210 -19 -316 -83 -445 -87 -176 -193 -259 -330 -259 -39 0 -88 5 -109 13 l-39 13 24 27 c19 22 17 21 -10 -4 -32 -29 -36 -30 -135 -30 -96 0 -106 2 -172 35 -98 49 -200 152 -248 250 -66 135 -98 279 -113 505 -7 111 1 123 17 24 19 -126 79 -271 161 -391 21 -32 40 -58 42 -58 2 0 -12 40 -30 88 -47 126 -79 243 -97 352 -22 132 -28 208 -17 190 5 -8 10 -23 10 -32 0 -36 64 -217 110 -314 153 -318 376 -518 484 -433 14 11 33 33 41 49 14 26 16 27 55 16 35 -9 47 -8 78 9 116 63 234 534 217 872 l-4 88 21 -90 c17 -75 21 -126 21 -300z"/>
 <path d="M960 1145 c-24 -13 -21 -14 40 -14 61 0 64 1 40 14 -14 8 -32 14 -40 14 -8 0 -26 -6 -40 -14z"/>
 <path d="M739 940 l-24 -21 32 16 c41 20 56 19 76 -3 22 -24 11 -36 -15 -17 -23 15 -48 10 -48 -11 0 -8 -7 -14 -15 -14 -8 0 -15 5 -15 12 0 8 -3 9 -10 2 -26 -26 22 -84 68 -84 16 0 20 6 18 33 -1 26 3 33 22 35 27 4 28 22 2 50 -26 28 -61 28 -91 2z"/>
 <path d="M1174 944 c-19 -15 -19 -16 1 -9 42 15 61 16 79 2 29 -21 11 -41 -19 -21 -22 15 -25 14 -37 -5 -16 -26 -35 -27 -41 -3 -3 9 -5 3 -6 -15 -1 -38 31 -73 67 -73 18 0 22 4 17 19 -8 26 4 51 26 51 27 0 24 35 -3 54 -29 20 -59 20 -84 0z"/>
 </g>
<g id="layer114" fill="#50240e" stroke="none">
 <path d="M174 1954 c15 -114 93 -220 178 -246 21 -6 38 -17 38 -23 0 -7 -9 -70 -20 -141 -57 -375 -48 -791 21 -1004 85 -259 281 -445 485 -458 40 -2 93 0 117 6 34 9 53 8 92 -3 240 -73 438 104 529 471 43 173 51 247 50 494 0 254 -19 410 -69 567 l-22 71 36 7 c50 9 115 49 146 90 31 39 60 112 70 173 10 64 -10 51 -25 -15 -27 -125 -74 -185 -175 -222 -32 -12 -58 -20 -59 -19 0 2 -18 38 -39 81 -38 76 -60 99 -51 55 3 -13 -2 -9 -11 11 -8 18 -31 60 -51 92 -35 58 -36 59 -80 59 l-44 0 -1 -52 c-1 -29 -4 -66 -8 -82 l-6 -30 -12 27 c-16 34 -33 28 -72 -24 -25 -34 -30 -37 -41 -24 -7 9 -14 29 -15 45 -2 16 -12 48 -23 71 -11 23 -18 47 -15 55 4 11 -13 14 -91 14 -80 0 -96 -3 -96 -15 0 -28 -42 -149 -58 -167 -14 -16 -17 -15 -44 20 -45 56 -54 58 -77 15 -11 -21 -34 -58 -51 -83 l-31 -45 6 45 c6 39 30 136 51 208 6 21 4 22 -49 22 -54 0 -56 -1 -102 -52 -58 -64 -92 -123 -116 -196 l-18 -57 0 44 c-1 49 -7 52 -14 6 -3 -25 -8 -30 -28 -27 -35 3 -99 51 -131 97 -16 22 -36 72 -45 113 -19 80 -39 98 -29 26z m402 -156 c-73 -172 -112 -413 -95 -597 11 -124 60 -307 109 -409 75 -157 253 -385 345 -442 79 -49 138 -42 170 20 18 34 15 33 50 20 39 -15 88 12 124 69 41 63 105 261 130 401 34 187 27 316 -33 630 -14 69 -27 148 -31 175 l-6 50 19 -45 c10 -25 31 -65 46 -89 16 -25 34 -58 42 -75 l13 -31 1 49 c0 27 -11 105 -25 174 -14 68 -24 127 -21 129 6 7 51 -94 80 -181 15 -44 36 -129 49 -188 12 -59 25 -108 30 -108 7 0 6 39 -9 200 -6 75 10 46 31 -55 37 -182 60 -593 35 -650 -8 -17 -9 -16 -11 10 -1 17 -5 -28 -9 -100 -15 -261 -74 -435 -191 -559 -97 -104 -198 -135 -326 -102 -51 12 -73 13 -118 4 -121 -24 -255 30 -376 151 -149 149 -215 349 -238 719 -10 159 -1 338 25 537 l19 140 5 -95 c6 -102 9 -102 34 3 8 37 26 94 39 126 27 66 116 215 124 207 3 -3 -11 -42 -31 -88z m248 -13 c31 -47 65 -90 76 -97 11 -7 20 -16 20 -19 0 -4 -29 -25 -64 -47 -77 -48 -103 -88 -87 -134 17 -49 -12 -17 -44 47 -15 32 -39 62 -56 72 -45 27 -40 64 26 162 30 45 55 86 55 92 0 25 23 1 74 -76z m431 68 c14 -35 14 -316 -1 -350 -14 -37 -25 -44 -17 -13 11 40 -18 81 -89 126 -37 24 -68 47 -68 52 0 4 9 13 20 19 10 7 44 51 75 98 31 47 60 85 65 85 4 0 11 -8 15 -17z m-240 -100 c11 -76 33 -112 91 -149 46 -30 74 -54 61 -54 -3 0 -21 7 -40 15 -23 10 -69 15 -127 15 -58 0 -104 -5 -127 -15 -19 -8 -37 -15 -40 -15 -12 0 14 23 61 55 59 39 80 74 91 148 4 26 11 47 15 47 4 0 11 -21 15 -47z m94 -288 c62 -21 200 -131 217 -171 43 -102 74 -316 59 -410 -7 -46 -8 -47 -22 -29 -8 11 -24 40 -35 65 -10 24 -25 48 -31 52 -7 4 -41 7 -77 6 l-65 -1 68 -6 c76 -7 92 -19 103 -78 5 -25 2 -39 -11 -53 -42 -46 -137 -49 -180 -6 -13 13 -28 20 -34 17 -16 -10 24 -50 57 -56 15 -3 39 -9 53 -14 15 -4 54 -4 88 1 35 5 65 8 67 5 2 -2 0 -22 -5 -43 -5 -21 -9 -31 -10 -21 -1 16 -5 15 -44 -8 -52 -30 -87 -31 -146 -5 -45 21 -83 27 -66 11 6 -5 35 -22 65 -38 64 -35 107 -36 151 -4 17 13 33 20 36 17 5 -4 -28 -106 -58 -183 -21 -53 -134 -92 -266 -93 -110 0 -158 16 -208 72 -44 49 -147 195 -184 261 l-21 37 28 0 c32 0 81 -29 50 -30 -9 0 -20 -4 -23 -10 -4 -6 37 -10 117 -10 124 0 145 12 49 26 l-45 7 48 23 c62 30 80 45 66 54 -7 4 -22 -3 -35 -16 -25 -25 -82 -40 -118 -30 -40 10 -77 45 -77 74 0 25 -2 24 -31 -16 -17 -23 -35 -42 -40 -42 -20 0 -20 55 0 172 11 68 23 152 27 186 5 47 15 76 38 110 36 54 164 156 221 176 53 19 172 20 224 1z"/>
 <path d="M422 1170 c0 -19 2 -27 5 -17 2 9 2 25 0 35 -3 9 -5 1 -5 -18z"/>
 <path d="M960 1145 c-24 -13 -21 -14 40 -14 61 0 64 1 40 14 -14 8 -32 14 -40 14 -8 0 -26 -6 -40 -14z"/>
 <path d="M704 972 c-6 -4 -16 -18 -23 -32 l-12 -25 20 25 c16 21 31 26 88 31 l68 6 -65 1 c-36 1 -70 -2 -76 -6z"/>
 <path d="M767 913 c-12 -11 -7 -41 7 -46 8 -3 22 3 31 13 16 17 15 19 -4 29 -23 13 -26 13 -34 4z"/>
 <path d="M1194 906 c-6 -16 11 -46 27 -46 9 0 33 40 27 45 -2 1 -13 6 -26 9 -15 5 -24 3 -28 -8z"/>
 </g>
<g id="layer115" fill="#362016" stroke="none">
 <path d="M550 1939 c-54 -65 -82 -115 -111 -194 l-18 -50 -1 35 c-2 31 -3 32 -9 10 -10 -35 -28 -35 -88 0 -38 22 -61 45 -84 83 -17 28 -28 43 -24 32 4 -11 8 -29 10 -40 6 -29 81 -93 126 -107 22 -6 39 -17 39 -23 0 -7 -9 -70 -20 -141 -57 -375 -48 -791 21 -1004 85 -259 281 -445 485 -458 40 -2 93 0 117 6 34 9 53 8 92 -3 240 -73 438 104 529 471 43 173 51 247 50 494 0 254 -19 410 -69 567 l-22 71 36 7 c20 4 55 18 79 31 44 26 106 100 96 115 -3 5 0 9 6 9 6 0 8 5 5 11 -4 5 -21 -13 -38 -42 -33 -54 -97 -99 -164 -113 -29 -7 -31 -5 -52 46 -12 29 -30 64 -41 78 -18 23 -20 23 -20 5 0 -12 -16 9 -38 50 -62 115 -62 115 -108 115 l-41 0 -7 -77 c-3 -43 -10 -103 -15 -133 -5 -30 -7 -102 -4 -160 6 -118 -3 -154 -42 -172 -14 -6 -24 -15 -23 -18 2 -4 28 -27 58 -51 49 -41 56 -52 77 -119 13 -41 30 -110 38 -154 16 -86 20 -262 6 -270 -5 -4 -19 6 -30 21 -19 26 -20 27 -21 6 0 -27 -42 -61 -85 -69 -43 -8 -100 11 -121 39 -15 21 -15 21 -12 2 6 -38 73 -60 171 -57 86 2 87 2 87 -22 0 -30 -44 -172 -75 -242 -21 -47 -28 -54 -81 -75 -50 -20 -78 -23 -184 -24 -84 0 -136 4 -157 14 -41 17 -158 167 -237 303 l-27 47 98 -2 c83 -2 104 1 138 19 22 12 41 29 43 38 3 13 -3 11 -21 -8 -27 -27 -83 -42 -120 -32 -36 9 -77 45 -77 68 0 18 -5 15 -35 -18 -29 -32 -36 -36 -45 -24 -14 22 -12 61 9 180 10 58 22 142 26 188 7 79 9 84 50 130 24 27 62 61 84 76 23 16 41 32 41 36 0 4 -11 12 -25 18 -17 8 -34 32 -52 72 -18 42 -35 66 -55 76 -20 11 -28 22 -28 42 0 52 29 218 49 282 12 36 21 66 21 68 0 1 -25 2 -55 2 -54 0 -54 0 -105 -61z m26 -141 c-73 -172 -112 -413 -95 -597 11 -124 60 -307 109 -409 75 -157 253 -385 345 -442 79 -49 138 -42 170 20 18 34 15 33 50 20 39 -15 88 12 124 69 41 63 105 261 130 401 34 187 27 316 -33 630 -14 69 -27 148 -31 175 l-6 50 19 -45 c10 -25 31 -65 46 -89 16 -25 34 -58 42 -75 l13 -31 1 49 c0 27 -11 105 -25 174 -14 68 -24 127 -21 129 6 7 51 -94 80 -181 15 -44 36 -129 49 -188 12 -59 25 -108 30 -108 7 0 6 39 -9 200 -6 75 10 46 31 -55 37 -182 60 -593 35 -650 -8 -17 -9 -16 -11 10 -1 17 -5 -28 -9 -100 -15 -261 -74 -435 -191 -559 -97 -104 -198 -135 -326 -102 -51 12 -73 13 -118 4 -121 -24 -255 30 -376 151 -149 149 -215 349 -238 719 -10 159 -1 338 25 537 l19 140 5 -95 c6 -102 9 -102 34 3 8 37 26 94 39 126 27 66 116 215 124 207 3 -3 -11 -42 -31 -88z"/>
 <path d="M422 1170 c0 -19 2 -27 5 -17 2 9 2 25 0 35 -3 9 -5 1 -5 -18z"/>
 <path d="M911 1978 c1 -30 -44 -154 -65 -177 -15 -17 -14 -21 16 -62 l31 -43 47 52 c26 29 53 52 61 52 8 0 33 -23 57 -50 24 -28 46 -50 50 -50 4 0 19 19 34 42 26 42 27 43 9 63 -10 11 -19 35 -19 53 0 18 -10 49 -21 68 -12 19 -21 44 -21 55 0 17 -8 19 -90 19 -87 0 -90 -1 -89 -22z"/>
 <path d="M697 962 c-10 -10 -17 -22 -17 -27 0 -5 6 0 14 11 11 14 31 21 78 25 l63 6 -61 1 c-48 2 -65 -2 -77 -16z"/>
 <path d="M1228 971 c47 -4 67 -11 78 -25 8 -11 14 -15 14 -8 0 24 -44 42 -100 40 l-55 -1 63 -6z"/>
 <path d="M767 913 c-12 -11 -7 -41 7 -46 8 -3 22 3 31 13 16 17 15 19 -4 29 -23 13 -26 13 -34 4z"/>
 <path d="M1194 906 c-6 -16 11 -46 27 -46 9 0 33 40 27 45 -2 1 -13 6 -26 9 -15 5 -24 3 -28 -8z"/>
 <path d="M705 763 c-57 -15 -30 -23 76 -22 86 0 108 3 89 10 -30 12 -137 20 -165 12z"/>
 <path d="M1090 726 c0 -13 122 -66 150 -66 34 0 79 20 100 45 22 27 5 27 -46 0 -50 -27 -81 -27 -134 0 -34 17 -70 28 -70 21z"/>
 </g>
<g id="layer116" fill="#281d26" stroke="none">
 <path d="M917 1981 c3 -10 -2 -32 -10 -47 -8 -16 -17 -45 -21 -64 -3 -19 -16 -44 -28 -57 l-21 -22 27 -41 c14 -22 31 -40 36 -40 5 0 26 22 46 48 44 60 65 59 112 -4 18 -24 37 -44 42 -44 5 0 22 18 36 40 26 40 27 41 8 61 -10 12 -17 31 -16 44 2 13 -7 43 -19 67 -13 24 -22 51 -20 61 2 15 -8 17 -87 17 -83 0 -90 -1 -85 -19z"/>
 <path d="M764 907 c-4 -10 -2 -23 4 -29 14 -14 42 -3 42 17 0 9 -5 13 -11 9 -6 -3 -15 0 -20 7 -6 11 -9 10 -15 -4z"/>
 <path d="M1202 908 c-13 -13 -4 -38 13 -38 21 0 28 19 12 34 -10 10 -17 12 -25 4z"/>
 <path d="M637 853 c-16 -18 -23 -33 -17 -33 9 0 9 -4 2 -13 -9 -10 8 -13 83 -15 77 -3 103 1 140 17 30 13 45 26 45 38 -1 17 -1 17 -11 0 -13 -23 -68 -47 -107 -47 -36 0 -94 38 -102 66 -5 18 -7 17 -33 -13z"/>
 <path d="M1328 868 c-8 -55 -106 -83 -172 -49 -22 11 -42 19 -44 16 -3 -3 16 -14 42 -26 39 -17 63 -20 136 -17 81 3 88 5 87 23 0 11 -11 32 -23 47 -22 27 -23 27 -26 6z"/>
 <path d="M733 753 c20 -2 54 -2 75 0 20 2 3 4 -38 4 -41 0 -58 -2 -37 -4z"/>
 <path d="M1100 725 c0 -8 88 -53 116 -59 38 -8 90 11 119 44 19 21 18 21 -29 -4 -61 -32 -87 -32 -153 -1 -29 13 -53 22 -53 20z"/>
 </g>
<g id="layer117" fill="#1d2126" stroke="none">
 <path d="M917 1981 c3 -10 -2 -32 -10 -47 -8 -16 -17 -45 -21 -64 -3 -19 -16 -44 -28 -57 l-21 -22 27 -41 c14 -22 31 -40 36 -40 5 0 26 22 47 50 30 40 41 49 58 44 11 -4 20 -7 21 -8 7 -15 68 -86 75 -86 5 0 21 18 35 40 26 39 26 41 8 61 -13 14 -25 18 -44 14 l-25 -6 23 17 c20 14 23 22 17 53 -4 19 -12 45 -18 56 -6 11 -10 28 -8 38 2 15 -8 17 -87 17 -83 0 -90 -1 -85 -19z"/>
 <path d="M764 907 c-4 -10 -2 -23 4 -29 14 -14 42 -3 42 17 0 9 -5 13 -11 9 -6 -3 -15 0 -20 7 -6 11 -9 10 -15 -4z"/>
 <path d="M1202 908 c-13 -13 -4 -38 13 -38 21 0 28 19 12 34 -10 10 -17 12 -25 4z"/>
 <path d="M637 853 c-16 -18 -24 -33 -17 -33 6 0 9 -4 6 -9 -7 -10 69 -21 138 -20 l51 2 -43 6 c-48 8 -94 38 -102 67 -4 18 -8 17 -33 -13z"/>
 <path d="M1328 868 c-4 -29 -49 -60 -100 -69 -41 -6 -41 -7 17 -7 77 -1 129 9 133 26 1 8 -9 27 -22 43 -23 27 -25 28 -28 7z"/>
 <path d="M845 819 c-16 -10 -25 -19 -19 -19 7 0 22 9 35 20 30 24 23 24 -16 -1z"/>
 <path d="M1139 821 c13 -12 28 -21 34 -21 12 0 11 0 -28 24 l-30 17 24 -20z"/>
 <path d="M733 753 c20 -2 54 -2 75 0 20 2 3 4 -38 4 -41 0 -58 -2 -37 -4z"/>
 <path d="M1104 722 c6 -11 96 -55 101 -50 3 2 -21 16 -51 31 -31 15 -53 24 -50 19z"/>
 <path d="M1312 708 c-18 -11 -48 -24 -65 -28 l-32 -8 37 -1 c29 -1 46 6 70 29 39 35 36 38 -10 8z"/>
 </g>
<g id="layer118" fill="#0e132c" stroke="none">
 <path d="M917 1981 c3 -10 -2 -32 -10 -47 -8 -16 -17 -45 -21 -64 -3 -19 -16 -44 -28 -57 l-21 -22 27 -41 c14 -22 31 -40 36 -40 5 0 26 22 46 49 31 41 44 51 78 57 55 9 99 32 92 49 -2 7 -8 30 -12 49 -3 20 -10 38 -14 41 -5 3 -6 14 -3 25 5 19 0 20 -85 20 -83 0 -90 -1 -85 -19z"/>
 <path d="M1090 1820 c-8 -5 -25 -10 -37 -10 -13 0 -23 -5 -23 -11 0 -15 59 -89 71 -89 5 0 21 18 35 40 26 39 26 41 9 60 -20 22 -33 24 -55 10z"/>
 <path d="M764 907 c-4 -10 -2 -23 4 -29 14 -14 42 -3 42 17 0 9 -5 13 -11 9 -6 -3 -15 0 -20 7 -6 11 -9 10 -15 -4z"/>
 <path d="M1202 908 c-13 -13 -4 -38 13 -38 21 0 28 19 12 34 -10 10 -17 12 -25 4z"/>
 <path d="M643 854 c-31 -43 -29 -48 13 -56 41 -7 164 -9 129 -2 -69 15 -98 30 -110 57 l-12 29 -20 -28z"/>
 <path d="M1326 856 c-7 -28 -32 -43 -96 -56 -31 -7 -29 -8 20 -8 68 -1 124 10 127 24 1 5 -9 23 -21 39 l-23 29 -7 -28z"/>
 <path d="M733 753 c20 -2 54 -2 75 0 20 2 3 4 -38 4 -41 0 -58 -2 -37 -4z"/>
 <path d="M1100 725 c0 -7 61 -37 66 -33 2 3 -12 12 -31 21 -19 9 -35 15 -35 12z"/>
 <path d="M1311 708 c-20 -13 -29 -24 -21 -26 6 -2 24 7 38 22 32 32 28 33 -17 4z"/>
 </g>
<g id="layer119" fill="#141111" stroke="none">
 <path d="M917 1981 c3 -10 -2 -32 -10 -47 -8 -16 -17 -45 -21 -64 -3 -19 -16 -44 -28 -57 l-21 -22 27 -41 c14 -22 31 -40 36 -40 5 0 26 22 46 49 31 41 44 51 78 57 55 9 99 32 92 49 -2 7 -8 30 -12 49 -3 20 -10 38 -14 41 -5 3 -6 14 -3 25 5 19 0 20 -85 20 -83 0 -90 -1 -85 -19z"/>
 <path d="M1090 1820 c-8 -5 -25 -10 -37 -10 -13 0 -23 -5 -23 -11 0 -15 59 -89 71 -89 5 0 21 18 35 40 26 39 26 41 9 60 -20 22 -33 24 -55 10z"/>
 <path d="M764 907 c-4 -10 -2 -23 4 -29 14 -14 42 -3 42 17 0 9 -5 13 -11 9 -6 -3 -15 0 -20 7 -6 11 -9 10 -15 -4z"/>
 <path d="M1202 908 c-13 -13 -4 -38 13 -38 21 0 28 19 12 34 -10 10 -17 12 -25 4z"/>
 <path d="M733 753 c20 -2 54 -2 75 0 20 2 3 4 -38 4 -41 0 -58 -2 -37 -4z"/>
 <path d="M1100 725 c0 -7 61 -37 66 -33 2 3 -12 12 -31 21 -19 9 -35 15 -35 12z"/>
 <path d="M1311 708 c-20 -13 -29 -24 -21 -26 6 -2 24 7 38 22 32 32 28 33 -17 4z"/>
 </g>

</svg>