<?xml version="1.0" encoding="UTF-8" standalone="no"?>
<svg xmlns:rdf="http://www.w3.org/1999/02/22-rdf-syntax-ns#" xmlns="http://www.w3.org/2000/svg" height="267" viewBox="0 0 266.66666 266.66666" width="267" version="1.1" xmlns:cc="http://creativecommons.org/ns#" xmlns:dc="http://purl.org/dc/elements/1.1/">
 <g stroke-width="1.33">
  <path d="m24 265c.0155-1.65 1.49-7.16 3.29-12.2 3.84-10.9 11.4-19.5 20.4-23.1l5.87-2.36-.729-6c-.401-3.3-1.61-11.8-2.69-18.8-9.3-62-4.1-123 12.7-151 5.9-10 20.1-25.1 28.7-30.6 13.5-8.6 31.5-12.2 42.5-8.5 3.07 1.07 5.98.910 12.1-.667 15-3.9 27.9-1.56 40.1 7.3 14.7 10.7 27.4 38.1 33.8 73.3 2.29 12.5 2.82 21 2.91 46 .119 34.1-1.7 50.1-8.34 73.8l-3.77 13.4 4.12.870c6.67 1.41 16.5 7.34 20.2 12.1 3.55 4.65 7.53 14.9 9.11 23.4l.926 5h-221l.0281-3zm120-91.2c4.24-4.06 4.96-6.54 1.53-5.22-1.91.734-1.86.415.333-2.08 2.57-2.93 2.57-2.94-.0748-1.83-1.47.616-7.65 1.38-13.7 1.7-12.2.637-14.4 3.04-4.17 4.43l5.9 0.8-5.67 0.2c-6.76.239-7.3 2.26-1.33 4.94 5.84 2.62 12.6 1.46 17.2-2.94zm-45.8-48c-2.89-3.19-2.82-10.6.127-14 2.07-2.39 1.85-2.36-2 .319-4.26 2.96-4.91 4.17-4.39 8.16.456 3.46 4.02 8 6.29 8 2 0 2-.196-.0307-2.44zm19.7-2.21c2.36-4.96 1.67-7.84-2.72-11.5-2.1-1.73-2.16-1.64-.739 1.02 2.14 4.02 1.94 8.6-.524 12.1-1.76 2.51-1.78 2.96-.152 2.96 1.06 0 2.92-2.09 4.13-4.65zm37.5 1.69c-2.47-3.52-2.66-8.11-.524-12.1 1.42-2.66 1.36-2.75-.739-1.02-4.27 3.52-5 6.4-2.91 11.4 1.09 2.61 2.91 4.7 4.11 4.7 1.95 0 1.96-.269.068-2.96zm19.8 0c3.96-5.65 2.32-11.1-4.49-15.1-1.4-.802-1.31-.248.333 2.09 2.85 4.07 2.86 10.4.0239 13.5-1.99 2.2-2 2.44-.0756 2.44 1.17 0 3.07-1.33 4.21-2.96zm-4.54-11c-.939-1.13-2.23-2.06-2.88-2.06-1.82 0-1.38 5.03.497 5.72 2.71.994 4.26-1.4 2.38-3.67zm-57.4 1.36c0-2.61-2.58-4.03-4.27-2.35-.752.752-.965 2.02-.472 2.82 1.31 2.11 4.74 1.77 4.74-.472z" fill="#a69f9c"/>
  <path d="m24.9 263c2.45-15.9 12.9-30.4 24.3-33.8 3.96-1.19 5.27-2.21 4.8-3.75-1.79-5.93-6.24-42.1-7.55-61.3-2.16-31.7 1.16-71.4 7.63-91.4 6.41-19.8 21.5-40.2 37.1-50.3 13.9-8.98 30.2-12.4 42.6-8.95 3.95 1.1 6.67 1.02 11.3-.335 3.37-.978 10.3-1.75 15.5-1.72 12.1.0770 21.7 4.35 31 13.8 25.6 26 38.3 95.4 28.9 159-1.83 12.4-6.91 34.7-9.2 40.4-.715 1.78.578 2.64 6.64 4.4 13.6 3.96 22.6 15.3 25.7 32.4l1.27 7h-222zm116-86.4c4.54-2.35 8.28-8.64 6.67-11.2-.865-1.4-2-1.45-5.43-.254-2.39.833-8.53 1.51-13.6 1.51-7.73 0-9.04.308-7.78 1.83.836 1.01 1.19 2.69.788 3.74-.891 2.32 6.33 6.22 11.8 6.35 2.05.0469 5.49-.825 7.64-1.94zm-23.3-50.7c1.05-2.5 1.9-5.51 1.9-6.69 0-3.27-7.38-9.95-10.9-9.86l-3.1.0845 3.33 1.45c2.75 1.2 2.92 1.55 1 2.01-2.86.688-3.02 3.47-.333 5.7 1.6 1.32 2.4 1.32 4 0 3.12-2.59 2.61 2.87-.667 7.03-3.31 4.2-3.3 4.35.0995 4.61 1.98.149 3.31-1.08 4.67-4.34zm40.6 3.63c0-.278-1.2-2.03-2.67-3.9-1.47-1.86-2.67-4.38-2.67-5.58 0-3.1 3.77-8.1 7.14-9.46 2.82-1.14 2.82-1.15-.245-1.24-3.52-.0958-10.9 6.58-10.9 9.86 0 1.18.855 4.19 1.9 6.69 1.36 3.26 2.68 4.49 4.67 4.34 1.52-.115 2.77-.436 2.77-.714zm-60-2.93c-4.7-4.7-3.1-12.3 3.33-15.8 2.4-1.31 2.42-1.46.267-1.5-3.71-.0627-9.99 3.65-10.9 6.44-1.55 4.9 3.19 13.5 7.44 13.5 2.39 0 2.39-.116-.163-2.67zm77.8-2.97c2.95-6.04 2.03-9.71-3.13-12.4-5.19-2.69-10-2.67-5.31.0146 2.43 1.39 2.72 1.92 1.08 1.95-3.12.0653-4.3 2.44-2.36 4.77 2.19 2.64 4.96 2.45 5.7-.392.335-1.28.679-.383.764 2 .0988 2.77-.847 5.34-2.62 7.11l-2.77 2.77 3.11-.440c2.04-.289 3.94-2.15 5.54-5.41zm-17.8.308c0-.733-.635-1.33-1.41-1.33-.777 0-1.04.6-.588 1.33.453.733 1.09 1.33 1.41 1.33.323 0 .588-.6.588-1.33z" fill="#86766e"/>
  <path d="m24.7 264c4.32-19.6 9.21-27.1 21.6-33 6.84-3.27 8.25-4.49 7.74-6.67-.347-1.47-1.98-11.4-3.64-22-2.61-16.8-3.01-24.5-3.04-58.7-.0356-42.5 1.26-54.6 7.89-73.7 12.8-37 47.1-62.8 75.8-57.1 6.65 1.32 9.69 1.34 14.3.0702 8.17-2.24 22.1-1.94 29.1.623 17.1 6.24 30.9 25.4 39.3 54.6 12 41.5 12.3 99.6.796 144-1.45 5.55-2.99 11-3.41 12.1-.567 1.48 1.4 2.77 7.63 5.02 11.6 4.18 18.7 11.7 22.3 23.5 1.5 4.87 2.74 10.3 2.74 12v3.19h-220zm120-90c4.6-4.88 5.97-12.2 1.96-10.6-4.61 1.92-11.8 3.13-18.8 3.16l-7.44.0318.593 4.04c.739 5.04 5.5 7.83 13.5 7.91 4.97.0455 6.49-.634 10.2-4.56zm-45.6-48c-4.21-5.01-4.37-8.74-.553-12.8 3.02-3.21 10.8-4.32 12.4-1.75.453.733-.111 1.33-1.25 1.33-2.28 0-2.68 2.32-.891 5.14.741 1.17 2.19 1.48 4.11.868 2.63-.835 2.86-.590 2.01 2.19-.523 1.72-2.23 4.53-3.8 6.25l-2.85 3.12 3.95-.450c3.17-.360 4.33-1.44 5.84-5.43 3.69-9.73-1.85-15.7-14.6-15.7-5.3 0-7.34.671-9.94 3.27-1.8 1.8-3.27 4.26-3.27 5.47 0 3.66 4.09 11.1 6.45 11.7 5.21 1.38 5.67.756 2.34-3.21zm57.9.780c-6.23-6.63-2.55-16.7 6.12-16.7 2.41 0 4.75.6 5.21 1.33.453.733-.155 1.33-1.35 1.33-2.8 0-2.1 3.89 1.06 5.86 1.83 1.14 2.66 1.02 3.65-.524 1.03-1.62 1.28-1.45 1.3.898.0107 1.59-1.53 4.74-3.43 7s-2.95 4.09-2.33 4.08c4.41-.0718 7.16-2.15 9.03-6.81 2.73-6.83 2.68-7.38-1.18-11.2-2.6-2.6-4.64-3.27-9.94-3.27-8.15 0-12.7 1.93-14.6 6.21-1.9 4.18-1.87 4.95.452 10.5 1.53 3.67 2.68 4.62 5.57 4.62h3.63zm-56-3.34c0-.733-.6-1.33-1.33-1.33-.733 0-1.33.6-1.33 1.33 0 .733.6 1.33 1.33 1.33.733 0 1.33-.6 1.33-1.33zm57.3 0c0-.733-.635-1.33-1.41-1.33-.777 0-1.04.6-.588 1.33.453.733 1.09 1.33 1.41 1.33.323 0 .588-.6.588-1.33z" fill="#695750"/>
  <path d="m25.6 261c2.68-15.4 11-26.5 23.5-31.2 5.48-2.09 5.76-2.45 4.96-6.32-5.09-24.6-6.6-42.6-6.64-79.4-.2-49.6 2-63.4 13.4-86.8 15-30.7 49.1-51.3 72.1-44 4.16 1.3 7.1 1.5 9.33.649 1.79-.683 6.61-1.73 10.7-2.33 38-5.53 64.2 36.1 69.1 110 2.09 31.6-1.23 67-8.7 92.9-3.32 11.5-3.24 13.6.580 13.6 4.64.0268 15.9 6.49 20.1 11.5 4.24 5.13 9.53 19.2 9.53 25.3v3.19h-220zm116-84c3.82-1.74 6.6-5.97 7.18-10.9.490-4.21.566-4.17-4.43-2.19-2.06.818-8.25 1.65-13.8 1.84-5.5.194-9.85.725-9.67 1.18.183.455.333 2.31.333 4.12 0 5.98 12.3 9.59 20.3 5.95zm-40-49.2c-4.61-2.81-5.77-4.48-2.15-3.09 1.51.578 1.98.255 1.53-1.04-.359-1.03-1.64-1.7-2.85-1.49-3.39.604-2.71-4.66 1.08-8.45 1.8-1.8 4.74-3.27 6.53-3.27 2.83 0 3.23.573 3.06 4.33-.161 3.55.345 4.41 2.8 4.76 4.85.688 3.14 6.01-3 9.37-2.33 1.27-2.04 1.46 2.3 1.5 4.17.0341 5.29-.590 7-3.89 3.83-7.41 1.51-13.6-6.27-16.7-8.53-3.41-21 .865-21 7.2 0 8.08 4.57 13.2 12 13.3 3.2.0763 3.16-.0285-1-2.56zm73.8-.612c3.26-4.46 3.82-11.2 1.17-14.1-4.04-4.46-12.1-5.85-18.8-3.26-8.53 3.26-10.6 8.68-6.35 16.9l2.11 4.07 10-.506c7.93-0.4 10.4-1.04 11.9-3.04zm-17.5-.0267c-1.46-1.1-1.86-1.98-.922-2 .917-.0233 1.67-.942 1.67-2.04 0-2.42-2.18-2.65-3.12-.333-.370.917-.720-.283-.778-2.67-.126-5.18 3.81-9.67 8.48-9.67 3.6 0 5.72 2.09 3.09 3.05-2.69.978.832 5.64 4.17 5.51 3.77-.141 3.58 2.81-.447 6.83-3.7 3.7-8.32 4.2-12.1 1.32z" fill="#5b4339"/>
  <path d="m24.9 264c.328-2.02 1.83-7.51 3.33-12.2 3.3-10.3 10.8-18.5 20.2-22.1 6.15-2.35 6.32-2.55 5.5-6.89-8.5-46-9.6-105-2.6-138 9.5-45.3 47.3-79.2 79.7-72.1 4.4.959 8.9 1.65 10 1.54 1.46-.149 1.52.0037.236.567-1.33.580-.998 1.64 1.33 4.29 2.57 2.93 2.35 2.85-1.33-.477-4.3-3.89-4.78-4-18-4-12.7 0-14.1.277-22.4 4.45-28.1 14.1-43.4 42.6-47.8 88.9-2.27 24.2-1.45 33.3 1.38 15.2 2.62-16.8 10.6-36.2 21.5-52.2 5.54-8.16 7.72-10 4.63-4-3.86 7.56-12.8 37.5-15.3 51.7-3.15 17.3-4.87 34.9-2.66 27.3 6.82-23.4 10.3-33.2 15.8-44.7 17.2-35.7 40.4-60.5 56.8-60.6 4.79-.0338 10.4 3.9 13.2 9.25 1.85 3.58 2.12 3.66 7.42 2.24 8.83-2.36 13.9 1.36 20.9 15.3 11 21.9 18 57.2 18.1 91.6.0252 11.9.240 21.5.477 21.3.237-.237 1.7-8.2 3.26-17.7 2.33-14.2 2.72-21.1 2.23-39.3-.631-23.3-3.09-37.6-9.52-55.4-4.18-11.5-2.57-9.75 5.15 5.61 7.47 14.9 12.3 33 13.5 51 1.8 26.1 4.52 14.1 4.51-19.9-.008-26.6-2.81-41.2-11.2-58-9.5-19.1-20.5-29.8-34.1-33.5-4.04-1.09-4.95-1.66-2.73-1.71 5.27-.122 17.5 6.2 23.8 12.3 15.1 14.7 25.3 41.5 30.3 79.6 1.69 12.9 2.04 23.2 1.52 45.3-.703 30-3.15 48.3-9.02 67.3-1.54 4.97-2.3 9.47-1.69 9.99.607.520 3.56 1.64 6.56 2.49 9.26 2.63 16.3 8.79 20.6 18 2.13 4.55 4.19 11.3 4.58 14.9.505 4.74.346 5.87-.557 3.97-1.09-2.3-1.28-2.35-1.36-.333-.0884 2.2-6.09 2.33-107 2.33-100 0-107-.136-107-2.33-.581-2.22-.617-2.22-.764 0-.0851 1.28-.671 2.33-1.3 2.33-.632 0-.880-1.65-.552-3.67zm13.9-20.9c3-3.41 7.93-7.47 11-9.02 3.03-1.55 4.8-3.06 3.94-3.36-2.2-.750-12.5 4.7-16 8.48-3.46 3.71-8.31 14.1-9.2 19.8-.424 2.69.272 1.76 2.13-2.86 1.52-3.77 5.21-9.65 8.21-13.1zm200 9.65c-1.67-4.58-4.28-10-5.8-12.1-3.01-4.07-17-11.7-21.4-11.7-1.6.0006.644 1.62 5.27 3.81 9.63 4.55 18.3 13.8 21.6 23 1.25 3.51 2.52 6.13 2.84 5.82.312-.312-.799-4.32-2.47-8.9zm-68.3-9.77c-.411-.411-1.16.329-1.66 1.64-.724 1.9-.570 2.05.746.746.911-.904 1.32-1.98.910-2.39zm-73.2-4.84c-3.8-6-9.9-15-10.7-14-.270.270 2.21 4.61 5.52 9.64s6.01 9.73 6.01 10.4c0 .707.342.943.760.525s-.569-3.37-2.19-6.56zm-2.38-24.1c1.09-2.04.328-1.78-3.39 1.19-2.64 2.11-4.8 4.3-4.8 4.86-.000065 1.71 6.67-3.22 8.19-6.05zm46.7-37.1c3.57-1.64 9.68-9.72 7.82-10.3-.698-.233-.919-1.33-.492-2.45.636-1.66 1.01-1.7 2.05-.247.953 1.33 1.08 1.19.523-.555-.413-1.28-.169-2.33.541-2.33s1.29-.618 1.29-1.37c0-.755-1.66-.147-3.69 1.35-4.59 3.4-17.1 5.56-27.6 4.77-4.4-.328-6.63-.286-4.95.0932 2.07.467 3.31 1.96 3.84 4.64.434 2.17 2.04 4.83 3.58 5.9 3.24 2.27 12.7 2.58 17.1.548zm-24.4-48.5c2.8-3.37 3.29-11.1.939-14.7-2.93-4.47-11.7-6.83-18.2-4.88-7.14 2.14-9.78 5.64-8.69 11.5 1.48 7.9 4.66 9.98 15.3 9.98 6.27 0 9.66-.596 10.7-1.88zm-17.4-2.18-3.15-2.73 4.27 2.07c5.53 2.68 7.5 2.6 10.2-.376 2.82-3.12 1.34-4.71-2.12-2.28-3 2.1-6.34 1.35-6.34-1.42 0-1.02-.9-1.86-2-1.86s-2 .72-2 1.6c0 1.1-.428 1.17-1.38.217-3.37-3.37 3.02-11.2 9.16-11.2 2.1 0 2.58.849 2.42 4.33-.161 3.55.345 4.41 2.8 4.76 3.85.547 3.82 3.01-.0859 6.67-3.87 3.63-7.71 3.69-11.8.166zm74.8 1.47c3.9-3.9 4.95-11.6 2.02-14.8-3.74-4.13-11.1-5.79-17.7-4.01-7.1 1.91-10.2 6.32-9.18 12.9 1.22 7.5 2.78 8.52 13.1 8.52 7.3 0 9.7-.527 11.8-2.59zm-16.7-.850c-2.55-2.08-2.55-2.1.0785-1.16 5.58 1.98 8.08 2.03 10.5.218 3.82-2.82 1.47-5.45-2.53-2.83-2.98 1.95-3.3 1.9-4.92-.681-2.11-3.38-4.68-3.59-5.5-.437-.335 1.28-.679.407-.764-1.95-.183-5.06 4.07-9.72 8.85-9.72 2.48 0 3 .537 2.39 2.48-1.14 3.58.495 6.85 3.42 6.85 3.53 0 3.25 4.67-.439 7.26-3.79 2.65-7.83 2.64-11.1-.0332zm-13-99.4c-.489-.489-.889-1.51-.889-2.27 0-.835.621-.757 1.58.2.868.868 1.27 1.89.889 2.27-.379.379-1.09.289-1.58-.2zm-10.6-3.99c.917-.370 2.42-.370 3.33 0 .917.370.167.673-1.67.673-1.83 0-2.58-.303-1.67-.673zm14.8-10.7c.962-.385 2.11-.338 2.56.105.443.443-.344.758-1.75 0.7-1.55-.0640-1.87-.380-.806-.806z" fill="#743915"/>
  <path d="m24.9 264c.328-2.02 1.83-7.51 3.33-12.2 3.3-10.3 10.8-18.5 20.2-22.1 6.15-2.35 6.32-2.55 5.5-6.89-8.5-46-9.6-105-2.6-138 9.5-45.3 47.3-79.2 79.7-72.1 4.4.959 8.9 1.65 10 1.54 1.46-.149 1.52.0037.236.567-1.33.580-.998 1.64 1.33 4.29 2.57 2.93 2.35 2.85-1.33-.477-4.3-3.89-4.78-4-18-4-12.7 0-14.1.277-22.4 4.45-28.1 14.1-43.4 42.6-47.8 88.9-2.27 24.2-1.45 33.3 1.38 15.2 2.62-16.8 10.6-36.2 21.5-52.2 5.54-8.16 7.72-10 4.63-4-3.86 7.56-12.8 37.5-15.3 51.7-3.15 17.3-4.87 34.9-2.66 27.3 6.82-23.4 10.3-33.2 15.8-44.7 17.2-35.7 40.4-60.5 56.8-60.6 4.79-.0338 10.4 3.9 13.2 9.25 1.85 3.58 2.12 3.66 7.42 2.24 8.83-2.36 13.9 1.36 20.9 15.3 11 21.9 18 57.2 18.1 91.6.0252 11.9.240 21.5.477 21.3.237-.237 1.7-8.2 3.26-17.7 2.33-14.2 2.72-21.1 2.23-39.3-.631-23.3-3.09-37.6-9.52-55.4-4.18-11.5-2.57-9.75 5.15 5.61 7.47 14.9 12.3 33 13.5 51 1.8 26.1 4.52 14.1 4.51-19.9-.008-26.6-2.81-41.2-11.2-58-9.5-19.1-20.5-29.8-34.1-33.5-4.04-1.09-4.95-1.66-2.73-1.71 5.27-.122 17.5 6.2 23.8 12.3 15.1 14.7 25.3 41.5 30.3 79.6 1.69 12.9 2.04 23.2 1.52 45.3-.703 30-3.15 48.3-9.02 67.3-1.54 4.97-2.3 9.47-1.69 9.99.607.520 3.56 1.64 6.56 2.49 9.26 2.63 16.3 8.79 20.6 18 2.13 4.55 4.19 11.3 4.58 14.9.505 4.74.346 5.87-.557 3.97-1.09-2.3-1.28-2.35-1.36-.333-.0884 2.2-6.09 2.33-107 2.33-100 0-107-.136-107-2.33-.581-2.22-.617-2.22-.764 0-.0851 1.28-.671 2.33-1.3 2.33-.632 0-.880-1.65-.552-3.67zm13.9-20.9c3-3.41 7.93-7.47 11-9.02 3.03-1.55 4.8-3.06 3.94-3.36-2.2-.750-12.5 4.7-16 8.48-3.46 3.71-8.31 14.1-9.2 19.8-.424 2.69.272 1.76 2.13-2.86 1.52-3.77 5.21-9.65 8.21-13.1zm200 9.65c-1.67-4.58-4.28-10-5.8-12.1-3.01-4.07-17-11.7-21.4-11.7-1.6.0006.644 1.62 5.27 3.81 9.63 4.55 18.3 13.8 21.6 23 1.25 3.51 2.52 6.13 2.84 5.82.312-.312-.799-4.32-2.47-8.9zm-68.3-9.77c-.411-.411-1.16.329-1.66 1.64-.724 1.9-.570 2.05.746.746.911-.904 1.32-1.98.910-2.39zm-73.2-4.84c-3.8-6-9.9-15-10.7-14-.270.270 2.21 4.61 5.52 9.64s6.01 9.73 6.01 10.4c0 .707.342.943.760.525s-.569-3.37-2.19-6.56zm38.8-.221c0-1.7.928-6.22 2.06-10 1.65-5.55 3.19-7.73 7.67-10.9 3.08-2.15 7-4.89 8.7-6.09 4.44-3.13 2.63-3.88-2.63-1.08-3.37 1.79-7.55 2.37-17.1 2.37-9.57 0-13.8-.579-17.1-2.37-7.63-4.05-6.14-1.35 2.48 4.51 8.82 5.99 11.4 10.2 12.9 20.7.850 6.2 3.12 8.3 3.12 2.88zm-42.2-24c1.09-2.04.328-1.78-3.39 1.19-2.64 2.11-4.8 4.3-4.8 4.86-.000065 1.71 6.67-3.22 8.19-6.05zm57.1-18.9c6.74-3.51 23.8-16.6 25.3-19.4 5.27-9.85 10.8-45.7 8.78-56.6-.902-4.81-1.03-4.91-3.47-2.7-1.39 1.26-3.23 4.47-4.09 7.13-2.51 7.79-3.23 8.19-14.4 7.96l-10.2-.216 9.78-.784c10.8-.866 12.9-2.35 14.4-10.4 2.21-11.8-17.2-16.6-26.7-6.59-2.17 2.29-3.51 3.42-2.97 2.5.542-.917.345-1.67-.438-1.67-.944 0-.882-.867.187-2.58.886-1.42 1.94-2.55 2.34-2.52 1.85.140 6.73-1.99 6.73-2.93 0-.579 1.2-.739 2.67-.356 1.47.384 2.67.163 2.67-.489 0-1.6 10.4-1.93 11.4-.365.422.682 2.87 1.24 5.45 1.24 4.09 0 4.63-.378 4.25-3-.378-2.66-1.51-3.13-10-4.18-7.84-.961-10.8-.759-16 1.09-9.69 3.44-12.4 3.92-12.4 2.17 0-2.63 10.9-6.7 18-6.7 3.67.0019 9.3.609 12.5 1.35 3.21.741 6.08 1.11 6.37.820.664-.664-7.2-24.3-9.71-29.2-2.13-4.14-4.72-5.75-13.6-8.46-9.75-2.98-22.7-3.75-33.3-1.97-8.39 1.42-10.1 2.22-14.1 6.6-5.57 6.16-13.8 17.3-20 26.9l-4.68 7.32 9.54-2.48c8.85-2.3 10-2.33 16.3-.393 6.34 1.94 12.5 6.54 10.9 8.12-.383.383-3.72-.821-7.41-2.67-7.39-3.71-12.6-4.13-23.3-1.87-6.5 1.38-8.99 2.9-9.05 5.5-.0296 1.45 10.3 1.23 11.3-.241.856-1.38 11.4-1.33 11.4.0614 0 .718 6.85 2.64 11 3.08.536.0568 1.88 1.39 2.98 2.97 1.61 2.29 1.66 3 .263 3.53-.959.368-2.44-.445-3.29-1.81-2.3-3.68-11.7-5.85-17.7-4.06-6.98 2.09-9.78 5.67-8.74 11.2 1.51 8.05 3.56 9.54 14.4 10.4l9.78.784-10.2.216c-10.7.228-12-.379-13.8-6.45-1.41-4.89-7.44-13.3-9.52-13.3-3.19 0-3.36 5.74-.645 21.4 1.47 8.42 3.07 19.4 3.56 24.3.679 6.87 1.87 10.5 5 15.2 4.73 7.14 24.4 22.3 31.5 24.3 7.33 2.08 25.3 1.01 30.7-1.83zm-32.9-23.7c-2.86-3.7-3.19-5.03-1.23-5.03 1.09 0 2.38 1.25 2.87 2.77 1.06 3.36.170 4.6-1.63 2.27zm30.3-7.7c.785-1.47 1.65-2.67 1.92-2.67.272 0 .181 1.2-.202 2.67-.384 1.47-1.25 2.67-1.92 2.67-.677 0-.586-1.19.202-2.67zm-19.7-9.32c-4.83-2.02-3.54-2.68 5.27-2.68 5.41 0 7.81.453 6.96 1.31-2 2-8.87 2.77-12.2 1.37zm-29.9-28.1-3.15-2.73 4.27 2.07c5.53 2.68 7.5 2.6 10.2-.376 2.82-3.12 1.34-4.71-2.12-2.28-3 2.1-6.34 1.35-6.34-1.42 0-1.02-.9-1.86-2-1.86s-2 .72-2 1.6c0 1.1-.428 1.17-1.38.217-3.37-3.37 3.02-11.2 9.16-11.2 2.1 0 2.58.849 2.42 4.33-.161 3.55.345 4.41 2.8 4.76 3.85.547 3.82 3.01-.0859 6.67-3.87 3.63-7.71 3.69-11.8.166zm18.5-.0409c.471-1.8 1.08-2.41 1.41-1.41.321.962-.051 2.38-.826 3.16-.989.989-1.16.469-.583-1.75zm39.6.665c-2.55-2.08-2.55-2.1.0785-1.16 5.58 1.98 8.08 2.03 10.5.218 3.82-2.82 1.47-5.45-2.53-2.83-2.98 1.95-3.3 1.9-4.92-.681-2.11-3.38-4.68-3.59-5.5-.437-.335 1.28-.679.407-.764-1.95-.183-5.06 4.07-9.72 8.85-9.72 2.48 0 3 .537 2.39 2.48-1.14 3.58.495 6.85 3.42 6.85 3.53 0 3.25 4.67-.439 7.26-3.79 2.65-7.83 2.64-11.1-.0332zm-12-100c-.489-.489-.889-1.51-.889-2.27 0-.835.621-.757 1.58.2.868.868 1.27 1.89.889 2.27-.379.379-1.09.289-1.58-.2zm-10.6-3.99c.917-.370 2.42-.370 3.33 0 .917.370.167.673-1.67.673-1.83 0-2.58-.303-1.67-.673zm14.8-10.7c.962-.385 2.11-.338 2.56.105.443.443-.344.758-1.75 0.7-1.55-.0640-1.87-.380-.806-.806z" fill="#64311e"/>
  <path d="m25.4 265c-.0516-1.94 1.15-7.55 2.67-12.5 3.31-10.7 10.8-19 20.4-22.7 6.15-2.35 6.32-2.55 5.5-6.89-8.6-46-9.7-105-2.7-138 9.5-45.3 47.3-79.2 79.7-72.1 4.4.959 8.9 1.65 10 1.54 1.46-.149 1.52.0037.236.567-1.33.580-.998 1.64 1.33 4.29 2.57 2.93 2.35 2.85-1.33-.477-4.3-3.89-4.78-4-18-4-12.7 0-14.1.277-22.4 4.45-28.1 14.1-43.4 42.6-47.8 88.9-2.27 24.2-1.45 33.3 1.38 15.2 2.62-16.8 10.6-36.2 21.5-52.2 5.54-8.16 7.72-10 4.63-4-3.86 7.56-12.8 37.5-15.3 51.7-3.15 17.3-4.87 34.9-2.66 27.3 6.82-23.4 10.3-33.2 15.8-44.7 17.2-35.7 40.4-60.5 56.8-60.6 4.79-.0338 10.4 3.9 13.2 9.25 1.85 3.58 2.12 3.66 7.42 2.24 8.83-2.36 13.9 1.36 20.9 15.3 11 21.9 18 57.2 18.1 91.6.0252 11.9.240 21.5.477 21.3.237-.237 1.7-8.2 3.26-17.7 2.33-14.2 2.72-21.1 2.23-39.3-.631-23.3-3.09-37.6-9.52-55.4-4.18-11.5-2.57-9.75 5.15 5.61 7.47 14.9 12.3 33 13.5 51 1.8 26.1 4.52 14.1 4.51-19.9-.008-26.6-2.81-41.2-11.2-58-9.5-19.1-20.5-29.8-34.1-33.5-4.04-1.09-4.95-1.66-2.73-1.71 5.27-.122 17.5 6.2 23.8 12.3 15.1 14.7 25.3 41.5 30.3 79.6 1.69 12.9 2.04 23.2 1.52 45.3-.703 30-3.15 48.3-9.02 67.3-1.54 4.97-2.3 9.47-1.69 9.99.607.520 3.56 1.64 6.56 2.49 9.29 2.64 16.3 8.79 20.6 18 2.09 4.53 4.14 11.2 4.55 14.9.840 7.46-.226 5.37-3.78-7.42-2.87-10.3-8.47-17.5-16.9-21.7-10.8-5.37-11.8-5.01-17.7 6.49-5.07 9.88-7.86 12.8-6.67 6.99.352-1.72-.274-1.07-1.47 1.51-1.14 2.48-4.22 8.03-6.84 12.3-4.65 7.65-4.89 7.83-10.7 7.83h-5.9l-.158-7c-.0868-3.85-.537-8.77-1-10.9l-.843-3.93-1.67 3.66c-1.64 3.61-1.71 3.62-4.87 1.26-1.76-1.32-4.3-4.02-5.63-6-2.22-3.29-2.63-3.42-4.71-1.54-1.25 1.13-1.96 2.88-1.58 3.88.384 1-.831 5.16-2.7 9.25-1.87 4.08-3.06 8.31-2.65 9.39.630 1.64-1.31 1.96-11.9 1.96h-12.7l-.691-3.67c-1.68-8.91-5.03-18.3-7.33-20.6-2.45-2.45-2.57-2.4-5.63 2.07-1.72 2.51-4.21 5.25-5.53 6.07-2.07 1.29-2.78.744-5.2-4-1.54-3.02-4.62-7.97-6.83-11l-4.03-5.5.925 6c.961 6.23 5.43 24.9 6.84 28.6.674 1.76-.381 2.1-6.4 2.1-6.6 0-7.61-.423-11.9-5-7.97-8.42-11.9-14.5-15.9-24.6-3.81-9.65-3.83-9.68-3.98-4.38l-.148 5.33-1.56-4.99-1.56-4.99-6.72 3.13c-3.7 1.72-8.3 5.01-10.2 7.3-3.48 4.14-8.96 16.9-9.14 21.3-.0515 1.26-.609 3.48-1.24 4.95-1.03 2.4-1.16 2.31-1.24-.860zm85.8-25.7c4.08-6.19 8.76-12.2 10.4-13.4l3.01-2.15-2.84-2.26c-1.56-1.25-5.64-3.92-9.07-5.94-7.52-4.43-10.9-10.8-8.68-16.5 1.37-3.6 1.35-3.62-1.27-1.26-1.46 1.32-3.06 4.23-3.55 6.46s-3.52 6.62-6.74 9.74c-3.65 3.54-5.85 6.86-5.84 8.81.0079 1.72 2.64 6.87 5.84 11.5 3.21 4.59 6.57 10.1 7.48 12.3.909 2.19 2.14 3.99 2.74 3.99.598 0 4.42-5.06 8.5-11.3zm57.4 8.25c.509-1.65 1.12-12 1.35-23 .324-15.2-.0215-20.9-1.43-23.6-2.63-5.09-4.61-5.88-2.81-1.13 1.28 3.39 1.1 4.53-1.22 7.68-1.5 2.03-5.62 5.62-9.17 7.97s-7.38 5.2-8.52 6.34c-1.87 1.87-1.78 2.27.898 4.14 1.63 1.14 6.3 7.14 10.4 13.3 4.08 6.19 7.9 11.3 8.5 11.3.601 0 1.51-1.35 2.02-3zm-32-12.7c1.48-10 4.47-14.9 12.2-19.8 7.34-4.7 11.1-8.55 6.41-6.56-5.36 2.27-16 4.71-20.6 4.71-4.56 0-15.2-2.43-20.6-4.71-4.58-1.94-1.06 1.71 6.48 6.72 7.8 5.18 10.7 9.82 12.1 19.7.513 3.48 1.4 6.33 1.96 6.33.567 0 1.45-2.85 1.96-6.33zm12.5-38.3c8.27-2.92 26.7-17.5 29-22.9 5.59-13.4 9.78-42 7.94-54.3-1.14-7.62-2.62-6.99-7.04 3-1.82 4.12-4.01 7.94-4.85 8.48-.845.539-5.44.894-10.2.790l-8.67-.189 9.11-.790c10.1-.874 12.2-2.5 13.7-10.4 1.04-5.52-1.76-9.09-8.74-11.2-5.96-1.78-15.1.324-17.7 4.09-1.18 1.68-2.4 2.16-3.61 1.41-1.38-.854-.716-1.81 2.73-3.93 7.17-4.41 14.1-5.75 24.2-4.73 9.13.917 9.21.897 8.77-2.21-.319-2.25-1.58-3.38-4.45-3.99-7.26-1.54-18.6-1.08-24 .980-8.6 3.27-10 3.57-10 2.16 0-1.9 8.77-5.82 14.8-6.63 2.83-.379 8.8.0311 13.3.911 4.47.880 8.4 1.33 8.73 1.01.581-.581-5.58-20.1-8.99-28.5-3.86-9.51-30.3-15.3-50.4-10.9-5.48 1.18-7.78 2.63-12.6 8.02-5.82 6.48-23.8 32-23.1 32.7.208.208 3.3-.499 6.86-1.57 3.57-1.07 9.11-1.95 12.3-1.95 5.58 0 15.3 3.78 17.1 6.65 1.31 2.12-1.62 1.59-7.32-1.31-8.77-4.47-28.3-2.69-31.8 2.9-1.74 2.78-1.69 2.8 8.93 1.87 11.7-1.02 18.2.175 25.5 4.67 3.45 2.12 4.11 3.07 2.73 3.93-1.21.748-2.43.272-3.61-1.41-2.64-3.77-11.8-5.87-17.7-4.09-6.98 2.09-9.78 5.67-8.74 11.2 1.48 7.9 3.63 9.53 13.7 10.4l9.11.790-8.67.189c-4.77.104-9.34-.251-10.2-.790-.818-.539-3.07-4.34-5-8.44-4.33-9.19-8.41-13.4-10.2-10.5-1.73 2.74-1.58 5.34 1.29 21.9 1.4 8.07 2.96 18.8 3.49 23.8.726 6.98 1.92 10.5 5.11 15.3 4.87 7.25 21.8 20.7 29.5 23.5 7.04 2.51 22.9 2.6 29.8.172zm-30.1-25c-2.86-3.7-3.19-5.03-1.23-5.03 1.09 0 2.38 1.25 2.87 2.77 1.06 3.36.170 4.6-1.63 2.27zm30.3-7.7c.785-1.47 1.65-2.67 1.92-2.67.272 0 .181 1.2-.202 2.67-.384 1.47-1.25 2.67-1.92 2.67-.677 0-.586-1.19.202-2.67zm-20-10c-3.15-1.8-2.85-1.91 5.33-1.91s8.48.107 5.33 1.91c-1.83 1.05-4.23 1.91-5.33 1.91s-3.5-.857-5.33-1.91zm-29.5-27.4-3.15-2.73 4.27 2.07c5.53 2.68 7.5 2.6 10.2-.376 2.82-3.12 1.34-4.71-2.12-2.28-3 2.1-6.34 1.35-6.34-1.42 0-1.02-.9-1.86-2-1.86s-2 .72-2 1.6c0 1.1-.428 1.17-1.38.217-3.37-3.37 3.02-11.2 9.16-11.2 2.1 0 2.58.849 2.42 4.33-.161 3.55.345 4.41 2.8 4.76 3.85.547 3.82 3.01-.0859 6.67-3.87 3.63-7.71 3.69-11.8.166zm58.1.624c-2.55-2.08-2.55-2.1.0785-1.16 5.58 1.98 8.08 2.03 10.5.218 3.82-2.82 1.47-5.45-2.53-2.83-2.98 1.95-3.3 1.9-4.92-.681-2.11-3.38-4.68-3.59-5.5-.437-.335 1.28-.679.407-.764-1.95-.183-5.06 4.07-9.72 8.85-9.72 2.48 0 3 .537 2.39 2.48-1.14 3.58.495 6.85 3.42 6.85 3.53 0 3.25 4.67-.439 7.26-3.79 2.65-7.83 2.64-11.1-.0332zm-11-100c-.489-.489-.889-1.51-.889-2.27 0-.835.621-.757 1.58.2.868.868 1.27 1.89.889 2.27-.379.379-1.09.289-1.58-.2zm-10.6-3.99c.917-.370 2.42-.370 3.33 0 .917.370.167.673-1.67.673-1.83 0-2.58-.303-1.67-.673zm14.8-10.7c.962-.385 2.11-.338 2.56.105.443.443-.344.758-1.75 0.7-1.55-.0640-1.87-.380-.806-.806z" fill="#4c342a"/>
  <path d="m25.4 265c-.213-6.04 4.03-18.1 8.6-24.4 3.36-4.63 6.67-7.24 12.7-10l8.12-3.73-.827-5.33c-6.6-43-7.9-59-7-90 1.5-46.6 7.1-68 24.2-90.7 10.6-14.1 28.8-26.4 41.8-27.8l5.14-.585-4.99 1.29c-21.2 5.5-42.3 26.1-52.2 50.9-9.5 24-14.7 70.9-11.6 106 2.21 25.6 5.67 50 6.99 49.2.636-.393 1.21-2.03 1.28-3.64.0689-1.61.914.979 1.88 5.75 3 14.8 9.5 27 21.1 39.7 3.32 3.61 4.49 5.67 3.22 5.67-2.31 0-11.1-9.19-16.3-17-1.95-2.95-5-9.48-6.78-14.5l-3.23-9.15-.0281 5.89c-.0312 6.52-.881 6.89-1.75.754-.466-3.28-1.13-3.91-3.75-3.62-4.63.510-13.2 6.9-17.5 13-2.03 2.91-4.85 9.8-6.26 15.3s-2.61 8.54-2.67 6.75zm64.7-8.42c-6.44-20.3-7.6-30-8.8-73.7-1.04-38.1-3.49-68.2-5.15-63.3-.377 1.1-2.08 6.5-3.79 12s-2.77 7.73-2.36 4.96c3.27-22 20-52.2 41.9-76.1 15.4-16.7 26.8-21.2 34.1-13.4 1.8 1.94 3.27 4.41 3.27 5.48 0 1.48.883 1.71 3.67.950 8.92-2.43 15.2 1.38 21 12.7 11.4 22.4 21 70.7 16.7 84-.767 2.4-1.14.520-1.34-6.67l-.270-10-1.74 12.7c-.957 7.01-4.2 22.1-7.2 33.5-4.79 18.2-5.44 22.4-5.35 34.6.0681 8.69 1.01 17.4 2.51 23.2 1.33 5.18 2.47 7.81 2.56 5.91.174-3.9 4.09-17.8 4.81-17 .262.262-.370 4.07-1.4 8.46s-1.89 10.3-1.9 13.1c-.012 2.79-.532 4.76-1.16 4.38-1.04-.642-5.01-13.6-8.19-26.8-1.13-4.66-1.21-4.24-.629 3.33.363 4.77 1.55 12 2.63 16 2.24 8.36 2.66 22.7.665 22.7-.733 0-1.4-3.15-1.49-7-.0868-3.85-.537-8.77-1-10.9l-.843-3.93-1.67 3.66c-1.64 3.61-1.71 3.62-4.87 1.26-1.76-1.32-4.3-4.02-5.63-6-2.22-3.29-2.63-3.42-4.71-1.54-1.25 1.13-1.96 2.88-1.58 3.88.384 1-.831 5.16-2.7 9.25-1.87 4.08-3.06 8.31-2.65 9.39.630 1.64-1.31 1.96-11.9 1.96h-12.7l-.691-3.67c-1.68-8.91-5.03-18.3-7.33-20.6-2.45-2.45-2.57-2.4-5.63 2.07-1.72 2.51-4.21 5.25-5.53 6.07-2.07 1.29-2.78.744-5.2-4-1.54-3.02-4.62-7.97-6.83-11l-4.03-5.5.925 6c.961 6.23 5.43 24.9 6.84 28.6.444 1.16.214 2.1-.511 2.1-.726 0-2.89-4.95-4.82-11zm21.1-17.6c4.08-6.19 8.76-12.2 10.4-13.4l3.01-2.15-2.84-2.26c-1.56-1.25-5.64-3.92-9.07-5.94-7.47-4.41-10.9-10.8-8.71-16.5 2.41-6.34-2.04-1.28-6.01 6.83-2.07 4.23-5.18 8.22-7.46 9.56-5.52 3.26-5.35 9.35.479 17 2.42 3.16 5.87 8.53 7.66 11.9 1.8 3.39 3.68 6.17 4.19 6.17.505 0 4.25-5.06 8.33-11.3zm57.4 8.92c.527-1.28 1.14-11.6 1.35-23 0.3-15.7-.0523-21.5-1.47-24.2-2.64-5.1-4.62-5.91-2.82-1.15 1.28 3.39 1.1 4.53-1.22 7.68-1.5 2.03-5.62 5.62-9.17 7.97s-7.38 5.2-8.52 6.34c-1.87 1.87-1.78 2.27.898 4.14 1.63 1.14 6.3 7.14 10.4 13.3 4.08 6.19 7.91 11.3 8.52 11.3.609 0 1.54-1.05 2.06-2.33zm-32-13.3c1.48-10 4.47-14.9 12.2-19.8 7.34-4.7 11.1-8.55 6.41-6.56-5.36 2.27-16 4.71-20.6 4.71-4.56 0-15.2-2.43-20.6-4.71-4.58-1.94-1.06 1.71 6.48 6.72 7.8 5.18 10.7 9.82 12.1 19.7.513 3.48 1.4 6.33 1.96 6.33.567 0 1.45-2.85 1.96-6.33zm12.5-38.3c8.27-2.92 26.7-17.5 29-22.9 5.6-13.4 9.78-42 7.93-54.4-.819-5.46-1.21-6.06-3-4.58-1.13.938-2.55 2.93-3.15 4.42-1 2.47-1.11 2.41-1.18-.721-.249-10.1-20.9-14.1-27.1-5.22-1.15 1.63-2.36 2.09-3.56 1.35-1.38-.854-.716-1.81 2.73-3.93 7.97-4.9 18-6.13 28.9-3.57 3.69.865 4.33.650 4.33-1.45 0-3.66-4.91-20.7-8.98-31.2-3.3-8.48-4.01-9.35-9.75-11.8-12.7-5.45-28.7-6.96-42.5-4-5.44 1.17-7.78 2.64-12.4 7.82-6.26 6.97-17 22.1-23.4 33-3.86 6.56-3.94 6.98-1.5 7.75 1.42.451 3.16.461 3.87.0223 2.6-1.61 15-2.08 19.8-.765 7.48 2.05 14.5 6.69 12.2 8.08-1.21.745-2.42.287-3.56-1.35-2.37-3.38-10.4-5.81-16.1-4.88-5.86.951-11 5.61-11 9.97 0 3.06-.276 2.92-3.79-1.93-2.08-2.88-4.07-6.07-4.41-7.1-.385-1.15-1.3-.224-2.4 2.43-1.54 3.72-1.4 6.59 1.02 21.2 1.54 9.31 3.21 20.7 3.71 25.4.672 6.26 1.99 10.1 5.05 14.6 4.85 7.23 21.8 20.7 29.5 23.5 7.04 2.51 22.9 2.6 29.8.172zm-19.8-42.7c-3.15-1.8-2.85-1.91 5.33-1.91s8.48.107 5.33 1.91c-1.83 1.05-4.23 1.91-5.33 1.91s-3.5-.857-5.33-1.91zm-32.9-24c-2.04-1.32-4.86-7.01-3.94-7.93.426-.426.775-.0747.775.781s1.25 2.81 2.78 4.33c2.8 2.8 3.03 4.54.383 2.82zm11.8.153c1.28-.335 3.38-.335 4.67 0 1.28.335.233.610-2.33.610-2.57 0-3.62-.274-2.33-.610zm50.7-.005c1.3-.338 3.1-.316 4 .0494.903.365-.159.642-2.36.615-2.2-.0272-2.94-.326-1.64-.664zm14.3-.451c0-.710.581-1.29 1.29-1.29.710 0 2.19-1.65 3.28-3.67 2.35-4.33 2.76-3.25.582 1.53-1.54 3.38-5.15 5.78-5.15 3.43zm-68.4-7.51c-1.57-1.57-.950-5.47.986-6.21 1.03-.396 2.92.440 4.21 1.86 2.1 2.32 1.76 3.18-1.08 2.73-.55-.0868-1 .442-1 1.18 0 1.52-1.78 1.77-3.11.444zm57-.955c-1.69-4.41 3.03-6.55 6.15-2.79 1.93 2.33 1.75 2.63-2.37 3.89-2.09.643-3.24.307-3.78-1.1zm-43.7-21c-2.81-1.48-7.61-3.22-10.7-3.86l-5.56-1.16 6 .197c5.83.192 16 4.36 16 6.55 0 1.38.249 1.45-5.78-1.73zm29.8 1.45c0-1.81 7.04-4.79 14-5.92 4.27-.693 4.86-.564 2.94.643-1.32.830-3.95 1.79-5.85 2.14-1.9.345-5.17 1.52-7.28 2.6-2.39 1.24-3.82 1.44-3.82.540zm-50-3.7c.962-.385 2.11-.338 2.56.105.443.443-.344.758-1.75 0.7-1.55-.0640-1.87-.380-.806-.806zm72.2-.298c0-.665 1.2-.895 2.67-.511s2.67.927 2.67 1.21c0 .281-1.2.511-2.67.511s-2.67-.544-2.67-1.21zm13.3 170c0-.278 2.06-3.93 4.58-8.11 6.14-10.2 13.6-28.2 17.4-42.1 3.76-13.6 4.38-10.7.795 3.78-1.39 5.62-2.87 12.6-3.28 15.6l-.753 5.33 2.54-5.36c4.33-9.15 9.07-27.5 12.1-46.8 3.1-19.9 5.22-70.4 3.24-77.3l-1.09-3.83-.924 4.67c-.618 3.12-.982.201-1.1-8.83-.455-35-9.36-60.4-27.6-78.8-5.97-6.03-8.06-8.77-5.58-7.33 15.6 9.08 29.6 38 36.5 75.6 3.05 16.6 3.53 72 .776 90-2.87 18.7-10.7 46.5-15.8 56.3-4.79 9.12-7.38 11.6-6.23 6.06.352-1.72-.274-1.07-1.47 1.51-3.48 7.54-11.5 20.2-12.8 20.2-.680 0-1.24-.227-1.24-.505zm58.2-9.27c-3.58-15.2-10.3-23.2-23.5-28-5.5-2.02-5.61-2.15-1.33-1.5 12.1 1.83 23.6 14.5 26.7 29.5 2.34 11.3.793 11.3-1.86.012zm-184-52c0-2.57.274-3.62.610-2.33.335 1.28.335 3.38 0 4.67-.335 1.28-.610.233-.610-2.33zm64.7-194c.917-.370 2.42-.370 3.33 0 .917.370.167.673-1.67.673-1.83 0-2.58-.303-1.67-.673z" fill="#532611"/>
  <path d="m25.4 265c.0640-1.55.380-1.87.806-.806.385.962.338 2.11-.105 2.56-.443.443-.758-.344-0.7-1.75zm52.2-2.89c-7.32-7.82-14.9-20.2-17.3-28.3-2.13-7.12-2.25-7.25-3.13-3.4-.724 3.15-.951 3.36-1.08 1-.0868-1.65-.608-3-1.16-3-.55-.003-1.06-2.25-1.14-5-.0772-2.75-1.11-11.3-2.29-19-7.1-46-6.1-100 2.5-129 4.9-17.4 17.9-37.5 30.4-47.6 8.3-6.7 21.6-13.1 28.6-13.9l5.14-.585-4.99 1.29c-21.2 5.5-42.3 26.1-52.2 50.9-9.5 24-14.7 70.9-11.6 106 2.21 25.6 5.67 50 6.99 49.2.636-.393 1.21-2.03 1.28-3.64.0689-1.61.924 1.09 1.9 5.99 2.91 14.6 9.35 26.7 21.1 39.4 2.87 3.12 4.47 5.67 3.56 5.67-.911 0-3.76-2.25-6.34-5zm12.5-6c-6.44-20.3-7.6-30-8.8-73.7-.622-22.7-1.9-46.7-2.83-53.3l-1.7-12-2.96 9.33c-1.63 5.13-3.02 8.36-3.08 7.17-.221-4.11 6.73-23.2 12.1-33.2 10.9-20.3 31.9-46.1 43.7-53.6 7.89-5.01 15-5.1 19.5-.237 1.8 1.94 3.27 4.41 3.27 5.48 0 1.48.883 1.71 3.67.950 8.92-2.43 15.2 1.38 21 12.7 11.4 22.4 21 70.7 16.7 84-.767 2.4-1.14.520-1.34-6.67l-.270-10-1.74 12.7c-.957 7.01-4.2 22.1-7.2 33.5-4.79 18.2-5.44 22.4-5.35 34.6.0681 8.69 1.01 17.4 2.51 23.2 1.33 5.18 2.47 7.81 2.56 5.91.183-4.09 4.1-17.7 4.87-17 .297.297-.0856 2.81-.850 5.57-.764 2.77-1.85 8.73-2.41 13.3-.977 7.91-1.08 8.08-2.59 4.43-3.53-8.52-7.1-24.8-7.6-34.9-.631-12.4-2.21-17-6.69-19.4-1.78-.955-3.25-2.18-3.25-2.73 0-.547 3.08-3.26 6.85-6.02 7.62-5.6 9.98-9.89 14.6-26.5 2.1-7.64 3.12-15.9 3.58-29 .684-19.4.109-21.2-4.89-14.8-2.44 3.1-2.76 3.21-2.76.899 0-9.65-21.2-12.8-27.3-4.01-1.66 2.36-2 2.47-2 .592 0-4.01 10-7.96 19.8-7.81 4.78.0717 9.77.474 11.1.895s2.94.439 3.58.0398c2.66-1.64-8.64-37.6-13.3-42.2-6.64-6.64-33.7-10.3-48.8-6.65-6.19 1.5-7.73 2.65-14.1 10.6-7.7 9.51-19.2 26.2-22.7 33.1-2.76 5.37-1.35 6.04 9.55 4.49 11.7-1.66 25.6 2.48 25.6 7.63 0 1.86-.355 1.76-2-.599-2.61-3.73-10.4-6.23-16.3-5.27-5.55.901-11 5.55-11 9.39 0 2.3-.597 2-3.86-1.9-2.23-2.67-3.3-4.97-2.52-5.45.844-.527.737-1.2-.289-1.84-1.81-1.12-3.58 1.02-4.88 5.91-.472 1.78.414 11.7 1.97 22 1.55 10.3 3.22 22.2 3.69 26.4 1.05 9.37 5.37 15.8 15.8 23.7 4.06 3.07 7.38 6.06 7.38 6.66 0 .596-1.26 1.48-2.8 1.97-1.69.537-4.01 3.64-5.87 7.84-1.69 3.82-5.23 8.85-7.87 11.2-3.77 3.31-4.79 5.19-4.79 8.84 0 2.55.544 4.96 1.21 5.38.664.411.896 1.94.514 3.4-.817 3.13 1.7 17.3 5.02 28.3 1.29 4.26 1.87 7.75 1.29 7.75s-2.63-4.95-4.55-11zm33 8.92c.440-1.15-.0444-3.72-1.08-5.71-1.03-2-2.3-5.9-2.82-8.68-.521-2.78-2.35-6.72-4.07-8.76l-3.12-3.71 3.59-5.53c1.97-3.04 4.02-5.53 4.55-5.53.529 0 3.54 3 6.7 6.67s6.64 6.67 7.74 6.67 4.58-3 7.74-6.67 6.17-6.67 6.7-6.67c.529 0 2.59 2.51 4.59 5.59 3.57 5.5 3.58 5.63 1.1 8.33-1.39 1.51-2.51 4.35-2.49 6.31.0164 1.96-1.25 6.2-2.8 9.42-1.56 3.22-2.83 6.86-2.83 8.1 0 1.94-1.65 2.25-12.1 2.25-10.5 0-12-.288-11.3-2.08zm50.2-5.59c0-4.22-.516-9.47-1.15-11.7-.630-2.2-1.5-8.79-1.93-14.7l-.782-10.7 1.8 9.43c.989 5.18 2.45 11.8 3.25 14.7 1.83 6.58 1.92 20.6.137 20.6-.734 0-1.33-3.45-1.33-7.68zm9.33 7.17c0-.278 2.06-3.93 4.58-8.11 6.14-10.2 13.6-28.2 17.4-42.1 3.76-13.6 4.38-10.7.795 3.78-5.86 23.7-4.48 26.2 2.52 4.6 7.66-23.6 12-57 12-91.9.001-20.8-1.18-29.4-2.8-20.4-.519 2.87-.910-.519-1.02-8.83-.455-35-9.36-60.4-27.6-78.8-5.97-6.03-8.06-8.77-5.58-7.33 15.6 9.08 29.6 38 36.5 75.6 3.06 16.7 3.53 72.1.768 90-3.89 25.2-12.7 52.5-20.3 62.7-1.2 1.6-1.38 1.27-.908-1.67.322-2.02.354-3.67.0713-3.67s-1.13 1.65-1.88 3.67c-2.14 5.74-12.3 23-13.5 23-.603 0-1.1-.227-1.1-.505zm59-6.96c-.886-4.23-1.39-7.91-1.11-8.18.764-.764 3.78 12.7 3.22 14.4-.271.813-1.22-1.98-2.1-6.2zm-215 0c1.59-7.2 8.69-19.8 13-23l4.3-3.24-4.85 5.24c-5.72 6.17-8.57 11.5-9.85 18.3-.513 2.73-1.49 5.31-2.17 5.73-.717.443-.885-.823-.401-3.01zm211-13c-.899-2.17-2.78-4.98-4.18-6.25s-2.53-2.96-2.52-3.76c.0359-1.77 4.6 3.75 7.44 9 1.13 2.08 1.79 4.05 1.47 4.38-.322.322-1.32-1.19-2.22-3.36zm-146-11c-1.26-1.92-1.63-3.09-.827-2.59 1.54.951 4.64 6.09 3.68 6.09-.308 0-1.59-1.57-2.85-3.5zm46.2-1.84c0-1.83.303-2.58.673-1.67.370.917.370 2.42 0 3.33-.370.917-.673.167-.673-1.67zm87.1-.0904c-2.2-1.41-3.32-2.57-2.48-2.57.835-.004 2.94 1.17 4.67 2.62 3.96 3.3 3.01 3.28-2.19-.0461zm-93.9-.687c.064-1.55.380-1.87.806-.806.385.962.338 2.11-.105 2.56-.443.443-.758-.344-0.7-1.75zm-85.8-.721c.904-.911 1.98-1.32 2.39-.910.411.411-.329 1.16-1.64 1.66-1.9.724-2.05.570-.746-.746zm83.5-6.2c-.865-2.29-4.83-6.18-9.94-9.74-9.44-6.59-13-11.4-11.3-15.3 0.9-2.08 1.35-1.49 2.43 3.22 1.14 4.95 2.43 6.5 9.12 11.1 7.87 5.34 12.4 10.6 11.6 13.2-.263.789-1.13-.282-1.92-2.38zm11 1.03c1.03-4.24 4.48-8.02 10.1-11.1 4.24-2.3 4.29-2.3 1.08 0-5.05 3.62-9.33 8.1-9.33 9.74 0 .810.693 1.04 1.54.521.961-.594 1.18-.365.575.610-.531.859-1.47 1.25-2.09.864-.620-.383-1.47.0571-1.9.978-.423.921-.405.175.0393-1.66zm17.4-15.9c.859-1.14 1.76-4.17 2-6.74.462-4.92 2.82-5.93 3.52-1.5.234 1.48-1.21 4.28-3.33 6.46-2.06 2.12-3.04 2.92-2.18 1.78zm3.99-9.74c-.370-.917-.673-.167-.673 1.67 0 1.83.303 2.58.673 1.67.370-.917.370-2.42 0-3.33zm-105 5.67c0-2.57.274-3.62.610-2.33.335 1.28.335 3.38 0 4.67-.335 1.28-.610.233-.610-2.33zm13.1-67.4c.0640-1.55.380-1.87.806-.806.385.962.338 2.11-.105 2.56-.443.443-.758-.344-0.7-1.75zm24.2-11c-2.45-2.95-1.06-3.29 1.69-.412 1.28 1.34 1.81 2.44 1.16 2.44-.644 0-1.93-.914-2.86-2.03zm81-.412c1.28-1.34 2.57-2.26 2.86-2.03.788.620-2.68 4.48-4.02 4.48-.644 0-.120-1.1 1.16-2.44zm-70.8-5.11c-1.56-1.56-.957-5.47.949-6.2 1.01-.388 2.51-.032 3.33.791 1.85 1.85 1.99 5.42.162 4.3-.733-.453-1.33-.189-1.33.588 0 1.58-1.76 1.88-3.11.523zm57-.955c-1.69-4.41 3.03-6.55 6.15-2.79 1.93 2.33 1.75 2.63-2.37 3.89-2.09.643-3.24.307-3.78-1.1zm-43.7-21c-2.81-1.45-7.61-3.12-10.7-3.73-5.54-1.1-5.54-1.1-.890-1.14 4.64-.0444 10.2 1.66 15.3 4.65 4.68 2.76 1.53 2.95-3.77.220zm29.8 1.36c0-1.71 7.35-4.71 14-5.72 5.78-.877 5-.407-7 4.27-3.85 1.5-7 2.15-7 1.44zm-49-4.7c.962-.385 2.11-.338 2.56.105.443.443-.344.758-1.75 0.7-1.55-.0640-1.87-.380-.806-.806zm73.2.0278c.917-.370 2.42-.370 3.33 0 .917.370.167.673-1.67.673-1.83 0-2.58-.303-1.67-.673zm-49-85.3c.917-.370 2.42-.370 3.33 0 .917.370.167.673-1.67.673-1.83 0-2.58-.303-1.67-.673z" fill="#291711"/>
 </g>
</svg>
