<?xml version="1.0" encoding="UTF-8" standalone="no"?>
<svg xmlns:rdf="http://www.w3.org/1999/02/22-rdf-syntax-ns#" xmlns="http://www.w3.org/2000/svg" height="200" viewBox="0 0 200 200" width="200" version="1.1" xmlns:cc="http://creativecommons.org/ns#" xmlns:dc="http://purl.org/dc/elements/1.1/">
 <path d="m12.9 196c.842-5.27 4.65-12.7 8.26-16.1 4.68-4.43 13.2-7.66 24.9-9.48l10.9-1.69 4.75-5.07c2.95-3.15 5.58-7.29 6.94-10.9 1.2-3.22 2.76-6.06 3.45-6.33.844-.324-.258-2.45-3.3-6.37-2.8-3.61-5.63-8.89-7.31-13.7-2.16-6.12-3.2-7.85-4.89-8.11-1.44-.216-3.15-2.2-5.18-6-1.6-3-4.2-8-5.6-10-2.2-3.7-2.7-5.7-2.7-11.3-.0145-5.84.303-7.1 2.17-8.61l2.19-1.77-2.5-7.89c-1.5-4.3-3.2-8.9-4-10.2-1.3-2-1.3-2.2.1-2.2 1.16 0 1.42-.508.917-1.75-.392-.962-1.41-3.73-2.25-6.16-1.54-4.39-1.53-4.41 1.17-6.38 2.38-1.73 2.63-2.44 2.08-5.71-.469-2.77-.258-3.88.818-4.29.797-.306 2.66-3.74 4.15-7.62 1.83-4.79 3.64-7.74 5.62-9.14 1.6-1.14 2.92-2.71 2.92-3.49 0-1.55 1.27-1.94 11.3-3.47 3.75-.570 9.35-1.7 12.5-2.51 7.97-2.08 12.2-1.84 18.4 1.02 6.21 2.89 9.75 3.13 14 .938 2.94-1.52 3.37-1.43 12.7 2.51 17 7.18 24.2 14.6 24.2 25.2 0 3.1.907 6.51 2.66 10 3.15 6.28 4.13 16.3 2.46 25.2-.987 5.3-.901 6.1.894 8.38 2.67 3.4 2.67 12.3-.0114 17.8-4.71 9.64-9.66 17-11.6 17.3-1.51.221-2.5 1.76-3.82 6-2.45 7.82-4.99 12.6-9.21 17.3-2.8 3.09-3.33 4.26-2.44 5.33.624.752 1.8 3.56 2.62 6.25.962 3.16 3.11 6.57 6.09 9.69 4.43 4.62 5.02 4.9 15.2 7.18 17.6 3.93 24.2 7.19 29.7 14.6 2.25 3.05 6.42 12.7 6.42 14.9 0 .609-32.3.962-88.1.962h-86.7zm70.3-102c1.55-.588 3.62-1.8 4.61-2.69 1.72-1.55 1.69-1.68-.498-2.89-3.24-1.8-3.62-1.67-3.98 1.31-.668 5.59-8.36 5.86-9.47.324-.7-3.3-2.4-3.9-4.4-1.5-.997 1.2-.979 1.82.0928 3.11 2.7 3.26 8.51 4.25 13.6 2.32zm43.2.438c3.76-.752 5.82-3.78 4.04-5.93-1.6-1.92-2.95-1.82-2.95.235 0 2.38-2.95 5.33-5.33 5.33-2.6 0-5.67-2.79-5.67-5.15 0-2.2-.840-2.28-3.4-.344-4.46 3.37 4.98 7.53 13.3 5.87zm0-7.3c0-.55-.477-1-1.06-1-.582 0-.781.45-.441 1s.816 1 1.06 1c.243 0 .441-.45.441-1z" fill="#f9c1ad"/>
 <path d="m13 196c2.85-15.5 12.2-22.7 33.5-25.8 6.62-.978 12-2.13 12-2.57 0-.435 1.98-3.02 4.39-5.74 2.42-2.72 4.95-6.67 5.62-8.78.676-2.11 2.13-4.83 3.24-6.04l2.01-2.21-4.45-4.95c-3.3-4-5.1-7-7.3-13-2.2-7-3.4-9-4.6-9-2 0-3.3-2-8.9-11-6.4-11-7.5-20.4-3-25 1.8-1.8 1.8-2-.5-9.5-1.3-4.3-3.1-8.8-3.9-10.1-1.4-2.1-1.4-2.4-.1-2.4 1.88 0 1.91.447-.463-6.46l-1.99-5.77 2.57-2.02c2.13-1.67 2.47-2.58 1.97-5.24-.410-2.19-.144-3.6.829-4.41.788-.654 2.64-4.2 4.11-7.87 1.82-4.54 4.08-8.01 7.07-10.8 3.74-3.54 5.24-4.25 10.2-4.85 3.17-.389 9.37-1.56 13.8-2.61 10.5-2.49 13.2-2.41 19.7.573 6.2 2.89 9.75 3.13 14 .957 2.89-1.5 3.37-1.4 12.9 2.64 11 4.69 18.5 9.81 21.3 14.7 1.05 1.79 2.16 6.06 2.47 9.49.322 3.55 1.59 8.27 2.94 11 2.98 5.94 3.92 15.4 2.4 24.2-1.08 6.21-1.02 6.89.870 9.29 3.64 4.63 2.4 15.7-2.51 22.4-1.41 1.9-3.41 5.35-4.44 7.67-1.28 2.87-2.68 4.41-4.4 4.85-2.05.516-2.93 1.87-4.71 7.29-2.87 8.73-4.33 11.5-8.47 16.1-3.33 3.68-3.4 3.92-1.95 6.69.824 1.58 1.52 3.55 1.54 4.37.0633 2.28 2.03 5.3 6.84 10.5 4.28 4.63 4.62 4.78 16.7 7.55 6.76 1.55 14.5 3.94 17.2 5.31 8.01 4.06 14.5 12.6 16.7 21.9l.640 2.75h-177zm96-68.2c.55-.121-.912-1.07-3.25-2.11-4.26-1.89-5.57-4.53-2.78-5.6.808-.310 3.53.225 6.06 1.19 4.39 1.68 4.66 1.68 6.28-.046 1.24-1.32 1.29-1.58.193-.966-1.28.709-1.3.589-.171-.806 2.02-2.49 1.27-10.8-1.24-13.7-1.16-1.34-1.42-2.03-.588-1.56 1.29.734 1.31.618.137-.828-.750-.925-1.77-1.43-2.27-1.12-.501.310-.788.192-.637-.261s-.0155-.824-.370-.824c-.355 0-1.59-.857-2.75-1.9-1.16-1.05-2.1-1.52-2.1-1.05s-.519.336-1.15-.298c-.793-.793-1.73-.845-3-.165-1.54.826-1.85 2.22-1.85 8.45v8h7.46l-3.14 3.14-3.14 3.14-3.1-2.2c-3.53-2.51-3.71-3.92-1.56-12.2.845-3.26 1.29-6.32.996-6.81-.868-1.4-3.36-.611-5.59 1.78-1.13 1.22-2.56 1.91-3.16 1.54-.615-.380-.813-.220-.451.365.354.573-.0266 1.6-.845 2.28-.819.680-1.49 1.88-1.49 2.67s-.410 1.18-.912.873c-1.04-.640-.905 1.35.207 3.13.406.650.259 1.48-.327 1.84-.749.463-.739 1.05.0322 1.98.797.961.793 1.51-.0166 2.01-.775.479-.638 1.21.454 2.42.862.953 1.3 2 .977 2.32-.906.906 3.73.130 7.01-1.17 3.58-1.42 5.58-.776 5.58 1.81 0 1.34-.909 2.15-2.92 2.59-1.6.352-3.12 1.18-3.37 1.83-.330.863 1.77 1.16 7.67 1.09 4.47-.0554 8.57-0.2 9.12-.321zm-25.2-34c2-.6 4.2-1.9 4.7-3 .9-1.5.5-2.2-1.9-3.9-1.6-1.2-3-2.1-3.3-2.1-.217 0-.221 1.49-.0089 3.31.249 2.14-.156 3.76-1.15 4.58-1.9 1.58-6.24 1.04-5.87-.730.151-.715-.190-1.01-.757-.663-1.62 1-2.4-2.36-1.17-5.05 1.52-3.33-.691-3.3-3.84.0539-5.44 5.79 2.71 10.4 13.2 7.46zm44.6-.0278c4.11-1.43 4.57-4.69 1.06-7.67-3.18-2.71-4.01-2.84-3.14-.5.574 1.53.446 1.58-1.03.378-1.24-1.01-1.69-1.05-1.69-.156 0 .669.9 1.45 2 1.74 2.42.632 2.47 1.17.403 4.12-1.76 2.51-7.14 2.78-6.63.341.151-.728-.139-1.07-.645-.756-1.28.794-2.11-1.79-1.41-4.44.503-1.93.334-2.08-1.32-1.17-6.15 3.38-6.23 5.06-.364 7.6 4.14 1.8 8.55 1.97 12.8.505zm-45.7-7.2c-.218-.653-.931-1.37-1.58-1.58-.731-.244-.954.214-.581 1.19.698 1.82 2.76 2.2 2.16.396zm21.7-9.96c.55-.325 1.83-.458 2.84-.295 1.01.162 1.57.0282 1.25-.298-.955-.955 2.57-4.27 3.79-3.57.614.350.778.264.364-.192s-.0584-1.6.789-2.53c2.08-2.29 2.54-8.25.890-11.4-.739-1.42-.912-2.32-.386-2 1.97 1.22.829-.243-3.19-4.07-2-2.1-3-3.2-3-2.4.742 1.33.629 1.33-.981.0210-2.28-1.85-10.3-2.08-11.7-.336-.590.711-1.41 1.09-1.81.835-.408-.252-1.82.726-3.14 2.17-1.32 1.45-1.72 2.26-.895 1.81.825-.452.375.448-1 2s-1.87 2.46-1.1 2.01c1.05-.608 1.17-.458.5.589-1.24 1.92-1.32 7.13-.132 8.65.535.688.604 1.25.154 1.25s.628 1.49 2.4 3.32c1.77 1.82 2.96 3.57 2.65 3.88-.311.311.813.449 2.5.305 1.69-.143 3.27.0662 3.51.466.517.836 4.54.757 6.02-.119z" fill="#f8bca6"/>
 <path d="m13 196c2.85-15.5 12.2-22.7 33.5-25.8 6.62-.978 12-2.13 12-2.57 0-.435 1.98-3.02 4.39-5.74 2.42-2.72 4.95-6.67 5.62-8.78.676-2.11 2.14-4.83 3.25-6.05l2.02-2.22-3.6-3.99c-4.2-5-6.8-9-9.2-17-1.3-4-2.3-6-3.6-6-1.83 0-5.89-4.44-5.89-6.44 0-.642-1.4-3.07-3.11-5.39-4.32-5.88-5.97-11.9-4.98-18.2.440-2.78 1.53-5.61 2.43-6.28 1.49-1.11 1.42-1.89-.812-9.07-1.34-4.32-3.14-8.93-4.01-10.2-1.3-2.1-1.3-2.4 0-2.4 1.88 0 1.91.447-.463-6.46l-1.99-5.77 2.57-2.02c2.13-1.67 2.47-2.58 1.97-5.24-.410-2.19-.144-3.6.829-4.41.788-.654 2.64-4.2 4.11-7.87 1.82-4.54 4.08-8.01 7.07-10.8 3.74-3.54 5.24-4.25 10.2-4.85 3.17-.389 9.37-1.56 13.8-2.61 10.5-2.49 13.2-2.41 19.7.573 6.2 2.89 9.75 3.13 14 .957 2.89-1.5 3.37-1.4 12.9 2.64 11 4.69 18.5 9.81 21.3 14.7 1.05 1.79 2.16 6.06 2.47 9.49.322 3.55 1.59 8.27 2.94 11 2.99 5.96 3.92 15.4 2.39 24.3-1.03 5.94-.979 7 .455 8.58 3.8 4.2 2.6 16.8-2.21 23.1-1.39 1.84-3.35 5.24-4.37 7.56-1.24 2.83-2.66 4.42-4.3 4.83-1.98.497-2.97 2.08-5.17 8.28-2.76 7.78-4.91 11.6-9.17 16.2-2.23 2.44-2.28 2.75-.845 5.5.837 1.6 1.54 3.59 1.56 4.42.0633 2.28 2.03 5.3 6.84 10.5 4.28 4.63 4.62 4.78 16.7 7.55 6.76 1.55 14.5 3.94 17.2 5.31 8.01 4.06 14.5 12.6 16.7 21.9l.640 2.75h-177zm87.2-7.44c-.319-.798-.556-.561-.604.604-.0434 1.05.193 1.64.525 1.31.332-.332.368-1.19.0789-1.92zm1.62-9.71c.751-6.34 3.75-12.2 7.92-15.5l3.28-2.58-4 1.1c-2.24.618-7.39.872-11.7.579l-7.71-.524 2.96 2.49c2.9 2.44 4.95 7.71 6.43 16.6.832 4.97 2.1 4 2.83-2.18zm-19.5-42c0-7.14.394-10.7 1.26-11.4 2.12-1.76 12.6-5.37 13.7-4.71 2.51 1.55.920 4.22-3.24 5.44-8.02 2.35-8.75 3.26-8.75 10.9 0 5.45.385 7.17 1.92 8.56 2.4 2.17 4.66 1.13 8.48-3.88 1.5-2 3.3-4 4-4 .682 0 3.23 2.02 5.66 4.5 5 5.09 6.24 5.43 8.44 2.28 1.9-2.71 2.1-12.7.307-15.1-.688-.923-3.7-2.51-6.69-3.52-5.74-1.94-6.59-2.79-5.12-5.12.989-1.56 4.74-.698 12.1 2.78l3.5 1.67.284 10.7c.156 5.91.689 10.7 1.18 10.7 1.94 0 11-9.95 13.4-14.8 2-7 10-32.9 9-35.5 0-1.1-1-10.3-1-20.5-1-18.7-2-23.9-6-26.8-1-.8-6-1.8-11-2.2-7-.6-13-1.9-18-3.5-20.6-7.6-25.3-8-35.6-3.2-9.7 4.4-9.7 4.5-11 19.2-1.31 14.8-.681 21.1 2 20 .929-.370 5.18-1.57 9.45-2.66 7.32-1.87 8.04-1.89 12.6-.370 5.1 1.69 8.73 4.71 7.68 6.4-.338.547-.157 1.28.402 1.62 2.2 1.36 1.05 6.3-2.06 8.92-2.64 2.22-4.02 2.59-9.75 2.57-3.67-.0084-7.35-.465-8.17-1.01-1.06-.707-.318-.821 2.54-.390 4.75.716 11.7-.918 13.6-3.21 1.15-1.39.929-1.94-1.63-3.99-3.86-3.09-4.14-3.02-3.68.919.249 2.14-.156 3.76-1.15 4.58-1.9 1.58-6.24 1.04-5.87-.730.151-.715-.190-1.01-.757-.663-1.4 1.1-2.1-2.3-.9-5 .9-1.9.8-2.4-.2-2.4-2.08 0-5.97 4.72-5.31 6.45 1.01 2.63-.707 1.72-3.61-1.92l-2.77-3.47 2.88-1.49c2.34-1.21 13.1-3.54 16.5-3.57.445-.0042.496-.514.113-1.13-.769-1.24-7.49-.772-16.2 1.14-4.88 1.07-5.25 1.36-5.25 4.1 0 1.62-.836 5.32-1.86 8.23l-1.86 5.28 4.42 15.4c2.43 8.48 5.61 17.6 7.07 20.3 2.4 5 11.3 14 13.3 14 .491 0 .892-4.67.892-10.4zm15.4-1.09c-1.82-1.38-1.71-1.47 1.81-1.5 3.83-.0325 5.02 1.27 2.17 2.36-2.02.777-1.73.841-3.98-.861zm10.8-3.55c-2.97-1.2-15.3-1.63-17.8-.620-1.66.667-1.59.441.423-1.33 2.09-1.84 3.2-2.05 8-1.5 6.49.732 11.8 2.22 12.6 3.54.694 1.12-.311 1.1-3.26-.09zm-11.9-14-2.9-3 2.3-10c3.4-14.7 4.5-15.1 3.3-2l-.6 11h3.15c3.75 0 3.95.902.835 3.83-2.81 2.64-2.52 2.65-6.13-.304zm13.9-24c-3.94-2.4-4.73-5.27-2.9-10.5 1.76-5.05 6.04-7.39 13.6-7.44 5.62-.0331 16.5 2.09 17.8 3.46.387.419-.421.502-1.8.186-5.73-1.32-17-1.94-17-.935 0 .566 3.26 1.76 7.25 2.65 10.3 2.3 10.6 2.61 7.26 6.97-3.07 4.02-3.82 4.44-3.32 1.86.190-.975-.837-2.75-2.32-4-3.2-2.71-4.03-2.84-3.16-.5.574 1.53.446 1.58-1.03.378-1.24-1.01-1.69-1.05-1.69-.156 0 .669.9 1.45 2 1.74 2.42.632 2.47 1.17.403 4.12-1.76 2.51-7.14 2.78-6.63.341.151-.728-.139-1.07-.645-.756-1.31.808-2.1-1.81-1.38-4.55.588-2.25.526-2.27-1.82-.774-1.33.854-2.99 1.89-3.68 2.29-4.21 2.48 6.4 7.42 13.5 6.28 2.57-.413 3.28-.302 2.25.354-2.77 1.76-13.2 1.15-16.7-.986zm-53.5 20c0-.843-.744-3.21-1.65-5.25-.910-2.04-1.57-4.09-1.48-4.54.0986-.453-.246-.562-.765-.240-.520.321-1.92-.658-3.12-2.18-2.1-2.5-2.2-5.7-.4-10.2.4-1.1.2-1.8-.5-1.8-.609 0-1.14.788-1.19 1.75-.0434.962-.298 1.21-.565.555-.267-.657-.0055-2.09.582-3.19.611-1.14.684-2.23.170-2.55-3-1.9-2 10.6 1.4 17.4 1.23 2.48 2.96 6.19 3.86 8.25 1.65 3.8 3.66 5.02 3.66 2.22zm89-1.42c.674-1.63 1.09-3.09.933-3.25-.161-.161.978-2.46 2.53-5.11 2.49-4.25 2.75-5.48 2.24-10.5-.381-3.69-.259-5.15.352-4.18.715 1.13.940.830.952-1.27.008-1.51-.382-2.75-.868-2.75-1.43 0-2 3.74-1.43 9.31.463 4.51.236 5.45-1.72 7.19l-2.26 2 1.21-2.3c.665-1.27 1.01-3.07.762-4-.355-1.35-.471-1.28-.563.330-.0638 1.12-.869 3.1-1.79 4.42-.920 1.31-1.15 2.06-.5 1.66.645-.399 1.17-.286 1.17.251s-.461 1.13-1.03 1.32c-.564.188-1.67 2.48-2.45 5.08-1.17 3.9-1.19 4.74-.0962 4.74.732 0 1.88-1.33 2.56-2.96zm-93.4-13.8c-.3-2.7-.6-3.1-.8-1.4-.4 2.2.2 5.2 1 5.2.182 0 .103-1.69-.175-3.75zm29.7-12.4c-.218-.653-.931-1.37-1.58-1.58-.731-.244-.954.214-.581 1.19.698 1.82 2.76 2.2 2.16.396z" fill="#eeac94"/>
 <path d="m13 196c2.85-15.5 12.2-22.7 33.5-25.8 6.62-.978 12-2.13 12-2.57 0-.435 1.98-3.02 4.39-5.74 2.42-2.72 4.95-6.67 5.62-8.78.676-2.11 2.14-4.83 3.25-6.05l2.02-2.22-3.6-3.99c-4.2-5-6.8-9-9.2-17-1.3-4-2.3-6-3.5-6-1 0-2.3-1-2.9-1-2.9-4-10.8-19.7-11.1-22.5-.6-6 .2-10.5 2-12.2 1.9-1.9 1.9-1.9-.5-9.7-1.3-4.3-3.1-8.9-3.9-10.2-1.4-2.1-1.4-2.4-.1-2.4 1.88 0 1.91.447-.463-6.46l-1.99-5.77 2.57-2.02c2.13-1.67 2.47-2.58 1.97-5.24-.410-2.19-.144-3.6.829-4.41.788-.654 2.64-4.2 4.11-7.87 1.82-4.54 4.08-8.01 7.07-10.8 3.74-3.54 5.24-4.25 10.2-4.85 3.17-.389 9.37-1.56 13.8-2.61 10.5-2.49 13.2-2.41 19.7.573 6.2 2.89 9.75 3.13 14 .957 2.89-1.5 3.37-1.4 12.9 2.64 11 4.69 18.5 9.81 21.3 14.7 1.05 1.79 2.16 6.06 2.47 9.49.322 3.55 1.59 8.27 2.94 11 2.99 5.96 3.92 15.4 2.39 24.3-1.07 6.12-1 6.97.620 8.76 2.98 3.29 2.47 14.1-.924 19.8-1.48 2.48-3.94 6.88-5.46 9.79-1.73 3.31-3.6 5.5-5 5.85-1.61.404-2.69 1.98-3.91 5.71-2.38 7.26-5.9 14-9.41 18-2.87 3.27-2.94 3.55-1.51 6.29.822 1.58 1.51 3.54 1.54 4.37.0633 2.28 2.03 5.3 6.84 10.5 4.28 4.63 4.62 4.78 16.7 7.55 6.76 1.55 14.5 3.94 17.2 5.31 8.01 4.06 14.5 12.6 16.7 21.9l.640 2.75h-177zm87.2-7.98c0-1-.2 0-.3 2-.0204 1.65.187 2.45.461 1.77.274-.677.291-2.03.037-3zm1.62-8.24c.999-8.44 3.91-13.6 9.64-17.2 5.69-3.54 6.32-4.28 2.3-2.73-3.6 1.39-23 1.4-26.5.0152-4.05-1.59-3.36-.674 1.75 2.32 5.39 3.16 7.94 7.66 9.55 16.9.636 3.65 1.5 6.43 1.91 6.18.415-.257 1.02-2.73 1.35-5.5zm-18.2-55c2.64-2.09 13-5.31 14-4.34 1.69 1.69-.000915 3.86-3.97 5.12-7.8 2.47-8.32 3.2-8.32 11.5 0 7.06.150 7.57 2.54 8.65 2.33 1.06 2.93.766 7.5-3.73l4.96-4.89 4.78 4.71c2.63 2.59 5.18 4.71 5.67 4.71.488 0 1.71-.745 2.72-1.65 1.43-1.3 1.83-3.14 1.83-8.48 0-7.67-.737-8.59-8.7-10.9-4.55-1.33-5.97-3.15-3.84-4.92 1.02-.846 2.88-.496 7.64 1.44 3.46 1.41 6.64 3.11 7.08 3.8.433.682.794 6.1.803 12l.0153 10.8 4.38-3.02c5.72-3.93 9.36-8.32 12.4-15 3.2-6.96 10.2-31.5 9.23-32.1-1.64-1.06-3.03-11.6-3.03-22.9 0-12.1-1.11-20.9-3.15-24.8-1.47-2.82-5.26-3.95-15.6-4.65-6.25-.423-10.8-1.53-19-4.62-5.1-2.2-12.5-4.3-15.5-4.7-6.8-.7-14.4 1.3-21.1 5.5-5.7 3.7-6.1 5.4-6.3 29.2-.2 15.8-.4 18-2.5 22.6l-2.25 5.13 3.96 13.5c2.18 7.41 4.85 15.5 5.93 17.9 2.34 5.29 7.24 11.1 12.8 15.1l4 2.9.281-11.5c.184-7.53 0.7-11.8 1.5-12.4zm26.2 6.85c-4.19-1.67-16.6-2.27-18.2-.894-1.34 1.11-1.52 1.08-1.1-.183.978-2.98 19.5-2 21.4 1.14.617.999.571.997-2.08-.0604zm-12.8-14.9-2.7-2.82 2.48-9.93 2.48-9.93-.218 9.99-.218 9.99 2.84.513 2.84.513-2.4 2.25-2.4 2.25zm-23-21.8c-.253-.412 1.93-.75 4.85-.75s4.79.331 4.15.735c-1.52.965-8.41.977-9 .0153zm42.8-.257c-1.29-.558-.217-.661 3-.289 2.75.318 5.19.739 5.42.937.867.748-6.51.180-8.42-.648zm-40.6-1.7c-.0651-.412-.0540-1.12.0248-1.57.1-.4-.3-.5-.8-.1-1.7 1-2.4-2.4-1.2-5.1.9-1.9.8-2.4-.2-2.4-2.08 0-5.97 4.72-5.31 6.45 1.03 2.69-.751 1.67-3.09-1.77-1.24-1.82-2.25-3.6-2.25-3.95 0-.914 9.82-3.73 13-3.73 1.46 0 4.76 1.07 7.33 2.37 3.07 1.56 4.25 1.84 3.42.837-1.05-1.27-1.01-1.45.234-1.04.825.274 1.51 1.13 1.53 1.91.0145.778.379 1.98.809 2.66 1.16 1.85-.486 1.48-3.34-.75-3.36-2.63-3.73-2.51-3.21 1.01.243 1.66-.115 3.68-.796 4.5-1.27 1.53-5.9 2.09-6.11.741zm5.89-6.44c-.218-.653-.931-1.37-1.58-1.58-.731-.244-.954.214-.581 1.19.698 1.82 2.76 2.2 2.16.396zm35.8 5c-.941-1.34-1.29-3.14-.904-4.68l.625-2.49-3.66 2.26-3.66 2.26.342-2.24c.354-2.32 4.03-5.93 6.03-5.92.627.0021-.323.895-2.11 1.99-4.75 2.9-3.97 3.1 1.42.375 3-1.2 6-2.3 8-2.3 3.23 0 12.2 2.67 12.9 3.84.220.361-.944 2.23-2.59 4.16-2.24 2.63-2.9 3-2.63 1.5.221-1.24-.657-2.86-2.31-4.25-3.2-2.71-4.03-2.84-3.16-.5.574 1.53.446 1.58-1.03.378-1.24-1.01-1.69-1.05-1.69-.156 0 .669.9 1.45 2 1.74 2.41.630 2.47 1.18.443 4.07-1.99 2.84-5.88 2.86-7.86.0387zm-34-9.8c-.340-.55-.168-1 .382-1s1.28.45 1.62 1 .168 1-.382 1-1.28-.45-1.62-1zm2.5-1.68c-3.87-2.07-5.41-2.33-11-1.86-3.58 0.3-7.85.774-9.5 1.05-4.78.811 4.04-2.45 9.41-3.47 5.21-.997 12.8.895 15.5 3.85 2.64 2.91.611 3.11-4.4.434zm22 .627c0-.577 1.91-1.92 4.25-2.98 4.92-2.23 11.9-2.4 19.2-.450l5 1.33-8-.523c-6.61-.432-8.92-.159-13.3 1.57-5.97 2.37-7.21 2.55-7.21 1.05zm-51.6 29.1c-1.09-3.44-2.03-6.81-2.07-7.5-.0480-.688-.510-1.25-1.03-1.25-.517 0-.729-.562-.472-1.25.258-.688.113-2.15-.323-3.25l-.791-2-.181 2c-.0995 1.1-.117 3.12-.0397 4.5.137 2.42.0919 2.44-1.39.559-1.82-2.3-1.85-2.88-.440-7.95.805-2.9.782-4.07-.0910-4.61-.644-.398-1.13-1.01-1.09-1.36.313-2.34-.133-2.87-1.07-1.26-.664 1.14-.845 4.08-.463 7.5.462 4.13.345 5.22-.443 4.12-.832-1.16-.923-.939-.406 1 .367 1.38 1.38 3.06 2.26 3.75.875.688 1.19 1.25.708 1.25-.485 0-.191.562.654 1.25s2.13 2.82 2.86 4.75c1.65 4.38 2.87 6 4.52 6 .973 0 .802-1.52-.702-6.25zm91.6.601c1.42-3.11 3.37-6.22 4.32-6.92.954-.698 1.42-1.58 1.03-1.97-.385-.385-.0472-1.35.752-2.15.799-.799 1.42-2.21 1.38-3.13-.0573-1.37-.211-1.32-.832.268-.727 1.86-.788 1.85-1.34-.251-.368-1.41-.194-1.96.484-1.54.713.441.873-.729.491-3.58-1.14-8.5-3.32-6.51-3.02 2.76.207 6.32.049 6.83-3.14 10.2-1.85 1.93-3.67 4.63-4.05 6.01-.378 1.38-.908 3.29-1.18 4.25-.308 1.1.0639 1.75 1.01 1.75.844 0 2.62-2.46 4.08-5.65zm1.56-12c0-1.31-.45-2.39-1-2.39s-1 .9-1 2c0 2.86-.087 3.27-1.16 5.5-.774 1.62-.563 1.55 1.1-.361 1.13-1.3 2.06-3.44 2.06-4.75zm-105-11.2c-.3-1.8-.4-.6-.4 2.7-.0056 3.3.176 4.77.405 3.27.228-1.5.233-4.2.0102-6zm111 .994v1.7c-.0111 2.2.185 3.22.435 2.26.250-.956.259-2.76.0202-4z" fill="#e29679"/>
 <path d="m13 196c2.85-15.5 12.2-22.7 33.5-25.8 6.62-.978 12-2.13 12-2.57 0-.435 1.98-3.02 4.39-5.74 2.42-2.72 4.95-6.67 5.62-8.78.676-2.11 2.14-4.83 3.25-6.05l2.02-2.22-3.6-3.99c-5.77-6.38-7.42-10.5-15.7-39-1.75-6.01-2.36-7.11-3.16-5.68-.544.973-.718 2.97-.386 4.45.470 2.08.379 2.31-.410 1.02-.558-.914-.931-4.51-.829-8 .198-6.78-1.45-12.4-3.29-11.3-.744.460-.770.894-.0793 1.32.649.401.727 1.92.209 4.12l-.8 3.6-.2-3.5-.244-3.5-.716 4-.716 4-.142-3.94c-.0966-2.68.484-4.6 1.82-6.02 1.95-2.08 1.95-2.13-.456-9.92-1.4-4.4-3.2-9-4-10.3-1.4-2.1-1.4-2.4-.1-2.4 1.88 0 1.91.447-.463-6.46l-1.99-5.77 2.57-2.02c2.13-1.67 2.47-2.58 1.97-5.24-.410-2.19-.144-3.6.829-4.41.788-.654 2.64-4.2 4.11-7.87 1.82-4.54 4.08-8.01 7.07-10.8 3.74-3.54 5.24-4.25 10.2-4.85 3.17-.389 9.37-1.56 13.8-2.61 10.5-2.49 13.2-2.41 19.7.573 6.2 2.89 9.75 3.13 14 .957 2.89-1.5 3.37-1.4 12.9 2.64 11 4.69 18.5 9.81 21.3 14.7 1.05 1.79 2.16 6.06 2.47 9.49.322 3.55 1.59 8.27 2.94 11 2.99 5.96 3.92 15.4 2.39 24.3-1.05 6.01-.988 6.98.516 8.65 1.03 1.14 1.81 3.95 1.99 7.13v5.1-4.8c-.644-4.15-4.14-10.1-4.14-7.04 0 .622.429 1.28.953 1.46 0 .3 1 2.4 1 4.9l.530 4.5-1.01-3.94c-1.34-5.26-1.69-5.43-3.31-1.58-1.04 2.47-1.13 4.12-.354 6.63.720 2.35 0.7 4.03-.0667 5.62-1.04 2.15-1.1 2.1-1.16-.980-.120-5.76-1.62-3.49-4.49 6.81-2.77 9.95-2.74 13.3.0745 9.44 3-4.13 8.68-14.1 9.95-17.5.834-2.23 1.32-2.77 1.34-1.5.0151 1.1-1.07 3.8-2.41 6s-3.64 6.25-5.11 9c-2.91 5.42-4.24 6.73-6.15 6.03-.785-.287-1.83 1.62-2.88 5.26-2.12 7.36-5.61 14.2-9.39 18.6-2.87 3.27-2.94 3.55-1.51 6.29.822 1.58 1.51 3.54 1.54 4.37.0633 2.28 2.03 5.3 6.84 10.5 4.28 4.63 4.62 4.78 16.7 7.55 6.76 1.55 14.5 3.94 17.2 5.31 8.01 4.06 14.5 12.6 16.7 21.9l.640 2.75h-177zm91.7-26c1.59-3.28 3.85-5.49 9.24-9.05 4.81-3.17 7.24-5.44 7.46-6.96.537-3.78-4.25-2.92-9.5 1.7-8.41 7.4-13.8 7.44-23.1.146-2.6-2.06-5.77-4.01-7.04-4.34-2.03-.528-2.27-.279-2 2.07.237 2.05 1.9 3.72 7.16 7.2 3.77 2.49 7.48 5.72 8.25 7.18 1.91 3.65 4.34 14.4 4.5 19.8.102 3.59.412 2.68 1.52-4.45.767-4.92 2.34-10.9 3.5-13.3zm-22.3-32c-.229-8.84.0241-12.1 1-12.9 2.7-2.14 13.1-5.4 14.1-4.41 1.74 1.74-.0903 3.98-4.14 5.07-7.1 1.91-8.65 3.94-8.63 11.3.0290 10.9 3.21 12.4 10.7 5.01l4.78-4.71 4.78 4.71c2.63 2.59 5.18 4.71 5.67 4.71.488 0 1.71-.745 2.72-1.65 1.43-1.3 1.83-3.14 1.83-8.48 0-7.55-.664-8.43-8.17-10.8-4.69-1.49-6.37-3.36-4.45-4.96 1.1-.914 2.86-.59 8.02 1.48 7.83 3.14 7.92 3.34 7.44 17.3l-.345 9.93 4.14-2.85c10.1-6.95 13.5-13 19.9-35.1 3.25-11.3 3.31-11.8 1.73-15-1.25-2.5-1.8-7.72-2.33-21.9 0-26.4-1-27.2-17-28.3-8-.5-12-1.7-27.5-7.2-6.3-2.3-8.5-2.7-14.1-2.2-6.9.6-16.3 4.3-19.3 7.7-2.2 2.3-3.9 19.6-3.1 31 .640 9.46.134 12.6-3.49 21.5-1.09 2.68-.759 4.58 2.9 16.7 2.27 7.55 5.08 15.7 6.24 18.2 2.39 5.09 8.02 11.3 13.6 14.9 2.08 1.36 3.79 2.51 3.79 2.54 0 .0334-.138-5.26-.306-11.8zm9.54-8.3c.678-.683 1.49-.991 1.79-.683.308.308-.247.867-1.23 1.24-1.43.543-1.54.428-.560-.560zm4.54-.569c.973-.254 2.32-.237 3 .0371.677.274-.119.481-1.77.461-1.65-.0204-2.2-.244-1.23-.498zm.276-12.5-2.69-2.31 2.56-9.49 2.56-9.49-.555 9.18c-.365 6.04-.160 9.92.596 11.3 1.66 3.11.627 3.43-2.47.772zm-22.8-20.8c-.261-.423 1.29-0.6 3.44-.395s3.92.551 3.92.768c0 .745-6.88.396-7.36-.373zm43.4-.178c-.937-.593.122-.715 3-.347 2.45.313 4.64.732 4.86.931.938.816-6.53.261-7.86-.584zm-41.6-1.8c-.0651-.412-.0540-1.12.0248-1.57.1-.4-.3-.5-.8-.1-1.7 1-2.4-2.4-1.2-5.1.9-1.9.8-2.4-.2-2.4-2.24 0-5.97 4.73-5.29 6.7.341.990-.727.243-2.37-1.66-1.65-1.9-2.99-3.78-2.99-4.17 0-0.9 5.29-2.62 10.6-3.43 4.29-.662 10.3 1.21 13.7 4.26 2.88 2.61 2.05 3.63-1.12 1.37-3.74-2.66-3.83-2.63-3.31.941.243 1.66-.115 3.68-.796 4.5-1.27 1.53-5.9 2.09-6.11.741zm5.89-6.44c-.218-.653-.931-1.37-1.58-1.58-.731-.244-.954.214-.581 1.19.698 1.82 2.76 2.2 2.16.396zm35.8 5c-.941-1.34-1.29-3.14-.904-4.68l.625-2.49-3.77 2.33c-3.6 2.23-3.72 2.24-2.67.273.605-1.13 3.15-3.05 5.66-4.26 4.97-2.41 10.6-2.21 17.4.621l3.41 1.42-2.39 2.73c-1.32 1.5-2.78 3.18-3.26 3.73-.516.599-.715.198-.496-1 .228-1.25-.637-2.85-2.3-4.25-3.2-2.71-4.03-2.84-3.16-.5.574 1.53.446 1.58-1.03.378-1.24-1.01-1.69-1.05-1.69-.156 0 .669.9 1.45 2 1.74 2.41.630 2.47 1.18.443 4.07-1.99 2.84-5.88 2.86-7.86.0387zm-31.5-11.5c-3.96-2.16-5.34-2.39-11.5-1.9-3.85.306-8.12.791-9.5 1.08-1.38.287-.025-.345 3-1.4 7.26-2.54 14.1-2.56 19-.0612 2.14 1.09 4.16 2.41 4.48 2.93 1.23 2-1.13 1.72-5.45-.642zm22 .677c0-.577 1.91-1.92 4.25-2.98 4.9-2.22 11.9-2.4 19.2-.474l5 1.31-8-.511c-6.57-.420-8.98-.136-13.5 1.6-6.27 2.4-7 2.51-7 1.06zm-53 35c-3.1-3-10.4-16.7-11-20.1-.418-2.52-.0663-2.04 1.34 1.83 1.05 2.89 2.6 6.04 3.44 7 .845.961 2.55 3.77 3.8 6.24 1.24 2.47 2.98 5.05 3.87 5.72.882.672 1.27 1.24.854 1.25-.412.0175-1.47-.756-2.34-1.72zm-9.4-21.6c.0480-1.16.285-1.4.604-.604.289.722.253 1.58-.0790 1.92-.332.332-.569-.258-.525-1.31z" fill="#a09ca0"/>
 <path d="m13.1 196c1.06-6.26 5.3-14 9.54-17.3 5.52-4.38 11.7-6.49 24.7-8.49 6.16-.946 11.2-2.12 11.2-2.61 0-.492 1.63-2.53 3.63-4.52 1.99-1.99 4.73-6.14 6.09-9.22 1.35-3.08 3.16-6.37 4.01-7.32 1.42-1.58 1.25-2.06-2.04-5.7-5.76-6.37-7.41-10.5-15.7-39-1.75-6.01-2.36-7.11-3.16-5.68-.544.973-.718 2.97-.386 4.45.470 2.08.379 2.31-.410 1.02-.558-.914-.931-4.51-.829-8 .198-6.78-1.45-12.4-3.29-11.3-.744.460-.770.894-.0793 1.32.649.401.727 1.92.209 4.12l-.8 3.5-.2-3.5-.244-3.5-.716 4-.716 4-.142-3.94c-.0997-2.77.484-4.6 1.96-6.18l2.1-2.3-2.8-8.3c-1.5-4.6-3.1-8.7-3.6-9.2-1.2-1.3-1.11-2.81.124-2.05 1.44.890 1.25-.457-.975-6.93l-1.98-5.74 2.93-2.47c2.55-2.14 2.8-2.81 1.94-5.07-.797-2.1-.608-3.01.972-4.7 1.08-1.15 2.93-4.71 4.12-7.89 2.2-5.3 5.4-9.7 7.3-9.7.446 0 .811-.648.811-1.44 0-2.1.787-2.39 12.7-4.67 23.9-4.58 21.7-4.46 28.2-1.53 6.57 2.95 12.6 3.39 15.8 1.15 1.95-1.37 2.95-1.13 12.3 2.95 11.3 4.9 17.1 8.56 19.9 12.5 2.18 3.07 4.04 9.37 4.05 13.7.003 1.72 1.15 5.62 2.54 8.67 3.3 7.21 4.03 13.9 2.52 23.3-1.1 6.84-1.05 7.77.507 9.5 1.06 1.18 1.84 3.94 2.03 7.17v5.1-4.8c-.644-4.15-4.14-10.1-4.14-7.04 0 .622.429 1.28.953 1.46 0 .3 1 2.4 1 4.9l.530 4.5-1.01-3.94c-1.34-5.26-1.69-5.43-3.31-1.58-1.04 2.47-1.13 4.12-.354 6.63.720 2.35 0.7 4.03-.0667 5.62-1.04 2.15-1.1 2.1-1.16-.980-.120-5.76-1.62-3.49-4.49 6.81-2.77 9.95-2.74 13.3.0745 9.44 3-4.13 8.68-14.1 9.95-17.5.834-2.23 1.32-2.77 1.34-1.5.0151 1.1-1.07 3.8-2.41 6s-3.64 6.25-5.11 9c-2.91 5.42-4.24 6.73-6.15 6.03-.785-.287-1.83 1.62-2.88 5.26-2.24 7.76-5.75 14.5-10 19.2-1.97 2.18-3.13 3.96-2.59 3.96.547 0 1.5 1.35 2.12 3 .617 1.65 1.61 4.31 2.2 5.91.596 1.6 3.17 5.09 5.71 7.75 4.44 4.65 5.03 4.93 14.7 6.99 22.7 4.86 31.1 11.2 35.3 26.6l1.03 3.75h-176zm91.6-26c1.59-3.28 3.85-5.49 9.24-9.05 4.81-3.17 7.24-5.44 7.46-6.96.537-3.78-4.25-2.92-9.5 1.7-8.41 7.4-13.8 7.44-23.1.146-2.6-2.06-5.77-4.01-7.04-4.34-2.03-.528-2.27-.279-2 2.07.237 2.05 1.9 3.72 7.16 7.2 3.77 2.49 7.48 5.72 8.25 7.18 1.91 3.65 4.34 14.4 4.5 19.8.102 3.59.412 2.68 1.52-4.45.767-4.92 2.34-10.9 3.5-13.3zm-22.3-32c-.229-8.84.0241-12.1 1-12.9 2.7-2.14 13.1-5.4 14.1-4.41 1.74 1.74-.0903 3.98-4.14 5.07-7.1 1.91-8.65 3.94-8.63 11.3.0290 10.9 3.21 12.4 10.7 5.01l4.78-4.71 4.78 4.71c2.63 2.59 5.18 4.71 5.67 4.71.488 0 1.71-.745 2.72-1.65 1.43-1.3 1.83-3.14 1.83-8.48 0-7.55-.664-8.43-8.17-10.8-4.69-1.49-6.37-3.36-4.45-4.96 1.1-.914 2.86-.59 8.02 1.48 7.83 3.14 7.92 3.34 7.44 17.3l-.345 9.93 4.14-2.85c10.1-6.95 13.5-13 19.9-35.1 3.25-11.3 3.31-11.8 1.73-15-1.25-2.5-1.8-7.72-2.33-21.9 0-26.4-1-27.2-17-28.3-8-.5-12-1.7-27.5-7.2-6.3-2.3-8.5-2.7-14.1-2.2-6.9.6-16.3 4.3-19.3 7.7-2.2 2.3-3.9 19.6-3.1 31 .640 9.46.134 12.6-3.49 21.5-1.09 2.68-.759 4.58 2.9 16.7 2.27 7.55 5.08 15.7 6.24 18.2 2.39 5.09 8.02 11.3 13.6 14.9 2.08 1.36 3.79 2.51 3.79 2.54 0 .0334-.138-5.26-.306-11.8zm9.54-8.3c.678-.683 1.49-.991 1.79-.683.308.308-.247.867-1.23 1.24-1.43.543-1.54.428-.560-.560zm4.54-.569c.973-.254 2.32-.237 3 .0371.677.274-.119.481-1.77.461-1.65-.0204-2.2-.244-1.23-.498zm.276-12.5-2.69-2.31 2.56-9.49 2.56-9.49-.555 9.18c-.365 6.04-.160 9.92.596 11.3 1.66 3.11.627 3.43-2.47.772zm-20.7-20.7c1.24-.239 3.04-.230 4 .0202.956.250-.0617.446-2.26.435-2.2-.0111-2.98-.216-1.74-.455zm44 0c1.24-.239 3.04-.230 4 .0202.956.250-.0617.446-2.26.435-2.2-.0111-2.98-.216-1.74-.455zm-43.5-2.4c0-.627-.762-1.7-1.69-2.38-1.59-1.16-1.59-1.4.0230-3.86 1.58-2.41 6.62-3.96 5.14-1.58-.798 1.29 1.42 4.14 2.64 3.39 1.68-1.04.884 2.26-.942 3.92-2.1 1.9-5.17 2.2-5.17.515zm44-.467c0-1.02-.550-1.4-1.5-1.03-1.87.719-2.12-4.34-.3-6.16 2.13-2.13-.739-1.32-4.59 1.29-3.09 2.1-3.51 2.19-2.66.597.557-1.04 3.06-2.89 5.57-4.1 4.95-2.4 10.6-2.21 17.3.581l3.31 1.38-2.78 3.48c-3.14 3.93-3.85 4.02-2.43.296.898-2.36.675-2.67-2.99-4.14-2.18-.872-5.19-1.54-6.69-1.49l-2.73.0997 2.5.801c1.38.440 1.95.845 1.28 0.9-2 0-1 3 1 3 2.09 0 1.68 3.78-.541 4.96-2.75 1.47-4.07 1.28-4.07-.572zm-54.5-4.5c-2.65-3.72-2.07-4.29 6-5.98 6.19-1.29 11.1-.290 15.5 3.19 3.31 2.6 2.71 3.67-.787 1.38-1.4-.916-3.08-1.33-3.74-.925-.730.451-.937.317-.529-.342 1.59-2.57-7.9-2.61-12.7-.0556-1.34.718-1.69 1.66-1.25 3.41.810 3.23.153 3.05-2.5-.686zm21.1-7.62c-3.96-2.16-5.34-2.39-11.5-1.9-3.85.306-8.12.791-9.5 1.08-1.38.287-.025-.345 3-1.4 7.26-2.54 14.1-2.56 19-.0612 2.14 1.09 4.16 2.41 4.48 2.93 1.23 2-1.13 1.72-5.45-.642zm22 .677c0-.577 1.91-1.92 4.25-2.98 4.9-2.22 11.9-2.4 19.2-.474l5 1.31-8-.511c-6.57-.420-8.98-.136-13.5 1.6-6.27 2.4-7 2.51-7 1.06zm-54 35c-3.1-3-10.4-16.7-11-20.1-.418-2.52-.0663-2.04 1.34 1.83 1.05 2.89 2.6 6.04 3.44 7 .845.961 2.55 3.77 3.8 6.24 1.24 2.47 2.98 5.05 3.87 5.72.882.672 1.27 1.24.854 1.25-.412.0175-1.47-.756-2.34-1.72zm-9.4-21.6c.0480-1.16.285-1.4.604-.604.289.722.253 1.58-.0790 1.92-.332.332-.569-.258-.525-1.31z" fill="#d7886b"/>
 <path d="m13.1 196c1.06-6.26 5.3-14 9.54-17.3 5.52-4.38 11.7-6.49 24.7-8.49 6.16-.946 11.2-2.12 11.2-2.61 0-.492 1.63-2.53 3.63-4.52 1.99-1.99 4.73-6.14 6.09-9.22 1.35-3.08 3.16-6.37 4.01-7.32 1.42-1.58 1.24-2.07-2.09-5.75-5.34-5.91-4.43-5.68 1.68.424 2.92 2.92 6.63 6 8.25 6.83l2.94 1.52-.306-11.7c-.229-8.76.0250-12 1-12.8 2.7-2.14 13.1-5.4 14.1-4.41 1.74 1.74-.0903 3.98-4.14 5.07-7.1 1.91-8.65 3.94-8.63 11.3.0290 10.9 3.21 12.4 10.7 5.01l4.78-4.71 4.78 4.71c5.32 5.24 6.17 5.53 8.56 2.88 1.19-1.32 1.65-3.69 1.65-8.48 0-7.36-.699-8.27-8.17-10.6-4.69-1.49-6.37-3.36-4.45-4.96 1.1-.914 2.86-.59 8.02 1.48 7.84 3.14 7.92 3.34 7.44 17.3l-.345 9.96 2.83-1.66c1.55-.913 3.3-2.23 3.88-2.92 1.42-1.7 4.47 1.82 5.78 6.69 1.04 3.87 3.69 7.78 8.52 12.6 2.45 2.44 4.83 3.38 13 5.13 22.7 4.88 31 11.2 35.3 26.6l1.03 3.75h-174zm91.6-26c1.59-3.28 3.85-5.49 9.24-9.05 6.57-4.33 7.16-5.01 7.45-8.53.305-3.71.247-3.78-2-2.6-1.27.673-4.47 3.15-7.1 5.5-8.69 7.77-14.9 7.9-23.1.482-2.25-2.02-5.35-4.46-6.9-5.43l-2.81-1.77.314 3.82c.288 3.49.895 4.2 7.17 8.34 3.77 2.49 7.48 5.72 8.25 7.18 1.91 3.65 4.34 14.4 4.5 19.8.102 3.59.412 2.68 1.52-4.45.767-4.92 2.34-10.9 3.5-13.3zm24.9-29.2c1.16-1.63 2.63-3.29 3.25-3.67.624-.386-.125.951-1.67 2.97-3.34 4.38-4.6 4.94-1.58.701zm-65-8.12c-.614-1.15-.928-2.27-.698-2.5s.932.708 1.56 2.09c1.38 3.02.707 3.35-.862.419zm71-1c0-.55.436-1.68.969-2.5.533-.825.969-1.05.969-.5s-.436 1.68-.969 2.5c-.533.825-.969 1.05-.969.5zm-38.6-15-2.7-3l2.3-9 2.3-9-.528 9.06c-.348 5.98-.130 9.81.643 11.2 1.46 2.73 1.25 2.72-2.06-.066zm43.6 1c.0302-.825.442-2.4.914-3.5l.859-2 .055 2c.0302 1.1-.381 2.68-.914 3.5-.862 1.33-.963 1.33-.914 0zm-82.5-3.57c-.368-1.47-.476-2.86-.240-3.09.236-.236.730.770 1.1 2.24.368 1.47.476 2.86.240 3.09-.236.236-.730-.770-1.1-2.24zm89.6-2.91c1.63-3.01 3.35-5.71 3.81-6 .461-.285-.497 1.95-2.13 4.96s-3.35 5.71-3.81 6c-.461.285.497-1.95 2.13-4.96zm-98.7-4c-1.5-2-2.5-4-2.2-4 .707 0 5.81 8 5.37 8.41-.218.206-1.62-1.6-3.11-4.02zm6.78.0339c-.368-1.47-.476-2.86-.240-3.09.236-.236.730.770 1.1 2.24.368 1.47.476 2.86.240 3.09-.236.236-.730-.770-1.1-2.24zm87.5 1.06c-.0544-.554.351-2.57.901-4.49.786-2.74.641-4.24-.675-6.99-1.28-2.68-1.84-7.88-2.37-22.1-1-25.8-2-26.6-18-27.7-8-.5-12-1.7-27.5-7.2-6.3-2.3-8.5-2.7-14.1-2.2-6.9.6-16.3 4.3-19.3 7.7-2.1 2.2-3.6 17.7-3.3 32.5.226 10.6-.0046 12.6-1.94 16.8-2.38 5.15-3.76 5.94-4.62 2.65-.811-3.1-2.96-1.21-2.46 2.17.228 1.56.0546 2.61-.386 2.33-.441-.272-.719-3.51-.619-7.2s-.365-7.99-1.03-9.56c-1.07-2.52-1.42-2.7-2.95-1.52-1.46 1.13-1.44.993.118-.832 1.81-2.13 1.79-2.36-.874-10.5-1.5-4.6-3.1-8.7-3.6-9.2-1.2-1.3-1.11-2.81.124-2.05 1.44.890 1.25-.457-.975-6.93l-1.98-5.74 2.93-2.47c2.55-2.14 2.8-2.81 1.94-5.07-.797-2.1-.608-3.01.972-4.7 1.08-1.15 2.93-4.71 4.12-7.89 2.2-5.3 5.4-9.7 7.3-9.7.446 0 .811-.648.811-1.44 0-2.1.787-2.39 12.7-4.67 23.9-4.58 21.7-4.46 28.2-1.53 6.57 2.95 12.6 3.39 15.8 1.15 1.95-1.37 2.95-1.13 12.3 2.95 11.3 4.9 17.1 8.56 19.9 12.5 2.18 3.07 4.04 9.37 4.05 13.7.003 1.72 1.18 5.68 2.61 8.81 3.34 7.3 3.96 14.9 2.09 25.6-1.46 8.31-1.4 10.8.224 8.14.629-1.02.947-.939 1.45.361.938 2.45.751 3.22-.361 1.5-.804-1.24-.975-1.16-1 .5-.0249 1.62-.205 1.72-.961.529-1.12-1.76-1.47-1.44-2.73 2.47-.609 1.88-.623 4.36-.0377 6.66.619 2.44.573 4.28-.138 5.51-.897 1.54-1.07 1.24-1.1-1.91-.0167-2.06-.480-3.75-1.03-3.75s-1 .675-1 1.5-.436 1.5-.969 1.5-.753.562-.490 1.25-.156 3.28-.933 5.75c-.776 2.48-1.46 4.05-1.51 3.49zm10-6c1.46-3.06 1.92-3.63 1.92-2.36 0 .537-0.7 1.85-1.56 2.92-1.47 1.83-1.49 1.8-.365-.559zm-99-.583c.0480-1.16.285-1.4.604-.604.289.722.253 1.58-.0790 1.92-.332.332-.569-.258-.525-1.31zm-9.46-.955c-.965-2.51-.680-3.16.499-1.14.584 1 .851 2.04.593 2.29-.257.257-.749-.263-1.09-1.16zm-1.54-5.04c.0480-1.16.285-1.4.604-.604.289.722.253 1.58-.0790 1.92-.332.332-.569-.258-.525-1.31zm32.7-.124c1.24-.239 3.04-.230 4 .0202.956.250-.0617.446-2.26.435-2.2-.0111-2.98-.216-1.74-.455zm44.5.0179c.962-.252 2.54-.252 3.5 0 .962.252.175.457-1.75.457s-2.71-.206-1.75-.457zm-44.5-2c0-.627-.762-1.7-1.69-2.38-1.59-1.16-1.59-1.4.0230-3.86 1.58-2.41 6.62-3.96 5.14-1.58-.798 1.29 1.42 4.14 2.64 3.39 1.68-1.04.884 2.26-.942 3.92-2.1 1.9-5.17 2.2-5.17.515zm44-.467c0-1.02-.550-1.4-1.5-1.03-1.87.719-2.12-4.34-.3-6.16 2.16-2.16-.764-1.31-4.81 1.41l-3.89 2.61 2.95-3.13c3.91-4.13 9.23-5.54 15.7-4.15 2.74.588 5.86 1.53 6.92 2.1 1.86.996 1.83 1.16-.790 4.45-3.09 3.87-3.79 3.94-2.38.230.898-2.36.675-2.67-2.99-4.14-2.18-.872-5.19-1.54-6.69-1.49l-2.73.0997 2.5.801c1.38.440 1.95.845 1.28 0.9-1 .1 0 3.1 2 3.1 2.09 0 1.68 3.78-.541 4.96-2.75 1.47-4.07 1.28-4.07-.572zm37-1.9c.0111-2.2.216-2.98.455-1.74s.230 3.04-.0202 4v-2.3zm-91.5-2.6c-2.63-3.7-2.06-4.29 5.77-5.93 5.98-1.25 10.6-.336 15.3 3.05 3.65 2.6 3.3 3.89-.398 1.47-1.4-.916-3.08-1.33-3.74-.925-.730.451-.937.317-.529-.342 1.59-2.57-7.9-2.61-12.7-.0556-1.34.718-1.69 1.66-1.25 3.41.810 3.23.153 3.05-2.5-.686zm-19.9-.6c0-1.2.4-2.5.9-2.8 1.18-.731 1.18.248 0 3-.829 1.93-.862 1.92-.930-.191zm40.9-7.03c-3.96-2.16-5.34-2.39-11.5-1.9-3.85.306-8.12.791-9.5 1.08-1.38.287-.025-.345 3-1.4 7.26-2.54 14.1-2.56 19-.0612 2.14 1.09 4.16 2.41 4.48 2.93 1.23 2-1.13 1.72-5.45-.642zm22 .677c0-.577 1.91-1.92 4.25-2.98 4.9-2.22 11.9-2.4 19.2-.474l5 1.31-8-.511c-6.57-.420-8.98-.136-13.5 1.6-6.27 2.4-7 2.51-7 1.06z" fill="#b38677"/>
 <path d="m13.1 196c1.06-6.26 5.3-14 9.54-17.3 5.52-4.38 11.7-6.49 24.7-8.49 6.16-.946 11.2-2.12 11.2-2.61 0-.492 1.63-2.53 3.63-4.52 1.99-1.99 4.73-6.14 6.09-9.22 1.35-3.08 3.16-6.37 4.01-7.32 1.42-1.58 1.24-2.07-2.09-5.75-5.34-5.91-4.43-5.68 1.68.424 2.92 2.92 6.63 6 8.25 6.83l2.94 1.52-.320-10.1c-.437-13.7-.265-14.2 6.36-16.7 6.83-2.56 9.73-2.68 9.28-.404-.199 1.03-2.55 2.41-6.14 3.6-6.57 2.19-7.69 3.87-7.69 11.6 0 5.11 2.11 9.16 4.77 9.16.912 0 3.79-2.1 6.4-4.66l4.74-4.66 5 5.32c4.79 5.1 5.09 5.26 7.28 3.81 2.73-1.81 3.99-6.74 3.19-12.5-.681-4.92-1.95-6.21-8.24-8.37-4-2-6-5-3-5 2.51 0 10.1 2.86 11.9 4.46.868.794 1.35 4.88 1.49 12.8l.218 11.6 2.83-1.66c1.56-.914 3.31-2.23 3.88-2.92 1.42-1.7 4.47 1.82 5.78 6.69 1.04 3.87 3.69 7.78 8.52 12.6 2.45 2.44 4.83 3.38 13 5.13 22.7 4.88 31 11.2 35.3 26.6l1.03 3.75h-174zm90.9-23.8c2.14-5.13 4.79-7.85 11.8-12.1 5.45-3.31 5.75-3.7 5.75-7.46 0-3.79-.0968-3.91-2.25-2.78-1.24.649-3.92 2.67-5.95 4.49-2.04 1.82-5.6 4.28-7.92 5.46-3.62 1.85-4.73 2-7.9 1.05-2.03-.607-5.66-2.81-8.08-4.89s-5.63-4.57-7.14-5.53l-2.75-1.74v3.93c0 3.79.259 4.09 6.87 8.18 3.78 2.33 7.63 5.51 8.54 7.07 1.99 3.36 4.54 16 4.69 23.2.0895 4.11.377 3.1 1.41-4.9.713-5.53 2.03-11.8 2.94-14zm25.5-31.4c1.16-1.63 2.63-3.29 3.25-3.67.624-.386-.125.951-1.67 2.97-3.34 4.38-4.6 4.94-1.58.701zm-65-8.12c-.614-1.15-.928-2.27-.698-2.5s.932.708 1.56 2.09c1.38 3.02.707 3.35-.862.419zm71-1c0-.55.436-1.68.969-2.5.533-.825.969-1.05.969-.5s-.436 1.68-.969 2.5c-.533.825-.969 1.05-.969.5zm-38.6-15-2.7-3l2.3-9 2.3-9-.528 9.06c-.348 5.98-.130 9.81.643 11.2 1.46 2.73 1.25 2.72-2.06-.066zm43.6 1c.0302-.825.442-2.4.914-3.5l.859-2 .055 2c.0302 1.1-.381 2.68-.914 3.5-.862 1.33-.963 1.33-.914 0zm-82.5-3.57c-.368-1.47-.476-2.86-.240-3.09.236-.236.730.770 1.1 2.24.368 1.47.476 2.86.240 3.09-.236.236-.730-.770-1.1-2.24zm89.6-2.91c1.63-3.01 3.35-5.71 3.81-6 .461-.285-.497 1.95-2.13 4.96s-3.35 5.71-3.81 6c-.461.285.497-1.95 2.13-4.96zm-98.7-4c-1.5-2-2.5-4-2.2-4 .707 0 5.81 8 5.37 8.41-.218.206-1.62-1.6-3.11-4.02zm6.78.0339c-.368-1.47-.476-2.86-.240-3.09.236-.236.730.770 1.1 2.24.368 1.47.476 2.86.240 3.09-.236.236-.730-.770-1.1-2.24zm87.5 1.06c-.0544-.554.351-2.57.901-4.49.780-2.72.642-4.24-.630-6.92-1.22-2.57-1.81-8.09-2.35-22-1.02-26.5-1.59-27.4-17.5-28.4-7.94-.527-13.5-2.01-27-7.15-5.89-2.25-8.13-2.6-14.2-2.23-7.47.459-16.3 3.85-19.6 7.55-2.33 2.58-3.75 14.4-3.61 30.2.0988 10.9-.232 14.5-1.73 18.5-2.05 5.45-3.8 6.78-4.65 3.52-.819-3.13-2.97-1.28-2.47 2.13.237 1.61.0104 2.58-.527 2.25-.522-.323-.674-2.84-.341-5.66.490-4.14-.635-11.7-2.01-13.5-.163-.216-1.09.226-2.07.983-1.57 1.22-1.57 1.13.0776-.799 1.81-2.13 1.79-2.36-.874-10.5-1.9-4.3-3.5-8.4-4-8.9-1.2-1.3-1.11-2.81.124-2.05 1.44.890 1.25-.457-.975-6.93l-1.98-5.74 2.93-2.47c2.55-2.14 2.8-2.81 1.94-5.07-.797-2.1-.608-3.01.972-4.7 1.08-1.15 2.93-4.71 4.12-7.89 2.2-5.3 5.4-9.7 7.3-9.7.446 0 .811-.648.811-1.44 0-2.1.787-2.39 12.7-4.67 23.9-4.58 21.7-4.46 28.2-1.53 6.57 2.95 12.6 3.39 15.8 1.15 1.95-1.37 2.95-1.13 12.3 2.95 11.3 4.9 17.1 8.56 19.9 12.5 2.18 3.07 4.04 9.37 4.05 13.7.003 1.72 1.18 5.68 2.61 8.81 3.34 7.3 3.96 14.9 2.09 25.6-1.46 8.31-1.4 10.8.224 8.14.629-1.02.947-.939 1.45.361.938 2.45.751 3.22-.361 1.5-.804-1.24-.975-1.16-1 .5-.0249 1.62-.205 1.72-.961.529-1.12-1.76-1.47-1.44-2.73 2.47-.609 1.88-.623 4.36-.0377 6.66.619 2.44.573 4.28-.138 5.51-.897 1.54-1.07 1.24-1.1-1.91-.0167-2.06-.480-3.75-1.03-3.75s-1 .675-1 1.5-.436 1.5-.969 1.5-.753.562-.490 1.25-.156 3.28-.933 5.75c-.776 2.48-1.46 4.05-1.51 3.49zm10-6c1.46-3.06 1.92-3.63 1.92-2.36 0 .537-0.7 1.85-1.56 2.92-1.47 1.83-1.49 1.8-.365-.559zm-99-.583c.0480-1.16.285-1.4.604-.604.289.722.253 1.58-.0790 1.92-.332.332-.569-.258-.525-1.31zm-9.46-.955c-.965-2.51-.680-3.16.499-1.14.584 1 .851 2.04.593 2.29-.257.257-.749-.263-1.09-1.16zm-1.54-5.04c.0480-1.16.285-1.4.604-.604.289.722.253 1.58-.0790 1.92-.332.332-.569-.258-.525-1.31zm33.2-.110c.973-.254 2.32-.237 3 .0370.677.274-.119.481-1.77.461-1.65-.0204-2.2-.244-1.23-.498zm44 0c.973-.254 2.32-.237 3 .0370.677.274-.119.481-1.77.461-1.65-.0204-2.2-.244-1.23-.498zm-44.5-2c0-.627-.762-1.7-1.69-2.38-1.59-1.16-1.59-1.4.0230-3.86 1.58-2.41 6.62-3.96 5.14-1.58-.798 1.29 1.42 4.14 2.64 3.39 1.68-1.04.884 2.26-.942 3.92-2.1 1.9-5.17 2.2-5.17.515zm44-.467c0-1.02-.550-1.4-1.5-1.03-1.11.426-1.5-.143-1.5-2.19 0-3.48 1.67-5.19 4.95-5.09 1.4.0434 2.01.297 1.36.565-1 .6 0 3.3 2 3.3 2.09 0 1.68 3.78-.541 4.96-2.75 1.47-4.07 1.28-4.07-.572zm37-1.9c.0111-2.2.216-2.98.455-1.74s.230 3.04-.0202 4c-.250.956-.446-.0617-.435-2.26zm-91.1-2.53-2.24-3.03 3.8-1.64c5.87-2.53 13.3-2.22 17.7.735 1.99 1.36 3.62 2.83 3.62 3.28.0038.450-1.36-.158-3.04-1.35-4.13-2.94-9.63-3.54-14.4-1.57-3.27 1.37-3.76 1.97-3.35 4.1 0 1.3.2 2.4.1 2.4s-1.2-1.4-2.4-3zm66.8.865c.886-2.48.682-2.77-3.01-4.25-5.47-2.19-8.68-1.97-13.9.937l-4.5 2.5 2.77-2.48c3.18-2.85 9.82-4.92 13-4.06 6.57 1.75 9.7 2.92 9.7 3.62 0 .431-1.13 2.05-2.51 3.59l-2 2.7zm-87.4-1.6c0-1.2.4-2.5.9-2.8 1.18-.731 1.18.248 0 3-.829 1.93-.862 1.92-.930-.191zm40.6-7.43c-4.31-2.27-7.79-2.65-15.1-1.64l-5 .685 5-1.44c2.75-.792 6.58-1.44 8.5-1.44 3.94.003 12 3.3 12 4.91 0 1.45-.911 1.27-5.36-1.07zm22.4 1.24c0-1.32 6.76-4.28 10.9-4.77 1.98-.237 5.63-.0097 8.11.505l4.5.935-6.5.132c-4.09.0828-8.12.864-10.9 2.11-4.81 2.18-6.14 2.42-6.14 1.09zm24.8-2.8c.722-.289 1.58-.253 1.92.0790.332.332-.258.569-1.31.525-1.16-.0480-1.4-.285-.604-.604z" fill="#7689ac"/>
 <path d="m12.6 199c.0482-3.05 3.34-12.1 5.54-15.3 5.4-7.8 14.6-11.5 35.7-14.4 3.81-.524 4.99-1.15 5.7-3.03.496-1.3 1.87-2.89 3.06-3.52 1.19-.635 3.71-4.51 5.6-8.61 1.9-4.1 4.11-7.71 4.91-8.02 1.11-.426.492-1.62-2.55-4.93-5.75-6.24-4.96-6.22 1.29.035 2.92 2.92 6.63 6 8.25 6.83l2.94 1.52-.320-10.1c-.437-13.7-.265-14.2 6.36-16.7 6.83-2.56 9.73-2.68 9.28-.404-.199 1.03-2.55 2.41-6.14 3.6-6.57 2.19-7.69 3.87-7.69 11.6 0 5.11 2.11 9.16 4.77 9.16.912 0 3.79-2.1 6.4-4.66l4.74-4.66 5 5.32c4.79 5.1 5.09 5.26 7.28 3.81 2.73-1.81 3.99-6.74 3.19-12.5-.681-4.92-1.95-6.21-8.24-8.37-4-2-6-5-3-5 2.51 0 10.1 2.86 11.9 4.46.868.794 1.35 4.88 1.49 12.8l.218 11.6 2.83-1.66c1.56-.914 3.31-2.23 3.88-2.92 1.5-1.79 4.21 1.59 5.78 7.2.815 2.91 3.01 6.31 6.38 9.88 5.1 5.41 5.2 5.46 15.6 7.65 5.75 1.21 12.8 3.07 15.6 4.12 9.44 3.53 16.3 11.4 19.3 22.2l1.03 3.75h-87.9c-48.4 0-87.9-.338-87.9-.75zm91.4-26.8c2.14-5.13 4.79-7.85 11.8-12.1 5.45-3.31 5.75-3.7 5.75-7.46 0-3.79-.0968-3.91-2.25-2.78-1.24.649-3.92 2.67-5.95 4.49-2.04 1.82-5.6 4.28-7.92 5.46-3.62 1.85-4.73 2-7.9 1.05-2.03-.607-5.66-2.81-8.08-4.89s-5.63-4.57-7.14-5.53l-2.75-1.74v3.93c0 3.79.259 4.09 6.87 8.18 3.78 2.33 7.63 5.51 8.54 7.07 1.99 3.36 4.54 16 4.69 23.2.0895 4.11.377 3.1 1.41-4.9.713-5.53 2.03-11.8 2.94-14zm25.5-31.4c1.16-1.63 2.63-3.29 3.25-3.67.624-.386-.125.951-1.67 2.97-3.34 4.38-4.6 4.94-1.58.701zm-65-8.12c-.614-1.15-.928-2.27-.698-2.5s.932.708 1.56 2.09c1.38 3.02.707 3.35-.862.419zm71-1c0-.55.436-1.68.969-2.5.533-.825.969-1.05.969-.5s-.436 1.68-.969 2.5c-.533.825-.969 1.05-.969.5zm-38.6-15-2.7-3l2.3-9 2.3-9-.528 9.06c-.348 5.98-.130 9.81.643 11.2 1.46 2.73 1.25 2.72-2.06-.066zm43.6 1c.0302-.825.442-2.4.914-3.5l.859-2 .055 2c.0302 1.1-.381 2.68-.914 3.5-.862 1.33-.963 1.33-.914 0zm-82.5-3.57c-.368-1.47-.476-2.86-.240-3.09.236-.236.730.770 1.1 2.24.368 1.47.476 2.86.240 3.09-.236.236-.730-.770-1.1-2.24zm89.6-2.91c1.63-3.01 3.35-5.71 3.81-6 .461-.285-.497 1.95-2.13 4.96s-3.35 5.71-3.81 6c-.461.285.497-1.95 2.13-4.96zm-98.7-4c-1.5-2-2.5-4-2.2-4 .707 0 5.81 8 5.37 8.41-.218.206-1.62-1.6-3.11-4.02zm6.78.0339c-.368-1.47-.476-2.86-.240-3.09.236-.236.730.770 1.1 2.24.368 1.47.476 2.86.240 3.09-.236.236-.730-.770-1.1-2.24zm87.5 1.06c-.0544-.554.351-2.57.901-4.49.780-2.72.642-4.24-.630-6.92-1.22-2.57-1.81-8.09-2.35-22-1.02-26.5-1.59-27.4-17.5-28.4-7.94-.527-13.5-2.01-27-7.15-5.89-2.25-8.13-2.6-14.2-2.23-7.47.459-16.3 3.85-19.6 7.55-2.33 2.58-3.75 14.4-3.61 30.2.0988 10.9-.232 14.5-1.73 18.5-2.05 5.45-3.8 6.78-4.65 3.52-.819-3.13-2.97-1.28-2.47 2.13.237 1.61.0104 2.58-.527 2.25-.522-.323-.674-2.84-.341-5.66.490-4.14-.635-11.7-2.01-13.5-.163-.216-1.09.226-2.07.983-1.57 1.22-1.57 1.13.0776-.799 1.81-2.13 1.79-2.36-.874-10.5-1.9-4.3-3.5-8.4-4-8.9-1.2-1.3-1.11-2.81.124-2.05 1.44.890 1.25-.457-.975-6.93l-1.98-5.74 2.93-2.47c2.55-2.14 2.8-2.81 1.94-5.07-.797-2.1-.608-3.01.972-4.7 1.08-1.15 2.93-4.71 4.12-7.89 2.2-5.3 5.4-9.7 7.3-9.7.446 0 .811-.648.811-1.44 0-2.1.787-2.39 12.7-4.67 23.9-4.58 21.7-4.46 28.2-1.53 6.57 2.95 12.6 3.39 15.8 1.15 1.95-1.37 2.95-1.13 12.3 2.95 11.3 4.9 17.1 8.56 19.9 12.5 2.18 3.07 4.04 9.37 4.05 13.7.003 1.72 1.18 5.68 2.61 8.81 3.34 7.3 3.96 14.9 2.09 25.6-1.46 8.31-1.4 10.8.224 8.14.629-1.02.947-.939 1.45.361.938 2.45.751 3.22-.361 1.5-.804-1.24-.975-1.16-1 .5-.0249 1.62-.205 1.72-.961.529-1.12-1.76-1.47-1.44-2.73 2.47-.609 1.88-.623 4.36-.0377 6.66.619 2.44.573 4.28-.138 5.51-.897 1.54-1.07 1.24-1.1-1.91-.0167-2.06-.480-3.75-1.03-3.75s-1 .675-1 1.5-.436 1.5-.969 1.5-.753.562-.490 1.25-.156 3.28-.933 5.75c-.776 2.48-1.46 4.05-1.51 3.49zm10-6c1.46-3.06 1.92-3.63 1.92-2.36 0 .537-0.7 1.85-1.56 2.92-1.47 1.83-1.49 1.8-.365-.559zm-99-.583c.0480-1.16.285-1.4.604-.604.289.722.253 1.58-.0790 1.92-.332.332-.569-.258-.525-1.31zm-9.46-.955c-.965-2.51-.680-3.16.499-1.14.584 1 .851 2.04.593 2.29-.257.257-.749-.263-1.09-1.16zm-1.54-5.04c.0480-1.16.285-1.4.604-.604.289.722.253 1.58-.0790 1.92-.332.332-.569-.258-.525-1.31zm33.2-.110c.973-.254 2.32-.237 3 .0370.677.274-.119.481-1.77.461-1.65-.0204-2.2-.244-1.23-.498zm44 0c.973-.254 2.32-.237 3 .0370.677.274-.119.481-1.77.461-1.65-.0204-2.2-.244-1.23-.498zm36-4.4c.0111-2.2.216-2.98.455-1.74s.230 3.04-.0202 4c-.250.956-.446-.0617-.435-2.26zm-79.2.536c-.798-.493-1.11-1.72-.775-3.01.442-1.69.218-2.05-.998-1.58-1.3 0.5-1.36.345-.305-.921 2.27-2.74 4.5-1.84 4.76 1.92.267 3.75-.588 4.89-2.69 3.59zm-11.9-3.07-2.24-3.03 3.8-1.64c5.87-2.53 13.3-2.22 17.7.735 1.99 1.36 3.62 2.83 3.62 3.28.0038.450-1.36-.158-3.04-1.35-4.13-2.94-9.63-3.54-14.4-1.57-3.27 1.37-3.76 1.97-3.35 4.1 0 1.4.2 2.5.1 2.5s-1.2-1.4-2.4-3zm54.1.6c.422-1.68.211-2.51-.642-2.52-.871-.0105-.799-.319.231-.985 2-1.29 4.28-1.26 3.47.0438-.355.574-.118 1.68.527 2.46 1.5 1.81.458 3.5-2.17 3.5-1.69 0-1.94-.442-1.42-2.5zm12.5.336c.886-2.48.682-2.77-3.01-4.25-5.47-2.19-8.68-1.97-13.9.937l-4.5 2.5 2.77-2.48c3.18-2.85 9.82-4.92 13-4.06 6.57 1.75 9.7 2.92 9.7 3.62 0 .431-1.13 2.05-2.51 3.59l-1 2.9zm-86.4-1.5c0-1.2.4-2.5.9-2.8 1.18-.731 1.18.248 0 3-.829 1.93-.862 1.92-.930-.191zm40.6-7.43c-4.31-2.27-7.79-2.65-15.1-1.64l-5 .685 5-1.44c2.75-.792 6.58-1.44 8.5-1.44 3.94.003 12 3.3 12 4.91 0 1.45-.911 1.27-5.36-1.07zm22.4 1.24c0-1.32 6.76-4.28 10.9-4.77 1.98-.237 5.63-.0097 8.11.505l4.5.935-6.5.132c-4.09.0828-8.12.864-10.9 2.11-4.81 2.18-6.14 2.42-6.14 1.09zm24.8-2.8c.722-.289 1.58-.253 1.92.0790.332.332-.258.569-1.31.525-1.16-.0480-1.4-.285-.604-.604z" fill="#cc714e"/>
 <path d="m12.6 199c.0482-3.05 3.34-12.1 5.54-15.3 5.4-7.8 14.6-11.5 35.7-14.4 3.81-.524 4.99-1.15 5.7-3.03.496-1.3 1.87-2.89 3.06-3.52 1.19-.635 3.71-4.51 5.6-8.61 1.9-4.1 4.06-7.7 4.81-7.98 2.8-1.08 5.38 1.52 6.07 6.11.633 4.22 1.06 4.71 7.44 8.65 3.72 2.3 7.52 5.45 8.43 7 1.99 3.36 4.54 16 4.69 23.2.0895 4.11.377 3.1 1.41-4.9 2.03-15.7 4.28-19.7 14.7-26.1 5.36-3.26 5.75-3.75 5.75-7.25 0-4.89 3.87-9.08 6.22-6.74.811.811 2.04 3.51 2.74 5.99.841 3.01 2.99 6.35 6.4 9.97 5.1 5.41 5.2 5.46 15.6 7.65 5.75 1.21 12.8 3.07 15.6 4.12 9.44 3.53 16.3 11.4 19.3 22.2l1.03 3.75h-87.9c-48.4 0-87.9-.338-87.9-.75zm82.3-39.3c-2.31-1.14-6.02-4.06-8.25-6.48l-4.06-4.4.0153-10.8c.0084-5.92.381-11.3.828-12.1 1-2 10.3-6 13.2-6 1.39 0 1.96.545 1.74 1.67-.199 1.03-2.55 2.41-6.14 3.6-6.57 2.19-7.69 3.87-7.69 11.6 0 5.11 2.11 9.16 4.77 9.16.912 0 3.79-2.1 6.4-4.66l4.74-4.66 5 5.32c4.79 5.1 5.09 5.26 7.28 3.81 2.73-1.81 3.99-6.74 3.19-12.5-.681-4.92-1.95-6.21-8.24-8.37-4-2-6-5-3-5 2.47 0 10.1 2.85 11.8 4.4 1.81 1.65 2.34 21.4.658 24.7-1.59 3.2-6.33 7.29-11.5 9.92-4.78 2.44-5.44 2.43-10.6-.125zm-42.1-64.8c-1.1-2-2.8-6.4-3.7-9.7-2.9-10.4-6.8-22-7.7-22.9-1.2-1.3-1.11-2.81.124-2.05 1.44.890 1.25-.457-.975-6.93l-1.98-5.74 2.93-2.47c2.55-2.14 2.8-2.81 1.94-5.07-.797-2.1-.608-3.01.972-4.7 1.08-1.15 2.93-4.71 4.12-7.89 2.2-5.3 5.4-9.7 7.3-9.7.446 0 .811-.648.811-1.44 0-2.1.787-2.39 12.7-4.67 23.9-4.58 21.7-4.46 28.2-1.53 6.57 2.95 12.6 3.39 15.8 1.15 1.95-1.37 2.95-1.13 12.3 2.95 11.3 4.9 17.1 8.56 19.9 12.5 2.18 3.07 4.04 9.37 4.05 13.7.003 1.72 1.18 5.68 2.61 8.81 1.43 3.12 2.83 8.24 3.11 11.4.901 10-3.88 30-8.66 36.2l-1.92 2.49-1.17-2.99c0-1.8-1-11.4-1-21.6-1-26.4-2-27.3-18-28.4-8-.5-13-2-27-7.1-5.9-2.3-8.1-2.6-14.1-2.3-7.47.459-16.3 3.85-19.6 7.55-2.33 2.58-3.77 14.6-3.59 29.8.121 10-.244 14.3-1.54 18.2-.937 2.82-2.05 5.34-2.47 5.6-.419.259-1.69-1.2-2.83-3.24zm24 .0977c.973-.254 2.32-.237 3 .0370.677.274-.119.481-1.77.461-1.65-.0204-2.2-.244-1.23-.498zm44 0c.973-.254 2.32-.237 3 .0370.677.274-.119.481-1.77.461-1.65-.0204-2.2-.244-1.23-.498zm-43.4-4.3c-.798-.493-1.11-1.72-.775-3.01.442-1.69.218-2.05-.998-1.58-1.3 0.5-1.36.345-.305-.921 2.27-2.74 4.5-1.84 4.76 1.92.267 3.75-.588 4.89-2.69 3.59zm-11.9-3.07-2.24-3.03 3.8-1.64c5.87-2.53 13.3-2.22 17.7.735 1.99 1.36 3.62 2.83 3.62 3.28.0038.450-1.36-.158-3.04-1.35-4.13-2.94-9.63-3.54-14.4-1.57-3.27 1.37-3.76 1.97-3.35 4.1.2 1.4.4 2.5.3 2.5s-1.2-1.4-2.4-3zm54.3.6c.422-1.68.211-2.51-.642-2.52-.871-.0105-.799-.319.231-.985 2-1.29 4.28-1.26 3.47.0438-.355.574-.118 1.68.527 2.46 1.5 1.81.458 3.5-2.17 3.5-1.69 0-1.94-.442-1.42-2.5zm12.5.336c.886-2.48.682-2.77-3.01-4.25-5.47-2.19-8.68-1.97-13.9.937l-4.5 2.5 2.77-2.48c3.18-2.85 9.82-4.92 13-4.06 6.57 1.75 9.7 2.92 9.7 3.62 0 .431-1.13 2.05-2.51 3.59l-1 2.9zm-46.3-8.96c-4.31-2.27-7.79-2.65-15.1-1.64l-5 .685 5-1.44c2.75-.792 6.58-1.44 8.5-1.44 3.94.003 12 3.3 12 4.91 0 1.45-.911 1.27-5.36-1.07zm22.4 1.24c0-1.32 6.76-4.28 10.9-4.77 1.98-.237 5.63-.0097 8.11.505l4.5.935-6.5.132c-4.09.0828-8.12.864-10.9 2.11-4.81 2.18-6.14 2.42-6.14 1.09zm24.8-2.8c.722-.289 1.58-.253 1.92.0790.332.332-.258.569-1.31.525-1.16-.0480-1.4-.285-.604-.604z" fill="#997062"/>
 <path d="m12.6 199c.0482-3.05 3.34-12.1 5.54-15.3 5.4-7.8 14.6-11.5 35.7-14.4 3.81-.524 4.99-1.15 5.7-3.03.496-1.3 1.87-2.89 3.06-3.52 1.19-.635 3.68-4.46 5.55-8.5s3.89-7.65 4.49-8.02c0.6-.371 2.15-.107 3.45.586 1.78.955 2.43 2.26 2.65 5.37.272 3.72.760 4.39 5.19 7.11 8.95 5.49 11.4 8.38 13.2 15.4.881 3.51 1.91 10.3 2.28 15l.680 8.61 1.2-11.3c1.77-16.7 4.01-20.6 15.5-27.3 3.93-2.3 4.56-3.16 5.05-6.79 0-5 2-7 5-7 1.34 0 2.29 1.48 3.57 5.52 1.22 3.86 3.26 7.13 6.8 10.9 5.01 5.32 5.16 5.39 15.5 7.57 5.75 1.21 12.8 3.07 15.6 4.12 9.44 3.53 16.3 11.4 19.3 22.2l1.03 3.75h-87.9c-48.4 0-87.9-.338-87.9-.75zm79.4-41.5c-7.75-5.26-8.68-7.14-9.18-18.7-.333-7.72-.0941-10.6 1.01-12.3 1.58-2.42 11.8-6.38 13.6-5.28 2.16 1.33 1.05 2.43-4.14 4.08-7.29 2.33-8.75 4.32-8.75 11.9 0 5.27.365 6.56 2.41 8.47 2.96 2.78 4.93 1.97 9.61-3.93l3.21-4.05 5.37 5.08c4.67 4.42 5.64 4.94 7.43 3.98 2.56-1.37 3.97-4.92 3.97-9.98 0-6.83-1.3-8.64-7.95-11.1-3.71-1.35-6.05-2.78-6.05-3.7 0-1.84 4.08-1.19 10.6 1.7l4.41 1.95v11.7c0 13.4-.721 15.1-8.67 20.4-6.27 4.15-10.6 4.11-16.9-.157zm52-62.2c-1-1.8-2-11.4-2-21.3-.803-19.5-2.06-24.8-6.26-26.4-1.26-.467-5.93-1.12-10.4-1.45-7.56-.562-14.5-2.41-28.9-7.69-8.13-2.98-17.8-2.51-25.5 1.22-3.02 1.46-6.25 3.27-7.17 4.02-2.33 1.9-3.83 13.9-3.83 30.6-.3 10.4-.8 14.9-2.1 18.4-.9 2.7-2 4.8-2.4 4.8-1.8 0-4-5.2-8.3-19.4-2.5-8.2-5-15.5-5.7-16.2-.8-1.1-.7-1.4.5-1.4 1.43 0 1.38-.566-.378-5.04-2.57-6.52-2.5-8.13.448-10.9 2.03-1.9 2.27-2.71 1.47-4.83-.770-2.02-.568-2.97.995-4.64 1.08-1.15 2.9-4.62 4.05-7.7 1.24-3.32 3.51-6.9 5.57-8.77 1.92-1.74 3.48-3.57 3.48-4.05 0-.487 3.26-1.41 7.25-2.06 3.99-.647 9.79-1.81 12.9-2.59 8-2 15.8-1.79 21 .564 4.97 2.25 9.78 2.54 14.4.863 2.83-1.02 4.16-.774 11.5 2.17 17 6.84 23.8 13.7 24.3 24.2.129 3 1.19 7.25 2.44 9.82 4.48 9.19 4.95 18.6 1.61 32.5-1.88 7.76-4.02 13.3-6.32 16.2l-1.84 2.34zm-66.4-4.8c-.798-.493-1.11-1.72-.775-3.01.442-1.69.218-2.05-.998-1.58-1.3 0.5-1.36.345-.305-.921 2.27-2.74 4.5-1.84 4.76 1.92.267 3.75-.588 4.89-2.69 3.59zm-11.9-3.05-2.23-3.01 2.79-1.13c4.92-2 13.6-2.23 17.1-.464 1.7.881 3.39 2.07 3.74 2.64.354.573-.855.127-2.69-.989-4.03-2.46-9.56-2.61-14.2-.391-3.03 1.45-3.34 1.93-2.56 4 1.18 3.11.775 2.97-1.91-.657zm54.3.5c.422-1.68.211-2.51-.642-2.52-.871-.0105-.799-.319.231-.985 2-1.29 4.28-1.26 3.47.0438-.355.574-.118 1.68.527 2.46 1.5 1.81.458 3.5-2.17 3.5-1.69 0-1.94-.442-1.42-2.5zm13.1-.520c1.19-3.76-8.79-6.34-15.2-3.92-2.25.849-2.57.812-1.58-.185 1.98-2 12.3-2.32 16.6-.515 3.73 1.56 3.75 1.59 2.1 4.1-2 3.05-2.8 3.26-1.92.512zm-45.3-7.7c-1.26-.881-4.64-2.17-7.5-2.86-4.51-1.09-4.76-1.27-1.89-1.35 3.56-.0913 13.2 3.59 13.2 5.04 0 1.26-1.17 1-3.8-.830zm21.3.699c1.64-2.66 13.5-6.2 13.5-4.04 0 .575-1.01 1.06-2.25 1.07-1.24.0121-4.21.912-6.61 2-4.98 2.26-5.5 2.37-4.64.971zm-36.6-3.7c.722-.289 1.58-.253 1.92.0790.332.332-.258.569-1.31.525-1.16-.0480-1.4-.285-.604-.604zm54.9.0208c.688-.277 1.81-.277 2.5 0 .688.277.125.504-1.25.504s-1.94-.227-1.25-.504z" fill="#607695"/>
 <path d="m13.2 197c2.02-10.8 9.73-19.9 19.4-23 2.97-.930 10.2-2.44 16.1-3.35 7.65-1.18 10.8-2.06 10.8-3.04 0-.756 1.69-3.08 3.75-5.16s4.65-6.17 5.75-9.08c2.54-6.72 3.81-7.84 6.98-6.14 1.85.990 2.49 2.25 2.72 5.4.272 3.72.760 4.39 5.19 7.11 11.9 7.28 14.2 11.9 15.3 30.8l.6 10h-87.2zm87.4-.5c.043-5.23 1.71-17.6 3.05-22.5 1.27-4.72 6.14-9.89 13-13.8 4.08-2.34 4.66-3.11 5.17-6.89 1.18-8.82 5.88-9.11 8.66-.528.858 2.64 3.58 7.15 6.06 10 4.36 5.04 4.77 5.26 13 6.95 19.8 4.05 27.4 7.64 32.4 15.3 2.53 3.83 5.56 11.4 5.56 13.9 0 1.14-7.27 1.37-43.5 1.37h-43.5l.0309-3.75zm-8.6-38.5c-7.75-5.26-8.68-7.14-9.18-18.7-.333-7.72-.0941-10.6 1.01-12.3 1.58-2.42 11.8-6.38 13.6-5.28 2.16 1.33 1.05 2.43-4.14 4.08-7.29 2.33-8.75 4.32-8.75 11.9 0 5.27.365 6.56 2.41 8.47 2.96 2.78 4.93 1.97 9.61-3.93l3.21-4.05 5.37 5.08c4.67 4.42 5.64 4.94 7.43 3.98 2.56-1.37 3.97-4.92 3.97-9.98 0-6.83-1.3-8.64-7.95-11.1-3.71-1.35-6.05-2.78-6.05-3.7 0-1.84 4.08-1.19 10.6 1.7l4.41 1.95v11.7c0 13.4-.721 15.1-8.67 20.4-6.27 4.15-10.6 4.11-16.9-.157zm51.6-62.2c-1-1.8-2-11.4-2-21.3-.803-19.5-2.06-24.8-6.26-26.4-1.26-.467-5.93-1.12-10.4-1.45-7.56-.562-14.5-2.41-28.9-7.69-8.13-2.98-17.8-2.51-25.5 1.22-3.02 1.46-6.25 3.27-7.17 4.02-2.33 1.9-3.83 13.9-3.83 30.6-.3 10.4-.8 14.9-2.1 18.4-.9 2.7-2 4.8-2.4 4.8-1.8 0-4-5.2-8.3-19.4-2.5-8.2-5-15.5-5.7-16.2-.8-1.1-.7-1.4.5-1.4 1.43 0 1.38-.566-.378-5.04-2.57-6.52-2.5-8.13.448-10.9 2.03-1.9 2.27-2.71 1.47-4.83-.770-2.02-.568-2.97.995-4.64 1.08-1.15 2.9-4.62 4.05-7.7 1.24-3.32 3.51-6.9 5.57-8.77 1.92-1.74 3.48-3.57 3.48-4.05 0-.487 3.26-1.41 7.25-2.06 3.99-.647 9.79-1.81 12.9-2.59 8-2 15.8-1.79 21 .564 4.97 2.25 9.78 2.54 14.4.863 2.83-1.02 4.16-.774 11.5 2.17 17 6.84 23.8 13.7 24.3 24.2.129 3 1.19 7.25 2.44 9.82 4.48 9.19 4.95 18.6 1.61 32.5-1.88 7.76-4.02 13.3-6.32 16.2l-1.84 2.34zm-77.8-7.77-2.23-3.01 2.79-1.13c4.92-2 13.6-2.23 17.1-.464 1.7.881 3.39 2.07 3.74 2.64.354.573-.855.127-2.69-.989-4.03-2.46-9.56-2.61-14.2-.391-3.03 1.45-3.34 1.93-2.56 4 1.18 3.11.775 2.97-1.91-.657zm10.8 2c-.837-1.35.292-3 2.06-3 .793 0 1.44.9 1.44 2 0 2.07-2.41 2.76-3.5 1zm43 0c-.816-1.32.277-3 1.95-3 1.46 0 2.77 2.45 1.81 3.4-.932.933-3.08.703-3.76-.402zm13-2.02c1.19-3.76-8.79-6.34-15.2-3.92-2.25.849-2.57.812-1.58-.185 1.98-2 12.3-2.32 16.6-.515 3.73 1.56 3.75 1.59 2.1 4.1-2 3.05-2.8 3.26-1.92.512zm-45.3-7.7c-1.26-.881-4.64-2.17-7.5-2.86-4.51-1.09-4.76-1.27-1.89-1.35 3.56-.0913 13.2 3.59 13.2 5.04 0 1.26-1.17 1-3.8-.830zm21.3.699c1.64-2.66 13.5-6.2 13.5-4.04 0 .575-1.01 1.06-2.25 1.07-1.24.0121-4.21.912-6.61 2-4.98 2.26-5.5 2.37-4.64.971zm-36.6-3.7c.722-.289 1.58-.253 1.92.0790.332.332-.258.569-1.31.525-1.16-.0480-1.4-.285-.604-.604zm54.9.0208c.688-.277 1.81-.277 2.5 0 .688.277.125.504-1.25.504s-1.94-.227-1.25-.504z" fill="#504543"/>
 <path d="m13.2 197c1.11-5.95 4.43-12.4 8.32-16.2 2.12-2.07 4.35-3.45 4.96-3.07.613.379.991.154.840-.499-.410-1.77 8.84-4.63 20.7-6.39 5.9-1 10.8-2 11.1-2 .258 0 .470-.675.470-1.5s1.69-3.21 3.75-5.31c2.06-2.09 4.71-6.24 5.87-9.22 1.17-2.98 2.83-5.86 3.69-6.4 2.36-1.49 5.51 1.89 5.88 6.28.276 3.3.981 4.09 7.52 8.4 3.97 2.62 7.75 5.75 8.39 6.95 2.16 4.04 3.82 12.2 4.5 22l.6 10h-87.2zm88-5c.754-10.9 2.9-20.3 5.44-23.9 1.13-1.59 4.16-4.09 6.74-5.55 7.39-4.21 9.18-6.22 9.18-10.3 0-2.55.602-3.96 2.08-4.88 2.79-1.74 4.4-.301 5.77 5.14.657 2.61 2.93 6.41 5.86 9.8 4.34 5.01 5.35 5.65 10.8 6.76 19.6 4 28.3 7.58 33.4 13.8 3 3.63 7.08 12.8 7.08 15.8 0 1.26-5.99 1.46-43.5 1.46h-43.5zm-7.63-32.9c-4.87-2.92-7.93-5.88-9.72-9.39-1.35-2.65-1.01-2.48 2.98 1.5 2.48 2.48 5.91 5.31 7.61 6.3 2.99 1.73 3.08 1.73 2.43 0-.593-1.58-.470-1.63 1.01-.427 1.43 1.16 1.69 1.16 1.7 0 .0130-1.16.149-1.16.883-.002.701 1.11 1.08 1.01 1.95-.5.991-1.71 1.09-1.72 1.12-.120.0167.962.328 1.75.693 1.75 2.05 0 9.75-5.62 11.4-8.33 1.06-1.74 1.94-2.57 1.94-1.83.007 2.38-3.87 6.88-8.67 10.1-5.58 3.69-10.3 4-15.3.984zm50.6-63.2c-1-1.8-2-11.4-2-21.3-.803-19.5-2.06-24.8-6.26-26.4-1.26-.467-5.93-1.12-10.4-1.45-7.56-.562-14.5-2.41-28.9-7.69-8.13-2.98-17.8-2.51-25.5 1.22-3.02 1.46-6.25 3.27-7.17 4.02-2.33 1.9-3.83 13.9-3.83 30.6-.3 10.4-.8 14.9-2.1 18.4-.9 2.7-2 4.8-2.4 4.8-1.5 0-3.9-4.7-6-12.1-1.7-6.2-5.4-17.6-7.5-23.9-.3-.8.2-.5 1 .7 1.4 1.8 4.4 10.2 9.5 26.3 1.93 6.12.287-7.08-1.83-14.7-1.01-3.63-1.62-7.14-1.37-7.81.256-.666-.460-3.96-1.59-7.31-1.13-3.36-2.06-6.86-2.06-7.79 0-1.51.218-1.49 2.13.218l2.1 1.9-.5-5.5c-.276-3.02-.820-6.25-1.21-7.17-.529-1.25-.120-1.75 1.62-2 2.06-.291 2.36-.949 2.63-5.65l.305-5.32 3.04.669c2.9.6 3.1.4 2.5-1.7-.4-1.3-.9-3.2-1.2-4.1-.619-2.22 1.42-2.27 3.82-.0950 1.01.910 1.83 1.22 1.83.691 0-.530.577-1.75 1.28-2.72 1.2-1.64 1.69-1.56 7.75 1.31 7.48 3.54 9.51 3.85 8.46 1.31-2.02-4.92-1.91-5.3 1.15-3.84 1.57.749 4.1 1.65 5.61 2 2.3.532 2.75.306 2.75-1.38 0-1.11.338-2 .75-1.99.412.0184 4.32 2.48 8.69 5.47s8.11 5.27 8.32 5.06c.209-.209-.362-1.81-1.27-3.57-1.9-3.68-1.3-5.01 1.24-2.78.966.847 3.22 2.28 5.01 3.19l3.25 1.65v-3.25c0-3.09.0708-3.15 1.42-1.23.778 1.11 3.7 3.44 6.5 5.18 4.86 3.02 5.08 3.07 5.08 1.04 0-1.69.759-1.15 3.72 2.65 2.21 2.84 3.86 4.22 4.08 3.41 1.08-4.01 1.18-4.12 2.71-2.85.816.677 2.01 2.99 2.66 5.15.699 2.33 1.47 3.44 1.9 2.75.632-1.02 2.96 5.45 4.17 11.6.216 1.1.929 1.89 1.58 1.75.761-.160 1.19 1.16 1.19 3.67 0 2.15.461 4.07 1.02 4.26.666.222.525 2-.402 5.08-.785 2.61-1.02 4.49-.525 4.18 1.15-.714 1.17 3.17.0272 5.38-.481.926-.552 2.57-.157 3.66 1.11 3.05 3.4-13.6 2.74-20-.304-2.95-1.49-7.53-2.64-10.2-1.96-4.53-1.97-4.67-.142-2.33 4.74 6.08 5.73 18.6 2.57 32.5-2.05 9.02-3.9 13.9-6.52 17.2l-1.79 2.27-1.2-3.26zm6-12.8c0-.945-.318-.761-.859.5-.473 1.1-.859 2.68-.859 3.5 0 .945.318.761.859-.5.473-1.1.859-2.68.859-3.5zm-84.7 4.99-2.23-3.01 2.79-1.13c4.92-2 13.6-2.23 17.1-.464 1.7.881 3.39 2.07 3.74 2.64.354.573-.855.127-2.69-.989-4.03-2.46-9.56-2.61-14.2-.391-3.03 1.45-3.34 1.93-2.56 4 1.18 3.11.775 2.97-1.91-.657zm11.7 2c-.837-1.35.292-3 2.06-3 .793 0 1.44.9 1.44 2 0 2.07-2.41 2.76-3.5 1zm43 0c-.816-1.32.277-3 1.95-3 1.46 0 2.77 2.45 1.81 3.4-.932.933-3.08.703-3.76-.402zm13-2.02c1.19-3.76-8.79-6.34-15.2-3.92-2.25.849-2.57.812-1.58-.185 1.98-2 12.3-2.32 16.6-.515 3.73 1.56 3.75 1.59 2.1 4.1-2 3.05-2.8 3.26-1.92.512zm-91.4-32.5c-1.15-3.08-2.07-6.15-2.03-6.82.0383-.667 1.18 1.66 2.54 5.17s2.27 6.58 2.03 6.82c-.241.241-1.38-2.09-2.54-5.17zm106-15.5c-.243-5.42-2.95-11.6-6.49-14.9-1.43-1.31-7.22-4.78-12.9-7.72-5.66-2.93-10-5.35-9.68-5.36 1.39-.0761 14.8 5.87 18.5 8.21 4.82 3.04 10.2 8.94 11 12.1.317 1.26.405 4.52.195 7.23l-1 5zm-99.5-11.7c1.89-4.68 3.73-7.42 6.14-9.18l3.43-2.5-2.85 2.81c-1.57 1.55-4.14 5.68-5.71 9.18-3.76 8.38-4.45 8.17-1.01-.309zm20.6-15.7c3.89-.755 8.84-1.86 11-2.46s5.73-1.04 7.93-.975c3.43.0997 3.14.241-2 .987-3.3.479-7.24 1.3-8.76 1.83-1.52.527-5.57 1.19-9 1.48l-6.24.519zm34.2.749c.722-.289 1.58-.253 1.92.0790.332.332-.258.569-1.31.525-1.16-.0480-1.4-.285-.604-.604zm6 0c.722-.289 1.58-.253 1.92.0790.332.332-.258.569-1.31.525-1.16-.0480-1.4-.285-.604-.604zm-10.5-1.3c-.825-.533-1.05-.969-.5-.969s1.68.436 2.5.969c.825.533 1.05.969.5.969s-1.67-.436-2.5-.969z" fill="#54423d"/>
 <path d="m13.2 197c1.11-5.95 4.43-12.4 8.32-16.2 2.12-2.07 4.35-3.45 4.96-3.07.613.379.991.154.840-.499-.410-1.77 8.84-4.63 20.7-6.39 5.9-1 10.8-2 11.1-2 .258 0 .470-.675.470-1.5s1.69-3.21 3.75-5.31c2.06-2.09 4.71-6.24 5.87-9.22 1.17-2.98 2.83-5.86 3.69-6.4 2.36-1.49 5.51 1.89 5.88 6.28.276 3.3.981 4.09 7.52 8.4 3.97 2.62 7.75 5.75 8.39 6.95 2.16 4.04 3.82 12.2 4.5 22l.6 10h-87.2zm88-5c.754-10.9 2.9-20.3 5.44-23.9 1.13-1.59 4.16-4.09 6.74-5.55 7.39-4.21 9.18-6.22 9.18-10.3 0-2.55.602-3.96 2.08-4.88 2.79-1.74 4.4-.301 5.77 5.14.657 2.61 2.93 6.41 5.86 9.8 4.34 5.01 5.35 5.65 10.8 6.76 19.6 4 28.3 7.58 33.4 13.8 3 3.63 7.08 12.8 7.08 15.8 0 1.26-5.99 1.46-43.5 1.46h-43.5zm-8.96-33.8c-3.95-2.62-8.67-7.6-8.67-9.16 0-.242 1.81 1.29 4.03 3.4s5.36 4.52 6.97 5.36c2.74 1.42 2.89 1.4 2.28-.241-.579-1.54-.452-1.59 1.03-.389 1.43 1.16 1.69 1.16 1.7 0 .0128-1.15.154-1.15.875-.0157.659 1.04 1.03 1.07 1.61.143.585-.947.919-.941 1.52.0277 1.14 1.85 8.87-2.73 11.7-6.93 1.26-1.87 2.29-2.87 2.29-2.23 0 1.93-7.83 9.82-11.4 11.5-4.97 2.36-8.67 1.96-13.9-1.5zm-38.7-62.3c-.9-1.3-3.2-7.9-5.2-14.7s-4.3-13.9-5.1-15.8c-1.82-4.36-1.83-5.21-.0349-2.64 1.5 2.15 6.43 16.1 9.1 25.8.887 3.22 1.81 5.66 2.06 5.41.695-.695-2.32-16.8-4.07-21.8-.865-2.45-1.16-4.59-.653-4.76.506-.169-.166-3.72-1.49-7.9-2.56-8.07-2.46-9.64.444-7.01 1.73 1.56 1.78 1.36 1.15-4.7-.361-3.49-.995-6.88-1.41-7.55-.527-.852-.0443-1.12 1.61-.886 2.18.307 2.4-.0751 2.86-5.17.482-5.3.599-5.49 3.25-5.21 3.01.315 3.26-.314 1.72-4.36-1.34-3.51-.630-4.09 2.5-2.04 1.39.912 2.53 1.28 2.53.827 0-.458.602-1.65 1.34-2.66 1.28-1.75 1.52-1.72 5.75.711 2.43 1.4 5.92 2.85 7.76 3.24 3.56.742 3.6.572 1.36-5.38-.406-1.08.0025-1.04 1.89.176 1.32.853 4.06 1.85 6.09 2.22 3.44.628 3.64.527 3.1-1.54-.538-2.06-.411-2.12 1.82-.943 1.32.698 5.27 3.23 8.79 5.63s6.56 4.2 6.76 4c.202-.202-.341-2.06-1.21-4.13l-1.57-3.76 2.93 2.09c1.61 1.15 4.11 2.54 5.56 3.09 2.4.913 2.63.784 2.63-1.47v-2.3l4.6 3.51c6.79 5.18 8.4 5.92 8.4 3.83 0-1.15 1.21-.302 3.68 2.59 3.52 4.11 3.72 4.2 4.5 2.1 1.23-3.32 3.12-1.97 4.99 3.53.918 2.71 1.72 4.03 1.78 2.93.178-3.21 1.63.0782 3.1 7 .698 3.3 1.65 6.43 2.11 6.95.463.522.842 2.48.842 4.36 0 2.55.361 3.27 1.44 2.86 1.24-.477 1.25.0709.0341 4.11-1.05 3.49-1.11 4.84-.242 5.37.875.541.864 1.36-.0468 3.36-.663 1.46-.945 3.07-.626 3.58.319.516-.152 3.46-1.05 6.53-.894 3.08-1.44 5.78-1.21 6.01.604.604 3.41-9.96 4.78-18 1.47-8.61.760-16.9-1.98-23.2-1.96-4.54-1.98-4.71-.169-2.39 6.34 8.14 5.39 31.7-1.87 45.9-4.37 8.56-5.01 6.81-6.55-17.9-1.3-20.8-2.42-25.2-6.81-26.9-1.21-.470-6.7-1.3-12.2-1.84-7.7-.761-12.2-1.86-19.5-4.8-8.62-3.46-10.4-3.82-19-3.86-8.97-.0460-9.85.142-15.8 3.39-4 2.17-6.73 4.39-7.38 6-.6 1.3-1.2 11-1.5 21.5-.5 23.6-2.8 32.5-6.5 27.2zm55.7-60.7c-.825-.533-1.95-.969-2.5-.969s-.325.436.5.969 1.95.969 2.5.969.325-.436-.5-.969zm-20.7-3.6c-.332-.332-1.19-.368-1.92-.0790-.798.319-.561.556.604.604 1.05.0434 1.64-.193 1.31-.525zm-7.48-1.06c-.688-.277-1.81-.277-2.5 0-.688.277-.125.504 1.25.504s1.94-.227 1.25-.504zm-3.8 59.7c-.837-1.35.292-3 2.06-3 .793 0 1.44.9 1.44 2 0 2.07-2.41 2.76-3.5 1zm43 0c-.816-1.32.277-3 1.95-3 1.46 0 2.77 2.45 1.81 3.4-1 .9-3 .7-4-.4zm-54.4-2.5c-.665-.801-.929-1.91-.586-2.46.917-1.48 7.46-3.09 12-2.95 3.89.116 3.86.139-1.07.863-6.29.923-9.77 2.69-9.04 4.58.701 1.83.177 1.81-1.35-.0329zm68-.386c0-1.72-4.06-3.52-9.5-4.23l-5-.647 4.6-.141c4.35-.133 10.5 1.29 12.2 2.84.436.388.0983 1.28-.75 1.99-.993.824-1.54.892-1.54.193zm-92.4-31.6c-1.15-3.08-2.07-6.15-2.03-6.82.0383-.667 1.18 1.66 2.54 5.17s2.27 6.58 2.03 6.82c-.241.241-1.38-2.09-2.54-5.17zm106-15.5c-.228-5.4-2.93-11.6-6.45-14.9-1.41-1.3-6.76-4.58-11.9-7.3-10.4-5.5-8.32-5.59 2.91-.140 12.1 5.9 17 12.9 16 22.8v4zm-99.5-11.7c1.89-4.68 3.73-7.42 6.14-9.18l3.43-2.5-2.85 2.81c-1.57 1.55-4.14 5.68-5.71 9.18-3.76 8.38-4.45 8.17-1.01-.309zm20.6-15.7c3.89-.755 8.84-1.86 11-2.46s5.73-1.04 7.93-.975c3.43.0997 3.14.241-2 .987-3.3.479-7.24 1.3-8.76 1.83-1.52.527-5.57 1.19-9 1.48l-6.24.519zm34.2.749c.722-.289 1.58-.253 1.92.0790.332.332-.258.569-1.31.525-1.16-.0480-1.4-.285-.604-.604zm6 0c.722-.289 1.58-.253 1.92.0790.332.332-.258.569-1.31.525-1.16-.0480-1.4-.285-.604-.604zm-10.5-1.3c-.825-.533-1.05-.969-.5-.969s1.68.436 2.5.969c.825.533 1.05.969.5.969s-1.67-.436-2.5-.969z" fill="#114f6f"/>
 <path d="m98.9 194c0-3.58.181-5.04.403-3.25s.222 4.71 0 6.5-.403.325-.403-3.25zm2.31-2c.758-11.1 2.89-20.5 5.45-24.1 1.13-1.59 4.16-4.08 6.74-5.55s5.92-3.8 7.42-5.18c1.51-1.38 2.98-2.27 3.28-1.98.592.592-4.58 5.17-11.4 10.1-4.64 3.35-6.22 5.69-3.84 5.69 1.63 0 4.71 3.18 7.27 7.5 1.19 2.01.390 1.44-2.45-1.75-2.32-2.61-4.66-4.75-5.19-4.75-.533 0-2.07 2.36-3.41 5.25-1.9 4.07-2.45 6.93-2.47 12.8-.0138 4.12-.458 8.18-.987 9-.635.990-.765-1.39-.381-7zm85.5 7c-.0439-.825-1.36-4.2-2.93-7.5-2.95-6.2-10.9-14.7-15-16-1.24-.393-2.02-.942-1.74-1.22 1.18-1.18 11.2 5.49 14.2 9.49 3.48 4.56 6.94 13.3 6.09 15.5-.342.846-.528.765-.583-.254zm-172-2c-.0198-.942.861-4.11 1.96-7.04 3.41-9.11 12.5-15.9 23-17.2 4.35-.550 4.32-.526-1.04.976-12.6 3.53-17.9 8.27-22 19.5-1.08 3.02-1.98 4.73-2 3.79zm107-9c-1.24-1.59-1.21-1.62.378-.378.962.755 1.75 1.54 1.75 1.75 0 .823-.821.293-2.13-1.37zm-51.3-.957c-.543-1.43-.428-1.54.560-.560.683.678.991 1.49.683 1.79-.308.308-.867-.247-1.24-1.23zm60.3-1c.454-.825 2.77-4.36 5.15-7.87 5.2-7.66 5.39-10.4 1.07-15.1-2.05-2.26-1.69-2.04.950.597 2.34 2.33 5.88 4.66 8 5.25l3.8 1.07-4.25-.549c-3.32-.429-4.25-.228-4.25.923 0 .809-2.09 4.56-4.64 8.34-4.5 6.66-7.59 10.6-5.83 7.37zm-46.5-6c3.1-5 6.7-9 9.1-9 4.52 0-.278-5.87-7.27-8.91-7-3.04-11.1-9.07-8.78-12.8.959-1.53 1.02-1.46.478.529-.939 3.42 1.73 6.7 9.54 11.7 3.8 2.44 7.55 5.68 8.34 7.21 1.73 3.36 4.07 14.2 3.24 15-.323.323-.597-.275-.609-1.33-.1-3-3.8-10-5.4-10-.805 0-3.16 2.36-5.22 5.25-5.09 7.11-6.14 8.06-3.43 3.1zm-22.9-8.28c-.568-1.06-2.05-2.13-3.29-2.36-2.05-.395-2.02-.446.337-.570 1.87-.0981 2.91.562 3.73 2.36 1.34 2.93.724 3.38-.781.570zm-15.8-.763c.973-.254 2.32-.237 3 .0371.677.274-.119.481-1.77.461-1.65-.0204-2.2-.244-1.23-.498zm5.48-.969c.688-.277 1.81-.277 2.5 0 .688.277.125.504-1.25.504s-1.94-.227-1.25-.504zm9.25-4.28c0-.518.445-1.22.989-1.55.567-.350.735.0511.393.941-.665 1.73-1.38 2.05-1.38.611zm4.5-4.06c.995-1.1 2.03-2 2.31-2 .275 0-.314.9-1.31 2-.995 1.1-2.03 2-2.31 2-.275 0 .314-.9 1.31-2zm28.2-4.09c-3.95-2.62-8.67-7.6-8.67-9.16 0-.242 1.81 1.29 4.03 3.4s5.36 4.52 6.97 5.36c2.74 1.42 2.89 1.4 2.28-.241-.579-1.54-.452-1.59 1.03-.389 1.43 1.16 1.69 1.16 1.7 0 .0128-1.15.154-1.15.875-.0157.659 1.04 1.03 1.07 1.61.143.585-.947.919-.941 1.52.0277 1.14 1.85 8.87-2.73 11.7-6.93 1.26-1.87 2.29-2.87 2.29-2.23 0 1.93-7.83 9.82-11.4 11.5-4.97 2.36-8.67 1.96-13.9-1.5zm38.8-.974c-.363-.587-.445-1.28-.183-1.54.262-.262.743.218 1.07 1.07.676 1.76.0999 2.07-.886.477zm-8-5c0-1.38.227-1.94.504-1.25.277.688.277 1.81 0 2.5-.277.688-.504.125-.504-1.25zm1.92-.583c.048-1.16.285-1.4.604-.604.289.722.253 1.58-.0789 1.92-.332.332-.569-.258-.525-1.31zm4-2c.048-1.16.285-1.4.604-.604.289.722.253 1.58-.0789 1.92-.332.332-.569-.258-.525-1.31zm-75.7-53.3c-.9-1.3-3.2-7.9-5.2-14.7s-4.3-13.9-5.1-15.8c-1.82-4.36-1.83-5.21-.0349-2.64 1.5 2.15 6.43 16.1 9.1 25.8.887 3.22 1.81 5.66 2.06 5.41.695-.695-2.32-16.8-4.07-21.8-.865-2.45-1.16-4.59-.653-4.76.506-.169-.166-3.72-1.49-7.9-2.56-8.07-2.46-9.64.444-7.01 1.73 1.56 1.78 1.36 1.15-4.7-.361-3.49-.995-6.88-1.41-7.55-.527-.852-.0443-1.12 1.61-.886 2.18.307 2.4-.0751 2.86-5.17.482-5.3.599-5.49 3.25-5.21 3.01.315 3.26-.314 1.72-4.36-1.34-3.51-.630-4.09 2.5-2.04 1.39.912 2.53 1.28 2.53.827 0-.458.602-1.65 1.34-2.66 1.28-1.75 1.52-1.72 5.75.711 2.43 1.4 5.92 2.85 7.76 3.24 3.56.742 3.6.572 1.36-5.38-.406-1.08.0025-1.04 1.89.176 1.32.853 4.06 1.85 6.09 2.22 3.44.628 3.64.527 3.1-1.54-.538-2.06-.411-2.12 1.82-.943 1.32.698 5.27 3.23 8.79 5.63s6.56 4.2 6.76 4c.202-.202-.341-2.06-1.21-4.13l-1.57-3.76 2.93 2.09c1.61 1.15 4.11 2.54 5.56 3.09 2.4.913 2.63.784 2.63-1.47v-2.3l4.6 3.51c6.79 5.18 8.4 5.92 8.4 3.83 0-1.15 1.21-.302 3.68 2.59 3.52 4.11 3.72 4.2 4.5 2.1 1.23-3.32 3.12-1.97 4.99 3.53.918 2.71 1.72 4.03 1.78 2.93.178-3.21 1.63.0782 3.1 7 .698 3.3 1.65 6.43 2.11 6.95.463.522.842 2.48.842 4.36 0 2.55.361 3.27 1.44 2.86 1.24-.477 1.25.0709.0341 4.11-1.05 3.49-1.11 4.84-.242 5.37.875.541.864 1.36-.0468 3.36-.663 1.46-.945 3.07-.626 3.58.319.516-.152 3.46-1.05 6.53-.894 3.08-1.44 5.78-1.21 6.01.604.604 3.41-9.96 4.78-18 1.47-8.61.760-16.9-1.98-23.2-1.96-4.54-1.98-4.71-.169-2.39 6.34 8.14 5.39 31.7-1.87 45.9-4.37 8.56-5.01 6.81-6.55-17.9-1.3-20.8-2.42-25.2-6.81-26.9-1.21-.470-6.7-1.3-12.2-1.84-7.7-.761-12.2-1.86-19.5-4.8-8.62-3.46-10.4-3.82-19-3.86-8.97-.0460-9.85.142-15.8 3.39-4 2.17-6.73 4.39-7.38 6-.6 1.3-1.2 11-1.5 21.5-.5 23.6-2.8 32.5-6.5 27.2zm55.7-60.7c-.825-.533-1.95-.969-2.5-.969s-.325.436.5.969 1.95.969 2.5.969.325-.436-.5-.969zm-20.7-3.6c-.332-.332-1.19-.368-1.92-.0790-.798.319-.561.556.604.604 1.05.0434 1.64-.193 1.31-.525zm-7.48-1.06c-.688-.277-1.81-.277-2.5 0-.688.277-.125.504 1.25.504s1.94-.227 1.25-.504zm-3.8 59.6c-1.03-1.67 1.29-3.58 2.67-2.2 1.1 1.2.4 3.3-1.2 3.3-.4 0-1.1-.5-1.5-1.1zm44-.9c0-1.11.667-2 1.5-2s1.5.889 1.5 2-.667 2-1.5 2-1.5-.889-1.5-2zm-55.4-1.5c-.665-.801-.929-1.91-.586-2.46.917-1.48 7.46-3.09 12-2.95 3.89.116 3.86.139-1.07.863-6.29.923-9.77 2.69-9.04 4.58.701 1.83.177 1.81-1.35-.0329zm68-.386c0-1.72-4.06-3.52-9.5-4.23l-5-.647 4.6-.141c4.35-.133 10.5 1.29 12.2 2.84.436.388.0983 1.28-.75 1.99-.993.824-1.54.892-1.54.193zm-92.4-31.6c-1.15-3.08-2.07-6.15-2.03-6.82.0383-.667 1.18 1.66 2.54 5.17s2.27 6.58 2.03 6.82c-.241.241-1.38-2.09-2.54-5.17zm106-15.5c-.228-5.4-2.93-11.6-6.45-14.9-1.41-1.3-6.76-4.58-11.9-7.3-10.4-5.5-8.32-5.59 2.91-.140 12.1 5.9 17 12.9 16 22.8v4zm-99.5-11.7c1.89-4.68 3.73-7.42 6.14-9.18l3.43-2.5-2.85 2.81c-1.57 1.55-4.14 5.68-5.71 9.18-3.76 8.38-4.45 8.17-1.01-.309zm20.6-15.7c3.89-.755 8.84-1.86 11-2.46s5.73-1.04 7.93-.975c3.43.0997 3.14.241-2 .987-3.3.479-7.24 1.3-8.76 1.83-1.52.527-5.57 1.19-9 1.48l-6.24.519zm34.2.749c.722-.289 1.58-.253 1.92.0790.332.332-.258.569-1.31.525-1.16-.0480-1.4-.285-.604-.604zm6 0c.722-.289 1.58-.253 1.92.0790.332.332-.258.569-1.31.525-1.16-.0480-1.4-.285-.604-.604zm-10.5-1.3c-.825-.533-1.05-.969-.5-.969s1.68.436 2.5.969c.825.533 1.05.969.5.969s-1.67-.436-2.5-.969z" fill="#473631"/>
 <path d="m98.9 194c0-3.58.181-5.04.403-3.25s.222 4.71 0 6.5-.403.325-.403-3.25zm2.31-2c.758-11.1 2.89-20.5 5.45-24.1 1.13-1.59 4.16-4.08 6.74-5.55s5.92-3.8 7.42-5.18c1.51-1.38 2.98-2.27 3.28-1.98.592.592-4.58 5.17-11.4 10.1-4.64 3.35-6.22 5.69-3.84 5.69 1.63 0 4.71 3.18 7.27 7.5 1.19 2.01.390 1.44-2.45-1.75-2.32-2.61-4.66-4.75-5.19-4.75-.533 0-2.07 2.36-3.41 5.25-1.9 4.07-2.45 6.93-2.47 12.8-.0138 4.12-.458 8.18-.987 9-.635.990-.765-1.39-.381-7zm85.5 7c-.0439-.825-1.36-4.2-2.93-7.5-2.95-6.2-10.9-14.7-15-16-1.24-.393-2.02-.942-1.74-1.22 1.18-1.18 11.2 5.49 14.2 9.49 3.48 4.56 6.94 13.3 6.09 15.5-.342.846-.528.765-.583-.254zm-172-2c-.0198-.942.861-4.11 1.96-7.04 3.41-9.11 12.5-15.9 23-17.2 4.35-.550 4.32-.526-1.04.976-12.6 3.53-17.9 8.27-22 19.5-1.08 3.02-1.98 4.73-2 3.79zm107-9c-1.24-1.59-1.21-1.62.378-.378.962.755 1.75 1.54 1.75 1.75 0 .823-.821.293-2.13-1.37zm-51.3-.957c-.543-1.43-.428-1.54.560-.560.683.678.991 1.49.683 1.79-.308.308-.867-.247-1.24-1.23zm60.3-1c.454-.825 2.77-4.36 5.15-7.87 5.2-7.66 5.39-10.4 1.07-15.1-2.05-2.26-1.69-2.04.950.597 2.34 2.33 5.88 4.66 8 5.25l3.8 1.07-4.25-.549c-3.32-.429-4.25-.228-4.25.923 0 .809-2.09 4.56-4.64 8.34-4.5 6.66-7.59 10.6-5.83 7.37zm-46.5-6c3.1-5 6.7-9 9.1-9 4.52 0-.278-5.87-7.27-8.91-7-3.04-11.1-9.07-8.78-12.8.959-1.53 1.02-1.46.478.529-.939 3.42 1.73 6.7 9.54 11.7 3.8 2.44 7.55 5.68 8.34 7.21 1.73 3.36 4.07 14.2 3.24 15-.323.323-.597-.275-.609-1.33-.1-3-3.8-10-5.4-10-.805 0-3.16 2.36-5.22 5.25-5.09 7.11-6.14 8.06-3.43 3.1zm-22.9-8.28c-.568-1.06-2.05-2.13-3.29-2.36-2.05-.395-2.02-.446.337-.570 1.87-.0981 2.91.562 3.73 2.36 1.34 2.93.724 3.38-.781.570zm-15.8-.763c.973-.254 2.32-.237 3 .0371.677.274-.119.481-1.77.461-1.65-.0204-2.2-.244-1.23-.498zm5.48-.969c.688-.277 1.81-.277 2.5 0 .688.277.125.504-1.25.504s-1.94-.227-1.25-.504zm9.25-4.28c0-.518.445-1.22.989-1.55.567-.350.735.0511.393.941-.665 1.73-1.38 2.05-1.38.611zm4.5-4.06c.995-1.1 2.03-2 2.31-2 .275 0-.314.9-1.31 2-.995 1.1-2.03 2-2.31 2-.275 0 .314-.9 1.31-2zm33.8-2.46c0-.801.375-1.22.833-.941.458.283.840-.074.849-.794.0104-.889.251-.956.750-.211 1.07 1.6 4.46 1.06 8.6-1.39 5.29-3.12 4.45-1.68-1.06 1.81-5.05 3.2-9.97 3.96-9.97 1.52zm-4.83-1.39c-1.65-1.01-3.68-2.68-4.5-3.7-1.25-1.56 3.84 1.68 7.45 4.74 1.64 1.39.174.874-2.95-1.04zm38-1.22c-.363-.587-.445-1.28-.183-1.54.262-.262.743.218 1.07 1.07.676 1.76.0999 2.07-.886.477zm-8-6c0-1.38.227-1.94.504-1.25.277.688.277 1.81 0 2.5-.277.688-.504.125-.504-1.25zm1.92-.583c.048-1.16.285-1.4.604-.604.289.722.253 1.58-.0789 1.92-.332.332-.569-.258-.525-1.31zm4-2c.048-1.16.285-1.4.604-.604.289.722.253 1.58-.0789 1.92-.332.332-.569-.258-.525-1.31zm-76.1-54.2c-.9-1.8-3.4-8.9-5.4-15.8-2.1-6.9-4.1-13.4-4.5-14.5-.416-1.31-.142-1.14.796.5 1.38 2.41 4.72 12.2 8.28 24.3.938 3.18 2.03 5.98 2.42 6.22 1.29.796-2.57-20.6-4.73-26.2-.392-1.02-.214-1.35.491-.918 1.19.738.798-1.05-2.13-9.64-2.16-6.33-2.1-7.03.509-5.64 2.11 1.13 2.13 1.06 1.44-5.03-.384-3.4-.934-6.79-1.22-7.54-.363-.946.0693-1.2 1.42-.852 2.24.586 3.18-1.79 3.2-8.1.0106-3.07.280-3.68 1.21-2.75 2.59 2.59 4.09 1.39 3.53-2.8-.568-4.23.185-5.02 2.33-2.43 1.16 1.4 1.46 1.29 2.65-1 1.57-2.99 2.94-3.2 6.17-.945 2.5 1.75 11.2 4.65 11.9 3.96.2-.4-.1-1.6-.8-2.8-1.46-2.73-.919-3.29 2.11-2.17 1.31.485 3.68 1.2 5.27 1.58 2.59.627 2.82.480 2.32-1.43-.713-2.73-.0269-2.45 9.76 3.94 4.31 2.82 8.01 4.96 8.2 4.76.199-.199-.337-2.03-1.19-4.08l-1.55-3.72 3.77 2.56c4.18 2.84 6.99 3.28 7.48 1.18.232-.995 1.95-.299 6.07 2.46 4.61 3.09 5.76 3.51 5.79 2.14.0262-1.19 1.04-.532 3.37 2.18 3.25 3.8 5.59 4.19 5.59.928 0-3 2.7.533 4.02 5.27.710 2.54 1.58 4.05 1.97 3.42.759-1.23 4 9.2 4 12.9 0 1.24.447 1.97 1 1.63.593-.367 1 .795 1 2.86 0 1.91.468 3.63 1.04 3.82.673.224.497 1.88-.5 4.71-1.84 5.23-1.86 5.43-.382 4.51.826-.510.937-.0255.387 1.69-.424 1.32-.749 3.53-.722 4.91.0266 1.38-.623 5.14-1.44 8.36-1.83 7.21-1.16 8.53.997 1.95 4-13.9 6-28.8 3-36.4-1.92-5.45-1.85-6.28.232-2.5 2.7 4.91 2.89 19.3.388 29.8-2.03 8.51-5.1 16-7.06 17.2-1.73 1.07-2.93-6.65-3.81-24.5-.721-14.8-1.18-18.1-2.86-21-2.33-3.98-3.59-4.43-16.6-5.86-7.12-.781-12.6-2.17-20.5-5.18-10-3.83-11.3-4.08-18.8-3.7-6.71.344-9.02.955-14.3 3.79-4.04 2.15-6.72 4.31-7.38 5.94-.6 1.3-1.2 11-1.5 21.5-.5 24.5-3 33.5-6.9 26.3zm93.1-18.3l.0294-2-.859 2c-.473 1.1-.846 3.12-.830 4.5l.0294 2.5.801-2.5c.440-1.38.814-3.4.830-4.5zm-.168-10.8c-.277-.688-.504-.125-.504 1.25s.227 1.94.504 1.25c.277-.688.277-1.81 0-2.5zm1-5c-.277-.688-.504-.125-.504 1.25s.227 1.94.504 1.25c.277-.688.277-1.81 0-2.5zm-91.8-.9c-.319-.798-.556-.561-.604.604-.0434 1.05.193 1.64.525 1.31.332-.332.368-1.19.0790-1.92zm-1.3-5.7c-.347-2.17-.125-5.39.493-7.16s.927-3.42.688-3.66c-1.05-1.05-2.77 7.88-2.16 11.2.917 4.89 1.77 4.59.978-.345zm86.1-9.07c-.342-.554-1.94-1.69-3.56-2.53-4.15-2.14-19.3-7.43-18.2-6.35.489.489 4.48 2.15 8.88 3.69s9.09 3.56 10.4 4.5c2.79 1.96 3.36 2.11 2.48.695zm-31-10.6c-14.6-6.1-15.5-6.4-15.5-5.8 0 .612 16.2 8.26 20 9.46 6.7 2.1 4.44.458-5-3.63zm-48 1.6c-2.75-1.18-4.33-1.18-2.5 0 .825.533 2.18.945 3 .914.989-.0362.819-.348-.5-.914zm7-4c-1.1-.473-2.9-.846-4-.830-1.61.0236-1.51.186.5.830 3.42 1.1 6.05 1.1 3.5 0zm19.6-.997c-4.8-1.13-16.8-2.32-16-1.58.756.776 11.2 2.33 15.9 2.36l3.5.0196-3.35-.792zm-10.6 58.9c-1.03-1.67 1.29-3.58 2.67-2.2 1.1 1.2.4 3.3-1.2 3.3-.4 0-1.1-.5-1.5-1.1zm44-.9c0-1.11.667-2 1.5-2s1.5.889 1.5 2-.667 2-1.5 2-1.5-.889-1.5-2zm13-2.34c0-1.59-4.43-3.28-10.5-4.01-2-.238-1.5-.398 1.5-.481 2.48-.0680 6.25.661 8.38 1.62 3.46 1.56 3.71 1.89 2.25 3.1-1.39 1.15-1.63 1.12-1.63-.229zm-68.9-.7c-.995-1.61 3.48-3.24 9.86-3.59 5.92-.322 5.95-.310 1.06.367-2.78.385-6.25 1.48-7.7 2.43-1.49.978-2.89 1.32-3.22.790zm-23.5-30.6c-1.17-3.14-1.96-5.88-1.74-6.09.214-.214 1.36 2.16 2.56 5.28 1.19 3.12 1.98 5.86 1.74 6.09-.233.233-1.38-2.14-2.56-5.28zm106-17.2c-.382-8.36-6.54-15.1-19.5-21.4-4.46-2.15-6.98-3.62-5.6-3.26 5.37 1.41 14.9 6.56 19.3 10.5 4.99 4.39 7.2 9.35 6.44 14.5l-1 3zm-101-5.2c1.46-3.06 1.92-3.63 1.92-2.36 0 .537-0.7 1.85-1.56 2.92-1.5 1.8-1.5 1.8-.4-.6zm1.92-4.37c0-1.7 2.84-7.26 4.34-8.5 1.07-.887.713.345-1.01 3.5-3.02 5.52-3.33 5.98-3.33 5zm16.8-15.3c.722-.289 1.58-.253 1.92.0790.332.332-.258.569-1.31.525-1.16-.0480-1.4-.285-.604-.604zm11.2-2.26c4.12-1.08 8.62-1.95 10-1.93 2.68.0448-6.88 2.4-13.5 3.33-2.2.309-.625-.324 3.5-1.41zm22.5.959c-.350-.567.0511-.735.941-.393 2.1.7 2.1 1.4 1.1 1.4-.518 0-1.22-.445-1.55-.989z" fill="#3c2e2c"/>
 <path d="m98.9 194c0-3.58.181-5.04.403-3.25s.222 4.71 0 6.5-.403.325-.403-3.25zm2.31-2c.758-11.1 2.89-20.5 5.45-24.1 1.13-1.59 4.16-4.08 6.74-5.55s5.92-3.8 7.42-5.18c1.51-1.38 2.98-2.27 3.28-1.98.592.592-4.58 5.17-11.4 10.1-4.64 3.35-6.22 5.69-3.84 5.69 1.63 0 4.71 3.18 7.27 7.5 1.19 2.01.390 1.44-2.45-1.75-2.32-2.61-4.66-4.75-5.19-4.75-.533 0-2.07 2.36-3.41 5.25-1.9 4.07-2.45 6.93-2.47 12.8-.0138 4.12-.458 8.18-.987 9-.635.990-.765-1.39-.381-7zm85.5 7c-.0439-.825-1.36-4.2-2.93-7.5-2.95-6.2-10.9-14.7-15-16-1.24-.393-2.02-.942-1.74-1.22 1.18-1.18 11.2 5.49 14.2 9.49 3.48 4.56 6.94 13.3 6.09 15.5-.342.846-.528.765-.583-.254zm-172-2c-.0198-.942.861-4.11 1.96-7.04 3.41-9.11 12.5-15.9 23-17.2 4.35-.550 4.32-.526-1.04.976-12.6 3.53-17.9 8.27-22 19.5-1.08 3.02-1.98 4.73-2 3.79zm107-9c-1.24-1.59-1.21-1.62.378-.378.962.755 1.75 1.54 1.75 1.75 0 .823-.821.293-2.13-1.37zm-51.3-.957c-.543-1.43-.428-1.54.560-.560.683.678.991 1.49.683 1.79-.308.308-.867-.247-1.24-1.23zm60.3-1c.454-.825 2.77-4.36 5.15-7.87 5.2-7.66 5.39-10.4 1.07-15.1-2.05-2.26-1.69-2.04.950.597 2.34 2.33 5.88 4.66 8 5.25l3.8 1.07-4.25-.549c-3.32-.429-4.25-.228-4.25.923 0 .809-2.09 4.56-4.64 8.34-4.5 6.66-7.59 10.6-5.83 7.37zm-46.5-6c3.1-5 6.7-9 9.1-9 4.52 0-.278-5.87-7.27-8.91-7-3.04-11.1-9.07-8.78-12.8.959-1.53 1.02-1.46.478.529-.939 3.42 1.73 6.7 9.54 11.7 3.8 2.44 7.55 5.68 8.34 7.21 1.73 3.36 4.07 14.2 3.24 15-.323.323-.597-.275-.609-1.33-.1-3-3.8-10-5.4-10-.805 0-3.16 2.36-5.22 5.25-5.09 7.11-6.14 8.06-3.43 3.1zm-22.9-8.28c-.568-1.06-2.05-2.13-3.29-2.36-2.05-.395-2.02-.446.337-.570 1.87-.0981 2.91.562 3.73 2.36 1.34 2.93.724 3.38-.781.570zm-15.8-.763c.973-.254 2.32-.237 3 .0371.677.274-.119.481-1.77.461-1.65-.0204-2.2-.244-1.23-.498zm5.48-.969c.688-.277 1.81-.277 2.5 0 .688.277.125.504-1.25.504s-1.94-.227-1.25-.504zm9.25-4.28c0-.518.445-1.22.989-1.55.567-.350.735.0511.393.941-.665 1.73-1.38 2.05-1.38.611zm4.5-4.06c.995-1.1 2.03-2 2.31-2 .275 0-.314.9-1.31 2-.995 1.1-2.03 2-2.31 2-.275 0 .314-.9 1.31-2zm67-5.07c-.363-.587-.445-1.28-.183-1.54.262-.262.743.218 1.07 1.07.676 1.76.0999 2.07-.886.477zm-8-5c0-1.38.227-1.94.504-1.25.277.688.277 1.81 0 2.5-.277.688-.504.125-.504-1.25zm1.92-.583c.048-1.16.285-1.4.604-.604.289.722.253 1.58-.0789 1.92-.332.332-.569-.258-.525-1.31zm4-2c.048-1.16.285-1.4.604-.604.289.722.253 1.58-.0789 1.92-.332.332-.569-.258-.525-1.31zm-76.4-54.8c-1.07-2.1-2.64-6.48-3.49-9.75s-2.69-9.3-4.09-13.4-2.13-7.03-1.63-6.5c.991 1.05 7.11 18.5 7.11 20.3 0 .602.984 3.7 2.19 6.88 1.98 5.23 2.25 5.55 2.9 3.29 1.23-4.31.943-21.2-.462-27.2-.871-3.7-.990-5.83-.336-6.05.659-.220.579-2.12-.230-5.5-1.49-6.19.0151-12.8 2.67-11.8 1.28.490 1.45-.153 1.03-3.85l-0.5-4.44 3.37.546c3.66.594 3.94.226 2.25-2.93-1.03-1.93-.906-2.04 1.75-1.46 7.07 1.54 7.78 1.66 6.36 1.06-2.15-.914-6-4.56-6-5.68 0-.523.591-.458 1.32.147 1.72 1.43 12.4 3.79 21 4.65l6.83.679-1.81-2.77-1.81-2.77 4.48 2.59c5.91 3.42 16.3 7.72 22.5 9.35l5 1.31-3-2.53-3-2.53 4 1.94c2.2 1.06 6.57 2.73 9.71 3.7 3.14.971 6.47 2.61 7.4 3.64 2.3 2.54 3.65 2.37 2.92-.373-.440-1.64-.138-1.44 1.12.75.981 1.71 1.75 5.22 1.79 8.16.0543 4.3.299 4.97 1.46 4.01 1.31-1.09 1.24 2.37-.239 11.8-.086.55.384.895 1.04.767.897-.174.856.740-.162 3.62-1.29 3.66-1.9 7.79-1.63 11.1.108 1.33.235 1.33 1.15 0 1.2-1.75.197 7.56-1.06 9.92-1.08 2.02-1.79-3.84-2.49-20.4-1.04-24.8-2.14-26.8-15.7-27.9-9.87-.814-13.3-1.65-25.7-6.28-13.3-4.95-20.5-4.91-30.7.162-5.27 2.6-7.74 4.45-8.5 6.34-.6 1.5-1.4 11.9-1.8 23.2-.5 15.8-1 21.4-2.3 24.2-.9 2.1-1.9 3.8-2.2 3.8s-1.4-1.7-2.5-3.8zm94.4-.4c3-6.1 6-16.6 7-28.3l.686-10 .150 8.5c.215 12.2-4.69 30.9-8.76 33.5-.526.325.0949-1.33 1.38-3.68zm-70-3.9c-1.03-1.67 1.29-3.58 2.67-2.2 1.1 1.2.4 3.3-1.2 3.3-.4 0-1.1-.5-1.5-1.1zm44-.9c0-1.11.667-2 1.5-2s1.5.889 1.5 2-.667 2-1.5 2-1.5-.889-1.5-2zm-79.3-33.1c-.616-1.77-.945-3.39-.731-3.6.214-.214.893 1.06 1.51 2.82.616 1.77.945 3.39.731 3.6-.214.214-.893-1.06-1.51-2.82zm111-1.6c-.0434-.643-.338-1.99-.654-3-.547-1.74-.519-1.74.571-.0441.630.983.925 2.33.654 3-.355.875-.514.887-.571.0441zm-5-18.3c-.291-6-7.29-13.4-16.9-17.9-2.84-1.33-4.99-2.6-4.77-2.82 0.9-0.9 11.6 5.03 15.9 8.78 4.55 4.01 7.25 9.38 6.39 12.7-.315 1.21-.497.972-.58-.742zm-97.5-12.7c0-.556 1.01-1.87 2.25-2.92l2.2-1.9-1.9 2.5c-1.09 1.38-2.11 2.69-2.25 2.92-.143.229-.261-.0386-.261-.595zm19.8-11c.688-.277 1.81-.277 2.5 0 .688.277.125.504-1.25.504s-1.94-.227-1.25-.504zm5.06-1.02c.722-.289 1.58-.253 1.92.0790.332.332-.258.569-1.31.525-1.16-.0480-1.4-.285-.604-.604zm4-1c.722-.289 1.58-.253 1.92.0790.332.332-.258.569-1.31.525-1.16-.0480-1.4-.285-.604-.604zm3.94-.979c.688-.277 1.81-.277 2.5 0 .688.277.125.504-1.25.504s-1.94-.227-1.25-.504z" fill="#06334a"/>
 <path d="m52.6 94.2c-1.07-2.1-2.64-6.48-3.49-9.75s-2.69-9.3-4.09-13.4-2.13-7.03-1.63-6.5c.991 1.05 7.11 18.5 7.11 20.3 0 .602.984 3.7 2.19 6.88 1.98 5.23 2.25 5.55 2.9 3.29 1.23-4.31.943-21.2-.462-27.2-.871-3.7-.990-5.83-.336-6.05.659-.220.579-2.12-.230-5.5-1.49-6.19.0151-12.8 2.67-11.8 1.28.490 1.45-.153 1.03-3.85l-0.5-4.44 3.37.546c3.66.594 3.94.226 2.25-2.93-1.03-1.93-.906-2.04 1.75-1.46 7.07 1.54 7.78 1.66 6.36 1.06-2.15-.914-6-4.56-6-5.68 0-.523.591-.458 1.32.147 1.72 1.43 12.4 3.79 21 4.65l6.83.679-1.81-2.77-1.81-2.77 4.48 2.59c5.91 3.42 16.3 7.72 22.5 9.35l5 1.31-3-2.53-3-2.53 4 1.94c2.2 1.06 6.57 2.73 9.71 3.7 3.14.971 6.47 2.61 7.4 3.64 2.3 2.54 3.65 2.37 2.92-.373-.440-1.64-.138-1.44 1.12.75.981 1.71 1.75 5.22 1.79 8.16.0543 4.3.299 4.97 1.46 4.01 1.31-1.09 1.24 2.37-.239 11.8-.086.55.384.895 1.04.767.897-.174.856.740-.162 3.62-1.29 3.66-1.9 7.79-1.63 11.1.108 1.33.235 1.33 1.15 0 1.2-1.75.197 7.56-1.06 9.92-1.08 2.02-1.79-3.84-2.49-20.4-1.04-24.8-2.14-26.8-15.7-27.9-9.87-.814-13.3-1.65-25.7-6.28-13.3-4.95-20.5-4.91-30.7.162-5.27 2.6-7.74 4.45-8.5 6.34-.6 1.5-1.4 11.9-1.8 23.2-.5 15.8-1 21.4-2.3 24.2-.9 2.1-1.9 3.8-2.2 3.8s-1.4-1.7-2.5-3.8zm94.4-.4c3-6.1 6-16.6 7-28.3l.686-10 .150 8.5c.215 12.2-4.69 30.9-8.76 33.5-.526.325.0949-1.33 1.38-3.68zm-69-3.8c-.399-.646-.276-1.62.274-2.17.667-.667 1.24-.609 1.73.174.399.646.276 1.62-.274 2.17-.6.6-1.2.6-1.7-.2zm43 0c-.399-.646-.276-1.62.274-2.17.667-.667 1.24-.609 1.73.174.399.646.276 1.62-.274 2.17-1 .6-1 .6-2-.2zm-79.3-34.1c-.616-1.77-.945-3.39-.731-3.6.214-.214.893 1.06 1.51 2.82.616 1.77.945 3.39.731 3.6-.214.214-.893-1.06-1.51-2.82zm111-1.6c-.0434-.643-.338-1.99-.654-3-.547-1.74-.519-1.74.571-.0441.630.983.925 2.33.654 3-.355.875-.514.887-.571.0441zm-5-18.3c-.291-6-7.29-13.4-16.9-17.9-2.84-1.33-4.99-2.6-4.77-2.82 0.9-0.9 11.6 5.03 15.9 8.78 4.55 4.01 7.25 9.38 6.39 12.7-.315 1.21-.497.972-.58-.742zm-97.5-12.7c0-.556 1.01-1.87 2.25-2.92l2.2-1.9-1.9 2.5c-1.09 1.38-2.11 2.69-2.25 2.92-.143.229-.261-.0386-.261-.595zm19.8-11c.688-.277 1.81-.277 2.5 0 .688.277.125.504-1.25.504s-1.94-.227-1.25-.504zm5.06-1.02c.722-.289 1.58-.253 1.92.0790.332.332-.258.569-1.31.525-1.16-.0480-1.4-.285-.604-.604zm4-1c.722-.289 1.58-.253 1.92.0790.332.332-.258.569-1.31.525-1.16-.0480-1.4-.285-.604-.604zm3.94-.979c.688-.277 1.81-.277 2.5 0 .688.277.125.504-1.25.504s-1.94-.227-1.25-.504z" fill="#2e201d"/>
 <path d="m56.8 91.7c.5-2.3 1.3-8 1.7-12.7l.737-8.5.147 7.81c.143 7.57-1.3 16.2-2.87 17.2-.423.261-.316-1.43.238-3.77zm21.2-1.7c-.399-.646-.276-1.62.274-2.17.667-.667 1.24-.609 1.73.174.399.646.276 1.62-.274 2.17-.6.6-1.2.6-1.7-.2zm43 0c-.399-.646-.276-1.62.274-2.17.667-.667 1.24-.609 1.73.174.399.646.276 1.62-.274 2.17-1 .6-1 .6-2-.2zm-73.8-12.2c-1.52-4.99-2.59-9.25-2.37-9.46.213-.213 1.64 3.69 3.17 8.67s2.6 9.24 2.37 9.46c-.222.222-1.65-3.68-3.17-8.67zm105 3.7c0-1.1.360-3.12.801-4.5.634-1.98.801-2.08.801-.5 0 1.1-.360 3.12-.801 4.5-.634 1.98-.801 2.08-.801.5zm-10-12.8c-1.4-19.3-2.87-21.1-18.5-22.7-7.34-.733-12.9-2.01-19.5-4.46-5.08-1.89-10.8-3.88-12.7-4.42-2.55-.718-2.89-1.01-1.23-1.07 1.25-.0496 5.52 1.1 9.5 2.55 11.7 4.27 19.8 6.24 26 6.3 6.93.0691 12 1.99 14.2 5.41 2.05 3.13 3.7 14.5 3.3 22.9-.261 5.5-.396 4.94-1.08-4.5zm12 2.3c0-1.92.206-2.71.457-1.75.252.962.252 2.54 0 3.5-.252.962-.457.175-.457-1.75zm-95.3-9.5c-.121-8.87 1.1-15.2 3.32-17.3 1.65-1.57 1.66-1.52.110.931-1.03 1.64-1.94 6.39-2.48 13-.7 9.5-.8 9.8-.9 3.4zm95.3-3.5c0-1.38.227-1.94.504-1.25.277.688.277 1.81 0 2.5-.277.688-.504.125-.504-1.25zm-85.9-18c.822-1.33 10.3-4.18 12.2-3.67 1.35.352 1.24.487-.476.576-1.23.0638-4.49.973-7.25 2.02s-4.78 1.53-4.5 1.08zm15.8-4.67c.973-.254 2.32-.237 3 .0370.677.274-.119.481-1.77.461-1.65-.0204-2.2-.244-1.23-.498zm63.2-2.29c-.681-3.1-5.69-8.99-10.5-12.3-2.31-1.61-2.33-1.66-.162-.629 4.22 2 10 8.01 11.2 11.6.636 1.93.928 3.73.651 4.01-.277.277-.813-.902-1.19-2.62z" fill="#261816"/>
</svg>
