<?xml version="1.0" encoding="UTF-8" standalone="no"?>
<svg xmlns:rdf="http://www.w3.org/1999/02/22-rdf-syntax-ns#" xmlns="http://www.w3.org/2000/svg" height="267" viewBox="0 0 266.66666 266.66666" width="267" version="1.1" xmlns:cc="http://creativecommons.org/ns#" xmlns:dc="http://purl.org/dc/elements/1.1/">
 <g stroke-width="1.33">
  <path d="m17.4 262c1.12-7.02 6.19-16.9 11-21.5 6.24-5.91 17.5-10.2 33.2-12.6l14.5-2.25 6.34-6.76c3.93-4.2 7.45-9.72 9.25-14.6 1.6-4.29 3.68-8.09 4.6-8.44 1.13-.432-.344-3.26-4.4-8.49-3.74-4.81-7.5-11.9-9.75-18.2-2.87-8.16-4.27-10.5-6.52-10.8-1.91-.287-4.2-2.94-6.91-8-2.22-4.16-5.65-10.3-7.61-13.6-2.93-4.92-3.57-7.64-3.59-15.1-.0194-7.78.404-9.46 2.89-11.5l2.92-2.37-3.33-10.5c-1.83-5.79-4.21-11.9-5.28-13.5-1.75-2.68-1.72-3 .222-3 1.54 0 1.9-.677 1.22-2.33-.523-1.28-1.88-4.98-3.01-8.21-2.05-5.86-2.05-5.88 1.56-8.51 3.17-2.31 3.51-3.25 2.78-7.62-.625-3.7-.344-5.17 1.09-5.72 1.06-.408 3.55-4.98 5.53-10.2 2.44-6.38 4.86-10.3 7.49-12.2 2.14-1.52 3.89-3.62 3.89-4.65 0-2.07 1.69-2.59 15.1-4.63 5-.761 12.5-2.27 16.6-3.34 10.6-2.77 16.3-2.45 24.5 1.36 8.28 3.86 13 4.17 18.7 1.25 3.91-2.02 4.49-1.91 16.9 3.34 22.7 9.58 32.2 19.5 32.2 33.6 0 4.14 1.21 8.68 3.55 13.3 4.2 8.37 5.5 21.7 3.27 33.6-1.32 7.06-1.2 8.14 1.19 11.2 3.57 4.53 3.56 16.4-.0152 23.7-6.28 12.9-12.9 22.7-15.5 23.1-2.02.295-3.33 2.35-5.1 8-3.27 10.4-6.66 16.8-12.3 23-3.73 4.13-4.44 5.68-3.25 7.1.833 1 2.41 4.75 3.5 8.33 1.28 4.21 4.15 8.77 8.13 12.9 5.91 6.16 6.69 6.53 20.3 9.58 23.5 5.24 32.3 9.59 39.6 19.5 3 4.07 8.56 17 8.56 19.9 0 .812-43.1 1.28-118 1.28h-118z" fill="#f9c1ad"/>
  <path d="m17.5 263c1.35-7.6 7.05-18.5 11.8-22.5 7.18-6.08 16.8-9.54 33.3-12 8.62-1.28 15.7-2.84 15.7-3.48 0-.639 2.39-3.65 5.32-6.7s6.33-8.27 7.56-11.6c1.23-3.34 3.41-7.4 4.86-9.02l2.62-2.94-5.94-6.6c-4.44-4.94-6.92-9.49-9.83-18.1-2.86-8.43-4.5-11.5-6.18-11.5-2.57 0-4.28-2.16-11.7-14.8-8.56-14.5-10.1-27.1-4.03-33.1 2.42-2.42 2.4-2.74-.682-12.7-1.74-5.64-4.1-11.7-5.25-13.4-1.85-2.83-1.86-3.19-.0586-3.19 2.51 0 2.55.595-.618-8.61l-2.65-7.7 3.43-2.7c2.84-2.23 3.29-3.44 2.62-6.99-.552-2.94-.192-4.81 1.14-5.91 1.07-.888 3.62-5.88 5.66-11.1 2.65-6.74 4.78-10.1 7.4-11.6 2.03-1.15 3.69-2.83 3.7-3.72.0124-2.39 3.76-3.95 12-5.03 4.03-.526 12.1-2.09 18-3.48 13.7-3.23 18-3.18 24.6.251 7.41 3.86 14.9 4.66 19.9 2.14 3.96-1.98 4.64-1.85 17.1 3.2 14.4 5.82 24.8 12.9 28.7 19.5 1.39 2.39 2.87 8.08 3.29 12.6.429 4.73 2.12 11 3.92 14.6 3.98 7.92 5.23 20.6 3.2 32.3-1.44 8.28-1.36 9.19 1.16 12.4 4.86 6.18 3.2 21-3.34 29.8-1.88 2.54-4.54 7.14-5.92 10.2-1.7 3.82-3.57 5.89-5.86 6.46-2.74.687-3.91 2.49-6.28 9.72-3.82 11.6-5.77 15.3-11.3 21.5-4.44 4.91-4.53 5.22-2.6 8.92 1.1 2.11 2.02 4.73 2.05 5.83.0847 3.05 2.71 7.08 9.2 14.1 5.81 6.28 6.16 6.43 22.2 10 8.94 2.01 19.2 5.16 22.8 7 10.7 5.43 19.1 16.4 22.2 29.2l.902 3.67h-234zm124-94c-5.42-2.3-7.08-5.82-3.41-7.22 1.08-.413 4.71 0.3 8.08 1.59 5.86 2.24 6.21 2.23 8.38-.0613 1.66-1.76 1.72-2.1.258-1.29-1.7.945-1.74.786-.228-1.08 2.7-3.34 1.7-14.4-1.65-18.1-1.53-1.71-2.78-3.51-2.78-4 0-.491-.45-.743-1-.559-.55.183-.85-.117-.667-.667s-.112-1.16-.657-1.35c-.545-.193-2.99-1.47-5.44-2.85-7.12-4-8.91-2-8.91 9.93v9.93h9.94l-4.18 4.18-4.18 4.18-4.13-2.94c-4.7-3.35-4.94-5.22-2.08-16.3 2.22-8.57 1.8-10.8-1.76-9.51-3.41 1.27-12.3 9.98-12.3 12 0 .992-.547 1.47-1.22 1.05-1.38-.854-1.21 1.8.276 4.17.541.866.345 1.97-.436 2.45-.999.617-.986 1.4.043 2.64 1.06 1.28 1.06 2.01-.0221 2.68-1.03.639-.850 1.62.605 3.23 1.15 1.27 1.74 2.66 1.3 3.1-1.21 1.21 4.97.174 9.34-1.56 4.78-1.9 7.44-1.03 7.44 2.41 0 1.81-1.22 2.87-4 3.48-7.2 1.58-4.21 2.67 7.37 2.67h11.4zm-2.03-65.3c.733-.433 2.44-.611 3.79-.394s2.1.0376 1.66-.398c-1.27-1.27 3.42-5.7 5.06-4.76.819.467 1.04.351.486-.257-.552-.608-.0779-2.13 1.05-3.38 2.77-3.06 3.39-11 1.19-15.2-.985-1.9-1.22-3.1-.514-2.66 2.63 1.63 1.11-.324-4.25-5.43-3.04-2.9-5.03-4.37-4.41-3.27.990 1.77.839 1.77-1.31.0280-3.04-2.47-13.7-2.77-15.6-.448-.787.948-1.88 1.45-2.42 1.11-.544-.336-2.43.967-4.18 2.9-1.76 1.93-2.29 3.01-1.19 2.41 1.1-.603.5.597-1.33 2.67s-2.49 3.27-1.46 2.68c1.4-.811 1.57-.611.667.785-1.65 2.56-1.76 9.51-.176 11.5.713.917.806 1.67.205 1.67-0.6 0 .837 1.99 3.19 4.42 2.36 2.43 3.95 4.76 3.53 5.18-.415.415 1.08.598 3.33.407s4.35.0882 4.68.621c.689 1.11 6.05 1.01 8.03-.158z" fill="#f8bca6"/>
  <path d="m17.5 263c1.35-7.6 7.05-18.5 11.8-22.5 7.18-6.08 16.8-9.54 33.3-12 8.62-1.28 15.7-2.84 15.7-3.48 0-.639 2.39-3.65 5.32-6.7s6.33-8.27 7.56-11.6c1.23-3.34 3.42-7.41 4.87-9.04l2.64-2.96-4.8-5.32c-5.66-6.27-9.04-12.6-12.3-23.1-1.72-5.49-3.06-7.67-4.73-7.67-2.44 0-7.85-5.91-7.85-8.58 0-.857-1.86-4.09-4.14-7.19-5.76-7.84-7.97-15.9-6.64-24.2.587-3.71 2.04-7.48 3.24-8.37 1.98-1.48 1.89-2.51-1.08-12.1-1.79-5.76-4.19-11.9-5.34-13.7-1.85-2.83-1.86-3.19-.0586-3.19 2.51 0 2.55.595-.618-8.61l-2.65-7.7 3.43-2.7c2.84-2.23 3.29-3.44 2.62-6.99-.552-2.94-.192-4.81 1.14-5.91 1.07-.888 3.62-5.88 5.66-11.1 2.65-6.74 4.78-10.1 7.4-11.6 2.03-1.15 3.69-2.83 3.7-3.72.0124-2.39 3.76-3.95 12-5.03 4.03-.526 12.1-2.09 18-3.48 13.7-3.23 18-3.18 24.6.251 7.41 3.86 14.9 4.66 19.9 2.14 3.96-1.98 4.64-1.85 17.1 3.2 14.4 5.82 24.8 12.9 28.7 19.5 1.39 2.39 2.87 8.08 3.29 12.6.429 4.73 2.12 11 3.92 14.6 3.99 7.94 5.23 20.6 3.18 32.3-1.38 7.92-1.3 9.33.606 11.4 5.06 5.59 3.46 22.3-2.95 30.8-1.85 2.45-4.47 6.98-5.83 10.1-1.66 3.77-3.54 5.89-5.74 6.44-2.64.663-3.96 2.77-6.89 11-3.68 10.4-6.55 15.5-12.2 21.7-2.97 3.25-3.04 3.67-1.13 7.33 1.12 2.14 2.05 4.79 2.08 5.89.0847 3.05 2.71 7.08 9.2 14.1 5.81 6.28 6.16 6.43 22.2 10 8.94 2.01 19.2 5.16 22.8 7 10.7 5.43 19.1 16.4 22.2 29.2l.902 3.67h-234zm116-9.92c-.426-1.06-.742-.748-.806.806-.0579 1.41.257 2.19 0.7 1.75.443-.443.490-1.59.105-2.56zm2.16-13c1-8.45 5.01-16.3 10.6-20.6l4.37-3.43-5.33 1.47c-2.99.823-9.86 1.16-15.6.772l-10.3-.698 3.94 3.32c3.87 3.26 6.6 10.3 8.58 22.1 1.11 6.63 2.8 5.33 3.78-2.91zm-25.7-56.6c0-9.51.526-14.3 1.68-15.2 2.83-2.35 16.9-7.16 18.3-6.27 3.35 2.07 1.23 5.62-4.32 7.25-10.7 3.13-11.7 4.35-11.7 14.6 0 7.27.513 9.56 2.56 11.4 3.19 2.89 6.21 1.51 11.3-5.17 1.98-2.6 4.35-4.73 5.26-4.73s4.3 2.7 7.54 6c6.67 6.79 8.32 7.24 11.3 3.04 2.53-3.61 2.8-16.9.409-20.1-.917-1.23-4.93-3.34-8.92-4.69-7.65-2.59-8.79-3.72-6.82-6.83 1.32-2.09 6.32-.931 16.1 3.71l4.67 2.22.378 14.3c.208 7.88.918 14.3 1.58 14.3 2.58 0 14.6-13.3 17.9-19.7 4.56-9 14.5-44.2 13.4-47.6-.456-1.47-1.31-13.8-1.89-27.3-1.07-25-2.45-31.9-7.13-35.8-1.21-1-7.98-2.29-15.5-2.94-8.55-.743-16.8-2.42-23.1-4.67-27.8-10.1-34.2-10.6-48-4.27-12.9 5.94-12.9 6.05-14.7 25.7-1.75 19.7-.908 28.1 2.66 26.7 1.24-.493 6.93-2.09 12.6-3.55 9.71-2.48 10.8-2.52 16.6-.553 9.3 3.17 14.9 9.29 8.06 8.73-5.08-.412-5.96-.0568-8.16 3.31-2.02 3.08-1.95 3.47 1.18 7.19 4.23 5.03 4.17 5.55-.687 5.55-2.59 0-4-.675-4-1.92 0-3.19-2.79-3.88-3.58-.880-.562 2.15-1.78 2.8-5.24 2.8-5.09 0-5.75-1.25-1.91-3.65 5.3-3.31 5.62-6.28 1.18-10.8l-4.1-4.19 4.49-.0937c2.47-.0515 5.69-.587 7.16-1.19 2.49-1.02 2.5-1.16.282-2.07-2.42-.988-7.71-.409-19.6 2.15-6.13 1.32-6.64 1.72-6.64 5.35 0 2.16-1.11 7.09-2.48 11l-2.48 7.05 5.89 20.6c3.24 11.3 7.48 23.5 9.43 27.1 3.32 6.1 15.2 18.2 17.8 18.2.654 0 1.19-6.23 1.19-13.8zm11.3-6.25c-1.63-2.63.891-3.24 13.4-3.24 6.84 0 12.9.410 13.4.911 2.53 2.53-1.81 3.76-13.4 3.76-7.42 0-12.9-.578-13.4-1.42zm8.13-19.2-3.93-3.21 3.16-13.7c4.45-19.4 5.31-19.9 4.41-2.74l-.783 15h4.2c5 0 5.26 1.2 1.11 5.1-3.74 3.51-3.35 3.53-8.17-.405zm21.9-30.8c0-.399 1.5-2.34 3.33-4.32 4.03-4.35 4.04-4.37.513-8.85-2.33-2.97-3.51-3.43-6.79-2.71-3.38.741-3.9.504-3.5-1.59.708-3.68 8.77-7 17.1-7.05 6.6-.0389 21.9 2.7 23.4 4.18.323.323-4.59.316-10.9-.0163-8.36-.439-11.2-.191-10.6.907.513.831 2.82 1.51 5.12 1.51h4.18l-4.25 4.38-4.25 4.38 3.99 4.37c2.19 2.4 3.99 4.63 3.99 4.95 0 .321-2.03.584-4.51.584-3.46 0-4.68-.651-5.24-2.8-.785-3-3.58-2.32-3.58.880 0 1.25-1.41 1.92-4 1.92-2.2 0-4-.326-4-.725zm12.7-15.3c.456-.739-.134-1.71-1.31-2.16-2.55-.980-3.98.0999-2.75 2.09 1.11 1.79 2.98 1.83 4.06.0793zm-87.3 42c0-1.12-.993-4.27-2.21-7-1.21-2.73-2.1-5.45-1.97-6.06.131-.605-.328-.749-1.02-.321-.693.428-2.56-.877-4.15-2.9-2.85-3.62-3.04-7.9-.624-14 .543-1.37.315-2.33-.553-2.33-.812 0-1.52 1.05-1.58 2.33-.0579 1.28-.397 1.62-.753.741-.356-.876-.0073-2.79.776-4.25.815-1.52.912-2.98.226-3.4-4-2.47-2.7 14.1 1.83 23.2 1.64 3.3 3.95 8.25 5.15 11 2.2 5.07 4.88 6.69 4.88 2.96zm119-1.9c.898-2.17 1.46-4.12 1.24-4.33-.214-.215 1.3-3.28 3.37-6.81 3.32-5.67 3.67-7.31 2.98-14-.508-4.92-.345-6.87.469-5.58.953 1.51 1.25 1.11 1.27-1.69.0107-2.02-.510-3.67-1.16-3.67-1.9 0-2.67 4.98-1.9 12.4.617 6.01.314 7.27-2.3 9.59l-3.01 2.67 1.61-3.07c.886-1.69 1.34-4.09 1.02-5.33-.473-1.8-.628-1.71-.751.440-.0851 1.49-1.16 4.14-2.39 5.89s-1.53 2.75-.667 2.22c.860-.532 1.56-.381 1.56.334 0 .716-.615 1.51-1.37 1.76-.752.251-2.22 3.3-3.27 6.78-1.56 5.2-1.59 6.32-.128 6.32.976 0 2.51-1.77 3.41-3.94zm-126-19c-.496-3.68-.806-4.18-1.17-1.9-.458 2.85.366 6.9 1.4 6.9.242 0 .137-2.25-.234-5zm38.5-22.3c0-1.1-.9-2-2-2-2.08 0-2.65 1.58-1.11 3.11 1.53 1.53 3.11.971 3.11-1.11z" fill="#eeac94"/>
  <path d="m17.5 263c1.42-8.01 7.18-18.6 12.5-23 6.81-5.62 16.7-9.02 33.4-11.5 7.82-1.16 14.5-2.75 14.7-3.54.287-.794 2.61-3.53 5.17-6.09 2.55-2.55 6.12-8 7.93-12.1s4.21-8.49 5.35-9.76c1.89-2.11 1.66-2.75-2.73-7.61-5.62-6.23-9.03-12.6-12.3-22.9-1.79-5.73-3.14-7.75-5.74-8.67-3.33-1.17-6.51-5.97-14.3-21.7-4.47-8.96-4.75-20.4-.604-24.8 2.61-2.78 2.61-2.84-.151-12.1-1.53-5.11-3.66-11-4.75-13.1-1.4-2.72-1.54-4.11-.502-4.75 1.03-.637.674-3.23-1.19-8.65l-2.66-7.74 3.44-2.71c2.73-2.15 3.29-3.49 2.68-6.5-.543-2.71.157-5.15 2.46-8.54 1.77-2.61 3.94-6.96 4.83-9.67 2.15-6.57 4.93-10.7 7.85-11.6 1.32-.420 2.7-1.92 3.07-3.32.368-1.41 2.08-2.84 3.81-3.18 42.6-8.39 42.9-8.42 49.9-4.93 8.21 4.1 15.3 4.92 20.5 2.36 3.94-1.96 4.64-1.85 15.7 2.6 23.5 9.47 32.1 17.7 33.3 32 .380 4.3 2.19 11.3 4.02 15.5 4.22 9.8 5.17 19 3.24 31.5-1.38 8.87-1.29 10.1.847 12.5 3.94 4.36 3.26 18.8-1.26 26.3-1.97 3.3-5.25 9.17-7.28 13.1-2.31 4.41-4.8 7.33-6.66 7.8-2.15.539-3.59 2.64-5.22 7.62-3.3 10.1-8.04 19-13.1 24.6-3.7 4.1-4.16 5.24-2.67 6.62.989.920 2.45 4.1 3.25 7.06.878 3.26 4.17 8.39 8.33 13l6.88 7.61 13.4 2.86c29.8 6.37 40.9 14.4 46.5 33.5l2.06 7h-233zm122-35c2.12-4.38 4.94-7.21 11-11.1l8.14-5.16-6.05-.0133c-3.44-.007-8.31 1.14-11.3 2.65-2.88 1.47-6.33 2.67-7.67 2.67s-4.79-1.2-7.66-2.67-7.8-2.66-10.9-2.65l-5.72.0133 8.01 5.08c4.52 2.87 8.76 6.73 9.73 8.85 2.54 5.57 5.53 19.2 5.73 26 .136 4.78.549 3.58 2.03-5.94 1.02-6.56 3.14-14.6 4.71-17.8zm-27.8-59.9c3.52-2.78 17.4-7.08 18.7-5.79 2.25 2.25-.001 5.15-5.29 6.83-10.4 3.3-11.1 4.26-11.1 15.4 0 9.41.199 10.1 3.38 11.5 3.11 1.42 3.91 1.02 10-4.98l6.62-6.52 6.38 6.28c3.51 3.46 6.91 6.28 7.56 6.28s2.28-.993 3.62-2.21c1.91-1.73 2.44-4.18 2.44-11.3 0-10.1-.885-11.2-10.9-14.4-6.26-1.98-8.5-4.49-5.93-6.62 1.47-1.22 3.81-.787 10.7 1.97 10.4 4.16 10.5 4.38 9.89 22.4-.236 7.07-.0332 12.9.451 12.9 1.8-.007 14.2-10.6 17-14.5 1.58-2.22 4.11-6.84 5.63-10.3 4.19-9.48 13.2-41 11.9-41.8-2.26-1.45-4.12-15.3-4.12-30.6 0-16.2-1.48-27.9-4.2-33.1-1.96-3.76-7.01-5.27-20.8-6.2-8.33-.564-14.4-2.05-25.3-6.17-7.9-2.98-17.7-5.78-21.8-6.21-8.98-.950-19.2 1.73-28 7.34-7.69 4.89-8.17 7.1-8.49 38.9-.205 21-.531 24-3.22 30.2-2.92 6.66-2.94 7.01-.803 14.7 3.93 14 10.2 33 12.1 36.8 2.73 5.28 9.67 12.9 15.9 17.4l5.33 3.87.375-15.3c.246-10 .934-15.7 2-16.6zm10.3 9.08c-3.42-2.16 5.09-4.33 14.9-3.8 9.28.506 11.3 1.25 9.79 3.65-1.08 1.76-21.9 1.88-24.7.145zm7.57-19.8-3.67-3.83 3.38-13.2 3.38-13.2-.549 13.4c-.302 7.38.0306 14.5.739 15.7 2.41 4.3.404 5.01-3.28 1.16zm-30.4-34.2c4.62-4.76 4.59-5.66-.319-11.1l-2.7-3h4.08c3.02 0 4.27.726 4.81 2.8.785 3 3.58 2.32 3.58-.880 0-1.19 1.39-1.94 3.67-1.97l3.67-.0534-3.91-2.12c-3.79-2.05-10.6-1.98-24.1.260-6.34 1.06 5.34-3.27 12.6-4.65 6.63-1.27 16 .913 20.2 4.7 3.05 2.76 2.04 5.11-1.4 3.26-2-1.07-3.14-.540-5.92 2.77-4.22 5.02-4.22 5.07-.109 9.51 4.28 4.61 4.2 5.04-.889 5.04-2.32 0-3.83-.395-3.34-.877.981-.981-1.49-4.46-3.17-4.46-.594 0-1.46 1.2-1.93 2.67-.609 1.92-2.02 2.67-5.02 2.67h-4.9zm55.4.0923c4.26-5.58 4.24-6.24-.292-10.6-2.61-2.5-4.56-3.31-6.67-2.76-5.23 1.37-3.28-2.19 2.69-4.9 6.58-2.98 16-3.2 25.7-.576l6.67 1.8-9.44-.706c-9.69-.725-25.1 2.06-17.9 3.24 1.8.297 4.05 1.53 5 2.74 1.59 2.04 1.85 2.03 3.53-.130.998-1.28 3.17-2.33 4.82-2.33h3.01l-3.51 4.6-3.51 4.6 4.16 4.73 4.16 4.73h-4.05c-2.88 0-4.29-.771-4.89-2.67-.466-1.47-1.33-2.67-1.93-2.67-1.68 0-4.15 3.47-3.17 4.46.483.483-1.05.877-3.41.877h-4.29l3.4-4.46zm-78.9 26c-1.08-3.48-2.33-7.98-2.77-10-.438-2.02-1.35-3.67-2.02-3.67-.674 0-1.13-.75-1.01-1.67.119-.917.103-2.87-.0353-4.33l-.252-2.67-1.11 2.67c-.612 1.47-.829 4.17-.482 6 .609 3.22.560 3.25-1.46.745-2.47-3.06-2.58-4.63-.659-9.66 1.05-2.77.994-5.16-.232-9.09-2.65-8.5-3.41-8.05-3.3 1.96.122 11.2-1.79 12.7-2.14 1.7-.234-7.48-.253-7.51-.737-1.4-.591 7.46 1.36 15.5 4.63 19.1 1.3 1.44 3.16 4.41 4.12 6.61 2.84 6.48 5.49 10 7.53 10 1.64 0 1.63-.875-.0672-6.33zm120 1.33c1.15-2.75 3.79-7.4 5.86-10.3 2.08-2.93 4.15-7.13 4.62-9.33.473-2.24.357-3.32-.264-2.46-.648 0.9-1.11-1.13-1.11-4.89 0-3.54-.45-6.88-1-7.43-2.08-2.08-2.99 1.32-2.69 10.1.204 6.05-.259 9.54-1.39 10.5-1.33 1.11-1.58.419-1.16-3.19.685-5.86-1.9-6.09-3.1-.268-.489 2.38-2.04 8.15-3.44 12.8-3.06 10.2-3.03 9.53-.483 9.53 1.14 0 3.01-2.25 4.16-5zm12.1-31.3c-.319-1.66-.592-.616-.607 2.32-.0148 2.93.246 4.29.580 3.02s.346-3.67.0269-5.33zm-2.28-7.02c-.942-1.14-1.99-1.79-2.32-1.45-.735.735 2.76 4.73 3.51 4.02.288-.275-.248-1.43-1.19-2.56z" fill="#d78e73"/>
  <path d="m17.5 263c1.42-8.01 7.18-18.6 12.5-23 6.81-5.62 16.7-9.02 33.4-11.5 7.82-1.16 14.5-2.75 14.7-3.54.287-.794 2.61-3.53 5.17-6.09 2.55-2.55 6.12-8 7.93-12.1s4.21-8.49 5.35-9.76c1.89-2.11 1.66-2.76-2.78-7.67-7.12-7.88-5.9-7.57 2.23.565 3.9 3.9 8.85 7.99 11 9.11l3.92 2.03v-32.4l8.67-3.49c4.77-1.92 9.45-3.2 10.4-2.85 3.74 1.38.554 4.78-7.01 7.48-6.15 2.19-8.15 3.58-8.87 6.16-1.52 5.48-1.26 13.8.532 17.3 2.74 5.42 5.97 4.88 13.1-2.18l6.55-6.45 5.4 6.32c8.97 10.5 14.5 7.86 14.5-6.9 0-10.2-1.21-12-10-14.8-6.54-2.04-7.92-3.22-6.89-5.92.710-1.85 1.68-1.77 8.51.708 11.9 4.31 12.7 5.78 12.2 22.7l-.444 14.3 3.79-2.21c2.08-1.22 6.84-5.21 10.6-8.88 5.76-5.66 6.23-5.92 3.11-1.74-2.02 2.71-4.38 5.16-5.23 5.44-1.04.348-.804 1.27.730 2.8 1.26 1.26 2.93 4.69 3.72 7.62.862 3.2 4.19 8.38 8.31 12.9l6.88 7.61 13.4 2.86c29.8 6.37 40.9 14.4 46.5 33.5l2.06 7h-233zm120-31c2.16-7.03 6.71-11.8 16.5-17.4 7-3.95 7.39-4.45 7.39-9.39v-5.22l-3.74 1.86c-2.05 1.02-5.2 3.44-7 5.36s-6.22 5-9.83 6.84c-5.77 2.93-7.17 3.16-11.5 1.87-2.7-.809-7.54-3.78-10.8-6.6-5.45-4.77-10.7-8.21-12.4-8.21-.415 0-.750 1.95-.745 4.33.009 4.52.879 5.33 13.8 13 3.33 1.98 6.03 5.01 7.59 8.53 2.64 5.97 5.14 19.3 5.38 28.8.113 4.47.576 2.94 1.82-6 .916-6.6 2.47-14.6 3.45-17.8zm42.2-54.2c1.22-2.56 2.45-4.41 2.74-4.12.610.610-3.44 8.77-4.35 8.77-.336 0 .387-2.09 1.61-4.65zm-94.3.536c-.819-1.53-1.24-3.03-.930-3.34.307-.307 1.24.944 2.08 2.78 1.84 4.03.943 4.47-1.15.558zm36.7-1.31c-1.6-2.59.836-3.24 12.1-3.24 6.11 0 11.5.410 12 .911 2.45 2.45-1.73 3.76-12 3.76-6.48 0-11.5-.598-12.1-1.42zm7.08-20.3-3.64-2.99 3.19-12 3.19-12-.732 12.1c-.486 8.02-.206 13.1.830 15 1.95 3.64 1.68 3.63-2.84-.088zm57.8 1.67c.0403-1.1.589-3.2 1.22-4.67l1.15-2.67.0733 2.67c.0403 1.47-.508 3.57-1.22 4.67-1.15 1.78-1.28 1.78-1.22 0zm-109-6c-.490-1.95-.635-3.81-.320-4.12.314-.314.973 1.03 1.46 2.98.490 1.95.635 3.81.320 4.12-.314.314-.973-1.03-1.46-2.98zm119-3.88c2.18-4.02 4.46-7.62 5.08-8 .615-.380-.663 2.6-2.84 6.62s-4.46 7.62-5.08 8c-.615.380.663-2.6 2.84-6.62zm-130-4c-2.32-3.95-3.68-6.85-3.02-6.44 1.57.968 8.39 12.6 7.74 13.2-.272.248-2.4-2.79-4.72-6.74zm8.32-1.26c-.490-1.95-.635-3.81-.320-4.12.314-.314.973 1.03 1.46 2.98.490 1.95.635 3.81.320 4.12-.314.314-.973-1.03-1.46-2.98zm117 1.42c-.0725-.738.468-3.43 1.2-5.99 1.04-3.63.857-5.65-.840-9.22-1.63-3.43-2.41-10.8-3.13-29.3-1.37-35.4-2.07-36.5-23.7-37.9-6.71-.448-14.7-2.07-20.7-4.17-24.3-8.6-25.5-8.89-34.4-8.3-9.11.610-21.7 5.52-25.8 10.1-3.07 3.39-4.93 19.8-4.74 41.7.140 15.6-.218 19-2.58 24.3-2.97 6.72-4.83 7.77-5.98 3.39-1.08-4.14-3.94-1.62-3.28 2.89.316 2.15.0139 3.44-.703 3-.696-.430-.899-3.79-.455-7.54.653-5.52-.847-15.6-2.68-18.1-.217-.288-1.46.302-2.76 1.31-2.26 1.75-2.26 1.71.0051-.956 2.28-2.69 2.24-3.2-1.14-14-1.93-6.15-4.16-12-4.95-13-1.04-1.28-.995-2.04.157-2.75 1.2-.740.937-2.9-1.05-8.68l-2.65-7.69 3.91-3.29c3.34-2.81 3.71-3.73 2.52-6.33-1.13-2.48-.762-3.96 1.98-8 1.85-2.73 4.09-7.18 4.98-9.89 2.15-6.57 4.93-10.7 7.85-11.6 1.32-.420 2.7-1.92 3.07-3.32.368-1.41 2.08-2.84 3.81-3.18 43.2-8.5 42.3-8.42 50.8-4.37 8.35 3.95 14.5 4.45 19.9 1.62 3.36-1.75 4.53-1.54 15.3 2.81 23.1 9.33 32 17.9 33.2 32 .380 4.3 2.21 11.3 4.06 15.6 4.37 10.1 5.15 20.1 2.68 34.2-1.95 11.1-1.86 14.3.299 10.8.839-1.36 1.26-1.25 1.93.481 1.25 3.26 1 4.3-.481 2-1.07-1.66-1.3-1.55-1.33.667-.0332 2.17-.274 2.3-1.28.705-1.49-2.35-1.96-1.93-3.64 3.29-.812 2.51-.831 5.81-.0503 8.88.825 3.25.764 5.71-.184 7.34-1.2 2.06-1.43 1.65-1.47-2.55-.0223-2.75-.641-5-1.37-5-.733 0-1.33.9-1.33 2s-.581 2-1.29 2c-.710 0-1 .75-.653 1.67.351.917-.209 4.37-1.24 7.67s-1.94 5.4-2.01 4.66zm13.3-8.66c1.94-4.08 2.56-4.84 2.56-3.14 0 .715-.933 2.47-2.07 3.89-1.96 2.44-1.98 2.4-.486-.745zm-132-1c.0640-1.55.380-1.87.806-.806.385.962.338 2.11-.105 2.56-.443.443-.758-.344-0.7-1.75zm-12.6-1.27c-1.29-3.35-.907-4.22.665-1.52.778 1.34 1.13 2.71.791 3.06-.343.343-.998-.351-1.46-1.54zm-2.06-6.73c.0640-1.55.380-1.87.806-.806.385.962.338 2.11-.105 2.56-.443.443-.758-.344-0.7-1.75zm41.1-4.81c2.29-2.34 4.16-4.86 4.16-5.59 0-.737-1.61-3.02-3.58-5.08l-3.58-3.74h3.54c2.27 0 4.09 1.04 5.1 2.92l1.56 2.92 2.36-2.92c1.3-1.61 3.73-2.92 5.4-2.92 3.03 0 3.03.009-.547 3.74-4.4 4.59-4.4 4.93-.182 10.5l3.4 4.46h-3.18c-2.02 0-3.82-1.21-4.95-3.32-1.37-2.56-2.18-2.98-3.56-1.84-.981.814-1.78 2.31-1.78 3.32 0 1.17-1.52 1.84-4.16 1.84h-4.16zm56-.687c3.98-4.83 4.02-5 1.63-7.67-4.38-4.89-4.58-6.06-1.01-6.06 2.15 0 3.62.940 4.17 2.67.466 1.47 1.37 2.67 2 2.67.634 0 1.53-1.2 2-2.67.552-1.74 2.02-2.67 4.21-2.67h3.36l-3.45 4.1c-4.25 5.05-4.25 5.35-.119 9.23 1.83 1.72 3.33 3.63 3.33 4.23 0 .606-1.5 1.1-3.33 1.1-1.94 0-3.33-.766-3.33-1.84 0-1.01-.885-2.57-1.97-3.47-1.62-1.35-2.24-1.02-3.55 1.84-1.07 2.34-2.63 3.47-4.8 3.47h-3.22zm53.8-1.06c.0148-2.93.288-3.98.607-2.32s.307 4.06-.0269 5.33-.595-.0822-.580-3.02zm-148-3c-.0515-1.61.506-3.29 1.24-3.75 1.58-.975 1.58.330 0 4-1.1 2.57-1.15 2.56-1.24-.255zm53.9-9.91c-4.26-2.09-7.22-2.49-14.7-2-5.13.338-10.5.972-12 1.41-1.47.437-.580-.172 1.97-1.35 10.3-4.78 27-3.3 32.1 2.84 2.28 2.75-.689 2.39-7.39-0.9zm30 1.69c0-2.41 7.87-5.71 15.2-6.35 3.77-.329 10.1.237 14.2 1.26l7.33 1.86-10-.618c-7.31-.452-11.6-.0193-16 1.61-9.55 3.55-10.7 3.78-10.7 2.24z" fill="#cc714e"/>
  <path d="m17.5 263c1.42-8.01 7.18-18.6 12.5-23 6.81-5.62 16.7-9.02 33.4-11.5 7.82-1.16 14.5-2.75 14.7-3.54.287-.794 2.61-3.53 5.17-6.09 2.55-2.55 6.12-8 7.93-12.1s4.2-8.48 5.31-9.72c3.19-3.56 7.94.244 9.14 7.33 1.03 6.07 1.86 6.94 12.4 13 5.37 3.09 7.71 5.45 9.59 9.69 2.7 6.09 5.2 19.4 5.44 28.9.113 4.47.576 2.94 1.82-6 3.12-22.5 5.79-27.2 20-35.2 6.95-3.92 7.39-4.48 7.39-9.26 0-3.63.906-5.94 3.16-8.06 2.9-2.73 3.34-2.8 5.3-.839 1.17 1.17 2.78 4.53 3.57 7.47.862 3.2 4.19 8.38 8.31 12.9l6.88 7.61 13.4 2.86c29.8 6.37 40.9 14.4 46.5 33.5l2.06 7h-233zm110-49c-3.07-1.52-8.04-5.43-11-8.68l-5.45-5.91.376-15.6.376-15.6 8.67-3.49c4.77-1.92 9.45-3.2 10.4-2.85 3.74 1.38.554 4.78-7.01 7.48-6.15 2.19-8.15 3.58-8.87 6.16-1.52 5.48-1.26 13.8.532 17.3 2.74 5.42 5.97 4.88 13.1-2.18l6.55-6.45 5.4 6.32c8.97 10.5 14.5 7.86 14.5-6.9 0-10.2-1.21-12-10-14.8-6.54-2.04-7.92-3.22-6.89-5.92.710-1.85 1.68-1.77 8.51.708 11.4 4.13 12.4 5.77 12.4 20.7 0 16.8-3.45 22.9-16.9 29.6-6.93 3.47-7.71 3.48-14.6.044zm-3.04-37.2c-3.1-1.96-.840-2.96 8.22-3.66 9.26-.712 17.8 1.47 14.4 3.66-2.54 1.61-20 1.6-22.6-.004zm-53.4-49c-1.52-2.75-5.27-13.4-8.33-23.6s-6.24-19.4-7.06-20.4c-1.12-1.34-1.09-2.06.0950-2.79 1.2-.740.937-2.9-1.05-8.68l-2.65-7.69 3.91-3.29c3.34-2.81 3.71-3.73 2.52-6.33-1.13-2.48-.762-3.96 1.98-8 1.85-2.73 4.09-7.18 4.98-9.89 2.15-6.57 4.93-10.7 7.85-11.6 1.32-.420 2.7-1.92 3.07-3.32.368-1.41 2.08-2.84 3.81-3.18 43.2-8.5 42.3-8.42 50.8-4.37 8.35 3.95 14.5 4.45 19.9 1.62 3.36-1.75 4.53-1.54 15.3 2.81 23.1 9.33 32 17.9 33.2 32 .380 4.3 2.21 11.3 4.06 15.6s3.67 11.2 4.04 15.3c1.2 13.3-5.2 40-11.5 48.2l-2.56 3.32-1.56-3.98c-.858-2.19-2.01-15.1-2.55-28.7-1.42-35.3-2.13-36.4-23.7-37.8-6.71-.448-14.7-2.07-20.7-4.17-24.3-8.6-25.5-8.89-34.4-8.3-9.11.610-21.7 5.52-25.8 10.1-3.07 3.39-4.93 19.8-4.74 41.7.140 15.6-.218 19-2.58 24.3-1.51 3.4-2.96 6.19-3.23 6.19-.273 0-1.74-2.25-3.26-5zm28.8-4.59c2.29-2.34 4.16-4.86 4.16-5.59 0-.737-1.61-3.02-3.58-5.08l-3.58-3.74h3.54c2.27 0 4.09 1.04 5.1 2.92l1.56 2.92 2.36-2.92c1.3-1.61 3.73-2.92 5.4-2.92 3.03 0 3.03.009-.547 3.74-4.4 4.59-4.4 4.93-.182 10.5l3.4 4.46h-3.18c-2.02 0-3.82-1.21-4.95-3.32-1.37-2.56-2.18-2.98-3.56-1.84-.981.814-1.78 2.31-1.78 3.32 0 1.17-1.52 1.84-4.16 1.84h-4.16zm56-.687c3.98-4.83 4.02-5 1.63-7.67-4.38-4.89-4.58-6.06-1.01-6.06 2.15 0 3.62.940 4.17 2.67.466 1.47 1.37 2.67 2 2.67.634 0 1.53-1.2 2-2.67.552-1.74 2.02-2.67 4.21-2.67h3.36l-3.45 4.1c-4.25 5.05-4.25 5.35-.119 9.23 1.83 1.72 3.33 3.63 3.33 4.23 0 .606-1.5 1.1-3.33 1.1-1.94 0-3.33-.766-3.33-1.84 0-1.01-.885-2.57-1.97-3.47-1.62-1.35-2.24-1.02-3.55 1.84-1.07 2.34-2.63 3.47-4.8 3.47h-3.22zm-40.5-15.2c-4.26-2.09-7.22-2.49-14.7-2-5.13.338-10.5.972-12 1.41-1.47.437-.580-.172 1.97-1.35 10.3-4.78 27-3.3 32.1 2.84 2.28 2.75-.689 2.39-7.39-0.9zm30 1.69c0-2.41 7.87-5.71 15.2-6.35 3.77-.329 10.1.237 14.2 1.26l7.33 1.86-10-.618c-7.31-.452-11.6-.0193-16 1.61-9.55 3.55-10.7 3.78-10.7 2.24z" fill="#976e62"/>
  <path d="m17.7 263c2.69-14.4 13.1-26.8 26-30.8 3.9-1.2 13.5-3.17 21.4-4.38 12-1.83 14.3-2.58 14.3-4.54 0-1.29 1.57-3.37 3.48-4.62 2.02-1.33 5.37-6.37 8.01-12.1 2.49-5.39 5.18-10.2 5.98-10.7 0.8-.495 2.87-.143 4.59.781 2.38 1.27 3.24 3.01 3.54 7.16.363 4.96 1.01 5.85 6.93 9.48 11.9 7.32 15.2 11.2 17.6 20.5 1.18 4.69 2.54 13.7 3.03 20l.894 11.5 1.62-14c2.76-23.8 5.16-28.5 18.5-36.1 7.81-4.47 7.83-4.5 9.12-12.2.934-5.62 5-8.88 7.98-6.4.972.806 2.44 4.12 3.25 7.37 1.04 4.15 3.57 8.06 8.48 13.2 6.93 7.19 7.12 7.29 20.9 10.2 18.1 3.79 26.4 6.96 33.1 12.7 5.78 4.95 13.7 18.9 13.7 24.2v3.12h-234zm105-52c-10.3-7.01-11.6-9.52-12.2-25-.444-10.3-.125-14.2 1.35-16.4 2.11-3.22 15.8-8.51 18.2-7.04 2.87 1.78 1.4 3.23-5.52 5.45-9.72 3.11-11.7 5.75-11.7 15.9 0 7.03.487 8.74 3.21 11.3 3.95 3.71 6.58 2.63 12.8-5.24l4.28-5.41 7.16 6.77c6.23 5.89 7.52 6.58 9.91 5.3 3.41-1.82 5.29-6.56 5.29-13.3 0-9.1-1.73-11.5-10.6-14.7-4.95-1.8-8.07-3.71-8.07-4.93 0-2.45 5.44-1.58 14.1 2.26l5.88 2.6v15.5c0 17.9-.961 20.1-11.6 27.2-8.35 5.53-14.1 5.48-22.5-.209zm1.74-33.9c-5.51-1.44.006-3.08 10.3-3.08 10.9 0 15.6 1.56 9.65 3.16-3.37.903-16.4.847-20-.0857zm67-48.7c-.882-2.39-2.05-15.1-2.59-28.3-1.07-26-2.75-33.1-8.34-35.1-1.69-.622-7.91-1.49-13.8-1.93-10.1-.749-19.4-3.21-38.6-10.2-10.8-3.97-23.7-3.35-34 1.63-4.03 1.95-8.33 4.36-9.56 5.36-3.1 2.53-5.11 18.6-5.1 40.8.005 13.8-.543 19.8-2.26 24.6-1.25 3.48-2.74 6.33-3.31 6.33-2.31 0-5.29-7-11-25.9-3.32-10.9-6.72-20.6-7.55-21.6-1.17-1.41-1.02-1.82.636-1.82 1.9 0 1.85-.755-.503-6.72-3.42-8.69-3.34-10.8.597-14.5 2.7-2.54 3.03-3.61 1.96-6.43-1.03-2.7-.757-3.95 1.33-6.18 1.44-1.54 3.87-6.16 5.4-10.3 1.65-4.42 4.68-9.2 7.43-11.7 2.55-2.32 4.64-4.76 4.64-5.41 0-.649 4.35-1.89 9.67-2.75 5.32-.863 13.1-2.42 17.2-3.45 10.7-2.67 21.1-2.39 28 .752 6.63 3.01 13 3.39 19.2 1.15 3.78-1.37 5.55-1.03 15.3 2.89 22.6 9.12 31.8 18.3 32.4 32.3.172 3.99 1.58 9.67 3.26 13.1 5.98 12.3 6.6 24.8 2.14 43.3-2.5 10.4-5.36 17.7-8.43 21.6l-2.45 3.12zm-90.6-6.39c2.97-4.17 2.89-5.16-.844-10.3-2.03-2.79-2.02-3 .101-3 1.26 0 3.35 1.32 4.65 2.93l2.37 2.93 1.83-2.93c1.01-1.61 2.96-2.93 4.33-2.93 2.27 0 2.19.406-.874 4.43l-3.38 4.43 3.32 4.24c2.75 3.51 2.94 4.24 1.1 4.24-1.22 0-3.28-1.32-4.59-2.93l-2.37-2.93-1.83 2.93c-1.01 1.61-2.93 2.93-4.27 2.93-2.26 0-2.23-.290.445-4.05zm55.2 0.1 3.78-3.95-3.6-4.72-3.6-4.72h3.25c2.12 0 3.49.921 3.94 2.67.384 1.47 1.41 2.67 2.28 2.67.871 0 1.9-1.2 2.28-2.67.469-1.79 1.82-2.67 4.12-2.67h3.43l-3.76 3.92c-3.82 3.99-3.81 5.08.0675 10.4 2.03 2.79 2.02 3-.101 3-1.26 0-3.35-1.32-4.65-2.93l-2.37-2.93-1.83 2.93c-1.01 1.61-3 2.93-4.42 2.93-2.3 0-2.17-.442 1.19-3.95zm-39-14c-1.69-1.17-6.19-2.89-10-3.82-6.01-1.46-6.35-1.7-2.52-1.79 4.74-.122 17.6 4.78 17.6 6.72 0 1.68-1.56 1.34-5.06-1.11zm28.4.933c2.19-3.54 18-8.27 18-5.38 0 .767-1.35 1.41-3 1.42-1.65.0161-5.62 1.22-8.81 2.67-6.64 3.01-7.33 3.16-6.18 1.29zm-48.9-4.9c.962-.385 2.11-.338 2.56.105.443.443-.344.758-1.75 0.7-1.55-.064-1.87-.380-.806-.806zm73.3.0278c.917-.370 2.42-.370 3.33 0 .917.370.167.673-1.67.673-1.83 0-2.58-.303-1.67-.673z" fill="#504543"/>
  <path d="m17.7 263c1.48-7.94 5.9-16.6 11.1-21.6 2.83-2.76 5.8-4.6 6.62-4.09.818.505 1.32.206 1.12-.666-.547-2.37 11.8-6.17 27.6-8.52 7.74-1.15 14.3-2.09 14.7-2.09.344 0 .626-1.13.626-2.51s1.57-3.54 3.48-4.79c2.04-1.33 5.38-6.4 8.07-12.2 2.53-5.47 5.48-10.3 6.57-10.7 3.11-1.19 7.03 3.38 7.47 8.71.367 4.4 1.31 5.45 10 11.2 5.29 3.49 10.3 7.66 11.2 9.27 2.88 5.38 5.09 16.2 6 29.4l.897 13h-117zm117-6.67c1.01-14.5 3.87-27.1 7.26-31.8 1.51-2.12 5.55-5.45 8.98-7.41 9.86-5.62 12.2-8.29 12.2-13.7 0-3.4.802-5.28 2.77-6.51 3.74-2.34 5.87-.395 7.75 7.07.976 3.87 3.54 8.07 7.48 12.2 3.3 3.49 6 6.71 6 7.14 0 .438 6.99 2.22 15.5 3.95 17.9 3.64 31.5 9.55 37.1 16.2 4.6 5.45 10 16.7 10.1 20.8l.0133 3h-116l.763-11zm-12.3-45.3c-10-6.79-11.3-9.32-12.1-23.7-.916-16.8-.0228-18.8 9.97-22.5 7.42-2.78 11.9-2.81 10.2-.0828-.387.627-3.71 2.14-7.37 3.35-9.64 3.2-10.6 4.64-10.6 15.4 0 7.46.513 9.75 2.67 11.9 3.81 3.81 5.14 3.42 12.3-3.62l6.38-6.28 6.52 6.42c4.85 4.77 7.19 6.21 9.13 5.59 3.67-1.16 5.68-6.37 5.68-14.7 0-8.86-2.27-11.7-11.7-14.7-6.83-2.18-8.39-3.67-5.65-5.37 1.67-1.03 16.2 4.3 17.6 6.44.548.862 1 8.17 1.01 16.2.0156 16.6-.629 18-11.8 25.9-7.91 5.57-13.8 5.51-22.2-.204zm1.74-33.9c-5.51-1.44.006-3.08 10.3-3.08 10.9 0 15.6 1.56 9.65 3.16-3.37.903-16.4.847-20-.0857zm67-49.3c-.847-2.79-1.99-15.9-2.54-29.1-1.39-33.4-1.94-34.2-22.1-35.7-10.4-.777-16.6-2.39-36.6-9.61-8.13-2.93-11.6-3.49-19.3-3.07-9.18.496-20.2 4.46-26.4 9.5-3.16 2.56-4.89 16.7-4.94 40.3-.0262 14.1-.585 20.2-2.3 25-1.25 3.48-2.74 6.33-3.31 6.33-2.35 0-5.48-7.32-10.5-24.7-2.94-10.1-5.99-19.6-6.76-21-.992-1.85-.988-2.89.0140-3.51.957-.591.498-3.39-1.4-8.54l-2.82-7.66 3.67-3.83c2.65-2.77 3.42-4.61 2.78-6.64-.590-1.86.493-5.58 3.2-11 2.25-4.51 4.1-9.07 4.1-10.1 0-3.57 13.2-14.8 18.5-15.7 2.68-.470 8.78-1.73 13.5-2.81 12.4-2.78 25-3.66 28.5-1.98 11 5.43 17.4 5.95 26.8 2.15 1.68-.681 2.25-.553 1.68.374-1.11 1.79 6.24 7.43 12.7 9.75 2.71.976 4.67 2.2 4.34 2.72-.321.520.939 1.94 2.8 3.16s4.55 4.14 5.98 6.48c1.88 3.09 2.6 3.58 2.6 1.79.003-1.36-2.04-4.51-4.53-7-5.11-5.11-5.03-5.41.723-2.44 2.23 1.15 4.32 1.84 4.64 1.51.963-.963-5.61-4.77-13.1-7.61-7.36-2.78-16.2-7.98-13.5-8 4.26-.0244 25 10.2 30.4 14.9 7.9 6.95 10.2 11.6 10.3 20.9.0604 4.14.897 8.46 1.86 9.59 2.49 2.95 5.34 11.6 6.37 19.3 1.61 12-4.86 40.2-11 48l-2.69 3.42zm-122-84.9c0-9.61-1.3-11.4-2.62-3.61-.698 4.13.797 12.3 2.25 12.3.201 0 .366-3.9.366-8.67zm124 1.81c-1.94-4.56-8.92-12.1-8.92-9.58 0 .748 1.16 2.41 2.57 3.69s3.57 4.42 4.78 6.98c2.79 5.87 4.13 4.94 1.56-1.09zm-118-10.3c-.483-1.52-1.42-2.77-2.09-2.77-.668 0-.530 1.5.306 3.34 1.77 3.89 3.07 3.48 1.79-.572zm61.6-5.86c-2.08-3.17-11.2-8.4-12.5-7.14-.367.367 1.53 1.71 4.21 2.98s5.81 3.74 6.96 5.49c1.14 1.75 2.38 2.88 2.75 2.51.367-.367-.270-2.1-1.41-3.84zm23.2-.241c-2.84-2.57-5.83-4.67-6.65-4.67-2.04 0 8.06 9.25 10.1 9.3.919.0198-.654-2.06-3.49-4.63zm-12.2.0052c-1.72-1.83-3.42-3.03-3.78-2.67-.885.885 3.84 6 5.55 6 .748 0-.0479-1.5-1.77-3.33zm-54.8-1.9c-8.39-3.38-12.9-4.65-11.6-3.27 1.71 1.79 11.9 5.68 14.9 5.69 1.47.000984-.0333-1.09-3.33-2.42zm16-7.7c5.5-1.19 9.17-2.44 8.15-2.78-2.2-.744-24 3.57-26.8 5.32-2.42 1.48 4.38.556 18.7-2.53zm33 2.1c-4.16-.610-9.78-2.04-12.5-3.17-7.73-3.23-8.68-2.21-1.27 1.36 4.76 2.29 8.76 3.17 14 3.07l7.33-.145zm-42 101 3.32-4.24-3.38-4.43c-3.07-4.02-3.15-4.43-.874-4.43 1.38 0 3.25 1.2 4.17 2.67.916 1.47 2.22 2.67 2.9 2.67.678 0 1.61-1.2 2.08-2.67.472-1.49 2.02-2.67 3.49-2.67 2.48 0 2.43.281-.799 4.51l-3.44 4.51 3.49 4.15c2.85 3.39 3.08 4.15 1.26 4.15-1.23 0-3.35-1.35-4.72-3l-2.48-3-2.14 3c-1.18 1.65-3.05 3-4.17 3-1.53 0-1.22-1.02 1.3-4.24zm54.8.346c3.91-4.08 3.81-5.1-.994-10.4l-2.7-3h2.85c1.57 0 3.49 1.2 4.28 2.67.785 1.47 2.06 2.67 2.84 2.67.776 0 1.73-1.2 2.11-2.67.386-1.48 1.82-2.67 3.21-2.67 3.24 0 3.19 1.64-.156 4.67-3.34 3.02-3.33 3.99.0908 8.79 2.74 3.84 2.74 3.87.0899 3.87-1.5 0-3.04-1.17-3.51-2.67-.466-1.47-1.4-2.67-2.08-2.67-.678 0-1.98 1.2-2.9 2.67-.916 1.47-2.83 2.67-4.26 2.67-2.31 0-2.19-.424 1.13-3.89zm-41.2-15.5c-3.67-1.77-8.17-3.29-10-3.38-2.1-.108-2.51-.391-1.1-.762 3.31-.876 12.4 1.9 16 4.87 3.98 3.31 3.31 3.22-4.87-.728zm30.7 2.07c1.06-1.71 7.98-4.61 13.7-5.74 2.76-.544 4.1-.377 3.59.446-.446.722-2 1.31-3.45 1.31s-4.99 1.2-7.87 2.67c-5.87 2.99-7.21 3.29-5.99 1.31zm-48.9-4.89c.962-.385 2.11-.338 2.56.105.443.443-.344.758-1.75 0.7-1.55-.064-1.87-.380-.806-.806zm73.3 0c.962-.385 2.11-.338 2.56.105.443.443-.344.758-1.75 0.7-1.55-.064-1.87-.380-.806-.806z" fill="#51423e"/>
  <path d="m17.7 263c1.48-7.94 5.9-16.6 11.1-21.6 2.83-2.76 5.8-4.6 6.62-4.09.818.505 1.32.206 1.12-.666-.547-2.37 11.8-6.17 27.6-8.52 7.74-1.15 14.3-2.09 14.7-2.09.344 0 .626-1.13.626-2.51s1.57-3.54 3.48-4.79c2.04-1.33 5.38-6.4 8.07-12.2 2.53-5.47 5.48-10.3 6.57-10.7 3.11-1.19 7.03 3.38 7.47 8.71.367 4.4 1.31 5.45 10 11.2 5.29 3.49 10.3 7.66 11.2 9.27 2.88 5.38 5.09 16.2 6 29.4l.897 13h-117zm117-6.67c1.01-14.5 3.87-27.1 7.26-31.8 1.51-2.12 5.55-5.45 8.98-7.41 9.86-5.62 12.2-8.29 12.2-13.7 0-3.4.802-5.28 2.77-6.51 3.74-2.34 5.87-.395 7.75 7.07.976 3.87 3.54 8.07 7.48 12.2 3.3 3.49 6 6.71 6 7.14 0 .438 6.99 2.22 15.5 3.95 17.9 3.64 31.5 9.55 37.1 16.2 4.6 5.45 10 16.7 10.1 20.8l.0133 3h-116l.763-11zm-11.9-45.1c-5.27-3.49-11.6-10.1-11.6-12.2 0-.323 2.42 1.71 5.38 4.53 2.96 2.81 7.14 6.03 9.3 7.14 3.65 1.89 3.86 1.86 3.04-.322-.772-2.06-.602-2.12 1.37-.519 1.91 1.55 2.25 1.55 2.27 0 .0171-1.53.205-1.54 1.17-.0209.878 1.39 1.38 1.43 2.15.191.780-1.26 1.22-1.25 2.02.0369 1.52 2.46 11.8-3.64 15.6-9.23 1.68-2.49 3.05-3.83 3.05-2.97 0 2.57-10.4 13.1-15.3 15.4-6.63 3.14-11.6 2.61-18.5-2zm2.44-34.4-4-.899 4.5-.944c5.69-1.19 14.7-1.06 18.1.263 5.63 2.2-9.95 3.52-18.6 1.58zm-53.8-48c-1.1-1.68-4.2-10.5-6.89-19.5-2.69-9.07-5.75-18.6-6.81-21.1-2.43-5.82-2.45-6.95-.0466-3.53 2 2.86 8.58 21.5 12.1 34.4 1.18 4.3 2.42 7.54 2.75 7.22.927-.927-3.09-22.4-5.43-29-1.15-3.27-1.55-6.13-.871-6.35.674-.225-.221-4.96-1.99-10.5-3.42-10.8-3.29-12.9.592-9.34 2.3 2.08 2.37 1.82 1.53-6.27-.481-4.65-1.33-9.18-1.88-10.1-.702-1.14-.0590-1.49 2.14-1.18 2.91.409 3.2-0.1 3.81-6.89.643-7.07.799-7.32 4.33-6.95 4.02.420 4.35-.418 2.3-5.82-1.78-4.68-.840-5.45 3.33-2.72 1.86 1.22 3.37 1.71 3.37 1.1s.802-2.21 1.78-3.55c1.71-2.34 2.03-2.29 7.67.948 3.24 1.86 7.89 3.81 10.3 4.32 4.74.990 4.8.762 1.81-7.17-.541-1.44.003-1.39 2.52.235 1.76 1.14 5.42 2.47 8.12 2.96 4.59.838 4.86.703 4.14-2.05-.718-2.74-.549-2.83 2.42-1.26 1.76.931 7.03 4.31 11.7 7.51 4.69 3.2 8.75 5.6 9.02 5.33.269-.269-.454-2.75-1.61-5.51l-2.1-5.02 3.91 2.78c2.15 1.53 5.48 3.38 7.41 4.11 3.2 1.22 3.51 1.05 3.51-1.96v-3.7l6.14 4.68c9.05 6.91 11.2 7.89 11.2 5.11 0-1.54 1.61-.403 4.91 3.45 4.69 5.48 4.96 5.61 6 2.8 1.64-4.42 4.16-2.63 6.65 4.71 1.22 3.61 2.29 5.37 2.37 3.9.237-4.28 2.18.104 4.13 9.33.931 4.4 2.2 8.57 2.81 9.27.617.697 1.12 3.31 1.12 5.81 0 3.4.482 4.36 1.91 3.81 1.66-.636 1.66.0946.0455 5.47-1.4 4.65-1.48 6.45-.323 7.16 1.17.721 1.15 1.82-.0624 4.48-.884 1.94-1.26 4.09-.835 4.78.425.688-.203 4.61-1.4 8.71-1.19 4.1-1.92 7.71-1.61 8.02.806.806 4.54-13.3 6.37-24 1.95-11.5 1.01-22.5-2.64-31-2.62-6.06-2.64-6.28-.225-3.19 8.46 10.8 7.18 42.2-2.49 61.2-5.82 11.4-6.68 9.09-8.73-23.9-1.73-27.7-3.23-33.6-9.08-35.9-1.61-.626-8.94-1.73-16.3-2.46-10.3-1.01-16.2-2.49-26-6.41-11.5-4.62-13.8-5.09-25.3-5.15-12-.0614-13.1.189-21.1 4.52-5.33 2.89-8.97 5.85-9.84 8-.757 1.88-1.64 14.8-1.97 28.7-.735 31.5-3.74 43.9-8.78 36.3zm73.8-81.2c-1.1-.711-2.6-1.29-3.33-1.29-.733 0-.433.582.667 1.29 1.1.711 2.6 1.29 3.33 1.29.733 0 .433-.582-.667-1.29zm-27-4.81c-.443-.443-1.59-.490-2.56-.105-1.06.426-.748.742.806.806 1.41.0579 2.19-.257 1.75-0.7zm-9.97-1.41c-.917-.370-2.42-.370-3.33 0-.917.370-.167.673 1.67.673 1.83 0 2.58-.303 1.67-.673zm-6.46 80.8 3.45-4.1-3.49-4.57c-3.33-4.36-3.36-4.57-.751-4.57 1.56 0 3.1 1.14 3.58 2.67.466 1.47 1.67 2.67 2.67 2.67s2.2-1.2 2.67-2.67c.472-1.49 2.02-2.67 3.49-2.67 2.48 0 2.43.281-.799 4.51l-3.44 4.51 3.49 4.15c2.85 3.39 3.08 4.15 1.26 4.15-1.23 0-3.35-1.35-4.72-3l-2.48-3-2.14 3c-1.18 1.65-3.06 3-4.19 3-1.53 0-1.18-1.03 1.4-4.1zm54.7.204c3.91-4.08 3.81-5.1-.994-10.4-2.46-2.73-2.49-3-.349-3 1.29 0 3.51 1.35 4.94 3l2.58 3 2.13-3c1.17-1.65 3.03-3 4.13-3 1.72 0 1.7.414-.181 3-3.73 5.13-3.81 6.12-.844 10.3 2.3 3.23 2.47 4.05.867 4.05-1.11 0-2.98-1.35-4.16-3l-2.14-3-2.48 3c-1.36 1.65-3.54 3-4.85 3-1.96 0-1.72-.673 1.36-3.89zm-101-46.8c-1.54-4.11-2.76-8.2-2.7-9.09.0511-.889 1.57 2.21 3.38 6.89s3.03 8.77 2.7 9.09c-.321.321-1.84-2.78-3.38-6.89zm141-20.7c-.304-7.2-3.91-15.5-8.6-19.8-1.89-1.74-9.01-6.11-15.8-9.73-13.8-7.33-11.1-7.46 3.88-.186 16.2 7.87 22.7 17.2 21.4 30.5l-.539 5.27zm-132-15.6c2.53-6.24 4.97-9.9 8.18-12.2l4.58-3.34-3.8 3.75c-2.2 2-5.6 7.5-7.7 12.2-5 11.2-5.9 10.9-1.3-.4zm27.5-21c5.18-1.01 11.8-2.49 14.7-3.29 2.88-0.8 7.64-1.39 10.6-1.3 4.57.133 4.19.321-2.67 1.32-4.4.638-9.66 1.74-11.7 2.44-2.02.703-7.42 1.59-12 1.97l-8.32.692zm45.7.999c.962-.385 2.11-.338 2.56.105.443.443-.344.758-1.75 0.7-1.55-.0640-1.87-.380-.806-.806zm8 0c.962-.385 2.11-.338 2.56.105.443.443-.344.758-1.75 0.7-1.55-.0640-1.87-.380-.806-.806zm-14.4-1.76c-1.1-.711-1.4-1.29-.667-1.29s2.23.582 3.33 1.29c1.1.711 1.4 1.29.667 1.29s-2.23-.582-3.33-1.29z" fill="#114f6f"/>
  <path d="m132 260c0-4.77.242-6.72.538-4.33.296 2.38.296 6.28 0 8.67-.296 2.38-.538.433-.538-4.33zm3.07-2.67c1.01-14.8 3.85-27.3 7.27-32.1 1.51-2.12 5.55-5.45 8.98-7.4 3.44-1.96 7.89-5.06 9.9-6.91 2.01-1.84 3.97-3.03 4.37-2.64.789.789-6.11 6.89-15.3 13.5-6.18 4.47-8.29 7.59-5.11 7.59 2.17 0 6.28 4.24 9.69 10 1.59 2.69.520 1.92-3.26-2.33-3.1-3.48-6.21-6.33-6.92-6.33s-2.76 3.15-4.55 7c-2.53 5.43-3.27 9.24-3.29 17-.0184 5.5-.611 10.9-1.32 12-.847 1.32-1.02-1.85-.508-9.33zm114 9.33c-.0585-1.1-1.82-5.6-3.91-10-3.93-8.27-14.6-19.5-20.1-21.3-1.65-.524-2.69-1.26-2.32-1.63 1.57-1.57 14.9 7.32 19 12.7 4.65 6.09 9.26 17.8 8.12 20.6-.456 1.13-.705 1.02-.777-.339zm-231-2c-.0264-1.26 1.15-5.48 2.61-9.39 4.54-12.1 16.6-21.2 30.7-23 5.8-.733 5.76-.702-1.39 1.3-16.8 4.71-23.9 11-29.3 26-1.44 4.03-2.64 6.31-2.67 5.05zm144-12c-1.66-2.11-1.61-2.16.503-.503 1.28 1.01 2.33 2.06 2.33 2.33 0 1.1-1.09.391-2.84-1.83zm-68.4-1.28c-.724-1.9-.570-2.05.746-.746.911.904 1.32 1.98.910 2.39-.411.411-1.16-.329-1.66-1.64zm80-1.72c.605-1.1 3.69-5.82 6.86-10.5 6.94-10.2 7.19-13.8 1.43-20.2-2.73-3.01-2.26-2.71 1.27.796 3.12 3.11 7.84 6.21 10.7 7l5.07 1.43-5.67-.732c-4.43-.572-5.67-.304-5.67 1.23 0 1.08-2.78 6.08-6.18 11.1-6 8.88-10.1 14.1-7.77 9.82zm-62.1-7.53c4.1-7.49 8.92-12.5 12.1-12.5 6.02 0-.371-7.83-9.7-11.9-9.33-4.05-14.8-12.1-11.7-17.1 1.28-2.04 1.36-1.95.637.705-1.25 4.56 2.31 8.93 12.7 15.6 5.07 3.25 10.1 7.58 11.1 9.62 2.3 4.48 5.42 18.9 4.33 20-.431.431-.796-.367-.812-1.77-.048-4.19-5.02-13.9-7.13-13.9-1.07 0-4.21 3.15-6.96 7-6.79 9.48-8.19 10.7-4.57 4.14zm-31.1-10c-.758-1.42-2.73-2.83-4.38-3.15-2.73-.526-2.69-.594.450-.760 2.49-.131 3.88.750 4.97 3.15 1.78 3.91.966 4.51-1.04.760zm-21-1.02c1.3-.338 3.1-.316 4 .0495.903.365-.159.642-2.36.615-2.2-.0272-2.94-.326-1.64-.664zm7.31-1.29c.917-.370 2.42-.370 3.33 0 .917.370.167.673-1.67.673-1.83 0-2.58-.303-1.67-.673zm12.3-5.7c0-.690.593-1.62 1.32-2.07.756-.467.979.0681.524 1.25-.886 2.31-1.84 2.73-1.84.815zm6-5.41c1.33-1.47 2.71-2.67 3.08-2.67.367 0-.419 1.2-1.75 2.67s-2.71 2.67-3.08 2.67c-.367 0 .419-1.2 1.75-2.67zm37.6-5.46c-5.27-3.49-11.6-10.1-11.6-12.2 0-.323 2.42 1.71 5.38 4.53 2.96 2.81 7.14 6.03 9.3 7.14 3.65 1.89 3.86 1.86 3.04-.322-.772-2.06-.602-2.12 1.37-.519 1.91 1.55 2.25 1.55 2.27 0 .0171-1.53.205-1.54 1.17-.0209.878 1.39 1.38 1.43 2.15.191.780-1.26 1.22-1.25 2.02.0369 1.52 2.46 11.8-3.64 15.6-9.23 1.68-2.49 3.05-3.83 3.05-2.97 0 2.57-10.4 13.1-15.3 15.4-6.63 3.14-11.6 2.61-18.5-2zm51.7-1.3c-.483-.782-.593-1.71-.243-2.06.349-.350.991.290 1.42 1.42.902 2.35.133 2.76-1.18.635zm-11.1-6.58c0-1.83.303-2.58.673-1.67.370.917.370 2.42 0 3.33-.370.917-.673.167-.673-1.67zm2.56-.778c.064-1.55.380-1.87.806-.806.385.962.338 2.11-.105 2.56-.443.443-.758-.344-0.7-1.75zm5.33-2.67c.064-1.55.380-1.87.806-.806.385.962.338 2.11-.105 2.56-.443.443-.758-.344-0.7-1.75zm-46.1-23.1-4-.899 4.5-.944c5.69-1.19 14.7-1.06 18.1.263 5.63 2.2-9.95 3.52-18.6 1.58zm-54.8-49c-1.1-1.68-4.2-10.5-6.89-19.5-2.69-9.07-5.75-18.6-6.81-21.1-2.43-5.82-2.45-6.95-.0466-3.53 2 2.86 8.58 21.5 12.1 34.4 1.18 4.3 2.42 7.54 2.75 7.22.927-.927-3.09-22.4-5.43-29-1.15-3.27-1.55-6.13-.871-6.35.674-.225-.221-4.96-1.99-10.5-3.42-10.8-3.29-12.9.592-9.34 2.3 2.08 2.37 1.82 1.53-6.27-.481-4.65-1.33-9.18-1.88-10.1-.702-1.14-.0590-1.49 2.14-1.18 2.91.409 3.2-0.1 3.81-6.89.643-7.07.799-7.32 4.33-6.95 4.02.420 4.35-.418 2.3-5.82-1.78-4.68-.840-5.45 3.33-2.72 1.86 1.22 3.37 1.71 3.37 1.1s.802-2.21 1.78-3.55c1.71-2.34 2.03-2.29 7.67.948 3.24 1.86 7.89 3.81 10.3 4.32 4.74.990 4.8.762 1.81-7.17-.541-1.44.003-1.39 2.52.235 1.76 1.14 5.42 2.47 8.12 2.96 4.59.838 4.86.703 4.14-2.05-.718-2.74-.549-2.83 2.42-1.26 1.76.931 7.03 4.31 11.7 7.51 4.69 3.2 8.75 5.6 9.02 5.33.269-.269-.454-2.75-1.61-5.51l-2.1-5.02 3.91 2.78c2.15 1.53 5.48 3.38 7.41 4.11 3.2 1.22 3.51 1.05 3.51-1.96v-3.7l6.14 4.68c9.05 6.91 11.2 7.89 11.2 5.11 0-1.54 1.61-.403 4.91 3.45 4.69 5.48 4.96 5.61 6 2.8 1.64-4.42 4.16-2.63 6.65 4.71 1.22 3.61 2.29 5.37 2.37 3.9.237-4.28 2.18.104 4.13 9.33.931 4.4 2.2 8.57 2.81 9.27.617.697 1.12 3.31 1.12 5.81 0 3.4.482 4.36 1.91 3.81 1.66-.636 1.66.0946.0455 5.47-1.4 4.65-1.48 6.45-.323 7.16 1.17.721 1.15 1.82-.0624 4.48-.884 1.94-1.26 4.09-.835 4.78.425.688-.203 4.61-1.4 8.71-1.19 4.1-1.92 7.71-1.61 8.02.806.806 4.54-13.3 6.37-24 1.95-11.5 1.01-22.5-2.64-31-2.62-6.06-2.64-6.28-.225-3.19 8.46 10.8 7.18 42.2-2.49 61.2-5.82 11.4-6.68 9.09-8.73-23.9-1.73-27.7-3.23-33.6-9.08-35.9-1.61-.626-8.94-1.73-16.3-2.46-10.3-1.01-16.2-2.49-26-6.41-11.5-4.62-13.8-5.09-25.3-5.15-12-.0614-13.1.189-21.1 4.52-5.33 2.89-8.97 5.85-9.84 8-.757 1.88-1.64 14.8-1.97 28.7-.735 31.5-3.74 43.9-8.78 36.3zm73.8-81.2c-1.1-.711-2.6-1.29-3.33-1.29-.733 0-.433.582.667 1.29 1.1.711 2.6 1.29 3.33 1.29.733 0 .433-.582-.667-1.29zm-27-4.81c-.443-.443-1.59-.490-2.56-.105-1.06.426-.748.742.806.806 1.41.0579 2.19-.257 1.75-0.7zm-9.97-1.41c-.917-.370-2.42-.370-3.33 0-.917.370-.167.673 1.67.673 1.83 0 2.58-.303 1.67-.673zm-6.46 80.8 3.45-4.1-3.49-4.57c-3.33-4.36-3.36-4.57-.751-4.57 1.56 0 3.1 1.14 3.58 2.67.466 1.47 1.67 2.67 2.67 2.67s2.2-1.2 2.67-2.67c.472-1.49 2.02-2.67 3.49-2.67 2.48 0 2.43.281-.799 4.51l-3.44 4.51 3.49 4.15c2.85 3.39 3.08 4.15 1.26 4.15-1.23 0-3.35-1.35-4.72-3l-2.48-3-2.14 3c-1.18 1.65-3.06 3-4.19 3-1.53 0-1.18-1.03 1.4-4.1zm54.7.204c3.91-4.08 3.81-5.1-.994-10.4-2.46-2.73-2.49-3-.349-3 1.29 0 3.51 1.35 4.94 3l2.58 3 2.13-3c1.17-1.65 3.03-3 4.13-3 1.72 0 1.7.414-.181 3-3.73 5.13-3.81 6.12-.844 10.3 2.3 3.23 2.47 4.05.867 4.05-1.11 0-2.98-1.35-4.16-3l-2.14-3-2.48 3c-1.36 1.65-3.54 3-4.85 3-1.96 0-1.72-.673 1.36-3.89zm-101-46.8c-1.54-4.11-2.76-8.2-2.7-9.09.0511-.889 1.57 2.21 3.38 6.89s3.03 8.77 2.7 9.09c-.321.321-1.84-2.78-3.38-6.89zm141-20.7c-.304-7.2-3.91-15.5-8.6-19.8-1.89-1.74-9.01-6.11-15.8-9.73-13.8-7.33-11.1-7.46 3.88-.186 16.2 7.87 22.7 17.2 21.4 30.5l-.539 5.27zm-132-15.6c2.53-6.24 4.97-9.9 8.18-12.2l4.58-3.34-3.8 3.75c-2.2 2-5.6 7.5-7.7 12.2-5 11.2-5.9 10.9-1.3-.4zm27.5-21c5.18-1.01 11.8-2.49 14.7-3.29 2.88-0.8 7.64-1.39 10.6-1.3 4.57.133 4.19.321-2.67 1.32-4.4.638-9.66 1.74-11.7 2.44-2.02.703-7.42 1.59-12 1.97l-8.32.692zm45.7.999c.962-.385 2.11-.338 2.56.105.443.443-.344.758-1.75 0.7-1.55-.0640-1.87-.380-.806-.806zm8 0c.962-.385 2.11-.338 2.56.105.443.443-.344.758-1.75 0.7-1.55-.0640-1.87-.380-.806-.806zm-14.4-1.76c-1.1-.711-1.4-1.29-.667-1.29s2.23.582 3.33 1.29c1.1.711 1.4 1.29.667 1.29s-2.23-.582-3.33-1.29z" fill="#473634"/>
  <path d="m132 260c0-4.77.242-6.72.538-4.33.296 2.38.296 6.28 0 8.67-.296 2.38-.538.433-.538-4.33zm3.07-2.67c1.01-14.8 3.85-27.3 7.27-32.1 1.51-2.12 5.55-5.45 8.98-7.4 3.44-1.96 7.89-5.06 9.9-6.91 2.01-1.84 3.97-3.03 4.37-2.64.789.789-6.11 6.89-15.3 13.5-6.18 4.47-8.29 7.59-5.11 7.59 2.17 0 6.28 4.24 9.69 10 1.59 2.69.520 1.92-3.26-2.33-3.1-3.48-6.21-6.33-6.92-6.33s-2.76 3.15-4.55 7c-2.53 5.43-3.27 9.24-3.29 17-.0184 5.5-.611 10.9-1.32 12-.847 1.32-1.02-1.85-.508-9.33zm114 9.33c-.0585-1.1-1.82-5.6-3.91-10-3.93-8.27-14.6-19.5-20.1-21.3-1.65-.524-2.69-1.26-2.32-1.63 1.57-1.57 14.9 7.32 19 12.7 4.65 6.09 9.26 17.8 8.12 20.6-.456 1.13-.705 1.02-.777-.339zm-231-2c-.0264-1.26 1.15-5.48 2.61-9.39 4.54-12.1 16.6-21.2 30.7-23 5.8-.733 5.76-.702-1.39 1.3-16.8 4.71-23.9 11-29.3 26-1.44 4.03-2.64 6.31-2.67 5.05zm144-12c-1.66-2.11-1.61-2.16.503-.503 1.28 1.01 2.33 2.06 2.33 2.33 0 1.1-1.09.391-2.84-1.83zm-68.4-1.28c-.724-1.9-.570-2.05.746-.746.911.904 1.32 1.98.910 2.39-.411.411-1.16-.329-1.66-1.64zm80-1.72c.605-1.1 3.69-5.82 6.86-10.5 6.94-10.2 7.19-13.8 1.43-20.2-2.73-3.01-2.26-2.71 1.27.796 3.12 3.11 7.84 6.21 10.7 7l5.07 1.43-5.67-.732c-4.43-.572-5.67-.304-5.67 1.23 0 1.08-2.78 6.08-6.18 11.1-6 8.88-10.1 14.1-7.77 9.82zm-62.1-7.53c4.1-7.49 8.92-12.5 12.1-12.5 6.02 0-.371-7.83-9.7-11.9-9.33-4.05-14.8-12.1-11.7-17.1 1.28-2.04 1.36-1.95.637.705-1.25 4.56 2.31 8.93 12.7 15.6 5.07 3.25 10.1 7.58 11.1 9.62 2.3 4.48 5.42 18.9 4.33 20-.431.431-.796-.367-.812-1.77-.048-4.19-5.02-13.9-7.13-13.9-1.07 0-4.21 3.15-6.96 7-6.79 9.48-8.19 10.7-4.57 4.14zm-31.1-10c-.758-1.42-2.73-2.83-4.38-3.15-2.73-.526-2.69-.594.450-.760 2.49-.131 3.88.750 4.97 3.15 1.78 3.91.966 4.51-1.04.760zm-21-1.02c1.3-.338 3.1-.316 4 .0495.903.365-.159.642-2.36.615-2.2-.0272-2.94-.326-1.64-.664zm7.31-1.29c.917-.370 2.42-.370 3.33 0 .917.370.167.673-1.67.673-1.83 0-2.58-.303-1.67-.673zm12.3-5.7c0-.690.593-1.62 1.32-2.07.756-.467.979.0681.524 1.25-.886 2.31-1.84 2.73-1.84.815zm6-5.41c1.33-1.47 2.71-2.67 3.08-2.67.367 0-.419 1.2-1.75 2.67s-2.71 2.67-3.08 2.67c-.367 0 .419-1.2 1.75-2.67zm45.1-3.27c0-1.07.5-1.63 1.11-1.25.611.378 1.12-.0987 1.13-1.06.0139-1.18.335-1.28 1-.281 1.43 2.14 5.95 1.41 11.5-1.85 7.06-4.16 5.93-2.25-1.42 2.42-6.74 4.27-13.3 5.27-13.3 2.03zm-6.44-1.85c-2.2-1.35-4.9-3.57-6-4.94-1.67-2.08 5.12 2.24 9.93 6.32 2.18 1.85.232 1.16-3.93-1.38zm50.6-1.63c-.483-.782-.593-1.71-.243-2.06.349-.350.991.290 1.42 1.42.902 2.35.133 2.76-1.18.635zm-11.1-6.58c0-1.83.303-2.58.673-1.67.370.917.370 2.42 0 3.33-.370.917-.673.167-.673-1.67zm2.56-.778c.064-1.55.380-1.87.806-.806.385.962.338 2.11-.105 2.56-.443.443-.758-.344-0.7-1.75zm5.33-2.67c.064-1.55.380-1.87.806-.806.385.962.338 2.11-.105 2.56-.443.443-.758-.344-0.7-1.75zm-102-72c-1.24-2.39-4.52-11.9-7.3-21-2.77-9.18-5.43-17.9-5.89-19.4-.554-1.75-.189-1.52 1.06.667 1.84 3.21 6.3 16.3 11 32.4 1.25 4.24 2.7 7.97 3.22 8.29 1.72 1.06-3.43-27.5-6.31-35-.523-1.36-.285-1.81.655-1.22 1.59.984 1.06-1.41-2.84-12.9-2.88-8.43-2.79-9.38.678-7.52 2.82 1.51 2.84 1.41 1.92-6.71-.513-4.53-1.25-9.05-1.63-10.1-.484-1.26.0924-1.61 1.89-1.14 2.99.781 4.24-2.39 4.27-10.8.0142-4.1.374-4.91 1.62-3.67 3.45 3.45 5.45 1.86 4.7-3.73-.757-5.64.247-6.69 3.11-3.24 1.55 1.87 1.94 1.72 3.54-1.33 2.09-3.99 3.92-4.27 8.22-1.26 3.33 2.33 14.9 6.19 15.8 5.28.305-.305-.142-1.86-.995-3.45-1.95-3.64-1.22-4.39 2.82-2.9 1.75.646 4.91 1.59 7.03 2.11 3.45.836 3.76.640 3.1-1.91-.951-3.63-.0359-3.27 13 5.25 5.75 3.75 10.7 6.61 10.9 6.34.265-.265-.450-2.71-1.59-5.44l-2.07-4.96 5.03 3.42c5.58 3.79 9.32 4.38 9.98 1.57.309-1.33 2.6-.399 8.1 3.28 6.15 4.11 7.68 4.68 7.72 2.85.0349-1.59 1.39-.710 4.49 2.91 4.34 5.06 7.46 5.58 7.46 1.24 0-4 3.6.711 5.37 7.02.947 3.38 2.11 5.4 2.63 4.55 1.01-1.64 5.34 12.3 5.34 17.2 0 1.65.596 2.62 1.33 2.17.791-.489 1.33 1.06 1.33 3.81 0 2.55.624 4.84 1.39 5.1.898.299.663 2.51-.667 6.28-2.46 6.97-2.48 7.24-.509 6.02 1.1-.680 1.25-.0340.516 2.25-.565 1.76-.997 4.71-.961 6.54.0367 1.83-.771 6.61-1.79 10.6-1.02 4-1.6 7.54-1.29 7.85.955.955 3.4-6.48 6.07-18.5 3.06-13.7 3.28-27 .582-34.7-2.56-7.27-2.46-8.37.309-3.33 3.6 6.54 3.85 25.7.518 39.7-2.7 11.3-6.79 21.3-9.41 22.9-2.31 1.43-3.91-8.87-5.08-32.7-.961-19.7-1.57-24.2-3.81-28-3.1-5.31-4.79-5.91-22.2-7.81-9.49-1.04-16.8-2.89-27.3-6.9-13.4-5.1-15.1-5.44-25-4.93-8.95.459-12 1.27-19.1 5.06-5.39 2.87-8.96 5.75-9.84 7.92-.757 1.88-1.64 14.8-1.97 28.7-.761 32.6-4.03 45.1-9.2 35.1zm125-24.4.0392-2.67-1.15 2.67c-.630 1.47-1.13 4.17-1.11 6l.0392 3.33 1.07-3.33c.587-1.83 1.09-4.53 1.11-6zm-.224-14.3c-.370-.917-.673-.167-.673 1.67 0 1.83.303 2.58.673 1.67.370-.917.370-2.42 0-3.33zm1.33-6.67c-.370-.917-.673-.167-.673 1.67 0 1.83.303 2.58.673 1.67.370-.917.370-2.42 0-3.33zm-123-1.25c-.426-1.06-.742-.748-.806.806-.0579 1.41.257 2.19 0.7 1.75.443-.443.490-1.59.105-2.56zm-1.72-7.67c-.462-2.89-.167-7.19.657-9.55.823-2.36 1.24-4.56.917-4.88-1.4-1.4-3.7 10.5-2.88 14.9 1.22 6.51 2.35 6.12 1.3-.459zm115-13c-.456-.739-2.59-2.25-4.75-3.37-5.53-2.86-25.7-9.9-24.3-8.47.652.652 5.98 2.86 11.8 4.91 5.86 2.05 12.1 4.75 13.9 6 3.72 2.61 4.48 2.82 3.31.926zm-42-14.1c-18.8-8.15-20-8.6-20-7.77 0 .815 21.6 11 26.7 12.6 8.94 2.8 5.93.611-6.67-4.84zm-63.3 2.11c-3.67-1.58-5.77-1.58-3.33 0 1.1.711 2.9 1.26 4 1.22 1.32-.0483 1.09-.464-.667-1.22zm9.33-5.33c-1.47-.630-3.57-1.15-4.67-1.15-1.26 0-1.01.424.667 1.15 1.47.630 3.57 1.15 4.67 1.15 1.26 0 1.01-.424-.667-1.15zm26.2-1.33c-6.4-1.51-22.3-3.09-21.4-2.11 1.01 1.03 15 3.11 21.2 3.14l4.67.0261-4.47-1.06zm-15.6 79.8 3.49-4.15-3.44-4.51c-3.23-4.23-3.28-4.51-.799-4.51 1.47 0 3.02 1.18 3.49 2.67.466 1.47 1.76 2.67 2.88 2.67s2.35-1.2 2.73-2.67c0.4-1.53 1.82-2.67 3.33-2.67 2.44 0 2.38 0.3-.831 4.11-3.6 4.28-3.51 5.23.988 10.2 2.46 2.73 2.49 3 .349 3-1.29 0-3.47-1.35-4.83-3l-2.48-3-2.14 3c-1.18 1.65-3.06 3-4.19 3-1.52 0-1.16-1.05 1.45-4.15zm54.6.261c3.91-4.08 3.81-5.1-.994-10.4-2.46-2.73-2.49-3-.349-3 1.29 0 3.5 1.35 4.9 3l2.55 3 2.55-3c1.4-1.65 3.27-3 4.16-3 1.1 0 .916.962-.566 3-3.73 5.13-3.81 6.12-.844 10.3 2.3 3.23 2.47 4.05.867 4.05-1.11 0-2.98-1.35-4.16-3l-2.14-3-2.48 3c-1.36 1.65-3.54 3-4.85 3-1.96 0-1.72-.673 1.36-3.89zm-100-47c-1.56-4.18-2.61-7.83-2.33-8.12.285-.285 1.82 2.88 3.41 7.04 1.59 4.15 2.64 7.81 2.33 8.12-.311.311-1.84-2.86-3.41-7.04zm141-22.9c-.509-11.2-8.72-20.1-26.1-28.5-5.94-2.87-9.3-4.83-7.47-4.35 7.16 1.88 19.8 8.75 25.7 14 6.65 5.86 9.59 12.5 8.59 19.3l-.585 3.98zm-135-7c1.94-4.08 2.56-4.84 2.56-3.14 0 .715-.933 2.47-2.07 3.89-1.96 2.44-1.98 2.4-.486-.745zm2.56-5.82c0-2.26 3.79-9.68 5.79-11.3 1.43-1.18.950.460-1.35 4.67-4.03 7.36-4.44 7.97-4.44 6.67zm22.4-20.4c.962-.385 2.11-.338 2.56.105.443.443-.344.758-1.75 0.7-1.55-.0640-1.87-.380-.806-.806zm14.9-3.02c5.5-1.44 11.5-2.6 13.3-2.57 3.57.0597-9.17 3.21-18 4.45-2.93.412-.833-.433 4.67-1.88zm30 1.28c-.467-.756.0681-.979 1.25-.524 2.31.886 2.73 1.84.815 1.84-.690 0-1.62-.593-2.07-1.32z" fill="#3c2e2c"/>
  <path d="m132 260c0-4.77.242-6.72.538-4.33.296 2.38.296 6.28 0 8.67-.296 2.38-.538.433-.538-4.33zm3.07-2.67c1.01-14.8 3.85-27.3 7.27-32.1 1.51-2.12 5.55-5.45 8.98-7.4 3.44-1.96 7.89-5.06 9.9-6.91 2.01-1.84 3.97-3.03 4.37-2.64.789.789-6.11 6.89-15.3 13.5-6.18 4.47-8.29 7.59-5.11 7.59 2.17 0 6.28 4.24 9.69 10 1.59 2.69.520 1.92-3.26-2.33-3.1-3.48-6.21-6.33-6.92-6.33s-2.76 3.15-4.55 7c-2.53 5.43-3.27 9.24-3.29 17-.0184 5.5-.611 10.9-1.32 12-.847 1.32-1.02-1.85-.508-9.33zm114 9.33c-.0585-1.1-1.82-5.6-3.91-10-3.93-8.27-14.6-19.5-20.1-21.3-1.65-.524-2.69-1.26-2.32-1.63 1.57-1.57 14.9 7.32 19 12.7 4.65 6.09 9.26 17.8 8.12 20.6-.456 1.13-.705 1.02-.777-.339zm-231-2c-.0264-1.26 1.15-5.48 2.61-9.39 4.54-12.1 16.6-21.2 30.7-23 5.8-.733 5.76-.702-1.39 1.3-16.8 4.71-23.9 11-29.3 26-1.44 4.03-2.64 6.31-2.67 5.05zm144-12c-1.66-2.11-1.61-2.16.503-.503 1.28 1.01 2.33 2.06 2.33 2.33 0 1.1-1.09.391-2.84-1.83zm-68.4-1.28c-.724-1.9-.570-2.05.746-.746.911.904 1.32 1.98.910 2.39-.411.411-1.16-.329-1.66-1.64zm80-1.72c.605-1.1 3.69-5.82 6.86-10.5 6.94-10.2 7.19-13.8 1.43-20.2-2.73-3.01-2.26-2.71 1.27.796 3.12 3.11 7.84 6.21 10.7 7l5.07 1.43-5.67-.732c-4.43-.572-5.67-.304-5.67 1.23 0 1.08-2.78 6.08-6.18 11.1-6 8.88-10.1 14.1-7.77 9.82zm-62.1-7.53c4.1-7.49 8.92-12.5 12.1-12.5 6.02 0-.371-7.83-9.7-11.9-9.33-4.05-14.8-12.1-11.7-17.1 1.28-2.04 1.36-1.95.637.705-1.25 4.56 2.31 8.93 12.7 15.6 5.07 3.25 10.1 7.58 11.1 9.62 2.3 4.48 5.42 18.9 4.33 20-.431.431-.796-.367-.812-1.77-.048-4.19-5.02-13.9-7.13-13.9-1.07 0-4.21 3.15-6.96 7-6.79 9.48-8.19 10.7-4.57 4.14zm-31.1-10c-.758-1.42-2.73-2.83-4.38-3.15-2.73-.526-2.69-.594.450-.760 2.49-.131 3.88.750 4.97 3.15 1.78 3.91.966 4.51-1.04.760zm-21-1.02c1.3-.338 3.1-.316 4 .0495.903.365-.159.642-2.36.615-2.2-.0272-2.94-.326-1.64-.664zm7.31-1.29c.917-.370 2.42-.370 3.33 0 .917.370.167.673-1.67.673-1.83 0-2.58-.303-1.67-.673zm12.3-5.7c0-.690.593-1.62 1.32-2.07.756-.467.979.0681.524 1.25-.886 2.31-1.84 2.73-1.84.815zm6-5.41c1.33-1.47 2.71-2.67 3.08-2.67.367 0-.419 1.2-1.75 2.67s-2.71 2.67-3.08 2.67c-.367 0 .419-1.2 1.75-2.67zm89.3-6.76c-.483-.782-.593-1.71-.243-2.06.349-.350.991.290 1.42 1.42.902 2.35.133 2.76-1.18.635zm-11.1-6.58c0-1.83.303-2.58.673-1.67.370.917.370 2.42 0 3.33-.370.917-.673.167-.673-1.67zm2.56-.778c.064-1.55.380-1.87.806-.806.385.962.338 2.11-.105 2.56-.443.443-.758-.344-0.7-1.75zm5.33-2.67c.064-1.55.380-1.87.806-.806.385.962.338 2.11-.105 2.56-.443.443-.758-.344-0.7-1.75zm-102-73c-1.43-2.79-3.52-8.64-4.65-13s-3.59-12.4-5.45-17.9c-1.87-5.47-2.85-9.37-2.18-8.67 1.32 1.4 9.49 24.7 9.49 27.1 0 .802 1.31 4.93 2.91 9.18 2.63 6.97 3.01 7.4 3.87 4.38 1.64-5.74 1.26-28.3-.616-36.3-1.16-4.94-1.32-7.78-.449-8.07.879-.293.772-2.83-.307-7.33-1.98-8.26.0201-17.1 3.57-15.7 1.7.653 1.93-.204 1.38-5.13l-.667-5.91 4.49.729c4.88.792 5.26.301 3-3.91-1.38-2.57-1.21-2.72 2.33-1.94 9.43 2.05 10.4 2.21 8.49 1.41-2.86-1.22-8-6.08-8-7.57 0-.698.788-.610 1.76.196 2.3 1.91 16.5 5.05 28 6.2l9.11.905-2.42-3.69-2.42-3.69 5.98 3.45c7.88 4.56 21.7 10.3 30 12.5l6.67 1.75-4-3.37-4-3.37 5.33 2.58c2.93 1.42 8.76 3.64 12.9 4.93 4.18 1.29 8.63 3.48 9.87 4.86 3.06 3.39 4.87 3.15 3.89-.498-.587-2.19-.184-1.92 1.49 1 1.31 2.28 2.33 6.96 2.38 10.9.0724 5.73.398 6.63 1.95 5.34 1.75-1.45 1.65 3.15-.319 15.8-.115.733.511 1.19 1.39 1.02 1.2-.233 1.14.986-.215 4.83-1.72 4.88-2.53 10.4-2.17 14.8.144 1.78.314 1.78 1.53 0 1.6-2.33.262 10.1-1.42 13.2-1.44 2.69-2.39-5.12-3.32-27.2-1.38-33.1-2.85-35.7-20.9-37.2-13.2-1.09-17.7-2.19-34.3-8.37-17.8-6.6-27.3-6.55-41 .216-7.02 3.47-10.3 5.93-11.3 8.45-.790 1.96-1.83 15.9-2.32 30.9-.678 21-1.39 28.5-3.09 32.3-1.21 2.75-2.52 5-2.91 5-.389 0-1.87-2.29-3.3-5.08zm126-.555c4.4-8.04 7.66-22.1 8.73-37.7l.915-13.3 0.2 11.3c.287 16.3-6.26 41.3-11.7 44.6-.702.434.127-1.78 1.84-4.91zm-94.7-3.65 3.78-3.95-3.6-4.72c-3.24-4.25-3.35-4.72-1.08-4.72 1.42 0 3.21 1.51 4.1 3.47 1.3 2.86 1.93 3.18 3.55 1.84 1.08-.898 1.97-2.46 1.97-3.47s1.3-1.84 2.9-1.84h2.9l-2.7 3c-4.81 5.34-4.9 6.36-.994 10.4 3.08 3.22 3.32 3.89 1.36 3.89-1.3 0-3.48-1.35-4.85-3l-2.48-3-2.14 3c-1.18 1.65-3.12 3-4.32 3-1.65 0-1.26-.956 1.61-3.95zm54.7.294c4.17-4.5 4.17-4.54-.0645-9.58-2.83-3.36-3.05-4.1-1.21-4.1 1.23 0 3.38 1.35 4.79 3l2.55 3 2.55-3c4.05-4.76 6.15-3.5 2.39 1.43l-3.38 4.43 3.32 4.24c2.52 3.22 2.83 4.24 1.3 4.24-1.11 0-2.99-1.35-4.17-3l-2.14-3-2.48 3c-1.36 1.65-3.46 3-4.65 3-1.71 0-1.46-.773 1.21-3.65zm-100-46.4c-.821-2.36-1.26-4.52-.975-4.8.285-.285 1.19 1.41 2.01 3.77.821 2.36 1.26 4.52.975 4.8-.3.3-1.2-1.4-2-3.8zm148-2c-.0579-.857-.451-2.66-.873-4-.729-2.32-.692-2.32.761-.0588.841 1.31 1.23 3.11.873 4-.473 1.17-.685 1.18-.761.0588zm-7-24.5c-.388-8-9.72-17.9-22.6-23.9-3.79-1.77-6.65-3.47-6.36-3.76 1.2-1.2 15.5 6.71 21.2 11.7 6.07 5.34 9.67 12.5 8.52 16.9-.419 1.61-.663 1.3-.773-.989zm-130-16.9c0-.742 1.35-2.49 3-3.89l3-2.54-2.65 3.33c-1.46 1.83-2.81 3.58-3 3.89-.191.306-.348-.0514-.348-.793zm26.4-14.6c.917-.370 2.42-.370 3.33 0 .917.370.167.673-1.67.673-1.83 0-2.58-.303-1.67-.673zm6.75-1.36c.962-.385 2.11-.338 2.56.105.443.443-.344.758-1.75 0.7-1.55-.0640-1.87-.380-.806-.806zm5.33-1.33c.962-.385 2.11-.338 2.56.105.443.443-.344.758-1.75 0.7-1.55-.0640-1.87-.380-.806-.806zm5.25-1.31c.917-.370 2.42-.370 3.33 0 .917.370.167.673-1.67.673-1.83 0-2.58-.303-1.67-.673z" fill="#06334a"/>
  <path d="m70.3 127c-1.43-2.79-3.52-8.64-4.65-13s-3.59-12.4-5.45-17.9c-1.87-5.47-2.85-9.37-2.18-8.67 1.32 1.4 9.49 24.7 9.49 27.1 0 .802 1.31 4.93 2.91 9.18 2.63 6.97 3.01 7.4 3.87 4.38 1.64-5.74 1.26-28.3-.616-36.3-1.16-4.94-1.32-7.78-.449-8.07.879-.293.772-2.83-.307-7.33-1.98-8.26.0201-17.1 3.57-15.7 1.7.653 1.93-.204 1.38-5.13l-.667-5.91 4.49.729c4.88.792 5.26.301 3-3.91-1.38-2.57-1.21-2.72 2.33-1.94 9.43 2.05 10.4 2.21 8.49 1.41-2.86-1.22-8-6.08-8-7.57 0-.698.788-.610 1.76.196 2.3 1.91 16.5 5.05 28 6.2l9.11.905-2.42-3.69-2.42-3.69 5.98 3.45c7.88 4.56 21.7 10.3 30 12.5l6.67 1.75-4-3.37-4-3.37 5.33 2.58c2.93 1.42 8.76 3.64 12.9 4.93 4.18 1.29 8.63 3.48 9.87 4.86 3.06 3.39 4.87 3.15 3.89-.498-.587-2.19-.184-1.92 1.49 1 1.31 2.28 2.33 6.96 2.38 10.9.0724 5.73.398 6.63 1.95 5.34 1.75-1.45 1.65 3.15-.319 15.8-.115.733.511 1.19 1.39 1.02 1.2-.233 1.14.986-.215 4.83-1.72 4.88-2.53 10.4-2.17 14.8.144 1.78.314 1.78 1.53 0 1.6-2.33.262 10.1-1.42 13.2-1.44 2.69-2.39-5.12-3.32-27.2-1.38-33.1-2.85-35.7-20.9-37.2-13.2-1.09-17.7-2.19-34.3-8.37-17.8-6.6-27.3-6.55-41 .216-7.02 3.47-10.3 5.93-11.3 8.45-.790 1.96-1.83 15.9-2.32 30.9-.678 21-1.39 28.5-3.09 32.3-1.21 2.75-2.52 5-2.91 5-.389 0-1.87-2.29-3.3-5.08zm126-.555c4.4-8.04 7.66-22.1 8.73-37.7l.915-13.3 0.2 11.3c.287 16.3-6.26 41.3-11.7 44.6-.702.434.127-1.78 1.84-4.91zm-94.7-3.65 3.78-3.95-3.6-4.72c-3.24-4.25-3.35-4.72-1.08-4.72 1.42 0 3.21 1.51 4.1 3.47 1.3 2.86 1.93 3.18 3.55 1.84 1.08-.898 1.97-2.46 1.97-3.47s1.3-1.84 2.9-1.84h2.9l-2.7 3c-4.81 5.34-4.9 6.36-.994 10.4 3.08 3.22 3.32 3.89 1.36 3.89-1.3 0-3.48-1.35-4.85-3l-2.48-3-2.14 3c-1.18 1.65-3.12 3-4.32 3-1.65 0-1.26-.956 1.61-3.95zm54.7.294c4.17-4.5 4.17-4.54-.0645-9.58-2.83-3.36-3.05-4.1-1.21-4.1 1.23 0 3.38 1.35 4.79 3l2.55 3 2.55-3c4.05-4.76 6.15-3.5 2.39 1.43l-3.38 4.43 3.32 4.24c2.52 3.22 2.83 4.24 1.3 4.24-1.11 0-2.99-1.35-4.17-3l-2.14-3-2.48 3c-1.36 1.65-3.46 3-4.65 3-1.71 0-1.46-.773 1.21-3.65zm-100-46.4c-.821-2.36-1.26-4.52-.975-4.8.285-.285 1.19 1.41 2.01 3.77.821 2.36 1.26 4.52.975 4.8-.3.3-1.2-1.4-2-3.8zm148-2c-.0579-.857-.451-2.66-.873-4-.729-2.32-.692-2.32.761-.0588.841 1.31 1.23 3.11.873 4-.473 1.17-.685 1.18-.761.0588zm-7-24.5c-.388-8-9.72-17.9-22.6-23.9-3.79-1.77-6.65-3.47-6.36-3.76 1.2-1.2 15.5 6.71 21.2 11.7 6.07 5.34 9.67 12.5 8.52 16.9-.419 1.61-.663 1.3-.773-.989zm-130-16.9c0-.742 1.35-2.49 3-3.89l3-2.54-2.65 3.33c-1.46 1.83-2.81 3.58-3 3.89-.191.306-.348-.0514-.348-.793zm26.4-14.6c.917-.370 2.42-.370 3.33 0 .917.370.167.673-1.67.673-1.83 0-2.58-.303-1.67-.673zm6.75-1.36c.962-.385 2.11-.338 2.56.105.443.443-.344.758-1.75 0.7-1.55-.0640-1.87-.380-.806-.806zm5.33-1.33c.962-.385 2.11-.338 2.56.105.443.443-.344.758-1.75 0.7-1.55-.0640-1.87-.380-.806-.806zm5.25-1.31c.917-.370 2.42-.370 3.33 0 .917.370.167.673-1.67.673-1.83 0-2.58-.303-1.67-.673z" fill="#2e201d"/>
 </g>
</svg>
