<?xml version="1.0" encoding="UTF-8" standalone="no"?>
<svg xmlns:rdf="http://www.w3.org/1999/02/22-rdf-syntax-ns#" xmlns="http://www.w3.org/2000/svg" height="267" viewBox="0 0 266.66666 266.66666" width="267" version="1.1" xmlns:cc="http://creativecommons.org/ns#" xmlns:dc="http://purl.org/dc/elements/1.1/">
 <g stroke-width="1.33">
  <path d="m18.5 261c1.12-7.02 6.19-16.9 11-21.5 6.24-5.91 17.5-10.2 33.2-12.6l14.5-2.25 6.34-6.76c3.93-4.2 7.45-9.72 9.25-14.6 1.6-4.29 3.68-8.09 4.6-8.44 1.13-.432-.344-3.26-4.4-8.49-3.74-4.81-7.5-11.9-9.75-18.2-2.87-8.16-4.27-10.5-6.52-10.8-1.91-.287-4.2-2.94-6.91-8-2.22-4.16-5.65-10.3-7.61-13.6-2.93-4.92-3.57-7.64-3.59-15.1-.0194-7.78.404-9.46 2.89-11.5l2.92-2.37-3.33-10.5c-1.83-5.79-4.21-11.9-5.28-13.5-1.75-2.68-1.72-3 .222-3 1.54 0 1.9-.677 1.22-2.33-.523-1.28-1.88-4.98-3.01-8.21-2.05-5.86-2.05-5.88 1.56-8.51 3.17-2.31 3.51-3.25 2.78-7.62-.625-3.7-.344-5.17 1.09-5.72 1.06-.408 3.55-4.98 5.53-10.2 2.44-6.38 4.86-10.3 7.49-12.2 2.14-1.52 3.89-3.62 3.89-4.65 0-2.07 1.69-2.59 15.1-4.63 5-.761 12.5-2.27 16.6-3.34 10.6-2.77 16.3-2.45 24.5 1.36 8.28 3.86 13 4.17 18.7 1.25 3.91-2.02 4.49-1.91 16.9 3.34 22.7 9.58 32.2 19.5 32.2 33.6 0 4.14 1.21 8.68 3.55 13.3 4.2 8.37 5.5 21.7 3.27 33.6-1.32 7.06-1.2 8.14 1.19 11.2 3.57 4.53 3.56 16.4-.0152 23.7-6.28 12.9-12.9 22.7-15.5 23.1-2.02.295-3.33 2.35-5.1 8-3.27 10.4-6.66 16.8-12.3 23-3.73 4.13-4.44 5.68-3.25 7.1.833 1 2.41 4.75 3.5 8.33 1.28 4.21 4.15 8.77 8.13 12.9 5.91 6.16 6.69 6.53 20.3 9.58 23.5 5.24 32.3 9.59 39.6 19.5 3 4.07 8.56 17 8.56 19.9 0 .812-43.1 1.28-118 1.28h-118zm124-82c1.58-1.11 2.79-3.15 2.69-4.53-.156-2.07-.740-2.3-3.34-1.32-1.73.658-5.66 1.28-8.73 1.37l-5.58.176 4.67.982 4.67.982-4.5.176c-3.84.150-4.25.469-2.84 2.18 2.14 2.58 9.26 2.57 13-.0167zm-29.4-54.1c2.06-.784 4.83-2.4 6.14-3.59 2.29-2.07 2.26-2.24-.664-3.86-4.32-2.4-4.83-2.23-5.3 1.74-.891 7.46-11.2 7.81-12.6.432-.864-4.32-3.18-5.11-5.79-1.96-1.33 1.6-1.3 2.43.124 4.15 3.61 4.35 11.3 5.67 18.1 3.09zm57.6.583c5.01-1 7.76-5.04 5.38-7.91-2.13-2.56-3.93-2.42-3.93.314 0 3.17-3.93 7.1-7.1 7.1-3.47 0-7.56-3.72-7.56-6.87 0-2.93-1.12-3.04-4.53-.459-5.94 4.5 6.64 10 17.7 7.82zm-1.21-9.82c0-.733-.635-1.33-1.41-1.33-.777 0-1.04.6-.588 1.33.453.733 1.09 1.33 1.41 1.33.323 0 .588-.6.588-1.33z" fill="#f9c1ad"/>
  <path d="m18.5 261c1.12-7.02 6.19-16.9 11-21.5 6.24-5.91 17.5-10.2 33.2-12.6l14.5-2.25 6.33-6.76c3.71-3.97 7.47-9.79 9.1-14.1 1.53-4.03 3.72-8.06 4.88-8.94 1.85-1.41 1.38-2.42-3.83-8.21-4.44-4.93-6.92-9.49-9.82-18.1-2.86-8.43-4.5-11.5-6.18-11.5-2.57 0-4.28-2.16-11.7-14.8-8.56-14.5-10.1-27.1-4.03-33.1 2.42-2.42 2.4-2.74-.820-12.9-1.82-5.74-4.18-11.8-5.26-13.4-1.73-2.65-1.72-3 .0790-3 2.51 0 2.55.595-.618-8.61l-2.65-7.7 3.4-2.68c2.93-2.31 3.29-3.37 2.56-7.67-.621-3.68-.343-5.18 1.06-5.72 1.05-.401 3.54-4.82 5.54-9.82 5.04-12.6 12.8-19.9 22.4-21.1 3.85-.491 12-2.05 18.1-3.46 14.5-3.35 18.5-3.24 27.1.755 8.31 3.87 13 4.17 18.7 1.21 4.53-2.34 4.69-2.29 25.7 7.6 15.9 7.46 23.2 16.8 23.3 29.4.0189 4.02 1.28 8.71 3.56 13.3 4.27 8.5 5.54 21.5 3.24 33.2-1.46 7.44-1.38 8.32 1.16 11.5 4.88 6.21 3.24 21-3.32 29.8-1.88 2.54-4.54 7.14-5.92 10.2-1.7 3.82-3.57 5.89-5.86 6.46-2.74.687-3.91 2.49-6.28 9.72-3.84 11.7-5.76 15.3-11.5 21.6-3.71 4.11-4.42 5.66-3.24 7.08.833 1 2.41 4.75 3.5 8.33 1.28 4.21 4.15 8.77 8.14 12.9 5.8 6.05 6.87 6.58 18.3 9.05 23.5 5.06 35.6 10.9 41.9 20.3 3 4.46 8.26 16.9 8.26 19.5 0 .860-40.9 1.32-118 1.32h-116zm124-82c1.12-1.28 2.01-3.31 1.98-4.5-.0381-1.83-.772-1.96-4.7-.879-2.56.707-6.36 1.03-8.44.729-2.08-.306-3.79-.0602-3.79.546s1.95 1.2 4.33 1.32l4.33.213-4.33.538c-2.38.296-4.33 1.05-4.33 1.68 0 3.29 12.1 3.58 14.9.360zm2.38-9.71c.001-.389-1.8-1.39-4-2.22-4.21-1.59-5.36-5.3-2.04-6.58 1.08-.413 4.71 0.3 8.08 1.59 5.86 2.24 6.21 2.23 8.38-.0613 1.66-1.76 1.72-2.1.258-1.29-1.7.945-1.74.786-.228-1.08 2.69-3.32 1.69-14.3-1.65-18.2-1.54-1.78-1.89-2.71-.784-2.08 1.72.978 1.75.824.182-1.1-1-1.23-2.36-1.9-3.03-1.49-.668.413-1.05.256-.849-.348.202-.605-.234-1.29-.967-1.53-.733-.236-2.38-1.38-3.67-2.54-1-1-2-1-2-1 0 .627-.692.448-1.54-.398-1.06-1.06-2.31-1.13-4-.220-2.06 1.1-2.46 2.96-2.46 11.3v9.95h9.94l-4.18 4.18-4.18 4.18-4.13-2.94c-4.7-3.35-4.94-5.22-2.08-16.3 1.13-4.35 1.72-8.43 1.33-9.07-1.16-1.87-4.49-.815-7.45 2.37-1.51 1.62-3.41 2.55-4.21 2.05-.819-.506-1.08-.293-.602.486.472.764-.0354 2.13-1.13 3.04-1.09.906-1.99 2.51-1.99 3.56s-.547 1.58-1.22 1.16c-1.38-.854-1.21 1.8.276 4.17.541.866.345 1.97-.436 2.45-.999.617-.986 1.4.043 2.64 1.06 1.28 1.06 2.01-.0221 2.68-1.03.639-.850 1.62.605 3.23 1.15 1.27 1.74 2.66 1.3 3.1-1.21 1.21 4.97.174 9.34-1.56 4.78-1.9 7.44-1.03 7.44 2.41 0 1.81-1.22 2.87-4 3.48-6.94 1.52-4.37 2.67 6 2.67 5.5 0 10-.318 10-.708zm-31.7-44c7.13-1.98 8.62-5.47 3.6-8.44l-3.92-2.31v3.81c0 4.49-2.14 7.02-5.93 6.99-4.21-.0315-6.25-1.9-7.21-6.61l-.882-4.31-3.16 2.56c-2.67 2.16-2.93 3-1.65 5.38 2.19 4.08 10.5 5.35 19.2 2.94zm59.5-.0647c4.65-1.62 5.34-4.4 1.99-8.1-2.9-3.21-4.38-3.09-3.5.272.897 3.43-3.06 7.96-6.96 7.96s-7.86-4.53-6.96-7.96c.868-3.32-.0004-3.38-4.63-.325-4.24 2.8-3.49 4.7 2.97 7.5 5.55 2.41 11.4 2.63 17.1.646zm-61.1-9.2c0-.733-.635-1.33-1.41-1.33-.777 0-1.04.6-.588 1.33.453.733 1.09 1.33 1.41 1.33.323 0 .588-.6.588-1.33zm57.3 0c0-.733-.635-1.33-1.41-1.33-.777 0-1.04.6-.588 1.33.453.733 1.09 1.33 1.41 1.33.323 0 .588-.6.588-1.33zm-28-14c.733-.433 2.44-.611 3.79-.394s2.1.0376 1.66-.398c-1.27-1.27 3.42-5.7 5.06-4.76.819.467 1.04.351.486-.257-.552-.608-.0779-2.13 1.05-3.38 2.77-3.06 3.39-11 1.19-15.2-.985-1.9-1.22-3.1-.514-2.66 2.63 1.63 1.11-.324-4.25-5.43-3.04-2.9-5.03-4.37-4.41-3.27.990 1.77.839 1.77-1.31.0280-3.04-2.47-13.7-2.77-15.6-.448-.787.948-1.88 1.45-2.42 1.11-.544-.336-2.43.967-4.18 2.9-1.76 1.93-2.29 3.01-1.19 2.41 1.1-.603.5.597-1.33 2.67s-2.49 3.27-1.46 2.68c1.4-.811 1.57-.611.667.785-1.65 2.56-1.76 9.51-.176 11.5.713.917.806 1.67.205 1.67-0.6 0 .837 1.99 3.19 4.42 2.36 2.43 3.95 4.76 3.53 5.18-.415.415 1.08.598 3.33.407s4.35.0882 4.68.621c.689 1.11 6.05 1.01 8.03-.158z" fill="#f8bca6"/>
  <path d="m18.5 261c1.12-7.02 6.19-16.9 11-21.5 6.24-5.91 17.5-10.2 33.2-12.6l14.5-2.25 6.33-6.76c3.71-3.97 7.47-9.79 9.1-14.1 1.53-4.03 3.73-8.06 4.9-8.96 1.88-1.44 1.58-2.23-2.68-6.94-5.67-6.27-9.05-12.6-12.3-23.1-1.72-5.49-3.06-7.67-4.73-7.67-2.44 0-7.85-5.91-7.85-8.58 0-.857-1.86-4.09-4.14-7.19-5.76-7.84-7.97-15.9-6.64-24.2.587-3.71 2.04-7.48 3.24-8.37 1.99-1.48 1.88-2.53-1.22-12.3-1.87-5.87-4.27-12-5.35-13.7-1.73-2.65-1.72-3 .0790-3 2.51 0 2.55.595-.618-8.61l-2.65-7.7 3.4-2.68c2.93-2.31 3.29-3.37 2.56-7.67-.621-3.68-.343-5.18 1.06-5.72 1.05-.401 3.54-4.82 5.54-9.82 5.04-12.6 12.8-19.9 22.4-21.1 3.85-.491 12-2.05 18.1-3.46 14.5-3.35 18.5-3.24 27.1.755 8.31 3.87 13 4.17 18.7 1.21 4.53-2.34 4.69-2.29 25.7 7.6 15.9 7.46 23.2 16.8 23.3 29.4.0189 4.02 1.28 8.71 3.56 13.3 4.28 8.52 5.54 21.5 3.22 33.3-1.41 7.16-1.34 8.44.602 10.6 5.09 5.62 3.5 22.3-2.92 30.9-1.85 2.45-4.47 6.98-5.83 10.1-1.66 3.77-3.54 5.89-5.74 6.44-2.64.663-3.96 2.77-6.89 11-3.71 10.5-6.55 15.5-12.4 21.8-2.62 2.86-2.99 4.01-1.76 5.5.857 1.03 2.45 4.8 3.54 8.38 1.28 4.21 4.15 8.77 8.14 12.9 5.8 6.05 6.87 6.58 18.3 9.05 23.5 5.06 35.6 10.9 41.9 20.3 3 4.46 8.26 16.9 8.26 19.5 0 .860-40.9 1.32-118 1.32h-116zm116-10c-.426-1.06-.742-.748-.806.806-.0579 1.41.257 2.19 0.7 1.75.443-.443.490-1.59.105-2.56zm2.16-13c1-8.45 5.01-16.3 10.6-20.6l4.37-3.43-5.33 1.47c-2.99.823-9.86 1.16-15.6.772l-10.3-.698 3.94 3.32c3.87 3.26 6.6 10.3 8.58 22.1 1.11 6.63 2.8 5.33 3.78-2.91zm-25.7-56.6c0-9.51.526-14.3 1.68-15.2 2.83-2.35 16.9-7.16 18.3-6.27 3.35 2.07 1.23 5.62-4.32 7.25-10.7 3.13-11.7 4.35-11.7 14.6 0 7.27.513 9.56 2.56 11.4 3.19 2.89 6.21 1.51 11.3-5.17 1.98-2.6 4.35-4.73 5.26-4.73s4.3 2.7 7.54 6 6.63 6 7.54 6c3.31 0 5.8-5.84 5.8-13.6 0-6.12-.593-8.3-2.89-10.6l-2.89-2.89-1.19 3.22c-2.3 6.24-7.77 10.6-13.4 10.6-4.3 0-6.14-.947-10.8-5.52l-5.56-5.52 3.99.962c2.19.529 4.29 1.46 4.67 2.07.376.609 2.48 1.37 4.68 1.69l4 .587-4.33 0.2c-4.58.211-5.77 2.03-2.22 3.39 4.33 1.66 10.8.787 13.1-1.77 3.52-3.89 1.46-5.49-6.34-4.91-3.81.279-5.42.244-3.59-.0785 8-1 14-3 14-4 0-.599-1.9-1.63-4.23-2.3-4.66-1.34-5.68-2.86-3.85-5.75 1.32-2.09 6.32-.931 16.1 3.71l4.67 2.22.378 14.3c.208 7.88.918 14.3 1.58 14.3 2.58 0 14.6-13.3 17.9-19.7 4.56-9 14.5-44.2 13.4-47.6-.456-1.47-1.31-13.8-1.89-27.3-1.07-25-2.45-31.9-7.13-35.8-1.21-1-7.98-2.29-15.5-2.94-8.55-.743-16.8-2.42-23.1-4.67-27-10.4-34-10.9-47.6-4.6-12.9 5.94-12.9 6.05-14.7 25.7-1.75 19.7-.908 28.1 2.66 26.7 1.24-.493 6.91-2.09 12.6-3.54 9.77-2.5 10.7-2.53 16.8-.493 6.8 2.26 11.6 6.29 10.2 8.54-.450.729-.209 1.7.536 2.16 2.93 1.81 1.41 8.4-2.75 11.9-3.52 2.97-5.36 3.45-13 3.43-4.89-.0112-9.59-.461-10.4-1-.847-.539 2.18-.980 6.73-.980 5.67 0 9.4-.743 11.9-2.36 4.58-3 4.53-3.85-.392-6.76l-4-2.36v3.81c0 4.57-2.14 7.01-6.17 7.01-3.96 0-7.16-3.4-7.16-7.59 0-3.24-.142-3.3-3-1.37-1.65 1.12-2.92 2.99-2.81 4.16.284 3.27-1.17 2.57-5.21-2.49l-3.69-4.62 3.84-1.99c3.12-1.61 17.4-4.72 21.9-4.76.593-.006.661-.686.151-1.51-1.03-1.66-9.98-1.03-21.6 1.52-6.51 1.43-7 1.81-7 5.46 0 2.16-1.11 7.09-2.48 11l-2.48 7.05 5.89 20.6c3.24 11.3 7.48 23.5 9.43 27.1 3.32 6.1 15.2 18.2 17.8 18.2.654 0 1.19-6.23 1.19-13.8zm19.4-25.5-3.93-3.21 3.16-13.7c4.45-19.4 5.31-19.9 4.41-2.74l-.783 15h4.2c5 0 5.26 1.2 1.11 5.1-3.74 3.51-3.35 3.53-8.17-.405zm18.3-31.3c-5.25-3.2-6.3-7.03-3.87-14 2.34-6.74 8.06-9.86 18.2-9.92 7.49-.0442 22 2.78 23.7 4.61.516.558-.561.670-2.39.247-7-2-22-3-22-1 0 .754 4.35 2.35 9.67 3.54 13.7 3.07 14.1 3.47 9.56 9.45-2.45 3.22-3.99 4.33-4.35 3.14-.717-2.34-4.32-6.49-5.63-6.49-.551 0-.683 1.22-.293 2.71.897 3.43-3.06 7.96-6.96 7.96s-7.86-4.53-6.96-7.96c.860-3.29.426-3.33-4.42-.471-2.92 1.73-3.52 2.75-2.59 4.48 1.62 3.03 12.2 5.81 18.3 4.83 3.43-.551 4.37-.403 3 .472-3.69 2.35-17.6 1.53-22.3-1.31zm19.6-9.37c0-.733-.635-1.33-1.41-1.33-.777 0-1.04.6-.588 1.33.453.733 1.09 1.33 1.41 1.33.323 0 .588-.6.588-1.33zm-90.7 36.6c0-1.12-.993-4.27-2.21-7-1.21-2.73-2.1-5.45-1.97-6.06.131-.605-.328-.749-1.02-.321-.693.428-2.56-.877-4.15-2.9-2.85-3.62-3.04-7.9-.624-14 .543-1.37.315-2.33-.553-2.33-.812 0-1.52 1.05-1.58 2.33-.0579 1.28-.397 1.62-.753.741-.356-.876-.0073-2.79.776-4.25.815-1.52.912-2.98.226-3.4-4-2.47-2.7 14.1 1.83 23.2 1.64 3.3 3.95 8.25 5.15 11 2.2 5.07 4.88 6.69 4.88 2.96zm119-1.9c.898-2.17 1.46-4.12 1.24-4.33-.214-.215 1.3-3.28 3.37-6.81 3.32-5.67 3.67-7.31 2.98-14-.508-4.92-.345-6.87.469-5.58.953 1.51 1.25 1.11 1.27-1.69.0107-2.02-.510-3.67-1.16-3.67-1.9 0-2.67 4.98-1.9 12.4.617 6.01.314 7.27-2.3 9.59l-3.01 2.67 1.61-3.07c.886-1.69 1.34-4.09 1.02-5.33-.473-1.8-.628-1.71-.751.440-.0851 1.49-1.16 4.14-2.39 5.89s-1.53 2.75-.667 2.22c.860-.532 1.56-.381 1.56.334 0 .716-.615 1.51-1.37 1.76-.752.251-2.22 3.3-3.27 6.78-1.56 5.2-1.59 6.32-.128 6.32.976 0 2.51-1.77 3.41-3.94zm-124-19c-.496-3.68-.806-4.18-1.17-1.9-.458 2.85.366 6.9 1.4 6.9.242 0 .137-2.25-.234-5zm39.9-16.3c0-.733-.635-1.33-1.41-1.33-.777 0-1.04.6-.588 1.33.453.733 1.09 1.33 1.41 1.33.323 0 .588-.6.588-1.33z" fill="#eeac94"/>
  <path d="m18.5 261c1.12-7.02 6.19-16.9 11-21.5 6.24-5.91 17.5-10.2 33.2-12.6l14.5-2.25 6.33-6.76c3.71-3.97 7.47-9.79 9.1-14.1 1.53-4.03 3.73-8.06 4.9-8.96 1.88-1.44 1.58-2.23-2.68-6.94-5.67-6.27-9.05-12.6-12.3-23.1-1.68-5.37-3.08-7.67-4.66-7.67-1.24 0-2.98-.868-3.86-1.93-3.81-4.59-14.4-25.7-14.8-29.4-.766-8.02.220-14.1 2.67-16.3 2.59-2.42 2.59-2.52-.746-13.1-1.85-5.84-4.24-12-5.31-13.6-1.73-2.65-1.72-3 .0790-3 2.51 0 2.55.595-.618-8.61l-2.65-7.7 3.4-2.68c2.93-2.31 3.29-3.37 2.56-7.67-.621-3.68-.343-5.18 1.06-5.72 1.05-.401 3.54-4.82 5.54-9.82 5.04-12.6 12.8-19.9 22.4-21.1 3.85-.491 12-2.05 18.1-3.46 14.5-3.35 18.5-3.24 27.1.755 8.31 3.87 13 4.17 18.7 1.21 4.53-2.34 4.69-2.29 25.7 7.6 15.9 7.46 23.2 16.8 23.3 29.4.0189 4.02 1.28 8.71 3.56 13.3 4.28 8.52 5.54 21.5 3.22 33.3-1.45 7.36-1.37 8.41.822 10.8 4 4.42 3.34 18.8-1.21 26.4-1.97 3.3-5.25 9.17-7.28 13.1-2.31 4.41-4.8 7.33-6.66 7.8-2.15.539-3.59 2.64-5.22 7.62-3.2 9.77-7.88 18.7-12.7 24.2-3.22 3.67-3.82 5.14-2.65 6.54.828.998 2.4 4.74 3.49 8.32 1.28 4.21 4.15 8.77 8.14 12.9 5.8 6.05 6.87 6.58 18.3 9.05 23.5 5.06 35.6 10.9 41.9 20.3 3 4.46 8.26 16.9 8.26 19.5 0 .860-40.9 1.32-118 1.32h-115zm116-10c-.338-1.3-.637-.559-.664 1.64-.0272 2.2.249 3.26.615 2.36.365-.903.387-2.7.0494-4zm2.16-11c1.33-11.3 5.21-18.2 12.9-22.9 7.59-4.72 8.43-5.71 3.07-3.64-4.79 1.86-30.6 1.87-35.3.0203-5.4-2.12-4.47-.899 2.34 3.09 7.19 4.21 10.6 10.2 12.7 22.5.848 4.87 2 8.58 2.55 8.24.554-.342 1.36-3.64 1.8-7.33zm-24-73.1c3.52-2.78 17.4-7.08 18.7-5.79 2.25 2.25-.001 5.15-5.29 6.83-10.4 3.3-11.1 4.26-11.1 15.4 0 9.41.199 10.1 3.38 11.5 3.11 1.42 3.91 1.02 10-4.98l6.62-6.52 6.38 6.28c3.51 3.46 6.91 6.28 7.56 6.28s2.28-.993 3.62-2.21c1.91-1.72 2.44-4.18 2.44-11.3 0-7.85-.395-9.33-2.97-11.1-2.84-1.99-3.07-1.88-5.24 2.35-1.25 2.44-3.36 5.28-4.7 6.31-2 1.55-1.96 1.34.225-1.22 2.64-3.09 2.64-3.1 0-5.16-2.15-1.67-2.21-1.91-.316-1.25 1.28.442 2.33.572 2.33.288s.342-1.41.761-2.5c.534-1.39-.426-2.24-3.22-2.86-4.55-.999-6.23-3.81-3.58-6.01 1.36-1.13 3.84-.661 10.2 1.92 4.61 1.87 8.86 4.15 9.44 5.06.577.909 1.06 8.13 1.07 16.1l.0204 14.4 5.85-4.02c7.62-5.24 12.5-11.1 16.5-20 4.27-9.28 13.7-41.9 12.3-42.8-3-2-5-16-5-31 0-16.2-1.48-27.9-4.2-33.1-1.96-3.76-7.01-5.27-20.8-6.2-8.33-.564-14.4-2.05-25.3-6.17-7.9-2.98-17.7-5.78-21.8-6.21-8.98-.950-19.2 1.73-28 7.34-7.69 4.89-8.17 7.1-8.49 38.9-.206 21-.529 24-3.23 30.2l-3 6.85 5.28 18c2.91 9.88 6.46 20.6 7.91 23.9 3.12 7.05 9.66 14.8 17 20.1l5.33 3.87.375-15.3c.246-10 .934-15.7 2-16.6zm20 14c1.28-.335 3.38-.335 4.67 0 1.28.335.233.610-2.33.610-2.57 0-3.62-.274-2.33-.610zm-8.76-4.15c-2.92-3.23-2.82-4.26.432-4.26 1.47 0 2.67.6 2.67 1.33 0 .733 1.95 1.42 4.33 1.53l4.33 0.2-4 .587c-2.2.323-4.34 1.15-4.76 1.83-.423.684-1.77.133-3-1.23zm6.78-3.87c1.66-.319 4.06-.307 5.33.0269s-.0823.595-3.02.580c-2.93-.0148-3.98-.288-2.32-.607zm-.117-17.5-3.6-3.76 3.31-13.2 3.31-13.2-.291 13.3-.291 13.3 3.78.684 3.78.684-3.2 3-3.2 3zm-30.7-29.2c-.337-.55 2.57-1 6.46-1s6.38.441 5.53.980c-2.02 1.29-11.2 1.3-12 .0204zm57.1-.343c-1.72-.743-.289-.881 4-.385 3.67.424 6.92.986 7.22 1.25 1.16.997-8.67.240-11.2-.864zm-55.9-3.42c-1.15-1.15-2.1-3.63-2.1-5.5 0-3.24-.142-3.3-3-1.37-1.65 1.12-2.92 2.99-2.81 4.16.292 3.36-1.25 2.5-4.76-2.65-3.82-5.61-3.23-6.3 7.57-8.73 8.65-1.95 15.8-.155 22.1 5.54 4.58 4.17 2.98 5.37-2.44 1.81-3.23-2.12-3.29-2.09-3.29 1.73 0 2.14-.72 4.61-1.6 5.49-2.24 2.24-7.15 1.99-9.64-.495zm9.9-7.24c0-.733-.635-1.33-1.41-1.33-.777 0-1.04.6-.588 1.33.453.733 1.09 1.33 1.41 1.33.323 0 .588-.6.588-1.33zm47.4 6.71c-1.38-1.53-2.08-3.75-1.66-5.33.839-3.21-.251-3.43-3.79-.753-3.6 2.72-4.64 2.51-4.13-.834.458-3 5.4-7.79 8.03-7.78.835.003-.431 1.19-2.81 2.65-6.4 3.9-5.26 4.13 2 .399 7.16-3.68 14.7-3.66 23.4.0535l5.08 2.16-3.75 4.7c-2.19 2.74-3.96 4-4.26 3.03-.670-2.2-4.31-6.33-5.57-6.33-.551 0-.683 1.22-.293 2.71.897 3.43-3.06 7.96-6.96 7.96-1.61 0-3.99-1.18-5.29-2.62zm9.96-6.71c0-.733-.635-1.33-1.41-1.33-.777 0-1.04.6-.588 1.33.453.733 1.09 1.33 1.41 1.33.323 0 .588-.6.588-1.33zm-52-6c-2.2-1.76-3.4-3.2-2.67-3.18 1.84.0318 8.11 4.97 7.31 5.75-1 0-3-1-5-3zm.667-4.12c-5.16-2.76-7.22-3.11-14.7-2.48-4.77 0.4-10.5 1.03-12.7 1.41-6.37 1.08 5.38-3.26 12.5-4.63 6.94-1.33 17.1 1.19 20.7 5.13 3.52 3.88.815 4.15-5.87.578zm29 1c0-.769 2.55-2.56 5.67-3.97 6.56-2.98 15.9-3.19 25.7-0.6l7 2-11-1c-8.81-.576-11.9-.212-17.7 2.1-7.96 3.16-9.62 3.4-9.62 1.4zm-69.6 38.4c-1.46-4.58-2.7-9.08-2.77-10-.0640-.917-.681-1.67-1.37-1.67-.690 0-.973-.75-.629-1.67.344-.917.150-2.87-.430-4.33l-1.06-2.67-.241 2.67c-.133 1.47-.157 4.17-.0529 6 .182 3.23.123 3.25-1.85.745-2.42-3.07-2.46-3.84-.586-10.6 1.07-3.86 1.04-5.43-.121-6.15-.858-.531-1.51-1.35-1.45-1.82.418-3.12-.177-3.82-1.42-1.68-.885 1.52-1.13 5.44-.617 10 .616 5.51.459 6.96-.591 5.49-1.11-1.55-1.23-1.25-.541 1.33.489 1.83 1.84 4.08 3.01 5 1.17.917 1.59 1.67.944 1.67-.647 0-.254.75.873 1.67 1.13.917 2.84 3.77 3.81 6.33 2.21 5.84 3.83 8 6.02 8 1.3 0 1.07-2.03-.936-8.33zm122 .801c1.9-4.14 4.49-8.29 5.76-9.22 1.27-.931 1.89-2.11 1.38-2.63-.514-.514-.0629-1.81 1-2.87 1.07-1.07 1.89-2.94 1.84-4.17-.0764-1.82-.281-1.76-1.11.357-.969 2.48-1.05 2.46-1.78-.335-.491-1.88-.259-2.62.646-2.06.951.588 1.16-.972.654-4.77-1.52-11.3-4.43-8.68-4.02 3.68.276 8.42.0653 9.1-4.19 13.5-2.46 2.57-4.89 6.18-5.4 8.01-.505 1.83-1.21 4.38-1.57 5.67-.410 1.47.0852 2.33 1.34 2.33 1.13 0 3.49-3.28 5.44-7.53zm2.08-15.9c0-1.75-.6-3.19-1.33-3.19-.733 0-1.33 1.2-1.33 2.67 0 3.81-.116 4.36-1.54 7.33-1.03 2.15-.750 2.06 1.46-.481 1.51-1.73 2.74-4.58 2.74-6.33zm-138-14c-.297-2.4-.546-.757-.553 3.64-.0075 4.4.235 6.36.540 4.36.304-2 .310-5.6.0136-8zm148 1.32c-.319-1.66-.592-.616-.607 2.32-.0148 2.93.246 4.29.580 3.02s.346-3.67.0269-5.33z" fill="#a3aec4"/>
  <path d="m18.6 261c1.42-8.01 7.18-18.6 12.5-23 6.81-5.62 16.7-9.02 33.4-11.5 7.82-1.16 14.5-2.75 14.7-3.54.287-.794 2.61-3.53 5.17-6.09 2.55-2.55 6.12-8 7.93-12.1s4.21-8.49 5.35-9.76c1.89-2.11 1.66-2.75-2.73-7.61-5.65-6.26-9.03-12.6-12.3-23.1-1.68-5.37-3.08-7.67-4.66-7.67-1.24 0-2.98-.868-3.86-1.93-3.81-4.59-14.4-25.7-14.8-29.4-.765-8.01.220-14.1 2.66-16.3 2.59-2.41 2.58-2.52-.608-12.9-1.7-6.2-4.1-12.3-5.3-14.1-1.85-2.83-1.86-3.19-.0586-3.19 2.51 0 2.55.595-.618-8.61l-2.65-7.7 3.43-2.7c2.84-2.23 3.29-3.44 2.62-6.99-.552-2.94-.192-4.81 1.14-5.91 1.07-.888 3.62-5.88 5.66-11.1 2.65-6.74 4.78-10.1 7.4-11.6 2.03-1.15 3.69-2.86 3.7-3.79.0115-2.31 4.37-3.94 14.7-5.51 4.77-.725 12.9-2.24 18-3.37 12.4-2.72 15.6-2.62 21.9.697 7.41 3.86 14.9 4.66 19.9 2.14 3.96-1.98 4.64-1.85 17.1 3.2 14.4 5.82 24.8 12.9 28.7 19.5 1.39 2.39 2.87 8.08 3.29 12.6.429 4.73 2.12 11 3.92 14.6 3.99 7.94 5.23 20.6 3.18 32.3-1.42 8.15-1.34 9.29.827 11.7 3.97 4.39 3.3 18.8-1.23 26.4-1.97 3.3-5.25 9.17-7.28 13.1-2.31 4.41-4.8 7.33-6.66 7.8-2.15.539-3.59 2.64-5.22 7.62-3.3 10.1-8.04 19-13.1 24.6-3.7 4.1-4.16 5.24-2.67 6.62.989.920 2.45 4.1 3.25 7.06.878 3.26 4.17 8.39 8.33 13l6.88 7.61 13.4 2.86c29.8 6.37 40.9 14.4 46.5 33.5l2.06 7h-234zm116-10c-.338-1.3-.637-.559-.664 1.64-.0272 2.2.249 3.26.615 2.36.365-.903.387-2.7.0494-4zm2.16-11c1.33-11.3 5.21-18.2 12.9-22.9 7.59-4.72 8.43-5.71 3.07-3.64-4.79 1.86-30.6 1.87-35.3.0203-5.4-2.12-4.47-.899 2.34 3.09 7.19 4.21 10.6 10.2 12.7 22.5.848 4.87 2 8.58 2.55 8.24.554-.342 1.36-3.64 1.8-7.33zm-24-73.1c3.52-2.78 17.4-7.08 18.7-5.79 2.25 2.25-.001 5.15-5.29 6.83-10.4 3.3-11.1 4.26-11.1 15.4 0 9.41.199 10.1 3.38 11.5 3.11 1.42 3.91 1.02 10-4.98l6.62-6.52 6.38 6.28c3.51 3.46 6.91 6.28 7.56 6.28s2.28-.993 3.62-2.21c1.91-1.72 2.44-4.18 2.44-11.3 0-7.87-.390-9.32-3-11.2-2.8-1.96-3.08-1.92-4.2.591-1.69 3.77-3.92 3.37-2.94-.534.691-2.75.237-3.35-3.08-4.08-4.46-.980-6.11-3.81-3.49-5.99 1.36-1.13 3.84-.661 10.2 1.92 4.61 1.87 8.86 4.15 9.44 5.06.577.909 1.06 8.13 1.07 16.1l.0204 14.4 5.85-4.02c7.62-5.24 12.5-11.1 16.5-20 4.27-9.28 13.7-41.9 12.3-42.8-3-2-5-16-5-31 0-16.2-1.48-27.9-4.2-33.1-1.96-3.76-7.01-5.27-20.8-6.2-8.33-.564-14.4-2.05-25.3-6.17-7.9-2.98-17.7-5.78-21.8-6.21-8.98-.950-19.2 1.73-28 7.34-7.69 4.89-8.17 7.1-8.49 38.9-.206 21-.529 24-3.23 30.2l-3 6.85 5.28 18c2.91 9.88 6.46 20.6 7.91 23.9 3.12 7.05 9.66 14.8 17 20.1l5.33 3.87.375-15.3c.246-10 .934-15.7 2-16.6zm29.6 11.7c1.33-1.47 2.71-2.67 3.08-2.67.367 0-.419 1.2-1.75 2.67s-2.71 2.67-3.08 2.67c-.367 0 .419-1.2 1.75-2.67zm-18.5-1.1l-2-4c0-1.24 3.98-1.13 4.1.105.0561.55.303 2.05.549 3.33.560 2.93.289 2.92-2.44-.105zm5.46-3.78c.917-.370 2.42-.370 3.33 0 .917.370.167.673-1.67.673-1.83 0-2.58-.303-1.67-.673zm1.23-17.5-3.6-3.76 3.31-13.2 3.31-13.2-.291 13.3-.291 13.3 3.78.684 3.78.684-3.2 3-3.2 3zm-30.7-29.2c-.337-.55 2.57-1 6.46-1s6.38.441 5.53.980c-2.02 1.29-11.2 1.3-12 .0204zm57.1-.343c-1.72-.743-.289-.881 4-.385 3.67.424 6.92.986 7.22 1.25 1.16.997-8.67.240-11.2-.864zm-55-4.53c-3.02-3.18-4.04-5.59-1.79-4.2.665.411.924-.344.575-1.68-.416-1.59.430-2.98 2.46-4.03 2.94-1.53 2.9-1.57-.908-.865-5.85 1.08-11.3 3.45-11.3 4.9 0 .693.621 2.42 1.38 3.84 2.28 4.27-.492 2.89-3.71-1.85-1.65-2.42-3-4.8-3-5.27 0-1.22 13.1-4.97 17.3-4.97 1.94 0 6.34 1.42 9.78 3.16 4.1 2.07 5.67 2.46 4.56 1.12-1.4-1.69-1.34-1.93.311-1.38 1.1.366 2.02 1.51 2.04 2.55.0194 1.04.505 2.64 1.08 3.55 1.54 2.46-.0575 2.03-4.37-1.16-2.23-1.65-4.51-2.4-5.49-1.79-1.07.662-1.33.486-.724-.494.610-.986.212-1.24-1.13-.730-1.14.437-2.07 1.26-2.07 1.82 0 1.64 3.49 4.08 4.46 3.12.483-.483.877.0297.877 1.14 0 2.16-4.08 6.44-6.1 6.41-.676-.0127-2.58-1.45-4.23-3.19zm61 1c0-1.36-.734-1.86-2-1.38-2.5.959-2.83-5.79-.4-8.22 2.78-2.78-.784-1.73-5.87 1.72-4.69 3.19-4.88 3.21-4.69.613.348-4.62 4.34-6.91 13.1-7.49 7.64-.511 20.2 2.18 21.7 4.65.301.494-1.21 2.99-3.35 5.55l-3.89 4.65.821-4.11c.722-3.61.365-4.29-2.97-5.61-2.08-.825-5.59-1.84-7.79-2.24-3.5-.650-3.62-.577-1 .578 3.32 1.46 4.18 3.11.985 1.88-1.44-.553-1.78-.162-1.19 1.38.453 1.18 1.66 2.15 2.68 2.15 2.79 0 2.24 5.04-.722 6.62-3.66 1.96-5.42 1.71-5.42-.762zm-4.11-13.5c.306-.222-.078-.404-.852-.404s-2.82 1.24-4.56 2.75l-3.15 2.75 4-2.34c2.2-1.29 4.25-2.52 4.56-2.75zm-44.6-.404c-.453-.733-.224-1.33.509-1.33s1.7.6 2.16 1.33c.453.733.224 1.33-.509 1.33s-1.7-.6-2.16-1.33zm3.33-2.23c-5.16-2.76-7.22-3.11-14.7-2.48-4.77 0.4-10.5 1.03-12.7 1.41-6.37 1.08 5.38-3.26 12.5-4.63 6.94-1.33 17.1 1.19 20.7 5.13 3.52 3.88.815 4.15-5.87.578zm30 0c0-.769 2.55-2.56 5.67-3.97 6.56-2.98 15.9-3.19 25.7-0.6l7 2-11-1c-8.81-.576-11.9-.212-17.7 2.1-7.96 3.16-9.62 3.4-9.62 1.4zm-69.6 38.4c-1.46-4.58-2.7-9.08-2.77-10-.0640-.917-.681-1.67-1.37-1.67-.690 0-.973-.75-.629-1.67.344-.917.150-2.87-.430-4.33l-1.06-2.67-.241 2.67c-.133 1.47-.157 4.17-.0529 6 .182 3.23.123 3.25-1.85.745-2.42-3.07-2.46-3.84-.586-10.6 1.07-3.86 1.04-5.43-.121-6.15-.858-.531-1.51-1.35-1.45-1.82.418-3.12-.177-3.82-1.42-1.68-.885 1.52-1.13 5.44-.617 10 .616 5.51.459 6.96-.591 5.49-1.11-1.55-1.23-1.25-.541 1.33.489 1.83 1.84 4.08 3.01 5 1.17.917 1.59 1.67.944 1.67-.647 0-.254.75.873 1.67 1.13.917 2.84 3.77 3.81 6.33 2.21 5.84 3.83 8 6.02 8 1.3 0 1.07-2.03-.936-8.33zm122 .801c1.9-4.14 4.49-8.29 5.76-9.22 1.27-.931 1.89-2.11 1.38-2.63-.514-.514-.0629-1.81 1-2.87 1.07-1.07 1.89-2.94 1.84-4.17-.0764-1.82-.281-1.76-1.11.357-.969 2.48-1.05 2.46-1.78-.335-.491-1.88-.259-2.62.646-2.06.951.588 1.16-.972.654-4.77-1.52-11.3-4.43-8.68-4.02 3.68.276 8.42.0653 9.1-4.19 13.5-2.46 2.57-4.89 6.18-5.4 8.01-.505 1.83-1.21 4.38-1.57 5.67-.410 1.47.0852 2.33 1.34 2.33 1.13 0 3.49-3.28 5.44-7.53zm2.08-15.9c0-1.75-.6-3.19-1.33-3.19-.733 0-1.33 1.2-1.33 2.67 0 3.81-.116 4.36-1.54 7.33-1.03 2.15-.750 2.06 1.46-.481 1.51-1.73 2.74-4.58 2.74-6.33zm-138-14c-.297-2.4-.546-.757-.553 3.64-.0075 4.4.235 6.36.540 4.36.304-2 .310-5.6.0136-8zm148 1.32c-.319-1.66-.592-.616-.607 2.32-.0148 2.93.246 4.29.580 3.02s.346-3.67.0269-5.33z" fill="#e29679"/>
  <path d="m18.6 261c1.42-8.01 7.18-18.6 12.5-23 6.81-5.62 16.7-9.02 33.4-11.5 7.82-1.16 14.5-2.75 14.7-3.54.287-.794 2.61-3.53 5.17-6.09 2.55-2.55 6.12-8 7.93-12.1s4.21-8.49 5.35-9.76c1.89-2.11 1.66-2.75-2.73-7.61-7.68-8.5-9.88-14-21-52-2.33-8.02-3.14-9.47-4.21-7.57-.726 1.3-.957 3.96-.514 5.93.627 2.78.505 3.08-.547 1.35-.744-1.22-1.24-6.02-1.11-10.7.264-9.04-1.93-16.5-4.38-15-.992.613-1.03 1.19-.106 1.76.866.535.969 2.57.279 5.5l-1.09 4.65-.326-4.67-.326-4.67-.955 5.33-.955 5.33-.189-5.25c-.129-3.57.645-6.14 2.43-8.03 2.6-2.77 2.6-2.84-.608-13.2-1.77-5.75-4.16-11.9-5.31-13.6-1.85-2.83-1.86-3.19-.0586-3.19 2.51 0 2.55.595-.618-8.61l-2.65-7.7 3.43-2.7c2.84-2.23 3.29-3.44 2.62-6.99-.552-2.94-.192-4.81 1.14-5.91 1.07-.888 3.62-5.88 5.66-11.1 2.65-6.74 4.78-10.1 7.4-11.6 2.03-1.15 3.69-2.86 3.7-3.79.0115-2.31 4.37-3.94 14.7-5.51 4.77-.725 12.9-2.24 18-3.37 12.4-2.72 15.6-2.62 21.9.697 7.41 3.86 14.9 4.66 19.9 2.14 3.96-1.98 4.64-1.85 17.1 3.2 14.4 5.82 24.8 12.9 28.7 19.5 1.39 2.39 2.87 8.08 3.29 12.6.429 4.73 2.12 11 3.92 14.6 3.99 7.94 5.23 20.6 3.18 32.3-1.4 8.01-1.32 9.31.688 11.5 1.37 1.51 2.42 5.26 2.65 9.51l.394 7.01-.985-6.35c-.858-5.53-5.53-13.5-5.53-9.38 0 .829.572 1.71 1.27 1.95.699.244 1.59 3.14 1.98 6.44l.706 6-1.34-5.25c-1.79-7.02-2.25-7.24-4.41-2.1-1.38 3.29-1.5 5.49-.472 8.84.960 3.13.934 5.37-.0889 7.49-1.38 2.87-1.46 2.8-1.55-1.31-.160-7.68-2.16-4.65-5.98 9.08-3.7 13.3-3.66 17.8.0993 12.6 4-5.5 11.6-18.8 13.3-23.3 1.11-2.97 1.76-3.7 1.78-2 .0201 1.47-1.42 5.07-3.21 8-1.78 2.93-4.85 8.33-6.82 12-3.87 7.22-5.66 8.97-8.2 8.04-1.05-.383-2.44 2.17-3.84 7.01-2.93 10.2-7.64 19.3-13.1 25.3-3.7 4.1-4.16 5.24-2.67 6.62.989.920 2.45 4.1 3.25 7.06.878 3.26 4.17 8.39 8.33 13l6.88 7.61 13.4 2.86c29.8 6.37 40.9 14.4 46.5 33.5l2.06 7h-234zm122-34c2.12-4.37 5.13-7.32 12.3-12.1 6.41-4.23 9.66-7.26 9.95-9.28.716-5.04-5.66-3.9-12.7 2.27-11.2 9.87-18.5 9.92-30.8.195-3.47-2.74-7.7-5.35-9.39-5.79-2.71-.705-3.03-.373-2.67 2.76.316 2.73 2.54 4.97 9.55 9.59 5.03 3.32 9.97 7.63 11 9.57 2.55 4.87 5.79 19.1 6 26.4.136 4.78.549 3.58 2.03-5.94 1.02-6.56 3.12-14.5 4.66-17.7zm-29.2-42.8c-.305-11.8.0322-16.1 1.33-17.2 3.6-2.86 17.5-7.2 18.8-5.88 2.32 2.32-.120 5.31-5.52 6.76-9.47 2.55-11.5 5.26-11.5 15.1.0386 14.5 4.28 16.5 14.3 6.68l6.38-6.28 6.38 6.28c3.51 3.46 6.91 6.28 7.56 6.28s2.28-.993 3.62-2.21c1.91-1.72 2.44-4.18 2.44-11.3 0-7.87-.390-9.32-3-11.2-2.8-1.96-3.08-1.92-4.2.591-1.71 3.83-3.92 3.34-2.92-.640.596-2.37.296-3.33-1.04-3.33-1.03 0-3.21-1.08-4.83-2.39-2.58-2.09-2.7-2.6-.952-4.05 1.63-1.35 3.64-1 10.8 1.87 10.4 4.18 10.6 4.46 9.92 23l-.460 13.2 5.52-3.8c13.5-9.26 18.1-17.4 26.5-46.8 4.34-15 4.42-15.7 2.31-20-1.66-3.34-2.4-10.3-3.1-29.2-1-34.4-2-35.5-24-37-9.76-.669-15.5-2.21-36-9.6-8.45-3.05-11.4-3.5-18.9-2.87-9.08.760-21.7 5.76-25.7 10.2-2.85 3.15-5.15 26.2-4.12 41.4.854 12.6.178 16.8-4.65 28.7-1.45 3.58-1.01 6.11 3.87 22.3 3.03 10.1 6.77 21 8.32 24.3 3.19 6.78 10.7 15 18.1 19.9 2.78 1.82 5.05 3.34 5.05 3.39 0 .0445-.184-7.02-.408-15.7zm29.1-3.4c0-.277 1.05-1.33 2.33-2.33 2.11-1.66 2.16-1.61.503.503-1.74 2.22-2.84 2.93-2.84 1.83zm-16.6-3.82c-1.34-1.92-1.58-3.16-.659-3.47 1.87-.625 2.57.151 3.24 3.62 0.7 3.63.0442 3.6-2.58-.146zm5.61-3.22c.917-.370 2.42-.370 3.33 0 .917.370.167.673-1.67.673-1.83 0-2.58-.303-1.67-.673zm1.06-18.1-3.58-3.08 3.41-12.7 3.41-12.7-.740 12.2c-.486 8.05-.214 13.2.795 15.1 2.22 4.14.835 4.58-3.29 1.03zm-30.5-28.7c-.348-.564 1.72-0.8 4.59-.527 2.87.274 5.22.735 5.22 1.02 0 .993-9.18.527-9.81-.498zm57.9-.238c-1.25-.790.163-.954 4-.463 3.26.417 6.18.976 6.49 1.24 1.25 1.09-8.7.348-10.5-.779zm-55.7-4.62c-3.02-3.18-4.04-5.59-1.79-4.2.665.411.924-.344.575-1.68-.416-1.59.430-2.98 2.46-4.03 2.94-1.53 2.9-1.57-.908-.865-5.85 1.08-11.3 3.45-11.3 4.9 0 .693.629 2.57 1.4 4.17.855 1.78-.180 1.12-2.67-1.7-2.24-2.54-4.07-5.04-4.07-5.56 0-1.2 7.05-3.49 14.1-4.58 5.72-.882 13.7 1.61 18.2 5.68 3.86 3.5 2.72 4.74-1.49 1.63-2.27-1.68-4.56-2.44-5.54-1.83-1.07.662-1.33.486-.724-.494.610-.986.212-1.24-1.13-.730-1.14.437-2.07 1.26-2.07 1.82 0 1.64 3.49 4.08 4.46 3.12.483-.483.877.0297.877 1.14 0 2.16-4.08 6.44-6.1 6.41-.676-.0127-2.58-1.45-4.23-3.19zm60 1c0-1.36-.734-1.86-2-1.38-2.5.959-2.83-5.79-.4-8.22 2.83-2.83-.821-1.71-6.07 1.86-4.45 3.02-4.91 3.12-3.67.797.784-1.46 4.16-3.99 7.5-5.6 6.63-3.21 14.1-2.94 23.2.828l4.55 1.89-3.19 3.65c-1.76 2.01-3.66 4.23-4.24 4.94-.575.710-.678-.544-.229-2.79.716-3.58.352-4.26-2.98-5.58-2.08-.825-5.59-1.84-7.79-2.24-3.5-.650-3.62-.577-1 .578 3.32 1.46 4.18 3.11.985 1.88-1.44-.553-1.78-.162-1.19 1.38.453 1.18 1.66 2.15 2.68 2.15 2.79 0 2.24 5.04-.722 6.62-3.66 1.96-5.42 1.71-5.42-.762zm-45.3-16.2c-5.28-2.88-7.12-3.19-15.3-2.54-5.13.408-10.8 1.05-12.7 1.44-1.83.382-.0333-.459 4-1.87 9.68-3.39 18.8-3.42 25.3-.0816 2.85 1.46 5.54 3.21 5.97 3.91 1.64 2.66-1.51 2.29-7.26-.856zm29 1c0-.769 2.55-2.56 5.67-3.97 6.53-2.96 15.9-3.19 25.7-.632l7 2-11-1c-8.77-.560-12-.181-18 2.13-8 3-9 4-9 2zm-71.5 47.1c-4.13-4.55-13.9-22.6-14.6-27.1-.557-3.36-.0884-2.72 1.78 2.44 1.4 3.85 3.46 8.05 4.59 9.33s3.41 5.03 5.07 8.33 3.98 6.73 5.16 7.62c1.18.896 1.69 1.65 1.14 1.67-.55.0233-1.95-1.01-3.12-2.29zm-12.4-29c.0640-1.55.380-1.87.806-.806.385.962.338 2.11-.105 2.56-.443.443-.758-.344-0.7-1.75z" fill="#a19c9f"/>
  <path d="m18.7 261c1.41-8.35 7.06-18.6 12.7-23.1 7.37-5.83 15.6-8.66 33-11.3 8.22-1.26 14.9-2.83 14.9-3.49 0-.656 2.18-3.37 4.83-6.03 2.66-2.66 6.31-8.19 8.12-12.3 1.81-4.1 4.21-8.49 5.35-9.76 1.89-2.11 1.66-2.75-2.73-7.61-7.68-8.5-9.88-14-21-52-2.33-8.02-3.14-9.47-4.21-7.57-.726 1.3-.957 3.96-.514 5.93.627 2.78.505 3.08-.547 1.35-.744-1.22-1.24-6.02-1.11-10.7.264-9.04-1.93-16.5-4.38-15-.992.613-1.03 1.19-.106 1.76.866.535.969 2.57.279 5.5l-1.09 4.65-.326-4.67-.326-4.67-.955 5.33-.955 5.33-.189-5.25c-.133-3.69.646-6.14 2.62-8.24l3-1-3.7-11.5c-2-6.1-4.17-11.7-4.81-12.4-1.6-1.73-1.48-3.75.166-2.73 1.92 1.19 1.67-.609-1.3-9.24l-2.63-7.66 3.91-3.29c3.4-2.86 3.74-3.74 2.59-6.75-1.06-2.79-.811-4.01 1.3-6.26 1.44-1.54 3.91-6.27 5.49-10.5 2.66-7.13 6.96-12.9 9.56-12.9.595 0 1.08-.865 1.08-1.92 0-2.8 1.05-3.19 16.9-6.23 31.8-6.1 28.9-5.94 37.6-2.04 8.76 3.93 16.8 4.52 21.1 1.53 2.6-1.82 3.93-1.51 16.5 3.93 15.1 6.54 22.9 11.4 26.6 16.6 2.91 4.09 5.39 12.5 5.4 18.3.004 2.29 1.53 7.5 3.39 11.6 4.4 9.62 5.37 18.5 3.35 31-1.47 9.12-1.41 10.4.677 12.7 1.42 1.57 2.46 5.25 2.7 9.56l.394 7.01-.985-6.35c-.858-5.53-5.53-13.5-5.53-9.38 0 .829.572 1.71 1.27 1.95.699.244 1.59 3.14 1.98 6.44l.706 6-1.34-5.25c-1.79-7.02-2.25-7.24-4.41-2.1-1.38 3.29-1.5 5.49-.472 8.84.960 3.13.934 5.37-.0889 7.49-1.38 2.87-1.46 2.8-1.55-1.31-.160-7.68-2.16-4.65-5.98 9.08-3.7 13.3-3.66 17.8.0993 12.6 4-5.5 11.6-18.8 13.3-23.3 1.11-2.97 1.76-3.7 1.78-2 .0201 1.47-1.42 5.07-3.21 8-1.78 2.93-4.85 8.33-6.82 12-3.87 7.22-5.66 8.97-8.2 8.04-1.05-.383-2.44 2.17-3.84 7.01-2.98 10.3-7.67 19.3-13.4 25.7-2.63 2.91-4.18 5.29-3.45 5.29s2 1.8 2.82 4l2.94 7.88c.794 2.13 4.22 6.78 7.62 10.3 5.93 6.2 6.71 6.57 19.6 9.32 30.3 6.48 41.4 14.9 47.1 35.5l1.38 5h-234zm122-34c2.12-4.37 5.13-7.32 12.3-12.1 6.41-4.23 9.66-7.26 9.95-9.28.716-5.04-5.66-3.9-12.7 2.27-11.2 9.87-18.5 9.92-30.8.195-3.47-2.74-7.7-5.35-9.39-5.79-2.71-.705-3.03-.373-2.67 2.76.316 2.73 2.54 4.97 9.55 9.59 5.03 3.32 9.97 7.63 11 9.57 2.55 4.87 5.79 19.1 6 26.4.136 4.78.549 3.58 2.03-5.94 1.02-6.56 3.12-14.5 4.66-17.7zm-29.2-42.8c-.305-11.8.0322-16.1 1.33-17.2 3.6-2.86 17.5-7.2 18.8-5.88 2.32 2.32-.120 5.31-5.52 6.76-9.47 2.55-11.5 5.26-11.5 15.1.0386 14.5 4.28 16.5 14.3 6.68l6.38-6.28 6.38 6.28c3.51 3.46 6.91 6.28 7.56 6.28s2.28-.993 3.62-2.21c1.91-1.72 2.44-4.18 2.44-11.3 0-7.87-.390-9.32-3-11.2-2.8-1.96-3.08-1.92-4.2.591-1.69 3.77-3.41 3.36-2.68-.640.411-2.26.001-3.33-1.27-3.33-1.03 0-3.21-1.08-4.83-2.39-2.58-2.09-2.7-2.6-.952-4.05 1.63-1.35 3.64-1 10.8 1.87 10.4 4.18 10.6 4.46 9.92 23l-.460 13.2 5.52-3.8c13.5-9.26 18.1-17.4 26.5-46.8 4.34-15 4.42-15.7 2.31-20-1.66-3.34-2.4-10.3-3.1-29.2-1-34.4-2-35.5-24-37-9.76-.669-15.5-2.21-36-9.6-8.45-3.05-11.4-3.5-18.9-2.87-9.08.760-21.7 5.76-25.7 10.2-2.85 3.15-5.15 26.2-4.12 41.4.854 12.6.178 16.8-4.65 28.7-1.45 3.58-1.01 6.11 3.87 22.3 3.03 10.1 6.77 21 8.32 24.3 3.19 6.78 10.7 15 18.1 19.9 2.78 1.82 5.05 3.34 5.05 3.39 0 .0445-.184-7.02-.408-15.7zm12.5-7.22c-1.34-1.92-1.58-3.16-.659-3.47 1.87-.625 2.57.151 3.24 3.62 0.7 3.63.0442 3.6-2.58-.146zm6.67-21.3-3.58-3.08 3.41-12.7 3.41-12.7-.740 12.2c-.486 8.05-.214 13.2.795 15.1 2.22 4.14.835 4.58-3.29 1.03zm-27.7-28.7c1.66-.319 4.06-.307 5.33.0269s-.0822.595-3.02.580c-2.93-.0148-3.98-.288-2.32-.607zm58.7 0c1.66-.319 4.06-.307 5.33.0269s-.0823.595-3.02.580c-2.93-.0148-3.98-.288-2.32-.607zm-59.3-4.93c-3.2-3.38-4-5.57-1.46-4 .974.602 1.18.364.552-.646-.543-.879-.262-2.47.624-3.54 1.83-2.2 7.25-2.71 5.92-.550-1.06 1.72 1.9 5.52 3.52 4.51 2.24-1.38 1.18 3.02-1.26 5.22-3.21 2.91-4.32 2.77-7.9-1zm59 1c0-1.36-.734-1.86-2-1.38-2.5.959-2.83-5.79-.4-8.22 2.84-2.84-.985-1.76-6.12 1.72-4.12 2.8-4.68 2.92-3.54.797.743-1.39 4.08-3.85 7.42-5.46 6.6-3.19 14.1-2.94 23.1.774l4.42 1.84-3.7 4.64c-4.18 5.24-5.13 5.36-3.25.394 1.2-3.15.901-3.56-3.99-5.52-2.91-1.16-6.92-2.05-8.92-1.98l-3.64.133 3.33 1.07c1.83.587 2.6 1.13 1.71 1.2-2.23.183-.544 4.13 1.77 4.13 2.79 0 2.24 5.04-.722 6.62-3.66 1.96-5.42 1.71-5.42-.762zm-73.4-6c-3.53-4.96-2.76-5.72 7.99-7.97 8.26-1.73 14.8-.386 20.7 4.26 4.41 3.47 3.61 4.89-1.05 1.84-1.86-1.22-4.11-1.78-4.99-1.23-.973.601-1.25.423-.706-.456 2.12-3.43-10.5-3.48-16.9-.0741-1.79.958-2.25 2.22-1.67 4.55 1.08 4.3.204 4.06-3.34-.914zm28.1-10.2c-5.28-2.88-7.12-3.19-15.3-2.54-5.13.408-10.8 1.05-12.7 1.44-1.83.382-.0333-.459 4-1.87 9.68-3.39 18.8-3.42 25.3-.0816 2.85 1.46 5.54 3.21 5.97 3.91 1.64 2.66-1.51 2.29-7.26-.856zm29 1c0-.769 2.55-2.56 5.67-3.97 6.53-2.96 15.9-3.19 25.7-.632l7 2-11-1c-8.77-.560-12-.181-18 2.13-8 3-9 4-9 2zm-71.5 47.1c-4.13-4.55-13.9-22.6-14.6-27.1-.557-3.36-.0884-2.72 1.78 2.44 1.4 3.85 3.46 8.05 4.59 9.33s3.41 5.03 5.07 8.33 3.98 6.73 5.16 7.62c1.18.896 1.69 1.65 1.14 1.67-.55.0233-1.95-1.01-3.12-2.29zm-12.4-29c.0640-1.55.380-1.87.806-.806.385.962.338 2.11-.105 2.56-.443.443-.758-.344-0.7-1.75z" fill="#d6886b"/>
  <path d="m18.7 261c1.41-8.35 7.06-18.6 12.7-23.1 7.37-5.83 15.6-8.66 33-11.3 8.22-1.26 14.9-2.83 14.9-3.49 0-.656 2.18-3.37 4.83-6.03 2.66-2.66 6.31-8.19 8.12-12.3 1.81-4.1 4.21-8.49 5.35-9.76 1.89-2.11 1.66-2.76-2.78-7.67-7.12-7.88-5.9-7.57 2.23.565 3.9 3.9 8.85 8 11 9.11l4 2v-15c-.305-11.7.0333-16 1.33-17 3.6-2.86 17.5-7.2 18.8-5.88 2.32 2.32-.120 5.31-5.52 6.76-9.47 2.55-11.5 5.26-11.5 15.1.0386 14.5 4.28 16.5 14.3 6.68l6.38-6.28 6.38 6.28c7.09 6.98 8.23 7.37 11.4 3.84 1.59-1.75 2.21-4.92 2.21-11.3 0-7.63-.403-9.1-3-10.9-2.8-1.96-3.08-1.92-4.2.591-1.69 3.77-3.41 3.36-2.68-.640.411-2.26.001-3.33-1.27-3.33-1.03 0-3.21-1.08-4.83-2.39-2.58-2.09-2.7-2.6-.952-4.05 1.63-1.35 3.64-1 10.8 1.87 10.4 4.18 10.6 4.45 9.92 23l-.460 13.3 3.77-2.21c2.07-1.22 4.4-2.97 5.17-3.89 1.9-2.27 5.95 2.42 7.7 8.92 1.39 5.16 4.92 10.4 11.4 16.8 3.27 3.25 6.45 4.5 17.3 6.84 30.3 6.5 41.4 14.9 47.1 35.5l1.38 5h-234zm122-34c2.12-4.37 5.13-7.32 12.3-12.1 8.76-5.78 9.55-6.68 9.94-11.4.407-4.95.330-5.05-2.67-3.46-1.7.897-5.96 4.2-9.47 7.34-11.6 10.4-19.8 10.5-30.8.643-3-2.69-7.13-5.95-9.2-7.24l-3.75-2.36.419 5.09c.383 4.66 1.19 5.6 9.56 11.1 5.03 3.32 9.97 7.63 11 9.57 2.55 4.87 5.79 19.1 6 26.4.136 4.78.549 3.58 2.03-5.94 1.02-6.56 3.12-14.5 4.66-17.7zm33.1-39c1.55-2.18 3.5-4.38 4.33-4.89.832-.514-.167 1.27-2.22 3.96-4.46 5.84-6.14 6.59-2.11.935zm-86.7-11c-.819-1.53-1.24-3.03-.930-3.34.307-.307 1.24.944 2.08 2.78 1.84 4.03.943 4.47-1.15.558zm36.8-.212c-1.34-1.92-1.58-3.16-.659-3.47 1.87-.625 2.57.151 3.24 3.62 0.7 3.63.0442 3.6-2.58-.146zm58-.340c0-.733.582-2.23 1.29-3.33.711-1.1 1.29-1.4 1.29-.667s-.582 2.23-1.29 3.33c-.711 1.1-1.29 1.4-1.29.667zm-50.9-21-3.55-2.99 3.07-12 3.07-12-.704 12.1c-.465 7.97-.173 13.1.858 15 1.95 3.64 1.66 3.63-2.75-.088zm57.7 1.67c.0403-1.1.589-3.2 1.22-4.67l1.15-2.67.0733 2.67c.0403 1.47-.508 3.57-1.22 4.67-1.15 1.78-1.28 1.78-1.22 0zm-110-6c-.490-1.95-.635-3.81-.320-4.12.314-.314.973 1.03 1.46 2.98.490 1.95.635 3.81.320 4.12-.314.314-.973-1.03-1.46-2.98zm119-3.88c2.18-4.02 4.46-7.62 5.08-8 .615-.380-.663 2.6-2.84 6.62s-4.46 7.62-5.08 8c-.615.380.663-2.6 2.84-6.62zm-131-5c-1.99-3.22-3.35-5.86-3.02-5.86.943 0 7.75 10.7 7.16 11.2-.291.274-2.16-2.14-4.14-5.36zm9.04.0452c-.490-1.95-.635-3.81-.320-4.12.314-.314.973 1.03 1.46 2.98.490 1.95.635 3.81.320 4.12-.314.314-.973-1.03-1.46-2.98zm117 1.42c-.0725-.738.468-3.43 1.2-5.99 1.05-3.65.855-5.65-0.9-9.32-1.71-3.58-2.45-10.5-3.16-29.4-1-34.7-2-35.8-24-37.3-9.76-.669-15.5-2.21-36-9.6-8.45-3.05-11.4-3.5-18.9-2.87-9.08.760-21.7 5.76-25.7 10.2-2.72 3-4.82 23.7-4.4 43.4.301 14.1-.0061 16.8-2.58 22.3-3.17 6.86-5.02 7.92-6.16 3.53-1.08-4.14-3.94-1.62-3.28 2.89.304 2.07.0728 3.47-.515 3.11-.588-.363-.959-4.68-.826-9.6.133-4.91-.487-10.7-1.38-12.7-1.43-3.36-1.9-3.6-3.93-2.02-1.94 1.5-1.92 1.32.158-1.11 2.41-2.83 2.39-3.14-1.17-14-2-6.09-4.16-11.6-4.8-12.3-1.6-1.73-1.48-3.75.166-2.73 1.92 1.19 1.67-.609-1.3-9.24l-2.63-7.66 3.91-3.29c3.4-2.86 3.74-3.74 2.59-6.75-1.06-2.79-.811-4.01 1.3-6.26 1.44-1.54 3.91-6.27 5.49-10.5 2.66-7.13 6.96-12.9 9.56-12.9.595 0 1.08-.865 1.08-1.92 0-2.8 1.05-3.19 16.9-6.23 31.8-6.1 28.9-5.94 37.6-2.04 8.76 3.93 16.8 4.52 21.1 1.53 2.6-1.82 3.93-1.51 16.5 3.93 15.1 6.54 22.9 11.4 26.6 16.6 2.91 4.09 5.39 12.5 5.4 18.3.004 2.29 1.57 7.58 3.47 11.7 4.45 9.73 5.29 19.9 2.79 34.1-1.95 11.1-1.86 14.3.299 10.8.839-1.36 1.26-1.25 1.93.481 1.25 3.26 1 4.3-.481 2-1.07-1.66-1.3-1.55-1.33.667-.0332 2.17-.274 2.3-1.28.705-1.49-2.35-1.96-1.93-3.64 3.29-.812 2.51-.831 5.81-.0503 8.88.825 3.25.764 5.71-.184 7.34-1.2 2.06-1.43 1.65-1.47-2.55-.0223-2.75-.641-5-1.37-5-.733 0-1.33.9-1.33 2s-.581 2-1.29 2c-.710 0-1 .75-.653 1.67.351.917-.209 4.37-1.24 7.67s-1.94 5.4-2.01 4.66zm13.3-8.66c1.94-4.08 2.56-4.84 2.56-3.14 0 .715-.933 2.47-2.07 3.89-1.96 2.44-1.98 2.4-.486-.745zm-132 0c.0640-1.55.380-1.87.806-.806.385.962.338 2.11-.105 2.56-.443.443-.758-.344-0.7-1.75zm-12.6-1.27c-1.29-3.35-.907-4.22.665-1.52.778 1.34 1.13 2.71.791 3.06-.343.343-.998-.351-1.46-1.54zm-2.06-6.73c.0640-1.55.380-1.87.806-.806.385.962.338 2.11-.105 2.56-.443.443-.758-.344-0.7-1.75zm43.6-.165c1.66-.319 4.06-.307 5.33.0269s-.0822.595-3.02.580c-2.93-.0148-3.98-.288-2.32-.607zm59.3.0239c1.28-.335 3.38-.335 4.67 0 1.28.335.233.610-2.33.610-2.57 0-3.62-.274-2.33-.610zm-60-4.96c-3.2-3.38-4-5.57-1.46-4 .974.602 1.18.364.552-.646-.543-.879-.262-2.47.624-3.54 1.83-2.2 7.25-2.71 5.92-.550-1.06 1.72 1.9 5.52 3.52 4.51 2.24-1.38 1.18 3.02-1.26 5.22-3.21 2.91-4.32 2.77-7.9-1zm60 1c0-1.36-.734-1.86-2-1.38-2.5.959-2.83-5.79-.4-8.22 2.88-2.88-1.02-1.74-6.41 1.88l-5 4 3.94-4.17c5.21-5.51 12.3-7.39 21-5.53 3.66.784 7.81 2.05 9.22 2.81 2.48 1.33 2.44 1.55-1.05 5.93-4.12 5.16-5.06 5.25-3.18.307 1.2-3.15.901-3.56-3.99-5.52-2.91-1.16-6.92-2.05-8.92-1.98l-3.64.133 3.33 1.07c1.83.587 2.6 1.13 1.71 1.2-2.23.183-.544 4.13 1.77 4.13 2.79 0 2.24 5.04-.722 6.62-3.66 1.96-5.42 1.71-5.42-.762zm48.3-2.52c.0148-2.93.288-3.98.607-2.32s.307 4.06-.0269 5.33-.595-.0822-.580-3.02zm-121-3c-3.51-4.93-2.74-5.73 7.7-7.91 7.97-1.67 14.1-.448 20.4 4.07 4.86 3.46 4.4 5.19-.531 1.96-1.86-1.22-4.11-1.78-4.99-1.23-.973.601-1.25.423-.706-.456 2.12-3.43-10.5-3.48-16.9-.0741-1.79.958-2.25 2.22-1.67 4.55 1.08 4.3.204 4.06-3.34-.914zm-26.5-.783c-.0515-1.61.506-3.29 1.24-3.75 1.58-.975 1.58.330 0 4-1.1 2.57-1.15 2.56-1.24-.255zm54.6-9.38c-5.28-2.88-7.12-3.19-15.3-2.54-5.13.408-10.8 1.05-12.7 1.44-1.83.382-.0333-.459 4-1.87 9.68-3.39 18.8-3.42 25.3-.0816 2.85 1.46 5.54 3.21 5.97 3.91 1.64 2.66-1.51 2.29-7.26-.856zm29 1c0-.769 2.55-2.56 5.67-3.97 6.53-2.96 15.9-3.19 25.7-.632l7 2-11-1c-8.77-.560-12-.181-18 2.13-8 3-9 4-9 2z" fill="#b38677"/>
  <path d="m18.7 261c1.41-8.35 7.06-18.6 12.7-23.1 7.37-5.83 15.6-8.66 33-11.3 8.22-1.26 14.9-2.83 14.9-3.49 0-.656 2.18-3.37 4.83-6.03 2.66-2.66 6.31-8.19 8.12-12.3 1.81-4.1 4.21-8.49 5.35-9.76 1.89-2.11 1.66-2.76-2.78-7.67-7.12-7.88-5.9-7.57 2.23.565 3.9 3.9 8.85 8 11 9.11l4 2v-13c-.583-18.3-.354-18.9 8.48-22.2 9.11-3.41 13-3.58 12.4-.539-.266 1.37-3.4 3.21-8.18 4.81-10 3-11 5-11 16 0 6.82 2.81 12.2 6.36 12.2 1.22 0 5.05-2.8 8.53-6.22l6.31-6.22 6.66 7.1c6.39 6.8 6.79 7.01 9.71 5.07 5.58-3.71 6.23-19.7.982-24.5-2.37-2.14-2.65-2.09-5.27.919l-2.77 3.18 1.52-3.11c1.76-3.61 1.85-3.46-3.37-5.15-4.73-1.53-6.29-5.74-2.12-5.74 3.35 0 13.5 3.81 15.8 5.94 1.16 1.06 1.8 6.51 1.99 17l.291 15.5 3.78-2.22c2.08-1.22 4.41-2.97 5.18-3.89 1.9-2.27 5.95 2.42 7.7 8.92 1.39 5.16 4.92 10.4 11.4 16.8 3.27 3.25 6.45 4.5 17.3 6.84 30.3 6.5 41.4 14.9 47.1 35.5l1.38 5h-234zm121-31c2.86-6.84 6.39-10.5 15.7-16.1 7.26-4.41 7.67-4.94 7.67-9.94 0-5.06-.129-5.22-3-3.71-1.65.865-5.22 3.56-7.94 5.99s-7.47 5.71-10.6 7.28c-4.83 2.46-6.31 2.66-10.5 1.4-2.7-.810-7.55-3.75-10.8-6.52-3.22-2.78-7.51-6.09-9.53-7.37l-3.67-2.32v5.24c0 5.05.346 5.46 9.17 10.9 5.04 3.11 10.2 7.35 11.4 9.42 2.65 4.48 6.05 21.3 6.26 30.9.119 5.48.503 4.14 1.88-6.53.950-7.38 2.71-15.8 3.91-18.6zm34-41.9c1.55-2.18 3.5-4.38 4.33-4.89.832-.514-.167 1.27-2.22 3.96-4.46 5.84-6.14 6.59-2.11.935zm-86.7-11c-.819-1.53-1.24-3.03-.930-3.34.307-.307 1.24.944 2.08 2.78 1.84 4.03.943 4.47-1.15.558zm36.1-1.89c-1.35-1.63-1.28-2 .361-2 1.11 0 2.37.9 2.79 2 .422 1.1.260 2-.361 2s-1.88-.9-2.79-2zm58.7 1.33c0-.733.582-2.23 1.29-3.33.711-1.1 1.29-1.4 1.29-.667s-.582 2.23-1.29 3.33c-.711 1.1-1.29 1.4-1.29.667zm-50.9-21-3.55-2.99 3.07-12 3.07-12-.704 12.1c-.465 7.97-.173 13.1.858 15 1.95 3.64 1.66 3.63-2.75-.088zm57.7 1.67c.0403-1.1.589-3.2 1.22-4.67l1.15-2.67.0733 2.67c.0403 1.47-.508 3.57-1.22 4.67-1.15 1.78-1.28 1.78-1.22 0zm-110-5c-.490-1.95-.635-3.81-.320-4.12.314-.314.973 1.03 1.46 2.98.490 1.95.635 3.81.320 4.12-.314.314-.973-1.03-1.46-2.98zm119-3.88c2.18-4.02 4.46-7.62 5.08-8 .615-.380-.663 2.6-2.84 6.62s-4.46 7.62-5.08 8c-.615.380.663-2.6 2.84-6.62zm-131-5c-1.99-3.22-3.35-5.86-3.02-5.86.943 0 7.75 10.7 7.16 11.2-.291.274-2.16-2.14-4.14-5.36zm9.04.0452c-.490-1.95-.635-3.81-.320-4.12.314-.314.973 1.03 1.46 2.98.490 1.95.635 3.81.320 4.12-.314.314-.973-1.03-1.46-2.98zm117 1.42c-.0725-.738.468-3.43 1.2-5.99 1.04-3.63.857-5.65-.840-9.22-1.63-3.43-2.41-10.8-3.13-29.3-1.36-35.3-2.11-36.5-23.4-37.9-10.6-.703-18-2.68-36-9.54-7.86-3-10.8-3.47-18.9-2.98-9.95.612-21.7 5.14-26.2 10.1-3.11 3.44-5 19.2-4.82 40.2.132 14.6-.309 19.3-2.3 24.6-2.73 7.27-5.07 9.04-6.2 4.7-1.09-4.18-3.96-1.71-3.3 2.83.316 2.15.0139 3.44-.703 3-.696-.430-.899-3.79-.455-7.54.653-5.52-.847-15.6-2.68-18.1-.217-.288-1.46.302-2.76 1.31-2.1 1.63-2.09 1.51.103-1.06 2.41-2.83 2.39-3.14-1.17-14-2-6.09-4.16-11.6-4.8-12.3-1.6-1.73-1.48-3.75.166-2.73 1.92 1.19 1.67-.609-1.3-9.24l-2.63-7.66 3.91-3.29c3.4-2.86 3.74-3.74 2.59-6.75-1.06-2.79-.811-4.01 1.3-6.26 1.44-1.54 3.91-6.27 5.49-10.5 2.66-7.13 6.96-12.9 9.56-12.9.595 0 1.08-.865 1.08-1.92 0-2.8 1.05-3.19 16.9-6.23 31.8-6.1 28.9-5.94 37.6-2.04 8.76 3.93 16.8 4.52 21.1 1.53 2.6-1.82 3.93-1.51 16.5 3.93 15.1 6.54 22.9 11.4 26.6 16.6 2.91 4.09 5.39 12.5 5.4 18.3.004 2.29 1.57 7.58 3.47 11.7 4.45 9.73 5.29 19.9 2.79 34.1-1.95 11.1-1.86 14.3.299 10.8.839-1.36 1.26-1.25 1.93.481 1.25 3.26 1 4.3-.481 2-1.07-1.66-1.3-1.55-1.33.667-.0332 2.17-.274 2.3-1.28.705-1.49-2.35-1.96-1.93-3.64 3.29-.812 2.51-.831 5.81-.0503 8.88.825 3.25.764 5.71-.184 7.34-1.2 2.06-1.43 1.65-1.47-2.55-.0223-2.75-.641-5-1.37-5-.733 0-1.33.9-1.33 2s-.581 2-1.29 2c-.710 0-1 .75-.653 1.67.351.917-.209 4.37-1.24 7.67s-1.94 5.4-2.01 4.66zm13.3-8.66c1.94-4.08 2.56-4.84 2.56-3.14 0 .715-.933 2.47-2.07 3.89-1.96 2.44-1.98 2.4-.486-.745zm-132 0c.0640-1.55.380-1.87.806-.806.385.962.338 2.11-.105 2.56-.443.443-.758-.344-0.7-1.75zm-12.6-1.27c-1.29-3.35-.907-4.22.665-1.52.778 1.34 1.13 2.71.791 3.06-.343.343-.998-.351-1.46-1.54zm-2.06-6.73c.0640-1.55.380-1.87.806-.806.385.962.338 2.11-.105 2.56-.443.443-.758-.344-0.7-1.75zm44.3-.146c1.3-.338 3.1-.316 4 .0494.903.365-.159.642-2.36.615-2.2-.0272-2.94-.326-1.64-.664zm58.7 0c1.3-.338 3.1-.316 4 .0494.903.365-.159.642-2.36.615-2.2-.0272-2.94-.326-1.64-.664zm-60-4.95c-3.2-3.38-4-5.57-1.46-4 .974.602 1.18.364.552-.646-.543-.879-.262-2.47.624-3.54 1.83-2.2 7.25-2.71 5.92-.550-1.06 1.72 1.9 5.52 3.52 4.51 2.24-1.38 1.18 3.02-1.26 5.22-3.21 2.91-4.32 2.77-7.9-1zm59 1c0-1.36-.734-1.86-2-1.38-1.48.568-2-.190-2-2.92 0-4.63 2.22-6.92 6.6-6.79 1.87.0579 2.68.397 1.81.753-2.08.845-.671 4.48 1.73 4.48 2.79 0 2.24 5.04-.722 6.62-3.66 1.96-5.42 1.71-5.42-.762zm48.3-2.52c.0148-2.93.288-3.98.607-2.32s.307 4.06-.0269 5.33-.595-.0822-.580-3.02zm-121-3.37-2.99-4.04 5.07-2.19c7.83-3.38 17.8-2.96 23.6.980 2.65 1.81 4.83 3.78 4.83 4.38.005 0.6-1.82-.211-4.05-1.8-5.51-3.92-12.8-4.73-19.1-2.1-4.36 1.82-5.01 2.62-4.47 5.47.351 1.83.534 3.34.407 3.34s-1.57-1.82-3.22-4.04zm89.1 1.15c1.18-3.31.909-3.7-4.02-5.67-7.3-2.92-11.6-2.63-18.6 1.25l-6 3.33 3.69-3.3c4.25-3.8 13.1-6.56 17.4-5.42 8.76 2.33 12.9 3.89 12.9 4.83 0 .575-1.5 2.73-3.34 4.79l-3.34 3.74zm-116-2c-.0515-1.61.506-3.29 1.24-3.75 1.58-.975 1.58.330 0 4-1.1 2.57-1.15 2.56-1.24-.255zm54-9.98c-4.48-2.36-6.88-2.68-16-2.11l-10.7.666 6.67-1.8c3.67-.991 8.77-1.8 11.3-1.8 5.25.004 16 4.4 16 6.55 0 1.95-1.21 1.7-7.27-1.5zm30 2c0-1.76 9.01-5.71 14.5-6.36 2.65-.316 7.51-.0129 10.8.673l6 1.25-8.67.175c-5.46.110-10.8 1.15-14.5 2.81-6 3-8 4-8 2zm33.1-3.73c.962-.385 2.11-.338 2.56.105.443.443-.344.758-1.75 0.7-1.55-.064-1.87-.380-.806-.806z" fill="#7689ac"/>
  <path d="m18 265c.0643-4.06 4.45-16.2 7.39-20.4 7.21-10.4 19.4-15.3 47.7-19.2 5.08-.699 6.65-1.53 7.6-4.04.661-1.74 2.5-3.85 4.08-4.7 1.58-.847 4.94-6.01 7.47-11.5 2.53-5.47 5.48-10.3 6.55-10.7 1.48-.569.656-2.16-3.41-6.57-7.67-8.32-6.62-8.29 1.72.0467 3.9 3.9 8.85 8 11 9.11l3.92 2.03-.426-13.4c-.583-18.3-.354-18.9 8.48-22.2 9.11-3.41 13-3.58 12.4-.539-.266 1.37-3.4 3.21-8.18 4.81-9 3-10 5-10 16 0 6.82 2.81 12.2 6.36 12.2 1.22 0 5.05-2.8 8.53-6.22l6.31-6.22 6.66 7.1c6.39 6.8 6.79 7.01 9.71 5.07 5.58-3.71 6.23-19.7.982-24.5-2.37-2.14-2.65-2.09-5.27.919l-2.77 3.18 1.52-3.11c1.76-3.61 1.85-3.46-3.37-5.15-4.73-1.53-6.29-5.74-2.12-5.74 3.35 0 13.5 3.81 15.8 5.94 1.16 1.06 1.8 6.51 1.99 17l.291 15.5 3.78-2.22c2.08-1.22 4.41-2.97 5.18-3.89 2-2.39 5.61 2.11 7.71 9.6 1.09 3.88 4.01 8.41 8.5 13.2 6.81 7.22 6.94 7.28 20.8 10.2 7.66 1.62 17 4.09 20.8 5.5 12.6 4.71 21.8 15.3 25.7 29.5l1.38 5h-117c-64.5 0-117-.45-117-1zm122-35c2.86-6.84 6.39-10.5 15.7-16.1 7.26-4.41 7.67-4.94 7.67-9.94 0-5.06-.129-5.22-3-3.71-1.65.865-5.22 3.56-7.94 5.99s-7.47 5.71-10.6 7.28c-4.83 2.46-6.31 2.66-10.5 1.4-2.7-.810-7.55-3.75-10.8-6.52-3.22-2.78-7.51-6.09-9.53-7.37l-3.67-2.32v5.24c0 5.05.346 5.46 9.17 10.9 5.04 3.11 10.2 7.35 11.4 9.42 2.65 4.48 6.05 21.3 6.26 30.9.119 5.48.503 4.14 1.88-6.53.950-7.38 2.71-15.8 3.91-18.6zm34-41.9c1.55-2.18 3.5-4.38 4.33-4.89.832-.514-.167 1.27-2.22 3.96-4.46 5.84-6.14 6.59-2.11.935zm-86.7-11c-.819-1.53-1.24-3.03-.930-3.34.307-.307 1.24.944 2.08 2.78 1.84 4.03.943 4.47-1.15.558zm36.1-1.89c-1.35-1.63-1.28-2 .361-2 1.11 0 2.37.9 2.79 2 .422 1.1.260 2-.361 2s-1.88-.9-2.79-2zm58.7 1.33c0-.733.582-2.23 1.29-3.33.711-1.1 1.29-1.4 1.29-.667s-.582 2.23-1.29 3.33c-.711 1.1-1.29 1.4-1.29.667zm-50.9-21-3.55-2.99 3.07-12 3.07-12-.704 12.1c-.465 7.97-.173 13.1.858 15 1.95 3.64 1.66 3.63-2.75-.088zm57.7 1.67c.0403-1.1.589-3.2 1.22-4.67l1.15-2.67.0733 2.67c.0403 1.47-.508 3.57-1.22 4.67-1.15 1.78-1.28 1.78-1.22 0zm-110-5c-.490-1.95-.635-3.81-.320-4.12.314-.314.973 1.03 1.46 2.98.490 1.95.635 3.81.320 4.12-.314.314-.973-1.03-1.46-2.98zm119-3.88c2.18-4.02 4.46-7.62 5.08-8 .615-.380-.663 2.6-2.84 6.62s-4.46 7.62-5.08 8c-.615.380.663-2.6 2.84-6.62zm-131-5c-1.99-3.22-3.35-5.86-3.02-5.86.943 0 7.75 10.7 7.16 11.2-.291.274-2.16-2.14-4.14-5.36zm9.04.0452c-.490-1.95-.635-3.81-.320-4.12.314-.314.973 1.03 1.46 2.98.490 1.95.635 3.81.320 4.12-.314.314-.973-1.03-1.46-2.98zm117 1.42c-.0725-.738.468-3.43 1.2-5.99 1.04-3.63.857-5.65-.840-9.22-1.63-3.43-2.41-10.8-3.13-29.3-1.36-35.3-2.11-36.5-23.4-37.9-10.6-.703-18-2.68-36-9.54-7.86-3-10.8-3.47-18.9-2.98-9.95.612-21.7 5.14-26.2 10.1-3.11 3.44-5 19.2-4.82 40.2.132 14.6-.309 19.3-2.3 24.6-2.73 7.27-5.07 9.04-6.2 4.7-1.09-4.18-3.96-1.71-3.3 2.83.316 2.15.0139 3.44-.703 3-.696-.430-.899-3.79-.455-7.54.653-5.52-.847-15.6-2.68-18.1-.217-.288-1.46.302-2.76 1.31-2.1 1.63-2.09 1.51.103-1.06 2.41-2.83 2.39-3.14-1.17-14-2-6.09-4.16-11.6-4.8-12.3-1.6-1.73-1.48-3.75.166-2.73 1.92 1.19 1.67-.609-1.3-9.24l-2.63-7.66 3.91-3.29c3.4-2.86 3.74-3.74 2.59-6.75-1.06-2.79-.811-4.01 1.3-6.26 1.44-1.54 3.91-6.27 5.49-10.5 2.66-7.13 6.96-12.9 9.56-12.9.595 0 1.08-.865 1.08-1.92 0-2.8 1.05-3.19 16.9-6.23 31.8-6.1 28.9-5.94 37.6-2.04 8.76 3.93 16.8 4.52 21.1 1.53 2.6-1.82 3.93-1.51 16.5 3.93 15.1 6.54 22.9 11.4 26.6 16.6 2.91 4.09 5.39 12.5 5.4 18.3.004 2.29 1.57 7.58 3.47 11.7 4.45 9.73 5.29 19.9 2.79 34.1-1.95 11.1-1.86 14.3.299 10.8.839-1.36 1.26-1.25 1.93.481 1.25 3.26 1 4.3-.481 2-1.07-1.66-1.3-1.55-1.33.667-.0332 2.17-.274 2.3-1.28.705-1.49-2.35-1.96-1.93-3.64 3.29-.812 2.51-.831 5.81-.0503 8.88.825 3.25.764 5.71-.184 7.34-1.2 2.06-1.43 1.65-1.47-2.55-.0223-2.75-.641-5-1.37-5-.733 0-1.33.9-1.33 2s-.581 2-1.29 2c-.710 0-1 .75-.653 1.67.351.917-.209 4.37-1.24 7.67s-1.94 5.4-2.01 4.66zm13.3-8.66c1.94-4.08 2.56-4.84 2.56-3.14 0 .715-.933 2.47-2.07 3.89-1.96 2.44-1.98 2.4-.486-.745zm-132 0c.0640-1.55.380-1.87.806-.806.385.962.338 2.11-.105 2.56-.443.443-.758-.344-0.7-1.75zm-12.6-1.27c-1.29-3.35-.907-4.22.665-1.52.778 1.34 1.13 2.71.791 3.06-.343.343-.998-.351-1.46-1.54zm-2.06-6.73c.0640-1.55.380-1.87.806-.806.385.962.338 2.11-.105 2.56-.443.443-.758-.344-0.7-1.75zm44.3-.146c1.3-.338 3.1-.316 4 .0494.903.365-.159.642-2.36.615-2.2-.0272-2.94-.326-1.64-.664zm58.7 0c1.3-.338 3.1-.316 4 .0494.903.365-.159.642-2.36.615-2.2-.0272-2.94-.326-1.64-.664zm48-6.41c.0148-2.93.288-3.98.607-2.32s.307 4.06-.0269 5.33-.595-.0822-.580-3.02zm-106 .715c-1.06-.657-1.48-2.29-1.03-4.02.590-2.25.290-2.73-1.33-2.11-1.74.667-1.81.460-.406-1.23 3.03-3.65 6-2.45 6.35 2.56.355 4.99-.783 6.52-3.58 4.79zm-15.9-4.09-2.99-4.04 5.07-2.19c7.83-3.38 17.8-2.96 23.6.980 2.65 1.81 4.83 3.78 4.83 4.38.005 0.6-1.82-.211-4.05-1.8-5.51-3.92-12.8-4.73-19.1-2.1-4.36 1.82-5.01 2.62-4.47 5.47.351 1.83.534 3.34.407 3.34s-1.57-1.82-3.22-4.04zm72.4.706c.562-2.24.282-3.34-.855-3.35-1.16-.014-1.07-.425.308-1.31 2.67-1.72 5.71-1.69 4.63.0584-.473.765-.157 2.24.703 3.27 2.01 2.42.611 4.67-2.89 4.67-2.25 0-2.58-.590-1.9-3.33zm16.7.448c1.18-3.31.909-3.7-4.02-5.67-7.3-2.92-11.6-2.63-18.6 1.25l-6 3.33 3.69-3.3c4.25-3.8 13.1-6.56 17.4-5.42 8.76 2.33 12.9 3.89 12.9 4.83 0 .575-1.5 2.73-3.34 4.79l-3.34 3.74zm-117-3c-.0515-1.61.506-3.29 1.24-3.75 1.58-.975 1.58.330 0 4-1.1 2.57-1.15 2.56-1.24-.255zm54-9.98c-4.48-2.36-6.88-2.68-16-2.11l-10.7.666 6.67-1.8c3.67-.991 8.77-1.8 11.3-1.8 5.25.004 16 4.4 16 6.55 0 1.95-1.21 1.7-7.27-1.5zm30 2c0-1.76 9.01-5.71 14.5-6.36 2.65-.316 7.51-.0129 10.8.673l6 1.25-8.67.175c-5.46.110-10.8 1.15-14.5 2.81-6 3-8 4-8 2zm33.1-3.73c.962-.385 2.11-.338 2.56.105.443.443-.344.758-1.75 0.7-1.55-.064-1.87-.380-.806-.806z" fill="#cc714e"/>
  <path d="m18 265c.0643-4.06 4.45-16.2 7.39-20.4 7.21-10.4 19.4-15.3 47.7-19.2 5.08-.699 6.65-1.53 7.6-4.04.661-1.74 2.5-3.85 4.08-4.7 1.58-.847 4.94-6.01 7.47-11.5 2.53-5.47 5.42-10.3 6.42-10.6 3.74-1.43 7.18 2.03 8.1 8.15.844 5.63 1.41 6.29 9.91 11.5 4.96 3.06 10 7.26 11.2 9.33 2.65 4.48 6.05 21.3 6.26 30.9.119 5.48.503 4.14 1.88-6.53 2.7-21 5.71-26.3 19.6-34.8 7.15-4.34 7.67-5 7.67-9.66 0-6.52 5.17-12.1 8.29-8.98 1.08 1.08 2.72 4.68 3.65 7.99 1.12 4.01 3.98 8.46 8.54 13.3 6.81 7.22 6.94 7.28 20.8 10.2 7.66 1.62 17 4.09 20.8 5.5 12.6 4.71 21.8 15.3 25.7 29.5l1.38 5h-119c-64.5 0-117-.45-117-1zm110-52c-3.07-1.52-8.02-5.41-11-8.64l-5.41-5.87.0204-14.4c.0112-7.9.508-15.1 1.1-16.1 1.3-2.04 13.8-6.96 17.7-6.96 1.85 0 2.61.727 2.32 2.22-.266 1.37-3.4 3.21-8.18 4.81-10 3-11 5-11 16 0 6.82 2.81 12.2 6.36 12.2 1.22 0 5.05-2.8 8.53-6.22l6.31-6.22 6.66 7.1c6.39 6.8 6.79 7.01 9.71 5.07 5.58-3.71 6.23-19.7.982-24.5-2.37-2.14-2.65-2.09-5.27.919l-2.77 3.18 1.52-3.11c1.76-3.61 1.85-3.46-3.37-5.15-4.73-1.53-6.29-5.74-2.12-5.74 3.29 0 13.5 3.8 15.8 5.87 2.42 2.2 3.12 28.5.878 33-2.13 4.27-8.43 9.72-15.3 13.2-6.37 3.25-7.25 3.24-14.1-.166zm-4.41-37.9c-1.35-1.63-1.28-2 .361-2 1.11 0 2.37.9 2.79 2 .422 1.1.260 2-.361 2s-1.88-.9-2.79-2zm-52.3-48c-1.52-2.72-3.76-8.55-4.98-12.9-3.85-13.9-8.98-29.3-10.2-30.6-1.6-1.73-1.48-3.75.166-2.73 1.92 1.19 1.67-.609-1.3-9.24l-2.63-7.66 3.91-3.29c3.4-2.86 3.74-3.74 2.59-6.75-1.06-2.79-.811-4.01 1.3-6.26 1.44-1.54 3.91-6.27 5.49-10.5 2.66-7.13 6.96-12.9 9.56-12.9.595 0 1.08-.865 1.08-1.92 0-2.8 1.05-3.19 16.9-6.23 31.8-6.1 28.9-5.94 37.6-2.04 8.76 3.93 16.8 4.52 21.1 1.53 2.6-1.82 3.93-1.51 16.5 3.93 15.1 6.54 22.9 11.4 26.6 16.6 2.91 4.09 5.39 12.5 5.4 18.3.004 2.29 1.57 7.58 3.47 11.7 1.91 4.16 3.77 11 4.15 15.2 1.2 13.4-5.17 40-11.5 48.2l-2.56 3.32-1.56-3.98c-.858-2.19-2.01-15.1-2.55-28.7-1.41-35.2-2.17-36.4-23.4-37.8-10.6-.703-18-2.68-36-9.54-7.86-3-10.8-3.47-18.9-2.98-9.95.612-21.7 5.14-26.2 10.1-3.11 3.43-5.03 19.4-4.78 39.8.162 13.3-.325 19.1-2.06 24.3-1.25 3.76-2.73 7.12-3.29 7.47-.559.345-2.26-1.6-3.78-4.32zm32 .130c1.3-.338 3.1-.316 4 .0494.903.365-.159.642-2.36.615-2.2-.0272-2.94-.326-1.64-.664zm58.7 0c1.3-.338 3.1-.316 4 .0494.903.365-.159.642-2.36.615-2.2-.0272-2.94-.326-1.64-.664zm-57.6-5.69c-1.06-.657-1.48-2.29-1.03-4.02.590-2.25.290-2.73-1.33-2.11-1.74.667-1.81.460-.406-1.23 3.03-3.65 6-2.45 6.35 2.56.355 4.99-.783 6.52-3.58 4.79zm-15.9-4.09-2.99-4.04 5.07-2.19c7.83-3.38 17.8-2.96 23.6.980 2.65 1.81 4.83 3.78 4.83 4.38.005 0.6-1.82-.211-4.05-1.8-5.51-3.92-12.8-4.73-19.1-2.1-4.36 1.82-5.01 2.62-4.47 5.47.351 1.83.534 3.34.407 3.34s-1.57-1.82-3.22-4.04zm72.4.706c.562-2.24.282-3.34-.855-3.35-1.16-.014-1.07-.425.308-1.31 2.67-1.72 5.71-1.69 4.63.0584-.473.765-.157 2.24.703 3.27 2.01 2.42.611 4.67-2.89 4.67-2.25 0-2.58-.590-1.9-3.33zm16.7.448c1.18-3.31.909-3.7-4.02-5.67-7.3-2.92-11.6-2.63-18.6 1.25l-6 3.33 3.69-3.3c4.25-3.8 13.1-6.56 17.4-5.42 8.76 2.33 12.9 3.89 12.9 4.83 0 .575-1.5 2.73-3.34 4.79l-3.34 3.74zm-63-12c-4.48-2.36-6.88-2.68-16-2.11l-10.7.666 6.67-1.8c3.67-.991 8.77-1.8 11.3-1.8 5.25.004 16 4.4 16 6.55 0 1.95-1.21 1.7-7.27-1.5zm30 2c0-1.76 9.01-5.71 14.5-6.36 2.65-.316 7.51-.0129 10.8.673l6 1.25-8.67.175c-5.46.110-10.8 1.15-14.5 2.81-6 3-8 4-8 2zm33.1-3.73c.962-.385 2.11-.338 2.56.105.443.443-.344.758-1.75 0.7-1.55-.064-1.87-.380-.806-.806z" fill="#997063"/>
  <path d="m18 265c.0643-4.06 4.45-16.2 7.39-20.4 7.21-10.4 19.4-15.3 47.7-19.2 5.08-.699 6.65-1.53 7.6-4.04.661-1.74 2.5-3.85 4.08-4.7 1.58-.846 4.91-5.95 7.4-11.3 2.49-5.39 5.18-10.2 5.98-10.7 0.8-.495 2.87-.143 4.59.781 2.38 1.27 3.24 3.01 3.54 7.16.363 4.96 1.01 5.85 6.93 9.48 11.9 7.32 15.2 11.2 17.6 20.5 1.18 4.69 2.54 13.7 3.04 20l.907 11.5 1.61-15.1c2.36-22.2 5.35-27.5 20.6-36.4 5.23-3.07 6.08-4.21 6.73-9.05.855-6.37 2.93-9.43 6.41-9.43 1.78 0 3.06 1.97 4.76 7.36 1.62 5.15 4.35 9.51 9.07 14.5 6.69 7.09 6.87 7.18 20.7 10.1 7.66 1.62 17 4.09 20.8 5.5 12.6 4.71 21.8 15.3 25.7 29.5l1.38 5h-118c-64.5 0-117-.45-117-1zm106-55c-10.3-7.01-11.6-9.52-12.2-25-.444-10.3-.125-14.2 1.35-16.4 2.11-3.22 15.8-8.51 18.2-7.04 2.87 1.78 1.4 3.23-5.52 5.45-10 3-12 6-12 16 0 7.03.487 8.74 3.21 11.3 3.95 3.71 6.58 2.63 12.8-5.24l4.28-5.41 7.16 6.77c6.23 5.89 7.52 6.58 9.91 5.3 3.41-1.82 5.29-6.56 5.29-13.3 0-9.1-1.73-11.5-10.6-14.7-5-1-8-3-8-4 0-2.45 5.44-1.58 14.1 2.26l6 3v15.5c0 17.9-.961 20.1-11.6 27.2-8.35 5.53-14.1 5.48-22.5-.209zm.0319-34.4c-1.44-2.32.199-2.81 2.03-.610 1.05 1.27 1.15 2.03.269 2.03-.780 0-1.81-.640-2.3-1.42zm21.5-2.97c.501-1.31 1.25-2.05 1.66-1.64.411.411.00085 1.49-.910 2.39-1.32 1.31-1.47 1.15-.746-.746zm47.2-45.3c-.882-2.39-2.05-15.1-2.59-28.3-1.07-26-2.75-33.1-8.34-35.1-1.69-.622-7.91-1.49-13.8-1.93-10.1-.749-19.4-3.21-38.6-10.2-10.8-3.97-23.7-3.35-34 1.63-4.03 1.95-8.33 4.36-9.56 5.36-3.1 2.53-5.11 18.6-5.1 40.8.005 13.8-.543 19.8-2.26 24.6-1.25 3.48-2.74 6.33-3.31 6.33-2.31 0-5.29-7-11-25.9-3.32-10.9-6.72-20.6-7.55-21.6-1.17-1.41-1.02-1.82.636-1.82 1.9 0 1.85-.755-.503-6.72-3.42-8.69-3.34-10.8.597-14.5 2.7-2.54 3.03-3.61 1.96-6.43-1.03-2.7-.757-3.95 1.33-6.18 1.44-1.54 3.87-6.16 5.4-10.3 1.65-4.42 4.68-9.2 7.43-11.7 2.55-2.32 4.64-4.76 4.64-5.41 0-.649 4.35-1.89 9.67-2.75 5.32-.863 13.1-2.42 17.2-3.45 10.7-2.67 21.1-2.39 28 .752 6.63 3.01 13 3.39 19.2 1.15 3.78-1.37 5.55-1.03 15.3 2.89 22.6 9.12 31.8 18.3 32.4 32.3.172 3.99 1.58 9.67 3.26 13.1 5.98 12.3 6.6 24.8 2.14 43.3-2.5 10.4-5.36 17.7-8.43 21.6l-2.45 3.12zm-87.9-6.29c-1.06-.657-1.48-2.29-1.03-4.02.590-2.25.290-2.73-1.33-2.11-1.74.667-1.81.460-.406-1.23 3.03-3.65 6-2.45 6.35 2.56.355 4.99-.783 6.52-3.58 4.79zm-15.9-4.06-2.97-4.01 3.72-1.51c6.56-2.66 18.2-2.98 22.8-.618 2.27 1.17 4.52 2.76 4.99 3.52.472.763-1.14.170-3.58-1.32-5.38-3.28-12.7-3.48-19-.521-4.04 1.93-4.46 2.58-3.41 5.33 1.58 4.14 1.03 3.96-2.54-.876zm72.3.681c.562-2.24.282-3.34-.855-3.35-1.16-.014-1.07-.425.308-1.31 2.67-1.72 5.71-1.69 4.63.0584-.473.765-.157 2.24.703 3.27 2.01 2.42.611 4.67-2.89 4.67-2.25 0-2.58-.590-1.9-3.33zm17.5-.694c1.59-5.02-11.7-8.45-20.3-5.22-3 1.13-3.42 1.08-2.11-.247 2.64-2.67 16.4-3.1 22.1-.686 4.98 2.08 5 2.12 2.8 5.47-2.67 4.07-3.73 4.35-2.56.683zm-60.4-10.2c-1.69-1.17-6.19-2.89-10-3.82-6.01-1.46-6.35-1.7-2.52-1.79 4.74-.122 17.6 4.78 17.6 6.72 0 1.68-1.56 1.34-5.06-1.11zm28.4.933c2.19-3.54 18-8.27 18-5.38 0 .767-1.35 1.41-3 1.42-1.65.0161-5.62 1.22-8.81 2.67-6.64 3.01-7.33 3.16-6.18 1.29zm-48.9-4.9c.962-.385 2.11-.338 2.56.105.443.443-.344.758-1.75 0.7-1.55-.064-1.87-.380-.806-.806zm73.9-1c.917-.370 2.42-.370 3.33 0 .917.370.167.673-1.67.673-1.83 0-2.58-.303-1.67-.673z" fill="#607695"/>
  <path d="m18.9 262c2.69-14.4 13-26.6 25.9-30.6 3.96-1.24 13.6-3.25 21.5-4.47 10.2-1.58 14.3-2.75 14.3-4.05 0-1.01 2.25-4.1 5-6.88s6.2-8.23 7.67-12.1c3.38-8.96 5.08-10.5 9.31-8.19 2.47 1.32 3.31 3.01 3.62 7.2.363 4.96 1.01 5.85 6.93 9.48 15.8 9.7 18.9 15.9 20.4 41l.779 13h-117zm116-1c.0573-6.97 2.29-23.5 4.06-30.1 1.69-6.29 8.19-13.2 17.4-18.5 5.44-3.12 6.21-4.15 6.89-9.18 1.58-11.8 7.84-12.1 11.6-.704 1.14 3.52 4.78 9.53 8.08 13.3 5.81 6.72 6.36 7.02 17.3 9.26 26.4 5.4 36.5 10.2 43.3 20.4 3.37 5.11 7.41 15.2 7.41 18.5 0 1.53-9.69 1.83-58 1.83h-58l.0412-5zm-11.5-51.3c-10.3-7.01-11.6-9.52-12.2-25-.444-10.3-.125-14.2 1.35-16.4 2.11-3.22 15.8-8.51 18.2-7.04 2.87 1.78 1.4 3.23-5.52 5.45-10 3-12 6-12 16 0 7.03.487 8.74 3.21 11.3 3.95 3.71 6.58 2.63 12.8-5.24l4.28-5.41 7.16 6.77c6.23 5.89 7.52 6.58 9.91 5.3 3.41-1.82 5.29-6.56 5.29-13.3 0-9.1-1.73-11.5-10.6-14.7-5-1-8-3-8-4 0-2.45 5.44-1.58 14.1 2.26l6 3v15.5c0 17.9-.961 20.1-11.6 27.2-8.35 5.53-14.1 5.48-22.5-.209zm.309-33.9c-.489-.489-.889-1.51-.889-2.27 0-.835.621-.757 1.58.2.868.868 1.27 1.89.889 2.27-.379.379-1.09.289-1.58-.2zm68.4-48.8c-.882-2.39-2.05-15.1-2.59-28.3-1.07-26-2.75-33.1-8.34-35.1-1.69-.622-7.91-1.49-13.8-1.93-10.1-.749-19.4-3.21-38.6-10.2-10.8-3.97-23.7-3.35-34 1.63-4.03 1.95-8.33 4.36-9.56 5.36-3.1 2.53-5.11 18.6-5.1 40.8.005 13.8-.543 19.8-2.26 24.6-1.25 3.48-2.74 6.33-3.31 6.33-2.31 0-5.29-7-11-25.9-3.32-10.9-6.72-20.6-7.55-21.6-1.17-1.41-1.02-1.82.636-1.82 1.9 0 1.85-.755-.503-6.72-3.42-8.69-3.34-10.8.597-14.5 2.7-2.54 3.03-3.61 1.96-6.43-1.03-2.7-.757-3.95 1.33-6.18 1.44-1.54 3.87-6.16 5.4-10.3 1.65-4.42 4.68-9.2 7.43-11.7 2.55-2.32 4.64-4.76 4.64-5.41 0-.649 4.35-1.89 9.67-2.75 5.32-.863 13.1-2.42 17.2-3.45 10.7-2.67 21.1-2.39 28 .752 6.63 3.01 13 3.39 19.2 1.15 3.78-1.37 5.55-1.03 15.3 2.89 22.6 9.12 31.8 18.3 32.4 32.3.172 3.99 1.58 9.67 3.26 13.1 5.98 12.3 6.6 24.8 2.14 43.3-2.5 10.4-5.36 17.7-8.43 21.6l-2.45 3.12zm-104-10.4-2.97-4.01 3.72-1.51c6.56-2.66 18.2-2.98 22.8-.618 2.27 1.17 4.52 2.76 4.99 3.52.472.763-1.14.170-3.58-1.32-5.38-3.28-12.7-3.48-19-.521-4.04 1.93-4.46 2.58-3.41 5.33 1.58 4.14 1.03 3.96-2.54-.876zm16 3c-1.12-1.81.390-4 2.75-4 1.06 0 1.92 1.2 1.92 2.67 0 2.76-3.22 3.68-4.67 1.33zm57.3 0c-1.09-1.76.369-4 2.6-4 1.95 0 3.69 3.26 2.42 4.54-1.24 1.24-4.11.937-5.02-.536zm17.3-2.69c1.59-5.02-11.7-8.45-20.3-5.22-3 1.13-3.42 1.08-2.11-.247 2.64-2.67 16.4-3.1 22.1-.686 4.98 2.08 5 2.12 2.8 5.47-2.67 4.07-3.73 4.35-2.56.683zm-60.4-10.2c-1.69-1.17-6.19-2.89-10-3.82-6.01-1.46-6.35-1.7-2.52-1.79 4.74-.122 17.6 4.78 17.6 6.72 0 1.68-1.56 1.34-5.06-1.11zm28.4.933c2.19-3.54 18-8.27 18-5.38 0 .767-1.35 1.41-3 1.42-1.65.0161-5.62 1.22-8.81 2.67-6.64 3.01-7.33 3.16-6.18 1.29zm-48.9-4.9c.962-.385 2.11-.338 2.56.105.443.443-.344.758-1.75 0.7-1.55-.064-1.87-.380-.806-.806zm73.9 0c.917-.370 2.42-.370 3.33 0 .917.370.167.673-1.67.673-1.83 0-2.58-.303-1.67-.673z" fill="#504543"/>
  <path d="m18.9 262c1.48-7.94 5.9-16.6 11.1-21.6 2.83-2.76 5.8-4.6 6.62-4.09.818.505 1.32.206 1.12-.666-.547-2.37 11.8-6.17 27.6-8.52 7.74-1.15 14.3-2.09 14.7-2.09.344 0 .626-.9.626-2s2.25-4.28 5-7.08c2.75-2.79 6.27-8.32 7.83-12.3 1.56-3.97 3.77-7.81 4.92-8.53 3.14-1.98 7.35 2.52 7.84 8.38.367 4.4 1.31 5.45 10 11.2 5.29 3.49 10.3 7.66 11.2 9.27 2.88 5.38 5.09 16.2 6 29.4l.897 13h-116zm117-6.67c1.01-14.5 3.87-27.1 7.26-31.8 1.51-2.12 5.55-5.45 8.98-7.41 9.86-5.62 12.2-8.29 12.2-13.7 0-3.4.802-5.28 2.77-6.51 3.72-2.32 5.87-.401 7.7 6.86.877 3.48 3.91 8.55 7.81 13.1 5.78 6.68 7.14 7.53 14.4 9.01 26.1 5.33 37.7 10.1 44.6 18.4 4 4.84 9.45 17 9.45 21.1 0 1.68-7.99 1.95-58 1.95h-58zm-10-43c-6.49-3.9-10.6-7.84-13-12.5-1.8-3.53-1.34-3.3 3.97 2 3.31 3.3 7.88 7.08 10.2 8.4 3.99 2.31 4.11 2.31 3.24 0-.790-2.11-.626-2.18 1.35-.569 1.91 1.55 2.25 1.55 2.27 0 .0173-1.55.198-1.55 1.18-.003.934 1.47 1.44 1.35 2.61-.667 1.32-2.27 1.45-2.29 1.49-.160.0223 1.28.438 2.33.923 2.33 2.74 0 13-7.5 15.2-11.1 1.42-2.33 2.58-3.42 2.58-2.43.009 3.18-5.16 9.18-11.6 13.4-7.44 4.93-13.7 5.33-20.4 1.31zm-2.05-35.9c-.483-.782-.593-1.71-.243-2.06s.991.290 1.43 1.42c.902 2.35.133 2.76-1.18.635zm68.7-48.2c-.882-2.39-2.05-15.1-2.59-28.3-1.07-26-2.75-33.1-8.34-35.1-1.69-.622-7.91-1.49-13.8-1.93-10.1-.749-19.4-3.21-38.6-10.2-10.8-3.97-23.7-3.35-34 1.63-4.03 1.95-8.33 4.36-9.56 5.36-3.1 2.53-5.11 18.6-5.1 40.8.005 13.8-.543 19.8-2.26 24.6-1.25 3.48-2.74 6.33-3.31 6.33-2.02 0-5.12-6.3-7.92-16.1-2.36-8.26-7.2-23.6-10.1-31.9-.382-1.1.268-.697 1.45.894 1.82 2.46 5.82 13.6 12.6 35.1 2.57 8.16.383-9.44-2.44-19.6-1.34-4.84-2.16-9.53-1.82-10.4.341-.888-.614-5.28-2.12-9.75s-2.74-9.15-2.74-10.4c0-2.02.291-1.99 2.84.291l2.84 2.54-.669-7.33c-.368-4.03-1.09-8.34-1.61-9.56-.705-1.66-.160-2.34 2.16-2.67 2.74-.388 3.15-1.26 3.51-7.53l.406-7.09 4.06.892c3.78.830 4 .675 3.15-2.24-.498-1.72-1.2-4.19-1.56-5.47-.825-2.96 1.89-3.02 5.09-.127 1.34 1.21 2.44 1.63 2.44.922 0-.707.769-2.34 1.71-3.62 1.6-2.19 2.25-2.08 10.3 1.74 9.98 4.72 12.7 5.14 11.3 1.75-2.7-6.56-2.55-7.07 1.53-5.13 2.1.999 5.46 2.2 7.48 2.66 3.07.709 3.67.408 3.67-1.85 0-1.48.45-2.67 1-2.65.55.0246 5.77 3.31 11.6 7.3s10.8 7.02 11.1 6.75c.278-.279-.482-2.42-1.69-4.75-2.54-4.9-1.74-6.69 1.66-3.71 1.29 1.13 4.29 3.04 6.67 4.25l4.33 2.2v-4.33c0-4.11.0944-4.2 1.89-1.64 1.04 1.48 4.94 4.59 8.67 6.91 6.48 4.03 6.78 4.09 6.78 1.38 0-2.25 1.01-1.53 4.95 3.53 2.95 3.78 5.15 5.63 5.44 4.55 1.44-5.34 1.58-5.49 3.62-3.8 1.09.903 2.68 3.99 3.54 6.86.932 3.11 1.95 4.59 2.53 3.67.843-1.36 3.94 7.26 5.55 15.5.288 1.47 1.24 2.52 2.11 2.33 1.01-.213 1.59 1.55 1.59 4.89 0 2.87.615 5.43 1.37 5.68.888.296 0.7 2.67-.535 6.78-1.05 3.48-1.36 5.99-0.7 5.58 1.54-.951 1.57 4.22.0363 7.17-.641 1.24-.736 3.43-.210 4.88 1.47 4.07 4.53-18.2 3.66-26.6-.405-3.93-1.99-10-3.52-13.6-2.61-6.04-2.62-6.23-.189-3.11 6.32 8.1 7.64 24.8 3.43 43.3-2.73 12-5.2 18.6-8.69 23l-2.39 3.03-1.6-4.34zm9.15-17c0-1.26-.424-1.01-1.15.667-.630 1.47-1.15 3.57-1.15 4.67 0 1.26.424 1.01 1.15-.667.630-1.47 1.15-3.57 1.15-4.67zm-113 6.65-2.97-4.01 3.72-1.51c6.56-2.66 18.2-2.98 22.8-.618 2.27 1.17 4.52 2.76 4.99 3.52.472.763-1.14.170-3.58-1.32-5.38-3.28-12.7-3.48-19-.521-4.04 1.93-4.46 2.58-3.41 5.33 1.58 4.14 1.03 3.96-2.54-.876zm15 2c-1.12-1.81.390-4 2.75-4 1.06 0 1.92 1.2 1.92 2.67 0 2.76-3.22 3.68-4.67 1.33zm57.3 0c-1.09-1.76.369-4 2.6-4 1.95 0 3.69 3.26 2.42 4.54-1.24 1.24-4.11.937-5.02-.536zm17.3-2.69c1.59-5.02-11.7-8.45-20.3-5.22-3 1.13-3.42 1.08-2.11-.247 2.64-2.67 16.4-3.1 22.1-.686 4.98 2.08 5 2.12 2.8 5.47-2.67 4.07-3.73 4.35-2.56.683zm-121-43.2c-1.54-4.11-2.76-8.2-2.7-9.09.0511-.889 1.57 2.21 3.38 6.89s3.03 8.77 2.7 9.09c-.321.321-1.84-2.78-3.38-6.89zm141-20.7c-.324-7.22-3.94-15.5-8.65-19.8-1.9-1.75-9.63-6.38-17.2-10.3-7.55-3.91-13.4-7.13-12.9-7.15 1.85-.101 19.7 7.83 24.6 10.9 6.43 4.06 13.6 11.9 14.6 16.1.423 1.69.540 6.02.260 9.64l-.509 6.58zm-132-15.6c2.53-6.24 4.97-9.9 8.18-12.2l4.58-3.34-3.8 3.75c-2.09 2.06-5.52 7.57-7.61 12.2-5.02 11.2-5.93 10.9-1.35-.412zm27.5-21c5.18-1.01 11.8-2.49 14.7-3.29 2.88-0.8 7.64-1.39 10.6-1.3 4.57.133 4.19.321-2.67 1.32-4.4.638-9.66 1.74-11.7 2.44-2.02.703-7.42 1.59-12 1.97l-8.32.692zm45.7.999c.962-.385 2.11-.338 2.56.105.443.443-.344.758-1.75 0.7-1.55-.0640-1.87-.380-.806-.806zm8 0c.962-.385 2.11-.338 2.56.105.443.443-.344.758-1.75 0.7-1.55-.0640-1.87-.380-.806-.806zm-14.4-1.76c-1.1-.711-1.4-1.29-.667-1.29s2.23.582 3.33 1.29c1.1.711 1.4 1.29.667 1.29s-2.23-.582-3.33-1.29z" fill="#54423d"/>
  <path d="m18.9 262c1.48-7.94 5.9-16.6 11.1-21.6 2.83-2.76 5.8-4.6 6.62-4.09.818.505 1.32.206 1.12-.666-.547-2.37 11.8-6.17 27.6-8.52 7.74-1.15 14.3-2.09 14.7-2.09.344 0 .626-.9.626-2s2.25-4.28 5-7.08c2.75-2.79 6.27-8.32 7.83-12.3 1.56-3.97 3.77-7.81 4.92-8.53 3.14-1.98 7.35 2.52 7.84 8.38.367 4.4 1.31 5.45 10 11.2 5.29 3.49 10.3 7.66 11.2 9.27 2.88 5.38 5.09 16.2 6 29.4l.897 13h-116zm117-6.67c1.01-14.5 3.87-27.1 7.26-31.8 1.51-2.12 5.55-5.45 8.98-7.41 9.86-5.62 12.2-8.29 12.2-13.7 0-3.4.802-5.28 2.77-6.51 3.72-2.32 5.87-.401 7.7 6.86.877 3.48 3.91 8.55 7.81 13.1 5.78 6.68 7.14 7.53 14.4 9.01 26.1 5.33 37.7 10.1 44.6 18.4 4 4.84 9.45 17 9.45 21.1 0 1.68-7.99 1.95-58 1.95h-58zm-11.9-45.1c-5.27-3.49-11.6-10.1-11.6-12.2 0-.323 2.42 1.71 5.38 4.53 2.96 2.81 7.14 6.03 9.3 7.14 3.65 1.89 3.86 1.86 3.04-.322-.772-2.06-.602-2.12 1.37-.519 1.91 1.55 2.25 1.55 2.27 0 .0171-1.53.205-1.54 1.17-.0209.878 1.39 1.38 1.43 2.15.191.780-1.26 1.22-1.25 2.02.0369 1.52 2.46 11.8-3.64 15.6-9.23 1.68-2.49 3.05-3.83 3.05-2.97 0 2.57-10.4 13.1-15.3 15.4-6.63 3.14-11.6 2.61-18.5-2zm-.286-34.6c-.483-.782-.593-1.71-.243-2.06s.991.290 1.43 1.42c.902 2.35.133 2.76-1.18.635zm-51.7-48c-1.1-1.68-4.2-10.5-6.89-19.5-2.69-9.07-5.75-18.6-6.81-21.1-2.43-5.82-2.45-6.95-.0466-3.53 2 2.86 8.58 21.5 12.1 34.4 1.18 4.3 2.42 7.54 2.75 7.22.927-.927-3.09-22.4-5.43-29-1.15-3.27-1.55-6.13-.871-6.35.674-.225-.221-4.96-1.99-10.5-3.42-10.8-3.29-12.9.592-9.34 2.3 2.08 2.37 1.82 1.53-6.27-.481-4.65-1.33-9.18-1.88-10.1-.702-1.14-.0590-1.49 2.14-1.18 2.91.409 3.2-0.1 3.81-6.89.643-7.07.799-7.32 4.33-6.95 4.02.420 4.35-.418 2.3-5.82-1.78-4.68-.840-5.45 3.33-2.72 1.86 1.22 3.37 1.71 3.37 1.1s.802-2.21 1.78-3.55c1.71-2.34 2.03-2.29 7.67.948 3.24 1.86 7.89 3.81 10.3 4.32 4.74.990 4.8.762 1.81-7.17-.541-1.44.003-1.39 2.52.235 1.76 1.14 5.42 2.47 8.12 2.96 4.59.838 4.86.703 4.14-2.05-.718-2.74-.549-2.83 2.42-1.26 1.76.931 7.03 4.31 11.7 7.51 4.69 3.2 8.75 5.6 9.02 5.33.269-.269-.454-2.75-1.61-5.51l-2.1-5.02 3.91 2.78c2.15 1.53 5.48 3.38 7.41 4.11 3.2 1.22 3.51 1.05 3.51-1.96v-3.29l6.14 4.68c9.05 6.91 11.2 7.89 11.2 5.11 0-1.54 1.61-.403 4.91 3.45 4.69 5.48 4.96 5.61 6 2.8 1.64-4.42 4.16-2.63 6.65 4.71 1.22 3.61 2.29 5.37 2.37 3.9.237-4.28 2.18.104 4.13 9.33.931 4.4 2.2 8.57 2.81 9.27.617.697 1.12 3.31 1.12 5.81 0 3.4.482 4.36 1.91 3.81 1.66-.636 1.66.0946.0455 5.47-1.4 4.65-1.48 6.45-.323 7.16 1.17.721 1.15 1.82-.0624 4.48-.884 1.94-1.26 4.09-.835 4.78.425.688-.203 4.61-1.4 8.71-1.19 4.1-1.92 7.71-1.61 8.02.806.806 4.54-13.3 6.37-24 1.95-11.5 1.01-22.5-2.64-31-2.62-6.06-2.64-6.28-.225-3.19 8.46 10.8 7.18 42.2-2.49 61.2-5.82 11.4-6.68 9.09-8.73-23.9-1.73-27.7-3.23-33.6-9.08-35.9-1.61-.626-8.94-1.73-16.3-2.46-10.3-1.01-16.2-2.49-26-6.41-11-4.5-14-4.9-25-5-12-.0614-13.1.189-21.1 4.52-5.33 2.89-8.97 5.85-9.84 8-.757 1.88-1.64 14.8-1.97 28.7-.735 31.5-3.74 43.9-8.78 36.3zm73.7-80.6c-1.1-.711-2.6-1.29-3.33-1.29-.733 0-.433.582.667 1.29 1.1.711 2.6 1.29 3.33 1.29.733 0 .433-.582-.667-1.29zm-27-4.81c-.443-.443-1.59-.490-2.56-.105-1.06.426-.748.742.806.806 1.41.0579 2.19-.257 1.75-0.7zm-10-1.4c-.917-.370-2.42-.370-3.33 0-.917.370-.167.673 1.67.673 1.83 0 2.58-.303 1.67-.673zm-5 79.5c-1.12-1.81.390-4 2.75-4 1.06 0 1.92 1.2 1.92 2.67 0 2.76-3.22 3.68-4.67 1.33zm57.3 0c-1.09-1.76.369-4 2.6-4 1.95 0 3.69 3.26 2.42 4.54-1.24 1.24-4.11.937-5.02-.536zm-72.6-3.27c-.886-1.07-1.24-2.55-.782-3.28 1.22-1.98 9.95-4.12 16.1-3.93 5.19.155 5.15.185-1.43 1.15-8.38 1.23-13 3.58-12.1 6.11.934 2.43.236 2.42-1.81-.0438zm90.6-.515c0-2.29-5.41-4.7-12.7-5.64l-6-1 6.13-.188c5.8-.177 13.9 1.72 16.3 3.78.581.518.131 1.71-1 2.65-1.32 1.1-2.06 1.19-2.06.257zm-122-42.2c-1.54-4.11-2.76-8.2-2.7-9.09.0511-.889 1.57 2.21 3.38 6.89s3.03 8.77 2.7 9.09c-.321.321-1.84-2.78-3.38-6.89zm141-20.7c-.304-7.2-3.91-15.5-8.6-19.8-1.89-1.74-9.01-6.11-15.8-9.73-13.8-7.33-11.1-7.46 3.88-.186 16.2 7.87 22.7 17.2 21.4 30.5l-.539 5.27zm-132-15.6c2.53-6.24 4.97-9.9 8.18-12.2l4.58-3.34-3.8 3.75c-2.09 2.06-5.52 7.57-7.61 12.2-5.02 11.2-5.93 10.9-1.35-.412zm27.5-21c5.18-1.01 11.8-2.49 14.7-3.29 2.88-0.8 7.64-1.39 10.6-1.3 4.57.133 4.19.321-2.67 1.32-4.4.638-9.66 1.74-11.7 2.44-2.02.703-7.42 1.59-12 1.97l-8.32.692zm45.7.999c.962-.385 2.11-.338 2.56.105.443.443-.344.758-1.75 0.7-1.55-.0640-1.87-.380-.806-.806zm8 0c.962-.385 2.11-.338 2.56.105.443.443-.344.758-1.75 0.7-1.55-.0640-1.87-.380-.806-.806zm-14.4-1.76c-1.1-.711-1.4-1.29-.667-1.29s2.23.582 3.33 1.29c1.1.711 1.4 1.29.667 1.29s-2.23-.582-3.33-1.29z" fill="#114f6f"/>
  <path d="m133 258c0-4.77.242-6.72.538-4.33.296 2.38.296 6.28 0 8.67-.296 2.38-.538.433-.538-4.33zm3.07-2.67c1.01-14.8 3.85-27.3 7.27-32.1 1.51-2.12 5.55-5.45 8.98-7.4 3.44-1.96 7.89-5.06 9.9-6.91 2.01-1.84 3.97-3.03 4.37-2.64.789.789-6.11 6.89-15.3 13.5-6.18 4.47-8.29 7.59-5.11 7.59 2.17 0 6.28 4.24 9.69 10 1.59 2.69.520 1.92-3.26-2.33-3.1-3.48-6.21-6.33-6.92-6.33s-2.76 3.15-4.55 7c-2.53 5.43-3.27 9.24-3.29 17-.0184 5.5-.611 10.9-1.32 12-.847 1.32-1.02-1.85-.508-9.33zm114 9.33c-.0585-1.1-1.82-5.6-3.91-10-3.93-8.27-14.6-19.5-20.1-21.3-1.65-.524-2.69-1.26-2.32-1.63 1.57-1.57 14.9 7.32 19 12.7 4.65 6.09 9.26 17.8 8.12 20.6-.456 1.13-.705 1.02-.777-.339zm-231-2c-.0264-1.26 1.15-5.48 2.61-9.39 4.54-12.1 16.6-21.2 30.7-23 5.8-.733 5.76-.702-1.39 1.3-16.8 4.71-23.9 11-29.3 26-1.44 4.03-2.64 6.31-2.67 5.05zm144-11c-1.66-2.11-1.61-2.16.503-.503 1.28 1.01 2.33 2.06 2.33 2.33 0 1.1-1.09.391-2.84-1.83zm-68.4-1.28c-.724-1.9-.570-2.05.746-.746.911.904 1.32 1.98.910 2.39-.411.411-1.16-.329-1.66-1.64zm80-1.72c.605-1.1 3.69-5.82 6.86-10.5 6.94-10.2 7.19-13.8 1.43-20.2-2.73-3.01-2.26-2.71 1.27.796 3.12 3.11 7.84 6.21 10.7 7l5.07 1.43-5.67-.732c-4.43-.572-5.67-.304-5.67 1.23 0 1.08-2.78 6.08-6.18 11.1-6 8.88-10.1 14.1-7.77 9.82zm-62.1-7.53c4.1-7.49 8.92-12.5 12.1-12.5 6.02 0-.371-7.83-9.7-11.9-9.33-4.05-14.8-12.1-11.7-17.1 1.28-2.04 1.36-1.95.637.705-1.25 4.56 2.31 8.93 12.7 15.6 5.07 3.25 10.1 7.58 11.1 9.62 2.3 4.48 5.42 18.9 4.33 20-.431.431-.796-.367-.812-1.77-.048-4.19-5.02-13.9-7.13-13.9-1.07 0-4.21 3.15-6.96 7-6.79 9.48-8.19 10.7-4.57 4.14zm-31-11c-.758-1.42-2.73-2.83-4.38-3.15-2.73-.526-2.69-.594.450-.760 2.49-.131 3.88.750 4.97 3.15 1.78 3.91.966 4.51-1.04.760zm-21-1.02c1.3-.338 3.1-.316 4 .0495.903.365-.159.642-2.36.615-2.2-.0272-2.94-.326-1.64-.664zm7.31-1.29c.917-.370 2.42-.370 3.33 0 .917.370.167.673-1.67.673-1.83 0-2.58-.303-1.67-.673zm12.3-5.7c0-.690.593-1.62 1.32-2.07.756-.467.979.0681.524 1.25-.886 2.31-1.84 2.73-1.84.815zm6-5.41c1.33-1.47 2.71-2.67 3.08-2.67.367 0-.419 1.2-1.75 2.67s-2.71 2.67-3.08 2.67c-.367 0 .419-1.2 1.75-2.67zm37.6-5.46c-5.27-3.49-11.6-10.1-11.6-12.2 0-.323 2.42 1.71 5.38 4.53 2.96 2.81 7.14 6.03 9.3 7.14 3.65 1.89 3.86 1.86 3.04-.322-.772-2.06-.602-2.12 1.37-.519 1.91 1.55 2.25 1.55 2.27 0 .0171-1.53.205-1.54 1.17-.0209.878 1.39 1.38 1.43 2.15.191.780-1.26 1.22-1.25 2.02.0369 1.52 2.46 11.8-3.64 15.6-9.23 1.68-2.49 3.05-3.83 3.05-2.97 0 2.57-10.4 13.1-15.3 15.4-6.63 3.14-11.6 2.61-18.5-2zm51.7-1.3c-.483-.782-.593-1.71-.243-2.06.349-.350.991.290 1.42 1.42.902 2.35.133 2.76-1.18.635zm-11.1-6.58c0-1.83.303-2.58.673-1.67.370.917.370 2.42 0 3.33-.370.917-.673.167-.673-1.67zm2.56-.778c.064-1.55.380-1.87.806-.806.385.962.338 2.11-.105 2.56-.443.443-.758-.344-0.7-1.75zm5.33-2.67c.064-1.55.380-1.87.806-.806.385.962.338 2.11-.105 2.56-.443.443-.758-.344-0.7-1.75zm-49-23c-.483-.782-.593-1.71-.243-2.06s.991.290 1.43 1.42c.902 2.35.133 2.76-1.18.635zm-51.7-49c-1.1-1.68-4.2-10.5-6.89-19.5-2.69-9.07-5.75-18.6-6.81-21.1-2.43-5.82-2.45-6.95-.0466-3.53 2 2.86 8.58 21.5 12.1 34.4 1.18 4.3 2.42 7.54 2.75 7.22.927-.927-3.09-22.4-5.43-29-1.15-3.27-1.55-6.13-.871-6.35.674-.225-.221-4.96-1.99-10.5-3.42-10.8-3.29-12.9.592-9.34 2.3 2.08 2.37 1.82 1.53-6.27-.481-4.65-1.33-9.18-1.88-10.1-.702-1.14-.0590-1.49 2.14-1.18 2.91.409 3.2-0.1 3.81-6.89.643-7.07.799-7.32 4.33-6.95 4.02.420 4.35-.418 2.3-5.82-1.78-4.68-.840-5.45 3.33-2.72 1.86 1.22 3.37 1.71 3.37 1.1s.802-2.21 1.78-3.55c1.71-2.34 2.03-2.29 7.67.948 3.24 1.86 7.89 3.81 10.3 4.32 4.74.990 4.8.762 1.81-7.17-.541-1.44.003-1.39 2.52.235 1.76 1.14 5.42 2.47 8.12 2.96 4.59.838 4.86.703 4.14-2.05-.718-2.74-.549-2.83 2.42-1.26 1.76.931 7.03 4.31 11.7 7.51 4.69 3.2 8.75 5.6 9.02 5.33.269-.269-.454-2.75-1.61-5.51l-2.1-5.02 3.91 2.78c2.15 1.53 5.48 3.38 7.41 4.11 3.2 1.22 3.51 1.05 3.51-1.96v-3.29l6.14 4.68c9.05 6.91 11.2 7.89 11.2 5.11 0-1.54 1.61-.403 4.91 3.45 4.69 5.48 4.96 5.61 6 2.8 1.64-4.42 4.16-2.63 6.65 4.71 1.22 3.61 2.29 5.37 2.37 3.9.237-4.28 2.18.104 4.13 9.33.931 4.4 2.2 8.57 2.81 9.27.617.697 1.12 3.31 1.12 5.81 0 3.4.482 4.36 1.91 3.81 1.66-.636 1.66.0946.0455 5.47-1.4 4.65-1.48 6.45-.323 7.16 1.17.721 1.15 1.82-.0624 4.48-.884 1.94-1.26 4.09-.835 4.78.425.688-.203 4.61-1.4 8.71-1.19 4.1-1.92 7.71-1.61 8.02.806.806 4.54-13.3 6.37-24 1.95-11.5 1.01-22.5-2.64-31-2.62-6.06-2.64-6.28-.225-3.19 8.46 10.8 7.18 42.2-2.49 61.2-5.82 11.4-6.68 9.09-8.73-23.9-1.73-27.7-3.23-33.6-9.08-35.9-1.61-.626-8.94-1.73-16.3-2.46-10.3-1.01-16.2-2.49-26-6.41-11-4.5-14-4.9-25-5-12-.0614-13.1.189-21.1 4.52-5.33 2.89-8.97 5.85-9.84 8-.757 1.88-1.64 14.8-1.97 28.7-.735 31.5-3.74 43.9-8.78 36.3zm73.7-80.6c-1.1-.711-2.6-1.29-3.33-1.29-.733 0-.433.582.667 1.29 1.1.711 2.6 1.29 3.33 1.29.733 0 .433-.582-.667-1.29zm-27-4.81c-.443-.443-1.59-.490-2.56-.105-1.06.426-.748.742.806.806 1.41.0579 2.19-.257 1.75-0.7zm-10-1.4c-.917-.370-2.42-.370-3.33 0-.917.370-.167.673 1.67.673 1.83 0 2.58-.303 1.67-.673zm-5.07 79.4c-1.37-2.22 1.72-4.77 3.56-2.93 1.54 1.54.576 4.38-1.48 4.38-.647 0-1.58-.652-2.07-1.45zm58-2c0-1.48.889-2.67 2-2.67s2 1.19 2 2.67-.889 2.67-2 2.67-2-1.19-2-2.67zm-73.3-1.94c-.886-1.07-1.24-2.55-.782-3.28 1.22-1.98 9.95-4.12 16.1-3.93 5.19.155 5.15.185-1.43 1.15-8.38 1.23-13 3.58-12.1 6.11.934 2.43.236 2.42-1.81-.0438zm90.6-.515c0-2.29-5.41-4.7-12.7-5.64h-6l6.13-.188c5.8-.177 13.9 1.72 16.3 3.78.581.518.131 1.71-1 2.65-1.32 1.1-2.06 1.19-2.06.257zm-122-41.2c-1.54-4.11-2.76-8.2-2.7-9.09.0511-.889 1.57 2.21 3.38 6.89s3.03 8.77 2.7 9.09c-.321.321-1.84-2.78-3.38-6.89zm141-20.7c-.304-7.2-3.91-15.5-8.6-19.8-1.89-1.74-9.01-6.11-15.8-9.73-13.8-7.33-11.1-7.46 3.88-.186 16.2 7.87 22.7 17.2 21.4 30.5l-.539 5.27zm-132-15.6c2.53-6.24 4.97-9.9 8.18-12.2l4.58-3.34-3.8 3.75c-2.09 2.06-5.52 7.57-7.61 12.2-5.02 11.2-5.93 10.9-1.35-.412zm27.5-21c5.18-1.01 11.8-2.49 14.7-3.29 2.88-0.8 7.64-1.39 10.6-1.3 4.57.133 4.19.321-2.67 1.32-4.4.638-9.66 1.74-11.7 2.44-2.02.703-7.42 1.59-12 1.97l-8.32.692zm45.7.999c.962-.385 2.11-.338 2.56.105.443.443-.344.758-1.75 0.7-1.55-.0640-1.87-.380-.806-.806zm8 0c.962-.385 2.11-.338 2.56.105.443.443-.344.758-1.75 0.7-1.55-.0640-1.87-.380-.806-.806zm-14.4-1.76c-1.1-.711-1.4-1.29-.667-1.29s2.23.582 3.33 1.29c1.1.711 1.4 1.29.667 1.29s-2.23-.582-3.33-1.29z" fill="#473631"/>
  <path d="m133 258c0-4.77.242-6.72.538-4.33.296 2.38.296 6.28 0 8.67-.296 2.38-.538.433-.538-4.33zm3.07-2.67c1.01-14.8 3.85-27.3 7.27-32.1 1.51-2.12 5.55-5.45 8.98-7.4 3.44-1.96 7.89-5.06 9.9-6.91 2.01-1.84 3.97-3.03 4.37-2.64.789.789-6.11 6.89-15.3 13.5-6.18 4.47-8.29 7.59-5.11 7.59 2.17 0 6.28 4.24 9.69 10 1.59 2.69.520 1.92-3.26-2.33-3.1-3.48-6.21-6.33-6.92-6.33s-2.76 3.15-4.55 7c-2.53 5.43-3.27 9.24-3.29 17-.0184 5.5-.611 10.9-1.32 12-.847 1.32-1.02-1.85-.508-9.33zm114 9.33c-.0585-1.1-1.82-5.6-3.91-10-3.93-8.27-14.6-19.5-20.1-21.3-1.65-.524-2.69-1.26-2.32-1.63 1.57-1.57 14.9 7.32 19 12.7 4.65 6.09 9.26 17.8 8.12 20.6-.456 1.13-.705 1.02-.777-.339zm-231-2c-.0264-1.26 1.15-5.48 2.61-9.39 4.54-12.1 16.6-21.2 30.7-23 5.8-.733 5.76-.702-1.39 1.3-16.8 4.71-23.9 11-29.3 26-1.44 4.03-2.64 6.31-2.67 5.05zm144-11c-1.66-2.11-1.61-2.16.503-.503 1.28 1.01 2.33 2.06 2.33 2.33 0 1.1-1.09.391-2.84-1.83zm-68.4-1.28c-.724-1.9-.570-2.05.746-.746.911.904 1.32 1.98.910 2.39-.411.411-1.16-.329-1.66-1.64zm80-1.72c.605-1.1 3.69-5.82 6.86-10.5 6.94-10.2 7.19-13.8 1.43-20.2-2.73-3.01-2.26-2.71 1.27.796 3.12 3.11 7.84 6.21 10.7 7l5.07 1.43-5.67-.732c-4.43-.572-5.67-.304-5.67 1.23 0 1.08-2.78 6.08-6.18 11.1-6 8.88-10.1 14.1-7.77 9.82zm-62.1-7.53c4.1-7.49 8.92-12.5 12.1-12.5 6.02 0-.371-7.83-9.7-11.9-9.33-4.05-14.8-12.1-11.7-17.1 1.28-2.04 1.36-1.95.637.705-1.25 4.56 2.31 8.93 12.7 15.6 5.07 3.25 10.1 7.58 11.1 9.62 2.3 4.48 5.42 18.9 4.33 20-.431.431-.796-.367-.812-1.77-.048-4.19-5.02-13.9-7.13-13.9-1.07 0-4.21 3.15-6.96 7-6.79 9.48-8.19 10.7-4.57 4.14zm-31-11c-.758-1.42-2.73-2.83-4.38-3.15-2.73-.526-2.69-.594.450-.760 2.49-.131 3.88.750 4.97 3.15 1.78 3.91.966 4.51-1.04.760zm-21-1.02c1.3-.338 3.1-.316 4 .0495.903.365-.159.642-2.36.615-2.2-.0272-2.94-.326-1.64-.664zm7.31-1.29c.917-.370 2.42-.370 3.33 0 .917.370.167.673-1.67.673-1.83 0-2.58-.303-1.67-.673zm12.3-5.7c0-.690.593-1.62 1.32-2.07.756-.467.979.0681.524 1.25-.886 2.31-1.84 2.73-1.84.815zm6-5.41c1.33-1.47 2.71-2.67 3.08-2.67.367 0-.419 1.2-1.75 2.67s-2.71 2.67-3.08 2.67c-.367 0 .419-1.2 1.75-2.67zm45.1-3.27c0-1.07.5-1.63 1.11-1.25.611.378 1.12-.0987 1.13-1.06.0139-1.18.335-1.28 1-.281 1.43 2.14 5.95 1.41 11.5-1.85 7.06-4.16 5.93-2.25-1.42 2.42-6.74 4.27-13.3 5.27-13.3 2.03zm-6.44-1.85c-2.2-1.35-4.9-3.57-6-4.94-1.67-2.08 5.12 2.24 9.93 6.32 2.18 1.85.232 1.16-3.93-1.38zm50.6-1.63c-.483-.782-.593-1.71-.243-2.06.349-.350.991.290 1.42 1.42.902 2.35.133 2.76-1.18.635zm-11.1-6.58c0-1.83.303-2.58.673-1.67.370.917.370 2.42 0 3.33-.370.917-.673.167-.673-1.67zm2.56-.778c.064-1.55.380-1.87.806-.806.385.962.338 2.11-.105 2.56-.443.443-.758-.344-0.7-1.75zm5.33-2.67c.064-1.55.380-1.87.806-.806.385.962.338 2.11-.105 2.56-.443.443-.758-.344-0.7-1.75zm-102-72c-1.24-2.39-4.52-11.9-7.3-21-2.77-9.18-5.43-17.9-5.89-19.4-.554-1.75-.189-1.52 1.06.667 1.84 3.21 6.3 16.3 11 32.4 1.25 4.24 2.7 7.97 3.22 8.29 1.72 1.06-3.43-27.5-6.31-35-.523-1.36-.285-1.81.655-1.22 1.59.984 1.06-1.41-2.84-12.9-2.88-8.43-2.79-9.38.678-7.52 2.82 1.51 2.84 1.41 1.92-6.71-.513-4.53-1.25-9.05-1.63-10.1-.484-1.26.0924-1.61 1.89-1.14 2.99.781 4.24-2.39 4.27-10.8.0142-4.1.374-4.91 1.62-3.67 3.45 3.45 5.45 1.86 4.7-3.73-.757-5.64.247-6.69 3.11-3.24 1.55 1.87 1.94 1.72 3.54-1.33 2.09-3.99 3.92-4.27 8.22-1.26 3.33 2.33 14.9 6.19 15.8 5.28.305-.305-.142-1.86-.995-3.45-1.95-3.64-1.22-4.39 2.82-2.9 1.75.646 4.91 1.59 7.03 2.11 3.45.836 3.76.640 3.1-1.91-.951-3.63-.0359-3.27 13 5.25 5.75 3.75 10.7 6.61 10.9 6.34.265-.265-.450-2.71-1.59-5.44l-2.07-4.96 5.03 3.42c5.58 3.79 9.32 4.38 9.98 1.57.309-1.33 2.6-.399 8.1 3.28 6.15 4.11 7.68 4.68 7.72 2.85.0349-1.59 1.39-.710 4.49 2.91 4.34 5.06 7.46 5.58 7.46 1.24 0-4 3.6.711 5.37 7.02.947 3.38 2.11 5.4 2.63 4.55 1-1.7 5 12.2 5 17.1 0 1.65.596 2.62 1.33 2.17.791-.489 1.33 1.06 1.33 3.81 0 2.55.624 4.84 1.39 5.1.898.299.663 2.51-.667 6.28-2.46 6.97-2.48 7.24-.509 6.02 1.1-.680 1.25-.0340.516 2.25-.565 1.76-.998 4.71-.963 6.54.0355 1.83-.830 6.85-1.92 11.1-2.45 9.61-1.55 11.4 1.33 2.61 6.06-18.5 7.76-38.2 4.16-48.4-2.56-7.27-2.46-8.37.309-3.33 3.6 6.54 3.85 25.7.518 39.7-2.7 11.3-6.79 21.3-9.41 22.9-2.31 1.43-3.91-8.87-5.08-32.7-1-19.6-1-24.1-3-27.9-4-5.3-5-5.9-23-7.8-9-1.1-16-2.9-27-6.9-13-5.1-15-5.5-25-5-8.95.459-12 1.27-19.1 5.06-5.39 2.87-8.96 5.75-9.84 7.92-.757 1.88-1.64 14.8-1.97 28.7-.761 32.6-4.03 45.1-9.2 35.1zm125-24.4.0392-2.67-1.15 2.67c-.630 1.47-1.13 4.17-1.11 6l.0392 3.33 1.07-3.33c.587-1.83 1.09-4.53 1.11-6zm-.224-14.3c-.370-.917-.673-.167-.673 1.67 0 1.83.303 2.58.673 1.67.370-.917.370-2.42 0-3.33zm1.33-6.67c-.370-.917-.673-.167-.673 1.67 0 1.83.303 2.58.673 1.67.370-.917.370-2.42 0-3.33zm-123-1.25c-.426-1.06-.742-.748-.806.806-.0579 1.41.257 2.19 0.7 1.75.443-.443.490-1.59.105-2.56zm-1.72-7.67c-.462-2.89-.167-7.19.657-9.55.823-2.36 1.24-4.56.917-4.88-1.4-1.4-3.7 10.5-2.88 14.9 1.22 6.51 2.35 6.12 1.3-.459zm115-12.1c-.456-.739-2.59-2.25-4.75-3.37-5.53-2.86-25.7-9.9-24.3-8.47.652.652 5.98 2.86 11.8 4.91 5.86 2.05 12.1 4.75 13.9 6 3.72 2.61 4.48 2.82 3.31.926zm-42-14.4c-18.8-8.15-20-8.6-20-7.77 0 .815 21.6 11 26.7 12.6 8.94 2.8 5.93.611-6.67-4.84zm-63.3 2.11c-3.67-1.58-5.77-1.58-3.33 0 1.1.711 2.9 1.26 4 1.22 1.32-.0483 1.09-.464-.667-1.22zm9.33-5.33c-1.47-.630-3.87-1.13-5.33-1.11-2.14.0315-2.01.249.667 1.11 4.56 1.46 8.06 1.46 4.67 0zm26-1.3c-6-1.5-22.1-3.1-21.2-2.1 1 1 15.2 3.1 21.2 3.1l4.67.0261-4.47-1.06zm-14 78.9c-1.37-2.22 1.72-4.77 3.56-2.93 1.54 1.54.576 4.38-1.48 4.38-.647 0-1.58-.652-2.07-1.45zm58-2c0-1.48.889-2.67 2-2.67s2 1.19 2 2.67-.889 2.67-2 2.67-2-1.19-2-2.67zm17.3-3.12c0-2.12-5.91-4.38-14-5.34-2.66-.317-1.99-.531 2-.641 3.3-.0907 8.33.881 11.2 2.16 4.62 2.08 4.94 2.52 3 4.13-1.85 1.54-2.17 1.49-2.17-.306zm-91.3-.831c-1.33-2.15 4.64-4.32 13.1-4.78 7.89-.429 7.94-.413 1.41.489-3.71.513-8.33 1.97-10.3 3.24-1.99 1.3-3.85 1.76-4.29 1.05zm-31-40.3c-1.56-4.18-2.61-7.83-2.33-8.12.285-.285 1.82 2.88 3.41 7.04 1.59 4.15 2.64 7.81 2.33 8.12-.311.311-1.84-2.86-3.41-7.04zm141-23c-.509-11.2-8.72-20.1-26.1-28.5-5.94-2.87-9.3-4.83-7.47-4.35 7.16 1.88 19.8 8.75 25.7 14 6.65 5.86 9.59 12.5 8.59 19.3l-.585 3.98zm-135-7c1.94-4.08 2.56-4.84 2.56-3.14 0 .715-.933 2.47-2.07 3.89-1.96 2.44-1.98 2.4-.486-.745zm2.56-5.82c0-2.26 3.79-9.68 5.79-11.3 1.43-1.18.950.460-1.35 4.67-4.03 7.36-4.44 7.97-4.44 6.67zm22.4-20.4c.962-.385 2.11-.338 2.56.105.443.443-.344.758-1.75 0.7-1.55-.0640-1.87-.380-.806-.806zm14.9-3.02c5.5-1.44 11.5-2.6 13.3-2.57 3.57.0597-9.17 3.21-18 4.45-2.93.412-.833-.433 4.67-1.88zm30 1.28c-.467-.756.0681-.979 1.25-.524 2.31.886 2.73 1.84.815 1.84-.690 0-1.62-.593-2.07-1.32z" fill="#3c2e2c"/>
  <path d="m133 258c0-4.77.242-6.72.538-4.33.296 2.38.296 6.28 0 8.67-.296 2.38-.538.433-.538-4.33zm3.07-2.67c1.01-14.8 3.85-27.3 7.27-32.1 1.51-2.12 5.55-5.45 8.98-7.4 3.44-1.96 7.89-5.06 9.9-6.91 2.01-1.84 3.97-3.03 4.37-2.64.789.789-6.11 6.89-15.3 13.5-6.18 4.47-8.29 7.59-5.11 7.59 2.17 0 6.28 4.24 9.69 10 1.59 2.69.520 1.92-3.26-2.33-3.1-3.48-6.21-6.33-6.92-6.33s-2.76 3.15-4.55 7c-2.53 5.43-3.27 9.24-3.29 17-.0184 5.5-.611 10.9-1.32 12-.847 1.32-1.02-1.85-.508-9.33zm114 9.33c-.0585-1.1-1.82-5.6-3.91-10-3.93-8.27-14.6-19.5-20.1-21.3-1.65-.524-2.69-1.26-2.32-1.63 1.57-1.57 14.9 7.32 19 12.7 4.65 6.09 9.26 17.8 8.12 20.6-.456 1.13-.705 1.02-.777-.339zm-231-2c-.0264-1.26 1.15-5.48 2.61-9.39 4.54-12.1 16.6-21.2 30.7-23 5.8-.733 5.76-.702-1.39 1.3-16.8 4.71-23.9 11-29.3 26-1.44 4.03-2.64 6.31-2.67 5.05zm144-11c-1.66-2.11-1.61-2.16.503-.503 1.28 1.01 2.33 2.06 2.33 2.33 0 1.1-1.09.391-2.84-1.83zm-68.4-1.28c-.724-1.9-.570-2.05.746-.746.911.904 1.32 1.98.910 2.39-.411.411-1.16-.329-1.66-1.64zm80-1.72c.605-1.1 3.69-5.82 6.86-10.5 6.94-10.2 7.19-13.8 1.43-20.2-2.73-3.01-2.26-2.71 1.27.796 3.12 3.11 7.84 6.21 10.7 7l5.07 1.43-5.67-.732c-4.43-.572-5.67-.304-5.67 1.23 0 1.08-2.78 6.08-6.18 11.1-6 8.88-10.1 14.1-7.77 9.82zm-62.1-7.53c4.1-7.49 8.92-12.5 12.1-12.5 6.02 0-.371-7.83-9.7-11.9-9.33-4.05-14.8-12.1-11.7-17.1 1.28-2.04 1.36-1.95.637.705-1.25 4.56 2.31 8.93 12.7 15.6 5.07 3.25 10.1 7.58 11.1 9.62 2.3 4.48 5.42 18.9 4.33 20-.431.431-.796-.367-.812-1.77-.048-4.19-5.02-13.9-7.13-13.9-1.07 0-4.21 3.15-6.96 7-6.79 9.48-8.19 10.7-4.57 4.14zm-31-11c-.758-1.42-2.73-2.83-4.38-3.15-2.73-.526-2.69-.594.450-.760 2.49-.131 3.88.750 4.97 3.15 1.78 3.91.966 4.51-1.04.760zm-21-1.02c1.3-.338 3.1-.316 4 .0495.903.365-.159.642-2.36.615-2.2-.0272-2.94-.326-1.64-.664zm7.31-1.29c.917-.370 2.42-.370 3.33 0 .917.370.167.673-1.67.673-1.83 0-2.58-.303-1.67-.673zm12.3-5.7c0-.690.593-1.62 1.32-2.07.756-.467.979.0681.524 1.25-.886 2.31-1.84 2.73-1.84.815zm6-5.41c1.33-1.47 2.71-2.67 3.08-2.67.367 0-.419 1.2-1.75 2.67s-2.71 2.67-3.08 2.67c-.367 0 .419-1.2 1.75-2.67zm89.3-6.76c-.483-.782-.593-1.71-.243-2.06.349-.350.991.290 1.42 1.42.902 2.35.133 2.76-1.18.635zm-11.1-6.58c0-1.83.303-2.58.673-1.67.370.917.370 2.42 0 3.33-.370.917-.673.167-.673-1.67zm2.56-.778c.064-1.55.380-1.87.806-.806.385.962.338 2.11-.105 2.56-.443.443-.758-.344-0.7-1.75zm5.33-2.67c.064-1.55.380-1.87.806-.806.385.962.338 2.11-.105 2.56-.443.443-.758-.344-0.7-1.75zm-102-73c-1.43-2.79-3.52-8.64-4.65-13s-3.59-12.4-5.45-17.9c-1.87-5.47-2.85-9.37-2.18-8.67 1.32 1.4 9.49 24.7 9.49 27.1 0 .802 1.31 4.93 2.91 9.18 2.63 6.97 3.01 7.4 3.87 4.38 1.64-5.74 1.26-28.3-.616-36.3-1.16-4.94-1.32-7.78-.449-8.07.879-.293.772-2.83-.307-7.33-1.98-8.26.0201-17.1 3.57-15.7 1.7.653 1.93-.204 1.38-5.13l-.667-5.91 4.49.729c4.88.792 5.26.301 3-3.91-1.38-2.57-1.21-2.72 2.33-1.94 9.43 2.05 10.4 2.21 8.49 1.41-2.86-1.22-8-6.08-8-7.57 0-.698.788-.610 1.76.196 2.3 1.91 16.5 5.05 28 6.2l9.11.905-2.42-3.69-2.42-3.69 5.98 3.45c7.88 4.56 21.7 10.3 30 12.5l6.67 1.75-4-3.37-4-3.37 5.33 2.58c2.93 1.42 8.76 3.64 12.9 4.93 4.18 1.29 8.63 3.48 9.87 4.86 3.06 3.39 4.87 3.15 3.89-.498-.587-2.19-.184-1.92 1.49 1 1.31 2.28 2.33 6.96 2.38 10.9.0724 5.73.398 6.63 1.95 5.34 1.75-1.45 1.65 3.15-.319 15.8-.115.733.511 1.19 1.39 1.02 1.2-.233 1.14.986-.215 4.83-1.72 4.88-2.53 10.4-2.17 14.8.144 1.78.314 1.78 1.53 0 1.6-2.33.262 10.1-1.42 13.2-1.44 2.69-2.39-5.12-3.32-27.2-1.38-33.1-2.85-35.7-20.9-37.2-13.2-1.09-17.7-2.19-34.3-8.37-17.8-6.6-27.3-6.55-41 .216-7.02 3.47-10.3 5.93-11.3 8.45-.790 1.96-1.83 15.9-2.32 30.9-.678 21-1.39 28.5-3.09 32.3-1.21 2.75-2.52 5-2.91 5-.389 0-1.87-2.29-3.3-5.08zm126 0c4.4-8.04 7.66-22.1 8.73-37.7l.915-13.3 0.2 11.3c.287 16.3-6.26 41.3-11.7 44.6-.702.434.127-1.78 1.84-4.91zm-93.3-5.15c-1.37-2.22 1.72-4.77 3.56-2.93 1.54 1.54.576 4.38-1.48 4.38-.647 0-1.58-.652-2.07-1.45zm58-2c0-1.48.889-2.67 2-2.67s2 1.19 2 2.67-.889 2.67-2 2.67-2-1.19-2-2.67zm-105-43.7c-.821-2.36-1.26-4.52-.975-4.8.285-.285 1.19 1.41 2.01 3.77.821 2.36 1.26 4.52.975 4.8-.285.285-1.19-1.41-2.01-3.77zm148-2.1c-.0579-.857-.451-2.66-.873-4-.729-2.32-.692-2.32.761-.0588.841 1.31 1.23 3.11.873 4-.473 1.17-.685 1.18-.761.0588zm-6.62-24.4c-.388-8-9.72-17.9-22.6-23.9-3.79-1.77-6.65-3.47-6.36-3.76 1.2-1.2 15.5 6.71 21.2 11.7 6.07 5.34 9.67 12.5 8.52 16.9-.419 1.61-.663 1.3-.773-.989zm-129-17c0-.742 1.35-2.49 3-3.89l3-2.54-2.65 3.33c-1.46 1.83-2.81 3.58-3 3.89-.191.306-.348-.0514-.348-.793zm26.3-14.6c.917-.370 2.42-.370 3.33 0 .917.370.167.673-1.67.673-1.83 0-2.58-.303-1.67-.673zm7-1.4c.962-.385 2.11-.338 2.56.105.443.443-.344.758-1.75 0.7-1.55-.0640-1.87-.380-.806-.806zm5.33-1.33c.962-.385 2.11-.338 2.56.105.443.443-.344.758-1.75 0.7-1.55-.0640-1.87-.380-.806-.806zm5.25-1.31c.917-.370 2.42-.370 3.33 0 .917.370.167.673-1.67.673-1.83 0-2.58-.303-1.67-.673z" fill="#06334a"/>
  <path d="m71.5 125c-1.43-2.79-3.52-8.64-4.65-13s-3.59-12.4-5.45-17.9c-1.87-5.47-2.85-9.37-2.18-8.67 1.32 1.4 9.49 24.7 9.49 27.1 0 .802 1.31 4.93 2.91 9.18 2.63 6.97 3.01 7.4 3.87 4.38 1.64-5.74 1.26-28.3-.616-36.3-1.16-4.94-1.32-7.78-.449-8.07.879-.293.772-2.83-.307-7.33-1.98-8.26.0201-17.1 3.57-15.7 1.7.653 1.93-.204 1.38-5.13l-.667-5.91 4.49.729c4.88.792 5.26.301 3-3.91-1.38-2.57-1.21-2.72 2.33-1.94 9.43 2.05 10.4 2.21 8.49 1.41-2.86-1.22-8-6.08-8-7.57 0-.698.788-.610 1.76.196 2.3 1.91 16.5 5.05 28 6.2l9.11.905-2.42-3.69-2.42-3.69 5.98 3.45c7.88 4.56 21.7 10.3 30 12.5l6.67 1.75-4-3.37-4-3.37 5.33 2.58c2.93 1.42 8.76 3.64 12.9 4.93 4.18 1.29 8.63 3.48 9.87 4.86 3.06 3.39 4.87 3.15 3.89-.498-.587-2.19-.184-1.92 1.49 1 1.31 2.28 2.33 6.96 2.38 10.9.0724 5.73.398 6.63 1.95 5.34 1.75-1.45 1.65 3.15-.319 15.8-.115.733.511 1.19 1.39 1.02 1.2-.233 1.14.986-.215 4.83-1.72 4.88-2.53 10.4-2.17 14.8.144 1.78.314 1.78 1.53 0 1.6-2.33.262 10.1-1.42 13.2-1.44 2.69-2.39-5.12-3.32-27.2-1.38-33.1-2.85-35.7-20.9-37.2-13.2-1.09-17.7-2.19-34.3-8.37-17.8-6.6-27.3-6.55-41 .216-7.02 3.47-10.3 5.93-11.3 8.45-.790 1.96-1.83 15.9-2.32 30.9-.678 21-1.39 28.5-3.09 32.3-1.21 2.75-2.52 5-2.91 5-.389 0-1.87-2.29-3.3-5.08zm126 0c4.4-8.04 7.66-22.1 8.73-37.7l.915-13.3 0.2 11.3c.287 16.3-6.26 41.3-11.7 44.6-.702.434.127-1.78 1.84-4.91zm-91.9-5.03c-.532-.861-.368-2.17.366-2.9.889-.889 1.66-.811 2.3.232.532.861.368 2.17-.366 2.9-.889.889-1.66.811-2.3-.232zm57.3 0c-.532-.861-.368-2.17.366-2.9.889-.889 1.66-.811 2.3.232.532.861.368 2.17-.366 2.9-.889.889-1.66.811-2.3-.232zm-105-45.7c-.821-2.36-1.26-4.52-.975-4.8.285-.285 1.19 1.41 2.01 3.77.821 2.36 1.26 4.52.975 4.8-.285.285-1.19-1.41-2.01-3.77zm148-2.1c-.0579-.857-.451-2.66-.873-4-.729-2.32-.692-2.32.761-.0588.841 1.31 1.23 3.11.873 4-.473 1.17-.685 1.18-.761.0588zm-6.62-24.4c-.388-8-9.72-17.9-22.6-23.9-3.79-1.77-6.65-3.47-6.36-3.76 1.2-1.2 15.5 6.71 21.2 11.7 6.07 5.34 9.67 12.5 8.52 16.9-.419 1.61-.663 1.3-.773-.989zm-129-17c0-.742 1.35-2.49 3-3.89l3-2.54-2.65 3.33c-1.46 1.83-2.81 3.58-3 3.89-.191.306-.348-.0514-.348-.793zm26.3-14.6c.917-.370 2.42-.370 3.33 0 .917.370.167.673-1.67.673-1.83 0-2.58-.303-1.67-.673zm7-1.4c.962-.385 2.11-.338 2.56.105.443.443-.344.758-1.75 0.7-1.55-.0640-1.87-.380-.806-.806zm5.33-1.33c.962-.385 2.11-.338 2.56.105.443.443-.344.758-1.75 0.7-1.55-.0640-1.87-.380-.806-.806zm5.25-1.31c.917-.370 2.42-.370 3.33 0 .917.370.167.673-1.67.673-1.83 0-2.58-.303-1.67-.673z" fill="#2e201d"/>
  <path d="m77 122c.739-3.11 1.79-10.8 2.33-17l.983-11.3.196 10.4c.190 10.1-1.73 21.6-3.82 22.9-.564.349-.421-1.91.318-5.02zm28.4-2.32c-.532-.861-.368-2.17.366-2.9.889-.889 1.66-.811 2.3.232.532.861.368 2.17-.366 2.9-.889.889-1.66.811-2.3-.232zm57.3 0c-.532-.861-.368-2.17.366-2.9.889-.889 1.66-.811 2.3.232.532.861.368 2.17-.366 2.9-.889.889-1.66.811-2.3-.232zm-97.8-16c-2.03-6.65-3.45-12.3-3.17-12.6.284-.284 2.18 4.92 4.22 11.6 2.04 6.64 3.46 12.3 3.17 12.6-.296.296-2.2-4.9-4.22-11.6zm139 4.89c0-1.47.480-4.17 1.07-6 .845-2.64 1.07-2.78 1.07-.667 0 1.47-.480 4.17-1.07 6-.845 2.64-1.07 2.78-1.07.667zm-12.6-17c-1.87-25.8-3.83-28.2-24.6-30.2-9.78-.977-17.2-2.68-26-5.95-6.77-2.52-14.4-5.17-17-5.89-3.41-.957-3.85-1.34-1.64-1.43 1.66-.0661 7.36 1.46 12.7 3.4 15.6 5.69 26.5 8.32 34.7 8.41 9.24.0922 16 2.65 19 7.21 2.73 4.17 4.93 19.4 4.4 30.5-.348 7.33-.527 6.59-1.44-5.99zm15.4 3.03c0-2.57.274-3.62.610-2.33.335 1.28.335 3.38 0 4.67-.335 1.28-.610.233-.610-2.33zm-125-13.3c-.162-11.8 1.46-20.3 4.43-23.1 2.2-2.09 2.21-2.02.147 1.24-1.38 2.18-2.59 8.52-3.31 17.3-1.04 12.7-1.15 13.1-1.27 4.56zm126-4.6c0-1.83.303-2.58.673-1.67.370.917.370 2.42 0 3.33-.370.917-.673.167-.673-1.67zm-114-24.1c1.1-1.77 13.7-5.57 16.3-4.9 1.8.469 1.65.650-.634.768-1.64.0851-5.99 1.3-9.67 2.69-3.67 1.4-6.37 2.04-6 1.44zm21-6.23c1.3-.338 3.1-.316 4 .0494.903.365-.159.642-2.36.615-2.2-.0272-2.94-.326-1.64-.664zm84.3-3.05c-.908-4.13-7.59-12-14-16.4-3.08-2.15-3.1-2.21-.215-.839 5.62 2.67 13.4 10.7 14.9 15.4.847 2.57 1.24 4.97.868 5.34-.370.370-1.08-1.2-1.59-3.49z" fill="#261816"/>
  <path d="m76.8 124c.139-2.53 2.36-6.78 2.44-4.67.0403 1.1-.508 2.9-1.22 4-.711 1.1-1.26 1.4-1.22.667zm28.1-6.1c.263-.788 1.05-1.43 1.74-1.43.697 0 1.48.645 1.74 1.43.263.788-.522 1.43-1.74 1.43s-2.01-.645-1.74-1.43zm57.3 0c.263-.788 1.05-1.43 1.74-1.43.697 0 1.48.645 1.74 1.43.263.788-.522 1.43-1.74 1.43s-2.01-.645-1.74-1.43zm-82.2-12c-.004-6.6.221-9.47.501-6.37.280 3.09.283 8.49.0073 12-.275 3.51-.504.974-.508-5.63zm125-3.33c0-1.83.303-2.58.673-1.67.370.917.370 2.42 0 3.33-.370.917-.673.167-.673-1.67zm1.38-7.33c.0272-2.2.326-2.94.664-1.64s.316 3.1-.0495 4c-.365.903-.642-.159-.615-2.36zm-127-12c.01-3.67.269-5.01.575-2.98s.298 5.03-.0182 6.67-.567-.0183-.557-3.68zm111-1.3c0-3.3.260-4.65.578-3s.318 4.35 0 6-.578.3-.578-3zm15.7-6.11c.064-1.55.380-1.87.806-.806.385.962.338 2.11-.105 2.56-.443.443-.758-.344-0.7-1.75zm-17-2.7c.064-1.55.380-1.87.806-.806.385.962.338 2.11-.105 2.56-.443.443-.758-.344-0.7-1.75zm-108-5.3c.0640-1.55.380-1.87.806-.806.385.962.338 2.11-.105 2.56-.443.443-.758-.344-0.7-1.75zm106-.2c-.724-1.9-.570-2.05.746-.746.911.904 1.32 1.98.910 2.39-.411.411-1.16-.329-1.66-1.64zm-4.08-4.38c-.467-.756.0681-.979 1.25-.524 2.31.886 2.73 1.84.815 1.84-.690 0-1.62-.593-2.07-1.32zm-8.34-2.27c1.28-.335 3.38-.335 4.67 0 1.28.335.233.610-2.33.610-2.57 0-3.62-.274-2.33-.610zm-14.7-1.33c1.28-.335 3.38-.335 4.67 0 1.28.335.233.610-2.33.610-2.57 0-3.62-.274-2.33-.610zm-6-1.3c.962-.385 2.11-.338 2.56.105.443.443-.344.758-1.75 0.7-1.55-.0640-1.87-.380-.806-.806zm-5.33-1.33c.962-.385 2.11-.338 2.56.105.443.443-.344.758-1.75 0.7-1.55-.0640-1.87-.380-.806-.806zm-7-1.8c-1.1-.711-1.4-1.29-.667-1.29s2.23.582 3.33 1.29c1.1.711 1.4 1.29.667 1.29 0 0-2-.5-3-1.3zm-6.67-2.67c-1.1-.711-1.4-1.29-.667-1.29s2.23.582 3.33 1.29c1.1.711 1.4 1.29.667 1.29s-2.23-.582-3.33-1.29zm-14.9-4.91c.962-.385 2.11-.338 2.56.105.443.443-.344.758-1.75 0.7-1.55-.0640-1.87-.380-.806-.806zm71-14.7-3-3.7l3.67 3.23c2.02 1.78 3.67 3.43 3.67 3.67 0 1.05-1.08.195-4.1-3.23z" fill="#1c110f"/>
 </g>
</svg>
