<!DOCTYPE svg PUBLIC "-//W3C//DTD SVG 20010904//EN" "http://www.w3.org/TR/2001/REC-SVG-20010904/DTD/svg10.dtd">
<svg version="1.0" xmlns="http://www.w3.org/2000/svg" width="200px" height="200px" viewBox="0 0 2000 2000" preserveAspectRatio="xMidYMid meet">
<g id="layer101" fill="#e8e9eb" stroke="none">
 <path d="M120 1982 c0 -50 34 -127 76 -172 57 -61 115 -86 255 -107 64 -10 117 -23 123 -31 6 -7 24 -25 40 -40 15 -15 45 -63 66 -107 l38 -79 -29 -33 c-36 -42 -67 -102 -89 -173 -13 -42 -23 -56 -39 -58 -12 -2 -27 -13 -35 -25 -88 -147 -98 -168 -103 -226 -6 -64 9 -121 32 -121 15 0 -26 -147 -52 -187 -14 -21 -14 -23 0 -23 14 0 13 -8 -5 -61 l-20 -60 25 -27 c19 -20 24 -34 20 -55 -4 -20 0 -35 14 -50 11 -12 30 -48 43 -80 14 -35 35 -67 51 -80 16 -11 29 -26 29 -33 0 -15 15 -20 105 -34 39 -6 95 -18 126 -25 80 -21 125 -19 194 10 71 29 86 30 130 9 32 -15 37 -15 102 11 206 82 273 148 273 269 0 22 12 63 27 94 31 64 42 178 24 260 -10 47 -9 54 9 72 30 30 28 140 -2 198 -75 139 -91 162 -112 162 -17 0 -24 11 -39 63 -21 71 -65 152 -100 186 -23 21 -24 25 -12 49 7 15 21 46 30 68 10 23 36 61 59 83 40 39 51 44 157 67 131 29 199 57 252 103 37 33 79 110 92 169 l7 32 -881 0 c-845 0 -881 -1 -881 -18z"/>
 </g>
<g id="layer102" fill="#f9bea9" stroke="none">
 <path d="M120 1982 c0 -50 34 -127 76 -172 57 -61 115 -86 255 -107 64 -10 117 -23 123 -31 6 -7 24 -25 40 -40 15 -15 45 -63 66 -107 l38 -79 -29 -33 c-36 -42 -67 -102 -89 -173 -13 -42 -23 -56 -39 -58 -12 -2 -27 -13 -35 -25 -88 -147 -98 -168 -103 -226 -6 -64 9 -121 32 -121 15 0 -26 -147 -52 -187 -14 -21 -14 -23 0 -23 14 0 13 -8 -5 -61 l-20 -60 25 -27 c19 -20 24 -34 20 -55 -4 -20 0 -35 14 -50 11 -12 30 -48 43 -80 14 -35 35 -67 51 -80 16 -11 29 -26 29 -33 0 -15 15 -20 105 -34 39 -6 95 -18 126 -25 80 -21 125 -19 194 10 71 29 86 30 130 9 32 -15 37 -15 102 11 206 82 273 148 273 269 0 22 12 63 27 94 31 64 42 178 24 260 -10 47 -9 54 9 72 30 30 28 140 -2 198 -75 139 -91 162 -112 162 -17 0 -24 11 -39 63 -21 71 -65 152 -100 186 -23 21 -24 25 -12 49 7 15 21 46 30 68 10 23 36 61 59 83 40 39 51 44 157 67 131 29 199 57 252 103 37 33 79 110 92 169 l7 32 -881 0 c-845 0 -881 -1 -881 -18z m927 -637 c12 -8 21 -24 20 -34 -1 -16 -6 -17 -31 -10 -17 5 -47 10 -66 10 l-35 2 35 7 35 7 -34 2 c-29 1 -32 3 -21 16 16 19 69 19 97 0z m-214 -408 c18 -8 37 -20 44 -29 10 -12 7 -17 -17 -32 l-30 -17 0 28 c0 34 -16 53 -44 53 -32 0 -47 -14 -55 -50 l-6 -32 -23 19 c-58 47 47 95 131 60z m426 7 c39 -8 59 -40 39 -61 -18 -17 -73 -29 -63 -13 4 6 13 9 21 6 20 -8 18 23 -3 46 -9 10 -26 18 -38 18 -29 0 -59 -34 -52 -60 6 -25 -1 -25 -33 -1 -20 16 -22 21 -11 35 23 28 85 41 140 30z"/>
 </g>
<g id="layer103" fill="#cfc3bf" stroke="none">
 <path d="M120 1982 c0 -50 34 -127 76 -172 57 -61 115 -86 255 -107 64 -10 117 -23 123 -31 6 -7 24 -25 40 -40 15 -15 45 -63 66 -107 l38 -79 -29 -33 c-36 -42 -67 -102 -89 -173 -13 -42 -23 -56 -39 -58 -12 -2 -27 -13 -35 -25 -88 -147 -98 -168 -103 -226 -6 -64 9 -121 32 -121 15 0 -26 -147 -52 -187 -14 -21 -14 -23 0 -23 14 0 13 -8 -5 -61 l-20 -60 25 -27 c19 -20 24 -34 20 -55 -4 -20 0 -35 14 -50 11 -12 30 -48 43 -80 14 -35 35 -67 51 -80 16 -11 29 -26 29 -33 0 -15 15 -20 105 -34 39 -6 95 -18 126 -25 80 -21 125 -19 194 10 71 29 86 30 130 9 32 -15 37 -15 102 11 206 82 273 148 273 269 0 22 12 63 27 94 31 64 42 178 24 260 -10 47 -9 54 9 72 30 30 28 141 -2 197 -68 125 -79 143 -88 143 -13 0 -13 -6 5 -40 9 -17 13 -30 10 -30 -3 0 6 -21 21 -46 23 -39 26 -53 21 -102 -4 -37 -3 -51 3 -42 7 11 10 8 10 -12 0 -16 -4 -28 -10 -28 -11 0 -13 13 -14 75 -1 26 -5 39 -13 37 -7 -1 -13 6 -13 16 0 10 -8 28 -17 41 -9 14 -11 21 -5 17 7 -4 12 -3 12 3 0 5 -5 11 -10 13 -6 2 -17 24 -24 50 -14 44 -14 46 7 53 21 8 21 8 -3 12 -21 3 -28 14 -43 66 -21 71 -65 152 -100 186 -23 21 -24 25 -12 49 7 15 21 46 30 68 10 23 36 61 59 83 40 39 51 44 157 67 131 29 199 57 252 103 37 33 79 110 92 169 l7 32 -881 0 c-845 0 -881 -1 -881 -18z m890 -170 c0 -53 21 -101 66 -150 l45 -51 -38 11 c-21 6 -74 8 -117 5 l-79 -5 26 21 c31 25 50 69 67 150 12 58 30 69 30 19z m-190 -446 c0 -71 4 -107 13 -114 16 -14 130 -51 140 -45 4 2 7 12 7 23 0 13 -12 21 -49 30 -73 17 -82 27 -88 96 -5 54 -3 63 19 88 29 34 49 28 92 -29 15 -19 32 -35 39 -35 7 0 30 21 53 46 34 40 44 46 66 41 30 -8 38 -30 38 -106 0 -37 -5 -60 -17 -73 -20 -22 -33 -23 -33 -3 0 8 -14 30 -31 50 -26 29 -38 35 -68 34 l-36 -1 38 -8 c44 -8 76 -35 62 -49 -6 -6 -35 -7 -70 -3 -56 6 -57 7 -25 13 l35 6 -34 2 c-29 1 -32 3 -21 16 23 28 1 15 -33 -19 l-34 -34 56 5 c55 5 141 -10 141 -25 0 -4 -13 -13 -30 -19 -20 -8 -30 -18 -30 -32 0 -28 18 -27 95 8 l65 30 0 105 c0 59 4 106 9 106 20 0 110 -99 135 -148 41 -81 108 -330 100 -372 -12 -62 -14 -90 -18 -239 -2 -80 -10 -161 -16 -179 -16 -43 -55 -62 -129 -62 -69 0 -175 -23 -235 -50 -109 -51 -169 -60 -266 -39 -67 14 -142 65 -152 104 -15 54 -22 293 -9 308 6 8 9 16 7 18 -3 2 -7 26 -11 53 -3 27 -10 55 -16 62 -6 7 -10 25 -11 41 0 38 77 304 103 355 22 43 120 148 138 148 7 0 11 -37 11 -104z m-250 -221 c0 -9 -7 -32 -17 -53 -9 -20 -15 -41 -14 -45 1 -5 -3 -6 -8 -3 -5 4 -19 -6 -31 -21 -21 -28 -23 -60 -5 -105 4 -11 3 -18 -4 -18 -6 0 -11 8 -12 18 0 9 -3 12 -5 5 -3 -7 0 -21 5 -32 6 -11 7 -22 2 -25 -30 -19 -20 106 14 174 12 25 29 62 38 83 17 38 37 50 37 22z m-49 -152 c-4 -28 -6 -32 -9 -15 -3 22 3 52 11 52 1 0 1 -17 -2 -37z"/>
 <path d="M968 1177 c-28 -23 -36 -51 -19 -61 5 -3 7 -15 4 -26 -3 -12 0 -20 6 -20 7 0 10 -4 7 -9 -7 -10 12 -108 25 -131 4 -8 5 36 2 98 l-6 112 32 0 c37 0 39 9 8 38 -28 27 -26 27 -59 -1z"/>
 <path d="M763 960 c-24 -4 -46 -10 -50 -14 -4 -4 11 -4 34 0 67 10 168 -33 132 -57 -46 -31 -49 -31 -49 -1 0 34 -16 52 -46 52 -30 0 -54 -25 -54 -57 0 -24 -1 -25 -22 -10 -13 8 -22 22 -22 31 3 24 -8 19 -38 -18 l-28 -35 32 -15 c17 -9 41 -16 52 -17 12 0 0 -7 -26 -15 -27 -8 -48 -18 -48 -22 0 -4 63 -7 140 -7 133 0 176 8 110 21 -24 5 -27 9 -16 19 7 7 24 15 37 17 19 2 25 10 27 38 5 65 -66 104 -165 90z"/>
 <path d="M1141 956 c-89 -22 -106 -98 -31 -136 47 -24 79 -25 168 -5 97 22 100 26 67 69 -27 36 -49 48 -39 23 6 -17 -17 -37 -51 -43 -18 -3 -24 -1 -20 6 4 6 13 9 21 6 21 -8 18 28 -4 47 -10 10 -28 17 -39 17 -27 0 -57 -35 -50 -60 6 -24 5 -25 -32 -2 -22 13 -27 22 -20 34 11 20 101 42 137 33 15 -4 24 -3 20 0 -15 15 -86 21 -127 11z"/>
 <path d="M1080 768 c0 -8 12 -21 28 -29 15 -7 45 -24 66 -37 31 -19 49 -23 86 -20 59 6 110 40 110 73 0 28 -13 26 -72 -13 -45 -29 -56 -27 -200 33 -12 5 -18 3 -18 -7z"/>
 <path d="M1481 1017 c7 -15 16 -27 21 -27 14 0 9 16 -13 36 -21 19 -21 19 -8 -9z"/>
 </g>
<g id="layer104" fill="#f0ae95" stroke="none">
 <path d="M120 1982 c0 -50 34 -127 76 -172 57 -61 115 -86 255 -107 64 -10 117 -23 123 -31 6 -7 24 -25 40 -40 15 -15 45 -63 66 -107 l38 -79 -29 -33 c-36 -42 -67 -102 -89 -173 -13 -42 -23 -56 -39 -58 -12 -2 -27 -13 -35 -25 -88 -147 -98 -168 -103 -226 -6 -64 9 -121 32 -121 15 0 -26 -147 -52 -187 -14 -21 -14 -23 0 -23 14 0 13 -8 -5 -61 l-20 -60 25 -27 c19 -20 24 -34 20 -55 -4 -20 0 -35 14 -50 11 -12 30 -48 43 -80 14 -35 35 -67 51 -80 16 -11 29 -26 29 -33 0 -15 15 -20 105 -34 39 -6 95 -18 126 -25 80 -21 125 -19 194 10 71 29 86 30 130 9 32 -15 37 -15 102 11 206 82 273 148 273 269 0 22 12 63 27 94 31 64 42 178 24 260 -10 47 -9 54 9 72 30 30 28 141 -2 197 -68 125 -79 143 -88 143 -13 0 -13 -6 5 -40 9 -17 13 -30 10 -30 -3 0 6 -21 21 -46 23 -39 26 -53 21 -102 -4 -37 -3 -51 3 -42 7 11 10 8 10 -12 0 -16 -4 -28 -10 -28 -11 0 -13 13 -14 75 -1 26 -5 39 -13 37 -7 -1 -13 6 -13 16 0 10 -8 28 -17 41 -9 14 -11 21 -5 17 7 -4 12 -3 12 3 0 5 -5 11 -10 13 -6 2 -17 24 -24 50 -14 44 -14 46 7 53 21 8 21 8 -3 12 -21 3 -28 14 -43 66 -21 71 -65 152 -100 186 -23 21 -24 25 -12 49 7 15 21 46 30 68 10 23 36 61 59 83 40 39 51 44 157 67 131 29 199 57 252 103 37 33 79 110 92 169 l7 32 -881 0 c-845 0 -881 -1 -881 -18z m890 -170 c0 -53 21 -101 66 -150 l45 -51 -38 11 c-21 6 -74 8 -117 5 l-79 -5 26 21 c31 25 50 69 67 150 12 58 30 69 30 19z m-190 -446 c0 -71 4 -107 13 -114 16 -14 130 -51 140 -45 4 2 7 12 7 23 0 13 -12 21 -49 30 -73 17 -82 27 -88 96 -5 54 -3 63 19 88 29 34 49 28 92 -29 15 -19 32 -35 39 -35 7 0 30 21 53 46 34 40 44 46 66 41 30 -8 38 -30 38 -106 0 -37 -5 -60 -17 -73 -20 -22 -33 -23 -33 -3 0 17 -57 85 -72 85 -5 0 4 -12 21 -26 25 -21 29 -29 21 -45 -7 -13 -7 -19 0 -19 21 0 9 -16 -20 -27 -20 -8 -30 -18 -30 -32 0 -28 18 -27 95 8 l65 30 0 105 c0 59 4 106 9 106 20 0 110 -99 135 -148 41 -81 108 -330 100 -372 -12 -62 -14 -90 -18 -239 -2 -80 -10 -161 -16 -179 -16 -43 -55 -62 -129 -62 -69 0 -175 -23 -235 -50 -109 -51 -169 -60 -266 -39 -67 14 -142 65 -152 104 -15 54 -22 293 -9 308 6 8 9 16 7 18 -3 2 -7 26 -11 53 -3 27 -10 55 -16 62 -6 7 -10 25 -11 41 0 38 77 304 103 355 22 43 120 148 138 148 7 0 11 -37 11 -104z m-250 -221 c0 -9 -7 -32 -17 -53 -9 -20 -15 -41 -14 -45 1 -5 -3 -6 -8 -3 -5 4 -19 -6 -31 -21 -21 -28 -23 -60 -5 -105 4 -11 3 -18 -4 -18 -6 0 -11 8 -12 18 0 9 -3 12 -5 5 -3 -7 0 -21 5 -32 6 -11 7 -22 2 -25 -30 -19 -20 106 14 174 12 25 29 62 38 83 17 38 37 50 37 22z m-49 -152 c-4 -28 -6 -32 -9 -15 -3 22 3 52 11 52 1 0 1 -17 -2 -37z"/>
 <path d="M909 1319 c-15 -16 -21 -29 -15 -29 21 0 48 26 45 42 -3 12 -10 10 -30 -13z"/>
 <path d="M968 1177 c-28 -23 -36 -51 -19 -61 5 -3 7 -15 4 -26 -3 -12 0 -20 6 -20 7 0 10 -4 7 -9 -7 -10 12 -108 25 -131 4 -8 5 36 2 98 l-6 112 32 0 c37 0 39 9 8 38 -28 27 -26 27 -59 -1z"/>
 <path d="M763 960 c-24 -4 -46 -9 -50 -13 -3 -4 14 -4 39 -1 74 10 156 -27 130 -58 -19 -24 -68 -47 -80 -39 -10 6 -9 11 4 22 16 13 17 12 10 -6 -5 -15 -4 -17 4 -9 16 16 9 65 -11 77 -23 14 -67 1 -74 -23 -9 -29 3 -60 28 -71 17 -7 14 -8 -12 -3 -39 7 -73 41 -67 67 6 26 -6 21 -36 -17 l-28 -35 32 -15 c17 -9 41 -16 52 -17 12 0 0 -7 -26 -15 -27 -8 -48 -18 -48 -22 0 -4 63 -7 140 -7 133 0 176 8 110 21 -24 5 -27 9 -16 19 7 7 24 15 37 17 19 2 25 10 27 38 5 65 -66 104 -165 90z"/>
 <path d="M1139 955 c-52 -12 -85 -51 -75 -89 10 -41 77 -70 145 -63 64 7 161 34 161 45 0 4 -14 23 -31 42 -17 19 -28 27 -25 17 6 -19 -30 -67 -51 -67 -10 0 -10 5 -1 25 16 35 -13 77 -50 73 -16 -2 -26 -8 -24 -16 1 -8 -2 -11 -7 -8 -12 8 -23 -26 -15 -48 8 -22 -1 -20 -36 6 -22 16 -27 25 -20 38 9 16 63 36 120 43 20 2 17 4 -12 8 -20 3 -56 0 -79 -6z"/>
 <path d="M1080 768 c0 -8 12 -21 28 -29 15 -7 45 -24 66 -37 31 -19 49 -23 86 -20 59 6 110 40 110 73 0 28 -13 26 -72 -13 -45 -29 -56 -27 -200 33 -12 5 -18 3 -18 -7z"/>
 <path d="M1481 1017 c7 -15 16 -27 21 -27 14 0 9 16 -13 36 -21 19 -21 19 -8 -9z"/>
 </g>
<g id="layer105" fill="#adb7ca" stroke="none">
 <path d="M120 1982 c0 -50 34 -127 76 -172 57 -61 115 -86 255 -107 64 -10 117 -23 123 -31 6 -7 24 -25 40 -40 15 -15 45 -63 66 -107 l38 -79 -29 -33 c-36 -42 -67 -102 -90 -173 -13 -42 -22 -56 -40 -60 -27 -7 -94 -116 -77 -126 13 -8 22 3 38 46 17 44 29 60 45 60 10 0 8 -15 -7 -62 -11 -35 -20 -69 -20 -75 -1 -7 -6 -13 -11 -13 -5 0 -7 -6 -4 -12 2 -7 1 -22 -4 -33 l-8 -20 -1 20 c-1 11 -2 31 -1 45 2 24 1 24 -14 6 -18 -23 -18 -29 -4 -80 8 -29 8 -41 -1 -46 -6 -4 -11 -10 -11 -14 3 -23 -1 -28 -11 -12 -6 11 -8 41 -4 75 4 41 3 52 -5 41 -8 -12 -9 -9 -4 10 4 14 14 30 22 37 11 8 11 13 2 19 -25 15 -59 -65 -59 -143 0 -48 17 -93 36 -93 14 0 -27 -148 -53 -187 -14 -21 -14 -23 0 -23 14 0 13 -8 -5 -61 l-20 -60 25 -27 c19 -20 24 -34 20 -55 -4 -20 0 -35 14 -50 11 -12 30 -48 43 -80 14 -35 35 -67 51 -80 16 -11 29 -26 29 -33 0 -15 15 -20 105 -34 39 -6 95 -18 126 -25 80 -21 125 -19 194 10 71 29 86 30 130 9 32 -15 37 -15 102 11 206 82 273 148 273 269 0 22 12 63 27 94 31 64 42 178 24 260 -10 47 -9 54 9 72 20 20 29 66 10 55 -6 -4 -10 8 -10 30 0 22 4 34 10 30 13 -8 13 24 -1 64 -9 26 -14 30 -26 20 -9 -8 -10 -14 -3 -19 8 -5 8 -15 0 -34 -7 -20 -7 -25 2 -20 8 5 9 -5 5 -35 -3 -24 -8 -46 -12 -49 -13 -14 -26 25 -21 66 5 40 4 43 -14 37 -16 -5 -20 -2 -20 14 0 30 -1 34 -12 56 -8 17 -6 17 11 -3 11 -12 21 -28 24 -35 2 -6 8 -9 12 -4 5 4 -7 24 -27 45 -20 20 -38 46 -41 57 -3 11 -8 30 -11 41 -5 16 -1 23 16 29 l23 8 -25 4 c-21 3 -28 14 -43 66 -21 71 -65 152 -100 186 -23 21 -24 25 -12 49 7 15 21 46 30 68 10 23 36 61 59 83 40 39 51 44 157 67 131 29 199 57 252 103 37 33 79 110 92 169 l7 32 -881 0 c-845 0 -881 -1 -881 -18z m890 -157 c0 -81 49 -163 130 -218 l25 -17 -30 11 c-39 14 -232 14 -267 0 -42 -16 -34 -5 18 25 53 31 75 71 94 171 12 61 30 77 30 28z m-158 -583 c15 -7 48 -19 73 -27 40 -12 47 -12 52 1 8 21 -4 30 -67 51 -42 14 -56 24 -61 43 -11 41 -10 103 4 130 20 41 45 37 99 -17 l49 -48 43 50 c41 46 46 49 72 40 28 -10 29 -13 32 -84 2 -58 -1 -77 -14 -92 -22 -24 -31 -24 -39 1 -9 28 -28 25 -21 -3 4 -19 0 -25 -24 -34 -28 -11 -40 -36 -22 -47 14 -8 117 33 135 55 14 17 17 41 17 126 l0 104 44 -30 c90 -63 127 -128 186 -334 35 -121 36 -131 22 -159 -10 -22 -17 -84 -22 -217 -10 -265 -16 -274 -175 -285 -79 -5 -136 -20 -270 -71 -60 -23 -80 -26 -143 -22 -77 6 -162 39 -195 75 -24 26 -38 146 -36 302 1 117 -1 143 -20 192 l-22 57 39 134 c61 207 91 260 187 329 l40 30 5 -119 c5 -116 5 -118 32 -131z m-405 -364 c-2 -18 -4 -6 -4 27 0 33 2 48 4 33 2 -15 2 -42 0 -60z"/>
 <path d="M917 1326 c-15 -23 -16 -26 -2 -26 17 0 29 22 23 41 -2 6 -12 0 -21 -15z"/>
 <path d="M977 1182 c-10 -10 -14 -22 -10 -25 3 -4 -1 -7 -10 -7 -18 0 -23 -25 -8 -34 5 -3 7 -15 4 -26 -3 -11 0 -20 6 -20 5 0 8 -6 6 -12 -3 -7 2 -35 9 -63 l14 -50 1 76 c1 45 -4 80 -11 87 -16 16 5 40 39 44 l25 3 -24 23 c-24 22 -25 22 -41 4z"/>
 <path d="M736 952 c-2 -4 13 -6 35 -4 21 2 39 6 39 8 0 7 -69 4 -74 -4z"/>
 <path d="M1198 953 c12 -2 30 -2 40 0 9 3 -1 5 -23 4 -22 0 -30 -2 -17 -4z"/>
 <path d="M746 924 c-27 -27 -15 -72 24 -88 8 -3 0 -3 -19 0 -41 7 -73 41 -67 69 4 15 -3 11 -24 -14 -16 -19 -27 -38 -24 -42 3 -5 23 -14 45 -21 l41 -12 -46 -13 c-25 -8 -46 -17 -46 -21 0 -8 258 -7 266 1 3 3 -9 8 -27 12 l-33 8 29 23 c16 13 26 26 22 30 -4 4 -2 13 4 21 16 19 2 16 -29 -5 -42 -29 -47 -31 -60 -23 -10 6 -9 11 4 22 16 12 17 12 11 -4 -4 -11 -3 -16 3 -12 14 9 12 59 -2 73 -17 17 -54 15 -72 -4z m109 -89 c-16 -14 -39 -25 -50 -25 -12 0 -3 9 25 24 58 30 61 30 25 1z"/>
 <path d="M1174 915 c-9 -14 -13 -32 -9 -45 6 -20 -9 -28 -20 -10 -3 5 -15 14 -25 20 -16 8 -19 7 -17 -10 2 -35 32 -52 99 -57 57 -4 136 14 160 36 3 3 -7 22 -24 41 -17 19 -28 27 -25 17 7 -19 -28 -67 -50 -67 -10 0 -10 5 -1 25 26 57 -53 103 -88 50z m-5 -92 c2 -2 0 -3 -6 -3 -6 0 -21 9 -34 21 l-24 20 30 -17 c17 -10 32 -19 34 -21z"/>
 <path d="M1325 753 c-50 -35 -111 -36 -172 -5 -23 12 -50 22 -60 22 -15 0 -14 -4 7 -20 44 -34 121 -70 151 -70 32 0 107 42 115 65 12 31 -3 34 -41 8z"/>
 <path d="M1460 1140 c0 -17 44 -100 53 -100 4 0 5 -6 1 -12 -6 -10 -4 -10 8 0 15 12 14 16 -7 48 -13 20 -27 44 -30 55 -7 20 -25 27 -25 9z"/>
 </g>
<g id="layer106" fill="#e4977b" stroke="none">
 <path d="M120 1982 c0 -50 34 -127 76 -172 57 -61 115 -86 255 -107 64 -10 117 -23 123 -31 6 -7 24 -25 40 -40 15 -15 45 -63 66 -107 l38 -79 -29 -33 c-36 -42 -67 -102 -90 -173 -13 -42 -22 -56 -40 -60 -27 -7 -94 -116 -77 -126 13 -8 22 3 38 46 17 44 29 60 45 60 10 0 8 -15 -7 -62 -11 -35 -20 -69 -20 -75 -1 -7 -6 -13 -11 -13 -5 0 -7 -6 -4 -12 2 -7 1 -22 -4 -33 l-8 -20 -1 20 c-1 11 -2 31 -1 45 2 24 1 24 -14 6 -18 -23 -18 -29 -4 -80 8 -29 8 -41 -1 -46 -6 -4 -11 -10 -11 -14 3 -23 -1 -28 -11 -12 -6 11 -8 41 -4 75 4 41 3 52 -5 41 -8 -12 -9 -9 -4 10 4 14 14 30 22 37 11 8 11 13 2 19 -25 15 -59 -65 -59 -143 0 -48 17 -93 36 -93 14 0 -27 -148 -53 -187 -14 -21 -14 -23 0 -23 14 0 13 -8 -5 -61 l-20 -60 25 -27 c19 -20 24 -34 20 -55 -4 -20 0 -35 14 -50 11 -12 30 -48 43 -80 14 -35 35 -67 51 -80 16 -11 29 -26 29 -33 0 -15 15 -20 105 -34 39 -6 95 -18 126 -25 80 -21 125 -19 194 10 71 29 86 30 130 9 32 -15 37 -15 102 11 206 82 273 148 273 269 0 22 12 63 27 94 31 64 42 178 24 260 -10 47 -9 54 9 72 20 20 29 66 10 55 -6 -4 -10 8 -10 30 0 22 4 34 10 30 13 -8 13 24 -1 64 -9 26 -14 30 -26 20 -9 -8 -10 -14 -3 -19 8 -5 8 -15 0 -34 -7 -20 -7 -25 2 -20 8 5 9 -5 5 -35 -3 -24 -8 -46 -12 -49 -13 -14 -26 25 -21 66 5 40 4 43 -14 37 -16 -5 -20 -2 -20 14 0 30 -1 34 -12 56 -8 17 -6 17 11 -3 11 -12 21 -28 24 -35 2 -6 8 -9 12 -4 5 4 -7 24 -27 45 -20 20 -38 46 -41 57 -3 11 -8 30 -11 41 -5 16 -1 23 16 29 l23 8 -25 4 c-21 3 -28 14 -43 66 -21 71 -65 152 -100 186 -23 21 -24 25 -12 49 7 15 21 46 30 68 10 23 36 61 59 83 40 39 51 44 157 67 131 29 199 57 252 103 37 33 79 110 92 169 l7 32 -881 0 c-845 0 -881 -1 -881 -18z m890 -157 c0 -81 49 -163 130 -218 l25 -17 -30 11 c-39 14 -232 14 -267 0 -42 -16 -34 -5 18 25 53 31 75 71 94 171 12 61 30 77 30 28z m-158 -583 c15 -7 48 -19 73 -27 40 -12 47 -12 52 1 8 21 -4 30 -67 51 -42 14 -56 24 -61 43 -11 41 -10 103 4 130 20 41 45 37 99 -17 l49 -48 43 50 c41 46 46 49 72 40 28 -10 29 -13 32 -84 2 -58 -1 -77 -14 -92 -22 -24 -31 -24 -39 1 -9 28 -28 25 -21 -3 4 -19 0 -25 -24 -34 -28 -11 -40 -36 -22 -47 14 -8 117 33 135 55 14 17 17 41 17 126 l0 104 44 -30 c90 -63 127 -128 186 -334 35 -121 36 -131 22 -159 -10 -22 -17 -84 -22 -217 -10 -265 -16 -274 -175 -285 -79 -5 -136 -20 -270 -71 -60 -23 -80 -26 -143 -22 -77 6 -162 39 -195 75 -24 26 -38 146 -36 302 1 117 -1 143 -20 192 l-22 57 39 134 c61 207 91 260 187 329 l40 30 5 -119 c5 -116 5 -118 32 -131z m-405 -364 c-2 -18 -4 -6 -4 27 0 33 2 48 4 33 2 -15 2 -42 0 -60z"/>
 <path d="M916 1325 c-14 -22 -15 -25 -1 -25 8 0 15 3 16 8 0 4 2 15 4 25 4 23 0 22 -19 -8z"/>
 <path d="M977 1182 c-10 -10 -14 -22 -10 -25 3 -4 -1 -7 -10 -7 -18 0 -23 -25 -8 -34 5 -3 7 -15 4 -26 -3 -11 0 -20 6 -20 5 0 8 -6 6 -12 -3 -7 2 -35 9 -63 l14 -50 1 76 c1 45 -4 80 -11 87 -16 16 5 40 39 44 l25 3 -24 23 c-24 22 -25 22 -41 4z"/>
 <path d="M736 952 c-2 -4 13 -6 35 -4 21 2 39 6 39 8 0 7 -69 4 -74 -4z"/>
 <path d="M1198 953 c12 -2 30 -2 40 0 9 3 -1 5 -23 4 -22 0 -30 -2 -17 -4z"/>
 <path d="M760 929 c0 -7 -7 -17 -15 -23 -19 -15 -9 -50 18 -65 20 -10 19 -11 -8 -6 -44 8 -85 26 -85 37 0 5 5 19 10 31 7 14 0 9 -19 -12 -17 -19 -28 -38 -25 -42 3 -5 23 -14 45 -21 l41 -12 -46 -13 c-25 -8 -46 -17 -46 -21 0 -8 258 -7 266 1 3 3 -9 8 -27 12 l-33 8 29 23 c16 13 26 26 22 30 -4 4 -2 13 4 21 17 20 2 16 -30 -8 -17 -13 -34 -18 -42 -14 -8 5 -10 4 -5 -3 5 -8 2 -10 -8 -6 -22 9 -20 25 4 31 24 6 26 26 4 47 -18 18 -54 21 -54 5z m95 -94 c-16 -14 -39 -25 -50 -25 -12 0 -3 9 25 24 58 30 61 30 25 1z"/>
 <path d="M1196 924 c-3 -8 -10 -12 -16 -9 -14 9 -13 -48 2 -63 21 -21 -6 -13 -44 13 -35 24 -37 24 -35 5 2 -35 32 -52 99 -57 57 -4 136 14 160 36 3 3 -7 22 -23 41 l-29 35 6 -31 c5 -27 2 -32 -23 -42 -15 -6 -41 -14 -58 -17 -26 -5 -27 -4 -7 4 12 6 22 13 22 16 0 4 -4 3 -10 0 -5 -3 -10 1 -10 9 0 9 7 16 15 16 22 0 18 37 -4 50 -27 14 -38 13 -45 -6z m-27 -101 c2 -2 0 -3 -6 -3 -6 0 -21 9 -34 21 l-24 20 30 -17 c17 -10 32 -19 34 -21z"/>
 <path d="M1325 753 c-50 -35 -111 -36 -172 -5 -23 12 -50 22 -60 22 -15 0 -14 -4 7 -20 44 -34 121 -70 151 -70 32 0 107 42 115 65 12 31 -3 34 -41 8z"/>
 <path d="M1460 1140 c0 -17 44 -100 53 -100 4 0 5 -6 1 -12 -6 -10 -4 -10 8 0 15 12 14 16 -7 48 -13 20 -27 44 -30 55 -7 20 -25 27 -25 9z"/>
 </g>
<g id="layer107" fill="#a79da0" stroke="none">
 <path d="M120 1982 c0 -50 34 -127 76 -172 57 -61 115 -86 255 -107 64 -10 117 -23 123 -31 6 -7 24 -25 40 -40 15 -15 46 -65 69 -112 22 -47 41 -87 43 -89 2 -3 14 5 27 15 12 11 33 27 47 36 l25 15 -3 -114 c-2 -71 1 -119 8 -127 9 -11 103 -46 135 -50 6 0 10 8 10 19 0 15 -14 24 -60 40 -46 16 -61 25 -66 45 -11 41 -10 103 4 130 20 41 45 37 99 -17 l49 -48 43 50 c41 46 46 49 72 40 28 -10 29 -13 32 -84 2 -58 -1 -77 -14 -92 -22 -24 -31 -24 -39 1 -9 28 -28 25 -21 -3 4 -19 0 -25 -24 -34 -28 -11 -40 -36 -22 -47 14 -8 117 34 135 56 16 19 18 37 15 129 l-3 107 41 -28 c41 -29 96 -86 125 -130 9 -14 20 -22 23 -19 4 4 0 14 -9 22 -8 9 -15 20 -15 26 0 6 -5 11 -11 11 -5 0 -8 4 -5 8 3 5 -8 21 -23 36 -27 26 -28 30 -16 54 7 15 21 46 30 68 10 23 36 61 59 83 40 39 51 44 157 67 131 29 199 57 252 103 37 33 79 110 92 169 l7 32 -881 0 c-845 0 -881 -1 -881 -18z m902 -217 c14 -67 48 -109 125 -158 50 -31 63 -45 61 -61 -5 -34 -45 -33 -82 2 -17 16 -51 40 -75 52 -55 27 -91 19 -166 -38 -28 -21 -61 -41 -73 -44 -19 -5 -22 -2 -22 22 0 25 9 35 70 71 41 24 77 54 85 70 20 38 44 144 46 199 l2 45 9 -55 c5 -30 14 -77 20 -105z"/>
 <path d="M673 1390 c-3 -11 -9 -20 -14 -20 -5 0 -9 -8 -9 -17 0 -14 6 -11 25 12 27 33 31 45 14 45 -6 0 -13 -9 -16 -20z"/>
 <path d="M916 1325 c-14 -22 -15 -25 -1 -25 8 0 15 3 16 8 0 4 2 15 4 25 4 23 0 22 -19 -8z"/>
 <path d="M612 1278 c-11 -29 -21 -62 -23 -73 -3 -11 -13 -21 -23 -23 -23 -5 -38 -19 -55 -50 -8 -15 -8 -22 -1 -22 6 0 15 11 22 24 12 27 34 40 43 27 3 -5 -1 -26 -9 -47 -21 -62 -29 -100 -18 -89 6 6 20 45 31 87 20 71 48 155 66 201 4 9 3 17 -3 17 -6 0 -19 -24 -30 -52z"/>
 <path d="M1367 1304 c-3 -6 3 -40 15 -75 20 -62 38 -95 38 -71 0 6 6 9 14 6 8 -3 17 -1 21 5 4 7 -3 11 -17 11 -20 0 -26 10 -43 68 -11 37 -24 62 -28 56z"/>
 <path d="M971 1177 c-6 -8 -8 -17 -4 -20 3 -4 -1 -7 -10 -7 -18 0 -23 -25 -8 -34 5 -3 7 -15 4 -26 -3 -11 -1 -20 3 -20 5 0 9 -14 10 -31 1 -16 6 -35 13 -42 8 -8 11 -2 11 25 0 20 -4 40 -10 43 -15 9 -11 67 5 89 25 33 12 53 -14 23z"/>
 <path d="M1462 1138 c2 -6 10 -14 16 -16 7 -2 10 2 6 12 -7 18 -28 22 -22 4z"/>
 <path d="M1415 1119 c31 -94 33 -119 18 -150 -11 -23 -17 -81 -23 -218 -10 -265 -16 -274 -175 -285 -79 -5 -136 -20 -270 -71 -60 -23 -80 -26 -143 -22 -77 6 -162 39 -195 75 -24 26 -38 146 -36 302 1 123 -1 141 -24 200 l-25 65 -12 -33 c-11 -31 -13 -32 -27 -15 -13 16 -14 14 -9 -22 4 -30 -4 -72 -36 -170 -22 -71 -48 -140 -56 -152 -13 -20 -13 -23 1 -23 14 0 13 -8 -5 -61 l-20 -60 25 -27 c19 -20 24 -34 20 -55 -4 -20 0 -35 14 -50 11 -12 30 -48 43 -80 14 -35 35 -67 51 -80 16 -11 29 -26 29 -33 0 -15 15 -20 105 -34 39 -6 95 -18 126 -25 80 -21 125 -19 194 10 71 29 86 30 130 9 32 -15 37 -15 102 11 206 82 273 148 273 269 0 22 12 63 27 94 31 64 42 178 24 260 -10 47 -9 54 9 72 11 11 20 28 20 38 0 13 -6 10 -25 -13 -13 -16 -24 -25 -25 -18 0 6 4 13 10 15 5 2 12 26 15 53 l4 50 -9 -44 c-12 -58 -17 -60 -34 -20 -9 22 -11 41 -5 57 12 32 12 34 -9 27 -16 -5 -22 6 -41 80 -13 47 -27 88 -33 91 -7 4 -7 -2 -3 -17z"/>
 <path d="M475 1071 c-6 -11 9 -23 19 -14 9 9 7 23 -3 23 -6 0 -12 -4 -16 -9z"/>
 <path d="M1512 1051 c2 -7 7 -12 11 -12 12 1 9 15 -3 20 -7 2 -11 -2 -8 -8z"/>
 <path d="M446 1024 c-4 -10 -1 -14 6 -12 15 5 23 28 10 28 -5 0 -13 -7 -16 -16z"/>
 <path d="M1547 1003 c-4 -6 -2 -24 5 -40 7 -19 12 -23 15 -12 5 21 -12 65 -20 52z"/>
 <path d="M426 969 c-8 -44 -7 -111 2 -127 10 -15 42 -5 41 12 -1 6 -5 22 -9 36 -7 23 -8 23 -11 -10 -2 -28 -3 -24 -8 20 -4 30 -2 61 3 68 6 8 5 17 -1 23 -7 7 -12 0 -17 -22z"/>
 <path d="M736 952 c-2 -4 13 -6 35 -4 21 2 39 6 39 8 0 7 -69 4 -74 -4z"/>
 <path d="M1198 953 c12 -2 30 -2 40 0 9 3 -1 5 -23 4 -22 0 -30 -2 -17 -4z"/>
 <path d="M760 929 c0 -7 -7 -17 -15 -23 -19 -15 -9 -50 18 -65 20 -10 19 -11 -8 -6 -44 8 -85 26 -85 37 0 5 5 19 10 31 7 14 0 9 -19 -12 -17 -19 -28 -38 -25 -42 3 -5 23 -14 45 -21 l41 -12 -46 -13 c-25 -8 -46 -17 -46 -21 0 -8 259 -7 267 1 2 3 -21 11 -52 18 l-56 12 33 14 c36 15 68 41 68 55 0 5 -13 -1 -29 -13 -17 -12 -34 -18 -42 -14 -8 5 -10 4 -5 -3 5 -8 2 -10 -8 -6 -22 9 -20 25 4 31 24 6 26 26 4 47 -18 18 -54 21 -54 5z"/>
 <path d="M1196 924 c-3 -8 -10 -12 -16 -9 -14 9 -13 -48 2 -63 19 -19 -1 -14 -40 10 -23 14 -33 17 -30 8 7 -22 89 -59 128 -59 32 0 119 28 123 40 1 2 -10 20 -26 39 l-27 35 6 -31 c5 -27 2 -32 -23 -42 -15 -6 -41 -14 -58 -17 -26 -5 -27 -4 -7 4 12 6 22 13 22 16 0 4 -4 3 -10 0 -5 -3 -10 1 -10 9 0 9 7 16 15 16 22 0 18 37 -4 50 -27 14 -38 13 -45 -6z"/>
 <path d="M1325 753 c-50 -35 -111 -36 -172 -5 -23 12 -50 22 -60 22 -15 0 -14 -4 7 -20 44 -34 121 -70 151 -70 32 0 107 42 115 65 12 31 -3 34 -41 8z"/>
 </g>
<g id="layer108" fill="#d78a6d" stroke="none">
 <path d="M120 1982 c0 -50 34 -127 76 -172 57 -61 115 -86 255 -107 64 -10 117 -23 123 -31 6 -7 24 -25 40 -40 15 -15 46 -65 69 -112 22 -47 41 -87 43 -89 2 -3 14 5 27 15 12 11 33 27 47 36 l25 15 -3 -114 c-2 -71 1 -119 8 -127 9 -11 103 -46 135 -50 6 0 10 8 10 19 0 15 -14 24 -60 40 -46 16 -61 25 -66 45 -11 41 -10 103 4 130 20 41 45 37 99 -17 l49 -48 43 50 c41 46 46 49 72 40 28 -10 29 -13 32 -86 2 -65 0 -78 -17 -93 -20 -18 -21 -18 -40 5 l-19 24 5 -25 c4 -21 -1 -27 -26 -37 -29 -10 -41 -36 -23 -47 14 -8 117 34 135 56 16 19 18 37 15 129 l-3 107 41 -28 c41 -29 96 -86 125 -130 9 -14 20 -22 23 -19 4 4 0 14 -9 22 -8 9 -15 20 -15 26 0 6 -5 11 -11 11 -5 0 -8 4 -5 8 3 5 -8 21 -23 36 -27 26 -28 30 -16 54 7 15 21 46 30 68 10 23 36 61 59 83 40 39 51 44 157 67 131 29 199 57 252 103 37 33 79 110 92 169 l7 32 -881 0 c-845 0 -881 -1 -881 -18z m905 -237 c12 -48 53 -95 122 -138 50 -31 63 -45 61 -61 -5 -34 -45 -33 -82 2 -17 16 -51 40 -75 52 -55 27 -91 19 -166 -38 -28 -21 -61 -41 -73 -44 -19 -5 -22 -2 -22 22 0 25 9 35 71 72 57 33 76 50 90 83 19 44 38 144 40 215 1 34 4 23 14 -45 7 -49 16 -103 20 -120z"/>
 <path d="M673 1390 c-3 -11 -9 -20 -14 -20 -5 0 -9 -8 -9 -17 0 -14 6 -11 25 12 27 33 31 45 14 45 -6 0 -13 -9 -16 -20z"/>
 <path d="M612 1278 c-11 -29 -21 -62 -23 -73 -3 -11 -13 -21 -23 -23 -23 -5 -38 -19 -55 -50 -8 -15 -8 -22 -1 -22 6 0 15 11 22 24 12 27 34 40 43 27 3 -5 -1 -26 -9 -47 -21 -62 -29 -100 -18 -89 6 6 20 45 31 87 20 71 48 155 66 201 4 9 3 17 -3 17 -6 0 -19 -24 -30 -52z"/>
 <path d="M910 1315 c-10 -12 -10 -15 3 -15 8 0 17 7 21 15 3 8 2 15 -3 15 -5 0 -14 -7 -21 -15z"/>
 <path d="M1367 1304 c-3 -6 3 -40 15 -75 20 -62 38 -95 38 -71 0 6 6 9 14 6 8 -3 17 -1 21 5 4 7 -3 11 -17 11 -20 0 -26 10 -43 68 -11 37 -24 62 -28 56z"/>
 <path d="M971 1177 c-6 -8 -8 -17 -4 -20 3 -4 -1 -7 -10 -7 -18 0 -23 -25 -8 -34 5 -3 7 -15 4 -26 -3 -11 -1 -20 3 -20 5 0 9 -14 10 -31 1 -16 6 -35 13 -42 8 -8 11 -2 11 25 0 20 -4 40 -10 43 -15 9 -11 67 5 89 25 33 12 53 -14 23z"/>
 <path d="M1462 1138 c2 -6 10 -14 16 -16 7 -2 10 2 6 12 -7 18 -28 22 -22 4z"/>
 <path d="M1415 1119 c31 -94 33 -119 18 -150 -11 -23 -17 -81 -23 -218 -10 -265 -16 -274 -175 -285 -79 -5 -136 -20 -270 -71 -60 -23 -80 -26 -143 -22 -77 6 -162 39 -195 75 -24 26 -38 146 -36 302 1 123 -1 141 -24 200 l-25 65 -12 -33 c-11 -31 -13 -32 -27 -15 -13 16 -14 14 -9 -22 4 -30 -4 -72 -36 -170 -22 -71 -48 -140 -56 -152 -13 -20 -13 -23 1 -23 14 0 13 -8 -5 -61 l-20 -60 25 -27 c19 -20 24 -34 20 -55 -4 -20 0 -35 14 -50 11 -12 30 -48 43 -80 14 -35 35 -67 51 -80 16 -11 29 -26 29 -33 0 -15 15 -20 105 -34 39 -6 95 -18 126 -25 80 -21 125 -19 194 10 71 29 86 30 130 9 32 -15 37 -15 102 11 206 82 273 148 273 269 0 22 12 63 27 94 31 64 42 178 24 260 -10 47 -9 54 9 72 11 11 20 28 20 38 0 13 -6 10 -25 -13 -13 -16 -24 -25 -25 -18 0 6 4 13 10 15 5 2 12 26 15 53 l4 50 -9 -44 c-12 -58 -17 -60 -34 -20 -9 22 -11 41 -5 57 12 32 12 34 -9 27 -16 -5 -22 6 -41 80 -13 47 -27 88 -33 91 -7 4 -7 -2 -3 -17z"/>
 <path d="M475 1071 c-6 -11 9 -23 19 -14 9 9 7 23 -3 23 -6 0 -12 -4 -16 -9z"/>
 <path d="M1512 1051 c2 -7 7 -12 11 -12 12 1 9 15 -3 20 -7 2 -11 -2 -8 -8z"/>
 <path d="M446 1024 c-4 -10 -1 -14 6 -12 15 5 23 28 10 28 -5 0 -13 -7 -16 -16z"/>
 <path d="M1547 1003 c-4 -6 -2 -24 5 -40 7 -19 12 -23 15 -12 5 21 -12 65 -20 52z"/>
 <path d="M426 969 c-8 -44 -7 -111 2 -127 10 -15 42 -5 41 12 -1 6 -5 22 -9 36 -7 23 -8 23 -11 -10 -2 -28 -3 -24 -8 20 -4 30 -2 61 3 68 6 8 5 17 -1 23 -7 7 -12 0 -17 -22z"/>
 <path d="M758 953 c12 -2 30 -2 40 0 9 3 -1 5 -23 4 -22 0 -30 -2 -17 -4z"/>
 <path d="M1198 953 c12 -2 30 -2 40 0 9 3 -1 5 -23 4 -22 0 -30 -2 -17 -4z"/>
 <path d="M760 926 c0 -8 -7 -17 -16 -20 -17 -6 -11 -45 10 -58 21 -14 46 -9 39 8 -4 10 1 17 16 21 25 6 27 25 5 47 -19 20 -54 21 -54 2z"/>
 <path d="M1196 924 c-3 -8 -10 -12 -16 -9 -14 9 -13 -48 2 -63 7 -7 23 -12 38 -11 14 0 20 3 13 5 -16 7 -5 34 13 34 21 0 17 38 -5 50 -27 14 -38 13 -45 -6z"/>
 <path d="M1310 918 c0 -4 4 -18 9 -31 9 -23 7 -27 -30 -41 -54 -22 -87 -20 -137 9 -24 14 -42 19 -40 13 7 -20 91 -57 128 -57 32 0 119 28 123 40 1 2 -10 20 -25 39 -15 19 -28 32 -28 28z"/>
 <path d="M650 880 l-22 -30 36 -15 c19 -8 41 -15 48 -16 7 0 -8 -7 -34 -15 -27 -8 -48 -18 -48 -22 0 -8 259 -7 267 1 2 3 -21 11 -51 18 l-56 12 37 17 c21 9 44 24 52 33 17 21 7 22 -24 1 -13 -9 -30 -12 -36 -8 -7 4 -9 3 -6 -3 16 -25 -56 -30 -109 -8 -31 13 -35 18 -30 40 8 33 2 32 -24 -5z"/>
 <path d="M1325 753 c-50 -35 -111 -36 -172 -5 -23 12 -50 22 -60 22 -15 0 -14 -4 7 -20 44 -34 121 -70 151 -70 32 0 107 42 115 65 12 31 -3 34 -41 8z"/>
 </g>
<g id="layer109" fill="#d68061" stroke="none">
 <path d="M120 1982 c0 -50 34 -127 76 -172 57 -61 115 -86 255 -107 64 -10 117 -23 123 -31 6 -7 24 -25 40 -40 16 -15 43 -59 61 -97 44 -95 55 -103 97 -72 18 13 38 27 43 30 6 3 9 -35 7 -110 -2 -71 1 -119 8 -127 9 -11 103 -46 135 -50 6 0 10 8 10 19 0 15 -14 24 -60 40 -46 16 -61 25 -66 45 -11 41 -10 103 4 130 20 41 45 37 99 -17 l49 -48 43 50 c41 46 46 49 72 40 28 -10 29 -13 32 -86 2 -65 0 -78 -17 -93 -20 -18 -21 -18 -40 5 l-19 24 5 -25 c4 -21 -1 -27 -26 -37 -29 -10 -41 -36 -23 -47 14 -8 117 34 135 56 16 19 18 37 15 130 -2 67 0 104 7 98 5 -6 15 -10 23 -10 16 0 82 -67 119 -122 26 -38 48 -51 37 -23 -4 8 -10 15 -15 15 -5 0 -9 7 -9 15 0 8 -5 15 -11 15 -5 0 -8 4 -5 9 3 4 -8 20 -24 34 -28 25 -28 28 -15 54 7 16 21 47 30 69 10 23 36 61 59 83 40 39 51 44 157 67 131 29 199 57 252 103 37 33 79 110 92 169 l7 32 -881 0 c-845 0 -881 -1 -881 -18z m905 -237 c12 -48 53 -95 122 -137 60 -38 63 -42 63 -79 l0 -39 -27 17 c-16 9 -41 29 -58 44 -16 15 -50 37 -74 49 -38 19 -49 21 -81 11 -21 -6 -57 -28 -81 -49 -41 -36 -80 -62 -93 -62 -3 0 -6 16 -6 35 0 32 5 37 71 77 57 33 76 50 90 83 19 44 38 144 40 215 1 34 4 23 14 -45 7 -49 16 -103 20 -120z"/>
 <path d="M673 1390 c-3 -11 -9 -20 -14 -20 -5 0 -9 -8 -9 -17 0 -14 6 -11 25 12 27 33 31 45 14 45 -6 0 -13 -9 -16 -20z"/>
 <path d="M910 1315 c-10 -12 -10 -15 3 -15 8 0 17 7 21 15 3 8 2 15 -3 15 -5 0 -14 -7 -21 -15z"/>
 <path d="M1397 1213 c-8 -12 10 -69 19 -60 3 2 1 20 -3 38 -5 19 -12 29 -16 22z"/>
 <path d="M568 1122 c-9 -37 -19 -76 -24 -87 -4 -13 -4 -17 3 -10 6 6 18 39 28 74 9 36 19 71 22 78 3 7 1 13 -3 13 -5 0 -16 -30 -26 -68z"/>
 <path d="M512 1135 c-14 -29 2 -34 18 -6 12 24 13 31 2 31 -5 0 -14 -11 -20 -25z"/>
 <path d="M940 1143 c0 -5 7 -17 15 -27 14 -19 15 -19 15 7 0 17 -5 27 -15 27 -8 0 -15 -3 -15 -7z"/>
 <path d="M1462 1138 c2 -6 10 -14 16 -16 7 -2 10 2 6 12 -7 18 -28 22 -22 4z"/>
 <path d="M1418 1115 c2 -14 8 -27 12 -30 4 -2 5 7 2 20 -2 14 -8 27 -12 30 -4 2 -5 -7 -2 -20z"/>
 <path d="M970 1041 c0 -17 5 -31 10 -31 6 0 10 11 10 24 0 14 -4 28 -10 31 -6 4 -10 -7 -10 -24z"/>
 <path d="M1441 1038 c7 -25 5 -41 -7 -67 -13 -26 -18 -81 -24 -220 -10 -265 -16 -274 -175 -285 -79 -5 -136 -20 -270 -71 -60 -23 -80 -26 -143 -22 -77 6 -162 39 -195 75 -24 26 -38 147 -36 297 2 101 -2 142 -15 182 -20 62 -31 71 -48 44 -11 -18 -13 -18 -26 -3 -12 15 -13 12 -8 -23 4 -30 -4 -72 -36 -170 -22 -71 -48 -140 -56 -152 -13 -20 -13 -23 1 -23 14 0 13 -8 -5 -61 l-20 -60 25 -27 c19 -20 24 -34 20 -55 -4 -20 0 -35 14 -50 11 -12 30 -48 43 -80 14 -35 35 -67 51 -80 16 -11 29 -26 29 -33 0 -15 15 -20 105 -34 39 -6 95 -18 126 -25 80 -21 125 -19 194 10 71 29 86 30 130 9 32 -15 37 -15 102 11 206 82 273 148 273 269 0 22 12 63 27 94 31 64 42 178 24 260 -10 47 -9 54 9 72 11 11 20 28 20 38 0 13 -6 10 -25 -13 -13 -16 -24 -25 -25 -18 0 6 4 13 10 15 5 2 11 23 14 48 l6 45 -11 -42 c-6 -24 -14 -43 -18 -43 -14 0 -28 65 -19 89 10 29 4 38 -16 22 -12 -10 -16 -3 -27 44 -7 31 -16 58 -20 61 -4 2 -4 -10 2 -28z"/>
 <path d="M1512 1051 c2 -7 7 -12 11 -12 12 1 9 15 -3 20 -7 2 -11 -2 -8 -8z"/>
 <path d="M446 1024 c-4 -10 -1 -14 6 -12 15 5 23 28 10 28 -5 0 -13 -7 -16 -16z"/>
 <path d="M1554 969 c-3 -6 -1 -16 5 -22 8 -8 11 -5 11 11 0 24 -5 28 -16 11z"/>
 <path d="M420 908 c0 -29 4 -59 8 -66 9 -14 42 -6 42 10 0 6 -7 8 -15 4 -12 -4 -15 3 -16 32 -1 20 -1 42 0 49 1 6 -3 14 -9 18 -6 4 -10 -13 -10 -47z"/>
 <path d="M758 953 c12 -2 30 -2 40 0 9 3 -1 5 -23 4 -22 0 -30 -2 -17 -4z"/>
 <path d="M1203 953 c9 -2 25 -2 35 0 9 3 1 5 -18 5 -19 0 -27 -2 -17 -5z"/>
 <path d="M760 926 c0 -8 -7 -17 -16 -20 -17 -6 -11 -45 10 -58 21 -14 46 -9 39 8 -4 10 1 17 16 21 25 6 27 25 5 47 -19 20 -54 21 -54 2z"/>
 <path d="M1196 924 c-3 -8 -10 -12 -16 -9 -14 9 -13 -48 2 -63 7 -7 23 -12 38 -11 14 0 20 3 13 5 -16 7 -5 34 13 34 21 0 17 38 -5 50 -27 14 -38 13 -45 -6z"/>
 <path d="M1310 918 c0 -4 4 -18 9 -31 9 -23 7 -27 -30 -41 -55 -22 -87 -20 -139 10 l-45 26 23 -25 c44 -46 127 -54 211 -20 l33 14 -23 27 c-13 15 -27 31 -31 37 -5 5 -8 6 -8 3z"/>
 <path d="M650 881 c-23 -33 -20 -37 44 -57 24 -7 32 -13 20 -13 -12 -1 -36 -7 -55 -13 -31 -12 -23 -13 96 -18 72 -3 134 -2 139 2 4 3 -20 13 -55 21 -35 8 -55 16 -44 16 22 1 100 50 92 58 -3 2 -17 -3 -31 -12 -14 -9 -31 -13 -37 -9 -7 4 -9 3 -6 -3 16 -25 -56 -30 -109 -8 -31 13 -35 18 -30 40 8 33 2 32 -24 -4z"/>
 <path d="M1325 753 c-50 -35 -111 -36 -172 -5 -23 12 -50 22 -60 22 -15 0 -14 -4 7 -20 44 -34 121 -70 151 -70 32 0 107 42 115 65 12 31 -3 34 -41 8z"/>
 </g>
<g id="layer110" fill="#788ab4" stroke="none">
 <path d="M120 1982 c0 -50 34 -127 76 -172 57 -61 115 -86 255 -107 62 -9 117 -23 123 -30 6 -8 25 -27 41 -43 17 -16 46 -62 65 -102 19 -40 40 -74 46 -75 23 -7 55 32 61 75 5 40 10 45 76 84 55 33 74 50 88 83 19 44 38 144 40 215 1 34 4 23 14 -45 7 -49 16 -103 20 -120 12 -48 53 -95 122 -137 61 -39 63 -42 63 -82 1 -33 6 -45 27 -60 26 -19 26 -19 45 3 10 13 18 30 18 38 0 26 38 88 78 126 35 34 50 40 153 63 131 29 199 57 252 103 37 33 79 110 92 169 l7 32 -881 0 c-845 0 -881 -1 -881 -18z"/>
 <path d="M943 1599 c-23 -11 -60 -40 -82 -65 l-41 -44 0 -114 c0 -79 4 -117 13 -124 11 -9 109 -43 132 -46 6 -1 10 8 10 19 0 15 -14 24 -60 40 -46 16 -61 25 -66 45 -11 41 -10 103 4 130 20 41 45 37 99 -17 l49 -48 43 50 c41 46 46 49 72 40 28 -10 29 -13 32 -86 2 -65 0 -78 -17 -93 -20 -18 -21 -18 -40 5 l-19 24 5 -25 c4 -21 -1 -27 -26 -37 -29 -10 -41 -36 -23 -47 14 -8 117 33 135 55 22 28 25 195 3 237 -19 37 -63 76 -113 101 -52 26 -58 26 -110 0z"/>
 <path d="M910 1315 c-10 -12 -10 -15 3 -15 8 0 17 7 21 15 3 8 2 15 -3 15 -5 0 -14 -7 -21 -15z"/>
 <path d="M529 966 c-9 -12 -38 -89 -64 -171 -26 -83 -55 -160 -63 -172 -13 -20 -13 -23 1 -23 14 0 13 -8 -5 -61 l-20 -60 25 -27 c19 -20 24 -34 20 -55 -4 -20 0 -35 14 -50 11 -12 30 -48 43 -80 14 -35 35 -67 51 -80 16 -11 29 -26 29 -33 0 -15 15 -20 105 -34 39 -6 95 -18 126 -25 80 -21 125 -19 194 10 71 29 86 30 130 9 32 -15 37 -15 102 11 206 82 273 148 273 269 0 22 12 63 27 94 48 99 42 246 -17 405 -12 31 -30 66 -40 79 l-18 23 -12 -30 c-7 -16 -15 -113 -20 -215 -10 -264 -16 -273 -175 -284 -79 -5 -136 -20 -270 -71 -60 -23 -80 -26 -143 -22 -77 6 -162 39 -195 75 -24 26 -38 147 -36 297 2 101 -2 142 -15 182 -10 29 -21 55 -24 57 -4 2 -14 -6 -23 -18z"/>
 <path d="M758 953 c12 -2 30 -2 40 0 9 3 -1 5 -23 4 -22 0 -30 -2 -17 -4z"/>
 <path d="M1203 953 c9 -2 25 -2 35 0 9 3 1 5 -18 5 -19 0 -27 -2 -17 -5z"/>
 <path d="M760 926 c0 -8 -7 -17 -16 -20 -17 -6 -11 -45 10 -58 21 -14 46 -9 39 8 -4 10 1 17 16 21 25 6 27 25 5 47 -19 20 -54 21 -54 2z"/>
 <path d="M1196 924 c-3 -8 -10 -12 -16 -9 -14 9 -13 -48 2 -63 7 -7 23 -12 38 -11 14 0 20 3 13 5 -16 7 -5 34 13 34 21 0 17 38 -5 50 -27 14 -38 13 -45 -6z"/>
 <path d="M1310 918 c0 -4 4 -18 9 -31 9 -23 7 -27 -30 -41 -55 -22 -87 -20 -139 10 l-45 26 23 -25 c44 -46 127 -54 211 -20 l33 14 -23 27 c-13 15 -27 31 -31 37 -5 5 -8 6 -8 3z"/>
 <path d="M650 881 c-23 -33 -20 -37 44 -57 24 -7 32 -13 20 -13 -12 -1 -36 -7 -55 -13 -31 -12 -23 -13 96 -18 72 -3 134 -2 139 2 4 3 -20 13 -55 21 -35 8 -55 16 -44 16 22 1 100 50 92 58 -3 2 -17 -3 -31 -12 -14 -9 -31 -13 -37 -9 -7 4 -9 3 -6 -3 16 -25 -56 -30 -109 -8 -31 13 -35 18 -30 40 8 33 2 32 -24 -4z"/>
 <path d="M1325 753 c-50 -35 -111 -36 -172 -5 -23 12 -50 22 -60 22 -15 0 -14 -4 7 -20 44 -34 121 -70 151 -70 32 0 107 42 115 65 12 31 -3 34 -41 8z"/>
 </g>
<g id="layer111" fill="#64769e" stroke="none">
 <path d="M120 1982 c0 -50 34 -127 76 -172 57 -61 115 -86 255 -107 62 -9 117 -23 123 -30 6 -8 25 -27 41 -43 17 -16 46 -62 65 -102 19 -40 40 -74 46 -75 23 -7 55 32 61 75 5 40 10 45 76 84 55 33 74 50 88 83 19 44 38 144 40 215 1 34 4 23 14 -45 7 -49 16 -103 20 -120 12 -48 53 -95 122 -137 61 -39 63 -42 63 -82 1 -33 6 -45 27 -60 26 -19 26 -19 45 3 10 13 18 30 18 38 0 26 38 88 78 126 35 34 50 40 153 63 131 29 199 57 252 103 37 33 79 110 92 169 l7 32 -881 0 c-845 0 -881 -1 -881 -18z"/>
 <path d="M943 1599 c-23 -11 -60 -40 -82 -65 l-41 -44 0 -114 c0 -79 4 -117 13 -124 11 -9 109 -43 132 -46 6 -1 10 8 10 19 0 15 -14 24 -60 40 -46 16 -61 25 -66 45 -11 41 -10 103 4 130 20 41 45 37 99 -17 l49 -48 43 50 c41 46 46 49 72 40 28 -10 29 -13 32 -86 2 -65 0 -78 -17 -93 -20 -18 -21 -18 -40 5 l-19 24 5 -25 c4 -21 -1 -27 -26 -37 -29 -10 -41 -36 -23 -47 14 -8 117 33 135 55 22 28 25 195 3 237 -19 37 -63 76 -113 101 -52 26 -58 26 -110 0z"/>
 <path d="M910 1315 c-10 -12 -10 -15 3 -15 8 0 17 7 21 15 3 8 2 15 -3 15 -5 0 -14 -7 -21 -15z"/>
 <path d="M529 966 c-9 -12 -38 -89 -64 -171 -26 -83 -55 -160 -63 -172 -13 -20 -13 -23 1 -23 14 0 13 -8 -5 -61 l-20 -60 25 -27 c19 -20 24 -34 20 -55 -4 -20 0 -35 14 -50 11 -12 30 -48 43 -80 14 -35 35 -67 51 -80 16 -11 29 -26 29 -33 0 -15 15 -20 105 -34 39 -6 95 -18 126 -25 80 -21 125 -19 194 10 71 29 86 30 130 9 32 -15 37 -15 102 11 206 82 273 148 273 269 0 22 12 63 27 94 48 99 42 246 -17 405 -12 31 -30 66 -40 79 l-18 23 -12 -30 c-7 -16 -15 -113 -20 -215 -10 -264 -16 -273 -175 -284 -79 -5 -136 -20 -270 -71 -60 -23 -80 -26 -143 -22 -77 6 -162 39 -195 75 -24 26 -38 147 -36 297 2 101 -2 142 -15 182 -10 29 -21 55 -24 57 -4 2 -14 -6 -23 -18z"/>
 <path d="M758 953 c12 -2 30 -2 40 0 9 3 -1 5 -23 4 -22 0 -30 -2 -17 -4z"/>
 <path d="M1203 953 c9 -2 25 -2 35 0 9 3 1 5 -18 5 -19 0 -27 -2 -17 -5z"/>
 <path d="M771 910 c-8 -5 -12 -17 -8 -30 4 -17 2 -20 -10 -16 -13 5 -14 4 -3 -9 14 -16 55 -21 45 -5 -3 5 -1 18 4 29 13 23 -7 45 -28 31z"/>
 <path d="M1310 918 c0 -4 4 -18 9 -31 9 -23 7 -27 -30 -41 -55 -22 -87 -20 -139 10 l-45 26 23 -25 c44 -46 127 -54 211 -20 l33 14 -23 27 c-13 15 -27 31 -31 37 -5 5 -8 6 -8 3z"/>
 <path d="M650 881 c-23 -33 -20 -37 44 -57 24 -7 32 -13 20 -13 -12 -1 -36 -7 -55 -13 -31 -12 -23 -13 96 -18 72 -3 134 -2 139 2 4 3 -20 13 -55 21 -35 8 -55 16 -44 16 21 1 100 50 92 57 -2 3 -24 -7 -48 -21 -51 -29 -85 -31 -135 -10 -31 13 -35 18 -30 40 8 33 2 32 -24 -4z"/>
 <path d="M1192 885 c3 -13 1 -22 -3 -19 -5 3 -9 1 -9 -4 0 -10 23 -22 41 -22 4 0 6 6 3 14 -3 8 -1 17 5 21 21 13 11 35 -15 35 -23 0 -26 -4 -22 -25z"/>
 <path d="M1325 753 c-50 -35 -111 -36 -172 -5 -23 12 -50 22 -60 22 -15 0 -14 -4 7 -20 44 -34 121 -70 151 -70 32 0 107 42 115 65 12 31 -3 34 -41 8z"/>
 </g>
<g id="layer112" fill="#9c7162" stroke="none">
 <path d="M120 1982 c0 -50 34 -127 76 -172 57 -61 115 -86 255 -107 62 -9 117 -23 123 -30 6 -8 25 -27 41 -43 17 -16 46 -62 65 -102 19 -40 40 -74 46 -75 23 -7 55 32 61 75 5 40 10 45 76 84 55 33 74 50 88 83 19 44 38 144 40 215 1 34 4 23 14 -45 7 -49 16 -103 20 -120 12 -48 53 -95 122 -137 61 -39 63 -42 63 -82 1 -33 6 -45 27 -60 26 -19 26 -19 45 3 10 13 18 30 18 38 0 26 38 88 78 126 35 34 50 40 153 63 131 29 199 57 252 103 37 33 79 110 92 169 l7 32 -881 0 c-845 0 -881 -1 -881 -18z"/>
 <path d="M943 1599 c-23 -11 -60 -40 -82 -65 l-41 -44 0 -114 c0 -79 4 -117 13 -124 11 -9 109 -43 132 -46 6 -1 10 8 10 19 0 15 -14 24 -60 40 -46 16 -61 25 -66 45 -11 41 -10 103 4 130 20 41 45 37 99 -17 l49 -48 43 50 c41 46 46 49 72 40 28 -10 29 -13 32 -86 2 -65 0 -78 -18 -94 -20 -18 -21 -18 -35 1 -14 19 -14 19 -15 -1 0 -14 -10 -25 -30 -32 -28 -10 -40 -36 -22 -47 14 -8 117 33 135 55 22 28 25 195 3 237 -19 37 -63 76 -113 101 -52 26 -58 26 -110 0z"/>
 <path d="M910 1315 c-10 -12 -10 -15 4 -15 9 0 16 7 16 15 0 8 -2 15 -4 15 -2 0 -9 -7 -16 -15z"/>
 <path d="M529 966 c-9 -12 -38 -89 -64 -171 -26 -83 -55 -160 -63 -172 -13 -20 -13 -23 1 -23 14 0 13 -8 -5 -61 l-20 -60 25 -27 c19 -20 24 -34 20 -55 -4 -20 0 -35 14 -50 11 -12 30 -48 43 -80 14 -35 35 -67 51 -80 16 -11 29 -26 29 -33 0 -15 15 -20 105 -34 39 -6 95 -18 126 -25 80 -21 125 -19 194 10 71 29 86 30 130 9 32 -15 37 -15 102 11 206 82 273 148 273 269 0 22 12 63 27 94 48 99 42 246 -17 405 -12 31 -30 66 -40 79 l-18 23 -12 -30 c-7 -16 -15 -113 -20 -215 -10 -264 -16 -273 -175 -284 -79 -5 -136 -20 -270 -71 -60 -23 -80 -26 -143 -22 -77 6 -162 39 -195 75 -24 26 -38 147 -36 297 2 101 -2 142 -15 182 -10 29 -21 55 -24 57 -4 2 -14 -6 -23 -18z"/>
 <path d="M758 953 c12 -2 30 -2 40 0 9 3 -1 5 -23 4 -22 0 -30 -2 -17 -4z"/>
 <path d="M1203 953 c9 -2 25 -2 35 0 9 3 1 5 -18 5 -19 0 -27 -2 -17 -5z"/>
 <path d="M1310 918 c0 -4 4 -18 9 -31 9 -23 7 -27 -30 -41 -55 -22 -87 -20 -139 10 l-45 26 23 -25 c44 -46 127 -54 211 -20 l33 14 -23 27 c-13 15 -27 31 -31 37 -5 5 -8 6 -8 3z"/>
 <path d="M650 881 c-23 -33 -20 -37 44 -57 24 -7 32 -13 20 -13 -12 -1 -36 -7 -55 -13 -31 -12 -23 -13 96 -18 72 -3 134 -2 139 2 4 3 -20 13 -55 21 -35 8 -55 16 -44 16 21 1 100 50 92 57 -2 3 -24 -7 -48 -21 -51 -29 -85 -31 -135 -10 -31 13 -35 18 -30 40 8 33 2 32 -24 -4z"/>
 <path d="M765 900 c-8 -14 3 -30 21 -30 8 0 14 9 14 20 0 21 -24 28 -35 10z"/>
 <path d="M1195 900 c-4 -7 -3 -16 3 -22 14 -14 45 -2 40 15 -6 16 -34 21 -43 7z"/>
 <path d="M1325 753 c-50 -35 -111 -36 -172 -5 -23 12 -50 22 -60 22 -15 0 -14 -4 7 -20 44 -34 121 -70 151 -70 32 0 107 42 115 65 12 31 -3 34 -41 8z"/>
 </g>
<g id="layer113" fill="#93543e" stroke="none">
 <path d="M120 1982 c0 -50 34 -127 76 -172 57 -61 115 -86 255 -107 62 -9 117 -23 123 -30 6 -8 25 -27 41 -43 17 -16 46 -62 65 -102 19 -40 40 -73 45 -75 23 -6 57 34 62 75 5 38 11 45 67 81 33 21 69 47 78 58 24 26 49 130 58 233 4 52 8 69 10 45 9 -138 27 -224 57 -263 13 -18 53 -51 89 -73 62 -39 64 -42 64 -82 1 -34 6 -46 27 -61 26 -19 26 -19 45 3 10 13 18 30 18 38 0 26 38 88 78 126 35 34 50 40 153 63 131 29 199 57 252 103 37 33 79 110 92 169 l7 32 -881 0 c-845 0 -881 -1 -881 -18z"/>
 <path d="M920 1586 c-19 -13 -48 -38 -65 -56 -29 -30 -30 -35 -33 -143 -3 -99 -1 -114 15 -128 26 -22 111 -52 128 -45 28 10 15 23 -45 45 -72 26 -84 45 -78 122 4 56 26 99 51 99 6 0 31 -23 56 -50 l46 -50 45 45 c46 47 65 53 93 32 21 -14 29 -94 15 -144 -7 -28 -17 -35 -68 -54 -53 -19 -71 -35 -55 -51 9 -8 109 29 132 50 21 19 22 27 19 127 -4 122 -11 138 -90 192 -59 41 -113 43 -166 9z"/>
 <path d="M1430 958 c-7 -18 -15 -114 -19 -213 -8 -195 -21 -248 -63 -264 -13 -4 -61 -11 -108 -15 -62 -5 -121 -19 -218 -52 -118 -41 -141 -46 -200 -42 -64 3 -144 33 -194 71 -23 18 -38 138 -38 306 0 100 -4 150 -16 184 -9 26 -19 47 -23 47 -20 0 -42 -47 -86 -185 -26 -82 -55 -160 -63 -172 -13 -20 -13 -23 1 -23 14 0 13 -8 -5 -61 l-20 -60 25 -27 c19 -20 24 -34 20 -55 -4 -20 0 -35 14 -50 11 -12 30 -48 43 -80 14 -35 35 -67 51 -80 16 -11 29 -26 29 -33 0 -15 15 -20 105 -34 39 -6 95 -18 126 -25 80 -21 125 -19 194 10 71 29 86 30 130 9 32 -15 37 -15 102 11 206 82 273 148 273 269 0 22 12 63 27 93 49 102 43 246 -18 405 -37 96 -52 111 -69 66z"/>
 <path d="M651 880 l-22 -31 35 -14 c51 -22 134 -19 174 5 43 27 41 32 -5 9 -45 -23 -80 -24 -133 -3 -35 14 -38 18 -29 36 17 32 5 30 -20 -2z"/>
 <path d="M765 900 c-8 -14 3 -30 21 -30 8 0 14 9 14 20 0 21 -24 28 -35 10z"/>
 <path d="M1195 900 c-4 -7 -3 -16 3 -22 14 -14 45 -2 40 15 -6 16 -34 21 -43 7z"/>
 <path d="M1325 880 c5 -15 -1 -22 -32 -35 -49 -21 -111 -15 -155 16 -23 16 -29 18 -19 5 37 -46 136 -61 207 -31 34 14 35 15 18 40 -20 30 -28 32 -19 5z"/>
 <path d="M683 803 c-18 -2 -33 -8 -33 -14 0 -5 52 -9 123 -8 l122 1 -50 14 c-48 13 -95 15 -162 7z"/>
 <path d="M1100 757 c25 -25 131 -77 157 -77 41 0 128 69 109 87 -2 3 -26 -7 -52 -21 -58 -31 -92 -33 -142 -7 -20 10 -48 22 -62 26 -22 6 -23 5 -10 -8z"/>
 </g>
<g id="layer114" fill="#6d5c5a" stroke="none">
 <path d="M120 1982 c0 -50 34 -127 76 -172 57 -61 115 -86 255 -107 64 -10 117 -23 123 -31 6 -7 24 -25 40 -40 16 -15 44 -59 62 -98 18 -40 37 -75 43 -78 6 -4 22 1 36 10 20 13 25 25 25 55 0 38 3 41 68 83 37 24 75 52 84 63 24 26 49 130 58 233 4 52 8 69 10 45 9 -138 27 -224 57 -263 13 -18 53 -51 87 -72 58 -37 64 -43 69 -82 4 -28 14 -49 29 -61 22 -18 23 -18 40 3 10 12 18 29 18 37 0 26 38 88 78 126 35 34 50 40 153 63 131 29 199 57 252 103 37 33 79 110 92 169 l7 32 -881 0 c-845 0 -881 -1 -881 -18z"/>
 <path d="M930 1593 c-92 -61 -110 -96 -110 -221 0 -112 2 -117 83 -146 46 -17 77 -16 77 2 0 5 -27 19 -60 31 -72 26 -84 45 -78 122 4 56 26 99 51 99 6 0 31 -23 56 -50 l46 -50 45 45 c46 47 65 53 93 32 21 -14 29 -94 15 -144 -7 -28 -17 -35 -68 -54 -53 -19 -71 -35 -55 -51 9 -8 109 29 132 50 21 19 22 27 19 125 -4 121 -15 145 -93 196 -53 35 -112 41 -153 14z"/>
 <path d="M1430 958 c-7 -18 -15 -114 -19 -213 -8 -195 -21 -248 -63 -264 -13 -4 -61 -11 -108 -15 -62 -5 -121 -19 -218 -52 -118 -41 -141 -46 -200 -42 -64 3 -144 33 -194 71 -23 18 -38 138 -38 306 0 100 -4 150 -16 184 -9 26 -19 47 -24 47 -17 0 -41 -53 -84 -186 -25 -77 -53 -151 -61 -166 -14 -25 -14 -28 -1 -28 12 0 12 -9 -6 -61 l-20 -60 25 -27 c19 -20 24 -34 20 -55 -4 -20 0 -35 14 -50 11 -12 30 -48 43 -80 14 -35 35 -67 51 -80 16 -11 29 -26 29 -33 0 -15 15 -20 105 -34 39 -6 95 -18 126 -25 80 -21 125 -19 194 10 71 29 86 30 130 9 32 -15 37 -15 102 11 206 82 273 148 273 269 0 22 12 63 28 95 24 50 27 67 27 161 0 88 -4 119 -28 192 -16 48 -39 101 -52 118 l-23 31 -12 -33z"/>
 <path d="M765 900 c-8 -14 3 -30 21 -30 8 0 14 9 14 20 0 21 -24 28 -35 10z"/>
 <path d="M1195 900 c-4 -7 -3 -16 3 -22 14 -14 45 -2 40 15 -6 16 -34 21 -43 7z"/>
 <path d="M645 870 c-17 -19 -17 -20 11 -31 51 -21 137 -23 172 -5 18 9 32 19 32 22 0 2 -13 -2 -30 -11 -16 -8 -45 -15 -64 -15 -45 0 -108 29 -102 47 7 18 2 16 -19 -7z"/>
 <path d="M1330 871 c0 -15 -42 -32 -100 -41 l-45 -7 45 -2 c48 -1 116 14 125 28 2 5 -2 14 -10 21 -11 9 -15 9 -15 1z"/>
 <path d="M683 798 c-18 -5 -33 -11 -33 -13 0 -3 55 -5 123 -4 93 1 115 3 92 10 -42 14 -144 18 -182 7z"/>
 <path d="M1100 756 c22 -20 130 -76 148 -76 27 0 102 41 113 62 17 32 2 33 -42 2 -51 -35 -88 -35 -160 -1 -62 30 -81 34 -59 13z"/>
 </g>
<g id="layer115" fill="#4f4442" stroke="none">
 <path d="M120 1982 c0 -50 34 -127 76 -172 57 -61 115 -86 255 -107 64 -10 117 -23 123 -31 6 -7 24 -25 40 -40 16 -15 44 -59 62 -98 18 -40 37 -75 43 -78 6 -4 22 1 36 11 18 14 24 27 25 56 0 39 3 42 109 110 19 12 43 37 54 54 23 39 46 165 47 251 l0 62 -435 0 c-414 0 -435 -1 -435 -18z"/>
 <path d="M1000 1973 c0 -60 20 -199 35 -244 17 -51 46 -80 126 -129 41 -24 47 -33 52 -71 4 -28 13 -49 29 -61 22 -17 24 -17 41 3 9 12 17 28 17 36 0 26 38 88 78 126 35 34 50 40 153 63 131 29 199 57 252 103 37 33 79 110 92 169 l7 32 -441 0 -441 0 0 -27z"/>
 <path d="M914 1578 c-75 -52 -85 -71 -91 -179 -6 -125 1 -142 73 -169 55 -20 84 -21 84 -1 0 5 -24 17 -52 26 -80 26 -88 37 -88 117 0 55 4 72 20 88 29 29 39 26 92 -27 l48 -47 48 47 c26 26 53 47 59 47 6 0 21 -12 32 -26 16 -21 19 -37 17 -90 -4 -76 -11 -85 -83 -109 -52 -16 -63 -27 -43 -40 15 -9 130 36 140 55 5 10 8 63 5 119 -5 117 -13 133 -88 185 -68 47 -108 48 -173 4z"/>
 <path d="M1430 953 c-7 -21 -15 -120 -19 -219 -11 -255 -9 -252 -197 -272 -64 -7 -118 -21 -185 -48 -83 -34 -104 -38 -184 -38 -78 -1 -97 3 -145 26 -30 15 -63 34 -74 42 -24 19 -35 115 -36 301 0 106 -4 152 -17 188 -9 26 -20 47 -24 47 -15 0 -39 -53 -84 -190 -27 -80 -55 -155 -63 -167 -13 -20 -12 -23 1 -23 14 0 13 -8 -5 -61 l-20 -60 25 -27 c19 -20 24 -34 20 -55 -4 -20 0 -35 14 -50 11 -12 30 -48 43 -80 14 -35 35 -67 51 -80 16 -11 29 -26 29 -33 0 -15 15 -20 105 -34 39 -6 95 -18 126 -25 80 -21 125 -19 194 10 71 29 86 30 130 9 32 -15 37 -15 102 11 206 82 273 148 273 269 0 22 12 63 28 95 25 51 27 65 26 166 -1 95 -5 121 -31 197 -17 47 -40 98 -51 113 l-21 26 -11 -38z"/>
 <path d="M765 900 c-8 -14 3 -30 21 -30 8 0 14 9 14 20 0 21 -24 28 -35 10z"/>
 <path d="M1195 900 c-4 -7 -3 -16 3 -22 14 -14 45 -2 40 15 -6 16 -34 21 -43 7z"/>
 <path d="M645 870 c-17 -19 -17 -20 11 -31 51 -21 137 -23 172 -5 18 9 32 19 32 22 0 2 -13 -2 -30 -11 -37 -19 -91 -19 -136 0 -25 10 -34 20 -30 30 7 20 3 19 -19 -5z"/>
 <path d="M1330 872 c0 -17 -38 -34 -94 -42 l-51 -8 45 -1 c48 -1 116 14 125 28 2 5 -2 14 -10 21 -10 8 -15 9 -15 2z"/>
 <path d="M703 801 c-81 -14 -56 -21 68 -20 73 0 114 4 99 8 -43 13 -123 19 -167 12z"/>
 <path d="M1100 756 c8 -8 39 -26 68 -41 70 -36 130 -32 175 14 42 41 27 51 -24 15 -51 -35 -88 -35 -160 -1 -62 30 -81 34 -59 13z"/>
 </g>
<g id="layer116" fill="#115171" stroke="none">
 <path d="M120 1982 c0 -50 34 -127 76 -172 57 -61 115 -86 255 -107 64 -10 117 -23 123 -31 6 -7 24 -25 40 -40 16 -15 42 -56 59 -92 41 -91 43 -93 78 -73 24 14 29 24 29 55 0 33 5 42 39 65 21 16 53 35 69 45 61 33 88 108 99 271 l6 97 -436 0 c-416 0 -437 -1 -437 -18z"/>
 <path d="M1005 1908 c13 -166 38 -231 106 -275 107 -69 109 -71 109 -110 1 -28 7 -42 25 -56 23 -16 24 -16 39 5 9 12 16 28 16 36 0 25 39 87 78 125 35 34 50 40 153 63 131 29 199 57 252 103 37 33 79 110 92 169 l7 32 -442 0 -442 0 7 -92z"/>
 <path d="M918 1581 c-39 -25 -88 -78 -88 -95 0 -3 17 11 38 32 21 20 53 45 70 55 31 17 31 17 25 0 -6 -16 -5 -16 10 -4 14 11 17 11 17 0 0 -12 2 -12 9 0 7 11 11 10 20 -5 9 -17 10 -17 11 -1 0 9 3 17 7 17 20 0 97 -56 114 -83 10 -18 19 -27 19 -20 0 17 -49 72 -94 104 -52 38 -98 38 -158 0z"/>
 <path d="M1430 953 c-7 -21 -15 -120 -19 -219 -11 -255 -9 -252 -197 -272 -64 -7 -118 -21 -185 -48 -83 -34 -104 -38 -184 -38 -78 -1 -97 3 -145 26 -30 15 -63 34 -74 42 -24 19 -35 115 -36 301 0 106 -4 152 -17 188 -9 26 -20 47 -24 47 -15 0 -39 -53 -84 -190 -27 -80 -55 -155 -63 -167 -13 -20 -12 -23 1 -23 14 0 13 -8 -5 -61 l-20 -60 25 -27 c19 -20 24 -34 20 -55 -4 -20 0 -35 14 -50 11 -12 30 -48 43 -80 14 -35 35 -67 51 -80 16 -11 29 -26 29 -33 0 -15 15 -20 105 -34 39 -6 95 -18 126 -25 80 -21 125 -19 194 10 71 29 86 30 130 9 32 -15 37 -15 102 11 206 82 273 148 273 269 0 22 12 63 28 95 25 51 27 65 26 166 -1 95 -5 121 -31 197 -17 47 -40 98 -51 113 l-21 26 -11 -38z m-906 -103 c-8 -47 -21 -105 -29 -130 -9 -25 -11 -46 -6 -48 5 -2 -2 -37 -16 -78 -26 -77 -25 -97 2 -74 13 11 15 7 15 -26 0 -22 -4 -54 -9 -72 -9 -30 -8 -32 14 -32 22 0 24 -5 27 -52 3 -52 4 -53 31 -50 25 3 28 0 23 -17 -3 -12 -9 -30 -12 -41 -7 -25 12 -26 38 -3 10 9 18 12 18 6 0 -5 6 -17 13 -27 12 -16 17 -15 77 13 75 36 95 39 85 13 -4 -9 -10 -25 -13 -36 -5 -17 -3 -17 19 -3 13 8 39 18 57 22 28 6 32 4 32 -14 0 -12 2 -21 5 -21 3 0 42 25 87 55 45 30 83 53 85 51 2 -2 -4 -19 -12 -40 l-15 -36 55 31 55 31 0 -28 0 -27 23 20 c12 11 41 32 65 47 37 23 42 24 42 9 0 -13 12 -4 38 27 l39 44 7 -28 c6 -23 9 -26 21 -16 9 7 22 33 29 59 8 25 15 37 15 27 1 -32 12 -11 30 61 10 38 23 67 30 66 7 -2 11 14 11 43 0 27 4 43 10 39 13 -8 13 -5 -5 46 -11 31 -12 45 -4 50 7 4 8 15 3 30 -4 13 -8 35 -9 49 -1 14 -4 41 -8 60 -6 27 -5 30 3 13 20 -48 42 -199 37 -259 -2 -36 -15 -86 -31 -119 -14 -32 -26 -74 -26 -94 -1 -49 -30 -111 -70 -145 -18 -15 -82 -52 -142 -82 -102 -51 -110 -54 -131 -39 -32 22 -97 19 -151 -9 -44 -22 -54 -23 -114 -15 -37 5 -80 14 -96 19 -16 6 -61 13 -100 16 -67 6 -73 9 -110 48 -21 22 -49 66 -63 96 -14 30 -33 64 -44 76 -15 16 -17 26 -10 45 7 20 4 29 -17 52 l-26 27 22 62 c15 40 19 64 12 68 -6 4 -3 20 9 46 19 40 47 125 76 228 9 32 18 56 20 54 2 -2 -3 -41 -11 -88z"/>
 <path d="M765 900 c-8 -14 3 -30 21 -30 8 0 14 9 14 20 0 21 -24 28 -35 10z"/>
 <path d="M1195 900 c-4 -7 -3 -16 3 -22 14 -14 45 -2 40 15 -6 16 -34 21 -43 7z"/>
 <path d="M645 870 c-17 -19 -17 -20 11 -31 51 -21 137 -23 172 -5 18 9 32 19 32 22 0 2 -13 -2 -30 -11 -37 -19 -91 -19 -136 0 -25 10 -34 20 -30 30 7 20 3 19 -19 -5z"/>
 <path d="M1330 872 c0 -17 -38 -34 -94 -42 l-51 -8 45 -1 c48 -1 116 14 125 28 2 5 -2 14 -10 21 -10 8 -15 9 -15 2z"/>
 <path d="M703 801 c-81 -14 -56 -21 68 -20 73 0 114 4 99 8 -43 13 -123 19 -167 12z"/>
 <path d="M1100 756 c8 -8 39 -26 68 -41 70 -36 130 -32 175 14 42 41 27 51 -24 15 -51 -35 -88 -35 -160 -1 -62 30 -81 34 -59 13z"/>
 </g>
<g id="layer117" fill="#244b60" stroke="none">
 <path d="M120 1982 c0 -50 34 -127 76 -172 57 -61 115 -86 255 -107 64 -10 117 -23 123 -31 6 -7 24 -25 40 -40 16 -15 44 -59 62 -98 18 -40 38 -75 45 -79 6 -4 10 -4 7 1 -56 122 -79 164 -100 180 -37 29 -40 41 -23 76 l16 33 -19 -24 -19 -24 -119 23 c-131 24 -183 43 -232 85 -37 31 -77 103 -87 158 -7 38 -25 51 -25 19z"/>
 <path d="M983 1935 c0 -38 2 -53 4 -32 2 20 2 52 0 70 -2 17 -4 1 -4 -38z"/>
 <path d="M1005 1910 c13 -168 38 -233 106 -277 109 -70 109 -70 109 -113 0 -41 14 -54 25 -21 12 38 -27 91 -100 136 -16 9 -40 27 -52 38 l-23 20 29 18 c16 9 52 55 80 102 47 79 77 115 85 106 2 -2 14 -24 26 -49 13 -25 40 -69 61 -99 22 -30 39 -65 39 -79 0 -14 -17 -43 -44 -73 -26 -29 -48 -66 -56 -94 -7 -25 -17 -48 -21 -51 -5 -3 -9 -11 -9 -17 1 -17 40 32 40 50 0 26 38 88 78 126 35 34 50 40 153 63 188 42 266 89 312 187 30 64 43 117 28 117 -6 0 -11 -6 -11 -12 0 -30 -54 -126 -93 -166 -57 -59 -102 -80 -221 -103 -55 -11 -108 -22 -117 -24 -11 -4 -32 23 -77 97 -33 57 -66 115 -73 131 -12 26 -13 27 -32 10 -11 -10 -40 -49 -65 -88 -47 -73 -90 -125 -104 -125 -4 0 -17 19 -29 43 -16 30 -24 68 -28 134 -3 50 -10 95 -15 100 -4 4 -5 -34 -1 -87z"/>
 <path d="M682 1857 c-24 -45 -34 -71 -23 -57 11 14 33 49 49 78 l29 54 35 -49 c19 -26 46 -68 60 -93 33 -58 72 -94 92 -87 47 18 -18 -50 -74 -78 -68 -34 -107 -86 -95 -126 11 -33 25 -20 25 21 0 43 4 46 110 113 45 28 78 96 84 172 5 53 4 55 -4 18 -13 -60 -38 -105 -57 -101 -9 2 -36 32 -59 68 -69 106 -104 150 -117 150 -7 0 -31 -37 -55 -83z"/>
 <path d="M918 1581 c-39 -25 -88 -78 -88 -95 0 -3 17 11 38 32 21 20 53 45 70 55 31 17 31 17 25 0 -6 -16 -5 -16 10 -4 14 11 17 11 17 0 0 -12 2 -12 9 0 7 11 11 10 20 -5 9 -17 10 -17 11 -1 0 9 3 17 7 17 20 0 97 -56 114 -83 10 -18 19 -27 19 -20 0 17 -49 72 -94 104 -52 38 -98 38 -158 0z"/>
 <path d="M1430 953 c-7 -21 -15 -120 -19 -219 -11 -255 -9 -252 -197 -272 -64 -7 -118 -21 -185 -48 -83 -34 -104 -38 -184 -38 -78 -1 -97 3 -145 26 -30 15 -63 34 -74 42 -24 19 -35 115 -36 301 0 106 -4 152 -17 188 -9 26 -20 47 -24 47 -15 0 -39 -53 -84 -190 -27 -80 -55 -155 -63 -167 -13 -20 -12 -23 1 -23 14 0 13 -8 -5 -61 l-20 -60 25 -27 c19 -20 24 -34 20 -55 -4 -20 0 -35 14 -50 11 -12 30 -48 43 -80 14 -35 35 -67 51 -80 16 -11 29 -26 29 -33 0 -15 15 -20 105 -34 39 -6 95 -18 126 -25 80 -21 125 -19 194 10 71 29 86 30 130 9 32 -15 37 -15 102 11 206 82 273 148 273 269 0 22 12 63 28 95 25 51 27 65 26 166 -1 95 -5 121 -31 197 -17 47 -40 98 -51 113 l-21 26 -11 -38z m-906 -103 c-8 -47 -21 -105 -29 -130 -9 -25 -11 -46 -6 -48 5 -2 -2 -37 -16 -78 -26 -77 -25 -97 2 -74 13 11 15 7 15 -26 0 -22 -4 -54 -9 -72 -9 -30 -8 -32 14 -32 22 0 24 -5 27 -52 3 -52 4 -53 31 -50 25 3 28 0 23 -17 -3 -12 -9 -30 -12 -41 -7 -25 12 -26 38 -3 10 9 18 12 18 6 0 -5 6 -17 13 -27 12 -16 17 -15 77 13 75 36 95 39 85 13 -4 -9 -10 -25 -13 -36 -5 -17 -3 -17 19 -3 13 8 39 18 57 22 28 6 32 4 32 -14 0 -12 2 -21 5 -21 3 0 42 25 87 55 45 30 83 53 85 51 2 -2 -4 -19 -12 -40 l-15 -36 55 31 55 31 0 -28 0 -27 23 20 c12 11 41 32 65 47 37 23 42 24 42 9 0 -13 12 -4 38 27 l39 44 7 -28 c6 -23 9 -26 21 -16 9 7 22 33 29 59 8 25 15 37 15 27 1 -32 12 -11 30 61 10 38 23 67 30 66 7 -2 11 14 11 43 0 27 4 43 10 39 13 -8 13 -5 -5 46 -11 31 -12 45 -4 50 7 4 8 15 3 30 -4 13 -8 35 -9 49 -1 14 -4 41 -8 60 -6 27 -5 30 3 13 20 -48 42 -199 37 -259 -2 -36 -15 -86 -31 -119 -14 -32 -26 -74 -26 -94 -1 -49 -30 -111 -70 -145 -18 -15 -82 -52 -142 -82 -102 -51 -110 -54 -131 -39 -32 22 -97 19 -151 -9 -44 -22 -54 -23 -114 -15 -37 5 -80 14 -96 19 -16 6 -61 13 -100 16 -67 6 -73 9 -110 48 -21 22 -49 66 -63 96 -14 30 -33 64 -44 76 -15 16 -17 26 -10 45 7 20 4 29 -17 52 l-26 27 22 62 c15 40 19 64 12 68 -6 4 -3 20 9 46 19 40 47 125 76 228 9 32 18 56 20 54 2 -2 -3 -41 -11 -88z"/>
 <path d="M765 900 c-8 -14 3 -30 21 -30 8 0 14 9 14 20 0 21 -24 28 -35 10z"/>
 <path d="M1195 900 c-4 -7 -3 -16 3 -22 14 -14 45 -2 40 15 -6 16 -34 21 -43 7z"/>
 <path d="M645 870 c-17 -19 -17 -20 11 -31 51 -21 137 -23 172 -5 18 9 32 19 32 22 0 2 -13 -2 -30 -11 -37 -19 -91 -19 -136 0 -25 10 -34 20 -30 30 7 20 3 19 -19 -5z"/>
 <path d="M1330 872 c0 -17 -38 -34 -94 -42 l-51 -8 45 -1 c48 -1 116 14 125 28 2 5 -2 14 -10 21 -10 8 -15 9 -15 2z"/>
 <path d="M703 801 c-81 -14 -56 -21 68 -20 73 0 114 4 99 8 -43 13 -123 19 -167 12z"/>
 <path d="M1100 756 c8 -8 39 -26 68 -41 70 -36 130 -32 175 14 42 41 27 51 -24 15 -51 -35 -88 -35 -160 -1 -62 30 -81 34 -59 13z"/>
 </g>
<g id="layer118" fill="#463936" stroke="none">
 <path d="M120 1982 c0 -50 34 -127 76 -172 57 -61 115 -86 255 -107 64 -10 117 -23 123 -31 6 -7 24 -25 40 -40 16 -15 44 -59 62 -98 18 -40 38 -75 45 -79 6 -4 10 -4 7 1 -58 126 -80 165 -101 179 -32 20 -40 41 -26 66 9 18 8 19 -9 8 -26 -16 -237 23 -302 56 -76 39 -129 111 -146 200 -7 36 -24 48 -24 17z"/>
 <path d="M983 1940 c0 -36 2 -50 4 -32 2 17 2 47 0 65 -2 17 -4 3 -4 -33z"/>
 <path d="M1001 1980 c1 -14 5 -38 9 -55 7 -29 8 -29 9 10 0 22 -4 47 -9 55 -8 12 -9 10 -9 -10z"/>
 <path d="M1860 1988 c0 -31 -61 -137 -101 -175 -56 -54 -109 -77 -238 -102 -122 -25 -121 -25 -121 -7 0 13 -80 139 -103 161 -15 15 0 -11 50 -84 24 -35 43 -75 43 -88 0 -15 -17 -44 -44 -74 -26 -29 -48 -66 -56 -94 -7 -25 -17 -48 -21 -51 -5 -3 -9 -11 -9 -17 1 -17 40 32 40 50 0 26 38 88 78 126 35 34 50 40 153 63 188 42 266 89 312 187 30 64 43 117 28 117 -6 0 -11 -6 -11 -12z"/>
 <path d="M1016 1825 c12 -122 29 -147 163 -237 37 -25 41 -32 41 -68 0 -41 14 -54 25 -21 13 41 -13 74 -124 154 -47 34 -62 57 -39 57 17 0 47 31 74 75 12 20 3 14 -25 -17 -23 -27 -47 -48 -52 -48 -13 0 -49 75 -59 123 -8 36 -8 33 -4 -18z"/>
 <path d="M957 1779 c-22 -60 -43 -72 -70 -38 -11 13 -31 38 -44 54 l-25 30 18 -32 c27 -48 62 -83 84 -83 11 0 20 -5 20 -12 0 -16 10 -4 15 18 2 11 9 39 15 63 15 60 8 60 -13 0z"/>
 <path d="M920 1666 c-6 -8 -33 -25 -58 -37 -80 -38 -120 -87 -107 -130 11 -33 24 -21 27 24 3 40 7 44 68 84 62 41 101 73 88 73 -3 0 -11 -7 -18 -14z"/>
 <path d="M918 1581 c-39 -25 -88 -78 -88 -95 0 -3 17 11 38 32 21 20 53 45 70 55 31 17 31 17 25 0 -6 -16 -5 -16 10 -4 14 11 17 11 17 0 0 -12 2 -12 9 0 7 11 11 10 20 -5 9 -17 10 -17 11 -1 0 9 3 17 7 17 20 0 97 -56 114 -83 10 -18 19 -27 19 -20 0 17 -49 72 -94 104 -52 38 -98 38 -158 0z"/>
 <path d="M1430 953 c-7 -21 -15 -120 -19 -219 -11 -255 -9 -252 -197 -272 -64 -7 -118 -21 -185 -48 -83 -34 -104 -38 -184 -38 -78 -1 -97 3 -145 26 -30 15 -63 34 -74 42 -24 19 -35 115 -36 301 0 106 -4 152 -17 188 -9 26 -20 47 -24 47 -15 0 -39 -53 -84 -190 -27 -80 -55 -155 -63 -167 -13 -20 -12 -23 1 -23 14 0 13 -8 -5 -61 l-20 -60 25 -27 c19 -20 24 -34 20 -55 -4 -20 0 -35 14 -50 11 -12 30 -48 43 -80 14 -35 35 -67 51 -80 16 -11 29 -26 29 -33 0 -15 15 -20 105 -34 39 -6 95 -18 126 -25 80 -21 125 -19 194 10 71 29 86 30 130 9 32 -15 37 -15 102 11 206 82 273 148 273 269 0 22 12 63 28 95 25 51 27 65 26 166 -1 95 -5 121 -31 197 -17 47 -40 98 -51 113 l-21 26 -11 -38z m-906 -103 c-8 -47 -21 -105 -29 -130 -9 -25 -11 -46 -6 -48 5 -2 -2 -37 -16 -78 -26 -77 -25 -97 2 -74 13 11 15 7 15 -26 0 -22 -4 -54 -9 -72 -9 -30 -8 -32 14 -32 22 0 24 -5 27 -52 3 -52 4 -53 31 -50 25 3 28 0 23 -17 -3 -12 -9 -30 -12 -41 -7 -25 12 -26 38 -3 10 9 18 12 18 6 0 -5 6 -17 13 -27 12 -16 17 -15 77 13 75 36 95 39 85 13 -4 -9 -10 -25 -13 -36 -5 -17 -3 -17 19 -3 13 8 39 18 57 22 28 6 32 4 32 -14 0 -12 2 -21 5 -21 3 0 42 25 87 55 45 30 83 53 85 51 2 -2 -4 -19 -12 -40 l-15 -36 55 31 55 31 0 -28 0 -27 23 20 c12 11 41 32 65 47 37 23 42 24 42 9 0 -13 12 -4 38 27 l39 44 7 -28 c6 -23 9 -26 21 -16 9 7 22 33 29 59 8 25 15 37 15 27 1 -32 12 -11 30 61 10 38 23 67 30 66 7 -2 11 14 11 43 0 27 4 43 10 39 13 -8 13 -5 -5 46 -11 31 -12 45 -4 50 7 4 8 15 3 30 -4 13 -8 35 -9 49 -1 14 -4 41 -8 60 -6 27 -5 30 3 13 20 -48 42 -199 37 -259 -2 -36 -15 -86 -31 -119 -14 -32 -26 -74 -26 -94 -1 -49 -30 -111 -70 -145 -18 -15 -82 -52 -142 -82 -102 -51 -110 -54 -131 -39 -32 22 -97 19 -151 -9 -44 -22 -54 -23 -114 -15 -37 5 -80 14 -96 19 -16 6 -61 13 -100 16 -67 6 -73 9 -110 48 -21 22 -49 66 -63 96 -14 30 -33 64 -44 76 -15 16 -17 26 -10 45 7 20 4 29 -17 52 l-26 27 22 62 c15 40 19 64 12 68 -6 4 -3 20 9 46 19 40 47 125 76 228 9 32 18 56 20 54 2 -2 -3 -41 -11 -88z"/>
 <path d="M764 899 c-10 -17 13 -36 27 -22 12 12 4 33 -11 33 -5 0 -12 -5 -16 -11z"/>
 <path d="M1200 890 c0 -11 7 -20 15 -20 8 0 15 9 15 20 0 11 -7 20 -15 20 -8 0 -15 -9 -15 -20z"/>
 <path d="M645 870 c-17 -19 -17 -20 11 -31 51 -21 137 -23 172 -5 18 9 32 19 32 22 0 2 -13 -2 -30 -11 -37 -19 -91 -19 -136 0 -25 10 -34 20 -30 30 7 20 3 19 -19 -5z"/>
 <path d="M1330 872 c0 -17 -38 -34 -94 -42 l-51 -8 45 -1 c48 -1 116 14 125 28 2 5 -2 14 -10 21 -10 8 -15 9 -15 2z"/>
 <path d="M703 801 c-81 -14 -56 -21 68 -20 73 0 114 4 99 8 -43 13 -123 19 -167 12z"/>
 <path d="M1100 756 c8 -8 39 -26 68 -41 70 -36 130 -32 175 14 42 41 27 51 -24 15 -51 -35 -88 -35 -160 -1 -62 30 -81 34 -59 13z"/>
 </g>
<g id="layer119" fill="#2c3851" stroke="none">
 <path d="M120 1982 c0 -50 34 -127 76 -172 57 -61 115 -86 255 -107 64 -10 117 -23 123 -31 6 -7 24 -25 40 -40 16 -15 44 -59 62 -98 18 -40 38 -75 45 -79 6 -4 10 -4 7 1 -58 126 -80 165 -101 179 -32 20 -40 41 -26 66 9 18 8 19 -9 8 -26 -16 -237 23 -302 56 -76 39 -129 111 -146 200 -7 36 -24 48 -24 17z"/>
 <path d="M983 1940 c0 -36 2 -50 4 -32 2 17 2 47 0 65 -2 17 -4 3 -4 -33z"/>
 <path d="M1001 1980 c1 -14 5 -38 9 -55 7 -29 8 -29 9 10 0 22 -4 47 -9 55 -8 12 -9 10 -9 -10z"/>
 <path d="M1860 1988 c0 -31 -61 -137 -101 -175 -56 -54 -109 -77 -238 -102 -122 -25 -121 -25 -121 -7 0 13 -80 139 -103 161 -15 15 0 -11 50 -84 24 -35 43 -75 43 -88 0 -15 -17 -44 -44 -74 -26 -29 -48 -66 -56 -94 -7 -25 -17 -48 -21 -51 -5 -3 -9 -11 -9 -17 1 -17 40 32 40 50 0 26 38 88 78 126 35 34 50 40 153 63 188 42 266 89 312 187 30 64 43 117 28 117 -6 0 -11 -6 -11 -12z"/>
 <path d="M1016 1825 c12 -122 29 -147 163 -237 37 -25 41 -32 41 -68 0 -41 14 -54 25 -21 13 41 -13 74 -124 154 -47 34 -62 57 -39 57 17 0 47 31 74 75 12 20 3 14 -25 -17 -23 -27 -47 -48 -52 -48 -13 0 -49 75 -59 123 -8 36 -8 33 -4 -18z"/>
 <path d="M957 1779 c-22 -60 -43 -72 -70 -38 -11 13 -31 38 -44 54 l-25 30 18 -32 c27 -48 62 -83 84 -83 11 0 20 -5 20 -12 0 -16 10 -4 15 18 2 11 9 39 15 63 15 60 8 60 -13 0z"/>
 <path d="M920 1666 c-6 -8 -33 -25 -58 -37 -80 -38 -120 -87 -107 -130 11 -33 24 -21 27 24 3 40 7 44 68 84 62 41 101 73 88 73 -3 0 -11 -7 -18 -14z"/>
 <path d="M970 1594 c0 -8 5 -12 10 -9 6 3 10 0 10 -7 0 -8 3 -9 8 -3 4 6 13 11 20 13 15 3 68 -23 96 -47 11 -9 16 -10 12 -4 -4 7 -27 26 -51 43 -48 33 -105 41 -105 14z"/>
 <path d="M925 1581 c-16 -10 -43 -33 -60 -52 l-30 -33 40 34 c22 19 51 43 65 52 34 23 22 22 -15 -1z"/>
 <path d="M1430 953 c-7 -21 -14 -103 -16 -183 -5 -180 -10 -217 -34 -257 -14 -23 -28 -33 -52 -37 -18 -2 -73 -9 -122 -16 -56 -7 -126 -25 -195 -51 -96 -37 -113 -41 -181 -37 -74 3 -154 32 -204 72 -24 19 -35 115 -36 301 0 106 -4 152 -17 188 -9 26 -20 47 -24 47 -15 0 -39 -53 -84 -190 -27 -80 -55 -155 -63 -167 -13 -20 -12 -23 1 -23 14 0 13 -8 -5 -61 l-20 -60 25 -27 c19 -20 24 -34 20 -55 -4 -20 0 -35 14 -50 11 -12 30 -48 43 -80 14 -35 35 -67 51 -80 16 -11 29 -26 29 -33 0 -15 15 -20 105 -34 39 -6 95 -18 126 -25 80 -21 125 -19 194 10 71 29 86 30 130 9 32 -15 37 -15 102 11 206 82 273 148 273 269 0 22 12 63 28 95 24 50 27 67 27 161 0 77 -5 120 -19 160 -31 91 -49 134 -67 158 l-18 23 -11 -38z m-897 -80 c-13 -84 -27 -145 -40 -180 -4 -10 -2 -14 5 -9 12 7 8 -11 -22 -97 -21 -63 -21 -70 5 -56 22 11 22 10 15 -51 -4 -34 -9 -67 -12 -75 -4 -9 0 -12 14 -8 22 5 32 -18 32 -81 0 -31 3 -37 12 -28 26 26 41 14 35 -28 -6 -44 -2 -48 23 -25 16 14 18 13 30 -15 l13 -30 41 24 c41 23 116 49 124 42 2 -3 -2 -14 -8 -26 -15 -27 -9 -33 21 -22 13 5 37 12 53 16 26 6 28 5 23 -14 -7 -28 0 -25 98 39 43 28 80 50 82 48 2 -2 -4 -21 -12 -41 l-16 -37 38 25 c42 29 70 33 75 11 2 -11 16 -5 57 22 37 25 55 32 61 24 5 -8 17 -1 39 24 31 36 51 39 51 8 0 -30 27 6 40 53 7 25 16 40 20 34 8 -12 40 92 40 129 0 12 4 19 10 16 6 -4 10 8 10 30 0 22 4 34 10 30 14 -9 13 5 -5 55 -18 51 -18 53 -3 44 11 -7 9 10 -8 50 -5 13 -4 17 3 13 6 -4 3 23 -8 65 -19 74 -18 103 2 52 22 -59 49 -201 49 -265 0 -48 -8 -90 -30 -152 -16 -48 -30 -98 -30 -112 0 -78 -66 -144 -215 -216 -99 -49 -105 -50 -127 -35 -34 24 -95 20 -155 -11 l-53 -26 -87 18 c-49 10 -126 23 -172 29 -71 9 -85 15 -92 32 -4 12 -15 24 -24 28 -9 3 -32 39 -50 79 -19 41 -41 80 -50 87 -11 9 -14 22 -10 44 5 25 1 36 -18 54 l-25 24 24 59 c28 69 28 69 9 69 -14 0 -14 2 0 23 16 26 69 173 80 226 8 35 33 101 39 101 2 0 -3 -39 -11 -87z m925 -108 l1 -20 -9 20 c-5 11 -8 31 -8 45 l0 25 8 -25 c4 -14 8 -34 8 -45z m-924 -224 c-4 -22 -1 -54 5 -72 6 -18 9 -34 7 -37 -11 -10 -28 79 -22 112 9 49 18 46 10 -3z m861 -91 c-3 -6 -19 -17 -36 -25 -41 -22 -193 -75 -182 -64 5 5 45 22 89 37 44 15 91 36 104 45 28 20 34 21 25 7z m-315 -106 c-141 -61 -150 -64 -150 -58 0 6 162 82 200 94 67 21 44 5 -50 -36z m-405 -24 c-11 -5 -27 -9 -35 -9 -9 0 -8 4 5 9 11 5 27 9 35 9 9 0 8 -4 -5 -9z m196 -10 c-48 -11 -167 -23 -160 -16 8 8 112 23 159 24 l35 0 -34 -8z"/>
 <path d="M764 899 c-10 -17 13 -36 27 -22 12 12 4 33 -11 33 -5 0 -12 -5 -16 -11z"/>
 <path d="M1200 890 c0 -11 7 -20 15 -20 8 0 15 9 15 20 0 11 -7 20 -15 20 -8 0 -15 -9 -15 -20z"/>
 <path d="M645 870 c-17 -19 -17 -20 11 -31 51 -21 137 -23 172 -5 18 9 32 19 32 22 0 2 -13 -2 -30 -11 -37 -19 -91 -19 -136 0 -25 10 -34 20 -30 30 7 20 3 19 -19 -5z"/>
 <path d="M1330 872 c0 -17 -38 -34 -94 -42 l-51 -8 45 -1 c48 -1 116 14 125 28 2 5 -2 14 -10 21 -10 8 -15 9 -15 2z"/>
 <path d="M662 791 c-8 -4 37 -8 105 -9 74 0 111 3 98 8 -26 11 -186 12 -203 1z"/>
 <path d="M1095 760 c3 -5 27 -21 53 -36 35 -20 61 -27 105 -28 54 -1 61 1 89 32 38 43 29 52 -19 19 -57 -39 -84 -42 -134 -17 -53 26 -101 42 -94 30z"/>
 </g>
<g id="layer120" fill="#5f2a19" stroke="none">
 <path d="M120 1982 c0 -50 34 -127 76 -172 57 -61 115 -86 255 -107 64 -10 117 -23 123 -31 6 -7 24 -25 40 -40 16 -15 44 -59 62 -98 18 -40 38 -75 45 -79 6 -4 10 -4 7 1 -58 126 -80 165 -101 179 -32 20 -40 41 -26 66 9 18 8 19 -9 8 -16 -10 -43 -8 -138 10 -145 27 -210 56 -251 113 -29 41 -63 123 -63 153 0 8 -4 15 -10 15 -5 0 -10 -8 -10 -18z"/>
 <path d="M983 1945 c0 -33 2 -45 4 -27 2 18 2 45 0 60 -2 15 -4 0 -4 -33z"/>
 <path d="M1001 1980 c1 -14 5 -38 9 -55 7 -29 8 -29 9 10 0 22 -4 47 -9 55 -8 12 -9 10 -9 -10z"/>
 <path d="M1860 1988 c0 -7 -13 -40 -29 -73 -34 -71 -98 -136 -161 -164 -36 -16 -228 -61 -259 -61 -4 0 -12 15 -19 33 -7 17 -26 48 -43 67 -28 32 -28 31 5 -19 47 -70 46 -92 -7 -151 -24 -26 -49 -68 -56 -91 -7 -24 -18 -50 -23 -56 -7 -9 -7 -13 1 -13 6 0 15 10 20 23 33 85 50 112 92 152 27 25 56 45 65 45 32 0 234 52 234 60 0 4 22 17 49 29 54 23 95 65 121 126 25 57 34 105 21 105 -6 0 -11 -6 -11 -12z"/>
 <path d="M957 1780 c-22 -61 -42 -73 -70 -39 -11 13 -31 38 -45 54 l-25 30 18 -30 c27 -46 67 -85 87 -85 10 0 18 -6 19 -12 0 -7 9 16 20 52 23 80 21 99 -4 30z"/>
 <path d="M1024 1782 c10 -69 41 -120 94 -152 90 -55 102 -68 102 -111 0 -41 14 -53 25 -20 13 41 -13 74 -124 154 -47 34 -62 57 -39 57 17 0 47 31 74 75 12 20 3 14 -25 -17 -23 -27 -47 -48 -52 -48 -6 0 -21 24 -35 53 l-26 52 6 -43z"/>
 <path d="M920 1666 c-6 -8 -33 -25 -58 -37 -80 -38 -120 -87 -107 -130 9 -29 25 -12 25 25 0 37 20 58 91 99 40 23 80 57 66 57 -2 0 -10 -7 -17 -14z"/>
 <path d="M970 1594 c0 -8 5 -12 10 -9 6 3 10 0 10 -7 0 -8 3 -9 8 -3 4 6 13 11 20 13 15 3 68 -23 96 -47 11 -9 16 -10 12 -4 -4 7 -27 26 -51 43 -48 33 -105 41 -105 14z"/>
 <path d="M925 1581 c-16 -10 -43 -33 -60 -52 l-30 -33 40 34 c22 19 51 43 65 52 34 23 22 22 -15 -1z"/>
 <path d="M1430 953 c-7 -21 -14 -103 -16 -183 -5 -180 -10 -217 -34 -257 -14 -23 -28 -33 -52 -37 -18 -2 -73 -9 -122 -16 -56 -7 -126 -25 -195 -51 -96 -37 -113 -41 -181 -37 -74 3 -154 32 -204 72 -24 19 -35 115 -36 301 0 106 -4 152 -17 188 -9 26 -20 47 -24 47 -15 0 -39 -53 -84 -190 -27 -80 -55 -155 -63 -167 -13 -20 -12 -23 1 -23 14 0 13 -8 -5 -61 l-20 -60 25 -27 c19 -20 24 -34 20 -55 -4 -20 0 -35 14 -50 11 -12 30 -48 43 -80 14 -35 35 -67 51 -80 16 -11 29 -26 29 -33 0 -15 15 -20 105 -34 39 -6 95 -18 126 -25 80 -21 125 -19 194 10 71 29 86 30 130 9 32 -15 37 -15 102 11 206 82 273 148 273 269 0 22 12 63 28 95 24 50 27 67 27 161 0 77 -5 120 -19 160 -31 91 -49 134 -67 158 l-18 23 -11 -38z m-897 -80 c-13 -84 -27 -145 -40 -180 -4 -10 -2 -14 5 -9 12 7 8 -11 -22 -97 -21 -63 -21 -70 5 -56 22 11 22 10 15 -51 -4 -34 -9 -67 -12 -75 -4 -9 0 -12 14 -8 22 5 32 -18 32 -81 0 -31 3 -37 12 -28 26 26 41 14 35 -28 -6 -44 -2 -48 23 -25 16 14 18 13 30 -15 l13 -30 41 24 c41 23 116 49 124 42 2 -3 -2 -14 -8 -26 -15 -27 -9 -33 21 -22 13 5 37 12 53 16 26 6 28 5 23 -14 -7 -28 0 -25 98 39 43 28 80 50 82 48 2 -2 -4 -21 -12 -41 l-16 -37 38 25 c42 29 70 33 75 11 2 -11 16 -5 57 22 37 25 55 32 61 24 5 -8 17 -1 39 24 31 36 51 39 51 8 0 -30 27 6 40 53 7 25 16 40 20 34 8 -12 40 92 40 129 0 12 4 19 10 16 6 -4 10 8 10 30 0 22 4 34 10 30 14 -9 13 5 -5 55 -18 51 -18 53 -3 44 11 -7 9 10 -8 50 -5 13 -4 17 3 13 6 -4 3 23 -8 65 -19 74 -18 103 2 52 22 -59 49 -201 49 -265 0 -48 -8 -90 -30 -152 -16 -48 -30 -98 -30 -112 0 -78 -66 -144 -215 -216 -99 -49 -105 -50 -127 -35 -34 24 -95 20 -155 -11 l-53 -26 -87 18 c-49 10 -126 23 -172 29 -71 9 -85 15 -92 32 -4 12 -15 24 -24 28 -9 3 -32 39 -50 79 -19 41 -41 80 -50 87 -11 9 -14 22 -10 44 5 25 1 36 -18 54 l-25 24 24 59 c28 69 28 69 9 69 -14 0 -14 2 0 23 16 26 69 173 80 226 8 35 33 101 39 101 2 0 -3 -39 -11 -87z m925 -108 l1 -20 -9 20 c-5 11 -8 31 -8 45 l0 25 8 -25 c4 -14 8 -34 8 -45z m-924 -224 c-4 -22 -1 -54 5 -72 6 -18 9 -34 7 -37 -11 -10 -28 79 -22 112 9 49 18 46 10 -3z m861 -91 c-3 -6 -19 -17 -36 -25 -41 -22 -193 -75 -182 -64 5 5 45 22 89 37 44 15 91 36 104 45 28 20 34 21 25 7z m-315 -106 c-141 -61 -150 -64 -150 -58 0 6 162 82 200 94 67 21 44 5 -50 -36z m-405 -24 c-11 -5 -27 -9 -35 -9 -9 0 -8 4 5 9 11 5 27 9 35 9 9 0 8 -4 -5 -9z m196 -10 c-48 -11 -167 -23 -160 -16 8 8 112 23 159 24 l35 0 -34 -8z"/>
 <path d="M764 899 c-10 -17 13 -36 27 -22 12 12 4 33 -11 33 -5 0 -12 -5 -16 -11z"/>
 <path d="M1205 900 c-4 -6 -3 -16 3 -22 6 -6 12 -6 17 2 4 6 3 16 -3 22 -6 6 -12 6 -17 -2z"/>
 <path d="M645 870 c-17 -19 -17 -20 11 -31 51 -21 137 -23 172 -5 18 9 32 19 32 22 0 2 -13 -2 -30 -11 -37 -19 -91 -19 -136 0 -25 10 -34 20 -30 30 7 20 3 19 -19 -5z"/>
 <path d="M1330 872 c0 -17 -38 -34 -94 -42 l-51 -8 45 -1 c48 -1 116 14 125 28 2 5 -2 14 -10 21 -10 8 -15 9 -15 2z"/>
 <path d="M662 791 c-8 -4 37 -8 105 -9 74 0 111 3 98 8 -26 11 -186 12 -203 1z"/>
 <path d="M1095 760 c3 -5 27 -21 53 -36 35 -20 61 -27 105 -28 54 -1 61 1 89 32 38 43 29 52 -19 19 -57 -39 -84 -42 -134 -17 -53 26 -101 42 -94 30z"/>
 </g>
<g id="layer121" fill="#3e302d" stroke="none">
 <path d="M120 1982 c0 -50 34 -127 76 -172 57 -61 115 -86 255 -107 64 -10 117 -23 123 -31 6 -7 24 -25 40 -40 16 -15 44 -59 62 -98 18 -40 38 -75 45 -79 6 -4 10 -4 7 1 -58 126 -80 165 -101 179 -32 20 -40 41 -26 66 9 18 8 19 -9 8 -16 -10 -43 -8 -138 10 -145 27 -210 56 -251 113 -29 41 -63 123 -63 153 0 8 -4 15 -10 15 -5 0 -10 -8 -10 -18z"/>
 <path d="M983 1945 c0 -33 2 -45 4 -27 2 18 2 45 0 60 -2 15 -4 0 -4 -33z"/>
 <path d="M1001 1980 c1 -14 5 -38 9 -55 7 -29 8 -29 9 10 0 22 -4 47 -9 55 -8 12 -9 10 -9 -10z"/>
 <path d="M1860 1988 c0 -7 -13 -40 -29 -73 -34 -71 -98 -136 -161 -164 -36 -16 -228 -61 -259 -61 -4 0 -12 15 -19 33 -7 17 -26 48 -43 67 -28 32 -28 31 5 -19 47 -70 46 -92 -7 -151 -24 -26 -49 -68 -56 -91 -7 -24 -18 -50 -23 -56 -7 -9 -7 -13 1 -13 6 0 15 10 20 23 33 85 50 112 92 152 27 25 56 45 65 45 32 0 234 52 234 60 0 4 22 17 49 29 54 23 95 65 121 126 25 57 34 105 21 105 -6 0 -11 -6 -11 -12z"/>
 <path d="M957 1780 c-22 -61 -42 -73 -70 -39 -11 13 -31 38 -45 54 l-25 30 18 -30 c27 -46 67 -85 87 -85 10 0 18 -6 19 -12 0 -7 9 16 20 52 23 80 21 99 -4 30z"/>
 <path d="M1024 1782 c10 -69 41 -120 94 -152 90 -55 102 -68 102 -111 0 -41 14 -53 25 -20 13 41 -13 74 -124 154 -47 34 -62 57 -39 57 17 0 47 31 74 75 12 20 3 14 -25 -17 -23 -27 -47 -48 -52 -48 -6 0 -21 24 -35 53 l-26 52 6 -43z"/>
 <path d="M920 1666 c-6 -8 -33 -25 -58 -37 -80 -38 -120 -87 -107 -130 9 -29 25 -12 25 25 0 37 20 58 91 99 40 23 80 57 66 57 -2 0 -10 -7 -17 -14z"/>
 <path d="M970 1594 c0 -8 5 -12 10 -9 6 3 10 0 10 -7 0 -8 3 -9 8 -3 4 6 13 11 20 13 15 3 68 -23 96 -47 11 -9 16 -10 12 -4 -4 7 -27 26 -51 43 -48 33 -105 41 -105 14z"/>
 <path d="M925 1581 c-16 -10 -43 -33 -60 -52 l-30 -33 40 34 c22 19 51 43 65 52 34 23 22 22 -15 -1z"/>
 <path d="M1430 953 c-7 -21 -14 -103 -16 -183 -5 -180 -10 -217 -34 -257 -14 -23 -28 -33 -52 -37 -18 -2 -73 -9 -122 -16 -56 -7 -126 -25 -195 -51 -96 -37 -113 -41 -181 -37 -74 3 -154 32 -204 72 -24 19 -35 115 -36 301 0 106 -4 152 -17 188 -9 26 -20 47 -25 47 -14 0 -45 -72 -89 -205 -23 -71 -49 -140 -57 -152 -13 -20 -12 -23 1 -23 14 0 13 -8 -5 -61 l-20 -60 25 -27 c19 -20 24 -34 20 -55 -4 -20 0 -35 14 -50 11 -12 30 -48 43 -80 14 -35 35 -67 51 -80 16 -11 29 -26 29 -33 0 -15 15 -20 105 -34 39 -6 95 -18 126 -25 80 -21 125 -19 194 10 71 29 86 30 130 9 32 -15 37 -15 102 11 206 82 273 148 273 269 0 22 12 63 28 95 24 50 27 67 27 161 0 77 -5 120 -19 160 -31 91 -49 134 -67 158 l-18 23 -11 -38z m-897 -80 c-13 -84 -27 -145 -40 -180 -4 -10 -2 -14 5 -9 12 7 8 -11 -22 -97 -21 -63 -21 -70 5 -56 22 11 22 10 15 -51 -4 -34 -9 -67 -12 -75 -4 -9 0 -12 14 -8 22 5 32 -18 32 -81 0 -31 3 -37 12 -28 26 26 41 14 35 -28 -6 -44 -2 -48 23 -25 16 14 18 13 30 -15 l13 -30 41 24 c41 23 116 49 124 42 2 -3 -2 -14 -8 -26 -15 -27 -9 -33 21 -22 13 5 37 12 53 16 26 6 28 5 23 -14 -7 -28 0 -25 98 39 43 28 80 50 82 48 2 -2 -4 -21 -12 -41 l-16 -37 38 25 c42 29 70 33 75 11 2 -11 16 -5 57 22 37 25 55 32 61 24 5 -8 17 -1 39 24 31 36 51 39 51 8 0 -30 27 6 40 53 7 25 16 40 20 34 8 -12 40 92 40 129 0 12 4 19 10 16 6 -4 10 8 10 30 0 22 4 34 10 30 14 -9 13 5 -5 55 -18 51 -18 53 -3 44 11 -7 9 10 -8 50 -5 13 -4 17 3 13 6 -4 3 23 -8 65 -19 74 -18 103 2 52 22 -59 49 -201 49 -265 0 -48 -8 -90 -30 -152 -16 -48 -30 -98 -30 -112 0 -78 -66 -144 -215 -216 -99 -49 -105 -50 -127 -35 -34 24 -95 20 -155 -11 l-53 -26 -87 18 c-49 10 -126 23 -172 29 -71 9 -85 15 -92 32 -4 12 -15 24 -24 28 -9 3 -32 39 -50 79 -19 41 -41 80 -50 87 -11 9 -14 22 -10 44 5 25 1 36 -18 54 l-25 24 24 59 c28 69 28 69 9 69 -14 0 -14 2 0 23 16 26 69 173 80 226 8 35 33 101 39 101 2 0 -3 -39 -11 -87z m925 -108 l1 -20 -9 20 c-5 11 -8 31 -8 45 l0 25 8 -25 c4 -14 8 -34 8 -45z m-924 -224 c-4 -22 -1 -54 5 -72 6 -18 9 -34 7 -37 -11 -10 -28 79 -22 112 9 49 18 46 10 -3z m861 -91 c-3 -6 -19 -17 -36 -25 -41 -22 -193 -75 -182 -64 5 5 45 22 89 37 44 15 91 36 104 45 28 20 34 21 25 7z m-315 -106 c-141 -61 -150 -64 -150 -58 0 6 162 82 200 94 67 21 44 5 -50 -36z m-405 -24 c-11 -5 -27 -9 -35 -9 -9 0 -8 4 5 9 11 5 27 9 35 9 9 0 8 -4 -5 -9z m196 -10 c-48 -11 -167 -23 -160 -16 8 8 112 23 159 24 l35 0 -34 -8z"/>
 <path d="M764 899 c-10 -17 13 -36 27 -22 12 12 4 33 -11 33 -5 0 -12 -5 -16 -11z"/>
 <path d="M1205 900 c-4 -6 -3 -16 3 -22 6 -6 12 -6 17 2 4 6 3 16 -3 22 -6 6 -12 6 -17 -2z"/>
 <path d="M662 791 c-8 -4 37 -8 105 -9 74 0 111 3 98 8 -26 11 -186 12 -203 1z"/>
 <path d="M1321 746 c-52 -39 -83 -41 -142 -11 -71 35 -98 28 -34 -9 88 -51 181 -40 216 26 13 25 -1 22 -40 -6z"/>
 </g>
<g id="layer122" fill="#06344b" stroke="none">
 <path d="M120 1982 c0 -50 34 -127 76 -172 57 -61 115 -86 255 -107 64 -10 117 -23 123 -31 6 -7 24 -25 40 -40 16 -15 44 -59 62 -98 18 -40 38 -75 45 -79 6 -4 10 -4 7 1 -58 126 -80 165 -101 179 -32 20 -40 41 -26 66 9 18 8 19 -9 8 -16 -10 -43 -8 -138 10 -145 27 -210 56 -251 113 -29 41 -63 123 -63 153 0 8 -4 15 -10 15 -5 0 -10 -8 -10 -18z"/>
 <path d="M983 1945 c0 -33 2 -45 4 -27 2 18 2 45 0 60 -2 15 -4 0 -4 -33z"/>
 <path d="M1001 1980 c1 -14 5 -38 9 -55 7 -29 8 -29 9 10 0 22 -4 47 -9 55 -8 12 -9 10 -9 -10z"/>
 <path d="M1860 1988 c0 -7 -13 -40 -29 -73 -34 -71 -98 -136 -161 -164 -36 -16 -228 -61 -259 -61 -4 0 -12 15 -19 33 -7 17 -26 48 -43 67 -28 32 -28 31 5 -19 47 -70 46 -92 -7 -151 -24 -26 -49 -68 -56 -91 -7 -24 -18 -50 -23 -56 -7 -9 -7 -13 1 -13 6 0 15 10 20 23 33 85 50 112 92 152 27 25 56 45 65 45 32 0 234 52 234 60 0 4 22 17 49 29 54 23 95 65 121 126 25 57 34 105 21 105 -6 0 -11 -6 -11 -12z"/>
 <path d="M957 1780 c-22 -61 -42 -73 -70 -39 -11 13 -31 38 -45 54 l-25 30 18 -30 c27 -46 67 -85 87 -85 10 0 18 -6 19 -12 0 -7 9 16 20 52 23 80 21 99 -4 30z"/>
 <path d="M1024 1782 c10 -69 41 -120 94 -152 90 -55 102 -68 102 -111 0 -41 14 -53 25 -20 13 41 -13 74 -124 154 -47 34 -62 57 -39 57 17 0 47 31 74 75 12 20 3 14 -25 -17 -23 -27 -47 -48 -52 -48 -6 0 -21 24 -35 53 l-26 52 6 -43z"/>
 <path d="M920 1666 c-6 -8 -33 -25 -58 -37 -80 -38 -120 -87 -107 -130 9 -29 25 -12 25 25 0 37 20 58 91 99 40 23 80 57 66 57 -2 0 -10 -7 -17 -14z"/>
 <path d="M1440 988 c0 -4 10 -23 21 -43 34 -56 61 -171 66 -280 5 -91 3 -107 -20 -165 -14 -36 -28 -87 -32 -115 -14 -101 -53 -143 -207 -221 -60 -30 -108 -56 -108 -58 0 -2 31 9 68 24 198 81 262 145 262 264 0 22 12 63 28 95 24 50 27 67 27 161 0 104 -8 141 -52 251 -15 37 -53 99 -53 87z"/>
 <path d="M521 943 c-10 -21 -38 -96 -62 -168 -23 -71 -49 -140 -57 -152 -13 -20 -12 -23 1 -23 14 0 13 -8 -5 -61 l-20 -60 25 -27 c19 -20 24 -34 20 -55 -4 -20 0 -35 14 -50 11 -12 30 -48 43 -80 12 -32 34 -67 49 -78 14 -11 29 -28 33 -37 6 -15 7 -15 7 2 1 10 -11 27 -25 39 -14 11 -41 53 -59 93 -19 41 -39 74 -45 74 -8 0 -10 13 -5 39 5 33 3 41 -19 59 l-26 20 23 62 c17 49 19 64 9 67 -10 4 -10 9 1 27 15 23 77 195 77 214 0 6 10 37 22 69 20 52 22 56 29 33 12 -43 9 -212 -5 -272 -8 -37 -10 -58 -3 -61 6 -2 6 -21 -2 -55 -15 -62 0 -128 26 -117 13 4 15 -2 11 -39 l-5 -44 33 5 c37 6 40 2 23 -29 -10 -19 -9 -21 17 -15 71 16 78 17 64 11 -21 -9 -60 -46 -60 -57 0 -5 6 -5 13 2 17 14 124 37 211 46 l69 7 -23 -32 -23 -32 39 25 c49 32 173 86 239 103 l50 13 -30 -25 -30 -26 40 20 c22 10 66 27 97 37 31 10 65 26 74 36 23 26 37 24 29 -3 -4 -17 -1 -15 11 7 10 17 18 52 18 82 1 43 3 49 15 40 13 -11 12 23 -2 118 -1 6 3 9 10 8 9 -2 9 7 -2 36 -13 37 -19 78 -16 111 1 13 2 13 12 0 11 -17 2 75 -11 98 -13 26 -29 -94 -29 -220 -1 -138 -13 -207 -41 -233 -12 -11 -56 -21 -127 -30 -59 -7 -115 -16 -123 -19 -8 -2 -60 -21 -114 -41 -132 -49 -204 -50 -297 -7 -35 17 -72 37 -82 45 -25 21 -35 96 -36 286 -2 138 -5 172 -21 208 -10 24 -21 43 -24 43 -3 0 -14 -17 -25 -37z"/>
 <path d="M764 899 c-10 -17 13 -36 27 -22 12 12 4 33 -11 33 -5 0 -12 -5 -16 -11z"/>
 <path d="M1205 900 c-4 -6 -3 -16 3 -22 6 -6 12 -6 17 2 4 6 3 16 -3 22 -6 6 -12 6 -17 -2z"/>
 <path d="M667 792 c-10 -4 35 -8 100 -9 73 -1 110 2 98 7 -24 10 -173 11 -198 2z"/>
 <path d="M1315 740 c-61 -36 -74 -37 -138 -5 -67 34 -97 28 -34 -7 89 -50 175 -42 215 20 18 27 18 27 -43 -8z"/>
 <path d="M625 129 c28 -5 91 -19 140 -30 50 -10 110 -19 135 -18 l45 1 -57 9 c-31 4 -83 15 -115 23 -32 8 -89 17 -128 19 -66 5 -67 5 -20 -4z"/>
 <path d="M993 120 c-59 -26 -54 -32 7 -9 60 23 76 23 114 4 16 -9 31 -13 33 -11 9 9 -56 36 -84 36 -15 0 -47 -9 -70 -20z"/>
 </g>
<g id="layer123" fill="#2f211e" stroke="none">
 <path d="M1440 988 c0 -4 10 -23 21 -43 34 -56 61 -171 66 -280 5 -91 3 -107 -20 -165 -14 -36 -28 -87 -32 -115 -14 -101 -53 -143 -207 -221 -60 -30 -108 -56 -108 -58 0 -2 31 9 68 24 198 81 262 145 262 264 0 22 12 63 28 95 24 50 27 67 27 161 0 104 -8 141 -52 251 -15 37 -53 99 -53 87z"/>
 <path d="M521 943 c-10 -21 -38 -96 -62 -168 -23 -71 -49 -140 -57 -152 -13 -20 -12 -23 1 -23 14 0 13 -8 -5 -61 l-20 -60 25 -27 c19 -20 24 -34 20 -55 -4 -20 0 -35 14 -50 11 -12 30 -48 43 -80 12 -32 34 -67 49 -78 14 -11 29 -28 33 -37 6 -15 7 -15 7 2 1 10 -11 27 -25 39 -14 11 -41 53 -59 93 -19 41 -39 74 -45 74 -8 0 -10 13 -5 39 5 33 3 41 -19 59 l-26 20 23 62 c17 49 19 64 9 67 -10 4 -10 9 1 27 15 23 77 195 77 214 0 6 10 37 22 69 20 52 22 56 29 33 12 -43 9 -212 -5 -272 -8 -37 -10 -58 -3 -61 6 -2 6 -21 -2 -55 -15 -62 0 -128 26 -117 13 4 15 -2 11 -39 l-5 -44 33 5 c37 6 40 2 23 -29 -10 -19 -9 -21 17 -15 71 16 78 17 64 11 -21 -9 -60 -46 -60 -57 0 -5 6 -5 13 2 17 14 124 37 211 46 l69 7 -23 -32 -23 -32 39 25 c49 32 173 86 239 103 l50 13 -30 -25 -30 -26 40 20 c22 10 66 27 97 37 31 10 65 26 74 36 23 26 37 24 29 -3 -4 -17 -1 -15 11 7 10 17 18 52 18 82 1 43 3 49 15 40 13 -11 12 23 -2 118 -1 6 3 9 10 8 9 -2 9 7 -2 36 -13 37 -19 78 -16 111 1 13 2 13 12 0 11 -17 2 75 -11 98 -13 26 -29 -94 -29 -220 -1 -138 -13 -207 -41 -233 -12 -11 -56 -21 -127 -30 -59 -7 -115 -16 -123 -19 -8 -2 -60 -21 -114 -41 -132 -49 -204 -50 -297 -7 -35 17 -72 37 -82 45 -25 21 -35 96 -36 286 -2 138 -5 172 -21 208 -10 24 -21 43 -24 43 -3 0 -14 -17 -25 -37z"/>
 <path d="M764 899 c-10 -17 13 -36 27 -22 12 12 4 33 -11 33 -5 0 -12 -5 -16 -11z"/>
 <path d="M1205 900 c-4 -6 -3 -16 3 -22 6 -6 12 -6 17 2 4 6 3 16 -3 22 -6 6 -12 6 -17 -2z"/>
 <path d="M667 792 c-10 -4 35 -8 100 -9 73 -1 110 2 98 7 -24 10 -173 11 -198 2z"/>
 <path d="M1315 740 c-61 -36 -74 -37 -138 -5 -67 34 -97 28 -34 -7 89 -50 175 -42 215 20 18 27 18 27 -43 -8z"/>
 <path d="M625 129 c28 -5 91 -19 140 -30 50 -10 110 -19 135 -18 l45 1 -57 9 c-31 4 -83 15 -115 23 -32 8 -89 17 -128 19 -66 5 -67 5 -20 -4z"/>
 <path d="M993 120 c-59 -26 -54 -32 7 -9 60 23 76 23 114 4 16 -9 31 -13 33 -11 9 9 -56 36 -84 36 -15 0 -47 -9 -70 -20z"/>
 </g>
<g id="layer124" fill="#1c2029" stroke="none">
 <path d="M562 919 c5 -24 11 -120 13 -214 4 -180 13 -238 41 -264 15 -15 16 -14 1 9 -19 31 -29 128 -28 290 0 124 -8 193 -27 212 -7 7 -7 -4 0 -33z"/>
 <path d="M764 899 c-10 -17 13 -36 27 -22 12 12 4 33 -11 33 -5 0 -12 -5 -16 -11z"/>
 <path d="M1205 900 c-4 -6 -3 -16 3 -22 6 -6 12 -6 17 2 4 6 3 16 -3 22 -6 6 -12 6 -17 -2z"/>
 <path d="M1416 877 c-5 -16 -6 -63 -2 -105 8 -91 -8 -226 -29 -259 -21 -32 -50 -42 -161 -53 -65 -7 -124 -21 -188 -45 -139 -52 -181 -60 -248 -46 -31 7 -77 22 -102 35 -25 13 -43 19 -39 13 11 -18 114 -57 166 -63 56 -6 131 11 263 60 48 17 107 29 175 35 97 8 104 10 130 39 17 18 32 52 38 84 14 64 11 349 -3 305z"/>
 <path d="M473 812 c-12 -31 -30 -82 -39 -112 -9 -30 -24 -66 -33 -80 -10 -15 -11 -21 -3 -16 19 12 47 73 77 169 31 100 30 124 -2 39z"/>
 <path d="M1515 805 c2 -16 9 -61 16 -98 13 -80 2 -161 -30 -228 -12 -24 -21 -56 -21 -72 0 -101 -61 -173 -204 -242 -53 -25 -96 -47 -96 -49 0 -7 105 36 161 65 64 35 127 94 136 130 3 13 8 47 10 74 3 28 17 75 31 105 24 50 27 66 27 165 -1 83 -5 119 -18 145 -17 35 -17 35 -12 5z"/>
 <path d="M668 792 c-9 -4 34 -7 95 -8 62 0 101 3 87 7 -32 9 -160 10 -182 1z"/>
 <path d="M1320 739 c-37 -24 -53 -29 -86 -26 -23 2 -55 14 -71 27 -17 12 -39 20 -49 17 -14 -3 -2 -12 39 -30 90 -42 169 -34 205 21 19 29 16 28 -38 -9z"/>
 <path d="M400 545 l-22 -67 26 -27 c18 -18 24 -34 20 -51 -4 -22 -3 -23 5 -5 14 30 13 34 -15 60 l-26 24 23 61 c12 33 19 63 16 66 -3 3 -15 -25 -27 -61z"/>
 <path d="M436 348 c12 -13 31 -49 43 -80 13 -31 34 -65 48 -75 14 -10 29 -27 33 -38 6 -14 9 -15 9 -4 1 8 -15 30 -34 49 -19 19 -35 38 -35 43 0 21 -52 116 -68 122 -13 5 -13 2 4 -17z"/>
 <path d="M626 128 c3 -4 17 -8 32 -8 15 0 64 -9 110 -20 46 -11 104 -19 130 -19 46 2 46 2 -13 9 -33 4 -78 12 -101 18 -58 17 -164 30 -158 20z"/>
 <path d="M1013 127 c-17 -7 -35 -15 -39 -20 -10 -10 58 13 71 24 11 11 8 11 -32 -4z"/>
 </g>
<g id="layer125" fill="#281a18" stroke="none">
 <path d="M562 919 c5 -24 11 -120 13 -214 4 -180 13 -238 41 -264 15 -15 16 -14 1 9 -19 31 -29 128 -28 290 0 124 -8 193 -27 212 -7 7 -7 -4 0 -33z"/>
 <path d="M770 890 c0 -5 7 -10 15 -10 8 0 15 5 15 10 0 6 -7 10 -15 10 -8 0 -15 -4 -15 -10z"/>
 <path d="M1200 890 c0 -5 7 -10 15 -10 8 0 15 5 15 10 0 6 -7 10 -15 10 -8 0 -15 -4 -15 -10z"/>
 <path d="M1416 877 c-5 -16 -6 -63 -2 -105 8 -91 -8 -226 -29 -259 -21 -32 -50 -42 -161 -53 -65 -7 -124 -21 -188 -45 -139 -52 -181 -60 -248 -46 -31 7 -77 22 -102 35 -25 13 -43 19 -39 13 11 -18 114 -57 166 -63 56 -6 131 11 263 60 48 17 107 29 175 35 97 8 104 10 130 39 17 18 32 52 38 84 14 64 11 349 -3 305z"/>
 <path d="M473 812 c-12 -31 -30 -82 -39 -112 -9 -30 -24 -66 -33 -80 -10 -15 -11 -21 -3 -16 19 12 47 73 77 169 31 100 30 124 -2 39z"/>
 <path d="M1515 805 c2 -16 9 -61 16 -98 13 -80 2 -161 -30 -228 -12 -24 -21 -56 -21 -72 0 -101 -61 -173 -204 -242 -53 -25 -96 -47 -96 -49 0 -7 105 36 161 65 64 35 127 94 136 130 3 13 8 47 10 74 3 28 17 75 31 105 24 50 27 66 27 165 -1 83 -5 119 -18 145 -17 35 -17 35 -12 5z"/>
 <path d="M668 792 c-9 -4 34 -7 95 -8 62 0 101 3 87 7 -32 9 -160 10 -182 1z"/>
 <path d="M1325 743 c-31 -21 -36 -28 -22 -31 20 -4 43 12 58 40 13 23 11 23 -36 -9z"/>
 <path d="M1100 755 c0 -7 57 -35 72 -35 20 1 -32 40 -53 40 -10 0 -19 -2 -19 -5z"/>
 <path d="M400 545 l-22 -67 26 -27 c18 -18 24 -34 20 -51 -4 -22 -3 -23 5 -5 14 30 13 34 -15 60 l-26 24 23 61 c12 33 19 63 16 66 -3 3 -15 -25 -27 -61z"/>
 <path d="M436 348 c12 -13 31 -49 43 -80 13 -31 34 -65 48 -75 14 -10 29 -27 33 -38 6 -14 9 -15 9 -4 1 8 -15 30 -34 49 -19 19 -35 38 -35 43 0 21 -52 116 -68 122 -13 5 -13 2 4 -17z"/>
 <path d="M626 128 c3 -4 17 -8 32 -8 15 0 64 -9 110 -20 46 -11 104 -19 130 -19 46 2 46 2 -13 9 -33 4 -78 12 -101 18 -58 17 -164 30 -158 20z"/>
 <path d="M1013 127 c-17 -7 -35 -15 -39 -20 -10 -10 58 13 71 24 11 11 8 11 -32 -4z"/>
 </g>
<g id="layer126" fill="#1c1413" stroke="none">
 <path d="M566 925 c4 -11 10 -65 14 -120 l8 -100 -2 100 c-1 61 -7 108 -15 120 l-13 20 8 -20z"/>
 <path d="M770 890 c0 -5 7 -10 15 -10 8 0 15 5 15 10 0 6 -7 10 -15 10 -8 0 -15 -4 -15 -10z"/>
 <path d="M1200 890 c0 -5 7 -10 15 -10 8 0 15 5 15 10 0 6 -7 10 -15 10 -8 0 -15 -4 -15 -10z"/>
 <path d="M480 817 c0 -9 -5 -17 -11 -17 -5 0 -7 -5 -3 -11 3 -6 1 -15 -6 -19 -8 -5 -9 -10 -2 -14 11 -7 38 61 28 71 -3 4 -6 -1 -6 -10z"/>
 <path d="M718 793 c23 -2 59 -2 80 0 20 2 1 4 -43 4 -44 0 -61 -2 -37 -4z"/>
 <path d="M1327 744 c-40 -27 -44 -41 -9 -30 16 5 61 56 50 56 -2 0 -21 -12 -41 -26z"/>
 <path d="M1110 756 c0 -9 61 -38 67 -32 3 3 -7 10 -22 16 -15 6 -32 13 -36 16 -5 3 -9 3 -9 0z"/>
 <path d="M1531 710 c0 -33 1 -34 10 -11 6 16 6 28 -1 35 -7 7 -10 -1 -9 -24z"/>
 <path d="M583 625 c0 -27 2 -38 4 -22 2 15 2 37 0 50 -2 12 -4 0 -4 -28z"/>
 <path d="M1413 620 c0 -25 2 -35 4 -22 2 12 2 32 0 45 -2 12 -4 2 -4 -23z"/>
 <path d="M1397 543 c-3 -17 -17 -41 -29 -53 -22 -21 -22 -22 -2 -12 23 12 49 63 42 84 -3 7 -7 -2 -11 -19z"/>
 <path d="M1293 463 c9 -2 25 -2 35 0 9 3 1 5 -18 5 -19 0 -27 -2 -17 -5z"/>
 <path d="M1183 453 c9 -2 25 -2 35 0 9 3 1 5 -18 5 -19 0 -27 -2 -17 -5z"/>
 <path d="M1082 433 c-64 -23 -46 -25 23 -3 33 10 51 19 40 19 -11 0 -39 -7 -63 -16z"/>
 <path d="M1460 311 c0 -6 -16 -28 -35 -50 -46 -51 -45 -58 3 -12 21 20 36 39 35 43 -2 3 2 8 9 10 9 3 9 6 0 12 -7 4 -12 2 -12 -3z"/>
 </g>

</svg>